<?xml version="1.0" encoding="utf-8" standalone="no"?>
<!DOCTYPE svg PUBLIC "-//W3C//DTD SVG 1.1//EN"
  "http://www.w3.org/Graphics/SVG/1.1/DTD/svg11.dtd">
<svg xmlns:xlink="http://www.w3.org/1999/xlink" width="1440pt" height="576pt" viewBox="0 0 1440 576" xmlns="http://www.w3.org/2000/svg" version="1.1">
 <metadata>
  <rdf:RDF xmlns:dc="http://purl.org/dc/elements/1.1/" xmlns:cc="http://creativecommons.org/ns#" xmlns:rdf="http://www.w3.org/1999/02/22-rdf-syntax-ns#">
   <cc:Work>
    <dc:type rdf:resource="http://purl.org/dc/dcmitype/StillImage"/>
    <dc:date>2024-05-22T04:50:20.175196</dc:date>
    <dc:format>image/svg+xml</dc:format>
    <dc:creator>
     <cc:Agent>
      <dc:title>Matplotlib v3.8.3, https://matplotlib.org/</dc:title>
     </cc:Agent>
    </dc:creator>
   </cc:Work>
  </rdf:RDF>
 </metadata>
 <defs>
  <style type="text/css">*{stroke-linejoin: round; stroke-linecap: butt}</style>
 </defs>
 <g id="figure_1">
  <g id="patch_1">
   <path d="M 0 576 
L 1440 576 
L 1440 0 
L 0 0 
z
" style="fill: #ffffff"/>
  </g>
  <g id="axes_1">
   <g id="patch_2">
    <path d="M 180 512.64 
L 1296 512.64 
L 1296 69.12 
L 180 69.12 
z
" style="fill: #ffffff"/>
   </g>
   <g id="matplotlib.axis_1">
    <g id="xtick_1">
     <g id="line2d_1">
      <defs>
       <path id="m017c658b8a" d="M 0 0 
L 0 3.5 
" style="stroke: #000000; stroke-width: 0.8"/>
      </defs>
      <g>
       <use xlink:href="#m017c658b8a" x="229.734567" y="512.64" style="stroke: #000000; stroke-width: 0.8"/>
      </g>
     </g>
     <g id="text_1">
      <!-- 0 -->
      <g transform="translate(226.553317 527.238438) scale(0.1 -0.1)">
       <defs>
        <path id="DejaVuSans-30" d="M 2034 4250 
Q 1547 4250 1301 3770 
Q 1056 3291 1056 2328 
Q 1056 1369 1301 889 
Q 1547 409 2034 409 
Q 2525 409 2770 889 
Q 3016 1369 3016 2328 
Q 3016 3291 2770 3770 
Q 2525 4250 2034 4250 
z
M 2034 4750 
Q 2819 4750 3233 4129 
Q 3647 3509 3647 2328 
Q 3647 1150 3233 529 
Q 2819 -91 2034 -91 
Q 1250 -91 836 529 
Q 422 1150 422 2328 
Q 422 3509 836 4129 
Q 1250 4750 2034 4750 
z
" transform="scale(0.015625)"/>
       </defs>
       <use xlink:href="#DejaVuSans-30"/>
      </g>
     </g>
    </g>
    <g id="xtick_2">
     <g id="line2d_2">
      <g>
       <use xlink:href="#m017c658b8a" x="433.04074" y="512.64" style="stroke: #000000; stroke-width: 0.8"/>
      </g>
     </g>
     <g id="text_2">
      <!-- 500 -->
      <g transform="translate(423.49699 527.238438) scale(0.1 -0.1)">
       <defs>
        <path id="DejaVuSans-35" d="M 691 4666 
L 3169 4666 
L 3169 4134 
L 1269 4134 
L 1269 2991 
Q 1406 3038 1543 3061 
Q 1681 3084 1819 3084 
Q 2600 3084 3056 2656 
Q 3513 2228 3513 1497 
Q 3513 744 3044 326 
Q 2575 -91 1722 -91 
Q 1428 -91 1123 -41 
Q 819 9 494 109 
L 494 744 
Q 775 591 1075 516 
Q 1375 441 1709 441 
Q 2250 441 2565 725 
Q 2881 1009 2881 1497 
Q 2881 1984 2565 2268 
Q 2250 2553 1709 2553 
Q 1456 2553 1204 2497 
Q 953 2441 691 2322 
L 691 4666 
z
" transform="scale(0.015625)"/>
       </defs>
       <use xlink:href="#DejaVuSans-35"/>
       <use xlink:href="#DejaVuSans-30" x="63.623047"/>
       <use xlink:href="#DejaVuSans-30" x="127.246094"/>
      </g>
     </g>
    </g>
    <g id="xtick_3">
     <g id="line2d_3">
      <g>
       <use xlink:href="#m017c658b8a" x="636.346913" y="512.64" style="stroke: #000000; stroke-width: 0.8"/>
      </g>
     </g>
     <g id="text_3">
      <!-- 1000 -->
      <g transform="translate(623.621913 527.238438) scale(0.1 -0.1)">
       <defs>
        <path id="DejaVuSans-31" d="M 794 531 
L 1825 531 
L 1825 4091 
L 703 3866 
L 703 4441 
L 1819 4666 
L 2450 4666 
L 2450 531 
L 3481 531 
L 3481 0 
L 794 0 
L 794 531 
z
" transform="scale(0.015625)"/>
       </defs>
       <use xlink:href="#DejaVuSans-31"/>
       <use xlink:href="#DejaVuSans-30" x="63.623047"/>
       <use xlink:href="#DejaVuSans-30" x="127.246094"/>
       <use xlink:href="#DejaVuSans-30" x="190.869141"/>
      </g>
     </g>
    </g>
    <g id="xtick_4">
     <g id="line2d_4">
      <g>
       <use xlink:href="#m017c658b8a" x="839.653087" y="512.64" style="stroke: #000000; stroke-width: 0.8"/>
      </g>
     </g>
     <g id="text_4">
      <!-- 1500 -->
      <g transform="translate(826.928087 527.238438) scale(0.1 -0.1)">
       <use xlink:href="#DejaVuSans-31"/>
       <use xlink:href="#DejaVuSans-35" x="63.623047"/>
       <use xlink:href="#DejaVuSans-30" x="127.246094"/>
       <use xlink:href="#DejaVuSans-30" x="190.869141"/>
      </g>
     </g>
    </g>
    <g id="xtick_5">
     <g id="line2d_5">
      <g>
       <use xlink:href="#m017c658b8a" x="1042.95926" y="512.64" style="stroke: #000000; stroke-width: 0.8"/>
      </g>
     </g>
     <g id="text_5">
      <!-- 2000 -->
      <g transform="translate(1030.23426 527.238438) scale(0.1 -0.1)">
       <defs>
        <path id="DejaVuSans-32" d="M 1228 531 
L 3431 531 
L 3431 0 
L 469 0 
L 469 531 
Q 828 903 1448 1529 
Q 2069 2156 2228 2338 
Q 2531 2678 2651 2914 
Q 2772 3150 2772 3378 
Q 2772 3750 2511 3984 
Q 2250 4219 1831 4219 
Q 1534 4219 1204 4116 
Q 875 4013 500 3803 
L 500 4441 
Q 881 4594 1212 4672 
Q 1544 4750 1819 4750 
Q 2544 4750 2975 4387 
Q 3406 4025 3406 3419 
Q 3406 3131 3298 2873 
Q 3191 2616 2906 2266 
Q 2828 2175 2409 1742 
Q 1991 1309 1228 531 
z
" transform="scale(0.015625)"/>
       </defs>
       <use xlink:href="#DejaVuSans-32"/>
       <use xlink:href="#DejaVuSans-30" x="63.623047"/>
       <use xlink:href="#DejaVuSans-30" x="127.246094"/>
       <use xlink:href="#DejaVuSans-30" x="190.869141"/>
      </g>
     </g>
    </g>
    <g id="xtick_6">
     <g id="line2d_6">
      <g>
       <use xlink:href="#m017c658b8a" x="1246.265433" y="512.64" style="stroke: #000000; stroke-width: 0.8"/>
      </g>
     </g>
     <g id="text_6">
      <!-- 2500 -->
      <g transform="translate(1233.540433 527.238438) scale(0.1 -0.1)">
       <use xlink:href="#DejaVuSans-32"/>
       <use xlink:href="#DejaVuSans-35" x="63.623047"/>
       <use xlink:href="#DejaVuSans-30" x="127.246094"/>
       <use xlink:href="#DejaVuSans-30" x="190.869141"/>
      </g>
     </g>
    </g>
   </g>
   <g id="matplotlib.axis_2">
    <g id="ytick_1">
     <g id="line2d_7">
      <defs>
       <path id="m9f602d8bc8" d="M 0 0 
L -3.5 0 
" style="stroke: #000000; stroke-width: 0.8"/>
      </defs>
      <g>
       <use xlink:href="#m9f602d8bc8" x="180" y="417.164835" style="stroke: #000000; stroke-width: 0.8"/>
      </g>
     </g>
     <g id="text_7">
      <!-- −2 -->
      <g transform="translate(158.257812 420.964053) scale(0.1 -0.1)">
       <defs>
        <path id="DejaVuSans-2212" d="M 678 2272 
L 4684 2272 
L 4684 1741 
L 678 1741 
L 678 2272 
z
" transform="scale(0.015625)"/>
       </defs>
       <use xlink:href="#DejaVuSans-2212"/>
       <use xlink:href="#DejaVuSans-32" x="83.789062"/>
      </g>
     </g>
    </g>
    <g id="ytick_2">
     <g id="line2d_8">
      <g>
       <use xlink:href="#m9f602d8bc8" x="180" y="321.303233" style="stroke: #000000; stroke-width: 0.8"/>
      </g>
     </g>
     <g id="text_8">
      <!-- 0 -->
      <g transform="translate(166.6375 325.102452) scale(0.1 -0.1)">
       <use xlink:href="#DejaVuSans-30"/>
      </g>
     </g>
    </g>
    <g id="ytick_3">
     <g id="line2d_9">
      <g>
       <use xlink:href="#m9f602d8bc8" x="180" y="225.441632" style="stroke: #000000; stroke-width: 0.8"/>
      </g>
     </g>
     <g id="text_9">
      <!-- 2 -->
      <g transform="translate(166.6375 229.240851) scale(0.1 -0.1)">
       <use xlink:href="#DejaVuSans-32"/>
      </g>
     </g>
    </g>
    <g id="ytick_4">
     <g id="line2d_10">
      <g>
       <use xlink:href="#m9f602d8bc8" x="180" y="129.580031" style="stroke: #000000; stroke-width: 0.8"/>
      </g>
     </g>
     <g id="text_10">
      <!-- 4 -->
      <g transform="translate(166.6375 133.379249) scale(0.1 -0.1)">
       <defs>
        <path id="DejaVuSans-34" d="M 2419 4116 
L 825 1625 
L 2419 1625 
L 2419 4116 
z
M 2253 4666 
L 3047 4666 
L 3047 1625 
L 3713 1625 
L 3713 1100 
L 3047 1100 
L 3047 0 
L 2419 0 
L 2419 1100 
L 313 1100 
L 313 1709 
L 2253 4666 
z
" transform="scale(0.015625)"/>
       </defs>
       <use xlink:href="#DejaVuSans-34"/>
      </g>
     </g>
    </g>
   </g>
   <g id="line2d_11">
    <path d="M 230.727273 331.024153 
L 231.719979 330.636572 
L 232.712685 330.071624 
L 233.70539 329.285706 
L 234.698096 328.160182 
L 235.690802 326.811744 
L 236.683508 325.271073 
L 238.66892 321.036191 
L 240.654332 315.342765 
L 241.647038 311.773316 
L 242.639744 307.700374 
L 243.63245 302.911532 
L 245.617862 288.383863 
L 246.610568 284.289308 
L 247.603273 268.952269 
L 248.595979 241.425709 
L 249.588685 230.995658 
L 250.581391 250.436053 
L 252.566803 174.793223 
L 253.559509 162.567239 
L 254.552215 174.680982 
L 255.544921 210.896945 
L 256.537627 189.057749 
L 257.530333 182.005121 
L 258.523039 178.682891 
L 259.515745 160.679977 
L 260.50845 164.257136 
L 261.501156 211.486055 
L 263.486568 175.805269 
L 264.479274 200.820351 
L 265.47198 219.403608 
L 266.464686 187.200289 
L 267.457392 177.666843 
L 268.450098 176.3993 
L 269.442804 182.604737 
L 270.43551 201.586813 
L 271.428216 241.875315 
L 272.420922 261.359377 
L 273.413627 202.122376 
L 274.406333 177.66487 
L 275.399039 224.143192 
L 276.391745 154.425988 
L 277.384451 112.162685 
L 278.377157 104.661529 
L 279.369863 131.220716 
L 280.362569 148.075147 
L 281.355275 104.891876 
L 282.347981 105.936513 
L 283.340687 148.831433 
L 284.333393 110.481252 
L 285.326099 89.28 
L 286.318804 96.291837 
L 287.31151 116.288787 
L 288.304216 117.575473 
L 289.296922 132.949004 
L 290.289628 199.913922 
L 291.282334 147.847117 
L 292.27504 147.479091 
L 293.267746 164.906451 
L 294.260452 165.045486 
L 295.253158 182.214251 
L 296.245864 182.623657 
L 297.23857 181.882 
L 298.231276 209.465409 
L 299.223981 202.178893 
L 300.216687 202.361134 
L 301.209393 215.237386 
L 302.202099 230.108458 
L 303.194805 248.022348 
L 304.187511 229.734598 
L 305.180217 246.717447 
L 306.172923 279.673137 
L 307.165629 257.885596 
L 309.151041 330.492297 
L 310.143747 315.000285 
L 311.136453 358.661051 
L 312.129159 308.326618 
L 314.11457 350.621264 
L 315.107276 339.787044 
L 316.099982 345.43856 
L 317.092688 340.621738 
L 318.085394 336.874383 
L 319.0781 346.171458 
L 320.070806 360.407197 
L 321.063512 355.193767 
L 322.056218 343.306575 
L 323.048924 349.141751 
L 324.04163 352.821446 
L 325.034336 359.260735 
L 326.027041 353.879421 
L 327.019747 352.766672 
L 328.012453 355.238143 
L 329.005159 360.590893 
L 329.997865 360.689549 
L 330.990571 365.691756 
L 331.983277 357.110382 
L 332.975983 360.675567 
L 333.968689 375.114432 
L 334.961395 364.923837 
L 335.954101 362.166803 
L 336.946807 371.736296 
L 337.939513 362.628771 
L 338.932218 370.124477 
L 339.924924 389.831127 
L 340.91763 373.375132 
L 341.910336 366.21315 
L 342.903042 382.369718 
L 344.888454 373.937899 
L 345.88116 367.652464 
L 346.873866 381.072769 
L 347.866572 386.577407 
L 348.859278 364.824406 
L 349.851984 388.689847 
L 350.84469 373.634016 
L 351.837395 373.746807 
L 352.830101 394.630812 
L 353.822807 374.696656 
L 354.815513 396.426097 
L 355.808219 391.862006 
L 356.800925 388.940653 
L 357.793631 383.92756 
L 358.786337 379.808979 
L 359.779043 409.054556 
L 360.771749 376.972018 
L 361.764455 379.153308 
L 362.757161 391.478068 
L 363.749867 377.551282 
L 364.742572 403.510611 
L 365.735278 387.666495 
L 366.727984 388.182347 
L 367.72069 377.127652 
L 369.706102 399.365901 
L 370.698808 395.121807 
L 371.691514 398.623806 
L 372.68422 393.019229 
L 373.676926 398.552602 
L 374.669632 401.128974 
L 375.662338 398.995993 
L 376.655044 409.53557 
L 377.64775 394.622702 
L 378.640455 393.112725 
L 379.633161 412.899269 
L 380.625867 385.19706 
L 381.618573 404.405452 
L 382.611279 442.470335 
L 383.603985 403.188268 
L 384.596691 406.080528 
L 385.589397 434.295946 
L 386.582103 389.997441 
L 387.574809 421.402067 
L 388.567515 399.176336 
L 389.560221 401.908885 
L 390.552927 408.782649 
L 391.545632 399.132778 
L 392.538338 395.93992 
L 393.531044 403.393853 
L 394.52375 399.559517 
L 395.516456 392.96523 
L 396.509162 420.784582 
L 397.501868 401.76558 
L 398.494574 396.533312 
L 399.48728 422.313561 
L 400.479986 391.378228 
L 401.472692 431.326806 
L 402.465398 423.726893 
L 403.458104 404.160763 
L 404.450809 395.541973 
L 405.443515 428.827019 
L 406.436221 410.408874 
L 407.428927 399.545789 
L 408.421633 413.55791 
L 409.414339 414.986761 
L 410.407045 392.466174 
L 411.399751 458.296997 
L 412.392457 427.554378 
L 413.385163 386.95152 
L 414.377869 394.743081 
L 415.370575 412.316226 
L 416.363281 397.317861 
L 417.355986 428.226506 
L 418.348692 390.06872 
L 419.341398 437.140503 
L 420.334104 405.520856 
L 421.32681 400.596062 
L 422.319516 409.934341 
L 423.312222 401.540753 
L 424.304928 400.786225 
L 425.297634 427.721522 
L 426.29034 391.745107 
L 427.283046 397.002706 
L 428.275752 492.48 
L 429.268458 410.429724 
L 430.261163 405.649768 
L 431.253869 432.55142 
L 432.246575 419.829479 
L 433.239281 448.671528 
L 434.231987 411.285928 
L 435.224693 418.040895 
L 436.217399 400.774247 
L 437.210105 419.752449 
L 438.202811 436.490562 
L 439.195517 397.792565 
L 440.188223 435.039384 
L 441.180929 443.796373 
L 442.173635 406.307646 
L 443.166341 425.14969 
L 444.159046 421.204801 
L 445.151752 394.733948 
L 446.144458 433.619408 
L 447.137164 422.293135 
L 448.12987 399.691298 
L 450.115282 419.03959 
L 451.107988 436.299579 
L 452.100694 409.460146 
L 453.0934 407.304356 
L 454.086106 417.116887 
L 455.078812 432.056175 
L 456.071518 418.285088 
L 457.064223 413.792448 
L 458.056929 429.549607 
L 459.049635 430.705296 
L 460.042341 441.423002 
L 461.035047 421.056721 
L 462.027753 425.599925 
L 463.020459 423.206006 
L 464.013165 423.275932 
L 465.005871 432.611998 
L 465.998577 416.222038 
L 466.991283 442.578914 
L 467.983989 413.099628 
L 469.9694 439.379481 
L 470.962106 428.321477 
L 471.954812 415.623976 
L 472.947518 432.027638 
L 473.940224 414.789613 
L 474.93293 426.8653 
L 475.925636 431.209975 
L 476.918342 413.587913 
L 477.911048 446.497235 
L 478.903754 435.342337 
L 479.89646 422.925084 
L 480.889166 429.451238 
L 481.881872 412.07945 
L 482.874577 428.014416 
L 483.867283 462.889249 
L 484.859989 423.909354 
L 485.852695 415.403386 
L 486.845401 455.755756 
L 487.838107 427.497361 
L 488.830813 422.949856 
L 489.823519 416.850334 
L 490.816225 408.871996 
L 491.808931 432.733721 
L 492.801637 421.881697 
L 493.794343 429.965143 
L 494.787049 414.565168 
L 495.779754 469.464607 
L 496.77246 438.093855 
L 497.765166 425.967518 
L 498.757872 417.731753 
L 500.743284 443.507081 
L 501.73599 434.609683 
L 502.728696 413.784627 
L 503.721402 425.790616 
L 504.714108 422.034381 
L 505.706814 446.494376 
L 506.69952 449.503947 
L 507.692226 443.868173 
L 508.684932 416.024291 
L 509.677637 438.895757 
L 510.670343 449.004646 
L 511.663049 433.058004 
L 512.655755 442.284995 
L 513.648461 447.799295 
L 514.641167 431.530306 
L 515.633873 435.588359 
L 516.626579 435.172419 
L 517.619285 433.32589 
L 518.611991 426.261042 
L 519.604697 441.146016 
L 520.597403 421.3084 
L 521.590109 461.870644 
L 522.582814 451.70841 
L 523.57552 408.121813 
L 524.568226 441.50559 
L 525.560932 437.390497 
L 526.553638 428.374443 
L 527.546344 430.661723 
L 528.53905 431.212304 
L 529.531756 453.370038 
L 530.524462 438.231144 
L 531.517168 432.578676 
L 532.509874 423.215966 
L 533.50258 444.250336 
L 534.495286 486.50555 
L 535.487991 431.568051 
L 536.480697 435.48274 
L 537.473403 457.952022 
L 538.466109 422.92931 
L 539.458815 435.779614 
L 540.451521 478.797754 
L 541.444227 411.057837 
L 542.436933 454.82734 
L 543.429639 429.872124 
L 544.422345 436.086099 
L 545.415051 462.203181 
L 546.407757 400.340486 
L 547.400463 425.945225 
L 548.393168 480.947803 
L 549.385874 413.342417 
L 550.37858 431.054239 
L 551.371286 444.203984 
L 552.363992 445.126502 
L 553.356698 452.361527 
L 554.349404 443.35307 
L 555.34211 436.808912 
L 556.334816 440.155404 
L 557.327522 415.680934 
L 558.320228 450.586044 
L 559.312934 429.667912 
L 560.30564 479.594071 
L 561.298345 466.364068 
L 562.291051 436.024344 
L 563.283757 453.737207 
L 564.276463 453.883786 
L 565.269169 414.185693 
L 567.254581 478.031773 
L 568.247287 432.629406 
L 569.239993 446.787529 
L 570.232699 432.741776 
L 571.225405 450.054309 
L 572.218111 447.167664 
L 573.210817 430.468187 
L 574.203523 434.038748 
L 575.196228 440.337781 
L 576.188934 426.566624 
L 577.18164 451.943385 
L 578.174346 435.641343 
L 579.167052 441.994792 
L 580.159758 456.764294 
L 581.152464 479.098034 
L 582.14517 427.890091 
L 583.137876 470.591236 
L 584.130582 427.044942 
L 585.123288 426.926269 
L 586.115994 455.037134 
L 587.1087 420.23917 
L 588.101405 483.06266 
L 590.086817 441.147421 
L 591.079523 436.218324 
L 592.072229 441.216778 
L 593.064935 471.441955 
L 594.057641 468.798626 
L 595.050347 452.605164 
L 596.043053 444.957598 
L 597.035759 455.569318 
L 598.028465 450.092675 
L 599.021171 453.42104 
L 600.013877 447.229697 
L 601.006582 454.277367 
L 601.999288 448.442026 
L 602.991994 449.878747 
L 603.9847 461.232708 
L 604.977406 461.74613 
L 605.970112 451.423849 
L 606.962818 453.227188 
L 607.955524 444.956731 
L 608.94823 446.542993 
L 609.940936 441.987918 
L 610.933642 434.608748 
L 611.926348 442.48545 
L 612.919054 440.474302 
L 613.911759 443.263895 
L 614.904465 443.801595 
L 615.897171 448.861466 
L 616.889877 452.689135 
L 617.882583 439.818406 
L 618.875289 448.624787 
L 619.867995 455.506538 
L 620.860701 452.907013 
L 621.853407 469.113666 
L 622.846113 444.325882 
L 623.838819 445.567871 
L 624.831525 450.552972 
L 625.824231 445.569544 
L 626.816936 462.729722 
L 627.809642 447.242305 
L 628.802348 465.52593 
L 629.795054 458.547487 
L 630.78776 437.259678 
L 631.780466 457.153255 
L 632.773172 444.812446 
L 633.765878 458.427106 
L 634.758584 455.354567 
L 635.75129 460.162675 
L 636.743996 450.532361 
L 637.736702 453.266998 
L 638.729408 450.610406 
L 639.722114 449.131467 
L 640.714819 464.331972 
L 641.707525 456.117893 
L 642.700231 455.807451 
L 643.692937 451.447193 
L 644.685643 450.797499 
L 645.678349 459.637155 
L 646.671055 454.652066 
L 647.663761 452.108601 
L 648.656467 461.547216 
L 649.649173 452.666702 
L 650.641879 455.943592 
L 651.634585 452.348469 
L 652.627291 455.202083 
L 653.619996 454.084933 
L 654.612702 453.762976 
L 655.605408 456.142252 
L 656.598114 453.4865 
L 657.59082 461.557851 
L 658.583526 455.518148 
L 659.576232 456.245809 
L 660.568938 453.076822 
L 661.561644 450.464892 
L 662.55435 460.208115 
L 663.547056 455.835852 
L 664.539762 456.74402 
L 665.532468 457.249391 
L 666.525173 460.1633 
L 667.517879 455.00203 
L 668.510585 454.915267 
L 669.503291 459.707259 
L 670.495997 452.595465 
L 671.488703 454.586583 
L 672.481409 452.028609 
L 673.474115 459.930712 
L 674.466821 456.909876 
L 675.459527 459.563801 
L 676.452233 457.176596 
L 677.444939 455.191542 
L 678.437645 459.408012 
L 679.43035 458.176458 
L 680.423056 458.201892 
L 681.415762 459.569546 
L 682.408468 458.496085 
L 683.401174 455.578988 
L 684.39388 459.606097 
L 685.386586 458.373459 
L 686.379292 460.230081 
L 687.371998 461.342922 
L 688.364704 461.004256 
L 689.35741 460.054674 
L 690.350116 458.289777 
L 691.342822 459.883342 
L 692.335527 459.790233 
L 693.328233 457.897136 
L 694.320939 460.837782 
L 695.313645 458.003542 
L 697.299057 460.468992 
L 698.291763 459.835545 
L 699.284469 459.756387 
L 700.277175 459.921144 
L 701.269881 457.579175 
L 702.262587 460.963671 
L 703.255293 461.85603 
L 704.247999 460.99058 
L 705.240705 458.804895 
L 706.23341 461.679644 
L 707.226116 459.158856 
L 708.218822 458.948936 
L 709.211528 462.129909 
L 711.19694 460.014749 
L 712.189646 459.746053 
L 713.182352 461.159075 
L 714.175058 458.561212 
L 715.167764 460.548991 
L 716.16047 461.786352 
L 717.153176 462.244865 
L 718.145882 461.442616 
L 719.138587 461.704821 
L 720.131293 462.520771 
L 721.123999 460.887209 
L 722.116705 461.409328 
L 724.102117 462.794585 
L 725.094823 461.777304 
L 726.087529 462.936038 
L 727.080235 463.358828 
L 728.072941 464.594077 
L 729.065647 462.692017 
L 730.058353 461.416304 
L 731.051059 463.67026 
L 732.043764 461.962233 
L 733.03647 463.464118 
L 734.029176 462.514174 
L 735.021882 462.443329 
L 737.007294 464.356806 
L 738 464.004082 
L 738.992706 461.980598 
L 739.985412 464.729605 
L 740.978118 462.415117 
L 741.970824 464.440799 
L 742.96353 461.810367 
L 743.956236 463.38619 
L 744.948941 464.121308 
L 745.941647 463.541866 
L 746.934353 462.010656 
L 747.927059 463.607138 
L 748.919765 465.555979 
L 749.912471 465.832532 
L 750.905177 464.936268 
L 751.897883 464.980831 
L 752.890589 464.087296 
L 753.883295 464.945024 
L 754.876001 462.65506 
L 755.868707 463.338608 
L 756.861413 464.697094 
L 757.854118 464.461993 
L 758.846824 464.932422 
L 759.83953 462.942021 
L 760.832236 464.179595 
L 761.824942 464.521822 
L 762.817648 464.567984 
L 763.810354 465.014006 
L 764.80306 464.842424 
L 765.795766 465.110025 
L 767.781178 464.944363 
L 768.773884 464.551967 
L 769.76659 466.666343 
L 770.759295 465.25459 
L 771.752001 466.407532 
L 772.744707 467.127621 
L 773.737413 467.009219 
L 774.730119 465.926342 
L 775.722825 465.206012 
L 776.715531 466.153468 
L 777.708237 465.344657 
L 778.700943 465.826581 
L 779.693649 467.567582 
L 780.686355 466.57074 
L 781.679061 467.180149 
L 782.671767 466.450295 
L 783.664473 464.645001 
L 784.657178 465.992685 
L 785.649884 466.736291 
L 786.64259 466.058411 
L 787.635296 466.124941 
L 788.628002 467.616188 
L 789.620708 465.867982 
L 790.613414 465.313939 
L 791.60612 467.275435 
L 792.598826 467.695638 
L 793.591532 466.884331 
L 794.584238 468.146915 
L 795.576944 467.835808 
L 796.56965 467.17055 
L 798.555061 467.902186 
L 799.547767 467.904786 
L 800.540473 468.205887 
L 801.533179 466.583086 
L 802.525885 468.400522 
L 803.518591 468.977049 
L 804.511297 466.299615 
L 805.504003 468.688278 
L 806.496709 468.460734 
L 807.489415 468.661924 
L 808.482121 467.58197 
L 809.474827 469.436717 
L 810.467532 467.586553 
L 812.452944 468.415546 
L 813.44565 468.724633 
L 814.438356 468.577973 
L 815.431062 467.230985 
L 816.423768 468.907873 
L 817.416474 469.137893 
L 818.40918 467.763575 
L 819.401886 469.360939 
L 820.394592 468.799585 
L 821.387298 467.864946 
L 822.380004 468.263049 
L 823.372709 467.516032 
L 824.365415 468.417198 
L 825.358121 467.946903 
L 826.350827 468.682285 
L 827.343533 468.513878 
L 828.336239 467.812128 
L 829.328945 469.459243 
L 830.321651 468.40299 
L 831.314357 469.063135 
L 832.307063 468.993348 
L 833.299769 469.360049 
L 834.292475 469.199971 
L 835.285181 469.316965 
L 836.277886 470.897821 
L 837.270592 470.257362 
L 838.263298 470.93664 
L 839.256004 470.140916 
L 840.24871 470.501987 
L 841.241416 470.167171 
L 842.234122 470.708011 
L 843.226828 470.003309 
L 844.219534 470.037809 
L 845.21224 470.410776 
L 846.204946 470.645037 
L 847.197652 469.402823 
L 848.190358 469.790439 
L 849.183064 471.783244 
L 850.175769 470.731276 
L 851.168475 470.11252 
L 852.161181 470.208772 
L 853.153887 472.141676 
L 854.146593 472.668169 
L 855.139299 471.371668 
L 856.132005 471.899013 
L 857.124711 469.616209 
L 858.117417 470.971961 
L 859.110123 471.613404 
L 860.102829 470.708644 
L 861.095535 471.161946 
L 862.088241 471.930937 
L 864.073652 470.919748 
L 865.066358 472.867256 
L 866.059064 472.754861 
L 867.05177 471.759337 
L 870.029888 471.69799 
L 871.022594 472.741048 
L 872.0153 470.763792 
L 873.008006 472.619918 
L 874.000712 472.315055 
L 874.993418 469.77456 
L 875.986123 471.527397 
L 876.978829 470.378741 
L 877.971535 471.586518 
L 878.964241 473.401587 
L 879.956947 470.905589 
L 880.949653 472.155945 
L 881.942359 472.099122 
L 882.935065 473.207243 
L 883.927771 472.62291 
L 884.920477 472.63356 
L 885.913183 471.490543 
L 886.905889 472.944805 
L 887.898595 473.360085 
L 888.8913 472.908663 
L 889.884006 474.097691 
L 890.876712 473.08329 
L 891.869418 473.025257 
L 892.862124 472.614563 
L 893.85483 473.030337 
L 894.847536 475.267453 
L 895.840242 472.667398 
L 896.832948 472.666945 
L 897.825654 473.143623 
L 898.81836 473.088842 
L 899.811066 474.449269 
L 900.803772 473.942613 
L 901.796477 472.976881 
L 902.789183 471.736011 
L 903.781889 472.762341 
L 904.774595 472.669471 
L 905.767301 471.454152 
L 906.760007 472.2848 
L 907.752713 473.695487 
L 908.745419 472.951741 
L 909.738125 473.684058 
L 910.730831 473.705815 
L 911.723537 473.043322 
L 912.716243 474.672477 
L 914.701655 473.024631 
L 915.69436 472.71514 
L 916.687066 474.353394 
L 918.672478 472.486429 
L 919.665184 475.045672 
L 920.65789 473.2892 
L 921.650596 474.974663 
L 922.643302 473.875206 
L 923.636008 475.065923 
L 924.628714 474.918748 
L 925.62142 473.700977 
L 926.614126 473.283608 
L 927.606832 475.56491 
L 928.599537 474.200621 
L 929.592243 474.242469 
L 930.584949 474.767449 
L 931.577655 474.228596 
L 933.563067 475.627401 
L 934.555773 475.251468 
L 935.548479 475.02643 
L 936.541185 476.271619 
L 937.533891 476.035743 
L 938.526597 476.15052 
L 939.519303 473.431166 
L 940.512009 474.17442 
L 941.504714 474.436033 
L 942.49742 475.722146 
L 943.490126 475.342875 
L 944.482832 474.160238 
L 945.475538 474.555687 
L 946.468244 475.227613 
L 947.46095 475.435032 
L 948.453656 474.987013 
L 949.446362 474.115051 
L 950.439068 475.629722 
L 951.431774 474.577335 
L 952.42448 476.726136 
L 953.417186 475.444818 
L 955.402597 476.106979 
L 956.395303 476.713401 
L 957.388009 476.670438 
L 958.380715 476.345262 
L 959.373421 476.254349 
L 960.366127 475.743322 
L 962.351539 475.698678 
L 963.344245 474.687579 
L 964.336951 475.887747 
L 965.329657 475.075855 
L 966.322363 475.361081 
L 967.315068 477.336792 
L 968.307774 477.601859 
L 969.30048 475.717783 
L 970.293186 476.639284 
L 971.285892 475.61981 
L 972.278598 476.741555 
L 973.271304 474.821304 
L 974.26401 477.669093 
L 975.256716 477.053029 
L 976.249422 475.195074 
L 977.242128 475.804352 
L 978.234834 476.546668 
L 979.22754 475.487062 
L 980.220246 477.451915 
L 981.212951 474.720878 
L 983.198363 477.823876 
L 984.191069 476.407777 
L 985.183775 475.894715 
L 986.176481 477.639793 
L 987.169187 476.307947 
L 988.161893 475.846653 
L 989.154599 476.76286 
L 990.147305 477.047391 
L 991.140011 476.808289 
L 992.132717 476.167626 
L 993.125423 477.36835 
L 994.118128 477.619346 
L 995.110834 478.766564 
L 996.10354 476.342998 
L 997.096246 476.988198 
L 998.088952 477.899467 
L 999.081658 477.717183 
L 1000.074364 475.494701 
L 1001.06707 476.038809 
L 1004.045188 477.038092 
L 1005.037894 477.256403 
L 1006.0306 476.552381 
L 1007.023305 476.975388 
L 1008.016011 476.829324 
L 1009.008717 476.808029 
L 1010.001423 477.406249 
L 1010.994129 477.479999 
L 1011.986835 476.161318 
L 1012.979541 477.681724 
L 1013.972247 476.421247 
L 1014.964953 477.212421 
L 1015.957659 477.790967 
L 1016.950365 477.390356 
L 1017.943071 475.849234 
L 1018.935777 476.771451 
L 1019.928482 478.13652 
L 1020.921188 477.087099 
L 1021.913894 477.454142 
L 1022.9066 477.443928 
L 1023.899306 477.284069 
L 1024.892012 478.426632 
L 1025.884718 477.615141 
L 1026.877424 478.41225 
L 1027.87013 478.174311 
L 1028.862836 477.253067 
L 1029.855542 476.497447 
L 1030.848248 476.669921 
L 1031.840954 479.267981 
L 1032.833659 477.445277 
L 1033.826365 478.338544 
L 1034.819071 477.030698 
L 1035.811777 477.721914 
L 1036.804483 478.102957 
L 1037.797189 477.716658 
L 1038.789895 480.23746 
L 1039.782601 479.587359 
L 1040.775307 476.656307 
L 1041.768013 478.264172 
L 1042.760719 479.260699 
L 1043.753425 479.533509 
L 1044.746131 478.681483 
L 1045.738837 476.930948 
L 1046.731542 476.961076 
L 1047.724248 478.591417 
L 1048.716954 478.794781 
L 1049.70966 479.369153 
L 1050.702366 478.477131 
L 1051.695072 477.918024 
L 1052.687778 479.496261 
L 1053.680484 479.046537 
L 1054.67319 477.518786 
L 1055.665896 478.428442 
L 1056.658602 478.621367 
L 1057.651308 478.590876 
L 1058.644014 479.152805 
L 1059.636719 478.941543 
L 1060.629425 477.633567 
L 1061.622131 477.563792 
L 1062.614837 478.87544 
L 1063.607543 477.800652 
L 1064.600249 482.056387 
L 1065.592955 476.924185 
L 1066.585661 477.46428 
L 1067.578367 479.383495 
L 1068.571073 477.774842 
L 1069.563779 477.4581 
L 1070.556485 478.492705 
L 1071.549191 479.345761 
L 1072.541896 479.917514 
L 1073.534602 478.637488 
L 1074.527308 480.064903 
L 1075.520014 478.97821 
L 1076.51272 478.671209 
L 1077.505426 477.130512 
L 1079.490838 480.340364 
L 1080.483544 478.259899 
L 1081.47625 479.298537 
L 1082.468956 479.507138 
L 1083.461662 478.591548 
L 1084.454368 478.814012 
L 1085.447073 477.978067 
L 1086.439779 479.829383 
L 1087.432485 478.342159 
L 1088.425191 477.914549 
L 1089.417897 476.245345 
L 1090.410603 479.910323 
L 1091.403309 479.368351 
L 1092.396015 478.560227 
L 1093.388721 477.975457 
L 1094.381427 478.584695 
L 1095.374133 478.824529 
L 1096.366839 479.194548 
L 1097.359545 480.76347 
L 1098.35225 479.579627 
L 1099.344956 476.727497 
L 1100.337662 479.406128 
L 1101.330368 479.295333 
L 1102.323074 477.150426 
L 1103.31578 479.705264 
L 1104.308486 479.728349 
L 1105.301192 479.594822 
L 1106.293898 478.448099 
L 1107.286604 478.50417 
L 1108.27931 479.210704 
L 1109.272016 479.742699 
L 1110.264722 480.472501 
L 1111.257428 477.739646 
L 1112.250133 479.566679 
L 1113.242839 479.711623 
L 1114.235545 480.486804 
L 1115.228251 480.669163 
L 1116.220957 479.080242 
L 1117.213663 478.723815 
L 1118.206369 476.937841 
L 1119.199075 479.862048 
L 1120.191781 479.669017 
L 1121.184487 480.862143 
L 1122.177193 480.032619 
L 1123.169899 480.807011 
L 1124.162605 480.197687 
L 1125.15531 478.286482 
L 1126.148016 479.671266 
L 1127.140722 479.00843 
L 1128.133428 480.272303 
L 1129.126134 480.374132 
L 1130.11884 480.107141 
L 1131.111546 480.204518 
L 1132.104252 478.889154 
L 1133.096958 478.119729 
L 1134.089664 481.38621 
L 1135.08237 480.417119 
L 1136.075076 478.167033 
L 1137.067782 479.360669 
L 1138.060487 479.481716 
L 1139.053193 480.500429 
L 1140.045899 481.292656 
L 1141.038605 479.439148 
L 1142.031311 480.432752 
L 1143.024017 480.322778 
L 1144.016723 477.64398 
L 1145.009429 479.953754 
L 1146.002135 480.101237 
L 1146.994841 478.947153 
L 1147.987547 480.594021 
L 1148.980253 479.122919 
L 1149.972959 478.896781 
L 1150.965664 480.691586 
L 1151.95837 481.118956 
L 1152.951076 480.191453 
L 1153.943782 478.723054 
L 1154.936488 480.832027 
L 1155.929194 481.250772 
L 1156.9219 479.851481 
L 1157.914606 480.669172 
L 1159.900018 479.346095 
L 1160.892724 480.688279 
L 1161.88543 481.220445 
L 1162.878136 479.508058 
L 1163.870841 481.003116 
L 1164.863547 480.565316 
L 1165.856253 480.365242 
L 1166.848959 481.446207 
L 1167.841665 481.419165 
L 1168.834371 481.941688 
L 1169.827077 480.686898 
L 1170.819783 479.665614 
L 1171.812489 480.019537 
L 1172.805195 481.096528 
L 1173.797901 478.984179 
L 1174.790607 481.576895 
L 1175.783313 479.813225 
L 1176.776019 479.313264 
L 1177.768724 481.983031 
L 1178.76143 479.410729 
L 1179.754136 478.600647 
L 1180.746842 480.797557 
L 1181.739548 479.34524 
L 1182.732254 480.817623 
L 1183.72496 478.941487 
L 1184.717666 479.491335 
L 1185.710372 479.465444 
L 1186.703078 480.794368 
L 1187.695784 481.723104 
L 1188.68849 479.829992 
L 1190.673901 481.123255 
L 1191.666607 480.255103 
L 1192.659313 480.875871 
L 1193.652019 480.563519 
L 1194.644725 479.34802 
L 1195.637431 481.069973 
L 1196.630137 479.31364 
L 1197.622843 480.123066 
L 1198.615549 481.160362 
L 1199.608255 480.295799 
L 1200.600961 480.273662 
L 1201.593667 479.862545 
L 1202.586373 481.235736 
L 1203.579078 480.984773 
L 1204.571784 479.63438 
L 1205.56449 479.91563 
L 1206.557196 479.013167 
L 1207.549902 480.826306 
L 1208.542608 481.905027 
L 1209.535314 479.620251 
L 1210.52802 482.045187 
L 1211.520726 481.326568 
L 1214.498844 480.714165 
L 1215.49155 481.36162 
L 1216.484255 479.740244 
L 1218.469667 481.074533 
L 1219.462373 482.823338 
L 1220.455079 480.286889 
L 1221.447785 481.280847 
L 1222.440491 480.737436 
L 1223.433197 480.960984 
L 1224.425903 479.350047 
L 1225.418609 481.235831 
L 1226.411315 481.694182 
L 1227.404021 480.2714 
L 1228.396727 480.606306 
L 1229.389432 482.408317 
L 1230.382138 479.552415 
L 1231.374844 481.841386 
L 1233.360256 479.47796 
L 1234.352962 479.638192 
L 1238.323786 481.160619 
L 1239.316492 480.321096 
L 1240.309198 480.41139 
L 1241.301904 480.61547 
L 1243.287315 480.673348 
L 1244.280021 481.194309 
L 1245.272727 481.41883 
L 1245.272727 481.41883 
" clip-path="url(#p5437578a3f)" style="fill: none; stroke: #1f77b4; stroke-width: 1.5; stroke-linecap: square"/>
   </g>
   <g id="patch_3">
    <path d="M 180 512.64 
L 180 69.12 
" style="fill: none; stroke: #000000; stroke-width: 0.8; stroke-linejoin: miter; stroke-linecap: square"/>
   </g>
   <g id="patch_4">
    <path d="M 1296 512.64 
L 1296 69.12 
" style="fill: none; stroke: #000000; stroke-width: 0.8; stroke-linejoin: miter; stroke-linecap: square"/>
   </g>
   <g id="patch_5">
    <path d="M 180 512.64 
L 1296 512.64 
" style="fill: none; stroke: #000000; stroke-width: 0.8; stroke-linejoin: miter; stroke-linecap: square"/>
   </g>
   <g id="patch_6">
    <path d="M 180 69.12 
L 1296 69.12 
" style="fill: none; stroke: #000000; stroke-width: 0.8; stroke-linejoin: miter; stroke-linecap: square"/>
   </g>
   <g id="text_11">
    <!-- source21-receiver15 -->
    <g transform="translate(532.175 60.80125) scale(0.4 -0.4)">
     <defs>
      <path id="DejaVuSans-73" d="M 2834 3397 
L 2834 2853 
Q 2591 2978 2328 3040 
Q 2066 3103 1784 3103 
Q 1356 3103 1142 2972 
Q 928 2841 928 2578 
Q 928 2378 1081 2264 
Q 1234 2150 1697 2047 
L 1894 2003 
Q 2506 1872 2764 1633 
Q 3022 1394 3022 966 
Q 3022 478 2636 193 
Q 2250 -91 1575 -91 
Q 1294 -91 989 -36 
Q 684 19 347 128 
L 347 722 
Q 666 556 975 473 
Q 1284 391 1588 391 
Q 1994 391 2212 530 
Q 2431 669 2431 922 
Q 2431 1156 2273 1281 
Q 2116 1406 1581 1522 
L 1381 1569 
Q 847 1681 609 1914 
Q 372 2147 372 2553 
Q 372 3047 722 3315 
Q 1072 3584 1716 3584 
Q 2034 3584 2315 3537 
Q 2597 3491 2834 3397 
z
" transform="scale(0.015625)"/>
      <path id="DejaVuSans-6f" d="M 1959 3097 
Q 1497 3097 1228 2736 
Q 959 2375 959 1747 
Q 959 1119 1226 758 
Q 1494 397 1959 397 
Q 2419 397 2687 759 
Q 2956 1122 2956 1747 
Q 2956 2369 2687 2733 
Q 2419 3097 1959 3097 
z
M 1959 3584 
Q 2709 3584 3137 3096 
Q 3566 2609 3566 1747 
Q 3566 888 3137 398 
Q 2709 -91 1959 -91 
Q 1206 -91 779 398 
Q 353 888 353 1747 
Q 353 2609 779 3096 
Q 1206 3584 1959 3584 
z
" transform="scale(0.015625)"/>
      <path id="DejaVuSans-75" d="M 544 1381 
L 544 3500 
L 1119 3500 
L 1119 1403 
Q 1119 906 1312 657 
Q 1506 409 1894 409 
Q 2359 409 2629 706 
Q 2900 1003 2900 1516 
L 2900 3500 
L 3475 3500 
L 3475 0 
L 2900 0 
L 2900 538 
Q 2691 219 2414 64 
Q 2138 -91 1772 -91 
Q 1169 -91 856 284 
Q 544 659 544 1381 
z
M 1991 3584 
L 1991 3584 
z
" transform="scale(0.015625)"/>
      <path id="DejaVuSans-72" d="M 2631 2963 
Q 2534 3019 2420 3045 
Q 2306 3072 2169 3072 
Q 1681 3072 1420 2755 
Q 1159 2438 1159 1844 
L 1159 0 
L 581 0 
L 581 3500 
L 1159 3500 
L 1159 2956 
Q 1341 3275 1631 3429 
Q 1922 3584 2338 3584 
Q 2397 3584 2469 3576 
Q 2541 3569 2628 3553 
L 2631 2963 
z
" transform="scale(0.015625)"/>
      <path id="DejaVuSans-63" d="M 3122 3366 
L 3122 2828 
Q 2878 2963 2633 3030 
Q 2388 3097 2138 3097 
Q 1578 3097 1268 2742 
Q 959 2388 959 1747 
Q 959 1106 1268 751 
Q 1578 397 2138 397 
Q 2388 397 2633 464 
Q 2878 531 3122 666 
L 3122 134 
Q 2881 22 2623 -34 
Q 2366 -91 2075 -91 
Q 1284 -91 818 406 
Q 353 903 353 1747 
Q 353 2603 823 3093 
Q 1294 3584 2113 3584 
Q 2378 3584 2631 3529 
Q 2884 3475 3122 3366 
z
" transform="scale(0.015625)"/>
      <path id="DejaVuSans-65" d="M 3597 1894 
L 3597 1613 
L 953 1613 
Q 991 1019 1311 708 
Q 1631 397 2203 397 
Q 2534 397 2845 478 
Q 3156 559 3463 722 
L 3463 178 
Q 3153 47 2828 -22 
Q 2503 -91 2169 -91 
Q 1331 -91 842 396 
Q 353 884 353 1716 
Q 353 2575 817 3079 
Q 1281 3584 2069 3584 
Q 2775 3584 3186 3129 
Q 3597 2675 3597 1894 
z
M 3022 2063 
Q 3016 2534 2758 2815 
Q 2500 3097 2075 3097 
Q 1594 3097 1305 2825 
Q 1016 2553 972 2059 
L 3022 2063 
z
" transform="scale(0.015625)"/>
      <path id="DejaVuSans-2d" d="M 313 2009 
L 1997 2009 
L 1997 1497 
L 313 1497 
L 313 2009 
z
" transform="scale(0.015625)"/>
      <path id="DejaVuSans-69" d="M 603 3500 
L 1178 3500 
L 1178 0 
L 603 0 
L 603 3500 
z
M 603 4863 
L 1178 4863 
L 1178 4134 
L 603 4134 
L 603 4863 
z
" transform="scale(0.015625)"/>
      <path id="DejaVuSans-76" d="M 191 3500 
L 800 3500 
L 1894 563 
L 2988 3500 
L 3597 3500 
L 2284 0 
L 1503 0 
L 191 3500 
z
" transform="scale(0.015625)"/>
     </defs>
     <use xlink:href="#DejaVuSans-73"/>
     <use xlink:href="#DejaVuSans-6f" x="52.099609"/>
     <use xlink:href="#DejaVuSans-75" x="113.28125"/>
     <use xlink:href="#DejaVuSans-72" x="176.660156"/>
     <use xlink:href="#DejaVuSans-63" x="215.523438"/>
     <use xlink:href="#DejaVuSans-65" x="270.503906"/>
     <use xlink:href="#DejaVuSans-32" x="332.027344"/>
     <use xlink:href="#DejaVuSans-31" x="395.650391"/>
     <use xlink:href="#DejaVuSans-2d" x="459.273438"/>
     <use xlink:href="#DejaVuSans-72" x="495.357422"/>
     <use xlink:href="#DejaVuSans-65" x="534.220703"/>
     <use xlink:href="#DejaVuSans-63" x="595.744141"/>
     <use xlink:href="#DejaVuSans-65" x="650.724609"/>
     <use xlink:href="#DejaVuSans-69" x="712.248047"/>
     <use xlink:href="#DejaVuSans-76" x="740.03125"/>
     <use xlink:href="#DejaVuSans-65" x="799.210938"/>
     <use xlink:href="#DejaVuSans-72" x="860.734375"/>
     <use xlink:href="#DejaVuSans-31" x="901.847656"/>
     <use xlink:href="#DejaVuSans-35" x="965.470703"/>
    </g>
   </g>
  </g>
 </g>
 <defs>
  <clipPath id="p5437578a3f">
   <rect x="180" y="69.12" width="1116" height="443.52"/>
  </clipPath>
 </defs>
</svg>
