<?xml version="1.0" encoding="utf-8" standalone="no"?>
<!DOCTYPE svg PUBLIC "-//W3C//DTD SVG 1.1//EN"
  "http://www.w3.org/Graphics/SVG/1.1/DTD/svg11.dtd">
<svg xmlns:xlink="http://www.w3.org/1999/xlink" width="1440pt" height="576pt" viewBox="0 0 1440 576" xmlns="http://www.w3.org/2000/svg" version="1.1">
 <metadata>
  <rdf:RDF xmlns:dc="http://purl.org/dc/elements/1.1/" xmlns:cc="http://creativecommons.org/ns#" xmlns:rdf="http://www.w3.org/1999/02/22-rdf-syntax-ns#">
   <cc:Work>
    <dc:type rdf:resource="http://purl.org/dc/dcmitype/StillImage"/>
    <dc:date>2024-05-22T04:50:20.424979</dc:date>
    <dc:format>image/svg+xml</dc:format>
    <dc:creator>
     <cc:Agent>
      <dc:title>Matplotlib v3.8.3, https://matplotlib.org/</dc:title>
     </cc:Agent>
    </dc:creator>
   </cc:Work>
  </rdf:RDF>
 </metadata>
 <defs>
  <style type="text/css">*{stroke-linejoin: round; stroke-linecap: butt}</style>
 </defs>
 <g id="figure_1">
  <g id="patch_1">
   <path d="M 0 576 
L 1440 576 
L 1440 0 
L 0 0 
z
" style="fill: #ffffff"/>
  </g>
  <g id="axes_1">
   <g id="patch_2">
    <path d="M 180 512.64 
L 1296 512.64 
L 1296 69.12 
L 180 69.12 
z
" style="fill: #ffffff"/>
   </g>
   <g id="matplotlib.axis_1">
    <g id="xtick_1">
     <g id="line2d_1">
      <defs>
       <path id="md08ecb5d95" d="M 0 0 
L 0 3.5 
" style="stroke: #000000; stroke-width: 0.8"/>
      </defs>
      <g>
       <use xlink:href="#md08ecb5d95" x="229.734567" y="512.64" style="stroke: #000000; stroke-width: 0.8"/>
      </g>
     </g>
     <g id="text_1">
      <!-- 0 -->
      <g transform="translate(226.553317 527.238438) scale(0.1 -0.1)">
       <defs>
        <path id="DejaVuSans-30" d="M 2034 4250 
Q 1547 4250 1301 3770 
Q 1056 3291 1056 2328 
Q 1056 1369 1301 889 
Q 1547 409 2034 409 
Q 2525 409 2770 889 
Q 3016 1369 3016 2328 
Q 3016 3291 2770 3770 
Q 2525 4250 2034 4250 
z
M 2034 4750 
Q 2819 4750 3233 4129 
Q 3647 3509 3647 2328 
Q 3647 1150 3233 529 
Q 2819 -91 2034 -91 
Q 1250 -91 836 529 
Q 422 1150 422 2328 
Q 422 3509 836 4129 
Q 1250 4750 2034 4750 
z
" transform="scale(0.015625)"/>
       </defs>
       <use xlink:href="#DejaVuSans-30"/>
      </g>
     </g>
    </g>
    <g id="xtick_2">
     <g id="line2d_2">
      <g>
       <use xlink:href="#md08ecb5d95" x="433.04074" y="512.64" style="stroke: #000000; stroke-width: 0.8"/>
      </g>
     </g>
     <g id="text_2">
      <!-- 500 -->
      <g transform="translate(423.49699 527.238438) scale(0.1 -0.1)">
       <defs>
        <path id="DejaVuSans-35" d="M 691 4666 
L 3169 4666 
L 3169 4134 
L 1269 4134 
L 1269 2991 
Q 1406 3038 1543 3061 
Q 1681 3084 1819 3084 
Q 2600 3084 3056 2656 
Q 3513 2228 3513 1497 
Q 3513 744 3044 326 
Q 2575 -91 1722 -91 
Q 1428 -91 1123 -41 
Q 819 9 494 109 
L 494 744 
Q 775 591 1075 516 
Q 1375 441 1709 441 
Q 2250 441 2565 725 
Q 2881 1009 2881 1497 
Q 2881 1984 2565 2268 
Q 2250 2553 1709 2553 
Q 1456 2553 1204 2497 
Q 953 2441 691 2322 
L 691 4666 
z
" transform="scale(0.015625)"/>
       </defs>
       <use xlink:href="#DejaVuSans-35"/>
       <use xlink:href="#DejaVuSans-30" x="63.623047"/>
       <use xlink:href="#DejaVuSans-30" x="127.246094"/>
      </g>
     </g>
    </g>
    <g id="xtick_3">
     <g id="line2d_3">
      <g>
       <use xlink:href="#md08ecb5d95" x="636.346913" y="512.64" style="stroke: #000000; stroke-width: 0.8"/>
      </g>
     </g>
     <g id="text_3">
      <!-- 1000 -->
      <g transform="translate(623.621913 527.238438) scale(0.1 -0.1)">
       <defs>
        <path id="DejaVuSans-31" d="M 794 531 
L 1825 531 
L 1825 4091 
L 703 3866 
L 703 4441 
L 1819 4666 
L 2450 4666 
L 2450 531 
L 3481 531 
L 3481 0 
L 794 0 
L 794 531 
z
" transform="scale(0.015625)"/>
       </defs>
       <use xlink:href="#DejaVuSans-31"/>
       <use xlink:href="#DejaVuSans-30" x="63.623047"/>
       <use xlink:href="#DejaVuSans-30" x="127.246094"/>
       <use xlink:href="#DejaVuSans-30" x="190.869141"/>
      </g>
     </g>
    </g>
    <g id="xtick_4">
     <g id="line2d_4">
      <g>
       <use xlink:href="#md08ecb5d95" x="839.653087" y="512.64" style="stroke: #000000; stroke-width: 0.8"/>
      </g>
     </g>
     <g id="text_4">
      <!-- 1500 -->
      <g transform="translate(826.928087 527.238438) scale(0.1 -0.1)">
       <use xlink:href="#DejaVuSans-31"/>
       <use xlink:href="#DejaVuSans-35" x="63.623047"/>
       <use xlink:href="#DejaVuSans-30" x="127.246094"/>
       <use xlink:href="#DejaVuSans-30" x="190.869141"/>
      </g>
     </g>
    </g>
    <g id="xtick_5">
     <g id="line2d_5">
      <g>
       <use xlink:href="#md08ecb5d95" x="1042.95926" y="512.64" style="stroke: #000000; stroke-width: 0.8"/>
      </g>
     </g>
     <g id="text_5">
      <!-- 2000 -->
      <g transform="translate(1030.23426 527.238438) scale(0.1 -0.1)">
       <defs>
        <path id="DejaVuSans-32" d="M 1228 531 
L 3431 531 
L 3431 0 
L 469 0 
L 469 531 
Q 828 903 1448 1529 
Q 2069 2156 2228 2338 
Q 2531 2678 2651 2914 
Q 2772 3150 2772 3378 
Q 2772 3750 2511 3984 
Q 2250 4219 1831 4219 
Q 1534 4219 1204 4116 
Q 875 4013 500 3803 
L 500 4441 
Q 881 4594 1212 4672 
Q 1544 4750 1819 4750 
Q 2544 4750 2975 4387 
Q 3406 4025 3406 3419 
Q 3406 3131 3298 2873 
Q 3191 2616 2906 2266 
Q 2828 2175 2409 1742 
Q 1991 1309 1228 531 
z
" transform="scale(0.015625)"/>
       </defs>
       <use xlink:href="#DejaVuSans-32"/>
       <use xlink:href="#DejaVuSans-30" x="63.623047"/>
       <use xlink:href="#DejaVuSans-30" x="127.246094"/>
       <use xlink:href="#DejaVuSans-30" x="190.869141"/>
      </g>
     </g>
    </g>
    <g id="xtick_6">
     <g id="line2d_6">
      <g>
       <use xlink:href="#md08ecb5d95" x="1246.265433" y="512.64" style="stroke: #000000; stroke-width: 0.8"/>
      </g>
     </g>
     <g id="text_6">
      <!-- 2500 -->
      <g transform="translate(1233.540433 527.238438) scale(0.1 -0.1)">
       <use xlink:href="#DejaVuSans-32"/>
       <use xlink:href="#DejaVuSans-35" x="63.623047"/>
       <use xlink:href="#DejaVuSans-30" x="127.246094"/>
       <use xlink:href="#DejaVuSans-30" x="190.869141"/>
      </g>
     </g>
    </g>
   </g>
   <g id="matplotlib.axis_2">
    <g id="ytick_1">
     <g id="line2d_7">
      <defs>
       <path id="mce779b3b88" d="M 0 0 
L -3.5 0 
" style="stroke: #000000; stroke-width: 0.8"/>
      </defs>
      <g>
       <use xlink:href="#mce779b3b88" x="180" y="483.781044" style="stroke: #000000; stroke-width: 0.8"/>
      </g>
     </g>
     <g id="text_7">
      <!-- −6 -->
      <g transform="translate(158.257812 487.580262) scale(0.1 -0.1)">
       <defs>
        <path id="DejaVuSans-2212" d="M 678 2272 
L 4684 2272 
L 4684 1741 
L 678 1741 
L 678 2272 
z
" transform="scale(0.015625)"/>
        <path id="DejaVuSans-36" d="M 2113 2584 
Q 1688 2584 1439 2293 
Q 1191 2003 1191 1497 
Q 1191 994 1439 701 
Q 1688 409 2113 409 
Q 2538 409 2786 701 
Q 3034 994 3034 1497 
Q 3034 2003 2786 2293 
Q 2538 2584 2113 2584 
z
M 3366 4563 
L 3366 3988 
Q 3128 4100 2886 4159 
Q 2644 4219 2406 4219 
Q 1781 4219 1451 3797 
Q 1122 3375 1075 2522 
Q 1259 2794 1537 2939 
Q 1816 3084 2150 3084 
Q 2853 3084 3261 2657 
Q 3669 2231 3669 1497 
Q 3669 778 3244 343 
Q 2819 -91 2113 -91 
Q 1303 -91 875 529 
Q 447 1150 447 2328 
Q 447 3434 972 4092 
Q 1497 4750 2381 4750 
Q 2619 4750 2861 4703 
Q 3103 4656 3366 4563 
z
" transform="scale(0.015625)"/>
       </defs>
       <use xlink:href="#DejaVuSans-2212"/>
       <use xlink:href="#DejaVuSans-36" x="83.789062"/>
      </g>
     </g>
    </g>
    <g id="ytick_2">
     <g id="line2d_8">
      <g>
       <use xlink:href="#mce779b3b88" x="180" y="411.490106" style="stroke: #000000; stroke-width: 0.8"/>
      </g>
     </g>
     <g id="text_8">
      <!-- −4 -->
      <g transform="translate(158.257812 415.289324) scale(0.1 -0.1)">
       <defs>
        <path id="DejaVuSans-34" d="M 2419 4116 
L 825 1625 
L 2419 1625 
L 2419 4116 
z
M 2253 4666 
L 3047 4666 
L 3047 1625 
L 3713 1625 
L 3713 1100 
L 3047 1100 
L 3047 0 
L 2419 0 
L 2419 1100 
L 313 1100 
L 313 1709 
L 2253 4666 
z
" transform="scale(0.015625)"/>
       </defs>
       <use xlink:href="#DejaVuSans-2212"/>
       <use xlink:href="#DejaVuSans-34" x="83.789062"/>
      </g>
     </g>
    </g>
    <g id="ytick_3">
     <g id="line2d_9">
      <g>
       <use xlink:href="#mce779b3b88" x="180" y="339.199168" style="stroke: #000000; stroke-width: 0.8"/>
      </g>
     </g>
     <g id="text_9">
      <!-- −2 -->
      <g transform="translate(158.257812 342.998386) scale(0.1 -0.1)">
       <use xlink:href="#DejaVuSans-2212"/>
       <use xlink:href="#DejaVuSans-32" x="83.789062"/>
      </g>
     </g>
    </g>
    <g id="ytick_4">
     <g id="line2d_10">
      <g>
       <use xlink:href="#mce779b3b88" x="180" y="266.90823" style="stroke: #000000; stroke-width: 0.8"/>
      </g>
     </g>
     <g id="text_10">
      <!-- 0 -->
      <g transform="translate(166.6375 270.707448) scale(0.1 -0.1)">
       <use xlink:href="#DejaVuSans-30"/>
      </g>
     </g>
    </g>
    <g id="ytick_5">
     <g id="line2d_11">
      <g>
       <use xlink:href="#mce779b3b88" x="180" y="194.617292" style="stroke: #000000; stroke-width: 0.8"/>
      </g>
     </g>
     <g id="text_11">
      <!-- 2 -->
      <g transform="translate(166.6375 198.41651) scale(0.1 -0.1)">
       <use xlink:href="#DejaVuSans-32"/>
      </g>
     </g>
    </g>
    <g id="ytick_6">
     <g id="line2d_12">
      <g>
       <use xlink:href="#mce779b3b88" x="180" y="122.326354" style="stroke: #000000; stroke-width: 0.8"/>
      </g>
     </g>
     <g id="text_12">
      <!-- 4 -->
      <g transform="translate(166.6375 126.125572) scale(0.1 -0.1)">
       <use xlink:href="#DejaVuSans-34"/>
      </g>
     </g>
    </g>
   </g>
   <g id="line2d_13">
    <path d="M 230.727273 259.887999 
L 231.719979 250.783026 
L 232.712685 248.992405 
L 233.70539 255.208208 
L 234.698096 266.543723 
L 235.690802 264.183737 
L 236.683508 251.902223 
L 237.676214 246.112888 
L 238.66892 249.042916 
L 239.661626 261.835302 
L 240.654332 271.035409 
L 241.647038 253.66438 
L 242.639744 241.76297 
L 243.63245 241.041284 
L 244.625156 255.500508 
L 245.617862 348.543413 
L 246.610568 247.193131 
L 247.603273 221.531918 
L 248.595979 207.369724 
L 249.588685 195.226365 
L 251.574097 166.848151 
L 252.566803 155.497211 
L 253.559509 148.318543 
L 254.552215 146.155376 
L 255.544921 149.512378 
L 257.530333 169.259259 
L 258.523039 165.537088 
L 259.515745 158.991455 
L 260.50845 161.579831 
L 261.501156 179.529842 
L 262.493862 243.306409 
L 263.486568 183.153377 
L 264.479274 166.110724 
L 265.47198 163.552242 
L 266.464686 163.10647 
L 267.457392 159.303119 
L 268.450098 158.104617 
L 269.442804 165.059356 
L 270.43551 175.826189 
L 272.420922 161.970914 
L 273.413627 170.186804 
L 274.406333 197.750555 
L 275.399039 167.451165 
L 276.391745 146.971748 
L 277.384451 138.602415 
L 278.377157 132.35389 
L 279.369863 121.752505 
L 280.362569 109.582666 
L 281.355275 100.044529 
L 282.347981 93.725405 
L 283.340687 90.363269 
L 284.333393 89.28 
L 285.326099 89.779898 
L 286.318804 91.507168 
L 287.31151 94.424245 
L 288.304216 98.84629 
L 289.296922 104.812506 
L 290.289628 111.943282 
L 291.282334 120.709534 
L 292.27504 132.527249 
L 293.267746 148.435963 
L 294.260452 161.391538 
L 295.253158 162.916222 
L 296.245864 163.940049 
L 297.23857 166.41024 
L 298.231276 165.662161 
L 299.223981 165.263941 
L 300.216687 167.758469 
L 301.209393 168.947301 
L 302.202099 167.944032 
L 303.194805 171.597862 
L 304.187511 182.85685 
L 305.180217 188.65714 
L 306.172923 182.865961 
L 307.165629 182.222547 
L 308.158335 187.104375 
L 309.151041 188.114 
L 310.143747 186.741214 
L 311.136453 191.477668 
L 312.129159 199.739997 
L 313.121864 202.789331 
L 314.11457 203.861334 
L 315.107276 212.716016 
L 316.099982 229.466088 
L 317.092688 239.123172 
L 318.085394 245.578629 
L 319.0781 257.194677 
L 320.070806 256.788883 
L 321.063512 256.847264 
L 322.056218 256.041193 
L 323.048924 244.728365 
L 324.04163 238.923922 
L 325.034336 245.098912 
L 326.027041 269.00366 
L 327.019747 289.939657 
L 328.012453 283.549615 
L 329.005159 267.680388 
L 329.997865 255.475307 
L 330.990571 255.653516 
L 331.983277 266.598437 
L 332.975983 270.447279 
L 333.968689 261.984148 
L 334.961395 261.963148 
L 335.954101 262.227219 
L 336.946807 264.860025 
L 337.939513 264.846544 
L 338.932218 256.126688 
L 339.924924 244.154268 
L 340.91763 243.308334 
L 341.910336 252.199849 
L 342.903042 267.145933 
L 343.895748 269.570018 
L 344.888454 271.530652 
L 345.88116 270.204853 
L 346.873866 267.941496 
L 347.866572 268.855279 
L 348.859278 272.724506 
L 350.84469 258.29545 
L 351.837395 257.735022 
L 352.830101 264.865285 
L 353.822807 269.784653 
L 354.815513 264.313272 
L 355.808219 250.860553 
L 356.800925 239.322236 
L 357.793631 234.824561 
L 358.786337 235.953306 
L 359.779043 237.509981 
L 361.764455 230.41597 
L 362.757161 231.206726 
L 363.749867 235.816064 
L 364.742572 236.086112 
L 365.735278 232.159628 
L 366.727984 227.520482 
L 367.72069 226.568979 
L 368.713396 229.179573 
L 369.706102 228.806036 
L 371.691514 223.357875 
L 372.68422 223.988772 
L 373.676926 227.095685 
L 374.669632 226.709066 
L 375.662338 224.033172 
L 376.655044 223.014515 
L 377.64775 223.475505 
L 378.640455 224.503424 
L 380.625867 219.089916 
L 381.618573 217.976032 
L 382.611279 218.597234 
L 383.603985 217.748944 
L 384.596691 214.834793 
L 385.589397 213.39381 
L 386.582103 212.189612 
L 387.574809 213.265579 
L 388.567515 212.851318 
L 390.552927 208.888416 
L 391.545632 209.231675 
L 392.538338 211.002274 
L 393.531044 210.845754 
L 394.52375 209.755702 
L 395.516456 209.330954 
L 398.494574 214.409193 
L 399.48728 213.729717 
L 400.479986 214.104316 
L 401.472692 218.107013 
L 402.465398 221.263924 
L 403.458104 223.767388 
L 404.450809 224.121116 
L 405.443515 226.939999 
L 406.436221 231.634883 
L 407.428927 238.508191 
L 408.421633 243.987829 
L 409.414339 246.679628 
L 410.407045 250.720916 
L 411.399751 262.582712 
L 412.392457 278.269268 
L 413.385163 301.721256 
L 414.377869 298.116403 
L 415.370575 312.571476 
L 417.355986 283.446456 
L 418.348692 278.444444 
L 419.341398 278.162081 
L 420.334104 269.650054 
L 421.32681 258.732831 
L 422.319516 253.59131 
L 423.312222 251.836647 
L 424.304928 255.964978 
L 427.283046 246.393631 
L 428.275752 250.437693 
L 430.261163 253.980929 
L 431.253869 252.236626 
L 432.246575 252.290789 
L 433.239281 256.728837 
L 434.231987 264.129343 
L 435.224693 266.631816 
L 436.217399 267.632815 
L 437.210105 266.015706 
L 438.202811 276.524516 
L 439.195517 291.59898 
L 440.188223 295.251998 
L 441.180929 298.029142 
L 442.173635 298.937369 
L 443.166341 336.488873 
L 444.159046 336.067512 
L 445.151752 304.398206 
L 446.144458 301.45796 
L 447.137164 314.558195 
L 448.12987 314.137071 
L 449.122576 297.133598 
L 450.115282 288.940063 
L 451.107988 290.493534 
L 452.100694 299.058848 
L 453.0934 303.695638 
L 454.086106 292.76701 
L 455.078812 286.799323 
L 456.071518 288.107295 
L 457.064223 303.483101 
L 458.056929 302.915148 
L 459.049635 298.446693 
L 461.035047 280.992173 
L 463.020459 283.252868 
L 464.013165 280.044027 
L 465.005871 271.494332 
L 465.998577 264.648636 
L 466.991283 261.092357 
L 467.983989 261.221468 
L 468.976695 260.833623 
L 469.9694 256.297361 
L 470.962106 252.555273 
L 471.954812 250.354739 
L 472.947518 251.536743 
L 473.940224 251.434561 
L 474.93293 249.195118 
L 475.925636 246.153881 
L 476.918342 245.0699 
L 477.911048 248.709066 
L 478.903754 250.548563 
L 479.89646 247.777594 
L 480.889166 247.155282 
L 481.881872 248.43326 
L 483.867283 255.504624 
L 484.859989 254.997162 
L 485.852695 254.227585 
L 486.845401 257.719633 
L 488.830813 270.262719 
L 489.823519 267.873481 
L 490.816225 269.839232 
L 491.808931 275.711659 
L 492.801637 287.57376 
L 493.794343 292.03775 
L 494.787049 289.04372 
L 495.779754 292.030096 
L 496.77246 305.94899 
L 497.765166 310.620605 
L 498.757872 298.425619 
L 499.750578 294.415573 
L 500.743284 293.243263 
L 501.73599 301.00256 
L 502.728696 291.7555 
L 503.721402 285.344192 
L 504.714108 285.747074 
L 505.706814 291.180625 
L 506.69952 292.499098 
L 507.692226 282.241921 
L 508.684932 278.83855 
L 510.670343 292.822008 
L 511.663049 293.701171 
L 512.655755 284.330477 
L 513.648461 288.502116 
L 514.641167 296.638684 
L 515.633873 301.154207 
L 516.626579 298.226758 
L 517.619285 286.969956 
L 518.611991 295.936126 
L 519.604697 296.166507 
L 520.597403 291.53523 
L 521.590109 283.706219 
L 522.582814 282.601781 
L 523.57552 286.04264 
L 524.568226 284.678789 
L 525.560932 279.707119 
L 526.553638 272.710292 
L 527.546344 271.906103 
L 528.53905 278.820513 
L 529.531756 277.090745 
L 530.524462 274.127346 
L 531.517168 269.748313 
L 532.509874 268.232306 
L 533.50258 276.40519 
L 534.495286 279.465554 
L 535.487991 275.568907 
L 536.480697 274.472698 
L 537.473403 278.311026 
L 538.466109 285.043786 
L 539.458815 289.246041 
L 541.444227 284.007607 
L 542.436933 297.440272 
L 543.429639 304.225737 
L 544.422345 314.6859 
L 545.415051 310.347995 
L 546.407757 316.958368 
L 547.400463 329.340433 
L 548.393168 374.163763 
L 549.385874 346.154638 
L 550.37858 398.64146 
L 551.371286 346.212113 
L 552.363992 335.355037 
L 553.356698 305.343898 
L 554.349404 302.807621 
L 555.34211 306.248115 
L 556.334816 313.40525 
L 557.327522 301.11296 
L 558.320228 293.491915 
L 559.312934 290.911072 
L 560.30564 295.321608 
L 561.298345 300.66242 
L 562.291051 297.275887 
L 563.283757 289.850251 
L 564.276463 289.562387 
L 565.269169 293.833859 
L 566.261875 302.911069 
L 567.254581 300.503437 
L 568.247287 292.670403 
L 569.239993 292.307826 
L 570.232699 302.52199 
L 571.225405 317.650851 
L 572.218111 309.660225 
L 573.210817 305.149118 
L 574.203523 303.285412 
L 576.188934 328.087999 
L 577.18164 332.468816 
L 578.174346 318.738191 
L 579.167052 325.688411 
L 580.159758 320.099982 
L 581.152464 342.221123 
L 582.14517 371.573978 
L 583.137876 345.519635 
L 584.130582 330.106746 
L 585.123288 325.823808 
L 586.115994 330.049136 
L 587.1087 330.196591 
L 588.101405 358.795961 
L 589.094111 344.446721 
L 590.086817 327.556152 
L 591.079523 318.97519 
L 592.072229 319.512218 
L 594.057641 354.524457 
L 595.050347 332.479107 
L 596.043053 314.057578 
L 597.035759 320.603664 
L 598.028465 322.476454 
L 599.021171 330.095936 
L 600.013877 322.31801 
L 601.999288 308.594105 
L 602.991994 310.168382 
L 603.9847 319.933664 
L 604.977406 327.605922 
L 605.970112 312.480284 
L 606.962818 307.455754 
L 607.955524 309.210607 
L 608.94823 319.598211 
L 609.940936 319.980386 
L 610.933642 314.349472 
L 611.926348 307.62857 
L 612.919054 308.622513 
L 613.911759 321.836413 
L 614.904465 330.10676 
L 615.897171 320.325348 
L 616.889877 313.422461 
L 617.882583 313.334292 
L 618.875289 328.01173 
L 619.867995 345.593099 
L 620.860701 334.318081 
L 621.853407 319.643823 
L 622.846113 318.807995 
L 623.838819 330.918251 
L 624.831525 357.468442 
L 625.824231 346.971621 
L 626.816936 326.197893 
L 627.809642 325.742745 
L 628.802348 324.74287 
L 629.795054 336.847168 
L 630.78776 351.30968 
L 631.780466 329.632179 
L 632.773172 316.462933 
L 633.765878 315.649402 
L 634.758584 324.224013 
L 635.75129 335.123549 
L 636.743996 325.817989 
L 637.736702 314.691484 
L 638.729408 309.553874 
L 639.722114 317.244103 
L 640.714819 327.443926 
L 641.707525 323.375413 
L 642.700231 311.693413 
L 643.692937 309.334983 
L 644.685643 314.753112 
L 645.678349 326.577329 
L 646.671055 324.335083 
L 647.663761 313.032161 
L 648.656467 310.771503 
L 649.649173 317.062828 
L 650.641879 330.56794 
L 651.634585 328.140543 
L 652.627291 318.013937 
L 653.619996 314.50683 
L 654.612702 320.080126 
L 655.605408 334.894991 
L 656.598114 339.147626 
L 657.59082 328.659952 
L 658.583526 320.656596 
L 659.576232 323.006916 
L 660.568938 334.427164 
L 661.561644 350.820749 
L 662.55435 338.893089 
L 663.547056 323.590602 
L 664.539762 321.164584 
L 665.532468 325.408015 
L 666.525173 336.626206 
L 667.517879 335.220972 
L 668.510585 322.571104 
L 669.503291 315.148178 
L 670.495997 316.037327 
L 671.488703 324.219747 
L 672.481409 328.959937 
L 673.474115 317.716355 
L 674.466821 310.491276 
L 675.459527 310.818246 
L 676.452233 317.696489 
L 677.444939 323.477438 
L 678.437645 316.365203 
L 679.43035 307.564008 
L 680.423056 307.648217 
L 681.415762 314.453264 
L 682.408468 320.277363 
L 683.401174 315.040474 
L 684.39388 307.508525 
L 685.386586 306.047678 
L 686.379292 312.674799 
L 687.371998 320.15735 
L 688.364704 316.306469 
L 689.35741 308.381042 
L 690.350116 306.356148 
L 691.342822 311.791568 
L 692.335527 320.426653 
L 693.328233 317.311919 
L 694.320939 309.098329 
L 695.313645 306.952804 
L 696.306351 311.809941 
L 697.299057 320.572707 
L 698.291763 319.283257 
L 699.284469 310.744137 
L 700.277175 307.364552 
L 701.269881 311.982022 
L 702.262587 321.253102 
L 703.255293 320.230136 
L 704.247999 311.412226 
L 705.240705 308.191643 
L 706.23341 312.75742 
L 707.226116 322.061167 
L 708.218822 322.055909 
L 709.211528 312.853309 
L 710.204234 309.745542 
L 711.19694 315.501949 
L 712.189646 325.877124 
L 713.182352 324.035762 
L 714.175058 314.692459 
L 715.167764 312.729565 
L 716.16047 319.730717 
L 717.153176 330.501954 
L 718.145882 326.804536 
L 719.138587 317.328439 
L 720.131293 316.260763 
L 721.123999 325.105341 
L 722.116705 337.005294 
L 723.109411 329.055642 
L 724.102117 319.551662 
L 725.094823 320.212831 
L 727.080235 343.247661 
L 728.072941 330.652072 
L 729.065647 322.458243 
L 730.058353 324.994571 
L 731.051059 339.055709 
L 732.043764 347.968008 
L 733.03647 332.312054 
L 734.029176 325.446643 
L 735.021882 330.479389 
L 736.014588 348.928814 
L 737.007294 352.460117 
L 738 334.70072 
L 738.992706 329.696323 
L 739.985412 336.968244 
L 740.978118 359.721109 
L 741.970824 359.071281 
L 742.96353 338.368101 
L 743.956236 335.322945 
L 744.948941 345.102258 
L 745.941647 375.224875 
L 746.934353 366.576947 
L 747.927059 345.138108 
L 748.919765 342.106929 
L 749.912471 353.403047 
L 750.905177 392.669335 
L 751.897883 383.152809 
L 752.890589 354.592557 
L 753.883295 349.342474 
L 754.876001 358.648519 
L 755.868707 387.171408 
L 756.861413 408.451081 
L 757.854118 368.805094 
L 758.846824 356.659363 
L 759.83953 357.18486 
L 760.832236 371.07986 
L 761.824942 408.845025 
L 762.817648 387.447121 
L 763.810354 361.021494 
L 764.80306 353.297176 
L 765.795766 358.096511 
L 767.781178 412.653301 
L 768.773884 360.889851 
L 769.76659 347.692378 
L 770.759295 349.064944 
L 771.752001 367.926335 
L 772.744707 411.30744 
L 773.737413 359.300245 
L 774.730119 343.32909 
L 775.722825 342.605751 
L 776.715531 355.600306 
L 777.708237 382.477925 
L 778.700943 356.094686 
L 779.693649 338.919143 
L 780.686355 336.106462 
L 781.679061 346.098331 
L 782.671767 365.852241 
L 783.664473 351.607652 
L 784.657178 335.376175 
L 785.649884 330.916459 
L 786.64259 338.411126 
L 787.635296 354.130442 
L 788.628002 345.314948 
L 789.620708 330.814438 
L 790.613414 326.386423 
L 791.60612 332.488233 
L 792.598826 345.968688 
L 793.591532 340.916068 
L 794.584238 327.107278 
L 795.576944 322.993257 
L 796.56965 328.419174 
L 797.562355 340.576734 
L 798.555061 337.381878 
L 799.547767 325.309234 
L 800.540473 320.938411 
L 801.533179 326.091181 
L 802.525885 337.632593 
L 803.518591 335.601639 
L 804.511297 324.14499 
L 805.504003 320.102214 
L 806.496709 325.760258 
L 807.489415 336.86042 
L 808.482121 335.523286 
L 809.474827 324.286309 
L 810.467532 320.581141 
L 811.460238 326.367325 
L 812.452944 338.914585 
L 813.44565 337.153036 
L 814.438356 326.026312 
L 815.431062 322.597132 
L 816.423768 329.371249 
L 817.416474 342.25919 
L 818.40918 341.124921 
L 819.401886 328.76803 
L 820.394592 325.495786 
L 821.387298 333.263965 
L 822.380004 349.102815 
L 823.372709 345.988179 
L 824.365415 332.746926 
L 825.358121 329.958495 
L 826.350827 338.435712 
L 827.343533 357.720403 
L 828.336239 351.915774 
L 829.328945 336.637353 
L 830.321651 334.846163 
L 831.314357 345.618098 
L 832.307063 370.023631 
L 833.299769 358.128056 
L 834.292475 341.941292 
L 835.285181 340.127191 
L 836.277886 354.603011 
L 837.270592 386.468352 
L 838.263298 362.677841 
L 839.256004 346.593774 
L 840.24871 347.42457 
L 841.241416 365.716205 
L 842.234122 411.985412 
L 843.226828 364.449574 
L 844.219534 350.82261 
L 845.21224 354.469511 
L 846.204946 382.738752 
L 847.197652 406.144287 
L 848.190358 361.356454 
L 849.183064 352.954121 
L 850.175769 362.501497 
L 851.168475 410.149307 
L 853.153887 357.193189 
L 854.146593 354.394439 
L 855.139299 370.769267 
L 856.132005 465.954078 
L 857.124711 367.936126 
L 858.117417 352.576361 
L 859.110123 355.192938 
L 861.095535 401.233059 
L 862.088241 358.39671 
L 863.080946 348.163572 
L 864.073652 353.798245 
L 865.066358 381.938804 
L 866.059064 381.309764 
L 867.05177 352.406833 
L 868.044476 344.498491 
L 869.037182 352.186187 
L 870.029888 379.247825 
L 871.022594 369.704193 
L 872.0153 347.435298 
L 873.008006 342.034444 
L 874.000712 351.321119 
L 874.993418 377.578176 
L 875.986123 362.346385 
L 876.978829 343.522573 
L 877.971535 339.842999 
L 878.964241 350.090036 
L 879.956947 372.831649 
L 880.949653 358.526431 
L 881.942359 341.51052 
L 882.935065 338.992241 
L 883.927771 349.217863 
L 884.920477 371.036697 
L 885.913183 357.515521 
L 886.905889 341.43065 
L 887.898595 338.750167 
L 888.8913 349.316545 
L 889.884006 371.995192 
L 891.869418 341.659156 
L 892.862124 339.425699 
L 893.85483 351.344559 
L 894.847536 373.800083 
L 896.832948 342.872153 
L 897.825654 341.625722 
L 898.81836 354.400555 
L 899.811066 379.869864 
L 900.803772 361.389615 
L 901.796477 345.818437 
L 902.789183 344.316988 
L 903.781889 356.94634 
L 904.774595 389.899112 
L 905.767301 366.762133 
L 906.760007 349.744066 
L 907.752713 348.120322 
L 908.745419 361.975154 
L 909.738125 401.860981 
L 910.730831 374.857061 
L 911.723537 354.853272 
L 912.716243 352.197597 
L 913.708949 366.382919 
L 914.701655 419.582691 
L 915.69436 383.416066 
L 916.687066 360.1797 
L 917.679772 358.024701 
L 918.672478 370.019732 
L 919.665184 413.667287 
L 920.65789 394.780078 
L 921.650596 367.98956 
L 922.643302 362.712737 
L 923.636008 372.060175 
L 924.628714 400.321606 
L 925.62142 400.944427 
L 926.614126 374.7697 
L 927.606832 368.454414 
L 928.599537 372.361027 
L 929.592243 388.386114 
L 930.584949 400.151338 
L 931.577655 381.630159 
L 932.570361 372.0073 
L 933.563067 370.820957 
L 934.555773 381.88308 
L 935.548479 401.090394 
L 936.541185 388.062752 
L 937.533891 371.696955 
L 938.526597 368.534868 
L 939.519303 377.908725 
L 940.512009 404.537351 
L 941.504714 390.896547 
L 942.49742 369.805396 
L 943.490126 365.430073 
L 944.482832 375.430036 
L 945.475538 411.822202 
L 946.468244 390.301222 
L 947.46095 365.608033 
L 948.453656 361.713763 
L 949.446362 372.366305 
L 950.439068 423.039365 
L 951.431774 387.567148 
L 952.42448 361.036675 
L 953.417186 356.378307 
L 954.409891 369.115029 
L 955.402597 426.883316 
L 956.395303 378.058721 
L 957.388009 355.165281 
L 958.380715 351.6353 
L 959.373421 363.454517 
L 960.366127 401.482596 
L 961.358833 369.659815 
L 962.351539 349.865373 
L 963.344245 346.663709 
L 964.336951 357.390982 
L 965.329657 383.503404 
L 966.322363 362.491328 
L 967.315068 344.722408 
L 968.307774 341.806457 
L 969.30048 351.593554 
L 970.293186 370.893144 
L 972.278598 340.566551 
L 973.271304 337.499418 
L 974.26401 346.78139 
L 975.256716 362.933169 
L 976.249422 351.135652 
L 977.242128 336.971747 
L 978.234834 334.039919 
L 979.22754 341.992508 
L 980.220246 355.616088 
L 981.212951 347.425128 
L 982.205657 334.40484 
L 983.198363 331.503657 
L 984.191069 338.442849 
L 985.183775 350.796143 
L 986.176481 344.855467 
L 987.169187 332.481401 
L 988.161893 329.607772 
L 989.154599 336.292608 
L 990.147305 348.354803 
L 991.140011 343.889644 
L 992.132717 332.514783 
L 993.125423 328.791811 
L 994.118128 334.713671 
L 995.110834 347.036989 
L 996.10354 344.532223 
L 997.096246 332.543435 
L 998.088952 328.766159 
L 999.081658 334.593545 
L 1000.074364 347.340362 
L 1001.06707 346.511079 
L 1002.059776 334.050967 
L 1003.052482 329.915665 
L 1004.045188 335.570053 
L 1005.037894 348.540657 
L 1006.0306 349.641822 
L 1007.023305 336.666885 
L 1008.016011 331.367423 
L 1009.008717 336.390141 
L 1010.001423 350.737699 
L 1010.994129 354.101393 
L 1011.986835 340.581102 
L 1012.979541 334.104048 
L 1013.972247 338.282892 
L 1014.964953 353.561979 
L 1015.957659 361.055051 
L 1016.950365 345.524719 
L 1017.943071 337.486995 
L 1018.935777 341.061588 
L 1020.921188 369.983918 
L 1021.913894 351.933581 
L 1022.9066 341.336233 
L 1023.899306 343.968419 
L 1024.892012 358.170433 
L 1025.884718 379.78907 
L 1026.877424 359.853969 
L 1027.87013 346.643078 
L 1028.862836 346.657172 
L 1029.855542 359.538194 
L 1030.848248 392.545236 
L 1031.840954 368.75781 
L 1032.833659 352.020033 
L 1033.826365 349.861867 
L 1034.819071 361.576399 
L 1035.811777 395.260999 
L 1036.804483 381.683326 
L 1037.797189 358.297875 
L 1038.789895 353.552013 
L 1039.782601 362.185562 
L 1040.775307 396.181991 
L 1041.768013 397.463809 
L 1042.760719 364.26591 
L 1043.753425 357.322086 
L 1044.746131 363.317185 
L 1045.738837 391.543677 
L 1046.731542 413.790311 
L 1047.724248 371.025769 
L 1048.716954 360.429681 
L 1049.70966 365.212502 
L 1050.702366 389.860589 
L 1051.695072 430.924408 
L 1052.687778 375.584686 
L 1053.680484 364.537111 
L 1054.67319 367.695538 
L 1055.665896 391.679364 
L 1056.658602 422.514346 
L 1057.651308 377.967095 
L 1058.644014 367.183522 
L 1059.636719 370.973309 
L 1060.629425 394.072238 
L 1061.622131 413.197783 
L 1062.614837 377.916044 
L 1063.607543 368.93579 
L 1064.600249 377.003061 
L 1065.592955 400.015581 
L 1066.585661 397.5288 
L 1067.578367 374.683924 
L 1068.571073 369.710223 
L 1069.563779 380.73704 
L 1070.556485 415.93909 
L 1071.549191 388.620371 
L 1072.541896 369.330192 
L 1073.534602 367.668786 
L 1074.527308 382.596295 
L 1075.520014 443.730035 
L 1076.51272 381.647237 
L 1077.505426 364.965212 
L 1078.498132 364.359909 
L 1079.490838 381.115044 
L 1080.483544 492.48 
L 1081.47625 377.289826 
L 1082.468956 360.634815 
L 1083.461662 360.946592 
L 1084.454368 379.088832 
L 1085.447073 448.86901 
L 1086.439779 373.704706 
L 1087.432485 357.835281 
L 1088.425191 358.084657 
L 1089.417897 376.061131 
L 1090.410603 426.161728 
L 1091.403309 372.708007 
L 1092.396015 356.05913 
L 1093.388721 356.225774 
L 1094.381427 373.038775 
L 1095.374133 418.739878 
L 1096.366839 374.053162 
L 1097.359545 356.295375 
L 1098.35225 355.550362 
L 1099.344956 371.026498 
L 1100.337662 420.37637 
L 1101.330368 375.166528 
L 1102.323074 357.91451 
L 1103.31578 356.322791 
L 1104.308486 370.317044 
L 1105.301192 423.797638 
L 1106.293898 381.794941 
L 1107.286604 360.865346 
L 1108.27931 357.861579 
L 1109.272016 370.578632 
L 1110.264722 426.963333 
L 1111.257428 390.353771 
L 1112.250133 365.691883 
L 1113.242839 361.35208 
L 1114.235545 373.166704 
L 1115.228251 414.485895 
L 1116.220957 398.9133 
L 1117.213663 373.21673 
L 1118.206369 367.787869 
L 1119.199075 374.603065 
L 1120.191781 395.847109 
L 1121.184487 403.33419 
L 1122.177193 384.358916 
L 1123.169899 374.774884 
L 1124.162605 376.444551 
L 1126.148016 395.175379 
L 1127.140722 397.988156 
L 1129.126134 374.736719 
L 1130.11884 373.134236 
L 1131.111546 381.776564 
L 1132.104252 408.15622 
L 1133.096958 399.791118 
L 1134.089664 374.234004 
L 1135.08237 365.669103 
L 1136.075076 370.705256 
L 1137.067782 399.310121 
L 1138.060487 414.582742 
L 1139.053193 372.749475 
L 1140.045899 359.483985 
L 1141.038605 362.454715 
L 1142.031311 385.0939 
L 1143.024017 418.643297 
L 1144.016723 369.971471 
L 1145.009429 356.249769 
L 1146.002135 357.603249 
L 1146.994841 376.030235 
L 1147.987547 409.725432 
L 1148.980253 367.430058 
L 1149.972959 353.083387 
L 1150.965664 352.953351 
L 1151.95837 368.643447 
L 1152.951076 400.140733 
L 1153.943782 367.726089 
L 1154.936488 351.622063 
L 1155.929194 350.715185 
L 1156.9219 362.765676 
L 1157.914606 391.533909 
L 1158.907312 367.92978 
L 1159.900018 351.725867 
L 1160.892724 349.27432 
L 1161.88543 361.070815 
L 1162.878136 389.528852 
L 1164.863547 352.006137 
L 1165.856253 348.88248 
L 1166.848959 357.764434 
L 1167.841665 386.676231 
L 1168.834371 375.141488 
L 1169.827077 353.995469 
L 1170.819783 348.780484 
L 1171.812489 357.129368 
L 1172.805195 382.680582 
L 1173.797901 380.839175 
L 1174.790607 356.965257 
L 1175.783313 349.591078 
L 1176.776019 356.238948 
L 1177.768724 379.064855 
L 1178.76143 389.154075 
L 1179.754136 360.615101 
L 1180.746842 350.88868 
L 1181.739548 355.50467 
L 1183.72496 395.533245 
L 1184.717666 364.582378 
L 1185.710372 352.760141 
L 1186.703078 353.749787 
L 1187.695784 370.931732 
L 1188.68849 402.774019 
L 1189.681196 368.873415 
L 1190.673901 353.550014 
L 1191.666607 353.22436 
L 1192.659313 366.22354 
L 1193.652019 400.003113 
L 1194.644725 372.251443 
L 1195.637431 354.325894 
L 1196.630137 350.966398 
L 1197.622843 362.134891 
L 1198.615549 393.1639 
L 1199.608255 376.171733 
L 1200.600961 355.13664 
L 1201.593667 349.34955 
L 1202.586373 358.724739 
L 1203.579078 386.257415 
L 1204.571784 377.483887 
L 1205.56449 354.526886 
L 1206.557196 348.45611 
L 1207.549902 355.664358 
L 1208.542608 379.307418 
L 1209.535314 379.263035 
L 1210.52802 354.763924 
L 1211.520726 348.054496 
L 1212.513432 353.970688 
L 1213.506138 376.204501 
L 1214.498844 378.644787 
L 1215.49155 354.412956 
L 1216.484255 346.708234 
L 1217.476961 352.282089 
L 1218.469667 372.99341 
L 1219.462373 378.264495 
L 1220.455079 354.185014 
L 1221.447785 346.172652 
L 1222.440491 351.481164 
L 1223.433197 370.718185 
L 1224.425903 376.289475 
L 1225.418609 353.234931 
L 1226.411315 345.790182 
L 1227.404021 350.770906 
L 1228.396727 371.234949 
L 1229.389432 375.972179 
L 1230.382138 352.79767 
L 1231.374844 345.447119 
L 1232.36755 350.813244 
L 1233.360256 371.046956 
L 1234.352962 375.709988 
L 1235.345668 352.935235 
L 1236.338374 345.235779 
L 1237.33108 350.914319 
L 1238.323786 370.757176 
L 1239.316492 373.587075 
L 1240.309198 352.552413 
L 1241.301904 345.59566 
L 1242.29461 351.569968 
L 1243.287315 373.006259 
L 1244.280021 372.947395 
L 1245.272727 352.128874 
L 1245.272727 352.128874 
" clip-path="url(#p7305adea17)" style="fill: none; stroke: #1f77b4; stroke-width: 1.5; stroke-linecap: square"/>
   </g>
   <g id="patch_3">
    <path d="M 180 512.64 
L 180 69.12 
" style="fill: none; stroke: #000000; stroke-width: 0.8; stroke-linejoin: miter; stroke-linecap: square"/>
   </g>
   <g id="patch_4">
    <path d="M 1296 512.64 
L 1296 69.12 
" style="fill: none; stroke: #000000; stroke-width: 0.8; stroke-linejoin: miter; stroke-linecap: square"/>
   </g>
   <g id="patch_5">
    <path d="M 180 512.64 
L 1296 512.64 
" style="fill: none; stroke: #000000; stroke-width: 0.8; stroke-linejoin: miter; stroke-linecap: square"/>
   </g>
   <g id="patch_6">
    <path d="M 180 69.12 
L 1296 69.12 
" style="fill: none; stroke: #000000; stroke-width: 0.8; stroke-linejoin: miter; stroke-linecap: square"/>
   </g>
   <g id="text_13">
    <!-- source21-receiver18 -->
    <g transform="translate(532.175 60.80125) scale(0.4 -0.4)">
     <defs>
      <path id="DejaVuSans-73" d="M 2834 3397 
L 2834 2853 
Q 2591 2978 2328 3040 
Q 2066 3103 1784 3103 
Q 1356 3103 1142 2972 
Q 928 2841 928 2578 
Q 928 2378 1081 2264 
Q 1234 2150 1697 2047 
L 1894 2003 
Q 2506 1872 2764 1633 
Q 3022 1394 3022 966 
Q 3022 478 2636 193 
Q 2250 -91 1575 -91 
Q 1294 -91 989 -36 
Q 684 19 347 128 
L 347 722 
Q 666 556 975 473 
Q 1284 391 1588 391 
Q 1994 391 2212 530 
Q 2431 669 2431 922 
Q 2431 1156 2273 1281 
Q 2116 1406 1581 1522 
L 1381 1569 
Q 847 1681 609 1914 
Q 372 2147 372 2553 
Q 372 3047 722 3315 
Q 1072 3584 1716 3584 
Q 2034 3584 2315 3537 
Q 2597 3491 2834 3397 
z
" transform="scale(0.015625)"/>
      <path id="DejaVuSans-6f" d="M 1959 3097 
Q 1497 3097 1228 2736 
Q 959 2375 959 1747 
Q 959 1119 1226 758 
Q 1494 397 1959 397 
Q 2419 397 2687 759 
Q 2956 1122 2956 1747 
Q 2956 2369 2687 2733 
Q 2419 3097 1959 3097 
z
M 1959 3584 
Q 2709 3584 3137 3096 
Q 3566 2609 3566 1747 
Q 3566 888 3137 398 
Q 2709 -91 1959 -91 
Q 1206 -91 779 398 
Q 353 888 353 1747 
Q 353 2609 779 3096 
Q 1206 3584 1959 3584 
z
" transform="scale(0.015625)"/>
      <path id="DejaVuSans-75" d="M 544 1381 
L 544 3500 
L 1119 3500 
L 1119 1403 
Q 1119 906 1312 657 
Q 1506 409 1894 409 
Q 2359 409 2629 706 
Q 2900 1003 2900 1516 
L 2900 3500 
L 3475 3500 
L 3475 0 
L 2900 0 
L 2900 538 
Q 2691 219 2414 64 
Q 2138 -91 1772 -91 
Q 1169 -91 856 284 
Q 544 659 544 1381 
z
M 1991 3584 
L 1991 3584 
z
" transform="scale(0.015625)"/>
      <path id="DejaVuSans-72" d="M 2631 2963 
Q 2534 3019 2420 3045 
Q 2306 3072 2169 3072 
Q 1681 3072 1420 2755 
Q 1159 2438 1159 1844 
L 1159 0 
L 581 0 
L 581 3500 
L 1159 3500 
L 1159 2956 
Q 1341 3275 1631 3429 
Q 1922 3584 2338 3584 
Q 2397 3584 2469 3576 
Q 2541 3569 2628 3553 
L 2631 2963 
z
" transform="scale(0.015625)"/>
      <path id="DejaVuSans-63" d="M 3122 3366 
L 3122 2828 
Q 2878 2963 2633 3030 
Q 2388 3097 2138 3097 
Q 1578 3097 1268 2742 
Q 959 2388 959 1747 
Q 959 1106 1268 751 
Q 1578 397 2138 397 
Q 2388 397 2633 464 
Q 2878 531 3122 666 
L 3122 134 
Q 2881 22 2623 -34 
Q 2366 -91 2075 -91 
Q 1284 -91 818 406 
Q 353 903 353 1747 
Q 353 2603 823 3093 
Q 1294 3584 2113 3584 
Q 2378 3584 2631 3529 
Q 2884 3475 3122 3366 
z
" transform="scale(0.015625)"/>
      <path id="DejaVuSans-65" d="M 3597 1894 
L 3597 1613 
L 953 1613 
Q 991 1019 1311 708 
Q 1631 397 2203 397 
Q 2534 397 2845 478 
Q 3156 559 3463 722 
L 3463 178 
Q 3153 47 2828 -22 
Q 2503 -91 2169 -91 
Q 1331 -91 842 396 
Q 353 884 353 1716 
Q 353 2575 817 3079 
Q 1281 3584 2069 3584 
Q 2775 3584 3186 3129 
Q 3597 2675 3597 1894 
z
M 3022 2063 
Q 3016 2534 2758 2815 
Q 2500 3097 2075 3097 
Q 1594 3097 1305 2825 
Q 1016 2553 972 2059 
L 3022 2063 
z
" transform="scale(0.015625)"/>
      <path id="DejaVuSans-2d" d="M 313 2009 
L 1997 2009 
L 1997 1497 
L 313 1497 
L 313 2009 
z
" transform="scale(0.015625)"/>
      <path id="DejaVuSans-69" d="M 603 3500 
L 1178 3500 
L 1178 0 
L 603 0 
L 603 3500 
z
M 603 4863 
L 1178 4863 
L 1178 4134 
L 603 4134 
L 603 4863 
z
" transform="scale(0.015625)"/>
      <path id="DejaVuSans-76" d="M 191 3500 
L 800 3500 
L 1894 563 
L 2988 3500 
L 3597 3500 
L 2284 0 
L 1503 0 
L 191 3500 
z
" transform="scale(0.015625)"/>
      <path id="DejaVuSans-38" d="M 2034 2216 
Q 1584 2216 1326 1975 
Q 1069 1734 1069 1313 
Q 1069 891 1326 650 
Q 1584 409 2034 409 
Q 2484 409 2743 651 
Q 3003 894 3003 1313 
Q 3003 1734 2745 1975 
Q 2488 2216 2034 2216 
z
M 1403 2484 
Q 997 2584 770 2862 
Q 544 3141 544 3541 
Q 544 4100 942 4425 
Q 1341 4750 2034 4750 
Q 2731 4750 3128 4425 
Q 3525 4100 3525 3541 
Q 3525 3141 3298 2862 
Q 3072 2584 2669 2484 
Q 3125 2378 3379 2068 
Q 3634 1759 3634 1313 
Q 3634 634 3220 271 
Q 2806 -91 2034 -91 
Q 1263 -91 848 271 
Q 434 634 434 1313 
Q 434 1759 690 2068 
Q 947 2378 1403 2484 
z
M 1172 3481 
Q 1172 3119 1398 2916 
Q 1625 2713 2034 2713 
Q 2441 2713 2670 2916 
Q 2900 3119 2900 3481 
Q 2900 3844 2670 4047 
Q 2441 4250 2034 4250 
Q 1625 4250 1398 4047 
Q 1172 3844 1172 3481 
z
" transform="scale(0.015625)"/>
     </defs>
     <use xlink:href="#DejaVuSans-73"/>
     <use xlink:href="#DejaVuSans-6f" x="52.099609"/>
     <use xlink:href="#DejaVuSans-75" x="113.28125"/>
     <use xlink:href="#DejaVuSans-72" x="176.660156"/>
     <use xlink:href="#DejaVuSans-63" x="215.523438"/>
     <use xlink:href="#DejaVuSans-65" x="270.503906"/>
     <use xlink:href="#DejaVuSans-32" x="332.027344"/>
     <use xlink:href="#DejaVuSans-31" x="395.650391"/>
     <use xlink:href="#DejaVuSans-2d" x="459.273438"/>
     <use xlink:href="#DejaVuSans-72" x="495.357422"/>
     <use xlink:href="#DejaVuSans-65" x="534.220703"/>
     <use xlink:href="#DejaVuSans-63" x="595.744141"/>
     <use xlink:href="#DejaVuSans-65" x="650.724609"/>
     <use xlink:href="#DejaVuSans-69" x="712.248047"/>
     <use xlink:href="#DejaVuSans-76" x="740.03125"/>
     <use xlink:href="#DejaVuSans-65" x="799.210938"/>
     <use xlink:href="#DejaVuSans-72" x="860.734375"/>
     <use xlink:href="#DejaVuSans-31" x="901.847656"/>
     <use xlink:href="#DejaVuSans-38" x="965.470703"/>
    </g>
   </g>
  </g>
 </g>
 <defs>
  <clipPath id="p7305adea17">
   <rect x="180" y="69.12" width="1116" height="443.52"/>
  </clipPath>
 </defs>
</svg>
