<?xml version="1.0" encoding="utf-8" standalone="no"?>
<!DOCTYPE svg PUBLIC "-//W3C//DTD SVG 1.1//EN"
  "http://www.w3.org/Graphics/SVG/1.1/DTD/svg11.dtd">
<svg xmlns:xlink="http://www.w3.org/1999/xlink" width="1440pt" height="576pt" viewBox="0 0 1440 576" xmlns="http://www.w3.org/2000/svg" version="1.1">
 <metadata>
  <rdf:RDF xmlns:dc="http://purl.org/dc/elements/1.1/" xmlns:cc="http://creativecommons.org/ns#" xmlns:rdf="http://www.w3.org/1999/02/22-rdf-syntax-ns#">
   <cc:Work>
    <dc:type rdf:resource="http://purl.org/dc/dcmitype/StillImage"/>
    <dc:date>2024-05-22T04:50:20.502349</dc:date>
    <dc:format>image/svg+xml</dc:format>
    <dc:creator>
     <cc:Agent>
      <dc:title>Matplotlib v3.8.3, https://matplotlib.org/</dc:title>
     </cc:Agent>
    </dc:creator>
   </cc:Work>
  </rdf:RDF>
 </metadata>
 <defs>
  <style type="text/css">*{stroke-linejoin: round; stroke-linecap: butt}</style>
 </defs>
 <g id="figure_1">
  <g id="patch_1">
   <path d="M 0 576 
L 1440 576 
L 1440 0 
L 0 0 
z
" style="fill: #ffffff"/>
  </g>
  <g id="axes_1">
   <g id="patch_2">
    <path d="M 180 512.64 
L 1296 512.64 
L 1296 69.12 
L 180 69.12 
z
" style="fill: #ffffff"/>
   </g>
   <g id="matplotlib.axis_1">
    <g id="xtick_1">
     <g id="line2d_1">
      <defs>
       <path id="mb6e162c893" d="M 0 0 
L 0 3.5 
" style="stroke: #000000; stroke-width: 0.8"/>
      </defs>
      <g>
       <use xlink:href="#mb6e162c893" x="229.734567" y="512.64" style="stroke: #000000; stroke-width: 0.8"/>
      </g>
     </g>
     <g id="text_1">
      <!-- 0 -->
      <g transform="translate(226.553317 527.238438) scale(0.1 -0.1)">
       <defs>
        <path id="DejaVuSans-30" d="M 2034 4250 
Q 1547 4250 1301 3770 
Q 1056 3291 1056 2328 
Q 1056 1369 1301 889 
Q 1547 409 2034 409 
Q 2525 409 2770 889 
Q 3016 1369 3016 2328 
Q 3016 3291 2770 3770 
Q 2525 4250 2034 4250 
z
M 2034 4750 
Q 2819 4750 3233 4129 
Q 3647 3509 3647 2328 
Q 3647 1150 3233 529 
Q 2819 -91 2034 -91 
Q 1250 -91 836 529 
Q 422 1150 422 2328 
Q 422 3509 836 4129 
Q 1250 4750 2034 4750 
z
" transform="scale(0.015625)"/>
       </defs>
       <use xlink:href="#DejaVuSans-30"/>
      </g>
     </g>
    </g>
    <g id="xtick_2">
     <g id="line2d_2">
      <g>
       <use xlink:href="#mb6e162c893" x="433.04074" y="512.64" style="stroke: #000000; stroke-width: 0.8"/>
      </g>
     </g>
     <g id="text_2">
      <!-- 500 -->
      <g transform="translate(423.49699 527.238438) scale(0.1 -0.1)">
       <defs>
        <path id="DejaVuSans-35" d="M 691 4666 
L 3169 4666 
L 3169 4134 
L 1269 4134 
L 1269 2991 
Q 1406 3038 1543 3061 
Q 1681 3084 1819 3084 
Q 2600 3084 3056 2656 
Q 3513 2228 3513 1497 
Q 3513 744 3044 326 
Q 2575 -91 1722 -91 
Q 1428 -91 1123 -41 
Q 819 9 494 109 
L 494 744 
Q 775 591 1075 516 
Q 1375 441 1709 441 
Q 2250 441 2565 725 
Q 2881 1009 2881 1497 
Q 2881 1984 2565 2268 
Q 2250 2553 1709 2553 
Q 1456 2553 1204 2497 
Q 953 2441 691 2322 
L 691 4666 
z
" transform="scale(0.015625)"/>
       </defs>
       <use xlink:href="#DejaVuSans-35"/>
       <use xlink:href="#DejaVuSans-30" x="63.623047"/>
       <use xlink:href="#DejaVuSans-30" x="127.246094"/>
      </g>
     </g>
    </g>
    <g id="xtick_3">
     <g id="line2d_3">
      <g>
       <use xlink:href="#mb6e162c893" x="636.346913" y="512.64" style="stroke: #000000; stroke-width: 0.8"/>
      </g>
     </g>
     <g id="text_3">
      <!-- 1000 -->
      <g transform="translate(623.621913 527.238438) scale(0.1 -0.1)">
       <defs>
        <path id="DejaVuSans-31" d="M 794 531 
L 1825 531 
L 1825 4091 
L 703 3866 
L 703 4441 
L 1819 4666 
L 2450 4666 
L 2450 531 
L 3481 531 
L 3481 0 
L 794 0 
L 794 531 
z
" transform="scale(0.015625)"/>
       </defs>
       <use xlink:href="#DejaVuSans-31"/>
       <use xlink:href="#DejaVuSans-30" x="63.623047"/>
       <use xlink:href="#DejaVuSans-30" x="127.246094"/>
       <use xlink:href="#DejaVuSans-30" x="190.869141"/>
      </g>
     </g>
    </g>
    <g id="xtick_4">
     <g id="line2d_4">
      <g>
       <use xlink:href="#mb6e162c893" x="839.653087" y="512.64" style="stroke: #000000; stroke-width: 0.8"/>
      </g>
     </g>
     <g id="text_4">
      <!-- 1500 -->
      <g transform="translate(826.928087 527.238438) scale(0.1 -0.1)">
       <use xlink:href="#DejaVuSans-31"/>
       <use xlink:href="#DejaVuSans-35" x="63.623047"/>
       <use xlink:href="#DejaVuSans-30" x="127.246094"/>
       <use xlink:href="#DejaVuSans-30" x="190.869141"/>
      </g>
     </g>
    </g>
    <g id="xtick_5">
     <g id="line2d_5">
      <g>
       <use xlink:href="#mb6e162c893" x="1042.95926" y="512.64" style="stroke: #000000; stroke-width: 0.8"/>
      </g>
     </g>
     <g id="text_5">
      <!-- 2000 -->
      <g transform="translate(1030.23426 527.238438) scale(0.1 -0.1)">
       <defs>
        <path id="DejaVuSans-32" d="M 1228 531 
L 3431 531 
L 3431 0 
L 469 0 
L 469 531 
Q 828 903 1448 1529 
Q 2069 2156 2228 2338 
Q 2531 2678 2651 2914 
Q 2772 3150 2772 3378 
Q 2772 3750 2511 3984 
Q 2250 4219 1831 4219 
Q 1534 4219 1204 4116 
Q 875 4013 500 3803 
L 500 4441 
Q 881 4594 1212 4672 
Q 1544 4750 1819 4750 
Q 2544 4750 2975 4387 
Q 3406 4025 3406 3419 
Q 3406 3131 3298 2873 
Q 3191 2616 2906 2266 
Q 2828 2175 2409 1742 
Q 1991 1309 1228 531 
z
" transform="scale(0.015625)"/>
       </defs>
       <use xlink:href="#DejaVuSans-32"/>
       <use xlink:href="#DejaVuSans-30" x="63.623047"/>
       <use xlink:href="#DejaVuSans-30" x="127.246094"/>
       <use xlink:href="#DejaVuSans-30" x="190.869141"/>
      </g>
     </g>
    </g>
    <g id="xtick_6">
     <g id="line2d_6">
      <g>
       <use xlink:href="#mb6e162c893" x="1246.265433" y="512.64" style="stroke: #000000; stroke-width: 0.8"/>
      </g>
     </g>
     <g id="text_6">
      <!-- 2500 -->
      <g transform="translate(1233.540433 527.238438) scale(0.1 -0.1)">
       <use xlink:href="#DejaVuSans-32"/>
       <use xlink:href="#DejaVuSans-35" x="63.623047"/>
       <use xlink:href="#DejaVuSans-30" x="127.246094"/>
       <use xlink:href="#DejaVuSans-30" x="190.869141"/>
      </g>
     </g>
    </g>
   </g>
   <g id="matplotlib.axis_2">
    <g id="ytick_1">
     <g id="line2d_7">
      <defs>
       <path id="m8cf06b8030" d="M 0 0 
L -3.5 0 
" style="stroke: #000000; stroke-width: 0.8"/>
      </defs>
      <g>
       <use xlink:href="#m8cf06b8030" x="180" y="495.366327" style="stroke: #000000; stroke-width: 0.8"/>
      </g>
     </g>
     <g id="text_7">
      <!-- −3 -->
      <g transform="translate(158.257812 499.165546) scale(0.1 -0.1)">
       <defs>
        <path id="DejaVuSans-2212" d="M 678 2272 
L 4684 2272 
L 4684 1741 
L 678 1741 
L 678 2272 
z
" transform="scale(0.015625)"/>
        <path id="DejaVuSans-33" d="M 2597 2516 
Q 3050 2419 3304 2112 
Q 3559 1806 3559 1356 
Q 3559 666 3084 287 
Q 2609 -91 1734 -91 
Q 1441 -91 1130 -33 
Q 819 25 488 141 
L 488 750 
Q 750 597 1062 519 
Q 1375 441 1716 441 
Q 2309 441 2620 675 
Q 2931 909 2931 1356 
Q 2931 1769 2642 2001 
Q 2353 2234 1838 2234 
L 1294 2234 
L 1294 2753 
L 1863 2753 
Q 2328 2753 2575 2939 
Q 2822 3125 2822 3475 
Q 2822 3834 2567 4026 
Q 2313 4219 1838 4219 
Q 1578 4219 1281 4162 
Q 984 4106 628 3988 
L 628 4550 
Q 988 4650 1302 4700 
Q 1616 4750 1894 4750 
Q 2613 4750 3031 4423 
Q 3450 4097 3450 3541 
Q 3450 3153 3228 2886 
Q 3006 2619 2597 2516 
z
" transform="scale(0.015625)"/>
       </defs>
       <use xlink:href="#DejaVuSans-2212"/>
       <use xlink:href="#DejaVuSans-33" x="83.789062"/>
      </g>
     </g>
    </g>
    <g id="ytick_2">
     <g id="line2d_8">
      <g>
       <use xlink:href="#m8cf06b8030" x="180" y="433.370291" style="stroke: #000000; stroke-width: 0.8"/>
      </g>
     </g>
     <g id="text_8">
      <!-- −2 -->
      <g transform="translate(158.257812 437.16951) scale(0.1 -0.1)">
       <use xlink:href="#DejaVuSans-2212"/>
       <use xlink:href="#DejaVuSans-32" x="83.789062"/>
      </g>
     </g>
    </g>
    <g id="ytick_3">
     <g id="line2d_9">
      <g>
       <use xlink:href="#m8cf06b8030" x="180" y="371.374255" style="stroke: #000000; stroke-width: 0.8"/>
      </g>
     </g>
     <g id="text_9">
      <!-- −1 -->
      <g transform="translate(158.257812 375.173473) scale(0.1 -0.1)">
       <use xlink:href="#DejaVuSans-2212"/>
       <use xlink:href="#DejaVuSans-31" x="83.789062"/>
      </g>
     </g>
    </g>
    <g id="ytick_4">
     <g id="line2d_10">
      <g>
       <use xlink:href="#m8cf06b8030" x="180" y="309.378218" style="stroke: #000000; stroke-width: 0.8"/>
      </g>
     </g>
     <g id="text_10">
      <!-- 0 -->
      <g transform="translate(166.6375 313.177437) scale(0.1 -0.1)">
       <use xlink:href="#DejaVuSans-30"/>
      </g>
     </g>
    </g>
    <g id="ytick_5">
     <g id="line2d_11">
      <g>
       <use xlink:href="#m8cf06b8030" x="180" y="247.382182" style="stroke: #000000; stroke-width: 0.8"/>
      </g>
     </g>
     <g id="text_11">
      <!-- 1 -->
      <g transform="translate(166.6375 251.181401) scale(0.1 -0.1)">
       <use xlink:href="#DejaVuSans-31"/>
      </g>
     </g>
    </g>
    <g id="ytick_6">
     <g id="line2d_12">
      <g>
       <use xlink:href="#m8cf06b8030" x="180" y="185.386146" style="stroke: #000000; stroke-width: 0.8"/>
      </g>
     </g>
     <g id="text_12">
      <!-- 2 -->
      <g transform="translate(166.6375 189.185365) scale(0.1 -0.1)">
       <use xlink:href="#DejaVuSans-32"/>
      </g>
     </g>
    </g>
    <g id="ytick_7">
     <g id="line2d_13">
      <g>
       <use xlink:href="#m8cf06b8030" x="180" y="123.39011" style="stroke: #000000; stroke-width: 0.8"/>
      </g>
     </g>
     <g id="text_13">
      <!-- 3 -->
      <g transform="translate(166.6375 127.189328) scale(0.1 -0.1)">
       <use xlink:href="#DejaVuSans-33"/>
      </g>
     </g>
    </g>
   </g>
   <g id="line2d_14">
    <path d="M 230.727273 362.309292 
L 231.719979 361.356318 
L 232.712685 359.921275 
L 233.70539 358.168342 
L 234.698096 355.949428 
L 235.690802 353.332719 
L 237.676214 346.604912 
L 238.66892 342.80699 
L 240.654332 333.529253 
L 242.639744 322.231914 
L 243.63245 316.03429 
L 244.625156 308.304885 
L 245.617862 298.574277 
L 246.610568 284.472344 
L 247.603273 265.09364 
L 249.588685 222.75967 
L 250.581391 205.650416 
L 251.574097 193.666441 
L 252.566803 186.099649 
L 253.559509 186.03384 
L 254.552215 192.401634 
L 255.544921 204.111833 
L 256.537627 211.734627 
L 257.530333 208.16563 
L 258.523039 198.260624 
L 259.515745 197.451123 
L 260.50845 210.512206 
L 261.501156 239.914998 
L 262.493862 261.01584 
L 263.486568 232.416692 
L 264.479274 219.374784 
L 265.47198 226.139316 
L 266.464686 262.724652 
L 267.457392 308.597807 
L 268.450098 257.538114 
L 269.442804 239.506412 
L 270.43551 251.663755 
L 271.428216 298.209206 
L 272.420922 280.690286 
L 273.413627 239.963686 
L 274.406333 222.417857 
L 275.399039 211.277825 
L 276.391745 192.451633 
L 278.377157 150.636059 
L 279.369863 133.805451 
L 280.362569 119.106867 
L 281.355275 107.245643 
L 282.347981 97.631081 
L 283.340687 91.608236 
L 284.333393 89.28 
L 285.326099 92.427672 
L 286.318804 101.223007 
L 287.31151 119.146902 
L 288.304216 148.943621 
L 289.296922 196.081467 
L 290.289628 207.54375 
L 291.282334 186.750308 
L 292.27504 185.037924 
L 293.267746 203.730758 
L 294.260452 243.132188 
L 295.253158 306.475576 
L 296.245864 280.794143 
L 297.23857 282.115974 
L 298.231276 312.311842 
L 299.223981 296.38575 
L 300.216687 275.325667 
L 301.209393 277.050507 
L 302.202099 288.477197 
L 303.194805 293.244302 
L 304.187511 288.976911 
L 305.180217 299.236632 
L 306.172923 313.893519 
L 307.165629 332.600556 
L 308.158335 331.067223 
L 309.151041 331.142681 
L 310.143747 325.390393 
L 311.136453 326.125209 
L 312.129159 327.65509 
L 313.121864 336.21124 
L 314.11457 341.009486 
L 315.107276 336.116045 
L 316.099982 337.934563 
L 317.092688 336.102734 
L 318.085394 346.706147 
L 319.0781 341.889059 
L 320.070806 343.094967 
L 321.063512 342.463011 
L 322.056218 350.475876 
L 323.048924 353.304943 
L 324.04163 348.998702 
L 325.034336 350.196796 
L 326.027041 352.426962 
L 327.019747 352.82493 
L 328.012453 349.267392 
L 329.005159 361.904327 
L 329.997865 352.753971 
L 330.990571 354.853368 
L 331.983277 367.375382 
L 332.975983 361.044418 
L 333.968689 361.260901 
L 334.961395 354.049941 
L 335.954101 360.152836 
L 336.946807 357.349468 
L 338.932218 370.186337 
L 339.924924 364.558491 
L 340.91763 372.462838 
L 341.910336 367.700784 
L 342.903042 365.589201 
L 343.895748 366.580536 
L 344.888454 371.562502 
L 345.88116 378.453934 
L 346.873866 372.710423 
L 347.866572 374.126387 
L 348.859278 366.846098 
L 349.851984 384.279436 
L 350.84469 379.615498 
L 351.837395 377.98942 
L 352.830101 368.51793 
L 353.822807 368.555717 
L 354.815513 371.820047 
L 355.808219 371.349271 
L 357.793631 387.624745 
L 358.786337 378.590717 
L 359.779043 379.528067 
L 360.771749 382.239289 
L 361.764455 377.049145 
L 362.757161 375.764743 
L 363.749867 377.856724 
L 364.742572 386.804413 
L 365.735278 382.485005 
L 366.727984 390.612213 
L 367.72069 380.572957 
L 368.713396 384.503753 
L 369.706102 390.397409 
L 370.698808 386.55644 
L 371.691514 386.563775 
L 372.68422 396.143475 
L 373.676926 381.606374 
L 374.669632 387.615289 
L 375.662338 387.284997 
L 376.655044 394.591436 
L 377.64775 394.23115 
L 378.640455 390.528792 
L 379.633161 399.621204 
L 380.625867 395.547458 
L 381.618573 394.343569 
L 382.611279 404.224388 
L 383.603985 386.862526 
L 384.596691 401.476023 
L 385.589397 410.251162 
L 386.582103 387.546242 
L 387.574809 389.05748 
L 388.567515 391.130521 
L 389.560221 398.094309 
L 390.552927 403.272944 
L 391.545632 387.677652 
L 393.531044 399.163647 
L 394.52375 395.702462 
L 395.516456 400.244032 
L 396.509162 420.309041 
L 397.501868 400.14314 
L 398.494574 389.499519 
L 399.48728 396.058401 
L 400.479986 389.690845 
L 401.472692 415.188626 
L 402.465398 413.020796 
L 403.458104 406.952856 
L 404.450809 390.559973 
L 405.443515 402.631746 
L 406.436221 404.819371 
L 407.428927 397.871142 
L 408.421633 416.556742 
L 409.414339 406.90125 
L 410.407045 393.711797 
L 411.399751 408.213323 
L 412.392457 417.171251 
L 413.385163 396.46032 
L 414.377869 392.640761 
L 415.370575 401.195304 
L 416.363281 395.560253 
L 417.355986 415.038236 
L 418.348692 411.927919 
L 419.341398 416.90203 
L 420.334104 418.602641 
L 421.32681 400.037282 
L 422.319516 398.969131 
L 423.312222 413.824966 
L 424.304928 417.377396 
L 425.297634 427.902238 
L 426.29034 417.41422 
L 427.283046 396.891249 
L 428.275752 432.129395 
L 429.268458 407.490112 
L 430.261163 414.734442 
L 431.253869 433.618359 
L 432.246575 416.506567 
L 433.239281 406.268254 
L 434.231987 401.750739 
L 435.224693 404.044736 
L 436.217399 395.040035 
L 437.210105 419.527005 
L 438.202811 432.9093 
L 439.195517 402.1788 
L 440.188223 447.443431 
L 441.180929 433.850941 
L 442.173635 404.659346 
L 443.166341 431.560092 
L 444.159046 430.315717 
L 445.151752 416.920671 
L 446.144458 412.68207 
L 447.137164 421.73057 
L 448.12987 412.175599 
L 449.122576 429.935683 
L 450.115282 410.726347 
L 451.107988 423.381001 
L 452.100694 416.336094 
L 453.0934 421.859028 
L 454.086106 432.962639 
L 455.078812 419.288419 
L 456.071518 408.127324 
L 457.064223 423.303602 
L 458.056929 434.769764 
L 459.049635 414.765324 
L 460.042341 407.797047 
L 461.035047 415.531042 
L 462.027753 412.090003 
L 463.020459 417.20755 
L 464.013165 432.173473 
L 465.005871 421.371838 
L 465.998577 422.346886 
L 466.991283 443.202599 
L 467.983989 419.167259 
L 468.976695 434.832574 
L 470.962106 412.146129 
L 471.954812 429.132646 
L 472.947518 415.390191 
L 473.940224 420.445192 
L 474.93293 419.795033 
L 475.925636 428.92462 
L 476.918342 419.5938 
L 477.911048 425.723834 
L 478.903754 439.79248 
L 479.89646 429.608784 
L 480.889166 424.358219 
L 481.881872 425.197718 
L 482.874577 420.794575 
L 483.867283 439.428803 
L 484.859989 421.509984 
L 485.852695 431.795559 
L 486.845401 451.54761 
L 487.838107 423.413118 
L 488.830813 438.827416 
L 489.823519 443.555391 
L 490.816225 439.485204 
L 491.808931 432.382132 
L 492.801637 451.392917 
L 493.794343 436.183131 
L 494.787049 426.965853 
L 495.779754 453.737907 
L 496.77246 426.500364 
L 497.765166 425.958701 
L 498.757872 426.800844 
L 499.750578 430.591509 
L 500.743284 436.325197 
L 501.73599 424.408371 
L 502.728696 424.558673 
L 503.721402 439.700905 
L 504.714108 433.60833 
L 505.706814 433.993951 
L 506.69952 441.232871 
L 507.692226 424.752158 
L 508.684932 428.603138 
L 509.677637 416.843352 
L 510.670343 443.372721 
L 511.663049 432.548336 
L 512.655755 437.498022 
L 513.648461 425.313751 
L 514.641167 425.600983 
L 515.633873 444.564766 
L 516.626579 426.454306 
L 517.619285 450.028618 
L 518.611991 424.498295 
L 519.604697 433.415042 
L 520.597403 468.581432 
L 521.590109 434.92971 
L 522.582814 440.825474 
L 523.57552 429.773877 
L 524.568226 443.791909 
L 525.560932 439.470649 
L 526.553638 449.650222 
L 527.546344 440.664728 
L 528.53905 438.030355 
L 529.531756 458.737017 
L 530.524462 428.757818 
L 531.517168 441.907406 
L 532.509874 430.341907 
L 533.50258 449.581059 
L 534.495286 439.365919 
L 535.487991 454.257928 
L 536.480697 441.885147 
L 537.473403 436.461631 
L 538.466109 439.50982 
L 539.458815 438.477847 
L 540.451521 460.716001 
L 541.444227 422.296831 
L 542.436933 431.847342 
L 543.429639 429.772904 
L 544.422345 437.496247 
L 545.415051 473.683473 
L 546.407757 433.897231 
L 547.400463 439.207006 
L 548.393168 466.548693 
L 549.385874 431.842233 
L 550.37858 425.999957 
L 551.371286 439.683361 
L 552.363992 423.928364 
L 553.356698 436.892442 
L 554.349404 435.267227 
L 555.34211 459.835587 
L 556.334816 420.326695 
L 557.327522 452.320187 
L 558.320228 476.248607 
L 559.312934 438.475442 
L 560.30564 459.252471 
L 561.298345 434.580908 
L 562.291051 433.804079 
L 563.283757 453.554059 
L 564.276463 488.430073 
L 565.269169 433.689041 
L 566.261875 452.890418 
L 567.254581 458.164101 
L 568.247287 442.272906 
L 569.239993 464.165875 
L 570.232699 453.878921 
L 571.225405 447.344867 
L 572.218111 450.897846 
L 573.210817 431.296023 
L 574.203523 448.643398 
L 575.196228 454.073462 
L 576.188934 440.459811 
L 577.18164 484.514968 
L 578.174346 452.44338 
L 579.167052 446.274044 
L 580.159758 448.872349 
L 581.152464 462.037515 
L 582.14517 441.227835 
L 583.137876 458.015881 
L 584.130582 433.198923 
L 585.123288 444.412375 
L 586.115994 459.126475 
L 587.1087 459.046888 
L 588.101405 453.522803 
L 589.094111 463.346276 
L 590.086817 445.009507 
L 591.079523 455.421624 
L 592.072229 438.030732 
L 593.064935 443.586536 
L 594.057641 443.471219 
L 595.050347 444.396011 
L 596.043053 440.292447 
L 597.035759 444.212701 
L 598.028465 447.672751 
L 599.021171 470.483486 
L 600.013877 453.804956 
L 601.006582 439.011821 
L 601.999288 447.231466 
L 602.991994 449.521337 
L 603.9847 452.774944 
L 604.977406 442.95898 
L 605.970112 451.928654 
L 606.962818 441.960279 
L 607.955524 451.358125 
L 608.94823 451.556902 
L 609.940936 444.564832 
L 610.933642 445.525429 
L 611.926348 455.176396 
L 612.919054 451.809723 
L 613.911759 455.762069 
L 614.904465 450.204888 
L 615.897171 464.1577 
L 616.889877 458.804014 
L 617.882583 456.486854 
L 618.875289 449.019641 
L 619.867995 464.032764 
L 620.860701 458.220123 
L 621.853407 451.527194 
L 622.846113 456.875988 
L 623.838819 457.385426 
L 624.831525 452.845658 
L 625.824231 452.320727 
L 626.816936 452.706422 
L 627.809642 454.502658 
L 628.802348 453.578227 
L 629.795054 459.69899 
L 630.78776 456.288963 
L 631.780466 455.000483 
L 632.773172 454.504225 
L 633.765878 451.86432 
L 634.758584 465.954909 
L 635.75129 452.337365 
L 636.743996 456.491001 
L 637.736702 458.902518 
L 638.729408 451.38716 
L 639.722114 456.874691 
L 640.714819 459.628744 
L 642.700231 458.716663 
L 643.692937 454.8853 
L 644.685643 452.635497 
L 645.678349 458.453195 
L 646.671055 460.518881 
L 647.663761 449.730501 
L 648.656467 455.669275 
L 649.649173 451.787292 
L 650.641879 458.52803 
L 651.634585 456.612998 
L 652.627291 463.142224 
L 653.619996 466.530571 
L 654.612702 456.459888 
L 655.605408 456.75326 
L 656.598114 453.376402 
L 657.59082 454.799006 
L 658.583526 464.393143 
L 659.576232 461.172739 
L 660.568938 458.555145 
L 661.561644 462.72551 
L 662.55435 459.653042 
L 663.547056 458.639567 
L 664.539762 462.575935 
L 665.532468 458.529635 
L 666.525173 459.520538 
L 667.517879 461.264544 
L 668.510585 456.657981 
L 669.503291 459.569141 
L 670.495997 458.459711 
L 671.488703 458.45246 
L 672.481409 462.345101 
L 673.474115 460.068181 
L 674.466821 459.262174 
L 675.459527 460.337275 
L 676.452233 459.79394 
L 677.444939 462.615807 
L 678.437645 462.292536 
L 679.43035 459.040698 
L 680.423056 463.581303 
L 681.415762 463.752811 
L 682.408468 459.134157 
L 683.401174 461.307378 
L 684.39388 461.966298 
L 685.386586 462.380432 
L 686.379292 463.027778 
L 687.371998 462.578943 
L 688.364704 462.528232 
L 689.35741 465.680758 
L 690.350116 462.540387 
L 691.342822 461.884245 
L 692.335527 462.109327 
L 693.328233 464.455029 
L 694.320939 462.303837 
L 695.313645 464.935033 
L 696.306351 466.780313 
L 697.299057 464.980577 
L 698.291763 464.802359 
L 699.284469 463.759996 
L 700.277175 463.359583 
L 701.269881 464.725687 
L 702.262587 464.82451 
L 703.255293 463.649933 
L 704.247999 465.422699 
L 705.240705 465.611707 
L 706.23341 463.815871 
L 707.226116 463.377105 
L 708.218822 465.336518 
L 709.211528 464.594383 
L 710.204234 464.841149 
L 711.19694 464.045735 
L 712.189646 465.574003 
L 713.182352 466.637746 
L 714.175058 465.522702 
L 715.167764 463.917311 
L 716.16047 465.689793 
L 717.153176 466.244005 
L 718.145882 467.136405 
L 719.138587 466.466068 
L 720.131293 467.550071 
L 721.123999 466.780206 
L 722.116705 467.667456 
L 723.109411 466.73847 
L 724.102117 466.515158 
L 725.094823 467.084375 
L 726.087529 465.953209 
L 728.072941 466.698887 
L 729.065647 467.66776 
L 730.058353 467.472391 
L 731.051059 468.707731 
L 732.043764 468.020588 
L 733.03647 467.183787 
L 734.029176 466.773087 
L 735.021882 467.357662 
L 736.014588 468.682279 
L 737.007294 466.908087 
L 738 468.949733 
L 738.992706 468.976292 
L 739.985412 469.869025 
L 740.978118 469.963381 
L 741.970824 468.300593 
L 742.96353 469.029387 
L 743.956236 468.568361 
L 744.948941 470.232096 
L 745.941647 469.246867 
L 746.934353 469.330338 
L 747.927059 468.375885 
L 748.919765 467.852631 
L 749.912471 469.835869 
L 750.905177 467.898771 
L 752.890589 469.534738 
L 753.883295 470.414772 
L 754.876001 470.347259 
L 755.868707 468.171703 
L 756.861413 469.75249 
L 757.854118 469.783935 
L 758.846824 470.666011 
L 759.83953 468.671485 
L 760.832236 470.180711 
L 761.824942 471.219086 
L 762.817648 471.024953 
L 763.810354 469.63465 
L 764.80306 469.592014 
L 765.795766 471.019198 
L 766.788472 470.406133 
L 767.781178 471.208948 
L 768.773884 470.479476 
L 769.76659 470.198599 
L 770.759295 472.380353 
L 771.752001 472.26986 
L 773.737413 471.314638 
L 774.730119 471.437728 
L 775.722825 471.038188 
L 776.715531 472.15997 
L 777.708237 471.805797 
L 778.700943 472.289995 
L 779.693649 472.031498 
L 780.686355 471.153282 
L 781.679061 472.319491 
L 782.671767 471.617385 
L 783.664473 472.401825 
L 784.657178 472.957327 
L 786.64259 472.170734 
L 787.635296 471.972422 
L 789.620708 473.197226 
L 790.613414 473.010661 
L 791.60612 472.690435 
L 792.598826 472.734729 
L 793.591532 472.484601 
L 794.584238 472.625091 
L 795.576944 474.403359 
L 796.56965 472.294977 
L 797.562355 473.10962 
L 798.555061 473.741058 
L 799.547767 472.309563 
L 800.540473 472.211011 
L 803.518591 474.627609 
L 804.511297 473.741195 
L 805.504003 474.522464 
L 807.489415 474.901339 
L 808.482121 473.193844 
L 809.474827 474.780631 
L 810.467532 474.551652 
L 811.460238 475.035728 
L 812.452944 474.599557 
L 813.44565 475.256225 
L 814.438356 474.348624 
L 815.431062 475.580339 
L 816.423768 475.356594 
L 818.40918 474.532239 
L 819.401886 475.058065 
L 820.394592 475.186505 
L 821.387298 474.038127 
L 822.380004 474.708248 
L 823.372709 475.656155 
L 824.365415 475.991144 
L 825.358121 475.505565 
L 826.350827 475.267214 
L 827.343533 476.507758 
L 828.336239 475.333344 
L 829.328945 476.362847 
L 830.321651 476.829499 
L 831.314357 476.935005 
L 832.307063 475.29691 
L 833.299769 475.954025 
L 834.292475 475.643979 
L 835.285181 475.781801 
L 836.277886 476.977071 
L 837.270592 476.23416 
L 838.263298 476.372891 
L 839.256004 476.252129 
L 840.24871 477.370741 
L 841.241416 476.376409 
L 842.234122 476.731419 
L 843.226828 477.209352 
L 844.219534 476.263374 
L 845.21224 477.454222 
L 846.204946 476.303765 
L 847.197652 476.512704 
L 848.190358 477.048787 
L 852.161181 477.517873 
L 853.153887 476.789926 
L 854.146593 476.641599 
L 855.139299 478.133035 
L 856.132005 478.601837 
L 859.110123 476.983274 
L 860.102829 478.171728 
L 862.088241 478.040713 
L 863.080946 476.862224 
L 864.073652 477.937147 
L 865.066358 478.291624 
L 866.059064 478.276428 
L 867.05177 478.71998 
L 868.044476 478.666015 
L 869.037182 477.977464 
L 870.029888 477.699756 
L 871.022594 477.574655 
L 872.0153 479.792983 
L 873.008006 478.692949 
L 874.000712 478.66436 
L 874.993418 479.043868 
L 875.986123 478.574346 
L 876.978829 478.988421 
L 877.971535 478.899423 
L 878.964241 477.960657 
L 879.956947 479.502468 
L 880.949653 478.761555 
L 881.942359 479.493101 
L 882.935065 479.467639 
L 883.927771 479.013234 
L 884.920477 479.23626 
L 886.905889 480.905467 
L 887.898595 478.07056 
L 888.8913 478.59863 
L 889.884006 480.048099 
L 890.876712 480.715478 
L 891.869418 480.046853 
L 892.862124 480.600927 
L 893.85483 480.86876 
L 894.847536 480.667054 
L 895.840242 479.777272 
L 896.832948 480.476129 
L 897.825654 481.733804 
L 898.81836 480.299663 
L 899.811066 480.724867 
L 900.803772 480.103317 
L 901.796477 479.719225 
L 902.789183 481.525893 
L 903.781889 480.456823 
L 904.774595 480.516198 
L 905.767301 479.280965 
L 906.760007 480.025985 
L 907.752713 481.081627 
L 908.745419 480.758081 
L 910.730831 481.371559 
L 911.723537 480.834342 
L 912.716243 482.250448 
L 913.708949 480.508989 
L 914.701655 481.89623 
L 915.69436 482.220259 
L 916.687066 482.102009 
L 917.679772 482.23228 
L 918.672478 481.592206 
L 919.665184 480.721876 
L 920.65789 482.194913 
L 921.650596 480.674355 
L 922.643302 481.167831 
L 923.636008 481.442509 
L 924.628714 481.985845 
L 925.62142 482.126754 
L 926.614126 480.784439 
L 927.606832 483.86877 
L 928.599537 482.000181 
L 929.592243 482.473562 
L 930.584949 481.684388 
L 931.577655 481.739491 
L 932.570361 482.122053 
L 933.563067 483.398363 
L 934.555773 481.243871 
L 935.548479 482.819 
L 936.541185 481.815519 
L 937.533891 482.480248 
L 938.526597 482.567761 
L 939.519303 482.927811 
L 940.512009 482.311182 
L 942.49742 482.594107 
L 943.490126 482.506092 
L 945.475538 484.12972 
L 946.468244 484.228288 
L 947.46095 482.908675 
L 948.453656 483.070079 
L 949.446362 481.803174 
L 950.439068 483.083356 
L 951.431774 483.460619 
L 952.42448 483.145453 
L 953.417186 483.372754 
L 954.409891 483.955472 
L 955.402597 484.003142 
L 956.395303 482.703387 
L 957.388009 483.300172 
L 958.380715 482.785054 
L 959.373421 484.640895 
L 960.366127 484.122472 
L 961.358833 482.333129 
L 962.351539 484.160461 
L 963.344245 483.535306 
L 964.336951 484.384495 
L 965.329657 484.392458 
L 966.322363 485.231548 
L 967.315068 483.129121 
L 968.307774 482.998753 
L 969.30048 484.557475 
L 970.293186 485.011824 
L 971.285892 482.685582 
L 972.278598 484.477398 
L 973.271304 483.680817 
L 974.26401 485.364028 
L 975.256716 485.751588 
L 976.249422 484.029666 
L 977.242128 483.954257 
L 978.234834 485.118383 
L 979.22754 483.959644 
L 980.220246 483.962503 
L 981.212951 485.387556 
L 982.205657 485.058851 
L 983.198363 485.325675 
L 984.191069 485.346125 
L 986.176481 484.134406 
L 987.169187 485.984652 
L 988.161893 485.294893 
L 989.154599 484.246732 
L 991.140011 485.705926 
L 993.125423 485.805537 
L 994.118128 484.037993 
L 995.110834 484.371576 
L 996.10354 485.156547 
L 997.096246 485.050438 
L 998.088952 484.592251 
L 999.081658 486.089704 
L 1000.074364 485.743712 
L 1001.06707 484.047379 
L 1002.059776 484.143149 
L 1003.052482 485.866745 
L 1004.045188 486.246432 
L 1005.037894 484.982617 
L 1007.023305 484.35253 
L 1008.016011 484.423091 
L 1009.008717 486.650814 
L 1010.001423 486.336645 
L 1010.994129 485.53862 
L 1011.986835 486.628105 
L 1013.972247 485.474703 
L 1014.964953 486.526692 
L 1015.957659 485.121486 
L 1016.950365 485.987223 
L 1017.943071 486.696005 
L 1018.935777 486.199854 
L 1019.928482 486.115072 
L 1021.913894 486.963911 
L 1022.9066 484.757428 
L 1023.899306 486.332487 
L 1024.892012 485.296292 
L 1025.884718 485.225726 
L 1026.877424 485.544924 
L 1027.87013 486.52112 
L 1028.862836 487.240671 
L 1029.855542 486.262259 
L 1030.848248 485.903662 
L 1031.840954 486.033467 
L 1033.826365 486.477163 
L 1034.819071 486.123313 
L 1037.797189 487.377511 
L 1038.789895 486.416074 
L 1039.782601 486.210877 
L 1040.775307 488.054213 
L 1041.768013 487.701558 
L 1042.760719 486.814171 
L 1043.753425 487.193508 
L 1044.746131 487.844113 
L 1045.738837 486.483691 
L 1046.731542 486.81299 
L 1047.724248 486.561676 
L 1048.716954 486.80055 
L 1049.70966 487.460873 
L 1050.702366 487.238499 
L 1051.695072 487.476024 
L 1052.687778 486.511473 
L 1053.680484 487.311964 
L 1054.67319 485.99299 
L 1055.665896 487.503307 
L 1056.658602 485.04694 
L 1057.651308 488.17166 
L 1058.644014 486.681464 
L 1059.636719 487.870457 
L 1060.629425 488.104625 
L 1061.622131 487.535142 
L 1062.614837 487.736973 
L 1063.607543 486.846487 
L 1064.600249 487.20261 
L 1065.592955 489.896078 
L 1066.585661 488.467903 
L 1067.578367 486.347565 
L 1068.571073 485.907895 
L 1069.563779 486.25286 
L 1070.556485 486.372883 
L 1071.549191 487.531697 
L 1072.541896 488.031417 
L 1073.534602 487.987864 
L 1074.527308 488.314014 
L 1075.520014 487.427578 
L 1076.51272 488.174949 
L 1077.505426 487.588107 
L 1078.498132 487.824245 
L 1079.490838 487.110366 
L 1080.483544 487.426614 
L 1081.47625 488.32712 
L 1082.468956 487.408569 
L 1084.454368 488.243242 
L 1085.447073 487.341586 
L 1086.439779 488.604481 
L 1087.432485 488.256897 
L 1088.425191 487.739368 
L 1089.417897 487.902366 
L 1090.410603 487.661404 
L 1091.403309 489.154811 
L 1092.396015 488.012111 
L 1093.388721 488.440083 
L 1094.381427 487.97694 
L 1095.374133 488.407388 
L 1096.366839 487.829336 
L 1097.359545 488.122617 
L 1098.35225 487.359543 
L 1099.344956 488.482918 
L 1100.337662 488.531042 
L 1101.330368 487.665457 
L 1102.323074 488.486344 
L 1103.31578 488.037173 
L 1104.308486 487.140665 
L 1105.301192 488.867041 
L 1106.293898 488.01996 
L 1107.286604 489.20936 
L 1108.27931 489.227366 
L 1109.272016 488.33517 
L 1110.264722 488.885176 
L 1111.257428 489.02084 
L 1112.250133 487.787945 
L 1113.242839 489.354537 
L 1114.235545 488.506517 
L 1115.228251 487.932554 
L 1116.220957 488.572032 
L 1117.213663 488.853423 
L 1118.206369 488.836832 
L 1119.199075 488.961054 
L 1120.191781 488.436029 
L 1121.184487 488.291064 
L 1122.177193 487.814187 
L 1123.169899 487.493706 
L 1124.162605 487.67116 
L 1125.15531 488.988492 
L 1126.148016 487.918665 
L 1127.140722 487.329337 
L 1128.133428 487.98488 
L 1129.126134 488.916973 
L 1130.11884 488.726237 
L 1131.111546 489.006288 
L 1132.104252 487.962158 
L 1133.096958 487.926903 
L 1134.089664 489.563771 
L 1135.08237 489.286301 
L 1136.075076 489.196452 
L 1137.067782 490.814958 
L 1138.060487 489.315565 
L 1139.053193 489.4453 
L 1140.045899 490.142079 
L 1141.038605 488.777349 
L 1142.031311 489.643428 
L 1143.024017 489.891082 
L 1144.016723 490.341515 
L 1145.009429 489.137287 
L 1146.002135 488.222558 
L 1146.994841 489.613729 
L 1148.980253 489.93607 
L 1149.972959 490.810175 
L 1150.965664 489.877621 
L 1151.95837 490.343311 
L 1152.951076 489.425696 
L 1153.943782 489.215085 
L 1155.929194 489.669481 
L 1156.9219 488.545226 
L 1157.914606 489.668906 
L 1158.907312 489.008524 
L 1159.900018 489.79705 
L 1160.892724 487.808219 
L 1161.88543 489.669634 
L 1162.878136 488.374607 
L 1163.870841 488.182035 
L 1165.856253 490.750155 
L 1166.848959 488.915913 
L 1167.841665 489.613869 
L 1168.834371 489.947099 
L 1169.827077 488.368449 
L 1170.819783 488.543952 
L 1171.812489 489.383411 
L 1172.805195 490.497151 
L 1173.797901 490.368469 
L 1174.790607 489.239913 
L 1175.783313 490.728556 
L 1176.776019 489.210815 
L 1177.768724 489.596121 
L 1178.76143 488.926246 
L 1179.754136 489.017221 
L 1180.746842 489.800491 
L 1181.739548 489.00455 
L 1182.732254 490.249119 
L 1183.72496 489.625052 
L 1184.717666 489.461996 
L 1185.710372 488.503492 
L 1186.703078 489.733411 
L 1187.695784 489.232397 
L 1188.68849 489.01805 
L 1189.681196 489.673875 
L 1190.673901 489.781006 
L 1191.666607 489.252551 
L 1192.659313 489.677581 
L 1193.652019 489.798991 
L 1194.644725 489.71311 
L 1195.637431 488.907135 
L 1196.630137 491.058228 
L 1197.622843 490.48169 
L 1199.608255 488.785445 
L 1200.600961 490.719346 
L 1201.593667 488.826066 
L 1202.586373 489.531261 
L 1203.579078 490.457786 
L 1204.571784 491.556408 
L 1205.56449 492.48 
L 1206.557196 489.364598 
L 1207.549902 489.17685 
L 1208.542608 489.298637 
L 1209.535314 489.767717 
L 1210.52802 491.00385 
L 1211.520726 490.17533 
L 1212.513432 490.567843 
L 1213.506138 488.511384 
L 1215.49155 491.580373 
L 1216.484255 490.26943 
L 1217.476961 491.076652 
L 1218.469667 488.870205 
L 1219.462373 490.812712 
L 1220.455079 490.598637 
L 1221.447785 489.035496 
L 1223.433197 490.9326 
L 1225.418609 489.763992 
L 1226.411315 490.110132 
L 1227.404021 488.890332 
L 1228.396727 489.883127 
L 1229.389432 490.002763 
L 1230.382138 490.376284 
L 1231.374844 489.313312 
L 1232.36755 490.005457 
L 1233.360256 490.173519 
L 1234.352962 490.054871 
L 1235.345668 489.247902 
L 1236.338374 489.449672 
L 1237.33108 490.414137 
L 1238.323786 488.654183 
L 1239.316492 489.85132 
L 1240.309198 489.394016 
L 1241.301904 489.961012 
L 1242.29461 490.235283 
L 1243.287315 488.737229 
L 1244.280021 490.188392 
L 1245.272727 490.863946 
L 1245.272727 490.863946 
" clip-path="url(#pc3addfd75f)" style="fill: none; stroke: #1f77b4; stroke-width: 1.5; stroke-linecap: square"/>
   </g>
   <g id="patch_3">
    <path d="M 180 512.64 
L 180 69.12 
" style="fill: none; stroke: #000000; stroke-width: 0.8; stroke-linejoin: miter; stroke-linecap: square"/>
   </g>
   <g id="patch_4">
    <path d="M 1296 512.64 
L 1296 69.12 
" style="fill: none; stroke: #000000; stroke-width: 0.8; stroke-linejoin: miter; stroke-linecap: square"/>
   </g>
   <g id="patch_5">
    <path d="M 180 512.64 
L 1296 512.64 
" style="fill: none; stroke: #000000; stroke-width: 0.8; stroke-linejoin: miter; stroke-linecap: square"/>
   </g>
   <g id="patch_6">
    <path d="M 180 69.12 
L 1296 69.12 
" style="fill: none; stroke: #000000; stroke-width: 0.8; stroke-linejoin: miter; stroke-linecap: square"/>
   </g>
   <g id="text_14">
    <!-- source21-receiver19 -->
    <g transform="translate(532.175 60.80125) scale(0.4 -0.4)">
     <defs>
      <path id="DejaVuSans-73" d="M 2834 3397 
L 2834 2853 
Q 2591 2978 2328 3040 
Q 2066 3103 1784 3103 
Q 1356 3103 1142 2972 
Q 928 2841 928 2578 
Q 928 2378 1081 2264 
Q 1234 2150 1697 2047 
L 1894 2003 
Q 2506 1872 2764 1633 
Q 3022 1394 3022 966 
Q 3022 478 2636 193 
Q 2250 -91 1575 -91 
Q 1294 -91 989 -36 
Q 684 19 347 128 
L 347 722 
Q 666 556 975 473 
Q 1284 391 1588 391 
Q 1994 391 2212 530 
Q 2431 669 2431 922 
Q 2431 1156 2273 1281 
Q 2116 1406 1581 1522 
L 1381 1569 
Q 847 1681 609 1914 
Q 372 2147 372 2553 
Q 372 3047 722 3315 
Q 1072 3584 1716 3584 
Q 2034 3584 2315 3537 
Q 2597 3491 2834 3397 
z
" transform="scale(0.015625)"/>
      <path id="DejaVuSans-6f" d="M 1959 3097 
Q 1497 3097 1228 2736 
Q 959 2375 959 1747 
Q 959 1119 1226 758 
Q 1494 397 1959 397 
Q 2419 397 2687 759 
Q 2956 1122 2956 1747 
Q 2956 2369 2687 2733 
Q 2419 3097 1959 3097 
z
M 1959 3584 
Q 2709 3584 3137 3096 
Q 3566 2609 3566 1747 
Q 3566 888 3137 398 
Q 2709 -91 1959 -91 
Q 1206 -91 779 398 
Q 353 888 353 1747 
Q 353 2609 779 3096 
Q 1206 3584 1959 3584 
z
" transform="scale(0.015625)"/>
      <path id="DejaVuSans-75" d="M 544 1381 
L 544 3500 
L 1119 3500 
L 1119 1403 
Q 1119 906 1312 657 
Q 1506 409 1894 409 
Q 2359 409 2629 706 
Q 2900 1003 2900 1516 
L 2900 3500 
L 3475 3500 
L 3475 0 
L 2900 0 
L 2900 538 
Q 2691 219 2414 64 
Q 2138 -91 1772 -91 
Q 1169 -91 856 284 
Q 544 659 544 1381 
z
M 1991 3584 
L 1991 3584 
z
" transform="scale(0.015625)"/>
      <path id="DejaVuSans-72" d="M 2631 2963 
Q 2534 3019 2420 3045 
Q 2306 3072 2169 3072 
Q 1681 3072 1420 2755 
Q 1159 2438 1159 1844 
L 1159 0 
L 581 0 
L 581 3500 
L 1159 3500 
L 1159 2956 
Q 1341 3275 1631 3429 
Q 1922 3584 2338 3584 
Q 2397 3584 2469 3576 
Q 2541 3569 2628 3553 
L 2631 2963 
z
" transform="scale(0.015625)"/>
      <path id="DejaVuSans-63" d="M 3122 3366 
L 3122 2828 
Q 2878 2963 2633 3030 
Q 2388 3097 2138 3097 
Q 1578 3097 1268 2742 
Q 959 2388 959 1747 
Q 959 1106 1268 751 
Q 1578 397 2138 397 
Q 2388 397 2633 464 
Q 2878 531 3122 666 
L 3122 134 
Q 2881 22 2623 -34 
Q 2366 -91 2075 -91 
Q 1284 -91 818 406 
Q 353 903 353 1747 
Q 353 2603 823 3093 
Q 1294 3584 2113 3584 
Q 2378 3584 2631 3529 
Q 2884 3475 3122 3366 
z
" transform="scale(0.015625)"/>
      <path id="DejaVuSans-65" d="M 3597 1894 
L 3597 1613 
L 953 1613 
Q 991 1019 1311 708 
Q 1631 397 2203 397 
Q 2534 397 2845 478 
Q 3156 559 3463 722 
L 3463 178 
Q 3153 47 2828 -22 
Q 2503 -91 2169 -91 
Q 1331 -91 842 396 
Q 353 884 353 1716 
Q 353 2575 817 3079 
Q 1281 3584 2069 3584 
Q 2775 3584 3186 3129 
Q 3597 2675 3597 1894 
z
M 3022 2063 
Q 3016 2534 2758 2815 
Q 2500 3097 2075 3097 
Q 1594 3097 1305 2825 
Q 1016 2553 972 2059 
L 3022 2063 
z
" transform="scale(0.015625)"/>
      <path id="DejaVuSans-2d" d="M 313 2009 
L 1997 2009 
L 1997 1497 
L 313 1497 
L 313 2009 
z
" transform="scale(0.015625)"/>
      <path id="DejaVuSans-69" d="M 603 3500 
L 1178 3500 
L 1178 0 
L 603 0 
L 603 3500 
z
M 603 4863 
L 1178 4863 
L 1178 4134 
L 603 4134 
L 603 4863 
z
" transform="scale(0.015625)"/>
      <path id="DejaVuSans-76" d="M 191 3500 
L 800 3500 
L 1894 563 
L 2988 3500 
L 3597 3500 
L 2284 0 
L 1503 0 
L 191 3500 
z
" transform="scale(0.015625)"/>
      <path id="DejaVuSans-39" d="M 703 97 
L 703 672 
Q 941 559 1184 500 
Q 1428 441 1663 441 
Q 2288 441 2617 861 
Q 2947 1281 2994 2138 
Q 2813 1869 2534 1725 
Q 2256 1581 1919 1581 
Q 1219 1581 811 2004 
Q 403 2428 403 3163 
Q 403 3881 828 4315 
Q 1253 4750 1959 4750 
Q 2769 4750 3195 4129 
Q 3622 3509 3622 2328 
Q 3622 1225 3098 567 
Q 2575 -91 1691 -91 
Q 1453 -91 1209 -44 
Q 966 3 703 97 
z
M 1959 2075 
Q 2384 2075 2632 2365 
Q 2881 2656 2881 3163 
Q 2881 3666 2632 3958 
Q 2384 4250 1959 4250 
Q 1534 4250 1286 3958 
Q 1038 3666 1038 3163 
Q 1038 2656 1286 2365 
Q 1534 2075 1959 2075 
z
" transform="scale(0.015625)"/>
     </defs>
     <use xlink:href="#DejaVuSans-73"/>
     <use xlink:href="#DejaVuSans-6f" x="52.099609"/>
     <use xlink:href="#DejaVuSans-75" x="113.28125"/>
     <use xlink:href="#DejaVuSans-72" x="176.660156"/>
     <use xlink:href="#DejaVuSans-63" x="215.523438"/>
     <use xlink:href="#DejaVuSans-65" x="270.503906"/>
     <use xlink:href="#DejaVuSans-32" x="332.027344"/>
     <use xlink:href="#DejaVuSans-31" x="395.650391"/>
     <use xlink:href="#DejaVuSans-2d" x="459.273438"/>
     <use xlink:href="#DejaVuSans-72" x="495.357422"/>
     <use xlink:href="#DejaVuSans-65" x="534.220703"/>
     <use xlink:href="#DejaVuSans-63" x="595.744141"/>
     <use xlink:href="#DejaVuSans-65" x="650.724609"/>
     <use xlink:href="#DejaVuSans-69" x="712.248047"/>
     <use xlink:href="#DejaVuSans-76" x="740.03125"/>
     <use xlink:href="#DejaVuSans-65" x="799.210938"/>
     <use xlink:href="#DejaVuSans-72" x="860.734375"/>
     <use xlink:href="#DejaVuSans-31" x="901.847656"/>
     <use xlink:href="#DejaVuSans-39" x="965.470703"/>
    </g>
   </g>
  </g>
 </g>
 <defs>
  <clipPath id="pc3addfd75f">
   <rect x="180" y="69.12" width="1116" height="443.52"/>
  </clipPath>
 </defs>
</svg>
