<?xml version="1.0" encoding="utf-8" standalone="no"?>
<!DOCTYPE svg PUBLIC "-//W3C//DTD SVG 1.1//EN"
  "http://www.w3.org/Graphics/SVG/1.1/DTD/svg11.dtd">
<svg xmlns:xlink="http://www.w3.org/1999/xlink" width="1440pt" height="576pt" viewBox="0 0 1440 576" xmlns="http://www.w3.org/2000/svg" version="1.1">
 <metadata>
  <rdf:RDF xmlns:dc="http://purl.org/dc/elements/1.1/" xmlns:cc="http://creativecommons.org/ns#" xmlns:rdf="http://www.w3.org/1999/02/22-rdf-syntax-ns#">
   <cc:Work>
    <dc:type rdf:resource="http://purl.org/dc/dcmitype/StillImage"/>
    <dc:date>2024-05-22T04:50:20.343991</dc:date>
    <dc:format>image/svg+xml</dc:format>
    <dc:creator>
     <cc:Agent>
      <dc:title>Matplotlib v3.8.3, https://matplotlib.org/</dc:title>
     </cc:Agent>
    </dc:creator>
   </cc:Work>
  </rdf:RDF>
 </metadata>
 <defs>
  <style type="text/css">*{stroke-linejoin: round; stroke-linecap: butt}</style>
 </defs>
 <g id="figure_1">
  <g id="patch_1">
   <path d="M 0 576 
L 1440 576 
L 1440 0 
L 0 0 
z
" style="fill: #ffffff"/>
  </g>
  <g id="axes_1">
   <g id="patch_2">
    <path d="M 180 512.64 
L 1296 512.64 
L 1296 69.12 
L 180 69.12 
z
" style="fill: #ffffff"/>
   </g>
   <g id="matplotlib.axis_1">
    <g id="xtick_1">
     <g id="line2d_1">
      <defs>
       <path id="mb1f2db0f87" d="M 0 0 
L 0 3.5 
" style="stroke: #000000; stroke-width: 0.8"/>
      </defs>
      <g>
       <use xlink:href="#mb1f2db0f87" x="229.734567" y="512.64" style="stroke: #000000; stroke-width: 0.8"/>
      </g>
     </g>
     <g id="text_1">
      <!-- 0 -->
      <g transform="translate(226.553317 527.238438) scale(0.1 -0.1)">
       <defs>
        <path id="DejaVuSans-30" d="M 2034 4250 
Q 1547 4250 1301 3770 
Q 1056 3291 1056 2328 
Q 1056 1369 1301 889 
Q 1547 409 2034 409 
Q 2525 409 2770 889 
Q 3016 1369 3016 2328 
Q 3016 3291 2770 3770 
Q 2525 4250 2034 4250 
z
M 2034 4750 
Q 2819 4750 3233 4129 
Q 3647 3509 3647 2328 
Q 3647 1150 3233 529 
Q 2819 -91 2034 -91 
Q 1250 -91 836 529 
Q 422 1150 422 2328 
Q 422 3509 836 4129 
Q 1250 4750 2034 4750 
z
" transform="scale(0.015625)"/>
       </defs>
       <use xlink:href="#DejaVuSans-30"/>
      </g>
     </g>
    </g>
    <g id="xtick_2">
     <g id="line2d_2">
      <g>
       <use xlink:href="#mb1f2db0f87" x="433.04074" y="512.64" style="stroke: #000000; stroke-width: 0.8"/>
      </g>
     </g>
     <g id="text_2">
      <!-- 500 -->
      <g transform="translate(423.49699 527.238438) scale(0.1 -0.1)">
       <defs>
        <path id="DejaVuSans-35" d="M 691 4666 
L 3169 4666 
L 3169 4134 
L 1269 4134 
L 1269 2991 
Q 1406 3038 1543 3061 
Q 1681 3084 1819 3084 
Q 2600 3084 3056 2656 
Q 3513 2228 3513 1497 
Q 3513 744 3044 326 
Q 2575 -91 1722 -91 
Q 1428 -91 1123 -41 
Q 819 9 494 109 
L 494 744 
Q 775 591 1075 516 
Q 1375 441 1709 441 
Q 2250 441 2565 725 
Q 2881 1009 2881 1497 
Q 2881 1984 2565 2268 
Q 2250 2553 1709 2553 
Q 1456 2553 1204 2497 
Q 953 2441 691 2322 
L 691 4666 
z
" transform="scale(0.015625)"/>
       </defs>
       <use xlink:href="#DejaVuSans-35"/>
       <use xlink:href="#DejaVuSans-30" x="63.623047"/>
       <use xlink:href="#DejaVuSans-30" x="127.246094"/>
      </g>
     </g>
    </g>
    <g id="xtick_3">
     <g id="line2d_3">
      <g>
       <use xlink:href="#mb1f2db0f87" x="636.346913" y="512.64" style="stroke: #000000; stroke-width: 0.8"/>
      </g>
     </g>
     <g id="text_3">
      <!-- 1000 -->
      <g transform="translate(623.621913 527.238438) scale(0.1 -0.1)">
       <defs>
        <path id="DejaVuSans-31" d="M 794 531 
L 1825 531 
L 1825 4091 
L 703 3866 
L 703 4441 
L 1819 4666 
L 2450 4666 
L 2450 531 
L 3481 531 
L 3481 0 
L 794 0 
L 794 531 
z
" transform="scale(0.015625)"/>
       </defs>
       <use xlink:href="#DejaVuSans-31"/>
       <use xlink:href="#DejaVuSans-30" x="63.623047"/>
       <use xlink:href="#DejaVuSans-30" x="127.246094"/>
       <use xlink:href="#DejaVuSans-30" x="190.869141"/>
      </g>
     </g>
    </g>
    <g id="xtick_4">
     <g id="line2d_4">
      <g>
       <use xlink:href="#mb1f2db0f87" x="839.653087" y="512.64" style="stroke: #000000; stroke-width: 0.8"/>
      </g>
     </g>
     <g id="text_4">
      <!-- 1500 -->
      <g transform="translate(826.928087 527.238438) scale(0.1 -0.1)">
       <use xlink:href="#DejaVuSans-31"/>
       <use xlink:href="#DejaVuSans-35" x="63.623047"/>
       <use xlink:href="#DejaVuSans-30" x="127.246094"/>
       <use xlink:href="#DejaVuSans-30" x="190.869141"/>
      </g>
     </g>
    </g>
    <g id="xtick_5">
     <g id="line2d_5">
      <g>
       <use xlink:href="#mb1f2db0f87" x="1042.95926" y="512.64" style="stroke: #000000; stroke-width: 0.8"/>
      </g>
     </g>
     <g id="text_5">
      <!-- 2000 -->
      <g transform="translate(1030.23426 527.238438) scale(0.1 -0.1)">
       <defs>
        <path id="DejaVuSans-32" d="M 1228 531 
L 3431 531 
L 3431 0 
L 469 0 
L 469 531 
Q 828 903 1448 1529 
Q 2069 2156 2228 2338 
Q 2531 2678 2651 2914 
Q 2772 3150 2772 3378 
Q 2772 3750 2511 3984 
Q 2250 4219 1831 4219 
Q 1534 4219 1204 4116 
Q 875 4013 500 3803 
L 500 4441 
Q 881 4594 1212 4672 
Q 1544 4750 1819 4750 
Q 2544 4750 2975 4387 
Q 3406 4025 3406 3419 
Q 3406 3131 3298 2873 
Q 3191 2616 2906 2266 
Q 2828 2175 2409 1742 
Q 1991 1309 1228 531 
z
" transform="scale(0.015625)"/>
       </defs>
       <use xlink:href="#DejaVuSans-32"/>
       <use xlink:href="#DejaVuSans-30" x="63.623047"/>
       <use xlink:href="#DejaVuSans-30" x="127.246094"/>
       <use xlink:href="#DejaVuSans-30" x="190.869141"/>
      </g>
     </g>
    </g>
    <g id="xtick_6">
     <g id="line2d_6">
      <g>
       <use xlink:href="#mb1f2db0f87" x="1246.265433" y="512.64" style="stroke: #000000; stroke-width: 0.8"/>
      </g>
     </g>
     <g id="text_6">
      <!-- 2500 -->
      <g transform="translate(1233.540433 527.238438) scale(0.1 -0.1)">
       <use xlink:href="#DejaVuSans-32"/>
       <use xlink:href="#DejaVuSans-35" x="63.623047"/>
       <use xlink:href="#DejaVuSans-30" x="127.246094"/>
       <use xlink:href="#DejaVuSans-30" x="190.869141"/>
      </g>
     </g>
    </g>
   </g>
   <g id="matplotlib.axis_2">
    <g id="ytick_1">
     <g id="line2d_7">
      <defs>
       <path id="m36ed68650f" d="M 0 0 
L -3.5 0 
" style="stroke: #000000; stroke-width: 0.8"/>
      </defs>
      <g>
       <use xlink:href="#m36ed68650f" x="180" y="483.527686" style="stroke: #000000; stroke-width: 0.8"/>
      </g>
     </g>
     <g id="text_7">
      <!-- −2 -->
      <g transform="translate(158.257812 487.326905) scale(0.1 -0.1)">
       <defs>
        <path id="DejaVuSans-2212" d="M 678 2272 
L 4684 2272 
L 4684 1741 
L 678 1741 
L 678 2272 
z
" transform="scale(0.015625)"/>
       </defs>
       <use xlink:href="#DejaVuSans-2212"/>
       <use xlink:href="#DejaVuSans-32" x="83.789062"/>
      </g>
     </g>
    </g>
    <g id="ytick_2">
     <g id="line2d_8">
      <g>
       <use xlink:href="#m36ed68650f" x="180" y="428.953773" style="stroke: #000000; stroke-width: 0.8"/>
      </g>
     </g>
     <g id="text_8">
      <!-- −1 -->
      <g transform="translate(158.257812 432.752992) scale(0.1 -0.1)">
       <use xlink:href="#DejaVuSans-2212"/>
       <use xlink:href="#DejaVuSans-31" x="83.789062"/>
      </g>
     </g>
    </g>
    <g id="ytick_3">
     <g id="line2d_9">
      <g>
       <use xlink:href="#m36ed68650f" x="180" y="374.37986" style="stroke: #000000; stroke-width: 0.8"/>
      </g>
     </g>
     <g id="text_9">
      <!-- 0 -->
      <g transform="translate(166.6375 378.179079) scale(0.1 -0.1)">
       <use xlink:href="#DejaVuSans-30"/>
      </g>
     </g>
    </g>
    <g id="ytick_4">
     <g id="line2d_10">
      <g>
       <use xlink:href="#m36ed68650f" x="180" y="319.805947" style="stroke: #000000; stroke-width: 0.8"/>
      </g>
     </g>
     <g id="text_10">
      <!-- 1 -->
      <g transform="translate(166.6375 323.605166) scale(0.1 -0.1)">
       <use xlink:href="#DejaVuSans-31"/>
      </g>
     </g>
    </g>
    <g id="ytick_5">
     <g id="line2d_11">
      <g>
       <use xlink:href="#m36ed68650f" x="180" y="265.232034" style="stroke: #000000; stroke-width: 0.8"/>
      </g>
     </g>
     <g id="text_11">
      <!-- 2 -->
      <g transform="translate(166.6375 269.031253) scale(0.1 -0.1)">
       <use xlink:href="#DejaVuSans-32"/>
      </g>
     </g>
    </g>
    <g id="ytick_6">
     <g id="line2d_12">
      <g>
       <use xlink:href="#m36ed68650f" x="180" y="210.658121" style="stroke: #000000; stroke-width: 0.8"/>
      </g>
     </g>
     <g id="text_12">
      <!-- 3 -->
      <g transform="translate(166.6375 214.45734) scale(0.1 -0.1)">
       <defs>
        <path id="DejaVuSans-33" d="M 2597 2516 
Q 3050 2419 3304 2112 
Q 3559 1806 3559 1356 
Q 3559 666 3084 287 
Q 2609 -91 1734 -91 
Q 1441 -91 1130 -33 
Q 819 25 488 141 
L 488 750 
Q 750 597 1062 519 
Q 1375 441 1716 441 
Q 2309 441 2620 675 
Q 2931 909 2931 1356 
Q 2931 1769 2642 2001 
Q 2353 2234 1838 2234 
L 1294 2234 
L 1294 2753 
L 1863 2753 
Q 2328 2753 2575 2939 
Q 2822 3125 2822 3475 
Q 2822 3834 2567 4026 
Q 2313 4219 1838 4219 
Q 1578 4219 1281 4162 
Q 984 4106 628 3988 
L 628 4550 
Q 988 4650 1302 4700 
Q 1616 4750 1894 4750 
Q 2613 4750 3031 4423 
Q 3450 4097 3450 3541 
Q 3450 3153 3228 2886 
Q 3006 2619 2597 2516 
z
" transform="scale(0.015625)"/>
       </defs>
       <use xlink:href="#DejaVuSans-33"/>
      </g>
     </g>
    </g>
    <g id="ytick_7">
     <g id="line2d_13">
      <g>
       <use xlink:href="#m36ed68650f" x="180" y="156.084208" style="stroke: #000000; stroke-width: 0.8"/>
      </g>
     </g>
     <g id="text_13">
      <!-- 4 -->
      <g transform="translate(166.6375 159.883427) scale(0.1 -0.1)">
       <defs>
        <path id="DejaVuSans-34" d="M 2419 4116 
L 825 1625 
L 2419 1625 
L 2419 4116 
z
M 2253 4666 
L 3047 4666 
L 3047 1625 
L 3713 1625 
L 3713 1100 
L 3047 1100 
L 3047 0 
L 2419 0 
L 2419 1100 
L 313 1100 
L 313 1709 
L 2253 4666 
z
" transform="scale(0.015625)"/>
       </defs>
       <use xlink:href="#DejaVuSans-34"/>
      </g>
     </g>
    </g>
    <g id="ytick_8">
     <g id="line2d_14">
      <g>
       <use xlink:href="#m36ed68650f" x="180" y="101.510295" style="stroke: #000000; stroke-width: 0.8"/>
      </g>
     </g>
     <g id="text_14">
      <!-- 5 -->
      <g transform="translate(166.6375 105.309514) scale(0.1 -0.1)">
       <use xlink:href="#DejaVuSans-35"/>
      </g>
     </g>
    </g>
   </g>
   <g id="line2d_15">
    <path d="M 230.727273 359.850467 
L 231.719979 334.190545 
L 232.712685 325.918704 
L 233.70539 331.01135 
L 234.698096 350.974064 
L 235.690802 382.568051 
L 236.683508 361.20719 
L 237.676214 335.40624 
L 238.66892 325.739495 
L 239.661626 328.837703 
L 241.647038 360.126822 
L 242.639744 345.301299 
L 243.63245 326.375186 
L 244.625156 318.439593 
L 245.617862 320.78292 
L 247.603273 341.562277 
L 248.595979 346.302029 
L 249.588685 353.369244 
L 250.581391 336.212365 
L 251.574097 293.720719 
L 252.566803 262.198803 
L 253.559509 242.122503 
L 254.552215 231.47109 
L 255.544921 227.350456 
L 256.537627 226.573703 
L 257.530333 224.169555 
L 258.523039 220.438382 
L 259.515745 220.47885 
L 260.50845 228.054992 
L 261.501156 238.33535 
L 262.493862 233.999291 
L 263.486568 221.288042 
L 264.479274 218.291781 
L 265.47198 227.883322 
L 266.464686 238.591939 
L 268.450098 222.690399 
L 269.442804 232.336735 
L 270.43551 270.752909 
L 271.428216 267.821113 
L 272.420922 241.175212 
L 273.413627 256.584826 
L 274.406333 319.07065 
L 275.399039 213.615612 
L 276.391745 184.044982 
L 277.384451 178.133528 
L 278.377157 198.941193 
L 279.369863 262.464897 
L 280.362569 165.42972 
L 281.355275 126.762489 
L 282.347981 105.401069 
L 283.340687 93.523716 
L 284.333393 89.28 
L 285.326099 91.76091 
L 286.318804 101.068917 
L 288.304216 130.713639 
L 289.296922 137.314805 
L 290.289628 141.871926 
L 291.282334 155.752757 
L 292.27504 188.682934 
L 293.267746 279.321455 
L 294.260452 229.138294 
L 295.253158 213.405894 
L 296.245864 233.112597 
L 297.23857 304.217469 
L 298.231276 276.376638 
L 299.223981 263.006661 
L 300.216687 297.646166 
L 301.209393 282.738758 
L 302.202099 250.890374 
L 303.194805 250.713893 
L 305.180217 301.417533 
L 306.172923 278.737401 
L 307.165629 283.341376 
L 308.158335 318.867305 
L 309.151041 301.115582 
L 310.143747 276.850397 
L 311.136453 278.880296 
L 312.129159 301.303567 
L 313.121864 319.516931 
L 314.11457 308.581736 
L 315.107276 304.478987 
L 316.099982 299.339059 
L 317.092688 295.142354 
L 318.085394 301.373737 
L 319.0781 324.97894 
L 320.070806 326.80995 
L 321.063512 304.885022 
L 322.056218 300.948013 
L 324.04163 319.671572 
L 325.034336 322.059831 
L 326.027041 320.433321 
L 327.019747 316.079309 
L 328.012453 310.87655 
L 329.005159 316.858812 
L 329.997865 334.305452 
L 330.990571 333.018711 
L 331.983277 320.39879 
L 332.975983 315.725861 
L 334.961395 326.46665 
L 335.954101 333.807684 
L 336.946807 341.982684 
L 337.939513 332.957469 
L 338.932218 316.219607 
L 339.924924 314.233866 
L 340.91763 327.050371 
L 341.910336 348.261247 
L 342.903042 347.343139 
L 343.895748 335.195108 
L 344.888454 328.113572 
L 345.88116 322.734074 
L 346.873866 324.544956 
L 347.866572 339.202785 
L 348.859278 358.176718 
L 349.851984 346.183751 
L 350.84469 329.104677 
L 351.837395 326.840981 
L 352.830101 335.664229 
L 353.822807 346.271927 
L 354.815513 354.025366 
L 355.808219 350.035742 
L 356.800925 333.274671 
L 357.793631 328.354911 
L 358.786337 337.45734 
L 359.779043 365.499839 
L 360.771749 362.28228 
L 361.764455 333.607426 
L 362.757161 324.016829 
L 363.749867 332.596952 
L 364.742572 355.809147 
L 365.735278 383.041497 
L 366.727984 353.177141 
L 367.72069 330.975683 
L 368.713396 325.027981 
L 369.706102 333.493567 
L 370.698808 362.598768 
L 371.691514 404.278727 
L 372.68422 352.758254 
L 373.676926 329.094224 
L 374.669632 326.022524 
L 375.662338 339.063197 
L 376.655044 377.194843 
L 377.64775 392.74962 
L 378.640455 346.285853 
L 379.633161 333.100687 
L 380.625867 332.478977 
L 381.618573 354.815596 
L 382.611279 399.753167 
L 383.603985 367.361133 
L 384.596691 338.604374 
L 385.589397 334.701748 
L 386.582103 344.257757 
L 387.574809 381.360233 
L 388.567515 395.722317 
L 389.560221 351.139922 
L 390.552927 334.160896 
L 391.545632 332.689033 
L 392.538338 351.222548 
L 393.531044 412.306786 
L 394.52375 386.430714 
L 395.516456 344.798681 
L 396.509162 332.321347 
L 397.501868 335.856406 
L 398.494574 358.917381 
L 399.48728 421.213768 
L 400.479986 379.126182 
L 401.472692 348.283408 
L 402.465398 339.207434 
L 403.458104 346.070775 
L 405.443515 400.974619 
L 406.436221 369.803953 
L 407.428927 352.715257 
L 408.421633 350.160787 
L 409.414339 364.861732 
L 410.407045 382.422643 
L 411.399751 379.828528 
L 412.392457 363.199594 
L 413.385163 352.026224 
L 414.377869 355.904999 
L 415.370575 372.618045 
L 416.363281 391.526448 
L 417.355986 380.083066 
L 418.348692 357.442783 
L 419.341398 352.906254 
L 420.334104 358.440711 
L 421.32681 376.236089 
L 422.319516 391.354867 
L 423.312222 387.353822 
L 424.304928 363.780977 
L 425.297634 356.549761 
L 426.29034 357.085875 
L 427.283046 366.322308 
L 428.275752 396.858752 
L 429.268458 397.247168 
L 430.261163 375.399272 
L 431.253869 361.202648 
L 432.246575 358.012849 
L 433.239281 367.467556 
L 434.231987 385.1603 
L 435.224693 399.474794 
L 436.217399 377.613401 
L 437.210105 363.869788 
L 438.202811 362.061488 
L 439.195517 369.433179 
L 440.188223 396.311248 
L 441.180929 396.313211 
L 442.173635 368.749048 
L 443.166341 360.395246 
L 444.159046 365.360792 
L 445.151752 386.093165 
L 446.144458 424.119284 
L 447.137164 380.423619 
L 448.12987 355.919194 
L 449.122576 352.623761 
L 450.115282 365.95272 
L 451.107988 406.714309 
L 452.100694 424.236991 
L 453.0934 369.319298 
L 454.086106 350.406137 
L 455.078812 348.572473 
L 456.071518 366.523583 
L 457.064223 421.730689 
L 458.056929 418.598763 
L 459.049635 365.185322 
L 460.042341 351.292531 
L 461.035047 355.059529 
L 462.027753 376.285173 
L 463.020459 443.106018 
L 464.013165 392.186221 
L 465.005871 363.788931 
L 465.998577 356.512222 
L 466.991283 368.823993 
L 467.983989 407.874584 
L 468.976695 421.454013 
L 469.9694 372.16361 
L 470.962106 356.752528 
L 471.954812 358.526349 
L 472.947518 381.821872 
L 473.940224 452.897323 
L 474.93293 392.06911 
L 475.925636 361.461153 
L 476.918342 350.939846 
L 477.911048 361.49744 
L 478.903754 398.50218 
L 479.89646 492.48 
L 480.889166 383.8301 
L 481.881872 359.793669 
L 482.874577 354.971022 
L 483.867283 367.575688 
L 485.852695 444.280574 
L 486.845401 386.310755 
L 487.838107 366.672488 
L 488.830813 367.231741 
L 489.823519 384.157417 
L 490.816225 412.256171 
L 491.808931 403.842923 
L 492.801637 382.55421 
L 493.794343 372.296223 
L 494.787049 383.684455 
L 495.779754 404.482271 
L 496.77246 410.824229 
L 497.765166 387.246959 
L 498.757872 373.141013 
L 499.750578 375.156947 
L 500.743284 389.571433 
L 501.73599 418.352226 
L 502.728696 410.672581 
L 503.721402 387.853168 
L 504.714108 374.095627 
L 505.706814 373.814522 
L 506.69952 386.114596 
L 507.692226 407.535113 
L 508.684932 417.538515 
L 509.677637 399.081387 
L 510.670343 382.745891 
L 511.663049 379.470623 
L 512.655755 382.76971 
L 513.648461 392.332389 
L 514.641167 407.2812 
L 515.633873 411.239512 
L 516.626579 398.685933 
L 517.619285 382.625383 
L 518.611991 378.536752 
L 519.604697 389.685339 
L 520.597403 406.96773 
L 521.590109 410.986487 
L 523.57552 382.178684 
L 524.568226 385.316059 
L 525.560932 399.87997 
L 526.553638 409.018876 
L 527.546344 397.405579 
L 528.53905 387.160559 
L 529.531756 385.050373 
L 530.524462 391.450135 
L 531.517168 428.977639 
L 532.509874 421.4526 
L 533.50258 383.330067 
L 534.495286 372.184763 
L 535.487991 374.055072 
L 536.480697 393.076973 
L 537.473403 454.377631 
L 538.466109 420.974574 
L 539.458815 377.797724 
L 540.451521 369.526329 
L 541.444227 371.983925 
L 542.436933 396.248657 
L 543.429639 457.690858 
L 544.422345 406.408737 
L 545.415051 382.801269 
L 546.407757 372.01876 
L 547.400463 381.576765 
L 548.393168 419.222653 
L 549.385874 428.953781 
L 550.37858 392.534373 
L 551.371286 382.036437 
L 552.363992 380.402226 
L 553.356698 406.474099 
L 554.349404 443.206425 
L 555.34211 402.146138 
L 556.334816 380.621258 
L 557.327522 374.638588 
L 558.320228 384.4934 
L 559.312934 430.366679 
L 560.30564 446.150475 
L 561.298345 393.664767 
L 562.291051 372.787561 
L 563.283757 373.946234 
L 564.276463 388.959317 
L 565.269169 436.864752 
L 566.261875 431.682977 
L 567.254581 389.249203 
L 568.247287 377.726404 
L 569.239993 377.927149 
L 570.232699 398.325037 
L 571.225405 437.92286 
L 572.218111 424.239148 
L 573.210817 396.36879 
L 574.203523 387.913481 
L 575.196228 399.515792 
L 576.188934 414.327248 
L 577.18164 420.545974 
L 578.174346 406.091608 
L 579.167052 387.290708 
L 580.159758 396.149123 
L 581.152464 416.412297 
L 582.14517 427.276759 
L 584.130582 389.935964 
L 585.123288 389.971137 
L 586.115994 396.195261 
L 587.1087 421.568339 
L 588.101405 438.43399 
L 589.094111 411.923564 
L 590.086817 393.968962 
L 591.079523 388.810773 
L 592.072229 396.740502 
L 593.064935 414.214512 
L 594.057641 421.27012 
L 595.050347 418.514772 
L 596.043053 403.182664 
L 597.035759 399.174979 
L 598.028465 401.055504 
L 599.021171 404.058299 
L 600.013877 408.807742 
L 601.999288 416.785831 
L 602.991994 413.009994 
L 603.9847 405.456674 
L 604.977406 401.719165 
L 605.970112 401.636746 
L 606.962818 409.416652 
L 607.955524 413.281989 
L 608.94823 413.096695 
L 609.940936 410.622557 
L 610.933642 407.511511 
L 611.926348 409.307218 
L 612.919054 407.41245 
L 613.911759 406.08594 
L 614.904465 402.930875 
L 615.897171 407.312085 
L 616.889877 421.084183 
L 617.882583 426.599141 
L 618.875289 415.643373 
L 619.867995 399.51692 
L 620.860701 395.022365 
L 621.853407 399.146684 
L 622.846113 417.621587 
L 623.838819 444.726287 
L 625.824231 399.677729 
L 626.816936 393.010385 
L 627.809642 397.008509 
L 629.795054 438.021618 
L 630.78776 420.377786 
L 631.780466 404.953229 
L 632.773172 400.945088 
L 633.765878 405.570281 
L 634.758584 417.682501 
L 635.75129 418.828406 
L 636.743996 410.355735 
L 637.736702 407.491857 
L 638.729408 412.747845 
L 639.722114 424.095963 
L 640.714819 420.24018 
L 641.707525 405.68356 
L 642.700231 399.369245 
L 643.692937 400.839662 
L 644.685643 417.539358 
L 645.678349 440.463387 
L 646.671055 427.057708 
L 647.663761 404.91041 
L 648.656467 394.719412 
L 649.649173 398.949874 
L 650.641879 415.850333 
L 651.634585 439.306381 
L 652.627291 430.062926 
L 653.619996 410.601567 
L 654.612702 402.10755 
L 655.605408 404.220964 
L 656.598114 413.815535 
L 657.59082 422.18792 
L 658.583526 421.408057 
L 659.576232 415.485468 
L 660.568938 415.527361 
L 661.561644 418.564749 
L 662.55435 417.643283 
L 663.547056 412.420095 
L 664.539762 408.569228 
L 665.532468 410.305972 
L 666.525173 421.798072 
L 667.517879 430.981151 
L 668.510585 423.710502 
L 669.503291 410.61345 
L 670.495997 404.38517 
L 671.488703 406.704584 
L 672.481409 416.468123 
L 673.474115 430.267202 
L 674.466821 429.895324 
L 675.459527 418.288547 
L 676.452233 409.838178 
L 677.444939 408.219569 
L 678.437645 412.642247 
L 679.43035 419.428194 
L 680.423056 424.930916 
L 681.415762 424.829426 
L 682.408468 421.319571 
L 683.401174 416.99905 
L 684.39388 413.236658 
L 685.386586 411.488666 
L 686.379292 414.049613 
L 687.371998 420.307393 
L 688.364704 427.593758 
L 689.35741 428.021848 
L 690.350116 419.109214 
L 691.342822 411.412864 
L 692.335527 409.371938 
L 693.328233 413.798043 
L 694.320939 423.215934 
L 695.313645 429.808488 
L 696.306351 426.589759 
L 697.299057 418.779594 
L 698.291763 413.567791 
L 699.284469 412.530795 
L 700.277175 415.751691 
L 702.262587 426.336166 
L 703.255293 427.473284 
L 704.247999 424.202459 
L 705.240705 418.063299 
L 706.23341 413.762146 
L 707.226116 412.967812 
L 708.218822 417.002723 
L 709.211528 424.803016 
L 710.204234 431.269879 
L 711.19694 428.371391 
L 712.189646 419.17686 
L 713.182352 412.924504 
L 714.175058 412.163469 
L 715.167764 416.785104 
L 716.16047 426.111651 
L 717.153176 432.898274 
L 718.145882 429.026548 
L 719.138587 420.018542 
L 720.131293 413.860809 
L 721.123999 412.823612 
L 722.116705 417.590292 
L 723.109411 426.006318 
L 724.102117 432.33089 
L 725.094823 429.256285 
L 726.087529 421.346776 
L 727.080235 415.687819 
L 728.072941 415.186288 
L 729.065647 418.95916 
L 730.058353 425.357591 
L 731.051059 429.653094 
L 732.043764 428.218844 
L 733.03647 423.75057 
L 734.029176 420.172395 
L 735.021882 418.234206 
L 736.014588 418.865003 
L 737.007294 421.139038 
L 738.992706 430.316082 
L 739.985412 430.475928 
L 740.978118 424.973657 
L 741.970824 417.815912 
L 742.96353 414.631961 
L 743.956236 417.15607 
L 744.948941 426.21092 
L 745.941647 436.985526 
L 746.934353 434.844326 
L 747.927059 422.611603 
L 748.919765 414.27275 
L 749.912471 413.74071 
L 750.905177 420.293241 
L 751.897883 432.183267 
L 752.890589 436.961584 
L 754.876001 419.954256 
L 755.868707 417.15769 
L 756.861413 420.435367 
L 757.854118 426.342967 
L 758.846824 429.315766 
L 760.832236 425.23047 
L 761.824942 426.019819 
L 762.817648 427.372445 
L 763.810354 425.436338 
L 764.80306 421.265731 
L 765.795766 419.456495 
L 766.788472 423.417864 
L 767.781178 432.212533 
L 768.773884 437.782869 
L 769.76659 430.101869 
L 770.759295 419.012272 
L 771.752001 414.36917 
L 772.744707 417.869367 
L 774.730119 442.617632 
L 775.722825 436.846074 
L 776.715531 422.486674 
L 777.708237 415.076394 
L 778.700943 416.15675 
L 779.693649 425.463829 
L 780.686355 436.966104 
L 781.679061 436.894488 
L 782.671767 427.644894 
L 783.664473 421.255245 
L 784.657178 421.308432 
L 786.64259 429.94205 
L 787.635296 429.011976 
L 788.628002 426.509649 
L 789.620708 426.767607 
L 790.613414 430.444982 
L 791.60612 432.413378 
L 792.598826 428.035577 
L 793.591532 421.789598 
L 794.584238 419.832821 
L 795.576944 424.822355 
L 796.56965 435.937892 
L 797.562355 441.803145 
L 798.555061 431.496534 
L 799.547767 419.66902 
L 800.540473 415.608365 
L 801.533179 420.248711 
L 803.518591 445.686815 
L 804.511297 437.312172 
L 805.504003 423.14039 
L 806.496709 416.825177 
L 807.489415 419.232479 
L 809.474827 439.863192 
L 810.467532 437.566973 
L 811.460238 427.66445 
L 812.452944 422.845788 
L 813.44565 424.538939 
L 814.438356 429.922831 
L 815.431062 432.70535 
L 817.416474 426.66363 
L 818.40918 427.95212 
L 819.401886 433.518153 
L 820.394592 435.656568 
L 821.387298 429.912217 
L 822.380004 422.652527 
L 823.372709 420.995267 
L 824.365415 427.068122 
L 825.358121 439.517555 
L 826.350827 443.807985 
L 828.336239 420.488702 
L 829.328945 417.368632 
L 830.321651 423.615472 
L 831.314357 438.005671 
L 832.307063 447.099025 
L 833.299769 436.194069 
L 834.292475 423.404432 
L 835.285181 419.279893 
L 836.277886 423.635334 
L 837.270592 434.615849 
L 838.263298 441.923722 
L 839.256004 435.791384 
L 840.24871 427.331526 
L 841.241416 424.696787 
L 842.234122 428.73361 
L 843.226828 434.754695 
L 844.219534 434.827027 
L 845.21224 429.451169 
L 846.204946 426.795922 
L 847.197652 429.823717 
L 848.190358 436.805346 
L 849.183064 438.697707 
L 851.168475 423.905188 
L 852.161181 422.817282 
L 853.153887 430.003556 
L 854.146593 441.728871 
L 855.139299 444.741265 
L 856.132005 432.366745 
L 857.124711 422.326523 
L 858.117417 420.598793 
L 859.110123 427.620425 
L 860.102829 440.869423 
L 861.095535 446.081471 
L 862.088241 434.878387 
L 863.080946 425.057551 
L 864.073652 422.477186 
L 865.066358 428.462566 
L 866.059064 438.115204 
L 867.05177 441.034305 
L 869.037182 428.021021 
L 870.029888 428.045227 
L 872.0153 437.893195 
L 873.008006 434.886353 
L 874.000712 429.148844 
L 874.993418 427.375449 
L 875.986123 432.086781 
L 876.978829 439.855581 
L 877.971535 440.779814 
L 878.964241 432.300398 
L 879.956947 425.031353 
L 880.949653 424.765498 
L 881.942359 432.440768 
L 882.935065 443.881253 
L 883.927771 444.407229 
L 884.920477 432.942618 
L 885.913183 424.547346 
L 886.905889 424.067055 
L 887.898595 431.356047 
L 888.8913 442.503367 
L 889.884006 444.463068 
L 890.876712 434.774173 
L 891.869418 427.090354 
L 892.862124 426.59544 
L 893.85483 432.690739 
L 894.847536 439.569756 
L 895.840242 439.543975 
L 896.832948 433.150476 
L 897.825654 429.718753 
L 898.81836 431.923577 
L 899.811066 436.918441 
L 900.803772 439.062212 
L 902.789183 429.499924 
L 903.781889 429.573484 
L 904.774595 435.369976 
L 905.767301 442.513222 
L 906.760007 440.6237 
L 907.752713 431.982979 
L 908.745419 426.288838 
L 909.738125 427.77795 
L 911.723537 445.03168 
L 912.716243 442.752057 
L 913.708949 432.842009 
L 914.701655 426.771693 
L 915.69436 427.856165 
L 916.687066 435.061919 
L 917.679772 443.252713 
L 918.672478 442.190798 
L 919.665184 434.507841 
L 920.65789 429.248463 
L 921.650596 430.560646 
L 923.636008 440.574338 
L 924.628714 438.521756 
L 925.62142 433.603848 
L 926.614126 432.005726 
L 927.606832 434.927031 
L 928.599537 439.113243 
L 929.592243 439.220854 
L 930.584949 434.291333 
L 931.577655 431.112732 
L 932.570361 432.558556 
L 933.563067 438.183439 
L 934.555773 442.826592 
L 935.548479 439.813278 
L 936.541185 432.750308 
L 937.533891 429.327575 
L 938.526597 431.64599 
L 939.519303 438.509515 
L 940.512009 444.258053 
L 941.504714 440.787506 
L 942.49742 433.247387 
L 943.490126 429.85931 
L 944.482832 432.030115 
L 945.475538 438.328053 
L 946.468244 442.750864 
L 947.46095 439.878103 
L 948.453656 434.442812 
L 949.446362 432.197787 
L 950.439068 434.330385 
L 951.431774 438.836863 
L 952.42448 440.72252 
L 954.409891 434.082262 
L 955.402597 434.012421 
L 957.388009 440.901581 
L 958.380715 439.606777 
L 959.373421 435.547538 
L 960.366127 433.043585 
L 961.358833 434.660936 
L 962.351539 439.568768 
L 963.344245 442.263329 
L 964.336951 439.244782 
L 965.329657 434.247433 
L 966.322363 432.871321 
L 967.315068 435.401142 
L 968.307774 440.046262 
L 969.30048 441.966013 
L 970.293186 438.888742 
L 971.285892 434.857626 
L 972.278598 434.119893 
L 973.271304 436.587794 
L 974.26401 440.298374 
L 975.256716 440.765628 
L 976.249422 437.555306 
L 977.242128 435.018425 
L 978.234834 435.493016 
L 979.22754 438.690452 
L 980.220246 441.224777 
L 981.212951 439.400647 
L 982.205657 436.130748 
L 983.198363 434.664648 
L 984.191069 436.243563 
L 985.183775 440.013941 
L 986.176481 441.657525 
L 987.169187 439.32671 
L 988.161893 436.047683 
L 989.154599 434.883267 
L 990.147305 437.082701 
L 991.140011 440.27469 
L 992.132717 441.578648 
L 993.125423 439.256904 
L 994.118128 436.58693 
L 995.110834 436.070627 
L 997.096246 439.873626 
L 998.088952 439.84353 
L 999.081658 438.272267 
L 1000.074364 437.237785 
L 1001.06707 437.959355 
L 1002.059776 439.81358 
L 1003.052482 440.288674 
L 1004.045188 438.602034 
L 1005.037894 436.671623 
L 1006.0306 436.916733 
L 1008.016011 441.543021 
L 1009.008717 441.209934 
L 1010.001423 438.438015 
L 1010.994129 436.316354 
L 1011.986835 436.631364 
L 1013.972247 441.604881 
L 1014.964953 441.249773 
L 1015.957659 439.121343 
L 1016.950365 437.317517 
L 1017.943071 437.392508 
L 1018.935777 439.462284 
L 1019.928482 440.52432 
L 1020.921188 440.023825 
L 1021.913894 438.993342 
L 1022.9066 438.286689 
L 1023.899306 439.456857 
L 1024.892012 440.271303 
L 1025.884718 440.108191 
L 1026.877424 438.354868 
L 1027.87013 437.824792 
L 1028.862836 438.891623 
L 1029.855542 441.350361 
L 1030.848248 442.131172 
L 1031.840954 440.204387 
L 1032.833659 437.710489 
L 1033.826365 436.833158 
L 1034.819071 438.769607 
L 1035.811777 441.141583 
L 1036.804483 442.503269 
L 1037.797189 441.077383 
L 1038.789895 438.491377 
L 1039.782601 437.728044 
L 1041.768013 440.711195 
L 1042.760719 441.102586 
L 1043.753425 440.171161 
L 1044.746131 439.476997 
L 1045.738837 439.751035 
L 1046.731542 440.657058 
L 1047.724248 440.58106 
L 1049.70966 438.092428 
L 1050.702366 438.816651 
L 1051.695072 441.417707 
L 1052.687778 443.42275 
L 1053.680484 442.247052 
L 1054.67319 438.605496 
L 1055.665896 436.442509 
L 1056.658602 437.212478 
L 1058.644014 444.544546 
L 1059.636719 444.106603 
L 1060.629425 440.074179 
L 1061.622131 436.517208 
L 1062.614837 436.922258 
L 1064.600249 443.031832 
L 1065.592955 443.564438 
L 1066.585661 441.213749 
L 1067.578367 439.276921 
L 1068.571073 439.154885 
L 1069.563779 440.210783 
L 1070.556485 440.965674 
L 1072.541896 439.793859 
L 1073.534602 440.755022 
L 1074.527308 443.038651 
L 1075.520014 442.912309 
L 1077.505426 437.510897 
L 1078.498132 437.124306 
L 1079.490838 440.312146 
L 1080.483544 445.061185 
L 1081.47625 446.268829 
L 1082.468956 442.048874 
L 1083.461662 436.952039 
L 1084.454368 435.314809 
L 1085.447073 438.475893 
L 1086.439779 443.811266 
L 1087.432485 447.328809 
L 1088.425191 444.539419 
L 1089.417897 438.952376 
L 1090.410603 436.182195 
L 1091.403309 437.556936 
L 1092.396015 441.948205 
L 1093.388721 444.677481 
L 1094.381427 443.912936 
L 1095.374133 441.21853 
L 1096.366839 439.911472 
L 1098.35225 441.083137 
L 1099.344956 440.742135 
L 1100.337662 440.104407 
L 1101.330368 440.224715 
L 1103.31578 444.965253 
L 1104.308486 443.60932 
L 1106.293898 436.301883 
L 1107.286604 437.380623 
L 1109.272016 447.810436 
L 1110.264722 447.268985 
L 1111.257428 440.699438 
L 1112.250133 435.87258 
L 1113.242839 435.389556 
L 1114.235545 440.136215 
L 1115.228251 446.507159 
L 1116.220957 448.012842 
L 1118.206369 438.295919 
L 1119.199075 437.086589 
L 1120.191781 439.437089 
L 1121.184487 443.315991 
L 1122.177193 444.597993 
L 1124.162605 441.01239 
L 1125.15531 441.210378 
L 1126.148016 442.432646 
L 1127.140722 442.300629 
L 1128.133428 440.211193 
L 1129.126134 438.859704 
L 1130.11884 440.545601 
L 1131.111546 444.410324 
L 1132.104252 446.928081 
L 1133.096958 444.037565 
L 1134.089664 438.754973 
L 1135.08237 435.676961 
L 1136.075076 437.500495 
L 1138.060487 449.67727 
L 1139.053193 447.363487 
L 1140.045899 440.317747 
L 1141.038605 435.630001 
L 1142.031311 436.400015 
L 1144.016723 447.193036 
L 1145.009429 447.258995 
L 1146.002135 442.560832 
L 1146.994841 439.025625 
L 1147.987547 438.676975 
L 1149.972959 443.394742 
L 1150.965664 443.02637 
L 1151.95837 441.89975 
L 1152.951076 442.114452 
L 1153.943782 443.877519 
L 1154.936488 444.772002 
L 1156.9219 438.467164 
L 1157.914606 437.669245 
L 1158.907312 441.164843 
L 1159.900018 447.162427 
L 1160.892724 449.399848 
L 1161.88543 443.932364 
L 1162.878136 437.232233 
L 1163.870841 434.614887 
L 1164.863547 438.049754 
L 1165.856253 445.568697 
L 1166.848959 451.042396 
L 1167.841665 447.115758 
L 1168.834371 439.594294 
L 1169.827077 435.901791 
L 1170.819783 437.025055 
L 1172.805195 447.122082 
L 1173.797901 446.795285 
L 1174.790607 443.037199 
L 1175.783313 440.313205 
L 1176.776019 440.211726 
L 1177.768724 441.388866 
L 1178.76143 442.045982 
L 1179.754136 441.823313 
L 1180.746842 442.339026 
L 1182.732254 446.360967 
L 1183.72496 444.552752 
L 1184.717666 439.957794 
L 1185.710372 436.759569 
L 1186.703078 437.809723 
L 1187.695784 443.188747 
L 1188.68849 450.125028 
L 1189.681196 449.903786 
L 1190.673901 442.167733 
L 1191.666607 435.739326 
L 1192.659313 434.761069 
L 1193.652019 439.64899 
L 1194.644725 447.694015 
L 1195.637431 451.604293 
L 1196.630137 445.700358 
L 1197.622843 438.771402 
L 1198.615549 435.842245 
L 1199.608255 438.269848 
L 1200.600961 443.610982 
L 1201.593667 447.004011 
L 1202.586373 446.385105 
L 1203.579078 443.244614 
L 1204.571784 441.549075 
L 1205.56449 441.129087 
L 1206.557196 441.432368 
L 1207.549902 441.057185 
L 1208.542608 440.850833 
L 1209.535314 442.722465 
L 1210.52802 446.132521 
L 1211.520726 447.478443 
L 1212.513432 443.850237 
L 1213.506138 438.580674 
L 1214.498844 435.914541 
L 1215.49155 438.533873 
L 1216.484255 445.58596 
L 1217.476961 451.359385 
L 1218.469667 448.45567 
L 1219.462373 440.532187 
L 1220.455079 435.232535 
L 1221.447785 435.815993 
L 1222.440491 441.793414 
L 1223.433197 449.215977 
L 1224.425903 450.115215 
L 1225.418609 443.842048 
L 1226.411315 438.508996 
L 1227.404021 437.635881 
L 1228.396727 440.342958 
L 1229.389432 444.335087 
L 1230.382138 445.317318 
L 1231.374844 444.141606 
L 1232.36755 442.752313 
L 1234.352962 443.033831 
L 1235.345668 441.516198 
L 1236.338374 439.756477 
L 1237.33108 439.766586 
L 1238.323786 442.914366 
L 1239.316492 447.805452 
L 1240.309198 448.433275 
L 1241.301904 443.350279 
L 1242.29461 437.452992 
L 1243.287315 435.648785 
L 1244.280021 439.499199 
L 1245.272727 447.144714 
L 1245.272727 447.144714 
" clip-path="url(#p2b273e300d)" style="fill: none; stroke: #1f77b4; stroke-width: 1.5; stroke-linecap: square"/>
   </g>
   <g id="patch_3">
    <path d="M 180 512.64 
L 180 69.12 
" style="fill: none; stroke: #000000; stroke-width: 0.8; stroke-linejoin: miter; stroke-linecap: square"/>
   </g>
   <g id="patch_4">
    <path d="M 1296 512.64 
L 1296 69.12 
" style="fill: none; stroke: #000000; stroke-width: 0.8; stroke-linejoin: miter; stroke-linecap: square"/>
   </g>
   <g id="patch_5">
    <path d="M 180 512.64 
L 1296 512.64 
" style="fill: none; stroke: #000000; stroke-width: 0.8; stroke-linejoin: miter; stroke-linecap: square"/>
   </g>
   <g id="patch_6">
    <path d="M 180 69.12 
L 1296 69.12 
" style="fill: none; stroke: #000000; stroke-width: 0.8; stroke-linejoin: miter; stroke-linecap: square"/>
   </g>
   <g id="text_15">
    <!-- source21-receiver17 -->
    <g transform="translate(532.175 60.80125) scale(0.4 -0.4)">
     <defs>
      <path id="DejaVuSans-73" d="M 2834 3397 
L 2834 2853 
Q 2591 2978 2328 3040 
Q 2066 3103 1784 3103 
Q 1356 3103 1142 2972 
Q 928 2841 928 2578 
Q 928 2378 1081 2264 
Q 1234 2150 1697 2047 
L 1894 2003 
Q 2506 1872 2764 1633 
Q 3022 1394 3022 966 
Q 3022 478 2636 193 
Q 2250 -91 1575 -91 
Q 1294 -91 989 -36 
Q 684 19 347 128 
L 347 722 
Q 666 556 975 473 
Q 1284 391 1588 391 
Q 1994 391 2212 530 
Q 2431 669 2431 922 
Q 2431 1156 2273 1281 
Q 2116 1406 1581 1522 
L 1381 1569 
Q 847 1681 609 1914 
Q 372 2147 372 2553 
Q 372 3047 722 3315 
Q 1072 3584 1716 3584 
Q 2034 3584 2315 3537 
Q 2597 3491 2834 3397 
z
" transform="scale(0.015625)"/>
      <path id="DejaVuSans-6f" d="M 1959 3097 
Q 1497 3097 1228 2736 
Q 959 2375 959 1747 
Q 959 1119 1226 758 
Q 1494 397 1959 397 
Q 2419 397 2687 759 
Q 2956 1122 2956 1747 
Q 2956 2369 2687 2733 
Q 2419 3097 1959 3097 
z
M 1959 3584 
Q 2709 3584 3137 3096 
Q 3566 2609 3566 1747 
Q 3566 888 3137 398 
Q 2709 -91 1959 -91 
Q 1206 -91 779 398 
Q 353 888 353 1747 
Q 353 2609 779 3096 
Q 1206 3584 1959 3584 
z
" transform="scale(0.015625)"/>
      <path id="DejaVuSans-75" d="M 544 1381 
L 544 3500 
L 1119 3500 
L 1119 1403 
Q 1119 906 1312 657 
Q 1506 409 1894 409 
Q 2359 409 2629 706 
Q 2900 1003 2900 1516 
L 2900 3500 
L 3475 3500 
L 3475 0 
L 2900 0 
L 2900 538 
Q 2691 219 2414 64 
Q 2138 -91 1772 -91 
Q 1169 -91 856 284 
Q 544 659 544 1381 
z
M 1991 3584 
L 1991 3584 
z
" transform="scale(0.015625)"/>
      <path id="DejaVuSans-72" d="M 2631 2963 
Q 2534 3019 2420 3045 
Q 2306 3072 2169 3072 
Q 1681 3072 1420 2755 
Q 1159 2438 1159 1844 
L 1159 0 
L 581 0 
L 581 3500 
L 1159 3500 
L 1159 2956 
Q 1341 3275 1631 3429 
Q 1922 3584 2338 3584 
Q 2397 3584 2469 3576 
Q 2541 3569 2628 3553 
L 2631 2963 
z
" transform="scale(0.015625)"/>
      <path id="DejaVuSans-63" d="M 3122 3366 
L 3122 2828 
Q 2878 2963 2633 3030 
Q 2388 3097 2138 3097 
Q 1578 3097 1268 2742 
Q 959 2388 959 1747 
Q 959 1106 1268 751 
Q 1578 397 2138 397 
Q 2388 397 2633 464 
Q 2878 531 3122 666 
L 3122 134 
Q 2881 22 2623 -34 
Q 2366 -91 2075 -91 
Q 1284 -91 818 406 
Q 353 903 353 1747 
Q 353 2603 823 3093 
Q 1294 3584 2113 3584 
Q 2378 3584 2631 3529 
Q 2884 3475 3122 3366 
z
" transform="scale(0.015625)"/>
      <path id="DejaVuSans-65" d="M 3597 1894 
L 3597 1613 
L 953 1613 
Q 991 1019 1311 708 
Q 1631 397 2203 397 
Q 2534 397 2845 478 
Q 3156 559 3463 722 
L 3463 178 
Q 3153 47 2828 -22 
Q 2503 -91 2169 -91 
Q 1331 -91 842 396 
Q 353 884 353 1716 
Q 353 2575 817 3079 
Q 1281 3584 2069 3584 
Q 2775 3584 3186 3129 
Q 3597 2675 3597 1894 
z
M 3022 2063 
Q 3016 2534 2758 2815 
Q 2500 3097 2075 3097 
Q 1594 3097 1305 2825 
Q 1016 2553 972 2059 
L 3022 2063 
z
" transform="scale(0.015625)"/>
      <path id="DejaVuSans-2d" d="M 313 2009 
L 1997 2009 
L 1997 1497 
L 313 1497 
L 313 2009 
z
" transform="scale(0.015625)"/>
      <path id="DejaVuSans-69" d="M 603 3500 
L 1178 3500 
L 1178 0 
L 603 0 
L 603 3500 
z
M 603 4863 
L 1178 4863 
L 1178 4134 
L 603 4134 
L 603 4863 
z
" transform="scale(0.015625)"/>
      <path id="DejaVuSans-76" d="M 191 3500 
L 800 3500 
L 1894 563 
L 2988 3500 
L 3597 3500 
L 2284 0 
L 1503 0 
L 191 3500 
z
" transform="scale(0.015625)"/>
      <path id="DejaVuSans-37" d="M 525 4666 
L 3525 4666 
L 3525 4397 
L 1831 0 
L 1172 0 
L 2766 4134 
L 525 4134 
L 525 4666 
z
" transform="scale(0.015625)"/>
     </defs>
     <use xlink:href="#DejaVuSans-73"/>
     <use xlink:href="#DejaVuSans-6f" x="52.099609"/>
     <use xlink:href="#DejaVuSans-75" x="113.28125"/>
     <use xlink:href="#DejaVuSans-72" x="176.660156"/>
     <use xlink:href="#DejaVuSans-63" x="215.523438"/>
     <use xlink:href="#DejaVuSans-65" x="270.503906"/>
     <use xlink:href="#DejaVuSans-32" x="332.027344"/>
     <use xlink:href="#DejaVuSans-31" x="395.650391"/>
     <use xlink:href="#DejaVuSans-2d" x="459.273438"/>
     <use xlink:href="#DejaVuSans-72" x="495.357422"/>
     <use xlink:href="#DejaVuSans-65" x="534.220703"/>
     <use xlink:href="#DejaVuSans-63" x="595.744141"/>
     <use xlink:href="#DejaVuSans-65" x="650.724609"/>
     <use xlink:href="#DejaVuSans-69" x="712.248047"/>
     <use xlink:href="#DejaVuSans-76" x="740.03125"/>
     <use xlink:href="#DejaVuSans-65" x="799.210938"/>
     <use xlink:href="#DejaVuSans-72" x="860.734375"/>
     <use xlink:href="#DejaVuSans-31" x="901.847656"/>
     <use xlink:href="#DejaVuSans-37" x="965.470703"/>
    </g>
   </g>
  </g>
 </g>
 <defs>
  <clipPath id="p2b273e300d">
   <rect x="180" y="69.12" width="1116" height="443.52"/>
  </clipPath>
 </defs>
</svg>
