<?xml version="1.0" encoding="utf-8" standalone="no"?>
<!DOCTYPE svg PUBLIC "-//W3C//DTD SVG 1.1//EN"
  "http://www.w3.org/Graphics/SVG/1.1/DTD/svg11.dtd">
<svg xmlns:xlink="http://www.w3.org/1999/xlink" width="1440pt" height="576pt" viewBox="0 0 1440 576" xmlns="http://www.w3.org/2000/svg" version="1.1">
 <metadata>
  <rdf:RDF xmlns:dc="http://purl.org/dc/elements/1.1/" xmlns:cc="http://creativecommons.org/ns#" xmlns:rdf="http://www.w3.org/1999/02/22-rdf-syntax-ns#">
   <cc:Work>
    <dc:type rdf:resource="http://purl.org/dc/dcmitype/StillImage"/>
    <dc:date>2024-05-22T04:50:19.142626</dc:date>
    <dc:format>image/svg+xml</dc:format>
    <dc:creator>
     <cc:Agent>
      <dc:title>Matplotlib v3.8.3, https://matplotlib.org/</dc:title>
     </cc:Agent>
    </dc:creator>
   </cc:Work>
  </rdf:RDF>
 </metadata>
 <defs>
  <style type="text/css">*{stroke-linejoin: round; stroke-linecap: butt}</style>
 </defs>
 <g id="figure_1">
  <g id="patch_1">
   <path d="M 0 576 
L 1440 576 
L 1440 0 
L 0 0 
z
" style="fill: #ffffff"/>
  </g>
  <g id="axes_1">
   <g id="patch_2">
    <path d="M 180 512.64 
L 1296 512.64 
L 1296 69.12 
L 180 69.12 
z
" style="fill: #ffffff"/>
   </g>
   <g id="matplotlib.axis_1">
    <g id="xtick_1">
     <g id="line2d_1">
      <defs>
       <path id="m85e628e0e9" d="M 0 0 
L 0 3.5 
" style="stroke: #000000; stroke-width: 0.8"/>
      </defs>
      <g>
       <use xlink:href="#m85e628e0e9" x="229.734567" y="512.64" style="stroke: #000000; stroke-width: 0.8"/>
      </g>
     </g>
     <g id="text_1">
      <!-- 0 -->
      <g transform="translate(226.553317 527.238438) scale(0.1 -0.1)">
       <defs>
        <path id="DejaVuSans-30" d="M 2034 4250 
Q 1547 4250 1301 3770 
Q 1056 3291 1056 2328 
Q 1056 1369 1301 889 
Q 1547 409 2034 409 
Q 2525 409 2770 889 
Q 3016 1369 3016 2328 
Q 3016 3291 2770 3770 
Q 2525 4250 2034 4250 
z
M 2034 4750 
Q 2819 4750 3233 4129 
Q 3647 3509 3647 2328 
Q 3647 1150 3233 529 
Q 2819 -91 2034 -91 
Q 1250 -91 836 529 
Q 422 1150 422 2328 
Q 422 3509 836 4129 
Q 1250 4750 2034 4750 
z
" transform="scale(0.015625)"/>
       </defs>
       <use xlink:href="#DejaVuSans-30"/>
      </g>
     </g>
    </g>
    <g id="xtick_2">
     <g id="line2d_2">
      <g>
       <use xlink:href="#m85e628e0e9" x="433.04074" y="512.64" style="stroke: #000000; stroke-width: 0.8"/>
      </g>
     </g>
     <g id="text_2">
      <!-- 500 -->
      <g transform="translate(423.49699 527.238438) scale(0.1 -0.1)">
       <defs>
        <path id="DejaVuSans-35" d="M 691 4666 
L 3169 4666 
L 3169 4134 
L 1269 4134 
L 1269 2991 
Q 1406 3038 1543 3061 
Q 1681 3084 1819 3084 
Q 2600 3084 3056 2656 
Q 3513 2228 3513 1497 
Q 3513 744 3044 326 
Q 2575 -91 1722 -91 
Q 1428 -91 1123 -41 
Q 819 9 494 109 
L 494 744 
Q 775 591 1075 516 
Q 1375 441 1709 441 
Q 2250 441 2565 725 
Q 2881 1009 2881 1497 
Q 2881 1984 2565 2268 
Q 2250 2553 1709 2553 
Q 1456 2553 1204 2497 
Q 953 2441 691 2322 
L 691 4666 
z
" transform="scale(0.015625)"/>
       </defs>
       <use xlink:href="#DejaVuSans-35"/>
       <use xlink:href="#DejaVuSans-30" x="63.623047"/>
       <use xlink:href="#DejaVuSans-30" x="127.246094"/>
      </g>
     </g>
    </g>
    <g id="xtick_3">
     <g id="line2d_3">
      <g>
       <use xlink:href="#m85e628e0e9" x="636.346913" y="512.64" style="stroke: #000000; stroke-width: 0.8"/>
      </g>
     </g>
     <g id="text_3">
      <!-- 1000 -->
      <g transform="translate(623.621913 527.238438) scale(0.1 -0.1)">
       <defs>
        <path id="DejaVuSans-31" d="M 794 531 
L 1825 531 
L 1825 4091 
L 703 3866 
L 703 4441 
L 1819 4666 
L 2450 4666 
L 2450 531 
L 3481 531 
L 3481 0 
L 794 0 
L 794 531 
z
" transform="scale(0.015625)"/>
       </defs>
       <use xlink:href="#DejaVuSans-31"/>
       <use xlink:href="#DejaVuSans-30" x="63.623047"/>
       <use xlink:href="#DejaVuSans-30" x="127.246094"/>
       <use xlink:href="#DejaVuSans-30" x="190.869141"/>
      </g>
     </g>
    </g>
    <g id="xtick_4">
     <g id="line2d_4">
      <g>
       <use xlink:href="#m85e628e0e9" x="839.653087" y="512.64" style="stroke: #000000; stroke-width: 0.8"/>
      </g>
     </g>
     <g id="text_4">
      <!-- 1500 -->
      <g transform="translate(826.928087 527.238438) scale(0.1 -0.1)">
       <use xlink:href="#DejaVuSans-31"/>
       <use xlink:href="#DejaVuSans-35" x="63.623047"/>
       <use xlink:href="#DejaVuSans-30" x="127.246094"/>
       <use xlink:href="#DejaVuSans-30" x="190.869141"/>
      </g>
     </g>
    </g>
    <g id="xtick_5">
     <g id="line2d_5">
      <g>
       <use xlink:href="#m85e628e0e9" x="1042.95926" y="512.64" style="stroke: #000000; stroke-width: 0.8"/>
      </g>
     </g>
     <g id="text_5">
      <!-- 2000 -->
      <g transform="translate(1030.23426 527.238438) scale(0.1 -0.1)">
       <defs>
        <path id="DejaVuSans-32" d="M 1228 531 
L 3431 531 
L 3431 0 
L 469 0 
L 469 531 
Q 828 903 1448 1529 
Q 2069 2156 2228 2338 
Q 2531 2678 2651 2914 
Q 2772 3150 2772 3378 
Q 2772 3750 2511 3984 
Q 2250 4219 1831 4219 
Q 1534 4219 1204 4116 
Q 875 4013 500 3803 
L 500 4441 
Q 881 4594 1212 4672 
Q 1544 4750 1819 4750 
Q 2544 4750 2975 4387 
Q 3406 4025 3406 3419 
Q 3406 3131 3298 2873 
Q 3191 2616 2906 2266 
Q 2828 2175 2409 1742 
Q 1991 1309 1228 531 
z
" transform="scale(0.015625)"/>
       </defs>
       <use xlink:href="#DejaVuSans-32"/>
       <use xlink:href="#DejaVuSans-30" x="63.623047"/>
       <use xlink:href="#DejaVuSans-30" x="127.246094"/>
       <use xlink:href="#DejaVuSans-30" x="190.869141"/>
      </g>
     </g>
    </g>
    <g id="xtick_6">
     <g id="line2d_6">
      <g>
       <use xlink:href="#m85e628e0e9" x="1246.265433" y="512.64" style="stroke: #000000; stroke-width: 0.8"/>
      </g>
     </g>
     <g id="text_6">
      <!-- 2500 -->
      <g transform="translate(1233.540433 527.238438) scale(0.1 -0.1)">
       <use xlink:href="#DejaVuSans-32"/>
       <use xlink:href="#DejaVuSans-35" x="63.623047"/>
       <use xlink:href="#DejaVuSans-30" x="127.246094"/>
       <use xlink:href="#DejaVuSans-30" x="190.869141"/>
      </g>
     </g>
    </g>
   </g>
   <g id="matplotlib.axis_2">
    <g id="ytick_1">
     <g id="line2d_7">
      <defs>
       <path id="m3c405a8836" d="M 0 0 
L -3.5 0 
" style="stroke: #000000; stroke-width: 0.8"/>
      </defs>
      <g>
       <use xlink:href="#m3c405a8836" x="180" y="465.951669" style="stroke: #000000; stroke-width: 0.8"/>
      </g>
     </g>
     <g id="text_7">
      <!-- −4 -->
      <g transform="translate(158.257812 469.750888) scale(0.1 -0.1)">
       <defs>
        <path id="DejaVuSans-2212" d="M 678 2272 
L 4684 2272 
L 4684 1741 
L 678 1741 
L 678 2272 
z
" transform="scale(0.015625)"/>
        <path id="DejaVuSans-34" d="M 2419 4116 
L 825 1625 
L 2419 1625 
L 2419 4116 
z
M 2253 4666 
L 3047 4666 
L 3047 1625 
L 3713 1625 
L 3713 1100 
L 3047 1100 
L 3047 0 
L 2419 0 
L 2419 1100 
L 313 1100 
L 313 1709 
L 2253 4666 
z
" transform="scale(0.015625)"/>
       </defs>
       <use xlink:href="#DejaVuSans-2212"/>
       <use xlink:href="#DejaVuSans-34" x="83.789062"/>
      </g>
     </g>
    </g>
    <g id="ytick_2">
     <g id="line2d_8">
      <g>
       <use xlink:href="#m3c405a8836" x="180" y="373.614807" style="stroke: #000000; stroke-width: 0.8"/>
      </g>
     </g>
     <g id="text_8">
      <!-- −2 -->
      <g transform="translate(158.257812 377.414026) scale(0.1 -0.1)">
       <use xlink:href="#DejaVuSans-2212"/>
       <use xlink:href="#DejaVuSans-32" x="83.789062"/>
      </g>
     </g>
    </g>
    <g id="ytick_3">
     <g id="line2d_9">
      <g>
       <use xlink:href="#m3c405a8836" x="180" y="281.277945" style="stroke: #000000; stroke-width: 0.8"/>
      </g>
     </g>
     <g id="text_9">
      <!-- 0 -->
      <g transform="translate(166.6375 285.077164) scale(0.1 -0.1)">
       <use xlink:href="#DejaVuSans-30"/>
      </g>
     </g>
    </g>
    <g id="ytick_4">
     <g id="line2d_10">
      <g>
       <use xlink:href="#m3c405a8836" x="180" y="188.941083" style="stroke: #000000; stroke-width: 0.8"/>
      </g>
     </g>
     <g id="text_10">
      <!-- 2 -->
      <g transform="translate(166.6375 192.740302) scale(0.1 -0.1)">
       <use xlink:href="#DejaVuSans-32"/>
      </g>
     </g>
    </g>
    <g id="ytick_5">
     <g id="line2d_11">
      <g>
       <use xlink:href="#m3c405a8836" x="180" y="96.604221" style="stroke: #000000; stroke-width: 0.8"/>
      </g>
     </g>
     <g id="text_11">
      <!-- 4 -->
      <g transform="translate(166.6375 100.40344) scale(0.1 -0.1)">
       <use xlink:href="#DejaVuSans-34"/>
      </g>
     </g>
    </g>
   </g>
   <g id="line2d_12">
    <path d="M 230.727273 279.984836 
L 233.70539 279.325166 
L 235.690802 278.344249 
L 236.683508 277.715386 
L 238.66892 276.105867 
L 239.661626 275.148437 
L 241.647038 272.508798 
L 244.625156 267.113748 
L 245.617862 263.187125 
L 246.610568 255.615389 
L 247.603273 252.81403 
L 248.595979 263.51558 
L 249.588685 247.609257 
L 250.581391 222.194012 
L 251.574097 228.661155 
L 252.566803 264.890066 
L 253.559509 185.235644 
L 254.552215 162.911933 
L 255.544921 167.97639 
L 256.537627 230.09402 
L 257.530333 183.899418 
L 258.523039 157.59251 
L 259.515745 166.940089 
L 260.50845 217.993898 
L 261.501156 211.758634 
L 262.493862 212.940201 
L 263.486568 320.975859 
L 264.479274 214.784627 
L 266.464686 197.842867 
L 267.457392 211.283895 
L 268.450098 242.461777 
L 269.442804 192.445391 
L 270.43551 207.405358 
L 271.428216 200.77993 
L 272.420922 169.072599 
L 273.413627 179.923492 
L 274.406333 163.965552 
L 275.399039 133.79535 
L 276.391745 125.353129 
L 277.384451 124.384432 
L 278.377157 119.577626 
L 279.369863 119.123092 
L 280.362569 132.27043 
L 281.355275 172.593657 
L 282.347981 183.875915 
L 283.340687 136.118992 
L 284.333393 118.690757 
L 285.326099 109.261026 
L 286.318804 98.170439 
L 287.31151 89.28 
L 288.304216 91.537318 
L 289.296922 108.651462 
L 290.289628 121.627964 
L 291.282334 112.80605 
L 292.27504 117.613149 
L 293.267746 134.090989 
L 294.260452 139.365988 
L 295.253158 147.398052 
L 296.245864 159.867902 
L 297.23857 157.553303 
L 299.223981 174.217556 
L 300.216687 172.882357 
L 301.209393 192.376446 
L 302.202099 214.814407 
L 303.194805 206.468624 
L 304.187511 227.651831 
L 305.180217 236.874646 
L 306.172923 232.049893 
L 307.165629 261.401055 
L 308.158335 329.842364 
L 310.143747 293.108007 
L 311.136453 322.259398 
L 312.129159 300.034221 
L 313.121864 287.909945 
L 314.11457 390.028848 
L 315.107276 293.2215 
L 316.099982 307.798885 
L 317.092688 337.714335 
L 318.085394 300.976331 
L 319.0781 327.902192 
L 320.070806 321.128407 
L 321.063512 316.739589 
L 322.056218 337.396076 
L 323.048924 321.85521 
L 324.04163 330.30936 
L 325.034336 334.151463 
L 326.027041 323.215715 
L 327.019747 332.48986 
L 328.012453 324.219645 
L 329.005159 324.332857 
L 329.997865 333.803195 
L 330.990571 328.345618 
L 331.983277 341.509633 
L 332.975983 342.705878 
L 333.968689 335.388614 
L 334.961395 344.356403 
L 335.954101 345.77788 
L 336.946807 342.058285 
L 337.939513 339.29909 
L 338.932218 348.280054 
L 339.924924 352.113581 
L 340.91763 341.373554 
L 341.910336 343.679538 
L 342.903042 347.595576 
L 343.895748 360.504964 
L 344.888454 351.840575 
L 345.88116 345.28013 
L 347.866572 360.623314 
L 348.859278 336.314605 
L 349.851984 372.925303 
L 350.84469 350.565263 
L 351.837395 334.509374 
L 352.830101 387.479713 
L 353.822807 339.623803 
L 354.815513 343.684764 
L 355.808219 381.361771 
L 356.800925 339.024629 
L 357.793631 351.089298 
L 358.786337 367.837003 
L 359.779043 349.137652 
L 360.771749 359.896232 
L 361.764455 364.839487 
L 362.757161 362.967246 
L 363.749867 381.528716 
L 364.742572 361.932671 
L 365.735278 374.458199 
L 366.727984 358.896087 
L 367.72069 377.053368 
L 368.713396 361.925319 
L 369.706102 363.028749 
L 370.698808 360.973648 
L 371.691514 364.786536 
L 372.68422 360.503576 
L 373.676926 368.579925 
L 374.669632 361.581519 
L 375.662338 356.026495 
L 376.655044 378.670047 
L 377.64775 357.90355 
L 378.640455 392.979982 
L 379.633161 369.287006 
L 380.625867 371.877799 
L 381.618573 372.42294 
L 382.611279 362.68842 
L 383.603985 362.21419 
L 384.596691 373.730796 
L 385.589397 360.896563 
L 386.582103 372.252449 
L 387.574809 369.771538 
L 388.567515 384.755801 
L 389.560221 374.792319 
L 390.552927 383.904997 
L 391.545632 374.40413 
L 392.538338 383.98878 
L 393.531044 360.431708 
L 394.52375 394.07436 
L 395.516456 374.243781 
L 396.509162 363.164386 
L 397.501868 382.897912 
L 398.494574 377.885553 
L 399.48728 377.568113 
L 400.479986 393.09667 
L 401.472692 383.247797 
L 402.465398 388.551575 
L 403.458104 391.068612 
L 404.450809 388.048663 
L 405.443515 380.737701 
L 406.436221 397.929442 
L 407.428927 360.993074 
L 408.421633 385.108916 
L 409.414339 369.930428 
L 410.407045 386.96805 
L 411.399751 387.417557 
L 412.392457 360.433793 
L 413.385163 390.779516 
L 414.377869 441.471248 
L 415.370575 390.853585 
L 416.363281 406.858532 
L 417.355986 379.345275 
L 418.348692 395.987007 
L 419.341398 396.301858 
L 420.334104 379.983309 
L 421.32681 397.865483 
L 422.319516 408.091099 
L 423.312222 382.92262 
L 424.304928 438.060556 
L 425.297634 387.582793 
L 426.29034 380.984117 
L 427.283046 428.366833 
L 428.275752 382.99667 
L 429.268458 381.82096 
L 430.261163 401.617892 
L 431.253869 389.426478 
L 432.246575 402.916383 
L 433.239281 404.050341 
L 434.231987 396.485909 
L 435.224693 403.005816 
L 436.217399 407.805476 
L 437.210105 404.185644 
L 438.202811 377.289262 
L 439.195517 411.347694 
L 440.188223 389.342835 
L 441.180929 364.13897 
L 442.173635 388.984173 
L 443.166341 394.331584 
L 444.159046 386.335798 
L 445.151752 388.329905 
L 446.144458 391.862683 
L 447.137164 385.405509 
L 448.12987 443.328077 
L 449.122576 428.582896 
L 450.115282 400.019714 
L 451.107988 382.32786 
L 452.100694 398.712491 
L 453.0934 394.034522 
L 454.086106 400.168374 
L 455.078812 427.475647 
L 456.071518 423.991216 
L 457.064223 391.559062 
L 458.056929 389.645955 
L 459.049635 424.021037 
L 460.042341 391.146752 
L 461.035047 383.611121 
L 462.027753 396.636775 
L 463.020459 386.970701 
L 464.013165 384.443106 
L 465.005871 417.480704 
L 465.998577 392.275323 
L 466.991283 376.376182 
L 467.983989 405.118543 
L 468.976695 389.73165 
L 469.9694 399.057258 
L 470.962106 440.492316 
L 471.954812 421.646351 
L 472.947518 393.474674 
L 473.940224 436.917049 
L 474.93293 399.766531 
L 475.925636 386.578928 
L 476.918342 398.243656 
L 477.911048 390.380069 
L 478.903754 406.592471 
L 479.89646 411.988007 
L 480.889166 373.889446 
L 481.881872 408.383732 
L 482.874577 387.723569 
L 483.867283 428.814226 
L 484.859989 427.836682 
L 485.852695 467.338477 
L 486.845401 428.164639 
L 487.838107 435.298386 
L 488.830813 417.396617 
L 489.823519 373.744982 
L 491.808931 419.953066 
L 492.801637 394.391452 
L 493.794343 431.928534 
L 494.787049 398.914297 
L 495.779754 399.592067 
L 496.77246 425.585804 
L 497.765166 408.699523 
L 498.757872 423.58593 
L 499.750578 435.93532 
L 500.743284 441.707233 
L 501.73599 408.535808 
L 502.728696 413.561649 
L 503.721402 425.8881 
L 504.714108 412.487348 
L 505.706814 439.990205 
L 506.69952 426.476085 
L 507.692226 383.968953 
L 508.684932 428.508756 
L 509.677637 433.94894 
L 510.670343 387.670388 
L 511.663049 492.48 
L 512.655755 433.286806 
L 513.648461 408.431068 
L 514.641167 410.387038 
L 515.633873 385.831627 
L 516.626579 432.311314 
L 517.619285 435.535583 
L 519.604697 385.499048 
L 520.597403 434.47608 
L 521.590109 415.044057 
L 522.582814 384.225828 
L 523.57552 413.13562 
L 524.568226 391.768759 
L 525.560932 437.709653 
L 526.553638 427.41719 
L 527.546344 415.652469 
L 528.53905 402.241914 
L 529.531756 397.118137 
L 530.524462 413.028081 
L 531.517168 401.540479 
L 532.509874 387.728232 
L 533.50258 398.193516 
L 534.495286 393.559899 
L 535.487991 421.310919 
L 536.480697 436.985965 
L 537.473403 422.104323 
L 538.466109 417.771016 
L 539.458815 385.924351 
L 540.451521 439.262063 
L 541.444227 395.932516 
L 542.436933 416.76302 
L 543.429639 471.889517 
L 545.415051 391.17021 
L 546.407757 460.393174 
L 548.393168 381.802517 
L 549.385874 431.371776 
L 550.37858 430.270784 
L 551.371286 397.919919 
L 552.363992 409.079359 
L 553.356698 407.623547 
L 554.349404 427.995306 
L 555.34211 414.35388 
L 556.334816 411.328897 
L 557.327522 439.194411 
L 558.320228 408.661255 
L 559.312934 446.102191 
L 560.30564 415.607348 
L 561.298345 417.096686 
L 562.291051 412.662807 
L 563.283757 430.962144 
L 565.269169 443.993767 
L 566.261875 421.1201 
L 567.254581 423.268232 
L 568.247287 411.007846 
L 569.239993 427.103942 
L 570.232699 409.88789 
L 571.225405 469.016539 
L 572.218111 405.250715 
L 573.210817 454.318789 
L 574.203523 459.186378 
L 575.196228 398.290573 
L 576.188934 434.868166 
L 577.18164 415.33294 
L 578.174346 410.080746 
L 580.159758 426.578929 
L 581.152464 418.946949 
L 582.14517 458.895206 
L 583.137876 423.399974 
L 584.130582 465.592641 
L 585.123288 414.17199 
L 586.115994 409.167435 
L 587.1087 410.661225 
L 588.101405 478.757957 
L 589.094111 406.777545 
L 590.086817 421.828934 
L 591.079523 417.95971 
L 592.072229 411.158023 
L 593.064935 459.428094 
L 594.057641 426.82306 
L 595.050347 476.338358 
L 596.043053 447.582009 
L 597.035759 407.475641 
L 598.028465 434.874022 
L 599.021171 437.948017 
L 601.006582 406.449894 
L 601.999288 433.396173 
L 602.991994 431.430148 
L 603.9847 422.782662 
L 604.977406 405.140745 
L 605.970112 486.103986 
L 606.962818 422.48879 
L 607.955524 439.473935 
L 608.94823 415.874582 
L 609.940936 400.437416 
L 610.933642 409.837592 
L 611.926348 410.982937 
L 612.919054 427.346387 
L 613.911759 435.091135 
L 614.904465 418.348468 
L 615.897171 430.375722 
L 616.889877 409.647448 
L 617.882583 431.409748 
L 618.875289 431.25181 
L 619.867995 428.766587 
L 620.860701 422.825796 
L 621.853407 428.291291 
L 622.846113 434.433096 
L 623.838819 426.012297 
L 624.831525 434.988909 
L 625.824231 418.930908 
L 626.816936 418.231537 
L 627.809642 444.288661 
L 628.802348 417.385422 
L 629.795054 422.253429 
L 630.78776 423.652499 
L 631.780466 429.071242 
L 632.773172 452.352221 
L 633.765878 452.928937 
L 634.758584 431.695554 
L 635.75129 421.987882 
L 636.743996 424.570665 
L 637.736702 425.412845 
L 638.729408 433.61437 
L 639.722114 435.094964 
L 640.714819 442.211917 
L 641.707525 428.371786 
L 642.700231 429.796328 
L 643.692937 436.638683 
L 644.685643 453.123712 
L 645.678349 440.159452 
L 646.671055 432.566485 
L 647.663761 452.125163 
L 648.656467 431.04383 
L 649.649173 444.131902 
L 650.641879 437.64518 
L 651.634585 436.29339 
L 652.627291 430.294405 
L 653.619996 432.521998 
L 654.612702 447.586445 
L 655.605408 428.690698 
L 656.598114 432.475397 
L 657.59082 431.170862 
L 658.583526 437.644434 
L 659.576232 437.535553 
L 660.568938 456.982739 
L 661.561644 437.525687 
L 662.55435 433.865695 
L 663.547056 447.294082 
L 664.539762 438.045007 
L 665.532468 439.198931 
L 666.525173 435.138449 
L 667.517879 438.361864 
L 668.510585 445.635016 
L 669.503291 439.111715 
L 670.495997 434.177726 
L 671.488703 438.793902 
L 672.481409 437.920852 
L 673.474115 444.626991 
L 674.466821 436.561034 
L 675.459527 435.917676 
L 676.452233 435.954909 
L 677.444939 436.594533 
L 678.437645 438.97712 
L 679.43035 439.639586 
L 680.423056 432.961644 
L 681.415762 439.388868 
L 682.408468 436.504441 
L 683.401174 431.962491 
L 684.39388 447.97395 
L 685.386586 441.402014 
L 686.379292 436.846965 
L 687.371998 437.18019 
L 688.364704 442.49455 
L 689.35741 440.084304 
L 690.350116 439.89433 
L 691.342822 443.083776 
L 692.335527 440.663785 
L 693.328233 442.528227 
L 694.320939 441.254891 
L 695.313645 435.644876 
L 696.306351 440.536955 
L 697.299057 440.269756 
L 699.284469 439.354818 
L 700.277175 439.164271 
L 701.269881 439.559796 
L 702.262587 443.870897 
L 703.255293 440.670807 
L 704.247999 440.99897 
L 705.240705 441.562343 
L 706.23341 444.016259 
L 707.226116 440.926257 
L 708.218822 440.297304 
L 709.211528 442.530359 
L 710.204234 441.301972 
L 711.19694 438.186185 
L 712.189646 441.970298 
L 713.182352 443.347194 
L 714.175058 440.12803 
L 715.167764 441.130251 
L 716.16047 441.291983 
L 717.153176 441.976299 
L 718.145882 443.38998 
L 719.138587 439.41942 
L 720.131293 442.041849 
L 721.123999 446.032391 
L 722.116705 443.053985 
L 723.109411 442.626691 
L 724.102117 444.422868 
L 725.094823 443.99174 
L 726.087529 446.030926 
L 727.080235 444.088443 
L 730.058353 442.718275 
L 731.051059 444.874995 
L 732.043764 442.211009 
L 733.03647 444.314577 
L 734.029176 443.217611 
L 735.021882 443.298245 
L 736.014588 444.039484 
L 737.007294 443.034348 
L 738 443.498408 
L 738.992706 441.886471 
L 739.985412 443.775468 
L 740.978118 443.901144 
L 741.970824 443.283549 
L 742.96353 445.398829 
L 743.956236 443.267555 
L 744.948941 443.476799 
L 745.941647 446.131645 
L 746.934353 446.779846 
L 747.927059 443.831111 
L 748.919765 447.017056 
L 749.912471 445.295314 
L 750.905177 444.96089 
L 751.897883 443.785617 
L 752.890589 446.770816 
L 753.883295 443.419327 
L 754.876001 444.134765 
L 755.868707 444.630397 
L 756.861413 444.745481 
L 757.854118 443.998375 
L 758.846824 442.651732 
L 759.83953 444.711436 
L 760.832236 447.483397 
L 761.824942 446.435538 
L 762.817648 447.295307 
L 763.810354 446.714185 
L 764.80306 445.707948 
L 765.795766 445.869391 
L 766.788472 445.675216 
L 767.781178 446.713753 
L 768.773884 444.176274 
L 769.76659 444.945954 
L 770.759295 444.979679 
L 771.752001 447.240613 
L 772.744707 445.676603 
L 773.737413 447.984659 
L 774.730119 446.52634 
L 775.722825 447.841537 
L 776.715531 446.357646 
L 777.708237 447.851989 
L 778.700943 446.238598 
L 779.693649 446.683506 
L 780.686355 445.287125 
L 781.679061 448.242752 
L 782.671767 446.790336 
L 783.664473 445.97788 
L 784.657178 444.970233 
L 785.649884 444.905361 
L 786.64259 444.703009 
L 787.635296 447.575939 
L 788.628002 446.018137 
L 789.620708 447.456268 
L 790.613414 446.031941 
L 791.60612 447.074053 
L 792.598826 446.641084 
L 793.591532 446.94167 
L 794.584238 447.998475 
L 795.576944 447.053622 
L 796.56965 448.999904 
L 797.562355 447.862267 
L 798.555061 449.257813 
L 799.547767 449.15633 
L 800.540473 447.462522 
L 801.533179 450.528839 
L 802.525885 447.645407 
L 803.518591 447.263039 
L 804.511297 447.560129 
L 805.504003 448.422722 
L 806.496709 449.701785 
L 807.489415 449.171469 
L 808.482121 450.531233 
L 809.474827 448.217536 
L 811.460238 450.877031 
L 812.452944 448.417608 
L 813.44565 450.861315 
L 814.438356 449.879246 
L 815.431062 446.643918 
L 817.416474 448.625191 
L 818.40918 451.32789 
L 819.401886 452.678562 
L 820.394592 449.465274 
L 821.387298 451.459991 
L 822.380004 448.688535 
L 823.372709 449.076222 
L 824.365415 452.115366 
L 825.358121 449.280906 
L 826.350827 448.423305 
L 827.343533 451.14897 
L 828.336239 451.061994 
L 829.328945 447.283453 
L 830.321651 450.373548 
L 831.314357 452.674804 
L 832.307063 449.700038 
L 833.299769 448.182271 
L 834.292475 449.209841 
L 835.285181 450.963098 
L 836.277886 451.945757 
L 837.270592 452.222102 
L 838.263298 450.435857 
L 839.256004 450.826872 
L 840.24871 453.769517 
L 841.241416 453.115599 
L 842.234122 450.445985 
L 843.226828 450.382489 
L 844.219534 452.395715 
L 845.21224 450.115086 
L 846.204946 450.304747 
L 847.197652 450.625726 
L 848.190358 454.018325 
L 849.183064 450.943924 
L 850.175769 449.453848 
L 851.168475 451.710042 
L 852.161181 453.150685 
L 853.153887 451.294305 
L 854.146593 451.056786 
L 855.139299 449.837516 
L 856.132005 450.927749 
L 857.124711 450.955589 
L 858.117417 449.147633 
L 859.110123 454.669474 
L 860.102829 452.848 
L 861.095535 451.669269 
L 862.088241 452.197389 
L 863.080946 451.6453 
L 864.073652 453.749903 
L 865.066358 454.061552 
L 866.059064 449.887021 
L 867.05177 454.428986 
L 868.044476 452.628001 
L 869.037182 453.306103 
L 870.029888 451.751608 
L 871.022594 451.523334 
L 872.0153 451.939339 
L 873.008006 452.875858 
L 874.000712 454.190903 
L 874.993418 452.227012 
L 875.986123 452.455472 
L 876.978829 451.096447 
L 877.971535 450.675336 
L 878.964241 451.486023 
L 879.956947 451.515118 
L 880.949653 450.623547 
L 881.942359 452.600238 
L 882.935065 451.757269 
L 883.927771 452.429877 
L 884.920477 451.082556 
L 885.913183 451.071467 
L 886.905889 453.288669 
L 887.898595 451.916643 
L 888.8913 454.227887 
L 889.884006 451.854169 
L 890.876712 455.417308 
L 891.869418 452.538436 
L 892.862124 452.037769 
L 893.85483 454.014236 
L 894.847536 455.358664 
L 895.840242 453.215592 
L 896.832948 449.437468 
L 897.825654 454.408672 
L 898.81836 453.683506 
L 899.811066 452.785721 
L 900.803772 453.087933 
L 901.796477 455.234325 
L 903.781889 451.38578 
L 904.774595 455.791731 
L 906.760007 452.218711 
L 907.752713 454.393073 
L 908.745419 453.594977 
L 909.738125 453.608079 
L 910.730831 453.022092 
L 911.723537 454.064178 
L 912.716243 454.083826 
L 913.708949 454.609091 
L 914.701655 454.804192 
L 915.69436 454.592145 
L 916.687066 456.199492 
L 918.672478 453.811263 
L 919.665184 452.70594 
L 920.65789 453.84738 
L 921.650596 456.878593 
L 922.643302 453.073653 
L 923.636008 453.429937 
L 924.628714 454.506002 
L 925.62142 453.451637 
L 926.614126 455.237788 
L 927.606832 453.308559 
L 928.599537 454.576021 
L 929.592243 455.636085 
L 930.584949 453.912274 
L 931.577655 454.671643 
L 932.570361 456.325332 
L 933.563067 457.360518 
L 934.555773 455.124216 
L 935.548479 452.578849 
L 936.541185 454.684012 
L 937.533891 455.233223 
L 938.526597 456.821886 
L 940.512009 455.821319 
L 941.504714 453.852193 
L 942.49742 456.992804 
L 943.490126 457.005172 
L 944.482832 453.712336 
L 946.468244 458.111146 
L 947.46095 455.708626 
L 948.453656 454.663814 
L 949.446362 452.802359 
L 950.439068 453.752311 
L 951.431774 456.925954 
L 952.42448 457.442993 
L 953.417186 455.258502 
L 954.409891 458.032793 
L 955.402597 454.601706 
L 957.388009 456.729452 
L 958.380715 457.256904 
L 959.373421 456.972655 
L 960.366127 459.678825 
L 961.358833 458.328665 
L 962.351539 454.629506 
L 963.344245 456.031687 
L 964.336951 456.157752 
L 965.329657 453.333337 
L 966.322363 456.674167 
L 967.315068 455.916309 
L 969.30048 457.42967 
L 970.293186 456.338386 
L 972.278598 459.38608 
L 973.271304 455.882103 
L 974.26401 454.711606 
L 975.256716 456.00759 
L 976.249422 454.274164 
L 977.242128 458.347391 
L 978.234834 458.604419 
L 979.22754 457.840485 
L 980.220246 455.1216 
L 981.212951 458.488381 
L 982.205657 456.462872 
L 983.198363 455.247281 
L 984.191069 457.623121 
L 985.183775 456.446949 
L 986.176481 453.500994 
L 987.169187 455.451607 
L 988.161893 458.736513 
L 989.154599 454.501104 
L 990.147305 459.169 
L 991.140011 458.672592 
L 992.132717 455.904615 
L 993.125423 459.620236 
L 994.118128 456.687809 
L 995.110834 456.381376 
L 996.10354 456.859033 
L 997.096246 457.174168 
L 998.088952 456.67616 
L 999.081658 458.330288 
L 1001.06707 456.250676 
L 1002.059776 457.439234 
L 1003.052482 458.145869 
L 1004.045188 458.476882 
L 1005.037894 459.190879 
L 1006.0306 459.4326 
L 1007.023305 457.154311 
L 1008.016011 462.239357 
L 1009.008717 457.303914 
L 1010.001423 455.737466 
L 1010.994129 458.217246 
L 1011.986835 458.836184 
L 1012.979541 456.416683 
L 1013.972247 456.245455 
L 1014.964953 455.606425 
L 1015.957659 459.250513 
L 1016.950365 458.604235 
L 1017.943071 456.458578 
L 1018.935777 458.94315 
L 1019.928482 456.514592 
L 1020.921188 462.023713 
L 1021.913894 458.880584 
L 1022.9066 457.898575 
L 1023.899306 458.100513 
L 1024.892012 455.979796 
L 1025.884718 458.649501 
L 1026.877424 458.437307 
L 1027.87013 460.167126 
L 1028.862836 457.627142 
L 1029.855542 458.867712 
L 1030.848248 459.362677 
L 1031.840954 459.535735 
L 1032.833659 455.426293 
L 1033.826365 457.33879 
L 1034.819071 459.82818 
L 1035.811777 458.6009 
L 1036.804483 459.327041 
L 1037.797189 460.422385 
L 1038.789895 456.026988 
L 1039.782601 458.789053 
L 1040.775307 457.885953 
L 1041.768013 457.782117 
L 1042.760719 460.757995 
L 1043.753425 457.22411 
L 1044.746131 459.919078 
L 1045.738837 459.966316 
L 1046.731542 460.878407 
L 1047.724248 461.615678 
L 1048.716954 462.036494 
L 1049.70966 457.963888 
L 1050.702366 459.762177 
L 1051.695072 457.60807 
L 1052.687778 457.07308 
L 1053.680484 460.122252 
L 1054.67319 460.332444 
L 1055.665896 460.269796 
L 1056.658602 461.116353 
L 1057.651308 458.055568 
L 1058.644014 456.137474 
L 1059.636719 462.601501 
L 1060.629425 460.565828 
L 1061.622131 457.991434 
L 1062.614837 460.831937 
L 1063.607543 459.290351 
L 1064.600249 459.402046 
L 1065.592955 458.155564 
L 1066.585661 460.500532 
L 1067.578367 460.081045 
L 1068.571073 460.894203 
L 1069.563779 460.974499 
L 1070.556485 459.505854 
L 1071.549191 459.343227 
L 1072.541896 457.625722 
L 1073.534602 460.002399 
L 1074.527308 459.811442 
L 1075.520014 460.060809 
L 1076.51272 460.090195 
L 1077.505426 457.431834 
L 1078.498132 458.517836 
L 1079.490838 461.247327 
L 1080.483544 462.684384 
L 1081.47625 458.608174 
L 1082.468956 459.665639 
L 1083.461662 461.163183 
L 1084.454368 459.875623 
L 1085.447073 457.427154 
L 1086.439779 458.552812 
L 1087.432485 459.036733 
L 1088.425191 463.011655 
L 1089.417897 459.120368 
L 1090.410603 461.883422 
L 1092.396015 460.252307 
L 1093.388721 459.861224 
L 1094.381427 463.524567 
L 1095.374133 461.842639 
L 1096.366839 460.514086 
L 1097.359545 458.690496 
L 1098.35225 460.621309 
L 1099.344956 460.772434 
L 1100.337662 462.1542 
L 1101.330368 460.61963 
L 1102.323074 461.706237 
L 1103.31578 459.123427 
L 1104.308486 458.761624 
L 1105.301192 460.08252 
L 1106.293898 461.605029 
L 1107.286604 459.106405 
L 1108.27931 460.13126 
L 1109.272016 460.864977 
L 1110.264722 459.905494 
L 1111.257428 463.305778 
L 1112.250133 462.505474 
L 1113.242839 458.640976 
L 1114.235545 461.355231 
L 1115.228251 462.574889 
L 1116.220957 461.42841 
L 1117.213663 460.998496 
L 1118.206369 461.068653 
L 1119.199075 460.715456 
L 1121.184487 457.106804 
L 1122.177193 459.066575 
L 1123.169899 462.194439 
L 1125.15531 458.482412 
L 1126.148016 462.302034 
L 1127.140722 460.359447 
L 1128.133428 457.106067 
L 1129.126134 458.354728 
L 1130.11884 463.484779 
L 1131.111546 459.006978 
L 1132.104252 461.759728 
L 1133.096958 460.63623 
L 1134.089664 458.287357 
L 1135.08237 461.070176 
L 1136.075076 462.63034 
L 1138.060487 460.978988 
L 1139.053193 461.897424 
L 1140.045899 460.285461 
L 1141.038605 460.284419 
L 1142.031311 459.377581 
L 1143.024017 460.030647 
L 1144.016723 459.36817 
L 1145.009429 459.552582 
L 1146.002135 460.864873 
L 1146.994841 460.564187 
L 1147.987547 463.080765 
L 1149.972959 459.892165 
L 1150.965664 459.795255 
L 1151.95837 458.90087 
L 1152.951076 462.967694 
L 1153.943782 461.415949 
L 1154.936488 458.474588 
L 1155.929194 460.874489 
L 1156.9219 460.125632 
L 1157.914606 462.114714 
L 1158.907312 460.447759 
L 1159.900018 462.413747 
L 1160.892724 462.596407 
L 1161.88543 462.080431 
L 1162.878136 462.300601 
L 1163.870841 460.106396 
L 1164.863547 461.090976 
L 1166.848959 461.029718 
L 1167.841665 463.467782 
L 1168.834371 460.911565 
L 1169.827077 459.015544 
L 1171.812489 460.166255 
L 1172.805195 462.391236 
L 1173.797901 458.763471 
L 1174.790607 460.925865 
L 1175.783313 461.116154 
L 1176.776019 459.490073 
L 1177.768724 458.52942 
L 1178.76143 465.026051 
L 1179.754136 461.230193 
L 1180.746842 461.945731 
L 1181.739548 459.260465 
L 1183.72496 463.934958 
L 1184.717666 461.422558 
L 1185.710372 460.838326 
L 1186.703078 459.649327 
L 1187.695784 460.584371 
L 1188.68849 464.184549 
L 1189.681196 460.618637 
L 1190.673901 460.486797 
L 1192.659313 462.924285 
L 1193.652019 460.374308 
L 1194.644725 461.88795 
L 1195.637431 458.865483 
L 1196.630137 462.661843 
L 1197.622843 460.688858 
L 1198.615549 461.171895 
L 1199.608255 460.215978 
L 1200.600961 459.544058 
L 1201.593667 463.014072 
L 1202.586373 460.323131 
L 1203.579078 460.234444 
L 1204.571784 457.900193 
L 1205.56449 462.965115 
L 1206.557196 461.261071 
L 1207.549902 459.192686 
L 1209.535314 462.828872 
L 1210.52802 460.970467 
L 1211.520726 459.457191 
L 1212.513432 460.002037 
L 1214.498844 462.929334 
L 1215.49155 460.018043 
L 1216.484255 459.760731 
L 1217.476961 460.88498 
L 1218.469667 465.591035 
L 1219.462373 459.523416 
L 1220.455079 460.914025 
L 1221.447785 465.268839 
L 1222.440491 460.756414 
L 1224.425903 460.069456 
L 1226.411315 460.694562 
L 1227.404021 460.27572 
L 1228.396727 459.407371 
L 1229.389432 459.637339 
L 1230.382138 463.480787 
L 1231.374844 459.064991 
L 1232.36755 460.049612 
L 1233.360256 461.309469 
L 1234.352962 461.51232 
L 1235.345668 459.999602 
L 1236.338374 462.446834 
L 1237.33108 461.607391 
L 1238.323786 461.680273 
L 1239.316492 459.941116 
L 1240.309198 463.958089 
L 1241.301904 461.048049 
L 1242.29461 460.737706 
L 1243.287315 461.247181 
L 1244.280021 460.798763 
L 1245.272727 459.172849 
L 1245.272727 459.172849 
" clip-path="url(#pbf49f848c4)" style="fill: none; stroke: #1f77b4; stroke-width: 1.5; stroke-linecap: square"/>
   </g>
   <g id="patch_3">
    <path d="M 180 512.64 
L 180 69.12 
" style="fill: none; stroke: #000000; stroke-width: 0.8; stroke-linejoin: miter; stroke-linecap: square"/>
   </g>
   <g id="patch_4">
    <path d="M 1296 512.64 
L 1296 69.12 
" style="fill: none; stroke: #000000; stroke-width: 0.8; stroke-linejoin: miter; stroke-linecap: square"/>
   </g>
   <g id="patch_5">
    <path d="M 180 512.64 
L 1296 512.64 
" style="fill: none; stroke: #000000; stroke-width: 0.8; stroke-linejoin: miter; stroke-linecap: square"/>
   </g>
   <g id="patch_6">
    <path d="M 180 69.12 
L 1296 69.12 
" style="fill: none; stroke: #000000; stroke-width: 0.8; stroke-linejoin: miter; stroke-linecap: square"/>
   </g>
   <g id="text_12">
    <!-- source21-receiver2 -->
    <g transform="translate(544.9 60.80125) scale(0.4 -0.4)">
     <defs>
      <path id="DejaVuSans-73" d="M 2834 3397 
L 2834 2853 
Q 2591 2978 2328 3040 
Q 2066 3103 1784 3103 
Q 1356 3103 1142 2972 
Q 928 2841 928 2578 
Q 928 2378 1081 2264 
Q 1234 2150 1697 2047 
L 1894 2003 
Q 2506 1872 2764 1633 
Q 3022 1394 3022 966 
Q 3022 478 2636 193 
Q 2250 -91 1575 -91 
Q 1294 -91 989 -36 
Q 684 19 347 128 
L 347 722 
Q 666 556 975 473 
Q 1284 391 1588 391 
Q 1994 391 2212 530 
Q 2431 669 2431 922 
Q 2431 1156 2273 1281 
Q 2116 1406 1581 1522 
L 1381 1569 
Q 847 1681 609 1914 
Q 372 2147 372 2553 
Q 372 3047 722 3315 
Q 1072 3584 1716 3584 
Q 2034 3584 2315 3537 
Q 2597 3491 2834 3397 
z
" transform="scale(0.015625)"/>
      <path id="DejaVuSans-6f" d="M 1959 3097 
Q 1497 3097 1228 2736 
Q 959 2375 959 1747 
Q 959 1119 1226 758 
Q 1494 397 1959 397 
Q 2419 397 2687 759 
Q 2956 1122 2956 1747 
Q 2956 2369 2687 2733 
Q 2419 3097 1959 3097 
z
M 1959 3584 
Q 2709 3584 3137 3096 
Q 3566 2609 3566 1747 
Q 3566 888 3137 398 
Q 2709 -91 1959 -91 
Q 1206 -91 779 398 
Q 353 888 353 1747 
Q 353 2609 779 3096 
Q 1206 3584 1959 3584 
z
" transform="scale(0.015625)"/>
      <path id="DejaVuSans-75" d="M 544 1381 
L 544 3500 
L 1119 3500 
L 1119 1403 
Q 1119 906 1312 657 
Q 1506 409 1894 409 
Q 2359 409 2629 706 
Q 2900 1003 2900 1516 
L 2900 3500 
L 3475 3500 
L 3475 0 
L 2900 0 
L 2900 538 
Q 2691 219 2414 64 
Q 2138 -91 1772 -91 
Q 1169 -91 856 284 
Q 544 659 544 1381 
z
M 1991 3584 
L 1991 3584 
z
" transform="scale(0.015625)"/>
      <path id="DejaVuSans-72" d="M 2631 2963 
Q 2534 3019 2420 3045 
Q 2306 3072 2169 3072 
Q 1681 3072 1420 2755 
Q 1159 2438 1159 1844 
L 1159 0 
L 581 0 
L 581 3500 
L 1159 3500 
L 1159 2956 
Q 1341 3275 1631 3429 
Q 1922 3584 2338 3584 
Q 2397 3584 2469 3576 
Q 2541 3569 2628 3553 
L 2631 2963 
z
" transform="scale(0.015625)"/>
      <path id="DejaVuSans-63" d="M 3122 3366 
L 3122 2828 
Q 2878 2963 2633 3030 
Q 2388 3097 2138 3097 
Q 1578 3097 1268 2742 
Q 959 2388 959 1747 
Q 959 1106 1268 751 
Q 1578 397 2138 397 
Q 2388 397 2633 464 
Q 2878 531 3122 666 
L 3122 134 
Q 2881 22 2623 -34 
Q 2366 -91 2075 -91 
Q 1284 -91 818 406 
Q 353 903 353 1747 
Q 353 2603 823 3093 
Q 1294 3584 2113 3584 
Q 2378 3584 2631 3529 
Q 2884 3475 3122 3366 
z
" transform="scale(0.015625)"/>
      <path id="DejaVuSans-65" d="M 3597 1894 
L 3597 1613 
L 953 1613 
Q 991 1019 1311 708 
Q 1631 397 2203 397 
Q 2534 397 2845 478 
Q 3156 559 3463 722 
L 3463 178 
Q 3153 47 2828 -22 
Q 2503 -91 2169 -91 
Q 1331 -91 842 396 
Q 353 884 353 1716 
Q 353 2575 817 3079 
Q 1281 3584 2069 3584 
Q 2775 3584 3186 3129 
Q 3597 2675 3597 1894 
z
M 3022 2063 
Q 3016 2534 2758 2815 
Q 2500 3097 2075 3097 
Q 1594 3097 1305 2825 
Q 1016 2553 972 2059 
L 3022 2063 
z
" transform="scale(0.015625)"/>
      <path id="DejaVuSans-2d" d="M 313 2009 
L 1997 2009 
L 1997 1497 
L 313 1497 
L 313 2009 
z
" transform="scale(0.015625)"/>
      <path id="DejaVuSans-69" d="M 603 3500 
L 1178 3500 
L 1178 0 
L 603 0 
L 603 3500 
z
M 603 4863 
L 1178 4863 
L 1178 4134 
L 603 4134 
L 603 4863 
z
" transform="scale(0.015625)"/>
      <path id="DejaVuSans-76" d="M 191 3500 
L 800 3500 
L 1894 563 
L 2988 3500 
L 3597 3500 
L 2284 0 
L 1503 0 
L 191 3500 
z
" transform="scale(0.015625)"/>
     </defs>
     <use xlink:href="#DejaVuSans-73"/>
     <use xlink:href="#DejaVuSans-6f" x="52.099609"/>
     <use xlink:href="#DejaVuSans-75" x="113.28125"/>
     <use xlink:href="#DejaVuSans-72" x="176.660156"/>
     <use xlink:href="#DejaVuSans-63" x="215.523438"/>
     <use xlink:href="#DejaVuSans-65" x="270.503906"/>
     <use xlink:href="#DejaVuSans-32" x="332.027344"/>
     <use xlink:href="#DejaVuSans-31" x="395.650391"/>
     <use xlink:href="#DejaVuSans-2d" x="459.273438"/>
     <use xlink:href="#DejaVuSans-72" x="495.357422"/>
     <use xlink:href="#DejaVuSans-65" x="534.220703"/>
     <use xlink:href="#DejaVuSans-63" x="595.744141"/>
     <use xlink:href="#DejaVuSans-65" x="650.724609"/>
     <use xlink:href="#DejaVuSans-69" x="712.248047"/>
     <use xlink:href="#DejaVuSans-76" x="740.03125"/>
     <use xlink:href="#DejaVuSans-65" x="799.210938"/>
     <use xlink:href="#DejaVuSans-72" x="860.734375"/>
     <use xlink:href="#DejaVuSans-32" x="901.847656"/>
    </g>
   </g>
  </g>
 </g>
 <defs>
  <clipPath id="pbf49f848c4">
   <rect x="180" y="69.12" width="1116" height="443.52"/>
  </clipPath>
 </defs>
</svg>
