<?xml version="1.0" encoding="utf-8" standalone="no"?>
<!DOCTYPE svg PUBLIC "-//W3C//DTD SVG 1.1//EN"
  "http://www.w3.org/Graphics/SVG/1.1/DTD/svg11.dtd">
<svg xmlns:xlink="http://www.w3.org/1999/xlink" width="1440pt" height="576pt" viewBox="0 0 1440 576" xmlns="http://www.w3.org/2000/svg" version="1.1">
 <metadata>
  <rdf:RDF xmlns:dc="http://purl.org/dc/elements/1.1/" xmlns:cc="http://creativecommons.org/ns#" xmlns:rdf="http://www.w3.org/1999/02/22-rdf-syntax-ns#">
   <cc:Work>
    <dc:type rdf:resource="http://purl.org/dc/dcmitype/StillImage"/>
    <dc:date>2024-05-22T04:50:20.673115</dc:date>
    <dc:format>image/svg+xml</dc:format>
    <dc:creator>
     <cc:Agent>
      <dc:title>Matplotlib v3.8.3, https://matplotlib.org/</dc:title>
     </cc:Agent>
    </dc:creator>
   </cc:Work>
  </rdf:RDF>
 </metadata>
 <defs>
  <style type="text/css">*{stroke-linejoin: round; stroke-linecap: butt}</style>
 </defs>
 <g id="figure_1">
  <g id="patch_1">
   <path d="M 0 576 
L 1440 576 
L 1440 0 
L 0 0 
z
" style="fill: #ffffff"/>
  </g>
  <g id="axes_1">
   <g id="patch_2">
    <path d="M 180 512.64 
L 1296 512.64 
L 1296 69.12 
L 180 69.12 
z
" style="fill: #ffffff"/>
   </g>
   <g id="matplotlib.axis_1">
    <g id="xtick_1">
     <g id="line2d_1">
      <defs>
       <path id="m82107e2881" d="M 0 0 
L 0 3.5 
" style="stroke: #000000; stroke-width: 0.8"/>
      </defs>
      <g>
       <use xlink:href="#m82107e2881" x="229.734567" y="512.64" style="stroke: #000000; stroke-width: 0.8"/>
      </g>
     </g>
     <g id="text_1">
      <!-- 0 -->
      <g transform="translate(226.553317 527.238438) scale(0.1 -0.1)">
       <defs>
        <path id="DejaVuSans-30" d="M 2034 4250 
Q 1547 4250 1301 3770 
Q 1056 3291 1056 2328 
Q 1056 1369 1301 889 
Q 1547 409 2034 409 
Q 2525 409 2770 889 
Q 3016 1369 3016 2328 
Q 3016 3291 2770 3770 
Q 2525 4250 2034 4250 
z
M 2034 4750 
Q 2819 4750 3233 4129 
Q 3647 3509 3647 2328 
Q 3647 1150 3233 529 
Q 2819 -91 2034 -91 
Q 1250 -91 836 529 
Q 422 1150 422 2328 
Q 422 3509 836 4129 
Q 1250 4750 2034 4750 
z
" transform="scale(0.015625)"/>
       </defs>
       <use xlink:href="#DejaVuSans-30"/>
      </g>
     </g>
    </g>
    <g id="xtick_2">
     <g id="line2d_2">
      <g>
       <use xlink:href="#m82107e2881" x="433.04074" y="512.64" style="stroke: #000000; stroke-width: 0.8"/>
      </g>
     </g>
     <g id="text_2">
      <!-- 500 -->
      <g transform="translate(423.49699 527.238438) scale(0.1 -0.1)">
       <defs>
        <path id="DejaVuSans-35" d="M 691 4666 
L 3169 4666 
L 3169 4134 
L 1269 4134 
L 1269 2991 
Q 1406 3038 1543 3061 
Q 1681 3084 1819 3084 
Q 2600 3084 3056 2656 
Q 3513 2228 3513 1497 
Q 3513 744 3044 326 
Q 2575 -91 1722 -91 
Q 1428 -91 1123 -41 
Q 819 9 494 109 
L 494 744 
Q 775 591 1075 516 
Q 1375 441 1709 441 
Q 2250 441 2565 725 
Q 2881 1009 2881 1497 
Q 2881 1984 2565 2268 
Q 2250 2553 1709 2553 
Q 1456 2553 1204 2497 
Q 953 2441 691 2322 
L 691 4666 
z
" transform="scale(0.015625)"/>
       </defs>
       <use xlink:href="#DejaVuSans-35"/>
       <use xlink:href="#DejaVuSans-30" x="63.623047"/>
       <use xlink:href="#DejaVuSans-30" x="127.246094"/>
      </g>
     </g>
    </g>
    <g id="xtick_3">
     <g id="line2d_3">
      <g>
       <use xlink:href="#m82107e2881" x="636.346913" y="512.64" style="stroke: #000000; stroke-width: 0.8"/>
      </g>
     </g>
     <g id="text_3">
      <!-- 1000 -->
      <g transform="translate(623.621913 527.238438) scale(0.1 -0.1)">
       <defs>
        <path id="DejaVuSans-31" d="M 794 531 
L 1825 531 
L 1825 4091 
L 703 3866 
L 703 4441 
L 1819 4666 
L 2450 4666 
L 2450 531 
L 3481 531 
L 3481 0 
L 794 0 
L 794 531 
z
" transform="scale(0.015625)"/>
       </defs>
       <use xlink:href="#DejaVuSans-31"/>
       <use xlink:href="#DejaVuSans-30" x="63.623047"/>
       <use xlink:href="#DejaVuSans-30" x="127.246094"/>
       <use xlink:href="#DejaVuSans-30" x="190.869141"/>
      </g>
     </g>
    </g>
    <g id="xtick_4">
     <g id="line2d_4">
      <g>
       <use xlink:href="#m82107e2881" x="839.653087" y="512.64" style="stroke: #000000; stroke-width: 0.8"/>
      </g>
     </g>
     <g id="text_4">
      <!-- 1500 -->
      <g transform="translate(826.928087 527.238438) scale(0.1 -0.1)">
       <use xlink:href="#DejaVuSans-31"/>
       <use xlink:href="#DejaVuSans-35" x="63.623047"/>
       <use xlink:href="#DejaVuSans-30" x="127.246094"/>
       <use xlink:href="#DejaVuSans-30" x="190.869141"/>
      </g>
     </g>
    </g>
    <g id="xtick_5">
     <g id="line2d_5">
      <g>
       <use xlink:href="#m82107e2881" x="1042.95926" y="512.64" style="stroke: #000000; stroke-width: 0.8"/>
      </g>
     </g>
     <g id="text_5">
      <!-- 2000 -->
      <g transform="translate(1030.23426 527.238438) scale(0.1 -0.1)">
       <defs>
        <path id="DejaVuSans-32" d="M 1228 531 
L 3431 531 
L 3431 0 
L 469 0 
L 469 531 
Q 828 903 1448 1529 
Q 2069 2156 2228 2338 
Q 2531 2678 2651 2914 
Q 2772 3150 2772 3378 
Q 2772 3750 2511 3984 
Q 2250 4219 1831 4219 
Q 1534 4219 1204 4116 
Q 875 4013 500 3803 
L 500 4441 
Q 881 4594 1212 4672 
Q 1544 4750 1819 4750 
Q 2544 4750 2975 4387 
Q 3406 4025 3406 3419 
Q 3406 3131 3298 2873 
Q 3191 2616 2906 2266 
Q 2828 2175 2409 1742 
Q 1991 1309 1228 531 
z
" transform="scale(0.015625)"/>
       </defs>
       <use xlink:href="#DejaVuSans-32"/>
       <use xlink:href="#DejaVuSans-30" x="63.623047"/>
       <use xlink:href="#DejaVuSans-30" x="127.246094"/>
       <use xlink:href="#DejaVuSans-30" x="190.869141"/>
      </g>
     </g>
    </g>
    <g id="xtick_6">
     <g id="line2d_6">
      <g>
       <use xlink:href="#m82107e2881" x="1246.265433" y="512.64" style="stroke: #000000; stroke-width: 0.8"/>
      </g>
     </g>
     <g id="text_6">
      <!-- 2500 -->
      <g transform="translate(1233.540433 527.238438) scale(0.1 -0.1)">
       <use xlink:href="#DejaVuSans-32"/>
       <use xlink:href="#DejaVuSans-35" x="63.623047"/>
       <use xlink:href="#DejaVuSans-30" x="127.246094"/>
       <use xlink:href="#DejaVuSans-30" x="190.869141"/>
      </g>
     </g>
    </g>
   </g>
   <g id="matplotlib.axis_2">
    <g id="ytick_1">
     <g id="line2d_7">
      <defs>
       <path id="m2ba76164d9" d="M 0 0 
L -3.5 0 
" style="stroke: #000000; stroke-width: 0.8"/>
      </defs>
      <g>
       <use xlink:href="#m2ba76164d9" x="180" y="503.251748" style="stroke: #000000; stroke-width: 0.8"/>
      </g>
     </g>
     <g id="text_7">
      <!-- −8 -->
      <g transform="translate(158.257812 507.050966) scale(0.1 -0.1)">
       <defs>
        <path id="DejaVuSans-2212" d="M 678 2272 
L 4684 2272 
L 4684 1741 
L 678 1741 
L 678 2272 
z
" transform="scale(0.015625)"/>
        <path id="DejaVuSans-38" d="M 2034 2216 
Q 1584 2216 1326 1975 
Q 1069 1734 1069 1313 
Q 1069 891 1326 650 
Q 1584 409 2034 409 
Q 2484 409 2743 651 
Q 3003 894 3003 1313 
Q 3003 1734 2745 1975 
Q 2488 2216 2034 2216 
z
M 1403 2484 
Q 997 2584 770 2862 
Q 544 3141 544 3541 
Q 544 4100 942 4425 
Q 1341 4750 2034 4750 
Q 2731 4750 3128 4425 
Q 3525 4100 3525 3541 
Q 3525 3141 3298 2862 
Q 3072 2584 2669 2484 
Q 3125 2378 3379 2068 
Q 3634 1759 3634 1313 
Q 3634 634 3220 271 
Q 2806 -91 2034 -91 
Q 1263 -91 848 271 
Q 434 634 434 1313 
Q 434 1759 690 2068 
Q 947 2378 1403 2484 
z
M 1172 3481 
Q 1172 3119 1398 2916 
Q 1625 2713 2034 2713 
Q 2441 2713 2670 2916 
Q 2900 3119 2900 3481 
Q 2900 3844 2670 4047 
Q 2441 4250 2034 4250 
Q 1625 4250 1398 4047 
Q 1172 3844 1172 3481 
z
" transform="scale(0.015625)"/>
       </defs>
       <use xlink:href="#DejaVuSans-2212"/>
       <use xlink:href="#DejaVuSans-38" x="83.789062"/>
      </g>
     </g>
    </g>
    <g id="ytick_2">
     <g id="line2d_8">
      <g>
       <use xlink:href="#m2ba76164d9" x="180" y="435.16669" style="stroke: #000000; stroke-width: 0.8"/>
      </g>
     </g>
     <g id="text_8">
      <!-- −6 -->
      <g transform="translate(158.257812 438.965909) scale(0.1 -0.1)">
       <defs>
        <path id="DejaVuSans-36" d="M 2113 2584 
Q 1688 2584 1439 2293 
Q 1191 2003 1191 1497 
Q 1191 994 1439 701 
Q 1688 409 2113 409 
Q 2538 409 2786 701 
Q 3034 994 3034 1497 
Q 3034 2003 2786 2293 
Q 2538 2584 2113 2584 
z
M 3366 4563 
L 3366 3988 
Q 3128 4100 2886 4159 
Q 2644 4219 2406 4219 
Q 1781 4219 1451 3797 
Q 1122 3375 1075 2522 
Q 1259 2794 1537 2939 
Q 1816 3084 2150 3084 
Q 2853 3084 3261 2657 
Q 3669 2231 3669 1497 
Q 3669 778 3244 343 
Q 2819 -91 2113 -91 
Q 1303 -91 875 529 
Q 447 1150 447 2328 
Q 447 3434 972 4092 
Q 1497 4750 2381 4750 
Q 2619 4750 2861 4703 
Q 3103 4656 3366 4563 
z
" transform="scale(0.015625)"/>
       </defs>
       <use xlink:href="#DejaVuSans-2212"/>
       <use xlink:href="#DejaVuSans-36" x="83.789062"/>
      </g>
     </g>
    </g>
    <g id="ytick_3">
     <g id="line2d_9">
      <g>
       <use xlink:href="#m2ba76164d9" x="180" y="367.081632" style="stroke: #000000; stroke-width: 0.8"/>
      </g>
     </g>
     <g id="text_9">
      <!-- −4 -->
      <g transform="translate(158.257812 370.880851) scale(0.1 -0.1)">
       <defs>
        <path id="DejaVuSans-34" d="M 2419 4116 
L 825 1625 
L 2419 1625 
L 2419 4116 
z
M 2253 4666 
L 3047 4666 
L 3047 1625 
L 3713 1625 
L 3713 1100 
L 3047 1100 
L 3047 0 
L 2419 0 
L 2419 1100 
L 313 1100 
L 313 1709 
L 2253 4666 
z
" transform="scale(0.015625)"/>
       </defs>
       <use xlink:href="#DejaVuSans-2212"/>
       <use xlink:href="#DejaVuSans-34" x="83.789062"/>
      </g>
     </g>
    </g>
    <g id="ytick_4">
     <g id="line2d_10">
      <g>
       <use xlink:href="#m2ba76164d9" x="180" y="298.996574" style="stroke: #000000; stroke-width: 0.8"/>
      </g>
     </g>
     <g id="text_10">
      <!-- −2 -->
      <g transform="translate(158.257812 302.795793) scale(0.1 -0.1)">
       <use xlink:href="#DejaVuSans-2212"/>
       <use xlink:href="#DejaVuSans-32" x="83.789062"/>
      </g>
     </g>
    </g>
    <g id="ytick_5">
     <g id="line2d_11">
      <g>
       <use xlink:href="#m2ba76164d9" x="180" y="230.911516" style="stroke: #000000; stroke-width: 0.8"/>
      </g>
     </g>
     <g id="text_11">
      <!-- 0 -->
      <g transform="translate(166.6375 234.710735) scale(0.1 -0.1)">
       <use xlink:href="#DejaVuSans-30"/>
      </g>
     </g>
    </g>
    <g id="ytick_6">
     <g id="line2d_12">
      <g>
       <use xlink:href="#m2ba76164d9" x="180" y="162.826458" style="stroke: #000000; stroke-width: 0.8"/>
      </g>
     </g>
     <g id="text_12">
      <!-- 2 -->
      <g transform="translate(166.6375 166.625677) scale(0.1 -0.1)">
       <use xlink:href="#DejaVuSans-32"/>
      </g>
     </g>
    </g>
    <g id="ytick_7">
     <g id="line2d_13">
      <g>
       <use xlink:href="#m2ba76164d9" x="180" y="94.7414" style="stroke: #000000; stroke-width: 0.8"/>
      </g>
     </g>
     <g id="text_13">
      <!-- 4 -->
      <g transform="translate(166.6375 98.540619) scale(0.1 -0.1)">
       <use xlink:href="#DejaVuSans-34"/>
      </g>
     </g>
    </g>
   </g>
   <g id="line2d_14">
    <path d="M 230.727273 178.797418 
L 232.712685 178.03195 
L 234.698096 176.725778 
L 240.654332 172.538616 
L 242.639744 171.426161 
L 243.63245 171.142329 
L 244.625156 171.387342 
L 246.610568 173.082379 
L 247.603273 170.328454 
L 248.595979 160.691262 
L 249.588685 148.202988 
L 250.581391 138.005306 
L 251.574097 131.350994 
L 252.566803 127.527776 
L 253.559509 125.460419 
L 254.552215 124.35514 
L 255.544921 123.7683 
L 256.537627 123.470392 
L 260.50845 122.77409 
L 261.501156 122.4379 
L 263.486568 121.403348 
L 265.47198 119.929692 
L 270.43551 115.787137 
L 271.428216 115.172464 
L 272.420922 114.712627 
L 273.413627 114.434554 
L 274.406333 114.373613 
L 275.399039 114.55339 
L 276.391745 114.984582 
L 277.384451 115.677081 
L 279.369863 117.549851 
L 280.362569 118.114466 
L 281.355275 117.616745 
L 282.347981 115.392593 
L 283.340687 111.655111 
L 286.318804 98.234682 
L 287.31151 94.585188 
L 288.304216 91.823223 
L 289.296922 90.058183 
L 290.289628 89.28 
L 291.282334 89.35059 
L 292.27504 90.092747 
L 293.267746 91.360396 
L 294.260452 93.059111 
L 296.245864 97.386371 
L 298.231276 102.496057 
L 300.216687 108.220483 
L 304.187511 120.811247 
L 306.172923 126.82269 
L 308.158335 131.849516 
L 309.151041 133.852205 
L 310.143747 135.527358 
L 311.136453 136.929864 
L 313.121864 139.226263 
L 315.107276 141.55208 
L 316.099982 142.957937 
L 317.092688 144.609839 
L 318.085394 146.57498 
L 319.0781 148.877257 
L 320.070806 151.551273 
L 322.056218 157.905791 
L 324.04163 164.762896 
L 325.034336 167.423682 
L 326.027041 168.734792 
L 327.019747 168.340827 
L 328.012453 166.355214 
L 329.005159 163.350065 
L 331.983277 153.432671 
L 332.975983 150.660051 
L 333.968689 148.295026 
L 334.961395 146.323124 
L 335.954101 144.739414 
L 336.946807 143.514395 
L 337.939513 142.623075 
L 338.932218 142.061663 
L 339.924924 141.805763 
L 340.91763 141.810082 
L 341.910336 142.080982 
L 342.903042 142.561639 
L 343.895748 143.240082 
L 345.88116 145.002841 
L 348.859278 147.807604 
L 349.851984 148.477984 
L 350.84469 148.969792 
L 351.837395 149.182591 
L 352.830101 149.177571 
L 353.822807 148.9226 
L 355.808219 147.908564 
L 358.786337 146.162652 
L 359.779043 145.782656 
L 360.771749 145.594489 
L 361.764455 145.620559 
L 362.757161 145.881106 
L 363.749867 146.405142 
L 364.742572 147.232855 
L 365.735278 148.360102 
L 366.727984 149.807055 
L 367.72069 151.625965 
L 368.713396 153.832771 
L 369.706102 156.466328 
L 370.698808 159.55572 
L 371.691514 163.204653 
L 372.68422 167.411769 
L 373.676926 172.279594 
L 375.662338 183.963869 
L 376.655044 190.131984 
L 377.64775 194.983206 
L 378.640455 196.522443 
L 379.633161 194.182324 
L 380.625867 189.520725 
L 382.611279 179.415439 
L 383.603985 175.222788 
L 384.596691 171.695 
L 385.589397 168.722971 
L 386.582103 166.359863 
L 387.574809 164.426462 
L 388.567515 162.895531 
L 389.560221 161.759911 
L 390.552927 160.919225 
L 391.545632 160.365471 
L 392.538338 160.045671 
L 393.531044 159.943167 
L 394.52375 159.996016 
L 396.509162 160.473999 
L 404.450809 163.312764 
L 407.428927 164.153231 
L 409.414339 164.929576 
L 410.407045 165.452742 
L 411.399751 166.101888 
L 412.392457 166.887607 
L 413.385163 167.819741 
L 414.377869 168.926351 
L 416.363281 171.697745 
L 418.348692 175.208457 
L 420.334104 179.515487 
L 422.319516 184.547319 
L 425.297634 193.13806 
L 427.283046 198.931265 
L 429.268458 204.014641 
L 430.261163 205.865951 
L 431.253869 207.214099 
L 432.246575 207.921828 
L 433.239281 207.962971 
L 434.231987 207.269097 
L 435.224693 206.18128 
L 436.217399 204.483547 
L 438.202811 200.33567 
L 444.159046 186.540188 
L 446.144458 182.791362 
L 448.12987 179.746381 
L 449.122576 178.487304 
L 451.107988 176.549339 
L 452.100694 175.903762 
L 453.0934 175.409314 
L 454.086106 175.152977 
L 455.078812 175.058156 
L 456.071518 175.133488 
L 457.064223 175.44063 
L 458.056929 175.906572 
L 459.049635 176.589834 
L 460.042341 177.425314 
L 461.035047 178.473704 
L 462.027753 179.695783 
L 464.013165 182.700759 
L 465.998577 186.515055 
L 467.983989 191.14663 
L 469.9694 196.911538 
L 470.962106 200.296017 
L 471.954812 204.089734 
L 472.947518 208.421823 
L 473.940224 213.340314 
L 474.93293 219.115205 
L 475.925636 225.890272 
L 476.918342 233.972696 
L 478.903754 252.768384 
L 479.89646 255.576578 
L 480.889166 248.223732 
L 482.874577 229.453846 
L 483.867283 222.007838 
L 484.859989 215.800059 
L 485.852695 210.601505 
L 486.845401 206.267387 
L 487.838107 202.572354 
L 488.830813 199.413032 
L 489.823519 196.69393 
L 490.816225 194.423491 
L 491.808931 192.551754 
L 492.801637 191.012202 
L 493.794343 189.80125 
L 494.787049 188.9096 
L 495.779754 188.297889 
L 496.77246 187.993195 
L 497.765166 187.980269 
L 498.757872 188.23232 
L 499.750578 188.789746 
L 500.743284 189.647076 
L 501.73599 190.746768 
L 502.728696 192.127241 
L 503.721402 193.870034 
L 504.714108 195.941685 
L 505.706814 198.310414 
L 507.692226 204.028568 
L 509.677637 210.895193 
L 511.663049 218.290373 
L 512.655755 221.641104 
L 513.648461 224.266137 
L 514.641167 225.867575 
L 515.633873 226.116638 
L 516.626579 225.258613 
L 517.619285 223.595108 
L 521.590109 215.919761 
L 522.582814 214.406812 
L 524.568226 212.077597 
L 525.560932 211.206972 
L 527.546344 210.028898 
L 529.531756 209.191437 
L 530.524462 208.824548 
L 533.50258 208.146774 
L 535.487991 207.992649 
L 536.480697 208.129006 
L 537.473403 208.438094 
L 538.466109 208.895742 
L 539.458815 209.61015 
L 540.451521 210.611322 
L 541.444227 211.965029 
L 542.436933 213.688223 
L 543.429639 215.992092 
L 544.422345 218.70863 
L 545.415051 222.293385 
L 546.407757 226.632254 
L 547.400463 232.179662 
L 548.393168 238.959662 
L 550.37858 257.015846 
L 551.371286 262.401434 
L 552.363992 256.674214 
L 554.349404 236.442487 
L 555.34211 228.252461 
L 556.334816 221.487515 
L 557.327522 215.902262 
L 558.320228 211.214082 
L 559.312934 207.291205 
L 560.30564 203.965181 
L 561.298345 201.219569 
L 562.291051 198.884796 
L 563.283757 196.979455 
L 564.276463 195.413067 
L 565.269169 194.250147 
L 566.261875 193.292789 
L 567.254581 192.705342 
L 568.247287 192.45434 
L 569.239993 192.465803 
L 570.232699 192.739319 
L 571.225405 193.270649 
L 572.218111 194.085496 
L 573.210817 195.183347 
L 575.196228 198.172446 
L 577.18164 202.370657 
L 579.167052 207.723224 
L 581.152464 214.513117 
L 582.14517 218.425209 
L 584.130582 227.839591 
L 585.123288 233.349028 
L 587.1087 245.99529 
L 589.094111 262.201856 
L 591.079523 280.608714 
L 592.072229 287.123705 
L 593.064935 286.916519 
L 594.057641 281.425559 
L 597.035759 262.836576 
L 598.028465 257.333794 
L 601.006582 243.320968 
L 602.991994 235.730948 
L 604.977406 229.363042 
L 606.962818 224.218951 
L 607.955524 222.15383 
L 608.94823 220.356182 
L 609.940936 218.802937 
L 610.933642 217.557804 
L 611.926348 216.62934 
L 612.919054 215.934887 
L 613.911759 215.434044 
L 614.904465 215.361628 
L 615.897171 215.496944 
L 616.889877 215.861793 
L 617.882583 216.480752 
L 618.875289 217.473465 
L 619.867995 218.666252 
L 620.860701 220.081309 
L 621.853407 221.894123 
L 623.838819 226.304171 
L 624.831525 228.995548 
L 626.816936 235.555743 
L 627.809642 239.412027 
L 629.795054 248.675553 
L 630.78776 254.088985 
L 631.780466 260.316153 
L 633.765878 275.143042 
L 635.75129 295.088332 
L 636.743996 307.063525 
L 637.736702 315.044171 
L 638.729408 316.089846 
L 639.722114 309.507183 
L 640.714819 302.148287 
L 641.707525 295.961908 
L 643.692937 286.196854 
L 646.671055 275.315555 
L 647.663761 271.801257 
L 651.634585 260.980381 
L 653.619996 257.092171 
L 654.612702 255.568977 
L 655.605408 254.403559 
L 656.598114 253.458088 
L 657.59082 252.963149 
L 659.576232 252.487483 
L 660.568938 252.877329 
L 661.561644 253.403966 
L 663.547056 255.568716 
L 664.539762 256.986986 
L 665.532468 258.697176 
L 669.503291 266.560927 
L 670.495997 268.12537 
L 671.488703 269.143405 
L 672.481409 269.528871 
L 673.474115 269.272576 
L 674.466821 268.572477 
L 676.452233 266.022178 
L 678.437645 263.207205 
L 679.43035 261.874172 
L 681.415762 260.22795 
L 682.408468 259.846659 
L 683.401174 259.649361 
L 684.39388 259.631145 
L 686.379292 260.956085 
L 687.371998 262.114828 
L 688.364704 263.656344 
L 690.350116 267.764947 
L 691.342822 270.48523 
L 693.328233 277.137533 
L 694.320939 281.323735 
L 696.306351 291.475433 
L 698.291763 302.963823 
L 699.284469 307.606189 
L 700.277175 309.870019 
L 701.269881 309.181663 
L 702.262587 305.051755 
L 704.247999 296.130709 
L 705.240705 292.15025 
L 707.226116 286.359152 
L 709.211528 282.58795 
L 710.204234 281.400157 
L 711.19694 280.417474 
L 712.189646 280.097052 
L 713.182352 280.019012 
L 714.175058 280.420179 
L 715.167764 281.351028 
L 716.16047 282.54667 
L 718.145882 286.716645 
L 719.138587 289.299507 
L 721.123999 296.439955 
L 722.116705 300.603729 
L 723.109411 304.196024 
L 724.102117 307.037308 
L 725.094823 307.81042 
L 726.087529 305.515342 
L 727.080235 301.192477 
L 729.065647 290.794915 
L 731.051059 281.876953 
L 733.03647 275.179274 
L 734.029176 272.526556 
L 735.021882 270.223365 
L 736.014588 268.432364 
L 737.007294 266.962111 
L 738 265.93321 
L 738.992706 265.242804 
L 739.985412 264.990963 
L 740.978118 265.258637 
L 741.970824 265.780852 
L 742.96353 266.627634 
L 743.956236 267.971628 
L 744.948941 269.609909 
L 746.934353 275.026281 
L 747.927059 278.578855 
L 748.919765 282.803604 
L 749.912471 287.727662 
L 752.890589 306.212934 
L 753.883295 308.568619 
L 754.876001 306.01603 
L 755.868707 300.704913 
L 756.861413 293.983432 
L 757.854118 288.232365 
L 759.83953 278.977321 
L 760.832236 275.405711 
L 761.824942 272.607488 
L 762.817648 270.280897 
L 763.810354 268.288416 
L 765.795766 266.10541 
L 766.788472 265.669646 
L 767.781178 265.619737 
L 768.773884 265.963459 
L 769.76659 266.616046 
L 770.759295 267.62556 
L 772.744707 270.828788 
L 774.730119 275.288965 
L 776.715531 280.932838 
L 778.700943 286.499395 
L 779.693649 288.487677 
L 780.686355 289.560749 
L 781.679061 289.837824 
L 782.671767 289.429828 
L 783.664473 288.062728 
L 785.649884 284.699663 
L 786.64259 283.459384 
L 787.635296 282.031449 
L 788.628002 281.153619 
L 789.620708 280.679392 
L 790.613414 280.651438 
L 791.60612 281.045444 
L 792.598826 282.01411 
L 793.591532 283.237399 
L 794.584238 284.787363 
L 796.56965 289.542294 
L 799.547767 299.102435 
L 800.540473 301.375542 
L 801.533179 301.847789 
L 802.525885 300.412527 
L 803.518591 297.380812 
L 806.496709 285.600926 
L 807.489415 282.095994 
L 809.474827 276.391499 
L 810.467532 274.276175 
L 811.460238 272.511962 
L 812.452944 271.165134 
L 813.44565 270.183456 
L 814.438356 269.78863 
L 815.431062 269.628884 
L 816.423768 269.913128 
L 817.416474 270.435304 
L 818.40918 271.50834 
L 819.401886 272.795128 
L 820.394592 274.733716 
L 821.387298 277.063006 
L 822.380004 279.820904 
L 823.372709 283.252895 
L 824.365415 287.109642 
L 826.350827 296.649258 
L 827.343533 301.830148 
L 828.336239 306.046017 
L 829.328945 307.950095 
L 830.321651 307.490149 
L 831.314357 303.590554 
L 834.292475 289.987679 
L 835.285181 286.466051 
L 837.270592 280.701143 
L 838.263298 278.513014 
L 839.256004 276.950615 
L 840.24871 275.749571 
L 841.241416 274.880154 
L 842.234122 274.374234 
L 843.226828 274.29168 
L 844.219534 274.512962 
L 845.21224 275.031654 
L 846.204946 275.989145 
L 847.197652 277.110354 
L 848.190358 278.756625 
L 849.183064 280.6546 
L 851.168475 285.429871 
L 854.146593 294.746581 
L 855.139299 298.252401 
L 857.124711 304.180889 
L 858.117417 306.319209 
L 859.110123 307.377488 
L 860.102829 307.757547 
L 861.095535 307.292987 
L 863.080946 304.381273 
L 864.073652 302.400874 
L 866.059064 299.491405 
L 867.05177 298.425134 
L 868.044476 297.022514 
L 870.029888 295.363545 
L 871.022594 294.892071 
L 872.0153 294.047843 
L 873.008006 293.772587 
L 874.993418 292.16947 
L 877.971535 290.001793 
L 878.964241 289.071848 
L 879.956947 287.969296 
L 881.942359 286.427475 
L 882.935065 285.935419 
L 884.920477 285.521214 
L 885.913183 285.513843 
L 886.905889 285.782858 
L 888.8913 287.447432 
L 889.884006 288.872269 
L 890.876712 290.671785 
L 891.869418 293.029231 
L 892.862124 295.997407 
L 893.85483 299.875932 
L 894.847536 304.795233 
L 895.840242 310.6701 
L 896.832948 317.529943 
L 897.825654 326.656299 
L 898.81836 337.072012 
L 899.811066 344.960405 
L 900.803772 339.514723 
L 901.796477 327.973889 
L 902.789183 317.868664 
L 903.781889 309.020334 
L 904.774595 302.314903 
L 905.767301 296.981883 
L 906.760007 292.543609 
L 907.752713 288.767895 
L 908.745419 285.598946 
L 909.738125 283.197002 
L 910.730831 281.20735 
L 911.723537 279.696643 
L 912.716243 278.566467 
L 913.708949 277.71074 
L 914.701655 277.284283 
L 915.69436 277.413629 
L 916.687066 277.805541 
L 917.679772 278.485653 
L 918.672478 279.690137 
L 919.665184 281.328235 
L 921.650596 285.939633 
L 922.643302 289.269271 
L 923.636008 293.044795 
L 924.628714 297.84041 
L 925.62142 304.001428 
L 926.614126 311.529001 
L 927.606832 321.908985 
L 928.599537 338.343443 
L 929.592243 368.177246 
L 930.584949 394.072692 
L 931.577655 347.27051 
L 932.570361 328.325374 
L 933.563067 316.439788 
L 934.555773 308.283923 
L 935.548479 302.255429 
L 936.541185 297.619806 
L 937.533891 293.746136 
L 938.526597 290.741626 
L 939.519303 288.415403 
L 940.512009 286.566229 
L 941.504714 285.36705 
L 942.49742 284.582327 
L 943.490126 284.216853 
L 944.482832 284.214368 
L 945.475538 284.628666 
L 946.468244 285.537432 
L 947.46095 286.760639 
L 948.453656 288.320654 
L 949.446362 290.516082 
L 950.439068 293.150721 
L 951.431774 296.175359 
L 952.42448 299.953953 
L 953.417186 304.396587 
L 954.409891 309.674314 
L 955.402597 315.792159 
L 957.388009 332.259151 
L 958.380715 341.92744 
L 959.373421 346.65377 
L 960.366127 344.973347 
L 961.358833 336.926972 
L 963.344245 323.158798 
L 964.336951 317.851132 
L 965.329657 313.735483 
L 966.322363 310.162906 
L 968.307774 305.521998 
L 970.293186 303.433443 
L 972.278598 302.72139 
L 973.271304 303.041862 
L 974.26401 303.233984 
L 976.249422 304.356363 
L 977.242128 305.363124 
L 978.234834 306.109234 
L 980.220246 307.92283 
L 981.212951 308.598958 
L 982.205657 308.666783 
L 983.198363 309.035888 
L 984.191069 308.808203 
L 985.183775 308.737848 
L 986.176481 308.332713 
L 987.169187 308.190091 
L 989.154599 308.133731 
L 991.140011 309.076314 
L 992.132717 309.910928 
L 994.118128 312.640286 
L 996.10354 317.395736 
L 997.096246 321.194292 
L 998.088952 324.540367 
L 1002.059776 345.1099 
L 1003.052482 347.794612 
L 1004.045188 344.321329 
L 1005.037894 338.598742 
L 1006.0306 332.042958 
L 1008.016011 320.981858 
L 1009.008717 316.810169 
L 1010.001423 313.306218 
L 1011.986835 307.544265 
L 1012.979541 305.586509 
L 1013.972247 303.906642 
L 1014.964953 302.687317 
L 1015.957659 302.028257 
L 1016.950365 301.816086 
L 1017.943071 301.839486 
L 1018.935777 302.097559 
L 1019.928482 302.679912 
L 1021.913894 305.352343 
L 1023.899306 309.781889 
L 1024.892012 313.011035 
L 1026.877424 321.175555 
L 1027.87013 327.062619 
L 1028.862836 334.469443 
L 1029.855542 343.532099 
L 1030.848248 355.190046 
L 1031.840954 372.135955 
L 1032.833659 384.930117 
L 1034.819071 356.20772 
L 1035.811777 344.78695 
L 1036.804483 337.199783 
L 1037.797189 331.13525 
L 1038.789895 326.355224 
L 1039.782601 322.301803 
L 1040.775307 319.371187 
L 1041.768013 317.321143 
L 1042.760719 315.589985 
L 1043.753425 314.506791 
L 1044.746131 313.827332 
L 1045.738837 313.493701 
L 1046.731542 313.299146 
L 1047.724248 313.617251 
L 1049.70966 315.151363 
L 1050.702366 316.855352 
L 1051.695072 318.136609 
L 1053.680484 321.660594 
L 1054.67319 323.520269 
L 1056.658602 327.92377 
L 1057.651308 329.788365 
L 1058.644014 330.640127 
L 1059.636719 332.22929 
L 1060.629425 332.784275 
L 1062.614837 334.65057 
L 1063.607543 336.033656 
L 1064.600249 336.910665 
L 1065.592955 337.466741 
L 1066.585661 339.451718 
L 1067.578367 340.635232 
L 1068.571073 342.778438 
L 1069.563779 346.267466 
L 1070.556485 350.348633 
L 1071.549191 353.665665 
L 1072.541896 359.4657 
L 1073.534602 361.896403 
L 1074.527308 362.61398 
L 1075.520014 359.742326 
L 1078.498132 343.639414 
L 1079.490838 337.669995 
L 1080.483544 332.876386 
L 1082.468956 325.010779 
L 1084.454368 319.347021 
L 1085.447073 317.190763 
L 1086.439779 315.852599 
L 1087.432485 314.319809 
L 1088.425191 313.11225 
L 1089.417897 312.079871 
L 1091.403309 312.189011 
L 1092.396015 312.146844 
L 1093.388721 313.32461 
L 1095.374133 316.232314 
L 1096.366839 318.345753 
L 1097.359545 320.766687 
L 1098.35225 323.773054 
L 1100.337662 331.434391 
L 1103.31578 347.048174 
L 1104.308486 349.694776 
L 1105.301192 348.602078 
L 1106.293898 346.269534 
L 1108.27931 335.502784 
L 1109.272016 331.489419 
L 1110.264722 326.51772 
L 1113.242839 317.090605 
L 1114.235545 315.423599 
L 1115.228251 313.403146 
L 1116.220957 312.025661 
L 1117.213663 311.56084 
L 1118.206369 310.894789 
L 1119.199075 310.587385 
L 1120.191781 310.61828 
L 1121.184487 311.182941 
L 1124.162605 314.640621 
L 1125.15531 316.533347 
L 1126.148016 318.785418 
L 1128.133428 324.450586 
L 1130.11884 331.766802 
L 1134.089664 351.533594 
L 1135.08237 354.125637 
L 1136.075076 354.526362 
L 1137.067782 352.551348 
L 1138.060487 350.853011 
L 1139.053193 346.327775 
L 1140.045899 342.434414 
L 1141.038605 339.688912 
L 1142.031311 336.193544 
L 1143.024017 334.250055 
L 1146.002135 330.056261 
L 1147.987547 328.66257 
L 1150.965664 329.031679 
L 1151.95837 330.219696 
L 1152.951076 330.794448 
L 1154.936488 334.400976 
L 1155.929194 335.674299 
L 1156.9219 338.257218 
L 1157.914606 340.407725 
L 1158.907312 342.092454 
L 1159.900018 345.604383 
L 1160.892724 347.062683 
L 1161.88543 350.245231 
L 1162.878136 352.485486 
L 1163.870841 355.002217 
L 1164.863547 358.159781 
L 1165.856253 360.789754 
L 1166.848959 364.707572 
L 1168.834371 374.251423 
L 1170.819783 385.748559 
L 1171.812489 392.241774 
L 1172.805195 397.152724 
L 1173.797901 395.546474 
L 1174.790607 386.295445 
L 1175.783313 379.813523 
L 1176.776019 370.812374 
L 1177.768724 366.405684 
L 1178.76143 359.110138 
L 1179.754136 355.347054 
L 1181.739548 346.300582 
L 1182.732254 343.628372 
L 1183.72496 340.265239 
L 1184.717666 337.414144 
L 1185.710372 336.538753 
L 1186.703078 334.31971 
L 1187.695784 333.024429 
L 1189.681196 331.990801 
L 1190.673901 331.260191 
L 1191.666607 331.214661 
L 1192.659313 330.659704 
L 1193.652019 331.295126 
L 1194.644725 332.34798 
L 1195.637431 332.495424 
L 1196.630137 333.640143 
L 1198.615549 336.64502 
L 1199.608255 338.984271 
L 1202.586373 344.887636 
L 1205.56449 349.592082 
L 1206.557196 350.120517 
L 1207.549902 349.958844 
L 1208.542608 350.128377 
L 1209.535314 349.076628 
L 1210.52802 347.263098 
L 1212.513432 344.605996 
L 1213.506138 342.411786 
L 1214.498844 340.88145 
L 1215.49155 340.446601 
L 1216.484255 339.327714 
L 1218.469667 338.874215 
L 1219.462373 338.355031 
L 1220.455079 338.391077 
L 1221.447785 339.136462 
L 1222.440491 339.082355 
L 1223.433197 340.453881 
L 1224.425903 341.59321 
L 1225.418609 342.285513 
L 1226.411315 344.501619 
L 1227.404021 346.396259 
L 1228.396727 349.457768 
L 1229.389432 353.19216 
L 1230.382138 355.750179 
L 1231.374844 360.124059 
L 1232.36755 362.783387 
L 1233.360256 370.196068 
L 1234.352962 374.147843 
L 1235.345668 380.568226 
L 1237.33108 399.20789 
L 1238.323786 413.139897 
L 1239.316492 432.216464 
L 1241.301904 492.48 
L 1242.29461 433.217825 
L 1243.287315 418.953201 
L 1244.280021 415.776684 
L 1245.272727 406.635391 
L 1245.272727 406.635391 
" clip-path="url(#p38601fb8c9)" style="fill: none; stroke: #1f77b4; stroke-width: 1.5; stroke-linecap: square"/>
   </g>
   <g id="patch_3">
    <path d="M 180 512.64 
L 180 69.12 
" style="fill: none; stroke: #000000; stroke-width: 0.8; stroke-linejoin: miter; stroke-linecap: square"/>
   </g>
   <g id="patch_4">
    <path d="M 1296 512.64 
L 1296 69.12 
" style="fill: none; stroke: #000000; stroke-width: 0.8; stroke-linejoin: miter; stroke-linecap: square"/>
   </g>
   <g id="patch_5">
    <path d="M 180 512.64 
L 1296 512.64 
" style="fill: none; stroke: #000000; stroke-width: 0.8; stroke-linejoin: miter; stroke-linecap: square"/>
   </g>
   <g id="patch_6">
    <path d="M 180 69.12 
L 1296 69.12 
" style="fill: none; stroke: #000000; stroke-width: 0.8; stroke-linejoin: miter; stroke-linecap: square"/>
   </g>
   <g id="text_14">
    <!-- source21-receiver21 -->
    <g transform="translate(532.175 60.80125) scale(0.4 -0.4)">
     <defs>
      <path id="DejaVuSans-73" d="M 2834 3397 
L 2834 2853 
Q 2591 2978 2328 3040 
Q 2066 3103 1784 3103 
Q 1356 3103 1142 2972 
Q 928 2841 928 2578 
Q 928 2378 1081 2264 
Q 1234 2150 1697 2047 
L 1894 2003 
Q 2506 1872 2764 1633 
Q 3022 1394 3022 966 
Q 3022 478 2636 193 
Q 2250 -91 1575 -91 
Q 1294 -91 989 -36 
Q 684 19 347 128 
L 347 722 
Q 666 556 975 473 
Q 1284 391 1588 391 
Q 1994 391 2212 530 
Q 2431 669 2431 922 
Q 2431 1156 2273 1281 
Q 2116 1406 1581 1522 
L 1381 1569 
Q 847 1681 609 1914 
Q 372 2147 372 2553 
Q 372 3047 722 3315 
Q 1072 3584 1716 3584 
Q 2034 3584 2315 3537 
Q 2597 3491 2834 3397 
z
" transform="scale(0.015625)"/>
      <path id="DejaVuSans-6f" d="M 1959 3097 
Q 1497 3097 1228 2736 
Q 959 2375 959 1747 
Q 959 1119 1226 758 
Q 1494 397 1959 397 
Q 2419 397 2687 759 
Q 2956 1122 2956 1747 
Q 2956 2369 2687 2733 
Q 2419 3097 1959 3097 
z
M 1959 3584 
Q 2709 3584 3137 3096 
Q 3566 2609 3566 1747 
Q 3566 888 3137 398 
Q 2709 -91 1959 -91 
Q 1206 -91 779 398 
Q 353 888 353 1747 
Q 353 2609 779 3096 
Q 1206 3584 1959 3584 
z
" transform="scale(0.015625)"/>
      <path id="DejaVuSans-75" d="M 544 1381 
L 544 3500 
L 1119 3500 
L 1119 1403 
Q 1119 906 1312 657 
Q 1506 409 1894 409 
Q 2359 409 2629 706 
Q 2900 1003 2900 1516 
L 2900 3500 
L 3475 3500 
L 3475 0 
L 2900 0 
L 2900 538 
Q 2691 219 2414 64 
Q 2138 -91 1772 -91 
Q 1169 -91 856 284 
Q 544 659 544 1381 
z
M 1991 3584 
L 1991 3584 
z
" transform="scale(0.015625)"/>
      <path id="DejaVuSans-72" d="M 2631 2963 
Q 2534 3019 2420 3045 
Q 2306 3072 2169 3072 
Q 1681 3072 1420 2755 
Q 1159 2438 1159 1844 
L 1159 0 
L 581 0 
L 581 3500 
L 1159 3500 
L 1159 2956 
Q 1341 3275 1631 3429 
Q 1922 3584 2338 3584 
Q 2397 3584 2469 3576 
Q 2541 3569 2628 3553 
L 2631 2963 
z
" transform="scale(0.015625)"/>
      <path id="DejaVuSans-63" d="M 3122 3366 
L 3122 2828 
Q 2878 2963 2633 3030 
Q 2388 3097 2138 3097 
Q 1578 3097 1268 2742 
Q 959 2388 959 1747 
Q 959 1106 1268 751 
Q 1578 397 2138 397 
Q 2388 397 2633 464 
Q 2878 531 3122 666 
L 3122 134 
Q 2881 22 2623 -34 
Q 2366 -91 2075 -91 
Q 1284 -91 818 406 
Q 353 903 353 1747 
Q 353 2603 823 3093 
Q 1294 3584 2113 3584 
Q 2378 3584 2631 3529 
Q 2884 3475 3122 3366 
z
" transform="scale(0.015625)"/>
      <path id="DejaVuSans-65" d="M 3597 1894 
L 3597 1613 
L 953 1613 
Q 991 1019 1311 708 
Q 1631 397 2203 397 
Q 2534 397 2845 478 
Q 3156 559 3463 722 
L 3463 178 
Q 3153 47 2828 -22 
Q 2503 -91 2169 -91 
Q 1331 -91 842 396 
Q 353 884 353 1716 
Q 353 2575 817 3079 
Q 1281 3584 2069 3584 
Q 2775 3584 3186 3129 
Q 3597 2675 3597 1894 
z
M 3022 2063 
Q 3016 2534 2758 2815 
Q 2500 3097 2075 3097 
Q 1594 3097 1305 2825 
Q 1016 2553 972 2059 
L 3022 2063 
z
" transform="scale(0.015625)"/>
      <path id="DejaVuSans-2d" d="M 313 2009 
L 1997 2009 
L 1997 1497 
L 313 1497 
L 313 2009 
z
" transform="scale(0.015625)"/>
      <path id="DejaVuSans-69" d="M 603 3500 
L 1178 3500 
L 1178 0 
L 603 0 
L 603 3500 
z
M 603 4863 
L 1178 4863 
L 1178 4134 
L 603 4134 
L 603 4863 
z
" transform="scale(0.015625)"/>
      <path id="DejaVuSans-76" d="M 191 3500 
L 800 3500 
L 1894 563 
L 2988 3500 
L 3597 3500 
L 2284 0 
L 1503 0 
L 191 3500 
z
" transform="scale(0.015625)"/>
     </defs>
     <use xlink:href="#DejaVuSans-73"/>
     <use xlink:href="#DejaVuSans-6f" x="52.099609"/>
     <use xlink:href="#DejaVuSans-75" x="113.28125"/>
     <use xlink:href="#DejaVuSans-72" x="176.660156"/>
     <use xlink:href="#DejaVuSans-63" x="215.523438"/>
     <use xlink:href="#DejaVuSans-65" x="270.503906"/>
     <use xlink:href="#DejaVuSans-32" x="332.027344"/>
     <use xlink:href="#DejaVuSans-31" x="395.650391"/>
     <use xlink:href="#DejaVuSans-2d" x="459.273438"/>
     <use xlink:href="#DejaVuSans-72" x="495.357422"/>
     <use xlink:href="#DejaVuSans-65" x="534.220703"/>
     <use xlink:href="#DejaVuSans-63" x="595.744141"/>
     <use xlink:href="#DejaVuSans-65" x="650.724609"/>
     <use xlink:href="#DejaVuSans-69" x="712.248047"/>
     <use xlink:href="#DejaVuSans-76" x="740.03125"/>
     <use xlink:href="#DejaVuSans-65" x="799.210938"/>
     <use xlink:href="#DejaVuSans-72" x="860.734375"/>
     <use xlink:href="#DejaVuSans-32" x="901.847656"/>
     <use xlink:href="#DejaVuSans-31" x="965.470703"/>
    </g>
   </g>
  </g>
 </g>
 <defs>
  <clipPath id="p38601fb8c9">
   <rect x="180" y="69.12" width="1116" height="443.52"/>
  </clipPath>
 </defs>
</svg>
