<?xml version="1.0" encoding="utf-8" standalone="no"?>
<!DOCTYPE svg PUBLIC "-//W3C//DTD SVG 1.1//EN"
  "http://www.w3.org/Graphics/SVG/1.1/DTD/svg11.dtd">
<svg xmlns:xlink="http://www.w3.org/1999/xlink" width="1440pt" height="576pt" viewBox="0 0 1440 576" xmlns="http://www.w3.org/2000/svg" version="1.1">
 <metadata>
  <rdf:RDF xmlns:dc="http://purl.org/dc/elements/1.1/" xmlns:cc="http://creativecommons.org/ns#" xmlns:rdf="http://www.w3.org/1999/02/22-rdf-syntax-ns#">
   <cc:Work>
    <dc:type rdf:resource="http://purl.org/dc/dcmitype/StillImage"/>
    <dc:date>2024-05-22T04:50:19.466317</dc:date>
    <dc:format>image/svg+xml</dc:format>
    <dc:creator>
     <cc:Agent>
      <dc:title>Matplotlib v3.8.3, https://matplotlib.org/</dc:title>
     </cc:Agent>
    </dc:creator>
   </cc:Work>
  </rdf:RDF>
 </metadata>
 <defs>
  <style type="text/css">*{stroke-linejoin: round; stroke-linecap: butt}</style>
 </defs>
 <g id="figure_1">
  <g id="patch_1">
   <path d="M 0 576 
L 1440 576 
L 1440 0 
L 0 0 
z
" style="fill: #ffffff"/>
  </g>
  <g id="axes_1">
   <g id="patch_2">
    <path d="M 180 512.64 
L 1296 512.64 
L 1296 69.12 
L 180 69.12 
z
" style="fill: #ffffff"/>
   </g>
   <g id="matplotlib.axis_1">
    <g id="xtick_1">
     <g id="line2d_1">
      <defs>
       <path id="m5571b70c2e" d="M 0 0 
L 0 3.5 
" style="stroke: #000000; stroke-width: 0.8"/>
      </defs>
      <g>
       <use xlink:href="#m5571b70c2e" x="229.734567" y="512.64" style="stroke: #000000; stroke-width: 0.8"/>
      </g>
     </g>
     <g id="text_1">
      <!-- 0 -->
      <g transform="translate(226.553317 527.238438) scale(0.1 -0.1)">
       <defs>
        <path id="DejaVuSans-30" d="M 2034 4250 
Q 1547 4250 1301 3770 
Q 1056 3291 1056 2328 
Q 1056 1369 1301 889 
Q 1547 409 2034 409 
Q 2525 409 2770 889 
Q 3016 1369 3016 2328 
Q 3016 3291 2770 3770 
Q 2525 4250 2034 4250 
z
M 2034 4750 
Q 2819 4750 3233 4129 
Q 3647 3509 3647 2328 
Q 3647 1150 3233 529 
Q 2819 -91 2034 -91 
Q 1250 -91 836 529 
Q 422 1150 422 2328 
Q 422 3509 836 4129 
Q 1250 4750 2034 4750 
z
" transform="scale(0.015625)"/>
       </defs>
       <use xlink:href="#DejaVuSans-30"/>
      </g>
     </g>
    </g>
    <g id="xtick_2">
     <g id="line2d_2">
      <g>
       <use xlink:href="#m5571b70c2e" x="433.04074" y="512.64" style="stroke: #000000; stroke-width: 0.8"/>
      </g>
     </g>
     <g id="text_2">
      <!-- 500 -->
      <g transform="translate(423.49699 527.238438) scale(0.1 -0.1)">
       <defs>
        <path id="DejaVuSans-35" d="M 691 4666 
L 3169 4666 
L 3169 4134 
L 1269 4134 
L 1269 2991 
Q 1406 3038 1543 3061 
Q 1681 3084 1819 3084 
Q 2600 3084 3056 2656 
Q 3513 2228 3513 1497 
Q 3513 744 3044 326 
Q 2575 -91 1722 -91 
Q 1428 -91 1123 -41 
Q 819 9 494 109 
L 494 744 
Q 775 591 1075 516 
Q 1375 441 1709 441 
Q 2250 441 2565 725 
Q 2881 1009 2881 1497 
Q 2881 1984 2565 2268 
Q 2250 2553 1709 2553 
Q 1456 2553 1204 2497 
Q 953 2441 691 2322 
L 691 4666 
z
" transform="scale(0.015625)"/>
       </defs>
       <use xlink:href="#DejaVuSans-35"/>
       <use xlink:href="#DejaVuSans-30" x="63.623047"/>
       <use xlink:href="#DejaVuSans-30" x="127.246094"/>
      </g>
     </g>
    </g>
    <g id="xtick_3">
     <g id="line2d_3">
      <g>
       <use xlink:href="#m5571b70c2e" x="636.346913" y="512.64" style="stroke: #000000; stroke-width: 0.8"/>
      </g>
     </g>
     <g id="text_3">
      <!-- 1000 -->
      <g transform="translate(623.621913 527.238438) scale(0.1 -0.1)">
       <defs>
        <path id="DejaVuSans-31" d="M 794 531 
L 1825 531 
L 1825 4091 
L 703 3866 
L 703 4441 
L 1819 4666 
L 2450 4666 
L 2450 531 
L 3481 531 
L 3481 0 
L 794 0 
L 794 531 
z
" transform="scale(0.015625)"/>
       </defs>
       <use xlink:href="#DejaVuSans-31"/>
       <use xlink:href="#DejaVuSans-30" x="63.623047"/>
       <use xlink:href="#DejaVuSans-30" x="127.246094"/>
       <use xlink:href="#DejaVuSans-30" x="190.869141"/>
      </g>
     </g>
    </g>
    <g id="xtick_4">
     <g id="line2d_4">
      <g>
       <use xlink:href="#m5571b70c2e" x="839.653087" y="512.64" style="stroke: #000000; stroke-width: 0.8"/>
      </g>
     </g>
     <g id="text_4">
      <!-- 1500 -->
      <g transform="translate(826.928087 527.238438) scale(0.1 -0.1)">
       <use xlink:href="#DejaVuSans-31"/>
       <use xlink:href="#DejaVuSans-35" x="63.623047"/>
       <use xlink:href="#DejaVuSans-30" x="127.246094"/>
       <use xlink:href="#DejaVuSans-30" x="190.869141"/>
      </g>
     </g>
    </g>
    <g id="xtick_5">
     <g id="line2d_5">
      <g>
       <use xlink:href="#m5571b70c2e" x="1042.95926" y="512.64" style="stroke: #000000; stroke-width: 0.8"/>
      </g>
     </g>
     <g id="text_5">
      <!-- 2000 -->
      <g transform="translate(1030.23426 527.238438) scale(0.1 -0.1)">
       <defs>
        <path id="DejaVuSans-32" d="M 1228 531 
L 3431 531 
L 3431 0 
L 469 0 
L 469 531 
Q 828 903 1448 1529 
Q 2069 2156 2228 2338 
Q 2531 2678 2651 2914 
Q 2772 3150 2772 3378 
Q 2772 3750 2511 3984 
Q 2250 4219 1831 4219 
Q 1534 4219 1204 4116 
Q 875 4013 500 3803 
L 500 4441 
Q 881 4594 1212 4672 
Q 1544 4750 1819 4750 
Q 2544 4750 2975 4387 
Q 3406 4025 3406 3419 
Q 3406 3131 3298 2873 
Q 3191 2616 2906 2266 
Q 2828 2175 2409 1742 
Q 1991 1309 1228 531 
z
" transform="scale(0.015625)"/>
       </defs>
       <use xlink:href="#DejaVuSans-32"/>
       <use xlink:href="#DejaVuSans-30" x="63.623047"/>
       <use xlink:href="#DejaVuSans-30" x="127.246094"/>
       <use xlink:href="#DejaVuSans-30" x="190.869141"/>
      </g>
     </g>
    </g>
    <g id="xtick_6">
     <g id="line2d_6">
      <g>
       <use xlink:href="#m5571b70c2e" x="1246.265433" y="512.64" style="stroke: #000000; stroke-width: 0.8"/>
      </g>
     </g>
     <g id="text_6">
      <!-- 2500 -->
      <g transform="translate(1233.540433 527.238438) scale(0.1 -0.1)">
       <use xlink:href="#DejaVuSans-32"/>
       <use xlink:href="#DejaVuSans-35" x="63.623047"/>
       <use xlink:href="#DejaVuSans-30" x="127.246094"/>
       <use xlink:href="#DejaVuSans-30" x="190.869141"/>
      </g>
     </g>
    </g>
   </g>
   <g id="matplotlib.axis_2">
    <g id="ytick_1">
     <g id="line2d_7">
      <defs>
       <path id="m15dea4048a" d="M 0 0 
L -3.5 0 
" style="stroke: #000000; stroke-width: 0.8"/>
      </defs>
      <g>
       <use xlink:href="#m15dea4048a" x="180" y="506.402475" style="stroke: #000000; stroke-width: 0.8"/>
      </g>
     </g>
     <g id="text_7">
      <!-- −6 -->
      <g transform="translate(158.257812 510.201694) scale(0.1 -0.1)">
       <defs>
        <path id="DejaVuSans-2212" d="M 678 2272 
L 4684 2272 
L 4684 1741 
L 678 1741 
L 678 2272 
z
" transform="scale(0.015625)"/>
        <path id="DejaVuSans-36" d="M 2113 2584 
Q 1688 2584 1439 2293 
Q 1191 2003 1191 1497 
Q 1191 994 1439 701 
Q 1688 409 2113 409 
Q 2538 409 2786 701 
Q 3034 994 3034 1497 
Q 3034 2003 2786 2293 
Q 2538 2584 2113 2584 
z
M 3366 4563 
L 3366 3988 
Q 3128 4100 2886 4159 
Q 2644 4219 2406 4219 
Q 1781 4219 1451 3797 
Q 1122 3375 1075 2522 
Q 1259 2794 1537 2939 
Q 1816 3084 2150 3084 
Q 2853 3084 3261 2657 
Q 3669 2231 3669 1497 
Q 3669 778 3244 343 
Q 2819 -91 2113 -91 
Q 1303 -91 875 529 
Q 447 1150 447 2328 
Q 447 3434 972 4092 
Q 1497 4750 2381 4750 
Q 2619 4750 2861 4703 
Q 3103 4656 3366 4563 
z
" transform="scale(0.015625)"/>
       </defs>
       <use xlink:href="#DejaVuSans-2212"/>
       <use xlink:href="#DejaVuSans-36" x="83.789062"/>
      </g>
     </g>
    </g>
    <g id="ytick_2">
     <g id="line2d_8">
      <g>
       <use xlink:href="#m15dea4048a" x="180" y="429.927575" style="stroke: #000000; stroke-width: 0.8"/>
      </g>
     </g>
     <g id="text_8">
      <!-- −4 -->
      <g transform="translate(158.257812 433.726794) scale(0.1 -0.1)">
       <defs>
        <path id="DejaVuSans-34" d="M 2419 4116 
L 825 1625 
L 2419 1625 
L 2419 4116 
z
M 2253 4666 
L 3047 4666 
L 3047 1625 
L 3713 1625 
L 3713 1100 
L 3047 1100 
L 3047 0 
L 2419 0 
L 2419 1100 
L 313 1100 
L 313 1709 
L 2253 4666 
z
" transform="scale(0.015625)"/>
       </defs>
       <use xlink:href="#DejaVuSans-2212"/>
       <use xlink:href="#DejaVuSans-34" x="83.789062"/>
      </g>
     </g>
    </g>
    <g id="ytick_3">
     <g id="line2d_9">
      <g>
       <use xlink:href="#m15dea4048a" x="180" y="353.452675" style="stroke: #000000; stroke-width: 0.8"/>
      </g>
     </g>
     <g id="text_9">
      <!-- −2 -->
      <g transform="translate(158.257812 357.251893) scale(0.1 -0.1)">
       <use xlink:href="#DejaVuSans-2212"/>
       <use xlink:href="#DejaVuSans-32" x="83.789062"/>
      </g>
     </g>
    </g>
    <g id="ytick_4">
     <g id="line2d_10">
      <g>
       <use xlink:href="#m15dea4048a" x="180" y="276.977774" style="stroke: #000000; stroke-width: 0.8"/>
      </g>
     </g>
     <g id="text_10">
      <!-- 0 -->
      <g transform="translate(166.6375 280.776993) scale(0.1 -0.1)">
       <use xlink:href="#DejaVuSans-30"/>
      </g>
     </g>
    </g>
    <g id="ytick_5">
     <g id="line2d_11">
      <g>
       <use xlink:href="#m15dea4048a" x="180" y="200.502874" style="stroke: #000000; stroke-width: 0.8"/>
      </g>
     </g>
     <g id="text_11">
      <!-- 2 -->
      <g transform="translate(166.6375 204.302093) scale(0.1 -0.1)">
       <use xlink:href="#DejaVuSans-32"/>
      </g>
     </g>
    </g>
    <g id="ytick_6">
     <g id="line2d_12">
      <g>
       <use xlink:href="#m15dea4048a" x="180" y="124.027974" style="stroke: #000000; stroke-width: 0.8"/>
      </g>
     </g>
     <g id="text_12">
      <!-- 4 -->
      <g transform="translate(166.6375 127.827193) scale(0.1 -0.1)">
       <use xlink:href="#DejaVuSans-34"/>
      </g>
     </g>
    </g>
   </g>
   <g id="line2d_13">
    <path d="M 230.727273 366.625676 
L 231.719979 364.219164 
L 232.712685 364.437923 
L 233.70539 362.644258 
L 234.698096 359.346108 
L 235.690802 357.285871 
L 237.676214 349.967679 
L 239.661626 341.42537 
L 241.647038 331.574849 
L 242.639744 325.64497 
L 245.617862 304.586329 
L 247.603273 257.895207 
L 248.595979 250.683384 
L 249.588685 266.695892 
L 250.581391 262.827191 
L 251.574097 226.795803 
L 252.566803 221.389743 
L 253.559509 248.490157 
L 254.552215 216.740513 
L 255.544921 192.533874 
L 256.537627 189.816805 
L 257.530333 206.824148 
L 258.523039 266.689695 
L 259.515745 238.350826 
L 261.501156 218.029932 
L 262.493862 183.480635 
L 263.486568 166.944538 
L 264.479274 170.308845 
L 265.47198 204.152836 
L 266.464686 176.573757 
L 267.457392 156.254058 
L 268.450098 161.765232 
L 269.442804 199.246324 
L 271.428216 161.59109 
L 272.420922 166.044173 
L 273.413627 175.740088 
L 274.406333 150.507659 
L 275.399039 136.866231 
L 276.391745 143.197735 
L 277.384451 189.505446 
L 278.377157 177.116813 
L 280.362569 170.250962 
L 281.355275 115.406428 
L 282.347981 95.437055 
L 283.340687 89.28 
L 284.333393 91.839957 
L 285.326099 98.29727 
L 286.318804 103.367529 
L 287.31151 104.447271 
L 288.304216 104.050073 
L 289.296922 109.767967 
L 290.289628 129.057231 
L 291.282334 157.173354 
L 292.27504 152.941851 
L 293.267746 163.567847 
L 294.260452 197.803689 
L 295.253158 198.903843 
L 296.245864 204.819696 
L 297.23857 212.064082 
L 298.231276 248.452591 
L 299.223981 223.29394 
L 300.216687 211.53451 
L 301.209393 224.040938 
L 302.202099 215.460346 
L 303.194805 219.791864 
L 304.187511 230.190451 
L 305.180217 231.359184 
L 306.172923 251.434999 
L 307.165629 241.782898 
L 308.158335 243.959658 
L 309.151041 253.670393 
L 310.143747 250.614534 
L 311.136453 266.002179 
L 312.129159 263.168034 
L 313.121864 270.745858 
L 314.11457 319.570001 
L 315.107276 294.020684 
L 316.099982 322.716431 
L 317.092688 322.280332 
L 318.085394 310.554858 
L 319.0781 368.068158 
L 320.070806 320.996101 
L 321.063512 335.799006 
L 322.056218 335.724834 
L 323.048924 345.294271 
L 324.04163 339.516199 
L 325.034336 337.471166 
L 326.027041 352.124644 
L 327.019747 342.999981 
L 328.012453 341.473098 
L 329.005159 331.482952 
L 329.997865 337.914761 
L 330.990571 356.570811 
L 331.983277 327.750427 
L 332.975983 378.116227 
L 333.968689 338.355886 
L 334.961395 338.246945 
L 335.954101 341.484078 
L 336.946807 343.578961 
L 337.939513 382.401537 
L 338.932218 328.459196 
L 339.924924 353.953707 
L 340.91763 369.733287 
L 341.910336 335.329489 
L 342.903042 334.444045 
L 343.895748 356.36997 
L 344.888454 352.101099 
L 345.88116 336.06351 
L 346.873866 382.143368 
L 347.866572 337.492007 
L 348.859278 335.057335 
L 349.851984 366.298149 
L 350.84469 330.692448 
L 351.837395 364.486103 
L 352.830101 346.602524 
L 353.822807 332.160151 
L 354.815513 458.276107 
L 355.808219 325.512642 
L 356.800925 347.731788 
L 357.793631 357.552026 
L 358.786337 340.510496 
L 359.779043 370.257483 
L 360.771749 346.502845 
L 361.764455 360.436721 
L 362.757161 356.723024 
L 363.749867 351.912943 
L 364.742572 381.909795 
L 365.735278 357.439569 
L 366.727984 358.419512 
L 367.72069 365.929188 
L 368.713396 347.580791 
L 369.706102 379.392827 
L 370.698808 381.081882 
L 371.691514 355.192563 
L 372.68422 352.915047 
L 373.676926 353.93611 
L 374.669632 371.632388 
L 375.662338 352.169399 
L 376.655044 378.127383 
L 378.640455 349.265491 
L 379.633161 388.3146 
L 380.625867 368.709013 
L 381.618573 354.199248 
L 382.611279 372.922222 
L 383.603985 385.90021 
L 384.596691 371.896285 
L 385.589397 377.153618 
L 386.582103 355.779145 
L 387.574809 390.583535 
L 388.567515 365.506136 
L 389.560221 366.610326 
L 390.552927 356.487545 
L 391.545632 375.159068 
L 392.538338 370.760942 
L 393.531044 365.54746 
L 394.52375 353.611159 
L 395.516456 370.933907 
L 396.509162 379.529389 
L 397.501868 355.276209 
L 398.494574 372.318897 
L 399.48728 376.552566 
L 400.479986 352.252003 
L 401.472692 387.456018 
L 403.458104 367.391892 
L 404.450809 434.753629 
L 405.443515 360.842752 
L 406.436221 393.846815 
L 407.428927 382.167079 
L 408.421633 367.573752 
L 409.414339 374.26939 
L 410.407045 386.338065 
L 411.399751 382.71659 
L 412.392457 373.787034 
L 413.385163 369.928054 
L 414.377869 375.261692 
L 415.370575 373.492237 
L 416.363281 367.104583 
L 417.355986 375.16327 
L 418.348692 371.488306 
L 419.341398 381.045923 
L 420.334104 385.732835 
L 421.32681 363.131017 
L 422.319516 367.969801 
L 423.312222 379.49308 
L 424.304928 371.730458 
L 425.297634 377.477761 
L 426.29034 385.356677 
L 427.283046 369.530767 
L 428.275752 409.255623 
L 429.268458 372.969068 
L 430.261163 380.223556 
L 431.253869 399.772883 
L 432.246575 387.552106 
L 433.239281 390.71305 
L 434.231987 372.234244 
L 435.224693 362.533634 
L 436.217399 366.545125 
L 437.210105 372.175128 
L 438.202811 394.03774 
L 439.195517 370.019836 
L 440.188223 396.350363 
L 442.173635 381.171865 
L 443.166341 397.130631 
L 444.159046 438.548898 
L 445.151752 368.025129 
L 446.144458 410.934791 
L 447.137164 378.324205 
L 448.12987 370.301431 
L 449.122576 379.449281 
L 450.115282 361.172953 
L 451.107988 404.99169 
L 452.100694 361.62871 
L 453.0934 367.347658 
L 454.086106 369.215514 
L 455.078812 392.346764 
L 456.071518 400.023602 
L 457.064223 383.591537 
L 458.056929 400.660886 
L 459.049635 382.305526 
L 460.042341 385.910734 
L 461.035047 403.408188 
L 462.027753 399.330796 
L 463.020459 390.087044 
L 464.013165 390.371079 
L 465.005871 404.207401 
L 465.998577 369.110837 
L 466.991283 382.046673 
L 467.983989 404.922001 
L 468.976695 367.11943 
L 469.9694 382.854124 
L 470.962106 391.17356 
L 471.954812 388.771747 
L 472.947518 399.751812 
L 473.940224 380.078321 
L 474.93293 377.436142 
L 475.925636 406.709571 
L 476.918342 373.598373 
L 477.911048 379.549296 
L 478.903754 384.081839 
L 479.89646 427.850475 
L 480.889166 376.508124 
L 481.881872 389.954042 
L 482.874577 406.215622 
L 483.867283 395.748052 
L 484.859989 396.333627 
L 485.852695 389.904427 
L 486.845401 397.300326 
L 487.838107 411.532326 
L 488.830813 380.629723 
L 489.823519 405.599024 
L 490.816225 377.093916 
L 491.808931 371.877611 
L 492.801637 388.907608 
L 493.794343 391.625838 
L 494.787049 385.930123 
L 495.779754 371.91593 
L 496.77246 377.096249 
L 497.765166 405.899919 
L 499.750578 382.829254 
L 500.743284 378.654357 
L 501.73599 365.015131 
L 502.728696 379.277453 
L 503.721402 384.109816 
L 504.714108 401.834912 
L 505.706814 425.496063 
L 506.69952 380.329282 
L 507.692226 394.826002 
L 508.684932 378.315081 
L 509.677637 377.630419 
L 510.670343 394.047787 
L 511.663049 407.843242 
L 512.655755 392.169721 
L 513.648461 373.253151 
L 514.641167 386.611022 
L 515.633873 391.623202 
L 516.626579 393.887335 
L 517.619285 400.119368 
L 518.611991 401.195979 
L 519.604697 383.863799 
L 520.597403 368.792485 
L 521.590109 402.268441 
L 522.582814 384.177103 
L 523.57552 383.289109 
L 524.568226 383.19105 
L 525.560932 409.641656 
L 526.553638 383.396514 
L 527.546344 401.32944 
L 528.53905 377.083252 
L 529.531756 400.913099 
L 530.524462 383.572408 
L 531.517168 393.763979 
L 532.509874 395.955354 
L 533.50258 365.070551 
L 534.495286 405.505679 
L 535.487991 435.818927 
L 536.480697 371.343237 
L 537.473403 384.606438 
L 538.466109 372.477705 
L 539.458815 374.114224 
L 540.451521 390.850719 
L 541.444227 369.894961 
L 542.436933 398.678857 
L 543.429639 414.315571 
L 544.422345 378.51274 
L 545.415051 443.809845 
L 546.407757 401.354025 
L 547.400463 392.993838 
L 549.385874 492.48 
L 550.37858 388.683011 
L 551.371286 398.738145 
L 552.363992 367.248895 
L 553.356698 450.927234 
L 554.349404 402.908912 
L 555.34211 383.169345 
L 556.334816 404.69826 
L 557.327522 368.405084 
L 558.320228 404.259709 
L 559.312934 390.872376 
L 560.30564 383.338567 
L 561.298345 397.88329 
L 562.291051 407.182521 
L 563.283757 403.919836 
L 564.276463 409.579656 
L 565.269169 406.218248 
L 566.261875 393.528417 
L 567.254581 393.293202 
L 568.247287 381.552409 
L 569.239993 377.688334 
L 570.232699 409.917124 
L 571.225405 379.060305 
L 572.218111 432.216436 
L 573.210817 400.738494 
L 574.203523 378.616983 
L 576.188934 391.97871 
L 577.18164 436.495572 
L 579.167052 393.316559 
L 580.159758 386.005689 
L 582.14517 401.71841 
L 584.130582 455.124786 
L 585.123288 421.738277 
L 586.115994 375.142004 
L 587.1087 404.395806 
L 588.101405 399.927264 
L 589.094111 401.575628 
L 590.086817 421.557625 
L 591.079523 393.49421 
L 592.072229 402.090855 
L 593.064935 391.392682 
L 594.057641 403.998123 
L 595.050347 400.617837 
L 596.043053 460.993276 
L 597.035759 407.052275 
L 598.028465 393.008314 
L 599.021171 437.837545 
L 600.013877 420.671139 
L 601.006582 401.503625 
L 601.999288 420.823085 
L 602.991994 399.442789 
L 603.9847 394.812246 
L 604.977406 404.91854 
L 605.970112 442.860569 
L 606.962818 383.731286 
L 607.955524 416.531309 
L 609.940936 380.936033 
L 610.933642 406.589546 
L 611.926348 411.026319 
L 612.919054 419.288205 
L 613.911759 410.814952 
L 614.904465 412.684918 
L 615.897171 405.198838 
L 616.889877 394.629437 
L 617.882583 406.600709 
L 618.875289 394.274315 
L 619.867995 406.320427 
L 620.860701 415.714078 
L 621.853407 402.690948 
L 622.846113 407.178979 
L 623.838819 413.358748 
L 624.831525 416.615873 
L 625.824231 410.268275 
L 626.816936 408.456874 
L 627.809642 424.912118 
L 628.802348 444.849295 
L 629.795054 408.52967 
L 630.78776 404.470808 
L 631.780466 401.563582 
L 632.773172 404.408292 
L 633.765878 414.602198 
L 634.758584 403.074367 
L 635.75129 420.940456 
L 637.736702 402.615572 
L 638.729408 417.886401 
L 639.722114 415.702079 
L 640.714819 415.337374 
L 641.707525 401.717084 
L 642.700231 410.206186 
L 643.692937 402.850367 
L 644.685643 398.400714 
L 645.678349 430.684038 
L 646.671055 404.305703 
L 647.663761 399.902866 
L 648.656467 413.374176 
L 649.649173 418.150937 
L 650.641879 430.478009 
L 651.634585 412.630614 
L 652.627291 413.089618 
L 653.619996 408.890337 
L 654.612702 401.529176 
L 655.605408 408.854552 
L 656.598114 408.684267 
L 657.59082 401.63965 
L 658.583526 410.542813 
L 659.576232 411.224691 
L 660.568938 413.349583 
L 661.561644 406.893038 
L 662.55435 416.836918 
L 663.547056 416.383101 
L 664.539762 413.499429 
L 665.532468 418.028102 
L 666.525173 413.600193 
L 667.517879 416.992218 
L 668.510585 412.088357 
L 669.503291 410.262586 
L 670.495997 409.833532 
L 671.488703 418.712144 
L 672.481409 412.931699 
L 673.474115 410.596882 
L 674.466821 410.956066 
L 675.459527 420.951614 
L 676.452233 405.341558 
L 677.444939 410.051268 
L 678.437645 414.207289 
L 679.43035 413.360332 
L 680.423056 410.219171 
L 683.401174 417.349278 
L 684.39388 411.611848 
L 685.386586 413.575097 
L 686.379292 410.901662 
L 687.371998 415.01565 
L 688.364704 410.38473 
L 689.35741 417.143223 
L 690.350116 415.493125 
L 691.342822 414.765713 
L 692.335527 414.497212 
L 693.328233 411.537293 
L 694.320939 414.92468 
L 695.313645 413.547872 
L 696.306351 413.881818 
L 697.299057 417.902122 
L 698.291763 420.456682 
L 699.284469 409.69655 
L 700.277175 411.372303 
L 701.269881 416.374695 
L 702.262587 414.880215 
L 703.255293 415.893619 
L 704.247999 411.753289 
L 705.240705 415.620453 
L 706.23341 416.394619 
L 707.226116 410.641602 
L 708.218822 413.616741 
L 709.211528 417.60323 
L 710.204234 414.937572 
L 712.189646 415.225779 
L 713.182352 413.710615 
L 714.175058 414.750466 
L 715.167764 415.04264 
L 716.16047 417.350619 
L 717.153176 414.848064 
L 718.145882 415.950037 
L 719.138587 414.44684 
L 720.131293 414.421019 
L 721.123999 415.856604 
L 722.116705 417.789609 
L 723.109411 421.043296 
L 724.102117 415.098553 
L 725.094823 415.570351 
L 726.087529 417.390342 
L 727.080235 417.747126 
L 728.072941 415.95078 
L 729.065647 418.200696 
L 730.058353 417.312189 
L 731.051059 414.326829 
L 732.043764 415.260347 
L 733.03647 417.43049 
L 734.029176 414.135355 
L 735.021882 418.629524 
L 736.014588 419.763863 
L 737.007294 418.951323 
L 738 419.163213 
L 738.992706 417.278035 
L 739.985412 416.685632 
L 740.978118 416.919934 
L 741.970824 419.332523 
L 742.96353 417.363843 
L 743.956236 417.643445 
L 744.948941 417.642453 
L 745.941647 417.0918 
L 746.934353 419.189388 
L 747.927059 417.579673 
L 748.919765 420.038392 
L 749.912471 418.172637 
L 750.905177 418.757239 
L 751.897883 417.274889 
L 752.890589 417.561128 
L 753.883295 417.233176 
L 754.876001 418.442282 
L 755.868707 418.051462 
L 756.861413 419.485253 
L 757.854118 418.642729 
L 758.846824 418.549431 
L 759.83953 416.53106 
L 760.832236 420.366015 
L 761.824942 417.978312 
L 762.817648 417.141727 
L 763.810354 419.106349 
L 765.795766 421.116317 
L 766.788472 418.775996 
L 767.781178 419.028512 
L 768.773884 416.667123 
L 769.76659 421.295014 
L 770.759295 417.761458 
L 771.752001 417.817775 
L 772.744707 416.831334 
L 773.737413 417.821742 
L 774.730119 420.346447 
L 775.722825 420.252259 
L 776.715531 419.80643 
L 777.708237 420.826872 
L 778.700943 420.020142 
L 779.693649 419.047678 
L 780.686355 418.405731 
L 781.679061 418.952697 
L 782.671767 417.376644 
L 783.664473 416.340486 
L 784.657178 419.005818 
L 785.649884 418.422572 
L 786.64259 421.714079 
L 787.635296 417.971536 
L 788.628002 421.451825 
L 789.620708 422.168099 
L 790.613414 417.875986 
L 791.60612 419.76271 
L 792.598826 423.350065 
L 793.591532 422.948482 
L 794.584238 417.311444 
L 796.56965 421.680274 
L 797.562355 419.953297 
L 798.555061 420.377456 
L 799.547767 420.578153 
L 800.540473 419.536631 
L 801.533179 420.727808 
L 803.518591 420.313171 
L 804.511297 421.352548 
L 805.504003 421.562507 
L 806.496709 418.289258 
L 807.489415 419.446667 
L 808.482121 422.996837 
L 809.474827 421.483565 
L 810.467532 417.110853 
L 811.460238 423.888913 
L 812.452944 420.383202 
L 813.44565 424.354066 
L 814.438356 417.59244 
L 815.431062 423.647954 
L 816.423768 422.857283 
L 817.416474 421.494825 
L 818.40918 423.845019 
L 819.401886 420.965631 
L 820.394592 420.773278 
L 821.387298 421.922212 
L 822.380004 424.375991 
L 823.372709 420.032732 
L 824.365415 420.597114 
L 825.358121 423.822232 
L 827.343533 417.500063 
L 828.336239 419.497538 
L 829.328945 425.088394 
L 830.321651 421.526426 
L 831.314357 424.490628 
L 832.307063 422.405114 
L 833.299769 420.707342 
L 834.292475 421.708619 
L 835.285181 422.036464 
L 836.277886 421.929684 
L 837.270592 426.741859 
L 838.263298 419.781388 
L 839.256004 422.706988 
L 840.24871 419.435701 
L 841.241416 420.631308 
L 842.234122 421.044357 
L 843.226828 420.990821 
L 844.219534 421.645236 
L 845.21224 421.389628 
L 846.204946 423.079721 
L 847.197652 421.531251 
L 848.190358 424.663552 
L 849.183064 420.700179 
L 850.175769 420.067408 
L 851.168475 421.422323 
L 852.161181 421.711989 
L 853.153887 420.626571 
L 854.146593 425.942805 
L 855.139299 422.692764 
L 856.132005 424.172867 
L 858.117417 424.739398 
L 859.110123 424.58877 
L 860.102829 419.29006 
L 861.095535 422.945624 
L 862.088241 422.458759 
L 863.080946 424.182247 
L 864.073652 422.462166 
L 865.066358 421.407795 
L 866.059064 425.202722 
L 867.05177 422.15798 
L 868.044476 422.654691 
L 870.029888 425.553135 
L 871.022594 424.702811 
L 872.0153 426.006965 
L 873.008006 426.551321 
L 874.000712 426.071513 
L 874.993418 420.146251 
L 875.986123 421.891304 
L 876.978829 424.697647 
L 877.971535 427.075444 
L 878.964241 421.976142 
L 879.956947 425.840916 
L 880.949653 422.986508 
L 881.942359 422.978395 
L 882.935065 422.670262 
L 883.927771 424.587957 
L 884.920477 424.259869 
L 885.913183 426.216635 
L 886.905889 427.730994 
L 887.898595 425.638367 
L 888.8913 419.836768 
L 889.884006 422.637263 
L 890.876712 423.421078 
L 891.869418 422.475097 
L 892.862124 424.622127 
L 893.85483 422.962832 
L 894.847536 423.825869 
L 895.840242 424.891985 
L 896.832948 426.761841 
L 897.825654 425.288925 
L 898.81836 422.496218 
L 899.811066 423.780499 
L 900.803772 425.859439 
L 901.796477 425.983742 
L 902.789183 424.594455 
L 903.781889 426.411579 
L 904.774595 424.304392 
L 905.767301 424.337642 
L 906.760007 426.18491 
L 907.752713 426.196065 
L 908.745419 424.440465 
L 909.738125 426.844496 
L 910.730831 424.821351 
L 911.723537 423.618929 
L 912.716243 426.765257 
L 913.708949 423.924564 
L 915.69436 425.929193 
L 916.687066 425.581745 
L 917.679772 422.714058 
L 918.672478 423.181203 
L 919.665184 427.000258 
L 920.65789 425.665551 
L 921.650596 426.559704 
L 922.643302 427.843843 
L 923.636008 424.658779 
L 924.628714 426.781786 
L 925.62142 424.999402 
L 926.614126 423.719432 
L 927.606832 426.311113 
L 928.599537 425.845337 
L 929.592243 425.626073 
L 930.584949 425.856364 
L 931.577655 424.128225 
L 932.570361 425.136832 
L 933.563067 425.764961 
L 934.555773 425.640489 
L 935.548479 425.374491 
L 936.541185 424.550537 
L 937.533891 427.444125 
L 938.526597 428.990772 
L 939.519303 428.718331 
L 940.512009 426.390117 
L 941.504714 424.892751 
L 942.49742 425.139153 
L 943.490126 425.914616 
L 944.482832 427.128211 
L 945.475538 427.374831 
L 946.468244 426.084986 
L 947.46095 425.457904 
L 948.453656 425.21701 
L 949.446362 424.207558 
L 950.439068 426.816546 
L 951.431774 424.736311 
L 952.42448 431.540863 
L 953.417186 426.105366 
L 954.409891 425.68439 
L 956.395303 427.015257 
L 957.388009 424.547092 
L 958.380715 427.83605 
L 959.373421 426.298931 
L 960.366127 426.403888 
L 961.358833 427.154671 
L 962.351539 428.077617 
L 963.344245 424.174597 
L 964.336951 426.703546 
L 965.329657 425.606775 
L 966.322363 427.486418 
L 967.315068 424.928528 
L 968.307774 428.215891 
L 969.30048 429.257704 
L 970.293186 427.888294 
L 972.278598 426.514801 
L 973.271304 427.021769 
L 974.26401 426.575768 
L 975.256716 426.856485 
L 976.249422 424.316594 
L 977.242128 426.661701 
L 978.234834 426.128887 
L 979.22754 426.676154 
L 980.220246 428.94808 
L 981.212951 427.941981 
L 982.205657 428.206914 
L 983.198363 426.435279 
L 984.191069 428.784077 
L 985.183775 427.414586 
L 986.176481 428.324602 
L 987.169187 425.227771 
L 988.161893 427.605945 
L 989.154599 428.987255 
L 990.147305 427.927659 
L 991.140011 428.100046 
L 992.132717 427.230191 
L 993.125423 428.12818 
L 994.118128 427.7211 
L 995.110834 430.252026 
L 996.10354 427.034464 
L 997.096246 431.288693 
L 998.088952 430.233039 
L 999.081658 425.292654 
L 1001.06707 428.238247 
L 1002.059776 428.539453 
L 1003.052482 428.59642 
L 1004.045188 425.181271 
L 1005.037894 424.840097 
L 1006.0306 427.451214 
L 1007.023305 428.566503 
L 1008.016011 429.21872 
L 1009.008717 427.760372 
L 1010.001423 428.462107 
L 1010.994129 427.006061 
L 1011.986835 426.208532 
L 1012.979541 429.225724 
L 1013.972247 426.089932 
L 1014.964953 426.521005 
L 1015.957659 427.305839 
L 1016.950365 428.636598 
L 1017.943071 427.722819 
L 1018.935777 429.766278 
L 1019.928482 429.517304 
L 1020.921188 433.518416 
L 1021.913894 427.286463 
L 1022.9066 426.204771 
L 1023.899306 426.863735 
L 1024.892012 429.40355 
L 1025.884718 428.915738 
L 1026.877424 428.129535 
L 1027.87013 426.730942 
L 1028.862836 427.409653 
L 1029.855542 426.885224 
L 1030.848248 427.876728 
L 1031.840954 431.633908 
L 1032.833659 426.714734 
L 1033.826365 427.727105 
L 1034.819071 428.514867 
L 1035.811777 430.613867 
L 1036.804483 432.029976 
L 1037.797189 429.382018 
L 1038.789895 430.907651 
L 1039.782601 426.316272 
L 1040.775307 428.856269 
L 1041.768013 428.331943 
L 1042.760719 426.35485 
L 1043.753425 427.975615 
L 1044.746131 428.085382 
L 1045.738837 428.680354 
L 1046.731542 426.474603 
L 1047.724248 429.721314 
L 1048.716954 426.859344 
L 1049.70966 425.654119 
L 1050.702366 428.158506 
L 1051.695072 425.184937 
L 1052.687778 429.851301 
L 1053.680484 430.036336 
L 1054.67319 428.346295 
L 1055.665896 429.134743 
L 1056.658602 429.393299 
L 1057.651308 428.923817 
L 1058.644014 431.637577 
L 1059.636719 428.876537 
L 1060.629425 428.354297 
L 1061.622131 429.673897 
L 1062.614837 429.59983 
L 1063.607543 428.964677 
L 1064.600249 428.901052 
L 1065.592955 425.710363 
L 1066.585661 429.787112 
L 1067.578367 427.675156 
L 1068.571073 431.141157 
L 1069.563779 427.803361 
L 1070.556485 428.937319 
L 1071.549191 429.733412 
L 1072.541896 428.979484 
L 1073.534602 427.457452 
L 1074.527308 428.471499 
L 1075.520014 432.145686 
L 1076.51272 426.906934 
L 1077.505426 427.053045 
L 1078.498132 427.442449 
L 1079.490838 427.663863 
L 1080.483544 429.437662 
L 1081.47625 429.33437 
L 1082.468956 430.060615 
L 1083.461662 428.630094 
L 1084.454368 429.848156 
L 1085.447073 427.5059 
L 1086.439779 429.47362 
L 1087.432485 428.117877 
L 1088.425191 427.482758 
L 1089.417897 431.546267 
L 1090.410603 429.398614 
L 1091.403309 428.988602 
L 1092.396015 433.456761 
L 1093.388721 426.482408 
L 1094.381427 430.739891 
L 1095.374133 428.111313 
L 1096.366839 428.81747 
L 1097.359545 428.645238 
L 1098.35225 430.592299 
L 1099.344956 427.814124 
L 1100.337662 427.237829 
L 1101.330368 432.675234 
L 1102.323074 430.515433 
L 1103.31578 430.376719 
L 1104.308486 435.042031 
L 1105.301192 430.746743 
L 1106.293898 428.764601 
L 1107.286604 429.098524 
L 1108.27931 431.690649 
L 1109.272016 429.507848 
L 1110.264722 428.078455 
L 1111.257428 432.551472 
L 1112.250133 429.569004 
L 1113.242839 427.290297 
L 1114.235545 434.966813 
L 1115.228251 427.594945 
L 1116.220957 428.095062 
L 1117.213663 428.448063 
L 1118.206369 430.845158 
L 1119.199075 430.096061 
L 1120.191781 429.69451 
L 1121.184487 430.787742 
L 1122.177193 430.204204 
L 1123.169899 430.26844 
L 1124.162605 430.968001 
L 1126.148016 428.707669 
L 1127.140722 428.26541 
L 1128.133428 428.701948 
L 1129.126134 427.923021 
L 1130.11884 429.628587 
L 1131.111546 429.681605 
L 1132.104252 430.533609 
L 1133.096958 428.46779 
L 1134.089664 430.55555 
L 1135.08237 428.1753 
L 1136.075076 430.823345 
L 1137.067782 428.294518 
L 1138.060487 430.157233 
L 1139.053193 431.278877 
L 1140.045899 428.452986 
L 1141.038605 429.181014 
L 1142.031311 428.95281 
L 1143.024017 427.784112 
L 1144.016723 430.967262 
L 1145.009429 428.624255 
L 1146.002135 430.145011 
L 1146.994841 431.372712 
L 1147.987547 429.392233 
L 1148.980253 428.995192 
L 1149.972959 428.787008 
L 1150.965664 428.818622 
L 1151.95837 430.137032 
L 1152.951076 430.969271 
L 1153.943782 429.655215 
L 1154.936488 432.913432 
L 1155.929194 434.855024 
L 1156.9219 429.784594 
L 1157.914606 429.041461 
L 1158.907312 429.012686 
L 1159.900018 428.376457 
L 1160.892724 431.531915 
L 1161.88543 429.897285 
L 1162.878136 431.698465 
L 1164.863547 431.768567 
L 1165.856253 433.963595 
L 1166.848959 429.652467 
L 1167.841665 428.406175 
L 1168.834371 431.012173 
L 1169.827077 431.556494 
L 1171.812489 429.759936 
L 1172.805195 429.318776 
L 1173.797901 432.018011 
L 1174.790607 426.146153 
L 1175.783313 430.621549 
L 1176.776019 430.060146 
L 1177.768724 430.439486 
L 1178.76143 433.18847 
L 1179.754136 429.563419 
L 1180.746842 429.749837 
L 1181.739548 430.763372 
L 1182.732254 431.073907 
L 1183.72496 430.399124 
L 1184.717666 429.364839 
L 1185.710372 427.768016 
L 1186.703078 429.208418 
L 1187.695784 433.017617 
L 1188.68849 427.474637 
L 1189.681196 428.701391 
L 1190.673901 428.146503 
L 1191.666607 428.100253 
L 1192.659313 431.999444 
L 1193.652019 431.262441 
L 1194.644725 432.314971 
L 1195.637431 428.281028 
L 1196.630137 430.519862 
L 1197.622843 431.938988 
L 1198.615549 427.326171 
L 1199.608255 430.115954 
L 1200.600961 428.188936 
L 1201.593667 428.55349 
L 1202.586373 435.36749 
L 1203.579078 431.439545 
L 1204.571784 430.806937 
L 1205.56449 429.376091 
L 1206.557196 431.105884 
L 1207.549902 430.026922 
L 1208.542608 431.048454 
L 1209.535314 430.419828 
L 1210.52802 429.969748 
L 1211.520726 429.701392 
L 1212.513432 428.676377 
L 1213.506138 427.029858 
L 1214.498844 431.273202 
L 1215.49155 428.07285 
L 1216.484255 429.490422 
L 1217.476961 428.522791 
L 1218.469667 430.086319 
L 1219.462373 428.268496 
L 1220.455079 425.922109 
L 1221.447785 431.659555 
L 1222.440491 430.27233 
L 1223.433197 429.278763 
L 1224.425903 431.986685 
L 1225.418609 426.845221 
L 1226.411315 429.886635 
L 1227.404021 430.519335 
L 1228.396727 429.070958 
L 1229.389432 430.414765 
L 1230.382138 430.428166 
L 1231.374844 432.907128 
L 1233.360256 428.904538 
L 1234.352962 431.259019 
L 1235.345668 432.29774 
L 1236.338374 432.664528 
L 1237.33108 431.563133 
L 1238.323786 431.648347 
L 1239.316492 431.542332 
L 1240.309198 427.460111 
L 1241.301904 429.231471 
L 1242.29461 433.056092 
L 1243.287315 431.9208 
L 1244.280021 428.328307 
L 1245.272727 429.899571 
L 1245.272727 429.899571 
" clip-path="url(#pde7c73c733)" style="fill: none; stroke: #1f77b4; stroke-width: 1.5; stroke-linecap: square"/>
   </g>
   <g id="patch_3">
    <path d="M 180 512.64 
L 180 69.12 
" style="fill: none; stroke: #000000; stroke-width: 0.8; stroke-linejoin: miter; stroke-linecap: square"/>
   </g>
   <g id="patch_4">
    <path d="M 1296 512.64 
L 1296 69.12 
" style="fill: none; stroke: #000000; stroke-width: 0.8; stroke-linejoin: miter; stroke-linecap: square"/>
   </g>
   <g id="patch_5">
    <path d="M 180 512.64 
L 1296 512.64 
" style="fill: none; stroke: #000000; stroke-width: 0.8; stroke-linejoin: miter; stroke-linecap: square"/>
   </g>
   <g id="patch_6">
    <path d="M 180 69.12 
L 1296 69.12 
" style="fill: none; stroke: #000000; stroke-width: 0.8; stroke-linejoin: miter; stroke-linecap: square"/>
   </g>
   <g id="text_13">
    <!-- source21-receiver6 -->
    <g transform="translate(544.9 60.80125) scale(0.4 -0.4)">
     <defs>
      <path id="DejaVuSans-73" d="M 2834 3397 
L 2834 2853 
Q 2591 2978 2328 3040 
Q 2066 3103 1784 3103 
Q 1356 3103 1142 2972 
Q 928 2841 928 2578 
Q 928 2378 1081 2264 
Q 1234 2150 1697 2047 
L 1894 2003 
Q 2506 1872 2764 1633 
Q 3022 1394 3022 966 
Q 3022 478 2636 193 
Q 2250 -91 1575 -91 
Q 1294 -91 989 -36 
Q 684 19 347 128 
L 347 722 
Q 666 556 975 473 
Q 1284 391 1588 391 
Q 1994 391 2212 530 
Q 2431 669 2431 922 
Q 2431 1156 2273 1281 
Q 2116 1406 1581 1522 
L 1381 1569 
Q 847 1681 609 1914 
Q 372 2147 372 2553 
Q 372 3047 722 3315 
Q 1072 3584 1716 3584 
Q 2034 3584 2315 3537 
Q 2597 3491 2834 3397 
z
" transform="scale(0.015625)"/>
      <path id="DejaVuSans-6f" d="M 1959 3097 
Q 1497 3097 1228 2736 
Q 959 2375 959 1747 
Q 959 1119 1226 758 
Q 1494 397 1959 397 
Q 2419 397 2687 759 
Q 2956 1122 2956 1747 
Q 2956 2369 2687 2733 
Q 2419 3097 1959 3097 
z
M 1959 3584 
Q 2709 3584 3137 3096 
Q 3566 2609 3566 1747 
Q 3566 888 3137 398 
Q 2709 -91 1959 -91 
Q 1206 -91 779 398 
Q 353 888 353 1747 
Q 353 2609 779 3096 
Q 1206 3584 1959 3584 
z
" transform="scale(0.015625)"/>
      <path id="DejaVuSans-75" d="M 544 1381 
L 544 3500 
L 1119 3500 
L 1119 1403 
Q 1119 906 1312 657 
Q 1506 409 1894 409 
Q 2359 409 2629 706 
Q 2900 1003 2900 1516 
L 2900 3500 
L 3475 3500 
L 3475 0 
L 2900 0 
L 2900 538 
Q 2691 219 2414 64 
Q 2138 -91 1772 -91 
Q 1169 -91 856 284 
Q 544 659 544 1381 
z
M 1991 3584 
L 1991 3584 
z
" transform="scale(0.015625)"/>
      <path id="DejaVuSans-72" d="M 2631 2963 
Q 2534 3019 2420 3045 
Q 2306 3072 2169 3072 
Q 1681 3072 1420 2755 
Q 1159 2438 1159 1844 
L 1159 0 
L 581 0 
L 581 3500 
L 1159 3500 
L 1159 2956 
Q 1341 3275 1631 3429 
Q 1922 3584 2338 3584 
Q 2397 3584 2469 3576 
Q 2541 3569 2628 3553 
L 2631 2963 
z
" transform="scale(0.015625)"/>
      <path id="DejaVuSans-63" d="M 3122 3366 
L 3122 2828 
Q 2878 2963 2633 3030 
Q 2388 3097 2138 3097 
Q 1578 3097 1268 2742 
Q 959 2388 959 1747 
Q 959 1106 1268 751 
Q 1578 397 2138 397 
Q 2388 397 2633 464 
Q 2878 531 3122 666 
L 3122 134 
Q 2881 22 2623 -34 
Q 2366 -91 2075 -91 
Q 1284 -91 818 406 
Q 353 903 353 1747 
Q 353 2603 823 3093 
Q 1294 3584 2113 3584 
Q 2378 3584 2631 3529 
Q 2884 3475 3122 3366 
z
" transform="scale(0.015625)"/>
      <path id="DejaVuSans-65" d="M 3597 1894 
L 3597 1613 
L 953 1613 
Q 991 1019 1311 708 
Q 1631 397 2203 397 
Q 2534 397 2845 478 
Q 3156 559 3463 722 
L 3463 178 
Q 3153 47 2828 -22 
Q 2503 -91 2169 -91 
Q 1331 -91 842 396 
Q 353 884 353 1716 
Q 353 2575 817 3079 
Q 1281 3584 2069 3584 
Q 2775 3584 3186 3129 
Q 3597 2675 3597 1894 
z
M 3022 2063 
Q 3016 2534 2758 2815 
Q 2500 3097 2075 3097 
Q 1594 3097 1305 2825 
Q 1016 2553 972 2059 
L 3022 2063 
z
" transform="scale(0.015625)"/>
      <path id="DejaVuSans-2d" d="M 313 2009 
L 1997 2009 
L 1997 1497 
L 313 1497 
L 313 2009 
z
" transform="scale(0.015625)"/>
      <path id="DejaVuSans-69" d="M 603 3500 
L 1178 3500 
L 1178 0 
L 603 0 
L 603 3500 
z
M 603 4863 
L 1178 4863 
L 1178 4134 
L 603 4134 
L 603 4863 
z
" transform="scale(0.015625)"/>
      <path id="DejaVuSans-76" d="M 191 3500 
L 800 3500 
L 1894 563 
L 2988 3500 
L 3597 3500 
L 2284 0 
L 1503 0 
L 191 3500 
z
" transform="scale(0.015625)"/>
     </defs>
     <use xlink:href="#DejaVuSans-73"/>
     <use xlink:href="#DejaVuSans-6f" x="52.099609"/>
     <use xlink:href="#DejaVuSans-75" x="113.28125"/>
     <use xlink:href="#DejaVuSans-72" x="176.660156"/>
     <use xlink:href="#DejaVuSans-63" x="215.523438"/>
     <use xlink:href="#DejaVuSans-65" x="270.503906"/>
     <use xlink:href="#DejaVuSans-32" x="332.027344"/>
     <use xlink:href="#DejaVuSans-31" x="395.650391"/>
     <use xlink:href="#DejaVuSans-2d" x="459.273438"/>
     <use xlink:href="#DejaVuSans-72" x="495.357422"/>
     <use xlink:href="#DejaVuSans-65" x="534.220703"/>
     <use xlink:href="#DejaVuSans-63" x="595.744141"/>
     <use xlink:href="#DejaVuSans-65" x="650.724609"/>
     <use xlink:href="#DejaVuSans-69" x="712.248047"/>
     <use xlink:href="#DejaVuSans-76" x="740.03125"/>
     <use xlink:href="#DejaVuSans-65" x="799.210938"/>
     <use xlink:href="#DejaVuSans-72" x="860.734375"/>
     <use xlink:href="#DejaVuSans-36" x="901.847656"/>
    </g>
   </g>
  </g>
 </g>
 <defs>
  <clipPath id="pde7c73c733">
   <rect x="180" y="69.12" width="1116" height="443.52"/>
  </clipPath>
 </defs>
</svg>
