<?xml version="1.0" encoding="utf-8" standalone="no"?>
<!DOCTYPE svg PUBLIC "-//W3C//DTD SVG 1.1//EN"
  "http://www.w3.org/Graphics/SVG/1.1/DTD/svg11.dtd">
<svg xmlns:xlink="http://www.w3.org/1999/xlink" width="1440pt" height="576pt" viewBox="0 0 1440 576" xmlns="http://www.w3.org/2000/svg" version="1.1">
 <metadata>
  <rdf:RDF xmlns:dc="http://purl.org/dc/elements/1.1/" xmlns:cc="http://creativecommons.org/ns#" xmlns:rdf="http://www.w3.org/1999/02/22-rdf-syntax-ns#">
   <cc:Work>
    <dc:type rdf:resource="http://purl.org/dc/dcmitype/StillImage"/>
    <dc:date>2024-05-22T04:50:19.619422</dc:date>
    <dc:format>image/svg+xml</dc:format>
    <dc:creator>
     <cc:Agent>
      <dc:title>Matplotlib v3.8.3, https://matplotlib.org/</dc:title>
     </cc:Agent>
    </dc:creator>
   </cc:Work>
  </rdf:RDF>
 </metadata>
 <defs>
  <style type="text/css">*{stroke-linejoin: round; stroke-linecap: butt}</style>
 </defs>
 <g id="figure_1">
  <g id="patch_1">
   <path d="M 0 576 
L 1440 576 
L 1440 0 
L 0 0 
z
" style="fill: #ffffff"/>
  </g>
  <g id="axes_1">
   <g id="patch_2">
    <path d="M 180 512.64 
L 1296 512.64 
L 1296 69.12 
L 180 69.12 
z
" style="fill: #ffffff"/>
   </g>
   <g id="matplotlib.axis_1">
    <g id="xtick_1">
     <g id="line2d_1">
      <defs>
       <path id="mcdab48e5c7" d="M 0 0 
L 0 3.5 
" style="stroke: #000000; stroke-width: 0.8"/>
      </defs>
      <g>
       <use xlink:href="#mcdab48e5c7" x="229.734567" y="512.64" style="stroke: #000000; stroke-width: 0.8"/>
      </g>
     </g>
     <g id="text_1">
      <!-- 0 -->
      <g transform="translate(226.553317 527.238438) scale(0.1 -0.1)">
       <defs>
        <path id="DejaVuSans-30" d="M 2034 4250 
Q 1547 4250 1301 3770 
Q 1056 3291 1056 2328 
Q 1056 1369 1301 889 
Q 1547 409 2034 409 
Q 2525 409 2770 889 
Q 3016 1369 3016 2328 
Q 3016 3291 2770 3770 
Q 2525 4250 2034 4250 
z
M 2034 4750 
Q 2819 4750 3233 4129 
Q 3647 3509 3647 2328 
Q 3647 1150 3233 529 
Q 2819 -91 2034 -91 
Q 1250 -91 836 529 
Q 422 1150 422 2328 
Q 422 3509 836 4129 
Q 1250 4750 2034 4750 
z
" transform="scale(0.015625)"/>
       </defs>
       <use xlink:href="#DejaVuSans-30"/>
      </g>
     </g>
    </g>
    <g id="xtick_2">
     <g id="line2d_2">
      <g>
       <use xlink:href="#mcdab48e5c7" x="433.04074" y="512.64" style="stroke: #000000; stroke-width: 0.8"/>
      </g>
     </g>
     <g id="text_2">
      <!-- 500 -->
      <g transform="translate(423.49699 527.238438) scale(0.1 -0.1)">
       <defs>
        <path id="DejaVuSans-35" d="M 691 4666 
L 3169 4666 
L 3169 4134 
L 1269 4134 
L 1269 2991 
Q 1406 3038 1543 3061 
Q 1681 3084 1819 3084 
Q 2600 3084 3056 2656 
Q 3513 2228 3513 1497 
Q 3513 744 3044 326 
Q 2575 -91 1722 -91 
Q 1428 -91 1123 -41 
Q 819 9 494 109 
L 494 744 
Q 775 591 1075 516 
Q 1375 441 1709 441 
Q 2250 441 2565 725 
Q 2881 1009 2881 1497 
Q 2881 1984 2565 2268 
Q 2250 2553 1709 2553 
Q 1456 2553 1204 2497 
Q 953 2441 691 2322 
L 691 4666 
z
" transform="scale(0.015625)"/>
       </defs>
       <use xlink:href="#DejaVuSans-35"/>
       <use xlink:href="#DejaVuSans-30" x="63.623047"/>
       <use xlink:href="#DejaVuSans-30" x="127.246094"/>
      </g>
     </g>
    </g>
    <g id="xtick_3">
     <g id="line2d_3">
      <g>
       <use xlink:href="#mcdab48e5c7" x="636.346913" y="512.64" style="stroke: #000000; stroke-width: 0.8"/>
      </g>
     </g>
     <g id="text_3">
      <!-- 1000 -->
      <g transform="translate(623.621913 527.238438) scale(0.1 -0.1)">
       <defs>
        <path id="DejaVuSans-31" d="M 794 531 
L 1825 531 
L 1825 4091 
L 703 3866 
L 703 4441 
L 1819 4666 
L 2450 4666 
L 2450 531 
L 3481 531 
L 3481 0 
L 794 0 
L 794 531 
z
" transform="scale(0.015625)"/>
       </defs>
       <use xlink:href="#DejaVuSans-31"/>
       <use xlink:href="#DejaVuSans-30" x="63.623047"/>
       <use xlink:href="#DejaVuSans-30" x="127.246094"/>
       <use xlink:href="#DejaVuSans-30" x="190.869141"/>
      </g>
     </g>
    </g>
    <g id="xtick_4">
     <g id="line2d_4">
      <g>
       <use xlink:href="#mcdab48e5c7" x="839.653087" y="512.64" style="stroke: #000000; stroke-width: 0.8"/>
      </g>
     </g>
     <g id="text_4">
      <!-- 1500 -->
      <g transform="translate(826.928087 527.238438) scale(0.1 -0.1)">
       <use xlink:href="#DejaVuSans-31"/>
       <use xlink:href="#DejaVuSans-35" x="63.623047"/>
       <use xlink:href="#DejaVuSans-30" x="127.246094"/>
       <use xlink:href="#DejaVuSans-30" x="190.869141"/>
      </g>
     </g>
    </g>
    <g id="xtick_5">
     <g id="line2d_5">
      <g>
       <use xlink:href="#mcdab48e5c7" x="1042.95926" y="512.64" style="stroke: #000000; stroke-width: 0.8"/>
      </g>
     </g>
     <g id="text_5">
      <!-- 2000 -->
      <g transform="translate(1030.23426 527.238438) scale(0.1 -0.1)">
       <defs>
        <path id="DejaVuSans-32" d="M 1228 531 
L 3431 531 
L 3431 0 
L 469 0 
L 469 531 
Q 828 903 1448 1529 
Q 2069 2156 2228 2338 
Q 2531 2678 2651 2914 
Q 2772 3150 2772 3378 
Q 2772 3750 2511 3984 
Q 2250 4219 1831 4219 
Q 1534 4219 1204 4116 
Q 875 4013 500 3803 
L 500 4441 
Q 881 4594 1212 4672 
Q 1544 4750 1819 4750 
Q 2544 4750 2975 4387 
Q 3406 4025 3406 3419 
Q 3406 3131 3298 2873 
Q 3191 2616 2906 2266 
Q 2828 2175 2409 1742 
Q 1991 1309 1228 531 
z
" transform="scale(0.015625)"/>
       </defs>
       <use xlink:href="#DejaVuSans-32"/>
       <use xlink:href="#DejaVuSans-30" x="63.623047"/>
       <use xlink:href="#DejaVuSans-30" x="127.246094"/>
       <use xlink:href="#DejaVuSans-30" x="190.869141"/>
      </g>
     </g>
    </g>
    <g id="xtick_6">
     <g id="line2d_6">
      <g>
       <use xlink:href="#mcdab48e5c7" x="1246.265433" y="512.64" style="stroke: #000000; stroke-width: 0.8"/>
      </g>
     </g>
     <g id="text_6">
      <!-- 2500 -->
      <g transform="translate(1233.540433 527.238438) scale(0.1 -0.1)">
       <use xlink:href="#DejaVuSans-32"/>
       <use xlink:href="#DejaVuSans-35" x="63.623047"/>
       <use xlink:href="#DejaVuSans-30" x="127.246094"/>
       <use xlink:href="#DejaVuSans-30" x="190.869141"/>
      </g>
     </g>
    </g>
   </g>
   <g id="matplotlib.axis_2">
    <g id="ytick_1">
     <g id="line2d_7">
      <defs>
       <path id="m1cfbe0a318" d="M 0 0 
L -3.5 0 
" style="stroke: #000000; stroke-width: 0.8"/>
      </defs>
      <g>
       <use xlink:href="#m1cfbe0a318" x="180" y="504.812789" style="stroke: #000000; stroke-width: 0.8"/>
      </g>
     </g>
     <g id="text_7">
      <!-- −2 -->
      <g transform="translate(158.257812 508.612008) scale(0.1 -0.1)">
       <defs>
        <path id="DejaVuSans-2212" d="M 678 2272 
L 4684 2272 
L 4684 1741 
L 678 1741 
L 678 2272 
z
" transform="scale(0.015625)"/>
       </defs>
       <use xlink:href="#DejaVuSans-2212"/>
       <use xlink:href="#DejaVuSans-32" x="83.789062"/>
      </g>
     </g>
    </g>
    <g id="ytick_2">
     <g id="line2d_8">
      <g>
       <use xlink:href="#m1cfbe0a318" x="180" y="440.139104" style="stroke: #000000; stroke-width: 0.8"/>
      </g>
     </g>
     <g id="text_8">
      <!-- −1 -->
      <g transform="translate(158.257812 443.938323) scale(0.1 -0.1)">
       <use xlink:href="#DejaVuSans-2212"/>
       <use xlink:href="#DejaVuSans-31" x="83.789062"/>
      </g>
     </g>
    </g>
    <g id="ytick_3">
     <g id="line2d_9">
      <g>
       <use xlink:href="#m1cfbe0a318" x="180" y="375.46542" style="stroke: #000000; stroke-width: 0.8"/>
      </g>
     </g>
     <g id="text_9">
      <!-- 0 -->
      <g transform="translate(166.6375 379.264638) scale(0.1 -0.1)">
       <use xlink:href="#DejaVuSans-30"/>
      </g>
     </g>
    </g>
    <g id="ytick_4">
     <g id="line2d_10">
      <g>
       <use xlink:href="#m1cfbe0a318" x="180" y="310.791735" style="stroke: #000000; stroke-width: 0.8"/>
      </g>
     </g>
     <g id="text_10">
      <!-- 1 -->
      <g transform="translate(166.6375 314.590953) scale(0.1 -0.1)">
       <use xlink:href="#DejaVuSans-31"/>
      </g>
     </g>
    </g>
    <g id="ytick_5">
     <g id="line2d_11">
      <g>
       <use xlink:href="#m1cfbe0a318" x="180" y="246.11805" style="stroke: #000000; stroke-width: 0.8"/>
      </g>
     </g>
     <g id="text_11">
      <!-- 2 -->
      <g transform="translate(166.6375 249.917269) scale(0.1 -0.1)">
       <use xlink:href="#DejaVuSans-32"/>
      </g>
     </g>
    </g>
    <g id="ytick_6">
     <g id="line2d_12">
      <g>
       <use xlink:href="#m1cfbe0a318" x="180" y="181.444365" style="stroke: #000000; stroke-width: 0.8"/>
      </g>
     </g>
     <g id="text_12">
      <!-- 3 -->
      <g transform="translate(166.6375 185.243584) scale(0.1 -0.1)">
       <defs>
        <path id="DejaVuSans-33" d="M 2597 2516 
Q 3050 2419 3304 2112 
Q 3559 1806 3559 1356 
Q 3559 666 3084 287 
Q 2609 -91 1734 -91 
Q 1441 -91 1130 -33 
Q 819 25 488 141 
L 488 750 
Q 750 597 1062 519 
Q 1375 441 1716 441 
Q 2309 441 2620 675 
Q 2931 909 2931 1356 
Q 2931 1769 2642 2001 
Q 2353 2234 1838 2234 
L 1294 2234 
L 1294 2753 
L 1863 2753 
Q 2328 2753 2575 2939 
Q 2822 3125 2822 3475 
Q 2822 3834 2567 4026 
Q 2313 4219 1838 4219 
Q 1578 4219 1281 4162 
Q 984 4106 628 3988 
L 628 4550 
Q 988 4650 1302 4700 
Q 1616 4750 1894 4750 
Q 2613 4750 3031 4423 
Q 3450 4097 3450 3541 
Q 3450 3153 3228 2886 
Q 3006 2619 2597 2516 
z
" transform="scale(0.015625)"/>
       </defs>
       <use xlink:href="#DejaVuSans-33"/>
      </g>
     </g>
    </g>
    <g id="ytick_7">
     <g id="line2d_13">
      <g>
       <use xlink:href="#m1cfbe0a318" x="180" y="116.77068" style="stroke: #000000; stroke-width: 0.8"/>
      </g>
     </g>
     <g id="text_13">
      <!-- 4 -->
      <g transform="translate(166.6375 120.569899) scale(0.1 -0.1)">
       <defs>
        <path id="DejaVuSans-34" d="M 2419 4116 
L 825 1625 
L 2419 1625 
L 2419 4116 
z
M 2253 4666 
L 3047 4666 
L 3047 1625 
L 3713 1625 
L 3713 1100 
L 3047 1100 
L 3047 0 
L 2419 0 
L 2419 1100 
L 313 1100 
L 313 1709 
L 2253 4666 
z
" transform="scale(0.015625)"/>
       </defs>
       <use xlink:href="#DejaVuSans-34"/>
      </g>
     </g>
    </g>
   </g>
   <g id="line2d_14">
    <path d="M 230.727273 386.855461 
L 231.719979 386.561186 
L 232.712685 385.918573 
L 233.70539 384.975882 
L 234.698096 383.644944 
L 236.683508 380.378769 
L 238.66892 375.889001 
L 240.654332 370.467277 
L 242.639744 364.048197 
L 243.63245 360.107048 
L 244.625156 355.615723 
L 245.617862 354.182695 
L 246.610568 362.4269 
L 247.603273 358.016567 
L 248.595979 320.664517 
L 249.588685 304.387224 
L 250.581391 325.166829 
L 251.574097 349.645167 
L 252.566803 267.649852 
L 253.559509 243.201369 
L 254.552215 248.948519 
L 255.544921 270.993556 
L 256.537627 258.026707 
L 257.530333 253.12164 
L 258.523039 290.341027 
L 259.515745 256.743353 
L 260.50845 215.29772 
L 261.501156 212.895629 
L 262.493862 256.382248 
L 263.486568 267.828138 
L 264.479274 225.204239 
L 265.47198 251.113042 
L 266.464686 297.718459 
L 267.457392 221.813238 
L 268.450098 231.486106 
L 269.442804 395.988401 
L 270.43551 260.105328 
L 271.428216 275.561783 
L 272.420922 324.074272 
L 273.413627 292.274599 
L 274.406333 221.322815 
L 275.399039 179.226307 
L 276.391745 198.613735 
L 277.384451 212.857306 
L 278.377157 122.873331 
L 279.369863 98.612039 
L 280.362569 106.360455 
L 281.355275 134.43652 
L 282.347981 109.648306 
L 283.340687 89.28 
L 284.333393 97.420758 
L 285.326099 119.790125 
L 286.318804 109.658267 
L 287.31151 106.541654 
L 288.304216 140.870402 
L 289.296922 210.687717 
L 290.289628 163.13531 
L 291.282334 186.8195 
L 292.27504 268.598322 
L 293.267746 194.29036 
L 294.260452 222.935393 
L 295.253158 302.093034 
L 296.245864 233.907327 
L 297.23857 303.612966 
L 298.231276 265.066696 
L 299.223981 247.299972 
L 300.216687 305.425763 
L 301.209393 273.677199 
L 302.202099 284.802806 
L 303.194805 319.562806 
L 304.187511 298.117379 
L 305.180217 333.122875 
L 306.172923 292.145232 
L 307.165629 302.593593 
L 308.158335 366.300452 
L 309.151041 295.885106 
L 310.143747 309.496943 
L 311.136453 346.335413 
L 312.129159 311.776828 
L 314.11457 330.82813 
L 315.107276 329.200624 
L 316.099982 326.533254 
L 317.092688 332.279322 
L 318.085394 330.944237 
L 319.0781 334.819215 
L 320.070806 337.247381 
L 321.063512 335.61291 
L 322.056218 339.342165 
L 323.048924 341.055969 
L 324.04163 340.962546 
L 325.034336 343.645381 
L 326.027041 342.128281 
L 327.019747 345.805567 
L 329.005159 343.87571 
L 329.997865 348.96652 
L 330.990571 348.471894 
L 331.983277 351.455323 
L 332.975983 351.766815 
L 333.968689 352.926089 
L 334.961395 354.330523 
L 335.954101 351.209805 
L 337.939513 359.732066 
L 338.932218 354.890771 
L 339.924924 360.51031 
L 340.91763 362.42644 
L 341.910336 357.368504 
L 342.903042 365.559669 
L 343.895748 362.783653 
L 344.888454 360.460038 
L 345.88116 367.00536 
L 346.873866 365.735132 
L 347.866572 362.815014 
L 348.859278 368.980828 
L 349.851984 368.044895 
L 350.84469 368.824908 
L 351.837395 374.167214 
L 352.830101 367.031725 
L 353.822807 369.749808 
L 354.815513 373.891489 
L 355.808219 370.955716 
L 356.800925 374.263674 
L 357.793631 379.484303 
L 358.786337 372.548706 
L 360.771749 379.822517 
L 361.764455 372.641592 
L 362.757161 377.73006 
L 363.749867 378.972877 
L 364.742572 376.314578 
L 365.735278 382.450161 
L 366.727984 379.706868 
L 367.72069 383.709781 
L 368.713396 385.141245 
L 369.706102 381.656307 
L 370.698808 382.153288 
L 371.691514 382.482254 
L 372.68422 382.338302 
L 373.676926 384.080194 
L 374.669632 383.187725 
L 375.662338 385.307301 
L 376.655044 386.384513 
L 377.64775 384.223173 
L 378.640455 387.130904 
L 379.633161 386.910047 
L 380.625867 389.830639 
L 381.618573 389.569998 
L 382.611279 388.938075 
L 383.603985 387.193182 
L 384.596691 390.23077 
L 385.589397 387.872796 
L 386.582103 393.732831 
L 387.574809 395.543941 
L 388.567515 393.94203 
L 389.560221 390.280929 
L 390.552927 391.313847 
L 391.545632 395.24179 
L 392.538338 394.436957 
L 393.531044 397.351691 
L 394.52375 393.42276 
L 395.516456 397.024938 
L 396.509162 392.976455 
L 397.501868 399.815076 
L 398.494574 400.308164 
L 399.48728 396.213664 
L 400.479986 401.15513 
L 401.472692 398.189045 
L 402.465398 398.664292 
L 403.458104 397.332326 
L 404.450809 399.577197 
L 405.443515 402.097826 
L 406.436221 405.746205 
L 407.428927 399.801133 
L 408.421633 403.123458 
L 409.414339 400.394045 
L 410.407045 405.174932 
L 411.399751 399.962819 
L 412.392457 400.346644 
L 413.385163 404.15483 
L 415.370575 402.047798 
L 416.363281 409.002999 
L 417.355986 406.086488 
L 418.348692 409.841858 
L 419.341398 400.601282 
L 420.334104 410.697239 
L 421.32681 410.883554 
L 422.319516 409.425455 
L 423.312222 405.78037 
L 424.304928 409.29723 
L 425.297634 405.142027 
L 426.29034 406.320538 
L 427.283046 411.807232 
L 428.275752 403.258926 
L 429.268458 407.999572 
L 430.261163 410.798792 
L 431.253869 408.886836 
L 432.246575 404.871444 
L 433.239281 410.145621 
L 434.231987 414.268436 
L 435.224693 406.868793 
L 436.217399 413.000381 
L 437.210105 417.255586 
L 438.202811 413.774811 
L 439.195517 416.432934 
L 440.188223 417.022768 
L 441.180929 409.435943 
L 442.173635 411.920959 
L 443.166341 413.034923 
L 444.159046 412.983156 
L 445.151752 416.384406 
L 446.144458 413.880161 
L 447.137164 415.629611 
L 448.12987 415.48338 
L 449.122576 418.770701 
L 450.115282 417.618822 
L 451.107988 413.705483 
L 452.100694 418.726669 
L 453.0934 418.993506 
L 454.086106 417.608437 
L 455.078812 418.33937 
L 456.071518 421.125123 
L 457.064223 411.877682 
L 458.056929 414.95099 
L 459.049635 419.442794 
L 460.042341 417.267176 
L 461.035047 420.939298 
L 462.027753 416.899725 
L 463.020459 422.913632 
L 464.013165 421.926888 
L 465.005871 422.267533 
L 465.998577 421.535986 
L 466.991283 422.165379 
L 467.983989 424.353645 
L 468.976695 422.378718 
L 469.9694 420.764796 
L 470.962106 417.04791 
L 471.954812 424.363024 
L 472.947518 429.11817 
L 473.940224 423.757277 
L 474.93293 428.867513 
L 475.925636 425.389257 
L 476.918342 423.700211 
L 477.911048 418.348292 
L 478.903754 420.238538 
L 479.89646 429.017522 
L 480.889166 431.640728 
L 481.881872 425.353466 
L 482.874577 431.610964 
L 483.867283 424.642146 
L 484.859989 422.939829 
L 485.852695 430.293533 
L 486.845401 433.389367 
L 487.838107 424.807362 
L 488.830813 432.026785 
L 489.823519 432.752069 
L 490.816225 432.832858 
L 491.808931 429.976134 
L 492.801637 426.449833 
L 493.794343 423.620317 
L 494.787049 426.762696 
L 495.779754 430.878908 
L 496.77246 434.007183 
L 497.765166 426.6131 
L 498.757872 434.391139 
L 499.750578 424.387495 
L 500.743284 424.820819 
L 501.73599 430.382279 
L 502.728696 433.681396 
L 503.721402 433.789114 
L 504.714108 431.558541 
L 505.706814 433.894338 
L 506.69952 436.865364 
L 507.692226 427.870239 
L 508.684932 439.968912 
L 509.677637 436.536548 
L 510.670343 425.501562 
L 511.663049 436.060115 
L 512.655755 436.699995 
L 513.648461 429.478499 
L 514.641167 431.473529 
L 515.633873 429.789605 
L 516.626579 433.13384 
L 517.619285 439.011353 
L 518.611991 433.951561 
L 519.604697 437.022181 
L 520.597403 433.658005 
L 521.590109 437.785436 
L 522.582814 435.060953 
L 523.57552 440.024443 
L 524.568226 439.244863 
L 525.560932 437.144816 
L 526.553638 438.03398 
L 527.546344 440.081189 
L 528.53905 439.170907 
L 529.531756 430.235683 
L 530.524462 440.200614 
L 531.517168 445.599347 
L 532.509874 442.288089 
L 533.50258 440.745161 
L 534.495286 429.943297 
L 535.487991 431.671014 
L 536.480697 440.594812 
L 537.473403 441.604168 
L 538.466109 437.370907 
L 539.458815 437.95655 
L 540.451521 438.987041 
L 541.444227 443.881713 
L 542.436933 442.795229 
L 543.429639 443.460915 
L 544.422345 453.225096 
L 545.415051 429.181419 
L 546.407757 448.618735 
L 547.400463 446.926974 
L 548.393168 431.775186 
L 549.385874 443.159863 
L 550.37858 439.891519 
L 551.371286 437.502929 
L 552.363992 442.970315 
L 553.356698 442.381555 
L 554.349404 459.521197 
L 555.34211 442.916714 
L 556.334816 441.662867 
L 557.327522 447.064399 
L 558.320228 449.386222 
L 559.312934 439.693122 
L 560.30564 443.489766 
L 561.298345 440.385541 
L 562.291051 441.145188 
L 563.283757 438.227797 
L 564.276463 444.11784 
L 565.269169 443.752332 
L 566.261875 442.40038 
L 567.254581 453.202738 
L 568.247287 437.267005 
L 569.239993 439.583535 
L 570.232699 439.987548 
L 571.225405 443.63087 
L 572.218111 447.951195 
L 574.203523 450.130599 
L 575.196228 443.269864 
L 576.188934 448.930585 
L 577.18164 439.281894 
L 578.174346 442.696432 
L 579.167052 444.275778 
L 580.159758 447.056745 
L 581.152464 448.058805 
L 582.14517 457.081099 
L 583.137876 448.425653 
L 584.130582 451.087523 
L 585.123288 444.840026 
L 586.115994 446.667208 
L 587.1087 452.651257 
L 588.101405 452.215136 
L 589.094111 448.216774 
L 590.086817 447.098224 
L 591.079523 450.859293 
L 592.072229 449.326344 
L 593.064935 451.103945 
L 594.057641 448.356312 
L 595.050347 454.1514 
L 596.043053 450.762415 
L 597.035759 453.608149 
L 598.028465 451.629504 
L 599.021171 450.406743 
L 600.013877 449.803152 
L 601.006582 444.242085 
L 601.999288 455.029956 
L 602.991994 451.748158 
L 603.9847 449.853723 
L 604.977406 455.195811 
L 605.970112 456.355483 
L 606.962818 454.321163 
L 607.955524 455.372833 
L 608.94823 450.877079 
L 609.940936 451.230357 
L 610.933642 451.425874 
L 611.926348 452.528045 
L 612.919054 449.709 
L 613.911759 453.251645 
L 614.904465 453.797593 
L 615.897171 454.575062 
L 616.889877 456.36852 
L 617.882583 451.292717 
L 618.875289 454.335896 
L 619.867995 452.538276 
L 620.860701 451.804146 
L 621.853407 457.225914 
L 622.846113 451.74406 
L 623.838819 450.068857 
L 624.831525 454.231042 
L 625.824231 454.333874 
L 626.816936 453.871993 
L 627.809642 458.2746 
L 628.802348 456.545147 
L 629.795054 455.870955 
L 630.78776 454.763397 
L 632.773172 455.445213 
L 633.765878 457.610742 
L 634.758584 454.543735 
L 635.75129 455.433255 
L 636.743996 457.277295 
L 637.736702 455.007876 
L 638.729408 454.096465 
L 639.722114 458.364355 
L 640.714819 458.473248 
L 641.707525 459.619899 
L 642.700231 457.87567 
L 643.692937 457.253922 
L 644.685643 457.062422 
L 645.678349 457.860395 
L 646.671055 456.926281 
L 647.663761 461.362497 
L 648.656467 457.297724 
L 649.649173 458.622735 
L 650.641879 459.581383 
L 652.627291 459.469003 
L 653.619996 456.838095 
L 654.612702 461.082234 
L 655.605408 459.156461 
L 656.598114 459.205015 
L 657.59082 460.237503 
L 658.583526 458.709024 
L 659.576232 456.499484 
L 660.568938 459.238338 
L 661.561644 460.611362 
L 662.55435 459.670506 
L 663.547056 458.393243 
L 664.539762 463.169303 
L 665.532468 461.176578 
L 666.525173 460.393809 
L 667.517879 460.181669 
L 668.510585 462.620446 
L 669.503291 460.386367 
L 670.495997 460.438901 
L 671.488703 461.813207 
L 672.481409 461.488059 
L 673.474115 461.713533 
L 674.466821 461.683066 
L 675.459527 461.94679 
L 676.452233 462.392098 
L 677.444939 461.934967 
L 678.437645 462.25989 
L 679.43035 461.773308 
L 680.423056 462.427523 
L 681.415762 460.798839 
L 682.408468 462.815239 
L 683.401174 463.409168 
L 684.39388 462.788394 
L 685.386586 463.015147 
L 686.379292 463.899346 
L 688.364704 463.360779 
L 689.35741 463.744262 
L 690.350116 463.866062 
L 691.342822 463.108903 
L 692.335527 463.43477 
L 693.328233 464.77014 
L 694.320939 464.231963 
L 695.313645 464.150981 
L 696.306351 463.320636 
L 697.299057 464.671654 
L 698.291763 463.727402 
L 699.284469 463.800278 
L 700.277175 464.50993 
L 701.269881 464.562282 
L 702.262587 465.609154 
L 703.255293 464.888733 
L 705.240705 464.897193 
L 706.23341 465.447772 
L 707.226116 465.43337 
L 708.218822 465.186697 
L 709.211528 466.078263 
L 710.204234 466.447286 
L 711.19694 465.930071 
L 712.189646 466.142249 
L 713.182352 465.546957 
L 714.175058 465.640417 
L 715.167764 465.486315 
L 716.16047 466.84982 
L 717.153176 466.483291 
L 718.145882 466.49338 
L 719.138587 467.246176 
L 720.131293 466.943879 
L 721.123999 467.090446 
L 722.116705 467.515344 
L 723.109411 467.124476 
L 724.102117 467.369622 
L 725.094823 467.730273 
L 726.087529 467.525166 
L 728.072941 467.742735 
L 729.065647 468.147042 
L 730.058353 468.209756 
L 731.051059 467.847438 
L 732.043764 468.505426 
L 733.03647 468.073036 
L 734.029176 468.227873 
L 735.021882 468.711958 
L 736.014588 468.740383 
L 737.007294 468.653741 
L 738 469.786672 
L 738.992706 469.149574 
L 739.985412 469.285852 
L 740.978118 469.619627 
L 741.970824 468.651964 
L 742.96353 468.729773 
L 743.956236 469.190749 
L 744.948941 469.497168 
L 745.941647 470.431077 
L 746.934353 470.05905 
L 747.927059 470.048791 
L 748.919765 469.725195 
L 749.912471 470.081246 
L 751.897883 470.295528 
L 752.890589 469.849048 
L 753.883295 470.839816 
L 754.876001 470.577255 
L 755.868707 470.56891 
L 756.861413 470.906082 
L 757.854118 470.666665 
L 758.846824 471.074561 
L 759.83953 470.94667 
L 760.832236 471.465439 
L 761.824942 471.00036 
L 762.817648 471.695576 
L 763.810354 471.189126 
L 764.80306 471.022322 
L 766.788472 471.625058 
L 769.76659 472.241542 
L 770.759295 472.701425 
L 771.752001 472.584299 
L 772.744707 472.230173 
L 773.737413 472.410543 
L 774.730119 472.930119 
L 775.722825 472.044464 
L 776.715531 472.950898 
L 777.708237 472.318055 
L 778.700943 472.940691 
L 779.693649 473.217472 
L 780.686355 473.158376 
L 781.679061 472.267974 
L 782.671767 473.027579 
L 783.664473 473.053141 
L 784.657178 473.66357 
L 785.649884 473.267934 
L 786.64259 473.726274 
L 787.635296 473.482514 
L 789.620708 473.8706 
L 791.60612 473.758541 
L 792.598826 474.544373 
L 793.591532 474.366716 
L 794.584238 473.919185 
L 795.576944 474.337095 
L 796.56965 474.123689 
L 798.555061 474.130203 
L 799.547767 474.642895 
L 800.540473 474.050128 
L 802.525885 475.359639 
L 803.518591 475.117995 
L 804.511297 475.206243 
L 805.504003 474.933469 
L 806.496709 475.500355 
L 807.489415 475.480105 
L 808.482121 475.237661 
L 810.467532 476.113431 
L 811.460238 475.545609 
L 813.44565 476.145052 
L 815.431062 475.517459 
L 816.423768 476.267831 
L 818.40918 476.456583 
L 819.401886 475.992121 
L 820.394592 476.045625 
L 821.387298 476.536508 
L 822.380004 476.89923 
L 823.372709 476.494796 
L 824.365415 476.757725 
L 825.358121 477.19015 
L 826.350827 477.075988 
L 827.343533 476.702788 
L 828.336239 477.371145 
L 829.328945 476.978974 
L 830.321651 477.324468 
L 831.314357 476.929968 
L 832.307063 477.291776 
L 833.299769 477.28016 
L 834.292475 477.103892 
L 835.285181 477.213769 
L 836.277886 477.899312 
L 837.270592 476.936377 
L 838.263298 477.64245 
L 839.256004 477.248784 
L 840.24871 477.826675 
L 841.241416 477.994168 
L 842.234122 477.733639 
L 843.226828 478.382774 
L 844.219534 478.554761 
L 845.21224 478.204192 
L 847.197652 478.570638 
L 849.183064 478.094661 
L 850.175769 478.413118 
L 851.168475 479.235862 
L 852.161181 478.728534 
L 853.153887 478.746115 
L 855.139299 479.077528 
L 856.132005 478.928197 
L 857.124711 479.077659 
L 858.117417 478.813501 
L 859.110123 479.489811 
L 860.102829 479.081232 
L 861.095535 479.160449 
L 862.088241 479.446846 
L 864.073652 479.60142 
L 865.066358 480.154376 
L 866.059064 479.359341 
L 867.05177 479.991262 
L 868.044476 479.921876 
L 869.037182 480.197428 
L 870.029888 479.456249 
L 871.022594 480.15342 
L 872.0153 480.367813 
L 874.000712 480.213196 
L 874.993418 480.008754 
L 875.986123 480.550471 
L 876.978829 480.854778 
L 877.971535 480.515804 
L 878.964241 480.457296 
L 879.956947 481.022848 
L 880.949653 480.330956 
L 881.942359 480.736776 
L 882.935065 480.929141 
L 884.920477 480.940769 
L 886.905889 481.688742 
L 887.898595 481.07041 
L 888.8913 480.811943 
L 889.884006 481.412478 
L 890.876712 480.768516 
L 891.869418 481.325873 
L 892.862124 481.315648 
L 894.847536 482.074044 
L 895.840242 481.758047 
L 897.825654 481.62831 
L 898.81836 481.714922 
L 899.811066 481.927959 
L 900.803772 482.257429 
L 901.796477 482.420735 
L 902.789183 482.262478 
L 903.781889 481.364683 
L 904.774595 482.359231 
L 905.767301 482.077391 
L 906.760007 482.687031 
L 907.752713 482.41905 
L 908.745419 481.999936 
L 909.738125 482.562937 
L 910.730831 482.788715 
L 913.708949 482.514267 
L 914.701655 482.603059 
L 915.69436 483.374338 
L 916.687066 483.008655 
L 917.679772 483.013571 
L 918.672478 482.562632 
L 920.65789 483.118313 
L 921.650596 482.901558 
L 922.643302 483.781252 
L 923.636008 483.608239 
L 924.628714 483.28991 
L 925.62142 483.098637 
L 926.614126 483.598135 
L 927.606832 483.470769 
L 928.599537 483.709018 
L 929.592243 483.510068 
L 930.584949 483.80642 
L 931.577655 483.084035 
L 932.570361 484.381402 
L 933.563067 484.206453 
L 934.555773 483.850464 
L 938.526597 484.234774 
L 939.519303 483.750456 
L 941.504714 484.278989 
L 942.49742 483.886539 
L 943.490126 483.816376 
L 944.482832 484.409217 
L 945.475538 484.503243 
L 946.468244 483.819901 
L 947.46095 484.56251 
L 948.453656 484.592578 
L 949.446362 484.855919 
L 950.439068 484.953463 
L 952.42448 484.644228 
L 953.417186 484.855623 
L 954.409891 484.832217 
L 955.402597 484.538237 
L 956.395303 485.225383 
L 957.388009 484.620409 
L 958.380715 485.056421 
L 959.373421 484.816612 
L 960.366127 484.836795 
L 961.358833 485.417995 
L 962.351539 485.3912 
L 963.344245 485.11565 
L 964.336951 485.29939 
L 965.329657 485.081359 
L 966.322363 485.763924 
L 967.315068 485.496118 
L 969.30048 485.742241 
L 970.293186 486.293965 
L 972.278598 485.479637 
L 973.271304 485.672411 
L 974.26401 486.119242 
L 977.242128 485.518154 
L 978.234834 485.771386 
L 980.220246 485.962267 
L 981.212951 486.290601 
L 984.191069 486.465669 
L 985.183775 486.081088 
L 986.176481 486.543164 
L 987.169187 486.649024 
L 990.147305 486.300831 
L 991.140011 485.79734 
L 992.132717 486.780301 
L 994.118128 486.101 
L 995.110834 486.639111 
L 996.10354 486.794522 
L 997.096246 486.365886 
L 998.088952 486.661625 
L 1000.074364 487.015424 
L 1001.06707 486.424934 
L 1003.052482 487.135098 
L 1004.045188 487.044673 
L 1005.037894 487.686968 
L 1007.023305 486.671446 
L 1010.001423 487.467569 
L 1013.972247 487.335346 
L 1014.964953 487.281472 
L 1015.957659 487.553309 
L 1016.950365 488.00917 
L 1017.943071 487.973829 
L 1019.928482 487.368861 
L 1020.921188 487.547459 
L 1021.913894 487.437366 
L 1022.9066 487.496796 
L 1023.899306 488.182315 
L 1025.884718 487.522689 
L 1026.877424 488.226023 
L 1027.87013 488.000237 
L 1028.862836 487.559636 
L 1029.855542 488.337493 
L 1030.848248 488.07848 
L 1031.840954 488.182679 
L 1032.833659 488.753362 
L 1033.826365 487.964897 
L 1034.819071 487.822559 
L 1035.811777 488.299368 
L 1036.804483 488.572939 
L 1039.782601 488.177555 
L 1040.775307 488.315658 
L 1041.768013 488.593023 
L 1042.760719 488.444317 
L 1043.753425 487.858552 
L 1044.746131 488.318363 
L 1046.731542 488.719121 
L 1047.724248 488.96843 
L 1048.716954 488.532359 
L 1049.70966 488.808588 
L 1050.702366 488.249845 
L 1052.687778 488.952853 
L 1053.680484 488.920718 
L 1054.67319 489.257493 
L 1055.665896 488.348719 
L 1056.658602 488.839634 
L 1057.651308 488.744673 
L 1058.644014 489.004087 
L 1059.636719 489.135422 
L 1060.629425 489.381503 
L 1063.607543 488.832079 
L 1064.600249 489.115462 
L 1065.592955 488.98594 
L 1066.585661 489.055218 
L 1067.578367 488.376677 
L 1069.563779 489.408419 
L 1070.556485 489.596818 
L 1071.549191 489.469575 
L 1072.541896 489.172872 
L 1073.534602 489.277471 
L 1074.527308 488.925935 
L 1075.520014 489.540363 
L 1080.483544 489.3904 
L 1081.47625 489.82604 
L 1083.461662 489.852706 
L 1084.454368 489.216164 
L 1085.447073 489.912656 
L 1086.439779 490.317957 
L 1087.432485 489.888611 
L 1088.425191 490.024774 
L 1089.417897 489.777451 
L 1090.410603 489.918237 
L 1091.403309 489.773028 
L 1094.381427 489.760636 
L 1095.374133 489.913149 
L 1096.366839 489.615613 
L 1097.359545 489.815804 
L 1098.35225 489.764356 
L 1099.344956 490.836252 
L 1100.337662 489.966474 
L 1101.330368 490.030314 
L 1102.323074 490.287283 
L 1103.31578 489.809132 
L 1104.308486 490.325031 
L 1105.301192 490.027844 
L 1106.293898 490.14941 
L 1108.27931 489.977586 
L 1109.272016 490.942949 
L 1110.264722 490.837851 
L 1111.257428 490.028414 
L 1112.250133 490.745805 
L 1113.242839 490.08058 
L 1115.228251 490.47066 
L 1116.220957 490.299165 
L 1117.213663 490.649694 
L 1118.206369 490.213173 
L 1119.199075 490.568473 
L 1120.191781 490.208561 
L 1122.177193 490.109978 
L 1123.169899 491.267643 
L 1124.162605 490.142363 
L 1125.15531 490.47819 
L 1126.148016 490.947416 
L 1127.140722 490.679975 
L 1128.133428 491.063186 
L 1129.126134 490.958671 
L 1130.11884 491.081734 
L 1131.111546 490.363053 
L 1133.096958 491.11369 
L 1134.089664 490.429562 
L 1135.08237 491.039109 
L 1136.075076 490.582431 
L 1137.067782 490.592318 
L 1138.060487 490.818215 
L 1139.053193 490.857096 
L 1140.045899 490.493479 
L 1141.038605 491.242714 
L 1142.031311 491.163779 
L 1143.024017 490.852033 
L 1144.016723 490.927654 
L 1145.009429 490.874977 
L 1146.002135 491.049004 
L 1146.994841 489.94212 
L 1147.987547 491.194427 
L 1148.980253 490.893411 
L 1149.972959 490.232966 
L 1150.965664 491.106824 
L 1151.95837 491.35205 
L 1152.951076 491.259472 
L 1154.936488 490.575384 
L 1155.929194 491.242963 
L 1156.9219 490.710395 
L 1158.907312 491.574545 
L 1159.900018 490.949021 
L 1160.892724 490.700229 
L 1161.88543 491.069626 
L 1162.878136 491.162028 
L 1163.870841 490.869714 
L 1164.863547 491.839184 
L 1165.856253 491.49625 
L 1166.848959 491.297876 
L 1168.834371 491.380211 
L 1169.827077 491.593524 
L 1170.819783 490.928266 
L 1171.812489 491.753984 
L 1172.805195 491.111036 
L 1173.797901 491.001556 
L 1174.790607 491.294072 
L 1175.783313 491.905256 
L 1176.776019 491.845212 
L 1177.768724 491.300939 
L 1178.76143 491.154989 
L 1179.754136 491.228849 
L 1180.746842 490.991245 
L 1181.739548 491.053889 
L 1182.732254 491.603312 
L 1183.72496 491.467443 
L 1184.717666 491.592898 
L 1185.710372 490.795014 
L 1186.703078 491.279773 
L 1189.681196 491.375185 
L 1190.673901 491.956468 
L 1191.666607 491.806541 
L 1192.659313 491.364526 
L 1193.652019 492.48 
L 1194.644725 491.718528 
L 1195.637431 491.44155 
L 1196.630137 491.947201 
L 1197.622843 491.510426 
L 1198.615549 491.958729 
L 1199.608255 491.896949 
L 1200.600961 491.395596 
L 1201.593667 491.391578 
L 1202.586373 490.892997 
L 1203.579078 491.568904 
L 1205.56449 491.67256 
L 1206.557196 490.906767 
L 1207.549902 491.154604 
L 1208.542608 491.214259 
L 1209.535314 491.982995 
L 1210.52802 491.890484 
L 1211.520726 491.240791 
L 1212.513432 492.35648 
L 1213.506138 491.721975 
L 1214.498844 491.97813 
L 1215.49155 491.154088 
L 1216.484255 491.247164 
L 1217.476961 491.839042 
L 1218.469667 492.07462 
L 1219.462373 491.53358 
L 1220.455079 491.520026 
L 1221.447785 492.023191 
L 1222.440491 491.290812 
L 1223.433197 491.455524 
L 1225.418609 492.124245 
L 1226.411315 492.030926 
L 1227.404021 491.673216 
L 1228.396727 491.893654 
L 1229.389432 491.32777 
L 1230.382138 492.001021 
L 1231.374844 491.409389 
L 1232.36755 491.076036 
L 1233.360256 491.77146 
L 1234.352962 491.90797 
L 1235.345668 491.830851 
L 1236.338374 491.199329 
L 1237.33108 491.903803 
L 1238.323786 491.52581 
L 1239.316492 491.520044 
L 1240.309198 491.830808 
L 1241.301904 491.66304 
L 1242.29461 491.204125 
L 1243.287315 491.702507 
L 1244.280021 491.928294 
L 1245.272727 491.055971 
L 1245.272727 491.055971 
" clip-path="url(#pd39fff37ca)" style="fill: none; stroke: #1f77b4; stroke-width: 1.5; stroke-linecap: square"/>
   </g>
   <g id="patch_3">
    <path d="M 180 512.64 
L 180 69.12 
" style="fill: none; stroke: #000000; stroke-width: 0.8; stroke-linejoin: miter; stroke-linecap: square"/>
   </g>
   <g id="patch_4">
    <path d="M 1296 512.64 
L 1296 69.12 
" style="fill: none; stroke: #000000; stroke-width: 0.8; stroke-linejoin: miter; stroke-linecap: square"/>
   </g>
   <g id="patch_5">
    <path d="M 180 512.64 
L 1296 512.64 
" style="fill: none; stroke: #000000; stroke-width: 0.8; stroke-linejoin: miter; stroke-linecap: square"/>
   </g>
   <g id="patch_6">
    <path d="M 180 69.12 
L 1296 69.12 
" style="fill: none; stroke: #000000; stroke-width: 0.8; stroke-linejoin: miter; stroke-linecap: square"/>
   </g>
   <g id="text_14">
    <!-- source21-receiver8 -->
    <g transform="translate(544.9 60.80125) scale(0.4 -0.4)">
     <defs>
      <path id="DejaVuSans-73" d="M 2834 3397 
L 2834 2853 
Q 2591 2978 2328 3040 
Q 2066 3103 1784 3103 
Q 1356 3103 1142 2972 
Q 928 2841 928 2578 
Q 928 2378 1081 2264 
Q 1234 2150 1697 2047 
L 1894 2003 
Q 2506 1872 2764 1633 
Q 3022 1394 3022 966 
Q 3022 478 2636 193 
Q 2250 -91 1575 -91 
Q 1294 -91 989 -36 
Q 684 19 347 128 
L 347 722 
Q 666 556 975 473 
Q 1284 391 1588 391 
Q 1994 391 2212 530 
Q 2431 669 2431 922 
Q 2431 1156 2273 1281 
Q 2116 1406 1581 1522 
L 1381 1569 
Q 847 1681 609 1914 
Q 372 2147 372 2553 
Q 372 3047 722 3315 
Q 1072 3584 1716 3584 
Q 2034 3584 2315 3537 
Q 2597 3491 2834 3397 
z
" transform="scale(0.015625)"/>
      <path id="DejaVuSans-6f" d="M 1959 3097 
Q 1497 3097 1228 2736 
Q 959 2375 959 1747 
Q 959 1119 1226 758 
Q 1494 397 1959 397 
Q 2419 397 2687 759 
Q 2956 1122 2956 1747 
Q 2956 2369 2687 2733 
Q 2419 3097 1959 3097 
z
M 1959 3584 
Q 2709 3584 3137 3096 
Q 3566 2609 3566 1747 
Q 3566 888 3137 398 
Q 2709 -91 1959 -91 
Q 1206 -91 779 398 
Q 353 888 353 1747 
Q 353 2609 779 3096 
Q 1206 3584 1959 3584 
z
" transform="scale(0.015625)"/>
      <path id="DejaVuSans-75" d="M 544 1381 
L 544 3500 
L 1119 3500 
L 1119 1403 
Q 1119 906 1312 657 
Q 1506 409 1894 409 
Q 2359 409 2629 706 
Q 2900 1003 2900 1516 
L 2900 3500 
L 3475 3500 
L 3475 0 
L 2900 0 
L 2900 538 
Q 2691 219 2414 64 
Q 2138 -91 1772 -91 
Q 1169 -91 856 284 
Q 544 659 544 1381 
z
M 1991 3584 
L 1991 3584 
z
" transform="scale(0.015625)"/>
      <path id="DejaVuSans-72" d="M 2631 2963 
Q 2534 3019 2420 3045 
Q 2306 3072 2169 3072 
Q 1681 3072 1420 2755 
Q 1159 2438 1159 1844 
L 1159 0 
L 581 0 
L 581 3500 
L 1159 3500 
L 1159 2956 
Q 1341 3275 1631 3429 
Q 1922 3584 2338 3584 
Q 2397 3584 2469 3576 
Q 2541 3569 2628 3553 
L 2631 2963 
z
" transform="scale(0.015625)"/>
      <path id="DejaVuSans-63" d="M 3122 3366 
L 3122 2828 
Q 2878 2963 2633 3030 
Q 2388 3097 2138 3097 
Q 1578 3097 1268 2742 
Q 959 2388 959 1747 
Q 959 1106 1268 751 
Q 1578 397 2138 397 
Q 2388 397 2633 464 
Q 2878 531 3122 666 
L 3122 134 
Q 2881 22 2623 -34 
Q 2366 -91 2075 -91 
Q 1284 -91 818 406 
Q 353 903 353 1747 
Q 353 2603 823 3093 
Q 1294 3584 2113 3584 
Q 2378 3584 2631 3529 
Q 2884 3475 3122 3366 
z
" transform="scale(0.015625)"/>
      <path id="DejaVuSans-65" d="M 3597 1894 
L 3597 1613 
L 953 1613 
Q 991 1019 1311 708 
Q 1631 397 2203 397 
Q 2534 397 2845 478 
Q 3156 559 3463 722 
L 3463 178 
Q 3153 47 2828 -22 
Q 2503 -91 2169 -91 
Q 1331 -91 842 396 
Q 353 884 353 1716 
Q 353 2575 817 3079 
Q 1281 3584 2069 3584 
Q 2775 3584 3186 3129 
Q 3597 2675 3597 1894 
z
M 3022 2063 
Q 3016 2534 2758 2815 
Q 2500 3097 2075 3097 
Q 1594 3097 1305 2825 
Q 1016 2553 972 2059 
L 3022 2063 
z
" transform="scale(0.015625)"/>
      <path id="DejaVuSans-2d" d="M 313 2009 
L 1997 2009 
L 1997 1497 
L 313 1497 
L 313 2009 
z
" transform="scale(0.015625)"/>
      <path id="DejaVuSans-69" d="M 603 3500 
L 1178 3500 
L 1178 0 
L 603 0 
L 603 3500 
z
M 603 4863 
L 1178 4863 
L 1178 4134 
L 603 4134 
L 603 4863 
z
" transform="scale(0.015625)"/>
      <path id="DejaVuSans-76" d="M 191 3500 
L 800 3500 
L 1894 563 
L 2988 3500 
L 3597 3500 
L 2284 0 
L 1503 0 
L 191 3500 
z
" transform="scale(0.015625)"/>
      <path id="DejaVuSans-38" d="M 2034 2216 
Q 1584 2216 1326 1975 
Q 1069 1734 1069 1313 
Q 1069 891 1326 650 
Q 1584 409 2034 409 
Q 2484 409 2743 651 
Q 3003 894 3003 1313 
Q 3003 1734 2745 1975 
Q 2488 2216 2034 2216 
z
M 1403 2484 
Q 997 2584 770 2862 
Q 544 3141 544 3541 
Q 544 4100 942 4425 
Q 1341 4750 2034 4750 
Q 2731 4750 3128 4425 
Q 3525 4100 3525 3541 
Q 3525 3141 3298 2862 
Q 3072 2584 2669 2484 
Q 3125 2378 3379 2068 
Q 3634 1759 3634 1313 
Q 3634 634 3220 271 
Q 2806 -91 2034 -91 
Q 1263 -91 848 271 
Q 434 634 434 1313 
Q 434 1759 690 2068 
Q 947 2378 1403 2484 
z
M 1172 3481 
Q 1172 3119 1398 2916 
Q 1625 2713 2034 2713 
Q 2441 2713 2670 2916 
Q 2900 3119 2900 3481 
Q 2900 3844 2670 4047 
Q 2441 4250 2034 4250 
Q 1625 4250 1398 4047 
Q 1172 3844 1172 3481 
z
" transform="scale(0.015625)"/>
     </defs>
     <use xlink:href="#DejaVuSans-73"/>
     <use xlink:href="#DejaVuSans-6f" x="52.099609"/>
     <use xlink:href="#DejaVuSans-75" x="113.28125"/>
     <use xlink:href="#DejaVuSans-72" x="176.660156"/>
     <use xlink:href="#DejaVuSans-63" x="215.523438"/>
     <use xlink:href="#DejaVuSans-65" x="270.503906"/>
     <use xlink:href="#DejaVuSans-32" x="332.027344"/>
     <use xlink:href="#DejaVuSans-31" x="395.650391"/>
     <use xlink:href="#DejaVuSans-2d" x="459.273438"/>
     <use xlink:href="#DejaVuSans-72" x="495.357422"/>
     <use xlink:href="#DejaVuSans-65" x="534.220703"/>
     <use xlink:href="#DejaVuSans-63" x="595.744141"/>
     <use xlink:href="#DejaVuSans-65" x="650.724609"/>
     <use xlink:href="#DejaVuSans-69" x="712.248047"/>
     <use xlink:href="#DejaVuSans-76" x="740.03125"/>
     <use xlink:href="#DejaVuSans-65" x="799.210938"/>
     <use xlink:href="#DejaVuSans-72" x="860.734375"/>
     <use xlink:href="#DejaVuSans-38" x="901.847656"/>
    </g>
   </g>
  </g>
 </g>
 <defs>
  <clipPath id="pd39fff37ca">
   <rect x="180" y="69.12" width="1116" height="443.52"/>
  </clipPath>
 </defs>
</svg>
