<?xml version="1.0" encoding="utf-8" standalone="no"?>
<!DOCTYPE svg PUBLIC "-//W3C//DTD SVG 1.1//EN"
  "http://www.w3.org/Graphics/SVG/1.1/DTD/svg11.dtd">
<svg xmlns:xlink="http://www.w3.org/1999/xlink" width="1440pt" height="576pt" viewBox="0 0 1440 576" xmlns="http://www.w3.org/2000/svg" version="1.1">
 <metadata>
  <rdf:RDF xmlns:dc="http://purl.org/dc/elements/1.1/" xmlns:cc="http://creativecommons.org/ns#" xmlns:rdf="http://www.w3.org/1999/02/22-rdf-syntax-ns#">
   <cc:Work>
    <dc:type rdf:resource="http://purl.org/dc/dcmitype/StillImage"/>
    <dc:date>2024-05-22T04:49:54.123130</dc:date>
    <dc:format>image/svg+xml</dc:format>
    <dc:creator>
     <cc:Agent>
      <dc:title>Matplotlib v3.8.3, https://matplotlib.org/</dc:title>
     </cc:Agent>
    </dc:creator>
   </cc:Work>
  </rdf:RDF>
 </metadata>
 <defs>
  <style type="text/css">*{stroke-linejoin: round; stroke-linecap: butt}</style>
 </defs>
 <g id="figure_1">
  <g id="patch_1">
   <path d="M 0 576 
L 1440 576 
L 1440 0 
L 0 0 
z
" style="fill: #ffffff"/>
  </g>
  <g id="axes_1">
   <g id="patch_2">
    <path d="M 180 512.64 
L 1296 512.64 
L 1296 69.12 
L 180 69.12 
z
" style="fill: #ffffff"/>
   </g>
   <g id="matplotlib.axis_1">
    <g id="xtick_1">
     <g id="line2d_1">
      <defs>
       <path id="m6b4ff65c82" d="M 0 0 
L 0 3.5 
" style="stroke: #000000; stroke-width: 0.8"/>
      </defs>
      <g>
       <use xlink:href="#m6b4ff65c82" x="229.734567" y="512.64" style="stroke: #000000; stroke-width: 0.8"/>
      </g>
     </g>
     <g id="text_1">
      <!-- 0 -->
      <g transform="translate(226.553317 527.238438) scale(0.1 -0.1)">
       <defs>
        <path id="DejaVuSans-30" d="M 2034 4250 
Q 1547 4250 1301 3770 
Q 1056 3291 1056 2328 
Q 1056 1369 1301 889 
Q 1547 409 2034 409 
Q 2525 409 2770 889 
Q 3016 1369 3016 2328 
Q 3016 3291 2770 3770 
Q 2525 4250 2034 4250 
z
M 2034 4750 
Q 2819 4750 3233 4129 
Q 3647 3509 3647 2328 
Q 3647 1150 3233 529 
Q 2819 -91 2034 -91 
Q 1250 -91 836 529 
Q 422 1150 422 2328 
Q 422 3509 836 4129 
Q 1250 4750 2034 4750 
z
" transform="scale(0.015625)"/>
       </defs>
       <use xlink:href="#DejaVuSans-30"/>
      </g>
     </g>
    </g>
    <g id="xtick_2">
     <g id="line2d_2">
      <g>
       <use xlink:href="#m6b4ff65c82" x="433.04074" y="512.64" style="stroke: #000000; stroke-width: 0.8"/>
      </g>
     </g>
     <g id="text_2">
      <!-- 500 -->
      <g transform="translate(423.49699 527.238438) scale(0.1 -0.1)">
       <defs>
        <path id="DejaVuSans-35" d="M 691 4666 
L 3169 4666 
L 3169 4134 
L 1269 4134 
L 1269 2991 
Q 1406 3038 1543 3061 
Q 1681 3084 1819 3084 
Q 2600 3084 3056 2656 
Q 3513 2228 3513 1497 
Q 3513 744 3044 326 
Q 2575 -91 1722 -91 
Q 1428 -91 1123 -41 
Q 819 9 494 109 
L 494 744 
Q 775 591 1075 516 
Q 1375 441 1709 441 
Q 2250 441 2565 725 
Q 2881 1009 2881 1497 
Q 2881 1984 2565 2268 
Q 2250 2553 1709 2553 
Q 1456 2553 1204 2497 
Q 953 2441 691 2322 
L 691 4666 
z
" transform="scale(0.015625)"/>
       </defs>
       <use xlink:href="#DejaVuSans-35"/>
       <use xlink:href="#DejaVuSans-30" x="63.623047"/>
       <use xlink:href="#DejaVuSans-30" x="127.246094"/>
      </g>
     </g>
    </g>
    <g id="xtick_3">
     <g id="line2d_3">
      <g>
       <use xlink:href="#m6b4ff65c82" x="636.346913" y="512.64" style="stroke: #000000; stroke-width: 0.8"/>
      </g>
     </g>
     <g id="text_3">
      <!-- 1000 -->
      <g transform="translate(623.621913 527.238438) scale(0.1 -0.1)">
       <defs>
        <path id="DejaVuSans-31" d="M 794 531 
L 1825 531 
L 1825 4091 
L 703 3866 
L 703 4441 
L 1819 4666 
L 2450 4666 
L 2450 531 
L 3481 531 
L 3481 0 
L 794 0 
L 794 531 
z
" transform="scale(0.015625)"/>
       </defs>
       <use xlink:href="#DejaVuSans-31"/>
       <use xlink:href="#DejaVuSans-30" x="63.623047"/>
       <use xlink:href="#DejaVuSans-30" x="127.246094"/>
       <use xlink:href="#DejaVuSans-30" x="190.869141"/>
      </g>
     </g>
    </g>
    <g id="xtick_4">
     <g id="line2d_4">
      <g>
       <use xlink:href="#m6b4ff65c82" x="839.653087" y="512.64" style="stroke: #000000; stroke-width: 0.8"/>
      </g>
     </g>
     <g id="text_4">
      <!-- 1500 -->
      <g transform="translate(826.928087 527.238438) scale(0.1 -0.1)">
       <use xlink:href="#DejaVuSans-31"/>
       <use xlink:href="#DejaVuSans-35" x="63.623047"/>
       <use xlink:href="#DejaVuSans-30" x="127.246094"/>
       <use xlink:href="#DejaVuSans-30" x="190.869141"/>
      </g>
     </g>
    </g>
    <g id="xtick_5">
     <g id="line2d_5">
      <g>
       <use xlink:href="#m6b4ff65c82" x="1042.95926" y="512.64" style="stroke: #000000; stroke-width: 0.8"/>
      </g>
     </g>
     <g id="text_5">
      <!-- 2000 -->
      <g transform="translate(1030.23426 527.238438) scale(0.1 -0.1)">
       <defs>
        <path id="DejaVuSans-32" d="M 1228 531 
L 3431 531 
L 3431 0 
L 469 0 
L 469 531 
Q 828 903 1448 1529 
Q 2069 2156 2228 2338 
Q 2531 2678 2651 2914 
Q 2772 3150 2772 3378 
Q 2772 3750 2511 3984 
Q 2250 4219 1831 4219 
Q 1534 4219 1204 4116 
Q 875 4013 500 3803 
L 500 4441 
Q 881 4594 1212 4672 
Q 1544 4750 1819 4750 
Q 2544 4750 2975 4387 
Q 3406 4025 3406 3419 
Q 3406 3131 3298 2873 
Q 3191 2616 2906 2266 
Q 2828 2175 2409 1742 
Q 1991 1309 1228 531 
z
" transform="scale(0.015625)"/>
       </defs>
       <use xlink:href="#DejaVuSans-32"/>
       <use xlink:href="#DejaVuSans-30" x="63.623047"/>
       <use xlink:href="#DejaVuSans-30" x="127.246094"/>
       <use xlink:href="#DejaVuSans-30" x="190.869141"/>
      </g>
     </g>
    </g>
    <g id="xtick_6">
     <g id="line2d_6">
      <g>
       <use xlink:href="#m6b4ff65c82" x="1246.265433" y="512.64" style="stroke: #000000; stroke-width: 0.8"/>
      </g>
     </g>
     <g id="text_6">
      <!-- 2500 -->
      <g transform="translate(1233.540433 527.238438) scale(0.1 -0.1)">
       <use xlink:href="#DejaVuSans-32"/>
       <use xlink:href="#DejaVuSans-35" x="63.623047"/>
       <use xlink:href="#DejaVuSans-30" x="127.246094"/>
       <use xlink:href="#DejaVuSans-30" x="190.869141"/>
      </g>
     </g>
    </g>
   </g>
   <g id="matplotlib.axis_2">
    <g id="ytick_1">
     <g id="line2d_7">
      <defs>
       <path id="m001057f2f5" d="M 0 0 
L -3.5 0 
" style="stroke: #000000; stroke-width: 0.8"/>
      </defs>
      <g>
       <use xlink:href="#m001057f2f5" x="180" y="442.125384" style="stroke: #000000; stroke-width: 0.8"/>
      </g>
     </g>
     <g id="text_7">
      <!-- −4 -->
      <g transform="translate(158.257812 445.924603) scale(0.1 -0.1)">
       <defs>
        <path id="DejaVuSans-2212" d="M 678 2272 
L 4684 2272 
L 4684 1741 
L 678 1741 
L 678 2272 
z
" transform="scale(0.015625)"/>
        <path id="DejaVuSans-34" d="M 2419 4116 
L 825 1625 
L 2419 1625 
L 2419 4116 
z
M 2253 4666 
L 3047 4666 
L 3047 1625 
L 3713 1625 
L 3713 1100 
L 3047 1100 
L 3047 0 
L 2419 0 
L 2419 1100 
L 313 1100 
L 313 1709 
L 2253 4666 
z
" transform="scale(0.015625)"/>
       </defs>
       <use xlink:href="#DejaVuSans-2212"/>
       <use xlink:href="#DejaVuSans-34" x="83.789062"/>
      </g>
     </g>
    </g>
    <g id="ytick_2">
     <g id="line2d_8">
      <g>
       <use xlink:href="#m001057f2f5" x="180" y="355.853275" style="stroke: #000000; stroke-width: 0.8"/>
      </g>
     </g>
     <g id="text_8">
      <!-- −2 -->
      <g transform="translate(158.257812 359.652494) scale(0.1 -0.1)">
       <use xlink:href="#DejaVuSans-2212"/>
       <use xlink:href="#DejaVuSans-32" x="83.789062"/>
      </g>
     </g>
    </g>
    <g id="ytick_3">
     <g id="line2d_9">
      <g>
       <use xlink:href="#m001057f2f5" x="180" y="269.581166" style="stroke: #000000; stroke-width: 0.8"/>
      </g>
     </g>
     <g id="text_9">
      <!-- 0 -->
      <g transform="translate(166.6375 273.380385) scale(0.1 -0.1)">
       <use xlink:href="#DejaVuSans-30"/>
      </g>
     </g>
    </g>
    <g id="ytick_4">
     <g id="line2d_10">
      <g>
       <use xlink:href="#m001057f2f5" x="180" y="183.309057" style="stroke: #000000; stroke-width: 0.8"/>
      </g>
     </g>
     <g id="text_10">
      <!-- 2 -->
      <g transform="translate(166.6375 187.108276) scale(0.1 -0.1)">
       <use xlink:href="#DejaVuSans-32"/>
      </g>
     </g>
    </g>
    <g id="ytick_5">
     <g id="line2d_11">
      <g>
       <use xlink:href="#m001057f2f5" x="180" y="97.036948" style="stroke: #000000; stroke-width: 0.8"/>
      </g>
     </g>
     <g id="text_11">
      <!-- 4 -->
      <g transform="translate(166.6375 100.836167) scale(0.1 -0.1)">
       <use xlink:href="#DejaVuSans-34"/>
      </g>
     </g>
    </g>
   </g>
   <g id="line2d_12">
    <path d="M 230.727273 357.320602 
L 231.719979 358.160148 
L 232.712685 358.318846 
L 233.70539 357.812498 
L 234.698096 359.096623 
L 235.690802 358.756913 
L 237.676214 360.663845 
L 239.661626 362.642551 
L 241.647038 366.904234 
L 243.63245 371.604624 
L 244.625156 375.479351 
L 245.617862 385.345753 
L 246.610568 401.232951 
L 247.603273 342.713233 
L 249.588685 263.336336 
L 250.581391 232.243108 
L 251.574097 208.869658 
L 252.566803 191.962378 
L 253.559509 181.513463 
L 254.552215 178.849233 
L 255.544921 186.939568 
L 256.537627 207.352473 
L 257.530333 206.524308 
L 258.523039 183.033739 
L 259.515745 172.649932 
L 260.50845 172.954998 
L 261.501156 180.252967 
L 262.493862 192.265396 
L 263.486568 212.024811 
L 264.479274 250.224405 
L 265.47198 213.944201 
L 266.464686 194.720257 
L 267.457392 198.214559 
L 268.450098 230.999533 
L 269.442804 244.231976 
L 270.43551 208.967856 
L 271.428216 208.072156 
L 272.420922 215.557845 
L 273.413627 210.829121 
L 274.406333 217.066224 
L 275.399039 262.109198 
L 276.391745 242.17539 
L 277.384451 218.775738 
L 279.369863 138.070904 
L 280.362569 113.230092 
L 281.355275 97.942957 
L 282.347981 90.218267 
L 283.340687 89.28 
L 284.333393 95.560117 
L 285.326099 109.088564 
L 286.318804 126.686562 
L 287.31151 132.849982 
L 288.304216 131.125248 
L 289.296922 137.70531 
L 290.289628 154.272365 
L 291.282334 167.821556 
L 292.27504 168.957245 
L 293.267746 176.282603 
L 294.260452 196.073571 
L 295.253158 206.648408 
L 296.245864 206.335403 
L 297.23857 220.117102 
L 298.231276 255.67856 
L 299.223981 309.672499 
L 300.216687 275.717461 
L 301.209393 251.146442 
L 302.202099 250.174115 
L 303.194805 289.828953 
L 304.187511 278.229569 
L 305.180217 246.616239 
L 306.172923 251.861465 
L 307.165629 287.727127 
L 308.158335 274.657269 
L 309.151041 263.670128 
L 310.143747 283.084596 
L 311.136453 338.655492 
L 312.129159 287.217676 
L 313.121864 292.180999 
L 314.11457 323.949157 
L 315.107276 317.653517 
L 316.099982 305.814131 
L 317.092688 324.160141 
L 318.085394 310.35496 
L 319.0781 319.186928 
L 320.070806 349.289648 
L 321.063512 329.579698 
L 322.056218 316.79782 
L 323.048924 320.572091 
L 324.04163 322.098858 
L 325.034336 320.05719 
L 326.027041 328.435916 
L 327.019747 329.900962 
L 328.012453 323.400735 
L 329.005159 339.473125 
L 329.997865 341.607736 
L 330.990571 332.351547 
L 331.983277 336.518271 
L 332.975983 341.228148 
L 333.968689 336.913874 
L 334.961395 334.11085 
L 335.954101 337.375126 
L 336.946807 327.293321 
L 337.939513 350.859729 
L 338.932218 344.180346 
L 340.91763 351.267371 
L 341.910336 341.944971 
L 342.903042 362.712471 
L 343.895748 352.453458 
L 344.888454 348.623411 
L 345.88116 340.920001 
L 346.873866 351.651613 
L 347.866572 343.918986 
L 348.859278 344.850741 
L 349.851984 348.151891 
L 350.84469 343.598195 
L 351.837395 353.451725 
L 352.830101 357.865177 
L 353.822807 350.143828 
L 354.815513 348.473238 
L 355.808219 338.023915 
L 356.800925 362.288813 
L 357.793631 356.003787 
L 358.786337 359.916158 
L 359.779043 364.745452 
L 360.771749 359.034521 
L 361.764455 356.523602 
L 362.757161 364.310958 
L 363.749867 359.540933 
L 364.742572 357.191052 
L 365.735278 351.09943 
L 366.727984 356.031814 
L 367.72069 366.850832 
L 368.713396 347.255553 
L 369.706102 353.049802 
L 370.698808 385.512362 
L 371.691514 354.354473 
L 372.68422 367.79198 
L 373.676926 348.405791 
L 374.669632 367.957036 
L 375.662338 356.776415 
L 376.655044 357.725004 
L 377.64775 371.62731 
L 378.640455 377.472577 
L 379.633161 366.133486 
L 380.625867 373.964707 
L 381.618573 367.020748 
L 382.611279 365.728843 
L 383.603985 349.475384 
L 384.596691 342.241108 
L 385.589397 361.208526 
L 386.582103 404.742726 
L 387.574809 350.782323 
L 388.567515 388.970368 
L 389.560221 332.310469 
L 391.545632 395.696139 
L 392.538338 375.334371 
L 393.531044 369.816201 
L 394.52375 363.045206 
L 395.516456 371.399995 
L 396.509162 358.800287 
L 397.501868 358.716051 
L 398.494574 370.948979 
L 399.48728 361.576091 
L 400.479986 410.388676 
L 401.472692 355.143606 
L 402.465398 372.379593 
L 403.458104 373.20371 
L 404.450809 377.006144 
L 405.443515 386.436149 
L 406.436221 362.711041 
L 407.428927 349.47714 
L 408.421633 371.557081 
L 409.414339 362.05801 
L 410.407045 365.506958 
L 411.399751 378.606509 
L 412.392457 384.97824 
L 413.385163 375.519363 
L 414.377869 349.874348 
L 415.370575 389.601315 
L 416.363281 382.549772 
L 417.355986 366.696735 
L 418.348692 369.140425 
L 419.341398 409.883652 
L 420.334104 401.645395 
L 421.32681 356.609111 
L 422.319516 374.605423 
L 423.312222 386.771571 
L 424.304928 364.907794 
L 425.297634 356.477243 
L 426.29034 394.714119 
L 427.283046 388.404056 
L 428.275752 377.586994 
L 429.268458 470.491025 
L 430.261163 394.907137 
L 431.253869 370.395075 
L 432.246575 393.865871 
L 433.239281 402.508958 
L 434.231987 376.385518 
L 436.217399 410.621006 
L 437.210105 368.910073 
L 438.202811 362.942108 
L 439.195517 374.817466 
L 440.188223 377.675002 
L 441.180929 371.825297 
L 442.173635 363.400464 
L 443.166341 379.875343 
L 444.159046 405.383068 
L 445.151752 374.500247 
L 446.144458 383.897403 
L 447.137164 366.059632 
L 448.12987 374.350406 
L 450.115282 385.116066 
L 451.107988 398.75205 
L 452.100694 393.592677 
L 453.0934 373.252757 
L 454.086106 397.207321 
L 455.078812 370.900451 
L 456.071518 382.518325 
L 457.064223 402.316602 
L 458.056929 391.965994 
L 459.049635 430.482034 
L 460.042341 378.92294 
L 461.035047 379.867924 
L 462.027753 372.906286 
L 463.020459 380.434625 
L 464.013165 402.2965 
L 465.005871 374.688653 
L 465.998577 412.371848 
L 466.991283 388.898558 
L 467.983989 389.874186 
L 468.976695 380.865702 
L 469.9694 422.177582 
L 470.962106 392.775258 
L 471.954812 375.841481 
L 472.947518 395.677584 
L 473.940224 391.575847 
L 474.93293 392.897321 
L 475.925636 380.047406 
L 476.918342 390.529412 
L 477.911048 392.681922 
L 478.903754 389.988566 
L 479.89646 379.81658 
L 480.889166 367.230752 
L 482.874577 419.014651 
L 483.867283 402.734694 
L 484.859989 368.019312 
L 485.852695 391.839175 
L 486.845401 389.580309 
L 487.838107 396.237211 
L 488.830813 446.998305 
L 490.816225 401.483073 
L 491.808931 379.52038 
L 492.801637 385.21869 
L 493.794343 380.267475 
L 494.787049 396.026795 
L 495.779754 422.034992 
L 496.77246 406.990582 
L 497.765166 387.573108 
L 498.757872 380.699936 
L 499.750578 374.847686 
L 500.743284 376.297705 
L 501.73599 413.430116 
L 502.728696 384.851926 
L 503.721402 385.756399 
L 504.714108 382.716822 
L 505.706814 405.788276 
L 506.69952 407.799267 
L 507.692226 385.277192 
L 508.684932 437.898231 
L 509.677637 402.548308 
L 510.670343 406.228318 
L 511.663049 378.296685 
L 512.655755 437.533605 
L 513.648461 448.641131 
L 514.641167 395.646581 
L 515.633873 404.807889 
L 516.626579 387.013494 
L 517.619285 401.587524 
L 518.611991 376.206965 
L 519.604697 394.578703 
L 520.597403 382.367862 
L 521.590109 377.472397 
L 522.582814 395.007605 
L 523.57552 401.632299 
L 524.568226 413.522958 
L 525.560932 385.966844 
L 526.553638 385.978502 
L 528.53905 431.147576 
L 529.531756 388.38624 
L 530.524462 469.973316 
L 531.517168 395.692718 
L 532.509874 407.786033 
L 533.50258 401.310998 
L 534.495286 377.426827 
L 535.487991 413.369921 
L 536.480697 380.53976 
L 537.473403 392.290585 
L 538.466109 386.113719 
L 539.458815 392.914716 
L 540.451521 396.087566 
L 541.444227 362.488899 
L 542.436933 419.188774 
L 543.429639 376.065077 
L 544.422345 390.631572 
L 545.415051 411.887359 
L 546.407757 391.040438 
L 547.400463 492.48 
L 548.393168 401.880254 
L 549.385874 386.234545 
L 550.37858 393.099648 
L 551.371286 406.613019 
L 552.363992 436.772214 
L 553.356698 366.063363 
L 554.349404 448.247777 
L 555.34211 422.053411 
L 556.334816 405.507135 
L 557.327522 443.948928 
L 558.320228 387.47785 
L 559.312934 386.118466 
L 560.30564 400.754545 
L 561.298345 399.681949 
L 562.291051 404.32709 
L 563.283757 399.828063 
L 564.276463 399.708381 
L 565.269169 428.088917 
L 566.261875 393.797536 
L 567.254581 382.968598 
L 568.247287 420.658151 
L 569.239993 377.97246 
L 570.232699 403.295675 
L 571.225405 418.652166 
L 572.218111 391.991473 
L 573.210817 395.519541 
L 574.203523 394.380042 
L 575.196228 414.118794 
L 576.188934 396.117454 
L 577.18164 407.361989 
L 578.174346 387.454231 
L 579.167052 414.25196 
L 580.159758 397.245194 
L 581.152464 398.574024 
L 582.14517 363.737485 
L 583.137876 403.280403 
L 584.130582 401.303755 
L 585.123288 390.855789 
L 586.115994 403.530573 
L 587.1087 412.597479 
L 588.101405 411.036034 
L 589.094111 416.480803 
L 590.086817 396.900048 
L 591.079523 394.607423 
L 592.072229 412.22434 
L 594.057641 430.355975 
L 595.050347 398.018082 
L 596.043053 391.730003 
L 597.035759 387.401744 
L 598.028465 394.619364 
L 599.021171 395.486675 
L 600.013877 394.628331 
L 601.006582 427.17246 
L 601.999288 436.693979 
L 602.991994 406.618043 
L 603.9847 406.676571 
L 604.977406 412.571581 
L 605.970112 412.437148 
L 606.962818 415.423763 
L 607.955524 417.632413 
L 608.94823 433.379895 
L 610.933642 407.448459 
L 611.926348 458.728446 
L 612.919054 408.449437 
L 613.911759 393.554904 
L 614.904465 409.150507 
L 615.897171 406.895917 
L 616.889877 420.119431 
L 617.882583 422.19972 
L 618.875289 409.134761 
L 619.867995 408.418544 
L 620.860701 421.200007 
L 621.853407 421.65637 
L 622.846113 416.190568 
L 623.838819 422.413247 
L 624.831525 417.813663 
L 625.824231 421.726164 
L 626.816936 409.305603 
L 627.809642 429.260926 
L 628.802348 432.523528 
L 629.795054 409.040973 
L 630.78776 410.509277 
L 631.780466 405.539415 
L 632.773172 414.851217 
L 633.765878 407.158125 
L 634.758584 413.006601 
L 635.75129 424.130705 
L 636.743996 404.008747 
L 637.736702 406.951427 
L 638.729408 427.638872 
L 639.722114 407.527977 
L 640.714819 416.176964 
L 641.707525 403.221282 
L 642.700231 412.232108 
L 643.692937 412.367383 
L 644.685643 411.984142 
L 645.678349 408.429592 
L 646.671055 411.41593 
L 647.663761 420.754822 
L 648.656467 432.743166 
L 649.649173 411.575696 
L 650.641879 413.395975 
L 651.634585 407.781138 
L 652.627291 414.327074 
L 653.619996 415.569012 
L 654.612702 411.843381 
L 655.605408 421.073239 
L 656.598114 409.011739 
L 657.59082 419.790258 
L 658.583526 418.752922 
L 659.576232 417.934418 
L 660.568938 418.527702 
L 661.561644 417.720982 
L 662.55435 416.590492 
L 663.547056 407.102579 
L 664.539762 415.790932 
L 665.532468 420.262332 
L 666.525173 426.547333 
L 667.517879 418.643296 
L 668.510585 415.726439 
L 669.503291 417.741231 
L 670.495997 415.489481 
L 671.488703 419.272849 
L 672.481409 417.512372 
L 673.474115 419.766087 
L 674.466821 416.757988 
L 675.459527 419.682677 
L 676.452233 422.220063 
L 677.444939 413.975428 
L 678.437645 415.45882 
L 679.43035 419.115151 
L 680.423056 416.920512 
L 681.415762 420.704037 
L 682.408468 420.622417 
L 683.401174 415.234681 
L 684.39388 422.040675 
L 685.386586 417.236532 
L 686.379292 419.936602 
L 687.371998 414.678219 
L 688.364704 419.016366 
L 689.35741 420.460261 
L 690.350116 420.700596 
L 691.342822 425.277687 
L 692.335527 422.231439 
L 693.328233 415.946011 
L 694.320939 416.442424 
L 695.313645 418.847337 
L 696.306351 423.298681 
L 697.299057 422.763321 
L 698.291763 418.413729 
L 699.284469 421.008182 
L 700.277175 417.975637 
L 701.269881 417.997033 
L 702.262587 417.86859 
L 703.255293 422.53196 
L 704.247999 417.144344 
L 705.240705 422.789743 
L 706.23341 419.429321 
L 707.226116 420.299455 
L 708.218822 424.484139 
L 709.211528 417.508532 
L 710.204234 417.130995 
L 711.19694 423.341244 
L 712.189646 422.761589 
L 713.182352 424.685838 
L 714.175058 420.702124 
L 715.167764 421.00805 
L 716.16047 419.508612 
L 717.153176 423.258306 
L 718.145882 422.577324 
L 719.138587 423.812044 
L 720.131293 421.87969 
L 721.123999 423.586555 
L 722.116705 419.672571 
L 723.109411 422.085707 
L 724.102117 422.072235 
L 725.094823 424.206721 
L 726.087529 418.894309 
L 728.072941 422.023557 
L 729.065647 420.978042 
L 730.058353 421.347899 
L 731.051059 422.511554 
L 732.043764 421.979528 
L 733.03647 423.394263 
L 734.029176 424.078995 
L 735.021882 423.183907 
L 736.014588 424.211487 
L 737.007294 421.987488 
L 738 425.285687 
L 738.992706 423.059581 
L 739.985412 421.525192 
L 740.978118 422.897147 
L 741.970824 423.971023 
L 742.96353 421.896546 
L 743.956236 421.0969 
L 744.948941 424.689616 
L 745.941647 420.83813 
L 746.934353 425.937845 
L 747.927059 422.717531 
L 748.919765 422.135367 
L 749.912471 423.214797 
L 750.905177 421.091844 
L 751.897883 423.952188 
L 753.883295 423.927001 
L 754.876001 426.963422 
L 755.868707 422.454357 
L 756.861413 424.806029 
L 757.854118 424.218093 
L 758.846824 422.744717 
L 759.83953 423.410418 
L 760.832236 424.471479 
L 761.824942 424.003359 
L 762.817648 426.465351 
L 763.810354 425.236878 
L 764.80306 422.621353 
L 765.795766 424.006522 
L 766.788472 426.101642 
L 767.781178 425.860718 
L 768.773884 424.843371 
L 770.759295 427.006194 
L 771.752001 425.195348 
L 773.737413 422.935808 
L 774.730119 427.322801 
L 775.722825 425.387179 
L 776.715531 425.741924 
L 777.708237 425.17603 
L 778.700943 427.0109 
L 779.693649 426.334914 
L 780.686355 426.160025 
L 781.679061 425.435062 
L 782.671767 424.12221 
L 784.657178 426.230105 
L 786.64259 424.888344 
L 787.635296 425.625965 
L 788.628002 426.60002 
L 789.620708 429.192835 
L 790.613414 424.704866 
L 791.60612 425.425052 
L 792.598826 427.0926 
L 793.591532 424.760174 
L 794.584238 426.689857 
L 795.576944 428.867926 
L 796.56965 427.063843 
L 797.562355 427.952217 
L 798.555061 425.150393 
L 799.547767 427.39281 
L 800.540473 425.209492 
L 801.533179 425.230068 
L 802.525885 427.385039 
L 803.518591 426.253472 
L 804.511297 427.893102 
L 805.504003 426.668918 
L 806.496709 428.081501 
L 807.489415 427.259667 
L 808.482121 427.479006 
L 809.474827 429.962263 
L 810.467532 426.661985 
L 811.460238 430.440644 
L 812.452944 428.814471 
L 813.44565 428.14237 
L 814.438356 426.97292 
L 815.431062 429.628707 
L 816.423768 431.39251 
L 817.416474 427.532193 
L 818.40918 429.133383 
L 819.401886 426.352133 
L 820.394592 428.527393 
L 821.387298 428.174054 
L 822.380004 427.134771 
L 823.372709 427.092942 
L 824.365415 427.688597 
L 825.358121 430.469062 
L 826.350827 430.63241 
L 827.343533 426.493033 
L 828.336239 426.735007 
L 829.328945 428.620951 
L 830.321651 426.413662 
L 831.314357 427.938062 
L 832.307063 430.193803 
L 833.299769 428.106923 
L 834.292475 426.99198 
L 835.285181 428.480162 
L 836.277886 431.789032 
L 837.270592 430.591112 
L 838.263298 428.854822 
L 839.256004 431.467243 
L 840.24871 429.775905 
L 841.241416 431.018533 
L 842.234122 431.522645 
L 843.226828 427.56367 
L 844.219534 428.769581 
L 845.21224 431.43239 
L 846.204946 430.177177 
L 847.197652 429.793785 
L 848.190358 429.574962 
L 849.183064 431.167646 
L 850.175769 433.331698 
L 851.168475 430.918304 
L 852.161181 433.608733 
L 853.153887 428.516912 
L 854.146593 429.194114 
L 855.139299 430.017875 
L 856.132005 430.680485 
L 857.124711 427.046119 
L 858.117417 427.828787 
L 859.110123 430.310356 
L 860.102829 434.198103 
L 861.095535 433.318729 
L 862.088241 430.537058 
L 863.080946 433.68961 
L 864.073652 430.671293 
L 865.066358 430.165053 
L 866.059064 430.586638 
L 867.05177 431.175036 
L 868.044476 432.356491 
L 869.037182 431.126929 
L 870.029888 431.546712 
L 871.022594 430.504339 
L 872.0153 428.312629 
L 873.008006 430.923742 
L 874.000712 428.457568 
L 874.993418 431.01685 
L 875.986123 430.932997 
L 876.978829 430.620807 
L 877.971535 431.223474 
L 878.964241 430.793846 
L 879.956947 431.232621 
L 880.949653 429.912447 
L 881.942359 433.63414 
L 882.935065 430.425938 
L 883.927771 430.264385 
L 884.920477 429.760275 
L 885.913183 431.140191 
L 886.905889 430.905073 
L 888.8913 432.174854 
L 889.884006 432.661537 
L 890.876712 429.953308 
L 891.869418 430.215386 
L 892.862124 430.715808 
L 893.85483 434.641898 
L 894.847536 431.957767 
L 895.840242 432.122159 
L 896.832948 433.276499 
L 897.825654 432.395188 
L 898.81836 431.147629 
L 899.811066 433.282735 
L 900.803772 432.430836 
L 901.796477 435.181789 
L 902.789183 433.252308 
L 903.781889 434.135932 
L 904.774595 433.135443 
L 905.767301 432.378008 
L 906.760007 433.900466 
L 907.752713 431.80027 
L 908.745419 434.507125 
L 909.738125 434.992747 
L 910.730831 433.071697 
L 911.723537 432.474464 
L 912.716243 432.56192 
L 913.708949 433.82502 
L 914.701655 430.559454 
L 915.69436 434.546402 
L 916.687066 433.364736 
L 917.679772 431.773829 
L 918.672478 433.351059 
L 919.665184 435.388921 
L 920.65789 434.035237 
L 921.650596 431.631557 
L 922.643302 433.181095 
L 923.636008 435.062533 
L 924.628714 432.137007 
L 925.62142 432.235455 
L 926.614126 432.971901 
L 927.606832 433.952505 
L 928.599537 433.050486 
L 929.592243 434.112195 
L 930.584949 431.511781 
L 931.577655 434.177505 
L 932.570361 431.156778 
L 933.563067 434.019462 
L 934.555773 432.248725 
L 935.548479 432.647202 
L 936.541185 434.140494 
L 937.533891 435.069092 
L 938.526597 433.445222 
L 939.519303 436.981466 
L 940.512009 436.281981 
L 941.504714 434.5905 
L 942.49742 433.647904 
L 943.490126 434.12383 
L 944.482832 431.771021 
L 945.475538 434.267733 
L 946.468244 434.839399 
L 947.46095 435.20427 
L 948.453656 434.118454 
L 949.446362 434.926727 
L 950.439068 434.028299 
L 951.431774 434.173342 
L 952.42448 436.464876 
L 954.409891 432.952381 
L 955.402597 433.363068 
L 956.395303 435.813614 
L 957.388009 434.288392 
L 958.380715 434.427199 
L 959.373421 433.632972 
L 960.366127 435.084939 
L 961.358833 434.974905 
L 962.351539 435.464752 
L 963.344245 433.214221 
L 964.336951 434.059399 
L 965.329657 437.042568 
L 966.322363 436.237021 
L 967.315068 436.631293 
L 968.307774 435.14945 
L 969.30048 434.696726 
L 970.293186 432.898103 
L 971.285892 435.499389 
L 972.278598 434.392642 
L 973.271304 434.492285 
L 974.26401 434.971133 
L 975.256716 434.143232 
L 976.249422 434.163024 
L 977.242128 434.624834 
L 978.234834 434.287612 
L 979.22754 432.313526 
L 980.220246 434.119839 
L 981.212951 435.431147 
L 982.205657 435.190656 
L 983.198363 435.789918 
L 984.191069 436.126029 
L 985.183775 432.337752 
L 986.176481 433.800129 
L 987.169187 436.715788 
L 988.161893 434.362524 
L 989.154599 433.065719 
L 990.147305 433.34081 
L 991.140011 435.383491 
L 992.132717 436.505558 
L 993.125423 436.110984 
L 994.118128 436.646555 
L 995.110834 434.777166 
L 996.10354 434.9601 
L 997.096246 434.909152 
L 998.088952 436.554012 
L 999.081658 435.95606 
L 1000.074364 435.787663 
L 1001.06707 436.226983 
L 1002.059776 437.029238 
L 1003.052482 435.215817 
L 1004.045188 435.875389 
L 1005.037894 435.071725 
L 1006.0306 436.680394 
L 1007.023305 440.075915 
L 1008.016011 435.538606 
L 1009.008717 433.3685 
L 1010.001423 431.898374 
L 1010.994129 437.673654 
L 1011.986835 436.779747 
L 1012.979541 437.258842 
L 1013.972247 437.885835 
L 1014.964953 435.255296 
L 1015.957659 436.354207 
L 1016.950365 434.941343 
L 1017.943071 436.421744 
L 1018.935777 437.327635 
L 1019.928482 436.117694 
L 1020.921188 435.3785 
L 1021.913894 433.952228 
L 1022.9066 435.964529 
L 1023.899306 439.206657 
L 1024.892012 437.223028 
L 1025.884718 437.019208 
L 1026.877424 435.572407 
L 1027.87013 436.562728 
L 1028.862836 438.848799 
L 1029.855542 434.559512 
L 1030.848248 435.093903 
L 1031.840954 437.447195 
L 1032.833659 437.054138 
L 1033.826365 437.005273 
L 1034.819071 435.256211 
L 1035.811777 433.015303 
L 1036.804483 437.471029 
L 1037.797189 433.104192 
L 1038.789895 435.758213 
L 1039.782601 439.160057 
L 1040.775307 435.294436 
L 1041.768013 435.643527 
L 1042.760719 438.615829 
L 1043.753425 437.289066 
L 1044.746131 436.322673 
L 1045.738837 436.964443 
L 1046.731542 436.991493 
L 1047.724248 437.387343 
L 1048.716954 438.034222 
L 1049.70966 437.010373 
L 1050.702366 438.224378 
L 1051.695072 435.258979 
L 1052.687778 436.348864 
L 1053.680484 438.461059 
L 1054.67319 436.240435 
L 1056.658602 437.363993 
L 1057.651308 435.8638 
L 1058.644014 436.366515 
L 1059.636719 438.599227 
L 1060.629425 436.379384 
L 1061.622131 438.117547 
L 1062.614837 436.573794 
L 1063.607543 433.261258 
L 1064.600249 437.483219 
L 1065.592955 438.956385 
L 1066.585661 436.021286 
L 1067.578367 434.466636 
L 1068.571073 435.796993 
L 1069.563779 439.233569 
L 1070.556485 437.116853 
L 1071.549191 438.380096 
L 1072.541896 436.569517 
L 1073.534602 438.33701 
L 1074.527308 439.450558 
L 1075.520014 439.862748 
L 1076.51272 439.359699 
L 1077.505426 436.596769 
L 1078.498132 439.300992 
L 1079.490838 438.336094 
L 1080.483544 436.863308 
L 1081.47625 437.343743 
L 1082.468956 436.25298 
L 1083.461662 436.983805 
L 1084.454368 438.537751 
L 1085.447073 437.276837 
L 1086.439779 436.351587 
L 1087.432485 437.775129 
L 1088.425191 437.802117 
L 1089.417897 439.815995 
L 1090.410603 438.594808 
L 1091.403309 439.604421 
L 1092.396015 435.829846 
L 1093.388721 436.549129 
L 1094.381427 437.108384 
L 1095.374133 436.681485 
L 1096.366839 436.526157 
L 1097.359545 437.22579 
L 1098.35225 438.245056 
L 1099.344956 437.147335 
L 1100.337662 437.893901 
L 1101.330368 439.383941 
L 1102.323074 440.292509 
L 1103.31578 436.781208 
L 1104.308486 436.403412 
L 1105.301192 438.7339 
L 1106.293898 437.935847 
L 1107.286604 438.198291 
L 1108.27931 437.579645 
L 1109.272016 438.450336 
L 1110.264722 438.525238 
L 1111.257428 435.6177 
L 1112.250133 438.636048 
L 1113.242839 438.058137 
L 1115.228251 436.490583 
L 1116.220957 438.109184 
L 1117.213663 440.444549 
L 1118.206369 435.785418 
L 1119.199075 437.078173 
L 1120.191781 437.66351 
L 1121.184487 438.820101 
L 1122.177193 438.863445 
L 1123.169899 440.15583 
L 1124.162605 438.714433 
L 1125.15531 437.02261 
L 1127.140722 441.004728 
L 1128.133428 440.546497 
L 1129.126134 438.990784 
L 1130.11884 437.931262 
L 1131.111546 437.839252 
L 1133.096958 439.089485 
L 1134.089664 436.675523 
L 1135.08237 438.380564 
L 1136.075076 439.79984 
L 1137.067782 438.584229 
L 1138.060487 440.576703 
L 1139.053193 440.127006 
L 1140.045899 437.43963 
L 1141.038605 438.221826 
L 1142.031311 438.0722 
L 1143.024017 438.368625 
L 1145.009429 439.444281 
L 1146.994841 436.567275 
L 1147.987547 437.006654 
L 1148.980253 438.300888 
L 1149.972959 439.170917 
L 1150.965664 436.542765 
L 1151.95837 440.907953 
L 1152.951076 436.913977 
L 1153.943782 440.918707 
L 1154.936488 440.332666 
L 1155.929194 438.46869 
L 1156.9219 438.547139 
L 1157.914606 437.992845 
L 1158.907312 438.815654 
L 1159.900018 437.621757 
L 1160.892724 438.059367 
L 1161.88543 438.00967 
L 1162.878136 438.750041 
L 1163.870841 438.534039 
L 1164.863547 437.523211 
L 1165.856253 438.689081 
L 1166.848959 440.409878 
L 1167.841665 439.098523 
L 1168.834371 436.143576 
L 1169.827077 436.951116 
L 1170.819783 439.40343 
L 1171.812489 440.405591 
L 1172.805195 438.760901 
L 1173.797901 437.725688 
L 1174.790607 440.27902 
L 1175.783313 439.231296 
L 1177.768724 440.390271 
L 1178.76143 440.025151 
L 1179.754136 437.934324 
L 1180.746842 438.219704 
L 1181.739548 437.069929 
L 1182.732254 439.081129 
L 1183.72496 439.75649 
L 1184.717666 441.553752 
L 1186.703078 438.649918 
L 1188.68849 439.6861 
L 1189.681196 439.215526 
L 1190.673901 437.075466 
L 1191.666607 439.179842 
L 1192.659313 438.661476 
L 1193.652019 440.14702 
L 1196.630137 436.439018 
L 1197.622843 435.316466 
L 1198.615549 441.257453 
L 1199.608255 438.156103 
L 1200.600961 442.187699 
L 1201.593667 440.574922 
L 1202.586373 440.149411 
L 1203.579078 438.021339 
L 1204.571784 437.954104 
L 1205.56449 436.327419 
L 1206.557196 436.76552 
L 1207.549902 439.353488 
L 1208.542608 439.194912 
L 1209.535314 439.873458 
L 1210.52802 440.980436 
L 1211.520726 439.393161 
L 1212.513432 436.380705 
L 1213.506138 437.678287 
L 1214.498844 440.072813 
L 1215.49155 439.680321 
L 1216.484255 436.662549 
L 1217.476961 440.52574 
L 1218.469667 439.756205 
L 1219.462373 438.421027 
L 1220.455079 438.919558 
L 1221.447785 441.020734 
L 1222.440491 439.797086 
L 1223.433197 439.715613 
L 1224.425903 438.911672 
L 1225.418609 440.176795 
L 1226.411315 439.211315 
L 1227.404021 436.719187 
L 1228.396727 437.372621 
L 1229.389432 438.746149 
L 1230.382138 438.362031 
L 1231.374844 436.177138 
L 1232.36755 438.752412 
L 1233.360256 440.815098 
L 1234.352962 439.010095 
L 1235.345668 440.522845 
L 1236.338374 437.805246 
L 1237.33108 437.911881 
L 1238.323786 438.990522 
L 1239.316492 441.44402 
L 1240.309198 437.108282 
L 1241.301904 437.9952 
L 1242.29461 439.046754 
L 1243.287315 442.47218 
L 1244.280021 437.744516 
L 1245.272727 438.21249 
L 1245.272727 438.21249 
" clip-path="url(#p0d6c52f8af)" style="fill: none; stroke: #1f77b4; stroke-width: 1.5; stroke-linecap: square"/>
   </g>
   <g id="patch_3">
    <path d="M 180 512.64 
L 180 69.12 
" style="fill: none; stroke: #000000; stroke-width: 0.8; stroke-linejoin: miter; stroke-linecap: square"/>
   </g>
   <g id="patch_4">
    <path d="M 1296 512.64 
L 1296 69.12 
" style="fill: none; stroke: #000000; stroke-width: 0.8; stroke-linejoin: miter; stroke-linecap: square"/>
   </g>
   <g id="patch_5">
    <path d="M 180 512.64 
L 1296 512.64 
" style="fill: none; stroke: #000000; stroke-width: 0.8; stroke-linejoin: miter; stroke-linecap: square"/>
   </g>
   <g id="patch_6">
    <path d="M 180 69.12 
L 1296 69.12 
" style="fill: none; stroke: #000000; stroke-width: 0.8; stroke-linejoin: miter; stroke-linecap: square"/>
   </g>
   <g id="text_12">
    <!-- source8-receiver16 -->
    <g transform="translate(544.9 60.80125) scale(0.4 -0.4)">
     <defs>
      <path id="DejaVuSans-73" d="M 2834 3397 
L 2834 2853 
Q 2591 2978 2328 3040 
Q 2066 3103 1784 3103 
Q 1356 3103 1142 2972 
Q 928 2841 928 2578 
Q 928 2378 1081 2264 
Q 1234 2150 1697 2047 
L 1894 2003 
Q 2506 1872 2764 1633 
Q 3022 1394 3022 966 
Q 3022 478 2636 193 
Q 2250 -91 1575 -91 
Q 1294 -91 989 -36 
Q 684 19 347 128 
L 347 722 
Q 666 556 975 473 
Q 1284 391 1588 391 
Q 1994 391 2212 530 
Q 2431 669 2431 922 
Q 2431 1156 2273 1281 
Q 2116 1406 1581 1522 
L 1381 1569 
Q 847 1681 609 1914 
Q 372 2147 372 2553 
Q 372 3047 722 3315 
Q 1072 3584 1716 3584 
Q 2034 3584 2315 3537 
Q 2597 3491 2834 3397 
z
" transform="scale(0.015625)"/>
      <path id="DejaVuSans-6f" d="M 1959 3097 
Q 1497 3097 1228 2736 
Q 959 2375 959 1747 
Q 959 1119 1226 758 
Q 1494 397 1959 397 
Q 2419 397 2687 759 
Q 2956 1122 2956 1747 
Q 2956 2369 2687 2733 
Q 2419 3097 1959 3097 
z
M 1959 3584 
Q 2709 3584 3137 3096 
Q 3566 2609 3566 1747 
Q 3566 888 3137 398 
Q 2709 -91 1959 -91 
Q 1206 -91 779 398 
Q 353 888 353 1747 
Q 353 2609 779 3096 
Q 1206 3584 1959 3584 
z
" transform="scale(0.015625)"/>
      <path id="DejaVuSans-75" d="M 544 1381 
L 544 3500 
L 1119 3500 
L 1119 1403 
Q 1119 906 1312 657 
Q 1506 409 1894 409 
Q 2359 409 2629 706 
Q 2900 1003 2900 1516 
L 2900 3500 
L 3475 3500 
L 3475 0 
L 2900 0 
L 2900 538 
Q 2691 219 2414 64 
Q 2138 -91 1772 -91 
Q 1169 -91 856 284 
Q 544 659 544 1381 
z
M 1991 3584 
L 1991 3584 
z
" transform="scale(0.015625)"/>
      <path id="DejaVuSans-72" d="M 2631 2963 
Q 2534 3019 2420 3045 
Q 2306 3072 2169 3072 
Q 1681 3072 1420 2755 
Q 1159 2438 1159 1844 
L 1159 0 
L 581 0 
L 581 3500 
L 1159 3500 
L 1159 2956 
Q 1341 3275 1631 3429 
Q 1922 3584 2338 3584 
Q 2397 3584 2469 3576 
Q 2541 3569 2628 3553 
L 2631 2963 
z
" transform="scale(0.015625)"/>
      <path id="DejaVuSans-63" d="M 3122 3366 
L 3122 2828 
Q 2878 2963 2633 3030 
Q 2388 3097 2138 3097 
Q 1578 3097 1268 2742 
Q 959 2388 959 1747 
Q 959 1106 1268 751 
Q 1578 397 2138 397 
Q 2388 397 2633 464 
Q 2878 531 3122 666 
L 3122 134 
Q 2881 22 2623 -34 
Q 2366 -91 2075 -91 
Q 1284 -91 818 406 
Q 353 903 353 1747 
Q 353 2603 823 3093 
Q 1294 3584 2113 3584 
Q 2378 3584 2631 3529 
Q 2884 3475 3122 3366 
z
" transform="scale(0.015625)"/>
      <path id="DejaVuSans-65" d="M 3597 1894 
L 3597 1613 
L 953 1613 
Q 991 1019 1311 708 
Q 1631 397 2203 397 
Q 2534 397 2845 478 
Q 3156 559 3463 722 
L 3463 178 
Q 3153 47 2828 -22 
Q 2503 -91 2169 -91 
Q 1331 -91 842 396 
Q 353 884 353 1716 
Q 353 2575 817 3079 
Q 1281 3584 2069 3584 
Q 2775 3584 3186 3129 
Q 3597 2675 3597 1894 
z
M 3022 2063 
Q 3016 2534 2758 2815 
Q 2500 3097 2075 3097 
Q 1594 3097 1305 2825 
Q 1016 2553 972 2059 
L 3022 2063 
z
" transform="scale(0.015625)"/>
      <path id="DejaVuSans-38" d="M 2034 2216 
Q 1584 2216 1326 1975 
Q 1069 1734 1069 1313 
Q 1069 891 1326 650 
Q 1584 409 2034 409 
Q 2484 409 2743 651 
Q 3003 894 3003 1313 
Q 3003 1734 2745 1975 
Q 2488 2216 2034 2216 
z
M 1403 2484 
Q 997 2584 770 2862 
Q 544 3141 544 3541 
Q 544 4100 942 4425 
Q 1341 4750 2034 4750 
Q 2731 4750 3128 4425 
Q 3525 4100 3525 3541 
Q 3525 3141 3298 2862 
Q 3072 2584 2669 2484 
Q 3125 2378 3379 2068 
Q 3634 1759 3634 1313 
Q 3634 634 3220 271 
Q 2806 -91 2034 -91 
Q 1263 -91 848 271 
Q 434 634 434 1313 
Q 434 1759 690 2068 
Q 947 2378 1403 2484 
z
M 1172 3481 
Q 1172 3119 1398 2916 
Q 1625 2713 2034 2713 
Q 2441 2713 2670 2916 
Q 2900 3119 2900 3481 
Q 2900 3844 2670 4047 
Q 2441 4250 2034 4250 
Q 1625 4250 1398 4047 
Q 1172 3844 1172 3481 
z
" transform="scale(0.015625)"/>
      <path id="DejaVuSans-2d" d="M 313 2009 
L 1997 2009 
L 1997 1497 
L 313 1497 
L 313 2009 
z
" transform="scale(0.015625)"/>
      <path id="DejaVuSans-69" d="M 603 3500 
L 1178 3500 
L 1178 0 
L 603 0 
L 603 3500 
z
M 603 4863 
L 1178 4863 
L 1178 4134 
L 603 4134 
L 603 4863 
z
" transform="scale(0.015625)"/>
      <path id="DejaVuSans-76" d="M 191 3500 
L 800 3500 
L 1894 563 
L 2988 3500 
L 3597 3500 
L 2284 0 
L 1503 0 
L 191 3500 
z
" transform="scale(0.015625)"/>
      <path id="DejaVuSans-36" d="M 2113 2584 
Q 1688 2584 1439 2293 
Q 1191 2003 1191 1497 
Q 1191 994 1439 701 
Q 1688 409 2113 409 
Q 2538 409 2786 701 
Q 3034 994 3034 1497 
Q 3034 2003 2786 2293 
Q 2538 2584 2113 2584 
z
M 3366 4563 
L 3366 3988 
Q 3128 4100 2886 4159 
Q 2644 4219 2406 4219 
Q 1781 4219 1451 3797 
Q 1122 3375 1075 2522 
Q 1259 2794 1537 2939 
Q 1816 3084 2150 3084 
Q 2853 3084 3261 2657 
Q 3669 2231 3669 1497 
Q 3669 778 3244 343 
Q 2819 -91 2113 -91 
Q 1303 -91 875 529 
Q 447 1150 447 2328 
Q 447 3434 972 4092 
Q 1497 4750 2381 4750 
Q 2619 4750 2861 4703 
Q 3103 4656 3366 4563 
z
" transform="scale(0.015625)"/>
     </defs>
     <use xlink:href="#DejaVuSans-73"/>
     <use xlink:href="#DejaVuSans-6f" x="52.099609"/>
     <use xlink:href="#DejaVuSans-75" x="113.28125"/>
     <use xlink:href="#DejaVuSans-72" x="176.660156"/>
     <use xlink:href="#DejaVuSans-63" x="215.523438"/>
     <use xlink:href="#DejaVuSans-65" x="270.503906"/>
     <use xlink:href="#DejaVuSans-38" x="332.027344"/>
     <use xlink:href="#DejaVuSans-2d" x="395.650391"/>
     <use xlink:href="#DejaVuSans-72" x="431.734375"/>
     <use xlink:href="#DejaVuSans-65" x="470.597656"/>
     <use xlink:href="#DejaVuSans-63" x="532.121094"/>
     <use xlink:href="#DejaVuSans-65" x="587.101562"/>
     <use xlink:href="#DejaVuSans-69" x="648.625"/>
     <use xlink:href="#DejaVuSans-76" x="676.408203"/>
     <use xlink:href="#DejaVuSans-65" x="735.587891"/>
     <use xlink:href="#DejaVuSans-72" x="797.111328"/>
     <use xlink:href="#DejaVuSans-31" x="838.224609"/>
     <use xlink:href="#DejaVuSans-36" x="901.847656"/>
    </g>
   </g>
  </g>
 </g>
 <defs>
  <clipPath id="p0d6c52f8af">
   <rect x="180" y="69.12" width="1116" height="443.52"/>
  </clipPath>
 </defs>
</svg>
