<?xml version="1.0" encoding="utf-8" standalone="no"?>
<!DOCTYPE svg PUBLIC "-//W3C//DTD SVG 1.1//EN"
  "http://www.w3.org/Graphics/SVG/1.1/DTD/svg11.dtd">
<svg xmlns:xlink="http://www.w3.org/1999/xlink" width="1440pt" height="576pt" viewBox="0 0 1440 576" xmlns="http://www.w3.org/2000/svg" version="1.1">
 <metadata>
  <rdf:RDF xmlns:dc="http://purl.org/dc/elements/1.1/" xmlns:cc="http://creativecommons.org/ns#" xmlns:rdf="http://www.w3.org/1999/02/22-rdf-syntax-ns#">
   <cc:Work>
    <dc:type rdf:resource="http://purl.org/dc/dcmitype/StillImage"/>
    <dc:date>2024-05-22T04:49:54.539235</dc:date>
    <dc:format>image/svg+xml</dc:format>
    <dc:creator>
     <cc:Agent>
      <dc:title>Matplotlib v3.8.3, https://matplotlib.org/</dc:title>
     </cc:Agent>
    </dc:creator>
   </cc:Work>
  </rdf:RDF>
 </metadata>
 <defs>
  <style type="text/css">*{stroke-linejoin: round; stroke-linecap: butt}</style>
 </defs>
 <g id="figure_1">
  <g id="patch_1">
   <path d="M 0 576 
L 1440 576 
L 1440 0 
L 0 0 
z
" style="fill: #ffffff"/>
  </g>
  <g id="axes_1">
   <g id="patch_2">
    <path d="M 180 512.64 
L 1296 512.64 
L 1296 69.12 
L 180 69.12 
z
" style="fill: #ffffff"/>
   </g>
   <g id="matplotlib.axis_1">
    <g id="xtick_1">
     <g id="line2d_1">
      <defs>
       <path id="m29f9d44a56" d="M 0 0 
L 0 3.5 
" style="stroke: #000000; stroke-width: 0.8"/>
      </defs>
      <g>
       <use xlink:href="#m29f9d44a56" x="229.734567" y="512.64" style="stroke: #000000; stroke-width: 0.8"/>
      </g>
     </g>
     <g id="text_1">
      <!-- 0 -->
      <g transform="translate(226.553317 527.238438) scale(0.1 -0.1)">
       <defs>
        <path id="DejaVuSans-30" d="M 2034 4250 
Q 1547 4250 1301 3770 
Q 1056 3291 1056 2328 
Q 1056 1369 1301 889 
Q 1547 409 2034 409 
Q 2525 409 2770 889 
Q 3016 1369 3016 2328 
Q 3016 3291 2770 3770 
Q 2525 4250 2034 4250 
z
M 2034 4750 
Q 2819 4750 3233 4129 
Q 3647 3509 3647 2328 
Q 3647 1150 3233 529 
Q 2819 -91 2034 -91 
Q 1250 -91 836 529 
Q 422 1150 422 2328 
Q 422 3509 836 4129 
Q 1250 4750 2034 4750 
z
" transform="scale(0.015625)"/>
       </defs>
       <use xlink:href="#DejaVuSans-30"/>
      </g>
     </g>
    </g>
    <g id="xtick_2">
     <g id="line2d_2">
      <g>
       <use xlink:href="#m29f9d44a56" x="433.04074" y="512.64" style="stroke: #000000; stroke-width: 0.8"/>
      </g>
     </g>
     <g id="text_2">
      <!-- 500 -->
      <g transform="translate(423.49699 527.238438) scale(0.1 -0.1)">
       <defs>
        <path id="DejaVuSans-35" d="M 691 4666 
L 3169 4666 
L 3169 4134 
L 1269 4134 
L 1269 2991 
Q 1406 3038 1543 3061 
Q 1681 3084 1819 3084 
Q 2600 3084 3056 2656 
Q 3513 2228 3513 1497 
Q 3513 744 3044 326 
Q 2575 -91 1722 -91 
Q 1428 -91 1123 -41 
Q 819 9 494 109 
L 494 744 
Q 775 591 1075 516 
Q 1375 441 1709 441 
Q 2250 441 2565 725 
Q 2881 1009 2881 1497 
Q 2881 1984 2565 2268 
Q 2250 2553 1709 2553 
Q 1456 2553 1204 2497 
Q 953 2441 691 2322 
L 691 4666 
z
" transform="scale(0.015625)"/>
       </defs>
       <use xlink:href="#DejaVuSans-35"/>
       <use xlink:href="#DejaVuSans-30" x="63.623047"/>
       <use xlink:href="#DejaVuSans-30" x="127.246094"/>
      </g>
     </g>
    </g>
    <g id="xtick_3">
     <g id="line2d_3">
      <g>
       <use xlink:href="#m29f9d44a56" x="636.346913" y="512.64" style="stroke: #000000; stroke-width: 0.8"/>
      </g>
     </g>
     <g id="text_3">
      <!-- 1000 -->
      <g transform="translate(623.621913 527.238438) scale(0.1 -0.1)">
       <defs>
        <path id="DejaVuSans-31" d="M 794 531 
L 1825 531 
L 1825 4091 
L 703 3866 
L 703 4441 
L 1819 4666 
L 2450 4666 
L 2450 531 
L 3481 531 
L 3481 0 
L 794 0 
L 794 531 
z
" transform="scale(0.015625)"/>
       </defs>
       <use xlink:href="#DejaVuSans-31"/>
       <use xlink:href="#DejaVuSans-30" x="63.623047"/>
       <use xlink:href="#DejaVuSans-30" x="127.246094"/>
       <use xlink:href="#DejaVuSans-30" x="190.869141"/>
      </g>
     </g>
    </g>
    <g id="xtick_4">
     <g id="line2d_4">
      <g>
       <use xlink:href="#m29f9d44a56" x="839.653087" y="512.64" style="stroke: #000000; stroke-width: 0.8"/>
      </g>
     </g>
     <g id="text_4">
      <!-- 1500 -->
      <g transform="translate(826.928087 527.238438) scale(0.1 -0.1)">
       <use xlink:href="#DejaVuSans-31"/>
       <use xlink:href="#DejaVuSans-35" x="63.623047"/>
       <use xlink:href="#DejaVuSans-30" x="127.246094"/>
       <use xlink:href="#DejaVuSans-30" x="190.869141"/>
      </g>
     </g>
    </g>
    <g id="xtick_5">
     <g id="line2d_5">
      <g>
       <use xlink:href="#m29f9d44a56" x="1042.95926" y="512.64" style="stroke: #000000; stroke-width: 0.8"/>
      </g>
     </g>
     <g id="text_5">
      <!-- 2000 -->
      <g transform="translate(1030.23426 527.238438) scale(0.1 -0.1)">
       <defs>
        <path id="DejaVuSans-32" d="M 1228 531 
L 3431 531 
L 3431 0 
L 469 0 
L 469 531 
Q 828 903 1448 1529 
Q 2069 2156 2228 2338 
Q 2531 2678 2651 2914 
Q 2772 3150 2772 3378 
Q 2772 3750 2511 3984 
Q 2250 4219 1831 4219 
Q 1534 4219 1204 4116 
Q 875 4013 500 3803 
L 500 4441 
Q 881 4594 1212 4672 
Q 1544 4750 1819 4750 
Q 2544 4750 2975 4387 
Q 3406 4025 3406 3419 
Q 3406 3131 3298 2873 
Q 3191 2616 2906 2266 
Q 2828 2175 2409 1742 
Q 1991 1309 1228 531 
z
" transform="scale(0.015625)"/>
       </defs>
       <use xlink:href="#DejaVuSans-32"/>
       <use xlink:href="#DejaVuSans-30" x="63.623047"/>
       <use xlink:href="#DejaVuSans-30" x="127.246094"/>
       <use xlink:href="#DejaVuSans-30" x="190.869141"/>
      </g>
     </g>
    </g>
    <g id="xtick_6">
     <g id="line2d_6">
      <g>
       <use xlink:href="#m29f9d44a56" x="1246.265433" y="512.64" style="stroke: #000000; stroke-width: 0.8"/>
      </g>
     </g>
     <g id="text_6">
      <!-- 2500 -->
      <g transform="translate(1233.540433 527.238438) scale(0.1 -0.1)">
       <use xlink:href="#DejaVuSans-32"/>
       <use xlink:href="#DejaVuSans-35" x="63.623047"/>
       <use xlink:href="#DejaVuSans-30" x="127.246094"/>
       <use xlink:href="#DejaVuSans-30" x="190.869141"/>
      </g>
     </g>
    </g>
   </g>
   <g id="matplotlib.axis_2">
    <g id="ytick_1">
     <g id="line2d_7">
      <defs>
       <path id="m0dea77a25d" d="M 0 0 
L -3.5 0 
" style="stroke: #000000; stroke-width: 0.8"/>
      </defs>
      <g>
       <use xlink:href="#m0dea77a25d" x="180" y="494.820023" style="stroke: #000000; stroke-width: 0.8"/>
      </g>
     </g>
     <g id="text_7">
      <!-- −2 -->
      <g transform="translate(158.257812 498.619241) scale(0.1 -0.1)">
       <defs>
        <path id="DejaVuSans-2212" d="M 678 2272 
L 4684 2272 
L 4684 1741 
L 678 1741 
L 678 2272 
z
" transform="scale(0.015625)"/>
       </defs>
       <use xlink:href="#DejaVuSans-2212"/>
       <use xlink:href="#DejaVuSans-32" x="83.789062"/>
      </g>
     </g>
    </g>
    <g id="ytick_2">
     <g id="line2d_8">
      <g>
       <use xlink:href="#m0dea77a25d" x="180" y="430.1195" style="stroke: #000000; stroke-width: 0.8"/>
      </g>
     </g>
     <g id="text_8">
      <!-- −1 -->
      <g transform="translate(158.257812 433.918719) scale(0.1 -0.1)">
       <use xlink:href="#DejaVuSans-2212"/>
       <use xlink:href="#DejaVuSans-31" x="83.789062"/>
      </g>
     </g>
    </g>
    <g id="ytick_3">
     <g id="line2d_9">
      <g>
       <use xlink:href="#m0dea77a25d" x="180" y="365.418978" style="stroke: #000000; stroke-width: 0.8"/>
      </g>
     </g>
     <g id="text_9">
      <!-- 0 -->
      <g transform="translate(166.6375 369.218196) scale(0.1 -0.1)">
       <use xlink:href="#DejaVuSans-30"/>
      </g>
     </g>
    </g>
    <g id="ytick_4">
     <g id="line2d_10">
      <g>
       <use xlink:href="#m0dea77a25d" x="180" y="300.718455" style="stroke: #000000; stroke-width: 0.8"/>
      </g>
     </g>
     <g id="text_10">
      <!-- 1 -->
      <g transform="translate(166.6375 304.517674) scale(0.1 -0.1)">
       <use xlink:href="#DejaVuSans-31"/>
      </g>
     </g>
    </g>
    <g id="ytick_5">
     <g id="line2d_11">
      <g>
       <use xlink:href="#m0dea77a25d" x="180" y="236.017933" style="stroke: #000000; stroke-width: 0.8"/>
      </g>
     </g>
     <g id="text_11">
      <!-- 2 -->
      <g transform="translate(166.6375 239.817151) scale(0.1 -0.1)">
       <use xlink:href="#DejaVuSans-32"/>
      </g>
     </g>
    </g>
    <g id="ytick_6">
     <g id="line2d_12">
      <g>
       <use xlink:href="#m0dea77a25d" x="180" y="171.31741" style="stroke: #000000; stroke-width: 0.8"/>
      </g>
     </g>
     <g id="text_12">
      <!-- 3 -->
      <g transform="translate(166.6375 175.116629) scale(0.1 -0.1)">
       <defs>
        <path id="DejaVuSans-33" d="M 2597 2516 
Q 3050 2419 3304 2112 
Q 3559 1806 3559 1356 
Q 3559 666 3084 287 
Q 2609 -91 1734 -91 
Q 1441 -91 1130 -33 
Q 819 25 488 141 
L 488 750 
Q 750 597 1062 519 
Q 1375 441 1716 441 
Q 2309 441 2620 675 
Q 2931 909 2931 1356 
Q 2931 1769 2642 2001 
Q 2353 2234 1838 2234 
L 1294 2234 
L 1294 2753 
L 1863 2753 
Q 2328 2753 2575 2939 
Q 2822 3125 2822 3475 
Q 2822 3834 2567 4026 
Q 2313 4219 1838 4219 
Q 1578 4219 1281 4162 
Q 984 4106 628 3988 
L 628 4550 
Q 988 4650 1302 4700 
Q 1616 4750 1894 4750 
Q 2613 4750 3031 4423 
Q 3450 4097 3450 3541 
Q 3450 3153 3228 2886 
Q 3006 2619 2597 2516 
z
" transform="scale(0.015625)"/>
       </defs>
       <use xlink:href="#DejaVuSans-33"/>
      </g>
     </g>
    </g>
    <g id="ytick_7">
     <g id="line2d_13">
      <g>
       <use xlink:href="#m0dea77a25d" x="180" y="106.616888" style="stroke: #000000; stroke-width: 0.8"/>
      </g>
     </g>
     <g id="text_13">
      <!-- 4 -->
      <g transform="translate(166.6375 110.416106) scale(0.1 -0.1)">
       <defs>
        <path id="DejaVuSans-34" d="M 2419 4116 
L 825 1625 
L 2419 1625 
L 2419 4116 
z
M 2253 4666 
L 3047 4666 
L 3047 1625 
L 3713 1625 
L 3713 1100 
L 3047 1100 
L 3047 0 
L 2419 0 
L 2419 1100 
L 313 1100 
L 313 1709 
L 2253 4666 
z
" transform="scale(0.015625)"/>
       </defs>
       <use xlink:href="#DejaVuSans-34"/>
      </g>
     </g>
    </g>
   </g>
   <g id="line2d_14">
    <path d="M 230.727273 399.030846 
L 231.719979 398.581078 
L 232.712685 397.551442 
L 233.70539 396.16529 
L 234.698096 394.537032 
L 235.690802 392.482643 
L 237.676214 387.323089 
L 239.661626 381.056547 
L 241.647038 373.676678 
L 242.639744 369.557588 
L 243.63245 364.758219 
L 244.625156 359.231617 
L 245.617862 358.011733 
L 246.610568 369.069969 
L 247.603273 363.07222 
L 248.595979 318.600985 
L 249.588685 299.978144 
L 251.574097 345.813569 
L 252.566803 260.914959 
L 253.559509 234.724399 
L 254.552215 238.074533 
L 255.544921 260.314225 
L 256.537627 245.892024 
L 257.530333 239.182495 
L 258.523039 272.378809 
L 259.515745 242.279083 
L 260.50845 202.446946 
L 261.501156 201.261241 
L 262.493862 247.516381 
L 263.486568 255.424681 
L 264.479274 215.862024 
L 265.47198 245.363279 
L 266.464686 284.820164 
L 267.457392 215.495511 
L 268.450098 226.596214 
L 269.442804 368.890985 
L 270.43551 256.300323 
L 271.428216 263.248194 
L 272.420922 301.182829 
L 273.413627 302.037385 
L 274.406333 204.505085 
L 275.399039 169.426318 
L 276.391745 197.134086 
L 277.384451 191.14645 
L 278.377157 111.451195 
L 279.369863 89.28 
L 280.362569 98.861148 
L 281.355275 140.581695 
L 282.347981 123.279901 
L 283.340687 99.307933 
L 284.333393 110.980788 
L 285.326099 129.116672 
L 286.318804 103.173582 
L 287.31151 99.950079 
L 288.304216 135.613672 
L 289.296922 186.209475 
L 290.289628 150.53766 
L 291.282334 177.097094 
L 292.27504 241.796265 
L 293.267746 184.010403 
L 294.260452 211.803378 
L 295.253158 294.059238 
L 296.245864 228.119729 
L 297.23857 294.151381 
L 298.231276 256.144923 
L 299.223981 240.864375 
L 300.216687 316.180308 
L 301.209393 271.301751 
L 302.202099 280.126696 
L 303.194805 326.846306 
L 304.187511 297.31156 
L 305.180217 331.557063 
L 306.172923 292.92562 
L 307.165629 303.094968 
L 308.158335 377.092951 
L 309.151041 293.611385 
L 310.143747 309.327054 
L 311.136453 352.604765 
L 312.129159 309.643209 
L 313.121864 320.030979 
L 314.11457 332.170558 
L 315.107276 327.188556 
L 316.099982 327.753976 
L 317.092688 333.251358 
L 319.0781 332.3968 
L 321.063512 337.475869 
L 322.056218 340.956116 
L 323.048924 340.869675 
L 324.04163 339.442675 
L 325.034336 343.434762 
L 326.027041 342.688647 
L 327.019747 344.161871 
L 328.012453 346.53312 
L 329.005159 345.96178 
L 329.997865 352.385591 
L 330.990571 346.375459 
L 331.983277 351.157307 
L 332.975983 351.248273 
L 333.968689 350.420066 
L 334.961395 357.836385 
L 335.954101 353.027433 
L 336.946807 354.033527 
L 337.939513 365.08698 
L 338.932218 355.813463 
L 339.924924 363.050099 
L 340.91763 362.049405 
L 341.910336 358.226117 
L 342.903042 365.650482 
L 343.895748 363.668128 
L 344.888454 359.190864 
L 345.88116 369.629967 
L 346.873866 364.163616 
L 347.866572 361.952466 
L 348.859278 369.08658 
L 349.851984 367.473092 
L 350.84469 369.259696 
L 351.837395 374.2906 
L 352.830101 373.077534 
L 353.822807 369.826625 
L 354.815513 372.679946 
L 355.808219 372.457429 
L 356.800925 368.5039 
L 357.793631 377.174185 
L 358.786337 372.938892 
L 359.779043 374.367127 
L 360.771749 378.969134 
L 361.764455 371.425087 
L 362.757161 375.905287 
L 363.749867 377.880892 
L 364.742572 379.552465 
L 365.735278 381.529783 
L 366.727984 379.552431 
L 367.72069 377.946462 
L 368.713396 384.842157 
L 369.706102 381.867102 
L 370.698808 383.430896 
L 371.691514 378.319761 
L 372.68422 380.720372 
L 373.676926 385.027914 
L 374.669632 386.530229 
L 375.662338 389.923019 
L 376.655044 383.59301 
L 377.64775 390.367623 
L 378.640455 394.215265 
L 379.633161 393.704802 
L 380.625867 393.846837 
L 382.611279 386.804851 
L 383.603985 387.521366 
L 384.596691 382.168445 
L 385.589397 388.528857 
L 386.582103 412.359986 
L 387.574809 388.853497 
L 388.567515 398.175067 
L 389.560221 381.646652 
L 390.552927 390.399556 
L 391.545632 402.309137 
L 392.538338 392.729484 
L 393.531044 394.679199 
L 394.52375 395.231118 
L 395.516456 397.64537 
L 396.509162 397.383042 
L 397.501868 395.050768 
L 398.494574 395.690019 
L 399.48728 402.214427 
L 400.479986 404.288843 
L 401.472692 398.708759 
L 402.465398 402.567862 
L 403.458104 395.29509 
L 404.450809 396.389579 
L 405.443515 396.15257 
L 406.436221 402.338069 
L 407.428927 393.870992 
L 408.421633 400.068009 
L 409.414339 405.028245 
L 410.407045 401.823241 
L 411.399751 405.765275 
L 412.392457 411.467651 
L 413.385163 413.979095 
L 414.377869 397.897773 
L 415.370575 395.251854 
L 416.363281 410.398455 
L 417.355986 407.130835 
L 418.348692 400.265098 
L 419.341398 410.172914 
L 420.334104 405.991079 
L 421.32681 398.775846 
L 422.319516 401.681243 
L 423.312222 409.479453 
L 424.304928 402.391744 
L 425.297634 403.759179 
L 426.29034 417.694406 
L 427.283046 408.000652 
L 428.275752 404.962511 
L 429.268458 403.657009 
L 430.261163 409.562555 
L 431.253869 406.889973 
L 432.246575 410.169765 
L 433.239281 412.167564 
L 434.231987 410.490379 
L 435.224693 406.454648 
L 436.217399 412.591528 
L 437.210105 412.322941 
L 438.202811 408.991645 
L 439.195517 413.449997 
L 440.188223 414.611509 
L 441.180929 412.847942 
L 442.173635 414.118468 
L 443.166341 410.722424 
L 444.159046 411.31648 
L 445.151752 417.326895 
L 446.144458 421.415585 
L 447.137164 413.010094 
L 448.12987 411.645959 
L 449.122576 414.352864 
L 450.115282 412.608616 
L 451.107988 412.728687 
L 452.100694 423.302368 
L 453.0934 416.468153 
L 454.086106 418.007726 
L 455.078812 415.550614 
L 456.071518 420.085713 
L 457.064223 419.22641 
L 458.056929 421.954519 
L 459.049635 420.964294 
L 460.042341 421.241149 
L 461.035047 422.812969 
L 462.027753 420.096041 
L 463.020459 417.995355 
L 464.013165 421.560529 
L 465.005871 421.784717 
L 465.998577 422.861874 
L 466.991283 418.946333 
L 467.983989 419.552306 
L 468.976695 419.82864 
L 469.9694 423.958755 
L 470.962106 419.075043 
L 471.954812 419.961534 
L 472.947518 421.666222 
L 473.940224 423.838696 
L 474.93293 431.840396 
L 475.925636 426.280061 
L 476.918342 426.434206 
L 477.911048 429.454133 
L 478.903754 423.835199 
L 479.89646 414.940143 
L 480.889166 423.619334 
L 481.881872 424.751082 
L 482.874577 431.562966 
L 484.859989 425.320852 
L 485.852695 424.467836 
L 486.845401 428.711852 
L 487.838107 424.442869 
L 488.830813 433.266062 
L 489.823519 436.568743 
L 490.816225 423.838225 
L 491.808931 426.573801 
L 492.801637 422.588538 
L 493.794343 421.498818 
L 494.787049 436.2235 
L 495.779754 423.399188 
L 496.77246 430.711046 
L 497.765166 439.413752 
L 498.757872 435.044852 
L 499.750578 427.613356 
L 500.743284 432.393428 
L 501.73599 428.547763 
L 502.728696 432.224514 
L 503.721402 422.917418 
L 504.714108 431.498727 
L 506.69952 444.9754 
L 507.692226 430.464992 
L 508.684932 435.674585 
L 509.677637 430.920629 
L 510.670343 436.316034 
L 511.663049 430.136585 
L 512.655755 448.874983 
L 513.648461 433.539315 
L 514.641167 434.41006 
L 515.633873 438.524991 
L 516.626579 427.801547 
L 517.619285 434.890623 
L 518.611991 432.653511 
L 519.604697 442.338506 
L 520.597403 436.38445 
L 521.590109 438.770412 
L 522.582814 434.934954 
L 523.57552 428.644052 
L 524.568226 438.687873 
L 525.560932 435.047962 
L 526.553638 436.997326 
L 527.546344 441.076402 
L 528.53905 438.626749 
L 529.531756 431.039656 
L 530.524462 432.810562 
L 531.517168 443.898313 
L 532.509874 438.26491 
L 533.50258 444.360555 
L 534.495286 433.865185 
L 536.480697 442.149882 
L 537.473403 434.322708 
L 538.466109 434.015096 
L 539.458815 445.77803 
L 540.451521 437.015416 
L 541.444227 444.074197 
L 542.436933 444.112837 
L 543.429639 436.246553 
L 544.422345 442.226085 
L 545.415051 435.362352 
L 546.407757 433.201376 
L 547.400463 442.123265 
L 548.393168 440.500695 
L 549.385874 437.961665 
L 550.37858 437.9984 
L 551.371286 442.356138 
L 552.363992 447.345799 
L 553.356698 444.542528 
L 554.349404 453.628071 
L 555.34211 442.289264 
L 556.334816 437.130576 
L 557.327522 441.587592 
L 558.320228 443.747918 
L 559.312934 443.924126 
L 560.30564 440.680235 
L 561.298345 441.528762 
L 562.291051 448.076518 
L 563.283757 444.734353 
L 564.276463 452.889277 
L 565.269169 453.126091 
L 566.261875 438.09627 
L 567.254581 445.912088 
L 568.247287 442.187848 
L 569.239993 442.474881 
L 570.232699 447.466275 
L 571.225405 454.515437 
L 572.218111 448.54349 
L 573.210817 436.046383 
L 575.196228 452.872445 
L 576.188934 443.300864 
L 577.18164 446.114714 
L 578.174346 445.066867 
L 579.167052 451.259836 
L 580.159758 448.471288 
L 581.152464 441.531042 
L 582.14517 446.274649 
L 583.137876 445.628142 
L 584.130582 449.57582 
L 585.123288 444.683638 
L 586.115994 446.692578 
L 587.1087 446.97013 
L 588.101405 453.177466 
L 589.094111 453.223424 
L 590.086817 444.411152 
L 591.079523 450.291952 
L 592.072229 455.359889 
L 593.064935 445.543445 
L 594.057641 447.99391 
L 595.050347 456.287107 
L 596.043053 451.633141 
L 597.035759 452.403927 
L 598.028465 451.083754 
L 599.021171 452.299121 
L 600.013877 455.011963 
L 601.006582 449.654887 
L 601.999288 448.258442 
L 602.991994 452.887254 
L 603.9847 450.958009 
L 604.977406 455.627565 
L 605.970112 454.725793 
L 606.962818 451.851872 
L 607.955524 451.955036 
L 608.94823 447.895199 
L 609.940936 453.854084 
L 610.933642 450.520397 
L 611.926348 452.79307 
L 612.919054 453.903593 
L 613.911759 455.343826 
L 614.904465 462.34814 
L 615.897171 452.52102 
L 616.889877 454.833958 
L 617.882583 453.28219 
L 618.875289 451.194912 
L 619.867995 456.561095 
L 620.860701 460.267653 
L 621.853407 455.717726 
L 622.846113 452.714976 
L 623.838819 452.995656 
L 624.831525 451.947578 
L 625.824231 456.682019 
L 626.816936 450.245798 
L 627.809642 455.078695 
L 628.802348 456.783925 
L 629.795054 457.934078 
L 630.78776 455.437644 
L 631.780466 458.244724 
L 632.773172 456.340593 
L 633.765878 456.040531 
L 634.758584 458.146972 
L 635.75129 455.446473 
L 636.743996 460.716372 
L 637.736702 455.883881 
L 638.729408 452.418587 
L 639.722114 456.969005 
L 640.714819 454.359982 
L 641.707525 455.996145 
L 642.700231 457.067367 
L 643.692937 458.411818 
L 644.685643 456.481332 
L 645.678349 455.9852 
L 646.671055 461.392074 
L 647.663761 456.149548 
L 648.656467 456.153017 
L 649.649173 458.310995 
L 650.641879 459.563142 
L 651.634585 461.195804 
L 652.627291 458.176948 
L 653.619996 458.313807 
L 654.612702 459.681175 
L 655.605408 457.679453 
L 656.598114 459.482207 
L 657.59082 459.187439 
L 658.583526 460.421773 
L 659.576232 460.192738 
L 660.568938 461.873858 
L 661.561644 459.680055 
L 662.55435 460.193304 
L 663.547056 457.732397 
L 664.539762 462.238654 
L 665.532468 461.742496 
L 666.525173 461.754057 
L 667.517879 459.980753 
L 668.510585 462.084181 
L 669.503291 460.284931 
L 670.495997 459.644957 
L 671.488703 462.585629 
L 672.481409 461.895439 
L 673.474115 462.757999 
L 674.466821 459.235069 
L 675.459527 462.399055 
L 676.452233 463.446458 
L 677.444939 463.536035 
L 678.437645 463.823348 
L 679.43035 462.617017 
L 680.423056 463.465269 
L 681.415762 462.660676 
L 682.408468 462.443814 
L 683.401174 463.885886 
L 684.39388 463.986561 
L 685.386586 464.280356 
L 686.379292 462.984197 
L 687.371998 462.095867 
L 688.364704 463.806828 
L 689.35741 463.461731 
L 690.350116 463.46665 
L 691.342822 463.037829 
L 692.335527 464.123576 
L 693.328233 464.785346 
L 694.320939 464.307441 
L 695.313645 464.109448 
L 696.306351 464.333877 
L 697.299057 464.820479 
L 698.291763 464.155346 
L 699.284469 464.4169 
L 700.277175 464.198453 
L 701.269881 465.21464 
L 702.262587 465.327301 
L 704.247999 464.351908 
L 705.240705 466.112781 
L 706.23341 465.993482 
L 707.226116 466.488447 
L 708.218822 466.299206 
L 709.211528 466.439833 
L 710.204234 466.04231 
L 711.19694 464.707378 
L 712.189646 466.404771 
L 713.182352 467.132669 
L 714.175058 467.038399 
L 715.167764 466.554574 
L 716.16047 466.884105 
L 717.153176 465.914314 
L 718.145882 466.976607 
L 719.138587 466.540871 
L 720.131293 467.202527 
L 721.123999 467.323571 
L 722.116705 466.956023 
L 723.109411 467.248103 
L 724.102117 467.863136 
L 725.094823 467.582054 
L 726.087529 467.452455 
L 728.072941 468.359771 
L 729.065647 468.457311 
L 730.058353 468.78586 
L 731.051059 468.843381 
L 732.043764 468.311296 
L 733.03647 468.009254 
L 734.029176 468.615792 
L 735.021882 468.438692 
L 737.007294 468.773406 
L 738 469.290578 
L 738.992706 469.010656 
L 739.985412 469.326726 
L 740.978118 469.789559 
L 741.970824 469.847859 
L 742.96353 469.280395 
L 743.956236 470.055598 
L 744.948941 469.162462 
L 745.941647 470.082518 
L 746.934353 470.561233 
L 748.919765 469.720127 
L 749.912471 470.630115 
L 751.897883 470.446363 
L 752.890589 470.109044 
L 753.883295 470.760195 
L 754.876001 470.468588 
L 755.868707 470.988252 
L 756.861413 470.844316 
L 757.854118 470.962917 
L 758.846824 470.963491 
L 759.83953 471.81968 
L 760.832236 470.542017 
L 761.824942 471.440682 
L 762.817648 471.753078 
L 763.810354 471.445298 
L 764.80306 471.849 
L 766.788472 471.731789 
L 767.781178 471.435181 
L 769.76659 472.429074 
L 770.759295 472.487868 
L 771.752001 472.246444 
L 772.744707 472.217567 
L 773.737413 472.524018 
L 774.730119 472.519135 
L 775.722825 472.739058 
L 778.700943 472.629361 
L 779.693649 472.966408 
L 780.686355 473.044981 
L 781.679061 472.565277 
L 782.671767 473.004032 
L 783.664473 473.288943 
L 784.657178 473.383879 
L 785.649884 473.885565 
L 786.64259 473.399845 
L 787.635296 474.06193 
L 788.628002 473.526331 
L 789.620708 473.915361 
L 791.60612 473.797578 
L 792.598826 474.519402 
L 793.591532 474.067403 
L 794.584238 474.477719 
L 795.576944 474.42899 
L 796.56965 473.843519 
L 797.562355 473.87424 
L 799.547767 474.758154 
L 800.540473 474.741778 
L 801.533179 475.243077 
L 802.525885 474.573476 
L 803.518591 475.25864 
L 804.511297 475.432475 
L 805.504003 475.363049 
L 806.496709 475.708985 
L 807.489415 475.807258 
L 808.482121 475.549716 
L 809.474827 475.4894 
L 810.467532 476.02707 
L 811.460238 476.217443 
L 812.452944 475.755638 
L 813.44565 476.185923 
L 815.431062 475.783104 
L 816.423768 476.253169 
L 817.416474 475.861844 
L 818.40918 476.553054 
L 819.401886 476.388697 
L 820.394592 476.563213 
L 822.380004 476.702685 
L 824.365415 476.35197 
L 825.358121 476.908495 
L 826.350827 477.25592 
L 827.343533 477.178171 
L 828.336239 477.632313 
L 829.328945 476.387002 
L 830.321651 476.910561 
L 831.314357 477.226658 
L 832.307063 477.021194 
L 833.299769 477.784714 
L 834.292475 477.565729 
L 836.277886 477.791484 
L 837.270592 478.459075 
L 838.263298 477.323334 
L 839.256004 477.446791 
L 840.24871 477.793783 
L 841.241416 477.770602 
L 842.234122 478.548505 
L 843.226828 477.9775 
L 844.219534 477.984313 
L 849.183064 478.750845 
L 850.175769 478.773797 
L 851.168475 478.466006 
L 852.161181 478.973708 
L 853.153887 478.835277 
L 854.146593 479.187392 
L 855.139299 478.527922 
L 856.132005 479.086417 
L 857.124711 478.798643 
L 858.117417 479.61375 
L 859.110123 479.859501 
L 860.102829 480.242977 
L 861.095535 479.664815 
L 862.088241 479.597354 
L 863.080946 479.270658 
L 864.073652 479.383612 
L 865.066358 479.781064 
L 866.059064 479.103753 
L 867.05177 479.876909 
L 868.044476 479.233705 
L 869.037182 479.414383 
L 870.029888 480.412221 
L 871.022594 480.251717 
L 872.0153 479.850704 
L 873.008006 480.690213 
L 874.000712 479.777555 
L 874.993418 480.695077 
L 875.986123 480.186904 
L 877.971535 480.617629 
L 878.964241 480.269911 
L 879.956947 480.312823 
L 880.949653 480.84372 
L 881.942359 480.772094 
L 882.935065 481.406556 
L 883.927771 480.978518 
L 884.920477 481.407883 
L 885.913183 480.984642 
L 886.905889 480.880379 
L 887.898595 481.802155 
L 888.8913 481.311357 
L 889.884006 481.919735 
L 890.876712 481.413893 
L 891.869418 482.22472 
L 892.862124 480.755032 
L 893.85483 481.380847 
L 894.847536 481.809037 
L 895.840242 481.911498 
L 896.832948 481.233101 
L 897.825654 481.178636 
L 898.81836 481.607722 
L 899.811066 482.426203 
L 900.803772 481.805044 
L 901.796477 481.623018 
L 902.789183 482.135973 
L 903.781889 481.798167 
L 904.774595 482.182601 
L 905.767301 482.01912 
L 906.760007 482.523052 
L 907.752713 482.300982 
L 908.745419 482.709226 
L 909.738125 482.054171 
L 910.730831 483.290271 
L 911.723537 482.615817 
L 912.716243 482.793529 
L 915.69436 482.93879 
L 916.687066 482.671173 
L 917.679772 483.293292 
L 918.672478 483.446666 
L 920.65789 482.743081 
L 921.650596 482.96189 
L 923.636008 483.181319 
L 924.628714 484.370465 
L 925.62142 483.636596 
L 926.614126 483.910785 
L 927.606832 483.826842 
L 928.599537 482.852337 
L 929.592243 483.818112 
L 930.584949 482.792126 
L 932.570361 483.457359 
L 933.563067 484.429677 
L 934.555773 483.908799 
L 935.548479 483.848096 
L 936.541185 484.26732 
L 937.533891 483.678545 
L 938.526597 483.981038 
L 939.519303 483.676199 
L 940.512009 484.356524 
L 941.504714 484.398412 
L 942.49742 484.636864 
L 944.482832 484.119993 
L 945.475538 484.690556 
L 947.46095 484.559751 
L 948.453656 483.982155 
L 949.446362 484.142987 
L 951.431774 484.928447 
L 952.42448 484.352556 
L 954.409891 484.860837 
L 955.402597 485.353423 
L 956.395303 485.210255 
L 957.388009 484.939402 
L 958.380715 485.241908 
L 959.373421 485.143371 
L 960.366127 484.750203 
L 961.358833 485.091457 
L 962.351539 485.669946 
L 963.344245 485.500138 
L 964.336951 485.205119 
L 965.329657 485.880487 
L 966.322363 485.661366 
L 967.315068 485.605668 
L 968.307774 485.239655 
L 969.30048 485.458942 
L 970.293186 485.403245 
L 971.285892 486.399461 
L 972.278598 485.421883 
L 973.271304 485.559376 
L 974.26401 486.442938 
L 975.256716 486.047119 
L 976.249422 486.290211 
L 977.242128 486.080122 
L 978.234834 486.552982 
L 981.212951 485.656526 
L 982.205657 485.729675 
L 983.198363 486.254644 
L 984.191069 486.410014 
L 985.183775 486.03655 
L 986.176481 485.892553 
L 989.154599 486.823661 
L 990.147305 486.642468 
L 991.140011 486.725601 
L 992.132717 486.319952 
L 993.125423 486.589012 
L 994.118128 487.040831 
L 995.110834 486.480979 
L 996.10354 486.789725 
L 997.096246 486.839338 
L 998.088952 486.567422 
L 999.081658 486.881733 
L 1000.074364 487.41154 
L 1001.06707 487.702488 
L 1002.059776 486.919057 
L 1003.052482 486.988524 
L 1004.045188 486.646399 
L 1005.037894 487.361748 
L 1006.0306 487.094663 
L 1007.023305 487.242922 
L 1008.016011 487.594314 
L 1010.001423 487.53961 
L 1010.994129 487.055903 
L 1011.986835 487.082793 
L 1012.979541 486.843949 
L 1014.964953 487.949912 
L 1015.957659 487.186152 
L 1016.950365 488.330903 
L 1017.943071 487.432776 
L 1019.928482 488.367681 
L 1020.921188 488.029388 
L 1022.9066 488.136106 
L 1023.899306 488.054562 
L 1024.892012 487.349612 
L 1025.884718 488.278184 
L 1026.877424 487.874971 
L 1027.87013 488.024315 
L 1028.862836 488.331041 
L 1029.855542 488.312383 
L 1030.848248 488.127696 
L 1031.840954 488.353682 
L 1032.833659 489.021053 
L 1033.826365 488.314044 
L 1034.819071 488.005911 
L 1035.811777 487.14388 
L 1036.804483 488.321549 
L 1038.789895 488.956908 
L 1039.782601 488.551249 
L 1040.775307 488.540601 
L 1041.768013 488.728643 
L 1042.760719 488.57988 
L 1043.753425 487.861956 
L 1044.746131 488.504503 
L 1045.738837 489.356973 
L 1046.731542 488.569399 
L 1047.724248 488.889924 
L 1048.716954 489.048724 
L 1049.70966 488.802197 
L 1050.702366 488.732629 
L 1052.687778 488.823797 
L 1054.67319 488.787025 
L 1056.658602 488.772763 
L 1058.644014 488.991049 
L 1059.636719 488.707988 
L 1061.622131 488.98855 
L 1062.614837 489.377467 
L 1063.607543 489.318392 
L 1064.600249 489.117264 
L 1065.592955 489.084348 
L 1066.585661 489.536626 
L 1067.578367 489.654737 
L 1068.571073 489.644772 
L 1072.541896 489.165053 
L 1073.534602 489.307249 
L 1074.527308 489.826422 
L 1075.520014 489.763144 
L 1076.51272 489.273619 
L 1077.505426 490.126953 
L 1078.498132 489.319845 
L 1079.490838 489.552313 
L 1081.47625 488.645904 
L 1082.468956 489.829577 
L 1083.461662 489.869686 
L 1084.454368 489.536232 
L 1085.447073 489.838547 
L 1086.439779 489.473591 
L 1087.432485 489.607918 
L 1088.425191 490.196561 
L 1089.417897 489.772475 
L 1090.410603 490.11049 
L 1091.403309 489.784899 
L 1092.396015 489.872367 
L 1093.388721 489.816445 
L 1094.381427 490.2402 
L 1095.374133 489.7521 
L 1096.366839 489.769698 
L 1097.359545 490.508108 
L 1098.35225 490.455675 
L 1099.344956 489.711515 
L 1100.337662 489.844133 
L 1101.330368 489.597856 
L 1102.323074 490.622632 
L 1103.31578 490.516546 
L 1104.308486 489.464682 
L 1105.301192 490.571958 
L 1106.293898 490.408983 
L 1107.286604 489.689245 
L 1108.27931 490.33507 
L 1109.272016 490.075803 
L 1110.264722 490.503885 
L 1111.257428 490.594743 
L 1112.250133 490.489113 
L 1113.242839 490.185049 
L 1114.235545 490.698588 
L 1115.228251 490.704147 
L 1117.213663 490.171498 
L 1118.206369 490.713732 
L 1119.199075 490.867925 
L 1120.191781 490.242654 
L 1121.184487 489.963049 
L 1122.177193 490.479078 
L 1123.169899 490.448881 
L 1124.162605 490.756992 
L 1125.15531 490.476653 
L 1126.148016 491.177288 
L 1127.140722 490.920798 
L 1128.133428 491.286732 
L 1129.126134 490.860233 
L 1130.11884 491.203432 
L 1131.111546 490.829336 
L 1132.104252 490.63902 
L 1133.096958 490.890045 
L 1135.08237 490.753356 
L 1136.075076 490.37141 
L 1137.067782 490.762742 
L 1138.060487 490.177786 
L 1139.053193 491.022919 
L 1140.045899 491.273139 
L 1141.038605 491.356236 
L 1142.031311 489.992186 
L 1143.024017 490.437258 
L 1144.016723 491.767241 
L 1145.009429 491.520922 
L 1146.002135 490.476574 
L 1146.994841 491.129634 
L 1147.987547 491.215286 
L 1148.980253 490.941914 
L 1149.972959 491.102109 
L 1150.965664 490.518981 
L 1151.95837 491.092287 
L 1152.951076 491.20795 
L 1153.943782 490.343466 
L 1154.936488 491.119864 
L 1155.929194 491.338497 
L 1157.914606 491.056614 
L 1158.907312 491.648712 
L 1159.900018 491.314747 
L 1160.892724 491.389813 
L 1162.878136 490.884399 
L 1163.870841 491.000755 
L 1164.863547 491.373286 
L 1165.856253 491.429264 
L 1166.848959 490.907078 
L 1167.841665 491.702208 
L 1168.834371 492.101783 
L 1169.827077 491.067041 
L 1171.812489 491.722041 
L 1172.805195 491.574709 
L 1173.797901 491.708706 
L 1174.790607 491.235253 
L 1175.783313 491.9208 
L 1176.776019 491.905273 
L 1177.768724 491.584061 
L 1179.754136 491.869503 
L 1181.739548 491.15158 
L 1182.732254 491.642101 
L 1183.72496 491.413949 
L 1184.717666 491.57609 
L 1185.710372 491.980097 
L 1187.695784 491.415598 
L 1188.68849 491.79037 
L 1189.681196 491.401997 
L 1190.673901 491.156893 
L 1191.666607 491.440328 
L 1192.659313 491.338395 
L 1193.652019 492.35919 
L 1194.644725 491.941462 
L 1195.637431 492.099214 
L 1196.630137 491.634249 
L 1197.622843 491.754132 
L 1199.608255 491.70015 
L 1200.600961 491.707834 
L 1201.593667 490.828121 
L 1202.586373 492.48 
L 1203.579078 491.341867 
L 1204.571784 491.157482 
L 1205.56449 491.763093 
L 1206.557196 491.543373 
L 1207.549902 490.845629 
L 1208.542608 491.66399 
L 1209.535314 491.630711 
L 1210.52802 492.128979 
L 1211.520726 491.631363 
L 1212.513432 492.059889 
L 1213.506138 491.412191 
L 1214.498844 491.810145 
L 1215.49155 492.390743 
L 1216.484255 492.171452 
L 1217.476961 491.63303 
L 1218.469667 491.959099 
L 1219.462373 491.491854 
L 1220.455079 491.738179 
L 1221.447785 491.453451 
L 1223.433197 492.094702 
L 1224.425903 492.186899 
L 1225.418609 491.184313 
L 1226.411315 491.942923 
L 1227.404021 492.026974 
L 1228.396727 491.373242 
L 1229.389432 491.965583 
L 1230.382138 491.353155 
L 1231.374844 491.494871 
L 1232.36755 492.251038 
L 1233.360256 491.789837 
L 1234.352962 491.942617 
L 1235.345668 491.960325 
L 1236.338374 491.367079 
L 1237.33108 490.954506 
L 1238.323786 491.305546 
L 1239.316492 492.116507 
L 1240.309198 491.950695 
L 1241.301904 492.210814 
L 1242.29461 491.217433 
L 1243.287315 491.568599 
L 1244.280021 491.444433 
L 1245.272727 491.818106 
L 1245.272727 491.818106 
" clip-path="url(#pb55e818b99)" style="fill: none; stroke: #1f77b4; stroke-width: 1.5; stroke-linecap: square"/>
   </g>
   <g id="patch_3">
    <path d="M 180 512.64 
L 180 69.12 
" style="fill: none; stroke: #000000; stroke-width: 0.8; stroke-linejoin: miter; stroke-linecap: square"/>
   </g>
   <g id="patch_4">
    <path d="M 1296 512.64 
L 1296 69.12 
" style="fill: none; stroke: #000000; stroke-width: 0.8; stroke-linejoin: miter; stroke-linecap: square"/>
   </g>
   <g id="patch_5">
    <path d="M 180 512.64 
L 1296 512.64 
" style="fill: none; stroke: #000000; stroke-width: 0.8; stroke-linejoin: miter; stroke-linecap: square"/>
   </g>
   <g id="patch_6">
    <path d="M 180 69.12 
L 1296 69.12 
" style="fill: none; stroke: #000000; stroke-width: 0.8; stroke-linejoin: miter; stroke-linecap: square"/>
   </g>
   <g id="text_14">
    <!-- source8-receiver21 -->
    <g transform="translate(544.9 60.80125) scale(0.4 -0.4)">
     <defs>
      <path id="DejaVuSans-73" d="M 2834 3397 
L 2834 2853 
Q 2591 2978 2328 3040 
Q 2066 3103 1784 3103 
Q 1356 3103 1142 2972 
Q 928 2841 928 2578 
Q 928 2378 1081 2264 
Q 1234 2150 1697 2047 
L 1894 2003 
Q 2506 1872 2764 1633 
Q 3022 1394 3022 966 
Q 3022 478 2636 193 
Q 2250 -91 1575 -91 
Q 1294 -91 989 -36 
Q 684 19 347 128 
L 347 722 
Q 666 556 975 473 
Q 1284 391 1588 391 
Q 1994 391 2212 530 
Q 2431 669 2431 922 
Q 2431 1156 2273 1281 
Q 2116 1406 1581 1522 
L 1381 1569 
Q 847 1681 609 1914 
Q 372 2147 372 2553 
Q 372 3047 722 3315 
Q 1072 3584 1716 3584 
Q 2034 3584 2315 3537 
Q 2597 3491 2834 3397 
z
" transform="scale(0.015625)"/>
      <path id="DejaVuSans-6f" d="M 1959 3097 
Q 1497 3097 1228 2736 
Q 959 2375 959 1747 
Q 959 1119 1226 758 
Q 1494 397 1959 397 
Q 2419 397 2687 759 
Q 2956 1122 2956 1747 
Q 2956 2369 2687 2733 
Q 2419 3097 1959 3097 
z
M 1959 3584 
Q 2709 3584 3137 3096 
Q 3566 2609 3566 1747 
Q 3566 888 3137 398 
Q 2709 -91 1959 -91 
Q 1206 -91 779 398 
Q 353 888 353 1747 
Q 353 2609 779 3096 
Q 1206 3584 1959 3584 
z
" transform="scale(0.015625)"/>
      <path id="DejaVuSans-75" d="M 544 1381 
L 544 3500 
L 1119 3500 
L 1119 1403 
Q 1119 906 1312 657 
Q 1506 409 1894 409 
Q 2359 409 2629 706 
Q 2900 1003 2900 1516 
L 2900 3500 
L 3475 3500 
L 3475 0 
L 2900 0 
L 2900 538 
Q 2691 219 2414 64 
Q 2138 -91 1772 -91 
Q 1169 -91 856 284 
Q 544 659 544 1381 
z
M 1991 3584 
L 1991 3584 
z
" transform="scale(0.015625)"/>
      <path id="DejaVuSans-72" d="M 2631 2963 
Q 2534 3019 2420 3045 
Q 2306 3072 2169 3072 
Q 1681 3072 1420 2755 
Q 1159 2438 1159 1844 
L 1159 0 
L 581 0 
L 581 3500 
L 1159 3500 
L 1159 2956 
Q 1341 3275 1631 3429 
Q 1922 3584 2338 3584 
Q 2397 3584 2469 3576 
Q 2541 3569 2628 3553 
L 2631 2963 
z
" transform="scale(0.015625)"/>
      <path id="DejaVuSans-63" d="M 3122 3366 
L 3122 2828 
Q 2878 2963 2633 3030 
Q 2388 3097 2138 3097 
Q 1578 3097 1268 2742 
Q 959 2388 959 1747 
Q 959 1106 1268 751 
Q 1578 397 2138 397 
Q 2388 397 2633 464 
Q 2878 531 3122 666 
L 3122 134 
Q 2881 22 2623 -34 
Q 2366 -91 2075 -91 
Q 1284 -91 818 406 
Q 353 903 353 1747 
Q 353 2603 823 3093 
Q 1294 3584 2113 3584 
Q 2378 3584 2631 3529 
Q 2884 3475 3122 3366 
z
" transform="scale(0.015625)"/>
      <path id="DejaVuSans-65" d="M 3597 1894 
L 3597 1613 
L 953 1613 
Q 991 1019 1311 708 
Q 1631 397 2203 397 
Q 2534 397 2845 478 
Q 3156 559 3463 722 
L 3463 178 
Q 3153 47 2828 -22 
Q 2503 -91 2169 -91 
Q 1331 -91 842 396 
Q 353 884 353 1716 
Q 353 2575 817 3079 
Q 1281 3584 2069 3584 
Q 2775 3584 3186 3129 
Q 3597 2675 3597 1894 
z
M 3022 2063 
Q 3016 2534 2758 2815 
Q 2500 3097 2075 3097 
Q 1594 3097 1305 2825 
Q 1016 2553 972 2059 
L 3022 2063 
z
" transform="scale(0.015625)"/>
      <path id="DejaVuSans-38" d="M 2034 2216 
Q 1584 2216 1326 1975 
Q 1069 1734 1069 1313 
Q 1069 891 1326 650 
Q 1584 409 2034 409 
Q 2484 409 2743 651 
Q 3003 894 3003 1313 
Q 3003 1734 2745 1975 
Q 2488 2216 2034 2216 
z
M 1403 2484 
Q 997 2584 770 2862 
Q 544 3141 544 3541 
Q 544 4100 942 4425 
Q 1341 4750 2034 4750 
Q 2731 4750 3128 4425 
Q 3525 4100 3525 3541 
Q 3525 3141 3298 2862 
Q 3072 2584 2669 2484 
Q 3125 2378 3379 2068 
Q 3634 1759 3634 1313 
Q 3634 634 3220 271 
Q 2806 -91 2034 -91 
Q 1263 -91 848 271 
Q 434 634 434 1313 
Q 434 1759 690 2068 
Q 947 2378 1403 2484 
z
M 1172 3481 
Q 1172 3119 1398 2916 
Q 1625 2713 2034 2713 
Q 2441 2713 2670 2916 
Q 2900 3119 2900 3481 
Q 2900 3844 2670 4047 
Q 2441 4250 2034 4250 
Q 1625 4250 1398 4047 
Q 1172 3844 1172 3481 
z
" transform="scale(0.015625)"/>
      <path id="DejaVuSans-2d" d="M 313 2009 
L 1997 2009 
L 1997 1497 
L 313 1497 
L 313 2009 
z
" transform="scale(0.015625)"/>
      <path id="DejaVuSans-69" d="M 603 3500 
L 1178 3500 
L 1178 0 
L 603 0 
L 603 3500 
z
M 603 4863 
L 1178 4863 
L 1178 4134 
L 603 4134 
L 603 4863 
z
" transform="scale(0.015625)"/>
      <path id="DejaVuSans-76" d="M 191 3500 
L 800 3500 
L 1894 563 
L 2988 3500 
L 3597 3500 
L 2284 0 
L 1503 0 
L 191 3500 
z
" transform="scale(0.015625)"/>
     </defs>
     <use xlink:href="#DejaVuSans-73"/>
     <use xlink:href="#DejaVuSans-6f" x="52.099609"/>
     <use xlink:href="#DejaVuSans-75" x="113.28125"/>
     <use xlink:href="#DejaVuSans-72" x="176.660156"/>
     <use xlink:href="#DejaVuSans-63" x="215.523438"/>
     <use xlink:href="#DejaVuSans-65" x="270.503906"/>
     <use xlink:href="#DejaVuSans-38" x="332.027344"/>
     <use xlink:href="#DejaVuSans-2d" x="395.650391"/>
     <use xlink:href="#DejaVuSans-72" x="431.734375"/>
     <use xlink:href="#DejaVuSans-65" x="470.597656"/>
     <use xlink:href="#DejaVuSans-63" x="532.121094"/>
     <use xlink:href="#DejaVuSans-65" x="587.101562"/>
     <use xlink:href="#DejaVuSans-69" x="648.625"/>
     <use xlink:href="#DejaVuSans-76" x="676.408203"/>
     <use xlink:href="#DejaVuSans-65" x="735.587891"/>
     <use xlink:href="#DejaVuSans-72" x="797.111328"/>
     <use xlink:href="#DejaVuSans-32" x="838.224609"/>
     <use xlink:href="#DejaVuSans-31" x="901.847656"/>
    </g>
   </g>
  </g>
 </g>
 <defs>
  <clipPath id="pb55e818b99">
   <rect x="180" y="69.12" width="1116" height="443.52"/>
  </clipPath>
 </defs>
</svg>
