<?xml version="1.0" encoding="utf-8" standalone="no"?>
<!DOCTYPE svg PUBLIC "-//W3C//DTD SVG 1.1//EN"
  "http://www.w3.org/Graphics/SVG/1.1/DTD/svg11.dtd">
<svg xmlns:xlink="http://www.w3.org/1999/xlink" width="1440pt" height="576pt" viewBox="0 0 1440 576" xmlns="http://www.w3.org/2000/svg" version="1.1">
 <metadata>
  <rdf:RDF xmlns:dc="http://purl.org/dc/elements/1.1/" xmlns:cc="http://creativecommons.org/ns#" xmlns:rdf="http://www.w3.org/1999/02/22-rdf-syntax-ns#">
   <cc:Work>
    <dc:type rdf:resource="http://purl.org/dc/dcmitype/StillImage"/>
    <dc:date>2024-05-22T04:49:53.189852</dc:date>
    <dc:format>image/svg+xml</dc:format>
    <dc:creator>
     <cc:Agent>
      <dc:title>Matplotlib v3.8.3, https://matplotlib.org/</dc:title>
     </cc:Agent>
    </dc:creator>
   </cc:Work>
  </rdf:RDF>
 </metadata>
 <defs>
  <style type="text/css">*{stroke-linejoin: round; stroke-linecap: butt}</style>
 </defs>
 <g id="figure_1">
  <g id="patch_1">
   <path d="M 0 576 
L 1440 576 
L 1440 0 
L 0 0 
z
" style="fill: #ffffff"/>
  </g>
  <g id="axes_1">
   <g id="patch_2">
    <path d="M 180 512.64 
L 1296 512.64 
L 1296 69.12 
L 180 69.12 
z
" style="fill: #ffffff"/>
   </g>
   <g id="matplotlib.axis_1">
    <g id="xtick_1">
     <g id="line2d_1">
      <defs>
       <path id="mc145293733" d="M 0 0 
L 0 3.5 
" style="stroke: #000000; stroke-width: 0.8"/>
      </defs>
      <g>
       <use xlink:href="#mc145293733" x="229.734567" y="512.64" style="stroke: #000000; stroke-width: 0.8"/>
      </g>
     </g>
     <g id="text_1">
      <!-- 0 -->
      <g transform="translate(226.553317 527.238438) scale(0.1 -0.1)">
       <defs>
        <path id="DejaVuSans-30" d="M 2034 4250 
Q 1547 4250 1301 3770 
Q 1056 3291 1056 2328 
Q 1056 1369 1301 889 
Q 1547 409 2034 409 
Q 2525 409 2770 889 
Q 3016 1369 3016 2328 
Q 3016 3291 2770 3770 
Q 2525 4250 2034 4250 
z
M 2034 4750 
Q 2819 4750 3233 4129 
Q 3647 3509 3647 2328 
Q 3647 1150 3233 529 
Q 2819 -91 2034 -91 
Q 1250 -91 836 529 
Q 422 1150 422 2328 
Q 422 3509 836 4129 
Q 1250 4750 2034 4750 
z
" transform="scale(0.015625)"/>
       </defs>
       <use xlink:href="#DejaVuSans-30"/>
      </g>
     </g>
    </g>
    <g id="xtick_2">
     <g id="line2d_2">
      <g>
       <use xlink:href="#mc145293733" x="433.04074" y="512.64" style="stroke: #000000; stroke-width: 0.8"/>
      </g>
     </g>
     <g id="text_2">
      <!-- 500 -->
      <g transform="translate(423.49699 527.238438) scale(0.1 -0.1)">
       <defs>
        <path id="DejaVuSans-35" d="M 691 4666 
L 3169 4666 
L 3169 4134 
L 1269 4134 
L 1269 2991 
Q 1406 3038 1543 3061 
Q 1681 3084 1819 3084 
Q 2600 3084 3056 2656 
Q 3513 2228 3513 1497 
Q 3513 744 3044 326 
Q 2575 -91 1722 -91 
Q 1428 -91 1123 -41 
Q 819 9 494 109 
L 494 744 
Q 775 591 1075 516 
Q 1375 441 1709 441 
Q 2250 441 2565 725 
Q 2881 1009 2881 1497 
Q 2881 1984 2565 2268 
Q 2250 2553 1709 2553 
Q 1456 2553 1204 2497 
Q 953 2441 691 2322 
L 691 4666 
z
" transform="scale(0.015625)"/>
       </defs>
       <use xlink:href="#DejaVuSans-35"/>
       <use xlink:href="#DejaVuSans-30" x="63.623047"/>
       <use xlink:href="#DejaVuSans-30" x="127.246094"/>
      </g>
     </g>
    </g>
    <g id="xtick_3">
     <g id="line2d_3">
      <g>
       <use xlink:href="#mc145293733" x="636.346913" y="512.64" style="stroke: #000000; stroke-width: 0.8"/>
      </g>
     </g>
     <g id="text_3">
      <!-- 1000 -->
      <g transform="translate(623.621913 527.238438) scale(0.1 -0.1)">
       <defs>
        <path id="DejaVuSans-31" d="M 794 531 
L 1825 531 
L 1825 4091 
L 703 3866 
L 703 4441 
L 1819 4666 
L 2450 4666 
L 2450 531 
L 3481 531 
L 3481 0 
L 794 0 
L 794 531 
z
" transform="scale(0.015625)"/>
       </defs>
       <use xlink:href="#DejaVuSans-31"/>
       <use xlink:href="#DejaVuSans-30" x="63.623047"/>
       <use xlink:href="#DejaVuSans-30" x="127.246094"/>
       <use xlink:href="#DejaVuSans-30" x="190.869141"/>
      </g>
     </g>
    </g>
    <g id="xtick_4">
     <g id="line2d_4">
      <g>
       <use xlink:href="#mc145293733" x="839.653087" y="512.64" style="stroke: #000000; stroke-width: 0.8"/>
      </g>
     </g>
     <g id="text_4">
      <!-- 1500 -->
      <g transform="translate(826.928087 527.238438) scale(0.1 -0.1)">
       <use xlink:href="#DejaVuSans-31"/>
       <use xlink:href="#DejaVuSans-35" x="63.623047"/>
       <use xlink:href="#DejaVuSans-30" x="127.246094"/>
       <use xlink:href="#DejaVuSans-30" x="190.869141"/>
      </g>
     </g>
    </g>
    <g id="xtick_5">
     <g id="line2d_5">
      <g>
       <use xlink:href="#mc145293733" x="1042.95926" y="512.64" style="stroke: #000000; stroke-width: 0.8"/>
      </g>
     </g>
     <g id="text_5">
      <!-- 2000 -->
      <g transform="translate(1030.23426 527.238438) scale(0.1 -0.1)">
       <defs>
        <path id="DejaVuSans-32" d="M 1228 531 
L 3431 531 
L 3431 0 
L 469 0 
L 469 531 
Q 828 903 1448 1529 
Q 2069 2156 2228 2338 
Q 2531 2678 2651 2914 
Q 2772 3150 2772 3378 
Q 2772 3750 2511 3984 
Q 2250 4219 1831 4219 
Q 1534 4219 1204 4116 
Q 875 4013 500 3803 
L 500 4441 
Q 881 4594 1212 4672 
Q 1544 4750 1819 4750 
Q 2544 4750 2975 4387 
Q 3406 4025 3406 3419 
Q 3406 3131 3298 2873 
Q 3191 2616 2906 2266 
Q 2828 2175 2409 1742 
Q 1991 1309 1228 531 
z
" transform="scale(0.015625)"/>
       </defs>
       <use xlink:href="#DejaVuSans-32"/>
       <use xlink:href="#DejaVuSans-30" x="63.623047"/>
       <use xlink:href="#DejaVuSans-30" x="127.246094"/>
       <use xlink:href="#DejaVuSans-30" x="190.869141"/>
      </g>
     </g>
    </g>
    <g id="xtick_6">
     <g id="line2d_6">
      <g>
       <use xlink:href="#mc145293733" x="1246.265433" y="512.64" style="stroke: #000000; stroke-width: 0.8"/>
      </g>
     </g>
     <g id="text_6">
      <!-- 2500 -->
      <g transform="translate(1233.540433 527.238438) scale(0.1 -0.1)">
       <use xlink:href="#DejaVuSans-32"/>
       <use xlink:href="#DejaVuSans-35" x="63.623047"/>
       <use xlink:href="#DejaVuSans-30" x="127.246094"/>
       <use xlink:href="#DejaVuSans-30" x="190.869141"/>
      </g>
     </g>
    </g>
   </g>
   <g id="matplotlib.axis_2">
    <g id="ytick_1">
     <g id="line2d_7">
      <defs>
       <path id="m7e0b10f706" d="M 0 0 
L -3.5 0 
" style="stroke: #000000; stroke-width: 0.8"/>
      </defs>
      <g>
       <use xlink:href="#m7e0b10f706" x="180" y="450.135411" style="stroke: #000000; stroke-width: 0.8"/>
      </g>
     </g>
     <g id="text_7">
      <!-- −4 -->
      <g transform="translate(158.257812 453.93463) scale(0.1 -0.1)">
       <defs>
        <path id="DejaVuSans-2212" d="M 678 2272 
L 4684 2272 
L 4684 1741 
L 678 1741 
L 678 2272 
z
" transform="scale(0.015625)"/>
        <path id="DejaVuSans-34" d="M 2419 4116 
L 825 1625 
L 2419 1625 
L 2419 4116 
z
M 2253 4666 
L 3047 4666 
L 3047 1625 
L 3713 1625 
L 3713 1100 
L 3047 1100 
L 3047 0 
L 2419 0 
L 2419 1100 
L 313 1100 
L 313 1709 
L 2253 4666 
z
" transform="scale(0.015625)"/>
       </defs>
       <use xlink:href="#DejaVuSans-2212"/>
       <use xlink:href="#DejaVuSans-34" x="83.789062"/>
      </g>
     </g>
    </g>
    <g id="ytick_2">
     <g id="line2d_8">
      <g>
       <use xlink:href="#m7e0b10f706" x="180" y="377.043057" style="stroke: #000000; stroke-width: 0.8"/>
      </g>
     </g>
     <g id="text_8">
      <!-- −2 -->
      <g transform="translate(158.257812 380.842276) scale(0.1 -0.1)">
       <use xlink:href="#DejaVuSans-2212"/>
       <use xlink:href="#DejaVuSans-32" x="83.789062"/>
      </g>
     </g>
    </g>
    <g id="ytick_3">
     <g id="line2d_9">
      <g>
       <use xlink:href="#m7e0b10f706" x="180" y="303.950704" style="stroke: #000000; stroke-width: 0.8"/>
      </g>
     </g>
     <g id="text_9">
      <!-- 0 -->
      <g transform="translate(166.6375 307.749923) scale(0.1 -0.1)">
       <use xlink:href="#DejaVuSans-30"/>
      </g>
     </g>
    </g>
    <g id="ytick_4">
     <g id="line2d_10">
      <g>
       <use xlink:href="#m7e0b10f706" x="180" y="230.85835" style="stroke: #000000; stroke-width: 0.8"/>
      </g>
     </g>
     <g id="text_10">
      <!-- 2 -->
      <g transform="translate(166.6375 234.657569) scale(0.1 -0.1)">
       <use xlink:href="#DejaVuSans-32"/>
      </g>
     </g>
    </g>
    <g id="ytick_5">
     <g id="line2d_11">
      <g>
       <use xlink:href="#m7e0b10f706" x="180" y="157.765997" style="stroke: #000000; stroke-width: 0.8"/>
      </g>
     </g>
     <g id="text_11">
      <!-- 4 -->
      <g transform="translate(166.6375 161.565216) scale(0.1 -0.1)">
       <use xlink:href="#DejaVuSans-34"/>
      </g>
     </g>
    </g>
    <g id="ytick_6">
     <g id="line2d_12">
      <g>
       <use xlink:href="#m7e0b10f706" x="180" y="84.673643" style="stroke: #000000; stroke-width: 0.8"/>
      </g>
     </g>
     <g id="text_12">
      <!-- 6 -->
      <g transform="translate(166.6375 88.472862) scale(0.1 -0.1)">
       <defs>
        <path id="DejaVuSans-36" d="M 2113 2584 
Q 1688 2584 1439 2293 
Q 1191 2003 1191 1497 
Q 1191 994 1439 701 
Q 1688 409 2113 409 
Q 2538 409 2786 701 
Q 3034 994 3034 1497 
Q 3034 2003 2786 2293 
Q 2538 2584 2113 2584 
z
M 3366 4563 
L 3366 3988 
Q 3128 4100 2886 4159 
Q 2644 4219 2406 4219 
Q 1781 4219 1451 3797 
Q 1122 3375 1075 2522 
Q 1259 2794 1537 2939 
Q 1816 3084 2150 3084 
Q 2853 3084 3261 2657 
Q 3669 2231 3669 1497 
Q 3669 778 3244 343 
Q 2819 -91 2113 -91 
Q 1303 -91 875 529 
Q 447 1150 447 2328 
Q 447 3434 972 4092 
Q 1497 4750 2381 4750 
Q 2619 4750 2861 4703 
Q 3103 4656 3366 4563 
z
" transform="scale(0.015625)"/>
       </defs>
       <use xlink:href="#DejaVuSans-36"/>
      </g>
     </g>
    </g>
   </g>
   <g id="line2d_13">
    <path d="M 230.727273 283.743518 
L 231.719979 288.286048 
L 232.712685 291.660941 
L 233.70539 302.670184 
L 234.698096 316.888329 
L 235.690802 315.354436 
L 236.683508 294.625349 
L 237.676214 281.150171 
L 239.661626 303.227066 
L 240.654332 338.073348 
L 241.647038 303.29474 
L 242.639744 292.037211 
L 243.63245 296.465482 
L 244.625156 270.87868 
L 245.617862 272.683936 
L 246.610568 284.180601 
L 247.603273 366.100702 
L 248.595979 264.380394 
L 249.588685 242.301219 
L 250.581391 228.497218 
L 251.574097 226.509579 
L 252.566803 234.015045 
L 253.559509 213.761147 
L 254.552215 201.138408 
L 255.544921 193.693664 
L 256.537627 188.629531 
L 257.530333 191.415573 
L 258.523039 219.491269 
L 259.515745 216.28915 
L 260.50845 189.812957 
L 261.501156 206.626616 
L 262.493862 247.215411 
L 263.486568 221.919386 
L 264.479274 215.166114 
L 265.47198 175.997739 
L 266.464686 164.810912 
L 267.457392 163.813418 
L 268.450098 165.724641 
L 269.442804 169.679703 
L 270.43551 175.697702 
L 271.428216 167.892134 
L 272.420922 158.263921 
L 273.413627 167.361432 
L 274.406333 194.193637 
L 275.399039 171.24864 
L 276.391745 135.741655 
L 277.384451 119.702679 
L 278.377157 114.863177 
L 279.369863 111.147211 
L 280.362569 119.784976 
L 281.355275 156.367781 
L 282.347981 102.751734 
L 283.340687 89.28 
L 284.333393 97.31329 
L 285.326099 132.210872 
L 286.318804 150.903698 
L 287.31151 130.754651 
L 288.304216 138.122034 
L 289.296922 146.575508 
L 290.289628 142.244277 
L 291.282334 151.494632 
L 292.27504 189.561188 
L 293.267746 176.600328 
L 294.260452 178.166461 
L 295.253158 194.177203 
L 296.245864 181.445939 
L 297.23857 185.898636 
L 298.231276 206.03613 
L 299.223981 217.41783 
L 300.216687 193.549817 
L 301.209393 191.583139 
L 302.202099 217.717875 
L 303.194805 220.029187 
L 304.187511 201.474124 
L 305.180217 223.689794 
L 306.172923 242.766136 
L 307.165629 253.820702 
L 308.158335 261.37581 
L 309.151041 242.400117 
L 310.143747 232.288664 
L 311.136453 236.21133 
L 312.129159 259.57468 
L 313.121864 291.705345 
L 314.11457 288.171413 
L 316.099982 261.373596 
L 317.092688 243.876857 
L 318.085394 241.026104 
L 320.070806 263.022725 
L 321.063512 257.586945 
L 322.056218 251.070353 
L 323.048924 255.703537 
L 324.04163 263.122436 
L 325.034336 275.526795 
L 326.027041 292.132213 
L 327.019747 288.794278 
L 328.012453 270.707921 
L 329.005159 261.185183 
L 329.997865 260.280922 
L 330.990571 260.162605 
L 331.983277 265.476043 
L 332.975983 274.574108 
L 333.968689 277.330178 
L 334.961395 269.150791 
L 335.954101 265.727297 
L 336.946807 269.943365 
L 337.939513 271.160665 
L 338.932218 276.052924 
L 339.924924 288.896502 
L 340.91763 287.881624 
L 341.910336 272.276606 
L 342.903042 262.991145 
L 343.895748 264.370956 
L 344.888454 267.652555 
L 345.88116 276.357717 
L 346.873866 303.848632 
L 347.866572 316.828108 
L 348.859278 275.348321 
L 349.851984 253.315431 
L 350.84469 244.240183 
L 351.837395 239.381631 
L 352.830101 240.965704 
L 353.822807 254.902524 
L 354.815513 263.081342 
L 355.808219 239.049598 
L 356.800925 222.445664 
L 357.793631 217.949461 
L 358.786337 222.4302 
L 359.779043 234.819084 
L 360.771749 243.470464 
L 361.764455 231.860714 
L 362.757161 223.903479 
L 363.749867 223.038834 
L 364.742572 229.019201 
L 365.735278 238.456918 
L 366.727984 246.52571 
L 367.72069 246.457963 
L 369.706102 223.70241 
L 370.698808 215.453822 
L 371.691514 212.964941 
L 372.68422 218.602098 
L 373.676926 234.750303 
L 374.669632 259.315781 
L 375.662338 246.80258 
L 376.655044 242.6651 
L 377.64775 264.896867 
L 378.640455 231.991764 
L 379.633161 207.697753 
L 380.625867 199.114235 
L 381.618573 203.466094 
L 382.611279 211.34613 
L 384.596691 180.838134 
L 385.589397 176.941263 
L 386.582103 183.434596 
L 387.574809 197.193151 
L 388.567515 193.884401 
L 389.560221 182.432886 
L 390.552927 180.719143 
L 391.545632 191.13984 
L 392.538338 216.638736 
L 393.531044 222.295536 
L 394.52375 205.05228 
L 395.516456 204.387741 
L 396.509162 218.296221 
L 397.501868 249.011466 
L 398.494574 261.776161 
L 399.48728 246.426683 
L 400.479986 246.555746 
L 401.472692 239.551215 
L 402.465398 237.29718 
L 403.458104 248.028441 
L 404.450809 286.944621 
L 405.443515 268.630988 
L 406.436221 245.004302 
L 407.428927 245.533979 
L 408.421633 263.701705 
L 409.414339 341.437345 
L 410.407045 278.045194 
L 411.399751 265.897878 
L 412.392457 274.128848 
L 414.377869 293.094127 
L 415.370575 297.246232 
L 416.363281 326.2168 
L 417.355986 291.761699 
L 418.348692 276.786699 
L 419.341398 282.336855 
L 420.334104 306.119008 
L 421.32681 317.600355 
L 422.319516 282.784171 
L 423.312222 280.514741 
L 424.304928 297.391769 
L 425.297634 362.75957 
L 426.29034 291.177563 
L 427.283046 279.286882 
L 428.275752 288.045453 
L 429.268458 304.228086 
L 430.261163 344.274972 
L 431.253869 331.612974 
L 433.239281 282.729318 
L 434.231987 275.619599 
L 435.224693 283.676654 
L 436.217399 303.949903 
L 437.210105 293.5401 
L 438.202811 275.003862 
L 439.195517 272.371258 
L 440.188223 281.255421 
L 441.180929 305.87871 
L 442.173635 349.484557 
L 443.166341 323.197638 
L 445.151752 297.492343 
L 446.144458 296.146413 
L 447.137164 299.405567 
L 448.12987 310.153835 
L 449.122576 314.203113 
L 450.115282 308.564919 
L 451.107988 308.564081 
L 452.100694 318.065578 
L 453.0934 336.240548 
L 454.086106 337.891119 
L 455.078812 309.600532 
L 456.071518 295.444297 
L 457.064223 296.749492 
L 458.056929 309.414048 
L 459.049635 379.202648 
L 460.042341 294.304339 
L 461.035047 282.968927 
L 462.027753 282.966198 
L 463.020459 288.018778 
L 464.013165 289.585484 
L 465.005871 285.176038 
L 465.998577 301.00432 
L 466.991283 293.018384 
L 467.983989 270.52419 
L 468.976695 261.764513 
L 469.9694 267.65226 
L 470.962106 307.477987 
L 471.954812 292.805652 
L 472.947518 263.946885 
L 473.940224 256.38463 
L 474.93293 265.283582 
L 475.925636 294.666774 
L 476.918342 300.203557 
L 477.911048 276.580017 
L 478.903754 274.628663 
L 479.89646 292.969567 
L 480.889166 354.935384 
L 481.881872 330.500208 
L 482.874577 314.004947 
L 483.867283 311.469915 
L 484.859989 293.216833 
L 485.852695 278.186065 
L 486.845401 269.52008 
L 487.838107 263.40093 
L 489.823519 253.529878 
L 490.816225 250.083784 
L 491.808931 247.067641 
L 492.801637 244.689766 
L 493.794343 244.965034 
L 494.787049 247.802654 
L 495.779754 249.081248 
L 496.77246 247.039629 
L 497.765166 246.976658 
L 498.757872 252.787615 
L 499.750578 265.708955 
L 500.743284 273.94471 
L 501.73599 264.799572 
L 502.728696 263.190049 
L 503.721402 276.261509 
L 504.714108 311.912082 
L 505.706814 308.869793 
L 506.69952 285.256111 
L 507.692226 284.890975 
L 508.684932 287.73796 
L 509.677637 299.781723 
L 510.670343 326.141451 
L 511.663049 346.010078 
L 512.655755 288.941808 
L 513.648461 276.302707 
L 514.641167 279.124739 
L 515.633873 288.584814 
L 516.626579 299.318195 
L 517.619285 290.98758 
L 518.611991 284.053257 
L 519.604697 282.226658 
L 520.597403 285.30066 
L 521.590109 295.39243 
L 522.582814 295.036039 
L 523.57552 281.788348 
L 524.568226 272.53186 
L 525.560932 271.654516 
L 526.553638 276.015895 
L 527.546344 284.117503 
L 528.53905 288.654572 
L 529.531756 286.400302 
L 530.524462 282.690861 
L 531.517168 284.958635 
L 532.509874 298.475066 
L 533.50258 314.814258 
L 534.495286 319.425798 
L 535.487991 371.615738 
L 536.480697 327.991763 
L 537.473403 297.86594 
L 538.466109 282.544762 
L 539.458815 283.48784 
L 540.451521 295.923525 
L 541.444227 325.779602 
L 542.436933 338.286082 
L 543.429639 310.656496 
L 544.422345 302.00187 
L 545.415051 292.329413 
L 546.407757 291.92934 
L 547.400463 295.088596 
L 548.393168 317.249194 
L 549.385874 327.902619 
L 550.37858 299.637984 
L 551.371286 291.365323 
L 552.363992 291.239316 
L 553.356698 306.908612 
L 554.349404 372.622189 
L 555.34211 336.001122 
L 556.334816 318.096619 
L 557.327522 318.637362 
L 558.320228 343.238601 
L 559.312934 325.143143 
L 560.30564 311.448102 
L 561.298345 307.378514 
L 562.291051 318.036538 
L 563.283757 388.76975 
L 564.276463 316.184627 
L 565.269169 300.297032 
L 566.261875 293.874675 
L 567.254581 304.749481 
L 568.247287 329.116925 
L 569.239993 313.197433 
L 570.232699 292.642931 
L 571.225405 288.674024 
L 572.218111 295.855591 
L 573.210817 321.41901 
L 574.203523 309.630405 
L 575.196228 292.527454 
L 576.188934 288.5414 
L 577.18164 300.041359 
L 578.174346 339.880373 
L 579.167052 321.990388 
L 580.159758 298.6957 
L 581.152464 298.821622 
L 582.14517 334.202537 
L 583.137876 335.238217 
L 584.130582 299.283392 
L 585.123288 289.9888 
L 586.115994 298.596398 
L 587.1087 315.234019 
L 588.101405 295.869414 
L 589.094111 284.706315 
L 590.086817 282.793666 
L 591.079523 289.84489 
L 592.072229 292.698076 
L 593.064935 287.388779 
L 594.057641 284.834984 
L 595.050347 284.753798 
L 596.043053 283.705874 
L 597.035759 280.033856 
L 598.028465 280.185153 
L 599.021171 285.483539 
L 600.013877 286.90981 
L 601.006582 278.267682 
L 601.999288 270.923076 
L 602.991994 270.834276 
L 603.9847 281.880757 
L 604.977406 289.737804 
L 605.970112 277.614223 
L 606.962818 268.317149 
L 607.955524 269.978526 
L 608.94823 283.731163 
L 609.940936 299.970796 
L 610.933642 288.801161 
L 611.926348 281.401668 
L 612.919054 286.227273 
L 614.904465 327.214605 
L 615.897171 327.655098 
L 616.889877 324.755441 
L 617.882583 331.104565 
L 618.875289 326.204266 
L 619.867995 327.116686 
L 620.860701 322.918664 
L 621.853407 309.575833 
L 622.846113 303.179613 
L 623.838819 311.222951 
L 624.831525 325.17587 
L 625.824231 317.667406 
L 626.816936 305.14671 
L 627.809642 307.483073 
L 628.802348 325.25273 
L 629.795054 348.226217 
L 630.78776 364.931274 
L 631.780466 348.722068 
L 632.773172 343.650773 
L 633.765878 331.913145 
L 634.758584 330.269485 
L 635.75129 334.570757 
L 636.743996 337.178093 
L 637.736702 335.043869 
L 638.729408 346.276259 
L 639.722114 351.308091 
L 640.714819 344.860784 
L 641.707525 342.136827 
L 642.700231 358.868348 
L 643.692937 381.850394 
L 644.685643 341.467732 
L 645.678349 342.095706 
L 646.671055 351.862904 
L 647.663761 404.442111 
L 648.656467 354.668035 
L 649.649173 344.778753 
L 651.634585 339.00594 
L 652.627291 357.430209 
L 653.619996 393.92315 
L 654.612702 356.328466 
L 655.605408 330.262714 
L 656.598114 326.57182 
L 657.59082 334.356947 
L 658.583526 343.691291 
L 659.576232 341.837147 
L 660.568938 332.310065 
L 661.561644 332.18006 
L 662.55435 336.245759 
L 663.547056 360.78235 
L 664.539762 409.005429 
L 665.532468 387.989485 
L 666.525173 363.023219 
L 667.517879 346.254138 
L 668.510585 342.121244 
L 669.503291 337.188622 
L 670.495997 354.230578 
L 671.488703 398.23682 
L 672.481409 359.320078 
L 673.474115 342.624892 
L 674.466821 339.833533 
L 676.452233 399.166621 
L 677.444939 365.558161 
L 678.437645 349.708559 
L 679.43035 344.332829 
L 680.423056 356.014808 
L 681.415762 371.446557 
L 682.408468 359.410284 
L 683.401174 339.357415 
L 684.39388 332.766776 
L 685.386586 345.2763 
L 686.379292 375.114422 
L 687.371998 401.473823 
L 688.364704 354.056083 
L 689.35741 347.774266 
L 690.350116 352.167707 
L 691.342822 348.792215 
L 692.335527 375.676794 
L 693.328233 407.447535 
L 694.320939 360.923148 
L 695.313645 336.42691 
L 696.306351 339.192922 
L 697.299057 373.615163 
L 698.291763 356.281388 
L 699.284469 328.771684 
L 700.277175 321.080243 
L 701.269881 332.168846 
L 702.262587 333.555666 
L 703.255293 315.111148 
L 704.247999 304.368981 
L 705.240705 304.912242 
L 706.23341 313.165881 
L 707.226116 310.932971 
L 708.218822 300.63358 
L 709.211528 295.891698 
L 710.204234 300.463384 
L 711.19694 310.603941 
L 712.189646 314.207043 
L 713.182352 308.911769 
L 714.175058 307.227882 
L 715.167764 315.217723 
L 716.16047 333.767345 
L 717.153176 361.784829 
L 718.145882 358.105576 
L 719.138587 346.498586 
L 720.131293 373.521628 
L 721.123999 362.020582 
L 722.116705 335.106097 
L 723.109411 325.29064 
L 724.102117 328.079037 
L 725.094823 349.785821 
L 727.080235 316.503749 
L 728.072941 311.891631 
L 729.065647 320.850908 
L 730.058353 346.878698 
L 731.051059 336.281713 
L 732.043764 322.722661 
L 733.03647 320.643328 
L 734.029176 336.532574 
L 735.021882 381.431227 
L 736.014588 365.231713 
L 737.007294 346.614303 
L 738 346.056327 
L 738.992706 373.010458 
L 739.985412 413.779635 
L 740.978118 380.156969 
L 741.970824 355.408448 
L 742.96353 362.130534 
L 743.956236 384.087972 
L 744.948941 377.801172 
L 745.941647 344.190425 
L 746.934353 338.978797 
L 747.927059 351.223091 
L 748.919765 377.898851 
L 749.912471 360.476126 
L 750.905177 335.627084 
L 751.897883 335.634231 
L 752.890589 340.705472 
L 753.883295 364.961278 
L 754.876001 379.473633 
L 755.868707 348.072069 
L 756.861413 335.435678 
L 757.854118 331.899005 
L 758.846824 353.746461 
L 759.83953 435.804623 
L 760.832236 356.894618 
L 761.824942 334.70855 
L 762.817648 340.416319 
L 763.810354 378.870727 
L 764.80306 385.393938 
L 765.795766 360.310909 
L 766.788472 358.19922 
L 767.781178 389.388511 
L 768.773884 341.697224 
L 769.76659 336.13657 
L 770.759295 346.102836 
L 771.752001 370.707595 
L 772.744707 332.414047 
L 773.737413 317.537155 
L 774.730119 320.047797 
L 775.722825 332.913347 
L 776.715531 340.061617 
L 777.708237 320.102918 
L 778.700943 314.434098 
L 779.693649 319.171735 
L 780.686355 332.924062 
L 781.679061 339.503474 
L 782.671767 327.379704 
L 783.664473 324.057663 
L 784.657178 326.483531 
L 785.649884 338.985107 
L 786.64259 355.202191 
L 787.635296 349.596317 
L 788.628002 337.786127 
L 789.620708 333.691817 
L 790.613414 342.091363 
L 791.60612 352.796863 
L 792.598826 350.329882 
L 793.591532 343.480632 
L 794.584238 343.161309 
L 795.576944 346.746757 
L 796.56965 345.43807 
L 797.562355 346.367797 
L 799.547767 366.195931 
L 800.540473 360.069626 
L 801.533179 349.027561 
L 802.525885 352.944416 
L 803.518591 375.532103 
L 804.511297 394.021748 
L 805.504003 368.987496 
L 806.496709 353.135645 
L 807.489415 357.291466 
L 808.482121 373.856318 
L 809.474827 381.482523 
L 810.467532 358.40188 
L 811.460238 344.268491 
L 812.452944 345.163416 
L 813.44565 351.746826 
L 814.438356 352.664158 
L 815.431062 339.722177 
L 816.423768 329.650455 
L 817.416474 329.455198 
L 818.40918 334.834181 
L 819.401886 342.385658 
L 820.394592 336.258607 
L 821.387298 327.9178 
L 822.380004 329.400967 
L 823.372709 339.401078 
L 824.365415 371.179721 
L 825.358121 357.147539 
L 826.350827 348.136286 
L 827.343533 357.351345 
L 828.336239 363.653042 
L 829.328945 352.398601 
L 830.321651 339.66311 
L 831.314357 357.108563 
L 832.307063 370.938005 
L 833.299769 336.307052 
L 834.292475 321.985402 
L 835.285181 322.156169 
L 836.277886 340.279306 
L 837.270592 348.727578 
L 838.263298 330.413919 
L 839.256004 321.797617 
L 840.24871 329.036956 
L 841.241416 356.914604 
L 842.234122 378.047451 
L 843.226828 353.42727 
L 844.219534 346.046716 
L 845.21224 359.95678 
L 846.204946 366.275567 
L 847.197652 374.015301 
L 848.190358 392.442336 
L 849.183064 376.274909 
L 850.175769 356.588054 
L 851.168475 348.328307 
L 852.161181 356.255483 
L 853.153887 370.375846 
L 854.146593 370.137268 
L 855.139299 362.016692 
L 856.132005 360.988376 
L 857.124711 370.883821 
L 858.117417 386.284675 
L 859.110123 394.639831 
L 860.102829 398.738607 
L 861.095535 380.246345 
L 862.088241 391.279548 
L 863.080946 380.352254 
L 864.073652 392.010021 
L 865.066358 421.405924 
L 866.059064 386.784754 
L 867.05177 366.552994 
L 868.044476 354.961995 
L 869.037182 374.667411 
L 870.029888 405.235971 
L 871.022594 366.236341 
L 872.0153 346.458064 
L 873.008006 349.153106 
L 874.000712 385.400765 
L 874.993418 377.178206 
L 875.986123 353.735372 
L 876.978829 347.457231 
L 877.971535 369.139156 
L 878.964241 372.860888 
L 879.956947 349.431678 
L 880.949653 344.311931 
L 882.935065 356.551195 
L 883.927771 338.730349 
L 884.920477 332.222206 
L 885.913183 333.337136 
L 886.905889 340.657198 
L 887.898595 341.068182 
L 888.8913 333.554126 
L 889.884006 331.553364 
L 890.876712 333.972131 
L 891.869418 345.723795 
L 892.862124 355.779897 
L 893.85483 353.448789 
L 894.847536 347.948583 
L 895.840242 349.027674 
L 896.832948 368.926859 
L 897.825654 403.34436 
L 898.81836 406.640873 
L 899.811066 382.715302 
L 900.803772 376.268913 
L 901.796477 374.885333 
L 902.789183 364.404625 
L 903.781889 374.056002 
L 904.774595 421.610961 
L 905.767301 458.622736 
L 906.760007 394.80715 
L 907.752713 378.517124 
L 908.745419 401.376872 
L 909.738125 395.326686 
L 910.730831 385.561216 
L 911.723537 399.05441 
L 912.716243 389.75607 
L 913.708949 394.786764 
L 914.701655 378.756331 
L 916.687066 362.759627 
L 917.679772 355.211985 
L 918.672478 364.220311 
L 919.665184 388.656246 
L 920.65789 379.517516 
L 921.650596 355.852525 
L 922.643302 346.206136 
L 923.636008 358.109837 
L 924.628714 398.610134 
L 925.62142 406.657084 
L 926.614126 356.74564 
L 927.606832 346.619607 
L 928.599537 362.380606 
L 929.592243 388.899556 
L 930.584949 390.760819 
L 931.577655 353.350494 
L 932.570361 350.69638 
L 933.563067 377.700428 
L 934.555773 385.906586 
L 936.541185 347.216669 
L 937.533891 356.345726 
L 938.526597 411.779695 
L 940.512009 353.556327 
L 941.504714 344.542361 
L 942.49742 363.403595 
L 943.490126 492.48 
L 944.482832 377.672383 
L 945.475538 350.783675 
L 946.468244 348.838749 
L 947.46095 374.305589 
L 948.453656 443.687925 
L 949.446362 382.691327 
L 950.439068 355.537478 
L 951.431774 359.203353 
L 952.42448 371.400071 
L 953.417186 387.213588 
L 954.409891 388.796124 
L 955.402597 362.535768 
L 956.395303 356.799066 
L 957.388009 352.526818 
L 958.380715 368.226836 
L 959.373421 397.570484 
L 960.366127 368.389162 
L 961.358833 351.112718 
L 962.351539 347.034653 
L 963.344245 369.831616 
L 964.336951 484.770947 
L 965.329657 389.013571 
L 966.322363 357.807543 
L 967.315068 356.613659 
L 968.307774 374.092967 
L 969.30048 380.218125 
L 970.293186 448.159626 
L 971.285892 380.07522 
L 972.278598 374.293606 
L 973.271304 364.901888 
L 974.26401 365.287922 
L 975.256716 404.442075 
L 976.249422 410.879915 
L 977.242128 381.501495 
L 978.234834 362.21794 
L 979.22754 366.614235 
L 980.220246 395.71551 
L 981.212951 408.480252 
L 982.205657 382.259601 
L 983.198363 369.617575 
L 984.191069 377.583523 
L 985.183775 400.90767 
L 986.176481 413.686351 
L 987.169187 399.622634 
L 988.161893 393.237929 
L 989.154599 392.774664 
L 990.147305 405.438564 
L 991.140011 429.716886 
L 992.132717 405.348994 
L 993.125423 376.65915 
L 994.118128 368.758627 
L 995.110834 375.247624 
L 996.10354 378.514935 
L 997.096246 366.709415 
L 998.088952 357.742182 
L 999.081658 358.860519 
L 1000.074364 363.288262 
L 1001.06707 358.192438 
L 1002.059776 351.615052 
L 1003.052482 354.160705 
L 1004.045188 363.5096 
L 1005.037894 363.952412 
L 1006.0306 354.335927 
L 1007.023305 351.347322 
L 1008.016011 360.921468 
L 1009.008717 372.66073 
L 1010.001423 378.291724 
L 1010.994129 370.755887 
L 1011.986835 369.418392 
L 1012.979541 380.587466 
L 1013.972247 385.354795 
L 1014.964953 435.001868 
L 1015.957659 391.700153 
L 1016.950365 383.90999 
L 1017.943071 405.932863 
L 1018.935777 419.858851 
L 1019.928482 399.148814 
L 1020.921188 367.302932 
L 1021.913894 363.145362 
L 1022.9066 363.684434 
L 1023.899306 360.592868 
L 1024.892012 363.619685 
L 1025.884718 362.10301 
L 1026.877424 354.320064 
L 1027.87013 343.483928 
L 1028.862836 339.146167 
L 1029.855542 346.075577 
L 1030.848248 356.648503 
L 1031.840954 353.564403 
L 1032.833659 341.994392 
L 1033.826365 338.373091 
L 1034.819071 345.977668 
L 1035.811777 358.626451 
L 1036.804483 373.107649 
L 1037.797189 365.505101 
L 1038.789895 360.864965 
L 1039.782601 371.277164 
L 1040.775307 379.179372 
L 1041.768013 397.363579 
L 1042.760719 369.653513 
L 1043.753425 371.52956 
L 1044.746131 429.519383 
L 1045.738837 379.118679 
L 1046.731542 356.266596 
L 1047.724248 345.681405 
L 1048.716954 355.969602 
L 1049.70966 389.613255 
L 1050.702366 375.250074 
L 1051.695072 354.319466 
L 1052.687778 350.897606 
L 1053.680484 373.721778 
L 1054.67319 452.444973 
L 1055.665896 400.956534 
L 1056.658602 375.868374 
L 1058.644014 399.132989 
L 1059.636719 385.02167 
L 1060.629425 435.480283 
L 1061.622131 393.891424 
L 1062.614837 371.297422 
L 1063.607543 356.85662 
L 1064.600249 367.641583 
L 1065.592955 385.625192 
L 1066.585661 363.848051 
L 1067.578367 348.620214 
L 1068.571073 347.693535 
L 1069.563779 369.472938 
L 1070.556485 380.183921 
L 1071.549191 359.930801 
L 1072.541896 348.90657 
L 1073.534602 356.619977 
L 1074.527308 401.825118 
L 1075.520014 410.859764 
L 1076.51272 386.980558 
L 1077.505426 375.597311 
L 1078.498132 401.824529 
L 1079.490838 393.952 
L 1080.483544 382.60065 
L 1081.47625 401.615104 
L 1082.468956 412.192187 
L 1083.461662 389.639494 
L 1084.454368 376.115522 
L 1085.447073 374.829125 
L 1086.439779 377.710106 
L 1087.432485 370.850398 
L 1088.425191 372.68758 
L 1090.410603 436.454319 
L 1091.403309 391.063434 
L 1092.396015 364.982482 
L 1093.388721 364.486816 
L 1094.381427 369.860978 
L 1096.366839 384.200005 
L 1097.359545 362.445993 
L 1098.35225 355.964557 
L 1099.344956 352.901179 
L 1100.337662 362.156173 
L 1101.330368 380.278133 
L 1103.31578 361.587314 
L 1104.308486 358.697329 
L 1105.301192 375.157002 
L 1106.293898 409.655286 
L 1107.286604 404.881832 
L 1108.27931 383.516267 
L 1109.272016 380.253977 
L 1110.264722 408.764969 
L 1111.257428 409.941365 
L 1112.250133 400.437829 
L 1113.242839 383.733469 
L 1114.235545 379.874834 
L 1115.228251 375.03147 
L 1116.220957 368.956226 
L 1117.213663 367.653978 
L 1118.206369 362.987178 
L 1119.199075 359.890169 
L 1120.191781 355.688648 
L 1121.184487 357.866702 
L 1122.177193 361.842496 
L 1123.169899 358.405441 
L 1124.162605 353.600143 
L 1125.15531 352.388006 
L 1126.148016 364.076664 
L 1127.140722 371.811436 
L 1128.133428 363.655452 
L 1129.126134 357.328001 
L 1130.11884 360.406513 
L 1131.111546 383.716271 
L 1132.104252 378.79449 
L 1133.096958 368.669954 
L 1134.089664 361.527654 
L 1135.08237 369.446857 
L 1136.075076 391.934833 
L 1137.067782 385.394481 
L 1138.060487 373.996861 
L 1139.053193 365.857573 
L 1140.045899 376.339374 
L 1141.038605 397.27788 
L 1142.031311 396.470344 
L 1143.024017 380.541254 
L 1144.016723 382.528789 
L 1145.009429 402.659578 
L 1146.002135 415.90164 
L 1146.994841 390.775386 
L 1147.987547 391.477728 
L 1148.980253 418.812428 
L 1149.972959 395.171283 
L 1150.965664 424.217383 
L 1151.95837 397.635177 
L 1152.951076 380.497804 
L 1153.943782 360.713989 
L 1154.936488 359.510587 
L 1155.929194 382.479517 
L 1156.9219 392.402138 
L 1157.914606 364.405532 
L 1158.907312 350.639113 
L 1159.900018 357.556026 
L 1160.892724 380.118773 
L 1161.88543 392.891714 
L 1162.878136 373.419706 
L 1163.870841 368.631819 
L 1164.863547 383.523288 
L 1165.856253 384.550883 
L 1166.848959 388.596574 
L 1167.841665 398.56322 
L 1168.834371 393.918319 
L 1169.827077 373.697399 
L 1170.819783 367.677965 
L 1171.812489 370.378489 
L 1172.805195 369.115522 
L 1173.797901 360.627727 
L 1174.790607 358.412121 
L 1175.783313 363.26355 
L 1176.776019 364.586149 
L 1177.768724 359.900292 
L 1178.76143 355.993903 
L 1180.746842 365.64256 
L 1181.739548 365.727347 
L 1182.732254 362.557227 
L 1183.72496 363.923073 
L 1184.717666 367.950765 
L 1185.710372 370.411438 
L 1187.695784 377.409673 
L 1188.68849 384.668759 
L 1189.681196 379.564865 
L 1190.673901 386.159158 
L 1191.666607 390.076544 
L 1192.659313 422.715315 
L 1193.652019 396.037657 
L 1194.644725 383.576898 
L 1195.637431 401.505723 
L 1196.630137 406.158325 
L 1197.622843 415.212242 
L 1198.615549 369.045186 
L 1199.608255 367.486684 
L 1200.600961 377.484082 
L 1201.593667 389.982632 
L 1203.579078 353.844895 
L 1204.571784 351.141066 
L 1205.56449 351.623667 
L 1206.557196 357.573311 
L 1207.549902 356.631876 
L 1208.542608 349.758022 
L 1209.535314 345.129659 
L 1210.52802 344.01873 
L 1211.520726 352.747521 
L 1212.513432 363.60593 
L 1213.506138 362.659993 
L 1214.498844 354.447548 
L 1215.49155 354.769542 
L 1216.484255 371.068732 
L 1217.476961 391.629384 
L 1218.469667 393.108945 
L 1219.462373 382.706485 
L 1220.455079 379.417191 
L 1222.440491 359.506005 
L 1223.433197 367.858041 
L 1224.425903 383.727544 
L 1225.418609 371.201447 
L 1226.411315 352.154558 
L 1227.404021 349.699576 
L 1228.396727 365.168925 
L 1229.389432 383.760979 
L 1230.382138 365.142969 
L 1231.374844 351.280707 
L 1232.36755 358.310289 
L 1233.360256 389.05031 
L 1234.352962 395.962072 
L 1235.345668 365.310898 
L 1236.338374 359.595539 
L 1237.33108 384.527989 
L 1238.323786 416.431871 
L 1239.316492 382.146 
L 1240.309198 366.245773 
L 1241.301904 377.024947 
L 1242.29461 409.67349 
L 1243.287315 384.056365 
L 1244.280021 376.083652 
L 1245.272727 377.443417 
L 1245.272727 377.443417 
" clip-path="url(#p48de1fa264)" style="fill: none; stroke: #1f77b4; stroke-width: 1.5; stroke-linecap: square"/>
   </g>
   <g id="patch_3">
    <path d="M 180 512.64 
L 180 69.12 
" style="fill: none; stroke: #000000; stroke-width: 0.8; stroke-linejoin: miter; stroke-linecap: square"/>
   </g>
   <g id="patch_4">
    <path d="M 1296 512.64 
L 1296 69.12 
" style="fill: none; stroke: #000000; stroke-width: 0.8; stroke-linejoin: miter; stroke-linecap: square"/>
   </g>
   <g id="patch_5">
    <path d="M 180 512.64 
L 1296 512.64 
" style="fill: none; stroke: #000000; stroke-width: 0.8; stroke-linejoin: miter; stroke-linecap: square"/>
   </g>
   <g id="patch_6">
    <path d="M 180 69.12 
L 1296 69.12 
" style="fill: none; stroke: #000000; stroke-width: 0.8; stroke-linejoin: miter; stroke-linecap: square"/>
   </g>
   <g id="text_13">
    <!-- source8-receiver5 -->
    <g transform="translate(557.625 60.80125) scale(0.4 -0.4)">
     <defs>
      <path id="DejaVuSans-73" d="M 2834 3397 
L 2834 2853 
Q 2591 2978 2328 3040 
Q 2066 3103 1784 3103 
Q 1356 3103 1142 2972 
Q 928 2841 928 2578 
Q 928 2378 1081 2264 
Q 1234 2150 1697 2047 
L 1894 2003 
Q 2506 1872 2764 1633 
Q 3022 1394 3022 966 
Q 3022 478 2636 193 
Q 2250 -91 1575 -91 
Q 1294 -91 989 -36 
Q 684 19 347 128 
L 347 722 
Q 666 556 975 473 
Q 1284 391 1588 391 
Q 1994 391 2212 530 
Q 2431 669 2431 922 
Q 2431 1156 2273 1281 
Q 2116 1406 1581 1522 
L 1381 1569 
Q 847 1681 609 1914 
Q 372 2147 372 2553 
Q 372 3047 722 3315 
Q 1072 3584 1716 3584 
Q 2034 3584 2315 3537 
Q 2597 3491 2834 3397 
z
" transform="scale(0.015625)"/>
      <path id="DejaVuSans-6f" d="M 1959 3097 
Q 1497 3097 1228 2736 
Q 959 2375 959 1747 
Q 959 1119 1226 758 
Q 1494 397 1959 397 
Q 2419 397 2687 759 
Q 2956 1122 2956 1747 
Q 2956 2369 2687 2733 
Q 2419 3097 1959 3097 
z
M 1959 3584 
Q 2709 3584 3137 3096 
Q 3566 2609 3566 1747 
Q 3566 888 3137 398 
Q 2709 -91 1959 -91 
Q 1206 -91 779 398 
Q 353 888 353 1747 
Q 353 2609 779 3096 
Q 1206 3584 1959 3584 
z
" transform="scale(0.015625)"/>
      <path id="DejaVuSans-75" d="M 544 1381 
L 544 3500 
L 1119 3500 
L 1119 1403 
Q 1119 906 1312 657 
Q 1506 409 1894 409 
Q 2359 409 2629 706 
Q 2900 1003 2900 1516 
L 2900 3500 
L 3475 3500 
L 3475 0 
L 2900 0 
L 2900 538 
Q 2691 219 2414 64 
Q 2138 -91 1772 -91 
Q 1169 -91 856 284 
Q 544 659 544 1381 
z
M 1991 3584 
L 1991 3584 
z
" transform="scale(0.015625)"/>
      <path id="DejaVuSans-72" d="M 2631 2963 
Q 2534 3019 2420 3045 
Q 2306 3072 2169 3072 
Q 1681 3072 1420 2755 
Q 1159 2438 1159 1844 
L 1159 0 
L 581 0 
L 581 3500 
L 1159 3500 
L 1159 2956 
Q 1341 3275 1631 3429 
Q 1922 3584 2338 3584 
Q 2397 3584 2469 3576 
Q 2541 3569 2628 3553 
L 2631 2963 
z
" transform="scale(0.015625)"/>
      <path id="DejaVuSans-63" d="M 3122 3366 
L 3122 2828 
Q 2878 2963 2633 3030 
Q 2388 3097 2138 3097 
Q 1578 3097 1268 2742 
Q 959 2388 959 1747 
Q 959 1106 1268 751 
Q 1578 397 2138 397 
Q 2388 397 2633 464 
Q 2878 531 3122 666 
L 3122 134 
Q 2881 22 2623 -34 
Q 2366 -91 2075 -91 
Q 1284 -91 818 406 
Q 353 903 353 1747 
Q 353 2603 823 3093 
Q 1294 3584 2113 3584 
Q 2378 3584 2631 3529 
Q 2884 3475 3122 3366 
z
" transform="scale(0.015625)"/>
      <path id="DejaVuSans-65" d="M 3597 1894 
L 3597 1613 
L 953 1613 
Q 991 1019 1311 708 
Q 1631 397 2203 397 
Q 2534 397 2845 478 
Q 3156 559 3463 722 
L 3463 178 
Q 3153 47 2828 -22 
Q 2503 -91 2169 -91 
Q 1331 -91 842 396 
Q 353 884 353 1716 
Q 353 2575 817 3079 
Q 1281 3584 2069 3584 
Q 2775 3584 3186 3129 
Q 3597 2675 3597 1894 
z
M 3022 2063 
Q 3016 2534 2758 2815 
Q 2500 3097 2075 3097 
Q 1594 3097 1305 2825 
Q 1016 2553 972 2059 
L 3022 2063 
z
" transform="scale(0.015625)"/>
      <path id="DejaVuSans-38" d="M 2034 2216 
Q 1584 2216 1326 1975 
Q 1069 1734 1069 1313 
Q 1069 891 1326 650 
Q 1584 409 2034 409 
Q 2484 409 2743 651 
Q 3003 894 3003 1313 
Q 3003 1734 2745 1975 
Q 2488 2216 2034 2216 
z
M 1403 2484 
Q 997 2584 770 2862 
Q 544 3141 544 3541 
Q 544 4100 942 4425 
Q 1341 4750 2034 4750 
Q 2731 4750 3128 4425 
Q 3525 4100 3525 3541 
Q 3525 3141 3298 2862 
Q 3072 2584 2669 2484 
Q 3125 2378 3379 2068 
Q 3634 1759 3634 1313 
Q 3634 634 3220 271 
Q 2806 -91 2034 -91 
Q 1263 -91 848 271 
Q 434 634 434 1313 
Q 434 1759 690 2068 
Q 947 2378 1403 2484 
z
M 1172 3481 
Q 1172 3119 1398 2916 
Q 1625 2713 2034 2713 
Q 2441 2713 2670 2916 
Q 2900 3119 2900 3481 
Q 2900 3844 2670 4047 
Q 2441 4250 2034 4250 
Q 1625 4250 1398 4047 
Q 1172 3844 1172 3481 
z
" transform="scale(0.015625)"/>
      <path id="DejaVuSans-2d" d="M 313 2009 
L 1997 2009 
L 1997 1497 
L 313 1497 
L 313 2009 
z
" transform="scale(0.015625)"/>
      <path id="DejaVuSans-69" d="M 603 3500 
L 1178 3500 
L 1178 0 
L 603 0 
L 603 3500 
z
M 603 4863 
L 1178 4863 
L 1178 4134 
L 603 4134 
L 603 4863 
z
" transform="scale(0.015625)"/>
      <path id="DejaVuSans-76" d="M 191 3500 
L 800 3500 
L 1894 563 
L 2988 3500 
L 3597 3500 
L 2284 0 
L 1503 0 
L 191 3500 
z
" transform="scale(0.015625)"/>
     </defs>
     <use xlink:href="#DejaVuSans-73"/>
     <use xlink:href="#DejaVuSans-6f" x="52.099609"/>
     <use xlink:href="#DejaVuSans-75" x="113.28125"/>
     <use xlink:href="#DejaVuSans-72" x="176.660156"/>
     <use xlink:href="#DejaVuSans-63" x="215.523438"/>
     <use xlink:href="#DejaVuSans-65" x="270.503906"/>
     <use xlink:href="#DejaVuSans-38" x="332.027344"/>
     <use xlink:href="#DejaVuSans-2d" x="395.650391"/>
     <use xlink:href="#DejaVuSans-72" x="431.734375"/>
     <use xlink:href="#DejaVuSans-65" x="470.597656"/>
     <use xlink:href="#DejaVuSans-63" x="532.121094"/>
     <use xlink:href="#DejaVuSans-65" x="587.101562"/>
     <use xlink:href="#DejaVuSans-69" x="648.625"/>
     <use xlink:href="#DejaVuSans-76" x="676.408203"/>
     <use xlink:href="#DejaVuSans-65" x="735.587891"/>
     <use xlink:href="#DejaVuSans-72" x="797.111328"/>
     <use xlink:href="#DejaVuSans-35" x="838.224609"/>
    </g>
   </g>
  </g>
 </g>
 <defs>
  <clipPath id="p48de1fa264">
   <rect x="180" y="69.12" width="1116" height="443.52"/>
  </clipPath>
 </defs>
</svg>
