<?xml version="1.0" encoding="utf-8" standalone="no"?>
<!DOCTYPE svg PUBLIC "-//W3C//DTD SVG 1.1//EN"
  "http://www.w3.org/Graphics/SVG/1.1/DTD/svg11.dtd">
<svg xmlns:xlink="http://www.w3.org/1999/xlink" width="1440pt" height="576pt" viewBox="0 0 1440 576" xmlns="http://www.w3.org/2000/svg" version="1.1">
 <metadata>
  <rdf:RDF xmlns:dc="http://purl.org/dc/elements/1.1/" xmlns:cc="http://creativecommons.org/ns#" xmlns:rdf="http://www.w3.org/1999/02/22-rdf-syntax-ns#">
   <cc:Work>
    <dc:type rdf:resource="http://purl.org/dc/dcmitype/StillImage"/>
    <dc:date>2024-05-22T04:49:53.437886</dc:date>
    <dc:format>image/svg+xml</dc:format>
    <dc:creator>
     <cc:Agent>
      <dc:title>Matplotlib v3.8.3, https://matplotlib.org/</dc:title>
     </cc:Agent>
    </dc:creator>
   </cc:Work>
  </rdf:RDF>
 </metadata>
 <defs>
  <style type="text/css">*{stroke-linejoin: round; stroke-linecap: butt}</style>
 </defs>
 <g id="figure_1">
  <g id="patch_1">
   <path d="M 0 576 
L 1440 576 
L 1440 0 
L 0 0 
z
" style="fill: #ffffff"/>
  </g>
  <g id="axes_1">
   <g id="patch_2">
    <path d="M 180 512.64 
L 1296 512.64 
L 1296 69.12 
L 180 69.12 
z
" style="fill: #ffffff"/>
   </g>
   <g id="matplotlib.axis_1">
    <g id="xtick_1">
     <g id="line2d_1">
      <defs>
       <path id="m932076aa11" d="M 0 0 
L 0 3.5 
" style="stroke: #000000; stroke-width: 0.8"/>
      </defs>
      <g>
       <use xlink:href="#m932076aa11" x="229.734567" y="512.64" style="stroke: #000000; stroke-width: 0.8"/>
      </g>
     </g>
     <g id="text_1">
      <!-- 0 -->
      <g transform="translate(226.553317 527.238438) scale(0.1 -0.1)">
       <defs>
        <path id="DejaVuSans-30" d="M 2034 4250 
Q 1547 4250 1301 3770 
Q 1056 3291 1056 2328 
Q 1056 1369 1301 889 
Q 1547 409 2034 409 
Q 2525 409 2770 889 
Q 3016 1369 3016 2328 
Q 3016 3291 2770 3770 
Q 2525 4250 2034 4250 
z
M 2034 4750 
Q 2819 4750 3233 4129 
Q 3647 3509 3647 2328 
Q 3647 1150 3233 529 
Q 2819 -91 2034 -91 
Q 1250 -91 836 529 
Q 422 1150 422 2328 
Q 422 3509 836 4129 
Q 1250 4750 2034 4750 
z
" transform="scale(0.015625)"/>
       </defs>
       <use xlink:href="#DejaVuSans-30"/>
      </g>
     </g>
    </g>
    <g id="xtick_2">
     <g id="line2d_2">
      <g>
       <use xlink:href="#m932076aa11" x="433.04074" y="512.64" style="stroke: #000000; stroke-width: 0.8"/>
      </g>
     </g>
     <g id="text_2">
      <!-- 500 -->
      <g transform="translate(423.49699 527.238438) scale(0.1 -0.1)">
       <defs>
        <path id="DejaVuSans-35" d="M 691 4666 
L 3169 4666 
L 3169 4134 
L 1269 4134 
L 1269 2991 
Q 1406 3038 1543 3061 
Q 1681 3084 1819 3084 
Q 2600 3084 3056 2656 
Q 3513 2228 3513 1497 
Q 3513 744 3044 326 
Q 2575 -91 1722 -91 
Q 1428 -91 1123 -41 
Q 819 9 494 109 
L 494 744 
Q 775 591 1075 516 
Q 1375 441 1709 441 
Q 2250 441 2565 725 
Q 2881 1009 2881 1497 
Q 2881 1984 2565 2268 
Q 2250 2553 1709 2553 
Q 1456 2553 1204 2497 
Q 953 2441 691 2322 
L 691 4666 
z
" transform="scale(0.015625)"/>
       </defs>
       <use xlink:href="#DejaVuSans-35"/>
       <use xlink:href="#DejaVuSans-30" x="63.623047"/>
       <use xlink:href="#DejaVuSans-30" x="127.246094"/>
      </g>
     </g>
    </g>
    <g id="xtick_3">
     <g id="line2d_3">
      <g>
       <use xlink:href="#m932076aa11" x="636.346913" y="512.64" style="stroke: #000000; stroke-width: 0.8"/>
      </g>
     </g>
     <g id="text_3">
      <!-- 1000 -->
      <g transform="translate(623.621913 527.238438) scale(0.1 -0.1)">
       <defs>
        <path id="DejaVuSans-31" d="M 794 531 
L 1825 531 
L 1825 4091 
L 703 3866 
L 703 4441 
L 1819 4666 
L 2450 4666 
L 2450 531 
L 3481 531 
L 3481 0 
L 794 0 
L 794 531 
z
" transform="scale(0.015625)"/>
       </defs>
       <use xlink:href="#DejaVuSans-31"/>
       <use xlink:href="#DejaVuSans-30" x="63.623047"/>
       <use xlink:href="#DejaVuSans-30" x="127.246094"/>
       <use xlink:href="#DejaVuSans-30" x="190.869141"/>
      </g>
     </g>
    </g>
    <g id="xtick_4">
     <g id="line2d_4">
      <g>
       <use xlink:href="#m932076aa11" x="839.653087" y="512.64" style="stroke: #000000; stroke-width: 0.8"/>
      </g>
     </g>
     <g id="text_4">
      <!-- 1500 -->
      <g transform="translate(826.928087 527.238438) scale(0.1 -0.1)">
       <use xlink:href="#DejaVuSans-31"/>
       <use xlink:href="#DejaVuSans-35" x="63.623047"/>
       <use xlink:href="#DejaVuSans-30" x="127.246094"/>
       <use xlink:href="#DejaVuSans-30" x="190.869141"/>
      </g>
     </g>
    </g>
    <g id="xtick_5">
     <g id="line2d_5">
      <g>
       <use xlink:href="#m932076aa11" x="1042.95926" y="512.64" style="stroke: #000000; stroke-width: 0.8"/>
      </g>
     </g>
     <g id="text_5">
      <!-- 2000 -->
      <g transform="translate(1030.23426 527.238438) scale(0.1 -0.1)">
       <defs>
        <path id="DejaVuSans-32" d="M 1228 531 
L 3431 531 
L 3431 0 
L 469 0 
L 469 531 
Q 828 903 1448 1529 
Q 2069 2156 2228 2338 
Q 2531 2678 2651 2914 
Q 2772 3150 2772 3378 
Q 2772 3750 2511 3984 
Q 2250 4219 1831 4219 
Q 1534 4219 1204 4116 
Q 875 4013 500 3803 
L 500 4441 
Q 881 4594 1212 4672 
Q 1544 4750 1819 4750 
Q 2544 4750 2975 4387 
Q 3406 4025 3406 3419 
Q 3406 3131 3298 2873 
Q 3191 2616 2906 2266 
Q 2828 2175 2409 1742 
Q 1991 1309 1228 531 
z
" transform="scale(0.015625)"/>
       </defs>
       <use xlink:href="#DejaVuSans-32"/>
       <use xlink:href="#DejaVuSans-30" x="63.623047"/>
       <use xlink:href="#DejaVuSans-30" x="127.246094"/>
       <use xlink:href="#DejaVuSans-30" x="190.869141"/>
      </g>
     </g>
    </g>
    <g id="xtick_6">
     <g id="line2d_6">
      <g>
       <use xlink:href="#m932076aa11" x="1246.265433" y="512.64" style="stroke: #000000; stroke-width: 0.8"/>
      </g>
     </g>
     <g id="text_6">
      <!-- 2500 -->
      <g transform="translate(1233.540433 527.238438) scale(0.1 -0.1)">
       <use xlink:href="#DejaVuSans-32"/>
       <use xlink:href="#DejaVuSans-35" x="63.623047"/>
       <use xlink:href="#DejaVuSans-30" x="127.246094"/>
       <use xlink:href="#DejaVuSans-30" x="190.869141"/>
      </g>
     </g>
    </g>
   </g>
   <g id="matplotlib.axis_2">
    <g id="ytick_1">
     <g id="line2d_7">
      <defs>
       <path id="mddfa2c4db8" d="M 0 0 
L -3.5 0 
" style="stroke: #000000; stroke-width: 0.8"/>
      </defs>
      <g>
       <use xlink:href="#mddfa2c4db8" x="180" y="464.906947" style="stroke: #000000; stroke-width: 0.8"/>
      </g>
     </g>
     <g id="text_7">
      <!-- −4 -->
      <g transform="translate(158.257812 468.706166) scale(0.1 -0.1)">
       <defs>
        <path id="DejaVuSans-2212" d="M 678 2272 
L 4684 2272 
L 4684 1741 
L 678 1741 
L 678 2272 
z
" transform="scale(0.015625)"/>
        <path id="DejaVuSans-34" d="M 2419 4116 
L 825 1625 
L 2419 1625 
L 2419 4116 
z
M 2253 4666 
L 3047 4666 
L 3047 1625 
L 3713 1625 
L 3713 1100 
L 3047 1100 
L 3047 0 
L 2419 0 
L 2419 1100 
L 313 1100 
L 313 1709 
L 2253 4666 
z
" transform="scale(0.015625)"/>
       </defs>
       <use xlink:href="#DejaVuSans-2212"/>
       <use xlink:href="#DejaVuSans-34" x="83.789062"/>
      </g>
     </g>
    </g>
    <g id="ytick_2">
     <g id="line2d_8">
      <g>
       <use xlink:href="#mddfa2c4db8" x="180" y="372.89437" style="stroke: #000000; stroke-width: 0.8"/>
      </g>
     </g>
     <g id="text_8">
      <!-- −2 -->
      <g transform="translate(158.257812 376.693589) scale(0.1 -0.1)">
       <use xlink:href="#DejaVuSans-2212"/>
       <use xlink:href="#DejaVuSans-32" x="83.789062"/>
      </g>
     </g>
    </g>
    <g id="ytick_3">
     <g id="line2d_9">
      <g>
       <use xlink:href="#mddfa2c4db8" x="180" y="280.881793" style="stroke: #000000; stroke-width: 0.8"/>
      </g>
     </g>
     <g id="text_9">
      <!-- 0 -->
      <g transform="translate(166.6375 284.681012) scale(0.1 -0.1)">
       <use xlink:href="#DejaVuSans-30"/>
      </g>
     </g>
    </g>
    <g id="ytick_4">
     <g id="line2d_10">
      <g>
       <use xlink:href="#mddfa2c4db8" x="180" y="188.869216" style="stroke: #000000; stroke-width: 0.8"/>
      </g>
     </g>
     <g id="text_10">
      <!-- 2 -->
      <g transform="translate(166.6375 192.668434) scale(0.1 -0.1)">
       <use xlink:href="#DejaVuSans-32"/>
      </g>
     </g>
    </g>
    <g id="ytick_5">
     <g id="line2d_11">
      <g>
       <use xlink:href="#mddfa2c4db8" x="180" y="96.856639" style="stroke: #000000; stroke-width: 0.8"/>
      </g>
     </g>
     <g id="text_11">
      <!-- 4 -->
      <g transform="translate(166.6375 100.655857) scale(0.1 -0.1)">
       <use xlink:href="#DejaVuSans-34"/>
      </g>
     </g>
    </g>
   </g>
   <g id="line2d_12">
    <path d="M 230.727273 210.832987 
L 231.719979 210.470778 
L 232.712685 209.885465 
L 234.698096 208.145568 
L 239.661626 203.387062 
L 241.647038 201.721429 
L 242.639744 201.001677 
L 243.63245 200.631161 
L 244.625156 200.938367 
L 246.610568 203.176292 
L 247.603273 199.493163 
L 248.595979 186.499609 
L 249.588685 169.656576 
L 250.581391 155.854838 
L 251.574097 146.831693 
L 252.566803 141.610537 
L 253.559509 138.777535 
L 254.552215 137.24495 
L 255.544921 136.41469 
L 256.537627 135.97296 
L 260.50845 134.940491 
L 261.501156 134.466353 
L 262.493862 133.844246 
L 263.486568 133.059288 
L 265.47198 131.061244 
L 270.43551 125.440488 
L 271.428216 124.57842 
L 272.420922 123.938844 
L 273.413627 123.548181 
L 274.406333 123.445656 
L 275.399039 123.697581 
L 276.391745 124.352725 
L 277.384451 125.515557 
L 278.377157 127.352262 
L 279.369863 129.468507 
L 280.362569 130.173986 
L 281.355275 128.092549 
L 282.347981 123.596452 
L 284.333393 111.922974 
L 286.318804 100.46191 
L 287.31151 95.812144 
L 288.304216 92.329976 
L 289.296922 90.1642 
L 290.289628 89.28 
L 291.282334 89.479834 
L 292.27504 90.533148 
L 293.267746 92.286066 
L 294.260452 94.618564 
L 296.245864 100.477978 
L 298.231276 107.403894 
L 300.216687 115.14477 
L 304.187511 132.013173 
L 306.172923 140.155542 
L 308.158335 147.064109 
L 309.151041 149.848828 
L 310.143747 152.14792 
L 311.136453 154.037946 
L 313.121864 157.072203 
L 315.107276 160.163331 
L 316.099982 162.075234 
L 317.092688 164.33587 
L 318.085394 167.009724 
L 319.0781 170.146812 
L 320.070806 173.799638 
L 322.056218 182.483073 
L 324.04163 191.854968 
L 325.034336 195.449235 
L 326.027041 197.22586 
L 327.019747 196.580217 
L 328.012453 193.79546 
L 329.997865 184.95722 
L 331.983277 176.120478 
L 332.975983 172.392276 
L 333.968689 169.190079 
L 334.961395 166.531509 
L 335.954101 164.382325 
L 336.946807 162.749329 
L 337.939513 161.561823 
L 338.932218 160.81548 
L 339.924924 160.48531 
L 340.91763 160.519246 
L 341.910336 160.887596 
L 342.903042 161.570286 
L 343.895748 162.497479 
L 345.88116 164.927936 
L 347.866572 167.599067 
L 349.851984 169.784571 
L 350.84469 170.544505 
L 351.837395 170.912854 
L 352.830101 170.840205 
L 353.822807 170.463351 
L 355.808219 168.986607 
L 358.786337 166.546287 
L 359.779043 165.937071 
L 360.771749 165.569027 
L 361.764455 165.50276 
L 362.757161 165.816927 
L 363.749867 166.480886 
L 364.742572 167.575067 
L 365.735278 169.086147 
L 366.727984 171.034007 
L 367.72069 173.469207 
L 368.713396 176.436276 
L 369.706102 179.991079 
L 370.698808 184.199114 
L 371.691514 189.13087 
L 372.68422 194.942849 
L 373.676926 201.638788 
L 374.669632 209.33803 
L 377.64775 234.366252 
L 378.640455 237.068004 
L 379.633161 233.689317 
L 383.603985 206.36323 
L 384.596691 201.418459 
L 385.589397 197.305808 
L 386.582103 193.98299 
L 387.574809 191.294952 
L 388.567515 189.206319 
L 389.560221 187.605882 
L 390.552927 186.464458 
L 391.545632 185.725217 
L 392.538338 185.306012 
L 393.531044 185.190807 
L 394.52375 185.280539 
L 395.516456 185.579068 
L 396.509162 186.008719 
L 400.479986 188.343815 
L 402.465398 189.400403 
L 404.450809 190.239816 
L 408.421633 191.775951 
L 410.407045 192.923006 
L 412.392457 194.715851 
L 413.385163 195.921965 
L 414.377869 197.344064 
L 416.363281 200.863435 
L 417.355986 202.985694 
L 419.341398 208.042098 
L 421.32681 214.073907 
L 423.312222 221.014951 
L 428.275752 239.411306 
L 429.268458 242.510708 
L 430.261163 244.918864 
L 431.253869 246.645416 
L 432.246575 247.634527 
L 433.239281 247.7336 
L 434.231987 247.055335 
L 435.224693 245.586875 
L 436.217399 243.659628 
L 438.202811 238.434056 
L 444.159046 220.70368 
L 446.144458 215.869793 
L 447.137164 213.700513 
L 449.122576 210.242743 
L 450.115282 208.849008 
L 451.107988 207.738053 
L 452.100694 206.854887 
L 453.0934 206.232646 
L 454.086106 205.887686 
L 455.078812 205.777407 
L 456.071518 205.967979 
L 457.064223 206.357879 
L 458.056929 207.010045 
L 459.049635 207.954252 
L 460.042341 209.14575 
L 461.035047 210.565941 
L 462.027753 212.244546 
L 463.020459 214.176393 
L 465.005871 218.87684 
L 466.991283 224.728733 
L 468.976695 231.824496 
L 470.962106 240.648266 
L 471.954812 245.923718 
L 472.947518 251.851007 
L 473.940224 258.743718 
L 474.93293 266.54873 
L 475.925636 275.772727 
L 476.918342 287.126752 
L 478.903754 312.521481 
L 479.89646 315.360386 
L 480.889166 304.661139 
L 482.874577 279.234308 
L 483.867283 269.387034 
L 484.859989 261.049269 
L 485.852695 254.074442 
L 486.845401 248.140707 
L 488.830813 238.873559 
L 489.823519 235.271269 
L 490.816225 232.233562 
L 491.808931 229.677385 
L 492.801637 227.63765 
L 493.794343 225.982111 
L 494.787049 224.743931 
L 495.779754 223.905557 
L 496.77246 223.506813 
L 497.765166 223.534762 
L 498.757872 223.851341 
L 499.750578 224.563078 
L 500.743284 225.726231 
L 501.73599 227.219633 
L 502.728696 229.090164 
L 503.721402 231.474177 
L 504.714108 234.258852 
L 505.706814 237.382318 
L 507.692226 245.138666 
L 508.684932 249.529692 
L 512.655755 268.742779 
L 513.648461 272.145946 
L 514.641167 274.162493 
L 515.633873 274.570179 
L 516.626579 273.385408 
L 517.619285 271.249977 
L 519.604697 265.71673 
L 521.590109 260.753432 
L 522.582814 258.82104 
L 523.57552 257.154178 
L 524.568226 255.760527 
L 526.553638 253.752218 
L 529.531756 252.087346 
L 531.517168 251.363649 
L 533.50258 250.912373 
L 534.495286 250.772734 
L 535.487991 250.749585 
L 536.480697 250.888272 
L 537.473403 251.275158 
L 538.466109 251.954213 
L 539.458815 252.871832 
L 540.451521 254.194982 
L 541.444227 255.935951 
L 542.436933 258.255135 
L 543.429639 261.119533 
L 544.422345 264.965389 
L 545.415051 269.822582 
L 546.407757 275.659562 
L 547.400463 283.398829 
L 548.393168 292.574558 
L 550.37858 318.024784 
L 551.371286 326.045737 
L 552.363992 317.814076 
L 554.349404 288.873287 
L 555.34211 277.690421 
L 556.334816 268.41848 
L 557.327522 260.782319 
L 558.320228 254.427719 
L 559.312934 249.081414 
L 560.30564 244.521456 
L 561.298345 240.720344 
L 563.283757 234.841481 
L 564.276463 232.737585 
L 565.269169 231.050283 
L 566.261875 229.831341 
L 567.254581 229.029119 
L 568.247287 228.641828 
L 569.239993 228.546144 
L 570.232699 228.910191 
L 571.225405 229.581214 
L 572.218111 230.636227 
L 573.210817 232.011511 
L 574.203523 233.825468 
L 575.196228 236.006924 
L 576.188934 238.549017 
L 577.18164 241.522765 
L 578.174346 244.902934 
L 579.167052 248.679111 
L 581.152464 257.699575 
L 583.137876 268.959916 
L 584.130582 275.461711 
L 586.115994 291.077195 
L 588.101405 310.507758 
L 590.086817 334.600214 
L 591.079523 347.015276 
L 592.072229 354.422816 
L 593.064935 354.297421 
L 594.057641 346.986807 
L 596.043053 329.544298 
L 598.028465 315.405235 
L 599.021171 308.861675 
L 601.999288 292.348594 
L 603.9847 283.060477 
L 605.970112 275.672673 
L 606.962818 272.271182 
L 608.94823 267.195625 
L 609.940936 265.176512 
L 610.933642 263.434176 
L 611.926348 262.087435 
L 612.919054 261.237399 
L 613.911759 260.652934 
L 614.904465 260.310967 
L 615.897171 260.402815 
L 616.889877 260.99787 
L 617.882583 261.764078 
L 618.875289 263.000326 
L 619.867995 264.529171 
L 620.860701 266.434201 
L 621.853407 268.67815 
L 622.846113 271.478574 
L 623.838819 274.634955 
L 624.831525 278.174609 
L 626.816936 286.858709 
L 628.802348 297.660031 
L 629.795054 303.914135 
L 631.780466 319.163812 
L 632.773172 328.065225 
L 633.765878 338.435479 
L 634.758584 350.210625 
L 637.736702 390.434491 
L 638.729408 396.641356 
L 639.722114 391.54329 
L 640.714819 381.868453 
L 642.700231 366.110303 
L 645.678349 347.620297 
L 647.663761 338.032248 
L 648.656467 333.976912 
L 649.649173 329.352678 
L 652.627291 318.955484 
L 653.619996 316.42122 
L 654.612702 314.23319 
L 656.598114 310.901742 
L 657.59082 309.952467 
L 658.583526 309.335413 
L 659.576232 309.170249 
L 660.568938 309.526848 
L 661.561644 310.044917 
L 663.547056 312.447068 
L 664.539762 314.257321 
L 668.510585 323.476794 
L 669.503291 326.236829 
L 670.495997 328.207749 
L 671.488703 329.642296 
L 672.481409 330.393125 
L 673.474115 330.38374 
L 674.466821 329.785851 
L 676.452233 327.294161 
L 677.444939 325.379435 
L 678.437645 323.742592 
L 680.423056 321.215502 
L 681.415762 320.226069 
L 682.408468 319.816336 
L 683.401174 319.595565 
L 684.39388 319.758174 
L 685.386586 320.405044 
L 686.379292 321.574937 
L 687.371998 323.091088 
L 688.364704 325.192172 
L 689.35741 327.635785 
L 690.350116 330.861365 
L 692.335527 338.852418 
L 693.328233 343.982561 
L 695.313645 356.169988 
L 698.291763 379.657698 
L 699.284469 386.339667 
L 700.277175 387.180493 
L 701.269881 385.082247 
L 702.262587 379.931549 
L 703.255293 373.401891 
L 705.240705 362.737793 
L 707.226116 355.368105 
L 709.211528 351.209621 
L 710.204234 349.882026 
L 711.19694 349.272272 
L 712.189646 349.032686 
L 714.175058 350.67537 
L 716.16047 354.918462 
L 718.145882 361.766694 
L 719.138587 366.20199 
L 722.116705 383.248787 
L 723.109411 387.565126 
L 724.102117 387.892474 
L 725.094823 385.104201 
L 727.080235 371.462971 
L 728.072941 363.690027 
L 730.058353 351.262357 
L 731.051059 346.094531 
L 733.03647 337.707664 
L 735.021882 331.674292 
L 736.014588 329.563197 
L 737.007294 328.045066 
L 738 326.836332 
L 738.992706 326.216789 
L 739.985412 326.147868 
L 740.978118 326.380247 
L 741.970824 327.04532 
L 742.96353 328.580202 
L 743.956236 330.446998 
L 744.948941 333.157872 
L 745.941647 336.547891 
L 746.934353 340.364056 
L 747.927059 345.178193 
L 748.919765 351.002528 
L 750.905177 365.403773 
L 752.890589 381.501429 
L 753.883295 385.188223 
L 754.876001 382.477391 
L 756.861413 366.877922 
L 757.854118 358.724643 
L 758.846824 352.044903 
L 759.83953 346.504312 
L 760.832236 341.765099 
L 761.824942 337.824809 
L 762.817648 334.565986 
L 763.810354 332.264386 
L 764.80306 330.431321 
L 765.795766 329.417749 
L 766.788472 328.905443 
L 767.781178 328.785677 
L 768.773884 329.024491 
L 769.76659 330.014904 
L 770.759295 331.453863 
L 771.752001 333.17494 
L 773.737413 338.500193 
L 775.722825 345.311339 
L 777.708237 352.710346 
L 779.693649 358.267116 
L 780.686355 360.007652 
L 781.679061 360.601115 
L 782.671767 359.381642 
L 783.664473 357.971745 
L 784.657178 356.096048 
L 786.64259 351.725553 
L 787.635296 350.419245 
L 788.628002 349.303907 
L 789.620708 348.632143 
L 790.613414 348.560629 
L 792.598826 350.416521 
L 793.591532 351.877641 
L 794.584238 354.203763 
L 796.56965 361.046874 
L 799.547767 372.105301 
L 800.540473 373.879119 
L 801.533179 373.596623 
L 802.525885 371.356437 
L 804.511297 361.801569 
L 805.504003 356.426826 
L 807.489415 347.397338 
L 809.474827 340.238804 
L 810.467532 337.353067 
L 811.460238 335.218959 
L 813.44565 332.279786 
L 814.438356 331.754164 
L 815.431062 331.550557 
L 816.423768 332.063495 
L 817.416474 332.929855 
L 818.40918 334.422904 
L 819.401886 336.31012 
L 820.394592 338.803525 
L 821.387298 341.978366 
L 822.380004 345.970694 
L 823.372709 350.550477 
L 824.365415 355.698218 
L 826.350827 368.634179 
L 827.343533 375.486681 
L 828.336239 380.497473 
L 829.328945 383.591175 
L 830.321651 382.079517 
L 831.314357 377.898194 
L 834.292475 359.741909 
L 835.285181 354.488729 
L 836.277886 350.12431 
L 837.270592 346.617141 
L 838.263298 343.819711 
L 839.256004 341.65208 
L 840.24871 340.050331 
L 841.241416 338.983624 
L 842.234122 338.373633 
L 843.226828 338.178482 
L 844.219534 338.371432 
L 845.21224 338.81558 
L 846.204946 339.941523 
L 847.197652 341.518493 
L 848.190358 343.525704 
L 849.183064 345.938307 
L 851.168475 352.260488 
L 852.161181 355.867855 
L 855.139299 368.871116 
L 856.132005 373.621324 
L 858.117417 380.667996 
L 859.110123 382.761123 
L 860.102829 383.803023 
L 861.095535 382.774743 
L 863.080946 379.344157 
L 864.073652 376.628139 
L 867.05177 370.040245 
L 868.044476 368.579343 
L 869.037182 366.807205 
L 872.0153 362.716818 
L 873.008006 361.82186 
L 875.986123 358.03317 
L 876.978829 356.793135 
L 877.971535 356.034642 
L 879.956947 353.920001 
L 880.949653 353.065423 
L 881.942359 352.780626 
L 882.935065 352.086564 
L 883.927771 351.768547 
L 884.920477 351.778451 
L 885.913183 352.37694 
L 886.905889 353.418334 
L 887.898595 354.728224 
L 889.884006 358.079009 
L 890.876712 361.13205 
L 891.869418 364.926676 
L 892.862124 369.30384 
L 893.85483 374.990414 
L 894.847536 381.410433 
L 895.840242 389.631838 
L 896.832948 399.965032 
L 898.81836 425.21554 
L 899.811066 426.506372 
L 902.789183 388.996684 
L 903.781889 379.379907 
L 904.774595 371.825074 
L 905.767301 365.172211 
L 906.760007 359.803839 
L 907.752713 355.133565 
L 908.745419 351.441188 
L 909.738125 348.371813 
L 910.730831 345.806071 
L 911.723537 343.718425 
L 912.716243 342.386144 
L 913.708949 341.591078 
L 914.701655 341.095839 
L 916.687066 341.996823 
L 917.679772 343.209118 
L 918.672478 344.872189 
L 919.665184 347.212524 
L 920.65789 350.073146 
L 921.650596 353.644226 
L 922.643302 358.074334 
L 923.636008 363.76763 
L 924.628714 370.668782 
L 925.62142 379.306878 
L 926.614126 390.156858 
L 927.606832 404.709332 
L 928.599537 427.777018 
L 929.592243 478.379118 
L 930.584949 479.741745 
L 931.577655 430.14738 
L 932.570361 407.723623 
L 933.563067 392.10538 
L 934.555773 382.393104 
L 935.548479 374.367123 
L 936.541185 367.751385 
L 938.526597 358.700793 
L 939.519303 355.803288 
L 940.512009 353.495054 
L 941.504714 351.492939 
L 942.49742 350.569381 
L 943.490126 350.047211 
L 944.482832 350.004986 
L 945.475538 350.590585 
L 946.468244 351.76613 
L 947.46095 353.360429 
L 948.453656 355.364148 
L 949.446362 358.168183 
L 950.439068 361.394582 
L 952.42448 370.307064 
L 953.417186 375.58982 
L 955.402597 390.539194 
L 956.395303 399.740708 
L 958.380715 422.621681 
L 959.373421 430.0721 
L 960.366127 428.008789 
L 961.358833 420.833363 
L 963.344245 403.27103 
L 964.336951 396.163198 
L 965.329657 389.97509 
L 966.322363 385.232965 
L 967.315068 381.636453 
L 968.307774 378.78905 
L 970.293186 375.113669 
L 971.285892 373.901009 
L 972.278598 373.733639 
L 973.271304 372.939707 
L 975.256716 373.339731 
L 976.249422 373.941384 
L 978.234834 375.776659 
L 979.22754 376.608076 
L 982.205657 378.464669 
L 983.198363 379.321332 
L 984.191069 379.734222 
L 985.183775 379.67614 
L 986.176481 379.993293 
L 987.169187 380.601148 
L 988.161893 380.834358 
L 989.154599 381.450949 
L 991.140011 384.255987 
L 992.132717 385.671906 
L 994.118128 390.326318 
L 997.096246 401.243002 
L 999.081658 411.75604 
L 1000.074364 418.708086 
L 1001.06707 423.696502 
L 1002.059776 425.754711 
L 1003.052482 424.741828 
L 1004.045188 419.879497 
L 1005.037894 413.882593 
L 1006.0306 406.432472 
L 1007.023305 400.031773 
L 1009.008717 389.454956 
L 1010.994129 382.03038 
L 1011.986835 378.742044 
L 1012.979541 376.3596 
L 1013.972247 374.42887 
L 1015.957659 372.134168 
L 1016.950365 371.694209 
L 1017.943071 371.66421 
L 1018.935777 372.426347 
L 1020.921188 374.880859 
L 1021.913894 376.910093 
L 1022.9066 379.573788 
L 1023.899306 382.837482 
L 1025.884718 391.683139 
L 1026.877424 397.816864 
L 1027.87013 405.357462 
L 1028.862836 414.603275 
L 1029.855542 425.382264 
L 1030.848248 439.346896 
L 1031.840954 455.585152 
L 1032.833659 465.973274 
L 1033.826365 458.715162 
L 1035.811777 431.334651 
L 1036.804483 419.965407 
L 1038.789895 405.570573 
L 1039.782601 400.22761 
L 1040.775307 395.793225 
L 1041.768013 392.832135 
L 1042.760719 390.286655 
L 1044.746131 386.832418 
L 1045.738837 386.280383 
L 1046.731542 385.396865 
L 1047.724248 385.526256 
L 1050.702366 387.297085 
L 1052.687778 389.918286 
L 1055.665896 396.311051 
L 1056.658602 397.714943 
L 1057.651308 401.279965 
L 1058.644014 402.949024 
L 1059.636719 405.831997 
L 1060.629425 409.337987 
L 1061.622131 412.264467 
L 1063.607543 416.964536 
L 1064.600249 419.990967 
L 1065.592955 423.66802 
L 1066.585661 429.691429 
L 1067.578367 432.851199 
L 1068.571073 438.877745 
L 1070.556485 446.553747 
L 1072.541896 449.262088 
L 1073.534602 445.074424 
L 1074.527308 439.316983 
L 1077.505426 418.202903 
L 1078.498132 412.091678 
L 1080.483544 402.972054 
L 1081.47625 399.460843 
L 1082.468956 395.139448 
L 1084.454368 389.707281 
L 1085.447073 387.352102 
L 1086.439779 385.650587 
L 1087.432485 384.513743 
L 1088.425191 384.139648 
L 1089.417897 383.329308 
L 1090.410603 384.027155 
L 1091.403309 384.9785 
L 1092.396015 385.727952 
L 1093.388721 387.448978 
L 1094.381427 390.221767 
L 1095.374133 392.611813 
L 1096.366839 395.638131 
L 1098.35225 405.070261 
L 1099.344956 410.849094 
L 1101.330368 426.371614 
L 1103.31578 442.697002 
L 1104.308486 445.467235 
L 1105.301192 441.176896 
L 1106.293898 433.706728 
L 1107.286604 423.532801 
L 1109.272016 408.750026 
L 1111.257428 397.561865 
L 1112.250133 393.578601 
L 1113.242839 390.094561 
L 1114.235545 387.149103 
L 1116.220957 383.192204 
L 1118.206369 381.436617 
L 1119.199075 381.17625 
L 1120.191781 381.145374 
L 1121.184487 381.935802 
L 1122.177193 383.129308 
L 1123.169899 384.694483 
L 1124.162605 386.622733 
L 1125.15531 388.803532 
L 1126.148016 391.790515 
L 1127.140722 395.376816 
L 1128.133428 399.838772 
L 1129.126134 403.587756 
L 1131.111546 414.841941 
L 1133.096958 429.762229 
L 1134.089664 435.774183 
L 1135.08237 439.301883 
L 1136.075076 441.983536 
L 1137.067782 440.283209 
L 1138.060487 434.296646 
L 1139.053193 429.328295 
L 1140.045899 423.405678 
L 1142.031311 414.137252 
L 1143.024017 410.572098 
L 1144.016723 406.353155 
L 1145.009429 403.935667 
L 1146.002135 401.931259 
L 1146.994841 400.616605 
L 1147.987547 399.541447 
L 1149.972959 398.258925 
L 1150.965664 398.387087 
L 1151.95837 398.77176 
L 1152.951076 399.514489 
L 1153.943782 400.864652 
L 1155.929194 402.718592 
L 1156.9219 405.17268 
L 1157.914606 408.006498 
L 1158.907312 410.254473 
L 1159.900018 413.961087 
L 1160.892724 416.669419 
L 1161.88543 420.354134 
L 1163.870841 428.914708 
L 1166.848959 446.406926 
L 1167.841665 453.967832 
L 1168.834371 463.091315 
L 1169.827077 467.427199 
L 1170.819783 470.68358 
L 1171.812489 468.751311 
L 1174.790607 450.566344 
L 1175.783313 443.074905 
L 1177.768724 432.536135 
L 1179.754136 423.060441 
L 1182.732254 414.000076 
L 1183.72496 413.186999 
L 1184.717666 410.708378 
L 1185.710372 409.546165 
L 1186.703078 407.911586 
L 1187.695784 408.21985 
L 1188.68849 407.794466 
L 1189.681196 407.215957 
L 1190.673901 407.943083 
L 1191.666607 408.109512 
L 1192.659313 409.096979 
L 1194.644725 412.052337 
L 1195.637431 413.265324 
L 1196.630137 415.099053 
L 1197.622843 418.21359 
L 1198.615549 420.379168 
L 1199.608255 423.052584 
L 1200.600961 426.423557 
L 1201.593667 431.794333 
L 1202.586373 434.210908 
L 1203.579078 435.908362 
L 1204.571784 438.29365 
L 1205.56449 439.869817 
L 1206.557196 440.261179 
L 1208.542608 438.197284 
L 1210.52802 433.09679 
L 1211.520726 431.500294 
L 1212.513432 428.511813 
L 1213.506138 426.497645 
L 1214.498844 424.744238 
L 1215.49155 423.807721 
L 1216.484255 422.326209 
L 1217.476961 420.17301 
L 1218.469667 419.747463 
L 1219.462373 419.078287 
L 1220.455079 419.464593 
L 1221.447785 420.137037 
L 1222.440491 419.982299 
L 1223.433197 421.397069 
L 1224.425903 422.543447 
L 1225.418609 422.721647 
L 1226.411315 424.727485 
L 1227.404021 425.955729 
L 1229.389432 430.953351 
L 1230.382138 432.799104 
L 1231.374844 436.169868 
L 1232.36755 438.862196 
L 1233.360256 444.0458 
L 1234.352962 446.513761 
L 1235.345668 451.655826 
L 1236.338374 454.70218 
L 1237.33108 458.50134 
L 1239.316492 468.519562 
L 1240.309198 476.086151 
L 1241.301904 475.818486 
L 1242.29461 481.976598 
L 1243.287315 485.09471 
L 1244.280021 487.540646 
L 1245.272727 492.48 
L 1245.272727 492.48 
" clip-path="url(#p6587bcf92a)" style="fill: none; stroke: #1f77b4; stroke-width: 1.5; stroke-linecap: square"/>
   </g>
   <g id="patch_3">
    <path d="M 180 512.64 
L 180 69.12 
" style="fill: none; stroke: #000000; stroke-width: 0.8; stroke-linejoin: miter; stroke-linecap: square"/>
   </g>
   <g id="patch_4">
    <path d="M 1296 512.64 
L 1296 69.12 
" style="fill: none; stroke: #000000; stroke-width: 0.8; stroke-linejoin: miter; stroke-linecap: square"/>
   </g>
   <g id="patch_5">
    <path d="M 180 512.64 
L 1296 512.64 
" style="fill: none; stroke: #000000; stroke-width: 0.8; stroke-linejoin: miter; stroke-linecap: square"/>
   </g>
   <g id="patch_6">
    <path d="M 180 69.12 
L 1296 69.12 
" style="fill: none; stroke: #000000; stroke-width: 0.8; stroke-linejoin: miter; stroke-linecap: square"/>
   </g>
   <g id="text_12">
    <!-- source8-receiver8 -->
    <g transform="translate(557.625 60.80125) scale(0.4 -0.4)">
     <defs>
      <path id="DejaVuSans-73" d="M 2834 3397 
L 2834 2853 
Q 2591 2978 2328 3040 
Q 2066 3103 1784 3103 
Q 1356 3103 1142 2972 
Q 928 2841 928 2578 
Q 928 2378 1081 2264 
Q 1234 2150 1697 2047 
L 1894 2003 
Q 2506 1872 2764 1633 
Q 3022 1394 3022 966 
Q 3022 478 2636 193 
Q 2250 -91 1575 -91 
Q 1294 -91 989 -36 
Q 684 19 347 128 
L 347 722 
Q 666 556 975 473 
Q 1284 391 1588 391 
Q 1994 391 2212 530 
Q 2431 669 2431 922 
Q 2431 1156 2273 1281 
Q 2116 1406 1581 1522 
L 1381 1569 
Q 847 1681 609 1914 
Q 372 2147 372 2553 
Q 372 3047 722 3315 
Q 1072 3584 1716 3584 
Q 2034 3584 2315 3537 
Q 2597 3491 2834 3397 
z
" transform="scale(0.015625)"/>
      <path id="DejaVuSans-6f" d="M 1959 3097 
Q 1497 3097 1228 2736 
Q 959 2375 959 1747 
Q 959 1119 1226 758 
Q 1494 397 1959 397 
Q 2419 397 2687 759 
Q 2956 1122 2956 1747 
Q 2956 2369 2687 2733 
Q 2419 3097 1959 3097 
z
M 1959 3584 
Q 2709 3584 3137 3096 
Q 3566 2609 3566 1747 
Q 3566 888 3137 398 
Q 2709 -91 1959 -91 
Q 1206 -91 779 398 
Q 353 888 353 1747 
Q 353 2609 779 3096 
Q 1206 3584 1959 3584 
z
" transform="scale(0.015625)"/>
      <path id="DejaVuSans-75" d="M 544 1381 
L 544 3500 
L 1119 3500 
L 1119 1403 
Q 1119 906 1312 657 
Q 1506 409 1894 409 
Q 2359 409 2629 706 
Q 2900 1003 2900 1516 
L 2900 3500 
L 3475 3500 
L 3475 0 
L 2900 0 
L 2900 538 
Q 2691 219 2414 64 
Q 2138 -91 1772 -91 
Q 1169 -91 856 284 
Q 544 659 544 1381 
z
M 1991 3584 
L 1991 3584 
z
" transform="scale(0.015625)"/>
      <path id="DejaVuSans-72" d="M 2631 2963 
Q 2534 3019 2420 3045 
Q 2306 3072 2169 3072 
Q 1681 3072 1420 2755 
Q 1159 2438 1159 1844 
L 1159 0 
L 581 0 
L 581 3500 
L 1159 3500 
L 1159 2956 
Q 1341 3275 1631 3429 
Q 1922 3584 2338 3584 
Q 2397 3584 2469 3576 
Q 2541 3569 2628 3553 
L 2631 2963 
z
" transform="scale(0.015625)"/>
      <path id="DejaVuSans-63" d="M 3122 3366 
L 3122 2828 
Q 2878 2963 2633 3030 
Q 2388 3097 2138 3097 
Q 1578 3097 1268 2742 
Q 959 2388 959 1747 
Q 959 1106 1268 751 
Q 1578 397 2138 397 
Q 2388 397 2633 464 
Q 2878 531 3122 666 
L 3122 134 
Q 2881 22 2623 -34 
Q 2366 -91 2075 -91 
Q 1284 -91 818 406 
Q 353 903 353 1747 
Q 353 2603 823 3093 
Q 1294 3584 2113 3584 
Q 2378 3584 2631 3529 
Q 2884 3475 3122 3366 
z
" transform="scale(0.015625)"/>
      <path id="DejaVuSans-65" d="M 3597 1894 
L 3597 1613 
L 953 1613 
Q 991 1019 1311 708 
Q 1631 397 2203 397 
Q 2534 397 2845 478 
Q 3156 559 3463 722 
L 3463 178 
Q 3153 47 2828 -22 
Q 2503 -91 2169 -91 
Q 1331 -91 842 396 
Q 353 884 353 1716 
Q 353 2575 817 3079 
Q 1281 3584 2069 3584 
Q 2775 3584 3186 3129 
Q 3597 2675 3597 1894 
z
M 3022 2063 
Q 3016 2534 2758 2815 
Q 2500 3097 2075 3097 
Q 1594 3097 1305 2825 
Q 1016 2553 972 2059 
L 3022 2063 
z
" transform="scale(0.015625)"/>
      <path id="DejaVuSans-38" d="M 2034 2216 
Q 1584 2216 1326 1975 
Q 1069 1734 1069 1313 
Q 1069 891 1326 650 
Q 1584 409 2034 409 
Q 2484 409 2743 651 
Q 3003 894 3003 1313 
Q 3003 1734 2745 1975 
Q 2488 2216 2034 2216 
z
M 1403 2484 
Q 997 2584 770 2862 
Q 544 3141 544 3541 
Q 544 4100 942 4425 
Q 1341 4750 2034 4750 
Q 2731 4750 3128 4425 
Q 3525 4100 3525 3541 
Q 3525 3141 3298 2862 
Q 3072 2584 2669 2484 
Q 3125 2378 3379 2068 
Q 3634 1759 3634 1313 
Q 3634 634 3220 271 
Q 2806 -91 2034 -91 
Q 1263 -91 848 271 
Q 434 634 434 1313 
Q 434 1759 690 2068 
Q 947 2378 1403 2484 
z
M 1172 3481 
Q 1172 3119 1398 2916 
Q 1625 2713 2034 2713 
Q 2441 2713 2670 2916 
Q 2900 3119 2900 3481 
Q 2900 3844 2670 4047 
Q 2441 4250 2034 4250 
Q 1625 4250 1398 4047 
Q 1172 3844 1172 3481 
z
" transform="scale(0.015625)"/>
      <path id="DejaVuSans-2d" d="M 313 2009 
L 1997 2009 
L 1997 1497 
L 313 1497 
L 313 2009 
z
" transform="scale(0.015625)"/>
      <path id="DejaVuSans-69" d="M 603 3500 
L 1178 3500 
L 1178 0 
L 603 0 
L 603 3500 
z
M 603 4863 
L 1178 4863 
L 1178 4134 
L 603 4134 
L 603 4863 
z
" transform="scale(0.015625)"/>
      <path id="DejaVuSans-76" d="M 191 3500 
L 800 3500 
L 1894 563 
L 2988 3500 
L 3597 3500 
L 2284 0 
L 1503 0 
L 191 3500 
z
" transform="scale(0.015625)"/>
     </defs>
     <use xlink:href="#DejaVuSans-73"/>
     <use xlink:href="#DejaVuSans-6f" x="52.099609"/>
     <use xlink:href="#DejaVuSans-75" x="113.28125"/>
     <use xlink:href="#DejaVuSans-72" x="176.660156"/>
     <use xlink:href="#DejaVuSans-63" x="215.523438"/>
     <use xlink:href="#DejaVuSans-65" x="270.503906"/>
     <use xlink:href="#DejaVuSans-38" x="332.027344"/>
     <use xlink:href="#DejaVuSans-2d" x="395.650391"/>
     <use xlink:href="#DejaVuSans-72" x="431.734375"/>
     <use xlink:href="#DejaVuSans-65" x="470.597656"/>
     <use xlink:href="#DejaVuSans-63" x="532.121094"/>
     <use xlink:href="#DejaVuSans-65" x="587.101562"/>
     <use xlink:href="#DejaVuSans-69" x="648.625"/>
     <use xlink:href="#DejaVuSans-76" x="676.408203"/>
     <use xlink:href="#DejaVuSans-65" x="735.587891"/>
     <use xlink:href="#DejaVuSans-72" x="797.111328"/>
     <use xlink:href="#DejaVuSans-38" x="838.224609"/>
    </g>
   </g>
  </g>
 </g>
 <defs>
  <clipPath id="p6587bcf92a">
   <rect x="180" y="69.12" width="1116" height="443.52"/>
  </clipPath>
 </defs>
</svg>
