<?xml version="1.0" encoding="utf-8" standalone="no"?>
<!DOCTYPE svg PUBLIC "-//W3C//DTD SVG 1.1//EN"
  "http://www.w3.org/Graphics/SVG/1.1/DTD/svg11.dtd">
<svg xmlns:xlink="http://www.w3.org/1999/xlink" width="1440pt" height="576pt" viewBox="0 0 1440 576" xmlns="http://www.w3.org/2000/svg" version="1.1">
 <metadata>
  <rdf:RDF xmlns:dc="http://purl.org/dc/elements/1.1/" xmlns:cc="http://creativecommons.org/ns#" xmlns:rdf="http://www.w3.org/1999/02/22-rdf-syntax-ns#">
   <cc:Work>
    <dc:type rdf:resource="http://purl.org/dc/dcmitype/StillImage"/>
    <dc:date>2024-05-22T04:50:01.786028</dc:date>
    <dc:format>image/svg+xml</dc:format>
    <dc:creator>
     <cc:Agent>
      <dc:title>Matplotlib v3.8.3, https://matplotlib.org/</dc:title>
     </cc:Agent>
    </dc:creator>
   </cc:Work>
  </rdf:RDF>
 </metadata>
 <defs>
  <style type="text/css">*{stroke-linejoin: round; stroke-linecap: butt}</style>
 </defs>
 <g id="figure_1">
  <g id="patch_1">
   <path d="M 0 576 
L 1440 576 
L 1440 0 
L 0 0 
z
" style="fill: #ffffff"/>
  </g>
  <g id="axes_1">
   <g id="patch_2">
    <path d="M 180 512.64 
L 1296 512.64 
L 1296 69.12 
L 180 69.12 
z
" style="fill: #ffffff"/>
   </g>
   <g id="matplotlib.axis_1">
    <g id="xtick_1">
     <g id="line2d_1">
      <defs>
       <path id="ma7f463b2c4" d="M 0 0 
L 0 3.5 
" style="stroke: #000000; stroke-width: 0.8"/>
      </defs>
      <g>
       <use xlink:href="#ma7f463b2c4" x="229.734567" y="512.64" style="stroke: #000000; stroke-width: 0.8"/>
      </g>
     </g>
     <g id="text_1">
      <!-- 0 -->
      <g transform="translate(226.553317 527.238438) scale(0.1 -0.1)">
       <defs>
        <path id="DejaVuSans-30" d="M 2034 4250 
Q 1547 4250 1301 3770 
Q 1056 3291 1056 2328 
Q 1056 1369 1301 889 
Q 1547 409 2034 409 
Q 2525 409 2770 889 
Q 3016 1369 3016 2328 
Q 3016 3291 2770 3770 
Q 2525 4250 2034 4250 
z
M 2034 4750 
Q 2819 4750 3233 4129 
Q 3647 3509 3647 2328 
Q 3647 1150 3233 529 
Q 2819 -91 2034 -91 
Q 1250 -91 836 529 
Q 422 1150 422 2328 
Q 422 3509 836 4129 
Q 1250 4750 2034 4750 
z
" transform="scale(0.015625)"/>
       </defs>
       <use xlink:href="#DejaVuSans-30"/>
      </g>
     </g>
    </g>
    <g id="xtick_2">
     <g id="line2d_2">
      <g>
       <use xlink:href="#ma7f463b2c4" x="433.04074" y="512.64" style="stroke: #000000; stroke-width: 0.8"/>
      </g>
     </g>
     <g id="text_2">
      <!-- 500 -->
      <g transform="translate(423.49699 527.238438) scale(0.1 -0.1)">
       <defs>
        <path id="DejaVuSans-35" d="M 691 4666 
L 3169 4666 
L 3169 4134 
L 1269 4134 
L 1269 2991 
Q 1406 3038 1543 3061 
Q 1681 3084 1819 3084 
Q 2600 3084 3056 2656 
Q 3513 2228 3513 1497 
Q 3513 744 3044 326 
Q 2575 -91 1722 -91 
Q 1428 -91 1123 -41 
Q 819 9 494 109 
L 494 744 
Q 775 591 1075 516 
Q 1375 441 1709 441 
Q 2250 441 2565 725 
Q 2881 1009 2881 1497 
Q 2881 1984 2565 2268 
Q 2250 2553 1709 2553 
Q 1456 2553 1204 2497 
Q 953 2441 691 2322 
L 691 4666 
z
" transform="scale(0.015625)"/>
       </defs>
       <use xlink:href="#DejaVuSans-35"/>
       <use xlink:href="#DejaVuSans-30" x="63.623047"/>
       <use xlink:href="#DejaVuSans-30" x="127.246094"/>
      </g>
     </g>
    </g>
    <g id="xtick_3">
     <g id="line2d_3">
      <g>
       <use xlink:href="#ma7f463b2c4" x="636.346913" y="512.64" style="stroke: #000000; stroke-width: 0.8"/>
      </g>
     </g>
     <g id="text_3">
      <!-- 1000 -->
      <g transform="translate(623.621913 527.238438) scale(0.1 -0.1)">
       <defs>
        <path id="DejaVuSans-31" d="M 794 531 
L 1825 531 
L 1825 4091 
L 703 3866 
L 703 4441 
L 1819 4666 
L 2450 4666 
L 2450 531 
L 3481 531 
L 3481 0 
L 794 0 
L 794 531 
z
" transform="scale(0.015625)"/>
       </defs>
       <use xlink:href="#DejaVuSans-31"/>
       <use xlink:href="#DejaVuSans-30" x="63.623047"/>
       <use xlink:href="#DejaVuSans-30" x="127.246094"/>
       <use xlink:href="#DejaVuSans-30" x="190.869141"/>
      </g>
     </g>
    </g>
    <g id="xtick_4">
     <g id="line2d_4">
      <g>
       <use xlink:href="#ma7f463b2c4" x="839.653087" y="512.64" style="stroke: #000000; stroke-width: 0.8"/>
      </g>
     </g>
     <g id="text_4">
      <!-- 1500 -->
      <g transform="translate(826.928087 527.238438) scale(0.1 -0.1)">
       <use xlink:href="#DejaVuSans-31"/>
       <use xlink:href="#DejaVuSans-35" x="63.623047"/>
       <use xlink:href="#DejaVuSans-30" x="127.246094"/>
       <use xlink:href="#DejaVuSans-30" x="190.869141"/>
      </g>
     </g>
    </g>
    <g id="xtick_5">
     <g id="line2d_5">
      <g>
       <use xlink:href="#ma7f463b2c4" x="1042.95926" y="512.64" style="stroke: #000000; stroke-width: 0.8"/>
      </g>
     </g>
     <g id="text_5">
      <!-- 2000 -->
      <g transform="translate(1030.23426 527.238438) scale(0.1 -0.1)">
       <defs>
        <path id="DejaVuSans-32" d="M 1228 531 
L 3431 531 
L 3431 0 
L 469 0 
L 469 531 
Q 828 903 1448 1529 
Q 2069 2156 2228 2338 
Q 2531 2678 2651 2914 
Q 2772 3150 2772 3378 
Q 2772 3750 2511 3984 
Q 2250 4219 1831 4219 
Q 1534 4219 1204 4116 
Q 875 4013 500 3803 
L 500 4441 
Q 881 4594 1212 4672 
Q 1544 4750 1819 4750 
Q 2544 4750 2975 4387 
Q 3406 4025 3406 3419 
Q 3406 3131 3298 2873 
Q 3191 2616 2906 2266 
Q 2828 2175 2409 1742 
Q 1991 1309 1228 531 
z
" transform="scale(0.015625)"/>
       </defs>
       <use xlink:href="#DejaVuSans-32"/>
       <use xlink:href="#DejaVuSans-30" x="63.623047"/>
       <use xlink:href="#DejaVuSans-30" x="127.246094"/>
       <use xlink:href="#DejaVuSans-30" x="190.869141"/>
      </g>
     </g>
    </g>
    <g id="xtick_6">
     <g id="line2d_6">
      <g>
       <use xlink:href="#ma7f463b2c4" x="1246.265433" y="512.64" style="stroke: #000000; stroke-width: 0.8"/>
      </g>
     </g>
     <g id="text_6">
      <!-- 2500 -->
      <g transform="translate(1233.540433 527.238438) scale(0.1 -0.1)">
       <use xlink:href="#DejaVuSans-32"/>
       <use xlink:href="#DejaVuSans-35" x="63.623047"/>
       <use xlink:href="#DejaVuSans-30" x="127.246094"/>
       <use xlink:href="#DejaVuSans-30" x="190.869141"/>
      </g>
     </g>
    </g>
   </g>
   <g id="matplotlib.axis_2">
    <g id="ytick_1">
     <g id="line2d_7">
      <defs>
       <path id="m76481225f5" d="M 0 0 
L -3.5 0 
" style="stroke: #000000; stroke-width: 0.8"/>
      </defs>
      <g>
       <use xlink:href="#m76481225f5" x="180" y="509.797892" style="stroke: #000000; stroke-width: 0.8"/>
      </g>
     </g>
     <g id="text_7">
      <!-- −6 -->
      <g transform="translate(158.257812 513.597111) scale(0.1 -0.1)">
       <defs>
        <path id="DejaVuSans-2212" d="M 678 2272 
L 4684 2272 
L 4684 1741 
L 678 1741 
L 678 2272 
z
" transform="scale(0.015625)"/>
        <path id="DejaVuSans-36" d="M 2113 2584 
Q 1688 2584 1439 2293 
Q 1191 2003 1191 1497 
Q 1191 994 1439 701 
Q 1688 409 2113 409 
Q 2538 409 2786 701 
Q 3034 994 3034 1497 
Q 3034 2003 2786 2293 
Q 2538 2584 2113 2584 
z
M 3366 4563 
L 3366 3988 
Q 3128 4100 2886 4159 
Q 2644 4219 2406 4219 
Q 1781 4219 1451 3797 
Q 1122 3375 1075 2522 
Q 1259 2794 1537 2939 
Q 1816 3084 2150 3084 
Q 2853 3084 3261 2657 
Q 3669 2231 3669 1497 
Q 3669 778 3244 343 
Q 2819 -91 2113 -91 
Q 1303 -91 875 529 
Q 447 1150 447 2328 
Q 447 3434 972 4092 
Q 1497 4750 2381 4750 
Q 2619 4750 2861 4703 
Q 3103 4656 3366 4563 
z
" transform="scale(0.015625)"/>
       </defs>
       <use xlink:href="#DejaVuSans-2212"/>
       <use xlink:href="#DejaVuSans-36" x="83.789062"/>
      </g>
     </g>
    </g>
    <g id="ytick_2">
     <g id="line2d_8">
      <g>
       <use xlink:href="#m76481225f5" x="180" y="439.575697" style="stroke: #000000; stroke-width: 0.8"/>
      </g>
     </g>
     <g id="text_8">
      <!-- −4 -->
      <g transform="translate(158.257812 443.374916) scale(0.1 -0.1)">
       <defs>
        <path id="DejaVuSans-34" d="M 2419 4116 
L 825 1625 
L 2419 1625 
L 2419 4116 
z
M 2253 4666 
L 3047 4666 
L 3047 1625 
L 3713 1625 
L 3713 1100 
L 3047 1100 
L 3047 0 
L 2419 0 
L 2419 1100 
L 313 1100 
L 313 1709 
L 2253 4666 
z
" transform="scale(0.015625)"/>
       </defs>
       <use xlink:href="#DejaVuSans-2212"/>
       <use xlink:href="#DejaVuSans-34" x="83.789062"/>
      </g>
     </g>
    </g>
    <g id="ytick_3">
     <g id="line2d_9">
      <g>
       <use xlink:href="#m76481225f5" x="180" y="369.353502" style="stroke: #000000; stroke-width: 0.8"/>
      </g>
     </g>
     <g id="text_9">
      <!-- −2 -->
      <g transform="translate(158.257812 373.152721) scale(0.1 -0.1)">
       <use xlink:href="#DejaVuSans-2212"/>
       <use xlink:href="#DejaVuSans-32" x="83.789062"/>
      </g>
     </g>
    </g>
    <g id="ytick_4">
     <g id="line2d_10">
      <g>
       <use xlink:href="#m76481225f5" x="180" y="299.131307" style="stroke: #000000; stroke-width: 0.8"/>
      </g>
     </g>
     <g id="text_10">
      <!-- 0 -->
      <g transform="translate(166.6375 302.930526) scale(0.1 -0.1)">
       <use xlink:href="#DejaVuSans-30"/>
      </g>
     </g>
    </g>
    <g id="ytick_5">
     <g id="line2d_11">
      <g>
       <use xlink:href="#m76481225f5" x="180" y="228.909112" style="stroke: #000000; stroke-width: 0.8"/>
      </g>
     </g>
     <g id="text_11">
      <!-- 2 -->
      <g transform="translate(166.6375 232.708331) scale(0.1 -0.1)">
       <use xlink:href="#DejaVuSans-32"/>
      </g>
     </g>
    </g>
    <g id="ytick_6">
     <g id="line2d_12">
      <g>
       <use xlink:href="#m76481225f5" x="180" y="158.686917" style="stroke: #000000; stroke-width: 0.8"/>
      </g>
     </g>
     <g id="text_12">
      <!-- 4 -->
      <g transform="translate(166.6375 162.486136) scale(0.1 -0.1)">
       <use xlink:href="#DejaVuSans-34"/>
      </g>
     </g>
    </g>
    <g id="ytick_7">
     <g id="line2d_13">
      <g>
       <use xlink:href="#m76481225f5" x="180" y="88.464723" style="stroke: #000000; stroke-width: 0.8"/>
      </g>
     </g>
     <g id="text_13">
      <!-- 6 -->
      <g transform="translate(166.6375 92.263941) scale(0.1 -0.1)">
       <use xlink:href="#DejaVuSans-36"/>
      </g>
     </g>
    </g>
   </g>
   <g id="line2d_14">
    <path d="M 230.727273 335.509753 
L 231.719979 324.842806 
L 232.712685 392.36 
L 233.70539 313.542345 
L 234.698096 308.527054 
L 235.690802 346.083646 
L 236.683508 299.018453 
L 237.676214 306.425791 
L 238.66892 315.579818 
L 239.661626 296.689021 
L 240.654332 333.339914 
L 241.647038 314.919413 
L 242.639744 318.846928 
L 243.63245 310.01728 
L 244.625156 288.816177 
L 245.617862 319.304247 
L 246.610568 279.887987 
L 247.603273 272.405292 
L 248.595979 259.23584 
L 249.588685 237.464568 
L 250.581391 223.353131 
L 251.574097 213.676147 
L 252.566803 220.858055 
L 253.559509 202.980666 
L 254.552215 194.793685 
L 255.544921 211.459084 
L 256.537627 242.070802 
L 257.530333 239.365734 
L 259.515745 200.476558 
L 260.50845 186.058859 
L 261.501156 174.77227 
L 262.493862 174.912876 
L 263.486568 193.62929 
L 264.479274 264.094115 
L 265.47198 220.489577 
L 266.464686 239.479905 
L 267.457392 222.979058 
L 268.450098 193.535947 
L 269.442804 168.211446 
L 270.43551 152.687699 
L 271.428216 144.089065 
L 272.420922 146.546853 
L 274.406333 183.754449 
L 275.399039 159.849225 
L 276.391745 163.484697 
L 277.384451 148.901676 
L 278.377157 118.209367 
L 279.369863 96.527202 
L 280.362569 89.28 
L 281.355275 96.427977 
L 282.347981 117.803581 
L 283.340687 152.223008 
L 284.333393 218.392338 
L 285.326099 148.510584 
L 286.318804 135.390836 
L 287.31151 128.027577 
L 288.304216 128.998654 
L 289.296922 147.681698 
L 290.289628 196.037838 
L 291.282334 162.605337 
L 292.27504 174.97167 
L 293.267746 171.24622 
L 294.260452 163.602806 
L 295.253158 174.332501 
L 296.245864 192.202812 
L 297.23857 196.038142 
L 298.231276 197.216841 
L 299.223981 195.722938 
L 300.216687 185.62589 
L 301.209393 190.437775 
L 302.202099 180.20515 
L 303.194805 183.935013 
L 304.187511 194.692692 
L 305.180217 194.004326 
L 306.172923 196.441897 
L 308.158335 222.113327 
L 309.151041 218.696837 
L 310.143747 218.264536 
L 311.136453 227.092125 
L 312.129159 238.709563 
L 313.121864 234.586306 
L 314.11457 247.029201 
L 315.107276 263.33557 
L 316.099982 292.393567 
L 317.092688 295.763237 
L 318.085394 279.747386 
L 319.0781 281.835294 
L 320.070806 284.421562 
L 321.063512 277.734551 
L 322.056218 323.369551 
L 323.048924 310.456735 
L 324.04163 286.878725 
L 325.034336 298.447381 
L 326.027041 295.092798 
L 327.019747 324.117398 
L 328.012453 347.480098 
L 329.005159 299.29937 
L 329.997865 291.243485 
L 330.990571 304.432243 
L 331.983277 296.097325 
L 332.975983 292.049499 
L 333.968689 301.980088 
L 334.961395 299.220842 
L 335.954101 338.470514 
L 337.939513 276.22928 
L 338.932218 298.601746 
L 339.924924 324.473797 
L 340.91763 326.853149 
L 341.910336 310.661012 
L 342.903042 317.716312 
L 344.888454 271.188015 
L 345.88116 284.43763 
L 346.873866 307.731802 
L 347.866572 284.501943 
L 348.859278 281.029598 
L 349.851984 284.892798 
L 350.84469 292.67756 
L 351.837395 315.880506 
L 352.830101 313.000006 
L 353.822807 296.14241 
L 354.815513 282.754293 
L 355.808219 289.8827 
L 356.800925 302.575848 
L 357.793631 272.859208 
L 358.786337 268.881162 
L 359.779043 267.948687 
L 360.771749 270.496824 
L 361.764455 266.232967 
L 362.757161 252.249806 
L 363.749867 243.67156 
L 364.742572 247.20559 
L 365.735278 261.524199 
L 366.727984 267.766936 
L 368.713396 230.866929 
L 369.706102 217.985903 
L 370.698808 213.620914 
L 371.691514 214.578549 
L 372.68422 215.84937 
L 373.676926 218.81349 
L 374.669632 222.984258 
L 375.662338 230.319489 
L 376.655044 251.67871 
L 377.64775 237.92003 
L 378.640455 208.47525 
L 379.633161 191.247898 
L 380.625867 182.110454 
L 381.618573 180.036289 
L 382.611279 184.519708 
L 383.603985 197.858204 
L 384.596691 233.377442 
L 385.589397 214.284671 
L 386.582103 187.829375 
L 387.574809 176.562146 
L 388.567515 172.309996 
L 389.560221 173.89765 
L 390.552927 181.538794 
L 391.545632 195.538728 
L 392.538338 218.988129 
L 393.531044 245.26385 
L 394.52375 226.771362 
L 395.516456 219.721542 
L 396.509162 223.070255 
L 397.501868 232.123389 
L 398.494574 244.07559 
L 399.48728 254.561957 
L 400.479986 260.814501 
L 401.472692 262.956873 
L 402.465398 260.58406 
L 403.458104 248.718435 
L 404.450809 238.46139 
L 405.443515 236.989886 
L 407.428927 242.228344 
L 408.421633 250.632741 
L 409.414339 257.64538 
L 410.407045 266.182942 
L 411.399751 285.686 
L 412.392457 287.142239 
L 414.377869 276.312757 
L 415.370575 275.245531 
L 416.363281 296.785117 
L 417.355986 383.662888 
L 418.348692 317.138109 
L 419.341398 290.391735 
L 420.334104 287.177887 
L 421.32681 313.823774 
L 422.319516 331.488646 
L 423.312222 319.468765 
L 424.304928 294.50063 
L 425.297634 288.785042 
L 426.29034 304.669808 
L 427.283046 315.207766 
L 428.275752 316.214997 
L 429.268458 306.341594 
L 430.261163 293.919739 
L 432.246575 320.018132 
L 433.239281 317.616206 
L 434.231987 313.678738 
L 435.224693 296.436812 
L 436.217399 307.45033 
L 437.210105 322.320388 
L 438.202811 323.094816 
L 439.195517 332.228372 
L 440.188223 304.351325 
L 441.180929 308.265087 
L 442.173635 334.838494 
L 443.166341 353.891781 
L 444.159046 322.48886 
L 445.151752 300.18308 
L 446.144458 296.694879 
L 447.137164 286.580527 
L 448.12987 278.151309 
L 449.122576 279.016785 
L 450.115282 276.137795 
L 451.107988 274.7099 
L 452.100694 282.037914 
L 453.0934 291.3544 
L 454.086106 292.179207 
L 455.078812 290.003716 
L 456.071518 292.856851 
L 457.064223 289.940622 
L 458.056929 282.65114 
L 459.049635 279.832015 
L 460.042341 280.670315 
L 461.035047 275.141627 
L 462.027753 273.785093 
L 463.020459 278.086354 
L 464.013165 279.492218 
L 465.005871 280.642818 
L 465.998577 288.151556 
L 466.991283 286.220633 
L 467.983989 277.545988 
L 468.976695 279.590076 
L 469.9694 282.096576 
L 470.962106 291.19574 
L 471.954812 312.464536 
L 472.947518 284.356474 
L 473.940224 269.57008 
L 474.93293 264.681881 
L 475.925636 263.791167 
L 476.918342 275.865051 
L 477.911048 324.188526 
L 479.89646 267.780708 
L 480.889166 253.335801 
L 481.881872 249.735871 
L 482.874577 255.031502 
L 483.867283 265.05248 
L 484.859989 281.947062 
L 485.852695 267.867445 
L 486.845401 246.630509 
L 487.838107 237.140429 
L 488.830813 230.969223 
L 489.823519 229.315451 
L 490.816225 232.944173 
L 491.808931 241.238031 
L 493.794343 265.217761 
L 494.787049 250.222618 
L 495.779754 238.847539 
L 496.77246 232.925826 
L 497.765166 231.296822 
L 498.757872 234.550536 
L 499.750578 244.667881 
L 500.743284 258.725198 
L 501.73599 280.532774 
L 502.728696 310.783001 
L 503.721402 293.90802 
L 504.714108 282.904332 
L 505.706814 279.634588 
L 506.69952 274.12103 
L 507.692226 271.14971 
L 509.677637 281.920277 
L 510.670343 281.05326 
L 511.663049 282.339848 
L 512.655755 278.164067 
L 513.648461 278.402326 
L 514.641167 287.224232 
L 515.633873 287.881741 
L 516.626579 285.922667 
L 517.619285 289.123399 
L 518.611991 289.441005 
L 519.604697 301.486865 
L 520.597403 338.935517 
L 521.590109 356.004765 
L 522.582814 337.255097 
L 523.57552 327.396581 
L 524.568226 336.435153 
L 525.560932 327.369248 
L 526.553638 313.734696 
L 527.546344 304.881351 
L 528.53905 297.927543 
L 529.531756 303.632851 
L 530.524462 322.29132 
L 531.517168 314.210053 
L 532.509874 319.146679 
L 533.50258 318.828309 
L 534.495286 320.424988 
L 535.487991 323.948272 
L 536.480697 323.786801 
L 538.466109 309.176467 
L 539.458815 304.295491 
L 540.451521 314.885716 
L 541.444227 319.326509 
L 542.436933 313.197344 
L 544.422345 331.773231 
L 545.415051 327.796121 
L 546.407757 346.083094 
L 547.400463 360.254908 
L 548.393168 325.788139 
L 549.385874 321.391145 
L 550.37858 307.494998 
L 551.371286 302.578949 
L 552.363992 312.978064 
L 553.356698 325.020308 
L 554.349404 328.079674 
L 555.34211 356.47043 
L 556.334816 340.935075 
L 557.327522 349.315473 
L 560.30564 309.841483 
L 561.298345 298.837881 
L 562.291051 303.884982 
L 563.283757 318.96093 
L 564.276463 332.159314 
L 565.269169 340.222855 
L 566.261875 357.336477 
L 567.254581 398.32835 
L 568.247287 340.45869 
L 569.239993 328.768701 
L 570.232699 310.18592 
L 571.225405 297.463851 
L 572.218111 300.115515 
L 573.210817 296.070868 
L 574.203523 286.903023 
L 575.196228 284.562072 
L 576.188934 278.202422 
L 577.18164 276.533666 
L 578.174346 285.609953 
L 579.167052 297.160089 
L 580.159758 311.898006 
L 581.152464 305.045847 
L 582.14517 289.248393 
L 583.137876 287.37967 
L 584.130582 287.730833 
L 585.123288 294.215715 
L 586.115994 299.441156 
L 587.1087 281.853975 
L 588.101405 273.691825 
L 589.094111 271.24693 
L 590.086817 271.6384 
L 591.079523 280.705126 
L 592.072229 294.290865 
L 594.057641 273.382019 
L 595.050347 264.839871 
L 596.043053 261.443359 
L 598.028465 268.985771 
L 599.021171 271.689413 
L 600.013877 273.484004 
L 601.006582 270.463995 
L 601.999288 270.823618 
L 602.991994 277.136538 
L 603.9847 284.171811 
L 604.977406 285.285485 
L 605.970112 278.731951 
L 606.962818 267.299792 
L 607.955524 263.499846 
L 608.94823 264.716995 
L 609.940936 267.75454 
L 610.933642 276.539469 
L 612.919054 315.914877 
L 613.911759 311.729205 
L 614.904465 300.469283 
L 615.897171 287.590677 
L 616.889877 283.089691 
L 618.875289 292.67325 
L 620.860701 303.579833 
L 621.853407 291.436413 
L 622.846113 285.174839 
L 623.838819 286.79614 
L 624.831525 289.659965 
L 625.824231 298.151896 
L 626.816936 318.950225 
L 627.809642 331.700697 
L 628.802348 333.834268 
L 629.795054 352.562378 
L 630.78776 356.710396 
L 631.780466 353.811804 
L 632.773172 343.719027 
L 633.765878 364.01058 
L 634.758584 425.402714 
L 635.75129 429.501057 
L 636.743996 350.270888 
L 637.736702 335.394209 
L 638.729408 356.073227 
L 639.722114 368.166397 
L 642.700231 315.002953 
L 643.692937 316.83793 
L 644.685643 325.245415 
L 645.678349 323.849784 
L 646.671055 335.686892 
L 647.663761 341.743839 
L 648.656467 337.946993 
L 649.649173 370.542878 
L 650.641879 370.831808 
L 651.634585 359.402262 
L 652.627291 334.885725 
L 653.619996 331.402843 
L 654.612702 356.05176 
L 655.605408 359.340114 
L 656.598114 371.301788 
L 657.59082 364.697697 
L 658.583526 349.061753 
L 659.576232 366.506371 
L 660.568938 332.989599 
L 661.561644 330.896092 
L 662.55435 334.584706 
L 663.547056 329.860725 
L 664.539762 358.529307 
L 665.532468 345.833069 
L 666.525173 328.353309 
L 668.510585 302.477179 
L 669.503291 302.225897 
L 670.495997 306.590389 
L 671.488703 309.272811 
L 672.481409 331.250311 
L 673.474115 336.005619 
L 674.466821 312.13292 
L 676.452233 289.850766 
L 677.444939 288.778155 
L 678.437645 296.940663 
L 679.43035 306.885698 
L 680.423056 329.176637 
L 681.415762 361.931252 
L 682.408468 323.777243 
L 683.401174 320.366287 
L 684.39388 314.656929 
L 685.386586 315.256782 
L 686.379292 327.14393 
L 687.371998 319.747368 
L 688.364704 321.87824 
L 689.35741 335.779748 
L 690.350116 334.75163 
L 691.342822 339.554185 
L 692.335527 315.327879 
L 693.328233 300.299625 
L 695.313645 293.867753 
L 696.306351 291.914889 
L 697.299057 297.663433 
L 698.291763 309.484853 
L 699.284469 319.511622 
L 700.277175 337.691682 
L 701.269881 360.502623 
L 702.262587 340.573397 
L 703.255293 332.813063 
L 704.247999 321.52786 
L 705.240705 318.206692 
L 706.23341 330.630481 
L 707.226116 358.092037 
L 708.218822 361.317312 
L 709.211528 326.415629 
L 710.204234 308.902772 
L 711.19694 305.516781 
L 712.189646 306.432831 
L 713.182352 306.9053 
L 714.175058 318.754031 
L 715.167764 344.473749 
L 716.16047 325.239527 
L 718.145882 307.111958 
L 719.138587 301.336395 
L 720.131293 307.604846 
L 721.123999 322.199467 
L 722.116705 329.97153 
L 723.109411 339.0644 
L 724.102117 320.231047 
L 725.094823 306.466668 
L 726.087529 305.601257 
L 727.080235 306.575196 
L 728.072941 305.874643 
L 729.065647 314.271984 
L 730.058353 329.960518 
L 731.051059 329.028473 
L 732.043764 334.30502 
L 733.03647 338.07529 
L 734.029176 328.322701 
L 735.021882 335.493816 
L 736.014588 349.039502 
L 737.007294 341.012629 
L 738 350.541707 
L 738.992706 370.44326 
L 739.985412 356.941701 
L 740.978118 363.653533 
L 741.970824 404.250592 
L 742.96353 391.821797 
L 743.956236 371.363415 
L 744.948941 392.788185 
L 745.941647 369.94268 
L 746.934353 352.731795 
L 747.927059 372.066365 
L 748.919765 400.19 
L 749.912471 380.128523 
L 750.905177 363.518426 
L 751.897883 335.078071 
L 752.890589 332.607349 
L 753.883295 344.604835 
L 754.876001 345.479757 
L 755.868707 364.445028 
L 756.861413 367.734511 
L 757.854118 338.928561 
L 758.846824 342.217715 
L 760.832236 339.697841 
L 761.824942 368.487737 
L 762.817648 350.99997 
L 763.810354 344.733328 
L 764.80306 349.625352 
L 765.795766 334.955551 
L 766.788472 338.642502 
L 767.781178 332.8778 
L 768.773884 320.077725 
L 770.759295 325.533151 
L 771.752001 325.817279 
L 772.744707 347.145283 
L 773.737413 356.836175 
L 774.730119 345.364248 
L 775.722825 340.926535 
L 776.715531 323.149891 
L 777.708237 321.372873 
L 778.700943 322.545272 
L 779.693649 317.154922 
L 780.686355 324.283558 
L 781.679061 347.510001 
L 782.671767 367.397856 
L 783.664473 364.743987 
L 784.657178 323.648698 
L 785.649884 313.112071 
L 786.64259 313.440588 
L 787.635296 312.546873 
L 788.628002 317.704337 
L 789.620708 339.368958 
L 790.613414 383.923931 
L 791.60612 384.660411 
L 792.598826 350.854447 
L 793.591532 347.607473 
L 794.584238 366.53788 
L 795.576944 345.19997 
L 796.56965 340.702876 
L 797.562355 346.045117 
L 798.555061 337.964197 
L 799.547767 343.328076 
L 800.540473 379.898275 
L 802.525885 365.915012 
L 803.518591 357.638027 
L 804.511297 334.355487 
L 805.504003 326.53144 
L 806.496709 330.629767 
L 808.482121 332.794832 
L 809.474827 357.739966 
L 810.467532 359.568105 
L 811.460238 341.727724 
L 812.452944 341.948283 
L 813.44565 332.572988 
L 814.438356 336.196602 
L 815.431062 365.478567 
L 816.423768 348.501362 
L 817.416474 341.260489 
L 818.40918 331.870163 
L 819.401886 320.587853 
L 820.394592 322.831374 
L 821.387298 334.882583 
L 822.380004 341.196766 
L 823.372709 355.010781 
L 824.365415 390.33153 
L 825.358121 354.638007 
L 826.350827 347.148361 
L 827.343533 334.248161 
L 828.336239 323.435901 
L 829.328945 326.718558 
L 830.321651 332.604443 
L 831.314357 328.201873 
L 832.307063 335.630382 
L 833.299769 344.801446 
L 834.292475 337.916982 
L 835.285181 350.895347 
L 836.277886 359.564829 
L 837.270592 349.051565 
L 838.263298 363.005078 
L 839.256004 353.504049 
L 840.24871 348.268978 
L 842.234122 382.379043 
L 843.226828 361.49355 
L 844.219534 358.381298 
L 845.21224 369.611276 
L 846.204946 342.260225 
L 847.197652 332.85371 
L 848.190358 334.755178 
L 849.183064 328.331136 
L 850.175769 330.884081 
L 851.168475 355.084616 
L 852.161181 353.23172 
L 853.153887 350.829718 
L 854.146593 341.459828 
L 855.139299 329.53913 
L 856.132005 337.664274 
L 857.124711 358.34203 
L 858.117417 364.411875 
L 859.110123 410.992287 
L 860.102829 356.59528 
L 861.095535 348.359613 
L 862.088241 363.45714 
L 863.080946 370.658463 
L 864.073652 361.425988 
L 865.066358 358.438935 
L 866.059064 370.594056 
L 867.05177 395.541496 
L 868.044476 376.856136 
L 869.037182 365.474131 
L 870.029888 368.972477 
L 871.022594 385.045319 
L 872.0153 358.584914 
L 873.008006 357.754125 
L 874.000712 387.622737 
L 874.993418 372.064972 
L 875.986123 400.850653 
L 876.978829 355.284394 
L 877.971535 337.123758 
L 878.964241 337.188633 
L 879.956947 330.066773 
L 880.949653 328.619864 
L 881.942359 343.842022 
L 882.935065 346.80259 
L 883.927771 348.163272 
L 884.920477 368.6743 
L 885.913183 356.432321 
L 886.905889 372.185141 
L 887.898595 372.913326 
L 888.8913 348.967771 
L 889.884006 352.022458 
L 890.876712 343.624621 
L 891.869418 338.913951 
L 892.862124 355.096071 
L 893.85483 383.795208 
L 894.847536 380.848322 
L 895.840242 469.597197 
L 896.832948 367.057653 
L 897.825654 353.051367 
L 898.81836 361.624042 
L 899.811066 361.242965 
L 900.803772 354.452324 
L 901.796477 380.687515 
L 902.789183 376.861941 
L 903.781889 359.295082 
L 904.774595 372.888572 
L 905.767301 362.423767 
L 906.760007 366.95827 
L 907.752713 445.650229 
L 908.745419 368.093888 
L 909.738125 374.628605 
L 910.730831 362.401556 
L 911.723537 354.158236 
L 912.716243 377.186625 
L 913.708949 357.471276 
L 914.701655 349.529905 
L 915.69436 363.759155 
L 916.687066 364.573037 
L 917.679772 379.914254 
L 918.672478 367.462202 
L 919.665184 342.491083 
L 920.65789 335.871946 
L 921.650596 326.987158 
L 922.643302 321.165179 
L 923.636008 328.412785 
L 924.628714 350.79116 
L 925.62142 386.727279 
L 926.614126 369.802468 
L 927.606832 329.034874 
L 928.599537 316.905994 
L 930.584949 314.859622 
L 931.577655 317.541181 
L 932.570361 334.893654 
L 933.563067 343.93869 
L 934.555773 333.845442 
L 935.548479 331.967689 
L 936.541185 323.698743 
L 937.533891 323.788261 
L 939.519303 354.782713 
L 940.512009 362.330412 
L 941.504714 390.751327 
L 942.49742 356.05606 
L 943.490126 342.629228 
L 944.482832 344.152381 
L 945.475538 342.337699 
L 946.468244 334.751701 
L 947.46095 342.497962 
L 948.453656 351.541343 
L 949.446362 337.229062 
L 950.439068 338.19244 
L 951.431774 335.915486 
L 952.42448 331.068383 
L 953.417186 343.979454 
L 954.409891 353.997467 
L 955.402597 345.405787 
L 956.395303 351.44754 
L 957.388009 341.20158 
L 958.380715 338.076144 
L 959.373421 354.512174 
L 960.366127 365.953667 
L 961.358833 363.970757 
L 962.351539 392.984317 
L 963.344245 375.788798 
L 964.336951 355.416769 
L 965.329657 361.813821 
L 966.322363 364.202862 
L 967.315068 354.27574 
L 968.307774 375.199656 
L 969.30048 362.525993 
L 970.293186 346.697876 
L 971.285892 350.056249 
L 972.278598 339.373213 
L 973.271304 338.741222 
L 974.26401 356.359473 
L 975.256716 354.302072 
L 976.249422 367.875189 
L 977.242128 373.987794 
L 978.234834 349.827089 
L 979.22754 347.971241 
L 980.220246 331.220075 
L 981.212951 325.972342 
L 982.205657 333.07581 
L 983.198363 333.315851 
L 984.191069 341.296411 
L 985.183775 360.942524 
L 986.176481 341.231215 
L 987.169187 340.397083 
L 988.161893 336.600946 
L 989.154599 331.036774 
L 990.147305 343.440154 
L 991.140011 353.986829 
L 992.132717 351.560863 
L 993.125423 367.530614 
L 994.118128 349.088241 
L 995.110834 345.386113 
L 996.10354 358.590878 
L 997.096246 353.420049 
L 998.088952 356.581385 
L 999.081658 392.56291 
L 1000.074364 381.70334 
L 1001.06707 384.064706 
L 1002.059776 410.413383 
L 1003.052482 367.701028 
L 1004.045188 368.035686 
L 1005.037894 388.866058 
L 1006.0306 368.39871 
L 1007.023305 370.708906 
L 1008.016011 430.743691 
L 1009.008717 385.079357 
L 1010.001423 398.894785 
L 1010.994129 402.644685 
L 1011.986835 380.620356 
L 1012.979541 422.620647 
L 1013.972247 366.299415 
L 1014.964953 358.585784 
L 1015.957659 364.662775 
L 1016.950365 348.980187 
L 1017.943071 348.622665 
L 1018.935777 370.732271 
L 1019.928482 371.299202 
L 1020.921188 384.877386 
L 1021.913894 383.579743 
L 1022.9066 352.943345 
L 1024.892012 356.389346 
L 1025.884718 348.9195 
L 1026.877424 357.924779 
L 1027.87013 385.825488 
L 1028.862836 396.93705 
L 1029.855542 365.669095 
L 1030.848248 349.452142 
L 1031.840954 355.025851 
L 1032.833659 381.115312 
L 1033.826365 385.771638 
L 1034.819071 478.952287 
L 1035.811777 360.058058 
L 1036.804483 344.382828 
L 1037.797189 347.359004 
L 1038.789895 346.260571 
L 1039.782601 342.536969 
L 1040.775307 355.031519 
L 1041.768013 396.110098 
L 1042.760719 374.939088 
L 1043.753425 376.078637 
L 1045.738837 339.570625 
L 1046.731542 338.537246 
L 1047.724248 346.219365 
L 1048.716954 344.877257 
L 1049.70966 351.182504 
L 1050.702366 391.824591 
L 1051.695072 364.735072 
L 1052.687778 359.214412 
L 1053.680484 360.656626 
L 1054.67319 347.928247 
L 1055.665896 353.088429 
L 1056.658602 380.512832 
L 1057.651308 374.123952 
L 1058.644014 374.972803 
L 1059.636719 406.934883 
L 1060.629425 373.820539 
L 1061.622131 357.742217 
L 1062.614837 362.016574 
L 1063.607543 361.953399 
L 1064.600249 348.54661 
L 1065.592955 355.190787 
L 1066.585661 375.471444 
L 1067.578367 367.287668 
L 1068.571073 400.822841 
L 1069.563779 370.991454 
L 1070.556485 353.579093 
L 1071.549191 351.850058 
L 1072.541896 337.056119 
L 1073.534602 334.795602 
L 1074.527308 346.919955 
L 1075.520014 348.465918 
L 1076.51272 358.017425 
L 1077.505426 395.440405 
L 1078.498132 363.817745 
L 1079.490838 375.79575 
L 1080.483544 373.573588 
L 1081.47625 364.587196 
L 1082.468956 387.066523 
L 1083.461662 359.292721 
L 1084.454368 359.824665 
L 1085.447073 379.787076 
L 1086.439779 363.930284 
L 1087.432485 378.091923 
L 1088.425191 361.61283 
L 1089.417897 347.465258 
L 1090.410603 357.42267 
L 1091.403309 360.619906 
L 1092.396015 359.815697 
L 1093.388721 388.906559 
L 1095.374133 439.879511 
L 1096.366839 390.162467 
L 1097.359545 374.664631 
L 1098.35225 395.934381 
L 1099.344956 485.851058 
L 1100.337662 398.755628 
L 1101.330368 369.110872 
L 1102.323074 367.865901 
L 1103.31578 379.870393 
L 1104.308486 364.283405 
L 1105.301192 374.712092 
L 1106.293898 420.299257 
L 1107.286604 370.188657 
L 1108.27931 372.204396 
L 1109.272016 354.516576 
L 1110.264722 348.375753 
L 1111.257428 367.931725 
L 1112.250133 371.393555 
L 1113.242839 365.62355 
L 1114.235545 376.844067 
L 1115.228251 356.559396 
L 1116.220957 353.871241 
L 1118.206369 388.594532 
L 1119.199075 371.908196 
L 1120.191781 364.594099 
L 1121.184487 382.056251 
L 1122.177193 452.250161 
L 1123.169899 404.024015 
L 1124.162605 395.575626 
L 1125.15531 360.563747 
L 1126.148016 357.601199 
L 1127.140722 380.332919 
L 1128.133428 390.555662 
L 1129.126134 392.034801 
L 1130.11884 429.563246 
L 1131.111546 373.514842 
L 1132.104252 362.445981 
L 1133.096958 365.869373 
L 1134.089664 357.346583 
L 1135.08237 345.374273 
L 1136.075076 351.916215 
L 1137.067782 379.707389 
L 1138.060487 378.468157 
L 1139.053193 400.362153 
L 1140.045899 362.244306 
L 1141.038605 346.988463 
L 1142.031311 356.082809 
L 1143.024017 363.15677 
L 1144.016723 366.432153 
L 1145.009429 414.703022 
L 1146.002135 372.207985 
L 1146.994841 370.148091 
L 1147.987547 367.825173 
L 1148.980253 356.618516 
L 1149.972959 371.461371 
L 1150.965664 492.48 
L 1151.95837 412.850474 
L 1152.951076 399.906386 
L 1153.943782 364.905244 
L 1154.936488 369.381601 
L 1155.929194 392.388121 
L 1156.9219 375.180235 
L 1157.914606 380.811564 
L 1158.907312 397.271702 
L 1159.900018 419.494829 
L 1160.892724 370.700743 
L 1161.88543 355.807888 
L 1162.878136 363.584306 
L 1163.870841 355.753012 
L 1164.863547 346.283801 
L 1165.856253 356.248583 
L 1166.848959 354.552545 
L 1167.841665 346.476331 
L 1168.834371 359.90634 
L 1169.827077 365.352424 
L 1170.819783 361.166212 
L 1171.812489 386.14025 
L 1172.805195 354.556385 
L 1173.797901 345.335454 
L 1174.790607 346.917587 
L 1175.783313 338.133326 
L 1176.776019 339.670062 
L 1177.768724 361.819303 
L 1179.754136 386.598894 
L 1181.739548 342.7491 
L 1182.732254 345.85423 
L 1183.72496 351.756272 
L 1184.717666 349.188031 
L 1185.710372 363.919108 
L 1186.703078 422.039563 
L 1187.695784 399.155983 
L 1188.68849 399.516368 
L 1189.681196 392.113958 
L 1190.673901 426.947263 
L 1191.666607 377.014913 
L 1192.659313 366.126527 
L 1193.652019 385.745728 
L 1194.644725 392.247551 
L 1195.637431 378.921763 
L 1196.630137 394.673588 
L 1197.622843 434.01372 
L 1198.615549 388.695467 
L 1199.608255 398.721262 
L 1200.600961 399.755736 
L 1201.593667 369.027905 
L 1202.586373 378.561942 
L 1203.579078 364.929557 
L 1204.571784 345.389399 
L 1205.56449 346.334041 
L 1206.557196 343.344666 
L 1207.549902 337.976872 
L 1208.542608 351.880168 
L 1209.535314 377.076495 
L 1210.52802 369.594088 
L 1211.520726 373.119874 
L 1212.513432 346.788989 
L 1213.506138 343.844266 
L 1214.498844 355.111284 
L 1215.49155 348.708138 
L 1216.484255 351.806674 
L 1217.476961 361.320817 
L 1218.469667 347.254968 
L 1219.462373 349.471092 
L 1220.455079 368.83414 
L 1221.447785 369.767552 
L 1222.440491 380.024754 
L 1223.433197 425.018747 
L 1224.425903 367.079551 
L 1225.418609 364.437067 
L 1226.411315 367.779824 
L 1227.404021 354.744095 
L 1228.396727 358.58542 
L 1229.389432 396.893363 
L 1230.382138 396.833196 
L 1231.374844 403.076112 
L 1232.36755 427.515067 
L 1233.360256 397.366847 
L 1235.345668 368.332938 
L 1236.338374 375.288883 
L 1237.33108 370.467999 
L 1238.323786 369.102061 
L 1239.316492 399.258199 
L 1240.309198 359.67142 
L 1242.29461 338.945084 
L 1243.287315 330.773241 
L 1244.280021 338.886497 
L 1245.272727 365.668002 
L 1245.272727 365.668002 
" clip-path="url(#p684b7b6412)" style="fill: none; stroke: #1f77b4; stroke-width: 1.5; stroke-linecap: square"/>
   </g>
   <g id="patch_3">
    <path d="M 180 512.64 
L 180 69.12 
" style="fill: none; stroke: #000000; stroke-width: 0.8; stroke-linejoin: miter; stroke-linecap: square"/>
   </g>
   <g id="patch_4">
    <path d="M 1296 512.64 
L 1296 69.12 
" style="fill: none; stroke: #000000; stroke-width: 0.8; stroke-linejoin: miter; stroke-linecap: square"/>
   </g>
   <g id="patch_5">
    <path d="M 180 512.64 
L 1296 512.64 
" style="fill: none; stroke: #000000; stroke-width: 0.8; stroke-linejoin: miter; stroke-linecap: square"/>
   </g>
   <g id="patch_6">
    <path d="M 180 69.12 
L 1296 69.12 
" style="fill: none; stroke: #000000; stroke-width: 0.8; stroke-linejoin: miter; stroke-linecap: square"/>
   </g>
   <g id="text_14">
    <!-- source12-receiver10 -->
    <g transform="translate(532.175 60.80125) scale(0.4 -0.4)">
     <defs>
      <path id="DejaVuSans-73" d="M 2834 3397 
L 2834 2853 
Q 2591 2978 2328 3040 
Q 2066 3103 1784 3103 
Q 1356 3103 1142 2972 
Q 928 2841 928 2578 
Q 928 2378 1081 2264 
Q 1234 2150 1697 2047 
L 1894 2003 
Q 2506 1872 2764 1633 
Q 3022 1394 3022 966 
Q 3022 478 2636 193 
Q 2250 -91 1575 -91 
Q 1294 -91 989 -36 
Q 684 19 347 128 
L 347 722 
Q 666 556 975 473 
Q 1284 391 1588 391 
Q 1994 391 2212 530 
Q 2431 669 2431 922 
Q 2431 1156 2273 1281 
Q 2116 1406 1581 1522 
L 1381 1569 
Q 847 1681 609 1914 
Q 372 2147 372 2553 
Q 372 3047 722 3315 
Q 1072 3584 1716 3584 
Q 2034 3584 2315 3537 
Q 2597 3491 2834 3397 
z
" transform="scale(0.015625)"/>
      <path id="DejaVuSans-6f" d="M 1959 3097 
Q 1497 3097 1228 2736 
Q 959 2375 959 1747 
Q 959 1119 1226 758 
Q 1494 397 1959 397 
Q 2419 397 2687 759 
Q 2956 1122 2956 1747 
Q 2956 2369 2687 2733 
Q 2419 3097 1959 3097 
z
M 1959 3584 
Q 2709 3584 3137 3096 
Q 3566 2609 3566 1747 
Q 3566 888 3137 398 
Q 2709 -91 1959 -91 
Q 1206 -91 779 398 
Q 353 888 353 1747 
Q 353 2609 779 3096 
Q 1206 3584 1959 3584 
z
" transform="scale(0.015625)"/>
      <path id="DejaVuSans-75" d="M 544 1381 
L 544 3500 
L 1119 3500 
L 1119 1403 
Q 1119 906 1312 657 
Q 1506 409 1894 409 
Q 2359 409 2629 706 
Q 2900 1003 2900 1516 
L 2900 3500 
L 3475 3500 
L 3475 0 
L 2900 0 
L 2900 538 
Q 2691 219 2414 64 
Q 2138 -91 1772 -91 
Q 1169 -91 856 284 
Q 544 659 544 1381 
z
M 1991 3584 
L 1991 3584 
z
" transform="scale(0.015625)"/>
      <path id="DejaVuSans-72" d="M 2631 2963 
Q 2534 3019 2420 3045 
Q 2306 3072 2169 3072 
Q 1681 3072 1420 2755 
Q 1159 2438 1159 1844 
L 1159 0 
L 581 0 
L 581 3500 
L 1159 3500 
L 1159 2956 
Q 1341 3275 1631 3429 
Q 1922 3584 2338 3584 
Q 2397 3584 2469 3576 
Q 2541 3569 2628 3553 
L 2631 2963 
z
" transform="scale(0.015625)"/>
      <path id="DejaVuSans-63" d="M 3122 3366 
L 3122 2828 
Q 2878 2963 2633 3030 
Q 2388 3097 2138 3097 
Q 1578 3097 1268 2742 
Q 959 2388 959 1747 
Q 959 1106 1268 751 
Q 1578 397 2138 397 
Q 2388 397 2633 464 
Q 2878 531 3122 666 
L 3122 134 
Q 2881 22 2623 -34 
Q 2366 -91 2075 -91 
Q 1284 -91 818 406 
Q 353 903 353 1747 
Q 353 2603 823 3093 
Q 1294 3584 2113 3584 
Q 2378 3584 2631 3529 
Q 2884 3475 3122 3366 
z
" transform="scale(0.015625)"/>
      <path id="DejaVuSans-65" d="M 3597 1894 
L 3597 1613 
L 953 1613 
Q 991 1019 1311 708 
Q 1631 397 2203 397 
Q 2534 397 2845 478 
Q 3156 559 3463 722 
L 3463 178 
Q 3153 47 2828 -22 
Q 2503 -91 2169 -91 
Q 1331 -91 842 396 
Q 353 884 353 1716 
Q 353 2575 817 3079 
Q 1281 3584 2069 3584 
Q 2775 3584 3186 3129 
Q 3597 2675 3597 1894 
z
M 3022 2063 
Q 3016 2534 2758 2815 
Q 2500 3097 2075 3097 
Q 1594 3097 1305 2825 
Q 1016 2553 972 2059 
L 3022 2063 
z
" transform="scale(0.015625)"/>
      <path id="DejaVuSans-2d" d="M 313 2009 
L 1997 2009 
L 1997 1497 
L 313 1497 
L 313 2009 
z
" transform="scale(0.015625)"/>
      <path id="DejaVuSans-69" d="M 603 3500 
L 1178 3500 
L 1178 0 
L 603 0 
L 603 3500 
z
M 603 4863 
L 1178 4863 
L 1178 4134 
L 603 4134 
L 603 4863 
z
" transform="scale(0.015625)"/>
      <path id="DejaVuSans-76" d="M 191 3500 
L 800 3500 
L 1894 563 
L 2988 3500 
L 3597 3500 
L 2284 0 
L 1503 0 
L 191 3500 
z
" transform="scale(0.015625)"/>
     </defs>
     <use xlink:href="#DejaVuSans-73"/>
     <use xlink:href="#DejaVuSans-6f" x="52.099609"/>
     <use xlink:href="#DejaVuSans-75" x="113.28125"/>
     <use xlink:href="#DejaVuSans-72" x="176.660156"/>
     <use xlink:href="#DejaVuSans-63" x="215.523438"/>
     <use xlink:href="#DejaVuSans-65" x="270.503906"/>
     <use xlink:href="#DejaVuSans-31" x="332.027344"/>
     <use xlink:href="#DejaVuSans-32" x="395.650391"/>
     <use xlink:href="#DejaVuSans-2d" x="459.273438"/>
     <use xlink:href="#DejaVuSans-72" x="495.357422"/>
     <use xlink:href="#DejaVuSans-65" x="534.220703"/>
     <use xlink:href="#DejaVuSans-63" x="595.744141"/>
     <use xlink:href="#DejaVuSans-65" x="650.724609"/>
     <use xlink:href="#DejaVuSans-69" x="712.248047"/>
     <use xlink:href="#DejaVuSans-76" x="740.03125"/>
     <use xlink:href="#DejaVuSans-65" x="799.210938"/>
     <use xlink:href="#DejaVuSans-72" x="860.734375"/>
     <use xlink:href="#DejaVuSans-31" x="901.847656"/>
     <use xlink:href="#DejaVuSans-30" x="965.470703"/>
    </g>
   </g>
  </g>
 </g>
 <defs>
  <clipPath id="p684b7b6412">
   <rect x="180" y="69.12" width="1116" height="443.52"/>
  </clipPath>
 </defs>
</svg>
