<?xml version="1.0" encoding="utf-8" standalone="no"?>
<!DOCTYPE svg PUBLIC "-//W3C//DTD SVG 1.1//EN"
  "http://www.w3.org/Graphics/SVG/1.1/DTD/svg11.dtd">
<svg xmlns:xlink="http://www.w3.org/1999/xlink" width="1440pt" height="576pt" viewBox="0 0 1440 576" xmlns="http://www.w3.org/2000/svg" version="1.1">
 <metadata>
  <rdf:RDF xmlns:dc="http://purl.org/dc/elements/1.1/" xmlns:cc="http://creativecommons.org/ns#" xmlns:rdf="http://www.w3.org/1999/02/22-rdf-syntax-ns#">
   <cc:Work>
    <dc:type rdf:resource="http://purl.org/dc/dcmitype/StillImage"/>
    <dc:date>2024-05-22T04:50:02.197030</dc:date>
    <dc:format>image/svg+xml</dc:format>
    <dc:creator>
     <cc:Agent>
      <dc:title>Matplotlib v3.8.3, https://matplotlib.org/</dc:title>
     </cc:Agent>
    </dc:creator>
   </cc:Work>
  </rdf:RDF>
 </metadata>
 <defs>
  <style type="text/css">*{stroke-linejoin: round; stroke-linecap: butt}</style>
 </defs>
 <g id="figure_1">
  <g id="patch_1">
   <path d="M 0 576 
L 1440 576 
L 1440 0 
L 0 0 
z
" style="fill: #ffffff"/>
  </g>
  <g id="axes_1">
   <g id="patch_2">
    <path d="M 180 512.64 
L 1296 512.64 
L 1296 69.12 
L 180 69.12 
z
" style="fill: #ffffff"/>
   </g>
   <g id="matplotlib.axis_1">
    <g id="xtick_1">
     <g id="line2d_1">
      <defs>
       <path id="m17ab1fdab9" d="M 0 0 
L 0 3.5 
" style="stroke: #000000; stroke-width: 0.8"/>
      </defs>
      <g>
       <use xlink:href="#m17ab1fdab9" x="229.734567" y="512.64" style="stroke: #000000; stroke-width: 0.8"/>
      </g>
     </g>
     <g id="text_1">
      <!-- 0 -->
      <g transform="translate(226.553317 527.238438) scale(0.1 -0.1)">
       <defs>
        <path id="DejaVuSans-30" d="M 2034 4250 
Q 1547 4250 1301 3770 
Q 1056 3291 1056 2328 
Q 1056 1369 1301 889 
Q 1547 409 2034 409 
Q 2525 409 2770 889 
Q 3016 1369 3016 2328 
Q 3016 3291 2770 3770 
Q 2525 4250 2034 4250 
z
M 2034 4750 
Q 2819 4750 3233 4129 
Q 3647 3509 3647 2328 
Q 3647 1150 3233 529 
Q 2819 -91 2034 -91 
Q 1250 -91 836 529 
Q 422 1150 422 2328 
Q 422 3509 836 4129 
Q 1250 4750 2034 4750 
z
" transform="scale(0.015625)"/>
       </defs>
       <use xlink:href="#DejaVuSans-30"/>
      </g>
     </g>
    </g>
    <g id="xtick_2">
     <g id="line2d_2">
      <g>
       <use xlink:href="#m17ab1fdab9" x="433.04074" y="512.64" style="stroke: #000000; stroke-width: 0.8"/>
      </g>
     </g>
     <g id="text_2">
      <!-- 500 -->
      <g transform="translate(423.49699 527.238438) scale(0.1 -0.1)">
       <defs>
        <path id="DejaVuSans-35" d="M 691 4666 
L 3169 4666 
L 3169 4134 
L 1269 4134 
L 1269 2991 
Q 1406 3038 1543 3061 
Q 1681 3084 1819 3084 
Q 2600 3084 3056 2656 
Q 3513 2228 3513 1497 
Q 3513 744 3044 326 
Q 2575 -91 1722 -91 
Q 1428 -91 1123 -41 
Q 819 9 494 109 
L 494 744 
Q 775 591 1075 516 
Q 1375 441 1709 441 
Q 2250 441 2565 725 
Q 2881 1009 2881 1497 
Q 2881 1984 2565 2268 
Q 2250 2553 1709 2553 
Q 1456 2553 1204 2497 
Q 953 2441 691 2322 
L 691 4666 
z
" transform="scale(0.015625)"/>
       </defs>
       <use xlink:href="#DejaVuSans-35"/>
       <use xlink:href="#DejaVuSans-30" x="63.623047"/>
       <use xlink:href="#DejaVuSans-30" x="127.246094"/>
      </g>
     </g>
    </g>
    <g id="xtick_3">
     <g id="line2d_3">
      <g>
       <use xlink:href="#m17ab1fdab9" x="636.346913" y="512.64" style="stroke: #000000; stroke-width: 0.8"/>
      </g>
     </g>
     <g id="text_3">
      <!-- 1000 -->
      <g transform="translate(623.621913 527.238438) scale(0.1 -0.1)">
       <defs>
        <path id="DejaVuSans-31" d="M 794 531 
L 1825 531 
L 1825 4091 
L 703 3866 
L 703 4441 
L 1819 4666 
L 2450 4666 
L 2450 531 
L 3481 531 
L 3481 0 
L 794 0 
L 794 531 
z
" transform="scale(0.015625)"/>
       </defs>
       <use xlink:href="#DejaVuSans-31"/>
       <use xlink:href="#DejaVuSans-30" x="63.623047"/>
       <use xlink:href="#DejaVuSans-30" x="127.246094"/>
       <use xlink:href="#DejaVuSans-30" x="190.869141"/>
      </g>
     </g>
    </g>
    <g id="xtick_4">
     <g id="line2d_4">
      <g>
       <use xlink:href="#m17ab1fdab9" x="839.653087" y="512.64" style="stroke: #000000; stroke-width: 0.8"/>
      </g>
     </g>
     <g id="text_4">
      <!-- 1500 -->
      <g transform="translate(826.928087 527.238438) scale(0.1 -0.1)">
       <use xlink:href="#DejaVuSans-31"/>
       <use xlink:href="#DejaVuSans-35" x="63.623047"/>
       <use xlink:href="#DejaVuSans-30" x="127.246094"/>
       <use xlink:href="#DejaVuSans-30" x="190.869141"/>
      </g>
     </g>
    </g>
    <g id="xtick_5">
     <g id="line2d_5">
      <g>
       <use xlink:href="#m17ab1fdab9" x="1042.95926" y="512.64" style="stroke: #000000; stroke-width: 0.8"/>
      </g>
     </g>
     <g id="text_5">
      <!-- 2000 -->
      <g transform="translate(1030.23426 527.238438) scale(0.1 -0.1)">
       <defs>
        <path id="DejaVuSans-32" d="M 1228 531 
L 3431 531 
L 3431 0 
L 469 0 
L 469 531 
Q 828 903 1448 1529 
Q 2069 2156 2228 2338 
Q 2531 2678 2651 2914 
Q 2772 3150 2772 3378 
Q 2772 3750 2511 3984 
Q 2250 4219 1831 4219 
Q 1534 4219 1204 4116 
Q 875 4013 500 3803 
L 500 4441 
Q 881 4594 1212 4672 
Q 1544 4750 1819 4750 
Q 2544 4750 2975 4387 
Q 3406 4025 3406 3419 
Q 3406 3131 3298 2873 
Q 3191 2616 2906 2266 
Q 2828 2175 2409 1742 
Q 1991 1309 1228 531 
z
" transform="scale(0.015625)"/>
       </defs>
       <use xlink:href="#DejaVuSans-32"/>
       <use xlink:href="#DejaVuSans-30" x="63.623047"/>
       <use xlink:href="#DejaVuSans-30" x="127.246094"/>
       <use xlink:href="#DejaVuSans-30" x="190.869141"/>
      </g>
     </g>
    </g>
    <g id="xtick_6">
     <g id="line2d_6">
      <g>
       <use xlink:href="#m17ab1fdab9" x="1246.265433" y="512.64" style="stroke: #000000; stroke-width: 0.8"/>
      </g>
     </g>
     <g id="text_6">
      <!-- 2500 -->
      <g transform="translate(1233.540433 527.238438) scale(0.1 -0.1)">
       <use xlink:href="#DejaVuSans-32"/>
       <use xlink:href="#DejaVuSans-35" x="63.623047"/>
       <use xlink:href="#DejaVuSans-30" x="127.246094"/>
       <use xlink:href="#DejaVuSans-30" x="190.869141"/>
      </g>
     </g>
    </g>
   </g>
   <g id="matplotlib.axis_2">
    <g id="ytick_1">
     <g id="line2d_7">
      <defs>
       <path id="m262dca7b17" d="M 0 0 
L -3.5 0 
" style="stroke: #000000; stroke-width: 0.8"/>
      </defs>
      <g>
       <use xlink:href="#m262dca7b17" x="180" y="473.00586" style="stroke: #000000; stroke-width: 0.8"/>
      </g>
     </g>
     <g id="text_7">
      <!-- −3 -->
      <g transform="translate(158.257812 476.805078) scale(0.1 -0.1)">
       <defs>
        <path id="DejaVuSans-2212" d="M 678 2272 
L 4684 2272 
L 4684 1741 
L 678 1741 
L 678 2272 
z
" transform="scale(0.015625)"/>
        <path id="DejaVuSans-33" d="M 2597 2516 
Q 3050 2419 3304 2112 
Q 3559 1806 3559 1356 
Q 3559 666 3084 287 
Q 2609 -91 1734 -91 
Q 1441 -91 1130 -33 
Q 819 25 488 141 
L 488 750 
Q 750 597 1062 519 
Q 1375 441 1716 441 
Q 2309 441 2620 675 
Q 2931 909 2931 1356 
Q 2931 1769 2642 2001 
Q 2353 2234 1838 2234 
L 1294 2234 
L 1294 2753 
L 1863 2753 
Q 2328 2753 2575 2939 
Q 2822 3125 2822 3475 
Q 2822 3834 2567 4026 
Q 2313 4219 1838 4219 
Q 1578 4219 1281 4162 
Q 984 4106 628 3988 
L 628 4550 
Q 988 4650 1302 4700 
Q 1616 4750 1894 4750 
Q 2613 4750 3031 4423 
Q 3450 4097 3450 3541 
Q 3450 3153 3228 2886 
Q 3006 2619 2597 2516 
z
" transform="scale(0.015625)"/>
       </defs>
       <use xlink:href="#DejaVuSans-2212"/>
       <use xlink:href="#DejaVuSans-33" x="83.789062"/>
      </g>
     </g>
    </g>
    <g id="ytick_2">
     <g id="line2d_8">
      <g>
       <use xlink:href="#m262dca7b17" x="180" y="417.246962" style="stroke: #000000; stroke-width: 0.8"/>
      </g>
     </g>
     <g id="text_8">
      <!-- −2 -->
      <g transform="translate(158.257812 421.04618) scale(0.1 -0.1)">
       <use xlink:href="#DejaVuSans-2212"/>
       <use xlink:href="#DejaVuSans-32" x="83.789062"/>
      </g>
     </g>
    </g>
    <g id="ytick_3">
     <g id="line2d_9">
      <g>
       <use xlink:href="#m262dca7b17" x="180" y="361.488064" style="stroke: #000000; stroke-width: 0.8"/>
      </g>
     </g>
     <g id="text_9">
      <!-- −1 -->
      <g transform="translate(158.257812 365.287283) scale(0.1 -0.1)">
       <use xlink:href="#DejaVuSans-2212"/>
       <use xlink:href="#DejaVuSans-31" x="83.789062"/>
      </g>
     </g>
    </g>
    <g id="ytick_4">
     <g id="line2d_10">
      <g>
       <use xlink:href="#m262dca7b17" x="180" y="305.729166" style="stroke: #000000; stroke-width: 0.8"/>
      </g>
     </g>
     <g id="text_10">
      <!-- 0 -->
      <g transform="translate(166.6375 309.528385) scale(0.1 -0.1)">
       <use xlink:href="#DejaVuSans-30"/>
      </g>
     </g>
    </g>
    <g id="ytick_5">
     <g id="line2d_11">
      <g>
       <use xlink:href="#m262dca7b17" x="180" y="249.970268" style="stroke: #000000; stroke-width: 0.8"/>
      </g>
     </g>
     <g id="text_11">
      <!-- 1 -->
      <g transform="translate(166.6375 253.769487) scale(0.1 -0.1)">
       <use xlink:href="#DejaVuSans-31"/>
      </g>
     </g>
    </g>
    <g id="ytick_6">
     <g id="line2d_12">
      <g>
       <use xlink:href="#m262dca7b17" x="180" y="194.21137" style="stroke: #000000; stroke-width: 0.8"/>
      </g>
     </g>
     <g id="text_12">
      <!-- 2 -->
      <g transform="translate(166.6375 198.010589) scale(0.1 -0.1)">
       <use xlink:href="#DejaVuSans-32"/>
      </g>
     </g>
    </g>
    <g id="ytick_7">
     <g id="line2d_13">
      <g>
       <use xlink:href="#m262dca7b17" x="180" y="138.452472" style="stroke: #000000; stroke-width: 0.8"/>
      </g>
     </g>
     <g id="text_13">
      <!-- 3 -->
      <g transform="translate(166.6375 142.251691) scale(0.1 -0.1)">
       <use xlink:href="#DejaVuSans-33"/>
      </g>
     </g>
    </g>
    <g id="ytick_8">
     <g id="line2d_14">
      <g>
       <use xlink:href="#m262dca7b17" x="180" y="82.693575" style="stroke: #000000; stroke-width: 0.8"/>
      </g>
     </g>
     <g id="text_14">
      <!-- 4 -->
      <g transform="translate(166.6375 86.492793) scale(0.1 -0.1)">
       <defs>
        <path id="DejaVuSans-34" d="M 2419 4116 
L 825 1625 
L 2419 1625 
L 2419 4116 
z
M 2253 4666 
L 3047 4666 
L 3047 1625 
L 3713 1625 
L 3713 1100 
L 3047 1100 
L 3047 0 
L 2419 0 
L 2419 1100 
L 313 1100 
L 313 1709 
L 2253 4666 
z
" transform="scale(0.015625)"/>
       </defs>
       <use xlink:href="#DejaVuSans-34"/>
      </g>
     </g>
    </g>
   </g>
   <g id="line2d_15">
    <path d="M 230.727273 450.346803 
L 231.719979 440.847694 
L 234.698096 409.836426 
L 236.683508 392.543986 
L 237.676214 385.20776 
L 240.654332 366.069205 
L 242.639744 355.312083 
L 243.63245 351.269825 
L 244.625156 345.359937 
L 245.617862 334.618806 
L 246.610568 330.799805 
L 247.603273 367.677247 
L 249.588685 248.111167 
L 250.581391 217.301658 
L 253.559509 164.886281 
L 254.552215 152.381608 
L 255.544921 156.220494 
L 256.537627 189.376138 
L 257.530333 236.754306 
L 258.523039 175.516573 
L 259.515745 174.694141 
L 260.50845 231.529117 
L 261.501156 195.298871 
L 262.493862 166.107205 
L 263.486568 178.149348 
L 264.479274 211.423188 
L 265.47198 193.904388 
L 266.464686 198.043733 
L 267.457392 196.663976 
L 268.450098 177.338985 
L 269.442804 192.315148 
L 270.43551 214.201078 
L 271.428216 170.303874 
L 272.420922 174.476642 
L 273.413627 254.304022 
L 274.406333 164.158821 
L 275.399039 136.258389 
L 276.391745 130.774625 
L 277.384451 123.512959 
L 278.377157 107.014244 
L 279.369863 94.26102 
L 280.362569 89.28 
L 281.355275 92.975713 
L 282.347981 109.024126 
L 283.340687 147.062605 
L 284.333393 206.735154 
L 285.326099 153.631287 
L 286.318804 143.218878 
L 287.31151 151.050649 
L 288.304216 156.458608 
L 289.296922 163.960446 
L 290.289628 194.18659 
L 291.282334 198.683563 
L 292.27504 170.968927 
L 293.267746 172.744069 
L 294.260452 204.221375 
L 295.253158 273.165766 
L 296.245864 232.383925 
L 297.23857 224.20271 
L 298.231276 252.998134 
L 299.223981 319.191758 
L 300.216687 295.312582 
L 301.209393 335.016703 
L 303.194805 268.866008 
L 304.187511 293.24964 
L 305.180217 362.387592 
L 306.172923 293.273052 
L 307.165629 304.208973 
L 308.158335 415.565322 
L 309.151041 338.91168 
L 310.143747 347.025582 
L 311.136453 358.108107 
L 312.129159 344.146926 
L 313.121864 371.531703 
L 314.11457 350.112627 
L 315.107276 347.993191 
L 316.099982 352.673986 
L 317.092688 359.572841 
L 318.085394 362.379375 
L 319.0781 358.050179 
L 320.070806 354.824776 
L 321.063512 369.312118 
L 322.056218 358.460206 
L 323.048924 363.085566 
L 324.04163 367.031355 
L 325.034336 363.435588 
L 326.027041 367.794222 
L 327.019747 368.674584 
L 328.012453 360.317401 
L 329.005159 363.125596 
L 329.997865 368.672818 
L 330.990571 368.04264 
L 331.983277 375.713427 
L 332.975983 370.474396 
L 333.968689 373.501486 
L 334.961395 361.802113 
L 335.954101 366.917278 
L 336.946807 372.694159 
L 337.939513 368.326424 
L 338.932218 369.496682 
L 339.924924 378.287643 
L 340.91763 372.640312 
L 341.910336 379.661696 
L 342.903042 380.346397 
L 343.895748 369.012169 
L 344.888454 376.630461 
L 345.88116 389.846499 
L 346.873866 380.71773 
L 347.866572 373.220026 
L 348.859278 368.438377 
L 349.851984 390.883601 
L 350.84469 369.988304 
L 352.830101 387.752284 
L 353.822807 375.538477 
L 354.815513 388.787045 
L 355.808219 382.612437 
L 356.800925 388.529662 
L 357.793631 381.537298 
L 358.786337 379.625448 
L 359.779043 371.342408 
L 360.771749 379.295322 
L 361.764455 382.399572 
L 362.757161 377.691721 
L 363.749867 385.877754 
L 364.742572 382.502998 
L 365.735278 385.914099 
L 366.727984 378.420242 
L 367.72069 386.62876 
L 368.713396 386.110684 
L 369.706102 405.258842 
L 370.698808 401.631207 
L 371.691514 387.329228 
L 372.68422 395.226623 
L 373.676926 401.951309 
L 374.669632 394.114265 
L 375.662338 389.11931 
L 376.655044 391.545178 
L 377.64775 398.965172 
L 378.640455 390.189004 
L 379.633161 405.557395 
L 380.625867 392.962391 
L 381.618573 387.725804 
L 382.611279 403.431976 
L 383.603985 383.128283 
L 384.596691 400.175183 
L 385.589397 413.22484 
L 386.582103 397.538014 
L 387.574809 399.629426 
L 388.567515 406.935912 
L 389.560221 394.25545 
L 390.552927 387.510373 
L 391.545632 397.212712 
L 392.538338 383.976541 
L 393.531044 401.989819 
L 394.52375 387.787398 
L 395.516456 385.427088 
L 396.509162 399.833583 
L 397.501868 408.016248 
L 398.494574 398.853251 
L 399.48728 388.542429 
L 400.479986 394.606453 
L 401.472692 406.913487 
L 402.465398 410.162476 
L 403.458104 407.85804 
L 404.450809 414.791209 
L 405.443515 417.64375 
L 406.436221 405.541824 
L 407.428927 405.530567 
L 408.421633 411.281357 
L 409.414339 401.857367 
L 410.407045 399.506603 
L 411.399751 407.448072 
L 412.392457 414.215621 
L 413.385163 397.418203 
L 414.377869 413.084684 
L 415.370575 405.203202 
L 416.363281 414.727968 
L 417.355986 418.14084 
L 418.348692 409.171217 
L 419.341398 450.476022 
L 420.334104 403.240761 
L 421.32681 395.209726 
L 422.319516 409.674293 
L 423.312222 418.515131 
L 424.304928 410.148631 
L 425.297634 414.985121 
L 426.29034 405.461054 
L 427.283046 426.191445 
L 428.275752 412.44356 
L 429.268458 407.114195 
L 430.261163 396.1909 
L 431.253869 423.601554 
L 432.246575 407.939355 
L 433.239281 403.422959 
L 434.231987 421.697886 
L 435.224693 401.288496 
L 437.210105 417.072082 
L 438.202811 426.468683 
L 439.195517 407.735656 
L 440.188223 416.447936 
L 441.180929 419.540402 
L 442.173635 415.198528 
L 443.166341 399.006223 
L 444.159046 421.39676 
L 445.151752 428.917277 
L 446.144458 423.788268 
L 447.137164 407.741654 
L 448.12987 412.16457 
L 449.122576 413.492753 
L 450.115282 405.755561 
L 451.107988 417.511149 
L 452.100694 399.764682 
L 453.0934 422.92137 
L 454.086106 404.138414 
L 455.078812 420.426396 
L 456.071518 420.138647 
L 457.064223 420.638615 
L 458.056929 423.460355 
L 459.049635 413.225467 
L 460.042341 415.089691 
L 461.035047 419.18025 
L 462.027753 433.853015 
L 463.020459 443.879903 
L 464.013165 417.116517 
L 465.005871 429.412099 
L 465.998577 426.560139 
L 466.991283 416.224189 
L 467.983989 421.035157 
L 468.976695 447.36278 
L 469.9694 432.756261 
L 470.962106 423.38953 
L 471.954812 435.767042 
L 472.947518 422.234518 
L 473.940224 400.526021 
L 474.93293 436.136436 
L 475.925636 421.015696 
L 476.918342 412.979207 
L 477.911048 433.271176 
L 478.903754 427.781344 
L 479.89646 416.364046 
L 480.889166 424.041939 
L 481.881872 412.657596 
L 482.874577 423.183891 
L 483.867283 422.087427 
L 484.859989 415.042466 
L 485.852695 432.785986 
L 486.845401 422.382533 
L 487.838107 425.968157 
L 488.830813 424.358678 
L 489.823519 406.864975 
L 490.816225 425.915785 
L 491.808931 396.80864 
L 492.801637 428.560523 
L 493.794343 411.413487 
L 494.787049 452.698114 
L 495.779754 424.18724 
L 496.77246 407.028402 
L 497.765166 419.756778 
L 498.757872 425.55176 
L 499.750578 403.588295 
L 500.743284 414.068282 
L 501.73599 435.453451 
L 502.728696 417.11104 
L 503.721402 424.478076 
L 504.714108 419.576127 
L 505.706814 444.640894 
L 506.69952 445.217726 
L 507.692226 447.316072 
L 508.684932 415.439085 
L 509.677637 451.290725 
L 510.670343 435.907756 
L 511.663049 425.716884 
L 512.655755 423.232406 
L 513.648461 417.889278 
L 514.641167 436.177225 
L 515.633873 427.491043 
L 516.626579 423.110336 
L 517.619285 423.949575 
L 518.611991 440.552056 
L 519.604697 430.417111 
L 520.597403 432.525283 
L 521.590109 436.432216 
L 522.582814 442.22618 
L 523.57552 418.841615 
L 524.568226 428.928443 
L 525.560932 481.939247 
L 526.553638 426.737894 
L 527.546344 414.297606 
L 528.53905 454.02343 
L 529.531756 433.325363 
L 530.524462 443.935802 
L 531.517168 417.372903 
L 532.509874 480.436711 
L 533.50258 426.112509 
L 534.495286 460.293403 
L 535.487991 441.713721 
L 536.480697 420.308868 
L 537.473403 433.000148 
L 538.466109 437.577402 
L 539.458815 436.628007 
L 540.451521 426.352767 
L 541.444227 413.310648 
L 542.436933 423.905034 
L 543.429639 433.263545 
L 544.422345 435.056756 
L 545.415051 412.550987 
L 546.407757 448.57208 
L 547.400463 438.206637 
L 548.393168 434.298781 
L 549.385874 434.132449 
L 550.37858 456.952107 
L 552.363992 415.274138 
L 553.356698 492.48 
L 554.349404 413.753601 
L 555.34211 458.473349 
L 556.334816 447.786306 
L 557.327522 452.104837 
L 558.320228 432.786497 
L 559.312934 418.474372 
L 560.30564 453.629059 
L 561.298345 446.283556 
L 562.291051 421.2811 
L 563.283757 440.866567 
L 564.276463 456.24443 
L 565.269169 456.835055 
L 566.261875 446.453373 
L 567.254581 465.789859 
L 568.247287 438.918963 
L 569.239993 430.190009 
L 570.232699 437.658904 
L 571.225405 434.166461 
L 572.218111 452.847416 
L 573.210817 463.557458 
L 574.203523 443.472398 
L 575.196228 463.334145 
L 576.188934 467.78051 
L 577.18164 448.596952 
L 578.174346 427.253174 
L 579.167052 426.112244 
L 580.159758 472.098592 
L 581.152464 447.913102 
L 582.14517 458.249932 
L 583.137876 431.610915 
L 584.130582 440.034997 
L 585.123288 426.575161 
L 586.115994 430.280811 
L 587.1087 413.059089 
L 588.101405 439.454151 
L 589.094111 433.555667 
L 590.086817 437.376763 
L 591.079523 461.652314 
L 592.072229 457.301863 
L 593.064935 431.982785 
L 594.057641 445.497129 
L 595.050347 431.734747 
L 596.043053 433.372444 
L 597.035759 452.088559 
L 598.028465 444.759273 
L 599.021171 443.535367 
L 600.013877 435.299188 
L 601.006582 453.014549 
L 601.999288 433.727442 
L 602.991994 452.73563 
L 603.9847 437.352605 
L 604.977406 439.010602 
L 605.970112 439.923778 
L 606.962818 432.133088 
L 607.955524 455.977719 
L 608.94823 463.833335 
L 609.940936 445.519925 
L 610.933642 468.704483 
L 611.926348 442.27189 
L 612.919054 443.3623 
L 613.911759 442.306198 
L 614.904465 437.89798 
L 615.897171 446.6023 
L 616.889877 434.539862 
L 617.882583 437.972438 
L 618.875289 459.483366 
L 619.867995 443.618777 
L 620.860701 434.871629 
L 621.853407 444.835771 
L 622.846113 437.078364 
L 623.838819 462.243944 
L 624.831525 449.368355 
L 625.824231 450.777178 
L 626.816936 450.9824 
L 627.809642 452.83899 
L 628.802348 447.175494 
L 629.795054 445.062791 
L 630.78776 461.125119 
L 631.780466 444.081395 
L 632.773172 446.299715 
L 633.765878 444.510592 
L 634.758584 445.491683 
L 635.75129 444.246984 
L 636.743996 452.963456 
L 637.736702 443.214692 
L 638.729408 451.193725 
L 639.722114 451.449947 
L 640.714819 448.551823 
L 641.707525 451.40568 
L 642.700231 452.482819 
L 643.692937 449.676418 
L 644.685643 448.51373 
L 645.678349 453.280622 
L 646.671055 457.477423 
L 647.663761 453.302898 
L 648.656467 447.343901 
L 649.649173 453.277259 
L 650.641879 448.069707 
L 651.634585 449.934431 
L 652.627291 453.893323 
L 653.619996 449.75596 
L 654.612702 453.663385 
L 655.605408 454.098611 
L 656.598114 445.13653 
L 657.59082 451.391564 
L 658.583526 446.841719 
L 659.576232 450.055436 
L 660.568938 450.562847 
L 661.561644 445.622389 
L 662.55435 451.267967 
L 663.547056 448.424173 
L 664.539762 454.077598 
L 665.532468 452.852719 
L 666.525173 449.468172 
L 667.517879 455.604323 
L 668.510585 453.98726 
L 669.503291 451.62559 
L 670.495997 448.692383 
L 671.488703 447.996083 
L 672.481409 453.25312 
L 673.474115 450.213072 
L 674.466821 450.753088 
L 675.459527 456.258947 
L 676.452233 452.947863 
L 677.444939 453.801785 
L 678.437645 452.404498 
L 679.43035 454.588635 
L 681.415762 455.522884 
L 682.408468 456.1649 
L 683.401174 451.426574 
L 684.39388 453.070545 
L 685.386586 454.954509 
L 686.379292 451.801831 
L 687.371998 454.323556 
L 688.364704 452.255355 
L 689.35741 456.055571 
L 690.350116 453.209595 
L 691.342822 457.659578 
L 692.335527 453.755312 
L 693.328233 457.129307 
L 694.320939 451.00057 
L 695.313645 454.308617 
L 696.306351 456.757268 
L 697.299057 453.192209 
L 698.291763 455.581074 
L 699.284469 454.916567 
L 700.277175 454.46871 
L 701.269881 455.017254 
L 702.262587 456.464974 
L 703.255293 454.744868 
L 704.247999 455.327622 
L 705.240705 454.34889 
L 706.23341 454.614572 
L 707.226116 454.276537 
L 708.218822 457.567069 
L 709.211528 455.44533 
L 710.204234 455.611944 
L 711.19694 457.021427 
L 712.189646 457.433395 
L 713.182352 455.89412 
L 714.175058 454.983514 
L 715.167764 455.894472 
L 716.16047 456.206029 
L 717.153176 457.322068 
L 718.145882 459.08132 
L 719.138587 454.899574 
L 720.131293 459.069876 
L 721.123999 456.446106 
L 722.116705 457.023755 
L 723.109411 454.995436 
L 724.102117 457.792232 
L 725.094823 457.350459 
L 726.087529 457.304485 
L 727.080235 458.160381 
L 728.072941 456.432082 
L 729.065647 457.904739 
L 730.058353 459.064415 
L 731.051059 457.383174 
L 732.043764 457.126185 
L 733.03647 457.164711 
L 734.029176 458.935761 
L 735.021882 457.744335 
L 736.014588 457.578033 
L 738 459.697399 
L 738.992706 457.918508 
L 739.985412 458.721921 
L 740.978118 457.818759 
L 741.970824 459.668207 
L 742.96353 458.15322 
L 743.956236 459.397547 
L 744.948941 459.600928 
L 745.941647 459.295956 
L 746.934353 459.308102 
L 747.927059 459.835209 
L 748.919765 459.50084 
L 749.912471 459.608283 
L 750.905177 458.935792 
L 751.897883 461.596945 
L 752.890589 460.613748 
L 753.883295 460.92568 
L 754.876001 460.478179 
L 755.868707 459.465233 
L 756.861413 460.491676 
L 757.854118 460.13253 
L 758.846824 460.125078 
L 759.83953 459.243655 
L 761.824942 459.722065 
L 762.817648 460.119649 
L 763.810354 460.76509 
L 765.795766 461.426478 
L 766.788472 460.992122 
L 767.781178 461.612147 
L 768.773884 461.239328 
L 769.76659 461.058402 
L 770.759295 461.332411 
L 771.752001 461.795536 
L 772.744707 462.896155 
L 773.737413 461.174022 
L 774.730119 461.122514 
L 775.722825 461.881824 
L 776.715531 463.508364 
L 777.708237 460.596666 
L 778.700943 462.163164 
L 779.693649 461.826933 
L 780.686355 461.354969 
L 781.679061 461.687055 
L 782.671767 461.604703 
L 783.664473 464.0262 
L 784.657178 462.550427 
L 785.649884 462.270315 
L 786.64259 462.117128 
L 788.628002 462.969499 
L 789.620708 463.198384 
L 790.613414 463.803565 
L 791.60612 462.654503 
L 792.598826 462.8882 
L 793.591532 464.510288 
L 794.584238 463.135102 
L 795.576944 463.550646 
L 796.56965 462.765922 
L 797.562355 462.636588 
L 798.555061 462.723975 
L 799.547767 463.024363 
L 800.540473 462.669568 
L 801.533179 463.630883 
L 802.525885 463.609696 
L 803.518591 464.761293 
L 804.511297 464.237298 
L 805.504003 463.952526 
L 806.496709 462.201942 
L 807.489415 463.920499 
L 808.482121 464.155835 
L 809.474827 464.762463 
L 810.467532 463.366166 
L 811.460238 463.328897 
L 812.452944 463.813533 
L 813.44565 466.028577 
L 814.438356 464.501307 
L 815.431062 463.839521 
L 816.423768 464.505614 
L 817.416474 463.959622 
L 818.40918 464.999196 
L 819.401886 464.771271 
L 822.380004 464.871418 
L 823.372709 463.776972 
L 825.358121 466.269538 
L 826.350827 466.274014 
L 827.343533 465.43219 
L 828.336239 465.446719 
L 830.321651 464.617084 
L 831.314357 465.484298 
L 832.307063 464.435938 
L 834.292475 465.654897 
L 835.285181 466.137636 
L 836.277886 467.80669 
L 837.270592 465.724004 
L 838.263298 466.165791 
L 839.256004 467.198538 
L 840.24871 464.211858 
L 841.241416 464.52999 
L 842.234122 465.587631 
L 843.226828 466.892587 
L 844.219534 466.088151 
L 845.21224 466.01247 
L 846.204946 467.157259 
L 847.197652 465.700514 
L 848.190358 467.235248 
L 849.183064 466.879149 
L 850.175769 466.258384 
L 851.168475 466.938637 
L 852.161181 467.269904 
L 853.153887 467.869804 
L 854.146593 467.716777 
L 855.139299 467.029915 
L 856.132005 468.367078 
L 857.124711 466.355157 
L 858.117417 466.435583 
L 859.110123 466.038741 
L 860.102829 468.01968 
L 861.095535 466.877057 
L 862.088241 467.951694 
L 863.080946 468.321454 
L 864.073652 467.00314 
L 865.066358 468.799125 
L 866.059064 468.804728 
L 867.05177 467.900798 
L 868.044476 467.19266 
L 869.037182 467.249223 
L 870.029888 468.906418 
L 871.022594 468.475964 
L 872.0153 468.212194 
L 874.000712 468.471623 
L 874.993418 469.205274 
L 875.986123 467.701835 
L 876.978829 467.996844 
L 877.971535 468.000432 
L 878.964241 469.804799 
L 879.956947 469.412532 
L 880.949653 467.551935 
L 881.942359 467.53705 
L 882.935065 469.188854 
L 883.927771 468.933666 
L 884.920477 470.372944 
L 885.913183 468.719133 
L 886.905889 469.975666 
L 887.898595 470.55667 
L 888.8913 468.488019 
L 889.884006 470.104392 
L 890.876712 469.371524 
L 891.869418 468.411543 
L 892.862124 468.923255 
L 893.85483 469.665928 
L 894.847536 468.218575 
L 895.840242 469.104427 
L 896.832948 470.638963 
L 897.825654 469.740694 
L 898.81836 470.400567 
L 899.811066 469.568955 
L 900.803772 470.242834 
L 901.796477 470.636425 
L 902.789183 470.037 
L 903.781889 470.081269 
L 904.774595 468.181299 
L 905.767301 470.218686 
L 906.760007 470.489782 
L 907.752713 469.438173 
L 909.738125 470.500704 
L 910.730831 470.317253 
L 911.723537 469.925008 
L 912.716243 470.023289 
L 913.708949 469.969105 
L 914.701655 470.649119 
L 915.69436 468.869316 
L 916.687066 468.584922 
L 917.679772 470.964448 
L 918.672478 471.716176 
L 919.665184 469.495118 
L 920.65789 471.270543 
L 921.650596 470.318831 
L 922.643302 470.83906 
L 923.636008 470.926182 
L 924.628714 469.218908 
L 926.614126 472.128622 
L 927.606832 470.07416 
L 928.599537 470.659779 
L 929.592243 471.983578 
L 930.584949 469.640355 
L 931.577655 472.233159 
L 932.570361 470.36437 
L 933.563067 470.921465 
L 934.555773 471.809894 
L 935.548479 471.719806 
L 936.541185 471.041339 
L 937.533891 471.488895 
L 938.526597 470.488904 
L 939.519303 473.293242 
L 940.512009 472.999327 
L 941.504714 470.114598 
L 942.49742 469.509504 
L 943.490126 472.981326 
L 944.482832 472.149847 
L 945.475538 470.232778 
L 946.468244 471.854417 
L 947.46095 471.718813 
L 948.453656 472.754861 
L 949.446362 471.822114 
L 950.439068 471.897868 
L 951.431774 472.690932 
L 952.42448 471.718632 
L 953.417186 473.023424 
L 954.409891 472.365943 
L 955.402597 472.713006 
L 956.395303 471.303137 
L 957.388009 472.562665 
L 958.380715 472.327764 
L 959.373421 471.848524 
L 960.366127 471.642776 
L 961.358833 473.313356 
L 962.351539 471.328468 
L 963.344245 472.02206 
L 964.336951 473.166346 
L 965.329657 471.370586 
L 966.322363 472.785088 
L 967.315068 471.71366 
L 968.307774 473.222199 
L 969.30048 472.745387 
L 970.293186 473.893652 
L 971.285892 473.297551 
L 972.278598 473.269394 
L 973.271304 473.026536 
L 974.26401 471.967707 
L 975.256716 473.935194 
L 976.249422 471.934901 
L 978.234834 474.752069 
L 979.22754 473.891069 
L 980.220246 474.73366 
L 981.212951 474.834794 
L 982.205657 473.98248 
L 984.191069 473.354322 
L 985.183775 473.248048 
L 986.176481 473.268954 
L 987.169187 474.130373 
L 988.161893 472.893164 
L 989.154599 473.698801 
L 990.147305 473.84351 
L 991.140011 473.439858 
L 992.132717 473.431454 
L 993.125423 472.973586 
L 994.118128 473.139342 
L 995.110834 474.029305 
L 996.10354 472.573912 
L 997.096246 473.373206 
L 998.088952 474.872671 
L 999.081658 475.170912 
L 1000.074364 473.922005 
L 1001.06707 473.880788 
L 1002.059776 474.159833 
L 1003.052482 474.198627 
L 1004.045188 475.543678 
L 1005.037894 474.058593 
L 1006.0306 474.770408 
L 1007.023305 476.357653 
L 1008.016011 473.41959 
L 1009.008717 474.835854 
L 1010.001423 474.793108 
L 1010.994129 475.128078 
L 1011.986835 474.952457 
L 1012.979541 473.991871 
L 1013.972247 474.440975 
L 1014.964953 475.060562 
L 1015.957659 473.873134 
L 1016.950365 473.965171 
L 1017.943071 473.727634 
L 1018.935777 474.582505 
L 1019.928482 474.774047 
L 1020.921188 474.537058 
L 1022.9066 475.359381 
L 1023.899306 474.362366 
L 1024.892012 474.38539 
L 1025.884718 475.573961 
L 1026.877424 474.338697 
L 1027.87013 474.164329 
L 1028.862836 475.259921 
L 1029.855542 476.028121 
L 1030.848248 475.66145 
L 1031.840954 477.327927 
L 1032.833659 474.308014 
L 1033.826365 474.104625 
L 1035.811777 477.954311 
L 1037.797189 474.092022 
L 1038.789895 474.243502 
L 1039.782601 475.186108 
L 1040.775307 473.972978 
L 1041.768013 475.645653 
L 1042.760719 475.176035 
L 1043.753425 475.423085 
L 1044.746131 475.4842 
L 1045.738837 476.172511 
L 1046.731542 474.999553 
L 1047.724248 474.642296 
L 1048.716954 476.048739 
L 1049.70966 475.139545 
L 1050.702366 475.452895 
L 1051.695072 475.613061 
L 1052.687778 475.648304 
L 1053.680484 474.988851 
L 1055.665896 476.751653 
L 1056.658602 474.112446 
L 1057.651308 475.264963 
L 1058.644014 475.807444 
L 1059.636719 475.693551 
L 1060.629425 475.056423 
L 1061.622131 476.077078 
L 1062.614837 475.431454 
L 1063.607543 474.629052 
L 1064.600249 475.607451 
L 1065.592955 476.394139 
L 1066.585661 475.549632 
L 1067.578367 475.935568 
L 1068.571073 475.421815 
L 1069.563779 474.487762 
L 1070.556485 475.707434 
L 1071.549191 474.612337 
L 1072.541896 477.266322 
L 1073.534602 476.453127 
L 1074.527308 475.061028 
L 1075.520014 475.977067 
L 1076.51272 475.787658 
L 1077.505426 476.702803 
L 1078.498132 475.720158 
L 1079.490838 476.286648 
L 1080.483544 476.427321 
L 1082.468956 475.5992 
L 1083.461662 475.502952 
L 1084.454368 477.015396 
L 1085.447073 474.855737 
L 1086.439779 475.528832 
L 1087.432485 477.678613 
L 1088.425191 477.247233 
L 1089.417897 476.613027 
L 1090.410603 476.997502 
L 1091.403309 477.540059 
L 1092.396015 475.758478 
L 1093.388721 476.525851 
L 1094.381427 476.599673 
L 1095.374133 476.107088 
L 1096.366839 477.370762 
L 1097.359545 476.596261 
L 1098.35225 477.318145 
L 1099.344956 476.918191 
L 1100.337662 477.431476 
L 1101.330368 477.388459 
L 1102.323074 477.671964 
L 1103.31578 476.509233 
L 1104.308486 477.38688 
L 1108.27931 476.101739 
L 1109.272016 477.315248 
L 1110.264722 478.264972 
L 1111.257428 477.418594 
L 1112.250133 476.235689 
L 1113.242839 475.458502 
L 1114.235545 474.421284 
L 1115.228251 477.123477 
L 1116.220957 476.887426 
L 1117.213663 477.45566 
L 1118.206369 476.996384 
L 1119.199075 477.103896 
L 1120.191781 476.412857 
L 1121.184487 476.607045 
L 1122.177193 477.176353 
L 1123.169899 476.142832 
L 1124.162605 477.881565 
L 1125.15531 477.811535 
L 1126.148016 475.675766 
L 1127.140722 477.420236 
L 1128.133428 478.296483 
L 1129.126134 478.571892 
L 1130.11884 477.619522 
L 1131.111546 477.018406 
L 1132.104252 478.64781 
L 1133.096958 477.934835 
L 1134.089664 478.034413 
L 1135.08237 475.828901 
L 1136.075076 478.700856 
L 1137.067782 477.340479 
L 1138.060487 477.179898 
L 1139.053193 477.304887 
L 1140.045899 476.795239 
L 1141.038605 476.61033 
L 1142.031311 477.089219 
L 1143.024017 476.287768 
L 1144.016723 477.762954 
L 1145.009429 477.129298 
L 1146.002135 478.253826 
L 1146.994841 478.627648 
L 1147.987547 478.334621 
L 1148.980253 477.097038 
L 1149.972959 477.647999 
L 1150.965664 478.357938 
L 1151.95837 475.878789 
L 1152.951076 477.140331 
L 1153.943782 477.260046 
L 1154.936488 478.480679 
L 1155.929194 479.27436 
L 1156.9219 477.567309 
L 1157.914606 477.486657 
L 1158.907312 477.228658 
L 1159.900018 478.142487 
L 1160.892724 477.768049 
L 1161.88543 478.300226 
L 1162.878136 477.521073 
L 1163.870841 478.356334 
L 1164.863547 476.193538 
L 1165.856253 478.770575 
L 1166.848959 478.215034 
L 1167.841665 475.929956 
L 1168.834371 477.437339 
L 1169.827077 477.653016 
L 1170.819783 477.384716 
L 1171.812489 478.037804 
L 1172.805195 477.168976 
L 1173.797901 477.843306 
L 1174.790607 476.540182 
L 1175.783313 478.253245 
L 1176.776019 479.445592 
L 1178.76143 475.61987 
L 1179.754136 476.838423 
L 1180.746842 476.996241 
L 1181.739548 479.661865 
L 1182.732254 478.293458 
L 1183.72496 477.905526 
L 1184.717666 478.322368 
L 1185.710372 478.975129 
L 1186.703078 476.279583 
L 1187.695784 477.511442 
L 1188.68849 478.1586 
L 1189.681196 478.095517 
L 1190.673901 478.857367 
L 1191.666607 476.920979 
L 1192.659313 476.457188 
L 1193.652019 477.791754 
L 1194.644725 478.019922 
L 1195.637431 477.198709 
L 1196.630137 479.573501 
L 1197.622843 478.331543 
L 1198.615549 477.399687 
L 1199.608255 477.413861 
L 1200.600961 478.339194 
L 1201.593667 478.284821 
L 1202.586373 478.402032 
L 1203.579078 476.24535 
L 1204.571784 477.954654 
L 1205.56449 479.147393 
L 1206.557196 479.073183 
L 1207.549902 477.386883 
L 1208.542608 478.293695 
L 1209.535314 477.775023 
L 1210.52802 477.552706 
L 1211.520726 477.899016 
L 1212.513432 476.599656 
L 1213.506138 477.955887 
L 1214.498844 476.053215 
L 1215.49155 478.63292 
L 1216.484255 477.06553 
L 1218.469667 477.839238 
L 1219.462373 477.5121 
L 1220.455079 478.410176 
L 1221.447785 479.595827 
L 1222.440491 476.427635 
L 1223.433197 477.494003 
L 1224.425903 477.902739 
L 1225.418609 477.667938 
L 1226.411315 477.213214 
L 1227.404021 479.292412 
L 1228.396727 477.463347 
L 1229.389432 476.377929 
L 1230.382138 478.28257 
L 1231.374844 478.054371 
L 1232.36755 477.39918 
L 1233.360256 478.338001 
L 1234.352962 478.271085 
L 1235.345668 478.860273 
L 1236.338374 477.76719 
L 1237.33108 477.586637 
L 1238.323786 479.543097 
L 1239.316492 479.194031 
L 1240.309198 478.260871 
L 1241.301904 476.862394 
L 1242.29461 477.690063 
L 1243.287315 477.958487 
L 1244.280021 478.42497 
L 1245.272727 478.19331 
L 1245.272727 478.19331 
" clip-path="url(#p1e97b2831f)" style="fill: none; stroke: #1f77b4; stroke-width: 1.5; stroke-linecap: square"/>
   </g>
   <g id="patch_3">
    <path d="M 180 512.64 
L 180 69.12 
" style="fill: none; stroke: #000000; stroke-width: 0.8; stroke-linejoin: miter; stroke-linecap: square"/>
   </g>
   <g id="patch_4">
    <path d="M 1296 512.64 
L 1296 69.12 
" style="fill: none; stroke: #000000; stroke-width: 0.8; stroke-linejoin: miter; stroke-linecap: square"/>
   </g>
   <g id="patch_5">
    <path d="M 180 512.64 
L 1296 512.64 
" style="fill: none; stroke: #000000; stroke-width: 0.8; stroke-linejoin: miter; stroke-linecap: square"/>
   </g>
   <g id="patch_6">
    <path d="M 180 69.12 
L 1296 69.12 
" style="fill: none; stroke: #000000; stroke-width: 0.8; stroke-linejoin: miter; stroke-linecap: square"/>
   </g>
   <g id="text_15">
    <!-- source12-receiver15 -->
    <g transform="translate(532.175 60.80125) scale(0.4 -0.4)">
     <defs>
      <path id="DejaVuSans-73" d="M 2834 3397 
L 2834 2853 
Q 2591 2978 2328 3040 
Q 2066 3103 1784 3103 
Q 1356 3103 1142 2972 
Q 928 2841 928 2578 
Q 928 2378 1081 2264 
Q 1234 2150 1697 2047 
L 1894 2003 
Q 2506 1872 2764 1633 
Q 3022 1394 3022 966 
Q 3022 478 2636 193 
Q 2250 -91 1575 -91 
Q 1294 -91 989 -36 
Q 684 19 347 128 
L 347 722 
Q 666 556 975 473 
Q 1284 391 1588 391 
Q 1994 391 2212 530 
Q 2431 669 2431 922 
Q 2431 1156 2273 1281 
Q 2116 1406 1581 1522 
L 1381 1569 
Q 847 1681 609 1914 
Q 372 2147 372 2553 
Q 372 3047 722 3315 
Q 1072 3584 1716 3584 
Q 2034 3584 2315 3537 
Q 2597 3491 2834 3397 
z
" transform="scale(0.015625)"/>
      <path id="DejaVuSans-6f" d="M 1959 3097 
Q 1497 3097 1228 2736 
Q 959 2375 959 1747 
Q 959 1119 1226 758 
Q 1494 397 1959 397 
Q 2419 397 2687 759 
Q 2956 1122 2956 1747 
Q 2956 2369 2687 2733 
Q 2419 3097 1959 3097 
z
M 1959 3584 
Q 2709 3584 3137 3096 
Q 3566 2609 3566 1747 
Q 3566 888 3137 398 
Q 2709 -91 1959 -91 
Q 1206 -91 779 398 
Q 353 888 353 1747 
Q 353 2609 779 3096 
Q 1206 3584 1959 3584 
z
" transform="scale(0.015625)"/>
      <path id="DejaVuSans-75" d="M 544 1381 
L 544 3500 
L 1119 3500 
L 1119 1403 
Q 1119 906 1312 657 
Q 1506 409 1894 409 
Q 2359 409 2629 706 
Q 2900 1003 2900 1516 
L 2900 3500 
L 3475 3500 
L 3475 0 
L 2900 0 
L 2900 538 
Q 2691 219 2414 64 
Q 2138 -91 1772 -91 
Q 1169 -91 856 284 
Q 544 659 544 1381 
z
M 1991 3584 
L 1991 3584 
z
" transform="scale(0.015625)"/>
      <path id="DejaVuSans-72" d="M 2631 2963 
Q 2534 3019 2420 3045 
Q 2306 3072 2169 3072 
Q 1681 3072 1420 2755 
Q 1159 2438 1159 1844 
L 1159 0 
L 581 0 
L 581 3500 
L 1159 3500 
L 1159 2956 
Q 1341 3275 1631 3429 
Q 1922 3584 2338 3584 
Q 2397 3584 2469 3576 
Q 2541 3569 2628 3553 
L 2631 2963 
z
" transform="scale(0.015625)"/>
      <path id="DejaVuSans-63" d="M 3122 3366 
L 3122 2828 
Q 2878 2963 2633 3030 
Q 2388 3097 2138 3097 
Q 1578 3097 1268 2742 
Q 959 2388 959 1747 
Q 959 1106 1268 751 
Q 1578 397 2138 397 
Q 2388 397 2633 464 
Q 2878 531 3122 666 
L 3122 134 
Q 2881 22 2623 -34 
Q 2366 -91 2075 -91 
Q 1284 -91 818 406 
Q 353 903 353 1747 
Q 353 2603 823 3093 
Q 1294 3584 2113 3584 
Q 2378 3584 2631 3529 
Q 2884 3475 3122 3366 
z
" transform="scale(0.015625)"/>
      <path id="DejaVuSans-65" d="M 3597 1894 
L 3597 1613 
L 953 1613 
Q 991 1019 1311 708 
Q 1631 397 2203 397 
Q 2534 397 2845 478 
Q 3156 559 3463 722 
L 3463 178 
Q 3153 47 2828 -22 
Q 2503 -91 2169 -91 
Q 1331 -91 842 396 
Q 353 884 353 1716 
Q 353 2575 817 3079 
Q 1281 3584 2069 3584 
Q 2775 3584 3186 3129 
Q 3597 2675 3597 1894 
z
M 3022 2063 
Q 3016 2534 2758 2815 
Q 2500 3097 2075 3097 
Q 1594 3097 1305 2825 
Q 1016 2553 972 2059 
L 3022 2063 
z
" transform="scale(0.015625)"/>
      <path id="DejaVuSans-2d" d="M 313 2009 
L 1997 2009 
L 1997 1497 
L 313 1497 
L 313 2009 
z
" transform="scale(0.015625)"/>
      <path id="DejaVuSans-69" d="M 603 3500 
L 1178 3500 
L 1178 0 
L 603 0 
L 603 3500 
z
M 603 4863 
L 1178 4863 
L 1178 4134 
L 603 4134 
L 603 4863 
z
" transform="scale(0.015625)"/>
      <path id="DejaVuSans-76" d="M 191 3500 
L 800 3500 
L 1894 563 
L 2988 3500 
L 3597 3500 
L 2284 0 
L 1503 0 
L 191 3500 
z
" transform="scale(0.015625)"/>
     </defs>
     <use xlink:href="#DejaVuSans-73"/>
     <use xlink:href="#DejaVuSans-6f" x="52.099609"/>
     <use xlink:href="#DejaVuSans-75" x="113.28125"/>
     <use xlink:href="#DejaVuSans-72" x="176.660156"/>
     <use xlink:href="#DejaVuSans-63" x="215.523438"/>
     <use xlink:href="#DejaVuSans-65" x="270.503906"/>
     <use xlink:href="#DejaVuSans-31" x="332.027344"/>
     <use xlink:href="#DejaVuSans-32" x="395.650391"/>
     <use xlink:href="#DejaVuSans-2d" x="459.273438"/>
     <use xlink:href="#DejaVuSans-72" x="495.357422"/>
     <use xlink:href="#DejaVuSans-65" x="534.220703"/>
     <use xlink:href="#DejaVuSans-63" x="595.744141"/>
     <use xlink:href="#DejaVuSans-65" x="650.724609"/>
     <use xlink:href="#DejaVuSans-69" x="712.248047"/>
     <use xlink:href="#DejaVuSans-76" x="740.03125"/>
     <use xlink:href="#DejaVuSans-65" x="799.210938"/>
     <use xlink:href="#DejaVuSans-72" x="860.734375"/>
     <use xlink:href="#DejaVuSans-31" x="901.847656"/>
     <use xlink:href="#DejaVuSans-35" x="965.470703"/>
    </g>
   </g>
  </g>
 </g>
 <defs>
  <clipPath id="p1e97b2831f">
   <rect x="180" y="69.12" width="1116" height="443.52"/>
  </clipPath>
 </defs>
</svg>
