<?xml version="1.0" encoding="utf-8" standalone="no"?>
<!DOCTYPE svg PUBLIC "-//W3C//DTD SVG 1.1//EN"
  "http://www.w3.org/Graphics/SVG/1.1/DTD/svg11.dtd">
<svg xmlns:xlink="http://www.w3.org/1999/xlink" width="1440pt" height="576pt" viewBox="0 0 1440 576" xmlns="http://www.w3.org/2000/svg" version="1.1">
 <metadata>
  <rdf:RDF xmlns:dc="http://purl.org/dc/elements/1.1/" xmlns:cc="http://creativecommons.org/ns#" xmlns:rdf="http://www.w3.org/1999/02/22-rdf-syntax-ns#">
   <cc:Work>
    <dc:type rdf:resource="http://purl.org/dc/dcmitype/StillImage"/>
    <dc:date>2024-05-22T04:50:01.956003</dc:date>
    <dc:format>image/svg+xml</dc:format>
    <dc:creator>
     <cc:Agent>
      <dc:title>Matplotlib v3.8.3, https://matplotlib.org/</dc:title>
     </cc:Agent>
    </dc:creator>
   </cc:Work>
  </rdf:RDF>
 </metadata>
 <defs>
  <style type="text/css">*{stroke-linejoin: round; stroke-linecap: butt}</style>
 </defs>
 <g id="figure_1">
  <g id="patch_1">
   <path d="M 0 576 
L 1440 576 
L 1440 0 
L 0 0 
z
" style="fill: #ffffff"/>
  </g>
  <g id="axes_1">
   <g id="patch_2">
    <path d="M 180 512.64 
L 1296 512.64 
L 1296 69.12 
L 180 69.12 
z
" style="fill: #ffffff"/>
   </g>
   <g id="matplotlib.axis_1">
    <g id="xtick_1">
     <g id="line2d_1">
      <defs>
       <path id="m1ac4c5ad89" d="M 0 0 
L 0 3.5 
" style="stroke: #000000; stroke-width: 0.8"/>
      </defs>
      <g>
       <use xlink:href="#m1ac4c5ad89" x="229.734567" y="512.64" style="stroke: #000000; stroke-width: 0.8"/>
      </g>
     </g>
     <g id="text_1">
      <!-- 0 -->
      <g transform="translate(226.553317 527.238438) scale(0.1 -0.1)">
       <defs>
        <path id="DejaVuSans-30" d="M 2034 4250 
Q 1547 4250 1301 3770 
Q 1056 3291 1056 2328 
Q 1056 1369 1301 889 
Q 1547 409 2034 409 
Q 2525 409 2770 889 
Q 3016 1369 3016 2328 
Q 3016 3291 2770 3770 
Q 2525 4250 2034 4250 
z
M 2034 4750 
Q 2819 4750 3233 4129 
Q 3647 3509 3647 2328 
Q 3647 1150 3233 529 
Q 2819 -91 2034 -91 
Q 1250 -91 836 529 
Q 422 1150 422 2328 
Q 422 3509 836 4129 
Q 1250 4750 2034 4750 
z
" transform="scale(0.015625)"/>
       </defs>
       <use xlink:href="#DejaVuSans-30"/>
      </g>
     </g>
    </g>
    <g id="xtick_2">
     <g id="line2d_2">
      <g>
       <use xlink:href="#m1ac4c5ad89" x="433.04074" y="512.64" style="stroke: #000000; stroke-width: 0.8"/>
      </g>
     </g>
     <g id="text_2">
      <!-- 500 -->
      <g transform="translate(423.49699 527.238438) scale(0.1 -0.1)">
       <defs>
        <path id="DejaVuSans-35" d="M 691 4666 
L 3169 4666 
L 3169 4134 
L 1269 4134 
L 1269 2991 
Q 1406 3038 1543 3061 
Q 1681 3084 1819 3084 
Q 2600 3084 3056 2656 
Q 3513 2228 3513 1497 
Q 3513 744 3044 326 
Q 2575 -91 1722 -91 
Q 1428 -91 1123 -41 
Q 819 9 494 109 
L 494 744 
Q 775 591 1075 516 
Q 1375 441 1709 441 
Q 2250 441 2565 725 
Q 2881 1009 2881 1497 
Q 2881 1984 2565 2268 
Q 2250 2553 1709 2553 
Q 1456 2553 1204 2497 
Q 953 2441 691 2322 
L 691 4666 
z
" transform="scale(0.015625)"/>
       </defs>
       <use xlink:href="#DejaVuSans-35"/>
       <use xlink:href="#DejaVuSans-30" x="63.623047"/>
       <use xlink:href="#DejaVuSans-30" x="127.246094"/>
      </g>
     </g>
    </g>
    <g id="xtick_3">
     <g id="line2d_3">
      <g>
       <use xlink:href="#m1ac4c5ad89" x="636.346913" y="512.64" style="stroke: #000000; stroke-width: 0.8"/>
      </g>
     </g>
     <g id="text_3">
      <!-- 1000 -->
      <g transform="translate(623.621913 527.238438) scale(0.1 -0.1)">
       <defs>
        <path id="DejaVuSans-31" d="M 794 531 
L 1825 531 
L 1825 4091 
L 703 3866 
L 703 4441 
L 1819 4666 
L 2450 4666 
L 2450 531 
L 3481 531 
L 3481 0 
L 794 0 
L 794 531 
z
" transform="scale(0.015625)"/>
       </defs>
       <use xlink:href="#DejaVuSans-31"/>
       <use xlink:href="#DejaVuSans-30" x="63.623047"/>
       <use xlink:href="#DejaVuSans-30" x="127.246094"/>
       <use xlink:href="#DejaVuSans-30" x="190.869141"/>
      </g>
     </g>
    </g>
    <g id="xtick_4">
     <g id="line2d_4">
      <g>
       <use xlink:href="#m1ac4c5ad89" x="839.653087" y="512.64" style="stroke: #000000; stroke-width: 0.8"/>
      </g>
     </g>
     <g id="text_4">
      <!-- 1500 -->
      <g transform="translate(826.928087 527.238438) scale(0.1 -0.1)">
       <use xlink:href="#DejaVuSans-31"/>
       <use xlink:href="#DejaVuSans-35" x="63.623047"/>
       <use xlink:href="#DejaVuSans-30" x="127.246094"/>
       <use xlink:href="#DejaVuSans-30" x="190.869141"/>
      </g>
     </g>
    </g>
    <g id="xtick_5">
     <g id="line2d_5">
      <g>
       <use xlink:href="#m1ac4c5ad89" x="1042.95926" y="512.64" style="stroke: #000000; stroke-width: 0.8"/>
      </g>
     </g>
     <g id="text_5">
      <!-- 2000 -->
      <g transform="translate(1030.23426 527.238438) scale(0.1 -0.1)">
       <defs>
        <path id="DejaVuSans-32" d="M 1228 531 
L 3431 531 
L 3431 0 
L 469 0 
L 469 531 
Q 828 903 1448 1529 
Q 2069 2156 2228 2338 
Q 2531 2678 2651 2914 
Q 2772 3150 2772 3378 
Q 2772 3750 2511 3984 
Q 2250 4219 1831 4219 
Q 1534 4219 1204 4116 
Q 875 4013 500 3803 
L 500 4441 
Q 881 4594 1212 4672 
Q 1544 4750 1819 4750 
Q 2544 4750 2975 4387 
Q 3406 4025 3406 3419 
Q 3406 3131 3298 2873 
Q 3191 2616 2906 2266 
Q 2828 2175 2409 1742 
Q 1991 1309 1228 531 
z
" transform="scale(0.015625)"/>
       </defs>
       <use xlink:href="#DejaVuSans-32"/>
       <use xlink:href="#DejaVuSans-30" x="63.623047"/>
       <use xlink:href="#DejaVuSans-30" x="127.246094"/>
       <use xlink:href="#DejaVuSans-30" x="190.869141"/>
      </g>
     </g>
    </g>
    <g id="xtick_6">
     <g id="line2d_6">
      <g>
       <use xlink:href="#m1ac4c5ad89" x="1246.265433" y="512.64" style="stroke: #000000; stroke-width: 0.8"/>
      </g>
     </g>
     <g id="text_6">
      <!-- 2500 -->
      <g transform="translate(1233.540433 527.238438) scale(0.1 -0.1)">
       <use xlink:href="#DejaVuSans-32"/>
       <use xlink:href="#DejaVuSans-35" x="63.623047"/>
       <use xlink:href="#DejaVuSans-30" x="127.246094"/>
       <use xlink:href="#DejaVuSans-30" x="190.869141"/>
      </g>
     </g>
    </g>
   </g>
   <g id="matplotlib.axis_2">
    <g id="ytick_1">
     <g id="line2d_7">
      <defs>
       <path id="mda3300abd0" d="M 0 0 
L -3.5 0 
" style="stroke: #000000; stroke-width: 0.8"/>
      </defs>
      <g>
       <use xlink:href="#mda3300abd0" x="180" y="469.386451" style="stroke: #000000; stroke-width: 0.8"/>
      </g>
     </g>
     <g id="text_7">
      <!-- −6 -->
      <g transform="translate(158.257812 473.18567) scale(0.1 -0.1)">
       <defs>
        <path id="DejaVuSans-2212" d="M 678 2272 
L 4684 2272 
L 4684 1741 
L 678 1741 
L 678 2272 
z
" transform="scale(0.015625)"/>
        <path id="DejaVuSans-36" d="M 2113 2584 
Q 1688 2584 1439 2293 
Q 1191 2003 1191 1497 
Q 1191 994 1439 701 
Q 1688 409 2113 409 
Q 2538 409 2786 701 
Q 3034 994 3034 1497 
Q 3034 2003 2786 2293 
Q 2538 2584 2113 2584 
z
M 3366 4563 
L 3366 3988 
Q 3128 4100 2886 4159 
Q 2644 4219 2406 4219 
Q 1781 4219 1451 3797 
Q 1122 3375 1075 2522 
Q 1259 2794 1537 2939 
Q 1816 3084 2150 3084 
Q 2853 3084 3261 2657 
Q 3669 2231 3669 1497 
Q 3669 778 3244 343 
Q 2819 -91 2113 -91 
Q 1303 -91 875 529 
Q 447 1150 447 2328 
Q 447 3434 972 4092 
Q 1497 4750 2381 4750 
Q 2619 4750 2861 4703 
Q 3103 4656 3366 4563 
z
" transform="scale(0.015625)"/>
       </defs>
       <use xlink:href="#DejaVuSans-2212"/>
       <use xlink:href="#DejaVuSans-36" x="83.789062"/>
      </g>
     </g>
    </g>
    <g id="ytick_2">
     <g id="line2d_8">
      <g>
       <use xlink:href="#mda3300abd0" x="180" y="394.640711" style="stroke: #000000; stroke-width: 0.8"/>
      </g>
     </g>
     <g id="text_8">
      <!-- −4 -->
      <g transform="translate(158.257812 398.43993) scale(0.1 -0.1)">
       <defs>
        <path id="DejaVuSans-34" d="M 2419 4116 
L 825 1625 
L 2419 1625 
L 2419 4116 
z
M 2253 4666 
L 3047 4666 
L 3047 1625 
L 3713 1625 
L 3713 1100 
L 3047 1100 
L 3047 0 
L 2419 0 
L 2419 1100 
L 313 1100 
L 313 1709 
L 2253 4666 
z
" transform="scale(0.015625)"/>
       </defs>
       <use xlink:href="#DejaVuSans-2212"/>
       <use xlink:href="#DejaVuSans-34" x="83.789062"/>
      </g>
     </g>
    </g>
    <g id="ytick_3">
     <g id="line2d_9">
      <g>
       <use xlink:href="#mda3300abd0" x="180" y="319.894971" style="stroke: #000000; stroke-width: 0.8"/>
      </g>
     </g>
     <g id="text_9">
      <!-- −2 -->
      <g transform="translate(158.257812 323.694189) scale(0.1 -0.1)">
       <use xlink:href="#DejaVuSans-2212"/>
       <use xlink:href="#DejaVuSans-32" x="83.789062"/>
      </g>
     </g>
    </g>
    <g id="ytick_4">
     <g id="line2d_10">
      <g>
       <use xlink:href="#mda3300abd0" x="180" y="245.14923" style="stroke: #000000; stroke-width: 0.8"/>
      </g>
     </g>
     <g id="text_10">
      <!-- 0 -->
      <g transform="translate(166.6375 248.948449) scale(0.1 -0.1)">
       <use xlink:href="#DejaVuSans-30"/>
      </g>
     </g>
    </g>
    <g id="ytick_5">
     <g id="line2d_11">
      <g>
       <use xlink:href="#mda3300abd0" x="180" y="170.40349" style="stroke: #000000; stroke-width: 0.8"/>
      </g>
     </g>
     <g id="text_11">
      <!-- 2 -->
      <g transform="translate(166.6375 174.202709) scale(0.1 -0.1)">
       <use xlink:href="#DejaVuSans-32"/>
      </g>
     </g>
    </g>
    <g id="ytick_6">
     <g id="line2d_12">
      <g>
       <use xlink:href="#mda3300abd0" x="180" y="95.65775" style="stroke: #000000; stroke-width: 0.8"/>
      </g>
     </g>
     <g id="text_12">
      <!-- 4 -->
      <g transform="translate(166.6375 99.456969) scale(0.1 -0.1)">
       <use xlink:href="#DejaVuSans-34"/>
      </g>
     </g>
    </g>
   </g>
   <g id="line2d_13">
    <path d="M 230.727273 187.236306 
L 231.719979 187.061576 
L 232.712685 186.601699 
L 235.690802 184.55907 
L 237.676214 183.040845 
L 241.647038 180.310387 
L 242.639744 179.757384 
L 243.63245 179.464269 
L 244.625156 179.696319 
L 246.610568 181.500239 
L 247.603273 178.584429 
L 248.595979 168.099602 
L 249.588685 154.43132 
L 250.581391 143.24021 
L 251.574097 135.96381 
L 252.566803 131.743745 
L 253.559509 129.430337 
L 254.552215 128.202349 
L 255.544921 127.555137 
L 256.537627 127.200164 
L 260.50845 126.387318 
L 261.501156 126.007209 
L 262.493862 125.495053 
L 264.479274 124.074622 
L 266.464686 122.252018 
L 269.442804 119.391378 
L 271.428216 117.872922 
L 272.420922 117.33848 
L 273.413627 117.012249 
L 274.406333 116.935093 
L 275.399039 117.123366 
L 276.391745 117.628253 
L 277.384451 118.52279 
L 278.377157 119.896975 
L 280.362569 123.9084 
L 281.355275 123.406009 
L 282.347981 119.652425 
L 286.318804 98.896602 
L 287.31151 94.919773 
L 288.304216 91.965627 
L 289.296922 90.097684 
L 290.289628 89.28 
L 291.282334 89.379069 
L 292.27504 90.2147 
L 293.267746 91.634524 
L 294.260452 93.538235 
L 296.245864 98.394544 
L 298.231276 104.001525 
L 300.216687 110.262882 
L 303.194805 120.534369 
L 306.172923 130.687501 
L 308.158335 136.246006 
L 309.151041 138.446998 
L 310.143747 140.267977 
L 311.136453 141.775952 
L 313.121864 144.247086 
L 315.107276 146.764852 
L 316.099982 148.288483 
L 317.092688 150.099613 
L 318.085394 152.245317 
L 319.0781 154.780227 
L 320.070806 157.70721 
L 322.056218 164.703126 
L 324.04163 172.257135 
L 325.034336 175.154101 
L 326.027041 176.595583 
L 327.019747 176.127126 
L 328.012453 173.904257 
L 329.005159 170.573163 
L 331.983277 159.654625 
L 332.975983 156.62278 
L 333.968689 154.021836 
L 334.961395 151.870559 
L 335.954101 150.1292 
L 336.946807 148.792247 
L 337.939513 147.831461 
L 338.932218 147.207575 
L 339.924924 146.92342 
L 340.91763 146.939575 
L 341.910336 147.231494 
L 342.903042 147.785168 
L 343.895748 148.537241 
L 345.88116 150.484383 
L 348.859278 153.643432 
L 349.851984 154.401295 
L 350.84469 154.984963 
L 351.837395 155.161541 
L 352.830101 155.203663 
L 353.822807 154.90978 
L 354.815513 154.438987 
L 358.786337 151.911756 
L 359.779043 151.499987 
L 360.771749 151.28546 
L 361.764455 151.303538 
L 362.757161 151.570688 
L 363.749867 152.13085 
L 364.742572 153.016013 
L 365.735278 154.258928 
L 366.727984 155.843217 
L 367.72069 157.825456 
L 368.713396 160.232712 
L 369.706102 163.121682 
L 370.698808 166.536377 
L 371.691514 170.559417 
L 372.68422 175.197785 
L 373.676926 180.592834 
L 375.662338 193.581897 
L 376.655044 200.559056 
L 377.64775 206.191063 
L 378.640455 208.143601 
L 379.633161 205.480858 
L 381.618573 194.188868 
L 382.611279 188.730692 
L 383.603985 184.003651 
L 384.596691 179.996597 
L 385.589397 176.71794 
L 386.582103 174.021549 
L 387.574809 171.881461 
L 388.567515 170.194203 
L 389.560221 168.885148 
L 390.552927 167.949681 
L 391.545632 167.324785 
L 392.538338 166.966023 
L 393.531044 166.819521 
L 394.52375 166.891298 
L 396.509162 167.426754 
L 399.48728 168.683778 
L 402.465398 169.88069 
L 404.450809 170.532236 
L 407.428927 171.449524 
L 408.421633 171.821331 
L 410.407045 172.922196 
L 411.399751 173.607755 
L 412.392457 174.491151 
L 413.385163 175.532679 
L 414.377869 176.756587 
L 416.363281 179.791143 
L 418.348692 183.656055 
L 420.334104 188.43378 
L 422.319516 193.962142 
L 428.275752 212.846784 
L 429.268458 215.443547 
L 430.261163 217.533596 
L 431.253869 219.039902 
L 432.246575 219.757821 
L 433.239281 219.796791 
L 434.231987 219.078789 
L 435.224693 217.785585 
L 436.217399 216.049381 
L 438.202811 211.44659 
L 444.159046 196.238217 
L 446.144458 192.062522 
L 448.12987 188.694444 
L 449.122576 187.295723 
L 450.115282 186.107006 
L 451.107988 185.155842 
L 452.100694 184.423175 
L 453.0934 183.887804 
L 454.086106 183.574596 
L 455.078812 183.472343 
L 456.071518 183.572695 
L 457.064223 183.869346 
L 458.056929 184.434646 
L 459.049635 185.193421 
L 460.042341 186.127653 
L 461.035047 187.28778 
L 462.027753 188.626182 
L 463.020459 190.241285 
L 465.005871 194.07152 
L 466.991283 198.861607 
L 467.983989 201.538644 
L 469.9694 208.011985 
L 471.954812 216.016494 
L 472.947518 220.584284 
L 474.93293 232.635702 
L 476.918342 249.231565 
L 478.903754 269.695969 
L 479.89646 271.968001 
L 480.889166 263.541354 
L 481.881872 252.323376 
L 482.874577 242.799128 
L 483.867283 234.731842 
L 484.859989 228.127126 
L 485.852695 222.388865 
L 486.845401 217.620521 
L 487.838107 213.578225 
L 488.830813 210.147096 
L 489.823519 207.231527 
L 490.816225 204.724871 
L 491.808931 202.714457 
L 492.801637 201.033699 
L 493.794343 199.696963 
L 494.787049 198.791147 
L 495.779754 198.104444 
L 496.77246 197.770009 
L 497.765166 197.773484 
L 498.757872 198.125258 
L 499.750578 198.754679 
L 500.743284 199.733651 
L 501.73599 201.063952 
L 502.728696 202.671413 
L 503.721402 204.620216 
L 504.714108 207.012143 
L 505.706814 209.701615 
L 506.69952 212.812723 
L 508.684932 220.225079 
L 512.655755 236.741522 
L 513.648461 239.603599 
L 514.641167 240.889461 
L 515.633873 240.508713 
L 516.626579 239.179511 
L 519.604697 231.594112 
L 521.590109 227.540729 
L 522.582814 225.840461 
L 524.568226 223.410326 
L 525.560932 222.605773 
L 527.546344 221.451915 
L 528.53905 221.095834 
L 532.509874 220.405511 
L 534.495286 220.32866 
L 535.487991 220.507875 
L 536.480697 220.566237 
L 537.473403 220.980199 
L 538.466109 221.520532 
L 539.458815 222.341603 
L 540.451521 223.449395 
L 541.444227 224.916465 
L 542.436933 226.795769 
L 543.429639 229.277833 
L 544.422345 232.43101 
L 545.415051 236.399049 
L 546.407757 241.261319 
L 547.400463 247.255534 
L 548.393168 255.318659 
L 550.37858 275.586403 
L 551.371286 280.18798 
L 552.363992 272.607012 
L 554.349404 249.892321 
L 555.34211 240.840368 
L 556.334816 233.504111 
L 557.327522 227.432852 
L 558.320228 222.397857 
L 559.312934 218.180221 
L 560.30564 214.637646 
L 561.298345 211.530988 
L 562.291051 209.081523 
L 563.283757 206.977549 
L 564.276463 205.317009 
L 565.269169 203.999769 
L 566.261875 202.992626 
L 567.254581 202.446869 
L 568.247287 202.153024 
L 569.239993 202.218862 
L 570.232699 202.56704 
L 571.225405 203.214026 
L 572.218111 204.097162 
L 573.210817 205.394536 
L 574.203523 206.965591 
L 575.196228 208.811908 
L 576.188934 210.996359 
L 578.174346 216.438757 
L 579.167052 219.715211 
L 581.152464 227.492647 
L 583.137876 237.308856 
L 585.123288 249.622604 
L 586.115994 256.440029 
L 587.1087 264.914813 
L 588.101405 274.421525 
L 589.094111 285.00964 
L 591.079523 311.05602 
L 592.072229 320.321051 
L 593.064935 318.206711 
L 594.057641 308.066359 
L 596.043053 290.222851 
L 597.035759 282.85785 
L 599.021171 270.271037 
L 601.006582 259.366254 
L 602.991994 249.896935 
L 603.9847 245.994279 
L 605.970112 239.246943 
L 607.955524 233.905086 
L 609.940936 229.987039 
L 610.933642 228.580324 
L 611.926348 227.428948 
L 612.919054 226.588587 
L 613.911759 226.016725 
L 614.904465 225.870468 
L 615.897171 225.984768 
L 616.889877 226.345112 
L 617.882583 227.026741 
L 618.875289 228.08148 
L 619.867995 229.39141 
L 620.860701 230.98287 
L 621.853407 233.036643 
L 623.838819 238.018173 
L 625.824231 244.71724 
L 627.809642 253.317096 
L 628.802348 258.444952 
L 629.795054 264.409237 
L 631.780466 278.745391 
L 632.773172 287.737899 
L 634.758584 309.112841 
L 635.75129 320.068673 
L 636.743996 325.996753 
L 637.736702 323.417163 
L 639.722114 311.591953 
L 640.714819 306.175447 
L 642.700231 300.300877 
L 643.692937 297.88301 
L 644.685643 295.888573 
L 645.678349 294.334412 
L 647.663761 290.869275 
L 648.656467 288.253863 
L 649.649173 286.136254 
L 651.634585 281.128763 
L 653.619996 276.548126 
L 655.605408 272.9348 
L 656.598114 271.468095 
L 658.583526 269.549824 
L 659.576232 269.000645 
L 660.568938 268.866002 
L 662.55435 269.882984 
L 663.547056 270.715587 
L 664.539762 271.978528 
L 666.525173 275.046744 
L 669.503291 280.500989 
L 670.495997 282.010631 
L 672.481409 283.885807 
L 673.474115 283.697235 
L 674.466821 283.087294 
L 676.452233 280.828748 
L 677.444939 279.083729 
L 679.43035 276.233803 
L 681.415762 274.146434 
L 683.401174 273.148324 
L 684.39388 273.292793 
L 685.386586 273.29709 
L 686.379292 273.959225 
L 687.371998 274.961017 
L 688.364704 276.238609 
L 690.350116 280.075333 
L 691.342822 282.878929 
L 693.328233 289.426183 
L 694.320939 293.734018 
L 696.306351 304.164826 
L 699.284469 323.253864 
L 700.277175 326.076973 
L 701.269881 325.516242 
L 702.262587 321.299681 
L 704.247999 309.971679 
L 706.23341 300.671283 
L 708.218822 294.080368 
L 710.204234 289.752466 
L 711.19694 288.576278 
L 713.182352 287.581788 
L 714.175058 287.575223 
L 715.167764 288.306264 
L 716.16047 289.455403 
L 717.153176 290.966806 
L 718.145882 293.136838 
L 720.131293 299.543583 
L 721.123999 304.326699 
L 722.116705 310.11042 
L 723.109411 317.238645 
L 725.094823 333.636172 
L 726.087529 338.47288 
L 727.080235 334.421543 
L 729.065647 315.601008 
L 730.058353 307.665343 
L 731.051059 300.775169 
L 732.043764 295.07533 
L 734.029176 286.325798 
L 735.021882 283.097041 
L 736.014588 280.434033 
L 737.007294 278.25317 
L 738 276.699355 
L 738.992706 275.414169 
L 739.985412 274.840778 
L 740.978118 274.618882 
L 741.970824 274.78838 
L 742.96353 275.46202 
L 743.956236 276.58623 
L 744.948941 278.147515 
L 745.941647 280.126826 
L 746.934353 282.882639 
L 747.927059 286.291438 
L 748.919765 290.098847 
L 749.912471 294.859041 
L 752.890589 311.255412 
L 753.883295 315.529211 
L 754.876001 315.86104 
L 755.868707 312.23879 
L 759.83953 291.059138 
L 760.832236 287.205971 
L 761.824942 283.90963 
L 762.817648 281.310845 
L 763.810354 279.086148 
L 764.80306 277.523101 
L 765.795766 276.536858 
L 766.788472 275.97583 
L 767.781178 275.831489 
L 768.773884 276.072411 
L 769.76659 276.772968 
L 771.752001 279.373241 
L 772.744707 281.369809 
L 773.737413 283.801832 
L 775.722825 289.50137 
L 778.700943 298.495356 
L 779.693649 300.347341 
L 780.686355 300.962406 
L 781.679061 300.431011 
L 782.671767 298.867429 
L 786.64259 289.557911 
L 787.635296 287.800027 
L 788.628002 286.383454 
L 789.620708 285.570365 
L 790.613414 285.144238 
L 791.60612 285.104037 
L 792.598826 285.440514 
L 793.591532 286.653349 
L 794.584238 288.34835 
L 795.576944 290.496636 
L 796.56965 293.157271 
L 797.562355 296.586134 
L 799.547767 305.280043 
L 800.540473 310.320028 
L 801.533179 314.570823 
L 802.525885 317.133596 
L 803.518591 316.803938 
L 804.511297 312.849234 
L 805.504003 308.011629 
L 806.496709 302.16525 
L 808.482121 292.43137 
L 809.474827 288.405372 
L 810.467532 285.053679 
L 811.460238 282.132844 
L 812.452944 279.911144 
L 813.44565 278.216986 
L 814.438356 276.857258 
L 815.431062 275.998992 
L 816.423768 275.675171 
L 817.416474 275.61498 
L 818.40918 276.12371 
L 819.401886 276.881638 
L 820.394592 278.296468 
L 821.387298 279.963865 
L 822.380004 282.259181 
L 823.372709 285.083293 
L 824.365415 288.562075 
L 825.358121 292.746224 
L 826.350827 297.567809 
L 827.343533 303.158433 
L 829.328945 315.770434 
L 830.321651 321.295967 
L 831.314357 322.501505 
L 832.307063 319.907194 
L 833.299769 314.896547 
L 834.292475 308.649425 
L 836.277886 298.095459 
L 837.270592 293.75975 
L 838.263298 290.277786 
L 839.256004 287.4456 
L 840.24871 285.1259 
L 841.241416 283.3576 
L 842.234122 281.908548 
L 843.226828 281.081281 
L 844.219534 280.646466 
L 845.21224 280.403474 
L 846.204946 280.807621 
L 847.197652 281.356773 
L 848.190358 282.414704 
L 849.183064 283.771453 
L 850.175769 285.576982 
L 851.168475 287.674653 
L 852.161181 290.069024 
L 853.153887 292.79793 
L 854.146593 295.900723 
L 858.117417 309.554848 
L 859.110123 312.026407 
L 860.102829 313.825323 
L 861.095535 314.408641 
L 862.088241 313.887169 
L 863.080946 313.060804 
L 865.066358 309.70316 
L 867.05177 305.838587 
L 869.037182 302.850525 
L 870.029888 301.765233 
L 872.0153 300.149026 
L 873.008006 299.595813 
L 874.993418 298.219343 
L 876.978829 297.229268 
L 877.971535 296.401143 
L 880.949653 294.381135 
L 882.935065 292.808788 
L 883.927771 292.187889 
L 885.913183 291.430399 
L 886.905889 291.240711 
L 887.898595 291.47938 
L 889.884006 292.522171 
L 891.869418 295.188744 
L 893.85483 299.7212 
L 894.847536 302.798976 
L 895.840242 306.558906 
L 896.832948 311.102929 
L 897.825654 316.389572 
L 900.803772 335.487883 
L 901.796477 337.050355 
L 902.789183 333.480529 
L 904.774595 318.885105 
L 906.760007 306.054364 
L 907.752713 301.062865 
L 908.745419 296.733127 
L 909.738125 292.966673 
L 911.723537 287.480155 
L 912.716243 285.532196 
L 913.708949 283.855083 
L 915.69436 282.176074 
L 916.687066 281.810971 
L 917.679772 282.079445 
L 918.672478 282.773994 
L 919.665184 283.716981 
L 920.65789 285.297521 
L 921.650596 287.295542 
L 922.643302 289.691535 
L 923.636008 292.944184 
L 924.628714 296.938425 
L 925.62142 301.818699 
L 926.614126 307.872865 
L 927.606832 315.668393 
L 928.599537 325.971154 
L 929.592243 339.603006 
L 930.584949 358.554258 
L 931.577655 370.437333 
L 933.563067 336.341725 
L 934.555773 323.525532 
L 935.548479 314.461519 
L 936.541185 307.419635 
L 937.533891 302.148362 
L 938.526597 297.879756 
L 939.519303 294.348968 
L 940.512009 291.584996 
L 941.504714 289.482057 
L 942.49742 287.955587 
L 943.490126 286.772963 
L 944.482832 286.26587 
L 945.475538 286.131195 
L 946.468244 286.588558 
L 947.46095 287.342418 
L 948.453656 288.488118 
L 949.446362 290.37415 
L 950.439068 292.598142 
L 951.431774 295.462306 
L 952.42448 298.819843 
L 953.417186 303.09481 
L 954.409891 308.00206 
L 955.402597 314.131634 
L 956.395303 321.116633 
L 959.373421 344.450527 
L 960.366127 344.186522 
L 961.358833 338.327542 
L 962.351539 330.443204 
L 963.344245 323.572413 
L 964.336951 317.684242 
L 965.329657 312.640787 
L 966.322363 308.632989 
L 967.315068 305.608899 
L 968.307774 303.197086 
L 969.30048 301.117423 
L 970.293186 300.227068 
L 971.285892 299.153774 
L 972.278598 299.085587 
L 973.271304 299.255775 
L 974.26401 299.858422 
L 975.256716 300.793105 
L 978.234834 306.354536 
L 979.22754 308.798847 
L 981.212951 314.40642 
L 982.205657 316.664184 
L 983.198363 318.627937 
L 984.191069 319.522219 
L 985.183775 319.931929 
L 986.176481 318.968576 
L 987.169187 316.976988 
L 988.161893 315.259923 
L 990.147305 311.004252 
L 991.140011 309.243111 
L 993.125423 306.738485 
L 994.118128 306.115466 
L 995.110834 305.897372 
L 996.10354 305.854102 
L 997.096246 306.643476 
L 998.088952 307.641223 
L 999.081658 309.265633 
L 1000.074364 311.477373 
L 1001.06707 314.049123 
L 1003.052482 321.306493 
L 1005.037894 329.994833 
L 1006.0306 334.285275 
L 1007.023305 337.480091 
L 1008.016011 337.725478 
L 1009.008717 335.884219 
L 1010.994129 326.520354 
L 1013.972247 313.095252 
L 1014.964953 309.679716 
L 1015.957659 307.120197 
L 1016.950365 304.868187 
L 1017.943071 302.934949 
L 1018.935777 301.715952 
L 1019.928482 300.946787 
L 1020.921188 300.458547 
L 1021.913894 300.480926 
L 1022.9066 300.774765 
L 1023.899306 301.939124 
L 1024.892012 303.477772 
L 1025.884718 305.277016 
L 1026.877424 307.707884 
L 1027.87013 310.52736 
L 1028.862836 314.284475 
L 1029.855542 318.867124 
L 1030.848248 324.289854 
L 1031.840954 331.479339 
L 1032.833659 339.878458 
L 1034.819071 358.452243 
L 1035.811777 361.810216 
L 1036.804483 355.79701 
L 1038.789895 338.261231 
L 1039.782601 331.23961 
L 1040.775307 325.061966 
L 1041.768013 320.34711 
L 1042.760719 316.582488 
L 1043.753425 313.526711 
L 1044.746131 311.053035 
L 1045.738837 309.189311 
L 1046.731542 307.836096 
L 1047.724248 306.958798 
L 1048.716954 306.540444 
L 1049.70966 306.514213 
L 1050.702366 306.816547 
L 1052.687778 308.685087 
L 1053.680484 310.519719 
L 1054.67319 312.692998 
L 1056.658602 317.792938 
L 1059.636719 327.778421 
L 1061.622131 334.729725 
L 1062.614837 337.407615 
L 1063.607543 338.863979 
L 1064.600249 339.742522 
L 1065.592955 339.129626 
L 1066.585661 338.291317 
L 1068.571073 334.953476 
L 1069.563779 333.58767 
L 1070.556485 332.010905 
L 1071.549191 331.069224 
L 1073.534602 329.914784 
L 1075.520014 330.253086 
L 1076.51272 330.109021 
L 1077.505426 330.894006 
L 1078.498132 330.21503 
L 1079.490838 330.900505 
L 1080.483544 330.502352 
L 1081.47625 329.911253 
L 1082.468956 329.072757 
L 1083.461662 327.800224 
L 1085.447073 324.239892 
L 1087.432485 321.262014 
L 1088.425191 319.4643 
L 1089.417897 318.350685 
L 1090.410603 316.821421 
L 1091.403309 316.019165 
L 1092.396015 315.682484 
L 1093.388721 315.618114 
L 1094.381427 315.926201 
L 1095.374133 316.723742 
L 1096.366839 318.029499 
L 1097.359545 319.606293 
L 1098.35225 322.086651 
L 1099.344956 325.255977 
L 1100.337662 329.048309 
L 1101.330368 334.535533 
L 1102.323074 340.748548 
L 1103.31578 350.263212 
L 1104.308486 362.03437 
L 1105.301192 381.046214 
L 1106.293898 432.05862 
L 1107.286604 410.11972 
L 1108.27931 372.969313 
L 1109.272016 355.57109 
L 1110.264722 343.848362 
L 1111.257428 335.132696 
L 1112.250133 328.505607 
L 1113.242839 323.121931 
L 1114.235545 318.947854 
L 1115.228251 315.280698 
L 1117.213663 310.082757 
L 1118.206369 308.138718 
L 1119.199075 307.042951 
L 1120.191781 306.252443 
L 1121.184487 305.863224 
L 1122.177193 306.002147 
L 1123.169899 306.496898 
L 1125.15531 308.950864 
L 1126.148016 311.045544 
L 1127.140722 313.719051 
L 1129.126134 320.003577 
L 1130.11884 324.58432 
L 1131.111546 329.842701 
L 1134.089664 350.014178 
L 1135.08237 354.60718 
L 1136.075076 353.974663 
L 1137.067782 348.643894 
L 1139.053193 335.345646 
L 1140.045899 329.298757 
L 1141.038605 324.532987 
L 1142.031311 320.329998 
L 1144.016723 314.297753 
L 1145.009429 312.204994 
L 1146.994841 309.254526 
L 1147.987547 308.692409 
L 1148.980253 308.40134 
L 1149.972959 308.757819 
L 1150.965664 309.381243 
L 1151.95837 310.495394 
L 1152.951076 311.837853 
L 1153.943782 313.579138 
L 1155.929194 318.902532 
L 1157.914606 327.1043 
L 1159.900018 337.823653 
L 1161.88543 351.525343 
L 1162.878136 359.159288 
L 1163.870841 361.953182 
L 1164.863547 360.891209 
L 1165.856253 355.613237 
L 1167.841665 344.296081 
L 1168.834371 338.857313 
L 1169.827077 335.063718 
L 1170.819783 331.841727 
L 1171.812489 329.07969 
L 1173.797901 325.645549 
L 1174.790607 324.990586 
L 1175.783313 324.191318 
L 1176.776019 324.371517 
L 1177.768724 325.173067 
L 1179.754136 328.216171 
L 1181.739548 333.521813 
L 1183.72496 341.203817 
L 1184.717666 346.883992 
L 1186.703078 361.21422 
L 1187.695784 372.154662 
L 1188.68849 388.092629 
L 1189.681196 412.466438 
L 1190.673901 492.48 
L 1191.666607 420.946067 
L 1192.659313 394.541141 
L 1193.652019 379.773882 
L 1194.644725 371.287205 
L 1195.637431 365.594736 
L 1196.630137 360.835374 
L 1197.622843 357.169841 
L 1198.615549 356.501269 
L 1199.608255 354.729565 
L 1200.600961 355.327118 
L 1201.593667 355.213801 
L 1202.586373 357.306393 
L 1203.579078 360.541972 
L 1204.571784 364.906618 
L 1205.56449 367.850454 
L 1207.549902 383.341177 
L 1208.542608 393.754785 
L 1210.52802 423.431595 
L 1211.520726 415.392879 
L 1212.513432 398.413781 
L 1213.506138 385.12363 
L 1214.498844 375.518114 
L 1215.49155 367.389137 
L 1216.484255 361.963499 
L 1218.469667 354.747443 
L 1219.462373 351.376658 
L 1220.455079 349.772991 
L 1221.447785 348.70864 
L 1222.440491 348.166416 
L 1223.433197 348.424962 
L 1224.425903 348.432093 
L 1225.418609 350.129306 
L 1226.411315 352.442858 
L 1228.396727 358.008462 
L 1229.389432 361.734646 
L 1230.382138 366.370269 
L 1233.360256 375.123856 
L 1234.352962 373.844126 
L 1235.345668 371.581474 
L 1238.323786 357.605516 
L 1239.316492 354.447278 
L 1240.309198 350.24134 
L 1241.301904 347.606269 
L 1242.29461 345.767649 
L 1243.287315 343.37935 
L 1244.280021 342.625294 
L 1245.272727 341.629359 
L 1245.272727 341.629359 
" clip-path="url(#p56a1f0bea2)" style="fill: none; stroke: #1f77b4; stroke-width: 1.5; stroke-linecap: square"/>
   </g>
   <g id="patch_3">
    <path d="M 180 512.64 
L 180 69.12 
" style="fill: none; stroke: #000000; stroke-width: 0.8; stroke-linejoin: miter; stroke-linecap: square"/>
   </g>
   <g id="patch_4">
    <path d="M 1296 512.64 
L 1296 69.12 
" style="fill: none; stroke: #000000; stroke-width: 0.8; stroke-linejoin: miter; stroke-linecap: square"/>
   </g>
   <g id="patch_5">
    <path d="M 180 512.64 
L 1296 512.64 
" style="fill: none; stroke: #000000; stroke-width: 0.8; stroke-linejoin: miter; stroke-linecap: square"/>
   </g>
   <g id="patch_6">
    <path d="M 180 69.12 
L 1296 69.12 
" style="fill: none; stroke: #000000; stroke-width: 0.8; stroke-linejoin: miter; stroke-linecap: square"/>
   </g>
   <g id="text_13">
    <!-- source12-receiver12 -->
    <g transform="translate(532.175 60.80125) scale(0.4 -0.4)">
     <defs>
      <path id="DejaVuSans-73" d="M 2834 3397 
L 2834 2853 
Q 2591 2978 2328 3040 
Q 2066 3103 1784 3103 
Q 1356 3103 1142 2972 
Q 928 2841 928 2578 
Q 928 2378 1081 2264 
Q 1234 2150 1697 2047 
L 1894 2003 
Q 2506 1872 2764 1633 
Q 3022 1394 3022 966 
Q 3022 478 2636 193 
Q 2250 -91 1575 -91 
Q 1294 -91 989 -36 
Q 684 19 347 128 
L 347 722 
Q 666 556 975 473 
Q 1284 391 1588 391 
Q 1994 391 2212 530 
Q 2431 669 2431 922 
Q 2431 1156 2273 1281 
Q 2116 1406 1581 1522 
L 1381 1569 
Q 847 1681 609 1914 
Q 372 2147 372 2553 
Q 372 3047 722 3315 
Q 1072 3584 1716 3584 
Q 2034 3584 2315 3537 
Q 2597 3491 2834 3397 
z
" transform="scale(0.015625)"/>
      <path id="DejaVuSans-6f" d="M 1959 3097 
Q 1497 3097 1228 2736 
Q 959 2375 959 1747 
Q 959 1119 1226 758 
Q 1494 397 1959 397 
Q 2419 397 2687 759 
Q 2956 1122 2956 1747 
Q 2956 2369 2687 2733 
Q 2419 3097 1959 3097 
z
M 1959 3584 
Q 2709 3584 3137 3096 
Q 3566 2609 3566 1747 
Q 3566 888 3137 398 
Q 2709 -91 1959 -91 
Q 1206 -91 779 398 
Q 353 888 353 1747 
Q 353 2609 779 3096 
Q 1206 3584 1959 3584 
z
" transform="scale(0.015625)"/>
      <path id="DejaVuSans-75" d="M 544 1381 
L 544 3500 
L 1119 3500 
L 1119 1403 
Q 1119 906 1312 657 
Q 1506 409 1894 409 
Q 2359 409 2629 706 
Q 2900 1003 2900 1516 
L 2900 3500 
L 3475 3500 
L 3475 0 
L 2900 0 
L 2900 538 
Q 2691 219 2414 64 
Q 2138 -91 1772 -91 
Q 1169 -91 856 284 
Q 544 659 544 1381 
z
M 1991 3584 
L 1991 3584 
z
" transform="scale(0.015625)"/>
      <path id="DejaVuSans-72" d="M 2631 2963 
Q 2534 3019 2420 3045 
Q 2306 3072 2169 3072 
Q 1681 3072 1420 2755 
Q 1159 2438 1159 1844 
L 1159 0 
L 581 0 
L 581 3500 
L 1159 3500 
L 1159 2956 
Q 1341 3275 1631 3429 
Q 1922 3584 2338 3584 
Q 2397 3584 2469 3576 
Q 2541 3569 2628 3553 
L 2631 2963 
z
" transform="scale(0.015625)"/>
      <path id="DejaVuSans-63" d="M 3122 3366 
L 3122 2828 
Q 2878 2963 2633 3030 
Q 2388 3097 2138 3097 
Q 1578 3097 1268 2742 
Q 959 2388 959 1747 
Q 959 1106 1268 751 
Q 1578 397 2138 397 
Q 2388 397 2633 464 
Q 2878 531 3122 666 
L 3122 134 
Q 2881 22 2623 -34 
Q 2366 -91 2075 -91 
Q 1284 -91 818 406 
Q 353 903 353 1747 
Q 353 2603 823 3093 
Q 1294 3584 2113 3584 
Q 2378 3584 2631 3529 
Q 2884 3475 3122 3366 
z
" transform="scale(0.015625)"/>
      <path id="DejaVuSans-65" d="M 3597 1894 
L 3597 1613 
L 953 1613 
Q 991 1019 1311 708 
Q 1631 397 2203 397 
Q 2534 397 2845 478 
Q 3156 559 3463 722 
L 3463 178 
Q 3153 47 2828 -22 
Q 2503 -91 2169 -91 
Q 1331 -91 842 396 
Q 353 884 353 1716 
Q 353 2575 817 3079 
Q 1281 3584 2069 3584 
Q 2775 3584 3186 3129 
Q 3597 2675 3597 1894 
z
M 3022 2063 
Q 3016 2534 2758 2815 
Q 2500 3097 2075 3097 
Q 1594 3097 1305 2825 
Q 1016 2553 972 2059 
L 3022 2063 
z
" transform="scale(0.015625)"/>
      <path id="DejaVuSans-2d" d="M 313 2009 
L 1997 2009 
L 1997 1497 
L 313 1497 
L 313 2009 
z
" transform="scale(0.015625)"/>
      <path id="DejaVuSans-69" d="M 603 3500 
L 1178 3500 
L 1178 0 
L 603 0 
L 603 3500 
z
M 603 4863 
L 1178 4863 
L 1178 4134 
L 603 4134 
L 603 4863 
z
" transform="scale(0.015625)"/>
      <path id="DejaVuSans-76" d="M 191 3500 
L 800 3500 
L 1894 563 
L 2988 3500 
L 3597 3500 
L 2284 0 
L 1503 0 
L 191 3500 
z
" transform="scale(0.015625)"/>
     </defs>
     <use xlink:href="#DejaVuSans-73"/>
     <use xlink:href="#DejaVuSans-6f" x="52.099609"/>
     <use xlink:href="#DejaVuSans-75" x="113.28125"/>
     <use xlink:href="#DejaVuSans-72" x="176.660156"/>
     <use xlink:href="#DejaVuSans-63" x="215.523438"/>
     <use xlink:href="#DejaVuSans-65" x="270.503906"/>
     <use xlink:href="#DejaVuSans-31" x="332.027344"/>
     <use xlink:href="#DejaVuSans-32" x="395.650391"/>
     <use xlink:href="#DejaVuSans-2d" x="459.273438"/>
     <use xlink:href="#DejaVuSans-72" x="495.357422"/>
     <use xlink:href="#DejaVuSans-65" x="534.220703"/>
     <use xlink:href="#DejaVuSans-63" x="595.744141"/>
     <use xlink:href="#DejaVuSans-65" x="650.724609"/>
     <use xlink:href="#DejaVuSans-69" x="712.248047"/>
     <use xlink:href="#DejaVuSans-76" x="740.03125"/>
     <use xlink:href="#DejaVuSans-65" x="799.210938"/>
     <use xlink:href="#DejaVuSans-72" x="860.734375"/>
     <use xlink:href="#DejaVuSans-31" x="901.847656"/>
     <use xlink:href="#DejaVuSans-32" x="965.470703"/>
    </g>
   </g>
  </g>
 </g>
 <defs>
  <clipPath id="p56a1f0bea2">
   <rect x="180" y="69.12" width="1116" height="443.52"/>
  </clipPath>
 </defs>
</svg>
