<?xml version="1.0" encoding="utf-8" standalone="no"?>
<!DOCTYPE svg PUBLIC "-//W3C//DTD SVG 1.1//EN"
  "http://www.w3.org/Graphics/SVG/1.1/DTD/svg11.dtd">
<svg xmlns:xlink="http://www.w3.org/1999/xlink" width="1440pt" height="576pt" viewBox="0 0 1440 576" xmlns="http://www.w3.org/2000/svg" version="1.1">
 <metadata>
  <rdf:RDF xmlns:dc="http://purl.org/dc/elements/1.1/" xmlns:cc="http://creativecommons.org/ns#" xmlns:rdf="http://www.w3.org/1999/02/22-rdf-syntax-ns#">
   <cc:Work>
    <dc:type rdf:resource="http://purl.org/dc/dcmitype/StillImage"/>
    <dc:date>2024-05-22T04:50:02.850611</dc:date>
    <dc:format>image/svg+xml</dc:format>
    <dc:creator>
     <cc:Agent>
      <dc:title>Matplotlib v3.8.3, https://matplotlib.org/</dc:title>
     </cc:Agent>
    </dc:creator>
   </cc:Work>
  </rdf:RDF>
 </metadata>
 <defs>
  <style type="text/css">*{stroke-linejoin: round; stroke-linecap: butt}</style>
 </defs>
 <g id="figure_1">
  <g id="patch_1">
   <path d="M 0 576 
L 1440 576 
L 1440 0 
L 0 0 
z
" style="fill: #ffffff"/>
  </g>
  <g id="axes_1">
   <g id="patch_2">
    <path d="M 180 512.64 
L 1296 512.64 
L 1296 69.12 
L 180 69.12 
z
" style="fill: #ffffff"/>
   </g>
   <g id="matplotlib.axis_1">
    <g id="xtick_1">
     <g id="line2d_1">
      <defs>
       <path id="m3227e4d28a" d="M 0 0 
L 0 3.5 
" style="stroke: #000000; stroke-width: 0.8"/>
      </defs>
      <g>
       <use xlink:href="#m3227e4d28a" x="229.734567" y="512.64" style="stroke: #000000; stroke-width: 0.8"/>
      </g>
     </g>
     <g id="text_1">
      <!-- 0 -->
      <g transform="translate(226.553317 527.238438) scale(0.1 -0.1)">
       <defs>
        <path id="DejaVuSans-30" d="M 2034 4250 
Q 1547 4250 1301 3770 
Q 1056 3291 1056 2328 
Q 1056 1369 1301 889 
Q 1547 409 2034 409 
Q 2525 409 2770 889 
Q 3016 1369 3016 2328 
Q 3016 3291 2770 3770 
Q 2525 4250 2034 4250 
z
M 2034 4750 
Q 2819 4750 3233 4129 
Q 3647 3509 3647 2328 
Q 3647 1150 3233 529 
Q 2819 -91 2034 -91 
Q 1250 -91 836 529 
Q 422 1150 422 2328 
Q 422 3509 836 4129 
Q 1250 4750 2034 4750 
z
" transform="scale(0.015625)"/>
       </defs>
       <use xlink:href="#DejaVuSans-30"/>
      </g>
     </g>
    </g>
    <g id="xtick_2">
     <g id="line2d_2">
      <g>
       <use xlink:href="#m3227e4d28a" x="433.04074" y="512.64" style="stroke: #000000; stroke-width: 0.8"/>
      </g>
     </g>
     <g id="text_2">
      <!-- 500 -->
      <g transform="translate(423.49699 527.238438) scale(0.1 -0.1)">
       <defs>
        <path id="DejaVuSans-35" d="M 691 4666 
L 3169 4666 
L 3169 4134 
L 1269 4134 
L 1269 2991 
Q 1406 3038 1543 3061 
Q 1681 3084 1819 3084 
Q 2600 3084 3056 2656 
Q 3513 2228 3513 1497 
Q 3513 744 3044 326 
Q 2575 -91 1722 -91 
Q 1428 -91 1123 -41 
Q 819 9 494 109 
L 494 744 
Q 775 591 1075 516 
Q 1375 441 1709 441 
Q 2250 441 2565 725 
Q 2881 1009 2881 1497 
Q 2881 1984 2565 2268 
Q 2250 2553 1709 2553 
Q 1456 2553 1204 2497 
Q 953 2441 691 2322 
L 691 4666 
z
" transform="scale(0.015625)"/>
       </defs>
       <use xlink:href="#DejaVuSans-35"/>
       <use xlink:href="#DejaVuSans-30" x="63.623047"/>
       <use xlink:href="#DejaVuSans-30" x="127.246094"/>
      </g>
     </g>
    </g>
    <g id="xtick_3">
     <g id="line2d_3">
      <g>
       <use xlink:href="#m3227e4d28a" x="636.346913" y="512.64" style="stroke: #000000; stroke-width: 0.8"/>
      </g>
     </g>
     <g id="text_3">
      <!-- 1000 -->
      <g transform="translate(623.621913 527.238438) scale(0.1 -0.1)">
       <defs>
        <path id="DejaVuSans-31" d="M 794 531 
L 1825 531 
L 1825 4091 
L 703 3866 
L 703 4441 
L 1819 4666 
L 2450 4666 
L 2450 531 
L 3481 531 
L 3481 0 
L 794 0 
L 794 531 
z
" transform="scale(0.015625)"/>
       </defs>
       <use xlink:href="#DejaVuSans-31"/>
       <use xlink:href="#DejaVuSans-30" x="63.623047"/>
       <use xlink:href="#DejaVuSans-30" x="127.246094"/>
       <use xlink:href="#DejaVuSans-30" x="190.869141"/>
      </g>
     </g>
    </g>
    <g id="xtick_4">
     <g id="line2d_4">
      <g>
       <use xlink:href="#m3227e4d28a" x="839.653087" y="512.64" style="stroke: #000000; stroke-width: 0.8"/>
      </g>
     </g>
     <g id="text_4">
      <!-- 1500 -->
      <g transform="translate(826.928087 527.238438) scale(0.1 -0.1)">
       <use xlink:href="#DejaVuSans-31"/>
       <use xlink:href="#DejaVuSans-35" x="63.623047"/>
       <use xlink:href="#DejaVuSans-30" x="127.246094"/>
       <use xlink:href="#DejaVuSans-30" x="190.869141"/>
      </g>
     </g>
    </g>
    <g id="xtick_5">
     <g id="line2d_5">
      <g>
       <use xlink:href="#m3227e4d28a" x="1042.95926" y="512.64" style="stroke: #000000; stroke-width: 0.8"/>
      </g>
     </g>
     <g id="text_5">
      <!-- 2000 -->
      <g transform="translate(1030.23426 527.238438) scale(0.1 -0.1)">
       <defs>
        <path id="DejaVuSans-32" d="M 1228 531 
L 3431 531 
L 3431 0 
L 469 0 
L 469 531 
Q 828 903 1448 1529 
Q 2069 2156 2228 2338 
Q 2531 2678 2651 2914 
Q 2772 3150 2772 3378 
Q 2772 3750 2511 3984 
Q 2250 4219 1831 4219 
Q 1534 4219 1204 4116 
Q 875 4013 500 3803 
L 500 4441 
Q 881 4594 1212 4672 
Q 1544 4750 1819 4750 
Q 2544 4750 2975 4387 
Q 3406 4025 3406 3419 
Q 3406 3131 3298 2873 
Q 3191 2616 2906 2266 
Q 2828 2175 2409 1742 
Q 1991 1309 1228 531 
z
" transform="scale(0.015625)"/>
       </defs>
       <use xlink:href="#DejaVuSans-32"/>
       <use xlink:href="#DejaVuSans-30" x="63.623047"/>
       <use xlink:href="#DejaVuSans-30" x="127.246094"/>
       <use xlink:href="#DejaVuSans-30" x="190.869141"/>
      </g>
     </g>
    </g>
    <g id="xtick_6">
     <g id="line2d_6">
      <g>
       <use xlink:href="#m3227e4d28a" x="1246.265433" y="512.64" style="stroke: #000000; stroke-width: 0.8"/>
      </g>
     </g>
     <g id="text_6">
      <!-- 2500 -->
      <g transform="translate(1233.540433 527.238438) scale(0.1 -0.1)">
       <use xlink:href="#DejaVuSans-32"/>
       <use xlink:href="#DejaVuSans-35" x="63.623047"/>
       <use xlink:href="#DejaVuSans-30" x="127.246094"/>
       <use xlink:href="#DejaVuSans-30" x="190.869141"/>
      </g>
     </g>
    </g>
   </g>
   <g id="matplotlib.axis_2">
    <g id="ytick_1">
     <g id="line2d_7">
      <defs>
       <path id="m11b396fc93" d="M 0 0 
L -3.5 0 
" style="stroke: #000000; stroke-width: 0.8"/>
      </defs>
      <g>
       <use xlink:href="#m11b396fc93" x="180" y="497.732572" style="stroke: #000000; stroke-width: 0.8"/>
      </g>
     </g>
     <g id="text_7">
      <!-- −2 -->
      <g transform="translate(158.257812 501.531791) scale(0.1 -0.1)">
       <defs>
        <path id="DejaVuSans-2212" d="M 678 2272 
L 4684 2272 
L 4684 1741 
L 678 1741 
L 678 2272 
z
" transform="scale(0.015625)"/>
       </defs>
       <use xlink:href="#DejaVuSans-2212"/>
       <use xlink:href="#DejaVuSans-32" x="83.789062"/>
      </g>
     </g>
    </g>
    <g id="ytick_2">
     <g id="line2d_8">
      <g>
       <use xlink:href="#m11b396fc93" x="180" y="426.013089" style="stroke: #000000; stroke-width: 0.8"/>
      </g>
     </g>
     <g id="text_8">
      <!-- −1 -->
      <g transform="translate(158.257812 429.812308) scale(0.1 -0.1)">
       <use xlink:href="#DejaVuSans-2212"/>
       <use xlink:href="#DejaVuSans-31" x="83.789062"/>
      </g>
     </g>
    </g>
    <g id="ytick_3">
     <g id="line2d_9">
      <g>
       <use xlink:href="#m11b396fc93" x="180" y="354.293606" style="stroke: #000000; stroke-width: 0.8"/>
      </g>
     </g>
     <g id="text_9">
      <!-- 0 -->
      <g transform="translate(166.6375 358.092825) scale(0.1 -0.1)">
       <use xlink:href="#DejaVuSans-30"/>
      </g>
     </g>
    </g>
    <g id="ytick_4">
     <g id="line2d_10">
      <g>
       <use xlink:href="#m11b396fc93" x="180" y="282.574123" style="stroke: #000000; stroke-width: 0.8"/>
      </g>
     </g>
     <g id="text_10">
      <!-- 1 -->
      <g transform="translate(166.6375 286.373342) scale(0.1 -0.1)">
       <use xlink:href="#DejaVuSans-31"/>
      </g>
     </g>
    </g>
    <g id="ytick_5">
     <g id="line2d_11">
      <g>
       <use xlink:href="#m11b396fc93" x="180" y="210.85464" style="stroke: #000000; stroke-width: 0.8"/>
      </g>
     </g>
     <g id="text_11">
      <!-- 2 -->
      <g transform="translate(166.6375 214.653859) scale(0.1 -0.1)">
       <use xlink:href="#DejaVuSans-32"/>
      </g>
     </g>
    </g>
    <g id="ytick_6">
     <g id="line2d_12">
      <g>
       <use xlink:href="#m11b396fc93" x="180" y="139.135158" style="stroke: #000000; stroke-width: 0.8"/>
      </g>
     </g>
     <g id="text_12">
      <!-- 3 -->
      <g transform="translate(166.6375 142.934376) scale(0.1 -0.1)">
       <defs>
        <path id="DejaVuSans-33" d="M 2597 2516 
Q 3050 2419 3304 2112 
Q 3559 1806 3559 1356 
Q 3559 666 3084 287 
Q 2609 -91 1734 -91 
Q 1441 -91 1130 -33 
Q 819 25 488 141 
L 488 750 
Q 750 597 1062 519 
Q 1375 441 1716 441 
Q 2309 441 2620 675 
Q 2931 909 2931 1356 
Q 2931 1769 2642 2001 
Q 2353 2234 1838 2234 
L 1294 2234 
L 1294 2753 
L 1863 2753 
Q 2328 2753 2575 2939 
Q 2822 3125 2822 3475 
Q 2822 3834 2567 4026 
Q 2313 4219 1838 4219 
Q 1578 4219 1281 4162 
Q 984 4106 628 3988 
L 628 4550 
Q 988 4650 1302 4700 
Q 1616 4750 1894 4750 
Q 2613 4750 3031 4423 
Q 3450 4097 3450 3541 
Q 3450 3153 3228 2886 
Q 3006 2619 2597 2516 
z
" transform="scale(0.015625)"/>
       </defs>
       <use xlink:href="#DejaVuSans-33"/>
      </g>
     </g>
    </g>
   </g>
   <g id="line2d_13">
    <path d="M 230.727273 396.393477 
L 231.719979 396.115618 
L 232.712685 395.537994 
L 233.70539 394.648484 
L 234.698096 393.500596 
L 235.690802 392.603713 
L 236.683508 391.135892 
L 237.676214 390.071285 
L 238.66892 388.090351 
L 239.661626 386.682934 
L 242.639744 381.76927 
L 243.63245 380.303924 
L 244.625156 379.238884 
L 245.617862 379.982817 
L 246.610568 386.354749 
L 247.603273 384.185995 
L 249.588685 316.665458 
L 250.581391 301.408012 
L 251.574097 312.54723 
L 252.566803 381.633429 
L 253.559509 360.205969 
L 254.552215 303.102052 
L 255.544921 306.452753 
L 256.537627 368.028811 
L 257.530333 289.096674 
L 258.523039 255.49517 
L 259.515745 263.034749 
L 260.50845 311.334259 
L 261.501156 296.211393 
L 262.493862 262.582891 
L 263.486568 267.529622 
L 264.479274 266.521221 
L 265.47198 247.995021 
L 266.464686 259.357729 
L 267.457392 302.940636 
L 268.450098 296.323284 
L 269.442804 326.375673 
L 270.43551 299.621224 
L 271.428216 222.309906 
L 272.420922 208.964186 
L 273.413627 244.878289 
L 274.406333 223.216099 
L 275.399039 173.668094 
L 276.391745 163.814164 
L 277.384451 180.932615 
L 278.377157 181.740334 
L 279.369863 155.81092 
L 280.362569 153.046539 
L 281.355275 175.604055 
L 282.347981 149.857202 
L 283.340687 106.761693 
L 284.333393 89.28 
L 285.326099 95.077739 
L 286.318804 132.455382 
L 287.31151 325.449894 
L 288.304216 156.88014 
L 289.296922 132.809731 
L 290.289628 153.351346 
L 291.282334 218.713122 
L 293.267746 184.304214 
L 294.260452 216.637527 
L 295.253158 260.879425 
L 296.245864 236.323866 
L 297.23857 265.425725 
L 298.231276 358.071954 
L 299.223981 254.478733 
L 300.216687 249.568689 
L 301.209393 272.652026 
L 302.202099 264.087295 
L 303.194805 261.015662 
L 304.187511 284.482488 
L 305.180217 290.147775 
L 306.172923 283.683479 
L 307.165629 302.705313 
L 308.158335 310.009319 
L 309.151041 296.256077 
L 310.143747 296.42155 
L 311.136453 300.951436 
L 312.129159 304.158193 
L 313.121864 304.507996 
L 314.11457 306.868504 
L 315.107276 310.73735 
L 316.099982 312.392454 
L 317.092688 312.209085 
L 318.085394 314.98889 
L 319.0781 318.121509 
L 320.070806 318.25676 
L 321.063512 320.125611 
L 322.056218 322.289121 
L 323.048924 320.275525 
L 324.04163 326.209434 
L 325.034336 324.952485 
L 326.027041 328.906113 
L 327.019747 326.981982 
L 328.012453 331.355724 
L 329.005159 332.605714 
L 329.997865 331.733358 
L 330.990571 334.494758 
L 331.983277 335.962477 
L 332.975983 337.936233 
L 333.968689 336.074286 
L 334.961395 339.79032 
L 335.954101 341.363126 
L 336.946807 345.29015 
L 337.939513 339.136281 
L 338.932218 343.199328 
L 339.924924 344.7633 
L 340.91763 343.440345 
L 341.910336 346.371197 
L 342.903042 346.323227 
L 343.895748 346.082019 
L 344.888454 349.109241 
L 345.88116 352.610117 
L 346.873866 349.351722 
L 347.866572 350.95809 
L 348.859278 353.668279 
L 349.851984 354.654994 
L 350.84469 352.833985 
L 352.830101 359.250159 
L 353.822807 352.728851 
L 354.815513 358.319046 
L 355.808219 361.318041 
L 356.800925 362.019383 
L 357.793631 357.248147 
L 358.786337 364.325595 
L 359.779043 365.575364 
L 360.771749 360.429642 
L 361.764455 366.00649 
L 362.757161 364.933289 
L 363.749867 363.185421 
L 364.742572 364.769827 
L 366.727984 370.325259 
L 367.72069 368.281303 
L 368.713396 370.601015 
L 369.706102 368.629322 
L 370.698808 369.384136 
L 371.691514 370.345441 
L 372.68422 367.075241 
L 373.676926 372.215138 
L 374.669632 373.833917 
L 375.662338 372.483708 
L 376.655044 373.278767 
L 377.64775 373.384851 
L 379.633161 379.197652 
L 380.625867 381.467001 
L 381.618573 380.377597 
L 382.611279 378.857774 
L 383.603985 378.061088 
L 384.596691 381.147345 
L 385.589397 384.81966 
L 386.582103 380.816827 
L 387.574809 380.613168 
L 390.552927 379.377176 
L 391.545632 381.032736 
L 392.538338 382.166144 
L 393.531044 384.46734 
L 394.52375 384.765092 
L 395.516456 387.491135 
L 396.509162 388.588576 
L 397.501868 389.337311 
L 398.494574 388.170548 
L 399.48728 387.934837 
L 400.479986 393.688243 
L 401.472692 390.432442 
L 402.465398 393.417273 
L 403.458104 393.541584 
L 404.450809 391.632804 
L 405.443515 393.318663 
L 406.436221 386.384107 
L 407.428927 389.247677 
L 408.421633 395.672327 
L 409.414339 393.987838 
L 410.407045 393.24648 
L 411.399751 390.596031 
L 412.392457 394.121015 
L 413.385163 394.880153 
L 414.377869 394.461685 
L 415.370575 392.337171 
L 416.363281 392.66035 
L 417.355986 389.361329 
L 418.348692 398.94565 
L 419.341398 404.416988 
L 420.334104 397.797214 
L 421.32681 392.692421 
L 422.319516 400.008166 
L 423.312222 393.049668 
L 424.304928 399.946523 
L 425.297634 398.658229 
L 426.29034 404.313574 
L 427.283046 399.187985 
L 428.275752 400.694227 
L 429.268458 401.798962 
L 430.261163 400.317891 
L 431.253869 403.294925 
L 432.246575 404.298489 
L 433.239281 400.161264 
L 434.231987 403.964222 
L 435.224693 404.728821 
L 436.217399 404.079479 
L 437.210105 401.910536 
L 438.202811 411.38127 
L 439.195517 405.868902 
L 440.188223 406.975498 
L 441.180929 405.548297 
L 442.173635 404.590785 
L 443.166341 401.767216 
L 444.159046 403.361329 
L 445.151752 401.481264 
L 446.144458 409.527886 
L 447.137164 407.178343 
L 448.12987 409.402955 
L 449.122576 412.880948 
L 450.115282 408.592105 
L 451.107988 409.083141 
L 452.100694 411.398508 
L 453.0934 413.035934 
L 454.086106 412.587854 
L 455.078812 407.391139 
L 456.071518 411.466732 
L 457.064223 411.012668 
L 458.056929 414.16016 
L 459.049635 411.854314 
L 460.042341 411.29124 
L 461.035047 414.022637 
L 462.027753 414.437075 
L 463.020459 417.308188 
L 464.013165 408.607546 
L 465.005871 413.531437 
L 465.998577 416.269439 
L 466.991283 407.698399 
L 467.983989 417.15918 
L 468.976695 416.893343 
L 469.9694 412.882789 
L 470.962106 418.399119 
L 471.954812 417.821786 
L 472.947518 411.813259 
L 473.940224 410.597457 
L 474.93293 418.85131 
L 475.925636 414.531932 
L 476.918342 422.382098 
L 477.911048 416.061366 
L 478.903754 415.733298 
L 479.89646 413.466207 
L 480.889166 415.433642 
L 481.881872 427.941833 
L 482.874577 418.741308 
L 483.867283 421.33042 
L 484.859989 416.761665 
L 485.852695 420.895935 
L 486.845401 422.067915 
L 487.838107 424.848048 
L 488.830813 417.704086 
L 489.823519 421.713096 
L 490.816225 433.17278 
L 491.808931 416.122864 
L 492.801637 421.301279 
L 493.794343 424.479632 
L 495.779754 419.108841 
L 496.77246 423.471311 
L 497.765166 423.732473 
L 498.757872 428.323022 
L 499.750578 426.397576 
L 500.743284 414.395512 
L 501.73599 416.974278 
L 502.728696 418.798301 
L 503.721402 422.617697 
L 504.714108 431.767539 
L 505.706814 430.873203 
L 506.69952 421.199672 
L 507.692226 441.786403 
L 508.684932 427.361399 
L 509.677637 421.250296 
L 510.670343 437.44071 
L 511.663049 427.09533 
L 512.655755 424.883026 
L 513.648461 430.330471 
L 514.641167 423.416416 
L 515.633873 427.801127 
L 516.626579 431.265923 
L 517.619285 429.079991 
L 518.611991 431.373179 
L 519.604697 424.314308 
L 520.597403 434.155631 
L 521.590109 428.750596 
L 522.582814 432.763543 
L 523.57552 426.069742 
L 524.568226 423.086258 
L 525.560932 440.184316 
L 526.553638 429.383849 
L 527.546344 428.172422 
L 528.53905 430.543704 
L 529.531756 431.147324 
L 530.524462 436.398294 
L 531.517168 431.275626 
L 532.509874 437.272216 
L 533.50258 434.219826 
L 534.495286 438.385471 
L 535.487991 430.307254 
L 536.480697 425.856225 
L 537.473403 432.746724 
L 538.466109 437.447841 
L 539.458815 433.451508 
L 540.451521 437.113357 
L 541.444227 429.590948 
L 542.436933 428.166914 
L 543.429639 427.775278 
L 544.422345 438.269286 
L 545.415051 441.141323 
L 546.407757 435.797507 
L 547.400463 431.905446 
L 548.393168 432.401584 
L 549.385874 439.010711 
L 550.37858 440.350135 
L 551.371286 435.963786 
L 552.363992 448.661168 
L 553.356698 436.861105 
L 554.349404 438.922772 
L 555.34211 439.057934 
L 556.334816 434.740958 
L 557.327522 433.913907 
L 558.320228 443.795978 
L 559.312934 444.277586 
L 560.30564 443.979454 
L 561.298345 439.507447 
L 562.291051 433.86263 
L 563.283757 440.78575 
L 564.276463 441.05909 
L 565.269169 435.591187 
L 566.261875 442.390687 
L 567.254581 447.519792 
L 568.247287 437.347098 
L 569.239993 430.88405 
L 570.232699 446.991551 
L 571.225405 442.478433 
L 572.218111 439.484476 
L 573.210817 442.341428 
L 574.203523 440.076607 
L 575.196228 434.093705 
L 576.188934 450.047614 
L 577.18164 442.892463 
L 578.174346 447.664954 
L 579.167052 444.139706 
L 580.159758 436.276057 
L 581.152464 443.880546 
L 582.14517 438.148827 
L 583.137876 447.712519 
L 584.130582 445.022107 
L 585.123288 431.596011 
L 586.115994 445.320801 
L 587.1087 444.264766 
L 588.101405 436.218127 
L 589.094111 448.295897 
L 590.086817 440.618363 
L 591.079523 446.517254 
L 592.072229 439.323273 
L 593.064935 451.042644 
L 594.057641 443.172881 
L 595.050347 447.85382 
L 596.043053 440.91221 
L 597.035759 455.324644 
L 598.028465 444.965224 
L 599.021171 449.119015 
L 600.013877 443.145002 
L 601.006582 452.25259 
L 601.999288 446.94888 
L 602.991994 444.153825 
L 603.9847 447.217857 
L 604.977406 448.849998 
L 605.970112 449.121879 
L 606.962818 453.593221 
L 607.955524 453.700819 
L 608.94823 441.96825 
L 609.940936 447.092762 
L 610.933642 449.555249 
L 611.926348 448.007572 
L 612.919054 451.617539 
L 613.911759 448.688614 
L 614.904465 453.950216 
L 615.897171 454.76284 
L 616.889877 451.838135 
L 617.882583 445.584995 
L 618.875289 453.739402 
L 619.867995 451.406203 
L 620.860701 450.973766 
L 621.853407 450.917077 
L 622.846113 451.527897 
L 623.838819 452.493063 
L 624.831525 452.447382 
L 625.824231 451.688444 
L 626.816936 448.458026 
L 627.809642 447.636939 
L 628.802348 450.774749 
L 629.795054 448.599369 
L 630.78776 448.145912 
L 631.780466 447.843388 
L 632.773172 455.072051 
L 633.765878 446.50823 
L 634.758584 450.777699 
L 635.75129 453.925679 
L 636.743996 450.996983 
L 637.736702 456.16694 
L 638.729408 454.544708 
L 639.722114 452.290679 
L 640.714819 454.359746 
L 641.707525 453.467936 
L 642.700231 454.951207 
L 643.692937 452.797436 
L 644.685643 456.660695 
L 645.678349 453.335178 
L 646.671055 452.604572 
L 647.663761 454.418732 
L 648.656467 451.534879 
L 649.649173 450.788993 
L 650.641879 452.990285 
L 651.634585 451.724542 
L 652.627291 455.542565 
L 653.619996 454.947195 
L 654.612702 456.608392 
L 655.605408 454.452854 
L 656.598114 454.75588 
L 657.59082 456.308158 
L 658.583526 454.320244 
L 659.576232 455.779801 
L 660.568938 454.32214 
L 661.561644 456.368419 
L 662.55435 454.101042 
L 663.547056 457.154369 
L 664.539762 456.770294 
L 665.532468 457.086779 
L 666.525173 457.135654 
L 667.517879 455.812356 
L 668.510585 457.978572 
L 669.503291 454.976826 
L 670.495997 457.579123 
L 671.488703 458.032564 
L 672.481409 457.448648 
L 673.474115 458.298517 
L 674.466821 458.156829 
L 675.459527 457.515165 
L 676.452233 458.611596 
L 677.444939 460.159834 
L 678.437645 458.945845 
L 680.423056 458.616098 
L 681.415762 458.235307 
L 682.408468 460.218611 
L 683.401174 458.831806 
L 684.39388 459.2443 
L 685.386586 459.063626 
L 686.379292 459.714691 
L 688.364704 460.727243 
L 689.35741 459.830391 
L 690.350116 459.908991 
L 691.342822 460.327493 
L 692.335527 459.429408 
L 693.328233 461.742109 
L 694.320939 459.839601 
L 695.313645 460.993025 
L 696.306351 460.983434 
L 697.299057 460.318819 
L 698.291763 460.195186 
L 699.284469 461.060268 
L 700.277175 461.072872 
L 701.269881 462.113906 
L 702.262587 461.829038 
L 703.255293 461.739021 
L 704.247999 461.256787 
L 705.240705 462.086884 
L 706.23341 462.274258 
L 707.226116 461.989892 
L 708.218822 463.284663 
L 709.211528 462.527023 
L 710.204234 462.562213 
L 711.19694 463.065842 
L 712.189646 462.905137 
L 713.182352 462.873561 
L 714.175058 463.895702 
L 715.167764 464.045234 
L 717.153176 463.109548 
L 718.145882 463.902735 
L 719.138587 464.163574 
L 720.131293 463.518028 
L 722.116705 464.493099 
L 723.109411 464.219305 
L 724.102117 464.318574 
L 725.094823 464.917018 
L 726.087529 463.815693 
L 727.080235 464.267659 
L 728.072941 465.327848 
L 729.065647 464.611446 
L 730.058353 465.083692 
L 732.043764 465.051772 
L 733.03647 465.553022 
L 734.029176 465.272963 
L 735.021882 465.42271 
L 736.014588 465.935114 
L 737.007294 465.620988 
L 738.992706 466.15596 
L 739.985412 465.764436 
L 740.978118 466.866202 
L 741.970824 466.594847 
L 742.96353 466.469127 
L 743.956236 466.075168 
L 744.948941 466.931037 
L 745.941647 467.135559 
L 747.927059 467.045028 
L 749.912471 467.597598 
L 750.905177 466.949215 
L 751.897883 467.055423 
L 752.890589 467.663653 
L 753.883295 467.024861 
L 754.876001 467.765487 
L 755.868707 467.429423 
L 756.861413 467.66621 
L 757.854118 468.109508 
L 758.846824 468.941188 
L 759.83953 468.301512 
L 760.832236 468.430404 
L 761.824942 468.382431 
L 763.810354 469.062238 
L 764.80306 468.951195 
L 766.788472 469.090416 
L 767.781178 468.486553 
L 768.773884 469.827881 
L 769.76659 468.882582 
L 770.759295 469.659604 
L 771.752001 469.312628 
L 772.744707 470.141297 
L 773.737413 470.255167 
L 774.730119 470.036555 
L 775.722825 470.243877 
L 776.715531 469.933875 
L 777.708237 470.548125 
L 778.700943 470.358431 
L 779.693649 470.433421 
L 780.686355 470.361601 
L 782.671767 470.928361 
L 783.664473 470.649373 
L 784.657178 470.925936 
L 785.649884 471.515919 
L 787.635296 471.156203 
L 788.628002 471.140024 
L 789.620708 471.600898 
L 790.613414 471.611005 
L 791.60612 471.834687 
L 792.598826 471.696935 
L 793.591532 471.399363 
L 794.584238 472.338187 
L 795.576944 471.576149 
L 796.56965 472.068808 
L 797.562355 472.330837 
L 798.555061 471.993148 
L 799.547767 472.135568 
L 800.540473 472.554599 
L 802.525885 472.811007 
L 803.518591 472.945971 
L 805.504003 472.606423 
L 806.496709 473.115403 
L 807.489415 472.762568 
L 808.482121 473.4141 
L 809.474827 473.065011 
L 810.467532 473.346077 
L 811.460238 473.409024 
L 812.452944 473.200411 
L 813.44565 473.247288 
L 814.438356 474.088086 
L 815.431062 474.007606 
L 816.423768 473.725522 
L 817.416474 474.062352 
L 818.40918 473.72183 
L 819.401886 473.991596 
L 820.394592 474.43495 
L 821.387298 474.055319 
L 822.380004 474.649078 
L 823.372709 474.464154 
L 824.365415 475.349628 
L 825.358121 475.249224 
L 826.350827 474.695668 
L 827.343533 475.046297 
L 828.336239 475.109478 
L 829.328945 474.544835 
L 830.321651 475.27754 
L 831.314357 475.333654 
L 832.307063 475.064521 
L 833.299769 476.158408 
L 834.292475 475.315091 
L 835.285181 475.248617 
L 836.277886 475.682979 
L 837.270592 475.49469 
L 838.263298 475.723743 
L 840.24871 476.485641 
L 841.241416 476.425444 
L 842.234122 475.651551 
L 843.226828 475.722671 
L 844.219534 475.956347 
L 845.21224 476.811074 
L 846.204946 475.8809 
L 847.197652 477.102005 
L 848.190358 476.724031 
L 849.183064 476.084379 
L 850.175769 476.650191 
L 851.168475 476.589949 
L 852.161181 476.8821 
L 853.153887 477.820633 
L 854.146593 477.075088 
L 855.139299 476.917567 
L 856.132005 477.257085 
L 857.124711 476.500402 
L 859.110123 477.769054 
L 860.102829 478.343203 
L 861.095535 477.369823 
L 862.088241 477.709202 
L 864.073652 477.859554 
L 865.066358 477.373091 
L 866.059064 477.327019 
L 868.044476 478.35624 
L 869.037182 478.486416 
L 870.029888 478.91895 
L 871.022594 478.356888 
L 872.0153 478.304231 
L 873.008006 478.849575 
L 874.000712 478.703206 
L 874.993418 478.958788 
L 875.986123 479.393559 
L 876.978829 479.012965 
L 877.971535 477.769537 
L 878.964241 479.63083 
L 879.956947 478.430498 
L 880.949653 478.640891 
L 881.942359 479.795188 
L 882.935065 479.005776 
L 883.927771 479.679354 
L 884.920477 478.746569 
L 885.913183 479.606484 
L 886.905889 479.638004 
L 887.898595 479.439454 
L 888.8913 479.624939 
L 889.884006 479.221551 
L 890.876712 479.89644 
L 891.869418 479.775119 
L 892.862124 479.99071 
L 893.85483 479.489608 
L 894.847536 479.77711 
L 896.832948 480.639303 
L 897.825654 479.651439 
L 898.81836 480.311374 
L 899.811066 480.389502 
L 900.803772 481.056463 
L 901.796477 481.395677 
L 902.789183 480.49285 
L 903.781889 481.457126 
L 904.774595 480.753833 
L 905.767301 480.530729 
L 906.760007 481.227319 
L 907.752713 480.774791 
L 908.745419 480.663464 
L 909.738125 481.358989 
L 910.730831 480.725799 
L 911.723537 481.192199 
L 912.716243 481.038264 
L 913.708949 481.26157 
L 914.701655 480.941042 
L 915.69436 481.844002 
L 916.687066 481.204932 
L 917.679772 480.816945 
L 918.672478 481.640457 
L 919.665184 482.064138 
L 920.65789 481.129202 
L 921.650596 481.708862 
L 922.643302 481.716054 
L 923.636008 481.511093 
L 924.628714 481.873143 
L 925.62142 481.72664 
L 926.614126 482.423512 
L 927.606832 482.086046 
L 928.599537 482.331931 
L 929.592243 482.00804 
L 930.584949 482.882771 
L 931.577655 482.453239 
L 932.570361 482.845378 
L 933.563067 482.781622 
L 934.555773 482.49745 
L 935.548479 482.759029 
L 936.541185 483.271842 
L 937.533891 482.741702 
L 938.526597 482.94334 
L 939.519303 482.94739 
L 940.512009 483.532364 
L 941.504714 483.22551 
L 942.49742 483.074329 
L 943.490126 483.079309 
L 944.482832 482.754127 
L 945.475538 483.768446 
L 946.468244 482.777372 
L 947.46095 483.328286 
L 948.453656 482.729604 
L 949.446362 483.556125 
L 950.439068 483.533242 
L 951.431774 483.711053 
L 952.42448 483.38686 
L 953.417186 483.59584 
L 954.409891 483.44334 
L 955.402597 484.137823 
L 956.395303 484.11481 
L 957.388009 483.731268 
L 958.380715 484.180278 
L 959.373421 483.929845 
L 960.366127 484.013117 
L 961.358833 483.815626 
L 962.351539 484.058074 
L 963.344245 484.560182 
L 964.336951 483.699678 
L 965.329657 484.209619 
L 966.322363 484.258728 
L 968.307774 484.006845 
L 969.30048 484.325888 
L 971.285892 484.610357 
L 972.278598 485.034027 
L 973.271304 484.653233 
L 974.26401 484.129811 
L 976.249422 485.441205 
L 977.242128 484.662262 
L 978.234834 484.510796 
L 979.22754 484.671119 
L 980.220246 485.284524 
L 981.212951 484.948837 
L 982.205657 485.101705 
L 983.198363 485.055152 
L 984.191069 485.426915 
L 985.183775 485.474702 
L 986.176481 485.893547 
L 987.169187 485.186392 
L 988.161893 485.260268 
L 989.154599 485.21844 
L 990.147305 485.341131 
L 992.132717 484.688708 
L 993.125423 485.865546 
L 995.110834 486.16866 
L 996.10354 485.872472 
L 997.096246 486.098899 
L 998.088952 485.975066 
L 1000.074364 486.431773 
L 1001.06707 485.51034 
L 1002.059776 485.670724 
L 1003.052482 486.319587 
L 1004.045188 485.708557 
L 1005.037894 486.748362 
L 1006.0306 485.741716 
L 1008.016011 486.501776 
L 1009.008717 486.599637 
L 1010.001423 487.315708 
L 1010.994129 485.978642 
L 1011.986835 486.203996 
L 1012.979541 486.808692 
L 1013.972247 486.313642 
L 1014.964953 486.82023 
L 1015.957659 486.751132 
L 1016.950365 487.24163 
L 1017.943071 487.020859 
L 1018.935777 487.050375 
L 1019.928482 486.436148 
L 1020.921188 486.907694 
L 1021.913894 486.679368 
L 1022.9066 487.210363 
L 1023.899306 486.65146 
L 1024.892012 487.157484 
L 1026.877424 487.45065 
L 1027.87013 486.955913 
L 1028.862836 486.615139 
L 1029.855542 487.127295 
L 1030.848248 487.195274 
L 1031.840954 488.015325 
L 1032.833659 487.435497 
L 1033.826365 487.568812 
L 1034.819071 488.358444 
L 1035.811777 487.759301 
L 1037.797189 487.43336 
L 1038.789895 487.749756 
L 1039.782601 487.609638 
L 1041.768013 488.195887 
L 1042.760719 487.324839 
L 1044.746131 487.492536 
L 1045.738837 487.605613 
L 1046.731542 488.08974 
L 1048.716954 487.183758 
L 1049.70966 488.35978 
L 1050.702366 488.046035 
L 1051.695072 487.605878 
L 1052.687778 488.321563 
L 1053.680484 488.284619 
L 1054.67319 488.931809 
L 1055.665896 487.668418 
L 1056.658602 488.659106 
L 1057.651308 488.904051 
L 1058.644014 488.841322 
L 1059.636719 488.187828 
L 1060.629425 488.418985 
L 1061.622131 488.232372 
L 1062.614837 488.533678 
L 1063.607543 488.626402 
L 1064.600249 488.410037 
L 1066.585661 488.360651 
L 1068.571073 488.358998 
L 1069.563779 488.093819 
L 1070.556485 488.823374 
L 1071.549191 488.360061 
L 1072.541896 488.059587 
L 1073.534602 489.287421 
L 1074.527308 488.719166 
L 1075.520014 488.338514 
L 1077.505426 489.118012 
L 1078.498132 488.638817 
L 1079.490838 489.025622 
L 1080.483544 489.046204 
L 1081.47625 488.265836 
L 1082.468956 489.641626 
L 1083.461662 489.242154 
L 1085.447073 489.341522 
L 1086.439779 488.959426 
L 1087.432485 488.893504 
L 1088.425191 489.376287 
L 1089.417897 489.520874 
L 1090.410603 489.078902 
L 1091.403309 489.366978 
L 1094.381427 488.949469 
L 1095.374133 489.334605 
L 1096.366839 488.92057 
L 1097.359545 490.053788 
L 1098.35225 488.850524 
L 1099.344956 489.603798 
L 1100.337662 490.154143 
L 1101.330368 489.453595 
L 1102.323074 490.311745 
L 1103.31578 490.067892 
L 1104.308486 489.332944 
L 1105.301192 488.910347 
L 1106.293898 490.027392 
L 1107.286604 489.786859 
L 1110.264722 490.562905 
L 1111.257428 490.508245 
L 1112.250133 489.163042 
L 1113.242839 489.151381 
L 1114.235545 490.377834 
L 1116.220957 489.846503 
L 1117.213663 489.83676 
L 1118.206369 490.03849 
L 1119.199075 489.400939 
L 1120.191781 490.491126 
L 1121.184487 490.003128 
L 1122.177193 489.291059 
L 1124.162605 490.044714 
L 1125.15531 490.659357 
L 1126.148016 489.936335 
L 1127.140722 490.310554 
L 1128.133428 490.507134 
L 1129.126134 490.31173 
L 1130.11884 490.491645 
L 1131.111546 490.484609 
L 1132.104252 491.015484 
L 1133.096958 489.433979 
L 1134.089664 490.580014 
L 1135.08237 490.079984 
L 1136.075076 490.519897 
L 1138.060487 490.225233 
L 1139.053193 490.363914 
L 1140.045899 490.013174 
L 1141.038605 489.826462 
L 1142.031311 490.394625 
L 1143.024017 490.171123 
L 1144.016723 491.065596 
L 1145.009429 490.885883 
L 1146.002135 490.509626 
L 1146.994841 491.011747 
L 1147.987547 491.232982 
L 1148.980253 490.516117 
L 1149.972959 491.122104 
L 1150.965664 490.218943 
L 1151.95837 491.183123 
L 1152.951076 490.58996 
L 1153.943782 490.158153 
L 1154.936488 490.249121 
L 1155.929194 490.227477 
L 1156.9219 490.567908 
L 1157.914606 491.05155 
L 1158.907312 490.614874 
L 1159.900018 490.70585 
L 1160.892724 491.1119 
L 1161.88543 490.514203 
L 1162.878136 490.54481 
L 1163.870841 490.768929 
L 1166.848959 490.737174 
L 1167.841665 491.227984 
L 1168.834371 490.153925 
L 1169.827077 491.126618 
L 1170.819783 490.283161 
L 1171.812489 490.972877 
L 1172.805195 490.719929 
L 1175.783313 491.442896 
L 1176.776019 490.563313 
L 1177.768724 490.995966 
L 1178.76143 490.666412 
L 1179.754136 491.421254 
L 1182.732254 490.575785 
L 1183.72496 491.453728 
L 1184.717666 491.168461 
L 1185.710372 491.078937 
L 1186.703078 490.813875 
L 1187.695784 490.85517 
L 1188.68849 491.266325 
L 1189.681196 490.862348 
L 1190.673901 490.782135 
L 1191.666607 490.951547 
L 1193.652019 490.742877 
L 1194.644725 490.867378 
L 1195.637431 491.358105 
L 1196.630137 490.768952 
L 1197.622843 491.446102 
L 1198.615549 490.500461 
L 1199.608255 491.66153 
L 1201.593667 491.230116 
L 1202.586373 490.652991 
L 1203.579078 491.162912 
L 1204.571784 490.922788 
L 1205.56449 491.08467 
L 1206.557196 490.88324 
L 1207.549902 491.041166 
L 1208.542608 491.025034 
L 1209.535314 491.325875 
L 1210.52802 490.99665 
L 1211.520726 491.248376 
L 1212.513432 491.35195 
L 1213.506138 490.885052 
L 1214.498844 491.585556 
L 1215.49155 491.653272 
L 1216.484255 490.965448 
L 1218.469667 491.314937 
L 1219.462373 490.87536 
L 1220.455079 491.486427 
L 1221.447785 491.272399 
L 1222.440491 492.48 
L 1223.433197 491.059118 
L 1224.425903 490.778221 
L 1225.418609 491.611788 
L 1226.411315 491.19249 
L 1227.404021 491.429803 
L 1228.396727 491.463459 
L 1229.389432 491.083235 
L 1230.382138 491.464245 
L 1231.374844 491.107685 
L 1232.36755 491.405311 
L 1233.360256 491.554932 
L 1235.345668 491.363731 
L 1236.338374 491.269469 
L 1237.33108 490.584505 
L 1238.323786 490.697901 
L 1239.316492 491.616091 
L 1240.309198 491.682513 
L 1241.301904 491.069471 
L 1242.29461 490.922289 
L 1243.287315 491.683975 
L 1244.280021 491.886205 
L 1245.272727 491.394838 
L 1245.272727 491.394838 
" clip-path="url(#pe5325ed64b)" style="fill: none; stroke: #1f77b4; stroke-width: 1.5; stroke-linecap: square"/>
   </g>
   <g id="patch_3">
    <path d="M 180 512.64 
L 180 69.12 
" style="fill: none; stroke: #000000; stroke-width: 0.8; stroke-linejoin: miter; stroke-linecap: square"/>
   </g>
   <g id="patch_4">
    <path d="M 1296 512.64 
L 1296 69.12 
" style="fill: none; stroke: #000000; stroke-width: 0.8; stroke-linejoin: miter; stroke-linecap: square"/>
   </g>
   <g id="patch_5">
    <path d="M 180 512.64 
L 1296 512.64 
" style="fill: none; stroke: #000000; stroke-width: 0.8; stroke-linejoin: miter; stroke-linecap: square"/>
   </g>
   <g id="patch_6">
    <path d="M 180 69.12 
L 1296 69.12 
" style="fill: none; stroke: #000000; stroke-width: 0.8; stroke-linejoin: miter; stroke-linecap: square"/>
   </g>
   <g id="text_13">
    <!-- source12-receiver23 -->
    <g transform="translate(532.175 60.80125) scale(0.4 -0.4)">
     <defs>
      <path id="DejaVuSans-73" d="M 2834 3397 
L 2834 2853 
Q 2591 2978 2328 3040 
Q 2066 3103 1784 3103 
Q 1356 3103 1142 2972 
Q 928 2841 928 2578 
Q 928 2378 1081 2264 
Q 1234 2150 1697 2047 
L 1894 2003 
Q 2506 1872 2764 1633 
Q 3022 1394 3022 966 
Q 3022 478 2636 193 
Q 2250 -91 1575 -91 
Q 1294 -91 989 -36 
Q 684 19 347 128 
L 347 722 
Q 666 556 975 473 
Q 1284 391 1588 391 
Q 1994 391 2212 530 
Q 2431 669 2431 922 
Q 2431 1156 2273 1281 
Q 2116 1406 1581 1522 
L 1381 1569 
Q 847 1681 609 1914 
Q 372 2147 372 2553 
Q 372 3047 722 3315 
Q 1072 3584 1716 3584 
Q 2034 3584 2315 3537 
Q 2597 3491 2834 3397 
z
" transform="scale(0.015625)"/>
      <path id="DejaVuSans-6f" d="M 1959 3097 
Q 1497 3097 1228 2736 
Q 959 2375 959 1747 
Q 959 1119 1226 758 
Q 1494 397 1959 397 
Q 2419 397 2687 759 
Q 2956 1122 2956 1747 
Q 2956 2369 2687 2733 
Q 2419 3097 1959 3097 
z
M 1959 3584 
Q 2709 3584 3137 3096 
Q 3566 2609 3566 1747 
Q 3566 888 3137 398 
Q 2709 -91 1959 -91 
Q 1206 -91 779 398 
Q 353 888 353 1747 
Q 353 2609 779 3096 
Q 1206 3584 1959 3584 
z
" transform="scale(0.015625)"/>
      <path id="DejaVuSans-75" d="M 544 1381 
L 544 3500 
L 1119 3500 
L 1119 1403 
Q 1119 906 1312 657 
Q 1506 409 1894 409 
Q 2359 409 2629 706 
Q 2900 1003 2900 1516 
L 2900 3500 
L 3475 3500 
L 3475 0 
L 2900 0 
L 2900 538 
Q 2691 219 2414 64 
Q 2138 -91 1772 -91 
Q 1169 -91 856 284 
Q 544 659 544 1381 
z
M 1991 3584 
L 1991 3584 
z
" transform="scale(0.015625)"/>
      <path id="DejaVuSans-72" d="M 2631 2963 
Q 2534 3019 2420 3045 
Q 2306 3072 2169 3072 
Q 1681 3072 1420 2755 
Q 1159 2438 1159 1844 
L 1159 0 
L 581 0 
L 581 3500 
L 1159 3500 
L 1159 2956 
Q 1341 3275 1631 3429 
Q 1922 3584 2338 3584 
Q 2397 3584 2469 3576 
Q 2541 3569 2628 3553 
L 2631 2963 
z
" transform="scale(0.015625)"/>
      <path id="DejaVuSans-63" d="M 3122 3366 
L 3122 2828 
Q 2878 2963 2633 3030 
Q 2388 3097 2138 3097 
Q 1578 3097 1268 2742 
Q 959 2388 959 1747 
Q 959 1106 1268 751 
Q 1578 397 2138 397 
Q 2388 397 2633 464 
Q 2878 531 3122 666 
L 3122 134 
Q 2881 22 2623 -34 
Q 2366 -91 2075 -91 
Q 1284 -91 818 406 
Q 353 903 353 1747 
Q 353 2603 823 3093 
Q 1294 3584 2113 3584 
Q 2378 3584 2631 3529 
Q 2884 3475 3122 3366 
z
" transform="scale(0.015625)"/>
      <path id="DejaVuSans-65" d="M 3597 1894 
L 3597 1613 
L 953 1613 
Q 991 1019 1311 708 
Q 1631 397 2203 397 
Q 2534 397 2845 478 
Q 3156 559 3463 722 
L 3463 178 
Q 3153 47 2828 -22 
Q 2503 -91 2169 -91 
Q 1331 -91 842 396 
Q 353 884 353 1716 
Q 353 2575 817 3079 
Q 1281 3584 2069 3584 
Q 2775 3584 3186 3129 
Q 3597 2675 3597 1894 
z
M 3022 2063 
Q 3016 2534 2758 2815 
Q 2500 3097 2075 3097 
Q 1594 3097 1305 2825 
Q 1016 2553 972 2059 
L 3022 2063 
z
" transform="scale(0.015625)"/>
      <path id="DejaVuSans-2d" d="M 313 2009 
L 1997 2009 
L 1997 1497 
L 313 1497 
L 313 2009 
z
" transform="scale(0.015625)"/>
      <path id="DejaVuSans-69" d="M 603 3500 
L 1178 3500 
L 1178 0 
L 603 0 
L 603 3500 
z
M 603 4863 
L 1178 4863 
L 1178 4134 
L 603 4134 
L 603 4863 
z
" transform="scale(0.015625)"/>
      <path id="DejaVuSans-76" d="M 191 3500 
L 800 3500 
L 1894 563 
L 2988 3500 
L 3597 3500 
L 2284 0 
L 1503 0 
L 191 3500 
z
" transform="scale(0.015625)"/>
     </defs>
     <use xlink:href="#DejaVuSans-73"/>
     <use xlink:href="#DejaVuSans-6f" x="52.099609"/>
     <use xlink:href="#DejaVuSans-75" x="113.28125"/>
     <use xlink:href="#DejaVuSans-72" x="176.660156"/>
     <use xlink:href="#DejaVuSans-63" x="215.523438"/>
     <use xlink:href="#DejaVuSans-65" x="270.503906"/>
     <use xlink:href="#DejaVuSans-31" x="332.027344"/>
     <use xlink:href="#DejaVuSans-32" x="395.650391"/>
     <use xlink:href="#DejaVuSans-2d" x="459.273438"/>
     <use xlink:href="#DejaVuSans-72" x="495.357422"/>
     <use xlink:href="#DejaVuSans-65" x="534.220703"/>
     <use xlink:href="#DejaVuSans-63" x="595.744141"/>
     <use xlink:href="#DejaVuSans-65" x="650.724609"/>
     <use xlink:href="#DejaVuSans-69" x="712.248047"/>
     <use xlink:href="#DejaVuSans-76" x="740.03125"/>
     <use xlink:href="#DejaVuSans-65" x="799.210938"/>
     <use xlink:href="#DejaVuSans-72" x="860.734375"/>
     <use xlink:href="#DejaVuSans-32" x="901.847656"/>
     <use xlink:href="#DejaVuSans-33" x="965.470703"/>
    </g>
   </g>
  </g>
 </g>
 <defs>
  <clipPath id="pe5325ed64b">
   <rect x="180" y="69.12" width="1116" height="443.52"/>
  </clipPath>
 </defs>
</svg>
