<?xml version="1.0" encoding="utf-8" standalone="no"?>
<!DOCTYPE svg PUBLIC "-//W3C//DTD SVG 1.1//EN"
  "http://www.w3.org/Graphics/SVG/1.1/DTD/svg11.dtd">
<svg xmlns:xlink="http://www.w3.org/1999/xlink" width="1440pt" height="576pt" viewBox="0 0 1440 576" xmlns="http://www.w3.org/2000/svg" version="1.1">
 <metadata>
  <rdf:RDF xmlns:dc="http://purl.org/dc/elements/1.1/" xmlns:cc="http://creativecommons.org/ns#" xmlns:rdf="http://www.w3.org/1999/02/22-rdf-syntax-ns#">
   <cc:Work>
    <dc:type rdf:resource="http://purl.org/dc/dcmitype/StillImage"/>
    <dc:date>2024-05-22T04:50:02.689031</dc:date>
    <dc:format>image/svg+xml</dc:format>
    <dc:creator>
     <cc:Agent>
      <dc:title>Matplotlib v3.8.3, https://matplotlib.org/</dc:title>
     </cc:Agent>
    </dc:creator>
   </cc:Work>
  </rdf:RDF>
 </metadata>
 <defs>
  <style type="text/css">*{stroke-linejoin: round; stroke-linecap: butt}</style>
 </defs>
 <g id="figure_1">
  <g id="patch_1">
   <path d="M 0 576 
L 1440 576 
L 1440 0 
L 0 0 
z
" style="fill: #ffffff"/>
  </g>
  <g id="axes_1">
   <g id="patch_2">
    <path d="M 180 512.64 
L 1296 512.64 
L 1296 69.12 
L 180 69.12 
z
" style="fill: #ffffff"/>
   </g>
   <g id="matplotlib.axis_1">
    <g id="xtick_1">
     <g id="line2d_1">
      <defs>
       <path id="ma975a86c63" d="M 0 0 
L 0 3.5 
" style="stroke: #000000; stroke-width: 0.8"/>
      </defs>
      <g>
       <use xlink:href="#ma975a86c63" x="229.734567" y="512.64" style="stroke: #000000; stroke-width: 0.8"/>
      </g>
     </g>
     <g id="text_1">
      <!-- 0 -->
      <g transform="translate(226.553317 527.238438) scale(0.1 -0.1)">
       <defs>
        <path id="DejaVuSans-30" d="M 2034 4250 
Q 1547 4250 1301 3770 
Q 1056 3291 1056 2328 
Q 1056 1369 1301 889 
Q 1547 409 2034 409 
Q 2525 409 2770 889 
Q 3016 1369 3016 2328 
Q 3016 3291 2770 3770 
Q 2525 4250 2034 4250 
z
M 2034 4750 
Q 2819 4750 3233 4129 
Q 3647 3509 3647 2328 
Q 3647 1150 3233 529 
Q 2819 -91 2034 -91 
Q 1250 -91 836 529 
Q 422 1150 422 2328 
Q 422 3509 836 4129 
Q 1250 4750 2034 4750 
z
" transform="scale(0.015625)"/>
       </defs>
       <use xlink:href="#DejaVuSans-30"/>
      </g>
     </g>
    </g>
    <g id="xtick_2">
     <g id="line2d_2">
      <g>
       <use xlink:href="#ma975a86c63" x="433.04074" y="512.64" style="stroke: #000000; stroke-width: 0.8"/>
      </g>
     </g>
     <g id="text_2">
      <!-- 500 -->
      <g transform="translate(423.49699 527.238438) scale(0.1 -0.1)">
       <defs>
        <path id="DejaVuSans-35" d="M 691 4666 
L 3169 4666 
L 3169 4134 
L 1269 4134 
L 1269 2991 
Q 1406 3038 1543 3061 
Q 1681 3084 1819 3084 
Q 2600 3084 3056 2656 
Q 3513 2228 3513 1497 
Q 3513 744 3044 326 
Q 2575 -91 1722 -91 
Q 1428 -91 1123 -41 
Q 819 9 494 109 
L 494 744 
Q 775 591 1075 516 
Q 1375 441 1709 441 
Q 2250 441 2565 725 
Q 2881 1009 2881 1497 
Q 2881 1984 2565 2268 
Q 2250 2553 1709 2553 
Q 1456 2553 1204 2497 
Q 953 2441 691 2322 
L 691 4666 
z
" transform="scale(0.015625)"/>
       </defs>
       <use xlink:href="#DejaVuSans-35"/>
       <use xlink:href="#DejaVuSans-30" x="63.623047"/>
       <use xlink:href="#DejaVuSans-30" x="127.246094"/>
      </g>
     </g>
    </g>
    <g id="xtick_3">
     <g id="line2d_3">
      <g>
       <use xlink:href="#ma975a86c63" x="636.346913" y="512.64" style="stroke: #000000; stroke-width: 0.8"/>
      </g>
     </g>
     <g id="text_3">
      <!-- 1000 -->
      <g transform="translate(623.621913 527.238438) scale(0.1 -0.1)">
       <defs>
        <path id="DejaVuSans-31" d="M 794 531 
L 1825 531 
L 1825 4091 
L 703 3866 
L 703 4441 
L 1819 4666 
L 2450 4666 
L 2450 531 
L 3481 531 
L 3481 0 
L 794 0 
L 794 531 
z
" transform="scale(0.015625)"/>
       </defs>
       <use xlink:href="#DejaVuSans-31"/>
       <use xlink:href="#DejaVuSans-30" x="63.623047"/>
       <use xlink:href="#DejaVuSans-30" x="127.246094"/>
       <use xlink:href="#DejaVuSans-30" x="190.869141"/>
      </g>
     </g>
    </g>
    <g id="xtick_4">
     <g id="line2d_4">
      <g>
       <use xlink:href="#ma975a86c63" x="839.653087" y="512.64" style="stroke: #000000; stroke-width: 0.8"/>
      </g>
     </g>
     <g id="text_4">
      <!-- 1500 -->
      <g transform="translate(826.928087 527.238438) scale(0.1 -0.1)">
       <use xlink:href="#DejaVuSans-31"/>
       <use xlink:href="#DejaVuSans-35" x="63.623047"/>
       <use xlink:href="#DejaVuSans-30" x="127.246094"/>
       <use xlink:href="#DejaVuSans-30" x="190.869141"/>
      </g>
     </g>
    </g>
    <g id="xtick_5">
     <g id="line2d_5">
      <g>
       <use xlink:href="#ma975a86c63" x="1042.95926" y="512.64" style="stroke: #000000; stroke-width: 0.8"/>
      </g>
     </g>
     <g id="text_5">
      <!-- 2000 -->
      <g transform="translate(1030.23426 527.238438) scale(0.1 -0.1)">
       <defs>
        <path id="DejaVuSans-32" d="M 1228 531 
L 3431 531 
L 3431 0 
L 469 0 
L 469 531 
Q 828 903 1448 1529 
Q 2069 2156 2228 2338 
Q 2531 2678 2651 2914 
Q 2772 3150 2772 3378 
Q 2772 3750 2511 3984 
Q 2250 4219 1831 4219 
Q 1534 4219 1204 4116 
Q 875 4013 500 3803 
L 500 4441 
Q 881 4594 1212 4672 
Q 1544 4750 1819 4750 
Q 2544 4750 2975 4387 
Q 3406 4025 3406 3419 
Q 3406 3131 3298 2873 
Q 3191 2616 2906 2266 
Q 2828 2175 2409 1742 
Q 1991 1309 1228 531 
z
" transform="scale(0.015625)"/>
       </defs>
       <use xlink:href="#DejaVuSans-32"/>
       <use xlink:href="#DejaVuSans-30" x="63.623047"/>
       <use xlink:href="#DejaVuSans-30" x="127.246094"/>
       <use xlink:href="#DejaVuSans-30" x="190.869141"/>
      </g>
     </g>
    </g>
    <g id="xtick_6">
     <g id="line2d_6">
      <g>
       <use xlink:href="#ma975a86c63" x="1246.265433" y="512.64" style="stroke: #000000; stroke-width: 0.8"/>
      </g>
     </g>
     <g id="text_6">
      <!-- 2500 -->
      <g transform="translate(1233.540433 527.238438) scale(0.1 -0.1)">
       <use xlink:href="#DejaVuSans-32"/>
       <use xlink:href="#DejaVuSans-35" x="63.623047"/>
       <use xlink:href="#DejaVuSans-30" x="127.246094"/>
       <use xlink:href="#DejaVuSans-30" x="190.869141"/>
      </g>
     </g>
    </g>
   </g>
   <g id="matplotlib.axis_2">
    <g id="ytick_1">
     <g id="line2d_7">
      <defs>
       <path id="m548cb99d6e" d="M 0 0 
L -3.5 0 
" style="stroke: #000000; stroke-width: 0.8"/>
      </defs>
      <g>
       <use xlink:href="#m548cb99d6e" x="180" y="498.631409" style="stroke: #000000; stroke-width: 0.8"/>
      </g>
     </g>
     <g id="text_7">
      <!-- −6 -->
      <g transform="translate(158.257812 502.430628) scale(0.1 -0.1)">
       <defs>
        <path id="DejaVuSans-2212" d="M 678 2272 
L 4684 2272 
L 4684 1741 
L 678 1741 
L 678 2272 
z
" transform="scale(0.015625)"/>
        <path id="DejaVuSans-36" d="M 2113 2584 
Q 1688 2584 1439 2293 
Q 1191 2003 1191 1497 
Q 1191 994 1439 701 
Q 1688 409 2113 409 
Q 2538 409 2786 701 
Q 3034 994 3034 1497 
Q 3034 2003 2786 2293 
Q 2538 2584 2113 2584 
z
M 3366 4563 
L 3366 3988 
Q 3128 4100 2886 4159 
Q 2644 4219 2406 4219 
Q 1781 4219 1451 3797 
Q 1122 3375 1075 2522 
Q 1259 2794 1537 2939 
Q 1816 3084 2150 3084 
Q 2853 3084 3261 2657 
Q 3669 2231 3669 1497 
Q 3669 778 3244 343 
Q 2819 -91 2113 -91 
Q 1303 -91 875 529 
Q 447 1150 447 2328 
Q 447 3434 972 4092 
Q 1497 4750 2381 4750 
Q 2619 4750 2861 4703 
Q 3103 4656 3366 4563 
z
" transform="scale(0.015625)"/>
       </defs>
       <use xlink:href="#DejaVuSans-2212"/>
       <use xlink:href="#DejaVuSans-36" x="83.789062"/>
      </g>
     </g>
    </g>
    <g id="ytick_2">
     <g id="line2d_8">
      <g>
       <use xlink:href="#m548cb99d6e" x="180" y="407.313411" style="stroke: #000000; stroke-width: 0.8"/>
      </g>
     </g>
     <g id="text_8">
      <!-- −4 -->
      <g transform="translate(158.257812 411.11263) scale(0.1 -0.1)">
       <defs>
        <path id="DejaVuSans-34" d="M 2419 4116 
L 825 1625 
L 2419 1625 
L 2419 4116 
z
M 2253 4666 
L 3047 4666 
L 3047 1625 
L 3713 1625 
L 3713 1100 
L 3047 1100 
L 3047 0 
L 2419 0 
L 2419 1100 
L 313 1100 
L 313 1709 
L 2253 4666 
z
" transform="scale(0.015625)"/>
       </defs>
       <use xlink:href="#DejaVuSans-2212"/>
       <use xlink:href="#DejaVuSans-34" x="83.789062"/>
      </g>
     </g>
    </g>
    <g id="ytick_3">
     <g id="line2d_9">
      <g>
       <use xlink:href="#m548cb99d6e" x="180" y="315.995414" style="stroke: #000000; stroke-width: 0.8"/>
      </g>
     </g>
     <g id="text_9">
      <!-- −2 -->
      <g transform="translate(158.257812 319.794632) scale(0.1 -0.1)">
       <use xlink:href="#DejaVuSans-2212"/>
       <use xlink:href="#DejaVuSans-32" x="83.789062"/>
      </g>
     </g>
    </g>
    <g id="ytick_4">
     <g id="line2d_10">
      <g>
       <use xlink:href="#m548cb99d6e" x="180" y="224.677416" style="stroke: #000000; stroke-width: 0.8"/>
      </g>
     </g>
     <g id="text_10">
      <!-- 0 -->
      <g transform="translate(166.6375 228.476635) scale(0.1 -0.1)">
       <use xlink:href="#DejaVuSans-30"/>
      </g>
     </g>
    </g>
    <g id="ytick_5">
     <g id="line2d_11">
      <g>
       <use xlink:href="#m548cb99d6e" x="180" y="133.359418" style="stroke: #000000; stroke-width: 0.8"/>
      </g>
     </g>
     <g id="text_11">
      <!-- 2 -->
      <g transform="translate(166.6375 137.158637) scale(0.1 -0.1)">
       <use xlink:href="#DejaVuSans-32"/>
      </g>
     </g>
    </g>
   </g>
   <g id="line2d_12">
    <path d="M 230.727273 332.543408 
L 231.719979 334.187713 
L 232.712685 332.853021 
L 233.70539 332.482733 
L 234.698096 331.780714 
L 235.690802 332.452111 
L 236.683508 332.568454 
L 237.676214 332.555068 
L 238.66892 331.972479 
L 239.661626 330.419614 
L 240.654332 331.516026 
L 241.647038 331.013377 
L 242.639744 328.951202 
L 243.63245 327.219545 
L 244.625156 323.865168 
L 245.617862 327.59658 
L 246.610568 359.019739 
L 247.603273 322.098207 
L 248.595979 264.763384 
L 249.588685 230.300168 
L 250.581391 204.296545 
L 251.574097 188.232752 
L 252.566803 179.12345 
L 253.559509 172.584918 
L 254.552215 169.665365 
L 255.544921 168.932575 
L 256.537627 165.230956 
L 257.530333 163.578568 
L 258.523039 167.234739 
L 259.515745 178.924448 
L 260.50845 196.653389 
L 261.501156 190.150271 
L 262.493862 187.042268 
L 263.486568 211.213677 
L 264.479274 278.884756 
L 265.47198 191.202331 
L 266.464686 178.119096 
L 267.457392 190.930578 
L 268.450098 237.978789 
L 269.442804 190.239873 
L 270.43551 171.586475 
L 271.428216 174.570638 
L 273.413627 200.266541 
L 274.406333 225.67461 
L 275.399039 203.180438 
L 276.391745 161.654988 
L 277.384451 143.181899 
L 278.377157 138.106354 
L 279.369863 134.651377 
L 280.362569 124.142115 
L 281.355275 109.879794 
L 282.347981 99.089001 
L 283.340687 92.103459 
L 284.333393 89.28 
L 285.326099 89.351585 
L 286.318804 94.07414 
L 287.31151 105.637684 
L 288.304216 132.840975 
L 289.296922 190.682293 
L 290.289628 149.64133 
L 291.282334 131.743686 
L 292.27504 134.891386 
L 293.267746 153.362524 
L 294.260452 181.868038 
L 295.253158 187.831373 
L 296.245864 194.546766 
L 297.23857 220.162603 
L 298.231276 214.468584 
L 299.223981 204.674607 
L 300.216687 218.102142 
L 301.209393 260.320658 
L 302.202099 319.791549 
L 303.194805 278.441479 
L 304.187511 309.157555 
L 306.172923 286.674279 
L 307.165629 331.205549 
L 308.158335 310.530038 
L 309.151041 306.999961 
L 310.143747 304.204305 
L 311.136453 311.177936 
L 312.129159 301.123001 
L 313.121864 286.779789 
L 314.11457 293.971804 
L 315.107276 298.496069 
L 316.099982 306.796473 
L 317.092688 300.545118 
L 318.085394 309.615971 
L 319.0781 303.30406 
L 320.070806 314.386218 
L 321.063512 300.094378 
L 322.056218 341.911703 
L 323.048924 326.43708 
L 324.04163 308.424874 
L 325.034336 321.153102 
L 326.027041 317.031015 
L 327.019747 306.824102 
L 328.012453 312.178863 
L 329.005159 324.111216 
L 329.997865 319.125677 
L 330.990571 337.761455 
L 331.983277 330.988328 
L 332.975983 322.479257 
L 333.968689 328.897208 
L 334.961395 329.592324 
L 335.954101 332.60506 
L 336.946807 333.16325 
L 337.939513 323.150631 
L 338.932218 319.859207 
L 340.91763 342.513508 
L 341.910336 318.859408 
L 342.903042 344.41444 
L 343.895748 331.394392 
L 344.888454 338.04138 
L 345.88116 316.668941 
L 346.873866 331.701268 
L 347.866572 322.878492 
L 348.859278 324.829947 
L 349.851984 310.311413 
L 350.84469 325.932732 
L 352.830101 339.993873 
L 353.822807 330.528119 
L 355.808219 352.72028 
L 356.800925 348.863268 
L 357.793631 324.664517 
L 358.786337 354.604498 
L 359.779043 362.969123 
L 360.771749 331.09153 
L 361.764455 328.711205 
L 362.757161 367.337479 
L 363.749867 332.646831 
L 364.742572 348.033306 
L 365.735278 329.890711 
L 366.727984 349.411152 
L 367.72069 358.169819 
L 368.713396 340.079366 
L 369.706102 327.142956 
L 370.698808 340.643419 
L 371.691514 367.329013 
L 372.68422 371.917909 
L 373.676926 368.799405 
L 374.669632 341.18301 
L 375.662338 341.364628 
L 376.655044 383.676272 
L 377.64775 362.135764 
L 378.640455 362.607793 
L 379.633161 349.691485 
L 380.625867 372.028351 
L 381.618573 352.624968 
L 382.611279 346.904326 
L 383.603985 364.769496 
L 384.596691 348.365426 
L 385.589397 329.410849 
L 386.582103 324.672308 
L 387.574809 343.55873 
L 388.567515 322.716127 
L 389.560221 345.735476 
L 390.552927 350.612361 
L 391.545632 348.637981 
L 392.538338 368.848964 
L 393.531044 363.60901 
L 394.52375 364.226292 
L 395.516456 358.402067 
L 397.501868 363.855703 
L 398.494574 329.5792 
L 399.48728 364.73205 
L 400.479986 350.442441 
L 401.472692 372.884248 
L 402.465398 342.292681 
L 403.458104 353.795048 
L 404.450809 326.977256 
L 405.443515 350.887651 
L 406.436221 357.303657 
L 407.428927 358.871613 
L 408.421633 347.261419 
L 409.414339 330.428684 
L 410.407045 339.081825 
L 411.399751 352.773096 
L 412.392457 361.662813 
L 413.385163 357.829357 
L 414.377869 348.490818 
L 415.370575 369.104035 
L 416.363281 353.43929 
L 417.355986 335.016027 
L 418.348692 356.457518 
L 419.341398 325.966177 
L 420.334104 341.402491 
L 421.32681 361.931968 
L 422.319516 492.48 
L 423.312222 386.243871 
L 424.304928 389.935578 
L 425.297634 369.347367 
L 426.29034 354.572119 
L 427.283046 367.524452 
L 428.275752 486.151282 
L 429.268458 388.634028 
L 430.261163 388.957295 
L 431.253869 365.073308 
L 432.246575 412.129198 
L 433.239281 350.839174 
L 434.231987 357.426599 
L 435.224693 383.499911 
L 436.217399 384.864377 
L 437.210105 388.645494 
L 438.202811 355.191184 
L 439.195517 438.130116 
L 440.188223 365.051411 
L 441.180929 358.636666 
L 443.166341 382.63674 
L 444.159046 382.14095 
L 445.151752 359.830767 
L 446.144458 351.29831 
L 447.137164 364.825912 
L 448.12987 375.234547 
L 449.122576 401.30756 
L 450.115282 382.861251 
L 451.107988 391.678574 
L 452.100694 354.974439 
L 453.0934 354.038191 
L 454.086106 406.069721 
L 455.078812 331.366517 
L 456.071518 355.616428 
L 457.064223 349.927816 
L 458.056929 378.881245 
L 459.049635 377.615139 
L 460.042341 357.860951 
L 461.035047 361.092646 
L 462.027753 461.852927 
L 463.020459 349.407499 
L 464.013165 376.812202 
L 465.005871 363.153071 
L 465.998577 353.440305 
L 467.983989 396.492941 
L 468.976695 367.18809 
L 469.9694 371.775132 
L 470.962106 349.306821 
L 471.954812 355.33912 
L 472.947518 345.237295 
L 473.940224 411.88938 
L 474.93293 357.369143 
L 475.925636 378.869289 
L 476.918342 351.971199 
L 477.911048 370.228445 
L 478.903754 378.827468 
L 479.89646 363.265097 
L 480.889166 349.861107 
L 481.881872 363.463467 
L 482.874577 371.682791 
L 483.867283 368.452164 
L 484.859989 420.066986 
L 485.852695 373.166761 
L 486.845401 359.581965 
L 487.838107 357.90766 
L 488.830813 372.517984 
L 489.823519 359.121565 
L 490.816225 353.246406 
L 491.808931 382.088936 
L 493.794343 371.259365 
L 494.787049 386.071305 
L 495.779754 396.9615 
L 496.77246 480.539548 
L 497.765166 381.59498 
L 498.757872 395.200076 
L 499.750578 359.195979 
L 500.743284 403.090881 
L 501.73599 406.466197 
L 502.728696 379.301881 
L 503.721402 365.815062 
L 504.714108 410.651623 
L 505.706814 392.3165 
L 506.69952 378.301282 
L 507.692226 349.933799 
L 508.684932 400.384121 
L 509.677637 398.133357 
L 510.670343 414.895639 
L 511.663049 360.520134 
L 512.655755 398.063903 
L 513.648461 423.965643 
L 514.641167 401.378682 
L 515.633873 467.441716 
L 516.626579 360.104706 
L 517.619285 426.487792 
L 518.611991 376.531393 
L 519.604697 365.259434 
L 520.597403 389.114871 
L 521.590109 371.930897 
L 522.582814 376.676789 
L 523.57552 351.203614 
L 524.568226 358.58476 
L 525.560932 372.482638 
L 526.553638 423.493458 
L 527.546344 351.953712 
L 528.53905 365.370053 
L 529.531756 362.603149 
L 530.524462 388.139801 
L 531.517168 383.041405 
L 532.509874 370.660548 
L 533.50258 356.553317 
L 534.495286 382.333898 
L 535.487991 372.651225 
L 536.480697 423.257562 
L 537.473403 431.782714 
L 538.466109 420.452224 
L 539.458815 434.185193 
L 540.451521 444.495217 
L 541.444227 409.087753 
L 542.436933 341.063803 
L 543.429639 383.656965 
L 544.422345 395.524265 
L 545.415051 382.693588 
L 546.407757 393.704343 
L 547.400463 424.684728 
L 548.393168 372.78709 
L 549.385874 392.262119 
L 550.37858 366.05231 
L 551.371286 393.147864 
L 552.363992 379.491686 
L 553.356698 362.432571 
L 554.349404 369.39766 
L 555.34211 401.108664 
L 556.334816 372.7382 
L 557.327522 365.868472 
L 558.320228 444.079898 
L 559.312934 377.156779 
L 560.30564 410.074701 
L 561.298345 369.846347 
L 562.291051 406.92484 
L 563.283757 407.280746 
L 564.276463 421.611335 
L 565.269169 387.966573 
L 566.261875 431.274017 
L 568.247287 390.858266 
L 569.239993 346.713735 
L 570.232699 361.963735 
L 571.225405 382.22727 
L 572.218111 394.169707 
L 573.210817 447.152256 
L 574.203523 352.11998 
L 575.196228 411.520814 
L 576.188934 371.853507 
L 577.18164 354.457437 
L 578.174346 371.079115 
L 579.167052 398.996585 
L 580.159758 385.297384 
L 581.152464 409.325962 
L 582.14517 354.562756 
L 583.137876 358.589316 
L 584.130582 368.6874 
L 585.123288 373.678777 
L 586.115994 380.745908 
L 587.1087 402.435936 
L 588.101405 364.278385 
L 589.094111 357.658908 
L 590.086817 381.700515 
L 591.079523 421.807035 
L 592.072229 367.903496 
L 593.064935 395.941215 
L 594.057641 364.040486 
L 595.050347 384.480596 
L 596.043053 408.567523 
L 597.035759 415.408327 
L 598.028465 452.536767 
L 599.021171 423.709354 
L 600.013877 389.705145 
L 601.006582 402.276846 
L 601.999288 419.745295 
L 602.991994 381.56107 
L 603.9847 394.095027 
L 604.977406 368.206746 
L 605.970112 383.858772 
L 606.962818 388.386288 
L 607.955524 420.506574 
L 608.94823 366.363542 
L 609.940936 421.043063 
L 610.933642 375.974702 
L 611.926348 410.23754 
L 612.919054 419.512669 
L 613.911759 401.892669 
L 614.904465 375.289788 
L 615.897171 399.638826 
L 616.889877 410.162442 
L 617.882583 377.742154 
L 618.875289 392.938479 
L 619.867995 386.222963 
L 620.860701 384.17848 
L 621.853407 385.471276 
L 622.846113 387.742814 
L 623.838819 448.060761 
L 624.831525 390.421692 
L 625.824231 395.523118 
L 626.816936 406.152269 
L 627.809642 397.535097 
L 628.802348 380.791833 
L 629.795054 387.515511 
L 630.78776 404.599088 
L 631.780466 410.189788 
L 632.773172 408.904741 
L 633.765878 450.288124 
L 634.758584 386.223343 
L 635.75129 450.221505 
L 636.743996 402.104071 
L 637.736702 389.507504 
L 638.729408 404.119683 
L 639.722114 400.781753 
L 640.714819 411.422806 
L 641.707525 402.264734 
L 642.700231 391.784522 
L 643.692937 404.154573 
L 644.685643 385.698527 
L 645.678349 395.296011 
L 646.671055 417.577063 
L 647.663761 393.308798 
L 648.656467 400.836333 
L 649.649173 411.359118 
L 650.641879 432.168684 
L 651.634585 444.478929 
L 652.627291 403.538756 
L 653.619996 389.218248 
L 654.612702 409.170898 
L 655.605408 392.717425 
L 656.598114 400.747554 
L 657.59082 393.727112 
L 658.583526 413.761932 
L 659.576232 406.189699 
L 660.568938 402.845194 
L 661.561644 398.911082 
L 662.55435 402.900733 
L 663.547056 428.043748 
L 664.539762 418.809973 
L 665.532468 406.114991 
L 666.525173 417.094296 
L 667.517879 423.872075 
L 668.510585 404.826714 
L 669.503291 413.233063 
L 670.495997 408.922738 
L 671.488703 405.760341 
L 672.481409 399.791819 
L 673.474115 401.653336 
L 674.466821 412.143391 
L 675.459527 410.941012 
L 676.452233 405.91218 
L 677.444939 410.916838 
L 678.437645 408.962325 
L 679.43035 407.961776 
L 680.423056 411.205084 
L 681.415762 405.451907 
L 682.408468 402.590885 
L 683.401174 414.66254 
L 684.39388 415.490279 
L 685.386586 406.068763 
L 686.379292 402.903096 
L 687.371998 425.264879 
L 688.364704 404.536148 
L 689.35741 424.905373 
L 690.350116 413.431714 
L 691.342822 410.689977 
L 692.335527 410.519894 
L 693.328233 404.259915 
L 694.320939 405.568481 
L 695.313645 422.057423 
L 696.306351 408.841817 
L 697.299057 409.985762 
L 698.291763 405.474104 
L 699.284469 405.167731 
L 700.277175 416.458767 
L 701.269881 407.949985 
L 702.262587 409.177875 
L 703.255293 400.02834 
L 704.247999 409.843618 
L 705.240705 405.601997 
L 706.23341 409.757561 
L 707.226116 411.418515 
L 708.218822 420.073192 
L 709.211528 410.91316 
L 710.204234 415.178581 
L 711.19694 409.455823 
L 712.189646 414.827877 
L 713.182352 405.843829 
L 714.175058 416.491801 
L 715.167764 417.553333 
L 716.16047 413.39796 
L 717.153176 411.899534 
L 718.145882 416.355824 
L 719.138587 413.71838 
L 720.131293 408.552651 
L 721.123999 410.853602 
L 722.116705 409.11548 
L 723.109411 408.886704 
L 724.102117 410.888143 
L 725.094823 413.560188 
L 726.087529 418.631046 
L 727.080235 407.0073 
L 728.072941 412.479912 
L 729.065647 409.884693 
L 731.051059 413.687163 
L 732.043764 410.180684 
L 733.03647 412.572905 
L 734.029176 418.531252 
L 735.021882 415.183916 
L 736.014588 416.930322 
L 737.007294 411.627824 
L 738 410.894865 
L 738.992706 414.591919 
L 739.985412 414.571821 
L 740.978118 414.409279 
L 741.970824 416.337465 
L 742.96353 412.104088 
L 743.956236 415.741291 
L 744.948941 410.557666 
L 745.941647 418.425006 
L 746.934353 409.54266 
L 747.927059 413.051822 
L 748.919765 411.348411 
L 749.912471 417.194205 
L 750.905177 416.063971 
L 751.897883 413.533108 
L 752.890589 409.651007 
L 753.883295 418.301203 
L 754.876001 420.938796 
L 755.868707 420.955496 
L 757.854118 415.01348 
L 758.846824 413.627974 
L 759.83953 416.00463 
L 760.832236 412.726927 
L 761.824942 415.42462 
L 762.817648 424.355296 
L 763.810354 419.258851 
L 764.80306 416.596729 
L 765.795766 416.547619 
L 766.788472 410.440676 
L 767.781178 415.784188 
L 768.773884 418.779152 
L 769.76659 411.911239 
L 770.759295 414.928301 
L 771.752001 420.672068 
L 772.744707 419.70854 
L 773.737413 414.949135 
L 774.730119 414.596651 
L 775.722825 416.822874 
L 776.715531 419.597526 
L 777.708237 413.352105 
L 778.700943 412.489361 
L 779.693649 419.640609 
L 780.686355 419.935646 
L 781.679061 416.932154 
L 782.671767 418.58889 
L 783.664473 420.685217 
L 784.657178 419.060693 
L 785.649884 418.937266 
L 786.64259 416.855474 
L 787.635296 416.615722 
L 788.628002 418.964223 
L 789.620708 414.970919 
L 790.613414 415.327922 
L 791.60612 422.390436 
L 792.598826 419.119566 
L 793.591532 412.682953 
L 794.584238 416.859925 
L 795.576944 413.367089 
L 796.56965 418.773915 
L 797.562355 416.958392 
L 798.555061 421.29104 
L 799.547767 419.287941 
L 800.540473 412.174898 
L 801.533179 419.642502 
L 802.525885 423.157118 
L 803.518591 413.5543 
L 804.511297 414.348058 
L 805.504003 420.002599 
L 806.496709 417.83802 
L 807.489415 417.273942 
L 808.482121 418.377161 
L 809.474827 421.97156 
L 810.467532 419.074804 
L 811.460238 415.610549 
L 812.452944 418.455959 
L 813.44565 416.74913 
L 814.438356 419.16679 
L 815.431062 420.40634 
L 816.423768 419.877467 
L 817.416474 417.429385 
L 818.40918 419.436959 
L 819.401886 419.155356 
L 820.394592 420.661718 
L 821.387298 418.636355 
L 822.380004 421.875994 
L 823.372709 421.388335 
L 824.365415 420.725485 
L 825.358121 418.654806 
L 826.350827 423.480831 
L 827.343533 417.34382 
L 828.336239 421.531138 
L 829.328945 417.993888 
L 830.321651 421.050476 
L 831.314357 424.555262 
L 832.307063 419.655889 
L 833.299769 419.233746 
L 834.292475 419.015858 
L 835.285181 425.973355 
L 836.277886 417.513284 
L 837.270592 418.898938 
L 838.263298 419.264337 
L 839.256004 420.663841 
L 840.24871 420.511623 
L 841.241416 418.324126 
L 842.234122 425.304144 
L 843.226828 412.637912 
L 844.219534 419.719502 
L 845.21224 421.293829 
L 846.204946 420.984329 
L 847.197652 423.744547 
L 848.190358 419.578258 
L 849.183064 422.088685 
L 850.175769 418.290209 
L 851.168475 417.017828 
L 852.161181 421.317497 
L 853.153887 424.847067 
L 854.146593 421.584866 
L 855.139299 419.004173 
L 856.132005 423.82861 
L 857.124711 422.255353 
L 858.117417 421.804356 
L 859.110123 421.063818 
L 860.102829 418.086374 
L 861.095535 419.279658 
L 862.088241 418.612412 
L 863.080946 423.217334 
L 864.073652 419.261542 
L 865.066358 427.52493 
L 866.059064 421.668756 
L 867.05177 424.980384 
L 868.044476 422.511313 
L 869.037182 421.707792 
L 870.029888 420.351652 
L 871.022594 422.057534 
L 872.0153 419.967091 
L 873.008006 424.080381 
L 874.000712 431.54708 
L 874.993418 424.152349 
L 875.986123 426.61558 
L 876.978829 422.438448 
L 877.971535 420.750107 
L 878.964241 427.994989 
L 879.956947 423.294821 
L 880.949653 429.245552 
L 881.942359 428.057925 
L 882.935065 419.73155 
L 883.927771 423.405305 
L 884.920477 418.479719 
L 885.913183 423.6456 
L 886.905889 423.835648 
L 887.898595 425.909731 
L 888.8913 423.392808 
L 889.884006 421.213244 
L 890.876712 415.567261 
L 891.869418 424.168569 
L 892.862124 427.149025 
L 893.85483 426.486314 
L 894.847536 425.43383 
L 895.840242 422.55862 
L 896.832948 417.725089 
L 897.825654 421.017692 
L 898.81836 419.500719 
L 899.811066 421.654624 
L 900.803772 419.022432 
L 901.796477 423.941157 
L 902.789183 420.14876 
L 903.781889 420.648343 
L 904.774595 427.692746 
L 905.767301 427.682636 
L 906.760007 426.595318 
L 907.752713 423.420681 
L 908.745419 427.376827 
L 909.738125 429.09247 
L 910.730831 421.49375 
L 911.723537 424.940822 
L 912.716243 427.510838 
L 913.708949 428.803822 
L 914.701655 422.895464 
L 915.69436 422.416422 
L 916.687066 423.370726 
L 917.679772 425.167588 
L 918.672478 421.009185 
L 919.665184 424.745677 
L 920.65789 423.446815 
L 921.650596 423.314224 
L 922.643302 423.560149 
L 923.636008 423.624945 
L 924.628714 424.041854 
L 925.62142 423.144858 
L 926.614126 424.61229 
L 927.606832 428.161899 
L 928.599537 425.103764 
L 929.592243 424.80383 
L 930.584949 425.980543 
L 931.577655 425.711007 
L 932.570361 424.471917 
L 933.563067 423.743213 
L 934.555773 425.715151 
L 935.548479 426.400824 
L 936.541185 424.294523 
L 937.533891 424.523182 
L 938.526597 422.931353 
L 939.519303 428.396257 
L 940.512009 427.143905 
L 941.504714 426.153382 
L 942.49742 427.31441 
L 943.490126 426.721263 
L 944.482832 425.54294 
L 945.475538 423.485827 
L 946.468244 424.032969 
L 947.46095 420.811017 
L 948.453656 422.957439 
L 949.446362 422.919833 
L 950.439068 428.743454 
L 951.431774 428.035436 
L 952.42448 423.562569 
L 953.417186 430.554742 
L 954.409891 426.401115 
L 955.402597 430.965972 
L 956.395303 426.869587 
L 957.388009 422.263605 
L 958.380715 422.951397 
L 960.366127 426.265543 
L 961.358833 423.916184 
L 962.351539 426.387238 
L 963.344245 425.911263 
L 964.336951 426.993239 
L 965.329657 418.480056 
L 966.322363 423.292715 
L 967.315068 425.362366 
L 968.307774 428.670648 
L 969.30048 429.777483 
L 970.293186 427.209864 
L 971.285892 423.653213 
L 972.278598 424.098646 
L 973.271304 419.443116 
L 974.26401 422.671706 
L 975.256716 424.426389 
L 976.249422 427.382001 
L 977.242128 426.735257 
L 978.234834 429.453025 
L 979.22754 429.080824 
L 980.220246 419.912062 
L 981.212951 427.044035 
L 982.205657 424.940384 
L 983.198363 429.4283 
L 984.191069 430.105305 
L 985.183775 424.237645 
L 986.176481 424.290076 
L 987.169187 424.037033 
L 988.161893 423.932796 
L 989.154599 424.576315 
L 990.147305 427.19645 
L 991.140011 421.269986 
L 994.118128 433.955486 
L 995.110834 428.2477 
L 996.10354 429.237862 
L 997.096246 423.020956 
L 998.088952 429.705576 
L 999.081658 427.239616 
L 1000.074364 427.561477 
L 1001.06707 421.224066 
L 1002.059776 428.407177 
L 1003.052482 427.359868 
L 1004.045188 427.88546 
L 1005.037894 421.755227 
L 1006.0306 430.626572 
L 1007.023305 433.251552 
L 1008.016011 430.004042 
L 1009.008717 427.7692 
L 1010.001423 428.360291 
L 1010.994129 428.623135 
L 1011.986835 425.05725 
L 1012.979541 424.525038 
L 1013.972247 424.945154 
L 1014.964953 428.74826 
L 1015.957659 426.18208 
L 1016.950365 428.995215 
L 1017.943071 422.127261 
L 1018.935777 425.948131 
L 1019.928482 425.427822 
L 1020.921188 428.622161 
L 1021.913894 428.843354 
L 1022.9066 430.210956 
L 1023.899306 425.850132 
L 1024.892012 425.626679 
L 1025.884718 430.144941 
L 1026.877424 429.281115 
L 1027.87013 431.647484 
L 1028.862836 428.992768 
L 1029.855542 427.512043 
L 1030.848248 427.365542 
L 1031.840954 425.270678 
L 1032.833659 428.320194 
L 1033.826365 428.627455 
L 1034.819071 425.600601 
L 1035.811777 432.976009 
L 1036.804483 425.449317 
L 1037.797189 424.229895 
L 1038.789895 427.135433 
L 1040.775307 433.781922 
L 1041.768013 424.867197 
L 1042.760719 427.812948 
L 1043.753425 434.110468 
L 1044.746131 425.248437 
L 1045.738837 429.412252 
L 1046.731542 424.922956 
L 1047.724248 423.725904 
L 1048.716954 430.142739 
L 1049.70966 432.431174 
L 1050.702366 432.243327 
L 1051.695072 431.091337 
L 1052.687778 424.714869 
L 1053.680484 431.331004 
L 1054.67319 427.941247 
L 1055.665896 434.313757 
L 1056.658602 425.833538 
L 1057.651308 430.275578 
L 1058.644014 425.706167 
L 1059.636719 424.58459 
L 1060.629425 430.855263 
L 1061.622131 427.525633 
L 1062.614837 428.707011 
L 1063.607543 426.664802 
L 1064.600249 425.885383 
L 1065.592955 428.218967 
L 1066.585661 432.610228 
L 1067.578367 429.418781 
L 1068.571073 425.630013 
L 1069.563779 427.96239 
L 1070.556485 423.303952 
L 1071.549191 431.882072 
L 1072.541896 433.757137 
L 1073.534602 434.179184 
L 1074.527308 428.102233 
L 1075.520014 428.094332 
L 1076.51272 433.354588 
L 1077.505426 430.342555 
L 1078.498132 424.88794 
L 1079.490838 428.2817 
L 1080.483544 434.22637 
L 1081.47625 425.345773 
L 1082.468956 430.750612 
L 1083.461662 426.556524 
L 1084.454368 433.091712 
L 1085.447073 427.786803 
L 1086.439779 428.16848 
L 1087.432485 433.94143 
L 1088.425191 429.426415 
L 1089.417897 428.948287 
L 1090.410603 431.623188 
L 1091.403309 427.795172 
L 1092.396015 427.049053 
L 1093.388721 434.274709 
L 1094.381427 430.149211 
L 1095.374133 427.808922 
L 1096.366839 427.833622 
L 1097.359545 433.499485 
L 1098.35225 434.297635 
L 1099.344956 432.945594 
L 1100.337662 427.329338 
L 1101.330368 427.506768 
L 1102.323074 429.143121 
L 1103.31578 427.242567 
L 1104.308486 431.313718 
L 1105.301192 426.194019 
L 1106.293898 426.557773 
L 1107.286604 427.246242 
L 1108.27931 429.639219 
L 1109.272016 427.51928 
L 1110.264722 429.118517 
L 1111.257428 429.005661 
L 1112.250133 424.385901 
L 1113.242839 427.512119 
L 1114.235545 435.628122 
L 1115.228251 435.311476 
L 1116.220957 432.534441 
L 1117.213663 434.295663 
L 1118.206369 429.88422 
L 1119.199075 426.056017 
L 1120.191781 429.924157 
L 1121.184487 430.737345 
L 1122.177193 427.955162 
L 1123.169899 428.426432 
L 1124.162605 431.081821 
L 1125.15531 427.14599 
L 1126.148016 434.445693 
L 1127.140722 431.283173 
L 1128.133428 431.428787 
L 1129.126134 430.172549 
L 1130.11884 425.926146 
L 1131.111546 428.43006 
L 1132.104252 427.394482 
L 1133.096958 432.839861 
L 1134.089664 430.638136 
L 1135.08237 429.551417 
L 1136.075076 425.497219 
L 1137.067782 424.872772 
L 1138.060487 428.004466 
L 1139.053193 432.224063 
L 1140.045899 433.295778 
L 1141.038605 429.7766 
L 1142.031311 430.19548 
L 1143.024017 433.69564 
L 1144.016723 426.354992 
L 1145.009429 429.686878 
L 1146.002135 430.394115 
L 1146.994841 426.812598 
L 1147.987547 427.101425 
L 1148.980253 434.187459 
L 1149.972959 430.155628 
L 1150.965664 430.784395 
L 1151.95837 432.353681 
L 1152.951076 427.765377 
L 1153.943782 432.607824 
L 1154.936488 429.662422 
L 1155.929194 433.247658 
L 1157.914606 429.741963 
L 1158.907312 429.334453 
L 1159.900018 425.849124 
L 1160.892724 429.189364 
L 1161.88543 429.571961 
L 1162.878136 428.203899 
L 1163.870841 430.901636 
L 1164.863547 431.310896 
L 1165.856253 429.574853 
L 1166.848959 432.955693 
L 1167.841665 425.07093 
L 1168.834371 433.470271 
L 1169.827077 427.232385 
L 1170.819783 434.852976 
L 1171.812489 435.054217 
L 1172.805195 431.449203 
L 1173.797901 430.631311 
L 1174.790607 430.105703 
L 1175.783313 428.398848 
L 1176.776019 430.122338 
L 1177.768724 426.813375 
L 1178.76143 435.633148 
L 1179.754136 427.011922 
L 1180.746842 434.339545 
L 1181.739548 428.968348 
L 1182.732254 429.278639 
L 1183.72496 431.261504 
L 1185.710372 429.931639 
L 1186.703078 431.870444 
L 1187.695784 429.57036 
L 1188.68849 427.941495 
L 1189.681196 437.243096 
L 1190.673901 434.871129 
L 1191.666607 434.579791 
L 1192.659313 426.9868 
L 1193.652019 427.43512 
L 1194.644725 430.536851 
L 1195.637431 427.335958 
L 1196.630137 429.697992 
L 1197.622843 435.783985 
L 1198.615549 433.465003 
L 1199.608255 428.300125 
L 1200.600961 431.471763 
L 1201.593667 428.738318 
L 1202.586373 432.848992 
L 1203.579078 430.125365 
L 1204.571784 426.734512 
L 1205.56449 430.77148 
L 1206.557196 428.146797 
L 1207.549902 426.807461 
L 1208.542608 431.514983 
L 1209.535314 428.861118 
L 1210.52802 428.042807 
L 1211.520726 433.343551 
L 1212.513432 427.934149 
L 1213.506138 431.437303 
L 1214.498844 427.097505 
L 1215.49155 430.979982 
L 1216.484255 428.753562 
L 1217.476961 427.670248 
L 1218.469667 430.471075 
L 1219.462373 423.9205 
L 1220.455079 427.947743 
L 1221.447785 432.811188 
L 1222.440491 427.234926 
L 1223.433197 436.561661 
L 1224.425903 429.054535 
L 1225.418609 430.681217 
L 1226.411315 440.527422 
L 1227.404021 428.931323 
L 1228.396727 433.830182 
L 1229.389432 429.264852 
L 1230.382138 428.652399 
L 1231.374844 431.499036 
L 1232.36755 428.400895 
L 1233.360256 435.56608 
L 1234.352962 429.773144 
L 1235.345668 429.522241 
L 1236.338374 431.860721 
L 1237.33108 429.498562 
L 1238.323786 428.507723 
L 1239.316492 433.402227 
L 1240.309198 433.445215 
L 1241.301904 425.942512 
L 1242.29461 431.853827 
L 1243.287315 426.716933 
L 1244.280021 428.932143 
L 1245.272727 427.555332 
L 1245.272727 427.555332 
" clip-path="url(#pff6b7f9e36)" style="fill: none; stroke: #1f77b4; stroke-width: 1.5; stroke-linecap: square"/>
   </g>
   <g id="patch_3">
    <path d="M 180 512.64 
L 180 69.12 
" style="fill: none; stroke: #000000; stroke-width: 0.8; stroke-linejoin: miter; stroke-linecap: square"/>
   </g>
   <g id="patch_4">
    <path d="M 1296 512.64 
L 1296 69.12 
" style="fill: none; stroke: #000000; stroke-width: 0.8; stroke-linejoin: miter; stroke-linecap: square"/>
   </g>
   <g id="patch_5">
    <path d="M 180 512.64 
L 1296 512.64 
" style="fill: none; stroke: #000000; stroke-width: 0.8; stroke-linejoin: miter; stroke-linecap: square"/>
   </g>
   <g id="patch_6">
    <path d="M 180 69.12 
L 1296 69.12 
" style="fill: none; stroke: #000000; stroke-width: 0.8; stroke-linejoin: miter; stroke-linecap: square"/>
   </g>
   <g id="text_12">
    <!-- source12-receiver21 -->
    <g transform="translate(532.175 60.80125) scale(0.4 -0.4)">
     <defs>
      <path id="DejaVuSans-73" d="M 2834 3397 
L 2834 2853 
Q 2591 2978 2328 3040 
Q 2066 3103 1784 3103 
Q 1356 3103 1142 2972 
Q 928 2841 928 2578 
Q 928 2378 1081 2264 
Q 1234 2150 1697 2047 
L 1894 2003 
Q 2506 1872 2764 1633 
Q 3022 1394 3022 966 
Q 3022 478 2636 193 
Q 2250 -91 1575 -91 
Q 1294 -91 989 -36 
Q 684 19 347 128 
L 347 722 
Q 666 556 975 473 
Q 1284 391 1588 391 
Q 1994 391 2212 530 
Q 2431 669 2431 922 
Q 2431 1156 2273 1281 
Q 2116 1406 1581 1522 
L 1381 1569 
Q 847 1681 609 1914 
Q 372 2147 372 2553 
Q 372 3047 722 3315 
Q 1072 3584 1716 3584 
Q 2034 3584 2315 3537 
Q 2597 3491 2834 3397 
z
" transform="scale(0.015625)"/>
      <path id="DejaVuSans-6f" d="M 1959 3097 
Q 1497 3097 1228 2736 
Q 959 2375 959 1747 
Q 959 1119 1226 758 
Q 1494 397 1959 397 
Q 2419 397 2687 759 
Q 2956 1122 2956 1747 
Q 2956 2369 2687 2733 
Q 2419 3097 1959 3097 
z
M 1959 3584 
Q 2709 3584 3137 3096 
Q 3566 2609 3566 1747 
Q 3566 888 3137 398 
Q 2709 -91 1959 -91 
Q 1206 -91 779 398 
Q 353 888 353 1747 
Q 353 2609 779 3096 
Q 1206 3584 1959 3584 
z
" transform="scale(0.015625)"/>
      <path id="DejaVuSans-75" d="M 544 1381 
L 544 3500 
L 1119 3500 
L 1119 1403 
Q 1119 906 1312 657 
Q 1506 409 1894 409 
Q 2359 409 2629 706 
Q 2900 1003 2900 1516 
L 2900 3500 
L 3475 3500 
L 3475 0 
L 2900 0 
L 2900 538 
Q 2691 219 2414 64 
Q 2138 -91 1772 -91 
Q 1169 -91 856 284 
Q 544 659 544 1381 
z
M 1991 3584 
L 1991 3584 
z
" transform="scale(0.015625)"/>
      <path id="DejaVuSans-72" d="M 2631 2963 
Q 2534 3019 2420 3045 
Q 2306 3072 2169 3072 
Q 1681 3072 1420 2755 
Q 1159 2438 1159 1844 
L 1159 0 
L 581 0 
L 581 3500 
L 1159 3500 
L 1159 2956 
Q 1341 3275 1631 3429 
Q 1922 3584 2338 3584 
Q 2397 3584 2469 3576 
Q 2541 3569 2628 3553 
L 2631 2963 
z
" transform="scale(0.015625)"/>
      <path id="DejaVuSans-63" d="M 3122 3366 
L 3122 2828 
Q 2878 2963 2633 3030 
Q 2388 3097 2138 3097 
Q 1578 3097 1268 2742 
Q 959 2388 959 1747 
Q 959 1106 1268 751 
Q 1578 397 2138 397 
Q 2388 397 2633 464 
Q 2878 531 3122 666 
L 3122 134 
Q 2881 22 2623 -34 
Q 2366 -91 2075 -91 
Q 1284 -91 818 406 
Q 353 903 353 1747 
Q 353 2603 823 3093 
Q 1294 3584 2113 3584 
Q 2378 3584 2631 3529 
Q 2884 3475 3122 3366 
z
" transform="scale(0.015625)"/>
      <path id="DejaVuSans-65" d="M 3597 1894 
L 3597 1613 
L 953 1613 
Q 991 1019 1311 708 
Q 1631 397 2203 397 
Q 2534 397 2845 478 
Q 3156 559 3463 722 
L 3463 178 
Q 3153 47 2828 -22 
Q 2503 -91 2169 -91 
Q 1331 -91 842 396 
Q 353 884 353 1716 
Q 353 2575 817 3079 
Q 1281 3584 2069 3584 
Q 2775 3584 3186 3129 
Q 3597 2675 3597 1894 
z
M 3022 2063 
Q 3016 2534 2758 2815 
Q 2500 3097 2075 3097 
Q 1594 3097 1305 2825 
Q 1016 2553 972 2059 
L 3022 2063 
z
" transform="scale(0.015625)"/>
      <path id="DejaVuSans-2d" d="M 313 2009 
L 1997 2009 
L 1997 1497 
L 313 1497 
L 313 2009 
z
" transform="scale(0.015625)"/>
      <path id="DejaVuSans-69" d="M 603 3500 
L 1178 3500 
L 1178 0 
L 603 0 
L 603 3500 
z
M 603 4863 
L 1178 4863 
L 1178 4134 
L 603 4134 
L 603 4863 
z
" transform="scale(0.015625)"/>
      <path id="DejaVuSans-76" d="M 191 3500 
L 800 3500 
L 1894 563 
L 2988 3500 
L 3597 3500 
L 2284 0 
L 1503 0 
L 191 3500 
z
" transform="scale(0.015625)"/>
     </defs>
     <use xlink:href="#DejaVuSans-73"/>
     <use xlink:href="#DejaVuSans-6f" x="52.099609"/>
     <use xlink:href="#DejaVuSans-75" x="113.28125"/>
     <use xlink:href="#DejaVuSans-72" x="176.660156"/>
     <use xlink:href="#DejaVuSans-63" x="215.523438"/>
     <use xlink:href="#DejaVuSans-65" x="270.503906"/>
     <use xlink:href="#DejaVuSans-31" x="332.027344"/>
     <use xlink:href="#DejaVuSans-32" x="395.650391"/>
     <use xlink:href="#DejaVuSans-2d" x="459.273438"/>
     <use xlink:href="#DejaVuSans-72" x="495.357422"/>
     <use xlink:href="#DejaVuSans-65" x="534.220703"/>
     <use xlink:href="#DejaVuSans-63" x="595.744141"/>
     <use xlink:href="#DejaVuSans-65" x="650.724609"/>
     <use xlink:href="#DejaVuSans-69" x="712.248047"/>
     <use xlink:href="#DejaVuSans-76" x="740.03125"/>
     <use xlink:href="#DejaVuSans-65" x="799.210938"/>
     <use xlink:href="#DejaVuSans-72" x="860.734375"/>
     <use xlink:href="#DejaVuSans-32" x="901.847656"/>
     <use xlink:href="#DejaVuSans-31" x="965.470703"/>
    </g>
   </g>
  </g>
 </g>
 <defs>
  <clipPath id="pff6b7f9e36">
   <rect x="180" y="69.12" width="1116" height="443.52"/>
  </clipPath>
 </defs>
</svg>
