<?xml version="1.0" encoding="utf-8" standalone="no"?>
<!DOCTYPE svg PUBLIC "-//W3C//DTD SVG 1.1//EN"
  "http://www.w3.org/Graphics/SVG/1.1/DTD/svg11.dtd">
<svg xmlns:xlink="http://www.w3.org/1999/xlink" width="1440pt" height="576pt" viewBox="0 0 1440 576" xmlns="http://www.w3.org/2000/svg" version="1.1">
 <metadata>
  <rdf:RDF xmlns:dc="http://purl.org/dc/elements/1.1/" xmlns:cc="http://creativecommons.org/ns#" xmlns:rdf="http://www.w3.org/1999/02/22-rdf-syntax-ns#">
   <cc:Work>
    <dc:type rdf:resource="http://purl.org/dc/dcmitype/StillImage"/>
    <dc:date>2024-05-22T04:50:02.927722</dc:date>
    <dc:format>image/svg+xml</dc:format>
    <dc:creator>
     <cc:Agent>
      <dc:title>Matplotlib v3.8.3, https://matplotlib.org/</dc:title>
     </cc:Agent>
    </dc:creator>
   </cc:Work>
  </rdf:RDF>
 </metadata>
 <defs>
  <style type="text/css">*{stroke-linejoin: round; stroke-linecap: butt}</style>
 </defs>
 <g id="figure_1">
  <g id="patch_1">
   <path d="M 0 576 
L 1440 576 
L 1440 0 
L 0 0 
z
" style="fill: #ffffff"/>
  </g>
  <g id="axes_1">
   <g id="patch_2">
    <path d="M 180 512.64 
L 1296 512.64 
L 1296 69.12 
L 180 69.12 
z
" style="fill: #ffffff"/>
   </g>
   <g id="matplotlib.axis_1">
    <g id="xtick_1">
     <g id="line2d_1">
      <defs>
       <path id="m78ac64c538" d="M 0 0 
L 0 3.5 
" style="stroke: #000000; stroke-width: 0.8"/>
      </defs>
      <g>
       <use xlink:href="#m78ac64c538" x="229.734567" y="512.64" style="stroke: #000000; stroke-width: 0.8"/>
      </g>
     </g>
     <g id="text_1">
      <!-- 0 -->
      <g transform="translate(226.553317 527.238438) scale(0.1 -0.1)">
       <defs>
        <path id="DejaVuSans-30" d="M 2034 4250 
Q 1547 4250 1301 3770 
Q 1056 3291 1056 2328 
Q 1056 1369 1301 889 
Q 1547 409 2034 409 
Q 2525 409 2770 889 
Q 3016 1369 3016 2328 
Q 3016 3291 2770 3770 
Q 2525 4250 2034 4250 
z
M 2034 4750 
Q 2819 4750 3233 4129 
Q 3647 3509 3647 2328 
Q 3647 1150 3233 529 
Q 2819 -91 2034 -91 
Q 1250 -91 836 529 
Q 422 1150 422 2328 
Q 422 3509 836 4129 
Q 1250 4750 2034 4750 
z
" transform="scale(0.015625)"/>
       </defs>
       <use xlink:href="#DejaVuSans-30"/>
      </g>
     </g>
    </g>
    <g id="xtick_2">
     <g id="line2d_2">
      <g>
       <use xlink:href="#m78ac64c538" x="433.04074" y="512.64" style="stroke: #000000; stroke-width: 0.8"/>
      </g>
     </g>
     <g id="text_2">
      <!-- 500 -->
      <g transform="translate(423.49699 527.238438) scale(0.1 -0.1)">
       <defs>
        <path id="DejaVuSans-35" d="M 691 4666 
L 3169 4666 
L 3169 4134 
L 1269 4134 
L 1269 2991 
Q 1406 3038 1543 3061 
Q 1681 3084 1819 3084 
Q 2600 3084 3056 2656 
Q 3513 2228 3513 1497 
Q 3513 744 3044 326 
Q 2575 -91 1722 -91 
Q 1428 -91 1123 -41 
Q 819 9 494 109 
L 494 744 
Q 775 591 1075 516 
Q 1375 441 1709 441 
Q 2250 441 2565 725 
Q 2881 1009 2881 1497 
Q 2881 1984 2565 2268 
Q 2250 2553 1709 2553 
Q 1456 2553 1204 2497 
Q 953 2441 691 2322 
L 691 4666 
z
" transform="scale(0.015625)"/>
       </defs>
       <use xlink:href="#DejaVuSans-35"/>
       <use xlink:href="#DejaVuSans-30" x="63.623047"/>
       <use xlink:href="#DejaVuSans-30" x="127.246094"/>
      </g>
     </g>
    </g>
    <g id="xtick_3">
     <g id="line2d_3">
      <g>
       <use xlink:href="#m78ac64c538" x="636.346913" y="512.64" style="stroke: #000000; stroke-width: 0.8"/>
      </g>
     </g>
     <g id="text_3">
      <!-- 1000 -->
      <g transform="translate(623.621913 527.238438) scale(0.1 -0.1)">
       <defs>
        <path id="DejaVuSans-31" d="M 794 531 
L 1825 531 
L 1825 4091 
L 703 3866 
L 703 4441 
L 1819 4666 
L 2450 4666 
L 2450 531 
L 3481 531 
L 3481 0 
L 794 0 
L 794 531 
z
" transform="scale(0.015625)"/>
       </defs>
       <use xlink:href="#DejaVuSans-31"/>
       <use xlink:href="#DejaVuSans-30" x="63.623047"/>
       <use xlink:href="#DejaVuSans-30" x="127.246094"/>
       <use xlink:href="#DejaVuSans-30" x="190.869141"/>
      </g>
     </g>
    </g>
    <g id="xtick_4">
     <g id="line2d_4">
      <g>
       <use xlink:href="#m78ac64c538" x="839.653087" y="512.64" style="stroke: #000000; stroke-width: 0.8"/>
      </g>
     </g>
     <g id="text_4">
      <!-- 1500 -->
      <g transform="translate(826.928087 527.238438) scale(0.1 -0.1)">
       <use xlink:href="#DejaVuSans-31"/>
       <use xlink:href="#DejaVuSans-35" x="63.623047"/>
       <use xlink:href="#DejaVuSans-30" x="127.246094"/>
       <use xlink:href="#DejaVuSans-30" x="190.869141"/>
      </g>
     </g>
    </g>
    <g id="xtick_5">
     <g id="line2d_5">
      <g>
       <use xlink:href="#m78ac64c538" x="1042.95926" y="512.64" style="stroke: #000000; stroke-width: 0.8"/>
      </g>
     </g>
     <g id="text_5">
      <!-- 2000 -->
      <g transform="translate(1030.23426 527.238438) scale(0.1 -0.1)">
       <defs>
        <path id="DejaVuSans-32" d="M 1228 531 
L 3431 531 
L 3431 0 
L 469 0 
L 469 531 
Q 828 903 1448 1529 
Q 2069 2156 2228 2338 
Q 2531 2678 2651 2914 
Q 2772 3150 2772 3378 
Q 2772 3750 2511 3984 
Q 2250 4219 1831 4219 
Q 1534 4219 1204 4116 
Q 875 4013 500 3803 
L 500 4441 
Q 881 4594 1212 4672 
Q 1544 4750 1819 4750 
Q 2544 4750 2975 4387 
Q 3406 4025 3406 3419 
Q 3406 3131 3298 2873 
Q 3191 2616 2906 2266 
Q 2828 2175 2409 1742 
Q 1991 1309 1228 531 
z
" transform="scale(0.015625)"/>
       </defs>
       <use xlink:href="#DejaVuSans-32"/>
       <use xlink:href="#DejaVuSans-30" x="63.623047"/>
       <use xlink:href="#DejaVuSans-30" x="127.246094"/>
       <use xlink:href="#DejaVuSans-30" x="190.869141"/>
      </g>
     </g>
    </g>
    <g id="xtick_6">
     <g id="line2d_6">
      <g>
       <use xlink:href="#m78ac64c538" x="1246.265433" y="512.64" style="stroke: #000000; stroke-width: 0.8"/>
      </g>
     </g>
     <g id="text_6">
      <!-- 2500 -->
      <g transform="translate(1233.540433 527.238438) scale(0.1 -0.1)">
       <use xlink:href="#DejaVuSans-32"/>
       <use xlink:href="#DejaVuSans-35" x="63.623047"/>
       <use xlink:href="#DejaVuSans-30" x="127.246094"/>
       <use xlink:href="#DejaVuSans-30" x="190.869141"/>
      </g>
     </g>
    </g>
   </g>
   <g id="matplotlib.axis_2">
    <g id="ytick_1">
     <g id="line2d_7">
      <defs>
       <path id="m0d2ace00c4" d="M 0 0 
L -3.5 0 
" style="stroke: #000000; stroke-width: 0.8"/>
      </defs>
      <g>
       <use xlink:href="#m0d2ace00c4" x="180" y="467.141594" style="stroke: #000000; stroke-width: 0.8"/>
      </g>
     </g>
     <g id="text_7">
      <!-- −2 -->
      <g transform="translate(158.257812 470.940813) scale(0.1 -0.1)">
       <defs>
        <path id="DejaVuSans-2212" d="M 678 2272 
L 4684 2272 
L 4684 1741 
L 678 1741 
L 678 2272 
z
" transform="scale(0.015625)"/>
       </defs>
       <use xlink:href="#DejaVuSans-2212"/>
       <use xlink:href="#DejaVuSans-32" x="83.789062"/>
      </g>
     </g>
    </g>
    <g id="ytick_2">
     <g id="line2d_8">
      <g>
       <use xlink:href="#m0d2ace00c4" x="180" y="404.489843" style="stroke: #000000; stroke-width: 0.8"/>
      </g>
     </g>
     <g id="text_8">
      <!-- −1 -->
      <g transform="translate(158.257812 408.289062) scale(0.1 -0.1)">
       <use xlink:href="#DejaVuSans-2212"/>
       <use xlink:href="#DejaVuSans-31" x="83.789062"/>
      </g>
     </g>
    </g>
    <g id="ytick_3">
     <g id="line2d_9">
      <g>
       <use xlink:href="#m0d2ace00c4" x="180" y="341.838093" style="stroke: #000000; stroke-width: 0.8"/>
      </g>
     </g>
     <g id="text_9">
      <!-- 0 -->
      <g transform="translate(166.6375 345.637311) scale(0.1 -0.1)">
       <use xlink:href="#DejaVuSans-30"/>
      </g>
     </g>
    </g>
    <g id="ytick_4">
     <g id="line2d_10">
      <g>
       <use xlink:href="#m0d2ace00c4" x="180" y="279.186342" style="stroke: #000000; stroke-width: 0.8"/>
      </g>
     </g>
     <g id="text_10">
      <!-- 1 -->
      <g transform="translate(166.6375 282.985561) scale(0.1 -0.1)">
       <use xlink:href="#DejaVuSans-31"/>
      </g>
     </g>
    </g>
    <g id="ytick_5">
     <g id="line2d_11">
      <g>
       <use xlink:href="#m0d2ace00c4" x="180" y="216.534591" style="stroke: #000000; stroke-width: 0.8"/>
      </g>
     </g>
     <g id="text_11">
      <!-- 2 -->
      <g transform="translate(166.6375 220.33381) scale(0.1 -0.1)">
       <use xlink:href="#DejaVuSans-32"/>
      </g>
     </g>
    </g>
    <g id="ytick_6">
     <g id="line2d_12">
      <g>
       <use xlink:href="#m0d2ace00c4" x="180" y="153.88284" style="stroke: #000000; stroke-width: 0.8"/>
      </g>
     </g>
     <g id="text_12">
      <!-- 3 -->
      <g transform="translate(166.6375 157.682059) scale(0.1 -0.1)">
       <defs>
        <path id="DejaVuSans-33" d="M 2597 2516 
Q 3050 2419 3304 2112 
Q 3559 1806 3559 1356 
Q 3559 666 3084 287 
Q 2609 -91 1734 -91 
Q 1441 -91 1130 -33 
Q 819 25 488 141 
L 488 750 
Q 750 597 1062 519 
Q 1375 441 1716 441 
Q 2309 441 2620 675 
Q 2931 909 2931 1356 
Q 2931 1769 2642 2001 
Q 2353 2234 1838 2234 
L 1294 2234 
L 1294 2753 
L 1863 2753 
Q 2328 2753 2575 2939 
Q 2822 3125 2822 3475 
Q 2822 3834 2567 4026 
Q 2313 4219 1838 4219 
Q 1578 4219 1281 4162 
Q 984 4106 628 3988 
L 628 4550 
Q 988 4650 1302 4700 
Q 1616 4750 1894 4750 
Q 2613 4750 3031 4423 
Q 3450 4097 3450 3541 
Q 3450 3153 3228 2886 
Q 3006 2619 2597 2516 
z
" transform="scale(0.015625)"/>
       </defs>
       <use xlink:href="#DejaVuSans-33"/>
      </g>
     </g>
    </g>
    <g id="ytick_7">
     <g id="line2d_13">
      <g>
       <use xlink:href="#m0d2ace00c4" x="180" y="91.231089" style="stroke: #000000; stroke-width: 0.8"/>
      </g>
     </g>
     <g id="text_13">
      <!-- 4 -->
      <g transform="translate(166.6375 95.030308) scale(0.1 -0.1)">
       <defs>
        <path id="DejaVuSans-34" d="M 2419 4116 
L 825 1625 
L 2419 1625 
L 2419 4116 
z
M 2253 4666 
L 3047 4666 
L 3047 1625 
L 3713 1625 
L 3713 1100 
L 3047 1100 
L 3047 0 
L 2419 0 
L 2419 1100 
L 313 1100 
L 313 1709 
L 2253 4666 
z
" transform="scale(0.015625)"/>
       </defs>
       <use xlink:href="#DejaVuSans-34"/>
      </g>
     </g>
    </g>
   </g>
   <g id="line2d_14">
    <path d="M 230.727273 406.610764 
L 231.719979 405.983908 
L 232.712685 405.189731 
L 234.698096 401.675173 
L 235.690802 399.690764 
L 238.66892 391.567079 
L 241.647038 381.483423 
L 243.63245 373.384706 
L 244.625156 367.554957 
L 245.617862 362.939347 
L 246.610568 366.796866 
L 247.603273 391.723307 
L 248.595979 371.458294 
L 249.588685 325.470783 
L 250.581391 310.282903 
L 251.574097 324.189753 
L 252.566803 417.862222 
L 253.559509 312.45505 
L 254.552215 288.257281 
L 255.544921 304.201513 
L 256.537627 341.629462 
L 257.530333 288.456607 
L 258.523039 268.651668 
L 259.515745 272.226293 
L 260.50845 277.682013 
L 261.501156 248.317554 
L 262.493862 229.751374 
L 263.486568 237.062464 
L 264.479274 280.127275 
L 265.47198 260.529324 
L 266.464686 232.890959 
L 267.457392 244.315757 
L 268.450098 274.775914 
L 269.442804 264.570403 
L 270.43551 257.259716 
L 271.428216 258.294089 
L 272.420922 274.052137 
L 273.413627 327.696586 
L 275.399039 230.036661 
L 276.391745 195.633542 
L 277.384451 182.685582 
L 278.377157 214.763327 
L 279.369863 200.985393 
L 280.362569 127.299685 
L 281.355275 97.511 
L 282.347981 89.28 
L 283.340687 100.251305 
L 284.333393 135.986243 
L 285.326099 229.214114 
L 286.318804 179.909893 
L 287.31151 173.748119 
L 288.304216 219.429515 
L 289.296922 250.419758 
L 290.289628 225.935995 
L 291.282334 244.141871 
L 292.27504 226.965245 
L 293.267746 222.470763 
L 295.253158 312.008311 
L 296.245864 263.07662 
L 298.231276 289.570305 
L 299.223981 287.447362 
L 300.216687 307.99684 
L 301.209393 314.620408 
L 302.202099 306.495289 
L 303.194805 304.750614 
L 304.187511 313.413174 
L 305.180217 311.07759 
L 306.172923 299.312346 
L 307.165629 305.269594 
L 308.158335 327.585895 
L 309.151041 325.339822 
L 310.143747 320.013379 
L 311.136453 325.627674 
L 312.129159 329.581759 
L 314.11457 331.39967 
L 315.107276 331.968152 
L 316.099982 334.233975 
L 317.092688 334.896029 
L 318.085394 341.591896 
L 319.0781 337.895026 
L 320.070806 342.632073 
L 321.063512 342.512823 
L 322.056218 345.637972 
L 323.048924 346.568915 
L 324.04163 352.179593 
L 325.034336 347.699622 
L 326.027041 349.117377 
L 327.019747 352.685607 
L 328.012453 353.792419 
L 329.005159 353.575263 
L 329.997865 350.503037 
L 330.990571 357.219766 
L 331.983277 353.356656 
L 332.975983 356.942074 
L 333.968689 358.299541 
L 334.961395 359.004015 
L 335.954101 361.921773 
L 336.946807 361.982621 
L 337.939513 360.533238 
L 338.932218 362.718756 
L 339.924924 362.970285 
L 340.91763 364.32735 
L 341.910336 361.350144 
L 342.903042 368.381885 
L 343.895748 368.506007 
L 344.888454 372.82419 
L 345.88116 366.228801 
L 346.873866 372.377144 
L 347.866572 368.120779 
L 348.859278 372.565213 
L 349.851984 376.293498 
L 350.84469 374.792343 
L 351.837395 379.618591 
L 352.830101 375.917902 
L 353.822807 373.13753 
L 354.815513 378.042001 
L 355.808219 378.877402 
L 356.800925 377.774918 
L 357.793631 379.179897 
L 358.786337 383.878403 
L 359.779043 377.344325 
L 360.771749 382.684698 
L 361.764455 381.980757 
L 362.757161 384.616732 
L 363.749867 386.626903 
L 364.742572 381.70173 
L 365.735278 386.670981 
L 366.727984 376.264349 
L 367.72069 387.132108 
L 368.713396 378.900312 
L 369.706102 393.188985 
L 370.698808 386.449216 
L 371.691514 383.322705 
L 372.68422 387.894644 
L 373.676926 391.808335 
L 374.669632 392.949588 
L 375.662338 392.739564 
L 376.655044 390.276874 
L 377.64775 393.753281 
L 378.640455 390.398336 
L 379.633161 390.532866 
L 380.625867 391.119276 
L 381.618573 387.955729 
L 382.611279 390.705938 
L 383.603985 389.014099 
L 384.596691 394.986465 
L 385.589397 407.250381 
L 386.582103 391.941553 
L 387.574809 389.492712 
L 388.567515 399.448023 
L 389.560221 399.275855 
L 390.552927 402.825241 
L 391.545632 404.814753 
L 392.538338 393.309604 
L 393.531044 392.709494 
L 394.52375 395.212681 
L 395.516456 393.548611 
L 396.509162 399.996184 
L 397.501868 399.242592 
L 398.494574 400.253211 
L 399.48728 405.366261 
L 400.479986 403.915922 
L 401.472692 405.303052 
L 402.465398 401.607447 
L 403.458104 396.479018 
L 404.450809 399.739921 
L 405.443515 404.422065 
L 406.436221 404.937984 
L 407.428927 412.463654 
L 408.421633 398.280043 
L 409.414339 407.839006 
L 410.407045 402.80209 
L 411.399751 402.086825 
L 412.392457 402.724497 
L 413.385163 401.820746 
L 414.377869 412.444524 
L 415.370575 409.577404 
L 416.363281 405.757512 
L 417.355986 409.921337 
L 418.348692 412.551584 
L 419.341398 412.186508 
L 420.334104 403.087022 
L 421.32681 405.452323 
L 422.319516 413.019228 
L 424.304928 402.338042 
L 425.297634 413.131333 
L 426.29034 412.273823 
L 427.283046 403.1021 
L 428.275752 410.089132 
L 429.268458 417.87851 
L 430.261163 414.217242 
L 431.253869 408.602767 
L 432.246575 409.936593 
L 433.239281 412.148623 
L 434.231987 409.688572 
L 436.217399 412.662997 
L 437.210105 413.1652 
L 438.202811 419.861464 
L 439.195517 416.638442 
L 440.188223 419.550831 
L 441.180929 415.715802 
L 442.173635 403.369797 
L 443.166341 411.305821 
L 444.159046 416.761312 
L 445.151752 411.25187 
L 446.144458 416.254093 
L 447.137164 416.277659 
L 448.12987 410.957303 
L 449.122576 417.565544 
L 450.115282 416.352967 
L 451.107988 424.237438 
L 452.100694 418.778919 
L 453.0934 426.214567 
L 454.086106 418.206939 
L 455.078812 424.601199 
L 456.071518 429.138935 
L 457.064223 416.242362 
L 458.056929 416.822017 
L 459.049635 425.53001 
L 460.042341 425.983786 
L 461.035047 416.989454 
L 462.027753 426.22908 
L 463.020459 417.21145 
L 464.013165 419.520815 
L 465.005871 419.454459 
L 465.998577 418.364394 
L 466.991283 425.277857 
L 467.983989 419.451778 
L 468.976695 427.043812 
L 469.9694 428.059392 
L 470.962106 429.249053 
L 471.954812 424.781609 
L 472.947518 433.758466 
L 473.940224 416.026898 
L 474.93293 416.499043 
L 475.925636 426.267275 
L 476.918342 425.484772 
L 477.911048 424.161834 
L 478.903754 431.832789 
L 479.89646 433.285353 
L 480.889166 430.364259 
L 481.881872 425.289293 
L 482.874577 424.631203 
L 483.867283 433.5119 
L 484.859989 427.9329 
L 485.852695 424.947863 
L 486.845401 430.732472 
L 487.838107 440.310785 
L 488.830813 418.289763 
L 489.823519 423.080701 
L 490.816225 430.343285 
L 491.808931 430.116472 
L 492.801637 432.41325 
L 493.794343 430.977147 
L 494.787049 432.61705 
L 495.779754 428.305877 
L 496.77246 429.663278 
L 497.765166 437.425895 
L 498.757872 441.898185 
L 499.750578 427.300922 
L 500.743284 423.728005 
L 501.73599 428.859907 
L 502.728696 435.004277 
L 503.721402 433.035582 
L 504.714108 433.826328 
L 505.706814 436.577441 
L 506.69952 445.765414 
L 507.692226 453.572523 
L 508.684932 422.494888 
L 509.677637 432.625116 
L 510.670343 434.716353 
L 511.663049 440.46601 
L 512.655755 433.845006 
L 513.648461 426.080746 
L 514.641167 439.633621 
L 515.633873 423.856915 
L 516.626579 440.468985 
L 517.619285 433.185191 
L 518.611991 438.90756 
L 519.604697 443.97891 
L 520.597403 433.450716 
L 521.590109 441.348988 
L 522.582814 435.874346 
L 523.57552 444.796251 
L 524.568226 448.102175 
L 525.560932 442.397081 
L 526.553638 434.298451 
L 527.546344 441.906781 
L 528.53905 438.178262 
L 529.531756 452.014423 
L 530.524462 442.436829 
L 531.517168 445.44312 
L 532.509874 428.105221 
L 533.50258 438.803427 
L 534.495286 435.482575 
L 535.487991 445.034477 
L 536.480697 435.595854 
L 537.473403 432.384095 
L 538.466109 452.995936 
L 539.458815 441.679067 
L 540.451521 451.003386 
L 541.444227 432.050323 
L 542.436933 449.175027 
L 543.429639 434.093069 
L 544.422345 451.099566 
L 545.415051 454.907986 
L 546.407757 449.721363 
L 548.393168 431.438559 
L 549.385874 436.096246 
L 550.37858 449.553844 
L 551.371286 443.488028 
L 552.363992 439.326065 
L 553.356698 452.525095 
L 554.349404 450.991008 
L 555.34211 442.277035 
L 556.334816 447.236373 
L 557.327522 460.951402 
L 558.320228 433.331096 
L 559.312934 436.209115 
L 560.30564 442.480039 
L 561.298345 440.681348 
L 563.283757 445.540397 
L 564.276463 443.523181 
L 565.269169 439.890958 
L 566.261875 441.721814 
L 567.254581 453.380645 
L 568.247287 453.704984 
L 569.239993 449.33949 
L 570.232699 442.256694 
L 571.225405 449.240555 
L 572.218111 450.53683 
L 573.210817 439.622642 
L 574.203523 443.162339 
L 575.196228 447.596868 
L 576.188934 450.162422 
L 577.18164 445.770491 
L 578.174346 444.32361 
L 579.167052 448.865139 
L 580.159758 450.625764 
L 581.152464 455.488772 
L 582.14517 446.895298 
L 583.137876 442.969505 
L 584.130582 445.396287 
L 585.123288 460.749723 
L 586.115994 440.178546 
L 587.1087 442.794703 
L 588.101405 447.972314 
L 589.094111 449.66558 
L 590.086817 448.432838 
L 591.079523 452.57916 
L 592.072229 462.977278 
L 593.064935 454.610214 
L 594.057641 439.446421 
L 595.050347 451.508224 
L 596.043053 448.249418 
L 597.035759 460.002546 
L 598.028465 455.276144 
L 599.021171 450.007593 
L 600.013877 456.988239 
L 601.006582 450.190861 
L 601.999288 448.246389 
L 602.991994 451.522426 
L 603.9847 457.664864 
L 604.977406 450.026296 
L 605.970112 454.553156 
L 606.962818 443.55041 
L 607.955524 455.34529 
L 608.94823 441.624084 
L 609.940936 448.841008 
L 611.926348 457.343424 
L 612.919054 447.699465 
L 613.911759 449.080277 
L 614.904465 453.637113 
L 615.897171 452.372698 
L 616.889877 464.0897 
L 617.882583 453.366398 
L 618.875289 458.777182 
L 619.867995 460.922618 
L 620.860701 453.222761 
L 621.853407 459.703007 
L 622.846113 453.79883 
L 623.838819 450.524793 
L 624.831525 454.261498 
L 625.824231 454.954004 
L 626.816936 454.788353 
L 627.809642 459.8691 
L 628.802348 452.987362 
L 629.795054 457.118115 
L 630.78776 457.713936 
L 631.780466 456.602949 
L 632.773172 453.356525 
L 633.765878 456.001763 
L 634.758584 456.591516 
L 635.75129 456.61167 
L 636.743996 458.811557 
L 637.736702 459.537365 
L 638.729408 456.395984 
L 639.722114 461.582956 
L 640.714819 461.802667 
L 641.707525 451.007471 
L 642.700231 460.160773 
L 643.692937 458.559949 
L 644.685643 457.675635 
L 645.678349 460.521887 
L 646.671055 457.944011 
L 647.663761 458.405628 
L 648.656467 459.979594 
L 649.649173 456.944888 
L 650.641879 457.966848 
L 651.634585 458.5066 
L 652.627291 457.174588 
L 653.619996 457.225658 
L 654.612702 460.636251 
L 655.605408 459.238571 
L 656.598114 460.875902 
L 657.59082 460.871688 
L 658.583526 458.069301 
L 659.576232 462.177008 
L 660.568938 460.567935 
L 661.561644 460.39032 
L 662.55435 461.098971 
L 663.547056 462.826499 
L 664.539762 463.106811 
L 665.532468 461.317837 
L 666.525173 461.282997 
L 667.517879 459.028358 
L 668.510585 461.322385 
L 669.503291 461.928518 
L 670.495997 461.13879 
L 671.488703 461.969507 
L 672.481409 461.358147 
L 673.474115 462.08436 
L 674.466821 463.091686 
L 675.459527 461.469347 
L 676.452233 461.409306 
L 677.444939 462.495787 
L 678.437645 462.077014 
L 679.43035 464.577771 
L 680.423056 463.693445 
L 681.415762 462.087346 
L 682.408468 464.392304 
L 683.401174 464.565144 
L 684.39388 462.247549 
L 685.386586 463.659489 
L 686.379292 464.501087 
L 687.371998 464.167098 
L 688.364704 463.994252 
L 689.35741 463.152108 
L 690.350116 464.706732 
L 691.342822 464.40572 
L 693.328233 464.831894 
L 694.320939 465.783635 
L 695.313645 466.000888 
L 696.306351 463.985507 
L 697.299057 465.658433 
L 698.291763 465.183444 
L 699.284469 466.644702 
L 701.269881 464.644978 
L 702.262587 466.559633 
L 703.255293 465.184911 
L 705.240705 465.192672 
L 706.23341 464.875704 
L 707.226116 466.225646 
L 708.218822 466.101802 
L 709.211528 466.505663 
L 710.204234 466.771101 
L 711.19694 465.136223 
L 712.189646 465.991167 
L 713.182352 465.935792 
L 714.175058 466.110315 
L 715.167764 466.686706 
L 717.153176 467.4905 
L 718.145882 468.542163 
L 719.138587 467.165737 
L 720.131293 468.387437 
L 721.123999 468.285108 
L 722.116705 467.333203 
L 723.109411 468.241234 
L 724.102117 467.79327 
L 725.094823 467.850334 
L 726.087529 468.588579 
L 727.080235 468.0114 
L 728.072941 468.412806 
L 729.065647 468.197277 
L 730.058353 468.539914 
L 731.051059 469.017797 
L 732.043764 468.062607 
L 733.03647 467.382852 
L 734.029176 469.389357 
L 735.021882 468.734583 
L 736.014588 469.361332 
L 738 469.583894 
L 738.992706 469.934311 
L 739.985412 469.462952 
L 741.970824 469.793455 
L 743.956236 469.638204 
L 744.948941 469.533804 
L 745.941647 470.058464 
L 746.934353 469.532607 
L 747.927059 470.088128 
L 749.912471 470.11783 
L 750.905177 470.894824 
L 751.897883 470.225028 
L 752.890589 470.26077 
L 753.883295 470.028668 
L 754.876001 470.01891 
L 755.868707 471.164088 
L 756.861413 471.162941 
L 757.854118 470.735039 
L 758.846824 471.397143 
L 759.83953 471.241262 
L 760.832236 471.5023 
L 761.824942 470.698839 
L 762.817648 471.662362 
L 763.810354 471.669545 
L 764.80306 471.063254 
L 765.795766 471.578173 
L 766.788472 471.26147 
L 769.76659 472.555312 
L 770.759295 471.98433 
L 771.752001 472.373293 
L 772.744707 473.855567 
L 773.737413 472.173038 
L 774.730119 472.09648 
L 775.722825 472.764864 
L 776.715531 472.702934 
L 777.708237 473.395686 
L 778.700943 472.131423 
L 779.693649 472.379836 
L 780.686355 472.761489 
L 781.679061 473.63262 
L 782.671767 473.168986 
L 783.664473 473.34115 
L 784.657178 472.833315 
L 785.649884 473.197527 
L 786.64259 473.755216 
L 787.635296 473.234016 
L 788.628002 474.121338 
L 789.620708 473.631245 
L 790.613414 474.418734 
L 791.60612 473.934489 
L 792.598826 474.539565 
L 793.591532 474.240867 
L 794.584238 474.727108 
L 795.576944 474.497014 
L 796.56965 474.055329 
L 797.562355 474.414095 
L 798.555061 473.89182 
L 799.547767 474.301054 
L 800.540473 474.928887 
L 801.533179 474.216484 
L 802.525885 475.406364 
L 803.518591 475.094657 
L 804.511297 475.130919 
L 805.504003 475.289502 
L 806.496709 474.983731 
L 807.489415 474.940903 
L 808.482121 475.150054 
L 809.474827 474.613299 
L 810.467532 475.416741 
L 811.460238 475.685044 
L 812.452944 475.425152 
L 813.44565 475.822549 
L 814.438356 475.848318 
L 815.431062 476.14583 
L 816.423768 475.938804 
L 817.416474 476.289989 
L 818.40918 475.974539 
L 819.401886 476.818754 
L 820.394592 476.090273 
L 821.387298 477.543565 
L 822.380004 476.037581 
L 823.372709 476.736305 
L 824.365415 477.180091 
L 825.358121 476.737463 
L 826.350827 476.688516 
L 827.343533 476.442427 
L 829.328945 477.13434 
L 830.321651 477.16722 
L 831.314357 477.469574 
L 832.307063 477.644016 
L 833.299769 476.365271 
L 834.292475 477.509802 
L 835.285181 476.773805 
L 836.277886 477.016819 
L 837.270592 477.5298 
L 838.263298 477.479823 
L 839.256004 478.07719 
L 840.24871 478.248949 
L 841.241416 478.064399 
L 842.234122 479.075413 
L 843.226828 478.083454 
L 844.219534 478.417018 
L 845.21224 477.707418 
L 846.204946 478.745195 
L 847.197652 478.344353 
L 848.190358 478.21821 
L 849.183064 478.659277 
L 851.168475 478.259171 
L 852.161181 478.787364 
L 853.153887 478.666112 
L 854.146593 478.81836 
L 855.139299 479.886757 
L 856.132005 478.153338 
L 857.124711 479.536513 
L 858.117417 479.255886 
L 859.110123 479.577019 
L 860.102829 478.667183 
L 861.095535 479.487169 
L 862.088241 479.684866 
L 863.080946 479.297627 
L 864.073652 480.211144 
L 865.066358 480.304741 
L 866.059064 479.396657 
L 867.05177 479.051282 
L 868.044476 479.546532 
L 869.037182 480.79023 
L 870.029888 479.418953 
L 871.022594 479.910925 
L 872.0153 479.313448 
L 873.008006 480.68141 
L 874.000712 480.38546 
L 874.993418 481.66087 
L 875.986123 479.815226 
L 876.978829 480.566438 
L 877.971535 480.458935 
L 878.964241 480.751946 
L 879.956947 481.476071 
L 880.949653 481.462572 
L 881.942359 480.961879 
L 882.935065 480.07258 
L 883.927771 481.467133 
L 884.920477 480.862534 
L 885.913183 479.472345 
L 886.905889 481.054868 
L 887.898595 480.408487 
L 889.884006 481.016368 
L 890.876712 481.503385 
L 891.869418 481.707614 
L 892.862124 481.315328 
L 893.85483 481.541947 
L 894.847536 481.118354 
L 895.840242 481.539196 
L 896.832948 480.985301 
L 897.825654 481.410116 
L 898.81836 482.500964 
L 899.811066 480.734368 
L 900.803772 481.905555 
L 901.796477 481.993847 
L 902.789183 481.594819 
L 903.781889 481.839496 
L 904.774595 482.301655 
L 905.767301 481.97276 
L 906.760007 482.723611 
L 907.752713 481.670069 
L 908.745419 482.024619 
L 909.738125 482.880366 
L 910.730831 482.026145 
L 911.723537 482.414616 
L 912.716243 482.618982 
L 913.708949 483.396065 
L 915.69436 483.52823 
L 916.687066 483.09317 
L 917.679772 481.919839 
L 918.672478 482.283148 
L 919.665184 482.092179 
L 920.65789 483.729749 
L 921.650596 483.33578 
L 922.643302 483.465875 
L 923.636008 481.968159 
L 924.628714 482.837007 
L 925.62142 483.377569 
L 926.614126 483.555808 
L 927.606832 484.023098 
L 928.599537 482.787742 
L 929.592243 483.506737 
L 930.584949 482.587879 
L 931.577655 483.495919 
L 933.563067 483.992644 
L 934.555773 484.454641 
L 935.548479 483.552 
L 936.541185 482.477358 
L 937.533891 484.136471 
L 938.526597 484.141173 
L 939.519303 483.75904 
L 940.512009 483.836134 
L 941.504714 484.864905 
L 942.49742 483.362984 
L 943.490126 484.051394 
L 944.482832 484.174998 
L 945.475538 484.760021 
L 946.468244 483.867355 
L 948.453656 485.134333 
L 949.446362 484.669746 
L 950.439068 485.026626 
L 951.431774 483.841997 
L 952.42448 484.122584 
L 953.417186 485.04864 
L 954.409891 484.950952 
L 955.402597 484.29654 
L 956.395303 483.886365 
L 957.388009 485.710826 
L 958.380715 484.493666 
L 959.373421 484.124802 
L 960.366127 484.849243 
L 961.358833 484.077383 
L 962.351539 484.684893 
L 963.344245 484.860728 
L 964.336951 485.369979 
L 965.329657 485.609031 
L 966.322363 485.521175 
L 967.315068 484.59109 
L 968.307774 485.346068 
L 969.30048 485.352793 
L 970.293186 485.744182 
L 971.285892 485.21405 
L 972.278598 485.130582 
L 973.271304 486.073735 
L 975.256716 485.888838 
L 976.249422 484.65243 
L 977.242128 486.466453 
L 978.234834 485.944001 
L 979.22754 485.103955 
L 980.220246 485.148039 
L 981.212951 485.841106 
L 982.205657 485.754388 
L 983.198363 485.903215 
L 984.191069 485.198008 
L 985.183775 485.876463 
L 986.176481 485.4875 
L 987.169187 485.630099 
L 988.161893 487.091696 
L 990.147305 486.425226 
L 991.140011 487.012089 
L 992.132717 486.281911 
L 993.125423 486.352533 
L 994.118128 487.192863 
L 995.110834 486.348634 
L 996.10354 485.669769 
L 997.096246 487.021007 
L 998.088952 487.057207 
L 999.081658 486.896214 
L 1000.074364 485.787194 
L 1001.06707 487.101849 
L 1002.059776 486.71851 
L 1003.052482 485.819802 
L 1004.045188 486.616399 
L 1005.037894 487.093364 
L 1006.0306 487.275179 
L 1007.023305 486.159372 
L 1008.016011 488.456947 
L 1009.008717 487.180647 
L 1010.001423 486.766823 
L 1010.994129 486.828058 
L 1011.986835 485.765012 
L 1012.979541 487.731595 
L 1014.964953 486.991093 
L 1015.957659 487.538433 
L 1016.950365 487.529311 
L 1017.943071 485.831063 
L 1018.935777 487.068789 
L 1019.928482 486.449109 
L 1020.921188 486.980362 
L 1021.913894 487.08909 
L 1022.9066 487.035371 
L 1024.892012 487.940294 
L 1025.884718 487.238235 
L 1026.877424 488.001211 
L 1027.87013 486.982596 
L 1028.862836 487.665336 
L 1029.855542 486.750939 
L 1030.848248 487.842085 
L 1031.840954 487.193416 
L 1032.833659 487.442716 
L 1033.826365 487.494251 
L 1034.819071 488.55762 
L 1035.811777 487.655031 
L 1036.804483 487.294145 
L 1037.797189 487.105415 
L 1038.789895 487.255067 
L 1039.782601 488.685137 
L 1040.775307 487.725312 
L 1041.768013 488.225209 
L 1042.760719 487.730468 
L 1043.753425 488.467287 
L 1044.746131 488.063058 
L 1045.738837 488.337316 
L 1046.731542 488.292885 
L 1047.724248 488.592095 
L 1048.716954 489.031586 
L 1049.70966 488.265204 
L 1050.702366 488.795207 
L 1051.695072 487.880055 
L 1052.687778 487.653892 
L 1053.680484 488.628238 
L 1054.67319 487.813479 
L 1055.665896 489.262702 
L 1056.658602 488.43565 
L 1057.651308 488.558761 
L 1058.644014 489.320446 
L 1059.636719 489.219586 
L 1060.629425 490.15216 
L 1061.622131 488.540556 
L 1062.614837 489.126857 
L 1063.607543 488.992966 
L 1064.600249 488.353119 
L 1065.592955 488.81553 
L 1066.585661 488.520306 
L 1067.578367 489.027556 
L 1068.571073 489.097571 
L 1069.563779 488.944329 
L 1070.556485 489.336967 
L 1071.549191 489.265318 
L 1072.541896 488.406505 
L 1074.527308 489.650797 
L 1075.520014 488.877236 
L 1076.51272 488.379861 
L 1077.505426 489.157049 
L 1078.498132 490.202808 
L 1079.490838 490.297216 
L 1080.483544 488.711593 
L 1081.47625 489.176505 
L 1082.468956 488.692391 
L 1083.461662 488.772491 
L 1084.454368 489.479374 
L 1085.447073 488.282297 
L 1086.439779 489.639043 
L 1087.432485 489.233695 
L 1089.417897 489.57996 
L 1090.410603 489.318635 
L 1091.403309 489.758464 
L 1093.388721 489.746931 
L 1094.381427 488.764657 
L 1095.374133 490.166565 
L 1097.359545 489.491469 
L 1098.35225 490.305472 
L 1099.344956 489.976583 
L 1100.337662 490.750671 
L 1102.323074 489.955459 
L 1103.31578 489.918464 
L 1104.308486 489.45334 
L 1105.301192 490.5969 
L 1106.293898 490.099605 
L 1107.286604 490.016144 
L 1108.27931 488.859252 
L 1109.272016 489.519313 
L 1110.264722 491.020803 
L 1111.257428 490.469411 
L 1112.250133 488.955235 
L 1113.242839 490.209668 
L 1114.235545 488.878203 
L 1115.228251 490.869611 
L 1116.220957 490.858983 
L 1119.199075 489.440935 
L 1120.191781 490.102078 
L 1121.184487 490.469965 
L 1122.177193 489.949187 
L 1123.169899 490.116901 
L 1124.162605 489.47993 
L 1125.15531 489.574093 
L 1126.148016 490.693103 
L 1127.140722 490.456065 
L 1128.133428 490.429635 
L 1129.126134 490.136552 
L 1130.11884 491.093072 
L 1131.111546 491.213043 
L 1132.104252 490.606155 
L 1133.096958 491.202979 
L 1134.089664 490.331269 
L 1135.08237 489.682555 
L 1136.075076 490.111919 
L 1137.067782 489.458136 
L 1138.060487 490.517451 
L 1139.053193 490.705287 
L 1140.045899 491.771709 
L 1141.038605 489.986392 
L 1142.031311 490.484972 
L 1144.016723 490.951686 
L 1145.009429 489.965515 
L 1146.994841 490.593745 
L 1147.987547 490.274964 
L 1148.980253 490.760586 
L 1149.972959 490.510777 
L 1150.965664 489.896894 
L 1152.951076 491.131989 
L 1153.943782 490.756731 
L 1155.929194 490.815719 
L 1156.9219 491.562952 
L 1157.914606 490.697488 
L 1158.907312 490.843135 
L 1159.900018 490.099205 
L 1160.892724 490.916955 
L 1161.88543 491.044657 
L 1162.878136 491.342949 
L 1163.870841 490.753225 
L 1164.863547 489.956724 
L 1165.856253 490.57049 
L 1166.848959 491.615836 
L 1167.841665 490.282238 
L 1169.827077 490.362443 
L 1170.819783 490.782083 
L 1171.812489 490.339043 
L 1172.805195 491.728899 
L 1173.797901 490.477938 
L 1174.790607 490.82803 
L 1176.776019 490.949486 
L 1177.768724 490.334335 
L 1178.76143 491.457463 
L 1179.754136 491.613746 
L 1181.739548 490.55745 
L 1182.732254 491.384032 
L 1183.72496 490.91437 
L 1184.717666 491.037 
L 1185.710372 490.590351 
L 1186.703078 490.888743 
L 1187.695784 491.04574 
L 1188.68849 490.650363 
L 1189.681196 490.571257 
L 1190.673901 492.01763 
L 1191.666607 491.288524 
L 1192.659313 491.439451 
L 1193.652019 491.230424 
L 1194.644725 491.747269 
L 1195.637431 491.47436 
L 1196.630137 490.496204 
L 1197.622843 491.519326 
L 1198.615549 490.674399 
L 1199.608255 491.213261 
L 1200.600961 490.719209 
L 1201.593667 490.964122 
L 1202.586373 491.487408 
L 1203.579078 490.382754 
L 1204.571784 490.501834 
L 1205.56449 491.60596 
L 1206.557196 491.860143 
L 1207.549902 491.451027 
L 1208.542608 491.993972 
L 1209.535314 491.832799 
L 1210.52802 490.654007 
L 1211.520726 490.199562 
L 1212.513432 491.039366 
L 1213.506138 491.322644 
L 1214.498844 490.26794 
L 1215.49155 491.166677 
L 1216.484255 490.667406 
L 1218.469667 491.538693 
L 1220.455079 490.395109 
L 1221.447785 492.068209 
L 1222.440491 492.48 
L 1223.433197 491.41787 
L 1224.425903 491.200817 
L 1225.418609 491.570206 
L 1226.411315 491.806845 
L 1227.404021 490.992558 
L 1228.396727 491.589671 
L 1229.389432 491.197324 
L 1230.382138 491.136238 
L 1231.374844 491.606683 
L 1232.36755 490.905375 
L 1233.360256 490.560375 
L 1235.345668 491.54344 
L 1236.338374 490.965951 
L 1237.33108 491.201781 
L 1238.323786 491.791376 
L 1239.316492 491.287117 
L 1240.309198 490.503714 
L 1241.301904 491.351471 
L 1242.29461 490.700146 
L 1243.287315 491.635512 
L 1244.280021 492.246771 
L 1245.272727 491.679465 
L 1245.272727 491.679465 
" clip-path="url(#p1615f17485)" style="fill: none; stroke: #1f77b4; stroke-width: 1.5; stroke-linecap: square"/>
   </g>
   <g id="patch_3">
    <path d="M 180 512.64 
L 180 69.12 
" style="fill: none; stroke: #000000; stroke-width: 0.8; stroke-linejoin: miter; stroke-linecap: square"/>
   </g>
   <g id="patch_4">
    <path d="M 1296 512.64 
L 1296 69.12 
" style="fill: none; stroke: #000000; stroke-width: 0.8; stroke-linejoin: miter; stroke-linecap: square"/>
   </g>
   <g id="patch_5">
    <path d="M 180 512.64 
L 1296 512.64 
" style="fill: none; stroke: #000000; stroke-width: 0.8; stroke-linejoin: miter; stroke-linecap: square"/>
   </g>
   <g id="patch_6">
    <path d="M 180 69.12 
L 1296 69.12 
" style="fill: none; stroke: #000000; stroke-width: 0.8; stroke-linejoin: miter; stroke-linecap: square"/>
   </g>
   <g id="text_14">
    <!-- source12-receiver24 -->
    <g transform="translate(532.175 60.80125) scale(0.4 -0.4)">
     <defs>
      <path id="DejaVuSans-73" d="M 2834 3397 
L 2834 2853 
Q 2591 2978 2328 3040 
Q 2066 3103 1784 3103 
Q 1356 3103 1142 2972 
Q 928 2841 928 2578 
Q 928 2378 1081 2264 
Q 1234 2150 1697 2047 
L 1894 2003 
Q 2506 1872 2764 1633 
Q 3022 1394 3022 966 
Q 3022 478 2636 193 
Q 2250 -91 1575 -91 
Q 1294 -91 989 -36 
Q 684 19 347 128 
L 347 722 
Q 666 556 975 473 
Q 1284 391 1588 391 
Q 1994 391 2212 530 
Q 2431 669 2431 922 
Q 2431 1156 2273 1281 
Q 2116 1406 1581 1522 
L 1381 1569 
Q 847 1681 609 1914 
Q 372 2147 372 2553 
Q 372 3047 722 3315 
Q 1072 3584 1716 3584 
Q 2034 3584 2315 3537 
Q 2597 3491 2834 3397 
z
" transform="scale(0.015625)"/>
      <path id="DejaVuSans-6f" d="M 1959 3097 
Q 1497 3097 1228 2736 
Q 959 2375 959 1747 
Q 959 1119 1226 758 
Q 1494 397 1959 397 
Q 2419 397 2687 759 
Q 2956 1122 2956 1747 
Q 2956 2369 2687 2733 
Q 2419 3097 1959 3097 
z
M 1959 3584 
Q 2709 3584 3137 3096 
Q 3566 2609 3566 1747 
Q 3566 888 3137 398 
Q 2709 -91 1959 -91 
Q 1206 -91 779 398 
Q 353 888 353 1747 
Q 353 2609 779 3096 
Q 1206 3584 1959 3584 
z
" transform="scale(0.015625)"/>
      <path id="DejaVuSans-75" d="M 544 1381 
L 544 3500 
L 1119 3500 
L 1119 1403 
Q 1119 906 1312 657 
Q 1506 409 1894 409 
Q 2359 409 2629 706 
Q 2900 1003 2900 1516 
L 2900 3500 
L 3475 3500 
L 3475 0 
L 2900 0 
L 2900 538 
Q 2691 219 2414 64 
Q 2138 -91 1772 -91 
Q 1169 -91 856 284 
Q 544 659 544 1381 
z
M 1991 3584 
L 1991 3584 
z
" transform="scale(0.015625)"/>
      <path id="DejaVuSans-72" d="M 2631 2963 
Q 2534 3019 2420 3045 
Q 2306 3072 2169 3072 
Q 1681 3072 1420 2755 
Q 1159 2438 1159 1844 
L 1159 0 
L 581 0 
L 581 3500 
L 1159 3500 
L 1159 2956 
Q 1341 3275 1631 3429 
Q 1922 3584 2338 3584 
Q 2397 3584 2469 3576 
Q 2541 3569 2628 3553 
L 2631 2963 
z
" transform="scale(0.015625)"/>
      <path id="DejaVuSans-63" d="M 3122 3366 
L 3122 2828 
Q 2878 2963 2633 3030 
Q 2388 3097 2138 3097 
Q 1578 3097 1268 2742 
Q 959 2388 959 1747 
Q 959 1106 1268 751 
Q 1578 397 2138 397 
Q 2388 397 2633 464 
Q 2878 531 3122 666 
L 3122 134 
Q 2881 22 2623 -34 
Q 2366 -91 2075 -91 
Q 1284 -91 818 406 
Q 353 903 353 1747 
Q 353 2603 823 3093 
Q 1294 3584 2113 3584 
Q 2378 3584 2631 3529 
Q 2884 3475 3122 3366 
z
" transform="scale(0.015625)"/>
      <path id="DejaVuSans-65" d="M 3597 1894 
L 3597 1613 
L 953 1613 
Q 991 1019 1311 708 
Q 1631 397 2203 397 
Q 2534 397 2845 478 
Q 3156 559 3463 722 
L 3463 178 
Q 3153 47 2828 -22 
Q 2503 -91 2169 -91 
Q 1331 -91 842 396 
Q 353 884 353 1716 
Q 353 2575 817 3079 
Q 1281 3584 2069 3584 
Q 2775 3584 3186 3129 
Q 3597 2675 3597 1894 
z
M 3022 2063 
Q 3016 2534 2758 2815 
Q 2500 3097 2075 3097 
Q 1594 3097 1305 2825 
Q 1016 2553 972 2059 
L 3022 2063 
z
" transform="scale(0.015625)"/>
      <path id="DejaVuSans-2d" d="M 313 2009 
L 1997 2009 
L 1997 1497 
L 313 1497 
L 313 2009 
z
" transform="scale(0.015625)"/>
      <path id="DejaVuSans-69" d="M 603 3500 
L 1178 3500 
L 1178 0 
L 603 0 
L 603 3500 
z
M 603 4863 
L 1178 4863 
L 1178 4134 
L 603 4134 
L 603 4863 
z
" transform="scale(0.015625)"/>
      <path id="DejaVuSans-76" d="M 191 3500 
L 800 3500 
L 1894 563 
L 2988 3500 
L 3597 3500 
L 2284 0 
L 1503 0 
L 191 3500 
z
" transform="scale(0.015625)"/>
     </defs>
     <use xlink:href="#DejaVuSans-73"/>
     <use xlink:href="#DejaVuSans-6f" x="52.099609"/>
     <use xlink:href="#DejaVuSans-75" x="113.28125"/>
     <use xlink:href="#DejaVuSans-72" x="176.660156"/>
     <use xlink:href="#DejaVuSans-63" x="215.523438"/>
     <use xlink:href="#DejaVuSans-65" x="270.503906"/>
     <use xlink:href="#DejaVuSans-31" x="332.027344"/>
     <use xlink:href="#DejaVuSans-32" x="395.650391"/>
     <use xlink:href="#DejaVuSans-2d" x="459.273438"/>
     <use xlink:href="#DejaVuSans-72" x="495.357422"/>
     <use xlink:href="#DejaVuSans-65" x="534.220703"/>
     <use xlink:href="#DejaVuSans-63" x="595.744141"/>
     <use xlink:href="#DejaVuSans-65" x="650.724609"/>
     <use xlink:href="#DejaVuSans-69" x="712.248047"/>
     <use xlink:href="#DejaVuSans-76" x="740.03125"/>
     <use xlink:href="#DejaVuSans-65" x="799.210938"/>
     <use xlink:href="#DejaVuSans-72" x="860.734375"/>
     <use xlink:href="#DejaVuSans-32" x="901.847656"/>
     <use xlink:href="#DejaVuSans-34" x="965.470703"/>
    </g>
   </g>
  </g>
 </g>
 <defs>
  <clipPath id="p1615f17485">
   <rect x="180" y="69.12" width="1116" height="443.52"/>
  </clipPath>
 </defs>
</svg>
