<?xml version="1.0" encoding="utf-8" standalone="no"?>
<!DOCTYPE svg PUBLIC "-//W3C//DTD SVG 1.1//EN"
  "http://www.w3.org/Graphics/SVG/1.1/DTD/svg11.dtd">
<svg xmlns:xlink="http://www.w3.org/1999/xlink" width="1440pt" height="576pt" viewBox="0 0 1440 576" xmlns="http://www.w3.org/2000/svg" version="1.1">
 <metadata>
  <rdf:RDF xmlns:dc="http://purl.org/dc/elements/1.1/" xmlns:cc="http://creativecommons.org/ns#" xmlns:rdf="http://www.w3.org/1999/02/22-rdf-syntax-ns#">
   <cc:Work>
    <dc:type rdf:resource="http://purl.org/dc/dcmitype/StillImage"/>
    <dc:date>2024-05-22T04:50:02.775292</dc:date>
    <dc:format>image/svg+xml</dc:format>
    <dc:creator>
     <cc:Agent>
      <dc:title>Matplotlib v3.8.3, https://matplotlib.org/</dc:title>
     </cc:Agent>
    </dc:creator>
   </cc:Work>
  </rdf:RDF>
 </metadata>
 <defs>
  <style type="text/css">*{stroke-linejoin: round; stroke-linecap: butt}</style>
 </defs>
 <g id="figure_1">
  <g id="patch_1">
   <path d="M 0 576 
L 1440 576 
L 1440 0 
L 0 0 
z
" style="fill: #ffffff"/>
  </g>
  <g id="axes_1">
   <g id="patch_2">
    <path d="M 180 512.64 
L 1296 512.64 
L 1296 69.12 
L 180 69.12 
z
" style="fill: #ffffff"/>
   </g>
   <g id="matplotlib.axis_1">
    <g id="xtick_1">
     <g id="line2d_1">
      <defs>
       <path id="m17a33d3765" d="M 0 0 
L 0 3.5 
" style="stroke: #000000; stroke-width: 0.8"/>
      </defs>
      <g>
       <use xlink:href="#m17a33d3765" x="229.734567" y="512.64" style="stroke: #000000; stroke-width: 0.8"/>
      </g>
     </g>
     <g id="text_1">
      <!-- 0 -->
      <g transform="translate(226.553317 527.238438) scale(0.1 -0.1)">
       <defs>
        <path id="DejaVuSans-30" d="M 2034 4250 
Q 1547 4250 1301 3770 
Q 1056 3291 1056 2328 
Q 1056 1369 1301 889 
Q 1547 409 2034 409 
Q 2525 409 2770 889 
Q 3016 1369 3016 2328 
Q 3016 3291 2770 3770 
Q 2525 4250 2034 4250 
z
M 2034 4750 
Q 2819 4750 3233 4129 
Q 3647 3509 3647 2328 
Q 3647 1150 3233 529 
Q 2819 -91 2034 -91 
Q 1250 -91 836 529 
Q 422 1150 422 2328 
Q 422 3509 836 4129 
Q 1250 4750 2034 4750 
z
" transform="scale(0.015625)"/>
       </defs>
       <use xlink:href="#DejaVuSans-30"/>
      </g>
     </g>
    </g>
    <g id="xtick_2">
     <g id="line2d_2">
      <g>
       <use xlink:href="#m17a33d3765" x="433.04074" y="512.64" style="stroke: #000000; stroke-width: 0.8"/>
      </g>
     </g>
     <g id="text_2">
      <!-- 500 -->
      <g transform="translate(423.49699 527.238438) scale(0.1 -0.1)">
       <defs>
        <path id="DejaVuSans-35" d="M 691 4666 
L 3169 4666 
L 3169 4134 
L 1269 4134 
L 1269 2991 
Q 1406 3038 1543 3061 
Q 1681 3084 1819 3084 
Q 2600 3084 3056 2656 
Q 3513 2228 3513 1497 
Q 3513 744 3044 326 
Q 2575 -91 1722 -91 
Q 1428 -91 1123 -41 
Q 819 9 494 109 
L 494 744 
Q 775 591 1075 516 
Q 1375 441 1709 441 
Q 2250 441 2565 725 
Q 2881 1009 2881 1497 
Q 2881 1984 2565 2268 
Q 2250 2553 1709 2553 
Q 1456 2553 1204 2497 
Q 953 2441 691 2322 
L 691 4666 
z
" transform="scale(0.015625)"/>
       </defs>
       <use xlink:href="#DejaVuSans-35"/>
       <use xlink:href="#DejaVuSans-30" x="63.623047"/>
       <use xlink:href="#DejaVuSans-30" x="127.246094"/>
      </g>
     </g>
    </g>
    <g id="xtick_3">
     <g id="line2d_3">
      <g>
       <use xlink:href="#m17a33d3765" x="636.346913" y="512.64" style="stroke: #000000; stroke-width: 0.8"/>
      </g>
     </g>
     <g id="text_3">
      <!-- 1000 -->
      <g transform="translate(623.621913 527.238438) scale(0.1 -0.1)">
       <defs>
        <path id="DejaVuSans-31" d="M 794 531 
L 1825 531 
L 1825 4091 
L 703 3866 
L 703 4441 
L 1819 4666 
L 2450 4666 
L 2450 531 
L 3481 531 
L 3481 0 
L 794 0 
L 794 531 
z
" transform="scale(0.015625)"/>
       </defs>
       <use xlink:href="#DejaVuSans-31"/>
       <use xlink:href="#DejaVuSans-30" x="63.623047"/>
       <use xlink:href="#DejaVuSans-30" x="127.246094"/>
       <use xlink:href="#DejaVuSans-30" x="190.869141"/>
      </g>
     </g>
    </g>
    <g id="xtick_4">
     <g id="line2d_4">
      <g>
       <use xlink:href="#m17a33d3765" x="839.653087" y="512.64" style="stroke: #000000; stroke-width: 0.8"/>
      </g>
     </g>
     <g id="text_4">
      <!-- 1500 -->
      <g transform="translate(826.928087 527.238438) scale(0.1 -0.1)">
       <use xlink:href="#DejaVuSans-31"/>
       <use xlink:href="#DejaVuSans-35" x="63.623047"/>
       <use xlink:href="#DejaVuSans-30" x="127.246094"/>
       <use xlink:href="#DejaVuSans-30" x="190.869141"/>
      </g>
     </g>
    </g>
    <g id="xtick_5">
     <g id="line2d_5">
      <g>
       <use xlink:href="#m17a33d3765" x="1042.95926" y="512.64" style="stroke: #000000; stroke-width: 0.8"/>
      </g>
     </g>
     <g id="text_5">
      <!-- 2000 -->
      <g transform="translate(1030.23426 527.238438) scale(0.1 -0.1)">
       <defs>
        <path id="DejaVuSans-32" d="M 1228 531 
L 3431 531 
L 3431 0 
L 469 0 
L 469 531 
Q 828 903 1448 1529 
Q 2069 2156 2228 2338 
Q 2531 2678 2651 2914 
Q 2772 3150 2772 3378 
Q 2772 3750 2511 3984 
Q 2250 4219 1831 4219 
Q 1534 4219 1204 4116 
Q 875 4013 500 3803 
L 500 4441 
Q 881 4594 1212 4672 
Q 1544 4750 1819 4750 
Q 2544 4750 2975 4387 
Q 3406 4025 3406 3419 
Q 3406 3131 3298 2873 
Q 3191 2616 2906 2266 
Q 2828 2175 2409 1742 
Q 1991 1309 1228 531 
z
" transform="scale(0.015625)"/>
       </defs>
       <use xlink:href="#DejaVuSans-32"/>
       <use xlink:href="#DejaVuSans-30" x="63.623047"/>
       <use xlink:href="#DejaVuSans-30" x="127.246094"/>
       <use xlink:href="#DejaVuSans-30" x="190.869141"/>
      </g>
     </g>
    </g>
    <g id="xtick_6">
     <g id="line2d_6">
      <g>
       <use xlink:href="#m17a33d3765" x="1246.265433" y="512.64" style="stroke: #000000; stroke-width: 0.8"/>
      </g>
     </g>
     <g id="text_6">
      <!-- 2500 -->
      <g transform="translate(1233.540433 527.238438) scale(0.1 -0.1)">
       <use xlink:href="#DejaVuSans-32"/>
       <use xlink:href="#DejaVuSans-35" x="63.623047"/>
       <use xlink:href="#DejaVuSans-30" x="127.246094"/>
       <use xlink:href="#DejaVuSans-30" x="190.869141"/>
      </g>
     </g>
    </g>
   </g>
   <g id="matplotlib.axis_2">
    <g id="ytick_1">
     <g id="line2d_7">
      <defs>
       <path id="m0b2b4aaeb4" d="M 0 0 
L -3.5 0 
" style="stroke: #000000; stroke-width: 0.8"/>
      </defs>
      <g>
       <use xlink:href="#m0b2b4aaeb4" x="180" y="489.921239" style="stroke: #000000; stroke-width: 0.8"/>
      </g>
     </g>
     <g id="text_7">
      <!-- −3 -->
      <g transform="translate(158.257812 493.720457) scale(0.1 -0.1)">
       <defs>
        <path id="DejaVuSans-2212" d="M 678 2272 
L 4684 2272 
L 4684 1741 
L 678 1741 
L 678 2272 
z
" transform="scale(0.015625)"/>
        <path id="DejaVuSans-33" d="M 2597 2516 
Q 3050 2419 3304 2112 
Q 3559 1806 3559 1356 
Q 3559 666 3084 287 
Q 2609 -91 1734 -91 
Q 1441 -91 1130 -33 
Q 819 25 488 141 
L 488 750 
Q 750 597 1062 519 
Q 1375 441 1716 441 
Q 2309 441 2620 675 
Q 2931 909 2931 1356 
Q 2931 1769 2642 2001 
Q 2353 2234 1838 2234 
L 1294 2234 
L 1294 2753 
L 1863 2753 
Q 2328 2753 2575 2939 
Q 2822 3125 2822 3475 
Q 2822 3834 2567 4026 
Q 2313 4219 1838 4219 
Q 1578 4219 1281 4162 
Q 984 4106 628 3988 
L 628 4550 
Q 988 4650 1302 4700 
Q 1616 4750 1894 4750 
Q 2613 4750 3031 4423 
Q 3450 4097 3450 3541 
Q 3450 3153 3228 2886 
Q 3006 2619 2597 2516 
z
" transform="scale(0.015625)"/>
       </defs>
       <use xlink:href="#DejaVuSans-2212"/>
       <use xlink:href="#DejaVuSans-33" x="83.789062"/>
      </g>
     </g>
    </g>
    <g id="ytick_2">
     <g id="line2d_8">
      <g>
       <use xlink:href="#m0b2b4aaeb4" x="180" y="419.951751" style="stroke: #000000; stroke-width: 0.8"/>
      </g>
     </g>
     <g id="text_8">
      <!-- −2 -->
      <g transform="translate(158.257812 423.75097) scale(0.1 -0.1)">
       <use xlink:href="#DejaVuSans-2212"/>
       <use xlink:href="#DejaVuSans-32" x="83.789062"/>
      </g>
     </g>
    </g>
    <g id="ytick_3">
     <g id="line2d_9">
      <g>
       <use xlink:href="#m0b2b4aaeb4" x="180" y="349.982264" style="stroke: #000000; stroke-width: 0.8"/>
      </g>
     </g>
     <g id="text_9">
      <!-- −1 -->
      <g transform="translate(158.257812 353.781483) scale(0.1 -0.1)">
       <use xlink:href="#DejaVuSans-2212"/>
       <use xlink:href="#DejaVuSans-31" x="83.789062"/>
      </g>
     </g>
    </g>
    <g id="ytick_4">
     <g id="line2d_10">
      <g>
       <use xlink:href="#m0b2b4aaeb4" x="180" y="280.012777" style="stroke: #000000; stroke-width: 0.8"/>
      </g>
     </g>
     <g id="text_10">
      <!-- 0 -->
      <g transform="translate(166.6375 283.811996) scale(0.1 -0.1)">
       <use xlink:href="#DejaVuSans-30"/>
      </g>
     </g>
    </g>
    <g id="ytick_5">
     <g id="line2d_11">
      <g>
       <use xlink:href="#m0b2b4aaeb4" x="180" y="210.04329" style="stroke: #000000; stroke-width: 0.8"/>
      </g>
     </g>
     <g id="text_11">
      <!-- 1 -->
      <g transform="translate(166.6375 213.842508) scale(0.1 -0.1)">
       <use xlink:href="#DejaVuSans-31"/>
      </g>
     </g>
    </g>
    <g id="ytick_6">
     <g id="line2d_12">
      <g>
       <use xlink:href="#m0b2b4aaeb4" x="180" y="140.073802" style="stroke: #000000; stroke-width: 0.8"/>
      </g>
     </g>
     <g id="text_12">
      <!-- 2 -->
      <g transform="translate(166.6375 143.873021) scale(0.1 -0.1)">
       <use xlink:href="#DejaVuSans-32"/>
      </g>
     </g>
    </g>
    <g id="ytick_7">
     <g id="line2d_13">
      <g>
       <use xlink:href="#m0b2b4aaeb4" x="180" y="70.104315" style="stroke: #000000; stroke-width: 0.8"/>
      </g>
     </g>
     <g id="text_13">
      <!-- 3 -->
      <g transform="translate(166.6375 73.903534) scale(0.1 -0.1)">
       <use xlink:href="#DejaVuSans-33"/>
      </g>
     </g>
    </g>
   </g>
   <g id="line2d_14">
    <path d="M 230.727273 432.766431 
L 231.719979 430.529431 
L 232.712685 429.76346 
L 233.70539 431.224598 
L 234.698096 429.022235 
L 235.690802 428.971359 
L 236.683508 429.745462 
L 237.676214 430.200037 
L 238.66892 430.378559 
L 239.661626 430.975206 
L 240.654332 432.158191 
L 241.647038 432.973046 
L 242.639744 435.779177 
L 243.63245 439.709233 
L 244.625156 437.286088 
L 245.617862 422.323385 
L 246.610568 392.763803 
L 247.603273 357.671374 
L 248.595979 330.65982 
L 249.588685 313.544666 
L 250.581391 290.454488 
L 251.574097 255.181372 
L 252.566803 228.03525 
L 253.559509 209.274476 
L 254.552215 186.954097 
L 255.544921 169.392923 
L 256.537627 163.570315 
L 257.530333 159.275697 
L 259.515745 129.849087 
L 260.50845 123.652949 
L 261.501156 120.011289 
L 262.493862 119.471731 
L 263.486568 123.592634 
L 264.479274 132.561231 
L 265.47198 143.499135 
L 267.457392 159.983321 
L 268.450098 194.839476 
L 269.442804 263.93459 
L 270.43551 174.965219 
L 271.428216 164.990592 
L 272.420922 140.657793 
L 273.413627 102.580508 
L 274.406333 92.116999 
L 275.399039 106.660315 
L 276.391745 136.603594 
L 278.377157 220.130119 
L 279.369863 124.770804 
L 280.362569 91.122872 
L 281.355275 89.28 
L 282.347981 110.344067 
L 283.340687 139.325811 
L 285.326099 132.732509 
L 286.318804 150.323511 
L 287.31151 179.056355 
L 288.304216 170.461348 
L 289.296922 149.209981 
L 290.289628 160.091549 
L 292.27504 279.843681 
L 293.267746 232.760933 
L 294.260452 301.860238 
L 295.253158 279.434927 
L 296.245864 248.900744 
L 297.23857 278.937277 
L 298.231276 305.362688 
L 299.223981 340.565894 
L 301.209393 254.143501 
L 302.202099 247.138099 
L 304.187511 254.984242 
L 305.180217 267.628808 
L 306.172923 299.185873 
L 307.165629 308.302234 
L 308.158335 295.957851 
L 309.151041 291.035664 
L 310.143747 288.094889 
L 311.136453 290.03354 
L 312.129159 308.695869 
L 313.121864 319.25678 
L 314.11457 323.194806 
L 315.107276 315.668108 
L 316.099982 314.083842 
L 317.092688 309.379834 
L 318.085394 314.145565 
L 319.0781 319.655829 
L 320.070806 321.280356 
L 321.063512 323.839068 
L 322.056218 326.00619 
L 323.048924 323.748584 
L 324.04163 332.893966 
L 325.034336 328.747807 
L 326.027041 331.386265 
L 327.019747 324.721823 
L 329.005159 338.333454 
L 329.997865 331.113534 
L 330.990571 335.171464 
L 331.983277 341.762036 
L 332.975983 344.163497 
L 333.968689 334.236334 
L 334.961395 336.75554 
L 335.954101 335.876084 
L 336.946807 348.298067 
L 337.939513 348.545684 
L 339.924924 339.808996 
L 340.91763 350.84455 
L 341.910336 345.098161 
L 342.903042 354.993696 
L 343.895748 346.294386 
L 344.888454 352.02624 
L 345.88116 360.882417 
L 346.873866 362.766179 
L 347.866572 346.515435 
L 348.859278 358.207435 
L 349.851984 351.952853 
L 350.84469 349.412732 
L 351.837395 356.144803 
L 352.830101 361.588725 
L 353.822807 363.974523 
L 354.815513 352.628735 
L 355.808219 353.528577 
L 356.800925 368.071617 
L 357.793631 359.043559 
L 358.786337 358.584005 
L 359.779043 363.181526 
L 360.771749 370.854263 
L 361.764455 371.784949 
L 362.757161 368.072834 
L 363.749867 368.813393 
L 364.742572 365.715978 
L 365.735278 368.586125 
L 366.727984 369.645404 
L 367.72069 369.825266 
L 368.713396 366.662448 
L 369.706102 372.735235 
L 370.698808 372.025841 
L 371.691514 377.425514 
L 372.68422 359.167874 
L 373.676926 372.75084 
L 374.669632 371.575704 
L 375.662338 383.105583 
L 376.655044 375.81194 
L 377.64775 389.222053 
L 378.640455 367.580111 
L 379.633161 373.478915 
L 380.625867 369.630996 
L 382.611279 371.664376 
L 383.603985 385.669217 
L 384.596691 379.413094 
L 385.589397 365.463083 
L 386.582103 374.728599 
L 387.574809 375.28032 
L 388.567515 383.690197 
L 389.560221 377.338941 
L 390.552927 380.634101 
L 391.545632 375.521475 
L 392.538338 391.604266 
L 393.531044 386.30415 
L 394.52375 379.209147 
L 395.516456 373.998892 
L 396.509162 384.176005 
L 398.494574 389.460427 
L 399.48728 379.547248 
L 400.479986 383.396921 
L 401.472692 393.943921 
L 402.465398 379.279061 
L 403.458104 389.388615 
L 404.450809 405.445185 
L 405.443515 372.178769 
L 406.436221 384.796666 
L 407.428927 400.126813 
L 408.421633 405.625186 
L 409.414339 399.182516 
L 411.399751 382.786724 
L 412.392457 395.602447 
L 413.385163 411.165626 
L 414.377869 384.362195 
L 415.370575 398.49105 
L 416.363281 378.956257 
L 417.355986 410.529035 
L 418.348692 391.340139 
L 419.341398 385.341522 
L 420.334104 406.177058 
L 421.32681 414.428082 
L 422.319516 400.532362 
L 424.304928 426.803767 
L 425.297634 406.531498 
L 426.29034 403.536321 
L 427.283046 390.243039 
L 428.275752 388.140037 
L 429.268458 392.067367 
L 430.261163 402.771166 
L 431.253869 406.140416 
L 432.246575 409.04053 
L 433.239281 402.860697 
L 434.231987 406.483487 
L 435.224693 399.437027 
L 436.217399 404.316227 
L 437.210105 396.754256 
L 438.202811 405.293407 
L 439.195517 411.370097 
L 440.188223 406.870421 
L 441.180929 382.817983 
L 442.173635 423.58812 
L 443.166341 418.50663 
L 444.159046 414.387697 
L 445.151752 402.847803 
L 446.144458 394.343892 
L 448.12987 411.772923 
L 449.122576 398.870615 
L 450.115282 427.235806 
L 451.107988 413.298683 
L 452.100694 419.415959 
L 453.0934 404.948633 
L 454.086106 402.369501 
L 455.078812 405.913755 
L 456.071518 414.176586 
L 457.064223 385.236351 
L 458.056929 430.900022 
L 459.049635 415.244195 
L 460.042341 406.52925 
L 461.035047 414.715168 
L 462.027753 432.344426 
L 463.020459 440.412081 
L 464.013165 401.294242 
L 465.005871 401.193721 
L 465.998577 393.178648 
L 466.991283 422.805258 
L 467.983989 410.954824 
L 468.976695 409.55458 
L 469.9694 427.944262 
L 470.962106 399.397897 
L 471.954812 399.744518 
L 472.947518 417.588174 
L 473.940224 443.039573 
L 474.93293 426.325303 
L 475.925636 401.567711 
L 476.918342 417.221209 
L 477.911048 416.51733 
L 478.903754 405.958279 
L 479.89646 429.945468 
L 480.889166 420.20363 
L 481.881872 422.038916 
L 482.874577 426.191309 
L 483.867283 407.814474 
L 484.859989 437.049753 
L 485.852695 408.47213 
L 486.845401 420.545404 
L 487.838107 418.304272 
L 488.830813 418.122411 
L 489.823519 433.173481 
L 490.816225 426.602131 
L 491.808931 427.083091 
L 492.801637 444.425314 
L 493.794343 420.28968 
L 494.787049 418.520578 
L 495.779754 439.228806 
L 496.77246 442.425413 
L 497.765166 407.063687 
L 498.757872 429.985906 
L 499.750578 425.734475 
L 500.743284 461.092172 
L 501.73599 435.209986 
L 502.728696 432.270458 
L 503.721402 408.835099 
L 504.714108 418.070863 
L 505.706814 432.412736 
L 506.69952 433.912594 
L 507.692226 408.043584 
L 508.684932 439.629333 
L 509.677637 425.85523 
L 510.670343 428.932406 
L 511.663049 420.392188 
L 512.655755 431.70839 
L 513.648461 425.868732 
L 514.641167 446.850575 
L 515.633873 415.456866 
L 516.626579 422.156769 
L 517.619285 410.697835 
L 518.611991 423.626897 
L 519.604697 443.487215 
L 520.597403 439.467127 
L 521.590109 399.499502 
L 522.582814 454.398685 
L 523.57552 443.32003 
L 524.568226 448.27029 
L 525.560932 426.804707 
L 526.553638 476.039068 
L 527.546344 434.509492 
L 528.53905 436.183251 
L 529.531756 427.9053 
L 530.524462 431.987562 
L 531.517168 419.571422 
L 532.509874 432.865842 
L 533.50258 407.305924 
L 534.495286 442.651279 
L 535.487991 472.857668 
L 536.480697 456.737844 
L 537.473403 412.542217 
L 538.466109 445.291455 
L 539.458815 421.883204 
L 540.451521 415.259582 
L 542.436933 445.857128 
L 543.429639 453.243552 
L 544.422345 412.654871 
L 545.415051 415.84554 
L 546.407757 428.876683 
L 547.400463 436.950697 
L 548.393168 434.875989 
L 549.385874 407.358088 
L 550.37858 435.120788 
L 551.371286 455.536569 
L 552.363992 430.731072 
L 553.356698 436.982103 
L 554.349404 418.664932 
L 555.34211 418.412984 
L 556.334816 420.621084 
L 557.327522 407.854756 
L 558.320228 428.730689 
L 559.312934 432.430488 
L 560.30564 448.117817 
L 561.298345 441.407914 
L 562.291051 440.551275 
L 563.283757 432.540355 
L 564.276463 427.08543 
L 565.269169 434.552962 
L 566.261875 408.195069 
L 567.254581 435.999735 
L 568.247287 436.339122 
L 569.239993 424.276754 
L 570.232699 441.760321 
L 571.225405 422.801814 
L 572.218111 452.033827 
L 573.210817 428.669508 
L 574.203523 446.129072 
L 575.196228 441.275431 
L 576.188934 437.591928 
L 577.18164 429.348379 
L 578.174346 459.504552 
L 579.167052 432.815313 
L 580.159758 465.155748 
L 581.152464 436.425708 
L 582.14517 461.857091 
L 583.137876 468.182639 
L 584.130582 454.68876 
L 585.123288 444.797454 
L 586.115994 479.632988 
L 587.1087 437.208997 
L 588.101405 446.051272 
L 589.094111 453.137246 
L 590.086817 441.322932 
L 591.079523 467.199363 
L 592.072229 425.366195 
L 594.057641 463.744477 
L 595.050347 444.407407 
L 596.043053 454.926279 
L 597.035759 453.567638 
L 598.028465 444.744574 
L 599.021171 453.33067 
L 600.013877 447.956536 
L 601.006582 457.698718 
L 601.999288 448.291257 
L 602.991994 441.204109 
L 603.9847 449.159689 
L 604.977406 448.993323 
L 605.970112 455.852747 
L 606.962818 449.776165 
L 607.955524 450.985897 
L 608.94823 432.577722 
L 609.940936 466.235746 
L 610.933642 456.73934 
L 611.926348 441.138172 
L 612.919054 457.943071 
L 613.911759 437.074712 
L 614.904465 439.171723 
L 615.897171 468.545103 
L 616.889877 456.871574 
L 617.882583 451.634063 
L 618.875289 458.680373 
L 619.867995 438.882811 
L 620.860701 453.060576 
L 621.853407 444.799515 
L 622.846113 444.025215 
L 623.838819 466.69164 
L 624.831525 445.425765 
L 625.824231 442.268257 
L 626.816936 450.945375 
L 627.809642 443.766993 
L 628.802348 448.136102 
L 629.795054 455.877 
L 630.78776 456.940961 
L 631.780466 458.396921 
L 632.773172 449.163978 
L 634.758584 460.832267 
L 635.75129 439.647698 
L 636.743996 448.135767 
L 637.736702 451.120358 
L 638.729408 447.933522 
L 639.722114 454.791947 
L 640.714819 458.774318 
L 641.707525 447.924884 
L 642.700231 451.369711 
L 643.692937 447.612569 
L 644.685643 452.588618 
L 645.678349 450.249357 
L 646.671055 451.518676 
L 647.663761 449.467112 
L 648.656467 457.174878 
L 649.649173 455.761521 
L 650.641879 452.108382 
L 651.634585 456.360299 
L 652.627291 450.029652 
L 654.612702 449.958331 
L 655.605408 458.566045 
L 656.598114 456.100156 
L 657.59082 456.452106 
L 658.583526 460.52631 
L 659.576232 461.208281 
L 660.568938 452.560209 
L 662.55435 457.279737 
L 663.547056 459.976911 
L 664.539762 458.064006 
L 665.532468 454.331933 
L 666.525173 456.138439 
L 667.517879 456.32374 
L 668.510585 453.072717 
L 669.503291 457.691795 
L 670.495997 458.451067 
L 671.488703 458.05536 
L 672.481409 454.511294 
L 673.474115 460.335098 
L 674.466821 454.00862 
L 675.459527 456.793269 
L 676.452233 460.298476 
L 678.437645 456.680113 
L 679.43035 458.02228 
L 680.423056 457.476998 
L 681.415762 459.175051 
L 682.408468 460.492716 
L 683.401174 457.51374 
L 684.39388 459.31723 
L 685.386586 458.90904 
L 686.379292 459.640657 
L 687.371998 459.988834 
L 688.364704 459.179452 
L 689.35741 460.671077 
L 690.350116 460.171209 
L 691.342822 458.88345 
L 692.335527 461.210422 
L 693.328233 461.045031 
L 694.320939 459.536046 
L 695.313645 458.67439 
L 696.306351 463.54176 
L 697.299057 462.385919 
L 698.291763 462.482751 
L 699.284469 461.453394 
L 700.277175 461.848057 
L 701.269881 459.911359 
L 702.262587 458.781228 
L 703.255293 461.217462 
L 704.247999 461.718856 
L 705.240705 461.948739 
L 706.23341 462.799437 
L 707.226116 463.329165 
L 708.218822 460.429728 
L 709.211528 460.466923 
L 710.204234 460.762232 
L 711.19694 462.426488 
L 712.189646 461.325799 
L 713.182352 462.154792 
L 714.175058 464.04011 
L 715.167764 464.218726 
L 716.16047 462.175706 
L 717.153176 463.796181 
L 718.145882 463.076953 
L 719.138587 464.052781 
L 720.131293 463.402878 
L 721.123999 462.138387 
L 722.116705 461.775777 
L 723.109411 463.966208 
L 724.102117 461.962808 
L 725.094823 465.487683 
L 726.087529 462.652391 
L 727.080235 464.103547 
L 728.072941 462.354997 
L 729.065647 464.913076 
L 730.058353 465.034566 
L 731.051059 464.213894 
L 732.043764 465.055838 
L 733.03647 463.291738 
L 734.029176 465.041221 
L 735.021882 465.260516 
L 736.014588 462.649129 
L 737.007294 464.180824 
L 738 464.142626 
L 738.992706 463.740795 
L 739.985412 465.661703 
L 740.978118 467.17187 
L 741.970824 466.106335 
L 742.96353 464.728062 
L 743.956236 467.158858 
L 744.948941 465.854675 
L 745.941647 466.4021 
L 746.934353 464.621396 
L 747.927059 466.919489 
L 748.919765 465.480421 
L 749.912471 467.683924 
L 750.905177 464.878886 
L 751.897883 466.972428 
L 752.890589 465.270544 
L 753.883295 468.337208 
L 754.876001 467.518935 
L 755.868707 467.736272 
L 756.861413 467.439641 
L 757.854118 467.506421 
L 758.846824 467.99082 
L 760.832236 466.394471 
L 762.817648 468.243715 
L 763.810354 468.522069 
L 764.80306 467.292182 
L 765.795766 465.38236 
L 766.788472 465.269888 
L 767.781178 467.858941 
L 768.773884 466.724356 
L 769.76659 467.327975 
L 770.759295 470.343731 
L 771.752001 467.946096 
L 772.744707 468.867625 
L 773.737413 469.128817 
L 774.730119 470.734868 
L 775.722825 469.322884 
L 776.715531 469.581123 
L 777.708237 470.609228 
L 779.693649 468.489589 
L 780.686355 468.350914 
L 781.679061 469.95906 
L 782.671767 470.348741 
L 783.664473 468.594561 
L 784.657178 469.428833 
L 785.649884 469.082057 
L 786.64259 470.143826 
L 787.635296 468.772232 
L 788.628002 470.715609 
L 789.620708 470.572421 
L 790.613414 471.600694 
L 791.60612 470.842079 
L 792.598826 470.528897 
L 793.591532 470.709612 
L 794.584238 470.120208 
L 795.576944 469.819754 
L 796.56965 473.321634 
L 797.562355 471.939545 
L 798.555061 471.410385 
L 799.547767 472.17306 
L 800.540473 471.388136 
L 801.533179 471.370607 
L 802.525885 473.354871 
L 803.518591 471.631371 
L 804.511297 469.202885 
L 805.504003 472.397989 
L 806.496709 472.543461 
L 807.489415 473.098779 
L 808.482121 471.516552 
L 809.474827 471.70235 
L 810.467532 473.471084 
L 811.460238 471.796984 
L 812.452944 471.770124 
L 813.44565 471.112398 
L 814.438356 473.068572 
L 815.431062 474.033692 
L 816.423768 473.595137 
L 817.416474 474.320474 
L 818.40918 473.837012 
L 819.401886 472.468469 
L 820.394592 472.942952 
L 821.387298 473.938933 
L 822.380004 474.264601 
L 823.372709 472.253854 
L 824.365415 472.605841 
L 825.358121 474.216638 
L 826.350827 472.217655 
L 827.343533 472.840631 
L 828.336239 474.508348 
L 829.328945 474.928807 
L 830.321651 474.482772 
L 832.307063 474.553517 
L 833.299769 473.76203 
L 834.292475 473.856654 
L 835.285181 475.406843 
L 836.277886 475.271981 
L 837.270592 474.255664 
L 838.263298 475.63504 
L 839.256004 475.720216 
L 840.24871 477.133405 
L 841.241416 474.471074 
L 842.234122 474.115082 
L 843.226828 475.630147 
L 844.219534 474.323252 
L 845.21224 475.329662 
L 846.204946 474.60784 
L 847.197652 474.48062 
L 848.190358 477.245437 
L 849.183064 478.161151 
L 850.175769 475.32341 
L 851.168475 475.008273 
L 852.161181 475.672156 
L 853.153887 474.982709 
L 854.146593 475.220588 
L 855.139299 477.891144 
L 856.132005 477.462249 
L 857.124711 474.803764 
L 858.117417 477.363897 
L 859.110123 476.371714 
L 860.102829 474.649602 
L 861.095535 476.349909 
L 862.088241 476.613755 
L 863.080946 477.547892 
L 864.073652 477.020151 
L 865.066358 476.079474 
L 866.059064 476.806956 
L 867.05177 476.160941 
L 868.044476 477.97942 
L 869.037182 475.676285 
L 871.022594 478.891674 
L 872.0153 478.507757 
L 873.008006 475.370947 
L 874.000712 478.88109 
L 874.993418 477.077292 
L 875.986123 478.17066 
L 876.978829 476.070328 
L 877.971535 475.911302 
L 878.964241 477.98047 
L 880.949653 478.034358 
L 881.942359 477.383988 
L 882.935065 478.698605 
L 883.927771 477.713819 
L 884.920477 479.934605 
L 885.913183 479.737593 
L 886.905889 477.263721 
L 887.898595 479.09399 
L 888.8913 478.492557 
L 889.884006 479.441592 
L 890.876712 476.767863 
L 891.869418 479.651923 
L 892.862124 478.830531 
L 893.85483 478.379945 
L 894.847536 480.035257 
L 895.840242 479.565984 
L 896.832948 476.572293 
L 897.825654 478.616459 
L 898.81836 477.943672 
L 899.811066 480.209774 
L 900.803772 479.24382 
L 901.796477 479.903294 
L 902.789183 480.402432 
L 903.781889 478.823356 
L 904.774595 479.992705 
L 906.760007 479.376899 
L 907.752713 482.074583 
L 908.745419 480.342702 
L 909.738125 479.721029 
L 910.730831 479.675113 
L 911.723537 481.18545 
L 912.716243 480.765284 
L 913.708949 481.452104 
L 914.701655 480.260747 
L 915.69436 480.471339 
L 916.687066 481.218103 
L 917.679772 481.741127 
L 918.672478 481.058441 
L 919.665184 480.834952 
L 920.65789 480.448847 
L 922.643302 480.167192 
L 923.636008 481.078202 
L 924.628714 479.151593 
L 925.62142 482.127213 
L 926.614126 480.592639 
L 927.606832 481.966307 
L 928.599537 480.955482 
L 929.592243 479.453441 
L 930.584949 481.236929 
L 931.577655 481.386177 
L 932.570361 480.70133 
L 933.563067 483.020317 
L 934.555773 480.74573 
L 935.548479 481.689247 
L 936.541185 482.162428 
L 937.533891 481.939428 
L 938.526597 483.017823 
L 939.519303 481.824105 
L 940.512009 482.771201 
L 941.504714 481.429417 
L 942.49742 481.547282 
L 943.490126 482.398138 
L 944.482832 481.17305 
L 945.475538 480.477273 
L 946.468244 480.996939 
L 948.453656 482.340974 
L 949.446362 480.655238 
L 950.439068 482.274969 
L 951.431774 482.076001 
L 952.42448 480.650045 
L 953.417186 481.383523 
L 954.409891 483.741371 
L 955.402597 482.330527 
L 956.395303 481.986873 
L 957.388009 483.901747 
L 958.380715 481.614243 
L 959.373421 483.867781 
L 960.366127 482.225825 
L 961.358833 484.297873 
L 962.351539 482.130581 
L 963.344245 484.084943 
L 965.329657 482.376918 
L 966.322363 482.328377 
L 967.315068 482.162793 
L 968.307774 482.357598 
L 969.30048 481.747141 
L 970.293186 483.537067 
L 971.285892 482.369017 
L 972.278598 483.702023 
L 973.271304 481.905226 
L 975.256716 483.430074 
L 976.249422 482.839682 
L 977.242128 482.688321 
L 978.234834 482.010102 
L 979.22754 483.068628 
L 980.220246 483.070221 
L 982.205657 483.994864 
L 983.198363 484.988778 
L 984.191069 483.930518 
L 985.183775 483.110172 
L 986.176481 484.514884 
L 987.169187 483.335632 
L 988.161893 483.072729 
L 989.154599 484.567778 
L 990.147305 483.651802 
L 991.140011 486.017268 
L 992.132717 484.399763 
L 993.125423 483.933055 
L 994.118128 483.658543 
L 995.110834 484.949829 
L 996.10354 483.7557 
L 997.096246 485.102744 
L 998.088952 484.886168 
L 999.081658 485.690649 
L 1000.074364 484.182542 
L 1001.06707 485.325116 
L 1002.059776 484.787476 
L 1003.052482 483.886745 
L 1004.045188 484.619197 
L 1005.037894 484.419583 
L 1006.0306 483.354596 
L 1007.023305 486.475775 
L 1008.016011 484.059932 
L 1009.008717 485.001363 
L 1010.994129 485.650708 
L 1011.986835 485.289335 
L 1012.979541 485.658928 
L 1014.964953 485.836611 
L 1015.957659 485.652983 
L 1016.950365 486.367528 
L 1017.943071 483.743915 
L 1018.935777 485.585773 
L 1019.928482 484.669638 
L 1020.921188 486.778473 
L 1021.913894 485.951386 
L 1022.9066 485.622911 
L 1023.899306 486.097262 
L 1024.892012 484.738474 
L 1025.884718 486.271008 
L 1026.877424 484.023169 
L 1027.87013 484.662731 
L 1028.862836 486.529841 
L 1029.855542 485.255003 
L 1030.848248 487.069442 
L 1031.840954 485.310398 
L 1033.826365 487.563398 
L 1034.819071 485.425956 
L 1035.811777 484.838259 
L 1036.804483 488.676765 
L 1037.797189 485.640419 
L 1038.789895 487.704094 
L 1039.782601 485.410379 
L 1040.775307 486.039129 
L 1041.768013 485.815018 
L 1042.760719 486.531094 
L 1043.753425 487.055867 
L 1044.746131 486.39758 
L 1045.738837 486.23706 
L 1046.731542 487.91601 
L 1047.724248 485.190902 
L 1048.716954 484.745665 
L 1049.70966 487.081325 
L 1050.702366 484.407864 
L 1051.695072 485.797097 
L 1052.687778 487.590473 
L 1053.680484 488.335418 
L 1054.67319 487.665738 
L 1055.665896 487.203634 
L 1056.658602 487.242135 
L 1057.651308 485.249672 
L 1058.644014 485.913377 
L 1059.636719 484.89872 
L 1061.622131 486.045921 
L 1062.614837 487.13298 
L 1063.607543 485.65711 
L 1065.592955 488.098165 
L 1066.585661 485.828909 
L 1067.578367 487.293756 
L 1068.571073 484.979178 
L 1070.556485 486.777763 
L 1071.549191 488.529024 
L 1072.541896 486.97322 
L 1073.534602 487.774143 
L 1074.527308 488.238072 
L 1075.520014 488.382685 
L 1076.51272 487.16142 
L 1077.505426 488.598632 
L 1078.498132 486.723246 
L 1079.490838 487.482702 
L 1080.483544 489.190372 
L 1081.47625 487.616784 
L 1082.468956 487.441259 
L 1083.461662 487.472669 
L 1084.454368 487.2094 
L 1085.447073 487.338015 
L 1086.439779 486.117891 
L 1087.432485 489.839459 
L 1088.425191 487.91105 
L 1089.417897 486.965594 
L 1090.410603 489.420563 
L 1091.403309 489.752914 
L 1092.396015 488.002831 
L 1093.388721 486.649104 
L 1094.381427 487.434755 
L 1095.374133 486.458533 
L 1096.366839 485.884008 
L 1097.359545 488.014996 
L 1098.35225 486.935183 
L 1099.344956 488.42741 
L 1100.337662 487.588848 
L 1101.330368 487.345909 
L 1102.323074 486.354235 
L 1103.31578 488.198152 
L 1104.308486 487.537442 
L 1105.301192 486.720734 
L 1106.293898 488.122873 
L 1107.286604 490.092387 
L 1108.27931 488.471815 
L 1109.272016 488.344141 
L 1110.264722 489.789242 
L 1111.257428 489.22016 
L 1112.250133 489.134895 
L 1113.242839 487.900594 
L 1114.235545 488.211973 
L 1115.228251 486.886974 
L 1116.220957 489.456328 
L 1118.206369 488.385171 
L 1119.199075 488.094964 
L 1120.191781 487.670405 
L 1121.184487 489.255885 
L 1122.177193 489.128744 
L 1124.162605 489.144809 
L 1125.15531 489.625853 
L 1126.148016 486.914639 
L 1127.140722 488.101703 
L 1128.133428 488.798561 
L 1129.126134 488.211182 
L 1130.11884 488.748806 
L 1131.111546 489.811259 
L 1132.104252 490.333382 
L 1133.096958 487.341417 
L 1134.089664 488.754592 
L 1136.075076 488.191453 
L 1137.067782 489.466303 
L 1138.060487 488.681954 
L 1139.053193 488.621636 
L 1140.045899 487.903643 
L 1141.038605 490.215157 
L 1142.031311 489.678901 
L 1143.024017 488.159313 
L 1144.016723 487.988166 
L 1146.002135 489.76598 
L 1146.994841 490.301288 
L 1147.987547 487.447732 
L 1148.980253 487.45022 
L 1149.972959 490.038251 
L 1150.965664 488.010892 
L 1151.95837 489.496477 
L 1152.951076 487.362459 
L 1153.943782 489.774729 
L 1154.936488 489.973467 
L 1155.929194 488.048941 
L 1156.9219 488.231915 
L 1157.914606 489.677564 
L 1158.907312 488.58369 
L 1159.900018 487.234326 
L 1160.892724 488.289933 
L 1161.88543 487.84348 
L 1162.878136 489.689764 
L 1163.870841 490.757912 
L 1164.863547 489.434892 
L 1165.856253 489.595571 
L 1166.848959 490.991545 
L 1167.841665 488.66193 
L 1168.834371 488.875879 
L 1169.827077 487.695822 
L 1170.819783 488.469188 
L 1171.812489 490.096155 
L 1172.805195 490.946881 
L 1173.797901 489.056423 
L 1174.790607 489.848779 
L 1175.783313 490.010456 
L 1176.776019 489.823978 
L 1177.768724 488.345175 
L 1178.76143 488.876508 
L 1179.754136 490.072992 
L 1180.746842 488.705305 
L 1181.739548 488.486058 
L 1182.732254 489.37484 
L 1183.72496 489.538349 
L 1184.717666 489.145173 
L 1185.710372 492.044028 
L 1186.703078 489.646304 
L 1187.695784 488.643222 
L 1188.68849 490.465172 
L 1189.681196 489.108652 
L 1190.673901 488.429603 
L 1192.659313 491.721821 
L 1193.652019 489.681928 
L 1194.644725 489.333024 
L 1195.637431 489.712149 
L 1196.630137 491.436246 
L 1197.622843 488.264584 
L 1198.615549 492.48 
L 1199.608255 488.450977 
L 1200.600961 488.052069 
L 1201.593667 488.40221 
L 1202.586373 489.44179 
L 1203.579078 487.198105 
L 1204.571784 488.701213 
L 1206.557196 490.505792 
L 1207.549902 489.467569 
L 1208.542608 491.104931 
L 1209.535314 489.410891 
L 1210.52802 489.735271 
L 1211.520726 486.743336 
L 1212.513432 490.040219 
L 1213.506138 489.266081 
L 1214.498844 488.845697 
L 1215.49155 489.404859 
L 1216.484255 490.58516 
L 1217.476961 488.995569 
L 1218.469667 489.40444 
L 1219.462373 489.334802 
L 1220.455079 488.983302 
L 1221.447785 489.674797 
L 1222.440491 490.706301 
L 1223.433197 489.655976 
L 1224.425903 488.312608 
L 1225.418609 489.953265 
L 1226.411315 490.870509 
L 1227.404021 489.767337 
L 1228.396727 488.348696 
L 1229.389432 489.17869 
L 1230.382138 488.952007 
L 1231.374844 491.244851 
L 1234.352962 490.410032 
L 1235.345668 489.435265 
L 1236.338374 488.994408 
L 1237.33108 490.89549 
L 1238.323786 489.23527 
L 1239.316492 489.206493 
L 1240.309198 492.057034 
L 1241.301904 489.323703 
L 1242.29461 488.999439 
L 1243.287315 490.15138 
L 1244.280021 488.939329 
L 1245.272727 489.889529 
L 1245.272727 489.889529 
" clip-path="url(#pd5ae8ab9b2)" style="fill: none; stroke: #1f77b4; stroke-width: 1.5; stroke-linecap: square"/>
   </g>
   <g id="patch_3">
    <path d="M 180 512.64 
L 180 69.12 
" style="fill: none; stroke: #000000; stroke-width: 0.8; stroke-linejoin: miter; stroke-linecap: square"/>
   </g>
   <g id="patch_4">
    <path d="M 1296 512.64 
L 1296 69.12 
" style="fill: none; stroke: #000000; stroke-width: 0.8; stroke-linejoin: miter; stroke-linecap: square"/>
   </g>
   <g id="patch_5">
    <path d="M 180 512.64 
L 1296 512.64 
" style="fill: none; stroke: #000000; stroke-width: 0.8; stroke-linejoin: miter; stroke-linecap: square"/>
   </g>
   <g id="patch_6">
    <path d="M 180 69.12 
L 1296 69.12 
" style="fill: none; stroke: #000000; stroke-width: 0.8; stroke-linejoin: miter; stroke-linecap: square"/>
   </g>
   <g id="text_14">
    <!-- source12-receiver22 -->
    <g transform="translate(532.175 60.80125) scale(0.4 -0.4)">
     <defs>
      <path id="DejaVuSans-73" d="M 2834 3397 
L 2834 2853 
Q 2591 2978 2328 3040 
Q 2066 3103 1784 3103 
Q 1356 3103 1142 2972 
Q 928 2841 928 2578 
Q 928 2378 1081 2264 
Q 1234 2150 1697 2047 
L 1894 2003 
Q 2506 1872 2764 1633 
Q 3022 1394 3022 966 
Q 3022 478 2636 193 
Q 2250 -91 1575 -91 
Q 1294 -91 989 -36 
Q 684 19 347 128 
L 347 722 
Q 666 556 975 473 
Q 1284 391 1588 391 
Q 1994 391 2212 530 
Q 2431 669 2431 922 
Q 2431 1156 2273 1281 
Q 2116 1406 1581 1522 
L 1381 1569 
Q 847 1681 609 1914 
Q 372 2147 372 2553 
Q 372 3047 722 3315 
Q 1072 3584 1716 3584 
Q 2034 3584 2315 3537 
Q 2597 3491 2834 3397 
z
" transform="scale(0.015625)"/>
      <path id="DejaVuSans-6f" d="M 1959 3097 
Q 1497 3097 1228 2736 
Q 959 2375 959 1747 
Q 959 1119 1226 758 
Q 1494 397 1959 397 
Q 2419 397 2687 759 
Q 2956 1122 2956 1747 
Q 2956 2369 2687 2733 
Q 2419 3097 1959 3097 
z
M 1959 3584 
Q 2709 3584 3137 3096 
Q 3566 2609 3566 1747 
Q 3566 888 3137 398 
Q 2709 -91 1959 -91 
Q 1206 -91 779 398 
Q 353 888 353 1747 
Q 353 2609 779 3096 
Q 1206 3584 1959 3584 
z
" transform="scale(0.015625)"/>
      <path id="DejaVuSans-75" d="M 544 1381 
L 544 3500 
L 1119 3500 
L 1119 1403 
Q 1119 906 1312 657 
Q 1506 409 1894 409 
Q 2359 409 2629 706 
Q 2900 1003 2900 1516 
L 2900 3500 
L 3475 3500 
L 3475 0 
L 2900 0 
L 2900 538 
Q 2691 219 2414 64 
Q 2138 -91 1772 -91 
Q 1169 -91 856 284 
Q 544 659 544 1381 
z
M 1991 3584 
L 1991 3584 
z
" transform="scale(0.015625)"/>
      <path id="DejaVuSans-72" d="M 2631 2963 
Q 2534 3019 2420 3045 
Q 2306 3072 2169 3072 
Q 1681 3072 1420 2755 
Q 1159 2438 1159 1844 
L 1159 0 
L 581 0 
L 581 3500 
L 1159 3500 
L 1159 2956 
Q 1341 3275 1631 3429 
Q 1922 3584 2338 3584 
Q 2397 3584 2469 3576 
Q 2541 3569 2628 3553 
L 2631 2963 
z
" transform="scale(0.015625)"/>
      <path id="DejaVuSans-63" d="M 3122 3366 
L 3122 2828 
Q 2878 2963 2633 3030 
Q 2388 3097 2138 3097 
Q 1578 3097 1268 2742 
Q 959 2388 959 1747 
Q 959 1106 1268 751 
Q 1578 397 2138 397 
Q 2388 397 2633 464 
Q 2878 531 3122 666 
L 3122 134 
Q 2881 22 2623 -34 
Q 2366 -91 2075 -91 
Q 1284 -91 818 406 
Q 353 903 353 1747 
Q 353 2603 823 3093 
Q 1294 3584 2113 3584 
Q 2378 3584 2631 3529 
Q 2884 3475 3122 3366 
z
" transform="scale(0.015625)"/>
      <path id="DejaVuSans-65" d="M 3597 1894 
L 3597 1613 
L 953 1613 
Q 991 1019 1311 708 
Q 1631 397 2203 397 
Q 2534 397 2845 478 
Q 3156 559 3463 722 
L 3463 178 
Q 3153 47 2828 -22 
Q 2503 -91 2169 -91 
Q 1331 -91 842 396 
Q 353 884 353 1716 
Q 353 2575 817 3079 
Q 1281 3584 2069 3584 
Q 2775 3584 3186 3129 
Q 3597 2675 3597 1894 
z
M 3022 2063 
Q 3016 2534 2758 2815 
Q 2500 3097 2075 3097 
Q 1594 3097 1305 2825 
Q 1016 2553 972 2059 
L 3022 2063 
z
" transform="scale(0.015625)"/>
      <path id="DejaVuSans-2d" d="M 313 2009 
L 1997 2009 
L 1997 1497 
L 313 1497 
L 313 2009 
z
" transform="scale(0.015625)"/>
      <path id="DejaVuSans-69" d="M 603 3500 
L 1178 3500 
L 1178 0 
L 603 0 
L 603 3500 
z
M 603 4863 
L 1178 4863 
L 1178 4134 
L 603 4134 
L 603 4863 
z
" transform="scale(0.015625)"/>
      <path id="DejaVuSans-76" d="M 191 3500 
L 800 3500 
L 1894 563 
L 2988 3500 
L 3597 3500 
L 2284 0 
L 1503 0 
L 191 3500 
z
" transform="scale(0.015625)"/>
     </defs>
     <use xlink:href="#DejaVuSans-73"/>
     <use xlink:href="#DejaVuSans-6f" x="52.099609"/>
     <use xlink:href="#DejaVuSans-75" x="113.28125"/>
     <use xlink:href="#DejaVuSans-72" x="176.660156"/>
     <use xlink:href="#DejaVuSans-63" x="215.523438"/>
     <use xlink:href="#DejaVuSans-65" x="270.503906"/>
     <use xlink:href="#DejaVuSans-31" x="332.027344"/>
     <use xlink:href="#DejaVuSans-32" x="395.650391"/>
     <use xlink:href="#DejaVuSans-2d" x="459.273438"/>
     <use xlink:href="#DejaVuSans-72" x="495.357422"/>
     <use xlink:href="#DejaVuSans-65" x="534.220703"/>
     <use xlink:href="#DejaVuSans-63" x="595.744141"/>
     <use xlink:href="#DejaVuSans-65" x="650.724609"/>
     <use xlink:href="#DejaVuSans-69" x="712.248047"/>
     <use xlink:href="#DejaVuSans-76" x="740.03125"/>
     <use xlink:href="#DejaVuSans-65" x="799.210938"/>
     <use xlink:href="#DejaVuSans-72" x="860.734375"/>
     <use xlink:href="#DejaVuSans-32" x="901.847656"/>
     <use xlink:href="#DejaVuSans-32" x="965.470703"/>
    </g>
   </g>
  </g>
 </g>
 <defs>
  <clipPath id="pd5ae8ab9b2">
   <rect x="180" y="69.12" width="1116" height="443.52"/>
  </clipPath>
 </defs>
</svg>
