<?xml version="1.0" encoding="utf-8" standalone="no"?>
<!DOCTYPE svg PUBLIC "-//W3C//DTD SVG 1.1//EN"
  "http://www.w3.org/Graphics/SVG/1.1/DTD/svg11.dtd">
<svg xmlns:xlink="http://www.w3.org/1999/xlink" width="1440pt" height="576pt" viewBox="0 0 1440 576" xmlns="http://www.w3.org/2000/svg" version="1.1">
 <metadata>
  <rdf:RDF xmlns:dc="http://purl.org/dc/elements/1.1/" xmlns:cc="http://creativecommons.org/ns#" xmlns:rdf="http://www.w3.org/1999/02/22-rdf-syntax-ns#">
   <cc:Work>
    <dc:type rdf:resource="http://purl.org/dc/dcmitype/StillImage"/>
    <dc:date>2024-05-22T04:50:01.271359</dc:date>
    <dc:format>image/svg+xml</dc:format>
    <dc:creator>
     <cc:Agent>
      <dc:title>Matplotlib v3.8.3, https://matplotlib.org/</dc:title>
     </cc:Agent>
    </dc:creator>
   </cc:Work>
  </rdf:RDF>
 </metadata>
 <defs>
  <style type="text/css">*{stroke-linejoin: round; stroke-linecap: butt}</style>
 </defs>
 <g id="figure_1">
  <g id="patch_1">
   <path d="M 0 576 
L 1440 576 
L 1440 0 
L 0 0 
z
" style="fill: #ffffff"/>
  </g>
  <g id="axes_1">
   <g id="patch_2">
    <path d="M 180 512.64 
L 1296 512.64 
L 1296 69.12 
L 180 69.12 
z
" style="fill: #ffffff"/>
   </g>
   <g id="matplotlib.axis_1">
    <g id="xtick_1">
     <g id="line2d_1">
      <defs>
       <path id="m26e62c88b0" d="M 0 0 
L 0 3.5 
" style="stroke: #000000; stroke-width: 0.8"/>
      </defs>
      <g>
       <use xlink:href="#m26e62c88b0" x="229.734567" y="512.64" style="stroke: #000000; stroke-width: 0.8"/>
      </g>
     </g>
     <g id="text_1">
      <!-- 0 -->
      <g transform="translate(226.553317 527.238438) scale(0.1 -0.1)">
       <defs>
        <path id="DejaVuSans-30" d="M 2034 4250 
Q 1547 4250 1301 3770 
Q 1056 3291 1056 2328 
Q 1056 1369 1301 889 
Q 1547 409 2034 409 
Q 2525 409 2770 889 
Q 3016 1369 3016 2328 
Q 3016 3291 2770 3770 
Q 2525 4250 2034 4250 
z
M 2034 4750 
Q 2819 4750 3233 4129 
Q 3647 3509 3647 2328 
Q 3647 1150 3233 529 
Q 2819 -91 2034 -91 
Q 1250 -91 836 529 
Q 422 1150 422 2328 
Q 422 3509 836 4129 
Q 1250 4750 2034 4750 
z
" transform="scale(0.015625)"/>
       </defs>
       <use xlink:href="#DejaVuSans-30"/>
      </g>
     </g>
    </g>
    <g id="xtick_2">
     <g id="line2d_2">
      <g>
       <use xlink:href="#m26e62c88b0" x="433.04074" y="512.64" style="stroke: #000000; stroke-width: 0.8"/>
      </g>
     </g>
     <g id="text_2">
      <!-- 500 -->
      <g transform="translate(423.49699 527.238438) scale(0.1 -0.1)">
       <defs>
        <path id="DejaVuSans-35" d="M 691 4666 
L 3169 4666 
L 3169 4134 
L 1269 4134 
L 1269 2991 
Q 1406 3038 1543 3061 
Q 1681 3084 1819 3084 
Q 2600 3084 3056 2656 
Q 3513 2228 3513 1497 
Q 3513 744 3044 326 
Q 2575 -91 1722 -91 
Q 1428 -91 1123 -41 
Q 819 9 494 109 
L 494 744 
Q 775 591 1075 516 
Q 1375 441 1709 441 
Q 2250 441 2565 725 
Q 2881 1009 2881 1497 
Q 2881 1984 2565 2268 
Q 2250 2553 1709 2553 
Q 1456 2553 1204 2497 
Q 953 2441 691 2322 
L 691 4666 
z
" transform="scale(0.015625)"/>
       </defs>
       <use xlink:href="#DejaVuSans-35"/>
       <use xlink:href="#DejaVuSans-30" x="63.623047"/>
       <use xlink:href="#DejaVuSans-30" x="127.246094"/>
      </g>
     </g>
    </g>
    <g id="xtick_3">
     <g id="line2d_3">
      <g>
       <use xlink:href="#m26e62c88b0" x="636.346913" y="512.64" style="stroke: #000000; stroke-width: 0.8"/>
      </g>
     </g>
     <g id="text_3">
      <!-- 1000 -->
      <g transform="translate(623.621913 527.238438) scale(0.1 -0.1)">
       <defs>
        <path id="DejaVuSans-31" d="M 794 531 
L 1825 531 
L 1825 4091 
L 703 3866 
L 703 4441 
L 1819 4666 
L 2450 4666 
L 2450 531 
L 3481 531 
L 3481 0 
L 794 0 
L 794 531 
z
" transform="scale(0.015625)"/>
       </defs>
       <use xlink:href="#DejaVuSans-31"/>
       <use xlink:href="#DejaVuSans-30" x="63.623047"/>
       <use xlink:href="#DejaVuSans-30" x="127.246094"/>
       <use xlink:href="#DejaVuSans-30" x="190.869141"/>
      </g>
     </g>
    </g>
    <g id="xtick_4">
     <g id="line2d_4">
      <g>
       <use xlink:href="#m26e62c88b0" x="839.653087" y="512.64" style="stroke: #000000; stroke-width: 0.8"/>
      </g>
     </g>
     <g id="text_4">
      <!-- 1500 -->
      <g transform="translate(826.928087 527.238438) scale(0.1 -0.1)">
       <use xlink:href="#DejaVuSans-31"/>
       <use xlink:href="#DejaVuSans-35" x="63.623047"/>
       <use xlink:href="#DejaVuSans-30" x="127.246094"/>
       <use xlink:href="#DejaVuSans-30" x="190.869141"/>
      </g>
     </g>
    </g>
    <g id="xtick_5">
     <g id="line2d_5">
      <g>
       <use xlink:href="#m26e62c88b0" x="1042.95926" y="512.64" style="stroke: #000000; stroke-width: 0.8"/>
      </g>
     </g>
     <g id="text_5">
      <!-- 2000 -->
      <g transform="translate(1030.23426 527.238438) scale(0.1 -0.1)">
       <defs>
        <path id="DejaVuSans-32" d="M 1228 531 
L 3431 531 
L 3431 0 
L 469 0 
L 469 531 
Q 828 903 1448 1529 
Q 2069 2156 2228 2338 
Q 2531 2678 2651 2914 
Q 2772 3150 2772 3378 
Q 2772 3750 2511 3984 
Q 2250 4219 1831 4219 
Q 1534 4219 1204 4116 
Q 875 4013 500 3803 
L 500 4441 
Q 881 4594 1212 4672 
Q 1544 4750 1819 4750 
Q 2544 4750 2975 4387 
Q 3406 4025 3406 3419 
Q 3406 3131 3298 2873 
Q 3191 2616 2906 2266 
Q 2828 2175 2409 1742 
Q 1991 1309 1228 531 
z
" transform="scale(0.015625)"/>
       </defs>
       <use xlink:href="#DejaVuSans-32"/>
       <use xlink:href="#DejaVuSans-30" x="63.623047"/>
       <use xlink:href="#DejaVuSans-30" x="127.246094"/>
       <use xlink:href="#DejaVuSans-30" x="190.869141"/>
      </g>
     </g>
    </g>
    <g id="xtick_6">
     <g id="line2d_6">
      <g>
       <use xlink:href="#m26e62c88b0" x="1246.265433" y="512.64" style="stroke: #000000; stroke-width: 0.8"/>
      </g>
     </g>
     <g id="text_6">
      <!-- 2500 -->
      <g transform="translate(1233.540433 527.238438) scale(0.1 -0.1)">
       <use xlink:href="#DejaVuSans-32"/>
       <use xlink:href="#DejaVuSans-35" x="63.623047"/>
       <use xlink:href="#DejaVuSans-30" x="127.246094"/>
       <use xlink:href="#DejaVuSans-30" x="190.869141"/>
      </g>
     </g>
    </g>
   </g>
   <g id="matplotlib.axis_2">
    <g id="ytick_1">
     <g id="line2d_7">
      <defs>
       <path id="me802ba9f5d" d="M 0 0 
L -3.5 0 
" style="stroke: #000000; stroke-width: 0.8"/>
      </defs>
      <g>
       <use xlink:href="#me802ba9f5d" x="180" y="459.818794" style="stroke: #000000; stroke-width: 0.8"/>
      </g>
     </g>
     <g id="text_7">
      <!-- −4 -->
      <g transform="translate(158.257812 463.618013) scale(0.1 -0.1)">
       <defs>
        <path id="DejaVuSans-2212" d="M 678 2272 
L 4684 2272 
L 4684 1741 
L 678 1741 
L 678 2272 
z
" transform="scale(0.015625)"/>
        <path id="DejaVuSans-34" d="M 2419 4116 
L 825 1625 
L 2419 1625 
L 2419 4116 
z
M 2253 4666 
L 3047 4666 
L 3047 1625 
L 3713 1625 
L 3713 1100 
L 3047 1100 
L 3047 0 
L 2419 0 
L 2419 1100 
L 313 1100 
L 313 1709 
L 2253 4666 
z
" transform="scale(0.015625)"/>
       </defs>
       <use xlink:href="#DejaVuSans-2212"/>
       <use xlink:href="#DejaVuSans-34" x="83.789062"/>
      </g>
     </g>
    </g>
    <g id="ytick_2">
     <g id="line2d_8">
      <g>
       <use xlink:href="#me802ba9f5d" x="180" y="380.23076" style="stroke: #000000; stroke-width: 0.8"/>
      </g>
     </g>
     <g id="text_8">
      <!-- −2 -->
      <g transform="translate(158.257812 384.029979) scale(0.1 -0.1)">
       <use xlink:href="#DejaVuSans-2212"/>
       <use xlink:href="#DejaVuSans-32" x="83.789062"/>
      </g>
     </g>
    </g>
    <g id="ytick_3">
     <g id="line2d_9">
      <g>
       <use xlink:href="#me802ba9f5d" x="180" y="300.642727" style="stroke: #000000; stroke-width: 0.8"/>
      </g>
     </g>
     <g id="text_9">
      <!-- 0 -->
      <g transform="translate(166.6375 304.441946) scale(0.1 -0.1)">
       <use xlink:href="#DejaVuSans-30"/>
      </g>
     </g>
    </g>
    <g id="ytick_4">
     <g id="line2d_10">
      <g>
       <use xlink:href="#me802ba9f5d" x="180" y="221.054694" style="stroke: #000000; stroke-width: 0.8"/>
      </g>
     </g>
     <g id="text_10">
      <!-- 2 -->
      <g transform="translate(166.6375 224.853912) scale(0.1 -0.1)">
       <use xlink:href="#DejaVuSans-32"/>
      </g>
     </g>
    </g>
    <g id="ytick_5">
     <g id="line2d_11">
      <g>
       <use xlink:href="#me802ba9f5d" x="180" y="141.46666" style="stroke: #000000; stroke-width: 0.8"/>
      </g>
     </g>
     <g id="text_11">
      <!-- 4 -->
      <g transform="translate(166.6375 145.265879) scale(0.1 -0.1)">
       <use xlink:href="#DejaVuSans-34"/>
      </g>
     </g>
    </g>
   </g>
   <g id="line2d_12">
    <path d="M 230.727273 280.31111 
L 231.719979 278.710573 
L 232.712685 286.277863 
L 233.70539 292.201381 
L 234.698096 278.899652 
L 235.690802 270.713057 
L 236.683508 275.978499 
L 237.676214 295.160739 
L 238.66892 290.087883 
L 239.661626 272.73487 
L 240.654332 271.494002 
L 241.647038 284.963153 
L 242.639744 288.331337 
L 243.63245 273.34153 
L 244.625156 273.749799 
L 245.617862 294.481058 
L 246.610568 283.88272 
L 247.603273 265.275196 
L 248.595979 269.176005 
L 249.588685 266.980792 
L 250.581391 237.318163 
L 251.574097 224.739176 
L 252.566803 229.182662 
L 253.559509 246.097049 
L 254.552215 224.336148 
L 255.544921 207.562514 
L 256.537627 209.144665 
L 257.530333 223.385974 
L 258.523039 219.021404 
L 259.515745 210.220786 
L 261.501156 236.882295 
L 262.493862 210.149103 
L 263.486568 208.430815 
L 264.479274 242.740684 
L 265.47198 246.583516 
L 266.464686 218.207077 
L 267.457392 230.358607 
L 268.450098 227.614206 
L 269.442804 211.961053 
L 270.43551 228.663742 
L 272.420922 177.9297 
L 273.413627 177.448081 
L 274.406333 196.753182 
L 275.399039 185.032123 
L 276.391745 177.146406 
L 277.384451 238.187573 
L 278.377157 154.500018 
L 279.369863 119.269681 
L 280.362569 102.099651 
L 281.355275 94.173315 
L 282.347981 91.649147 
L 283.340687 91.159653 
L 284.333393 89.858978 
L 285.326099 89.28 
L 286.318804 93.667039 
L 287.31151 107.484735 
L 289.296922 168.739842 
L 290.289628 142.392028 
L 291.282334 143.912271 
L 292.27504 165.681639 
L 293.267746 177.863048 
L 294.260452 169.769873 
L 295.253158 180.501944 
L 296.245864 201.812903 
L 297.23857 196.244896 
L 298.231276 201.560165 
L 299.223981 239.983182 
L 300.216687 234.244978 
L 301.209393 220.383537 
L 302.202099 235.317704 
L 303.194805 298.406701 
L 304.187511 265.090621 
L 305.180217 241.605965 
L 306.172923 240.032951 
L 307.165629 265.753469 
L 308.158335 294.593383 
L 309.151041 249.428066 
L 310.143747 252.800556 
L 311.136453 315.345907 
L 312.129159 271.140564 
L 313.121864 252.245214 
L 314.11457 262.126843 
L 315.107276 297.700815 
L 316.099982 291.607115 
L 317.092688 279.379294 
L 318.085394 289.545088 
L 319.0781 292.599633 
L 320.070806 271.3455 
L 321.063512 270.002062 
L 322.056218 297.370056 
L 323.048924 319.126684 
L 324.04163 276.526929 
L 325.034336 271.083471 
L 326.027041 286.8566 
L 327.019747 319.820782 
L 328.012453 301.920188 
L 329.005159 293.389688 
L 329.997865 293.362444 
L 330.990571 293.823553 
L 331.983277 296.142745 
L 332.975983 312.982715 
L 333.968689 307.95518 
L 334.961395 287.672911 
L 335.954101 289.579065 
L 336.946807 329.56415 
L 337.939513 311.762522 
L 338.932218 286.28455 
L 339.924924 288.980413 
L 340.91763 323.793686 
L 341.910336 329.036389 
L 342.903042 293.890814 
L 343.895748 292.628317 
L 344.888454 308.400269 
L 345.88116 328.803046 
L 346.873866 319.62718 
L 347.866572 313.816596 
L 348.859278 295.956577 
L 349.851984 292.988668 
L 350.84469 312.662915 
L 351.837395 351.84714 
L 352.830101 293.578561 
L 353.822807 287.303868 
L 354.815513 316.05817 
L 355.808219 307.826903 
L 356.800925 272.096835 
L 357.793631 266.668675 
L 358.786337 274.06409 
L 359.779043 266.469226 
L 360.771749 249.888879 
L 361.764455 243.632023 
L 363.749867 254.022605 
L 364.742572 247.846687 
L 365.735278 244.733669 
L 366.727984 253.551033 
L 367.72069 270.388225 
L 368.713396 265.634974 
L 369.706102 259.224342 
L 370.698808 264.964854 
L 371.691514 263.504268 
L 372.68422 247.35034 
L 373.676926 239.886538 
L 374.669632 243.073329 
L 375.662338 249.493083 
L 376.655044 248.728361 
L 377.64775 251.587935 
L 378.640455 271.529449 
L 379.633161 360.368179 
L 380.625867 269.10041 
L 381.618573 248.129957 
L 383.603985 215.454884 
L 384.596691 203.779805 
L 385.589397 197.046319 
L 387.574809 188.87265 
L 388.567515 184.49881 
L 389.560221 182.095935 
L 390.552927 182.003733 
L 391.545632 183.114781 
L 392.538338 183.9066 
L 393.531044 184.882592 
L 394.52375 187.692836 
L 397.501868 204.493067 
L 398.494574 210.671815 
L 399.48728 221.434483 
L 400.479986 236.181455 
L 401.472692 248.845344 
L 402.465398 257.70069 
L 403.458104 273.892292 
L 404.450809 299.003004 
L 405.443515 280.453989 
L 406.436221 273.964979 
L 407.428927 283.371954 
L 408.421633 297.509089 
L 409.414339 287.911251 
L 410.407045 284.825697 
L 411.399751 299.449894 
L 412.392457 349.265935 
L 413.385163 367.599012 
L 414.377869 335.473318 
L 415.370575 321.131477 
L 416.363281 310.748317 
L 417.355986 323.402609 
L 418.348692 343.414298 
L 419.341398 301.448174 
L 420.334104 288.007446 
L 421.32681 291.322412 
L 422.319516 301.000155 
L 423.312222 287.806273 
L 424.304928 277.137324 
L 425.297634 280.32418 
L 426.29034 295.09476 
L 427.283046 297.988436 
L 428.275752 286.453086 
L 429.268458 291.685756 
L 430.261163 321.580348 
L 431.253869 326.167058 
L 432.246575 307.104156 
L 433.239281 314.152547 
L 434.231987 359.439384 
L 435.224693 315.76873 
L 436.217399 301.299971 
L 437.210105 314.219658 
L 438.202811 347.420409 
L 439.195517 315.76133 
L 440.188223 306.741113 
L 441.180929 320.450365 
L 442.173635 378.138698 
L 443.166341 322.354646 
L 444.159046 316.001285 
L 445.151752 345.977669 
L 446.144458 344.62862 
L 447.137164 311.868026 
L 448.12987 310.946831 
L 449.122576 340.187483 
L 450.115282 334.186971 
L 451.107988 307.240476 
L 452.100694 309.058794 
L 453.0934 347.90043 
L 454.086106 349.914625 
L 455.078812 325.686916 
L 456.071518 344.954674 
L 457.064223 390.461793 
L 458.056929 319.818753 
L 459.049635 308.690491 
L 460.042341 322.306518 
L 461.035047 351.799059 
L 462.027753 320.532719 
L 463.020459 311.879201 
L 465.005871 366.87433 
L 465.998577 315.128579 
L 466.991283 310.571772 
L 467.983989 315.768098 
L 469.9694 283.374907 
L 470.962106 280.554239 
L 472.947518 290.513688 
L 473.940224 284.663436 
L 474.93293 281.380871 
L 475.925636 290.583758 
L 476.918342 310.223049 
L 477.911048 334.304587 
L 478.903754 332.808962 
L 479.89646 324.55902 
L 480.889166 308.770405 
L 481.881872 298.832523 
L 482.874577 299.625786 
L 483.867283 304.805718 
L 485.852695 282.581352 
L 486.845401 279.840034 
L 487.838107 283.674196 
L 488.830813 288.562683 
L 489.823519 282.707498 
L 490.816225 273.63166 
L 491.808931 271.122707 
L 492.801637 271.900013 
L 493.794343 271.693724 
L 495.779754 255.755372 
L 496.77246 253.075877 
L 497.765166 252.774551 
L 498.757872 250.575519 
L 499.750578 244.583895 
L 500.743284 242.28784 
L 501.73599 242.766088 
L 502.728696 244.921848 
L 503.721402 244.586664 
L 504.714108 243.233044 
L 505.706814 245.72664 
L 507.692226 259.766249 
L 508.684932 262.225032 
L 509.677637 266.343742 
L 510.670343 279.58542 
L 511.663049 297.167334 
L 512.655755 295.776366 
L 513.648461 294.185128 
L 514.641167 300.439717 
L 515.633873 300.902877 
L 516.626579 287.881992 
L 517.619285 285.586108 
L 518.611991 294.721023 
L 519.604697 305.984422 
L 520.597403 300.967485 
L 521.590109 298.333387 
L 522.582814 315.206754 
L 523.57552 344.453785 
L 524.568226 327.394615 
L 525.560932 315.60579 
L 527.546344 345.579606 
L 528.53905 322.184605 
L 529.531756 314.563367 
L 530.524462 328.169716 
L 532.509874 392.770555 
L 533.50258 355.262406 
L 534.495286 333.616765 
L 535.487991 324.50376 
L 536.480697 330.576726 
L 537.473403 349.49658 
L 538.466109 339.176133 
L 539.458815 319.175681 
L 540.451521 317.378094 
L 542.436933 354.679331 
L 543.429639 325.118981 
L 544.422345 315.904394 
L 545.415051 330.139876 
L 546.407757 337.741397 
L 547.400463 313.540789 
L 548.393168 309.071545 
L 549.385874 316.343767 
L 550.37858 334.753907 
L 551.371286 327.180855 
L 552.363992 318.055129 
L 553.356698 327.470679 
L 554.349404 356.00751 
L 555.34211 369.617881 
L 556.334816 338.573519 
L 557.327522 343.249864 
L 558.320228 375.09534 
L 559.312934 374.063699 
L 560.30564 344.619475 
L 561.298345 337.202094 
L 562.291051 351.900443 
L 563.283757 411.190951 
L 564.276463 379.411223 
L 565.269169 340.963435 
L 566.261875 331.150924 
L 567.254581 340.08327 
L 568.247287 360.191566 
L 569.239993 360.005096 
L 570.232699 332.480138 
L 571.225405 323.298956 
L 572.218111 327.805215 
L 573.210817 352.720121 
L 574.203523 355.768143 
L 575.196228 325.840847 
L 576.188934 320.978979 
L 577.18164 340.907835 
L 578.174346 375.461836 
L 579.167052 348.90884 
L 580.159758 332.805238 
L 581.152464 345.76203 
L 582.14517 402.621841 
L 583.137876 362.56097 
L 584.130582 343.502719 
L 585.123288 359.517127 
L 586.115994 380.855027 
L 587.1087 335.043131 
L 588.101405 320.159203 
L 589.094111 318.633739 
L 590.086817 326.880896 
L 591.079523 321.696134 
L 592.072229 307.131286 
L 593.064935 301.57826 
L 594.057641 303.471163 
L 595.050347 312.233865 
L 596.043053 312.622972 
L 597.035759 303.416961 
L 598.028465 299.209453 
L 599.021171 302.911427 
L 600.013877 314.28396 
L 601.006582 320.205299 
L 601.999288 313.226855 
L 602.991994 310.702988 
L 603.9847 323.491916 
L 604.977406 357.809764 
L 605.970112 354.279524 
L 606.962818 336.867028 
L 607.955524 347.271729 
L 608.94823 338.022678 
L 609.940936 311.011528 
L 610.933642 296.624112 
L 611.926348 295.179756 
L 612.919054 296.9452 
L 613.911759 292.190988 
L 614.904465 283.9762 
L 615.897171 282.220284 
L 616.889877 287.609481 
L 617.882583 295.588793 
L 618.875289 297.130302 
L 619.867995 294.992577 
L 620.860701 300.620604 
L 621.853407 318.00856 
L 622.846113 348.474297 
L 623.838819 360.082653 
L 624.831525 361.741536 
L 625.824231 375.57739 
L 626.816936 342.757245 
L 627.809642 331.608264 
L 628.802348 336.812466 
L 629.795054 353.426947 
L 630.78776 345.613875 
L 631.780466 330.823564 
L 632.773172 327.228314 
L 633.765878 337.242539 
L 634.758584 367.676845 
L 635.75129 382.489146 
L 636.743996 350.863422 
L 637.736702 339.299739 
L 638.729408 342.236059 
L 639.722114 370.084212 
L 640.714819 406.508353 
L 641.707525 354.211241 
L 642.700231 348.882235 
L 643.692937 372.254337 
L 644.685643 390.209087 
L 645.678349 344.846751 
L 646.671055 337.47912 
L 647.663761 350.813671 
L 648.656467 383.138843 
L 649.649173 347.796612 
L 650.641879 337.595832 
L 651.634585 352.66584 
L 652.627291 435.257385 
L 653.619996 361.113533 
L 654.612702 346.447591 
L 655.605408 366.293359 
L 656.598114 380.932909 
L 657.59082 340.608598 
L 658.583526 331.896049 
L 659.576232 342.691328 
L 660.568938 366.208403 
L 661.561644 344.042649 
L 662.55435 332.514492 
L 663.547056 342.186565 
L 664.539762 380.507631 
L 665.532468 352.956433 
L 666.525173 335.362717 
L 667.517879 341.008766 
L 668.510585 365.280022 
L 670.495997 329.269219 
L 671.488703 331.132409 
L 672.481409 351.943449 
L 673.474115 362.370987 
L 674.466821 340.069512 
L 675.459527 338.364051 
L 676.452233 362.260257 
L 677.444939 392.184532 
L 678.437645 344.994563 
L 679.43035 338.590141 
L 680.423056 354.292216 
L 681.415762 359.106874 
L 682.408468 332.588592 
L 683.401174 323.329165 
L 684.39388 328.822884 
L 685.386586 346.056965 
L 686.379292 341.705707 
L 687.371998 329.079452 
L 688.364704 330.171646 
L 689.35741 349.205981 
L 690.350116 402.448297 
L 691.342822 371.732896 
L 692.335527 363.254844 
L 693.328233 381.636404 
L 694.320939 368.580654 
L 695.313645 353.405968 
L 696.306351 360.706244 
L 697.299057 405.271723 
L 698.291763 364.064329 
L 699.284469 344.27807 
L 700.277175 348.063874 
L 701.269881 382.93473 
L 702.262587 391.807454 
L 703.255293 357.857243 
L 704.247999 363.711884 
L 705.240705 455.331603 
L 706.23341 363.37956 
L 707.226116 344.45465 
L 708.218822 351.654903 
L 709.211528 381.83628 
L 710.204234 348.968438 
L 711.19694 331.987052 
L 712.189646 334.493132 
L 713.182352 349.541552 
L 714.175058 335.626816 
L 715.167764 319.157821 
L 716.16047 316.607272 
L 717.153176 324.20211 
L 718.145882 326.195435 
L 719.138587 315.05061 
L 720.131293 309.290579 
L 721.123999 313.810415 
L 722.116705 325.708373 
L 723.109411 329.089174 
L 724.102117 321.369575 
L 725.094823 320.397519 
L 726.087529 329.924062 
L 727.080235 351.678835 
L 728.072941 367.648772 
L 729.065647 351.611488 
L 730.058353 341.551012 
L 731.051059 341.794247 
L 732.043764 353.283972 
L 733.03647 386.55401 
L 734.029176 386.098372 
L 735.021882 359.021243 
L 736.014588 355.246114 
L 737.007294 365.083063 
L 738 379.837206 
L 738.992706 384.386538 
L 739.985412 411.486029 
L 740.978118 401.717554 
L 741.970824 357.824609 
L 742.96353 344.805916 
L 743.956236 349.389723 
L 744.948941 374.144618 
L 745.941647 368.8789 
L 746.934353 343.723743 
L 747.927059 339.053783 
L 748.919765 352.311521 
L 749.912471 383.139821 
L 750.905177 355.974497 
L 751.897883 340.661084 
L 752.890589 344.398621 
L 753.883295 368.794155 
L 754.876001 370.370814 
L 755.868707 344.855152 
L 756.861413 339.816275 
L 757.854118 352.309777 
L 758.846824 387.53784 
L 760.832236 351.151471 
L 761.824942 354.101803 
L 762.817648 377.724825 
L 763.810354 419.366513 
L 764.80306 386.553209 
L 765.795766 383.9384 
L 766.788472 390.263724 
L 767.781178 373.593723 
L 768.773884 365.125238 
L 769.76659 375.081674 
L 770.759295 415.81702 
L 772.744707 376.346562 
L 774.730119 375.374389 
L 775.722825 368.716688 
L 776.715531 374.893071 
L 777.708237 428.710235 
L 778.700943 374.598781 
L 779.693649 347.943103 
L 780.686355 343.641527 
L 781.679061 357.925439 
L 782.671767 386.749108 
L 783.664473 358.066258 
L 784.657178 346.15239 
L 785.649884 356.389695 
L 786.64259 413.257541 
L 787.635296 371.956189 
L 788.628002 350.618611 
L 789.620708 357.352076 
L 790.613414 381.489603 
L 791.60612 350.889024 
L 792.598826 333.078845 
L 793.591532 332.318713 
L 794.584238 344.591852 
L 795.576944 349.613733 
L 796.56965 334.245095 
L 797.562355 328.482625 
L 798.555061 336.182582 
L 799.547767 359.107024 
L 800.540473 365.975568 
L 801.533179 350.179496 
L 802.525885 350.206982 
L 803.518591 367.273571 
L 804.511297 405.439159 
L 805.504003 399.147856 
L 806.496709 395.302224 
L 807.489415 394.31114 
L 808.482121 373.854742 
L 809.474827 366.140641 
L 810.467532 376.546633 
L 811.460238 417.620859 
L 812.452944 393.580936 
L 813.44565 375.001853 
L 814.438356 381.594116 
L 815.431062 397.809283 
L 816.423768 378.203596 
L 817.416474 367.540794 
L 818.40918 379.595579 
L 819.401886 467.824963 
L 820.394592 375.617927 
L 821.387298 353.759405 
L 822.380004 351.550521 
L 823.372709 367.473414 
L 824.365415 400.86896 
L 825.358121 365.361461 
L 826.350827 348.665514 
L 827.343533 348.644954 
L 828.336239 365.290687 
L 829.328945 400.169063 
L 830.321651 368.135937 
L 831.314357 351.31023 
L 832.307063 352.114134 
L 833.299769 371.070751 
L 834.292475 426.925452 
L 835.285181 374.932612 
L 836.277886 359.20687 
L 837.270592 364.200456 
L 839.256004 417.938784 
L 840.24871 381.001682 
L 841.241416 377.68157 
L 842.234122 394.007999 
L 843.226828 389.857467 
L 844.219534 374.11776 
L 845.21224 377.721176 
L 846.204946 418.121653 
L 847.197652 395.146491 
L 848.190358 364.404215 
L 849.183064 360.092719 
L 850.175769 378.70436 
L 851.168475 440.555443 
L 852.161181 371.410993 
L 853.153887 356.219811 
L 854.146593 362.596083 
L 855.139299 402.479257 
L 856.132005 386.905149 
L 857.124711 357.630346 
L 858.117417 355.208237 
L 860.102829 399.554454 
L 861.095535 357.38396 
L 862.088241 347.005062 
L 863.080946 355.462101 
L 864.073652 382.127781 
L 866.059064 343.655282 
L 867.05177 343.304295 
L 869.037182 377.480147 
L 870.029888 352.921025 
L 871.022594 344.348142 
L 872.0153 354.372541 
L 873.008006 389.999646 
L 874.000712 375.581478 
L 874.993418 354.775759 
L 875.986123 358.337014 
L 876.978829 391.568941 
L 877.971535 394.459349 
L 878.964241 359.908543 
L 879.956947 356.336904 
L 880.949653 376.426173 
L 881.942359 414.443727 
L 882.935065 366.159532 
L 883.927771 354.611073 
L 884.920477 362.371823 
L 885.913183 400.282444 
L 886.905889 401.107276 
L 887.898595 368.156368 
L 888.8913 364.514217 
L 889.884006 379.266303 
L 890.876712 424.598656 
L 891.869418 396.516415 
L 892.862124 377.332056 
L 893.85483 379.132506 
L 894.847536 397.941068 
L 895.840242 406.605891 
L 896.832948 380.283344 
L 897.825654 371.034782 
L 898.81836 380.239532 
L 899.811066 433.623664 
L 900.803772 393.763137 
L 901.796477 363.810125 
L 902.789183 357.756769 
L 903.781889 369.566816 
L 904.774595 411.126449 
L 905.767301 378.216179 
L 906.760007 356.105604 
L 907.752713 354.066226 
L 908.745419 370.98214 
L 909.738125 425.326013 
L 910.730831 379.340522 
L 911.723537 363.454248 
L 912.716243 369.150399 
L 913.708949 400.909147 
L 914.701655 403.596338 
L 915.69436 378.947518 
L 916.687066 383.790014 
L 917.679772 431.219749 
L 918.672478 386.472487 
L 919.665184 364.308934 
L 920.65789 364.613386 
L 921.650596 392.056432 
L 922.643302 413.711132 
L 923.636008 369.157361 
L 924.628714 362.181999 
L 925.62142 377.583969 
L 926.614126 442.817714 
L 927.606832 384.038501 
L 928.599537 373.121998 
L 929.592243 397.071183 
L 930.584949 403.569172 
L 931.577655 357.836732 
L 932.570361 346.212456 
L 933.563067 351.561533 
L 934.555773 365.255869 
L 936.541185 334.800624 
L 937.533891 332.768136 
L 938.526597 342.282692 
L 939.519303 355.099272 
L 941.504714 336.757909 
L 942.49742 339.46942 
L 943.490126 356.754663 
L 944.482832 386.248787 
L 945.475538 372.193135 
L 946.468244 360.911131 
L 947.46095 362.951333 
L 948.453656 374.130614 
L 949.446362 393.046632 
L 950.439068 447.434517 
L 951.431774 403.87694 
L 952.42448 373.221623 
L 953.417186 363.724818 
L 954.409891 368.927207 
L 955.402597 394.683594 
L 956.395303 453.692157 
L 957.388009 384.107952 
L 958.380715 368.605371 
L 959.373421 368.62586 
L 960.366127 383.055233 
L 961.358833 433.368 
L 963.344245 374.984598 
L 964.336951 371.353629 
L 965.329657 386.220041 
L 966.322363 427.48994 
L 967.315068 391.634794 
L 968.307774 377.738246 
L 969.30048 388.414534 
L 970.293186 421.957127 
L 971.285892 385.502228 
L 972.278598 371.025286 
L 973.271304 381.7215 
L 974.26401 484.061569 
L 975.256716 381.069148 
L 976.249422 361.002084 
L 977.242128 364.628901 
L 978.234834 399.036287 
L 979.22754 385.321231 
L 980.220246 356.693677 
L 981.212951 353.464355 
L 982.205657 371.44596 
L 983.198363 394.941578 
L 984.191069 361.634784 
L 985.183775 351.757759 
L 986.176481 362.13096 
L 987.169187 403.164053 
L 988.161893 377.705872 
L 989.154599 358.70917 
L 990.147305 364.64576 
L 991.140011 406.662702 
L 992.132717 387.706774 
L 993.125423 360.566904 
L 994.118128 361.374179 
L 995.110834 389.056831 
L 996.10354 389.960636 
L 997.096246 358.613516 
L 998.088952 353.232298 
L 999.081658 368.375439 
L 1000.074364 408.733806 
L 1001.06707 374.672441 
L 1002.059776 359.517535 
L 1003.052482 365.740159 
L 1004.045188 401.273921 
L 1005.037894 416.27109 
L 1006.0306 380.516461 
L 1007.023305 380.13742 
L 1008.016011 403.999521 
L 1009.008717 398.601851 
L 1010.001423 379.751475 
L 1010.994129 381.931235 
L 1011.986835 409.095293 
L 1012.979541 413.102977 
L 1013.972247 383.231671 
L 1014.964953 377.260448 
L 1015.957659 385.214783 
L 1016.950365 402.10309 
L 1017.943071 411.128074 
L 1018.935777 400.449799 
L 1019.928482 384.099575 
L 1020.921188 375.735766 
L 1021.913894 381.465113 
L 1022.9066 419.809861 
L 1023.899306 405.998625 
L 1024.892012 370.59015 
L 1025.884718 364.192554 
L 1026.877424 379.201837 
L 1027.87013 441.507677 
L 1028.862836 377.255085 
L 1029.855542 359.996591 
L 1030.848248 364.630992 
L 1031.840954 398.722052 
L 1032.833659 398.396873 
L 1033.826365 366.0759 
L 1034.819071 363.978617 
L 1035.811777 386.764192 
L 1036.804483 447.867161 
L 1037.797189 379.399567 
L 1038.789895 373.612131 
L 1039.782601 401.120854 
L 1040.775307 412.664844 
L 1041.768013 368.303502 
L 1042.760719 360.892611 
L 1043.753425 375.524839 
L 1044.746131 403.627504 
L 1045.738837 367.37529 
L 1046.731542 352.515514 
L 1047.724248 355.66784 
L 1048.716954 377.024381 
L 1049.70966 405.11094 
L 1050.702366 373.439322 
L 1051.695072 362.036753 
L 1052.687778 363.647194 
L 1053.680484 376.314941 
L 1054.67319 410.549277 
L 1055.665896 413.376055 
L 1056.658602 371.991711 
L 1057.651308 359.046203 
L 1058.644014 361.114488 
L 1059.636719 383.187143 
L 1060.629425 416.943431 
L 1061.622131 375.178422 
L 1062.614837 365.689323 
L 1063.607543 376.407715 
L 1064.600249 412.830845 
L 1065.592955 398.022042 
L 1066.585661 388.104355 
L 1067.578367 417.743913 
L 1068.571073 401.498378 
L 1069.563779 367.418412 
L 1070.556485 361.024331 
L 1071.549191 376.035172 
L 1072.541896 408.303917 
L 1073.534602 368.852341 
L 1074.527308 355.150017 
L 1075.520014 361.387305 
L 1076.51272 396.302362 
L 1077.505426 391.146389 
L 1078.498132 363.889476 
L 1079.490838 364.492509 
L 1081.47625 421.674233 
L 1082.468956 374.254859 
L 1083.461662 369.039882 
L 1084.454368 389.07127 
L 1085.447073 447.498288 
L 1086.439779 386.8455 
L 1087.432485 379.148988 
L 1088.425191 396.349528 
L 1089.417897 410.084047 
L 1090.410603 382.987905 
L 1091.403309 380.493269 
L 1092.396015 406.411443 
L 1093.388721 418.89682 
L 1094.381427 379.183321 
L 1095.374133 372.353519 
L 1096.366839 387.576415 
L 1097.359545 433.537696 
L 1098.35225 396.276896 
L 1099.344956 385.863653 
L 1100.337662 398.945201 
L 1101.330368 400.218861 
L 1102.323074 378.708343 
L 1103.31578 375.686406 
L 1105.301192 422.008588 
L 1106.293898 371.486375 
L 1107.286604 359.559291 
L 1108.27931 366.447686 
L 1109.272016 399.535501 
L 1110.264722 402.899392 
L 1111.257428 371.532107 
L 1112.250133 368.397854 
L 1113.242839 384.346828 
L 1114.235545 414.77226 
L 1115.228251 395.957952 
L 1116.220957 395.981865 
L 1117.213663 427.298613 
L 1118.206369 388.79853 
L 1119.199075 367.366382 
L 1120.191781 365.40413 
L 1121.184487 383.946635 
L 1122.177193 413.623218 
L 1123.169899 372.255609 
L 1124.162605 358.806087 
L 1125.15531 362.474174 
L 1126.148016 385.74679 
L 1127.140722 456.004846 
L 1128.133428 390.022617 
L 1129.126134 374.976948 
L 1130.11884 373.5115 
L 1131.111546 379.855697 
L 1132.104252 398.331557 
L 1133.096958 492.078357 
L 1134.089664 392.468846 
L 1135.08237 369.69836 
L 1136.075076 366.800697 
L 1137.067782 384.40862 
L 1138.060487 488.623428 
L 1139.053193 386.052235 
L 1140.045899 369.830894 
L 1141.038605 377.636472 
L 1142.031311 424.600809 
L 1144.016723 373.999564 
L 1145.009429 376.121092 
L 1146.002135 412.168552 
L 1146.994841 411.220502 
L 1147.987547 374.490605 
L 1148.980253 369.418225 
L 1149.972959 386.672324 
L 1150.965664 484.476909 
L 1151.95837 392.066311 
L 1152.951076 374.716542 
L 1153.943782 377.820745 
L 1154.936488 400.321028 
L 1155.929194 432.784087 
L 1156.9219 393.026648 
L 1157.914606 378.673454 
L 1158.907312 380.256772 
L 1159.900018 401.009709 
L 1160.892724 444.000328 
L 1161.88543 384.340745 
L 1162.878136 369.306634 
L 1163.870841 372.82635 
L 1164.863547 406.204368 
L 1165.856253 405.518889 
L 1166.848959 368.806888 
L 1167.841665 362.906786 
L 1168.834371 378.187072 
L 1169.827077 445.959567 
L 1170.819783 382.901859 
L 1171.812489 367.189763 
L 1172.805195 377.557783 
L 1173.797901 453.586058 
L 1174.790607 385.191826 
L 1175.783313 365.422245 
L 1176.776019 371.211948 
L 1177.768724 409.627193 
L 1178.76143 378.247104 
L 1179.754136 355.589646 
L 1180.746842 354.464547 
L 1181.739548 373.198615 
L 1182.732254 384.737564 
L 1183.72496 358.386779 
L 1184.717666 350.764717 
L 1185.710372 361.528291 
L 1186.703078 394.259897 
L 1188.68849 357.184162 
L 1189.681196 360.326001 
L 1190.673901 388.727285 
L 1191.666607 395.96975 
L 1192.659313 364.039761 
L 1193.652019 358.996013 
L 1194.644725 375.540308 
L 1195.637431 419.362844 
L 1196.630137 375.487822 
L 1197.622843 360.877343 
L 1198.615549 366.881045 
L 1199.608255 401.274344 
L 1200.600961 407.298735 
L 1201.593667 372.478642 
L 1202.586373 368.390984 
L 1203.579078 386.789853 
L 1204.571784 492.48 
L 1205.56449 386.78735 
L 1206.557196 372.322673 
L 1207.549902 379.685451 
L 1208.542608 425.641485 
L 1209.535314 406.224256 
L 1210.52802 377.07006 
L 1211.520726 373.630027 
L 1212.513432 389.300858 
L 1213.506138 441.600064 
L 1214.498844 402.061915 
L 1215.49155 382.928104 
L 1216.484255 383.218245 
L 1217.476961 394.75437 
L 1218.469667 403.476396 
L 1219.462373 398.385893 
L 1220.455079 398.212219 
L 1221.447785 405.933397 
L 1222.440491 398.182027 
L 1223.433197 382.549583 
L 1224.425903 377.822088 
L 1225.418609 389.575078 
L 1226.411315 462.283051 
L 1227.404021 393.780621 
L 1228.396727 367.176888 
L 1229.389432 361.370011 
L 1230.382138 372.70305 
L 1231.374844 409.247988 
L 1233.360256 362.851164 
L 1234.352962 360.806544 
L 1235.345668 376.323534 
L 1236.338374 439.453306 
L 1237.33108 399.4118 
L 1238.323786 379.533926 
L 1239.316492 383.511908 
L 1240.309198 395.511762 
L 1241.301904 390.750113 
L 1242.29461 389.370342 
L 1243.287315 414.551468 
L 1244.280021 419.363768 
L 1245.272727 380.443442 
L 1245.272727 380.443442 
" clip-path="url(#pc8fd071262)" style="fill: none; stroke: #1f77b4; stroke-width: 1.5; stroke-linecap: square"/>
   </g>
   <g id="patch_3">
    <path d="M 180 512.64 
L 180 69.12 
" style="fill: none; stroke: #000000; stroke-width: 0.8; stroke-linejoin: miter; stroke-linecap: square"/>
   </g>
   <g id="patch_4">
    <path d="M 1296 512.64 
L 1296 69.12 
" style="fill: none; stroke: #000000; stroke-width: 0.8; stroke-linejoin: miter; stroke-linecap: square"/>
   </g>
   <g id="patch_5">
    <path d="M 180 512.64 
L 1296 512.64 
" style="fill: none; stroke: #000000; stroke-width: 0.8; stroke-linejoin: miter; stroke-linecap: square"/>
   </g>
   <g id="patch_6">
    <path d="M 180 69.12 
L 1296 69.12 
" style="fill: none; stroke: #000000; stroke-width: 0.8; stroke-linejoin: miter; stroke-linecap: square"/>
   </g>
   <g id="text_12">
    <!-- source12-receiver4 -->
    <g transform="translate(544.9 60.80125) scale(0.4 -0.4)">
     <defs>
      <path id="DejaVuSans-73" d="M 2834 3397 
L 2834 2853 
Q 2591 2978 2328 3040 
Q 2066 3103 1784 3103 
Q 1356 3103 1142 2972 
Q 928 2841 928 2578 
Q 928 2378 1081 2264 
Q 1234 2150 1697 2047 
L 1894 2003 
Q 2506 1872 2764 1633 
Q 3022 1394 3022 966 
Q 3022 478 2636 193 
Q 2250 -91 1575 -91 
Q 1294 -91 989 -36 
Q 684 19 347 128 
L 347 722 
Q 666 556 975 473 
Q 1284 391 1588 391 
Q 1994 391 2212 530 
Q 2431 669 2431 922 
Q 2431 1156 2273 1281 
Q 2116 1406 1581 1522 
L 1381 1569 
Q 847 1681 609 1914 
Q 372 2147 372 2553 
Q 372 3047 722 3315 
Q 1072 3584 1716 3584 
Q 2034 3584 2315 3537 
Q 2597 3491 2834 3397 
z
" transform="scale(0.015625)"/>
      <path id="DejaVuSans-6f" d="M 1959 3097 
Q 1497 3097 1228 2736 
Q 959 2375 959 1747 
Q 959 1119 1226 758 
Q 1494 397 1959 397 
Q 2419 397 2687 759 
Q 2956 1122 2956 1747 
Q 2956 2369 2687 2733 
Q 2419 3097 1959 3097 
z
M 1959 3584 
Q 2709 3584 3137 3096 
Q 3566 2609 3566 1747 
Q 3566 888 3137 398 
Q 2709 -91 1959 -91 
Q 1206 -91 779 398 
Q 353 888 353 1747 
Q 353 2609 779 3096 
Q 1206 3584 1959 3584 
z
" transform="scale(0.015625)"/>
      <path id="DejaVuSans-75" d="M 544 1381 
L 544 3500 
L 1119 3500 
L 1119 1403 
Q 1119 906 1312 657 
Q 1506 409 1894 409 
Q 2359 409 2629 706 
Q 2900 1003 2900 1516 
L 2900 3500 
L 3475 3500 
L 3475 0 
L 2900 0 
L 2900 538 
Q 2691 219 2414 64 
Q 2138 -91 1772 -91 
Q 1169 -91 856 284 
Q 544 659 544 1381 
z
M 1991 3584 
L 1991 3584 
z
" transform="scale(0.015625)"/>
      <path id="DejaVuSans-72" d="M 2631 2963 
Q 2534 3019 2420 3045 
Q 2306 3072 2169 3072 
Q 1681 3072 1420 2755 
Q 1159 2438 1159 1844 
L 1159 0 
L 581 0 
L 581 3500 
L 1159 3500 
L 1159 2956 
Q 1341 3275 1631 3429 
Q 1922 3584 2338 3584 
Q 2397 3584 2469 3576 
Q 2541 3569 2628 3553 
L 2631 2963 
z
" transform="scale(0.015625)"/>
      <path id="DejaVuSans-63" d="M 3122 3366 
L 3122 2828 
Q 2878 2963 2633 3030 
Q 2388 3097 2138 3097 
Q 1578 3097 1268 2742 
Q 959 2388 959 1747 
Q 959 1106 1268 751 
Q 1578 397 2138 397 
Q 2388 397 2633 464 
Q 2878 531 3122 666 
L 3122 134 
Q 2881 22 2623 -34 
Q 2366 -91 2075 -91 
Q 1284 -91 818 406 
Q 353 903 353 1747 
Q 353 2603 823 3093 
Q 1294 3584 2113 3584 
Q 2378 3584 2631 3529 
Q 2884 3475 3122 3366 
z
" transform="scale(0.015625)"/>
      <path id="DejaVuSans-65" d="M 3597 1894 
L 3597 1613 
L 953 1613 
Q 991 1019 1311 708 
Q 1631 397 2203 397 
Q 2534 397 2845 478 
Q 3156 559 3463 722 
L 3463 178 
Q 3153 47 2828 -22 
Q 2503 -91 2169 -91 
Q 1331 -91 842 396 
Q 353 884 353 1716 
Q 353 2575 817 3079 
Q 1281 3584 2069 3584 
Q 2775 3584 3186 3129 
Q 3597 2675 3597 1894 
z
M 3022 2063 
Q 3016 2534 2758 2815 
Q 2500 3097 2075 3097 
Q 1594 3097 1305 2825 
Q 1016 2553 972 2059 
L 3022 2063 
z
" transform="scale(0.015625)"/>
      <path id="DejaVuSans-2d" d="M 313 2009 
L 1997 2009 
L 1997 1497 
L 313 1497 
L 313 2009 
z
" transform="scale(0.015625)"/>
      <path id="DejaVuSans-69" d="M 603 3500 
L 1178 3500 
L 1178 0 
L 603 0 
L 603 3500 
z
M 603 4863 
L 1178 4863 
L 1178 4134 
L 603 4134 
L 603 4863 
z
" transform="scale(0.015625)"/>
      <path id="DejaVuSans-76" d="M 191 3500 
L 800 3500 
L 1894 563 
L 2988 3500 
L 3597 3500 
L 2284 0 
L 1503 0 
L 191 3500 
z
" transform="scale(0.015625)"/>
     </defs>
     <use xlink:href="#DejaVuSans-73"/>
     <use xlink:href="#DejaVuSans-6f" x="52.099609"/>
     <use xlink:href="#DejaVuSans-75" x="113.28125"/>
     <use xlink:href="#DejaVuSans-72" x="176.660156"/>
     <use xlink:href="#DejaVuSans-63" x="215.523438"/>
     <use xlink:href="#DejaVuSans-65" x="270.503906"/>
     <use xlink:href="#DejaVuSans-31" x="332.027344"/>
     <use xlink:href="#DejaVuSans-32" x="395.650391"/>
     <use xlink:href="#DejaVuSans-2d" x="459.273438"/>
     <use xlink:href="#DejaVuSans-72" x="495.357422"/>
     <use xlink:href="#DejaVuSans-65" x="534.220703"/>
     <use xlink:href="#DejaVuSans-63" x="595.744141"/>
     <use xlink:href="#DejaVuSans-65" x="650.724609"/>
     <use xlink:href="#DejaVuSans-69" x="712.248047"/>
     <use xlink:href="#DejaVuSans-76" x="740.03125"/>
     <use xlink:href="#DejaVuSans-65" x="799.210938"/>
     <use xlink:href="#DejaVuSans-72" x="860.734375"/>
     <use xlink:href="#DejaVuSans-34" x="901.847656"/>
    </g>
   </g>
  </g>
 </g>
 <defs>
  <clipPath id="pc8fd071262">
   <rect x="180" y="69.12" width="1116" height="443.52"/>
  </clipPath>
 </defs>
</svg>
