<?xml version="1.0" encoding="utf-8" standalone="no"?>
<!DOCTYPE svg PUBLIC "-//W3C//DTD SVG 1.1//EN"
  "http://www.w3.org/Graphics/SVG/1.1/DTD/svg11.dtd">
<svg xmlns:xlink="http://www.w3.org/1999/xlink" width="1440pt" height="576pt" viewBox="0 0 1440 576" xmlns="http://www.w3.org/2000/svg" version="1.1">
 <metadata>
  <rdf:RDF xmlns:dc="http://purl.org/dc/elements/1.1/" xmlns:cc="http://creativecommons.org/ns#" xmlns:rdf="http://www.w3.org/1999/02/22-rdf-syntax-ns#">
   <cc:Work>
    <dc:type rdf:resource="http://purl.org/dc/dcmitype/StillImage"/>
    <dc:date>2024-05-22T04:50:01.696688</dc:date>
    <dc:format>image/svg+xml</dc:format>
    <dc:creator>
     <cc:Agent>
      <dc:title>Matplotlib v3.8.3, https://matplotlib.org/</dc:title>
     </cc:Agent>
    </dc:creator>
   </cc:Work>
  </rdf:RDF>
 </metadata>
 <defs>
  <style type="text/css">*{stroke-linejoin: round; stroke-linecap: butt}</style>
 </defs>
 <g id="figure_1">
  <g id="patch_1">
   <path d="M 0 576 
L 1440 576 
L 1440 0 
L 0 0 
z
" style="fill: #ffffff"/>
  </g>
  <g id="axes_1">
   <g id="patch_2">
    <path d="M 180 512.64 
L 1296 512.64 
L 1296 69.12 
L 180 69.12 
z
" style="fill: #ffffff"/>
   </g>
   <g id="matplotlib.axis_1">
    <g id="xtick_1">
     <g id="line2d_1">
      <defs>
       <path id="m37d86f3a1f" d="M 0 0 
L 0 3.5 
" style="stroke: #000000; stroke-width: 0.8"/>
      </defs>
      <g>
       <use xlink:href="#m37d86f3a1f" x="229.734567" y="512.64" style="stroke: #000000; stroke-width: 0.8"/>
      </g>
     </g>
     <g id="text_1">
      <!-- 0 -->
      <g transform="translate(226.553317 527.238438) scale(0.1 -0.1)">
       <defs>
        <path id="DejaVuSans-30" d="M 2034 4250 
Q 1547 4250 1301 3770 
Q 1056 3291 1056 2328 
Q 1056 1369 1301 889 
Q 1547 409 2034 409 
Q 2525 409 2770 889 
Q 3016 1369 3016 2328 
Q 3016 3291 2770 3770 
Q 2525 4250 2034 4250 
z
M 2034 4750 
Q 2819 4750 3233 4129 
Q 3647 3509 3647 2328 
Q 3647 1150 3233 529 
Q 2819 -91 2034 -91 
Q 1250 -91 836 529 
Q 422 1150 422 2328 
Q 422 3509 836 4129 
Q 1250 4750 2034 4750 
z
" transform="scale(0.015625)"/>
       </defs>
       <use xlink:href="#DejaVuSans-30"/>
      </g>
     </g>
    </g>
    <g id="xtick_2">
     <g id="line2d_2">
      <g>
       <use xlink:href="#m37d86f3a1f" x="433.04074" y="512.64" style="stroke: #000000; stroke-width: 0.8"/>
      </g>
     </g>
     <g id="text_2">
      <!-- 500 -->
      <g transform="translate(423.49699 527.238438) scale(0.1 -0.1)">
       <defs>
        <path id="DejaVuSans-35" d="M 691 4666 
L 3169 4666 
L 3169 4134 
L 1269 4134 
L 1269 2991 
Q 1406 3038 1543 3061 
Q 1681 3084 1819 3084 
Q 2600 3084 3056 2656 
Q 3513 2228 3513 1497 
Q 3513 744 3044 326 
Q 2575 -91 1722 -91 
Q 1428 -91 1123 -41 
Q 819 9 494 109 
L 494 744 
Q 775 591 1075 516 
Q 1375 441 1709 441 
Q 2250 441 2565 725 
Q 2881 1009 2881 1497 
Q 2881 1984 2565 2268 
Q 2250 2553 1709 2553 
Q 1456 2553 1204 2497 
Q 953 2441 691 2322 
L 691 4666 
z
" transform="scale(0.015625)"/>
       </defs>
       <use xlink:href="#DejaVuSans-35"/>
       <use xlink:href="#DejaVuSans-30" x="63.623047"/>
       <use xlink:href="#DejaVuSans-30" x="127.246094"/>
      </g>
     </g>
    </g>
    <g id="xtick_3">
     <g id="line2d_3">
      <g>
       <use xlink:href="#m37d86f3a1f" x="636.346913" y="512.64" style="stroke: #000000; stroke-width: 0.8"/>
      </g>
     </g>
     <g id="text_3">
      <!-- 1000 -->
      <g transform="translate(623.621913 527.238438) scale(0.1 -0.1)">
       <defs>
        <path id="DejaVuSans-31" d="M 794 531 
L 1825 531 
L 1825 4091 
L 703 3866 
L 703 4441 
L 1819 4666 
L 2450 4666 
L 2450 531 
L 3481 531 
L 3481 0 
L 794 0 
L 794 531 
z
" transform="scale(0.015625)"/>
       </defs>
       <use xlink:href="#DejaVuSans-31"/>
       <use xlink:href="#DejaVuSans-30" x="63.623047"/>
       <use xlink:href="#DejaVuSans-30" x="127.246094"/>
       <use xlink:href="#DejaVuSans-30" x="190.869141"/>
      </g>
     </g>
    </g>
    <g id="xtick_4">
     <g id="line2d_4">
      <g>
       <use xlink:href="#m37d86f3a1f" x="839.653087" y="512.64" style="stroke: #000000; stroke-width: 0.8"/>
      </g>
     </g>
     <g id="text_4">
      <!-- 1500 -->
      <g transform="translate(826.928087 527.238438) scale(0.1 -0.1)">
       <use xlink:href="#DejaVuSans-31"/>
       <use xlink:href="#DejaVuSans-35" x="63.623047"/>
       <use xlink:href="#DejaVuSans-30" x="127.246094"/>
       <use xlink:href="#DejaVuSans-30" x="190.869141"/>
      </g>
     </g>
    </g>
    <g id="xtick_5">
     <g id="line2d_5">
      <g>
       <use xlink:href="#m37d86f3a1f" x="1042.95926" y="512.64" style="stroke: #000000; stroke-width: 0.8"/>
      </g>
     </g>
     <g id="text_5">
      <!-- 2000 -->
      <g transform="translate(1030.23426 527.238438) scale(0.1 -0.1)">
       <defs>
        <path id="DejaVuSans-32" d="M 1228 531 
L 3431 531 
L 3431 0 
L 469 0 
L 469 531 
Q 828 903 1448 1529 
Q 2069 2156 2228 2338 
Q 2531 2678 2651 2914 
Q 2772 3150 2772 3378 
Q 2772 3750 2511 3984 
Q 2250 4219 1831 4219 
Q 1534 4219 1204 4116 
Q 875 4013 500 3803 
L 500 4441 
Q 881 4594 1212 4672 
Q 1544 4750 1819 4750 
Q 2544 4750 2975 4387 
Q 3406 4025 3406 3419 
Q 3406 3131 3298 2873 
Q 3191 2616 2906 2266 
Q 2828 2175 2409 1742 
Q 1991 1309 1228 531 
z
" transform="scale(0.015625)"/>
       </defs>
       <use xlink:href="#DejaVuSans-32"/>
       <use xlink:href="#DejaVuSans-30" x="63.623047"/>
       <use xlink:href="#DejaVuSans-30" x="127.246094"/>
       <use xlink:href="#DejaVuSans-30" x="190.869141"/>
      </g>
     </g>
    </g>
    <g id="xtick_6">
     <g id="line2d_6">
      <g>
       <use xlink:href="#m37d86f3a1f" x="1246.265433" y="512.64" style="stroke: #000000; stroke-width: 0.8"/>
      </g>
     </g>
     <g id="text_6">
      <!-- 2500 -->
      <g transform="translate(1233.540433 527.238438) scale(0.1 -0.1)">
       <use xlink:href="#DejaVuSans-32"/>
       <use xlink:href="#DejaVuSans-35" x="63.623047"/>
       <use xlink:href="#DejaVuSans-30" x="127.246094"/>
       <use xlink:href="#DejaVuSans-30" x="190.869141"/>
      </g>
     </g>
    </g>
   </g>
   <g id="matplotlib.axis_2">
    <g id="ytick_1">
     <g id="line2d_7">
      <defs>
       <path id="m0eb406336f" d="M 0 0 
L -3.5 0 
" style="stroke: #000000; stroke-width: 0.8"/>
      </defs>
      <g>
       <use xlink:href="#m0eb406336f" x="180" y="473.664314" style="stroke: #000000; stroke-width: 0.8"/>
      </g>
     </g>
     <g id="text_7">
      <!-- −2 -->
      <g transform="translate(158.257812 477.463533) scale(0.1 -0.1)">
       <defs>
        <path id="DejaVuSans-2212" d="M 678 2272 
L 4684 2272 
L 4684 1741 
L 678 1741 
L 678 2272 
z
" transform="scale(0.015625)"/>
       </defs>
       <use xlink:href="#DejaVuSans-2212"/>
       <use xlink:href="#DejaVuSans-32" x="83.789062"/>
      </g>
     </g>
    </g>
    <g id="ytick_2">
     <g id="line2d_8">
      <g>
       <use xlink:href="#m0eb406336f" x="180" y="421.106144" style="stroke: #000000; stroke-width: 0.8"/>
      </g>
     </g>
     <g id="text_8">
      <!-- −1 -->
      <g transform="translate(158.257812 424.905363) scale(0.1 -0.1)">
       <use xlink:href="#DejaVuSans-2212"/>
       <use xlink:href="#DejaVuSans-31" x="83.789062"/>
      </g>
     </g>
    </g>
    <g id="ytick_3">
     <g id="line2d_9">
      <g>
       <use xlink:href="#m0eb406336f" x="180" y="368.547974" style="stroke: #000000; stroke-width: 0.8"/>
      </g>
     </g>
     <g id="text_9">
      <!-- 0 -->
      <g transform="translate(166.6375 372.347193) scale(0.1 -0.1)">
       <use xlink:href="#DejaVuSans-30"/>
      </g>
     </g>
    </g>
    <g id="ytick_4">
     <g id="line2d_10">
      <g>
       <use xlink:href="#m0eb406336f" x="180" y="315.989804" style="stroke: #000000; stroke-width: 0.8"/>
      </g>
     </g>
     <g id="text_10">
      <!-- 1 -->
      <g transform="translate(166.6375 319.789023) scale(0.1 -0.1)">
       <use xlink:href="#DejaVuSans-31"/>
      </g>
     </g>
    </g>
    <g id="ytick_5">
     <g id="line2d_11">
      <g>
       <use xlink:href="#m0eb406336f" x="180" y="263.431634" style="stroke: #000000; stroke-width: 0.8"/>
      </g>
     </g>
     <g id="text_11">
      <!-- 2 -->
      <g transform="translate(166.6375 267.230853) scale(0.1 -0.1)">
       <use xlink:href="#DejaVuSans-32"/>
      </g>
     </g>
    </g>
    <g id="ytick_6">
     <g id="line2d_12">
      <g>
       <use xlink:href="#m0eb406336f" x="180" y="210.873464" style="stroke: #000000; stroke-width: 0.8"/>
      </g>
     </g>
     <g id="text_12">
      <!-- 3 -->
      <g transform="translate(166.6375 214.672683) scale(0.1 -0.1)">
       <defs>
        <path id="DejaVuSans-33" d="M 2597 2516 
Q 3050 2419 3304 2112 
Q 3559 1806 3559 1356 
Q 3559 666 3084 287 
Q 2609 -91 1734 -91 
Q 1441 -91 1130 -33 
Q 819 25 488 141 
L 488 750 
Q 750 597 1062 519 
Q 1375 441 1716 441 
Q 2309 441 2620 675 
Q 2931 909 2931 1356 
Q 2931 1769 2642 2001 
Q 2353 2234 1838 2234 
L 1294 2234 
L 1294 2753 
L 1863 2753 
Q 2328 2753 2575 2939 
Q 2822 3125 2822 3475 
Q 2822 3834 2567 4026 
Q 2313 4219 1838 4219 
Q 1578 4219 1281 4162 
Q 984 4106 628 3988 
L 628 4550 
Q 988 4650 1302 4700 
Q 1616 4750 1894 4750 
Q 2613 4750 3031 4423 
Q 3450 4097 3450 3541 
Q 3450 3153 3228 2886 
Q 3006 2619 2597 2516 
z
" transform="scale(0.015625)"/>
       </defs>
       <use xlink:href="#DejaVuSans-33"/>
      </g>
     </g>
    </g>
    <g id="ytick_7">
     <g id="line2d_13">
      <g>
       <use xlink:href="#m0eb406336f" x="180" y="158.315295" style="stroke: #000000; stroke-width: 0.8"/>
      </g>
     </g>
     <g id="text_13">
      <!-- 4 -->
      <g transform="translate(166.6375 162.114513) scale(0.1 -0.1)">
       <defs>
        <path id="DejaVuSans-34" d="M 2419 4116 
L 825 1625 
L 2419 1625 
L 2419 4116 
z
M 2253 4666 
L 3047 4666 
L 3047 1625 
L 3713 1625 
L 3713 1100 
L 3047 1100 
L 3047 0 
L 2419 0 
L 2419 1100 
L 313 1100 
L 313 1709 
L 2253 4666 
z
" transform="scale(0.015625)"/>
       </defs>
       <use xlink:href="#DejaVuSans-34"/>
      </g>
     </g>
    </g>
    <g id="ytick_8">
     <g id="line2d_14">
      <g>
       <use xlink:href="#m0eb406336f" x="180" y="105.757125" style="stroke: #000000; stroke-width: 0.8"/>
      </g>
     </g>
     <g id="text_14">
      <!-- 5 -->
      <g transform="translate(166.6375 109.556343) scale(0.1 -0.1)">
       <use xlink:href="#DejaVuSans-35"/>
      </g>
     </g>
    </g>
   </g>
   <g id="line2d_15">
    <path d="M 230.727273 346.386192 
L 234.698096 346.393565 
L 235.690802 346.311937 
L 239.661626 346.697204 
L 241.647038 347.441194 
L 242.639744 348.257237 
L 243.63245 348.740563 
L 244.625156 347.096484 
L 245.617862 345.04218 
L 246.610568 338.725979 
L 247.603273 295.910438 
L 248.595979 247.767646 
L 249.588685 218.260756 
L 250.581391 210.565494 
L 251.574097 228.835579 
L 252.566803 251.004587 
L 254.552215 225.339233 
L 255.544921 201.149004 
L 256.537627 192.855598 
L 257.530333 199.958962 
L 258.523039 232.190325 
L 259.515745 232.063303 
L 260.50845 208.410275 
L 261.501156 228.751616 
L 262.493862 267.582934 
L 263.486568 252.389926 
L 264.479274 269.271212 
L 265.47198 321.039307 
L 266.464686 240.75523 
L 267.457392 217.078636 
L 268.450098 239.902359 
L 269.442804 213.167517 
L 270.43551 208.150307 
L 271.428216 246.151808 
L 272.420922 216.950877 
L 273.413627 211.685819 
L 274.406333 252.4985 
L 275.399039 230.278112 
L 276.391745 170.934739 
L 277.384451 132.253965 
L 278.377157 129.806053 
L 279.369863 150.35649 
L 280.362569 128.003704 
L 281.355275 124.542667 
L 282.347981 141.854613 
L 283.340687 175.830892 
L 284.333393 148.531663 
L 285.326099 115.324546 
L 286.318804 142.486088 
L 287.31151 117.679742 
L 288.304216 89.28 
L 289.296922 100.065493 
L 290.289628 131.292486 
L 291.282334 171.173587 
L 292.27504 233.649955 
L 293.267746 182.96055 
L 294.260452 232.417101 
L 295.253158 270.936981 
L 296.245864 212.718011 
L 297.23857 192.647035 
L 298.231276 217.840927 
L 299.223981 197.685736 
L 300.216687 222.825105 
L 301.209393 279.961274 
L 302.202099 237.022574 
L 303.194805 220.058396 
L 304.187511 224.74649 
L 305.180217 274.146431 
L 306.172923 303.257865 
L 307.165629 278.914245 
L 308.158335 271.535614 
L 309.151041 308.388436 
L 310.143747 379.762605 
L 311.136453 349.937322 
L 312.129159 335.128325 
L 313.121864 340.227886 
L 314.11457 327.536246 
L 315.107276 334.43813 
L 316.099982 336.956935 
L 317.092688 374.180061 
L 318.085394 331.123022 
L 319.0781 336.252685 
L 320.070806 370.870933 
L 321.063512 341.393079 
L 322.056218 343.100663 
L 323.048924 362.284387 
L 324.04163 349.072873 
L 325.034336 352.915281 
L 326.027041 357.864914 
L 327.019747 354.239688 
L 328.012453 363.915627 
L 329.005159 367.373815 
L 329.997865 358.466702 
L 330.990571 363.146802 
L 331.983277 364.563638 
L 332.975983 358.603996 
L 333.968689 362.400148 
L 334.961395 359.212418 
L 335.954101 370.646744 
L 336.946807 391.415216 
L 337.939513 361.285649 
L 338.932218 357.013163 
L 339.924924 368.652936 
L 340.91763 387.191932 
L 341.910336 366.702933 
L 342.903042 384.166954 
L 343.895748 378.730319 
L 344.888454 372.512363 
L 345.88116 380.967416 
L 346.873866 373.69639 
L 347.866572 392.850667 
L 348.859278 368.539568 
L 349.851984 379.780304 
L 350.84469 383.57082 
L 351.837395 378.464237 
L 352.830101 383.685089 
L 353.822807 392.449661 
L 354.815513 388.919256 
L 355.808219 381.051229 
L 356.800925 400.238583 
L 357.793631 378.288294 
L 358.786337 382.167323 
L 359.779043 399.610666 
L 360.771749 396.24327 
L 361.764455 381.578664 
L 362.757161 379.653917 
L 363.749867 392.303355 
L 364.742572 408.323777 
L 365.735278 385.127208 
L 366.727984 393.549008 
L 367.72069 394.024279 
L 368.713396 387.465285 
L 369.706102 396.412537 
L 370.698808 391.155343 
L 371.691514 392.691903 
L 372.68422 391.96814 
L 373.676926 399.511901 
L 374.669632 394.236435 
L 375.662338 400.903721 
L 376.655044 395.246837 
L 377.64775 396.101238 
L 378.640455 397.607762 
L 379.633161 403.397738 
L 380.625867 397.249223 
L 381.618573 399.926969 
L 382.611279 397.851464 
L 383.603985 406.178342 
L 384.596691 401.750736 
L 385.589397 400.19383 
L 386.582103 401.136558 
L 387.574809 403.823953 
L 388.567515 401.67585 
L 389.560221 410.304969 
L 390.552927 409.254119 
L 391.545632 403.355429 
L 392.538338 406.605364 
L 393.531044 407.790937 
L 394.52375 407.903067 
L 395.516456 403.010154 
L 396.509162 405.504206 
L 397.501868 413.065534 
L 398.494574 410.026232 
L 399.48728 408.453503 
L 400.479986 412.118901 
L 401.472692 413.649201 
L 402.465398 404.692802 
L 403.458104 404.543253 
L 404.450809 405.562636 
L 405.443515 414.260985 
L 406.436221 413.568458 
L 407.428927 414.683725 
L 408.421633 415.219719 
L 409.414339 417.118743 
L 410.407045 410.524348 
L 411.399751 415.62907 
L 412.392457 413.027953 
L 413.385163 417.388427 
L 414.377869 417.160459 
L 415.370575 412.13604 
L 416.363281 416.175132 
L 417.355986 418.041584 
L 418.348692 415.433692 
L 419.341398 417.358875 
L 420.334104 417.973483 
L 422.319516 419.583878 
L 423.312222 422.88291 
L 424.304928 420.646287 
L 425.297634 421.320423 
L 426.29034 422.578973 
L 427.283046 424.071716 
L 428.275752 422.756902 
L 429.268458 423.510049 
L 430.261163 421.611889 
L 431.253869 420.428177 
L 432.246575 422.342685 
L 433.239281 421.525446 
L 434.231987 425.181275 
L 435.224693 426.002022 
L 436.217399 427.86073 
L 437.210105 419.911482 
L 438.202811 423.583455 
L 439.195517 424.895977 
L 440.188223 428.338323 
L 441.180929 428.918671 
L 442.173635 425.154184 
L 443.166341 421.940802 
L 444.159046 422.295662 
L 445.151752 430.810333 
L 446.144458 429.456237 
L 447.137164 423.039319 
L 448.12987 422.017007 
L 449.122576 429.541148 
L 450.115282 424.049667 
L 452.100694 430.232515 
L 453.0934 424.243268 
L 455.078812 428.940423 
L 456.071518 432.487917 
L 457.064223 427.123162 
L 458.056929 431.884113 
L 459.049635 431.215848 
L 460.042341 431.089469 
L 461.035047 433.432476 
L 462.027753 427.543064 
L 464.013165 430.959849 
L 465.005871 423.353759 
L 465.998577 431.9868 
L 466.991283 430.673897 
L 467.983989 430.987706 
L 468.976695 427.627758 
L 469.9694 430.488508 
L 470.962106 432.100734 
L 471.954812 435.050929 
L 472.947518 432.55069 
L 473.940224 442.66344 
L 474.93293 434.82802 
L 475.925636 428.824886 
L 476.918342 431.6602 
L 477.911048 437.412319 
L 478.903754 430.789577 
L 479.89646 434.210774 
L 480.889166 438.670976 
L 481.881872 436.001149 
L 482.874577 436.978719 
L 483.867283 439.821857 
L 484.859989 440.390043 
L 485.852695 438.899614 
L 486.845401 438.034388 
L 487.838107 431.036195 
L 488.830813 439.258423 
L 489.823519 441.201831 
L 490.816225 437.24793 
L 491.808931 445.228374 
L 492.801637 440.77212 
L 493.794343 441.343091 
L 494.787049 442.376699 
L 495.779754 438.697473 
L 496.77246 439.492333 
L 497.765166 445.543195 
L 498.757872 439.552022 
L 499.750578 437.707264 
L 500.743284 450.468264 
L 501.73599 440.622871 
L 502.728696 437.456668 
L 503.721402 436.455514 
L 504.714108 446.006253 
L 505.706814 444.291971 
L 507.692226 427.603144 
L 508.684932 452.8859 
L 509.677637 440.426629 
L 510.670343 450.845877 
L 511.663049 447.882817 
L 512.655755 440.850502 
L 513.648461 444.494067 
L 514.641167 446.754529 
L 515.633873 440.81087 
L 516.626579 449.328377 
L 517.619285 444.471921 
L 518.611991 437.359765 
L 519.604697 445.542487 
L 520.597403 438.126001 
L 521.590109 438.101792 
L 522.582814 451.904695 
L 523.57552 442.919986 
L 524.568226 448.580801 
L 525.560932 436.520678 
L 526.553638 452.268764 
L 527.546344 450.255618 
L 528.53905 449.565921 
L 529.531756 443.143308 
L 531.517168 457.497858 
L 532.509874 443.258952 
L 533.50258 454.75968 
L 534.495286 445.993425 
L 535.487991 454.078761 
L 536.480697 452.836959 
L 537.473403 443.174059 
L 538.466109 448.78311 
L 539.458815 444.679364 
L 540.451521 439.08983 
L 541.444227 455.809241 
L 542.436933 447.497996 
L 543.429639 457.009767 
L 544.422345 440.013294 
L 545.415051 447.83825 
L 546.407757 439.646229 
L 548.393168 447.841 
L 549.385874 443.297583 
L 550.37858 440.315521 
L 551.371286 441.584961 
L 552.363992 446.978611 
L 553.356698 455.684987 
L 554.349404 456.45421 
L 555.34211 448.845324 
L 556.334816 455.492895 
L 557.327522 441.655536 
L 558.320228 461.615237 
L 559.312934 444.811709 
L 560.30564 450.974345 
L 561.298345 449.999671 
L 562.291051 447.548771 
L 563.283757 455.908292 
L 564.276463 446.166735 
L 565.269169 460.497198 
L 566.261875 445.426427 
L 567.254581 442.834327 
L 568.247287 452.860988 
L 569.239993 461.18548 
L 570.232699 448.849344 
L 571.225405 438.959955 
L 572.218111 446.851802 
L 573.210817 457.918528 
L 574.203523 458.428923 
L 575.196228 457.300103 
L 576.188934 447.361942 
L 577.18164 456.915023 
L 578.174346 456.077926 
L 579.167052 459.872999 
L 580.159758 443.335531 
L 581.152464 450.499965 
L 582.14517 462.525352 
L 583.137876 456.429455 
L 584.130582 451.263041 
L 585.123288 454.225034 
L 586.115994 452.48482 
L 587.1087 451.99598 
L 588.101405 457.924592 
L 589.094111 455.824625 
L 590.086817 457.158395 
L 591.079523 461.047677 
L 592.072229 447.326454 
L 593.064935 448.101775 
L 594.057641 466.314606 
L 595.050347 460.882707 
L 596.043053 449.274988 
L 597.035759 458.601785 
L 598.028465 462.479107 
L 599.021171 455.620222 
L 600.013877 454.862772 
L 601.006582 459.276908 
L 601.999288 461.725778 
L 602.991994 456.838172 
L 603.9847 457.59895 
L 604.977406 461.283764 
L 605.970112 453.535609 
L 606.962818 461.895505 
L 607.955524 457.266449 
L 608.94823 458.268379 
L 609.940936 457.179149 
L 610.933642 456.964589 
L 611.926348 456.183566 
L 612.919054 453.599052 
L 613.911759 461.447275 
L 614.904465 459.187083 
L 615.897171 457.983676 
L 616.889877 457.728871 
L 617.882583 460.357271 
L 618.875289 460.051053 
L 619.867995 458.848583 
L 620.860701 464.685815 
L 621.853407 457.786667 
L 622.846113 460.866174 
L 624.831525 457.088816 
L 625.824231 461.821529 
L 626.816936 456.159964 
L 627.809642 460.062012 
L 628.802348 461.375243 
L 629.795054 462.456604 
L 630.78776 461.748636 
L 631.780466 461.703252 
L 632.773172 460.772401 
L 633.765878 462.4676 
L 634.758584 459.176817 
L 635.75129 460.908152 
L 636.743996 461.475761 
L 637.736702 463.041995 
L 638.729408 463.925032 
L 639.722114 459.87616 
L 640.714819 463.939245 
L 641.707525 460.132248 
L 642.700231 464.301281 
L 643.692937 459.142666 
L 644.685643 463.512599 
L 645.678349 462.729284 
L 646.671055 463.116285 
L 647.663761 464.790113 
L 648.656467 461.00151 
L 649.649173 465.420807 
L 650.641879 466.64447 
L 651.634585 467.131456 
L 652.627291 463.793845 
L 653.619996 465.757854 
L 654.612702 465.020826 
L 655.605408 465.61003 
L 656.598114 461.600456 
L 657.59082 463.067052 
L 658.583526 464.956451 
L 659.576232 465.064727 
L 660.568938 465.8563 
L 661.561644 463.852527 
L 662.55435 465.507931 
L 663.547056 465.136305 
L 664.539762 464.999965 
L 665.532468 465.055867 
L 666.525173 462.796729 
L 667.517879 466.676263 
L 668.510585 466.693541 
L 669.503291 465.780721 
L 670.495997 466.619396 
L 671.488703 463.920091 
L 672.481409 466.402293 
L 673.474115 467.887104 
L 674.466821 466.149731 
L 675.459527 465.986122 
L 676.452233 465.597268 
L 677.444939 465.752699 
L 678.437645 465.583953 
L 679.43035 468.30426 
L 680.423056 467.138427 
L 681.415762 467.341794 
L 682.408468 466.716369 
L 683.401174 467.097169 
L 684.39388 467.33044 
L 685.386586 467.786426 
L 686.379292 467.294693 
L 687.371998 468.020493 
L 688.364704 467.578255 
L 689.35741 466.620762 
L 690.350116 467.717917 
L 691.342822 467.838195 
L 692.335527 469.063058 
L 693.328233 467.477728 
L 694.320939 467.372706 
L 695.313645 468.84949 
L 696.306351 468.209153 
L 697.299057 468.301796 
L 698.291763 469.913666 
L 699.284469 468.944444 
L 701.269881 469.39462 
L 702.262587 469.352186 
L 703.255293 470.481955 
L 704.247999 470.343638 
L 705.240705 468.865176 
L 706.23341 469.138068 
L 707.226116 468.791415 
L 708.218822 471.135357 
L 709.211528 469.783291 
L 710.204234 470.507006 
L 711.19694 470.191923 
L 712.189646 470.30907 
L 713.182352 471.032585 
L 714.175058 470.881839 
L 716.16047 470.886477 
L 717.153176 471.205922 
L 718.145882 470.106572 
L 719.138587 471.018347 
L 720.131293 470.188492 
L 721.123999 471.195568 
L 722.116705 470.3502 
L 723.109411 470.922039 
L 724.102117 471.752107 
L 725.094823 471.918695 
L 727.080235 470.804098 
L 729.065647 472.102128 
L 730.058353 472.290143 
L 731.051059 472.233396 
L 732.043764 470.707134 
L 733.03647 471.941276 
L 734.029176 472.433023 
L 735.021882 472.433967 
L 736.014588 471.961229 
L 737.007294 472.520867 
L 738 471.604021 
L 738.992706 472.512605 
L 739.985412 472.357678 
L 740.978118 472.820727 
L 741.970824 472.065122 
L 742.96353 472.977203 
L 743.956236 473.157713 
L 744.948941 473.059639 
L 745.941647 472.758049 
L 746.934353 473.059302 
L 747.927059 472.775722 
L 748.919765 473.254568 
L 749.912471 473.275155 
L 750.905177 473.583655 
L 751.897883 473.222991 
L 752.890589 474.100663 
L 753.883295 473.004422 
L 754.876001 473.802962 
L 755.868707 474.250147 
L 756.861413 474.116174 
L 757.854118 474.839094 
L 758.846824 474.49413 
L 759.83953 474.626193 
L 760.832236 474.959423 
L 761.824942 474.473267 
L 762.817648 475.033953 
L 764.80306 474.652865 
L 765.795766 475.142274 
L 766.788472 474.894985 
L 767.781178 474.963084 
L 768.773884 475.449614 
L 769.76659 475.556969 
L 770.759295 475.23882 
L 771.752001 475.75243 
L 772.744707 475.210518 
L 773.737413 475.268116 
L 774.730119 475.750027 
L 775.722825 475.666005 
L 776.715531 476.135873 
L 777.708237 475.698921 
L 778.700943 476.036105 
L 779.693649 475.911649 
L 780.686355 476.231227 
L 781.679061 476.68658 
L 782.671767 476.840205 
L 783.664473 476.062725 
L 784.657178 476.385817 
L 785.649884 475.555205 
L 786.64259 476.633863 
L 787.635296 476.94334 
L 789.620708 476.014823 
L 790.613414 477.536962 
L 791.60612 476.923897 
L 792.598826 477.060512 
L 793.591532 477.406938 
L 794.584238 476.550335 
L 795.576944 477.254722 
L 796.56965 477.369066 
L 797.562355 477.180617 
L 800.540473 477.832288 
L 801.533179 476.530554 
L 802.525885 477.340725 
L 803.518591 477.888782 
L 804.511297 477.610194 
L 805.504003 476.973433 
L 806.496709 477.154408 
L 807.489415 477.544308 
L 808.482121 478.519275 
L 809.474827 478.683701 
L 810.467532 477.918025 
L 811.460238 478.05158 
L 812.452944 478.410006 
L 813.44565 478.047 
L 814.438356 479.24938 
L 816.423768 477.008171 
L 817.416474 478.808121 
L 818.40918 478.205535 
L 819.401886 479.020424 
L 820.394592 478.961216 
L 821.387298 479.120542 
L 822.380004 478.463578 
L 823.372709 478.78137 
L 824.365415 479.795778 
L 825.358121 479.119085 
L 826.350827 479.466042 
L 827.343533 479.301356 
L 828.336239 479.319762 
L 829.328945 479.133067 
L 831.314357 479.733915 
L 832.307063 479.310582 
L 833.299769 480.250895 
L 834.292475 479.954368 
L 835.285181 479.478606 
L 836.277886 479.448773 
L 837.270592 479.963618 
L 838.263298 479.950421 
L 839.256004 480.516924 
L 840.24871 479.973381 
L 841.241416 480.384498 
L 842.234122 479.072246 
L 843.226828 479.259727 
L 845.21224 480.917023 
L 846.204946 480.250291 
L 847.197652 480.8672 
L 848.190358 481.088254 
L 850.175769 480.288668 
L 851.168475 480.712608 
L 852.161181 480.834935 
L 853.153887 480.612308 
L 854.146593 481.027837 
L 855.139299 481.167565 
L 856.132005 481.494492 
L 857.124711 481.185347 
L 858.117417 481.540508 
L 859.110123 481.351803 
L 860.102829 480.959798 
L 861.095535 481.666141 
L 863.080946 481.733895 
L 864.073652 480.897552 
L 865.066358 481.171047 
L 866.059064 481.927738 
L 869.037182 481.704364 
L 870.029888 482.411305 
L 871.022594 481.468022 
L 872.0153 482.164034 
L 874.000712 481.865623 
L 874.993418 481.876823 
L 875.986123 482.075825 
L 876.978829 482.097257 
L 877.971535 482.715859 
L 878.964241 482.579539 
L 879.956947 482.016391 
L 880.949653 482.964999 
L 881.942359 482.600355 
L 882.935065 482.7203 
L 883.927771 481.577982 
L 884.920477 482.826093 
L 886.905889 482.835814 
L 887.898595 483.80743 
L 888.8913 482.48888 
L 889.884006 482.989355 
L 890.876712 483.241213 
L 891.869418 483.711716 
L 892.862124 482.784206 
L 893.85483 482.876504 
L 894.847536 483.205081 
L 898.81836 483.512429 
L 899.811066 483.595683 
L 900.803772 483.188918 
L 901.796477 484.243888 
L 903.781889 483.243649 
L 904.774595 484.151292 
L 905.767301 483.51821 
L 906.760007 483.866227 
L 907.752713 483.954561 
L 908.745419 484.192732 
L 909.738125 483.617615 
L 910.730831 484.39818 
L 911.723537 483.505546 
L 912.716243 484.420881 
L 913.708949 484.004001 
L 914.701655 484.371775 
L 915.69436 484.490775 
L 916.687066 484.332364 
L 917.679772 483.809635 
L 918.672478 483.968469 
L 919.665184 483.947279 
L 920.65789 484.48281 
L 921.650596 484.281458 
L 922.643302 484.786061 
L 923.636008 484.090597 
L 924.628714 484.289448 
L 925.62142 484.782824 
L 926.614126 484.347339 
L 927.606832 484.620405 
L 928.599537 484.686386 
L 929.592243 484.203277 
L 930.584949 485.145924 
L 931.577655 484.946454 
L 932.570361 485.010718 
L 933.563067 484.707789 
L 934.555773 484.610115 
L 935.548479 485.337907 
L 936.541185 484.923887 
L 937.533891 485.398445 
L 938.526597 485.679227 
L 939.519303 485.538467 
L 940.512009 485.26974 
L 941.504714 485.676284 
L 942.49742 485.261336 
L 943.490126 485.35803 
L 944.482832 485.09504 
L 945.475538 485.706874 
L 946.468244 484.63765 
L 947.46095 485.906313 
L 948.453656 485.545101 
L 949.446362 485.310698 
L 950.439068 485.712049 
L 951.431774 485.962528 
L 952.42448 485.510407 
L 953.417186 486.110522 
L 954.409891 485.854903 
L 955.402597 486.018413 
L 956.395303 485.905061 
L 957.388009 486.377391 
L 958.380715 485.92191 
L 959.373421 486.031233 
L 961.358833 486.525302 
L 963.344245 486.117939 
L 964.336951 486.347464 
L 965.329657 485.892405 
L 966.322363 486.476694 
L 967.315068 486.058187 
L 968.307774 486.765999 
L 969.30048 486.671117 
L 970.293186 486.189406 
L 971.285892 486.439382 
L 972.278598 486.537519 
L 973.271304 486.191894 
L 974.26401 486.960635 
L 975.256716 486.223832 
L 976.249422 486.292144 
L 977.242128 486.885114 
L 978.234834 486.399386 
L 979.22754 486.624163 
L 980.220246 487.405907 
L 981.212951 487.057144 
L 983.198363 485.972737 
L 984.191069 486.840788 
L 985.183775 486.860644 
L 986.176481 486.714689 
L 987.169187 487.175276 
L 988.161893 486.877472 
L 989.154599 488.407434 
L 990.147305 486.818604 
L 991.140011 487.194932 
L 992.132717 487.698984 
L 993.125423 487.960526 
L 994.118128 487.605843 
L 995.110834 487.838439 
L 996.10354 487.839648 
L 997.096246 487.484406 
L 998.088952 487.826828 
L 999.081658 487.639884 
L 1000.074364 487.638948 
L 1001.06707 488.305593 
L 1002.059776 487.239257 
L 1003.052482 487.716067 
L 1004.045188 487.071834 
L 1005.037894 487.646493 
L 1006.0306 487.511612 
L 1007.023305 488.734479 
L 1008.016011 487.565937 
L 1009.008717 488.409744 
L 1010.001423 488.038154 
L 1010.994129 488.21747 
L 1011.986835 487.749456 
L 1012.979541 487.447377 
L 1013.972247 487.484331 
L 1014.964953 488.563391 
L 1015.957659 487.813745 
L 1016.950365 487.364941 
L 1017.943071 488.501042 
L 1018.935777 488.85249 
L 1019.928482 488.23406 
L 1020.921188 488.766544 
L 1021.913894 488.273424 
L 1022.9066 487.649953 
L 1023.899306 487.700087 
L 1024.892012 488.942987 
L 1025.884718 489.008876 
L 1026.877424 487.961653 
L 1027.87013 487.706308 
L 1028.862836 488.229977 
L 1029.855542 488.607291 
L 1030.848248 488.451566 
L 1031.840954 488.83555 
L 1032.833659 488.748801 
L 1033.826365 488.859519 
L 1034.819071 488.703868 
L 1035.811777 488.794319 
L 1036.804483 488.414688 
L 1037.797189 488.857731 
L 1038.789895 488.16303 
L 1039.782601 489.348763 
L 1040.775307 488.212247 
L 1041.768013 489.590249 
L 1042.760719 489.106743 
L 1043.753425 489.132493 
L 1044.746131 488.479391 
L 1045.738837 488.676979 
L 1047.724248 488.446248 
L 1048.716954 489.20539 
L 1049.70966 488.823822 
L 1050.702366 488.723963 
L 1051.695072 490.066526 
L 1052.687778 488.725498 
L 1053.680484 489.479966 
L 1054.67319 489.865701 
L 1055.665896 489.644676 
L 1056.658602 489.635248 
L 1058.644014 489.211084 
L 1059.636719 489.207909 
L 1060.629425 488.762524 
L 1061.622131 489.534111 
L 1062.614837 489.217553 
L 1063.607543 489.552343 
L 1064.600249 489.711844 
L 1066.585661 489.497502 
L 1067.578367 489.359341 
L 1068.571073 489.846056 
L 1069.563779 489.952588 
L 1070.556485 489.558582 
L 1071.549191 489.457224 
L 1072.541896 490.371147 
L 1074.527308 489.580154 
L 1075.520014 489.733888 
L 1076.51272 489.400516 
L 1077.505426 489.748326 
L 1078.498132 489.809476 
L 1079.490838 489.485519 
L 1081.47625 490.522823 
L 1082.468956 490.593319 
L 1083.461662 490.436107 
L 1084.454368 489.734972 
L 1085.447073 489.646139 
L 1086.439779 490.499431 
L 1087.432485 490.094601 
L 1089.417897 489.060875 
L 1090.410603 490.795888 
L 1091.403309 489.990896 
L 1092.396015 491.081352 
L 1093.388721 490.470876 
L 1094.381427 489.431454 
L 1095.374133 490.514278 
L 1096.366839 490.163302 
L 1097.359545 490.805537 
L 1098.35225 490.62049 
L 1099.344956 489.95343 
L 1100.337662 490.135595 
L 1101.330368 490.048581 
L 1102.323074 490.666888 
L 1103.31578 490.222952 
L 1104.308486 491.340025 
L 1105.301192 490.193807 
L 1106.293898 489.756296 
L 1107.286604 490.458043 
L 1108.27931 490.541748 
L 1110.264722 490.481499 
L 1111.257428 490.838433 
L 1112.250133 489.490321 
L 1114.235545 491.521257 
L 1115.228251 490.974105 
L 1116.220957 490.686423 
L 1117.213663 490.2266 
L 1118.206369 490.090497 
L 1119.199075 490.665911 
L 1120.191781 490.341739 
L 1121.184487 490.516129 
L 1123.169899 490.370575 
L 1124.162605 489.517573 
L 1125.15531 490.70681 
L 1126.148016 489.851244 
L 1127.140722 490.817442 
L 1128.133428 490.613759 
L 1129.126134 491.178778 
L 1130.11884 491.086549 
L 1131.111546 491.337913 
L 1133.096958 490.47346 
L 1134.089664 490.333368 
L 1135.08237 490.422202 
L 1136.075076 490.664759 
L 1137.067782 491.672497 
L 1138.060487 490.385095 
L 1139.053193 491.048496 
L 1140.045899 491.246671 
L 1141.038605 491.052227 
L 1142.031311 490.362986 
L 1143.024017 491.317524 
L 1144.016723 490.914442 
L 1145.009429 492.003714 
L 1146.002135 490.476016 
L 1146.994841 491.447326 
L 1147.987547 491.393551 
L 1148.980253 490.884676 
L 1149.972959 490.129326 
L 1150.965664 491.804678 
L 1151.95837 490.511839 
L 1152.951076 491.046373 
L 1153.943782 490.988997 
L 1154.936488 491.404843 
L 1155.929194 491.395164 
L 1156.9219 490.844774 
L 1157.914606 490.75929 
L 1159.900018 491.314276 
L 1160.892724 490.832684 
L 1161.88543 490.096452 
L 1162.878136 491.335299 
L 1164.863547 491.451273 
L 1165.856253 490.352539 
L 1166.848959 491.298742 
L 1167.841665 491.792246 
L 1168.834371 491.693828 
L 1169.827077 491.763625 
L 1170.819783 491.534109 
L 1171.812489 491.715924 
L 1173.797901 491.525183 
L 1175.783313 490.866524 
L 1176.776019 491.194045 
L 1177.768724 490.985339 
L 1178.76143 491.574952 
L 1179.754136 491.163976 
L 1180.746842 492.425991 
L 1181.739548 491.601638 
L 1182.732254 491.751922 
L 1183.72496 491.186521 
L 1184.717666 491.335655 
L 1185.710372 491.331051 
L 1186.703078 491.644952 
L 1187.695784 491.735433 
L 1188.68849 491.128955 
L 1189.681196 492.039744 
L 1191.666607 491.554706 
L 1192.659313 490.65383 
L 1193.652019 491.054535 
L 1194.644725 491.281396 
L 1195.637431 491.364004 
L 1196.630137 491.255745 
L 1197.622843 492.087453 
L 1198.615549 491.750901 
L 1199.608255 491.086662 
L 1200.600961 491.95097 
L 1201.593667 491.646314 
L 1202.586373 492.418069 
L 1203.579078 491.300352 
L 1204.571784 491.683537 
L 1205.56449 491.201567 
L 1206.557196 491.773677 
L 1208.542608 491.757214 
L 1209.535314 491.43651 
L 1210.52802 491.345683 
L 1211.520726 492.008199 
L 1212.513432 490.368332 
L 1213.506138 491.663924 
L 1214.498844 491.363351 
L 1215.49155 491.257417 
L 1217.476961 492.104722 
L 1218.469667 491.842599 
L 1219.462373 491.926705 
L 1220.455079 491.720929 
L 1221.447785 491.72595 
L 1222.440491 491.481516 
L 1224.425903 492.121232 
L 1225.418609 491.308838 
L 1226.411315 490.942638 
L 1227.404021 491.475928 
L 1228.396727 490.849476 
L 1229.389432 492.48 
L 1230.382138 491.101872 
L 1231.374844 491.65209 
L 1232.36755 490.891736 
L 1233.360256 491.986753 
L 1234.352962 492.197552 
L 1235.345668 491.038073 
L 1236.338374 491.885904 
L 1237.33108 491.377633 
L 1238.323786 491.335035 
L 1239.316492 492.289196 
L 1240.309198 491.149769 
L 1241.301904 491.077162 
L 1242.29461 491.580573 
L 1243.287315 491.435492 
L 1245.272727 492.232026 
L 1245.272727 492.232026 
" clip-path="url(#p9a2b5bb920)" style="fill: none; stroke: #1f77b4; stroke-width: 1.5; stroke-linecap: square"/>
   </g>
   <g id="patch_3">
    <path d="M 180 512.64 
L 180 69.12 
" style="fill: none; stroke: #000000; stroke-width: 0.8; stroke-linejoin: miter; stroke-linecap: square"/>
   </g>
   <g id="patch_4">
    <path d="M 1296 512.64 
L 1296 69.12 
" style="fill: none; stroke: #000000; stroke-width: 0.8; stroke-linejoin: miter; stroke-linecap: square"/>
   </g>
   <g id="patch_5">
    <path d="M 180 512.64 
L 1296 512.64 
" style="fill: none; stroke: #000000; stroke-width: 0.8; stroke-linejoin: miter; stroke-linecap: square"/>
   </g>
   <g id="patch_6">
    <path d="M 180 69.12 
L 1296 69.12 
" style="fill: none; stroke: #000000; stroke-width: 0.8; stroke-linejoin: miter; stroke-linecap: square"/>
   </g>
   <g id="text_15">
    <!-- source12-receiver9 -->
    <g transform="translate(544.9 60.80125) scale(0.4 -0.4)">
     <defs>
      <path id="DejaVuSans-73" d="M 2834 3397 
L 2834 2853 
Q 2591 2978 2328 3040 
Q 2066 3103 1784 3103 
Q 1356 3103 1142 2972 
Q 928 2841 928 2578 
Q 928 2378 1081 2264 
Q 1234 2150 1697 2047 
L 1894 2003 
Q 2506 1872 2764 1633 
Q 3022 1394 3022 966 
Q 3022 478 2636 193 
Q 2250 -91 1575 -91 
Q 1294 -91 989 -36 
Q 684 19 347 128 
L 347 722 
Q 666 556 975 473 
Q 1284 391 1588 391 
Q 1994 391 2212 530 
Q 2431 669 2431 922 
Q 2431 1156 2273 1281 
Q 2116 1406 1581 1522 
L 1381 1569 
Q 847 1681 609 1914 
Q 372 2147 372 2553 
Q 372 3047 722 3315 
Q 1072 3584 1716 3584 
Q 2034 3584 2315 3537 
Q 2597 3491 2834 3397 
z
" transform="scale(0.015625)"/>
      <path id="DejaVuSans-6f" d="M 1959 3097 
Q 1497 3097 1228 2736 
Q 959 2375 959 1747 
Q 959 1119 1226 758 
Q 1494 397 1959 397 
Q 2419 397 2687 759 
Q 2956 1122 2956 1747 
Q 2956 2369 2687 2733 
Q 2419 3097 1959 3097 
z
M 1959 3584 
Q 2709 3584 3137 3096 
Q 3566 2609 3566 1747 
Q 3566 888 3137 398 
Q 2709 -91 1959 -91 
Q 1206 -91 779 398 
Q 353 888 353 1747 
Q 353 2609 779 3096 
Q 1206 3584 1959 3584 
z
" transform="scale(0.015625)"/>
      <path id="DejaVuSans-75" d="M 544 1381 
L 544 3500 
L 1119 3500 
L 1119 1403 
Q 1119 906 1312 657 
Q 1506 409 1894 409 
Q 2359 409 2629 706 
Q 2900 1003 2900 1516 
L 2900 3500 
L 3475 3500 
L 3475 0 
L 2900 0 
L 2900 538 
Q 2691 219 2414 64 
Q 2138 -91 1772 -91 
Q 1169 -91 856 284 
Q 544 659 544 1381 
z
M 1991 3584 
L 1991 3584 
z
" transform="scale(0.015625)"/>
      <path id="DejaVuSans-72" d="M 2631 2963 
Q 2534 3019 2420 3045 
Q 2306 3072 2169 3072 
Q 1681 3072 1420 2755 
Q 1159 2438 1159 1844 
L 1159 0 
L 581 0 
L 581 3500 
L 1159 3500 
L 1159 2956 
Q 1341 3275 1631 3429 
Q 1922 3584 2338 3584 
Q 2397 3584 2469 3576 
Q 2541 3569 2628 3553 
L 2631 2963 
z
" transform="scale(0.015625)"/>
      <path id="DejaVuSans-63" d="M 3122 3366 
L 3122 2828 
Q 2878 2963 2633 3030 
Q 2388 3097 2138 3097 
Q 1578 3097 1268 2742 
Q 959 2388 959 1747 
Q 959 1106 1268 751 
Q 1578 397 2138 397 
Q 2388 397 2633 464 
Q 2878 531 3122 666 
L 3122 134 
Q 2881 22 2623 -34 
Q 2366 -91 2075 -91 
Q 1284 -91 818 406 
Q 353 903 353 1747 
Q 353 2603 823 3093 
Q 1294 3584 2113 3584 
Q 2378 3584 2631 3529 
Q 2884 3475 3122 3366 
z
" transform="scale(0.015625)"/>
      <path id="DejaVuSans-65" d="M 3597 1894 
L 3597 1613 
L 953 1613 
Q 991 1019 1311 708 
Q 1631 397 2203 397 
Q 2534 397 2845 478 
Q 3156 559 3463 722 
L 3463 178 
Q 3153 47 2828 -22 
Q 2503 -91 2169 -91 
Q 1331 -91 842 396 
Q 353 884 353 1716 
Q 353 2575 817 3079 
Q 1281 3584 2069 3584 
Q 2775 3584 3186 3129 
Q 3597 2675 3597 1894 
z
M 3022 2063 
Q 3016 2534 2758 2815 
Q 2500 3097 2075 3097 
Q 1594 3097 1305 2825 
Q 1016 2553 972 2059 
L 3022 2063 
z
" transform="scale(0.015625)"/>
      <path id="DejaVuSans-2d" d="M 313 2009 
L 1997 2009 
L 1997 1497 
L 313 1497 
L 313 2009 
z
" transform="scale(0.015625)"/>
      <path id="DejaVuSans-69" d="M 603 3500 
L 1178 3500 
L 1178 0 
L 603 0 
L 603 3500 
z
M 603 4863 
L 1178 4863 
L 1178 4134 
L 603 4134 
L 603 4863 
z
" transform="scale(0.015625)"/>
      <path id="DejaVuSans-76" d="M 191 3500 
L 800 3500 
L 1894 563 
L 2988 3500 
L 3597 3500 
L 2284 0 
L 1503 0 
L 191 3500 
z
" transform="scale(0.015625)"/>
      <path id="DejaVuSans-39" d="M 703 97 
L 703 672 
Q 941 559 1184 500 
Q 1428 441 1663 441 
Q 2288 441 2617 861 
Q 2947 1281 2994 2138 
Q 2813 1869 2534 1725 
Q 2256 1581 1919 1581 
Q 1219 1581 811 2004 
Q 403 2428 403 3163 
Q 403 3881 828 4315 
Q 1253 4750 1959 4750 
Q 2769 4750 3195 4129 
Q 3622 3509 3622 2328 
Q 3622 1225 3098 567 
Q 2575 -91 1691 -91 
Q 1453 -91 1209 -44 
Q 966 3 703 97 
z
M 1959 2075 
Q 2384 2075 2632 2365 
Q 2881 2656 2881 3163 
Q 2881 3666 2632 3958 
Q 2384 4250 1959 4250 
Q 1534 4250 1286 3958 
Q 1038 3666 1038 3163 
Q 1038 2656 1286 2365 
Q 1534 2075 1959 2075 
z
" transform="scale(0.015625)"/>
     </defs>
     <use xlink:href="#DejaVuSans-73"/>
     <use xlink:href="#DejaVuSans-6f" x="52.099609"/>
     <use xlink:href="#DejaVuSans-75" x="113.28125"/>
     <use xlink:href="#DejaVuSans-72" x="176.660156"/>
     <use xlink:href="#DejaVuSans-63" x="215.523438"/>
     <use xlink:href="#DejaVuSans-65" x="270.503906"/>
     <use xlink:href="#DejaVuSans-31" x="332.027344"/>
     <use xlink:href="#DejaVuSans-32" x="395.650391"/>
     <use xlink:href="#DejaVuSans-2d" x="459.273438"/>
     <use xlink:href="#DejaVuSans-72" x="495.357422"/>
     <use xlink:href="#DejaVuSans-65" x="534.220703"/>
     <use xlink:href="#DejaVuSans-63" x="595.744141"/>
     <use xlink:href="#DejaVuSans-65" x="650.724609"/>
     <use xlink:href="#DejaVuSans-69" x="712.248047"/>
     <use xlink:href="#DejaVuSans-76" x="740.03125"/>
     <use xlink:href="#DejaVuSans-65" x="799.210938"/>
     <use xlink:href="#DejaVuSans-72" x="860.734375"/>
     <use xlink:href="#DejaVuSans-39" x="901.847656"/>
    </g>
   </g>
  </g>
 </g>
 <defs>
  <clipPath id="p9a2b5bb920">
   <rect x="180" y="69.12" width="1116" height="443.52"/>
  </clipPath>
 </defs>
</svg>
