<?xml version="1.0" encoding="utf-8" standalone="no"?>
<!DOCTYPE svg PUBLIC "-//W3C//DTD SVG 1.1//EN"
  "http://www.w3.org/Graphics/SVG/1.1/DTD/svg11.dtd">
<svg xmlns:xlink="http://www.w3.org/1999/xlink" width="1440pt" height="576pt" viewBox="0 0 1440 576" xmlns="http://www.w3.org/2000/svg" version="1.1">
 <metadata>
  <rdf:RDF xmlns:dc="http://purl.org/dc/elements/1.1/" xmlns:cc="http://creativecommons.org/ns#" xmlns:rdf="http://www.w3.org/1999/02/22-rdf-syntax-ns#">
   <cc:Work>
    <dc:type rdf:resource="http://purl.org/dc/dcmitype/StillImage"/>
    <dc:date>2024-05-22T04:50:10.261874</dc:date>
    <dc:format>image/svg+xml</dc:format>
    <dc:creator>
     <cc:Agent>
      <dc:title>Matplotlib v3.8.3, https://matplotlib.org/</dc:title>
     </cc:Agent>
    </dc:creator>
   </cc:Work>
  </rdf:RDF>
 </metadata>
 <defs>
  <style type="text/css">*{stroke-linejoin: round; stroke-linecap: butt}</style>
 </defs>
 <g id="figure_1">
  <g id="patch_1">
   <path d="M 0 576 
L 1440 576 
L 1440 0 
L 0 0 
z
" style="fill: #ffffff"/>
  </g>
  <g id="axes_1">
   <g id="patch_2">
    <path d="M 180 512.64 
L 1296 512.64 
L 1296 69.12 
L 180 69.12 
z
" style="fill: #ffffff"/>
   </g>
   <g id="matplotlib.axis_1">
    <g id="xtick_1">
     <g id="line2d_1">
      <defs>
       <path id="m10238f9f30" d="M 0 0 
L 0 3.5 
" style="stroke: #000000; stroke-width: 0.8"/>
      </defs>
      <g>
       <use xlink:href="#m10238f9f30" x="229.734567" y="512.64" style="stroke: #000000; stroke-width: 0.8"/>
      </g>
     </g>
     <g id="text_1">
      <!-- 0 -->
      <g transform="translate(226.553317 527.238438) scale(0.1 -0.1)">
       <defs>
        <path id="DejaVuSans-30" d="M 2034 4250 
Q 1547 4250 1301 3770 
Q 1056 3291 1056 2328 
Q 1056 1369 1301 889 
Q 1547 409 2034 409 
Q 2525 409 2770 889 
Q 3016 1369 3016 2328 
Q 3016 3291 2770 3770 
Q 2525 4250 2034 4250 
z
M 2034 4750 
Q 2819 4750 3233 4129 
Q 3647 3509 3647 2328 
Q 3647 1150 3233 529 
Q 2819 -91 2034 -91 
Q 1250 -91 836 529 
Q 422 1150 422 2328 
Q 422 3509 836 4129 
Q 1250 4750 2034 4750 
z
" transform="scale(0.015625)"/>
       </defs>
       <use xlink:href="#DejaVuSans-30"/>
      </g>
     </g>
    </g>
    <g id="xtick_2">
     <g id="line2d_2">
      <g>
       <use xlink:href="#m10238f9f30" x="433.04074" y="512.64" style="stroke: #000000; stroke-width: 0.8"/>
      </g>
     </g>
     <g id="text_2">
      <!-- 500 -->
      <g transform="translate(423.49699 527.238438) scale(0.1 -0.1)">
       <defs>
        <path id="DejaVuSans-35" d="M 691 4666 
L 3169 4666 
L 3169 4134 
L 1269 4134 
L 1269 2991 
Q 1406 3038 1543 3061 
Q 1681 3084 1819 3084 
Q 2600 3084 3056 2656 
Q 3513 2228 3513 1497 
Q 3513 744 3044 326 
Q 2575 -91 1722 -91 
Q 1428 -91 1123 -41 
Q 819 9 494 109 
L 494 744 
Q 775 591 1075 516 
Q 1375 441 1709 441 
Q 2250 441 2565 725 
Q 2881 1009 2881 1497 
Q 2881 1984 2565 2268 
Q 2250 2553 1709 2553 
Q 1456 2553 1204 2497 
Q 953 2441 691 2322 
L 691 4666 
z
" transform="scale(0.015625)"/>
       </defs>
       <use xlink:href="#DejaVuSans-35"/>
       <use xlink:href="#DejaVuSans-30" x="63.623047"/>
       <use xlink:href="#DejaVuSans-30" x="127.246094"/>
      </g>
     </g>
    </g>
    <g id="xtick_3">
     <g id="line2d_3">
      <g>
       <use xlink:href="#m10238f9f30" x="636.346913" y="512.64" style="stroke: #000000; stroke-width: 0.8"/>
      </g>
     </g>
     <g id="text_3">
      <!-- 1000 -->
      <g transform="translate(623.621913 527.238438) scale(0.1 -0.1)">
       <defs>
        <path id="DejaVuSans-31" d="M 794 531 
L 1825 531 
L 1825 4091 
L 703 3866 
L 703 4441 
L 1819 4666 
L 2450 4666 
L 2450 531 
L 3481 531 
L 3481 0 
L 794 0 
L 794 531 
z
" transform="scale(0.015625)"/>
       </defs>
       <use xlink:href="#DejaVuSans-31"/>
       <use xlink:href="#DejaVuSans-30" x="63.623047"/>
       <use xlink:href="#DejaVuSans-30" x="127.246094"/>
       <use xlink:href="#DejaVuSans-30" x="190.869141"/>
      </g>
     </g>
    </g>
    <g id="xtick_4">
     <g id="line2d_4">
      <g>
       <use xlink:href="#m10238f9f30" x="839.653087" y="512.64" style="stroke: #000000; stroke-width: 0.8"/>
      </g>
     </g>
     <g id="text_4">
      <!-- 1500 -->
      <g transform="translate(826.928087 527.238438) scale(0.1 -0.1)">
       <use xlink:href="#DejaVuSans-31"/>
       <use xlink:href="#DejaVuSans-35" x="63.623047"/>
       <use xlink:href="#DejaVuSans-30" x="127.246094"/>
       <use xlink:href="#DejaVuSans-30" x="190.869141"/>
      </g>
     </g>
    </g>
    <g id="xtick_5">
     <g id="line2d_5">
      <g>
       <use xlink:href="#m10238f9f30" x="1042.95926" y="512.64" style="stroke: #000000; stroke-width: 0.8"/>
      </g>
     </g>
     <g id="text_5">
      <!-- 2000 -->
      <g transform="translate(1030.23426 527.238438) scale(0.1 -0.1)">
       <defs>
        <path id="DejaVuSans-32" d="M 1228 531 
L 3431 531 
L 3431 0 
L 469 0 
L 469 531 
Q 828 903 1448 1529 
Q 2069 2156 2228 2338 
Q 2531 2678 2651 2914 
Q 2772 3150 2772 3378 
Q 2772 3750 2511 3984 
Q 2250 4219 1831 4219 
Q 1534 4219 1204 4116 
Q 875 4013 500 3803 
L 500 4441 
Q 881 4594 1212 4672 
Q 1544 4750 1819 4750 
Q 2544 4750 2975 4387 
Q 3406 4025 3406 3419 
Q 3406 3131 3298 2873 
Q 3191 2616 2906 2266 
Q 2828 2175 2409 1742 
Q 1991 1309 1228 531 
z
" transform="scale(0.015625)"/>
       </defs>
       <use xlink:href="#DejaVuSans-32"/>
       <use xlink:href="#DejaVuSans-30" x="63.623047"/>
       <use xlink:href="#DejaVuSans-30" x="127.246094"/>
       <use xlink:href="#DejaVuSans-30" x="190.869141"/>
      </g>
     </g>
    </g>
    <g id="xtick_6">
     <g id="line2d_6">
      <g>
       <use xlink:href="#m10238f9f30" x="1246.265433" y="512.64" style="stroke: #000000; stroke-width: 0.8"/>
      </g>
     </g>
     <g id="text_6">
      <!-- 2500 -->
      <g transform="translate(1233.540433 527.238438) scale(0.1 -0.1)">
       <use xlink:href="#DejaVuSans-32"/>
       <use xlink:href="#DejaVuSans-35" x="63.623047"/>
       <use xlink:href="#DejaVuSans-30" x="127.246094"/>
       <use xlink:href="#DejaVuSans-30" x="190.869141"/>
      </g>
     </g>
    </g>
   </g>
   <g id="matplotlib.axis_2">
    <g id="ytick_1">
     <g id="line2d_7">
      <defs>
       <path id="m51c7341196" d="M 0 0 
L -3.5 0 
" style="stroke: #000000; stroke-width: 0.8"/>
      </defs>
      <g>
       <use xlink:href="#m51c7341196" x="180" y="510.073676" style="stroke: #000000; stroke-width: 0.8"/>
      </g>
     </g>
     <g id="text_7">
      <!-- −6 -->
      <g transform="translate(158.257812 513.872894) scale(0.1 -0.1)">
       <defs>
        <path id="DejaVuSans-2212" d="M 678 2272 
L 4684 2272 
L 4684 1741 
L 678 1741 
L 678 2272 
z
" transform="scale(0.015625)"/>
        <path id="DejaVuSans-36" d="M 2113 2584 
Q 1688 2584 1439 2293 
Q 1191 2003 1191 1497 
Q 1191 994 1439 701 
Q 1688 409 2113 409 
Q 2538 409 2786 701 
Q 3034 994 3034 1497 
Q 3034 2003 2786 2293 
Q 2538 2584 2113 2584 
z
M 3366 4563 
L 3366 3988 
Q 3128 4100 2886 4159 
Q 2644 4219 2406 4219 
Q 1781 4219 1451 3797 
Q 1122 3375 1075 2522 
Q 1259 2794 1537 2939 
Q 1816 3084 2150 3084 
Q 2853 3084 3261 2657 
Q 3669 2231 3669 1497 
Q 3669 778 3244 343 
Q 2819 -91 2113 -91 
Q 1303 -91 875 529 
Q 447 1150 447 2328 
Q 447 3434 972 4092 
Q 1497 4750 2381 4750 
Q 2619 4750 2861 4703 
Q 3103 4656 3366 4563 
z
" transform="scale(0.015625)"/>
       </defs>
       <use xlink:href="#DejaVuSans-2212"/>
       <use xlink:href="#DejaVuSans-36" x="83.789062"/>
      </g>
     </g>
    </g>
    <g id="ytick_2">
     <g id="line2d_8">
      <g>
       <use xlink:href="#m51c7341196" x="180" y="427.368649" style="stroke: #000000; stroke-width: 0.8"/>
      </g>
     </g>
     <g id="text_8">
      <!-- −4 -->
      <g transform="translate(158.257812 431.167868) scale(0.1 -0.1)">
       <defs>
        <path id="DejaVuSans-34" d="M 2419 4116 
L 825 1625 
L 2419 1625 
L 2419 4116 
z
M 2253 4666 
L 3047 4666 
L 3047 1625 
L 3713 1625 
L 3713 1100 
L 3047 1100 
L 3047 0 
L 2419 0 
L 2419 1100 
L 313 1100 
L 313 1709 
L 2253 4666 
z
" transform="scale(0.015625)"/>
       </defs>
       <use xlink:href="#DejaVuSans-2212"/>
       <use xlink:href="#DejaVuSans-34" x="83.789062"/>
      </g>
     </g>
    </g>
    <g id="ytick_3">
     <g id="line2d_9">
      <g>
       <use xlink:href="#m51c7341196" x="180" y="344.663622" style="stroke: #000000; stroke-width: 0.8"/>
      </g>
     </g>
     <g id="text_9">
      <!-- −2 -->
      <g transform="translate(158.257812 348.462841) scale(0.1 -0.1)">
       <use xlink:href="#DejaVuSans-2212"/>
       <use xlink:href="#DejaVuSans-32" x="83.789062"/>
      </g>
     </g>
    </g>
    <g id="ytick_4">
     <g id="line2d_10">
      <g>
       <use xlink:href="#m51c7341196" x="180" y="261.958595" style="stroke: #000000; stroke-width: 0.8"/>
      </g>
     </g>
     <g id="text_10">
      <!-- 0 -->
      <g transform="translate(166.6375 265.757814) scale(0.1 -0.1)">
       <use xlink:href="#DejaVuSans-30"/>
      </g>
     </g>
    </g>
    <g id="ytick_5">
     <g id="line2d_11">
      <g>
       <use xlink:href="#m51c7341196" x="180" y="179.253568" style="stroke: #000000; stroke-width: 0.8"/>
      </g>
     </g>
     <g id="text_11">
      <!-- 2 -->
      <g transform="translate(166.6375 183.052787) scale(0.1 -0.1)">
       <use xlink:href="#DejaVuSans-32"/>
      </g>
     </g>
    </g>
    <g id="ytick_6">
     <g id="line2d_12">
      <g>
       <use xlink:href="#m51c7341196" x="180" y="96.548541" style="stroke: #000000; stroke-width: 0.8"/>
      </g>
     </g>
     <g id="text_12">
      <!-- 4 -->
      <g transform="translate(166.6375 100.34776) scale(0.1 -0.1)">
       <use xlink:href="#DejaVuSans-34"/>
      </g>
     </g>
    </g>
   </g>
   <g id="line2d_13">
    <path d="M 230.727273 197.953816 
L 231.719979 197.73966 
L 232.712685 197.264804 
L 236.683508 194.099838 
L 239.661626 191.733626 
L 241.647038 190.229626 
L 242.639744 189.596194 
L 243.63245 189.271679 
L 244.625156 189.536041 
L 246.610568 191.483205 
L 247.603273 188.19617 
L 248.595979 176.577136 
L 249.588685 161.471086 
L 250.581391 149.110421 
L 251.574097 141.062437 
L 252.566803 136.412983 
L 253.559509 133.88666 
L 254.552215 132.547438 
L 255.544921 131.841902 
L 256.537627 131.479763 
L 260.50845 130.67921 
L 261.501156 130.279291 
L 262.493862 129.724902 
L 263.486568 129.030374 
L 265.47198 127.222971 
L 270.43551 122.119375 
L 271.428216 121.366215 
L 272.420922 120.801672 
L 273.413627 120.470549 
L 274.406333 120.441541 
L 275.399039 120.771786 
L 276.391745 121.548247 
L 277.384451 122.981001 
L 279.369863 127.608863 
L 280.362569 127.303062 
L 281.355275 124.240316 
L 282.347981 120.007623 
L 284.333393 109.759747 
L 286.318804 99.408677 
L 287.31151 95.212051 
L 288.304216 92.071645 
L 289.296922 90.105243 
L 290.289628 89.28 
L 291.282334 89.445023 
L 292.27504 90.406809 
L 293.267746 91.993705 
L 294.260452 94.080137 
L 295.253158 96.561054 
L 297.23857 102.381196 
L 299.223981 109.048291 
L 302.202099 120.222755 
L 306.172923 135.421649 
L 307.165629 138.700639 
L 308.158335 141.590224 
L 309.151041 144.045092 
L 310.143747 146.06986 
L 311.136453 147.723454 
L 313.121864 150.400442 
L 315.107276 153.140116 
L 316.099982 154.82114 
L 317.092688 156.803161 
L 318.085394 159.186093 
L 319.0781 162.010748 
L 320.070806 165.253182 
L 321.063512 168.928091 
L 324.04163 181.518254 
L 325.034336 184.717191 
L 326.027041 186.327792 
L 327.019747 185.768887 
L 328.012453 183.19003 
L 329.005159 179.421564 
L 331.983277 167.212191 
L 332.975983 163.819885 
L 333.968689 160.962211 
L 334.961395 158.579511 
L 335.954101 156.659307 
L 336.946807 155.151615 
L 337.939513 154.081237 
L 338.932218 153.399589 
L 339.924924 153.100239 
L 340.91763 153.116936 
L 341.910336 153.458287 
L 342.903042 154.113737 
L 343.895748 154.956909 
L 344.888454 155.996766 
L 348.859278 160.766165 
L 350.84469 162.642953 
L 351.837395 162.783767 
L 353.822807 162.485024 
L 355.808219 161.202568 
L 358.786337 159.022301 
L 359.779043 158.541864 
L 360.771749 158.301722 
L 361.764455 158.293052 
L 362.757161 158.566713 
L 363.749867 159.168474 
L 364.742572 160.12532 
L 365.735278 161.432393 
L 366.727984 163.155742 
L 367.72069 165.33574 
L 368.713396 167.96642 
L 369.706102 171.12255 
L 370.698808 174.867962 
L 371.691514 179.284223 
L 372.68422 184.447538 
L 373.676926 190.414479 
L 374.669632 197.210107 
L 376.655044 212.478683 
L 377.64775 218.624462 
L 378.640455 220.760716 
L 379.633161 217.792106 
L 381.618573 205.361191 
L 382.611279 199.331941 
L 383.603985 194.048556 
L 384.596691 189.658812 
L 385.589397 186.032848 
L 386.582103 183.05865 
L 387.574809 180.654805 
L 388.567515 178.790566 
L 389.560221 177.352393 
L 390.552927 176.320293 
L 391.545632 175.635743 
L 392.538338 175.256434 
L 393.531044 175.092491 
L 394.52375 175.152652 
L 396.509162 175.704766 
L 403.458104 178.817761 
L 408.421633 180.634652 
L 410.407045 181.835864 
L 412.392457 183.589611 
L 413.385163 184.727975 
L 415.370575 187.637231 
L 416.363281 189.42533 
L 417.355986 191.446601 
L 419.341398 196.15816 
L 421.32681 201.835183 
L 423.312222 208.29337 
L 428.275752 225.579266 
L 429.268458 228.385187 
L 430.261163 230.678585 
L 431.253869 232.224506 
L 432.246575 233.147234 
L 433.239281 233.204034 
L 434.231987 232.486468 
L 435.224693 231.059386 
L 436.217399 229.15733 
L 437.210105 226.853506 
L 439.195517 221.551 
L 442.173635 213.057988 
L 444.159046 207.868258 
L 446.144458 203.394592 
L 448.12987 199.652967 
L 449.122576 198.160801 
L 450.115282 196.888763 
L 451.107988 195.826318 
L 452.100694 195.047151 
L 453.0934 194.46339 
L 454.086106 194.118868 
L 455.078812 193.991514 
L 456.071518 194.125135 
L 457.064223 194.493015 
L 458.056929 195.087383 
L 459.049635 195.929678 
L 460.042341 196.97487 
L 461.035047 198.248458 
L 462.027753 199.754635 
L 464.013165 203.427473 
L 465.998577 208.195086 
L 466.991283 210.904509 
L 468.976695 217.307615 
L 470.962106 225.140597 
L 471.954812 229.649187 
L 473.940224 241.127533 
L 474.93293 248.001956 
L 475.925636 256.54119 
L 477.911048 277.922429 
L 478.903754 288.973659 
L 479.89646 290.599662 
L 480.889166 281.448047 
L 482.874577 258.892971 
L 483.867283 249.977237 
L 484.859989 242.508954 
L 485.852695 236.34631 
L 486.845401 231.151526 
L 487.838107 226.592056 
L 488.830813 222.860101 
L 489.823519 219.586632 
L 490.816225 216.845813 
L 491.808931 214.61481 
L 492.801637 212.75521 
L 493.794343 211.399471 
L 494.787049 210.33363 
L 495.779754 209.673324 
L 496.77246 209.367472 
L 497.765166 209.442562 
L 498.757872 209.805934 
L 499.750578 210.565446 
L 500.743284 211.713016 
L 501.73599 213.18176 
L 502.728696 215.053536 
L 503.721402 217.288777 
L 504.714108 220.029955 
L 506.69952 226.651287 
L 508.684932 235.067195 
L 512.655755 253.709423 
L 513.648461 256.575219 
L 514.641167 257.710769 
L 515.633873 256.81875 
L 516.626579 254.684949 
L 519.604697 246.134083 
L 520.597403 243.568316 
L 521.590109 241.39904 
L 522.582814 239.52598 
L 523.57552 238.103249 
L 524.568226 237.016264 
L 525.560932 236.175043 
L 526.553638 235.52336 
L 527.546344 235.150574 
L 529.531756 234.674349 
L 531.517168 234.555948 
L 534.495286 234.652963 
L 536.480697 234.994174 
L 537.473403 235.439495 
L 538.466109 236.133818 
L 539.458815 237.076989 
L 540.451521 238.309607 
L 541.444227 239.975868 
L 542.436933 242.053613 
L 543.429639 244.734307 
L 544.422345 248.205121 
L 545.415051 252.600726 
L 546.407757 258.014799 
L 547.400463 264.728725 
L 548.393168 273.276823 
L 550.37858 296.236679 
L 551.371286 302.223306 
L 552.363992 293.183493 
L 554.349404 267.75921 
L 555.34211 257.837929 
L 556.334816 249.717158 
L 557.327522 242.84209 
L 558.320228 237.222484 
L 559.312934 232.445605 
L 560.30564 228.429969 
L 561.298345 225.129672 
L 562.291051 222.231717 
L 563.283757 219.934387 
L 564.276463 218.02947 
L 565.269169 216.569506 
L 566.261875 215.571677 
L 567.254581 214.879406 
L 568.247287 214.488749 
L 569.239993 214.504154 
L 570.232699 214.891485 
L 571.225405 215.638702 
L 572.218111 216.643756 
L 573.210817 217.963095 
L 574.203523 219.662367 
L 576.188934 224.114529 
L 577.18164 226.92221 
L 579.167052 233.714351 
L 581.152464 242.271988 
L 582.14517 247.312478 
L 584.130582 259.189936 
L 585.123288 266.227191 
L 587.1087 282.671787 
L 589.094111 304.643401 
L 591.079523 331.111285 
L 592.072229 339.155976 
L 593.064935 336.87826 
L 594.057641 328.359742 
L 595.050347 317.728493 
L 597.035759 301.788821 
L 599.021171 287.960896 
L 600.013877 281.77438 
L 602.991994 266.708375 
L 604.977406 258.581003 
L 605.970112 255.049027 
L 607.955524 249.374259 
L 609.940936 245.17584 
L 611.926348 242.423407 
L 612.919054 241.577848 
L 613.911759 241.047917 
L 614.904465 240.886831 
L 615.897171 241.054886 
L 616.889877 241.489758 
L 617.882583 242.322936 
L 618.875289 243.458616 
L 619.867995 245.00552 
L 620.860701 246.839959 
L 621.853407 249.124647 
L 622.846113 251.775383 
L 623.838819 254.813043 
L 624.831525 258.312351 
L 625.824231 262.312144 
L 627.809642 271.933131 
L 629.795054 284.312033 
L 630.78776 291.803579 
L 631.780466 300.373727 
L 633.765878 321.072555 
L 634.758584 332.982967 
L 635.75129 342.837987 
L 636.743996 347.901719 
L 637.736702 343.364136 
L 638.729408 338.196784 
L 639.722114 331.937172 
L 641.707525 324.362534 
L 642.700231 321.618343 
L 643.692937 320.176226 
L 644.685643 317.785736 
L 645.678349 316.620553 
L 647.663761 312.140431 
L 648.656467 310.263582 
L 649.649173 307.20876 
L 653.619996 296.423361 
L 654.612702 294.199178 
L 656.598114 290.665645 
L 657.59082 289.605423 
L 659.576232 288.178158 
L 661.561644 288.351863 
L 662.55435 289.137614 
L 663.547056 290.132695 
L 664.539762 291.328174 
L 665.532468 292.886148 
L 667.517879 296.945392 
L 669.503291 301.140294 
L 670.495997 302.767169 
L 671.488703 303.986892 
L 672.481409 304.527333 
L 674.466821 303.872314 
L 675.459527 302.689303 
L 679.43035 296.013519 
L 680.423056 294.705241 
L 681.415762 293.639163 
L 682.408468 292.808404 
L 683.401174 292.391467 
L 684.39388 292.308383 
L 686.379292 293.221975 
L 687.371998 294.457864 
L 688.364704 296.093718 
L 689.35741 297.984081 
L 690.350116 300.351132 
L 691.342822 303.298954 
L 692.335527 306.636392 
L 693.328233 310.741181 
L 694.320939 315.34394 
L 696.306351 327.269103 
L 699.284469 347.877106 
L 700.277175 351.426423 
L 701.269881 350.592211 
L 702.262587 345.62348 
L 704.247999 333.461855 
L 705.240705 327.486236 
L 707.226116 318.748121 
L 708.218822 315.630525 
L 709.211528 313.079192 
L 710.204234 311.037078 
L 711.19694 309.548408 
L 712.189646 308.696469 
L 713.182352 308.308358 
L 714.175058 308.49508 
L 715.167764 309.080534 
L 716.16047 310.237216 
L 717.153176 312.216424 
L 718.145882 314.622674 
L 719.138587 317.704665 
L 720.131293 321.895523 
L 721.123999 327.177951 
L 722.116705 333.16074 
L 723.109411 340.866888 
L 725.094823 358.979951 
L 726.087529 364.116589 
L 727.080235 360.57037 
L 730.058353 331.311511 
L 731.051059 323.399966 
L 732.043764 317.143053 
L 733.03647 311.809414 
L 734.029176 307.449766 
L 735.021882 303.866222 
L 736.014588 300.890793 
L 737.007294 298.534481 
L 738 296.868492 
L 738.992706 295.603337 
L 739.985412 294.773825 
L 740.978118 294.512305 
L 741.970824 294.535317 
L 743.956236 296.396684 
L 744.948941 298.187575 
L 745.941647 300.621142 
L 746.934353 303.371583 
L 747.927059 306.972917 
L 748.919765 311.206116 
L 749.912471 316.089371 
L 751.897883 327.851242 
L 752.890589 334.039732 
L 753.883295 338.089622 
L 754.876001 338.910878 
L 755.868707 335.716541 
L 757.854118 324.472545 
L 758.846824 318.558454 
L 759.83953 313.326633 
L 760.832236 308.997988 
L 761.824942 305.309174 
L 762.817648 302.375923 
L 763.810354 300.183818 
L 764.80306 298.561448 
L 765.795766 297.204672 
L 766.788472 296.520561 
L 767.781178 296.321394 
L 768.773884 296.578946 
L 769.76659 297.365536 
L 770.759295 298.628209 
L 771.752001 300.195499 
L 772.744707 302.303047 
L 773.737413 304.838789 
L 775.722825 311.095037 
L 777.708237 317.419757 
L 778.700943 320.085776 
L 779.693649 322.059973 
L 780.686355 322.482822 
L 781.679061 321.946168 
L 782.671767 320.008155 
L 786.64259 310.718606 
L 788.628002 307.355152 
L 790.613414 306.262227 
L 791.60612 306.338703 
L 792.598826 306.965232 
L 793.591532 308.284831 
L 794.584238 310.257648 
L 795.576944 312.65562 
L 796.56965 315.859034 
L 797.562355 319.862902 
L 799.547767 329.450646 
L 800.540473 335.14486 
L 801.533179 339.843043 
L 802.525885 341.919006 
L 803.518591 340.562819 
L 804.511297 336.107891 
L 807.489415 318.459441 
L 808.482121 313.378579 
L 809.474827 309.087279 
L 810.467532 305.466638 
L 811.460238 302.392211 
L 812.452944 299.961035 
L 813.44565 298.016819 
L 814.438356 296.700575 
L 815.431062 295.789568 
L 816.423768 295.229379 
L 817.416474 295.357844 
L 818.40918 295.846429 
L 819.401886 296.812415 
L 820.394592 298.441285 
L 821.387298 300.437851 
L 822.380004 303.026934 
L 823.372709 306.288465 
L 824.365415 310.060307 
L 825.358121 314.771328 
L 826.350827 320.215722 
L 828.336239 333.614308 
L 829.328945 340.906625 
L 830.321651 346.769622 
L 831.314357 348.486072 
L 832.307063 345.405581 
L 836.277886 320.275281 
L 837.270592 315.608655 
L 838.263298 311.628179 
L 839.256004 308.288904 
L 840.24871 305.889243 
L 841.241416 303.903039 
L 842.234122 302.494834 
L 843.226828 301.511709 
L 844.219534 301.056538 
L 845.21224 300.862712 
L 846.204946 301.179809 
L 847.197652 301.769777 
L 848.190358 303.064964 
L 849.183064 304.628197 
L 850.175769 306.477835 
L 851.168475 308.651257 
L 853.153887 314.419792 
L 855.139299 321.521521 
L 858.117417 333.138752 
L 859.110123 336.081305 
L 860.102829 338.128451 
L 861.095535 338.898552 
L 862.088241 338.623572 
L 864.073652 335.629276 
L 866.059064 331.232427 
L 868.044476 327.671913 
L 870.029888 325.098553 
L 871.022594 323.885757 
L 873.008006 322.29291 
L 874.000712 321.4357 
L 874.993418 320.804135 
L 875.986123 320.327836 
L 878.964241 317.77991 
L 879.956947 316.939665 
L 880.949653 316.305681 
L 882.935065 314.507565 
L 883.927771 313.786132 
L 885.913183 312.964195 
L 886.905889 312.749945 
L 887.898595 312.824323 
L 889.884006 314.233473 
L 891.869418 317.218542 
L 892.862124 319.323176 
L 893.85483 322.204077 
L 894.847536 325.695838 
L 895.840242 329.779908 
L 896.832948 334.952643 
L 897.825654 341.231956 
L 900.803772 362.479114 
L 901.796477 365.232 
L 902.789183 360.204295 
L 903.781889 352.616573 
L 905.767301 336.01284 
L 906.760007 329.333041 
L 907.752713 323.773247 
L 908.745419 318.876195 
L 909.738125 314.77782 
L 910.730831 311.409057 
L 911.723537 308.624532 
L 913.708949 304.623466 
L 914.701655 303.5363 
L 915.69436 302.746697 
L 916.687066 302.467746 
L 917.679772 302.699633 
L 918.672478 303.201804 
L 919.665184 304.330689 
L 920.65789 305.911123 
L 921.650596 308.154807 
L 922.643302 311.130328 
L 923.636008 314.681791 
L 924.628714 318.910927 
L 925.62142 324.076795 
L 926.614126 330.779597 
L 927.606832 339.50284 
L 928.599537 350.088736 
L 929.592243 365.171175 
L 930.584949 386.378733 
L 931.577655 404.51067 
L 933.563067 364.303566 
L 934.555773 349.502524 
L 935.548479 339.473731 
L 936.541185 331.526467 
L 937.533891 325.442493 
L 938.526597 320.412771 
L 939.519303 316.57437 
L 940.512009 313.59716 
L 941.504714 311.025202 
L 942.49742 309.355685 
L 943.490126 308.207836 
L 944.482832 307.601889 
L 945.475538 307.486444 
L 946.468244 307.796982 
L 947.46095 308.743774 
L 948.453656 309.985352 
L 949.446362 311.875844 
L 950.439068 314.341906 
L 951.431774 317.462396 
L 952.42448 321.117679 
L 953.417186 325.410583 
L 954.409891 331.116501 
L 955.402597 337.515177 
L 956.395303 344.769961 
L 958.380715 362.254166 
L 959.373421 369.431121 
L 960.366127 370.975775 
L 961.358833 365.582341 
L 963.344245 349.946207 
L 964.336951 343.249841 
L 965.329657 337.623771 
L 966.322363 332.978785 
L 968.307774 326.912261 
L 969.30048 324.891039 
L 970.293186 323.626504 
L 971.285892 322.551302 
L 972.278598 322.440246 
L 973.271304 322.611032 
L 974.26401 323.341317 
L 975.256716 324.305453 
L 976.249422 325.766943 
L 977.242128 327.688893 
L 979.22754 332.626181 
L 982.205657 340.407262 
L 983.198363 342.161473 
L 984.191069 342.981479 
L 985.183775 343.180372 
L 986.176481 341.822502 
L 987.169187 340.878017 
L 988.161893 338.429188 
L 990.147305 334.452621 
L 992.132717 331.181636 
L 993.125423 330.112865 
L 994.118128 329.472888 
L 995.110834 329.514724 
L 996.10354 329.69584 
L 997.096246 330.558343 
L 998.088952 331.799193 
L 999.081658 333.731185 
L 1000.074364 336.301481 
L 1001.06707 339.271399 
L 1003.052482 347.458638 
L 1006.0306 362.408122 
L 1007.023305 365.273971 
L 1008.016011 365.231911 
L 1009.008717 362.007976 
L 1010.001423 357.170005 
L 1010.994129 351.244759 
L 1012.979541 340.591072 
L 1013.972247 336.456411 
L 1015.957659 329.759721 
L 1016.950365 327.333042 
L 1017.943071 325.532694 
L 1018.935777 324.162146 
L 1019.928482 323.244302 
L 1020.921188 322.8118 
L 1021.913894 322.958568 
L 1022.9066 323.474801 
L 1023.899306 324.412773 
L 1024.892012 326.089775 
L 1025.884718 328.180454 
L 1027.87013 334.410937 
L 1028.862836 338.47702 
L 1029.855542 343.845003 
L 1030.848248 350.086228 
L 1031.840954 357.716631 
L 1032.833659 366.768322 
L 1033.826365 378.652036 
L 1034.819071 388.939349 
L 1035.811777 392.254491 
L 1036.804483 387.038371 
L 1037.797189 375.385471 
L 1038.789895 365.099497 
L 1040.775307 350.243859 
L 1042.760719 341.024225 
L 1043.753425 337.213595 
L 1045.738837 332.627978 
L 1046.731542 331.085728 
L 1047.724248 330.205791 
L 1048.716954 329.672723 
L 1049.70966 329.766684 
L 1050.702366 330.04048 
L 1051.695072 331.132894 
L 1052.687778 332.531486 
L 1053.680484 334.264548 
L 1054.67319 336.371652 
L 1055.665896 339.003346 
L 1057.651308 345.3248 
L 1060.629425 357.778006 
L 1062.614837 363.848512 
L 1063.607543 365.964656 
L 1064.600249 366.997268 
L 1065.592955 367.007872 
L 1066.585661 365.623861 
L 1068.571073 361.536011 
L 1069.563779 360.54053 
L 1070.556485 358.928315 
L 1071.549191 357.071052 
L 1073.534602 356.083016 
L 1074.527308 355.889397 
L 1075.520014 355.964861 
L 1076.51272 356.241837 
L 1077.505426 356.378091 
L 1078.498132 356.909957 
L 1079.490838 356.954995 
L 1081.47625 355.97192 
L 1082.468956 354.444008 
L 1083.461662 353.410946 
L 1084.454368 352.115682 
L 1085.447073 349.837589 
L 1087.432485 346.030804 
L 1088.425191 343.656608 
L 1091.403309 340.478407 
L 1092.396015 340.002309 
L 1093.388721 339.916077 
L 1094.381427 340.290335 
L 1096.366839 342.290282 
L 1098.35225 346.693414 
L 1099.344956 350.481956 
L 1100.337662 354.847091 
L 1101.330368 359.950255 
L 1102.323074 368.002117 
L 1103.31578 377.329191 
L 1104.308486 390.76932 
L 1105.301192 412.336623 
L 1106.293898 465.188951 
L 1107.286604 443.882874 
L 1108.27931 404.441773 
L 1109.272016 385.600567 
L 1110.264722 371.325285 
L 1111.257428 362.046769 
L 1112.250133 354.510736 
L 1113.242839 348.601812 
L 1114.235545 343.528529 
L 1115.228251 339.658326 
L 1117.213663 333.76331 
L 1119.199075 330.411679 
L 1120.191781 329.764526 
L 1122.177193 329.328152 
L 1123.169899 329.992576 
L 1125.15531 332.644625 
L 1127.140722 337.378407 
L 1128.133428 340.910188 
L 1129.126134 345.100818 
L 1130.11884 349.780521 
L 1131.111546 355.422983 
L 1133.096958 369.567149 
L 1134.089664 377.679563 
L 1135.08237 383.325274 
L 1136.075076 383.043062 
L 1138.060487 370.52144 
L 1140.045899 355.607426 
L 1142.031311 346.058699 
L 1143.024017 342.048949 
L 1144.016723 339.025294 
L 1145.009429 336.519602 
L 1146.002135 334.782259 
L 1146.994841 333.499143 
L 1147.987547 332.718772 
L 1148.980253 332.362442 
L 1149.972959 332.777477 
L 1150.965664 333.334071 
L 1151.95837 334.219433 
L 1153.943782 338.137906 
L 1154.936488 340.862095 
L 1155.929194 344.128486 
L 1156.9219 348.22491 
L 1157.914606 353.090327 
L 1158.907312 358.685343 
L 1160.892724 372.447171 
L 1162.878136 389.058158 
L 1163.870841 393.854094 
L 1164.863547 393.083531 
L 1165.856253 387.972993 
L 1167.841665 373.526501 
L 1169.827077 363.006357 
L 1170.819783 358.666407 
L 1171.812489 355.98565 
L 1172.805195 354.05846 
L 1173.797901 351.87509 
L 1174.790607 351.14488 
L 1175.783313 350.895455 
L 1176.776019 351.230976 
L 1177.768724 351.90491 
L 1178.76143 353.052686 
L 1179.754136 354.96103 
L 1180.746842 357.513427 
L 1182.732254 364.691878 
L 1183.72496 369.146821 
L 1184.717666 375.641031 
L 1185.710372 383.049421 
L 1186.703078 391.617462 
L 1187.695784 404.065912 
L 1188.68849 420.712086 
L 1189.681196 449.671474 
L 1190.673901 492.48 
L 1191.666607 454.959904 
L 1192.659313 429.598387 
L 1193.652019 412.515375 
L 1194.644725 402.933574 
L 1195.637431 396.470751 
L 1196.630137 391.258524 
L 1197.622843 387.928058 
L 1198.615549 386.306582 
L 1199.608255 384.278273 
L 1200.600961 384.428514 
L 1202.586373 386.60582 
L 1203.579078 391.225425 
L 1204.571784 395.149354 
L 1205.56449 400.130348 
L 1206.557196 407.830407 
L 1207.549902 416.970928 
L 1210.52802 467.254182 
L 1212.513432 427.036607 
L 1213.506138 413.767298 
L 1214.498844 402.17566 
L 1215.49155 395.597649 
L 1217.476961 385.378862 
L 1219.462373 379.34723 
L 1221.447785 376.12051 
L 1222.440491 375.689954 
L 1223.433197 376.166137 
L 1224.425903 376.369883 
L 1225.418609 378.052502 
L 1226.411315 380.472761 
L 1227.404021 382.295623 
L 1229.389432 390.793064 
L 1232.36755 401.403228 
L 1233.360256 402.452272 
L 1234.352962 401.959639 
L 1236.338374 395.358758 
L 1237.33108 390.213536 
L 1238.323786 386.132151 
L 1239.316492 381.408399 
L 1240.309198 377.506651 
L 1241.301904 374.346132 
L 1242.29461 373.035357 
L 1243.287315 370.747356 
L 1244.280021 369.433111 
L 1245.272727 368.54223 
L 1245.272727 368.54223 
" clip-path="url(#pb68e6e86f6)" style="fill: none; stroke: #1f77b4; stroke-width: 1.5; stroke-linecap: square"/>
   </g>
   <g id="patch_3">
    <path d="M 180 512.64 
L 180 69.12 
" style="fill: none; stroke: #000000; stroke-width: 0.8; stroke-linejoin: miter; stroke-linecap: square"/>
   </g>
   <g id="patch_4">
    <path d="M 1296 512.64 
L 1296 69.12 
" style="fill: none; stroke: #000000; stroke-width: 0.8; stroke-linejoin: miter; stroke-linecap: square"/>
   </g>
   <g id="patch_5">
    <path d="M 180 512.64 
L 1296 512.64 
" style="fill: none; stroke: #000000; stroke-width: 0.8; stroke-linejoin: miter; stroke-linecap: square"/>
   </g>
   <g id="patch_6">
    <path d="M 180 69.12 
L 1296 69.12 
" style="fill: none; stroke: #000000; stroke-width: 0.8; stroke-linejoin: miter; stroke-linecap: square"/>
   </g>
   <g id="text_13">
    <!-- source16-receiver16 -->
    <g transform="translate(532.175 60.80125) scale(0.4 -0.4)">
     <defs>
      <path id="DejaVuSans-73" d="M 2834 3397 
L 2834 2853 
Q 2591 2978 2328 3040 
Q 2066 3103 1784 3103 
Q 1356 3103 1142 2972 
Q 928 2841 928 2578 
Q 928 2378 1081 2264 
Q 1234 2150 1697 2047 
L 1894 2003 
Q 2506 1872 2764 1633 
Q 3022 1394 3022 966 
Q 3022 478 2636 193 
Q 2250 -91 1575 -91 
Q 1294 -91 989 -36 
Q 684 19 347 128 
L 347 722 
Q 666 556 975 473 
Q 1284 391 1588 391 
Q 1994 391 2212 530 
Q 2431 669 2431 922 
Q 2431 1156 2273 1281 
Q 2116 1406 1581 1522 
L 1381 1569 
Q 847 1681 609 1914 
Q 372 2147 372 2553 
Q 372 3047 722 3315 
Q 1072 3584 1716 3584 
Q 2034 3584 2315 3537 
Q 2597 3491 2834 3397 
z
" transform="scale(0.015625)"/>
      <path id="DejaVuSans-6f" d="M 1959 3097 
Q 1497 3097 1228 2736 
Q 959 2375 959 1747 
Q 959 1119 1226 758 
Q 1494 397 1959 397 
Q 2419 397 2687 759 
Q 2956 1122 2956 1747 
Q 2956 2369 2687 2733 
Q 2419 3097 1959 3097 
z
M 1959 3584 
Q 2709 3584 3137 3096 
Q 3566 2609 3566 1747 
Q 3566 888 3137 398 
Q 2709 -91 1959 -91 
Q 1206 -91 779 398 
Q 353 888 353 1747 
Q 353 2609 779 3096 
Q 1206 3584 1959 3584 
z
" transform="scale(0.015625)"/>
      <path id="DejaVuSans-75" d="M 544 1381 
L 544 3500 
L 1119 3500 
L 1119 1403 
Q 1119 906 1312 657 
Q 1506 409 1894 409 
Q 2359 409 2629 706 
Q 2900 1003 2900 1516 
L 2900 3500 
L 3475 3500 
L 3475 0 
L 2900 0 
L 2900 538 
Q 2691 219 2414 64 
Q 2138 -91 1772 -91 
Q 1169 -91 856 284 
Q 544 659 544 1381 
z
M 1991 3584 
L 1991 3584 
z
" transform="scale(0.015625)"/>
      <path id="DejaVuSans-72" d="M 2631 2963 
Q 2534 3019 2420 3045 
Q 2306 3072 2169 3072 
Q 1681 3072 1420 2755 
Q 1159 2438 1159 1844 
L 1159 0 
L 581 0 
L 581 3500 
L 1159 3500 
L 1159 2956 
Q 1341 3275 1631 3429 
Q 1922 3584 2338 3584 
Q 2397 3584 2469 3576 
Q 2541 3569 2628 3553 
L 2631 2963 
z
" transform="scale(0.015625)"/>
      <path id="DejaVuSans-63" d="M 3122 3366 
L 3122 2828 
Q 2878 2963 2633 3030 
Q 2388 3097 2138 3097 
Q 1578 3097 1268 2742 
Q 959 2388 959 1747 
Q 959 1106 1268 751 
Q 1578 397 2138 397 
Q 2388 397 2633 464 
Q 2878 531 3122 666 
L 3122 134 
Q 2881 22 2623 -34 
Q 2366 -91 2075 -91 
Q 1284 -91 818 406 
Q 353 903 353 1747 
Q 353 2603 823 3093 
Q 1294 3584 2113 3584 
Q 2378 3584 2631 3529 
Q 2884 3475 3122 3366 
z
" transform="scale(0.015625)"/>
      <path id="DejaVuSans-65" d="M 3597 1894 
L 3597 1613 
L 953 1613 
Q 991 1019 1311 708 
Q 1631 397 2203 397 
Q 2534 397 2845 478 
Q 3156 559 3463 722 
L 3463 178 
Q 3153 47 2828 -22 
Q 2503 -91 2169 -91 
Q 1331 -91 842 396 
Q 353 884 353 1716 
Q 353 2575 817 3079 
Q 1281 3584 2069 3584 
Q 2775 3584 3186 3129 
Q 3597 2675 3597 1894 
z
M 3022 2063 
Q 3016 2534 2758 2815 
Q 2500 3097 2075 3097 
Q 1594 3097 1305 2825 
Q 1016 2553 972 2059 
L 3022 2063 
z
" transform="scale(0.015625)"/>
      <path id="DejaVuSans-2d" d="M 313 2009 
L 1997 2009 
L 1997 1497 
L 313 1497 
L 313 2009 
z
" transform="scale(0.015625)"/>
      <path id="DejaVuSans-69" d="M 603 3500 
L 1178 3500 
L 1178 0 
L 603 0 
L 603 3500 
z
M 603 4863 
L 1178 4863 
L 1178 4134 
L 603 4134 
L 603 4863 
z
" transform="scale(0.015625)"/>
      <path id="DejaVuSans-76" d="M 191 3500 
L 800 3500 
L 1894 563 
L 2988 3500 
L 3597 3500 
L 2284 0 
L 1503 0 
L 191 3500 
z
" transform="scale(0.015625)"/>
     </defs>
     <use xlink:href="#DejaVuSans-73"/>
     <use xlink:href="#DejaVuSans-6f" x="52.099609"/>
     <use xlink:href="#DejaVuSans-75" x="113.28125"/>
     <use xlink:href="#DejaVuSans-72" x="176.660156"/>
     <use xlink:href="#DejaVuSans-63" x="215.523438"/>
     <use xlink:href="#DejaVuSans-65" x="270.503906"/>
     <use xlink:href="#DejaVuSans-31" x="332.027344"/>
     <use xlink:href="#DejaVuSans-36" x="395.650391"/>
     <use xlink:href="#DejaVuSans-2d" x="459.273438"/>
     <use xlink:href="#DejaVuSans-72" x="495.357422"/>
     <use xlink:href="#DejaVuSans-65" x="534.220703"/>
     <use xlink:href="#DejaVuSans-63" x="595.744141"/>
     <use xlink:href="#DejaVuSans-65" x="650.724609"/>
     <use xlink:href="#DejaVuSans-69" x="712.248047"/>
     <use xlink:href="#DejaVuSans-76" x="740.03125"/>
     <use xlink:href="#DejaVuSans-65" x="799.210938"/>
     <use xlink:href="#DejaVuSans-72" x="860.734375"/>
     <use xlink:href="#DejaVuSans-31" x="901.847656"/>
     <use xlink:href="#DejaVuSans-36" x="965.470703"/>
    </g>
   </g>
  </g>
 </g>
 <defs>
  <clipPath id="pb68e6e86f6">
   <rect x="180" y="69.12" width="1116" height="443.52"/>
  </clipPath>
 </defs>
</svg>
