<?xml version="1.0" encoding="utf-8" standalone="no"?>
<!DOCTYPE svg PUBLIC "-//W3C//DTD SVG 1.1//EN"
  "http://www.w3.org/Graphics/SVG/1.1/DTD/svg11.dtd">
<svg xmlns:xlink="http://www.w3.org/1999/xlink" width="1440pt" height="576pt" viewBox="0 0 1440 576" xmlns="http://www.w3.org/2000/svg" version="1.1">
 <metadata>
  <rdf:RDF xmlns:dc="http://purl.org/dc/elements/1.1/" xmlns:cc="http://creativecommons.org/ns#" xmlns:rdf="http://www.w3.org/1999/02/22-rdf-syntax-ns#">
   <cc:Work>
    <dc:type rdf:resource="http://purl.org/dc/dcmitype/StillImage"/>
    <dc:date>2024-05-22T04:50:09.773858</dc:date>
    <dc:format>image/svg+xml</dc:format>
    <dc:creator>
     <cc:Agent>
      <dc:title>Matplotlib v3.8.3, https://matplotlib.org/</dc:title>
     </cc:Agent>
    </dc:creator>
   </cc:Work>
  </rdf:RDF>
 </metadata>
 <defs>
  <style type="text/css">*{stroke-linejoin: round; stroke-linecap: butt}</style>
 </defs>
 <g id="figure_1">
  <g id="patch_1">
   <path d="M 0 576 
L 1440 576 
L 1440 0 
L 0 0 
z
" style="fill: #ffffff"/>
  </g>
  <g id="axes_1">
   <g id="patch_2">
    <path d="M 180 512.64 
L 1296 512.64 
L 1296 69.12 
L 180 69.12 
z
" style="fill: #ffffff"/>
   </g>
   <g id="matplotlib.axis_1">
    <g id="xtick_1">
     <g id="line2d_1">
      <defs>
       <path id="mbed8f0e492" d="M 0 0 
L 0 3.5 
" style="stroke: #000000; stroke-width: 0.8"/>
      </defs>
      <g>
       <use xlink:href="#mbed8f0e492" x="229.734567" y="512.64" style="stroke: #000000; stroke-width: 0.8"/>
      </g>
     </g>
     <g id="text_1">
      <!-- 0 -->
      <g transform="translate(226.553317 527.238438) scale(0.1 -0.1)">
       <defs>
        <path id="DejaVuSans-30" d="M 2034 4250 
Q 1547 4250 1301 3770 
Q 1056 3291 1056 2328 
Q 1056 1369 1301 889 
Q 1547 409 2034 409 
Q 2525 409 2770 889 
Q 3016 1369 3016 2328 
Q 3016 3291 2770 3770 
Q 2525 4250 2034 4250 
z
M 2034 4750 
Q 2819 4750 3233 4129 
Q 3647 3509 3647 2328 
Q 3647 1150 3233 529 
Q 2819 -91 2034 -91 
Q 1250 -91 836 529 
Q 422 1150 422 2328 
Q 422 3509 836 4129 
Q 1250 4750 2034 4750 
z
" transform="scale(0.015625)"/>
       </defs>
       <use xlink:href="#DejaVuSans-30"/>
      </g>
     </g>
    </g>
    <g id="xtick_2">
     <g id="line2d_2">
      <g>
       <use xlink:href="#mbed8f0e492" x="433.04074" y="512.64" style="stroke: #000000; stroke-width: 0.8"/>
      </g>
     </g>
     <g id="text_2">
      <!-- 500 -->
      <g transform="translate(423.49699 527.238438) scale(0.1 -0.1)">
       <defs>
        <path id="DejaVuSans-35" d="M 691 4666 
L 3169 4666 
L 3169 4134 
L 1269 4134 
L 1269 2991 
Q 1406 3038 1543 3061 
Q 1681 3084 1819 3084 
Q 2600 3084 3056 2656 
Q 3513 2228 3513 1497 
Q 3513 744 3044 326 
Q 2575 -91 1722 -91 
Q 1428 -91 1123 -41 
Q 819 9 494 109 
L 494 744 
Q 775 591 1075 516 
Q 1375 441 1709 441 
Q 2250 441 2565 725 
Q 2881 1009 2881 1497 
Q 2881 1984 2565 2268 
Q 2250 2553 1709 2553 
Q 1456 2553 1204 2497 
Q 953 2441 691 2322 
L 691 4666 
z
" transform="scale(0.015625)"/>
       </defs>
       <use xlink:href="#DejaVuSans-35"/>
       <use xlink:href="#DejaVuSans-30" x="63.623047"/>
       <use xlink:href="#DejaVuSans-30" x="127.246094"/>
      </g>
     </g>
    </g>
    <g id="xtick_3">
     <g id="line2d_3">
      <g>
       <use xlink:href="#mbed8f0e492" x="636.346913" y="512.64" style="stroke: #000000; stroke-width: 0.8"/>
      </g>
     </g>
     <g id="text_3">
      <!-- 1000 -->
      <g transform="translate(623.621913 527.238438) scale(0.1 -0.1)">
       <defs>
        <path id="DejaVuSans-31" d="M 794 531 
L 1825 531 
L 1825 4091 
L 703 3866 
L 703 4441 
L 1819 4666 
L 2450 4666 
L 2450 531 
L 3481 531 
L 3481 0 
L 794 0 
L 794 531 
z
" transform="scale(0.015625)"/>
       </defs>
       <use xlink:href="#DejaVuSans-31"/>
       <use xlink:href="#DejaVuSans-30" x="63.623047"/>
       <use xlink:href="#DejaVuSans-30" x="127.246094"/>
       <use xlink:href="#DejaVuSans-30" x="190.869141"/>
      </g>
     </g>
    </g>
    <g id="xtick_4">
     <g id="line2d_4">
      <g>
       <use xlink:href="#mbed8f0e492" x="839.653087" y="512.64" style="stroke: #000000; stroke-width: 0.8"/>
      </g>
     </g>
     <g id="text_4">
      <!-- 1500 -->
      <g transform="translate(826.928087 527.238438) scale(0.1 -0.1)">
       <use xlink:href="#DejaVuSans-31"/>
       <use xlink:href="#DejaVuSans-35" x="63.623047"/>
       <use xlink:href="#DejaVuSans-30" x="127.246094"/>
       <use xlink:href="#DejaVuSans-30" x="190.869141"/>
      </g>
     </g>
    </g>
    <g id="xtick_5">
     <g id="line2d_5">
      <g>
       <use xlink:href="#mbed8f0e492" x="1042.95926" y="512.64" style="stroke: #000000; stroke-width: 0.8"/>
      </g>
     </g>
     <g id="text_5">
      <!-- 2000 -->
      <g transform="translate(1030.23426 527.238438) scale(0.1 -0.1)">
       <defs>
        <path id="DejaVuSans-32" d="M 1228 531 
L 3431 531 
L 3431 0 
L 469 0 
L 469 531 
Q 828 903 1448 1529 
Q 2069 2156 2228 2338 
Q 2531 2678 2651 2914 
Q 2772 3150 2772 3378 
Q 2772 3750 2511 3984 
Q 2250 4219 1831 4219 
Q 1534 4219 1204 4116 
Q 875 4013 500 3803 
L 500 4441 
Q 881 4594 1212 4672 
Q 1544 4750 1819 4750 
Q 2544 4750 2975 4387 
Q 3406 4025 3406 3419 
Q 3406 3131 3298 2873 
Q 3191 2616 2906 2266 
Q 2828 2175 2409 1742 
Q 1991 1309 1228 531 
z
" transform="scale(0.015625)"/>
       </defs>
       <use xlink:href="#DejaVuSans-32"/>
       <use xlink:href="#DejaVuSans-30" x="63.623047"/>
       <use xlink:href="#DejaVuSans-30" x="127.246094"/>
       <use xlink:href="#DejaVuSans-30" x="190.869141"/>
      </g>
     </g>
    </g>
    <g id="xtick_6">
     <g id="line2d_6">
      <g>
       <use xlink:href="#mbed8f0e492" x="1246.265433" y="512.64" style="stroke: #000000; stroke-width: 0.8"/>
      </g>
     </g>
     <g id="text_6">
      <!-- 2500 -->
      <g transform="translate(1233.540433 527.238438) scale(0.1 -0.1)">
       <use xlink:href="#DejaVuSans-32"/>
       <use xlink:href="#DejaVuSans-35" x="63.623047"/>
       <use xlink:href="#DejaVuSans-30" x="127.246094"/>
       <use xlink:href="#DejaVuSans-30" x="190.869141"/>
      </g>
     </g>
    </g>
   </g>
   <g id="matplotlib.axis_2">
    <g id="ytick_1">
     <g id="line2d_7">
      <defs>
       <path id="m6850d32e9b" d="M 0 0 
L -3.5 0 
" style="stroke: #000000; stroke-width: 0.8"/>
      </defs>
      <g>
       <use xlink:href="#m6850d32e9b" x="180" y="492.09026" style="stroke: #000000; stroke-width: 0.8"/>
      </g>
     </g>
     <g id="text_7">
      <!-- −6 -->
      <g transform="translate(158.257812 495.889479) scale(0.1 -0.1)">
       <defs>
        <path id="DejaVuSans-2212" d="M 678 2272 
L 4684 2272 
L 4684 1741 
L 678 1741 
L 678 2272 
z
" transform="scale(0.015625)"/>
        <path id="DejaVuSans-36" d="M 2113 2584 
Q 1688 2584 1439 2293 
Q 1191 2003 1191 1497 
Q 1191 994 1439 701 
Q 1688 409 2113 409 
Q 2538 409 2786 701 
Q 3034 994 3034 1497 
Q 3034 2003 2786 2293 
Q 2538 2584 2113 2584 
z
M 3366 4563 
L 3366 3988 
Q 3128 4100 2886 4159 
Q 2644 4219 2406 4219 
Q 1781 4219 1451 3797 
Q 1122 3375 1075 2522 
Q 1259 2794 1537 2939 
Q 1816 3084 2150 3084 
Q 2853 3084 3261 2657 
Q 3669 2231 3669 1497 
Q 3669 778 3244 343 
Q 2819 -91 2113 -91 
Q 1303 -91 875 529 
Q 447 1150 447 2328 
Q 447 3434 972 4092 
Q 1497 4750 2381 4750 
Q 2619 4750 2861 4703 
Q 3103 4656 3366 4563 
z
" transform="scale(0.015625)"/>
       </defs>
       <use xlink:href="#DejaVuSans-2212"/>
       <use xlink:href="#DejaVuSans-36" x="83.789062"/>
      </g>
     </g>
    </g>
    <g id="ytick_2">
     <g id="line2d_8">
      <g>
       <use xlink:href="#m6850d32e9b" x="180" y="407.348987" style="stroke: #000000; stroke-width: 0.8"/>
      </g>
     </g>
     <g id="text_8">
      <!-- −4 -->
      <g transform="translate(158.257812 411.148206) scale(0.1 -0.1)">
       <defs>
        <path id="DejaVuSans-34" d="M 2419 4116 
L 825 1625 
L 2419 1625 
L 2419 4116 
z
M 2253 4666 
L 3047 4666 
L 3047 1625 
L 3713 1625 
L 3713 1100 
L 3047 1100 
L 3047 0 
L 2419 0 
L 2419 1100 
L 313 1100 
L 313 1709 
L 2253 4666 
z
" transform="scale(0.015625)"/>
       </defs>
       <use xlink:href="#DejaVuSans-2212"/>
       <use xlink:href="#DejaVuSans-34" x="83.789062"/>
      </g>
     </g>
    </g>
    <g id="ytick_3">
     <g id="line2d_9">
      <g>
       <use xlink:href="#m6850d32e9b" x="180" y="322.607715" style="stroke: #000000; stroke-width: 0.8"/>
      </g>
     </g>
     <g id="text_9">
      <!-- −2 -->
      <g transform="translate(158.257812 326.406934) scale(0.1 -0.1)">
       <use xlink:href="#DejaVuSans-2212"/>
       <use xlink:href="#DejaVuSans-32" x="83.789062"/>
      </g>
     </g>
    </g>
    <g id="ytick_4">
     <g id="line2d_10">
      <g>
       <use xlink:href="#m6850d32e9b" x="180" y="237.866443" style="stroke: #000000; stroke-width: 0.8"/>
      </g>
     </g>
     <g id="text_10">
      <!-- 0 -->
      <g transform="translate(166.6375 241.665662) scale(0.1 -0.1)">
       <use xlink:href="#DejaVuSans-30"/>
      </g>
     </g>
    </g>
    <g id="ytick_5">
     <g id="line2d_11">
      <g>
       <use xlink:href="#m6850d32e9b" x="180" y="153.12517" style="stroke: #000000; stroke-width: 0.8"/>
      </g>
     </g>
     <g id="text_11">
      <!-- 2 -->
      <g transform="translate(166.6375 156.924389) scale(0.1 -0.1)">
       <use xlink:href="#DejaVuSans-32"/>
      </g>
     </g>
    </g>
   </g>
   <g id="line2d_12">
    <path d="M 230.727273 320.630796 
L 231.719979 321.241729 
L 232.712685 320.54107 
L 233.70539 320.612442 
L 234.698096 319.921033 
L 235.690802 320.810162 
L 236.683508 319.626778 
L 237.676214 319.646666 
L 238.66892 319.442247 
L 239.661626 318.776643 
L 240.654332 318.804153 
L 241.647038 318.529476 
L 242.639744 318.845447 
L 243.63245 318.920483 
L 244.625156 320.882274 
L 247.603273 328.427242 
L 248.595979 337.589954 
L 249.588685 283.979395 
L 250.581391 249.853493 
L 251.574097 230.406264 
L 252.566803 231.307284 
L 253.559509 241.910342 
L 254.552215 256.877971 
L 255.544921 225.836498 
L 256.537627 215.955129 
L 257.530333 225.46091 
L 258.523039 326.812843 
L 259.515745 223.710042 
L 260.50845 204.511425 
L 261.501156 209.146367 
L 262.493862 210.260846 
L 263.486568 195.717143 
L 264.479274 188.207934 
L 265.47198 193.344656 
L 266.464686 204.209768 
L 267.457392 207.156028 
L 268.450098 213.118747 
L 269.442804 220.379659 
L 270.43551 215.203558 
L 271.428216 218.322859 
L 272.420922 245.929203 
L 273.413627 262.81761 
L 274.406333 212.985041 
L 276.391745 158.83772 
L 277.384451 136.322704 
L 278.377157 116.804929 
L 279.369863 102.268254 
L 280.362569 92.991923 
L 281.355275 89.28 
L 282.347981 91.21946 
L 283.340687 98.691678 
L 284.333393 109.706628 
L 285.326099 118.925549 
L 286.318804 124.820585 
L 287.31151 133.376621 
L 288.304216 149.069192 
L 289.296922 167.461142 
L 290.289628 175.887246 
L 291.282334 188.126499 
L 293.267746 255.618727 
L 294.260452 243.798784 
L 295.253158 297.9726 
L 296.245864 259.024036 
L 297.23857 247.096566 
L 298.231276 286.775392 
L 299.223981 277.99176 
L 300.216687 254.842697 
L 301.209393 286.056976 
L 302.202099 290.929813 
L 303.194805 265.087777 
L 304.187511 264.607362 
L 305.180217 251.138635 
L 306.172923 242.749633 
L 307.165629 245.785595 
L 308.158335 258.575568 
L 309.151041 264.441969 
L 310.143747 265.999867 
L 311.136453 295.416854 
L 312.129159 347.752637 
L 313.121864 319.589866 
L 314.11457 333.324417 
L 315.107276 412.449107 
L 316.099982 320.289012 
L 317.092688 331.502062 
L 318.085394 321.145616 
L 319.0781 390.672614 
L 320.070806 339.285415 
L 321.063512 335.785218 
L 322.056218 346.681249 
L 323.048924 351.927516 
L 324.04163 320.996528 
L 325.034336 350.617782 
L 326.027041 340.208814 
L 327.019747 328.578183 
L 328.012453 373.570042 
L 329.005159 335.503079 
L 329.997865 354.605528 
L 330.990571 325.504885 
L 331.983277 340.801077 
L 332.975983 334.652283 
L 333.968689 356.648931 
L 334.961395 373.702018 
L 335.954101 364.841694 
L 336.946807 332.841312 
L 337.939513 349.330169 
L 338.932218 347.308111 
L 339.924924 443.18305 
L 340.91763 352.788267 
L 341.910336 366.016627 
L 342.903042 342.44665 
L 343.895748 343.576593 
L 344.888454 373.969021 
L 345.88116 376.040699 
L 346.873866 350.261942 
L 347.866572 356.279799 
L 348.859278 354.279916 
L 349.851984 354.284784 
L 350.84469 328.709189 
L 351.837395 324.561486 
L 352.830101 364.923772 
L 353.822807 326.707678 
L 354.815513 401.213041 
L 355.808219 342.303092 
L 356.800925 354.082219 
L 357.793631 322.554402 
L 358.786337 332.538599 
L 359.779043 349.839262 
L 360.771749 344.722933 
L 361.764455 344.606645 
L 362.757161 349.563636 
L 363.749867 349.322074 
L 364.742572 380.791867 
L 365.735278 428.175608 
L 366.727984 375.787512 
L 367.72069 350.325129 
L 368.713396 364.90948 
L 369.706102 337.269397 
L 370.698808 366.328428 
L 371.691514 329.56738 
L 372.68422 383.592023 
L 373.676926 344.862126 
L 374.669632 384.55699 
L 375.662338 365.956221 
L 376.655044 341.598407 
L 377.64775 337.690005 
L 378.640455 383.455477 
L 379.633161 350.236562 
L 380.625867 372.303895 
L 381.618573 345.706159 
L 382.611279 380.18613 
L 383.603985 376.115695 
L 384.596691 360.637968 
L 385.589397 379.117914 
L 386.582103 410.767524 
L 387.574809 392.992312 
L 388.567515 353.353231 
L 389.560221 350.950953 
L 390.552927 391.394017 
L 391.545632 338.398464 
L 392.538338 361.769986 
L 393.531044 342.016821 
L 394.52375 377.38018 
L 395.516456 349.578065 
L 396.509162 379.074699 
L 397.501868 364.397563 
L 398.494574 396.144543 
L 399.48728 355.333876 
L 400.479986 371.599845 
L 401.472692 365.15315 
L 402.465398 418.017251 
L 403.458104 374.616603 
L 404.450809 369.617787 
L 405.443515 370.008588 
L 406.436221 389.081748 
L 407.428927 352.599657 
L 408.421633 388.586465 
L 409.414339 354.215419 
L 410.407045 379.366148 
L 411.399751 444.05353 
L 412.392457 379.654589 
L 413.385163 350.62096 
L 414.377869 399.564144 
L 415.370575 356.842992 
L 416.363281 367.618395 
L 417.355986 418.309234 
L 418.348692 369.157071 
L 419.341398 374.731499 
L 420.334104 377.002126 
L 421.32681 335.10525 
L 422.319516 355.688711 
L 423.312222 371.462742 
L 424.304928 367.043441 
L 425.297634 335.048263 
L 426.29034 371.735271 
L 427.283046 367.102253 
L 428.275752 378.256082 
L 429.268458 366.134413 
L 430.261163 432.665828 
L 431.253869 357.55827 
L 432.246575 400.181796 
L 433.239281 357.696497 
L 434.231987 364.979151 
L 435.224693 385.3658 
L 436.217399 397.045962 
L 437.210105 356.966115 
L 439.195517 376.062865 
L 440.188223 451.649734 
L 441.180929 395.955758 
L 442.173635 381.247728 
L 443.166341 372.040637 
L 444.159046 429.174024 
L 445.151752 383.484272 
L 446.144458 371.332517 
L 447.137164 415.090366 
L 448.12987 373.092353 
L 449.122576 372.897555 
L 450.115282 372.945389 
L 451.107988 394.538349 
L 452.100694 379.996447 
L 453.0934 415.959985 
L 454.086106 380.284853 
L 455.078812 455.601431 
L 456.071518 386.488271 
L 457.064223 412.475524 
L 458.056929 426.567422 
L 459.049635 363.627397 
L 460.042341 432.598344 
L 461.035047 391.226001 
L 462.027753 409.001786 
L 463.020459 417.254169 
L 464.013165 372.058407 
L 465.005871 357.354978 
L 465.998577 377.6362 
L 466.991283 369.084364 
L 467.983989 435.804015 
L 468.976695 421.543697 
L 469.9694 397.740582 
L 470.962106 360.995887 
L 471.954812 406.94189 
L 472.947518 360.948977 
L 473.940224 384.119263 
L 474.93293 411.088774 
L 475.925636 386.664571 
L 476.918342 395.661527 
L 477.911048 372.502987 
L 478.903754 390.255267 
L 479.89646 416.276561 
L 480.889166 407.528345 
L 481.881872 353.320509 
L 482.874577 394.320283 
L 483.867283 398.790072 
L 484.859989 442.060705 
L 485.852695 370.623281 
L 486.845401 382.410165 
L 487.838107 372.201891 
L 488.830813 346.469291 
L 489.823519 356.197985 
L 490.816225 367.794203 
L 491.808931 381.156138 
L 492.801637 380.772254 
L 493.794343 386.410629 
L 494.787049 393.462939 
L 496.77246 418.3891 
L 497.765166 362.580632 
L 498.757872 448.624481 
L 499.750578 362.878757 
L 500.743284 446.420011 
L 501.73599 437.463119 
L 502.728696 401.970776 
L 503.721402 372.677978 
L 504.714108 360.30337 
L 505.706814 364.502821 
L 506.69952 414.487779 
L 507.692226 398.215738 
L 508.684932 394.674464 
L 509.677637 399.96042 
L 510.670343 404.152115 
L 511.663049 403.598972 
L 512.655755 370.936477 
L 513.648461 388.526669 
L 514.641167 382.407655 
L 515.633873 345.204391 
L 516.626579 361.873151 
L 517.619285 396.09276 
L 518.611991 392.730782 
L 519.604697 399.999995 
L 520.597403 384.589242 
L 521.590109 394.46991 
L 522.582814 365.817271 
L 523.57552 389.914139 
L 524.568226 364.633784 
L 525.560932 350.80538 
L 526.553638 376.755441 
L 527.546344 373.271389 
L 528.53905 390.990206 
L 529.531756 368.285233 
L 530.524462 395.997537 
L 531.517168 408.315308 
L 532.509874 424.698241 
L 534.495286 355.790771 
L 535.487991 390.566573 
L 536.480697 347.377168 
L 537.473403 376.940761 
L 538.466109 388.852927 
L 539.458815 374.955125 
L 540.451521 376.052664 
L 541.444227 383.139289 
L 542.436933 370.723141 
L 543.429639 372.930521 
L 544.422345 395.859485 
L 545.415051 348.809292 
L 546.407757 403.145049 
L 547.400463 387.587838 
L 548.393168 416.952402 
L 549.385874 357.742495 
L 550.37858 398.097153 
L 552.363992 391.118403 
L 553.356698 392.516592 
L 554.349404 386.328537 
L 555.34211 393.775165 
L 556.334816 391.98609 
L 557.327522 380.046916 
L 558.320228 407.794033 
L 559.312934 399.625974 
L 560.30564 364.558374 
L 561.298345 371.077232 
L 562.291051 399.816349 
L 563.283757 389.735226 
L 564.276463 426.300281 
L 565.269169 368.293547 
L 566.261875 389.731848 
L 567.254581 392.620415 
L 568.247287 408.134796 
L 569.239993 398.959517 
L 570.232699 361.788422 
L 571.225405 418.808999 
L 572.218111 352.077934 
L 573.210817 417.269803 
L 574.203523 442.516602 
L 575.196228 386.706186 
L 576.188934 390.199701 
L 577.18164 385.313132 
L 578.174346 392.691946 
L 579.167052 382.140943 
L 580.159758 396.097019 
L 581.152464 387.20966 
L 582.14517 374.266236 
L 583.137876 492.48 
L 584.130582 389.188901 
L 585.123288 390.904707 
L 586.115994 396.980691 
L 587.1087 375.289916 
L 588.101405 467.10078 
L 589.094111 371.705655 
L 590.086817 387.605382 
L 591.079523 386.928402 
L 592.072229 400.408969 
L 593.064935 427.866288 
L 594.057641 417.082737 
L 595.050347 398.54515 
L 596.043053 402.726835 
L 597.035759 399.917263 
L 598.028465 360.666895 
L 599.021171 377.389901 
L 600.013877 389.240197 
L 601.006582 395.450188 
L 601.999288 378.056927 
L 602.991994 432.204678 
L 604.977406 386.914396 
L 605.970112 385.601809 
L 606.962818 458.57592 
L 607.955524 370.797523 
L 608.94823 373.989944 
L 609.940936 412.364952 
L 610.933642 443.581831 
L 611.926348 381.586612 
L 612.919054 394.755401 
L 613.911759 475.542053 
L 614.904465 384.595945 
L 615.897171 405.223984 
L 616.889877 401.995205 
L 617.882583 377.050334 
L 618.875289 465.402541 
L 619.867995 423.78319 
L 620.860701 460.197486 
L 621.853407 393.723729 
L 622.846113 417.377723 
L 623.838819 437.780876 
L 624.831525 423.912977 
L 625.824231 369.682145 
L 626.816936 376.872442 
L 627.809642 441.593423 
L 628.802348 425.969972 
L 629.795054 397.691634 
L 630.78776 480.891074 
L 631.780466 404.517333 
L 632.773172 404.08877 
L 633.765878 407.915357 
L 634.758584 388.985457 
L 635.75129 445.701277 
L 636.743996 402.002974 
L 637.736702 405.687227 
L 638.729408 404.99301 
L 639.722114 418.13932 
L 640.714819 400.080179 
L 641.707525 429.355454 
L 642.700231 414.727117 
L 643.692937 426.236794 
L 644.685643 410.964571 
L 645.678349 409.169467 
L 646.671055 422.175611 
L 647.663761 418.339372 
L 648.656467 425.470544 
L 649.649173 408.187957 
L 650.641879 442.309861 
L 651.634585 448.247163 
L 652.627291 392.708665 
L 653.619996 428.091061 
L 654.612702 433.539338 
L 655.605408 428.267133 
L 656.598114 428.714638 
L 657.59082 409.960628 
L 658.583526 415.871352 
L 659.576232 435.939836 
L 661.561644 404.923186 
L 662.55435 410.127189 
L 663.547056 440.813923 
L 664.539762 418.874881 
L 665.532468 415.839411 
L 666.525173 409.458694 
L 667.517879 410.819132 
L 668.510585 439.608896 
L 669.503291 405.415376 
L 670.495997 403.139538 
L 671.488703 419.956677 
L 672.481409 421.817667 
L 673.474115 421.240908 
L 674.466821 431.478888 
L 675.459527 414.134858 
L 676.452233 442.428971 
L 677.444939 430.795041 
L 678.437645 416.829935 
L 679.43035 425.941244 
L 680.423056 426.788382 
L 682.408468 417.077143 
L 683.401174 419.23681 
L 684.39388 414.96009 
L 686.379292 434.175144 
L 687.371998 423.552013 
L 688.364704 431.163557 
L 689.35741 420.288503 
L 690.350116 424.072984 
L 691.342822 421.233992 
L 692.335527 418.907961 
L 693.328233 428.87744 
L 694.320939 440.439428 
L 695.313645 416.307486 
L 696.306351 426.832828 
L 697.299057 440.470838 
L 699.284469 423.715965 
L 700.277175 425.878811 
L 701.269881 426.427162 
L 702.262587 421.574556 
L 703.255293 430.661071 
L 704.247999 419.49328 
L 705.240705 430.15233 
L 706.23341 422.856826 
L 707.226116 423.367097 
L 708.218822 430.829347 
L 709.211528 421.044135 
L 710.204234 427.891739 
L 711.19694 427.801119 
L 712.189646 429.86273 
L 713.182352 419.333354 
L 714.175058 422.121877 
L 715.167764 421.191368 
L 716.16047 432.438122 
L 717.153176 430.767461 
L 718.145882 431.883381 
L 719.138587 426.036569 
L 720.131293 427.983325 
L 721.123999 424.812618 
L 722.116705 424.443835 
L 723.109411 426.266204 
L 724.102117 426.626615 
L 725.094823 428.812566 
L 726.087529 414.934519 
L 727.080235 429.232678 
L 728.072941 430.120589 
L 729.065647 425.078742 
L 730.058353 430.241662 
L 731.051059 429.031534 
L 732.043764 429.293213 
L 733.03647 424.819774 
L 734.029176 420.918758 
L 735.021882 429.387877 
L 737.007294 436.307037 
L 738.992706 424.992021 
L 739.985412 431.695514 
L 740.978118 429.573591 
L 741.970824 433.925822 
L 742.96353 427.290973 
L 743.956236 426.209902 
L 744.948941 428.648136 
L 745.941647 430.577134 
L 746.934353 434.20331 
L 747.927059 423.120962 
L 748.919765 437.75781 
L 749.912471 423.687789 
L 750.905177 432.077115 
L 751.897883 423.126198 
L 752.890589 427.792952 
L 753.883295 425.369419 
L 754.876001 423.261067 
L 755.868707 430.926222 
L 756.861413 426.830755 
L 757.854118 424.924544 
L 758.846824 425.126505 
L 759.83953 426.321672 
L 760.832236 426.016801 
L 761.824942 429.09425 
L 762.817648 429.345525 
L 763.810354 426.728649 
L 764.80306 430.701639 
L 765.795766 433.55333 
L 766.788472 433.47168 
L 767.781178 429.352421 
L 768.773884 426.32909 
L 769.76659 430.325934 
L 770.759295 441.106543 
L 771.752001 430.195817 
L 772.744707 426.093531 
L 773.737413 426.135987 
L 774.730119 432.898449 
L 775.722825 429.513785 
L 776.715531 429.43419 
L 777.708237 434.509505 
L 778.700943 432.779971 
L 779.693649 423.994122 
L 781.679061 437.367374 
L 782.671767 428.533736 
L 783.664473 434.634007 
L 784.657178 425.660955 
L 785.649884 436.095477 
L 786.64259 432.065999 
L 787.635296 436.922807 
L 788.628002 428.244622 
L 789.620708 432.039603 
L 790.613414 432.145968 
L 791.60612 425.810968 
L 792.598826 432.75932 
L 794.584238 427.903553 
L 795.576944 433.021112 
L 796.56965 429.784876 
L 797.562355 432.221197 
L 798.555061 430.775889 
L 799.547767 436.886654 
L 800.540473 428.928555 
L 801.533179 431.424211 
L 802.525885 431.995086 
L 803.518591 431.278605 
L 804.511297 433.247958 
L 805.504003 433.253937 
L 806.496709 431.525701 
L 808.482121 434.63895 
L 809.474827 436.838208 
L 810.467532 434.122079 
L 811.460238 432.378344 
L 812.452944 431.771924 
L 813.44565 429.162342 
L 814.438356 435.635201 
L 816.423768 427.455519 
L 817.416474 431.903469 
L 818.40918 438.332434 
L 819.401886 434.51445 
L 820.394592 426.562965 
L 821.387298 437.596509 
L 822.380004 440.879903 
L 823.372709 428.258162 
L 824.365415 434.203622 
L 825.358121 428.202258 
L 826.350827 433.149897 
L 827.343533 437.389975 
L 828.336239 429.102089 
L 830.321651 436.346256 
L 831.314357 435.89412 
L 832.307063 431.437788 
L 833.299769 433.371008 
L 834.292475 432.598395 
L 835.285181 432.894029 
L 836.277886 431.72979 
L 837.270592 431.32661 
L 838.263298 439.352928 
L 839.256004 429.808353 
L 840.24871 432.55924 
L 841.241416 432.50123 
L 842.234122 432.175191 
L 843.226828 436.431692 
L 844.219534 433.846074 
L 845.21224 433.121048 
L 846.204946 433.609904 
L 847.197652 433.299536 
L 848.190358 431.739484 
L 849.183064 437.99122 
L 850.175769 436.175969 
L 851.168475 428.218994 
L 853.153887 436.132836 
L 854.146593 437.440947 
L 855.139299 438.173625 
L 856.132005 428.520651 
L 857.124711 433.182998 
L 858.117417 431.925496 
L 859.110123 429.340488 
L 860.102829 432.123353 
L 861.095535 434.123729 
L 862.088241 432.202579 
L 863.080946 437.045258 
L 864.073652 439.9759 
L 865.066358 437.881485 
L 866.059064 439.13772 
L 867.05177 432.629845 
L 868.044476 438.161501 
L 869.037182 434.260374 
L 870.029888 432.389246 
L 871.022594 437.108818 
L 872.0153 433.770215 
L 873.008006 433.702339 
L 874.000712 433.251927 
L 874.993418 429.496623 
L 875.986123 433.760412 
L 876.978829 433.418192 
L 877.971535 434.686368 
L 878.964241 434.821098 
L 879.956947 432.781369 
L 880.949653 436.439253 
L 881.942359 433.507378 
L 882.935065 431.752399 
L 883.927771 440.240129 
L 884.920477 438.322745 
L 885.913183 434.956005 
L 886.905889 434.619779 
L 887.898595 439.338827 
L 888.8913 442.125753 
L 889.884006 436.091033 
L 890.876712 436.041912 
L 891.869418 434.533853 
L 892.862124 432.529377 
L 893.85483 432.424587 
L 894.847536 438.632678 
L 895.840242 430.660354 
L 896.832948 436.934397 
L 897.825654 435.993892 
L 898.81836 438.88437 
L 899.811066 434.976662 
L 900.803772 444.133596 
L 901.796477 436.110341 
L 902.789183 435.936018 
L 903.781889 436.354484 
L 904.774595 435.355573 
L 905.767301 427.396945 
L 906.760007 437.570062 
L 907.752713 433.685083 
L 908.745419 439.232088 
L 909.738125 430.992307 
L 910.730831 439.403759 
L 911.723537 440.300925 
L 912.716243 436.892558 
L 913.708949 434.721188 
L 914.701655 440.441947 
L 915.69436 436.074588 
L 916.687066 437.56768 
L 917.679772 436.559865 
L 918.672478 433.511138 
L 919.665184 437.456982 
L 921.650596 439.678607 
L 922.643302 437.761682 
L 923.636008 434.787544 
L 924.628714 434.093838 
L 925.62142 431.651035 
L 926.614126 433.051901 
L 927.606832 440.116344 
L 928.599537 433.969554 
L 929.592243 436.476659 
L 930.584949 435.543035 
L 931.577655 436.537743 
L 932.570361 434.365688 
L 933.563067 439.217871 
L 934.555773 436.072381 
L 935.548479 431.686557 
L 936.541185 437.759914 
L 937.533891 438.521158 
L 938.526597 438.828991 
L 939.519303 431.125857 
L 940.512009 436.989922 
L 941.504714 432.303847 
L 942.49742 443.101043 
L 943.490126 437.255312 
L 944.482832 443.318704 
L 945.475538 436.676039 
L 946.468244 435.283189 
L 947.46095 438.625278 
L 948.453656 435.256829 
L 949.446362 441.0009 
L 950.439068 437.872404 
L 951.431774 436.916743 
L 952.42448 435.424161 
L 953.417186 431.421476 
L 954.409891 433.671265 
L 955.402597 442.548993 
L 956.395303 440.454832 
L 957.388009 440.534798 
L 958.380715 436.181501 
L 959.373421 438.344198 
L 960.366127 443.96217 
L 961.358833 443.624556 
L 962.351539 442.230643 
L 963.344245 433.09123 
L 964.336951 433.561743 
L 965.329657 440.541597 
L 966.322363 441.523778 
L 967.315068 440.471788 
L 968.307774 438.050465 
L 969.30048 439.962596 
L 970.293186 439.094966 
L 971.285892 438.376097 
L 972.278598 431.369031 
L 973.271304 444.702471 
L 974.26401 438.637835 
L 975.256716 439.114875 
L 976.249422 438.217123 
L 977.242128 438.818818 
L 978.234834 444.76718 
L 979.22754 439.894366 
L 980.220246 440.37029 
L 981.212951 442.058838 
L 982.205657 436.993616 
L 983.198363 439.452355 
L 984.191069 437.148151 
L 985.183775 436.942406 
L 986.176481 436.420302 
L 987.169187 434.680668 
L 988.161893 435.48299 
L 989.154599 444.112253 
L 990.147305 438.193306 
L 991.140011 441.085577 
L 992.132717 448.275239 
L 993.125423 443.171179 
L 994.118128 444.78233 
L 995.110834 439.375908 
L 996.10354 441.035433 
L 997.096246 434.855303 
L 998.088952 441.608279 
L 999.081658 440.320459 
L 1000.074364 442.366693 
L 1001.06707 443.768495 
L 1003.052482 439.808903 
L 1004.045188 439.191786 
L 1005.037894 438.125531 
L 1006.0306 439.321011 
L 1007.023305 436.840495 
L 1008.016011 439.509332 
L 1009.008717 435.992598 
L 1010.001423 436.846639 
L 1010.994129 435.691472 
L 1011.986835 446.504654 
L 1012.979541 441.706101 
L 1013.972247 442.372735 
L 1014.964953 438.24349 
L 1015.957659 435.177378 
L 1016.950365 439.577167 
L 1017.943071 434.620787 
L 1018.935777 442.885399 
L 1019.928482 438.300178 
L 1020.921188 439.266467 
L 1021.913894 441.137991 
L 1022.9066 440.946197 
L 1023.899306 435.113479 
L 1024.892012 437.302667 
L 1025.884718 438.943631 
L 1026.877424 441.833474 
L 1027.87013 447.898333 
L 1028.862836 439.272374 
L 1029.855542 437.411842 
L 1031.840954 447.764893 
L 1032.833659 436.705132 
L 1033.826365 440.888145 
L 1034.819071 443.269102 
L 1035.811777 444.219385 
L 1036.804483 437.775608 
L 1037.797189 440.193863 
L 1038.789895 438.852105 
L 1039.782601 443.298971 
L 1040.775307 440.288012 
L 1041.768013 438.153884 
L 1042.760719 443.38246 
L 1043.753425 443.239485 
L 1044.746131 444.148366 
L 1045.738837 447.152094 
L 1046.731542 439.268101 
L 1047.724248 437.815416 
L 1048.716954 438.113749 
L 1049.70966 444.717751 
L 1050.702366 435.300049 
L 1051.695072 437.926141 
L 1052.687778 437.593429 
L 1053.680484 435.77482 
L 1054.67319 437.128448 
L 1056.658602 443.253894 
L 1057.651308 443.820957 
L 1058.644014 444.654029 
L 1059.636719 443.06207 
L 1060.629425 435.197487 
L 1061.622131 445.282729 
L 1062.614837 444.6236 
L 1063.607543 443.695791 
L 1064.600249 445.4563 
L 1065.592955 439.289504 
L 1066.585661 440.203396 
L 1067.578367 443.193109 
L 1068.571073 442.90155 
L 1069.563779 436.393651 
L 1070.556485 439.848204 
L 1071.549191 441.209883 
L 1072.541896 440.212261 
L 1073.534602 440.699073 
L 1074.527308 438.31007 
L 1075.520014 434.681474 
L 1076.51272 440.35988 
L 1077.505426 440.515042 
L 1078.498132 438.308531 
L 1079.490838 438.517396 
L 1080.483544 439.967431 
L 1081.47625 439.661394 
L 1082.468956 437.521894 
L 1083.461662 436.491843 
L 1084.454368 442.964554 
L 1086.439779 437.382055 
L 1087.432485 438.762838 
L 1088.425191 443.533057 
L 1089.417897 450.890948 
L 1090.410603 437.019071 
L 1091.403309 439.155197 
L 1092.396015 437.724664 
L 1093.388721 444.912066 
L 1094.381427 441.174767 
L 1095.374133 441.181462 
L 1096.366839 437.840254 
L 1097.359545 434.043878 
L 1098.35225 439.513362 
L 1099.344956 439.099822 
L 1100.337662 434.393963 
L 1101.330368 438.823723 
L 1102.323074 442.217565 
L 1104.308486 437.816054 
L 1105.301192 447.875369 
L 1106.293898 441.447039 
L 1107.286604 445.130849 
L 1108.27931 441.434459 
L 1109.272016 438.310503 
L 1110.264722 441.234936 
L 1111.257428 440.164771 
L 1112.250133 438.603631 
L 1113.242839 437.528975 
L 1114.235545 444.529654 
L 1115.228251 444.950019 
L 1117.213663 438.555317 
L 1118.206369 438.605868 
L 1119.199075 438.924466 
L 1120.191781 438.040251 
L 1121.184487 445.162531 
L 1122.177193 447.712563 
L 1123.169899 441.778734 
L 1124.162605 441.884548 
L 1125.15531 443.317965 
L 1126.148016 444.509158 
L 1127.140722 439.042044 
L 1128.133428 437.949386 
L 1129.126134 447.971168 
L 1130.11884 450.798515 
L 1131.111546 442.49964 
L 1132.104252 444.294935 
L 1133.096958 444.574477 
L 1134.089664 443.317665 
L 1135.08237 434.278317 
L 1136.075076 445.444327 
L 1137.067782 439.469541 
L 1138.060487 441.585698 
L 1139.053193 443.309529 
L 1140.045899 437.583355 
L 1141.038605 437.826491 
L 1142.031311 443.587831 
L 1143.024017 446.532406 
L 1144.016723 441.206702 
L 1145.009429 444.258179 
L 1146.002135 438.730742 
L 1146.994841 438.992306 
L 1147.987547 443.583778 
L 1148.980253 441.468765 
L 1149.972959 450.916815 
L 1150.965664 444.457231 
L 1151.95837 442.103548 
L 1152.951076 442.291772 
L 1153.943782 439.554757 
L 1154.936488 439.925088 
L 1155.929194 451.354216 
L 1156.9219 438.678306 
L 1157.914606 446.207425 
L 1158.907312 439.952045 
L 1159.900018 442.802447 
L 1160.892724 443.153384 
L 1161.88543 433.047056 
L 1162.878136 441.667833 
L 1163.870841 445.202936 
L 1164.863547 443.079809 
L 1165.856253 437.590733 
L 1166.848959 441.024951 
L 1167.841665 442.718952 
L 1168.834371 437.119691 
L 1169.827077 438.625684 
L 1170.819783 443.058203 
L 1171.812489 446.240437 
L 1172.805195 444.688553 
L 1173.797901 438.101237 
L 1174.790607 442.148844 
L 1175.783313 443.217947 
L 1176.776019 439.475627 
L 1178.76143 438.532341 
L 1179.754136 446.745517 
L 1180.746842 441.86308 
L 1181.739548 439.728928 
L 1182.732254 445.191545 
L 1183.72496 440.096194 
L 1184.717666 439.334396 
L 1185.710372 443.200003 
L 1186.703078 445.09252 
L 1187.695784 446.010286 
L 1188.68849 431.125397 
L 1189.681196 447.494096 
L 1190.673901 446.267476 
L 1191.666607 450.661101 
L 1192.659313 449.437053 
L 1193.652019 445.229998 
L 1194.644725 444.180164 
L 1195.637431 438.720965 
L 1196.630137 435.170573 
L 1197.622843 442.764046 
L 1198.615549 443.25111 
L 1199.608255 449.207465 
L 1200.600961 434.712444 
L 1201.593667 435.072625 
L 1202.586373 441.209023 
L 1203.579078 444.908616 
L 1204.571784 439.625778 
L 1205.56449 440.062321 
L 1206.557196 445.272388 
L 1207.549902 438.50761 
L 1208.542608 444.561552 
L 1209.535314 437.722683 
L 1210.52802 439.268227 
L 1211.520726 439.661606 
L 1212.513432 442.233665 
L 1213.506138 443.487277 
L 1214.498844 442.250645 
L 1215.49155 443.519931 
L 1216.484255 438.951752 
L 1217.476961 443.576052 
L 1218.469667 437.805136 
L 1219.462373 451.313425 
L 1220.455079 441.643076 
L 1221.447785 440.685059 
L 1222.440491 440.786928 
L 1223.433197 441.442259 
L 1224.425903 441.735188 
L 1225.418609 435.702314 
L 1226.411315 445.260505 
L 1227.404021 446.884631 
L 1228.396727 439.472483 
L 1229.389432 443.842088 
L 1230.382138 436.180835 
L 1231.374844 435.242651 
L 1232.36755 439.481912 
L 1233.360256 445.15681 
L 1234.352962 443.279572 
L 1235.345668 440.364471 
L 1236.338374 441.275803 
L 1237.33108 440.210467 
L 1238.323786 442.400704 
L 1239.316492 448.163199 
L 1240.309198 439.737463 
L 1241.301904 440.776509 
L 1242.29461 442.595117 
L 1243.287315 436.917874 
L 1245.272727 442.533625 
L 1245.272727 442.533625 
" clip-path="url(#pe57f99b543)" style="fill: none; stroke: #1f77b4; stroke-width: 1.5; stroke-linecap: square"/>
   </g>
   <g id="patch_3">
    <path d="M 180 512.64 
L 180 69.12 
" style="fill: none; stroke: #000000; stroke-width: 0.8; stroke-linejoin: miter; stroke-linecap: square"/>
   </g>
   <g id="patch_4">
    <path d="M 1296 512.64 
L 1296 69.12 
" style="fill: none; stroke: #000000; stroke-width: 0.8; stroke-linejoin: miter; stroke-linecap: square"/>
   </g>
   <g id="patch_5">
    <path d="M 180 512.64 
L 1296 512.64 
" style="fill: none; stroke: #000000; stroke-width: 0.8; stroke-linejoin: miter; stroke-linecap: square"/>
   </g>
   <g id="patch_6">
    <path d="M 180 69.12 
L 1296 69.12 
" style="fill: none; stroke: #000000; stroke-width: 0.8; stroke-linejoin: miter; stroke-linecap: square"/>
   </g>
   <g id="text_12">
    <!-- source16-receiver10 -->
    <g transform="translate(532.175 60.80125) scale(0.4 -0.4)">
     <defs>
      <path id="DejaVuSans-73" d="M 2834 3397 
L 2834 2853 
Q 2591 2978 2328 3040 
Q 2066 3103 1784 3103 
Q 1356 3103 1142 2972 
Q 928 2841 928 2578 
Q 928 2378 1081 2264 
Q 1234 2150 1697 2047 
L 1894 2003 
Q 2506 1872 2764 1633 
Q 3022 1394 3022 966 
Q 3022 478 2636 193 
Q 2250 -91 1575 -91 
Q 1294 -91 989 -36 
Q 684 19 347 128 
L 347 722 
Q 666 556 975 473 
Q 1284 391 1588 391 
Q 1994 391 2212 530 
Q 2431 669 2431 922 
Q 2431 1156 2273 1281 
Q 2116 1406 1581 1522 
L 1381 1569 
Q 847 1681 609 1914 
Q 372 2147 372 2553 
Q 372 3047 722 3315 
Q 1072 3584 1716 3584 
Q 2034 3584 2315 3537 
Q 2597 3491 2834 3397 
z
" transform="scale(0.015625)"/>
      <path id="DejaVuSans-6f" d="M 1959 3097 
Q 1497 3097 1228 2736 
Q 959 2375 959 1747 
Q 959 1119 1226 758 
Q 1494 397 1959 397 
Q 2419 397 2687 759 
Q 2956 1122 2956 1747 
Q 2956 2369 2687 2733 
Q 2419 3097 1959 3097 
z
M 1959 3584 
Q 2709 3584 3137 3096 
Q 3566 2609 3566 1747 
Q 3566 888 3137 398 
Q 2709 -91 1959 -91 
Q 1206 -91 779 398 
Q 353 888 353 1747 
Q 353 2609 779 3096 
Q 1206 3584 1959 3584 
z
" transform="scale(0.015625)"/>
      <path id="DejaVuSans-75" d="M 544 1381 
L 544 3500 
L 1119 3500 
L 1119 1403 
Q 1119 906 1312 657 
Q 1506 409 1894 409 
Q 2359 409 2629 706 
Q 2900 1003 2900 1516 
L 2900 3500 
L 3475 3500 
L 3475 0 
L 2900 0 
L 2900 538 
Q 2691 219 2414 64 
Q 2138 -91 1772 -91 
Q 1169 -91 856 284 
Q 544 659 544 1381 
z
M 1991 3584 
L 1991 3584 
z
" transform="scale(0.015625)"/>
      <path id="DejaVuSans-72" d="M 2631 2963 
Q 2534 3019 2420 3045 
Q 2306 3072 2169 3072 
Q 1681 3072 1420 2755 
Q 1159 2438 1159 1844 
L 1159 0 
L 581 0 
L 581 3500 
L 1159 3500 
L 1159 2956 
Q 1341 3275 1631 3429 
Q 1922 3584 2338 3584 
Q 2397 3584 2469 3576 
Q 2541 3569 2628 3553 
L 2631 2963 
z
" transform="scale(0.015625)"/>
      <path id="DejaVuSans-63" d="M 3122 3366 
L 3122 2828 
Q 2878 2963 2633 3030 
Q 2388 3097 2138 3097 
Q 1578 3097 1268 2742 
Q 959 2388 959 1747 
Q 959 1106 1268 751 
Q 1578 397 2138 397 
Q 2388 397 2633 464 
Q 2878 531 3122 666 
L 3122 134 
Q 2881 22 2623 -34 
Q 2366 -91 2075 -91 
Q 1284 -91 818 406 
Q 353 903 353 1747 
Q 353 2603 823 3093 
Q 1294 3584 2113 3584 
Q 2378 3584 2631 3529 
Q 2884 3475 3122 3366 
z
" transform="scale(0.015625)"/>
      <path id="DejaVuSans-65" d="M 3597 1894 
L 3597 1613 
L 953 1613 
Q 991 1019 1311 708 
Q 1631 397 2203 397 
Q 2534 397 2845 478 
Q 3156 559 3463 722 
L 3463 178 
Q 3153 47 2828 -22 
Q 2503 -91 2169 -91 
Q 1331 -91 842 396 
Q 353 884 353 1716 
Q 353 2575 817 3079 
Q 1281 3584 2069 3584 
Q 2775 3584 3186 3129 
Q 3597 2675 3597 1894 
z
M 3022 2063 
Q 3016 2534 2758 2815 
Q 2500 3097 2075 3097 
Q 1594 3097 1305 2825 
Q 1016 2553 972 2059 
L 3022 2063 
z
" transform="scale(0.015625)"/>
      <path id="DejaVuSans-2d" d="M 313 2009 
L 1997 2009 
L 1997 1497 
L 313 1497 
L 313 2009 
z
" transform="scale(0.015625)"/>
      <path id="DejaVuSans-69" d="M 603 3500 
L 1178 3500 
L 1178 0 
L 603 0 
L 603 3500 
z
M 603 4863 
L 1178 4863 
L 1178 4134 
L 603 4134 
L 603 4863 
z
" transform="scale(0.015625)"/>
      <path id="DejaVuSans-76" d="M 191 3500 
L 800 3500 
L 1894 563 
L 2988 3500 
L 3597 3500 
L 2284 0 
L 1503 0 
L 191 3500 
z
" transform="scale(0.015625)"/>
     </defs>
     <use xlink:href="#DejaVuSans-73"/>
     <use xlink:href="#DejaVuSans-6f" x="52.099609"/>
     <use xlink:href="#DejaVuSans-75" x="113.28125"/>
     <use xlink:href="#DejaVuSans-72" x="176.660156"/>
     <use xlink:href="#DejaVuSans-63" x="215.523438"/>
     <use xlink:href="#DejaVuSans-65" x="270.503906"/>
     <use xlink:href="#DejaVuSans-31" x="332.027344"/>
     <use xlink:href="#DejaVuSans-36" x="395.650391"/>
     <use xlink:href="#DejaVuSans-2d" x="459.273438"/>
     <use xlink:href="#DejaVuSans-72" x="495.357422"/>
     <use xlink:href="#DejaVuSans-65" x="534.220703"/>
     <use xlink:href="#DejaVuSans-63" x="595.744141"/>
     <use xlink:href="#DejaVuSans-65" x="650.724609"/>
     <use xlink:href="#DejaVuSans-69" x="712.248047"/>
     <use xlink:href="#DejaVuSans-76" x="740.03125"/>
     <use xlink:href="#DejaVuSans-65" x="799.210938"/>
     <use xlink:href="#DejaVuSans-72" x="860.734375"/>
     <use xlink:href="#DejaVuSans-31" x="901.847656"/>
     <use xlink:href="#DejaVuSans-30" x="965.470703"/>
    </g>
   </g>
  </g>
 </g>
 <defs>
  <clipPath id="pe57f99b543">
   <rect x="180" y="69.12" width="1116" height="443.52"/>
  </clipPath>
 </defs>
</svg>
