<?xml version="1.0" encoding="utf-8" standalone="no"?>
<!DOCTYPE svg PUBLIC "-//W3C//DTD SVG 1.1//EN"
  "http://www.w3.org/Graphics/SVG/1.1/DTD/svg11.dtd">
<svg xmlns:xlink="http://www.w3.org/1999/xlink" width="1440pt" height="576pt" viewBox="0 0 1440 576" xmlns="http://www.w3.org/2000/svg" version="1.1">
 <metadata>
  <rdf:RDF xmlns:dc="http://purl.org/dc/elements/1.1/" xmlns:cc="http://creativecommons.org/ns#" xmlns:rdf="http://www.w3.org/1999/02/22-rdf-syntax-ns#">
   <cc:Work>
    <dc:type rdf:resource="http://purl.org/dc/dcmitype/StillImage"/>
    <dc:date>2024-05-22T04:50:10.102350</dc:date>
    <dc:format>image/svg+xml</dc:format>
    <dc:creator>
     <cc:Agent>
      <dc:title>Matplotlib v3.8.3, https://matplotlib.org/</dc:title>
     </cc:Agent>
    </dc:creator>
   </cc:Work>
  </rdf:RDF>
 </metadata>
 <defs>
  <style type="text/css">*{stroke-linejoin: round; stroke-linecap: butt}</style>
 </defs>
 <g id="figure_1">
  <g id="patch_1">
   <path d="M 0 576 
L 1440 576 
L 1440 0 
L 0 0 
z
" style="fill: #ffffff"/>
  </g>
  <g id="axes_1">
   <g id="patch_2">
    <path d="M 180 512.64 
L 1296 512.64 
L 1296 69.12 
L 180 69.12 
z
" style="fill: #ffffff"/>
   </g>
   <g id="matplotlib.axis_1">
    <g id="xtick_1">
     <g id="line2d_1">
      <defs>
       <path id="mc11ee49418" d="M 0 0 
L 0 3.5 
" style="stroke: #000000; stroke-width: 0.8"/>
      </defs>
      <g>
       <use xlink:href="#mc11ee49418" x="229.734567" y="512.64" style="stroke: #000000; stroke-width: 0.8"/>
      </g>
     </g>
     <g id="text_1">
      <!-- 0 -->
      <g transform="translate(226.553317 527.238438) scale(0.1 -0.1)">
       <defs>
        <path id="DejaVuSans-30" d="M 2034 4250 
Q 1547 4250 1301 3770 
Q 1056 3291 1056 2328 
Q 1056 1369 1301 889 
Q 1547 409 2034 409 
Q 2525 409 2770 889 
Q 3016 1369 3016 2328 
Q 3016 3291 2770 3770 
Q 2525 4250 2034 4250 
z
M 2034 4750 
Q 2819 4750 3233 4129 
Q 3647 3509 3647 2328 
Q 3647 1150 3233 529 
Q 2819 -91 2034 -91 
Q 1250 -91 836 529 
Q 422 1150 422 2328 
Q 422 3509 836 4129 
Q 1250 4750 2034 4750 
z
" transform="scale(0.015625)"/>
       </defs>
       <use xlink:href="#DejaVuSans-30"/>
      </g>
     </g>
    </g>
    <g id="xtick_2">
     <g id="line2d_2">
      <g>
       <use xlink:href="#mc11ee49418" x="433.04074" y="512.64" style="stroke: #000000; stroke-width: 0.8"/>
      </g>
     </g>
     <g id="text_2">
      <!-- 500 -->
      <g transform="translate(423.49699 527.238438) scale(0.1 -0.1)">
       <defs>
        <path id="DejaVuSans-35" d="M 691 4666 
L 3169 4666 
L 3169 4134 
L 1269 4134 
L 1269 2991 
Q 1406 3038 1543 3061 
Q 1681 3084 1819 3084 
Q 2600 3084 3056 2656 
Q 3513 2228 3513 1497 
Q 3513 744 3044 326 
Q 2575 -91 1722 -91 
Q 1428 -91 1123 -41 
Q 819 9 494 109 
L 494 744 
Q 775 591 1075 516 
Q 1375 441 1709 441 
Q 2250 441 2565 725 
Q 2881 1009 2881 1497 
Q 2881 1984 2565 2268 
Q 2250 2553 1709 2553 
Q 1456 2553 1204 2497 
Q 953 2441 691 2322 
L 691 4666 
z
" transform="scale(0.015625)"/>
       </defs>
       <use xlink:href="#DejaVuSans-35"/>
       <use xlink:href="#DejaVuSans-30" x="63.623047"/>
       <use xlink:href="#DejaVuSans-30" x="127.246094"/>
      </g>
     </g>
    </g>
    <g id="xtick_3">
     <g id="line2d_3">
      <g>
       <use xlink:href="#mc11ee49418" x="636.346913" y="512.64" style="stroke: #000000; stroke-width: 0.8"/>
      </g>
     </g>
     <g id="text_3">
      <!-- 1000 -->
      <g transform="translate(623.621913 527.238438) scale(0.1 -0.1)">
       <defs>
        <path id="DejaVuSans-31" d="M 794 531 
L 1825 531 
L 1825 4091 
L 703 3866 
L 703 4441 
L 1819 4666 
L 2450 4666 
L 2450 531 
L 3481 531 
L 3481 0 
L 794 0 
L 794 531 
z
" transform="scale(0.015625)"/>
       </defs>
       <use xlink:href="#DejaVuSans-31"/>
       <use xlink:href="#DejaVuSans-30" x="63.623047"/>
       <use xlink:href="#DejaVuSans-30" x="127.246094"/>
       <use xlink:href="#DejaVuSans-30" x="190.869141"/>
      </g>
     </g>
    </g>
    <g id="xtick_4">
     <g id="line2d_4">
      <g>
       <use xlink:href="#mc11ee49418" x="839.653087" y="512.64" style="stroke: #000000; stroke-width: 0.8"/>
      </g>
     </g>
     <g id="text_4">
      <!-- 1500 -->
      <g transform="translate(826.928087 527.238438) scale(0.1 -0.1)">
       <use xlink:href="#DejaVuSans-31"/>
       <use xlink:href="#DejaVuSans-35" x="63.623047"/>
       <use xlink:href="#DejaVuSans-30" x="127.246094"/>
       <use xlink:href="#DejaVuSans-30" x="190.869141"/>
      </g>
     </g>
    </g>
    <g id="xtick_5">
     <g id="line2d_5">
      <g>
       <use xlink:href="#mc11ee49418" x="1042.95926" y="512.64" style="stroke: #000000; stroke-width: 0.8"/>
      </g>
     </g>
     <g id="text_5">
      <!-- 2000 -->
      <g transform="translate(1030.23426 527.238438) scale(0.1 -0.1)">
       <defs>
        <path id="DejaVuSans-32" d="M 1228 531 
L 3431 531 
L 3431 0 
L 469 0 
L 469 531 
Q 828 903 1448 1529 
Q 2069 2156 2228 2338 
Q 2531 2678 2651 2914 
Q 2772 3150 2772 3378 
Q 2772 3750 2511 3984 
Q 2250 4219 1831 4219 
Q 1534 4219 1204 4116 
Q 875 4013 500 3803 
L 500 4441 
Q 881 4594 1212 4672 
Q 1544 4750 1819 4750 
Q 2544 4750 2975 4387 
Q 3406 4025 3406 3419 
Q 3406 3131 3298 2873 
Q 3191 2616 2906 2266 
Q 2828 2175 2409 1742 
Q 1991 1309 1228 531 
z
" transform="scale(0.015625)"/>
       </defs>
       <use xlink:href="#DejaVuSans-32"/>
       <use xlink:href="#DejaVuSans-30" x="63.623047"/>
       <use xlink:href="#DejaVuSans-30" x="127.246094"/>
       <use xlink:href="#DejaVuSans-30" x="190.869141"/>
      </g>
     </g>
    </g>
    <g id="xtick_6">
     <g id="line2d_6">
      <g>
       <use xlink:href="#mc11ee49418" x="1246.265433" y="512.64" style="stroke: #000000; stroke-width: 0.8"/>
      </g>
     </g>
     <g id="text_6">
      <!-- 2500 -->
      <g transform="translate(1233.540433 527.238438) scale(0.1 -0.1)">
       <use xlink:href="#DejaVuSans-32"/>
       <use xlink:href="#DejaVuSans-35" x="63.623047"/>
       <use xlink:href="#DejaVuSans-30" x="127.246094"/>
       <use xlink:href="#DejaVuSans-30" x="190.869141"/>
      </g>
     </g>
    </g>
   </g>
   <g id="matplotlib.axis_2">
    <g id="ytick_1">
     <g id="line2d_7">
      <defs>
       <path id="m35ff2e0fcc" d="M 0 0 
L -3.5 0 
" style="stroke: #000000; stroke-width: 0.8"/>
      </defs>
      <g>
       <use xlink:href="#m35ff2e0fcc" x="180" y="457.429505" style="stroke: #000000; stroke-width: 0.8"/>
      </g>
     </g>
     <g id="text_7">
      <!-- −6 -->
      <g transform="translate(158.257812 461.228724) scale(0.1 -0.1)">
       <defs>
        <path id="DejaVuSans-2212" d="M 678 2272 
L 4684 2272 
L 4684 1741 
L 678 1741 
L 678 2272 
z
" transform="scale(0.015625)"/>
        <path id="DejaVuSans-36" d="M 2113 2584 
Q 1688 2584 1439 2293 
Q 1191 2003 1191 1497 
Q 1191 994 1439 701 
Q 1688 409 2113 409 
Q 2538 409 2786 701 
Q 3034 994 3034 1497 
Q 3034 2003 2786 2293 
Q 2538 2584 2113 2584 
z
M 3366 4563 
L 3366 3988 
Q 3128 4100 2886 4159 
Q 2644 4219 2406 4219 
Q 1781 4219 1451 3797 
Q 1122 3375 1075 2522 
Q 1259 2794 1537 2939 
Q 1816 3084 2150 3084 
Q 2853 3084 3261 2657 
Q 3669 2231 3669 1497 
Q 3669 778 3244 343 
Q 2819 -91 2113 -91 
Q 1303 -91 875 529 
Q 447 1150 447 2328 
Q 447 3434 972 4092 
Q 1497 4750 2381 4750 
Q 2619 4750 2861 4703 
Q 3103 4656 3366 4563 
z
" transform="scale(0.015625)"/>
       </defs>
       <use xlink:href="#DejaVuSans-2212"/>
       <use xlink:href="#DejaVuSans-36" x="83.789062"/>
      </g>
     </g>
    </g>
    <g id="ytick_2">
     <g id="line2d_8">
      <g>
       <use xlink:href="#m35ff2e0fcc" x="180" y="382.219666" style="stroke: #000000; stroke-width: 0.8"/>
      </g>
     </g>
     <g id="text_8">
      <!-- −4 -->
      <g transform="translate(158.257812 386.018884) scale(0.1 -0.1)">
       <defs>
        <path id="DejaVuSans-34" d="M 2419 4116 
L 825 1625 
L 2419 1625 
L 2419 4116 
z
M 2253 4666 
L 3047 4666 
L 3047 1625 
L 3713 1625 
L 3713 1100 
L 3047 1100 
L 3047 0 
L 2419 0 
L 2419 1100 
L 313 1100 
L 313 1709 
L 2253 4666 
z
" transform="scale(0.015625)"/>
       </defs>
       <use xlink:href="#DejaVuSans-2212"/>
       <use xlink:href="#DejaVuSans-34" x="83.789062"/>
      </g>
     </g>
    </g>
    <g id="ytick_3">
     <g id="line2d_9">
      <g>
       <use xlink:href="#m35ff2e0fcc" x="180" y="307.009826" style="stroke: #000000; stroke-width: 0.8"/>
      </g>
     </g>
     <g id="text_9">
      <!-- −2 -->
      <g transform="translate(158.257812 310.809045) scale(0.1 -0.1)">
       <use xlink:href="#DejaVuSans-2212"/>
       <use xlink:href="#DejaVuSans-32" x="83.789062"/>
      </g>
     </g>
    </g>
    <g id="ytick_4">
     <g id="line2d_10">
      <g>
       <use xlink:href="#m35ff2e0fcc" x="180" y="231.799987" style="stroke: #000000; stroke-width: 0.8"/>
      </g>
     </g>
     <g id="text_10">
      <!-- 0 -->
      <g transform="translate(166.6375 235.599205) scale(0.1 -0.1)">
       <use xlink:href="#DejaVuSans-30"/>
      </g>
     </g>
    </g>
    <g id="ytick_5">
     <g id="line2d_11">
      <g>
       <use xlink:href="#m35ff2e0fcc" x="180" y="156.590147" style="stroke: #000000; stroke-width: 0.8"/>
      </g>
     </g>
     <g id="text_11">
      <!-- 2 -->
      <g transform="translate(166.6375 160.389366) scale(0.1 -0.1)">
       <use xlink:href="#DejaVuSans-32"/>
      </g>
     </g>
    </g>
    <g id="ytick_6">
     <g id="line2d_12">
      <g>
       <use xlink:href="#m35ff2e0fcc" x="180" y="81.380307" style="stroke: #000000; stroke-width: 0.8"/>
      </g>
     </g>
     <g id="text_12">
      <!-- 4 -->
      <g transform="translate(166.6375 85.179526) scale(0.1 -0.1)">
       <use xlink:href="#DejaVuSans-34"/>
      </g>
     </g>
    </g>
   </g>
   <g id="line2d_13">
    <path d="M 230.727273 308.499378 
L 231.719979 307.339111 
L 232.712685 307.456471 
L 236.683508 303.687584 
L 239.661626 298.376291 
L 240.654332 295.927394 
L 242.639744 289.895611 
L 243.63245 287.127758 
L 244.625156 278.326648 
L 245.617862 275.014453 
L 246.610568 304.095957 
L 247.603273 263.027039 
L 248.595979 242.434884 
L 249.588685 192.260406 
L 250.581391 176.044794 
L 251.574097 180.089674 
L 252.566803 180.090615 
L 253.559509 197.891207 
L 254.552215 175.252404 
L 255.544921 161.794054 
L 256.537627 174.790603 
L 257.530333 169.568817 
L 258.523039 155.777956 
L 259.515745 153.520178 
L 260.50845 146.289144 
L 261.501156 129.129765 
L 262.493862 122.211197 
L 263.486568 129.119471 
L 264.479274 145.614297 
L 265.47198 139.325 
L 266.464686 139.388259 
L 267.457392 147.094691 
L 268.450098 157.743321 
L 269.442804 155.971053 
L 270.43551 173.700228 
L 271.428216 140.122373 
L 272.420922 158.796229 
L 273.413627 140.632753 
L 274.406333 137.105286 
L 275.399039 118.974895 
L 276.391745 114.116603 
L 277.384451 117.692431 
L 278.377157 127.781061 
L 279.369863 101.305643 
L 280.362569 89.28 
L 281.355275 92.997445 
L 282.347981 105.79423 
L 283.340687 123.896388 
L 284.333393 151.606379 
L 285.326099 224.694538 
L 286.318804 184.872703 
L 287.31151 170.571743 
L 288.304216 193.556277 
L 289.296922 198.053657 
L 290.289628 182.020933 
L 291.282334 201.184566 
L 292.27504 174.709562 
L 293.267746 179.250931 
L 295.253158 200.952669 
L 296.245864 220.05911 
L 297.23857 219.227727 
L 298.231276 224.027837 
L 299.223981 247.036823 
L 300.216687 235.603016 
L 301.209393 218.150775 
L 302.202099 227.908705 
L 303.194805 251.605373 
L 304.187511 262.54859 
L 305.180217 217.402384 
L 306.172923 219.371813 
L 307.165629 223.089588 
L 308.158335 217.850241 
L 309.151041 214.744756 
L 310.143747 230.374075 
L 311.136453 239.878805 
L 312.129159 297.654173 
L 313.121864 279.900175 
L 314.11457 307.703436 
L 315.107276 264.43087 
L 316.099982 262.95784 
L 317.092688 290.291581 
L 318.085394 278.18455 
L 319.0781 345.125525 
L 320.070806 289.131241 
L 321.063512 305.249772 
L 322.056218 312.85043 
L 323.048924 332.162825 
L 324.04163 306.816213 
L 325.034336 348.343548 
L 326.027041 292.69197 
L 327.019747 334.267672 
L 328.012453 313.468004 
L 329.005159 309.631345 
L 329.997865 332.812238 
L 330.990571 323.37747 
L 331.983277 302.190339 
L 332.975983 296.433024 
L 333.968689 314.062951 
L 334.961395 297.509258 
L 335.954101 336.722522 
L 336.946807 359.125912 
L 337.939513 328.879872 
L 338.932218 324.992512 
L 339.924924 301.815697 
L 340.91763 316.693872 
L 341.910336 346.150096 
L 342.903042 342.334527 
L 343.895748 347.963159 
L 344.888454 332.593393 
L 345.88116 337.006164 
L 346.873866 319.5391 
L 347.866572 331.841103 
L 348.859278 346.923233 
L 349.851984 395.480095 
L 350.84469 369.814638 
L 351.837395 333.446507 
L 352.830101 338.91152 
L 353.822807 332.673832 
L 354.815513 387.093058 
L 355.808219 307.60306 
L 356.800925 346.078182 
L 357.793631 317.482775 
L 358.786337 336.612523 
L 359.779043 371.444423 
L 360.771749 351.846436 
L 361.764455 353.727135 
L 362.757161 338.800743 
L 363.749867 306.168893 
L 364.742572 378.108337 
L 365.735278 340.183168 
L 366.727984 347.489184 
L 367.72069 351.616173 
L 368.713396 336.712769 
L 369.706102 360.872087 
L 370.698808 333.057249 
L 371.691514 346.534614 
L 372.68422 381.657644 
L 373.676926 324.730646 
L 374.669632 335.490992 
L 375.662338 343.977161 
L 376.655044 363.440633 
L 377.64775 369.049449 
L 378.640455 366.151657 
L 379.633161 388.362263 
L 381.618573 331.496131 
L 383.603985 350.276029 
L 384.596691 328.286256 
L 385.589397 341.032051 
L 386.582103 336.012369 
L 387.574809 354.059681 
L 388.567515 377.058331 
L 389.560221 350.183172 
L 390.552927 343.571835 
L 391.545632 370.591346 
L 392.538338 370.180326 
L 393.531044 403.970403 
L 394.52375 363.220774 
L 395.516456 380.570306 
L 396.509162 342.64222 
L 397.501868 392.64736 
L 398.494574 343.917408 
L 399.48728 401.07793 
L 400.479986 324.352758 
L 401.472692 348.08407 
L 402.465398 356.683536 
L 403.458104 344.350357 
L 404.450809 341.527572 
L 405.443515 347.789281 
L 406.436221 347.292839 
L 407.428927 338.884087 
L 408.421633 354.023053 
L 409.414339 354.748938 
L 410.407045 351.915352 
L 411.399751 359.476139 
L 412.392457 338.073093 
L 413.385163 360.390079 
L 414.377869 361.138597 
L 415.370575 330.512265 
L 416.363281 353.81972 
L 417.355986 385.781452 
L 418.348692 365.605061 
L 419.341398 350.203767 
L 420.334104 318.669142 
L 421.32681 350.571285 
L 422.319516 349.83144 
L 423.312222 346.488354 
L 424.304928 388.661674 
L 425.297634 341.345594 
L 426.29034 350.555295 
L 427.283046 397.956056 
L 428.275752 397.511183 
L 429.268458 366.31563 
L 430.261163 370.22381 
L 431.253869 348.030298 
L 432.246575 362.725303 
L 433.239281 362.047792 
L 434.231987 370.864753 
L 435.224693 352.826295 
L 436.217399 343.791508 
L 437.210105 338.371844 
L 438.202811 382.660196 
L 439.195517 372.915913 
L 440.188223 376.759506 
L 441.180929 376.752996 
L 442.173635 341.138267 
L 443.166341 355.762574 
L 444.159046 362.669864 
L 445.151752 372.59653 
L 446.144458 362.031053 
L 447.137164 479.393574 
L 448.12987 355.677559 
L 450.115282 373.835967 
L 451.107988 399.758117 
L 452.100694 326.931603 
L 453.0934 354.900443 
L 454.086106 368.85782 
L 455.078812 346.975365 
L 456.071518 392.791904 
L 457.064223 363.387846 
L 458.056929 364.007211 
L 459.049635 365.895841 
L 460.042341 350.348724 
L 461.035047 353.377496 
L 462.027753 355.593472 
L 463.020459 356.112099 
L 464.013165 354.056445 
L 465.005871 433.649561 
L 465.998577 405.043775 
L 466.991283 334.312121 
L 467.983989 354.340444 
L 468.976695 492.48 
L 469.9694 341.068943 
L 470.962106 357.965263 
L 471.954812 341.519331 
L 472.947518 351.675459 
L 473.940224 364.237048 
L 474.93293 342.135234 
L 475.925636 395.596725 
L 476.918342 346.967053 
L 477.911048 333.423832 
L 478.903754 364.35712 
L 479.89646 403.555598 
L 480.889166 370.616822 
L 481.881872 375.510307 
L 482.874577 350.963105 
L 483.867283 361.783753 
L 484.859989 339.115736 
L 485.852695 354.73326 
L 486.845401 395.216584 
L 487.838107 352.673011 
L 488.830813 371.961709 
L 489.823519 343.679691 
L 490.816225 377.253498 
L 491.808931 377.002844 
L 492.801637 349.856484 
L 493.794343 375.602755 
L 494.787049 346.256728 
L 495.779754 377.827833 
L 496.77246 359.608389 
L 497.765166 383.790212 
L 498.757872 335.658234 
L 499.750578 412.971234 
L 500.743284 395.521404 
L 501.73599 345.556037 
L 502.728696 381.632901 
L 503.721402 346.91363 
L 504.714108 351.607709 
L 505.706814 379.013189 
L 506.69952 355.814802 
L 507.692226 351.174613 
L 508.684932 355.193575 
L 509.677637 344.773392 
L 510.670343 353.331174 
L 511.663049 355.099241 
L 512.655755 406.178039 
L 513.648461 385.395715 
L 514.641167 397.807697 
L 515.633873 329.367528 
L 516.626579 386.602002 
L 517.619285 356.673653 
L 518.611991 390.12522 
L 519.604697 358.109517 
L 520.597403 419.430932 
L 521.590109 367.731203 
L 522.582814 351.429411 
L 523.57552 391.994807 
L 524.568226 376.299267 
L 525.560932 385.337889 
L 526.553638 359.625866 
L 527.546344 466.045443 
L 528.53905 391.959302 
L 529.531756 351.795222 
L 530.524462 366.233072 
L 531.517168 356.055704 
L 532.509874 366.76698 
L 533.50258 363.487052 
L 534.495286 364.622758 
L 535.487991 351.033363 
L 536.480697 345.42271 
L 537.473403 373.380068 
L 538.466109 352.411218 
L 539.458815 360.22029 
L 540.451521 357.351108 
L 541.444227 382.678218 
L 542.436933 414.133945 
L 543.429639 317.447916 
L 544.422345 348.96689 
L 545.415051 343.709814 
L 546.407757 368.316712 
L 547.400463 374.571981 
L 548.393168 342.203119 
L 549.385874 424.123469 
L 550.37858 394.000857 
L 551.371286 418.076567 
L 552.363992 383.098151 
L 553.356698 354.097384 
L 554.349404 380.936228 
L 555.34211 374.31134 
L 556.334816 373.121267 
L 557.327522 436.447691 
L 558.320228 366.850204 
L 559.312934 369.613201 
L 561.298345 407.319449 
L 562.291051 386.263712 
L 563.283757 383.23448 
L 564.276463 359.35574 
L 565.269169 409.907161 
L 566.261875 368.301229 
L 567.254581 376.511828 
L 568.247287 366.435539 
L 569.239993 373.469481 
L 570.232699 351.120777 
L 571.225405 399.122599 
L 572.218111 355.364916 
L 573.210817 420.17916 
L 574.203523 390.172186 
L 575.196228 397.753587 
L 576.188934 414.445911 
L 577.18164 369.155848 
L 578.174346 369.753964 
L 579.167052 365.66317 
L 580.159758 357.182565 
L 582.14517 402.119908 
L 583.137876 361.780851 
L 584.130582 366.872583 
L 585.123288 353.116819 
L 586.115994 380.960905 
L 587.1087 392.853636 
L 588.101405 357.300224 
L 589.094111 426.533415 
L 590.086817 349.122159 
L 591.079523 361.273313 
L 592.072229 363.937137 
L 593.064935 340.598025 
L 594.057641 409.105092 
L 595.050347 370.112343 
L 596.043053 411.725674 
L 597.035759 361.242824 
L 598.028465 393.008571 
L 599.021171 357.192708 
L 600.013877 381.138697 
L 601.006582 368.193885 
L 601.999288 383.54796 
L 602.991994 380.200271 
L 603.9847 412.834227 
L 604.977406 402.39181 
L 605.970112 372.980004 
L 606.962818 376.152641 
L 607.955524 383.670696 
L 608.94823 383.043675 
L 609.940936 416.975025 
L 610.933642 427.98394 
L 611.926348 371.888666 
L 612.919054 415.286817 
L 613.911759 360.279486 
L 614.904465 366.011048 
L 615.897171 372.519035 
L 616.889877 375.862367 
L 617.882583 381.035352 
L 618.875289 409.645816 
L 619.867995 394.000738 
L 620.860701 403.590895 
L 621.853407 369.182936 
L 622.846113 389.911018 
L 623.838819 390.576121 
L 624.831525 363.234538 
L 625.824231 410.153948 
L 626.816936 391.195743 
L 627.809642 366.759554 
L 628.802348 367.320715 
L 629.795054 391.40853 
L 630.78776 385.628356 
L 631.780466 391.199843 
L 632.773172 403.587471 
L 633.765878 398.466838 
L 634.758584 379.793251 
L 635.75129 378.996088 
L 636.743996 381.135788 
L 637.736702 388.30209 
L 638.729408 441.048596 
L 639.722114 373.324484 
L 640.714819 381.625088 
L 641.707525 417.785496 
L 642.700231 397.587837 
L 643.692937 382.312893 
L 644.685643 389.126417 
L 645.678349 388.546925 
L 646.671055 376.644694 
L 647.663761 413.850435 
L 648.656467 438.366949 
L 649.649173 380.458098 
L 650.641879 387.55188 
L 651.634585 368.58824 
L 652.627291 399.03244 
L 653.619996 388.31482 
L 654.612702 402.569294 
L 655.605408 396.241397 
L 656.598114 457.469015 
L 657.59082 381.583044 
L 659.576232 403.893976 
L 660.568938 402.237862 
L 661.561644 389.887946 
L 662.55435 392.146939 
L 663.547056 391.421855 
L 664.539762 385.313388 
L 665.532468 394.278594 
L 666.525173 386.771542 
L 667.517879 386.041758 
L 668.510585 399.267299 
L 669.503291 409.895493 
L 670.495997 425.995537 
L 671.488703 392.030813 
L 672.481409 404.370777 
L 673.474115 387.499414 
L 674.466821 388.974261 
L 675.459527 399.405873 
L 676.452233 389.326539 
L 677.444939 399.083588 
L 678.437645 397.889616 
L 679.43035 409.053425 
L 680.423056 384.583014 
L 681.415762 407.940752 
L 682.408468 400.400325 
L 683.401174 406.21348 
L 684.39388 416.362557 
L 685.386586 401.72725 
L 686.379292 398.190807 
L 687.371998 396.463065 
L 688.364704 385.164485 
L 689.35741 412.540088 
L 690.350116 397.489532 
L 691.342822 400.333481 
L 692.335527 400.448205 
L 693.328233 398.834721 
L 694.320939 397.87108 
L 696.306351 401.733665 
L 697.299057 413.699345 
L 698.291763 419.693059 
L 699.284469 404.129291 
L 700.277175 406.936277 
L 701.269881 404.26633 
L 702.262587 411.8379 
L 703.255293 403.358873 
L 704.247999 407.86564 
L 705.240705 401.089658 
L 706.23341 398.84014 
L 707.226116 406.078686 
L 708.218822 408.335933 
L 709.211528 405.142874 
L 710.204234 402.430863 
L 711.19694 397.663039 
L 712.189646 408.364195 
L 713.182352 403.129236 
L 714.175058 403.995027 
L 715.167764 402.915833 
L 716.16047 406.367508 
L 717.153176 402.650373 
L 718.145882 398.365578 
L 719.138587 393.088032 
L 720.131293 407.438218 
L 721.123999 403.333708 
L 722.116705 406.702861 
L 723.109411 406.84225 
L 724.102117 405.742548 
L 725.094823 402.672509 
L 726.087529 404.373841 
L 727.080235 403.526828 
L 728.072941 402.39699 
L 729.065647 403.000208 
L 730.058353 409.756799 
L 731.051059 395.708853 
L 732.043764 401.766502 
L 733.03647 404.716549 
L 734.029176 410.065516 
L 735.021882 403.398285 
L 736.014588 405.114656 
L 737.007294 403.775562 
L 738 407.245707 
L 738.992706 404.746587 
L 739.985412 405.881267 
L 740.978118 401.85454 
L 741.970824 407.923921 
L 742.96353 405.074045 
L 743.956236 404.130396 
L 744.948941 401.773101 
L 745.941647 409.760125 
L 746.934353 403.047528 
L 747.927059 406.387061 
L 748.919765 402.3887 
L 749.912471 404.76042 
L 750.905177 397.133713 
L 751.897883 404.082803 
L 752.890589 409.920149 
L 753.883295 405.007676 
L 754.876001 401.652967 
L 755.868707 402.730828 
L 756.861413 405.079453 
L 757.854118 405.249802 
L 758.846824 404.804093 
L 759.83953 402.972849 
L 760.832236 402.917525 
L 761.824942 406.976181 
L 762.817648 407.642031 
L 763.810354 410.849467 
L 764.80306 401.890434 
L 765.795766 405.804546 
L 766.788472 405.639 
L 767.781178 410.047873 
L 768.773884 403.605533 
L 769.76659 407.330997 
L 770.759295 409.142103 
L 771.752001 406.739859 
L 772.744707 403.990555 
L 774.730119 402.45501 
L 775.722825 415.064137 
L 776.715531 405.378123 
L 777.708237 403.010028 
L 778.700943 411.067711 
L 779.693649 415.369117 
L 780.686355 398.232738 
L 781.679061 417.937309 
L 782.671767 400.702967 
L 783.664473 406.949203 
L 784.657178 406.508916 
L 785.649884 409.093119 
L 786.64259 406.905556 
L 787.635296 405.483706 
L 788.628002 404.591604 
L 789.620708 410.123204 
L 790.613414 404.37617 
L 791.60612 405.789146 
L 792.598826 406.622057 
L 793.591532 406.452652 
L 794.584238 404.834649 
L 795.576944 407.21396 
L 796.56965 413.448804 
L 797.562355 404.098286 
L 798.555061 404.847294 
L 799.547767 402.993347 
L 800.540473 403.893223 
L 801.533179 407.149828 
L 803.518591 401.30995 
L 804.511297 407.976435 
L 805.504003 406.030183 
L 806.496709 412.514053 
L 807.489415 414.400494 
L 808.482121 405.297267 
L 809.474827 413.014678 
L 810.467532 409.395323 
L 811.460238 406.453834 
L 812.452944 404.806526 
L 813.44565 409.774205 
L 814.438356 414.011309 
L 815.431062 413.374377 
L 816.423768 408.342532 
L 817.416474 410.996966 
L 818.40918 404.561606 
L 819.401886 410.550578 
L 820.394592 408.869228 
L 821.387298 409.146751 
L 822.380004 412.104342 
L 823.372709 405.052199 
L 824.365415 409.265611 
L 825.358121 409.06512 
L 826.350827 412.515466 
L 827.343533 406.637036 
L 828.336239 407.194326 
L 829.328945 408.86102 
L 830.321651 409.146612 
L 831.314357 406.7611 
L 832.307063 407.869193 
L 833.299769 412.025918 
L 834.292475 412.295923 
L 835.285181 407.960406 
L 836.277886 405.983183 
L 837.270592 404.557022 
L 838.263298 400.681424 
L 840.24871 416.636063 
L 841.241416 414.143004 
L 842.234122 405.88499 
L 843.226828 406.970574 
L 844.219534 410.335279 
L 845.21224 409.532891 
L 846.204946 417.101306 
L 847.197652 418.373661 
L 848.190358 409.546299 
L 849.183064 408.714564 
L 850.175769 408.261191 
L 851.168475 405.996812 
L 852.161181 417.786779 
L 853.153887 409.414837 
L 854.146593 409.280899 
L 855.139299 412.775266 
L 856.132005 405.027765 
L 857.124711 407.554222 
L 858.117417 408.819697 
L 859.110123 408.057828 
L 860.102829 411.711458 
L 861.095535 412.508297 
L 862.088241 418.809265 
L 863.080946 410.426177 
L 864.073652 417.009076 
L 865.066358 411.257511 
L 866.059064 414.027665 
L 867.05177 410.645622 
L 868.044476 413.420013 
L 869.037182 409.294806 
L 870.029888 412.478423 
L 871.022594 408.04125 
L 872.0153 408.183875 
L 873.008006 408.697746 
L 874.000712 419.03973 
L 874.993418 413.480649 
L 875.986123 411.721103 
L 876.978829 411.860844 
L 877.971535 409.30926 
L 878.964241 415.481666 
L 879.956947 403.983946 
L 880.949653 412.466262 
L 881.942359 410.952401 
L 882.935065 412.082807 
L 883.927771 411.026915 
L 884.920477 416.261934 
L 885.913183 409.902097 
L 886.905889 415.842368 
L 887.898595 410.075565 
L 888.8913 406.44877 
L 889.884006 414.457413 
L 890.876712 410.656385 
L 891.869418 415.59169 
L 892.862124 413.112836 
L 893.85483 416.112957 
L 894.847536 408.26556 
L 895.840242 415.686616 
L 896.832948 409.673995 
L 897.825654 417.93351 
L 898.81836 410.416793 
L 899.811066 405.47028 
L 900.803772 414.712995 
L 901.796477 416.35139 
L 902.789183 411.469879 
L 903.781889 407.97591 
L 904.774595 410.717234 
L 905.767301 421.541557 
L 906.760007 409.094674 
L 907.752713 413.556893 
L 908.745419 408.189728 
L 909.738125 413.076622 
L 910.730831 420.923182 
L 911.723537 415.67113 
L 912.716243 411.581218 
L 913.708949 415.179748 
L 914.701655 407.429784 
L 915.69436 409.856507 
L 916.687066 415.12106 
L 918.672478 413.08938 
L 919.665184 417.335519 
L 920.65789 416.570785 
L 921.650596 409.65308 
L 922.643302 411.808525 
L 923.636008 412.112811 
L 924.628714 409.811397 
L 925.62142 411.693559 
L 926.614126 413.137159 
L 927.606832 414.304696 
L 928.599537 415.732184 
L 929.592243 415.292334 
L 930.584949 412.792895 
L 931.577655 412.385842 
L 932.570361 417.594941 
L 933.563067 410.316812 
L 934.555773 413.120125 
L 935.548479 409.71834 
L 936.541185 406.784625 
L 937.533891 413.154413 
L 938.526597 413.448181 
L 939.519303 409.966394 
L 940.512009 420.398846 
L 941.504714 406.753547 
L 942.49742 412.440717 
L 943.490126 416.541277 
L 944.482832 422.575376 
L 945.475538 409.842935 
L 946.468244 410.981746 
L 947.46095 415.421664 
L 948.453656 411.235372 
L 949.446362 410.785473 
L 950.439068 411.588973 
L 951.431774 414.982455 
L 952.42448 410.984558 
L 953.417186 417.523174 
L 954.409891 418.321763 
L 955.402597 417.17827 
L 956.395303 415.117072 
L 957.388009 407.720266 
L 958.380715 407.726919 
L 959.373421 424.48226 
L 960.366127 415.260478 
L 961.358833 419.350766 
L 962.351539 411.020342 
L 963.344245 408.433697 
L 964.336951 428.388616 
L 965.329657 409.636223 
L 966.322363 410.733169 
L 967.315068 413.502729 
L 968.307774 412.478303 
L 969.30048 412.268947 
L 970.293186 419.105029 
L 971.285892 413.059333 
L 972.278598 413.339978 
L 973.271304 418.468166 
L 974.26401 407.87383 
L 975.256716 412.591825 
L 976.249422 410.709255 
L 977.242128 411.221477 
L 979.22754 414.23577 
L 980.220246 418.384954 
L 981.212951 415.652764 
L 982.205657 415.342481 
L 983.198363 418.96042 
L 984.191069 420.42461 
L 985.183775 414.353906 
L 986.176481 423.596064 
L 987.169187 414.800632 
L 988.161893 409.771345 
L 989.154599 413.009223 
L 990.147305 415.571978 
L 991.140011 418.684285 
L 992.132717 415.094707 
L 993.125423 414.239376 
L 994.118128 412.73718 
L 995.110834 406.907575 
L 996.10354 409.100771 
L 997.096246 409.351322 
L 998.088952 419.933077 
L 999.081658 416.667798 
L 1000.074364 408.363708 
L 1001.06707 415.735153 
L 1002.059776 411.918679 
L 1003.052482 416.316229 
L 1004.045188 411.218239 
L 1005.037894 412.440002 
L 1006.0306 419.132967 
L 1007.023305 418.843388 
L 1008.016011 413.664662 
L 1009.008717 419.190035 
L 1010.001423 414.177051 
L 1010.994129 414.905414 
L 1011.986835 413.331566 
L 1012.979541 417.150772 
L 1013.972247 411.337857 
L 1014.964953 414.878157 
L 1015.957659 417.831231 
L 1016.950365 414.79991 
L 1017.943071 417.228717 
L 1018.935777 412.394423 
L 1019.928482 420.084346 
L 1020.921188 418.526556 
L 1021.913894 414.929578 
L 1022.9066 410.177248 
L 1023.899306 416.585537 
L 1024.892012 415.382812 
L 1025.884718 410.35021 
L 1026.877424 415.34574 
L 1027.87013 418.39599 
L 1028.862836 420.089605 
L 1029.855542 420.553194 
L 1030.848248 424.477637 
L 1031.840954 417.481916 
L 1032.833659 415.911067 
L 1033.826365 421.205581 
L 1034.819071 411.11347 
L 1035.811777 416.197258 
L 1036.804483 416.77266 
L 1037.797189 412.777599 
L 1038.789895 422.540834 
L 1039.782601 417.093438 
L 1040.775307 415.083531 
L 1041.768013 417.991668 
L 1042.760719 419.13078 
L 1043.753425 417.640129 
L 1044.746131 420.066663 
L 1045.738837 411.214673 
L 1046.731542 416.324583 
L 1047.724248 420.255796 
L 1048.716954 415.723493 
L 1049.70966 417.886469 
L 1050.702366 414.688296 
L 1051.695072 419.512189 
L 1052.687778 409.901151 
L 1053.680484 412.039049 
L 1054.67319 417.069754 
L 1055.665896 414.546442 
L 1056.658602 417.583777 
L 1057.651308 415.567072 
L 1058.644014 409.68157 
L 1059.636719 412.498002 
L 1060.629425 416.836193 
L 1061.622131 411.968368 
L 1062.614837 417.687768 
L 1063.607543 419.988272 
L 1064.600249 420.426887 
L 1065.592955 410.151345 
L 1066.585661 419.666205 
L 1067.578367 428.087253 
L 1068.571073 420.583028 
L 1069.563779 416.848012 
L 1070.556485 408.450009 
L 1071.549191 421.848397 
L 1072.541896 420.487382 
L 1073.534602 419.495802 
L 1074.527308 423.032241 
L 1075.520014 408.521449 
L 1076.51272 407.367313 
L 1077.505426 416.109932 
L 1078.498132 421.125041 
L 1079.490838 416.71754 
L 1080.483544 417.935765 
L 1081.47625 417.649896 
L 1082.468956 410.002131 
L 1083.461662 418.242941 
L 1084.454368 424.973282 
L 1085.447073 415.441617 
L 1086.439779 415.222652 
L 1087.432485 423.8087 
L 1088.425191 413.343547 
L 1089.417897 416.994207 
L 1090.410603 421.335112 
L 1091.403309 418.044201 
L 1092.396015 419.064727 
L 1093.388721 411.718873 
L 1094.381427 419.250374 
L 1095.374133 409.825138 
L 1096.366839 418.237254 
L 1097.359545 418.217403 
L 1098.35225 415.560154 
L 1099.344956 425.526176 
L 1100.337662 418.130017 
L 1101.330368 415.888619 
L 1102.323074 415.285725 
L 1103.31578 413.946947 
L 1104.308486 418.353855 
L 1105.301192 420.368939 
L 1106.293898 422.756935 
L 1107.286604 418.429214 
L 1108.27931 419.404242 
L 1109.272016 419.719369 
L 1110.264722 417.90068 
L 1111.257428 415.616415 
L 1112.250133 421.303425 
L 1114.235545 412.681286 
L 1115.228251 421.764241 
L 1116.220957 422.98812 
L 1117.213663 420.694429 
L 1118.206369 417.682272 
L 1119.199075 417.09921 
L 1120.191781 415.966507 
L 1121.184487 420.466278 
L 1122.177193 419.78663 
L 1123.169899 424.381327 
L 1124.162605 413.046514 
L 1125.15531 414.421697 
L 1126.148016 417.493958 
L 1127.140722 419.503747 
L 1128.133428 418.404718 
L 1129.126134 419.583053 
L 1130.11884 415.251376 
L 1131.111546 422.804477 
L 1132.104252 414.280061 
L 1133.096958 416.463501 
L 1134.089664 424.127467 
L 1135.08237 417.208707 
L 1136.075076 414.071021 
L 1138.060487 422.082328 
L 1139.053193 418.777817 
L 1140.045899 417.852869 
L 1141.038605 412.298159 
L 1142.031311 419.708963 
L 1143.024017 412.171983 
L 1144.016723 424.133025 
L 1145.009429 418.028103 
L 1146.002135 414.210069 
L 1146.994841 422.100937 
L 1147.987547 421.260068 
L 1148.980253 415.86742 
L 1149.972959 416.586485 
L 1150.965664 411.003164 
L 1151.95837 414.23782 
L 1152.951076 422.053741 
L 1153.943782 418.663678 
L 1154.936488 425.058542 
L 1155.929194 419.911868 
L 1156.9219 424.346773 
L 1157.914606 415.462459 
L 1158.907312 420.153739 
L 1159.900018 415.717878 
L 1160.892724 417.515949 
L 1161.88543 426.319489 
L 1162.878136 412.974859 
L 1163.870841 413.247915 
L 1164.863547 421.527504 
L 1165.856253 417.276935 
L 1166.848959 410.9396 
L 1167.841665 412.464078 
L 1168.834371 412.893001 
L 1169.827077 416.389556 
L 1170.819783 422.209191 
L 1171.812489 420.053714 
L 1172.805195 421.675321 
L 1173.797901 418.319725 
L 1174.790607 420.80783 
L 1175.783313 413.38382 
L 1176.776019 418.884644 
L 1178.76143 416.887959 
L 1179.754136 430.554124 
L 1180.746842 418.874523 
L 1181.739548 418.424989 
L 1182.732254 414.538202 
L 1183.72496 414.817952 
L 1184.717666 420.807542 
L 1185.710372 414.996408 
L 1186.703078 419.600018 
L 1187.695784 427.521167 
L 1188.68849 430.074818 
L 1189.681196 411.481603 
L 1190.673901 412.222843 
L 1191.666607 423.533257 
L 1192.659313 413.91304 
L 1193.652019 413.459275 
L 1194.644725 420.895146 
L 1195.637431 422.12799 
L 1196.630137 418.470194 
L 1197.622843 417.063395 
L 1198.615549 419.794413 
L 1199.608255 420.095163 
L 1200.600961 415.385111 
L 1201.593667 416.965192 
L 1202.586373 420.06986 
L 1203.579078 420.025593 
L 1204.571784 420.893548 
L 1205.56449 421.219533 
L 1206.557196 424.343911 
L 1207.549902 424.451159 
L 1208.542608 416.501615 
L 1209.535314 422.484766 
L 1210.52802 417.584044 
L 1211.520726 421.567918 
L 1212.513432 415.073577 
L 1213.506138 410.352893 
L 1214.498844 412.190341 
L 1215.49155 421.302068 
L 1216.484255 417.044178 
L 1217.476961 420.53997 
L 1218.469667 410.521627 
L 1219.462373 418.65212 
L 1220.455079 423.726319 
L 1221.447785 416.04113 
L 1222.440491 416.897337 
L 1224.425903 411.208171 
L 1225.418609 421.17929 
L 1226.411315 413.411823 
L 1227.404021 421.084344 
L 1228.396727 420.449764 
L 1229.389432 420.135223 
L 1230.382138 418.030547 
L 1231.374844 422.77687 
L 1232.36755 423.900564 
L 1233.360256 419.939974 
L 1234.352962 425.794602 
L 1235.345668 416.493816 
L 1236.338374 413.002419 
L 1237.33108 416.473698 
L 1238.323786 423.665468 
L 1239.316492 420.897166 
L 1240.309198 416.407536 
L 1241.301904 422.46769 
L 1242.29461 422.073303 
L 1243.287315 415.78205 
L 1244.280021 412.066497 
L 1245.272727 413.556192 
L 1245.272727 413.556192 
" clip-path="url(#p4b27f400cb)" style="fill: none; stroke: #1f77b4; stroke-width: 1.5; stroke-linecap: square"/>
   </g>
   <g id="patch_3">
    <path d="M 180 512.64 
L 180 69.12 
" style="fill: none; stroke: #000000; stroke-width: 0.8; stroke-linejoin: miter; stroke-linecap: square"/>
   </g>
   <g id="patch_4">
    <path d="M 1296 512.64 
L 1296 69.12 
" style="fill: none; stroke: #000000; stroke-width: 0.8; stroke-linejoin: miter; stroke-linecap: square"/>
   </g>
   <g id="patch_5">
    <path d="M 180 512.64 
L 1296 512.64 
" style="fill: none; stroke: #000000; stroke-width: 0.8; stroke-linejoin: miter; stroke-linecap: square"/>
   </g>
   <g id="patch_6">
    <path d="M 180 69.12 
L 1296 69.12 
" style="fill: none; stroke: #000000; stroke-width: 0.8; stroke-linejoin: miter; stroke-linecap: square"/>
   </g>
   <g id="text_13">
    <!-- source16-receiver14 -->
    <g transform="translate(532.175 60.80125) scale(0.4 -0.4)">
     <defs>
      <path id="DejaVuSans-73" d="M 2834 3397 
L 2834 2853 
Q 2591 2978 2328 3040 
Q 2066 3103 1784 3103 
Q 1356 3103 1142 2972 
Q 928 2841 928 2578 
Q 928 2378 1081 2264 
Q 1234 2150 1697 2047 
L 1894 2003 
Q 2506 1872 2764 1633 
Q 3022 1394 3022 966 
Q 3022 478 2636 193 
Q 2250 -91 1575 -91 
Q 1294 -91 989 -36 
Q 684 19 347 128 
L 347 722 
Q 666 556 975 473 
Q 1284 391 1588 391 
Q 1994 391 2212 530 
Q 2431 669 2431 922 
Q 2431 1156 2273 1281 
Q 2116 1406 1581 1522 
L 1381 1569 
Q 847 1681 609 1914 
Q 372 2147 372 2553 
Q 372 3047 722 3315 
Q 1072 3584 1716 3584 
Q 2034 3584 2315 3537 
Q 2597 3491 2834 3397 
z
" transform="scale(0.015625)"/>
      <path id="DejaVuSans-6f" d="M 1959 3097 
Q 1497 3097 1228 2736 
Q 959 2375 959 1747 
Q 959 1119 1226 758 
Q 1494 397 1959 397 
Q 2419 397 2687 759 
Q 2956 1122 2956 1747 
Q 2956 2369 2687 2733 
Q 2419 3097 1959 3097 
z
M 1959 3584 
Q 2709 3584 3137 3096 
Q 3566 2609 3566 1747 
Q 3566 888 3137 398 
Q 2709 -91 1959 -91 
Q 1206 -91 779 398 
Q 353 888 353 1747 
Q 353 2609 779 3096 
Q 1206 3584 1959 3584 
z
" transform="scale(0.015625)"/>
      <path id="DejaVuSans-75" d="M 544 1381 
L 544 3500 
L 1119 3500 
L 1119 1403 
Q 1119 906 1312 657 
Q 1506 409 1894 409 
Q 2359 409 2629 706 
Q 2900 1003 2900 1516 
L 2900 3500 
L 3475 3500 
L 3475 0 
L 2900 0 
L 2900 538 
Q 2691 219 2414 64 
Q 2138 -91 1772 -91 
Q 1169 -91 856 284 
Q 544 659 544 1381 
z
M 1991 3584 
L 1991 3584 
z
" transform="scale(0.015625)"/>
      <path id="DejaVuSans-72" d="M 2631 2963 
Q 2534 3019 2420 3045 
Q 2306 3072 2169 3072 
Q 1681 3072 1420 2755 
Q 1159 2438 1159 1844 
L 1159 0 
L 581 0 
L 581 3500 
L 1159 3500 
L 1159 2956 
Q 1341 3275 1631 3429 
Q 1922 3584 2338 3584 
Q 2397 3584 2469 3576 
Q 2541 3569 2628 3553 
L 2631 2963 
z
" transform="scale(0.015625)"/>
      <path id="DejaVuSans-63" d="M 3122 3366 
L 3122 2828 
Q 2878 2963 2633 3030 
Q 2388 3097 2138 3097 
Q 1578 3097 1268 2742 
Q 959 2388 959 1747 
Q 959 1106 1268 751 
Q 1578 397 2138 397 
Q 2388 397 2633 464 
Q 2878 531 3122 666 
L 3122 134 
Q 2881 22 2623 -34 
Q 2366 -91 2075 -91 
Q 1284 -91 818 406 
Q 353 903 353 1747 
Q 353 2603 823 3093 
Q 1294 3584 2113 3584 
Q 2378 3584 2631 3529 
Q 2884 3475 3122 3366 
z
" transform="scale(0.015625)"/>
      <path id="DejaVuSans-65" d="M 3597 1894 
L 3597 1613 
L 953 1613 
Q 991 1019 1311 708 
Q 1631 397 2203 397 
Q 2534 397 2845 478 
Q 3156 559 3463 722 
L 3463 178 
Q 3153 47 2828 -22 
Q 2503 -91 2169 -91 
Q 1331 -91 842 396 
Q 353 884 353 1716 
Q 353 2575 817 3079 
Q 1281 3584 2069 3584 
Q 2775 3584 3186 3129 
Q 3597 2675 3597 1894 
z
M 3022 2063 
Q 3016 2534 2758 2815 
Q 2500 3097 2075 3097 
Q 1594 3097 1305 2825 
Q 1016 2553 972 2059 
L 3022 2063 
z
" transform="scale(0.015625)"/>
      <path id="DejaVuSans-2d" d="M 313 2009 
L 1997 2009 
L 1997 1497 
L 313 1497 
L 313 2009 
z
" transform="scale(0.015625)"/>
      <path id="DejaVuSans-69" d="M 603 3500 
L 1178 3500 
L 1178 0 
L 603 0 
L 603 3500 
z
M 603 4863 
L 1178 4863 
L 1178 4134 
L 603 4134 
L 603 4863 
z
" transform="scale(0.015625)"/>
      <path id="DejaVuSans-76" d="M 191 3500 
L 800 3500 
L 1894 563 
L 2988 3500 
L 3597 3500 
L 2284 0 
L 1503 0 
L 191 3500 
z
" transform="scale(0.015625)"/>
     </defs>
     <use xlink:href="#DejaVuSans-73"/>
     <use xlink:href="#DejaVuSans-6f" x="52.099609"/>
     <use xlink:href="#DejaVuSans-75" x="113.28125"/>
     <use xlink:href="#DejaVuSans-72" x="176.660156"/>
     <use xlink:href="#DejaVuSans-63" x="215.523438"/>
     <use xlink:href="#DejaVuSans-65" x="270.503906"/>
     <use xlink:href="#DejaVuSans-31" x="332.027344"/>
     <use xlink:href="#DejaVuSans-36" x="395.650391"/>
     <use xlink:href="#DejaVuSans-2d" x="459.273438"/>
     <use xlink:href="#DejaVuSans-72" x="495.357422"/>
     <use xlink:href="#DejaVuSans-65" x="534.220703"/>
     <use xlink:href="#DejaVuSans-63" x="595.744141"/>
     <use xlink:href="#DejaVuSans-65" x="650.724609"/>
     <use xlink:href="#DejaVuSans-69" x="712.248047"/>
     <use xlink:href="#DejaVuSans-76" x="740.03125"/>
     <use xlink:href="#DejaVuSans-65" x="799.210938"/>
     <use xlink:href="#DejaVuSans-72" x="860.734375"/>
     <use xlink:href="#DejaVuSans-31" x="901.847656"/>
     <use xlink:href="#DejaVuSans-34" x="965.470703"/>
    </g>
   </g>
  </g>
 </g>
 <defs>
  <clipPath id="p4b27f400cb">
   <rect x="180" y="69.12" width="1116" height="443.52"/>
  </clipPath>
 </defs>
</svg>
