<?xml version="1.0" encoding="utf-8" standalone="no"?>
<!DOCTYPE svg PUBLIC "-//W3C//DTD SVG 1.1//EN"
  "http://www.w3.org/Graphics/SVG/1.1/DTD/svg11.dtd">
<svg xmlns:xlink="http://www.w3.org/1999/xlink" width="1440pt" height="576pt" viewBox="0 0 1440 576" xmlns="http://www.w3.org/2000/svg" version="1.1">
 <metadata>
  <rdf:RDF xmlns:dc="http://purl.org/dc/elements/1.1/" xmlns:cc="http://creativecommons.org/ns#" xmlns:rdf="http://www.w3.org/1999/02/22-rdf-syntax-ns#">
   <cc:Work>
    <dc:type rdf:resource="http://purl.org/dc/dcmitype/StillImage"/>
    <dc:date>2024-05-22T04:50:10.662416</dc:date>
    <dc:format>image/svg+xml</dc:format>
    <dc:creator>
     <cc:Agent>
      <dc:title>Matplotlib v3.8.3, https://matplotlib.org/</dc:title>
     </cc:Agent>
    </dc:creator>
   </cc:Work>
  </rdf:RDF>
 </metadata>
 <defs>
  <style type="text/css">*{stroke-linejoin: round; stroke-linecap: butt}</style>
 </defs>
 <g id="figure_1">
  <g id="patch_1">
   <path d="M 0 576 
L 1440 576 
L 1440 0 
L 0 0 
z
" style="fill: #ffffff"/>
  </g>
  <g id="axes_1">
   <g id="patch_2">
    <path d="M 180 512.64 
L 1296 512.64 
L 1296 69.12 
L 180 69.12 
z
" style="fill: #ffffff"/>
   </g>
   <g id="matplotlib.axis_1">
    <g id="xtick_1">
     <g id="line2d_1">
      <defs>
       <path id="m568e62ac89" d="M 0 0 
L 0 3.5 
" style="stroke: #000000; stroke-width: 0.8"/>
      </defs>
      <g>
       <use xlink:href="#m568e62ac89" x="229.734567" y="512.64" style="stroke: #000000; stroke-width: 0.8"/>
      </g>
     </g>
     <g id="text_1">
      <!-- 0 -->
      <g transform="translate(226.553317 527.238438) scale(0.1 -0.1)">
       <defs>
        <path id="DejaVuSans-30" d="M 2034 4250 
Q 1547 4250 1301 3770 
Q 1056 3291 1056 2328 
Q 1056 1369 1301 889 
Q 1547 409 2034 409 
Q 2525 409 2770 889 
Q 3016 1369 3016 2328 
Q 3016 3291 2770 3770 
Q 2525 4250 2034 4250 
z
M 2034 4750 
Q 2819 4750 3233 4129 
Q 3647 3509 3647 2328 
Q 3647 1150 3233 529 
Q 2819 -91 2034 -91 
Q 1250 -91 836 529 
Q 422 1150 422 2328 
Q 422 3509 836 4129 
Q 1250 4750 2034 4750 
z
" transform="scale(0.015625)"/>
       </defs>
       <use xlink:href="#DejaVuSans-30"/>
      </g>
     </g>
    </g>
    <g id="xtick_2">
     <g id="line2d_2">
      <g>
       <use xlink:href="#m568e62ac89" x="433.04074" y="512.64" style="stroke: #000000; stroke-width: 0.8"/>
      </g>
     </g>
     <g id="text_2">
      <!-- 500 -->
      <g transform="translate(423.49699 527.238438) scale(0.1 -0.1)">
       <defs>
        <path id="DejaVuSans-35" d="M 691 4666 
L 3169 4666 
L 3169 4134 
L 1269 4134 
L 1269 2991 
Q 1406 3038 1543 3061 
Q 1681 3084 1819 3084 
Q 2600 3084 3056 2656 
Q 3513 2228 3513 1497 
Q 3513 744 3044 326 
Q 2575 -91 1722 -91 
Q 1428 -91 1123 -41 
Q 819 9 494 109 
L 494 744 
Q 775 591 1075 516 
Q 1375 441 1709 441 
Q 2250 441 2565 725 
Q 2881 1009 2881 1497 
Q 2881 1984 2565 2268 
Q 2250 2553 1709 2553 
Q 1456 2553 1204 2497 
Q 953 2441 691 2322 
L 691 4666 
z
" transform="scale(0.015625)"/>
       </defs>
       <use xlink:href="#DejaVuSans-35"/>
       <use xlink:href="#DejaVuSans-30" x="63.623047"/>
       <use xlink:href="#DejaVuSans-30" x="127.246094"/>
      </g>
     </g>
    </g>
    <g id="xtick_3">
     <g id="line2d_3">
      <g>
       <use xlink:href="#m568e62ac89" x="636.346913" y="512.64" style="stroke: #000000; stroke-width: 0.8"/>
      </g>
     </g>
     <g id="text_3">
      <!-- 1000 -->
      <g transform="translate(623.621913 527.238438) scale(0.1 -0.1)">
       <defs>
        <path id="DejaVuSans-31" d="M 794 531 
L 1825 531 
L 1825 4091 
L 703 3866 
L 703 4441 
L 1819 4666 
L 2450 4666 
L 2450 531 
L 3481 531 
L 3481 0 
L 794 0 
L 794 531 
z
" transform="scale(0.015625)"/>
       </defs>
       <use xlink:href="#DejaVuSans-31"/>
       <use xlink:href="#DejaVuSans-30" x="63.623047"/>
       <use xlink:href="#DejaVuSans-30" x="127.246094"/>
       <use xlink:href="#DejaVuSans-30" x="190.869141"/>
      </g>
     </g>
    </g>
    <g id="xtick_4">
     <g id="line2d_4">
      <g>
       <use xlink:href="#m568e62ac89" x="839.653087" y="512.64" style="stroke: #000000; stroke-width: 0.8"/>
      </g>
     </g>
     <g id="text_4">
      <!-- 1500 -->
      <g transform="translate(826.928087 527.238438) scale(0.1 -0.1)">
       <use xlink:href="#DejaVuSans-31"/>
       <use xlink:href="#DejaVuSans-35" x="63.623047"/>
       <use xlink:href="#DejaVuSans-30" x="127.246094"/>
       <use xlink:href="#DejaVuSans-30" x="190.869141"/>
      </g>
     </g>
    </g>
    <g id="xtick_5">
     <g id="line2d_5">
      <g>
       <use xlink:href="#m568e62ac89" x="1042.95926" y="512.64" style="stroke: #000000; stroke-width: 0.8"/>
      </g>
     </g>
     <g id="text_5">
      <!-- 2000 -->
      <g transform="translate(1030.23426 527.238438) scale(0.1 -0.1)">
       <defs>
        <path id="DejaVuSans-32" d="M 1228 531 
L 3431 531 
L 3431 0 
L 469 0 
L 469 531 
Q 828 903 1448 1529 
Q 2069 2156 2228 2338 
Q 2531 2678 2651 2914 
Q 2772 3150 2772 3378 
Q 2772 3750 2511 3984 
Q 2250 4219 1831 4219 
Q 1534 4219 1204 4116 
Q 875 4013 500 3803 
L 500 4441 
Q 881 4594 1212 4672 
Q 1544 4750 1819 4750 
Q 2544 4750 2975 4387 
Q 3406 4025 3406 3419 
Q 3406 3131 3298 2873 
Q 3191 2616 2906 2266 
Q 2828 2175 2409 1742 
Q 1991 1309 1228 531 
z
" transform="scale(0.015625)"/>
       </defs>
       <use xlink:href="#DejaVuSans-32"/>
       <use xlink:href="#DejaVuSans-30" x="63.623047"/>
       <use xlink:href="#DejaVuSans-30" x="127.246094"/>
       <use xlink:href="#DejaVuSans-30" x="190.869141"/>
      </g>
     </g>
    </g>
    <g id="xtick_6">
     <g id="line2d_6">
      <g>
       <use xlink:href="#m568e62ac89" x="1246.265433" y="512.64" style="stroke: #000000; stroke-width: 0.8"/>
      </g>
     </g>
     <g id="text_6">
      <!-- 2500 -->
      <g transform="translate(1233.540433 527.238438) scale(0.1 -0.1)">
       <use xlink:href="#DejaVuSans-32"/>
       <use xlink:href="#DejaVuSans-35" x="63.623047"/>
       <use xlink:href="#DejaVuSans-30" x="127.246094"/>
       <use xlink:href="#DejaVuSans-30" x="190.869141"/>
      </g>
     </g>
    </g>
   </g>
   <g id="matplotlib.axis_2">
    <g id="ytick_1">
     <g id="line2d_7">
      <defs>
       <path id="mab485d9004" d="M 0 0 
L -3.5 0 
" style="stroke: #000000; stroke-width: 0.8"/>
      </defs>
      <g>
       <use xlink:href="#mab485d9004" x="180" y="472.48356" style="stroke: #000000; stroke-width: 0.8"/>
      </g>
     </g>
     <g id="text_7">
      <!-- −6 -->
      <g transform="translate(158.257812 476.282779) scale(0.1 -0.1)">
       <defs>
        <path id="DejaVuSans-2212" d="M 678 2272 
L 4684 2272 
L 4684 1741 
L 678 1741 
L 678 2272 
z
" transform="scale(0.015625)"/>
        <path id="DejaVuSans-36" d="M 2113 2584 
Q 1688 2584 1439 2293 
Q 1191 2003 1191 1497 
Q 1191 994 1439 701 
Q 1688 409 2113 409 
Q 2538 409 2786 701 
Q 3034 994 3034 1497 
Q 3034 2003 2786 2293 
Q 2538 2584 2113 2584 
z
M 3366 4563 
L 3366 3988 
Q 3128 4100 2886 4159 
Q 2644 4219 2406 4219 
Q 1781 4219 1451 3797 
Q 1122 3375 1075 2522 
Q 1259 2794 1537 2939 
Q 1816 3084 2150 3084 
Q 2853 3084 3261 2657 
Q 3669 2231 3669 1497 
Q 3669 778 3244 343 
Q 2819 -91 2113 -91 
Q 1303 -91 875 529 
Q 447 1150 447 2328 
Q 447 3434 972 4092 
Q 1497 4750 2381 4750 
Q 2619 4750 2861 4703 
Q 3103 4656 3366 4563 
z
" transform="scale(0.015625)"/>
       </defs>
       <use xlink:href="#DejaVuSans-2212"/>
       <use xlink:href="#DejaVuSans-36" x="83.789062"/>
      </g>
     </g>
    </g>
    <g id="ytick_2">
     <g id="line2d_8">
      <g>
       <use xlink:href="#mab485d9004" x="180" y="387.168183" style="stroke: #000000; stroke-width: 0.8"/>
      </g>
     </g>
     <g id="text_8">
      <!-- −4 -->
      <g transform="translate(158.257812 390.967402) scale(0.1 -0.1)">
       <defs>
        <path id="DejaVuSans-34" d="M 2419 4116 
L 825 1625 
L 2419 1625 
L 2419 4116 
z
M 2253 4666 
L 3047 4666 
L 3047 1625 
L 3713 1625 
L 3713 1100 
L 3047 1100 
L 3047 0 
L 2419 0 
L 2419 1100 
L 313 1100 
L 313 1709 
L 2253 4666 
z
" transform="scale(0.015625)"/>
       </defs>
       <use xlink:href="#DejaVuSans-2212"/>
       <use xlink:href="#DejaVuSans-34" x="83.789062"/>
      </g>
     </g>
    </g>
    <g id="ytick_3">
     <g id="line2d_9">
      <g>
       <use xlink:href="#mab485d9004" x="180" y="301.852806" style="stroke: #000000; stroke-width: 0.8"/>
      </g>
     </g>
     <g id="text_9">
      <!-- −2 -->
      <g transform="translate(158.257812 305.652025) scale(0.1 -0.1)">
       <use xlink:href="#DejaVuSans-2212"/>
       <use xlink:href="#DejaVuSans-32" x="83.789062"/>
      </g>
     </g>
    </g>
    <g id="ytick_4">
     <g id="line2d_10">
      <g>
       <use xlink:href="#mab485d9004" x="180" y="216.537429" style="stroke: #000000; stroke-width: 0.8"/>
      </g>
     </g>
     <g id="text_10">
      <!-- 0 -->
      <g transform="translate(166.6375 220.336648) scale(0.1 -0.1)">
       <use xlink:href="#DejaVuSans-30"/>
      </g>
     </g>
    </g>
    <g id="ytick_5">
     <g id="line2d_11">
      <g>
       <use xlink:href="#mab485d9004" x="180" y="131.222052" style="stroke: #000000; stroke-width: 0.8"/>
      </g>
     </g>
     <g id="text_11">
      <!-- 2 -->
      <g transform="translate(166.6375 135.021271) scale(0.1 -0.1)">
       <use xlink:href="#DejaVuSans-32"/>
      </g>
     </g>
    </g>
   </g>
   <g id="line2d_12">
    <path d="M 230.727273 259.304249 
L 231.719979 258.917986 
L 232.712685 258.799546 
L 233.70539 258.408307 
L 234.698096 258.319101 
L 236.683508 257.37022 
L 237.676214 256.918823 
L 238.66892 256.25165 
L 239.661626 255.270443 
L 241.647038 254.183818 
L 242.639744 252.797703 
L 243.63245 252.11569 
L 244.625156 250.692671 
L 246.610568 245.535623 
L 247.603273 253.662992 
L 248.595979 287.43425 
L 249.588685 231.718638 
L 250.581391 193.366272 
L 251.574097 171.375447 
L 252.566803 159.183476 
L 253.559509 157.726824 
L 254.552215 167.423593 
L 255.544921 188.216355 
L 256.537627 194.765289 
L 257.530333 189.039692 
L 258.523039 210.076004 
L 259.515745 202.071057 
L 260.50845 162.347415 
L 261.501156 146.750919 
L 262.493862 143.590192 
L 263.486568 151.222642 
L 264.479274 164.726807 
L 265.47198 194.015407 
L 266.464686 270.609719 
L 267.457392 199.32523 
L 268.450098 183.727969 
L 269.442804 203.925205 
L 270.43551 252.578637 
L 271.428216 190.213575 
L 272.420922 185.41397 
L 273.413627 212.626266 
L 274.406333 230.136017 
L 275.399039 198.480034 
L 276.391745 200.273856 
L 277.384451 154.383507 
L 278.377157 121.554469 
L 279.369863 102.757757 
L 280.362569 92.668808 
L 281.355275 89.28 
L 282.347981 91.040378 
L 283.340687 97.813556 
L 284.333393 107.452748 
L 285.326099 115.62122 
L 287.31151 122.844668 
L 289.296922 142.990344 
L 291.282334 124.964003 
L 292.27504 127.22721 
L 293.267746 138.567475 
L 294.260452 155.577375 
L 296.245864 174.320146 
L 297.23857 198.004293 
L 298.231276 210.226472 
L 299.223981 204.40563 
L 300.216687 225.391685 
L 301.209393 233.314136 
L 302.202099 202.104726 
L 303.194805 202.230779 
L 304.187511 218.472158 
L 306.172923 304.40452 
L 307.165629 276.845283 
L 308.158335 271.006614 
L 309.151041 259.404245 
L 310.143747 349.517877 
L 311.136453 284.815573 
L 312.129159 276.668542 
L 313.121864 291.081929 
L 314.11457 288.554688 
L 315.107276 271.972537 
L 316.099982 287.072872 
L 317.092688 320.800221 
L 318.085394 291.627468 
L 319.0781 294.671466 
L 320.070806 329.378171 
L 321.063512 291.934339 
L 322.056218 294.091394 
L 323.048924 317.245796 
L 324.04163 296.593942 
L 325.034336 303.620816 
L 326.027041 342.053164 
L 327.019747 305.661256 
L 328.012453 306.745721 
L 329.005159 326.615883 
L 329.997865 306.925516 
L 330.990571 313.205007 
L 331.983277 321.968587 
L 332.975983 297.764517 
L 333.968689 335.80774 
L 334.961395 304.839534 
L 335.954101 335.935361 
L 336.946807 349.667021 
L 337.939513 366.166216 
L 338.932218 316.174119 
L 339.924924 308.764878 
L 340.91763 319.659712 
L 341.910336 335.454098 
L 342.903042 298.910885 
L 343.895748 327.035193 
L 344.888454 319.172647 
L 345.88116 367.288231 
L 346.873866 373.724801 
L 347.866572 333.249369 
L 348.859278 321.506087 
L 349.851984 314.687887 
L 350.84469 336.725774 
L 351.837395 331.749366 
L 352.830101 348.477586 
L 353.822807 335.056711 
L 354.815513 332.818651 
L 355.808219 326.022983 
L 356.800925 336.446701 
L 357.793631 333.67581 
L 358.786337 317.755204 
L 359.779043 353.643202 
L 360.771749 341.027654 
L 361.764455 354.014511 
L 363.749867 367.641859 
L 364.742572 327.789179 
L 365.735278 303.23398 
L 366.727984 391.984577 
L 367.72069 341.259413 
L 368.713396 328.122441 
L 369.706102 370.191928 
L 370.698808 340.089619 
L 371.691514 327.633191 
L 372.68422 325.370063 
L 373.676926 339.154574 
L 374.669632 387.608053 
L 375.662338 316.00206 
L 376.655044 345.492265 
L 377.64775 318.633052 
L 378.640455 348.187714 
L 379.633161 334.484697 
L 380.625867 374.821165 
L 381.618573 341.56478 
L 382.611279 403.546126 
L 383.603985 393.48934 
L 384.596691 379.683159 
L 385.589397 323.684673 
L 386.582103 384.876163 
L 387.574809 369.348962 
L 388.567515 350.150498 
L 389.560221 336.108299 
L 390.552927 362.094822 
L 391.545632 360.411044 
L 392.538338 331.996423 
L 393.531044 343.55685 
L 394.52375 321.275566 
L 395.516456 373.392099 
L 396.509162 351.159173 
L 397.501868 353.655336 
L 398.494574 332.181271 
L 399.48728 367.599066 
L 400.479986 375.645723 
L 401.472692 331.386233 
L 403.458104 323.243262 
L 404.450809 424.818028 
L 405.443515 372.641136 
L 406.436221 343.130372 
L 407.428927 344.424557 
L 408.421633 321.462581 
L 409.414339 377.74027 
L 410.407045 344.311098 
L 411.399751 328.074288 
L 412.392457 343.225918 
L 413.385163 385.435398 
L 414.377869 346.162563 
L 415.370575 346.627252 
L 416.363281 378.747874 
L 417.355986 337.829038 
L 418.348692 329.163899 
L 419.341398 358.168747 
L 420.334104 423.921889 
L 421.32681 359.192312 
L 422.319516 353.067058 
L 423.312222 350.004387 
L 424.304928 347.889534 
L 425.297634 369.985173 
L 426.29034 353.903379 
L 427.283046 348.569364 
L 428.275752 377.424849 
L 429.268458 341.999683 
L 430.261163 361.570094 
L 431.253869 372.219524 
L 432.246575 370.421766 
L 433.239281 352.061408 
L 434.231987 354.823648 
L 435.224693 369.370597 
L 436.217399 430.95068 
L 437.210105 346.892751 
L 438.202811 348.905984 
L 439.195517 372.254378 
L 440.188223 367.18318 
L 441.180929 377.194514 
L 442.173635 371.564089 
L 443.166341 325.129169 
L 444.159046 341.225929 
L 445.151752 381.320131 
L 446.144458 344.523429 
L 447.137164 359.878657 
L 448.12987 407.111068 
L 449.122576 377.828369 
L 450.115282 376.04597 
L 451.107988 405.487423 
L 452.100694 367.751465 
L 453.0934 366.587546 
L 454.086106 332.041991 
L 455.078812 364.153652 
L 456.071518 372.037926 
L 457.064223 341.571462 
L 458.056929 363.047216 
L 459.049635 380.272629 
L 460.042341 366.399425 
L 461.035047 382.682951 
L 462.027753 369.914295 
L 463.020459 412.060315 
L 464.013165 407.452759 
L 465.005871 358.904346 
L 465.998577 381.733821 
L 466.991283 394.618465 
L 467.983989 378.628572 
L 468.976695 366.868681 
L 469.9694 377.408164 
L 470.962106 361.725393 
L 471.954812 389.881528 
L 472.947518 347.863648 
L 473.940224 460.749847 
L 474.93293 364.675562 
L 475.925636 364.035 
L 476.918342 386.938858 
L 477.911048 347.113895 
L 478.903754 381.247904 
L 479.89646 336.202659 
L 480.889166 378.02562 
L 481.881872 385.10465 
L 482.874577 339.632912 
L 483.867283 381.322027 
L 484.859989 392.787604 
L 485.852695 385.557699 
L 486.845401 368.186715 
L 487.838107 371.694431 
L 488.830813 435.35087 
L 489.823519 339.417944 
L 491.808931 385.067726 
L 492.801637 334.49 
L 493.794343 352.788684 
L 494.787049 363.933291 
L 495.779754 391.912439 
L 496.77246 350.09298 
L 497.765166 353.181132 
L 498.757872 366.487752 
L 499.750578 393.869323 
L 500.743284 338.930203 
L 501.73599 361.017632 
L 502.728696 375.84604 
L 504.714108 390.641781 
L 505.706814 372.709006 
L 506.69952 379.717547 
L 507.692226 375.176463 
L 508.684932 341.075674 
L 509.677637 412.809248 
L 510.670343 358.65659 
L 511.663049 356.389983 
L 512.655755 385.562146 
L 513.648461 378.2828 
L 514.641167 403.14758 
L 515.633873 374.20923 
L 516.626579 359.72048 
L 517.619285 376.936375 
L 518.611991 358.893763 
L 519.604697 405.871702 
L 521.590109 337.633576 
L 522.582814 339.82005 
L 523.57552 345.493177 
L 524.568226 364.406251 
L 525.560932 400.160626 
L 526.553638 368.916542 
L 527.546344 359.296994 
L 528.53905 370.791612 
L 529.531756 351.308156 
L 530.524462 348.957527 
L 531.517168 379.148878 
L 532.509874 377.695639 
L 533.50258 349.750793 
L 534.495286 355.42082 
L 535.487991 342.272384 
L 536.480697 333.301077 
L 537.473403 351.909425 
L 538.466109 354.692734 
L 539.458815 321.881845 
L 540.451521 335.861081 
L 541.444227 343.512198 
L 542.436933 383.933475 
L 543.429639 388.058232 
L 544.422345 357.113644 
L 545.415051 368.167048 
L 546.407757 358.270161 
L 547.400463 339.875387 
L 548.393168 393.823296 
L 549.385874 425.32139 
L 550.37858 346.652757 
L 551.371286 338.213577 
L 552.363992 396.719432 
L 553.356698 345.003039 
L 554.349404 390.908021 
L 555.34211 430.456425 
L 556.334816 394.922713 
L 557.327522 352.843106 
L 558.320228 390.352868 
L 559.312934 354.102434 
L 560.30564 354.572722 
L 561.298345 354.221026 
L 562.291051 370.039387 
L 563.283757 395.498748 
L 564.276463 373.760503 
L 565.269169 385.507943 
L 566.261875 369.874756 
L 568.247287 334.761986 
L 569.239993 380.827764 
L 570.232699 359.886086 
L 571.225405 334.733054 
L 572.218111 381.847359 
L 573.210817 362.773643 
L 574.203523 383.853671 
L 575.196228 330.972758 
L 576.188934 382.415122 
L 577.18164 370.76204 
L 578.174346 406.763628 
L 579.167052 418.856658 
L 580.159758 358.700086 
L 581.152464 341.251855 
L 582.14517 350.088382 
L 583.137876 372.174984 
L 584.130582 370.110955 
L 585.123288 408.855816 
L 586.115994 359.004785 
L 587.1087 354.679534 
L 588.101405 385.254438 
L 589.094111 377.656569 
L 590.086817 398.311832 
L 591.079523 381.41907 
L 592.072229 338.47298 
L 593.064935 383.803759 
L 594.057641 360.099575 
L 595.050347 378.509687 
L 596.043053 359.391833 
L 597.035759 374.06796 
L 598.028465 359.705014 
L 599.021171 405.726503 
L 600.013877 382.536781 
L 601.006582 388.085446 
L 601.999288 408.61372 
L 602.991994 395.609444 
L 603.9847 379.520824 
L 605.970112 466.908623 
L 606.962818 357.994634 
L 607.955524 413.382018 
L 608.94823 403.373669 
L 609.940936 385.824007 
L 610.933642 365.006968 
L 611.926348 492.48 
L 612.919054 403.183369 
L 613.911759 355.472011 
L 614.904465 454.250505 
L 615.897171 388.032045 
L 616.889877 457.477742 
L 617.882583 359.240549 
L 618.875289 392.557205 
L 619.867995 372.378007 
L 620.860701 390.608366 
L 621.853407 404.425809 
L 622.846113 391.1187 
L 623.838819 417.028781 
L 624.831525 395.033594 
L 625.824231 451.010256 
L 626.816936 377.693435 
L 627.809642 385.223262 
L 628.802348 404.153076 
L 629.795054 406.54285 
L 630.78776 436.396087 
L 631.780466 428.614349 
L 632.773172 403.714543 
L 633.765878 407.605137 
L 634.758584 406.123626 
L 635.75129 423.04151 
L 636.743996 410.884054 
L 637.736702 380.057884 
L 638.729408 410.514018 
L 639.722114 392.522979 
L 640.714819 414.106727 
L 641.707525 396.96562 
L 642.700231 402.70487 
L 643.692937 412.098815 
L 644.685643 392.905571 
L 645.678349 435.261826 
L 646.671055 469.839695 
L 647.663761 430.862343 
L 648.656467 405.953737 
L 649.649173 392.778308 
L 650.641879 391.880289 
L 651.634585 423.183483 
L 652.627291 437.921913 
L 653.619996 426.966472 
L 654.612702 400.936504 
L 655.605408 389.534582 
L 656.598114 422.247917 
L 657.59082 442.861115 
L 658.583526 410.57142 
L 659.576232 440.448369 
L 660.568938 432.562727 
L 661.561644 469.060867 
L 662.55435 430.211097 
L 663.547056 398.464396 
L 664.539762 405.610018 
L 665.532468 422.425254 
L 666.525173 415.708187 
L 667.517879 435.454769 
L 668.510585 408.581862 
L 669.503291 431.576394 
L 670.495997 435.456702 
L 671.488703 388.882561 
L 672.481409 453.191827 
L 673.474115 426.964924 
L 674.466821 404.87334 
L 675.459527 408.409797 
L 676.452233 432.572027 
L 677.444939 415.039177 
L 678.437645 408.687157 
L 679.43035 424.421381 
L 680.423056 406.801026 
L 681.415762 418.077666 
L 682.408468 419.423675 
L 683.401174 411.975795 
L 684.39388 415.393113 
L 685.386586 422.074124 
L 686.379292 445.863606 
L 687.371998 431.90528 
L 688.364704 423.930573 
L 689.35741 413.621072 
L 690.350116 424.905768 
L 691.342822 406.653288 
L 692.335527 403.087266 
L 693.328233 414.09858 
L 694.320939 435.261778 
L 696.306351 411.159795 
L 697.299057 421.274796 
L 698.291763 435.315964 
L 699.284469 420.31446 
L 700.277175 414.88432 
L 701.269881 440.873598 
L 702.262587 415.508836 
L 703.255293 409.365322 
L 704.247999 434.429308 
L 705.240705 421.381261 
L 706.23341 426.777326 
L 707.226116 433.864853 
L 708.218822 423.943642 
L 709.211528 415.908543 
L 710.204234 441.616781 
L 711.19694 451.363156 
L 712.189646 426.047491 
L 713.182352 427.559471 
L 714.175058 424.51065 
L 715.167764 431.21939 
L 716.16047 426.95021 
L 717.153176 447.723426 
L 718.145882 433.367554 
L 719.138587 446.190854 
L 720.131293 435.405225 
L 721.123999 433.900419 
L 722.116705 424.415633 
L 723.109411 458.58026 
L 724.102117 447.150574 
L 725.094823 420.922516 
L 726.087529 423.864665 
L 727.080235 440.952739 
L 728.072941 426.461278 
L 729.065647 437.150619 
L 730.058353 427.492559 
L 731.051059 428.930602 
L 732.043764 428.557113 
L 733.03647 421.622615 
L 734.029176 422.754021 
L 735.021882 426.554128 
L 736.014588 432.801204 
L 737.007294 425.982236 
L 738 437.228977 
L 738.992706 426.91223 
L 739.985412 428.88886 
L 740.978118 429.913052 
L 741.970824 421.054551 
L 742.96353 427.248587 
L 743.956236 429.182329 
L 744.948941 431.633449 
L 745.941647 423.513202 
L 746.934353 435.684981 
L 747.927059 422.636989 
L 748.919765 428.239604 
L 749.912471 423.223923 
L 750.905177 431.490315 
L 751.897883 421.520054 
L 752.890589 428.775835 
L 753.883295 432.860209 
L 754.876001 422.30979 
L 755.868707 425.016121 
L 756.861413 436.00114 
L 757.854118 442.833209 
L 758.846824 435.351772 
L 759.83953 419.820697 
L 760.832236 426.284897 
L 761.824942 429.746814 
L 762.817648 435.821018 
L 763.810354 437.854246 
L 764.80306 432.625112 
L 765.795766 451.883986 
L 766.788472 436.613092 
L 767.781178 430.493948 
L 768.773884 442.091625 
L 769.76659 427.253162 
L 770.759295 432.029067 
L 771.752001 426.171609 
L 772.744707 429.721861 
L 773.737413 426.116925 
L 774.730119 430.956919 
L 775.722825 433.095737 
L 776.715531 432.828324 
L 777.708237 440.290986 
L 778.700943 430.343277 
L 779.693649 431.835236 
L 780.686355 440.648741 
L 781.679061 431.250128 
L 782.671767 437.804729 
L 783.664473 428.419928 
L 784.657178 432.975029 
L 785.649884 433.641336 
L 786.64259 439.547329 
L 787.635296 435.44268 
L 788.628002 443.367301 
L 789.620708 432.253838 
L 790.613414 433.160312 
L 791.60612 426.525152 
L 792.598826 443.586499 
L 793.591532 427.041808 
L 794.584238 437.573385 
L 795.576944 440.34368 
L 796.56965 431.266076 
L 797.562355 429.849367 
L 798.555061 439.435836 
L 799.547767 431.860356 
L 800.540473 440.937309 
L 801.533179 427.829795 
L 802.525885 429.688837 
L 803.518591 443.863271 
L 804.511297 431.001121 
L 805.504003 428.391253 
L 806.496709 432.487414 
L 807.489415 447.34602 
L 808.482121 444.823807 
L 809.474827 440.712916 
L 810.467532 439.13091 
L 811.460238 441.135317 
L 812.452944 433.405581 
L 813.44565 440.169199 
L 814.438356 440.271623 
L 815.431062 441.402709 
L 816.423768 444.641132 
L 817.416474 431.388389 
L 818.40918 429.910273 
L 819.401886 430.930041 
L 820.394592 438.17736 
L 821.387298 436.413092 
L 822.380004 443.794627 
L 823.372709 427.45727 
L 824.365415 441.518103 
L 825.358121 438.843852 
L 826.350827 432.136548 
L 827.343533 431.540257 
L 828.336239 432.437325 
L 829.328945 435.570379 
L 830.321651 434.302777 
L 831.314357 430.808062 
L 832.307063 443.335709 
L 833.299769 435.934 
L 834.292475 452.999068 
L 835.285181 433.040215 
L 836.277886 447.551171 
L 837.270592 440.052275 
L 838.263298 434.496483 
L 839.256004 445.889328 
L 840.24871 447.26525 
L 841.241416 440.572225 
L 842.234122 445.359629 
L 843.226828 437.442596 
L 844.219534 433.107345 
L 845.21224 431.983293 
L 846.204946 435.877037 
L 847.197652 435.18244 
L 848.190358 427.099429 
L 849.183064 441.527165 
L 850.175769 435.454502 
L 851.168475 439.023471 
L 852.161181 438.065771 
L 853.153887 456.607656 
L 854.146593 445.400362 
L 855.139299 443.480763 
L 856.132005 446.703079 
L 857.124711 441.261303 
L 858.117417 428.988628 
L 859.110123 437.351864 
L 860.102829 441.273674 
L 861.095535 437.375301 
L 862.088241 430.486241 
L 863.080946 434.98577 
L 864.073652 426.899492 
L 865.066358 457.591899 
L 866.059064 438.787396 
L 867.05177 439.001003 
L 868.044476 439.62536 
L 869.037182 447.792775 
L 870.029888 439.626841 
L 871.022594 435.092414 
L 873.008006 453.093508 
L 874.000712 436.340514 
L 874.993418 433.27901 
L 875.986123 430.983802 
L 876.978829 444.058837 
L 878.964241 439.501469 
L 879.956947 432.187352 
L 880.949653 439.302648 
L 881.942359 436.21608 
L 882.935065 434.537686 
L 883.927771 436.962101 
L 884.920477 435.120452 
L 885.913183 434.372623 
L 886.905889 441.224345 
L 887.898595 437.879582 
L 888.8913 435.659833 
L 889.884006 430.279456 
L 890.876712 436.661156 
L 891.869418 441.051121 
L 892.862124 444.156331 
L 893.85483 431.228519 
L 894.847536 446.3805 
L 895.840242 436.680009 
L 896.832948 440.481849 
L 897.825654 439.565919 
L 898.81836 441.397665 
L 899.811066 431.854734 
L 900.803772 441.910262 
L 901.796477 441.085007 
L 902.789183 443.820258 
L 903.781889 442.260131 
L 905.767301 451.323888 
L 906.760007 451.985007 
L 907.752713 450.885355 
L 908.745419 437.874031 
L 909.738125 446.075087 
L 910.730831 446.93325 
L 911.723537 443.91298 
L 912.716243 438.49579 
L 913.708949 441.714893 
L 914.701655 443.00522 
L 915.69436 436.157503 
L 916.687066 443.962282 
L 917.679772 443.452277 
L 918.672478 445.001991 
L 919.665184 444.85332 
L 920.65789 442.68208 
L 921.650596 443.75747 
L 922.643302 434.924042 
L 923.636008 472.867123 
L 924.628714 444.292557 
L 925.62142 435.683869 
L 926.614126 442.58611 
L 927.606832 432.577382 
L 928.599537 443.003807 
L 929.592243 448.536105 
L 930.584949 429.965171 
L 931.577655 439.756719 
L 932.570361 451.908691 
L 933.563067 444.917967 
L 934.555773 445.941171 
L 935.548479 437.776888 
L 936.541185 439.86895 
L 937.533891 438.61214 
L 938.526597 462.104289 
L 939.519303 439.648765 
L 940.512009 440.509226 
L 941.504714 438.93035 
L 942.49742 439.266707 
L 943.490126 440.951105 
L 944.482832 444.930626 
L 945.475538 451.996978 
L 946.468244 444.437646 
L 947.46095 457.489245 
L 948.453656 448.813961 
L 949.446362 435.315282 
L 950.439068 438.198328 
L 951.431774 444.297667 
L 953.417186 449.487686 
L 954.409891 443.377104 
L 955.402597 429.115048 
L 956.395303 450.812846 
L 957.388009 432.787589 
L 958.380715 443.192523 
L 959.373421 442.799791 
L 960.366127 444.080465 
L 961.358833 444.245096 
L 962.351539 450.459761 
L 963.344245 441.630093 
L 964.336951 441.65558 
L 965.329657 444.912068 
L 966.322363 434.827981 
L 967.315068 443.946552 
L 968.307774 459.664821 
L 969.30048 442.877091 
L 970.293186 442.55082 
L 971.285892 433.580705 
L 972.278598 438.907052 
L 973.271304 442.82013 
L 974.26401 455.652352 
L 975.256716 436.161557 
L 976.249422 445.861039 
L 977.242128 463.140445 
L 978.234834 452.775277 
L 979.22754 443.799326 
L 980.220246 440.452315 
L 981.212951 443.422611 
L 982.205657 441.791927 
L 983.198363 451.871084 
L 984.191069 432.768034 
L 985.183775 445.529687 
L 986.176481 445.387275 
L 987.169187 451.672018 
L 988.161893 441.0279 
L 989.154599 443.515834 
L 990.147305 443.889923 
L 991.140011 449.144363 
L 992.132717 450.059034 
L 993.125423 452.933474 
L 994.118128 441.193037 
L 995.110834 442.369578 
L 996.10354 448.935364 
L 997.096246 445.03267 
L 998.088952 437.70454 
L 999.081658 439.672281 
L 1000.074364 436.467306 
L 1001.06707 451.413503 
L 1002.059776 447.523524 
L 1003.052482 432.659036 
L 1004.045188 434.243955 
L 1005.037894 424.225747 
L 1006.0306 461.319132 
L 1008.016011 428.800926 
L 1009.008717 438.867285 
L 1010.001423 438.027273 
L 1011.986835 456.929187 
L 1012.979541 450.005258 
L 1013.972247 434.121637 
L 1014.964953 460.429229 
L 1015.957659 435.55513 
L 1016.950365 451.003333 
L 1017.943071 446.767402 
L 1018.935777 444.094603 
L 1019.928482 455.557427 
L 1020.921188 440.877431 
L 1021.913894 435.070657 
L 1022.9066 450.785145 
L 1023.899306 432.853913 
L 1024.892012 466.623807 
L 1025.884718 441.062869 
L 1026.877424 446.259208 
L 1027.87013 437.319368 
L 1028.862836 448.107149 
L 1029.855542 453.831902 
L 1030.848248 439.723275 
L 1031.840954 445.105295 
L 1032.833659 440.000893 
L 1033.826365 452.311617 
L 1034.819071 453.735382 
L 1035.811777 443.065494 
L 1036.804483 451.644764 
L 1037.797189 449.170207 
L 1038.789895 443.860412 
L 1039.782601 437.38185 
L 1040.775307 449.545265 
L 1041.768013 447.824934 
L 1042.760719 434.019774 
L 1043.753425 440.05349 
L 1044.746131 447.800757 
L 1045.738837 443.976244 
L 1046.731542 436.089071 
L 1047.724248 444.119323 
L 1048.716954 440.247721 
L 1049.70966 434.676241 
L 1050.702366 441.750097 
L 1051.695072 454.833295 
L 1052.687778 459.182828 
L 1053.680484 449.473154 
L 1054.67319 442.650901 
L 1055.665896 445.963041 
L 1056.658602 440.472023 
L 1057.651308 449.218335 
L 1058.644014 441.322399 
L 1059.636719 458.760142 
L 1060.629425 444.767739 
L 1061.622131 455.112413 
L 1062.614837 456.745688 
L 1063.607543 435.561424 
L 1064.600249 442.356933 
L 1065.592955 438.555115 
L 1066.585661 452.4081 
L 1067.578367 456.662782 
L 1068.571073 441.742065 
L 1069.563779 443.072761 
L 1070.556485 456.561437 
L 1071.549191 442.096265 
L 1072.541896 445.342048 
L 1073.534602 452.695349 
L 1074.527308 444.174721 
L 1075.520014 439.597596 
L 1076.51272 442.339392 
L 1077.505426 452.126663 
L 1078.498132 442.91086 
L 1079.490838 435.105151 
L 1080.483544 460.579629 
L 1081.47625 447.979878 
L 1082.468956 460.900723 
L 1083.461662 443.214808 
L 1084.454368 436.040253 
L 1085.447073 441.366088 
L 1086.439779 437.536736 
L 1087.432485 452.301173 
L 1088.425191 454.645712 
L 1089.417897 453.351424 
L 1090.410603 443.018412 
L 1091.403309 452.469399 
L 1092.396015 457.119395 
L 1093.388721 443.377366 
L 1094.381427 444.794042 
L 1095.374133 450.473455 
L 1096.366839 454.597694 
L 1097.359545 456.389005 
L 1098.35225 447.253819 
L 1099.344956 454.342003 
L 1100.337662 441.332383 
L 1101.330368 449.937672 
L 1102.323074 451.347663 
L 1103.31578 443.113077 
L 1104.308486 448.327275 
L 1105.301192 452.111727 
L 1106.293898 442.230411 
L 1107.286604 442.710975 
L 1108.27931 450.251067 
L 1109.272016 447.506407 
L 1110.264722 456.333224 
L 1111.257428 445.432607 
L 1112.250133 439.415405 
L 1113.242839 445.25661 
L 1114.235545 433.358861 
L 1115.228251 430.049944 
L 1116.220957 441.538035 
L 1117.213663 457.596582 
L 1118.206369 442.633017 
L 1119.199075 447.382232 
L 1120.191781 449.343449 
L 1121.184487 468.594475 
L 1122.177193 435.393967 
L 1123.169899 454.631714 
L 1124.162605 434.32388 
L 1125.15531 437.714695 
L 1126.148016 454.882918 
L 1127.140722 455.718208 
L 1128.133428 444.889684 
L 1129.126134 439.151486 
L 1130.11884 446.007877 
L 1131.111546 439.212606 
L 1132.104252 443.568262 
L 1133.096958 436.687617 
L 1134.089664 445.226912 
L 1135.08237 447.301478 
L 1137.067782 444.032483 
L 1138.060487 452.143622 
L 1139.053193 455.892424 
L 1140.045899 439.944774 
L 1141.038605 446.033146 
L 1142.031311 456.70871 
L 1143.024017 431.139445 
L 1144.016723 447.146762 
L 1145.009429 439.850504 
L 1146.002135 438.502679 
L 1146.994841 439.448815 
L 1147.987547 446.530061 
L 1148.980253 438.82609 
L 1149.972959 457.345785 
L 1150.965664 451.955676 
L 1151.95837 448.277814 
L 1152.951076 448.270641 
L 1153.943782 465.432371 
L 1154.936488 455.753006 
L 1155.929194 443.985872 
L 1156.9219 445.480766 
L 1157.914606 443.825656 
L 1158.907312 454.219464 
L 1159.900018 447.379231 
L 1160.892724 449.396136 
L 1161.88543 458.165947 
L 1162.878136 445.862505 
L 1163.870841 456.288927 
L 1164.863547 440.613126 
L 1165.856253 452.794094 
L 1166.848959 453.988038 
L 1167.841665 457.948227 
L 1168.834371 448.567621 
L 1169.827077 444.590132 
L 1170.819783 450.920604 
L 1171.812489 450.597697 
L 1172.805195 440.353116 
L 1173.797901 444.962575 
L 1174.790607 454.267157 
L 1175.783313 450.745284 
L 1176.776019 442.577034 
L 1177.768724 449.487594 
L 1178.76143 447.766825 
L 1179.754136 448.622597 
L 1180.746842 446.624645 
L 1181.739548 450.832759 
L 1182.732254 448.333027 
L 1183.72496 449.554802 
L 1184.717666 442.753617 
L 1186.703078 452.440617 
L 1187.695784 436.516012 
L 1188.68849 449.410225 
L 1189.681196 467.277466 
L 1190.673901 443.827416 
L 1191.666607 441.225046 
L 1192.659313 443.5735 
L 1193.652019 437.410131 
L 1194.644725 459.423254 
L 1195.637431 442.364712 
L 1196.630137 469.240795 
L 1197.622843 445.85033 
L 1198.615549 442.6199 
L 1200.600961 447.6147 
L 1201.593667 457.720839 
L 1202.586373 448.800668 
L 1203.579078 443.920349 
L 1204.571784 443.34875 
L 1205.56449 447.382699 
L 1206.557196 456.139339 
L 1207.549902 456.994953 
L 1208.542608 460.254081 
L 1209.535314 454.689145 
L 1210.52802 460.011965 
L 1211.520726 447.951792 
L 1212.513432 445.512398 
L 1213.506138 440.602394 
L 1214.498844 441.430218 
L 1215.49155 439.910125 
L 1216.484255 445.3789 
L 1217.476961 445.26589 
L 1218.469667 446.403439 
L 1219.462373 450.980363 
L 1220.455079 443.735195 
L 1221.447785 438.310591 
L 1222.440491 440.695689 
L 1223.433197 453.243643 
L 1225.418609 434.607829 
L 1226.411315 451.196654 
L 1227.404021 465.822582 
L 1228.396727 466.683382 
L 1229.389432 443.744719 
L 1230.382138 445.664322 
L 1231.374844 444.816917 
L 1232.36755 450.291327 
L 1234.352962 453.835419 
L 1235.345668 459.74436 
L 1236.338374 456.852623 
L 1237.33108 442.577634 
L 1238.323786 449.015138 
L 1239.316492 451.115663 
L 1240.309198 432.497806 
L 1242.29461 451.751291 
L 1243.287315 458.77435 
L 1244.280021 475.667172 
L 1245.272727 445.215508 
L 1245.272727 445.215508 
" clip-path="url(#pac6eca2bae)" style="fill: none; stroke: #1f77b4; stroke-width: 1.5; stroke-linecap: square"/>
   </g>
   <g id="patch_3">
    <path d="M 180 512.64 
L 180 69.12 
" style="fill: none; stroke: #000000; stroke-width: 0.8; stroke-linejoin: miter; stroke-linecap: square"/>
   </g>
   <g id="patch_4">
    <path d="M 1296 512.64 
L 1296 69.12 
" style="fill: none; stroke: #000000; stroke-width: 0.8; stroke-linejoin: miter; stroke-linecap: square"/>
   </g>
   <g id="patch_5">
    <path d="M 180 512.64 
L 1296 512.64 
" style="fill: none; stroke: #000000; stroke-width: 0.8; stroke-linejoin: miter; stroke-linecap: square"/>
   </g>
   <g id="patch_6">
    <path d="M 180 69.12 
L 1296 69.12 
" style="fill: none; stroke: #000000; stroke-width: 0.8; stroke-linejoin: miter; stroke-linecap: square"/>
   </g>
   <g id="text_12">
    <!-- source16-receiver21 -->
    <g transform="translate(532.175 60.80125) scale(0.4 -0.4)">
     <defs>
      <path id="DejaVuSans-73" d="M 2834 3397 
L 2834 2853 
Q 2591 2978 2328 3040 
Q 2066 3103 1784 3103 
Q 1356 3103 1142 2972 
Q 928 2841 928 2578 
Q 928 2378 1081 2264 
Q 1234 2150 1697 2047 
L 1894 2003 
Q 2506 1872 2764 1633 
Q 3022 1394 3022 966 
Q 3022 478 2636 193 
Q 2250 -91 1575 -91 
Q 1294 -91 989 -36 
Q 684 19 347 128 
L 347 722 
Q 666 556 975 473 
Q 1284 391 1588 391 
Q 1994 391 2212 530 
Q 2431 669 2431 922 
Q 2431 1156 2273 1281 
Q 2116 1406 1581 1522 
L 1381 1569 
Q 847 1681 609 1914 
Q 372 2147 372 2553 
Q 372 3047 722 3315 
Q 1072 3584 1716 3584 
Q 2034 3584 2315 3537 
Q 2597 3491 2834 3397 
z
" transform="scale(0.015625)"/>
      <path id="DejaVuSans-6f" d="M 1959 3097 
Q 1497 3097 1228 2736 
Q 959 2375 959 1747 
Q 959 1119 1226 758 
Q 1494 397 1959 397 
Q 2419 397 2687 759 
Q 2956 1122 2956 1747 
Q 2956 2369 2687 2733 
Q 2419 3097 1959 3097 
z
M 1959 3584 
Q 2709 3584 3137 3096 
Q 3566 2609 3566 1747 
Q 3566 888 3137 398 
Q 2709 -91 1959 -91 
Q 1206 -91 779 398 
Q 353 888 353 1747 
Q 353 2609 779 3096 
Q 1206 3584 1959 3584 
z
" transform="scale(0.015625)"/>
      <path id="DejaVuSans-75" d="M 544 1381 
L 544 3500 
L 1119 3500 
L 1119 1403 
Q 1119 906 1312 657 
Q 1506 409 1894 409 
Q 2359 409 2629 706 
Q 2900 1003 2900 1516 
L 2900 3500 
L 3475 3500 
L 3475 0 
L 2900 0 
L 2900 538 
Q 2691 219 2414 64 
Q 2138 -91 1772 -91 
Q 1169 -91 856 284 
Q 544 659 544 1381 
z
M 1991 3584 
L 1991 3584 
z
" transform="scale(0.015625)"/>
      <path id="DejaVuSans-72" d="M 2631 2963 
Q 2534 3019 2420 3045 
Q 2306 3072 2169 3072 
Q 1681 3072 1420 2755 
Q 1159 2438 1159 1844 
L 1159 0 
L 581 0 
L 581 3500 
L 1159 3500 
L 1159 2956 
Q 1341 3275 1631 3429 
Q 1922 3584 2338 3584 
Q 2397 3584 2469 3576 
Q 2541 3569 2628 3553 
L 2631 2963 
z
" transform="scale(0.015625)"/>
      <path id="DejaVuSans-63" d="M 3122 3366 
L 3122 2828 
Q 2878 2963 2633 3030 
Q 2388 3097 2138 3097 
Q 1578 3097 1268 2742 
Q 959 2388 959 1747 
Q 959 1106 1268 751 
Q 1578 397 2138 397 
Q 2388 397 2633 464 
Q 2878 531 3122 666 
L 3122 134 
Q 2881 22 2623 -34 
Q 2366 -91 2075 -91 
Q 1284 -91 818 406 
Q 353 903 353 1747 
Q 353 2603 823 3093 
Q 1294 3584 2113 3584 
Q 2378 3584 2631 3529 
Q 2884 3475 3122 3366 
z
" transform="scale(0.015625)"/>
      <path id="DejaVuSans-65" d="M 3597 1894 
L 3597 1613 
L 953 1613 
Q 991 1019 1311 708 
Q 1631 397 2203 397 
Q 2534 397 2845 478 
Q 3156 559 3463 722 
L 3463 178 
Q 3153 47 2828 -22 
Q 2503 -91 2169 -91 
Q 1331 -91 842 396 
Q 353 884 353 1716 
Q 353 2575 817 3079 
Q 1281 3584 2069 3584 
Q 2775 3584 3186 3129 
Q 3597 2675 3597 1894 
z
M 3022 2063 
Q 3016 2534 2758 2815 
Q 2500 3097 2075 3097 
Q 1594 3097 1305 2825 
Q 1016 2553 972 2059 
L 3022 2063 
z
" transform="scale(0.015625)"/>
      <path id="DejaVuSans-2d" d="M 313 2009 
L 1997 2009 
L 1997 1497 
L 313 1497 
L 313 2009 
z
" transform="scale(0.015625)"/>
      <path id="DejaVuSans-69" d="M 603 3500 
L 1178 3500 
L 1178 0 
L 603 0 
L 603 3500 
z
M 603 4863 
L 1178 4863 
L 1178 4134 
L 603 4134 
L 603 4863 
z
" transform="scale(0.015625)"/>
      <path id="DejaVuSans-76" d="M 191 3500 
L 800 3500 
L 1894 563 
L 2988 3500 
L 3597 3500 
L 2284 0 
L 1503 0 
L 191 3500 
z
" transform="scale(0.015625)"/>
     </defs>
     <use xlink:href="#DejaVuSans-73"/>
     <use xlink:href="#DejaVuSans-6f" x="52.099609"/>
     <use xlink:href="#DejaVuSans-75" x="113.28125"/>
     <use xlink:href="#DejaVuSans-72" x="176.660156"/>
     <use xlink:href="#DejaVuSans-63" x="215.523438"/>
     <use xlink:href="#DejaVuSans-65" x="270.503906"/>
     <use xlink:href="#DejaVuSans-31" x="332.027344"/>
     <use xlink:href="#DejaVuSans-36" x="395.650391"/>
     <use xlink:href="#DejaVuSans-2d" x="459.273438"/>
     <use xlink:href="#DejaVuSans-72" x="495.357422"/>
     <use xlink:href="#DejaVuSans-65" x="534.220703"/>
     <use xlink:href="#DejaVuSans-63" x="595.744141"/>
     <use xlink:href="#DejaVuSans-65" x="650.724609"/>
     <use xlink:href="#DejaVuSans-69" x="712.248047"/>
     <use xlink:href="#DejaVuSans-76" x="740.03125"/>
     <use xlink:href="#DejaVuSans-65" x="799.210938"/>
     <use xlink:href="#DejaVuSans-72" x="860.734375"/>
     <use xlink:href="#DejaVuSans-32" x="901.847656"/>
     <use xlink:href="#DejaVuSans-31" x="965.470703"/>
    </g>
   </g>
  </g>
 </g>
 <defs>
  <clipPath id="pac6eca2bae">
   <rect x="180" y="69.12" width="1116" height="443.52"/>
  </clipPath>
 </defs>
</svg>
