<?xml version="1.0" encoding="utf-8" standalone="no"?>
<!DOCTYPE svg PUBLIC "-//W3C//DTD SVG 1.1//EN"
  "http://www.w3.org/Graphics/SVG/1.1/DTD/svg11.dtd">
<svg xmlns:xlink="http://www.w3.org/1999/xlink" width="1440pt" height="576pt" viewBox="0 0 1440 576" xmlns="http://www.w3.org/2000/svg" version="1.1">
 <metadata>
  <rdf:RDF xmlns:dc="http://purl.org/dc/elements/1.1/" xmlns:cc="http://creativecommons.org/ns#" xmlns:rdf="http://www.w3.org/1999/02/22-rdf-syntax-ns#">
   <cc:Work>
    <dc:type rdf:resource="http://purl.org/dc/dcmitype/StillImage"/>
    <dc:date>2024-05-22T04:50:10.820147</dc:date>
    <dc:format>image/svg+xml</dc:format>
    <dc:creator>
     <cc:Agent>
      <dc:title>Matplotlib v3.8.3, https://matplotlib.org/</dc:title>
     </cc:Agent>
    </dc:creator>
   </cc:Work>
  </rdf:RDF>
 </metadata>
 <defs>
  <style type="text/css">*{stroke-linejoin: round; stroke-linecap: butt}</style>
 </defs>
 <g id="figure_1">
  <g id="patch_1">
   <path d="M 0 576 
L 1440 576 
L 1440 0 
L 0 0 
z
" style="fill: #ffffff"/>
  </g>
  <g id="axes_1">
   <g id="patch_2">
    <path d="M 180 512.64 
L 1296 512.64 
L 1296 69.12 
L 180 69.12 
z
" style="fill: #ffffff"/>
   </g>
   <g id="matplotlib.axis_1">
    <g id="xtick_1">
     <g id="line2d_1">
      <defs>
       <path id="m6d038f0b55" d="M 0 0 
L 0 3.5 
" style="stroke: #000000; stroke-width: 0.8"/>
      </defs>
      <g>
       <use xlink:href="#m6d038f0b55" x="229.734567" y="512.64" style="stroke: #000000; stroke-width: 0.8"/>
      </g>
     </g>
     <g id="text_1">
      <!-- 0 -->
      <g transform="translate(226.553317 527.238438) scale(0.1 -0.1)">
       <defs>
        <path id="DejaVuSans-30" d="M 2034 4250 
Q 1547 4250 1301 3770 
Q 1056 3291 1056 2328 
Q 1056 1369 1301 889 
Q 1547 409 2034 409 
Q 2525 409 2770 889 
Q 3016 1369 3016 2328 
Q 3016 3291 2770 3770 
Q 2525 4250 2034 4250 
z
M 2034 4750 
Q 2819 4750 3233 4129 
Q 3647 3509 3647 2328 
Q 3647 1150 3233 529 
Q 2819 -91 2034 -91 
Q 1250 -91 836 529 
Q 422 1150 422 2328 
Q 422 3509 836 4129 
Q 1250 4750 2034 4750 
z
" transform="scale(0.015625)"/>
       </defs>
       <use xlink:href="#DejaVuSans-30"/>
      </g>
     </g>
    </g>
    <g id="xtick_2">
     <g id="line2d_2">
      <g>
       <use xlink:href="#m6d038f0b55" x="433.04074" y="512.64" style="stroke: #000000; stroke-width: 0.8"/>
      </g>
     </g>
     <g id="text_2">
      <!-- 500 -->
      <g transform="translate(423.49699 527.238438) scale(0.1 -0.1)">
       <defs>
        <path id="DejaVuSans-35" d="M 691 4666 
L 3169 4666 
L 3169 4134 
L 1269 4134 
L 1269 2991 
Q 1406 3038 1543 3061 
Q 1681 3084 1819 3084 
Q 2600 3084 3056 2656 
Q 3513 2228 3513 1497 
Q 3513 744 3044 326 
Q 2575 -91 1722 -91 
Q 1428 -91 1123 -41 
Q 819 9 494 109 
L 494 744 
Q 775 591 1075 516 
Q 1375 441 1709 441 
Q 2250 441 2565 725 
Q 2881 1009 2881 1497 
Q 2881 1984 2565 2268 
Q 2250 2553 1709 2553 
Q 1456 2553 1204 2497 
Q 953 2441 691 2322 
L 691 4666 
z
" transform="scale(0.015625)"/>
       </defs>
       <use xlink:href="#DejaVuSans-35"/>
       <use xlink:href="#DejaVuSans-30" x="63.623047"/>
       <use xlink:href="#DejaVuSans-30" x="127.246094"/>
      </g>
     </g>
    </g>
    <g id="xtick_3">
     <g id="line2d_3">
      <g>
       <use xlink:href="#m6d038f0b55" x="636.346913" y="512.64" style="stroke: #000000; stroke-width: 0.8"/>
      </g>
     </g>
     <g id="text_3">
      <!-- 1000 -->
      <g transform="translate(623.621913 527.238438) scale(0.1 -0.1)">
       <defs>
        <path id="DejaVuSans-31" d="M 794 531 
L 1825 531 
L 1825 4091 
L 703 3866 
L 703 4441 
L 1819 4666 
L 2450 4666 
L 2450 531 
L 3481 531 
L 3481 0 
L 794 0 
L 794 531 
z
" transform="scale(0.015625)"/>
       </defs>
       <use xlink:href="#DejaVuSans-31"/>
       <use xlink:href="#DejaVuSans-30" x="63.623047"/>
       <use xlink:href="#DejaVuSans-30" x="127.246094"/>
       <use xlink:href="#DejaVuSans-30" x="190.869141"/>
      </g>
     </g>
    </g>
    <g id="xtick_4">
     <g id="line2d_4">
      <g>
       <use xlink:href="#m6d038f0b55" x="839.653087" y="512.64" style="stroke: #000000; stroke-width: 0.8"/>
      </g>
     </g>
     <g id="text_4">
      <!-- 1500 -->
      <g transform="translate(826.928087 527.238438) scale(0.1 -0.1)">
       <use xlink:href="#DejaVuSans-31"/>
       <use xlink:href="#DejaVuSans-35" x="63.623047"/>
       <use xlink:href="#DejaVuSans-30" x="127.246094"/>
       <use xlink:href="#DejaVuSans-30" x="190.869141"/>
      </g>
     </g>
    </g>
    <g id="xtick_5">
     <g id="line2d_5">
      <g>
       <use xlink:href="#m6d038f0b55" x="1042.95926" y="512.64" style="stroke: #000000; stroke-width: 0.8"/>
      </g>
     </g>
     <g id="text_5">
      <!-- 2000 -->
      <g transform="translate(1030.23426 527.238438) scale(0.1 -0.1)">
       <defs>
        <path id="DejaVuSans-32" d="M 1228 531 
L 3431 531 
L 3431 0 
L 469 0 
L 469 531 
Q 828 903 1448 1529 
Q 2069 2156 2228 2338 
Q 2531 2678 2651 2914 
Q 2772 3150 2772 3378 
Q 2772 3750 2511 3984 
Q 2250 4219 1831 4219 
Q 1534 4219 1204 4116 
Q 875 4013 500 3803 
L 500 4441 
Q 881 4594 1212 4672 
Q 1544 4750 1819 4750 
Q 2544 4750 2975 4387 
Q 3406 4025 3406 3419 
Q 3406 3131 3298 2873 
Q 3191 2616 2906 2266 
Q 2828 2175 2409 1742 
Q 1991 1309 1228 531 
z
" transform="scale(0.015625)"/>
       </defs>
       <use xlink:href="#DejaVuSans-32"/>
       <use xlink:href="#DejaVuSans-30" x="63.623047"/>
       <use xlink:href="#DejaVuSans-30" x="127.246094"/>
       <use xlink:href="#DejaVuSans-30" x="190.869141"/>
      </g>
     </g>
    </g>
    <g id="xtick_6">
     <g id="line2d_6">
      <g>
       <use xlink:href="#m6d038f0b55" x="1246.265433" y="512.64" style="stroke: #000000; stroke-width: 0.8"/>
      </g>
     </g>
     <g id="text_6">
      <!-- 2500 -->
      <g transform="translate(1233.540433 527.238438) scale(0.1 -0.1)">
       <use xlink:href="#DejaVuSans-32"/>
       <use xlink:href="#DejaVuSans-35" x="63.623047"/>
       <use xlink:href="#DejaVuSans-30" x="127.246094"/>
       <use xlink:href="#DejaVuSans-30" x="190.869141"/>
      </g>
     </g>
    </g>
   </g>
   <g id="matplotlib.axis_2">
    <g id="ytick_1">
     <g id="line2d_7">
      <defs>
       <path id="m8a5b13fc08" d="M 0 0 
L -3.5 0 
" style="stroke: #000000; stroke-width: 0.8"/>
      </defs>
      <g>
       <use xlink:href="#m8a5b13fc08" x="180" y="484.89801" style="stroke: #000000; stroke-width: 0.8"/>
      </g>
     </g>
     <g id="text_7">
      <!-- −3 -->
      <g transform="translate(158.257812 488.697228) scale(0.1 -0.1)">
       <defs>
        <path id="DejaVuSans-2212" d="M 678 2272 
L 4684 2272 
L 4684 1741 
L 678 1741 
L 678 2272 
z
" transform="scale(0.015625)"/>
        <path id="DejaVuSans-33" d="M 2597 2516 
Q 3050 2419 3304 2112 
Q 3559 1806 3559 1356 
Q 3559 666 3084 287 
Q 2609 -91 1734 -91 
Q 1441 -91 1130 -33 
Q 819 25 488 141 
L 488 750 
Q 750 597 1062 519 
Q 1375 441 1716 441 
Q 2309 441 2620 675 
Q 2931 909 2931 1356 
Q 2931 1769 2642 2001 
Q 2353 2234 1838 2234 
L 1294 2234 
L 1294 2753 
L 1863 2753 
Q 2328 2753 2575 2939 
Q 2822 3125 2822 3475 
Q 2822 3834 2567 4026 
Q 2313 4219 1838 4219 
Q 1578 4219 1281 4162 
Q 984 4106 628 3988 
L 628 4550 
Q 988 4650 1302 4700 
Q 1616 4750 1894 4750 
Q 2613 4750 3031 4423 
Q 3450 4097 3450 3541 
Q 3450 3153 3228 2886 
Q 3006 2619 2597 2516 
z
" transform="scale(0.015625)"/>
       </defs>
       <use xlink:href="#DejaVuSans-2212"/>
       <use xlink:href="#DejaVuSans-33" x="83.789062"/>
      </g>
     </g>
    </g>
    <g id="ytick_2">
     <g id="line2d_8">
      <g>
       <use xlink:href="#m8a5b13fc08" x="180" y="427.592595" style="stroke: #000000; stroke-width: 0.8"/>
      </g>
     </g>
     <g id="text_8">
      <!-- −2 -->
      <g transform="translate(158.257812 431.391814) scale(0.1 -0.1)">
       <use xlink:href="#DejaVuSans-2212"/>
       <use xlink:href="#DejaVuSans-32" x="83.789062"/>
      </g>
     </g>
    </g>
    <g id="ytick_3">
     <g id="line2d_9">
      <g>
       <use xlink:href="#m8a5b13fc08" x="180" y="370.287181" style="stroke: #000000; stroke-width: 0.8"/>
      </g>
     </g>
     <g id="text_9">
      <!-- −1 -->
      <g transform="translate(158.257812 374.0864) scale(0.1 -0.1)">
       <use xlink:href="#DejaVuSans-2212"/>
       <use xlink:href="#DejaVuSans-31" x="83.789062"/>
      </g>
     </g>
    </g>
    <g id="ytick_4">
     <g id="line2d_10">
      <g>
       <use xlink:href="#m8a5b13fc08" x="180" y="312.981766" style="stroke: #000000; stroke-width: 0.8"/>
      </g>
     </g>
     <g id="text_10">
      <!-- 0 -->
      <g transform="translate(166.6375 316.780985) scale(0.1 -0.1)">
       <use xlink:href="#DejaVuSans-30"/>
      </g>
     </g>
    </g>
    <g id="ytick_5">
     <g id="line2d_11">
      <g>
       <use xlink:href="#m8a5b13fc08" x="180" y="255.676352" style="stroke: #000000; stroke-width: 0.8"/>
      </g>
     </g>
     <g id="text_11">
      <!-- 1 -->
      <g transform="translate(166.6375 259.475571) scale(0.1 -0.1)">
       <use xlink:href="#DejaVuSans-31"/>
      </g>
     </g>
    </g>
    <g id="ytick_6">
     <g id="line2d_12">
      <g>
       <use xlink:href="#m8a5b13fc08" x="180" y="198.370937" style="stroke: #000000; stroke-width: 0.8"/>
      </g>
     </g>
     <g id="text_12">
      <!-- 2 -->
      <g transform="translate(166.6375 202.170156) scale(0.1 -0.1)">
       <use xlink:href="#DejaVuSans-32"/>
      </g>
     </g>
    </g>
    <g id="ytick_7">
     <g id="line2d_13">
      <g>
       <use xlink:href="#m8a5b13fc08" x="180" y="141.065523" style="stroke: #000000; stroke-width: 0.8"/>
      </g>
     </g>
     <g id="text_13">
      <!-- 3 -->
      <g transform="translate(166.6375 144.864742) scale(0.1 -0.1)">
       <use xlink:href="#DejaVuSans-33"/>
      </g>
     </g>
    </g>
    <g id="ytick_8">
     <g id="line2d_14">
      <g>
       <use xlink:href="#m8a5b13fc08" x="180" y="83.760109" style="stroke: #000000; stroke-width: 0.8"/>
      </g>
     </g>
     <g id="text_14">
      <!-- 4 -->
      <g transform="translate(166.6375 87.559327) scale(0.1 -0.1)">
       <defs>
        <path id="DejaVuSans-34" d="M 2419 4116 
L 825 1625 
L 2419 1625 
L 2419 4116 
z
M 2253 4666 
L 3047 4666 
L 3047 1625 
L 3713 1625 
L 3713 1100 
L 3047 1100 
L 3047 0 
L 2419 0 
L 2419 1100 
L 313 1100 
L 313 1709 
L 2253 4666 
z
" transform="scale(0.015625)"/>
       </defs>
       <use xlink:href="#DejaVuSans-34"/>
      </g>
     </g>
    </g>
   </g>
   <g id="line2d_15">
    <path d="M 230.727273 358.757974 
L 231.719979 358.143153 
L 232.712685 358.027668 
L 233.70539 358.260123 
L 234.698096 357.276338 
L 235.690802 357.062447 
L 237.676214 355.235735 
L 238.66892 354.248138 
L 239.661626 353.729916 
L 240.654332 351.966862 
L 241.647038 350.75784 
L 243.63245 346.739928 
L 244.625156 343.341468 
L 245.617862 333.664579 
L 246.610568 315.272057 
L 247.603273 299.259735 
L 248.595979 294.518237 
L 249.588685 305.889439 
L 250.581391 324.981068 
L 252.566803 276.858567 
L 253.559509 266.541838 
L 254.552215 264.944314 
L 255.544921 280.955388 
L 256.537627 289.133854 
L 257.530333 241.563808 
L 258.523039 219.348216 
L 259.515745 218.592758 
L 260.50845 238.577679 
L 262.493862 316.07401 
L 263.486568 305.860945 
L 264.479274 274.411691 
L 265.47198 256.303583 
L 266.464686 255.131901 
L 267.457392 297.237949 
L 268.450098 279.390229 
L 269.442804 226.704453 
L 270.43551 218.511643 
L 271.428216 218.581923 
L 273.413627 170.618151 
L 274.406333 157.472252 
L 275.399039 154.516382 
L 276.391745 168.509558 
L 277.384451 206.002931 
L 278.377157 186.953555 
L 279.369863 160.816206 
L 280.362569 142.817992 
L 281.355275 115.32925 
L 282.347981 94.739947 
L 283.340687 89.28 
L 284.333393 102.512089 
L 285.326099 147.670179 
L 286.318804 179.744776 
L 287.31151 140.795568 
L 288.304216 153.434514 
L 289.296922 174.485324 
L 290.289628 139.134094 
L 291.282334 130.909633 
L 292.27504 147.666805 
L 293.267746 176.700276 
L 294.260452 199.405464 
L 295.253158 255.208923 
L 296.245864 256.328147 
L 297.23857 230.870251 
L 298.231276 274.105942 
L 299.223981 256.425106 
L 300.216687 244.488063 
L 301.209393 299.01547 
L 302.202099 305.859098 
L 303.194805 287.200119 
L 304.187511 333.295522 
L 305.180217 317.265962 
L 306.172923 355.339739 
L 307.165629 319.189763 
L 308.158335 302.777807 
L 309.151041 357.898299 
L 310.143747 328.070223 
L 311.136453 314.016392 
L 312.129159 347.526209 
L 313.121864 330.435876 
L 314.11457 333.872422 
L 315.107276 346.540979 
L 316.099982 339.485297 
L 317.092688 350.707485 
L 318.085394 341.501075 
L 319.0781 338.899509 
L 320.070806 353.411538 
L 321.063512 346.524046 
L 322.056218 353.916039 
L 323.048924 348.031697 
L 324.04163 347.212648 
L 325.034336 352.920304 
L 326.027041 351.366541 
L 327.019747 360.19692 
L 328.012453 354.542846 
L 329.005159 354.383409 
L 330.990571 361.298065 
L 331.983277 360.180042 
L 332.975983 361.555127 
L 333.968689 366.524066 
L 334.961395 365.112323 
L 336.946807 360.945665 
L 337.939513 372.125852 
L 338.932218 363.065619 
L 340.91763 377.80318 
L 341.910336 373.614098 
L 342.903042 365.08825 
L 343.895748 375.805673 
L 344.888454 376.449192 
L 345.88116 379.964802 
L 346.873866 389.214567 
L 347.866572 378.378594 
L 348.859278 385.216758 
L 349.851984 372.211804 
L 350.84469 380.366691 
L 351.837395 380.062381 
L 352.830101 371.744272 
L 353.822807 387.673674 
L 354.815513 391.424831 
L 355.808219 389.177263 
L 356.800925 382.999728 
L 357.793631 386.011597 
L 358.786337 379.631392 
L 359.779043 379.350127 
L 360.771749 378.841993 
L 361.764455 387.629825 
L 362.757161 392.000312 
L 363.749867 382.701492 
L 364.742572 389.317296 
L 365.735278 391.94532 
L 366.727984 386.990237 
L 367.72069 390.539661 
L 368.713396 388.096117 
L 369.706102 406.215935 
L 370.698808 390.144001 
L 371.691514 386.452166 
L 372.68422 389.248843 
L 373.676926 387.094374 
L 374.669632 387.06686 
L 375.662338 401.087341 
L 376.655044 387.440479 
L 377.64775 394.907583 
L 378.640455 393.266906 
L 379.633161 398.261893 
L 380.625867 404.557891 
L 381.618573 402.249022 
L 382.611279 393.251554 
L 383.603985 403.248309 
L 384.596691 384.79922 
L 385.589397 401.239414 
L 386.582103 398.690773 
L 387.574809 412.839607 
L 388.567515 401.682297 
L 389.560221 384.782246 
L 390.552927 403.211091 
L 391.545632 410.650536 
L 392.538338 410.106181 
L 393.531044 428.410452 
L 394.52375 394.931365 
L 395.516456 392.664527 
L 396.509162 414.211544 
L 397.501868 418.896662 
L 398.494574 392.353884 
L 400.479986 408.572404 
L 401.472692 425.557058 
L 402.465398 402.380262 
L 404.450809 412.519324 
L 405.443515 413.138914 
L 406.436221 403.502068 
L 407.428927 426.21961 
L 408.421633 400.732535 
L 409.414339 407.849478 
L 410.407045 411.393552 
L 411.399751 409.129159 
L 412.392457 423.686016 
L 413.385163 406.79267 
L 414.377869 411.042912 
L 415.370575 411.059277 
L 416.363281 400.599966 
L 417.355986 414.789071 
L 418.348692 406.74282 
L 419.341398 400.952711 
L 420.334104 403.78162 
L 421.32681 407.35313 
L 422.319516 426.56016 
L 423.312222 418.109373 
L 424.304928 429.451456 
L 425.297634 409.772138 
L 426.29034 402.27354 
L 427.283046 411.927143 
L 428.275752 408.972108 
L 429.268458 415.519814 
L 430.261163 414.078655 
L 431.253869 419.483461 
L 432.246575 406.95362 
L 433.239281 408.825 
L 434.231987 424.923698 
L 435.224693 423.091303 
L 436.217399 415.52126 
L 437.210105 414.445194 
L 438.202811 416.67349 
L 439.195517 408.424564 
L 440.188223 426.401434 
L 441.180929 419.118148 
L 442.173635 424.360835 
L 443.166341 405.425518 
L 444.159046 426.779129 
L 445.151752 420.710732 
L 446.144458 425.894454 
L 447.137164 413.432447 
L 449.122576 422.461822 
L 450.115282 435.556682 
L 451.107988 440.420374 
L 452.100694 429.382792 
L 453.0934 415.347893 
L 454.086106 427.223461 
L 455.078812 427.406892 
L 456.071518 424.803519 
L 457.064223 427.576024 
L 458.056929 427.681952 
L 459.049635 427.659071 
L 460.042341 440.389417 
L 461.035047 409.265727 
L 462.027753 445.976816 
L 463.020459 419.287746 
L 464.013165 412.833767 
L 465.005871 433.762761 
L 465.998577 434.526521 
L 466.991283 429.321399 
L 467.983989 416.634644 
L 468.976695 443.462338 
L 469.9694 414.224543 
L 470.962106 422.599497 
L 471.954812 410.880623 
L 472.947518 434.931162 
L 473.940224 430.141843 
L 474.93293 407.431119 
L 475.925636 440.637984 
L 476.918342 442.055233 
L 477.911048 438.3469 
L 478.903754 423.905303 
L 479.89646 441.42609 
L 481.881872 412.378245 
L 482.874577 434.052668 
L 483.867283 424.278763 
L 484.859989 418.57961 
L 485.852695 425.158506 
L 486.845401 433.02679 
L 487.838107 425.519301 
L 488.830813 422.048956 
L 489.823519 433.615328 
L 490.816225 437.108762 
L 491.808931 433.238272 
L 492.801637 431.187514 
L 493.794343 435.362034 
L 494.787049 412.203907 
L 495.779754 446.92635 
L 496.77246 417.629876 
L 497.765166 429.801408 
L 498.757872 432.628958 
L 499.750578 443.05903 
L 500.743284 425.204654 
L 501.73599 441.080472 
L 502.728696 420.945967 
L 503.721402 441.190976 
L 504.714108 438.731303 
L 505.706814 439.571255 
L 506.69952 429.631466 
L 507.692226 430.496602 
L 508.684932 418.681508 
L 509.677637 415.753994 
L 510.670343 441.252975 
L 511.663049 457.297271 
L 512.655755 440.851441 
L 513.648461 441.977026 
L 514.641167 431.575195 
L 515.633873 441.795324 
L 516.626579 432.173804 
L 517.619285 428.781155 
L 518.611991 442.551401 
L 519.604697 445.816586 
L 520.597403 435.150238 
L 521.590109 453.687023 
L 522.582814 449.651104 
L 523.57552 429.078492 
L 524.568226 428.9431 
L 525.560932 484.146152 
L 526.553638 425.428662 
L 527.546344 451.565596 
L 528.53905 447.095032 
L 529.531756 447.146813 
L 530.524462 433.963004 
L 531.517168 434.65284 
L 532.509874 433.12818 
L 533.50258 453.136469 
L 534.495286 440.099032 
L 535.487991 442.410367 
L 536.480697 438.928285 
L 537.473403 436.962004 
L 538.466109 461.300429 
L 539.458815 442.207558 
L 540.451521 428.969838 
L 541.444227 463.522182 
L 542.436933 447.868037 
L 543.429639 430.379038 
L 544.422345 449.785941 
L 545.415051 436.353694 
L 546.407757 431.356556 
L 547.400463 428.101535 
L 548.393168 429.114005 
L 549.385874 443.24434 
L 550.37858 447.297399 
L 551.371286 435.594087 
L 552.363992 456.993223 
L 553.356698 457.306504 
L 554.349404 456.52126 
L 556.334816 436.397508 
L 558.320228 445.502245 
L 559.312934 446.021232 
L 560.30564 444.287129 
L 561.298345 439.551816 
L 562.291051 453.29232 
L 563.283757 448.623092 
L 564.276463 433.585747 
L 565.269169 426.647952 
L 566.261875 459.294991 
L 567.254581 449.53233 
L 568.247287 428.619362 
L 569.239993 451.584294 
L 570.232699 450.178469 
L 571.225405 454.8284 
L 572.218111 430.598119 
L 573.210817 476.071261 
L 574.203523 461.808195 
L 575.196228 429.653963 
L 576.188934 451.400827 
L 577.18164 461.432172 
L 578.174346 485.492518 
L 579.167052 450.183871 
L 580.159758 480.310213 
L 581.152464 437.997347 
L 582.14517 447.136285 
L 583.137876 464.483413 
L 584.130582 436.538598 
L 585.123288 455.441061 
L 586.115994 439.604881 
L 587.1087 443.985859 
L 588.101405 447.555443 
L 589.094111 449.473601 
L 590.086817 440.932326 
L 591.079523 446.969642 
L 592.072229 454.988683 
L 593.064935 452.101136 
L 594.057641 455.711803 
L 595.050347 479.475427 
L 596.043053 442.198224 
L 597.035759 456.045829 
L 598.028465 447.154484 
L 599.021171 442.79807 
L 600.013877 446.201959 
L 601.006582 443.027687 
L 601.999288 466.545604 
L 602.991994 445.017125 
L 603.9847 458.764038 
L 604.977406 465.802082 
L 605.970112 442.468297 
L 606.962818 461.085685 
L 607.955524 447.965239 
L 608.94823 447.811139 
L 609.940936 456.353362 
L 610.933642 461.561943 
L 611.926348 455.069283 
L 612.919054 461.992034 
L 613.911759 447.418041 
L 614.904465 451.17707 
L 615.897171 455.976047 
L 616.889877 453.975241 
L 617.882583 457.426049 
L 618.875289 463.617469 
L 619.867995 449.230893 
L 620.860701 456.917197 
L 621.853407 453.433805 
L 622.846113 458.48746 
L 623.838819 453.82542 
L 624.831525 450.425347 
L 625.824231 450.547967 
L 626.816936 462.798838 
L 627.809642 466.899882 
L 628.802348 449.543075 
L 629.795054 446.958035 
L 630.78776 450.779386 
L 631.780466 462.519883 
L 632.773172 455.818254 
L 633.765878 469.294305 
L 634.758584 467.130368 
L 635.75129 456.054853 
L 636.743996 467.068416 
L 637.736702 452.499292 
L 638.729408 455.419853 
L 639.722114 457.48592 
L 640.714819 460.812217 
L 641.707525 459.346939 
L 642.700231 452.932148 
L 643.692937 466.158959 
L 644.685643 453.452965 
L 645.678349 456.557457 
L 646.671055 454.338271 
L 647.663761 454.188219 
L 648.656467 464.646849 
L 650.641879 459.319866 
L 651.634585 456.90758 
L 652.627291 459.692524 
L 653.619996 453.113661 
L 654.612702 460.186737 
L 655.605408 462.38026 
L 656.598114 459.034918 
L 657.59082 459.113331 
L 658.583526 461.084469 
L 659.576232 460.511612 
L 661.561644 456.753809 
L 662.55435 457.924738 
L 663.547056 462.182628 
L 664.539762 460.774405 
L 665.532468 463.46097 
L 666.525173 460.470196 
L 667.517879 462.12779 
L 668.510585 462.99584 
L 669.503291 465.390894 
L 670.495997 461.544076 
L 671.488703 464.421983 
L 672.481409 462.548547 
L 673.474115 459.940773 
L 674.466821 460.885568 
L 675.459527 462.124463 
L 676.452233 462.386379 
L 677.444939 461.858195 
L 678.437645 464.891776 
L 679.43035 464.368937 
L 680.423056 464.590154 
L 681.415762 461.039638 
L 682.408468 461.918292 
L 684.39388 464.701422 
L 685.386586 460.541442 
L 686.379292 463.484899 
L 687.371998 464.487803 
L 688.364704 465.666638 
L 690.350116 464.760717 
L 691.342822 466.154718 
L 692.335527 463.868641 
L 693.328233 463.556624 
L 694.320939 463.932269 
L 695.313645 463.568763 
L 696.306351 463.029524 
L 697.299057 466.937444 
L 698.291763 467.435798 
L 699.284469 467.218936 
L 700.277175 466.083496 
L 701.269881 465.1576 
L 702.262587 466.28539 
L 703.255293 464.37109 
L 704.247999 466.616407 
L 705.240705 464.800972 
L 706.23341 466.914765 
L 707.226116 468.584214 
L 708.218822 468.425723 
L 709.211528 465.132127 
L 710.204234 468.19251 
L 711.19694 465.676074 
L 712.189646 465.892867 
L 713.182352 469.729587 
L 714.175058 465.280544 
L 715.167764 467.043519 
L 716.16047 466.815922 
L 717.153176 465.31551 
L 719.138587 467.76724 
L 720.131293 467.859198 
L 721.123999 468.875639 
L 722.116705 468.735526 
L 723.109411 467.821615 
L 724.102117 466.57792 
L 725.094823 469.315229 
L 726.087529 467.541328 
L 727.080235 470.359842 
L 728.072941 467.903702 
L 729.065647 467.143235 
L 730.058353 467.706331 
L 731.051059 469.926266 
L 732.043764 469.933472 
L 733.03647 467.342447 
L 734.029176 467.558496 
L 735.021882 468.93403 
L 736.014588 468.292189 
L 737.007294 468.877923 
L 738 468.748733 
L 738.992706 471.363782 
L 739.985412 469.464632 
L 741.970824 468.906275 
L 742.96353 468.932092 
L 743.956236 472.321587 
L 744.948941 470.01975 
L 745.941647 469.839998 
L 746.934353 469.08431 
L 747.927059 471.037739 
L 748.919765 470.501036 
L 749.912471 468.926847 
L 750.905177 471.17612 
L 751.897883 470.042754 
L 752.890589 469.739956 
L 753.883295 470.785905 
L 754.876001 470.230872 
L 755.868707 470.756055 
L 756.861413 470.885284 
L 757.854118 471.848125 
L 758.846824 470.728262 
L 759.83953 471.298049 
L 760.832236 471.655987 
L 761.824942 471.734638 
L 762.817648 471.313107 
L 763.810354 471.4444 
L 764.80306 471.810618 
L 765.795766 469.686295 
L 766.788472 471.972939 
L 767.781178 470.696787 
L 768.773884 471.418905 
L 769.76659 473.502208 
L 770.759295 471.136261 
L 771.752001 471.42568 
L 772.744707 472.447273 
L 773.737413 469.636866 
L 774.730119 471.872238 
L 775.722825 472.716106 
L 776.715531 473.344366 
L 777.708237 472.147165 
L 778.700943 473.509388 
L 779.693649 471.875588 
L 780.686355 471.484335 
L 781.679061 473.128808 
L 782.671767 472.473704 
L 783.664473 472.874661 
L 784.657178 472.632522 
L 785.649884 473.806883 
L 786.64259 472.6873 
L 787.635296 474.113292 
L 788.628002 474.782084 
L 789.620708 471.640118 
L 790.613414 475.061817 
L 791.60612 474.648722 
L 792.598826 473.253133 
L 793.591532 473.812429 
L 795.576944 473.671174 
L 796.56965 474.695771 
L 797.562355 474.464816 
L 798.555061 474.903831 
L 799.547767 475.007884 
L 800.540473 474.464739 
L 801.533179 476.039414 
L 802.525885 476.001402 
L 803.518591 473.474537 
L 804.511297 474.653042 
L 805.504003 474.473847 
L 806.496709 475.972864 
L 807.489415 475.041248 
L 808.482121 474.310318 
L 809.474827 474.770842 
L 810.467532 474.911204 
L 811.460238 472.977547 
L 812.452944 476.894745 
L 813.44565 476.713854 
L 814.438356 474.994314 
L 815.431062 475.22499 
L 816.423768 476.434944 
L 817.416474 474.659913 
L 819.401886 474.406513 
L 820.394592 476.839706 
L 821.387298 475.301196 
L 822.380004 475.288512 
L 823.372709 476.181351 
L 824.365415 476.923749 
L 825.358121 475.090779 
L 826.350827 476.494119 
L 827.343533 475.543923 
L 828.336239 475.900155 
L 829.328945 475.769124 
L 831.314357 477.458333 
L 832.307063 475.504186 
L 833.299769 476.251068 
L 834.292475 476.106278 
L 835.285181 476.562305 
L 836.277886 477.757045 
L 837.270592 475.865452 
L 839.256004 477.876875 
L 840.24871 475.212463 
L 841.241416 477.981246 
L 842.234122 477.852525 
L 843.226828 478.399927 
L 844.219534 476.207302 
L 845.21224 478.040188 
L 846.204946 477.060553 
L 847.197652 478.896219 
L 848.190358 479.321317 
L 849.183064 478.215048 
L 850.175769 479.117628 
L 851.168475 476.713918 
L 852.161181 478.476653 
L 853.153887 478.04239 
L 854.146593 479.008534 
L 855.139299 478.189688 
L 857.124711 478.584933 
L 858.117417 477.839438 
L 860.102829 478.716994 
L 861.095535 479.376992 
L 862.088241 479.718484 
L 863.080946 479.028166 
L 864.073652 481.125921 
L 865.066358 478.843458 
L 866.059064 478.823405 
L 867.05177 476.877489 
L 868.044476 480.912304 
L 869.037182 479.322551 
L 870.029888 478.776703 
L 871.022594 480.611417 
L 872.0153 477.6649 
L 873.008006 479.075366 
L 874.000712 480.262609 
L 874.993418 478.88593 
L 876.978829 481.003361 
L 877.971535 478.814003 
L 878.964241 482.601917 
L 879.956947 480.598273 
L 880.949653 479.684674 
L 881.942359 479.058046 
L 882.935065 479.990199 
L 883.927771 479.778042 
L 884.920477 480.222422 
L 886.905889 478.525956 
L 887.898595 480.728144 
L 888.8913 480.985569 
L 889.884006 480.728502 
L 890.876712 480.219332 
L 891.869418 480.401633 
L 892.862124 480.989231 
L 893.85483 481.306713 
L 894.847536 480.620231 
L 895.840242 481.670106 
L 896.832948 480.24324 
L 897.825654 480.919635 
L 898.81836 480.547913 
L 899.811066 481.680447 
L 900.803772 480.372589 
L 901.796477 479.685288 
L 902.789183 481.270626 
L 903.781889 481.915162 
L 904.774595 480.989869 
L 905.767301 480.536268 
L 906.760007 481.437375 
L 907.752713 482.089152 
L 908.745419 481.005083 
L 909.738125 483.888056 
L 910.730831 480.300065 
L 911.723537 480.13998 
L 912.716243 483.224698 
L 913.708949 480.210607 
L 914.701655 480.809242 
L 915.69436 482.788981 
L 916.687066 481.187623 
L 917.679772 482.470084 
L 918.672478 481.078826 
L 919.665184 482.107666 
L 920.65789 482.832216 
L 921.650596 481.731389 
L 922.643302 481.229984 
L 923.636008 478.917357 
L 924.628714 482.711595 
L 925.62142 482.322728 
L 926.614126 483.167542 
L 927.606832 483.34484 
L 928.599537 482.567987 
L 929.592243 483.515822 
L 930.584949 483.000492 
L 931.577655 482.326664 
L 932.570361 483.699816 
L 933.563067 483.013439 
L 934.555773 481.810162 
L 935.548479 483.920314 
L 936.541185 481.648047 
L 937.533891 482.558222 
L 938.526597 482.06954 
L 939.519303 481.074613 
L 940.512009 482.911128 
L 941.504714 483.983946 
L 942.49742 484.308816 
L 943.490126 482.540193 
L 944.482832 481.56259 
L 945.475538 484.290662 
L 946.468244 481.257575 
L 947.46095 482.016801 
L 949.446362 483.945857 
L 950.439068 482.985189 
L 951.431774 483.728364 
L 952.42448 482.687425 
L 953.417186 483.352975 
L 955.402597 482.55499 
L 956.395303 483.580013 
L 958.380715 483.620051 
L 959.373421 485.444716 
L 960.366127 484.087507 
L 961.358833 483.095404 
L 962.351539 483.907741 
L 963.344245 483.77248 
L 964.336951 483.01166 
L 965.329657 483.919395 
L 966.322363 483.853613 
L 967.315068 484.486265 
L 968.307774 483.31725 
L 969.30048 484.461769 
L 970.293186 481.863081 
L 971.285892 485.551867 
L 972.278598 483.566426 
L 973.271304 484.387507 
L 974.26401 483.111392 
L 975.256716 483.616826 
L 976.249422 484.816125 
L 977.242128 484.369632 
L 978.234834 484.779156 
L 979.22754 486.246257 
L 980.220246 483.480082 
L 982.205657 485.242947 
L 983.198363 484.727926 
L 984.191069 482.132648 
L 985.183775 485.259224 
L 986.176481 482.579693 
L 987.169187 484.316052 
L 988.161893 483.633883 
L 989.154599 485.049493 
L 991.140011 485.816191 
L 992.132717 485.623859 
L 993.125423 484.664102 
L 994.118128 486.459441 
L 995.110834 486.397596 
L 996.10354 485.151422 
L 997.096246 486.434882 
L 998.088952 483.897075 
L 999.081658 485.539126 
L 1000.074364 486.908619 
L 1001.06707 485.973916 
L 1002.059776 485.594714 
L 1003.052482 484.335989 
L 1004.045188 485.546623 
L 1005.037894 484.304857 
L 1006.0306 486.222752 
L 1007.023305 485.70958 
L 1008.016011 485.894463 
L 1009.008717 485.541633 
L 1010.001423 486.063875 
L 1010.994129 485.810111 
L 1011.986835 486.08077 
L 1012.979541 485.524899 
L 1013.972247 485.45797 
L 1014.964953 485.537735 
L 1015.957659 486.614708 
L 1016.950365 485.584127 
L 1017.943071 487.019102 
L 1018.935777 484.594586 
L 1019.928482 486.861621 
L 1020.921188 486.276322 
L 1021.913894 486.600446 
L 1022.9066 485.962752 
L 1023.899306 485.580689 
L 1024.892012 485.871925 
L 1025.884718 484.219914 
L 1026.877424 485.748485 
L 1027.87013 487.045029 
L 1028.862836 486.129166 
L 1029.855542 487.728603 
L 1030.848248 485.718769 
L 1031.840954 485.035002 
L 1033.826365 488.424191 
L 1034.819071 488.765302 
L 1035.811777 487.605957 
L 1036.804483 487.691779 
L 1037.797189 486.116964 
L 1038.789895 486.781266 
L 1039.782601 486.790049 
L 1040.775307 485.440971 
L 1042.760719 486.331004 
L 1043.753425 485.660277 
L 1044.746131 487.473603 
L 1045.738837 486.773196 
L 1046.731542 485.314021 
L 1047.724248 486.301242 
L 1048.716954 486.864352 
L 1049.70966 486.878955 
L 1050.702366 487.659461 
L 1051.695072 485.705618 
L 1052.687778 486.39532 
L 1053.680484 487.397575 
L 1054.67319 487.95257 
L 1055.665896 487.999105 
L 1056.658602 487.807292 
L 1057.651308 487.883829 
L 1058.644014 487.685298 
L 1059.636719 488.163786 
L 1060.629425 486.673035 
L 1061.622131 488.648935 
L 1062.614837 486.781635 
L 1063.607543 485.496207 
L 1064.600249 487.772943 
L 1065.592955 486.597449 
L 1066.585661 485.645025 
L 1067.578367 486.60844 
L 1068.571073 488.161954 
L 1069.563779 485.373353 
L 1071.549191 488.035674 
L 1072.541896 486.867302 
L 1073.534602 486.546036 
L 1074.527308 487.015216 
L 1075.520014 488.078947 
L 1076.51272 487.830522 
L 1077.505426 489.371837 
L 1078.498132 489.158667 
L 1079.490838 489.455137 
L 1080.483544 488.384653 
L 1081.47625 487.053606 
L 1082.468956 489.222923 
L 1083.461662 486.02986 
L 1084.454368 488.457081 
L 1085.447073 487.32009 
L 1086.439779 486.44229 
L 1087.432485 486.543443 
L 1088.425191 488.342634 
L 1089.417897 487.094036 
L 1090.410603 488.592841 
L 1091.403309 489.288376 
L 1092.396015 487.263402 
L 1093.388721 487.840233 
L 1094.381427 485.810371 
L 1095.374133 487.735818 
L 1096.366839 487.772351 
L 1097.359545 488.763582 
L 1098.35225 487.022264 
L 1099.344956 487.934411 
L 1100.337662 488.443285 
L 1101.330368 488.459524 
L 1102.323074 486.481984 
L 1103.31578 488.029975 
L 1104.308486 487.745822 
L 1105.301192 487.736467 
L 1106.293898 488.346976 
L 1107.286604 488.076863 
L 1108.27931 487.360248 
L 1110.264722 488.354028 
L 1111.257428 488.27555 
L 1112.250133 489.504215 
L 1113.242839 486.960426 
L 1114.235545 487.572568 
L 1115.228251 487.006787 
L 1116.220957 488.306382 
L 1117.213663 487.930243 
L 1118.206369 488.63693 
L 1119.199075 490.034027 
L 1120.191781 487.795048 
L 1121.184487 489.025813 
L 1122.177193 488.4998 
L 1123.169899 486.752609 
L 1124.162605 487.09455 
L 1125.15531 488.636941 
L 1126.148016 486.872847 
L 1127.140722 488.26901 
L 1128.133428 485.901149 
L 1129.126134 488.585484 
L 1130.11884 490.228969 
L 1131.111546 487.878292 
L 1132.104252 488.923245 
L 1133.096958 488.212611 
L 1134.089664 488.295114 
L 1135.08237 488.56256 
L 1136.075076 488.641206 
L 1137.067782 488.408798 
L 1138.060487 487.168377 
L 1139.053193 487.267013 
L 1140.045899 489.915668 
L 1141.038605 487.424916 
L 1142.031311 489.671291 
L 1144.016723 489.226284 
L 1145.009429 488.115984 
L 1146.002135 488.747427 
L 1146.994841 488.140038 
L 1147.987547 487.143868 
L 1148.980253 487.558151 
L 1149.972959 489.409268 
L 1150.965664 488.394111 
L 1151.95837 489.253722 
L 1152.951076 490.641059 
L 1153.943782 490.64891 
L 1154.936488 488.906231 
L 1155.929194 489.005474 
L 1156.9219 490.886934 
L 1157.914606 488.206366 
L 1158.907312 488.749449 
L 1159.900018 487.189991 
L 1160.892724 486.67338 
L 1161.88543 488.354449 
L 1162.878136 489.351437 
L 1163.870841 488.466661 
L 1164.863547 489.343004 
L 1165.856253 490.421462 
L 1166.848959 489.066022 
L 1167.841665 487.425216 
L 1168.834371 488.051294 
L 1170.819783 490.567619 
L 1171.812489 489.488861 
L 1172.805195 487.48453 
L 1173.797901 488.403289 
L 1174.790607 489.831445 
L 1175.783313 490.72274 
L 1176.776019 488.197879 
L 1177.768724 488.362481 
L 1178.76143 489.190729 
L 1179.754136 490.352962 
L 1180.746842 489.085839 
L 1181.739548 490.209934 
L 1182.732254 488.976954 
L 1183.72496 490.016846 
L 1184.717666 489.214033 
L 1185.710372 490.289568 
L 1186.703078 489.698614 
L 1187.695784 490.777197 
L 1188.68849 488.508976 
L 1189.681196 488.824093 
L 1190.673901 486.937807 
L 1191.666607 489.610551 
L 1192.659313 488.927259 
L 1193.652019 487.728501 
L 1194.644725 490.533817 
L 1195.637431 488.499858 
L 1196.630137 489.319098 
L 1198.615549 488.437491 
L 1200.600961 490.305531 
L 1201.593667 489.33448 
L 1202.586373 488.806007 
L 1203.579078 488.616265 
L 1204.571784 488.776981 
L 1205.56449 489.552537 
L 1206.557196 489.020873 
L 1207.549902 490.030453 
L 1208.542608 490.855688 
L 1209.535314 487.997892 
L 1210.52802 488.986378 
L 1211.520726 489.216091 
L 1212.513432 489.590336 
L 1213.506138 488.871786 
L 1214.498844 488.553426 
L 1215.49155 489.134872 
L 1216.484255 492.105882 
L 1217.476961 490.406044 
L 1218.469667 489.906175 
L 1219.462373 491.501577 
L 1220.455079 489.79614 
L 1221.447785 489.93874 
L 1222.440491 490.630955 
L 1224.425903 488.44085 
L 1225.418609 491.473956 
L 1226.411315 489.315284 
L 1227.404021 489.613655 
L 1228.396727 487.65358 
L 1229.389432 489.57833 
L 1230.382138 490.115236 
L 1231.374844 489.83377 
L 1232.36755 487.989156 
L 1233.360256 489.549312 
L 1234.352962 489.034827 
L 1235.345668 489.316954 
L 1236.338374 490.525244 
L 1237.33108 492.48 
L 1238.323786 488.36278 
L 1239.316492 489.635283 
L 1240.309198 489.708842 
L 1241.301904 489.594125 
L 1242.29461 490.340682 
L 1243.287315 490.218919 
L 1244.280021 488.215861 
L 1245.272727 488.683021 
L 1245.272727 488.683021 
" clip-path="url(#pa30d306255)" style="fill: none; stroke: #1f77b4; stroke-width: 1.5; stroke-linecap: square"/>
   </g>
   <g id="patch_3">
    <path d="M 180 512.64 
L 180 69.12 
" style="fill: none; stroke: #000000; stroke-width: 0.8; stroke-linejoin: miter; stroke-linecap: square"/>
   </g>
   <g id="patch_4">
    <path d="M 1296 512.64 
L 1296 69.12 
" style="fill: none; stroke: #000000; stroke-width: 0.8; stroke-linejoin: miter; stroke-linecap: square"/>
   </g>
   <g id="patch_5">
    <path d="M 180 512.64 
L 1296 512.64 
" style="fill: none; stroke: #000000; stroke-width: 0.8; stroke-linejoin: miter; stroke-linecap: square"/>
   </g>
   <g id="patch_6">
    <path d="M 180 69.12 
L 1296 69.12 
" style="fill: none; stroke: #000000; stroke-width: 0.8; stroke-linejoin: miter; stroke-linecap: square"/>
   </g>
   <g id="text_15">
    <!-- source16-receiver23 -->
    <g transform="translate(532.175 60.80125) scale(0.4 -0.4)">
     <defs>
      <path id="DejaVuSans-73" d="M 2834 3397 
L 2834 2853 
Q 2591 2978 2328 3040 
Q 2066 3103 1784 3103 
Q 1356 3103 1142 2972 
Q 928 2841 928 2578 
Q 928 2378 1081 2264 
Q 1234 2150 1697 2047 
L 1894 2003 
Q 2506 1872 2764 1633 
Q 3022 1394 3022 966 
Q 3022 478 2636 193 
Q 2250 -91 1575 -91 
Q 1294 -91 989 -36 
Q 684 19 347 128 
L 347 722 
Q 666 556 975 473 
Q 1284 391 1588 391 
Q 1994 391 2212 530 
Q 2431 669 2431 922 
Q 2431 1156 2273 1281 
Q 2116 1406 1581 1522 
L 1381 1569 
Q 847 1681 609 1914 
Q 372 2147 372 2553 
Q 372 3047 722 3315 
Q 1072 3584 1716 3584 
Q 2034 3584 2315 3537 
Q 2597 3491 2834 3397 
z
" transform="scale(0.015625)"/>
      <path id="DejaVuSans-6f" d="M 1959 3097 
Q 1497 3097 1228 2736 
Q 959 2375 959 1747 
Q 959 1119 1226 758 
Q 1494 397 1959 397 
Q 2419 397 2687 759 
Q 2956 1122 2956 1747 
Q 2956 2369 2687 2733 
Q 2419 3097 1959 3097 
z
M 1959 3584 
Q 2709 3584 3137 3096 
Q 3566 2609 3566 1747 
Q 3566 888 3137 398 
Q 2709 -91 1959 -91 
Q 1206 -91 779 398 
Q 353 888 353 1747 
Q 353 2609 779 3096 
Q 1206 3584 1959 3584 
z
" transform="scale(0.015625)"/>
      <path id="DejaVuSans-75" d="M 544 1381 
L 544 3500 
L 1119 3500 
L 1119 1403 
Q 1119 906 1312 657 
Q 1506 409 1894 409 
Q 2359 409 2629 706 
Q 2900 1003 2900 1516 
L 2900 3500 
L 3475 3500 
L 3475 0 
L 2900 0 
L 2900 538 
Q 2691 219 2414 64 
Q 2138 -91 1772 -91 
Q 1169 -91 856 284 
Q 544 659 544 1381 
z
M 1991 3584 
L 1991 3584 
z
" transform="scale(0.015625)"/>
      <path id="DejaVuSans-72" d="M 2631 2963 
Q 2534 3019 2420 3045 
Q 2306 3072 2169 3072 
Q 1681 3072 1420 2755 
Q 1159 2438 1159 1844 
L 1159 0 
L 581 0 
L 581 3500 
L 1159 3500 
L 1159 2956 
Q 1341 3275 1631 3429 
Q 1922 3584 2338 3584 
Q 2397 3584 2469 3576 
Q 2541 3569 2628 3553 
L 2631 2963 
z
" transform="scale(0.015625)"/>
      <path id="DejaVuSans-63" d="M 3122 3366 
L 3122 2828 
Q 2878 2963 2633 3030 
Q 2388 3097 2138 3097 
Q 1578 3097 1268 2742 
Q 959 2388 959 1747 
Q 959 1106 1268 751 
Q 1578 397 2138 397 
Q 2388 397 2633 464 
Q 2878 531 3122 666 
L 3122 134 
Q 2881 22 2623 -34 
Q 2366 -91 2075 -91 
Q 1284 -91 818 406 
Q 353 903 353 1747 
Q 353 2603 823 3093 
Q 1294 3584 2113 3584 
Q 2378 3584 2631 3529 
Q 2884 3475 3122 3366 
z
" transform="scale(0.015625)"/>
      <path id="DejaVuSans-65" d="M 3597 1894 
L 3597 1613 
L 953 1613 
Q 991 1019 1311 708 
Q 1631 397 2203 397 
Q 2534 397 2845 478 
Q 3156 559 3463 722 
L 3463 178 
Q 3153 47 2828 -22 
Q 2503 -91 2169 -91 
Q 1331 -91 842 396 
Q 353 884 353 1716 
Q 353 2575 817 3079 
Q 1281 3584 2069 3584 
Q 2775 3584 3186 3129 
Q 3597 2675 3597 1894 
z
M 3022 2063 
Q 3016 2534 2758 2815 
Q 2500 3097 2075 3097 
Q 1594 3097 1305 2825 
Q 1016 2553 972 2059 
L 3022 2063 
z
" transform="scale(0.015625)"/>
      <path id="DejaVuSans-36" d="M 2113 2584 
Q 1688 2584 1439 2293 
Q 1191 2003 1191 1497 
Q 1191 994 1439 701 
Q 1688 409 2113 409 
Q 2538 409 2786 701 
Q 3034 994 3034 1497 
Q 3034 2003 2786 2293 
Q 2538 2584 2113 2584 
z
M 3366 4563 
L 3366 3988 
Q 3128 4100 2886 4159 
Q 2644 4219 2406 4219 
Q 1781 4219 1451 3797 
Q 1122 3375 1075 2522 
Q 1259 2794 1537 2939 
Q 1816 3084 2150 3084 
Q 2853 3084 3261 2657 
Q 3669 2231 3669 1497 
Q 3669 778 3244 343 
Q 2819 -91 2113 -91 
Q 1303 -91 875 529 
Q 447 1150 447 2328 
Q 447 3434 972 4092 
Q 1497 4750 2381 4750 
Q 2619 4750 2861 4703 
Q 3103 4656 3366 4563 
z
" transform="scale(0.015625)"/>
      <path id="DejaVuSans-2d" d="M 313 2009 
L 1997 2009 
L 1997 1497 
L 313 1497 
L 313 2009 
z
" transform="scale(0.015625)"/>
      <path id="DejaVuSans-69" d="M 603 3500 
L 1178 3500 
L 1178 0 
L 603 0 
L 603 3500 
z
M 603 4863 
L 1178 4863 
L 1178 4134 
L 603 4134 
L 603 4863 
z
" transform="scale(0.015625)"/>
      <path id="DejaVuSans-76" d="M 191 3500 
L 800 3500 
L 1894 563 
L 2988 3500 
L 3597 3500 
L 2284 0 
L 1503 0 
L 191 3500 
z
" transform="scale(0.015625)"/>
     </defs>
     <use xlink:href="#DejaVuSans-73"/>
     <use xlink:href="#DejaVuSans-6f" x="52.099609"/>
     <use xlink:href="#DejaVuSans-75" x="113.28125"/>
     <use xlink:href="#DejaVuSans-72" x="176.660156"/>
     <use xlink:href="#DejaVuSans-63" x="215.523438"/>
     <use xlink:href="#DejaVuSans-65" x="270.503906"/>
     <use xlink:href="#DejaVuSans-31" x="332.027344"/>
     <use xlink:href="#DejaVuSans-36" x="395.650391"/>
     <use xlink:href="#DejaVuSans-2d" x="459.273438"/>
     <use xlink:href="#DejaVuSans-72" x="495.357422"/>
     <use xlink:href="#DejaVuSans-65" x="534.220703"/>
     <use xlink:href="#DejaVuSans-63" x="595.744141"/>
     <use xlink:href="#DejaVuSans-65" x="650.724609"/>
     <use xlink:href="#DejaVuSans-69" x="712.248047"/>
     <use xlink:href="#DejaVuSans-76" x="740.03125"/>
     <use xlink:href="#DejaVuSans-65" x="799.210938"/>
     <use xlink:href="#DejaVuSans-72" x="860.734375"/>
     <use xlink:href="#DejaVuSans-32" x="901.847656"/>
     <use xlink:href="#DejaVuSans-33" x="965.470703"/>
    </g>
   </g>
  </g>
 </g>
 <defs>
  <clipPath id="pa30d306255">
   <rect x="180" y="69.12" width="1116" height="443.52"/>
  </clipPath>
 </defs>
</svg>
