<?xml version="1.0" encoding="utf-8" standalone="no"?>
<!DOCTYPE svg PUBLIC "-//W3C//DTD SVG 1.1//EN"
  "http://www.w3.org/Graphics/SVG/1.1/DTD/svg11.dtd">
<svg xmlns:xlink="http://www.w3.org/1999/xlink" width="1440pt" height="576pt" viewBox="0 0 1440 576" xmlns="http://www.w3.org/2000/svg" version="1.1">
 <metadata>
  <rdf:RDF xmlns:dc="http://purl.org/dc/elements/1.1/" xmlns:cc="http://creativecommons.org/ns#" xmlns:rdf="http://www.w3.org/1999/02/22-rdf-syntax-ns#">
   <cc:Work>
    <dc:type rdf:resource="http://purl.org/dc/dcmitype/StillImage"/>
    <dc:date>2024-05-22T04:50:09.358332</dc:date>
    <dc:format>image/svg+xml</dc:format>
    <dc:creator>
     <cc:Agent>
      <dc:title>Matplotlib v3.8.3, https://matplotlib.org/</dc:title>
     </cc:Agent>
    </dc:creator>
   </cc:Work>
  </rdf:RDF>
 </metadata>
 <defs>
  <style type="text/css">*{stroke-linejoin: round; stroke-linecap: butt}</style>
 </defs>
 <g id="figure_1">
  <g id="patch_1">
   <path d="M 0 576 
L 1440 576 
L 1440 0 
L 0 0 
z
" style="fill: #ffffff"/>
  </g>
  <g id="axes_1">
   <g id="patch_2">
    <path d="M 180 512.64 
L 1296 512.64 
L 1296 69.12 
L 180 69.12 
z
" style="fill: #ffffff"/>
   </g>
   <g id="matplotlib.axis_1">
    <g id="xtick_1">
     <g id="line2d_1">
      <defs>
       <path id="m7a3c3bbed6" d="M 0 0 
L 0 3.5 
" style="stroke: #000000; stroke-width: 0.8"/>
      </defs>
      <g>
       <use xlink:href="#m7a3c3bbed6" x="229.734567" y="512.64" style="stroke: #000000; stroke-width: 0.8"/>
      </g>
     </g>
     <g id="text_1">
      <!-- 0 -->
      <g transform="translate(226.553317 527.238438) scale(0.1 -0.1)">
       <defs>
        <path id="DejaVuSans-30" d="M 2034 4250 
Q 1547 4250 1301 3770 
Q 1056 3291 1056 2328 
Q 1056 1369 1301 889 
Q 1547 409 2034 409 
Q 2525 409 2770 889 
Q 3016 1369 3016 2328 
Q 3016 3291 2770 3770 
Q 2525 4250 2034 4250 
z
M 2034 4750 
Q 2819 4750 3233 4129 
Q 3647 3509 3647 2328 
Q 3647 1150 3233 529 
Q 2819 -91 2034 -91 
Q 1250 -91 836 529 
Q 422 1150 422 2328 
Q 422 3509 836 4129 
Q 1250 4750 2034 4750 
z
" transform="scale(0.015625)"/>
       </defs>
       <use xlink:href="#DejaVuSans-30"/>
      </g>
     </g>
    </g>
    <g id="xtick_2">
     <g id="line2d_2">
      <g>
       <use xlink:href="#m7a3c3bbed6" x="433.04074" y="512.64" style="stroke: #000000; stroke-width: 0.8"/>
      </g>
     </g>
     <g id="text_2">
      <!-- 500 -->
      <g transform="translate(423.49699 527.238438) scale(0.1 -0.1)">
       <defs>
        <path id="DejaVuSans-35" d="M 691 4666 
L 3169 4666 
L 3169 4134 
L 1269 4134 
L 1269 2991 
Q 1406 3038 1543 3061 
Q 1681 3084 1819 3084 
Q 2600 3084 3056 2656 
Q 3513 2228 3513 1497 
Q 3513 744 3044 326 
Q 2575 -91 1722 -91 
Q 1428 -91 1123 -41 
Q 819 9 494 109 
L 494 744 
Q 775 591 1075 516 
Q 1375 441 1709 441 
Q 2250 441 2565 725 
Q 2881 1009 2881 1497 
Q 2881 1984 2565 2268 
Q 2250 2553 1709 2553 
Q 1456 2553 1204 2497 
Q 953 2441 691 2322 
L 691 4666 
z
" transform="scale(0.015625)"/>
       </defs>
       <use xlink:href="#DejaVuSans-35"/>
       <use xlink:href="#DejaVuSans-30" x="63.623047"/>
       <use xlink:href="#DejaVuSans-30" x="127.246094"/>
      </g>
     </g>
    </g>
    <g id="xtick_3">
     <g id="line2d_3">
      <g>
       <use xlink:href="#m7a3c3bbed6" x="636.346913" y="512.64" style="stroke: #000000; stroke-width: 0.8"/>
      </g>
     </g>
     <g id="text_3">
      <!-- 1000 -->
      <g transform="translate(623.621913 527.238438) scale(0.1 -0.1)">
       <defs>
        <path id="DejaVuSans-31" d="M 794 531 
L 1825 531 
L 1825 4091 
L 703 3866 
L 703 4441 
L 1819 4666 
L 2450 4666 
L 2450 531 
L 3481 531 
L 3481 0 
L 794 0 
L 794 531 
z
" transform="scale(0.015625)"/>
       </defs>
       <use xlink:href="#DejaVuSans-31"/>
       <use xlink:href="#DejaVuSans-30" x="63.623047"/>
       <use xlink:href="#DejaVuSans-30" x="127.246094"/>
       <use xlink:href="#DejaVuSans-30" x="190.869141"/>
      </g>
     </g>
    </g>
    <g id="xtick_4">
     <g id="line2d_4">
      <g>
       <use xlink:href="#m7a3c3bbed6" x="839.653087" y="512.64" style="stroke: #000000; stroke-width: 0.8"/>
      </g>
     </g>
     <g id="text_4">
      <!-- 1500 -->
      <g transform="translate(826.928087 527.238438) scale(0.1 -0.1)">
       <use xlink:href="#DejaVuSans-31"/>
       <use xlink:href="#DejaVuSans-35" x="63.623047"/>
       <use xlink:href="#DejaVuSans-30" x="127.246094"/>
       <use xlink:href="#DejaVuSans-30" x="190.869141"/>
      </g>
     </g>
    </g>
    <g id="xtick_5">
     <g id="line2d_5">
      <g>
       <use xlink:href="#m7a3c3bbed6" x="1042.95926" y="512.64" style="stroke: #000000; stroke-width: 0.8"/>
      </g>
     </g>
     <g id="text_5">
      <!-- 2000 -->
      <g transform="translate(1030.23426 527.238438) scale(0.1 -0.1)">
       <defs>
        <path id="DejaVuSans-32" d="M 1228 531 
L 3431 531 
L 3431 0 
L 469 0 
L 469 531 
Q 828 903 1448 1529 
Q 2069 2156 2228 2338 
Q 2531 2678 2651 2914 
Q 2772 3150 2772 3378 
Q 2772 3750 2511 3984 
Q 2250 4219 1831 4219 
Q 1534 4219 1204 4116 
Q 875 4013 500 3803 
L 500 4441 
Q 881 4594 1212 4672 
Q 1544 4750 1819 4750 
Q 2544 4750 2975 4387 
Q 3406 4025 3406 3419 
Q 3406 3131 3298 2873 
Q 3191 2616 2906 2266 
Q 2828 2175 2409 1742 
Q 1991 1309 1228 531 
z
" transform="scale(0.015625)"/>
       </defs>
       <use xlink:href="#DejaVuSans-32"/>
       <use xlink:href="#DejaVuSans-30" x="63.623047"/>
       <use xlink:href="#DejaVuSans-30" x="127.246094"/>
       <use xlink:href="#DejaVuSans-30" x="190.869141"/>
      </g>
     </g>
    </g>
    <g id="xtick_6">
     <g id="line2d_6">
      <g>
       <use xlink:href="#m7a3c3bbed6" x="1246.265433" y="512.64" style="stroke: #000000; stroke-width: 0.8"/>
      </g>
     </g>
     <g id="text_6">
      <!-- 2500 -->
      <g transform="translate(1233.540433 527.238438) scale(0.1 -0.1)">
       <use xlink:href="#DejaVuSans-32"/>
       <use xlink:href="#DejaVuSans-35" x="63.623047"/>
       <use xlink:href="#DejaVuSans-30" x="127.246094"/>
       <use xlink:href="#DejaVuSans-30" x="190.869141"/>
      </g>
     </g>
    </g>
   </g>
   <g id="matplotlib.axis_2">
    <g id="ytick_1">
     <g id="line2d_7">
      <defs>
       <path id="mdce345d4d7" d="M 0 0 
L -3.5 0 
" style="stroke: #000000; stroke-width: 0.8"/>
      </defs>
      <g>
       <use xlink:href="#mdce345d4d7" x="180" y="510.340147" style="stroke: #000000; stroke-width: 0.8"/>
      </g>
     </g>
     <g id="text_7">
      <!-- −3 -->
      <g transform="translate(158.257812 514.139365) scale(0.1 -0.1)">
       <defs>
        <path id="DejaVuSans-2212" d="M 678 2272 
L 4684 2272 
L 4684 1741 
L 678 1741 
L 678 2272 
z
" transform="scale(0.015625)"/>
        <path id="DejaVuSans-33" d="M 2597 2516 
Q 3050 2419 3304 2112 
Q 3559 1806 3559 1356 
Q 3559 666 3084 287 
Q 2609 -91 1734 -91 
Q 1441 -91 1130 -33 
Q 819 25 488 141 
L 488 750 
Q 750 597 1062 519 
Q 1375 441 1716 441 
Q 2309 441 2620 675 
Q 2931 909 2931 1356 
Q 2931 1769 2642 2001 
Q 2353 2234 1838 2234 
L 1294 2234 
L 1294 2753 
L 1863 2753 
Q 2328 2753 2575 2939 
Q 2822 3125 2822 3475 
Q 2822 3834 2567 4026 
Q 2313 4219 1838 4219 
Q 1578 4219 1281 4162 
Q 984 4106 628 3988 
L 628 4550 
Q 988 4650 1302 4700 
Q 1616 4750 1894 4750 
Q 2613 4750 3031 4423 
Q 3450 4097 3450 3541 
Q 3450 3153 3228 2886 
Q 3006 2619 2597 2516 
z
" transform="scale(0.015625)"/>
       </defs>
       <use xlink:href="#DejaVuSans-2212"/>
       <use xlink:href="#DejaVuSans-33" x="83.789062"/>
      </g>
     </g>
    </g>
    <g id="ytick_2">
     <g id="line2d_8">
      <g>
       <use xlink:href="#mdce345d4d7" x="180" y="451.587142" style="stroke: #000000; stroke-width: 0.8"/>
      </g>
     </g>
     <g id="text_8">
      <!-- −2 -->
      <g transform="translate(158.257812 455.386361) scale(0.1 -0.1)">
       <use xlink:href="#DejaVuSans-2212"/>
       <use xlink:href="#DejaVuSans-32" x="83.789062"/>
      </g>
     </g>
    </g>
    <g id="ytick_3">
     <g id="line2d_9">
      <g>
       <use xlink:href="#mdce345d4d7" x="180" y="392.834138" style="stroke: #000000; stroke-width: 0.8"/>
      </g>
     </g>
     <g id="text_9">
      <!-- −1 -->
      <g transform="translate(158.257812 396.633357) scale(0.1 -0.1)">
       <use xlink:href="#DejaVuSans-2212"/>
       <use xlink:href="#DejaVuSans-31" x="83.789062"/>
      </g>
     </g>
    </g>
    <g id="ytick_4">
     <g id="line2d_10">
      <g>
       <use xlink:href="#mdce345d4d7" x="180" y="334.081134" style="stroke: #000000; stroke-width: 0.8"/>
      </g>
     </g>
     <g id="text_10">
      <!-- 0 -->
      <g transform="translate(166.6375 337.880352) scale(0.1 -0.1)">
       <use xlink:href="#DejaVuSans-30"/>
      </g>
     </g>
    </g>
    <g id="ytick_5">
     <g id="line2d_11">
      <g>
       <use xlink:href="#mdce345d4d7" x="180" y="275.328129" style="stroke: #000000; stroke-width: 0.8"/>
      </g>
     </g>
     <g id="text_11">
      <!-- 1 -->
      <g transform="translate(166.6375 279.127348) scale(0.1 -0.1)">
       <use xlink:href="#DejaVuSans-31"/>
      </g>
     </g>
    </g>
    <g id="ytick_6">
     <g id="line2d_12">
      <g>
       <use xlink:href="#mdce345d4d7" x="180" y="216.575125" style="stroke: #000000; stroke-width: 0.8"/>
      </g>
     </g>
     <g id="text_12">
      <!-- 2 -->
      <g transform="translate(166.6375 220.374344) scale(0.1 -0.1)">
       <use xlink:href="#DejaVuSans-32"/>
      </g>
     </g>
    </g>
    <g id="ytick_7">
     <g id="line2d_13">
      <g>
       <use xlink:href="#mdce345d4d7" x="180" y="157.82212" style="stroke: #000000; stroke-width: 0.8"/>
      </g>
     </g>
     <g id="text_13">
      <!-- 3 -->
      <g transform="translate(166.6375 161.621339) scale(0.1 -0.1)">
       <use xlink:href="#DejaVuSans-33"/>
      </g>
     </g>
    </g>
    <g id="ytick_8">
     <g id="line2d_14">
      <g>
       <use xlink:href="#mdce345d4d7" x="180" y="99.069116" style="stroke: #000000; stroke-width: 0.8"/>
      </g>
     </g>
     <g id="text_14">
      <!-- 4 -->
      <g transform="translate(166.6375 102.868335) scale(0.1 -0.1)">
       <defs>
        <path id="DejaVuSans-34" d="M 2419 4116 
L 825 1625 
L 2419 1625 
L 2419 4116 
z
M 2253 4666 
L 3047 4666 
L 3047 1625 
L 3713 1625 
L 3713 1100 
L 3047 1100 
L 3047 0 
L 2419 0 
L 2419 1100 
L 313 1100 
L 313 1709 
L 2253 4666 
z
" transform="scale(0.015625)"/>
       </defs>
       <use xlink:href="#DejaVuSans-34"/>
      </g>
     </g>
    </g>
   </g>
   <g id="line2d_15">
    <path d="M 230.727273 399.822543 
L 232.712685 398.396871 
L 233.70539 397.44505 
L 234.698096 396.077179 
L 235.690802 394.400822 
L 237.676214 390.640652 
L 240.654332 382.986903 
L 241.647038 379.525619 
L 242.639744 376.887293 
L 243.63245 373.239666 
L 245.617862 364.158581 
L 246.610568 361.713982 
L 247.603273 353.215303 
L 249.588685 271.597255 
L 250.581391 243.580646 
L 251.574097 226.061942 
L 252.566803 220.409255 
L 253.559509 226.794708 
L 254.552215 234.164323 
L 255.544921 226.409309 
L 256.537627 215.916344 
L 257.530333 212.744464 
L 258.523039 210.059086 
L 259.515745 198.298831 
L 260.50845 191.061671 
L 261.501156 197.467335 
L 262.493862 220.389172 
L 263.486568 236.440326 
L 264.479274 226.5099 
L 265.47198 229.174707 
L 266.464686 247.096219 
L 267.457392 261.321506 
L 268.450098 286.154918 
L 269.442804 280.772807 
L 270.43551 245.371557 
L 271.428216 262.1116 
L 272.420922 293.786775 
L 273.413627 203.264973 
L 274.406333 175.245605 
L 275.399039 157.507811 
L 277.384451 106.871466 
L 278.377157 92.664853 
L 279.369863 89.724032 
L 280.362569 96.865384 
L 281.355275 107.006079 
L 282.347981 103.723405 
L 283.340687 92.71598 
L 284.333393 89.28 
L 285.326099 95.668725 
L 286.318804 103.489431 
L 287.31151 98.642997 
L 288.304216 90.911757 
L 289.296922 92.208606 
L 290.289628 105.341474 
L 292.27504 146.275875 
L 293.267746 163.517075 
L 294.260452 190.487558 
L 295.253158 202.127122 
L 296.245864 196.200219 
L 297.23857 212.269915 
L 298.231276 274.936244 
L 299.223981 324.946153 
L 300.216687 305.193195 
L 301.209393 316.910888 
L 302.202099 264.817623 
L 303.194805 269.496088 
L 304.187511 336.064503 
L 305.180217 292.043123 
L 306.172923 276.556647 
L 307.165629 330.227019 
L 308.158335 322.732921 
L 309.151041 280.976976 
L 310.143747 296.014272 
L 311.136453 432.677447 
L 312.129159 321.559507 
L 313.121864 319.393722 
L 314.11457 366.763524 
L 315.107276 337.721495 
L 316.099982 338.197789 
L 317.092688 362.008493 
L 318.085394 338.129704 
L 319.0781 333.066597 
L 320.070806 369.163802 
L 322.056218 341.359592 
L 323.048924 355.574274 
L 324.04163 358.924262 
L 325.034336 350.263719 
L 326.027041 359.048246 
L 327.019747 359.38204 
L 328.012453 357.644257 
L 329.005159 362.978368 
L 329.997865 359.443246 
L 330.990571 357.759742 
L 331.983277 368.683837 
L 332.975983 357.68968 
L 333.968689 361.700427 
L 334.961395 378.539174 
L 335.954101 367.178617 
L 336.946807 364.954517 
L 337.939513 377.253544 
L 338.932218 372.635941 
L 339.924924 365.813114 
L 340.91763 376.125566 
L 341.910336 373.285069 
L 342.903042 364.592302 
L 343.895748 382.944233 
L 344.888454 376.217749 
L 345.88116 370.980018 
L 346.873866 387.735072 
L 347.866572 381.801887 
L 348.859278 366.463287 
L 349.851984 382.578595 
L 350.84469 387.806765 
L 351.837395 370.889849 
L 352.830101 377.763922 
L 353.822807 402.134228 
L 354.815513 367.714611 
L 355.808219 369.660672 
L 356.800925 395.849276 
L 357.793631 381.594027 
L 358.786337 372.828267 
L 359.779043 385.389033 
L 360.771749 393.005628 
L 361.764455 377.136636 
L 362.757161 389.567505 
L 363.749867 406.660227 
L 364.742572 385.189636 
L 365.735278 389.266716 
L 366.727984 401.919255 
L 367.72069 391.665109 
L 368.713396 375.280638 
L 370.698808 394.933103 
L 371.691514 387.940084 
L 372.68422 391.804233 
L 373.676926 394.987748 
L 374.669632 397.434717 
L 375.662338 395.773589 
L 376.655044 392.947382 
L 377.64775 393.313882 
L 378.640455 392.918836 
L 379.633161 391.238333 
L 380.625867 392.933459 
L 381.618573 399.186905 
L 382.611279 398.355694 
L 383.603985 407.063 
L 384.596691 405.025524 
L 385.589397 403.678449 
L 386.582103 403.944959 
L 387.574809 398.509396 
L 388.567515 396.810377 
L 389.560221 402.043531 
L 390.552927 406.193767 
L 391.545632 399.341662 
L 392.538338 403.618276 
L 393.531044 401.533028 
L 394.52375 401.337554 
L 395.516456 407.545292 
L 396.509162 401.151629 
L 397.501868 399.775144 
L 398.494574 417.405021 
L 399.48728 409.156313 
L 400.479986 415.433371 
L 401.472692 408.971352 
L 402.465398 410.217528 
L 403.458104 396.931132 
L 404.450809 401.996808 
L 405.443515 407.783694 
L 406.436221 412.642907 
L 407.428927 398.690335 
L 408.421633 410.913792 
L 409.414339 403.723824 
L 410.407045 410.368814 
L 411.399751 402.613334 
L 412.392457 405.42887 
L 413.385163 400.380101 
L 414.377869 413.878669 
L 415.370575 418.918932 
L 416.363281 409.73846 
L 417.355986 416.833777 
L 418.348692 405.951672 
L 419.341398 422.200107 
L 420.334104 410.433997 
L 421.32681 407.311507 
L 422.319516 408.175224 
L 423.312222 421.977699 
L 424.304928 411.959275 
L 425.297634 408.087476 
L 426.29034 409.269704 
L 427.283046 413.236128 
L 428.275752 413.012476 
L 429.268458 414.274868 
L 430.261163 416.066232 
L 431.253869 421.605582 
L 432.246575 419.084479 
L 433.239281 420.495458 
L 434.231987 423.327097 
L 435.224693 423.099514 
L 436.217399 418.279906 
L 438.202811 411.724066 
L 439.195517 421.009391 
L 440.188223 425.251872 
L 441.180929 412.335158 
L 442.173635 420.30137 
L 443.166341 410.62402 
L 445.151752 419.497578 
L 447.137164 431.724094 
L 448.12987 421.989223 
L 449.122576 434.634844 
L 450.115282 415.65783 
L 451.107988 421.447394 
L 452.100694 426.190052 
L 453.0934 429.186553 
L 454.086106 420.501517 
L 455.078812 422.793388 
L 456.071518 428.871068 
L 457.064223 424.206778 
L 458.056929 417.934165 
L 459.049635 420.899314 
L 460.042341 414.48467 
L 461.035047 415.145625 
L 462.027753 425.092882 
L 463.020459 427.495873 
L 464.013165 423.110096 
L 465.005871 429.539403 
L 465.998577 433.702473 
L 466.991283 432.958374 
L 467.983989 432.005065 
L 468.976695 429.655948 
L 469.9694 431.42005 
L 470.962106 433.803304 
L 471.954812 418.989927 
L 472.947518 423.082509 
L 473.940224 437.706723 
L 474.93293 422.445557 
L 475.925636 440.308738 
L 476.918342 433.99584 
L 477.911048 420.200314 
L 478.903754 441.931014 
L 479.89646 432.638621 
L 480.889166 427.945452 
L 482.874577 439.348949 
L 483.867283 430.094663 
L 484.859989 447.482786 
L 485.852695 450.261941 
L 486.845401 429.839477 
L 487.838107 424.658108 
L 488.830813 420.635258 
L 489.823519 430.438676 
L 490.816225 426.409689 
L 491.808931 443.096468 
L 492.801637 434.074908 
L 493.794343 430.94677 
L 494.787049 438.063772 
L 495.779754 446.402149 
L 496.77246 428.421796 
L 497.765166 421.014813 
L 498.757872 444.763384 
L 499.750578 432.048061 
L 500.743284 448.203641 
L 501.73599 434.709626 
L 502.728696 430.237233 
L 503.721402 439.958698 
L 504.714108 427.640514 
L 505.706814 427.576324 
L 506.69952 441.98056 
L 507.692226 433.218652 
L 508.684932 430.549385 
L 509.677637 435.461027 
L 510.670343 438.324322 
L 511.663049 435.367484 
L 512.655755 429.21327 
L 514.641167 439.046758 
L 515.633873 435.886202 
L 516.626579 442.362506 
L 517.619285 436.893329 
L 518.611991 467.10084 
L 519.604697 430.455529 
L 520.597403 432.054975 
L 521.590109 429.837688 
L 522.582814 438.575126 
L 523.57552 432.320346 
L 524.568226 434.649477 
L 525.560932 426.260771 
L 526.553638 452.914008 
L 527.546344 440.839476 
L 528.53905 451.820427 
L 529.531756 435.025242 
L 530.524462 453.813624 
L 531.517168 431.043349 
L 532.509874 424.572963 
L 533.50258 430.996932 
L 534.495286 450.104613 
L 535.487991 447.518636 
L 536.480697 428.546435 
L 538.466109 444.562513 
L 539.458815 439.652369 
L 540.451521 476.993849 
L 541.444227 437.529708 
L 542.436933 448.104406 
L 543.429639 441.458759 
L 544.422345 431.522454 
L 545.415051 466.269675 
L 546.407757 442.443338 
L 547.400463 447.855862 
L 548.393168 456.788956 
L 549.385874 438.836054 
L 550.37858 439.206796 
L 551.371286 445.060567 
L 552.363992 456.315083 
L 553.356698 445.34746 
L 554.349404 441.867956 
L 555.34211 439.137857 
L 556.334816 458.444063 
L 557.327522 448.382601 
L 558.320228 446.376675 
L 559.312934 441.812944 
L 560.30564 450.709612 
L 561.298345 442.311592 
L 562.291051 446.207094 
L 563.283757 446.358248 
L 564.276463 445.87088 
L 565.269169 444.006042 
L 566.261875 449.925704 
L 567.254581 446.659685 
L 568.247287 439.225801 
L 569.239993 456.6347 
L 570.232699 448.570012 
L 571.225405 445.701776 
L 572.218111 445.976296 
L 573.210817 447.62543 
L 574.203523 444.626587 
L 575.196228 478.811292 
L 576.188934 458.129009 
L 577.18164 448.693399 
L 578.174346 457.312281 
L 579.167052 452.312294 
L 580.159758 446.59653 
L 581.152464 438.242603 
L 582.14517 450.203194 
L 583.137876 447.674668 
L 584.130582 449.75263 
L 585.123288 438.903915 
L 586.115994 456.478356 
L 587.1087 458.123343 
L 588.101405 459.025441 
L 589.094111 448.27634 
L 590.086817 452.619032 
L 591.079523 466.761569 
L 592.072229 470.208636 
L 593.064935 451.551797 
L 594.057641 441.227327 
L 595.050347 452.598831 
L 596.043053 460.232067 
L 597.035759 466.847164 
L 598.028465 461.316965 
L 599.021171 450.827396 
L 600.013877 453.488475 
L 601.006582 449.311474 
L 601.999288 449.607232 
L 602.991994 459.755006 
L 603.9847 443.260232 
L 604.977406 454.102708 
L 605.970112 461.877633 
L 606.962818 446.753325 
L 607.955524 452.989387 
L 608.94823 470.343507 
L 609.940936 466.763514 
L 610.933642 451.151643 
L 611.926348 451.838889 
L 612.919054 458.970191 
L 613.911759 454.08604 
L 614.904465 455.695798 
L 615.897171 452.10055 
L 616.889877 455.290524 
L 617.882583 459.074911 
L 618.875289 460.572507 
L 619.867995 461.03417 
L 620.860701 457.158358 
L 621.853407 452.354139 
L 622.846113 457.470064 
L 623.838819 454.615897 
L 624.831525 456.964655 
L 625.824231 460.087473 
L 626.816936 449.061735 
L 627.809642 453.836951 
L 628.802348 465.317722 
L 629.795054 459.006533 
L 630.78776 449.505952 
L 631.780466 462.888215 
L 632.773172 463.166477 
L 633.765878 461.581335 
L 634.758584 463.385579 
L 635.75129 460.026875 
L 636.743996 458.461176 
L 637.736702 453.945233 
L 638.729408 458.164963 
L 639.722114 458.782324 
L 640.714819 461.518717 
L 641.707525 460.177946 
L 642.700231 460.582894 
L 643.692937 458.50178 
L 644.685643 459.443941 
L 645.678349 466.450311 
L 646.671055 463.063694 
L 647.663761 459.061535 
L 648.656467 467.429453 
L 649.649173 459.44443 
L 650.641879 460.942966 
L 651.634585 461.189673 
L 652.627291 462.248626 
L 653.619996 461.065288 
L 654.612702 462.325976 
L 655.605408 463.950782 
L 656.598114 460.540889 
L 657.59082 462.68002 
L 658.583526 463.365479 
L 659.576232 463.497428 
L 660.568938 462.15644 
L 661.561644 465.092285 
L 662.55435 460.714536 
L 663.547056 465.031391 
L 664.539762 462.178404 
L 665.532468 462.06651 
L 666.525173 465.240365 
L 667.517879 463.098622 
L 668.510585 462.629099 
L 669.503291 463.626302 
L 670.495997 465.531361 
L 671.488703 460.011337 
L 672.481409 463.076545 
L 674.466821 462.732263 
L 675.459527 465.13746 
L 676.452233 466.760362 
L 677.444939 464.771926 
L 678.437645 464.583737 
L 679.43035 464.855107 
L 680.423056 465.372381 
L 681.415762 464.051511 
L 682.408468 463.7244 
L 683.401174 467.524983 
L 684.39388 466.713258 
L 685.386586 466.747102 
L 686.379292 467.276408 
L 687.371998 465.009441 
L 688.364704 466.398785 
L 689.35741 467.505222 
L 690.350116 464.891615 
L 691.342822 464.577407 
L 692.335527 466.501998 
L 693.328233 466.9248 
L 694.320939 466.759702 
L 695.313645 466.982381 
L 696.306351 468.148658 
L 697.299057 468.085666 
L 698.291763 466.534566 
L 700.277175 465.190832 
L 701.269881 466.920484 
L 702.262587 465.408947 
L 703.255293 465.316495 
L 704.247999 467.314576 
L 706.23341 468.750208 
L 707.226116 465.239249 
L 708.218822 466.816481 
L 709.211528 468.921444 
L 710.204234 467.700821 
L 711.19694 467.805574 
L 712.189646 467.379788 
L 713.182352 468.848615 
L 714.175058 467.524474 
L 715.167764 469.943142 
L 716.16047 467.751958 
L 717.153176 468.053424 
L 718.145882 469.710465 
L 719.138587 468.434292 
L 720.131293 468.778379 
L 721.123999 468.220024 
L 722.116705 469.440144 
L 723.109411 470.475185 
L 724.102117 468.37298 
L 725.094823 468.072067 
L 727.080235 469.478389 
L 728.072941 469.491253 
L 729.065647 470.893135 
L 730.058353 468.489757 
L 731.051059 469.818291 
L 732.043764 470.786699 
L 733.03647 469.791488 
L 734.029176 469.688192 
L 735.021882 470.541842 
L 736.014588 470.639125 
L 737.007294 471.377779 
L 738 470.12243 
L 738.992706 470.765135 
L 739.985412 470.656069 
L 741.970824 471.135185 
L 742.96353 471.01816 
L 743.956236 471.515389 
L 744.948941 470.935186 
L 745.941647 471.693876 
L 746.934353 471.415102 
L 747.927059 471.602956 
L 749.912471 472.517833 
L 750.905177 471.664509 
L 751.897883 472.389343 
L 752.890589 471.62986 
L 753.883295 471.84471 
L 754.876001 471.220351 
L 755.868707 471.02446 
L 756.861413 473.428301 
L 757.854118 472.424243 
L 758.846824 472.660951 
L 759.83953 473.772574 
L 760.832236 473.137623 
L 762.817648 472.93941 
L 763.810354 472.505725 
L 764.80306 472.370603 
L 766.788472 473.273119 
L 767.781178 472.166271 
L 768.773884 473.296153 
L 769.76659 473.341043 
L 770.759295 473.064276 
L 771.752001 472.50008 
L 772.744707 474.81122 
L 773.737413 474.023254 
L 774.730119 473.395011 
L 775.722825 474.367829 
L 776.715531 473.975842 
L 777.708237 473.230614 
L 778.700943 473.907966 
L 779.693649 473.543121 
L 780.686355 473.759289 
L 781.679061 473.740659 
L 782.671767 474.357234 
L 783.664473 473.877303 
L 784.657178 473.805733 
L 785.649884 473.902585 
L 786.64259 475.440231 
L 787.635296 474.219841 
L 788.628002 476.058436 
L 789.620708 474.133824 
L 790.613414 473.642261 
L 791.60612 474.579332 
L 792.598826 476.605628 
L 793.591532 474.816407 
L 794.584238 476.454768 
L 795.576944 475.633585 
L 796.56965 476.178482 
L 797.562355 476.48564 
L 798.555061 475.710904 
L 799.547767 475.289902 
L 801.533179 476.682205 
L 802.525885 475.876964 
L 803.518591 475.575202 
L 804.511297 477.12003 
L 805.504003 476.743571 
L 806.496709 475.43219 
L 807.489415 476.351256 
L 808.482121 476.308743 
L 809.474827 477.14562 
L 810.467532 477.111561 
L 811.460238 476.490819 
L 812.452944 476.841248 
L 813.44565 476.737786 
L 815.431062 477.060642 
L 816.423768 477.043165 
L 817.416474 476.769067 
L 818.40918 479.007865 
L 819.401886 476.485261 
L 820.394592 477.803023 
L 821.387298 476.676212 
L 822.380004 476.716364 
L 823.372709 477.513567 
L 824.365415 477.917563 
L 825.358121 477.989472 
L 826.350827 477.43472 
L 827.343533 478.194311 
L 828.336239 478.294042 
L 829.328945 477.604409 
L 831.314357 477.278722 
L 832.307063 478.342582 
L 833.299769 478.297844 
L 834.292475 478.738882 
L 835.285181 478.581449 
L 836.277886 479.156829 
L 837.270592 478.84828 
L 838.263298 477.797612 
L 839.256004 479.439207 
L 840.24871 478.405182 
L 841.241416 478.180809 
L 842.234122 478.429727 
L 843.226828 478.281742 
L 844.219534 479.416923 
L 845.21224 479.74325 
L 846.204946 478.886479 
L 847.197652 479.392204 
L 848.190358 478.972019 
L 849.183064 478.728373 
L 850.175769 478.802046 
L 851.168475 479.81289 
L 852.161181 478.78296 
L 853.153887 478.319274 
L 854.146593 480.053961 
L 855.139299 479.534871 
L 856.132005 478.582404 
L 857.124711 478.461119 
L 858.117417 481.04485 
L 859.110123 480.368212 
L 860.102829 480.740983 
L 861.095535 480.975043 
L 862.088241 478.652449 
L 863.080946 480.023813 
L 864.073652 479.296681 
L 865.066358 479.595316 
L 866.059064 478.919988 
L 867.05177 479.45366 
L 868.044476 479.581134 
L 869.037182 480.97831 
L 870.029888 480.976494 
L 871.022594 480.489106 
L 872.0153 481.101507 
L 873.008006 480.746415 
L 874.000712 479.799654 
L 874.993418 480.963552 
L 877.971535 481.132572 
L 878.964241 480.581488 
L 879.956947 480.734209 
L 880.949653 480.633569 
L 881.942359 480.928644 
L 882.935065 481.414264 
L 883.927771 482.523928 
L 884.920477 482.37233 
L 885.913183 482.042579 
L 886.905889 481.089305 
L 887.898595 480.372179 
L 888.8913 482.592686 
L 889.884006 481.249261 
L 890.876712 482.027858 
L 891.869418 481.285722 
L 892.862124 481.200343 
L 893.85483 481.416755 
L 894.847536 482.433709 
L 895.840242 481.391617 
L 896.832948 482.96742 
L 897.825654 481.792859 
L 898.81836 482.413726 
L 899.811066 482.514728 
L 900.803772 480.842208 
L 901.796477 481.701323 
L 902.789183 482.719786 
L 903.781889 482.85109 
L 904.774595 481.858349 
L 905.767301 482.769361 
L 906.760007 483.333075 
L 907.752713 482.636389 
L 908.745419 483.118849 
L 910.730831 482.806522 
L 911.723537 483.322754 
L 912.716243 481.793857 
L 913.708949 482.849924 
L 914.701655 482.958447 
L 915.69436 483.747705 
L 916.687066 484.238271 
L 917.679772 482.796451 
L 918.672478 483.817606 
L 919.665184 483.142009 
L 920.65789 483.356536 
L 921.650596 482.108251 
L 922.643302 484.42118 
L 923.636008 483.919136 
L 924.628714 484.532116 
L 925.62142 484.661725 
L 926.614126 483.744439 
L 927.606832 485.074447 
L 928.599537 484.072287 
L 929.592243 483.307033 
L 930.584949 483.525842 
L 931.577655 483.606711 
L 932.570361 484.311946 
L 933.563067 483.668289 
L 934.555773 484.588283 
L 935.548479 483.845341 
L 936.541185 484.170358 
L 939.519303 484.010622 
L 940.512009 484.635978 
L 941.504714 484.343586 
L 942.49742 484.448617 
L 943.490126 484.221103 
L 944.482832 484.242686 
L 945.475538 484.541701 
L 946.468244 484.361736 
L 947.46095 483.926413 
L 948.453656 484.697719 
L 950.439068 485.508868 
L 951.431774 483.952755 
L 954.409891 485.159938 
L 955.402597 484.667049 
L 956.395303 484.565277 
L 959.373421 484.789919 
L 960.366127 484.618914 
L 961.358833 485.981963 
L 962.351539 485.627047 
L 963.344245 485.90576 
L 964.336951 485.976276 
L 965.329657 485.101442 
L 966.322363 486.121715 
L 967.315068 484.916587 
L 968.307774 486.241148 
L 969.30048 485.877698 
L 970.293186 485.635977 
L 971.285892 485.82093 
L 972.278598 485.446383 
L 973.271304 485.422913 
L 974.26401 485.653845 
L 975.256716 486.565418 
L 976.249422 486.207073 
L 977.242128 487.868862 
L 978.234834 485.203158 
L 979.22754 484.80953 
L 980.220246 486.661765 
L 981.212951 485.869149 
L 982.205657 487.175338 
L 983.198363 485.843331 
L 984.191069 486.407597 
L 985.183775 485.353047 
L 986.176481 485.643944 
L 987.169187 487.158607 
L 988.161893 486.277315 
L 989.154599 485.80603 
L 990.147305 485.537871 
L 991.140011 486.038417 
L 992.132717 486.185802 
L 993.125423 486.076852 
L 994.118128 487.386766 
L 995.110834 487.418095 
L 996.10354 485.105325 
L 997.096246 487.43866 
L 998.088952 485.798404 
L 999.081658 487.071945 
L 1000.074364 487.025947 
L 1001.06707 486.60678 
L 1002.059776 486.904873 
L 1003.052482 486.857852 
L 1004.045188 485.95703 
L 1005.037894 487.952308 
L 1007.023305 485.363621 
L 1008.016011 487.666783 
L 1009.008717 486.819405 
L 1010.001423 488.079555 
L 1011.986835 486.855683 
L 1012.979541 487.109567 
L 1013.972247 486.90736 
L 1014.964953 487.975292 
L 1015.957659 487.111971 
L 1016.950365 487.129112 
L 1017.943071 487.600645 
L 1018.935777 487.650845 
L 1019.928482 487.843142 
L 1020.921188 486.301982 
L 1021.913894 487.965572 
L 1022.9066 487.115549 
L 1023.899306 487.892173 
L 1024.892012 486.577704 
L 1025.884718 487.837186 
L 1026.877424 486.562612 
L 1027.87013 487.957148 
L 1028.862836 488.40884 
L 1029.855542 487.589761 
L 1030.848248 488.436459 
L 1031.840954 488.515284 
L 1032.833659 488.714935 
L 1033.826365 487.738388 
L 1034.819071 487.782542 
L 1035.811777 487.54821 
L 1036.804483 488.873852 
L 1037.797189 488.47244 
L 1038.789895 489.165548 
L 1039.782601 487.407741 
L 1040.775307 487.845652 
L 1041.768013 488.921337 
L 1042.760719 488.75011 
L 1045.738837 487.749705 
L 1046.731542 487.289274 
L 1047.724248 488.599336 
L 1048.716954 488.227531 
L 1049.70966 489.373118 
L 1050.702366 488.604362 
L 1051.695072 489.075353 
L 1052.687778 489.352992 
L 1053.680484 488.259739 
L 1054.67319 486.930885 
L 1055.665896 488.83625 
L 1056.658602 488.228087 
L 1057.651308 488.837052 
L 1058.644014 488.319693 
L 1060.629425 489.065941 
L 1061.622131 487.978049 
L 1062.614837 489.124366 
L 1063.607543 488.887962 
L 1064.600249 489.400814 
L 1065.592955 489.757303 
L 1066.585661 487.748074 
L 1067.578367 488.871288 
L 1068.571073 489.389821 
L 1070.556485 488.37542 
L 1072.541896 488.663262 
L 1073.534602 488.988601 
L 1074.527308 489.036526 
L 1075.520014 488.493806 
L 1076.51272 489.806594 
L 1078.498132 489.317559 
L 1079.490838 489.591084 
L 1080.483544 488.481551 
L 1081.47625 488.960366 
L 1082.468956 490.022925 
L 1083.461662 488.237374 
L 1084.454368 488.813157 
L 1085.447073 488.394059 
L 1086.439779 489.026034 
L 1087.432485 490.088032 
L 1088.425191 488.714558 
L 1089.417897 490.113808 
L 1090.410603 489.281166 
L 1091.403309 489.161347 
L 1092.396015 488.085846 
L 1093.388721 488.663758 
L 1094.381427 490.118133 
L 1095.374133 489.087677 
L 1096.366839 488.358075 
L 1097.359545 489.264902 
L 1098.35225 489.483922 
L 1099.344956 489.924944 
L 1100.337662 488.417834 
L 1101.330368 489.783975 
L 1102.323074 489.310022 
L 1103.31578 488.320771 
L 1104.308486 490.566314 
L 1105.301192 490.05438 
L 1106.293898 490.650199 
L 1107.286604 490.974883 
L 1109.272016 489.159032 
L 1110.264722 489.31451 
L 1111.257428 490.188507 
L 1112.250133 489.944953 
L 1114.235545 490.444001 
L 1115.228251 491.356356 
L 1116.220957 490.851414 
L 1117.213663 489.989521 
L 1118.206369 489.462543 
L 1119.199075 491.42133 
L 1120.191781 489.597842 
L 1121.184487 490.475885 
L 1122.177193 490.628206 
L 1123.169899 490.101009 
L 1124.162605 490.175875 
L 1125.15531 488.565795 
L 1126.148016 490.355829 
L 1127.140722 489.62607 
L 1128.133428 490.503396 
L 1129.126134 490.364758 
L 1130.11884 489.868485 
L 1131.111546 489.639549 
L 1133.096958 490.393863 
L 1134.089664 489.867711 
L 1135.08237 490.116495 
L 1136.075076 490.52615 
L 1138.060487 490.185564 
L 1139.053193 490.909713 
L 1140.045899 490.490324 
L 1141.038605 489.745667 
L 1142.031311 491.739253 
L 1143.024017 491.031255 
L 1144.016723 491.946645 
L 1145.009429 489.60209 
L 1146.002135 489.03026 
L 1146.994841 491.536612 
L 1147.987547 490.121399 
L 1148.980253 490.492731 
L 1149.972959 491.057965 
L 1150.965664 490.143371 
L 1151.95837 490.711663 
L 1152.951076 490.78746 
L 1153.943782 490.711259 
L 1154.936488 489.463642 
L 1155.929194 490.540564 
L 1156.9219 490.596881 
L 1157.914606 490.053258 
L 1158.907312 490.319451 
L 1160.892724 491.013327 
L 1161.88543 491.259076 
L 1162.878136 490.463881 
L 1163.870841 490.179912 
L 1164.863547 490.052171 
L 1165.856253 491.673054 
L 1166.848959 491.737981 
L 1167.841665 491.286575 
L 1168.834371 489.782183 
L 1169.827077 490.123597 
L 1170.819783 490.05631 
L 1171.812489 490.577495 
L 1172.805195 490.588983 
L 1173.797901 490.978213 
L 1174.790607 490.787701 
L 1175.783313 492.328503 
L 1176.776019 489.95627 
L 1177.768724 490.154315 
L 1178.76143 490.946928 
L 1179.754136 490.817617 
L 1180.746842 490.12397 
L 1181.739548 490.788453 
L 1182.732254 490.135304 
L 1183.72496 491.198167 
L 1184.717666 490.995222 
L 1185.710372 489.309772 
L 1186.703078 491.626037 
L 1187.695784 490.837655 
L 1188.68849 491.719089 
L 1189.681196 492.308201 
L 1190.673901 491.246592 
L 1191.666607 491.965138 
L 1192.659313 491.427662 
L 1193.652019 491.462286 
L 1194.644725 489.704215 
L 1197.622843 491.509497 
L 1198.615549 489.672518 
L 1199.608255 491.007736 
L 1200.600961 489.551785 
L 1202.586373 491.846097 
L 1203.579078 490.471114 
L 1204.571784 490.058676 
L 1205.56449 490.503975 
L 1206.557196 490.373714 
L 1207.549902 491.87887 
L 1209.535314 490.049722 
L 1210.52802 490.935621 
L 1211.520726 490.748578 
L 1212.513432 491.682608 
L 1213.506138 492.096409 
L 1214.498844 490.004872 
L 1216.484255 491.271396 
L 1222.440491 491.493389 
L 1223.433197 491.094415 
L 1224.425903 491.810487 
L 1225.418609 492.156169 
L 1226.411315 491.362643 
L 1227.404021 492.254832 
L 1228.396727 490.876576 
L 1229.389432 491.470646 
L 1230.382138 491.680557 
L 1231.374844 492.187538 
L 1232.36755 491.789811 
L 1233.360256 490.7474 
L 1234.352962 491.118338 
L 1235.345668 491.838544 
L 1236.338374 491.465109 
L 1237.33108 489.767616 
L 1238.323786 489.948008 
L 1239.316492 490.43451 
L 1240.309198 491.669937 
L 1241.301904 490.795857 
L 1242.29461 490.361811 
L 1243.287315 492.48 
L 1244.280021 491.380737 
L 1245.272727 491.086405 
L 1245.272727 491.086405 
" clip-path="url(#p3993ee627b)" style="fill: none; stroke: #1f77b4; stroke-width: 1.5; stroke-linecap: square"/>
   </g>
   <g id="patch_3">
    <path d="M 180 512.64 
L 180 69.12 
" style="fill: none; stroke: #000000; stroke-width: 0.8; stroke-linejoin: miter; stroke-linecap: square"/>
   </g>
   <g id="patch_4">
    <path d="M 1296 512.64 
L 1296 69.12 
" style="fill: none; stroke: #000000; stroke-width: 0.8; stroke-linejoin: miter; stroke-linecap: square"/>
   </g>
   <g id="patch_5">
    <path d="M 180 512.64 
L 1296 512.64 
" style="fill: none; stroke: #000000; stroke-width: 0.8; stroke-linejoin: miter; stroke-linecap: square"/>
   </g>
   <g id="patch_6">
    <path d="M 180 69.12 
L 1296 69.12 
" style="fill: none; stroke: #000000; stroke-width: 0.8; stroke-linejoin: miter; stroke-linecap: square"/>
   </g>
   <g id="text_15">
    <!-- source16-receiver5 -->
    <g transform="translate(544.9 60.80125) scale(0.4 -0.4)">
     <defs>
      <path id="DejaVuSans-73" d="M 2834 3397 
L 2834 2853 
Q 2591 2978 2328 3040 
Q 2066 3103 1784 3103 
Q 1356 3103 1142 2972 
Q 928 2841 928 2578 
Q 928 2378 1081 2264 
Q 1234 2150 1697 2047 
L 1894 2003 
Q 2506 1872 2764 1633 
Q 3022 1394 3022 966 
Q 3022 478 2636 193 
Q 2250 -91 1575 -91 
Q 1294 -91 989 -36 
Q 684 19 347 128 
L 347 722 
Q 666 556 975 473 
Q 1284 391 1588 391 
Q 1994 391 2212 530 
Q 2431 669 2431 922 
Q 2431 1156 2273 1281 
Q 2116 1406 1581 1522 
L 1381 1569 
Q 847 1681 609 1914 
Q 372 2147 372 2553 
Q 372 3047 722 3315 
Q 1072 3584 1716 3584 
Q 2034 3584 2315 3537 
Q 2597 3491 2834 3397 
z
" transform="scale(0.015625)"/>
      <path id="DejaVuSans-6f" d="M 1959 3097 
Q 1497 3097 1228 2736 
Q 959 2375 959 1747 
Q 959 1119 1226 758 
Q 1494 397 1959 397 
Q 2419 397 2687 759 
Q 2956 1122 2956 1747 
Q 2956 2369 2687 2733 
Q 2419 3097 1959 3097 
z
M 1959 3584 
Q 2709 3584 3137 3096 
Q 3566 2609 3566 1747 
Q 3566 888 3137 398 
Q 2709 -91 1959 -91 
Q 1206 -91 779 398 
Q 353 888 353 1747 
Q 353 2609 779 3096 
Q 1206 3584 1959 3584 
z
" transform="scale(0.015625)"/>
      <path id="DejaVuSans-75" d="M 544 1381 
L 544 3500 
L 1119 3500 
L 1119 1403 
Q 1119 906 1312 657 
Q 1506 409 1894 409 
Q 2359 409 2629 706 
Q 2900 1003 2900 1516 
L 2900 3500 
L 3475 3500 
L 3475 0 
L 2900 0 
L 2900 538 
Q 2691 219 2414 64 
Q 2138 -91 1772 -91 
Q 1169 -91 856 284 
Q 544 659 544 1381 
z
M 1991 3584 
L 1991 3584 
z
" transform="scale(0.015625)"/>
      <path id="DejaVuSans-72" d="M 2631 2963 
Q 2534 3019 2420 3045 
Q 2306 3072 2169 3072 
Q 1681 3072 1420 2755 
Q 1159 2438 1159 1844 
L 1159 0 
L 581 0 
L 581 3500 
L 1159 3500 
L 1159 2956 
Q 1341 3275 1631 3429 
Q 1922 3584 2338 3584 
Q 2397 3584 2469 3576 
Q 2541 3569 2628 3553 
L 2631 2963 
z
" transform="scale(0.015625)"/>
      <path id="DejaVuSans-63" d="M 3122 3366 
L 3122 2828 
Q 2878 2963 2633 3030 
Q 2388 3097 2138 3097 
Q 1578 3097 1268 2742 
Q 959 2388 959 1747 
Q 959 1106 1268 751 
Q 1578 397 2138 397 
Q 2388 397 2633 464 
Q 2878 531 3122 666 
L 3122 134 
Q 2881 22 2623 -34 
Q 2366 -91 2075 -91 
Q 1284 -91 818 406 
Q 353 903 353 1747 
Q 353 2603 823 3093 
Q 1294 3584 2113 3584 
Q 2378 3584 2631 3529 
Q 2884 3475 3122 3366 
z
" transform="scale(0.015625)"/>
      <path id="DejaVuSans-65" d="M 3597 1894 
L 3597 1613 
L 953 1613 
Q 991 1019 1311 708 
Q 1631 397 2203 397 
Q 2534 397 2845 478 
Q 3156 559 3463 722 
L 3463 178 
Q 3153 47 2828 -22 
Q 2503 -91 2169 -91 
Q 1331 -91 842 396 
Q 353 884 353 1716 
Q 353 2575 817 3079 
Q 1281 3584 2069 3584 
Q 2775 3584 3186 3129 
Q 3597 2675 3597 1894 
z
M 3022 2063 
Q 3016 2534 2758 2815 
Q 2500 3097 2075 3097 
Q 1594 3097 1305 2825 
Q 1016 2553 972 2059 
L 3022 2063 
z
" transform="scale(0.015625)"/>
      <path id="DejaVuSans-36" d="M 2113 2584 
Q 1688 2584 1439 2293 
Q 1191 2003 1191 1497 
Q 1191 994 1439 701 
Q 1688 409 2113 409 
Q 2538 409 2786 701 
Q 3034 994 3034 1497 
Q 3034 2003 2786 2293 
Q 2538 2584 2113 2584 
z
M 3366 4563 
L 3366 3988 
Q 3128 4100 2886 4159 
Q 2644 4219 2406 4219 
Q 1781 4219 1451 3797 
Q 1122 3375 1075 2522 
Q 1259 2794 1537 2939 
Q 1816 3084 2150 3084 
Q 2853 3084 3261 2657 
Q 3669 2231 3669 1497 
Q 3669 778 3244 343 
Q 2819 -91 2113 -91 
Q 1303 -91 875 529 
Q 447 1150 447 2328 
Q 447 3434 972 4092 
Q 1497 4750 2381 4750 
Q 2619 4750 2861 4703 
Q 3103 4656 3366 4563 
z
" transform="scale(0.015625)"/>
      <path id="DejaVuSans-2d" d="M 313 2009 
L 1997 2009 
L 1997 1497 
L 313 1497 
L 313 2009 
z
" transform="scale(0.015625)"/>
      <path id="DejaVuSans-69" d="M 603 3500 
L 1178 3500 
L 1178 0 
L 603 0 
L 603 3500 
z
M 603 4863 
L 1178 4863 
L 1178 4134 
L 603 4134 
L 603 4863 
z
" transform="scale(0.015625)"/>
      <path id="DejaVuSans-76" d="M 191 3500 
L 800 3500 
L 1894 563 
L 2988 3500 
L 3597 3500 
L 2284 0 
L 1503 0 
L 191 3500 
z
" transform="scale(0.015625)"/>
     </defs>
     <use xlink:href="#DejaVuSans-73"/>
     <use xlink:href="#DejaVuSans-6f" x="52.099609"/>
     <use xlink:href="#DejaVuSans-75" x="113.28125"/>
     <use xlink:href="#DejaVuSans-72" x="176.660156"/>
     <use xlink:href="#DejaVuSans-63" x="215.523438"/>
     <use xlink:href="#DejaVuSans-65" x="270.503906"/>
     <use xlink:href="#DejaVuSans-31" x="332.027344"/>
     <use xlink:href="#DejaVuSans-36" x="395.650391"/>
     <use xlink:href="#DejaVuSans-2d" x="459.273438"/>
     <use xlink:href="#DejaVuSans-72" x="495.357422"/>
     <use xlink:href="#DejaVuSans-65" x="534.220703"/>
     <use xlink:href="#DejaVuSans-63" x="595.744141"/>
     <use xlink:href="#DejaVuSans-65" x="650.724609"/>
     <use xlink:href="#DejaVuSans-69" x="712.248047"/>
     <use xlink:href="#DejaVuSans-76" x="740.03125"/>
     <use xlink:href="#DejaVuSans-65" x="799.210938"/>
     <use xlink:href="#DejaVuSans-72" x="860.734375"/>
     <use xlink:href="#DejaVuSans-35" x="901.847656"/>
    </g>
   </g>
  </g>
 </g>
 <defs>
  <clipPath id="p3993ee627b">
   <rect x="180" y="69.12" width="1116" height="443.52"/>
  </clipPath>
 </defs>
</svg>
