<?xml version="1.0" encoding="utf-8" standalone="no"?>
<!DOCTYPE svg PUBLIC "-//W3C//DTD SVG 1.1//EN"
  "http://www.w3.org/Graphics/SVG/1.1/DTD/svg11.dtd">
<svg xmlns:xlink="http://www.w3.org/1999/xlink" width="1440pt" height="576pt" viewBox="0 0 1440 576" xmlns="http://www.w3.org/2000/svg" version="1.1">
 <metadata>
  <rdf:RDF xmlns:dc="http://purl.org/dc/elements/1.1/" xmlns:cc="http://creativecommons.org/ns#" xmlns:rdf="http://www.w3.org/1999/02/22-rdf-syntax-ns#">
   <cc:Work>
    <dc:type rdf:resource="http://purl.org/dc/dcmitype/StillImage"/>
    <dc:date>2024-05-22T04:50:09.687368</dc:date>
    <dc:format>image/svg+xml</dc:format>
    <dc:creator>
     <cc:Agent>
      <dc:title>Matplotlib v3.8.3, https://matplotlib.org/</dc:title>
     </cc:Agent>
    </dc:creator>
   </cc:Work>
  </rdf:RDF>
 </metadata>
 <defs>
  <style type="text/css">*{stroke-linejoin: round; stroke-linecap: butt}</style>
 </defs>
 <g id="figure_1">
  <g id="patch_1">
   <path d="M 0 576 
L 1440 576 
L 1440 0 
L 0 0 
z
" style="fill: #ffffff"/>
  </g>
  <g id="axes_1">
   <g id="patch_2">
    <path d="M 180 512.64 
L 1296 512.64 
L 1296 69.12 
L 180 69.12 
z
" style="fill: #ffffff"/>
   </g>
   <g id="matplotlib.axis_1">
    <g id="xtick_1">
     <g id="line2d_1">
      <defs>
       <path id="mb5eb3f1388" d="M 0 0 
L 0 3.5 
" style="stroke: #000000; stroke-width: 0.8"/>
      </defs>
      <g>
       <use xlink:href="#mb5eb3f1388" x="229.734567" y="512.64" style="stroke: #000000; stroke-width: 0.8"/>
      </g>
     </g>
     <g id="text_1">
      <!-- 0 -->
      <g transform="translate(226.553317 527.238438) scale(0.1 -0.1)">
       <defs>
        <path id="DejaVuSans-30" d="M 2034 4250 
Q 1547 4250 1301 3770 
Q 1056 3291 1056 2328 
Q 1056 1369 1301 889 
Q 1547 409 2034 409 
Q 2525 409 2770 889 
Q 3016 1369 3016 2328 
Q 3016 3291 2770 3770 
Q 2525 4250 2034 4250 
z
M 2034 4750 
Q 2819 4750 3233 4129 
Q 3647 3509 3647 2328 
Q 3647 1150 3233 529 
Q 2819 -91 2034 -91 
Q 1250 -91 836 529 
Q 422 1150 422 2328 
Q 422 3509 836 4129 
Q 1250 4750 2034 4750 
z
" transform="scale(0.015625)"/>
       </defs>
       <use xlink:href="#DejaVuSans-30"/>
      </g>
     </g>
    </g>
    <g id="xtick_2">
     <g id="line2d_2">
      <g>
       <use xlink:href="#mb5eb3f1388" x="433.04074" y="512.64" style="stroke: #000000; stroke-width: 0.8"/>
      </g>
     </g>
     <g id="text_2">
      <!-- 500 -->
      <g transform="translate(423.49699 527.238438) scale(0.1 -0.1)">
       <defs>
        <path id="DejaVuSans-35" d="M 691 4666 
L 3169 4666 
L 3169 4134 
L 1269 4134 
L 1269 2991 
Q 1406 3038 1543 3061 
Q 1681 3084 1819 3084 
Q 2600 3084 3056 2656 
Q 3513 2228 3513 1497 
Q 3513 744 3044 326 
Q 2575 -91 1722 -91 
Q 1428 -91 1123 -41 
Q 819 9 494 109 
L 494 744 
Q 775 591 1075 516 
Q 1375 441 1709 441 
Q 2250 441 2565 725 
Q 2881 1009 2881 1497 
Q 2881 1984 2565 2268 
Q 2250 2553 1709 2553 
Q 1456 2553 1204 2497 
Q 953 2441 691 2322 
L 691 4666 
z
" transform="scale(0.015625)"/>
       </defs>
       <use xlink:href="#DejaVuSans-35"/>
       <use xlink:href="#DejaVuSans-30" x="63.623047"/>
       <use xlink:href="#DejaVuSans-30" x="127.246094"/>
      </g>
     </g>
    </g>
    <g id="xtick_3">
     <g id="line2d_3">
      <g>
       <use xlink:href="#mb5eb3f1388" x="636.346913" y="512.64" style="stroke: #000000; stroke-width: 0.8"/>
      </g>
     </g>
     <g id="text_3">
      <!-- 1000 -->
      <g transform="translate(623.621913 527.238438) scale(0.1 -0.1)">
       <defs>
        <path id="DejaVuSans-31" d="M 794 531 
L 1825 531 
L 1825 4091 
L 703 3866 
L 703 4441 
L 1819 4666 
L 2450 4666 
L 2450 531 
L 3481 531 
L 3481 0 
L 794 0 
L 794 531 
z
" transform="scale(0.015625)"/>
       </defs>
       <use xlink:href="#DejaVuSans-31"/>
       <use xlink:href="#DejaVuSans-30" x="63.623047"/>
       <use xlink:href="#DejaVuSans-30" x="127.246094"/>
       <use xlink:href="#DejaVuSans-30" x="190.869141"/>
      </g>
     </g>
    </g>
    <g id="xtick_4">
     <g id="line2d_4">
      <g>
       <use xlink:href="#mb5eb3f1388" x="839.653087" y="512.64" style="stroke: #000000; stroke-width: 0.8"/>
      </g>
     </g>
     <g id="text_4">
      <!-- 1500 -->
      <g transform="translate(826.928087 527.238438) scale(0.1 -0.1)">
       <use xlink:href="#DejaVuSans-31"/>
       <use xlink:href="#DejaVuSans-35" x="63.623047"/>
       <use xlink:href="#DejaVuSans-30" x="127.246094"/>
       <use xlink:href="#DejaVuSans-30" x="190.869141"/>
      </g>
     </g>
    </g>
    <g id="xtick_5">
     <g id="line2d_5">
      <g>
       <use xlink:href="#mb5eb3f1388" x="1042.95926" y="512.64" style="stroke: #000000; stroke-width: 0.8"/>
      </g>
     </g>
     <g id="text_5">
      <!-- 2000 -->
      <g transform="translate(1030.23426 527.238438) scale(0.1 -0.1)">
       <defs>
        <path id="DejaVuSans-32" d="M 1228 531 
L 3431 531 
L 3431 0 
L 469 0 
L 469 531 
Q 828 903 1448 1529 
Q 2069 2156 2228 2338 
Q 2531 2678 2651 2914 
Q 2772 3150 2772 3378 
Q 2772 3750 2511 3984 
Q 2250 4219 1831 4219 
Q 1534 4219 1204 4116 
Q 875 4013 500 3803 
L 500 4441 
Q 881 4594 1212 4672 
Q 1544 4750 1819 4750 
Q 2544 4750 2975 4387 
Q 3406 4025 3406 3419 
Q 3406 3131 3298 2873 
Q 3191 2616 2906 2266 
Q 2828 2175 2409 1742 
Q 1991 1309 1228 531 
z
" transform="scale(0.015625)"/>
       </defs>
       <use xlink:href="#DejaVuSans-32"/>
       <use xlink:href="#DejaVuSans-30" x="63.623047"/>
       <use xlink:href="#DejaVuSans-30" x="127.246094"/>
       <use xlink:href="#DejaVuSans-30" x="190.869141"/>
      </g>
     </g>
    </g>
    <g id="xtick_6">
     <g id="line2d_6">
      <g>
       <use xlink:href="#mb5eb3f1388" x="1246.265433" y="512.64" style="stroke: #000000; stroke-width: 0.8"/>
      </g>
     </g>
     <g id="text_6">
      <!-- 2500 -->
      <g transform="translate(1233.540433 527.238438) scale(0.1 -0.1)">
       <use xlink:href="#DejaVuSans-32"/>
       <use xlink:href="#DejaVuSans-35" x="63.623047"/>
       <use xlink:href="#DejaVuSans-30" x="127.246094"/>
       <use xlink:href="#DejaVuSans-30" x="190.869141"/>
      </g>
     </g>
    </g>
   </g>
   <g id="matplotlib.axis_2">
    <g id="ytick_1">
     <g id="line2d_7">
      <defs>
       <path id="m14e4588412" d="M 0 0 
L -3.5 0 
" style="stroke: #000000; stroke-width: 0.8"/>
      </defs>
      <g>
       <use xlink:href="#m14e4588412" x="180" y="458.042075" style="stroke: #000000; stroke-width: 0.8"/>
      </g>
     </g>
     <g id="text_7">
      <!-- −6 -->
      <g transform="translate(158.257812 461.841294) scale(0.1 -0.1)">
       <defs>
        <path id="DejaVuSans-2212" d="M 678 2272 
L 4684 2272 
L 4684 1741 
L 678 1741 
L 678 2272 
z
" transform="scale(0.015625)"/>
        <path id="DejaVuSans-36" d="M 2113 2584 
Q 1688 2584 1439 2293 
Q 1191 2003 1191 1497 
Q 1191 994 1439 701 
Q 1688 409 2113 409 
Q 2538 409 2786 701 
Q 3034 994 3034 1497 
Q 3034 2003 2786 2293 
Q 2538 2584 2113 2584 
z
M 3366 4563 
L 3366 3988 
Q 3128 4100 2886 4159 
Q 2644 4219 2406 4219 
Q 1781 4219 1451 3797 
Q 1122 3375 1075 2522 
Q 1259 2794 1537 2939 
Q 1816 3084 2150 3084 
Q 2853 3084 3261 2657 
Q 3669 2231 3669 1497 
Q 3669 778 3244 343 
Q 2819 -91 2113 -91 
Q 1303 -91 875 529 
Q 447 1150 447 2328 
Q 447 3434 972 4092 
Q 1497 4750 2381 4750 
Q 2619 4750 2861 4703 
Q 3103 4656 3366 4563 
z
" transform="scale(0.015625)"/>
       </defs>
       <use xlink:href="#DejaVuSans-2212"/>
       <use xlink:href="#DejaVuSans-36" x="83.789062"/>
      </g>
     </g>
    </g>
    <g id="ytick_2">
     <g id="line2d_8">
      <g>
       <use xlink:href="#m14e4588412" x="180" y="380.023073" style="stroke: #000000; stroke-width: 0.8"/>
      </g>
     </g>
     <g id="text_8">
      <!-- −4 -->
      <g transform="translate(158.257812 383.822291) scale(0.1 -0.1)">
       <defs>
        <path id="DejaVuSans-34" d="M 2419 4116 
L 825 1625 
L 2419 1625 
L 2419 4116 
z
M 2253 4666 
L 3047 4666 
L 3047 1625 
L 3713 1625 
L 3713 1100 
L 3047 1100 
L 3047 0 
L 2419 0 
L 2419 1100 
L 313 1100 
L 313 1709 
L 2253 4666 
z
" transform="scale(0.015625)"/>
       </defs>
       <use xlink:href="#DejaVuSans-2212"/>
       <use xlink:href="#DejaVuSans-34" x="83.789062"/>
      </g>
     </g>
    </g>
    <g id="ytick_3">
     <g id="line2d_9">
      <g>
       <use xlink:href="#m14e4588412" x="180" y="302.00407" style="stroke: #000000; stroke-width: 0.8"/>
      </g>
     </g>
     <g id="text_9">
      <!-- −2 -->
      <g transform="translate(158.257812 305.803289) scale(0.1 -0.1)">
       <use xlink:href="#DejaVuSans-2212"/>
       <use xlink:href="#DejaVuSans-32" x="83.789062"/>
      </g>
     </g>
    </g>
    <g id="ytick_4">
     <g id="line2d_10">
      <g>
       <use xlink:href="#m14e4588412" x="180" y="223.985067" style="stroke: #000000; stroke-width: 0.8"/>
      </g>
     </g>
     <g id="text_10">
      <!-- 0 -->
      <g transform="translate(166.6375 227.784286) scale(0.1 -0.1)">
       <use xlink:href="#DejaVuSans-30"/>
      </g>
     </g>
    </g>
    <g id="ytick_5">
     <g id="line2d_11">
      <g>
       <use xlink:href="#m14e4588412" x="180" y="145.966065" style="stroke: #000000; stroke-width: 0.8"/>
      </g>
     </g>
     <g id="text_11">
      <!-- 2 -->
      <g transform="translate(166.6375 149.765283) scale(0.1 -0.1)">
       <use xlink:href="#DejaVuSans-32"/>
      </g>
     </g>
    </g>
   </g>
   <g id="line2d_12">
    <path d="M 230.727273 299.858001 
L 231.719979 300.095594 
L 232.712685 298.80819 
L 233.70539 299.192283 
L 234.698096 297.729344 
L 235.690802 298.231214 
L 236.683508 297.236561 
L 237.676214 295.118058 
L 238.66892 294.389491 
L 239.661626 292.451453 
L 240.654332 291.347036 
L 241.647038 289.071056 
L 242.639744 286.471587 
L 243.63245 283.249855 
L 244.625156 278.343661 
L 245.617862 274.594782 
L 246.610568 272.001254 
L 247.603273 265.674904 
L 248.595979 244.481691 
L 249.588685 217.682202 
L 250.581391 197.352973 
L 251.574097 182.759036 
L 252.566803 173.11899 
L 253.559509 166.778565 
L 254.552215 169.324452 
L 255.544921 175.757734 
L 257.530333 196.039035 
L 258.523039 187.418682 
L 259.515745 175.736017 
L 260.50845 168.335688 
L 261.501156 165.692674 
L 262.493862 165.055181 
L 264.479274 154.834023 
L 265.47198 152.753 
L 266.464686 156.983413 
L 267.457392 163.994859 
L 268.450098 164.458751 
L 269.442804 165.417823 
L 270.43551 175.106118 
L 271.428216 186.2768 
L 272.420922 169.490114 
L 273.413627 158.164001 
L 274.406333 153.000395 
L 275.399039 145.439278 
L 276.391745 136.462995 
L 277.384451 130.587192 
L 278.377157 126.039551 
L 279.369863 117.215447 
L 280.362569 106.007781 
L 281.355275 96.820684 
L 282.347981 91.44729 
L 283.340687 89.28 
L 284.333393 89.411682 
L 285.326099 91.317406 
L 286.318804 94.721653 
L 287.31151 101.246913 
L 288.304216 113.057953 
L 290.289628 143.078483 
L 291.282334 150.084984 
L 292.27504 165.632931 
L 293.267746 209.425269 
L 294.260452 211.387623 
L 295.253158 186.832585 
L 296.245864 197.063503 
L 297.23857 218.640145 
L 298.231276 201.587274 
L 299.223981 201.302919 
L 300.216687 215.376863 
L 301.209393 246.36904 
L 302.202099 256.056252 
L 303.194805 273.968724 
L 304.187511 262.521229 
L 305.180217 262.260828 
L 306.172923 289.186167 
L 307.165629 291.385735 
L 308.158335 260.081352 
L 309.151041 275.376303 
L 310.143747 334.027007 
L 311.136453 299.327213 
L 312.129159 299.446526 
L 313.121864 323.405422 
L 314.11457 297.976626 
L 315.107276 300.500334 
L 316.099982 301.664498 
L 318.085394 316.319714 
L 319.0781 310.693564 
L 320.070806 299.758393 
L 321.063512 319.959915 
L 322.056218 318.479663 
L 323.048924 310.88236 
L 324.04163 317.84054 
L 325.034336 332.275377 
L 326.027041 309.997323 
L 327.019747 309.099797 
L 328.012453 321.342907 
L 329.005159 335.679346 
L 329.997865 324.000679 
L 330.990571 327.50119 
L 331.983277 336.016572 
L 332.975983 339.587648 
L 334.961395 323.850507 
L 335.954101 318.412855 
L 336.946807 328.967325 
L 337.939513 341.688215 
L 338.932218 378.102322 
L 339.924924 325.381154 
L 340.91763 314.940983 
L 341.910336 317.81438 
L 342.903042 328.348967 
L 343.895748 335.007029 
L 344.888454 334.376019 
L 345.88116 306.393869 
L 346.873866 328.701512 
L 347.866572 335.957076 
L 348.859278 319.219342 
L 349.851984 318.931115 
L 351.837395 358.831111 
L 352.830101 322.117134 
L 353.822807 333.14393 
L 354.815513 340.919125 
L 355.808219 328.920097 
L 356.800925 352.093856 
L 357.793631 384.262277 
L 358.786337 340.385524 
L 359.779043 378.965236 
L 360.771749 347.1414 
L 361.764455 329.722694 
L 362.757161 349.609379 
L 363.749867 349.446739 
L 364.742572 347.560502 
L 365.735278 331.3521 
L 366.727984 340.130123 
L 367.72069 325.77402 
L 368.713396 321.876314 
L 369.706102 317.360275 
L 370.698808 337.810088 
L 371.691514 401.495232 
L 372.68422 355.82156 
L 373.676926 324.048965 
L 374.669632 329.941817 
L 375.662338 353.836668 
L 376.655044 348.340116 
L 377.64775 319.327734 
L 378.640455 324.087632 
L 379.633161 317.519098 
L 380.625867 311.894885 
L 381.618573 334.103259 
L 382.611279 341.32335 
L 383.603985 346.165616 
L 384.596691 338.332224 
L 385.589397 383.689325 
L 386.582103 367.665823 
L 387.574809 339.601972 
L 388.567515 318.368088 
L 389.560221 337.028806 
L 390.552927 335.700062 
L 391.545632 322.654624 
L 392.538338 347.373902 
L 393.531044 363.927827 
L 394.52375 377.678539 
L 395.516456 341.379103 
L 396.509162 323.543019 
L 397.501868 345.444517 
L 398.494574 325.02203 
L 399.48728 329.809415 
L 400.479986 353.591149 
L 401.472692 321.509649 
L 402.465398 364.243025 
L 403.458104 321.0361 
L 404.450809 354.176045 
L 405.443515 372.811439 
L 406.436221 330.822409 
L 407.428927 332.281638 
L 408.421633 351.238774 
L 409.414339 358.30279 
L 410.407045 359.495287 
L 411.399751 347.08284 
L 412.392457 337.49699 
L 413.385163 373.012076 
L 414.377869 365.044693 
L 415.370575 449.945414 
L 417.355986 355.150631 
L 418.348692 374.426097 
L 419.341398 369.128625 
L 420.334104 325.679173 
L 422.319516 356.623817 
L 423.312222 355.807608 
L 424.304928 327.968364 
L 425.297634 416.162099 
L 426.29034 348.536188 
L 427.283046 404.194717 
L 428.275752 345.261667 
L 429.268458 362.517112 
L 430.261163 324.606708 
L 431.253869 389.551603 
L 432.246575 361.844946 
L 433.239281 382.356471 
L 434.231987 360.089865 
L 435.224693 371.969704 
L 436.217399 339.77909 
L 437.210105 356.673262 
L 438.202811 337.37755 
L 439.195517 334.780728 
L 440.188223 353.274976 
L 441.180929 341.152087 
L 442.173635 325.594876 
L 443.166341 427.231622 
L 444.159046 344.079948 
L 445.151752 345.356156 
L 446.144458 344.809244 
L 447.137164 341.225532 
L 449.122576 360.560477 
L 450.115282 355.145965 
L 451.107988 338.73614 
L 452.100694 361.855241 
L 453.0934 387.697619 
L 454.086106 392.774905 
L 455.078812 349.55917 
L 456.071518 392.190496 
L 457.064223 360.286936 
L 458.056929 383.50203 
L 459.049635 357.803221 
L 460.042341 348.951204 
L 461.035047 352.906559 
L 462.027753 335.58034 
L 463.020459 353.239811 
L 464.013165 350.04054 
L 465.005871 359.917768 
L 465.998577 389.623413 
L 466.991283 357.328683 
L 467.983989 366.771343 
L 468.976695 369.656177 
L 469.9694 383.227324 
L 470.962106 375.050159 
L 471.954812 334.386766 
L 472.947518 315.305785 
L 473.940224 336.508888 
L 474.93293 367.306292 
L 475.925636 369.872449 
L 476.918342 400.866472 
L 477.911048 388.546711 
L 478.903754 351.121694 
L 479.89646 394.010777 
L 480.889166 348.269739 
L 481.881872 380.952287 
L 482.874577 353.197624 
L 483.867283 400.326275 
L 484.859989 346.695497 
L 485.852695 335.951639 
L 486.845401 402.292545 
L 487.838107 342.590998 
L 488.830813 386.496679 
L 489.823519 355.17715 
L 490.816225 350.587195 
L 491.808931 418.432947 
L 492.801637 371.373359 
L 493.794343 375.580484 
L 494.787049 324.442085 
L 495.779754 356.138514 
L 496.77246 375.723576 
L 497.765166 345.181668 
L 498.757872 348.873654 
L 499.750578 373.371799 
L 500.743284 360.560854 
L 501.73599 413.033818 
L 502.728696 351.847876 
L 503.721402 349.243508 
L 505.706814 391.485368 
L 506.69952 361.741174 
L 507.692226 342.88214 
L 508.684932 363.587843 
L 509.677637 339.572971 
L 510.670343 463.613976 
L 511.663049 400.653836 
L 512.655755 363.721745 
L 513.648461 372.098518 
L 514.641167 374.68931 
L 515.633873 353.94207 
L 516.626579 383.036149 
L 517.619285 371.299228 
L 518.611991 350.766423 
L 519.604697 345.300404 
L 520.597403 372.524584 
L 521.590109 334.337515 
L 522.582814 340.688748 
L 524.568226 405.336204 
L 525.560932 359.028079 
L 526.553638 396.277279 
L 527.546344 342.999158 
L 528.53905 366.785927 
L 529.531756 366.184927 
L 530.524462 396.556718 
L 531.517168 393.728678 
L 532.509874 372.034412 
L 533.50258 377.380902 
L 534.495286 369.888207 
L 535.487991 369.363987 
L 536.480697 340.687705 
L 537.473403 357.96252 
L 538.466109 364.742234 
L 539.458815 327.798547 
L 540.451521 346.835631 
L 541.444227 349.207352 
L 542.436933 338.11187 
L 543.429639 316.338176 
L 544.422345 354.958963 
L 545.415051 384.019793 
L 546.407757 385.483942 
L 547.400463 377.123815 
L 548.393168 333.05643 
L 549.385874 340.880367 
L 550.37858 364.750623 
L 551.371286 363.073985 
L 552.363992 333.409036 
L 553.356698 348.113115 
L 554.349404 368.4724 
L 555.34211 378.000063 
L 556.334816 329.259511 
L 557.327522 323.139233 
L 558.320228 368.122798 
L 559.312934 324.23799 
L 560.30564 376.306357 
L 561.298345 407.443898 
L 562.291051 347.811814 
L 563.283757 455.696871 
L 564.276463 381.952143 
L 565.269169 383.731535 
L 566.261875 392.073694 
L 567.254581 348.9147 
L 568.247287 373.962503 
L 569.239993 372.851812 
L 570.232699 395.869932 
L 571.225405 383.271481 
L 572.218111 381.222778 
L 573.210817 352.676472 
L 574.203523 350.689585 
L 575.196228 351.857147 
L 576.188934 375.708882 
L 577.18164 359.57056 
L 578.174346 401.670489 
L 579.167052 426.919966 
L 580.159758 367.334231 
L 581.152464 348.264529 
L 582.14517 344.063847 
L 583.137876 406.261292 
L 584.130582 396.755227 
L 585.123288 366.501435 
L 586.115994 330.332307 
L 587.1087 382.206729 
L 588.101405 367.721906 
L 589.094111 360.200337 
L 590.086817 350.355401 
L 591.079523 405.282282 
L 592.072229 388.91098 
L 593.064935 353.484417 
L 594.057641 492.48 
L 595.050347 413.859874 
L 596.043053 358.294212 
L 597.035759 387.87785 
L 598.028465 365.86017 
L 599.021171 355.885644 
L 600.013877 361.89177 
L 601.006582 389.792587 
L 601.999288 376.952261 
L 602.991994 386.592083 
L 603.9847 354.354329 
L 604.977406 358.070533 
L 605.970112 354.63304 
L 606.962818 373.698892 
L 607.955524 381.695772 
L 608.94823 383.653056 
L 609.940936 391.156418 
L 610.933642 382.549443 
L 611.926348 381.439239 
L 612.919054 398.287522 
L 613.911759 362.973349 
L 614.904465 377.249734 
L 615.897171 360.22773 
L 616.889877 424.238431 
L 617.882583 367.463315 
L 618.875289 398.007938 
L 619.867995 409.036197 
L 620.860701 428.517654 
L 621.853407 383.705106 
L 622.846113 389.108804 
L 623.838819 400.264987 
L 624.831525 394.995406 
L 625.824231 397.742477 
L 626.816936 407.342387 
L 627.809642 377.552744 
L 628.802348 381.015726 
L 629.795054 370.858249 
L 630.78776 393.407277 
L 631.780466 365.539256 
L 632.773172 378.314022 
L 633.765878 389.438295 
L 634.758584 385.064587 
L 635.75129 440.228871 
L 636.743996 405.594624 
L 637.736702 416.743466 
L 638.729408 400.869509 
L 639.722114 412.509741 
L 640.714819 438.937823 
L 641.707525 453.227942 
L 642.700231 394.263339 
L 643.692937 443.608501 
L 644.685643 395.782837 
L 645.678349 415.517556 
L 646.671055 430.332328 
L 647.663761 424.571827 
L 648.656467 390.679238 
L 649.649173 405.592058 
L 650.641879 387.56931 
L 651.634585 403.846842 
L 652.627291 426.379204 
L 653.619996 434.343024 
L 654.612702 408.291728 
L 655.605408 397.327355 
L 656.598114 401.072811 
L 657.59082 408.610547 
L 658.583526 430.516992 
L 659.576232 388.287606 
L 660.568938 413.631701 
L 661.561644 396.770032 
L 662.55435 458.996876 
L 663.547056 419.040346 
L 664.539762 393.070054 
L 665.532468 384.934992 
L 666.525173 410.353591 
L 667.517879 426.13895 
L 668.510585 396.658316 
L 669.503291 428.765974 
L 670.495997 424.414143 
L 671.488703 401.594751 
L 672.481409 424.364411 
L 673.474115 434.410821 
L 674.466821 415.933326 
L 675.459527 454.36646 
L 676.452233 425.257138 
L 677.444939 405.679226 
L 678.437645 411.91691 
L 679.43035 400.669626 
L 680.423056 401.56873 
L 681.415762 447.114864 
L 682.408468 409.974522 
L 683.401174 405.557721 
L 684.39388 407.421455 
L 685.386586 403.72474 
L 686.379292 487.014823 
L 687.371998 412.711232 
L 688.364704 439.682733 
L 689.35741 416.016889 
L 690.350116 457.671021 
L 691.342822 397.383203 
L 693.328233 430.047098 
L 694.320939 408.851522 
L 695.313645 420.983189 
L 696.306351 429.267956 
L 697.299057 426.56663 
L 698.291763 436.248645 
L 699.284469 428.322645 
L 700.277175 403.71507 
L 701.269881 421.654484 
L 702.262587 420.950776 
L 703.255293 415.814505 
L 704.247999 437.5277 
L 705.240705 414.963899 
L 706.23341 431.195295 
L 707.226116 417.477489 
L 708.218822 418.568419 
L 709.211528 415.791758 
L 710.204234 425.416835 
L 711.19694 422.602185 
L 712.189646 415.533144 
L 713.182352 452.076317 
L 714.175058 409.826132 
L 715.167764 426.367696 
L 716.16047 424.076749 
L 717.153176 412.401414 
L 718.145882 422.897795 
L 719.138587 426.293851 
L 720.131293 417.313686 
L 721.123999 427.622255 
L 722.116705 413.12679 
L 723.109411 425.507802 
L 724.102117 415.322843 
L 725.094823 445.714599 
L 726.087529 450.817485 
L 727.080235 423.341894 
L 728.072941 426.305263 
L 729.065647 424.708535 
L 730.058353 419.959774 
L 731.051059 407.48713 
L 732.043764 428.021505 
L 733.03647 417.507343 
L 734.029176 418.708228 
L 735.021882 434.590627 
L 737.007294 411.881264 
L 738 425.904371 
L 738.992706 435.381953 
L 739.985412 418.46991 
L 740.978118 426.651228 
L 741.970824 421.007466 
L 742.96353 432.561818 
L 743.956236 423.117108 
L 744.948941 418.986227 
L 745.941647 423.546279 
L 746.934353 422.804378 
L 747.927059 424.626185 
L 748.919765 415.985687 
L 749.912471 425.906969 
L 750.905177 422.964643 
L 751.897883 428.234025 
L 752.890589 427.046728 
L 753.883295 426.640527 
L 754.876001 428.587093 
L 755.868707 421.981783 
L 756.861413 422.102489 
L 757.854118 423.964801 
L 758.846824 431.238132 
L 759.83953 422.198729 
L 760.832236 423.48622 
L 761.824942 436.842533 
L 762.817648 422.691379 
L 763.810354 424.691704 
L 764.80306 419.269693 
L 765.795766 426.907859 
L 766.788472 423.083188 
L 767.781178 427.24294 
L 768.773884 421.107121 
L 769.76659 431.613195 
L 770.759295 428.704968 
L 771.752001 428.570208 
L 772.744707 425.426022 
L 773.737413 425.524168 
L 774.730119 427.417891 
L 775.722825 420.330978 
L 776.715531 437.743785 
L 777.708237 442.947388 
L 778.700943 434.984519 
L 779.693649 438.328348 
L 780.686355 419.753387 
L 781.679061 416.492899 
L 782.671767 428.862854 
L 783.664473 436.142433 
L 784.657178 429.328196 
L 785.649884 431.59049 
L 786.64259 427.419853 
L 787.635296 425.179488 
L 788.628002 429.992136 
L 789.620708 433.118221 
L 790.613414 424.685389 
L 791.60612 422.534154 
L 792.598826 432.155803 
L 793.591532 429.678743 
L 794.584238 422.392679 
L 795.576944 417.78015 
L 796.56965 423.098952 
L 797.562355 423.549879 
L 798.555061 425.472788 
L 799.547767 432.688502 
L 800.540473 419.59347 
L 801.533179 428.646589 
L 802.525885 421.283896 
L 803.518591 428.734861 
L 804.511297 426.123851 
L 805.504003 421.87198 
L 806.496709 439.675088 
L 807.489415 427.172211 
L 808.482121 434.141984 
L 809.474827 418.937826 
L 810.467532 436.059286 
L 811.460238 420.73311 
L 812.452944 421.798146 
L 813.44565 425.569571 
L 814.438356 426.719999 
L 815.431062 422.273911 
L 816.423768 423.185207 
L 817.416474 436.926673 
L 818.40918 425.114051 
L 819.401886 435.006781 
L 820.394592 421.998273 
L 821.387298 442.970135 
L 824.365415 426.588024 
L 826.350827 421.437125 
L 827.343533 433.825883 
L 828.336239 435.082996 
L 829.328945 440.328455 
L 830.321651 423.873827 
L 831.314357 432.726522 
L 832.307063 431.203901 
L 833.299769 425.771538 
L 834.292475 429.98334 
L 835.285181 432.20404 
L 836.277886 428.802879 
L 837.270592 435.084609 
L 838.263298 435.60804 
L 839.256004 431.939259 
L 840.24871 419.532439 
L 842.234122 439.969301 
L 843.226828 425.750266 
L 844.219534 438.142993 
L 845.21224 423.647221 
L 846.204946 434.254165 
L 847.197652 434.74365 
L 848.190358 432.612635 
L 849.183064 425.817524 
L 850.175769 421.854733 
L 852.161181 433.303156 
L 853.153887 442.026183 
L 854.146593 428.880959 
L 855.139299 424.449981 
L 856.132005 440.744282 
L 857.124711 436.494527 
L 858.117417 430.134497 
L 859.110123 429.177876 
L 860.102829 433.259758 
L 861.095535 428.611975 
L 862.088241 432.034632 
L 863.080946 430.501284 
L 864.073652 437.869719 
L 865.066358 422.484017 
L 866.059064 437.317255 
L 867.05177 431.938536 
L 868.044476 440.551303 
L 869.037182 431.239285 
L 870.029888 434.268111 
L 871.022594 442.138185 
L 872.0153 438.162086 
L 873.008006 442.833444 
L 874.000712 427.026784 
L 874.993418 444.362859 
L 876.978829 425.872813 
L 877.971535 448.308638 
L 878.964241 429.591753 
L 879.956947 426.787924 
L 880.949653 433.706467 
L 881.942359 437.211315 
L 882.935065 437.492538 
L 883.927771 434.082967 
L 884.920477 434.603798 
L 885.913183 441.71021 
L 886.905889 438.233294 
L 887.898595 427.387807 
L 888.8913 430.82056 
L 889.884006 434.80312 
L 890.876712 427.920796 
L 891.869418 458.346597 
L 892.862124 432.073335 
L 893.85483 432.971011 
L 894.847536 433.667981 
L 895.840242 442.430703 
L 896.832948 424.151633 
L 897.825654 442.059085 
L 898.81836 427.345277 
L 899.811066 434.647442 
L 900.803772 432.7563 
L 901.796477 435.465535 
L 902.789183 432.582007 
L 903.781889 451.232589 
L 904.774595 432.398932 
L 905.767301 423.955905 
L 906.760007 432.483084 
L 907.752713 429.393409 
L 908.745419 442.356305 
L 909.738125 437.219466 
L 910.730831 443.115912 
L 911.723537 440.073102 
L 912.716243 451.703529 
L 913.708949 436.521983 
L 914.701655 438.26516 
L 915.69436 428.816837 
L 916.687066 437.278999 
L 917.679772 430.112571 
L 918.672478 433.289168 
L 919.665184 447.953032 
L 920.65789 429.144748 
L 921.650596 439.663549 
L 922.643302 431.351164 
L 923.636008 431.120951 
L 924.628714 439.026953 
L 925.62142 438.49406 
L 926.614126 441.450961 
L 927.606832 446.604543 
L 928.599537 427.845554 
L 929.592243 434.141793 
L 930.584949 428.744879 
L 931.577655 429.479287 
L 932.570361 429.880712 
L 933.563067 434.972307 
L 934.555773 425.593838 
L 935.548479 422.533044 
L 936.541185 435.809236 
L 937.533891 436.183157 
L 938.526597 441.705464 
L 939.519303 429.485491 
L 940.512009 434.182175 
L 941.504714 436.305 
L 942.49742 429.287128 
L 943.490126 430.540313 
L 944.482832 437.216829 
L 945.475538 434.893803 
L 946.468244 445.150656 
L 947.46095 427.880864 
L 948.453656 444.536536 
L 949.446362 439.750652 
L 950.439068 426.733464 
L 951.431774 430.610547 
L 952.42448 431.414589 
L 953.417186 430.284046 
L 954.409891 424.402599 
L 955.402597 431.653505 
L 956.395303 433.955173 
L 957.388009 429.295197 
L 958.380715 457.228298 
L 959.373421 451.135348 
L 960.366127 422.875718 
L 961.358833 428.292043 
L 962.351539 441.619215 
L 963.344245 432.223161 
L 964.336951 444.53158 
L 965.329657 426.603014 
L 966.322363 449.032141 
L 967.315068 433.523515 
L 968.307774 443.698494 
L 969.30048 422.670854 
L 970.293186 428.505267 
L 971.285892 447.145901 
L 972.278598 445.376286 
L 973.271304 432.511257 
L 974.26401 430.488592 
L 975.256716 446.844499 
L 976.249422 454.070176 
L 977.242128 433.87569 
L 978.234834 443.998137 
L 979.22754 439.923994 
L 980.220246 430.469106 
L 981.212951 434.842115 
L 982.205657 439.996627 
L 983.198363 440.993276 
L 984.191069 441.015199 
L 985.183775 426.175335 
L 986.176481 447.769467 
L 987.169187 436.283502 
L 988.161893 428.931819 
L 989.154599 454.393511 
L 990.147305 430.165684 
L 991.140011 438.991364 
L 992.132717 436.386457 
L 993.125423 436.17441 
L 994.118128 434.234593 
L 995.110834 434.450302 
L 996.10354 452.189613 
L 997.096246 436.714443 
L 998.088952 439.771961 
L 999.081658 440.661633 
L 1000.074364 423.661902 
L 1001.06707 444.321105 
L 1002.059776 440.348 
L 1003.052482 438.236641 
L 1004.045188 425.087768 
L 1005.037894 440.989416 
L 1006.0306 451.223918 
L 1007.023305 436.834797 
L 1008.016011 443.61426 
L 1009.008717 435.920311 
L 1010.001423 434.844809 
L 1010.994129 422.439433 
L 1011.986835 435.503834 
L 1012.979541 445.951976 
L 1013.972247 427.331402 
L 1014.964953 423.091501 
L 1015.957659 445.800674 
L 1016.950365 430.720105 
L 1017.943071 425.078713 
L 1018.935777 437.187989 
L 1019.928482 441.11119 
L 1020.921188 426.49167 
L 1021.913894 434.555011 
L 1022.9066 427.85826 
L 1023.899306 432.155598 
L 1024.892012 430.691983 
L 1025.884718 431.235886 
L 1026.877424 441.736011 
L 1027.87013 440.544722 
L 1028.862836 442.153189 
L 1029.855542 437.20823 
L 1030.848248 441.245768 
L 1031.840954 430.016451 
L 1032.833659 442.135189 
L 1033.826365 439.529537 
L 1034.819071 435.340092 
L 1035.811777 441.170629 
L 1036.804483 428.027458 
L 1037.797189 440.67193 
L 1038.789895 439.273213 
L 1039.782601 435.878432 
L 1040.775307 440.723462 
L 1041.768013 435.157671 
L 1042.760719 438.818248 
L 1043.753425 456.957998 
L 1044.746131 440.72977 
L 1045.738837 440.357552 
L 1046.731542 426.38374 
L 1047.724248 423.764113 
L 1048.716954 438.638817 
L 1049.70966 441.167265 
L 1050.702366 444.350349 
L 1051.695072 427.35193 
L 1052.687778 441.91522 
L 1053.680484 440.874933 
L 1054.67319 447.552422 
L 1055.665896 441.428383 
L 1056.658602 449.575513 
L 1057.651308 439.799661 
L 1058.644014 447.235625 
L 1059.636719 439.050816 
L 1060.629425 423.708463 
L 1061.622131 445.18345 
L 1062.614837 435.181536 
L 1063.607543 439.18984 
L 1064.600249 432.8287 
L 1065.592955 442.913661 
L 1066.585661 439.304439 
L 1067.578367 439.048795 
L 1068.571073 436.489214 
L 1069.563779 450.323277 
L 1070.556485 459.626272 
L 1071.549191 439.977823 
L 1072.541896 429.650376 
L 1073.534602 453.921383 
L 1074.527308 442.933881 
L 1075.520014 437.333876 
L 1076.51272 439.959077 
L 1077.505426 425.84665 
L 1078.498132 444.485003 
L 1079.490838 430.242473 
L 1080.483544 444.909461 
L 1081.47625 434.038397 
L 1082.468956 440.531109 
L 1083.461662 438.241265 
L 1084.454368 437.427771 
L 1085.447073 431.072915 
L 1086.439779 434.501603 
L 1087.432485 448.182978 
L 1088.425191 437.222118 
L 1089.417897 436.164462 
L 1090.410603 444.4388 
L 1091.403309 454.631945 
L 1092.396015 428.285282 
L 1093.388721 438.129409 
L 1094.381427 438.673241 
L 1095.374133 437.654282 
L 1096.366839 430.862342 
L 1097.359545 452.370226 
L 1099.344956 431.369416 
L 1100.337662 445.231073 
L 1101.330368 442.126195 
L 1102.323074 429.583692 
L 1103.31578 436.79287 
L 1104.308486 450.449359 
L 1105.301192 444.002833 
L 1106.293898 432.486357 
L 1107.286604 437.871094 
L 1108.27931 441.017907 
L 1109.272016 436.107738 
L 1110.264722 434.878891 
L 1111.257428 435.298353 
L 1112.250133 442.315739 
L 1113.242839 443.492987 
L 1114.235545 436.535263 
L 1115.228251 442.165711 
L 1116.220957 439.289808 
L 1117.213663 428.572678 
L 1118.206369 433.495715 
L 1119.199075 434.085185 
L 1120.191781 434.992666 
L 1121.184487 453.379704 
L 1122.177193 452.889885 
L 1123.169899 438.458788 
L 1124.162605 437.665734 
L 1125.15531 438.126769 
L 1126.148016 430.000813 
L 1127.140722 424.83884 
L 1128.133428 426.548932 
L 1129.126134 456.42922 
L 1130.11884 436.710311 
L 1131.111546 453.035382 
L 1132.104252 442.801595 
L 1133.096958 446.384534 
L 1134.089664 424.494751 
L 1135.08237 432.415186 
L 1136.075076 441.409606 
L 1137.067782 437.406287 
L 1138.060487 435.238895 
L 1139.053193 443.26481 
L 1140.045899 433.337136 
L 1141.038605 448.075979 
L 1142.031311 439.507578 
L 1143.024017 438.371699 
L 1144.016723 439.351267 
L 1145.009429 434.515118 
L 1146.002135 442.475374 
L 1146.994841 437.293228 
L 1147.987547 440.11071 
L 1148.980253 430.663486 
L 1149.972959 443.005573 
L 1150.965664 447.955784 
L 1151.95837 430.660964 
L 1152.951076 441.937628 
L 1153.943782 436.365222 
L 1154.936488 442.162064 
L 1155.929194 430.971936 
L 1156.9219 439.308324 
L 1157.914606 432.867337 
L 1158.907312 454.025677 
L 1159.900018 440.616997 
L 1160.892724 443.448265 
L 1161.88543 445.466289 
L 1163.870841 435.780111 
L 1164.863547 431.947267 
L 1165.856253 446.29922 
L 1166.848959 451.824187 
L 1167.841665 440.434821 
L 1169.827077 442.885059 
L 1170.819783 437.322744 
L 1171.812489 437.379779 
L 1172.805195 433.434864 
L 1173.797901 437.381331 
L 1174.790607 434.814225 
L 1175.783313 442.446259 
L 1176.776019 436.242144 
L 1177.768724 444.28512 
L 1178.76143 431.449628 
L 1179.754136 461.802199 
L 1180.746842 442.197741 
L 1181.739548 438.292957 
L 1182.732254 427.107076 
L 1183.72496 440.797016 
L 1184.717666 432.560538 
L 1186.703078 442.866482 
L 1187.695784 430.422852 
L 1188.68849 433.128845 
L 1189.681196 448.828711 
L 1191.666607 429.80775 
L 1192.659313 450.326721 
L 1193.652019 437.210783 
L 1194.644725 440.402673 
L 1195.637431 444.200056 
L 1196.630137 433.712947 
L 1197.622843 444.485774 
L 1198.615549 446.319168 
L 1199.608255 443.940606 
L 1200.600961 437.626406 
L 1201.593667 447.96119 
L 1202.586373 445.502986 
L 1203.579078 432.610987 
L 1204.571784 434.789956 
L 1205.56449 439.936429 
L 1206.557196 436.205833 
L 1207.549902 427.959653 
L 1208.542608 444.5195 
L 1209.535314 445.24643 
L 1210.52802 440.799956 
L 1211.520726 429.040076 
L 1212.513432 441.182645 
L 1213.506138 445.60765 
L 1214.498844 433.120464 
L 1215.49155 439.807303 
L 1216.484255 434.51772 
L 1217.476961 431.90356 
L 1218.469667 425.943885 
L 1219.462373 453.675748 
L 1220.455079 436.958891 
L 1221.447785 440.407744 
L 1222.440491 434.387238 
L 1223.433197 436.596162 
L 1224.425903 436.229111 
L 1225.418609 434.475174 
L 1226.411315 448.51658 
L 1227.404021 445.542002 
L 1228.396727 437.880439 
L 1229.389432 447.916382 
L 1230.382138 435.692437 
L 1231.374844 438.04486 
L 1232.36755 436.150668 
L 1233.360256 441.32674 
L 1234.352962 433.279691 
L 1235.345668 435.794473 
L 1236.338374 427.857752 
L 1238.323786 442.407037 
L 1239.316492 431.713487 
L 1240.309198 441.477597 
L 1241.301904 443.431162 
L 1242.29461 428.381125 
L 1243.287315 446.289863 
L 1244.280021 437.191196 
L 1245.272727 445.143013 
L 1245.272727 445.143013 
" clip-path="url(#pf37dde912d)" style="fill: none; stroke: #1f77b4; stroke-width: 1.5; stroke-linecap: square"/>
   </g>
   <g id="patch_3">
    <path d="M 180 512.64 
L 180 69.12 
" style="fill: none; stroke: #000000; stroke-width: 0.8; stroke-linejoin: miter; stroke-linecap: square"/>
   </g>
   <g id="patch_4">
    <path d="M 1296 512.64 
L 1296 69.12 
" style="fill: none; stroke: #000000; stroke-width: 0.8; stroke-linejoin: miter; stroke-linecap: square"/>
   </g>
   <g id="patch_5">
    <path d="M 180 512.64 
L 1296 512.64 
" style="fill: none; stroke: #000000; stroke-width: 0.8; stroke-linejoin: miter; stroke-linecap: square"/>
   </g>
   <g id="patch_6">
    <path d="M 180 69.12 
L 1296 69.12 
" style="fill: none; stroke: #000000; stroke-width: 0.8; stroke-linejoin: miter; stroke-linecap: square"/>
   </g>
   <g id="text_12">
    <!-- source16-receiver9 -->
    <g transform="translate(544.9 60.80125) scale(0.4 -0.4)">
     <defs>
      <path id="DejaVuSans-73" d="M 2834 3397 
L 2834 2853 
Q 2591 2978 2328 3040 
Q 2066 3103 1784 3103 
Q 1356 3103 1142 2972 
Q 928 2841 928 2578 
Q 928 2378 1081 2264 
Q 1234 2150 1697 2047 
L 1894 2003 
Q 2506 1872 2764 1633 
Q 3022 1394 3022 966 
Q 3022 478 2636 193 
Q 2250 -91 1575 -91 
Q 1294 -91 989 -36 
Q 684 19 347 128 
L 347 722 
Q 666 556 975 473 
Q 1284 391 1588 391 
Q 1994 391 2212 530 
Q 2431 669 2431 922 
Q 2431 1156 2273 1281 
Q 2116 1406 1581 1522 
L 1381 1569 
Q 847 1681 609 1914 
Q 372 2147 372 2553 
Q 372 3047 722 3315 
Q 1072 3584 1716 3584 
Q 2034 3584 2315 3537 
Q 2597 3491 2834 3397 
z
" transform="scale(0.015625)"/>
      <path id="DejaVuSans-6f" d="M 1959 3097 
Q 1497 3097 1228 2736 
Q 959 2375 959 1747 
Q 959 1119 1226 758 
Q 1494 397 1959 397 
Q 2419 397 2687 759 
Q 2956 1122 2956 1747 
Q 2956 2369 2687 2733 
Q 2419 3097 1959 3097 
z
M 1959 3584 
Q 2709 3584 3137 3096 
Q 3566 2609 3566 1747 
Q 3566 888 3137 398 
Q 2709 -91 1959 -91 
Q 1206 -91 779 398 
Q 353 888 353 1747 
Q 353 2609 779 3096 
Q 1206 3584 1959 3584 
z
" transform="scale(0.015625)"/>
      <path id="DejaVuSans-75" d="M 544 1381 
L 544 3500 
L 1119 3500 
L 1119 1403 
Q 1119 906 1312 657 
Q 1506 409 1894 409 
Q 2359 409 2629 706 
Q 2900 1003 2900 1516 
L 2900 3500 
L 3475 3500 
L 3475 0 
L 2900 0 
L 2900 538 
Q 2691 219 2414 64 
Q 2138 -91 1772 -91 
Q 1169 -91 856 284 
Q 544 659 544 1381 
z
M 1991 3584 
L 1991 3584 
z
" transform="scale(0.015625)"/>
      <path id="DejaVuSans-72" d="M 2631 2963 
Q 2534 3019 2420 3045 
Q 2306 3072 2169 3072 
Q 1681 3072 1420 2755 
Q 1159 2438 1159 1844 
L 1159 0 
L 581 0 
L 581 3500 
L 1159 3500 
L 1159 2956 
Q 1341 3275 1631 3429 
Q 1922 3584 2338 3584 
Q 2397 3584 2469 3576 
Q 2541 3569 2628 3553 
L 2631 2963 
z
" transform="scale(0.015625)"/>
      <path id="DejaVuSans-63" d="M 3122 3366 
L 3122 2828 
Q 2878 2963 2633 3030 
Q 2388 3097 2138 3097 
Q 1578 3097 1268 2742 
Q 959 2388 959 1747 
Q 959 1106 1268 751 
Q 1578 397 2138 397 
Q 2388 397 2633 464 
Q 2878 531 3122 666 
L 3122 134 
Q 2881 22 2623 -34 
Q 2366 -91 2075 -91 
Q 1284 -91 818 406 
Q 353 903 353 1747 
Q 353 2603 823 3093 
Q 1294 3584 2113 3584 
Q 2378 3584 2631 3529 
Q 2884 3475 3122 3366 
z
" transform="scale(0.015625)"/>
      <path id="DejaVuSans-65" d="M 3597 1894 
L 3597 1613 
L 953 1613 
Q 991 1019 1311 708 
Q 1631 397 2203 397 
Q 2534 397 2845 478 
Q 3156 559 3463 722 
L 3463 178 
Q 3153 47 2828 -22 
Q 2503 -91 2169 -91 
Q 1331 -91 842 396 
Q 353 884 353 1716 
Q 353 2575 817 3079 
Q 1281 3584 2069 3584 
Q 2775 3584 3186 3129 
Q 3597 2675 3597 1894 
z
M 3022 2063 
Q 3016 2534 2758 2815 
Q 2500 3097 2075 3097 
Q 1594 3097 1305 2825 
Q 1016 2553 972 2059 
L 3022 2063 
z
" transform="scale(0.015625)"/>
      <path id="DejaVuSans-2d" d="M 313 2009 
L 1997 2009 
L 1997 1497 
L 313 1497 
L 313 2009 
z
" transform="scale(0.015625)"/>
      <path id="DejaVuSans-69" d="M 603 3500 
L 1178 3500 
L 1178 0 
L 603 0 
L 603 3500 
z
M 603 4863 
L 1178 4863 
L 1178 4134 
L 603 4134 
L 603 4863 
z
" transform="scale(0.015625)"/>
      <path id="DejaVuSans-76" d="M 191 3500 
L 800 3500 
L 1894 563 
L 2988 3500 
L 3597 3500 
L 2284 0 
L 1503 0 
L 191 3500 
z
" transform="scale(0.015625)"/>
      <path id="DejaVuSans-39" d="M 703 97 
L 703 672 
Q 941 559 1184 500 
Q 1428 441 1663 441 
Q 2288 441 2617 861 
Q 2947 1281 2994 2138 
Q 2813 1869 2534 1725 
Q 2256 1581 1919 1581 
Q 1219 1581 811 2004 
Q 403 2428 403 3163 
Q 403 3881 828 4315 
Q 1253 4750 1959 4750 
Q 2769 4750 3195 4129 
Q 3622 3509 3622 2328 
Q 3622 1225 3098 567 
Q 2575 -91 1691 -91 
Q 1453 -91 1209 -44 
Q 966 3 703 97 
z
M 1959 2075 
Q 2384 2075 2632 2365 
Q 2881 2656 2881 3163 
Q 2881 3666 2632 3958 
Q 2384 4250 1959 4250 
Q 1534 4250 1286 3958 
Q 1038 3666 1038 3163 
Q 1038 2656 1286 2365 
Q 1534 2075 1959 2075 
z
" transform="scale(0.015625)"/>
     </defs>
     <use xlink:href="#DejaVuSans-73"/>
     <use xlink:href="#DejaVuSans-6f" x="52.099609"/>
     <use xlink:href="#DejaVuSans-75" x="113.28125"/>
     <use xlink:href="#DejaVuSans-72" x="176.660156"/>
     <use xlink:href="#DejaVuSans-63" x="215.523438"/>
     <use xlink:href="#DejaVuSans-65" x="270.503906"/>
     <use xlink:href="#DejaVuSans-31" x="332.027344"/>
     <use xlink:href="#DejaVuSans-36" x="395.650391"/>
     <use xlink:href="#DejaVuSans-2d" x="459.273438"/>
     <use xlink:href="#DejaVuSans-72" x="495.357422"/>
     <use xlink:href="#DejaVuSans-65" x="534.220703"/>
     <use xlink:href="#DejaVuSans-63" x="595.744141"/>
     <use xlink:href="#DejaVuSans-65" x="650.724609"/>
     <use xlink:href="#DejaVuSans-69" x="712.248047"/>
     <use xlink:href="#DejaVuSans-76" x="740.03125"/>
     <use xlink:href="#DejaVuSans-65" x="799.210938"/>
     <use xlink:href="#DejaVuSans-72" x="860.734375"/>
     <use xlink:href="#DejaVuSans-39" x="901.847656"/>
    </g>
   </g>
  </g>
 </g>
 <defs>
  <clipPath id="pf37dde912d">
   <rect x="180" y="69.12" width="1116" height="443.52"/>
  </clipPath>
 </defs>
</svg>
