<?xml version="1.0" encoding="utf-8" standalone="no"?>
<!DOCTYPE svg PUBLIC "-//W3C//DTD SVG 1.1//EN"
  "http://www.w3.org/Graphics/SVG/1.1/DTD/svg11.dtd">
<svg xmlns:xlink="http://www.w3.org/1999/xlink" width="1440pt" height="576pt" viewBox="0 0 1440 576" xmlns="http://www.w3.org/2000/svg" version="1.1">
 <metadata>
  <rdf:RDF xmlns:dc="http://purl.org/dc/elements/1.1/" xmlns:cc="http://creativecommons.org/ns#" xmlns:rdf="http://www.w3.org/1999/02/22-rdf-syntax-ns#">
   <cc:Work>
    <dc:type rdf:resource="http://purl.org/dc/dcmitype/StillImage"/>
    <dc:date>2024-05-22T04:49:47.345906</dc:date>
    <dc:format>image/svg+xml</dc:format>
    <dc:creator>
     <cc:Agent>
      <dc:title>Matplotlib v3.8.3, https://matplotlib.org/</dc:title>
     </cc:Agent>
    </dc:creator>
   </cc:Work>
  </rdf:RDF>
 </metadata>
 <defs>
  <style type="text/css">*{stroke-linejoin: round; stroke-linecap: butt}</style>
 </defs>
 <g id="figure_1">
  <g id="patch_1">
   <path d="M 0 576 
L 1440 576 
L 1440 0 
L 0 0 
z
" style="fill: #ffffff"/>
  </g>
  <g id="axes_1">
   <g id="patch_2">
    <path d="M 180 512.64 
L 1296 512.64 
L 1296 69.12 
L 180 69.12 
z
" style="fill: #ffffff"/>
   </g>
   <g id="matplotlib.axis_1">
    <g id="xtick_1">
     <g id="line2d_1">
      <defs>
       <path id="m188f4e2add" d="M 0 0 
L 0 3.5 
" style="stroke: #000000; stroke-width: 0.8"/>
      </defs>
      <g>
       <use xlink:href="#m188f4e2add" x="229.734567" y="512.64" style="stroke: #000000; stroke-width: 0.8"/>
      </g>
     </g>
     <g id="text_1">
      <!-- 0 -->
      <g transform="translate(226.553317 527.238438) scale(0.1 -0.1)">
       <defs>
        <path id="DejaVuSans-30" d="M 2034 4250 
Q 1547 4250 1301 3770 
Q 1056 3291 1056 2328 
Q 1056 1369 1301 889 
Q 1547 409 2034 409 
Q 2525 409 2770 889 
Q 3016 1369 3016 2328 
Q 3016 3291 2770 3770 
Q 2525 4250 2034 4250 
z
M 2034 4750 
Q 2819 4750 3233 4129 
Q 3647 3509 3647 2328 
Q 3647 1150 3233 529 
Q 2819 -91 2034 -91 
Q 1250 -91 836 529 
Q 422 1150 422 2328 
Q 422 3509 836 4129 
Q 1250 4750 2034 4750 
z
" transform="scale(0.015625)"/>
       </defs>
       <use xlink:href="#DejaVuSans-30"/>
      </g>
     </g>
    </g>
    <g id="xtick_2">
     <g id="line2d_2">
      <g>
       <use xlink:href="#m188f4e2add" x="433.04074" y="512.64" style="stroke: #000000; stroke-width: 0.8"/>
      </g>
     </g>
     <g id="text_2">
      <!-- 500 -->
      <g transform="translate(423.49699 527.238438) scale(0.1 -0.1)">
       <defs>
        <path id="DejaVuSans-35" d="M 691 4666 
L 3169 4666 
L 3169 4134 
L 1269 4134 
L 1269 2991 
Q 1406 3038 1543 3061 
Q 1681 3084 1819 3084 
Q 2600 3084 3056 2656 
Q 3513 2228 3513 1497 
Q 3513 744 3044 326 
Q 2575 -91 1722 -91 
Q 1428 -91 1123 -41 
Q 819 9 494 109 
L 494 744 
Q 775 591 1075 516 
Q 1375 441 1709 441 
Q 2250 441 2565 725 
Q 2881 1009 2881 1497 
Q 2881 1984 2565 2268 
Q 2250 2553 1709 2553 
Q 1456 2553 1204 2497 
Q 953 2441 691 2322 
L 691 4666 
z
" transform="scale(0.015625)"/>
       </defs>
       <use xlink:href="#DejaVuSans-35"/>
       <use xlink:href="#DejaVuSans-30" x="63.623047"/>
       <use xlink:href="#DejaVuSans-30" x="127.246094"/>
      </g>
     </g>
    </g>
    <g id="xtick_3">
     <g id="line2d_3">
      <g>
       <use xlink:href="#m188f4e2add" x="636.346913" y="512.64" style="stroke: #000000; stroke-width: 0.8"/>
      </g>
     </g>
     <g id="text_3">
      <!-- 1000 -->
      <g transform="translate(623.621913 527.238438) scale(0.1 -0.1)">
       <defs>
        <path id="DejaVuSans-31" d="M 794 531 
L 1825 531 
L 1825 4091 
L 703 3866 
L 703 4441 
L 1819 4666 
L 2450 4666 
L 2450 531 
L 3481 531 
L 3481 0 
L 794 0 
L 794 531 
z
" transform="scale(0.015625)"/>
       </defs>
       <use xlink:href="#DejaVuSans-31"/>
       <use xlink:href="#DejaVuSans-30" x="63.623047"/>
       <use xlink:href="#DejaVuSans-30" x="127.246094"/>
       <use xlink:href="#DejaVuSans-30" x="190.869141"/>
      </g>
     </g>
    </g>
    <g id="xtick_4">
     <g id="line2d_4">
      <g>
       <use xlink:href="#m188f4e2add" x="839.653087" y="512.64" style="stroke: #000000; stroke-width: 0.8"/>
      </g>
     </g>
     <g id="text_4">
      <!-- 1500 -->
      <g transform="translate(826.928087 527.238438) scale(0.1 -0.1)">
       <use xlink:href="#DejaVuSans-31"/>
       <use xlink:href="#DejaVuSans-35" x="63.623047"/>
       <use xlink:href="#DejaVuSans-30" x="127.246094"/>
       <use xlink:href="#DejaVuSans-30" x="190.869141"/>
      </g>
     </g>
    </g>
    <g id="xtick_5">
     <g id="line2d_5">
      <g>
       <use xlink:href="#m188f4e2add" x="1042.95926" y="512.64" style="stroke: #000000; stroke-width: 0.8"/>
      </g>
     </g>
     <g id="text_5">
      <!-- 2000 -->
      <g transform="translate(1030.23426 527.238438) scale(0.1 -0.1)">
       <defs>
        <path id="DejaVuSans-32" d="M 1228 531 
L 3431 531 
L 3431 0 
L 469 0 
L 469 531 
Q 828 903 1448 1529 
Q 2069 2156 2228 2338 
Q 2531 2678 2651 2914 
Q 2772 3150 2772 3378 
Q 2772 3750 2511 3984 
Q 2250 4219 1831 4219 
Q 1534 4219 1204 4116 
Q 875 4013 500 3803 
L 500 4441 
Q 881 4594 1212 4672 
Q 1544 4750 1819 4750 
Q 2544 4750 2975 4387 
Q 3406 4025 3406 3419 
Q 3406 3131 3298 2873 
Q 3191 2616 2906 2266 
Q 2828 2175 2409 1742 
Q 1991 1309 1228 531 
z
" transform="scale(0.015625)"/>
       </defs>
       <use xlink:href="#DejaVuSans-32"/>
       <use xlink:href="#DejaVuSans-30" x="63.623047"/>
       <use xlink:href="#DejaVuSans-30" x="127.246094"/>
       <use xlink:href="#DejaVuSans-30" x="190.869141"/>
      </g>
     </g>
    </g>
    <g id="xtick_6">
     <g id="line2d_6">
      <g>
       <use xlink:href="#m188f4e2add" x="1246.265433" y="512.64" style="stroke: #000000; stroke-width: 0.8"/>
      </g>
     </g>
     <g id="text_6">
      <!-- 2500 -->
      <g transform="translate(1233.540433 527.238438) scale(0.1 -0.1)">
       <use xlink:href="#DejaVuSans-32"/>
       <use xlink:href="#DejaVuSans-35" x="63.623047"/>
       <use xlink:href="#DejaVuSans-30" x="127.246094"/>
       <use xlink:href="#DejaVuSans-30" x="190.869141"/>
      </g>
     </g>
    </g>
   </g>
   <g id="matplotlib.axis_2">
    <g id="ytick_1">
     <g id="line2d_7">
      <defs>
       <path id="m839de4cf1b" d="M 0 0 
L -3.5 0 
" style="stroke: #000000; stroke-width: 0.8"/>
      </defs>
      <g>
       <use xlink:href="#m839de4cf1b" x="180" y="500.418212" style="stroke: #000000; stroke-width: 0.8"/>
      </g>
     </g>
     <g id="text_7">
      <!-- −3 -->
      <g transform="translate(158.257812 504.217431) scale(0.1 -0.1)">
       <defs>
        <path id="DejaVuSans-2212" d="M 678 2272 
L 4684 2272 
L 4684 1741 
L 678 1741 
L 678 2272 
z
" transform="scale(0.015625)"/>
        <path id="DejaVuSans-33" d="M 2597 2516 
Q 3050 2419 3304 2112 
Q 3559 1806 3559 1356 
Q 3559 666 3084 287 
Q 2609 -91 1734 -91 
Q 1441 -91 1130 -33 
Q 819 25 488 141 
L 488 750 
Q 750 597 1062 519 
Q 1375 441 1716 441 
Q 2309 441 2620 675 
Q 2931 909 2931 1356 
Q 2931 1769 2642 2001 
Q 2353 2234 1838 2234 
L 1294 2234 
L 1294 2753 
L 1863 2753 
Q 2328 2753 2575 2939 
Q 2822 3125 2822 3475 
Q 2822 3834 2567 4026 
Q 2313 4219 1838 4219 
Q 1578 4219 1281 4162 
Q 984 4106 628 3988 
L 628 4550 
Q 988 4650 1302 4700 
Q 1616 4750 1894 4750 
Q 2613 4750 3031 4423 
Q 3450 4097 3450 3541 
Q 3450 3153 3228 2886 
Q 3006 2619 2597 2516 
z
" transform="scale(0.015625)"/>
       </defs>
       <use xlink:href="#DejaVuSans-2212"/>
       <use xlink:href="#DejaVuSans-33" x="83.789062"/>
      </g>
     </g>
    </g>
    <g id="ytick_2">
     <g id="line2d_8">
      <g>
       <use xlink:href="#m839de4cf1b" x="180" y="443.312137" style="stroke: #000000; stroke-width: 0.8"/>
      </g>
     </g>
     <g id="text_8">
      <!-- −2 -->
      <g transform="translate(158.257812 447.111356) scale(0.1 -0.1)">
       <use xlink:href="#DejaVuSans-2212"/>
       <use xlink:href="#DejaVuSans-32" x="83.789062"/>
      </g>
     </g>
    </g>
    <g id="ytick_3">
     <g id="line2d_9">
      <g>
       <use xlink:href="#m839de4cf1b" x="180" y="386.206062" style="stroke: #000000; stroke-width: 0.8"/>
      </g>
     </g>
     <g id="text_9">
      <!-- −1 -->
      <g transform="translate(158.257812 390.00528) scale(0.1 -0.1)">
       <use xlink:href="#DejaVuSans-2212"/>
       <use xlink:href="#DejaVuSans-31" x="83.789062"/>
      </g>
     </g>
    </g>
    <g id="ytick_4">
     <g id="line2d_10">
      <g>
       <use xlink:href="#m839de4cf1b" x="180" y="329.099986" style="stroke: #000000; stroke-width: 0.8"/>
      </g>
     </g>
     <g id="text_10">
      <!-- 0 -->
      <g transform="translate(166.6375 332.899205) scale(0.1 -0.1)">
       <use xlink:href="#DejaVuSans-30"/>
      </g>
     </g>
    </g>
    <g id="ytick_5">
     <g id="line2d_11">
      <g>
       <use xlink:href="#m839de4cf1b" x="180" y="271.993911" style="stroke: #000000; stroke-width: 0.8"/>
      </g>
     </g>
     <g id="text_11">
      <!-- 1 -->
      <g transform="translate(166.6375 275.79313) scale(0.1 -0.1)">
       <use xlink:href="#DejaVuSans-31"/>
      </g>
     </g>
    </g>
    <g id="ytick_6">
     <g id="line2d_12">
      <g>
       <use xlink:href="#m839de4cf1b" x="180" y="214.887836" style="stroke: #000000; stroke-width: 0.8"/>
      </g>
     </g>
     <g id="text_12">
      <!-- 2 -->
      <g transform="translate(166.6375 218.687054) scale(0.1 -0.1)">
       <use xlink:href="#DejaVuSans-32"/>
      </g>
     </g>
    </g>
    <g id="ytick_7">
     <g id="line2d_13">
      <g>
       <use xlink:href="#m839de4cf1b" x="180" y="157.78176" style="stroke: #000000; stroke-width: 0.8"/>
      </g>
     </g>
     <g id="text_13">
      <!-- 3 -->
      <g transform="translate(166.6375 161.580979) scale(0.1 -0.1)">
       <use xlink:href="#DejaVuSans-33"/>
      </g>
     </g>
    </g>
    <g id="ytick_8">
     <g id="line2d_14">
      <g>
       <use xlink:href="#m839de4cf1b" x="180" y="100.675685" style="stroke: #000000; stroke-width: 0.8"/>
      </g>
     </g>
     <g id="text_14">
      <!-- 4 -->
      <g transform="translate(166.6375 104.474904) scale(0.1 -0.1)">
       <defs>
        <path id="DejaVuSans-34" d="M 2419 4116 
L 825 1625 
L 2419 1625 
L 2419 4116 
z
M 2253 4666 
L 3047 4666 
L 3047 1625 
L 3713 1625 
L 3713 1100 
L 3047 1100 
L 3047 0 
L 2419 0 
L 2419 1100 
L 313 1100 
L 313 1709 
L 2253 4666 
z
" transform="scale(0.015625)"/>
       </defs>
       <use xlink:href="#DejaVuSans-34"/>
      </g>
     </g>
    </g>
   </g>
   <g id="line2d_15">
    <path d="M 230.727273 420.953189 
L 231.719979 420.62277 
L 232.712685 420.698211 
L 233.70539 420.459181 
L 234.698096 420.032441 
L 235.690802 419.436189 
L 238.66892 418.600105 
L 239.661626 418.517153 
L 240.654332 418.024196 
L 241.647038 418.247354 
L 242.639744 418.171306 
L 243.63245 420.470883 
L 244.625156 425.135521 
L 245.617862 417.193093 
L 246.610568 395.489914 
L 247.603273 381.397509 
L 248.595979 377.259426 
L 249.588685 423.665551 
L 250.581391 316.857829 
L 251.574097 267.709631 
L 252.566803 255.994643 
L 253.559509 284.303313 
L 254.552215 295.279244 
L 255.544921 231.877749 
L 256.537627 226.916875 
L 257.530333 272.399503 
L 258.523039 247.341668 
L 259.515745 226.877724 
L 260.50845 242.673763 
L 261.501156 223.513576 
L 262.493862 225.930988 
L 263.486568 275.939042 
L 264.479274 220.123464 
L 265.47198 204.559251 
L 266.464686 198.552881 
L 267.457392 185.216016 
L 268.450098 175.19091 
L 269.442804 163.56778 
L 270.43551 169.617182 
L 271.428216 180.081484 
L 272.420922 145.040752 
L 273.413627 133.096318 
L 274.406333 149.781283 
L 275.399039 173.666184 
L 276.391745 154.603504 
L 278.377157 135.218817 
L 279.369863 111.04649 
L 280.362569 92.196376 
L 281.355275 89.28 
L 282.347981 109.534958 
L 283.340687 165.664001 
L 284.333393 125.189041 
L 285.326099 107.127378 
L 286.318804 118.910276 
L 287.31151 138.137153 
L 288.304216 143.098881 
L 289.296922 169.155942 
L 290.289628 209.140025 
L 291.282334 196.333468 
L 292.27504 258.045679 
L 293.267746 218.530237 
L 294.260452 205.123065 
L 295.253158 240.012417 
L 296.245864 238.742305 
L 297.23857 268.442877 
L 298.231276 286.782259 
L 299.223981 260.11606 
L 300.216687 371.896413 
L 301.209393 285.658726 
L 302.202099 313.397164 
L 303.194805 301.690368 
L 304.187511 282.183525 
L 305.180217 392.515703 
L 306.172923 300.017348 
L 307.165629 324.95641 
L 308.158335 331.318675 
L 309.151041 303.09407 
L 310.143747 349.628089 
L 311.136453 325.209946 
L 312.129159 327.32839 
L 313.121864 341.990359 
L 314.11457 331.99678 
L 315.107276 345.22198 
L 316.099982 345.928431 
L 317.092688 343.137468 
L 318.085394 339.162549 
L 319.0781 343.509845 
L 320.070806 349.645785 
L 321.063512 341.791512 
L 322.056218 349.872323 
L 323.048924 347.885713 
L 324.04163 351.383999 
L 325.034336 352.436679 
L 326.027041 355.383987 
L 327.019747 357.939574 
L 328.012453 349.767629 
L 329.005159 349.604253 
L 329.997865 363.21693 
L 330.990571 358.632568 
L 331.983277 365.922754 
L 333.968689 358.176088 
L 334.961395 362.400754 
L 335.954101 357.772575 
L 336.946807 365.159024 
L 337.939513 364.32847 
L 338.932218 371.087757 
L 339.924924 371.763557 
L 340.91763 364.013996 
L 341.910336 371.568832 
L 342.903042 364.272797 
L 343.895748 371.048573 
L 344.888454 368.050477 
L 345.88116 380.334938 
L 346.873866 376.117962 
L 347.866572 365.798377 
L 348.859278 367.686434 
L 349.851984 374.417737 
L 350.84469 378.437326 
L 351.837395 387.448755 
L 352.830101 380.493253 
L 353.822807 374.701518 
L 354.815513 380.966401 
L 355.808219 376.364824 
L 356.800925 375.607344 
L 357.793631 380.051941 
L 358.786337 381.710931 
L 359.779043 387.5961 
L 360.771749 378.777132 
L 361.764455 390.649849 
L 362.757161 398.929402 
L 363.749867 383.182917 
L 364.742572 375.415431 
L 365.735278 379.326904 
L 366.727984 388.59869 
L 367.72069 384.949689 
L 368.713396 386.401512 
L 369.706102 385.825711 
L 370.698808 388.041215 
L 371.691514 377.373093 
L 372.68422 378.660333 
L 373.676926 397.946484 
L 374.669632 429.966543 
L 375.662338 391.176262 
L 376.655044 372.764892 
L 377.64775 378.836318 
L 378.640455 386.125837 
L 379.633161 400.67908 
L 381.618573 380.880873 
L 382.611279 396.408385 
L 383.603985 394.515937 
L 384.596691 395.373071 
L 385.589397 411.451268 
L 386.582103 405.376345 
L 387.574809 376.551286 
L 388.567515 389.714419 
L 389.560221 435.965392 
L 390.552927 387.144838 
L 391.545632 382.68747 
L 392.538338 397.545296 
L 393.531044 400.727823 
L 394.52375 398.300324 
L 395.516456 424.902727 
L 396.509162 403.885817 
L 397.501868 403.106849 
L 398.494574 408.06415 
L 399.48728 389.263049 
L 400.479986 388.574409 
L 401.472692 413.867968 
L 402.465398 426.922809 
L 403.458104 395.266825 
L 404.450809 391.156536 
L 405.443515 393.446165 
L 406.436221 395.159109 
L 407.428927 413.062335 
L 408.421633 402.875617 
L 409.414339 418.632621 
L 410.407045 398.326865 
L 411.399751 407.727656 
L 412.392457 410.564356 
L 413.385163 421.459191 
L 414.377869 406.629522 
L 415.370575 394.256531 
L 416.363281 412.3646 
L 417.355986 434.582517 
L 418.348692 389.876984 
L 419.341398 387.40482 
L 420.334104 407.584329 
L 421.32681 403.363731 
L 422.319516 414.01887 
L 423.312222 400.239528 
L 424.304928 397.835671 
L 425.297634 416.595028 
L 426.29034 416.624768 
L 427.283046 398.893837 
L 428.275752 403.739466 
L 429.268458 442.298722 
L 430.261163 401.572538 
L 431.253869 383.368996 
L 432.246575 391.725994 
L 433.239281 411.164547 
L 434.231987 407.341983 
L 435.224693 407.989664 
L 436.217399 401.692761 
L 437.210105 419.918622 
L 438.202811 407.631316 
L 439.195517 408.435678 
L 440.188223 417.08708 
L 441.180929 422.622786 
L 442.173635 414.807212 
L 443.166341 443.142314 
L 444.159046 415.28033 
L 445.151752 397.324001 
L 446.144458 409.742551 
L 447.137164 410.078439 
L 448.12987 408.093809 
L 449.122576 422.959492 
L 450.115282 411.929373 
L 451.107988 418.912268 
L 452.100694 413.826007 
L 453.0934 413.295712 
L 454.086106 425.734077 
L 455.078812 417.948298 
L 456.071518 420.358281 
L 457.064223 420.688167 
L 458.056929 420.39628 
L 459.049635 419.462534 
L 460.042341 427.968487 
L 461.035047 416.377006 
L 462.027753 426.489534 
L 463.020459 417.460906 
L 464.013165 414.566511 
L 465.005871 423.971506 
L 465.998577 421.62869 
L 466.991283 426.907812 
L 467.983989 440.780543 
L 468.976695 421.959408 
L 469.9694 428.472618 
L 470.962106 425.053297 
L 471.954812 430.531449 
L 472.947518 418.027211 
L 473.940224 421.792868 
L 474.93293 438.052226 
L 475.925636 425.472906 
L 476.918342 435.242093 
L 477.911048 410.53806 
L 478.903754 434.523613 
L 479.89646 418.000881 
L 480.889166 419.8385 
L 481.881872 427.991891 
L 482.874577 434.052562 
L 483.867283 422.260204 
L 484.859989 418.925489 
L 485.852695 413.760934 
L 486.845401 418.826976 
L 487.838107 426.226594 
L 488.830813 423.30807 
L 489.823519 429.792037 
L 490.816225 428.485531 
L 491.808931 414.719629 
L 492.801637 412.474966 
L 493.794343 432.332684 
L 494.787049 428.22763 
L 495.779754 417.593926 
L 496.77246 419.957971 
L 497.765166 435.633973 
L 498.757872 418.571379 
L 499.750578 426.666671 
L 500.743284 426.087294 
L 501.73599 432.316702 
L 502.728696 410.709289 
L 503.721402 437.822102 
L 504.714108 423.37718 
L 505.706814 424.023893 
L 506.69952 444.301135 
L 507.692226 437.885492 
L 508.684932 427.847226 
L 509.677637 449.73159 
L 510.670343 458.394693 
L 511.663049 432.397588 
L 512.655755 421.604772 
L 513.648461 426.407575 
L 514.641167 428.499279 
L 515.633873 443.915606 
L 516.626579 437.859149 
L 517.619285 442.984197 
L 518.611991 435.742564 
L 519.604697 430.136659 
L 520.597403 435.192311 
L 521.590109 466.734158 
L 522.582814 427.761557 
L 523.57552 423.612737 
L 524.568226 432.566012 
L 525.560932 443.760304 
L 526.553638 418.768166 
L 527.546344 441.456121 
L 528.53905 421.626364 
L 529.531756 434.195983 
L 530.524462 439.285441 
L 531.517168 433.945888 
L 532.509874 421.443519 
L 533.50258 492.48 
L 534.495286 466.458517 
L 535.487991 424.170136 
L 536.480697 426.524949 
L 537.473403 464.71432 
L 538.466109 486.218219 
L 539.458815 436.854807 
L 540.451521 412.745015 
L 541.444227 426.254487 
L 542.436933 448.147016 
L 543.429639 450.463247 
L 544.422345 436.829681 
L 545.415051 439.535 
L 546.407757 417.866881 
L 547.400463 406.65867 
L 548.393168 448.759335 
L 549.385874 437.324712 
L 550.37858 422.920125 
L 551.371286 443.042115 
L 552.363992 439.693267 
L 553.356698 422.98451 
L 554.349404 435.150939 
L 555.34211 435.349083 
L 556.334816 438.663517 
L 557.327522 470.256897 
L 558.320228 424.402494 
L 559.312934 443.028558 
L 560.30564 442.075432 
L 561.298345 440.027428 
L 562.291051 430.77383 
L 563.283757 424.059382 
L 564.276463 454.407369 
L 565.269169 459.193148 
L 566.261875 453.325799 
L 567.254581 438.119504 
L 569.239993 427.418924 
L 570.232699 452.629409 
L 571.225405 454.1476 
L 572.218111 461.176823 
L 574.203523 425.106545 
L 575.196228 435.301762 
L 576.188934 449.033915 
L 577.18164 447.075203 
L 578.174346 434.287827 
L 579.167052 446.179338 
L 580.159758 445.534967 
L 581.152464 441.045434 
L 582.14517 449.821812 
L 583.137876 438.524898 
L 584.130582 467.592914 
L 585.123288 465.297867 
L 586.115994 439.776961 
L 587.1087 429.550152 
L 588.101405 461.663896 
L 589.094111 453.985452 
L 590.086817 438.702028 
L 591.079523 442.507364 
L 593.064935 469.648617 
L 594.057641 437.967513 
L 595.050347 452.098067 
L 596.043053 454.499136 
L 597.035759 450.429481 
L 598.028465 440.157192 
L 599.021171 457.664867 
L 600.013877 452.782077 
L 601.006582 445.05361 
L 601.999288 450.365067 
L 602.991994 451.981039 
L 603.9847 435.362421 
L 604.977406 454.198048 
L 605.970112 454.425511 
L 606.962818 448.027593 
L 607.955524 451.010687 
L 608.94823 439.438102 
L 609.940936 448.210683 
L 610.933642 444.632707 
L 611.926348 450.138417 
L 613.911759 452.134333 
L 614.904465 448.062496 
L 615.897171 461.965074 
L 616.889877 436.347574 
L 617.882583 455.148856 
L 618.875289 447.061246 
L 619.867995 450.201078 
L 620.860701 462.937704 
L 621.853407 454.072678 
L 622.846113 453.87853 
L 623.838819 453.274422 
L 624.831525 452.465779 
L 625.824231 461.772462 
L 626.816936 447.859972 
L 627.809642 446.102548 
L 628.802348 453.885487 
L 629.795054 452.655099 
L 630.78776 461.150265 
L 631.780466 455.136773 
L 632.773172 456.822903 
L 633.765878 454.900885 
L 634.758584 447.800622 
L 635.75129 445.419883 
L 636.743996 463.382043 
L 637.736702 454.804195 
L 638.729408 449.249178 
L 639.722114 447.384795 
L 640.714819 454.34767 
L 641.707525 451.843151 
L 642.700231 454.989806 
L 643.692937 455.430183 
L 644.685643 452.113526 
L 645.678349 452.220882 
L 646.671055 460.451384 
L 647.663761 458.183099 
L 648.656467 450.643475 
L 649.649173 452.513949 
L 650.641879 461.498753 
L 651.634585 456.506547 
L 652.627291 452.387235 
L 653.619996 456.244171 
L 654.612702 454.656655 
L 655.605408 455.679149 
L 656.598114 453.80483 
L 657.59082 459.219202 
L 658.583526 456.594892 
L 659.576232 460.532115 
L 660.568938 455.157526 
L 661.561644 457.699054 
L 662.55435 457.508135 
L 663.547056 458.94067 
L 664.539762 458.942019 
L 665.532468 456.741731 
L 666.525173 458.314398 
L 667.517879 454.708125 
L 668.510585 458.593794 
L 669.503291 456.748606 
L 670.495997 456.416614 
L 671.488703 456.389038 
L 672.481409 461.824726 
L 673.474115 459.209829 
L 674.466821 457.455358 
L 675.459527 458.002221 
L 676.452233 457.13064 
L 677.444939 458.822524 
L 678.437645 458.768591 
L 679.43035 456.038764 
L 680.423056 460.947865 
L 681.415762 458.751456 
L 682.408468 460.439424 
L 683.401174 458.409782 
L 684.39388 460.679263 
L 685.386586 459.098565 
L 686.379292 460.352618 
L 687.371998 459.900088 
L 688.364704 460.870332 
L 689.35741 459.325565 
L 690.350116 458.208176 
L 691.342822 459.337112 
L 692.335527 459.667912 
L 693.328233 460.44604 
L 694.320939 460.377076 
L 695.313645 461.744844 
L 696.306351 460.512963 
L 697.299057 461.557077 
L 698.291763 461.447262 
L 699.284469 460.632303 
L 700.277175 461.547094 
L 701.269881 461.764143 
L 702.262587 460.604768 
L 703.255293 462.277612 
L 704.247999 461.341307 
L 706.23341 460.551791 
L 707.226116 463.16385 
L 708.218822 463.718474 
L 709.211528 461.052932 
L 710.204234 462.785972 
L 711.19694 461.181124 
L 712.189646 462.545944 
L 713.182352 462.119785 
L 714.175058 462.410347 
L 715.167764 462.207206 
L 716.16047 461.718508 
L 717.153176 463.104014 
L 718.145882 463.168458 
L 719.138587 462.379294 
L 720.131293 463.57123 
L 721.123999 463.250248 
L 722.116705 463.384468 
L 723.109411 464.240894 
L 724.102117 464.433016 
L 725.094823 464.756895 
L 726.087529 462.699647 
L 727.080235 463.91013 
L 728.072941 465.346434 
L 729.065647 463.246466 
L 730.058353 464.446713 
L 731.051059 463.995709 
L 732.043764 463.788802 
L 733.03647 464.678454 
L 734.029176 462.577063 
L 735.021882 463.333381 
L 736.014588 466.083271 
L 737.007294 464.394083 
L 738.992706 464.836066 
L 739.985412 465.467315 
L 740.978118 465.754315 
L 741.970824 464.670558 
L 742.96353 464.527171 
L 743.956236 465.943652 
L 744.948941 464.993027 
L 745.941647 465.374725 
L 746.934353 466.531413 
L 747.927059 465.277841 
L 748.919765 465.318892 
L 749.912471 466.021332 
L 750.905177 465.614027 
L 751.897883 464.752546 
L 752.890589 465.931306 
L 753.883295 466.08899 
L 754.876001 465.861778 
L 755.868707 467.103769 
L 756.861413 465.812853 
L 757.854118 467.278878 
L 758.846824 466.255516 
L 759.83953 466.503025 
L 761.824942 465.604354 
L 762.817648 466.859463 
L 763.810354 466.715636 
L 764.80306 467.219074 
L 765.795766 467.063917 
L 766.788472 466.465488 
L 767.781178 467.520837 
L 768.773884 466.444799 
L 769.76659 467.679194 
L 770.759295 466.874304 
L 771.752001 467.519972 
L 772.744707 467.89469 
L 773.737413 468.681382 
L 774.730119 467.341676 
L 775.722825 467.183867 
L 776.715531 467.96551 
L 777.708237 468.292964 
L 778.700943 467.894061 
L 779.693649 467.955741 
L 780.686355 467.247435 
L 781.679061 469.160732 
L 782.671767 468.778002 
L 783.664473 469.665817 
L 785.649884 468.357669 
L 786.64259 469.481503 
L 787.635296 469.323981 
L 788.628002 469.572073 
L 789.620708 468.776353 
L 790.613414 470.125582 
L 791.60612 468.679146 
L 792.598826 468.724687 
L 793.591532 469.47548 
L 794.584238 469.359539 
L 795.576944 469.712235 
L 796.56965 469.011047 
L 797.562355 469.117149 
L 798.555061 470.172633 
L 799.547767 470.938035 
L 800.540473 469.091148 
L 801.533179 470.29227 
L 802.525885 469.418697 
L 803.518591 470.43497 
L 804.511297 470.412994 
L 805.504003 470.210073 
L 806.496709 470.995502 
L 807.489415 470.10005 
L 808.482121 470.271502 
L 809.474827 471.587242 
L 810.467532 469.009652 
L 811.460238 470.875049 
L 812.452944 471.324038 
L 813.44565 469.407707 
L 814.438356 469.460622 
L 815.431062 470.51308 
L 816.423768 470.983223 
L 817.416474 470.182271 
L 818.40918 471.588771 
L 819.401886 471.151915 
L 820.394592 471.695215 
L 821.387298 471.181668 
L 822.380004 472.288835 
L 823.372709 470.765047 
L 824.365415 470.90069 
L 825.358121 471.234532 
L 826.350827 471.337674 
L 827.343533 471.886107 
L 828.336239 471.117846 
L 829.328945 472.061474 
L 830.321651 471.975583 
L 831.314357 471.625861 
L 832.307063 472.165692 
L 833.299769 472.285339 
L 835.285181 471.556584 
L 836.277886 472.105791 
L 837.270592 472.888704 
L 838.263298 472.031904 
L 839.256004 471.779402 
L 840.24871 471.844384 
L 841.241416 473.488811 
L 842.234122 472.909576 
L 843.226828 472.908253 
L 844.219534 473.623051 
L 845.21224 473.243991 
L 846.204946 472.722656 
L 847.197652 473.103372 
L 848.190358 474.191671 
L 849.183064 473.214646 
L 850.175769 472.403939 
L 851.168475 473.756494 
L 852.161181 473.783492 
L 853.153887 473.394321 
L 854.146593 474.474442 
L 855.139299 473.047903 
L 856.132005 473.322253 
L 857.124711 473.353881 
L 858.117417 473.914041 
L 859.110123 473.879609 
L 860.102829 474.696692 
L 861.095535 474.302134 
L 862.088241 474.183391 
L 863.080946 473.54757 
L 864.073652 473.892316 
L 866.059064 474.074571 
L 867.05177 474.778644 
L 868.044476 475.095653 
L 869.037182 474.065035 
L 870.029888 474.585077 
L 871.022594 473.981771 
L 872.0153 475.481248 
L 873.008006 474.295667 
L 874.000712 474.416195 
L 874.993418 475.370481 
L 875.986123 474.877762 
L 876.978829 475.057803 
L 877.971535 475.364577 
L 878.964241 474.869443 
L 879.956947 475.735556 
L 880.949653 475.853751 
L 881.942359 475.380972 
L 882.935065 475.396496 
L 883.927771 475.612649 
L 884.920477 475.34321 
L 885.913183 475.876235 
L 886.905889 474.173078 
L 887.898595 476.068449 
L 888.8913 474.14611 
L 889.884006 474.310248 
L 890.876712 475.919089 
L 891.869418 476.210454 
L 892.862124 475.612422 
L 894.847536 477.09844 
L 895.840242 475.753923 
L 896.832948 475.198153 
L 897.825654 475.824765 
L 898.81836 475.416919 
L 900.803772 476.765855 
L 901.796477 476.528298 
L 902.789183 476.021157 
L 903.781889 475.827065 
L 904.774595 476.901156 
L 905.767301 477.016549 
L 906.760007 477.774153 
L 908.745419 476.068584 
L 909.738125 476.258801 
L 911.723537 477.354369 
L 912.716243 476.174924 
L 913.708949 477.526243 
L 914.701655 477.675737 
L 915.69436 476.696218 
L 917.679772 476.527295 
L 918.672478 477.984928 
L 919.665184 477.634532 
L 920.65789 477.069932 
L 921.650596 478.095541 
L 922.643302 477.859221 
L 923.636008 477.905589 
L 924.628714 477.488636 
L 925.62142 478.016619 
L 926.614126 478.239895 
L 927.606832 475.853915 
L 928.599537 477.510314 
L 929.592243 478.577617 
L 930.584949 476.946931 
L 931.577655 477.953831 
L 932.570361 476.809322 
L 933.563067 477.625537 
L 934.555773 478.240634 
L 935.548479 477.157526 
L 936.541185 477.437484 
L 937.533891 477.905308 
L 938.526597 477.424948 
L 939.519303 478.681641 
L 940.512009 477.723875 
L 941.504714 478.944655 
L 942.49742 478.132653 
L 943.490126 477.900002 
L 944.482832 478.522311 
L 945.475538 478.964449 
L 947.46095 478.118744 
L 948.453656 478.571307 
L 949.446362 477.579776 
L 950.439068 478.851277 
L 951.431774 478.659221 
L 953.417186 479.014073 
L 955.402597 479.127397 
L 956.395303 478.723068 
L 957.388009 478.718288 
L 960.366127 479.611482 
L 961.358833 478.331015 
L 962.351539 480.547781 
L 963.344245 479.668132 
L 964.336951 479.088338 
L 965.329657 479.757804 
L 966.322363 478.866132 
L 967.315068 479.754924 
L 968.307774 478.24408 
L 969.30048 478.573976 
L 970.293186 480.109321 
L 971.285892 480.041785 
L 972.278598 479.225824 
L 973.271304 479.973567 
L 974.26401 479.296298 
L 975.256716 479.46161 
L 976.249422 478.492715 
L 977.242128 480.407768 
L 978.234834 478.758691 
L 979.22754 478.776303 
L 980.220246 479.948144 
L 981.212951 480.358045 
L 982.205657 479.493787 
L 983.198363 481.061261 
L 984.191069 479.770115 
L 985.183775 479.743 
L 986.176481 480.059938 
L 987.169187 479.769251 
L 988.161893 480.418006 
L 989.154599 479.623446 
L 990.147305 480.290382 
L 991.140011 480.599622 
L 992.132717 479.711201 
L 994.118128 480.657331 
L 995.110834 480.92648 
L 996.10354 480.788203 
L 997.096246 481.624913 
L 998.088952 481.13101 
L 1000.074364 480.424551 
L 1002.059776 480.690578 
L 1003.052482 479.78863 
L 1004.045188 481.018902 
L 1005.037894 480.866762 
L 1006.0306 480.58505 
L 1007.023305 480.147405 
L 1008.016011 481.404684 
L 1009.008717 481.476109 
L 1010.001423 481.075675 
L 1010.994129 480.296466 
L 1011.986835 480.834079 
L 1012.979541 480.019615 
L 1013.972247 480.665099 
L 1014.964953 480.943904 
L 1015.957659 482.399251 
L 1016.950365 481.638636 
L 1017.943071 481.490785 
L 1018.935777 482.126422 
L 1019.928482 481.851189 
L 1020.921188 482.120858 
L 1021.913894 481.374139 
L 1022.9066 481.403281 
L 1023.899306 482.098059 
L 1024.892012 480.968424 
L 1025.884718 482.330791 
L 1026.877424 482.054602 
L 1027.87013 480.398353 
L 1028.862836 480.89208 
L 1029.855542 481.68896 
L 1030.848248 481.246878 
L 1031.840954 481.96311 
L 1033.826365 481.723007 
L 1034.819071 482.56931 
L 1035.811777 482.853709 
L 1036.804483 482.182582 
L 1038.789895 482.060023 
L 1039.782601 482.560845 
L 1040.775307 482.116643 
L 1041.768013 482.488871 
L 1043.753425 482.113632 
L 1044.746131 483.249804 
L 1045.738837 482.136822 
L 1046.731542 481.635037 
L 1047.724248 481.846695 
L 1050.702366 482.126741 
L 1051.695072 482.543284 
L 1052.687778 481.625653 
L 1053.680484 482.35027 
L 1054.67319 482.642661 
L 1055.665896 482.726992 
L 1056.658602 482.332044 
L 1057.651308 482.565826 
L 1058.644014 481.86487 
L 1059.636719 482.801253 
L 1060.629425 483.111399 
L 1061.622131 482.587369 
L 1062.614837 482.861668 
L 1063.607543 483.902515 
L 1064.600249 483.048241 
L 1065.592955 482.410057 
L 1066.585661 482.88749 
L 1068.571073 482.852794 
L 1069.563779 481.271909 
L 1070.556485 483.054241 
L 1071.549191 482.926856 
L 1072.541896 483.133465 
L 1073.534602 482.718983 
L 1074.527308 482.926379 
L 1075.520014 482.94909 
L 1076.51272 481.663344 
L 1077.505426 481.415807 
L 1078.498132 482.72547 
L 1079.490838 483.173559 
L 1080.483544 482.293784 
L 1081.47625 483.06806 
L 1082.468956 483.143226 
L 1083.461662 482.570179 
L 1084.454368 482.366501 
L 1085.447073 483.281415 
L 1086.439779 483.715398 
L 1087.432485 482.241962 
L 1088.425191 483.433753 
L 1089.417897 482.680583 
L 1092.396015 483.544817 
L 1093.388721 483.178551 
L 1094.381427 483.184266 
L 1095.374133 481.789294 
L 1096.366839 482.690531 
L 1097.359545 484.453109 
L 1098.35225 482.977905 
L 1099.344956 482.818515 
L 1100.337662 483.274907 
L 1101.330368 485.029908 
L 1102.323074 482.156644 
L 1103.31578 483.01618 
L 1104.308486 483.45473 
L 1105.301192 485.067852 
L 1106.293898 484.886082 
L 1107.286604 483.530028 
L 1108.27931 483.467053 
L 1109.272016 483.828371 
L 1110.264722 483.49754 
L 1111.257428 484.744122 
L 1112.250133 483.727583 
L 1113.242839 485.091729 
L 1114.235545 484.416937 
L 1115.228251 482.705716 
L 1116.220957 483.571464 
L 1117.213663 483.479831 
L 1118.206369 483.715228 
L 1119.199075 483.627576 
L 1120.191781 483.349637 
L 1121.184487 482.088126 
L 1122.177193 483.633507 
L 1123.169899 484.553959 
L 1124.162605 483.880695 
L 1125.15531 482.985185 
L 1126.148016 483.650056 
L 1127.140722 483.752428 
L 1128.133428 482.9487 
L 1129.126134 484.185888 
L 1130.11884 483.80469 
L 1131.111546 483.806996 
L 1132.104252 483.997092 
L 1133.096958 484.484578 
L 1134.089664 483.564032 
L 1135.08237 483.771792 
L 1136.075076 485.490855 
L 1137.067782 485.010467 
L 1138.060487 484.77197 
L 1139.053193 483.835331 
L 1140.045899 483.460911 
L 1141.038605 484.826695 
L 1142.031311 484.673703 
L 1143.024017 483.625882 
L 1144.016723 484.283764 
L 1146.002135 484.140222 
L 1146.994841 483.688732 
L 1147.987547 484.730398 
L 1148.980253 484.499238 
L 1149.972959 485.36239 
L 1150.965664 484.700628 
L 1151.95837 484.545671 
L 1152.951076 483.893358 
L 1153.943782 484.179134 
L 1154.936488 483.370289 
L 1155.929194 483.582423 
L 1156.9219 485.641021 
L 1157.914606 484.657459 
L 1158.907312 483.842605 
L 1159.900018 484.816891 
L 1160.892724 485.134972 
L 1161.88543 483.901585 
L 1162.878136 484.763195 
L 1164.863547 484.202771 
L 1165.856253 485.034098 
L 1166.848959 485.326948 
L 1167.841665 485.03275 
L 1168.834371 485.588037 
L 1169.827077 484.678762 
L 1170.819783 483.955308 
L 1171.812489 484.427972 
L 1173.797901 485.014644 
L 1174.790607 484.805808 
L 1175.783313 484.224169 
L 1176.776019 484.425105 
L 1177.768724 485.532799 
L 1178.76143 485.695169 
L 1179.754136 483.891892 
L 1180.746842 484.617857 
L 1181.739548 485.115902 
L 1182.732254 484.141739 
L 1183.72496 485.005333 
L 1184.717666 484.517325 
L 1185.710372 484.371581 
L 1186.703078 484.763744 
L 1187.695784 484.344153 
L 1188.68849 484.260912 
L 1189.681196 485.515203 
L 1190.673901 485.561409 
L 1191.666607 484.538851 
L 1192.659313 484.039928 
L 1193.652019 484.39126 
L 1194.644725 485.670947 
L 1195.637431 484.11574 
L 1197.622843 484.858053 
L 1198.615549 484.18622 
L 1199.608255 485.644434 
L 1200.600961 485.02133 
L 1201.593667 483.843186 
L 1202.586373 484.896556 
L 1203.579078 486.535879 
L 1204.571784 484.810649 
L 1205.56449 484.735255 
L 1206.557196 485.690799 
L 1207.549902 484.640507 
L 1208.542608 485.061345 
L 1209.535314 484.927701 
L 1210.52802 485.0781 
L 1211.520726 483.874203 
L 1213.506138 485.452013 
L 1214.498844 485.987781 
L 1215.49155 485.030606 
L 1216.484255 483.821077 
L 1218.469667 485.209041 
L 1219.462373 484.240459 
L 1220.455079 485.408699 
L 1221.447785 485.61712 
L 1222.440491 485.559866 
L 1223.433197 485.14186 
L 1224.425903 484.894293 
L 1225.418609 484.462154 
L 1226.411315 485.455409 
L 1227.404021 485.021749 
L 1228.396727 485.754526 
L 1229.389432 485.639225 
L 1230.382138 484.689277 
L 1231.374844 485.503718 
L 1232.36755 485.324652 
L 1233.360256 484.911067 
L 1234.352962 484.123829 
L 1235.345668 485.861454 
L 1236.338374 485.049366 
L 1237.33108 485.264287 
L 1238.323786 484.762397 
L 1239.316492 486.039561 
L 1240.309198 486.041271 
L 1241.301904 484.098264 
L 1242.29461 484.864236 
L 1243.287315 484.91266 
L 1244.280021 484.774734 
L 1245.272727 485.117889 
L 1245.272727 485.117889 
" clip-path="url(#pe109e5e76a)" style="fill: none; stroke: #1f77b4; stroke-width: 1.5; stroke-linecap: square"/>
   </g>
   <g id="patch_3">
    <path d="M 180 512.64 
L 180 69.12 
" style="fill: none; stroke: #000000; stroke-width: 0.8; stroke-linejoin: miter; stroke-linecap: square"/>
   </g>
   <g id="patch_4">
    <path d="M 1296 512.64 
L 1296 69.12 
" style="fill: none; stroke: #000000; stroke-width: 0.8; stroke-linejoin: miter; stroke-linecap: square"/>
   </g>
   <g id="patch_5">
    <path d="M 180 512.64 
L 1296 512.64 
" style="fill: none; stroke: #000000; stroke-width: 0.8; stroke-linejoin: miter; stroke-linecap: square"/>
   </g>
   <g id="patch_6">
    <path d="M 180 69.12 
L 1296 69.12 
" style="fill: none; stroke: #000000; stroke-width: 0.8; stroke-linejoin: miter; stroke-linecap: square"/>
   </g>
   <g id="text_15">
    <!-- source5-receiver10 -->
    <g transform="translate(544.9 60.80125) scale(0.4 -0.4)">
     <defs>
      <path id="DejaVuSans-73" d="M 2834 3397 
L 2834 2853 
Q 2591 2978 2328 3040 
Q 2066 3103 1784 3103 
Q 1356 3103 1142 2972 
Q 928 2841 928 2578 
Q 928 2378 1081 2264 
Q 1234 2150 1697 2047 
L 1894 2003 
Q 2506 1872 2764 1633 
Q 3022 1394 3022 966 
Q 3022 478 2636 193 
Q 2250 -91 1575 -91 
Q 1294 -91 989 -36 
Q 684 19 347 128 
L 347 722 
Q 666 556 975 473 
Q 1284 391 1588 391 
Q 1994 391 2212 530 
Q 2431 669 2431 922 
Q 2431 1156 2273 1281 
Q 2116 1406 1581 1522 
L 1381 1569 
Q 847 1681 609 1914 
Q 372 2147 372 2553 
Q 372 3047 722 3315 
Q 1072 3584 1716 3584 
Q 2034 3584 2315 3537 
Q 2597 3491 2834 3397 
z
" transform="scale(0.015625)"/>
      <path id="DejaVuSans-6f" d="M 1959 3097 
Q 1497 3097 1228 2736 
Q 959 2375 959 1747 
Q 959 1119 1226 758 
Q 1494 397 1959 397 
Q 2419 397 2687 759 
Q 2956 1122 2956 1747 
Q 2956 2369 2687 2733 
Q 2419 3097 1959 3097 
z
M 1959 3584 
Q 2709 3584 3137 3096 
Q 3566 2609 3566 1747 
Q 3566 888 3137 398 
Q 2709 -91 1959 -91 
Q 1206 -91 779 398 
Q 353 888 353 1747 
Q 353 2609 779 3096 
Q 1206 3584 1959 3584 
z
" transform="scale(0.015625)"/>
      <path id="DejaVuSans-75" d="M 544 1381 
L 544 3500 
L 1119 3500 
L 1119 1403 
Q 1119 906 1312 657 
Q 1506 409 1894 409 
Q 2359 409 2629 706 
Q 2900 1003 2900 1516 
L 2900 3500 
L 3475 3500 
L 3475 0 
L 2900 0 
L 2900 538 
Q 2691 219 2414 64 
Q 2138 -91 1772 -91 
Q 1169 -91 856 284 
Q 544 659 544 1381 
z
M 1991 3584 
L 1991 3584 
z
" transform="scale(0.015625)"/>
      <path id="DejaVuSans-72" d="M 2631 2963 
Q 2534 3019 2420 3045 
Q 2306 3072 2169 3072 
Q 1681 3072 1420 2755 
Q 1159 2438 1159 1844 
L 1159 0 
L 581 0 
L 581 3500 
L 1159 3500 
L 1159 2956 
Q 1341 3275 1631 3429 
Q 1922 3584 2338 3584 
Q 2397 3584 2469 3576 
Q 2541 3569 2628 3553 
L 2631 2963 
z
" transform="scale(0.015625)"/>
      <path id="DejaVuSans-63" d="M 3122 3366 
L 3122 2828 
Q 2878 2963 2633 3030 
Q 2388 3097 2138 3097 
Q 1578 3097 1268 2742 
Q 959 2388 959 1747 
Q 959 1106 1268 751 
Q 1578 397 2138 397 
Q 2388 397 2633 464 
Q 2878 531 3122 666 
L 3122 134 
Q 2881 22 2623 -34 
Q 2366 -91 2075 -91 
Q 1284 -91 818 406 
Q 353 903 353 1747 
Q 353 2603 823 3093 
Q 1294 3584 2113 3584 
Q 2378 3584 2631 3529 
Q 2884 3475 3122 3366 
z
" transform="scale(0.015625)"/>
      <path id="DejaVuSans-65" d="M 3597 1894 
L 3597 1613 
L 953 1613 
Q 991 1019 1311 708 
Q 1631 397 2203 397 
Q 2534 397 2845 478 
Q 3156 559 3463 722 
L 3463 178 
Q 3153 47 2828 -22 
Q 2503 -91 2169 -91 
Q 1331 -91 842 396 
Q 353 884 353 1716 
Q 353 2575 817 3079 
Q 1281 3584 2069 3584 
Q 2775 3584 3186 3129 
Q 3597 2675 3597 1894 
z
M 3022 2063 
Q 3016 2534 2758 2815 
Q 2500 3097 2075 3097 
Q 1594 3097 1305 2825 
Q 1016 2553 972 2059 
L 3022 2063 
z
" transform="scale(0.015625)"/>
      <path id="DejaVuSans-2d" d="M 313 2009 
L 1997 2009 
L 1997 1497 
L 313 1497 
L 313 2009 
z
" transform="scale(0.015625)"/>
      <path id="DejaVuSans-69" d="M 603 3500 
L 1178 3500 
L 1178 0 
L 603 0 
L 603 3500 
z
M 603 4863 
L 1178 4863 
L 1178 4134 
L 603 4134 
L 603 4863 
z
" transform="scale(0.015625)"/>
      <path id="DejaVuSans-76" d="M 191 3500 
L 800 3500 
L 1894 563 
L 2988 3500 
L 3597 3500 
L 2284 0 
L 1503 0 
L 191 3500 
z
" transform="scale(0.015625)"/>
     </defs>
     <use xlink:href="#DejaVuSans-73"/>
     <use xlink:href="#DejaVuSans-6f" x="52.099609"/>
     <use xlink:href="#DejaVuSans-75" x="113.28125"/>
     <use xlink:href="#DejaVuSans-72" x="176.660156"/>
     <use xlink:href="#DejaVuSans-63" x="215.523438"/>
     <use xlink:href="#DejaVuSans-65" x="270.503906"/>
     <use xlink:href="#DejaVuSans-35" x="332.027344"/>
     <use xlink:href="#DejaVuSans-2d" x="395.650391"/>
     <use xlink:href="#DejaVuSans-72" x="431.734375"/>
     <use xlink:href="#DejaVuSans-65" x="470.597656"/>
     <use xlink:href="#DejaVuSans-63" x="532.121094"/>
     <use xlink:href="#DejaVuSans-65" x="587.101562"/>
     <use xlink:href="#DejaVuSans-69" x="648.625"/>
     <use xlink:href="#DejaVuSans-76" x="676.408203"/>
     <use xlink:href="#DejaVuSans-65" x="735.587891"/>
     <use xlink:href="#DejaVuSans-72" x="797.111328"/>
     <use xlink:href="#DejaVuSans-31" x="838.224609"/>
     <use xlink:href="#DejaVuSans-30" x="901.847656"/>
    </g>
   </g>
  </g>
 </g>
 <defs>
  <clipPath id="pe109e5e76a">
   <rect x="180" y="69.12" width="1116" height="443.52"/>
  </clipPath>
 </defs>
</svg>
