<?xml version="1.0" encoding="utf-8" standalone="no"?>
<!DOCTYPE svg PUBLIC "-//W3C//DTD SVG 1.1//EN"
  "http://www.w3.org/Graphics/SVG/1.1/DTD/svg11.dtd">
<svg xmlns:xlink="http://www.w3.org/1999/xlink" width="1440pt" height="576pt" viewBox="0 0 1440 576" xmlns="http://www.w3.org/2000/svg" version="1.1">
 <metadata>
  <rdf:RDF xmlns:dc="http://purl.org/dc/elements/1.1/" xmlns:cc="http://creativecommons.org/ns#" xmlns:rdf="http://www.w3.org/1999/02/22-rdf-syntax-ns#">
   <cc:Work>
    <dc:type rdf:resource="http://purl.org/dc/dcmitype/StillImage"/>
    <dc:date>2024-05-22T04:49:47.615141</dc:date>
    <dc:format>image/svg+xml</dc:format>
    <dc:creator>
     <cc:Agent>
      <dc:title>Matplotlib v3.8.3, https://matplotlib.org/</dc:title>
     </cc:Agent>
    </dc:creator>
   </cc:Work>
  </rdf:RDF>
 </metadata>
 <defs>
  <style type="text/css">*{stroke-linejoin: round; stroke-linecap: butt}</style>
 </defs>
 <g id="figure_1">
  <g id="patch_1">
   <path d="M 0 576 
L 1440 576 
L 1440 0 
L 0 0 
z
" style="fill: #ffffff"/>
  </g>
  <g id="axes_1">
   <g id="patch_2">
    <path d="M 180 512.64 
L 1296 512.64 
L 1296 69.12 
L 180 69.12 
z
" style="fill: #ffffff"/>
   </g>
   <g id="matplotlib.axis_1">
    <g id="xtick_1">
     <g id="line2d_1">
      <defs>
       <path id="m33effcb479" d="M 0 0 
L 0 3.5 
" style="stroke: #000000; stroke-width: 0.8"/>
      </defs>
      <g>
       <use xlink:href="#m33effcb479" x="229.734567" y="512.64" style="stroke: #000000; stroke-width: 0.8"/>
      </g>
     </g>
     <g id="text_1">
      <!-- 0 -->
      <g transform="translate(226.553317 527.238438) scale(0.1 -0.1)">
       <defs>
        <path id="DejaVuSans-30" d="M 2034 4250 
Q 1547 4250 1301 3770 
Q 1056 3291 1056 2328 
Q 1056 1369 1301 889 
Q 1547 409 2034 409 
Q 2525 409 2770 889 
Q 3016 1369 3016 2328 
Q 3016 3291 2770 3770 
Q 2525 4250 2034 4250 
z
M 2034 4750 
Q 2819 4750 3233 4129 
Q 3647 3509 3647 2328 
Q 3647 1150 3233 529 
Q 2819 -91 2034 -91 
Q 1250 -91 836 529 
Q 422 1150 422 2328 
Q 422 3509 836 4129 
Q 1250 4750 2034 4750 
z
" transform="scale(0.015625)"/>
       </defs>
       <use xlink:href="#DejaVuSans-30"/>
      </g>
     </g>
    </g>
    <g id="xtick_2">
     <g id="line2d_2">
      <g>
       <use xlink:href="#m33effcb479" x="433.04074" y="512.64" style="stroke: #000000; stroke-width: 0.8"/>
      </g>
     </g>
     <g id="text_2">
      <!-- 500 -->
      <g transform="translate(423.49699 527.238438) scale(0.1 -0.1)">
       <defs>
        <path id="DejaVuSans-35" d="M 691 4666 
L 3169 4666 
L 3169 4134 
L 1269 4134 
L 1269 2991 
Q 1406 3038 1543 3061 
Q 1681 3084 1819 3084 
Q 2600 3084 3056 2656 
Q 3513 2228 3513 1497 
Q 3513 744 3044 326 
Q 2575 -91 1722 -91 
Q 1428 -91 1123 -41 
Q 819 9 494 109 
L 494 744 
Q 775 591 1075 516 
Q 1375 441 1709 441 
Q 2250 441 2565 725 
Q 2881 1009 2881 1497 
Q 2881 1984 2565 2268 
Q 2250 2553 1709 2553 
Q 1456 2553 1204 2497 
Q 953 2441 691 2322 
L 691 4666 
z
" transform="scale(0.015625)"/>
       </defs>
       <use xlink:href="#DejaVuSans-35"/>
       <use xlink:href="#DejaVuSans-30" x="63.623047"/>
       <use xlink:href="#DejaVuSans-30" x="127.246094"/>
      </g>
     </g>
    </g>
    <g id="xtick_3">
     <g id="line2d_3">
      <g>
       <use xlink:href="#m33effcb479" x="636.346913" y="512.64" style="stroke: #000000; stroke-width: 0.8"/>
      </g>
     </g>
     <g id="text_3">
      <!-- 1000 -->
      <g transform="translate(623.621913 527.238438) scale(0.1 -0.1)">
       <defs>
        <path id="DejaVuSans-31" d="M 794 531 
L 1825 531 
L 1825 4091 
L 703 3866 
L 703 4441 
L 1819 4666 
L 2450 4666 
L 2450 531 
L 3481 531 
L 3481 0 
L 794 0 
L 794 531 
z
" transform="scale(0.015625)"/>
       </defs>
       <use xlink:href="#DejaVuSans-31"/>
       <use xlink:href="#DejaVuSans-30" x="63.623047"/>
       <use xlink:href="#DejaVuSans-30" x="127.246094"/>
       <use xlink:href="#DejaVuSans-30" x="190.869141"/>
      </g>
     </g>
    </g>
    <g id="xtick_4">
     <g id="line2d_4">
      <g>
       <use xlink:href="#m33effcb479" x="839.653087" y="512.64" style="stroke: #000000; stroke-width: 0.8"/>
      </g>
     </g>
     <g id="text_4">
      <!-- 1500 -->
      <g transform="translate(826.928087 527.238438) scale(0.1 -0.1)">
       <use xlink:href="#DejaVuSans-31"/>
       <use xlink:href="#DejaVuSans-35" x="63.623047"/>
       <use xlink:href="#DejaVuSans-30" x="127.246094"/>
       <use xlink:href="#DejaVuSans-30" x="190.869141"/>
      </g>
     </g>
    </g>
    <g id="xtick_5">
     <g id="line2d_5">
      <g>
       <use xlink:href="#m33effcb479" x="1042.95926" y="512.64" style="stroke: #000000; stroke-width: 0.8"/>
      </g>
     </g>
     <g id="text_5">
      <!-- 2000 -->
      <g transform="translate(1030.23426 527.238438) scale(0.1 -0.1)">
       <defs>
        <path id="DejaVuSans-32" d="M 1228 531 
L 3431 531 
L 3431 0 
L 469 0 
L 469 531 
Q 828 903 1448 1529 
Q 2069 2156 2228 2338 
Q 2531 2678 2651 2914 
Q 2772 3150 2772 3378 
Q 2772 3750 2511 3984 
Q 2250 4219 1831 4219 
Q 1534 4219 1204 4116 
Q 875 4013 500 3803 
L 500 4441 
Q 881 4594 1212 4672 
Q 1544 4750 1819 4750 
Q 2544 4750 2975 4387 
Q 3406 4025 3406 3419 
Q 3406 3131 3298 2873 
Q 3191 2616 2906 2266 
Q 2828 2175 2409 1742 
Q 1991 1309 1228 531 
z
" transform="scale(0.015625)"/>
       </defs>
       <use xlink:href="#DejaVuSans-32"/>
       <use xlink:href="#DejaVuSans-30" x="63.623047"/>
       <use xlink:href="#DejaVuSans-30" x="127.246094"/>
       <use xlink:href="#DejaVuSans-30" x="190.869141"/>
      </g>
     </g>
    </g>
    <g id="xtick_6">
     <g id="line2d_6">
      <g>
       <use xlink:href="#m33effcb479" x="1246.265433" y="512.64" style="stroke: #000000; stroke-width: 0.8"/>
      </g>
     </g>
     <g id="text_6">
      <!-- 2500 -->
      <g transform="translate(1233.540433 527.238438) scale(0.1 -0.1)">
       <use xlink:href="#DejaVuSans-32"/>
       <use xlink:href="#DejaVuSans-35" x="63.623047"/>
       <use xlink:href="#DejaVuSans-30" x="127.246094"/>
       <use xlink:href="#DejaVuSans-30" x="190.869141"/>
      </g>
     </g>
    </g>
   </g>
   <g id="matplotlib.axis_2">
    <g id="ytick_1">
     <g id="line2d_7">
      <defs>
       <path id="m77211d434c" d="M 0 0 
L -3.5 0 
" style="stroke: #000000; stroke-width: 0.8"/>
      </defs>
      <g>
       <use xlink:href="#m77211d434c" x="180" y="492.407522" style="stroke: #000000; stroke-width: 0.8"/>
      </g>
     </g>
     <g id="text_7">
      <!-- −2 -->
      <g transform="translate(158.257812 496.206741) scale(0.1 -0.1)">
       <defs>
        <path id="DejaVuSans-2212" d="M 678 2272 
L 4684 2272 
L 4684 1741 
L 678 1741 
L 678 2272 
z
" transform="scale(0.015625)"/>
       </defs>
       <use xlink:href="#DejaVuSans-2212"/>
       <use xlink:href="#DejaVuSans-32" x="83.789062"/>
      </g>
     </g>
    </g>
    <g id="ytick_2">
     <g id="line2d_8">
      <g>
       <use xlink:href="#m77211d434c" x="180" y="434.038823" style="stroke: #000000; stroke-width: 0.8"/>
      </g>
     </g>
     <g id="text_8">
      <!-- −1 -->
      <g transform="translate(158.257812 437.838042) scale(0.1 -0.1)">
       <use xlink:href="#DejaVuSans-2212"/>
       <use xlink:href="#DejaVuSans-31" x="83.789062"/>
      </g>
     </g>
    </g>
    <g id="ytick_3">
     <g id="line2d_9">
      <g>
       <use xlink:href="#m77211d434c" x="180" y="375.670124" style="stroke: #000000; stroke-width: 0.8"/>
      </g>
     </g>
     <g id="text_9">
      <!-- 0 -->
      <g transform="translate(166.6375 379.469343) scale(0.1 -0.1)">
       <use xlink:href="#DejaVuSans-30"/>
      </g>
     </g>
    </g>
    <g id="ytick_4">
     <g id="line2d_10">
      <g>
       <use xlink:href="#m77211d434c" x="180" y="317.301425" style="stroke: #000000; stroke-width: 0.8"/>
      </g>
     </g>
     <g id="text_10">
      <!-- 1 -->
      <g transform="translate(166.6375 321.100643) scale(0.1 -0.1)">
       <use xlink:href="#DejaVuSans-31"/>
      </g>
     </g>
    </g>
    <g id="ytick_5">
     <g id="line2d_11">
      <g>
       <use xlink:href="#m77211d434c" x="180" y="258.932725" style="stroke: #000000; stroke-width: 0.8"/>
      </g>
     </g>
     <g id="text_11">
      <!-- 2 -->
      <g transform="translate(166.6375 262.731944) scale(0.1 -0.1)">
       <use xlink:href="#DejaVuSans-32"/>
      </g>
     </g>
    </g>
    <g id="ytick_6">
     <g id="line2d_12">
      <g>
       <use xlink:href="#m77211d434c" x="180" y="200.564026" style="stroke: #000000; stroke-width: 0.8"/>
      </g>
     </g>
     <g id="text_12">
      <!-- 3 -->
      <g transform="translate(166.6375 204.363245) scale(0.1 -0.1)">
       <defs>
        <path id="DejaVuSans-33" d="M 2597 2516 
Q 3050 2419 3304 2112 
Q 3559 1806 3559 1356 
Q 3559 666 3084 287 
Q 2609 -91 1734 -91 
Q 1441 -91 1130 -33 
Q 819 25 488 141 
L 488 750 
Q 750 597 1062 519 
Q 1375 441 1716 441 
Q 2309 441 2620 675 
Q 2931 909 2931 1356 
Q 2931 1769 2642 2001 
Q 2353 2234 1838 2234 
L 1294 2234 
L 1294 2753 
L 1863 2753 
Q 2328 2753 2575 2939 
Q 2822 3125 2822 3475 
Q 2822 3834 2567 4026 
Q 2313 4219 1838 4219 
Q 1578 4219 1281 4162 
Q 984 4106 628 3988 
L 628 4550 
Q 988 4650 1302 4700 
Q 1616 4750 1894 4750 
Q 2613 4750 3031 4423 
Q 3450 4097 3450 3541 
Q 3450 3153 3228 2886 
Q 3006 2619 2597 2516 
z
" transform="scale(0.015625)"/>
       </defs>
       <use xlink:href="#DejaVuSans-33"/>
      </g>
     </g>
    </g>
    <g id="ytick_7">
     <g id="line2d_13">
      <g>
       <use xlink:href="#m77211d434c" x="180" y="142.195327" style="stroke: #000000; stroke-width: 0.8"/>
      </g>
     </g>
     <g id="text_13">
      <!-- 4 -->
      <g transform="translate(166.6375 145.994546) scale(0.1 -0.1)">
       <defs>
        <path id="DejaVuSans-34" d="M 2419 4116 
L 825 1625 
L 2419 1625 
L 2419 4116 
z
M 2253 4666 
L 3047 4666 
L 3047 1625 
L 3713 1625 
L 3713 1100 
L 3047 1100 
L 3047 0 
L 2419 0 
L 2419 1100 
L 313 1100 
L 313 1709 
L 2253 4666 
z
" transform="scale(0.015625)"/>
       </defs>
       <use xlink:href="#DejaVuSans-34"/>
      </g>
     </g>
    </g>
    <g id="ytick_8">
     <g id="line2d_14">
      <g>
       <use xlink:href="#m77211d434c" x="180" y="83.826628" style="stroke: #000000; stroke-width: 0.8"/>
      </g>
     </g>
     <g id="text_14">
      <!-- 5 -->
      <g transform="translate(166.6375 87.625846) scale(0.1 -0.1)">
       <use xlink:href="#DejaVuSans-35"/>
      </g>
     </g>
    </g>
   </g>
   <g id="line2d_15">
    <path d="M 230.727273 362.878235 
L 231.719979 362.750036 
L 235.690802 361.341348 
L 238.66892 359.509207 
L 240.654332 357.846769 
L 243.63245 355.082444 
L 244.625156 353.343124 
L 245.617862 350.212475 
L 246.610568 350.715757 
L 247.603273 366.97616 
L 248.595979 356.426601 
L 249.588685 300.670055 
L 250.581391 268.584472 
L 251.574097 256.026552 
L 252.566803 264.323496 
L 253.559509 295.929814 
L 254.552215 283.460448 
L 255.544921 257.588791 
L 256.537627 259.753332 
L 257.530333 290.841926 
L 258.523039 352.302831 
L 259.515745 367.169113 
L 260.50845 331.111033 
L 261.501156 280.093054 
L 262.493862 272.666847 
L 263.486568 254.099533 
L 264.479274 218.027575 
L 265.47198 201.921656 
L 266.464686 205.618433 
L 267.457392 213.323657 
L 268.450098 206.256787 
L 269.442804 207.039254 
L 270.43551 225.844751 
L 271.428216 238.890615 
L 272.420922 247.808243 
L 273.413627 302.192831 
L 274.406333 251.910956 
L 275.399039 250.682776 
L 276.391745 302.731159 
L 277.384451 194.312486 
L 278.377157 166.095671 
L 279.369863 161.449589 
L 280.362569 147.517649 
L 281.355275 116.944039 
L 282.347981 96.408857 
L 283.340687 89.28 
L 284.333393 93.200534 
L 285.326099 100.456123 
L 286.318804 100.071156 
L 287.31151 99.986436 
L 288.304216 113.694072 
L 289.296922 148.915191 
L 290.289628 162.909474 
L 291.282334 146.637264 
L 292.27504 159.923932 
L 293.267746 222.168459 
L 294.260452 220.896037 
L 295.253158 202.197516 
L 296.245864 241.390453 
L 297.23857 259.456528 
L 298.231276 237.501057 
L 299.223981 287.945162 
L 300.216687 269.451693 
L 301.209393 239.14392 
L 302.202099 265.587004 
L 303.194805 323.151475 
L 304.187511 277.517506 
L 305.180217 301.579993 
L 306.172923 347.299783 
L 307.165629 287.34367 
L 308.158335 299.021461 
L 309.151041 362.800448 
L 310.143747 320.026066 
L 311.136453 318.821081 
L 312.129159 343.742872 
L 313.121864 333.625929 
L 314.11457 333.64853 
L 315.107276 340.008557 
L 316.099982 338.615438 
L 317.092688 343.556392 
L 318.085394 343.548422 
L 319.0781 342.732943 
L 320.070806 347.297791 
L 321.063512 344.657278 
L 322.056218 348.404384 
L 323.048924 350.932059 
L 324.04163 349.540028 
L 325.034336 354.782447 
L 326.027041 352.98742 
L 327.019747 351.804918 
L 328.012453 357.492714 
L 329.005159 356.549804 
L 329.997865 357.044349 
L 330.990571 360.056601 
L 331.983277 362.07034 
L 332.975983 361.171889 
L 333.968689 361.955533 
L 334.961395 366.337527 
L 335.954101 368.222315 
L 336.946807 365.309891 
L 337.939513 364.673881 
L 338.932218 369.96228 
L 339.924924 372.85813 
L 340.91763 364.655714 
L 341.910336 368.179462 
L 342.903042 376.496841 
L 343.895748 373.994588 
L 344.888454 369.651548 
L 345.88116 373.33595 
L 346.873866 373.371932 
L 347.866572 378.884642 
L 348.859278 378.082962 
L 349.851984 379.718341 
L 350.84469 376.512432 
L 351.837395 377.780406 
L 352.830101 378.352359 
L 353.822807 381.829368 
L 354.815513 380.050544 
L 355.808219 384.146916 
L 356.800925 380.902914 
L 357.793631 382.424417 
L 358.786337 383.648545 
L 359.779043 383.223085 
L 360.771749 385.307448 
L 361.764455 382.235757 
L 362.757161 382.509502 
L 363.749867 386.702541 
L 364.742572 398.551981 
L 365.735278 386.737084 
L 366.727984 387.854301 
L 367.72069 389.723678 
L 368.713396 385.3284 
L 369.706102 390.76827 
L 370.698808 386.613141 
L 371.691514 392.74053 
L 372.68422 400.635104 
L 373.676926 390.400887 
L 374.669632 376.087721 
L 375.662338 393.769115 
L 376.655044 419.408239 
L 377.64775 405.28139 
L 379.633161 391.396645 
L 381.618573 399.047825 
L 382.611279 395.240449 
L 384.596691 397.748246 
L 385.589397 393.669487 
L 386.582103 399.826213 
L 387.574809 406.931256 
L 388.567515 394.994241 
L 389.560221 390.04801 
L 390.552927 411.730866 
L 391.545632 415.634645 
L 392.538338 402.50338 
L 393.531044 401.009593 
L 394.52375 400.391152 
L 395.516456 396.551068 
L 396.509162 403.902678 
L 397.501868 401.711404 
L 398.494574 402.380848 
L 399.48728 412.612325 
L 400.479986 409.061714 
L 401.472692 401.702113 
L 402.465398 398.897244 
L 403.458104 414.706545 
L 404.450809 412.909471 
L 405.443515 408.848741 
L 406.436221 409.058518 
L 407.428927 408.652686 
L 408.421633 411.201761 
L 409.414339 406.586844 
L 410.407045 419.288811 
L 411.399751 404.978594 
L 412.392457 401.287828 
L 413.385163 406.366524 
L 414.377869 419.525046 
L 415.370575 416.276576 
L 416.363281 397.246015 
L 417.355986 399.318981 
L 418.348692 424.956424 
L 419.341398 427.00376 
L 420.334104 414.298103 
L 421.32681 416.650566 
L 422.319516 403.796381 
L 423.312222 419.185651 
L 424.304928 417.654252 
L 425.297634 403.470517 
L 426.29034 410.096446 
L 427.283046 430.228431 
L 428.275752 404.436884 
L 429.268458 401.502531 
L 430.261163 429.533342 
L 431.253869 447.899213 
L 432.246575 423.898776 
L 433.239281 414.963849 
L 434.231987 418.643022 
L 435.224693 417.276355 
L 436.217399 418.059708 
L 437.210105 413.767299 
L 438.202811 420.565188 
L 439.195517 416.10053 
L 440.188223 415.718913 
L 441.180929 424.997726 
L 442.173635 415.472885 
L 443.166341 410.737767 
L 444.159046 422.722582 
L 445.151752 431.576881 
L 446.144458 424.544833 
L 447.137164 422.888172 
L 448.12987 422.74065 
L 449.122576 421.685961 
L 450.115282 426.96905 
L 451.107988 419.340023 
L 452.100694 428.124889 
L 453.0934 419.730921 
L 454.086106 423.39993 
L 455.078812 425.744011 
L 456.071518 419.686178 
L 457.064223 424.203938 
L 458.056929 434.237354 
L 459.049635 428.395755 
L 460.042341 424.624654 
L 461.035047 422.029768 
L 462.027753 429.71368 
L 463.020459 424.122014 
L 464.013165 426.822926 
L 465.005871 420.8858 
L 465.998577 425.925571 
L 466.991283 424.827674 
L 467.983989 432.55923 
L 468.976695 428.180819 
L 469.9694 426.394807 
L 470.962106 423.687913 
L 471.954812 431.832139 
L 472.947518 435.45209 
L 473.940224 432.421347 
L 474.93293 434.584259 
L 475.925636 425.165941 
L 476.918342 429.250588 
L 477.911048 429.968882 
L 478.903754 426.104704 
L 479.89646 436.606018 
L 480.889166 436.763129 
L 481.881872 431.200049 
L 482.874577 424.720552 
L 483.867283 437.694652 
L 484.859989 440.530005 
L 485.852695 433.743005 
L 486.845401 430.362184 
L 487.838107 432.45238 
L 488.830813 430.283288 
L 489.823519 435.018373 
L 490.816225 436.548406 
L 491.808931 440.035798 
L 492.801637 435.567144 
L 493.794343 424.143891 
L 494.787049 434.867456 
L 496.77246 431.373563 
L 497.765166 434.064531 
L 498.757872 435.650521 
L 499.750578 447.331913 
L 500.743284 440.318346 
L 501.73599 444.149342 
L 502.728696 434.791867 
L 503.721402 431.367484 
L 504.714108 442.619626 
L 505.706814 427.296839 
L 506.69952 435.823682 
L 507.692226 439.36014 
L 508.684932 439.855041 
L 509.677637 426.093691 
L 510.670343 428.673009 
L 511.663049 442.273242 
L 512.655755 457.859613 
L 513.648461 443.57107 
L 514.641167 434.676975 
L 515.633873 437.106605 
L 516.626579 438.750517 
L 517.619285 434.598804 
L 518.611991 432.995063 
L 519.604697 435.206551 
L 520.597403 432.752791 
L 521.590109 429.145722 
L 522.582814 441.725051 
L 523.57552 442.983768 
L 524.568226 443.437925 
L 525.560932 439.672258 
L 526.553638 443.145999 
L 527.546344 449.371945 
L 528.53905 449.12681 
L 529.531756 440.511188 
L 530.524462 439.201333 
L 531.517168 454.629194 
L 532.509874 445.473975 
L 533.50258 426.284299 
L 534.495286 442.304005 
L 535.487991 461.956917 
L 536.480697 443.974651 
L 537.473403 421.228073 
L 538.466109 425.585773 
L 539.458815 445.679323 
L 540.451521 463.324558 
L 541.444227 469.231298 
L 542.436933 439.816691 
L 543.429639 436.991396 
L 544.422345 448.985025 
L 545.415051 444.833617 
L 546.407757 464.166043 
L 547.400463 455.041339 
L 548.393168 436.507007 
L 549.385874 441.436182 
L 550.37858 458.170034 
L 551.371286 435.548491 
L 552.363992 443.550285 
L 553.356698 460.305625 
L 554.349404 450.775033 
L 555.34211 455.042431 
L 556.334816 452.520832 
L 557.327522 443.647131 
L 558.320228 454.700677 
L 559.312934 453.279208 
L 560.30564 440.177755 
L 561.298345 434.616474 
L 562.291051 467.808787 
L 563.283757 450.327497 
L 564.276463 436.063119 
L 565.269169 438.942641 
L 566.261875 447.279645 
L 567.254581 457.810246 
L 568.247287 460.840022 
L 569.239993 459.6177 
L 570.232699 444.441794 
L 571.225405 453.221135 
L 572.218111 458.770775 
L 573.210817 449.236926 
L 574.203523 455.545331 
L 575.196228 451.17093 
L 576.188934 447.41617 
L 577.18164 451.816273 
L 578.174346 452.544101 
L 579.167052 458.143162 
L 580.159758 449.068033 
L 582.14517 456.882539 
L 583.137876 446.971445 
L 584.130582 455.636582 
L 586.115994 463.328002 
L 587.1087 446.085472 
L 588.101405 447.545722 
L 589.094111 448.58145 
L 590.086817 461.12201 
L 591.079523 452.080052 
L 592.072229 445.792734 
L 593.064935 452.521517 
L 594.057641 462.133931 
L 595.050347 457.458805 
L 596.043053 454.553053 
L 597.035759 450.595357 
L 598.028465 451.731566 
L 599.021171 453.626282 
L 600.013877 448.694649 
L 601.006582 453.07319 
L 601.999288 460.415319 
L 602.991994 454.966872 
L 603.9847 451.193283 
L 604.977406 456.623319 
L 605.970112 453.186372 
L 606.962818 458.278931 
L 607.955524 461.225667 
L 608.94823 461.792828 
L 609.940936 452.305773 
L 610.933642 458.382557 
L 611.926348 458.318005 
L 612.919054 456.769232 
L 613.911759 464.666592 
L 614.904465 457.464814 
L 615.897171 454.86517 
L 616.889877 461.564581 
L 617.882583 455.703397 
L 618.875289 454.198173 
L 619.867995 457.51338 
L 620.860701 460.17921 
L 621.853407 458.342388 
L 622.846113 461.734902 
L 623.838819 459.461666 
L 624.831525 458.90657 
L 625.824231 460.930784 
L 626.816936 457.220975 
L 628.802348 461.039749 
L 629.795054 456.777383 
L 630.78776 459.928043 
L 631.780466 459.517462 
L 632.773172 464.380378 
L 633.765878 459.085641 
L 634.758584 458.648306 
L 635.75129 460.319496 
L 636.743996 458.841199 
L 637.736702 459.305592 
L 638.729408 461.835554 
L 639.722114 462.382677 
L 640.714819 460.597919 
L 641.707525 462.82879 
L 642.700231 460.241396 
L 643.692937 459.204598 
L 644.685643 464.441179 
L 645.678349 459.304156 
L 646.671055 461.952876 
L 647.663761 461.949335 
L 648.656467 460.509651 
L 649.649173 463.593744 
L 650.641879 462.067689 
L 651.634585 461.190584 
L 652.627291 461.645869 
L 653.619996 465.29061 
L 654.612702 463.252004 
L 655.605408 460.139825 
L 656.598114 461.16597 
L 657.59082 462.470591 
L 658.583526 461.872129 
L 659.576232 464.01947 
L 660.568938 464.645011 
L 661.561644 460.408716 
L 662.55435 462.555951 
L 663.547056 462.387864 
L 664.539762 463.21608 
L 665.532468 462.436489 
L 666.525173 462.251933 
L 667.517879 464.637587 
L 668.510585 464.136556 
L 669.503291 464.052023 
L 670.495997 464.214357 
L 671.488703 464.585344 
L 672.481409 466.036761 
L 673.474115 464.117394 
L 674.466821 464.609329 
L 675.459527 463.875824 
L 676.452233 464.672683 
L 677.444939 464.401287 
L 678.437645 465.111016 
L 679.43035 463.848844 
L 680.423056 464.26965 
L 681.415762 464.81273 
L 682.408468 464.194642 
L 683.401174 466.285689 
L 684.39388 465.025467 
L 685.386586 464.83505 
L 686.379292 465.476655 
L 687.371998 465.826756 
L 688.364704 466.341699 
L 689.35741 466.257586 
L 690.350116 466.370963 
L 691.342822 466.16514 
L 692.335527 466.822113 
L 693.328233 467.003223 
L 694.320939 467.309876 
L 695.313645 466.721522 
L 696.306351 466.279233 
L 697.299057 467.237728 
L 698.291763 467.604923 
L 699.284469 467.437926 
L 700.277175 467.022819 
L 701.269881 467.668466 
L 702.262587 467.43271 
L 703.255293 467.82688 
L 704.247999 467.457654 
L 705.240705 467.513129 
L 706.23341 468.073765 
L 707.226116 468.494515 
L 708.218822 468.754511 
L 709.211528 468.076263 
L 711.19694 468.304998 
L 712.189646 469.121124 
L 713.182352 469.096024 
L 714.175058 468.125536 
L 715.167764 468.350137 
L 716.16047 469.20572 
L 718.145882 469.551175 
L 719.138587 469.143266 
L 721.123999 469.027111 
L 722.116705 469.339075 
L 723.109411 469.455852 
L 724.102117 469.278464 
L 725.094823 470.022475 
L 726.087529 469.942653 
L 727.080235 469.548647 
L 728.072941 469.966352 
L 729.065647 470.199349 
L 731.051059 470.06687 
L 732.043764 470.834918 
L 734.029176 470.968392 
L 735.021882 470.759531 
L 736.014588 471.111003 
L 737.007294 470.942033 
L 738.992706 471.498586 
L 739.985412 471.218027 
L 740.978118 471.145474 
L 741.970824 470.735177 
L 742.96353 471.59972 
L 743.956236 471.902252 
L 744.948941 471.987037 
L 745.941647 471.552479 
L 747.927059 472.334559 
L 748.919765 472.299961 
L 749.912471 472.49975 
L 750.905177 472.223771 
L 751.897883 472.244179 
L 752.890589 472.85806 
L 753.883295 472.875885 
L 754.876001 472.666278 
L 755.868707 472.861079 
L 756.861413 472.595637 
L 757.854118 472.666688 
L 759.83953 473.360269 
L 760.832236 473.043725 
L 761.824942 473.408196 
L 762.817648 473.564301 
L 763.810354 473.364937 
L 764.80306 473.777199 
L 767.781178 473.790292 
L 768.773884 473.974737 
L 769.76659 473.637788 
L 770.759295 473.968063 
L 771.752001 474.04647 
L 773.737413 473.849386 
L 774.730119 474.589583 
L 775.722825 474.647664 
L 776.715531 474.426853 
L 777.708237 473.948637 
L 778.700943 474.824815 
L 779.693649 475.41601 
L 780.686355 474.794862 
L 781.679061 475.041515 
L 782.671767 474.902315 
L 783.664473 474.261521 
L 784.657178 475.131829 
L 786.64259 475.455691 
L 787.635296 475.434644 
L 788.628002 476.083391 
L 789.620708 475.543145 
L 790.613414 475.496934 
L 792.598826 475.758376 
L 794.584238 476.576043 
L 795.576944 475.831145 
L 796.56965 476.150133 
L 797.562355 476.116246 
L 798.555061 476.686637 
L 799.547767 476.34767 
L 800.540473 476.5815 
L 801.533179 476.421149 
L 802.525885 476.827184 
L 803.518591 476.538605 
L 804.511297 476.721057 
L 805.504003 476.7081 
L 807.489415 477.054768 
L 808.482121 477.511783 
L 810.467532 477.301595 
L 811.460238 477.24142 
L 812.452944 477.533905 
L 813.44565 477.470349 
L 814.438356 477.763507 
L 815.431062 477.480103 
L 816.423768 477.821078 
L 817.416474 477.577709 
L 819.401886 477.783843 
L 820.394592 478.231163 
L 821.387298 477.548354 
L 822.380004 477.344158 
L 824.365415 477.89358 
L 825.358121 478.057293 
L 827.343533 477.909577 
L 829.328945 478.708146 
L 830.321651 478.770658 
L 831.314357 478.31131 
L 832.307063 478.740909 
L 833.299769 478.911135 
L 834.292475 479.307266 
L 835.285181 478.45622 
L 839.256004 479.270433 
L 840.24871 479.202741 
L 841.241416 479.571162 
L 842.234122 479.521492 
L 843.226828 479.69367 
L 844.219534 479.575768 
L 845.21224 479.342282 
L 846.204946 479.652771 
L 847.197652 479.845794 
L 848.190358 480.336183 
L 849.183064 479.525122 
L 850.175769 479.698633 
L 851.168475 479.349633 
L 852.161181 480.589807 
L 853.153887 480.388956 
L 854.146593 480.31905 
L 855.139299 479.894672 
L 856.132005 480.285844 
L 857.124711 480.804201 
L 858.117417 480.397622 
L 859.110123 480.550325 
L 860.102829 480.484804 
L 861.095535 481.009583 
L 862.088241 480.295417 
L 863.080946 480.677083 
L 865.066358 480.651575 
L 866.059064 481.165102 
L 867.05177 480.972175 
L 869.037182 481.055068 
L 870.029888 481.815969 
L 871.022594 481.361273 
L 873.008006 480.964949 
L 874.000712 481.552803 
L 874.993418 481.433949 
L 875.986123 481.452273 
L 876.978829 481.615983 
L 877.971535 480.964002 
L 878.964241 481.702554 
L 881.942359 481.71325 
L 882.935065 482.088723 
L 883.927771 482.130443 
L 885.913183 481.711399 
L 886.905889 481.833241 
L 887.898595 482.576992 
L 888.8913 482.68495 
L 889.884006 482.579183 
L 890.876712 482.039084 
L 891.869418 482.431146 
L 892.862124 482.54812 
L 893.85483 482.779235 
L 894.847536 482.502069 
L 895.840242 482.840018 
L 897.825654 483.22202 
L 898.81836 482.424566 
L 899.811066 482.46838 
L 900.803772 482.988509 
L 901.796477 482.800216 
L 902.789183 482.959268 
L 904.774595 483.732334 
L 905.767301 483.378068 
L 906.760007 483.169479 
L 907.752713 483.384398 
L 908.745419 482.937602 
L 909.738125 482.992383 
L 910.730831 483.848704 
L 911.723537 483.628082 
L 912.716243 483.563052 
L 913.708949 483.844538 
L 914.701655 483.782566 
L 915.69436 483.504234 
L 916.687066 483.887706 
L 917.679772 483.735336 
L 918.672478 483.796772 
L 919.665184 483.995894 
L 920.65789 484.026806 
L 922.643302 484.348823 
L 923.636008 484.377942 
L 924.628714 484.068596 
L 925.62142 484.673613 
L 926.614126 484.74582 
L 927.606832 484.414304 
L 928.599537 484.774168 
L 929.592243 484.460447 
L 930.584949 484.58466 
L 931.577655 484.348637 
L 932.570361 484.980295 
L 933.563067 484.819033 
L 934.555773 484.335028 
L 937.533891 485.058382 
L 938.526597 485.141707 
L 939.519303 484.801321 
L 940.512009 485.47097 
L 941.504714 485.219779 
L 942.49742 485.187542 
L 943.490126 484.965042 
L 944.482832 484.974545 
L 945.475538 485.462787 
L 946.468244 485.281744 
L 947.46095 485.284839 
L 948.453656 485.485358 
L 949.446362 485.315915 
L 950.439068 485.655426 
L 951.431774 485.300919 
L 952.42448 485.32711 
L 953.417186 485.723767 
L 954.409891 485.71465 
L 955.402597 486.040563 
L 956.395303 485.470945 
L 957.388009 486.038805 
L 958.380715 485.603443 
L 959.373421 486.059617 
L 960.366127 485.488877 
L 961.358833 486.017504 
L 962.351539 485.545422 
L 964.336951 485.450664 
L 965.329657 486.358734 
L 966.322363 486.397723 
L 967.315068 486.271597 
L 968.307774 486.701999 
L 969.30048 486.750288 
L 970.293186 486.966387 
L 971.285892 486.378402 
L 972.278598 486.159259 
L 973.271304 486.494944 
L 974.26401 486.140778 
L 975.256716 486.398207 
L 976.249422 486.98134 
L 977.242128 486.508939 
L 978.234834 486.36199 
L 979.22754 486.634775 
L 980.220246 486.67464 
L 981.212951 486.943589 
L 982.205657 486.751463 
L 983.198363 486.757079 
L 984.191069 486.361988 
L 985.183775 487.056984 
L 986.176481 486.447672 
L 987.169187 487.156724 
L 989.154599 487.018475 
L 990.147305 486.638594 
L 991.140011 487.325764 
L 992.132717 487.379911 
L 993.125423 486.903782 
L 994.118128 486.871015 
L 995.110834 486.997224 
L 996.10354 487.36076 
L 997.096246 487.361825 
L 998.088952 487.16651 
L 999.081658 487.561944 
L 1001.06707 487.380439 
L 1002.059776 487.086327 
L 1003.052482 487.399419 
L 1005.037894 487.665139 
L 1006.0306 487.396305 
L 1007.023305 487.883061 
L 1009.008717 487.773191 
L 1010.001423 487.369726 
L 1010.994129 487.724416 
L 1011.986835 487.46752 
L 1012.979541 487.970719 
L 1013.972247 487.925615 
L 1014.964953 487.566187 
L 1015.957659 488.025738 
L 1016.950365 487.654253 
L 1017.943071 487.725323 
L 1018.935777 488.009867 
L 1019.928482 487.846583 
L 1020.921188 488.079116 
L 1021.913894 487.817436 
L 1022.9066 488.544308 
L 1024.892012 488.374424 
L 1026.877424 488.995103 
L 1027.87013 488.696579 
L 1029.855542 488.422274 
L 1030.848248 488.255313 
L 1031.840954 488.497974 
L 1032.833659 489.189971 
L 1034.819071 487.899545 
L 1035.811777 488.603074 
L 1036.804483 488.997106 
L 1037.797189 489.066184 
L 1038.789895 488.481129 
L 1039.782601 488.563429 
L 1040.775307 489.197405 
L 1041.768013 488.545657 
L 1042.760719 488.926969 
L 1043.753425 488.607697 
L 1044.746131 488.717231 
L 1045.738837 488.513716 
L 1046.731542 488.58796 
L 1047.724248 488.981395 
L 1049.70966 488.969113 
L 1050.702366 488.76269 
L 1051.695072 489.274005 
L 1052.687778 489.023034 
L 1053.680484 489.255035 
L 1054.67319 489.166124 
L 1055.665896 489.619111 
L 1056.658602 489.375237 
L 1057.651308 489.407712 
L 1058.644014 489.00369 
L 1059.636719 489.546032 
L 1060.629425 489.153613 
L 1061.622131 489.437478 
L 1062.614837 489.887326 
L 1063.607543 489.817719 
L 1064.600249 489.128427 
L 1065.592955 489.550009 
L 1066.585661 489.307834 
L 1067.578367 489.62977 
L 1068.571073 489.31861 
L 1069.563779 489.558255 
L 1070.556485 489.161859 
L 1071.549191 489.718911 
L 1072.541896 489.450019 
L 1073.534602 489.976915 
L 1074.527308 489.303265 
L 1075.520014 489.763222 
L 1076.51272 489.88979 
L 1077.505426 490.794118 
L 1078.498132 489.792418 
L 1079.490838 489.392409 
L 1080.483544 489.386286 
L 1081.47625 490.620825 
L 1082.468956 489.711676 
L 1083.461662 489.413916 
L 1084.454368 490.262368 
L 1085.447073 490.409941 
L 1086.439779 489.955917 
L 1092.396015 490.133135 
L 1093.388721 490.696725 
L 1095.374133 490.09798 
L 1096.366839 490.159533 
L 1097.359545 490.715219 
L 1098.35225 490.598974 
L 1099.344956 490.221644 
L 1100.337662 490.324365 
L 1101.330368 490.04386 
L 1102.323074 490.050611 
L 1103.31578 490.911154 
L 1104.308486 491.162702 
L 1105.301192 490.075161 
L 1106.293898 490.19029 
L 1107.286604 490.577684 
L 1108.27931 490.254382 
L 1109.272016 490.629964 
L 1110.264722 490.660499 
L 1111.257428 490.420931 
L 1112.250133 490.723831 
L 1113.242839 490.370454 
L 1114.235545 490.993245 
L 1115.228251 491.002428 
L 1117.213663 490.761465 
L 1118.206369 490.796232 
L 1119.199075 490.501717 
L 1120.191781 490.459204 
L 1121.184487 491.101375 
L 1122.177193 490.654001 
L 1125.15531 490.610786 
L 1126.148016 491.064282 
L 1127.140722 490.832287 
L 1128.133428 490.897153 
L 1129.126134 491.50768 
L 1130.11884 491.472827 
L 1131.111546 490.746045 
L 1132.104252 490.324336 
L 1133.096958 490.607566 
L 1134.089664 490.683627 
L 1135.08237 491.440251 
L 1136.075076 491.387094 
L 1137.067782 490.62472 
L 1139.053193 490.685319 
L 1140.045899 490.939531 
L 1141.038605 491.353881 
L 1142.031311 491.291902 
L 1143.024017 491.113739 
L 1144.016723 490.735382 
L 1145.009429 490.931601 
L 1146.002135 491.458848 
L 1146.994841 491.629236 
L 1147.987547 491.076615 
L 1148.980253 490.991562 
L 1150.965664 491.184647 
L 1152.951076 490.737676 
L 1153.943782 491.307131 
L 1154.936488 491.305598 
L 1155.929194 492.144731 
L 1156.9219 490.656993 
L 1158.907312 491.363358 
L 1159.900018 491.764957 
L 1160.892724 490.932112 
L 1161.88543 490.990249 
L 1162.878136 491.422567 
L 1163.870841 490.857764 
L 1164.863547 490.84609 
L 1165.856253 491.288859 
L 1166.848959 491.56567 
L 1168.834371 490.590623 
L 1169.827077 491.894551 
L 1170.819783 491.656695 
L 1171.812489 491.544489 
L 1172.805195 491.846354 
L 1173.797901 491.993008 
L 1174.790607 491.486574 
L 1175.783313 491.3322 
L 1176.776019 491.386594 
L 1177.768724 491.786453 
L 1178.76143 491.317803 
L 1179.754136 491.186741 
L 1180.746842 491.457957 
L 1181.739548 491.555185 
L 1182.732254 492.407613 
L 1183.72496 491.381454 
L 1184.717666 491.241172 
L 1185.710372 491.622605 
L 1186.703078 491.544434 
L 1187.695784 491.651176 
L 1188.68849 491.359958 
L 1189.681196 491.858653 
L 1190.673901 491.678011 
L 1191.666607 491.860473 
L 1192.659313 490.877257 
L 1193.652019 491.152708 
L 1194.644725 492.100555 
L 1195.637431 491.508634 
L 1197.622843 491.778518 
L 1198.615549 491.34531 
L 1199.608255 491.586885 
L 1201.593667 491.700947 
L 1202.586373 491.92577 
L 1203.579078 491.34319 
L 1204.571784 491.825083 
L 1205.56449 492.072214 
L 1206.557196 491.835261 
L 1207.549902 491.834809 
L 1208.542608 491.372756 
L 1209.535314 491.919138 
L 1210.52802 492.070141 
L 1211.520726 491.798903 
L 1212.513432 492.138445 
L 1213.506138 491.689556 
L 1215.49155 491.705676 
L 1216.484255 492.303416 
L 1217.476961 491.857003 
L 1218.469667 491.999244 
L 1219.462373 491.978862 
L 1220.455079 491.185593 
L 1221.447785 492.301068 
L 1222.440491 491.412171 
L 1223.433197 491.80427 
L 1224.425903 491.569368 
L 1225.418609 492.042958 
L 1226.411315 491.969508 
L 1228.396727 491.578059 
L 1229.389432 491.966226 
L 1230.382138 491.359142 
L 1231.374844 491.911147 
L 1232.36755 491.889985 
L 1234.352962 491.511961 
L 1236.338374 492.48 
L 1237.33108 492.191103 
L 1238.323786 491.432012 
L 1239.316492 491.571308 
L 1240.309198 492.149498 
L 1241.301904 492.308718 
L 1242.29461 491.868501 
L 1243.287315 491.567831 
L 1244.280021 492.215899 
L 1245.272727 492.093038 
L 1245.272727 492.093038 
" clip-path="url(#p2a5ba01dea)" style="fill: none; stroke: #1f77b4; stroke-width: 1.5; stroke-linecap: square"/>
   </g>
   <g id="patch_3">
    <path d="M 180 512.64 
L 180 69.12 
" style="fill: none; stroke: #000000; stroke-width: 0.8; stroke-linejoin: miter; stroke-linecap: square"/>
   </g>
   <g id="patch_4">
    <path d="M 1296 512.64 
L 1296 69.12 
" style="fill: none; stroke: #000000; stroke-width: 0.8; stroke-linejoin: miter; stroke-linecap: square"/>
   </g>
   <g id="patch_5">
    <path d="M 180 512.64 
L 1296 512.64 
" style="fill: none; stroke: #000000; stroke-width: 0.8; stroke-linejoin: miter; stroke-linecap: square"/>
   </g>
   <g id="patch_6">
    <path d="M 180 69.12 
L 1296 69.12 
" style="fill: none; stroke: #000000; stroke-width: 0.8; stroke-linejoin: miter; stroke-linecap: square"/>
   </g>
   <g id="text_15">
    <!-- source5-receiver12 -->
    <g transform="translate(544.9 60.80125) scale(0.4 -0.4)">
     <defs>
      <path id="DejaVuSans-73" d="M 2834 3397 
L 2834 2853 
Q 2591 2978 2328 3040 
Q 2066 3103 1784 3103 
Q 1356 3103 1142 2972 
Q 928 2841 928 2578 
Q 928 2378 1081 2264 
Q 1234 2150 1697 2047 
L 1894 2003 
Q 2506 1872 2764 1633 
Q 3022 1394 3022 966 
Q 3022 478 2636 193 
Q 2250 -91 1575 -91 
Q 1294 -91 989 -36 
Q 684 19 347 128 
L 347 722 
Q 666 556 975 473 
Q 1284 391 1588 391 
Q 1994 391 2212 530 
Q 2431 669 2431 922 
Q 2431 1156 2273 1281 
Q 2116 1406 1581 1522 
L 1381 1569 
Q 847 1681 609 1914 
Q 372 2147 372 2553 
Q 372 3047 722 3315 
Q 1072 3584 1716 3584 
Q 2034 3584 2315 3537 
Q 2597 3491 2834 3397 
z
" transform="scale(0.015625)"/>
      <path id="DejaVuSans-6f" d="M 1959 3097 
Q 1497 3097 1228 2736 
Q 959 2375 959 1747 
Q 959 1119 1226 758 
Q 1494 397 1959 397 
Q 2419 397 2687 759 
Q 2956 1122 2956 1747 
Q 2956 2369 2687 2733 
Q 2419 3097 1959 3097 
z
M 1959 3584 
Q 2709 3584 3137 3096 
Q 3566 2609 3566 1747 
Q 3566 888 3137 398 
Q 2709 -91 1959 -91 
Q 1206 -91 779 398 
Q 353 888 353 1747 
Q 353 2609 779 3096 
Q 1206 3584 1959 3584 
z
" transform="scale(0.015625)"/>
      <path id="DejaVuSans-75" d="M 544 1381 
L 544 3500 
L 1119 3500 
L 1119 1403 
Q 1119 906 1312 657 
Q 1506 409 1894 409 
Q 2359 409 2629 706 
Q 2900 1003 2900 1516 
L 2900 3500 
L 3475 3500 
L 3475 0 
L 2900 0 
L 2900 538 
Q 2691 219 2414 64 
Q 2138 -91 1772 -91 
Q 1169 -91 856 284 
Q 544 659 544 1381 
z
M 1991 3584 
L 1991 3584 
z
" transform="scale(0.015625)"/>
      <path id="DejaVuSans-72" d="M 2631 2963 
Q 2534 3019 2420 3045 
Q 2306 3072 2169 3072 
Q 1681 3072 1420 2755 
Q 1159 2438 1159 1844 
L 1159 0 
L 581 0 
L 581 3500 
L 1159 3500 
L 1159 2956 
Q 1341 3275 1631 3429 
Q 1922 3584 2338 3584 
Q 2397 3584 2469 3576 
Q 2541 3569 2628 3553 
L 2631 2963 
z
" transform="scale(0.015625)"/>
      <path id="DejaVuSans-63" d="M 3122 3366 
L 3122 2828 
Q 2878 2963 2633 3030 
Q 2388 3097 2138 3097 
Q 1578 3097 1268 2742 
Q 959 2388 959 1747 
Q 959 1106 1268 751 
Q 1578 397 2138 397 
Q 2388 397 2633 464 
Q 2878 531 3122 666 
L 3122 134 
Q 2881 22 2623 -34 
Q 2366 -91 2075 -91 
Q 1284 -91 818 406 
Q 353 903 353 1747 
Q 353 2603 823 3093 
Q 1294 3584 2113 3584 
Q 2378 3584 2631 3529 
Q 2884 3475 3122 3366 
z
" transform="scale(0.015625)"/>
      <path id="DejaVuSans-65" d="M 3597 1894 
L 3597 1613 
L 953 1613 
Q 991 1019 1311 708 
Q 1631 397 2203 397 
Q 2534 397 2845 478 
Q 3156 559 3463 722 
L 3463 178 
Q 3153 47 2828 -22 
Q 2503 -91 2169 -91 
Q 1331 -91 842 396 
Q 353 884 353 1716 
Q 353 2575 817 3079 
Q 1281 3584 2069 3584 
Q 2775 3584 3186 3129 
Q 3597 2675 3597 1894 
z
M 3022 2063 
Q 3016 2534 2758 2815 
Q 2500 3097 2075 3097 
Q 1594 3097 1305 2825 
Q 1016 2553 972 2059 
L 3022 2063 
z
" transform="scale(0.015625)"/>
      <path id="DejaVuSans-2d" d="M 313 2009 
L 1997 2009 
L 1997 1497 
L 313 1497 
L 313 2009 
z
" transform="scale(0.015625)"/>
      <path id="DejaVuSans-69" d="M 603 3500 
L 1178 3500 
L 1178 0 
L 603 0 
L 603 3500 
z
M 603 4863 
L 1178 4863 
L 1178 4134 
L 603 4134 
L 603 4863 
z
" transform="scale(0.015625)"/>
      <path id="DejaVuSans-76" d="M 191 3500 
L 800 3500 
L 1894 563 
L 2988 3500 
L 3597 3500 
L 2284 0 
L 1503 0 
L 191 3500 
z
" transform="scale(0.015625)"/>
     </defs>
     <use xlink:href="#DejaVuSans-73"/>
     <use xlink:href="#DejaVuSans-6f" x="52.099609"/>
     <use xlink:href="#DejaVuSans-75" x="113.28125"/>
     <use xlink:href="#DejaVuSans-72" x="176.660156"/>
     <use xlink:href="#DejaVuSans-63" x="215.523438"/>
     <use xlink:href="#DejaVuSans-65" x="270.503906"/>
     <use xlink:href="#DejaVuSans-35" x="332.027344"/>
     <use xlink:href="#DejaVuSans-2d" x="395.650391"/>
     <use xlink:href="#DejaVuSans-72" x="431.734375"/>
     <use xlink:href="#DejaVuSans-65" x="470.597656"/>
     <use xlink:href="#DejaVuSans-63" x="532.121094"/>
     <use xlink:href="#DejaVuSans-65" x="587.101562"/>
     <use xlink:href="#DejaVuSans-69" x="648.625"/>
     <use xlink:href="#DejaVuSans-76" x="676.408203"/>
     <use xlink:href="#DejaVuSans-65" x="735.587891"/>
     <use xlink:href="#DejaVuSans-72" x="797.111328"/>
     <use xlink:href="#DejaVuSans-31" x="838.224609"/>
     <use xlink:href="#DejaVuSans-32" x="901.847656"/>
    </g>
   </g>
  </g>
 </g>
 <defs>
  <clipPath id="p2a5ba01dea">
   <rect x="180" y="69.12" width="1116" height="443.52"/>
  </clipPath>
 </defs>
</svg>
