<?xml version="1.0" encoding="utf-8" standalone="no"?>
<!DOCTYPE svg PUBLIC "-//W3C//DTD SVG 1.1//EN"
  "http://www.w3.org/Graphics/SVG/1.1/DTD/svg11.dtd">
<svg xmlns:xlink="http://www.w3.org/1999/xlink" width="1440pt" height="576pt" viewBox="0 0 1440 576" xmlns="http://www.w3.org/2000/svg" version="1.1">
 <metadata>
  <rdf:RDF xmlns:dc="http://purl.org/dc/elements/1.1/" xmlns:cc="http://creativecommons.org/ns#" xmlns:rdf="http://www.w3.org/1999/02/22-rdf-syntax-ns#">
   <cc:Work>
    <dc:type rdf:resource="http://purl.org/dc/dcmitype/StillImage"/>
    <dc:date>2024-05-22T04:49:47.959905</dc:date>
    <dc:format>image/svg+xml</dc:format>
    <dc:creator>
     <cc:Agent>
      <dc:title>Matplotlib v3.8.3, https://matplotlib.org/</dc:title>
     </cc:Agent>
    </dc:creator>
   </cc:Work>
  </rdf:RDF>
 </metadata>
 <defs>
  <style type="text/css">*{stroke-linejoin: round; stroke-linecap: butt}</style>
 </defs>
 <g id="figure_1">
  <g id="patch_1">
   <path d="M 0 576 
L 1440 576 
L 1440 0 
L 0 0 
z
" style="fill: #ffffff"/>
  </g>
  <g id="axes_1">
   <g id="patch_2">
    <path d="M 180 512.64 
L 1296 512.64 
L 1296 69.12 
L 180 69.12 
z
" style="fill: #ffffff"/>
   </g>
   <g id="matplotlib.axis_1">
    <g id="xtick_1">
     <g id="line2d_1">
      <defs>
       <path id="mbd056e3c90" d="M 0 0 
L 0 3.5 
" style="stroke: #000000; stroke-width: 0.8"/>
      </defs>
      <g>
       <use xlink:href="#mbd056e3c90" x="229.734567" y="512.64" style="stroke: #000000; stroke-width: 0.8"/>
      </g>
     </g>
     <g id="text_1">
      <!-- 0 -->
      <g transform="translate(226.553317 527.238438) scale(0.1 -0.1)">
       <defs>
        <path id="DejaVuSans-30" d="M 2034 4250 
Q 1547 4250 1301 3770 
Q 1056 3291 1056 2328 
Q 1056 1369 1301 889 
Q 1547 409 2034 409 
Q 2525 409 2770 889 
Q 3016 1369 3016 2328 
Q 3016 3291 2770 3770 
Q 2525 4250 2034 4250 
z
M 2034 4750 
Q 2819 4750 3233 4129 
Q 3647 3509 3647 2328 
Q 3647 1150 3233 529 
Q 2819 -91 2034 -91 
Q 1250 -91 836 529 
Q 422 1150 422 2328 
Q 422 3509 836 4129 
Q 1250 4750 2034 4750 
z
" transform="scale(0.015625)"/>
       </defs>
       <use xlink:href="#DejaVuSans-30"/>
      </g>
     </g>
    </g>
    <g id="xtick_2">
     <g id="line2d_2">
      <g>
       <use xlink:href="#mbd056e3c90" x="433.04074" y="512.64" style="stroke: #000000; stroke-width: 0.8"/>
      </g>
     </g>
     <g id="text_2">
      <!-- 500 -->
      <g transform="translate(423.49699 527.238438) scale(0.1 -0.1)">
       <defs>
        <path id="DejaVuSans-35" d="M 691 4666 
L 3169 4666 
L 3169 4134 
L 1269 4134 
L 1269 2991 
Q 1406 3038 1543 3061 
Q 1681 3084 1819 3084 
Q 2600 3084 3056 2656 
Q 3513 2228 3513 1497 
Q 3513 744 3044 326 
Q 2575 -91 1722 -91 
Q 1428 -91 1123 -41 
Q 819 9 494 109 
L 494 744 
Q 775 591 1075 516 
Q 1375 441 1709 441 
Q 2250 441 2565 725 
Q 2881 1009 2881 1497 
Q 2881 1984 2565 2268 
Q 2250 2553 1709 2553 
Q 1456 2553 1204 2497 
Q 953 2441 691 2322 
L 691 4666 
z
" transform="scale(0.015625)"/>
       </defs>
       <use xlink:href="#DejaVuSans-35"/>
       <use xlink:href="#DejaVuSans-30" x="63.623047"/>
       <use xlink:href="#DejaVuSans-30" x="127.246094"/>
      </g>
     </g>
    </g>
    <g id="xtick_3">
     <g id="line2d_3">
      <g>
       <use xlink:href="#mbd056e3c90" x="636.346913" y="512.64" style="stroke: #000000; stroke-width: 0.8"/>
      </g>
     </g>
     <g id="text_3">
      <!-- 1000 -->
      <g transform="translate(623.621913 527.238438) scale(0.1 -0.1)">
       <defs>
        <path id="DejaVuSans-31" d="M 794 531 
L 1825 531 
L 1825 4091 
L 703 3866 
L 703 4441 
L 1819 4666 
L 2450 4666 
L 2450 531 
L 3481 531 
L 3481 0 
L 794 0 
L 794 531 
z
" transform="scale(0.015625)"/>
       </defs>
       <use xlink:href="#DejaVuSans-31"/>
       <use xlink:href="#DejaVuSans-30" x="63.623047"/>
       <use xlink:href="#DejaVuSans-30" x="127.246094"/>
       <use xlink:href="#DejaVuSans-30" x="190.869141"/>
      </g>
     </g>
    </g>
    <g id="xtick_4">
     <g id="line2d_4">
      <g>
       <use xlink:href="#mbd056e3c90" x="839.653087" y="512.64" style="stroke: #000000; stroke-width: 0.8"/>
      </g>
     </g>
     <g id="text_4">
      <!-- 1500 -->
      <g transform="translate(826.928087 527.238438) scale(0.1 -0.1)">
       <use xlink:href="#DejaVuSans-31"/>
       <use xlink:href="#DejaVuSans-35" x="63.623047"/>
       <use xlink:href="#DejaVuSans-30" x="127.246094"/>
       <use xlink:href="#DejaVuSans-30" x="190.869141"/>
      </g>
     </g>
    </g>
    <g id="xtick_5">
     <g id="line2d_5">
      <g>
       <use xlink:href="#mbd056e3c90" x="1042.95926" y="512.64" style="stroke: #000000; stroke-width: 0.8"/>
      </g>
     </g>
     <g id="text_5">
      <!-- 2000 -->
      <g transform="translate(1030.23426 527.238438) scale(0.1 -0.1)">
       <defs>
        <path id="DejaVuSans-32" d="M 1228 531 
L 3431 531 
L 3431 0 
L 469 0 
L 469 531 
Q 828 903 1448 1529 
Q 2069 2156 2228 2338 
Q 2531 2678 2651 2914 
Q 2772 3150 2772 3378 
Q 2772 3750 2511 3984 
Q 2250 4219 1831 4219 
Q 1534 4219 1204 4116 
Q 875 4013 500 3803 
L 500 4441 
Q 881 4594 1212 4672 
Q 1544 4750 1819 4750 
Q 2544 4750 2975 4387 
Q 3406 4025 3406 3419 
Q 3406 3131 3298 2873 
Q 3191 2616 2906 2266 
Q 2828 2175 2409 1742 
Q 1991 1309 1228 531 
z
" transform="scale(0.015625)"/>
       </defs>
       <use xlink:href="#DejaVuSans-32"/>
       <use xlink:href="#DejaVuSans-30" x="63.623047"/>
       <use xlink:href="#DejaVuSans-30" x="127.246094"/>
       <use xlink:href="#DejaVuSans-30" x="190.869141"/>
      </g>
     </g>
    </g>
    <g id="xtick_6">
     <g id="line2d_6">
      <g>
       <use xlink:href="#mbd056e3c90" x="1246.265433" y="512.64" style="stroke: #000000; stroke-width: 0.8"/>
      </g>
     </g>
     <g id="text_6">
      <!-- 2500 -->
      <g transform="translate(1233.540433 527.238438) scale(0.1 -0.1)">
       <use xlink:href="#DejaVuSans-32"/>
       <use xlink:href="#DejaVuSans-35" x="63.623047"/>
       <use xlink:href="#DejaVuSans-30" x="127.246094"/>
       <use xlink:href="#DejaVuSans-30" x="190.869141"/>
      </g>
     </g>
    </g>
   </g>
   <g id="matplotlib.axis_2">
    <g id="ytick_1">
     <g id="line2d_7">
      <defs>
       <path id="m080866b86d" d="M 0 0 
L -3.5 0 
" style="stroke: #000000; stroke-width: 0.8"/>
      </defs>
      <g>
       <use xlink:href="#m080866b86d" x="180" y="502.85114" style="stroke: #000000; stroke-width: 0.8"/>
      </g>
     </g>
     <g id="text_7">
      <!-- −4 -->
      <g transform="translate(158.257812 506.650359) scale(0.1 -0.1)">
       <defs>
        <path id="DejaVuSans-2212" d="M 678 2272 
L 4684 2272 
L 4684 1741 
L 678 1741 
L 678 2272 
z
" transform="scale(0.015625)"/>
        <path id="DejaVuSans-34" d="M 2419 4116 
L 825 1625 
L 2419 1625 
L 2419 4116 
z
M 2253 4666 
L 3047 4666 
L 3047 1625 
L 3713 1625 
L 3713 1100 
L 3047 1100 
L 3047 0 
L 2419 0 
L 2419 1100 
L 313 1100 
L 313 1709 
L 2253 4666 
z
" transform="scale(0.015625)"/>
       </defs>
       <use xlink:href="#DejaVuSans-2212"/>
       <use xlink:href="#DejaVuSans-34" x="83.789062"/>
      </g>
     </g>
    </g>
    <g id="ytick_2">
     <g id="line2d_8">
      <g>
       <use xlink:href="#m080866b86d" x="180" y="453.206974" style="stroke: #000000; stroke-width: 0.8"/>
      </g>
     </g>
     <g id="text_8">
      <!-- −3 -->
      <g transform="translate(158.257812 457.006193) scale(0.1 -0.1)">
       <defs>
        <path id="DejaVuSans-33" d="M 2597 2516 
Q 3050 2419 3304 2112 
Q 3559 1806 3559 1356 
Q 3559 666 3084 287 
Q 2609 -91 1734 -91 
Q 1441 -91 1130 -33 
Q 819 25 488 141 
L 488 750 
Q 750 597 1062 519 
Q 1375 441 1716 441 
Q 2309 441 2620 675 
Q 2931 909 2931 1356 
Q 2931 1769 2642 2001 
Q 2353 2234 1838 2234 
L 1294 2234 
L 1294 2753 
L 1863 2753 
Q 2328 2753 2575 2939 
Q 2822 3125 2822 3475 
Q 2822 3834 2567 4026 
Q 2313 4219 1838 4219 
Q 1578 4219 1281 4162 
Q 984 4106 628 3988 
L 628 4550 
Q 988 4650 1302 4700 
Q 1616 4750 1894 4750 
Q 2613 4750 3031 4423 
Q 3450 4097 3450 3541 
Q 3450 3153 3228 2886 
Q 3006 2619 2597 2516 
z
" transform="scale(0.015625)"/>
       </defs>
       <use xlink:href="#DejaVuSans-2212"/>
       <use xlink:href="#DejaVuSans-33" x="83.789062"/>
      </g>
     </g>
    </g>
    <g id="ytick_3">
     <g id="line2d_9">
      <g>
       <use xlink:href="#m080866b86d" x="180" y="403.562808" style="stroke: #000000; stroke-width: 0.8"/>
      </g>
     </g>
     <g id="text_9">
      <!-- −2 -->
      <g transform="translate(158.257812 407.362027) scale(0.1 -0.1)">
       <use xlink:href="#DejaVuSans-2212"/>
       <use xlink:href="#DejaVuSans-32" x="83.789062"/>
      </g>
     </g>
    </g>
    <g id="ytick_4">
     <g id="line2d_10">
      <g>
       <use xlink:href="#m080866b86d" x="180" y="353.918642" style="stroke: #000000; stroke-width: 0.8"/>
      </g>
     </g>
     <g id="text_10">
      <!-- −1 -->
      <g transform="translate(158.257812 357.717861) scale(0.1 -0.1)">
       <use xlink:href="#DejaVuSans-2212"/>
       <use xlink:href="#DejaVuSans-31" x="83.789062"/>
      </g>
     </g>
    </g>
    <g id="ytick_5">
     <g id="line2d_11">
      <g>
       <use xlink:href="#m080866b86d" x="180" y="304.274476" style="stroke: #000000; stroke-width: 0.8"/>
      </g>
     </g>
     <g id="text_11">
      <!-- 0 -->
      <g transform="translate(166.6375 308.073695) scale(0.1 -0.1)">
       <use xlink:href="#DejaVuSans-30"/>
      </g>
     </g>
    </g>
    <g id="ytick_6">
     <g id="line2d_12">
      <g>
       <use xlink:href="#m080866b86d" x="180" y="254.63031" style="stroke: #000000; stroke-width: 0.8"/>
      </g>
     </g>
     <g id="text_12">
      <!-- 1 -->
      <g transform="translate(166.6375 258.429529) scale(0.1 -0.1)">
       <use xlink:href="#DejaVuSans-31"/>
      </g>
     </g>
    </g>
    <g id="ytick_7">
     <g id="line2d_13">
      <g>
       <use xlink:href="#m080866b86d" x="180" y="204.986144" style="stroke: #000000; stroke-width: 0.8"/>
      </g>
     </g>
     <g id="text_13">
      <!-- 2 -->
      <g transform="translate(166.6375 208.785363) scale(0.1 -0.1)">
       <use xlink:href="#DejaVuSans-32"/>
      </g>
     </g>
    </g>
    <g id="ytick_8">
     <g id="line2d_14">
      <g>
       <use xlink:href="#m080866b86d" x="180" y="155.341978" style="stroke: #000000; stroke-width: 0.8"/>
      </g>
     </g>
     <g id="text_14">
      <!-- 3 -->
      <g transform="translate(166.6375 159.141197) scale(0.1 -0.1)">
       <use xlink:href="#DejaVuSans-33"/>
      </g>
     </g>
    </g>
    <g id="ytick_9">
     <g id="line2d_15">
      <g>
       <use xlink:href="#m080866b86d" x="180" y="105.697812" style="stroke: #000000; stroke-width: 0.8"/>
      </g>
     </g>
     <g id="text_15">
      <!-- 4 -->
      <g transform="translate(166.6375 109.497031) scale(0.1 -0.1)">
       <use xlink:href="#DejaVuSans-34"/>
      </g>
     </g>
    </g>
   </g>
   <g id="line2d_16">
    <path d="M 230.727273 336.028621 
L 231.719979 336.036616 
L 234.698096 334.486514 
L 237.676214 331.960942 
L 239.661626 329.83386 
L 243.63245 323.447147 
L 244.625156 321.22146 
L 245.617862 318.523314 
L 246.610568 318.074495 
L 247.603273 316.109675 
L 248.595979 285.12844 
L 249.588685 249.295989 
L 250.581391 223.839083 
L 251.574097 208.916459 
L 252.566803 205.125266 
L 253.559509 212.439083 
L 254.552215 221.474669 
L 255.544921 212.53337 
L 256.537627 202.239365 
L 257.530333 201.800161 
L 258.523039 201.798514 
L 259.515745 188.630132 
L 260.50845 180.09938 
L 261.501156 185.039556 
L 262.493862 205.981222 
L 263.486568 222.361233 
L 264.479274 209.988283 
L 265.47198 214.660038 
L 266.464686 237.30539 
L 267.457392 243.674533 
L 269.442804 261.904594 
L 270.43551 224.299737 
L 271.428216 227.833803 
L 272.420922 310.476824 
L 273.413627 198.1404 
L 274.406333 171.706982 
L 275.399039 159.357723 
L 277.384451 111.333934 
L 278.377157 96.287362 
L 279.369863 90.988552 
L 280.362569 93.778175 
L 281.355275 99.831758 
L 282.347981 98.931147 
L 283.340687 91.936854 
L 284.333393 89.28 
L 285.326099 94.405991 
L 286.318804 105.293459 
L 287.31151 108.715613 
L 288.304216 103.85387 
L 289.296922 104.051847 
L 290.289628 114.469673 
L 291.282334 132.034743 
L 292.27504 147.09443 
L 293.267746 159.481257 
L 294.260452 181.516157 
L 295.253158 192.021843 
L 296.245864 186.155342 
L 297.23857 198.598569 
L 298.231276 249.054455 
L 299.223981 292.384691 
L 300.216687 273.778577 
L 301.209393 296.094488 
L 302.202099 245.147763 
L 303.194805 243.970939 
L 304.187511 293.940463 
L 305.180217 270.220898 
L 306.172923 253.792345 
L 307.165629 293.558568 
L 308.158335 300.147223 
L 309.151041 259.214195 
L 310.143747 272.916855 
L 311.136453 387.414303 
L 312.129159 295.630694 
L 313.121864 290.055538 
L 314.11457 321.79031 
L 315.107276 304.143564 
L 316.099982 304.05744 
L 317.092688 321.218649 
L 318.085394 300.734415 
L 319.0781 305.324573 
L 320.070806 331.327188 
L 321.063512 320.105826 
L 322.056218 310.598857 
L 323.048924 320.632102 
L 324.04163 320.696708 
L 325.034336 317.282332 
L 326.027041 322.76832 
L 327.019747 320.81968 
L 328.012453 323.81419 
L 329.005159 326.191808 
L 329.997865 322.105389 
L 330.990571 324.01759 
L 331.983277 333.752905 
L 332.975983 323.510033 
L 333.968689 330.783488 
L 334.961395 336.925688 
L 335.954101 323.077444 
L 336.946807 318.512704 
L 337.939513 340.046976 
L 338.932218 337.777658 
L 339.924924 326.422334 
L 340.91763 334.073442 
L 341.910336 334.393421 
L 342.903042 332.172812 
L 343.895748 337.984743 
L 344.888454 340.82858 
L 345.88116 332.563631 
L 346.873866 342.426127 
L 347.866572 337.74611 
L 348.859278 331.14894 
L 349.851984 344.655136 
L 350.84469 350.847363 
L 351.837395 333.68277 
L 352.830101 342.277053 
L 353.822807 359.452318 
L 354.815513 332.438612 
L 355.808219 336.364592 
L 356.800925 357.336819 
L 357.793631 346.409294 
L 358.786337 333.508054 
L 359.779043 354.088532 
L 360.771749 350.205595 
L 361.764455 347.93407 
L 362.757161 347.576651 
L 363.749867 345.548298 
L 364.742572 339.083779 
L 366.727984 356.236924 
L 367.72069 354.055174 
L 368.713396 348.238495 
L 369.706102 348.857673 
L 370.698808 355.328447 
L 371.691514 344.903053 
L 372.68422 339.422226 
L 373.676926 365.862691 
L 374.669632 379.064537 
L 375.662338 345.12471 
L 376.655044 335.350599 
L 377.64775 336.908031 
L 378.640455 350.720923 
L 379.633161 350.009106 
L 380.625867 360.816939 
L 381.618573 352.39536 
L 382.611279 359.022296 
L 383.603985 358.576235 
L 384.596691 362.543912 
L 385.589397 369.510095 
L 386.582103 356.544288 
L 387.574809 348.576803 
L 388.567515 372.058991 
L 389.560221 370.523034 
L 390.552927 344.432084 
L 391.545632 342.936916 
L 392.538338 367.514609 
L 393.531044 371.414952 
L 394.52375 358.84247 
L 395.516456 364.975806 
L 396.509162 358.239367 
L 397.501868 364.420745 
L 398.494574 368.108797 
L 399.48728 346.738483 
L 400.479986 356.161291 
L 401.472692 388.380452 
L 402.465398 358.58276 
L 403.458104 355.636141 
L 404.450809 355.355878 
L 405.443515 357.977483 
L 406.436221 364.325099 
L 407.428927 375.927594 
L 408.421633 368.67842 
L 409.414339 369.51331 
L 410.407045 352.465478 
L 411.399751 376.018097 
L 412.392457 372.370896 
L 413.385163 379.890264 
L 414.377869 348.287053 
L 415.370575 359.673384 
L 416.363281 392.192 
L 417.355986 373.697766 
L 418.348692 341.084303 
L 419.341398 351.544324 
L 420.334104 374.038307 
L 421.32681 366.830022 
L 422.319516 386.092874 
L 423.312222 362.03269 
L 424.304928 362.774771 
L 425.297634 385.932432 
L 426.29034 357.948732 
L 427.283046 352.18922 
L 428.275752 393.95742 
L 429.268458 378.5522 
L 430.261163 338.250764 
L 431.253869 343.802899 
L 432.246575 358.31675 
L 433.239281 375.966085 
L 434.231987 378.364401 
L 435.224693 362.911637 
L 436.217399 374.036819 
L 437.210105 377.814023 
L 438.202811 368.22388 
L 439.195517 384.363902 
L 440.188223 369.223919 
L 441.180929 366.864452 
L 442.173635 374.485771 
L 443.166341 411.768818 
L 444.159046 369.399434 
L 445.151752 352.287702 
L 446.144458 377.931521 
L 448.12987 377.928011 
L 449.122576 383.572666 
L 450.115282 381.254513 
L 451.107988 375.913915 
L 452.100694 373.020622 
L 453.0934 382.251259 
L 454.086106 382.411636 
L 456.071518 387.982959 
L 457.064223 379.693622 
L 458.056929 380.024629 
L 459.049635 372.944998 
L 460.042341 375.664221 
L 461.035047 383.539998 
L 462.027753 371.437582 
L 464.013165 382.857699 
L 465.005871 379.995945 
L 465.998577 387.355146 
L 466.991283 388.320616 
L 467.983989 372.089799 
L 468.976695 380.728741 
L 469.9694 397.778004 
L 470.962106 387.146969 
L 471.954812 382.414734 
L 472.947518 381.022139 
L 473.940224 379.353379 
L 474.93293 388.236663 
L 475.925636 392.452861 
L 476.918342 383.400112 
L 477.911048 377.491307 
L 478.903754 381.300886 
L 479.89646 378.512067 
L 480.889166 385.348577 
L 481.881872 387.046188 
L 482.874577 388.243174 
L 483.867283 378.460837 
L 484.859989 375.173476 
L 485.852695 387.572277 
L 486.845401 395.396334 
L 487.838107 392.88906 
L 488.830813 379.58486 
L 489.823519 387.992116 
L 490.816225 392.85542 
L 491.808931 374.815499 
L 492.801637 387.988561 
L 493.794343 387.750565 
L 494.787049 389.917611 
L 495.779754 377.447548 
L 496.77246 387.82646 
L 497.765166 407.40912 
L 498.757872 377.127573 
L 499.750578 380.85098 
L 500.743284 388.277689 
L 501.73599 377.828188 
L 502.728696 386.868175 
L 503.721402 382.103837 
L 504.714108 381.906505 
L 505.706814 401.010887 
L 506.69952 391.907355 
L 507.692226 380.388649 
L 508.684932 374.356189 
L 509.677637 403.347374 
L 510.670343 422.59305 
L 511.663049 382.279812 
L 512.655755 375.246909 
L 513.648461 386.057759 
L 514.641167 381.171007 
L 515.633873 389.203688 
L 516.626579 389.814667 
L 517.619285 394.053224 
L 518.611991 386.178695 
L 519.604697 385.56134 
L 520.597403 416.650923 
L 522.582814 395.555574 
L 523.57552 389.167654 
L 524.568226 399.624865 
L 525.560932 395.591983 
L 526.553638 377.909532 
L 527.546344 387.470803 
L 528.53905 381.586385 
L 529.531756 385.811474 
L 530.524462 390.758002 
L 531.517168 385.257564 
L 532.509874 376.506834 
L 533.50258 437.211787 
L 534.495286 393.503761 
L 535.487991 373.213787 
L 536.480697 382.48239 
L 537.473403 492.48 
L 538.466109 394.765293 
L 539.458815 381.914513 
L 540.451521 377.952213 
L 541.444227 382.595148 
L 542.436933 393.242534 
L 543.429639 416.153919 
L 544.422345 396.147231 
L 545.415051 391.548391 
L 546.407757 377.448698 
L 547.400463 379.771441 
L 548.393168 410.280679 
L 550.37858 381.409672 
L 551.371286 405.603373 
L 552.363992 396.056216 
L 553.356698 382.831607 
L 554.349404 387.601167 
L 555.34211 393.078273 
L 556.334816 405.661546 
L 557.327522 397.752362 
L 558.320228 384.690646 
L 559.312934 393.492761 
L 560.30564 413.492864 
L 561.298345 399.369474 
L 562.291051 374.521623 
L 563.283757 378.409177 
L 564.276463 420.72589 
L 565.269169 406.520302 
L 566.261875 386.988324 
L 567.254581 386.351226 
L 568.247287 389.717032 
L 569.239993 387.072069 
L 570.232699 395.694352 
L 571.225405 395.663815 
L 572.218111 386.462107 
L 573.210817 399.715892 
L 574.203523 398.353936 
L 575.196228 420.380754 
L 576.188934 403.366739 
L 577.18164 397.875573 
L 578.174346 406.610217 
L 579.167052 404.273946 
L 580.159758 390.732338 
L 581.152464 395.791346 
L 582.14517 402.525298 
L 583.137876 396.513836 
L 584.130582 406.540512 
L 585.123288 391.222647 
L 586.115994 394.756916 
L 587.1087 425.432495 
L 588.101405 407.6218 
L 589.094111 408.790144 
L 590.086817 388.013663 
L 591.079523 405.648162 
L 592.072229 420.567401 
L 593.064935 406.554224 
L 594.057641 412.995052 
L 595.050347 411.358319 
L 596.043053 406.206199 
L 597.035759 417.311562 
L 598.028465 403.078402 
L 599.021171 411.327468 
L 600.013877 416.084805 
L 601.006582 404.50157 
L 601.999288 399.614806 
L 602.991994 393.63155 
L 603.9847 412.795878 
L 604.977406 414.328936 
L 605.970112 413.363186 
L 606.962818 393.398101 
L 607.955524 393.480773 
L 608.94823 408.798951 
L 609.940936 405.243356 
L 610.933642 403.749173 
L 611.926348 407.965574 
L 612.919054 410.979004 
L 613.911759 405.266785 
L 614.904465 404.310758 
L 615.897171 406.852002 
L 616.889877 408.109193 
L 617.882583 407.913773 
L 618.875289 406.337933 
L 619.867995 401.166112 
L 620.860701 412.681503 
L 621.853407 411.353526 
L 622.846113 401.643041 
L 624.831525 410.352099 
L 625.824231 407.66729 
L 626.816936 413.275829 
L 627.809642 407.138832 
L 628.802348 405.728142 
L 629.795054 410.24646 
L 630.78776 413.369046 
L 632.773172 404.397715 
L 633.765878 409.682771 
L 634.758584 406.50201 
L 635.75129 406.938247 
L 636.743996 405.792277 
L 637.736702 407.142086 
L 638.729408 407.356653 
L 639.722114 409.823917 
L 640.714819 411.426513 
L 641.707525 408.188584 
L 642.700231 408.49819 
L 643.692937 407.504936 
L 644.685643 412.028742 
L 645.678349 410.460221 
L 646.671055 412.869411 
L 647.663761 409.756804 
L 648.656467 412.166093 
L 649.649173 406.37308 
L 650.641879 410.500713 
L 651.634585 410.22658 
L 652.627291 411.589546 
L 653.619996 411.623122 
L 654.612702 410.644903 
L 655.605408 410.037044 
L 656.598114 410.070408 
L 657.59082 410.619263 
L 658.583526 409.613907 
L 659.576232 412.196887 
L 660.568938 409.183995 
L 661.561644 410.662167 
L 662.55435 411.680672 
L 663.547056 410.086238 
L 664.539762 411.333697 
L 665.532468 412.88285 
L 666.525173 410.991088 
L 667.517879 410.842936 
L 668.510585 415.831604 
L 669.503291 410.711821 
L 670.495997 409.849052 
L 671.488703 412.573596 
L 672.481409 413.653362 
L 673.474115 410.709311 
L 674.466821 410.934146 
L 675.459527 411.443409 
L 676.452233 412.198626 
L 677.444939 411.877091 
L 678.437645 413.22703 
L 679.43035 412.93382 
L 680.423056 413.398193 
L 681.415762 412.270415 
L 682.408468 411.644614 
L 683.401174 412.068813 
L 684.39388 413.122392 
L 685.386586 413.775654 
L 686.379292 413.28578 
L 687.371998 412.961285 
L 688.364704 412.910833 
L 689.35741 412.345683 
L 690.350116 414.189318 
L 691.342822 412.064821 
L 692.335527 414.611998 
L 693.328233 414.59747 
L 694.320939 413.898705 
L 695.313645 414.650666 
L 696.306351 414.662655 
L 697.299057 413.901594 
L 698.291763 413.776987 
L 699.284469 414.742597 
L 700.277175 414.390282 
L 701.269881 416.777414 
L 702.262587 414.882743 
L 703.255293 414.690454 
L 704.247999 415.236514 
L 705.240705 416.026644 
L 706.23341 414.328489 
L 707.226116 414.609206 
L 708.218822 415.059492 
L 709.211528 416.181497 
L 710.204234 414.848536 
L 711.19694 414.264124 
L 712.189646 413.938178 
L 713.182352 414.942058 
L 714.175058 416.978843 
L 715.167764 416.807499 
L 716.16047 415.484335 
L 717.153176 416.756157 
L 718.145882 415.854861 
L 719.138587 415.908154 
L 720.131293 416.768689 
L 721.123999 416.430134 
L 723.109411 417.279297 
L 724.102117 416.45649 
L 725.094823 416.681537 
L 726.087529 416.2488 
L 727.080235 417.362284 
L 728.072941 417.118139 
L 729.065647 417.328536 
L 730.058353 416.312717 
L 731.051059 416.420256 
L 732.043764 417.089829 
L 733.03647 417.305211 
L 734.029176 417.192021 
L 735.021882 416.705441 
L 736.014588 417.87695 
L 737.007294 417.388884 
L 738 417.052027 
L 738.992706 416.440563 
L 739.985412 417.418799 
L 741.970824 417.887314 
L 742.96353 418.096084 
L 743.956236 417.155071 
L 744.948941 417.779278 
L 745.941647 418.620314 
L 747.927059 418.151366 
L 748.919765 419.139231 
L 749.912471 419.112545 
L 750.905177 418.950819 
L 751.897883 418.099533 
L 752.890589 418.548597 
L 753.883295 418.76449 
L 754.876001 418.238785 
L 755.868707 418.967373 
L 756.861413 418.939755 
L 757.854118 419.662263 
L 758.846824 419.423209 
L 759.83953 419.588533 
L 760.832236 419.46426 
L 761.824942 419.545143 
L 762.817648 419.422478 
L 763.810354 419.424309 
L 764.80306 420.335948 
L 765.795766 419.212343 
L 766.788472 420.022151 
L 767.781178 420.346585 
L 768.773884 420.47005 
L 769.76659 419.653628 
L 770.759295 419.081947 
L 771.752001 419.19314 
L 772.744707 420.288178 
L 774.730119 419.95332 
L 775.722825 419.630343 
L 776.715531 420.522435 
L 777.708237 420.506824 
L 778.700943 420.373325 
L 780.686355 420.614355 
L 781.679061 421.368363 
L 782.671767 420.737391 
L 783.664473 421.488034 
L 784.657178 421.228548 
L 785.649884 420.600813 
L 786.64259 420.576358 
L 787.635296 421.06193 
L 788.628002 421.043041 
L 790.613414 421.608948 
L 791.60612 422.113197 
L 792.598826 421.684134 
L 793.591532 421.056122 
L 794.584238 421.586152 
L 795.576944 421.588459 
L 796.56965 421.79826 
L 797.562355 422.33684 
L 798.555061 422.533522 
L 799.547767 421.767803 
L 800.540473 422.002527 
L 801.533179 423.294528 
L 802.525885 421.531228 
L 803.518591 422.408419 
L 804.511297 422.487702 
L 805.504003 422.344437 
L 806.496709 421.895614 
L 807.489415 422.952581 
L 808.482121 422.484805 
L 809.474827 422.996886 
L 810.467532 422.444793 
L 811.460238 423.195933 
L 813.44565 422.87656 
L 814.438356 422.986714 
L 815.431062 422.485919 
L 816.423768 423.248599 
L 817.416474 422.977437 
L 818.40918 423.155931 
L 819.401886 421.966955 
L 820.394592 423.746341 
L 822.380004 423.261649 
L 823.372709 423.763272 
L 825.358121 422.941552 
L 826.350827 423.347985 
L 827.343533 423.976754 
L 828.336239 423.610291 
L 829.328945 423.507857 
L 830.321651 424.138285 
L 831.314357 423.237651 
L 832.307063 424.421896 
L 833.299769 424.05508 
L 835.285181 424.070858 
L 836.277886 424.914506 
L 837.270592 424.119981 
L 838.263298 424.107044 
L 839.256004 424.481422 
L 840.24871 424.670928 
L 841.241416 423.905659 
L 842.234122 424.231621 
L 843.226828 424.73956 
L 844.219534 425.738184 
L 846.204946 424.468062 
L 847.197652 425.236694 
L 849.183064 425.617937 
L 850.175769 425.044841 
L 851.168475 424.660087 
L 852.161181 424.916137 
L 853.153887 424.849117 
L 854.146593 424.569672 
L 857.124711 425.742735 
L 858.117417 424.873021 
L 859.110123 425.360631 
L 860.102829 425.996324 
L 861.095535 425.869971 
L 862.088241 425.56293 
L 863.080946 425.02196 
L 864.073652 425.973061 
L 865.066358 425.138367 
L 866.059064 425.719773 
L 868.044476 425.127962 
L 869.037182 425.532864 
L 870.029888 426.104342 
L 871.022594 426.904412 
L 872.0153 426.229752 
L 873.008006 426.28542 
L 874.000712 427.540884 
L 874.993418 426.241612 
L 875.986123 426.493524 
L 876.978829 425.944505 
L 878.964241 426.722925 
L 879.956947 427.366984 
L 880.949653 426.815054 
L 881.942359 427.631792 
L 883.927771 426.647638 
L 884.920477 427.895591 
L 885.913183 427.338162 
L 886.905889 426.250452 
L 887.898595 427.141117 
L 888.8913 427.160371 
L 889.884006 426.751296 
L 890.876712 427.688445 
L 891.869418 427.237497 
L 892.862124 427.278031 
L 894.847536 427.628876 
L 895.840242 427.344218 
L 896.832948 426.300641 
L 897.825654 426.63311 
L 898.81836 427.637174 
L 899.811066 428.073572 
L 900.803772 427.551599 
L 901.796477 427.185308 
L 902.789183 427.660517 
L 903.781889 427.966734 
L 904.774595 428.010014 
L 906.760007 428.481896 
L 907.752713 428.40025 
L 908.745419 428.726423 
L 909.738125 427.495967 
L 910.730831 428.629557 
L 911.723537 427.738357 
L 912.716243 427.89189 
L 913.708949 427.750903 
L 914.701655 428.734559 
L 915.69436 428.836611 
L 916.687066 427.974417 
L 917.679772 428.98267 
L 918.672478 427.792902 
L 919.665184 428.026644 
L 920.65789 428.567558 
L 921.650596 428.869413 
L 922.643302 428.835157 
L 923.636008 429.398116 
L 924.628714 429.15382 
L 925.62142 427.737409 
L 926.614126 428.508446 
L 927.606832 429.072932 
L 928.599537 428.940916 
L 929.592243 427.954623 
L 930.584949 428.920545 
L 931.577655 428.54541 
L 932.570361 429.349314 
L 933.563067 429.058861 
L 935.548479 428.82976 
L 936.541185 429.269937 
L 939.519303 429.322832 
L 940.512009 428.737271 
L 941.504714 429.323789 
L 942.49742 429.50186 
L 943.490126 429.08091 
L 944.482832 430.252452 
L 946.468244 429.469664 
L 947.46095 429.404762 
L 948.453656 430.842624 
L 949.446362 430.581362 
L 950.439068 430.18255 
L 951.431774 429.521778 
L 952.42448 430.181633 
L 953.417186 429.994314 
L 954.409891 430.917645 
L 955.402597 429.855784 
L 956.395303 430.776059 
L 958.380715 429.902009 
L 959.373421 430.75053 
L 960.366127 430.749847 
L 961.358833 430.312701 
L 962.351539 430.103221 
L 963.344245 429.485645 
L 964.336951 429.998013 
L 965.329657 430.695502 
L 967.315068 430.499423 
L 968.307774 430.602527 
L 969.30048 430.442046 
L 971.285892 430.610824 
L 972.278598 430.26924 
L 973.271304 430.480633 
L 974.26401 430.241934 
L 976.249422 430.631431 
L 977.242128 431.068783 
L 978.234834 430.107118 
L 979.22754 431.008184 
L 980.220246 430.926066 
L 981.212951 430.39384 
L 982.205657 430.966068 
L 984.191069 431.432292 
L 985.183775 430.630689 
L 986.176481 431.192003 
L 987.169187 430.976197 
L 988.161893 431.177057 
L 989.154599 430.809751 
L 990.147305 431.132254 
L 991.140011 431.035549 
L 992.132717 431.452498 
L 994.118128 432.090969 
L 995.110834 431.557407 
L 996.10354 430.812113 
L 997.096246 431.395516 
L 998.088952 431.254679 
L 999.081658 431.761614 
L 1000.074364 431.44253 
L 1001.06707 430.701291 
L 1002.059776 431.525288 
L 1003.052482 431.737958 
L 1004.045188 430.770435 
L 1005.037894 431.19014 
L 1006.0306 431.252884 
L 1007.023305 430.918324 
L 1008.016011 431.68675 
L 1009.008717 430.971079 
L 1010.001423 430.879103 
L 1010.994129 432.28075 
L 1011.986835 431.150441 
L 1012.979541 432.198265 
L 1013.972247 431.560519 
L 1014.964953 431.270098 
L 1015.957659 432.121449 
L 1016.950365 431.817773 
L 1017.943071 432.431563 
L 1018.935777 432.453601 
L 1019.928482 432.665819 
L 1020.921188 433.336923 
L 1021.913894 431.76214 
L 1022.9066 431.880174 
L 1023.899306 431.853301 
L 1025.884718 432.329231 
L 1027.87013 432.317319 
L 1028.862836 432.433719 
L 1030.848248 431.886576 
L 1031.840954 432.643718 
L 1032.833659 432.557831 
L 1033.826365 433.120231 
L 1035.811777 432.604959 
L 1037.797189 433.5388 
L 1038.789895 432.538585 
L 1039.782601 432.291466 
L 1040.775307 431.836237 
L 1041.768013 431.675679 
L 1042.760719 431.98324 
L 1043.753425 432.777711 
L 1044.746131 431.56263 
L 1045.738837 432.822947 
L 1046.731542 432.25462 
L 1047.724248 433.581649 
L 1048.716954 432.885234 
L 1049.70966 433.241355 
L 1050.702366 431.912827 
L 1051.695072 432.903485 
L 1053.680484 433.075778 
L 1054.67319 433.141568 
L 1055.665896 433.02127 
L 1056.658602 433.602841 
L 1057.651308 432.429406 
L 1058.644014 432.993408 
L 1059.636719 433.415357 
L 1060.629425 432.990924 
L 1061.622131 432.987216 
L 1062.614837 433.670221 
L 1063.607543 432.930118 
L 1064.600249 432.812009 
L 1065.592955 433.221438 
L 1066.585661 433.886296 
L 1067.578367 433.531113 
L 1068.571073 433.738661 
L 1069.563779 433.308146 
L 1070.556485 433.674072 
L 1071.549191 433.402572 
L 1072.541896 433.415571 
L 1073.534602 433.926079 
L 1074.527308 433.433849 
L 1075.520014 433.563256 
L 1076.51272 433.989382 
L 1077.505426 432.900272 
L 1078.498132 433.696556 
L 1079.490838 433.480831 
L 1080.483544 433.637216 
L 1081.47625 433.406871 
L 1082.468956 433.014904 
L 1083.461662 433.116701 
L 1084.454368 434.350989 
L 1085.447073 433.959964 
L 1086.439779 433.916681 
L 1087.432485 433.632893 
L 1088.425191 433.086006 
L 1090.410603 433.150488 
L 1091.403309 433.304564 
L 1092.396015 433.786319 
L 1093.388721 433.181387 
L 1094.381427 433.663466 
L 1095.374133 433.493897 
L 1096.366839 433.864611 
L 1097.359545 433.733644 
L 1098.35225 433.771104 
L 1099.344956 433.507094 
L 1100.337662 433.612914 
L 1101.330368 434.027098 
L 1102.323074 433.725833 
L 1104.308486 433.897664 
L 1105.301192 434.094384 
L 1106.293898 433.712545 
L 1108.27931 434.372206 
L 1109.272016 434.339284 
L 1110.264722 433.428279 
L 1111.257428 434.602747 
L 1112.250133 434.312302 
L 1113.242839 434.208636 
L 1115.228251 433.334343 
L 1116.220957 433.379761 
L 1117.213663 433.960313 
L 1118.206369 433.510566 
L 1119.199075 434.426913 
L 1120.191781 434.153325 
L 1121.184487 434.638915 
L 1122.177193 434.427921 
L 1123.169899 434.66754 
L 1124.162605 433.977407 
L 1125.15531 433.510785 
L 1126.148016 433.530975 
L 1127.140722 434.012479 
L 1128.133428 434.247375 
L 1129.126134 434.837206 
L 1130.11884 434.600185 
L 1131.111546 434.016557 
L 1132.104252 434.423848 
L 1133.096958 434.10582 
L 1134.089664 435.260052 
L 1135.08237 433.94006 
L 1136.075076 434.454669 
L 1137.067782 434.33078 
L 1138.060487 433.452179 
L 1139.053193 434.644108 
L 1140.045899 434.892768 
L 1141.038605 434.225976 
L 1143.024017 434.502463 
L 1144.016723 435.032496 
L 1145.009429 434.253985 
L 1146.002135 434.034544 
L 1146.994841 433.999776 
L 1147.987547 434.747413 
L 1148.980253 434.123605 
L 1149.972959 434.816882 
L 1150.965664 434.474655 
L 1151.95837 434.943131 
L 1152.951076 434.87867 
L 1153.943782 435.294386 
L 1154.936488 433.826458 
L 1157.914606 434.668001 
L 1158.907312 434.24493 
L 1159.900018 435.751022 
L 1160.892724 434.801807 
L 1162.878136 434.759427 
L 1163.870841 435.542708 
L 1164.863547 434.200991 
L 1165.856253 435.549726 
L 1166.848959 435.024877 
L 1167.841665 434.911254 
L 1168.834371 434.11859 
L 1169.827077 434.814609 
L 1170.819783 434.934622 
L 1171.812489 434.392373 
L 1172.805195 434.652329 
L 1173.797901 435.493331 
L 1174.790607 434.729364 
L 1175.783313 434.981052 
L 1176.776019 435.353277 
L 1177.768724 434.387921 
L 1179.754136 434.32403 
L 1180.746842 434.661185 
L 1181.739548 436.553093 
L 1182.732254 435.215526 
L 1183.72496 434.780772 
L 1184.717666 434.917346 
L 1185.710372 435.328269 
L 1186.703078 434.983683 
L 1187.695784 435.30233 
L 1188.68849 433.965597 
L 1189.681196 434.820735 
L 1190.673901 434.848403 
L 1191.666607 434.298659 
L 1192.659313 434.792205 
L 1193.652019 434.768415 
L 1194.644725 434.893102 
L 1195.637431 434.752978 
L 1196.630137 434.962864 
L 1197.622843 434.966818 
L 1198.615549 434.79316 
L 1199.608255 434.198147 
L 1202.586373 435.620307 
L 1203.579078 434.754244 
L 1204.571784 434.906675 
L 1205.56449 436.205537 
L 1206.557196 435.663088 
L 1207.549902 435.43089 
L 1208.542608 433.877441 
L 1209.535314 435.627152 
L 1210.52802 434.823703 
L 1211.520726 434.44466 
L 1212.513432 434.494872 
L 1213.506138 435.316076 
L 1214.498844 434.596088 
L 1215.49155 434.799101 
L 1217.476961 435.436193 
L 1218.469667 434.801038 
L 1219.462373 435.177342 
L 1220.455079 434.946364 
L 1221.447785 435.250952 
L 1222.440491 434.473745 
L 1223.433197 434.834078 
L 1224.425903 434.714135 
L 1225.418609 435.635906 
L 1226.411315 434.244777 
L 1227.404021 433.704479 
L 1228.396727 435.177004 
L 1230.382138 435.006834 
L 1231.374844 435.279241 
L 1232.36755 436.464655 
L 1233.360256 435.302897 
L 1234.352962 435.550194 
L 1235.345668 434.84888 
L 1236.338374 434.608567 
L 1237.33108 435.364651 
L 1239.316492 435.159027 
L 1240.309198 435.047172 
L 1241.301904 435.46072 
L 1242.29461 435.327265 
L 1243.287315 434.492548 
L 1244.280021 435.252733 
L 1245.272727 435.30085 
L 1245.272727 435.30085 
" clip-path="url(#pe2817907de)" style="fill: none; stroke: #1f77b4; stroke-width: 1.5; stroke-linecap: square"/>
   </g>
   <g id="patch_3">
    <path d="M 180 512.64 
L 180 69.12 
" style="fill: none; stroke: #000000; stroke-width: 0.8; stroke-linejoin: miter; stroke-linecap: square"/>
   </g>
   <g id="patch_4">
    <path d="M 1296 512.64 
L 1296 69.12 
" style="fill: none; stroke: #000000; stroke-width: 0.8; stroke-linejoin: miter; stroke-linecap: square"/>
   </g>
   <g id="patch_5">
    <path d="M 180 512.64 
L 1296 512.64 
" style="fill: none; stroke: #000000; stroke-width: 0.8; stroke-linejoin: miter; stroke-linecap: square"/>
   </g>
   <g id="patch_6">
    <path d="M 180 69.12 
L 1296 69.12 
" style="fill: none; stroke: #000000; stroke-width: 0.8; stroke-linejoin: miter; stroke-linecap: square"/>
   </g>
   <g id="text_16">
    <!-- source5-receiver16 -->
    <g transform="translate(544.9 60.80125) scale(0.4 -0.4)">
     <defs>
      <path id="DejaVuSans-73" d="M 2834 3397 
L 2834 2853 
Q 2591 2978 2328 3040 
Q 2066 3103 1784 3103 
Q 1356 3103 1142 2972 
Q 928 2841 928 2578 
Q 928 2378 1081 2264 
Q 1234 2150 1697 2047 
L 1894 2003 
Q 2506 1872 2764 1633 
Q 3022 1394 3022 966 
Q 3022 478 2636 193 
Q 2250 -91 1575 -91 
Q 1294 -91 989 -36 
Q 684 19 347 128 
L 347 722 
Q 666 556 975 473 
Q 1284 391 1588 391 
Q 1994 391 2212 530 
Q 2431 669 2431 922 
Q 2431 1156 2273 1281 
Q 2116 1406 1581 1522 
L 1381 1569 
Q 847 1681 609 1914 
Q 372 2147 372 2553 
Q 372 3047 722 3315 
Q 1072 3584 1716 3584 
Q 2034 3584 2315 3537 
Q 2597 3491 2834 3397 
z
" transform="scale(0.015625)"/>
      <path id="DejaVuSans-6f" d="M 1959 3097 
Q 1497 3097 1228 2736 
Q 959 2375 959 1747 
Q 959 1119 1226 758 
Q 1494 397 1959 397 
Q 2419 397 2687 759 
Q 2956 1122 2956 1747 
Q 2956 2369 2687 2733 
Q 2419 3097 1959 3097 
z
M 1959 3584 
Q 2709 3584 3137 3096 
Q 3566 2609 3566 1747 
Q 3566 888 3137 398 
Q 2709 -91 1959 -91 
Q 1206 -91 779 398 
Q 353 888 353 1747 
Q 353 2609 779 3096 
Q 1206 3584 1959 3584 
z
" transform="scale(0.015625)"/>
      <path id="DejaVuSans-75" d="M 544 1381 
L 544 3500 
L 1119 3500 
L 1119 1403 
Q 1119 906 1312 657 
Q 1506 409 1894 409 
Q 2359 409 2629 706 
Q 2900 1003 2900 1516 
L 2900 3500 
L 3475 3500 
L 3475 0 
L 2900 0 
L 2900 538 
Q 2691 219 2414 64 
Q 2138 -91 1772 -91 
Q 1169 -91 856 284 
Q 544 659 544 1381 
z
M 1991 3584 
L 1991 3584 
z
" transform="scale(0.015625)"/>
      <path id="DejaVuSans-72" d="M 2631 2963 
Q 2534 3019 2420 3045 
Q 2306 3072 2169 3072 
Q 1681 3072 1420 2755 
Q 1159 2438 1159 1844 
L 1159 0 
L 581 0 
L 581 3500 
L 1159 3500 
L 1159 2956 
Q 1341 3275 1631 3429 
Q 1922 3584 2338 3584 
Q 2397 3584 2469 3576 
Q 2541 3569 2628 3553 
L 2631 2963 
z
" transform="scale(0.015625)"/>
      <path id="DejaVuSans-63" d="M 3122 3366 
L 3122 2828 
Q 2878 2963 2633 3030 
Q 2388 3097 2138 3097 
Q 1578 3097 1268 2742 
Q 959 2388 959 1747 
Q 959 1106 1268 751 
Q 1578 397 2138 397 
Q 2388 397 2633 464 
Q 2878 531 3122 666 
L 3122 134 
Q 2881 22 2623 -34 
Q 2366 -91 2075 -91 
Q 1284 -91 818 406 
Q 353 903 353 1747 
Q 353 2603 823 3093 
Q 1294 3584 2113 3584 
Q 2378 3584 2631 3529 
Q 2884 3475 3122 3366 
z
" transform="scale(0.015625)"/>
      <path id="DejaVuSans-65" d="M 3597 1894 
L 3597 1613 
L 953 1613 
Q 991 1019 1311 708 
Q 1631 397 2203 397 
Q 2534 397 2845 478 
Q 3156 559 3463 722 
L 3463 178 
Q 3153 47 2828 -22 
Q 2503 -91 2169 -91 
Q 1331 -91 842 396 
Q 353 884 353 1716 
Q 353 2575 817 3079 
Q 1281 3584 2069 3584 
Q 2775 3584 3186 3129 
Q 3597 2675 3597 1894 
z
M 3022 2063 
Q 3016 2534 2758 2815 
Q 2500 3097 2075 3097 
Q 1594 3097 1305 2825 
Q 1016 2553 972 2059 
L 3022 2063 
z
" transform="scale(0.015625)"/>
      <path id="DejaVuSans-2d" d="M 313 2009 
L 1997 2009 
L 1997 1497 
L 313 1497 
L 313 2009 
z
" transform="scale(0.015625)"/>
      <path id="DejaVuSans-69" d="M 603 3500 
L 1178 3500 
L 1178 0 
L 603 0 
L 603 3500 
z
M 603 4863 
L 1178 4863 
L 1178 4134 
L 603 4134 
L 603 4863 
z
" transform="scale(0.015625)"/>
      <path id="DejaVuSans-76" d="M 191 3500 
L 800 3500 
L 1894 563 
L 2988 3500 
L 3597 3500 
L 2284 0 
L 1503 0 
L 191 3500 
z
" transform="scale(0.015625)"/>
      <path id="DejaVuSans-36" d="M 2113 2584 
Q 1688 2584 1439 2293 
Q 1191 2003 1191 1497 
Q 1191 994 1439 701 
Q 1688 409 2113 409 
Q 2538 409 2786 701 
Q 3034 994 3034 1497 
Q 3034 2003 2786 2293 
Q 2538 2584 2113 2584 
z
M 3366 4563 
L 3366 3988 
Q 3128 4100 2886 4159 
Q 2644 4219 2406 4219 
Q 1781 4219 1451 3797 
Q 1122 3375 1075 2522 
Q 1259 2794 1537 2939 
Q 1816 3084 2150 3084 
Q 2853 3084 3261 2657 
Q 3669 2231 3669 1497 
Q 3669 778 3244 343 
Q 2819 -91 2113 -91 
Q 1303 -91 875 529 
Q 447 1150 447 2328 
Q 447 3434 972 4092 
Q 1497 4750 2381 4750 
Q 2619 4750 2861 4703 
Q 3103 4656 3366 4563 
z
" transform="scale(0.015625)"/>
     </defs>
     <use xlink:href="#DejaVuSans-73"/>
     <use xlink:href="#DejaVuSans-6f" x="52.099609"/>
     <use xlink:href="#DejaVuSans-75" x="113.28125"/>
     <use xlink:href="#DejaVuSans-72" x="176.660156"/>
     <use xlink:href="#DejaVuSans-63" x="215.523438"/>
     <use xlink:href="#DejaVuSans-65" x="270.503906"/>
     <use xlink:href="#DejaVuSans-35" x="332.027344"/>
     <use xlink:href="#DejaVuSans-2d" x="395.650391"/>
     <use xlink:href="#DejaVuSans-72" x="431.734375"/>
     <use xlink:href="#DejaVuSans-65" x="470.597656"/>
     <use xlink:href="#DejaVuSans-63" x="532.121094"/>
     <use xlink:href="#DejaVuSans-65" x="587.101562"/>
     <use xlink:href="#DejaVuSans-69" x="648.625"/>
     <use xlink:href="#DejaVuSans-76" x="676.408203"/>
     <use xlink:href="#DejaVuSans-65" x="735.587891"/>
     <use xlink:href="#DejaVuSans-72" x="797.111328"/>
     <use xlink:href="#DejaVuSans-31" x="838.224609"/>
     <use xlink:href="#DejaVuSans-36" x="901.847656"/>
    </g>
   </g>
  </g>
 </g>
 <defs>
  <clipPath id="pe2817907de">
   <rect x="180" y="69.12" width="1116" height="443.52"/>
  </clipPath>
 </defs>
</svg>
