<?xml version="1.0" encoding="utf-8" standalone="no"?>
<!DOCTYPE svg PUBLIC "-//W3C//DTD SVG 1.1//EN"
  "http://www.w3.org/Graphics/SVG/1.1/DTD/svg11.dtd">
<svg xmlns:xlink="http://www.w3.org/1999/xlink" width="1440pt" height="576pt" viewBox="0 0 1440 576" xmlns="http://www.w3.org/2000/svg" version="1.1">
 <metadata>
  <rdf:RDF xmlns:dc="http://purl.org/dc/elements/1.1/" xmlns:cc="http://creativecommons.org/ns#" xmlns:rdf="http://www.w3.org/1999/02/22-rdf-syntax-ns#">
   <cc:Work>
    <dc:type rdf:resource="http://purl.org/dc/dcmitype/StillImage"/>
    <dc:date>2024-05-22T04:49:48.045603</dc:date>
    <dc:format>image/svg+xml</dc:format>
    <dc:creator>
     <cc:Agent>
      <dc:title>Matplotlib v3.8.3, https://matplotlib.org/</dc:title>
     </cc:Agent>
    </dc:creator>
   </cc:Work>
  </rdf:RDF>
 </metadata>
 <defs>
  <style type="text/css">*{stroke-linejoin: round; stroke-linecap: butt}</style>
 </defs>
 <g id="figure_1">
  <g id="patch_1">
   <path d="M 0 576 
L 1440 576 
L 1440 0 
L 0 0 
z
" style="fill: #ffffff"/>
  </g>
  <g id="axes_1">
   <g id="patch_2">
    <path d="M 180 512.64 
L 1296 512.64 
L 1296 69.12 
L 180 69.12 
z
" style="fill: #ffffff"/>
   </g>
   <g id="matplotlib.axis_1">
    <g id="xtick_1">
     <g id="line2d_1">
      <defs>
       <path id="m48f8f465c8" d="M 0 0 
L 0 3.5 
" style="stroke: #000000; stroke-width: 0.8"/>
      </defs>
      <g>
       <use xlink:href="#m48f8f465c8" x="229.734567" y="512.64" style="stroke: #000000; stroke-width: 0.8"/>
      </g>
     </g>
     <g id="text_1">
      <!-- 0 -->
      <g transform="translate(226.553317 527.238438) scale(0.1 -0.1)">
       <defs>
        <path id="DejaVuSans-30" d="M 2034 4250 
Q 1547 4250 1301 3770 
Q 1056 3291 1056 2328 
Q 1056 1369 1301 889 
Q 1547 409 2034 409 
Q 2525 409 2770 889 
Q 3016 1369 3016 2328 
Q 3016 3291 2770 3770 
Q 2525 4250 2034 4250 
z
M 2034 4750 
Q 2819 4750 3233 4129 
Q 3647 3509 3647 2328 
Q 3647 1150 3233 529 
Q 2819 -91 2034 -91 
Q 1250 -91 836 529 
Q 422 1150 422 2328 
Q 422 3509 836 4129 
Q 1250 4750 2034 4750 
z
" transform="scale(0.015625)"/>
       </defs>
       <use xlink:href="#DejaVuSans-30"/>
      </g>
     </g>
    </g>
    <g id="xtick_2">
     <g id="line2d_2">
      <g>
       <use xlink:href="#m48f8f465c8" x="433.04074" y="512.64" style="stroke: #000000; stroke-width: 0.8"/>
      </g>
     </g>
     <g id="text_2">
      <!-- 500 -->
      <g transform="translate(423.49699 527.238438) scale(0.1 -0.1)">
       <defs>
        <path id="DejaVuSans-35" d="M 691 4666 
L 3169 4666 
L 3169 4134 
L 1269 4134 
L 1269 2991 
Q 1406 3038 1543 3061 
Q 1681 3084 1819 3084 
Q 2600 3084 3056 2656 
Q 3513 2228 3513 1497 
Q 3513 744 3044 326 
Q 2575 -91 1722 -91 
Q 1428 -91 1123 -41 
Q 819 9 494 109 
L 494 744 
Q 775 591 1075 516 
Q 1375 441 1709 441 
Q 2250 441 2565 725 
Q 2881 1009 2881 1497 
Q 2881 1984 2565 2268 
Q 2250 2553 1709 2553 
Q 1456 2553 1204 2497 
Q 953 2441 691 2322 
L 691 4666 
z
" transform="scale(0.015625)"/>
       </defs>
       <use xlink:href="#DejaVuSans-35"/>
       <use xlink:href="#DejaVuSans-30" x="63.623047"/>
       <use xlink:href="#DejaVuSans-30" x="127.246094"/>
      </g>
     </g>
    </g>
    <g id="xtick_3">
     <g id="line2d_3">
      <g>
       <use xlink:href="#m48f8f465c8" x="636.346913" y="512.64" style="stroke: #000000; stroke-width: 0.8"/>
      </g>
     </g>
     <g id="text_3">
      <!-- 1000 -->
      <g transform="translate(623.621913 527.238438) scale(0.1 -0.1)">
       <defs>
        <path id="DejaVuSans-31" d="M 794 531 
L 1825 531 
L 1825 4091 
L 703 3866 
L 703 4441 
L 1819 4666 
L 2450 4666 
L 2450 531 
L 3481 531 
L 3481 0 
L 794 0 
L 794 531 
z
" transform="scale(0.015625)"/>
       </defs>
       <use xlink:href="#DejaVuSans-31"/>
       <use xlink:href="#DejaVuSans-30" x="63.623047"/>
       <use xlink:href="#DejaVuSans-30" x="127.246094"/>
       <use xlink:href="#DejaVuSans-30" x="190.869141"/>
      </g>
     </g>
    </g>
    <g id="xtick_4">
     <g id="line2d_4">
      <g>
       <use xlink:href="#m48f8f465c8" x="839.653087" y="512.64" style="stroke: #000000; stroke-width: 0.8"/>
      </g>
     </g>
     <g id="text_4">
      <!-- 1500 -->
      <g transform="translate(826.928087 527.238438) scale(0.1 -0.1)">
       <use xlink:href="#DejaVuSans-31"/>
       <use xlink:href="#DejaVuSans-35" x="63.623047"/>
       <use xlink:href="#DejaVuSans-30" x="127.246094"/>
       <use xlink:href="#DejaVuSans-30" x="190.869141"/>
      </g>
     </g>
    </g>
    <g id="xtick_5">
     <g id="line2d_5">
      <g>
       <use xlink:href="#m48f8f465c8" x="1042.95926" y="512.64" style="stroke: #000000; stroke-width: 0.8"/>
      </g>
     </g>
     <g id="text_5">
      <!-- 2000 -->
      <g transform="translate(1030.23426 527.238438) scale(0.1 -0.1)">
       <defs>
        <path id="DejaVuSans-32" d="M 1228 531 
L 3431 531 
L 3431 0 
L 469 0 
L 469 531 
Q 828 903 1448 1529 
Q 2069 2156 2228 2338 
Q 2531 2678 2651 2914 
Q 2772 3150 2772 3378 
Q 2772 3750 2511 3984 
Q 2250 4219 1831 4219 
Q 1534 4219 1204 4116 
Q 875 4013 500 3803 
L 500 4441 
Q 881 4594 1212 4672 
Q 1544 4750 1819 4750 
Q 2544 4750 2975 4387 
Q 3406 4025 3406 3419 
Q 3406 3131 3298 2873 
Q 3191 2616 2906 2266 
Q 2828 2175 2409 1742 
Q 1991 1309 1228 531 
z
" transform="scale(0.015625)"/>
       </defs>
       <use xlink:href="#DejaVuSans-32"/>
       <use xlink:href="#DejaVuSans-30" x="63.623047"/>
       <use xlink:href="#DejaVuSans-30" x="127.246094"/>
       <use xlink:href="#DejaVuSans-30" x="190.869141"/>
      </g>
     </g>
    </g>
    <g id="xtick_6">
     <g id="line2d_6">
      <g>
       <use xlink:href="#m48f8f465c8" x="1246.265433" y="512.64" style="stroke: #000000; stroke-width: 0.8"/>
      </g>
     </g>
     <g id="text_6">
      <!-- 2500 -->
      <g transform="translate(1233.540433 527.238438) scale(0.1 -0.1)">
       <use xlink:href="#DejaVuSans-32"/>
       <use xlink:href="#DejaVuSans-35" x="63.623047"/>
       <use xlink:href="#DejaVuSans-30" x="127.246094"/>
       <use xlink:href="#DejaVuSans-30" x="190.869141"/>
      </g>
     </g>
    </g>
   </g>
   <g id="matplotlib.axis_2">
    <g id="ytick_1">
     <g id="line2d_7">
      <defs>
       <path id="md92b41468f" d="M 0 0 
L -3.5 0 
" style="stroke: #000000; stroke-width: 0.8"/>
      </defs>
      <g>
       <use xlink:href="#md92b41468f" x="180" y="451.571907" style="stroke: #000000; stroke-width: 0.8"/>
      </g>
     </g>
     <g id="text_7">
      <!-- −4 -->
      <g transform="translate(158.257812 455.371126) scale(0.1 -0.1)">
       <defs>
        <path id="DejaVuSans-2212" d="M 678 2272 
L 4684 2272 
L 4684 1741 
L 678 1741 
L 678 2272 
z
" transform="scale(0.015625)"/>
        <path id="DejaVuSans-34" d="M 2419 4116 
L 825 1625 
L 2419 1625 
L 2419 4116 
z
M 2253 4666 
L 3047 4666 
L 3047 1625 
L 3713 1625 
L 3713 1100 
L 3047 1100 
L 3047 0 
L 2419 0 
L 2419 1100 
L 313 1100 
L 313 1709 
L 2253 4666 
z
" transform="scale(0.015625)"/>
       </defs>
       <use xlink:href="#DejaVuSans-2212"/>
       <use xlink:href="#DejaVuSans-34" x="83.789062"/>
      </g>
     </g>
    </g>
    <g id="ytick_2">
     <g id="line2d_8">
      <g>
       <use xlink:href="#md92b41468f" x="180" y="373.310406" style="stroke: #000000; stroke-width: 0.8"/>
      </g>
     </g>
     <g id="text_8">
      <!-- −2 -->
      <g transform="translate(158.257812 377.109625) scale(0.1 -0.1)">
       <use xlink:href="#DejaVuSans-2212"/>
       <use xlink:href="#DejaVuSans-32" x="83.789062"/>
      </g>
     </g>
    </g>
    <g id="ytick_3">
     <g id="line2d_9">
      <g>
       <use xlink:href="#md92b41468f" x="180" y="295.048904" style="stroke: #000000; stroke-width: 0.8"/>
      </g>
     </g>
     <g id="text_9">
      <!-- 0 -->
      <g transform="translate(166.6375 298.848123) scale(0.1 -0.1)">
       <use xlink:href="#DejaVuSans-30"/>
      </g>
     </g>
    </g>
    <g id="ytick_4">
     <g id="line2d_10">
      <g>
       <use xlink:href="#md92b41468f" x="180" y="216.787403" style="stroke: #000000; stroke-width: 0.8"/>
      </g>
     </g>
     <g id="text_10">
      <!-- 2 -->
      <g transform="translate(166.6375 220.586622) scale(0.1 -0.1)">
       <use xlink:href="#DejaVuSans-32"/>
      </g>
     </g>
    </g>
    <g id="ytick_5">
     <g id="line2d_11">
      <g>
       <use xlink:href="#md92b41468f" x="180" y="138.525902" style="stroke: #000000; stroke-width: 0.8"/>
      </g>
     </g>
     <g id="text_11">
      <!-- 4 -->
      <g transform="translate(166.6375 142.32512) scale(0.1 -0.1)">
       <use xlink:href="#DejaVuSans-34"/>
      </g>
     </g>
    </g>
   </g>
   <g id="line2d_12">
    <path d="M 230.727273 304.607731 
L 231.719979 315.225459 
L 232.712685 286.247536 
L 233.70539 305.531388 
L 234.698096 331.664567 
L 235.690802 293.098761 
L 236.683508 314.077199 
L 237.676214 325.60162 
L 238.66892 294.683161 
L 239.661626 321.305848 
L 240.654332 315.997986 
L 241.647038 294.382603 
L 242.639744 330.40148 
L 243.63245 302.101832 
L 244.625156 290.19369 
L 245.617862 358.296652 
L 246.610568 291.543671 
L 247.603273 287.937551 
L 248.595979 316.828686 
L 249.588685 263.914755 
L 250.581391 262.731858 
L 251.574097 256.71985 
L 252.566803 223.568356 
L 253.559509 219.378984 
L 254.552215 262.012673 
L 255.544921 229.696321 
L 256.537627 203.989031 
L 257.530333 216.54264 
L 258.523039 234.458759 
L 259.515745 191.469623 
L 260.50845 186.671395 
L 261.501156 220.631334 
L 262.493862 212.057607 
L 263.486568 182.728857 
L 264.479274 190.643574 
L 265.47198 226.957697 
L 266.464686 180.157315 
L 267.457392 168.54502 
L 269.442804 196.516372 
L 270.43551 169.669939 
L 271.428216 169.125477 
L 272.420922 199.831417 
L 273.413627 164.897748 
L 274.406333 145.591106 
L 275.399039 153.733881 
L 276.391745 271.28598 
L 277.384451 142.965645 
L 278.377157 120.764157 
L 279.369863 114.007426 
L 280.362569 109.232535 
L 281.355275 99.943725 
L 282.347981 91.940546 
L 283.340687 89.28 
L 284.333393 91.660294 
L 285.326099 96.838666 
L 286.318804 102.773741 
L 287.31151 109.483397 
L 288.304216 118.765386 
L 289.296922 134.288617 
L 290.289628 159.85994 
L 291.282334 161.642573 
L 292.27504 154.886504 
L 293.267746 164.657305 
L 294.260452 168.019623 
L 295.253158 163.170839 
L 296.245864 171.887297 
L 297.23857 183.233131 
L 298.231276 186.197742 
L 299.223981 197.725 
L 301.209393 211.354568 
L 302.202099 241.485036 
L 303.194805 229.928591 
L 304.187511 226.508626 
L 305.180217 246.315774 
L 306.172923 254.960582 
L 307.165629 270.584744 
L 308.158335 326.56786 
L 309.151041 314.598902 
L 310.143747 300.482413 
L 311.136453 308.409285 
L 312.129159 319.628245 
L 313.121864 281.03253 
L 314.11457 311.981323 
L 315.107276 289.624743 
L 316.099982 271.167477 
L 317.092688 293.144602 
L 319.0781 268.333813 
L 320.070806 289.066742 
L 321.063512 305.939006 
L 322.056218 287.767986 
L 323.048924 313.057512 
L 324.04163 334.134724 
L 325.034336 305.735964 
L 326.027041 366.281079 
L 327.019747 302.164788 
L 328.012453 291.255109 
L 329.005159 321.683597 
L 329.997865 291.207866 
L 330.990571 283.167909 
L 331.983277 308.193006 
L 332.975983 305.351222 
L 333.968689 289.375387 
L 334.961395 310.809948 
L 335.954101 356.663963 
L 336.946807 307.808346 
L 337.939513 319.518478 
L 338.932218 339.902093 
L 339.924924 342.135223 
L 340.91763 341.671934 
L 341.910336 301.719583 
L 342.903042 304.945621 
L 343.895748 327.153518 
L 344.888454 294.796619 
L 345.88116 296.381414 
L 346.873866 327.884146 
L 347.866572 305.978555 
L 348.859278 298.393828 
L 349.851984 352.537669 
L 350.84469 307.531217 
L 351.837395 303.186478 
L 352.830101 322.644853 
L 353.822807 293.852855 
L 354.815513 284.519733 
L 355.808219 293.716435 
L 356.800925 277.887861 
L 357.793631 269.499862 
L 358.786337 278.617985 
L 359.779043 277.79423 
L 360.771749 269.383856 
L 362.757161 294.269041 
L 363.749867 291.699766 
L 364.742572 294.06723 
L 365.735278 340.980488 
L 366.727984 368.576802 
L 367.72069 311.70202 
L 368.713396 287.767491 
L 369.706102 282.235497 
L 370.698808 285.032171 
L 371.691514 271.169116 
L 372.68422 268.528153 
L 373.676926 281.466071 
L 374.669632 290.485024 
L 375.662338 302.163372 
L 376.655044 333.6563 
L 377.64775 285.068376 
L 378.640455 270.310026 
L 379.633161 248.970275 
L 380.625867 232.851692 
L 381.618573 224.074003 
L 382.611279 216.66598 
L 383.603985 208.365571 
L 384.596691 202.778978 
L 387.574809 191.465974 
L 388.567515 190.658446 
L 390.552927 187.744242 
L 391.545632 188.197174 
L 392.538338 189.530555 
L 393.531044 190.241213 
L 394.52375 192.333854 
L 397.501868 203.483206 
L 400.479986 222.311189 
L 402.465398 246.199822 
L 403.458104 254.871949 
L 404.450809 270.444444 
L 405.443515 279.269057 
L 406.436221 269.604744 
L 407.428927 271.940764 
L 408.421633 265.421371 
L 409.414339 257.90233 
L 410.407045 261.458594 
L 411.399751 262.088329 
L 412.392457 258.785744 
L 413.385163 263.194273 
L 414.377869 271.312414 
L 415.370575 265.672254 
L 416.363281 274.700334 
L 417.355986 278.12481 
L 418.348692 275.039457 
L 420.334104 288.921586 
L 421.32681 283.260184 
L 422.319516 291.268025 
L 423.312222 303.809417 
L 424.304928 293.725098 
L 425.297634 301.560453 
L 426.29034 312.440422 
L 427.283046 314.716815 
L 428.275752 322.534053 
L 429.268458 332.863236 
L 430.261163 336.191519 
L 431.253869 320.090966 
L 432.246575 457.791955 
L 433.239281 341.854513 
L 434.231987 350.142592 
L 435.224693 403.176499 
L 436.217399 345.405997 
L 437.210105 356.075353 
L 438.202811 338.729723 
L 439.195517 317.663577 
L 440.188223 322.553839 
L 441.180929 335.308706 
L 442.173635 305.803719 
L 443.166341 314.858464 
L 444.159046 326.874153 
L 445.151752 308.603987 
L 446.144458 311.629149 
L 447.137164 329.303583 
L 448.12987 325.952727 
L 449.122576 323.711763 
L 450.115282 362.25695 
L 451.107988 338.832785 
L 452.100694 332.403883 
L 453.0934 344.167174 
L 454.086106 317.639123 
L 455.078812 309.472462 
L 456.071518 319.291054 
L 457.064223 309.288804 
L 458.056929 303.535258 
L 459.049635 319.598808 
L 460.042341 318.381615 
L 461.035047 316.378289 
L 462.027753 347.545716 
L 463.020459 359.242318 
L 464.013165 345.361514 
L 465.005871 349.380072 
L 465.998577 311.493998 
L 466.991283 303.547172 
L 467.983989 306.61705 
L 468.976695 291.585712 
L 469.9694 287.124763 
L 470.962106 291.998599 
L 471.954812 291.710026 
L 472.947518 286.609048 
L 473.940224 293.374795 
L 474.93293 305.849848 
L 475.925636 304.603621 
L 476.918342 313.492359 
L 477.911048 345.867052 
L 478.903754 373.669628 
L 479.89646 339.951768 
L 480.889166 310.992441 
L 481.881872 302.900617 
L 482.874577 299.650312 
L 484.859989 279.72104 
L 485.852695 281.614517 
L 486.845401 279.262141 
L 487.838107 270.82056 
L 488.830813 272.849374 
L 489.823519 273.475652 
L 490.816225 268.17194 
L 491.808931 265.417242 
L 492.801637 268.199172 
L 494.787049 259.971787 
L 495.779754 261.576493 
L 496.77246 258.741746 
L 497.765166 254.369349 
L 498.757872 253.238497 
L 499.750578 254.231468 
L 500.743284 249.956515 
L 501.73599 249.284939 
L 502.728696 251.696885 
L 503.721402 250.853852 
L 504.714108 249.702911 
L 505.706814 253.428192 
L 506.69952 256.407526 
L 507.692226 257.761991 
L 508.684932 264.193474 
L 510.670343 279.431578 
L 511.663049 286.669069 
L 512.655755 311.50721 
L 513.648461 311.357652 
L 514.641167 327.382187 
L 515.633873 314.507408 
L 516.626579 297.182598 
L 517.619285 297.06447 
L 518.611991 292.723558 
L 519.604697 285.118515 
L 520.597403 289.396824 
L 521.590109 291.151327 
L 522.582814 292.457096 
L 523.57552 299.735938 
L 524.568226 314.254531 
L 526.553638 321.615168 
L 527.546344 341.605473 
L 528.53905 318.367655 
L 529.531756 323.74999 
L 530.524462 313.558468 
L 531.517168 302.025451 
L 532.509874 302.83452 
L 533.50258 306.88037 
L 534.495286 307.549659 
L 535.487991 305.006172 
L 536.480697 332.554289 
L 537.473403 324.009683 
L 538.466109 343.084345 
L 539.458815 351.533342 
L 540.451521 361.853443 
L 541.444227 398.363916 
L 542.436933 342.230635 
L 543.429639 329.529473 
L 544.422345 336.688719 
L 545.415051 340.083455 
L 546.407757 321.890143 
L 547.400463 335.4226 
L 548.393168 351.951063 
L 549.385874 361.480564 
L 550.37858 351.837317 
L 551.371286 371.32768 
L 552.363992 366.943915 
L 553.356698 381.448431 
L 554.349404 345.984771 
L 555.34211 335.422432 
L 556.334816 354.128619 
L 557.327522 340.359812 
L 558.320228 328.311194 
L 559.312934 350.111407 
L 560.30564 366.074414 
L 561.298345 376.268116 
L 562.291051 351.327802 
L 563.283757 368.043691 
L 564.276463 415.841556 
L 565.269169 373.348752 
L 566.261875 340.309899 
L 567.254581 333.350001 
L 568.247287 355.941767 
L 569.239993 325.117711 
L 570.232699 324.584666 
L 571.225405 338.619848 
L 572.218111 338.374821 
L 573.210817 328.170392 
L 574.203523 338.267401 
L 575.196228 344.858226 
L 576.188934 333.415109 
L 577.18164 339.712862 
L 578.174346 363.158259 
L 579.167052 336.355521 
L 580.159758 347.868676 
L 581.152464 372.045112 
L 582.14517 342.434899 
L 583.137876 348.421694 
L 584.130582 380.237358 
L 585.123288 338.391308 
L 586.115994 334.696061 
L 587.1087 345.088479 
L 588.101405 326.061173 
L 589.094111 319.965306 
L 590.086817 327.371168 
L 591.079523 314.366826 
L 592.072229 309.291422 
L 593.064935 310.780918 
L 594.057641 310.175339 
L 595.050347 302.967076 
L 596.043053 306.849536 
L 597.035759 313.274691 
L 598.028465 307.665663 
L 599.021171 312.51849 
L 600.013877 325.934126 
L 601.006582 340.893665 
L 601.999288 341.091628 
L 602.991994 358.709203 
L 603.9847 367.879882 
L 604.977406 364.197135 
L 605.970112 334.942005 
L 606.962818 314.860443 
L 607.955524 316.486853 
L 608.94823 312.57177 
L 609.940936 302.61256 
L 610.933642 300.464749 
L 611.926348 306.014439 
L 612.919054 302.440751 
L 613.911759 298.317007 
L 614.904465 305.807795 
L 615.897171 310.020894 
L 616.889877 308.382023 
L 617.882583 307.646875 
L 618.875289 315.286603 
L 619.867995 317.581603 
L 620.860701 310.301467 
L 621.853407 309.594626 
L 622.846113 319.208299 
L 623.838819 318.93058 
L 624.831525 313.704498 
L 625.824231 322.905952 
L 626.816936 336.882757 
L 627.809642 335.003083 
L 628.802348 340.402956 
L 629.795054 360.813899 
L 630.78776 404.632952 
L 631.780466 365.258006 
L 632.773172 335.859896 
L 633.765878 331.722236 
L 634.758584 338.745688 
L 635.75129 326.699258 
L 636.743996 317.638003 
L 637.736702 326.21672 
L 638.729408 328.939026 
L 639.722114 320.23337 
L 640.714819 329.136479 
L 641.707525 347.964873 
L 642.700231 339.180803 
L 643.692937 345.003991 
L 644.685643 386.954009 
L 645.678349 365.149177 
L 646.671055 364.238703 
L 647.663761 425.536306 
L 648.656467 357.601032 
L 649.649173 363.977434 
L 650.641879 407.788622 
L 651.634585 368.105385 
L 652.627291 370.403813 
L 653.619996 403.502665 
L 654.612702 414.351154 
L 655.605408 396.093094 
L 656.598114 371.141288 
L 657.59082 366.167642 
L 658.583526 397.171103 
L 659.576232 360.346328 
L 660.568938 348.682421 
L 661.561644 364.643851 
L 662.55435 371.26248 
L 663.547056 349.370182 
L 664.539762 360.381447 
L 665.532468 396.163464 
L 666.525173 367.151034 
L 667.517879 366.182995 
L 668.510585 418.037054 
L 669.503291 399.462866 
L 670.495997 383.974789 
L 671.488703 397.165016 
L 672.481409 406.667336 
L 673.474115 392.293577 
L 674.466821 390.591297 
L 675.459527 415.197772 
L 676.452233 398.077618 
L 677.444939 370.525108 
L 678.437645 383.505999 
L 679.43035 409.816638 
L 680.423056 362.191566 
L 681.415762 358.562358 
L 682.408468 385.463373 
L 683.401174 364.20326 
L 684.39388 350.68847 
L 685.386586 365.356578 
L 686.379292 382.652544 
L 687.371998 356.057522 
L 688.364704 357.874148 
L 689.35741 389.805927 
L 691.342822 362.052857 
L 692.335527 380.395697 
L 693.328233 429.439912 
L 694.320939 377.774266 
L 695.313645 389.144231 
L 696.306351 416.519774 
L 697.299057 381.481413 
L 698.291763 402.609713 
L 699.284469 389.850667 
L 700.277175 358.697746 
L 701.269881 364.977507 
L 702.262587 373.804416 
L 703.255293 345.825369 
L 704.247999 344.237613 
L 705.240705 357.514656 
L 706.23341 340.268632 
L 707.226116 333.732208 
L 708.218822 344.474298 
L 709.211528 338.098314 
L 710.204234 327.12675 
L 711.19694 333.414855 
L 712.189646 333.832039 
L 713.182352 321.812977 
L 714.175058 323.323382 
L 715.167764 328.084338 
L 716.16047 318.360603 
L 717.153176 316.112165 
L 718.145882 322.667366 
L 719.138587 318.917039 
L 720.131293 313.374741 
L 721.123999 319.144386 
L 722.116705 323.57152 
L 723.109411 317.444265 
L 724.102117 320.592114 
L 725.094823 332.233937 
L 726.087529 329.949703 
L 727.080235 329.189903 
L 728.072941 345.095103 
L 729.065647 358.717655 
L 730.058353 351.924916 
L 731.051059 364.171363 
L 732.043764 409.840197 
L 733.03647 462.549803 
L 734.029176 390.060262 
L 735.021882 360.021795 
L 736.014588 360.526589 
L 737.007294 372.723539 
L 738 348.591933 
L 738.992706 341.471053 
L 739.985412 353.570077 
L 740.978118 351.664187 
L 741.970824 339.459279 
L 742.96353 347.17151 
L 743.956236 363.293337 
L 744.948941 349.056295 
L 745.941647 349.127401 
L 746.934353 373.616677 
L 747.927059 370.806823 
L 748.919765 358.032379 
L 749.912471 373.266767 
L 750.905177 410.692008 
L 751.897883 371.837107 
L 752.890589 368.604023 
L 753.883295 400.686964 
L 754.876001 387.667698 
L 755.868707 363.672539 
L 756.861413 372.990016 
L 757.854118 397.325968 
L 758.846824 361.443774 
L 759.83953 358.69982 
L 760.832236 384.331992 
L 761.824942 366.073863 
L 762.817648 354.54039 
L 763.810354 372.429664 
L 764.80306 381.319021 
L 765.795766 359.602879 
L 766.788472 370.891363 
L 767.781178 422.724095 
L 768.773884 379.341374 
L 769.76659 385.21705 
L 770.759295 426.904412 
L 771.752001 394.838898 
L 772.744707 422.045112 
L 773.737413 395.285574 
L 774.730119 371.770988 
L 775.722825 391.92921 
L 776.715531 389.842025 
L 777.708237 361.554297 
L 778.700943 370.678909 
L 779.693649 395.141898 
L 780.686355 362.731742 
L 781.679061 365.973514 
L 782.671767 403.750824 
L 783.664473 370.262789 
L 784.657178 368.174482 
L 785.649884 412.938215 
L 786.64259 371.732927 
L 787.635296 366.497214 
L 788.628002 398.464686 
L 789.620708 366.045583 
L 790.613414 357.214007 
L 791.60612 378.744217 
L 792.598826 363.081675 
L 793.591532 350.711148 
L 794.584238 365.679556 
L 795.576944 367.132743 
L 796.56965 350.846334 
L 797.562355 361.517773 
L 798.555061 379.410302 
L 799.547767 357.938956 
L 800.540473 364.537291 
L 801.533179 401.778578 
L 802.525885 371.869196 
L 803.518591 373.716553 
L 804.511297 448.994761 
L 805.504003 385.635097 
L 806.496709 386.171943 
L 807.489415 472.749578 
L 808.482121 385.478864 
L 809.474827 391.800689 
L 810.467532 440.486879 
L 811.460238 380.983832 
L 812.452944 392.279839 
L 813.44565 424.453724 
L 814.438356 376.367787 
L 815.431062 388.778166 
L 816.423768 404.1928 
L 817.416474 365.285853 
L 818.40918 372.091984 
L 819.401886 382.981876 
L 820.394592 353.843984 
L 821.387298 353.80071 
L 822.380004 366.171275 
L 823.372709 347.166662 
L 824.365415 342.458333 
L 825.358121 355.202014 
L 826.350827 347.972677 
L 827.343533 339.345282 
L 828.336239 350.006759 
L 829.328945 357.950193 
L 830.321651 345.99013 
L 831.314357 351.741269 
L 832.307063 377.490346 
L 833.299769 368.598903 
L 834.292475 363.761273 
L 835.285181 384.039557 
L 836.277886 448.5993 
L 837.270592 392.576182 
L 838.263298 370.656819 
L 839.256004 371.813689 
L 840.24871 395.271091 
L 841.241416 366.860113 
L 842.234122 355.016808 
L 843.226828 369.282296 
L 844.219534 374.256292 
L 845.21224 356.268835 
L 846.204946 363.066653 
L 847.197652 394.20299 
L 848.190358 371.437499 
L 849.183064 371.242691 
L 850.175769 424.762691 
L 851.168475 394.847415 
L 852.161181 388.552405 
L 853.153887 488.927387 
L 854.146593 383.824208 
L 855.139299 380.206941 
L 856.132005 422.702373 
L 857.124711 377.849089 
L 858.117417 366.251178 
L 859.110123 386.647409 
L 860.102829 390.982716 
L 861.095535 366.319483 
L 862.088241 370.655273 
L 863.080946 404.327219 
L 864.073652 380.707057 
L 865.066358 366.740703 
L 866.059064 379.638275 
L 867.05177 408.153978 
L 868.044476 373.913964 
L 869.037182 370.088354 
L 870.029888 401.334263 
L 871.022594 395.976429 
L 872.0153 376.115155 
L 873.008006 395.21678 
L 874.000712 438.644773 
L 874.993418 393.472595 
L 875.986123 415.24495 
L 876.978829 404.028431 
L 877.971535 383.551836 
L 878.964241 415.64833 
L 880.949653 366.262817 
L 881.942359 379.11357 
L 882.935065 386.662206 
L 883.927771 360.988962 
L 884.920477 365.569208 
L 885.913183 390.78839 
L 886.905889 366.202475 
L 887.898595 364.601405 
L 888.8913 397.039595 
L 889.884006 379.493076 
L 890.876712 371.732234 
L 891.869418 409.711415 
L 892.862124 393.349385 
L 893.85483 380.609076 
L 894.847536 433.759694 
L 895.840242 388.494789 
L 896.832948 377.760576 
L 897.825654 421.732101 
L 898.81836 380.074281 
L 899.811066 369.049881 
L 900.803772 396.450329 
L 901.796477 375.972223 
L 902.789183 362.141855 
L 903.781889 381.275864 
L 904.774595 376.919722 
L 905.767301 359.297733 
L 906.760007 373.427876 
L 907.752713 384.180937 
L 908.745419 362.13045 
L 909.738125 372.419001 
L 910.730831 398.451752 
L 911.723537 369.594684 
L 912.716243 378.024615 
L 913.708949 414.370106 
L 914.701655 372.760071 
L 915.69436 379.844629 
L 916.687066 402.434876 
L 917.679772 365.73923 
L 918.672478 369.290593 
L 919.665184 387.647481 
L 920.65789 360.317442 
L 921.650596 360.104342 
L 922.643302 379.921511 
L 923.636008 360.001574 
L 924.628714 355.758602 
L 925.62142 375.44255 
L 926.614126 360.131314 
L 927.606832 351.754993 
L 928.599537 365.875301 
L 929.592243 355.559117 
L 930.584949 343.824326 
L 931.577655 351.804758 
L 932.570361 349.448679 
L 933.563067 336.847115 
L 934.555773 339.672012 
L 935.548479 345.572116 
L 936.541185 335.105649 
L 937.533891 333.899213 
L 938.526597 344.1753 
L 939.519303 341.062619 
L 940.512009 335.682041 
L 941.504714 344.537167 
L 942.49742 354.57315 
L 943.490126 346.283248 
L 944.482832 347.93842 
L 945.475538 365.736591 
L 946.468244 369.99976 
L 947.46095 357.300404 
L 948.453656 359.561861 
L 949.446362 377.948264 
L 950.439068 372.675914 
L 951.431774 356.063029 
L 952.42448 358.725819 
L 953.417186 375.439583 
L 954.409891 363.8719 
L 955.402597 354.075227 
L 956.395303 365.399375 
L 957.388009 383.246189 
L 958.380715 365.384598 
L 959.373421 363.295622 
L 960.366127 384.720298 
L 961.358833 401.177658 
L 962.351539 374.903879 
L 963.344245 372.061054 
L 964.336951 393.275242 
L 965.329657 402.582275 
L 966.322363 371.933447 
L 967.315068 369.296112 
L 968.307774 393.152005 
L 969.30048 384.0398 
L 970.293186 365.922648 
L 971.285892 375.678919 
L 972.278598 406.460537 
L 973.271304 375.928054 
L 974.26401 374.282638 
L 975.256716 413.736832 
L 976.249422 395.443313 
L 977.242128 380.744845 
L 978.234834 412.81858 
L 979.22754 407.171977 
L 980.220246 381.472448 
L 981.212951 401.278452 
L 982.205657 412.334027 
L 983.198363 376.231254 
L 984.191069 381.262527 
L 985.183775 418.671212 
L 986.176481 379.865909 
L 987.169187 372.063332 
L 988.161893 395.599955 
L 989.154599 399.034177 
L 990.147305 373.340294 
L 991.140011 380.847367 
L 992.132717 429.072754 
L 993.125423 389.489645 
L 994.118128 379.804109 
L 995.110834 404.746845 
L 996.10354 435.132152 
L 997.096246 391.601955 
L 998.088952 394.862412 
L 999.081658 432.641728 
L 1000.074364 418.869522 
L 1001.06707 401.453418 
L 1002.059776 407.120564 
L 1003.052482 422.700809 
L 1004.045188 417.52704 
L 1005.037894 406.783124 
L 1006.0306 412.871261 
L 1007.023305 421.381945 
L 1008.016011 408.112565 
L 1009.008717 409.039884 
L 1010.001423 431.319833 
L 1010.994129 404.382928 
L 1011.986835 398.324334 
L 1012.979541 444.118975 
L 1013.972247 407.698574 
L 1014.964953 388.76426 
L 1016.950365 430.269957 
L 1017.943071 386.273936 
L 1018.935777 391.508415 
L 1019.928482 492.48 
L 1020.921188 393.719423 
L 1021.913894 388.254935 
L 1022.9066 444.434616 
L 1023.899306 401.549607 
L 1024.892012 391.851622 
L 1025.884718 450.522382 
L 1026.877424 398.29434 
L 1027.87013 385.170516 
L 1028.862836 426.034132 
L 1029.855542 393.302864 
L 1030.848248 375.377911 
L 1031.840954 395.673628 
L 1032.833659 396.308387 
L 1033.826365 370.711455 
L 1034.819071 382.916458 
L 1035.811777 402.758464 
L 1036.804483 371.119155 
L 1037.797189 376.36013 
L 1038.789895 403.354213 
L 1039.782601 370.410184 
L 1040.775307 368.649578 
L 1041.768013 391.472579 
L 1042.760719 367.057622 
L 1043.753425 358.995471 
L 1044.746131 374.879142 
L 1045.738837 366.960374 
L 1046.731542 353.947426 
L 1048.716954 373.059638 
L 1049.70966 357.25154 
L 1050.702366 360.075307 
L 1051.695072 383.618083 
L 1052.687778 374.304612 
L 1053.680484 367.488948 
L 1054.67319 386.762946 
L 1055.665896 434.261825 
L 1056.658602 394.346796 
L 1057.651308 384.35251 
L 1058.644014 390.902569 
L 1059.636719 430.20497 
L 1060.629425 389.697661 
L 1061.622131 369.430703 
L 1062.614837 377.03563 
L 1063.607543 394.76559 
L 1064.600249 368.725331 
L 1065.592955 363.915543 
L 1066.585661 383.458579 
L 1067.578367 383.121342 
L 1068.571073 365.860598 
L 1069.563779 372.40266 
L 1070.556485 400.970967 
L 1071.549191 380.416535 
L 1072.541896 369.512291 
L 1073.534602 382.561673 
L 1074.527308 404.701832 
L 1075.520014 374.070281 
L 1076.51272 370.152299 
L 1077.505426 394.473334 
L 1078.498132 384.278365 
L 1079.490838 367.043911 
L 1080.483544 379.262156 
L 1081.47625 394.111361 
L 1082.468956 367.539794 
L 1083.461662 370.01416 
L 1084.454368 394.42717 
L 1085.447073 370.341832 
L 1086.439779 364.406266 
L 1087.432485 385.020739 
L 1088.425191 377.635357 
L 1089.417897 363.587358 
L 1090.410603 377.463624 
L 1091.403309 396.906172 
L 1092.396015 373.078001 
L 1093.388721 377.216895 
L 1094.381427 422.999309 
L 1096.366839 390.667739 
L 1097.359545 396.270493 
L 1098.35225 418.821358 
L 1099.344956 433.072683 
L 1100.337662 383.196152 
L 1101.330368 377.040655 
L 1102.323074 402.847967 
L 1104.308486 367.370827 
L 1105.301192 380.530059 
L 1106.293898 401.709875 
L 1107.286604 374.620966 
L 1108.27931 377.855955 
L 1109.272016 425.128117 
L 1110.264722 401.204638 
L 1111.257428 392.063251 
L 1112.250133 419.423102 
L 1113.242839 416.001425 
L 1114.235545 430.632597 
L 1115.228251 411.583327 
L 1116.220957 386.587988 
L 1117.213663 399.826413 
L 1118.206369 420.520197 
L 1119.199075 379.751342 
L 1120.191781 382.254472 
L 1121.184487 427.105797 
L 1122.177193 386.356351 
L 1123.169899 381.727673 
L 1124.162605 427.372304 
L 1125.15531 400.958177 
L 1126.148016 388.449276 
L 1127.140722 437.288526 
L 1128.133428 402.536323 
L 1129.126134 390.349449 
L 1130.11884 446.086364 
L 1131.111546 397.218612 
L 1132.104252 384.07961 
L 1133.096958 420.296809 
L 1135.08237 381.56341 
L 1136.075076 409.114422 
L 1137.067782 411.576188 
L 1138.060487 384.619426 
L 1139.053193 408.361124 
L 1140.045899 416.891279 
L 1141.038605 385.151478 
L 1142.031311 407.230005 
L 1143.024017 411.985085 
L 1144.016723 379.54634 
L 1145.009429 393.33341 
L 1146.002135 412.142422 
L 1146.994841 376.359744 
L 1147.987547 382.111901 
L 1148.980253 416.599888 
L 1149.972959 378.532558 
L 1150.965664 376.642712 
L 1151.95837 414.608464 
L 1152.951076 387.736936 
L 1153.943782 377.28995 
L 1154.936488 406.446832 
L 1155.929194 409.336849 
L 1156.9219 384.323373 
L 1157.914606 400.663716 
L 1158.907312 459.211821 
L 1159.900018 401.860643 
L 1160.892724 404.973541 
L 1161.88543 416.824875 
L 1162.878136 426.676876 
L 1163.870841 424.512128 
L 1164.863547 395.28202 
L 1165.856253 397.621027 
L 1166.848959 466.105527 
L 1167.841665 389.609504 
L 1168.834371 379.330685 
L 1169.827077 404.33224 
L 1170.819783 398.844154 
L 1171.812489 374.813938 
L 1172.805195 384.169942 
L 1173.797901 416.701003 
L 1174.790607 380.759655 
L 1175.783313 377.920927 
L 1176.776019 413.982296 
L 1177.768724 398.529162 
L 1178.76143 380.635332 
L 1179.754136 401.192061 
L 1180.746842 430.592346 
L 1181.739548 387.801841 
L 1182.732254 396.201179 
L 1183.72496 474.451454 
L 1184.717666 390.672188 
L 1185.710372 388.235574 
L 1186.703078 438.211606 
L 1187.695784 389.787135 
L 1188.68849 376.457121 
L 1189.681196 396.877661 
L 1190.673901 393.966199 
L 1191.666607 370.17026 
L 1192.659313 377.250311 
L 1193.652019 400.370904 
L 1194.644725 373.082406 
L 1195.637431 369.986563 
L 1196.630137 396.818366 
L 1197.622843 391.003108 
L 1198.615549 375.472719 
L 1199.608255 393.746915 
L 1200.600961 458.348441 
L 1201.593667 400.566656 
L 1202.586373 407.31628 
L 1204.571784 407.886728 
L 1205.56449 465.096031 
L 1206.557196 384.843629 
L 1207.549902 374.463975 
L 1208.542608 395.478377 
L 1209.535314 381.532222 
L 1210.52802 363.612394 
L 1211.520726 372.363925 
L 1212.513432 387.556634 
L 1213.506138 366.511118 
L 1214.498844 366.574901 
L 1215.49155 393.147724 
L 1216.484255 386.451973 
L 1217.476961 374.707964 
L 1218.469667 392.796749 
L 1219.462373 483.237985 
L 1220.455079 406.293872 
L 1221.447785 394.457034 
L 1222.440491 395.267438 
L 1223.433197 429.395671 
L 1225.418609 373.839391 
L 1226.411315 380.749776 
L 1227.404021 399.435681 
L 1228.396727 370.371201 
L 1229.389432 367.478669 
L 1230.382138 390.643533 
L 1231.374844 376.421909 
L 1232.36755 366.068714 
L 1233.360256 385.504467 
L 1234.352962 389.622275 
L 1235.345668 370.32325 
L 1236.338374 386.546231 
L 1237.33108 406.243237 
L 1238.323786 376.307564 
L 1239.316492 387.621904 
L 1240.309198 414.842326 
L 1241.301904 377.256889 
L 1242.29461 384.217238 
L 1243.287315 413.323774 
L 1244.280021 375.808625 
L 1245.272727 378.632543 
L 1245.272727 378.632543 
" clip-path="url(#pdc67be3c53)" style="fill: none; stroke: #1f77b4; stroke-width: 1.5; stroke-linecap: square"/>
   </g>
   <g id="patch_3">
    <path d="M 180 512.64 
L 180 69.12 
" style="fill: none; stroke: #000000; stroke-width: 0.8; stroke-linejoin: miter; stroke-linecap: square"/>
   </g>
   <g id="patch_4">
    <path d="M 1296 512.64 
L 1296 69.12 
" style="fill: none; stroke: #000000; stroke-width: 0.8; stroke-linejoin: miter; stroke-linecap: square"/>
   </g>
   <g id="patch_5">
    <path d="M 180 512.64 
L 1296 512.64 
" style="fill: none; stroke: #000000; stroke-width: 0.8; stroke-linejoin: miter; stroke-linecap: square"/>
   </g>
   <g id="patch_6">
    <path d="M 180 69.12 
L 1296 69.12 
" style="fill: none; stroke: #000000; stroke-width: 0.8; stroke-linejoin: miter; stroke-linecap: square"/>
   </g>
   <g id="text_12">
    <!-- source5-receiver17 -->
    <g transform="translate(544.9 60.80125) scale(0.4 -0.4)">
     <defs>
      <path id="DejaVuSans-73" d="M 2834 3397 
L 2834 2853 
Q 2591 2978 2328 3040 
Q 2066 3103 1784 3103 
Q 1356 3103 1142 2972 
Q 928 2841 928 2578 
Q 928 2378 1081 2264 
Q 1234 2150 1697 2047 
L 1894 2003 
Q 2506 1872 2764 1633 
Q 3022 1394 3022 966 
Q 3022 478 2636 193 
Q 2250 -91 1575 -91 
Q 1294 -91 989 -36 
Q 684 19 347 128 
L 347 722 
Q 666 556 975 473 
Q 1284 391 1588 391 
Q 1994 391 2212 530 
Q 2431 669 2431 922 
Q 2431 1156 2273 1281 
Q 2116 1406 1581 1522 
L 1381 1569 
Q 847 1681 609 1914 
Q 372 2147 372 2553 
Q 372 3047 722 3315 
Q 1072 3584 1716 3584 
Q 2034 3584 2315 3537 
Q 2597 3491 2834 3397 
z
" transform="scale(0.015625)"/>
      <path id="DejaVuSans-6f" d="M 1959 3097 
Q 1497 3097 1228 2736 
Q 959 2375 959 1747 
Q 959 1119 1226 758 
Q 1494 397 1959 397 
Q 2419 397 2687 759 
Q 2956 1122 2956 1747 
Q 2956 2369 2687 2733 
Q 2419 3097 1959 3097 
z
M 1959 3584 
Q 2709 3584 3137 3096 
Q 3566 2609 3566 1747 
Q 3566 888 3137 398 
Q 2709 -91 1959 -91 
Q 1206 -91 779 398 
Q 353 888 353 1747 
Q 353 2609 779 3096 
Q 1206 3584 1959 3584 
z
" transform="scale(0.015625)"/>
      <path id="DejaVuSans-75" d="M 544 1381 
L 544 3500 
L 1119 3500 
L 1119 1403 
Q 1119 906 1312 657 
Q 1506 409 1894 409 
Q 2359 409 2629 706 
Q 2900 1003 2900 1516 
L 2900 3500 
L 3475 3500 
L 3475 0 
L 2900 0 
L 2900 538 
Q 2691 219 2414 64 
Q 2138 -91 1772 -91 
Q 1169 -91 856 284 
Q 544 659 544 1381 
z
M 1991 3584 
L 1991 3584 
z
" transform="scale(0.015625)"/>
      <path id="DejaVuSans-72" d="M 2631 2963 
Q 2534 3019 2420 3045 
Q 2306 3072 2169 3072 
Q 1681 3072 1420 2755 
Q 1159 2438 1159 1844 
L 1159 0 
L 581 0 
L 581 3500 
L 1159 3500 
L 1159 2956 
Q 1341 3275 1631 3429 
Q 1922 3584 2338 3584 
Q 2397 3584 2469 3576 
Q 2541 3569 2628 3553 
L 2631 2963 
z
" transform="scale(0.015625)"/>
      <path id="DejaVuSans-63" d="M 3122 3366 
L 3122 2828 
Q 2878 2963 2633 3030 
Q 2388 3097 2138 3097 
Q 1578 3097 1268 2742 
Q 959 2388 959 1747 
Q 959 1106 1268 751 
Q 1578 397 2138 397 
Q 2388 397 2633 464 
Q 2878 531 3122 666 
L 3122 134 
Q 2881 22 2623 -34 
Q 2366 -91 2075 -91 
Q 1284 -91 818 406 
Q 353 903 353 1747 
Q 353 2603 823 3093 
Q 1294 3584 2113 3584 
Q 2378 3584 2631 3529 
Q 2884 3475 3122 3366 
z
" transform="scale(0.015625)"/>
      <path id="DejaVuSans-65" d="M 3597 1894 
L 3597 1613 
L 953 1613 
Q 991 1019 1311 708 
Q 1631 397 2203 397 
Q 2534 397 2845 478 
Q 3156 559 3463 722 
L 3463 178 
Q 3153 47 2828 -22 
Q 2503 -91 2169 -91 
Q 1331 -91 842 396 
Q 353 884 353 1716 
Q 353 2575 817 3079 
Q 1281 3584 2069 3584 
Q 2775 3584 3186 3129 
Q 3597 2675 3597 1894 
z
M 3022 2063 
Q 3016 2534 2758 2815 
Q 2500 3097 2075 3097 
Q 1594 3097 1305 2825 
Q 1016 2553 972 2059 
L 3022 2063 
z
" transform="scale(0.015625)"/>
      <path id="DejaVuSans-2d" d="M 313 2009 
L 1997 2009 
L 1997 1497 
L 313 1497 
L 313 2009 
z
" transform="scale(0.015625)"/>
      <path id="DejaVuSans-69" d="M 603 3500 
L 1178 3500 
L 1178 0 
L 603 0 
L 603 3500 
z
M 603 4863 
L 1178 4863 
L 1178 4134 
L 603 4134 
L 603 4863 
z
" transform="scale(0.015625)"/>
      <path id="DejaVuSans-76" d="M 191 3500 
L 800 3500 
L 1894 563 
L 2988 3500 
L 3597 3500 
L 2284 0 
L 1503 0 
L 191 3500 
z
" transform="scale(0.015625)"/>
      <path id="DejaVuSans-37" d="M 525 4666 
L 3525 4666 
L 3525 4397 
L 1831 0 
L 1172 0 
L 2766 4134 
L 525 4134 
L 525 4666 
z
" transform="scale(0.015625)"/>
     </defs>
     <use xlink:href="#DejaVuSans-73"/>
     <use xlink:href="#DejaVuSans-6f" x="52.099609"/>
     <use xlink:href="#DejaVuSans-75" x="113.28125"/>
     <use xlink:href="#DejaVuSans-72" x="176.660156"/>
     <use xlink:href="#DejaVuSans-63" x="215.523438"/>
     <use xlink:href="#DejaVuSans-65" x="270.503906"/>
     <use xlink:href="#DejaVuSans-35" x="332.027344"/>
     <use xlink:href="#DejaVuSans-2d" x="395.650391"/>
     <use xlink:href="#DejaVuSans-72" x="431.734375"/>
     <use xlink:href="#DejaVuSans-65" x="470.597656"/>
     <use xlink:href="#DejaVuSans-63" x="532.121094"/>
     <use xlink:href="#DejaVuSans-65" x="587.101562"/>
     <use xlink:href="#DejaVuSans-69" x="648.625"/>
     <use xlink:href="#DejaVuSans-76" x="676.408203"/>
     <use xlink:href="#DejaVuSans-65" x="735.587891"/>
     <use xlink:href="#DejaVuSans-72" x="797.111328"/>
     <use xlink:href="#DejaVuSans-31" x="838.224609"/>
     <use xlink:href="#DejaVuSans-37" x="901.847656"/>
    </g>
   </g>
  </g>
 </g>
 <defs>
  <clipPath id="pdc67be3c53">
   <rect x="180" y="69.12" width="1116" height="443.52"/>
  </clipPath>
 </defs>
</svg>
