<?xml version="1.0" encoding="utf-8" standalone="no"?>
<!DOCTYPE svg PUBLIC "-//W3C//DTD SVG 1.1//EN"
  "http://www.w3.org/Graphics/SVG/1.1/DTD/svg11.dtd">
<svg xmlns:xlink="http://www.w3.org/1999/xlink" width="1440pt" height="576pt" viewBox="0 0 1440 576" xmlns="http://www.w3.org/2000/svg" version="1.1">
 <metadata>
  <rdf:RDF xmlns:dc="http://purl.org/dc/elements/1.1/" xmlns:cc="http://creativecommons.org/ns#" xmlns:rdf="http://www.w3.org/1999/02/22-rdf-syntax-ns#">
   <cc:Work>
    <dc:type rdf:resource="http://purl.org/dc/dcmitype/StillImage"/>
    <dc:date>2024-05-22T04:49:48.205318</dc:date>
    <dc:format>image/svg+xml</dc:format>
    <dc:creator>
     <cc:Agent>
      <dc:title>Matplotlib v3.8.3, https://matplotlib.org/</dc:title>
     </cc:Agent>
    </dc:creator>
   </cc:Work>
  </rdf:RDF>
 </metadata>
 <defs>
  <style type="text/css">*{stroke-linejoin: round; stroke-linecap: butt}</style>
 </defs>
 <g id="figure_1">
  <g id="patch_1">
   <path d="M 0 576 
L 1440 576 
L 1440 0 
L 0 0 
z
" style="fill: #ffffff"/>
  </g>
  <g id="axes_1">
   <g id="patch_2">
    <path d="M 180 512.64 
L 1296 512.64 
L 1296 69.12 
L 180 69.12 
z
" style="fill: #ffffff"/>
   </g>
   <g id="matplotlib.axis_1">
    <g id="xtick_1">
     <g id="line2d_1">
      <defs>
       <path id="madfecf28a4" d="M 0 0 
L 0 3.5 
" style="stroke: #000000; stroke-width: 0.8"/>
      </defs>
      <g>
       <use xlink:href="#madfecf28a4" x="229.734567" y="512.64" style="stroke: #000000; stroke-width: 0.8"/>
      </g>
     </g>
     <g id="text_1">
      <!-- 0 -->
      <g transform="translate(226.553317 527.238438) scale(0.1 -0.1)">
       <defs>
        <path id="DejaVuSans-30" d="M 2034 4250 
Q 1547 4250 1301 3770 
Q 1056 3291 1056 2328 
Q 1056 1369 1301 889 
Q 1547 409 2034 409 
Q 2525 409 2770 889 
Q 3016 1369 3016 2328 
Q 3016 3291 2770 3770 
Q 2525 4250 2034 4250 
z
M 2034 4750 
Q 2819 4750 3233 4129 
Q 3647 3509 3647 2328 
Q 3647 1150 3233 529 
Q 2819 -91 2034 -91 
Q 1250 -91 836 529 
Q 422 1150 422 2328 
Q 422 3509 836 4129 
Q 1250 4750 2034 4750 
z
" transform="scale(0.015625)"/>
       </defs>
       <use xlink:href="#DejaVuSans-30"/>
      </g>
     </g>
    </g>
    <g id="xtick_2">
     <g id="line2d_2">
      <g>
       <use xlink:href="#madfecf28a4" x="433.04074" y="512.64" style="stroke: #000000; stroke-width: 0.8"/>
      </g>
     </g>
     <g id="text_2">
      <!-- 500 -->
      <g transform="translate(423.49699 527.238438) scale(0.1 -0.1)">
       <defs>
        <path id="DejaVuSans-35" d="M 691 4666 
L 3169 4666 
L 3169 4134 
L 1269 4134 
L 1269 2991 
Q 1406 3038 1543 3061 
Q 1681 3084 1819 3084 
Q 2600 3084 3056 2656 
Q 3513 2228 3513 1497 
Q 3513 744 3044 326 
Q 2575 -91 1722 -91 
Q 1428 -91 1123 -41 
Q 819 9 494 109 
L 494 744 
Q 775 591 1075 516 
Q 1375 441 1709 441 
Q 2250 441 2565 725 
Q 2881 1009 2881 1497 
Q 2881 1984 2565 2268 
Q 2250 2553 1709 2553 
Q 1456 2553 1204 2497 
Q 953 2441 691 2322 
L 691 4666 
z
" transform="scale(0.015625)"/>
       </defs>
       <use xlink:href="#DejaVuSans-35"/>
       <use xlink:href="#DejaVuSans-30" x="63.623047"/>
       <use xlink:href="#DejaVuSans-30" x="127.246094"/>
      </g>
     </g>
    </g>
    <g id="xtick_3">
     <g id="line2d_3">
      <g>
       <use xlink:href="#madfecf28a4" x="636.346913" y="512.64" style="stroke: #000000; stroke-width: 0.8"/>
      </g>
     </g>
     <g id="text_3">
      <!-- 1000 -->
      <g transform="translate(623.621913 527.238438) scale(0.1 -0.1)">
       <defs>
        <path id="DejaVuSans-31" d="M 794 531 
L 1825 531 
L 1825 4091 
L 703 3866 
L 703 4441 
L 1819 4666 
L 2450 4666 
L 2450 531 
L 3481 531 
L 3481 0 
L 794 0 
L 794 531 
z
" transform="scale(0.015625)"/>
       </defs>
       <use xlink:href="#DejaVuSans-31"/>
       <use xlink:href="#DejaVuSans-30" x="63.623047"/>
       <use xlink:href="#DejaVuSans-30" x="127.246094"/>
       <use xlink:href="#DejaVuSans-30" x="190.869141"/>
      </g>
     </g>
    </g>
    <g id="xtick_4">
     <g id="line2d_4">
      <g>
       <use xlink:href="#madfecf28a4" x="839.653087" y="512.64" style="stroke: #000000; stroke-width: 0.8"/>
      </g>
     </g>
     <g id="text_4">
      <!-- 1500 -->
      <g transform="translate(826.928087 527.238438) scale(0.1 -0.1)">
       <use xlink:href="#DejaVuSans-31"/>
       <use xlink:href="#DejaVuSans-35" x="63.623047"/>
       <use xlink:href="#DejaVuSans-30" x="127.246094"/>
       <use xlink:href="#DejaVuSans-30" x="190.869141"/>
      </g>
     </g>
    </g>
    <g id="xtick_5">
     <g id="line2d_5">
      <g>
       <use xlink:href="#madfecf28a4" x="1042.95926" y="512.64" style="stroke: #000000; stroke-width: 0.8"/>
      </g>
     </g>
     <g id="text_5">
      <!-- 2000 -->
      <g transform="translate(1030.23426 527.238438) scale(0.1 -0.1)">
       <defs>
        <path id="DejaVuSans-32" d="M 1228 531 
L 3431 531 
L 3431 0 
L 469 0 
L 469 531 
Q 828 903 1448 1529 
Q 2069 2156 2228 2338 
Q 2531 2678 2651 2914 
Q 2772 3150 2772 3378 
Q 2772 3750 2511 3984 
Q 2250 4219 1831 4219 
Q 1534 4219 1204 4116 
Q 875 4013 500 3803 
L 500 4441 
Q 881 4594 1212 4672 
Q 1544 4750 1819 4750 
Q 2544 4750 2975 4387 
Q 3406 4025 3406 3419 
Q 3406 3131 3298 2873 
Q 3191 2616 2906 2266 
Q 2828 2175 2409 1742 
Q 1991 1309 1228 531 
z
" transform="scale(0.015625)"/>
       </defs>
       <use xlink:href="#DejaVuSans-32"/>
       <use xlink:href="#DejaVuSans-30" x="63.623047"/>
       <use xlink:href="#DejaVuSans-30" x="127.246094"/>
       <use xlink:href="#DejaVuSans-30" x="190.869141"/>
      </g>
     </g>
    </g>
    <g id="xtick_6">
     <g id="line2d_6">
      <g>
       <use xlink:href="#madfecf28a4" x="1246.265433" y="512.64" style="stroke: #000000; stroke-width: 0.8"/>
      </g>
     </g>
     <g id="text_6">
      <!-- 2500 -->
      <g transform="translate(1233.540433 527.238438) scale(0.1 -0.1)">
       <use xlink:href="#DejaVuSans-32"/>
       <use xlink:href="#DejaVuSans-35" x="63.623047"/>
       <use xlink:href="#DejaVuSans-30" x="127.246094"/>
       <use xlink:href="#DejaVuSans-30" x="190.869141"/>
      </g>
     </g>
    </g>
   </g>
   <g id="matplotlib.axis_2">
    <g id="ytick_1">
     <g id="line2d_7">
      <defs>
       <path id="m0b717924b2" d="M 0 0 
L -3.5 0 
" style="stroke: #000000; stroke-width: 0.8"/>
      </defs>
      <g>
       <use xlink:href="#m0b717924b2" x="180" y="445.450067" style="stroke: #000000; stroke-width: 0.8"/>
      </g>
     </g>
     <g id="text_7">
      <!-- −4 -->
      <g transform="translate(158.257812 449.249286) scale(0.1 -0.1)">
       <defs>
        <path id="DejaVuSans-2212" d="M 678 2272 
L 4684 2272 
L 4684 1741 
L 678 1741 
L 678 2272 
z
" transform="scale(0.015625)"/>
        <path id="DejaVuSans-34" d="M 2419 4116 
L 825 1625 
L 2419 1625 
L 2419 4116 
z
M 2253 4666 
L 3047 4666 
L 3047 1625 
L 3713 1625 
L 3713 1100 
L 3047 1100 
L 3047 0 
L 2419 0 
L 2419 1100 
L 313 1100 
L 313 1709 
L 2253 4666 
z
" transform="scale(0.015625)"/>
       </defs>
       <use xlink:href="#DejaVuSans-2212"/>
       <use xlink:href="#DejaVuSans-34" x="83.789062"/>
      </g>
     </g>
    </g>
    <g id="ytick_2">
     <g id="line2d_8">
      <g>
       <use xlink:href="#m0b717924b2" x="180" y="361.939311" style="stroke: #000000; stroke-width: 0.8"/>
      </g>
     </g>
     <g id="text_8">
      <!-- −2 -->
      <g transform="translate(158.257812 365.73853) scale(0.1 -0.1)">
       <use xlink:href="#DejaVuSans-2212"/>
       <use xlink:href="#DejaVuSans-32" x="83.789062"/>
      </g>
     </g>
    </g>
    <g id="ytick_3">
     <g id="line2d_9">
      <g>
       <use xlink:href="#m0b717924b2" x="180" y="278.428555" style="stroke: #000000; stroke-width: 0.8"/>
      </g>
     </g>
     <g id="text_9">
      <!-- 0 -->
      <g transform="translate(166.6375 282.227774) scale(0.1 -0.1)">
       <use xlink:href="#DejaVuSans-30"/>
      </g>
     </g>
    </g>
    <g id="ytick_4">
     <g id="line2d_10">
      <g>
       <use xlink:href="#m0b717924b2" x="180" y="194.917799" style="stroke: #000000; stroke-width: 0.8"/>
      </g>
     </g>
     <g id="text_10">
      <!-- 2 -->
      <g transform="translate(166.6375 198.717017) scale(0.1 -0.1)">
       <use xlink:href="#DejaVuSans-32"/>
      </g>
     </g>
    </g>
    <g id="ytick_5">
     <g id="line2d_11">
      <g>
       <use xlink:href="#m0b717924b2" x="180" y="111.407042" style="stroke: #000000; stroke-width: 0.8"/>
      </g>
     </g>
     <g id="text_11">
      <!-- 4 -->
      <g transform="translate(166.6375 115.206261) scale(0.1 -0.1)">
       <use xlink:href="#DejaVuSans-34"/>
      </g>
     </g>
    </g>
   </g>
   <g id="line2d_12">
    <path d="M 230.727273 311.312388 
L 233.70539 310.882784 
L 234.698096 310.66458 
L 239.661626 308.89204 
L 241.647038 307.677527 
L 242.639744 307.437922 
L 243.63245 306.835931 
L 244.625156 305.76359 
L 245.617862 307.509603 
L 246.610568 319.333937 
L 247.603273 297.003026 
L 248.595979 254.482608 
L 249.588685 228.132687 
L 250.581391 213.308622 
L 251.574097 209.370209 
L 252.566803 219.611453 
L 253.559509 248.664378 
L 254.552215 219.318753 
L 255.544921 198.240416 
L 256.537627 197.919132 
L 257.530333 224.850909 
L 258.523039 260.637575 
L 259.515745 201.40216 
L 260.50845 192.413889 
L 261.501156 202.91808 
L 262.493862 207.883205 
L 263.486568 190.630566 
L 264.479274 184.76762 
L 265.47198 191.181556 
L 266.464686 200.863104 
L 267.457392 205.949178 
L 268.450098 212.634198 
L 269.442804 215.739336 
L 270.43551 208.493531 
L 271.428216 199.576957 
L 272.420922 188.826713 
L 273.413627 184.51003 
L 274.406333 189.034651 
L 275.399039 184.196705 
L 276.391745 171.171739 
L 277.384451 174.164326 
L 278.377157 175.970769 
L 279.369863 137.182167 
L 280.362569 111.884522 
L 281.355275 98.151426 
L 282.347981 92.494864 
L 283.340687 92.334604 
L 284.333393 93.681025 
L 285.326099 92.024153 
L 286.318804 89.28 
L 287.31151 90.767228 
L 288.304216 100.309104 
L 289.296922 121.998914 
L 290.289628 165.679313 
L 291.282334 178.032173 
L 292.27504 166.740387 
L 293.267746 185.955166 
L 294.260452 222.993305 
L 295.253158 207.094673 
L 296.245864 218.390555 
L 297.23857 243.068909 
L 298.231276 215.806049 
L 299.223981 217.050654 
L 300.216687 248.895644 
L 301.209393 257.077515 
L 302.202099 248.516094 
L 303.194805 288.87642 
L 304.187511 279.852539 
L 305.180217 253.469331 
L 306.172923 269.146478 
L 307.165629 326.771701 
L 308.158335 293.984275 
L 309.151041 302.136286 
L 310.143747 320.588213 
L 311.136453 301.072648 
L 312.129159 307.086211 
L 313.121864 326.407747 
L 314.11457 313.694643 
L 315.107276 321.507324 
L 316.099982 323.501454 
L 317.092688 326.531451 
L 318.085394 323.756055 
L 319.0781 334.803022 
L 320.070806 327.612111 
L 321.063512 338.842906 
L 322.056218 328.300199 
L 323.048924 343.574554 
L 324.04163 338.883091 
L 325.034336 328.965415 
L 326.027041 321.683096 
L 327.019747 334.726776 
L 328.012453 341.386568 
L 329.005159 342.478344 
L 329.997865 347.831552 
L 330.990571 337.491907 
L 331.983277 341.627759 
L 332.975983 336.710694 
L 333.968689 367.126383 
L 334.961395 345.474309 
L 335.954101 340.044849 
L 336.946807 339.165356 
L 337.939513 350.778556 
L 338.932218 348.641209 
L 339.924924 349.281148 
L 340.91763 337.183106 
L 341.910336 338.190827 
L 342.903042 358.005785 
L 343.895748 372.589748 
L 344.888454 350.707155 
L 345.88116 354.247571 
L 346.873866 342.015095 
L 348.859278 375.242957 
L 349.851984 364.030889 
L 350.84469 357.864975 
L 351.837395 350.967047 
L 352.830101 368.516114 
L 353.822807 356.640082 
L 354.815513 368.147264 
L 355.808219 365.297021 
L 356.800925 349.738937 
L 357.793631 355.830965 
L 358.786337 371.017589 
L 359.779043 358.392216 
L 360.771749 365.883324 
L 361.764455 360.728777 
L 362.757161 353.297235 
L 363.749867 355.665827 
L 364.742572 386.182672 
L 365.735278 379.148014 
L 366.727984 374.6019 
L 367.72069 359.712578 
L 368.713396 355.900241 
L 369.706102 365.510877 
L 370.698808 369.072805 
L 371.691514 434.618949 
L 372.68422 359.971652 
L 373.676926 347.403333 
L 374.669632 332.181178 
L 375.662338 355.742378 
L 376.655044 372.107705 
L 377.64775 403.437039 
L 378.640455 404.261429 
L 379.633161 406.82358 
L 380.625867 365.408359 
L 381.618573 371.760038 
L 382.611279 359.913158 
L 383.603985 367.45788 
L 384.596691 368.846317 
L 385.589397 345.925524 
L 386.582103 350.504182 
L 387.574809 489.904687 
L 388.567515 360.452276 
L 389.560221 347.024104 
L 390.552927 340.432338 
L 391.545632 384.026857 
L 392.538338 371.511892 
L 393.531044 364.657482 
L 394.52375 375.461994 
L 395.516456 369.712102 
L 396.509162 367.936257 
L 397.501868 374.980693 
L 398.494574 388.346911 
L 399.48728 390.410046 
L 400.479986 389.561218 
L 401.472692 369.715021 
L 402.465398 329.247281 
L 403.458104 374.228207 
L 404.450809 408.073602 
L 406.436221 374.648493 
L 407.428927 364.245586 
L 408.421633 402.647511 
L 409.414339 394.153176 
L 410.407045 416.183707 
L 411.399751 380.926984 
L 412.392457 354.369217 
L 413.385163 371.857342 
L 414.377869 375.174267 
L 415.370575 397.245035 
L 416.363281 350.308284 
L 417.355986 347.410742 
L 418.348692 353.180111 
L 419.341398 369.074149 
L 420.334104 397.814209 
L 421.32681 404.636658 
L 422.319516 361.006151 
L 423.312222 486.033685 
L 424.304928 402.167794 
L 425.297634 359.731589 
L 426.29034 345.861538 
L 427.283046 385.201809 
L 428.275752 353.477446 
L 429.268458 335.295117 
L 430.261163 335.370047 
L 431.253869 360.987901 
L 432.246575 400.779965 
L 433.239281 408.185292 
L 434.231987 418.412638 
L 435.224693 410.154515 
L 436.217399 383.545246 
L 437.210105 399.033203 
L 438.202811 377.915365 
L 439.195517 371.630888 
L 440.188223 353.171807 
L 441.180929 367.565739 
L 442.173635 373.890558 
L 443.166341 367.882803 
L 445.151752 411.541294 
L 446.144458 411.797185 
L 447.137164 381.742271 
L 448.12987 384.72418 
L 449.122576 375.180017 
L 450.115282 370.949363 
L 451.107988 398.418122 
L 452.100694 391.005469 
L 453.0934 379.469078 
L 454.086106 407.369929 
L 455.078812 403.77411 
L 456.071518 384.856977 
L 457.064223 389.315101 
L 458.056929 383.903972 
L 460.042341 407.657942 
L 461.035047 460.63395 
L 462.027753 410.788627 
L 463.020459 402.242865 
L 464.013165 420.024024 
L 465.005871 376.316574 
L 465.998577 404.514209 
L 466.991283 404.982853 
L 467.983989 394.065322 
L 468.976695 420.654513 
L 469.9694 395.99525 
L 470.962106 384.666509 
L 471.954812 394.23297 
L 472.947518 421.067506 
L 473.940224 420.135066 
L 474.93293 411.898502 
L 475.925636 401.003519 
L 476.918342 409.382284 
L 477.911048 409.023572 
L 478.903754 384.649809 
L 479.89646 393.9516 
L 480.889166 420.470797 
L 481.881872 405.312742 
L 482.874577 381.15948 
L 483.867283 382.066878 
L 484.859989 401.259247 
L 485.852695 404.291498 
L 486.845401 392.645688 
L 487.838107 412.140526 
L 488.830813 402.119285 
L 489.823519 407.995968 
L 490.816225 410.158679 
L 491.808931 442.522896 
L 492.801637 402.078227 
L 493.794343 418.274907 
L 494.787049 412.693239 
L 495.779754 466.270724 
L 497.765166 380.352168 
L 498.757872 382.536159 
L 499.750578 382.651761 
L 500.743284 419.901409 
L 501.73599 391.027077 
L 502.728696 406.599324 
L 503.721402 402.254278 
L 504.714108 405.087741 
L 506.69952 382.038755 
L 507.692226 438.761188 
L 509.677637 360.794602 
L 510.670343 356.998564 
L 511.663049 378.575526 
L 512.655755 416.974869 
L 513.648461 462.537093 
L 514.641167 410.82675 
L 515.633873 399.262799 
L 516.626579 391.223935 
L 517.619285 389.059985 
L 518.611991 416.015904 
L 519.604697 401.808683 
L 520.597403 396.640568 
L 521.590109 392.597911 
L 522.582814 412.264365 
L 523.57552 410.254283 
L 524.568226 405.797574 
L 525.560932 374.154771 
L 526.553638 393.419228 
L 527.546344 423.885542 
L 528.53905 492.48 
L 529.531756 456.468369 
L 530.524462 391.213173 
L 531.517168 418.348564 
L 532.509874 400.84441 
L 533.50258 364.336774 
L 534.495286 370.962113 
L 535.487991 412.343119 
L 536.480697 372.954524 
L 537.473403 346.135419 
L 538.466109 357.933492 
L 539.458815 388.706774 
L 540.451521 405.099207 
L 541.444227 394.112053 
L 542.436933 380.384589 
L 543.429639 385.31139 
L 544.422345 399.856596 
L 545.415051 416.695191 
L 546.407757 457.231994 
L 547.400463 375.383565 
L 548.393168 373.629121 
L 549.385874 378.181404 
L 550.37858 449.78389 
L 551.371286 379.038097 
L 552.363992 381.030379 
L 553.356698 394.616055 
L 554.349404 448.158513 
L 556.334816 408.558589 
L 557.327522 423.811769 
L 558.320228 451.370909 
L 559.312934 410.629908 
L 560.30564 387.953437 
L 561.298345 382.259692 
L 562.291051 426.145797 
L 563.283757 389.24954 
L 564.276463 373.401209 
L 565.269169 373.450899 
L 566.261875 390.212441 
L 567.254581 399.952758 
L 568.247287 433.411287 
L 569.239993 412.421872 
L 570.232699 386.654603 
L 571.225405 399.235879 
L 572.218111 404.395875 
L 573.210817 422.671135 
L 574.203523 430.211132 
L 575.196228 402.107743 
L 576.188934 449.077044 
L 577.18164 396.023335 
L 578.174346 429.304732 
L 579.167052 436.196709 
L 580.159758 392.081544 
L 581.152464 411.715728 
L 582.14517 487.924748 
L 583.137876 399.708933 
L 584.130582 415.425424 
L 585.123288 457.891269 
L 586.115994 402.748811 
L 587.1087 405.191293 
L 588.101405 417.618146 
L 589.094111 444.635074 
L 590.086817 459.749941 
L 591.079523 395.143496 
L 592.072229 386.951064 
L 593.064935 414.673398 
L 594.057641 431.759139 
L 595.050347 431.957992 
L 596.043053 417.928618 
L 597.035759 412.067943 
L 598.028465 404.498634 
L 599.021171 423.042695 
L 600.013877 402.546808 
L 601.006582 429.159439 
L 601.999288 439.966847 
L 602.991994 437.395887 
L 603.9847 429.388749 
L 604.977406 412.713373 
L 605.970112 420.26964 
L 606.962818 444.588563 
L 607.955524 441.384793 
L 608.94823 404.539277 
L 609.940936 429.989731 
L 610.933642 418.382889 
L 611.926348 410.243555 
L 612.919054 426.418224 
L 613.911759 420.275425 
L 614.904465 434.455883 
L 615.897171 430.789287 
L 616.889877 404.596197 
L 617.882583 473.180142 
L 618.875289 449.427943 
L 619.867995 428.486153 
L 620.860701 425.314569 
L 621.853407 435.378961 
L 622.846113 420.114077 
L 623.838819 423.555044 
L 624.831525 421.681139 
L 625.824231 419.312369 
L 626.816936 412.706081 
L 627.809642 424.265016 
L 628.802348 451.234538 
L 629.795054 459.868068 
L 630.78776 413.277878 
L 631.780466 430.412797 
L 632.773172 428.437677 
L 633.765878 423.648037 
L 634.758584 460.695836 
L 635.75129 440.54739 
L 636.743996 439.174351 
L 637.736702 443.51814 
L 638.729408 428.854139 
L 639.722114 443.293252 
L 640.714819 447.116734 
L 641.707525 429.469207 
L 642.700231 440.345936 
L 643.692937 433.611189 
L 644.685643 421.714546 
L 645.678349 435.159432 
L 646.671055 436.253418 
L 647.663761 420.353586 
L 648.656467 425.048153 
L 649.649173 441.983681 
L 650.641879 434.662455 
L 651.634585 436.213763 
L 652.627291 438.105301 
L 653.619996 434.512615 
L 654.612702 433.875554 
L 655.605408 430.878359 
L 656.598114 436.321481 
L 657.59082 425.295228 
L 658.583526 432.514424 
L 659.576232 428.650593 
L 660.568938 430.067639 
L 661.561644 440.937662 
L 662.55435 457.517075 
L 663.547056 437.031171 
L 664.539762 432.677761 
L 665.532468 447.426215 
L 666.525173 429.267211 
L 667.517879 443.234911 
L 668.510585 448.015307 
L 669.503291 425.59275 
L 670.495997 436.909506 
L 671.488703 429.058121 
L 672.481409 446.084554 
L 673.474115 442.840543 
L 674.466821 438.261867 
L 675.459527 431.544104 
L 676.452233 438.342016 
L 677.444939 435.480554 
L 678.437645 434.798294 
L 679.43035 439.865812 
L 680.423056 441.051964 
L 681.415762 434.642276 
L 682.408468 441.637185 
L 683.401174 439.874521 
L 684.39388 435.615776 
L 685.386586 434.762376 
L 686.379292 442.83852 
L 687.371998 441.433994 
L 689.35741 446.009412 
L 691.342822 442.787707 
L 692.335527 434.004369 
L 693.328233 436.859506 
L 694.320939 436.522099 
L 695.313645 437.175912 
L 696.306351 431.457195 
L 697.299057 439.927798 
L 698.291763 439.285884 
L 699.284469 440.660154 
L 700.277175 435.606909 
L 701.269881 444.381917 
L 702.262587 442.940441 
L 703.255293 440.610934 
L 704.247999 443.257045 
L 705.240705 444.874701 
L 706.23341 439.060083 
L 707.226116 446.949999 
L 708.218822 443.579884 
L 709.211528 442.078937 
L 710.204234 443.433825 
L 711.19694 436.558768 
L 712.189646 436.653071 
L 713.182352 438.148223 
L 714.175058 439.246906 
L 715.167764 439.660249 
L 716.16047 438.778754 
L 717.153176 440.187432 
L 718.145882 440.16179 
L 719.138587 440.517797 
L 720.131293 440.285331 
L 721.123999 444.476368 
L 722.116705 443.984444 
L 723.109411 443.71457 
L 724.102117 440.879988 
L 725.094823 440.930144 
L 726.087529 442.055001 
L 727.080235 442.646322 
L 728.072941 442.095597 
L 730.058353 445.188353 
L 731.051059 442.539456 
L 732.043764 438.96671 
L 733.03647 439.193165 
L 734.029176 441.357955 
L 735.021882 441.970592 
L 736.014588 443.523956 
L 737.007294 443.050495 
L 738 444.809347 
L 738.992706 441.807299 
L 739.985412 445.098432 
L 740.978118 444.495576 
L 741.970824 443.051545 
L 742.96353 439.249142 
L 743.956236 444.018311 
L 744.948941 442.653084 
L 745.941647 443.267615 
L 746.934353 442.520209 
L 747.927059 442.194034 
L 748.919765 440.466231 
L 749.912471 445.870691 
L 750.905177 443.842173 
L 751.897883 441.458931 
L 752.890589 441.142103 
L 753.883295 438.684534 
L 754.876001 443.652833 
L 755.868707 440.711514 
L 756.861413 441.616788 
L 757.854118 446.669073 
L 758.846824 441.944637 
L 759.83953 442.843895 
L 760.832236 447.106372 
L 761.824942 446.956744 
L 762.817648 447.551864 
L 763.810354 442.495674 
L 764.80306 440.49558 
L 765.795766 445.337185 
L 766.788472 448.022886 
L 767.781178 443.931171 
L 768.773884 445.273522 
L 769.76659 444.244398 
L 770.759295 442.560718 
L 771.752001 443.953475 
L 772.744707 443.114488 
L 773.737413 445.714495 
L 774.730119 446.89576 
L 775.722825 448.415147 
L 776.715531 443.382304 
L 777.708237 445.319507 
L 778.700943 447.567485 
L 779.693649 446.301939 
L 780.686355 441.497542 
L 781.679061 445.699306 
L 782.671767 442.002554 
L 783.664473 445.180418 
L 784.657178 445.164635 
L 785.649884 445.501854 
L 786.64259 442.865183 
L 787.635296 444.319562 
L 788.628002 447.589147 
L 789.620708 447.387298 
L 790.613414 446.138067 
L 791.60612 448.695314 
L 792.598826 443.957522 
L 793.591532 445.946661 
L 794.584238 443.802128 
L 796.56965 446.283661 
L 797.562355 446.71212 
L 798.555061 446.642187 
L 799.547767 446.293534 
L 800.540473 451.220784 
L 801.533179 449.717945 
L 802.525885 444.853572 
L 803.518591 444.894099 
L 804.511297 445.999759 
L 805.504003 453.698669 
L 806.496709 446.373519 
L 807.489415 449.244224 
L 808.482121 449.819397 
L 809.474827 449.637287 
L 810.467532 443.565242 
L 811.460238 449.79802 
L 812.452944 446.183735 
L 813.44565 446.430546 
L 814.438356 448.564264 
L 815.431062 446.255605 
L 816.423768 450.46477 
L 817.416474 444.952455 
L 818.40918 448.902518 
L 819.401886 446.894678 
L 820.394592 446.659287 
L 821.387298 445.678774 
L 822.380004 446.37795 
L 823.372709 447.667634 
L 824.365415 446.923301 
L 825.358121 451.106466 
L 826.350827 453.080984 
L 827.343533 449.020563 
L 828.336239 448.047597 
L 829.328945 447.761852 
L 830.321651 451.432068 
L 831.314357 448.138188 
L 832.307063 447.466551 
L 833.299769 450.343137 
L 834.292475 448.413746 
L 835.285181 448.006318 
L 836.277886 449.774566 
L 837.270592 449.637874 
L 838.263298 449.049719 
L 839.256004 446.375272 
L 840.24871 448.178704 
L 841.241416 449.615136 
L 843.226828 448.445845 
L 844.219534 453.44788 
L 845.21224 450.168196 
L 846.204946 451.066064 
L 847.197652 450.27459 
L 848.190358 448.688372 
L 849.183064 448.175583 
L 850.175769 452.159135 
L 851.168475 451.721516 
L 852.161181 451.461757 
L 853.153887 449.896225 
L 854.146593 448.910656 
L 855.139299 448.351307 
L 856.132005 448.830572 
L 857.124711 448.833604 
L 858.117417 448.372731 
L 859.110123 447.144716 
L 860.102829 452.01748 
L 862.088241 450.572256 
L 863.080946 452.5065 
L 864.073652 448.051136 
L 865.066358 445.724181 
L 866.059064 452.30557 
L 867.05177 450.89891 
L 868.044476 447.223574 
L 869.037182 450.328031 
L 870.029888 451.469294 
L 871.022594 449.444345 
L 872.0153 451.122203 
L 873.008006 451.127845 
L 874.000712 455.09985 
L 874.993418 449.699037 
L 875.986123 452.527138 
L 876.978829 447.689194 
L 877.971535 450.054338 
L 878.964241 449.373193 
L 879.956947 450.000772 
L 880.949653 450.793934 
L 881.942359 454.946387 
L 882.935065 452.198327 
L 883.927771 448.031173 
L 885.913183 451.502671 
L 886.905889 453.471486 
L 887.898595 453.891389 
L 888.8913 451.515009 
L 889.884006 451.030165 
L 890.876712 447.831029 
L 891.869418 450.277168 
L 892.862124 452.33259 
L 893.85483 449.773475 
L 894.847536 447.797112 
L 895.840242 451.314471 
L 896.832948 455.436525 
L 897.825654 448.225662 
L 898.81836 448.68529 
L 899.811066 450.675698 
L 900.803772 453.176188 
L 901.796477 451.917703 
L 902.789183 454.262762 
L 903.781889 451.385357 
L 904.774595 453.949595 
L 905.767301 452.981235 
L 906.760007 455.587721 
L 907.752713 452.131412 
L 908.745419 450.71572 
L 909.738125 450.072088 
L 910.730831 450.114537 
L 911.723537 453.303924 
L 912.716243 448.781064 
L 913.708949 449.098708 
L 914.701655 453.194266 
L 915.69436 454.82212 
L 916.687066 450.21335 
L 917.679772 453.153403 
L 918.672478 449.550954 
L 919.665184 450.163267 
L 920.65789 457.47006 
L 921.650596 449.786736 
L 922.643302 452.632264 
L 923.636008 448.197847 
L 924.628714 453.791665 
L 925.62142 450.969144 
L 926.614126 450.544637 
L 928.599537 448.083946 
L 929.592243 452.650903 
L 930.584949 453.380353 
L 931.577655 452.331998 
L 933.563067 454.502935 
L 935.548479 452.370314 
L 936.541185 455.155531 
L 937.533891 451.969312 
L 938.526597 450.265727 
L 939.519303 453.417389 
L 940.512009 453.70854 
L 941.504714 453.131164 
L 942.49742 452.187423 
L 943.490126 455.324502 
L 944.482832 455.047456 
L 945.475538 455.129524 
L 946.468244 454.627686 
L 947.46095 451.672801 
L 948.453656 453.770997 
L 949.446362 453.658038 
L 950.439068 451.279609 
L 951.431774 452.589472 
L 952.42448 454.713758 
L 953.417186 453.857193 
L 954.409891 453.352044 
L 955.402597 454.6209 
L 956.395303 455.495479 
L 957.388009 452.952654 
L 958.380715 452.704839 
L 959.373421 452.269346 
L 960.366127 454.372226 
L 961.358833 454.79503 
L 962.351539 451.952434 
L 963.344245 456.602098 
L 964.336951 453.289728 
L 965.329657 452.134623 
L 966.322363 453.080763 
L 967.315068 455.848961 
L 968.307774 456.05531 
L 969.30048 455.53447 
L 970.293186 451.176313 
L 972.278598 456.367223 
L 973.271304 452.088447 
L 974.26401 451.415605 
L 975.256716 448.693774 
L 976.249422 453.746267 
L 977.242128 453.361322 
L 978.234834 452.140836 
L 979.22754 451.467364 
L 980.220246 451.883363 
L 981.212951 451.922439 
L 982.205657 455.736392 
L 983.198363 453.58012 
L 984.191069 453.059952 
L 985.183775 451.695793 
L 986.176481 453.335716 
L 987.169187 455.52679 
L 988.161893 454.239283 
L 989.154599 453.208512 
L 990.147305 456.258889 
L 991.140011 455.626059 
L 992.132717 454.664493 
L 993.125423 452.597331 
L 994.118128 451.369343 
L 995.110834 453.340013 
L 996.10354 459.422302 
L 997.096246 453.396533 
L 998.088952 455.575009 
L 999.081658 458.793278 
L 1000.074364 456.346324 
L 1001.06707 455.146159 
L 1002.059776 456.097731 
L 1003.052482 451.70294 
L 1004.045188 450.161481 
L 1005.037894 450.253927 
L 1006.0306 455.664079 
L 1007.023305 453.014581 
L 1008.016011 451.674573 
L 1009.008717 453.525695 
L 1010.001423 452.650522 
L 1010.994129 455.239679 
L 1011.986835 452.107421 
L 1013.972247 456.456474 
L 1014.964953 453.709432 
L 1015.957659 455.943095 
L 1016.950365 457.330715 
L 1017.943071 453.723404 
L 1018.935777 455.789039 
L 1019.928482 453.432396 
L 1020.921188 458.344306 
L 1021.913894 453.804626 
L 1022.9066 453.584531 
L 1023.899306 459.620665 
L 1024.892012 457.731097 
L 1025.884718 457.148747 
L 1026.877424 455.440585 
L 1027.87013 456.127256 
L 1028.862836 454.761167 
L 1029.855542 458.775105 
L 1030.848248 457.676959 
L 1032.833659 456.430896 
L 1033.826365 452.414791 
L 1034.819071 454.8238 
L 1035.811777 456.528634 
L 1036.804483 455.766258 
L 1037.797189 456.811218 
L 1038.789895 453.72518 
L 1039.782601 455.319018 
L 1040.775307 459.356112 
L 1041.768013 456.181133 
L 1042.760719 455.874819 
L 1043.753425 460.352276 
L 1044.746131 456.077052 
L 1045.738837 454.874716 
L 1046.731542 453.366363 
L 1047.724248 455.452099 
L 1048.716954 454.302804 
L 1049.70966 453.548681 
L 1050.702366 457.502674 
L 1051.695072 455.170606 
L 1052.687778 456.515677 
L 1053.680484 454.081525 
L 1054.67319 456.898737 
L 1055.665896 456.731201 
L 1056.658602 456.860589 
L 1057.651308 457.365896 
L 1058.644014 454.252228 
L 1059.636719 458.194988 
L 1060.629425 457.663973 
L 1061.622131 458.588286 
L 1062.614837 455.213151 
L 1063.607543 455.285491 
L 1064.600249 457.215176 
L 1065.592955 460.146049 
L 1066.585661 456.026971 
L 1067.578367 456.147873 
L 1068.571073 453.990408 
L 1069.563779 454.12015 
L 1070.556485 458.877666 
L 1071.549191 457.45278 
L 1072.541896 456.380744 
L 1073.534602 453.89818 
L 1074.527308 459.155554 
L 1075.520014 457.045918 
L 1076.51272 456.646975 
L 1077.505426 456.857173 
L 1078.498132 457.935712 
L 1079.490838 460.937184 
L 1080.483544 455.042156 
L 1081.47625 458.775767 
L 1082.468956 458.283918 
L 1083.461662 454.641902 
L 1084.454368 456.718891 
L 1085.447073 457.264624 
L 1086.439779 454.118368 
L 1087.432485 454.189903 
L 1088.425191 452.979725 
L 1089.417897 453.466322 
L 1090.410603 455.978726 
L 1091.403309 456.081262 
L 1092.396015 458.08446 
L 1093.388721 458.458435 
L 1094.381427 458.637674 
L 1095.374133 456.468179 
L 1097.359545 457.537614 
L 1098.35225 456.640938 
L 1099.344956 457.317826 
L 1100.337662 453.988427 
L 1101.330368 458.826151 
L 1103.31578 453.790684 
L 1104.308486 461.47428 
L 1105.301192 452.106974 
L 1106.293898 457.39054 
L 1107.286604 454.140124 
L 1108.27931 456.779555 
L 1109.272016 456.248285 
L 1110.264722 457.57189 
L 1111.257428 456.922483 
L 1112.250133 458.668832 
L 1113.242839 454.685502 
L 1114.235545 456.418429 
L 1115.228251 456.214519 
L 1116.220957 458.201573 
L 1117.213663 455.226311 
L 1118.206369 459.333326 
L 1119.199075 455.901641 
L 1120.191781 454.65651 
L 1121.184487 458.097105 
L 1122.177193 458.112663 
L 1123.169899 457.390693 
L 1124.162605 457.28281 
L 1125.15531 455.525763 
L 1126.148016 455.938539 
L 1127.140722 454.216523 
L 1128.133428 458.023332 
L 1129.126134 458.986634 
L 1130.11884 455.025233 
L 1131.111546 453.157845 
L 1132.104252 458.116835 
L 1133.096958 462.499084 
L 1134.089664 459.102795 
L 1135.08237 458.314713 
L 1136.075076 454.944847 
L 1137.067782 458.866213 
L 1138.060487 457.991102 
L 1139.053193 458.98125 
L 1140.045899 458.597543 
L 1141.038605 460.860138 
L 1142.031311 455.431088 
L 1143.024017 457.447532 
L 1144.016723 455.399383 
L 1145.009429 455.924731 
L 1146.002135 456.162938 
L 1146.994841 457.024419 
L 1147.987547 456.906941 
L 1148.980253 459.074559 
L 1149.972959 451.699164 
L 1150.965664 458.421401 
L 1151.95837 461.505633 
L 1152.951076 457.179859 
L 1153.943782 457.788709 
L 1154.936488 462.893407 
L 1155.929194 457.829598 
L 1156.9219 459.203724 
L 1157.914606 456.837011 
L 1158.907312 457.948397 
L 1159.900018 457.583441 
L 1160.892724 453.422128 
L 1161.88543 455.634713 
L 1162.878136 460.5097 
L 1163.870841 454.869642 
L 1164.863547 456.973797 
L 1165.856253 458.005389 
L 1166.848959 457.071539 
L 1167.841665 454.786767 
L 1168.834371 454.779117 
L 1169.827077 456.602393 
L 1170.819783 455.956179 
L 1171.812489 462.235761 
L 1172.805195 461.146412 
L 1173.797901 458.278354 
L 1175.783313 458.630454 
L 1176.776019 461.399522 
L 1177.768724 457.129278 
L 1178.76143 456.371879 
L 1179.754136 456.117767 
L 1180.746842 456.18783 
L 1181.739548 453.369069 
L 1182.732254 454.316497 
L 1183.72496 455.634261 
L 1184.717666 454.48516 
L 1185.710372 457.36296 
L 1186.703078 455.82073 
L 1187.695784 456.727394 
L 1188.68849 460.114131 
L 1189.681196 458.047676 
L 1190.673901 456.238591 
L 1191.666607 458.548997 
L 1192.659313 453.688653 
L 1193.652019 457.173734 
L 1194.644725 455.888203 
L 1195.637431 457.539146 
L 1196.630137 459.798305 
L 1197.622843 458.507157 
L 1198.615549 459.409402 
L 1199.608255 458.924288 
L 1200.600961 455.676776 
L 1201.593667 457.405941 
L 1202.586373 458.791424 
L 1203.579078 460.639656 
L 1204.571784 457.240312 
L 1205.56449 457.353495 
L 1206.557196 459.110616 
L 1207.549902 458.928711 
L 1208.542608 454.875786 
L 1209.535314 456.63201 
L 1210.52802 459.160082 
L 1211.520726 454.653944 
L 1212.513432 460.211244 
L 1214.498844 457.7134 
L 1215.49155 457.189109 
L 1216.484255 458.24334 
L 1217.476961 451.541731 
L 1218.469667 455.770667 
L 1219.462373 456.812821 
L 1220.455079 458.767619 
L 1221.447785 454.626343 
L 1222.440491 457.099456 
L 1223.433197 454.739064 
L 1224.425903 458.050565 
L 1225.418609 456.434067 
L 1226.411315 458.712544 
L 1227.404021 455.431069 
L 1228.396727 460.049846 
L 1229.389432 458.479861 
L 1230.382138 458.19877 
L 1231.374844 457.591846 
L 1232.36755 459.43726 
L 1233.360256 457.894034 
L 1234.352962 460.040391 
L 1235.345668 460.753749 
L 1236.338374 457.957607 
L 1237.33108 459.550539 
L 1238.323786 457.919211 
L 1239.316492 461.028738 
L 1240.309198 454.784917 
L 1241.301904 461.882727 
L 1242.29461 464.402386 
L 1243.287315 460.814521 
L 1244.280021 459.407593 
L 1245.272727 456.521882 
L 1245.272727 456.521882 
" clip-path="url(#pf9beb69950)" style="fill: none; stroke: #1f77b4; stroke-width: 1.5; stroke-linecap: square"/>
   </g>
   <g id="patch_3">
    <path d="M 180 512.64 
L 180 69.12 
" style="fill: none; stroke: #000000; stroke-width: 0.8; stroke-linejoin: miter; stroke-linecap: square"/>
   </g>
   <g id="patch_4">
    <path d="M 1296 512.64 
L 1296 69.12 
" style="fill: none; stroke: #000000; stroke-width: 0.8; stroke-linejoin: miter; stroke-linecap: square"/>
   </g>
   <g id="patch_5">
    <path d="M 180 512.64 
L 1296 512.64 
" style="fill: none; stroke: #000000; stroke-width: 0.8; stroke-linejoin: miter; stroke-linecap: square"/>
   </g>
   <g id="patch_6">
    <path d="M 180 69.12 
L 1296 69.12 
" style="fill: none; stroke: #000000; stroke-width: 0.8; stroke-linejoin: miter; stroke-linecap: square"/>
   </g>
   <g id="text_12">
    <!-- source5-receiver19 -->
    <g transform="translate(544.9 60.80125) scale(0.4 -0.4)">
     <defs>
      <path id="DejaVuSans-73" d="M 2834 3397 
L 2834 2853 
Q 2591 2978 2328 3040 
Q 2066 3103 1784 3103 
Q 1356 3103 1142 2972 
Q 928 2841 928 2578 
Q 928 2378 1081 2264 
Q 1234 2150 1697 2047 
L 1894 2003 
Q 2506 1872 2764 1633 
Q 3022 1394 3022 966 
Q 3022 478 2636 193 
Q 2250 -91 1575 -91 
Q 1294 -91 989 -36 
Q 684 19 347 128 
L 347 722 
Q 666 556 975 473 
Q 1284 391 1588 391 
Q 1994 391 2212 530 
Q 2431 669 2431 922 
Q 2431 1156 2273 1281 
Q 2116 1406 1581 1522 
L 1381 1569 
Q 847 1681 609 1914 
Q 372 2147 372 2553 
Q 372 3047 722 3315 
Q 1072 3584 1716 3584 
Q 2034 3584 2315 3537 
Q 2597 3491 2834 3397 
z
" transform="scale(0.015625)"/>
      <path id="DejaVuSans-6f" d="M 1959 3097 
Q 1497 3097 1228 2736 
Q 959 2375 959 1747 
Q 959 1119 1226 758 
Q 1494 397 1959 397 
Q 2419 397 2687 759 
Q 2956 1122 2956 1747 
Q 2956 2369 2687 2733 
Q 2419 3097 1959 3097 
z
M 1959 3584 
Q 2709 3584 3137 3096 
Q 3566 2609 3566 1747 
Q 3566 888 3137 398 
Q 2709 -91 1959 -91 
Q 1206 -91 779 398 
Q 353 888 353 1747 
Q 353 2609 779 3096 
Q 1206 3584 1959 3584 
z
" transform="scale(0.015625)"/>
      <path id="DejaVuSans-75" d="M 544 1381 
L 544 3500 
L 1119 3500 
L 1119 1403 
Q 1119 906 1312 657 
Q 1506 409 1894 409 
Q 2359 409 2629 706 
Q 2900 1003 2900 1516 
L 2900 3500 
L 3475 3500 
L 3475 0 
L 2900 0 
L 2900 538 
Q 2691 219 2414 64 
Q 2138 -91 1772 -91 
Q 1169 -91 856 284 
Q 544 659 544 1381 
z
M 1991 3584 
L 1991 3584 
z
" transform="scale(0.015625)"/>
      <path id="DejaVuSans-72" d="M 2631 2963 
Q 2534 3019 2420 3045 
Q 2306 3072 2169 3072 
Q 1681 3072 1420 2755 
Q 1159 2438 1159 1844 
L 1159 0 
L 581 0 
L 581 3500 
L 1159 3500 
L 1159 2956 
Q 1341 3275 1631 3429 
Q 1922 3584 2338 3584 
Q 2397 3584 2469 3576 
Q 2541 3569 2628 3553 
L 2631 2963 
z
" transform="scale(0.015625)"/>
      <path id="DejaVuSans-63" d="M 3122 3366 
L 3122 2828 
Q 2878 2963 2633 3030 
Q 2388 3097 2138 3097 
Q 1578 3097 1268 2742 
Q 959 2388 959 1747 
Q 959 1106 1268 751 
Q 1578 397 2138 397 
Q 2388 397 2633 464 
Q 2878 531 3122 666 
L 3122 134 
Q 2881 22 2623 -34 
Q 2366 -91 2075 -91 
Q 1284 -91 818 406 
Q 353 903 353 1747 
Q 353 2603 823 3093 
Q 1294 3584 2113 3584 
Q 2378 3584 2631 3529 
Q 2884 3475 3122 3366 
z
" transform="scale(0.015625)"/>
      <path id="DejaVuSans-65" d="M 3597 1894 
L 3597 1613 
L 953 1613 
Q 991 1019 1311 708 
Q 1631 397 2203 397 
Q 2534 397 2845 478 
Q 3156 559 3463 722 
L 3463 178 
Q 3153 47 2828 -22 
Q 2503 -91 2169 -91 
Q 1331 -91 842 396 
Q 353 884 353 1716 
Q 353 2575 817 3079 
Q 1281 3584 2069 3584 
Q 2775 3584 3186 3129 
Q 3597 2675 3597 1894 
z
M 3022 2063 
Q 3016 2534 2758 2815 
Q 2500 3097 2075 3097 
Q 1594 3097 1305 2825 
Q 1016 2553 972 2059 
L 3022 2063 
z
" transform="scale(0.015625)"/>
      <path id="DejaVuSans-2d" d="M 313 2009 
L 1997 2009 
L 1997 1497 
L 313 1497 
L 313 2009 
z
" transform="scale(0.015625)"/>
      <path id="DejaVuSans-69" d="M 603 3500 
L 1178 3500 
L 1178 0 
L 603 0 
L 603 3500 
z
M 603 4863 
L 1178 4863 
L 1178 4134 
L 603 4134 
L 603 4863 
z
" transform="scale(0.015625)"/>
      <path id="DejaVuSans-76" d="M 191 3500 
L 800 3500 
L 1894 563 
L 2988 3500 
L 3597 3500 
L 2284 0 
L 1503 0 
L 191 3500 
z
" transform="scale(0.015625)"/>
      <path id="DejaVuSans-39" d="M 703 97 
L 703 672 
Q 941 559 1184 500 
Q 1428 441 1663 441 
Q 2288 441 2617 861 
Q 2947 1281 2994 2138 
Q 2813 1869 2534 1725 
Q 2256 1581 1919 1581 
Q 1219 1581 811 2004 
Q 403 2428 403 3163 
Q 403 3881 828 4315 
Q 1253 4750 1959 4750 
Q 2769 4750 3195 4129 
Q 3622 3509 3622 2328 
Q 3622 1225 3098 567 
Q 2575 -91 1691 -91 
Q 1453 -91 1209 -44 
Q 966 3 703 97 
z
M 1959 2075 
Q 2384 2075 2632 2365 
Q 2881 2656 2881 3163 
Q 2881 3666 2632 3958 
Q 2384 4250 1959 4250 
Q 1534 4250 1286 3958 
Q 1038 3666 1038 3163 
Q 1038 2656 1286 2365 
Q 1534 2075 1959 2075 
z
" transform="scale(0.015625)"/>
     </defs>
     <use xlink:href="#DejaVuSans-73"/>
     <use xlink:href="#DejaVuSans-6f" x="52.099609"/>
     <use xlink:href="#DejaVuSans-75" x="113.28125"/>
     <use xlink:href="#DejaVuSans-72" x="176.660156"/>
     <use xlink:href="#DejaVuSans-63" x="215.523438"/>
     <use xlink:href="#DejaVuSans-65" x="270.503906"/>
     <use xlink:href="#DejaVuSans-35" x="332.027344"/>
     <use xlink:href="#DejaVuSans-2d" x="395.650391"/>
     <use xlink:href="#DejaVuSans-72" x="431.734375"/>
     <use xlink:href="#DejaVuSans-65" x="470.597656"/>
     <use xlink:href="#DejaVuSans-63" x="532.121094"/>
     <use xlink:href="#DejaVuSans-65" x="587.101562"/>
     <use xlink:href="#DejaVuSans-69" x="648.625"/>
     <use xlink:href="#DejaVuSans-76" x="676.408203"/>
     <use xlink:href="#DejaVuSans-65" x="735.587891"/>
     <use xlink:href="#DejaVuSans-72" x="797.111328"/>
     <use xlink:href="#DejaVuSans-31" x="838.224609"/>
     <use xlink:href="#DejaVuSans-39" x="901.847656"/>
    </g>
   </g>
  </g>
 </g>
 <defs>
  <clipPath id="pf9beb69950">
   <rect x="180" y="69.12" width="1116" height="443.52"/>
  </clipPath>
 </defs>
</svg>
