<?xml version="1.0" encoding="utf-8" standalone="no"?>
<!DOCTYPE svg PUBLIC "-//W3C//DTD SVG 1.1//EN"
  "http://www.w3.org/Graphics/SVG/1.1/DTD/svg11.dtd">
<svg xmlns:xlink="http://www.w3.org/1999/xlink" width="1440pt" height="576pt" viewBox="0 0 1440 576" xmlns="http://www.w3.org/2000/svg" version="1.1">
 <metadata>
  <rdf:RDF xmlns:dc="http://purl.org/dc/elements/1.1/" xmlns:cc="http://creativecommons.org/ns#" xmlns:rdf="http://www.w3.org/1999/02/22-rdf-syntax-ns#">
   <cc:Work>
    <dc:type rdf:resource="http://purl.org/dc/dcmitype/StillImage"/>
    <dc:date>2024-05-22T04:49:48.459446</dc:date>
    <dc:format>image/svg+xml</dc:format>
    <dc:creator>
     <cc:Agent>
      <dc:title>Matplotlib v3.8.3, https://matplotlib.org/</dc:title>
     </cc:Agent>
    </dc:creator>
   </cc:Work>
  </rdf:RDF>
 </metadata>
 <defs>
  <style type="text/css">*{stroke-linejoin: round; stroke-linecap: butt}</style>
 </defs>
 <g id="figure_1">
  <g id="patch_1">
   <path d="M 0 576 
L 1440 576 
L 1440 0 
L 0 0 
z
" style="fill: #ffffff"/>
  </g>
  <g id="axes_1">
   <g id="patch_2">
    <path d="M 180 512.64 
L 1296 512.64 
L 1296 69.12 
L 180 69.12 
z
" style="fill: #ffffff"/>
   </g>
   <g id="matplotlib.axis_1">
    <g id="xtick_1">
     <g id="line2d_1">
      <defs>
       <path id="m8b007ad20a" d="M 0 0 
L 0 3.5 
" style="stroke: #000000; stroke-width: 0.8"/>
      </defs>
      <g>
       <use xlink:href="#m8b007ad20a" x="229.734567" y="512.64" style="stroke: #000000; stroke-width: 0.8"/>
      </g>
     </g>
     <g id="text_1">
      <!-- 0 -->
      <g transform="translate(226.553317 527.238438) scale(0.1 -0.1)">
       <defs>
        <path id="DejaVuSans-30" d="M 2034 4250 
Q 1547 4250 1301 3770 
Q 1056 3291 1056 2328 
Q 1056 1369 1301 889 
Q 1547 409 2034 409 
Q 2525 409 2770 889 
Q 3016 1369 3016 2328 
Q 3016 3291 2770 3770 
Q 2525 4250 2034 4250 
z
M 2034 4750 
Q 2819 4750 3233 4129 
Q 3647 3509 3647 2328 
Q 3647 1150 3233 529 
Q 2819 -91 2034 -91 
Q 1250 -91 836 529 
Q 422 1150 422 2328 
Q 422 3509 836 4129 
Q 1250 4750 2034 4750 
z
" transform="scale(0.015625)"/>
       </defs>
       <use xlink:href="#DejaVuSans-30"/>
      </g>
     </g>
    </g>
    <g id="xtick_2">
     <g id="line2d_2">
      <g>
       <use xlink:href="#m8b007ad20a" x="433.04074" y="512.64" style="stroke: #000000; stroke-width: 0.8"/>
      </g>
     </g>
     <g id="text_2">
      <!-- 500 -->
      <g transform="translate(423.49699 527.238438) scale(0.1 -0.1)">
       <defs>
        <path id="DejaVuSans-35" d="M 691 4666 
L 3169 4666 
L 3169 4134 
L 1269 4134 
L 1269 2991 
Q 1406 3038 1543 3061 
Q 1681 3084 1819 3084 
Q 2600 3084 3056 2656 
Q 3513 2228 3513 1497 
Q 3513 744 3044 326 
Q 2575 -91 1722 -91 
Q 1428 -91 1123 -41 
Q 819 9 494 109 
L 494 744 
Q 775 591 1075 516 
Q 1375 441 1709 441 
Q 2250 441 2565 725 
Q 2881 1009 2881 1497 
Q 2881 1984 2565 2268 
Q 2250 2553 1709 2553 
Q 1456 2553 1204 2497 
Q 953 2441 691 2322 
L 691 4666 
z
" transform="scale(0.015625)"/>
       </defs>
       <use xlink:href="#DejaVuSans-35"/>
       <use xlink:href="#DejaVuSans-30" x="63.623047"/>
       <use xlink:href="#DejaVuSans-30" x="127.246094"/>
      </g>
     </g>
    </g>
    <g id="xtick_3">
     <g id="line2d_3">
      <g>
       <use xlink:href="#m8b007ad20a" x="636.346913" y="512.64" style="stroke: #000000; stroke-width: 0.8"/>
      </g>
     </g>
     <g id="text_3">
      <!-- 1000 -->
      <g transform="translate(623.621913 527.238438) scale(0.1 -0.1)">
       <defs>
        <path id="DejaVuSans-31" d="M 794 531 
L 1825 531 
L 1825 4091 
L 703 3866 
L 703 4441 
L 1819 4666 
L 2450 4666 
L 2450 531 
L 3481 531 
L 3481 0 
L 794 0 
L 794 531 
z
" transform="scale(0.015625)"/>
       </defs>
       <use xlink:href="#DejaVuSans-31"/>
       <use xlink:href="#DejaVuSans-30" x="63.623047"/>
       <use xlink:href="#DejaVuSans-30" x="127.246094"/>
       <use xlink:href="#DejaVuSans-30" x="190.869141"/>
      </g>
     </g>
    </g>
    <g id="xtick_4">
     <g id="line2d_4">
      <g>
       <use xlink:href="#m8b007ad20a" x="839.653087" y="512.64" style="stroke: #000000; stroke-width: 0.8"/>
      </g>
     </g>
     <g id="text_4">
      <!-- 1500 -->
      <g transform="translate(826.928087 527.238438) scale(0.1 -0.1)">
       <use xlink:href="#DejaVuSans-31"/>
       <use xlink:href="#DejaVuSans-35" x="63.623047"/>
       <use xlink:href="#DejaVuSans-30" x="127.246094"/>
       <use xlink:href="#DejaVuSans-30" x="190.869141"/>
      </g>
     </g>
    </g>
    <g id="xtick_5">
     <g id="line2d_5">
      <g>
       <use xlink:href="#m8b007ad20a" x="1042.95926" y="512.64" style="stroke: #000000; stroke-width: 0.8"/>
      </g>
     </g>
     <g id="text_5">
      <!-- 2000 -->
      <g transform="translate(1030.23426 527.238438) scale(0.1 -0.1)">
       <defs>
        <path id="DejaVuSans-32" d="M 1228 531 
L 3431 531 
L 3431 0 
L 469 0 
L 469 531 
Q 828 903 1448 1529 
Q 2069 2156 2228 2338 
Q 2531 2678 2651 2914 
Q 2772 3150 2772 3378 
Q 2772 3750 2511 3984 
Q 2250 4219 1831 4219 
Q 1534 4219 1204 4116 
Q 875 4013 500 3803 
L 500 4441 
Q 881 4594 1212 4672 
Q 1544 4750 1819 4750 
Q 2544 4750 2975 4387 
Q 3406 4025 3406 3419 
Q 3406 3131 3298 2873 
Q 3191 2616 2906 2266 
Q 2828 2175 2409 1742 
Q 1991 1309 1228 531 
z
" transform="scale(0.015625)"/>
       </defs>
       <use xlink:href="#DejaVuSans-32"/>
       <use xlink:href="#DejaVuSans-30" x="63.623047"/>
       <use xlink:href="#DejaVuSans-30" x="127.246094"/>
       <use xlink:href="#DejaVuSans-30" x="190.869141"/>
      </g>
     </g>
    </g>
    <g id="xtick_6">
     <g id="line2d_6">
      <g>
       <use xlink:href="#m8b007ad20a" x="1246.265433" y="512.64" style="stroke: #000000; stroke-width: 0.8"/>
      </g>
     </g>
     <g id="text_6">
      <!-- 2500 -->
      <g transform="translate(1233.540433 527.238438) scale(0.1 -0.1)">
       <use xlink:href="#DejaVuSans-32"/>
       <use xlink:href="#DejaVuSans-35" x="63.623047"/>
       <use xlink:href="#DejaVuSans-30" x="127.246094"/>
       <use xlink:href="#DejaVuSans-30" x="190.869141"/>
      </g>
     </g>
    </g>
   </g>
   <g id="matplotlib.axis_2">
    <g id="ytick_1">
     <g id="line2d_7">
      <defs>
       <path id="m2e43eda451" d="M 0 0 
L -3.5 0 
" style="stroke: #000000; stroke-width: 0.8"/>
      </defs>
      <g>
       <use xlink:href="#m2e43eda451" x="180" y="450.009949" style="stroke: #000000; stroke-width: 0.8"/>
      </g>
     </g>
     <g id="text_7">
      <!-- −3 -->
      <g transform="translate(158.257812 453.809167) scale(0.1 -0.1)">
       <defs>
        <path id="DejaVuSans-2212" d="M 678 2272 
L 4684 2272 
L 4684 1741 
L 678 1741 
L 678 2272 
z
" transform="scale(0.015625)"/>
        <path id="DejaVuSans-33" d="M 2597 2516 
Q 3050 2419 3304 2112 
Q 3559 1806 3559 1356 
Q 3559 666 3084 287 
Q 2609 -91 1734 -91 
Q 1441 -91 1130 -33 
Q 819 25 488 141 
L 488 750 
Q 750 597 1062 519 
Q 1375 441 1716 441 
Q 2309 441 2620 675 
Q 2931 909 2931 1356 
Q 2931 1769 2642 2001 
Q 2353 2234 1838 2234 
L 1294 2234 
L 1294 2753 
L 1863 2753 
Q 2328 2753 2575 2939 
Q 2822 3125 2822 3475 
Q 2822 3834 2567 4026 
Q 2313 4219 1838 4219 
Q 1578 4219 1281 4162 
Q 984 4106 628 3988 
L 628 4550 
Q 988 4650 1302 4700 
Q 1616 4750 1894 4750 
Q 2613 4750 3031 4423 
Q 3450 4097 3450 3541 
Q 3450 3153 3228 2886 
Q 3006 2619 2597 2516 
z
" transform="scale(0.015625)"/>
       </defs>
       <use xlink:href="#DejaVuSans-2212"/>
       <use xlink:href="#DejaVuSans-33" x="83.789062"/>
      </g>
     </g>
    </g>
    <g id="ytick_2">
     <g id="line2d_8">
      <g>
       <use xlink:href="#m2e43eda451" x="180" y="385.999316" style="stroke: #000000; stroke-width: 0.8"/>
      </g>
     </g>
     <g id="text_8">
      <!-- −2 -->
      <g transform="translate(158.257812 389.798534) scale(0.1 -0.1)">
       <use xlink:href="#DejaVuSans-2212"/>
       <use xlink:href="#DejaVuSans-32" x="83.789062"/>
      </g>
     </g>
    </g>
    <g id="ytick_3">
     <g id="line2d_9">
      <g>
       <use xlink:href="#m2e43eda451" x="180" y="321.988683" style="stroke: #000000; stroke-width: 0.8"/>
      </g>
     </g>
     <g id="text_9">
      <!-- −1 -->
      <g transform="translate(158.257812 325.787902) scale(0.1 -0.1)">
       <use xlink:href="#DejaVuSans-2212"/>
       <use xlink:href="#DejaVuSans-31" x="83.789062"/>
      </g>
     </g>
    </g>
    <g id="ytick_4">
     <g id="line2d_10">
      <g>
       <use xlink:href="#m2e43eda451" x="180" y="257.97805" style="stroke: #000000; stroke-width: 0.8"/>
      </g>
     </g>
     <g id="text_10">
      <!-- 0 -->
      <g transform="translate(166.6375 261.777269) scale(0.1 -0.1)">
       <use xlink:href="#DejaVuSans-30"/>
      </g>
     </g>
    </g>
    <g id="ytick_5">
     <g id="line2d_11">
      <g>
       <use xlink:href="#m2e43eda451" x="180" y="193.967417" style="stroke: #000000; stroke-width: 0.8"/>
      </g>
     </g>
     <g id="text_11">
      <!-- 1 -->
      <g transform="translate(166.6375 197.766636) scale(0.1 -0.1)">
       <use xlink:href="#DejaVuSans-31"/>
      </g>
     </g>
    </g>
    <g id="ytick_6">
     <g id="line2d_12">
      <g>
       <use xlink:href="#m2e43eda451" x="180" y="129.956785" style="stroke: #000000; stroke-width: 0.8"/>
      </g>
     </g>
     <g id="text_12">
      <!-- 2 -->
      <g transform="translate(166.6375 133.756003) scale(0.1 -0.1)">
       <use xlink:href="#DejaVuSans-32"/>
      </g>
     </g>
    </g>
   </g>
   <g id="line2d_13">
    <path d="M 230.727273 492.48 
L 232.712685 435.066219 
L 233.70539 417.135592 
L 234.698096 405.552771 
L 235.690802 391.923346 
L 236.683508 381.495409 
L 237.676214 372.590139 
L 240.654332 350.158638 
L 242.639744 337.67967 
L 245.617862 322.24896 
L 248.595979 307.787649 
L 249.588685 306.800891 
L 250.581391 323.631883 
L 251.574097 329.509481 
L 252.566803 326.870777 
L 254.552215 224.985322 
L 255.544921 202.878069 
L 256.537627 219.264607 
L 257.530333 271.279554 
L 258.523039 195.126139 
L 259.515745 168.527789 
L 260.50845 171.607654 
L 261.501156 198.777135 
L 262.493862 276.070592 
L 263.486568 175.222264 
L 264.479274 142.845442 
L 265.47198 152.81581 
L 266.464686 259.948818 
L 267.457392 167.55056 
L 268.450098 136.574644 
L 269.442804 146.283116 
L 270.43551 184.935464 
L 271.428216 216.029113 
L 272.420922 205.800128 
L 273.413627 219.830585 
L 274.406333 283.308741 
L 275.399039 329.835421 
L 276.391745 204.972157 
L 277.384451 142.916318 
L 278.377157 111.334096 
L 279.369863 95.691877 
L 280.362569 89.28 
L 281.355275 90.456684 
L 282.347981 97.366259 
L 283.340687 96.764383 
L 284.333393 92.176853 
L 285.326099 104.435545 
L 286.318804 142.17864 
L 287.31151 131.882616 
L 288.304216 114.521479 
L 289.296922 137.981278 
L 290.289628 230.374924 
L 291.282334 188.44211 
L 292.27504 178.958146 
L 294.260452 212.607177 
L 295.253158 224.210145 
L 296.245864 187.417427 
L 297.23857 187.302414 
L 299.223981 294.331596 
L 300.216687 222.483431 
L 301.209393 213.96924 
L 302.202099 240.075919 
L 303.194805 304.727666 
L 304.187511 256.544397 
L 305.180217 242.276251 
L 307.165629 255.257038 
L 308.158335 253.354616 
L 309.151041 256.136022 
L 310.143747 268.585802 
L 311.136453 273.859651 
L 312.129159 267.605948 
L 313.121864 269.963712 
L 314.11457 268.516163 
L 315.107276 272.03323 
L 316.099982 277.332827 
L 317.092688 275.489843 
L 318.085394 277.170789 
L 319.0781 281.185617 
L 320.070806 278.395257 
L 321.063512 277.740061 
L 322.056218 285.268799 
L 323.048924 283.899326 
L 324.04163 284.197174 
L 325.034336 283.860574 
L 326.027041 280.821093 
L 327.019747 287.747402 
L 328.012453 287.948627 
L 329.005159 289.061547 
L 329.997865 290.649025 
L 330.990571 293.597898 
L 331.983277 292.74623 
L 332.975983 296.870347 
L 333.968689 294.681704 
L 334.961395 295.523722 
L 335.954101 295.857374 
L 336.946807 300.42126 
L 337.939513 299.936984 
L 338.932218 296.160564 
L 339.924924 293.654941 
L 340.91763 300.017651 
L 341.910336 298.680709 
L 342.903042 308.625106 
L 343.895748 306.025051 
L 344.888454 302.647698 
L 345.88116 306.182826 
L 346.873866 299.71383 
L 347.866572 309.804673 
L 348.859278 317.63661 
L 349.851984 308.430506 
L 350.84469 303.66163 
L 351.837395 303.726262 
L 352.830101 310.581751 
L 353.822807 311.60338 
L 354.815513 311.944645 
L 355.808219 307.817501 
L 356.800925 316.58774 
L 357.793631 307.732612 
L 358.786337 311.084593 
L 359.779043 312.733447 
L 360.771749 317.271834 
L 361.764455 301.345104 
L 362.757161 306.427704 
L 363.749867 327.639577 
L 364.742572 331.26996 
L 365.735278 322.789923 
L 366.727984 312.409866 
L 367.72069 315.844677 
L 368.713396 309.952629 
L 369.706102 325.623409 
L 370.698808 321.918707 
L 371.691514 337.6411 
L 372.68422 339.1427 
L 373.676926 303.993939 
L 374.669632 286.471549 
L 375.662338 316.467432 
L 376.655044 385.220882 
L 377.64775 362.515832 
L 378.640455 325.351979 
L 379.633161 320.223746 
L 380.625867 322.219399 
L 381.618573 332.581463 
L 382.611279 326.111815 
L 383.603985 323.719754 
L 384.596691 317.243277 
L 385.589397 302.371214 
L 386.582103 320.045134 
L 387.574809 349.855754 
L 388.567515 312.922371 
L 389.560221 301.829904 
L 390.552927 337.300978 
L 391.545632 368.495234 
L 392.538338 329.275221 
L 393.531044 315.723784 
L 394.52375 334.074149 
L 395.516456 317.283732 
L 396.509162 331.587001 
L 397.501868 323.973845 
L 398.494574 328.061679 
L 399.48728 354.168325 
L 400.479986 348.717694 
L 401.472692 313.880361 
L 402.465398 306.630065 
L 403.458104 341.636433 
L 404.450809 355.654588 
L 405.443515 344.128092 
L 406.436221 342.077285 
L 407.428927 325.053653 
L 408.421633 331.029622 
L 410.407045 353.036144 
L 411.399751 329.741599 
L 412.392457 312.404105 
L 413.385163 323.529885 
L 414.377869 360.447129 
L 415.370575 347.498372 
L 416.363281 304.123734 
L 417.355986 311.228312 
L 418.348692 377.668324 
L 419.341398 373.931501 
L 420.334104 338.566893 
L 421.32681 347.118015 
L 422.319516 313.782213 
L 423.312222 361.891223 
L 424.304928 361.749209 
L 425.297634 322.478147 
L 426.29034 321.503626 
L 427.283046 378.971623 
L 428.275752 316.172959 
L 429.268458 310.942035 
L 430.261163 341.768773 
L 431.253869 456.386994 
L 432.246575 368.065205 
L 433.239281 342.525366 
L 434.231987 340.793165 
L 435.224693 350.329342 
L 436.217399 352.744243 
L 437.210105 350.719642 
L 438.202811 334.951465 
L 439.195517 339.598064 
L 440.188223 335.641408 
L 441.180929 393.270187 
L 442.173635 335.280627 
L 443.166341 324.098805 
L 444.159046 347.658658 
L 445.151752 429.384019 
L 446.144458 352.290229 
L 447.137164 344.241917 
L 448.12987 358.097886 
L 449.122576 348.20383 
L 450.115282 352.385478 
L 451.107988 350.128802 
L 452.100694 345.638779 
L 453.0934 356.585867 
L 454.086106 362.146426 
L 455.078812 350.388101 
L 456.071518 344.085107 
L 457.064223 353.694178 
L 458.056929 374.023042 
L 459.049635 358.639927 
L 460.042341 355.638587 
L 461.035047 365.629119 
L 462.027753 349.312491 
L 463.020459 350.040193 
L 464.013165 360.578482 
L 465.005871 350.930268 
L 465.998577 353.363155 
L 466.991283 365.810199 
L 467.983989 359.678462 
L 468.976695 379.104525 
L 469.9694 358.05772 
L 470.962106 353.821578 
L 471.954812 351.937636 
L 472.947518 384.525194 
L 473.940224 363.539478 
L 474.93293 355.084157 
L 475.925636 357.333204 
L 476.918342 369.366895 
L 478.903754 356.628678 
L 479.89646 379.972749 
L 480.889166 357.895496 
L 481.881872 367.593743 
L 482.874577 355.363432 
L 483.867283 362.88144 
L 484.859989 393.747132 
L 485.852695 365.047527 
L 486.845401 369.575431 
L 487.838107 353.669639 
L 489.823519 373.953885 
L 490.816225 380.639086 
L 491.808931 372.843943 
L 492.801637 383.768003 
L 493.794343 354.483878 
L 494.787049 372.492853 
L 495.779754 381.846359 
L 496.77246 371.833578 
L 497.765166 358.751031 
L 498.757872 380.970132 
L 499.750578 365.017874 
L 500.743284 373.141659 
L 501.73599 365.207807 
L 502.728696 378.874197 
L 503.721402 368.598754 
L 504.714108 375.755291 
L 505.706814 356.397254 
L 506.69952 363.543207 
L 507.692226 363.289566 
L 508.684932 382.650183 
L 509.677637 357.630038 
L 510.670343 341.252933 
L 511.663049 372.820175 
L 512.655755 411.481605 
L 513.648461 368.529316 
L 514.641167 389.251095 
L 515.633873 376.08942 
L 516.626579 376.393103 
L 517.619285 365.009924 
L 518.611991 366.727609 
L 519.604697 379.59049 
L 520.597403 357.124143 
L 521.590109 349.376597 
L 522.582814 366.735792 
L 523.57552 390.079008 
L 524.568226 362.583479 
L 525.560932 364.146514 
L 526.553638 391.210928 
L 527.546344 378.299164 
L 528.53905 387.40445 
L 529.531756 368.38225 
L 530.524462 388.647173 
L 531.517168 381.470691 
L 532.509874 373.025591 
L 533.50258 350.679238 
L 534.495286 347.533028 
L 535.487991 439.661304 
L 536.480697 359.120966 
L 537.473403 338.259263 
L 538.466109 326.809191 
L 539.458815 372.660095 
L 540.451521 438.961894 
L 541.444227 389.523959 
L 542.436933 364.316842 
L 543.429639 380.575304 
L 544.422345 378.296743 
L 545.415051 388.552896 
L 546.407757 436.592032 
L 547.400463 392.853101 
L 548.393168 354.271543 
L 549.385874 365.504588 
L 550.37858 392.640133 
L 551.371286 369.438327 
L 552.363992 371.161478 
L 553.356698 390.505184 
L 554.349404 388.796887 
L 555.34211 395.967421 
L 556.334816 380.99524 
L 557.327522 379.115219 
L 558.320228 404.211586 
L 559.312934 401.653063 
L 560.30564 362.588479 
L 561.298345 366.045416 
L 562.291051 469.021851 
L 563.283757 403.059508 
L 564.276463 352.875799 
L 565.269169 359.234532 
L 566.261875 410.662446 
L 567.254581 397.567344 
L 568.247287 381.361204 
L 569.239993 382.991284 
L 570.232699 384.057068 
L 571.225405 400.157681 
L 572.218111 378.97047 
L 573.210817 388.861796 
L 574.203523 396.726741 
L 575.196228 378.335368 
L 576.188934 375.203248 
L 577.18164 375.61579 
L 578.174346 385.915666 
L 579.167052 378.503211 
L 580.159758 390.561095 
L 581.152464 365.252344 
L 582.14517 375.61175 
L 583.137876 382.619379 
L 584.130582 375.641504 
L 585.123288 394.992966 
L 586.115994 402.713319 
L 587.1087 381.314492 
L 588.101405 373.181393 
L 590.086817 417.721176 
L 591.079523 396.989321 
L 592.072229 369.038142 
L 593.064935 381.9113 
L 594.057641 391.919581 
L 595.050347 383.501605 
L 596.043053 390.680518 
L 597.035759 388.963636 
L 599.021171 370.405744 
L 600.013877 387.551152 
L 601.006582 390.339273 
L 601.999288 389.553431 
L 602.991994 384.648577 
L 603.9847 378.630962 
L 604.977406 395.34391 
L 605.970112 381.546543 
L 606.962818 391.303031 
L 607.955524 381.228637 
L 608.94823 392.844386 
L 609.940936 387.151431 
L 610.933642 384.69991 
L 611.926348 393.49249 
L 612.919054 394.857729 
L 613.911759 406.158235 
L 615.897171 365.847792 
L 616.889877 395.156481 
L 617.882583 392.643752 
L 618.875289 383.34072 
L 619.867995 384.933277 
L 620.860701 393.048862 
L 621.853407 386.234693 
L 622.846113 402.512754 
L 623.838819 389.487644 
L 624.831525 386.62835 
L 625.824231 388.776144 
L 626.816936 394.729283 
L 627.809642 395.679105 
L 628.802348 393.529597 
L 629.795054 395.16103 
L 630.78776 395.914854 
L 631.780466 386.11049 
L 632.773172 397.981894 
L 633.765878 390.669289 
L 634.758584 391.41042 
L 635.75129 383.567655 
L 636.743996 388.297742 
L 637.736702 397.343246 
L 638.729408 390.336638 
L 639.722114 389.978997 
L 640.714819 395.229579 
L 641.707525 390.758789 
L 642.700231 394.198187 
L 643.692937 396.355392 
L 644.685643 393.310242 
L 645.678349 394.041629 
L 646.671055 398.644133 
L 647.663761 394.469779 
L 648.656467 395.792975 
L 649.649173 397.765215 
L 650.641879 395.004091 
L 651.634585 396.218168 
L 652.627291 397.858814 
L 653.619996 394.196968 
L 654.612702 391.146314 
L 655.605408 395.465969 
L 656.598114 397.514498 
L 657.59082 396.196156 
L 658.583526 397.878838 
L 659.576232 393.022983 
L 660.568938 394.044703 
L 661.561644 399.385606 
L 662.55435 394.231392 
L 663.547056 396.708386 
L 664.539762 397.611672 
L 665.532468 396.575138 
L 666.525173 395.183941 
L 667.517879 398.261135 
L 668.510585 399.379057 
L 669.503291 396.072124 
L 670.495997 400.028672 
L 671.488703 399.077635 
L 672.481409 396.895378 
L 673.474115 398.301655 
L 675.459527 396.395366 
L 676.452233 398.676874 
L 677.444939 396.528088 
L 678.437645 399.522639 
L 679.43035 398.921196 
L 680.423056 401.950234 
L 681.415762 400.824244 
L 682.408468 399.23594 
L 683.401174 397.102112 
L 684.39388 399.6436 
L 685.386586 399.620016 
L 686.379292 398.734574 
L 687.371998 399.479708 
L 688.364704 399.233951 
L 689.35741 398.372171 
L 690.350116 401.668651 
L 691.342822 399.244476 
L 692.335527 399.255993 
L 693.328233 400.935948 
L 694.320939 399.87951 
L 695.313645 400.408472 
L 696.306351 399.459995 
L 698.291763 401.188611 
L 699.284469 402.310929 
L 700.277175 401.027391 
L 701.269881 402.425918 
L 702.262587 399.826071 
L 703.255293 401.362872 
L 704.247999 402.149299 
L 705.240705 403.744753 
L 706.23341 401.842089 
L 707.226116 402.203629 
L 708.218822 401.268369 
L 709.211528 404.244494 
L 710.204234 402.630877 
L 711.19694 402.015177 
L 712.189646 401.652879 
L 713.182352 402.75859 
L 714.175058 402.647254 
L 715.167764 402.948911 
L 716.16047 402.360885 
L 717.153176 403.01267 
L 718.145882 403.898382 
L 719.138587 402.969971 
L 720.131293 403.20817 
L 721.123999 404.132976 
L 722.116705 403.884157 
L 723.109411 404.337553 
L 724.102117 402.911925 
L 725.094823 404.163766 
L 726.087529 404.007705 
L 727.080235 404.921484 
L 728.072941 402.775732 
L 729.065647 404.397244 
L 730.058353 403.839194 
L 731.051059 404.124362 
L 732.043764 404.674405 
L 733.03647 404.441959 
L 734.029176 404.806609 
L 735.021882 403.162407 
L 736.014588 405.183432 
L 737.007294 404.242443 
L 738 405.556471 
L 738.992706 404.616171 
L 739.985412 405.596197 
L 740.978118 405.703968 
L 741.970824 406.105169 
L 742.96353 405.435292 
L 743.956236 406.152102 
L 744.948941 406.697502 
L 746.934353 405.944655 
L 747.927059 406.182786 
L 748.919765 405.084773 
L 749.912471 405.843283 
L 750.905177 407.089073 
L 751.897883 408.637031 
L 752.890589 406.793338 
L 753.883295 407.552288 
L 754.876001 407.534804 
L 755.868707 407.652492 
L 756.861413 406.324864 
L 757.854118 407.34634 
L 758.846824 406.36877 
L 759.83953 408.75647 
L 760.832236 407.389496 
L 761.824942 406.548346 
L 762.817648 407.609419 
L 763.810354 407.832081 
L 764.80306 407.598388 
L 765.795766 407.761718 
L 766.788472 407.634183 
L 767.781178 408.652895 
L 768.773884 407.767145 
L 769.76659 407.786591 
L 770.759295 407.001076 
L 771.752001 407.729324 
L 772.744707 409.486701 
L 773.737413 408.463858 
L 774.730119 409.069937 
L 775.722825 410.573255 
L 776.715531 410.008568 
L 777.708237 409.171223 
L 778.700943 407.608904 
L 779.693649 409.547595 
L 780.686355 409.919126 
L 781.679061 408.667701 
L 782.671767 408.7348 
L 783.664473 408.55048 
L 784.657178 410.34093 
L 785.649884 408.291009 
L 786.64259 410.387671 
L 787.635296 409.813036 
L 788.628002 411.105836 
L 789.620708 409.926411 
L 790.613414 410.063707 
L 791.60612 410.554838 
L 792.598826 410.458326 
L 793.591532 410.727893 
L 795.576944 410.785067 
L 796.56965 409.96546 
L 797.562355 411.934793 
L 798.555061 411.78329 
L 799.547767 410.946919 
L 800.540473 410.482669 
L 801.533179 412.147318 
L 802.525885 412.018171 
L 803.518591 411.434368 
L 804.511297 411.493842 
L 805.504003 412.592144 
L 806.496709 411.76497 
L 807.489415 411.58796 
L 808.482121 412.384681 
L 809.474827 412.541673 
L 810.467532 412.03389 
L 811.460238 411.235093 
L 812.452944 412.54406 
L 813.44565 412.318356 
L 814.438356 412.289422 
L 815.431062 413.146062 
L 816.423768 412.627758 
L 817.416474 412.986645 
L 818.40918 412.264576 
L 819.401886 413.23603 
L 820.394592 411.805265 
L 821.387298 412.545344 
L 822.380004 412.70634 
L 823.372709 412.295504 
L 824.365415 413.16129 
L 825.358121 413.46049 
L 827.343533 412.453056 
L 828.336239 413.638618 
L 829.328945 413.129389 
L 830.321651 413.035202 
L 831.314357 413.314834 
L 832.307063 413.191677 
L 833.299769 413.542966 
L 834.292475 414.734162 
L 835.285181 414.673268 
L 836.277886 413.073008 
L 837.270592 414.072288 
L 838.263298 414.004691 
L 839.256004 412.840824 
L 840.24871 414.523164 
L 842.234122 415.064138 
L 843.226828 413.304254 
L 844.219534 413.150961 
L 845.21224 414.257784 
L 846.204946 414.719071 
L 847.197652 414.441042 
L 849.183064 414.161964 
L 850.175769 415.049369 
L 851.168475 414.906367 
L 852.161181 414.925134 
L 853.153887 414.557669 
L 855.139299 415.868467 
L 856.132005 414.859401 
L 857.124711 414.86696 
L 858.117417 415.547877 
L 860.102829 415.941179 
L 861.095535 416.608718 
L 862.088241 414.952721 
L 863.080946 415.269967 
L 864.073652 415.81843 
L 865.066358 415.820049 
L 866.059064 417.196601 
L 867.05177 416.254033 
L 868.044476 415.724618 
L 870.029888 416.622829 
L 871.022594 416.719704 
L 872.0153 416.136466 
L 873.008006 416.441376 
L 874.000712 415.979014 
L 874.993418 417.052913 
L 875.986123 416.235685 
L 877.971535 417.076682 
L 878.964241 416.613836 
L 879.956947 417.237952 
L 880.949653 417.578167 
L 881.942359 417.621998 
L 882.935065 416.301984 
L 884.920477 417.316352 
L 885.913183 417.696009 
L 886.905889 417.417731 
L 888.8913 417.695772 
L 889.884006 417.439272 
L 890.876712 417.69784 
L 891.869418 416.910956 
L 892.862124 419.109884 
L 893.85483 417.528904 
L 894.847536 417.677862 
L 895.840242 416.820986 
L 896.832948 418.365079 
L 897.825654 417.894785 
L 898.81836 417.940653 
L 899.811066 416.946299 
L 900.803772 418.672395 
L 901.796477 417.083599 
L 902.789183 417.976149 
L 903.781889 419.06385 
L 904.774595 418.260559 
L 905.767301 415.896925 
L 906.760007 418.627301 
L 907.752713 417.867192 
L 908.745419 417.494688 
L 909.738125 418.921398 
L 910.730831 419.043354 
L 911.723537 418.494359 
L 912.716243 419.035241 
L 913.708949 419.406454 
L 914.701655 418.924994 
L 915.69436 418.5986 
L 916.687066 419.643365 
L 917.679772 419.840738 
L 918.672478 419.392502 
L 919.665184 420.145344 
L 920.65789 419.585434 
L 921.650596 419.242123 
L 922.643302 419.53911 
L 923.636008 418.8852 
L 924.628714 419.410348 
L 925.62142 418.51174 
L 926.614126 419.25879 
L 927.606832 419.273642 
L 929.592243 420.227152 
L 930.584949 420.334974 
L 931.577655 420.607733 
L 932.570361 419.044457 
L 933.563067 419.220699 
L 934.555773 421.149071 
L 935.548479 418.899435 
L 936.541185 419.790039 
L 937.533891 420.529904 
L 938.526597 421.624524 
L 939.519303 420.566047 
L 940.512009 420.312646 
L 941.504714 420.521824 
L 942.49742 420.3561 
L 943.490126 419.609409 
L 944.482832 420.990567 
L 945.475538 420.830046 
L 946.468244 421.548084 
L 947.46095 420.990398 
L 948.453656 419.626144 
L 949.446362 422.188367 
L 951.431774 420.108721 
L 952.42448 421.407826 
L 953.417186 420.777586 
L 954.409891 420.361852 
L 955.402597 422.602225 
L 956.395303 422.230799 
L 957.388009 421.51993 
L 958.380715 421.338643 
L 959.373421 420.810862 
L 960.366127 421.509288 
L 961.358833 422.596964 
L 962.351539 421.095563 
L 963.344245 422.589023 
L 964.336951 419.625865 
L 965.329657 421.253283 
L 966.322363 421.232371 
L 967.315068 421.942639 
L 968.307774 422.080822 
L 969.30048 422.385407 
L 970.293186 421.193424 
L 971.285892 421.990701 
L 972.278598 422.554225 
L 973.271304 423.946783 
L 974.26401 421.991408 
L 975.256716 422.666373 
L 976.249422 422.359059 
L 977.242128 421.433119 
L 978.234834 421.885917 
L 979.22754 422.505065 
L 980.220246 422.371631 
L 981.212951 423.117494 
L 982.205657 422.640158 
L 983.198363 422.471312 
L 984.191069 421.828292 
L 985.183775 422.274033 
L 986.176481 422.895709 
L 988.161893 422.479653 
L 989.154599 423.067158 
L 990.147305 422.652372 
L 992.132717 422.495411 
L 993.125423 422.741651 
L 994.118128 422.611111 
L 995.110834 422.172845 
L 996.10354 422.516526 
L 997.096246 421.202435 
L 998.088952 422.364926 
L 999.081658 422.51817 
L 1000.074364 423.728218 
L 1001.06707 422.84449 
L 1002.059776 423.220831 
L 1003.052482 422.201729 
L 1004.045188 424.001096 
L 1005.037894 421.78959 
L 1006.0306 423.945293 
L 1007.023305 423.597282 
L 1008.016011 423.540257 
L 1010.001423 423.777 
L 1010.994129 423.734669 
L 1011.986835 423.456943 
L 1012.979541 424.287124 
L 1013.972247 424.186369 
L 1014.964953 423.270182 
L 1015.957659 424.17388 
L 1016.950365 424.330033 
L 1017.943071 425.059793 
L 1018.935777 423.766372 
L 1019.928482 423.892852 
L 1020.921188 422.078009 
L 1021.913894 422.901912 
L 1022.9066 423.407329 
L 1023.899306 424.312404 
L 1024.892012 425.032662 
L 1025.884718 423.296218 
L 1026.877424 423.250419 
L 1027.87013 424.250069 
L 1028.862836 423.683517 
L 1029.855542 423.410322 
L 1030.848248 424.107496 
L 1031.840954 425.219623 
L 1032.833659 423.470636 
L 1033.826365 425.518892 
L 1034.819071 424.410917 
L 1035.811777 425.514844 
L 1036.804483 424.305744 
L 1037.797189 424.80569 
L 1038.789895 426.596168 
L 1039.782601 425.65468 
L 1040.775307 425.105073 
L 1041.768013 426.211772 
L 1042.760719 424.540793 
L 1043.753425 425.408221 
L 1044.746131 425.09265 
L 1045.738837 423.879146 
L 1047.724248 425.417696 
L 1048.716954 425.153536 
L 1049.70966 425.228857 
L 1050.702366 426.162995 
L 1051.695072 424.704339 
L 1052.687778 424.934489 
L 1053.680484 424.48172 
L 1054.67319 425.101663 
L 1055.665896 425.328576 
L 1056.658602 424.302968 
L 1057.651308 425.477107 
L 1058.644014 424.351136 
L 1060.629425 425.675122 
L 1061.622131 426.389679 
L 1062.614837 424.952717 
L 1063.607543 425.451529 
L 1064.600249 424.330229 
L 1066.585661 425.165282 
L 1067.578367 426.381838 
L 1068.571073 425.688048 
L 1069.563779 424.644932 
L 1070.556485 425.874517 
L 1071.549191 425.997219 
L 1072.541896 424.787816 
L 1073.534602 425.29454 
L 1074.527308 424.991151 
L 1075.520014 425.436069 
L 1076.51272 425.224543 
L 1077.505426 425.527759 
L 1078.498132 424.857148 
L 1079.490838 425.029888 
L 1080.483544 425.515187 
L 1081.47625 426.242361 
L 1082.468956 426.40457 
L 1083.461662 425.176596 
L 1084.454368 424.970531 
L 1085.447073 425.795675 
L 1086.439779 426.245937 
L 1087.432485 426.07885 
L 1088.425191 425.622123 
L 1089.417897 425.642735 
L 1090.410603 427.138686 
L 1091.403309 425.580059 
L 1092.396015 426.051808 
L 1093.388721 426.658669 
L 1094.381427 426.85973 
L 1095.374133 424.889122 
L 1096.366839 425.590934 
L 1097.359545 426.581109 
L 1098.35225 425.886987 
L 1099.344956 425.494276 
L 1101.330368 426.885208 
L 1102.323074 426.60771 
L 1103.31578 427.673339 
L 1104.308486 425.665097 
L 1105.301192 425.662094 
L 1106.293898 425.355428 
L 1107.286604 426.059878 
L 1108.27931 427.260792 
L 1109.272016 426.755722 
L 1110.264722 426.669123 
L 1111.257428 426.836159 
L 1112.250133 427.604551 
L 1113.242839 427.77302 
L 1114.235545 427.664965 
L 1115.228251 424.796158 
L 1116.220957 427.247105 
L 1117.213663 426.312964 
L 1118.206369 427.268687 
L 1119.199075 426.635401 
L 1120.191781 426.361929 
L 1121.184487 426.376355 
L 1122.177193 426.844547 
L 1123.169899 426.526333 
L 1124.162605 426.749792 
L 1125.15531 425.722297 
L 1126.148016 426.770465 
L 1127.140722 428.011225 
L 1128.133428 427.095416 
L 1129.126134 426.621678 
L 1130.11884 428.132969 
L 1131.111546 427.818941 
L 1132.104252 426.685018 
L 1133.096958 427.971459 
L 1134.089664 426.74928 
L 1135.08237 427.351343 
L 1136.075076 426.077356 
L 1138.060487 427.891454 
L 1139.053193 426.69478 
L 1140.045899 425.069366 
L 1141.038605 425.311028 
L 1142.031311 426.984024 
L 1143.024017 427.639991 
L 1144.016723 426.441984 
L 1145.009429 426.759785 
L 1146.002135 426.946418 
L 1146.994841 426.348929 
L 1147.987547 426.298835 
L 1148.980253 425.681798 
L 1149.972959 427.466082 
L 1150.965664 427.014756 
L 1151.95837 427.881848 
L 1152.951076 427.214965 
L 1153.943782 428.55358 
L 1154.936488 427.374259 
L 1155.929194 427.982041 
L 1156.9219 426.814293 
L 1157.914606 427.382795 
L 1158.907312 427.48846 
L 1159.900018 428.014589 
L 1160.892724 428.249237 
L 1161.88543 427.590883 
L 1162.878136 427.329451 
L 1163.870841 427.351594 
L 1164.863547 426.952448 
L 1166.848959 427.33555 
L 1167.841665 428.794577 
L 1169.827077 426.686381 
L 1170.819783 426.930574 
L 1171.812489 428.69427 
L 1172.805195 427.032635 
L 1173.797901 426.492418 
L 1174.790607 427.059211 
L 1175.783313 427.194227 
L 1176.776019 426.797295 
L 1177.768724 428.221849 
L 1178.76143 427.69441 
L 1179.754136 428.232692 
L 1180.746842 428.121369 
L 1182.732254 428.51732 
L 1183.72496 428.674199 
L 1184.717666 427.428401 
L 1185.710372 427.968183 
L 1186.703078 428.306722 
L 1187.695784 426.307888 
L 1188.68849 428.000501 
L 1189.681196 429.1906 
L 1190.673901 427.72071 
L 1191.666607 428.274297 
L 1192.659313 428.282113 
L 1193.652019 428.986369 
L 1194.644725 427.005144 
L 1195.637431 426.263753 
L 1196.630137 427.383143 
L 1197.622843 427.301957 
L 1198.615549 427.649177 
L 1199.608255 427.533361 
L 1200.600961 426.861546 
L 1201.593667 427.866096 
L 1202.586373 428.432287 
L 1203.579078 428.261301 
L 1204.571784 427.068965 
L 1205.56449 426.484162 
L 1206.557196 426.71817 
L 1207.549902 427.198093 
L 1208.542608 428.428343 
L 1209.535314 427.46952 
L 1210.52802 428.36644 
L 1211.520726 427.77582 
L 1212.513432 427.762294 
L 1213.506138 428.138326 
L 1214.498844 427.507624 
L 1215.49155 427.796534 
L 1216.484255 427.781173 
L 1217.476961 427.544083 
L 1218.469667 428.394141 
L 1219.462373 428.759657 
L 1220.455079 427.549265 
L 1221.447785 427.907806 
L 1222.440491 428.670136 
L 1223.433197 427.273118 
L 1224.425903 428.046148 
L 1225.418609 428.19553 
L 1226.411315 427.52613 
L 1227.404021 428.899604 
L 1228.396727 427.343254 
L 1231.374844 428.965354 
L 1232.36755 428.019436 
L 1233.360256 428.0394 
L 1234.352962 426.664345 
L 1235.345668 428.362724 
L 1236.338374 428.032502 
L 1237.33108 427.046087 
L 1238.323786 427.807466 
L 1239.316492 427.774195 
L 1240.309198 427.366061 
L 1242.29461 428.56181 
L 1243.287315 428.245959 
L 1244.280021 428.223821 
L 1245.272727 429.064356 
L 1245.272727 429.064356 
" clip-path="url(#p734ba5b849)" style="fill: none; stroke: #1f77b4; stroke-width: 1.5; stroke-linecap: square"/>
   </g>
   <g id="patch_3">
    <path d="M 180 512.64 
L 180 69.12 
" style="fill: none; stroke: #000000; stroke-width: 0.8; stroke-linejoin: miter; stroke-linecap: square"/>
   </g>
   <g id="patch_4">
    <path d="M 1296 512.64 
L 1296 69.12 
" style="fill: none; stroke: #000000; stroke-width: 0.8; stroke-linejoin: miter; stroke-linecap: square"/>
   </g>
   <g id="patch_5">
    <path d="M 180 512.64 
L 1296 512.64 
" style="fill: none; stroke: #000000; stroke-width: 0.8; stroke-linejoin: miter; stroke-linecap: square"/>
   </g>
   <g id="patch_6">
    <path d="M 180 69.12 
L 1296 69.12 
" style="fill: none; stroke: #000000; stroke-width: 0.8; stroke-linejoin: miter; stroke-linecap: square"/>
   </g>
   <g id="text_13">
    <!-- source5-receiver22 -->
    <g transform="translate(544.9 60.80125) scale(0.4 -0.4)">
     <defs>
      <path id="DejaVuSans-73" d="M 2834 3397 
L 2834 2853 
Q 2591 2978 2328 3040 
Q 2066 3103 1784 3103 
Q 1356 3103 1142 2972 
Q 928 2841 928 2578 
Q 928 2378 1081 2264 
Q 1234 2150 1697 2047 
L 1894 2003 
Q 2506 1872 2764 1633 
Q 3022 1394 3022 966 
Q 3022 478 2636 193 
Q 2250 -91 1575 -91 
Q 1294 -91 989 -36 
Q 684 19 347 128 
L 347 722 
Q 666 556 975 473 
Q 1284 391 1588 391 
Q 1994 391 2212 530 
Q 2431 669 2431 922 
Q 2431 1156 2273 1281 
Q 2116 1406 1581 1522 
L 1381 1569 
Q 847 1681 609 1914 
Q 372 2147 372 2553 
Q 372 3047 722 3315 
Q 1072 3584 1716 3584 
Q 2034 3584 2315 3537 
Q 2597 3491 2834 3397 
z
" transform="scale(0.015625)"/>
      <path id="DejaVuSans-6f" d="M 1959 3097 
Q 1497 3097 1228 2736 
Q 959 2375 959 1747 
Q 959 1119 1226 758 
Q 1494 397 1959 397 
Q 2419 397 2687 759 
Q 2956 1122 2956 1747 
Q 2956 2369 2687 2733 
Q 2419 3097 1959 3097 
z
M 1959 3584 
Q 2709 3584 3137 3096 
Q 3566 2609 3566 1747 
Q 3566 888 3137 398 
Q 2709 -91 1959 -91 
Q 1206 -91 779 398 
Q 353 888 353 1747 
Q 353 2609 779 3096 
Q 1206 3584 1959 3584 
z
" transform="scale(0.015625)"/>
      <path id="DejaVuSans-75" d="M 544 1381 
L 544 3500 
L 1119 3500 
L 1119 1403 
Q 1119 906 1312 657 
Q 1506 409 1894 409 
Q 2359 409 2629 706 
Q 2900 1003 2900 1516 
L 2900 3500 
L 3475 3500 
L 3475 0 
L 2900 0 
L 2900 538 
Q 2691 219 2414 64 
Q 2138 -91 1772 -91 
Q 1169 -91 856 284 
Q 544 659 544 1381 
z
M 1991 3584 
L 1991 3584 
z
" transform="scale(0.015625)"/>
      <path id="DejaVuSans-72" d="M 2631 2963 
Q 2534 3019 2420 3045 
Q 2306 3072 2169 3072 
Q 1681 3072 1420 2755 
Q 1159 2438 1159 1844 
L 1159 0 
L 581 0 
L 581 3500 
L 1159 3500 
L 1159 2956 
Q 1341 3275 1631 3429 
Q 1922 3584 2338 3584 
Q 2397 3584 2469 3576 
Q 2541 3569 2628 3553 
L 2631 2963 
z
" transform="scale(0.015625)"/>
      <path id="DejaVuSans-63" d="M 3122 3366 
L 3122 2828 
Q 2878 2963 2633 3030 
Q 2388 3097 2138 3097 
Q 1578 3097 1268 2742 
Q 959 2388 959 1747 
Q 959 1106 1268 751 
Q 1578 397 2138 397 
Q 2388 397 2633 464 
Q 2878 531 3122 666 
L 3122 134 
Q 2881 22 2623 -34 
Q 2366 -91 2075 -91 
Q 1284 -91 818 406 
Q 353 903 353 1747 
Q 353 2603 823 3093 
Q 1294 3584 2113 3584 
Q 2378 3584 2631 3529 
Q 2884 3475 3122 3366 
z
" transform="scale(0.015625)"/>
      <path id="DejaVuSans-65" d="M 3597 1894 
L 3597 1613 
L 953 1613 
Q 991 1019 1311 708 
Q 1631 397 2203 397 
Q 2534 397 2845 478 
Q 3156 559 3463 722 
L 3463 178 
Q 3153 47 2828 -22 
Q 2503 -91 2169 -91 
Q 1331 -91 842 396 
Q 353 884 353 1716 
Q 353 2575 817 3079 
Q 1281 3584 2069 3584 
Q 2775 3584 3186 3129 
Q 3597 2675 3597 1894 
z
M 3022 2063 
Q 3016 2534 2758 2815 
Q 2500 3097 2075 3097 
Q 1594 3097 1305 2825 
Q 1016 2553 972 2059 
L 3022 2063 
z
" transform="scale(0.015625)"/>
      <path id="DejaVuSans-2d" d="M 313 2009 
L 1997 2009 
L 1997 1497 
L 313 1497 
L 313 2009 
z
" transform="scale(0.015625)"/>
      <path id="DejaVuSans-69" d="M 603 3500 
L 1178 3500 
L 1178 0 
L 603 0 
L 603 3500 
z
M 603 4863 
L 1178 4863 
L 1178 4134 
L 603 4134 
L 603 4863 
z
" transform="scale(0.015625)"/>
      <path id="DejaVuSans-76" d="M 191 3500 
L 800 3500 
L 1894 563 
L 2988 3500 
L 3597 3500 
L 2284 0 
L 1503 0 
L 191 3500 
z
" transform="scale(0.015625)"/>
     </defs>
     <use xlink:href="#DejaVuSans-73"/>
     <use xlink:href="#DejaVuSans-6f" x="52.099609"/>
     <use xlink:href="#DejaVuSans-75" x="113.28125"/>
     <use xlink:href="#DejaVuSans-72" x="176.660156"/>
     <use xlink:href="#DejaVuSans-63" x="215.523438"/>
     <use xlink:href="#DejaVuSans-65" x="270.503906"/>
     <use xlink:href="#DejaVuSans-35" x="332.027344"/>
     <use xlink:href="#DejaVuSans-2d" x="395.650391"/>
     <use xlink:href="#DejaVuSans-72" x="431.734375"/>
     <use xlink:href="#DejaVuSans-65" x="470.597656"/>
     <use xlink:href="#DejaVuSans-63" x="532.121094"/>
     <use xlink:href="#DejaVuSans-65" x="587.101562"/>
     <use xlink:href="#DejaVuSans-69" x="648.625"/>
     <use xlink:href="#DejaVuSans-76" x="676.408203"/>
     <use xlink:href="#DejaVuSans-65" x="735.587891"/>
     <use xlink:href="#DejaVuSans-72" x="797.111328"/>
     <use xlink:href="#DejaVuSans-32" x="838.224609"/>
     <use xlink:href="#DejaVuSans-32" x="901.847656"/>
    </g>
   </g>
  </g>
 </g>
 <defs>
  <clipPath id="p734ba5b849">
   <rect x="180" y="69.12" width="1116" height="443.52"/>
  </clipPath>
 </defs>
</svg>
