<?xml version="1.0" encoding="utf-8" standalone="no"?>
<!DOCTYPE svg PUBLIC "-//W3C//DTD SVG 1.1//EN"
  "http://www.w3.org/Graphics/SVG/1.1/DTD/svg11.dtd">
<svg xmlns:xlink="http://www.w3.org/1999/xlink" width="1440pt" height="576pt" viewBox="0 0 1440 576" xmlns="http://www.w3.org/2000/svg" version="1.1">
 <metadata>
  <rdf:RDF xmlns:dc="http://purl.org/dc/elements/1.1/" xmlns:cc="http://creativecommons.org/ns#" xmlns:rdf="http://www.w3.org/1999/02/22-rdf-syntax-ns#">
   <cc:Work>
    <dc:type rdf:resource="http://purl.org/dc/dcmitype/StillImage"/>
    <dc:date>2024-05-22T04:49:46.663664</dc:date>
    <dc:format>image/svg+xml</dc:format>
    <dc:creator>
     <cc:Agent>
      <dc:title>Matplotlib v3.8.3, https://matplotlib.org/</dc:title>
     </cc:Agent>
    </dc:creator>
   </cc:Work>
  </rdf:RDF>
 </metadata>
 <defs>
  <style type="text/css">*{stroke-linejoin: round; stroke-linecap: butt}</style>
 </defs>
 <g id="figure_1">
  <g id="patch_1">
   <path d="M 0 576 
L 1440 576 
L 1440 0 
L 0 0 
z
" style="fill: #ffffff"/>
  </g>
  <g id="axes_1">
   <g id="patch_2">
    <path d="M 180 512.64 
L 1296 512.64 
L 1296 69.12 
L 180 69.12 
z
" style="fill: #ffffff"/>
   </g>
   <g id="matplotlib.axis_1">
    <g id="xtick_1">
     <g id="line2d_1">
      <defs>
       <path id="m548f6e3f2f" d="M 0 0 
L 0 3.5 
" style="stroke: #000000; stroke-width: 0.8"/>
      </defs>
      <g>
       <use xlink:href="#m548f6e3f2f" x="229.734567" y="512.64" style="stroke: #000000; stroke-width: 0.8"/>
      </g>
     </g>
     <g id="text_1">
      <!-- 0 -->
      <g transform="translate(226.553317 527.238438) scale(0.1 -0.1)">
       <defs>
        <path id="DejaVuSans-30" d="M 2034 4250 
Q 1547 4250 1301 3770 
Q 1056 3291 1056 2328 
Q 1056 1369 1301 889 
Q 1547 409 2034 409 
Q 2525 409 2770 889 
Q 3016 1369 3016 2328 
Q 3016 3291 2770 3770 
Q 2525 4250 2034 4250 
z
M 2034 4750 
Q 2819 4750 3233 4129 
Q 3647 3509 3647 2328 
Q 3647 1150 3233 529 
Q 2819 -91 2034 -91 
Q 1250 -91 836 529 
Q 422 1150 422 2328 
Q 422 3509 836 4129 
Q 1250 4750 2034 4750 
z
" transform="scale(0.015625)"/>
       </defs>
       <use xlink:href="#DejaVuSans-30"/>
      </g>
     </g>
    </g>
    <g id="xtick_2">
     <g id="line2d_2">
      <g>
       <use xlink:href="#m548f6e3f2f" x="433.04074" y="512.64" style="stroke: #000000; stroke-width: 0.8"/>
      </g>
     </g>
     <g id="text_2">
      <!-- 500 -->
      <g transform="translate(423.49699 527.238438) scale(0.1 -0.1)">
       <defs>
        <path id="DejaVuSans-35" d="M 691 4666 
L 3169 4666 
L 3169 4134 
L 1269 4134 
L 1269 2991 
Q 1406 3038 1543 3061 
Q 1681 3084 1819 3084 
Q 2600 3084 3056 2656 
Q 3513 2228 3513 1497 
Q 3513 744 3044 326 
Q 2575 -91 1722 -91 
Q 1428 -91 1123 -41 
Q 819 9 494 109 
L 494 744 
Q 775 591 1075 516 
Q 1375 441 1709 441 
Q 2250 441 2565 725 
Q 2881 1009 2881 1497 
Q 2881 1984 2565 2268 
Q 2250 2553 1709 2553 
Q 1456 2553 1204 2497 
Q 953 2441 691 2322 
L 691 4666 
z
" transform="scale(0.015625)"/>
       </defs>
       <use xlink:href="#DejaVuSans-35"/>
       <use xlink:href="#DejaVuSans-30" x="63.623047"/>
       <use xlink:href="#DejaVuSans-30" x="127.246094"/>
      </g>
     </g>
    </g>
    <g id="xtick_3">
     <g id="line2d_3">
      <g>
       <use xlink:href="#m548f6e3f2f" x="636.346913" y="512.64" style="stroke: #000000; stroke-width: 0.8"/>
      </g>
     </g>
     <g id="text_3">
      <!-- 1000 -->
      <g transform="translate(623.621913 527.238438) scale(0.1 -0.1)">
       <defs>
        <path id="DejaVuSans-31" d="M 794 531 
L 1825 531 
L 1825 4091 
L 703 3866 
L 703 4441 
L 1819 4666 
L 2450 4666 
L 2450 531 
L 3481 531 
L 3481 0 
L 794 0 
L 794 531 
z
" transform="scale(0.015625)"/>
       </defs>
       <use xlink:href="#DejaVuSans-31"/>
       <use xlink:href="#DejaVuSans-30" x="63.623047"/>
       <use xlink:href="#DejaVuSans-30" x="127.246094"/>
       <use xlink:href="#DejaVuSans-30" x="190.869141"/>
      </g>
     </g>
    </g>
    <g id="xtick_4">
     <g id="line2d_4">
      <g>
       <use xlink:href="#m548f6e3f2f" x="839.653087" y="512.64" style="stroke: #000000; stroke-width: 0.8"/>
      </g>
     </g>
     <g id="text_4">
      <!-- 1500 -->
      <g transform="translate(826.928087 527.238438) scale(0.1 -0.1)">
       <use xlink:href="#DejaVuSans-31"/>
       <use xlink:href="#DejaVuSans-35" x="63.623047"/>
       <use xlink:href="#DejaVuSans-30" x="127.246094"/>
       <use xlink:href="#DejaVuSans-30" x="190.869141"/>
      </g>
     </g>
    </g>
    <g id="xtick_5">
     <g id="line2d_5">
      <g>
       <use xlink:href="#m548f6e3f2f" x="1042.95926" y="512.64" style="stroke: #000000; stroke-width: 0.8"/>
      </g>
     </g>
     <g id="text_5">
      <!-- 2000 -->
      <g transform="translate(1030.23426 527.238438) scale(0.1 -0.1)">
       <defs>
        <path id="DejaVuSans-32" d="M 1228 531 
L 3431 531 
L 3431 0 
L 469 0 
L 469 531 
Q 828 903 1448 1529 
Q 2069 2156 2228 2338 
Q 2531 2678 2651 2914 
Q 2772 3150 2772 3378 
Q 2772 3750 2511 3984 
Q 2250 4219 1831 4219 
Q 1534 4219 1204 4116 
Q 875 4013 500 3803 
L 500 4441 
Q 881 4594 1212 4672 
Q 1544 4750 1819 4750 
Q 2544 4750 2975 4387 
Q 3406 4025 3406 3419 
Q 3406 3131 3298 2873 
Q 3191 2616 2906 2266 
Q 2828 2175 2409 1742 
Q 1991 1309 1228 531 
z
" transform="scale(0.015625)"/>
       </defs>
       <use xlink:href="#DejaVuSans-32"/>
       <use xlink:href="#DejaVuSans-30" x="63.623047"/>
       <use xlink:href="#DejaVuSans-30" x="127.246094"/>
       <use xlink:href="#DejaVuSans-30" x="190.869141"/>
      </g>
     </g>
    </g>
    <g id="xtick_6">
     <g id="line2d_6">
      <g>
       <use xlink:href="#m548f6e3f2f" x="1246.265433" y="512.64" style="stroke: #000000; stroke-width: 0.8"/>
      </g>
     </g>
     <g id="text_6">
      <!-- 2500 -->
      <g transform="translate(1233.540433 527.238438) scale(0.1 -0.1)">
       <use xlink:href="#DejaVuSans-32"/>
       <use xlink:href="#DejaVuSans-35" x="63.623047"/>
       <use xlink:href="#DejaVuSans-30" x="127.246094"/>
       <use xlink:href="#DejaVuSans-30" x="190.869141"/>
      </g>
     </g>
    </g>
   </g>
   <g id="matplotlib.axis_2">
    <g id="ytick_1">
     <g id="line2d_7">
      <defs>
       <path id="m99759427ec" d="M 0 0 
L -3.5 0 
" style="stroke: #000000; stroke-width: 0.8"/>
      </defs>
      <g>
       <use xlink:href="#m99759427ec" x="180" y="447.942605" style="stroke: #000000; stroke-width: 0.8"/>
      </g>
     </g>
     <g id="text_7">
      <!-- −4 -->
      <g transform="translate(158.257812 451.741823) scale(0.1 -0.1)">
       <defs>
        <path id="DejaVuSans-2212" d="M 678 2272 
L 4684 2272 
L 4684 1741 
L 678 1741 
L 678 2272 
z
" transform="scale(0.015625)"/>
        <path id="DejaVuSans-34" d="M 2419 4116 
L 825 1625 
L 2419 1625 
L 2419 4116 
z
M 2253 4666 
L 3047 4666 
L 3047 1625 
L 3713 1625 
L 3713 1100 
L 3047 1100 
L 3047 0 
L 2419 0 
L 2419 1100 
L 313 1100 
L 313 1709 
L 2253 4666 
z
" transform="scale(0.015625)"/>
       </defs>
       <use xlink:href="#DejaVuSans-2212"/>
       <use xlink:href="#DejaVuSans-34" x="83.789062"/>
      </g>
     </g>
    </g>
    <g id="ytick_2">
     <g id="line2d_8">
      <g>
       <use xlink:href="#m99759427ec" x="180" y="373.359694" style="stroke: #000000; stroke-width: 0.8"/>
      </g>
     </g>
     <g id="text_8">
      <!-- −2 -->
      <g transform="translate(158.257812 377.158913) scale(0.1 -0.1)">
       <use xlink:href="#DejaVuSans-2212"/>
       <use xlink:href="#DejaVuSans-32" x="83.789062"/>
      </g>
     </g>
    </g>
    <g id="ytick_3">
     <g id="line2d_9">
      <g>
       <use xlink:href="#m99759427ec" x="180" y="298.776783" style="stroke: #000000; stroke-width: 0.8"/>
      </g>
     </g>
     <g id="text_9">
      <!-- 0 -->
      <g transform="translate(166.6375 302.576002) scale(0.1 -0.1)">
       <use xlink:href="#DejaVuSans-30"/>
      </g>
     </g>
    </g>
    <g id="ytick_4">
     <g id="line2d_10">
      <g>
       <use xlink:href="#m99759427ec" x="180" y="224.193873" style="stroke: #000000; stroke-width: 0.8"/>
      </g>
     </g>
     <g id="text_10">
      <!-- 2 -->
      <g transform="translate(166.6375 227.993092) scale(0.1 -0.1)">
       <use xlink:href="#DejaVuSans-32"/>
      </g>
     </g>
    </g>
    <g id="ytick_5">
     <g id="line2d_11">
      <g>
       <use xlink:href="#m99759427ec" x="180" y="149.610962" style="stroke: #000000; stroke-width: 0.8"/>
      </g>
     </g>
     <g id="text_11">
      <!-- 4 -->
      <g transform="translate(166.6375 153.410181) scale(0.1 -0.1)">
       <use xlink:href="#DejaVuSans-34"/>
      </g>
     </g>
    </g>
    <g id="ytick_6">
     <g id="line2d_12">
      <g>
       <use xlink:href="#m99759427ec" x="180" y="75.028052" style="stroke: #000000; stroke-width: 0.8"/>
      </g>
     </g>
     <g id="text_12">
      <!-- 6 -->
      <g transform="translate(166.6375 78.82727) scale(0.1 -0.1)">
       <defs>
        <path id="DejaVuSans-36" d="M 2113 2584 
Q 1688 2584 1439 2293 
Q 1191 2003 1191 1497 
Q 1191 994 1439 701 
Q 1688 409 2113 409 
Q 2538 409 2786 701 
Q 3034 994 3034 1497 
Q 3034 2003 2786 2293 
Q 2538 2584 2113 2584 
z
M 3366 4563 
L 3366 3988 
Q 3128 4100 2886 4159 
Q 2644 4219 2406 4219 
Q 1781 4219 1451 3797 
Q 1122 3375 1075 2522 
Q 1259 2794 1537 2939 
Q 1816 3084 2150 3084 
Q 2853 3084 3261 2657 
Q 3669 2231 3669 1497 
Q 3669 778 3244 343 
Q 2819 -91 2113 -91 
Q 1303 -91 875 529 
Q 447 1150 447 2328 
Q 447 3434 972 4092 
Q 1497 4750 2381 4750 
Q 2619 4750 2861 4703 
Q 3103 4656 3366 4563 
z
" transform="scale(0.015625)"/>
       </defs>
       <use xlink:href="#DejaVuSans-36"/>
      </g>
     </g>
    </g>
   </g>
   <g id="line2d_13">
    <path d="M 230.727273 320.445068 
L 231.719979 408.096235 
L 232.712685 314.327611 
L 233.70539 343.984448 
L 234.698096 316.419863 
L 235.690802 319.635506 
L 236.683508 337.169069 
L 237.676214 310.330386 
L 238.66892 364.989085 
L 239.661626 313.101738 
L 240.654332 317.881943 
L 241.647038 332.360569 
L 242.639744 305.380943 
L 243.63245 371.494763 
L 244.625156 311.08873 
L 245.617862 338.348421 
L 247.603273 304.676925 
L 248.595979 269.836573 
L 249.588685 242.624647 
L 250.581391 235.170791 
L 251.574097 238.7199 
L 252.566803 249.428574 
L 253.559509 264.644042 
L 255.544921 206.652108 
L 256.537627 204.757123 
L 257.530333 228.522027 
L 258.523039 228.638029 
L 259.515745 218.529045 
L 260.50845 224.373593 
L 261.501156 221.993688 
L 262.493862 212.629699 
L 263.486568 199.990881 
L 264.479274 202.29814 
L 265.47198 206.734432 
L 266.464686 203.946012 
L 267.457392 192.08779 
L 268.450098 184.44542 
L 269.442804 207.876431 
L 270.43551 222.856773 
L 271.428216 210.94525 
L 272.420922 201.290524 
L 273.413627 205.838241 
L 274.406333 172.512661 
L 275.399039 173.697451 
L 276.391745 169.29663 
L 277.384451 135.729188 
L 278.377157 116.630088 
L 279.369863 112.422615 
L 281.355275 117.323768 
L 282.347981 102.130992 
L 283.340687 89.28 
L 284.333393 93.986664 
L 285.326099 109.58763 
L 286.318804 128.358839 
L 287.31151 152.329698 
L 288.304216 164.115188 
L 289.296922 170.611474 
L 290.289628 144.226615 
L 291.282334 140.909612 
L 292.27504 149.161017 
L 294.260452 178.43028 
L 295.253158 179.362594 
L 296.245864 178.050129 
L 297.23857 176.171938 
L 298.231276 198.017464 
L 299.223981 204.368394 
L 300.216687 190.38085 
L 301.209393 191.634905 
L 302.202099 237.541116 
L 303.194805 227.567436 
L 304.187511 223.197603 
L 305.180217 243.44485 
L 306.172923 236.951993 
L 307.165629 253.895635 
L 308.158335 231.776975 
L 309.151041 278.082907 
L 310.143747 263.563731 
L 311.136453 243.398609 
L 313.121864 245.579307 
L 314.11457 255.741133 
L 315.107276 288.6963 
L 316.099982 326.932062 
L 317.092688 303.960827 
L 318.085394 311.271767 
L 319.0781 280.031704 
L 320.070806 306.435531 
L 321.063512 279.765719 
L 322.056218 296.70816 
L 323.048924 283.844806 
L 325.034336 299.963762 
L 326.027041 304.85305 
L 327.019747 328.288424 
L 328.012453 336.457917 
L 329.005159 325.641358 
L 329.997865 330.294562 
L 330.990571 338.180841 
L 331.983277 310.225617 
L 332.975983 452.310221 
L 333.968689 307.819381 
L 334.961395 361.897439 
L 335.954101 309.985839 
L 336.946807 334.276928 
L 337.939513 334.461565 
L 338.932218 310.710262 
L 339.924924 330.428927 
L 340.91763 288.698375 
L 341.910336 301.818884 
L 342.903042 283.583334 
L 343.895748 302.128406 
L 344.888454 303.168874 
L 345.88116 324.03892 
L 346.873866 357.180282 
L 347.866572 296.374792 
L 348.859278 310.517547 
L 349.851984 292.149826 
L 350.84469 339.544639 
L 351.837395 332.287167 
L 352.830101 293.750599 
L 353.822807 271.590342 
L 354.815513 257.863976 
L 355.808219 250.551947 
L 356.800925 251.298245 
L 357.793631 249.104275 
L 358.786337 256.245533 
L 359.779043 256.229691 
L 360.771749 270.970734 
L 361.764455 276.259152 
L 362.757161 309.312897 
L 363.749867 363.08841 
L 364.742572 289.95783 
L 366.727984 253.852941 
L 367.72069 243.51211 
L 368.713396 238.567461 
L 369.706102 234.282841 
L 370.698808 239.086772 
L 371.691514 241.918128 
L 372.68422 262.000166 
L 373.676926 291.427781 
L 374.669632 291.693597 
L 375.662338 249.818819 
L 376.655044 228.608832 
L 377.64775 213.686013 
L 378.640455 203.510762 
L 379.633161 194.981691 
L 381.618573 183.811675 
L 383.603985 178.609317 
L 384.596691 178.260418 
L 385.589397 178.038747 
L 386.582103 179.334599 
L 387.574809 181.411526 
L 388.567515 185.315921 
L 389.560221 189.89596 
L 390.552927 195.623485 
L 392.538338 214.324928 
L 394.52375 246.923136 
L 395.516456 280.294686 
L 396.509162 286.151099 
L 397.501868 265.919033 
L 398.494574 253.617738 
L 399.48728 248.059663 
L 400.479986 246.450879 
L 401.472692 248.840352 
L 402.465398 251.845821 
L 403.458104 263.092437 
L 404.450809 268.228392 
L 405.443515 282.281584 
L 407.428927 285.674411 
L 408.421633 282.089644 
L 409.414339 283.461936 
L 410.407045 282.045235 
L 411.399751 292.015726 
L 412.392457 300.006586 
L 413.385163 318.323563 
L 414.377869 319.101575 
L 415.370575 307.744092 
L 416.363281 309.264898 
L 417.355986 294.954241 
L 418.348692 287.815069 
L 419.341398 285.472992 
L 420.334104 292.315996 
L 421.32681 293.890762 
L 422.319516 306.883989 
L 423.312222 312.206314 
L 424.304928 322.99005 
L 425.297634 319.259956 
L 426.29034 311.750153 
L 427.283046 306.043877 
L 428.275752 322.315059 
L 429.268458 314.755835 
L 430.261163 308.153896 
L 431.253869 314.111685 
L 432.246575 334.301608 
L 433.239281 319.275489 
L 434.231987 340.573223 
L 435.224693 324.065994 
L 436.217399 331.921038 
L 437.210105 323.294492 
L 438.202811 350.529385 
L 439.195517 338.811866 
L 440.188223 396.561516 
L 441.180929 329.806128 
L 442.173635 333.34465 
L 443.166341 313.031169 
L 444.159046 314.268598 
L 445.151752 294.60038 
L 446.144458 312.894143 
L 447.137164 303.957669 
L 448.12987 321.482089 
L 449.122576 329.918559 
L 450.115282 359.821736 
L 451.107988 351.179916 
L 452.100694 322.019713 
L 453.0934 303.900659 
L 454.086106 301.027928 
L 455.078812 289.863545 
L 456.071518 294.323878 
L 457.064223 289.389347 
L 458.056929 306.525513 
L 459.049635 304.481401 
L 460.042341 344.820888 
L 461.035047 348.071251 
L 462.027753 327.611115 
L 463.020459 300.918079 
L 464.013165 293.895338 
L 465.005871 282.221666 
L 465.998577 281.975509 
L 466.991283 274.301404 
L 467.983989 281.047832 
L 468.976695 278.278718 
L 469.9694 289.272314 
L 470.962106 293.819461 
L 471.954812 315.619086 
L 472.947518 352.919569 
L 473.940224 343.458667 
L 474.93293 307.08549 
L 475.925636 293.941411 
L 476.918342 276.838636 
L 477.911048 273.391036 
L 478.903754 264.662335 
L 479.89646 263.178523 
L 480.889166 256.666267 
L 481.881872 255.595066 
L 482.874577 251.647846 
L 484.859989 247.672202 
L 485.852695 244.471097 
L 486.845401 243.79074 
L 487.838107 240.828882 
L 488.830813 240.860168 
L 489.823519 238.287017 
L 490.816225 238.88219 
L 491.808931 237.123833 
L 492.801637 239.512225 
L 493.794343 239.305322 
L 495.779754 245.750485 
L 496.77246 250.881032 
L 498.757872 265.467457 
L 499.750578 283.408594 
L 500.743284 297.557638 
L 501.73599 334.780827 
L 502.728696 322.143084 
L 503.721402 294.47404 
L 504.714108 285.635563 
L 505.706814 275.582184 
L 506.69952 274.872053 
L 507.692226 276.408878 
L 508.684932 275.667081 
L 509.677637 280.138288 
L 510.670343 286.798285 
L 511.663049 302.461758 
L 512.655755 297.713361 
L 513.648461 305.921511 
L 514.641167 297.11915 
L 515.633873 294.954361 
L 516.626579 288.902535 
L 517.619285 291.14281 
L 518.611991 288.384374 
L 519.604697 297.239743 
L 520.597403 298.041381 
L 521.590109 319.770644 
L 522.582814 338.987203 
L 523.57552 377.35182 
L 524.568226 353.914017 
L 525.560932 316.706583 
L 526.553638 305.697406 
L 527.546344 303.586191 
L 528.53905 297.588941 
L 529.531756 307.082491 
L 530.524462 305.92855 
L 531.517168 329.650253 
L 532.509874 328.908129 
L 533.50258 387.613441 
L 534.495286 345.438467 
L 535.487991 321.717901 
L 536.480697 317.161074 
L 537.473403 300.173642 
L 538.466109 298.562083 
L 539.458815 304.306958 
L 540.451521 294.254243 
L 541.444227 312.146107 
L 542.436933 306.894638 
L 543.429639 329.565656 
L 544.422345 333.415221 
L 545.415051 349.878474 
L 546.407757 420.650354 
L 547.400463 329.076327 
L 548.393168 342.359837 
L 549.385874 330.269755 
L 550.37858 325.14683 
L 551.371286 330.644763 
L 552.363992 330.364801 
L 553.356698 364.48717 
L 554.349404 347.433255 
L 555.34211 359.284813 
L 556.334816 379.298286 
L 557.327522 335.210575 
L 558.320228 342.234331 
L 559.312934 319.867538 
L 560.30564 331.527468 
L 561.298345 327.139831 
L 562.291051 315.725579 
L 563.283757 322.287184 
L 564.276463 332.730747 
L 565.269169 331.938836 
L 566.261875 323.772349 
L 567.254581 346.841713 
L 568.247287 332.463621 
L 569.239993 348.887938 
L 570.232699 339.684565 
L 571.225405 333.58318 
L 572.218111 337.265383 
L 573.210817 325.890352 
L 574.203523 345.525253 
L 575.196228 325.445366 
L 576.188934 351.596057 
L 577.18164 351.760686 
L 578.174346 376.804393 
L 579.167052 416.017668 
L 580.159758 356.069623 
L 581.152464 324.139261 
L 582.14517 314.897707 
L 583.137876 298.229865 
L 584.130582 294.668992 
L 585.123288 284.747172 
L 586.115994 282.028417 
L 587.1087 275.754795 
L 588.101405 275.644885 
L 589.094111 272.180045 
L 590.086817 270.958691 
L 591.079523 270.630769 
L 592.072229 270.966074 
L 593.064935 271.980911 
L 594.057641 271.95081 
L 595.050347 276.491598 
L 596.043053 275.108021 
L 597.035759 280.754869 
L 598.028465 279.101818 
L 599.021171 284.706574 
L 600.013877 284.48276 
L 601.006582 291.01587 
L 601.999288 292.437006 
L 602.991994 300.568888 
L 603.9847 304.543666 
L 604.977406 315.633243 
L 606.962818 346.883719 
L 607.955524 393.753376 
L 608.94823 374.285972 
L 609.940936 331.478254 
L 610.933642 331.160131 
L 611.926348 311.54094 
L 612.919054 314.669761 
L 613.911759 306.702652 
L 614.904465 311.684646 
L 615.897171 311.187145 
L 616.889877 315.681215 
L 617.882583 325.563273 
L 618.875289 328.82403 
L 619.867995 356.112914 
L 620.860701 361.567062 
L 621.853407 375.730303 
L 622.846113 372.096919 
L 623.838819 344.643585 
L 624.831525 343.218021 
L 625.824231 335.40428 
L 626.816936 333.53982 
L 627.809642 341.774078 
L 628.802348 339.801791 
L 629.795054 366.005974 
L 630.78776 358.991133 
L 631.780466 395.811135 
L 632.773172 392.660092 
L 633.765878 357.261517 
L 634.758584 360.150075 
L 635.75129 345.370933 
L 636.743996 346.244774 
L 637.736702 346.578043 
L 638.729408 345.713412 
L 639.722114 361.574514 
L 640.714819 354.125554 
L 641.707525 388.424552 
L 642.700231 377.351202 
L 643.692937 371.015468 
L 644.685643 369.163793 
L 645.678349 358.155557 
L 646.671055 355.056327 
L 647.663761 352.611909 
L 648.656467 347.592576 
L 649.649173 353.904268 
L 650.641879 347.750005 
L 651.634585 360.361713 
L 652.627291 351.364378 
L 653.619996 365.07143 
L 654.612702 348.460285 
L 655.605408 356.432523 
L 656.598114 342.328504 
L 657.59082 354.442249 
L 658.583526 339.80968 
L 659.576232 357.672543 
L 660.568938 342.670263 
L 661.561644 370.748182 
L 662.55435 350.847152 
L 663.547056 388.326499 
L 664.539762 354.058938 
L 665.532468 377.877451 
L 666.525173 344.784775 
L 667.517879 360.344592 
L 668.510585 338.604443 
L 669.503291 350.63724 
L 670.495997 336.485876 
L 671.488703 349.248359 
L 672.481409 344.406421 
L 673.474115 352.288017 
L 674.466821 368.835636 
L 675.459527 362.984427 
L 676.452233 408.486957 
L 677.444939 370.69714 
L 678.437645 353.362271 
L 679.43035 359.99884 
L 680.423056 335.946777 
L 681.415762 345.992571 
L 682.408468 329.677487 
L 683.401174 340.655508 
L 684.39388 333.656318 
L 685.386586 343.71017 
L 686.379292 349.941393 
L 688.364704 376.689076 
L 689.35741 401.142623 
L 690.350116 344.198458 
L 691.342822 343.817904 
L 692.335527 321.800722 
L 693.328233 319.762419 
L 694.320939 309.907921 
L 695.313645 307.387159 
L 697.299057 301.286034 
L 698.291763 303.693516 
L 699.284469 300.356171 
L 700.277175 307.053994 
L 701.269881 304.370136 
L 702.262587 314.201108 
L 703.255293 313.787633 
L 704.247999 325.294037 
L 705.240705 330.998306 
L 706.23341 337.65902 
L 707.226116 358.795254 
L 708.218822 346.384541 
L 709.211528 362.097617 
L 710.204234 350.760373 
L 711.19694 346.949215 
L 712.189646 356.63246 
L 713.182352 343.136081 
L 714.175058 367.239539 
L 715.167764 351.303202 
L 716.16047 374.141054 
L 717.153176 375.93259 
L 718.145882 365.708154 
L 719.138587 399.716388 
L 720.131293 358.177772 
L 721.123999 364.688791 
L 722.116705 356.718215 
L 723.109411 352.092988 
L 724.102117 362.670807 
L 725.094823 350.245254 
L 726.087529 376.6525 
L 727.080235 356.087735 
L 728.072941 398.304225 
L 729.065647 365.783215 
L 730.058353 425.980453 
L 731.051059 370.686427 
L 732.043764 430.158859 
L 733.03647 369.217014 
L 734.029176 410.391529 
L 735.021882 371.526888 
L 736.014588 388.985649 
L 737.007294 384.532557 
L 738 376.260001 
L 738.992706 417.985281 
L 739.985412 371.641087 
L 740.978118 421.633863 
L 741.970824 376.845389 
L 742.96353 392.575418 
L 743.956236 391.777727 
L 744.948941 385.219055 
L 745.941647 424.944855 
L 746.934353 387.480953 
L 747.927059 420.855738 
L 748.919765 396.318743 
L 749.912471 397.483866 
L 750.905177 404.113147 
L 751.897883 386.769375 
L 752.890589 404.680778 
L 753.883295 373.767579 
L 754.876001 397.201522 
L 755.868707 361.302795 
L 756.861413 384.439864 
L 757.854118 353.11375 
L 758.846824 374.960952 
L 759.83953 351.022886 
L 760.832236 371.823477 
L 761.824942 355.564688 
L 762.817648 378.285331 
L 763.810354 363.509399 
L 764.80306 391.255452 
L 765.795766 361.007126 
L 766.788472 377.590027 
L 767.781178 347.656732 
L 768.773884 355.471309 
L 769.76659 338.248026 
L 770.759295 342.685863 
L 771.752001 335.26577 
L 772.744707 337.603186 
L 773.737413 338.772453 
L 774.730119 338.799114 
L 775.722825 350.26841 
L 776.715531 347.121853 
L 777.708237 375.447446 
L 778.700943 365.684864 
L 779.693649 440.105004 
L 780.686355 402.73022 
L 781.679061 382.27324 
L 782.671767 389.353368 
L 783.664473 364.839005 
L 784.657178 368.051124 
L 785.649884 359.546622 
L 786.64259 359.931944 
L 787.635296 359.422288 
L 788.628002 356.83256 
L 789.620708 360.522716 
L 790.613414 354.13767 
L 791.60612 360.554997 
L 792.598826 351.329867 
L 793.591532 360.418656 
L 794.584238 349.134022 
L 795.576944 361.894892 
L 796.56965 347.631984 
L 797.562355 363.365636 
L 798.555061 346.82662 
L 799.547767 364.722175 
L 800.540473 346.215816 
L 801.533179 363.783693 
L 802.525885 347.180801 
L 803.518591 361.230478 
L 804.511297 351.491285 
L 806.496709 360.413178 
L 807.489415 350.576084 
L 808.482121 367.853515 
L 809.474827 347.729687 
L 810.467532 362.229218 
L 811.460238 349.263721 
L 812.452944 354.323241 
L 813.44565 358.344042 
L 814.438356 353.283841 
L 815.431062 378.745976 
L 816.423768 361.692167 
L 817.416474 391.344643 
L 818.40918 383.810364 
L 819.401886 364.709018 
L 820.394592 380.58351 
L 821.387298 349.957488 
L 822.380004 354.908187 
L 823.372709 344.567549 
L 824.365415 342.690989 
L 825.358121 346.271177 
L 826.350827 339.955428 
L 827.343533 354.53294 
L 828.336239 345.135124 
L 829.328945 371.798739 
L 830.321651 359.415729 
L 831.314357 400.795581 
L 832.307063 381.443201 
L 833.299769 478.075365 
L 834.292475 379.683392 
L 835.285181 424.265874 
L 836.277886 368.326033 
L 837.270592 395.928089 
L 838.263298 368.974262 
L 839.256004 377.868359 
L 840.24871 383.322849 
L 841.241416 367.029476 
L 842.234122 398.32453 
L 843.226828 363.275423 
L 844.219534 376.779802 
L 845.21224 367.817467 
L 846.204946 364.308452 
L 847.197652 382.218292 
L 848.190358 363.888318 
L 849.183064 407.526682 
L 850.175769 377.599725 
L 851.168475 391.973392 
L 852.161181 422.834135 
L 853.153887 374.806331 
L 854.146593 395.493498 
L 855.139299 370.417151 
L 856.132005 370.496287 
L 857.124711 377.74469 
L 858.117417 364.507108 
L 859.110123 399.684156 
L 860.102829 372.065345 
L 861.095535 419.92937 
L 862.088241 399.944457 
L 863.080946 390.663993 
L 864.073652 431.653009 
L 865.066358 381.760496 
L 866.059064 382.845735 
L 867.05177 386.644276 
L 868.044476 372.361346 
L 869.037182 417.422462 
L 870.029888 379.859924 
L 871.022594 421.389819 
L 872.0153 421.409416 
L 873.008006 380.192899 
L 874.000712 397.038556 
L 874.993418 364.614798 
L 875.986123 363.722111 
L 876.978829 358.709289 
L 877.971535 350.827461 
L 878.964241 360.00331 
L 879.956947 348.202846 
L 880.949653 368.505396 
L 881.942359 353.889387 
L 882.935065 382.549255 
L 883.927771 370.613998 
L 884.920477 399.814051 
L 885.913183 404.087086 
L 886.905889 411.684301 
L 887.898595 393.433357 
L 888.8913 411.022489 
L 889.884006 373.961535 
L 890.876712 404.659904 
L 891.869418 367.780801 
L 892.862124 401.55136 
L 893.85483 366.775912 
L 894.847536 395.928319 
L 895.840242 364.597006 
L 896.832948 382.011784 
L 897.825654 358.701124 
L 898.81836 364.909725 
L 899.811066 352.487566 
L 900.803772 350.092509 
L 901.796477 348.129093 
L 902.789183 339.502872 
L 903.781889 344.435929 
L 904.774595 332.936344 
L 905.767301 340.814824 
L 906.760007 330.478985 
L 907.752713 338.001332 
L 908.745419 331.970875 
L 909.738125 337.134438 
L 910.730831 337.808524 
L 911.723537 339.668506 
L 912.716243 348.922283 
L 913.708949 346.595252 
L 914.701655 368.254073 
L 915.69436 359.603349 
L 916.687066 406.387776 
L 917.679772 382.372386 
L 918.672478 437.00169 
L 920.65789 387.525693 
L 921.650596 387.839573 
L 922.643302 373.972115 
L 923.636008 368.651628 
L 924.628714 366.769269 
L 925.62142 357.75471 
L 926.614126 363.753779 
L 927.606832 351.758251 
L 928.599537 363.952422 
L 929.592243 350.133546 
L 930.584949 368.744325 
L 931.577655 353.240459 
L 932.570361 377.247225 
L 933.563067 360.929419 
L 934.555773 391.868404 
L 935.548479 375.744774 
L 936.541185 413.84152 
L 937.533891 391.64157 
L 938.526597 446.603802 
L 939.519303 393.252225 
L 940.512009 466.867434 
L 941.504714 386.671986 
L 942.49742 482.025296 
L 943.490126 387.483769 
L 944.482832 476.835045 
L 945.475538 390.955311 
L 946.468244 441.169888 
L 947.46095 388.263005 
L 948.453656 427.292107 
L 949.446362 381.888452 
L 950.439068 425.791714 
L 951.431774 379.729257 
L 952.42448 441.135349 
L 953.417186 383.546802 
L 954.409891 438.57032 
L 955.402597 383.713501 
L 956.395303 407.503256 
L 957.388009 372.255546 
L 958.380715 389.037164 
L 959.373421 360.176707 
L 960.366127 376.671851 
L 961.358833 353.404588 
L 962.351539 369.514459 
L 963.344245 352.199591 
L 964.336951 367.231413 
L 965.329657 356.757344 
L 966.322363 370.533122 
L 967.315068 367.329101 
L 968.307774 378.456248 
L 969.30048 381.031136 
L 970.293186 388.635056 
L 971.285892 385.833411 
L 972.278598 389.871533 
L 973.271304 381.993806 
L 974.26401 381.145724 
L 975.256716 383.137763 
L 976.249422 374.331685 
L 977.242128 393.817379 
L 978.234834 373.142798 
L 979.22754 421.281782 
L 980.220246 379.47677 
L 981.212951 407.209443 
L 982.205657 394.574059 
L 983.198363 385.555928 
L 984.191069 424.970924 
L 985.183775 376.953064 
L 986.176481 411.585182 
L 987.169187 376.39515 
L 988.161893 390.616891 
L 989.154599 382.332229 
L 990.147305 381.364371 
L 991.140011 396.626071 
L 992.132717 380.97108 
L 993.125423 421.561226 
L 994.118128 387.007766 
L 995.110834 448.974821 
L 996.10354 395.336732 
L 997.096246 424.095101 
L 998.088952 393.440434 
L 999.081658 407.753681 
L 1000.074364 379.825015 
L 1001.06707 392.928975 
L 1002.059776 364.886058 
L 1003.052482 377.994627 
L 1004.045188 353.172423 
L 1005.037894 364.237878 
L 1006.0306 344.624676 
L 1007.023305 352.016388 
L 1008.016011 339.088757 
L 1009.008717 342.360894 
L 1010.001423 336.560928 
L 1010.994129 336.304118 
L 1011.986835 336.715409 
L 1012.979541 333.922368 
L 1013.972247 340.474818 
L 1014.964953 334.983405 
L 1015.957659 347.712505 
L 1016.950365 341.118256 
L 1017.943071 359.859468 
L 1018.935777 354.330915 
L 1019.928482 376.77461 
L 1021.913894 389.918713 
L 1022.9066 438.761185 
L 1023.899306 384.32272 
L 1024.892012 375.372097 
L 1025.884718 375.859307 
L 1026.877424 359.281022 
L 1027.87013 373.636162 
L 1028.862836 355.388652 
L 1029.855542 377.061245 
L 1030.848248 360.231796 
L 1031.840954 385.811563 
L 1032.833659 373.86999 
L 1033.826365 402.756673 
L 1034.819071 395.34607 
L 1035.811777 435.328079 
L 1036.804483 394.428693 
L 1037.797189 443.780265 
L 1038.789895 380.862518 
L 1039.782601 424.045035 
L 1040.775307 376.285839 
L 1041.768013 424.559011 
L 1042.760719 378.816323 
L 1043.753425 431.965874 
L 1044.746131 381.76533 
L 1045.738837 433.988158 
L 1046.731542 376.896629 
L 1047.724248 409.65175 
L 1048.716954 370.273219 
L 1049.70966 395.479497 
L 1050.702366 370.670125 
L 1051.695072 390.123797 
L 1052.687778 380.63503 
L 1054.67319 410.010126 
L 1055.665896 411.261753 
L 1056.658602 400.780276 
L 1057.651308 410.638608 
L 1058.644014 370.091523 
L 1059.636719 385.480514 
L 1060.629425 356.742934 
L 1061.622131 368.919783 
L 1062.614837 351.230181 
L 1063.607543 360.709476 
L 1064.600249 352.237292 
L 1065.592955 358.140861 
L 1066.585661 358.644794 
L 1067.578367 361.052057 
L 1068.571073 370.342924 
L 1069.563779 367.326588 
L 1070.556485 382.164045 
L 1071.549191 373.256003 
L 1072.541896 387.078185 
L 1073.534602 372.725809 
L 1074.527308 386.913875 
L 1075.520014 369.585432 
L 1076.51272 388.955606 
L 1077.505426 367.874445 
L 1078.498132 395.382701 
L 1079.490838 369.80247 
L 1080.483544 405.522478 
L 1081.47625 373.168506 
L 1082.468956 414.028049 
L 1083.461662 375.85572 
L 1084.454368 413.144791 
L 1085.447073 378.107752 
L 1086.439779 404.375204 
L 1087.432485 382.723888 
L 1088.425191 396.228536 
L 1089.417897 398.176499 
L 1090.410603 392.275979 
L 1091.403309 452.48305 
L 1092.396015 393.406843 
L 1093.388721 410.610788 
L 1094.381427 399.165081 
L 1095.374133 380.042539 
L 1096.366839 402.449961 
L 1097.359545 367.909398 
L 1098.35225 391.604836 
L 1099.344956 364.911865 
L 1100.337662 381.83489 
L 1101.330368 369.12738 
L 1102.323074 379.001007 
L 1103.31578 379.147706 
L 1104.308486 384.278337 
L 1105.301192 386.932909 
L 1106.293898 389.124118 
L 1107.286604 379.244753 
L 1108.27931 376.60781 
L 1109.272016 367.422772 
L 1110.264722 360.309592 
L 1111.257428 360.416106 
L 1112.250133 349.784748 
L 1113.242839 357.437676 
L 1114.235545 345.187709 
L 1115.228251 358.216021 
L 1116.220957 346.230639 
L 1117.213663 361.741147 
L 1118.206369 352.447617 
L 1119.199075 367.984051 
L 1120.191781 365.025112 
L 1122.177193 387.861257 
L 1123.169899 389.057759 
L 1124.162605 427.953042 
L 1125.15531 407.312318 
L 1126.148016 410.840615 
L 1127.140722 443.587149 
L 1128.133428 391.14269 
L 1129.126134 466.486885 
L 1130.11884 385.09991 
L 1131.111546 421.887977 
L 1132.104252 386.028695 
L 1133.096958 405.496921 
L 1134.089664 394.641393 
L 1135.08237 395.472504 
L 1136.075076 419.563783 
L 1137.067782 392.427496 
L 1138.060487 462.23361 
L 1139.053193 392.112957 
L 1140.045899 396.338743 
L 1141.038605 394.487195 
L 1142.031311 374.734098 
L 1143.024017 392.977816 
L 1144.016723 365.368156 
L 1145.009429 387.129712 
L 1146.002135 362.347344 
L 1146.994841 381.121126 
L 1147.987547 364.998741 
L 1148.980253 378.856272 
L 1149.972959 373.308927 
L 1150.965664 380.832527 
L 1151.95837 385.949715 
L 1152.951076 386.293236 
L 1153.943782 400.191048 
L 1154.936488 392.828508 
L 1155.929194 412.122854 
L 1156.9219 400.266866 
L 1157.914606 416.053817 
L 1158.907312 410.764463 
L 1159.900018 408.442834 
L 1160.892724 430.650329 
L 1161.88543 391.414608 
L 1162.878136 412.360002 
L 1163.870841 378.90076 
L 1164.863547 384.51723 
L 1165.856253 372.260979 
L 1166.848959 368.692948 
L 1167.841665 370.598084 
L 1168.834371 360.119119 
L 1169.827077 374.096885 
L 1170.819783 358.071281 
L 1171.812489 379.882745 
L 1172.805195 361.836287 
L 1173.797901 386.105652 
L 1174.790607 372.944943 
L 1175.783313 390.890115 
L 1176.776019 396.728641 
L 1177.768724 398.716895 
L 1178.76143 434.165046 
L 1179.754136 412.061074 
L 1180.746842 405.19469 
L 1181.739548 445.754049 
L 1182.732254 389.118514 
L 1183.72496 455.007073 
L 1184.717666 385.849486 
L 1185.710372 418.664209 
L 1186.703078 388.234384 
L 1187.695784 405.527238 
L 1188.68849 393.670121 
L 1189.681196 399.588301 
L 1190.673901 398.221574 
L 1191.666607 392.107498 
L 1192.659313 404.517423 
L 1193.652019 386.091089 
L 1194.644725 422.281227 
L 1195.637431 383.551298 
L 1196.630137 452.006355 
L 1197.622843 389.145518 
L 1198.615549 413.252274 
L 1199.608255 406.196714 
L 1200.600961 391.845306 
L 1201.593667 455.173891 
L 1202.586373 382.064248 
L 1203.579078 403.438348 
L 1204.571784 379.268417 
L 1205.56449 379.479223 
L 1206.557196 381.235079 
L 1207.549902 369.042218 
L 1208.542608 387.244934 
L 1209.535314 366.034871 
L 1210.52802 392.915049 
L 1211.520726 367.864891 
L 1212.513432 397.388111 
L 1213.506138 372.185289 
L 1214.498844 397.107101 
L 1215.49155 374.869316 
L 1216.484255 391.760438 
L 1217.476961 375.73882 
L 1218.469667 381.683221 
L 1219.462373 376.771688 
L 1220.455079 373.5738 
L 1221.447785 383.037361 
L 1222.440491 370.043137 
L 1223.433197 395.702367 
L 1224.425903 370.822772 
L 1225.418609 407.983416 
L 1226.411315 380.005708 
L 1227.404021 400.643518 
L 1228.396727 402.059558 
L 1229.389432 393.924701 
L 1230.382138 492.48 
L 1231.374844 396.913895 
L 1233.360256 407.785627 
L 1234.352962 381.527839 
L 1235.345668 417.868401 
L 1236.338374 374.281701 
L 1237.33108 398.401176 
L 1238.323786 373.538416 
L 1239.316492 381.786799 
L 1240.309198 379.222874 
L 1241.301904 374.858872 
L 1242.29461 388.978134 
L 1243.287315 371.767986 
L 1244.280021 399.37207 
L 1245.272727 371.62425 
L 1245.272727 371.62425 
" clip-path="url(#p04c16f619f)" style="fill: none; stroke: #1f77b4; stroke-width: 1.5; stroke-linecap: square"/>
   </g>
   <g id="patch_3">
    <path d="M 180 512.64 
L 180 69.12 
" style="fill: none; stroke: #000000; stroke-width: 0.8; stroke-linejoin: miter; stroke-linecap: square"/>
   </g>
   <g id="patch_4">
    <path d="M 1296 512.64 
L 1296 69.12 
" style="fill: none; stroke: #000000; stroke-width: 0.8; stroke-linejoin: miter; stroke-linecap: square"/>
   </g>
   <g id="patch_5">
    <path d="M 180 512.64 
L 1296 512.64 
" style="fill: none; stroke: #000000; stroke-width: 0.8; stroke-linejoin: miter; stroke-linecap: square"/>
   </g>
   <g id="patch_6">
    <path d="M 180 69.12 
L 1296 69.12 
" style="fill: none; stroke: #000000; stroke-width: 0.8; stroke-linejoin: miter; stroke-linecap: square"/>
   </g>
   <g id="text_13">
    <!-- source5-receiver3 -->
    <g transform="translate(557.625 60.80125) scale(0.4 -0.4)">
     <defs>
      <path id="DejaVuSans-73" d="M 2834 3397 
L 2834 2853 
Q 2591 2978 2328 3040 
Q 2066 3103 1784 3103 
Q 1356 3103 1142 2972 
Q 928 2841 928 2578 
Q 928 2378 1081 2264 
Q 1234 2150 1697 2047 
L 1894 2003 
Q 2506 1872 2764 1633 
Q 3022 1394 3022 966 
Q 3022 478 2636 193 
Q 2250 -91 1575 -91 
Q 1294 -91 989 -36 
Q 684 19 347 128 
L 347 722 
Q 666 556 975 473 
Q 1284 391 1588 391 
Q 1994 391 2212 530 
Q 2431 669 2431 922 
Q 2431 1156 2273 1281 
Q 2116 1406 1581 1522 
L 1381 1569 
Q 847 1681 609 1914 
Q 372 2147 372 2553 
Q 372 3047 722 3315 
Q 1072 3584 1716 3584 
Q 2034 3584 2315 3537 
Q 2597 3491 2834 3397 
z
" transform="scale(0.015625)"/>
      <path id="DejaVuSans-6f" d="M 1959 3097 
Q 1497 3097 1228 2736 
Q 959 2375 959 1747 
Q 959 1119 1226 758 
Q 1494 397 1959 397 
Q 2419 397 2687 759 
Q 2956 1122 2956 1747 
Q 2956 2369 2687 2733 
Q 2419 3097 1959 3097 
z
M 1959 3584 
Q 2709 3584 3137 3096 
Q 3566 2609 3566 1747 
Q 3566 888 3137 398 
Q 2709 -91 1959 -91 
Q 1206 -91 779 398 
Q 353 888 353 1747 
Q 353 2609 779 3096 
Q 1206 3584 1959 3584 
z
" transform="scale(0.015625)"/>
      <path id="DejaVuSans-75" d="M 544 1381 
L 544 3500 
L 1119 3500 
L 1119 1403 
Q 1119 906 1312 657 
Q 1506 409 1894 409 
Q 2359 409 2629 706 
Q 2900 1003 2900 1516 
L 2900 3500 
L 3475 3500 
L 3475 0 
L 2900 0 
L 2900 538 
Q 2691 219 2414 64 
Q 2138 -91 1772 -91 
Q 1169 -91 856 284 
Q 544 659 544 1381 
z
M 1991 3584 
L 1991 3584 
z
" transform="scale(0.015625)"/>
      <path id="DejaVuSans-72" d="M 2631 2963 
Q 2534 3019 2420 3045 
Q 2306 3072 2169 3072 
Q 1681 3072 1420 2755 
Q 1159 2438 1159 1844 
L 1159 0 
L 581 0 
L 581 3500 
L 1159 3500 
L 1159 2956 
Q 1341 3275 1631 3429 
Q 1922 3584 2338 3584 
Q 2397 3584 2469 3576 
Q 2541 3569 2628 3553 
L 2631 2963 
z
" transform="scale(0.015625)"/>
      <path id="DejaVuSans-63" d="M 3122 3366 
L 3122 2828 
Q 2878 2963 2633 3030 
Q 2388 3097 2138 3097 
Q 1578 3097 1268 2742 
Q 959 2388 959 1747 
Q 959 1106 1268 751 
Q 1578 397 2138 397 
Q 2388 397 2633 464 
Q 2878 531 3122 666 
L 3122 134 
Q 2881 22 2623 -34 
Q 2366 -91 2075 -91 
Q 1284 -91 818 406 
Q 353 903 353 1747 
Q 353 2603 823 3093 
Q 1294 3584 2113 3584 
Q 2378 3584 2631 3529 
Q 2884 3475 3122 3366 
z
" transform="scale(0.015625)"/>
      <path id="DejaVuSans-65" d="M 3597 1894 
L 3597 1613 
L 953 1613 
Q 991 1019 1311 708 
Q 1631 397 2203 397 
Q 2534 397 2845 478 
Q 3156 559 3463 722 
L 3463 178 
Q 3153 47 2828 -22 
Q 2503 -91 2169 -91 
Q 1331 -91 842 396 
Q 353 884 353 1716 
Q 353 2575 817 3079 
Q 1281 3584 2069 3584 
Q 2775 3584 3186 3129 
Q 3597 2675 3597 1894 
z
M 3022 2063 
Q 3016 2534 2758 2815 
Q 2500 3097 2075 3097 
Q 1594 3097 1305 2825 
Q 1016 2553 972 2059 
L 3022 2063 
z
" transform="scale(0.015625)"/>
      <path id="DejaVuSans-2d" d="M 313 2009 
L 1997 2009 
L 1997 1497 
L 313 1497 
L 313 2009 
z
" transform="scale(0.015625)"/>
      <path id="DejaVuSans-69" d="M 603 3500 
L 1178 3500 
L 1178 0 
L 603 0 
L 603 3500 
z
M 603 4863 
L 1178 4863 
L 1178 4134 
L 603 4134 
L 603 4863 
z
" transform="scale(0.015625)"/>
      <path id="DejaVuSans-76" d="M 191 3500 
L 800 3500 
L 1894 563 
L 2988 3500 
L 3597 3500 
L 2284 0 
L 1503 0 
L 191 3500 
z
" transform="scale(0.015625)"/>
      <path id="DejaVuSans-33" d="M 2597 2516 
Q 3050 2419 3304 2112 
Q 3559 1806 3559 1356 
Q 3559 666 3084 287 
Q 2609 -91 1734 -91 
Q 1441 -91 1130 -33 
Q 819 25 488 141 
L 488 750 
Q 750 597 1062 519 
Q 1375 441 1716 441 
Q 2309 441 2620 675 
Q 2931 909 2931 1356 
Q 2931 1769 2642 2001 
Q 2353 2234 1838 2234 
L 1294 2234 
L 1294 2753 
L 1863 2753 
Q 2328 2753 2575 2939 
Q 2822 3125 2822 3475 
Q 2822 3834 2567 4026 
Q 2313 4219 1838 4219 
Q 1578 4219 1281 4162 
Q 984 4106 628 3988 
L 628 4550 
Q 988 4650 1302 4700 
Q 1616 4750 1894 4750 
Q 2613 4750 3031 4423 
Q 3450 4097 3450 3541 
Q 3450 3153 3228 2886 
Q 3006 2619 2597 2516 
z
" transform="scale(0.015625)"/>
     </defs>
     <use xlink:href="#DejaVuSans-73"/>
     <use xlink:href="#DejaVuSans-6f" x="52.099609"/>
     <use xlink:href="#DejaVuSans-75" x="113.28125"/>
     <use xlink:href="#DejaVuSans-72" x="176.660156"/>
     <use xlink:href="#DejaVuSans-63" x="215.523438"/>
     <use xlink:href="#DejaVuSans-65" x="270.503906"/>
     <use xlink:href="#DejaVuSans-35" x="332.027344"/>
     <use xlink:href="#DejaVuSans-2d" x="395.650391"/>
     <use xlink:href="#DejaVuSans-72" x="431.734375"/>
     <use xlink:href="#DejaVuSans-65" x="470.597656"/>
     <use xlink:href="#DejaVuSans-63" x="532.121094"/>
     <use xlink:href="#DejaVuSans-65" x="587.101562"/>
     <use xlink:href="#DejaVuSans-69" x="648.625"/>
     <use xlink:href="#DejaVuSans-76" x="676.408203"/>
     <use xlink:href="#DejaVuSans-65" x="735.587891"/>
     <use xlink:href="#DejaVuSans-72" x="797.111328"/>
     <use xlink:href="#DejaVuSans-33" x="838.224609"/>
    </g>
   </g>
  </g>
 </g>
 <defs>
  <clipPath id="p04c16f619f">
   <rect x="180" y="69.12" width="1116" height="443.52"/>
  </clipPath>
 </defs>
</svg>
