<?xml version="1.0" encoding="utf-8" standalone="no"?>
<!DOCTYPE svg PUBLIC "-//W3C//DTD SVG 1.1//EN"
  "http://www.w3.org/Graphics/SVG/1.1/DTD/svg11.dtd">
<svg xmlns:xlink="http://www.w3.org/1999/xlink" width="1440pt" height="576pt" viewBox="0 0 1440 576" xmlns="http://www.w3.org/2000/svg" version="1.1">
 <metadata>
  <rdf:RDF xmlns:dc="http://purl.org/dc/elements/1.1/" xmlns:cc="http://creativecommons.org/ns#" xmlns:rdf="http://www.w3.org/1999/02/22-rdf-syntax-ns#">
   <cc:Work>
    <dc:type rdf:resource="http://purl.org/dc/dcmitype/StillImage"/>
    <dc:date>2024-05-22T04:49:46.786587</dc:date>
    <dc:format>image/svg+xml</dc:format>
    <dc:creator>
     <cc:Agent>
      <dc:title>Matplotlib v3.8.3, https://matplotlib.org/</dc:title>
     </cc:Agent>
    </dc:creator>
   </cc:Work>
  </rdf:RDF>
 </metadata>
 <defs>
  <style type="text/css">*{stroke-linejoin: round; stroke-linecap: butt}</style>
 </defs>
 <g id="figure_1">
  <g id="patch_1">
   <path d="M 0 576 
L 1440 576 
L 1440 0 
L 0 0 
z
" style="fill: #ffffff"/>
  </g>
  <g id="axes_1">
   <g id="patch_2">
    <path d="M 180 512.64 
L 1296 512.64 
L 1296 69.12 
L 180 69.12 
z
" style="fill: #ffffff"/>
   </g>
   <g id="matplotlib.axis_1">
    <g id="xtick_1">
     <g id="line2d_1">
      <defs>
       <path id="m0a3478a004" d="M 0 0 
L 0 3.5 
" style="stroke: #000000; stroke-width: 0.8"/>
      </defs>
      <g>
       <use xlink:href="#m0a3478a004" x="229.734567" y="512.64" style="stroke: #000000; stroke-width: 0.8"/>
      </g>
     </g>
     <g id="text_1">
      <!-- 0 -->
      <g transform="translate(226.553317 527.238438) scale(0.1 -0.1)">
       <defs>
        <path id="DejaVuSans-30" d="M 2034 4250 
Q 1547 4250 1301 3770 
Q 1056 3291 1056 2328 
Q 1056 1369 1301 889 
Q 1547 409 2034 409 
Q 2525 409 2770 889 
Q 3016 1369 3016 2328 
Q 3016 3291 2770 3770 
Q 2525 4250 2034 4250 
z
M 2034 4750 
Q 2819 4750 3233 4129 
Q 3647 3509 3647 2328 
Q 3647 1150 3233 529 
Q 2819 -91 2034 -91 
Q 1250 -91 836 529 
Q 422 1150 422 2328 
Q 422 3509 836 4129 
Q 1250 4750 2034 4750 
z
" transform="scale(0.015625)"/>
       </defs>
       <use xlink:href="#DejaVuSans-30"/>
      </g>
     </g>
    </g>
    <g id="xtick_2">
     <g id="line2d_2">
      <g>
       <use xlink:href="#m0a3478a004" x="433.04074" y="512.64" style="stroke: #000000; stroke-width: 0.8"/>
      </g>
     </g>
     <g id="text_2">
      <!-- 500 -->
      <g transform="translate(423.49699 527.238438) scale(0.1 -0.1)">
       <defs>
        <path id="DejaVuSans-35" d="M 691 4666 
L 3169 4666 
L 3169 4134 
L 1269 4134 
L 1269 2991 
Q 1406 3038 1543 3061 
Q 1681 3084 1819 3084 
Q 2600 3084 3056 2656 
Q 3513 2228 3513 1497 
Q 3513 744 3044 326 
Q 2575 -91 1722 -91 
Q 1428 -91 1123 -41 
Q 819 9 494 109 
L 494 744 
Q 775 591 1075 516 
Q 1375 441 1709 441 
Q 2250 441 2565 725 
Q 2881 1009 2881 1497 
Q 2881 1984 2565 2268 
Q 2250 2553 1709 2553 
Q 1456 2553 1204 2497 
Q 953 2441 691 2322 
L 691 4666 
z
" transform="scale(0.015625)"/>
       </defs>
       <use xlink:href="#DejaVuSans-35"/>
       <use xlink:href="#DejaVuSans-30" x="63.623047"/>
       <use xlink:href="#DejaVuSans-30" x="127.246094"/>
      </g>
     </g>
    </g>
    <g id="xtick_3">
     <g id="line2d_3">
      <g>
       <use xlink:href="#m0a3478a004" x="636.346913" y="512.64" style="stroke: #000000; stroke-width: 0.8"/>
      </g>
     </g>
     <g id="text_3">
      <!-- 1000 -->
      <g transform="translate(623.621913 527.238438) scale(0.1 -0.1)">
       <defs>
        <path id="DejaVuSans-31" d="M 794 531 
L 1825 531 
L 1825 4091 
L 703 3866 
L 703 4441 
L 1819 4666 
L 2450 4666 
L 2450 531 
L 3481 531 
L 3481 0 
L 794 0 
L 794 531 
z
" transform="scale(0.015625)"/>
       </defs>
       <use xlink:href="#DejaVuSans-31"/>
       <use xlink:href="#DejaVuSans-30" x="63.623047"/>
       <use xlink:href="#DejaVuSans-30" x="127.246094"/>
       <use xlink:href="#DejaVuSans-30" x="190.869141"/>
      </g>
     </g>
    </g>
    <g id="xtick_4">
     <g id="line2d_4">
      <g>
       <use xlink:href="#m0a3478a004" x="839.653087" y="512.64" style="stroke: #000000; stroke-width: 0.8"/>
      </g>
     </g>
     <g id="text_4">
      <!-- 1500 -->
      <g transform="translate(826.928087 527.238438) scale(0.1 -0.1)">
       <use xlink:href="#DejaVuSans-31"/>
       <use xlink:href="#DejaVuSans-35" x="63.623047"/>
       <use xlink:href="#DejaVuSans-30" x="127.246094"/>
       <use xlink:href="#DejaVuSans-30" x="190.869141"/>
      </g>
     </g>
    </g>
    <g id="xtick_5">
     <g id="line2d_5">
      <g>
       <use xlink:href="#m0a3478a004" x="1042.95926" y="512.64" style="stroke: #000000; stroke-width: 0.8"/>
      </g>
     </g>
     <g id="text_5">
      <!-- 2000 -->
      <g transform="translate(1030.23426 527.238438) scale(0.1 -0.1)">
       <defs>
        <path id="DejaVuSans-32" d="M 1228 531 
L 3431 531 
L 3431 0 
L 469 0 
L 469 531 
Q 828 903 1448 1529 
Q 2069 2156 2228 2338 
Q 2531 2678 2651 2914 
Q 2772 3150 2772 3378 
Q 2772 3750 2511 3984 
Q 2250 4219 1831 4219 
Q 1534 4219 1204 4116 
Q 875 4013 500 3803 
L 500 4441 
Q 881 4594 1212 4672 
Q 1544 4750 1819 4750 
Q 2544 4750 2975 4387 
Q 3406 4025 3406 3419 
Q 3406 3131 3298 2873 
Q 3191 2616 2906 2266 
Q 2828 2175 2409 1742 
Q 1991 1309 1228 531 
z
" transform="scale(0.015625)"/>
       </defs>
       <use xlink:href="#DejaVuSans-32"/>
       <use xlink:href="#DejaVuSans-30" x="63.623047"/>
       <use xlink:href="#DejaVuSans-30" x="127.246094"/>
       <use xlink:href="#DejaVuSans-30" x="190.869141"/>
      </g>
     </g>
    </g>
    <g id="xtick_6">
     <g id="line2d_6">
      <g>
       <use xlink:href="#m0a3478a004" x="1246.265433" y="512.64" style="stroke: #000000; stroke-width: 0.8"/>
      </g>
     </g>
     <g id="text_6">
      <!-- 2500 -->
      <g transform="translate(1233.540433 527.238438) scale(0.1 -0.1)">
       <use xlink:href="#DejaVuSans-32"/>
       <use xlink:href="#DejaVuSans-35" x="63.623047"/>
       <use xlink:href="#DejaVuSans-30" x="127.246094"/>
       <use xlink:href="#DejaVuSans-30" x="190.869141"/>
      </g>
     </g>
    </g>
   </g>
   <g id="matplotlib.axis_2">
    <g id="ytick_1">
     <g id="line2d_7">
      <defs>
       <path id="m2a84b88dcd" d="M 0 0 
L -3.5 0 
" style="stroke: #000000; stroke-width: 0.8"/>
      </defs>
      <g>
       <use xlink:href="#m2a84b88dcd" x="180" y="458.4237" style="stroke: #000000; stroke-width: 0.8"/>
      </g>
     </g>
     <g id="text_7">
      <!-- −4 -->
      <g transform="translate(158.257812 462.222919) scale(0.1 -0.1)">
       <defs>
        <path id="DejaVuSans-2212" d="M 678 2272 
L 4684 2272 
L 4684 1741 
L 678 1741 
L 678 2272 
z
" transform="scale(0.015625)"/>
        <path id="DejaVuSans-34" d="M 2419 4116 
L 825 1625 
L 2419 1625 
L 2419 4116 
z
M 2253 4666 
L 3047 4666 
L 3047 1625 
L 3713 1625 
L 3713 1100 
L 3047 1100 
L 3047 0 
L 2419 0 
L 2419 1100 
L 313 1100 
L 313 1709 
L 2253 4666 
z
" transform="scale(0.015625)"/>
       </defs>
       <use xlink:href="#DejaVuSans-2212"/>
       <use xlink:href="#DejaVuSans-34" x="83.789062"/>
      </g>
     </g>
    </g>
    <g id="ytick_2">
     <g id="line2d_8">
      <g>
       <use xlink:href="#m2a84b88dcd" x="180" y="382.082015" style="stroke: #000000; stroke-width: 0.8"/>
      </g>
     </g>
     <g id="text_8">
      <!-- −2 -->
      <g transform="translate(158.257812 385.881234) scale(0.1 -0.1)">
       <use xlink:href="#DejaVuSans-2212"/>
       <use xlink:href="#DejaVuSans-32" x="83.789062"/>
      </g>
     </g>
    </g>
    <g id="ytick_3">
     <g id="line2d_9">
      <g>
       <use xlink:href="#m2a84b88dcd" x="180" y="305.74033" style="stroke: #000000; stroke-width: 0.8"/>
      </g>
     </g>
     <g id="text_9">
      <!-- 0 -->
      <g transform="translate(166.6375 309.539549) scale(0.1 -0.1)">
       <use xlink:href="#DejaVuSans-30"/>
      </g>
     </g>
    </g>
    <g id="ytick_4">
     <g id="line2d_10">
      <g>
       <use xlink:href="#m2a84b88dcd" x="180" y="229.398645" style="stroke: #000000; stroke-width: 0.8"/>
      </g>
     </g>
     <g id="text_10">
      <!-- 2 -->
      <g transform="translate(166.6375 233.197864) scale(0.1 -0.1)">
       <use xlink:href="#DejaVuSans-32"/>
      </g>
     </g>
    </g>
    <g id="ytick_5">
     <g id="line2d_11">
      <g>
       <use xlink:href="#m2a84b88dcd" x="180" y="153.05696" style="stroke: #000000; stroke-width: 0.8"/>
      </g>
     </g>
     <g id="text_11">
      <!-- 4 -->
      <g transform="translate(166.6375 156.856178) scale(0.1 -0.1)">
       <use xlink:href="#DejaVuSans-34"/>
      </g>
     </g>
    </g>
    <g id="ytick_6">
     <g id="line2d_12">
      <g>
       <use xlink:href="#m2a84b88dcd" x="180" y="76.715275" style="stroke: #000000; stroke-width: 0.8"/>
      </g>
     </g>
     <g id="text_12">
      <!-- 6 -->
      <g transform="translate(166.6375 80.514493) scale(0.1 -0.1)">
       <defs>
        <path id="DejaVuSans-36" d="M 2113 2584 
Q 1688 2584 1439 2293 
Q 1191 2003 1191 1497 
Q 1191 994 1439 701 
Q 1688 409 2113 409 
Q 2538 409 2786 701 
Q 3034 994 3034 1497 
Q 3034 2003 2786 2293 
Q 2538 2584 2113 2584 
z
M 3366 4563 
L 3366 3988 
Q 3128 4100 2886 4159 
Q 2644 4219 2406 4219 
Q 1781 4219 1451 3797 
Q 1122 3375 1075 2522 
Q 1259 2794 1537 2939 
Q 1816 3084 2150 3084 
Q 2853 3084 3261 2657 
Q 3669 2231 3669 1497 
Q 3669 778 3244 343 
Q 2819 -91 2113 -91 
Q 1303 -91 875 529 
Q 447 1150 447 2328 
Q 447 3434 972 4092 
Q 1497 4750 2381 4750 
Q 2619 4750 2861 4703 
Q 3103 4656 3366 4563 
z
" transform="scale(0.015625)"/>
       </defs>
       <use xlink:href="#DejaVuSans-36"/>
      </g>
     </g>
    </g>
   </g>
   <g id="line2d_13">
    <path d="M 230.727273 282.67718 
L 231.719979 310.482062 
L 232.712685 296.403033 
L 233.70539 297.241454 
L 234.698096 319.262941 
L 235.690802 298.455505 
L 236.683508 323.467172 
L 237.676214 293.426312 
L 238.66892 341.848026 
L 239.661626 284.025229 
L 240.654332 356.606589 
L 241.647038 283.45493 
L 242.639744 309.979758 
L 243.63245 290.010409 
L 244.625156 300.605584 
L 245.617862 284.64697 
L 246.610568 284.552883 
L 247.603273 269.955325 
L 248.595979 246.713958 
L 250.581391 220.636407 
L 251.574097 222.191775 
L 252.566803 225.438546 
L 253.559509 203.029372 
L 254.552215 188.555631 
L 255.544921 208.439479 
L 256.537627 258.559242 
L 257.530333 224.511968 
L 258.523039 218.833649 
L 259.515745 198.67902 
L 260.50845 201.948336 
L 261.501156 192.807407 
L 262.493862 210.5958 
L 263.486568 219.380258 
L 264.479274 182.904146 
L 266.464686 160.505387 
L 267.457392 173.507876 
L 268.450098 282.252675 
L 269.442804 197.345248 
L 270.43551 162.08201 
L 271.428216 149.863975 
L 272.420922 154.829316 
L 273.413627 157.482063 
L 274.406333 191.233385 
L 276.391745 174.261445 
L 277.384451 170.533014 
L 278.377157 167.978066 
L 279.369863 134.17205 
L 280.362569 105.917846 
L 281.355275 100.409913 
L 282.347981 122.919307 
L 283.340687 121.928516 
L 284.333393 90.226178 
L 285.326099 89.28 
L 286.318804 114.907157 
L 287.31151 131.768122 
L 288.304216 119.572541 
L 289.296922 137.386553 
L 290.289628 171.778701 
L 291.282334 171.151327 
L 292.27504 162.338295 
L 293.267746 149.793949 
L 294.260452 151.558643 
L 295.253158 156.483806 
L 297.23857 204.856136 
L 298.231276 177.142078 
L 299.223981 168.517515 
L 300.216687 167.559742 
L 301.209393 179.039593 
L 302.202099 197.209483 
L 303.194805 205.677082 
L 304.187511 193.379675 
L 305.180217 196.443633 
L 306.172923 201.355522 
L 307.165629 210.299338 
L 308.158335 206.550551 
L 309.151041 219.550776 
L 310.143747 225.474428 
L 311.136453 245.039378 
L 312.129159 251.016955 
L 313.121864 260.752561 
L 314.11457 253.063272 
L 315.107276 262.027967 
L 316.099982 262.913811 
L 317.092688 269.505412 
L 318.085394 283.38147 
L 319.0781 303.501357 
L 320.070806 310.40006 
L 321.063512 292.738368 
L 322.056218 272.98604 
L 323.048924 270.743345 
L 324.04163 275.09191 
L 325.034336 278.684386 
L 326.027041 311.223461 
L 327.019747 315.20263 
L 328.012453 349.75497 
L 329.005159 342.110006 
L 329.997865 328.871376 
L 330.990571 306.896712 
L 331.983277 320.415745 
L 332.975983 291.307186 
L 333.968689 296.65978 
L 334.961395 294.193498 
L 335.954101 299.453466 
L 336.946807 296.174188 
L 337.939513 291.33614 
L 338.932218 285.055752 
L 339.924924 285.229109 
L 340.91763 296.928035 
L 341.910336 293.709305 
L 342.903042 316.764308 
L 343.895748 305.048777 
L 344.888454 305.877398 
L 345.88116 320.257764 
L 346.873866 313.545537 
L 347.866572 340.55595 
L 348.859278 316.292987 
L 349.851984 303.327201 
L 350.84469 286.28732 
L 351.837395 275.72288 
L 352.830101 266.85188 
L 353.822807 274.932945 
L 354.815513 274.419905 
L 355.808219 281.12198 
L 356.800925 269.071379 
L 357.793631 265.438305 
L 358.786337 254.139667 
L 359.779043 253.996319 
L 360.771749 251.984972 
L 362.757161 263.194618 
L 363.749867 277.095221 
L 364.742572 287.035755 
L 365.735278 274.175961 
L 367.72069 253.466053 
L 368.713396 249.603997 
L 369.706102 246.266188 
L 370.698808 250.581727 
L 371.691514 253.175421 
L 372.68422 263.459761 
L 373.676926 262.508623 
L 374.669632 257.376276 
L 375.662338 240.243925 
L 376.655044 230.018536 
L 377.64775 223.416925 
L 378.640455 220.552716 
L 379.633161 221.227269 
L 380.625867 225.652799 
L 381.618573 239.154241 
L 382.611279 266.023516 
L 383.603985 284.900705 
L 384.596691 235.86542 
L 385.589397 212.585089 
L 386.582103 198.669761 
L 387.574809 189.070176 
L 388.567515 181.77105 
L 389.560221 177.993928 
L 390.552927 175.020364 
L 391.545632 174.224985 
L 392.538338 175.272667 
L 393.531044 177.248807 
L 394.52375 181.475901 
L 395.516456 186.626685 
L 396.509162 194.57619 
L 397.501868 203.993516 
L 398.494574 217.147516 
L 399.48728 233.766961 
L 400.479986 254.197702 
L 401.472692 277.584858 
L 402.465398 279.824989 
L 403.458104 269.823269 
L 404.450809 269.76403 
L 405.443515 279.59719 
L 406.436221 291.774137 
L 407.428927 351.232094 
L 408.421633 349.350816 
L 409.414339 299.463255 
L 410.407045 287.571764 
L 411.399751 284.428447 
L 412.392457 283.604355 
L 413.385163 296.850119 
L 414.377869 308.595098 
L 415.370575 315.260563 
L 416.363281 299.870119 
L 417.355986 290.403267 
L 418.348692 284.882267 
L 419.341398 283.613646 
L 420.334104 279.848799 
L 421.32681 288.834876 
L 422.319516 286.750189 
L 423.312222 298.159367 
L 424.304928 296.847971 
L 425.297634 301.698652 
L 426.29034 290.422042 
L 428.275752 292.908185 
L 429.268458 301.796706 
L 430.261163 300.141412 
L 431.253869 313.993198 
L 432.246575 323.378884 
L 433.239281 310.644937 
L 434.231987 301.921381 
L 435.224693 296.314265 
L 436.217399 293.067487 
L 437.210105 292.443598 
L 438.202811 301.062998 
L 439.195517 299.030292 
L 440.188223 308.886303 
L 441.180929 307.415995 
L 442.173635 307.317792 
L 443.166341 292.606191 
L 444.159046 292.711332 
L 445.151752 288.771052 
L 446.144458 288.990774 
L 447.137164 287.468662 
L 448.12987 294.239572 
L 449.122576 295.471912 
L 450.115282 302.953498 
L 451.107988 303.520074 
L 452.100694 305.814967 
L 453.0934 302.97559 
L 454.086106 301.482057 
L 455.078812 306.719866 
L 456.071518 306.843778 
L 457.064223 315.205195 
L 458.056929 312.119503 
L 459.049635 311.753284 
L 460.042341 301.591894 
L 461.035047 298.466133 
L 462.027753 290.326135 
L 463.020459 290.889432 
L 464.013165 288.158123 
L 465.005871 295.991711 
L 465.998577 296.220755 
L 466.991283 301.320273 
L 467.983989 296.100153 
L 468.976695 293.955689 
L 469.9694 285.88146 
L 470.962106 281.206911 
L 471.954812 280.702759 
L 472.947518 281.00543 
L 473.940224 288.208564 
L 474.93293 292.769991 
L 475.925636 313.83687 
L 476.918342 337.816534 
L 477.911048 338.476204 
L 478.903754 301.520397 
L 480.889166 278.083117 
L 482.874577 268.182027 
L 483.867283 266.884994 
L 484.859989 268.005329 
L 485.852695 269.297998 
L 486.845401 276.0581 
L 487.838107 280.734803 
L 489.823519 295.343248 
L 491.808931 277.963209 
L 493.794343 256.113648 
L 495.779754 242.255432 
L 496.77246 236.88827 
L 498.757872 230.099613 
L 499.750578 228.965342 
L 500.743284 227.380036 
L 501.73599 228.274894 
L 502.728696 229.998756 
L 503.721402 232.300483 
L 505.706814 241.011881 
L 506.69952 249.336574 
L 507.692226 256.003301 
L 508.684932 265.588822 
L 509.677637 274.021359 
L 510.670343 280.7983 
L 511.663049 281.437158 
L 512.655755 283.315763 
L 513.648461 284.93159 
L 514.641167 287.272465 
L 515.633873 300.132999 
L 516.626579 307.841924 
L 517.619285 332.64253 
L 518.611991 365.96328 
L 519.604697 365.734627 
L 520.597403 330.235773 
L 521.590109 328.713282 
L 522.582814 321.908991 
L 523.57552 336.136893 
L 524.568226 337.179543 
L 525.560932 387.843443 
L 526.553638 374.679927 
L 528.53905 336.123455 
L 529.531756 331.733612 
L 530.524462 321.50479 
L 531.517168 334.055675 
L 532.509874 343.435386 
L 533.50258 348.907898 
L 534.495286 375.935076 
L 535.487991 378.913341 
L 536.480697 362.201455 
L 537.473403 331.170564 
L 538.466109 329.617199 
L 539.458815 343.950519 
L 540.451521 344.674328 
L 541.444227 365.647955 
L 542.436933 411.068402 
L 543.429639 364.677345 
L 544.422345 367.942718 
L 545.415051 341.17103 
L 546.407757 345.484056 
L 547.400463 350.924589 
L 548.393168 341.526355 
L 549.385874 363.981008 
L 550.37858 364.3912 
L 551.371286 353.114172 
L 552.363992 359.268992 
L 553.356698 341.353873 
L 554.349404 344.070061 
L 555.34211 345.785125 
L 556.334816 340.946322 
L 557.327522 355.891634 
L 558.320228 362.696061 
L 559.312934 390.72058 
L 560.30564 352.242925 
L 561.298345 365.890812 
L 562.291051 351.841853 
L 563.283757 346.441498 
L 564.276463 343.648114 
L 565.269169 356.267278 
L 566.261875 356.221352 
L 567.254581 354.392712 
L 568.247287 362.238328 
L 569.239993 368.67774 
L 570.232699 359.893245 
L 571.225405 370.180521 
L 572.218111 364.329054 
L 573.210817 369.582182 
L 574.203523 363.738943 
L 575.196228 353.138897 
L 576.188934 335.422279 
L 577.18164 332.615034 
L 578.174346 322.105152 
L 579.167052 324.680232 
L 580.159758 323.26575 
L 581.152464 327.184976 
L 582.14517 341.225911 
L 583.137876 350.129547 
L 584.130582 361.286284 
L 585.123288 349.285715 
L 586.115994 323.737399 
L 587.1087 310.153475 
L 588.101405 305.07946 
L 589.094111 294.416841 
L 590.086817 289.041621 
L 591.079523 286.845765 
L 592.072229 285.199847 
L 593.064935 284.998986 
L 594.057641 286.545215 
L 595.050347 294.121082 
L 596.043053 297.802942 
L 597.035759 307.531312 
L 598.028465 315.794545 
L 599.021171 308.286393 
L 600.013877 299.623805 
L 601.999288 278.037547 
L 602.991994 272.006161 
L 603.9847 264.330935 
L 604.977406 260.56934 
L 605.970112 255.327307 
L 606.962818 251.865839 
L 608.94823 246.421485 
L 610.933642 243.841697 
L 611.926348 243.910777 
L 612.919054 244.474053 
L 613.911759 246.327465 
L 615.897171 253.351236 
L 617.882583 267.319551 
L 618.875289 278.398704 
L 619.867995 292.530576 
L 620.860701 312.011162 
L 621.853407 352.632262 
L 622.846113 400.165204 
L 623.838819 342.133237 
L 624.831525 333.259945 
L 625.824231 333.09985 
L 626.816936 331.919975 
L 627.809642 352.206108 
L 628.802348 352.927347 
L 629.795054 345.62794 
L 630.78776 341.807442 
L 631.780466 327.552476 
L 632.773172 327.0156 
L 633.765878 330.533561 
L 634.758584 332.639251 
L 635.75129 353.920824 
L 636.743996 357.837961 
L 637.736702 364.014183 
L 638.729408 339.34754 
L 639.722114 333.496676 
L 640.714819 320.112782 
L 641.707525 322.342887 
L 642.700231 320.26906 
L 643.692937 325.781393 
L 644.685643 335.488706 
L 645.678349 346.518939 
L 646.671055 370.820764 
L 647.663761 370.417009 
L 648.656467 362.797763 
L 649.649173 349.058712 
L 650.641879 348.498808 
L 651.634585 340.094499 
L 652.627291 355.458618 
L 653.619996 348.93047 
L 654.612702 369.875837 
L 655.605408 359.681958 
L 656.598114 367.354509 
L 657.59082 351.98651 
L 658.583526 354.476749 
L 659.576232 352.947443 
L 660.568938 352.73911 
L 661.561644 368.822572 
L 662.55435 362.728033 
L 663.547056 377.955825 
L 664.539762 383.851379 
L 665.532468 361.324694 
L 666.525173 367.515465 
L 667.517879 358.985746 
L 668.510585 352.496664 
L 669.503291 358.915031 
L 670.495997 349.701456 
L 671.488703 363.17922 
L 672.481409 354.27045 
L 673.474115 360.035805 
L 674.466821 363.424443 
L 675.459527 356.941392 
L 676.452233 370.533088 
L 677.444939 357.338471 
L 678.437645 369.887472 
L 679.43035 362.316486 
L 680.423056 367.732391 
L 681.415762 365.041171 
L 682.408468 359.419522 
L 683.401174 361.595273 
L 684.39388 349.155841 
L 685.386586 355.882748 
L 686.379292 344.679445 
L 687.371998 352.030804 
L 688.364704 352.301157 
L 689.35741 353.060667 
L 690.350116 367.854718 
L 691.342822 355.45514 
L 692.335527 346.231754 
L 693.328233 341.469676 
L 694.320939 326.877746 
L 695.313645 324.557649 
L 696.306351 318.858591 
L 697.299057 315.91407 
L 698.291763 318.61662 
L 699.284469 316.374096 
L 700.277175 323.778497 
L 701.269881 326.348086 
L 702.262587 332.65047 
L 703.255293 343.237457 
L 704.247999 338.679379 
L 705.240705 338.68151 
L 706.23341 330.741132 
L 707.226116 319.708222 
L 708.218822 315.353082 
L 709.211528 305.396137 
L 710.204234 301.543983 
L 711.19694 295.346623 
L 712.189646 290.694885 
L 713.182352 287.931237 
L 714.175058 283.400986 
L 715.167764 282.574502 
L 716.16047 279.408192 
L 717.153176 279.022015 
L 718.145882 277.953995 
L 719.138587 277.383106 
L 720.131293 278.555062 
L 721.123999 277.957749 
L 722.116705 280.35476 
L 723.109411 280.883551 
L 726.087529 288.40846 
L 727.080235 294.082609 
L 728.072941 296.783985 
L 730.058353 310.445094 
L 731.051059 317.632303 
L 732.043764 332.00265 
L 733.03647 339.856656 
L 734.029176 365.787271 
L 735.021882 397.944402 
L 736.014588 399.542498 
L 737.007294 375.652722 
L 738 374.013864 
L 738.992706 355.054751 
L 739.985412 360.708239 
L 740.978118 357.702147 
L 741.970824 361.048495 
L 742.96353 374.955852 
L 743.956236 371.358687 
L 744.948941 385.125526 
L 745.941647 364.031971 
L 746.934353 366.467729 
L 747.927059 348.833568 
L 748.919765 352.227697 
L 749.912471 344.788332 
L 750.905177 346.761876 
L 751.897883 351.389092 
L 752.890589 351.005455 
L 753.883295 367.79608 
L 754.876001 363.782903 
L 755.868707 386.509975 
L 756.861413 369.322406 
L 757.854118 381.105733 
L 758.846824 364.605703 
L 759.83953 372.952613 
L 760.832236 371.089351 
L 761.824942 378.326966 
L 762.817648 393.279212 
L 763.810354 393.258997 
L 764.80306 384.526065 
L 765.795766 370.820553 
L 766.788472 365.766116 
L 767.781178 353.576807 
L 768.773884 360.05662 
L 769.76659 352.039508 
L 770.759295 364.956655 
L 771.752001 365.984563 
L 772.744707 382.859999 
L 773.737413 393.560698 
L 774.730119 402.130747 
L 775.722825 374.245123 
L 776.715531 368.838679 
L 777.708237 360.157706 
L 778.700943 353.616138 
L 779.693649 356.550305 
L 780.686355 348.651058 
L 781.679061 355.138644 
L 782.671767 345.333166 
L 783.664473 349.692141 
L 784.657178 340.690259 
L 785.649884 341.6408 
L 786.64259 338.397653 
L 787.635296 336.566323 
L 788.628002 340.918176 
L 789.620708 338.084026 
L 790.613414 348.753818 
L 791.60612 347.166191 
L 792.598826 359.963059 
L 793.591532 362.625106 
L 795.576944 380.789596 
L 796.56965 381.020251 
L 797.562355 408.479874 
L 798.555061 401.748409 
L 799.547767 435.208498 
L 800.540473 418.181266 
L 801.533179 377.63486 
L 802.525885 362.944221 
L 803.518591 356.289646 
L 804.511297 342.416048 
L 805.504003 343.800087 
L 806.496709 336.045077 
L 807.489415 337.349345 
L 808.482121 339.325632 
L 809.474827 338.400387 
L 810.467532 349.405916 
L 811.460238 349.207719 
L 813.44565 367.758147 
L 814.438356 357.708739 
L 815.431062 360.713414 
L 817.416474 344.328415 
L 818.40918 344.983639 
L 819.401886 334.764569 
L 820.394592 335.094676 
L 821.387298 327.865344 
L 822.380004 324.30993 
L 823.372709 321.18844 
L 824.365415 315.328801 
L 825.358121 315.10751 
L 826.350827 309.943638 
L 827.343533 310.408345 
L 828.336239 308.844165 
L 829.328945 308.663954 
L 830.321651 311.605441 
L 831.314357 311.206563 
L 832.307063 317.183279 
L 833.299769 319.361611 
L 834.292475 325.353696 
L 835.285181 334.103796 
L 836.277886 338.285444 
L 837.270592 355.295163 
L 838.263298 360.806195 
L 840.24871 404.903353 
L 841.241416 421.202585 
L 842.234122 416.433959 
L 843.226828 413.080209 
L 844.219534 405.797426 
L 845.21224 386.243391 
L 846.204946 404.168486 
L 847.197652 381.09153 
L 849.183064 386.891292 
L 850.175769 373.616031 
L 851.168475 388.295483 
L 852.161181 376.395207 
L 853.153887 379.760392 
L 854.146593 392.566649 
L 855.139299 379.941272 
L 856.132005 401.393478 
L 857.124711 395.651081 
L 858.117417 392.138416 
L 859.110123 427.230484 
L 860.102829 398.391436 
L 861.095535 407.989941 
L 862.088241 436.602901 
L 863.080946 411.152661 
L 864.073652 449.196839 
L 865.066358 449.890654 
L 867.05177 397.506109 
L 868.044476 411.256178 
L 869.037182 379.832604 
L 870.029888 384.161595 
L 871.022594 379.798614 
L 872.0153 370.995799 
L 873.008006 386.139332 
L 874.000712 373.608222 
L 874.993418 385.365378 
L 875.986123 392.125233 
L 876.978829 387.677723 
L 877.971535 430.383292 
L 878.964241 409.480862 
L 879.956947 420.125164 
L 880.949653 469.899676 
L 881.942359 438.947057 
L 882.935065 415.293622 
L 883.927771 435.883305 
L 885.913183 395.425652 
L 886.905889 416.560369 
L 887.898595 388.096008 
L 888.8913 394.659625 
L 889.884006 396.668706 
L 890.876712 387.781066 
L 891.869418 414.904191 
L 892.862124 390.901168 
L 893.85483 414.984808 
L 894.847536 382.917483 
L 895.840242 390.695119 
L 896.832948 372.885393 
L 897.825654 371.100939 
L 898.81836 370.352897 
L 899.811066 363.144785 
L 900.803772 375.557711 
L 901.796477 367.835701 
L 902.789183 384.187443 
L 903.781889 390.771706 
L 904.774595 402.53327 
L 905.767301 460.459137 
L 906.760007 492.48 
L 907.752713 397.374232 
L 908.745419 403.931761 
L 909.738125 382.573227 
L 911.723537 377.317589 
L 912.716243 367.207234 
L 913.708949 372.000563 
L 914.701655 358.407483 
L 915.69436 363.793147 
L 916.687066 354.412769 
L 917.679772 357.897265 
L 918.672478 359.252392 
L 919.665184 359.081996 
L 920.65789 376.021204 
L 921.650596 374.494703 
L 922.643302 384.907462 
L 923.636008 387.501238 
L 924.628714 361.183495 
L 925.62142 353.850394 
L 927.606832 334.725629 
L 928.599537 333.424073 
L 929.592243 325.365147 
L 930.584949 325.085408 
L 931.577655 320.562682 
L 932.570361 318.603548 
L 933.563067 317.405291 
L 934.555773 313.369466 
L 935.548479 313.825797 
L 936.541185 309.805457 
L 937.533891 310.289249 
L 938.526597 308.476487 
L 939.519303 307.943637 
L 940.512009 309.6788 
L 941.504714 308.764919 
L 942.49742 312.815433 
L 943.490126 313.66567 
L 944.482832 317.792577 
L 945.475538 323.230426 
L 946.468244 325.951976 
L 947.46095 336.513161 
L 948.453656 340.901877 
L 949.446362 352.187348 
L 950.439068 369.439923 
L 951.431774 374.518447 
L 952.42448 394.375782 
L 953.417186 397.752421 
L 954.409891 370.980648 
L 955.402597 368.197571 
L 956.395303 362.135394 
L 957.388009 353.689718 
L 958.380715 360.088901 
L 959.373421 353.50096 
L 960.366127 360.932409 
L 961.358833 366.165678 
L 962.351539 369.644536 
L 963.344245 395.345601 
L 964.336951 394.116047 
L 965.329657 447.084451 
L 966.322363 399.202223 
L 967.315068 402.744579 
L 968.307774 376.810716 
L 969.30048 386.817174 
L 970.293186 374.718379 
L 971.285892 383.478379 
L 972.278598 395.311897 
L 973.271304 399.015975 
L 974.26401 479.348752 
L 975.256716 462.417072 
L 976.249422 392.911232 
L 977.242128 383.131748 
L 978.234834 375.360128 
L 979.22754 363.593426 
L 980.220246 369.857594 
L 981.212951 360.567803 
L 982.205657 370.379213 
L 983.198363 368.909616 
L 984.191069 377.092718 
L 985.183775 388.916177 
L 986.176481 389.094216 
L 987.169187 407.682103 
L 988.161893 393.678364 
L 989.154599 412.369339 
L 990.147305 392.14895 
L 991.140011 427.276302 
L 992.132717 401.966736 
L 993.125423 457.778767 
L 994.118128 398.64211 
L 995.110834 403.533758 
L 996.10354 372.997574 
L 997.096246 375.171757 
L 998.088952 360.397844 
L 999.081658 359.937627 
L 1000.074364 357.156817 
L 1001.06707 353.835407 
L 1002.059776 360.585194 
L 1003.052482 355.482472 
L 1004.045188 367.217554 
L 1005.037894 363.409581 
L 1006.0306 374.154942 
L 1007.023305 376.219687 
L 1008.016011 379.613369 
L 1009.008717 393.469239 
L 1010.001423 386.907241 
L 1010.994129 421.144513 
L 1011.986835 404.122421 
L 1012.979541 399.266677 
L 1013.972247 407.967571 
L 1014.964953 375.346406 
L 1015.957659 372.299772 
L 1017.943071 353.594066 
L 1018.935777 354.486518 
L 1019.928482 345.368171 
L 1020.921188 349.207383 
L 1021.913894 343.987972 
L 1023.899306 348.994452 
L 1024.892012 348.746095 
L 1025.884718 360.371117 
L 1026.877424 359.597818 
L 1027.87013 377.808156 
L 1028.862836 389.270576 
L 1029.855542 386.469562 
L 1030.848248 387.389162 
L 1031.840954 368.197881 
L 1032.833659 353.132825 
L 1033.826365 349.505432 
L 1034.819071 337.555721 
L 1035.811777 336.096807 
L 1036.804483 329.969344 
L 1037.797189 327.476697 
L 1038.789895 326.707602 
L 1039.782601 322.807102 
L 1040.775307 324.841929 
L 1041.768013 321.130865 
L 1042.760719 323.261741 
L 1043.753425 321.820174 
L 1044.746131 321.899995 
L 1045.738837 323.725331 
L 1046.731542 321.819274 
L 1047.724248 325.935543 
L 1048.716954 324.229718 
L 1049.70966 327.280595 
L 1050.702366 329.017845 
L 1051.695072 328.836344 
L 1052.687778 334.326952 
L 1053.680484 332.537908 
L 1054.67319 337.965473 
L 1056.658602 341.86029 
L 1057.651308 351.02854 
L 1058.644014 350.840685 
L 1059.636719 364.909598 
L 1060.629425 370.728825 
L 1061.622131 384.451932 
L 1062.614837 424.305944 
L 1063.607543 437.441087 
L 1064.600249 405.154864 
L 1065.592955 405.632637 
L 1066.585661 382.037099 
L 1067.578367 377.177224 
L 1068.571073 376.969949 
L 1069.563779 368.551696 
L 1070.556485 379.120543 
L 1071.549191 368.460055 
L 1072.541896 380.683998 
L 1073.534602 370.609565 
L 1074.527308 376.908407 
L 1075.520014 370.535787 
L 1076.51272 370.321704 
L 1077.505426 372.604326 
L 1078.498132 367.524943 
L 1079.490838 379.027086 
L 1080.483544 372.53302 
L 1081.47625 394.737782 
L 1082.468956 392.089646 
L 1083.461662 423.53137 
L 1084.454368 418.84087 
L 1085.447073 451.108384 
L 1086.439779 394.847288 
L 1087.432485 403.979248 
L 1088.425191 385.221941 
L 1089.417897 387.14363 
L 1090.410603 386.962528 
L 1091.403309 381.783662 
L 1092.396015 389.773223 
L 1093.388721 376.626351 
L 1094.381427 385.552529 
L 1095.374133 370.3625 
L 1096.366839 379.064159 
L 1097.359545 369.553915 
L 1099.344956 381.837181 
L 1100.337662 384.480002 
L 1101.330368 425.838261 
L 1102.323074 429.37259 
L 1103.31578 410.241898 
L 1104.308486 395.402781 
L 1105.301192 376.13915 
L 1106.293898 362.315875 
L 1107.286604 361.455978 
L 1108.27931 349.676438 
L 1109.272016 352.251256 
L 1110.264722 346.688973 
L 1111.257428 347.057609 
L 1112.250133 348.74114 
L 1113.242839 345.907717 
L 1114.235545 352.759351 
L 1115.228251 348.028589 
L 1116.220957 354.382442 
L 1117.213663 352.805747 
L 1118.206369 353.028851 
L 1119.199075 358.163174 
L 1120.191781 352.212628 
L 1121.184487 358.822843 
L 1122.177193 353.561516 
L 1124.162605 356.777008 
L 1125.15531 351.940876 
L 1126.148016 358.910891 
L 1127.140722 352.992342 
L 1128.133428 357.686244 
L 1129.126134 358.036753 
L 1130.11884 357.286939 
L 1131.111546 365.993419 
L 1132.104252 360.396882 
L 1133.096958 371.181293 
L 1134.089664 369.987215 
L 1135.08237 371.294359 
L 1136.075076 383.192798 
L 1137.067782 371.101994 
L 1138.060487 374.842343 
L 1139.053193 370.889121 
L 1140.045899 360.227918 
L 1141.038605 363.624939 
L 1142.031311 353.628298 
L 1143.024017 354.009054 
L 1144.016723 353.367058 
L 1145.009429 349.288194 
L 1146.002135 355.938453 
L 1146.994841 351.028034 
L 1147.987547 357.324338 
L 1148.980253 358.412379 
L 1149.972959 358.547731 
L 1150.965664 366.812785 
L 1151.95837 359.925204 
L 1152.951076 368.500434 
L 1153.943782 361.905509 
L 1154.936488 361.69882 
L 1155.929194 363.122541 
L 1156.9219 354.893105 
L 1157.914606 360.220251 
L 1158.907312 352.567962 
L 1159.900018 354.769619 
L 1160.892724 355.345434 
L 1161.88543 353.252403 
L 1162.878136 362.729033 
L 1163.870841 359.460045 
L 1164.863547 372.635526 
L 1165.856253 376.93871 
L 1166.848959 388.602401 
L 1167.841665 409.638604 
L 1168.834371 409.666404 
L 1169.827077 413.614404 
L 1170.819783 397.902397 
L 1171.812489 405.789691 
L 1172.805195 387.618057 
L 1173.797901 411.279797 
L 1174.790607 397.376059 
L 1175.783313 421.424115 
L 1176.776019 457.825613 
L 1177.768724 437.098018 
L 1178.76143 401.827601 
L 1179.754136 408.147221 
L 1180.746842 379.098561 
L 1181.739548 381.376675 
L 1182.732254 373.530396 
L 1183.72496 369.348614 
L 1184.717666 377.048854 
L 1185.710372 369.095896 
L 1186.703078 385.121934 
L 1187.695784 380.41379 
L 1188.68849 395.94747 
L 1190.673901 417.699012 
L 1191.666607 424.306911 
L 1192.659313 420.667123 
L 1193.652019 410.266603 
L 1194.644725 398.656721 
L 1195.637431 414.929894 
L 1196.630137 395.484942 
L 1197.622843 434.353054 
L 1198.615549 420.398057 
L 1199.608255 436.685122 
L 1200.600961 422.396651 
L 1201.593667 415.113893 
L 1202.586373 382.789357 
L 1203.579078 387.721431 
L 1204.571784 370.839806 
L 1205.56449 370.669481 
L 1206.557196 372.017396 
L 1207.549902 367.091031 
L 1208.542608 382.540118 
L 1209.535314 379.046767 
L 1210.52802 401.175157 
L 1211.520726 436.823556 
L 1212.513432 432.895864 
L 1213.506138 392.672666 
L 1214.498844 390.052904 
L 1215.49155 366.548439 
L 1216.484255 362.781059 
L 1217.476961 357.412683 
L 1218.469667 350.694974 
L 1219.462373 354.369908 
L 1220.455079 348.010286 
L 1221.447785 352.564585 
L 1222.440491 351.648402 
L 1223.433197 352.111078 
L 1224.425903 358.632026 
L 1225.418609 354.086744 
L 1226.411315 362.900226 
L 1227.404021 357.893508 
L 1228.396727 361.380449 
L 1229.389432 362.35055 
L 1230.382138 357.915746 
L 1231.374844 365.179746 
L 1232.36755 357.23036 
L 1233.360256 362.611585 
L 1234.352962 361.861822 
L 1235.345668 359.863874 
L 1236.338374 368.461356 
L 1237.33108 362.087315 
L 1238.323786 371.35501 
L 1239.316492 372.865905 
L 1240.309198 372.673351 
L 1241.301904 388.690835 
L 1242.29461 380.073998 
L 1243.287315 395.333552 
L 1244.280021 396.66668 
L 1245.272727 391.359202 
L 1245.272727 391.359202 
" clip-path="url(#pd608bffb99)" style="fill: none; stroke: #1f77b4; stroke-width: 1.5; stroke-linecap: square"/>
   </g>
   <g id="patch_3">
    <path d="M 180 512.64 
L 180 69.12 
" style="fill: none; stroke: #000000; stroke-width: 0.8; stroke-linejoin: miter; stroke-linecap: square"/>
   </g>
   <g id="patch_4">
    <path d="M 1296 512.64 
L 1296 69.12 
" style="fill: none; stroke: #000000; stroke-width: 0.8; stroke-linejoin: miter; stroke-linecap: square"/>
   </g>
   <g id="patch_5">
    <path d="M 180 512.64 
L 1296 512.64 
" style="fill: none; stroke: #000000; stroke-width: 0.8; stroke-linejoin: miter; stroke-linecap: square"/>
   </g>
   <g id="patch_6">
    <path d="M 180 69.12 
L 1296 69.12 
" style="fill: none; stroke: #000000; stroke-width: 0.8; stroke-linejoin: miter; stroke-linecap: square"/>
   </g>
   <g id="text_13">
    <!-- source5-receiver4 -->
    <g transform="translate(557.625 60.80125) scale(0.4 -0.4)">
     <defs>
      <path id="DejaVuSans-73" d="M 2834 3397 
L 2834 2853 
Q 2591 2978 2328 3040 
Q 2066 3103 1784 3103 
Q 1356 3103 1142 2972 
Q 928 2841 928 2578 
Q 928 2378 1081 2264 
Q 1234 2150 1697 2047 
L 1894 2003 
Q 2506 1872 2764 1633 
Q 3022 1394 3022 966 
Q 3022 478 2636 193 
Q 2250 -91 1575 -91 
Q 1294 -91 989 -36 
Q 684 19 347 128 
L 347 722 
Q 666 556 975 473 
Q 1284 391 1588 391 
Q 1994 391 2212 530 
Q 2431 669 2431 922 
Q 2431 1156 2273 1281 
Q 2116 1406 1581 1522 
L 1381 1569 
Q 847 1681 609 1914 
Q 372 2147 372 2553 
Q 372 3047 722 3315 
Q 1072 3584 1716 3584 
Q 2034 3584 2315 3537 
Q 2597 3491 2834 3397 
z
" transform="scale(0.015625)"/>
      <path id="DejaVuSans-6f" d="M 1959 3097 
Q 1497 3097 1228 2736 
Q 959 2375 959 1747 
Q 959 1119 1226 758 
Q 1494 397 1959 397 
Q 2419 397 2687 759 
Q 2956 1122 2956 1747 
Q 2956 2369 2687 2733 
Q 2419 3097 1959 3097 
z
M 1959 3584 
Q 2709 3584 3137 3096 
Q 3566 2609 3566 1747 
Q 3566 888 3137 398 
Q 2709 -91 1959 -91 
Q 1206 -91 779 398 
Q 353 888 353 1747 
Q 353 2609 779 3096 
Q 1206 3584 1959 3584 
z
" transform="scale(0.015625)"/>
      <path id="DejaVuSans-75" d="M 544 1381 
L 544 3500 
L 1119 3500 
L 1119 1403 
Q 1119 906 1312 657 
Q 1506 409 1894 409 
Q 2359 409 2629 706 
Q 2900 1003 2900 1516 
L 2900 3500 
L 3475 3500 
L 3475 0 
L 2900 0 
L 2900 538 
Q 2691 219 2414 64 
Q 2138 -91 1772 -91 
Q 1169 -91 856 284 
Q 544 659 544 1381 
z
M 1991 3584 
L 1991 3584 
z
" transform="scale(0.015625)"/>
      <path id="DejaVuSans-72" d="M 2631 2963 
Q 2534 3019 2420 3045 
Q 2306 3072 2169 3072 
Q 1681 3072 1420 2755 
Q 1159 2438 1159 1844 
L 1159 0 
L 581 0 
L 581 3500 
L 1159 3500 
L 1159 2956 
Q 1341 3275 1631 3429 
Q 1922 3584 2338 3584 
Q 2397 3584 2469 3576 
Q 2541 3569 2628 3553 
L 2631 2963 
z
" transform="scale(0.015625)"/>
      <path id="DejaVuSans-63" d="M 3122 3366 
L 3122 2828 
Q 2878 2963 2633 3030 
Q 2388 3097 2138 3097 
Q 1578 3097 1268 2742 
Q 959 2388 959 1747 
Q 959 1106 1268 751 
Q 1578 397 2138 397 
Q 2388 397 2633 464 
Q 2878 531 3122 666 
L 3122 134 
Q 2881 22 2623 -34 
Q 2366 -91 2075 -91 
Q 1284 -91 818 406 
Q 353 903 353 1747 
Q 353 2603 823 3093 
Q 1294 3584 2113 3584 
Q 2378 3584 2631 3529 
Q 2884 3475 3122 3366 
z
" transform="scale(0.015625)"/>
      <path id="DejaVuSans-65" d="M 3597 1894 
L 3597 1613 
L 953 1613 
Q 991 1019 1311 708 
Q 1631 397 2203 397 
Q 2534 397 2845 478 
Q 3156 559 3463 722 
L 3463 178 
Q 3153 47 2828 -22 
Q 2503 -91 2169 -91 
Q 1331 -91 842 396 
Q 353 884 353 1716 
Q 353 2575 817 3079 
Q 1281 3584 2069 3584 
Q 2775 3584 3186 3129 
Q 3597 2675 3597 1894 
z
M 3022 2063 
Q 3016 2534 2758 2815 
Q 2500 3097 2075 3097 
Q 1594 3097 1305 2825 
Q 1016 2553 972 2059 
L 3022 2063 
z
" transform="scale(0.015625)"/>
      <path id="DejaVuSans-2d" d="M 313 2009 
L 1997 2009 
L 1997 1497 
L 313 1497 
L 313 2009 
z
" transform="scale(0.015625)"/>
      <path id="DejaVuSans-69" d="M 603 3500 
L 1178 3500 
L 1178 0 
L 603 0 
L 603 3500 
z
M 603 4863 
L 1178 4863 
L 1178 4134 
L 603 4134 
L 603 4863 
z
" transform="scale(0.015625)"/>
      <path id="DejaVuSans-76" d="M 191 3500 
L 800 3500 
L 1894 563 
L 2988 3500 
L 3597 3500 
L 2284 0 
L 1503 0 
L 191 3500 
z
" transform="scale(0.015625)"/>
     </defs>
     <use xlink:href="#DejaVuSans-73"/>
     <use xlink:href="#DejaVuSans-6f" x="52.099609"/>
     <use xlink:href="#DejaVuSans-75" x="113.28125"/>
     <use xlink:href="#DejaVuSans-72" x="176.660156"/>
     <use xlink:href="#DejaVuSans-63" x="215.523438"/>
     <use xlink:href="#DejaVuSans-65" x="270.503906"/>
     <use xlink:href="#DejaVuSans-35" x="332.027344"/>
     <use xlink:href="#DejaVuSans-2d" x="395.650391"/>
     <use xlink:href="#DejaVuSans-72" x="431.734375"/>
     <use xlink:href="#DejaVuSans-65" x="470.597656"/>
     <use xlink:href="#DejaVuSans-63" x="532.121094"/>
     <use xlink:href="#DejaVuSans-65" x="587.101562"/>
     <use xlink:href="#DejaVuSans-69" x="648.625"/>
     <use xlink:href="#DejaVuSans-76" x="676.408203"/>
     <use xlink:href="#DejaVuSans-65" x="735.587891"/>
     <use xlink:href="#DejaVuSans-72" x="797.111328"/>
     <use xlink:href="#DejaVuSans-34" x="838.224609"/>
    </g>
   </g>
  </g>
 </g>
 <defs>
  <clipPath id="pd608bffb99">
   <rect x="180" y="69.12" width="1116" height="443.52"/>
  </clipPath>
 </defs>
</svg>
