<?xml version="1.0" encoding="utf-8" standalone="no"?>
<!DOCTYPE svg PUBLIC "-//W3C//DTD SVG 1.1//EN"
  "http://www.w3.org/Graphics/SVG/1.1/DTD/svg11.dtd">
<svg xmlns:xlink="http://www.w3.org/1999/xlink" width="1440pt" height="576pt" viewBox="0 0 1440 576" xmlns="http://www.w3.org/2000/svg" version="1.1">
 <metadata>
  <rdf:RDF xmlns:dc="http://purl.org/dc/elements/1.1/" xmlns:cc="http://creativecommons.org/ns#" xmlns:rdf="http://www.w3.org/1999/02/22-rdf-syntax-ns#">
   <cc:Work>
    <dc:type rdf:resource="http://purl.org/dc/dcmitype/StillImage"/>
    <dc:date>2024-05-22T04:49:46.871495</dc:date>
    <dc:format>image/svg+xml</dc:format>
    <dc:creator>
     <cc:Agent>
      <dc:title>Matplotlib v3.8.3, https://matplotlib.org/</dc:title>
     </cc:Agent>
    </dc:creator>
   </cc:Work>
  </rdf:RDF>
 </metadata>
 <defs>
  <style type="text/css">*{stroke-linejoin: round; stroke-linecap: butt}</style>
 </defs>
 <g id="figure_1">
  <g id="patch_1">
   <path d="M 0 576 
L 1440 576 
L 1440 0 
L 0 0 
z
" style="fill: #ffffff"/>
  </g>
  <g id="axes_1">
   <g id="patch_2">
    <path d="M 180 512.64 
L 1296 512.64 
L 1296 69.12 
L 180 69.12 
z
" style="fill: #ffffff"/>
   </g>
   <g id="matplotlib.axis_1">
    <g id="xtick_1">
     <g id="line2d_1">
      <defs>
       <path id="m9d3ecd223a" d="M 0 0 
L 0 3.5 
" style="stroke: #000000; stroke-width: 0.8"/>
      </defs>
      <g>
       <use xlink:href="#m9d3ecd223a" x="229.734567" y="512.64" style="stroke: #000000; stroke-width: 0.8"/>
      </g>
     </g>
     <g id="text_1">
      <!-- 0 -->
      <g transform="translate(226.553317 527.238438) scale(0.1 -0.1)">
       <defs>
        <path id="DejaVuSans-30" d="M 2034 4250 
Q 1547 4250 1301 3770 
Q 1056 3291 1056 2328 
Q 1056 1369 1301 889 
Q 1547 409 2034 409 
Q 2525 409 2770 889 
Q 3016 1369 3016 2328 
Q 3016 3291 2770 3770 
Q 2525 4250 2034 4250 
z
M 2034 4750 
Q 2819 4750 3233 4129 
Q 3647 3509 3647 2328 
Q 3647 1150 3233 529 
Q 2819 -91 2034 -91 
Q 1250 -91 836 529 
Q 422 1150 422 2328 
Q 422 3509 836 4129 
Q 1250 4750 2034 4750 
z
" transform="scale(0.015625)"/>
       </defs>
       <use xlink:href="#DejaVuSans-30"/>
      </g>
     </g>
    </g>
    <g id="xtick_2">
     <g id="line2d_2">
      <g>
       <use xlink:href="#m9d3ecd223a" x="433.04074" y="512.64" style="stroke: #000000; stroke-width: 0.8"/>
      </g>
     </g>
     <g id="text_2">
      <!-- 500 -->
      <g transform="translate(423.49699 527.238438) scale(0.1 -0.1)">
       <defs>
        <path id="DejaVuSans-35" d="M 691 4666 
L 3169 4666 
L 3169 4134 
L 1269 4134 
L 1269 2991 
Q 1406 3038 1543 3061 
Q 1681 3084 1819 3084 
Q 2600 3084 3056 2656 
Q 3513 2228 3513 1497 
Q 3513 744 3044 326 
Q 2575 -91 1722 -91 
Q 1428 -91 1123 -41 
Q 819 9 494 109 
L 494 744 
Q 775 591 1075 516 
Q 1375 441 1709 441 
Q 2250 441 2565 725 
Q 2881 1009 2881 1497 
Q 2881 1984 2565 2268 
Q 2250 2553 1709 2553 
Q 1456 2553 1204 2497 
Q 953 2441 691 2322 
L 691 4666 
z
" transform="scale(0.015625)"/>
       </defs>
       <use xlink:href="#DejaVuSans-35"/>
       <use xlink:href="#DejaVuSans-30" x="63.623047"/>
       <use xlink:href="#DejaVuSans-30" x="127.246094"/>
      </g>
     </g>
    </g>
    <g id="xtick_3">
     <g id="line2d_3">
      <g>
       <use xlink:href="#m9d3ecd223a" x="636.346913" y="512.64" style="stroke: #000000; stroke-width: 0.8"/>
      </g>
     </g>
     <g id="text_3">
      <!-- 1000 -->
      <g transform="translate(623.621913 527.238438) scale(0.1 -0.1)">
       <defs>
        <path id="DejaVuSans-31" d="M 794 531 
L 1825 531 
L 1825 4091 
L 703 3866 
L 703 4441 
L 1819 4666 
L 2450 4666 
L 2450 531 
L 3481 531 
L 3481 0 
L 794 0 
L 794 531 
z
" transform="scale(0.015625)"/>
       </defs>
       <use xlink:href="#DejaVuSans-31"/>
       <use xlink:href="#DejaVuSans-30" x="63.623047"/>
       <use xlink:href="#DejaVuSans-30" x="127.246094"/>
       <use xlink:href="#DejaVuSans-30" x="190.869141"/>
      </g>
     </g>
    </g>
    <g id="xtick_4">
     <g id="line2d_4">
      <g>
       <use xlink:href="#m9d3ecd223a" x="839.653087" y="512.64" style="stroke: #000000; stroke-width: 0.8"/>
      </g>
     </g>
     <g id="text_4">
      <!-- 1500 -->
      <g transform="translate(826.928087 527.238438) scale(0.1 -0.1)">
       <use xlink:href="#DejaVuSans-31"/>
       <use xlink:href="#DejaVuSans-35" x="63.623047"/>
       <use xlink:href="#DejaVuSans-30" x="127.246094"/>
       <use xlink:href="#DejaVuSans-30" x="190.869141"/>
      </g>
     </g>
    </g>
    <g id="xtick_5">
     <g id="line2d_5">
      <g>
       <use xlink:href="#m9d3ecd223a" x="1042.95926" y="512.64" style="stroke: #000000; stroke-width: 0.8"/>
      </g>
     </g>
     <g id="text_5">
      <!-- 2000 -->
      <g transform="translate(1030.23426 527.238438) scale(0.1 -0.1)">
       <defs>
        <path id="DejaVuSans-32" d="M 1228 531 
L 3431 531 
L 3431 0 
L 469 0 
L 469 531 
Q 828 903 1448 1529 
Q 2069 2156 2228 2338 
Q 2531 2678 2651 2914 
Q 2772 3150 2772 3378 
Q 2772 3750 2511 3984 
Q 2250 4219 1831 4219 
Q 1534 4219 1204 4116 
Q 875 4013 500 3803 
L 500 4441 
Q 881 4594 1212 4672 
Q 1544 4750 1819 4750 
Q 2544 4750 2975 4387 
Q 3406 4025 3406 3419 
Q 3406 3131 3298 2873 
Q 3191 2616 2906 2266 
Q 2828 2175 2409 1742 
Q 1991 1309 1228 531 
z
" transform="scale(0.015625)"/>
       </defs>
       <use xlink:href="#DejaVuSans-32"/>
       <use xlink:href="#DejaVuSans-30" x="63.623047"/>
       <use xlink:href="#DejaVuSans-30" x="127.246094"/>
       <use xlink:href="#DejaVuSans-30" x="190.869141"/>
      </g>
     </g>
    </g>
    <g id="xtick_6">
     <g id="line2d_6">
      <g>
       <use xlink:href="#m9d3ecd223a" x="1246.265433" y="512.64" style="stroke: #000000; stroke-width: 0.8"/>
      </g>
     </g>
     <g id="text_6">
      <!-- 2500 -->
      <g transform="translate(1233.540433 527.238438) scale(0.1 -0.1)">
       <use xlink:href="#DejaVuSans-32"/>
       <use xlink:href="#DejaVuSans-35" x="63.623047"/>
       <use xlink:href="#DejaVuSans-30" x="127.246094"/>
       <use xlink:href="#DejaVuSans-30" x="190.869141"/>
      </g>
     </g>
    </g>
   </g>
   <g id="matplotlib.axis_2">
    <g id="ytick_1">
     <g id="line2d_7">
      <defs>
       <path id="mdb71a73c03" d="M 0 0 
L -3.5 0 
" style="stroke: #000000; stroke-width: 0.8"/>
      </defs>
      <g>
       <use xlink:href="#mdb71a73c03" x="180" y="457.092325" style="stroke: #000000; stroke-width: 0.8"/>
      </g>
     </g>
     <g id="text_7">
      <!-- −6 -->
      <g transform="translate(158.257812 460.891543) scale(0.1 -0.1)">
       <defs>
        <path id="DejaVuSans-2212" d="M 678 2272 
L 4684 2272 
L 4684 1741 
L 678 1741 
L 678 2272 
z
" transform="scale(0.015625)"/>
        <path id="DejaVuSans-36" d="M 2113 2584 
Q 1688 2584 1439 2293 
Q 1191 2003 1191 1497 
Q 1191 994 1439 701 
Q 1688 409 2113 409 
Q 2538 409 2786 701 
Q 3034 994 3034 1497 
Q 3034 2003 2786 2293 
Q 2538 2584 2113 2584 
z
M 3366 4563 
L 3366 3988 
Q 3128 4100 2886 4159 
Q 2644 4219 2406 4219 
Q 1781 4219 1451 3797 
Q 1122 3375 1075 2522 
Q 1259 2794 1537 2939 
Q 1816 3084 2150 3084 
Q 2853 3084 3261 2657 
Q 3669 2231 3669 1497 
Q 3669 778 3244 343 
Q 2819 -91 2113 -91 
Q 1303 -91 875 529 
Q 447 1150 447 2328 
Q 447 3434 972 4092 
Q 1497 4750 2381 4750 
Q 2619 4750 2861 4703 
Q 3103 4656 3366 4563 
z
" transform="scale(0.015625)"/>
       </defs>
       <use xlink:href="#DejaVuSans-2212"/>
       <use xlink:href="#DejaVuSans-36" x="83.789062"/>
      </g>
     </g>
    </g>
    <g id="ytick_2">
     <g id="line2d_8">
      <g>
       <use xlink:href="#mdb71a73c03" x="180" y="384.80847" style="stroke: #000000; stroke-width: 0.8"/>
      </g>
     </g>
     <g id="text_8">
      <!-- −4 -->
      <g transform="translate(158.257812 388.607689) scale(0.1 -0.1)">
       <defs>
        <path id="DejaVuSans-34" d="M 2419 4116 
L 825 1625 
L 2419 1625 
L 2419 4116 
z
M 2253 4666 
L 3047 4666 
L 3047 1625 
L 3713 1625 
L 3713 1100 
L 3047 1100 
L 3047 0 
L 2419 0 
L 2419 1100 
L 313 1100 
L 313 1709 
L 2253 4666 
z
" transform="scale(0.015625)"/>
       </defs>
       <use xlink:href="#DejaVuSans-2212"/>
       <use xlink:href="#DejaVuSans-34" x="83.789062"/>
      </g>
     </g>
    </g>
    <g id="ytick_3">
     <g id="line2d_9">
      <g>
       <use xlink:href="#mdb71a73c03" x="180" y="312.524616" style="stroke: #000000; stroke-width: 0.8"/>
      </g>
     </g>
     <g id="text_9">
      <!-- −2 -->
      <g transform="translate(158.257812 316.323835) scale(0.1 -0.1)">
       <use xlink:href="#DejaVuSans-2212"/>
       <use xlink:href="#DejaVuSans-32" x="83.789062"/>
      </g>
     </g>
    </g>
    <g id="ytick_4">
     <g id="line2d_10">
      <g>
       <use xlink:href="#mdb71a73c03" x="180" y="240.240762" style="stroke: #000000; stroke-width: 0.8"/>
      </g>
     </g>
     <g id="text_10">
      <!-- 0 -->
      <g transform="translate(166.6375 244.039981) scale(0.1 -0.1)">
       <use xlink:href="#DejaVuSans-30"/>
      </g>
     </g>
    </g>
    <g id="ytick_5">
     <g id="line2d_11">
      <g>
       <use xlink:href="#mdb71a73c03" x="180" y="167.956908" style="stroke: #000000; stroke-width: 0.8"/>
      </g>
     </g>
     <g id="text_11">
      <!-- 2 -->
      <g transform="translate(166.6375 171.756126) scale(0.1 -0.1)">
       <use xlink:href="#DejaVuSans-32"/>
      </g>
     </g>
    </g>
    <g id="ytick_6">
     <g id="line2d_12">
      <g>
       <use xlink:href="#mdb71a73c03" x="180" y="95.673054" style="stroke: #000000; stroke-width: 0.8"/>
      </g>
     </g>
     <g id="text_12">
      <!-- 4 -->
      <g transform="translate(166.6375 99.472272) scale(0.1 -0.1)">
       <use xlink:href="#DejaVuSans-34"/>
      </g>
     </g>
    </g>
   </g>
   <g id="line2d_13">
    <path d="M 230.727273 184.761391 
L 231.719979 184.465349 
L 232.712685 184.013134 
L 235.690802 181.84263 
L 238.66892 179.525701 
L 241.647038 177.480731 
L 242.639744 176.924015 
L 243.63245 176.634783 
L 244.625156 176.874393 
L 246.610568 178.724721 
L 247.603273 175.999306 
L 248.595979 165.887992 
L 249.588685 152.62328 
L 250.581391 141.777037 
L 251.574097 134.70275 
L 252.566803 130.650176 
L 253.559509 128.430226 
L 254.552215 127.257135 
L 255.544921 126.650525 
L 256.537627 126.327535 
L 260.50845 125.607808 
L 262.493862 124.747936 
L 264.479274 123.361968 
L 266.464686 121.587081 
L 269.442804 118.805155 
L 271.428216 117.332501 
L 272.420922 116.825983 
L 273.413627 116.535484 
L 274.406333 116.483389 
L 275.399039 116.723037 
L 276.391745 117.311357 
L 277.384451 118.385543 
L 278.377157 120.248416 
L 279.369863 123.037047 
L 280.362569 124.429833 
L 281.355275 121.661234 
L 284.333393 107.709107 
L 286.318804 98.489297 
L 287.31151 94.718354 
L 288.304216 91.867445 
L 289.296922 90.062946 
L 290.289628 89.28 
L 291.282334 89.402417 
L 292.27504 90.266571 
L 293.267746 91.70822 
L 294.260452 93.616795 
L 296.245864 98.350848 
L 298.231276 103.911321 
L 300.216687 110.130195 
L 306.172923 129.841359 
L 307.165629 132.63794 
L 308.158335 135.094067 
L 309.151041 137.188826 
L 310.143747 138.95189 
L 311.136453 140.425962 
L 316.099982 146.725037 
L 317.092688 148.463413 
L 318.085394 150.522991 
L 319.0781 152.932847 
L 320.070806 155.737935 
L 322.056218 162.480715 
L 324.04163 169.768046 
L 325.034336 172.586785 
L 326.027041 174.039184 
L 327.019747 173.639215 
L 328.012453 171.536548 
L 329.005159 168.391828 
L 331.983277 157.917221 
L 332.975983 154.961623 
L 333.968689 152.4637 
L 334.961395 150.368092 
L 335.954101 148.675603 
L 336.946807 147.395103 
L 337.939513 146.461021 
L 338.932218 145.874672 
L 339.924924 145.598535 
L 340.91763 145.620246 
L 341.910336 145.91639 
L 342.903042 146.451792 
L 344.888454 148.059818 
L 348.859278 152.024701 
L 349.851984 152.786654 
L 350.84469 153.287263 
L 351.837395 153.515288 
L 352.830101 153.431539 
L 353.822807 153.098055 
L 354.815513 152.591725 
L 358.786337 150.128819 
L 359.779043 149.730817 
L 360.771749 149.538077 
L 361.764455 149.543831 
L 362.757161 149.816477 
L 363.749867 150.379897 
L 364.742572 151.221941 
L 365.735278 152.390113 
L 366.727984 153.896484 
L 367.72069 155.78638 
L 368.713396 158.044166 
L 369.706102 160.766657 
L 370.698808 163.981601 
L 371.691514 167.744805 
L 372.68422 172.11581 
L 373.676926 177.224326 
L 375.662338 189.429122 
L 376.655044 196.036085 
L 377.64775 201.420765 
L 378.640455 203.770689 
L 379.633161 201.713835 
L 380.625867 197.009016 
L 382.611279 186.28472 
L 383.603985 181.780608 
L 384.596691 177.906228 
L 385.589397 174.746974 
L 386.582103 172.115981 
L 387.574809 170.022132 
L 388.567515 168.383081 
L 389.560221 167.081453 
L 390.552927 166.173155 
L 391.545632 165.559434 
L 392.538338 165.184032 
L 393.531044 165.047918 
L 394.52375 165.072915 
L 396.509162 165.519722 
L 402.465398 167.7268 
L 405.443515 168.518906 
L 407.428927 169.101274 
L 409.414339 169.88949 
L 410.407045 170.461465 
L 411.399751 171.171991 
L 413.385163 173.037959 
L 414.377869 174.229099 
L 416.363281 177.136801 
L 418.348692 180.893752 
L 420.334104 185.414898 
L 422.319516 190.764974 
L 425.297634 199.785624 
L 428.275752 208.703846 
L 429.268458 211.155829 
L 430.261163 213.099344 
L 431.253869 214.448099 
L 432.246575 215.176565 
L 433.239281 215.15932 
L 434.231987 214.459717 
L 435.224693 213.248356 
L 437.210105 209.527783 
L 441.180929 199.849178 
L 443.166341 195.08663 
L 445.151752 190.862133 
L 447.137164 187.315858 
L 448.12987 185.789428 
L 449.122576 184.480279 
L 450.115282 183.385961 
L 451.107988 182.466868 
L 452.100694 181.76536 
L 453.0934 181.283804 
L 454.086106 180.976739 
L 455.078812 180.878486 
L 456.071518 180.992878 
L 457.064223 181.27688 
L 458.056929 181.809216 
L 459.049635 182.522243 
L 460.042341 183.407911 
L 461.035047 184.512508 
L 462.027753 185.809349 
L 463.020459 187.31264 
L 465.005871 190.969395 
L 466.991283 195.455996 
L 468.976695 200.954576 
L 470.962106 207.742873 
L 471.954812 211.777024 
L 473.940224 221.520988 
L 474.93293 227.668295 
L 475.925636 234.863181 
L 476.918342 243.410163 
L 478.903754 262.197896 
L 479.89646 264.282 
L 480.889166 256.905152 
L 482.874577 237.460176 
L 483.867283 229.757 
L 484.859989 223.323899 
L 485.852695 217.90003 
L 486.845401 213.347669 
L 487.838107 209.381497 
L 488.830813 206.116402 
L 489.823519 203.304679 
L 490.816225 200.920775 
L 491.808931 198.91453 
L 492.801637 197.334933 
L 493.794343 196.046609 
L 494.787049 195.113132 
L 495.779754 194.47343 
L 496.77246 194.200399 
L 497.765166 194.182724 
L 498.757872 194.467618 
L 499.750578 195.078469 
L 500.743284 196.029129 
L 501.73599 197.238489 
L 502.728696 198.773065 
L 503.721402 200.653792 
L 504.714108 202.859172 
L 505.706814 205.384423 
L 507.692226 211.615027 
L 509.677637 219.129875 
L 511.663049 227.328963 
L 512.655755 230.926815 
L 513.648461 233.827123 
L 514.641167 235.525026 
L 515.633873 235.684929 
L 516.626579 234.678351 
L 517.619285 232.716615 
L 521.590109 224.106329 
L 523.57552 221.015162 
L 524.568226 219.937111 
L 525.560932 219.0366 
L 526.553638 218.312535 
L 528.53905 217.27097 
L 529.531756 216.814079 
L 532.509874 216.047243 
L 535.487991 215.84724 
L 537.473403 216.189148 
L 539.458815 217.467543 
L 540.451521 218.496957 
L 542.436933 221.67654 
L 543.429639 224.09894 
L 544.422345 226.961644 
L 545.415051 230.608838 
L 546.407757 235.195048 
L 547.400463 240.914967 
L 548.393168 248.037673 
L 550.37858 266.671217 
L 551.371286 272.53734 
L 552.363992 267.562879 
L 554.349404 246.349638 
L 555.34211 237.615748 
L 556.334816 230.343074 
L 557.327522 224.515189 
L 558.320228 219.52667 
L 559.312934 215.234159 
L 560.30564 211.717371 
L 561.298345 208.753461 
L 562.291051 206.162263 
L 563.283757 204.12769 
L 564.276463 202.431039 
L 565.269169 201.164285 
L 566.261875 200.229372 
L 567.254581 199.536657 
L 568.247287 199.266989 
L 569.239993 199.194415 
L 570.232699 199.462353 
L 571.225405 200.03094 
L 572.218111 200.87708 
L 573.210817 201.978903 
L 574.203523 203.400066 
L 575.196228 205.129972 
L 576.188934 207.113801 
L 577.18164 209.358913 
L 579.167052 215.041435 
L 580.159758 218.359576 
L 582.14517 226.216219 
L 584.130582 235.991031 
L 585.123288 241.611451 
L 587.1087 254.771967 
L 589.094111 270.85184 
L 590.086817 279.982989 
L 591.079523 287.63333 
L 592.072229 293.522848 
L 593.064935 292.895608 
L 594.057641 288.552401 
L 599.021171 260.711209 
L 601.006582 251.622127 
L 601.999288 247.587942 
L 603.9847 240.581192 
L 605.970112 234.757989 
L 606.962818 232.326167 
L 608.94823 228.376501 
L 610.933642 225.529573 
L 611.926348 224.552061 
L 612.919054 223.921279 
L 613.911759 223.498998 
L 614.904465 223.42287 
L 615.897171 223.500332 
L 616.889877 223.920368 
L 617.882583 224.642683 
L 618.875289 225.699488 
L 619.867995 226.94944 
L 620.860701 228.439609 
L 622.846113 232.55751 
L 623.838819 235.109114 
L 625.824231 241.232146 
L 626.816936 244.839515 
L 628.802348 253.685062 
L 629.795054 258.844607 
L 631.780466 271.320082 
L 632.773172 278.902877 
L 633.765878 287.767373 
L 634.758584 297.734692 
L 636.743996 323.538222 
L 637.736702 332.194129 
L 638.729408 332.787414 
L 640.714819 314.737224 
L 642.700231 302.046777 
L 643.692937 297.238584 
L 646.671055 285.46164 
L 647.663761 282.613398 
L 649.649173 276.12428 
L 650.641879 273.473169 
L 652.627291 268.724405 
L 655.605408 264.21602 
L 656.598114 263.136481 
L 657.59082 262.65257 
L 658.583526 262.355694 
L 659.576232 262.215715 
L 660.568938 262.583965 
L 661.561644 263.361363 
L 662.55435 264.367046 
L 664.539762 266.998108 
L 667.517879 273.129995 
L 669.503291 277.41765 
L 670.495997 279.102701 
L 671.488703 280.553572 
L 672.481409 281.149568 
L 673.474115 280.845579 
L 674.466821 280.128123 
L 676.452233 277.517768 
L 678.437645 274.364877 
L 679.43035 272.982182 
L 680.423056 271.946634 
L 681.415762 271.135305 
L 682.408468 270.550967 
L 683.401174 270.220597 
L 684.39388 270.325467 
L 685.386586 270.875255 
L 686.379292 271.659888 
L 687.371998 272.709882 
L 689.35741 276.203978 
L 690.350116 278.550768 
L 691.342822 281.278425 
L 692.335527 284.45499 
L 694.320939 292.554645 
L 695.313645 297.441048 
L 697.299057 308.948585 
L 699.284469 320.161375 
L 700.277175 322.698692 
L 701.269881 322.186301 
L 702.262587 318.444581 
L 704.247999 309.836168 
L 706.23341 301.769695 
L 708.218822 296.640002 
L 709.211528 294.936032 
L 710.204234 293.55295 
L 711.19694 292.667631 
L 712.189646 292.138105 
L 713.182352 292.371166 
L 714.175058 292.768872 
L 715.167764 293.500767 
L 716.16047 294.664496 
L 718.145882 298.855788 
L 719.138587 301.868265 
L 721.123999 309.402488 
L 723.109411 317.793022 
L 724.102117 320.829936 
L 725.094823 321.346046 
L 726.087529 318.872725 
L 727.080235 314.568818 
L 729.065647 303.716356 
L 731.051059 294.027769 
L 732.043764 289.712427 
L 734.029176 283.630375 
L 735.021882 281.247238 
L 736.014588 279.185328 
L 737.007294 277.781719 
L 738.992706 275.883024 
L 739.985412 275.514292 
L 740.978118 275.513409 
L 741.970824 276.081152 
L 742.96353 276.883381 
L 744.948941 280.053633 
L 745.941647 282.417812 
L 746.934353 285.346134 
L 747.927059 288.858183 
L 748.919765 293.272986 
L 749.912471 298.306426 
L 750.905177 304.261094 
L 752.890589 317.311725 
L 753.883295 320.72883 
L 754.876001 319.664029 
L 755.868707 314.774577 
L 756.861413 308.611079 
L 757.854118 301.657846 
L 759.83953 291.74119 
L 761.824942 284.708373 
L 762.817648 282.007728 
L 763.810354 280.039281 
L 764.80306 278.502088 
L 765.795766 277.545051 
L 766.788472 277.011491 
L 767.781178 276.7845 
L 768.773884 277.033604 
L 769.76659 277.589314 
L 770.759295 278.578447 
L 771.752001 280.023884 
L 772.744707 281.835089 
L 774.730119 286.459213 
L 776.715531 292.234525 
L 778.700943 298.271309 
L 779.693649 300.452073 
L 780.686355 302.089191 
L 781.679061 302.514665 
L 782.671767 302.283516 
L 784.657178 299.136851 
L 786.64259 296.064676 
L 787.635296 294.63882 
L 789.620708 293.096439 
L 790.613414 292.704546 
L 792.598826 293.731621 
L 793.591532 295.042233 
L 795.576944 298.818418 
L 796.56965 301.425966 
L 799.547767 310.669082 
L 800.540473 312.855891 
L 801.533179 313.477112 
L 802.525885 312.511708 
L 804.511297 306.138476 
L 806.496709 297.997207 
L 807.489415 294.358894 
L 809.474827 288.547932 
L 810.467532 286.264125 
L 811.460238 284.386201 
L 812.452944 283.060935 
L 813.44565 282.034482 
L 814.438356 281.446185 
L 815.431062 281.279724 
L 816.423768 281.401975 
L 817.416474 282.115051 
L 818.40918 283.145772 
L 819.401886 284.402108 
L 821.387298 288.926601 
L 822.380004 291.731541 
L 824.365415 299.227404 
L 825.358121 303.768725 
L 827.343533 314.330861 
L 828.336239 318.854338 
L 829.328945 321.458342 
L 830.321651 320.412286 
L 831.314357 316.961791 
L 832.307063 312.710618 
L 834.292475 303.227867 
L 835.285181 299.356877 
L 836.277886 295.995489 
L 837.270592 293.074593 
L 838.263298 290.729407 
L 839.256004 289.041777 
L 840.24871 287.698051 
L 841.241416 286.901496 
L 842.234122 286.384096 
L 843.226828 286.071527 
L 845.21224 286.854549 
L 846.204946 287.827012 
L 847.197652 288.998775 
L 848.190358 290.559558 
L 849.183064 292.559021 
L 850.175769 294.822011 
L 851.168475 297.365373 
L 853.153887 303.407445 
L 856.132005 314.036904 
L 858.117417 319.702266 
L 859.110123 320.706359 
L 860.102829 321.306822 
L 861.095535 320.629441 
L 862.088241 319.634629 
L 863.080946 317.846126 
L 864.073652 316.404908 
L 867.05177 311.43209 
L 870.029888 308.84956 
L 871.022594 308.131451 
L 872.0153 307.575308 
L 874.000712 305.705513 
L 874.993418 305.233556 
L 875.986123 304.452519 
L 876.978829 303.463017 
L 877.971535 302.294786 
L 878.964241 301.544774 
L 879.956947 300.39886 
L 881.942359 298.713913 
L 884.920477 297.517617 
L 885.913183 297.722889 
L 887.898595 298.95924 
L 888.8913 299.770155 
L 889.884006 301.231398 
L 891.869418 305.594982 
L 892.862124 308.969071 
L 893.85483 312.767516 
L 894.847536 317.405822 
L 896.832948 330.696225 
L 897.825654 340.002436 
L 898.81836 352.729073 
L 899.811066 360.646956 
L 900.803772 354.895123 
L 902.789183 332.768325 
L 903.781889 323.688196 
L 904.774595 316.532144 
L 905.767301 310.454236 
L 906.760007 305.760936 
L 907.752713 301.795653 
L 908.745419 298.362866 
L 910.730831 293.502197 
L 911.723537 291.600008 
L 912.716243 290.476633 
L 913.708949 289.590657 
L 914.701655 289.038021 
L 915.69436 289.082245 
L 916.687066 289.457111 
L 917.679772 290.196336 
L 918.672478 291.332526 
L 919.665184 292.792321 
L 920.65789 295.029261 
L 921.650596 297.783122 
L 922.643302 301.015577 
L 923.636008 305.005195 
L 924.628714 309.911548 
L 925.62142 316.327548 
L 926.614126 324.014002 
L 927.606832 334.424374 
L 928.599537 350.187872 
L 929.592243 376.512212 
L 930.584949 431.314936 
L 931.577655 368.988895 
L 932.570361 345.818543 
L 933.563067 332.55615 
L 934.555773 323.243168 
L 935.548479 316.794216 
L 936.541185 311.390471 
L 937.533891 307.199883 
L 938.526597 303.776586 
L 939.519303 301.360804 
L 940.512009 299.254128 
L 941.504714 297.761571 
L 942.49742 296.830794 
L 943.490126 296.212456 
L 944.482832 296.122335 
L 945.475538 296.55475 
L 946.468244 297.294254 
L 948.453656 300.166692 
L 949.446362 302.300435 
L 950.439068 304.81084 
L 951.431774 307.876675 
L 952.42448 311.645228 
L 953.417186 316.268116 
L 954.409891 321.579332 
L 955.402597 327.626509 
L 957.388009 344.832276 
L 959.373421 365.40602 
L 960.366127 367.135947 
L 961.358833 358.953976 
L 962.351539 348.66383 
L 963.344245 339.952765 
L 964.336951 333.064121 
L 966.322363 324.915669 
L 967.315068 322.13897 
L 969.30048 317.981017 
L 970.293186 316.768937 
L 971.285892 315.929311 
L 973.271304 315.282477 
L 974.26401 315.21705 
L 975.256716 315.791312 
L 978.234834 318.30121 
L 980.220246 319.921927 
L 981.212951 320.909422 
L 982.205657 321.177395 
L 983.198363 321.855065 
L 984.191069 322.304226 
L 985.183775 322.251913 
L 987.169187 322.678119 
L 988.161893 323.133413 
L 989.154599 323.147471 
L 990.147305 323.76516 
L 992.132717 325.482054 
L 993.125423 326.861492 
L 994.118128 328.860372 
L 995.110834 331.253848 
L 996.10354 333.960831 
L 998.088952 341.702602 
L 999.081658 346.410598 
L 1001.06707 357.112273 
L 1002.059776 359.486173 
L 1003.052482 360.217162 
L 1004.045188 357.569707 
L 1007.023305 340.307782 
L 1009.008717 331.393674 
L 1010.001423 327.312352 
L 1011.986835 321.650282 
L 1012.979541 319.789683 
L 1013.972247 318.252036 
L 1014.964953 316.925078 
L 1015.957659 316.078473 
L 1016.950365 315.813252 
L 1017.943071 315.971026 
L 1018.935777 316.002772 
L 1019.928482 316.825886 
L 1020.921188 318.02406 
L 1021.913894 319.76419 
L 1023.899306 324.467821 
L 1024.892012 327.629669 
L 1026.877424 336.59085 
L 1027.87013 342.034436 
L 1029.855542 359.445041 
L 1030.848248 371.771973 
L 1031.840954 386.954138 
L 1032.833659 399.619525 
L 1033.826365 388.027908 
L 1034.819071 373.454428 
L 1035.811777 361.512654 
L 1036.804483 353.209687 
L 1037.797189 346.87743 
L 1038.789895 341.983543 
L 1039.782601 337.973165 
L 1040.775307 335.119903 
L 1041.768013 332.683876 
L 1043.753425 329.389374 
L 1044.746131 328.352419 
L 1045.738837 327.900614 
L 1046.731542 327.731418 
L 1047.724248 328.334975 
L 1048.716954 328.759892 
L 1049.70966 330.235817 
L 1050.702366 331.455406 
L 1051.695072 333.085773 
L 1052.687778 333.985777 
L 1053.680484 336.335053 
L 1054.67319 337.71233 
L 1055.665896 340.106564 
L 1056.658602 341.573383 
L 1057.651308 343.773442 
L 1059.636719 347.241885 
L 1060.629425 347.935994 
L 1061.622131 349.199177 
L 1062.614837 351.319976 
L 1063.607543 351.97674 
L 1064.600249 353.073961 
L 1065.592955 354.599624 
L 1066.585661 356.87062 
L 1067.578367 358.035574 
L 1068.571073 360.858254 
L 1069.563779 364.805605 
L 1070.556485 367.416118 
L 1071.549191 374.160137 
L 1072.541896 378.225284 
L 1073.534602 381.341749 
L 1074.527308 380.469943 
L 1075.520014 375.565079 
L 1076.51272 372.015706 
L 1077.505426 364.544431 
L 1079.490838 353.167889 
L 1081.47625 343.923454 
L 1083.461662 336.84161 
L 1084.454368 333.879896 
L 1085.447073 331.363428 
L 1086.439779 329.48268 
L 1087.432485 328.051581 
L 1089.417897 326.443743 
L 1090.410603 326.140085 
L 1091.403309 326.116662 
L 1093.388721 327.677317 
L 1095.374133 330.575414 
L 1097.359545 335.429618 
L 1099.344956 342.276583 
L 1101.330368 352.124178 
L 1103.31578 362.17772 
L 1104.308486 365.159064 
L 1105.301192 363.738744 
L 1106.293898 361.201913 
L 1107.286604 356.70349 
L 1108.27931 350.67359 
L 1109.272016 346.794088 
L 1111.257428 337.5464 
L 1113.242839 331.777918 
L 1114.235545 329.676923 
L 1116.220957 326.384075 
L 1117.213663 325.353621 
L 1118.206369 324.592732 
L 1120.191781 324.849823 
L 1121.184487 324.837887 
L 1123.169899 326.727271 
L 1124.162605 328.14927 
L 1125.15531 329.827502 
L 1126.148016 332.349602 
L 1127.140722 335.289108 
L 1128.133428 337.838306 
L 1132.104252 353.786071 
L 1133.096958 358.281176 
L 1134.089664 363.749177 
L 1135.08237 366.352032 
L 1136.075076 366.596547 
L 1137.067782 365.486983 
L 1138.060487 363.136693 
L 1140.045899 355.979001 
L 1141.038605 353.861455 
L 1142.031311 349.87437 
L 1143.024017 347.813822 
L 1144.016723 345.383821 
L 1145.009429 344.443983 
L 1146.994841 343.005166 
L 1147.987547 342.000655 
L 1148.980253 341.818283 
L 1149.972959 341.953231 
L 1150.965664 341.723856 
L 1151.95837 341.9461 
L 1152.951076 343.591903 
L 1153.943782 344.328009 
L 1154.936488 346.405303 
L 1155.929194 347.916366 
L 1156.9219 349.693579 
L 1157.914606 351.849718 
L 1158.907312 353.249246 
L 1159.900018 356.389877 
L 1160.892724 358.709189 
L 1162.878136 365.433003 
L 1163.870841 368.075932 
L 1164.863547 371.751155 
L 1166.848959 382.045049 
L 1167.841665 385.805914 
L 1169.827077 396.425039 
L 1170.819783 400.098167 
L 1173.797901 392.069227 
L 1174.790607 385.392402 
L 1175.783313 381.1083 
L 1177.768724 370.340867 
L 1178.76143 366.492752 
L 1179.754136 364.132833 
L 1180.746842 360.574304 
L 1181.739548 357.895242 
L 1182.732254 355.835319 
L 1183.72496 353.461959 
L 1184.717666 351.664958 
L 1185.710372 350.134999 
L 1186.703078 349.841065 
L 1187.695784 348.606231 
L 1189.681196 347.439217 
L 1190.673901 347.486592 
L 1191.666607 348.165645 
L 1192.659313 347.842005 
L 1193.652019 348.560757 
L 1195.637431 350.982545 
L 1199.608255 356.11577 
L 1200.600961 359.1904 
L 1201.593667 360.392339 
L 1202.586373 361.983007 
L 1203.579078 364.678719 
L 1204.571784 365.477076 
L 1205.56449 365.82304 
L 1206.557196 365.116861 
L 1207.549902 365.686731 
L 1208.542608 364.02019 
L 1210.52802 362.855184 
L 1211.520726 360.542471 
L 1212.513432 359.836187 
L 1213.506138 357.763733 
L 1214.498844 357.259585 
L 1215.49155 356.031158 
L 1216.484255 356.218252 
L 1217.476961 355.05485 
L 1218.469667 355.378681 
L 1219.462373 354.949052 
L 1220.455079 355.182457 
L 1221.447785 356.771547 
L 1222.440491 357.295948 
L 1223.433197 357.687614 
L 1224.425903 359.588288 
L 1225.418609 361.15113 
L 1226.411315 363.112619 
L 1227.404021 364.729417 
L 1228.396727 367.748618 
L 1229.389432 370.338669 
L 1230.382138 374.463374 
L 1231.374844 377.26307 
L 1232.36755 379.446727 
L 1233.360256 386.726027 
L 1234.352962 392.492346 
L 1236.338374 401.749085 
L 1237.33108 405.776175 
L 1238.323786 420.411818 
L 1239.316492 427.775539 
L 1240.309198 428.431751 
L 1241.301904 460.340545 
L 1242.29461 466.529398 
L 1243.287315 481.166075 
L 1244.280021 491.11483 
L 1245.272727 492.48 
L 1245.272727 492.48 
" clip-path="url(#p92ee25f4b7)" style="fill: none; stroke: #1f77b4; stroke-width: 1.5; stroke-linecap: square"/>
   </g>
   <g id="patch_3">
    <path d="M 180 512.64 
L 180 69.12 
" style="fill: none; stroke: #000000; stroke-width: 0.8; stroke-linejoin: miter; stroke-linecap: square"/>
   </g>
   <g id="patch_4">
    <path d="M 1296 512.64 
L 1296 69.12 
" style="fill: none; stroke: #000000; stroke-width: 0.8; stroke-linejoin: miter; stroke-linecap: square"/>
   </g>
   <g id="patch_5">
    <path d="M 180 512.64 
L 1296 512.64 
" style="fill: none; stroke: #000000; stroke-width: 0.8; stroke-linejoin: miter; stroke-linecap: square"/>
   </g>
   <g id="patch_6">
    <path d="M 180 69.12 
L 1296 69.12 
" style="fill: none; stroke: #000000; stroke-width: 0.8; stroke-linejoin: miter; stroke-linecap: square"/>
   </g>
   <g id="text_13">
    <!-- source5-receiver5 -->
    <g transform="translate(557.625 60.80125) scale(0.4 -0.4)">
     <defs>
      <path id="DejaVuSans-73" d="M 2834 3397 
L 2834 2853 
Q 2591 2978 2328 3040 
Q 2066 3103 1784 3103 
Q 1356 3103 1142 2972 
Q 928 2841 928 2578 
Q 928 2378 1081 2264 
Q 1234 2150 1697 2047 
L 1894 2003 
Q 2506 1872 2764 1633 
Q 3022 1394 3022 966 
Q 3022 478 2636 193 
Q 2250 -91 1575 -91 
Q 1294 -91 989 -36 
Q 684 19 347 128 
L 347 722 
Q 666 556 975 473 
Q 1284 391 1588 391 
Q 1994 391 2212 530 
Q 2431 669 2431 922 
Q 2431 1156 2273 1281 
Q 2116 1406 1581 1522 
L 1381 1569 
Q 847 1681 609 1914 
Q 372 2147 372 2553 
Q 372 3047 722 3315 
Q 1072 3584 1716 3584 
Q 2034 3584 2315 3537 
Q 2597 3491 2834 3397 
z
" transform="scale(0.015625)"/>
      <path id="DejaVuSans-6f" d="M 1959 3097 
Q 1497 3097 1228 2736 
Q 959 2375 959 1747 
Q 959 1119 1226 758 
Q 1494 397 1959 397 
Q 2419 397 2687 759 
Q 2956 1122 2956 1747 
Q 2956 2369 2687 2733 
Q 2419 3097 1959 3097 
z
M 1959 3584 
Q 2709 3584 3137 3096 
Q 3566 2609 3566 1747 
Q 3566 888 3137 398 
Q 2709 -91 1959 -91 
Q 1206 -91 779 398 
Q 353 888 353 1747 
Q 353 2609 779 3096 
Q 1206 3584 1959 3584 
z
" transform="scale(0.015625)"/>
      <path id="DejaVuSans-75" d="M 544 1381 
L 544 3500 
L 1119 3500 
L 1119 1403 
Q 1119 906 1312 657 
Q 1506 409 1894 409 
Q 2359 409 2629 706 
Q 2900 1003 2900 1516 
L 2900 3500 
L 3475 3500 
L 3475 0 
L 2900 0 
L 2900 538 
Q 2691 219 2414 64 
Q 2138 -91 1772 -91 
Q 1169 -91 856 284 
Q 544 659 544 1381 
z
M 1991 3584 
L 1991 3584 
z
" transform="scale(0.015625)"/>
      <path id="DejaVuSans-72" d="M 2631 2963 
Q 2534 3019 2420 3045 
Q 2306 3072 2169 3072 
Q 1681 3072 1420 2755 
Q 1159 2438 1159 1844 
L 1159 0 
L 581 0 
L 581 3500 
L 1159 3500 
L 1159 2956 
Q 1341 3275 1631 3429 
Q 1922 3584 2338 3584 
Q 2397 3584 2469 3576 
Q 2541 3569 2628 3553 
L 2631 2963 
z
" transform="scale(0.015625)"/>
      <path id="DejaVuSans-63" d="M 3122 3366 
L 3122 2828 
Q 2878 2963 2633 3030 
Q 2388 3097 2138 3097 
Q 1578 3097 1268 2742 
Q 959 2388 959 1747 
Q 959 1106 1268 751 
Q 1578 397 2138 397 
Q 2388 397 2633 464 
Q 2878 531 3122 666 
L 3122 134 
Q 2881 22 2623 -34 
Q 2366 -91 2075 -91 
Q 1284 -91 818 406 
Q 353 903 353 1747 
Q 353 2603 823 3093 
Q 1294 3584 2113 3584 
Q 2378 3584 2631 3529 
Q 2884 3475 3122 3366 
z
" transform="scale(0.015625)"/>
      <path id="DejaVuSans-65" d="M 3597 1894 
L 3597 1613 
L 953 1613 
Q 991 1019 1311 708 
Q 1631 397 2203 397 
Q 2534 397 2845 478 
Q 3156 559 3463 722 
L 3463 178 
Q 3153 47 2828 -22 
Q 2503 -91 2169 -91 
Q 1331 -91 842 396 
Q 353 884 353 1716 
Q 353 2575 817 3079 
Q 1281 3584 2069 3584 
Q 2775 3584 3186 3129 
Q 3597 2675 3597 1894 
z
M 3022 2063 
Q 3016 2534 2758 2815 
Q 2500 3097 2075 3097 
Q 1594 3097 1305 2825 
Q 1016 2553 972 2059 
L 3022 2063 
z
" transform="scale(0.015625)"/>
      <path id="DejaVuSans-2d" d="M 313 2009 
L 1997 2009 
L 1997 1497 
L 313 1497 
L 313 2009 
z
" transform="scale(0.015625)"/>
      <path id="DejaVuSans-69" d="M 603 3500 
L 1178 3500 
L 1178 0 
L 603 0 
L 603 3500 
z
M 603 4863 
L 1178 4863 
L 1178 4134 
L 603 4134 
L 603 4863 
z
" transform="scale(0.015625)"/>
      <path id="DejaVuSans-76" d="M 191 3500 
L 800 3500 
L 1894 563 
L 2988 3500 
L 3597 3500 
L 2284 0 
L 1503 0 
L 191 3500 
z
" transform="scale(0.015625)"/>
     </defs>
     <use xlink:href="#DejaVuSans-73"/>
     <use xlink:href="#DejaVuSans-6f" x="52.099609"/>
     <use xlink:href="#DejaVuSans-75" x="113.28125"/>
     <use xlink:href="#DejaVuSans-72" x="176.660156"/>
     <use xlink:href="#DejaVuSans-63" x="215.523438"/>
     <use xlink:href="#DejaVuSans-65" x="270.503906"/>
     <use xlink:href="#DejaVuSans-35" x="332.027344"/>
     <use xlink:href="#DejaVuSans-2d" x="395.650391"/>
     <use xlink:href="#DejaVuSans-72" x="431.734375"/>
     <use xlink:href="#DejaVuSans-65" x="470.597656"/>
     <use xlink:href="#DejaVuSans-63" x="532.121094"/>
     <use xlink:href="#DejaVuSans-65" x="587.101562"/>
     <use xlink:href="#DejaVuSans-69" x="648.625"/>
     <use xlink:href="#DejaVuSans-76" x="676.408203"/>
     <use xlink:href="#DejaVuSans-65" x="735.587891"/>
     <use xlink:href="#DejaVuSans-72" x="797.111328"/>
     <use xlink:href="#DejaVuSans-35" x="838.224609"/>
    </g>
   </g>
  </g>
 </g>
 <defs>
  <clipPath id="p92ee25f4b7">
   <rect x="180" y="69.12" width="1116" height="443.52"/>
  </clipPath>
 </defs>
</svg>
