<?xml version="1.0" encoding="utf-8" standalone="no"?>
<!DOCTYPE svg PUBLIC "-//W3C//DTD SVG 1.1//EN"
  "http://www.w3.org/Graphics/SVG/1.1/DTD/svg11.dtd">
<svg xmlns:xlink="http://www.w3.org/1999/xlink" width="1440pt" height="576pt" viewBox="0 0 1440 576" xmlns="http://www.w3.org/2000/svg" version="1.1">
 <metadata>
  <rdf:RDF xmlns:dc="http://purl.org/dc/elements/1.1/" xmlns:cc="http://creativecommons.org/ns#" xmlns:rdf="http://www.w3.org/1999/02/22-rdf-syntax-ns#">
   <cc:Work>
    <dc:type rdf:resource="http://purl.org/dc/dcmitype/StillImage"/>
    <dc:date>2024-05-22T04:49:41.474445</dc:date>
    <dc:format>image/svg+xml</dc:format>
    <dc:creator>
     <cc:Agent>
      <dc:title>Matplotlib v3.8.3, https://matplotlib.org/</dc:title>
     </cc:Agent>
    </dc:creator>
   </cc:Work>
  </rdf:RDF>
 </metadata>
 <defs>
  <style type="text/css">*{stroke-linejoin: round; stroke-linecap: butt}</style>
 </defs>
 <g id="figure_1">
  <g id="patch_1">
   <path d="M 0 576 
L 1440 576 
L 1440 0 
L 0 0 
z
" style="fill: #ffffff"/>
  </g>
  <g id="axes_1">
   <g id="patch_2">
    <path d="M 180 512.64 
L 1296 512.64 
L 1296 69.12 
L 180 69.12 
z
" style="fill: #ffffff"/>
   </g>
   <g id="matplotlib.axis_1">
    <g id="xtick_1">
     <g id="line2d_1">
      <defs>
       <path id="m3c21efe8ac" d="M 0 0 
L 0 3.5 
" style="stroke: #000000; stroke-width: 0.8"/>
      </defs>
      <g>
       <use xlink:href="#m3c21efe8ac" x="229.734567" y="512.64" style="stroke: #000000; stroke-width: 0.8"/>
      </g>
     </g>
     <g id="text_1">
      <!-- 0 -->
      <g transform="translate(226.553317 527.238438) scale(0.1 -0.1)">
       <defs>
        <path id="DejaVuSans-30" d="M 2034 4250 
Q 1547 4250 1301 3770 
Q 1056 3291 1056 2328 
Q 1056 1369 1301 889 
Q 1547 409 2034 409 
Q 2525 409 2770 889 
Q 3016 1369 3016 2328 
Q 3016 3291 2770 3770 
Q 2525 4250 2034 4250 
z
M 2034 4750 
Q 2819 4750 3233 4129 
Q 3647 3509 3647 2328 
Q 3647 1150 3233 529 
Q 2819 -91 2034 -91 
Q 1250 -91 836 529 
Q 422 1150 422 2328 
Q 422 3509 836 4129 
Q 1250 4750 2034 4750 
z
" transform="scale(0.015625)"/>
       </defs>
       <use xlink:href="#DejaVuSans-30"/>
      </g>
     </g>
    </g>
    <g id="xtick_2">
     <g id="line2d_2">
      <g>
       <use xlink:href="#m3c21efe8ac" x="433.04074" y="512.64" style="stroke: #000000; stroke-width: 0.8"/>
      </g>
     </g>
     <g id="text_2">
      <!-- 500 -->
      <g transform="translate(423.49699 527.238438) scale(0.1 -0.1)">
       <defs>
        <path id="DejaVuSans-35" d="M 691 4666 
L 3169 4666 
L 3169 4134 
L 1269 4134 
L 1269 2991 
Q 1406 3038 1543 3061 
Q 1681 3084 1819 3084 
Q 2600 3084 3056 2656 
Q 3513 2228 3513 1497 
Q 3513 744 3044 326 
Q 2575 -91 1722 -91 
Q 1428 -91 1123 -41 
Q 819 9 494 109 
L 494 744 
Q 775 591 1075 516 
Q 1375 441 1709 441 
Q 2250 441 2565 725 
Q 2881 1009 2881 1497 
Q 2881 1984 2565 2268 
Q 2250 2553 1709 2553 
Q 1456 2553 1204 2497 
Q 953 2441 691 2322 
L 691 4666 
z
" transform="scale(0.015625)"/>
       </defs>
       <use xlink:href="#DejaVuSans-35"/>
       <use xlink:href="#DejaVuSans-30" x="63.623047"/>
       <use xlink:href="#DejaVuSans-30" x="127.246094"/>
      </g>
     </g>
    </g>
    <g id="xtick_3">
     <g id="line2d_3">
      <g>
       <use xlink:href="#m3c21efe8ac" x="636.346913" y="512.64" style="stroke: #000000; stroke-width: 0.8"/>
      </g>
     </g>
     <g id="text_3">
      <!-- 1000 -->
      <g transform="translate(623.621913 527.238438) scale(0.1 -0.1)">
       <defs>
        <path id="DejaVuSans-31" d="M 794 531 
L 1825 531 
L 1825 4091 
L 703 3866 
L 703 4441 
L 1819 4666 
L 2450 4666 
L 2450 531 
L 3481 531 
L 3481 0 
L 794 0 
L 794 531 
z
" transform="scale(0.015625)"/>
       </defs>
       <use xlink:href="#DejaVuSans-31"/>
       <use xlink:href="#DejaVuSans-30" x="63.623047"/>
       <use xlink:href="#DejaVuSans-30" x="127.246094"/>
       <use xlink:href="#DejaVuSans-30" x="190.869141"/>
      </g>
     </g>
    </g>
    <g id="xtick_4">
     <g id="line2d_4">
      <g>
       <use xlink:href="#m3c21efe8ac" x="839.653087" y="512.64" style="stroke: #000000; stroke-width: 0.8"/>
      </g>
     </g>
     <g id="text_4">
      <!-- 1500 -->
      <g transform="translate(826.928087 527.238438) scale(0.1 -0.1)">
       <use xlink:href="#DejaVuSans-31"/>
       <use xlink:href="#DejaVuSans-35" x="63.623047"/>
       <use xlink:href="#DejaVuSans-30" x="127.246094"/>
       <use xlink:href="#DejaVuSans-30" x="190.869141"/>
      </g>
     </g>
    </g>
    <g id="xtick_5">
     <g id="line2d_5">
      <g>
       <use xlink:href="#m3c21efe8ac" x="1042.95926" y="512.64" style="stroke: #000000; stroke-width: 0.8"/>
      </g>
     </g>
     <g id="text_5">
      <!-- 2000 -->
      <g transform="translate(1030.23426 527.238438) scale(0.1 -0.1)">
       <defs>
        <path id="DejaVuSans-32" d="M 1228 531 
L 3431 531 
L 3431 0 
L 469 0 
L 469 531 
Q 828 903 1448 1529 
Q 2069 2156 2228 2338 
Q 2531 2678 2651 2914 
Q 2772 3150 2772 3378 
Q 2772 3750 2511 3984 
Q 2250 4219 1831 4219 
Q 1534 4219 1204 4116 
Q 875 4013 500 3803 
L 500 4441 
Q 881 4594 1212 4672 
Q 1544 4750 1819 4750 
Q 2544 4750 2975 4387 
Q 3406 4025 3406 3419 
Q 3406 3131 3298 2873 
Q 3191 2616 2906 2266 
Q 2828 2175 2409 1742 
Q 1991 1309 1228 531 
z
" transform="scale(0.015625)"/>
       </defs>
       <use xlink:href="#DejaVuSans-32"/>
       <use xlink:href="#DejaVuSans-30" x="63.623047"/>
       <use xlink:href="#DejaVuSans-30" x="127.246094"/>
       <use xlink:href="#DejaVuSans-30" x="190.869141"/>
      </g>
     </g>
    </g>
    <g id="xtick_6">
     <g id="line2d_6">
      <g>
       <use xlink:href="#m3c21efe8ac" x="1246.265433" y="512.64" style="stroke: #000000; stroke-width: 0.8"/>
      </g>
     </g>
     <g id="text_6">
      <!-- 2500 -->
      <g transform="translate(1233.540433 527.238438) scale(0.1 -0.1)">
       <use xlink:href="#DejaVuSans-32"/>
       <use xlink:href="#DejaVuSans-35" x="63.623047"/>
       <use xlink:href="#DejaVuSans-30" x="127.246094"/>
       <use xlink:href="#DejaVuSans-30" x="190.869141"/>
      </g>
     </g>
    </g>
   </g>
   <g id="matplotlib.axis_2">
    <g id="ytick_1">
     <g id="line2d_7">
      <defs>
       <path id="m5070b3bfd4" d="M 0 0 
L -3.5 0 
" style="stroke: #000000; stroke-width: 0.8"/>
      </defs>
      <g>
       <use xlink:href="#m5070b3bfd4" x="180" y="509.88083" style="stroke: #000000; stroke-width: 0.8"/>
      </g>
     </g>
     <g id="text_7">
      <!-- −4 -->
      <g transform="translate(158.257812 513.680048) scale(0.1 -0.1)">
       <defs>
        <path id="DejaVuSans-2212" d="M 678 2272 
L 4684 2272 
L 4684 1741 
L 678 1741 
L 678 2272 
z
" transform="scale(0.015625)"/>
        <path id="DejaVuSans-34" d="M 2419 4116 
L 825 1625 
L 2419 1625 
L 2419 4116 
z
M 2253 4666 
L 3047 4666 
L 3047 1625 
L 3713 1625 
L 3713 1100 
L 3047 1100 
L 3047 0 
L 2419 0 
L 2419 1100 
L 313 1100 
L 313 1709 
L 2253 4666 
z
" transform="scale(0.015625)"/>
       </defs>
       <use xlink:href="#DejaVuSans-2212"/>
       <use xlink:href="#DejaVuSans-34" x="83.789062"/>
      </g>
     </g>
    </g>
    <g id="ytick_2">
     <g id="line2d_8">
      <g>
       <use xlink:href="#m5070b3bfd4" x="180" y="455.237698" style="stroke: #000000; stroke-width: 0.8"/>
      </g>
     </g>
     <g id="text_8">
      <!-- −3 -->
      <g transform="translate(158.257812 459.036917) scale(0.1 -0.1)">
       <defs>
        <path id="DejaVuSans-33" d="M 2597 2516 
Q 3050 2419 3304 2112 
Q 3559 1806 3559 1356 
Q 3559 666 3084 287 
Q 2609 -91 1734 -91 
Q 1441 -91 1130 -33 
Q 819 25 488 141 
L 488 750 
Q 750 597 1062 519 
Q 1375 441 1716 441 
Q 2309 441 2620 675 
Q 2931 909 2931 1356 
Q 2931 1769 2642 2001 
Q 2353 2234 1838 2234 
L 1294 2234 
L 1294 2753 
L 1863 2753 
Q 2328 2753 2575 2939 
Q 2822 3125 2822 3475 
Q 2822 3834 2567 4026 
Q 2313 4219 1838 4219 
Q 1578 4219 1281 4162 
Q 984 4106 628 3988 
L 628 4550 
Q 988 4650 1302 4700 
Q 1616 4750 1894 4750 
Q 2613 4750 3031 4423 
Q 3450 4097 3450 3541 
Q 3450 3153 3228 2886 
Q 3006 2619 2597 2516 
z
" transform="scale(0.015625)"/>
       </defs>
       <use xlink:href="#DejaVuSans-2212"/>
       <use xlink:href="#DejaVuSans-33" x="83.789062"/>
      </g>
     </g>
    </g>
    <g id="ytick_3">
     <g id="line2d_9">
      <g>
       <use xlink:href="#m5070b3bfd4" x="180" y="400.594567" style="stroke: #000000; stroke-width: 0.8"/>
      </g>
     </g>
     <g id="text_9">
      <!-- −2 -->
      <g transform="translate(158.257812 404.393786) scale(0.1 -0.1)">
       <use xlink:href="#DejaVuSans-2212"/>
       <use xlink:href="#DejaVuSans-32" x="83.789062"/>
      </g>
     </g>
    </g>
    <g id="ytick_4">
     <g id="line2d_10">
      <g>
       <use xlink:href="#m5070b3bfd4" x="180" y="345.951436" style="stroke: #000000; stroke-width: 0.8"/>
      </g>
     </g>
     <g id="text_10">
      <!-- −1 -->
      <g transform="translate(158.257812 349.750654) scale(0.1 -0.1)">
       <use xlink:href="#DejaVuSans-2212"/>
       <use xlink:href="#DejaVuSans-31" x="83.789062"/>
      </g>
     </g>
    </g>
    <g id="ytick_5">
     <g id="line2d_11">
      <g>
       <use xlink:href="#m5070b3bfd4" x="180" y="291.308304" style="stroke: #000000; stroke-width: 0.8"/>
      </g>
     </g>
     <g id="text_11">
      <!-- 0 -->
      <g transform="translate(166.6375 295.107523) scale(0.1 -0.1)">
       <use xlink:href="#DejaVuSans-30"/>
      </g>
     </g>
    </g>
    <g id="ytick_6">
     <g id="line2d_12">
      <g>
       <use xlink:href="#m5070b3bfd4" x="180" y="236.665173" style="stroke: #000000; stroke-width: 0.8"/>
      </g>
     </g>
     <g id="text_12">
      <!-- 1 -->
      <g transform="translate(166.6375 240.464392) scale(0.1 -0.1)">
       <use xlink:href="#DejaVuSans-31"/>
      </g>
     </g>
    </g>
    <g id="ytick_7">
     <g id="line2d_13">
      <g>
       <use xlink:href="#m5070b3bfd4" x="180" y="182.022042" style="stroke: #000000; stroke-width: 0.8"/>
      </g>
     </g>
     <g id="text_13">
      <!-- 2 -->
      <g transform="translate(166.6375 185.821261) scale(0.1 -0.1)">
       <use xlink:href="#DejaVuSans-32"/>
      </g>
     </g>
    </g>
    <g id="ytick_8">
     <g id="line2d_14">
      <g>
       <use xlink:href="#m5070b3bfd4" x="180" y="127.378911" style="stroke: #000000; stroke-width: 0.8"/>
      </g>
     </g>
     <g id="text_14">
      <!-- 3 -->
      <g transform="translate(166.6375 131.178129) scale(0.1 -0.1)">
       <use xlink:href="#DejaVuSans-33"/>
      </g>
     </g>
    </g>
    <g id="ytick_9">
     <g id="line2d_15">
      <g>
       <use xlink:href="#m5070b3bfd4" x="180" y="72.735779" style="stroke: #000000; stroke-width: 0.8"/>
      </g>
     </g>
     <g id="text_15">
      <!-- 4 -->
      <g transform="translate(166.6375 76.534998) scale(0.1 -0.1)">
       <use xlink:href="#DejaVuSans-34"/>
      </g>
     </g>
    </g>
   </g>
   <g id="line2d_16">
    <path d="M 230.727273 415.805237 
L 231.719979 413.357019 
L 232.712685 409.570687 
L 233.70539 406.702961 
L 234.698096 402.117841 
L 237.676214 386.370071 
L 238.66892 381.873475 
L 240.654332 371.138458 
L 242.639744 361.551518 
L 243.63245 357.766803 
L 244.625156 350.520389 
L 245.617862 338.923235 
L 246.610568 352.539454 
L 247.603273 348.165297 
L 248.595979 266.261412 
L 249.588685 232.320414 
L 251.574097 210.229552 
L 252.566803 184.300953 
L 253.559509 167.641244 
L 254.552215 172.934304 
L 255.544921 222.365879 
L 256.537627 199.04843 
L 257.530333 149.552041 
L 258.523039 128.183825 
L 259.515745 122.434161 
L 260.50845 134.075494 
L 261.501156 162.611146 
L 263.486568 142.870299 
L 264.479274 163.740425 
L 265.47198 218.304651 
L 266.464686 219.127436 
L 267.457392 267.450692 
L 268.450098 189.227122 
L 269.442804 182.814381 
L 270.43551 229.433092 
L 271.428216 178.269053 
L 272.420922 173.49307 
L 273.413627 224.108572 
L 274.406333 176.883626 
L 275.399039 163.076573 
L 276.391745 156.646863 
L 277.384451 139.091783 
L 278.377157 144.830619 
L 279.369863 139.935385 
L 280.362569 108.797295 
L 281.355275 101.37808 
L 282.347981 118.473316 
L 283.340687 116.700392 
L 284.333393 93.405531 
L 285.326099 93.12696 
L 286.318804 103.71704 
L 287.31151 93.567343 
L 288.304216 89.28 
L 289.296922 107.600802 
L 290.289628 138.163388 
L 291.282334 140.855339 
L 293.267746 178.91689 
L 294.260452 167.780346 
L 295.253158 190.441175 
L 296.245864 225.041285 
L 297.23857 228.011845 
L 298.231276 333.440159 
L 299.223981 250.540499 
L 300.216687 276.498449 
L 301.209393 289.937583 
L 302.202099 268.985528 
L 303.194805 439.026151 
L 304.187511 272.525984 
L 306.172923 315.750262 
L 307.165629 282.617304 
L 308.158335 325.939506 
L 309.151041 321.834093 
L 310.143747 310.046277 
L 311.136453 322.654822 
L 312.129159 320.453864 
L 313.121864 326.673418 
L 314.11457 320.367685 
L 315.107276 326.930802 
L 316.099982 332.247273 
L 317.092688 332.534257 
L 318.085394 334.751165 
L 319.0781 329.519074 
L 320.070806 332.774683 
L 321.063512 332.508809 
L 322.056218 339.228319 
L 323.048924 339.075891 
L 324.04163 334.70084 
L 325.034336 346.472622 
L 326.027041 340.645371 
L 327.019747 344.735784 
L 328.012453 342.569492 
L 329.005159 341.457766 
L 329.997865 345.077815 
L 330.990571 337.380814 
L 331.983277 346.724683 
L 332.975983 349.663583 
L 333.968689 344.712548 
L 334.961395 350.718889 
L 335.954101 361.307705 
L 336.946807 353.968554 
L 337.939513 352.765967 
L 338.932218 355.463603 
L 339.924924 355.674416 
L 340.91763 352.179122 
L 341.910336 347.797567 
L 342.903042 348.491484 
L 343.895748 353.862624 
L 344.888454 357.918796 
L 345.88116 357.87605 
L 346.873866 352.763661 
L 347.866572 366.015452 
L 348.859278 352.076928 
L 349.851984 360.199694 
L 350.84469 361.211497 
L 351.837395 359.946739 
L 352.830101 359.086203 
L 353.822807 361.376193 
L 354.815513 360.456817 
L 355.808219 355.410773 
L 356.800925 367.683897 
L 357.793631 366.54119 
L 358.786337 360.012672 
L 359.779043 359.926829 
L 360.771749 373.061977 
L 361.764455 365.45159 
L 362.757161 361.68158 
L 363.749867 365.759657 
L 364.742572 358.817286 
L 365.735278 374.325229 
L 366.727984 369.493121 
L 367.72069 363.393148 
L 368.713396 360.063187 
L 369.706102 359.725104 
L 370.698808 382.699781 
L 371.691514 366.140669 
L 372.68422 389.524058 
L 373.676926 352.013941 
L 374.669632 380.852975 
L 375.662338 366.890327 
L 376.655044 376.074212 
L 377.64775 379.677106 
L 378.640455 382.068301 
L 379.633161 381.171272 
L 380.625867 380.735328 
L 381.618573 363.975768 
L 382.611279 386.485796 
L 383.603985 377.229565 
L 384.596691 379.13823 
L 385.589397 380.004136 
L 386.582103 381.395379 
L 387.574809 369.24298 
L 388.567515 378.858858 
L 389.560221 379.616553 
L 390.552927 391.359559 
L 391.545632 372.682968 
L 392.538338 389.933106 
L 393.531044 384.657323 
L 394.52375 377.163908 
L 395.516456 397.629367 
L 396.509162 376.606558 
L 397.501868 378.714765 
L 398.494574 368.719082 
L 399.48728 393.808935 
L 400.479986 387.579538 
L 401.472692 374.857845 
L 402.465398 395.020481 
L 403.458104 376.0214 
L 404.450809 396.696605 
L 405.443515 384.875858 
L 406.436221 403.668377 
L 407.428927 397.314804 
L 408.421633 389.512961 
L 409.414339 386.9972 
L 410.407045 375.133523 
L 411.399751 390.535983 
L 412.392457 375.077432 
L 413.385163 392.693045 
L 414.377869 398.210144 
L 415.370575 397.659521 
L 416.363281 395.546019 
L 417.355986 391.289867 
L 418.348692 401.916245 
L 419.341398 389.260095 
L 420.334104 406.367786 
L 421.32681 388.069642 
L 422.319516 407.541144 
L 423.312222 400.656201 
L 424.304928 381.27249 
L 425.297634 387.905762 
L 426.29034 401.83377 
L 427.283046 392.434606 
L 428.275752 373.649014 
L 429.268458 414.292813 
L 430.261163 371.260684 
L 431.253869 489.464496 
L 432.246575 375.755944 
L 433.239281 420.419657 
L 434.231987 386.829468 
L 435.224693 388.630585 
L 436.217399 399.386795 
L 437.210105 374.840742 
L 438.202811 405.480811 
L 439.195517 395.553767 
L 440.188223 394.142882 
L 441.180929 383.629729 
L 442.173635 389.722419 
L 443.166341 415.284118 
L 444.159046 398.805197 
L 445.151752 396.783618 
L 446.144458 413.978211 
L 448.12987 398.11959 
L 449.122576 398.711449 
L 450.115282 406.242115 
L 451.107988 396.220926 
L 452.100694 400.636861 
L 453.0934 399.654355 
L 454.086106 404.684658 
L 455.078812 399.15891 
L 456.071518 415.466801 
L 457.064223 409.394908 
L 458.056929 407.242962 
L 459.049635 403.330145 
L 460.042341 404.217367 
L 461.035047 406.130917 
L 462.027753 405.600921 
L 463.020459 408.141008 
L 464.013165 406.170683 
L 465.005871 415.999865 
L 465.998577 395.699409 
L 466.991283 414.985437 
L 467.983989 413.663903 
L 468.976695 410.890982 
L 469.9694 400.427686 
L 470.962106 402.263561 
L 471.954812 407.829395 
L 473.940224 416.05585 
L 474.93293 413.316349 
L 475.925636 403.299147 
L 476.918342 413.325605 
L 477.911048 413.305357 
L 478.903754 400.43401 
L 479.89646 407.197426 
L 480.889166 395.928208 
L 481.881872 396.774807 
L 482.874577 412.679357 
L 483.867283 412.285862 
L 484.859989 396.282124 
L 485.852695 390.44065 
L 486.845401 405.235249 
L 487.838107 396.992579 
L 488.830813 416.213161 
L 489.823519 402.028755 
L 490.816225 397.098248 
L 491.808931 403.960885 
L 492.801637 382.364082 
L 493.794343 402.872118 
L 494.787049 410.61934 
L 495.779754 411.825008 
L 496.77246 399.038631 
L 497.765166 391.662967 
L 498.757872 398.966082 
L 499.750578 418.629968 
L 500.743284 403.803331 
L 501.73599 407.791797 
L 502.728696 416.113156 
L 503.721402 407.485523 
L 504.714108 403.301811 
L 505.706814 403.201427 
L 506.69952 409.279148 
L 507.692226 433.641022 
L 508.684932 401.047335 
L 509.677637 403.097634 
L 510.670343 425.495745 
L 511.663049 404.485981 
L 512.655755 409.701164 
L 513.648461 403.511817 
L 514.641167 418.205216 
L 515.633873 411.853429 
L 516.626579 412.978826 
L 517.619285 401.350299 
L 518.611991 388.254407 
L 519.604697 401.998389 
L 520.597403 395.454459 
L 521.590109 440.398463 
L 522.582814 390.100745 
L 523.57552 418.0835 
L 524.568226 391.569982 
L 525.560932 394.687503 
L 526.553638 455.088268 
L 527.546344 417.004679 
L 528.53905 409.761262 
L 529.531756 433.560312 
L 530.524462 433.909907 
L 531.517168 413.429721 
L 532.509874 413.358196 
L 533.50258 411.402534 
L 534.495286 411.720774 
L 535.487991 406.125504 
L 536.480697 397.696043 
L 537.473403 427.188149 
L 538.466109 414.224586 
L 539.458815 408.086639 
L 540.451521 431.497283 
L 541.444227 411.977016 
L 542.436933 465.189115 
L 543.429639 398.137344 
L 544.422345 436.43915 
L 545.415051 388.713809 
L 546.407757 439.125508 
L 547.400463 394.193459 
L 548.393168 415.879915 
L 549.385874 413.036878 
L 550.37858 419.054032 
L 551.371286 453.267017 
L 552.363992 423.853591 
L 553.356698 419.584575 
L 554.349404 407.881149 
L 555.34211 422.674683 
L 556.334816 426.190058 
L 557.327522 414.702191 
L 558.320228 420.792164 
L 559.312934 447.629747 
L 560.30564 416.529794 
L 561.298345 459.336175 
L 562.291051 432.640105 
L 563.283757 430.732867 
L 564.276463 473.192423 
L 565.269169 426.74922 
L 566.261875 426.122173 
L 567.254581 425.942879 
L 568.247287 413.168744 
L 569.239993 449.783102 
L 570.232699 433.972605 
L 571.225405 443.861427 
L 572.218111 433.274331 
L 573.210817 446.805426 
L 574.203523 440.654532 
L 575.196228 407.941127 
L 576.188934 481.491457 
L 577.18164 410.842743 
L 578.174346 492.48 
L 579.167052 435.360765 
L 580.159758 421.555285 
L 581.152464 418.266396 
L 582.14517 411.210983 
L 583.137876 416.522777 
L 584.130582 425.730684 
L 585.123288 430.322197 
L 586.115994 432.648415 
L 587.1087 437.399414 
L 588.101405 427.762523 
L 589.094111 437.709768 
L 590.086817 398.383447 
L 591.079523 426.575739 
L 592.072229 438.164211 
L 593.064935 413.684308 
L 594.057641 435.735863 
L 595.050347 411.642358 
L 596.043053 435.604866 
L 597.035759 405.396944 
L 598.028465 420.687759 
L 599.021171 455.97129 
L 600.013877 439.987692 
L 601.006582 439.444831 
L 601.999288 427.894235 
L 602.991994 432.135939 
L 603.9847 417.475735 
L 604.977406 418.596701 
L 605.970112 430.641266 
L 606.962818 436.252324 
L 607.955524 419.714892 
L 608.94823 418.343474 
L 609.940936 442.856234 
L 610.933642 443.114062 
L 611.926348 441.377114 
L 613.911759 416.406721 
L 614.904465 436.116814 
L 615.897171 433.396674 
L 616.889877 429.446153 
L 617.882583 432.956364 
L 618.875289 440.359864 
L 619.867995 431.799901 
L 620.860701 437.022695 
L 621.853407 430.323838 
L 622.846113 422.519624 
L 623.838819 434.970872 
L 624.831525 438.664101 
L 625.824231 438.939778 
L 626.816936 431.656671 
L 627.809642 431.490573 
L 628.802348 430.077736 
L 629.795054 447.481912 
L 630.78776 435.682635 
L 631.780466 433.27576 
L 632.773172 428.474758 
L 633.765878 442.195472 
L 634.758584 445.018921 
L 635.75129 435.024214 
L 636.743996 431.234206 
L 637.736702 430.475177 
L 638.729408 428.121117 
L 639.722114 433.996321 
L 640.714819 434.199804 
L 641.707525 440.806095 
L 642.700231 441.917899 
L 643.692937 438.145006 
L 644.685643 431.436215 
L 645.678349 438.277228 
L 646.671055 440.223705 
L 647.663761 437.422249 
L 648.656467 440.067791 
L 649.649173 436.689676 
L 650.641879 431.218461 
L 651.634585 442.403421 
L 652.627291 438.066978 
L 653.619996 431.067165 
L 654.612702 435.211409 
L 655.605408 434.799919 
L 656.598114 436.112489 
L 657.59082 434.103156 
L 658.583526 436.780437 
L 659.576232 433.549678 
L 660.568938 439.334497 
L 661.561644 436.887962 
L 662.55435 441.497835 
L 663.547056 435.760244 
L 664.539762 433.630884 
L 665.532468 439.776062 
L 666.525173 437.478754 
L 667.517879 433.944207 
L 668.510585 434.487323 
L 669.503291 436.887087 
L 670.495997 437.457212 
L 671.488703 441.286935 
L 672.481409 438.678076 
L 673.474115 437.69816 
L 674.466821 437.807358 
L 675.459527 437.67742 
L 676.452233 442.919964 
L 677.444939 437.450928 
L 678.437645 438.621079 
L 679.43035 440.855712 
L 680.423056 436.567646 
L 681.415762 439.07457 
L 682.408468 440.510909 
L 683.401174 438.465085 
L 684.39388 440.855715 
L 685.386586 440.851193 
L 686.379292 442.078877 
L 687.371998 439.300566 
L 688.364704 438.88453 
L 689.35741 439.997725 
L 690.350116 439.890318 
L 691.342822 437.4414 
L 692.335527 439.695984 
L 694.320939 436.783383 
L 695.313645 442.160852 
L 696.306351 439.957595 
L 697.299057 441.846929 
L 698.291763 439.809578 
L 699.284469 439.479802 
L 700.277175 438.808544 
L 701.269881 439.617265 
L 702.262587 442.013796 
L 703.255293 441.954885 
L 704.247999 439.758526 
L 705.240705 440.482915 
L 706.23341 441.036957 
L 707.226116 441.815844 
L 708.218822 440.164544 
L 709.211528 443.381912 
L 710.204234 442.117578 
L 711.19694 443.964032 
L 712.189646 441.752432 
L 713.182352 441.214399 
L 714.175058 440.501933 
L 715.167764 445.463956 
L 716.16047 440.019533 
L 717.153176 442.862089 
L 718.145882 441.502815 
L 719.138587 443.032945 
L 720.131293 443.171882 
L 721.123999 443.600173 
L 722.116705 441.511973 
L 723.109411 444.356904 
L 724.102117 444.796038 
L 725.094823 442.356317 
L 726.087529 443.229215 
L 727.080235 443.185803 
L 728.072941 445.421053 
L 729.065647 444.092574 
L 730.058353 445.238258 
L 731.051059 442.263973 
L 732.043764 446.007451 
L 733.03647 442.179629 
L 734.029176 444.821792 
L 735.021882 441.664675 
L 736.014588 444.284163 
L 737.007294 444.10121 
L 738 444.888187 
L 738.992706 442.979487 
L 739.985412 445.106914 
L 740.978118 444.879455 
L 741.970824 443.778406 
L 742.96353 446.13975 
L 743.956236 444.80642 
L 744.948941 444.66489 
L 745.941647 445.801532 
L 746.934353 445.153623 
L 747.927059 446.202595 
L 748.919765 446.520724 
L 749.912471 445.850014 
L 750.905177 446.891148 
L 751.897883 443.344186 
L 752.890589 445.916202 
L 753.883295 446.265343 
L 754.876001 446.084125 
L 755.868707 445.70224 
L 757.854118 446.207053 
L 758.846824 446.438108 
L 759.83953 446.491676 
L 760.832236 445.164667 
L 761.824942 446.310649 
L 762.817648 446.732621 
L 763.810354 446.035442 
L 764.80306 447.90648 
L 765.795766 444.363092 
L 766.788472 446.963237 
L 767.781178 445.940048 
L 768.773884 447.156711 
L 769.76659 446.981943 
L 770.759295 446.690102 
L 771.752001 447.855066 
L 772.744707 446.908714 
L 773.737413 447.262229 
L 774.730119 449.704395 
L 775.722825 445.624711 
L 776.715531 447.76539 
L 777.708237 447.196937 
L 778.700943 446.76028 
L 779.693649 446.704179 
L 780.686355 448.763928 
L 781.679061 448.121793 
L 782.671767 448.382721 
L 783.664473 449.052719 
L 784.657178 447.704429 
L 785.649884 446.875201 
L 786.64259 448.909139 
L 787.635296 449.127171 
L 788.628002 447.805561 
L 789.620708 447.491297 
L 790.613414 446.914023 
L 791.60612 448.477552 
L 792.598826 448.820498 
L 793.591532 448.000584 
L 794.584238 448.076066 
L 795.576944 449.022151 
L 796.56965 448.187228 
L 797.562355 449.989988 
L 798.555061 448.222868 
L 800.540473 449.114094 
L 801.533179 450.589398 
L 802.525885 448.513007 
L 803.518591 448.563171 
L 804.511297 449.385097 
L 805.504003 449.100005 
L 806.496709 450.513865 
L 807.489415 449.909943 
L 808.482121 449.924896 
L 809.474827 448.246352 
L 810.467532 450.731437 
L 811.460238 449.565498 
L 812.452944 450.104385 
L 813.44565 451.319852 
L 814.438356 449.610271 
L 815.431062 451.528551 
L 816.423768 449.757221 
L 817.416474 452.073902 
L 818.40918 449.712425 
L 819.401886 451.58294 
L 820.394592 451.995292 
L 821.387298 450.955401 
L 822.380004 450.464979 
L 823.372709 451.07621 
L 824.365415 452.911338 
L 825.358121 450.093969 
L 826.350827 451.3091 
L 827.343533 450.695073 
L 828.336239 452.863429 
L 829.328945 450.724171 
L 830.321651 451.654771 
L 831.314357 451.446904 
L 832.307063 452.163034 
L 833.299769 451.87928 
L 835.285181 450.664918 
L 836.277886 450.931679 
L 837.270592 452.630943 
L 838.263298 451.946598 
L 839.256004 451.465207 
L 841.241416 452.04335 
L 842.234122 453.193053 
L 843.226828 450.37993 
L 844.219534 452.290453 
L 845.21224 452.770922 
L 846.204946 449.600236 
L 847.197652 452.501818 
L 848.190358 450.99084 
L 849.183064 454.505758 
L 850.175769 452.038041 
L 851.168475 452.374429 
L 852.161181 452.006707 
L 853.153887 451.987246 
L 854.146593 451.386514 
L 855.139299 452.527279 
L 856.132005 452.003215 
L 857.124711 452.755536 
L 858.117417 452.624818 
L 859.110123 453.224662 
L 860.102829 455.251801 
L 861.095535 451.990967 
L 862.088241 454.186286 
L 863.080946 452.999758 
L 864.073652 452.835791 
L 865.066358 454.071347 
L 866.059064 452.881184 
L 867.05177 453.601703 
L 868.044476 453.912181 
L 869.037182 453.625255 
L 870.029888 453.876337 
L 871.022594 453.337184 
L 872.0153 454.067713 
L 873.008006 453.810098 
L 874.000712 453.712825 
L 874.993418 455.170729 
L 875.986123 452.462312 
L 876.978829 454.816473 
L 877.971535 455.25704 
L 878.964241 453.601318 
L 879.956947 454.767261 
L 880.949653 452.261925 
L 881.942359 453.415651 
L 882.935065 456.044904 
L 883.927771 454.84798 
L 884.920477 454.140572 
L 885.913183 453.83433 
L 887.898595 455.205939 
L 888.8913 456.104952 
L 889.884006 454.599367 
L 891.869418 454.884695 
L 893.85483 455.170523 
L 894.847536 453.308149 
L 895.840242 454.09506 
L 896.832948 454.240212 
L 897.825654 456.745188 
L 898.81836 454.9213 
L 899.811066 456.440753 
L 900.803772 454.396681 
L 901.796477 455.480501 
L 902.789183 455.298419 
L 903.781889 454.712134 
L 904.774595 454.775681 
L 905.767301 454.073003 
L 906.760007 456.665683 
L 907.752713 456.610789 
L 908.745419 455.607757 
L 909.738125 456.22525 
L 910.730831 455.511794 
L 911.723537 456.37116 
L 912.716243 457.059179 
L 913.708949 456.061663 
L 914.701655 455.488396 
L 915.69436 455.920101 
L 916.687066 456.865138 
L 917.679772 456.069849 
L 918.672478 457.193555 
L 919.665184 457.202023 
L 920.65789 458.333696 
L 921.650596 455.419975 
L 922.643302 457.050391 
L 923.636008 456.797912 
L 924.628714 458.406062 
L 926.614126 454.720214 
L 927.606832 456.59265 
L 928.599537 459.438653 
L 929.592243 459.056639 
L 930.584949 457.663814 
L 931.577655 459.109411 
L 932.570361 457.640061 
L 933.563067 457.106055 
L 934.555773 457.680582 
L 935.548479 455.62581 
L 936.541185 455.273249 
L 937.533891 456.563851 
L 939.519303 458.336548 
L 940.512009 457.119727 
L 941.504714 456.410733 
L 942.49742 457.479485 
L 943.490126 457.460737 
L 944.482832 457.795491 
L 945.475538 457.592064 
L 946.468244 458.857773 
L 947.46095 456.905953 
L 948.453656 457.525773 
L 949.446362 459.341899 
L 950.439068 457.541583 
L 951.431774 456.169699 
L 952.42448 457.361281 
L 953.417186 457.106422 
L 954.409891 457.499855 
L 955.402597 459.555009 
L 956.395303 459.172127 
L 957.388009 458.074083 
L 958.380715 456.660733 
L 959.373421 456.091005 
L 960.366127 459.46589 
L 961.358833 457.973329 
L 962.351539 459.089904 
L 963.344245 457.464106 
L 964.336951 457.419214 
L 965.329657 458.540038 
L 966.322363 458.2212 
L 967.315068 457.503318 
L 968.307774 459.858669 
L 969.30048 457.177171 
L 970.293186 458.523158 
L 971.285892 456.797805 
L 972.278598 458.145071 
L 973.271304 458.84565 
L 974.26401 458.543628 
L 975.256716 459.564143 
L 976.249422 457.449493 
L 977.242128 458.211223 
L 978.234834 459.868816 
L 979.22754 459.069146 
L 980.220246 459.696804 
L 981.212951 459.017739 
L 982.205657 457.697272 
L 983.198363 457.799185 
L 984.191069 458.153484 
L 985.183775 457.963721 
L 986.176481 460.756011 
L 987.169187 459.701558 
L 988.161893 458.355966 
L 989.154599 459.789429 
L 990.147305 460.369141 
L 991.140011 457.35642 
L 992.132717 458.821445 
L 993.125423 459.701839 
L 995.110834 459.873543 
L 996.10354 457.814261 
L 997.096246 458.852858 
L 998.088952 460.752587 
L 999.081658 459.237561 
L 1000.074364 460.011734 
L 1001.06707 459.753824 
L 1002.059776 458.793458 
L 1003.052482 459.028229 
L 1004.045188 459.417313 
L 1005.037894 461.839007 
L 1006.0306 460.690654 
L 1007.023305 460.440062 
L 1008.016011 460.799046 
L 1009.008717 458.713752 
L 1010.001423 459.779079 
L 1010.994129 462.001958 
L 1011.986835 459.639424 
L 1012.979541 460.495366 
L 1014.964953 458.979041 
L 1015.957659 462.684864 
L 1016.950365 459.578297 
L 1017.943071 458.905427 
L 1018.935777 459.727938 
L 1019.928482 460.70219 
L 1020.921188 460.775927 
L 1021.913894 459.98687 
L 1022.9066 459.728737 
L 1023.899306 459.127616 
L 1024.892012 459.565925 
L 1025.884718 460.596745 
L 1026.877424 460.548838 
L 1027.87013 459.607307 
L 1028.862836 459.60139 
L 1029.855542 461.080792 
L 1030.848248 460.506586 
L 1031.840954 460.287693 
L 1032.833659 459.648268 
L 1033.826365 460.706221 
L 1034.819071 462.072939 
L 1035.811777 460.726414 
L 1036.804483 462.21048 
L 1037.797189 459.727551 
L 1038.789895 459.682466 
L 1039.782601 461.421097 
L 1040.775307 461.222127 
L 1041.768013 462.839772 
L 1042.760719 460.323181 
L 1043.753425 460.023778 
L 1044.746131 459.992842 
L 1045.738837 460.815691 
L 1046.731542 459.507211 
L 1047.724248 460.539312 
L 1048.716954 461.227977 
L 1049.70966 460.425477 
L 1050.702366 462.383829 
L 1051.695072 461.472014 
L 1052.687778 461.41177 
L 1054.67319 459.014742 
L 1055.665896 461.522189 
L 1056.658602 461.761636 
L 1057.651308 460.99811 
L 1058.644014 460.634623 
L 1060.629425 461.731753 
L 1061.622131 461.326356 
L 1062.614837 458.708202 
L 1063.607543 463.383348 
L 1064.600249 462.001181 
L 1065.592955 461.325702 
L 1066.585661 462.964964 
L 1067.578367 460.62616 
L 1068.571073 462.75195 
L 1069.563779 461.123055 
L 1070.556485 458.649382 
L 1071.549191 463.041963 
L 1073.534602 459.731302 
L 1074.527308 461.777162 
L 1075.520014 460.885866 
L 1076.51272 464.006868 
L 1077.505426 461.260968 
L 1078.498132 463.278381 
L 1079.490838 461.745789 
L 1080.483544 461.677125 
L 1081.47625 462.19802 
L 1082.468956 461.46192 
L 1083.461662 462.997131 
L 1084.454368 461.072532 
L 1085.447073 461.472172 
L 1086.439779 462.462368 
L 1087.432485 461.111476 
L 1088.425191 461.776148 
L 1089.417897 463.350551 
L 1090.410603 464.002972 
L 1091.403309 461.003506 
L 1092.396015 462.02855 
L 1093.388721 462.084692 
L 1094.381427 462.365722 
L 1095.374133 461.516076 
L 1096.366839 462.449613 
L 1097.359545 463.547112 
L 1098.35225 462.560436 
L 1100.337662 462.320996 
L 1101.330368 460.981299 
L 1102.323074 461.318449 
L 1103.31578 462.963697 
L 1104.308486 462.677165 
L 1105.301192 461.897521 
L 1106.293898 464.199223 
L 1107.286604 461.888905 
L 1108.27931 462.605497 
L 1109.272016 462.437769 
L 1110.264722 462.675884 
L 1111.257428 462.771747 
L 1112.250133 463.4212 
L 1113.242839 461.794774 
L 1114.235545 464.531711 
L 1115.228251 462.69261 
L 1116.220957 462.304912 
L 1117.213663 462.086386 
L 1118.206369 462.777446 
L 1119.199075 461.025442 
L 1120.191781 462.103926 
L 1121.184487 460.961582 
L 1122.177193 464.082993 
L 1123.169899 461.72939 
L 1124.162605 461.138123 
L 1125.15531 461.161716 
L 1126.148016 463.388215 
L 1127.140722 464.930813 
L 1128.133428 463.190891 
L 1129.126134 463.493003 
L 1130.11884 463.386188 
L 1131.111546 462.745598 
L 1132.104252 461.921395 
L 1133.096958 462.912958 
L 1134.089664 462.972499 
L 1135.08237 463.746375 
L 1136.075076 463.818639 
L 1137.067782 462.853638 
L 1138.060487 463.338431 
L 1139.053193 460.269968 
L 1140.045899 463.485508 
L 1141.038605 462.658161 
L 1142.031311 463.395047 
L 1143.024017 460.427127 
L 1144.016723 464.206235 
L 1145.009429 461.421738 
L 1146.002135 463.225756 
L 1146.994841 464.522619 
L 1147.987547 464.391731 
L 1148.980253 462.649651 
L 1149.972959 463.869043 
L 1150.965664 463.079956 
L 1151.95837 465.353482 
L 1152.951076 462.097854 
L 1153.943782 462.20017 
L 1154.936488 463.553234 
L 1155.929194 463.591365 
L 1156.9219 463.35798 
L 1157.914606 463.451076 
L 1158.907312 462.35627 
L 1159.900018 464.969699 
L 1160.892724 463.599492 
L 1161.88543 462.577069 
L 1162.878136 463.285623 
L 1163.870841 461.827314 
L 1164.863547 463.480721 
L 1165.856253 463.261081 
L 1166.848959 463.226034 
L 1167.841665 462.752511 
L 1168.834371 464.141594 
L 1169.827077 461.460416 
L 1170.819783 462.447139 
L 1171.812489 463.664906 
L 1172.805195 462.847235 
L 1173.797901 463.180298 
L 1174.790607 462.826415 
L 1175.783313 462.23389 
L 1176.776019 463.554525 
L 1177.768724 462.420377 
L 1178.76143 462.124523 
L 1179.754136 465.119639 
L 1180.746842 463.122155 
L 1181.739548 462.992564 
L 1182.732254 461.542927 
L 1183.72496 463.714884 
L 1184.717666 462.500602 
L 1185.710372 461.80187 
L 1186.703078 463.043196 
L 1187.695784 461.567857 
L 1188.68849 464.655014 
L 1189.681196 463.238743 
L 1190.673901 463.171096 
L 1191.666607 463.385398 
L 1192.659313 462.091276 
L 1193.652019 463.311663 
L 1194.644725 463.550676 
L 1195.637431 464.550792 
L 1196.630137 462.708651 
L 1197.622843 465.624025 
L 1198.615549 461.662625 
L 1199.608255 464.102101 
L 1200.600961 465.724694 
L 1201.593667 463.732058 
L 1202.586373 463.470241 
L 1203.579078 464.114601 
L 1204.571784 465.81199 
L 1205.56449 463.292741 
L 1206.557196 464.497893 
L 1207.549902 464.270674 
L 1208.542608 463.523374 
L 1209.535314 462.552161 
L 1210.52802 462.570435 
L 1211.520726 463.683952 
L 1212.513432 462.073304 
L 1213.506138 464.001125 
L 1214.498844 463.409033 
L 1215.49155 463.628938 
L 1216.484255 462.361992 
L 1217.476961 462.928701 
L 1218.469667 463.930773 
L 1219.462373 461.030629 
L 1220.455079 464.015019 
L 1221.447785 464.222862 
L 1222.440491 466.148611 
L 1224.425903 463.170508 
L 1225.418609 466.029142 
L 1226.411315 463.340996 
L 1227.404021 464.923136 
L 1228.396727 462.414968 
L 1229.389432 463.449885 
L 1230.382138 463.552998 
L 1232.36755 462.380104 
L 1233.360256 462.81463 
L 1234.352962 463.668562 
L 1235.345668 462.711188 
L 1236.338374 463.628068 
L 1237.33108 463.999966 
L 1239.316492 463.780926 
L 1240.309198 464.40367 
L 1241.301904 463.475147 
L 1242.29461 462.363166 
L 1243.287315 463.238838 
L 1244.280021 463.136355 
L 1245.272727 464.291498 
L 1245.272727 464.291498 
" clip-path="url(#p21382cd0be)" style="fill: none; stroke: #1f77b4; stroke-width: 1.5; stroke-linecap: square"/>
   </g>
   <g id="patch_3">
    <path d="M 180 512.64 
L 180 69.12 
" style="fill: none; stroke: #000000; stroke-width: 0.8; stroke-linejoin: miter; stroke-linecap: square"/>
   </g>
   <g id="patch_4">
    <path d="M 1296 512.64 
L 1296 69.12 
" style="fill: none; stroke: #000000; stroke-width: 0.8; stroke-linejoin: miter; stroke-linecap: square"/>
   </g>
   <g id="patch_5">
    <path d="M 180 512.64 
L 1296 512.64 
" style="fill: none; stroke: #000000; stroke-width: 0.8; stroke-linejoin: miter; stroke-linecap: square"/>
   </g>
   <g id="patch_6">
    <path d="M 180 69.12 
L 1296 69.12 
" style="fill: none; stroke: #000000; stroke-width: 0.8; stroke-linejoin: miter; stroke-linecap: square"/>
   </g>
   <g id="text_16">
    <!-- source2-receiver14 -->
    <g transform="translate(544.9 60.80125) scale(0.4 -0.4)">
     <defs>
      <path id="DejaVuSans-73" d="M 2834 3397 
L 2834 2853 
Q 2591 2978 2328 3040 
Q 2066 3103 1784 3103 
Q 1356 3103 1142 2972 
Q 928 2841 928 2578 
Q 928 2378 1081 2264 
Q 1234 2150 1697 2047 
L 1894 2003 
Q 2506 1872 2764 1633 
Q 3022 1394 3022 966 
Q 3022 478 2636 193 
Q 2250 -91 1575 -91 
Q 1294 -91 989 -36 
Q 684 19 347 128 
L 347 722 
Q 666 556 975 473 
Q 1284 391 1588 391 
Q 1994 391 2212 530 
Q 2431 669 2431 922 
Q 2431 1156 2273 1281 
Q 2116 1406 1581 1522 
L 1381 1569 
Q 847 1681 609 1914 
Q 372 2147 372 2553 
Q 372 3047 722 3315 
Q 1072 3584 1716 3584 
Q 2034 3584 2315 3537 
Q 2597 3491 2834 3397 
z
" transform="scale(0.015625)"/>
      <path id="DejaVuSans-6f" d="M 1959 3097 
Q 1497 3097 1228 2736 
Q 959 2375 959 1747 
Q 959 1119 1226 758 
Q 1494 397 1959 397 
Q 2419 397 2687 759 
Q 2956 1122 2956 1747 
Q 2956 2369 2687 2733 
Q 2419 3097 1959 3097 
z
M 1959 3584 
Q 2709 3584 3137 3096 
Q 3566 2609 3566 1747 
Q 3566 888 3137 398 
Q 2709 -91 1959 -91 
Q 1206 -91 779 398 
Q 353 888 353 1747 
Q 353 2609 779 3096 
Q 1206 3584 1959 3584 
z
" transform="scale(0.015625)"/>
      <path id="DejaVuSans-75" d="M 544 1381 
L 544 3500 
L 1119 3500 
L 1119 1403 
Q 1119 906 1312 657 
Q 1506 409 1894 409 
Q 2359 409 2629 706 
Q 2900 1003 2900 1516 
L 2900 3500 
L 3475 3500 
L 3475 0 
L 2900 0 
L 2900 538 
Q 2691 219 2414 64 
Q 2138 -91 1772 -91 
Q 1169 -91 856 284 
Q 544 659 544 1381 
z
M 1991 3584 
L 1991 3584 
z
" transform="scale(0.015625)"/>
      <path id="DejaVuSans-72" d="M 2631 2963 
Q 2534 3019 2420 3045 
Q 2306 3072 2169 3072 
Q 1681 3072 1420 2755 
Q 1159 2438 1159 1844 
L 1159 0 
L 581 0 
L 581 3500 
L 1159 3500 
L 1159 2956 
Q 1341 3275 1631 3429 
Q 1922 3584 2338 3584 
Q 2397 3584 2469 3576 
Q 2541 3569 2628 3553 
L 2631 2963 
z
" transform="scale(0.015625)"/>
      <path id="DejaVuSans-63" d="M 3122 3366 
L 3122 2828 
Q 2878 2963 2633 3030 
Q 2388 3097 2138 3097 
Q 1578 3097 1268 2742 
Q 959 2388 959 1747 
Q 959 1106 1268 751 
Q 1578 397 2138 397 
Q 2388 397 2633 464 
Q 2878 531 3122 666 
L 3122 134 
Q 2881 22 2623 -34 
Q 2366 -91 2075 -91 
Q 1284 -91 818 406 
Q 353 903 353 1747 
Q 353 2603 823 3093 
Q 1294 3584 2113 3584 
Q 2378 3584 2631 3529 
Q 2884 3475 3122 3366 
z
" transform="scale(0.015625)"/>
      <path id="DejaVuSans-65" d="M 3597 1894 
L 3597 1613 
L 953 1613 
Q 991 1019 1311 708 
Q 1631 397 2203 397 
Q 2534 397 2845 478 
Q 3156 559 3463 722 
L 3463 178 
Q 3153 47 2828 -22 
Q 2503 -91 2169 -91 
Q 1331 -91 842 396 
Q 353 884 353 1716 
Q 353 2575 817 3079 
Q 1281 3584 2069 3584 
Q 2775 3584 3186 3129 
Q 3597 2675 3597 1894 
z
M 3022 2063 
Q 3016 2534 2758 2815 
Q 2500 3097 2075 3097 
Q 1594 3097 1305 2825 
Q 1016 2553 972 2059 
L 3022 2063 
z
" transform="scale(0.015625)"/>
      <path id="DejaVuSans-2d" d="M 313 2009 
L 1997 2009 
L 1997 1497 
L 313 1497 
L 313 2009 
z
" transform="scale(0.015625)"/>
      <path id="DejaVuSans-69" d="M 603 3500 
L 1178 3500 
L 1178 0 
L 603 0 
L 603 3500 
z
M 603 4863 
L 1178 4863 
L 1178 4134 
L 603 4134 
L 603 4863 
z
" transform="scale(0.015625)"/>
      <path id="DejaVuSans-76" d="M 191 3500 
L 800 3500 
L 1894 563 
L 2988 3500 
L 3597 3500 
L 2284 0 
L 1503 0 
L 191 3500 
z
" transform="scale(0.015625)"/>
     </defs>
     <use xlink:href="#DejaVuSans-73"/>
     <use xlink:href="#DejaVuSans-6f" x="52.099609"/>
     <use xlink:href="#DejaVuSans-75" x="113.28125"/>
     <use xlink:href="#DejaVuSans-72" x="176.660156"/>
     <use xlink:href="#DejaVuSans-63" x="215.523438"/>
     <use xlink:href="#DejaVuSans-65" x="270.503906"/>
     <use xlink:href="#DejaVuSans-32" x="332.027344"/>
     <use xlink:href="#DejaVuSans-2d" x="395.650391"/>
     <use xlink:href="#DejaVuSans-72" x="431.734375"/>
     <use xlink:href="#DejaVuSans-65" x="470.597656"/>
     <use xlink:href="#DejaVuSans-63" x="532.121094"/>
     <use xlink:href="#DejaVuSans-65" x="587.101562"/>
     <use xlink:href="#DejaVuSans-69" x="648.625"/>
     <use xlink:href="#DejaVuSans-76" x="676.408203"/>
     <use xlink:href="#DejaVuSans-65" x="735.587891"/>
     <use xlink:href="#DejaVuSans-72" x="797.111328"/>
     <use xlink:href="#DejaVuSans-31" x="838.224609"/>
     <use xlink:href="#DejaVuSans-34" x="901.847656"/>
    </g>
   </g>
  </g>
 </g>
 <defs>
  <clipPath id="p21382cd0be">
   <rect x="180" y="69.12" width="1116" height="443.52"/>
  </clipPath>
 </defs>
</svg>
