<?xml version="1.0" encoding="utf-8" standalone="no"?>
<!DOCTYPE svg PUBLIC "-//W3C//DTD SVG 1.1//EN"
  "http://www.w3.org/Graphics/SVG/1.1/DTD/svg11.dtd">
<svg xmlns:xlink="http://www.w3.org/1999/xlink" width="1440pt" height="576pt" viewBox="0 0 1440 576" xmlns="http://www.w3.org/2000/svg" version="1.1">
 <metadata>
  <rdf:RDF xmlns:dc="http://purl.org/dc/elements/1.1/" xmlns:cc="http://creativecommons.org/ns#" xmlns:rdf="http://www.w3.org/1999/02/22-rdf-syntax-ns#">
   <cc:Work>
    <dc:type rdf:resource="http://purl.org/dc/dcmitype/StillImage"/>
    <dc:date>2024-05-22T04:49:41.730728</dc:date>
    <dc:format>image/svg+xml</dc:format>
    <dc:creator>
     <cc:Agent>
      <dc:title>Matplotlib v3.8.3, https://matplotlib.org/</dc:title>
     </cc:Agent>
    </dc:creator>
   </cc:Work>
  </rdf:RDF>
 </metadata>
 <defs>
  <style type="text/css">*{stroke-linejoin: round; stroke-linecap: butt}</style>
 </defs>
 <g id="figure_1">
  <g id="patch_1">
   <path d="M 0 576 
L 1440 576 
L 1440 0 
L 0 0 
z
" style="fill: #ffffff"/>
  </g>
  <g id="axes_1">
   <g id="patch_2">
    <path d="M 180 512.64 
L 1296 512.64 
L 1296 69.12 
L 180 69.12 
z
" style="fill: #ffffff"/>
   </g>
   <g id="matplotlib.axis_1">
    <g id="xtick_1">
     <g id="line2d_1">
      <defs>
       <path id="m86dacf294f" d="M 0 0 
L 0 3.5 
" style="stroke: #000000; stroke-width: 0.8"/>
      </defs>
      <g>
       <use xlink:href="#m86dacf294f" x="229.734567" y="512.64" style="stroke: #000000; stroke-width: 0.8"/>
      </g>
     </g>
     <g id="text_1">
      <!-- 0 -->
      <g transform="translate(226.553317 527.238438) scale(0.1 -0.1)">
       <defs>
        <path id="DejaVuSans-30" d="M 2034 4250 
Q 1547 4250 1301 3770 
Q 1056 3291 1056 2328 
Q 1056 1369 1301 889 
Q 1547 409 2034 409 
Q 2525 409 2770 889 
Q 3016 1369 3016 2328 
Q 3016 3291 2770 3770 
Q 2525 4250 2034 4250 
z
M 2034 4750 
Q 2819 4750 3233 4129 
Q 3647 3509 3647 2328 
Q 3647 1150 3233 529 
Q 2819 -91 2034 -91 
Q 1250 -91 836 529 
Q 422 1150 422 2328 
Q 422 3509 836 4129 
Q 1250 4750 2034 4750 
z
" transform="scale(0.015625)"/>
       </defs>
       <use xlink:href="#DejaVuSans-30"/>
      </g>
     </g>
    </g>
    <g id="xtick_2">
     <g id="line2d_2">
      <g>
       <use xlink:href="#m86dacf294f" x="433.04074" y="512.64" style="stroke: #000000; stroke-width: 0.8"/>
      </g>
     </g>
     <g id="text_2">
      <!-- 500 -->
      <g transform="translate(423.49699 527.238438) scale(0.1 -0.1)">
       <defs>
        <path id="DejaVuSans-35" d="M 691 4666 
L 3169 4666 
L 3169 4134 
L 1269 4134 
L 1269 2991 
Q 1406 3038 1543 3061 
Q 1681 3084 1819 3084 
Q 2600 3084 3056 2656 
Q 3513 2228 3513 1497 
Q 3513 744 3044 326 
Q 2575 -91 1722 -91 
Q 1428 -91 1123 -41 
Q 819 9 494 109 
L 494 744 
Q 775 591 1075 516 
Q 1375 441 1709 441 
Q 2250 441 2565 725 
Q 2881 1009 2881 1497 
Q 2881 1984 2565 2268 
Q 2250 2553 1709 2553 
Q 1456 2553 1204 2497 
Q 953 2441 691 2322 
L 691 4666 
z
" transform="scale(0.015625)"/>
       </defs>
       <use xlink:href="#DejaVuSans-35"/>
       <use xlink:href="#DejaVuSans-30" x="63.623047"/>
       <use xlink:href="#DejaVuSans-30" x="127.246094"/>
      </g>
     </g>
    </g>
    <g id="xtick_3">
     <g id="line2d_3">
      <g>
       <use xlink:href="#m86dacf294f" x="636.346913" y="512.64" style="stroke: #000000; stroke-width: 0.8"/>
      </g>
     </g>
     <g id="text_3">
      <!-- 1000 -->
      <g transform="translate(623.621913 527.238438) scale(0.1 -0.1)">
       <defs>
        <path id="DejaVuSans-31" d="M 794 531 
L 1825 531 
L 1825 4091 
L 703 3866 
L 703 4441 
L 1819 4666 
L 2450 4666 
L 2450 531 
L 3481 531 
L 3481 0 
L 794 0 
L 794 531 
z
" transform="scale(0.015625)"/>
       </defs>
       <use xlink:href="#DejaVuSans-31"/>
       <use xlink:href="#DejaVuSans-30" x="63.623047"/>
       <use xlink:href="#DejaVuSans-30" x="127.246094"/>
       <use xlink:href="#DejaVuSans-30" x="190.869141"/>
      </g>
     </g>
    </g>
    <g id="xtick_4">
     <g id="line2d_4">
      <g>
       <use xlink:href="#m86dacf294f" x="839.653087" y="512.64" style="stroke: #000000; stroke-width: 0.8"/>
      </g>
     </g>
     <g id="text_4">
      <!-- 1500 -->
      <g transform="translate(826.928087 527.238438) scale(0.1 -0.1)">
       <use xlink:href="#DejaVuSans-31"/>
       <use xlink:href="#DejaVuSans-35" x="63.623047"/>
       <use xlink:href="#DejaVuSans-30" x="127.246094"/>
       <use xlink:href="#DejaVuSans-30" x="190.869141"/>
      </g>
     </g>
    </g>
    <g id="xtick_5">
     <g id="line2d_5">
      <g>
       <use xlink:href="#m86dacf294f" x="1042.95926" y="512.64" style="stroke: #000000; stroke-width: 0.8"/>
      </g>
     </g>
     <g id="text_5">
      <!-- 2000 -->
      <g transform="translate(1030.23426 527.238438) scale(0.1 -0.1)">
       <defs>
        <path id="DejaVuSans-32" d="M 1228 531 
L 3431 531 
L 3431 0 
L 469 0 
L 469 531 
Q 828 903 1448 1529 
Q 2069 2156 2228 2338 
Q 2531 2678 2651 2914 
Q 2772 3150 2772 3378 
Q 2772 3750 2511 3984 
Q 2250 4219 1831 4219 
Q 1534 4219 1204 4116 
Q 875 4013 500 3803 
L 500 4441 
Q 881 4594 1212 4672 
Q 1544 4750 1819 4750 
Q 2544 4750 2975 4387 
Q 3406 4025 3406 3419 
Q 3406 3131 3298 2873 
Q 3191 2616 2906 2266 
Q 2828 2175 2409 1742 
Q 1991 1309 1228 531 
z
" transform="scale(0.015625)"/>
       </defs>
       <use xlink:href="#DejaVuSans-32"/>
       <use xlink:href="#DejaVuSans-30" x="63.623047"/>
       <use xlink:href="#DejaVuSans-30" x="127.246094"/>
       <use xlink:href="#DejaVuSans-30" x="190.869141"/>
      </g>
     </g>
    </g>
    <g id="xtick_6">
     <g id="line2d_6">
      <g>
       <use xlink:href="#m86dacf294f" x="1246.265433" y="512.64" style="stroke: #000000; stroke-width: 0.8"/>
      </g>
     </g>
     <g id="text_6">
      <!-- 2500 -->
      <g transform="translate(1233.540433 527.238438) scale(0.1 -0.1)">
       <use xlink:href="#DejaVuSans-32"/>
       <use xlink:href="#DejaVuSans-35" x="63.623047"/>
       <use xlink:href="#DejaVuSans-30" x="127.246094"/>
       <use xlink:href="#DejaVuSans-30" x="190.869141"/>
      </g>
     </g>
    </g>
   </g>
   <g id="matplotlib.axis_2">
    <g id="ytick_1">
     <g id="line2d_7">
      <defs>
       <path id="m719266e6d2" d="M 0 0 
L -3.5 0 
" style="stroke: #000000; stroke-width: 0.8"/>
      </defs>
      <g>
       <use xlink:href="#m719266e6d2" x="180" y="458.941395" style="stroke: #000000; stroke-width: 0.8"/>
      </g>
     </g>
     <g id="text_7">
      <!-- −4 -->
      <g transform="translate(158.257812 462.740614) scale(0.1 -0.1)">
       <defs>
        <path id="DejaVuSans-2212" d="M 678 2272 
L 4684 2272 
L 4684 1741 
L 678 1741 
L 678 2272 
z
" transform="scale(0.015625)"/>
        <path id="DejaVuSans-34" d="M 2419 4116 
L 825 1625 
L 2419 1625 
L 2419 4116 
z
M 2253 4666 
L 3047 4666 
L 3047 1625 
L 3713 1625 
L 3713 1100 
L 3047 1100 
L 3047 0 
L 2419 0 
L 2419 1100 
L 313 1100 
L 313 1709 
L 2253 4666 
z
" transform="scale(0.015625)"/>
       </defs>
       <use xlink:href="#DejaVuSans-2212"/>
       <use xlink:href="#DejaVuSans-34" x="83.789062"/>
      </g>
     </g>
    </g>
    <g id="ytick_2">
     <g id="line2d_8">
      <g>
       <use xlink:href="#m719266e6d2" x="180" y="371.212014" style="stroke: #000000; stroke-width: 0.8"/>
      </g>
     </g>
     <g id="text_8">
      <!-- −2 -->
      <g transform="translate(158.257812 375.011233) scale(0.1 -0.1)">
       <use xlink:href="#DejaVuSans-2212"/>
       <use xlink:href="#DejaVuSans-32" x="83.789062"/>
      </g>
     </g>
    </g>
    <g id="ytick_3">
     <g id="line2d_9">
      <g>
       <use xlink:href="#m719266e6d2" x="180" y="283.482633" style="stroke: #000000; stroke-width: 0.8"/>
      </g>
     </g>
     <g id="text_9">
      <!-- 0 -->
      <g transform="translate(166.6375 287.281852) scale(0.1 -0.1)">
       <use xlink:href="#DejaVuSans-30"/>
      </g>
     </g>
    </g>
    <g id="ytick_4">
     <g id="line2d_10">
      <g>
       <use xlink:href="#m719266e6d2" x="180" y="195.753252" style="stroke: #000000; stroke-width: 0.8"/>
      </g>
     </g>
     <g id="text_10">
      <!-- 2 -->
      <g transform="translate(166.6375 199.552471) scale(0.1 -0.1)">
       <use xlink:href="#DejaVuSans-32"/>
      </g>
     </g>
    </g>
    <g id="ytick_5">
     <g id="line2d_11">
      <g>
       <use xlink:href="#m719266e6d2" x="180" y="108.023871" style="stroke: #000000; stroke-width: 0.8"/>
      </g>
     </g>
     <g id="text_11">
      <!-- 4 -->
      <g transform="translate(166.6375 111.82309) scale(0.1 -0.1)">
       <use xlink:href="#DejaVuSans-34"/>
      </g>
     </g>
    </g>
   </g>
   <g id="line2d_12">
    <path d="M 230.727273 321.421079 
L 231.719979 321.33726 
L 232.712685 321.042698 
L 233.70539 320.896363 
L 234.698096 320.156937 
L 235.690802 319.592409 
L 236.683508 318.649812 
L 237.676214 317.874894 
L 238.66892 316.676104 
L 239.661626 315.197681 
L 240.654332 313.924391 
L 241.647038 312.25748 
L 242.639744 310.307508 
L 243.63245 307.807604 
L 244.625156 303.568276 
L 245.617862 302.10143 
L 246.610568 302.72812 
L 248.595979 253.78918 
L 249.588685 248.841927 
L 250.581391 302.722612 
L 251.574097 239.106304 
L 252.566803 199.589547 
L 253.559509 189.29018 
L 254.552215 208.174927 
L 255.544921 250.13974 
L 256.537627 176.731732 
L 257.530333 158.668839 
L 258.523039 163.511135 
L 259.515745 197.866441 
L 260.50845 189.503759 
L 261.501156 165.597369 
L 262.493862 173.097514 
L 263.486568 229.588731 
L 264.479274 205.782769 
L 265.47198 189.534158 
L 266.464686 216.673953 
L 267.457392 225.599297 
L 268.450098 198.526297 
L 269.442804 198.856455 
L 270.43551 200.146172 
L 271.428216 218.514842 
L 272.420922 230.939006 
L 273.413627 176.204076 
L 274.406333 166.054397 
L 275.399039 189.030523 
L 276.391745 202.202249 
L 277.384451 158.072459 
L 279.369863 115.2022 
L 280.362569 99.484753 
L 281.355275 93.757371 
L 282.347981 96.0567 
L 283.340687 97.247398 
L 284.333393 91.168672 
L 285.326099 89.28 
L 286.318804 98.244719 
L 287.31151 116.717338 
L 288.304216 128.469897 
L 289.296922 137.11156 
L 290.289628 166.034693 
L 291.282334 179.101822 
L 292.27504 159.288754 
L 293.267746 164.362547 
L 295.253158 207.449844 
L 296.245864 202.922664 
L 297.23857 205.937568 
L 298.231276 212.739279 
L 299.223981 222.173101 
L 300.216687 274.603993 
L 301.209393 236.72661 
L 302.202099 221.969975 
L 303.194805 246.148824 
L 304.187511 267.217943 
L 305.180217 244.221539 
L 306.172923 262.614931 
L 307.165629 285.24807 
L 308.158335 290.820221 
L 309.151041 359.967117 
L 310.143747 319.163641 
L 311.136453 323.685341 
L 312.129159 325.227006 
L 313.121864 332.985093 
L 314.11457 336.978707 
L 315.107276 340.329717 
L 316.099982 341.739911 
L 317.092688 342.118655 
L 318.085394 350.15994 
L 319.0781 335.884525 
L 320.070806 338.723984 
L 321.063512 347.901047 
L 322.056218 339.260671 
L 323.048924 338.932904 
L 324.04163 342.526383 
L 325.034336 358.032743 
L 326.027041 358.446286 
L 327.019747 349.635265 
L 328.012453 351.163319 
L 329.005159 355.141945 
L 329.997865 348.64121 
L 330.990571 353.372086 
L 331.983277 350.999743 
L 333.968689 374.483275 
L 334.961395 344.128749 
L 335.954101 354.766008 
L 336.946807 390.894431 
L 337.939513 345.039819 
L 338.932218 353.650973 
L 339.924924 359.219361 
L 340.91763 392.222346 
L 341.910336 352.157326 
L 342.903042 366.259637 
L 343.895748 360.091943 
L 344.888454 352.139309 
L 345.88116 370.537217 
L 346.873866 356.511579 
L 347.866572 365.056226 
L 348.859278 361.85774 
L 349.851984 367.891408 
L 350.84469 387.720104 
L 351.837395 376.313311 
L 352.830101 355.769701 
L 353.822807 359.013912 
L 354.815513 371.216376 
L 355.808219 353.666041 
L 356.800925 402.45566 
L 357.793631 369.068431 
L 358.786337 368.587298 
L 359.779043 397.608255 
L 360.771749 369.675146 
L 361.764455 365.926777 
L 362.757161 358.921041 
L 363.749867 364.605782 
L 364.742572 380.376737 
L 365.735278 373.186904 
L 366.727984 385.643152 
L 367.72069 378.014888 
L 368.713396 378.010819 
L 369.706102 379.039555 
L 370.698808 376.553786 
L 371.691514 370.139935 
L 372.68422 492.48 
L 373.676926 376.709579 
L 374.669632 368.677364 
L 375.662338 363.253586 
L 376.655044 384.463219 
L 377.64775 384.150531 
L 378.640455 369.723242 
L 379.633161 398.137349 
L 380.625867 381.477263 
L 381.618573 374.83715 
L 382.611279 395.103014 
L 383.603985 401.600523 
L 384.596691 381.96762 
L 385.589397 394.387019 
L 386.582103 376.37704 
L 387.574809 388.710396 
L 388.567515 384.458957 
L 389.560221 388.397062 
L 390.552927 408.704609 
L 391.545632 378.851148 
L 392.538338 393.488646 
L 393.531044 376.731066 
L 394.52375 372.15958 
L 395.516456 410.177738 
L 396.509162 380.881076 
L 397.501868 415.043986 
L 398.494574 375.92325 
L 399.48728 384.164436 
L 400.479986 391.320721 
L 401.472692 377.919655 
L 402.465398 390.906882 
L 403.458104 360.337668 
L 404.450809 421.017971 
L 405.443515 377.28753 
L 406.436221 400.036009 
L 407.428927 442.07948 
L 408.421633 404.867826 
L 409.414339 385.660922 
L 410.407045 410.033128 
L 411.399751 378.916781 
L 412.392457 398.251303 
L 413.385163 378.571289 
L 414.377869 369.070966 
L 415.370575 397.857971 
L 416.363281 383.000562 
L 417.355986 398.922792 
L 418.348692 399.012507 
L 419.341398 369.6901 
L 420.334104 399.433767 
L 421.32681 374.206119 
L 422.319516 386.441365 
L 423.312222 389.03208 
L 424.304928 411.075139 
L 425.297634 394.648744 
L 426.29034 380.512884 
L 427.283046 398.501368 
L 428.275752 378.485535 
L 429.268458 436.02014 
L 430.261163 376.964921 
L 431.253869 401.181415 
L 432.246575 371.475471 
L 433.239281 387.076832 
L 434.231987 396.072517 
L 435.224693 387.318581 
L 436.217399 410.637911 
L 437.210105 378.021487 
L 438.202811 396.182396 
L 439.195517 397.520574 
L 440.188223 393.31034 
L 441.180929 417.209456 
L 442.173635 383.541068 
L 443.166341 411.720844 
L 444.159046 390.072397 
L 445.151752 409.634567 
L 446.144458 403.473984 
L 447.137164 386.583073 
L 448.12987 425.72735 
L 449.122576 382.572268 
L 450.115282 386.465261 
L 451.107988 380.158991 
L 452.100694 393.668329 
L 453.0934 434.101312 
L 454.086106 384.534248 
L 455.078812 394.619125 
L 456.071518 418.556363 
L 457.064223 374.445709 
L 458.056929 402.188361 
L 459.049635 416.461292 
L 460.042341 404.621906 
L 461.035047 386.847345 
L 462.027753 405.516761 
L 463.020459 410.021858 
L 464.013165 397.587374 
L 465.005871 393.101643 
L 465.998577 410.951691 
L 466.991283 400.978602 
L 467.983989 447.28493 
L 468.976695 378.40751 
L 469.9694 420.493202 
L 470.962106 383.504485 
L 471.954812 396.329741 
L 472.947518 402.134631 
L 473.940224 395.491179 
L 474.93293 399.840387 
L 475.925636 412.16484 
L 476.918342 399.270073 
L 477.911048 412.438846 
L 478.903754 404.26402 
L 479.89646 409.444009 
L 480.889166 410.361156 
L 481.881872 402.911882 
L 482.874577 465.096952 
L 483.867283 406.336855 
L 484.859989 396.635735 
L 485.852695 392.086417 
L 486.845401 409.406145 
L 487.838107 397.19071 
L 488.830813 413.440161 
L 489.823519 402.833251 
L 490.816225 389.754476 
L 491.808931 385.966433 
L 492.801637 431.195582 
L 493.794343 400.542312 
L 494.787049 408.044944 
L 495.779754 402.1453 
L 496.77246 436.315189 
L 497.765166 400.346234 
L 498.757872 400.987859 
L 499.750578 389.400556 
L 500.743284 466.470832 
L 501.73599 456.925901 
L 502.728696 391.12445 
L 503.721402 408.51516 
L 504.714108 413.790478 
L 505.706814 395.22661 
L 506.69952 407.913868 
L 507.692226 399.164577 
L 508.684932 397.0831 
L 509.677637 394.058747 
L 510.670343 399.962458 
L 511.663049 413.810745 
L 512.655755 416.381062 
L 513.648461 419.611648 
L 514.641167 399.799289 
L 516.626579 405.504684 
L 517.619285 400.539964 
L 518.611991 381.969107 
L 519.604697 459.932913 
L 520.597403 431.105358 
L 521.590109 417.675672 
L 522.582814 385.488026 
L 523.57552 427.677748 
L 524.568226 394.764584 
L 525.560932 390.19996 
L 526.553638 430.236124 
L 527.546344 429.939753 
L 528.53905 406.941656 
L 529.531756 459.062539 
L 530.524462 440.158021 
L 531.517168 430.800607 
L 532.509874 430.042255 
L 533.50258 382.828254 
L 534.495286 419.513023 
L 535.487991 426.926956 
L 536.480697 413.633946 
L 537.473403 403.692823 
L 538.466109 437.28504 
L 539.458815 414.314026 
L 540.451521 428.855683 
L 541.444227 401.00392 
L 542.436933 449.30656 
L 543.429639 394.252811 
L 544.422345 459.309196 
L 545.415051 370.893271 
L 546.407757 402.535745 
L 547.400463 387.967789 
L 548.393168 395.53306 
L 549.385874 406.483952 
L 550.37858 379.495237 
L 551.371286 463.170223 
L 552.363992 431.74313 
L 553.356698 466.687778 
L 554.349404 422.299036 
L 555.34211 386.433147 
L 556.334816 425.445976 
L 557.327522 418.73108 
L 558.320228 414.818871 
L 559.312934 443.865831 
L 560.30564 404.630107 
L 561.298345 398.434707 
L 562.291051 405.393396 
L 563.283757 418.409161 
L 564.276463 408.462188 
L 565.269169 420.870161 
L 566.261875 410.215405 
L 567.254581 453.929839 
L 568.247287 394.087681 
L 569.239993 393.27255 
L 570.232699 402.221738 
L 571.225405 392.718559 
L 572.218111 406.206409 
L 573.210817 447.651293 
L 574.203523 432.201311 
L 575.196228 423.224818 
L 576.188934 448.48486 
L 577.18164 405.622318 
L 578.174346 447.607548 
L 579.167052 420.768061 
L 580.159758 436.484598 
L 581.152464 429.989392 
L 582.14517 395.585049 
L 583.137876 467.73667 
L 584.130582 431.217297 
L 585.123288 404.366541 
L 586.115994 425.693605 
L 587.1087 400.785224 
L 588.101405 405.248948 
L 589.094111 420.309128 
L 590.086817 415.382543 
L 591.079523 423.819734 
L 592.072229 398.211128 
L 593.064935 406.434031 
L 594.057641 420.382691 
L 595.050347 402.863364 
L 596.043053 413.746949 
L 597.035759 414.120328 
L 598.028465 439.55404 
L 599.021171 419.185299 
L 600.013877 421.876316 
L 601.006582 397.653417 
L 601.999288 411.372796 
L 602.991994 440.765892 
L 603.9847 441.68547 
L 604.977406 396.372964 
L 605.970112 403.079671 
L 606.962818 403.904105 
L 607.955524 430.135807 
L 608.94823 401.070756 
L 609.940936 440.411716 
L 610.933642 412.598472 
L 611.926348 438.170105 
L 612.919054 421.30485 
L 613.911759 454.476505 
L 614.904465 406.884618 
L 615.897171 436.522262 
L 616.889877 426.562127 
L 617.882583 411.509141 
L 618.875289 411.15823 
L 619.867995 428.638455 
L 620.860701 410.549798 
L 621.853407 434.966498 
L 622.846113 423.958591 
L 623.838819 432.141775 
L 624.831525 428.616712 
L 625.824231 417.706975 
L 626.816936 413.941785 
L 627.809642 429.568581 
L 628.802348 442.137309 
L 629.795054 424.899827 
L 630.78776 416.104466 
L 631.780466 410.887244 
L 632.773172 439.6001 
L 633.765878 424.453043 
L 634.758584 432.223011 
L 635.75129 446.108814 
L 636.743996 433.562687 
L 637.736702 428.349502 
L 638.729408 417.297443 
L 640.714819 439.380645 
L 641.707525 430.920516 
L 642.700231 432.535322 
L 643.692937 416.791374 
L 644.685643 426.232974 
L 645.678349 426.395801 
L 646.671055 418.621445 
L 647.663761 437.930807 
L 648.656467 451.357596 
L 649.649173 432.713421 
L 650.641879 434.392959 
L 652.627291 420.794622 
L 653.619996 430.096123 
L 654.612702 435.047333 
L 655.605408 430.234363 
L 656.598114 436.075768 
L 657.59082 424.250257 
L 658.583526 434.621266 
L 659.576232 435.411586 
L 660.568938 425.939442 
L 661.561644 434.846673 
L 662.55435 439.346718 
L 663.547056 435.533321 
L 664.539762 425.350486 
L 665.532468 427.930595 
L 666.525173 425.11189 
L 668.510585 437.905024 
L 669.503291 430.899727 
L 670.495997 437.241266 
L 671.488703 427.836505 
L 672.481409 426.622959 
L 673.474115 440.954114 
L 674.466821 428.356686 
L 675.459527 436.927705 
L 676.452233 429.786308 
L 677.444939 431.331067 
L 678.437645 431.804745 
L 679.43035 434.607436 
L 680.423056 441.101649 
L 681.415762 438.420543 
L 682.408468 428.290991 
L 683.401174 434.771227 
L 684.39388 433.531991 
L 685.386586 425.330372 
L 686.379292 430.57431 
L 687.371998 432.396152 
L 688.364704 435.967072 
L 689.35741 436.867469 
L 690.350116 433.741561 
L 691.342822 435.919979 
L 692.335527 435.506186 
L 693.328233 431.698022 
L 694.320939 431.484717 
L 695.313645 433.724479 
L 696.306351 435.666283 
L 697.299057 431.377998 
L 698.291763 434.297825 
L 699.284469 432.243424 
L 700.277175 437.619118 
L 701.269881 434.167915 
L 702.262587 435.819758 
L 703.255293 438.258042 
L 704.247999 434.77564 
L 705.240705 432.420762 
L 706.23341 436.844703 
L 707.226116 435.871937 
L 708.218822 433.153993 
L 710.204234 436.569476 
L 711.19694 434.487145 
L 712.189646 433.655275 
L 713.182352 438.596363 
L 714.175058 437.621566 
L 715.167764 436.189467 
L 716.16047 432.883124 
L 717.153176 432.499201 
L 718.145882 438.576013 
L 719.138587 437.136195 
L 720.131293 435.924173 
L 721.123999 436.761375 
L 722.116705 436.03154 
L 723.109411 437.059338 
L 724.102117 437.011218 
L 725.094823 438.754945 
L 726.087529 437.430691 
L 727.080235 436.426262 
L 728.072941 438.064816 
L 730.058353 437.861399 
L 731.051059 433.680054 
L 732.043764 436.07964 
L 733.03647 434.307248 
L 734.029176 432.164206 
L 735.021882 438.896915 
L 736.014588 436.654185 
L 737.007294 437.704795 
L 738 436.25201 
L 738.992706 435.978964 
L 739.985412 436.331798 
L 740.978118 438.282179 
L 741.970824 435.761752 
L 742.96353 438.236883 
L 743.956236 436.548249 
L 744.948941 440.31693 
L 745.941647 437.569832 
L 746.934353 436.528246 
L 747.927059 438.900365 
L 748.919765 437.288038 
L 749.912471 438.606857 
L 750.905177 438.8221 
L 751.897883 437.989679 
L 752.890589 436.985698 
L 753.883295 439.732335 
L 754.876001 438.575874 
L 755.868707 438.913072 
L 756.861413 438.287033 
L 757.854118 439.629501 
L 758.846824 438.971275 
L 759.83953 438.678731 
L 760.832236 437.652789 
L 761.824942 437.28316 
L 762.817648 438.946727 
L 763.810354 440.111912 
L 764.80306 436.955093 
L 765.795766 436.293431 
L 766.788472 437.466208 
L 767.781178 439.489985 
L 768.773884 440.841495 
L 769.76659 439.115156 
L 770.759295 440.888633 
L 771.752001 439.703823 
L 772.744707 438.004056 
L 773.737413 438.753367 
L 774.730119 437.87537 
L 775.722825 438.917186 
L 776.715531 441.857072 
L 777.708237 439.623352 
L 778.700943 439.016484 
L 779.693649 440.694756 
L 780.686355 440.186346 
L 781.679061 438.762371 
L 782.671767 441.12938 
L 783.664473 439.559664 
L 784.657178 439.110748 
L 785.649884 441.565433 
L 786.64259 441.496934 
L 787.635296 440.551957 
L 788.628002 440.219849 
L 789.620708 442.055946 
L 790.613414 441.950838 
L 791.60612 442.465156 
L 792.598826 439.641403 
L 793.591532 439.074601 
L 794.584238 441.346604 
L 795.576944 440.443477 
L 796.56965 443.156476 
L 797.562355 438.390807 
L 798.555061 441.744023 
L 799.547767 440.428676 
L 800.540473 439.930227 
L 801.533179 442.279588 
L 802.525885 442.145095 
L 803.518591 440.425205 
L 804.511297 440.04361 
L 805.504003 440.32165 
L 806.496709 442.803872 
L 807.489415 440.573794 
L 808.482121 441.626655 
L 809.474827 443.811727 
L 810.467532 441.07987 
L 811.460238 441.805205 
L 812.452944 441.733441 
L 813.44565 442.573076 
L 814.438356 440.43565 
L 815.431062 441.885352 
L 816.423768 442.826924 
L 817.416474 440.560473 
L 818.40918 441.135077 
L 819.401886 444.71761 
L 820.394592 445.029207 
L 821.387298 441.46287 
L 822.380004 444.196341 
L 823.372709 442.996518 
L 824.365415 441.326823 
L 825.358121 440.653253 
L 826.350827 442.330051 
L 827.343533 440.525558 
L 828.336239 441.055052 
L 829.328945 442.014885 
L 830.321651 443.707432 
L 832.307063 441.938887 
L 833.299769 441.443321 
L 834.292475 441.711531 
L 835.285181 442.564852 
L 836.277886 445.357665 
L 837.270592 443.641983 
L 838.263298 442.64887 
L 839.256004 443.245888 
L 840.24871 442.320709 
L 841.241416 441.896637 
L 842.234122 442.841774 
L 843.226828 444.818844 
L 844.219534 441.795877 
L 845.21224 442.956911 
L 846.204946 441.460315 
L 847.197652 443.518868 
L 848.190358 444.967029 
L 849.183064 443.368189 
L 850.175769 444.425607 
L 852.161181 442.874136 
L 853.153887 446.395601 
L 854.146593 443.826677 
L 855.139299 443.102824 
L 856.132005 444.149791 
L 857.124711 443.013544 
L 858.117417 444.204225 
L 859.110123 443.246953 
L 860.102829 443.786095 
L 861.095535 443.852389 
L 862.088241 445.588415 
L 863.080946 444.978909 
L 864.073652 444.932054 
L 865.066358 443.185016 
L 866.059064 443.806778 
L 867.05177 446.349124 
L 868.044476 442.11526 
L 869.037182 445.505183 
L 870.029888 443.881787 
L 871.022594 445.623143 
L 872.0153 444.842102 
L 873.008006 443.66166 
L 874.000712 446.094937 
L 874.993418 445.462081 
L 875.986123 446.282412 
L 876.978829 445.242699 
L 877.971535 445.483367 
L 878.964241 445.129724 
L 879.956947 445.449024 
L 880.949653 445.19722 
L 881.942359 448.361535 
L 882.935065 445.103586 
L 883.927771 443.545495 
L 884.920477 446.968039 
L 885.913183 446.306042 
L 886.905889 442.750534 
L 887.898595 445.565852 
L 889.884006 443.355394 
L 890.876712 446.987219 
L 891.869418 446.237869 
L 892.862124 447.209403 
L 893.85483 447.123519 
L 894.847536 444.783388 
L 895.840242 442.767216 
L 896.832948 448.602304 
L 897.825654 446.79913 
L 898.81836 446.102495 
L 899.811066 447.390938 
L 900.803772 448.020419 
L 901.796477 444.800779 
L 902.789183 447.354079 
L 903.781889 445.409706 
L 904.774595 446.524611 
L 906.760007 445.628979 
L 907.752713 446.170251 
L 908.745419 447.152006 
L 909.738125 444.786765 
L 910.730831 445.933913 
L 911.723537 446.451923 
L 912.716243 446.784923 
L 913.708949 445.259313 
L 915.69436 449.60461 
L 916.687066 445.941192 
L 917.679772 446.511572 
L 918.672478 447.949921 
L 919.665184 444.41115 
L 920.65789 446.009686 
L 921.650596 449.756487 
L 922.643302 449.320995 
L 923.636008 445.811685 
L 926.614126 448.704451 
L 927.606832 446.55215 
L 928.599537 444.864111 
L 929.592243 445.410369 
L 930.584949 447.793563 
L 931.577655 449.77481 
L 932.570361 445.666159 
L 933.563067 445.462007 
L 934.555773 449.440572 
L 935.548479 446.4438 
L 936.541185 446.044372 
L 937.533891 447.889272 
L 938.526597 447.179668 
L 939.519303 447.098818 
L 940.512009 446.905632 
L 941.504714 446.060161 
L 942.49742 450.114496 
L 944.482832 444.160216 
L 945.475538 449.601524 
L 946.468244 449.252901 
L 947.46095 449.740092 
L 948.453656 448.320437 
L 949.446362 447.881854 
L 950.439068 448.433549 
L 951.431774 451.023712 
L 952.42448 448.387216 
L 953.417186 449.370265 
L 954.409891 447.440971 
L 955.402597 449.634769 
L 956.395303 448.197191 
L 957.388009 447.912439 
L 959.373421 447.972023 
L 960.366127 449.818897 
L 961.358833 448.196544 
L 962.351539 445.650203 
L 963.344245 449.963527 
L 964.336951 448.722806 
L 965.329657 448.11648 
L 966.322363 449.574284 
L 967.315068 447.971868 
L 968.307774 446.732151 
L 969.30048 450.266576 
L 970.293186 448.656714 
L 971.285892 451.38285 
L 972.278598 446.994369 
L 973.271304 445.579836 
L 974.26401 447.718744 
L 975.256716 449.166172 
L 976.249422 447.670217 
L 977.242128 448.511907 
L 979.22754 448.762817 
L 980.220246 448.361278 
L 981.212951 448.872787 
L 982.205657 448.048376 
L 983.198363 449.759231 
L 984.191069 449.749043 
L 986.176481 450.932667 
L 987.169187 447.701027 
L 988.161893 448.786266 
L 989.154599 450.903373 
L 990.147305 447.690565 
L 991.140011 449.065995 
L 992.132717 448.350426 
L 993.125423 450.267961 
L 994.118128 448.863086 
L 995.110834 448.72595 
L 996.10354 451.579467 
L 997.096246 447.574778 
L 998.088952 448.553633 
L 999.081658 452.71872 
L 1000.074364 448.335308 
L 1001.06707 447.736134 
L 1002.059776 451.889419 
L 1003.052482 451.778148 
L 1004.045188 448.086001 
L 1005.037894 450.830054 
L 1006.0306 451.296045 
L 1007.023305 451.178922 
L 1008.016011 448.680213 
L 1009.008717 447.892951 
L 1010.001423 448.435446 
L 1010.994129 450.076469 
L 1012.979541 452.007594 
L 1013.972247 451.690464 
L 1014.964953 449.102508 
L 1015.957659 447.741927 
L 1016.950365 450.842693 
L 1017.943071 450.187597 
L 1018.935777 445.259628 
L 1019.928482 450.398598 
L 1020.921188 449.806255 
L 1021.913894 449.395324 
L 1022.9066 452.470601 
L 1024.892012 448.942687 
L 1025.884718 449.486004 
L 1027.87013 449.925851 
L 1028.862836 450.840024 
L 1029.855542 454.033559 
L 1030.848248 449.669136 
L 1031.840954 449.541116 
L 1032.833659 451.302502 
L 1033.826365 448.716997 
L 1034.819071 450.534005 
L 1035.811777 451.671784 
L 1036.804483 448.86313 
L 1037.797189 448.686575 
L 1038.789895 450.850646 
L 1040.775307 451.791519 
L 1041.768013 450.997467 
L 1042.760719 449.360281 
L 1043.753425 450.457318 
L 1044.746131 450.44898 
L 1045.738837 449.08924 
L 1046.731542 452.555526 
L 1047.724248 452.096361 
L 1048.716954 447.936529 
L 1049.70966 450.793785 
L 1050.702366 452.207831 
L 1051.695072 452.733031 
L 1052.687778 451.843158 
L 1053.680484 450.026222 
L 1054.67319 450.312707 
L 1055.665896 451.32707 
L 1056.658602 452.180984 
L 1057.651308 451.991242 
L 1058.644014 451.652135 
L 1059.636719 452.454261 
L 1060.629425 449.415459 
L 1061.622131 452.390302 
L 1062.614837 449.825694 
L 1063.607543 449.31729 
L 1064.600249 450.624539 
L 1066.585661 452.191468 
L 1067.578367 451.302105 
L 1068.571073 452.73719 
L 1069.563779 450.578905 
L 1070.556485 449.601238 
L 1071.549191 452.26611 
L 1072.541896 449.879299 
L 1073.534602 449.98499 
L 1074.527308 449.080703 
L 1075.520014 448.329137 
L 1076.51272 449.948727 
L 1077.505426 453.120769 
L 1078.498132 452.558125 
L 1079.490838 450.364913 
L 1080.483544 452.054755 
L 1081.47625 451.600127 
L 1083.461662 451.033104 
L 1084.454368 452.35424 
L 1085.447073 451.433923 
L 1086.439779 451.854941 
L 1087.432485 454.605447 
L 1088.425191 450.915035 
L 1089.417897 450.231966 
L 1090.410603 450.19244 
L 1091.403309 450.586185 
L 1092.396015 455.181475 
L 1093.388721 450.695866 
L 1094.381427 452.91702 
L 1095.374133 452.606621 
L 1096.366839 451.024127 
L 1097.359545 451.29858 
L 1098.35225 453.01243 
L 1099.344956 449.019555 
L 1100.337662 450.46931 
L 1101.330368 451.020443 
L 1102.323074 450.198674 
L 1103.31578 452.789002 
L 1104.308486 449.51137 
L 1105.301192 449.61955 
L 1106.293898 449.87089 
L 1107.286604 450.447947 
L 1108.27931 452.934354 
L 1109.272016 453.05366 
L 1110.264722 451.598537 
L 1111.257428 449.029255 
L 1112.250133 452.427015 
L 1113.242839 450.965482 
L 1114.235545 450.672242 
L 1115.228251 450.946885 
L 1116.220957 449.690946 
L 1117.213663 449.959083 
L 1118.206369 450.827899 
L 1119.199075 453.224232 
L 1120.191781 450.514464 
L 1121.184487 450.004633 
L 1122.177193 453.10888 
L 1123.169899 451.875119 
L 1124.162605 451.236553 
L 1125.15531 449.319164 
L 1126.148016 450.009031 
L 1127.140722 450.395653 
L 1128.133428 450.255844 
L 1129.126134 455.424246 
L 1130.11884 451.33808 
L 1131.111546 456.258472 
L 1132.104252 452.422106 
L 1133.096958 451.450437 
L 1134.089664 454.533056 
L 1135.08237 453.039731 
L 1136.075076 453.841418 
L 1137.067782 453.240987 
L 1138.060487 451.894412 
L 1139.053193 453.7721 
L 1140.045899 449.991379 
L 1141.038605 450.570253 
L 1143.024017 453.326679 
L 1144.016723 454.005581 
L 1145.009429 451.298636 
L 1146.002135 451.168945 
L 1146.994841 452.322533 
L 1147.987547 451.826435 
L 1148.980253 450.268988 
L 1149.972959 451.318221 
L 1150.965664 450.253213 
L 1151.95837 449.902212 
L 1152.951076 453.840736 
L 1153.943782 453.342841 
L 1154.936488 451.302533 
L 1155.929194 453.452684 
L 1156.9219 453.176614 
L 1157.914606 455.165314 
L 1158.907312 453.48024 
L 1159.900018 453.250726 
L 1160.892724 451.320613 
L 1161.88543 452.796373 
L 1162.878136 452.007441 
L 1163.870841 452.611825 
L 1165.856253 451.697288 
L 1166.848959 450.995289 
L 1167.841665 452.584567 
L 1168.834371 449.730132 
L 1169.827077 452.107649 
L 1170.819783 451.547686 
L 1171.812489 453.671502 
L 1172.805195 452.33322 
L 1174.790607 454.132221 
L 1175.783313 450.898393 
L 1176.776019 452.54763 
L 1177.768724 449.479571 
L 1178.76143 452.923514 
L 1179.754136 451.269622 
L 1180.746842 451.42794 
L 1181.739548 450.436847 
L 1182.732254 450.424437 
L 1183.72496 450.901215 
L 1184.717666 453.219785 
L 1185.710372 452.39753 
L 1186.703078 452.354353 
L 1187.695784 452.858111 
L 1188.68849 453.984397 
L 1189.681196 451.230488 
L 1190.673901 454.715947 
L 1191.666607 453.199247 
L 1192.659313 453.91138 
L 1193.652019 452.502624 
L 1194.644725 451.88939 
L 1195.637431 452.081819 
L 1196.630137 452.899624 
L 1197.622843 452.583635 
L 1198.615549 453.364452 
L 1199.608255 455.017722 
L 1200.600961 453.303827 
L 1201.593667 451.217954 
L 1202.586373 450.574997 
L 1203.579078 451.102637 
L 1204.571784 450.045968 
L 1205.56449 450.148543 
L 1206.557196 449.013388 
L 1208.542608 452.195427 
L 1209.535314 453.459604 
L 1210.52802 454.112467 
L 1211.520726 454.000763 
L 1212.513432 453.229567 
L 1213.506138 453.932208 
L 1214.498844 453.955504 
L 1216.484255 451.156599 
L 1217.476961 451.079911 
L 1218.469667 452.648378 
L 1219.462373 452.141027 
L 1220.455079 453.1034 
L 1221.447785 452.620671 
L 1222.440491 450.331799 
L 1223.433197 450.571906 
L 1224.425903 453.996323 
L 1225.418609 452.407459 
L 1226.411315 453.746638 
L 1227.404021 449.243679 
L 1228.396727 452.1461 
L 1229.389432 454.046635 
L 1230.382138 453.119732 
L 1231.374844 452.762675 
L 1232.36755 453.097061 
L 1233.360256 452.619972 
L 1234.352962 454.974245 
L 1235.345668 455.653791 
L 1236.338374 454.224432 
L 1237.33108 450.545494 
L 1238.323786 452.667905 
L 1239.316492 452.091112 
L 1240.309198 453.790141 
L 1241.301904 453.649951 
L 1242.29461 450.635004 
L 1243.287315 453.880453 
L 1244.280021 453.889515 
L 1245.272727 452.22224 
L 1245.272727 452.22224 
" clip-path="url(#pe88abc5a22)" style="fill: none; stroke: #1f77b4; stroke-width: 1.5; stroke-linecap: square"/>
   </g>
   <g id="patch_3">
    <path d="M 180 512.64 
L 180 69.12 
" style="fill: none; stroke: #000000; stroke-width: 0.8; stroke-linejoin: miter; stroke-linecap: square"/>
   </g>
   <g id="patch_4">
    <path d="M 1296 512.64 
L 1296 69.12 
" style="fill: none; stroke: #000000; stroke-width: 0.8; stroke-linejoin: miter; stroke-linecap: square"/>
   </g>
   <g id="patch_5">
    <path d="M 180 512.64 
L 1296 512.64 
" style="fill: none; stroke: #000000; stroke-width: 0.8; stroke-linejoin: miter; stroke-linecap: square"/>
   </g>
   <g id="patch_6">
    <path d="M 180 69.12 
L 1296 69.12 
" style="fill: none; stroke: #000000; stroke-width: 0.8; stroke-linejoin: miter; stroke-linecap: square"/>
   </g>
   <g id="text_12">
    <!-- source2-receiver17 -->
    <g transform="translate(544.9 60.80125) scale(0.4 -0.4)">
     <defs>
      <path id="DejaVuSans-73" d="M 2834 3397 
L 2834 2853 
Q 2591 2978 2328 3040 
Q 2066 3103 1784 3103 
Q 1356 3103 1142 2972 
Q 928 2841 928 2578 
Q 928 2378 1081 2264 
Q 1234 2150 1697 2047 
L 1894 2003 
Q 2506 1872 2764 1633 
Q 3022 1394 3022 966 
Q 3022 478 2636 193 
Q 2250 -91 1575 -91 
Q 1294 -91 989 -36 
Q 684 19 347 128 
L 347 722 
Q 666 556 975 473 
Q 1284 391 1588 391 
Q 1994 391 2212 530 
Q 2431 669 2431 922 
Q 2431 1156 2273 1281 
Q 2116 1406 1581 1522 
L 1381 1569 
Q 847 1681 609 1914 
Q 372 2147 372 2553 
Q 372 3047 722 3315 
Q 1072 3584 1716 3584 
Q 2034 3584 2315 3537 
Q 2597 3491 2834 3397 
z
" transform="scale(0.015625)"/>
      <path id="DejaVuSans-6f" d="M 1959 3097 
Q 1497 3097 1228 2736 
Q 959 2375 959 1747 
Q 959 1119 1226 758 
Q 1494 397 1959 397 
Q 2419 397 2687 759 
Q 2956 1122 2956 1747 
Q 2956 2369 2687 2733 
Q 2419 3097 1959 3097 
z
M 1959 3584 
Q 2709 3584 3137 3096 
Q 3566 2609 3566 1747 
Q 3566 888 3137 398 
Q 2709 -91 1959 -91 
Q 1206 -91 779 398 
Q 353 888 353 1747 
Q 353 2609 779 3096 
Q 1206 3584 1959 3584 
z
" transform="scale(0.015625)"/>
      <path id="DejaVuSans-75" d="M 544 1381 
L 544 3500 
L 1119 3500 
L 1119 1403 
Q 1119 906 1312 657 
Q 1506 409 1894 409 
Q 2359 409 2629 706 
Q 2900 1003 2900 1516 
L 2900 3500 
L 3475 3500 
L 3475 0 
L 2900 0 
L 2900 538 
Q 2691 219 2414 64 
Q 2138 -91 1772 -91 
Q 1169 -91 856 284 
Q 544 659 544 1381 
z
M 1991 3584 
L 1991 3584 
z
" transform="scale(0.015625)"/>
      <path id="DejaVuSans-72" d="M 2631 2963 
Q 2534 3019 2420 3045 
Q 2306 3072 2169 3072 
Q 1681 3072 1420 2755 
Q 1159 2438 1159 1844 
L 1159 0 
L 581 0 
L 581 3500 
L 1159 3500 
L 1159 2956 
Q 1341 3275 1631 3429 
Q 1922 3584 2338 3584 
Q 2397 3584 2469 3576 
Q 2541 3569 2628 3553 
L 2631 2963 
z
" transform="scale(0.015625)"/>
      <path id="DejaVuSans-63" d="M 3122 3366 
L 3122 2828 
Q 2878 2963 2633 3030 
Q 2388 3097 2138 3097 
Q 1578 3097 1268 2742 
Q 959 2388 959 1747 
Q 959 1106 1268 751 
Q 1578 397 2138 397 
Q 2388 397 2633 464 
Q 2878 531 3122 666 
L 3122 134 
Q 2881 22 2623 -34 
Q 2366 -91 2075 -91 
Q 1284 -91 818 406 
Q 353 903 353 1747 
Q 353 2603 823 3093 
Q 1294 3584 2113 3584 
Q 2378 3584 2631 3529 
Q 2884 3475 3122 3366 
z
" transform="scale(0.015625)"/>
      <path id="DejaVuSans-65" d="M 3597 1894 
L 3597 1613 
L 953 1613 
Q 991 1019 1311 708 
Q 1631 397 2203 397 
Q 2534 397 2845 478 
Q 3156 559 3463 722 
L 3463 178 
Q 3153 47 2828 -22 
Q 2503 -91 2169 -91 
Q 1331 -91 842 396 
Q 353 884 353 1716 
Q 353 2575 817 3079 
Q 1281 3584 2069 3584 
Q 2775 3584 3186 3129 
Q 3597 2675 3597 1894 
z
M 3022 2063 
Q 3016 2534 2758 2815 
Q 2500 3097 2075 3097 
Q 1594 3097 1305 2825 
Q 1016 2553 972 2059 
L 3022 2063 
z
" transform="scale(0.015625)"/>
      <path id="DejaVuSans-2d" d="M 313 2009 
L 1997 2009 
L 1997 1497 
L 313 1497 
L 313 2009 
z
" transform="scale(0.015625)"/>
      <path id="DejaVuSans-69" d="M 603 3500 
L 1178 3500 
L 1178 0 
L 603 0 
L 603 3500 
z
M 603 4863 
L 1178 4863 
L 1178 4134 
L 603 4134 
L 603 4863 
z
" transform="scale(0.015625)"/>
      <path id="DejaVuSans-76" d="M 191 3500 
L 800 3500 
L 1894 563 
L 2988 3500 
L 3597 3500 
L 2284 0 
L 1503 0 
L 191 3500 
z
" transform="scale(0.015625)"/>
      <path id="DejaVuSans-37" d="M 525 4666 
L 3525 4666 
L 3525 4397 
L 1831 0 
L 1172 0 
L 2766 4134 
L 525 4134 
L 525 4666 
z
" transform="scale(0.015625)"/>
     </defs>
     <use xlink:href="#DejaVuSans-73"/>
     <use xlink:href="#DejaVuSans-6f" x="52.099609"/>
     <use xlink:href="#DejaVuSans-75" x="113.28125"/>
     <use xlink:href="#DejaVuSans-72" x="176.660156"/>
     <use xlink:href="#DejaVuSans-63" x="215.523438"/>
     <use xlink:href="#DejaVuSans-65" x="270.503906"/>
     <use xlink:href="#DejaVuSans-32" x="332.027344"/>
     <use xlink:href="#DejaVuSans-2d" x="395.650391"/>
     <use xlink:href="#DejaVuSans-72" x="431.734375"/>
     <use xlink:href="#DejaVuSans-65" x="470.597656"/>
     <use xlink:href="#DejaVuSans-63" x="532.121094"/>
     <use xlink:href="#DejaVuSans-65" x="587.101562"/>
     <use xlink:href="#DejaVuSans-69" x="648.625"/>
     <use xlink:href="#DejaVuSans-76" x="676.408203"/>
     <use xlink:href="#DejaVuSans-65" x="735.587891"/>
     <use xlink:href="#DejaVuSans-72" x="797.111328"/>
     <use xlink:href="#DejaVuSans-31" x="838.224609"/>
     <use xlink:href="#DejaVuSans-37" x="901.847656"/>
    </g>
   </g>
  </g>
 </g>
 <defs>
  <clipPath id="pe88abc5a22">
   <rect x="180" y="69.12" width="1116" height="443.52"/>
  </clipPath>
 </defs>
</svg>
