<?xml version="1.0" encoding="utf-8" standalone="no"?>
<!DOCTYPE svg PUBLIC "-//W3C//DTD SVG 1.1//EN"
  "http://www.w3.org/Graphics/SVG/1.1/DTD/svg11.dtd">
<svg xmlns:xlink="http://www.w3.org/1999/xlink" width="1440pt" height="576pt" viewBox="0 0 1440 576" xmlns="http://www.w3.org/2000/svg" version="1.1">
 <metadata>
  <rdf:RDF xmlns:dc="http://purl.org/dc/elements/1.1/" xmlns:cc="http://creativecommons.org/ns#" xmlns:rdf="http://www.w3.org/1999/02/22-rdf-syntax-ns#">
   <cc:Work>
    <dc:type rdf:resource="http://purl.org/dc/dcmitype/StillImage"/>
    <dc:date>2024-05-22T04:49:41.893436</dc:date>
    <dc:format>image/svg+xml</dc:format>
    <dc:creator>
     <cc:Agent>
      <dc:title>Matplotlib v3.8.3, https://matplotlib.org/</dc:title>
     </cc:Agent>
    </dc:creator>
   </cc:Work>
  </rdf:RDF>
 </metadata>
 <defs>
  <style type="text/css">*{stroke-linejoin: round; stroke-linecap: butt}</style>
 </defs>
 <g id="figure_1">
  <g id="patch_1">
   <path d="M 0 576 
L 1440 576 
L 1440 0 
L 0 0 
z
" style="fill: #ffffff"/>
  </g>
  <g id="axes_1">
   <g id="patch_2">
    <path d="M 180 512.64 
L 1296 512.64 
L 1296 69.12 
L 180 69.12 
z
" style="fill: #ffffff"/>
   </g>
   <g id="matplotlib.axis_1">
    <g id="xtick_1">
     <g id="line2d_1">
      <defs>
       <path id="m9e27d10281" d="M 0 0 
L 0 3.5 
" style="stroke: #000000; stroke-width: 0.8"/>
      </defs>
      <g>
       <use xlink:href="#m9e27d10281" x="229.734567" y="512.64" style="stroke: #000000; stroke-width: 0.8"/>
      </g>
     </g>
     <g id="text_1">
      <!-- 0 -->
      <g transform="translate(226.553317 527.238438) scale(0.1 -0.1)">
       <defs>
        <path id="DejaVuSans-30" d="M 2034 4250 
Q 1547 4250 1301 3770 
Q 1056 3291 1056 2328 
Q 1056 1369 1301 889 
Q 1547 409 2034 409 
Q 2525 409 2770 889 
Q 3016 1369 3016 2328 
Q 3016 3291 2770 3770 
Q 2525 4250 2034 4250 
z
M 2034 4750 
Q 2819 4750 3233 4129 
Q 3647 3509 3647 2328 
Q 3647 1150 3233 529 
Q 2819 -91 2034 -91 
Q 1250 -91 836 529 
Q 422 1150 422 2328 
Q 422 3509 836 4129 
Q 1250 4750 2034 4750 
z
" transform="scale(0.015625)"/>
       </defs>
       <use xlink:href="#DejaVuSans-30"/>
      </g>
     </g>
    </g>
    <g id="xtick_2">
     <g id="line2d_2">
      <g>
       <use xlink:href="#m9e27d10281" x="433.04074" y="512.64" style="stroke: #000000; stroke-width: 0.8"/>
      </g>
     </g>
     <g id="text_2">
      <!-- 500 -->
      <g transform="translate(423.49699 527.238438) scale(0.1 -0.1)">
       <defs>
        <path id="DejaVuSans-35" d="M 691 4666 
L 3169 4666 
L 3169 4134 
L 1269 4134 
L 1269 2991 
Q 1406 3038 1543 3061 
Q 1681 3084 1819 3084 
Q 2600 3084 3056 2656 
Q 3513 2228 3513 1497 
Q 3513 744 3044 326 
Q 2575 -91 1722 -91 
Q 1428 -91 1123 -41 
Q 819 9 494 109 
L 494 744 
Q 775 591 1075 516 
Q 1375 441 1709 441 
Q 2250 441 2565 725 
Q 2881 1009 2881 1497 
Q 2881 1984 2565 2268 
Q 2250 2553 1709 2553 
Q 1456 2553 1204 2497 
Q 953 2441 691 2322 
L 691 4666 
z
" transform="scale(0.015625)"/>
       </defs>
       <use xlink:href="#DejaVuSans-35"/>
       <use xlink:href="#DejaVuSans-30" x="63.623047"/>
       <use xlink:href="#DejaVuSans-30" x="127.246094"/>
      </g>
     </g>
    </g>
    <g id="xtick_3">
     <g id="line2d_3">
      <g>
       <use xlink:href="#m9e27d10281" x="636.346913" y="512.64" style="stroke: #000000; stroke-width: 0.8"/>
      </g>
     </g>
     <g id="text_3">
      <!-- 1000 -->
      <g transform="translate(623.621913 527.238438) scale(0.1 -0.1)">
       <defs>
        <path id="DejaVuSans-31" d="M 794 531 
L 1825 531 
L 1825 4091 
L 703 3866 
L 703 4441 
L 1819 4666 
L 2450 4666 
L 2450 531 
L 3481 531 
L 3481 0 
L 794 0 
L 794 531 
z
" transform="scale(0.015625)"/>
       </defs>
       <use xlink:href="#DejaVuSans-31"/>
       <use xlink:href="#DejaVuSans-30" x="63.623047"/>
       <use xlink:href="#DejaVuSans-30" x="127.246094"/>
       <use xlink:href="#DejaVuSans-30" x="190.869141"/>
      </g>
     </g>
    </g>
    <g id="xtick_4">
     <g id="line2d_4">
      <g>
       <use xlink:href="#m9e27d10281" x="839.653087" y="512.64" style="stroke: #000000; stroke-width: 0.8"/>
      </g>
     </g>
     <g id="text_4">
      <!-- 1500 -->
      <g transform="translate(826.928087 527.238438) scale(0.1 -0.1)">
       <use xlink:href="#DejaVuSans-31"/>
       <use xlink:href="#DejaVuSans-35" x="63.623047"/>
       <use xlink:href="#DejaVuSans-30" x="127.246094"/>
       <use xlink:href="#DejaVuSans-30" x="190.869141"/>
      </g>
     </g>
    </g>
    <g id="xtick_5">
     <g id="line2d_5">
      <g>
       <use xlink:href="#m9e27d10281" x="1042.95926" y="512.64" style="stroke: #000000; stroke-width: 0.8"/>
      </g>
     </g>
     <g id="text_5">
      <!-- 2000 -->
      <g transform="translate(1030.23426 527.238438) scale(0.1 -0.1)">
       <defs>
        <path id="DejaVuSans-32" d="M 1228 531 
L 3431 531 
L 3431 0 
L 469 0 
L 469 531 
Q 828 903 1448 1529 
Q 2069 2156 2228 2338 
Q 2531 2678 2651 2914 
Q 2772 3150 2772 3378 
Q 2772 3750 2511 3984 
Q 2250 4219 1831 4219 
Q 1534 4219 1204 4116 
Q 875 4013 500 3803 
L 500 4441 
Q 881 4594 1212 4672 
Q 1544 4750 1819 4750 
Q 2544 4750 2975 4387 
Q 3406 4025 3406 3419 
Q 3406 3131 3298 2873 
Q 3191 2616 2906 2266 
Q 2828 2175 2409 1742 
Q 1991 1309 1228 531 
z
" transform="scale(0.015625)"/>
       </defs>
       <use xlink:href="#DejaVuSans-32"/>
       <use xlink:href="#DejaVuSans-30" x="63.623047"/>
       <use xlink:href="#DejaVuSans-30" x="127.246094"/>
       <use xlink:href="#DejaVuSans-30" x="190.869141"/>
      </g>
     </g>
    </g>
    <g id="xtick_6">
     <g id="line2d_6">
      <g>
       <use xlink:href="#m9e27d10281" x="1246.265433" y="512.64" style="stroke: #000000; stroke-width: 0.8"/>
      </g>
     </g>
     <g id="text_6">
      <!-- 2500 -->
      <g transform="translate(1233.540433 527.238438) scale(0.1 -0.1)">
       <use xlink:href="#DejaVuSans-32"/>
       <use xlink:href="#DejaVuSans-35" x="63.623047"/>
       <use xlink:href="#DejaVuSans-30" x="127.246094"/>
       <use xlink:href="#DejaVuSans-30" x="190.869141"/>
      </g>
     </g>
    </g>
   </g>
   <g id="matplotlib.axis_2">
    <g id="ytick_1">
     <g id="line2d_7">
      <defs>
       <path id="mb02819914e" d="M 0 0 
L -3.5 0 
" style="stroke: #000000; stroke-width: 0.8"/>
      </defs>
      <g>
       <use xlink:href="#mb02819914e" x="180" y="484.402393" style="stroke: #000000; stroke-width: 0.8"/>
      </g>
     </g>
     <g id="text_7">
      <!-- −3 -->
      <g transform="translate(158.257812 488.201612) scale(0.1 -0.1)">
       <defs>
        <path id="DejaVuSans-2212" d="M 678 2272 
L 4684 2272 
L 4684 1741 
L 678 1741 
L 678 2272 
z
" transform="scale(0.015625)"/>
        <path id="DejaVuSans-33" d="M 2597 2516 
Q 3050 2419 3304 2112 
Q 3559 1806 3559 1356 
Q 3559 666 3084 287 
Q 2609 -91 1734 -91 
Q 1441 -91 1130 -33 
Q 819 25 488 141 
L 488 750 
Q 750 597 1062 519 
Q 1375 441 1716 441 
Q 2309 441 2620 675 
Q 2931 909 2931 1356 
Q 2931 1769 2642 2001 
Q 2353 2234 1838 2234 
L 1294 2234 
L 1294 2753 
L 1863 2753 
Q 2328 2753 2575 2939 
Q 2822 3125 2822 3475 
Q 2822 3834 2567 4026 
Q 2313 4219 1838 4219 
Q 1578 4219 1281 4162 
Q 984 4106 628 3988 
L 628 4550 
Q 988 4650 1302 4700 
Q 1616 4750 1894 4750 
Q 2613 4750 3031 4423 
Q 3450 4097 3450 3541 
Q 3450 3153 3228 2886 
Q 3006 2619 2597 2516 
z
" transform="scale(0.015625)"/>
       </defs>
       <use xlink:href="#DejaVuSans-2212"/>
       <use xlink:href="#DejaVuSans-33" x="83.789062"/>
      </g>
     </g>
    </g>
    <g id="ytick_2">
     <g id="line2d_8">
      <g>
       <use xlink:href="#mb02819914e" x="180" y="428.679952" style="stroke: #000000; stroke-width: 0.8"/>
      </g>
     </g>
     <g id="text_8">
      <!-- −2 -->
      <g transform="translate(158.257812 432.479171) scale(0.1 -0.1)">
       <use xlink:href="#DejaVuSans-2212"/>
       <use xlink:href="#DejaVuSans-32" x="83.789062"/>
      </g>
     </g>
    </g>
    <g id="ytick_3">
     <g id="line2d_9">
      <g>
       <use xlink:href="#mb02819914e" x="180" y="372.957512" style="stroke: #000000; stroke-width: 0.8"/>
      </g>
     </g>
     <g id="text_9">
      <!-- −1 -->
      <g transform="translate(158.257812 376.75673) scale(0.1 -0.1)">
       <use xlink:href="#DejaVuSans-2212"/>
       <use xlink:href="#DejaVuSans-31" x="83.789062"/>
      </g>
     </g>
    </g>
    <g id="ytick_4">
     <g id="line2d_10">
      <g>
       <use xlink:href="#mb02819914e" x="180" y="317.235071" style="stroke: #000000; stroke-width: 0.8"/>
      </g>
     </g>
     <g id="text_10">
      <!-- 0 -->
      <g transform="translate(166.6375 321.03429) scale(0.1 -0.1)">
       <use xlink:href="#DejaVuSans-30"/>
      </g>
     </g>
    </g>
    <g id="ytick_5">
     <g id="line2d_11">
      <g>
       <use xlink:href="#mb02819914e" x="180" y="261.51263" style="stroke: #000000; stroke-width: 0.8"/>
      </g>
     </g>
     <g id="text_11">
      <!-- 1 -->
      <g transform="translate(166.6375 265.311849) scale(0.1 -0.1)">
       <use xlink:href="#DejaVuSans-31"/>
      </g>
     </g>
    </g>
    <g id="ytick_6">
     <g id="line2d_12">
      <g>
       <use xlink:href="#mb02819914e" x="180" y="205.79019" style="stroke: #000000; stroke-width: 0.8"/>
      </g>
     </g>
     <g id="text_12">
      <!-- 2 -->
      <g transform="translate(166.6375 209.589408) scale(0.1 -0.1)">
       <use xlink:href="#DejaVuSans-32"/>
      </g>
     </g>
    </g>
    <g id="ytick_7">
     <g id="line2d_13">
      <g>
       <use xlink:href="#mb02819914e" x="180" y="150.067749" style="stroke: #000000; stroke-width: 0.8"/>
      </g>
     </g>
     <g id="text_13">
      <!-- 3 -->
      <g transform="translate(166.6375 153.866968) scale(0.1 -0.1)">
       <use xlink:href="#DejaVuSans-33"/>
      </g>
     </g>
    </g>
    <g id="ytick_8">
     <g id="line2d_14">
      <g>
       <use xlink:href="#mb02819914e" x="180" y="94.345309" style="stroke: #000000; stroke-width: 0.8"/>
      </g>
     </g>
     <g id="text_14">
      <!-- 4 -->
      <g transform="translate(166.6375 98.144527) scale(0.1 -0.1)">
       <defs>
        <path id="DejaVuSans-34" d="M 2419 4116 
L 825 1625 
L 2419 1625 
L 2419 4116 
z
M 2253 4666 
L 3047 4666 
L 3047 1625 
L 3713 1625 
L 3713 1100 
L 3047 1100 
L 3047 0 
L 2419 0 
L 2419 1100 
L 313 1100 
L 313 1709 
L 2253 4666 
z
" transform="scale(0.015625)"/>
       </defs>
       <use xlink:href="#DejaVuSans-34"/>
      </g>
     </g>
    </g>
   </g>
   <g id="line2d_15">
    <path d="M 230.727273 344.201352 
L 232.712685 343.475774 
L 234.698096 341.661459 
L 236.683508 338.887959 
L 237.676214 337.354247 
L 239.661626 333.133704 
L 240.654332 330.507555 
L 241.647038 327.513288 
L 243.63245 320.459466 
L 244.625156 316.255154 
L 247.603273 289.414926 
L 249.588685 223.938404 
L 250.581391 216.46739 
L 251.574097 253.649983 
L 252.566803 252.70197 
L 253.559509 194.074164 
L 254.552215 185.780553 
L 255.544921 203.407714 
L 256.537627 202.610068 
L 258.523039 166.670553 
L 259.515745 153.061023 
L 260.50845 154.811542 
L 261.501156 175.461156 
L 262.493862 186.805704 
L 263.486568 192.563895 
L 264.479274 255.160898 
L 265.47198 221.387617 
L 266.464686 211.368229 
L 267.457392 257.363213 
L 268.450098 201.513931 
L 269.442804 191.023501 
L 270.43551 185.713117 
L 271.428216 165.985817 
L 272.420922 156.911213 
L 273.413627 159.530805 
L 274.406333 175.888547 
L 275.399039 213.316791 
L 276.391745 195.878345 
L 277.384451 138.295683 
L 278.377157 113.264416 
L 279.369863 109.970802 
L 280.362569 115.036289 
L 281.355275 104.472919 
L 282.347981 91.989299 
L 283.340687 89.28 
L 284.333393 96.982961 
L 285.326099 126.838682 
L 286.318804 164.467088 
L 287.31151 106.943694 
L 288.304216 97.047373 
L 289.296922 120.759376 
L 290.289628 202.754159 
L 291.282334 192.738484 
L 292.27504 176.185408 
L 293.267746 176.163347 
L 294.260452 200.177485 
L 295.253158 278.917025 
L 296.245864 298.52512 
L 297.23857 252.853048 
L 298.231276 226.098326 
L 299.223981 270.472726 
L 300.216687 248.272919 
L 302.202099 269.708807 
L 303.194805 226.333823 
L 304.187511 258.44338 
L 305.180217 318.143828 
L 306.172923 278.398291 
L 307.165629 492.48 
L 308.158335 294.614298 
L 309.151041 319.997467 
L 310.143747 325.573676 
L 311.136453 318.34968 
L 312.129159 330.788023 
L 313.121864 322.714702 
L 314.11457 330.764151 
L 315.107276 324.386979 
L 316.099982 332.513742 
L 317.092688 327.099088 
L 318.085394 334.69701 
L 319.0781 332.109282 
L 320.070806 338.373405 
L 321.063512 332.794615 
L 322.056218 342.041327 
L 323.048924 344.8623 
L 324.04163 340.343593 
L 325.034336 345.135472 
L 326.027041 341.114597 
L 327.019747 347.317466 
L 328.012453 351.505857 
L 329.005159 347.893585 
L 329.997865 345.544218 
L 330.990571 353.067929 
L 331.983277 353.671833 
L 332.975983 350.293393 
L 333.968689 349.365093 
L 334.961395 355.5842 
L 335.954101 358.466324 
L 336.946807 357.054565 
L 337.939513 354.239003 
L 338.932218 355.001751 
L 339.924924 361.64411 
L 340.91763 362.813423 
L 341.910336 367.626086 
L 342.903042 365.043758 
L 343.895748 368.02469 
L 344.888454 359.759314 
L 345.88116 367.681116 
L 346.873866 364.428323 
L 347.866572 366.605539 
L 348.859278 354.255572 
L 349.851984 367.091212 
L 350.84469 362.32861 
L 351.837395 362.797627 
L 352.830101 371.630446 
L 353.822807 367.846525 
L 354.815513 366.608132 
L 355.808219 371.182196 
L 356.800925 375.082276 
L 357.793631 377.139595 
L 358.786337 374.635795 
L 359.779043 368.692597 
L 360.771749 369.579895 
L 361.764455 372.377306 
L 362.757161 367.346598 
L 363.749867 376.788843 
L 364.742572 384.149019 
L 365.735278 378.615643 
L 366.727984 379.954792 
L 367.72069 378.14763 
L 368.713396 377.429329 
L 369.706102 376.55232 
L 370.698808 370.450992 
L 371.691514 393.288209 
L 372.68422 370.026498 
L 373.676926 395.995607 
L 374.669632 368.134463 
L 375.662338 390.335307 
L 376.655044 381.661851 
L 377.64775 374.531146 
L 378.640455 386.040849 
L 379.633161 374.638889 
L 380.625867 384.453346 
L 381.618573 384.003589 
L 382.611279 389.999553 
L 383.603985 389.832475 
L 384.596691 378.665908 
L 385.589397 389.407476 
L 386.582103 384.191489 
L 387.574809 390.918731 
L 388.567515 389.457475 
L 389.560221 393.7377 
L 390.552927 382.52028 
L 391.545632 387.236551 
L 392.538338 382.034091 
L 393.531044 392.787848 
L 394.52375 396.096616 
L 395.516456 376.839456 
L 396.509162 392.227715 
L 397.501868 390.133267 
L 398.494574 400.730943 
L 400.479986 389.414229 
L 401.472692 390.941011 
L 402.465398 383.386236 
L 403.458104 411.789931 
L 404.450809 389.366596 
L 405.443515 398.638813 
L 406.436221 369.646157 
L 407.428927 402.681483 
L 408.421633 393.282503 
L 409.414339 396.895609 
L 410.407045 399.561688 
L 411.399751 389.661888 
L 412.392457 405.666909 
L 413.385163 398.504617 
L 414.377869 401.098824 
L 415.370575 401.682746 
L 416.363281 400.418013 
L 417.355986 394.733931 
L 418.348692 409.284842 
L 419.341398 399.512061 
L 420.334104 409.192532 
L 421.32681 406.846913 
L 422.319516 396.380946 
L 423.312222 418.331241 
L 424.304928 398.215445 
L 425.297634 399.122499 
L 426.29034 397.813658 
L 427.283046 400.940971 
L 428.275752 418.255828 
L 429.268458 385.938354 
L 430.261163 428.764634 
L 431.253869 386.935648 
L 432.246575 411.035797 
L 433.239281 384.531877 
L 434.231987 390.206756 
L 435.224693 401.108057 
L 436.217399 394.237597 
L 437.210105 413.523338 
L 438.202811 394.690718 
L 439.195517 408.631213 
L 440.188223 412.10064 
L 442.173635 395.239114 
L 443.166341 406.947828 
L 444.159046 407.426489 
L 445.151752 405.605429 
L 446.144458 400.78755 
L 447.137164 410.744651 
L 448.12987 399.738888 
L 449.122576 405.977077 
L 450.115282 419.154289 
L 451.107988 413.091182 
L 452.100694 400.090294 
L 453.0934 405.052231 
L 454.086106 413.204955 
L 455.078812 417.087712 
L 456.071518 405.934598 
L 457.064223 408.489132 
L 458.056929 412.732208 
L 459.049635 413.936985 
L 460.042341 413.990851 
L 461.035047 410.872616 
L 462.027753 408.192777 
L 463.020459 427.775492 
L 464.013165 407.449795 
L 465.005871 401.42905 
L 465.998577 417.276385 
L 466.991283 415.508013 
L 467.983989 410.10244 
L 468.976695 409.310031 
L 469.9694 411.789037 
L 470.962106 431.349717 
L 471.954812 411.775858 
L 472.947518 417.400497 
L 473.940224 419.339812 
L 474.93293 423.585415 
L 475.925636 419.607654 
L 476.918342 421.286658 
L 477.911048 406.932885 
L 478.903754 418.881308 
L 479.89646 421.297515 
L 480.889166 432.857438 
L 481.881872 413.885411 
L 482.874577 421.820956 
L 483.867283 420.978698 
L 484.859989 416.194917 
L 485.852695 419.837242 
L 486.845401 418.70015 
L 487.838107 414.568989 
L 488.830813 426.282919 
L 489.823519 414.564612 
L 490.816225 431.467871 
L 491.808931 407.935498 
L 492.801637 424.761314 
L 493.794343 408.302969 
L 494.787049 417.3201 
L 495.779754 422.486633 
L 496.77246 403.98285 
L 497.765166 423.366815 
L 498.757872 431.966853 
L 499.750578 419.424316 
L 500.743284 419.753381 
L 501.73599 434.039228 
L 502.728696 420.688793 
L 503.721402 422.070832 
L 504.714108 410.81552 
L 505.706814 417.052903 
L 506.69952 444.761277 
L 507.692226 416.933389 
L 508.684932 426.226309 
L 509.677637 421.535248 
L 510.670343 418.033171 
L 511.663049 410.445902 
L 512.655755 409.594853 
L 513.648461 413.673849 
L 514.641167 429.658874 
L 515.633873 433.700014 
L 516.626579 415.678757 
L 517.619285 431.575254 
L 518.611991 420.726133 
L 519.604697 412.276229 
L 520.597403 451.903392 
L 521.590109 416.154326 
L 522.582814 431.245647 
L 523.57552 429.70694 
L 524.568226 415.021807 
L 525.560932 430.632607 
L 526.553638 413.395585 
L 527.546344 441.319534 
L 528.53905 438.273642 
L 529.531756 411.781651 
L 530.524462 425.858621 
L 531.517168 429.191554 
L 532.509874 412.411869 
L 533.50258 441.608305 
L 534.495286 443.379878 
L 535.487991 426.304967 
L 536.480697 428.166744 
L 537.473403 416.914157 
L 538.466109 458.638942 
L 539.458815 427.893509 
L 540.451521 433.356238 
L 541.444227 440.732963 
L 542.436933 420.522273 
L 543.429639 451.087773 
L 544.422345 408.645713 
L 545.415051 473.751422 
L 546.407757 416.751377 
L 547.400463 463.801934 
L 548.393168 404.753389 
L 549.385874 423.770462 
L 550.37858 429.268325 
L 551.371286 415.56683 
L 552.363992 423.602526 
L 553.356698 411.129761 
L 554.349404 453.871163 
L 555.34211 456.648527 
L 556.334816 417.673689 
L 557.327522 441.118935 
L 558.320228 431.135853 
L 559.312934 441.280682 
L 560.30564 444.534877 
L 561.298345 430.607431 
L 562.291051 433.484828 
L 563.283757 426.577273 
L 564.276463 421.851721 
L 565.269169 426.657817 
L 566.261875 424.733507 
L 567.254581 446.801251 
L 568.247287 432.302129 
L 569.239993 435.056525 
L 570.232699 432.391191 
L 571.225405 415.770975 
L 572.218111 444.317635 
L 573.210817 461.323964 
L 574.203523 423.569389 
L 575.196228 425.010695 
L 576.188934 432.755136 
L 577.18164 433.941911 
L 578.174346 419.002241 
L 579.167052 427.8016 
L 580.159758 420.960496 
L 581.152464 436.570912 
L 582.14517 446.599181 
L 583.137876 426.857252 
L 584.130582 435.074121 
L 585.123288 434.178696 
L 586.115994 426.316152 
L 587.1087 438.409991 
L 588.101405 425.816291 
L 589.094111 437.266167 
L 590.086817 429.782815 
L 591.079523 433.213348 
L 592.072229 457.709447 
L 594.057641 425.677436 
L 595.050347 440.005516 
L 596.043053 425.163506 
L 597.035759 430.108204 
L 598.028465 459.188151 
L 599.021171 438.358103 
L 600.013877 444.723784 
L 601.006582 446.286872 
L 601.999288 444.38066 
L 603.9847 433.633723 
L 604.977406 441.953913 
L 605.970112 436.913291 
L 606.962818 438.572776 
L 607.955524 434.335662 
L 608.94823 444.327705 
L 609.940936 439.281313 
L 610.933642 438.317905 
L 611.926348 433.799225 
L 612.919054 438.470623 
L 613.911759 441.504495 
L 614.904465 443.140213 
L 615.897171 453.314038 
L 616.889877 442.146242 
L 617.882583 438.997968 
L 618.875289 433.455861 
L 619.867995 432.445806 
L 620.860701 444.265508 
L 621.853407 445.356945 
L 622.846113 438.358655 
L 623.838819 439.804281 
L 624.831525 438.436206 
L 625.824231 449.428567 
L 626.816936 442.156181 
L 627.809642 439.77047 
L 628.802348 445.175606 
L 629.795054 436.424984 
L 630.78776 451.240083 
L 631.780466 441.340235 
L 632.773172 441.822647 
L 633.765878 436.562137 
L 634.758584 439.779332 
L 635.75129 438.663048 
L 636.743996 443.297357 
L 637.736702 450.520403 
L 638.729408 441.016269 
L 639.722114 440.515591 
L 640.714819 450.214091 
L 641.707525 441.608592 
L 642.700231 440.879126 
L 643.692937 443.087124 
L 644.685643 441.970145 
L 645.678349 447.966315 
L 646.671055 449.288876 
L 647.663761 444.207049 
L 648.656467 441.262934 
L 649.649173 444.275102 
L 650.641879 450.263069 
L 651.634585 443.462313 
L 652.627291 441.328107 
L 653.619996 443.841086 
L 654.612702 446.701965 
L 655.605408 445.471211 
L 656.598114 445.808668 
L 657.59082 442.392148 
L 658.583526 450.119394 
L 659.576232 447.017346 
L 660.568938 448.088206 
L 661.561644 443.932845 
L 662.55435 443.791305 
L 663.547056 447.632364 
L 664.539762 445.404156 
L 665.532468 445.467438 
L 666.525173 450.232151 
L 667.517879 447.297777 
L 668.510585 447.854153 
L 669.503291 448.807094 
L 670.495997 448.699772 
L 671.488703 442.770617 
L 673.474115 447.493419 
L 674.466821 449.051943 
L 675.459527 448.506661 
L 677.444939 449.124828 
L 678.437645 448.661958 
L 679.43035 448.667117 
L 680.423056 449.646475 
L 681.415762 447.556816 
L 682.408468 449.061021 
L 683.401174 446.125396 
L 684.39388 448.03112 
L 685.386586 449.097712 
L 686.379292 450.855725 
L 687.371998 450.888191 
L 688.364704 446.300448 
L 689.35741 447.923994 
L 690.350116 450.449594 
L 691.342822 449.800253 
L 692.335527 451.413116 
L 693.328233 449.781496 
L 694.320939 449.704738 
L 697.299057 451.698227 
L 698.291763 449.111027 
L 699.284469 450.387867 
L 700.277175 451.082389 
L 701.269881 450.759224 
L 702.262587 450.063977 
L 703.255293 449.831796 
L 704.247999 450.637913 
L 705.240705 450.376195 
L 706.23341 450.366918 
L 707.226116 452.79474 
L 708.218822 451.380039 
L 709.211528 451.090751 
L 710.204234 449.878418 
L 711.19694 451.658028 
L 712.189646 452.162496 
L 713.182352 452.325089 
L 714.175058 450.896885 
L 715.167764 452.016563 
L 716.16047 451.037121 
L 717.153176 452.418702 
L 718.145882 451.227956 
L 719.138587 453.831647 
L 720.131293 452.877792 
L 721.123999 452.932528 
L 722.116705 453.345098 
L 723.109411 451.788199 
L 724.102117 452.726271 
L 725.094823 452.852768 
L 726.087529 453.329732 
L 727.080235 452.186055 
L 728.072941 453.726944 
L 729.065647 453.05688 
L 730.058353 452.540532 
L 731.051059 452.787864 
L 732.043764 452.755108 
L 733.03647 453.011691 
L 734.029176 454.201813 
L 735.021882 453.690496 
L 736.014588 453.374705 
L 737.007294 454.221346 
L 738 454.086248 
L 738.992706 455.066117 
L 739.985412 454.439226 
L 740.978118 452.72933 
L 741.970824 454.390505 
L 743.956236 453.324905 
L 744.948941 454.614663 
L 745.941647 455.549531 
L 746.934353 455.261178 
L 747.927059 455.492189 
L 748.919765 456.063211 
L 749.912471 455.015649 
L 751.897883 454.985988 
L 752.890589 455.463685 
L 753.883295 454.560959 
L 754.876001 455.234135 
L 755.868707 455.495024 
L 756.861413 455.110342 
L 758.846824 454.947776 
L 759.83953 456.323094 
L 760.832236 456.258521 
L 761.824942 456.490936 
L 762.817648 456.386093 
L 763.810354 455.7297 
L 764.80306 455.773186 
L 765.795766 456.192463 
L 766.788472 457.369109 
L 767.781178 455.482285 
L 768.773884 455.765557 
L 769.76659 456.662476 
L 770.759295 456.077961 
L 771.752001 457.25524 
L 772.744707 457.199845 
L 773.737413 457.374226 
L 774.730119 457.318796 
L 775.722825 457.851633 
L 776.715531 458.100173 
L 777.708237 457.086024 
L 778.700943 457.119378 
L 779.693649 457.669073 
L 780.686355 457.691264 
L 781.679061 457.30583 
L 782.671767 458.11484 
L 783.664473 457.909227 
L 785.649884 458.776518 
L 786.64259 457.775194 
L 787.635296 457.604933 
L 788.628002 457.652859 
L 789.620708 457.846698 
L 790.613414 458.198768 
L 791.60612 458.370504 
L 792.598826 458.985322 
L 793.591532 458.030104 
L 794.584238 459.11305 
L 795.576944 458.898039 
L 796.56965 458.862138 
L 797.562355 458.685939 
L 798.555061 459.224712 
L 799.547767 458.938883 
L 800.540473 459.100838 
L 802.525885 459.12966 
L 803.518591 459.031575 
L 804.511297 459.434568 
L 805.504003 460.034863 
L 806.496709 459.684393 
L 807.489415 460.163941 
L 808.482121 459.698907 
L 809.474827 459.500337 
L 811.460238 460.497541 
L 812.452944 459.564401 
L 813.44565 460.462785 
L 814.438356 459.646573 
L 815.431062 458.629008 
L 816.423768 459.538272 
L 817.416474 460.752038 
L 818.40918 460.235608 
L 819.401886 460.764978 
L 820.394592 460.730454 
L 821.387298 460.451054 
L 822.380004 460.295927 
L 823.372709 461.881544 
L 824.365415 461.217489 
L 825.358121 460.163759 
L 826.350827 460.28644 
L 827.343533 460.22543 
L 828.336239 460.572898 
L 829.328945 460.339733 
L 830.321651 461.871342 
L 831.314357 461.542224 
L 832.307063 460.369422 
L 834.292475 462.489519 
L 835.285181 461.059083 
L 836.277886 460.81535 
L 837.270592 461.925481 
L 838.263298 460.592202 
L 839.256004 462.18814 
L 840.24871 462.379464 
L 841.241416 461.60477 
L 842.234122 462.658579 
L 843.226828 462.756832 
L 844.219534 463.020801 
L 845.21224 461.961108 
L 846.204946 461.474348 
L 847.197652 462.298647 
L 848.190358 462.292428 
L 849.183064 462.059406 
L 850.175769 463.698283 
L 851.168475 462.808985 
L 852.161181 462.704478 
L 853.153887 462.108427 
L 854.146593 463.492027 
L 855.139299 462.212523 
L 856.132005 462.92697 
L 857.124711 463.326935 
L 858.117417 462.473156 
L 859.110123 462.862313 
L 860.102829 463.37274 
L 861.095535 462.900282 
L 862.088241 463.455893 
L 863.080946 462.84145 
L 864.073652 463.41476 
L 865.066358 463.529849 
L 866.059064 464.156947 
L 867.05177 463.233884 
L 868.044476 464.143953 
L 869.037182 463.299458 
L 870.029888 464.198608 
L 871.022594 464.032987 
L 872.0153 464.35558 
L 873.008006 464.424284 
L 874.000712 464.335493 
L 874.993418 463.428906 
L 875.986123 463.127496 
L 876.978829 464.10417 
L 877.971535 464.443113 
L 878.964241 465.064903 
L 879.956947 465.267347 
L 880.949653 463.836101 
L 881.942359 464.276509 
L 882.935065 463.943383 
L 883.927771 464.024652 
L 884.920477 465.163933 
L 885.913183 463.869213 
L 886.905889 465.235591 
L 887.898595 465.116864 
L 888.8913 464.674148 
L 889.884006 465.424488 
L 890.876712 464.184702 
L 891.869418 465.118297 
L 893.85483 464.634546 
L 894.847536 465.755739 
L 895.840242 464.780976 
L 896.832948 465.378511 
L 898.81836 464.912455 
L 900.803772 465.13978 
L 901.796477 466.037914 
L 902.789183 466.781508 
L 903.781889 464.621 
L 904.774595 465.489081 
L 905.767301 465.138884 
L 906.760007 465.640975 
L 907.752713 465.480983 
L 908.745419 464.909087 
L 909.738125 466.584651 
L 910.730831 465.515675 
L 911.723537 466.557751 
L 912.716243 466.109308 
L 913.708949 465.278762 
L 914.701655 465.741314 
L 915.69436 465.181073 
L 918.672478 466.257535 
L 919.665184 465.749315 
L 920.65789 466.545405 
L 921.650596 465.410862 
L 922.643302 466.817127 
L 923.636008 467.066433 
L 924.628714 467.526253 
L 925.62142 466.692112 
L 926.614126 466.529638 
L 927.606832 467.006445 
L 928.599537 465.830351 
L 929.592243 467.511066 
L 930.584949 465.992549 
L 931.577655 468.448379 
L 932.570361 467.193021 
L 933.563067 467.166247 
L 934.555773 467.3019 
L 935.548479 467.657646 
L 937.533891 466.645818 
L 938.526597 467.50999 
L 939.519303 467.883436 
L 940.512009 467.69071 
L 941.504714 468.062716 
L 942.49742 466.304892 
L 943.490126 468.50695 
L 945.475538 466.797433 
L 946.468244 466.572992 
L 948.453656 467.692963 
L 949.446362 468.029772 
L 950.439068 466.538356 
L 951.431774 467.973117 
L 952.42448 468.039278 
L 953.417186 467.190957 
L 954.409891 467.438241 
L 955.402597 468.170715 
L 956.395303 467.837997 
L 957.388009 467.868525 
L 958.380715 468.073781 
L 959.373421 467.806569 
L 960.366127 468.733135 
L 961.358833 467.099873 
L 962.351539 469.350463 
L 963.344245 467.719839 
L 964.336951 468.527075 
L 965.329657 466.960376 
L 967.315068 469.699726 
L 968.307774 469.678027 
L 969.30048 468.239872 
L 970.293186 467.665642 
L 971.285892 469.242586 
L 973.271304 468.368558 
L 974.26401 468.760369 
L 975.256716 469.419671 
L 976.249422 468.842975 
L 977.242128 468.596437 
L 978.234834 468.597479 
L 979.22754 468.390768 
L 980.220246 469.218672 
L 981.212951 469.522732 
L 982.205657 468.214466 
L 983.198363 469.814928 
L 985.183775 469.268904 
L 986.176481 468.614199 
L 988.161893 469.489696 
L 989.154599 468.931893 
L 990.147305 468.925342 
L 991.140011 468.58113 
L 992.132717 469.25084 
L 993.125423 470.058761 
L 994.118128 470.36459 
L 995.110834 469.508035 
L 996.10354 469.440827 
L 997.096246 469.833258 
L 998.088952 469.16812 
L 999.081658 469.519228 
L 1000.074364 469.554773 
L 1001.06707 470.520646 
L 1002.059776 470.472271 
L 1003.052482 468.552279 
L 1004.045188 469.920932 
L 1005.037894 469.140974 
L 1006.0306 469.483624 
L 1007.023305 469.581957 
L 1008.016011 470.30071 
L 1010.001423 469.782273 
L 1010.994129 469.765666 
L 1011.986835 470.354077 
L 1012.979541 469.994889 
L 1013.972247 469.101931 
L 1014.964953 471.333955 
L 1015.957659 471.219119 
L 1017.943071 470.171628 
L 1018.935777 470.950738 
L 1019.928482 470.121816 
L 1020.921188 469.842163 
L 1021.913894 470.524145 
L 1022.9066 471.501282 
L 1023.899306 470.469438 
L 1024.892012 470.445964 
L 1025.884718 470.938585 
L 1026.877424 470.270442 
L 1027.87013 471.267161 
L 1028.862836 470.422202 
L 1029.855542 470.773242 
L 1030.848248 470.524107 
L 1031.840954 470.570326 
L 1032.833659 470.351884 
L 1033.826365 470.251114 
L 1034.819071 470.58726 
L 1035.811777 470.432745 
L 1036.804483 470.7243 
L 1037.797189 469.774075 
L 1038.789895 471.07892 
L 1039.782601 471.237188 
L 1041.768013 470.576955 
L 1042.760719 470.530121 
L 1043.753425 470.7692 
L 1044.746131 471.746058 
L 1045.738837 471.153237 
L 1046.731542 470.74071 
L 1047.724248 471.273405 
L 1048.716954 470.362694 
L 1049.70966 469.954639 
L 1050.702366 470.837094 
L 1051.695072 470.90511 
L 1052.687778 470.544134 
L 1053.680484 471.10252 
L 1054.67319 471.964248 
L 1056.658602 470.845332 
L 1057.651308 471.660501 
L 1058.644014 470.578193 
L 1059.636719 470.826197 
L 1060.629425 472.323247 
L 1061.622131 470.875554 
L 1062.614837 471.039301 
L 1063.607543 473.232653 
L 1064.600249 473.209197 
L 1065.592955 472.439233 
L 1066.585661 471.388659 
L 1067.578367 470.705084 
L 1069.563779 472.51741 
L 1070.556485 471.244713 
L 1072.541896 470.856697 
L 1074.527308 472.643054 
L 1075.520014 472.103472 
L 1076.51272 471.251917 
L 1077.505426 470.93263 
L 1078.498132 471.023852 
L 1079.490838 471.706213 
L 1080.483544 471.278438 
L 1081.47625 472.045387 
L 1082.468956 471.576367 
L 1083.461662 473.452294 
L 1084.454368 471.765892 
L 1085.447073 471.203837 
L 1086.439779 472.861785 
L 1087.432485 472.777355 
L 1088.425191 471.610555 
L 1089.417897 471.938672 
L 1090.410603 471.604273 
L 1091.403309 473.015725 
L 1092.396015 473.338009 
L 1094.381427 471.924234 
L 1096.366839 474.108743 
L 1097.359545 471.876695 
L 1098.35225 472.573743 
L 1099.344956 472.917436 
L 1100.337662 472.319947 
L 1101.330368 471.892883 
L 1102.323074 472.551015 
L 1103.31578 472.138648 
L 1104.308486 473.628233 
L 1105.301192 473.480026 
L 1106.293898 471.982694 
L 1107.286604 471.921925 
L 1108.27931 473.016321 
L 1109.272016 472.165224 
L 1110.264722 471.987496 
L 1111.257428 472.13898 
L 1112.250133 473.213263 
L 1113.242839 474.49946 
L 1114.235545 474.017296 
L 1115.228251 472.430832 
L 1116.220957 473.368239 
L 1117.213663 473.85907 
L 1118.206369 472.216066 
L 1119.199075 473.108101 
L 1120.191781 473.645391 
L 1121.184487 471.654209 
L 1122.177193 473.22084 
L 1123.169899 472.163188 
L 1124.162605 471.642915 
L 1125.15531 472.587604 
L 1126.148016 472.787309 
L 1127.140722 473.796827 
L 1128.133428 472.255046 
L 1129.126134 473.659677 
L 1130.11884 471.595539 
L 1131.111546 473.043594 
L 1132.104252 473.501838 
L 1133.096958 473.161268 
L 1134.089664 472.593506 
L 1135.08237 473.665109 
L 1136.075076 472.612752 
L 1137.067782 473.376554 
L 1138.060487 471.442592 
L 1139.053193 474.503948 
L 1140.045899 472.911583 
L 1141.038605 472.718249 
L 1142.031311 474.348212 
L 1143.024017 472.661559 
L 1144.016723 472.207883 
L 1145.009429 473.527622 
L 1146.002135 473.803247 
L 1146.994841 473.048705 
L 1147.987547 472.828258 
L 1148.980253 473.324288 
L 1149.972959 473.448288 
L 1150.965664 473.413651 
L 1151.95837 473.651614 
L 1152.951076 474.742543 
L 1153.943782 472.750187 
L 1154.936488 472.249311 
L 1155.929194 472.104441 
L 1156.9219 473.853293 
L 1157.914606 474.320197 
L 1158.907312 473.747525 
L 1159.900018 473.86807 
L 1160.892724 472.493436 
L 1161.88543 474.093713 
L 1162.878136 473.195285 
L 1163.870841 472.936679 
L 1164.863547 475.020351 
L 1165.856253 474.019264 
L 1166.848959 474.502652 
L 1168.834371 472.598419 
L 1169.827077 473.616916 
L 1170.819783 475.452593 
L 1172.805195 473.784765 
L 1173.797901 474.80641 
L 1175.783313 472.96829 
L 1176.776019 474.484728 
L 1177.768724 473.104419 
L 1178.76143 474.0998 
L 1179.754136 474.209473 
L 1180.746842 474.913833 
L 1181.739548 472.844723 
L 1183.72496 473.132105 
L 1184.717666 475.077707 
L 1185.710372 473.151516 
L 1186.703078 472.36926 
L 1187.695784 473.985046 
L 1188.68849 474.182854 
L 1189.681196 473.425375 
L 1190.673901 474.437414 
L 1191.666607 473.114189 
L 1192.659313 475.193177 
L 1193.652019 474.38661 
L 1194.644725 474.2088 
L 1195.637431 473.265413 
L 1196.630137 475.300672 
L 1197.622843 474.919907 
L 1198.615549 473.523404 
L 1199.608255 474.408976 
L 1200.600961 474.60523 
L 1202.586373 473.723458 
L 1203.579078 475.235223 
L 1204.571784 473.907155 
L 1205.56449 473.74608 
L 1207.549902 474.289585 
L 1208.542608 474.736555 
L 1209.535314 472.032774 
L 1210.52802 474.92573 
L 1211.520726 474.873743 
L 1212.513432 473.677467 
L 1213.506138 473.680328 
L 1214.498844 473.114606 
L 1215.49155 473.839568 
L 1216.484255 473.957074 
L 1217.476961 473.755304 
L 1218.469667 474.037504 
L 1219.462373 474.623707 
L 1220.455079 473.284482 
L 1221.447785 473.842426 
L 1222.440491 473.889862 
L 1223.433197 473.220289 
L 1224.425903 474.452133 
L 1226.411315 474.305484 
L 1227.404021 474.2583 
L 1228.396727 472.424674 
L 1229.389432 475.410396 
L 1230.382138 473.622951 
L 1231.374844 474.692999 
L 1232.36755 474.253506 
L 1233.360256 473.966887 
L 1234.352962 474.048477 
L 1235.345668 473.771265 
L 1236.338374 473.977967 
L 1237.33108 474.773714 
L 1238.323786 474.789146 
L 1239.316492 474.316421 
L 1240.309198 473.032829 
L 1241.301904 474.077642 
L 1242.29461 473.761763 
L 1243.287315 473.809179 
L 1244.280021 473.21268 
L 1245.272727 473.013787 
L 1245.272727 473.013787 
" clip-path="url(#p8bc88acb83)" style="fill: none; stroke: #1f77b4; stroke-width: 1.5; stroke-linecap: square"/>
   </g>
   <g id="patch_3">
    <path d="M 180 512.64 
L 180 69.12 
" style="fill: none; stroke: #000000; stroke-width: 0.8; stroke-linejoin: miter; stroke-linecap: square"/>
   </g>
   <g id="patch_4">
    <path d="M 1296 512.64 
L 1296 69.12 
" style="fill: none; stroke: #000000; stroke-width: 0.8; stroke-linejoin: miter; stroke-linecap: square"/>
   </g>
   <g id="patch_5">
    <path d="M 180 512.64 
L 1296 512.64 
" style="fill: none; stroke: #000000; stroke-width: 0.8; stroke-linejoin: miter; stroke-linecap: square"/>
   </g>
   <g id="patch_6">
    <path d="M 180 69.12 
L 1296 69.12 
" style="fill: none; stroke: #000000; stroke-width: 0.8; stroke-linejoin: miter; stroke-linecap: square"/>
   </g>
   <g id="text_15">
    <!-- source2-receiver19 -->
    <g transform="translate(544.9 60.80125) scale(0.4 -0.4)">
     <defs>
      <path id="DejaVuSans-73" d="M 2834 3397 
L 2834 2853 
Q 2591 2978 2328 3040 
Q 2066 3103 1784 3103 
Q 1356 3103 1142 2972 
Q 928 2841 928 2578 
Q 928 2378 1081 2264 
Q 1234 2150 1697 2047 
L 1894 2003 
Q 2506 1872 2764 1633 
Q 3022 1394 3022 966 
Q 3022 478 2636 193 
Q 2250 -91 1575 -91 
Q 1294 -91 989 -36 
Q 684 19 347 128 
L 347 722 
Q 666 556 975 473 
Q 1284 391 1588 391 
Q 1994 391 2212 530 
Q 2431 669 2431 922 
Q 2431 1156 2273 1281 
Q 2116 1406 1581 1522 
L 1381 1569 
Q 847 1681 609 1914 
Q 372 2147 372 2553 
Q 372 3047 722 3315 
Q 1072 3584 1716 3584 
Q 2034 3584 2315 3537 
Q 2597 3491 2834 3397 
z
" transform="scale(0.015625)"/>
      <path id="DejaVuSans-6f" d="M 1959 3097 
Q 1497 3097 1228 2736 
Q 959 2375 959 1747 
Q 959 1119 1226 758 
Q 1494 397 1959 397 
Q 2419 397 2687 759 
Q 2956 1122 2956 1747 
Q 2956 2369 2687 2733 
Q 2419 3097 1959 3097 
z
M 1959 3584 
Q 2709 3584 3137 3096 
Q 3566 2609 3566 1747 
Q 3566 888 3137 398 
Q 2709 -91 1959 -91 
Q 1206 -91 779 398 
Q 353 888 353 1747 
Q 353 2609 779 3096 
Q 1206 3584 1959 3584 
z
" transform="scale(0.015625)"/>
      <path id="DejaVuSans-75" d="M 544 1381 
L 544 3500 
L 1119 3500 
L 1119 1403 
Q 1119 906 1312 657 
Q 1506 409 1894 409 
Q 2359 409 2629 706 
Q 2900 1003 2900 1516 
L 2900 3500 
L 3475 3500 
L 3475 0 
L 2900 0 
L 2900 538 
Q 2691 219 2414 64 
Q 2138 -91 1772 -91 
Q 1169 -91 856 284 
Q 544 659 544 1381 
z
M 1991 3584 
L 1991 3584 
z
" transform="scale(0.015625)"/>
      <path id="DejaVuSans-72" d="M 2631 2963 
Q 2534 3019 2420 3045 
Q 2306 3072 2169 3072 
Q 1681 3072 1420 2755 
Q 1159 2438 1159 1844 
L 1159 0 
L 581 0 
L 581 3500 
L 1159 3500 
L 1159 2956 
Q 1341 3275 1631 3429 
Q 1922 3584 2338 3584 
Q 2397 3584 2469 3576 
Q 2541 3569 2628 3553 
L 2631 2963 
z
" transform="scale(0.015625)"/>
      <path id="DejaVuSans-63" d="M 3122 3366 
L 3122 2828 
Q 2878 2963 2633 3030 
Q 2388 3097 2138 3097 
Q 1578 3097 1268 2742 
Q 959 2388 959 1747 
Q 959 1106 1268 751 
Q 1578 397 2138 397 
Q 2388 397 2633 464 
Q 2878 531 3122 666 
L 3122 134 
Q 2881 22 2623 -34 
Q 2366 -91 2075 -91 
Q 1284 -91 818 406 
Q 353 903 353 1747 
Q 353 2603 823 3093 
Q 1294 3584 2113 3584 
Q 2378 3584 2631 3529 
Q 2884 3475 3122 3366 
z
" transform="scale(0.015625)"/>
      <path id="DejaVuSans-65" d="M 3597 1894 
L 3597 1613 
L 953 1613 
Q 991 1019 1311 708 
Q 1631 397 2203 397 
Q 2534 397 2845 478 
Q 3156 559 3463 722 
L 3463 178 
Q 3153 47 2828 -22 
Q 2503 -91 2169 -91 
Q 1331 -91 842 396 
Q 353 884 353 1716 
Q 353 2575 817 3079 
Q 1281 3584 2069 3584 
Q 2775 3584 3186 3129 
Q 3597 2675 3597 1894 
z
M 3022 2063 
Q 3016 2534 2758 2815 
Q 2500 3097 2075 3097 
Q 1594 3097 1305 2825 
Q 1016 2553 972 2059 
L 3022 2063 
z
" transform="scale(0.015625)"/>
      <path id="DejaVuSans-2d" d="M 313 2009 
L 1997 2009 
L 1997 1497 
L 313 1497 
L 313 2009 
z
" transform="scale(0.015625)"/>
      <path id="DejaVuSans-69" d="M 603 3500 
L 1178 3500 
L 1178 0 
L 603 0 
L 603 3500 
z
M 603 4863 
L 1178 4863 
L 1178 4134 
L 603 4134 
L 603 4863 
z
" transform="scale(0.015625)"/>
      <path id="DejaVuSans-76" d="M 191 3500 
L 800 3500 
L 1894 563 
L 2988 3500 
L 3597 3500 
L 2284 0 
L 1503 0 
L 191 3500 
z
" transform="scale(0.015625)"/>
      <path id="DejaVuSans-39" d="M 703 97 
L 703 672 
Q 941 559 1184 500 
Q 1428 441 1663 441 
Q 2288 441 2617 861 
Q 2947 1281 2994 2138 
Q 2813 1869 2534 1725 
Q 2256 1581 1919 1581 
Q 1219 1581 811 2004 
Q 403 2428 403 3163 
Q 403 3881 828 4315 
Q 1253 4750 1959 4750 
Q 2769 4750 3195 4129 
Q 3622 3509 3622 2328 
Q 3622 1225 3098 567 
Q 2575 -91 1691 -91 
Q 1453 -91 1209 -44 
Q 966 3 703 97 
z
M 1959 2075 
Q 2384 2075 2632 2365 
Q 2881 2656 2881 3163 
Q 2881 3666 2632 3958 
Q 2384 4250 1959 4250 
Q 1534 4250 1286 3958 
Q 1038 3666 1038 3163 
Q 1038 2656 1286 2365 
Q 1534 2075 1959 2075 
z
" transform="scale(0.015625)"/>
     </defs>
     <use xlink:href="#DejaVuSans-73"/>
     <use xlink:href="#DejaVuSans-6f" x="52.099609"/>
     <use xlink:href="#DejaVuSans-75" x="113.28125"/>
     <use xlink:href="#DejaVuSans-72" x="176.660156"/>
     <use xlink:href="#DejaVuSans-63" x="215.523438"/>
     <use xlink:href="#DejaVuSans-65" x="270.503906"/>
     <use xlink:href="#DejaVuSans-32" x="332.027344"/>
     <use xlink:href="#DejaVuSans-2d" x="395.650391"/>
     <use xlink:href="#DejaVuSans-72" x="431.734375"/>
     <use xlink:href="#DejaVuSans-65" x="470.597656"/>
     <use xlink:href="#DejaVuSans-63" x="532.121094"/>
     <use xlink:href="#DejaVuSans-65" x="587.101562"/>
     <use xlink:href="#DejaVuSans-69" x="648.625"/>
     <use xlink:href="#DejaVuSans-76" x="676.408203"/>
     <use xlink:href="#DejaVuSans-65" x="735.587891"/>
     <use xlink:href="#DejaVuSans-72" x="797.111328"/>
     <use xlink:href="#DejaVuSans-31" x="838.224609"/>
     <use xlink:href="#DejaVuSans-39" x="901.847656"/>
    </g>
   </g>
  </g>
 </g>
 <defs>
  <clipPath id="p8bc88acb83">
   <rect x="180" y="69.12" width="1116" height="443.52"/>
  </clipPath>
 </defs>
</svg>
