<?xml version="1.0" encoding="utf-8" standalone="no"?>
<!DOCTYPE svg PUBLIC "-//W3C//DTD SVG 1.1//EN"
  "http://www.w3.org/Graphics/SVG/1.1/DTD/svg11.dtd">
<svg xmlns:xlink="http://www.w3.org/1999/xlink" width="1440pt" height="576pt" viewBox="0 0 1440 576" xmlns="http://www.w3.org/2000/svg" version="1.1">
 <metadata>
  <rdf:RDF xmlns:dc="http://purl.org/dc/elements/1.1/" xmlns:cc="http://creativecommons.org/ns#" xmlns:rdf="http://www.w3.org/1999/02/22-rdf-syntax-ns#">
   <cc:Work>
    <dc:type rdf:resource="http://purl.org/dc/dcmitype/StillImage"/>
    <dc:date>2024-05-22T04:49:42.230280</dc:date>
    <dc:format>image/svg+xml</dc:format>
    <dc:creator>
     <cc:Agent>
      <dc:title>Matplotlib v3.8.3, https://matplotlib.org/</dc:title>
     </cc:Agent>
    </dc:creator>
   </cc:Work>
  </rdf:RDF>
 </metadata>
 <defs>
  <style type="text/css">*{stroke-linejoin: round; stroke-linecap: butt}</style>
 </defs>
 <g id="figure_1">
  <g id="patch_1">
   <path d="M 0 576 
L 1440 576 
L 1440 0 
L 0 0 
z
" style="fill: #ffffff"/>
  </g>
  <g id="axes_1">
   <g id="patch_2">
    <path d="M 180 512.64 
L 1296 512.64 
L 1296 69.12 
L 180 69.12 
z
" style="fill: #ffffff"/>
   </g>
   <g id="matplotlib.axis_1">
    <g id="xtick_1">
     <g id="line2d_1">
      <defs>
       <path id="mcdb58144fd" d="M 0 0 
L 0 3.5 
" style="stroke: #000000; stroke-width: 0.8"/>
      </defs>
      <g>
       <use xlink:href="#mcdb58144fd" x="229.734567" y="512.64" style="stroke: #000000; stroke-width: 0.8"/>
      </g>
     </g>
     <g id="text_1">
      <!-- 0 -->
      <g transform="translate(226.553317 527.238438) scale(0.1 -0.1)">
       <defs>
        <path id="DejaVuSans-30" d="M 2034 4250 
Q 1547 4250 1301 3770 
Q 1056 3291 1056 2328 
Q 1056 1369 1301 889 
Q 1547 409 2034 409 
Q 2525 409 2770 889 
Q 3016 1369 3016 2328 
Q 3016 3291 2770 3770 
Q 2525 4250 2034 4250 
z
M 2034 4750 
Q 2819 4750 3233 4129 
Q 3647 3509 3647 2328 
Q 3647 1150 3233 529 
Q 2819 -91 2034 -91 
Q 1250 -91 836 529 
Q 422 1150 422 2328 
Q 422 3509 836 4129 
Q 1250 4750 2034 4750 
z
" transform="scale(0.015625)"/>
       </defs>
       <use xlink:href="#DejaVuSans-30"/>
      </g>
     </g>
    </g>
    <g id="xtick_2">
     <g id="line2d_2">
      <g>
       <use xlink:href="#mcdb58144fd" x="433.04074" y="512.64" style="stroke: #000000; stroke-width: 0.8"/>
      </g>
     </g>
     <g id="text_2">
      <!-- 500 -->
      <g transform="translate(423.49699 527.238438) scale(0.1 -0.1)">
       <defs>
        <path id="DejaVuSans-35" d="M 691 4666 
L 3169 4666 
L 3169 4134 
L 1269 4134 
L 1269 2991 
Q 1406 3038 1543 3061 
Q 1681 3084 1819 3084 
Q 2600 3084 3056 2656 
Q 3513 2228 3513 1497 
Q 3513 744 3044 326 
Q 2575 -91 1722 -91 
Q 1428 -91 1123 -41 
Q 819 9 494 109 
L 494 744 
Q 775 591 1075 516 
Q 1375 441 1709 441 
Q 2250 441 2565 725 
Q 2881 1009 2881 1497 
Q 2881 1984 2565 2268 
Q 2250 2553 1709 2553 
Q 1456 2553 1204 2497 
Q 953 2441 691 2322 
L 691 4666 
z
" transform="scale(0.015625)"/>
       </defs>
       <use xlink:href="#DejaVuSans-35"/>
       <use xlink:href="#DejaVuSans-30" x="63.623047"/>
       <use xlink:href="#DejaVuSans-30" x="127.246094"/>
      </g>
     </g>
    </g>
    <g id="xtick_3">
     <g id="line2d_3">
      <g>
       <use xlink:href="#mcdb58144fd" x="636.346913" y="512.64" style="stroke: #000000; stroke-width: 0.8"/>
      </g>
     </g>
     <g id="text_3">
      <!-- 1000 -->
      <g transform="translate(623.621913 527.238438) scale(0.1 -0.1)">
       <defs>
        <path id="DejaVuSans-31" d="M 794 531 
L 1825 531 
L 1825 4091 
L 703 3866 
L 703 4441 
L 1819 4666 
L 2450 4666 
L 2450 531 
L 3481 531 
L 3481 0 
L 794 0 
L 794 531 
z
" transform="scale(0.015625)"/>
       </defs>
       <use xlink:href="#DejaVuSans-31"/>
       <use xlink:href="#DejaVuSans-30" x="63.623047"/>
       <use xlink:href="#DejaVuSans-30" x="127.246094"/>
       <use xlink:href="#DejaVuSans-30" x="190.869141"/>
      </g>
     </g>
    </g>
    <g id="xtick_4">
     <g id="line2d_4">
      <g>
       <use xlink:href="#mcdb58144fd" x="839.653087" y="512.64" style="stroke: #000000; stroke-width: 0.8"/>
      </g>
     </g>
     <g id="text_4">
      <!-- 1500 -->
      <g transform="translate(826.928087 527.238438) scale(0.1 -0.1)">
       <use xlink:href="#DejaVuSans-31"/>
       <use xlink:href="#DejaVuSans-35" x="63.623047"/>
       <use xlink:href="#DejaVuSans-30" x="127.246094"/>
       <use xlink:href="#DejaVuSans-30" x="190.869141"/>
      </g>
     </g>
    </g>
    <g id="xtick_5">
     <g id="line2d_5">
      <g>
       <use xlink:href="#mcdb58144fd" x="1042.95926" y="512.64" style="stroke: #000000; stroke-width: 0.8"/>
      </g>
     </g>
     <g id="text_5">
      <!-- 2000 -->
      <g transform="translate(1030.23426 527.238438) scale(0.1 -0.1)">
       <defs>
        <path id="DejaVuSans-32" d="M 1228 531 
L 3431 531 
L 3431 0 
L 469 0 
L 469 531 
Q 828 903 1448 1529 
Q 2069 2156 2228 2338 
Q 2531 2678 2651 2914 
Q 2772 3150 2772 3378 
Q 2772 3750 2511 3984 
Q 2250 4219 1831 4219 
Q 1534 4219 1204 4116 
Q 875 4013 500 3803 
L 500 4441 
Q 881 4594 1212 4672 
Q 1544 4750 1819 4750 
Q 2544 4750 2975 4387 
Q 3406 4025 3406 3419 
Q 3406 3131 3298 2873 
Q 3191 2616 2906 2266 
Q 2828 2175 2409 1742 
Q 1991 1309 1228 531 
z
" transform="scale(0.015625)"/>
       </defs>
       <use xlink:href="#DejaVuSans-32"/>
       <use xlink:href="#DejaVuSans-30" x="63.623047"/>
       <use xlink:href="#DejaVuSans-30" x="127.246094"/>
       <use xlink:href="#DejaVuSans-30" x="190.869141"/>
      </g>
     </g>
    </g>
    <g id="xtick_6">
     <g id="line2d_6">
      <g>
       <use xlink:href="#mcdb58144fd" x="1246.265433" y="512.64" style="stroke: #000000; stroke-width: 0.8"/>
      </g>
     </g>
     <g id="text_6">
      <!-- 2500 -->
      <g transform="translate(1233.540433 527.238438) scale(0.1 -0.1)">
       <use xlink:href="#DejaVuSans-32"/>
       <use xlink:href="#DejaVuSans-35" x="63.623047"/>
       <use xlink:href="#DejaVuSans-30" x="127.246094"/>
       <use xlink:href="#DejaVuSans-30" x="190.869141"/>
      </g>
     </g>
    </g>
   </g>
   <g id="matplotlib.axis_2">
    <g id="ytick_1">
     <g id="line2d_7">
      <defs>
       <path id="m3ea2b1f520" d="M 0 0 
L -3.5 0 
" style="stroke: #000000; stroke-width: 0.8"/>
      </defs>
      <g>
       <use xlink:href="#m3ea2b1f520" x="180" y="455.583728" style="stroke: #000000; stroke-width: 0.8"/>
      </g>
     </g>
     <g id="text_7">
      <!-- −1 -->
      <g transform="translate(158.257812 459.382947) scale(0.1 -0.1)">
       <defs>
        <path id="DejaVuSans-2212" d="M 678 2272 
L 4684 2272 
L 4684 1741 
L 678 1741 
L 678 2272 
z
" transform="scale(0.015625)"/>
       </defs>
       <use xlink:href="#DejaVuSans-2212"/>
       <use xlink:href="#DejaVuSans-31" x="83.789062"/>
      </g>
     </g>
    </g>
    <g id="ytick_2">
     <g id="line2d_8">
      <g>
       <use xlink:href="#m3ea2b1f520" x="180" y="392.681394" style="stroke: #000000; stroke-width: 0.8"/>
      </g>
     </g>
     <g id="text_8">
      <!-- 0 -->
      <g transform="translate(166.6375 396.480613) scale(0.1 -0.1)">
       <use xlink:href="#DejaVuSans-30"/>
      </g>
     </g>
    </g>
    <g id="ytick_3">
     <g id="line2d_9">
      <g>
       <use xlink:href="#m3ea2b1f520" x="180" y="329.779059" style="stroke: #000000; stroke-width: 0.8"/>
      </g>
     </g>
     <g id="text_9">
      <!-- 1 -->
      <g transform="translate(166.6375 333.578278) scale(0.1 -0.1)">
       <use xlink:href="#DejaVuSans-31"/>
      </g>
     </g>
    </g>
    <g id="ytick_4">
     <g id="line2d_10">
      <g>
       <use xlink:href="#m3ea2b1f520" x="180" y="266.876725" style="stroke: #000000; stroke-width: 0.8"/>
      </g>
     </g>
     <g id="text_10">
      <!-- 2 -->
      <g transform="translate(166.6375 270.675943) scale(0.1 -0.1)">
       <use xlink:href="#DejaVuSans-32"/>
      </g>
     </g>
    </g>
    <g id="ytick_5">
     <g id="line2d_11">
      <g>
       <use xlink:href="#m3ea2b1f520" x="180" y="203.97439" style="stroke: #000000; stroke-width: 0.8"/>
      </g>
     </g>
     <g id="text_11">
      <!-- 3 -->
      <g transform="translate(166.6375 207.773609) scale(0.1 -0.1)">
       <defs>
        <path id="DejaVuSans-33" d="M 2597 2516 
Q 3050 2419 3304 2112 
Q 3559 1806 3559 1356 
Q 3559 666 3084 287 
Q 2609 -91 1734 -91 
Q 1441 -91 1130 -33 
Q 819 25 488 141 
L 488 750 
Q 750 597 1062 519 
Q 1375 441 1716 441 
Q 2309 441 2620 675 
Q 2931 909 2931 1356 
Q 2931 1769 2642 2001 
Q 2353 2234 1838 2234 
L 1294 2234 
L 1294 2753 
L 1863 2753 
Q 2328 2753 2575 2939 
Q 2822 3125 2822 3475 
Q 2822 3834 2567 4026 
Q 2313 4219 1838 4219 
Q 1578 4219 1281 4162 
Q 984 4106 628 3988 
L 628 4550 
Q 988 4650 1302 4700 
Q 1616 4750 1894 4750 
Q 2613 4750 3031 4423 
Q 3450 4097 3450 3541 
Q 3450 3153 3228 2886 
Q 3006 2619 2597 2516 
z
" transform="scale(0.015625)"/>
       </defs>
       <use xlink:href="#DejaVuSans-33"/>
      </g>
     </g>
    </g>
    <g id="ytick_6">
     <g id="line2d_12">
      <g>
       <use xlink:href="#m3ea2b1f520" x="180" y="141.072056" style="stroke: #000000; stroke-width: 0.8"/>
      </g>
     </g>
     <g id="text_12">
      <!-- 4 -->
      <g transform="translate(166.6375 144.871274) scale(0.1 -0.1)">
       <defs>
        <path id="DejaVuSans-34" d="M 2419 4116 
L 825 1625 
L 2419 1625 
L 2419 4116 
z
M 2253 4666 
L 3047 4666 
L 3047 1625 
L 3713 1625 
L 3713 1100 
L 3047 1100 
L 3047 0 
L 2419 0 
L 2419 1100 
L 313 1100 
L 313 1709 
L 2253 4666 
z
" transform="scale(0.015625)"/>
       </defs>
       <use xlink:href="#DejaVuSans-34"/>
      </g>
     </g>
    </g>
    <g id="ytick_7">
     <g id="line2d_13">
      <g>
       <use xlink:href="#m3ea2b1f520" x="180" y="78.169721" style="stroke: #000000; stroke-width: 0.8"/>
      </g>
     </g>
     <g id="text_13">
      <!-- 5 -->
      <g transform="translate(166.6375 81.96894) scale(0.1 -0.1)">
       <use xlink:href="#DejaVuSans-35"/>
      </g>
     </g>
    </g>
   </g>
   <g id="line2d_14">
    <path d="M 230.727273 411.930944 
L 231.719979 410.433076 
L 232.712685 408.504965 
L 234.698096 402.231458 
L 236.683508 393.766039 
L 238.66892 383.74808 
L 240.654332 372.409333 
L 242.639744 359.254607 
L 244.625156 343.356688 
L 245.617862 333.162231 
L 246.610568 320.504343 
L 247.603273 315.395 
L 248.595979 321.284813 
L 250.581391 249.204391 
L 251.574097 240.361033 
L 252.566803 277.684485 
L 253.559509 285.115158 
L 254.552215 212.777164 
L 255.544921 194.704634 
L 256.537627 203.923436 
L 257.530333 215.333753 
L 258.523039 201.564671 
L 259.515745 199.771655 
L 260.50845 221.281061 
L 261.501156 235.614741 
L 262.493862 224.346791 
L 263.486568 230.992777 
L 264.479274 230.149424 
L 265.47198 199.355475 
L 266.464686 189.470105 
L 267.457392 197.6363 
L 268.450098 178.794803 
L 269.442804 165.944231 
L 270.43551 179.632925 
L 272.420922 141.979725 
L 273.413627 162.515467 
L 274.406333 279.646151 
L 275.399039 163.821846 
L 276.391745 138.875102 
L 277.384451 131.807559 
L 278.377157 137.731911 
L 279.369863 153.513111 
L 280.362569 144.678155 
L 281.355275 153.232908 
L 282.347981 206.662052 
L 283.340687 119.948115 
L 284.333393 100.805511 
L 285.326099 137.127873 
L 286.318804 148.438524 
L 287.31151 89.28 
L 288.304216 91.520906 
L 289.296922 147.560992 
L 290.289628 121.788684 
L 291.282334 101.608811 
L 292.27504 126.79024 
L 293.267746 176.019052 
L 294.260452 172.882648 
L 295.253158 185.62608 
L 296.245864 186.708033 
L 298.231276 254.683755 
L 299.223981 208.561953 
L 300.216687 245.010729 
L 301.209393 314.163906 
L 302.202099 287.511372 
L 303.194805 326.316531 
L 304.187511 277.488712 
L 305.180217 311.817864 
L 306.172923 285.955255 
L 307.165629 286.174226 
L 308.158335 323.745748 
L 309.151041 310.735425 
L 310.143747 331.750917 
L 311.136453 320.303288 
L 312.129159 327.938937 
L 313.121864 338.214316 
L 314.11457 326.051268 
L 315.107276 336.995514 
L 316.099982 332.066463 
L 317.092688 339.884252 
L 318.085394 337.057436 
L 319.0781 336.837983 
L 320.070806 344.555413 
L 321.063512 341.011131 
L 322.056218 344.569203 
L 323.048924 346.527008 
L 324.04163 345.591307 
L 325.034336 348.761892 
L 326.027041 350.016914 
L 327.019747 349.628142 
L 328.012453 350.195296 
L 329.005159 355.043677 
L 329.997865 351.865266 
L 330.990571 355.387165 
L 331.983277 356.163881 
L 332.975983 354.091076 
L 333.968689 362.426408 
L 334.961395 360.413762 
L 335.954101 357.369562 
L 336.946807 364.4595 
L 337.939513 361.037953 
L 338.932218 360.587255 
L 339.924924 364.6701 
L 340.91763 363.088682 
L 342.903042 367.191963 
L 343.895748 370.026941 
L 344.888454 366.654499 
L 345.88116 373.394462 
L 346.873866 370.508757 
L 347.866572 370.202613 
L 348.859278 376.034011 
L 349.851984 365.423043 
L 350.84469 374.462798 
L 351.837395 374.901412 
L 352.830101 366.07242 
L 353.822807 383.689763 
L 354.815513 375.565163 
L 355.808219 374.568174 
L 356.800925 380.923125 
L 357.793631 374.078776 
L 358.786337 378.700224 
L 359.779043 382.211047 
L 360.771749 375.663175 
L 361.764455 386.125046 
L 362.757161 378.737064 
L 363.749867 381.91581 
L 364.742572 384.223044 
L 365.735278 380.045436 
L 366.727984 387.05956 
L 367.72069 384.500471 
L 368.713396 384.904687 
L 369.706102 389.628137 
L 370.698808 384.524054 
L 371.691514 387.896553 
L 372.68422 383.399461 
L 373.676926 388.928878 
L 374.669632 384.226867 
L 375.662338 391.339119 
L 376.655044 393.371067 
L 377.64775 388.515396 
L 378.640455 390.593626 
L 379.633161 389.771709 
L 380.625867 392.250422 
L 381.618573 393.831124 
L 382.611279 391.763291 
L 383.603985 396.002145 
L 384.596691 393.413575 
L 385.589397 393.690092 
L 386.582103 392.437477 
L 387.574809 392.082275 
L 388.567515 394.488095 
L 389.560221 398.036181 
L 390.552927 396.343244 
L 391.545632 402.318157 
L 392.538338 397.985503 
L 393.531044 395.747041 
L 394.52375 401.653187 
L 395.516456 396.610865 
L 396.509162 398.304321 
L 397.501868 404.156002 
L 398.494574 399.596749 
L 399.48728 397.478143 
L 400.479986 399.928824 
L 401.472692 404.376229 
L 402.465398 400.105489 
L 403.458104 407.96492 
L 404.450809 397.095923 
L 405.443515 404.762522 
L 406.436221 397.580995 
L 407.428927 402.679715 
L 408.421633 405.102287 
L 409.414339 406.757217 
L 410.407045 408.165034 
L 411.399751 406.820549 
L 412.392457 406.977558 
L 413.385163 405.555134 
L 414.377869 410.481098 
L 415.370575 403.795655 
L 416.363281 406.987224 
L 417.355986 407.927222 
L 418.348692 410.195053 
L 419.341398 411.580119 
L 421.32681 411.171568 
L 422.319516 407.243161 
L 423.312222 408.413324 
L 424.304928 407.312187 
L 425.297634 411.806496 
L 426.29034 413.549485 
L 427.283046 405.297426 
L 428.275752 416.372214 
L 429.268458 407.002327 
L 430.261163 420.453425 
L 431.253869 406.115999 
L 432.246575 419.059156 
L 433.239281 408.621572 
L 434.231987 410.579111 
L 435.224693 411.256516 
L 436.217399 411.534401 
L 437.210105 421.197844 
L 438.202811 415.485718 
L 439.195517 417.288125 
L 440.188223 417.802446 
L 441.180929 418.679862 
L 442.173635 415.308352 
L 443.166341 417.38482 
L 444.159046 415.130682 
L 445.151752 415.073021 
L 446.144458 416.073384 
L 447.137164 418.130744 
L 448.12987 418.100074 
L 449.122576 418.639419 
L 450.115282 417.790182 
L 451.107988 418.942141 
L 452.100694 421.115431 
L 453.0934 421.036127 
L 454.086106 424.430518 
L 455.078812 423.842333 
L 456.071518 423.434976 
L 457.064223 422.68507 
L 458.056929 419.767287 
L 459.049635 422.565654 
L 460.042341 420.592017 
L 461.035047 420.324062 
L 462.027753 423.179245 
L 463.020459 428.049613 
L 465.005871 423.577567 
L 465.998577 420.276251 
L 466.991283 422.946285 
L 467.983989 422.645998 
L 468.976695 427.440988 
L 469.9694 429.715526 
L 470.962106 430.061584 
L 471.954812 432.687419 
L 472.947518 424.731254 
L 473.940224 429.885538 
L 474.93293 424.286273 
L 475.925636 432.215372 
L 476.918342 427.801312 
L 477.911048 425.833091 
L 478.903754 430.190737 
L 479.89646 423.734991 
L 480.889166 431.48465 
L 481.881872 427.00746 
L 482.874577 429.485641 
L 483.867283 432.580094 
L 484.859989 427.52501 
L 485.852695 431.801331 
L 486.845401 428.563638 
L 487.838107 431.59055 
L 488.830813 428.881081 
L 489.823519 431.447715 
L 490.816225 434.808395 
L 491.808931 426.074857 
L 492.801637 436.657246 
L 493.794343 429.372234 
L 494.787049 433.35928 
L 495.779754 436.41289 
L 496.77246 429.961076 
L 497.765166 441.539577 
L 498.757872 434.061396 
L 499.750578 432.079245 
L 500.743284 437.269187 
L 501.73599 435.170469 
L 502.728696 436.228642 
L 503.721402 430.968141 
L 504.714108 432.787182 
L 505.706814 433.862225 
L 506.69952 430.594256 
L 507.692226 434.547703 
L 508.684932 435.407786 
L 509.677637 428.072498 
L 510.670343 435.517175 
L 511.663049 436.225897 
L 512.655755 429.631732 
L 513.648461 439.383454 
L 514.641167 434.345803 
L 515.633873 438.13725 
L 516.626579 429.479271 
L 518.611991 441.599224 
L 519.604697 432.230721 
L 520.597403 447.775192 
L 521.590109 432.922703 
L 522.582814 438.635031 
L 523.57552 439.255481 
L 524.568226 439.162825 
L 525.560932 444.126445 
L 526.553638 437.331045 
L 527.546344 439.643672 
L 528.53905 439.016376 
L 529.531756 435.751572 
L 530.524462 440.068668 
L 531.517168 435.699635 
L 533.50258 444.794616 
L 534.495286 443.049074 
L 535.487991 442.630892 
L 536.480697 439.080894 
L 537.473403 436.519265 
L 538.466109 440.87862 
L 539.458815 442.44434 
L 540.451521 439.816729 
L 541.444227 447.913378 
L 542.436933 435.205977 
L 543.429639 456.758449 
L 544.422345 435.073713 
L 545.415051 450.929183 
L 546.407757 436.004034 
L 547.400463 453.8217 
L 548.393168 442.336908 
L 549.385874 445.314581 
L 550.37858 445.283887 
L 551.371286 437.92791 
L 552.363992 447.773228 
L 553.356698 437.205976 
L 554.349404 455.962205 
L 555.34211 442.155642 
L 556.334816 439.135657 
L 557.327522 442.784136 
L 558.320228 449.348443 
L 559.312934 444.12474 
L 560.30564 442.432347 
L 561.298345 446.869593 
L 562.291051 442.56845 
L 563.283757 441.791626 
L 564.276463 442.429917 
L 565.269169 438.539871 
L 566.261875 446.775227 
L 567.254581 447.87008 
L 568.247287 446.710121 
L 569.239993 443.905113 
L 570.232699 448.066949 
L 571.225405 448.976847 
L 572.218111 443.313117 
L 573.210817 447.873852 
L 574.203523 444.45802 
L 575.196228 450.475517 
L 576.188934 451.827366 
L 577.18164 454.481174 
L 578.174346 447.481708 
L 579.167052 447.398946 
L 580.159758 449.303398 
L 581.152464 442.991711 
L 582.14517 451.683751 
L 583.137876 450.89675 
L 584.130582 453.423306 
L 585.123288 449.651747 
L 586.115994 450.795892 
L 587.1087 450.44038 
L 588.101405 450.686922 
L 589.094111 449.936342 
L 590.086817 458.739386 
L 591.079523 448.54012 
L 593.064935 453.705682 
L 594.057641 451.612606 
L 595.050347 451.214456 
L 596.043053 452.535829 
L 597.035759 452.172067 
L 598.028465 451.612792 
L 599.021171 446.960647 
L 600.013877 445.039699 
L 601.006582 451.68413 
L 601.999288 453.601607 
L 602.991994 450.899469 
L 603.9847 451.246908 
L 604.977406 455.96341 
L 605.970112 456.304283 
L 606.962818 453.578894 
L 607.955524 451.988697 
L 608.94823 453.165207 
L 609.940936 452.709723 
L 610.933642 452.681965 
L 611.926348 453.19105 
L 612.919054 452.276651 
L 613.911759 454.302041 
L 614.904465 454.943756 
L 615.897171 459.886255 
L 616.889877 453.52621 
L 617.882583 452.311124 
L 618.875289 452.64583 
L 619.867995 454.372217 
L 620.860701 452.822123 
L 621.853407 455.852071 
L 622.846113 452.319335 
L 623.838819 454.739705 
L 624.831525 456.011503 
L 625.824231 455.016128 
L 626.816936 455.215567 
L 627.809642 458.446852 
L 628.802348 454.479614 
L 629.795054 459.551838 
L 630.78776 457.868862 
L 631.780466 455.719979 
L 632.773172 455.230469 
L 633.765878 456.994709 
L 634.758584 459.229592 
L 635.75129 457.957524 
L 636.743996 460.314286 
L 637.736702 456.92369 
L 638.729408 459.335128 
L 639.722114 459.352946 
L 640.714819 457.842735 
L 641.707525 458.452362 
L 642.700231 457.749094 
L 643.692937 460.000933 
L 644.685643 457.916714 
L 645.678349 457.70255 
L 647.663761 458.541526 
L 648.656467 460.015942 
L 649.649173 459.1897 
L 650.641879 459.363126 
L 651.634585 458.670726 
L 652.627291 458.980217 
L 653.619996 460.350391 
L 654.612702 459.464781 
L 655.605408 462.130476 
L 656.598114 460.448775 
L 657.59082 459.612822 
L 658.583526 459.917578 
L 659.576232 461.749798 
L 662.55435 460.563865 
L 663.547056 461.962773 
L 664.539762 462.212423 
L 665.532468 462.221229 
L 666.525173 462.8097 
L 667.517879 461.914179 
L 668.510585 461.383768 
L 669.503291 462.008493 
L 670.495997 462.069517 
L 671.488703 462.271752 
L 672.481409 462.946006 
L 673.474115 463.994253 
L 674.466821 462.56143 
L 675.459527 463.361518 
L 676.452233 462.398725 
L 677.444939 464.615704 
L 678.437645 461.747587 
L 680.423056 464.278471 
L 681.415762 463.423818 
L 682.408468 462.779385 
L 683.401174 464.083672 
L 684.39388 463.495735 
L 685.386586 463.691182 
L 686.379292 463.332779 
L 687.371998 464.309142 
L 688.364704 464.771792 
L 689.35741 464.258075 
L 690.350116 466.05001 
L 691.342822 464.256134 
L 692.335527 464.965571 
L 693.328233 464.597677 
L 694.320939 464.889531 
L 695.313645 464.935859 
L 696.306351 465.322787 
L 697.299057 464.873993 
L 698.291763 465.761007 
L 699.284469 465.914545 
L 700.277175 465.435744 
L 701.269881 466.194599 
L 703.255293 465.689668 
L 704.247999 466.134293 
L 705.240705 466.088551 
L 706.23341 466.286933 
L 707.226116 467.230594 
L 708.218822 466.894224 
L 709.211528 466.891463 
L 710.204234 466.575862 
L 711.19694 467.219096 
L 712.189646 466.9464 
L 713.182352 467.325901 
L 714.175058 466.779159 
L 715.167764 467.138861 
L 716.16047 467.705847 
L 719.138587 467.541735 
L 720.131293 468.012201 
L 722.116705 467.435442 
L 723.109411 468.193128 
L 724.102117 468.268985 
L 725.094823 468.542029 
L 726.087529 468.352242 
L 727.080235 468.896874 
L 728.072941 468.507763 
L 729.065647 468.956095 
L 730.058353 468.7397 
L 731.051059 469.432934 
L 732.043764 468.570485 
L 733.03647 469.156045 
L 735.021882 469.469872 
L 736.014588 470.041658 
L 737.007294 469.017283 
L 738 469.60666 
L 738.992706 469.570842 
L 741.970824 470.354025 
L 742.96353 469.96478 
L 743.956236 470.159358 
L 744.948941 470.222843 
L 746.934353 470.584928 
L 747.927059 471.128997 
L 748.919765 470.455892 
L 749.912471 470.816627 
L 750.905177 470.712323 
L 751.897883 471.087813 
L 752.890589 471.320673 
L 753.883295 471.240645 
L 754.876001 471.66088 
L 755.868707 471.226887 
L 758.846824 471.482502 
L 759.83953 471.43078 
L 760.832236 471.873608 
L 761.824942 472.050632 
L 762.817648 471.972367 
L 763.810354 471.686052 
L 764.80306 472.495295 
L 766.788472 472.327627 
L 767.781178 472.597978 
L 768.773884 472.504631 
L 769.76659 472.707963 
L 770.759295 472.690322 
L 771.752001 472.999423 
L 772.744707 472.695283 
L 773.737413 473.1174 
L 774.730119 473.411495 
L 775.722825 472.632736 
L 777.708237 473.40932 
L 779.693649 473.666727 
L 780.686355 473.809549 
L 781.679061 473.548747 
L 782.671767 473.85653 
L 783.664473 473.879572 
L 784.657178 474.236918 
L 785.649884 474.389629 
L 786.64259 474.277249 
L 787.635296 474.522486 
L 788.628002 473.904499 
L 789.620708 474.223912 
L 790.613414 474.147713 
L 791.60612 474.879652 
L 792.598826 474.232556 
L 793.591532 475.05738 
L 794.584238 475.189343 
L 795.576944 475.07965 
L 796.56965 475.265007 
L 798.555061 474.924892 
L 799.547767 475.200177 
L 800.540473 474.748364 
L 801.533179 475.755571 
L 802.525885 475.415599 
L 803.518591 476.119312 
L 804.511297 475.516454 
L 807.489415 475.586565 
L 808.482121 476.02074 
L 809.474827 476.006553 
L 810.467532 476.316075 
L 811.460238 475.904141 
L 813.44565 476.474961 
L 814.438356 476.095677 
L 815.431062 476.815592 
L 816.423768 476.718062 
L 817.416474 477.037984 
L 818.40918 476.649863 
L 819.401886 476.522959 
L 820.394592 477.062147 
L 821.387298 476.929515 
L 822.380004 477.383802 
L 823.372709 477.046347 
L 826.350827 477.196943 
L 827.343533 477.808916 
L 828.336239 477.343197 
L 829.328945 477.41182 
L 830.321651 477.790967 
L 831.314357 477.591035 
L 832.307063 478.061518 
L 833.299769 477.876856 
L 834.292475 478.065439 
L 835.285181 477.905536 
L 838.263298 478.051163 
L 839.256004 478.331166 
L 842.234122 478.482525 
L 843.226828 478.691643 
L 848.190358 478.738979 
L 849.183064 478.432121 
L 850.175769 479.294512 
L 851.168475 479.156022 
L 852.161181 479.16433 
L 853.153887 479.052959 
L 854.146593 479.667053 
L 855.139299 479.695243 
L 856.132005 479.151651 
L 858.117417 479.677799 
L 860.102829 479.640486 
L 861.095535 480.093654 
L 863.080946 479.877424 
L 864.073652 480.116086 
L 865.066358 479.962576 
L 866.059064 480.030081 
L 867.05177 479.786578 
L 868.044476 480.20901 
L 869.037182 480.343567 
L 870.029888 480.743274 
L 871.022594 480.119192 
L 872.0153 480.791028 
L 873.008006 480.315677 
L 874.993418 480.724112 
L 875.986123 480.978554 
L 876.978829 480.954268 
L 877.971535 481.131372 
L 878.964241 480.968189 
L 879.956947 481.255706 
L 880.949653 481.144633 
L 881.942359 481.325326 
L 882.935065 481.295911 
L 883.927771 481.064224 
L 884.920477 481.379426 
L 885.913183 481.46084 
L 886.905889 481.915408 
L 887.898595 481.18205 
L 888.8913 481.880346 
L 889.884006 481.679965 
L 890.876712 481.74783 
L 891.869418 482.002019 
L 892.862124 481.713102 
L 893.85483 482.298489 
L 894.847536 482.373376 
L 895.840242 481.885884 
L 896.832948 482.352874 
L 897.825654 482.537302 
L 898.81836 482.071236 
L 900.803772 482.304366 
L 901.796477 482.132581 
L 902.789183 482.679522 
L 903.781889 482.50695 
L 904.774595 482.155028 
L 905.767301 482.679761 
L 907.752713 482.379054 
L 908.745419 482.799846 
L 910.730831 482.522087 
L 911.723537 482.708715 
L 912.716243 482.645069 
L 913.708949 482.739799 
L 914.701655 483.283099 
L 915.69436 483.071748 
L 916.687066 483.249947 
L 918.672478 483.311795 
L 919.665184 483.039446 
L 920.65789 483.278832 
L 921.650596 483.229118 
L 922.643302 483.743173 
L 923.636008 483.572598 
L 924.628714 483.807857 
L 925.62142 483.339303 
L 926.614126 483.019287 
L 927.606832 483.941687 
L 928.599537 483.70042 
L 929.592243 484.262934 
L 930.584949 484.128923 
L 931.577655 483.80178 
L 932.570361 484.236414 
L 933.563067 484.209173 
L 934.555773 483.993332 
L 935.548479 484.510694 
L 936.541185 483.800636 
L 937.533891 484.702949 
L 939.519303 484.366377 
L 940.512009 484.623437 
L 941.504714 484.410113 
L 942.49742 484.981795 
L 943.490126 485.087106 
L 945.475538 484.638285 
L 946.468244 484.759307 
L 947.46095 484.67933 
L 948.453656 485.206744 
L 949.446362 484.807848 
L 950.439068 485.337211 
L 951.431774 485.230612 
L 952.42448 485.010029 
L 953.417186 485.00835 
L 954.409891 485.306065 
L 955.402597 485.31006 
L 956.395303 485.620829 
L 957.388009 485.313459 
L 959.373421 485.338184 
L 960.366127 485.107711 
L 961.358833 485.336333 
L 962.351539 485.755156 
L 963.344245 485.418271 
L 964.336951 485.649091 
L 966.322363 485.379039 
L 967.315068 486.30848 
L 968.307774 485.940913 
L 969.30048 485.993164 
L 970.293186 485.759352 
L 971.285892 486.157483 
L 972.278598 486.193863 
L 973.271304 485.998136 
L 975.256716 486.347237 
L 977.242128 486.043073 
L 978.234834 486.732107 
L 979.22754 486.347343 
L 981.212951 486.366966 
L 982.205657 486.813492 
L 983.198363 486.117476 
L 984.191069 486.687474 
L 985.183775 486.496102 
L 986.176481 486.752127 
L 987.169187 486.882537 
L 989.154599 486.836527 
L 990.147305 486.627374 
L 992.132717 486.55144 
L 993.125423 487.085491 
L 994.118128 486.719298 
L 995.110834 487.264339 
L 996.10354 487.400527 
L 997.096246 486.712881 
L 998.088952 486.810399 
L 999.081658 487.16234 
L 1000.074364 487.176888 
L 1001.06707 486.883584 
L 1002.059776 487.272037 
L 1003.052482 487.277084 
L 1004.045188 486.986274 
L 1005.037894 487.271123 
L 1006.0306 487.040241 
L 1007.023305 487.080614 
L 1008.016011 487.28152 
L 1009.008717 487.095741 
L 1010.001423 487.672074 
L 1010.994129 487.394469 
L 1011.986835 487.54325 
L 1012.979541 487.895567 
L 1013.972247 487.564684 
L 1014.964953 487.664417 
L 1015.957659 487.948762 
L 1016.950365 487.708368 
L 1017.943071 488.565186 
L 1018.935777 488.240825 
L 1019.928482 487.718988 
L 1020.921188 488.220538 
L 1021.913894 487.769098 
L 1022.9066 488.350418 
L 1023.899306 487.636014 
L 1027.87013 488.735807 
L 1028.862836 488.197608 
L 1030.848248 488.519782 
L 1031.840954 488.524674 
L 1032.833659 488.266153 
L 1033.826365 488.200211 
L 1034.819071 488.413587 
L 1035.811777 488.433205 
L 1037.797189 488.185012 
L 1038.789895 488.254473 
L 1039.782601 488.87019 
L 1040.775307 488.541748 
L 1041.768013 488.72883 
L 1042.760719 489.080225 
L 1043.753425 488.663431 
L 1044.746131 488.995839 
L 1045.738837 489.039928 
L 1046.731542 487.993219 
L 1047.724248 488.891777 
L 1049.70966 488.774654 
L 1050.702366 489.402275 
L 1051.695072 488.883088 
L 1052.687778 489.205979 
L 1053.680484 489.023092 
L 1054.67319 489.062179 
L 1056.658602 488.707968 
L 1058.644014 489.164794 
L 1059.636719 488.372111 
L 1060.629425 489.475084 
L 1061.622131 489.768393 
L 1063.607543 489.220738 
L 1064.600249 489.630346 
L 1065.592955 489.573505 
L 1066.585661 489.34003 
L 1067.578367 489.29924 
L 1069.563779 489.683116 
L 1070.556485 489.299248 
L 1071.549191 489.75537 
L 1072.541896 489.736518 
L 1074.527308 490.11111 
L 1076.51272 489.769233 
L 1077.505426 490.195106 
L 1078.498132 489.611712 
L 1079.490838 489.546225 
L 1080.483544 489.811295 
L 1081.47625 489.259314 
L 1082.468956 489.716038 
L 1083.461662 489.605595 
L 1084.454368 489.930883 
L 1085.447073 489.933426 
L 1087.432485 489.712436 
L 1088.425191 489.797802 
L 1089.417897 490.132727 
L 1091.403309 489.761978 
L 1092.396015 490.121527 
L 1093.388721 490.203403 
L 1094.381427 490.415857 
L 1095.374133 490.400069 
L 1096.366839 489.899215 
L 1097.359545 490.679593 
L 1098.35225 490.079661 
L 1099.344956 490.390784 
L 1100.337662 489.968009 
L 1101.330368 490.143928 
L 1102.323074 490.502854 
L 1103.31578 489.957758 
L 1105.301192 489.983641 
L 1106.293898 490.641191 
L 1107.286604 490.577932 
L 1108.27931 490.241927 
L 1109.272016 490.396695 
L 1110.264722 490.262791 
L 1112.250133 490.316151 
L 1113.242839 490.697062 
L 1114.235545 490.754289 
L 1115.228251 490.480926 
L 1116.220957 490.366777 
L 1117.213663 490.814268 
L 1118.206369 490.455731 
L 1119.199075 490.373257 
L 1120.191781 490.40648 
L 1121.184487 490.64671 
L 1122.177193 490.699021 
L 1123.169899 491.121397 
L 1124.162605 490.974874 
L 1125.15531 490.355304 
L 1127.140722 490.985967 
L 1128.133428 490.667615 
L 1129.126134 491.029354 
L 1130.11884 491.178979 
L 1131.111546 490.703393 
L 1132.104252 491.132474 
L 1136.075076 490.938907 
L 1137.067782 491.254006 
L 1138.060487 490.966605 
L 1139.053193 491.083977 
L 1140.045899 490.908665 
L 1141.038605 491.175559 
L 1142.031311 490.748012 
L 1144.016723 491.337312 
L 1145.009429 491.086797 
L 1146.002135 491.057589 
L 1146.994841 490.811048 
L 1147.987547 491.356841 
L 1148.980253 491.315226 
L 1149.972959 491.136359 
L 1150.965664 490.680249 
L 1151.95837 491.236452 
L 1152.951076 491.360096 
L 1153.943782 491.361906 
L 1155.929194 491.225053 
L 1157.914606 491.138436 
L 1158.907312 491.681851 
L 1159.900018 491.735745 
L 1160.892724 491.334993 
L 1162.878136 490.958461 
L 1163.870841 491.426403 
L 1164.863547 490.936868 
L 1165.856253 491.273691 
L 1166.848959 491.803859 
L 1167.841665 491.245749 
L 1168.834371 490.944975 
L 1169.827077 491.649044 
L 1170.819783 491.614232 
L 1171.812489 491.132154 
L 1172.805195 491.419295 
L 1173.797901 491.400261 
L 1175.783313 491.549955 
L 1176.776019 490.598504 
L 1177.768724 491.23667 
L 1178.76143 491.730304 
L 1179.754136 491.520511 
L 1181.739548 491.767328 
L 1182.732254 491.916444 
L 1183.72496 492.255944 
L 1184.717666 492.077116 
L 1186.703078 491.360137 
L 1187.695784 491.881828 
L 1188.68849 491.596212 
L 1189.681196 491.762919 
L 1190.673901 491.372236 
L 1191.666607 491.796969 
L 1192.659313 491.276739 
L 1193.652019 491.428809 
L 1194.644725 492.019207 
L 1195.637431 491.705581 
L 1196.630137 491.990282 
L 1197.622843 491.644453 
L 1198.615549 491.583746 
L 1199.608255 492.065467 
L 1201.593667 491.579483 
L 1203.579078 492.087844 
L 1206.557196 491.550188 
L 1207.549902 491.581956 
L 1208.542608 492.15874 
L 1209.535314 491.646795 
L 1210.52802 491.507231 
L 1212.513432 491.582613 
L 1213.506138 492.090726 
L 1214.498844 491.787892 
L 1215.49155 491.973161 
L 1216.484255 491.642651 
L 1217.476961 492.017843 
L 1218.469667 491.734125 
L 1220.455079 491.474897 
L 1221.447785 492.010725 
L 1222.440491 492.138911 
L 1223.433197 491.409674 
L 1224.425903 491.6768 
L 1225.418609 492.181368 
L 1226.411315 491.676972 
L 1227.404021 491.691592 
L 1228.396727 492.010763 
L 1229.389432 492.086269 
L 1230.382138 491.874402 
L 1231.374844 492.093705 
L 1232.36755 491.729486 
L 1233.360256 492.179928 
L 1234.352962 492.116974 
L 1235.345668 491.788574 
L 1236.338374 491.872824 
L 1237.33108 491.549958 
L 1238.323786 491.850952 
L 1239.316492 491.448264 
L 1240.309198 492.002265 
L 1241.301904 491.874098 
L 1242.29461 492.274003 
L 1243.287315 492.48 
L 1244.280021 491.845673 
L 1245.272727 491.855279 
L 1245.272727 491.855279 
" clip-path="url(#p78968f3a71)" style="fill: none; stroke: #1f77b4; stroke-width: 1.5; stroke-linecap: square"/>
   </g>
   <g id="patch_3">
    <path d="M 180 512.64 
L 180 69.12 
" style="fill: none; stroke: #000000; stroke-width: 0.8; stroke-linejoin: miter; stroke-linecap: square"/>
   </g>
   <g id="patch_4">
    <path d="M 1296 512.64 
L 1296 69.12 
" style="fill: none; stroke: #000000; stroke-width: 0.8; stroke-linejoin: miter; stroke-linecap: square"/>
   </g>
   <g id="patch_5">
    <path d="M 180 512.64 
L 1296 512.64 
" style="fill: none; stroke: #000000; stroke-width: 0.8; stroke-linejoin: miter; stroke-linecap: square"/>
   </g>
   <g id="patch_6">
    <path d="M 180 69.12 
L 1296 69.12 
" style="fill: none; stroke: #000000; stroke-width: 0.8; stroke-linejoin: miter; stroke-linecap: square"/>
   </g>
   <g id="text_14">
    <!-- source2-receiver23 -->
    <g transform="translate(544.9 60.80125) scale(0.4 -0.4)">
     <defs>
      <path id="DejaVuSans-73" d="M 2834 3397 
L 2834 2853 
Q 2591 2978 2328 3040 
Q 2066 3103 1784 3103 
Q 1356 3103 1142 2972 
Q 928 2841 928 2578 
Q 928 2378 1081 2264 
Q 1234 2150 1697 2047 
L 1894 2003 
Q 2506 1872 2764 1633 
Q 3022 1394 3022 966 
Q 3022 478 2636 193 
Q 2250 -91 1575 -91 
Q 1294 -91 989 -36 
Q 684 19 347 128 
L 347 722 
Q 666 556 975 473 
Q 1284 391 1588 391 
Q 1994 391 2212 530 
Q 2431 669 2431 922 
Q 2431 1156 2273 1281 
Q 2116 1406 1581 1522 
L 1381 1569 
Q 847 1681 609 1914 
Q 372 2147 372 2553 
Q 372 3047 722 3315 
Q 1072 3584 1716 3584 
Q 2034 3584 2315 3537 
Q 2597 3491 2834 3397 
z
" transform="scale(0.015625)"/>
      <path id="DejaVuSans-6f" d="M 1959 3097 
Q 1497 3097 1228 2736 
Q 959 2375 959 1747 
Q 959 1119 1226 758 
Q 1494 397 1959 397 
Q 2419 397 2687 759 
Q 2956 1122 2956 1747 
Q 2956 2369 2687 2733 
Q 2419 3097 1959 3097 
z
M 1959 3584 
Q 2709 3584 3137 3096 
Q 3566 2609 3566 1747 
Q 3566 888 3137 398 
Q 2709 -91 1959 -91 
Q 1206 -91 779 398 
Q 353 888 353 1747 
Q 353 2609 779 3096 
Q 1206 3584 1959 3584 
z
" transform="scale(0.015625)"/>
      <path id="DejaVuSans-75" d="M 544 1381 
L 544 3500 
L 1119 3500 
L 1119 1403 
Q 1119 906 1312 657 
Q 1506 409 1894 409 
Q 2359 409 2629 706 
Q 2900 1003 2900 1516 
L 2900 3500 
L 3475 3500 
L 3475 0 
L 2900 0 
L 2900 538 
Q 2691 219 2414 64 
Q 2138 -91 1772 -91 
Q 1169 -91 856 284 
Q 544 659 544 1381 
z
M 1991 3584 
L 1991 3584 
z
" transform="scale(0.015625)"/>
      <path id="DejaVuSans-72" d="M 2631 2963 
Q 2534 3019 2420 3045 
Q 2306 3072 2169 3072 
Q 1681 3072 1420 2755 
Q 1159 2438 1159 1844 
L 1159 0 
L 581 0 
L 581 3500 
L 1159 3500 
L 1159 2956 
Q 1341 3275 1631 3429 
Q 1922 3584 2338 3584 
Q 2397 3584 2469 3576 
Q 2541 3569 2628 3553 
L 2631 2963 
z
" transform="scale(0.015625)"/>
      <path id="DejaVuSans-63" d="M 3122 3366 
L 3122 2828 
Q 2878 2963 2633 3030 
Q 2388 3097 2138 3097 
Q 1578 3097 1268 2742 
Q 959 2388 959 1747 
Q 959 1106 1268 751 
Q 1578 397 2138 397 
Q 2388 397 2633 464 
Q 2878 531 3122 666 
L 3122 134 
Q 2881 22 2623 -34 
Q 2366 -91 2075 -91 
Q 1284 -91 818 406 
Q 353 903 353 1747 
Q 353 2603 823 3093 
Q 1294 3584 2113 3584 
Q 2378 3584 2631 3529 
Q 2884 3475 3122 3366 
z
" transform="scale(0.015625)"/>
      <path id="DejaVuSans-65" d="M 3597 1894 
L 3597 1613 
L 953 1613 
Q 991 1019 1311 708 
Q 1631 397 2203 397 
Q 2534 397 2845 478 
Q 3156 559 3463 722 
L 3463 178 
Q 3153 47 2828 -22 
Q 2503 -91 2169 -91 
Q 1331 -91 842 396 
Q 353 884 353 1716 
Q 353 2575 817 3079 
Q 1281 3584 2069 3584 
Q 2775 3584 3186 3129 
Q 3597 2675 3597 1894 
z
M 3022 2063 
Q 3016 2534 2758 2815 
Q 2500 3097 2075 3097 
Q 1594 3097 1305 2825 
Q 1016 2553 972 2059 
L 3022 2063 
z
" transform="scale(0.015625)"/>
      <path id="DejaVuSans-2d" d="M 313 2009 
L 1997 2009 
L 1997 1497 
L 313 1497 
L 313 2009 
z
" transform="scale(0.015625)"/>
      <path id="DejaVuSans-69" d="M 603 3500 
L 1178 3500 
L 1178 0 
L 603 0 
L 603 3500 
z
M 603 4863 
L 1178 4863 
L 1178 4134 
L 603 4134 
L 603 4863 
z
" transform="scale(0.015625)"/>
      <path id="DejaVuSans-76" d="M 191 3500 
L 800 3500 
L 1894 563 
L 2988 3500 
L 3597 3500 
L 2284 0 
L 1503 0 
L 191 3500 
z
" transform="scale(0.015625)"/>
     </defs>
     <use xlink:href="#DejaVuSans-73"/>
     <use xlink:href="#DejaVuSans-6f" x="52.099609"/>
     <use xlink:href="#DejaVuSans-75" x="113.28125"/>
     <use xlink:href="#DejaVuSans-72" x="176.660156"/>
     <use xlink:href="#DejaVuSans-63" x="215.523438"/>
     <use xlink:href="#DejaVuSans-65" x="270.503906"/>
     <use xlink:href="#DejaVuSans-32" x="332.027344"/>
     <use xlink:href="#DejaVuSans-2d" x="395.650391"/>
     <use xlink:href="#DejaVuSans-72" x="431.734375"/>
     <use xlink:href="#DejaVuSans-65" x="470.597656"/>
     <use xlink:href="#DejaVuSans-63" x="532.121094"/>
     <use xlink:href="#DejaVuSans-65" x="587.101562"/>
     <use xlink:href="#DejaVuSans-69" x="648.625"/>
     <use xlink:href="#DejaVuSans-76" x="676.408203"/>
     <use xlink:href="#DejaVuSans-65" x="735.587891"/>
     <use xlink:href="#DejaVuSans-72" x="797.111328"/>
     <use xlink:href="#DejaVuSans-32" x="838.224609"/>
     <use xlink:href="#DejaVuSans-33" x="901.847656"/>
    </g>
   </g>
  </g>
 </g>
 <defs>
  <clipPath id="p78968f3a71">
   <rect x="180" y="69.12" width="1116" height="443.52"/>
  </clipPath>
 </defs>
</svg>
