<?xml version="1.0" encoding="utf-8" standalone="no"?>
<!DOCTYPE svg PUBLIC "-//W3C//DTD SVG 1.1//EN"
  "http://www.w3.org/Graphics/SVG/1.1/DTD/svg11.dtd">
<svg xmlns:xlink="http://www.w3.org/1999/xlink" width="1440pt" height="576pt" viewBox="0 0 1440 576" xmlns="http://www.w3.org/2000/svg" version="1.1">
 <metadata>
  <rdf:RDF xmlns:dc="http://purl.org/dc/elements/1.1/" xmlns:cc="http://creativecommons.org/ns#" xmlns:rdf="http://www.w3.org/1999/02/22-rdf-syntax-ns#">
   <cc:Work>
    <dc:type rdf:resource="http://purl.org/dc/dcmitype/StillImage"/>
    <dc:date>2024-05-22T04:49:40.822913</dc:date>
    <dc:format>image/svg+xml</dc:format>
    <dc:creator>
     <cc:Agent>
      <dc:title>Matplotlib v3.8.3, https://matplotlib.org/</dc:title>
     </cc:Agent>
    </dc:creator>
   </cc:Work>
  </rdf:RDF>
 </metadata>
 <defs>
  <style type="text/css">*{stroke-linejoin: round; stroke-linecap: butt}</style>
 </defs>
 <g id="figure_1">
  <g id="patch_1">
   <path d="M 0 576 
L 1440 576 
L 1440 0 
L 0 0 
z
" style="fill: #ffffff"/>
  </g>
  <g id="axes_1">
   <g id="patch_2">
    <path d="M 180 512.64 
L 1296 512.64 
L 1296 69.12 
L 180 69.12 
z
" style="fill: #ffffff"/>
   </g>
   <g id="matplotlib.axis_1">
    <g id="xtick_1">
     <g id="line2d_1">
      <defs>
       <path id="mb2d18b9755" d="M 0 0 
L 0 3.5 
" style="stroke: #000000; stroke-width: 0.8"/>
      </defs>
      <g>
       <use xlink:href="#mb2d18b9755" x="229.734567" y="512.64" style="stroke: #000000; stroke-width: 0.8"/>
      </g>
     </g>
     <g id="text_1">
      <!-- 0 -->
      <g transform="translate(226.553317 527.238438) scale(0.1 -0.1)">
       <defs>
        <path id="DejaVuSans-30" d="M 2034 4250 
Q 1547 4250 1301 3770 
Q 1056 3291 1056 2328 
Q 1056 1369 1301 889 
Q 1547 409 2034 409 
Q 2525 409 2770 889 
Q 3016 1369 3016 2328 
Q 3016 3291 2770 3770 
Q 2525 4250 2034 4250 
z
M 2034 4750 
Q 2819 4750 3233 4129 
Q 3647 3509 3647 2328 
Q 3647 1150 3233 529 
Q 2819 -91 2034 -91 
Q 1250 -91 836 529 
Q 422 1150 422 2328 
Q 422 3509 836 4129 
Q 1250 4750 2034 4750 
z
" transform="scale(0.015625)"/>
       </defs>
       <use xlink:href="#DejaVuSans-30"/>
      </g>
     </g>
    </g>
    <g id="xtick_2">
     <g id="line2d_2">
      <g>
       <use xlink:href="#mb2d18b9755" x="433.04074" y="512.64" style="stroke: #000000; stroke-width: 0.8"/>
      </g>
     </g>
     <g id="text_2">
      <!-- 500 -->
      <g transform="translate(423.49699 527.238438) scale(0.1 -0.1)">
       <defs>
        <path id="DejaVuSans-35" d="M 691 4666 
L 3169 4666 
L 3169 4134 
L 1269 4134 
L 1269 2991 
Q 1406 3038 1543 3061 
Q 1681 3084 1819 3084 
Q 2600 3084 3056 2656 
Q 3513 2228 3513 1497 
Q 3513 744 3044 326 
Q 2575 -91 1722 -91 
Q 1428 -91 1123 -41 
Q 819 9 494 109 
L 494 744 
Q 775 591 1075 516 
Q 1375 441 1709 441 
Q 2250 441 2565 725 
Q 2881 1009 2881 1497 
Q 2881 1984 2565 2268 
Q 2250 2553 1709 2553 
Q 1456 2553 1204 2497 
Q 953 2441 691 2322 
L 691 4666 
z
" transform="scale(0.015625)"/>
       </defs>
       <use xlink:href="#DejaVuSans-35"/>
       <use xlink:href="#DejaVuSans-30" x="63.623047"/>
       <use xlink:href="#DejaVuSans-30" x="127.246094"/>
      </g>
     </g>
    </g>
    <g id="xtick_3">
     <g id="line2d_3">
      <g>
       <use xlink:href="#mb2d18b9755" x="636.346913" y="512.64" style="stroke: #000000; stroke-width: 0.8"/>
      </g>
     </g>
     <g id="text_3">
      <!-- 1000 -->
      <g transform="translate(623.621913 527.238438) scale(0.1 -0.1)">
       <defs>
        <path id="DejaVuSans-31" d="M 794 531 
L 1825 531 
L 1825 4091 
L 703 3866 
L 703 4441 
L 1819 4666 
L 2450 4666 
L 2450 531 
L 3481 531 
L 3481 0 
L 794 0 
L 794 531 
z
" transform="scale(0.015625)"/>
       </defs>
       <use xlink:href="#DejaVuSans-31"/>
       <use xlink:href="#DejaVuSans-30" x="63.623047"/>
       <use xlink:href="#DejaVuSans-30" x="127.246094"/>
       <use xlink:href="#DejaVuSans-30" x="190.869141"/>
      </g>
     </g>
    </g>
    <g id="xtick_4">
     <g id="line2d_4">
      <g>
       <use xlink:href="#mb2d18b9755" x="839.653087" y="512.64" style="stroke: #000000; stroke-width: 0.8"/>
      </g>
     </g>
     <g id="text_4">
      <!-- 1500 -->
      <g transform="translate(826.928087 527.238438) scale(0.1 -0.1)">
       <use xlink:href="#DejaVuSans-31"/>
       <use xlink:href="#DejaVuSans-35" x="63.623047"/>
       <use xlink:href="#DejaVuSans-30" x="127.246094"/>
       <use xlink:href="#DejaVuSans-30" x="190.869141"/>
      </g>
     </g>
    </g>
    <g id="xtick_5">
     <g id="line2d_5">
      <g>
       <use xlink:href="#mb2d18b9755" x="1042.95926" y="512.64" style="stroke: #000000; stroke-width: 0.8"/>
      </g>
     </g>
     <g id="text_5">
      <!-- 2000 -->
      <g transform="translate(1030.23426 527.238438) scale(0.1 -0.1)">
       <defs>
        <path id="DejaVuSans-32" d="M 1228 531 
L 3431 531 
L 3431 0 
L 469 0 
L 469 531 
Q 828 903 1448 1529 
Q 2069 2156 2228 2338 
Q 2531 2678 2651 2914 
Q 2772 3150 2772 3378 
Q 2772 3750 2511 3984 
Q 2250 4219 1831 4219 
Q 1534 4219 1204 4116 
Q 875 4013 500 3803 
L 500 4441 
Q 881 4594 1212 4672 
Q 1544 4750 1819 4750 
Q 2544 4750 2975 4387 
Q 3406 4025 3406 3419 
Q 3406 3131 3298 2873 
Q 3191 2616 2906 2266 
Q 2828 2175 2409 1742 
Q 1991 1309 1228 531 
z
" transform="scale(0.015625)"/>
       </defs>
       <use xlink:href="#DejaVuSans-32"/>
       <use xlink:href="#DejaVuSans-30" x="63.623047"/>
       <use xlink:href="#DejaVuSans-30" x="127.246094"/>
       <use xlink:href="#DejaVuSans-30" x="190.869141"/>
      </g>
     </g>
    </g>
    <g id="xtick_6">
     <g id="line2d_6">
      <g>
       <use xlink:href="#mb2d18b9755" x="1246.265433" y="512.64" style="stroke: #000000; stroke-width: 0.8"/>
      </g>
     </g>
     <g id="text_6">
      <!-- 2500 -->
      <g transform="translate(1233.540433 527.238438) scale(0.1 -0.1)">
       <use xlink:href="#DejaVuSans-32"/>
       <use xlink:href="#DejaVuSans-35" x="63.623047"/>
       <use xlink:href="#DejaVuSans-30" x="127.246094"/>
       <use xlink:href="#DejaVuSans-30" x="190.869141"/>
      </g>
     </g>
    </g>
   </g>
   <g id="matplotlib.axis_2">
    <g id="ytick_1">
     <g id="line2d_7">
      <defs>
       <path id="m69108c5acb" d="M 0 0 
L -3.5 0 
" style="stroke: #000000; stroke-width: 0.8"/>
      </defs>
      <g>
       <use xlink:href="#m69108c5acb" x="180" y="485.338143" style="stroke: #000000; stroke-width: 0.8"/>
      </g>
     </g>
     <g id="text_7">
      <!-- −2 -->
      <g transform="translate(158.257812 489.137362) scale(0.1 -0.1)">
       <defs>
        <path id="DejaVuSans-2212" d="M 678 2272 
L 4684 2272 
L 4684 1741 
L 678 1741 
L 678 2272 
z
" transform="scale(0.015625)"/>
       </defs>
       <use xlink:href="#DejaVuSans-2212"/>
       <use xlink:href="#DejaVuSans-32" x="83.789062"/>
      </g>
     </g>
    </g>
    <g id="ytick_2">
     <g id="line2d_8">
      <g>
       <use xlink:href="#m69108c5acb" x="180" y="422.856267" style="stroke: #000000; stroke-width: 0.8"/>
      </g>
     </g>
     <g id="text_8">
      <!-- −1 -->
      <g transform="translate(158.257812 426.655486) scale(0.1 -0.1)">
       <use xlink:href="#DejaVuSans-2212"/>
       <use xlink:href="#DejaVuSans-31" x="83.789062"/>
      </g>
     </g>
    </g>
    <g id="ytick_3">
     <g id="line2d_9">
      <g>
       <use xlink:href="#m69108c5acb" x="180" y="360.374391" style="stroke: #000000; stroke-width: 0.8"/>
      </g>
     </g>
     <g id="text_9">
      <!-- 0 -->
      <g transform="translate(166.6375 364.17361) scale(0.1 -0.1)">
       <use xlink:href="#DejaVuSans-30"/>
      </g>
     </g>
    </g>
    <g id="ytick_4">
     <g id="line2d_10">
      <g>
       <use xlink:href="#m69108c5acb" x="180" y="297.892516" style="stroke: #000000; stroke-width: 0.8"/>
      </g>
     </g>
     <g id="text_10">
      <!-- 1 -->
      <g transform="translate(166.6375 301.691734) scale(0.1 -0.1)">
       <use xlink:href="#DejaVuSans-31"/>
      </g>
     </g>
    </g>
    <g id="ytick_5">
     <g id="line2d_11">
      <g>
       <use xlink:href="#m69108c5acb" x="180" y="235.41064" style="stroke: #000000; stroke-width: 0.8"/>
      </g>
     </g>
     <g id="text_11">
      <!-- 2 -->
      <g transform="translate(166.6375 239.209858) scale(0.1 -0.1)">
       <use xlink:href="#DejaVuSans-32"/>
      </g>
     </g>
    </g>
    <g id="ytick_6">
     <g id="line2d_12">
      <g>
       <use xlink:href="#m69108c5acb" x="180" y="172.928764" style="stroke: #000000; stroke-width: 0.8"/>
      </g>
     </g>
     <g id="text_12">
      <!-- 3 -->
      <g transform="translate(166.6375 176.727983) scale(0.1 -0.1)">
       <defs>
        <path id="DejaVuSans-33" d="M 2597 2516 
Q 3050 2419 3304 2112 
Q 3559 1806 3559 1356 
Q 3559 666 3084 287 
Q 2609 -91 1734 -91 
Q 1441 -91 1130 -33 
Q 819 25 488 141 
L 488 750 
Q 750 597 1062 519 
Q 1375 441 1716 441 
Q 2309 441 2620 675 
Q 2931 909 2931 1356 
Q 2931 1769 2642 2001 
Q 2353 2234 1838 2234 
L 1294 2234 
L 1294 2753 
L 1863 2753 
Q 2328 2753 2575 2939 
Q 2822 3125 2822 3475 
Q 2822 3834 2567 4026 
Q 2313 4219 1838 4219 
Q 1578 4219 1281 4162 
Q 984 4106 628 3988 
L 628 4550 
Q 988 4650 1302 4700 
Q 1616 4750 1894 4750 
Q 2613 4750 3031 4423 
Q 3450 4097 3450 3541 
Q 3450 3153 3228 2886 
Q 3006 2619 2597 2516 
z
" transform="scale(0.015625)"/>
       </defs>
       <use xlink:href="#DejaVuSans-33"/>
      </g>
     </g>
    </g>
    <g id="ytick_7">
     <g id="line2d_13">
      <g>
       <use xlink:href="#m69108c5acb" x="180" y="110.446888" style="stroke: #000000; stroke-width: 0.8"/>
      </g>
     </g>
     <g id="text_13">
      <!-- 4 -->
      <g transform="translate(166.6375 114.246107) scale(0.1 -0.1)">
       <defs>
        <path id="DejaVuSans-34" d="M 2419 4116 
L 825 1625 
L 2419 1625 
L 2419 4116 
z
M 2253 4666 
L 3047 4666 
L 3047 1625 
L 3713 1625 
L 3713 1100 
L 3047 1100 
L 3047 0 
L 2419 0 
L 2419 1100 
L 313 1100 
L 313 1709 
L 2253 4666 
z
" transform="scale(0.015625)"/>
       </defs>
       <use xlink:href="#DejaVuSans-34"/>
      </g>
     </g>
    </g>
   </g>
   <g id="line2d_14">
    <path d="M 230.727273 318.463838 
L 231.719979 318.292867 
L 232.712685 318.004072 
L 233.70539 317.583872 
L 235.690802 316.270525 
L 236.683508 315.457217 
L 237.676214 314.498898 
L 239.661626 312.120113 
L 241.647038 309.233787 
L 242.639744 307.515352 
L 244.625156 303.710709 
L 245.617862 303.547523 
L 246.610568 303.871607 
L 247.603273 296.799806 
L 248.595979 283.047766 
L 249.588685 282.448444 
L 250.581391 322.170664 
L 251.574097 321.815071 
L 252.566803 254.232508 
L 253.559509 236.998409 
L 254.552215 259.046706 
L 255.544921 308.467777 
L 256.537627 246.385937 
L 257.530333 248.840337 
L 258.523039 277.914353 
L 259.515745 202.298315 
L 260.50845 180.511959 
L 262.493862 212.532082 
L 263.486568 166.951319 
L 264.479274 156.947956 
L 265.47198 180.788029 
L 266.464686 171.154917 
L 267.457392 139.674672 
L 268.450098 139.90035 
L 269.442804 178.346822 
L 270.43551 230.405275 
L 271.428216 184.560902 
L 272.420922 200.099415 
L 273.413627 219.05775 
L 274.406333 181.8812 
L 275.399039 185.901059 
L 276.391745 241.384613 
L 277.384451 332.678741 
L 278.377157 256.272875 
L 279.369863 161.030265 
L 280.362569 115.985599 
L 281.355275 95.13626 
L 282.347981 89.28 
L 284.333393 95.24374 
L 285.326099 95.908884 
L 286.318804 102.474422 
L 287.31151 118.911886 
L 288.304216 132.793761 
L 289.296922 132.654501 
L 290.289628 132.729209 
L 291.282334 137.050778 
L 292.27504 147.727052 
L 294.260452 202.159027 
L 295.253158 180.308768 
L 296.245864 185.145437 
L 297.23857 242.245816 
L 298.231276 244.206798 
L 299.223981 211.802142 
L 300.216687 237.805493 
L 301.209393 301.265097 
L 302.202099 252.7211 
L 303.194805 268.298694 
L 304.187511 492.48 
L 305.180217 287.569597 
L 306.172923 280.218475 
L 307.165629 313.202577 
L 308.158335 314.136335 
L 309.151041 309.655077 
L 310.143747 320.413689 
L 311.136453 319.006748 
L 312.129159 321.881954 
L 313.121864 324.177052 
L 314.11457 324.15858 
L 316.099982 329.309682 
L 317.092688 330.633818 
L 318.085394 331.24044 
L 319.0781 332.278561 
L 320.070806 337.086312 
L 321.063512 335.414723 
L 322.056218 334.694401 
L 323.048924 338.967333 
L 324.04163 339.145517 
L 325.034336 340.749052 
L 326.027041 338.449257 
L 327.019747 345.005486 
L 328.012453 347.159957 
L 329.005159 344.641347 
L 329.997865 348.884169 
L 330.990571 349.334177 
L 331.983277 349.539575 
L 332.975983 350.752925 
L 333.968689 349.864738 
L 334.961395 350.830893 
L 335.954101 353.745693 
L 336.946807 354.890523 
L 337.939513 352.762086 
L 339.924924 356.342632 
L 340.91763 357.052027 
L 341.910336 355.004366 
L 342.903042 362.949502 
L 343.895748 359.161693 
L 344.888454 356.34633 
L 345.88116 364.001791 
L 346.873866 365.529655 
L 347.866572 363.003764 
L 348.859278 363.397624 
L 349.851984 364.752986 
L 350.84469 366.956762 
L 351.837395 367.466238 
L 352.830101 366.339805 
L 353.822807 366.888115 
L 354.815513 372.709025 
L 355.808219 367.4369 
L 356.800925 370.395498 
L 357.793631 376.383308 
L 358.786337 366.584147 
L 359.779043 367.066111 
L 360.771749 373.033902 
L 361.764455 373.785705 
L 362.757161 372.595528 
L 363.749867 371.902278 
L 364.742572 369.344847 
L 365.735278 376.257433 
L 366.727984 376.949584 
L 367.72069 377.785207 
L 368.713396 379.440047 
L 369.706102 375.486957 
L 370.698808 382.482062 
L 371.691514 370.91458 
L 372.68422 388.686133 
L 373.676926 376.264492 
L 374.669632 380.131228 
L 375.662338 377.672033 
L 376.655044 374.82356 
L 377.64775 388.091667 
L 378.640455 378.955964 
L 379.633161 388.308525 
L 380.625867 382.927768 
L 381.618573 386.877887 
L 382.611279 383.076683 
L 383.603985 381.375345 
L 384.596691 385.449982 
L 385.589397 387.104249 
L 386.582103 390.2149 
L 387.574809 383.646441 
L 388.567515 386.95015 
L 389.560221 388.947467 
L 390.552927 388.246874 
L 391.545632 388.443082 
L 392.538338 394.688111 
L 393.531044 395.858026 
L 394.52375 387.617658 
L 395.516456 395.202539 
L 396.509162 384.426486 
L 397.501868 395.252212 
L 398.494574 389.457006 
L 399.48728 395.827299 
L 400.479986 397.488501 
L 401.472692 389.395538 
L 402.465398 400.07001 
L 403.458104 392.114461 
L 404.450809 415.280248 
L 405.443515 388.928459 
L 406.436221 404.74135 
L 407.428927 402.091803 
L 408.421633 394.279845 
L 409.414339 392.727082 
L 410.407045 388.698006 
L 411.399751 398.96752 
L 412.392457 397.455937 
L 413.385163 405.620541 
L 414.377869 396.452819 
L 415.370575 395.885101 
L 416.363281 402.590384 
L 417.355986 396.518673 
L 418.348692 399.461747 
L 419.341398 397.283021 
L 420.334104 413.114278 
L 421.32681 396.951327 
L 422.319516 400.862957 
L 423.312222 404.18429 
L 424.304928 398.051137 
L 425.297634 402.101493 
L 426.29034 394.556202 
L 427.283046 412.837197 
L 428.275752 387.967641 
L 429.268458 422.165554 
L 430.261163 385.905637 
L 431.253869 425.659056 
L 432.246575 391.323731 
L 433.239281 413.743878 
L 434.231987 405.462915 
L 435.224693 406.28773 
L 436.217399 414.615853 
L 437.210105 396.252312 
L 438.202811 407.986612 
L 439.195517 404.57636 
L 440.188223 405.84384 
L 441.180929 408.660686 
L 442.173635 406.687958 
L 443.166341 410.937989 
L 444.159046 412.33805 
L 445.151752 409.288948 
L 446.144458 413.288806 
L 447.137164 412.178079 
L 448.12987 411.599598 
L 449.122576 410.686747 
L 450.115282 406.426344 
L 451.107988 413.87664 
L 452.100694 408.795305 
L 453.0934 406.911132 
L 454.086106 417.42694 
L 455.078812 414.133023 
L 456.071518 424.549891 
L 457.064223 405.522877 
L 458.056929 415.372368 
L 459.049635 411.997846 
L 460.042341 417.420989 
L 461.035047 419.225682 
L 462.027753 412.735093 
L 463.020459 417.093109 
L 464.013165 410.114358 
L 465.005871 422.379555 
L 465.998577 412.329013 
L 466.991283 421.976095 
L 467.983989 417.886849 
L 468.976695 418.446718 
L 469.9694 408.342379 
L 470.962106 415.389981 
L 471.954812 414.678248 
L 472.947518 415.895102 
L 473.940224 416.006124 
L 474.93293 415.311438 
L 475.925636 419.991553 
L 476.918342 420.783426 
L 477.911048 418.199614 
L 478.903754 424.11371 
L 479.89646 424.212832 
L 480.889166 416.616299 
L 481.881872 411.829057 
L 482.874577 420.41582 
L 483.867283 424.782334 
L 484.859989 419.343768 
L 485.852695 416.27997 
L 486.845401 424.799417 
L 487.838107 422.720729 
L 488.830813 418.167107 
L 489.823519 428.665731 
L 490.816225 414.876467 
L 491.808931 421.087405 
L 492.801637 413.311616 
L 493.794343 426.706296 
L 494.787049 422.367447 
L 495.779754 418.773017 
L 496.77246 427.287326 
L 497.765166 420.430062 
L 498.757872 419.432643 
L 499.750578 417.723627 
L 500.743284 418.860281 
L 501.73599 431.499113 
L 502.728696 436.100781 
L 503.721402 420.074654 
L 504.714108 427.25942 
L 505.706814 428.04997 
L 506.69952 431.146523 
L 507.692226 432.341545 
L 508.684932 427.482562 
L 509.677637 427.671699 
L 510.670343 425.241793 
L 511.663049 429.703221 
L 512.655755 428.833351 
L 513.648461 425.431502 
L 514.641167 427.848139 
L 515.633873 423.592111 
L 516.626579 423.165927 
L 517.619285 418.957049 
L 518.611991 423.02876 
L 519.604697 441.996963 
L 520.597403 422.513736 
L 521.590109 431.289438 
L 522.582814 434.890451 
L 523.57552 429.001774 
L 524.568226 434.584175 
L 525.560932 417.46989 
L 526.553638 432.771002 
L 527.546344 421.27067 
L 528.53905 427.456791 
L 529.531756 432.653704 
L 530.524462 430.590838 
L 531.517168 438.264123 
L 532.509874 430.766435 
L 533.50258 429.849358 
L 534.495286 427.326238 
L 535.487991 452.932694 
L 536.480697 421.989156 
L 537.473403 448.984352 
L 538.466109 429.850683 
L 539.458815 443.262812 
L 540.451521 432.844749 
L 541.444227 424.346034 
L 542.436933 448.766323 
L 543.429639 415.959229 
L 544.422345 460.487574 
L 545.415051 415.367897 
L 546.407757 462.000218 
L 547.400463 412.816049 
L 548.393168 440.881154 
L 549.385874 433.052867 
L 550.37858 431.473496 
L 551.371286 446.990202 
L 552.363992 424.832301 
L 554.349404 438.178594 
L 555.34211 423.208634 
L 556.334816 438.332499 
L 557.327522 438.952119 
L 558.320228 434.554982 
L 559.312934 446.359698 
L 560.30564 435.855251 
L 561.298345 440.261705 
L 562.291051 440.013972 
L 563.283757 435.792308 
L 564.276463 450.58569 
L 565.269169 435.630562 
L 566.261875 436.547154 
L 567.254581 436.347831 
L 568.247287 440.661153 
L 569.239993 437.791404 
L 570.232699 440.710785 
L 571.225405 438.710252 
L 572.218111 435.349899 
L 573.210817 437.482088 
L 574.203523 443.919159 
L 575.196228 434.718144 
L 576.188934 439.508107 
L 577.18164 435.750338 
L 578.174346 455.66863 
L 579.167052 438.661309 
L 580.159758 438.317234 
L 581.152464 439.206751 
L 582.14517 429.691036 
L 583.137876 445.938512 
L 584.130582 435.451319 
L 585.123288 439.97017 
L 586.115994 446.003486 
L 587.1087 442.329087 
L 588.101405 449.183483 
L 589.094111 436.219492 
L 590.086817 444.027136 
L 591.079523 442.229092 
L 592.072229 442.528599 
L 593.064935 445.704149 
L 594.057641 438.690802 
L 595.050347 439.639952 
L 596.043053 454.810075 
L 597.035759 443.878738 
L 598.028465 449.149366 
L 599.021171 445.99861 
L 600.013877 445.733316 
L 601.006582 453.840725 
L 601.999288 436.68941 
L 602.991994 442.798627 
L 603.9847 442.431532 
L 604.977406 446.476461 
L 605.970112 447.290248 
L 606.962818 443.70786 
L 608.94823 441.280901 
L 609.940936 446.959989 
L 610.933642 446.714962 
L 611.926348 445.431238 
L 612.919054 446.381386 
L 613.911759 442.805683 
L 614.904465 453.613039 
L 615.897171 450.89294 
L 616.889877 446.776082 
L 617.882583 448.51314 
L 618.875289 447.469339 
L 619.867995 447.818093 
L 620.860701 447.682182 
L 621.853407 444.351445 
L 622.846113 446.724317 
L 623.838819 448.457459 
L 624.831525 448.117562 
L 625.824231 448.953008 
L 626.816936 455.640485 
L 627.809642 446.61067 
L 628.802348 450.919759 
L 629.795054 444.729918 
L 630.78776 452.151319 
L 631.780466 451.249294 
L 632.773172 451.21702 
L 633.765878 447.858977 
L 634.758584 447.35461 
L 635.75129 449.472473 
L 636.743996 446.111129 
L 637.736702 444.856789 
L 638.729408 452.559203 
L 639.722114 450.583459 
L 640.714819 450.479459 
L 641.707525 448.029539 
L 642.700231 450.587992 
L 643.692937 451.123033 
L 644.685643 448.06999 
L 645.678349 453.107746 
L 646.671055 450.662914 
L 647.663761 452.418558 
L 648.656467 449.850244 
L 649.649173 453.435822 
L 650.641879 451.442696 
L 651.634585 450.235085 
L 652.627291 450.540509 
L 653.619996 453.668953 
L 654.612702 451.728668 
L 655.605408 453.005435 
L 657.59082 449.577298 
L 658.583526 451.055577 
L 659.576232 451.021449 
L 660.568938 451.169187 
L 661.561644 453.661739 
L 662.55435 451.735707 
L 663.547056 452.493571 
L 664.539762 454.007418 
L 665.532468 454.716195 
L 666.525173 454.729364 
L 667.517879 453.761366 
L 669.503291 453.387011 
L 670.495997 454.398997 
L 671.488703 454.192192 
L 672.481409 455.345206 
L 673.474115 454.542139 
L 674.466821 454.035956 
L 675.459527 454.540658 
L 676.452233 454.228176 
L 677.444939 454.920745 
L 678.437645 454.090774 
L 679.43035 455.601413 
L 680.423056 455.77612 
L 682.408468 455.307847 
L 683.401174 454.966558 
L 684.39388 455.073968 
L 685.386586 455.962757 
L 686.379292 455.33605 
L 687.371998 455.918225 
L 688.364704 455.90601 
L 689.35741 457.111486 
L 690.350116 455.922266 
L 691.342822 457.198475 
L 692.335527 455.804867 
L 693.328233 457.365324 
L 694.320939 456.685415 
L 695.313645 455.772835 
L 696.306351 457.194589 
L 697.299057 457.092223 
L 698.291763 457.40777 
L 699.284469 457.359236 
L 700.277175 456.742902 
L 701.269881 457.804476 
L 702.262587 457.727185 
L 703.255293 458.409798 
L 704.247999 457.700672 
L 705.240705 458.631832 
L 707.226116 457.786355 
L 708.218822 457.994954 
L 709.211528 458.441432 
L 710.204234 459.040255 
L 711.19694 458.568553 
L 712.189646 458.777917 
L 713.182352 459.36956 
L 714.175058 459.546771 
L 715.167764 458.974004 
L 716.16047 459.334642 
L 717.153176 458.774909 
L 718.145882 459.016479 
L 721.123999 460.257245 
L 723.109411 460.341547 
L 724.102117 459.933266 
L 725.094823 460.357308 
L 726.087529 459.768559 
L 727.080235 460.275214 
L 728.072941 460.5286 
L 730.058353 460.738943 
L 731.051059 460.492165 
L 732.043764 460.647229 
L 733.03647 460.943743 
L 734.029176 460.989999 
L 735.021882 460.903743 
L 737.007294 461.760837 
L 738 461.80199 
L 738.992706 461.411905 
L 739.985412 461.819824 
L 740.978118 461.330249 
L 741.970824 461.711324 
L 742.96353 461.40502 
L 743.956236 462.135123 
L 744.948941 462.221442 
L 745.941647 462.637827 
L 746.934353 462.516732 
L 747.927059 462.266964 
L 748.919765 462.67238 
L 749.912471 462.885063 
L 751.897883 462.991313 
L 752.890589 463.56427 
L 753.883295 462.815178 
L 754.876001 462.864633 
L 755.868707 463.168051 
L 756.861413 462.987331 
L 757.854118 463.081523 
L 758.846824 463.658182 
L 759.83953 463.800838 
L 760.832236 463.566845 
L 761.824942 463.464321 
L 762.817648 463.897083 
L 763.810354 464.704915 
L 764.80306 464.233291 
L 765.795766 464.07452 
L 766.788472 464.294039 
L 767.781178 463.931464 
L 769.76659 464.608316 
L 771.752001 464.322307 
L 772.744707 464.727219 
L 773.737413 464.896636 
L 775.722825 464.917014 
L 776.715531 464.884269 
L 777.708237 465.186472 
L 779.693649 465.240249 
L 780.686355 465.695845 
L 781.679061 465.657979 
L 782.671767 466.002041 
L 783.664473 465.506315 
L 784.657178 465.996935 
L 787.635296 465.480363 
L 788.628002 466.207073 
L 789.620708 466.756454 
L 790.613414 466.086235 
L 792.598826 465.856741 
L 793.591532 466.59239 
L 794.584238 466.668142 
L 795.576944 466.340686 
L 797.562355 467.047406 
L 798.555061 467.116311 
L 799.547767 467.487867 
L 800.540473 467.3068 
L 801.533179 466.911128 
L 802.525885 467.080061 
L 803.518591 466.967623 
L 804.511297 467.598903 
L 805.504003 467.154288 
L 806.496709 467.872325 
L 807.489415 467.557867 
L 808.482121 467.792801 
L 810.467532 467.6689 
L 811.460238 467.965353 
L 812.452944 467.821291 
L 813.44565 468.404871 
L 814.438356 468.509793 
L 815.431062 467.961317 
L 816.423768 468.125342 
L 817.416474 468.501681 
L 818.40918 468.129842 
L 819.401886 468.793219 
L 820.394592 468.37841 
L 821.387298 468.566792 
L 822.380004 468.619325 
L 823.372709 469.142768 
L 825.358121 469.111354 
L 826.350827 468.905731 
L 827.343533 469.642035 
L 829.328945 469.043796 
L 832.307063 469.572735 
L 833.299769 469.423639 
L 835.285181 470.070077 
L 836.277886 469.762583 
L 837.270592 470.001004 
L 838.263298 470.047311 
L 839.256004 469.870335 
L 840.24871 469.388747 
L 842.234122 470.227801 
L 843.226828 470.43622 
L 844.219534 470.979139 
L 845.21224 470.835885 
L 846.204946 470.158267 
L 848.190358 470.714001 
L 849.183064 471.186857 
L 850.175769 470.854899 
L 851.168475 471.208888 
L 853.153887 470.76563 
L 854.146593 471.093671 
L 855.139299 471.304388 
L 856.132005 470.737965 
L 857.124711 470.981983 
L 858.117417 471.479577 
L 859.110123 471.354147 
L 860.102829 471.518939 
L 861.095535 471.268511 
L 862.088241 471.94375 
L 863.080946 471.39625 
L 864.073652 471.786787 
L 865.066358 471.451369 
L 866.059064 471.405785 
L 867.05177 471.716774 
L 868.044476 471.561087 
L 870.029888 472.248235 
L 871.022594 472.172327 
L 872.0153 472.35294 
L 873.008006 472.15098 
L 874.000712 472.622303 
L 874.993418 472.369705 
L 875.986123 472.941596 
L 876.978829 473.170081 
L 877.971535 472.756172 
L 878.964241 472.57081 
L 879.956947 472.583727 
L 880.949653 472.754926 
L 881.942359 473.141588 
L 882.935065 472.476362 
L 885.913183 473.782875 
L 886.905889 473.405754 
L 887.898595 473.586169 
L 888.8913 472.894945 
L 890.876712 473.811016 
L 891.869418 472.978556 
L 892.862124 473.904431 
L 893.85483 473.488504 
L 894.847536 473.531458 
L 895.840242 473.804667 
L 896.832948 474.535618 
L 897.825654 473.645922 
L 898.81836 473.571659 
L 899.811066 474.157044 
L 900.803772 473.956128 
L 901.796477 474.036491 
L 902.789183 474.415756 
L 903.781889 474.151778 
L 904.774595 474.727869 
L 905.767301 474.478866 
L 906.760007 473.810402 
L 907.752713 474.72448 
L 908.745419 474.261725 
L 909.738125 475.187729 
L 910.730831 474.58986 
L 911.723537 475.025263 
L 912.716243 474.59988 
L 913.708949 475.104161 
L 914.701655 474.818734 
L 915.69436 475.057038 
L 916.687066 474.897489 
L 917.679772 475.209832 
L 918.672478 474.873059 
L 919.665184 475.031591 
L 920.65789 474.954839 
L 921.650596 475.159461 
L 922.643302 475.517813 
L 923.636008 475.719716 
L 924.628714 475.399817 
L 925.62142 475.212141 
L 926.614126 475.474008 
L 927.606832 475.142867 
L 928.599537 475.834612 
L 929.592243 475.578347 
L 930.584949 475.804608 
L 931.577655 475.661954 
L 932.570361 475.103436 
L 933.563067 475.964919 
L 934.555773 475.408106 
L 935.548479 475.76716 
L 936.541185 476.655423 
L 937.533891 476.293177 
L 938.526597 476.113893 
L 939.519303 475.385386 
L 940.512009 476.180592 
L 941.504714 476.577858 
L 942.49742 476.265277 
L 944.482832 475.918197 
L 945.475538 476.568431 
L 946.468244 476.96807 
L 947.46095 476.721458 
L 948.453656 476.778477 
L 949.446362 476.43877 
L 952.42448 476.355141 
L 954.409891 476.818532 
L 955.402597 476.763253 
L 956.395303 476.507012 
L 957.388009 476.776256 
L 958.380715 477.299786 
L 959.373421 476.475704 
L 960.366127 476.550562 
L 961.358833 477.262195 
L 962.351539 477.405038 
L 963.344245 477.426942 
L 964.336951 477.175603 
L 965.329657 477.142256 
L 966.322363 477.396877 
L 967.315068 477.114124 
L 968.307774 478.101162 
L 971.285892 477.419852 
L 972.278598 477.438493 
L 973.271304 477.279135 
L 974.26401 477.833505 
L 975.256716 477.59343 
L 977.242128 478.069736 
L 978.234834 477.746138 
L 981.212951 477.995098 
L 982.205657 477.773428 
L 983.198363 478.378145 
L 984.191069 478.138451 
L 985.183775 478.411362 
L 986.176481 478.436086 
L 987.169187 477.80846 
L 989.154599 477.922651 
L 990.147305 477.891411 
L 992.132717 479.223255 
L 993.125423 478.828785 
L 994.118128 478.688529 
L 995.110834 478.284994 
L 996.10354 478.39891 
L 997.096246 478.169003 
L 998.088952 478.218496 
L 999.081658 478.566745 
L 1000.074364 478.529815 
L 1001.06707 478.301353 
L 1003.052482 479.025404 
L 1004.045188 478.864252 
L 1005.037894 479.72926 
L 1006.0306 479.094508 
L 1007.023305 478.783112 
L 1008.016011 479.201005 
L 1009.008717 479.817971 
L 1010.001423 478.715476 
L 1010.994129 478.996682 
L 1011.986835 479.437333 
L 1012.979541 478.956726 
L 1014.964953 479.276263 
L 1015.957659 479.562749 
L 1017.943071 478.982946 
L 1018.935777 479.521149 
L 1019.928482 480.216206 
L 1020.921188 479.4532 
L 1021.913894 479.902117 
L 1023.899306 479.452961 
L 1024.892012 479.917112 
L 1025.884718 479.792228 
L 1026.877424 479.989011 
L 1028.862836 480.0746 
L 1029.855542 479.648657 
L 1031.840954 480.019303 
L 1032.833659 480.468557 
L 1033.826365 479.7613 
L 1034.819071 480.122449 
L 1035.811777 480.098881 
L 1036.804483 479.639826 
L 1037.797189 480.588894 
L 1038.789895 479.809066 
L 1039.782601 480.297226 
L 1040.775307 480.459567 
L 1041.768013 480.403463 
L 1042.760719 480.225668 
L 1043.753425 480.343584 
L 1044.746131 480.159606 
L 1046.731542 480.094778 
L 1047.724248 480.525383 
L 1048.716954 480.371225 
L 1049.70966 480.459504 
L 1051.695072 480.43494 
L 1052.687778 480.63703 
L 1053.680484 480.689485 
L 1054.67319 480.331634 
L 1055.665896 480.179876 
L 1056.658602 480.648205 
L 1057.651308 480.459598 
L 1058.644014 480.927908 
L 1059.636719 480.518228 
L 1061.622131 481.020961 
L 1063.607543 480.603056 
L 1064.600249 481.229895 
L 1065.592955 481.263057 
L 1066.585661 480.83945 
L 1067.578367 481.217224 
L 1069.563779 481.057836 
L 1070.556485 480.614505 
L 1071.549191 481.258381 
L 1072.541896 480.549767 
L 1073.534602 481.052029 
L 1074.527308 481.800978 
L 1075.520014 481.404752 
L 1076.51272 481.302535 
L 1078.498132 481.394709 
L 1080.483544 481.250701 
L 1081.47625 481.526724 
L 1082.468956 480.984103 
L 1083.461662 481.337321 
L 1084.454368 480.759568 
L 1085.447073 481.305483 
L 1086.439779 481.434676 
L 1087.432485 480.667373 
L 1088.425191 481.572613 
L 1089.417897 481.394066 
L 1090.410603 481.457708 
L 1091.403309 481.261541 
L 1092.396015 481.707217 
L 1093.388721 481.413964 
L 1094.381427 481.407822 
L 1095.374133 481.805324 
L 1096.366839 481.805086 
L 1097.359545 481.688654 
L 1098.35225 482.356185 
L 1099.344956 481.830562 
L 1102.323074 481.627318 
L 1103.31578 481.862776 
L 1104.308486 481.670435 
L 1105.301192 481.657785 
L 1106.293898 481.767439 
L 1107.286604 481.676208 
L 1108.27931 481.760575 
L 1109.272016 482.220863 
L 1110.264722 482.228835 
L 1111.257428 481.805733 
L 1112.250133 482.277936 
L 1113.242839 481.53429 
L 1114.235545 482.534959 
L 1115.228251 482.203707 
L 1116.220957 482.148687 
L 1117.213663 482.617361 
L 1118.206369 482.365556 
L 1119.199075 482.769524 
L 1120.191781 482.403981 
L 1121.184487 483.002772 
L 1122.177193 482.342946 
L 1123.169899 482.059827 
L 1125.15531 482.454065 
L 1126.148016 482.927652 
L 1127.140722 481.957222 
L 1128.133428 481.782194 
L 1129.126134 482.599128 
L 1130.11884 482.213007 
L 1133.096958 482.691886 
L 1134.089664 482.400154 
L 1135.08237 482.437866 
L 1136.075076 482.3334 
L 1137.067782 482.500991 
L 1138.060487 482.314214 
L 1139.053193 482.558163 
L 1140.045899 482.932812 
L 1141.038605 482.017365 
L 1142.031311 482.76601 
L 1143.024017 482.182602 
L 1144.016723 481.916763 
L 1145.009429 482.846619 
L 1146.002135 482.462814 
L 1146.994841 483.320078 
L 1148.980253 482.161397 
L 1149.972959 482.751676 
L 1150.965664 482.698523 
L 1151.95837 482.911268 
L 1152.951076 483.448377 
L 1153.943782 482.724382 
L 1154.936488 482.615139 
L 1155.929194 482.206148 
L 1156.9219 482.570555 
L 1157.914606 483.208918 
L 1159.900018 482.258125 
L 1160.892724 482.837325 
L 1161.88543 482.817759 
L 1162.878136 483.213258 
L 1164.863547 483.198215 
L 1166.848959 482.264943 
L 1167.841665 482.716842 
L 1168.834371 482.533231 
L 1169.827077 483.134604 
L 1170.819783 482.799085 
L 1171.812489 483.591781 
L 1172.805195 482.906372 
L 1173.797901 483.383551 
L 1174.790607 482.545394 
L 1175.783313 483.277896 
L 1177.768724 482.812963 
L 1178.76143 483.214373 
L 1179.754136 483.867451 
L 1180.746842 483.582904 
L 1181.739548 482.89961 
L 1182.732254 483.483699 
L 1184.717666 482.6632 
L 1185.710372 482.735944 
L 1186.703078 482.944777 
L 1187.695784 483.33204 
L 1188.68849 482.865009 
L 1189.681196 483.001266 
L 1190.673901 483.434639 
L 1191.666607 483.308024 
L 1194.644725 483.474228 
L 1195.637431 483.405741 
L 1196.630137 483.645282 
L 1197.622843 483.462076 
L 1198.615549 483.033198 
L 1200.600961 483.576742 
L 1201.593667 483.804716 
L 1203.579078 482.970017 
L 1204.571784 483.204325 
L 1205.56449 483.562561 
L 1206.557196 483.23026 
L 1207.549902 483.936037 
L 1208.542608 483.440449 
L 1209.535314 483.613496 
L 1210.52802 483.503268 
L 1211.520726 482.845642 
L 1212.513432 482.797394 
L 1213.506138 483.842805 
L 1215.49155 483.282922 
L 1216.484255 483.662711 
L 1217.476961 483.722628 
L 1218.469667 483.484577 
L 1219.462373 484.002682 
L 1220.455079 483.567535 
L 1221.447785 484.026357 
L 1222.440491 483.353091 
L 1223.433197 483.045937 
L 1224.425903 483.661841 
L 1225.418609 483.137343 
L 1226.411315 483.82101 
L 1227.404021 483.576369 
L 1228.396727 483.085259 
L 1229.389432 483.016991 
L 1230.382138 483.780592 
L 1232.36755 483.480139 
L 1233.360256 483.955655 
L 1234.352962 483.530611 
L 1235.345668 482.699838 
L 1236.338374 482.948071 
L 1237.33108 483.554417 
L 1239.316492 483.238326 
L 1240.309198 483.585778 
L 1241.301904 483.562596 
L 1242.29461 483.214323 
L 1243.287315 482.584097 
L 1244.280021 482.880736 
L 1245.272727 483.501927 
L 1245.272727 483.501927 
" clip-path="url(#p95819fe187)" style="fill: none; stroke: #1f77b4; stroke-width: 1.5; stroke-linecap: square"/>
   </g>
   <g id="patch_3">
    <path d="M 180 512.64 
L 180 69.12 
" style="fill: none; stroke: #000000; stroke-width: 0.8; stroke-linejoin: miter; stroke-linecap: square"/>
   </g>
   <g id="patch_4">
    <path d="M 1296 512.64 
L 1296 69.12 
" style="fill: none; stroke: #000000; stroke-width: 0.8; stroke-linejoin: miter; stroke-linecap: square"/>
   </g>
   <g id="patch_5">
    <path d="M 180 512.64 
L 1296 512.64 
" style="fill: none; stroke: #000000; stroke-width: 0.8; stroke-linejoin: miter; stroke-linecap: square"/>
   </g>
   <g id="patch_6">
    <path d="M 180 69.12 
L 1296 69.12 
" style="fill: none; stroke: #000000; stroke-width: 0.8; stroke-linejoin: miter; stroke-linecap: square"/>
   </g>
   <g id="text_14">
    <!-- source2-receiver7 -->
    <g transform="translate(557.625 60.80125) scale(0.4 -0.4)">
     <defs>
      <path id="DejaVuSans-73" d="M 2834 3397 
L 2834 2853 
Q 2591 2978 2328 3040 
Q 2066 3103 1784 3103 
Q 1356 3103 1142 2972 
Q 928 2841 928 2578 
Q 928 2378 1081 2264 
Q 1234 2150 1697 2047 
L 1894 2003 
Q 2506 1872 2764 1633 
Q 3022 1394 3022 966 
Q 3022 478 2636 193 
Q 2250 -91 1575 -91 
Q 1294 -91 989 -36 
Q 684 19 347 128 
L 347 722 
Q 666 556 975 473 
Q 1284 391 1588 391 
Q 1994 391 2212 530 
Q 2431 669 2431 922 
Q 2431 1156 2273 1281 
Q 2116 1406 1581 1522 
L 1381 1569 
Q 847 1681 609 1914 
Q 372 2147 372 2553 
Q 372 3047 722 3315 
Q 1072 3584 1716 3584 
Q 2034 3584 2315 3537 
Q 2597 3491 2834 3397 
z
" transform="scale(0.015625)"/>
      <path id="DejaVuSans-6f" d="M 1959 3097 
Q 1497 3097 1228 2736 
Q 959 2375 959 1747 
Q 959 1119 1226 758 
Q 1494 397 1959 397 
Q 2419 397 2687 759 
Q 2956 1122 2956 1747 
Q 2956 2369 2687 2733 
Q 2419 3097 1959 3097 
z
M 1959 3584 
Q 2709 3584 3137 3096 
Q 3566 2609 3566 1747 
Q 3566 888 3137 398 
Q 2709 -91 1959 -91 
Q 1206 -91 779 398 
Q 353 888 353 1747 
Q 353 2609 779 3096 
Q 1206 3584 1959 3584 
z
" transform="scale(0.015625)"/>
      <path id="DejaVuSans-75" d="M 544 1381 
L 544 3500 
L 1119 3500 
L 1119 1403 
Q 1119 906 1312 657 
Q 1506 409 1894 409 
Q 2359 409 2629 706 
Q 2900 1003 2900 1516 
L 2900 3500 
L 3475 3500 
L 3475 0 
L 2900 0 
L 2900 538 
Q 2691 219 2414 64 
Q 2138 -91 1772 -91 
Q 1169 -91 856 284 
Q 544 659 544 1381 
z
M 1991 3584 
L 1991 3584 
z
" transform="scale(0.015625)"/>
      <path id="DejaVuSans-72" d="M 2631 2963 
Q 2534 3019 2420 3045 
Q 2306 3072 2169 3072 
Q 1681 3072 1420 2755 
Q 1159 2438 1159 1844 
L 1159 0 
L 581 0 
L 581 3500 
L 1159 3500 
L 1159 2956 
Q 1341 3275 1631 3429 
Q 1922 3584 2338 3584 
Q 2397 3584 2469 3576 
Q 2541 3569 2628 3553 
L 2631 2963 
z
" transform="scale(0.015625)"/>
      <path id="DejaVuSans-63" d="M 3122 3366 
L 3122 2828 
Q 2878 2963 2633 3030 
Q 2388 3097 2138 3097 
Q 1578 3097 1268 2742 
Q 959 2388 959 1747 
Q 959 1106 1268 751 
Q 1578 397 2138 397 
Q 2388 397 2633 464 
Q 2878 531 3122 666 
L 3122 134 
Q 2881 22 2623 -34 
Q 2366 -91 2075 -91 
Q 1284 -91 818 406 
Q 353 903 353 1747 
Q 353 2603 823 3093 
Q 1294 3584 2113 3584 
Q 2378 3584 2631 3529 
Q 2884 3475 3122 3366 
z
" transform="scale(0.015625)"/>
      <path id="DejaVuSans-65" d="M 3597 1894 
L 3597 1613 
L 953 1613 
Q 991 1019 1311 708 
Q 1631 397 2203 397 
Q 2534 397 2845 478 
Q 3156 559 3463 722 
L 3463 178 
Q 3153 47 2828 -22 
Q 2503 -91 2169 -91 
Q 1331 -91 842 396 
Q 353 884 353 1716 
Q 353 2575 817 3079 
Q 1281 3584 2069 3584 
Q 2775 3584 3186 3129 
Q 3597 2675 3597 1894 
z
M 3022 2063 
Q 3016 2534 2758 2815 
Q 2500 3097 2075 3097 
Q 1594 3097 1305 2825 
Q 1016 2553 972 2059 
L 3022 2063 
z
" transform="scale(0.015625)"/>
      <path id="DejaVuSans-2d" d="M 313 2009 
L 1997 2009 
L 1997 1497 
L 313 1497 
L 313 2009 
z
" transform="scale(0.015625)"/>
      <path id="DejaVuSans-69" d="M 603 3500 
L 1178 3500 
L 1178 0 
L 603 0 
L 603 3500 
z
M 603 4863 
L 1178 4863 
L 1178 4134 
L 603 4134 
L 603 4863 
z
" transform="scale(0.015625)"/>
      <path id="DejaVuSans-76" d="M 191 3500 
L 800 3500 
L 1894 563 
L 2988 3500 
L 3597 3500 
L 2284 0 
L 1503 0 
L 191 3500 
z
" transform="scale(0.015625)"/>
      <path id="DejaVuSans-37" d="M 525 4666 
L 3525 4666 
L 3525 4397 
L 1831 0 
L 1172 0 
L 2766 4134 
L 525 4134 
L 525 4666 
z
" transform="scale(0.015625)"/>
     </defs>
     <use xlink:href="#DejaVuSans-73"/>
     <use xlink:href="#DejaVuSans-6f" x="52.099609"/>
     <use xlink:href="#DejaVuSans-75" x="113.28125"/>
     <use xlink:href="#DejaVuSans-72" x="176.660156"/>
     <use xlink:href="#DejaVuSans-63" x="215.523438"/>
     <use xlink:href="#DejaVuSans-65" x="270.503906"/>
     <use xlink:href="#DejaVuSans-32" x="332.027344"/>
     <use xlink:href="#DejaVuSans-2d" x="395.650391"/>
     <use xlink:href="#DejaVuSans-72" x="431.734375"/>
     <use xlink:href="#DejaVuSans-65" x="470.597656"/>
     <use xlink:href="#DejaVuSans-63" x="532.121094"/>
     <use xlink:href="#DejaVuSans-65" x="587.101562"/>
     <use xlink:href="#DejaVuSans-69" x="648.625"/>
     <use xlink:href="#DejaVuSans-76" x="676.408203"/>
     <use xlink:href="#DejaVuSans-65" x="735.587891"/>
     <use xlink:href="#DejaVuSans-72" x="797.111328"/>
     <use xlink:href="#DejaVuSans-37" x="838.224609"/>
    </g>
   </g>
  </g>
 </g>
 <defs>
  <clipPath id="p95819fe187">
   <rect x="180" y="69.12" width="1116" height="443.52"/>
  </clipPath>
 </defs>
</svg>
