<?xml version="1.0" encoding="utf-8" standalone="no"?>
<!DOCTYPE svg PUBLIC "-//W3C//DTD SVG 1.1//EN"
  "http://www.w3.org/Graphics/SVG/1.1/DTD/svg11.dtd">
<svg xmlns:xlink="http://www.w3.org/1999/xlink" width="1440pt" height="576pt" viewBox="0 0 1440 576" xmlns="http://www.w3.org/2000/svg" version="1.1">
 <metadata>
  <rdf:RDF xmlns:dc="http://purl.org/dc/elements/1.1/" xmlns:cc="http://creativecommons.org/ns#" xmlns:rdf="http://www.w3.org/1999/02/22-rdf-syntax-ns#">
   <cc:Work>
    <dc:type rdf:resource="http://purl.org/dc/dcmitype/StillImage"/>
    <dc:date>2024-05-22T04:50:18.006761</dc:date>
    <dc:format>image/svg+xml</dc:format>
    <dc:creator>
     <cc:Agent>
      <dc:title>Matplotlib v3.8.3, https://matplotlib.org/</dc:title>
     </cc:Agent>
    </dc:creator>
   </cc:Work>
  </rdf:RDF>
 </metadata>
 <defs>
  <style type="text/css">*{stroke-linejoin: round; stroke-linecap: butt}</style>
 </defs>
 <g id="figure_1">
  <g id="patch_1">
   <path d="M 0 576 
L 1440 576 
L 1440 0 
L 0 0 
z
" style="fill: #ffffff"/>
  </g>
  <g id="axes_1">
   <g id="patch_2">
    <path d="M 180 512.64 
L 1296 512.64 
L 1296 69.12 
L 180 69.12 
z
" style="fill: #ffffff"/>
   </g>
   <g id="matplotlib.axis_1">
    <g id="xtick_1">
     <g id="line2d_1">
      <defs>
       <path id="ma2b8b86573" d="M 0 0 
L 0 3.5 
" style="stroke: #000000; stroke-width: 0.8"/>
      </defs>
      <g>
       <use xlink:href="#ma2b8b86573" x="229.734567" y="512.64" style="stroke: #000000; stroke-width: 0.8"/>
      </g>
     </g>
     <g id="text_1">
      <!-- 0 -->
      <g transform="translate(226.553317 527.238438) scale(0.1 -0.1)">
       <defs>
        <path id="DejaVuSans-30" d="M 2034 4250 
Q 1547 4250 1301 3770 
Q 1056 3291 1056 2328 
Q 1056 1369 1301 889 
Q 1547 409 2034 409 
Q 2525 409 2770 889 
Q 3016 1369 3016 2328 
Q 3016 3291 2770 3770 
Q 2525 4250 2034 4250 
z
M 2034 4750 
Q 2819 4750 3233 4129 
Q 3647 3509 3647 2328 
Q 3647 1150 3233 529 
Q 2819 -91 2034 -91 
Q 1250 -91 836 529 
Q 422 1150 422 2328 
Q 422 3509 836 4129 
Q 1250 4750 2034 4750 
z
" transform="scale(0.015625)"/>
       </defs>
       <use xlink:href="#DejaVuSans-30"/>
      </g>
     </g>
    </g>
    <g id="xtick_2">
     <g id="line2d_2">
      <g>
       <use xlink:href="#ma2b8b86573" x="433.04074" y="512.64" style="stroke: #000000; stroke-width: 0.8"/>
      </g>
     </g>
     <g id="text_2">
      <!-- 500 -->
      <g transform="translate(423.49699 527.238438) scale(0.1 -0.1)">
       <defs>
        <path id="DejaVuSans-35" d="M 691 4666 
L 3169 4666 
L 3169 4134 
L 1269 4134 
L 1269 2991 
Q 1406 3038 1543 3061 
Q 1681 3084 1819 3084 
Q 2600 3084 3056 2656 
Q 3513 2228 3513 1497 
Q 3513 744 3044 326 
Q 2575 -91 1722 -91 
Q 1428 -91 1123 -41 
Q 819 9 494 109 
L 494 744 
Q 775 591 1075 516 
Q 1375 441 1709 441 
Q 2250 441 2565 725 
Q 2881 1009 2881 1497 
Q 2881 1984 2565 2268 
Q 2250 2553 1709 2553 
Q 1456 2553 1204 2497 
Q 953 2441 691 2322 
L 691 4666 
z
" transform="scale(0.015625)"/>
       </defs>
       <use xlink:href="#DejaVuSans-35"/>
       <use xlink:href="#DejaVuSans-30" x="63.623047"/>
       <use xlink:href="#DejaVuSans-30" x="127.246094"/>
      </g>
     </g>
    </g>
    <g id="xtick_3">
     <g id="line2d_3">
      <g>
       <use xlink:href="#ma2b8b86573" x="636.346913" y="512.64" style="stroke: #000000; stroke-width: 0.8"/>
      </g>
     </g>
     <g id="text_3">
      <!-- 1000 -->
      <g transform="translate(623.621913 527.238438) scale(0.1 -0.1)">
       <defs>
        <path id="DejaVuSans-31" d="M 794 531 
L 1825 531 
L 1825 4091 
L 703 3866 
L 703 4441 
L 1819 4666 
L 2450 4666 
L 2450 531 
L 3481 531 
L 3481 0 
L 794 0 
L 794 531 
z
" transform="scale(0.015625)"/>
       </defs>
       <use xlink:href="#DejaVuSans-31"/>
       <use xlink:href="#DejaVuSans-30" x="63.623047"/>
       <use xlink:href="#DejaVuSans-30" x="127.246094"/>
       <use xlink:href="#DejaVuSans-30" x="190.869141"/>
      </g>
     </g>
    </g>
    <g id="xtick_4">
     <g id="line2d_4">
      <g>
       <use xlink:href="#ma2b8b86573" x="839.653087" y="512.64" style="stroke: #000000; stroke-width: 0.8"/>
      </g>
     </g>
     <g id="text_4">
      <!-- 1500 -->
      <g transform="translate(826.928087 527.238438) scale(0.1 -0.1)">
       <use xlink:href="#DejaVuSans-31"/>
       <use xlink:href="#DejaVuSans-35" x="63.623047"/>
       <use xlink:href="#DejaVuSans-30" x="127.246094"/>
       <use xlink:href="#DejaVuSans-30" x="190.869141"/>
      </g>
     </g>
    </g>
    <g id="xtick_5">
     <g id="line2d_5">
      <g>
       <use xlink:href="#ma2b8b86573" x="1042.95926" y="512.64" style="stroke: #000000; stroke-width: 0.8"/>
      </g>
     </g>
     <g id="text_5">
      <!-- 2000 -->
      <g transform="translate(1030.23426 527.238438) scale(0.1 -0.1)">
       <defs>
        <path id="DejaVuSans-32" d="M 1228 531 
L 3431 531 
L 3431 0 
L 469 0 
L 469 531 
Q 828 903 1448 1529 
Q 2069 2156 2228 2338 
Q 2531 2678 2651 2914 
Q 2772 3150 2772 3378 
Q 2772 3750 2511 3984 
Q 2250 4219 1831 4219 
Q 1534 4219 1204 4116 
Q 875 4013 500 3803 
L 500 4441 
Q 881 4594 1212 4672 
Q 1544 4750 1819 4750 
Q 2544 4750 2975 4387 
Q 3406 4025 3406 3419 
Q 3406 3131 3298 2873 
Q 3191 2616 2906 2266 
Q 2828 2175 2409 1742 
Q 1991 1309 1228 531 
z
" transform="scale(0.015625)"/>
       </defs>
       <use xlink:href="#DejaVuSans-32"/>
       <use xlink:href="#DejaVuSans-30" x="63.623047"/>
       <use xlink:href="#DejaVuSans-30" x="127.246094"/>
       <use xlink:href="#DejaVuSans-30" x="190.869141"/>
      </g>
     </g>
    </g>
    <g id="xtick_6">
     <g id="line2d_6">
      <g>
       <use xlink:href="#ma2b8b86573" x="1246.265433" y="512.64" style="stroke: #000000; stroke-width: 0.8"/>
      </g>
     </g>
     <g id="text_6">
      <!-- 2500 -->
      <g transform="translate(1233.540433 527.238438) scale(0.1 -0.1)">
       <use xlink:href="#DejaVuSans-32"/>
       <use xlink:href="#DejaVuSans-35" x="63.623047"/>
       <use xlink:href="#DejaVuSans-30" x="127.246094"/>
       <use xlink:href="#DejaVuSans-30" x="190.869141"/>
      </g>
     </g>
    </g>
   </g>
   <g id="matplotlib.axis_2">
    <g id="ytick_1">
     <g id="line2d_7">
      <defs>
       <path id="m8cb435492f" d="M 0 0 
L -3.5 0 
" style="stroke: #000000; stroke-width: 0.8"/>
      </defs>
      <g>
       <use xlink:href="#m8cb435492f" x="180" y="470.122531" style="stroke: #000000; stroke-width: 0.8"/>
      </g>
     </g>
     <g id="text_7">
      <!-- −4 -->
      <g transform="translate(158.257812 473.92175) scale(0.1 -0.1)">
       <defs>
        <path id="DejaVuSans-2212" d="M 678 2272 
L 4684 2272 
L 4684 1741 
L 678 1741 
L 678 2272 
z
" transform="scale(0.015625)"/>
        <path id="DejaVuSans-34" d="M 2419 4116 
L 825 1625 
L 2419 1625 
L 2419 4116 
z
M 2253 4666 
L 3047 4666 
L 3047 1625 
L 3713 1625 
L 3713 1100 
L 3047 1100 
L 3047 0 
L 2419 0 
L 2419 1100 
L 313 1100 
L 313 1709 
L 2253 4666 
z
" transform="scale(0.015625)"/>
       </defs>
       <use xlink:href="#DejaVuSans-2212"/>
       <use xlink:href="#DejaVuSans-34" x="83.789062"/>
      </g>
     </g>
    </g>
    <g id="ytick_2">
     <g id="line2d_8">
      <g>
       <use xlink:href="#m8cb435492f" x="180" y="392.345476" style="stroke: #000000; stroke-width: 0.8"/>
      </g>
     </g>
     <g id="text_8">
      <!-- −2 -->
      <g transform="translate(158.257812 396.144695) scale(0.1 -0.1)">
       <use xlink:href="#DejaVuSans-2212"/>
       <use xlink:href="#DejaVuSans-32" x="83.789062"/>
      </g>
     </g>
    </g>
    <g id="ytick_3">
     <g id="line2d_9">
      <g>
       <use xlink:href="#m8cb435492f" x="180" y="314.568421" style="stroke: #000000; stroke-width: 0.8"/>
      </g>
     </g>
     <g id="text_9">
      <!-- 0 -->
      <g transform="translate(166.6375 318.36764) scale(0.1 -0.1)">
       <use xlink:href="#DejaVuSans-30"/>
      </g>
     </g>
    </g>
    <g id="ytick_4">
     <g id="line2d_10">
      <g>
       <use xlink:href="#m8cb435492f" x="180" y="236.791366" style="stroke: #000000; stroke-width: 0.8"/>
      </g>
     </g>
     <g id="text_10">
      <!-- 2 -->
      <g transform="translate(166.6375 240.590585) scale(0.1 -0.1)">
       <use xlink:href="#DejaVuSans-32"/>
      </g>
     </g>
    </g>
    <g id="ytick_5">
     <g id="line2d_11">
      <g>
       <use xlink:href="#m8cb435492f" x="180" y="159.014311" style="stroke: #000000; stroke-width: 0.8"/>
      </g>
     </g>
     <g id="text_11">
      <!-- 4 -->
      <g transform="translate(166.6375 162.81353) scale(0.1 -0.1)">
       <use xlink:href="#DejaVuSans-34"/>
      </g>
     </g>
    </g>
    <g id="ytick_6">
     <g id="line2d_12">
      <g>
       <use xlink:href="#m8cb435492f" x="180" y="81.237256" style="stroke: #000000; stroke-width: 0.8"/>
      </g>
     </g>
     <g id="text_12">
      <!-- 6 -->
      <g transform="translate(166.6375 85.036475) scale(0.1 -0.1)">
       <defs>
        <path id="DejaVuSans-36" d="M 2113 2584 
Q 1688 2584 1439 2293 
Q 1191 2003 1191 1497 
Q 1191 994 1439 701 
Q 1688 409 2113 409 
Q 2538 409 2786 701 
Q 3034 994 3034 1497 
Q 3034 2003 2786 2293 
Q 2538 2584 2113 2584 
z
M 3366 4563 
L 3366 3988 
Q 3128 4100 2886 4159 
Q 2644 4219 2406 4219 
Q 1781 4219 1451 3797 
Q 1122 3375 1075 2522 
Q 1259 2794 1537 2939 
Q 1816 3084 2150 3084 
Q 2853 3084 3261 2657 
Q 3669 2231 3669 1497 
Q 3669 778 3244 343 
Q 2819 -91 2113 -91 
Q 1303 -91 875 529 
Q 447 1150 447 2328 
Q 447 3434 972 4092 
Q 1497 4750 2381 4750 
Q 2619 4750 2861 4703 
Q 3103 4656 3366 4563 
z
" transform="scale(0.015625)"/>
       </defs>
       <use xlink:href="#DejaVuSans-36"/>
      </g>
     </g>
    </g>
   </g>
   <g id="line2d_13">
    <path d="M 230.727273 288.069859 
L 231.719979 296.674943 
L 232.712685 324.285198 
L 233.70539 286.002326 
L 234.698096 310.238851 
L 235.690802 306.673214 
L 236.683508 293.231811 
L 237.676214 315.33385 
L 238.66892 296.37221 
L 239.661626 310.965244 
L 240.654332 298.062219 
L 241.647038 289.948641 
L 242.639744 327.651296 
L 243.63245 288.523903 
L 244.625156 293.229403 
L 245.617862 309.261542 
L 246.610568 286.903737 
L 247.603273 309.741137 
L 248.595979 307.736071 
L 249.588685 336.114158 
L 250.581391 282.793998 
L 251.574097 267.958655 
L 252.566803 314.991941 
L 253.559509 271.09958 
L 254.552215 264.889594 
L 256.537627 236.180086 
L 257.530333 251.077215 
L 258.523039 217.563539 
L 259.515745 204.940925 
L 260.50845 222.909465 
L 261.501156 230.912043 
L 262.493862 212.721598 
L 263.486568 221.617871 
L 264.479274 211.157958 
L 265.47198 194.384108 
L 266.464686 199.354004 
L 267.457392 255.788364 
L 268.450098 223.871206 
L 269.442804 229.847178 
L 270.43551 238.214269 
L 271.428216 202.657698 
L 272.420922 218.715601 
L 273.413627 267.267705 
L 274.406333 227.007083 
L 275.399039 182.051677 
L 276.391745 177.836443 
L 277.384451 177.359674 
L 278.377157 145.763285 
L 279.369863 141.374873 
L 280.362569 168.285967 
L 281.355275 149.625228 
L 282.347981 140.031874 
L 283.340687 150.687919 
L 284.333393 106.776349 
L 285.326099 89.28 
L 286.318804 93.047443 
L 287.31151 117.719325 
L 288.304216 119.756016 
L 289.296922 113.972078 
L 290.289628 139.249273 
L 291.282334 220.267971 
L 292.27504 163.780867 
L 293.267746 156.175553 
L 294.260452 152.543966 
L 295.253158 175.570998 
L 296.245864 173.399948 
L 297.23857 165.378862 
L 298.231276 182.676803 
L 299.223981 205.059876 
L 300.216687 240.72756 
L 301.209393 197.523614 
L 302.202099 199.43129 
L 303.194805 228.178342 
L 304.187511 220.520663 
L 305.180217 239.766783 
L 306.172923 239.290364 
L 307.165629 242.95947 
L 308.158335 304.097358 
L 309.151041 251.694012 
L 310.143747 272.531858 
L 311.136453 265.703307 
L 312.129159 247.187125 
L 313.121864 283.29857 
L 314.11457 265.451553 
L 315.107276 261.796607 
L 316.099982 336.820634 
L 317.092688 266.810134 
L 318.085394 298.739641 
L 319.0781 278.574691 
L 320.070806 268.199082 
L 321.063512 333.105837 
L 322.056218 272.734622 
L 323.048924 275.042455 
L 324.04163 369.060679 
L 325.034336 283.968201 
L 326.027041 302.937433 
L 327.019747 299.486969 
L 328.012453 289.215432 
L 329.005159 341.045596 
L 329.997865 278.906327 
L 330.990571 300.087389 
L 331.983277 297.908718 
L 332.975983 278.595063 
L 333.968689 352.336143 
L 334.961395 286.794893 
L 335.954101 291.333639 
L 336.946807 333.563127 
L 337.939513 282.731469 
L 339.924924 318.712025 
L 340.91763 285.524584 
L 342.903042 329.424498 
L 343.895748 301.484232 
L 344.888454 313.648176 
L 345.88116 322.545347 
L 346.873866 321.546528 
L 347.866572 308.73428 
L 348.859278 321.409637 
L 349.851984 318.819664 
L 350.84469 310.049187 
L 351.837395 341.373378 
L 352.830101 306.311179 
L 353.822807 313.11994 
L 354.815513 352.623001 
L 355.808219 304.941074 
L 356.800925 314.278368 
L 357.793631 341.4647 
L 358.786337 305.813837 
L 359.779043 327.136064 
L 360.771749 321.444244 
L 361.764455 309.449605 
L 362.757161 351.294828 
L 363.749867 314.737261 
L 364.742572 304.11332 
L 365.735278 331.364082 
L 366.727984 324.638403 
L 367.72069 285.895837 
L 368.713396 289.849969 
L 369.706102 294.361805 
L 370.698808 269.757651 
L 371.691514 275.028847 
L 372.68422 283.930092 
L 373.676926 269.632978 
L 374.669632 285.423101 
L 375.662338 297.721272 
L 376.655044 285.611084 
L 377.64775 333.231296 
L 378.640455 294.543021 
L 379.633161 298.298148 
L 380.625867 307.796891 
L 381.618573 286.656212 
L 382.611279 335.240175 
L 383.603985 297.619854 
L 384.596691 294.735291 
L 385.589397 261.830691 
L 386.582103 240.549328 
L 387.574809 232.438372 
L 388.567515 219.011262 
L 389.560221 209.148092 
L 390.552927 204.726964 
L 391.545632 197.85808 
L 392.538338 193.239148 
L 393.531044 191.922616 
L 394.52375 189.163771 
L 395.516456 188.219637 
L 396.509162 190.519944 
L 397.501868 191.267023 
L 398.494574 193.94994 
L 399.48728 200.521721 
L 400.479986 205.705562 
L 401.472692 213.264523 
L 403.458104 241.776023 
L 404.450809 265.439611 
L 405.443515 325.321487 
L 406.436221 279.641585 
L 407.428927 265.476173 
L 408.421633 247.179495 
L 409.414339 245.503228 
L 410.407045 247.684943 
L 411.399751 243.839831 
L 412.392457 252.413275 
L 413.385163 264.725228 
L 414.377869 268.017212 
L 415.370575 296.115922 
L 416.363281 335.104968 
L 417.355986 339.219869 
L 418.348692 303.254631 
L 419.341398 281.664077 
L 420.334104 292.725485 
L 421.32681 280.110802 
L 422.319516 278.625667 
L 423.312222 302.569218 
L 424.304928 289.319264 
L 425.297634 300.991282 
L 426.29034 321.826634 
L 427.283046 297.663408 
L 428.275752 321.581821 
L 429.268458 301.804486 
L 430.261163 298.153836 
L 431.253869 332.70544 
L 432.246575 304.157375 
L 433.239281 314.769567 
L 434.231987 341.431669 
L 435.224693 312.036507 
L 436.217399 368.610811 
L 437.210105 314.614827 
L 438.202811 313.811526 
L 439.195517 351.481915 
L 440.188223 310.535237 
L 441.180929 324.332124 
L 442.173635 362.706535 
L 443.166341 328.971528 
L 444.159046 355.953066 
L 445.151752 340.211711 
L 446.144458 360.613806 
L 447.137164 338.23746 
L 448.12987 322.693392 
L 449.122576 392.940157 
L 450.115282 331.499519 
L 451.107988 328.824464 
L 452.100694 375.597381 
L 453.0934 323.325299 
L 454.086106 348.665827 
L 455.078812 339.281275 
L 456.071518 318.553283 
L 457.064223 361.739419 
L 458.056929 333.689803 
L 459.049635 323.872835 
L 460.042341 387.470889 
L 461.035047 338.969857 
L 462.027753 346.557635 
L 463.020459 359.020716 
L 464.013165 335.915883 
L 465.005871 370.942866 
L 465.998577 342.527109 
L 466.991283 329.338036 
L 467.983989 369.515454 
L 469.9694 328.847719 
L 470.962106 347.541259 
L 471.954812 383.249412 
L 472.947518 330.250566 
L 473.940224 329.734532 
L 474.93293 398.846688 
L 475.925636 330.802966 
L 476.918342 322.15626 
L 477.911048 372.316443 
L 478.903754 337.231764 
L 479.89646 325.835221 
L 480.889166 392.811349 
L 481.881872 337.342995 
L 482.874577 336.549058 
L 483.867283 395.763321 
L 484.859989 323.29196 
L 485.852695 325.800288 
L 486.845401 353.711333 
L 487.838107 317.030508 
L 488.830813 317.416317 
L 489.823519 349.105849 
L 490.816225 316.299815 
L 491.808931 304.87439 
L 492.801637 315.036205 
L 493.794343 304.154431 
L 494.787049 286.117814 
L 495.779754 283.532861 
L 496.77246 280.280396 
L 497.765166 265.086588 
L 498.757872 261.416701 
L 499.750578 258.936043 
L 500.743284 249.4789 
L 501.73599 246.861313 
L 502.728696 246.075555 
L 503.721402 240.132137 
L 504.714108 239.276624 
L 505.706814 240.585565 
L 506.69952 237.116031 
L 507.692226 239.024631 
L 508.684932 243.042592 
L 509.677637 242.662854 
L 510.670343 248.192141 
L 511.663049 257.425202 
L 512.655755 260.592438 
L 513.648461 274.17506 
L 514.641167 298.118883 
L 515.633873 304.354573 
L 516.626579 338.396848 
L 517.619285 292.861246 
L 519.604697 280.366425 
L 520.597403 268.424742 
L 521.590109 271.846696 
L 522.582814 273.423752 
L 523.57552 269.438279 
L 525.560932 292.95089 
L 526.553638 293.864302 
L 527.546344 327.01197 
L 528.53905 385.869284 
L 529.531756 403.553851 
L 530.524462 315.791536 
L 531.517168 305.284203 
L 532.509874 313.962125 
L 533.50258 299.397508 
L 534.495286 302.349345 
L 535.487991 327.554462 
L 536.480697 316.976898 
L 537.473403 335.787334 
L 538.466109 343.955283 
L 539.458815 329.106708 
L 540.451521 339.713086 
L 541.444227 307.527982 
L 542.436933 314.588237 
L 543.429639 319.532114 
L 544.422345 303.095082 
L 545.415051 321.93383 
L 546.407757 327.534783 
L 547.400463 317.976438 
L 548.393168 366.9962 
L 549.385874 329.704963 
L 551.371286 343.482266 
L 552.363992 319.852689 
L 553.356698 342.778196 
L 554.349404 340.598809 
L 555.34211 334.710802 
L 556.334816 409.377377 
L 557.327522 350.527252 
L 558.320228 416.54574 
L 559.312934 337.709655 
L 560.30564 329.752794 
L 561.298345 355.990411 
L 562.291051 320.975323 
L 563.283757 327.60327 
L 564.276463 348.749152 
L 565.269169 322.173163 
L 566.261875 345.32694 
L 567.254581 340.813311 
L 568.247287 326.904491 
L 569.239993 365.300859 
L 570.232699 325.779418 
L 571.225405 334.873273 
L 572.218111 358.816653 
L 573.210817 326.987242 
L 574.203523 355.221127 
L 575.196228 353.29907 
L 576.188934 343.062757 
L 577.18164 461.457562 
L 578.174346 336.332573 
L 579.167052 355.40622 
L 580.159758 354.222636 
L 581.152464 332.131809 
L 582.14517 381.759484 
L 583.137876 343.568455 
L 584.130582 342.118217 
L 585.123288 373.435778 
L 586.115994 326.314607 
L 587.1087 346.824086 
L 588.101405 331.708758 
L 589.094111 314.484106 
L 590.086817 333.610039 
L 591.079523 320.174739 
L 592.072229 314.745062 
L 593.064935 337.598838 
L 594.057641 322.524591 
L 595.050347 325.279413 
L 596.043053 354.584134 
L 597.035759 325.865753 
L 598.028465 339.826615 
L 599.021171 379.365105 
L 600.013877 340.275028 
L 601.006582 342.566799 
L 601.999288 358.179486 
L 602.991994 335.775813 
L 603.9847 306.227417 
L 604.977406 301.160988 
L 605.970112 294.444512 
L 606.962818 278.209514 
L 608.94823 271.770243 
L 609.940936 262.751813 
L 611.926348 261.745236 
L 612.919054 256.824089 
L 613.911759 258.833408 
L 614.904465 260.547595 
L 615.897171 258.301502 
L 616.889877 262.800027 
L 617.882583 266.153238 
L 618.875289 264.874799 
L 619.867995 271.695927 
L 620.860701 274.804918 
L 621.853407 273.827029 
L 622.846113 283.488515 
L 623.838819 285.318331 
L 624.831525 285.387618 
L 625.824231 299.787254 
L 626.816936 302.868945 
L 627.809642 307.799196 
L 628.802348 342.679144 
L 629.795054 346.41554 
L 630.78776 379.626025 
L 631.780466 339.369484 
L 632.773172 325.902063 
L 633.765878 330.963131 
L 634.758584 306.88538 
L 635.75129 303.885296 
L 636.743996 312.581558 
L 637.736702 301.574297 
L 638.729408 301.856775 
L 639.722114 316.788629 
L 640.714819 312.144737 
L 641.707525 311.126453 
L 642.700231 332.915119 
L 643.692937 342.930955 
L 644.685643 328.10839 
L 645.678349 331.39896 
L 646.671055 354.570955 
L 647.663761 335.625183 
L 648.656467 319.992885 
L 649.649173 333.313793 
L 650.641879 340.563151 
L 651.634585 323.598757 
L 652.627291 334.69038 
L 653.619996 374.611541 
L 654.612702 349.837287 
L 655.605408 343.178825 
L 656.598114 353.743011 
L 657.59082 379.294048 
L 658.583526 334.860864 
L 659.576232 327.839223 
L 660.568938 350.954942 
L 661.561644 331.138063 
L 662.55435 326.466079 
L 663.547056 358.305454 
L 664.539762 343.817517 
L 665.532468 342.90903 
L 666.525173 459.568773 
L 667.517879 351.581086 
L 668.510585 369.403803 
L 669.503291 366.02308 
L 670.495997 339.547983 
L 671.488703 365.540976 
L 672.481409 357.41159 
L 673.474115 338.462142 
L 674.466821 363.477124 
L 675.459527 380.615643 
L 676.452233 349.597259 
L 677.444939 359.098311 
L 678.437645 443.161687 
L 679.43035 364.483112 
L 680.423056 354.210383 
L 681.415762 390.13102 
L 682.408468 376.408715 
L 683.401174 360.255121 
L 684.39388 397.38455 
L 685.386586 365.799958 
L 686.379292 368.781214 
L 687.371998 403.085119 
L 688.364704 348.183787 
L 689.35741 356.007323 
L 690.350116 381.887111 
L 691.342822 339.4657 
L 692.335527 346.776436 
L 693.328233 377.584346 
L 694.320939 339.631946 
L 695.313645 347.033191 
L 696.306351 392.251496 
L 697.299057 346.250199 
L 698.291763 360.406733 
L 699.284469 387.155505 
L 700.277175 348.909441 
L 701.269881 380.068154 
L 703.255293 343.175709 
L 704.247999 374.531495 
L 705.240705 361.266298 
L 706.23341 342.305347 
L 707.226116 358.378201 
L 708.218822 385.986137 
L 709.211528 339.789142 
L 710.204234 331.276778 
L 711.19694 344.410269 
L 712.189646 322.659863 
L 713.182352 311.244292 
L 714.175058 318.80884 
L 715.167764 308.513786 
L 716.16047 300.624954 
L 717.153176 308.197087 
L 718.145882 301.273026 
L 719.138587 296.520559 
L 720.131293 304.734399 
L 721.123999 298.224203 
L 722.116705 295.756389 
L 723.109411 304.143324 
L 724.102117 296.94088 
L 725.094823 296.416477 
L 726.087529 305.074363 
L 727.080235 297.996209 
L 728.072941 299.768107 
L 729.065647 310.264302 
L 730.058353 303.49541 
L 731.051059 307.708378 
L 732.043764 322.275452 
L 733.03647 314.276312 
L 734.029176 321.267977 
L 735.021882 344.378881 
L 736.014588 330.183345 
L 737.007294 340.983151 
L 738 383.048436 
L 738.992706 348.458464 
L 739.985412 366.700839 
L 740.978118 396.703819 
L 741.970824 363.576031 
L 742.96353 393.22747 
L 743.956236 375.618002 
L 744.948941 376.627582 
L 745.941647 392.389827 
L 746.934353 368.230042 
L 747.927059 390.643931 
L 748.919765 380.864022 
L 749.912471 367.331001 
L 750.905177 395.952943 
L 751.897883 381.176265 
L 752.890589 376.813429 
L 753.883295 376.869054 
L 754.876001 384.745483 
L 755.868707 393.754371 
L 756.861413 356.444421 
L 758.846824 382.607356 
L 759.83953 345.881441 
L 761.824942 378.19325 
L 762.817648 348.14279 
L 763.810354 372.062711 
L 764.80306 388.33046 
L 765.795766 365.442835 
L 766.788472 398.695262 
L 767.781178 365.936513 
L 768.773884 390.56508 
L 769.76659 369.991055 
L 770.759295 346.90143 
L 771.752001 377.211459 
L 772.744707 356.230248 
L 773.737413 342.694265 
L 774.730119 378.218639 
L 775.722825 358.580042 
L 776.715531 350.001393 
L 777.708237 409.455747 
L 778.700943 366.253823 
L 779.693649 365.053375 
L 780.686355 420.636918 
L 781.679061 368.272873 
L 782.671767 378.816 
L 783.664473 400.594919 
L 784.657178 369.802711 
L 785.649884 376.668384 
L 786.64259 410.556532 
L 787.635296 374.303419 
L 788.628002 364.480226 
L 789.620708 406.320946 
L 790.613414 375.020888 
L 791.60612 357.476934 
L 792.598826 396.420228 
L 793.591532 374.979657 
L 794.584238 359.374651 
L 795.576944 405.761028 
L 796.56965 376.161571 
L 797.562355 369.541604 
L 798.555061 410.278839 
L 799.547767 371.059182 
L 800.540473 382.472585 
L 801.533179 395.424299 
L 802.525885 367.108407 
L 803.518591 387.204101 
L 804.511297 394.305897 
L 805.504003 369.088493 
L 806.496709 381.133048 
L 807.489415 406.505911 
L 808.482121 374.029382 
L 809.474827 370.939605 
L 810.467532 414.352046 
L 811.460238 375.765242 
L 812.452944 364.026332 
L 813.44565 409.260583 
L 814.438356 375.437684 
L 815.431062 361.530302 
L 816.423768 403.589117 
L 817.416474 378.559857 
L 818.40918 361.110225 
L 819.401886 390.390753 
L 820.394592 389.453709 
L 821.387298 357.879892 
L 822.380004 368.75443 
L 823.372709 396.500736 
L 824.365415 347.161206 
L 825.358121 348.740452 
L 826.350827 367.185611 
L 827.343533 334.800078 
L 828.336239 334.143212 
L 829.328945 346.839221 
L 830.321651 325.398149 
L 831.314357 325.765832 
L 832.307063 337.086285 
L 833.299769 320.695145 
L 834.292475 322.806463 
L 835.285181 334.738158 
L 836.277886 320.488218 
L 837.270592 324.988126 
L 838.263298 338.651258 
L 839.256004 324.288156 
L 840.24871 331.712184 
L 841.241416 347.530438 
L 842.234122 330.915005 
L 843.226828 342.793796 
L 844.219534 360.671356 
L 845.21224 340.224193 
L 847.197652 378.508809 
L 848.190358 354.185773 
L 849.183064 386.111659 
L 850.175769 388.132427 
L 851.168475 376.511988 
L 852.161181 397.072479 
L 853.153887 368.053644 
L 854.146593 397.188838 
L 856.132005 351.990439 
L 857.124711 375.485128 
L 858.117417 366.98003 
L 859.110123 343.291642 
L 860.102829 356.851205 
L 861.095535 364.062055 
L 862.088241 338.064315 
L 863.080946 343.6826 
L 864.073652 360.37909 
L 865.066358 335.909652 
L 866.059064 336.871869 
L 867.05177 359.420522 
L 868.044476 340.044679 
L 869.037182 338.633879 
L 870.029888 370.292923 
L 871.022594 357.211436 
L 872.0153 351.196548 
L 873.008006 381.762032 
L 874.000712 424.664773 
L 874.993418 372.718273 
L 875.986123 357.421891 
L 876.978829 373.537018 
L 877.971535 376.245607 
L 878.964241 344.413806 
L 879.956947 352.238217 
L 880.949653 375.101178 
L 881.942359 345.389142 
L 882.935065 348.964557 
L 883.927771 388.543269 
L 884.920477 357.744802 
L 885.913183 351.688239 
L 886.905889 385.295485 
L 887.898595 379.161994 
L 888.8913 356.39357 
L 889.884006 376.23806 
L 890.876712 409.395097 
L 891.869418 368.144984 
L 892.862124 386.002872 
L 893.85483 391.442622 
L 894.847536 385.55154 
L 895.840242 404.007549 
L 896.832948 365.230258 
L 898.81836 394.936815 
L 899.811066 357.645232 
L 900.803772 376.096171 
L 901.796477 400.343671 
L 902.789183 365.057654 
L 903.781889 385.199702 
L 904.774595 399.711715 
L 905.767301 389.945308 
L 906.760007 381.31998 
L 907.752713 375.893736 
L 908.745419 451.563367 
L 909.738125 368.210331 
L 910.730831 367.795204 
L 911.723537 443.190865 
L 912.716243 362.430633 
L 913.708949 373.888668 
L 914.701655 401.637898 
L 915.69436 360.80119 
L 916.687066 391.585956 
L 917.679772 380.002588 
L 918.672478 363.086413 
L 919.665184 431.480572 
L 920.65789 370.914048 
L 921.650596 371.841234 
L 922.643302 430.371363 
L 923.636008 367.977788 
L 924.628714 387.008957 
L 925.62142 396.786405 
L 926.614126 371.888727 
L 927.606832 396.364543 
L 928.599537 394.639032 
L 929.592243 393.641409 
L 930.584949 371.423317 
L 932.570361 385.022461 
L 933.563067 344.243589 
L 934.555773 349.436332 
L 935.548479 349.806999 
L 936.541185 327.639642 
L 937.533891 333.158666 
L 938.526597 333.938433 
L 939.519303 319.458875 
L 940.512009 326.573874 
L 941.504714 327.779406 
L 942.49742 317.043588 
L 943.490126 326.445706 
L 944.482832 326.619195 
L 945.475538 317.805142 
L 946.468244 329.541394 
L 947.46095 326.961309 
L 948.453656 319.942401 
L 949.446362 334.027772 
L 951.431774 324.306468 
L 952.42448 342.451773 
L 953.417186 336.160706 
L 954.409891 333.880511 
L 955.402597 363.048333 
L 956.395303 351.955694 
L 957.388009 353.519339 
L 958.380715 441.518302 
L 959.373421 373.124969 
L 960.366127 396.066339 
L 961.358833 379.090188 
L 962.351539 368.37309 
L 963.344245 432.650817 
L 964.336951 358.308799 
L 965.329657 360.335989 
L 966.322363 398.781266 
L 967.315068 353.956274 
L 968.307774 361.060363 
L 969.30048 397.279679 
L 970.293186 355.202779 
L 971.285892 365.609004 
L 972.278598 401.567766 
L 973.271304 357.452126 
L 974.26401 366.520071 
L 975.256716 414.219404 
L 976.249422 360.568154 
L 977.242128 361.671705 
L 978.234834 417.483641 
L 979.22754 366.182664 
L 980.220246 356.494542 
L 981.212951 388.809221 
L 982.205657 377.554392 
L 983.198363 355.970545 
L 984.191069 374.155677 
L 985.183775 407.025459 
L 986.176481 364.051645 
L 987.169187 369.394478 
L 988.161893 425.527789 
L 989.154599 392.76963 
L 990.147305 369.965349 
L 991.140011 370.204752 
L 992.132717 417.666275 
L 993.125423 366.659965 
L 994.118128 347.821013 
L 995.110834 362.902406 
L 996.10354 358.093045 
L 997.096246 337.449288 
L 999.081658 355.782384 
L 1000.074364 336.947823 
L 1001.06707 346.367543 
L 1002.059776 368.641655 
L 1003.052482 347.425321 
L 1004.045188 359.598626 
L 1005.037894 422.688064 
L 1006.0306 371.241387 
L 1007.023305 389.117476 
L 1008.016011 387.577723 
L 1009.008717 387.401141 
L 1010.001423 416.451112 
L 1010.994129 370.47953 
L 1011.986835 379.350518 
L 1012.979541 437.973378 
L 1013.972247 382.48375 
L 1014.964953 374.796991 
L 1015.957659 386.947983 
L 1016.950365 432.894095 
L 1017.943071 363.836405 
L 1018.935777 361.876565 
L 1019.928482 405.209202 
L 1020.921188 357.80564 
L 1021.913894 356.722679 
L 1022.9066 405.687093 
L 1023.899306 361.126636 
L 1024.892012 366.256541 
L 1025.884718 431.227554 
L 1026.877424 366.244824 
L 1027.87013 387.845606 
L 1028.862836 388.366169 
L 1029.855542 363.541691 
L 1030.848248 402.693913 
L 1031.840954 379.13906 
L 1032.833659 363.920376 
L 1033.826365 401.983185 
L 1034.819071 393.101469 
L 1035.811777 371.50049 
L 1036.804483 382.744708 
L 1037.797189 453.57211 
L 1038.789895 374.145034 
L 1039.782601 364.803134 
L 1040.775307 414.002321 
L 1041.768013 364.753538 
L 1042.760719 354.547684 
L 1043.753425 387.647296 
L 1044.746131 351.405163 
L 1045.738837 345.70434 
L 1046.731542 365.169625 
L 1047.724248 338.731974 
L 1048.716954 336.168344 
L 1049.70966 349.009103 
L 1050.702366 330.147638 
L 1051.695072 329.806333 
L 1052.687778 341.868291 
L 1053.680484 327.404509 
L 1054.67319 329.397994 
L 1055.665896 344.363907 
L 1056.658602 331.017087 
L 1057.651308 336.239065 
L 1058.644014 356.523956 
L 1059.636719 339.61105 
L 1060.629425 350.21436 
L 1061.622131 371.618665 
L 1062.614837 347.776374 
L 1063.607543 368.053124 
L 1064.600249 371.571223 
L 1065.592955 352.642945 
L 1066.585661 386.496122 
L 1067.578367 373.038704 
L 1068.571073 362.560307 
L 1069.563779 420.313952 
L 1070.556485 385.428471 
L 1071.549191 388.247051 
L 1072.541896 390.362831 
L 1073.534602 381.969423 
L 1074.527308 446.523073 
L 1075.520014 369.362607 
L 1076.51272 372.459474 
L 1077.505426 440.099256 
L 1078.498132 368.32271 
L 1079.490838 378.04521 
L 1080.483544 424.016447 
L 1081.47625 381.723863 
L 1082.468956 401.032522 
L 1083.461662 381.054845 
L 1084.454368 389.401544 
L 1085.447073 405.389192 
L 1086.439779 364.134172 
L 1088.425191 396.211282 
L 1089.417897 362.349966 
L 1090.410603 384.583018 
L 1091.403309 401.448365 
L 1092.396015 373.375399 
L 1093.388721 405.938741 
L 1094.381427 385.86491 
L 1095.374133 391.819288 
L 1096.366839 400.481272 
L 1097.359545 366.332099 
L 1098.35225 392.273307 
L 1099.344956 379.325351 
L 1100.337662 356.855883 
L 1101.330368 386.580418 
L 1102.323074 367.261641 
L 1103.31578 352.339508 
L 1104.308486 383.537726 
L 1105.301192 357.425318 
L 1106.293898 348.582331 
L 1107.286604 375.843861 
L 1108.27931 349.917963 
L 1109.272016 345.358407 
L 1110.264722 370.754163 
L 1111.257428 348.067022 
L 1112.250133 346.335478 
L 1113.242839 377.473856 
L 1114.235545 354.557802 
L 1115.228251 354.757439 
L 1116.220957 407.677349 
L 1117.213663 370.369196 
L 1118.206369 371.473752 
L 1119.199075 430.235798 
L 1120.191781 385.381533 
L 1121.184487 392.468051 
L 1122.177193 398.321598 
L 1123.169899 383.114954 
L 1124.162605 398.2846 
L 1125.15531 406.39679 
L 1126.148016 377.819357 
L 1127.140722 380.194877 
L 1128.133428 492.48 
L 1129.126134 373.013018 
L 1130.11884 364.570901 
L 1131.111546 411.243541 
L 1132.104252 371.416451 
L 1133.096958 359.483684 
L 1134.089664 396.389545 
L 1136.075076 365.195003 
L 1137.067782 399.776956 
L 1138.060487 398.023537 
L 1139.053193 382.381158 
L 1140.045899 398.20725 
L 1141.038605 386.595636 
L 1142.031311 403.95983 
L 1143.024017 394.84862 
L 1144.016723 371.904432 
L 1145.009429 393.117349 
L 1146.002135 406.763292 
L 1146.994841 368.277814 
L 1147.987547 375.32403 
L 1148.980253 471.739828 
L 1149.972959 371.975383 
L 1150.965664 363.403322 
L 1151.95837 396.620791 
L 1152.951076 377.624082 
L 1153.943782 354.820128 
L 1154.936488 370.496986 
L 1155.929194 378.075528 
L 1156.9219 349.543151 
L 1157.914606 359.975956 
L 1158.907312 375.305081 
L 1159.900018 347.63288 
L 1160.892724 358.021287 
L 1161.88543 373.867697 
L 1162.878136 347.579428 
L 1163.870841 360.970644 
L 1164.863547 372.094336 
L 1165.856253 348.313095 
L 1166.848959 366.488733 
L 1167.841665 371.205078 
L 1168.834371 350.866202 
L 1169.827077 375.830368 
L 1170.819783 375.855676 
L 1171.812489 358.206158 
L 1172.805195 394.694346 
L 1173.797901 386.033423 
L 1174.790607 371.719722 
L 1175.783313 415.984728 
L 1176.776019 387.078545 
L 1177.768724 386.753367 
L 1178.76143 412.021248 
L 1179.754136 380.755942 
L 1180.746842 389.712126 
L 1181.739548 419.439233 
L 1182.732254 377.922151 
L 1183.72496 380.060277 
L 1184.717666 468.600918 
L 1185.710372 374.779564 
L 1186.703078 370.016045 
L 1187.695784 448.414473 
L 1188.68849 370.875328 
L 1189.681196 366.037176 
L 1190.673901 433.535887 
L 1191.666607 366.955356 
L 1192.659313 366.514115 
L 1193.652019 425.197273 
L 1194.644725 362.721332 
L 1195.637431 368.60806 
L 1196.630137 405.371186 
L 1197.622843 359.175097 
L 1198.615549 370.463961 
L 1199.608255 398.086337 
L 1200.600961 359.408372 
L 1201.593667 375.367517 
L 1202.586373 403.041503 
L 1203.579078 365.98044 
L 1204.571784 389.52733 
L 1205.56449 400.761944 
L 1206.557196 378.783483 
L 1207.549902 423.109164 
L 1208.542608 375.721921 
L 1209.535314 382.040255 
L 1210.52802 400.208431 
L 1211.520726 356.029873 
L 1212.513432 365.813858 
L 1213.506138 371.742232 
L 1214.498844 344.224304 
L 1215.49155 353.379601 
L 1216.484255 359.926082 
L 1217.476961 339.042732 
L 1219.462373 358.691555 
L 1220.455079 340.259661 
L 1221.447785 352.293606 
L 1222.440491 368.96633 
L 1223.433197 348.332411 
L 1224.425903 363.881276 
L 1225.418609 396.886718 
L 1226.411315 364.2794 
L 1227.404021 381.867491 
L 1228.396727 417.971561 
L 1229.389432 388.674632 
L 1230.382138 393.37052 
L 1231.374844 386.291288 
L 1232.36755 406.590538 
L 1233.360256 395.688439 
L 1234.352962 377.888713 
L 1235.345668 398.783778 
L 1236.338374 407.098457 
L 1237.33108 382.687273 
L 1238.323786 385.895038 
L 1239.316492 408.848417 
L 1240.309198 399.343589 
L 1241.301904 376.018299 
L 1242.29461 387.470797 
L 1243.287315 429.314444 
L 1244.280021 371.382216 
L 1245.272727 374.767398 
L 1245.272727 374.767398 
" clip-path="url(#pd4609b56be)" style="fill: none; stroke: #1f77b4; stroke-width: 1.5; stroke-linecap: square"/>
   </g>
   <g id="patch_3">
    <path d="M 180 512.64 
L 180 69.12 
" style="fill: none; stroke: #000000; stroke-width: 0.8; stroke-linejoin: miter; stroke-linecap: square"/>
   </g>
   <g id="patch_4">
    <path d="M 1296 512.64 
L 1296 69.12 
" style="fill: none; stroke: #000000; stroke-width: 0.8; stroke-linejoin: miter; stroke-linecap: square"/>
   </g>
   <g id="patch_5">
    <path d="M 180 512.64 
L 1296 512.64 
" style="fill: none; stroke: #000000; stroke-width: 0.8; stroke-linejoin: miter; stroke-linecap: square"/>
   </g>
   <g id="patch_6">
    <path d="M 180 69.12 
L 1296 69.12 
" style="fill: none; stroke: #000000; stroke-width: 0.8; stroke-linejoin: miter; stroke-linecap: square"/>
   </g>
   <g id="text_13">
    <!-- source20-receiver12 -->
    <g transform="translate(532.175 60.80125) scale(0.4 -0.4)">
     <defs>
      <path id="DejaVuSans-73" d="M 2834 3397 
L 2834 2853 
Q 2591 2978 2328 3040 
Q 2066 3103 1784 3103 
Q 1356 3103 1142 2972 
Q 928 2841 928 2578 
Q 928 2378 1081 2264 
Q 1234 2150 1697 2047 
L 1894 2003 
Q 2506 1872 2764 1633 
Q 3022 1394 3022 966 
Q 3022 478 2636 193 
Q 2250 -91 1575 -91 
Q 1294 -91 989 -36 
Q 684 19 347 128 
L 347 722 
Q 666 556 975 473 
Q 1284 391 1588 391 
Q 1994 391 2212 530 
Q 2431 669 2431 922 
Q 2431 1156 2273 1281 
Q 2116 1406 1581 1522 
L 1381 1569 
Q 847 1681 609 1914 
Q 372 2147 372 2553 
Q 372 3047 722 3315 
Q 1072 3584 1716 3584 
Q 2034 3584 2315 3537 
Q 2597 3491 2834 3397 
z
" transform="scale(0.015625)"/>
      <path id="DejaVuSans-6f" d="M 1959 3097 
Q 1497 3097 1228 2736 
Q 959 2375 959 1747 
Q 959 1119 1226 758 
Q 1494 397 1959 397 
Q 2419 397 2687 759 
Q 2956 1122 2956 1747 
Q 2956 2369 2687 2733 
Q 2419 3097 1959 3097 
z
M 1959 3584 
Q 2709 3584 3137 3096 
Q 3566 2609 3566 1747 
Q 3566 888 3137 398 
Q 2709 -91 1959 -91 
Q 1206 -91 779 398 
Q 353 888 353 1747 
Q 353 2609 779 3096 
Q 1206 3584 1959 3584 
z
" transform="scale(0.015625)"/>
      <path id="DejaVuSans-75" d="M 544 1381 
L 544 3500 
L 1119 3500 
L 1119 1403 
Q 1119 906 1312 657 
Q 1506 409 1894 409 
Q 2359 409 2629 706 
Q 2900 1003 2900 1516 
L 2900 3500 
L 3475 3500 
L 3475 0 
L 2900 0 
L 2900 538 
Q 2691 219 2414 64 
Q 2138 -91 1772 -91 
Q 1169 -91 856 284 
Q 544 659 544 1381 
z
M 1991 3584 
L 1991 3584 
z
" transform="scale(0.015625)"/>
      <path id="DejaVuSans-72" d="M 2631 2963 
Q 2534 3019 2420 3045 
Q 2306 3072 2169 3072 
Q 1681 3072 1420 2755 
Q 1159 2438 1159 1844 
L 1159 0 
L 581 0 
L 581 3500 
L 1159 3500 
L 1159 2956 
Q 1341 3275 1631 3429 
Q 1922 3584 2338 3584 
Q 2397 3584 2469 3576 
Q 2541 3569 2628 3553 
L 2631 2963 
z
" transform="scale(0.015625)"/>
      <path id="DejaVuSans-63" d="M 3122 3366 
L 3122 2828 
Q 2878 2963 2633 3030 
Q 2388 3097 2138 3097 
Q 1578 3097 1268 2742 
Q 959 2388 959 1747 
Q 959 1106 1268 751 
Q 1578 397 2138 397 
Q 2388 397 2633 464 
Q 2878 531 3122 666 
L 3122 134 
Q 2881 22 2623 -34 
Q 2366 -91 2075 -91 
Q 1284 -91 818 406 
Q 353 903 353 1747 
Q 353 2603 823 3093 
Q 1294 3584 2113 3584 
Q 2378 3584 2631 3529 
Q 2884 3475 3122 3366 
z
" transform="scale(0.015625)"/>
      <path id="DejaVuSans-65" d="M 3597 1894 
L 3597 1613 
L 953 1613 
Q 991 1019 1311 708 
Q 1631 397 2203 397 
Q 2534 397 2845 478 
Q 3156 559 3463 722 
L 3463 178 
Q 3153 47 2828 -22 
Q 2503 -91 2169 -91 
Q 1331 -91 842 396 
Q 353 884 353 1716 
Q 353 2575 817 3079 
Q 1281 3584 2069 3584 
Q 2775 3584 3186 3129 
Q 3597 2675 3597 1894 
z
M 3022 2063 
Q 3016 2534 2758 2815 
Q 2500 3097 2075 3097 
Q 1594 3097 1305 2825 
Q 1016 2553 972 2059 
L 3022 2063 
z
" transform="scale(0.015625)"/>
      <path id="DejaVuSans-2d" d="M 313 2009 
L 1997 2009 
L 1997 1497 
L 313 1497 
L 313 2009 
z
" transform="scale(0.015625)"/>
      <path id="DejaVuSans-69" d="M 603 3500 
L 1178 3500 
L 1178 0 
L 603 0 
L 603 3500 
z
M 603 4863 
L 1178 4863 
L 1178 4134 
L 603 4134 
L 603 4863 
z
" transform="scale(0.015625)"/>
      <path id="DejaVuSans-76" d="M 191 3500 
L 800 3500 
L 1894 563 
L 2988 3500 
L 3597 3500 
L 2284 0 
L 1503 0 
L 191 3500 
z
" transform="scale(0.015625)"/>
     </defs>
     <use xlink:href="#DejaVuSans-73"/>
     <use xlink:href="#DejaVuSans-6f" x="52.099609"/>
     <use xlink:href="#DejaVuSans-75" x="113.28125"/>
     <use xlink:href="#DejaVuSans-72" x="176.660156"/>
     <use xlink:href="#DejaVuSans-63" x="215.523438"/>
     <use xlink:href="#DejaVuSans-65" x="270.503906"/>
     <use xlink:href="#DejaVuSans-32" x="332.027344"/>
     <use xlink:href="#DejaVuSans-30" x="395.650391"/>
     <use xlink:href="#DejaVuSans-2d" x="459.273438"/>
     <use xlink:href="#DejaVuSans-72" x="495.357422"/>
     <use xlink:href="#DejaVuSans-65" x="534.220703"/>
     <use xlink:href="#DejaVuSans-63" x="595.744141"/>
     <use xlink:href="#DejaVuSans-65" x="650.724609"/>
     <use xlink:href="#DejaVuSans-69" x="712.248047"/>
     <use xlink:href="#DejaVuSans-76" x="740.03125"/>
     <use xlink:href="#DejaVuSans-65" x="799.210938"/>
     <use xlink:href="#DejaVuSans-72" x="860.734375"/>
     <use xlink:href="#DejaVuSans-31" x="901.847656"/>
     <use xlink:href="#DejaVuSans-32" x="965.470703"/>
    </g>
   </g>
  </g>
 </g>
 <defs>
  <clipPath id="pd4609b56be">
   <rect x="180" y="69.12" width="1116" height="443.52"/>
  </clipPath>
 </defs>
</svg>
