<?xml version="1.0" encoding="utf-8" standalone="no"?>
<!DOCTYPE svg PUBLIC "-//W3C//DTD SVG 1.1//EN"
  "http://www.w3.org/Graphics/SVG/1.1/DTD/svg11.dtd">
<svg xmlns:xlink="http://www.w3.org/1999/xlink" width="1440pt" height="576pt" viewBox="0 0 1440 576" xmlns="http://www.w3.org/2000/svg" version="1.1">
 <metadata>
  <rdf:RDF xmlns:dc="http://purl.org/dc/elements/1.1/" xmlns:cc="http://creativecommons.org/ns#" xmlns:rdf="http://www.w3.org/1999/02/22-rdf-syntax-ns#">
   <cc:Work>
    <dc:type rdf:resource="http://purl.org/dc/dcmitype/StillImage"/>
    <dc:date>2024-05-22T04:50:18.582057</dc:date>
    <dc:format>image/svg+xml</dc:format>
    <dc:creator>
     <cc:Agent>
      <dc:title>Matplotlib v3.8.3, https://matplotlib.org/</dc:title>
     </cc:Agent>
    </dc:creator>
   </cc:Work>
  </rdf:RDF>
 </metadata>
 <defs>
  <style type="text/css">*{stroke-linejoin: round; stroke-linecap: butt}</style>
 </defs>
 <g id="figure_1">
  <g id="patch_1">
   <path d="M 0 576 
L 1440 576 
L 1440 0 
L 0 0 
z
" style="fill: #ffffff"/>
  </g>
  <g id="axes_1">
   <g id="patch_2">
    <path d="M 180 512.64 
L 1296 512.64 
L 1296 69.12 
L 180 69.12 
z
" style="fill: #ffffff"/>
   </g>
   <g id="matplotlib.axis_1">
    <g id="xtick_1">
     <g id="line2d_1">
      <defs>
       <path id="mfb72a4cacc" d="M 0 0 
L 0 3.5 
" style="stroke: #000000; stroke-width: 0.8"/>
      </defs>
      <g>
       <use xlink:href="#mfb72a4cacc" x="229.734567" y="512.64" style="stroke: #000000; stroke-width: 0.8"/>
      </g>
     </g>
     <g id="text_1">
      <!-- 0 -->
      <g transform="translate(226.553317 527.238438) scale(0.1 -0.1)">
       <defs>
        <path id="DejaVuSans-30" d="M 2034 4250 
Q 1547 4250 1301 3770 
Q 1056 3291 1056 2328 
Q 1056 1369 1301 889 
Q 1547 409 2034 409 
Q 2525 409 2770 889 
Q 3016 1369 3016 2328 
Q 3016 3291 2770 3770 
Q 2525 4250 2034 4250 
z
M 2034 4750 
Q 2819 4750 3233 4129 
Q 3647 3509 3647 2328 
Q 3647 1150 3233 529 
Q 2819 -91 2034 -91 
Q 1250 -91 836 529 
Q 422 1150 422 2328 
Q 422 3509 836 4129 
Q 1250 4750 2034 4750 
z
" transform="scale(0.015625)"/>
       </defs>
       <use xlink:href="#DejaVuSans-30"/>
      </g>
     </g>
    </g>
    <g id="xtick_2">
     <g id="line2d_2">
      <g>
       <use xlink:href="#mfb72a4cacc" x="433.04074" y="512.64" style="stroke: #000000; stroke-width: 0.8"/>
      </g>
     </g>
     <g id="text_2">
      <!-- 500 -->
      <g transform="translate(423.49699 527.238438) scale(0.1 -0.1)">
       <defs>
        <path id="DejaVuSans-35" d="M 691 4666 
L 3169 4666 
L 3169 4134 
L 1269 4134 
L 1269 2991 
Q 1406 3038 1543 3061 
Q 1681 3084 1819 3084 
Q 2600 3084 3056 2656 
Q 3513 2228 3513 1497 
Q 3513 744 3044 326 
Q 2575 -91 1722 -91 
Q 1428 -91 1123 -41 
Q 819 9 494 109 
L 494 744 
Q 775 591 1075 516 
Q 1375 441 1709 441 
Q 2250 441 2565 725 
Q 2881 1009 2881 1497 
Q 2881 1984 2565 2268 
Q 2250 2553 1709 2553 
Q 1456 2553 1204 2497 
Q 953 2441 691 2322 
L 691 4666 
z
" transform="scale(0.015625)"/>
       </defs>
       <use xlink:href="#DejaVuSans-35"/>
       <use xlink:href="#DejaVuSans-30" x="63.623047"/>
       <use xlink:href="#DejaVuSans-30" x="127.246094"/>
      </g>
     </g>
    </g>
    <g id="xtick_3">
     <g id="line2d_3">
      <g>
       <use xlink:href="#mfb72a4cacc" x="636.346913" y="512.64" style="stroke: #000000; stroke-width: 0.8"/>
      </g>
     </g>
     <g id="text_3">
      <!-- 1000 -->
      <g transform="translate(623.621913 527.238438) scale(0.1 -0.1)">
       <defs>
        <path id="DejaVuSans-31" d="M 794 531 
L 1825 531 
L 1825 4091 
L 703 3866 
L 703 4441 
L 1819 4666 
L 2450 4666 
L 2450 531 
L 3481 531 
L 3481 0 
L 794 0 
L 794 531 
z
" transform="scale(0.015625)"/>
       </defs>
       <use xlink:href="#DejaVuSans-31"/>
       <use xlink:href="#DejaVuSans-30" x="63.623047"/>
       <use xlink:href="#DejaVuSans-30" x="127.246094"/>
       <use xlink:href="#DejaVuSans-30" x="190.869141"/>
      </g>
     </g>
    </g>
    <g id="xtick_4">
     <g id="line2d_4">
      <g>
       <use xlink:href="#mfb72a4cacc" x="839.653087" y="512.64" style="stroke: #000000; stroke-width: 0.8"/>
      </g>
     </g>
     <g id="text_4">
      <!-- 1500 -->
      <g transform="translate(826.928087 527.238438) scale(0.1 -0.1)">
       <use xlink:href="#DejaVuSans-31"/>
       <use xlink:href="#DejaVuSans-35" x="63.623047"/>
       <use xlink:href="#DejaVuSans-30" x="127.246094"/>
       <use xlink:href="#DejaVuSans-30" x="190.869141"/>
      </g>
     </g>
    </g>
    <g id="xtick_5">
     <g id="line2d_5">
      <g>
       <use xlink:href="#mfb72a4cacc" x="1042.95926" y="512.64" style="stroke: #000000; stroke-width: 0.8"/>
      </g>
     </g>
     <g id="text_5">
      <!-- 2000 -->
      <g transform="translate(1030.23426 527.238438) scale(0.1 -0.1)">
       <defs>
        <path id="DejaVuSans-32" d="M 1228 531 
L 3431 531 
L 3431 0 
L 469 0 
L 469 531 
Q 828 903 1448 1529 
Q 2069 2156 2228 2338 
Q 2531 2678 2651 2914 
Q 2772 3150 2772 3378 
Q 2772 3750 2511 3984 
Q 2250 4219 1831 4219 
Q 1534 4219 1204 4116 
Q 875 4013 500 3803 
L 500 4441 
Q 881 4594 1212 4672 
Q 1544 4750 1819 4750 
Q 2544 4750 2975 4387 
Q 3406 4025 3406 3419 
Q 3406 3131 3298 2873 
Q 3191 2616 2906 2266 
Q 2828 2175 2409 1742 
Q 1991 1309 1228 531 
z
" transform="scale(0.015625)"/>
       </defs>
       <use xlink:href="#DejaVuSans-32"/>
       <use xlink:href="#DejaVuSans-30" x="63.623047"/>
       <use xlink:href="#DejaVuSans-30" x="127.246094"/>
       <use xlink:href="#DejaVuSans-30" x="190.869141"/>
      </g>
     </g>
    </g>
    <g id="xtick_6">
     <g id="line2d_6">
      <g>
       <use xlink:href="#mfb72a4cacc" x="1246.265433" y="512.64" style="stroke: #000000; stroke-width: 0.8"/>
      </g>
     </g>
     <g id="text_6">
      <!-- 2500 -->
      <g transform="translate(1233.540433 527.238438) scale(0.1 -0.1)">
       <use xlink:href="#DejaVuSans-32"/>
       <use xlink:href="#DejaVuSans-35" x="63.623047"/>
       <use xlink:href="#DejaVuSans-30" x="127.246094"/>
       <use xlink:href="#DejaVuSans-30" x="190.869141"/>
      </g>
     </g>
    </g>
   </g>
   <g id="matplotlib.axis_2">
    <g id="ytick_1">
     <g id="line2d_7">
      <defs>
       <path id="m41b43f5fb5" d="M 0 0 
L -3.5 0 
" style="stroke: #000000; stroke-width: 0.8"/>
      </defs>
      <g>
       <use xlink:href="#m41b43f5fb5" x="180" y="464.495836" style="stroke: #000000; stroke-width: 0.8"/>
      </g>
     </g>
     <g id="text_7">
      <!-- −4 -->
      <g transform="translate(158.257812 468.295055) scale(0.1 -0.1)">
       <defs>
        <path id="DejaVuSans-2212" d="M 678 2272 
L 4684 2272 
L 4684 1741 
L 678 1741 
L 678 2272 
z
" transform="scale(0.015625)"/>
        <path id="DejaVuSans-34" d="M 2419 4116 
L 825 1625 
L 2419 1625 
L 2419 4116 
z
M 2253 4666 
L 3047 4666 
L 3047 1625 
L 3713 1625 
L 3713 1100 
L 3047 1100 
L 3047 0 
L 2419 0 
L 2419 1100 
L 313 1100 
L 313 1709 
L 2253 4666 
z
" transform="scale(0.015625)"/>
       </defs>
       <use xlink:href="#DejaVuSans-2212"/>
       <use xlink:href="#DejaVuSans-34" x="83.789062"/>
      </g>
     </g>
    </g>
    <g id="ytick_2">
     <g id="line2d_8">
      <g>
       <use xlink:href="#m41b43f5fb5" x="180" y="387.339291" style="stroke: #000000; stroke-width: 0.8"/>
      </g>
     </g>
     <g id="text_8">
      <!-- −2 -->
      <g transform="translate(158.257812 391.13851) scale(0.1 -0.1)">
       <use xlink:href="#DejaVuSans-2212"/>
       <use xlink:href="#DejaVuSans-32" x="83.789062"/>
      </g>
     </g>
    </g>
    <g id="ytick_3">
     <g id="line2d_9">
      <g>
       <use xlink:href="#m41b43f5fb5" x="180" y="310.182746" style="stroke: #000000; stroke-width: 0.8"/>
      </g>
     </g>
     <g id="text_9">
      <!-- 0 -->
      <g transform="translate(166.6375 313.981965) scale(0.1 -0.1)">
       <use xlink:href="#DejaVuSans-30"/>
      </g>
     </g>
    </g>
    <g id="ytick_4">
     <g id="line2d_10">
      <g>
       <use xlink:href="#m41b43f5fb5" x="180" y="233.026201" style="stroke: #000000; stroke-width: 0.8"/>
      </g>
     </g>
     <g id="text_10">
      <!-- 2 -->
      <g transform="translate(166.6375 236.82542) scale(0.1 -0.1)">
       <use xlink:href="#DejaVuSans-32"/>
      </g>
     </g>
    </g>
    <g id="ytick_5">
     <g id="line2d_11">
      <g>
       <use xlink:href="#m41b43f5fb5" x="180" y="155.869656" style="stroke: #000000; stroke-width: 0.8"/>
      </g>
     </g>
     <g id="text_11">
      <!-- 4 -->
      <g transform="translate(166.6375 159.668875) scale(0.1 -0.1)">
       <use xlink:href="#DejaVuSans-34"/>
      </g>
     </g>
    </g>
    <g id="ytick_6">
     <g id="line2d_12">
      <g>
       <use xlink:href="#m41b43f5fb5" x="180" y="78.713111" style="stroke: #000000; stroke-width: 0.8"/>
      </g>
     </g>
     <g id="text_12">
      <!-- 6 -->
      <g transform="translate(166.6375 82.51233) scale(0.1 -0.1)">
       <defs>
        <path id="DejaVuSans-36" d="M 2113 2584 
Q 1688 2584 1439 2293 
Q 1191 2003 1191 1497 
Q 1191 994 1439 701 
Q 1688 409 2113 409 
Q 2538 409 2786 701 
Q 3034 994 3034 1497 
Q 3034 2003 2786 2293 
Q 2538 2584 2113 2584 
z
M 3366 4563 
L 3366 3988 
Q 3128 4100 2886 4159 
Q 2644 4219 2406 4219 
Q 1781 4219 1451 3797 
Q 1122 3375 1075 2522 
Q 1259 2794 1537 2939 
Q 1816 3084 2150 3084 
Q 2853 3084 3261 2657 
Q 3669 2231 3669 1497 
Q 3669 778 3244 343 
Q 2819 -91 2113 -91 
Q 1303 -91 875 529 
Q 447 1150 447 2328 
Q 447 3434 972 4092 
Q 1497 4750 2381 4750 
Q 2619 4750 2861 4703 
Q 3103 4656 3366 4563 
z
" transform="scale(0.015625)"/>
       </defs>
       <use xlink:href="#DejaVuSans-36"/>
      </g>
     </g>
    </g>
   </g>
   <g id="line2d_13">
    <path d="M 230.727273 289.069121 
L 231.719979 317.281345 
L 232.712685 286.970706 
L 233.70539 304.687909 
L 234.698096 291.581791 
L 235.690802 292.641499 
L 236.683508 297.513561 
L 237.676214 277.003292 
L 238.66892 349.142777 
L 239.661626 272.153995 
L 240.654332 299.680279 
L 241.647038 290.860845 
L 242.639744 294.227464 
L 243.63245 274.001928 
L 244.625156 308.650771 
L 245.617862 266.691686 
L 246.610568 283.479516 
L 247.603273 256.197969 
L 248.595979 246.506524 
L 249.588685 249.242866 
L 250.581391 196.549919 
L 251.574097 190.145863 
L 252.566803 204.728992 
L 253.559509 214.635539 
L 254.552215 212.969001 
L 255.544921 278.60734 
L 256.537627 178.533298 
L 257.530333 153.472125 
L 258.523039 151.599716 
L 259.515745 173.677735 
L 260.50845 175.105436 
L 261.501156 167.108108 
L 262.493862 154.47922 
L 263.486568 155.274832 
L 264.479274 185.363716 
L 265.47198 175.975745 
L 266.464686 159.428476 
L 267.457392 173.361385 
L 268.450098 171.258274 
L 269.442804 158.315706 
L 270.43551 164.600489 
L 271.428216 153.465502 
L 272.420922 154.142785 
L 273.413627 165.778309 
L 274.406333 171.58063 
L 275.399039 130.037792 
L 276.391745 134.691473 
L 277.384451 141.739001 
L 278.377157 125.971368 
L 279.369863 119.288784 
L 280.362569 113.584902 
L 281.355275 104.93759 
L 282.347981 108.221765 
L 283.340687 115.16899 
L 284.333393 96.525275 
L 285.326099 89.28 
L 286.318804 113.568203 
L 287.31151 133.087506 
L 288.304216 114.500635 
L 290.289628 126.143113 
L 291.282334 151.200174 
L 293.267746 221.610719 
L 294.260452 260.153698 
L 295.253158 222.525338 
L 296.245864 194.459444 
L 297.23857 195.515287 
L 298.231276 200.135623 
L 299.223981 220.051406 
L 300.216687 237.003365 
L 301.209393 218.892581 
L 302.202099 207.744043 
L 303.194805 204.169648 
L 304.187511 210.498826 
L 305.180217 215.018929 
L 306.172923 223.524099 
L 307.165629 236.132033 
L 308.158335 243.974143 
L 309.151041 268.596852 
L 310.143747 282.655324 
L 311.136453 258.394568 
L 312.129159 258.564355 
L 313.121864 262.593352 
L 314.11457 265.091705 
L 315.107276 285.435407 
L 316.099982 288.579765 
L 317.092688 338.288009 
L 318.085394 323.486773 
L 319.0781 356.839504 
L 320.070806 315.456687 
L 321.063512 325.986663 
L 322.056218 290.780958 
L 323.048924 277.096056 
L 324.04163 278.654376 
L 325.034336 268.925136 
L 326.027041 281.352461 
L 327.019747 279.104555 
L 328.012453 290.565924 
L 329.005159 294.465181 
L 329.997865 290.547685 
L 330.990571 289.165057 
L 331.983277 273.910766 
L 332.975983 278.219211 
L 333.968689 268.728908 
L 334.961395 275.988129 
L 335.954101 278.250523 
L 336.946807 289.948808 
L 337.939513 305.228542 
L 338.932218 297.689652 
L 339.924924 291.038222 
L 340.91763 283.049603 
L 341.910336 299.705033 
L 342.903042 290.988921 
L 343.895748 293.86077 
L 344.888454 289.613605 
L 345.88116 276.197753 
L 346.873866 282.943965 
L 347.866572 273.992225 
L 348.859278 279.534213 
L 349.851984 268.654971 
L 350.84469 267.876322 
L 351.837395 263.864458 
L 352.830101 261.773613 
L 354.815513 264.371212 
L 355.808219 278.757667 
L 356.800925 276.447455 
L 357.793631 268.131878 
L 358.786337 247.665996 
L 360.771749 232.108046 
L 361.764455 231.366074 
L 362.757161 235.811334 
L 363.749867 243.505966 
L 364.742572 261.048257 
L 365.735278 267.656981 
L 366.727984 245.969571 
L 367.72069 232.546969 
L 368.713396 226.379759 
L 369.706102 222.442916 
L 370.698808 224.335818 
L 371.691514 228.829036 
L 372.68422 232.542719 
L 373.676926 237.223541 
L 374.669632 238.126996 
L 375.662338 235.232296 
L 376.655044 236.736394 
L 377.64775 237.528438 
L 378.640455 237.803291 
L 379.633161 237.955658 
L 380.625867 232.294825 
L 381.618573 225.138868 
L 382.611279 221.945246 
L 383.603985 220.302092 
L 384.596691 223.262147 
L 385.589397 234.60963 
L 386.582103 253.188146 
L 387.574809 318.557359 
L 388.567515 269.787995 
L 389.560221 244.951743 
L 390.552927 232.946043 
L 391.545632 232.019831 
L 392.538338 232.611326 
L 393.531044 236.316998 
L 394.52375 236.753017 
L 395.516456 236.539391 
L 396.509162 236.956421 
L 397.501868 237.038721 
L 398.494574 240.44006 
L 399.48728 240.028741 
L 400.479986 242.653051 
L 401.472692 240.281807 
L 402.465398 241.592544 
L 403.458104 238.695775 
L 404.450809 237.627512 
L 405.443515 234.165274 
L 406.436221 232.64238 
L 407.428927 233.787388 
L 408.421633 236.410931 
L 409.414339 245.595021 
L 410.407045 253.47562 
L 411.399751 265.326839 
L 412.392457 257.094667 
L 413.385163 251.917061 
L 414.377869 245.53209 
L 415.370575 246.274338 
L 416.363281 248.776858 
L 417.355986 253.545707 
L 418.348692 261.301218 
L 419.341398 264.781958 
L 420.334104 271.89011 
L 421.32681 271.356803 
L 422.319516 281.200169 
L 423.312222 281.933248 
L 424.304928 292.670202 
L 425.297634 288.82742 
L 426.29034 287.063882 
L 427.283046 279.768601 
L 428.275752 278.354846 
L 429.268458 285.269736 
L 430.261163 288.68958 
L 431.253869 310.695073 
L 432.246575 329.415156 
L 433.239281 398.525274 
L 434.231987 335.967602 
L 435.224693 336.687823 
L 436.217399 319.837784 
L 437.210105 325.323119 
L 438.202811 350.945138 
L 439.195517 346.633417 
L 440.188223 374.284897 
L 441.180929 360.165902 
L 442.173635 376.775192 
L 443.166341 338.249996 
L 444.159046 332.17612 
L 445.151752 347.914891 
L 446.144458 331.729407 
L 447.137164 330.393135 
L 448.12987 353.762034 
L 449.122576 336.662522 
L 450.115282 334.91158 
L 451.107988 357.308263 
L 452.100694 343.193424 
L 453.0934 330.679282 
L 454.086106 335.218219 
L 455.078812 328.782516 
L 456.071518 319.263686 
L 457.064223 327.359964 
L 458.056929 316.848443 
L 459.049635 316.55769 
L 460.042341 319.654646 
L 461.035047 315.077542 
L 462.027753 332.604982 
L 463.020459 328.523331 
L 464.013165 297.074716 
L 465.005871 282.503764 
L 465.998577 277.011544 
L 466.991283 269.666434 
L 467.983989 273.826783 
L 468.976695 283.649041 
L 469.9694 297.532226 
L 470.962106 316.043608 
L 471.954812 304.041119 
L 472.947518 285.334625 
L 473.940224 279.878205 
L 474.93293 283.052451 
L 475.925636 285.713346 
L 476.918342 298.884783 
L 477.911048 299.982101 
L 478.903754 306.023364 
L 479.89646 309.044775 
L 480.889166 325.909297 
L 481.881872 359.87362 
L 483.867283 302.801033 
L 484.859989 293.85164 
L 485.852695 295.238298 
L 486.845401 292.829385 
L 487.838107 307.274475 
L 488.830813 311.368065 
L 489.823519 328.726055 
L 490.816225 331.424905 
L 491.808931 337.969252 
L 492.801637 365.571023 
L 493.794343 375.512267 
L 494.787049 332.418098 
L 495.779754 313.327938 
L 496.77246 305.540537 
L 497.765166 296.179943 
L 498.757872 303.492221 
L 499.750578 309.893265 
L 500.743284 325.750767 
L 501.73599 370.983578 
L 502.728696 340.485652 
L 503.721402 314.241363 
L 504.714108 302.266856 
L 505.706814 301.156032 
L 506.69952 301.048371 
L 507.692226 321.827119 
L 508.684932 325.328843 
L 509.677637 322.036481 
L 510.670343 296.228759 
L 511.663049 290.754361 
L 512.655755 287.163197 
L 513.648461 291.322616 
L 514.641167 302.58733 
L 515.633873 303.305904 
L 516.626579 302.031186 
L 517.619285 294.02888 
L 518.611991 294.857798 
L 519.604697 290.577515 
L 520.597403 297.917816 
L 521.590109 294.193158 
L 522.582814 293.029397 
L 523.57552 288.404988 
L 524.568226 288.399074 
L 525.560932 289.338175 
L 526.553638 291.869116 
L 527.546344 298.419658 
L 528.53905 298.008262 
L 529.531756 302.340794 
L 530.524462 298.572479 
L 531.517168 309.139093 
L 532.509874 305.124932 
L 533.50258 305.089239 
L 534.495286 294.944922 
L 535.487991 292.22215 
L 536.480697 293.568781 
L 537.473403 295.230283 
L 538.466109 311.126398 
L 539.458815 321.873088 
L 540.451521 367.417791 
L 541.444227 358.932666 
L 542.436933 336.525155 
L 543.429639 311.263584 
L 544.422345 307.267453 
L 545.415051 305.016732 
L 546.407757 303.595005 
L 547.400463 317.696612 
L 548.393168 317.095455 
L 549.385874 329.034027 
L 550.37858 338.948033 
L 551.371286 353.750998 
L 552.363992 359.842959 
L 553.356698 352.182924 
L 554.349404 342.94104 
L 555.34211 327.684736 
L 556.334816 325.224978 
L 557.327522 310.953739 
L 558.320228 314.315371 
L 559.312934 315.53101 
L 560.30564 331.546323 
L 561.298345 377.693923 
L 562.291051 390.731943 
L 563.283757 329.266258 
L 564.276463 316.036885 
L 565.269169 316.553351 
L 566.261875 310.898836 
L 567.254581 321.168306 
L 568.247287 329.374428 
L 569.239993 336.139517 
L 570.232699 352.431433 
L 571.225405 365.572482 
L 572.218111 347.760559 
L 573.210817 346.822334 
L 574.203523 343.974812 
L 575.196228 333.070541 
L 576.188934 334.255418 
L 577.18164 326.719594 
L 578.174346 318.271707 
L 579.167052 321.25221 
L 580.159758 317.175775 
L 581.152464 323.207609 
L 582.14517 339.31485 
L 583.137876 342.037859 
L 584.130582 350.800684 
L 585.123288 350.124563 
L 586.115994 331.634158 
L 587.1087 321.850078 
L 588.101405 330.57498 
L 589.094111 324.350964 
L 590.086817 340.990604 
L 591.079523 341.539747 
L 592.072229 338.309286 
L 593.064935 323.513474 
L 594.057641 315.739557 
L 595.050347 318.562885 
L 596.043053 319.670439 
L 597.035759 351.19912 
L 598.028465 397.619621 
L 599.021171 336.204152 
L 600.013877 308.754599 
L 601.006582 306.623112 
L 601.999288 302.126808 
L 602.991994 306.062021 
L 603.9847 317.639757 
L 604.977406 327.36151 
L 605.970112 362.782738 
L 606.962818 350.474951 
L 607.955524 368.588494 
L 608.94823 342.444557 
L 609.940936 341.399872 
L 610.933642 321.642044 
L 611.926348 322.013182 
L 612.919054 317.151199 
L 613.911759 324.692488 
L 614.904465 347.983597 
L 615.897171 362.663901 
L 616.889877 379.966716 
L 617.882583 357.361624 
L 618.875289 387.661337 
L 619.867995 392.222755 
L 620.860701 359.651561 
L 621.853407 332.920146 
L 622.846113 329.155453 
L 623.838819 320.30059 
L 624.831525 328.405219 
L 625.824231 340.765139 
L 626.816936 338.382717 
L 627.809642 339.199228 
L 628.802348 337.995276 
L 629.795054 324.947637 
L 631.780466 338.902886 
L 632.773172 340.609328 
L 633.765878 374.308798 
L 634.758584 370.607392 
L 635.75129 366.065454 
L 636.743996 380.794635 
L 637.736702 355.687096 
L 638.729408 352.821172 
L 639.722114 366.007047 
L 640.714819 359.797211 
L 641.707525 385.628793 
L 642.700231 421.152122 
L 643.692937 375.997418 
L 644.685643 378.450451 
L 645.678349 379.987355 
L 646.671055 356.78522 
L 647.663761 366.329495 
L 648.656467 345.753857 
L 649.649173 357.400991 
L 650.641879 348.72781 
L 651.634585 360.242336 
L 652.627291 367.747646 
L 653.619996 384.017933 
L 655.605408 359.158027 
L 656.598114 343.114542 
L 657.59082 332.810164 
L 658.583526 336.821044 
L 659.576232 328.314294 
L 660.568938 338.938578 
L 661.561644 338.925672 
L 662.55435 355.59305 
L 663.547056 377.540144 
L 664.539762 381.345254 
L 665.532468 349.131349 
L 666.525173 341.000745 
L 667.517879 336.764183 
L 668.510585 328.351867 
L 669.503291 335.108957 
L 670.495997 329.795869 
L 671.488703 344.708732 
L 672.481409 350.135997 
L 673.474115 366.522835 
L 674.466821 357.712876 
L 675.459527 354.385034 
L 677.444939 338.075342 
L 678.437645 337.563531 
L 679.43035 328.156759 
L 680.423056 338.753124 
L 681.415762 339.728513 
L 682.408468 367.452824 
L 683.401174 357.409011 
L 684.39388 350.973898 
L 685.386586 334.053154 
L 686.379292 332.620765 
L 687.371998 341.15149 
L 688.364704 343.599883 
L 689.35741 371.437914 
L 690.350116 354.458738 
L 691.342822 360.089411 
L 692.335527 340.855998 
L 693.328233 350.431985 
L 694.320939 343.210309 
L 695.313645 350.269381 
L 696.306351 344.580184 
L 697.299057 342.401677 
L 698.291763 355.042049 
L 699.284469 360.956048 
L 700.277175 412.479896 
L 701.269881 362.405891 
L 702.262587 343.454392 
L 703.255293 327.896247 
L 704.247999 335.189421 
L 705.240705 341.383115 
L 706.23341 357.16344 
L 707.226116 440.130024 
L 709.211528 363.827301 
L 710.204234 358.569907 
L 711.19694 390.814845 
L 712.189646 387.264778 
L 713.182352 404.741193 
L 714.175058 359.748366 
L 715.167764 364.659581 
L 716.16047 350.613176 
L 717.153176 355.6074 
L 718.145882 384.601991 
L 719.138587 382.602748 
L 720.131293 379.608353 
L 721.123999 391.85903 
L 722.116705 384.903984 
L 723.109411 378.866431 
L 724.102117 423.596828 
L 725.094823 375.591801 
L 726.087529 393.066751 
L 727.080235 374.092593 
L 728.072941 369.177021 
L 729.065647 389.448231 
L 730.058353 378.831708 
L 731.051059 363.352475 
L 732.043764 384.636433 
L 733.03647 390.53327 
L 734.029176 392.300529 
L 735.021882 410.144989 
L 736.014588 457.313807 
L 737.007294 389.704922 
L 738 393.814617 
L 738.992706 425.108317 
L 740.978118 395.880125 
L 741.970824 374.265762 
L 742.96353 387.705154 
L 743.956236 367.161237 
L 744.948941 401.919282 
L 745.941647 384.755834 
L 746.934353 403.016583 
L 747.927059 374.786097 
L 748.919765 379.895049 
L 749.912471 403.109032 
L 750.905177 400.512393 
L 751.897883 389.082165 
L 752.890589 370.029405 
L 753.883295 375.601742 
L 754.876001 356.10654 
L 755.868707 369.487272 
L 756.861413 356.956328 
L 757.854118 366.215125 
L 758.846824 387.68212 
L 759.83953 395.36026 
L 760.832236 396.154557 
L 761.824942 386.851163 
L 762.817648 366.566942 
L 763.810354 354.262339 
L 764.80306 361.236352 
L 765.795766 347.023175 
L 766.788472 357.501181 
L 767.781178 362.683773 
L 768.773884 370.393177 
L 769.76659 429.63334 
L 770.759295 419.008846 
L 771.752001 365.026233 
L 772.744707 356.284588 
L 773.737413 361.80423 
L 774.730119 351.676536 
L 775.722825 371.766292 
L 776.715531 374.061696 
L 777.708237 400.046993 
L 778.700943 387.707067 
L 779.693649 383.947635 
L 780.686355 372.414718 
L 781.679061 365.893136 
L 782.671767 393.346544 
L 783.664473 376.258445 
L 784.657178 403.991154 
L 785.649884 369.783507 
L 786.64259 391.71252 
L 787.635296 378.22047 
L 788.628002 390.431154 
L 789.620708 369.177368 
L 790.613414 361.448443 
L 791.60612 372.175638 
L 792.598826 366.30988 
L 793.591532 426.438799 
L 794.584238 394.339786 
L 795.576944 393.565255 
L 796.56965 359.336553 
L 797.562355 367.842104 
L 798.555061 370.782003 
L 799.547767 379.124844 
L 800.540473 411.350198 
L 801.533179 384.169683 
L 802.525885 371.877297 
L 803.518591 353.852196 
L 804.511297 367.912864 
L 805.504003 364.240125 
L 806.496709 392.759991 
L 807.489415 398.324235 
L 808.482121 397.725554 
L 809.474827 369.788917 
L 810.467532 373.6703 
L 811.460238 388.643679 
L 812.452944 374.060028 
L 813.44565 367.760905 
L 814.438356 349.444784 
L 815.431062 362.072659 
L 816.423768 367.17391 
L 817.416474 383.896449 
L 818.40918 381.384569 
L 819.401886 370.756354 
L 820.394592 347.379189 
L 821.387298 348.120308 
L 822.380004 357.907005 
L 823.372709 359.336536 
L 825.358121 448.188758 
L 826.350827 381.646579 
L 827.343533 360.326129 
L 828.336239 373.522027 
L 829.328945 364.640933 
L 830.321651 384.975623 
L 831.314357 398.99281 
L 832.307063 410.469542 
L 833.299769 406.480585 
L 834.292475 414.592936 
L 835.285181 375.380869 
L 836.277886 365.59061 
L 837.270592 373.997005 
L 838.263298 364.951053 
L 839.256004 392.885781 
L 840.24871 462.403976 
L 841.241416 388.561705 
L 842.234122 365.688541 
L 843.226828 378.157323 
L 844.219534 366.467945 
L 845.21224 377.422156 
L 846.204946 409.436905 
L 847.197652 406.940541 
L 848.190358 405.394884 
L 849.183064 406.003445 
L 850.175769 388.322462 
L 851.168475 378.352367 
L 852.161181 411.59806 
L 853.153887 386.011352 
L 854.146593 437.116578 
L 855.139299 389.433896 
L 856.132005 426.623277 
L 857.124711 404.730745 
L 858.117417 446.677357 
L 859.110123 397.097245 
L 860.102829 414.366348 
L 861.095535 396.993798 
L 862.088241 394.679981 
L 863.080946 400.983465 
L 864.073652 382.638388 
L 865.066358 428.502805 
L 866.059064 434.180572 
L 867.05177 401.304413 
L 868.044476 388.647211 
L 869.037182 409.731151 
L 870.029888 381.626783 
L 871.022594 402.541452 
L 872.0153 417.570017 
L 873.008006 400.229423 
L 874.000712 414.707481 
L 874.993418 424.4219 
L 875.986123 380.766796 
L 877.971535 401.368333 
L 878.964241 389.744905 
L 879.956947 411.556544 
L 880.949653 454.662609 
L 881.942359 390.010834 
L 882.935065 390.280625 
L 883.927771 409.709018 
L 884.920477 389.278136 
L 885.913183 480.209412 
L 886.905889 410.117571 
L 887.898595 435.010976 
L 888.8913 382.710193 
L 889.884006 407.103432 
L 890.876712 392.231508 
L 891.869418 416.93386 
L 892.862124 402.310316 
L 893.85483 410.497594 
L 894.847536 389.262229 
L 895.840242 384.505332 
L 896.832948 386.515971 
L 897.825654 369.059187 
L 898.81836 390.19222 
L 899.811066 381.142683 
L 900.803772 412.631174 
L 901.796477 397.968426 
L 902.789183 387.876134 
L 903.781889 358.924176 
L 905.767301 371.278797 
L 906.760007 376.238321 
L 907.752713 478.373498 
L 908.745419 413.974608 
L 909.738125 396.969238 
L 910.730831 376.363887 
L 911.723537 399.201938 
L 912.716243 379.870832 
L 913.708949 419.046423 
L 914.701655 384.155118 
L 915.69436 398.45013 
L 916.687066 385.334476 
L 917.679772 394.506516 
L 918.672478 421.2739 
L 919.665184 408.398674 
L 920.65789 386.32375 
L 921.650596 371.406826 
L 922.643302 399.88424 
L 923.636008 400.90504 
L 924.628714 399.325944 
L 925.62142 383.329401 
L 926.614126 388.131281 
L 927.606832 367.480874 
L 928.599537 377.380192 
L 929.592243 404.199374 
L 930.584949 392.853753 
L 931.577655 398.143618 
L 932.570361 424.090996 
L 933.563067 386.33747 
L 934.555773 386.185627 
L 935.548479 421.20008 
L 936.541185 396.9737 
L 937.533891 426.032123 
L 938.526597 443.113492 
L 940.512009 405.261112 
L 941.504714 447.718947 
L 942.49742 393.229271 
L 943.490126 421.77527 
L 944.482832 430.750272 
L 945.475538 429.545766 
L 946.468244 393.01008 
L 947.46095 405.147999 
L 948.453656 388.408752 
L 949.446362 384.740541 
L 950.439068 449.674655 
L 951.431774 423.329135 
L 952.42448 412.940288 
L 953.417186 405.021327 
L 954.409891 412.974638 
L 955.402597 381.721035 
L 956.395303 404.559116 
L 957.388009 385.198981 
L 958.380715 393.891423 
L 959.373421 445.380336 
L 960.366127 423.354224 
L 961.358833 415.698238 
L 962.351539 411.497566 
L 963.344245 427.056688 
L 964.336951 399.558637 
L 965.329657 492.48 
L 966.322363 401.617336 
L 967.315068 453.824426 
L 968.307774 396.457144 
L 969.30048 402.956503 
L 970.293186 401.991036 
L 971.285892 384.163133 
L 972.278598 417.984231 
L 973.271304 409.993254 
L 974.26401 404.422247 
L 975.256716 409.966619 
L 976.249422 436.55475 
L 977.242128 387.78108 
L 978.234834 399.432493 
L 979.22754 398.336817 
L 980.220246 384.921791 
L 981.212951 408.108645 
L 982.205657 381.91272 
L 983.198363 409.710606 
L 984.191069 406.835829 
L 985.183775 431.778232 
L 986.176481 404.544679 
L 987.169187 413.114783 
L 988.161893 398.776002 
L 989.154599 391.949032 
L 990.147305 392.686276 
L 991.140011 373.685687 
L 992.132717 389.439087 
L 993.125423 370.055045 
L 994.118128 387.908354 
L 995.110834 380.434547 
L 996.10354 393.855698 
L 997.096246 410.988384 
L 998.088952 414.087986 
L 999.081658 382.772848 
L 1000.074364 371.780482 
L 1001.06707 374.820701 
L 1002.059776 362.550414 
L 1003.052482 381.591511 
L 1004.045188 369.889455 
L 1005.037894 390.646629 
L 1006.0306 386.398828 
L 1007.023305 401.23823 
L 1008.016011 379.509925 
L 1009.008717 375.960692 
L 1010.001423 380.276473 
L 1010.994129 376.339835 
L 1011.986835 406.087656 
L 1012.979541 376.735753 
L 1013.972247 379.46202 
L 1014.964953 358.422671 
L 1015.957659 369.055303 
L 1016.950365 371.336566 
L 1017.943071 384.626061 
L 1018.935777 425.576717 
L 1019.928482 415.295302 
L 1020.921188 381.575637 
L 1021.913894 370.182827 
L 1022.9066 376.869853 
L 1023.899306 365.24054 
L 1024.892012 389.507748 
L 1025.884718 379.345035 
L 1026.877424 399.991952 
L 1027.87013 388.901207 
L 1028.862836 397.253315 
L 1029.855542 411.697685 
L 1030.848248 407.23413 
L 1032.833659 375.959986 
L 1033.826365 393.981012 
L 1034.819071 380.191982 
L 1035.811777 420.019724 
L 1036.804483 407.302366 
L 1037.797189 434.894984 
L 1038.789895 386.636572 
L 1039.782601 389.502509 
L 1040.775307 397.83369 
L 1041.768013 385.291556 
L 1042.760719 434.960776 
L 1043.753425 414.204887 
L 1044.746131 422.14371 
L 1045.738837 407.118111 
L 1046.731542 424.46789 
L 1047.724248 383.048556 
L 1048.716954 394.552007 
L 1049.70966 394.922815 
L 1050.702366 384.446611 
L 1051.695072 422.255065 
L 1052.687778 397.837136 
L 1053.680484 404.747412 
L 1054.67319 481.498254 
L 1055.665896 418.283138 
L 1056.658602 400.416762 
L 1057.651308 440.327039 
L 1058.644014 405.054505 
L 1059.636719 403.445884 
L 1060.629425 430.23719 
L 1061.622131 392.01187 
L 1062.614837 416.445894 
L 1063.607543 407.304434 
L 1064.600249 401.032455 
L 1065.592955 475.598544 
L 1066.585661 427.691913 
L 1067.578367 443.869807 
L 1068.571073 418.781811 
L 1069.563779 436.937786 
L 1070.556485 436.86281 
L 1071.549191 449.869786 
L 1072.541896 397.450034 
L 1073.534602 411.03684 
L 1074.527308 395.429227 
L 1075.520014 383.97826 
L 1076.51272 414.559901 
L 1077.505426 391.612389 
L 1078.498132 414.393967 
L 1080.483544 466.14329 
L 1081.47625 406.067115 
L 1082.468956 419.140035 
L 1083.461662 421.062208 
L 1084.454368 418.340731 
L 1085.447073 405.300676 
L 1086.439779 383.056302 
L 1087.432485 398.16953 
L 1088.425191 377.380073 
L 1090.410603 412.174528 
L 1091.403309 414.385624 
L 1092.396015 424.039197 
L 1093.388721 438.599907 
L 1094.381427 399.449767 
L 1095.374133 390.704634 
L 1096.366839 400.250954 
L 1097.359545 378.804024 
L 1098.35225 404.368895 
L 1099.344956 387.782988 
L 1101.330368 418.722937 
L 1102.323074 417.890023 
L 1103.31578 420.57171 
L 1104.308486 414.747587 
L 1105.301192 407.515889 
L 1106.293898 388.328022 
L 1107.286604 431.502253 
L 1108.27931 398.413734 
L 1109.272016 451.228038 
L 1110.264722 395.409477 
L 1111.257428 404.5107 
L 1113.242839 386.097041 
L 1114.235545 427.061054 
L 1115.228251 401.339023 
L 1116.220957 416.511944 
L 1117.213663 425.315127 
L 1118.206369 411.063526 
L 1119.199075 376.712999 
L 1120.191781 384.077564 
L 1121.184487 377.902895 
L 1122.177193 374.61888 
L 1123.169899 411.088396 
L 1124.162605 406.620763 
L 1125.15531 424.535248 
L 1126.148016 404.988406 
L 1127.140722 419.986266 
L 1128.133428 382.246948 
L 1129.126134 394.125459 
L 1130.11884 394.259455 
L 1131.111546 392.734184 
L 1132.104252 441.737949 
L 1133.096958 407.032102 
L 1134.089664 420.49119 
L 1135.08237 385.584723 
L 1136.075076 406.024143 
L 1137.067782 379.523236 
L 1138.060487 394.240644 
L 1139.053193 389.398015 
L 1140.045899 393.99812 
L 1141.038605 430.229988 
L 1142.031311 419.049151 
L 1144.016723 381.468416 
L 1145.009429 389.855062 
L 1146.002135 372.081733 
L 1146.994841 394.499572 
L 1147.987547 386.424756 
L 1148.980253 404.826454 
L 1149.972959 405.954843 
L 1150.965664 413.565745 
L 1151.95837 400.110528 
L 1152.951076 392.615118 
L 1153.943782 402.277713 
L 1154.936488 386.510243 
L 1155.929194 421.401225 
L 1156.9219 387.776245 
L 1157.914606 411.046105 
L 1158.907312 381.949139 
L 1159.900018 395.042603 
L 1160.892724 401.668789 
L 1161.88543 403.561938 
L 1162.878136 443.319247 
L 1163.870841 441.237993 
L 1164.863547 398.081735 
L 1165.856253 385.630547 
L 1166.848959 399.216806 
L 1167.841665 379.703741 
L 1168.834371 404.724088 
L 1169.827077 414.294659 
L 1170.819783 418.521303 
L 1171.812489 432.287988 
L 1172.805195 442.878726 
L 1173.797901 423.655781 
L 1174.790607 440.550452 
L 1175.783313 413.981622 
L 1176.776019 400.046236 
L 1177.768724 440.285493 
L 1178.76143 398.974274 
L 1179.754136 408.355796 
L 1180.746842 485.198359 
L 1181.739548 413.250451 
L 1182.732254 417.719467 
L 1183.72496 455.000607 
L 1184.717666 442.678696 
L 1185.710372 413.233904 
L 1186.703078 423.224694 
L 1187.695784 460.58 
L 1188.68849 416.874789 
L 1189.681196 415.838864 
L 1190.673901 433.651138 
L 1191.666607 417.314458 
L 1192.659313 391.715149 
L 1193.652019 421.515052 
L 1194.644725 413.770981 
L 1195.637431 415.354613 
L 1196.630137 432.084415 
L 1197.622843 452.299474 
L 1198.615549 421.199911 
L 1199.608255 420.514329 
L 1200.600961 440.466843 
L 1201.593667 424.203682 
L 1202.586373 434.265916 
L 1203.579078 402.089976 
L 1204.571784 460.871209 
L 1205.56449 408.021333 
L 1206.557196 421.377735 
L 1207.549902 450.823756 
L 1208.542608 445.816631 
L 1209.535314 406.417449 
L 1210.52802 438.343621 
L 1211.520726 417.933576 
L 1212.513432 425.929531 
L 1213.506138 425.312889 
L 1214.498844 413.149455 
L 1215.49155 479.976691 
L 1216.484255 424.527817 
L 1217.476961 413.850758 
L 1218.469667 415.895292 
L 1219.462373 407.285754 
L 1220.455079 384.73944 
L 1221.447785 412.570523 
L 1222.440491 401.54487 
L 1223.433197 410.660524 
L 1224.425903 425.026034 
L 1225.418609 429.653473 
L 1226.411315 381.35218 
L 1227.404021 387.235113 
L 1228.396727 389.42762 
L 1229.389432 385.405748 
L 1230.382138 465.902726 
L 1231.374844 434.521004 
L 1232.36755 413.145833 
L 1233.360256 388.447164 
L 1234.352962 402.309329 
L 1235.345668 377.788594 
L 1236.338374 399.255548 
L 1237.33108 394.3774 
L 1238.323786 413.630953 
L 1239.316492 408.621262 
L 1240.309198 410.993727 
L 1241.301904 390.950655 
L 1242.29461 383.585197 
L 1243.287315 401.640834 
L 1244.280021 385.342864 
L 1245.272727 431.783565 
L 1245.272727 431.783565 
" clip-path="url(#pf1f1782b09)" style="fill: none; stroke: #1f77b4; stroke-width: 1.5; stroke-linecap: square"/>
   </g>
   <g id="patch_3">
    <path d="M 180 512.64 
L 180 69.12 
" style="fill: none; stroke: #000000; stroke-width: 0.8; stroke-linejoin: miter; stroke-linecap: square"/>
   </g>
   <g id="patch_4">
    <path d="M 1296 512.64 
L 1296 69.12 
" style="fill: none; stroke: #000000; stroke-width: 0.8; stroke-linejoin: miter; stroke-linecap: square"/>
   </g>
   <g id="patch_5">
    <path d="M 180 512.64 
L 1296 512.64 
" style="fill: none; stroke: #000000; stroke-width: 0.8; stroke-linejoin: miter; stroke-linecap: square"/>
   </g>
   <g id="patch_6">
    <path d="M 180 69.12 
L 1296 69.12 
" style="fill: none; stroke: #000000; stroke-width: 0.8; stroke-linejoin: miter; stroke-linecap: square"/>
   </g>
   <g id="text_13">
    <!-- source20-receiver19 -->
    <g transform="translate(532.175 60.80125) scale(0.4 -0.4)">
     <defs>
      <path id="DejaVuSans-73" d="M 2834 3397 
L 2834 2853 
Q 2591 2978 2328 3040 
Q 2066 3103 1784 3103 
Q 1356 3103 1142 2972 
Q 928 2841 928 2578 
Q 928 2378 1081 2264 
Q 1234 2150 1697 2047 
L 1894 2003 
Q 2506 1872 2764 1633 
Q 3022 1394 3022 966 
Q 3022 478 2636 193 
Q 2250 -91 1575 -91 
Q 1294 -91 989 -36 
Q 684 19 347 128 
L 347 722 
Q 666 556 975 473 
Q 1284 391 1588 391 
Q 1994 391 2212 530 
Q 2431 669 2431 922 
Q 2431 1156 2273 1281 
Q 2116 1406 1581 1522 
L 1381 1569 
Q 847 1681 609 1914 
Q 372 2147 372 2553 
Q 372 3047 722 3315 
Q 1072 3584 1716 3584 
Q 2034 3584 2315 3537 
Q 2597 3491 2834 3397 
z
" transform="scale(0.015625)"/>
      <path id="DejaVuSans-6f" d="M 1959 3097 
Q 1497 3097 1228 2736 
Q 959 2375 959 1747 
Q 959 1119 1226 758 
Q 1494 397 1959 397 
Q 2419 397 2687 759 
Q 2956 1122 2956 1747 
Q 2956 2369 2687 2733 
Q 2419 3097 1959 3097 
z
M 1959 3584 
Q 2709 3584 3137 3096 
Q 3566 2609 3566 1747 
Q 3566 888 3137 398 
Q 2709 -91 1959 -91 
Q 1206 -91 779 398 
Q 353 888 353 1747 
Q 353 2609 779 3096 
Q 1206 3584 1959 3584 
z
" transform="scale(0.015625)"/>
      <path id="DejaVuSans-75" d="M 544 1381 
L 544 3500 
L 1119 3500 
L 1119 1403 
Q 1119 906 1312 657 
Q 1506 409 1894 409 
Q 2359 409 2629 706 
Q 2900 1003 2900 1516 
L 2900 3500 
L 3475 3500 
L 3475 0 
L 2900 0 
L 2900 538 
Q 2691 219 2414 64 
Q 2138 -91 1772 -91 
Q 1169 -91 856 284 
Q 544 659 544 1381 
z
M 1991 3584 
L 1991 3584 
z
" transform="scale(0.015625)"/>
      <path id="DejaVuSans-72" d="M 2631 2963 
Q 2534 3019 2420 3045 
Q 2306 3072 2169 3072 
Q 1681 3072 1420 2755 
Q 1159 2438 1159 1844 
L 1159 0 
L 581 0 
L 581 3500 
L 1159 3500 
L 1159 2956 
Q 1341 3275 1631 3429 
Q 1922 3584 2338 3584 
Q 2397 3584 2469 3576 
Q 2541 3569 2628 3553 
L 2631 2963 
z
" transform="scale(0.015625)"/>
      <path id="DejaVuSans-63" d="M 3122 3366 
L 3122 2828 
Q 2878 2963 2633 3030 
Q 2388 3097 2138 3097 
Q 1578 3097 1268 2742 
Q 959 2388 959 1747 
Q 959 1106 1268 751 
Q 1578 397 2138 397 
Q 2388 397 2633 464 
Q 2878 531 3122 666 
L 3122 134 
Q 2881 22 2623 -34 
Q 2366 -91 2075 -91 
Q 1284 -91 818 406 
Q 353 903 353 1747 
Q 353 2603 823 3093 
Q 1294 3584 2113 3584 
Q 2378 3584 2631 3529 
Q 2884 3475 3122 3366 
z
" transform="scale(0.015625)"/>
      <path id="DejaVuSans-65" d="M 3597 1894 
L 3597 1613 
L 953 1613 
Q 991 1019 1311 708 
Q 1631 397 2203 397 
Q 2534 397 2845 478 
Q 3156 559 3463 722 
L 3463 178 
Q 3153 47 2828 -22 
Q 2503 -91 2169 -91 
Q 1331 -91 842 396 
Q 353 884 353 1716 
Q 353 2575 817 3079 
Q 1281 3584 2069 3584 
Q 2775 3584 3186 3129 
Q 3597 2675 3597 1894 
z
M 3022 2063 
Q 3016 2534 2758 2815 
Q 2500 3097 2075 3097 
Q 1594 3097 1305 2825 
Q 1016 2553 972 2059 
L 3022 2063 
z
" transform="scale(0.015625)"/>
      <path id="DejaVuSans-2d" d="M 313 2009 
L 1997 2009 
L 1997 1497 
L 313 1497 
L 313 2009 
z
" transform="scale(0.015625)"/>
      <path id="DejaVuSans-69" d="M 603 3500 
L 1178 3500 
L 1178 0 
L 603 0 
L 603 3500 
z
M 603 4863 
L 1178 4863 
L 1178 4134 
L 603 4134 
L 603 4863 
z
" transform="scale(0.015625)"/>
      <path id="DejaVuSans-76" d="M 191 3500 
L 800 3500 
L 1894 563 
L 2988 3500 
L 3597 3500 
L 2284 0 
L 1503 0 
L 191 3500 
z
" transform="scale(0.015625)"/>
      <path id="DejaVuSans-39" d="M 703 97 
L 703 672 
Q 941 559 1184 500 
Q 1428 441 1663 441 
Q 2288 441 2617 861 
Q 2947 1281 2994 2138 
Q 2813 1869 2534 1725 
Q 2256 1581 1919 1581 
Q 1219 1581 811 2004 
Q 403 2428 403 3163 
Q 403 3881 828 4315 
Q 1253 4750 1959 4750 
Q 2769 4750 3195 4129 
Q 3622 3509 3622 2328 
Q 3622 1225 3098 567 
Q 2575 -91 1691 -91 
Q 1453 -91 1209 -44 
Q 966 3 703 97 
z
M 1959 2075 
Q 2384 2075 2632 2365 
Q 2881 2656 2881 3163 
Q 2881 3666 2632 3958 
Q 2384 4250 1959 4250 
Q 1534 4250 1286 3958 
Q 1038 3666 1038 3163 
Q 1038 2656 1286 2365 
Q 1534 2075 1959 2075 
z
" transform="scale(0.015625)"/>
     </defs>
     <use xlink:href="#DejaVuSans-73"/>
     <use xlink:href="#DejaVuSans-6f" x="52.099609"/>
     <use xlink:href="#DejaVuSans-75" x="113.28125"/>
     <use xlink:href="#DejaVuSans-72" x="176.660156"/>
     <use xlink:href="#DejaVuSans-63" x="215.523438"/>
     <use xlink:href="#DejaVuSans-65" x="270.503906"/>
     <use xlink:href="#DejaVuSans-32" x="332.027344"/>
     <use xlink:href="#DejaVuSans-30" x="395.650391"/>
     <use xlink:href="#DejaVuSans-2d" x="459.273438"/>
     <use xlink:href="#DejaVuSans-72" x="495.357422"/>
     <use xlink:href="#DejaVuSans-65" x="534.220703"/>
     <use xlink:href="#DejaVuSans-63" x="595.744141"/>
     <use xlink:href="#DejaVuSans-65" x="650.724609"/>
     <use xlink:href="#DejaVuSans-69" x="712.248047"/>
     <use xlink:href="#DejaVuSans-76" x="740.03125"/>
     <use xlink:href="#DejaVuSans-65" x="799.210938"/>
     <use xlink:href="#DejaVuSans-72" x="860.734375"/>
     <use xlink:href="#DejaVuSans-31" x="901.847656"/>
     <use xlink:href="#DejaVuSans-39" x="965.470703"/>
    </g>
   </g>
  </g>
 </g>
 <defs>
  <clipPath id="pf1f1782b09">
   <rect x="180" y="69.12" width="1116" height="443.52"/>
  </clipPath>
 </defs>
</svg>
