<?xml version="1.0" encoding="utf-8" standalone="no"?>
<!DOCTYPE svg PUBLIC "-//W3C//DTD SVG 1.1//EN"
  "http://www.w3.org/Graphics/SVG/1.1/DTD/svg11.dtd">
<svg xmlns:xlink="http://www.w3.org/1999/xlink" width="1440pt" height="576pt" viewBox="0 0 1440 576" xmlns="http://www.w3.org/2000/svg" version="1.1">
 <metadata>
  <rdf:RDF xmlns:dc="http://purl.org/dc/elements/1.1/" xmlns:cc="http://creativecommons.org/ns#" xmlns:rdf="http://www.w3.org/1999/02/22-rdf-syntax-ns#">
   <cc:Work>
    <dc:type rdf:resource="http://purl.org/dc/dcmitype/StillImage"/>
    <dc:date>2024-05-22T04:50:17.918037</dc:date>
    <dc:format>image/svg+xml</dc:format>
    <dc:creator>
     <cc:Agent>
      <dc:title>Matplotlib v3.8.3, https://matplotlib.org/</dc:title>
     </cc:Agent>
    </dc:creator>
   </cc:Work>
  </rdf:RDF>
 </metadata>
 <defs>
  <style type="text/css">*{stroke-linejoin: round; stroke-linecap: butt}</style>
 </defs>
 <g id="figure_1">
  <g id="patch_1">
   <path d="M 0 576 
L 1440 576 
L 1440 0 
L 0 0 
z
" style="fill: #ffffff"/>
  </g>
  <g id="axes_1">
   <g id="patch_2">
    <path d="M 180 512.64 
L 1296 512.64 
L 1296 69.12 
L 180 69.12 
z
" style="fill: #ffffff"/>
   </g>
   <g id="matplotlib.axis_1">
    <g id="xtick_1">
     <g id="line2d_1">
      <defs>
       <path id="m6917dbce72" d="M 0 0 
L 0 3.5 
" style="stroke: #000000; stroke-width: 0.8"/>
      </defs>
      <g>
       <use xlink:href="#m6917dbce72" x="229.734567" y="512.64" style="stroke: #000000; stroke-width: 0.8"/>
      </g>
     </g>
     <g id="text_1">
      <!-- 0 -->
      <g transform="translate(226.553317 527.238438) scale(0.1 -0.1)">
       <defs>
        <path id="DejaVuSans-30" d="M 2034 4250 
Q 1547 4250 1301 3770 
Q 1056 3291 1056 2328 
Q 1056 1369 1301 889 
Q 1547 409 2034 409 
Q 2525 409 2770 889 
Q 3016 1369 3016 2328 
Q 3016 3291 2770 3770 
Q 2525 4250 2034 4250 
z
M 2034 4750 
Q 2819 4750 3233 4129 
Q 3647 3509 3647 2328 
Q 3647 1150 3233 529 
Q 2819 -91 2034 -91 
Q 1250 -91 836 529 
Q 422 1150 422 2328 
Q 422 3509 836 4129 
Q 1250 4750 2034 4750 
z
" transform="scale(0.015625)"/>
       </defs>
       <use xlink:href="#DejaVuSans-30"/>
      </g>
     </g>
    </g>
    <g id="xtick_2">
     <g id="line2d_2">
      <g>
       <use xlink:href="#m6917dbce72" x="433.04074" y="512.64" style="stroke: #000000; stroke-width: 0.8"/>
      </g>
     </g>
     <g id="text_2">
      <!-- 500 -->
      <g transform="translate(423.49699 527.238438) scale(0.1 -0.1)">
       <defs>
        <path id="DejaVuSans-35" d="M 691 4666 
L 3169 4666 
L 3169 4134 
L 1269 4134 
L 1269 2991 
Q 1406 3038 1543 3061 
Q 1681 3084 1819 3084 
Q 2600 3084 3056 2656 
Q 3513 2228 3513 1497 
Q 3513 744 3044 326 
Q 2575 -91 1722 -91 
Q 1428 -91 1123 -41 
Q 819 9 494 109 
L 494 744 
Q 775 591 1075 516 
Q 1375 441 1709 441 
Q 2250 441 2565 725 
Q 2881 1009 2881 1497 
Q 2881 1984 2565 2268 
Q 2250 2553 1709 2553 
Q 1456 2553 1204 2497 
Q 953 2441 691 2322 
L 691 4666 
z
" transform="scale(0.015625)"/>
       </defs>
       <use xlink:href="#DejaVuSans-35"/>
       <use xlink:href="#DejaVuSans-30" x="63.623047"/>
       <use xlink:href="#DejaVuSans-30" x="127.246094"/>
      </g>
     </g>
    </g>
    <g id="xtick_3">
     <g id="line2d_3">
      <g>
       <use xlink:href="#m6917dbce72" x="636.346913" y="512.64" style="stroke: #000000; stroke-width: 0.8"/>
      </g>
     </g>
     <g id="text_3">
      <!-- 1000 -->
      <g transform="translate(623.621913 527.238438) scale(0.1 -0.1)">
       <defs>
        <path id="DejaVuSans-31" d="M 794 531 
L 1825 531 
L 1825 4091 
L 703 3866 
L 703 4441 
L 1819 4666 
L 2450 4666 
L 2450 531 
L 3481 531 
L 3481 0 
L 794 0 
L 794 531 
z
" transform="scale(0.015625)"/>
       </defs>
       <use xlink:href="#DejaVuSans-31"/>
       <use xlink:href="#DejaVuSans-30" x="63.623047"/>
       <use xlink:href="#DejaVuSans-30" x="127.246094"/>
       <use xlink:href="#DejaVuSans-30" x="190.869141"/>
      </g>
     </g>
    </g>
    <g id="xtick_4">
     <g id="line2d_4">
      <g>
       <use xlink:href="#m6917dbce72" x="839.653087" y="512.64" style="stroke: #000000; stroke-width: 0.8"/>
      </g>
     </g>
     <g id="text_4">
      <!-- 1500 -->
      <g transform="translate(826.928087 527.238438) scale(0.1 -0.1)">
       <use xlink:href="#DejaVuSans-31"/>
       <use xlink:href="#DejaVuSans-35" x="63.623047"/>
       <use xlink:href="#DejaVuSans-30" x="127.246094"/>
       <use xlink:href="#DejaVuSans-30" x="190.869141"/>
      </g>
     </g>
    </g>
    <g id="xtick_5">
     <g id="line2d_5">
      <g>
       <use xlink:href="#m6917dbce72" x="1042.95926" y="512.64" style="stroke: #000000; stroke-width: 0.8"/>
      </g>
     </g>
     <g id="text_5">
      <!-- 2000 -->
      <g transform="translate(1030.23426 527.238438) scale(0.1 -0.1)">
       <defs>
        <path id="DejaVuSans-32" d="M 1228 531 
L 3431 531 
L 3431 0 
L 469 0 
L 469 531 
Q 828 903 1448 1529 
Q 2069 2156 2228 2338 
Q 2531 2678 2651 2914 
Q 2772 3150 2772 3378 
Q 2772 3750 2511 3984 
Q 2250 4219 1831 4219 
Q 1534 4219 1204 4116 
Q 875 4013 500 3803 
L 500 4441 
Q 881 4594 1212 4672 
Q 1544 4750 1819 4750 
Q 2544 4750 2975 4387 
Q 3406 4025 3406 3419 
Q 3406 3131 3298 2873 
Q 3191 2616 2906 2266 
Q 2828 2175 2409 1742 
Q 1991 1309 1228 531 
z
" transform="scale(0.015625)"/>
       </defs>
       <use xlink:href="#DejaVuSans-32"/>
       <use xlink:href="#DejaVuSans-30" x="63.623047"/>
       <use xlink:href="#DejaVuSans-30" x="127.246094"/>
       <use xlink:href="#DejaVuSans-30" x="190.869141"/>
      </g>
     </g>
    </g>
    <g id="xtick_6">
     <g id="line2d_6">
      <g>
       <use xlink:href="#m6917dbce72" x="1246.265433" y="512.64" style="stroke: #000000; stroke-width: 0.8"/>
      </g>
     </g>
     <g id="text_6">
      <!-- 2500 -->
      <g transform="translate(1233.540433 527.238438) scale(0.1 -0.1)">
       <use xlink:href="#DejaVuSans-32"/>
       <use xlink:href="#DejaVuSans-35" x="63.623047"/>
       <use xlink:href="#DejaVuSans-30" x="127.246094"/>
       <use xlink:href="#DejaVuSans-30" x="190.869141"/>
      </g>
     </g>
    </g>
   </g>
   <g id="matplotlib.axis_2">
    <g id="ytick_1">
     <g id="line2d_7">
      <defs>
       <path id="m967e1f19f0" d="M 0 0 
L -3.5 0 
" style="stroke: #000000; stroke-width: 0.8"/>
      </defs>
      <g>
       <use xlink:href="#m967e1f19f0" x="180" y="507.117378" style="stroke: #000000; stroke-width: 0.8"/>
      </g>
     </g>
     <g id="text_7">
      <!-- −2 -->
      <g transform="translate(158.257812 510.916596) scale(0.1 -0.1)">
       <defs>
        <path id="DejaVuSans-2212" d="M 678 2272 
L 4684 2272 
L 4684 1741 
L 678 1741 
L 678 2272 
z
" transform="scale(0.015625)"/>
       </defs>
       <use xlink:href="#DejaVuSans-2212"/>
       <use xlink:href="#DejaVuSans-32" x="83.789062"/>
      </g>
     </g>
    </g>
    <g id="ytick_2">
     <g id="line2d_8">
      <g>
       <use xlink:href="#m967e1f19f0" x="180" y="446.129712" style="stroke: #000000; stroke-width: 0.8"/>
      </g>
     </g>
     <g id="text_8">
      <!-- −1 -->
      <g transform="translate(158.257812 449.928931) scale(0.1 -0.1)">
       <use xlink:href="#DejaVuSans-2212"/>
       <use xlink:href="#DejaVuSans-31" x="83.789062"/>
      </g>
     </g>
    </g>
    <g id="ytick_3">
     <g id="line2d_9">
      <g>
       <use xlink:href="#m967e1f19f0" x="180" y="385.142046" style="stroke: #000000; stroke-width: 0.8"/>
      </g>
     </g>
     <g id="text_9">
      <!-- 0 -->
      <g transform="translate(166.6375 388.941265) scale(0.1 -0.1)">
       <use xlink:href="#DejaVuSans-30"/>
      </g>
     </g>
    </g>
    <g id="ytick_4">
     <g id="line2d_10">
      <g>
       <use xlink:href="#m967e1f19f0" x="180" y="324.15438" style="stroke: #000000; stroke-width: 0.8"/>
      </g>
     </g>
     <g id="text_10">
      <!-- 1 -->
      <g transform="translate(166.6375 327.953599) scale(0.1 -0.1)">
       <use xlink:href="#DejaVuSans-31"/>
      </g>
     </g>
    </g>
    <g id="ytick_5">
     <g id="line2d_11">
      <g>
       <use xlink:href="#m967e1f19f0" x="180" y="263.166715" style="stroke: #000000; stroke-width: 0.8"/>
      </g>
     </g>
     <g id="text_11">
      <!-- 2 -->
      <g transform="translate(166.6375 266.965933) scale(0.1 -0.1)">
       <use xlink:href="#DejaVuSans-32"/>
      </g>
     </g>
    </g>
    <g id="ytick_6">
     <g id="line2d_12">
      <g>
       <use xlink:href="#m967e1f19f0" x="180" y="202.179049" style="stroke: #000000; stroke-width: 0.8"/>
      </g>
     </g>
     <g id="text_12">
      <!-- 3 -->
      <g transform="translate(166.6375 205.978268) scale(0.1 -0.1)">
       <defs>
        <path id="DejaVuSans-33" d="M 2597 2516 
Q 3050 2419 3304 2112 
Q 3559 1806 3559 1356 
Q 3559 666 3084 287 
Q 2609 -91 1734 -91 
Q 1441 -91 1130 -33 
Q 819 25 488 141 
L 488 750 
Q 750 597 1062 519 
Q 1375 441 1716 441 
Q 2309 441 2620 675 
Q 2931 909 2931 1356 
Q 2931 1769 2642 2001 
Q 2353 2234 1838 2234 
L 1294 2234 
L 1294 2753 
L 1863 2753 
Q 2328 2753 2575 2939 
Q 2822 3125 2822 3475 
Q 2822 3834 2567 4026 
Q 2313 4219 1838 4219 
Q 1578 4219 1281 4162 
Q 984 4106 628 3988 
L 628 4550 
Q 988 4650 1302 4700 
Q 1616 4750 1894 4750 
Q 2613 4750 3031 4423 
Q 3450 4097 3450 3541 
Q 3450 3153 3228 2886 
Q 3006 2619 2597 2516 
z
" transform="scale(0.015625)"/>
       </defs>
       <use xlink:href="#DejaVuSans-33"/>
      </g>
     </g>
    </g>
    <g id="ytick_7">
     <g id="line2d_13">
      <g>
       <use xlink:href="#m967e1f19f0" x="180" y="141.191383" style="stroke: #000000; stroke-width: 0.8"/>
      </g>
     </g>
     <g id="text_13">
      <!-- 4 -->
      <g transform="translate(166.6375 144.990602) scale(0.1 -0.1)">
       <defs>
        <path id="DejaVuSans-34" d="M 2419 4116 
L 825 1625 
L 2419 1625 
L 2419 4116 
z
M 2253 4666 
L 3047 4666 
L 3047 1625 
L 3713 1625 
L 3713 1100 
L 3047 1100 
L 3047 0 
L 2419 0 
L 2419 1100 
L 313 1100 
L 313 1709 
L 2253 4666 
z
" transform="scale(0.015625)"/>
       </defs>
       <use xlink:href="#DejaVuSans-34"/>
      </g>
     </g>
    </g>
    <g id="ytick_8">
     <g id="line2d_14">
      <g>
       <use xlink:href="#m967e1f19f0" x="180" y="80.203717" style="stroke: #000000; stroke-width: 0.8"/>
      </g>
     </g>
     <g id="text_14">
      <!-- 5 -->
      <g transform="translate(166.6375 84.002936) scale(0.1 -0.1)">
       <use xlink:href="#DejaVuSans-35"/>
      </g>
     </g>
    </g>
   </g>
   <g id="line2d_15">
    <path d="M 230.727273 421.973687 
L 231.719979 421.362869 
L 232.712685 420.891159 
L 233.70539 419.472593 
L 234.698096 418.406136 
L 235.690802 416.842453 
L 237.676214 413.155659 
L 239.661626 408.831867 
L 243.63245 398.239997 
L 244.625156 394.620535 
L 245.617862 388.886705 
L 246.610568 384.794201 
L 247.603273 391.673617 
L 248.595979 390.324407 
L 249.588685 336.078894 
L 250.581391 295.878421 
L 251.574097 269.103934 
L 252.566803 253.306269 
L 253.559509 246.055827 
L 254.552215 254.264309 
L 256.537627 337.161043 
L 257.530333 256.446933 
L 258.523039 246.91898 
L 259.515745 301.738707 
L 260.50845 242.451146 
L 261.501156 193.937542 
L 262.493862 181.935503 
L 263.486568 197.332439 
L 264.479274 253.285895 
L 265.47198 242.121312 
L 266.464686 219.908675 
L 267.457392 236.774594 
L 268.450098 246.789058 
L 269.442804 242.176553 
L 270.43551 278.752501 
L 271.428216 236.09593 
L 272.420922 207.866977 
L 273.413627 214.679371 
L 274.406333 212.952942 
L 275.399039 193.765625 
L 276.391745 204.842117 
L 277.384451 213.365636 
L 278.377157 163.867327 
L 279.369863 147.20679 
L 280.362569 165.557371 
L 281.355275 192.381548 
L 282.347981 127.843781 
L 283.340687 100.70882 
L 284.333393 99.955423 
L 285.326099 132.24703 
L 286.318804 210.366364 
L 287.31151 111.135936 
L 288.304216 89.28 
L 289.296922 96.354794 
L 290.289628 136.719142 
L 291.282334 281.54731 
L 292.27504 151.588952 
L 293.267746 145.900838 
L 294.260452 180.690235 
L 295.253158 304.294509 
L 296.245864 229.207832 
L 297.23857 226.905727 
L 298.231276 243.555941 
L 299.223981 269.443456 
L 300.216687 377.730933 
L 301.209393 250.851929 
L 302.202099 238.110888 
L 303.194805 273.708698 
L 304.187511 324.632884 
L 305.180217 274.210988 
L 306.172923 293.377288 
L 307.165629 482.797483 
L 308.158335 312.146475 
L 309.151041 316.759133 
L 310.143747 348.142059 
L 311.136453 324.302691 
L 312.129159 325.849148 
L 313.121864 342.348843 
L 314.11457 334.527966 
L 315.107276 336.164776 
L 316.099982 339.60957 
L 318.085394 342.142387 
L 319.0781 342.392211 
L 320.070806 342.842094 
L 321.063512 346.261373 
L 322.056218 347.415889 
L 323.048924 347.668002 
L 324.04163 350.542311 
L 325.034336 349.001565 
L 326.027041 353.8008 
L 327.019747 353.337291 
L 328.012453 353.607236 
L 329.005159 357.680523 
L 329.997865 357.413146 
L 330.990571 356.947235 
L 331.983277 360.204746 
L 332.975983 362.831596 
L 333.968689 359.042883 
L 334.961395 361.19736 
L 335.954101 362.252964 
L 336.946807 362.590441 
L 337.939513 362.309093 
L 338.932218 360.505646 
L 339.924924 366.146159 
L 340.91763 367.938625 
L 342.903042 363.967584 
L 343.895748 369.453067 
L 344.888454 373.804485 
L 345.88116 370.837345 
L 346.873866 371.167985 
L 347.866572 376.319483 
L 348.859278 374.19423 
L 349.851984 373.623078 
L 350.84469 376.546888 
L 351.837395 378.452704 
L 352.830101 379.118663 
L 353.822807 380.085003 
L 354.815513 377.032484 
L 355.808219 380.631677 
L 356.800925 379.97172 
L 357.793631 383.021073 
L 358.786337 382.402847 
L 359.779043 384.420879 
L 360.771749 384.721776 
L 361.764455 381.659232 
L 362.757161 384.134558 
L 363.749867 390.009136 
L 364.742572 386.891464 
L 366.727984 383.42795 
L 367.72069 386.553236 
L 368.713396 384.262791 
L 369.706102 391.602991 
L 370.698808 388.776595 
L 371.691514 386.703567 
L 372.68422 388.623539 
L 373.676926 391.213702 
L 374.669632 389.6342 
L 375.662338 389.878044 
L 376.655044 389.708788 
L 377.64775 390.764037 
L 378.640455 391.048907 
L 379.633161 397.160218 
L 380.625867 395.891763 
L 381.618573 390.654082 
L 382.611279 394.080735 
L 383.603985 394.600482 
L 384.596691 399.434476 
L 385.589397 395.854752 
L 386.582103 395.582994 
L 387.574809 399.729573 
L 388.567515 401.393583 
L 389.560221 398.902961 
L 390.552927 399.103459 
L 391.545632 399.910332 
L 392.538338 403.06007 
L 393.531044 402.109117 
L 394.52375 398.500385 
L 395.516456 398.988891 
L 396.509162 404.114296 
L 397.501868 402.269816 
L 398.494574 404.125269 
L 400.479986 401.379723 
L 401.472692 400.647978 
L 403.458104 408.586047 
L 405.443515 404.200554 
L 406.436221 407.413069 
L 407.428927 409.81296 
L 408.421633 406.864298 
L 409.414339 410.218777 
L 410.407045 404.75262 
L 411.399751 406.347624 
L 412.392457 407.199078 
L 413.385163 413.679943 
L 414.377869 410.384556 
L 415.370575 407.69682 
L 416.363281 407.754253 
L 417.355986 411.36737 
L 418.348692 407.587901 
L 420.334104 411.605535 
L 421.32681 412.948769 
L 422.319516 409.087114 
L 423.312222 411.005313 
L 424.304928 414.131104 
L 425.297634 414.149257 
L 426.29034 412.269488 
L 427.283046 411.055045 
L 428.275752 420.522937 
L 429.268458 414.303348 
L 430.261163 417.026763 
L 431.253869 412.191242 
L 432.246575 413.000384 
L 433.239281 415.764258 
L 434.231987 414.720249 
L 435.224693 421.096187 
L 436.217399 415.905871 
L 437.210105 417.75938 
L 438.202811 413.582603 
L 439.195517 418.032233 
L 440.188223 418.26154 
L 441.180929 418.333641 
L 442.173635 419.812487 
L 443.166341 424.220525 
L 444.159046 417.493311 
L 445.151752 425.286762 
L 446.144458 420.641449 
L 447.137164 420.09798 
L 448.12987 421.997348 
L 449.122576 417.1279 
L 450.115282 426.101234 
L 451.107988 423.75486 
L 452.100694 419.411787 
L 453.0934 424.46673 
L 454.086106 425.27761 
L 455.078812 421.877407 
L 456.071518 420.290276 
L 457.064223 421.886782 
L 458.056929 421.34503 
L 459.049635 427.775954 
L 460.042341 423.843809 
L 461.035047 428.550721 
L 462.027753 428.436437 
L 463.020459 423.411714 
L 465.005871 425.119302 
L 465.998577 420.440795 
L 466.991283 421.007691 
L 467.983989 425.87775 
L 468.976695 429.343193 
L 469.9694 430.824696 
L 470.962106 426.696991 
L 471.954812 431.861027 
L 472.947518 425.696735 
L 473.940224 424.855743 
L 474.93293 431.960169 
L 475.925636 422.148716 
L 476.918342 425.146156 
L 477.911048 430.335493 
L 478.903754 427.675982 
L 479.89646 429.093303 
L 480.889166 431.488295 
L 481.881872 427.311038 
L 482.874577 431.804346 
L 483.867283 431.388337 
L 484.859989 433.38522 
L 486.845401 424.375312 
L 487.838107 438.2391 
L 488.830813 429.05737 
L 489.823519 430.239193 
L 490.816225 432.964333 
L 491.808931 435.160888 
L 492.801637 434.212732 
L 493.794343 430.827862 
L 494.787049 432.260219 
L 495.779754 431.389528 
L 496.77246 433.30459 
L 497.765166 432.505156 
L 498.757872 439.144339 
L 499.750578 442.787915 
L 500.743284 438.77474 
L 501.73599 433.428708 
L 502.728696 439.136895 
L 503.721402 438.971509 
L 504.714108 433.570393 
L 505.706814 435.099565 
L 506.69952 443.148329 
L 507.692226 435.820698 
L 508.684932 434.359788 
L 509.677637 436.754071 
L 510.670343 436.43908 
L 511.663049 438.889064 
L 512.655755 436.524491 
L 513.648461 437.211567 
L 514.641167 436.203727 
L 515.633873 437.417133 
L 516.626579 444.325581 
L 517.619285 441.351693 
L 518.611991 436.623554 
L 519.604697 439.323401 
L 520.597403 437.218884 
L 521.590109 438.322571 
L 522.582814 437.176826 
L 523.57552 443.59111 
L 524.568226 441.961827 
L 525.560932 435.9211 
L 526.553638 433.877324 
L 527.546344 443.016104 
L 528.53905 441.585009 
L 529.531756 435.856874 
L 530.524462 440.959013 
L 531.517168 438.518497 
L 532.509874 452.624723 
L 533.50258 438.989379 
L 534.495286 436.262735 
L 535.487991 440.293509 
L 536.480697 443.58936 
L 537.473403 441.494549 
L 538.466109 439.825005 
L 539.458815 445.638454 
L 540.451521 438.368273 
L 541.444227 441.740488 
L 542.436933 441.985015 
L 543.429639 446.1244 
L 544.422345 440.990185 
L 545.415051 442.121419 
L 546.407757 436.516514 
L 547.400463 448.122055 
L 548.393168 445.74961 
L 549.385874 446.889376 
L 550.37858 440.782169 
L 551.371286 438.08554 
L 552.363992 444.28572 
L 553.356698 444.788871 
L 554.349404 447.40492 
L 555.34211 445.055017 
L 556.334816 448.859345 
L 557.327522 445.266843 
L 558.320228 444.000587 
L 559.312934 443.519271 
L 560.30564 446.988208 
L 561.298345 451.321372 
L 562.291051 452.864716 
L 563.283757 448.595852 
L 564.276463 446.006335 
L 565.269169 444.378927 
L 566.261875 456.013003 
L 567.254581 450.445806 
L 568.247287 454.718582 
L 569.239993 449.589887 
L 570.232699 448.189864 
L 571.225405 445.587553 
L 572.218111 446.719194 
L 573.210817 447.283448 
L 574.203523 451.281629 
L 575.196228 445.700792 
L 576.188934 442.873679 
L 577.18164 450.900649 
L 578.174346 448.33341 
L 579.167052 448.058866 
L 580.159758 453.713752 
L 581.152464 449.721466 
L 582.14517 453.328014 
L 583.137876 450.735698 
L 584.130582 447.64813 
L 585.123288 449.935838 
L 586.115994 448.063021 
L 587.1087 450.862552 
L 588.101405 456.45485 
L 589.094111 452.12138 
L 590.086817 452.639657 
L 591.079523 451.359827 
L 592.072229 448.904963 
L 593.064935 454.720306 
L 594.057641 457.568509 
L 595.050347 450.893892 
L 596.043053 447.472339 
L 597.035759 455.246135 
L 598.028465 450.62813 
L 600.013877 455.920991 
L 601.006582 459.02061 
L 601.999288 452.571308 
L 602.991994 450.141526 
L 603.9847 454.803817 
L 604.977406 452.021354 
L 605.970112 451.369279 
L 606.962818 454.401334 
L 607.955524 455.605514 
L 608.94823 453.225463 
L 609.940936 453.34581 
L 610.933642 453.352694 
L 611.926348 456.333603 
L 612.919054 452.779202 
L 613.911759 454.037911 
L 614.904465 452.270791 
L 615.897171 453.756097 
L 616.889877 456.806612 
L 617.882583 455.997035 
L 618.875289 457.633884 
L 620.860701 458.220537 
L 621.853407 456.513459 
L 622.846113 456.495799 
L 624.831525 456.783608 
L 625.824231 458.373632 
L 627.809642 455.468314 
L 628.802348 456.688471 
L 629.795054 457.07268 
L 630.78776 459.51479 
L 632.773172 456.39533 
L 633.765878 458.237239 
L 634.758584 457.072872 
L 635.75129 459.197245 
L 636.743996 454.029129 
L 637.736702 457.663147 
L 639.722114 457.95599 
L 640.714819 459.785397 
L 641.707525 459.804063 
L 642.700231 459.641734 
L 643.692937 459.685083 
L 644.685643 457.024507 
L 645.678349 458.399809 
L 646.671055 460.658919 
L 647.663761 459.803214 
L 648.656467 458.510106 
L 649.649173 460.029564 
L 650.641879 460.452742 
L 651.634585 461.676761 
L 652.627291 459.537934 
L 653.619996 461.738578 
L 654.612702 458.844102 
L 655.605408 459.636159 
L 656.598114 461.512249 
L 658.583526 459.48745 
L 659.576232 461.044961 
L 660.568938 461.396058 
L 661.561644 461.97186 
L 662.55435 461.571933 
L 663.547056 461.448573 
L 664.539762 461.85063 
L 665.532468 463.133435 
L 666.525173 462.152596 
L 667.517879 461.442915 
L 668.510585 462.058899 
L 669.503291 462.030967 
L 670.495997 463.376163 
L 671.488703 462.820867 
L 672.481409 462.894465 
L 674.466821 463.93621 
L 675.459527 463.97939 
L 676.452233 462.657007 
L 677.444939 463.610453 
L 680.423056 463.664446 
L 681.415762 464.132081 
L 682.408468 463.922652 
L 683.401174 464.318691 
L 684.39388 464.336374 
L 685.386586 465.215418 
L 686.379292 464.690731 
L 688.364704 465.717445 
L 689.35741 464.701506 
L 691.342822 465.601598 
L 693.328233 464.394419 
L 694.320939 465.327601 
L 695.313645 465.908605 
L 696.306351 465.082345 
L 697.299057 465.544983 
L 698.291763 465.751179 
L 699.284469 466.312304 
L 700.277175 466.203928 
L 701.269881 466.388047 
L 702.262587 466.302394 
L 703.255293 466.821553 
L 704.247999 466.905297 
L 706.23341 466.371771 
L 707.226116 467.674179 
L 708.218822 466.773786 
L 709.211528 467.212884 
L 710.204234 467.184064 
L 711.19694 466.995506 
L 712.189646 467.159002 
L 715.167764 468.051026 
L 716.16047 467.075655 
L 717.153176 467.63072 
L 718.145882 467.958692 
L 719.138587 468.498967 
L 721.123999 468.348876 
L 723.109411 469.199466 
L 724.102117 468.729796 
L 725.094823 469.208057 
L 726.087529 468.340245 
L 728.072941 469.11401 
L 729.065647 469.463111 
L 731.051059 469.559107 
L 732.043764 469.639395 
L 733.03647 469.973566 
L 735.021882 469.872353 
L 736.014588 470.122069 
L 738 469.91719 
L 738.992706 470.723012 
L 739.985412 470.273166 
L 740.978118 470.437507 
L 741.970824 470.271852 
L 742.96353 470.666754 
L 743.956236 470.147471 
L 744.948941 470.346401 
L 745.941647 470.900947 
L 746.934353 470.848721 
L 747.927059 471.048824 
L 748.919765 470.991876 
L 749.912471 471.27538 
L 750.905177 471.679114 
L 751.897883 471.32778 
L 752.890589 471.4546 
L 753.883295 471.889185 
L 754.876001 471.295099 
L 755.868707 472.337603 
L 756.861413 471.842366 
L 757.854118 471.51605 
L 758.846824 472.163148 
L 759.83953 472.358938 
L 760.832236 472.210734 
L 761.824942 472.678712 
L 762.817648 472.347167 
L 763.810354 472.664764 
L 764.80306 472.490729 
L 765.795766 472.606284 
L 766.788472 473.066462 
L 767.781178 472.40951 
L 768.773884 472.938959 
L 769.76659 473.027972 
L 770.759295 472.878155 
L 771.752001 473.453425 
L 772.744707 473.540025 
L 773.737413 472.864221 
L 774.730119 473.636992 
L 775.722825 474.063183 
L 776.715531 473.569279 
L 781.679061 474.19121 
L 782.671767 474.008587 
L 784.657178 474.611503 
L 785.649884 474.334499 
L 786.64259 474.250882 
L 788.628002 474.803789 
L 789.620708 474.496484 
L 790.613414 474.866939 
L 791.60612 474.587347 
L 792.598826 474.618322 
L 793.591532 475.054041 
L 794.584238 475.198405 
L 795.576944 475.629235 
L 796.56965 475.177664 
L 797.562355 475.240434 
L 798.555061 475.661616 
L 799.547767 475.659982 
L 800.540473 475.530006 
L 802.525885 475.886342 
L 803.518591 475.657813 
L 804.511297 476.207953 
L 805.504003 476.180035 
L 806.496709 476.035448 
L 808.482121 476.268731 
L 809.474827 476.24304 
L 810.467532 475.978627 
L 811.460238 476.635369 
L 812.452944 476.629576 
L 814.438356 477.183784 
L 815.431062 476.598322 
L 817.416474 477.070096 
L 818.40918 477.01325 
L 819.401886 477.170227 
L 820.394592 477.022009 
L 821.387298 477.085382 
L 822.380004 477.501485 
L 823.372709 477.174843 
L 824.365415 477.56829 
L 825.358121 477.477852 
L 827.343533 477.652005 
L 829.328945 478.448591 
L 830.321651 478.087619 
L 831.314357 478.316521 
L 832.307063 477.717132 
L 833.299769 478.265127 
L 834.292475 477.766239 
L 835.285181 478.470379 
L 836.277886 478.879816 
L 837.270592 478.637796 
L 838.263298 478.950326 
L 839.256004 478.898888 
L 840.24871 478.294158 
L 841.241416 478.777386 
L 842.234122 478.566602 
L 844.219534 479.20309 
L 845.21224 479.06368 
L 846.204946 479.476943 
L 847.197652 479.131107 
L 848.190358 478.939297 
L 849.183064 479.192107 
L 850.175769 479.137964 
L 852.161181 479.51244 
L 853.153887 479.414239 
L 854.146593 479.817969 
L 855.139299 479.845458 
L 857.124711 479.644926 
L 858.117417 479.918684 
L 859.110123 479.846769 
L 860.102829 480.44788 
L 862.088241 480.043381 
L 863.080946 480.176398 
L 864.073652 480.73471 
L 865.066358 480.08626 
L 867.05177 480.715347 
L 868.044476 480.574305 
L 869.037182 480.296077 
L 870.029888 480.674236 
L 871.022594 480.854403 
L 872.0153 480.546574 
L 873.008006 480.513221 
L 874.000712 481.147837 
L 874.993418 480.504574 
L 875.986123 480.981829 
L 876.978829 481.163902 
L 877.971535 480.790913 
L 878.964241 481.511567 
L 879.956947 481.060856 
L 881.942359 481.515204 
L 882.935065 481.243563 
L 884.920477 481.618235 
L 885.913183 481.328263 
L 886.905889 482.334527 
L 887.898595 481.649843 
L 888.8913 481.716005 
L 889.884006 481.398305 
L 890.876712 481.910153 
L 892.862124 481.721774 
L 893.85483 482.00115 
L 895.840242 482.044888 
L 896.832948 482.521035 
L 898.81836 482.620914 
L 899.811066 482.861386 
L 901.796477 482.575749 
L 902.789183 482.79061 
L 903.781889 482.49677 
L 904.774595 482.603533 
L 905.767301 482.515848 
L 906.760007 482.774741 
L 907.752713 482.634401 
L 908.745419 483.196889 
L 909.738125 482.933949 
L 910.730831 482.48981 
L 911.723537 483.011732 
L 912.716243 483.282002 
L 913.708949 482.888501 
L 914.701655 483.438175 
L 915.69436 483.42365 
L 916.687066 482.912013 
L 917.679772 483.573963 
L 918.672478 483.878539 
L 919.665184 483.480706 
L 920.65789 483.499262 
L 921.650596 483.689781 
L 922.643302 483.41231 
L 924.628714 483.801995 
L 925.62142 483.790193 
L 926.614126 483.915261 
L 927.606832 483.716149 
L 928.599537 484.162745 
L 929.592243 483.85826 
L 930.584949 484.123095 
L 931.577655 484.509321 
L 932.570361 484.124811 
L 933.563067 483.971064 
L 934.555773 484.03981 
L 935.548479 484.817065 
L 936.541185 484.522052 
L 937.533891 485.230663 
L 938.526597 484.652635 
L 939.519303 484.386509 
L 940.512009 484.312427 
L 942.49742 484.562947 
L 943.490126 484.946298 
L 944.482832 484.608234 
L 946.468244 484.380868 
L 947.46095 484.854561 
L 949.446362 484.92864 
L 952.42448 485.173264 
L 954.409891 484.827288 
L 955.402597 485.406389 
L 959.373421 485.250341 
L 960.366127 485.162325 
L 961.358833 485.454784 
L 962.351539 485.151152 
L 963.344245 485.709962 
L 964.336951 485.916884 
L 966.322363 485.219073 
L 967.315068 485.983279 
L 968.307774 485.744994 
L 969.30048 485.053367 
L 971.285892 486.298022 
L 973.271304 486.431959 
L 974.26401 486.22305 
L 975.256716 485.802858 
L 976.249422 485.941014 
L 977.242128 486.233402 
L 978.234834 486.340427 
L 979.22754 486.19638 
L 980.220246 486.597889 
L 981.212951 486.205554 
L 982.205657 486.231491 
L 983.198363 486.058619 
L 985.183775 486.535178 
L 987.169187 486.057488 
L 988.161893 486.532708 
L 990.147305 487.014744 
L 991.140011 486.966977 
L 992.132717 486.654817 
L 993.125423 486.589664 
L 994.118128 486.361028 
L 995.110834 487.037332 
L 996.10354 486.760522 
L 997.096246 487.318446 
L 998.088952 486.883288 
L 1000.074364 487.271683 
L 1001.06707 487.186681 
L 1003.052482 487.787526 
L 1004.045188 487.929985 
L 1005.037894 486.977225 
L 1006.0306 487.338309 
L 1008.016011 487.564715 
L 1009.008717 487.855914 
L 1010.001423 487.398235 
L 1010.994129 487.385151 
L 1011.986835 487.704348 
L 1012.979541 487.493441 
L 1013.972247 487.895517 
L 1014.964953 487.761137 
L 1015.957659 488.137834 
L 1016.950365 487.996888 
L 1017.943071 487.535343 
L 1018.935777 487.528167 
L 1020.921188 488.095951 
L 1021.913894 488.105991 
L 1022.9066 488.25431 
L 1023.899306 487.560464 
L 1024.892012 488.373589 
L 1025.884718 487.924448 
L 1026.877424 487.693592 
L 1028.862836 488.494728 
L 1029.855542 488.375781 
L 1030.848248 488.521063 
L 1032.833659 488.194907 
L 1033.826365 488.426062 
L 1034.819071 488.228285 
L 1035.811777 488.620452 
L 1036.804483 488.43527 
L 1037.797189 488.665174 
L 1038.789895 488.439283 
L 1041.768013 488.743743 
L 1042.760719 489.130307 
L 1043.753425 488.893897 
L 1044.746131 489.045255 
L 1045.738837 489.007082 
L 1046.731542 488.619147 
L 1048.716954 488.306663 
L 1049.70966 488.927082 
L 1050.702366 489.131099 
L 1051.695072 488.815523 
L 1052.687778 488.644555 
L 1053.680484 488.985569 
L 1054.67319 488.498305 
L 1055.665896 488.85054 
L 1056.658602 489.345607 
L 1059.636719 488.651739 
L 1060.629425 489.555863 
L 1061.622131 489.328022 
L 1062.614837 488.646328 
L 1063.607543 489.176332 
L 1064.600249 489.383016 
L 1065.592955 489.427522 
L 1066.585661 489.710294 
L 1067.578367 489.113837 
L 1068.571073 489.077665 
L 1069.563779 489.704785 
L 1070.556485 489.317425 
L 1071.549191 489.6484 
L 1072.541896 489.272 
L 1073.534602 489.274524 
L 1075.520014 489.947722 
L 1076.51272 489.529922 
L 1078.498132 489.490147 
L 1079.490838 489.269788 
L 1080.483544 489.855206 
L 1081.47625 489.105983 
L 1082.468956 490.012883 
L 1083.461662 490.460585 
L 1084.454368 489.318942 
L 1085.447073 489.887016 
L 1086.439779 489.734089 
L 1087.432485 490.056474 
L 1088.425191 489.663752 
L 1089.417897 490.116474 
L 1090.410603 490.153349 
L 1091.403309 489.68875 
L 1093.388721 490.056874 
L 1094.381427 489.847552 
L 1095.374133 490.30025 
L 1097.359545 490.297644 
L 1098.35225 490.12641 
L 1099.344956 489.789893 
L 1100.337662 489.875552 
L 1101.330368 490.192312 
L 1102.323074 490.127491 
L 1103.31578 490.47329 
L 1104.308486 489.903128 
L 1105.301192 489.964711 
L 1106.293898 489.854663 
L 1107.286604 489.991484 
L 1108.27931 490.648182 
L 1109.272016 490.349241 
L 1111.257428 490.494961 
L 1113.242839 489.822013 
L 1114.235545 490.730858 
L 1115.228251 490.640321 
L 1116.220957 490.911248 
L 1117.213663 490.572225 
L 1118.206369 490.760157 
L 1121.184487 490.642478 
L 1122.177193 491.159335 
L 1123.169899 490.165522 
L 1124.162605 490.541835 
L 1125.15531 490.43114 
L 1127.140722 490.923181 
L 1128.133428 490.454023 
L 1130.11884 491.018425 
L 1131.111546 490.385053 
L 1132.104252 490.977595 
L 1133.096958 490.427497 
L 1135.08237 491.070633 
L 1136.075076 490.48336 
L 1139.053193 491.40422 
L 1140.045899 490.705883 
L 1141.038605 490.953001 
L 1142.031311 490.687722 
L 1143.024017 490.702639 
L 1144.016723 490.395989 
L 1145.009429 491.028077 
L 1146.002135 490.701564 
L 1146.994841 490.717031 
L 1147.987547 491.145054 
L 1148.980253 491.375097 
L 1149.972959 490.923697 
L 1150.965664 490.930585 
L 1151.95837 490.573118 
L 1152.951076 491.195176 
L 1153.943782 490.68529 
L 1154.936488 491.274535 
L 1156.9219 491.029779 
L 1157.914606 491.57901 
L 1159.900018 490.909206 
L 1160.892724 491.475372 
L 1161.88543 491.56282 
L 1163.870841 491.023743 
L 1164.863547 491.352338 
L 1166.848959 491.391064 
L 1167.841665 491.120435 
L 1168.834371 491.511867 
L 1169.827077 490.717203 
L 1170.819783 490.945949 
L 1171.812489 491.462299 
L 1172.805195 491.681883 
L 1173.797901 491.024982 
L 1174.790607 491.528422 
L 1175.783313 491.322873 
L 1177.768724 490.690483 
L 1178.76143 491.684359 
L 1179.754136 491.351394 
L 1180.746842 491.631756 
L 1181.739548 491.539673 
L 1182.732254 491.572131 
L 1183.72496 491.755772 
L 1184.717666 492.068011 
L 1185.710372 491.32513 
L 1187.695784 491.710404 
L 1188.68849 491.596877 
L 1189.681196 490.988656 
L 1190.673901 491.063066 
L 1192.659313 491.715439 
L 1194.644725 491.454791 
L 1195.637431 491.335984 
L 1196.630137 491.349657 
L 1197.622843 491.659976 
L 1199.608255 491.585988 
L 1200.600961 491.710861 
L 1201.593667 491.25105 
L 1202.586373 492.08956 
L 1204.571784 492.143417 
L 1205.56449 491.434156 
L 1206.557196 491.461802 
L 1207.549902 491.304022 
L 1208.542608 491.492492 
L 1209.535314 491.328134 
L 1210.52802 491.787308 
L 1211.520726 491.936857 
L 1213.506138 491.654421 
L 1214.498844 491.909309 
L 1215.49155 491.908927 
L 1218.469667 491.379893 
L 1219.462373 492.112869 
L 1220.455079 491.317964 
L 1221.447785 491.859318 
L 1222.440491 491.217676 
L 1223.433197 491.175252 
L 1224.425903 491.772546 
L 1225.418609 491.662124 
L 1226.411315 491.400796 
L 1227.404021 491.663433 
L 1228.396727 491.677173 
L 1229.389432 491.870053 
L 1230.382138 491.922275 
L 1231.374844 491.554593 
L 1232.36755 491.510981 
L 1233.360256 491.737898 
L 1234.352962 491.504927 
L 1235.345668 491.971029 
L 1236.338374 492.191424 
L 1237.33108 491.338937 
L 1238.323786 491.476822 
L 1239.316492 491.827722 
L 1240.309198 492.378117 
L 1241.301904 491.784474 
L 1242.29461 491.482324 
L 1243.287315 492.48 
L 1244.280021 491.453509 
L 1245.272727 491.260873 
L 1245.272727 491.260873 
" clip-path="url(#p250729daa8)" style="fill: none; stroke: #1f77b4; stroke-width: 1.5; stroke-linecap: square"/>
   </g>
   <g id="patch_3">
    <path d="M 180 512.64 
L 180 69.12 
" style="fill: none; stroke: #000000; stroke-width: 0.8; stroke-linejoin: miter; stroke-linecap: square"/>
   </g>
   <g id="patch_4">
    <path d="M 1296 512.64 
L 1296 69.12 
" style="fill: none; stroke: #000000; stroke-width: 0.8; stroke-linejoin: miter; stroke-linecap: square"/>
   </g>
   <g id="patch_5">
    <path d="M 180 512.64 
L 1296 512.64 
" style="fill: none; stroke: #000000; stroke-width: 0.8; stroke-linejoin: miter; stroke-linecap: square"/>
   </g>
   <g id="patch_6">
    <path d="M 180 69.12 
L 1296 69.12 
" style="fill: none; stroke: #000000; stroke-width: 0.8; stroke-linejoin: miter; stroke-linecap: square"/>
   </g>
   <g id="text_15">
    <!-- source20-receiver11 -->
    <g transform="translate(532.175 60.80125) scale(0.4 -0.4)">
     <defs>
      <path id="DejaVuSans-73" d="M 2834 3397 
L 2834 2853 
Q 2591 2978 2328 3040 
Q 2066 3103 1784 3103 
Q 1356 3103 1142 2972 
Q 928 2841 928 2578 
Q 928 2378 1081 2264 
Q 1234 2150 1697 2047 
L 1894 2003 
Q 2506 1872 2764 1633 
Q 3022 1394 3022 966 
Q 3022 478 2636 193 
Q 2250 -91 1575 -91 
Q 1294 -91 989 -36 
Q 684 19 347 128 
L 347 722 
Q 666 556 975 473 
Q 1284 391 1588 391 
Q 1994 391 2212 530 
Q 2431 669 2431 922 
Q 2431 1156 2273 1281 
Q 2116 1406 1581 1522 
L 1381 1569 
Q 847 1681 609 1914 
Q 372 2147 372 2553 
Q 372 3047 722 3315 
Q 1072 3584 1716 3584 
Q 2034 3584 2315 3537 
Q 2597 3491 2834 3397 
z
" transform="scale(0.015625)"/>
      <path id="DejaVuSans-6f" d="M 1959 3097 
Q 1497 3097 1228 2736 
Q 959 2375 959 1747 
Q 959 1119 1226 758 
Q 1494 397 1959 397 
Q 2419 397 2687 759 
Q 2956 1122 2956 1747 
Q 2956 2369 2687 2733 
Q 2419 3097 1959 3097 
z
M 1959 3584 
Q 2709 3584 3137 3096 
Q 3566 2609 3566 1747 
Q 3566 888 3137 398 
Q 2709 -91 1959 -91 
Q 1206 -91 779 398 
Q 353 888 353 1747 
Q 353 2609 779 3096 
Q 1206 3584 1959 3584 
z
" transform="scale(0.015625)"/>
      <path id="DejaVuSans-75" d="M 544 1381 
L 544 3500 
L 1119 3500 
L 1119 1403 
Q 1119 906 1312 657 
Q 1506 409 1894 409 
Q 2359 409 2629 706 
Q 2900 1003 2900 1516 
L 2900 3500 
L 3475 3500 
L 3475 0 
L 2900 0 
L 2900 538 
Q 2691 219 2414 64 
Q 2138 -91 1772 -91 
Q 1169 -91 856 284 
Q 544 659 544 1381 
z
M 1991 3584 
L 1991 3584 
z
" transform="scale(0.015625)"/>
      <path id="DejaVuSans-72" d="M 2631 2963 
Q 2534 3019 2420 3045 
Q 2306 3072 2169 3072 
Q 1681 3072 1420 2755 
Q 1159 2438 1159 1844 
L 1159 0 
L 581 0 
L 581 3500 
L 1159 3500 
L 1159 2956 
Q 1341 3275 1631 3429 
Q 1922 3584 2338 3584 
Q 2397 3584 2469 3576 
Q 2541 3569 2628 3553 
L 2631 2963 
z
" transform="scale(0.015625)"/>
      <path id="DejaVuSans-63" d="M 3122 3366 
L 3122 2828 
Q 2878 2963 2633 3030 
Q 2388 3097 2138 3097 
Q 1578 3097 1268 2742 
Q 959 2388 959 1747 
Q 959 1106 1268 751 
Q 1578 397 2138 397 
Q 2388 397 2633 464 
Q 2878 531 3122 666 
L 3122 134 
Q 2881 22 2623 -34 
Q 2366 -91 2075 -91 
Q 1284 -91 818 406 
Q 353 903 353 1747 
Q 353 2603 823 3093 
Q 1294 3584 2113 3584 
Q 2378 3584 2631 3529 
Q 2884 3475 3122 3366 
z
" transform="scale(0.015625)"/>
      <path id="DejaVuSans-65" d="M 3597 1894 
L 3597 1613 
L 953 1613 
Q 991 1019 1311 708 
Q 1631 397 2203 397 
Q 2534 397 2845 478 
Q 3156 559 3463 722 
L 3463 178 
Q 3153 47 2828 -22 
Q 2503 -91 2169 -91 
Q 1331 -91 842 396 
Q 353 884 353 1716 
Q 353 2575 817 3079 
Q 1281 3584 2069 3584 
Q 2775 3584 3186 3129 
Q 3597 2675 3597 1894 
z
M 3022 2063 
Q 3016 2534 2758 2815 
Q 2500 3097 2075 3097 
Q 1594 3097 1305 2825 
Q 1016 2553 972 2059 
L 3022 2063 
z
" transform="scale(0.015625)"/>
      <path id="DejaVuSans-2d" d="M 313 2009 
L 1997 2009 
L 1997 1497 
L 313 1497 
L 313 2009 
z
" transform="scale(0.015625)"/>
      <path id="DejaVuSans-69" d="M 603 3500 
L 1178 3500 
L 1178 0 
L 603 0 
L 603 3500 
z
M 603 4863 
L 1178 4863 
L 1178 4134 
L 603 4134 
L 603 4863 
z
" transform="scale(0.015625)"/>
      <path id="DejaVuSans-76" d="M 191 3500 
L 800 3500 
L 1894 563 
L 2988 3500 
L 3597 3500 
L 2284 0 
L 1503 0 
L 191 3500 
z
" transform="scale(0.015625)"/>
     </defs>
     <use xlink:href="#DejaVuSans-73"/>
     <use xlink:href="#DejaVuSans-6f" x="52.099609"/>
     <use xlink:href="#DejaVuSans-75" x="113.28125"/>
     <use xlink:href="#DejaVuSans-72" x="176.660156"/>
     <use xlink:href="#DejaVuSans-63" x="215.523438"/>
     <use xlink:href="#DejaVuSans-65" x="270.503906"/>
     <use xlink:href="#DejaVuSans-32" x="332.027344"/>
     <use xlink:href="#DejaVuSans-30" x="395.650391"/>
     <use xlink:href="#DejaVuSans-2d" x="459.273438"/>
     <use xlink:href="#DejaVuSans-72" x="495.357422"/>
     <use xlink:href="#DejaVuSans-65" x="534.220703"/>
     <use xlink:href="#DejaVuSans-63" x="595.744141"/>
     <use xlink:href="#DejaVuSans-65" x="650.724609"/>
     <use xlink:href="#DejaVuSans-69" x="712.248047"/>
     <use xlink:href="#DejaVuSans-76" x="740.03125"/>
     <use xlink:href="#DejaVuSans-65" x="799.210938"/>
     <use xlink:href="#DejaVuSans-72" x="860.734375"/>
     <use xlink:href="#DejaVuSans-31" x="901.847656"/>
     <use xlink:href="#DejaVuSans-31" x="965.470703"/>
    </g>
   </g>
  </g>
 </g>
 <defs>
  <clipPath id="p250729daa8">
   <rect x="180" y="69.12" width="1116" height="443.52"/>
  </clipPath>
 </defs>
</svg>
