<?xml version="1.0" encoding="utf-8" standalone="no"?>
<!DOCTYPE svg PUBLIC "-//W3C//DTD SVG 1.1//EN"
  "http://www.w3.org/Graphics/SVG/1.1/DTD/svg11.dtd">
<svg xmlns:xlink="http://www.w3.org/1999/xlink" width="1440pt" height="576pt" viewBox="0 0 1440 576" xmlns="http://www.w3.org/2000/svg" version="1.1">
 <metadata>
  <rdf:RDF xmlns:dc="http://purl.org/dc/elements/1.1/" xmlns:cc="http://creativecommons.org/ns#" xmlns:rdf="http://www.w3.org/1999/02/22-rdf-syntax-ns#">
   <cc:Work>
    <dc:type rdf:resource="http://purl.org/dc/dcmitype/StillImage"/>
    <dc:date>2024-05-22T04:50:18.159350</dc:date>
    <dc:format>image/svg+xml</dc:format>
    <dc:creator>
     <cc:Agent>
      <dc:title>Matplotlib v3.8.3, https://matplotlib.org/</dc:title>
     </cc:Agent>
    </dc:creator>
   </cc:Work>
  </rdf:RDF>
 </metadata>
 <defs>
  <style type="text/css">*{stroke-linejoin: round; stroke-linecap: butt}</style>
 </defs>
 <g id="figure_1">
  <g id="patch_1">
   <path d="M 0 576 
L 1440 576 
L 1440 0 
L 0 0 
z
" style="fill: #ffffff"/>
  </g>
  <g id="axes_1">
   <g id="patch_2">
    <path d="M 180 512.64 
L 1296 512.64 
L 1296 69.12 
L 180 69.12 
z
" style="fill: #ffffff"/>
   </g>
   <g id="matplotlib.axis_1">
    <g id="xtick_1">
     <g id="line2d_1">
      <defs>
       <path id="md8098916a0" d="M 0 0 
L 0 3.5 
" style="stroke: #000000; stroke-width: 0.8"/>
      </defs>
      <g>
       <use xlink:href="#md8098916a0" x="229.734567" y="512.64" style="stroke: #000000; stroke-width: 0.8"/>
      </g>
     </g>
     <g id="text_1">
      <!-- 0 -->
      <g transform="translate(226.553317 527.238438) scale(0.1 -0.1)">
       <defs>
        <path id="DejaVuSans-30" d="M 2034 4250 
Q 1547 4250 1301 3770 
Q 1056 3291 1056 2328 
Q 1056 1369 1301 889 
Q 1547 409 2034 409 
Q 2525 409 2770 889 
Q 3016 1369 3016 2328 
Q 3016 3291 2770 3770 
Q 2525 4250 2034 4250 
z
M 2034 4750 
Q 2819 4750 3233 4129 
Q 3647 3509 3647 2328 
Q 3647 1150 3233 529 
Q 2819 -91 2034 -91 
Q 1250 -91 836 529 
Q 422 1150 422 2328 
Q 422 3509 836 4129 
Q 1250 4750 2034 4750 
z
" transform="scale(0.015625)"/>
       </defs>
       <use xlink:href="#DejaVuSans-30"/>
      </g>
     </g>
    </g>
    <g id="xtick_2">
     <g id="line2d_2">
      <g>
       <use xlink:href="#md8098916a0" x="433.04074" y="512.64" style="stroke: #000000; stroke-width: 0.8"/>
      </g>
     </g>
     <g id="text_2">
      <!-- 500 -->
      <g transform="translate(423.49699 527.238438) scale(0.1 -0.1)">
       <defs>
        <path id="DejaVuSans-35" d="M 691 4666 
L 3169 4666 
L 3169 4134 
L 1269 4134 
L 1269 2991 
Q 1406 3038 1543 3061 
Q 1681 3084 1819 3084 
Q 2600 3084 3056 2656 
Q 3513 2228 3513 1497 
Q 3513 744 3044 326 
Q 2575 -91 1722 -91 
Q 1428 -91 1123 -41 
Q 819 9 494 109 
L 494 744 
Q 775 591 1075 516 
Q 1375 441 1709 441 
Q 2250 441 2565 725 
Q 2881 1009 2881 1497 
Q 2881 1984 2565 2268 
Q 2250 2553 1709 2553 
Q 1456 2553 1204 2497 
Q 953 2441 691 2322 
L 691 4666 
z
" transform="scale(0.015625)"/>
       </defs>
       <use xlink:href="#DejaVuSans-35"/>
       <use xlink:href="#DejaVuSans-30" x="63.623047"/>
       <use xlink:href="#DejaVuSans-30" x="127.246094"/>
      </g>
     </g>
    </g>
    <g id="xtick_3">
     <g id="line2d_3">
      <g>
       <use xlink:href="#md8098916a0" x="636.346913" y="512.64" style="stroke: #000000; stroke-width: 0.8"/>
      </g>
     </g>
     <g id="text_3">
      <!-- 1000 -->
      <g transform="translate(623.621913 527.238438) scale(0.1 -0.1)">
       <defs>
        <path id="DejaVuSans-31" d="M 794 531 
L 1825 531 
L 1825 4091 
L 703 3866 
L 703 4441 
L 1819 4666 
L 2450 4666 
L 2450 531 
L 3481 531 
L 3481 0 
L 794 0 
L 794 531 
z
" transform="scale(0.015625)"/>
       </defs>
       <use xlink:href="#DejaVuSans-31"/>
       <use xlink:href="#DejaVuSans-30" x="63.623047"/>
       <use xlink:href="#DejaVuSans-30" x="127.246094"/>
       <use xlink:href="#DejaVuSans-30" x="190.869141"/>
      </g>
     </g>
    </g>
    <g id="xtick_4">
     <g id="line2d_4">
      <g>
       <use xlink:href="#md8098916a0" x="839.653087" y="512.64" style="stroke: #000000; stroke-width: 0.8"/>
      </g>
     </g>
     <g id="text_4">
      <!-- 1500 -->
      <g transform="translate(826.928087 527.238438) scale(0.1 -0.1)">
       <use xlink:href="#DejaVuSans-31"/>
       <use xlink:href="#DejaVuSans-35" x="63.623047"/>
       <use xlink:href="#DejaVuSans-30" x="127.246094"/>
       <use xlink:href="#DejaVuSans-30" x="190.869141"/>
      </g>
     </g>
    </g>
    <g id="xtick_5">
     <g id="line2d_5">
      <g>
       <use xlink:href="#md8098916a0" x="1042.95926" y="512.64" style="stroke: #000000; stroke-width: 0.8"/>
      </g>
     </g>
     <g id="text_5">
      <!-- 2000 -->
      <g transform="translate(1030.23426 527.238438) scale(0.1 -0.1)">
       <defs>
        <path id="DejaVuSans-32" d="M 1228 531 
L 3431 531 
L 3431 0 
L 469 0 
L 469 531 
Q 828 903 1448 1529 
Q 2069 2156 2228 2338 
Q 2531 2678 2651 2914 
Q 2772 3150 2772 3378 
Q 2772 3750 2511 3984 
Q 2250 4219 1831 4219 
Q 1534 4219 1204 4116 
Q 875 4013 500 3803 
L 500 4441 
Q 881 4594 1212 4672 
Q 1544 4750 1819 4750 
Q 2544 4750 2975 4387 
Q 3406 4025 3406 3419 
Q 3406 3131 3298 2873 
Q 3191 2616 2906 2266 
Q 2828 2175 2409 1742 
Q 1991 1309 1228 531 
z
" transform="scale(0.015625)"/>
       </defs>
       <use xlink:href="#DejaVuSans-32"/>
       <use xlink:href="#DejaVuSans-30" x="63.623047"/>
       <use xlink:href="#DejaVuSans-30" x="127.246094"/>
       <use xlink:href="#DejaVuSans-30" x="190.869141"/>
      </g>
     </g>
    </g>
    <g id="xtick_6">
     <g id="line2d_6">
      <g>
       <use xlink:href="#md8098916a0" x="1246.265433" y="512.64" style="stroke: #000000; stroke-width: 0.8"/>
      </g>
     </g>
     <g id="text_6">
      <!-- 2500 -->
      <g transform="translate(1233.540433 527.238438) scale(0.1 -0.1)">
       <use xlink:href="#DejaVuSans-32"/>
       <use xlink:href="#DejaVuSans-35" x="63.623047"/>
       <use xlink:href="#DejaVuSans-30" x="127.246094"/>
       <use xlink:href="#DejaVuSans-30" x="190.869141"/>
      </g>
     </g>
    </g>
   </g>
   <g id="matplotlib.axis_2">
    <g id="ytick_1">
     <g id="line2d_7">
      <defs>
       <path id="m6156dacf87" d="M 0 0 
L -3.5 0 
" style="stroke: #000000; stroke-width: 0.8"/>
      </defs>
      <g>
       <use xlink:href="#m6156dacf87" x="180" y="447.876695" style="stroke: #000000; stroke-width: 0.8"/>
      </g>
     </g>
     <g id="text_7">
      <!-- −4 -->
      <g transform="translate(158.257812 451.675914) scale(0.1 -0.1)">
       <defs>
        <path id="DejaVuSans-2212" d="M 678 2272 
L 4684 2272 
L 4684 1741 
L 678 1741 
L 678 2272 
z
" transform="scale(0.015625)"/>
        <path id="DejaVuSans-34" d="M 2419 4116 
L 825 1625 
L 2419 1625 
L 2419 4116 
z
M 2253 4666 
L 3047 4666 
L 3047 1625 
L 3713 1625 
L 3713 1100 
L 3047 1100 
L 3047 0 
L 2419 0 
L 2419 1100 
L 313 1100 
L 313 1709 
L 2253 4666 
z
" transform="scale(0.015625)"/>
       </defs>
       <use xlink:href="#DejaVuSans-2212"/>
       <use xlink:href="#DejaVuSans-34" x="83.789062"/>
      </g>
     </g>
    </g>
    <g id="ytick_2">
     <g id="line2d_8">
      <g>
       <use xlink:href="#m6156dacf87" x="180" y="361.916119" style="stroke: #000000; stroke-width: 0.8"/>
      </g>
     </g>
     <g id="text_8">
      <!-- −2 -->
      <g transform="translate(158.257812 365.715338) scale(0.1 -0.1)">
       <use xlink:href="#DejaVuSans-2212"/>
       <use xlink:href="#DejaVuSans-32" x="83.789062"/>
      </g>
     </g>
    </g>
    <g id="ytick_3">
     <g id="line2d_9">
      <g>
       <use xlink:href="#m6156dacf87" x="180" y="275.955543" style="stroke: #000000; stroke-width: 0.8"/>
      </g>
     </g>
     <g id="text_9">
      <!-- 0 -->
      <g transform="translate(166.6375 279.754762) scale(0.1 -0.1)">
       <use xlink:href="#DejaVuSans-30"/>
      </g>
     </g>
    </g>
    <g id="ytick_4">
     <g id="line2d_10">
      <g>
       <use xlink:href="#m6156dacf87" x="180" y="189.994967" style="stroke: #000000; stroke-width: 0.8"/>
      </g>
     </g>
     <g id="text_10">
      <!-- 2 -->
      <g transform="translate(166.6375 193.794186) scale(0.1 -0.1)">
       <use xlink:href="#DejaVuSans-32"/>
      </g>
     </g>
    </g>
    <g id="ytick_5">
     <g id="line2d_11">
      <g>
       <use xlink:href="#m6156dacf87" x="180" y="104.034391" style="stroke: #000000; stroke-width: 0.8"/>
      </g>
     </g>
     <g id="text_11">
      <!-- 4 -->
      <g transform="translate(166.6375 107.83361) scale(0.1 -0.1)">
       <use xlink:href="#DejaVuSans-34"/>
      </g>
     </g>
    </g>
   </g>
   <g id="line2d_12">
    <path d="M 230.727273 315.730284 
L 231.719979 315.163182 
L 232.712685 314.371058 
L 233.70539 313.043629 
L 234.698096 311.514149 
L 236.683508 306.957955 
L 238.66892 301.530379 
L 240.654332 294.560612 
L 243.63245 283.229882 
L 244.625156 276.95351 
L 245.617862 275.343329 
L 246.610568 268.201102 
L 247.603273 230.840038 
L 248.595979 213.702741 
L 249.588685 225.477638 
L 250.581391 205.359148 
L 251.574097 176.34064 
L 252.566803 172.356524 
L 253.559509 170.926243 
L 254.552215 165.452199 
L 255.544921 190.628693 
L 257.530333 145.780863 
L 258.523039 156.843071 
L 259.515745 199.244864 
L 260.50845 197.936042 
L 261.501156 157.659909 
L 262.493862 148.916 
L 263.486568 181.377948 
L 264.479274 196.616451 
L 266.464686 141.671387 
L 267.457392 137.108065 
L 269.442804 209.911721 
L 271.428216 119.476807 
L 272.420922 111.044516 
L 273.413627 130.262754 
L 274.406333 160.199056 
L 275.399039 144.210754 
L 276.391745 113.371726 
L 277.384451 100.353597 
L 278.377157 103.587897 
L 279.369863 119.45419 
L 280.362569 131.585345 
L 281.355275 119.917968 
L 282.347981 118.930419 
L 284.333393 89.28 
L 285.326099 102.247029 
L 286.318804 134.293585 
L 287.31151 97.0081 
L 288.304216 96.29463 
L 289.296922 115.064365 
L 290.289628 121.64996 
L 291.282334 142.242999 
L 292.27504 171.64941 
L 293.267746 173.312982 
L 294.260452 232.566561 
L 295.253158 184.640459 
L 296.245864 192.565494 
L 297.23857 186.106162 
L 298.231276 216.835354 
L 300.216687 203.466774 
L 301.209393 195.400065 
L 302.202099 199.697256 
L 303.194805 229.914836 
L 304.187511 225.782054 
L 305.180217 268.201205 
L 306.172923 254.502587 
L 307.165629 275.359199 
L 308.158335 252.307893 
L 309.151041 277.844627 
L 310.143747 288.296871 
L 311.136453 286.798215 
L 312.129159 310.142209 
L 313.121864 290.514285 
L 314.11457 319.430951 
L 315.107276 302.981343 
L 316.099982 314.13608 
L 317.092688 318.194299 
L 318.085394 321.503726 
L 319.0781 312.777511 
L 320.070806 331.588604 
L 321.063512 313.376302 
L 322.056218 333.498291 
L 323.048924 324.99227 
L 324.04163 321.600985 
L 325.034336 329.117823 
L 326.027041 321.42926 
L 327.019747 328.746333 
L 328.012453 342.473162 
L 329.005159 321.537437 
L 329.997865 345.630867 
L 330.990571 325.186704 
L 331.983277 338.119367 
L 332.975983 325.736263 
L 333.968689 342.068058 
L 334.961395 331.038754 
L 335.954101 344.515617 
L 336.946807 343.695393 
L 337.939513 334.584681 
L 338.932218 334.026716 
L 339.924924 344.748212 
L 340.91763 333.28491 
L 341.910336 338.767908 
L 342.903042 349.399309 
L 343.895748 337.067713 
L 344.888454 345.201398 
L 345.88116 339.020293 
L 346.873866 342.326328 
L 347.866572 357.854245 
L 348.859278 360.091657 
L 349.851984 355.6004 
L 350.84469 344.087582 
L 351.837395 350.408446 
L 352.830101 353.344539 
L 353.822807 357.286317 
L 354.815513 358.708735 
L 355.808219 353.78453 
L 356.800925 377.126794 
L 357.793631 349.162983 
L 358.786337 348.322941 
L 359.779043 350.846446 
L 360.771749 351.985862 
L 361.764455 358.708423 
L 362.757161 351.486049 
L 363.749867 370.802674 
L 364.742572 379.248449 
L 365.735278 371.733432 
L 366.727984 359.149107 
L 367.72069 368.714229 
L 368.713396 376.540611 
L 369.706102 353.520138 
L 370.698808 359.273085 
L 371.691514 363.675705 
L 372.68422 382.161427 
L 373.676926 369.302457 
L 374.669632 368.251545 
L 375.662338 376.478883 
L 376.655044 361.758432 
L 377.64775 361.916336 
L 378.640455 361.290768 
L 379.633161 354.987155 
L 380.625867 382.666585 
L 381.618573 391.75321 
L 382.611279 363.604753 
L 383.603985 368.954867 
L 384.596691 355.846015 
L 385.589397 365.455716 
L 386.582103 392.813433 
L 387.574809 371.079542 
L 388.567515 360.953135 
L 389.560221 375.949292 
L 390.552927 370.736018 
L 391.545632 374.094202 
L 392.538338 370.59154 
L 393.531044 377.23266 
L 394.52375 398.519855 
L 395.516456 375.113997 
L 396.509162 377.699916 
L 397.501868 366.102334 
L 398.494574 369.725381 
L 399.48728 382.728956 
L 400.479986 382.548627 
L 401.472692 401.902573 
L 402.465398 364.065284 
L 403.458104 370.091269 
L 404.450809 371.373912 
L 405.443515 364.069953 
L 406.436221 382.65375 
L 407.428927 388.320361 
L 408.421633 374.375936 
L 409.414339 394.628007 
L 410.407045 373.8799 
L 411.399751 376.112659 
L 412.392457 380.839329 
L 413.385163 362.463794 
L 414.377869 378.89899 
L 415.370575 381.946664 
L 416.363281 381.465757 
L 417.355986 375.910612 
L 418.348692 369.185031 
L 419.341398 393.417324 
L 420.334104 389.679987 
L 421.32681 397.372017 
L 422.319516 386.761417 
L 423.312222 384.483065 
L 424.304928 383.096232 
L 425.297634 377.704502 
L 426.29034 387.763963 
L 427.283046 387.017358 
L 428.275752 384.691238 
L 429.268458 411.599465 
L 430.261163 366.9895 
L 431.253869 396.148599 
L 432.246575 389.221227 
L 434.231987 378.674136 
L 435.224693 403.339278 
L 436.217399 389.755473 
L 437.210105 395.45001 
L 438.202811 402.723701 
L 439.195517 381.452706 
L 440.188223 390.878332 
L 441.180929 401.403986 
L 442.173635 390.840833 
L 443.166341 395.708606 
L 444.159046 388.57803 
L 445.151752 393.665625 
L 446.144458 424.293281 
L 447.137164 384.024393 
L 448.12987 383.65665 
L 449.122576 388.615895 
L 450.115282 402.697546 
L 451.107988 418.368312 
L 452.100694 440.502761 
L 453.0934 380.325132 
L 454.086106 382.618855 
L 455.078812 406.47976 
L 456.071518 381.18815 
L 457.064223 384.160369 
L 459.049635 435.779493 
L 460.042341 373.156243 
L 461.035047 384.67423 
L 462.027753 432.484824 
L 463.020459 397.237035 
L 464.013165 409.616181 
L 465.005871 409.941066 
L 465.998577 410.769697 
L 466.991283 418.382946 
L 467.983989 399.102564 
L 468.976695 395.734081 
L 469.9694 376.844551 
L 470.962106 397.056928 
L 471.954812 389.659316 
L 472.947518 401.762232 
L 473.940224 421.641282 
L 474.93293 394.53936 
L 475.925636 379.513497 
L 476.918342 405.762044 
L 477.911048 400.074774 
L 478.903754 382.497569 
L 479.89646 431.203964 
L 480.889166 397.326825 
L 481.881872 428.947328 
L 482.874577 392.443021 
L 483.867283 412.060178 
L 484.859989 390.101262 
L 485.852695 393.132352 
L 486.845401 384.297812 
L 487.838107 379.701527 
L 488.830813 388.646428 
L 489.823519 451.953134 
L 490.816225 402.418988 
L 491.808931 412.09732 
L 492.801637 382.676503 
L 493.794343 451.461369 
L 494.787049 391.514893 
L 495.779754 400.256829 
L 496.77246 382.017623 
L 497.765166 492.48 
L 498.757872 395.188326 
L 499.750578 371.078326 
L 500.743284 401.151089 
L 501.73599 393.872504 
L 502.728696 390.277225 
L 503.721402 393.590253 
L 504.714108 463.320098 
L 505.706814 410.672558 
L 506.69952 401.422007 
L 507.692226 419.936774 
L 508.684932 388.508203 
L 509.677637 392.48062 
L 511.663049 409.097914 
L 512.655755 434.224893 
L 513.648461 418.14269 
L 514.641167 410.629614 
L 515.633873 416.302154 
L 516.626579 416.932117 
L 517.619285 388.50261 
L 518.611991 486.948291 
L 519.604697 439.218023 
L 520.597403 427.590987 
L 521.590109 418.861476 
L 522.582814 446.79513 
L 523.57552 398.611387 
L 524.568226 414.646425 
L 525.560932 395.511712 
L 526.553638 391.501751 
L 527.546344 382.084692 
L 528.53905 400.750935 
L 529.531756 405.054769 
L 530.524462 408.604425 
L 531.517168 378.067912 
L 532.509874 403.898319 
L 533.50258 400.568968 
L 534.495286 392.741055 
L 535.487991 400.940896 
L 536.480697 391.802206 
L 537.473403 392.256581 
L 538.466109 414.973256 
L 539.458815 443.695088 
L 540.451521 406.676614 
L 542.436933 447.808512 
L 543.429639 411.390751 
L 544.422345 388.453958 
L 545.415051 405.877874 
L 546.407757 385.486518 
L 547.400463 393.388418 
L 548.393168 408.231768 
L 549.385874 395.332758 
L 550.37858 385.358825 
L 551.371286 405.221778 
L 552.363992 388.976343 
L 553.356698 406.116756 
L 554.349404 406.802855 
L 555.34211 428.520053 
L 556.334816 421.726387 
L 557.327522 398.106487 
L 558.320228 424.430629 
L 559.312934 397.49355 
L 560.30564 453.005056 
L 561.298345 385.692505 
L 562.291051 400.018155 
L 563.283757 462.679408 
L 564.276463 448.684512 
L 565.269169 413.143923 
L 566.261875 396.477992 
L 567.254581 411.559031 
L 568.247287 417.604217 
L 569.239993 390.377192 
L 570.232699 418.015815 
L 571.225405 409.629221 
L 572.218111 423.892136 
L 573.210817 417.054154 
L 574.203523 399.003845 
L 575.196228 453.723622 
L 576.188934 443.517016 
L 577.18164 398.98324 
L 578.174346 421.674701 
L 579.167052 389.193436 
L 580.159758 383.028337 
L 581.152464 410.273164 
L 582.14517 420.584091 
L 583.137876 397.809894 
L 584.130582 457.520232 
L 585.123288 411.466552 
L 586.115994 410.188487 
L 587.1087 410.09189 
L 588.101405 429.245913 
L 589.094111 409.215566 
L 590.086817 430.77369 
L 591.079523 433.848678 
L 592.072229 408.436186 
L 593.064935 397.421516 
L 594.057641 423.150924 
L 595.050347 441.475327 
L 596.043053 414.631887 
L 597.035759 411.717228 
L 598.028465 435.248003 
L 599.021171 433.342176 
L 600.013877 426.688588 
L 601.999288 396.627569 
L 602.991994 443.650423 
L 603.9847 420.50835 
L 604.977406 406.671804 
L 605.970112 420.565448 
L 606.962818 424.330257 
L 607.955524 419.776124 
L 608.94823 432.415404 
L 609.940936 417.475604 
L 610.933642 479.627031 
L 611.926348 436.073429 
L 612.919054 411.561472 
L 613.911759 428.347093 
L 614.904465 404.049395 
L 615.897171 449.648568 
L 616.889877 434.571302 
L 617.882583 429.820826 
L 618.875289 418.353525 
L 619.867995 423.79641 
L 620.860701 418.688486 
L 621.853407 429.35346 
L 622.846113 438.493452 
L 623.838819 421.18042 
L 624.831525 422.653915 
L 625.824231 424.924147 
L 626.816936 437.571302 
L 628.802348 420.697645 
L 629.795054 413.524238 
L 630.78776 431.546757 
L 631.780466 413.754844 
L 632.773172 433.809821 
L 633.765878 448.921996 
L 634.758584 412.2573 
L 635.75129 429.799204 
L 636.743996 421.489761 
L 637.736702 414.559697 
L 638.729408 421.335631 
L 639.722114 425.541486 
L 640.714819 411.92795 
L 641.707525 417.067934 
L 642.700231 430.72148 
L 643.692937 426.156917 
L 644.685643 418.535446 
L 645.678349 425.17624 
L 646.671055 432.874455 
L 647.663761 429.235705 
L 648.656467 439.721909 
L 649.649173 437.967643 
L 650.641879 434.065556 
L 651.634585 433.812441 
L 652.627291 449.942011 
L 653.619996 430.905063 
L 654.612702 438.010189 
L 655.605408 450.317791 
L 656.598114 429.328856 
L 657.59082 426.936301 
L 658.583526 423.572976 
L 659.576232 426.473831 
L 660.568938 436.44939 
L 661.561644 440.607939 
L 662.55435 432.83939 
L 663.547056 443.721974 
L 664.539762 427.925531 
L 665.532468 428.625244 
L 666.525173 430.921217 
L 667.517879 420.761532 
L 668.510585 430.404542 
L 669.503291 431.745219 
L 670.495997 429.238676 
L 671.488703 431.449855 
L 672.481409 436.391105 
L 673.474115 429.921218 
L 674.466821 429.816422 
L 675.459527 432.947167 
L 676.452233 432.903156 
L 677.444939 449.050639 
L 678.437645 433.08791 
L 679.43035 427.998807 
L 680.423056 438.307543 
L 681.415762 436.260733 
L 682.408468 428.145278 
L 683.401174 436.026585 
L 684.39388 430.821694 
L 685.386586 437.048331 
L 686.379292 436.176601 
L 687.371998 434.499304 
L 688.364704 429.111928 
L 689.35741 437.551568 
L 690.350116 432.03708 
L 691.342822 430.615886 
L 692.335527 436.770834 
L 693.328233 439.55444 
L 694.320939 433.246153 
L 695.313645 430.7088 
L 696.306351 432.629172 
L 697.299057 433.576639 
L 698.291763 429.706971 
L 699.284469 433.191695 
L 700.277175 434.395402 
L 701.269881 441.380288 
L 702.262587 435.862252 
L 703.255293 439.757633 
L 704.247999 434.181661 
L 705.240705 430.763939 
L 706.23341 433.296231 
L 707.226116 435.208766 
L 708.218822 440.575069 
L 709.211528 434.91968 
L 710.204234 431.366288 
L 711.19694 435.704976 
L 712.189646 437.77511 
L 713.182352 431.320039 
L 714.175058 437.341492 
L 715.167764 434.091878 
L 716.16047 440.198345 
L 717.153176 434.761902 
L 718.145882 437.988289 
L 719.138587 437.508524 
L 720.131293 437.479614 
L 721.123999 433.382754 
L 722.116705 438.450999 
L 723.109411 438.012027 
L 724.102117 441.482106 
L 725.094823 442.182137 
L 726.087529 439.12681 
L 727.080235 435.537786 
L 728.072941 437.083471 
L 729.065647 435.155433 
L 730.058353 441.074084 
L 731.051059 435.693182 
L 732.043764 440.227465 
L 733.03647 441.063966 
L 734.029176 438.946303 
L 735.021882 435.059935 
L 736.014588 436.961149 
L 737.007294 441.806812 
L 738 434.082589 
L 738.992706 438.854416 
L 739.985412 438.572334 
L 740.978118 439.822287 
L 741.970824 443.446893 
L 742.96353 435.829767 
L 743.956236 437.619132 
L 744.948941 438.361685 
L 745.941647 439.402842 
L 746.934353 436.457175 
L 747.927059 439.875253 
L 748.919765 438.939348 
L 749.912471 439.392661 
L 750.905177 440.123927 
L 751.897883 441.475458 
L 752.890589 441.18034 
L 753.883295 438.735314 
L 754.876001 439.499288 
L 755.868707 438.836857 
L 756.861413 438.515087 
L 757.854118 438.635162 
L 758.846824 437.280324 
L 759.83953 438.162527 
L 760.832236 438.801735 
L 761.824942 441.055452 
L 762.817648 435.668687 
L 763.810354 438.217793 
L 764.80306 435.046328 
L 766.788472 440.882412 
L 767.781178 437.176571 
L 768.773884 438.23537 
L 769.76659 442.779107 
L 770.759295 437.798708 
L 771.752001 440.90335 
L 772.744707 443.244505 
L 773.737413 440.325264 
L 774.730119 439.227981 
L 775.722825 439.863996 
L 776.715531 436.176254 
L 777.708237 441.83567 
L 778.700943 439.142743 
L 779.693649 443.189278 
L 780.686355 436.332998 
L 781.679061 439.292337 
L 782.671767 442.860696 
L 783.664473 441.659947 
L 784.657178 439.666433 
L 785.649884 440.752486 
L 786.64259 442.804404 
L 787.635296 442.342342 
L 789.620708 438.96426 
L 790.613414 440.312017 
L 791.60612 441.299467 
L 792.598826 440.292784 
L 793.591532 440.200362 
L 794.584238 440.850333 
L 795.576944 445.121944 
L 796.56965 442.151577 
L 797.562355 445.068639 
L 798.555061 441.394192 
L 799.547767 443.891651 
L 800.540473 442.331779 
L 801.533179 441.478559 
L 802.525885 441.978253 
L 803.518591 440.873666 
L 804.511297 439.011011 
L 805.504003 442.699678 
L 806.496709 443.29302 
L 807.489415 441.477009 
L 808.482121 446.414734 
L 809.474827 440.703896 
L 810.467532 441.803543 
L 811.460238 441.862691 
L 812.452944 440.986647 
L 813.44565 442.898372 
L 814.438356 440.524227 
L 815.431062 440.401972 
L 816.423768 438.691434 
L 817.416474 443.54145 
L 818.40918 441.283044 
L 819.401886 446.330645 
L 820.394592 441.801694 
L 821.387298 442.44177 
L 822.380004 445.779584 
L 823.372709 442.745643 
L 824.365415 445.314526 
L 825.358121 445.591384 
L 826.350827 444.070414 
L 827.343533 442.070999 
L 828.336239 442.874307 
L 829.328945 442.315561 
L 830.321651 442.680639 
L 831.314357 441.393101 
L 832.307063 447.35886 
L 833.299769 443.809767 
L 834.292475 443.273463 
L 835.285181 443.931508 
L 836.277886 443.776343 
L 837.270592 445.266421 
L 838.263298 443.193745 
L 839.256004 446.978482 
L 840.24871 444.415587 
L 841.241416 442.881073 
L 842.234122 442.287196 
L 843.226828 444.785053 
L 844.219534 443.226594 
L 845.21224 443.01062 
L 846.204946 443.597939 
L 847.197652 444.451679 
L 848.190358 448.769317 
L 849.183064 447.430509 
L 850.175769 442.900467 
L 851.168475 444.186892 
L 852.161181 441.948976 
L 853.153887 443.390814 
L 854.146593 443.740452 
L 855.139299 442.388385 
L 856.132005 446.730725 
L 857.124711 442.047335 
L 858.117417 443.212591 
L 859.110123 442.545871 
L 860.102829 442.644313 
L 861.095535 446.888529 
L 862.088241 443.340724 
L 863.080946 444.640223 
L 864.073652 443.611726 
L 865.066358 444.813389 
L 866.059064 444.880889 
L 867.05177 442.669294 
L 868.044476 444.056399 
L 869.037182 449.497979 
L 870.029888 446.150674 
L 871.022594 447.203288 
L 872.0153 447.088772 
L 873.008006 443.944534 
L 874.000712 447.116429 
L 874.993418 447.390041 
L 875.986123 442.511952 
L 876.978829 447.502848 
L 877.971535 444.957403 
L 878.964241 447.510179 
L 879.956947 444.968422 
L 880.949653 444.214515 
L 881.942359 444.628051 
L 882.935065 446.046762 
L 883.927771 443.675033 
L 884.920477 446.253413 
L 885.913183 445.336279 
L 886.905889 445.96839 
L 887.898595 448.916133 
L 888.8913 444.659317 
L 889.884006 448.53736 
L 890.876712 447.643367 
L 891.869418 446.275734 
L 892.862124 449.056752 
L 893.85483 447.230804 
L 894.847536 446.239854 
L 895.840242 446.593872 
L 896.832948 447.382176 
L 897.825654 444.582727 
L 898.81836 444.730518 
L 899.811066 448.986815 
L 900.803772 445.110389 
L 901.796477 445.784196 
L 902.789183 446.20867 
L 903.781889 445.174163 
L 904.774595 443.431514 
L 905.767301 447.289484 
L 906.760007 447.18975 
L 907.752713 447.738165 
L 908.745419 445.408499 
L 909.738125 446.438059 
L 910.730831 448.987233 
L 911.723537 445.123543 
L 912.716243 448.781268 
L 913.708949 445.943142 
L 914.701655 448.169882 
L 915.69436 449.703702 
L 916.687066 446.83323 
L 917.679772 448.447904 
L 918.672478 446.025684 
L 920.65789 449.130378 
L 921.650596 445.816461 
L 922.643302 449.641721 
L 923.636008 448.288119 
L 924.628714 453.675579 
L 925.62142 444.696708 
L 926.614126 450.088287 
L 927.606832 448.105625 
L 929.592243 447.377971 
L 930.584949 448.690936 
L 931.577655 450.7165 
L 932.570361 449.987007 
L 933.563067 446.827464 
L 935.548479 446.84966 
L 936.541185 447.901074 
L 937.533891 449.947191 
L 938.526597 446.165691 
L 939.519303 445.84108 
L 940.512009 449.740782 
L 941.504714 450.838922 
L 942.49742 447.514555 
L 943.490126 446.440493 
L 944.482832 448.947361 
L 945.475538 449.752316 
L 946.468244 446.532159 
L 947.46095 448.664176 
L 948.453656 447.735746 
L 949.446362 447.193669 
L 950.439068 449.881726 
L 951.431774 447.923028 
L 952.42448 445.125003 
L 954.409891 446.516127 
L 955.402597 452.501644 
L 956.395303 450.515871 
L 957.388009 448.975763 
L 958.380715 448.01244 
L 959.373421 451.86309 
L 960.366127 450.137834 
L 961.358833 449.616418 
L 963.344245 445.710115 
L 964.336951 447.233753 
L 965.329657 449.797704 
L 966.322363 446.259468 
L 967.315068 449.782162 
L 968.307774 450.033809 
L 969.30048 451.303981 
L 970.293186 451.031889 
L 971.285892 449.316658 
L 972.278598 447.038636 
L 973.271304 448.733372 
L 974.26401 451.734569 
L 975.256716 449.125261 
L 976.249422 450.853701 
L 977.242128 445.096441 
L 978.234834 455.393879 
L 979.22754 448.432029 
L 980.220246 446.950659 
L 981.212951 447.038954 
L 982.205657 448.901164 
L 983.198363 447.16075 
L 984.191069 449.144502 
L 985.183775 448.243061 
L 986.176481 451.074458 
L 987.169187 445.881122 
L 988.161893 451.093777 
L 989.154599 448.188856 
L 990.147305 448.576682 
L 991.140011 450.75475 
L 992.132717 451.883884 
L 993.125423 449.091046 
L 994.118128 451.067966 
L 995.110834 449.565021 
L 996.10354 451.135164 
L 997.096246 452.223383 
L 998.088952 451.827391 
L 999.081658 451.069247 
L 1000.074364 450.812425 
L 1001.06707 449.214244 
L 1002.059776 449.210555 
L 1003.052482 448.732096 
L 1004.045188 450.974535 
L 1005.037894 449.858292 
L 1006.0306 453.109794 
L 1007.023305 447.222405 
L 1008.016011 449.865328 
L 1009.008717 449.304259 
L 1010.001423 447.737501 
L 1010.994129 451.335711 
L 1011.986835 447.290703 
L 1012.979541 449.104698 
L 1013.972247 450.262004 
L 1014.964953 449.72679 
L 1015.957659 452.197024 
L 1016.950365 451.866305 
L 1017.943071 452.320377 
L 1018.935777 450.389885 
L 1020.921188 453.599822 
L 1021.913894 448.625047 
L 1022.9066 453.166811 
L 1023.899306 448.71581 
L 1024.892012 451.843151 
L 1025.884718 449.891874 
L 1026.877424 451.388677 
L 1027.87013 450.008436 
L 1028.862836 447.240409 
L 1029.855542 452.944019 
L 1030.848248 449.349211 
L 1031.840954 450.760415 
L 1032.833659 450.085066 
L 1033.826365 451.369286 
L 1034.819071 452.085681 
L 1035.811777 449.99746 
L 1036.804483 451.556091 
L 1037.797189 450.488441 
L 1038.789895 448.330333 
L 1039.782601 450.328639 
L 1040.775307 453.961378 
L 1041.768013 452.941934 
L 1042.760719 449.572259 
L 1043.753425 453.519127 
L 1044.746131 452.341313 
L 1045.738837 450.346044 
L 1046.731542 448.885798 
L 1047.724248 451.088033 
L 1048.716954 454.905234 
L 1049.70966 449.907519 
L 1050.702366 452.709756 
L 1051.695072 453.152861 
L 1052.687778 447.471957 
L 1053.680484 453.581799 
L 1054.67319 453.889671 
L 1055.665896 453.718936 
L 1056.658602 454.348647 
L 1057.651308 455.331647 
L 1058.644014 454.09138 
L 1059.636719 451.653484 
L 1060.629425 450.336678 
L 1061.622131 451.328759 
L 1062.614837 450.021006 
L 1063.607543 452.79907 
L 1064.600249 451.707453 
L 1065.592955 453.030326 
L 1066.585661 450.419327 
L 1067.578367 454.473841 
L 1068.571073 452.117612 
L 1069.563779 450.556113 
L 1070.556485 454.17311 
L 1071.549191 453.81973 
L 1072.541896 448.595006 
L 1073.534602 456.035452 
L 1074.527308 450.488167 
L 1075.520014 451.020441 
L 1076.51272 452.958668 
L 1077.505426 451.520478 
L 1078.498132 451.704032 
L 1079.490838 451.667395 
L 1080.483544 451.465902 
L 1081.47625 445.389465 
L 1082.468956 449.734512 
L 1083.461662 455.303583 
L 1084.454368 452.419915 
L 1085.447073 451.917096 
L 1086.439779 452.493475 
L 1087.432485 451.208614 
L 1088.425191 450.245802 
L 1089.417897 448.524526 
L 1090.410603 456.766356 
L 1091.403309 455.177492 
L 1092.396015 451.167982 
L 1093.388721 453.439178 
L 1094.381427 449.967828 
L 1095.374133 452.605402 
L 1096.366839 453.164983 
L 1098.35225 452.864135 
L 1099.344956 453.471603 
L 1100.337662 453.662116 
L 1101.330368 452.315798 
L 1102.323074 449.523071 
L 1103.31578 450.822239 
L 1104.308486 455.935587 
L 1105.301192 450.597113 
L 1107.286604 452.712457 
L 1108.27931 453.125803 
L 1109.272016 455.930289 
L 1110.264722 450.848305 
L 1111.257428 451.723443 
L 1112.250133 454.045044 
L 1113.242839 454.074197 
L 1114.235545 451.990026 
L 1115.228251 447.990836 
L 1116.220957 447.984061 
L 1117.213663 452.379461 
L 1118.206369 451.543269 
L 1119.199075 451.004351 
L 1120.191781 454.202678 
L 1121.184487 448.160261 
L 1122.177193 453.475218 
L 1123.169899 452.327261 
L 1124.162605 454.989698 
L 1125.15531 451.220419 
L 1126.148016 454.247027 
L 1127.140722 451.397393 
L 1128.133428 458.472887 
L 1129.126134 455.075946 
L 1130.11884 450.833394 
L 1131.111546 453.022406 
L 1132.104252 450.863416 
L 1133.096958 452.793465 
L 1134.089664 450.398986 
L 1135.08237 452.002293 
L 1136.075076 457.746026 
L 1137.067782 454.205649 
L 1138.060487 451.289502 
L 1139.053193 456.144636 
L 1140.045899 450.628879 
L 1141.038605 450.859727 
L 1142.031311 453.052462 
L 1143.024017 449.91139 
L 1144.016723 451.336705 
L 1145.009429 450.964578 
L 1146.002135 453.861732 
L 1146.994841 452.360828 
L 1147.987547 452.076916 
L 1148.980253 455.312526 
L 1149.972959 454.129309 
L 1150.965664 455.603533 
L 1151.95837 453.311865 
L 1152.951076 457.925379 
L 1153.943782 450.537418 
L 1154.936488 449.368576 
L 1155.929194 454.222605 
L 1156.9219 451.976492 
L 1157.914606 455.549769 
L 1158.907312 453.254845 
L 1159.900018 453.560679 
L 1160.892724 454.671336 
L 1161.88543 453.393814 
L 1162.878136 453.785175 
L 1163.870841 451.166045 
L 1164.863547 453.135168 
L 1165.856253 454.653379 
L 1166.848959 452.969 
L 1167.841665 455.112515 
L 1168.834371 458.669278 
L 1169.827077 456.787556 
L 1170.819783 456.828445 
L 1171.812489 452.74044 
L 1172.805195 454.015433 
L 1173.797901 453.118613 
L 1174.790607 456.773321 
L 1175.783313 455.251752 
L 1176.776019 448.594811 
L 1177.768724 453.696312 
L 1178.76143 456.715224 
L 1179.754136 451.854765 
L 1180.746842 452.350758 
L 1181.739548 455.150404 
L 1182.732254 456.67647 
L 1183.72496 452.55378 
L 1184.717666 456.268009 
L 1185.710372 452.489573 
L 1186.703078 448.233052 
L 1187.695784 453.059196 
L 1188.68849 456.066905 
L 1189.681196 449.916668 
L 1190.673901 455.313858 
L 1191.666607 457.060368 
L 1192.659313 453.967105 
L 1193.652019 450.274065 
L 1195.637431 456.452918 
L 1196.630137 452.667138 
L 1197.622843 451.087108 
L 1198.615549 454.120598 
L 1199.608255 456.342498 
L 1200.600961 451.839108 
L 1201.593667 455.542912 
L 1202.586373 454.45554 
L 1203.579078 454.430242 
L 1204.571784 459.318923 
L 1205.56449 451.968938 
L 1206.557196 455.099107 
L 1207.549902 452.76633 
L 1208.542608 455.558349 
L 1209.535314 451.312655 
L 1210.52802 452.055285 
L 1211.520726 453.432564 
L 1212.513432 453.5857 
L 1213.506138 451.681969 
L 1214.498844 453.76931 
L 1215.49155 450.967251 
L 1216.484255 454.267909 
L 1217.476961 455.66341 
L 1218.469667 447.717866 
L 1219.462373 455.595904 
L 1220.455079 457.476032 
L 1221.447785 454.125018 
L 1222.440491 454.667744 
L 1223.433197 454.827518 
L 1224.425903 451.344499 
L 1225.418609 453.146357 
L 1226.411315 453.379425 
L 1227.404021 455.178736 
L 1228.396727 454.889719 
L 1229.389432 455.390556 
L 1230.382138 453.735949 
L 1231.374844 452.692377 
L 1232.36755 455.337869 
L 1233.360256 455.475724 
L 1234.352962 451.270889 
L 1235.345668 454.021184 
L 1236.338374 454.269804 
L 1237.33108 456.252533 
L 1238.323786 456.428361 
L 1239.316492 456.254224 
L 1240.309198 454.714907 
L 1241.301904 456.19596 
L 1242.29461 453.871492 
L 1243.287315 451.041775 
L 1244.280021 454.238713 
L 1245.272727 451.558485 
L 1245.272727 451.558485 
" clip-path="url(#pc7b456025b)" style="fill: none; stroke: #1f77b4; stroke-width: 1.5; stroke-linecap: square"/>
   </g>
   <g id="patch_3">
    <path d="M 180 512.64 
L 180 69.12 
" style="fill: none; stroke: #000000; stroke-width: 0.8; stroke-linejoin: miter; stroke-linecap: square"/>
   </g>
   <g id="patch_4">
    <path d="M 1296 512.64 
L 1296 69.12 
" style="fill: none; stroke: #000000; stroke-width: 0.8; stroke-linejoin: miter; stroke-linecap: square"/>
   </g>
   <g id="patch_5">
    <path d="M 180 512.64 
L 1296 512.64 
" style="fill: none; stroke: #000000; stroke-width: 0.8; stroke-linejoin: miter; stroke-linecap: square"/>
   </g>
   <g id="patch_6">
    <path d="M 180 69.12 
L 1296 69.12 
" style="fill: none; stroke: #000000; stroke-width: 0.8; stroke-linejoin: miter; stroke-linecap: square"/>
   </g>
   <g id="text_12">
    <!-- source20-receiver14 -->
    <g transform="translate(532.175 60.80125) scale(0.4 -0.4)">
     <defs>
      <path id="DejaVuSans-73" d="M 2834 3397 
L 2834 2853 
Q 2591 2978 2328 3040 
Q 2066 3103 1784 3103 
Q 1356 3103 1142 2972 
Q 928 2841 928 2578 
Q 928 2378 1081 2264 
Q 1234 2150 1697 2047 
L 1894 2003 
Q 2506 1872 2764 1633 
Q 3022 1394 3022 966 
Q 3022 478 2636 193 
Q 2250 -91 1575 -91 
Q 1294 -91 989 -36 
Q 684 19 347 128 
L 347 722 
Q 666 556 975 473 
Q 1284 391 1588 391 
Q 1994 391 2212 530 
Q 2431 669 2431 922 
Q 2431 1156 2273 1281 
Q 2116 1406 1581 1522 
L 1381 1569 
Q 847 1681 609 1914 
Q 372 2147 372 2553 
Q 372 3047 722 3315 
Q 1072 3584 1716 3584 
Q 2034 3584 2315 3537 
Q 2597 3491 2834 3397 
z
" transform="scale(0.015625)"/>
      <path id="DejaVuSans-6f" d="M 1959 3097 
Q 1497 3097 1228 2736 
Q 959 2375 959 1747 
Q 959 1119 1226 758 
Q 1494 397 1959 397 
Q 2419 397 2687 759 
Q 2956 1122 2956 1747 
Q 2956 2369 2687 2733 
Q 2419 3097 1959 3097 
z
M 1959 3584 
Q 2709 3584 3137 3096 
Q 3566 2609 3566 1747 
Q 3566 888 3137 398 
Q 2709 -91 1959 -91 
Q 1206 -91 779 398 
Q 353 888 353 1747 
Q 353 2609 779 3096 
Q 1206 3584 1959 3584 
z
" transform="scale(0.015625)"/>
      <path id="DejaVuSans-75" d="M 544 1381 
L 544 3500 
L 1119 3500 
L 1119 1403 
Q 1119 906 1312 657 
Q 1506 409 1894 409 
Q 2359 409 2629 706 
Q 2900 1003 2900 1516 
L 2900 3500 
L 3475 3500 
L 3475 0 
L 2900 0 
L 2900 538 
Q 2691 219 2414 64 
Q 2138 -91 1772 -91 
Q 1169 -91 856 284 
Q 544 659 544 1381 
z
M 1991 3584 
L 1991 3584 
z
" transform="scale(0.015625)"/>
      <path id="DejaVuSans-72" d="M 2631 2963 
Q 2534 3019 2420 3045 
Q 2306 3072 2169 3072 
Q 1681 3072 1420 2755 
Q 1159 2438 1159 1844 
L 1159 0 
L 581 0 
L 581 3500 
L 1159 3500 
L 1159 2956 
Q 1341 3275 1631 3429 
Q 1922 3584 2338 3584 
Q 2397 3584 2469 3576 
Q 2541 3569 2628 3553 
L 2631 2963 
z
" transform="scale(0.015625)"/>
      <path id="DejaVuSans-63" d="M 3122 3366 
L 3122 2828 
Q 2878 2963 2633 3030 
Q 2388 3097 2138 3097 
Q 1578 3097 1268 2742 
Q 959 2388 959 1747 
Q 959 1106 1268 751 
Q 1578 397 2138 397 
Q 2388 397 2633 464 
Q 2878 531 3122 666 
L 3122 134 
Q 2881 22 2623 -34 
Q 2366 -91 2075 -91 
Q 1284 -91 818 406 
Q 353 903 353 1747 
Q 353 2603 823 3093 
Q 1294 3584 2113 3584 
Q 2378 3584 2631 3529 
Q 2884 3475 3122 3366 
z
" transform="scale(0.015625)"/>
      <path id="DejaVuSans-65" d="M 3597 1894 
L 3597 1613 
L 953 1613 
Q 991 1019 1311 708 
Q 1631 397 2203 397 
Q 2534 397 2845 478 
Q 3156 559 3463 722 
L 3463 178 
Q 3153 47 2828 -22 
Q 2503 -91 2169 -91 
Q 1331 -91 842 396 
Q 353 884 353 1716 
Q 353 2575 817 3079 
Q 1281 3584 2069 3584 
Q 2775 3584 3186 3129 
Q 3597 2675 3597 1894 
z
M 3022 2063 
Q 3016 2534 2758 2815 
Q 2500 3097 2075 3097 
Q 1594 3097 1305 2825 
Q 1016 2553 972 2059 
L 3022 2063 
z
" transform="scale(0.015625)"/>
      <path id="DejaVuSans-2d" d="M 313 2009 
L 1997 2009 
L 1997 1497 
L 313 1497 
L 313 2009 
z
" transform="scale(0.015625)"/>
      <path id="DejaVuSans-69" d="M 603 3500 
L 1178 3500 
L 1178 0 
L 603 0 
L 603 3500 
z
M 603 4863 
L 1178 4863 
L 1178 4134 
L 603 4134 
L 603 4863 
z
" transform="scale(0.015625)"/>
      <path id="DejaVuSans-76" d="M 191 3500 
L 800 3500 
L 1894 563 
L 2988 3500 
L 3597 3500 
L 2284 0 
L 1503 0 
L 191 3500 
z
" transform="scale(0.015625)"/>
     </defs>
     <use xlink:href="#DejaVuSans-73"/>
     <use xlink:href="#DejaVuSans-6f" x="52.099609"/>
     <use xlink:href="#DejaVuSans-75" x="113.28125"/>
     <use xlink:href="#DejaVuSans-72" x="176.660156"/>
     <use xlink:href="#DejaVuSans-63" x="215.523438"/>
     <use xlink:href="#DejaVuSans-65" x="270.503906"/>
     <use xlink:href="#DejaVuSans-32" x="332.027344"/>
     <use xlink:href="#DejaVuSans-30" x="395.650391"/>
     <use xlink:href="#DejaVuSans-2d" x="459.273438"/>
     <use xlink:href="#DejaVuSans-72" x="495.357422"/>
     <use xlink:href="#DejaVuSans-65" x="534.220703"/>
     <use xlink:href="#DejaVuSans-63" x="595.744141"/>
     <use xlink:href="#DejaVuSans-65" x="650.724609"/>
     <use xlink:href="#DejaVuSans-69" x="712.248047"/>
     <use xlink:href="#DejaVuSans-76" x="740.03125"/>
     <use xlink:href="#DejaVuSans-65" x="799.210938"/>
     <use xlink:href="#DejaVuSans-72" x="860.734375"/>
     <use xlink:href="#DejaVuSans-31" x="901.847656"/>
     <use xlink:href="#DejaVuSans-34" x="965.470703"/>
    </g>
   </g>
  </g>
 </g>
 <defs>
  <clipPath id="pc7b456025b">
   <rect x="180" y="69.12" width="1116" height="443.52"/>
  </clipPath>
 </defs>
</svg>
