<?xml version="1.0" encoding="utf-8" standalone="no"?>
<!DOCTYPE svg PUBLIC "-//W3C//DTD SVG 1.1//EN"
  "http://www.w3.org/Graphics/SVG/1.1/DTD/svg11.dtd">
<svg xmlns:xlink="http://www.w3.org/1999/xlink" width="1440pt" height="576pt" viewBox="0 0 1440 576" xmlns="http://www.w3.org/2000/svg" version="1.1">
 <metadata>
  <rdf:RDF xmlns:dc="http://purl.org/dc/elements/1.1/" xmlns:cc="http://creativecommons.org/ns#" xmlns:rdf="http://www.w3.org/1999/02/22-rdf-syntax-ns#">
   <cc:Work>
    <dc:type rdf:resource="http://purl.org/dc/dcmitype/StillImage"/>
    <dc:date>2024-05-22T04:50:18.494658</dc:date>
    <dc:format>image/svg+xml</dc:format>
    <dc:creator>
     <cc:Agent>
      <dc:title>Matplotlib v3.8.3, https://matplotlib.org/</dc:title>
     </cc:Agent>
    </dc:creator>
   </cc:Work>
  </rdf:RDF>
 </metadata>
 <defs>
  <style type="text/css">*{stroke-linejoin: round; stroke-linecap: butt}</style>
 </defs>
 <g id="figure_1">
  <g id="patch_1">
   <path d="M 0 576 
L 1440 576 
L 1440 0 
L 0 0 
z
" style="fill: #ffffff"/>
  </g>
  <g id="axes_1">
   <g id="patch_2">
    <path d="M 180 512.64 
L 1296 512.64 
L 1296 69.12 
L 180 69.12 
z
" style="fill: #ffffff"/>
   </g>
   <g id="matplotlib.axis_1">
    <g id="xtick_1">
     <g id="line2d_1">
      <defs>
       <path id="m009796fa3f" d="M 0 0 
L 0 3.5 
" style="stroke: #000000; stroke-width: 0.8"/>
      </defs>
      <g>
       <use xlink:href="#m009796fa3f" x="229.734567" y="512.64" style="stroke: #000000; stroke-width: 0.8"/>
      </g>
     </g>
     <g id="text_1">
      <!-- 0 -->
      <g transform="translate(226.553317 527.238438) scale(0.1 -0.1)">
       <defs>
        <path id="DejaVuSans-30" d="M 2034 4250 
Q 1547 4250 1301 3770 
Q 1056 3291 1056 2328 
Q 1056 1369 1301 889 
Q 1547 409 2034 409 
Q 2525 409 2770 889 
Q 3016 1369 3016 2328 
Q 3016 3291 2770 3770 
Q 2525 4250 2034 4250 
z
M 2034 4750 
Q 2819 4750 3233 4129 
Q 3647 3509 3647 2328 
Q 3647 1150 3233 529 
Q 2819 -91 2034 -91 
Q 1250 -91 836 529 
Q 422 1150 422 2328 
Q 422 3509 836 4129 
Q 1250 4750 2034 4750 
z
" transform="scale(0.015625)"/>
       </defs>
       <use xlink:href="#DejaVuSans-30"/>
      </g>
     </g>
    </g>
    <g id="xtick_2">
     <g id="line2d_2">
      <g>
       <use xlink:href="#m009796fa3f" x="433.04074" y="512.64" style="stroke: #000000; stroke-width: 0.8"/>
      </g>
     </g>
     <g id="text_2">
      <!-- 500 -->
      <g transform="translate(423.49699 527.238438) scale(0.1 -0.1)">
       <defs>
        <path id="DejaVuSans-35" d="M 691 4666 
L 3169 4666 
L 3169 4134 
L 1269 4134 
L 1269 2991 
Q 1406 3038 1543 3061 
Q 1681 3084 1819 3084 
Q 2600 3084 3056 2656 
Q 3513 2228 3513 1497 
Q 3513 744 3044 326 
Q 2575 -91 1722 -91 
Q 1428 -91 1123 -41 
Q 819 9 494 109 
L 494 744 
Q 775 591 1075 516 
Q 1375 441 1709 441 
Q 2250 441 2565 725 
Q 2881 1009 2881 1497 
Q 2881 1984 2565 2268 
Q 2250 2553 1709 2553 
Q 1456 2553 1204 2497 
Q 953 2441 691 2322 
L 691 4666 
z
" transform="scale(0.015625)"/>
       </defs>
       <use xlink:href="#DejaVuSans-35"/>
       <use xlink:href="#DejaVuSans-30" x="63.623047"/>
       <use xlink:href="#DejaVuSans-30" x="127.246094"/>
      </g>
     </g>
    </g>
    <g id="xtick_3">
     <g id="line2d_3">
      <g>
       <use xlink:href="#m009796fa3f" x="636.346913" y="512.64" style="stroke: #000000; stroke-width: 0.8"/>
      </g>
     </g>
     <g id="text_3">
      <!-- 1000 -->
      <g transform="translate(623.621913 527.238438) scale(0.1 -0.1)">
       <defs>
        <path id="DejaVuSans-31" d="M 794 531 
L 1825 531 
L 1825 4091 
L 703 3866 
L 703 4441 
L 1819 4666 
L 2450 4666 
L 2450 531 
L 3481 531 
L 3481 0 
L 794 0 
L 794 531 
z
" transform="scale(0.015625)"/>
       </defs>
       <use xlink:href="#DejaVuSans-31"/>
       <use xlink:href="#DejaVuSans-30" x="63.623047"/>
       <use xlink:href="#DejaVuSans-30" x="127.246094"/>
       <use xlink:href="#DejaVuSans-30" x="190.869141"/>
      </g>
     </g>
    </g>
    <g id="xtick_4">
     <g id="line2d_4">
      <g>
       <use xlink:href="#m009796fa3f" x="839.653087" y="512.64" style="stroke: #000000; stroke-width: 0.8"/>
      </g>
     </g>
     <g id="text_4">
      <!-- 1500 -->
      <g transform="translate(826.928087 527.238438) scale(0.1 -0.1)">
       <use xlink:href="#DejaVuSans-31"/>
       <use xlink:href="#DejaVuSans-35" x="63.623047"/>
       <use xlink:href="#DejaVuSans-30" x="127.246094"/>
       <use xlink:href="#DejaVuSans-30" x="190.869141"/>
      </g>
     </g>
    </g>
    <g id="xtick_5">
     <g id="line2d_5">
      <g>
       <use xlink:href="#m009796fa3f" x="1042.95926" y="512.64" style="stroke: #000000; stroke-width: 0.8"/>
      </g>
     </g>
     <g id="text_5">
      <!-- 2000 -->
      <g transform="translate(1030.23426 527.238438) scale(0.1 -0.1)">
       <defs>
        <path id="DejaVuSans-32" d="M 1228 531 
L 3431 531 
L 3431 0 
L 469 0 
L 469 531 
Q 828 903 1448 1529 
Q 2069 2156 2228 2338 
Q 2531 2678 2651 2914 
Q 2772 3150 2772 3378 
Q 2772 3750 2511 3984 
Q 2250 4219 1831 4219 
Q 1534 4219 1204 4116 
Q 875 4013 500 3803 
L 500 4441 
Q 881 4594 1212 4672 
Q 1544 4750 1819 4750 
Q 2544 4750 2975 4387 
Q 3406 4025 3406 3419 
Q 3406 3131 3298 2873 
Q 3191 2616 2906 2266 
Q 2828 2175 2409 1742 
Q 1991 1309 1228 531 
z
" transform="scale(0.015625)"/>
       </defs>
       <use xlink:href="#DejaVuSans-32"/>
       <use xlink:href="#DejaVuSans-30" x="63.623047"/>
       <use xlink:href="#DejaVuSans-30" x="127.246094"/>
       <use xlink:href="#DejaVuSans-30" x="190.869141"/>
      </g>
     </g>
    </g>
    <g id="xtick_6">
     <g id="line2d_6">
      <g>
       <use xlink:href="#m009796fa3f" x="1246.265433" y="512.64" style="stroke: #000000; stroke-width: 0.8"/>
      </g>
     </g>
     <g id="text_6">
      <!-- 2500 -->
      <g transform="translate(1233.540433 527.238438) scale(0.1 -0.1)">
       <use xlink:href="#DejaVuSans-32"/>
       <use xlink:href="#DejaVuSans-35" x="63.623047"/>
       <use xlink:href="#DejaVuSans-30" x="127.246094"/>
       <use xlink:href="#DejaVuSans-30" x="190.869141"/>
      </g>
     </g>
    </g>
   </g>
   <g id="matplotlib.axis_2">
    <g id="ytick_1">
     <g id="line2d_7">
      <defs>
       <path id="maf7109a0cc" d="M 0 0 
L -3.5 0 
" style="stroke: #000000; stroke-width: 0.8"/>
      </defs>
      <g>
       <use xlink:href="#maf7109a0cc" x="180" y="475.233682" style="stroke: #000000; stroke-width: 0.8"/>
      </g>
     </g>
     <g id="text_7">
      <!-- −4 -->
      <g transform="translate(158.257812 479.032901) scale(0.1 -0.1)">
       <defs>
        <path id="DejaVuSans-2212" d="M 678 2272 
L 4684 2272 
L 4684 1741 
L 678 1741 
L 678 2272 
z
" transform="scale(0.015625)"/>
        <path id="DejaVuSans-34" d="M 2419 4116 
L 825 1625 
L 2419 1625 
L 2419 4116 
z
M 2253 4666 
L 3047 4666 
L 3047 1625 
L 3713 1625 
L 3713 1100 
L 3047 1100 
L 3047 0 
L 2419 0 
L 2419 1100 
L 313 1100 
L 313 1709 
L 2253 4666 
z
" transform="scale(0.015625)"/>
       </defs>
       <use xlink:href="#DejaVuSans-2212"/>
       <use xlink:href="#DejaVuSans-34" x="83.789062"/>
      </g>
     </g>
    </g>
    <g id="ytick_2">
     <g id="line2d_8">
      <g>
       <use xlink:href="#maf7109a0cc" x="180" y="396.742005" style="stroke: #000000; stroke-width: 0.8"/>
      </g>
     </g>
     <g id="text_8">
      <!-- −2 -->
      <g transform="translate(158.257812 400.541223) scale(0.1 -0.1)">
       <use xlink:href="#DejaVuSans-2212"/>
       <use xlink:href="#DejaVuSans-32" x="83.789062"/>
      </g>
     </g>
    </g>
    <g id="ytick_3">
     <g id="line2d_9">
      <g>
       <use xlink:href="#maf7109a0cc" x="180" y="318.250327" style="stroke: #000000; stroke-width: 0.8"/>
      </g>
     </g>
     <g id="text_9">
      <!-- 0 -->
      <g transform="translate(166.6375 322.049546) scale(0.1 -0.1)">
       <use xlink:href="#DejaVuSans-30"/>
      </g>
     </g>
    </g>
    <g id="ytick_4">
     <g id="line2d_10">
      <g>
       <use xlink:href="#maf7109a0cc" x="180" y="239.75865" style="stroke: #000000; stroke-width: 0.8"/>
      </g>
     </g>
     <g id="text_10">
      <!-- 2 -->
      <g transform="translate(166.6375 243.557868) scale(0.1 -0.1)">
       <use xlink:href="#DejaVuSans-32"/>
      </g>
     </g>
    </g>
    <g id="ytick_5">
     <g id="line2d_11">
      <g>
       <use xlink:href="#maf7109a0cc" x="180" y="161.266972" style="stroke: #000000; stroke-width: 0.8"/>
      </g>
     </g>
     <g id="text_11">
      <!-- 4 -->
      <g transform="translate(166.6375 165.066191) scale(0.1 -0.1)">
       <use xlink:href="#DejaVuSans-34"/>
      </g>
     </g>
    </g>
    <g id="ytick_6">
     <g id="line2d_12">
      <g>
       <use xlink:href="#maf7109a0cc" x="180" y="82.775295" style="stroke: #000000; stroke-width: 0.8"/>
      </g>
     </g>
     <g id="text_12">
      <!-- 6 -->
      <g transform="translate(166.6375 86.574514) scale(0.1 -0.1)">
       <defs>
        <path id="DejaVuSans-36" d="M 2113 2584 
Q 1688 2584 1439 2293 
Q 1191 2003 1191 1497 
Q 1191 994 1439 701 
Q 1688 409 2113 409 
Q 2538 409 2786 701 
Q 3034 994 3034 1497 
Q 3034 2003 2786 2293 
Q 2538 2584 2113 2584 
z
M 3366 4563 
L 3366 3988 
Q 3128 4100 2886 4159 
Q 2644 4219 2406 4219 
Q 1781 4219 1451 3797 
Q 1122 3375 1075 2522 
Q 1259 2794 1537 2939 
Q 1816 3084 2150 3084 
Q 2853 3084 3261 2657 
Q 3669 2231 3669 1497 
Q 3669 778 3244 343 
Q 2819 -91 2113 -91 
Q 1303 -91 875 529 
Q 447 1150 447 2328 
Q 447 3434 972 4092 
Q 1497 4750 2381 4750 
Q 2619 4750 2861 4703 
Q 3103 4656 3366 4563 
z
" transform="scale(0.015625)"/>
       </defs>
       <use xlink:href="#DejaVuSans-36"/>
      </g>
     </g>
    </g>
   </g>
   <g id="line2d_13">
    <path d="M 230.727273 291.368458 
L 231.719979 327.854174 
L 232.712685 270.756724 
L 233.70539 274.927598 
L 234.698096 261.685086 
L 235.690802 255.821931 
L 236.683508 264.935226 
L 237.676214 252.033805 
L 238.66892 290.046186 
L 239.661626 262.019771 
L 240.654332 328.415628 
L 241.647038 286.742104 
L 242.639744 281.558597 
L 243.63245 314.059721 
L 244.625156 270.294014 
L 245.617862 313.232659 
L 246.610568 270.944452 
L 248.595979 225.761517 
L 249.588685 218.666664 
L 250.581391 206.554268 
L 251.574097 207.660098 
L 252.566803 240.272732 
L 253.559509 178.004153 
L 254.552215 166.375051 
L 255.544921 184.519396 
L 256.537627 253.161658 
L 257.530333 198.568016 
L 259.515745 235.990441 
L 260.50845 214.484178 
L 261.501156 211.117554 
L 262.493862 216.419095 
L 263.486568 172.341612 
L 264.479274 151.24014 
L 265.47198 175.235862 
L 266.464686 134.11727 
L 267.457392 142.286933 
L 268.450098 163.133577 
L 269.442804 175.25758 
L 270.43551 151.566009 
L 271.428216 155.089764 
L 272.420922 204.786845 
L 273.413627 178.228972 
L 274.406333 180.536077 
L 275.399039 173.845095 
L 276.391745 153.50476 
L 277.384451 154.410467 
L 278.377157 147.706309 
L 279.369863 157.710151 
L 280.362569 106.79951 
L 281.355275 89.28 
L 282.347981 112.19111 
L 283.340687 90.01093 
L 284.333393 93.573726 
L 285.326099 146.10611 
L 286.318804 177.455039 
L 287.31151 127.123871 
L 288.304216 132.264345 
L 289.296922 157.027334 
L 290.289628 159.314114 
L 291.282334 118.472311 
L 292.27504 129.997143 
L 293.267746 149.407437 
L 294.260452 157.011846 
L 295.253158 129.701386 
L 297.23857 152.877316 
L 298.231276 192.973834 
L 300.216687 179.683266 
L 301.209393 180.522887 
L 302.202099 176.056171 
L 303.194805 200.767472 
L 304.187511 194.026557 
L 305.180217 218.194779 
L 306.172923 209.102671 
L 307.165629 310.271075 
L 308.158335 215.227395 
L 309.151041 236.14866 
L 310.143747 210.56978 
L 311.136453 226.201002 
L 312.129159 232.227306 
L 313.121864 245.439808 
L 314.11457 250.25708 
L 315.107276 289.392436 
L 316.099982 240.118516 
L 317.092688 290.739226 
L 318.085394 243.731163 
L 319.0781 266.536033 
L 320.070806 232.928402 
L 321.063512 267.555824 
L 322.056218 235.160041 
L 323.048924 298.533851 
L 324.04163 252.312589 
L 325.034336 273.760328 
L 326.027041 266.129956 
L 327.019747 270.652677 
L 328.012453 268.397726 
L 329.005159 275.289961 
L 329.997865 271.333608 
L 330.990571 292.574177 
L 331.983277 253.553463 
L 332.975983 284.964005 
L 333.968689 239.171687 
L 334.961395 251.778592 
L 335.954101 245.264466 
L 337.939513 262.769129 
L 338.932218 265.506261 
L 339.924924 277.284084 
L 340.91763 286.530859 
L 341.910336 266.468085 
L 342.903042 309.728107 
L 343.895748 257.966849 
L 344.888454 277.306226 
L 345.88116 264.080195 
L 346.873866 265.4517 
L 347.866572 269.250601 
L 348.859278 255.02385 
L 349.851984 291.021803 
L 350.84469 258.558649 
L 351.837395 288.142278 
L 352.830101 290.769887 
L 353.822807 248.313219 
L 354.815513 273.388824 
L 355.808219 236.939626 
L 356.800925 255.672732 
L 357.793631 230.659631 
L 358.786337 244.51533 
L 359.779043 233.694436 
L 360.771749 231.468212 
L 361.764455 233.075336 
L 362.757161 212.390286 
L 363.749867 214.82545 
L 364.742572 203.496812 
L 366.727984 218.761933 
L 367.72069 233.688976 
L 368.713396 246.115579 
L 369.706102 213.881642 
L 370.698808 196.343859 
L 371.691514 194.058991 
L 372.68422 188.270489 
L 373.676926 197.492128 
L 374.669632 200.190052 
L 375.662338 215.369901 
L 376.655044 225.98835 
L 377.64775 226.992293 
L 378.640455 237.204421 
L 379.633161 217.661683 
L 380.625867 213.502778 
L 381.618573 193.150947 
L 382.611279 186.410916 
L 383.603985 176.98261 
L 384.596691 173.772692 
L 385.589397 175.065814 
L 386.582103 176.655452 
L 388.567515 203.937708 
L 389.560221 210.265992 
L 390.552927 200.662131 
L 391.545632 188.345098 
L 392.538338 185.31579 
L 393.531044 197.604095 
L 394.52375 215.495352 
L 395.516456 264.297774 
L 396.509162 229.47991 
L 397.501868 210.901475 
L 398.494574 215.834579 
L 399.48728 219.522069 
L 400.479986 212.553187 
L 401.472692 198.200395 
L 402.465398 197.172465 
L 403.458104 206.221834 
L 404.450809 221.845713 
L 405.443515 247.646837 
L 406.436221 229.984538 
L 407.428927 217.045555 
L 408.421633 234.733227 
L 409.414339 244.574102 
L 410.407045 250.183832 
L 411.399751 223.717531 
L 412.392457 223.310816 
L 413.385163 219.97286 
L 414.377869 237.911791 
L 415.370575 234.570207 
L 416.363281 249.865043 
L 417.355986 237.933027 
L 418.348692 253.195704 
L 419.341398 249.013577 
L 420.334104 247.424266 
L 421.32681 265.725268 
L 422.319516 255.688091 
L 423.312222 270.000051 
L 424.304928 242.922699 
L 425.297634 247.375597 
L 426.29034 233.613064 
L 427.283046 249.406275 
L 428.275752 245.284146 
L 429.268458 268.680998 
L 430.261163 263.906972 
L 431.253869 278.304017 
L 432.246575 290.422656 
L 433.239281 269.527075 
L 434.231987 285.953535 
L 435.224693 261.304537 
L 436.217399 264.703671 
L 437.210105 272.301641 
L 438.202811 275.937305 
L 439.195517 297.722386 
L 440.188223 312.584585 
L 441.180929 272.675035 
L 442.173635 277.912589 
L 443.166341 253.672378 
L 444.159046 255.626764 
L 445.151752 253.164567 
L 446.144458 248.952628 
L 447.137164 260.57704 
L 448.12987 243.662934 
L 449.122576 251.907825 
L 450.115282 239.132187 
L 451.107988 242.188502 
L 452.100694 242.228254 
L 453.0934 244.716326 
L 454.086106 264.509785 
L 455.078812 262.335777 
L 456.071518 296.471627 
L 458.056929 276.400531 
L 459.049635 308.217091 
L 460.042341 280.518852 
L 461.035047 345.549941 
L 462.027753 301.419785 
L 463.020459 287.770925 
L 464.013165 298.659779 
L 465.005871 261.214944 
L 465.998577 270.756872 
L 466.991283 248.336553 
L 467.983989 256.749488 
L 468.976695 249.946289 
L 469.9694 250.146155 
L 470.962106 254.175203 
L 471.954812 233.974704 
L 472.947518 230.854413 
L 473.940224 222.975302 
L 474.93293 220.804811 
L 475.925636 226.871505 
L 476.918342 227.183795 
L 477.911048 245.404492 
L 478.903754 249.690035 
L 479.89646 265.463811 
L 480.889166 290.676082 
L 481.881872 278.576533 
L 482.874577 313.808983 
L 483.867283 332.585897 
L 484.859989 286.537197 
L 485.852695 254.385545 
L 486.845401 253.108307 
L 487.838107 236.43458 
L 488.830813 235.662071 
L 489.823519 240.389454 
L 490.816225 241.222624 
L 491.808931 265.782567 
L 492.801637 270.99923 
L 493.794343 243.869877 
L 495.779754 233.25256 
L 496.77246 232.442411 
L 497.765166 249.010387 
L 498.757872 252.62048 
L 499.750578 254.227106 
L 500.743284 261.109223 
L 501.73599 249.208143 
L 502.728696 262.935247 
L 503.721402 265.633234 
L 504.714108 267.109794 
L 505.706814 250.427983 
L 506.69952 245.745632 
L 507.692226 251.606437 
L 508.684932 253.141188 
L 509.677637 280.690165 
L 510.670343 277.188038 
L 511.663049 252.419938 
L 512.655755 259.944336 
L 513.648461 262.566621 
L 514.641167 281.166026 
L 515.633873 308.128757 
L 516.626579 278.993966 
L 517.619285 258.416058 
L 518.611991 270.287271 
L 519.604697 257.189682 
L 520.597403 267.168205 
L 521.590109 251.646929 
L 522.582814 267.549999 
L 523.57552 267.863436 
L 524.568226 298.911745 
L 525.560932 355.471877 
L 526.553638 290.919825 
L 527.546344 296.4864 
L 529.531756 379.844022 
L 530.524462 278.414901 
L 531.517168 291.236019 
L 532.509874 276.034766 
L 533.50258 303.348724 
L 534.495286 286.311179 
L 535.487991 306.682951 
L 536.480697 292.240355 
L 537.473403 303.600017 
L 538.466109 382.568706 
L 539.458815 298.434269 
L 540.451521 296.01756 
L 541.444227 334.159371 
L 542.436933 323.032948 
L 543.429639 302.45204 
L 544.422345 312.805464 
L 545.415051 282.230879 
L 546.407757 293.273965 
L 547.400463 290.652277 
L 548.393168 295.705317 
L 549.385874 294.299939 
L 550.37858 291.014556 
L 551.371286 324.461854 
L 552.363992 292.240433 
L 553.356698 294.722402 
L 554.349404 282.733455 
L 555.34211 266.985154 
L 556.334816 271.183694 
L 557.327522 255.916253 
L 558.320228 267.138362 
L 559.312934 258.157536 
L 560.30564 280.622413 
L 561.298345 288.425895 
L 562.291051 311.09497 
L 563.283757 330.553273 
L 564.276463 306.925991 
L 565.269169 299.714198 
L 566.261875 343.695245 
L 568.247287 317.530484 
L 569.239993 334.40878 
L 570.232699 334.915938 
L 571.225405 317.912692 
L 572.218111 288.655364 
L 573.210817 278.700235 
L 574.203523 256.989897 
L 575.196228 259.445123 
L 576.188934 248.160624 
L 577.18164 255.717072 
L 578.174346 254.730817 
L 579.167052 255.787665 
L 580.159758 268.577746 
L 581.152464 262.958272 
L 582.14517 287.015024 
L 583.137876 296.882935 
L 584.130582 344.79769 
L 585.123288 293.446511 
L 586.115994 291.193336 
L 587.1087 263.919006 
L 588.101405 272.808033 
L 589.094111 268.396891 
L 590.086817 274.550195 
L 591.079523 299.064141 
L 592.072229 281.267528 
L 593.064935 280.501212 
L 594.057641 294.728196 
L 595.050347 279.446332 
L 596.043053 280.640515 
L 597.035759 282.827301 
L 598.028465 258.855679 
L 599.021171 253.401226 
L 600.013877 255.596955 
L 601.006582 250.591658 
L 601.999288 265.004486 
L 602.991994 270.498926 
L 603.9847 262.33436 
L 604.977406 270.844105 
L 605.970112 266.597541 
L 606.962818 278.574481 
L 607.955524 297.552804 
L 608.94823 295.791942 
L 609.940936 278.623791 
L 610.933642 278.106951 
L 611.926348 305.372759 
L 612.919054 314.989942 
L 613.911759 283.916363 
L 614.904465 280.516753 
L 615.897171 263.068233 
L 616.889877 274.478764 
L 617.882583 296.399497 
L 619.867995 266.723735 
L 620.860701 258.375107 
L 621.853407 247.244167 
L 622.846113 256.798482 
L 623.838819 257.030894 
L 625.824231 297.548592 
L 626.816936 306.781379 
L 627.809642 384.706934 
L 628.802348 310.91144 
L 629.795054 315.904278 
L 630.78776 291.118088 
L 631.780466 282.883476 
L 632.773172 291.666156 
L 633.765878 282.711601 
L 634.758584 325.036224 
L 635.75129 340.361885 
L 636.743996 299.477779 
L 637.736702 296.655664 
L 638.729408 296.119376 
L 639.722114 286.679153 
L 640.714819 329.94354 
L 641.707525 319.454962 
L 642.700231 320.924318 
L 643.692937 355.046548 
L 644.685643 331.276936 
L 645.678349 350.469463 
L 646.671055 320.998818 
L 647.663761 335.023167 
L 648.656467 325.952501 
L 649.649173 311.193674 
L 650.641879 338.058886 
L 651.634585 321.909199 
L 652.627291 294.681154 
L 653.619996 316.63692 
L 654.612702 298.356434 
L 655.605408 302.047151 
L 656.598114 327.537156 
L 657.59082 305.88697 
L 658.583526 320.134094 
L 659.576232 283.903547 
L 660.568938 291.991231 
L 661.561644 273.651964 
L 662.55435 278.1126 
L 663.547056 285.159553 
L 664.539762 277.341795 
L 665.532468 298.299547 
L 666.525173 292.076483 
L 667.517879 300.296178 
L 668.510585 337.885655 
L 669.503291 323.783335 
L 670.495997 343.798489 
L 671.488703 329.456201 
L 672.481409 338.168594 
L 673.474115 309.609815 
L 674.466821 345.601981 
L 675.459527 297.729387 
L 676.452233 298.225717 
L 677.444939 294.070369 
L 678.437645 280.458047 
L 679.43035 298.721905 
L 680.423056 286.747784 
L 681.415762 286.680317 
L 682.408468 297.394023 
L 683.401174 278.091571 
L 685.386586 296.785657 
L 686.379292 289.738236 
L 687.371998 300.749458 
L 688.364704 288.367302 
L 689.35741 272.385812 
L 690.350116 282.116365 
L 691.342822 272.424402 
L 693.328233 289.740527 
L 694.320939 273.85762 
L 695.313645 279.38432 
L 696.306351 275.385342 
L 697.299057 278.315826 
L 698.291763 316.12856 
L 699.284469 325.279813 
L 700.277175 298.766193 
L 701.269881 297.066622 
L 702.262587 283.203597 
L 703.255293 279.388025 
L 704.247999 296.05657 
L 705.240705 281.028683 
L 706.23341 280.712603 
L 707.226116 289.005094 
L 708.218822 281.557763 
L 709.211528 317.985052 
L 710.204234 332.664428 
L 711.19694 327.127574 
L 712.189646 303.794557 
L 713.182352 310.901398 
L 714.175058 290.269813 
L 715.167764 321.463853 
L 716.16047 309.331268 
L 717.153176 353.241858 
L 718.145882 309.018192 
L 719.138587 314.170086 
L 721.123999 284.143639 
L 722.116705 290.162158 
L 723.109411 270.586625 
L 724.102117 266.025341 
L 725.094823 267.223486 
L 726.087529 260.705908 
L 727.080235 275.278668 
L 728.072941 278.620652 
L 729.065647 286.918774 
L 730.058353 311.679753 
L 731.051059 293.364662 
L 732.043764 306.687198 
L 733.03647 309.870536 
L 734.029176 313.472048 
L 735.021882 306.100015 
L 736.014588 301.853709 
L 737.007294 317.231121 
L 738 314.334645 
L 738.992706 352.889412 
L 739.985412 347.27731 
L 740.978118 312.486589 
L 741.970824 308.423686 
L 742.96353 330.573135 
L 743.956236 310.613246 
L 744.948941 335.429447 
L 745.941647 341.427508 
L 746.934353 307.363404 
L 747.927059 337.768274 
L 748.919765 318.84055 
L 749.912471 324.761478 
L 750.905177 460.764039 
L 751.897883 323.841813 
L 752.890589 317.359937 
L 753.883295 321.630811 
L 754.876001 298.080832 
L 755.868707 318.50849 
L 756.861413 293.980079 
L 757.854118 316.213452 
L 758.846824 304.063227 
L 759.83953 307.843256 
L 760.832236 326.303652 
L 761.824942 299.969586 
L 762.817648 324.840515 
L 763.810354 297.902601 
L 764.80306 312.549055 
L 765.795766 300.910467 
L 766.788472 306.312455 
L 767.781178 327.359831 
L 768.773884 311.906027 
L 769.76659 329.54011 
L 770.759295 322.484146 
L 771.752001 300.593206 
L 772.744707 332.498938 
L 773.737413 318.302705 
L 774.730119 311.104998 
L 775.722825 322.783431 
L 776.715531 294.716044 
L 777.708237 289.079703 
L 778.700943 299.083554 
L 779.693649 287.879968 
L 780.686355 313.02088 
L 781.679061 309.146655 
L 782.671767 309.493663 
L 783.664473 349.928131 
L 784.657178 313.802184 
L 785.649884 314.316634 
L 786.64259 342.28149 
L 787.635296 308.939204 
L 788.628002 322.589522 
L 789.620708 333.596757 
L 790.613414 302.898496 
L 791.60612 313.778303 
L 793.591532 295.26597 
L 794.584238 319.970554 
L 795.576944 301.848854 
L 796.56965 297.869407 
L 797.562355 305.817057 
L 798.555061 283.589317 
L 799.547767 291.408176 
L 800.540473 291.353338 
L 801.533179 292.070512 
L 802.525885 325.180964 
L 803.518591 309.248594 
L 804.511297 312.81808 
L 805.504003 340.505426 
L 806.496709 312.622271 
L 807.489415 343.328665 
L 808.482121 382.548451 
L 809.474827 327.262491 
L 811.460238 345.196027 
L 812.452944 352.187969 
L 813.44565 322.997267 
L 814.438356 320.618094 
L 815.431062 303.897542 
L 816.423768 294.14833 
L 817.416474 309.429277 
L 818.40918 294.278242 
L 819.401886 320.177037 
L 820.394592 315.112448 
L 821.387298 329.184881 
L 822.380004 333.693002 
L 823.372709 321.345144 
L 824.365415 325.073011 
L 825.358121 297.155446 
L 826.350827 309.558599 
L 827.343533 291.064192 
L 828.336239 290.880403 
L 829.328945 302.081731 
L 830.321651 292.26097 
L 831.314357 317.214617 
L 832.307063 320.292205 
L 833.299769 303.934904 
L 834.292475 322.937754 
L 835.285181 305.645991 
L 836.277886 313.161338 
L 837.270592 331.96234 
L 838.263298 326.580424 
L 839.256004 356.286384 
L 840.24871 335.893502 
L 841.241416 374.997448 
L 842.234122 360.48097 
L 843.226828 330.125776 
L 844.219534 371.653476 
L 845.21224 326.512765 
L 846.204946 332.269553 
L 847.197652 492.48 
L 848.190358 331.15806 
L 849.183064 314.109319 
L 850.175769 331.768658 
L 851.168475 301.189867 
L 852.161181 316.450152 
L 853.153887 318.731304 
L 854.146593 311.915392 
L 855.139299 356.861789 
L 856.132005 322.120394 
L 857.124711 325.808043 
L 858.117417 343.401526 
L 859.110123 319.361216 
L 860.102829 360.573803 
L 861.095535 315.295418 
L 862.088241 348.939823 
L 863.080946 325.172787 
L 864.073652 321.808627 
L 865.066358 362.34101 
L 866.059064 320.083721 
L 867.05177 377.931153 
L 868.044476 333.871291 
L 869.037182 416.352397 
L 870.029888 318.147313 
L 871.022594 353.602252 
L 872.0153 332.557288 
L 873.008006 348.32758 
L 874.000712 343.987764 
L 874.993418 350.319169 
L 875.986123 316.509489 
L 876.978829 352.384735 
L 877.971535 347.422043 
L 878.964241 304.143255 
L 879.956947 308.339597 
L 880.949653 293.098953 
L 881.942359 294.156258 
L 882.935065 310.487696 
L 883.927771 308.15634 
L 884.920477 403.350664 
L 885.913183 353.550961 
L 886.905889 327.785058 
L 887.898595 363.169625 
L 888.8913 312.610774 
L 889.884006 332.150288 
L 890.876712 328.652596 
L 891.869418 330.742712 
L 892.862124 360.127404 
L 893.85483 334.907837 
L 894.847536 312.546991 
L 895.840242 354.148283 
L 896.832948 327.749697 
L 897.825654 344.669425 
L 898.81836 351.48941 
L 899.811066 324.96778 
L 900.803772 309.690221 
L 901.796477 338.264964 
L 902.789183 313.341415 
L 903.781889 339.836606 
L 904.774595 346.717654 
L 905.767301 325.834211 
L 906.760007 386.494802 
L 907.752713 330.962481 
L 908.745419 342.379767 
L 909.738125 370.461841 
L 910.730831 331.428005 
L 911.723537 352.412598 
L 912.716243 339.039137 
L 913.708949 323.724792 
L 914.701655 369.052606 
L 915.69436 322.569501 
L 916.687066 374.916046 
L 917.679772 323.151553 
L 918.672478 333.843769 
L 919.665184 325.833031 
L 920.65789 309.965198 
L 921.650596 335.875703 
L 922.643302 309.907882 
L 923.636008 337.076303 
L 924.628714 342.756099 
L 925.62142 346.033953 
L 926.614126 356.743971 
L 927.606832 360.889754 
L 928.599537 367.199594 
L 929.592243 318.582853 
L 930.584949 332.678313 
L 931.577655 307.952429 
L 932.570361 307.569766 
L 933.563067 329.122002 
L 934.555773 316.802353 
L 936.541185 383.66773 
L 937.533891 322.042378 
L 938.526597 339.339215 
L 939.519303 347.628821 
L 940.512009 336.008853 
L 942.49742 363.039201 
L 943.490126 321.902298 
L 944.482832 377.085731 
L 945.475538 336.489587 
L 946.468244 382.384502 
L 947.46095 337.184177 
L 948.453656 428.228601 
L 949.446362 334.263146 
L 950.439068 357.48404 
L 951.431774 365.73095 
L 952.42448 349.770856 
L 953.417186 313.108241 
L 954.409891 329.268774 
L 955.402597 302.825985 
L 956.395303 306.894416 
L 957.388009 318.6134 
L 958.380715 304.10835 
L 959.373421 327.024374 
L 960.366127 321.998298 
L 961.358833 316.173971 
L 962.351539 369.848311 
L 963.344245 330.147909 
L 964.336951 375.761818 
L 965.329657 346.241222 
L 966.322363 369.751574 
L 967.315068 359.116014 
L 968.307774 342.390003 
L 969.30048 367.541694 
L 970.293186 343.007853 
L 971.285892 326.39741 
L 972.278598 379.157251 
L 973.271304 325.94601 
L 974.26401 347.84028 
L 975.256716 353.506917 
L 976.249422 341.825618 
L 977.242128 381.679361 
L 978.234834 350.303907 
L 979.22754 366.653063 
L 980.220246 360.644508 
L 981.212951 333.556237 
L 982.205657 372.556507 
L 983.198363 314.453702 
L 984.191069 327.144176 
L 985.183775 318.083763 
L 986.176481 314.411362 
L 987.169187 354.067912 
L 988.161893 321.833299 
L 989.154599 328.909529 
L 990.147305 344.964619 
L 991.140011 316.918678 
L 992.132717 366.410638 
L 993.125423 334.150527 
L 994.118128 382.383266 
L 995.110834 342.086696 
L 996.10354 419.098748 
L 997.096246 342.416614 
L 998.088952 369.123803 
L 999.081658 360.389075 
L 1000.074364 359.031579 
L 1001.06707 346.566863 
L 1002.059776 366.361216 
L 1003.052482 359.841709 
L 1004.045188 345.476642 
L 1005.037894 337.062241 
L 1006.0306 373.434832 
L 1007.023305 333.911764 
L 1008.016011 345.670178 
L 1009.008717 372.202281 
L 1010.001423 321.097125 
L 1010.994129 341.648814 
L 1011.986835 344.012349 
L 1012.979541 327.041561 
L 1013.972247 360.362475 
L 1014.964953 338.200186 
L 1015.957659 333.92156 
L 1016.950365 370.298678 
L 1017.943071 340.911315 
L 1018.935777 365.040747 
L 1019.928482 328.794812 
L 1020.921188 387.864362 
L 1021.913894 330.517697 
L 1022.9066 331.85072 
L 1023.899306 352.26243 
L 1024.892012 319.40359 
L 1025.884718 365.419979 
L 1026.877424 325.875919 
L 1027.87013 358.885921 
L 1028.862836 340.49573 
L 1029.855542 348.048835 
L 1030.848248 369.56077 
L 1031.840954 337.197681 
L 1032.833659 426.820983 
L 1033.826365 324.979914 
L 1034.819071 345.171073 
L 1035.811777 320.79496 
L 1036.804483 323.277361 
L 1037.797189 349.096071 
L 1038.789895 330.974389 
L 1039.782601 352.537665 
L 1040.775307 393.575471 
L 1041.768013 325.810536 
L 1042.760719 341.105193 
L 1043.753425 361.727843 
L 1044.746131 329.122967 
L 1045.738837 341.171615 
L 1046.731542 347.896484 
L 1047.724248 326.15402 
L 1048.716954 408.093099 
L 1049.70966 359.331151 
L 1050.702366 353.1565 
L 1051.695072 334.022243 
L 1052.687778 366.523567 
L 1053.680484 326.884317 
L 1054.67319 403.191961 
L 1055.665896 345.517417 
L 1056.658602 396.863837 
L 1057.651308 325.513181 
L 1058.644014 354.841406 
L 1059.636719 322.716684 
L 1060.629425 323.415789 
L 1061.622131 351.109133 
L 1062.614837 316.537448 
L 1063.607543 329.152344 
L 1064.600249 330.023634 
L 1065.592955 316.398447 
L 1066.585661 364.011509 
L 1067.578367 334.830976 
L 1068.571073 339.933273 
L 1069.563779 405.580227 
L 1070.556485 334.541665 
L 1071.549191 334.467144 
L 1072.541896 354.01686 
L 1073.534602 329.011525 
L 1074.527308 394.465397 
L 1075.520014 330.468135 
L 1076.51272 391.533814 
L 1077.505426 336.722702 
L 1078.498132 347.628169 
L 1079.490838 387.572008 
L 1080.483544 336.092388 
L 1081.47625 359.300623 
L 1082.468956 348.022549 
L 1083.461662 343.539749 
L 1084.454368 365.837499 
L 1085.447073 339.317702 
L 1086.439779 419.02783 
L 1087.432485 334.190842 
L 1088.425191 339.286966 
L 1089.417897 347.117207 
L 1090.410603 311.540918 
L 1091.403309 327.733533 
L 1092.396015 315.083033 
L 1093.388721 311.776024 
L 1094.381427 341.039318 
L 1095.374133 315.661474 
L 1096.366839 328.546018 
L 1097.359545 347.358953 
L 1098.35225 331.749497 
L 1099.344956 382.320105 
L 1100.337662 368.08856 
L 1101.330368 340.088395 
L 1102.323074 423.411989 
L 1103.31578 329.715272 
L 1104.308486 357.303115 
L 1105.301192 333.576906 
L 1106.293898 341.346144 
L 1107.286604 384.630209 
L 1108.27931 349.4006 
L 1109.272016 348.341818 
L 1110.264722 398.158671 
L 1111.257428 346.571075 
L 1112.250133 355.864008 
L 1113.242839 388.062192 
L 1114.235545 332.448407 
L 1115.228251 329.363172 
L 1116.220957 337.566502 
L 1117.213663 319.147223 
L 1118.206369 369.321288 
L 1119.199075 329.887827 
L 1120.191781 352.779496 
L 1121.184487 368.87955 
L 1122.177193 341.028423 
L 1123.169899 384.948533 
L 1124.162605 352.351345 
L 1125.15531 356.434699 
L 1126.148016 370.518248 
L 1127.140722 349.939543 
L 1128.133428 394.393371 
L 1129.126134 342.445054 
L 1130.11884 380.3866 
L 1131.111546 352.504128 
L 1132.104252 354.407837 
L 1133.096958 372.084339 
L 1134.089664 369.078356 
L 1135.08237 349.440799 
L 1137.067782 369.229565 
L 1138.060487 327.66546 
L 1139.053193 358.43642 
L 1140.045899 327.843566 
L 1141.038605 331.778217 
L 1142.031311 375.073372 
L 1143.024017 341.766936 
L 1144.016723 350.393466 
L 1145.009429 470.616403 
L 1146.002135 332.438376 
L 1146.994841 341.303491 
L 1147.987547 358.210885 
L 1148.980253 332.904742 
L 1149.972959 374.520764 
L 1151.95837 343.802669 
L 1152.951076 378.080141 
L 1153.943782 372.676157 
L 1154.936488 344.915171 
L 1155.929194 347.932773 
L 1156.9219 347.193754 
L 1157.914606 324.6388 
L 1158.907312 367.978351 
L 1159.900018 325.880275 
L 1160.892724 379.22282 
L 1161.88543 322.586868 
L 1162.878136 357.381865 
L 1163.870841 328.728424 
L 1164.863547 333.400201 
L 1165.856253 377.708259 
L 1166.848959 321.430528 
L 1167.841665 326.109791 
L 1168.834371 335.906114 
L 1169.827077 324.207181 
L 1170.819783 386.518446 
L 1171.812489 382.08983 
L 1172.805195 327.715317 
L 1173.797901 343.42188 
L 1174.790607 328.145256 
L 1175.783313 328.710894 
L 1176.776019 361.684625 
L 1177.768724 335.612865 
L 1178.76143 403.106316 
L 1179.754136 349.831314 
L 1180.746842 343.826349 
L 1181.739548 393.775376 
L 1182.732254 329.950579 
L 1183.72496 358.09582 
L 1184.717666 347.468687 
L 1185.710372 338.865381 
L 1186.703078 388.677394 
L 1187.695784 358.531277 
L 1188.68849 336.183286 
L 1189.681196 387.962694 
L 1190.673901 343.403362 
L 1191.666607 348.351188 
L 1192.659313 378.855901 
L 1193.652019 373.660629 
L 1194.644725 332.444554 
L 1195.637431 357.90054 
L 1196.630137 336.01483 
L 1197.622843 322.007567 
L 1198.615549 351.722539 
L 1199.608255 317.780151 
L 1200.600961 322.945245 
L 1201.593667 343.234083 
L 1202.586373 323.495894 
L 1203.579078 349.9965 
L 1204.571784 348.462182 
L 1205.56449 320.552007 
L 1206.557196 356.135363 
L 1207.549902 321.78016 
L 1208.542608 350.683556 
L 1209.535314 340.150079 
L 1210.52802 346.7192 
L 1211.520726 412.444512 
L 1212.513432 335.933893 
L 1213.506138 327.363052 
L 1214.498844 337.780605 
L 1215.49155 319.39124 
L 1216.484255 396.871011 
L 1217.476961 372.790857 
L 1218.469667 328.405096 
L 1219.462373 330.124729 
L 1220.455079 319.998078 
L 1221.447785 315.438063 
L 1222.440491 358.715892 
L 1223.433197 335.669657 
L 1224.425903 354.611359 
L 1225.418609 410.91917 
L 1226.411315 338.840751 
L 1227.404021 433.872759 
L 1228.396727 333.996184 
L 1229.389432 381.546827 
L 1230.382138 329.742559 
L 1231.374844 350.602211 
L 1232.36755 359.08564 
L 1233.360256 350.187925 
L 1234.352962 361.398305 
L 1235.345668 387.592623 
L 1236.338374 350.192477 
L 1237.33108 353.375824 
L 1238.323786 418.75706 
L 1239.316492 340.253034 
L 1240.309198 341.471906 
L 1241.301904 365.414977 
L 1242.29461 328.856436 
L 1243.287315 369.90329 
L 1244.280021 344.246192 
L 1245.272727 339.424437 
L 1245.272727 339.424437 
" clip-path="url(#p8f0963ef14)" style="fill: none; stroke: #1f77b4; stroke-width: 1.5; stroke-linecap: square"/>
   </g>
   <g id="patch_3">
    <path d="M 180 512.64 
L 180 69.12 
" style="fill: none; stroke: #000000; stroke-width: 0.8; stroke-linejoin: miter; stroke-linecap: square"/>
   </g>
   <g id="patch_4">
    <path d="M 1296 512.64 
L 1296 69.12 
" style="fill: none; stroke: #000000; stroke-width: 0.8; stroke-linejoin: miter; stroke-linecap: square"/>
   </g>
   <g id="patch_5">
    <path d="M 180 512.64 
L 1296 512.64 
" style="fill: none; stroke: #000000; stroke-width: 0.8; stroke-linejoin: miter; stroke-linecap: square"/>
   </g>
   <g id="patch_6">
    <path d="M 180 69.12 
L 1296 69.12 
" style="fill: none; stroke: #000000; stroke-width: 0.8; stroke-linejoin: miter; stroke-linecap: square"/>
   </g>
   <g id="text_13">
    <!-- source20-receiver18 -->
    <g transform="translate(532.175 60.80125) scale(0.4 -0.4)">
     <defs>
      <path id="DejaVuSans-73" d="M 2834 3397 
L 2834 2853 
Q 2591 2978 2328 3040 
Q 2066 3103 1784 3103 
Q 1356 3103 1142 2972 
Q 928 2841 928 2578 
Q 928 2378 1081 2264 
Q 1234 2150 1697 2047 
L 1894 2003 
Q 2506 1872 2764 1633 
Q 3022 1394 3022 966 
Q 3022 478 2636 193 
Q 2250 -91 1575 -91 
Q 1294 -91 989 -36 
Q 684 19 347 128 
L 347 722 
Q 666 556 975 473 
Q 1284 391 1588 391 
Q 1994 391 2212 530 
Q 2431 669 2431 922 
Q 2431 1156 2273 1281 
Q 2116 1406 1581 1522 
L 1381 1569 
Q 847 1681 609 1914 
Q 372 2147 372 2553 
Q 372 3047 722 3315 
Q 1072 3584 1716 3584 
Q 2034 3584 2315 3537 
Q 2597 3491 2834 3397 
z
" transform="scale(0.015625)"/>
      <path id="DejaVuSans-6f" d="M 1959 3097 
Q 1497 3097 1228 2736 
Q 959 2375 959 1747 
Q 959 1119 1226 758 
Q 1494 397 1959 397 
Q 2419 397 2687 759 
Q 2956 1122 2956 1747 
Q 2956 2369 2687 2733 
Q 2419 3097 1959 3097 
z
M 1959 3584 
Q 2709 3584 3137 3096 
Q 3566 2609 3566 1747 
Q 3566 888 3137 398 
Q 2709 -91 1959 -91 
Q 1206 -91 779 398 
Q 353 888 353 1747 
Q 353 2609 779 3096 
Q 1206 3584 1959 3584 
z
" transform="scale(0.015625)"/>
      <path id="DejaVuSans-75" d="M 544 1381 
L 544 3500 
L 1119 3500 
L 1119 1403 
Q 1119 906 1312 657 
Q 1506 409 1894 409 
Q 2359 409 2629 706 
Q 2900 1003 2900 1516 
L 2900 3500 
L 3475 3500 
L 3475 0 
L 2900 0 
L 2900 538 
Q 2691 219 2414 64 
Q 2138 -91 1772 -91 
Q 1169 -91 856 284 
Q 544 659 544 1381 
z
M 1991 3584 
L 1991 3584 
z
" transform="scale(0.015625)"/>
      <path id="DejaVuSans-72" d="M 2631 2963 
Q 2534 3019 2420 3045 
Q 2306 3072 2169 3072 
Q 1681 3072 1420 2755 
Q 1159 2438 1159 1844 
L 1159 0 
L 581 0 
L 581 3500 
L 1159 3500 
L 1159 2956 
Q 1341 3275 1631 3429 
Q 1922 3584 2338 3584 
Q 2397 3584 2469 3576 
Q 2541 3569 2628 3553 
L 2631 2963 
z
" transform="scale(0.015625)"/>
      <path id="DejaVuSans-63" d="M 3122 3366 
L 3122 2828 
Q 2878 2963 2633 3030 
Q 2388 3097 2138 3097 
Q 1578 3097 1268 2742 
Q 959 2388 959 1747 
Q 959 1106 1268 751 
Q 1578 397 2138 397 
Q 2388 397 2633 464 
Q 2878 531 3122 666 
L 3122 134 
Q 2881 22 2623 -34 
Q 2366 -91 2075 -91 
Q 1284 -91 818 406 
Q 353 903 353 1747 
Q 353 2603 823 3093 
Q 1294 3584 2113 3584 
Q 2378 3584 2631 3529 
Q 2884 3475 3122 3366 
z
" transform="scale(0.015625)"/>
      <path id="DejaVuSans-65" d="M 3597 1894 
L 3597 1613 
L 953 1613 
Q 991 1019 1311 708 
Q 1631 397 2203 397 
Q 2534 397 2845 478 
Q 3156 559 3463 722 
L 3463 178 
Q 3153 47 2828 -22 
Q 2503 -91 2169 -91 
Q 1331 -91 842 396 
Q 353 884 353 1716 
Q 353 2575 817 3079 
Q 1281 3584 2069 3584 
Q 2775 3584 3186 3129 
Q 3597 2675 3597 1894 
z
M 3022 2063 
Q 3016 2534 2758 2815 
Q 2500 3097 2075 3097 
Q 1594 3097 1305 2825 
Q 1016 2553 972 2059 
L 3022 2063 
z
" transform="scale(0.015625)"/>
      <path id="DejaVuSans-2d" d="M 313 2009 
L 1997 2009 
L 1997 1497 
L 313 1497 
L 313 2009 
z
" transform="scale(0.015625)"/>
      <path id="DejaVuSans-69" d="M 603 3500 
L 1178 3500 
L 1178 0 
L 603 0 
L 603 3500 
z
M 603 4863 
L 1178 4863 
L 1178 4134 
L 603 4134 
L 603 4863 
z
" transform="scale(0.015625)"/>
      <path id="DejaVuSans-76" d="M 191 3500 
L 800 3500 
L 1894 563 
L 2988 3500 
L 3597 3500 
L 2284 0 
L 1503 0 
L 191 3500 
z
" transform="scale(0.015625)"/>
      <path id="DejaVuSans-38" d="M 2034 2216 
Q 1584 2216 1326 1975 
Q 1069 1734 1069 1313 
Q 1069 891 1326 650 
Q 1584 409 2034 409 
Q 2484 409 2743 651 
Q 3003 894 3003 1313 
Q 3003 1734 2745 1975 
Q 2488 2216 2034 2216 
z
M 1403 2484 
Q 997 2584 770 2862 
Q 544 3141 544 3541 
Q 544 4100 942 4425 
Q 1341 4750 2034 4750 
Q 2731 4750 3128 4425 
Q 3525 4100 3525 3541 
Q 3525 3141 3298 2862 
Q 3072 2584 2669 2484 
Q 3125 2378 3379 2068 
Q 3634 1759 3634 1313 
Q 3634 634 3220 271 
Q 2806 -91 2034 -91 
Q 1263 -91 848 271 
Q 434 634 434 1313 
Q 434 1759 690 2068 
Q 947 2378 1403 2484 
z
M 1172 3481 
Q 1172 3119 1398 2916 
Q 1625 2713 2034 2713 
Q 2441 2713 2670 2916 
Q 2900 3119 2900 3481 
Q 2900 3844 2670 4047 
Q 2441 4250 2034 4250 
Q 1625 4250 1398 4047 
Q 1172 3844 1172 3481 
z
" transform="scale(0.015625)"/>
     </defs>
     <use xlink:href="#DejaVuSans-73"/>
     <use xlink:href="#DejaVuSans-6f" x="52.099609"/>
     <use xlink:href="#DejaVuSans-75" x="113.28125"/>
     <use xlink:href="#DejaVuSans-72" x="176.660156"/>
     <use xlink:href="#DejaVuSans-63" x="215.523438"/>
     <use xlink:href="#DejaVuSans-65" x="270.503906"/>
     <use xlink:href="#DejaVuSans-32" x="332.027344"/>
     <use xlink:href="#DejaVuSans-30" x="395.650391"/>
     <use xlink:href="#DejaVuSans-2d" x="459.273438"/>
     <use xlink:href="#DejaVuSans-72" x="495.357422"/>
     <use xlink:href="#DejaVuSans-65" x="534.220703"/>
     <use xlink:href="#DejaVuSans-63" x="595.744141"/>
     <use xlink:href="#DejaVuSans-65" x="650.724609"/>
     <use xlink:href="#DejaVuSans-69" x="712.248047"/>
     <use xlink:href="#DejaVuSans-76" x="740.03125"/>
     <use xlink:href="#DejaVuSans-65" x="799.210938"/>
     <use xlink:href="#DejaVuSans-72" x="860.734375"/>
     <use xlink:href="#DejaVuSans-31" x="901.847656"/>
     <use xlink:href="#DejaVuSans-38" x="965.470703"/>
    </g>
   </g>
  </g>
 </g>
 <defs>
  <clipPath id="p8f0963ef14">
   <rect x="180" y="69.12" width="1116" height="443.52"/>
  </clipPath>
 </defs>
</svg>
