<?xml version="1.0" encoding="utf-8" standalone="no"?>
<!DOCTYPE svg PUBLIC "-//W3C//DTD SVG 1.1//EN"
  "http://www.w3.org/Graphics/SVG/1.1/DTD/svg11.dtd">
<svg xmlns:xlink="http://www.w3.org/1999/xlink" width="1440pt" height="576pt" viewBox="0 0 1440 576" xmlns="http://www.w3.org/2000/svg" version="1.1">
 <metadata>
  <rdf:RDF xmlns:dc="http://purl.org/dc/elements/1.1/" xmlns:cc="http://creativecommons.org/ns#" xmlns:rdf="http://www.w3.org/1999/02/22-rdf-syntax-ns#">
   <cc:Work>
    <dc:type rdf:resource="http://purl.org/dc/dcmitype/StillImage"/>
    <dc:date>2024-05-22T04:50:18.411410</dc:date>
    <dc:format>image/svg+xml</dc:format>
    <dc:creator>
     <cc:Agent>
      <dc:title>Matplotlib v3.8.3, https://matplotlib.org/</dc:title>
     </cc:Agent>
    </dc:creator>
   </cc:Work>
  </rdf:RDF>
 </metadata>
 <defs>
  <style type="text/css">*{stroke-linejoin: round; stroke-linecap: butt}</style>
 </defs>
 <g id="figure_1">
  <g id="patch_1">
   <path d="M 0 576 
L 1440 576 
L 1440 0 
L 0 0 
z
" style="fill: #ffffff"/>
  </g>
  <g id="axes_1">
   <g id="patch_2">
    <path d="M 180 512.64 
L 1296 512.64 
L 1296 69.12 
L 180 69.12 
z
" style="fill: #ffffff"/>
   </g>
   <g id="matplotlib.axis_1">
    <g id="xtick_1">
     <g id="line2d_1">
      <defs>
       <path id="m80f54b7232" d="M 0 0 
L 0 3.5 
" style="stroke: #000000; stroke-width: 0.8"/>
      </defs>
      <g>
       <use xlink:href="#m80f54b7232" x="229.734567" y="512.64" style="stroke: #000000; stroke-width: 0.8"/>
      </g>
     </g>
     <g id="text_1">
      <!-- 0 -->
      <g transform="translate(226.553317 527.238438) scale(0.1 -0.1)">
       <defs>
        <path id="DejaVuSans-30" d="M 2034 4250 
Q 1547 4250 1301 3770 
Q 1056 3291 1056 2328 
Q 1056 1369 1301 889 
Q 1547 409 2034 409 
Q 2525 409 2770 889 
Q 3016 1369 3016 2328 
Q 3016 3291 2770 3770 
Q 2525 4250 2034 4250 
z
M 2034 4750 
Q 2819 4750 3233 4129 
Q 3647 3509 3647 2328 
Q 3647 1150 3233 529 
Q 2819 -91 2034 -91 
Q 1250 -91 836 529 
Q 422 1150 422 2328 
Q 422 3509 836 4129 
Q 1250 4750 2034 4750 
z
" transform="scale(0.015625)"/>
       </defs>
       <use xlink:href="#DejaVuSans-30"/>
      </g>
     </g>
    </g>
    <g id="xtick_2">
     <g id="line2d_2">
      <g>
       <use xlink:href="#m80f54b7232" x="433.04074" y="512.64" style="stroke: #000000; stroke-width: 0.8"/>
      </g>
     </g>
     <g id="text_2">
      <!-- 500 -->
      <g transform="translate(423.49699 527.238438) scale(0.1 -0.1)">
       <defs>
        <path id="DejaVuSans-35" d="M 691 4666 
L 3169 4666 
L 3169 4134 
L 1269 4134 
L 1269 2991 
Q 1406 3038 1543 3061 
Q 1681 3084 1819 3084 
Q 2600 3084 3056 2656 
Q 3513 2228 3513 1497 
Q 3513 744 3044 326 
Q 2575 -91 1722 -91 
Q 1428 -91 1123 -41 
Q 819 9 494 109 
L 494 744 
Q 775 591 1075 516 
Q 1375 441 1709 441 
Q 2250 441 2565 725 
Q 2881 1009 2881 1497 
Q 2881 1984 2565 2268 
Q 2250 2553 1709 2553 
Q 1456 2553 1204 2497 
Q 953 2441 691 2322 
L 691 4666 
z
" transform="scale(0.015625)"/>
       </defs>
       <use xlink:href="#DejaVuSans-35"/>
       <use xlink:href="#DejaVuSans-30" x="63.623047"/>
       <use xlink:href="#DejaVuSans-30" x="127.246094"/>
      </g>
     </g>
    </g>
    <g id="xtick_3">
     <g id="line2d_3">
      <g>
       <use xlink:href="#m80f54b7232" x="636.346913" y="512.64" style="stroke: #000000; stroke-width: 0.8"/>
      </g>
     </g>
     <g id="text_3">
      <!-- 1000 -->
      <g transform="translate(623.621913 527.238438) scale(0.1 -0.1)">
       <defs>
        <path id="DejaVuSans-31" d="M 794 531 
L 1825 531 
L 1825 4091 
L 703 3866 
L 703 4441 
L 1819 4666 
L 2450 4666 
L 2450 531 
L 3481 531 
L 3481 0 
L 794 0 
L 794 531 
z
" transform="scale(0.015625)"/>
       </defs>
       <use xlink:href="#DejaVuSans-31"/>
       <use xlink:href="#DejaVuSans-30" x="63.623047"/>
       <use xlink:href="#DejaVuSans-30" x="127.246094"/>
       <use xlink:href="#DejaVuSans-30" x="190.869141"/>
      </g>
     </g>
    </g>
    <g id="xtick_4">
     <g id="line2d_4">
      <g>
       <use xlink:href="#m80f54b7232" x="839.653087" y="512.64" style="stroke: #000000; stroke-width: 0.8"/>
      </g>
     </g>
     <g id="text_4">
      <!-- 1500 -->
      <g transform="translate(826.928087 527.238438) scale(0.1 -0.1)">
       <use xlink:href="#DejaVuSans-31"/>
       <use xlink:href="#DejaVuSans-35" x="63.623047"/>
       <use xlink:href="#DejaVuSans-30" x="127.246094"/>
       <use xlink:href="#DejaVuSans-30" x="190.869141"/>
      </g>
     </g>
    </g>
    <g id="xtick_5">
     <g id="line2d_5">
      <g>
       <use xlink:href="#m80f54b7232" x="1042.95926" y="512.64" style="stroke: #000000; stroke-width: 0.8"/>
      </g>
     </g>
     <g id="text_5">
      <!-- 2000 -->
      <g transform="translate(1030.23426 527.238438) scale(0.1 -0.1)">
       <defs>
        <path id="DejaVuSans-32" d="M 1228 531 
L 3431 531 
L 3431 0 
L 469 0 
L 469 531 
Q 828 903 1448 1529 
Q 2069 2156 2228 2338 
Q 2531 2678 2651 2914 
Q 2772 3150 2772 3378 
Q 2772 3750 2511 3984 
Q 2250 4219 1831 4219 
Q 1534 4219 1204 4116 
Q 875 4013 500 3803 
L 500 4441 
Q 881 4594 1212 4672 
Q 1544 4750 1819 4750 
Q 2544 4750 2975 4387 
Q 3406 4025 3406 3419 
Q 3406 3131 3298 2873 
Q 3191 2616 2906 2266 
Q 2828 2175 2409 1742 
Q 1991 1309 1228 531 
z
" transform="scale(0.015625)"/>
       </defs>
       <use xlink:href="#DejaVuSans-32"/>
       <use xlink:href="#DejaVuSans-30" x="63.623047"/>
       <use xlink:href="#DejaVuSans-30" x="127.246094"/>
       <use xlink:href="#DejaVuSans-30" x="190.869141"/>
      </g>
     </g>
    </g>
    <g id="xtick_6">
     <g id="line2d_6">
      <g>
       <use xlink:href="#m80f54b7232" x="1246.265433" y="512.64" style="stroke: #000000; stroke-width: 0.8"/>
      </g>
     </g>
     <g id="text_6">
      <!-- 2500 -->
      <g transform="translate(1233.540433 527.238438) scale(0.1 -0.1)">
       <use xlink:href="#DejaVuSans-32"/>
       <use xlink:href="#DejaVuSans-35" x="63.623047"/>
       <use xlink:href="#DejaVuSans-30" x="127.246094"/>
       <use xlink:href="#DejaVuSans-30" x="190.869141"/>
      </g>
     </g>
    </g>
   </g>
   <g id="matplotlib.axis_2">
    <g id="ytick_1">
     <g id="line2d_7">
      <defs>
       <path id="m2b22d8c5c0" d="M 0 0 
L -3.5 0 
" style="stroke: #000000; stroke-width: 0.8"/>
      </defs>
      <g>
       <use xlink:href="#m2b22d8c5c0" x="180" y="446.638498" style="stroke: #000000; stroke-width: 0.8"/>
      </g>
     </g>
     <g id="text_7">
      <!-- −4 -->
      <g transform="translate(158.257812 450.437717) scale(0.1 -0.1)">
       <defs>
        <path id="DejaVuSans-2212" d="M 678 2272 
L 4684 2272 
L 4684 1741 
L 678 1741 
L 678 2272 
z
" transform="scale(0.015625)"/>
        <path id="DejaVuSans-34" d="M 2419 4116 
L 825 1625 
L 2419 1625 
L 2419 4116 
z
M 2253 4666 
L 3047 4666 
L 3047 1625 
L 3713 1625 
L 3713 1100 
L 3047 1100 
L 3047 0 
L 2419 0 
L 2419 1100 
L 313 1100 
L 313 1709 
L 2253 4666 
z
" transform="scale(0.015625)"/>
       </defs>
       <use xlink:href="#DejaVuSans-2212"/>
       <use xlink:href="#DejaVuSans-34" x="83.789062"/>
      </g>
     </g>
    </g>
    <g id="ytick_2">
     <g id="line2d_8">
      <g>
       <use xlink:href="#m2b22d8c5c0" x="180" y="363.428408" style="stroke: #000000; stroke-width: 0.8"/>
      </g>
     </g>
     <g id="text_8">
      <!-- −2 -->
      <g transform="translate(158.257812 367.227627) scale(0.1 -0.1)">
       <use xlink:href="#DejaVuSans-2212"/>
       <use xlink:href="#DejaVuSans-32" x="83.789062"/>
      </g>
     </g>
    </g>
    <g id="ytick_3">
     <g id="line2d_9">
      <g>
       <use xlink:href="#m2b22d8c5c0" x="180" y="280.218319" style="stroke: #000000; stroke-width: 0.8"/>
      </g>
     </g>
     <g id="text_9">
      <!-- 0 -->
      <g transform="translate(166.6375 284.017537) scale(0.1 -0.1)">
       <use xlink:href="#DejaVuSans-30"/>
      </g>
     </g>
    </g>
    <g id="ytick_4">
     <g id="line2d_10">
      <g>
       <use xlink:href="#m2b22d8c5c0" x="180" y="197.008229" style="stroke: #000000; stroke-width: 0.8"/>
      </g>
     </g>
     <g id="text_10">
      <!-- 2 -->
      <g transform="translate(166.6375 200.807448) scale(0.1 -0.1)">
       <use xlink:href="#DejaVuSans-32"/>
      </g>
     </g>
    </g>
    <g id="ytick_5">
     <g id="line2d_11">
      <g>
       <use xlink:href="#m2b22d8c5c0" x="180" y="113.79814" style="stroke: #000000; stroke-width: 0.8"/>
      </g>
     </g>
     <g id="text_11">
      <!-- 4 -->
      <g transform="translate(166.6375 117.597358) scale(0.1 -0.1)">
       <use xlink:href="#DejaVuSans-34"/>
      </g>
     </g>
    </g>
   </g>
   <g id="line2d_12">
    <path d="M 230.727273 362.287019 
L 231.719979 362.834752 
L 232.712685 362.269201 
L 233.70539 361.458076 
L 234.698096 361.222136 
L 237.676214 358.939988 
L 238.66892 357.892006 
L 239.661626 356.252356 
L 240.654332 353.624313 
L 241.647038 351.939057 
L 242.639744 347.808436 
L 243.63245 334.905298 
L 244.625156 314.45683 
L 245.617862 299.482112 
L 246.610568 286.472865 
L 248.595979 218.067864 
L 249.588685 191.529176 
L 250.581391 174.776899 
L 251.574097 168.688678 
L 252.566803 173.545503 
L 253.559509 184.951913 
L 254.552215 190.597692 
L 255.544921 183.498613 
L 256.537627 174.501456 
L 257.530333 168.409232 
L 258.523039 165.039322 
L 259.515745 162.670707 
L 260.50845 162.481523 
L 261.501156 154.671802 
L 262.493862 141.212776 
L 263.486568 137.382576 
L 264.479274 140.959235 
L 265.47198 143.983449 
L 266.464686 144.372861 
L 267.457392 141.016646 
L 268.450098 142.249323 
L 269.442804 165.695738 
L 270.43551 206.797214 
L 271.428216 181.412927 
L 272.420922 195.966099 
L 273.413627 214.72211 
L 274.406333 183.896415 
L 275.399039 218.417412 
L 276.391745 157.090097 
L 277.384451 125.443487 
L 278.377157 122.912542 
L 279.369863 137.504306 
L 280.362569 133.370447 
L 281.355275 105.530626 
L 282.347981 99.549147 
L 283.340687 119.840697 
L 284.333393 108.213781 
L 285.326099 89.28 
L 286.318804 92.680538 
L 287.31151 103.227471 
L 288.304216 112.448108 
L 290.289628 156.381678 
L 291.282334 146.983658 
L 292.27504 143.008254 
L 293.267746 162.822547 
L 294.260452 193.114108 
L 295.253158 180.519937 
L 296.245864 190.038638 
L 298.231276 217.476341 
L 299.223981 238.023219 
L 300.216687 239.711779 
L 301.209393 272.071543 
L 302.202099 262.480074 
L 303.194805 283.531183 
L 304.187511 308.860983 
L 305.180217 283.307049 
L 306.172923 264.238174 
L 307.165629 251.470752 
L 308.158335 248.743096 
L 309.151041 268.850139 
L 310.143747 271.528201 
L 311.136453 291.377007 
L 312.129159 428.741371 
L 313.121864 326.182484 
L 314.11457 320.884004 
L 315.107276 397.018038 
L 316.099982 321.674204 
L 317.092688 337.8566 
L 318.085394 338.374816 
L 319.0781 325.706717 
L 320.070806 328.37742 
L 321.063512 357.527563 
L 322.056218 339.550922 
L 323.048924 356.067802 
L 324.04163 340.447905 
L 325.034336 362.696413 
L 326.027041 349.737896 
L 327.019747 357.895642 
L 328.012453 342.82314 
L 329.005159 346.868112 
L 329.997865 355.759371 
L 330.990571 359.349947 
L 331.983277 351.676561 
L 332.975983 351.076555 
L 333.968689 349.64725 
L 334.961395 372.963776 
L 335.954101 365.693586 
L 336.946807 340.535533 
L 337.939513 354.471306 
L 338.932218 359.312903 
L 339.924924 357.659089 
L 340.91763 363.477514 
L 341.910336 349.303932 
L 342.903042 356.004483 
L 343.895748 382.381173 
L 344.888454 345.533813 
L 345.88116 372.496026 
L 346.873866 354.965268 
L 347.866572 372.949296 
L 348.859278 356.873525 
L 349.851984 343.477595 
L 350.84469 378.767528 
L 351.837395 353.448606 
L 352.830101 344.976333 
L 353.822807 381.724968 
L 354.815513 373.747284 
L 355.808219 362.568641 
L 356.800925 395.974869 
L 357.793631 340.16835 
L 358.786337 368.674897 
L 359.779043 362.974238 
L 360.771749 352.541259 
L 361.764455 406.638545 
L 362.757161 359.538713 
L 363.749867 364.283981 
L 364.742572 377.715868 
L 365.735278 354.081682 
L 366.727984 394.511069 
L 367.72069 380.080653 
L 368.713396 368.886188 
L 369.706102 397.277651 
L 370.698808 367.957534 
L 371.691514 378.465779 
L 372.68422 385.133314 
L 373.676926 356.656258 
L 374.669632 358.876585 
L 375.662338 366.305954 
L 376.655044 368.665081 
L 377.64775 393.868844 
L 378.640455 381.76219 
L 379.633161 378.211709 
L 380.625867 402.838837 
L 381.618573 360.475834 
L 382.611279 375.585078 
L 383.603985 374.858912 
L 384.596691 385.204415 
L 385.589397 397.037872 
L 386.582103 359.067054 
L 387.574809 375.177903 
L 388.567515 376.936169 
L 389.560221 386.39081 
L 390.552927 379.412219 
L 391.545632 393.381607 
L 393.531044 393.370128 
L 394.52375 372.5146 
L 395.516456 381.538271 
L 396.509162 398.430931 
L 397.501868 381.86773 
L 398.494574 380.359054 
L 399.48728 379.778951 
L 400.479986 388.85003 
L 401.472692 373.867527 
L 402.465398 405.412221 
L 403.458104 426.242405 
L 404.450809 390.772564 
L 405.443515 391.442272 
L 406.436221 386.387548 
L 407.428927 379.404489 
L 408.421633 463.593144 
L 409.414339 378.306705 
L 410.407045 377.341386 
L 411.399751 387.291096 
L 412.392457 419.566311 
L 413.385163 416.859718 
L 414.377869 387.114884 
L 415.370575 407.086989 
L 416.363281 367.701146 
L 417.355986 405.598248 
L 418.348692 404.54127 
L 419.341398 394.033239 
L 420.334104 403.462599 
L 421.32681 372.166382 
L 422.319516 412.746233 
L 423.312222 401.258462 
L 424.304928 418.451416 
L 425.297634 414.636785 
L 426.29034 426.696337 
L 427.283046 378.525904 
L 428.275752 397.284023 
L 429.268458 398.798866 
L 430.261163 415.630274 
L 431.253869 391.210088 
L 432.246575 396.910799 
L 433.239281 400.451712 
L 434.231987 385.473856 
L 435.224693 386.065722 
L 436.217399 377.109057 
L 437.210105 384.441608 
L 438.202811 398.315865 
L 439.195517 404.158706 
L 440.188223 424.470733 
L 441.180929 397.08466 
L 442.173635 397.702 
L 443.166341 391.945386 
L 444.159046 425.694814 
L 445.151752 439.635394 
L 446.144458 391.893062 
L 447.137164 391.382996 
L 448.12987 379.836966 
L 449.122576 399.895927 
L 450.115282 388.589074 
L 451.107988 403.201994 
L 452.100694 393.966288 
L 453.0934 437.384869 
L 454.086106 383.643387 
L 455.078812 441.36896 
L 456.071518 392.262095 
L 457.064223 381.53467 
L 458.056929 409.192669 
L 459.049635 386.806306 
L 460.042341 391.900461 
L 461.035047 392.796661 
L 462.027753 395.097053 
L 463.020459 391.425912 
L 464.013165 428.544979 
L 465.005871 423.135679 
L 465.998577 368.670415 
L 466.991283 407.347362 
L 467.983989 413.318731 
L 468.976695 408.202955 
L 469.9694 407.979496 
L 470.962106 397.889552 
L 471.954812 388.950186 
L 472.947518 414.159622 
L 473.940224 380.995644 
L 474.93293 386.708983 
L 475.925636 388.268581 
L 476.918342 395.364534 
L 477.911048 430.540743 
L 478.903754 481.973844 
L 479.89646 384.163119 
L 480.889166 396.017243 
L 481.881872 420.276148 
L 482.874577 380.669707 
L 483.867283 387.252737 
L 484.859989 395.642405 
L 485.852695 378.08587 
L 486.845401 421.735189 
L 487.838107 413.052035 
L 488.830813 402.466084 
L 489.823519 414.552806 
L 490.816225 410.228543 
L 491.808931 384.611493 
L 492.801637 436.161388 
L 493.794343 395.652561 
L 494.787049 456.070361 
L 495.779754 402.842654 
L 497.765166 418.827174 
L 498.757872 422.664978 
L 499.750578 393.546732 
L 500.743284 418.421755 
L 501.73599 380.432154 
L 502.728696 410.2656 
L 503.721402 413.871437 
L 504.714108 385.792142 
L 505.706814 430.049994 
L 506.69952 404.089273 
L 507.692226 438.16068 
L 508.684932 402.053952 
L 509.677637 386.78482 
L 510.670343 389.43524 
L 511.663049 432.693705 
L 512.655755 442.081989 
L 513.648461 391.387483 
L 514.641167 492.48 
L 515.633873 413.374846 
L 516.626579 392.938178 
L 517.619285 402.729602 
L 518.611991 477.457659 
L 519.604697 427.866273 
L 520.597403 390.231112 
L 521.590109 415.226203 
L 522.582814 422.337288 
L 523.57552 389.058464 
L 524.568226 394.683505 
L 525.560932 446.08013 
L 526.553638 403.118872 
L 527.546344 429.786708 
L 528.53905 414.072109 
L 529.531756 395.06846 
L 530.524462 407.473735 
L 531.517168 412.58004 
L 532.509874 409.845079 
L 533.50258 396.058955 
L 534.495286 388.911729 
L 535.487991 401.345159 
L 536.480697 435.086172 
L 537.473403 416.249176 
L 538.466109 375.315709 
L 539.458815 405.268187 
L 540.451521 396.342655 
L 541.444227 390.775218 
L 542.436933 389.35635 
L 543.429639 414.227094 
L 544.422345 422.341371 
L 545.415051 405.164754 
L 546.407757 391.047152 
L 547.400463 397.67129 
L 548.393168 445.243863 
L 550.37858 395.526066 
L 551.371286 386.314593 
L 552.363992 386.075129 
L 553.356698 386.855727 
L 554.349404 431.275825 
L 555.34211 394.556062 
L 556.334816 398.97706 
L 557.327522 421.609923 
L 558.320228 423.328081 
L 559.312934 414.026188 
L 561.298345 404.609236 
L 562.291051 403.575021 
L 563.283757 422.837429 
L 564.276463 380.465099 
L 565.269169 390.784073 
L 566.261875 405.831032 
L 567.254581 407.370567 
L 568.247287 391.312761 
L 570.232699 443.996943 
L 571.225405 420.102358 
L 572.218111 425.801528 
L 573.210817 422.822197 
L 574.203523 456.764588 
L 575.196228 427.414029 
L 576.188934 408.433913 
L 577.18164 433.218062 
L 578.174346 441.778015 
L 579.167052 408.958032 
L 580.159758 413.826525 
L 581.152464 412.160744 
L 582.14517 405.856388 
L 583.137876 409.751273 
L 584.130582 400.993406 
L 585.123288 416.570247 
L 586.115994 375.359035 
L 587.1087 451.007522 
L 588.101405 382.729913 
L 589.094111 395.801385 
L 590.086817 449.245836 
L 591.079523 412.857562 
L 592.072229 406.16458 
L 593.064935 403.066154 
L 594.057641 481.051098 
L 595.050347 438.760833 
L 596.043053 421.764884 
L 597.035759 430.545209 
L 598.028465 398.080548 
L 599.021171 440.446221 
L 600.013877 403.98437 
L 601.006582 416.919526 
L 601.999288 392.461924 
L 602.991994 486.0945 
L 603.9847 409.984509 
L 605.970112 445.279775 
L 606.962818 407.525661 
L 607.955524 421.423132 
L 608.94823 416.627048 
L 609.940936 410.682013 
L 610.933642 430.919129 
L 611.926348 407.438336 
L 612.919054 411.050421 
L 613.911759 421.241713 
L 614.904465 403.758316 
L 615.897171 436.899887 
L 616.889877 426.427405 
L 617.882583 419.647482 
L 618.875289 442.372231 
L 619.867995 408.394544 
L 620.860701 441.550388 
L 621.853407 403.67106 
L 622.846113 427.430436 
L 623.838819 411.34726 
L 624.831525 427.157981 
L 625.824231 419.693262 
L 626.816936 439.042529 
L 627.809642 418.611817 
L 628.802348 424.654149 
L 630.78776 416.547964 
L 631.780466 422.772204 
L 632.773172 447.834745 
L 633.765878 429.353419 
L 634.758584 433.738214 
L 635.75129 418.306055 
L 636.743996 424.360734 
L 637.736702 420.117886 
L 638.729408 423.53118 
L 639.722114 424.317967 
L 640.714819 416.918658 
L 641.707525 411.346511 
L 642.700231 436.268522 
L 643.692937 436.141325 
L 644.685643 425.272231 
L 645.678349 429.09436 
L 646.671055 425.912629 
L 647.663761 412.959186 
L 648.656467 428.717545 
L 649.649173 419.934463 
L 650.641879 435.13032 
L 651.634585 436.295745 
L 652.627291 431.551162 
L 653.619996 422.267797 
L 654.612702 428.015315 
L 655.605408 432.22299 
L 656.598114 426.597529 
L 657.59082 422.265838 
L 658.583526 436.441175 
L 659.576232 423.067568 
L 660.568938 422.995075 
L 661.561644 419.50954 
L 662.55435 432.133368 
L 663.547056 429.736107 
L 664.539762 428.91745 
L 665.532468 431.850694 
L 666.525173 433.133722 
L 667.517879 435.611029 
L 668.510585 426.849825 
L 669.503291 431.970763 
L 670.495997 427.151333 
L 671.488703 420.842074 
L 672.481409 430.431137 
L 673.474115 422.225044 
L 674.466821 439.371126 
L 675.459527 421.750721 
L 676.452233 426.41615 
L 677.444939 435.609472 
L 678.437645 433.624574 
L 679.43035 429.231018 
L 680.423056 433.67136 
L 681.415762 433.251728 
L 682.408468 427.259949 
L 683.401174 431.523001 
L 684.39388 427.483423 
L 685.386586 432.041136 
L 686.379292 430.848196 
L 688.364704 432.756425 
L 689.35741 431.880651 
L 690.350116 423.771457 
L 691.342822 430.396402 
L 692.335527 431.496843 
L 693.328233 432.81405 
L 694.320939 430.274196 
L 695.313645 428.70635 
L 696.306351 434.333228 
L 697.299057 431.106329 
L 698.291763 430.972307 
L 699.284469 428.418634 
L 700.277175 430.945139 
L 701.269881 429.39431 
L 703.255293 431.985922 
L 704.247999 429.896916 
L 705.240705 433.421849 
L 706.23341 428.876808 
L 707.226116 426.854256 
L 708.218822 430.219224 
L 709.211528 427.431078 
L 710.204234 432.65012 
L 711.19694 428.941523 
L 712.189646 427.584123 
L 713.182352 432.351296 
L 714.175058 432.012013 
L 715.167764 428.134878 
L 716.16047 434.421417 
L 717.153176 434.3611 
L 718.145882 431.478181 
L 719.138587 433.436631 
L 720.131293 432.852621 
L 721.123999 430.31018 
L 722.116705 430.444315 
L 723.109411 430.767415 
L 724.102117 430.75717 
L 725.094823 428.9031 
L 726.087529 431.248013 
L 727.080235 430.711329 
L 728.072941 435.449664 
L 729.065647 429.579348 
L 730.058353 432.766016 
L 731.051059 432.691525 
L 732.043764 432.984123 
L 733.03647 433.132127 
L 734.029176 433.780447 
L 735.021882 429.077019 
L 736.014588 435.549086 
L 737.007294 436.418902 
L 738 430.490287 
L 738.992706 435.304277 
L 739.985412 432.273031 
L 740.978118 436.861014 
L 741.970824 431.753447 
L 742.96353 434.466381 
L 743.956236 431.039953 
L 744.948941 436.119771 
L 745.941647 431.256618 
L 746.934353 430.515939 
L 747.927059 431.985639 
L 748.919765 434.307571 
L 749.912471 433.668037 
L 750.905177 432.181269 
L 751.897883 433.27965 
L 752.890589 436.978072 
L 753.883295 433.975402 
L 754.876001 436.6083 
L 755.868707 434.615028 
L 756.861413 434.208267 
L 757.854118 433.949834 
L 758.846824 434.88996 
L 759.83953 433.560707 
L 760.832236 436.75587 
L 761.824942 433.151847 
L 762.817648 435.343388 
L 764.80306 434.741486 
L 765.795766 435.281369 
L 766.788472 433.908125 
L 767.781178 435.502112 
L 768.773884 435.632507 
L 769.76659 434.935345 
L 771.752001 435.350716 
L 772.744707 434.451852 
L 773.737413 436.225806 
L 774.730119 437.451136 
L 775.722825 435.526945 
L 776.715531 436.458527 
L 777.708237 435.877452 
L 778.700943 434.565717 
L 779.693649 438.231313 
L 780.686355 435.983252 
L 781.679061 438.040014 
L 782.671767 434.786918 
L 783.664473 435.51826 
L 784.657178 437.549436 
L 785.649884 434.000754 
L 786.64259 435.495889 
L 787.635296 433.383366 
L 788.628002 438.846231 
L 789.620708 437.827983 
L 790.613414 435.250865 
L 791.60612 436.356357 
L 792.598826 435.309965 
L 793.591532 438.06303 
L 794.584238 435.26161 
L 795.576944 434.529259 
L 796.56965 437.151063 
L 797.562355 436.88991 
L 798.555061 436.971216 
L 799.547767 440.436029 
L 800.540473 437.569552 
L 801.533179 437.078333 
L 802.525885 434.74506 
L 803.518591 437.585403 
L 804.511297 437.561729 
L 805.504003 436.517089 
L 806.496709 437.808453 
L 807.489415 438.489741 
L 808.482121 441.001399 
L 810.467532 437.966268 
L 811.460238 437.340423 
L 812.452944 437.69307 
L 813.44565 437.823212 
L 814.438356 436.485523 
L 815.431062 437.867237 
L 816.423768 438.099929 
L 817.416474 437.952275 
L 818.40918 434.883351 
L 819.401886 435.351713 
L 820.394592 437.111161 
L 822.380004 439.985237 
L 823.372709 438.388727 
L 824.365415 436.50274 
L 825.358121 438.407582 
L 826.350827 438.713332 
L 827.343533 438.891082 
L 828.336239 441.387992 
L 829.328945 437.472309 
L 830.321651 438.46112 
L 831.314357 436.180325 
L 832.307063 439.188714 
L 833.299769 439.244388 
L 834.292475 438.327167 
L 835.285181 436.721099 
L 836.277886 440.041495 
L 837.270592 439.58601 
L 838.263298 437.517843 
L 839.256004 438.086481 
L 840.24871 440.639009 
L 841.241416 434.216218 
L 842.234122 439.91193 
L 843.226828 437.51128 
L 844.219534 438.979278 
L 845.21224 438.976455 
L 846.204946 440.871506 
L 847.197652 441.459173 
L 848.190358 438.993617 
L 849.183064 438.619751 
L 850.175769 437.839054 
L 851.168475 439.438182 
L 852.161181 438.900018 
L 853.153887 435.701663 
L 854.146593 439.397745 
L 855.139299 439.82316 
L 856.132005 437.915302 
L 857.124711 438.296113 
L 858.117417 439.421102 
L 859.110123 438.065608 
L 860.102829 439.727819 
L 861.095535 437.674872 
L 862.088241 438.179398 
L 863.080946 442.410313 
L 864.073652 437.807736 
L 865.066358 439.378401 
L 866.059064 439.565884 
L 867.05177 441.826978 
L 868.044476 440.48164 
L 869.037182 439.93702 
L 870.029888 439.531182 
L 871.022594 440.203959 
L 872.0153 441.922396 
L 873.008006 440.995566 
L 874.000712 437.294119 
L 874.993418 439.702544 
L 875.986123 438.428015 
L 876.978829 440.447781 
L 877.971535 444.638429 
L 878.964241 441.85161 
L 879.956947 438.514532 
L 881.942359 441.6288 
L 882.935065 438.23162 
L 883.927771 441.845128 
L 884.920477 440.70555 
L 885.913183 443.724711 
L 886.905889 439.863888 
L 887.898595 442.361954 
L 888.8913 441.849281 
L 889.884006 440.626236 
L 890.876712 440.787796 
L 891.869418 441.071913 
L 892.862124 444.270963 
L 893.85483 440.773408 
L 894.847536 443.755441 
L 895.840242 441.102117 
L 896.832948 439.830031 
L 897.825654 441.845263 
L 898.81836 441.802293 
L 899.811066 441.272265 
L 900.803772 439.267969 
L 901.796477 441.079254 
L 902.789183 441.101326 
L 903.781889 443.652762 
L 904.774595 438.437352 
L 905.767301 437.688105 
L 906.760007 441.224099 
L 907.752713 443.844742 
L 908.745419 439.7589 
L 909.738125 440.661596 
L 910.730831 441.26201 
L 911.723537 441.146702 
L 912.716243 443.660216 
L 913.708949 440.094472 
L 914.701655 443.593597 
L 915.69436 441.11363 
L 916.687066 440.706486 
L 917.679772 440.740394 
L 918.672478 442.460364 
L 919.665184 441.861554 
L 920.65789 439.594062 
L 921.650596 444.54118 
L 922.643302 442.31923 
L 923.636008 444.673043 
L 924.628714 441.321972 
L 925.62142 443.358226 
L 926.614126 440.725057 
L 927.606832 444.758301 
L 928.599537 445.925433 
L 929.592243 441.741672 
L 930.584949 441.950464 
L 931.577655 443.133991 
L 932.570361 441.493332 
L 933.563067 443.272593 
L 934.555773 442.494606 
L 935.548479 442.431987 
L 936.541185 443.716488 
L 937.533891 445.996168 
L 938.526597 439.561845 
L 939.519303 441.939452 
L 941.504714 441.509149 
L 942.49742 442.492317 
L 944.482832 442.246885 
L 945.475538 439.700709 
L 946.468244 442.813646 
L 947.46095 444.620248 
L 948.453656 442.156021 
L 949.446362 443.512284 
L 950.439068 444.177574 
L 951.431774 442.490627 
L 952.42448 442.733013 
L 953.417186 444.523921 
L 954.409891 445.81091 
L 955.402597 440.275112 
L 956.395303 441.803499 
L 957.388009 442.869522 
L 958.380715 442.476669 
L 959.373421 443.160345 
L 960.366127 442.825385 
L 961.358833 441.384504 
L 962.351539 444.543907 
L 963.344245 442.674224 
L 964.336951 443.701568 
L 965.329657 443.263062 
L 966.322363 442.24019 
L 967.315068 441.861662 
L 968.307774 447.550411 
L 969.30048 441.901562 
L 970.293186 443.527409 
L 971.285892 444.235262 
L 972.278598 444.544687 
L 973.271304 443.956311 
L 974.26401 439.537002 
L 975.256716 446.406288 
L 976.249422 443.848038 
L 977.242128 443.872121 
L 978.234834 443.183045 
L 979.22754 445.046522 
L 980.220246 443.339459 
L 981.212951 443.304007 
L 982.205657 443.546573 
L 983.198363 444.772362 
L 984.191069 444.306603 
L 985.183775 444.746817 
L 986.176481 443.077749 
L 987.169187 445.218694 
L 988.161893 443.017235 
L 990.147305 443.925733 
L 991.140011 443.101243 
L 992.132717 444.514118 
L 993.125423 443.40248 
L 994.118128 445.494482 
L 997.096246 443.621812 
L 998.088952 443.154544 
L 999.081658 444.751889 
L 1000.074364 443.928827 
L 1001.06707 444.073842 
L 1002.059776 442.997794 
L 1003.052482 443.543002 
L 1005.037894 445.725796 
L 1006.0306 443.729879 
L 1007.023305 443.434533 
L 1008.016011 445.19927 
L 1009.008717 447.334429 
L 1010.001423 444.266646 
L 1010.994129 445.61367 
L 1011.986835 445.672145 
L 1012.979541 442.861835 
L 1013.972247 442.929396 
L 1014.964953 444.112453 
L 1015.957659 444.027004 
L 1016.950365 447.204429 
L 1017.943071 443.955476 
L 1018.935777 445.436929 
L 1019.928482 442.664626 
L 1020.921188 443.403135 
L 1021.913894 441.781695 
L 1022.9066 443.097385 
L 1023.899306 447.447589 
L 1024.892012 446.10731 
L 1025.884718 445.132024 
L 1026.877424 444.988477 
L 1027.87013 445.61817 
L 1028.862836 444.059793 
L 1029.855542 444.423713 
L 1030.848248 443.061845 
L 1031.840954 444.296309 
L 1032.833659 446.563165 
L 1033.826365 444.441741 
L 1034.819071 444.085269 
L 1035.811777 447.551845 
L 1036.804483 447.235935 
L 1037.797189 444.092769 
L 1038.789895 443.642567 
L 1039.782601 446.093401 
L 1041.768013 447.648672 
L 1042.760719 444.298412 
L 1043.753425 443.432241 
L 1044.746131 445.165589 
L 1045.738837 448.492568 
L 1046.731542 444.135437 
L 1047.724248 449.183483 
L 1048.716954 444.171904 
L 1049.70966 448.663884 
L 1050.702366 445.17532 
L 1051.695072 444.561722 
L 1052.687778 444.363749 
L 1053.680484 443.822475 
L 1054.67319 443.717169 
L 1055.665896 446.819876 
L 1056.658602 447.61197 
L 1057.651308 445.495767 
L 1058.644014 445.790857 
L 1059.636719 447.374902 
L 1060.629425 445.795743 
L 1061.622131 443.025303 
L 1062.614837 446.137748 
L 1063.607543 446.549743 
L 1064.600249 445.606021 
L 1065.592955 445.922726 
L 1066.585661 446.98583 
L 1067.578367 446.160658 
L 1068.571073 443.918999 
L 1069.563779 446.844087 
L 1070.556485 444.329543 
L 1071.549191 445.965869 
L 1072.541896 449.920446 
L 1073.534602 445.965155 
L 1074.527308 443.73954 
L 1076.51272 450.285232 
L 1077.505426 443.86084 
L 1078.498132 447.861541 
L 1079.490838 444.240186 
L 1081.47625 447.459377 
L 1082.468956 448.4783 
L 1083.461662 444.293715 
L 1084.454368 449.160813 
L 1085.447073 444.401069 
L 1086.439779 446.392645 
L 1087.432485 444.778127 
L 1088.425191 446.079075 
L 1089.417897 444.503787 
L 1091.403309 446.022216 
L 1092.396015 445.691629 
L 1093.388721 446.349984 
L 1094.381427 448.181098 
L 1095.374133 447.757348 
L 1096.366839 447.88631 
L 1097.359545 446.948334 
L 1098.35225 446.340961 
L 1099.344956 447.612309 
L 1100.337662 445.996285 
L 1101.330368 445.823429 
L 1102.323074 447.48008 
L 1103.31578 448.482909 
L 1104.308486 446.541621 
L 1105.301192 448.094664 
L 1106.293898 445.555336 
L 1107.286604 448.22749 
L 1108.27931 447.871084 
L 1109.272016 447.244225 
L 1110.264722 450.990111 
L 1111.257428 445.965324 
L 1112.250133 442.815069 
L 1113.242839 447.902122 
L 1114.235545 447.176433 
L 1115.228251 449.059464 
L 1116.220957 444.015594 
L 1117.213663 442.835996 
L 1118.206369 445.88933 
L 1119.199075 448.142172 
L 1120.191781 445.329337 
L 1121.184487 446.169494 
L 1122.177193 446.502494 
L 1123.169899 447.861239 
L 1124.162605 445.071657 
L 1125.15531 446.563739 
L 1126.148016 446.259521 
L 1127.140722 447.531624 
L 1128.133428 447.767983 
L 1129.126134 446.079513 
L 1130.11884 445.93659 
L 1131.111546 446.470716 
L 1132.104252 446.026888 
L 1133.096958 443.418863 
L 1134.089664 444.402232 
L 1135.08237 447.145118 
L 1136.075076 444.232131 
L 1137.067782 448.971006 
L 1138.060487 447.19043 
L 1139.053193 446.90305 
L 1140.045899 445.317077 
L 1141.038605 445.129642 
L 1142.031311 444.213213 
L 1143.024017 447.23003 
L 1145.009429 444.672387 
L 1146.002135 448.171355 
L 1146.994841 446.090165 
L 1147.987547 449.572728 
L 1148.980253 443.627478 
L 1149.972959 445.954485 
L 1150.965664 447.971555 
L 1151.95837 448.390421 
L 1152.951076 447.557914 
L 1153.943782 448.610362 
L 1154.936488 445.178352 
L 1155.929194 447.976112 
L 1156.9219 445.79538 
L 1157.914606 448.53739 
L 1158.907312 443.218929 
L 1159.900018 447.989963 
L 1160.892724 449.998215 
L 1161.88543 447.552776 
L 1162.878136 446.611309 
L 1163.870841 449.077429 
L 1164.863547 444.45721 
L 1165.856253 447.948922 
L 1166.848959 445.390099 
L 1167.841665 444.901808 
L 1168.834371 446.984565 
L 1169.827077 445.965261 
L 1170.819783 445.281318 
L 1171.812489 449.237734 
L 1172.805195 450.608929 
L 1173.797901 446.115611 
L 1174.790607 448.112047 
L 1175.783313 446.497633 
L 1176.776019 450.625688 
L 1177.768724 446.938751 
L 1178.76143 450.747256 
L 1179.754136 449.723209 
L 1180.746842 445.058156 
L 1181.739548 447.054564 
L 1182.732254 448.613888 
L 1183.72496 446.684161 
L 1185.710372 445.650294 
L 1186.703078 447.989164 
L 1187.695784 451.156269 
L 1188.68849 445.717727 
L 1189.681196 447.811254 
L 1190.673901 447.77227 
L 1191.666607 448.100625 
L 1192.659313 445.912166 
L 1193.652019 449.140271 
L 1194.644725 446.272373 
L 1195.637431 449.849386 
L 1196.630137 447.588294 
L 1197.622843 449.43587 
L 1199.608255 449.737045 
L 1200.600961 447.089939 
L 1201.593667 447.214682 
L 1202.586373 448.028466 
L 1203.579078 447.900358 
L 1204.571784 446.113095 
L 1205.56449 448.391746 
L 1206.557196 446.504153 
L 1207.549902 447.752671 
L 1208.542608 445.654359 
L 1209.535314 446.998583 
L 1210.52802 446.201611 
L 1211.520726 447.202333 
L 1212.513432 447.052602 
L 1213.506138 451.323715 
L 1214.498844 450.027191 
L 1215.49155 449.532638 
L 1216.484255 443.742022 
L 1217.476961 447.135648 
L 1218.469667 445.88797 
L 1219.462373 446.202156 
L 1220.455079 447.13944 
L 1221.447785 446.165291 
L 1222.440491 446.006564 
L 1223.433197 448.267118 
L 1224.425903 448.948458 
L 1225.418609 445.862043 
L 1226.411315 448.89024 
L 1227.404021 445.036579 
L 1228.396727 446.983754 
L 1230.382138 448.901476 
L 1231.374844 445.749447 
L 1232.36755 445.428737 
L 1233.360256 445.856699 
L 1234.352962 448.720198 
L 1235.345668 451.185966 
L 1236.338374 448.829044 
L 1237.33108 444.066595 
L 1238.323786 444.483319 
L 1239.316492 449.563878 
L 1240.309198 447.319933 
L 1241.301904 446.890101 
L 1242.29461 449.361319 
L 1244.280021 445.61946 
L 1245.272727 447.15897 
L 1245.272727 447.15897 
" clip-path="url(#pc719e9f17c)" style="fill: none; stroke: #1f77b4; stroke-width: 1.5; stroke-linecap: square"/>
   </g>
   <g id="patch_3">
    <path d="M 180 512.64 
L 180 69.12 
" style="fill: none; stroke: #000000; stroke-width: 0.8; stroke-linejoin: miter; stroke-linecap: square"/>
   </g>
   <g id="patch_4">
    <path d="M 1296 512.64 
L 1296 69.12 
" style="fill: none; stroke: #000000; stroke-width: 0.8; stroke-linejoin: miter; stroke-linecap: square"/>
   </g>
   <g id="patch_5">
    <path d="M 180 512.64 
L 1296 512.64 
" style="fill: none; stroke: #000000; stroke-width: 0.8; stroke-linejoin: miter; stroke-linecap: square"/>
   </g>
   <g id="patch_6">
    <path d="M 180 69.12 
L 1296 69.12 
" style="fill: none; stroke: #000000; stroke-width: 0.8; stroke-linejoin: miter; stroke-linecap: square"/>
   </g>
   <g id="text_12">
    <!-- source20-receiver17 -->
    <g transform="translate(532.175 60.80125) scale(0.4 -0.4)">
     <defs>
      <path id="DejaVuSans-73" d="M 2834 3397 
L 2834 2853 
Q 2591 2978 2328 3040 
Q 2066 3103 1784 3103 
Q 1356 3103 1142 2972 
Q 928 2841 928 2578 
Q 928 2378 1081 2264 
Q 1234 2150 1697 2047 
L 1894 2003 
Q 2506 1872 2764 1633 
Q 3022 1394 3022 966 
Q 3022 478 2636 193 
Q 2250 -91 1575 -91 
Q 1294 -91 989 -36 
Q 684 19 347 128 
L 347 722 
Q 666 556 975 473 
Q 1284 391 1588 391 
Q 1994 391 2212 530 
Q 2431 669 2431 922 
Q 2431 1156 2273 1281 
Q 2116 1406 1581 1522 
L 1381 1569 
Q 847 1681 609 1914 
Q 372 2147 372 2553 
Q 372 3047 722 3315 
Q 1072 3584 1716 3584 
Q 2034 3584 2315 3537 
Q 2597 3491 2834 3397 
z
" transform="scale(0.015625)"/>
      <path id="DejaVuSans-6f" d="M 1959 3097 
Q 1497 3097 1228 2736 
Q 959 2375 959 1747 
Q 959 1119 1226 758 
Q 1494 397 1959 397 
Q 2419 397 2687 759 
Q 2956 1122 2956 1747 
Q 2956 2369 2687 2733 
Q 2419 3097 1959 3097 
z
M 1959 3584 
Q 2709 3584 3137 3096 
Q 3566 2609 3566 1747 
Q 3566 888 3137 398 
Q 2709 -91 1959 -91 
Q 1206 -91 779 398 
Q 353 888 353 1747 
Q 353 2609 779 3096 
Q 1206 3584 1959 3584 
z
" transform="scale(0.015625)"/>
      <path id="DejaVuSans-75" d="M 544 1381 
L 544 3500 
L 1119 3500 
L 1119 1403 
Q 1119 906 1312 657 
Q 1506 409 1894 409 
Q 2359 409 2629 706 
Q 2900 1003 2900 1516 
L 2900 3500 
L 3475 3500 
L 3475 0 
L 2900 0 
L 2900 538 
Q 2691 219 2414 64 
Q 2138 -91 1772 -91 
Q 1169 -91 856 284 
Q 544 659 544 1381 
z
M 1991 3584 
L 1991 3584 
z
" transform="scale(0.015625)"/>
      <path id="DejaVuSans-72" d="M 2631 2963 
Q 2534 3019 2420 3045 
Q 2306 3072 2169 3072 
Q 1681 3072 1420 2755 
Q 1159 2438 1159 1844 
L 1159 0 
L 581 0 
L 581 3500 
L 1159 3500 
L 1159 2956 
Q 1341 3275 1631 3429 
Q 1922 3584 2338 3584 
Q 2397 3584 2469 3576 
Q 2541 3569 2628 3553 
L 2631 2963 
z
" transform="scale(0.015625)"/>
      <path id="DejaVuSans-63" d="M 3122 3366 
L 3122 2828 
Q 2878 2963 2633 3030 
Q 2388 3097 2138 3097 
Q 1578 3097 1268 2742 
Q 959 2388 959 1747 
Q 959 1106 1268 751 
Q 1578 397 2138 397 
Q 2388 397 2633 464 
Q 2878 531 3122 666 
L 3122 134 
Q 2881 22 2623 -34 
Q 2366 -91 2075 -91 
Q 1284 -91 818 406 
Q 353 903 353 1747 
Q 353 2603 823 3093 
Q 1294 3584 2113 3584 
Q 2378 3584 2631 3529 
Q 2884 3475 3122 3366 
z
" transform="scale(0.015625)"/>
      <path id="DejaVuSans-65" d="M 3597 1894 
L 3597 1613 
L 953 1613 
Q 991 1019 1311 708 
Q 1631 397 2203 397 
Q 2534 397 2845 478 
Q 3156 559 3463 722 
L 3463 178 
Q 3153 47 2828 -22 
Q 2503 -91 2169 -91 
Q 1331 -91 842 396 
Q 353 884 353 1716 
Q 353 2575 817 3079 
Q 1281 3584 2069 3584 
Q 2775 3584 3186 3129 
Q 3597 2675 3597 1894 
z
M 3022 2063 
Q 3016 2534 2758 2815 
Q 2500 3097 2075 3097 
Q 1594 3097 1305 2825 
Q 1016 2553 972 2059 
L 3022 2063 
z
" transform="scale(0.015625)"/>
      <path id="DejaVuSans-2d" d="M 313 2009 
L 1997 2009 
L 1997 1497 
L 313 1497 
L 313 2009 
z
" transform="scale(0.015625)"/>
      <path id="DejaVuSans-69" d="M 603 3500 
L 1178 3500 
L 1178 0 
L 603 0 
L 603 3500 
z
M 603 4863 
L 1178 4863 
L 1178 4134 
L 603 4134 
L 603 4863 
z
" transform="scale(0.015625)"/>
      <path id="DejaVuSans-76" d="M 191 3500 
L 800 3500 
L 1894 563 
L 2988 3500 
L 3597 3500 
L 2284 0 
L 1503 0 
L 191 3500 
z
" transform="scale(0.015625)"/>
      <path id="DejaVuSans-37" d="M 525 4666 
L 3525 4666 
L 3525 4397 
L 1831 0 
L 1172 0 
L 2766 4134 
L 525 4134 
L 525 4666 
z
" transform="scale(0.015625)"/>
     </defs>
     <use xlink:href="#DejaVuSans-73"/>
     <use xlink:href="#DejaVuSans-6f" x="52.099609"/>
     <use xlink:href="#DejaVuSans-75" x="113.28125"/>
     <use xlink:href="#DejaVuSans-72" x="176.660156"/>
     <use xlink:href="#DejaVuSans-63" x="215.523438"/>
     <use xlink:href="#DejaVuSans-65" x="270.503906"/>
     <use xlink:href="#DejaVuSans-32" x="332.027344"/>
     <use xlink:href="#DejaVuSans-30" x="395.650391"/>
     <use xlink:href="#DejaVuSans-2d" x="459.273438"/>
     <use xlink:href="#DejaVuSans-72" x="495.357422"/>
     <use xlink:href="#DejaVuSans-65" x="534.220703"/>
     <use xlink:href="#DejaVuSans-63" x="595.744141"/>
     <use xlink:href="#DejaVuSans-65" x="650.724609"/>
     <use xlink:href="#DejaVuSans-69" x="712.248047"/>
     <use xlink:href="#DejaVuSans-76" x="740.03125"/>
     <use xlink:href="#DejaVuSans-65" x="799.210938"/>
     <use xlink:href="#DejaVuSans-72" x="860.734375"/>
     <use xlink:href="#DejaVuSans-31" x="901.847656"/>
     <use xlink:href="#DejaVuSans-37" x="965.470703"/>
    </g>
   </g>
  </g>
 </g>
 <defs>
  <clipPath id="pc719e9f17c">
   <rect x="180" y="69.12" width="1116" height="443.52"/>
  </clipPath>
 </defs>
</svg>
