<?xml version="1.0" encoding="utf-8" standalone="no"?>
<!DOCTYPE svg PUBLIC "-//W3C//DTD SVG 1.1//EN"
  "http://www.w3.org/Graphics/SVG/1.1/DTD/svg11.dtd">
<svg xmlns:xlink="http://www.w3.org/1999/xlink" width="1440pt" height="576pt" viewBox="0 0 1440 576" xmlns="http://www.w3.org/2000/svg" version="1.1">
 <metadata>
  <rdf:RDF xmlns:dc="http://purl.org/dc/elements/1.1/" xmlns:cc="http://creativecommons.org/ns#" xmlns:rdf="http://www.w3.org/1999/02/22-rdf-syntax-ns#">
   <cc:Work>
    <dc:type rdf:resource="http://purl.org/dc/dcmitype/StillImage"/>
    <dc:date>2024-05-22T04:50:17.174409</dc:date>
    <dc:format>image/svg+xml</dc:format>
    <dc:creator>
     <cc:Agent>
      <dc:title>Matplotlib v3.8.3, https://matplotlib.org/</dc:title>
     </cc:Agent>
    </dc:creator>
   </cc:Work>
  </rdf:RDF>
 </metadata>
 <defs>
  <style type="text/css">*{stroke-linejoin: round; stroke-linecap: butt}</style>
 </defs>
 <g id="figure_1">
  <g id="patch_1">
   <path d="M 0 576 
L 1440 576 
L 1440 0 
L 0 0 
z
" style="fill: #ffffff"/>
  </g>
  <g id="axes_1">
   <g id="patch_2">
    <path d="M 180 512.64 
L 1296 512.64 
L 1296 69.12 
L 180 69.12 
z
" style="fill: #ffffff"/>
   </g>
   <g id="matplotlib.axis_1">
    <g id="xtick_1">
     <g id="line2d_1">
      <defs>
       <path id="m12693e6090" d="M 0 0 
L 0 3.5 
" style="stroke: #000000; stroke-width: 0.8"/>
      </defs>
      <g>
       <use xlink:href="#m12693e6090" x="229.734567" y="512.64" style="stroke: #000000; stroke-width: 0.8"/>
      </g>
     </g>
     <g id="text_1">
      <!-- 0 -->
      <g transform="translate(226.553317 527.238438) scale(0.1 -0.1)">
       <defs>
        <path id="DejaVuSans-30" d="M 2034 4250 
Q 1547 4250 1301 3770 
Q 1056 3291 1056 2328 
Q 1056 1369 1301 889 
Q 1547 409 2034 409 
Q 2525 409 2770 889 
Q 3016 1369 3016 2328 
Q 3016 3291 2770 3770 
Q 2525 4250 2034 4250 
z
M 2034 4750 
Q 2819 4750 3233 4129 
Q 3647 3509 3647 2328 
Q 3647 1150 3233 529 
Q 2819 -91 2034 -91 
Q 1250 -91 836 529 
Q 422 1150 422 2328 
Q 422 3509 836 4129 
Q 1250 4750 2034 4750 
z
" transform="scale(0.015625)"/>
       </defs>
       <use xlink:href="#DejaVuSans-30"/>
      </g>
     </g>
    </g>
    <g id="xtick_2">
     <g id="line2d_2">
      <g>
       <use xlink:href="#m12693e6090" x="433.04074" y="512.64" style="stroke: #000000; stroke-width: 0.8"/>
      </g>
     </g>
     <g id="text_2">
      <!-- 500 -->
      <g transform="translate(423.49699 527.238438) scale(0.1 -0.1)">
       <defs>
        <path id="DejaVuSans-35" d="M 691 4666 
L 3169 4666 
L 3169 4134 
L 1269 4134 
L 1269 2991 
Q 1406 3038 1543 3061 
Q 1681 3084 1819 3084 
Q 2600 3084 3056 2656 
Q 3513 2228 3513 1497 
Q 3513 744 3044 326 
Q 2575 -91 1722 -91 
Q 1428 -91 1123 -41 
Q 819 9 494 109 
L 494 744 
Q 775 591 1075 516 
Q 1375 441 1709 441 
Q 2250 441 2565 725 
Q 2881 1009 2881 1497 
Q 2881 1984 2565 2268 
Q 2250 2553 1709 2553 
Q 1456 2553 1204 2497 
Q 953 2441 691 2322 
L 691 4666 
z
" transform="scale(0.015625)"/>
       </defs>
       <use xlink:href="#DejaVuSans-35"/>
       <use xlink:href="#DejaVuSans-30" x="63.623047"/>
       <use xlink:href="#DejaVuSans-30" x="127.246094"/>
      </g>
     </g>
    </g>
    <g id="xtick_3">
     <g id="line2d_3">
      <g>
       <use xlink:href="#m12693e6090" x="636.346913" y="512.64" style="stroke: #000000; stroke-width: 0.8"/>
      </g>
     </g>
     <g id="text_3">
      <!-- 1000 -->
      <g transform="translate(623.621913 527.238438) scale(0.1 -0.1)">
       <defs>
        <path id="DejaVuSans-31" d="M 794 531 
L 1825 531 
L 1825 4091 
L 703 3866 
L 703 4441 
L 1819 4666 
L 2450 4666 
L 2450 531 
L 3481 531 
L 3481 0 
L 794 0 
L 794 531 
z
" transform="scale(0.015625)"/>
       </defs>
       <use xlink:href="#DejaVuSans-31"/>
       <use xlink:href="#DejaVuSans-30" x="63.623047"/>
       <use xlink:href="#DejaVuSans-30" x="127.246094"/>
       <use xlink:href="#DejaVuSans-30" x="190.869141"/>
      </g>
     </g>
    </g>
    <g id="xtick_4">
     <g id="line2d_4">
      <g>
       <use xlink:href="#m12693e6090" x="839.653087" y="512.64" style="stroke: #000000; stroke-width: 0.8"/>
      </g>
     </g>
     <g id="text_4">
      <!-- 1500 -->
      <g transform="translate(826.928087 527.238438) scale(0.1 -0.1)">
       <use xlink:href="#DejaVuSans-31"/>
       <use xlink:href="#DejaVuSans-35" x="63.623047"/>
       <use xlink:href="#DejaVuSans-30" x="127.246094"/>
       <use xlink:href="#DejaVuSans-30" x="190.869141"/>
      </g>
     </g>
    </g>
    <g id="xtick_5">
     <g id="line2d_5">
      <g>
       <use xlink:href="#m12693e6090" x="1042.95926" y="512.64" style="stroke: #000000; stroke-width: 0.8"/>
      </g>
     </g>
     <g id="text_5">
      <!-- 2000 -->
      <g transform="translate(1030.23426 527.238438) scale(0.1 -0.1)">
       <defs>
        <path id="DejaVuSans-32" d="M 1228 531 
L 3431 531 
L 3431 0 
L 469 0 
L 469 531 
Q 828 903 1448 1529 
Q 2069 2156 2228 2338 
Q 2531 2678 2651 2914 
Q 2772 3150 2772 3378 
Q 2772 3750 2511 3984 
Q 2250 4219 1831 4219 
Q 1534 4219 1204 4116 
Q 875 4013 500 3803 
L 500 4441 
Q 881 4594 1212 4672 
Q 1544 4750 1819 4750 
Q 2544 4750 2975 4387 
Q 3406 4025 3406 3419 
Q 3406 3131 3298 2873 
Q 3191 2616 2906 2266 
Q 2828 2175 2409 1742 
Q 1991 1309 1228 531 
z
" transform="scale(0.015625)"/>
       </defs>
       <use xlink:href="#DejaVuSans-32"/>
       <use xlink:href="#DejaVuSans-30" x="63.623047"/>
       <use xlink:href="#DejaVuSans-30" x="127.246094"/>
       <use xlink:href="#DejaVuSans-30" x="190.869141"/>
      </g>
     </g>
    </g>
    <g id="xtick_6">
     <g id="line2d_6">
      <g>
       <use xlink:href="#m12693e6090" x="1246.265433" y="512.64" style="stroke: #000000; stroke-width: 0.8"/>
      </g>
     </g>
     <g id="text_6">
      <!-- 2500 -->
      <g transform="translate(1233.540433 527.238438) scale(0.1 -0.1)">
       <use xlink:href="#DejaVuSans-32"/>
       <use xlink:href="#DejaVuSans-35" x="63.623047"/>
       <use xlink:href="#DejaVuSans-30" x="127.246094"/>
       <use xlink:href="#DejaVuSans-30" x="190.869141"/>
      </g>
     </g>
    </g>
   </g>
   <g id="matplotlib.axis_2">
    <g id="ytick_1">
     <g id="line2d_7">
      <defs>
       <path id="m3ffa41e75b" d="M 0 0 
L -3.5 0 
" style="stroke: #000000; stroke-width: 0.8"/>
      </defs>
      <g>
       <use xlink:href="#m3ffa41e75b" x="180" y="450.333767" style="stroke: #000000; stroke-width: 0.8"/>
      </g>
     </g>
     <g id="text_7">
      <!-- −4 -->
      <g transform="translate(158.257812 454.132986) scale(0.1 -0.1)">
       <defs>
        <path id="DejaVuSans-2212" d="M 678 2272 
L 4684 2272 
L 4684 1741 
L 678 1741 
L 678 2272 
z
" transform="scale(0.015625)"/>
        <path id="DejaVuSans-34" d="M 2419 4116 
L 825 1625 
L 2419 1625 
L 2419 4116 
z
M 2253 4666 
L 3047 4666 
L 3047 1625 
L 3713 1625 
L 3713 1100 
L 3047 1100 
L 3047 0 
L 2419 0 
L 2419 1100 
L 313 1100 
L 313 1709 
L 2253 4666 
z
" transform="scale(0.015625)"/>
       </defs>
       <use xlink:href="#DejaVuSans-2212"/>
       <use xlink:href="#DejaVuSans-34" x="83.789062"/>
      </g>
     </g>
    </g>
    <g id="ytick_2">
     <g id="line2d_8">
      <g>
       <use xlink:href="#m3ffa41e75b" x="180" y="378.040704" style="stroke: #000000; stroke-width: 0.8"/>
      </g>
     </g>
     <g id="text_8">
      <!-- −2 -->
      <g transform="translate(158.257812 381.839923) scale(0.1 -0.1)">
       <use xlink:href="#DejaVuSans-2212"/>
       <use xlink:href="#DejaVuSans-32" x="83.789062"/>
      </g>
     </g>
    </g>
    <g id="ytick_3">
     <g id="line2d_9">
      <g>
       <use xlink:href="#m3ffa41e75b" x="180" y="305.74764" style="stroke: #000000; stroke-width: 0.8"/>
      </g>
     </g>
     <g id="text_9">
      <!-- 0 -->
      <g transform="translate(166.6375 309.546859) scale(0.1 -0.1)">
       <use xlink:href="#DejaVuSans-30"/>
      </g>
     </g>
    </g>
    <g id="ytick_4">
     <g id="line2d_10">
      <g>
       <use xlink:href="#m3ffa41e75b" x="180" y="233.454577" style="stroke: #000000; stroke-width: 0.8"/>
      </g>
     </g>
     <g id="text_10">
      <!-- 2 -->
      <g transform="translate(166.6375 237.253796) scale(0.1 -0.1)">
       <use xlink:href="#DejaVuSans-32"/>
      </g>
     </g>
    </g>
    <g id="ytick_5">
     <g id="line2d_11">
      <g>
       <use xlink:href="#m3ffa41e75b" x="180" y="161.161514" style="stroke: #000000; stroke-width: 0.8"/>
      </g>
     </g>
     <g id="text_11">
      <!-- 4 -->
      <g transform="translate(166.6375 164.960732) scale(0.1 -0.1)">
       <use xlink:href="#DejaVuSans-34"/>
      </g>
     </g>
    </g>
    <g id="ytick_6">
     <g id="line2d_12">
      <g>
       <use xlink:href="#m3ffa41e75b" x="180" y="88.86845" style="stroke: #000000; stroke-width: 0.8"/>
      </g>
     </g>
     <g id="text_12">
      <!-- 6 -->
      <g transform="translate(166.6375 92.667669) scale(0.1 -0.1)">
       <defs>
        <path id="DejaVuSans-36" d="M 2113 2584 
Q 1688 2584 1439 2293 
Q 1191 2003 1191 1497 
Q 1191 994 1439 701 
Q 1688 409 2113 409 
Q 2538 409 2786 701 
Q 3034 994 3034 1497 
Q 3034 2003 2786 2293 
Q 2538 2584 2113 2584 
z
M 3366 4563 
L 3366 3988 
Q 3128 4100 2886 4159 
Q 2644 4219 2406 4219 
Q 1781 4219 1451 3797 
Q 1122 3375 1075 2522 
Q 1259 2794 1537 2939 
Q 1816 3084 2150 3084 
Q 2853 3084 3261 2657 
Q 3669 2231 3669 1497 
Q 3669 778 3244 343 
Q 2819 -91 2113 -91 
Q 1303 -91 875 529 
Q 447 1150 447 2328 
Q 447 3434 972 4092 
Q 1497 4750 2381 4750 
Q 2619 4750 2861 4703 
Q 3103 4656 3366 4563 
z
" transform="scale(0.015625)"/>
       </defs>
       <use xlink:href="#DejaVuSans-36"/>
      </g>
     </g>
    </g>
   </g>
   <g id="line2d_13">
    <path d="M 230.727273 290.614203 
L 231.719979 246.899176 
L 232.712685 331.10033 
L 233.70539 258.76591 
L 234.698096 277.620901 
L 235.690802 245.396863 
L 236.683508 430.241663 
L 237.676214 247.519344 
L 238.66892 298.540963 
L 239.661626 259.002702 
L 240.654332 272.544296 
L 241.647038 258.133371 
L 242.639744 282.092228 
L 243.63245 260.048034 
L 244.625156 346.916669 
L 245.617862 249.122303 
L 246.610568 237.4684 
L 247.603273 248.959115 
L 248.595979 266.457158 
L 249.588685 264.184968 
L 251.574097 236.321511 
L 252.566803 234.110386 
L 253.559509 191.672092 
L 254.552215 198.10224 
L 255.544921 263.011416 
L 256.537627 282.89666 
L 257.530333 209.929698 
L 258.523039 193.501689 
L 259.515745 180.479924 
L 260.50845 175.94921 
L 261.501156 211.387018 
L 262.493862 203.18564 
L 263.486568 234.359512 
L 264.479274 171.377961 
L 265.47198 172.143691 
L 266.464686 162.298151 
L 267.457392 167.014247 
L 268.450098 188.475088 
L 269.442804 176.227111 
L 270.43551 199.051544 
L 271.428216 180.687499 
L 272.420922 152.267385 
L 273.413627 137.41803 
L 274.406333 181.574929 
L 275.399039 152.922339 
L 276.391745 141.661392 
L 277.384451 135.441637 
L 279.369863 107.364582 
L 280.362569 105.228093 
L 281.355275 100.089783 
L 282.347981 93.81701 
L 283.340687 105.564598 
L 284.333393 120.85223 
L 285.326099 89.28 
L 286.318804 93.189293 
L 287.31151 160.131972 
L 288.304216 108.5611 
L 289.296922 123.311722 
L 290.289628 167.599937 
L 291.282334 144.295523 
L 292.27504 138.703987 
L 293.267746 143.173915 
L 294.260452 148.79824 
L 295.253158 147.202135 
L 296.245864 228.115858 
L 297.23857 174.356939 
L 298.231276 164.110308 
L 299.223981 167.558843 
L 300.216687 167.768036 
L 301.209393 167.669722 
L 302.202099 225.166065 
L 303.194805 187.407752 
L 304.187511 175.266373 
L 305.180217 180.042978 
L 306.172923 170.405402 
L 307.165629 178.239664 
L 308.158335 196.760547 
L 309.151041 228.457282 
L 310.143747 209.237577 
L 311.136453 196.904355 
L 312.129159 180.595304 
L 314.11457 208.508414 
L 315.107276 231.807916 
L 316.099982 261.727364 
L 317.092688 250.839937 
L 318.085394 218.708906 
L 320.070806 211.346551 
L 321.063512 221.052554 
L 322.056218 229.035718 
L 323.048924 242.537721 
L 324.04163 232.58886 
L 326.027041 225.136785 
L 327.019747 228.44322 
L 328.012453 222.022704 
L 329.005159 252.879371 
L 329.997865 298.48131 
L 330.990571 243.745931 
L 331.983277 220.783102 
L 332.975983 218.7409 
L 333.968689 220.028511 
L 334.961395 243.565351 
L 335.954101 292.517484 
L 336.946807 254.556212 
L 337.939513 234.248353 
L 338.932218 233.608708 
L 339.924924 237.660922 
L 340.91763 263.436177 
L 342.903042 288.597216 
L 344.888454 238.767739 
L 345.88116 237.940846 
L 346.873866 258.752058 
L 347.866572 253.03529 
L 348.859278 270.439832 
L 349.851984 243.78074 
L 350.84469 241.634011 
L 351.837395 252.002191 
L 352.830101 269.528058 
L 353.822807 245.029922 
L 354.815513 240.815264 
L 355.808219 246.173448 
L 356.800925 242.47072 
L 357.793631 228.157741 
L 358.786337 211.573189 
L 359.779043 212.053316 
L 360.771749 237.637576 
L 361.764455 255.279247 
L 362.757161 240.429174 
L 363.749867 280.984443 
L 364.742572 226.350291 
L 365.735278 206.842523 
L 366.727984 226.785983 
L 367.72069 251.257333 
L 368.713396 222.839074 
L 369.706102 236.065659 
L 370.698808 216.863982 
L 371.691514 218.751633 
L 372.68422 275.997618 
L 373.676926 242.086282 
L 374.669632 256.781531 
L 375.662338 245.528367 
L 376.655044 196.200148 
L 377.64775 184.383961 
L 378.640455 205.672125 
L 379.633161 211.504356 
L 380.625867 184.901767 
L 381.618573 186.607842 
L 382.611279 190.163444 
L 384.596691 161.265218 
L 385.589397 156.903302 
L 386.582103 157.859935 
L 387.574809 162.043218 
L 388.567515 176.731966 
L 389.560221 193.69641 
L 390.552927 195.554559 
L 391.545632 178.67799 
L 392.538338 199.576354 
L 393.531044 185.382278 
L 394.52375 162.224553 
L 395.516456 189.440405 
L 396.509162 176.450998 
L 397.501868 159.126086 
L 398.494574 184.942498 
L 399.48728 193.824807 
L 400.479986 186.300808 
L 401.472692 243.852679 
L 402.465398 204.789505 
L 403.458104 215.5761 
L 405.443515 211.995598 
L 406.436221 232.702284 
L 407.428927 234.930422 
L 409.414339 271.785599 
L 410.407045 265.885031 
L 411.399751 255.944352 
L 412.392457 265.618648 
L 413.385163 309.371293 
L 414.377869 242.2233 
L 415.370575 228.934975 
L 416.363281 238.472304 
L 417.355986 244.640814 
L 418.348692 238.275856 
L 419.341398 249.467162 
L 420.334104 292.920575 
L 421.32681 266.920597 
L 422.319516 264.366844 
L 423.312222 258.354954 
L 424.304928 241.254903 
L 425.297634 243.395264 
L 426.29034 267.75483 
L 427.283046 254.452204 
L 428.275752 285.412523 
L 429.268458 277.190475 
L 430.261163 260.151146 
L 431.253869 248.046915 
L 432.246575 248.69282 
L 433.239281 266.338136 
L 434.231987 276.663266 
L 435.224693 274.115821 
L 436.217399 288.476668 
L 437.210105 309.17833 
L 438.202811 286.372528 
L 439.195517 267.730263 
L 440.188223 262.665522 
L 441.180929 260.805121 
L 442.173635 269.067173 
L 443.166341 273.105013 
L 444.159046 254.712034 
L 445.151752 247.652939 
L 446.144458 255.878861 
L 447.137164 272.19724 
L 448.12987 319.235873 
L 449.122576 308.054476 
L 450.115282 290.492979 
L 451.107988 251.473809 
L 452.100694 238.592282 
L 453.0934 247.961543 
L 455.078812 317.066982 
L 456.071518 278.84764 
L 457.064223 288.6427 
L 458.056929 280.769361 
L 459.049635 260.847361 
L 460.042341 249.359055 
L 461.035047 247.298858 
L 462.027753 265.185371 
L 464.013165 241.935873 
L 465.998577 228.687203 
L 466.991283 231.944302 
L 467.983989 242.920869 
L 468.976695 235.736072 
L 469.9694 225.687193 
L 470.962106 231.995095 
L 471.954812 227.852566 
L 472.947518 230.894365 
L 473.940224 266.497517 
L 474.93293 279.433463 
L 476.918342 222.076962 
L 477.911048 217.399742 
L 478.903754 229.918257 
L 479.89646 244.070511 
L 480.889166 241.127751 
L 481.881872 247.929041 
L 482.874577 272.072526 
L 483.867283 237.987865 
L 484.859989 217.798019 
L 485.852695 202.482448 
L 486.845401 203.169233 
L 487.838107 220.487807 
L 488.830813 228.250574 
L 489.823519 221.439615 
L 490.816225 219.138859 
L 491.808931 228.716864 
L 492.801637 244.384767 
L 494.787049 218.2819 
L 495.779754 211.513323 
L 496.77246 223.425493 
L 497.765166 223.709707 
L 498.757872 204.46477 
L 499.750578 209.678624 
L 500.743284 253.546736 
L 501.73599 238.871896 
L 502.728696 216.051446 
L 503.721402 225.014311 
L 504.714108 256.692779 
L 505.706814 217.521276 
L 506.69952 228.484259 
L 507.692226 254.084735 
L 508.684932 213.900755 
L 509.677637 227.355176 
L 510.670343 238.430976 
L 511.663049 223.094488 
L 512.655755 245.134072 
L 513.648461 254.711896 
L 514.641167 244.056975 
L 515.633873 249.021016 
L 516.626579 252.875147 
L 517.619285 291.403535 
L 518.611991 277.390533 
L 519.604697 267.080772 
L 520.597403 259.11812 
L 521.590109 265.997298 
L 522.582814 299.072531 
L 523.57552 262.431147 
L 524.568226 267.187773 
L 525.560932 280.300434 
L 526.553638 263.89054 
L 527.546344 270.307246 
L 528.53905 308.419776 
L 529.531756 289.685898 
L 530.524462 279.893737 
L 531.517168 291.823994 
L 532.509874 297.556004 
L 533.50258 278.249646 
L 534.495286 293.174887 
L 535.487991 271.34136 
L 536.480697 267.04575 
L 537.473403 297.142813 
L 538.466109 300.95103 
L 539.458815 280.505792 
L 540.451521 280.130677 
L 541.444227 287.797651 
L 542.436933 268.730167 
L 543.429639 269.750644 
L 544.422345 299.117089 
L 545.415051 306.031992 
L 546.407757 298.393696 
L 547.400463 304.071631 
L 548.393168 316.844808 
L 549.385874 309.320832 
L 550.37858 309.023749 
L 551.371286 339.085411 
L 552.363992 312.664816 
L 553.356698 334.186805 
L 554.349404 284.656858 
L 555.34211 270.134723 
L 556.334816 277.383089 
L 557.327522 300.115484 
L 558.320228 305.660545 
L 559.312934 285.784204 
L 560.30564 285.787098 
L 561.298345 317.254107 
L 562.291051 362.93941 
L 563.283757 327.565121 
L 564.276463 297.11657 
L 565.269169 312.628864 
L 566.261875 414.453343 
L 567.254581 324.111775 
L 568.247287 281.357049 
L 569.239993 267.672856 
L 570.232699 259.293659 
L 571.225405 257.261122 
L 572.218111 263.083953 
L 573.210817 265.527234 
L 574.203523 265.308465 
L 575.196228 269.687715 
L 576.188934 276.692279 
L 577.18164 288.153834 
L 578.174346 287.534348 
L 579.167052 278.870047 
L 580.159758 285.535641 
L 581.152464 297.724221 
L 582.14517 299.447199 
L 583.137876 285.20496 
L 584.130582 273.412796 
L 585.123288 269.919044 
L 586.115994 259.65119 
L 587.1087 258.114272 
L 588.101405 268.483394 
L 589.094111 254.969925 
L 590.086817 234.632278 
L 591.079523 226.379219 
L 592.072229 226.189407 
L 593.064935 226.329856 
L 594.057641 222.344384 
L 595.050347 216.799382 
L 596.043053 219.084607 
L 597.035759 227.710057 
L 598.028465 232.635723 
L 599.021171 242.024434 
L 600.013877 260.089926 
L 601.006582 265.54925 
L 601.999288 254.358787 
L 602.991994 250.466224 
L 603.9847 244.138035 
L 604.977406 245.118814 
L 605.970112 281.579245 
L 606.962818 233.967217 
L 607.955524 226.015664 
L 608.94823 253.369806 
L 609.940936 242.779505 
L 610.933642 226.033899 
L 611.926348 241.044865 
L 612.919054 316.90171 
L 613.911759 242.727795 
L 614.904465 240.823542 
L 615.897171 265.800274 
L 616.889877 244.255809 
L 617.882583 236.856877 
L 618.875289 268.912347 
L 619.867995 235.294281 
L 620.860701 222.399457 
L 621.853407 242.379899 
L 622.846113 259.475562 
L 623.838819 244.83366 
L 624.831525 278.34379 
L 625.824231 254.090865 
L 626.816936 257.622503 
L 627.809642 287.770612 
L 628.802348 256.439553 
L 629.795054 256.620512 
L 630.78776 251.713675 
L 631.780466 253.154693 
L 632.773172 262.508419 
L 633.765878 260.271105 
L 634.758584 266.546863 
L 635.75129 262.2532 
L 636.743996 279.678849 
L 637.736702 293.130844 
L 638.729408 264.800513 
L 639.722114 269.503472 
L 640.714819 257.926635 
L 641.707525 255.528512 
L 642.700231 274.994853 
L 643.692937 289.606101 
L 644.685643 280.752444 
L 645.678349 289.166349 
L 646.671055 308.141597 
L 647.663761 322.073361 
L 648.656467 326.923806 
L 650.641879 268.219454 
L 651.634585 268.095181 
L 652.627291 278.393044 
L 653.619996 281.847879 
L 654.612702 308.364498 
L 655.605408 374.620341 
L 657.59082 328.290979 
L 658.583526 296.326397 
L 659.576232 281.217362 
L 660.568938 274.630217 
L 661.561644 277.524348 
L 663.547056 306.400194 
L 665.532468 285.152959 
L 666.525173 283.975215 
L 667.517879 290.441761 
L 668.510585 313.207944 
L 669.503291 313.308496 
L 670.495997 294.590606 
L 671.488703 300.323358 
L 672.481409 317.10465 
L 673.474115 345.798436 
L 674.466821 343.190942 
L 675.459527 295.033415 
L 676.452233 281.821703 
L 677.444939 281.288552 
L 678.437645 281.854944 
L 679.43035 276.042392 
L 680.423056 267.363182 
L 681.415762 261.096336 
L 682.408468 261.457368 
L 683.401174 268.566515 
L 684.39388 278.897386 
L 685.386586 283.426807 
L 686.379292 274.115188 
L 687.371998 267.383803 
L 688.364704 281.080402 
L 689.35741 306.347205 
L 690.350116 272.396282 
L 691.342822 264.940423 
L 692.335527 262.300996 
L 694.320939 248.034469 
L 695.313645 242.411185 
L 696.306351 238.892774 
L 697.299057 239.652002 
L 698.291763 246.664356 
L 699.284469 259.366944 
L 700.277175 263.296139 
L 701.269881 251.884868 
L 702.262587 246.731472 
L 703.255293 253.938346 
L 704.247999 271.128236 
L 705.240705 282.549533 
L 706.23341 274.150044 
L 708.218822 249.496769 
L 709.211528 244.260651 
L 710.204234 246.716813 
L 712.189646 263.664653 
L 714.175058 271.403548 
L 715.167764 276.031639 
L 716.16047 261.450984 
L 717.153176 256.559847 
L 718.145882 278.787432 
L 720.131293 245.343722 
L 721.123999 252.25345 
L 723.109411 241.147991 
L 724.102117 261.564435 
L 725.094823 285.395373 
L 726.087529 261.605129 
L 727.080235 277.116754 
L 728.072941 279.825209 
L 729.065647 252.569976 
L 730.058353 251.138389 
L 731.051059 271.110046 
L 732.043764 265.433216 
L 733.03647 257.364346 
L 734.029176 282.749869 
L 735.021882 289.453441 
L 736.014588 283.530569 
L 737.007294 324.618383 
L 738 266.564924 
L 738.992706 265.094826 
L 739.985412 266.649925 
L 740.978118 261.330304 
L 741.970824 272.2356 
L 742.96353 288.394648 
L 743.956236 293.471882 
L 744.948941 286.231626 
L 745.941647 297.286859 
L 746.934353 295.773193 
L 747.927059 273.439704 
L 748.919765 274.943646 
L 749.912471 266.681739 
L 750.905177 257.279013 
L 751.897883 266.798948 
L 752.890589 296.086678 
L 753.883295 334.553145 
L 754.876001 332.16695 
L 755.868707 295.421207 
L 756.861413 282.882253 
L 757.854118 279.911638 
L 758.846824 294.305633 
L 759.83953 323.996299 
L 760.832236 327.622944 
L 761.824942 356.755285 
L 762.817648 301.566485 
L 763.810354 286.58626 
L 764.80306 284.257191 
L 765.795766 285.038582 
L 766.788472 290.756847 
L 767.781178 298.240485 
L 768.773884 307.848897 
L 769.76659 301.240866 
L 770.759295 290.97939 
L 771.752001 296.614705 
L 772.744707 306.720345 
L 773.737413 311.517686 
L 774.730119 309.662651 
L 775.722825 293.85858 
L 776.715531 279.904795 
L 777.708237 281.388259 
L 778.700943 291.481993 
L 782.671767 264.729864 
L 783.664473 270.682488 
L 784.657178 294.643771 
L 785.649884 361.72438 
L 786.64259 331.398801 
L 787.635296 312.827978 
L 788.628002 290.762023 
L 789.620708 286.090981 
L 790.613414 293.159921 
L 791.60612 295.97151 
L 792.598826 295.264909 
L 793.591532 297.250756 
L 794.584238 294.471902 
L 795.576944 295.859461 
L 796.56965 300.176206 
L 797.562355 301.943292 
L 798.555061 328.558862 
L 799.547767 326.87812 
L 800.540473 298.157168 
L 801.533179 273.752659 
L 802.525885 254.855842 
L 803.518591 249.48522 
L 804.511297 254.009571 
L 805.504003 261.478386 
L 806.496709 265.007115 
L 807.489415 265.516594 
L 808.482121 268.408641 
L 809.474827 280.181665 
L 810.467532 305.977109 
L 811.460238 316.621829 
L 812.452944 321.958716 
L 813.44565 297.237508 
L 814.438356 287.257592 
L 815.431062 297.820477 
L 816.423768 313.977434 
L 817.416474 319.105828 
L 818.40918 294.401867 
L 819.401886 283.572503 
L 820.394592 278.720706 
L 821.387298 278.125128 
L 822.380004 285.721271 
L 823.372709 291.576612 
L 824.365415 294.525385 
L 825.358121 293.339401 
L 826.350827 298.395575 
L 827.343533 323.884058 
L 828.336239 311.260021 
L 829.328945 314.575991 
L 830.321651 284.597336 
L 831.314357 264.335912 
L 832.307063 265.091669 
L 833.299769 274.249856 
L 834.292475 268.345657 
L 835.285181 273.75691 
L 836.277886 305.146475 
L 837.270592 285.151704 
L 838.263298 293.401581 
L 839.256004 318.852671 
L 840.24871 279.876763 
L 841.241416 284.474866 
L 842.234122 313.13391 
L 843.226828 293.313475 
L 844.219534 291.511871 
L 846.204946 352.636228 
L 847.197652 337.612183 
L 848.190358 355.741025 
L 849.183064 320.127422 
L 850.175769 319.786975 
L 851.168475 308.673674 
L 852.161181 309.51312 
L 854.146593 290.666811 
L 855.139299 304.37476 
L 856.132005 353.700123 
L 857.124711 351.046166 
L 858.117417 324.948323 
L 859.110123 293.749652 
L 860.102829 285.588829 
L 861.095535 283.100815 
L 862.088241 279.593919 
L 863.080946 280.531138 
L 864.073652 282.276977 
L 865.066358 283.441709 
L 866.059064 292.735364 
L 867.05177 310.049652 
L 868.044476 309.541762 
L 869.037182 288.771334 
L 870.029888 276.475039 
L 871.022594 277.837752 
L 872.0153 290.091711 
L 873.008006 307.313892 
L 874.000712 329.545532 
L 874.993418 377.43777 
L 875.986123 339.408738 
L 876.978829 320.951991 
L 877.971535 350.404785 
L 878.964241 340.161281 
L 879.956947 308.549846 
L 880.949653 297.372815 
L 881.942359 292.229957 
L 882.935065 291.927172 
L 883.927771 297.468163 
L 884.920477 304.57874 
L 885.913183 298.534304 
L 886.905889 291.513721 
L 887.898595 293.472934 
L 888.8913 295.736183 
L 889.884006 302.840663 
L 890.876712 308.979397 
L 891.869418 296.114299 
L 892.862124 286.741322 
L 893.85483 283.561289 
L 894.847536 287.759157 
L 895.840242 298.4006 
L 896.832948 327.393688 
L 897.825654 365.267557 
L 898.81836 334.20042 
L 899.811066 375.179293 
L 900.803772 323.899988 
L 901.796477 304.421592 
L 902.789183 291.858381 
L 903.781889 289.505203 
L 904.774595 295.689491 
L 905.767301 293.714274 
L 906.760007 285.429899 
L 907.752713 283.892622 
L 908.745419 291.554275 
L 909.738125 313.555937 
L 910.730831 347.548736 
L 911.723537 303.86338 
L 912.716243 299.305847 
L 913.708949 311.179126 
L 914.701655 317.538913 
L 915.69436 320.250862 
L 916.687066 326.194877 
L 917.679772 319.247404 
L 918.672478 301.425501 
L 919.665184 288.605282 
L 920.65789 284.491898 
L 921.650596 287.108999 
L 923.636008 305.002818 
L 924.628714 297.586486 
L 925.62142 287.157284 
L 926.614126 287.879102 
L 927.606832 299.19184 
L 928.599537 313.353487 
L 929.592243 341.459118 
L 930.584949 343.657008 
L 931.577655 307.09712 
L 932.570361 299.924725 
L 933.563067 307.443146 
L 934.555773 331.114711 
L 935.548479 338.513222 
L 936.541185 320.500875 
L 937.533891 311.459479 
L 938.526597 334.559046 
L 939.519303 294.235526 
L 940.512009 280.842085 
L 941.504714 296.516933 
L 942.49742 309.026823 
L 943.490126 292.704345 
L 944.482832 317.428545 
L 945.475538 297.770968 
L 946.468244 282.087708 
L 947.46095 294.06135 
L 948.453656 341.421294 
L 949.446362 314.666216 
L 950.439068 318.79003 
L 951.431774 328.572635 
L 952.42448 294.214559 
L 953.417186 305.053018 
L 954.409891 339.541588 
L 955.402597 294.56963 
L 957.388009 321.017938 
L 958.380715 303.767132 
L 959.373421 324.134586 
L 960.366127 363.693595 
L 961.358833 492.48 
L 962.351539 327.064832 
L 963.344245 317.469003 
L 964.336951 322.652621 
L 965.329657 298.829975 
L 966.322363 294.040725 
L 967.315068 306.190683 
L 968.307774 308.141793 
L 969.30048 308.670739 
L 970.293186 330.258616 
L 971.285892 363.299591 
L 972.278598 339.902563 
L 973.271304 309.153801 
L 974.26401 298.300954 
L 976.249422 308.8042 
L 977.242128 307.811081 
L 978.234834 333.21359 
L 979.22754 350.657917 
L 980.220246 319.456931 
L 981.212951 317.53798 
L 982.205657 324.021941 
L 983.198363 332.051831 
L 985.183775 314.32169 
L 986.176481 298.259472 
L 987.169187 293.662593 
L 988.161893 307.066298 
L 989.154599 337.91217 
L 990.147305 340.672363 
L 991.140011 299.594695 
L 992.132717 284.626826 
L 993.125423 282.410167 
L 994.118128 285.959636 
L 995.110834 294.852506 
L 996.10354 309.125314 
L 997.096246 330.980498 
L 998.088952 348.469632 
L 999.081658 361.669085 
L 1000.074364 349.053583 
L 1001.06707 334.222848 
L 1002.059776 362.393753 
L 1003.052482 335.067412 
L 1004.045188 320.503967 
L 1005.037894 342.439073 
L 1006.0306 422.684141 
L 1007.023305 351.009701 
L 1008.016011 318.455039 
L 1009.008717 307.758501 
L 1010.001423 310.435173 
L 1010.994129 316.529872 
L 1012.979541 300.553645 
L 1013.972247 302.532464 
L 1014.964953 308.379489 
L 1015.957659 304.171932 
L 1016.950365 294.897056 
L 1017.943071 295.185352 
L 1018.935777 305.178754 
L 1019.928482 298.826582 
L 1020.921188 294.670333 
L 1021.913894 305.512234 
L 1022.9066 334.740591 
L 1023.899306 340.627229 
L 1024.892012 323.916756 
L 1025.884718 318.600261 
L 1026.877424 320.687783 
L 1027.87013 338.51672 
L 1028.862836 409.442491 
L 1029.855542 347.196043 
L 1030.848248 339.013324 
L 1031.840954 318.737177 
L 1032.833659 306.349741 
L 1033.826365 304.098469 
L 1034.819071 306.447157 
L 1035.811777 311.313871 
L 1036.804483 313.714055 
L 1037.797189 311.95527 
L 1038.789895 318.119781 
L 1039.782601 340.812478 
L 1040.775307 354.412955 
L 1041.768013 331.253631 
L 1042.760719 328.502023 
L 1043.753425 331.194354 
L 1044.746131 320.197057 
L 1045.738837 318.374575 
L 1046.731542 335.172146 
L 1047.724248 317.105085 
L 1048.716954 296.278488 
L 1049.70966 295.810262 
L 1050.702366 309.280685 
L 1051.695072 303.773967 
L 1052.687778 303.980343 
L 1053.680484 331.512203 
L 1054.67319 307.02305 
L 1055.665896 296.527378 
L 1056.658602 315.975629 
L 1057.651308 366.250441 
L 1058.644014 321.560357 
L 1059.636719 360.255377 
L 1060.629425 307.423833 
L 1061.622131 291.723379 
L 1062.614837 307.898354 
L 1063.607543 327.284417 
L 1064.600249 302.224912 
L 1065.592955 316.192563 
L 1066.585661 326.54527 
L 1067.578367 309.210266 
L 1068.571073 333.041719 
L 1069.563779 366.996775 
L 1070.556485 348.816674 
L 1071.549191 349.676871 
L 1072.541896 330.422645 
L 1073.534602 326.855994 
L 1074.527308 320.165861 
L 1075.520014 318.966286 
L 1076.51272 307.48621 
L 1077.505426 299.553569 
L 1078.498132 306.95192 
L 1079.490838 322.441014 
L 1080.483544 324.094053 
L 1081.47625 335.540494 
L 1082.468956 334.057179 
L 1083.461662 323.520993 
L 1084.454368 325.346165 
L 1085.447073 323.171868 
L 1086.439779 335.32166 
L 1087.432485 392.705748 
L 1088.425191 330.849662 
L 1089.417897 314.246728 
L 1090.410603 303.106349 
L 1091.403309 303.572502 
L 1092.396015 321.549512 
L 1093.388721 341.982002 
L 1094.381427 373.819711 
L 1095.374133 330.250456 
L 1096.366839 313.03997 
L 1097.359545 314.433899 
L 1098.35225 314.253522 
L 1100.337662 333.209598 
L 1101.330368 311.481928 
L 1104.308486 289.740336 
L 1105.301192 294.242463 
L 1106.293898 313.310379 
L 1107.286604 322.445461 
L 1108.27931 322.688048 
L 1109.272016 342.807427 
L 1110.264722 375.475056 
L 1111.257428 365.943656 
L 1112.250133 315.747676 
L 1113.242839 300.678284 
L 1114.235545 301.648142 
L 1115.228251 307.347519 
L 1116.220957 309.157203 
L 1117.213663 307.390963 
L 1118.206369 302.223078 
L 1119.199075 301.842487 
L 1120.191781 313.391981 
L 1121.184487 332.915009 
L 1122.177193 321.443546 
L 1123.169899 313.682855 
L 1124.162605 323.242557 
L 1126.148016 368.239475 
L 1127.140722 359.485588 
L 1128.133428 312.133132 
L 1129.126134 297.403535 
L 1130.11884 300.959359 
L 1131.111546 320.106493 
L 1132.104252 324.035961 
L 1133.096958 323.892522 
L 1134.089664 336.166939 
L 1135.08237 339.887 
L 1136.075076 330.129859 
L 1137.067782 324.930905 
L 1138.060487 330.60963 
L 1139.053193 342.174828 
L 1140.045899 348.501184 
L 1141.038605 349.767351 
L 1142.031311 357.983985 
L 1143.024017 356.590207 
L 1145.009429 321.424595 
L 1146.002135 316.289138 
L 1146.994841 325.93987 
L 1147.987547 337.453292 
L 1148.980253 357.189895 
L 1149.972959 360.427037 
L 1150.965664 337.885287 
L 1151.95837 339.36083 
L 1152.951076 342.563798 
L 1153.943782 329.457685 
L 1154.936488 320.724536 
L 1155.929194 313.109727 
L 1156.9219 304.131256 
L 1157.914606 303.988624 
L 1158.907312 312.096041 
L 1159.900018 312.118709 
L 1160.892724 316.875283 
L 1161.88543 335.615192 
L 1162.878136 323.929668 
L 1163.870841 321.8596 
L 1164.863547 360.720197 
L 1165.856253 337.726248 
L 1166.848959 324.203409 
L 1167.841665 334.439648 
L 1168.834371 315.560853 
L 1169.827077 305.7035 
L 1170.819783 312.607262 
L 1171.812489 330.88624 
L 1172.805195 313.292436 
L 1173.797901 305.310416 
L 1174.790607 316.702082 
L 1175.783313 318.036059 
L 1176.776019 321.714538 
L 1178.76143 385.265319 
L 1179.754136 328.35316 
L 1180.746842 309.90194 
L 1182.732254 326.317927 
L 1183.72496 331.464402 
L 1184.717666 348.067863 
L 1185.710372 303.238383 
L 1186.703078 297.184513 
L 1187.695784 306.837582 
L 1188.68849 306.492224 
L 1189.681196 308.67333 
L 1190.673901 326.925644 
L 1191.666607 335.406214 
L 1192.659313 317.77257 
L 1193.652019 302.952038 
L 1194.644725 303.237246 
L 1195.637431 321.872424 
L 1196.630137 334.645075 
L 1197.622843 366.651754 
L 1198.615549 329.417122 
L 1199.608255 305.306172 
L 1200.600961 309.003046 
L 1201.593667 316.490258 
L 1202.586373 309.199407 
L 1203.579078 308.234538 
L 1204.571784 314.671091 
L 1205.56449 319.664746 
L 1207.549902 305.612605 
L 1208.542608 312.272039 
L 1209.535314 328.939113 
L 1210.52802 321.72567 
L 1211.520726 340.419697 
L 1212.513432 350.083011 
L 1213.506138 317.132291 
L 1214.498844 326.448213 
L 1215.49155 358.707324 
L 1216.484255 326.593195 
L 1217.476961 329.398211 
L 1218.469667 387.939538 
L 1219.462373 322.378882 
L 1220.455079 306.10289 
L 1221.447785 309.913719 
L 1222.440491 325.99929 
L 1223.433197 331.923512 
L 1224.425903 327.231055 
L 1225.418609 326.783377 
L 1226.411315 335.322947 
L 1227.404021 354.082657 
L 1228.396727 358.778681 
L 1230.382138 310.629314 
L 1231.374844 295.348606 
L 1232.36755 292.031536 
L 1234.352962 295.919583 
L 1235.345668 304.381689 
L 1237.33108 345.205979 
L 1238.323786 345.724193 
L 1239.316492 334.507437 
L 1240.309198 327.706888 
L 1241.301904 328.375306 
L 1242.29461 335.354458 
L 1243.287315 344.846397 
L 1244.280021 340.45172 
L 1245.272727 343.767946 
L 1245.272727 343.767946 
" clip-path="url(#pe0a3eb1119)" style="fill: none; stroke: #1f77b4; stroke-width: 1.5; stroke-linecap: square"/>
   </g>
   <g id="patch_3">
    <path d="M 180 512.64 
L 180 69.12 
" style="fill: none; stroke: #000000; stroke-width: 0.8; stroke-linejoin: miter; stroke-linecap: square"/>
   </g>
   <g id="patch_4">
    <path d="M 1296 512.64 
L 1296 69.12 
" style="fill: none; stroke: #000000; stroke-width: 0.8; stroke-linejoin: miter; stroke-linecap: square"/>
   </g>
   <g id="patch_5">
    <path d="M 180 512.64 
L 1296 512.64 
" style="fill: none; stroke: #000000; stroke-width: 0.8; stroke-linejoin: miter; stroke-linecap: square"/>
   </g>
   <g id="patch_6">
    <path d="M 180 69.12 
L 1296 69.12 
" style="fill: none; stroke: #000000; stroke-width: 0.8; stroke-linejoin: miter; stroke-linecap: square"/>
   </g>
   <g id="text_13">
    <!-- source20-receiver2 -->
    <g transform="translate(544.9 60.80125) scale(0.4 -0.4)">
     <defs>
      <path id="DejaVuSans-73" d="M 2834 3397 
L 2834 2853 
Q 2591 2978 2328 3040 
Q 2066 3103 1784 3103 
Q 1356 3103 1142 2972 
Q 928 2841 928 2578 
Q 928 2378 1081 2264 
Q 1234 2150 1697 2047 
L 1894 2003 
Q 2506 1872 2764 1633 
Q 3022 1394 3022 966 
Q 3022 478 2636 193 
Q 2250 -91 1575 -91 
Q 1294 -91 989 -36 
Q 684 19 347 128 
L 347 722 
Q 666 556 975 473 
Q 1284 391 1588 391 
Q 1994 391 2212 530 
Q 2431 669 2431 922 
Q 2431 1156 2273 1281 
Q 2116 1406 1581 1522 
L 1381 1569 
Q 847 1681 609 1914 
Q 372 2147 372 2553 
Q 372 3047 722 3315 
Q 1072 3584 1716 3584 
Q 2034 3584 2315 3537 
Q 2597 3491 2834 3397 
z
" transform="scale(0.015625)"/>
      <path id="DejaVuSans-6f" d="M 1959 3097 
Q 1497 3097 1228 2736 
Q 959 2375 959 1747 
Q 959 1119 1226 758 
Q 1494 397 1959 397 
Q 2419 397 2687 759 
Q 2956 1122 2956 1747 
Q 2956 2369 2687 2733 
Q 2419 3097 1959 3097 
z
M 1959 3584 
Q 2709 3584 3137 3096 
Q 3566 2609 3566 1747 
Q 3566 888 3137 398 
Q 2709 -91 1959 -91 
Q 1206 -91 779 398 
Q 353 888 353 1747 
Q 353 2609 779 3096 
Q 1206 3584 1959 3584 
z
" transform="scale(0.015625)"/>
      <path id="DejaVuSans-75" d="M 544 1381 
L 544 3500 
L 1119 3500 
L 1119 1403 
Q 1119 906 1312 657 
Q 1506 409 1894 409 
Q 2359 409 2629 706 
Q 2900 1003 2900 1516 
L 2900 3500 
L 3475 3500 
L 3475 0 
L 2900 0 
L 2900 538 
Q 2691 219 2414 64 
Q 2138 -91 1772 -91 
Q 1169 -91 856 284 
Q 544 659 544 1381 
z
M 1991 3584 
L 1991 3584 
z
" transform="scale(0.015625)"/>
      <path id="DejaVuSans-72" d="M 2631 2963 
Q 2534 3019 2420 3045 
Q 2306 3072 2169 3072 
Q 1681 3072 1420 2755 
Q 1159 2438 1159 1844 
L 1159 0 
L 581 0 
L 581 3500 
L 1159 3500 
L 1159 2956 
Q 1341 3275 1631 3429 
Q 1922 3584 2338 3584 
Q 2397 3584 2469 3576 
Q 2541 3569 2628 3553 
L 2631 2963 
z
" transform="scale(0.015625)"/>
      <path id="DejaVuSans-63" d="M 3122 3366 
L 3122 2828 
Q 2878 2963 2633 3030 
Q 2388 3097 2138 3097 
Q 1578 3097 1268 2742 
Q 959 2388 959 1747 
Q 959 1106 1268 751 
Q 1578 397 2138 397 
Q 2388 397 2633 464 
Q 2878 531 3122 666 
L 3122 134 
Q 2881 22 2623 -34 
Q 2366 -91 2075 -91 
Q 1284 -91 818 406 
Q 353 903 353 1747 
Q 353 2603 823 3093 
Q 1294 3584 2113 3584 
Q 2378 3584 2631 3529 
Q 2884 3475 3122 3366 
z
" transform="scale(0.015625)"/>
      <path id="DejaVuSans-65" d="M 3597 1894 
L 3597 1613 
L 953 1613 
Q 991 1019 1311 708 
Q 1631 397 2203 397 
Q 2534 397 2845 478 
Q 3156 559 3463 722 
L 3463 178 
Q 3153 47 2828 -22 
Q 2503 -91 2169 -91 
Q 1331 -91 842 396 
Q 353 884 353 1716 
Q 353 2575 817 3079 
Q 1281 3584 2069 3584 
Q 2775 3584 3186 3129 
Q 3597 2675 3597 1894 
z
M 3022 2063 
Q 3016 2534 2758 2815 
Q 2500 3097 2075 3097 
Q 1594 3097 1305 2825 
Q 1016 2553 972 2059 
L 3022 2063 
z
" transform="scale(0.015625)"/>
      <path id="DejaVuSans-2d" d="M 313 2009 
L 1997 2009 
L 1997 1497 
L 313 1497 
L 313 2009 
z
" transform="scale(0.015625)"/>
      <path id="DejaVuSans-69" d="M 603 3500 
L 1178 3500 
L 1178 0 
L 603 0 
L 603 3500 
z
M 603 4863 
L 1178 4863 
L 1178 4134 
L 603 4134 
L 603 4863 
z
" transform="scale(0.015625)"/>
      <path id="DejaVuSans-76" d="M 191 3500 
L 800 3500 
L 1894 563 
L 2988 3500 
L 3597 3500 
L 2284 0 
L 1503 0 
L 191 3500 
z
" transform="scale(0.015625)"/>
     </defs>
     <use xlink:href="#DejaVuSans-73"/>
     <use xlink:href="#DejaVuSans-6f" x="52.099609"/>
     <use xlink:href="#DejaVuSans-75" x="113.28125"/>
     <use xlink:href="#DejaVuSans-72" x="176.660156"/>
     <use xlink:href="#DejaVuSans-63" x="215.523438"/>
     <use xlink:href="#DejaVuSans-65" x="270.503906"/>
     <use xlink:href="#DejaVuSans-32" x="332.027344"/>
     <use xlink:href="#DejaVuSans-30" x="395.650391"/>
     <use xlink:href="#DejaVuSans-2d" x="459.273438"/>
     <use xlink:href="#DejaVuSans-72" x="495.357422"/>
     <use xlink:href="#DejaVuSans-65" x="534.220703"/>
     <use xlink:href="#DejaVuSans-63" x="595.744141"/>
     <use xlink:href="#DejaVuSans-65" x="650.724609"/>
     <use xlink:href="#DejaVuSans-69" x="712.248047"/>
     <use xlink:href="#DejaVuSans-76" x="740.03125"/>
     <use xlink:href="#DejaVuSans-65" x="799.210938"/>
     <use xlink:href="#DejaVuSans-72" x="860.734375"/>
     <use xlink:href="#DejaVuSans-32" x="901.847656"/>
    </g>
   </g>
  </g>
 </g>
 <defs>
  <clipPath id="pe0a3eb1119">
   <rect x="180" y="69.12" width="1116" height="443.52"/>
  </clipPath>
 </defs>
</svg>
