<?xml version="1.0" encoding="utf-8" standalone="no"?>
<!DOCTYPE svg PUBLIC "-//W3C//DTD SVG 1.1//EN"
  "http://www.w3.org/Graphics/SVG/1.1/DTD/svg11.dtd">
<svg xmlns:xlink="http://www.w3.org/1999/xlink" width="1440pt" height="576pt" viewBox="0 0 1440 576" xmlns="http://www.w3.org/2000/svg" version="1.1">
 <metadata>
  <rdf:RDF xmlns:dc="http://purl.org/dc/elements/1.1/" xmlns:cc="http://creativecommons.org/ns#" xmlns:rdf="http://www.w3.org/1999/02/22-rdf-syntax-ns#">
   <cc:Work>
    <dc:type rdf:resource="http://purl.org/dc/dcmitype/StillImage"/>
    <dc:date>2024-05-22T04:50:17.258644</dc:date>
    <dc:format>image/svg+xml</dc:format>
    <dc:creator>
     <cc:Agent>
      <dc:title>Matplotlib v3.8.3, https://matplotlib.org/</dc:title>
     </cc:Agent>
    </dc:creator>
   </cc:Work>
  </rdf:RDF>
 </metadata>
 <defs>
  <style type="text/css">*{stroke-linejoin: round; stroke-linecap: butt}</style>
 </defs>
 <g id="figure_1">
  <g id="patch_1">
   <path d="M 0 576 
L 1440 576 
L 1440 0 
L 0 0 
z
" style="fill: #ffffff"/>
  </g>
  <g id="axes_1">
   <g id="patch_2">
    <path d="M 180 512.64 
L 1296 512.64 
L 1296 69.12 
L 180 69.12 
z
" style="fill: #ffffff"/>
   </g>
   <g id="matplotlib.axis_1">
    <g id="xtick_1">
     <g id="line2d_1">
      <defs>
       <path id="m6a085c0387" d="M 0 0 
L 0 3.5 
" style="stroke: #000000; stroke-width: 0.8"/>
      </defs>
      <g>
       <use xlink:href="#m6a085c0387" x="229.734567" y="512.64" style="stroke: #000000; stroke-width: 0.8"/>
      </g>
     </g>
     <g id="text_1">
      <!-- 0 -->
      <g transform="translate(226.553317 527.238438) scale(0.1 -0.1)">
       <defs>
        <path id="DejaVuSans-30" d="M 2034 4250 
Q 1547 4250 1301 3770 
Q 1056 3291 1056 2328 
Q 1056 1369 1301 889 
Q 1547 409 2034 409 
Q 2525 409 2770 889 
Q 3016 1369 3016 2328 
Q 3016 3291 2770 3770 
Q 2525 4250 2034 4250 
z
M 2034 4750 
Q 2819 4750 3233 4129 
Q 3647 3509 3647 2328 
Q 3647 1150 3233 529 
Q 2819 -91 2034 -91 
Q 1250 -91 836 529 
Q 422 1150 422 2328 
Q 422 3509 836 4129 
Q 1250 4750 2034 4750 
z
" transform="scale(0.015625)"/>
       </defs>
       <use xlink:href="#DejaVuSans-30"/>
      </g>
     </g>
    </g>
    <g id="xtick_2">
     <g id="line2d_2">
      <g>
       <use xlink:href="#m6a085c0387" x="433.04074" y="512.64" style="stroke: #000000; stroke-width: 0.8"/>
      </g>
     </g>
     <g id="text_2">
      <!-- 500 -->
      <g transform="translate(423.49699 527.238438) scale(0.1 -0.1)">
       <defs>
        <path id="DejaVuSans-35" d="M 691 4666 
L 3169 4666 
L 3169 4134 
L 1269 4134 
L 1269 2991 
Q 1406 3038 1543 3061 
Q 1681 3084 1819 3084 
Q 2600 3084 3056 2656 
Q 3513 2228 3513 1497 
Q 3513 744 3044 326 
Q 2575 -91 1722 -91 
Q 1428 -91 1123 -41 
Q 819 9 494 109 
L 494 744 
Q 775 591 1075 516 
Q 1375 441 1709 441 
Q 2250 441 2565 725 
Q 2881 1009 2881 1497 
Q 2881 1984 2565 2268 
Q 2250 2553 1709 2553 
Q 1456 2553 1204 2497 
Q 953 2441 691 2322 
L 691 4666 
z
" transform="scale(0.015625)"/>
       </defs>
       <use xlink:href="#DejaVuSans-35"/>
       <use xlink:href="#DejaVuSans-30" x="63.623047"/>
       <use xlink:href="#DejaVuSans-30" x="127.246094"/>
      </g>
     </g>
    </g>
    <g id="xtick_3">
     <g id="line2d_3">
      <g>
       <use xlink:href="#m6a085c0387" x="636.346913" y="512.64" style="stroke: #000000; stroke-width: 0.8"/>
      </g>
     </g>
     <g id="text_3">
      <!-- 1000 -->
      <g transform="translate(623.621913 527.238438) scale(0.1 -0.1)">
       <defs>
        <path id="DejaVuSans-31" d="M 794 531 
L 1825 531 
L 1825 4091 
L 703 3866 
L 703 4441 
L 1819 4666 
L 2450 4666 
L 2450 531 
L 3481 531 
L 3481 0 
L 794 0 
L 794 531 
z
" transform="scale(0.015625)"/>
       </defs>
       <use xlink:href="#DejaVuSans-31"/>
       <use xlink:href="#DejaVuSans-30" x="63.623047"/>
       <use xlink:href="#DejaVuSans-30" x="127.246094"/>
       <use xlink:href="#DejaVuSans-30" x="190.869141"/>
      </g>
     </g>
    </g>
    <g id="xtick_4">
     <g id="line2d_4">
      <g>
       <use xlink:href="#m6a085c0387" x="839.653087" y="512.64" style="stroke: #000000; stroke-width: 0.8"/>
      </g>
     </g>
     <g id="text_4">
      <!-- 1500 -->
      <g transform="translate(826.928087 527.238438) scale(0.1 -0.1)">
       <use xlink:href="#DejaVuSans-31"/>
       <use xlink:href="#DejaVuSans-35" x="63.623047"/>
       <use xlink:href="#DejaVuSans-30" x="127.246094"/>
       <use xlink:href="#DejaVuSans-30" x="190.869141"/>
      </g>
     </g>
    </g>
    <g id="xtick_5">
     <g id="line2d_5">
      <g>
       <use xlink:href="#m6a085c0387" x="1042.95926" y="512.64" style="stroke: #000000; stroke-width: 0.8"/>
      </g>
     </g>
     <g id="text_5">
      <!-- 2000 -->
      <g transform="translate(1030.23426 527.238438) scale(0.1 -0.1)">
       <defs>
        <path id="DejaVuSans-32" d="M 1228 531 
L 3431 531 
L 3431 0 
L 469 0 
L 469 531 
Q 828 903 1448 1529 
Q 2069 2156 2228 2338 
Q 2531 2678 2651 2914 
Q 2772 3150 2772 3378 
Q 2772 3750 2511 3984 
Q 2250 4219 1831 4219 
Q 1534 4219 1204 4116 
Q 875 4013 500 3803 
L 500 4441 
Q 881 4594 1212 4672 
Q 1544 4750 1819 4750 
Q 2544 4750 2975 4387 
Q 3406 4025 3406 3419 
Q 3406 3131 3298 2873 
Q 3191 2616 2906 2266 
Q 2828 2175 2409 1742 
Q 1991 1309 1228 531 
z
" transform="scale(0.015625)"/>
       </defs>
       <use xlink:href="#DejaVuSans-32"/>
       <use xlink:href="#DejaVuSans-30" x="63.623047"/>
       <use xlink:href="#DejaVuSans-30" x="127.246094"/>
       <use xlink:href="#DejaVuSans-30" x="190.869141"/>
      </g>
     </g>
    </g>
    <g id="xtick_6">
     <g id="line2d_6">
      <g>
       <use xlink:href="#m6a085c0387" x="1246.265433" y="512.64" style="stroke: #000000; stroke-width: 0.8"/>
      </g>
     </g>
     <g id="text_6">
      <!-- 2500 -->
      <g transform="translate(1233.540433 527.238438) scale(0.1 -0.1)">
       <use xlink:href="#DejaVuSans-32"/>
       <use xlink:href="#DejaVuSans-35" x="63.623047"/>
       <use xlink:href="#DejaVuSans-30" x="127.246094"/>
       <use xlink:href="#DejaVuSans-30" x="190.869141"/>
      </g>
     </g>
    </g>
   </g>
   <g id="matplotlib.axis_2">
    <g id="ytick_1">
     <g id="line2d_7">
      <defs>
       <path id="ma56aef4873" d="M 0 0 
L -3.5 0 
" style="stroke: #000000; stroke-width: 0.8"/>
      </defs>
      <g>
       <use xlink:href="#ma56aef4873" x="180" y="487.460379" style="stroke: #000000; stroke-width: 0.8"/>
      </g>
     </g>
     <g id="text_7">
      <!-- −6 -->
      <g transform="translate(158.257812 491.259598) scale(0.1 -0.1)">
       <defs>
        <path id="DejaVuSans-2212" d="M 678 2272 
L 4684 2272 
L 4684 1741 
L 678 1741 
L 678 2272 
z
" transform="scale(0.015625)"/>
        <path id="DejaVuSans-36" d="M 2113 2584 
Q 1688 2584 1439 2293 
Q 1191 2003 1191 1497 
Q 1191 994 1439 701 
Q 1688 409 2113 409 
Q 2538 409 2786 701 
Q 3034 994 3034 1497 
Q 3034 2003 2786 2293 
Q 2538 2584 2113 2584 
z
M 3366 4563 
L 3366 3988 
Q 3128 4100 2886 4159 
Q 2644 4219 2406 4219 
Q 1781 4219 1451 3797 
Q 1122 3375 1075 2522 
Q 1259 2794 1537 2939 
Q 1816 3084 2150 3084 
Q 2853 3084 3261 2657 
Q 3669 2231 3669 1497 
Q 3669 778 3244 343 
Q 2819 -91 2113 -91 
Q 1303 -91 875 529 
Q 447 1150 447 2328 
Q 447 3434 972 4092 
Q 1497 4750 2381 4750 
Q 2619 4750 2861 4703 
Q 3103 4656 3366 4563 
z
" transform="scale(0.015625)"/>
       </defs>
       <use xlink:href="#DejaVuSans-2212"/>
       <use xlink:href="#DejaVuSans-36" x="83.789062"/>
      </g>
     </g>
    </g>
    <g id="ytick_2">
     <g id="line2d_8">
      <g>
       <use xlink:href="#ma56aef4873" x="180" y="412.656336" style="stroke: #000000; stroke-width: 0.8"/>
      </g>
     </g>
     <g id="text_8">
      <!-- −4 -->
      <g transform="translate(158.257812 416.455555) scale(0.1 -0.1)">
       <defs>
        <path id="DejaVuSans-34" d="M 2419 4116 
L 825 1625 
L 2419 1625 
L 2419 4116 
z
M 2253 4666 
L 3047 4666 
L 3047 1625 
L 3713 1625 
L 3713 1100 
L 3047 1100 
L 3047 0 
L 2419 0 
L 2419 1100 
L 313 1100 
L 313 1709 
L 2253 4666 
z
" transform="scale(0.015625)"/>
       </defs>
       <use xlink:href="#DejaVuSans-2212"/>
       <use xlink:href="#DejaVuSans-34" x="83.789062"/>
      </g>
     </g>
    </g>
    <g id="ytick_3">
     <g id="line2d_9">
      <g>
       <use xlink:href="#ma56aef4873" x="180" y="337.852293" style="stroke: #000000; stroke-width: 0.8"/>
      </g>
     </g>
     <g id="text_9">
      <!-- −2 -->
      <g transform="translate(158.257812 341.651512) scale(0.1 -0.1)">
       <use xlink:href="#DejaVuSans-2212"/>
       <use xlink:href="#DejaVuSans-32" x="83.789062"/>
      </g>
     </g>
    </g>
    <g id="ytick_4">
     <g id="line2d_10">
      <g>
       <use xlink:href="#ma56aef4873" x="180" y="263.04825" style="stroke: #000000; stroke-width: 0.8"/>
      </g>
     </g>
     <g id="text_10">
      <!-- 0 -->
      <g transform="translate(166.6375 266.847469) scale(0.1 -0.1)">
       <use xlink:href="#DejaVuSans-30"/>
      </g>
     </g>
    </g>
    <g id="ytick_5">
     <g id="line2d_11">
      <g>
       <use xlink:href="#ma56aef4873" x="180" y="188.244207" style="stroke: #000000; stroke-width: 0.8"/>
      </g>
     </g>
     <g id="text_11">
      <!-- 2 -->
      <g transform="translate(166.6375 192.043426) scale(0.1 -0.1)">
       <use xlink:href="#DejaVuSans-32"/>
      </g>
     </g>
    </g>
    <g id="ytick_6">
     <g id="line2d_12">
      <g>
       <use xlink:href="#ma56aef4873" x="180" y="113.440164" style="stroke: #000000; stroke-width: 0.8"/>
      </g>
     </g>
     <g id="text_12">
      <!-- 4 -->
      <g transform="translate(166.6375 117.239383) scale(0.1 -0.1)">
       <use xlink:href="#DejaVuSans-34"/>
      </g>
     </g>
    </g>
   </g>
   <g id="line2d_13">
    <path d="M 230.727273 276.694372 
L 231.719979 276.474733 
L 233.70539 276.321337 
L 234.698096 275.97278 
L 235.690802 275.787923 
L 238.66892 274.534222 
L 240.654332 273.251706 
L 241.647038 272.543698 
L 243.63245 270.76311 
L 244.625156 269.400854 
L 245.617862 267.691244 
L 246.610568 267.861639 
L 247.603273 270.934244 
L 248.595979 263.359966 
L 249.588685 251.778805 
L 250.581391 258.076994 
L 251.574097 349.724519 
L 252.566803 250.569549 
L 253.559509 232.53045 
L 254.552215 245.4955 
L 255.544921 284.603864 
L 256.537627 236.043475 
L 257.530333 236.073917 
L 258.523039 239.383453 
L 259.515745 230.655009 
L 260.50845 241.723954 
L 261.501156 212.286234 
L 262.493862 194.146166 
L 263.486568 200.457314 
L 264.479274 219.455912 
L 265.47198 216.824709 
L 266.464686 226.736183 
L 267.457392 193.693022 
L 268.450098 179.476734 
L 269.442804 190.572743 
L 270.43551 194.076803 
L 271.428216 175.501494 
L 273.413627 162.330803 
L 274.406333 163.498012 
L 275.399039 179.502901 
L 276.391745 156.394896 
L 277.384451 137.905996 
L 278.377157 127.290478 
L 279.369863 113.813629 
L 280.362569 103.183331 
L 281.355275 99.783331 
L 282.347981 100.572166 
L 283.340687 96.685304 
L 284.333393 90.094773 
L 285.326099 89.28 
L 286.318804 97.423882 
L 288.304216 130.09766 
L 289.296922 133.577101 
L 290.289628 136.113077 
L 291.282334 143.967972 
L 292.27504 168.747963 
L 293.267746 199.548891 
L 294.260452 160.645862 
L 295.253158 159.55136 
L 296.245864 176.461013 
L 297.23857 181.721728 
L 298.231276 181.644735 
L 299.223981 201.436275 
L 300.216687 225.90785 
L 301.209393 206.299298 
L 302.202099 204.839686 
L 303.194805 213.543746 
L 304.187511 215.682104 
L 305.180217 218.768642 
L 306.172923 219.019015 
L 307.165629 211.977009 
L 308.158335 220.271318 
L 309.151041 254.652081 
L 310.143747 255.616287 
L 311.136453 255.463761 
L 312.129159 308.269001 
L 313.121864 284.222562 
L 314.11457 289.993035 
L 316.099982 311.158277 
L 317.092688 302.422891 
L 318.085394 292.576479 
L 319.0781 323.43872 
L 320.070806 305.732994 
L 321.063512 301.841924 
L 322.056218 317.115825 
L 323.048924 310.529551 
L 324.04163 311.068496 
L 325.034336 309.256379 
L 326.027041 320.080396 
L 327.019747 307.937446 
L 328.012453 312.517442 
L 329.005159 331.788084 
L 329.997865 317.909148 
L 330.990571 309.145686 
L 331.983277 328.259657 
L 332.975983 323.074661 
L 333.968689 317.064606 
L 334.961395 322.805722 
L 335.954101 347.145514 
L 336.946807 325.394055 
L 337.939513 317.182123 
L 338.932218 322.187019 
L 339.924924 332.611248 
L 340.91763 336.932258 
L 341.910336 319.870227 
L 342.903042 340.41137 
L 343.895748 331.56769 
L 344.888454 323.901639 
L 345.88116 346.382063 
L 346.873866 325.645977 
L 347.866572 370.08741 
L 348.859278 321.159283 
L 349.851984 302.43657 
L 350.84469 332.878233 
L 351.837395 306.685071 
L 352.830101 305.982546 
L 353.822807 359.997405 
L 354.815513 304.20951 
L 355.808219 306.343923 
L 356.800925 341.711572 
L 357.793631 309.905975 
L 358.786337 350.117525 
L 359.779043 317.579374 
L 360.771749 320.731016 
L 361.764455 331.88628 
L 362.757161 307.534466 
L 363.749867 319.603228 
L 364.742572 334.892379 
L 365.735278 303.679261 
L 366.727984 332.108351 
L 368.713396 308.683701 
L 369.706102 350.354092 
L 370.698808 332.138299 
L 371.691514 332.134968 
L 372.68422 365.578293 
L 373.676926 338.158634 
L 374.669632 335.094736 
L 375.662338 360.205864 
L 376.655044 372.767505 
L 377.64775 396.149903 
L 378.640455 361.449569 
L 379.633161 339.454286 
L 380.625867 352.530104 
L 381.618573 359.274208 
L 382.611279 391.80093 
L 384.596691 344.672354 
L 385.589397 362.117453 
L 386.582103 344.941564 
L 387.574809 351.475075 
L 388.567515 353.007093 
L 389.560221 376.891979 
L 390.552927 346.186024 
L 391.545632 351.625511 
L 392.538338 357.778628 
L 393.531044 344.635168 
L 394.52375 366.310605 
L 395.516456 367.20634 
L 396.509162 387.502405 
L 397.501868 367.480913 
L 398.494574 367.951554 
L 399.48728 363.518656 
L 400.479986 404.333904 
L 401.472692 345.466688 
L 402.465398 353.77842 
L 404.450809 366.656848 
L 405.443515 371.373291 
L 406.436221 369.792346 
L 407.428927 369.599927 
L 408.421633 355.194966 
L 409.414339 358.275343 
L 410.407045 367.955843 
L 411.399751 386.998563 
L 412.392457 373.56951 
L 413.385163 401.40613 
L 414.377869 352.197731 
L 415.370575 364.042626 
L 416.363281 374.09226 
L 417.355986 370.142953 
L 418.348692 382.74463 
L 419.341398 366.572788 
L 420.334104 366.943977 
L 421.32681 369.036421 
L 422.319516 362.799021 
L 423.312222 351.285346 
L 424.304928 381.78473 
L 425.297634 377.807524 
L 426.29034 383.561988 
L 427.283046 373.602226 
L 428.275752 360.670966 
L 429.268458 372.539435 
L 430.261163 372.168861 
L 431.253869 385.070025 
L 432.246575 357.42247 
L 433.239281 378.270237 
L 434.231987 373.420641 
L 435.224693 377.494812 
L 436.217399 367.068354 
L 437.210105 392.902649 
L 438.202811 357.488937 
L 439.195517 380.588819 
L 440.188223 366.761478 
L 441.180929 393.179438 
L 443.166341 390.508846 
L 444.159046 402.869515 
L 445.151752 369.69124 
L 446.144458 408.022129 
L 447.137164 382.736114 
L 448.12987 383.760526 
L 449.122576 377.590866 
L 450.115282 390.881508 
L 451.107988 371.781447 
L 452.100694 363.154889 
L 453.0934 387.126315 
L 454.086106 375.187833 
L 455.078812 358.310103 
L 456.071518 344.060065 
L 457.064223 372.579106 
L 458.056929 411.138396 
L 459.049635 396.30827 
L 460.042341 455.053465 
L 461.035047 383.049531 
L 462.027753 422.277872 
L 463.020459 387.338183 
L 464.013165 393.346014 
L 465.005871 371.636207 
L 465.998577 404.630208 
L 466.991283 380.48852 
L 467.983989 368.640378 
L 468.976695 365.795757 
L 469.9694 381.627775 
L 470.962106 355.748662 
L 471.954812 383.697388 
L 472.947518 370.611186 
L 473.940224 419.752656 
L 474.93293 384.291053 
L 475.925636 403.486516 
L 476.918342 389.399203 
L 477.911048 435.220808 
L 478.903754 385.074491 
L 479.89646 363.514608 
L 480.889166 387.144473 
L 481.881872 452.583971 
L 482.874577 408.492484 
L 483.867283 374.725862 
L 484.859989 369.042908 
L 485.852695 383.046999 
L 486.845401 405.492442 
L 487.838107 377.878466 
L 488.830813 363.154443 
L 489.823519 384.831236 
L 490.816225 433.667899 
L 491.808931 376.622246 
L 492.801637 430.787964 
L 493.794343 361.628674 
L 494.787049 398.749977 
L 495.779754 380.94067 
L 496.77246 394.504961 
L 497.765166 369.862767 
L 498.757872 399.839943 
L 499.750578 373.528763 
L 500.743284 368.062445 
L 501.73599 378.488085 
L 502.728696 417.433144 
L 503.721402 437.739492 
L 505.706814 391.816259 
L 507.692226 419.890338 
L 508.684932 396.985101 
L 510.670343 365.149309 
L 511.663049 383.441202 
L 512.655755 377.813758 
L 513.648461 406.031343 
L 514.641167 407.376422 
L 515.633873 381.844 
L 516.626579 396.861917 
L 517.619285 432.41957 
L 518.611991 387.683183 
L 519.604697 391.088549 
L 520.597403 396.54751 
L 521.590109 418.433661 
L 524.568226 385.541654 
L 525.560932 367.809031 
L 526.553638 411.601794 
L 527.546344 406.712107 
L 528.53905 371.017574 
L 529.531756 404.275294 
L 530.524462 370.959676 
L 531.517168 402.739166 
L 532.509874 411.668491 
L 533.50258 428.344861 
L 534.495286 365.687458 
L 535.487991 462.698258 
L 536.480697 412.529014 
L 537.473403 411.332367 
L 538.466109 373.321898 
L 539.458815 383.889285 
L 540.451521 378.616638 
L 541.444227 374.167636 
L 542.436933 359.912236 
L 543.429639 455.733907 
L 544.422345 388.985841 
L 545.415051 398.247718 
L 546.407757 353.349947 
L 547.400463 369.757964 
L 548.393168 407.947378 
L 549.385874 388.480104 
L 550.37858 381.245689 
L 551.371286 406.723501 
L 552.363992 417.126656 
L 553.356698 359.134681 
L 554.349404 423.467834 
L 555.34211 365.251167 
L 556.334816 429.857364 
L 557.327522 381.047237 
L 558.320228 375.015644 
L 559.312934 371.835966 
L 560.30564 405.594235 
L 561.298345 385.315789 
L 562.291051 394.670952 
L 563.283757 407.139813 
L 564.276463 408.097328 
L 565.269169 384.117546 
L 566.261875 415.914296 
L 568.247287 360.123632 
L 570.232699 424.02607 
L 571.225405 382.998192 
L 572.218111 369.866991 
L 573.210817 411.214292 
L 574.203523 393.171761 
L 575.196228 420.320918 
L 576.188934 381.944626 
L 577.18164 388.897217 
L 578.174346 450.581059 
L 579.167052 396.142442 
L 580.159758 462.801821 
L 581.152464 373.820756 
L 582.14517 407.899953 
L 583.137876 394.437496 
L 584.130582 424.23199 
L 585.123288 381.196502 
L 586.115994 419.799173 
L 587.1087 392.109205 
L 588.101405 400.566237 
L 589.094111 394.726955 
L 590.086817 423.741362 
L 591.079523 424.401078 
L 592.072229 401.36615 
L 593.064935 419.326276 
L 594.057641 413.399651 
L 595.050347 440.189471 
L 596.043053 409.113186 
L 597.035759 386.005802 
L 598.028465 387.654495 
L 599.021171 429.658297 
L 600.013877 395.082987 
L 601.006582 425.480538 
L 601.999288 399.369712 
L 602.991994 427.589309 
L 603.9847 380.802033 
L 604.977406 399.03229 
L 605.970112 394.988511 
L 606.962818 413.271861 
L 607.955524 454.177786 
L 608.94823 410.242715 
L 609.940936 376.651069 
L 610.933642 390.023258 
L 611.926348 413.682854 
L 612.919054 419.471399 
L 613.911759 414.249249 
L 614.904465 406.563001 
L 615.897171 396.422537 
L 616.889877 427.733273 
L 617.882583 385.313451 
L 618.875289 391.567394 
L 619.867995 422.859614 
L 620.860701 417.480642 
L 621.853407 444.681071 
L 622.846113 446.756056 
L 623.838819 436.362591 
L 624.831525 446.416906 
L 625.824231 409.343373 
L 626.816936 405.910637 
L 627.809642 406.845584 
L 628.802348 424.784616 
L 629.795054 407.134289 
L 630.78776 408.992689 
L 631.780466 439.15806 
L 632.773172 421.29152 
L 633.765878 442.597251 
L 634.758584 418.040194 
L 635.75129 435.386932 
L 636.743996 409.193209 
L 637.736702 422.935544 
L 638.729408 411.178266 
L 639.722114 409.743035 
L 640.714819 415.625915 
L 641.707525 450.570019 
L 642.700231 418.440517 
L 643.692937 418.870991 
L 644.685643 447.527248 
L 645.678349 443.238838 
L 646.671055 421.016446 
L 647.663761 404.712547 
L 648.656467 417.069206 
L 649.649173 436.798287 
L 650.641879 438.115847 
L 651.634585 401.394751 
L 652.627291 419.338874 
L 653.619996 419.257242 
L 654.612702 420.295637 
L 655.605408 454.96089 
L 656.598114 432.018759 
L 657.59082 431.598818 
L 658.583526 414.042422 
L 659.576232 441.313609 
L 660.568938 427.226506 
L 661.561644 420.23695 
L 662.55435 415.502092 
L 663.547056 441.124814 
L 664.539762 456.838082 
L 665.532468 410.358944 
L 666.525173 440.876354 
L 667.517879 417.473868 
L 668.510585 438.35315 
L 669.503291 418.148828 
L 670.495997 422.782488 
L 671.488703 419.838845 
L 672.481409 431.812273 
L 673.474115 422.612992 
L 674.466821 419.268714 
L 675.459527 438.73481 
L 676.452233 423.726978 
L 677.444939 431.477871 
L 678.437645 427.991956 
L 679.43035 426.400589 
L 680.423056 442.796902 
L 681.415762 452.675754 
L 682.408468 437.188163 
L 683.401174 436.271033 
L 684.39388 439.630188 
L 685.386586 432.054485 
L 686.379292 426.227468 
L 687.371998 432.90132 
L 688.364704 435.103013 
L 689.35741 442.96496 
L 690.350116 444.277045 
L 691.342822 463.315836 
L 692.335527 420.387039 
L 694.320939 442.183884 
L 695.313645 430.330454 
L 696.306351 436.006423 
L 697.299057 430.980464 
L 698.291763 438.330143 
L 699.284469 431.654759 
L 700.277175 441.402069 
L 701.269881 449.194583 
L 702.262587 439.303862 
L 703.255293 444.024873 
L 704.247999 437.757416 
L 705.240705 429.84733 
L 706.23341 428.71169 
L 707.226116 442.836641 
L 708.218822 440.590189 
L 709.211528 433.226219 
L 710.204234 442.504179 
L 711.19694 445.050961 
L 712.189646 439.729357 
L 713.182352 433.128094 
L 714.175058 450.338758 
L 715.167764 444.732952 
L 716.16047 432.26001 
L 717.153176 451.326453 
L 718.145882 449.728945 
L 719.138587 432.385613 
L 720.131293 442.41571 
L 721.123999 438.953582 
L 722.116705 440.705794 
L 723.109411 441.020149 
L 724.102117 439.061093 
L 725.094823 454.719749 
L 726.087529 438.474229 
L 727.080235 444.699838 
L 728.072941 442.368865 
L 729.065647 447.807207 
L 730.058353 437.326948 
L 731.051059 450.15106 
L 732.043764 437.953145 
L 733.03647 442.294222 
L 734.029176 438.445118 
L 735.021882 443.552203 
L 736.014588 449.99142 
L 737.007294 446.55245 
L 738 447.12698 
L 738.992706 438.721224 
L 739.985412 447.598162 
L 740.978118 447.59994 
L 741.970824 443.410873 
L 742.96353 444.432618 
L 743.956236 444.828822 
L 744.948941 447.289161 
L 745.941647 444.284021 
L 746.934353 441.800692 
L 747.927059 447.009947 
L 748.919765 443.162116 
L 749.912471 444.123323 
L 750.905177 440.534872 
L 751.897883 448.75758 
L 752.890589 443.177967 
L 753.883295 450.865296 
L 754.876001 444.021763 
L 755.868707 445.332714 
L 756.861413 448.281477 
L 757.854118 441.517242 
L 758.846824 445.522114 
L 759.83953 448.910596 
L 760.832236 443.708035 
L 761.824942 446.789722 
L 762.817648 449.2595 
L 763.810354 450.264165 
L 764.80306 450.023062 
L 765.795766 441.592535 
L 766.788472 451.695319 
L 767.781178 443.323566 
L 768.773884 449.082755 
L 769.76659 442.455887 
L 770.759295 445.762375 
L 771.752001 442.523001 
L 773.737413 451.820209 
L 774.730119 452.969192 
L 775.722825 449.508164 
L 776.715531 449.57128 
L 777.708237 451.332629 
L 778.700943 455.078086 
L 779.693649 450.281018 
L 780.686355 451.219456 
L 781.679061 440.921077 
L 783.664473 446.227343 
L 784.657178 448.771923 
L 785.649884 449.844957 
L 786.64259 452.673824 
L 787.635296 466.831497 
L 788.628002 449.861452 
L 789.620708 444.03807 
L 790.613414 447.377598 
L 791.60612 456.545904 
L 792.598826 455.636364 
L 793.591532 441.695452 
L 794.584238 441.287537 
L 795.576944 453.222032 
L 796.56965 449.250035 
L 797.562355 449.189706 
L 798.555061 452.527425 
L 799.547767 452.381731 
L 800.540473 449.090558 
L 801.533179 449.201383 
L 802.525885 462.650461 
L 803.518591 455.622757 
L 804.511297 451.029858 
L 805.504003 451.253429 
L 806.496709 453.444659 
L 807.489415 460.59008 
L 808.482121 455.289063 
L 809.474827 450.895563 
L 810.467532 449.109965 
L 811.460238 456.631209 
L 812.452944 445.820213 
L 813.44565 447.677264 
L 814.438356 457.086661 
L 815.431062 447.123694 
L 816.423768 453.647066 
L 817.416474 456.167039 
L 818.40918 443.370678 
L 819.401886 446.757767 
L 820.394592 452.96677 
L 821.387298 456.227527 
L 822.380004 450.497593 
L 823.372709 445.981251 
L 824.365415 459.402191 
L 825.358121 454.6636 
L 826.350827 450.92784 
L 827.343533 463.461943 
L 828.336239 462.042676 
L 829.328945 445.170447 
L 830.321651 447.172545 
L 831.314357 457.489963 
L 832.307063 451.157468 
L 833.299769 462.430249 
L 834.292475 463.288158 
L 835.285181 454.482426 
L 836.277886 450.27331 
L 837.270592 452.747998 
L 838.263298 453.578371 
L 839.256004 452.981537 
L 840.24871 455.84785 
L 841.241416 456.557807 
L 842.234122 456.207538 
L 843.226828 454.848475 
L 844.219534 456.588889 
L 845.21224 457.854195 
L 846.204946 445.896007 
L 848.190358 458.220302 
L 849.183064 450.21062 
L 850.175769 454.102953 
L 851.168475 458.899697 
L 852.161181 453.174378 
L 853.153887 450.078962 
L 854.146593 451.912847 
L 855.139299 443.952475 
L 856.132005 462.87831 
L 857.124711 451.581908 
L 858.117417 448.736386 
L 859.110123 461.42276 
L 860.102829 448.239144 
L 861.095535 457.559805 
L 862.088241 470.535512 
L 863.080946 449.017918 
L 864.073652 466.305443 
L 865.066358 459.34507 
L 866.059064 453.871695 
L 867.05177 454.308404 
L 868.044476 453.909693 
L 869.037182 459.638045 
L 870.029888 456.113694 
L 872.0153 462.743879 
L 873.008006 456.041053 
L 874.000712 458.994025 
L 874.993418 474.317395 
L 875.986123 453.971969 
L 876.978829 457.249051 
L 877.971535 453.962928 
L 878.964241 454.432223 
L 879.956947 464.53557 
L 880.949653 461.249918 
L 881.942359 460.358385 
L 882.935065 465.559728 
L 883.927771 461.41281 
L 884.920477 451.213782 
L 885.913183 456.521772 
L 886.905889 466.358152 
L 887.898595 466.07191 
L 888.8913 448.310399 
L 889.884006 450.87553 
L 890.876712 454.000051 
L 891.869418 460.718865 
L 892.862124 453.803185 
L 893.85483 456.525522 
L 894.847536 469.829613 
L 895.840242 473.385986 
L 896.832948 451.936418 
L 897.825654 463.327125 
L 898.81836 455.716028 
L 899.811066 462.89578 
L 900.803772 482.472351 
L 901.796477 469.750839 
L 902.789183 462.974272 
L 903.781889 457.144368 
L 904.774595 458.86064 
L 905.767301 454.889492 
L 906.760007 468.174912 
L 907.752713 451.949499 
L 908.745419 452.398061 
L 909.738125 460.385223 
L 910.730831 459.993743 
L 911.723537 451.052134 
L 912.716243 458.416089 
L 913.708949 464.779775 
L 914.701655 457.025394 
L 915.69436 464.456526 
L 916.687066 460.701556 
L 917.679772 465.324531 
L 918.672478 460.906158 
L 919.665184 459.482138 
L 920.65789 456.567349 
L 921.650596 452.722849 
L 922.643302 460.818969 
L 923.636008 471.100619 
L 924.628714 459.75165 
L 925.62142 465.478429 
L 926.614126 459.677088 
L 927.606832 457.165558 
L 928.599537 465.881883 
L 929.592243 461.40959 
L 930.584949 462.14139 
L 931.577655 458.76133 
L 932.570361 456.470724 
L 933.563067 475.34665 
L 934.555773 467.093536 
L 935.548479 460.584242 
L 936.541185 459.762224 
L 937.533891 468.142786 
L 938.526597 459.667549 
L 939.519303 459.899737 
L 940.512009 457.608542 
L 941.504714 462.197356 
L 943.490126 456.315035 
L 944.482832 457.78736 
L 945.475538 462.670023 
L 946.468244 461.313554 
L 947.46095 457.280186 
L 948.453656 456.537532 
L 949.446362 468.039158 
L 950.439068 470.282397 
L 951.431774 469.649701 
L 952.42448 461.046507 
L 953.417186 464.594805 
L 954.409891 455.744999 
L 955.402597 456.394236 
L 956.395303 460.469593 
L 957.388009 457.567185 
L 958.380715 470.483322 
L 959.373421 471.686976 
L 960.366127 460.450699 
L 961.358833 455.467681 
L 962.351539 453.527353 
L 963.344245 457.364536 
L 964.336951 455.462612 
L 965.329657 476.09213 
L 966.322363 467.656325 
L 967.315068 457.600534 
L 968.307774 461.730445 
L 969.30048 462.451429 
L 970.293186 457.186272 
L 971.285892 468.031206 
L 972.278598 467.41193 
L 973.271304 470.709662 
L 975.256716 456.70144 
L 976.249422 462.752458 
L 977.242128 467.507299 
L 978.234834 467.03773 
L 979.22754 464.50702 
L 980.220246 463.907396 
L 981.212951 474.771875 
L 982.205657 469.454937 
L 983.198363 464.807381 
L 984.191069 457.418744 
L 985.183775 462.918971 
L 986.176481 457.137138 
L 987.169187 473.481564 
L 988.161893 455.328165 
L 989.154599 467.322782 
L 990.147305 462.890782 
L 991.140011 464.62974 
L 992.132717 468.912065 
L 993.125423 465.074322 
L 994.118128 462.586688 
L 995.110834 454.742722 
L 996.10354 462.833112 
L 997.096246 462.928145 
L 998.088952 462.55653 
L 999.081658 471.327329 
L 1000.074364 464.868022 
L 1001.06707 465.006835 
L 1002.059776 459.64684 
L 1003.052482 466.661058 
L 1004.045188 485.595679 
L 1005.037894 475.848886 
L 1006.0306 470.645864 
L 1007.023305 481.970975 
L 1008.016011 466.170306 
L 1009.008717 464.475434 
L 1010.001423 473.226164 
L 1010.994129 456.561249 
L 1011.986835 465.536965 
L 1012.979541 475.913191 
L 1013.972247 467.454569 
L 1014.964953 460.810334 
L 1015.957659 473.817628 
L 1016.950365 464.086687 
L 1017.943071 474.011225 
L 1018.935777 474.994497 
L 1020.921188 461.974977 
L 1021.913894 459.752049 
L 1022.9066 465.243 
L 1023.899306 473.064363 
L 1024.892012 466.460018 
L 1025.884718 462.234083 
L 1026.877424 464.857202 
L 1028.862836 457.48758 
L 1029.855542 478.201159 
L 1030.848248 484.772723 
L 1031.840954 471.306225 
L 1032.833659 459.788157 
L 1033.826365 469.138588 
L 1034.819071 468.081564 
L 1035.811777 458.048971 
L 1036.804483 468.148769 
L 1037.797189 469.112475 
L 1038.789895 468.958415 
L 1039.782601 492.48 
L 1040.775307 469.290422 
L 1041.768013 471.566777 
L 1042.760719 470.013449 
L 1043.753425 480.168445 
L 1044.746131 468.26657 
L 1045.738837 466.735372 
L 1046.731542 462.805391 
L 1048.716954 464.506819 
L 1049.70966 456.219407 
L 1050.702366 472.913579 
L 1051.695072 464.509704 
L 1052.687778 484.498916 
L 1053.680484 467.746384 
L 1054.67319 463.361502 
L 1055.665896 460.540106 
L 1056.658602 471.463301 
L 1057.651308 458.911825 
L 1058.644014 476.053626 
L 1059.636719 468.672443 
L 1060.629425 465.908272 
L 1061.622131 458.587052 
L 1062.614837 473.185135 
L 1063.607543 477.541817 
L 1064.600249 466.065767 
L 1065.592955 468.239081 
L 1066.585661 474.416697 
L 1067.578367 462.343723 
L 1068.571073 474.178989 
L 1069.563779 459.970108 
L 1070.556485 460.979413 
L 1071.549191 482.673211 
L 1072.541896 464.035089 
L 1073.534602 469.762335 
L 1074.527308 479.172465 
L 1075.520014 466.525267 
L 1076.51272 469.732313 
L 1077.505426 468.488151 
L 1078.498132 470.71565 
L 1079.490838 473.630593 
L 1080.483544 469.211114 
L 1081.47625 469.73153 
L 1082.468956 478.184737 
L 1084.454368 465.790698 
L 1085.447073 486.969977 
L 1086.439779 470.413055 
L 1087.432485 468.117852 
L 1088.425191 470.283237 
L 1089.417897 476.569162 
L 1090.410603 454.269896 
L 1092.396015 468.769681 
L 1093.388721 466.574779 
L 1094.381427 474.643604 
L 1095.374133 471.753577 
L 1096.366839 464.231291 
L 1097.359545 474.333698 
L 1098.35225 475.069569 
L 1099.344956 460.232599 
L 1100.337662 463.820515 
L 1101.330368 472.579406 
L 1102.323074 468.3995 
L 1103.31578 478.323918 
L 1104.308486 461.892294 
L 1106.293898 457.407243 
L 1107.286604 462.379367 
L 1108.27931 464.451417 
L 1109.272016 475.990284 
L 1110.264722 475.229893 
L 1111.257428 476.02191 
L 1112.250133 470.884732 
L 1113.242839 480.028661 
L 1114.235545 488.097769 
L 1115.228251 466.729273 
L 1116.220957 474.132016 
L 1117.213663 475.37095 
L 1118.206369 457.859511 
L 1119.199075 476.493387 
L 1120.191781 470.500122 
L 1121.184487 470.81418 
L 1122.177193 471.438438 
L 1123.169899 476.825975 
L 1124.162605 466.489258 
L 1125.15531 470.087262 
L 1126.148016 476.955284 
L 1127.140722 476.559592 
L 1128.133428 475.217661 
L 1129.126134 463.826442 
L 1130.11884 471.340676 
L 1131.111546 464.780895 
L 1132.104252 468.020866 
L 1133.096958 469.572754 
L 1134.089664 465.740793 
L 1135.08237 464.243802 
L 1136.075076 476.521111 
L 1137.067782 473.051927 
L 1138.060487 458.649147 
L 1139.053193 474.776652 
L 1140.045899 473.497694 
L 1141.038605 463.293532 
L 1142.031311 481.411638 
L 1143.024017 471.695999 
L 1144.016723 467.732722 
L 1145.009429 476.539811 
L 1146.002135 476.8953 
L 1146.994841 461.708683 
L 1148.980253 478.884271 
L 1149.972959 468.966216 
L 1150.965664 469.305261 
L 1151.95837 462.414336 
L 1152.951076 477.92531 
L 1153.943782 476.430828 
L 1154.936488 470.46061 
L 1155.929194 461.17188 
L 1156.9219 466.906254 
L 1157.914606 471.964628 
L 1158.907312 461.521274 
L 1159.900018 473.005944 
L 1160.892724 478.306256 
L 1161.88543 469.958029 
L 1162.878136 481.157855 
L 1163.870841 465.696759 
L 1164.863547 467.569768 
L 1165.856253 465.538424 
L 1166.848959 470.137336 
L 1167.841665 469.92314 
L 1168.834371 468.53604 
L 1169.827077 474.390449 
L 1170.819783 476.264777 
L 1171.812489 469.372413 
L 1172.805195 468.411518 
L 1173.797901 478.555527 
L 1174.790607 480.706895 
L 1175.783313 486.064426 
L 1176.776019 461.261462 
L 1177.768724 463.78965 
L 1178.76143 467.695024 
L 1179.754136 470.098978 
L 1180.746842 470.819781 
L 1181.739548 476.861523 
L 1183.72496 465.696327 
L 1184.717666 470.740801 
L 1185.710372 474.634447 
L 1186.703078 463.054689 
L 1187.695784 463.529039 
L 1188.68849 474.27615 
L 1189.681196 473.814672 
L 1190.673901 468.497885 
L 1191.666607 466.459066 
L 1192.659313 487.958285 
L 1193.652019 474.485127 
L 1194.644725 471.379841 
L 1195.637431 466.232849 
L 1196.630137 465.420341 
L 1197.622843 469.763485 
L 1198.615549 473.123337 
L 1199.608255 461.093468 
L 1200.600961 467.638632 
L 1201.593667 466.448874 
L 1202.586373 479.605051 
L 1203.579078 465.777607 
L 1204.571784 482.829921 
L 1205.56449 464.456376 
L 1206.557196 459.558562 
L 1207.549902 481.443793 
L 1208.542608 460.168023 
L 1209.535314 464.259367 
L 1210.52802 468.908342 
L 1211.520726 485.721131 
L 1212.513432 472.612117 
L 1213.506138 475.506699 
L 1214.498844 480.920636 
L 1215.49155 471.850635 
L 1216.484255 477.920517 
L 1217.476961 463.54352 
L 1218.469667 480.954208 
L 1219.462373 480.820435 
L 1220.455079 465.888747 
L 1221.447785 478.077313 
L 1223.433197 464.749966 
L 1224.425903 469.842929 
L 1225.418609 467.914583 
L 1226.411315 474.896997 
L 1227.404021 477.880105 
L 1228.396727 473.157673 
L 1229.389432 465.810081 
L 1230.382138 465.779661 
L 1231.374844 466.78703 
L 1232.36755 475.655069 
L 1233.360256 475.864256 
L 1234.352962 473.254909 
L 1235.345668 466.783381 
L 1236.338374 468.145362 
L 1237.33108 473.630921 
L 1238.323786 464.850332 
L 1239.316492 467.425688 
L 1240.309198 477.37101 
L 1241.301904 464.456674 
L 1242.29461 474.397814 
L 1243.287315 469.940072 
L 1244.280021 456.399015 
L 1245.272727 462.102222 
L 1245.272727 462.102222 
" clip-path="url(#p1d49a41e36)" style="fill: none; stroke: #1f77b4; stroke-width: 1.5; stroke-linecap: square"/>
   </g>
   <g id="patch_3">
    <path d="M 180 512.64 
L 180 69.12 
" style="fill: none; stroke: #000000; stroke-width: 0.8; stroke-linejoin: miter; stroke-linecap: square"/>
   </g>
   <g id="patch_4">
    <path d="M 1296 512.64 
L 1296 69.12 
" style="fill: none; stroke: #000000; stroke-width: 0.8; stroke-linejoin: miter; stroke-linecap: square"/>
   </g>
   <g id="patch_5">
    <path d="M 180 512.64 
L 1296 512.64 
" style="fill: none; stroke: #000000; stroke-width: 0.8; stroke-linejoin: miter; stroke-linecap: square"/>
   </g>
   <g id="patch_6">
    <path d="M 180 69.12 
L 1296 69.12 
" style="fill: none; stroke: #000000; stroke-width: 0.8; stroke-linejoin: miter; stroke-linecap: square"/>
   </g>
   <g id="text_13">
    <!-- source20-receiver3 -->
    <g transform="translate(544.9 60.80125) scale(0.4 -0.4)">
     <defs>
      <path id="DejaVuSans-73" d="M 2834 3397 
L 2834 2853 
Q 2591 2978 2328 3040 
Q 2066 3103 1784 3103 
Q 1356 3103 1142 2972 
Q 928 2841 928 2578 
Q 928 2378 1081 2264 
Q 1234 2150 1697 2047 
L 1894 2003 
Q 2506 1872 2764 1633 
Q 3022 1394 3022 966 
Q 3022 478 2636 193 
Q 2250 -91 1575 -91 
Q 1294 -91 989 -36 
Q 684 19 347 128 
L 347 722 
Q 666 556 975 473 
Q 1284 391 1588 391 
Q 1994 391 2212 530 
Q 2431 669 2431 922 
Q 2431 1156 2273 1281 
Q 2116 1406 1581 1522 
L 1381 1569 
Q 847 1681 609 1914 
Q 372 2147 372 2553 
Q 372 3047 722 3315 
Q 1072 3584 1716 3584 
Q 2034 3584 2315 3537 
Q 2597 3491 2834 3397 
z
" transform="scale(0.015625)"/>
      <path id="DejaVuSans-6f" d="M 1959 3097 
Q 1497 3097 1228 2736 
Q 959 2375 959 1747 
Q 959 1119 1226 758 
Q 1494 397 1959 397 
Q 2419 397 2687 759 
Q 2956 1122 2956 1747 
Q 2956 2369 2687 2733 
Q 2419 3097 1959 3097 
z
M 1959 3584 
Q 2709 3584 3137 3096 
Q 3566 2609 3566 1747 
Q 3566 888 3137 398 
Q 2709 -91 1959 -91 
Q 1206 -91 779 398 
Q 353 888 353 1747 
Q 353 2609 779 3096 
Q 1206 3584 1959 3584 
z
" transform="scale(0.015625)"/>
      <path id="DejaVuSans-75" d="M 544 1381 
L 544 3500 
L 1119 3500 
L 1119 1403 
Q 1119 906 1312 657 
Q 1506 409 1894 409 
Q 2359 409 2629 706 
Q 2900 1003 2900 1516 
L 2900 3500 
L 3475 3500 
L 3475 0 
L 2900 0 
L 2900 538 
Q 2691 219 2414 64 
Q 2138 -91 1772 -91 
Q 1169 -91 856 284 
Q 544 659 544 1381 
z
M 1991 3584 
L 1991 3584 
z
" transform="scale(0.015625)"/>
      <path id="DejaVuSans-72" d="M 2631 2963 
Q 2534 3019 2420 3045 
Q 2306 3072 2169 3072 
Q 1681 3072 1420 2755 
Q 1159 2438 1159 1844 
L 1159 0 
L 581 0 
L 581 3500 
L 1159 3500 
L 1159 2956 
Q 1341 3275 1631 3429 
Q 1922 3584 2338 3584 
Q 2397 3584 2469 3576 
Q 2541 3569 2628 3553 
L 2631 2963 
z
" transform="scale(0.015625)"/>
      <path id="DejaVuSans-63" d="M 3122 3366 
L 3122 2828 
Q 2878 2963 2633 3030 
Q 2388 3097 2138 3097 
Q 1578 3097 1268 2742 
Q 959 2388 959 1747 
Q 959 1106 1268 751 
Q 1578 397 2138 397 
Q 2388 397 2633 464 
Q 2878 531 3122 666 
L 3122 134 
Q 2881 22 2623 -34 
Q 2366 -91 2075 -91 
Q 1284 -91 818 406 
Q 353 903 353 1747 
Q 353 2603 823 3093 
Q 1294 3584 2113 3584 
Q 2378 3584 2631 3529 
Q 2884 3475 3122 3366 
z
" transform="scale(0.015625)"/>
      <path id="DejaVuSans-65" d="M 3597 1894 
L 3597 1613 
L 953 1613 
Q 991 1019 1311 708 
Q 1631 397 2203 397 
Q 2534 397 2845 478 
Q 3156 559 3463 722 
L 3463 178 
Q 3153 47 2828 -22 
Q 2503 -91 2169 -91 
Q 1331 -91 842 396 
Q 353 884 353 1716 
Q 353 2575 817 3079 
Q 1281 3584 2069 3584 
Q 2775 3584 3186 3129 
Q 3597 2675 3597 1894 
z
M 3022 2063 
Q 3016 2534 2758 2815 
Q 2500 3097 2075 3097 
Q 1594 3097 1305 2825 
Q 1016 2553 972 2059 
L 3022 2063 
z
" transform="scale(0.015625)"/>
      <path id="DejaVuSans-2d" d="M 313 2009 
L 1997 2009 
L 1997 1497 
L 313 1497 
L 313 2009 
z
" transform="scale(0.015625)"/>
      <path id="DejaVuSans-69" d="M 603 3500 
L 1178 3500 
L 1178 0 
L 603 0 
L 603 3500 
z
M 603 4863 
L 1178 4863 
L 1178 4134 
L 603 4134 
L 603 4863 
z
" transform="scale(0.015625)"/>
      <path id="DejaVuSans-76" d="M 191 3500 
L 800 3500 
L 1894 563 
L 2988 3500 
L 3597 3500 
L 2284 0 
L 1503 0 
L 191 3500 
z
" transform="scale(0.015625)"/>
      <path id="DejaVuSans-33" d="M 2597 2516 
Q 3050 2419 3304 2112 
Q 3559 1806 3559 1356 
Q 3559 666 3084 287 
Q 2609 -91 1734 -91 
Q 1441 -91 1130 -33 
Q 819 25 488 141 
L 488 750 
Q 750 597 1062 519 
Q 1375 441 1716 441 
Q 2309 441 2620 675 
Q 2931 909 2931 1356 
Q 2931 1769 2642 2001 
Q 2353 2234 1838 2234 
L 1294 2234 
L 1294 2753 
L 1863 2753 
Q 2328 2753 2575 2939 
Q 2822 3125 2822 3475 
Q 2822 3834 2567 4026 
Q 2313 4219 1838 4219 
Q 1578 4219 1281 4162 
Q 984 4106 628 3988 
L 628 4550 
Q 988 4650 1302 4700 
Q 1616 4750 1894 4750 
Q 2613 4750 3031 4423 
Q 3450 4097 3450 3541 
Q 3450 3153 3228 2886 
Q 3006 2619 2597 2516 
z
" transform="scale(0.015625)"/>
     </defs>
     <use xlink:href="#DejaVuSans-73"/>
     <use xlink:href="#DejaVuSans-6f" x="52.099609"/>
     <use xlink:href="#DejaVuSans-75" x="113.28125"/>
     <use xlink:href="#DejaVuSans-72" x="176.660156"/>
     <use xlink:href="#DejaVuSans-63" x="215.523438"/>
     <use xlink:href="#DejaVuSans-65" x="270.503906"/>
     <use xlink:href="#DejaVuSans-32" x="332.027344"/>
     <use xlink:href="#DejaVuSans-30" x="395.650391"/>
     <use xlink:href="#DejaVuSans-2d" x="459.273438"/>
     <use xlink:href="#DejaVuSans-72" x="495.357422"/>
     <use xlink:href="#DejaVuSans-65" x="534.220703"/>
     <use xlink:href="#DejaVuSans-63" x="595.744141"/>
     <use xlink:href="#DejaVuSans-65" x="650.724609"/>
     <use xlink:href="#DejaVuSans-69" x="712.248047"/>
     <use xlink:href="#DejaVuSans-76" x="740.03125"/>
     <use xlink:href="#DejaVuSans-65" x="799.210938"/>
     <use xlink:href="#DejaVuSans-72" x="860.734375"/>
     <use xlink:href="#DejaVuSans-33" x="901.847656"/>
    </g>
   </g>
  </g>
 </g>
 <defs>
  <clipPath id="p1d49a41e36">
   <rect x="180" y="69.12" width="1116" height="443.52"/>
  </clipPath>
 </defs>
</svg>
