<?xml version="1.0" encoding="utf-8" standalone="no"?>
<!DOCTYPE svg PUBLIC "-//W3C//DTD SVG 1.1//EN"
  "http://www.w3.org/Graphics/SVG/1.1/DTD/svg11.dtd">
<svg xmlns:xlink="http://www.w3.org/1999/xlink" width="1440pt" height="576pt" viewBox="0 0 1440 576" xmlns="http://www.w3.org/2000/svg" version="1.1">
 <metadata>
  <rdf:RDF xmlns:dc="http://purl.org/dc/elements/1.1/" xmlns:cc="http://creativecommons.org/ns#" xmlns:rdf="http://www.w3.org/1999/02/22-rdf-syntax-ns#">
   <cc:Work>
    <dc:type rdf:resource="http://purl.org/dc/dcmitype/StillImage"/>
    <dc:date>2024-05-22T04:50:17.599328</dc:date>
    <dc:format>image/svg+xml</dc:format>
    <dc:creator>
     <cc:Agent>
      <dc:title>Matplotlib v3.8.3, https://matplotlib.org/</dc:title>
     </cc:Agent>
    </dc:creator>
   </cc:Work>
  </rdf:RDF>
 </metadata>
 <defs>
  <style type="text/css">*{stroke-linejoin: round; stroke-linecap: butt}</style>
 </defs>
 <g id="figure_1">
  <g id="patch_1">
   <path d="M 0 576 
L 1440 576 
L 1440 0 
L 0 0 
z
" style="fill: #ffffff"/>
  </g>
  <g id="axes_1">
   <g id="patch_2">
    <path d="M 180 512.64 
L 1296 512.64 
L 1296 69.12 
L 180 69.12 
z
" style="fill: #ffffff"/>
   </g>
   <g id="matplotlib.axis_1">
    <g id="xtick_1">
     <g id="line2d_1">
      <defs>
       <path id="mef85605dec" d="M 0 0 
L 0 3.5 
" style="stroke: #000000; stroke-width: 0.8"/>
      </defs>
      <g>
       <use xlink:href="#mef85605dec" x="229.734567" y="512.64" style="stroke: #000000; stroke-width: 0.8"/>
      </g>
     </g>
     <g id="text_1">
      <!-- 0 -->
      <g transform="translate(226.553317 527.238438) scale(0.1 -0.1)">
       <defs>
        <path id="DejaVuSans-30" d="M 2034 4250 
Q 1547 4250 1301 3770 
Q 1056 3291 1056 2328 
Q 1056 1369 1301 889 
Q 1547 409 2034 409 
Q 2525 409 2770 889 
Q 3016 1369 3016 2328 
Q 3016 3291 2770 3770 
Q 2525 4250 2034 4250 
z
M 2034 4750 
Q 2819 4750 3233 4129 
Q 3647 3509 3647 2328 
Q 3647 1150 3233 529 
Q 2819 -91 2034 -91 
Q 1250 -91 836 529 
Q 422 1150 422 2328 
Q 422 3509 836 4129 
Q 1250 4750 2034 4750 
z
" transform="scale(0.015625)"/>
       </defs>
       <use xlink:href="#DejaVuSans-30"/>
      </g>
     </g>
    </g>
    <g id="xtick_2">
     <g id="line2d_2">
      <g>
       <use xlink:href="#mef85605dec" x="433.04074" y="512.64" style="stroke: #000000; stroke-width: 0.8"/>
      </g>
     </g>
     <g id="text_2">
      <!-- 500 -->
      <g transform="translate(423.49699 527.238438) scale(0.1 -0.1)">
       <defs>
        <path id="DejaVuSans-35" d="M 691 4666 
L 3169 4666 
L 3169 4134 
L 1269 4134 
L 1269 2991 
Q 1406 3038 1543 3061 
Q 1681 3084 1819 3084 
Q 2600 3084 3056 2656 
Q 3513 2228 3513 1497 
Q 3513 744 3044 326 
Q 2575 -91 1722 -91 
Q 1428 -91 1123 -41 
Q 819 9 494 109 
L 494 744 
Q 775 591 1075 516 
Q 1375 441 1709 441 
Q 2250 441 2565 725 
Q 2881 1009 2881 1497 
Q 2881 1984 2565 2268 
Q 2250 2553 1709 2553 
Q 1456 2553 1204 2497 
Q 953 2441 691 2322 
L 691 4666 
z
" transform="scale(0.015625)"/>
       </defs>
       <use xlink:href="#DejaVuSans-35"/>
       <use xlink:href="#DejaVuSans-30" x="63.623047"/>
       <use xlink:href="#DejaVuSans-30" x="127.246094"/>
      </g>
     </g>
    </g>
    <g id="xtick_3">
     <g id="line2d_3">
      <g>
       <use xlink:href="#mef85605dec" x="636.346913" y="512.64" style="stroke: #000000; stroke-width: 0.8"/>
      </g>
     </g>
     <g id="text_3">
      <!-- 1000 -->
      <g transform="translate(623.621913 527.238438) scale(0.1 -0.1)">
       <defs>
        <path id="DejaVuSans-31" d="M 794 531 
L 1825 531 
L 1825 4091 
L 703 3866 
L 703 4441 
L 1819 4666 
L 2450 4666 
L 2450 531 
L 3481 531 
L 3481 0 
L 794 0 
L 794 531 
z
" transform="scale(0.015625)"/>
       </defs>
       <use xlink:href="#DejaVuSans-31"/>
       <use xlink:href="#DejaVuSans-30" x="63.623047"/>
       <use xlink:href="#DejaVuSans-30" x="127.246094"/>
       <use xlink:href="#DejaVuSans-30" x="190.869141"/>
      </g>
     </g>
    </g>
    <g id="xtick_4">
     <g id="line2d_4">
      <g>
       <use xlink:href="#mef85605dec" x="839.653087" y="512.64" style="stroke: #000000; stroke-width: 0.8"/>
      </g>
     </g>
     <g id="text_4">
      <!-- 1500 -->
      <g transform="translate(826.928087 527.238438) scale(0.1 -0.1)">
       <use xlink:href="#DejaVuSans-31"/>
       <use xlink:href="#DejaVuSans-35" x="63.623047"/>
       <use xlink:href="#DejaVuSans-30" x="127.246094"/>
       <use xlink:href="#DejaVuSans-30" x="190.869141"/>
      </g>
     </g>
    </g>
    <g id="xtick_5">
     <g id="line2d_5">
      <g>
       <use xlink:href="#mef85605dec" x="1042.95926" y="512.64" style="stroke: #000000; stroke-width: 0.8"/>
      </g>
     </g>
     <g id="text_5">
      <!-- 2000 -->
      <g transform="translate(1030.23426 527.238438) scale(0.1 -0.1)">
       <defs>
        <path id="DejaVuSans-32" d="M 1228 531 
L 3431 531 
L 3431 0 
L 469 0 
L 469 531 
Q 828 903 1448 1529 
Q 2069 2156 2228 2338 
Q 2531 2678 2651 2914 
Q 2772 3150 2772 3378 
Q 2772 3750 2511 3984 
Q 2250 4219 1831 4219 
Q 1534 4219 1204 4116 
Q 875 4013 500 3803 
L 500 4441 
Q 881 4594 1212 4672 
Q 1544 4750 1819 4750 
Q 2544 4750 2975 4387 
Q 3406 4025 3406 3419 
Q 3406 3131 3298 2873 
Q 3191 2616 2906 2266 
Q 2828 2175 2409 1742 
Q 1991 1309 1228 531 
z
" transform="scale(0.015625)"/>
       </defs>
       <use xlink:href="#DejaVuSans-32"/>
       <use xlink:href="#DejaVuSans-30" x="63.623047"/>
       <use xlink:href="#DejaVuSans-30" x="127.246094"/>
       <use xlink:href="#DejaVuSans-30" x="190.869141"/>
      </g>
     </g>
    </g>
    <g id="xtick_6">
     <g id="line2d_6">
      <g>
       <use xlink:href="#mef85605dec" x="1246.265433" y="512.64" style="stroke: #000000; stroke-width: 0.8"/>
      </g>
     </g>
     <g id="text_6">
      <!-- 2500 -->
      <g transform="translate(1233.540433 527.238438) scale(0.1 -0.1)">
       <use xlink:href="#DejaVuSans-32"/>
       <use xlink:href="#DejaVuSans-35" x="63.623047"/>
       <use xlink:href="#DejaVuSans-30" x="127.246094"/>
       <use xlink:href="#DejaVuSans-30" x="190.869141"/>
      </g>
     </g>
    </g>
   </g>
   <g id="matplotlib.axis_2">
    <g id="ytick_1">
     <g id="line2d_7">
      <defs>
       <path id="mae57e2ace0" d="M 0 0 
L -3.5 0 
" style="stroke: #000000; stroke-width: 0.8"/>
      </defs>
      <g>
       <use xlink:href="#mae57e2ace0" x="180" y="502.130166" style="stroke: #000000; stroke-width: 0.8"/>
      </g>
     </g>
     <g id="text_7">
      <!-- −2 -->
      <g transform="translate(158.257812 505.929385) scale(0.1 -0.1)">
       <defs>
        <path id="DejaVuSans-2212" d="M 678 2272 
L 4684 2272 
L 4684 1741 
L 678 1741 
L 678 2272 
z
" transform="scale(0.015625)"/>
       </defs>
       <use xlink:href="#DejaVuSans-2212"/>
       <use xlink:href="#DejaVuSans-32" x="83.789062"/>
      </g>
     </g>
    </g>
    <g id="ytick_2">
     <g id="line2d_8">
      <g>
       <use xlink:href="#mae57e2ace0" x="180" y="443.74061" style="stroke: #000000; stroke-width: 0.8"/>
      </g>
     </g>
     <g id="text_8">
      <!-- −1 -->
      <g transform="translate(158.257812 447.539829) scale(0.1 -0.1)">
       <use xlink:href="#DejaVuSans-2212"/>
       <use xlink:href="#DejaVuSans-31" x="83.789062"/>
      </g>
     </g>
    </g>
    <g id="ytick_3">
     <g id="line2d_9">
      <g>
       <use xlink:href="#mae57e2ace0" x="180" y="385.351054" style="stroke: #000000; stroke-width: 0.8"/>
      </g>
     </g>
     <g id="text_9">
      <!-- 0 -->
      <g transform="translate(166.6375 389.150272) scale(0.1 -0.1)">
       <use xlink:href="#DejaVuSans-30"/>
      </g>
     </g>
    </g>
    <g id="ytick_4">
     <g id="line2d_10">
      <g>
       <use xlink:href="#mae57e2ace0" x="180" y="326.961497" style="stroke: #000000; stroke-width: 0.8"/>
      </g>
     </g>
     <g id="text_10">
      <!-- 1 -->
      <g transform="translate(166.6375 330.760716) scale(0.1 -0.1)">
       <use xlink:href="#DejaVuSans-31"/>
      </g>
     </g>
    </g>
    <g id="ytick_5">
     <g id="line2d_11">
      <g>
       <use xlink:href="#mae57e2ace0" x="180" y="268.571941" style="stroke: #000000; stroke-width: 0.8"/>
      </g>
     </g>
     <g id="text_11">
      <!-- 2 -->
      <g transform="translate(166.6375 272.37116) scale(0.1 -0.1)">
       <use xlink:href="#DejaVuSans-32"/>
      </g>
     </g>
    </g>
    <g id="ytick_6">
     <g id="line2d_12">
      <g>
       <use xlink:href="#mae57e2ace0" x="180" y="210.182385" style="stroke: #000000; stroke-width: 0.8"/>
      </g>
     </g>
     <g id="text_12">
      <!-- 3 -->
      <g transform="translate(166.6375 213.981603) scale(0.1 -0.1)">
       <defs>
        <path id="DejaVuSans-33" d="M 2597 2516 
Q 3050 2419 3304 2112 
Q 3559 1806 3559 1356 
Q 3559 666 3084 287 
Q 2609 -91 1734 -91 
Q 1441 -91 1130 -33 
Q 819 25 488 141 
L 488 750 
Q 750 597 1062 519 
Q 1375 441 1716 441 
Q 2309 441 2620 675 
Q 2931 909 2931 1356 
Q 2931 1769 2642 2001 
Q 2353 2234 1838 2234 
L 1294 2234 
L 1294 2753 
L 1863 2753 
Q 2328 2753 2575 2939 
Q 2822 3125 2822 3475 
Q 2822 3834 2567 4026 
Q 2313 4219 1838 4219 
Q 1578 4219 1281 4162 
Q 984 4106 628 3988 
L 628 4550 
Q 988 4650 1302 4700 
Q 1616 4750 1894 4750 
Q 2613 4750 3031 4423 
Q 3450 4097 3450 3541 
Q 3450 3153 3228 2886 
Q 3006 2619 2597 2516 
z
" transform="scale(0.015625)"/>
       </defs>
       <use xlink:href="#DejaVuSans-33"/>
      </g>
     </g>
    </g>
    <g id="ytick_7">
     <g id="line2d_13">
      <g>
       <use xlink:href="#mae57e2ace0" x="180" y="151.792828" style="stroke: #000000; stroke-width: 0.8"/>
      </g>
     </g>
     <g id="text_13">
      <!-- 4 -->
      <g transform="translate(166.6375 155.592047) scale(0.1 -0.1)">
       <defs>
        <path id="DejaVuSans-34" d="M 2419 4116 
L 825 1625 
L 2419 1625 
L 2419 4116 
z
M 2253 4666 
L 3047 4666 
L 3047 1625 
L 3713 1625 
L 3713 1100 
L 3047 1100 
L 3047 0 
L 2419 0 
L 2419 1100 
L 313 1100 
L 313 1709 
L 2253 4666 
z
" transform="scale(0.015625)"/>
       </defs>
       <use xlink:href="#DejaVuSans-34"/>
      </g>
     </g>
    </g>
    <g id="ytick_8">
     <g id="line2d_14">
      <g>
       <use xlink:href="#mae57e2ace0" x="180" y="93.403272" style="stroke: #000000; stroke-width: 0.8"/>
      </g>
     </g>
     <g id="text_14">
      <!-- 5 -->
      <g transform="translate(166.6375 97.202491) scale(0.1 -0.1)">
       <use xlink:href="#DejaVuSans-35"/>
      </g>
     </g>
    </g>
   </g>
   <g id="line2d_15">
    <path d="M 230.727273 443.685023 
L 231.719979 442.562368 
L 232.712685 440.590255 
L 233.70539 438.100922 
L 235.690802 431.838469 
L 238.66892 420.430042 
L 241.647038 407.924003 
L 244.625156 394.440965 
L 245.617862 386.636925 
L 246.610568 377.027731 
L 247.603273 374.604208 
L 248.595979 393.68037 
L 249.588685 368.625359 
L 250.581391 310.115637 
L 251.574097 278.581897 
L 252.566803 263.157606 
L 253.559509 260.650018 
L 254.552215 263.345563 
L 255.544921 260.65632 
L 256.537627 259.178717 
L 257.530333 277.29547 
L 258.523039 361.726539 
L 259.515745 288.878075 
L 260.50845 266.350655 
L 261.501156 253.077173 
L 262.493862 215.635395 
L 263.486568 190.706138 
L 264.479274 184.744936 
L 265.47198 200.314825 
L 266.464686 248.071314 
L 267.457392 254.598309 
L 268.450098 229.313162 
L 269.442804 246.8218 
L 270.43551 312.000935 
L 271.428216 247.104721 
L 272.420922 218.563824 
L 273.413627 206.315642 
L 274.406333 206.737994 
L 275.399039 231.450921 
L 276.391745 301.017296 
L 277.384451 208.565952 
L 278.377157 173.550344 
L 279.369863 153.679812 
L 280.362569 138.567192 
L 281.355275 128.449209 
L 282.347981 124.013832 
L 283.340687 121.710179 
L 284.333393 112.466005 
L 285.326099 98.211179 
L 286.318804 89.28 
L 287.31151 90.723304 
L 288.304216 105.295627 
L 289.296922 135.678039 
L 290.289628 171.507785 
L 291.282334 174.221421 
L 292.27504 184.678487 
L 293.267746 202.652529 
L 294.260452 189.286529 
L 295.253158 187.495764 
L 296.245864 213.342762 
L 297.23857 246.62463 
L 298.231276 232.248807 
L 299.223981 247.701958 
L 300.216687 289.591559 
L 301.209393 253.139175 
L 302.202099 252.272621 
L 303.194805 302.315847 
L 304.187511 322.287628 
L 305.180217 287.157464 
L 306.172923 318.363127 
L 307.165629 374.399657 
L 308.158335 307.496449 
L 309.151041 314.081813 
L 310.143747 354.524693 
L 311.136453 340.050775 
L 312.129159 328.299087 
L 314.11457 341.956848 
L 315.107276 342.132265 
L 316.099982 344.71419 
L 317.092688 346.206906 
L 318.085394 347.306578 
L 319.0781 347.608715 
L 320.070806 351.43717 
L 321.063512 353.437547 
L 322.056218 350.596471 
L 323.048924 356.406233 
L 324.04163 357.316191 
L 325.034336 354.253163 
L 326.027041 360.092948 
L 327.019747 361.075229 
L 328.012453 360.087094 
L 329.005159 363.032177 
L 330.990571 362.317831 
L 331.983277 365.578413 
L 332.975983 368.338992 
L 333.968689 366.208345 
L 334.961395 365.057922 
L 335.954101 366.698778 
L 336.946807 367.184334 
L 337.939513 372.388244 
L 338.932218 374.436976 
L 339.924924 369.796241 
L 340.91763 369.502011 
L 341.910336 375.359405 
L 342.903042 378.949175 
L 343.895748 370.463458 
L 344.888454 370.887672 
L 345.88116 379.210169 
L 346.873866 380.058391 
L 347.866572 372.972019 
L 348.859278 378.018338 
L 349.851984 385.758224 
L 350.84469 377.934603 
L 351.837395 378.711739 
L 352.830101 387.067579 
L 353.822807 381.842937 
L 354.815513 377.925979 
L 355.808219 390.825713 
L 356.800925 382.576764 
L 357.793631 380.658658 
L 359.779043 388.580055 
L 360.771749 388.473304 
L 361.764455 390.070837 
L 362.757161 390.399293 
L 363.749867 387.562808 
L 364.742572 389.364675 
L 365.735278 389.734782 
L 366.727984 387.266617 
L 367.72069 393.276769 
L 368.713396 390.554838 
L 369.706102 390.631489 
L 370.698808 391.060853 
L 371.691514 395.843076 
L 372.68422 394.527521 
L 373.676926 391.74693 
L 375.662338 393.305427 
L 376.655044 395.755996 
L 377.64775 395.415794 
L 379.633161 402.30169 
L 380.625867 399.465289 
L 381.618573 395.553436 
L 382.611279 399.117704 
L 383.603985 400.220041 
L 384.596691 405.684554 
L 385.589397 399.503313 
L 386.582103 398.658361 
L 387.574809 403.365884 
L 388.567515 413.916825 
L 389.560221 405.098556 
L 390.552927 402.900479 
L 391.545632 404.331211 
L 393.531044 409.429927 
L 394.52375 399.845437 
L 395.516456 401.126497 
L 396.509162 406.308214 
L 397.501868 409.899007 
L 398.494574 401.280038 
L 399.48728 405.918238 
L 400.479986 412.818361 
L 401.472692 407.114278 
L 402.465398 413.123774 
L 403.458104 409.306551 
L 405.443515 412.400811 
L 406.436221 413.095667 
L 407.428927 411.763237 
L 408.421633 414.776562 
L 409.414339 412.380238 
L 410.407045 405.957907 
L 411.399751 410.711154 
L 412.392457 412.299633 
L 413.385163 415.568822 
L 414.377869 411.181175 
L 415.370575 413.514174 
L 416.363281 411.77825 
L 417.355986 416.082482 
L 418.348692 417.331608 
L 419.341398 416.737194 
L 420.334104 408.650375 
L 421.32681 411.163434 
L 422.319516 416.647849 
L 423.312222 411.515744 
L 424.304928 414.768696 
L 425.297634 417.539364 
L 426.29034 419.709415 
L 427.283046 414.295763 
L 428.275752 416.448059 
L 429.268458 416.986702 
L 430.261163 420.858691 
L 431.253869 421.255655 
L 432.246575 419.253956 
L 433.239281 420.935452 
L 434.231987 414.07222 
L 435.224693 418.953428 
L 436.217399 415.724743 
L 437.210105 419.817013 
L 438.202811 422.052827 
L 439.195517 417.422947 
L 440.188223 420.396738 
L 441.180929 424.601219 
L 442.173635 424.321433 
L 443.166341 422.737539 
L 444.159046 420.027574 
L 445.151752 422.559943 
L 446.144458 423.716771 
L 447.137164 422.820613 
L 448.12987 423.940199 
L 449.122576 427.991782 
L 451.107988 419.866212 
L 452.100694 420.105105 
L 453.0934 427.788963 
L 454.086106 425.866048 
L 455.078812 424.981718 
L 456.071518 426.284893 
L 457.064223 422.170005 
L 458.056929 424.193564 
L 459.049635 429.029748 
L 460.042341 431.909442 
L 461.035047 427.025815 
L 462.027753 430.67879 
L 463.020459 426.152243 
L 464.013165 429.529825 
L 465.005871 428.489123 
L 465.998577 427.219063 
L 466.991283 432.843331 
L 467.983989 428.565713 
L 468.976695 429.160986 
L 469.9694 438.440084 
L 470.962106 426.260413 
L 471.954812 425.253077 
L 472.947518 433.443736 
L 473.940224 429.115884 
L 474.93293 429.263754 
L 475.925636 430.623406 
L 476.918342 436.927462 
L 477.911048 432.639797 
L 478.903754 429.982731 
L 479.89646 431.502705 
L 480.889166 430.978422 
L 481.881872 431.444415 
L 482.874577 429.263564 
L 483.867283 437.949166 
L 484.859989 438.033111 
L 485.852695 431.376752 
L 486.845401 438.284835 
L 487.838107 434.259326 
L 488.830813 436.790565 
L 489.823519 431.989213 
L 490.816225 439.542186 
L 491.808931 435.147141 
L 492.801637 438.224759 
L 493.794343 434.558943 
L 494.787049 437.426898 
L 495.779754 439.197019 
L 496.77246 438.909914 
L 497.765166 434.100701 
L 498.757872 431.708117 
L 499.750578 440.213965 
L 500.743284 440.512162 
L 501.73599 441.238011 
L 502.728696 439.041406 
L 503.721402 440.86181 
L 504.714108 443.965549 
L 505.706814 434.675478 
L 506.69952 438.612995 
L 507.692226 438.588858 
L 508.684932 438.147518 
L 509.677637 433.022435 
L 510.670343 437.394185 
L 511.663049 443.691759 
L 512.655755 436.036022 
L 513.648461 445.866799 
L 514.641167 440.553667 
L 515.633873 436.871861 
L 516.626579 448.552776 
L 517.619285 434.01246 
L 518.611991 437.323776 
L 519.604697 450.80609 
L 520.597403 449.747367 
L 521.590109 441.163829 
L 522.582814 442.856353 
L 523.57552 442.372143 
L 524.568226 439.856906 
L 525.560932 436.467725 
L 526.553638 446.761965 
L 527.546344 447.675487 
L 528.53905 447.212314 
L 529.531756 440.091101 
L 531.517168 444.996566 
L 532.509874 456.180481 
L 533.50258 444.429974 
L 534.495286 441.503263 
L 535.487991 443.629635 
L 536.480697 447.67745 
L 537.473403 448.904564 
L 538.466109 442.648025 
L 539.458815 440.946106 
L 540.451521 440.972377 
L 541.444227 441.424895 
L 542.436933 445.743589 
L 543.429639 445.384826 
L 544.422345 443.754227 
L 545.415051 447.646074 
L 546.407757 446.52752 
L 547.400463 445.915433 
L 548.393168 447.941489 
L 549.385874 452.601988 
L 550.37858 452.377186 
L 551.371286 439.907152 
L 552.363992 442.946971 
L 553.356698 447.087611 
L 554.349404 452.19768 
L 555.34211 449.749191 
L 556.334816 437.024287 
L 557.327522 449.236467 
L 558.320228 449.762992 
L 559.312934 451.289823 
L 560.30564 451.96049 
L 561.298345 446.574729 
L 562.291051 446.651926 
L 563.283757 453.554233 
L 564.276463 446.52051 
L 565.269169 448.131118 
L 566.261875 451.841533 
L 567.254581 447.466429 
L 568.247287 440.1976 
L 569.239993 452.319884 
L 570.232699 447.934663 
L 571.225405 450.937827 
L 572.218111 447.838654 
L 573.210817 458.526764 
L 575.196228 445.832876 
L 576.188934 446.056449 
L 577.18164 448.805325 
L 578.174346 457.297936 
L 579.167052 455.276925 
L 580.159758 459.970584 
L 581.152464 450.145609 
L 582.14517 452.228192 
L 583.137876 449.024437 
L 584.130582 452.738975 
L 585.123288 446.033634 
L 586.115994 450.417789 
L 588.101405 454.600933 
L 589.094111 453.787708 
L 590.086817 453.644018 
L 591.079523 458.262305 
L 592.072229 447.20022 
L 593.064935 458.112855 
L 594.057641 451.937442 
L 595.050347 462.150283 
L 596.043053 455.340336 
L 597.035759 451.82795 
L 598.028465 452.524538 
L 599.021171 455.666743 
L 600.013877 453.115703 
L 601.006582 452.492731 
L 601.999288 458.138281 
L 602.991994 453.545954 
L 603.9847 456.314639 
L 604.977406 456.654537 
L 605.970112 460.066468 
L 606.962818 457.492368 
L 607.955524 453.756876 
L 608.94823 454.803026 
L 609.940936 453.818733 
L 610.933642 464.905723 
L 612.919054 456.905984 
L 613.911759 456.768007 
L 614.904465 452.776505 
L 615.897171 459.762116 
L 616.889877 457.910485 
L 617.882583 456.855435 
L 618.875289 454.84877 
L 619.867995 459.322755 
L 620.860701 461.328787 
L 621.853407 457.768768 
L 622.846113 457.071739 
L 623.838819 458.950235 
L 624.831525 461.469526 
L 625.824231 459.8807 
L 626.816936 461.237994 
L 627.809642 460.541418 
L 629.795054 458.336562 
L 630.78776 458.063994 
L 631.780466 461.266824 
L 632.773172 458.564299 
L 633.765878 459.79966 
L 634.758584 461.589933 
L 635.75129 462.354602 
L 636.743996 459.634253 
L 637.736702 459.134213 
L 638.729408 462.770564 
L 639.722114 463.865645 
L 640.714819 463.804092 
L 641.707525 461.580722 
L 642.700231 457.814971 
L 643.692937 460.812382 
L 644.685643 461.680367 
L 645.678349 461.494744 
L 646.671055 462.574206 
L 647.663761 461.278247 
L 648.656467 461.327909 
L 649.649173 461.73379 
L 650.641879 463.162128 
L 651.634585 462.794358 
L 652.627291 460.275359 
L 653.619996 462.087485 
L 654.612702 462.292807 
L 655.605408 461.821297 
L 656.598114 461.771731 
L 657.59082 465.147828 
L 658.583526 464.850544 
L 659.576232 463.615947 
L 661.561644 463.732286 
L 662.55435 462.580068 
L 663.547056 464.679153 
L 664.539762 463.998584 
L 665.532468 465.440327 
L 666.525173 464.165011 
L 667.517879 463.264879 
L 668.510585 462.928458 
L 669.503291 465.544249 
L 670.495997 464.406141 
L 671.488703 464.030646 
L 672.481409 464.765179 
L 673.474115 464.666549 
L 674.466821 464.017789 
L 675.459527 464.744125 
L 676.452233 465.871407 
L 677.444939 465.782711 
L 678.437645 465.966608 
L 679.43035 465.435709 
L 680.423056 465.124741 
L 681.415762 466.149124 
L 682.408468 465.571196 
L 683.401174 465.519846 
L 684.39388 466.518668 
L 685.386586 465.879367 
L 686.379292 466.167292 
L 687.371998 465.447776 
L 688.364704 466.79602 
L 689.35741 466.305732 
L 691.342822 466.902579 
L 692.335527 467.495531 
L 693.328233 466.462587 
L 694.320939 468.037835 
L 695.313645 467.459673 
L 696.306351 467.63735 
L 697.299057 466.863049 
L 698.291763 467.766016 
L 699.284469 466.902554 
L 700.277175 468.026019 
L 701.269881 467.196541 
L 702.262587 467.722203 
L 703.255293 468.420411 
L 704.247999 468.006558 
L 705.240705 468.458787 
L 706.23341 468.579552 
L 708.218822 468.132869 
L 709.211528 468.817141 
L 710.204234 469.082529 
L 711.19694 468.955826 
L 712.189646 468.704192 
L 713.182352 469.182972 
L 715.167764 469.542486 
L 716.16047 469.328145 
L 717.153176 469.888749 
L 719.138587 469.949002 
L 720.131293 469.381352 
L 721.123999 470.084278 
L 722.116705 470.281832 
L 723.109411 469.802041 
L 724.102117 469.49382 
L 725.094823 470.143337 
L 726.087529 470.134894 
L 727.080235 470.394191 
L 728.072941 471.280715 
L 729.065647 470.508098 
L 730.058353 470.304536 
L 731.051059 470.977474 
L 732.043764 470.764172 
L 733.03647 471.160286 
L 734.029176 470.95812 
L 735.021882 472.029596 
L 736.014588 471.180125 
L 738 471.849747 
L 738.992706 471.813577 
L 739.985412 471.583805 
L 740.978118 471.668923 
L 741.970824 472.094546 
L 743.956236 471.619977 
L 744.948941 471.960538 
L 745.941647 471.726718 
L 746.934353 472.506102 
L 747.927059 471.89853 
L 748.919765 472.371224 
L 750.905177 472.592296 
L 752.890589 472.782839 
L 753.883295 473.439266 
L 755.868707 473.03674 
L 756.861413 473.414653 
L 757.854118 473.039894 
L 758.846824 473.535454 
L 759.83953 473.168354 
L 760.832236 473.142033 
L 761.824942 473.843308 
L 762.817648 473.751693 
L 764.80306 473.829569 
L 765.795766 474.242383 
L 766.788472 474.448891 
L 767.781178 474.347469 
L 768.773884 474.500753 
L 769.76659 474.175875 
L 770.759295 474.1889 
L 771.752001 474.463597 
L 772.744707 474.340691 
L 774.730119 474.646922 
L 776.715531 474.607453 
L 777.708237 474.970608 
L 778.700943 474.902921 
L 779.693649 475.284166 
L 780.686355 474.810435 
L 781.679061 475.177281 
L 783.664473 475.194598 
L 785.649884 475.860736 
L 786.64259 475.886486 
L 789.620708 475.436339 
L 790.613414 475.888482 
L 791.60612 475.674133 
L 792.598826 475.996207 
L 793.591532 475.956521 
L 795.576944 476.362104 
L 797.562355 476.36011 
L 798.555061 476.215863 
L 799.547767 476.581363 
L 800.540473 476.488186 
L 801.533179 476.744401 
L 802.525885 477.152306 
L 803.518591 476.906505 
L 804.511297 477.15357 
L 805.504003 477.153426 
L 806.496709 476.957684 
L 807.489415 477.29447 
L 809.474827 477.552473 
L 810.467532 477.295191 
L 811.460238 477.375632 
L 813.44565 477.826864 
L 814.438356 477.73883 
L 815.431062 478.016417 
L 816.423768 477.829179 
L 817.416474 478.149558 
L 818.40918 478.009846 
L 820.394592 478.128106 
L 822.380004 477.984364 
L 823.372709 478.285628 
L 825.358121 478.5547 
L 826.350827 478.779086 
L 827.343533 478.786238 
L 828.336239 478.568177 
L 829.328945 478.798347 
L 830.321651 478.840695 
L 831.314357 479.092848 
L 832.307063 479.049287 
L 833.299769 478.83377 
L 834.292475 479.21694 
L 836.277886 479.171541 
L 837.270592 479.620939 
L 838.263298 479.288008 
L 839.256004 479.194605 
L 840.24871 479.519943 
L 841.241416 480.159916 
L 843.226828 479.599478 
L 845.21224 479.736576 
L 846.204946 479.999273 
L 847.197652 479.895953 
L 848.190358 479.944648 
L 849.183064 480.199488 
L 850.175769 480.172462 
L 851.168475 480.468426 
L 852.161181 480.04562 
L 854.146593 480.164504 
L 855.139299 480.660759 
L 857.124711 480.820027 
L 858.117417 480.883364 
L 859.110123 480.750084 
L 861.095535 480.823018 
L 862.088241 480.943185 
L 863.080946 480.679277 
L 864.073652 480.79163 
L 865.066358 480.625844 
L 866.059064 481.353344 
L 867.05177 481.608374 
L 868.044476 481.732998 
L 870.029888 481.320529 
L 871.022594 481.306022 
L 872.0153 481.654959 
L 874.993418 481.903866 
L 875.986123 482.226031 
L 876.978829 481.590605 
L 877.971535 482.129952 
L 878.964241 481.919631 
L 879.956947 482.200897 
L 880.949653 482.173088 
L 881.942359 482.373503 
L 885.913183 482.156387 
L 886.905889 482.618497 
L 887.898595 482.306163 
L 889.884006 482.564159 
L 891.869418 482.659219 
L 892.862124 483.158364 
L 893.85483 482.829462 
L 894.847536 482.95622 
L 895.840242 483.377098 
L 897.825654 482.847024 
L 898.81836 483.099409 
L 901.796477 483.397721 
L 902.789183 483.30359 
L 903.781889 483.969226 
L 904.774595 483.564525 
L 906.760007 483.628104 
L 907.752713 483.904745 
L 908.745419 483.930911 
L 910.730831 483.551432 
L 911.723537 483.927984 
L 913.708949 483.627392 
L 914.701655 483.780464 
L 915.69436 483.792586 
L 916.687066 484.141222 
L 917.679772 483.919328 
L 918.672478 484.246789 
L 920.65789 484.536764 
L 921.650596 484.211231 
L 922.643302 484.477563 
L 923.636008 484.155284 
L 924.628714 484.63182 
L 926.614126 484.812596 
L 927.606832 484.718329 
L 928.599537 484.809222 
L 929.592243 484.584931 
L 930.584949 484.812201 
L 931.577655 484.679111 
L 932.570361 484.779963 
L 933.563067 484.64773 
L 934.555773 484.859221 
L 935.548479 485.224673 
L 936.541185 485.054685 
L 937.533891 485.453004 
L 940.512009 484.853337 
L 941.504714 485.762952 
L 942.49742 485.414607 
L 943.490126 485.46186 
L 944.482832 485.662189 
L 946.468244 485.505684 
L 948.453656 485.778968 
L 950.439068 485.551436 
L 951.431774 485.655106 
L 952.42448 486.159043 
L 953.417186 485.938927 
L 954.409891 485.839805 
L 955.402597 486.060736 
L 956.395303 485.902296 
L 957.388009 485.991698 
L 958.380715 486.261639 
L 959.373421 486.305624 
L 960.366127 485.980814 
L 961.358833 486.034147 
L 962.351539 486.40398 
L 963.344245 486.431873 
L 965.329657 485.98876 
L 966.322363 486.130556 
L 967.315068 486.397798 
L 968.307774 487.125881 
L 969.30048 486.046127 
L 970.293186 486.172561 
L 971.285892 486.822568 
L 972.278598 486.79938 
L 974.26401 487.11176 
L 977.242128 487.057629 
L 978.234834 486.543341 
L 979.22754 486.841561 
L 981.212951 487.238205 
L 982.205657 487.015977 
L 983.198363 487.126138 
L 984.191069 486.660844 
L 985.183775 486.850835 
L 986.176481 487.312129 
L 987.169187 487.127706 
L 988.161893 487.131376 
L 989.154599 487.248326 
L 990.147305 487.13149 
L 991.140011 487.633825 
L 992.132717 487.690987 
L 993.125423 487.458164 
L 994.118128 488.108954 
L 996.10354 487.326083 
L 997.096246 488.035904 
L 999.081658 487.636929 
L 1000.074364 487.580909 
L 1001.06707 487.867798 
L 1002.059776 487.978557 
L 1003.052482 487.64399 
L 1004.045188 487.976843 
L 1006.0306 487.828937 
L 1007.023305 487.594285 
L 1008.016011 487.91418 
L 1009.008717 487.900757 
L 1010.001423 488.321795 
L 1010.994129 488.042927 
L 1012.979541 488.201683 
L 1013.972247 488.822149 
L 1014.964953 488.47731 
L 1015.957659 488.722816 
L 1017.943071 488.175066 
L 1018.935777 488.143942 
L 1019.928482 488.583922 
L 1020.921188 488.758472 
L 1021.913894 488.514221 
L 1022.9066 488.517016 
L 1023.899306 488.900309 
L 1024.892012 488.696321 
L 1026.877424 488.767861 
L 1027.87013 488.885382 
L 1028.862836 488.648894 
L 1029.855542 488.56318 
L 1030.848248 489.095541 
L 1031.840954 489.315384 
L 1032.833659 489.196595 
L 1033.826365 488.912905 
L 1034.819071 488.395638 
L 1035.811777 488.581936 
L 1036.804483 489.280913 
L 1037.797189 489.360827 
L 1038.789895 489.613922 
L 1039.782601 489.157094 
L 1040.775307 489.323733 
L 1041.768013 489.102874 
L 1042.760719 489.506832 
L 1043.753425 489.700408 
L 1044.746131 488.888234 
L 1045.738837 489.590513 
L 1046.731542 489.150954 
L 1048.716954 488.877444 
L 1049.70966 489.608762 
L 1050.702366 489.267185 
L 1051.695072 489.52968 
L 1052.687778 489.249521 
L 1055.665896 489.894331 
L 1056.658602 489.388878 
L 1057.651308 489.407206 
L 1058.644014 489.832482 
L 1059.636719 489.422491 
L 1060.629425 489.288553 
L 1061.622131 489.605611 
L 1062.614837 489.518825 
L 1063.607543 490.022282 
L 1065.592955 489.335593 
L 1066.585661 489.853901 
L 1067.578367 489.858511 
L 1068.571073 490.325428 
L 1069.563779 489.897543 
L 1070.556485 490.127467 
L 1071.549191 490.022834 
L 1072.541896 490.094911 
L 1073.534602 489.742427 
L 1074.527308 490.06145 
L 1075.520014 490.098862 
L 1076.51272 489.951388 
L 1078.498132 489.861774 
L 1079.490838 490.069392 
L 1080.483544 490.430213 
L 1081.47625 490.470099 
L 1082.468956 490.310515 
L 1083.461662 490.033664 
L 1084.454368 490.453292 
L 1085.447073 490.068477 
L 1086.439779 490.436789 
L 1087.432485 490.439183 
L 1088.425191 490.639857 
L 1089.417897 490.184123 
L 1090.410603 490.562489 
L 1091.403309 490.11688 
L 1092.396015 490.989674 
L 1093.388721 490.808502 
L 1094.381427 490.395081 
L 1095.374133 490.564337 
L 1097.359545 490.69128 
L 1098.35225 490.291992 
L 1099.344956 490.671451 
L 1100.337662 490.543352 
L 1101.330368 490.649117 
L 1103.31578 490.541488 
L 1104.308486 490.677227 
L 1105.301192 490.566747 
L 1106.293898 490.735516 
L 1107.286604 491.318118 
L 1108.27931 490.810806 
L 1109.272016 490.971636 
L 1110.264722 490.813552 
L 1111.257428 490.921762 
L 1112.250133 490.870147 
L 1113.242839 491.193603 
L 1115.228251 490.522511 
L 1116.220957 490.980132 
L 1117.213663 490.673731 
L 1118.206369 490.530059 
L 1119.199075 490.800412 
L 1120.191781 491.309896 
L 1122.177193 491.402264 
L 1123.169899 491.531353 
L 1124.162605 490.975913 
L 1125.15531 490.766914 
L 1126.148016 491.237175 
L 1128.133428 490.961146 
L 1130.11884 491.413469 
L 1131.111546 491.021006 
L 1133.096958 491.201763 
L 1134.089664 491.107827 
L 1135.08237 491.602433 
L 1136.075076 491.161751 
L 1138.060487 491.22811 
L 1139.053193 491.011718 
L 1140.045899 490.953928 
L 1141.038605 491.625187 
L 1142.031311 491.472185 
L 1143.024017 491.014588 
L 1144.016723 491.476684 
L 1145.009429 491.331162 
L 1146.002135 491.582426 
L 1146.994841 491.358079 
L 1149.972959 491.189096 
L 1150.965664 491.612656 
L 1151.95837 491.083988 
L 1152.951076 491.675505 
L 1153.943782 492.00848 
L 1154.936488 491.60123 
L 1155.929194 491.048554 
L 1156.9219 491.592604 
L 1157.914606 491.676655 
L 1158.907312 491.349332 
L 1159.900018 491.302632 
L 1160.892724 491.882589 
L 1161.88543 491.453656 
L 1162.878136 491.606891 
L 1163.870841 492.086032 
L 1164.863547 491.664232 
L 1166.848959 491.294391 
L 1167.841665 492.002517 
L 1168.834371 492.130251 
L 1169.827077 491.316951 
L 1170.819783 491.55327 
L 1171.812489 492.097823 
L 1172.805195 491.489645 
L 1173.797901 491.621625 
L 1174.790607 491.590688 
L 1175.783313 491.842977 
L 1177.768724 491.858889 
L 1178.76143 491.568382 
L 1179.754136 491.431786 
L 1180.746842 491.82636 
L 1181.739548 491.673597 
L 1182.732254 492.275157 
L 1184.717666 491.895458 
L 1185.710372 492.205083 
L 1186.703078 491.573021 
L 1187.695784 491.971151 
L 1188.68849 492.015446 
L 1189.681196 491.911671 
L 1190.673901 492.149192 
L 1193.652019 492.129684 
L 1194.644725 491.497691 
L 1195.637431 491.651864 
L 1196.630137 492.149659 
L 1197.622843 492.024011 
L 1198.615549 492.136947 
L 1199.608255 492.122525 
L 1201.593667 492.231088 
L 1204.571784 492.053557 
L 1205.56449 491.734454 
L 1207.549902 492.140324 
L 1208.542608 492.130449 
L 1210.52802 491.675241 
L 1212.513432 492.048555 
L 1213.506138 492.065047 
L 1214.498844 492.48 
L 1215.49155 492.015919 
L 1216.484255 491.952796 
L 1217.476961 492.289743 
L 1218.469667 492.205854 
L 1219.462373 491.573317 
L 1220.455079 492.152494 
L 1222.440491 492.426415 
L 1223.433197 491.982233 
L 1224.425903 491.930959 
L 1225.418609 491.493281 
L 1227.404021 491.901728 
L 1228.396727 492.094635 
L 1229.389432 491.340422 
L 1230.382138 491.691711 
L 1231.374844 492.34948 
L 1232.36755 492.077512 
L 1233.360256 491.984413 
L 1235.345668 492.08536 
L 1236.338374 491.984699 
L 1237.33108 492.047266 
L 1238.323786 491.717298 
L 1240.309198 492.439173 
L 1241.301904 491.837303 
L 1242.29461 492.170433 
L 1243.287315 492.032389 
L 1244.280021 492.350982 
L 1245.272727 491.680906 
L 1245.272727 491.680906 
" clip-path="url(#p02b70d635d)" style="fill: none; stroke: #1f77b4; stroke-width: 1.5; stroke-linecap: square"/>
   </g>
   <g id="patch_3">
    <path d="M 180 512.64 
L 180 69.12 
" style="fill: none; stroke: #000000; stroke-width: 0.8; stroke-linejoin: miter; stroke-linecap: square"/>
   </g>
   <g id="patch_4">
    <path d="M 1296 512.64 
L 1296 69.12 
" style="fill: none; stroke: #000000; stroke-width: 0.8; stroke-linejoin: miter; stroke-linecap: square"/>
   </g>
   <g id="patch_5">
    <path d="M 180 512.64 
L 1296 512.64 
" style="fill: none; stroke: #000000; stroke-width: 0.8; stroke-linejoin: miter; stroke-linecap: square"/>
   </g>
   <g id="patch_6">
    <path d="M 180 69.12 
L 1296 69.12 
" style="fill: none; stroke: #000000; stroke-width: 0.8; stroke-linejoin: miter; stroke-linecap: square"/>
   </g>
   <g id="text_15">
    <!-- source20-receiver7 -->
    <g transform="translate(544.9 60.80125) scale(0.4 -0.4)">
     <defs>
      <path id="DejaVuSans-73" d="M 2834 3397 
L 2834 2853 
Q 2591 2978 2328 3040 
Q 2066 3103 1784 3103 
Q 1356 3103 1142 2972 
Q 928 2841 928 2578 
Q 928 2378 1081 2264 
Q 1234 2150 1697 2047 
L 1894 2003 
Q 2506 1872 2764 1633 
Q 3022 1394 3022 966 
Q 3022 478 2636 193 
Q 2250 -91 1575 -91 
Q 1294 -91 989 -36 
Q 684 19 347 128 
L 347 722 
Q 666 556 975 473 
Q 1284 391 1588 391 
Q 1994 391 2212 530 
Q 2431 669 2431 922 
Q 2431 1156 2273 1281 
Q 2116 1406 1581 1522 
L 1381 1569 
Q 847 1681 609 1914 
Q 372 2147 372 2553 
Q 372 3047 722 3315 
Q 1072 3584 1716 3584 
Q 2034 3584 2315 3537 
Q 2597 3491 2834 3397 
z
" transform="scale(0.015625)"/>
      <path id="DejaVuSans-6f" d="M 1959 3097 
Q 1497 3097 1228 2736 
Q 959 2375 959 1747 
Q 959 1119 1226 758 
Q 1494 397 1959 397 
Q 2419 397 2687 759 
Q 2956 1122 2956 1747 
Q 2956 2369 2687 2733 
Q 2419 3097 1959 3097 
z
M 1959 3584 
Q 2709 3584 3137 3096 
Q 3566 2609 3566 1747 
Q 3566 888 3137 398 
Q 2709 -91 1959 -91 
Q 1206 -91 779 398 
Q 353 888 353 1747 
Q 353 2609 779 3096 
Q 1206 3584 1959 3584 
z
" transform="scale(0.015625)"/>
      <path id="DejaVuSans-75" d="M 544 1381 
L 544 3500 
L 1119 3500 
L 1119 1403 
Q 1119 906 1312 657 
Q 1506 409 1894 409 
Q 2359 409 2629 706 
Q 2900 1003 2900 1516 
L 2900 3500 
L 3475 3500 
L 3475 0 
L 2900 0 
L 2900 538 
Q 2691 219 2414 64 
Q 2138 -91 1772 -91 
Q 1169 -91 856 284 
Q 544 659 544 1381 
z
M 1991 3584 
L 1991 3584 
z
" transform="scale(0.015625)"/>
      <path id="DejaVuSans-72" d="M 2631 2963 
Q 2534 3019 2420 3045 
Q 2306 3072 2169 3072 
Q 1681 3072 1420 2755 
Q 1159 2438 1159 1844 
L 1159 0 
L 581 0 
L 581 3500 
L 1159 3500 
L 1159 2956 
Q 1341 3275 1631 3429 
Q 1922 3584 2338 3584 
Q 2397 3584 2469 3576 
Q 2541 3569 2628 3553 
L 2631 2963 
z
" transform="scale(0.015625)"/>
      <path id="DejaVuSans-63" d="M 3122 3366 
L 3122 2828 
Q 2878 2963 2633 3030 
Q 2388 3097 2138 3097 
Q 1578 3097 1268 2742 
Q 959 2388 959 1747 
Q 959 1106 1268 751 
Q 1578 397 2138 397 
Q 2388 397 2633 464 
Q 2878 531 3122 666 
L 3122 134 
Q 2881 22 2623 -34 
Q 2366 -91 2075 -91 
Q 1284 -91 818 406 
Q 353 903 353 1747 
Q 353 2603 823 3093 
Q 1294 3584 2113 3584 
Q 2378 3584 2631 3529 
Q 2884 3475 3122 3366 
z
" transform="scale(0.015625)"/>
      <path id="DejaVuSans-65" d="M 3597 1894 
L 3597 1613 
L 953 1613 
Q 991 1019 1311 708 
Q 1631 397 2203 397 
Q 2534 397 2845 478 
Q 3156 559 3463 722 
L 3463 178 
Q 3153 47 2828 -22 
Q 2503 -91 2169 -91 
Q 1331 -91 842 396 
Q 353 884 353 1716 
Q 353 2575 817 3079 
Q 1281 3584 2069 3584 
Q 2775 3584 3186 3129 
Q 3597 2675 3597 1894 
z
M 3022 2063 
Q 3016 2534 2758 2815 
Q 2500 3097 2075 3097 
Q 1594 3097 1305 2825 
Q 1016 2553 972 2059 
L 3022 2063 
z
" transform="scale(0.015625)"/>
      <path id="DejaVuSans-2d" d="M 313 2009 
L 1997 2009 
L 1997 1497 
L 313 1497 
L 313 2009 
z
" transform="scale(0.015625)"/>
      <path id="DejaVuSans-69" d="M 603 3500 
L 1178 3500 
L 1178 0 
L 603 0 
L 603 3500 
z
M 603 4863 
L 1178 4863 
L 1178 4134 
L 603 4134 
L 603 4863 
z
" transform="scale(0.015625)"/>
      <path id="DejaVuSans-76" d="M 191 3500 
L 800 3500 
L 1894 563 
L 2988 3500 
L 3597 3500 
L 2284 0 
L 1503 0 
L 191 3500 
z
" transform="scale(0.015625)"/>
      <path id="DejaVuSans-37" d="M 525 4666 
L 3525 4666 
L 3525 4397 
L 1831 0 
L 1172 0 
L 2766 4134 
L 525 4134 
L 525 4666 
z
" transform="scale(0.015625)"/>
     </defs>
     <use xlink:href="#DejaVuSans-73"/>
     <use xlink:href="#DejaVuSans-6f" x="52.099609"/>
     <use xlink:href="#DejaVuSans-75" x="113.28125"/>
     <use xlink:href="#DejaVuSans-72" x="176.660156"/>
     <use xlink:href="#DejaVuSans-63" x="215.523438"/>
     <use xlink:href="#DejaVuSans-65" x="270.503906"/>
     <use xlink:href="#DejaVuSans-32" x="332.027344"/>
     <use xlink:href="#DejaVuSans-30" x="395.650391"/>
     <use xlink:href="#DejaVuSans-2d" x="459.273438"/>
     <use xlink:href="#DejaVuSans-72" x="495.357422"/>
     <use xlink:href="#DejaVuSans-65" x="534.220703"/>
     <use xlink:href="#DejaVuSans-63" x="595.744141"/>
     <use xlink:href="#DejaVuSans-65" x="650.724609"/>
     <use xlink:href="#DejaVuSans-69" x="712.248047"/>
     <use xlink:href="#DejaVuSans-76" x="740.03125"/>
     <use xlink:href="#DejaVuSans-65" x="799.210938"/>
     <use xlink:href="#DejaVuSans-72" x="860.734375"/>
     <use xlink:href="#DejaVuSans-37" x="901.847656"/>
    </g>
   </g>
  </g>
 </g>
 <defs>
  <clipPath id="p02b70d635d">
   <rect x="180" y="69.12" width="1116" height="443.52"/>
  </clipPath>
 </defs>
</svg>
