<?xml version="1.0" encoding="utf-8" standalone="no"?>
<!DOCTYPE svg PUBLIC "-//W3C//DTD SVG 1.1//EN"
  "http://www.w3.org/Graphics/SVG/1.1/DTD/svg11.dtd">
<svg xmlns:xlink="http://www.w3.org/1999/xlink" width="1440pt" height="576pt" viewBox="0 0 1440 576" xmlns="http://www.w3.org/2000/svg" version="1.1">
 <metadata>
  <rdf:RDF xmlns:dc="http://purl.org/dc/elements/1.1/" xmlns:cc="http://creativecommons.org/ns#" xmlns:rdf="http://www.w3.org/1999/02/22-rdf-syntax-ns#">
   <cc:Work>
    <dc:type rdf:resource="http://purl.org/dc/dcmitype/StillImage"/>
    <dc:date>2024-05-22T04:50:17.764588</dc:date>
    <dc:format>image/svg+xml</dc:format>
    <dc:creator>
     <cc:Agent>
      <dc:title>Matplotlib v3.8.3, https://matplotlib.org/</dc:title>
     </cc:Agent>
    </dc:creator>
   </cc:Work>
  </rdf:RDF>
 </metadata>
 <defs>
  <style type="text/css">*{stroke-linejoin: round; stroke-linecap: butt}</style>
 </defs>
 <g id="figure_1">
  <g id="patch_1">
   <path d="M 0 576 
L 1440 576 
L 1440 0 
L 0 0 
z
" style="fill: #ffffff"/>
  </g>
  <g id="axes_1">
   <g id="patch_2">
    <path d="M 180 512.64 
L 1296 512.64 
L 1296 69.12 
L 180 69.12 
z
" style="fill: #ffffff"/>
   </g>
   <g id="matplotlib.axis_1">
    <g id="xtick_1">
     <g id="line2d_1">
      <defs>
       <path id="m9dd6cd1f1a" d="M 0 0 
L 0 3.5 
" style="stroke: #000000; stroke-width: 0.8"/>
      </defs>
      <g>
       <use xlink:href="#m9dd6cd1f1a" x="229.734567" y="512.64" style="stroke: #000000; stroke-width: 0.8"/>
      </g>
     </g>
     <g id="text_1">
      <!-- 0 -->
      <g transform="translate(226.553317 527.238438) scale(0.1 -0.1)">
       <defs>
        <path id="DejaVuSans-30" d="M 2034 4250 
Q 1547 4250 1301 3770 
Q 1056 3291 1056 2328 
Q 1056 1369 1301 889 
Q 1547 409 2034 409 
Q 2525 409 2770 889 
Q 3016 1369 3016 2328 
Q 3016 3291 2770 3770 
Q 2525 4250 2034 4250 
z
M 2034 4750 
Q 2819 4750 3233 4129 
Q 3647 3509 3647 2328 
Q 3647 1150 3233 529 
Q 2819 -91 2034 -91 
Q 1250 -91 836 529 
Q 422 1150 422 2328 
Q 422 3509 836 4129 
Q 1250 4750 2034 4750 
z
" transform="scale(0.015625)"/>
       </defs>
       <use xlink:href="#DejaVuSans-30"/>
      </g>
     </g>
    </g>
    <g id="xtick_2">
     <g id="line2d_2">
      <g>
       <use xlink:href="#m9dd6cd1f1a" x="433.04074" y="512.64" style="stroke: #000000; stroke-width: 0.8"/>
      </g>
     </g>
     <g id="text_2">
      <!-- 500 -->
      <g transform="translate(423.49699 527.238438) scale(0.1 -0.1)">
       <defs>
        <path id="DejaVuSans-35" d="M 691 4666 
L 3169 4666 
L 3169 4134 
L 1269 4134 
L 1269 2991 
Q 1406 3038 1543 3061 
Q 1681 3084 1819 3084 
Q 2600 3084 3056 2656 
Q 3513 2228 3513 1497 
Q 3513 744 3044 326 
Q 2575 -91 1722 -91 
Q 1428 -91 1123 -41 
Q 819 9 494 109 
L 494 744 
Q 775 591 1075 516 
Q 1375 441 1709 441 
Q 2250 441 2565 725 
Q 2881 1009 2881 1497 
Q 2881 1984 2565 2268 
Q 2250 2553 1709 2553 
Q 1456 2553 1204 2497 
Q 953 2441 691 2322 
L 691 4666 
z
" transform="scale(0.015625)"/>
       </defs>
       <use xlink:href="#DejaVuSans-35"/>
       <use xlink:href="#DejaVuSans-30" x="63.623047"/>
       <use xlink:href="#DejaVuSans-30" x="127.246094"/>
      </g>
     </g>
    </g>
    <g id="xtick_3">
     <g id="line2d_3">
      <g>
       <use xlink:href="#m9dd6cd1f1a" x="636.346913" y="512.64" style="stroke: #000000; stroke-width: 0.8"/>
      </g>
     </g>
     <g id="text_3">
      <!-- 1000 -->
      <g transform="translate(623.621913 527.238438) scale(0.1 -0.1)">
       <defs>
        <path id="DejaVuSans-31" d="M 794 531 
L 1825 531 
L 1825 4091 
L 703 3866 
L 703 4441 
L 1819 4666 
L 2450 4666 
L 2450 531 
L 3481 531 
L 3481 0 
L 794 0 
L 794 531 
z
" transform="scale(0.015625)"/>
       </defs>
       <use xlink:href="#DejaVuSans-31"/>
       <use xlink:href="#DejaVuSans-30" x="63.623047"/>
       <use xlink:href="#DejaVuSans-30" x="127.246094"/>
       <use xlink:href="#DejaVuSans-30" x="190.869141"/>
      </g>
     </g>
    </g>
    <g id="xtick_4">
     <g id="line2d_4">
      <g>
       <use xlink:href="#m9dd6cd1f1a" x="839.653087" y="512.64" style="stroke: #000000; stroke-width: 0.8"/>
      </g>
     </g>
     <g id="text_4">
      <!-- 1500 -->
      <g transform="translate(826.928087 527.238438) scale(0.1 -0.1)">
       <use xlink:href="#DejaVuSans-31"/>
       <use xlink:href="#DejaVuSans-35" x="63.623047"/>
       <use xlink:href="#DejaVuSans-30" x="127.246094"/>
       <use xlink:href="#DejaVuSans-30" x="190.869141"/>
      </g>
     </g>
    </g>
    <g id="xtick_5">
     <g id="line2d_5">
      <g>
       <use xlink:href="#m9dd6cd1f1a" x="1042.95926" y="512.64" style="stroke: #000000; stroke-width: 0.8"/>
      </g>
     </g>
     <g id="text_5">
      <!-- 2000 -->
      <g transform="translate(1030.23426 527.238438) scale(0.1 -0.1)">
       <defs>
        <path id="DejaVuSans-32" d="M 1228 531 
L 3431 531 
L 3431 0 
L 469 0 
L 469 531 
Q 828 903 1448 1529 
Q 2069 2156 2228 2338 
Q 2531 2678 2651 2914 
Q 2772 3150 2772 3378 
Q 2772 3750 2511 3984 
Q 2250 4219 1831 4219 
Q 1534 4219 1204 4116 
Q 875 4013 500 3803 
L 500 4441 
Q 881 4594 1212 4672 
Q 1544 4750 1819 4750 
Q 2544 4750 2975 4387 
Q 3406 4025 3406 3419 
Q 3406 3131 3298 2873 
Q 3191 2616 2906 2266 
Q 2828 2175 2409 1742 
Q 1991 1309 1228 531 
z
" transform="scale(0.015625)"/>
       </defs>
       <use xlink:href="#DejaVuSans-32"/>
       <use xlink:href="#DejaVuSans-30" x="63.623047"/>
       <use xlink:href="#DejaVuSans-30" x="127.246094"/>
       <use xlink:href="#DejaVuSans-30" x="190.869141"/>
      </g>
     </g>
    </g>
    <g id="xtick_6">
     <g id="line2d_6">
      <g>
       <use xlink:href="#m9dd6cd1f1a" x="1246.265433" y="512.64" style="stroke: #000000; stroke-width: 0.8"/>
      </g>
     </g>
     <g id="text_6">
      <!-- 2500 -->
      <g transform="translate(1233.540433 527.238438) scale(0.1 -0.1)">
       <use xlink:href="#DejaVuSans-32"/>
       <use xlink:href="#DejaVuSans-35" x="63.623047"/>
       <use xlink:href="#DejaVuSans-30" x="127.246094"/>
       <use xlink:href="#DejaVuSans-30" x="190.869141"/>
      </g>
     </g>
    </g>
   </g>
   <g id="matplotlib.axis_2">
    <g id="ytick_1">
     <g id="line2d_7">
      <defs>
       <path id="m5fb27948de" d="M 0 0 
L -3.5 0 
" style="stroke: #000000; stroke-width: 0.8"/>
      </defs>
      <g>
       <use xlink:href="#m5fb27948de" x="180" y="495.166487" style="stroke: #000000; stroke-width: 0.8"/>
      </g>
     </g>
     <g id="text_7">
      <!-- −2 -->
      <g transform="translate(158.257812 498.965706) scale(0.1 -0.1)">
       <defs>
        <path id="DejaVuSans-2212" d="M 678 2272 
L 4684 2272 
L 4684 1741 
L 678 1741 
L 678 2272 
z
" transform="scale(0.015625)"/>
       </defs>
       <use xlink:href="#DejaVuSans-2212"/>
       <use xlink:href="#DejaVuSans-32" x="83.789062"/>
      </g>
     </g>
    </g>
    <g id="ytick_2">
     <g id="line2d_8">
      <g>
       <use xlink:href="#m5fb27948de" x="180" y="418.074014" style="stroke: #000000; stroke-width: 0.8"/>
      </g>
     </g>
     <g id="text_8">
      <!-- −1 -->
      <g transform="translate(158.257812 421.873233) scale(0.1 -0.1)">
       <use xlink:href="#DejaVuSans-2212"/>
       <use xlink:href="#DejaVuSans-31" x="83.789062"/>
      </g>
     </g>
    </g>
    <g id="ytick_3">
     <g id="line2d_9">
      <g>
       <use xlink:href="#m5fb27948de" x="180" y="340.981542" style="stroke: #000000; stroke-width: 0.8"/>
      </g>
     </g>
     <g id="text_9">
      <!-- 0 -->
      <g transform="translate(166.6375 344.780761) scale(0.1 -0.1)">
       <use xlink:href="#DejaVuSans-30"/>
      </g>
     </g>
    </g>
    <g id="ytick_4">
     <g id="line2d_10">
      <g>
       <use xlink:href="#m5fb27948de" x="180" y="263.889069" style="stroke: #000000; stroke-width: 0.8"/>
      </g>
     </g>
     <g id="text_10">
      <!-- 1 -->
      <g transform="translate(166.6375 267.688288) scale(0.1 -0.1)">
       <use xlink:href="#DejaVuSans-31"/>
      </g>
     </g>
    </g>
    <g id="ytick_5">
     <g id="line2d_11">
      <g>
       <use xlink:href="#m5fb27948de" x="180" y="186.796597" style="stroke: #000000; stroke-width: 0.8"/>
      </g>
     </g>
     <g id="text_11">
      <!-- 2 -->
      <g transform="translate(166.6375 190.595816) scale(0.1 -0.1)">
       <use xlink:href="#DejaVuSans-32"/>
      </g>
     </g>
    </g>
    <g id="ytick_6">
     <g id="line2d_12">
      <g>
       <use xlink:href="#m5fb27948de" x="180" y="109.704124" style="stroke: #000000; stroke-width: 0.8"/>
      </g>
     </g>
     <g id="text_12">
      <!-- 3 -->
      <g transform="translate(166.6375 113.503343) scale(0.1 -0.1)">
       <defs>
        <path id="DejaVuSans-33" d="M 2597 2516 
Q 3050 2419 3304 2112 
Q 3559 1806 3559 1356 
Q 3559 666 3084 287 
Q 2609 -91 1734 -91 
Q 1441 -91 1130 -33 
Q 819 25 488 141 
L 488 750 
Q 750 597 1062 519 
Q 1375 441 1716 441 
Q 2309 441 2620 675 
Q 2931 909 2931 1356 
Q 2931 1769 2642 2001 
Q 2353 2234 1838 2234 
L 1294 2234 
L 1294 2753 
L 1863 2753 
Q 2328 2753 2575 2939 
Q 2822 3125 2822 3475 
Q 2822 3834 2567 4026 
Q 2313 4219 1838 4219 
Q 1578 4219 1281 4162 
Q 984 4106 628 3988 
L 628 4550 
Q 988 4650 1302 4700 
Q 1616 4750 1894 4750 
Q 2613 4750 3031 4423 
Q 3450 4097 3450 3541 
Q 3450 3153 3228 2886 
Q 3006 2619 2597 2516 
z
" transform="scale(0.015625)"/>
       </defs>
       <use xlink:href="#DejaVuSans-33"/>
      </g>
     </g>
    </g>
   </g>
   <g id="line2d_13">
    <path d="M 230.727273 482.471239 
L 231.719979 478.352199 
L 233.70539 464.926331 
L 234.698096 455.969506 
L 235.690802 448.743811 
L 236.683508 439.681806 
L 237.676214 432.569592 
L 239.661626 416.761387 
L 241.647038 401.454768 
L 244.625156 375.990843 
L 245.617862 364.036372 
L 246.610568 338.290631 
L 249.588685 225.68326 
L 250.581391 194.967382 
L 251.574097 171.207345 
L 252.566803 156.066916 
L 253.559509 153.989725 
L 254.552215 169.720437 
L 255.544921 205.330416 
L 256.537627 214.058928 
L 257.530333 181.682473 
L 258.523039 182.399439 
L 259.515745 234.919119 
L 260.50845 231.056104 
L 261.501156 167.92037 
L 262.493862 157.558775 
L 263.486568 182.676317 
L 264.479274 220.947577 
L 265.47198 189.48814 
L 266.464686 183.24111 
L 267.457392 204.727493 
L 268.450098 199.454866 
L 269.442804 194.939794 
L 270.43551 257.131988 
L 271.428216 236.569977 
L 272.420922 168.610748 
L 273.413627 164.616405 
L 274.406333 190.202814 
L 276.391745 130.818046 
L 277.384451 132.317423 
L 278.377157 157.023786 
L 279.369863 150.523531 
L 280.362569 125.443053 
L 281.355275 129.283308 
L 282.347981 183.066659 
L 283.340687 173.541037 
L 284.333393 107.675378 
L 285.326099 89.28 
L 286.318804 103.100661 
L 287.31151 149.305605 
L 288.304216 133.250713 
L 289.296922 96.392617 
L 290.289628 92.338649 
L 291.282334 112.41933 
L 292.27504 143.275237 
L 293.267746 155.831931 
L 294.260452 172.639889 
L 295.253158 231.436455 
L 296.245864 316.182008 
L 297.23857 279.923418 
L 298.231276 433.459621 
L 299.223981 266.834522 
L 300.216687 235.819237 
L 301.209393 248.122675 
L 302.202099 245.740211 
L 303.194805 227.717582 
L 304.187511 235.091331 
L 305.180217 263.139151 
L 306.172923 264.376015 
L 307.165629 266.360418 
L 308.158335 290.684502 
L 309.151041 293.05737 
L 310.143747 275.907413 
L 312.129159 284.458365 
L 313.121864 283.273961 
L 314.11457 290.700322 
L 315.107276 291.748282 
L 316.099982 295.267326 
L 317.092688 300.429915 
L 318.085394 299.665483 
L 319.0781 297.346736 
L 320.070806 301.119469 
L 321.063512 308.276873 
L 322.056218 306.915679 
L 323.048924 307.492691 
L 324.04163 311.485443 
L 325.034336 311.984642 
L 326.027041 316.410907 
L 327.019747 314.555108 
L 328.012453 317.288181 
L 329.005159 320.534518 
L 329.997865 318.952403 
L 330.990571 321.146477 
L 331.983277 323.882564 
L 332.975983 322.231721 
L 333.968689 323.979083 
L 334.961395 328.064656 
L 335.954101 326.129799 
L 336.946807 325.751516 
L 337.939513 333.881968 
L 339.924924 334.255603 
L 340.91763 333.791042 
L 341.910336 335.36138 
L 342.903042 337.206463 
L 343.895748 333.10307 
L 344.888454 338.383181 
L 345.88116 336.916983 
L 346.873866 344.612588 
L 347.866572 340.911028 
L 348.859278 340.406364 
L 349.851984 342.918514 
L 350.84469 340.484514 
L 351.837395 343.160557 
L 352.830101 349.893153 
L 353.822807 353.334132 
L 354.815513 348.838365 
L 355.808219 347.40574 
L 356.800925 350.125791 
L 357.793631 347.236166 
L 358.786337 351.861436 
L 359.779043 352.850417 
L 360.771749 356.130096 
L 361.764455 350.763342 
L 362.757161 353.128906 
L 363.749867 356.770476 
L 364.742572 354.666761 
L 365.735278 358.710767 
L 366.727984 354.811765 
L 367.72069 364.20742 
L 368.713396 357.426275 
L 369.706102 360.93853 
L 370.698808 357.619535 
L 371.691514 364.373729 
L 372.68422 360.539236 
L 373.676926 360.781953 
L 374.669632 358.531239 
L 375.662338 355.280465 
L 376.655044 357.071616 
L 377.64775 361.662844 
L 378.640455 365.646511 
L 379.633161 377.900585 
L 380.625867 372.814035 
L 381.618573 360.293711 
L 382.611279 369.198568 
L 383.603985 372.395685 
L 384.596691 380.892737 
L 385.589397 365.017063 
L 386.582103 369.291987 
L 387.574809 374.834625 
L 388.567515 385.872304 
L 389.560221 374.826707 
L 390.552927 372.832668 
L 391.545632 384.499449 
L 392.538338 385.800469 
L 393.531044 372.157577 
L 394.52375 371.491315 
L 395.516456 374.567185 
L 396.509162 376.270862 
L 397.501868 378.900126 
L 398.494574 371.160023 
L 399.48728 381.281512 
L 400.479986 377.60545 
L 401.472692 379.461783 
L 402.465398 379.499732 
L 403.458104 388.443714 
L 404.450809 383.009076 
L 405.443515 379.864806 
L 406.436221 390.703155 
L 407.428927 388.89613 
L 408.421633 393.257831 
L 409.414339 389.838544 
L 410.407045 384.296658 
L 411.399751 391.000129 
L 412.392457 390.958282 
L 413.385163 386.670353 
L 414.377869 390.494663 
L 415.370575 390.587171 
L 416.363281 381.982051 
L 417.355986 398.502495 
L 418.348692 389.206051 
L 419.341398 392.147816 
L 420.334104 384.639755 
L 421.32681 392.041602 
L 422.319516 390.29054 
L 423.312222 394.463753 
L 424.304928 386.114711 
L 425.297634 398.130181 
L 426.29034 390.337065 
L 427.283046 395.703659 
L 428.275752 397.736022 
L 429.268458 395.951156 
L 430.261163 398.851978 
L 431.253869 383.797839 
L 432.246575 401.834885 
L 433.239281 401.166335 
L 435.224693 385.481734 
L 436.217399 395.497351 
L 437.210105 397.162936 
L 438.202811 402.499004 
L 439.195517 402.992271 
L 440.188223 394.95312 
L 441.180929 401.258632 
L 442.173635 395.174837 
L 443.166341 398.695472 
L 444.159046 397.296362 
L 445.151752 396.156694 
L 446.144458 401.158255 
L 447.137164 405.09291 
L 448.12987 397.142552 
L 449.122576 408.354422 
L 450.115282 409.021174 
L 451.107988 402.498642 
L 452.100694 403.535345 
L 453.0934 407.606876 
L 454.086106 403.011767 
L 455.078812 406.345755 
L 456.071518 401.312431 
L 457.064223 400.346079 
L 458.056929 403.474633 
L 459.049635 406.988557 
L 460.042341 409.125807 
L 461.035047 409.247892 
L 462.027753 411.664174 
L 463.020459 412.742308 
L 464.013165 404.553351 
L 465.005871 403.831446 
L 465.998577 411.117393 
L 466.991283 411.697792 
L 467.983989 410.924476 
L 468.976695 409.326952 
L 469.9694 418.149355 
L 470.962106 412.474254 
L 471.954812 419.739502 
L 472.947518 410.670698 
L 473.940224 418.044472 
L 474.93293 414.948164 
L 475.925636 416.533714 
L 476.918342 413.234642 
L 477.911048 411.140979 
L 478.903754 405.767774 
L 479.89646 411.824356 
L 480.889166 421.337568 
L 481.881872 414.295747 
L 482.874577 414.575944 
L 483.867283 422.167201 
L 484.859989 415.403811 
L 485.852695 409.428167 
L 487.838107 421.31714 
L 488.830813 412.123383 
L 489.823519 409.84152 
L 490.816225 417.221782 
L 491.808931 412.001309 
L 492.801637 407.628206 
L 493.794343 408.605385 
L 494.787049 420.975565 
L 495.779754 413.519673 
L 496.77246 413.962077 
L 497.765166 414.814274 
L 498.757872 415.974812 
L 499.750578 417.790659 
L 500.743284 419.126694 
L 501.73599 416.819261 
L 502.728696 419.784869 
L 503.721402 429.162016 
L 504.714108 418.712279 
L 505.706814 416.20991 
L 506.69952 429.550282 
L 507.692226 414.407246 
L 508.684932 417.19225 
L 509.677637 415.133 
L 510.670343 419.396098 
L 511.663049 424.159431 
L 512.655755 417.500993 
L 513.648461 423.165666 
L 514.641167 429.985403 
L 515.633873 427.547593 
L 516.626579 431.425767 
L 517.619285 418.483546 
L 518.611991 416.023141 
L 519.604697 418.172807 
L 520.597403 420.632224 
L 521.590109 423.820785 
L 522.582814 418.822255 
L 523.57552 433.51431 
L 524.568226 423.924936 
L 525.560932 420.514199 
L 526.553638 435.520077 
L 527.546344 427.963171 
L 528.53905 442.856739 
L 529.531756 430.611778 
L 530.524462 430.002426 
L 531.517168 431.13514 
L 532.509874 436.919769 
L 533.50258 412.781273 
L 534.495286 434.967188 
L 535.487991 429.61706 
L 536.480697 427.087112 
L 537.473403 437.718982 
L 538.466109 429.465224 
L 539.458815 419.886541 
L 540.451521 430.95826 
L 541.444227 422.788341 
L 542.436933 420.003116 
L 543.429639 441.118729 
L 544.422345 426.929503 
L 545.415051 437.333569 
L 547.400463 428.134012 
L 548.393168 435.894317 
L 549.385874 437.004862 
L 550.37858 433.189142 
L 551.371286 416.886059 
L 552.363992 429.763912 
L 553.356698 434.696771 
L 554.349404 443.232417 
L 555.34211 440.948522 
L 556.334816 434.76049 
L 557.327522 435.448778 
L 558.320228 437.784581 
L 559.312934 428.979611 
L 560.30564 435.078659 
L 561.298345 432.218034 
L 562.291051 430.873361 
L 563.283757 444.773015 
L 564.276463 428.970378 
L 565.269169 437.40176 
L 566.261875 440.928897 
L 567.254581 442.603293 
L 568.247287 435.195705 
L 569.239993 434.563235 
L 570.232699 421.236049 
L 571.225405 434.025084 
L 572.218111 427.733382 
L 573.210817 445.91857 
L 574.203523 438.216894 
L 575.196228 435.594681 
L 576.188934 429.929251 
L 577.18164 427.515408 
L 578.174346 437.005884 
L 579.167052 439.142243 
L 580.159758 436.639098 
L 581.152464 434.663472 
L 582.14517 440.223421 
L 583.137876 437.240282 
L 584.130582 435.226314 
L 585.123288 438.148848 
L 586.115994 439.279358 
L 587.1087 436.268642 
L 588.101405 434.422589 
L 589.094111 435.110627 
L 590.086817 447.606043 
L 591.079523 446.78856 
L 592.072229 450.405177 
L 593.064935 440.090452 
L 594.057641 442.330801 
L 595.050347 445.540465 
L 596.043053 441.080321 
L 597.035759 442.090459 
L 598.028465 436.76393 
L 599.021171 439.487813 
L 600.013877 441.318948 
L 601.006582 447.485703 
L 601.999288 444.680797 
L 602.991994 447.191557 
L 603.9847 447.434458 
L 604.977406 445.503303 
L 605.970112 440.392438 
L 606.962818 448.14792 
L 607.955524 438.908817 
L 608.94823 439.579798 
L 609.940936 436.723716 
L 610.933642 445.45299 
L 611.926348 444.714493 
L 612.919054 443.09418 
L 613.911759 443.550478 
L 614.904465 447.307663 
L 615.897171 443.637733 
L 616.889877 443.479392 
L 617.882583 447.743318 
L 618.875289 448.519121 
L 619.867995 450.04232 
L 620.860701 450.353146 
L 621.853407 444.37938 
L 622.846113 445.374831 
L 623.838819 443.072904 
L 624.831525 446.696778 
L 625.824231 452.350578 
L 626.816936 448.006754 
L 627.809642 446.450884 
L 628.802348 447.171401 
L 629.795054 448.033276 
L 630.78776 445.064974 
L 631.780466 448.97426 
L 632.773172 444.564221 
L 633.765878 451.109845 
L 634.758584 445.083666 
L 635.75129 449.400254 
L 636.743996 452.437296 
L 637.736702 451.999193 
L 638.729408 456.251955 
L 639.722114 452.797137 
L 640.714819 452.742271 
L 641.707525 451.636709 
L 642.700231 451.862367 
L 643.692937 451.100359 
L 644.685643 454.251349 
L 645.678349 451.058854 
L 646.671055 454.792163 
L 647.663761 449.446029 
L 648.656467 454.774219 
L 649.649173 450.431424 
L 650.641879 452.657205 
L 651.634585 453.967607 
L 652.627291 455.661878 
L 653.619996 452.414388 
L 654.612702 453.168167 
L 655.605408 454.564464 
L 656.598114 453.771 
L 657.59082 452.339469 
L 658.583526 451.806884 
L 659.576232 453.3614 
L 660.568938 455.92435 
L 661.561644 455.419988 
L 662.55435 455.067767 
L 663.547056 453.397888 
L 664.539762 455.687058 
L 665.532468 452.609285 
L 666.525173 455.891882 
L 667.517879 455.290168 
L 668.510585 454.461292 
L 669.503291 454.66843 
L 670.495997 456.271178 
L 671.488703 456.654971 
L 672.481409 457.473414 
L 673.474115 454.71965 
L 674.466821 455.917105 
L 675.459527 457.398328 
L 677.444939 456.158244 
L 678.437645 455.622321 
L 679.43035 456.828406 
L 680.423056 455.486585 
L 681.415762 458.116861 
L 682.408468 457.106358 
L 683.401174 457.8242 
L 684.39388 458.692958 
L 685.386586 458.413412 
L 686.379292 456.481232 
L 687.371998 457.752964 
L 688.364704 458.79277 
L 690.350116 457.566029 
L 691.342822 458.332849 
L 692.335527 458.20333 
L 693.328233 458.747046 
L 696.306351 458.257264 
L 697.299057 459.818951 
L 698.291763 460.156525 
L 699.284469 459.112726 
L 700.277175 459.654798 
L 701.269881 459.805412 
L 702.262587 460.105447 
L 703.255293 458.80125 
L 704.247999 461.939665 
L 705.240705 459.691979 
L 706.23341 459.667394 
L 707.226116 460.351811 
L 708.218822 460.477252 
L 709.211528 461.022433 
L 710.204234 462.074558 
L 711.19694 460.751582 
L 712.189646 461.218463 
L 713.182352 461.985199 
L 714.175058 461.981575 
L 715.167764 462.489929 
L 716.16047 461.721954 
L 717.153176 462.496248 
L 718.145882 462.267831 
L 719.138587 461.736568 
L 720.131293 461.951861 
L 721.123999 462.51369 
L 722.116705 462.905184 
L 723.109411 461.827629 
L 724.102117 462.927912 
L 725.094823 463.615834 
L 726.087529 462.9162 
L 727.080235 463.058725 
L 728.072941 463.815628 
L 729.065647 462.813936 
L 730.058353 463.3694 
L 731.051059 463.413282 
L 732.043764 464.084354 
L 733.03647 463.2568 
L 734.029176 462.712654 
L 735.021882 464.110913 
L 736.014588 464.215825 
L 737.007294 465.000005 
L 738 464.744745 
L 738.992706 464.020536 
L 739.985412 465.911231 
L 740.978118 464.992645 
L 741.970824 465.474723 
L 742.96353 465.720224 
L 743.956236 464.948459 
L 744.948941 465.872502 
L 745.941647 465.37851 
L 746.934353 465.416622 
L 747.927059 465.720121 
L 748.919765 466.686017 
L 750.905177 466.240044 
L 751.897883 466.55787 
L 752.890589 465.967138 
L 753.883295 466.621445 
L 754.876001 466.237289 
L 755.868707 467.239039 
L 756.861413 466.196959 
L 757.854118 467.282123 
L 758.846824 466.582843 
L 759.83953 467.65745 
L 760.832236 466.883039 
L 762.817648 467.479792 
L 763.810354 467.562668 
L 764.80306 467.090677 
L 765.795766 467.365745 
L 766.788472 467.860761 
L 767.781178 467.801888 
L 768.773884 468.078231 
L 769.76659 468.775114 
L 770.759295 468.007778 
L 772.744707 469.086162 
L 773.737413 469.31086 
L 774.730119 469.388818 
L 775.722825 468.613229 
L 776.715531 469.184964 
L 778.700943 468.951422 
L 779.693649 469.710066 
L 780.686355 469.449826 
L 781.679061 470.360291 
L 782.671767 469.401017 
L 783.664473 470.416909 
L 784.657178 469.740478 
L 785.649884 470.524598 
L 786.64259 469.694875 
L 787.635296 470.186866 
L 788.628002 469.278318 
L 789.620708 470.160721 
L 790.613414 470.067096 
L 791.60612 470.287134 
L 792.598826 470.272355 
L 793.591532 471.201503 
L 794.584238 471.006938 
L 795.576944 471.309204 
L 796.56965 470.874971 
L 797.562355 471.084294 
L 798.555061 470.86487 
L 799.547767 471.098693 
L 800.540473 471.141736 
L 801.533179 470.881678 
L 802.525885 471.79362 
L 803.518591 472.381303 
L 804.511297 472.247465 
L 805.504003 471.936701 
L 807.489415 472.244248 
L 808.482121 472.073167 
L 809.474827 473.026386 
L 810.467532 472.204259 
L 811.460238 471.754459 
L 812.452944 471.982043 
L 813.44565 472.361741 
L 814.438356 473.328572 
L 815.431062 473.689845 
L 816.423768 472.811247 
L 817.416474 473.293301 
L 818.40918 473.435431 
L 819.401886 473.232599 
L 820.394592 473.476564 
L 821.387298 473.118728 
L 823.372709 473.610052 
L 824.365415 473.790785 
L 825.358121 473.131467 
L 826.350827 473.431571 
L 827.343533 473.361638 
L 828.336239 474.058271 
L 829.328945 473.866086 
L 830.321651 474.728141 
L 831.314357 474.21776 
L 832.307063 474.774572 
L 833.299769 474.261419 
L 834.292475 474.404399 
L 835.285181 475.023754 
L 836.277886 474.560415 
L 837.270592 475.352567 
L 838.263298 474.966685 
L 839.256004 474.937865 
L 842.234122 475.325734 
L 843.226828 475.15785 
L 844.219534 474.806009 
L 845.21224 475.354227 
L 846.204946 476.201737 
L 847.197652 476.117558 
L 848.190358 476.290013 
L 849.183064 476.158373 
L 850.175769 476.466192 
L 851.168475 476.456102 
L 852.161181 476.071578 
L 853.153887 476.646523 
L 855.139299 475.882555 
L 856.132005 476.817763 
L 857.124711 476.461751 
L 858.117417 476.584953 
L 859.110123 476.16483 
L 860.102829 476.525121 
L 861.095535 477.455071 
L 862.088241 477.240228 
L 863.080946 477.17562 
L 866.059064 477.502117 
L 867.05177 477.345973 
L 868.044476 477.661188 
L 869.037182 477.086937 
L 870.029888 478.264208 
L 871.022594 477.750754 
L 872.0153 476.991157 
L 873.008006 477.446818 
L 874.000712 478.37395 
L 874.993418 477.562757 
L 875.986123 478.40609 
L 876.978829 478.924332 
L 877.971535 477.971878 
L 878.964241 477.843502 
L 879.956947 478.074956 
L 880.949653 479.23247 
L 881.942359 478.279612 
L 882.935065 478.616526 
L 883.927771 478.545033 
L 884.920477 479.086568 
L 886.905889 478.96219 
L 887.898595 478.148262 
L 888.8913 479.292353 
L 889.884006 479.179736 
L 891.869418 479.443542 
L 892.862124 479.278841 
L 893.85483 479.4055 
L 894.847536 479.815289 
L 895.840242 479.363123 
L 896.832948 479.366521 
L 897.825654 479.116145 
L 898.81836 479.292633 
L 899.811066 480.170708 
L 900.803772 480.555201 
L 901.796477 480.306195 
L 902.789183 480.621198 
L 903.781889 480.469598 
L 904.774595 481.359828 
L 905.767301 480.382912 
L 906.760007 480.888807 
L 907.752713 480.820567 
L 908.745419 480.442939 
L 909.738125 481.204218 
L 910.730831 480.570293 
L 911.723537 480.339611 
L 912.716243 481.153495 
L 913.708949 480.952624 
L 914.701655 481.223966 
L 915.69436 480.739441 
L 916.687066 480.740281 
L 917.679772 481.675997 
L 918.672478 481.609865 
L 919.665184 481.667057 
L 920.65789 481.363263 
L 922.643302 481.659467 
L 923.636008 481.967322 
L 925.62142 481.66561 
L 926.614126 481.711537 
L 928.599537 482.261541 
L 929.592243 482.010482 
L 930.584949 482.209649 
L 931.577655 481.641645 
L 932.570361 482.49934 
L 933.563067 482.201368 
L 934.555773 482.315553 
L 935.548479 482.773091 
L 936.541185 482.567249 
L 937.533891 482.647645 
L 938.526597 482.508211 
L 939.519303 483.070884 
L 940.512009 481.908617 
L 941.504714 483.191789 
L 942.49742 482.245402 
L 943.490126 482.663195 
L 944.482832 483.676864 
L 945.475538 483.305264 
L 946.468244 484.038552 
L 947.46095 483.861746 
L 948.453656 483.425376 
L 949.446362 483.410649 
L 950.439068 482.375255 
L 951.431774 483.160697 
L 952.42448 483.63679 
L 953.417186 482.94671 
L 954.409891 483.909556 
L 955.402597 483.934256 
L 956.395303 483.560263 
L 957.388009 484.00823 
L 958.380715 484.090875 
L 959.373421 483.685188 
L 960.366127 483.503947 
L 961.358833 484.535512 
L 962.351539 484.191838 
L 964.336951 483.812441 
L 965.329657 484.545285 
L 966.322363 484.102292 
L 967.315068 484.427231 
L 968.307774 483.64538 
L 969.30048 484.759734 
L 970.293186 484.416185 
L 971.285892 485.104169 
L 972.278598 484.479285 
L 973.271304 484.50131 
L 974.26401 485.4321 
L 975.256716 484.309357 
L 977.242128 484.628483 
L 978.234834 484.821137 
L 979.22754 484.673822 
L 980.220246 485.160042 
L 981.212951 485.186772 
L 982.205657 484.846532 
L 984.191069 485.23665 
L 985.183775 484.690264 
L 986.176481 485.239735 
L 987.169187 485.04006 
L 988.161893 485.230215 
L 989.154599 485.640942 
L 990.147305 484.569093 
L 991.140011 485.596855 
L 992.132717 485.884983 
L 993.125423 485.254332 
L 994.118128 485.922873 
L 995.110834 486.870579 
L 996.10354 485.631484 
L 997.096246 485.631447 
L 998.088952 485.242741 
L 999.081658 486.430162 
L 1000.074364 486.444784 
L 1001.06707 485.889305 
L 1002.059776 486.555905 
L 1003.052482 485.814794 
L 1004.045188 486.347558 
L 1005.037894 485.592355 
L 1006.0306 486.305262 
L 1007.023305 486.48435 
L 1008.016011 485.824815 
L 1009.008717 485.992384 
L 1010.001423 486.870259 
L 1010.994129 486.051242 
L 1011.986835 486.842361 
L 1012.979541 486.330729 
L 1013.972247 487.30438 
L 1014.964953 486.824686 
L 1015.957659 486.736626 
L 1016.950365 486.7666 
L 1017.943071 487.102158 
L 1018.935777 487.240083 
L 1019.928482 487.655291 
L 1020.921188 486.753022 
L 1021.913894 486.971034 
L 1022.9066 486.139944 
L 1023.899306 486.58796 
L 1024.892012 486.58219 
L 1025.884718 487.832809 
L 1026.877424 488.027577 
L 1027.87013 487.108316 
L 1028.862836 487.073716 
L 1029.855542 487.362336 
L 1030.848248 487.000047 
L 1031.840954 487.40168 
L 1032.833659 487.152626 
L 1033.826365 487.75347 
L 1034.819071 488.150264 
L 1035.811777 487.137555 
L 1036.804483 487.994342 
L 1038.789895 487.744208 
L 1039.782601 487.899511 
L 1040.775307 487.486944 
L 1041.768013 487.532143 
L 1043.753425 488.227229 
L 1044.746131 487.042815 
L 1045.738837 487.711803 
L 1046.731542 488.059264 
L 1047.724248 487.614603 
L 1048.716954 487.610688 
L 1049.70966 488.372359 
L 1050.702366 488.047631 
L 1051.695072 488.270475 
L 1052.687778 488.013398 
L 1053.680484 488.521885 
L 1054.67319 488.609038 
L 1055.665896 487.768451 
L 1056.658602 488.505819 
L 1057.651308 488.104622 
L 1058.644014 488.246741 
L 1059.636719 488.7993 
L 1060.629425 487.764092 
L 1061.622131 489.058133 
L 1062.614837 488.15995 
L 1063.607543 489.460986 
L 1064.600249 489.25068 
L 1065.592955 488.626531 
L 1066.585661 489.360629 
L 1067.578367 488.562251 
L 1068.571073 489.520244 
L 1069.563779 489.381701 
L 1070.556485 488.800439 
L 1071.549191 487.964511 
L 1072.541896 489.071349 
L 1073.534602 488.691855 
L 1074.527308 488.702788 
L 1075.520014 489.428317 
L 1076.51272 489.151878 
L 1077.505426 489.107711 
L 1079.490838 489.405065 
L 1080.483544 489.302442 
L 1081.47625 489.064743 
L 1082.468956 489.692918 
L 1083.461662 489.598002 
L 1084.454368 489.060521 
L 1085.447073 489.200561 
L 1086.439779 489.044212 
L 1087.432485 489.803351 
L 1088.425191 489.650998 
L 1089.417897 489.688033 
L 1090.410603 490.242038 
L 1091.403309 489.347083 
L 1092.396015 489.00471 
L 1093.388721 490.224916 
L 1094.381427 489.560644 
L 1096.366839 490.116871 
L 1097.359545 489.249652 
L 1098.35225 489.581007 
L 1099.344956 489.715924 
L 1100.337662 490.473402 
L 1101.330368 489.62872 
L 1103.31578 490.264947 
L 1104.308486 489.817486 
L 1105.301192 489.733964 
L 1106.293898 489.891014 
L 1107.286604 490.364713 
L 1109.272016 490.230235 
L 1110.264722 489.85562 
L 1111.257428 490.730437 
L 1112.250133 489.870113 
L 1113.242839 489.765213 
L 1114.235545 490.104937 
L 1115.228251 490.038873 
L 1116.220957 490.296629 
L 1117.213663 490.019623 
L 1118.206369 489.60505 
L 1119.199075 490.423062 
L 1120.191781 490.310312 
L 1121.184487 491.107213 
L 1122.177193 490.784851 
L 1124.162605 490.434042 
L 1125.15531 490.20428 
L 1126.148016 490.307775 
L 1127.140722 490.869923 
L 1128.133428 490.013939 
L 1129.126134 490.147954 
L 1130.11884 490.562991 
L 1131.111546 490.102914 
L 1132.104252 490.676464 
L 1133.096958 490.536715 
L 1135.08237 490.700427 
L 1136.075076 490.823367 
L 1137.067782 490.804886 
L 1138.060487 490.663797 
L 1139.053193 490.761414 
L 1140.045899 491.049263 
L 1141.038605 490.108061 
L 1142.031311 490.435703 
L 1144.016723 490.443464 
L 1145.009429 490.712913 
L 1146.994841 490.80554 
L 1148.980253 491.732594 
L 1149.972959 491.105871 
L 1150.965664 491.195247 
L 1151.95837 490.408929 
L 1152.951076 490.941079 
L 1153.943782 490.896859 
L 1154.936488 491.098898 
L 1155.929194 490.94558 
L 1156.9219 491.355017 
L 1157.914606 490.826944 
L 1158.907312 490.981514 
L 1159.900018 491.401481 
L 1160.892724 490.795191 
L 1161.88543 490.877081 
L 1162.878136 490.270347 
L 1164.863547 491.314572 
L 1165.856253 491.295368 
L 1166.848959 490.27989 
L 1167.841665 491.088483 
L 1168.834371 491.483153 
L 1169.827077 490.886151 
L 1170.819783 491.904774 
L 1171.812489 491.31029 
L 1172.805195 491.074228 
L 1173.797901 491.372069 
L 1174.790607 490.98279 
L 1175.783313 491.386135 
L 1176.776019 491.658548 
L 1177.768724 491.542211 
L 1178.76143 491.016753 
L 1179.754136 491.369416 
L 1180.746842 491.420643 
L 1181.739548 492.164985 
L 1182.732254 492.027708 
L 1183.72496 491.2874 
L 1184.717666 491.041904 
L 1186.703078 491.467257 
L 1187.695784 492.420233 
L 1188.68849 492.457717 
L 1190.673901 491.623261 
L 1191.666607 491.806781 
L 1192.659313 491.232553 
L 1193.652019 491.421862 
L 1194.644725 491.417261 
L 1195.637431 491.881749 
L 1196.630137 491.175016 
L 1197.622843 491.170069 
L 1199.608255 491.867816 
L 1200.600961 492.330861 
L 1201.593667 491.179597 
L 1202.586373 491.206356 
L 1203.579078 491.023181 
L 1204.571784 491.61529 
L 1205.56449 491.892475 
L 1206.557196 492.48 
L 1207.549902 491.54886 
L 1208.542608 491.599622 
L 1210.52802 491.382824 
L 1211.520726 491.488329 
L 1212.513432 492.108884 
L 1214.498844 491.113304 
L 1215.49155 491.951908 
L 1216.484255 491.412521 
L 1217.476961 491.878226 
L 1220.455079 491.421806 
L 1222.440491 492.275704 
L 1223.433197 492.315265 
L 1224.425903 492.085056 
L 1225.418609 492.175684 
L 1226.411315 491.392987 
L 1227.404021 491.542473 
L 1228.396727 491.355522 
L 1229.389432 491.633956 
L 1230.382138 492.081595 
L 1231.374844 492.112343 
L 1232.36755 491.507785 
L 1233.360256 491.658793 
L 1234.352962 491.497649 
L 1235.345668 491.641097 
L 1236.338374 492.327707 
L 1237.33108 492.044269 
L 1238.323786 492.114615 
L 1239.316492 491.837189 
L 1240.309198 491.751203 
L 1241.301904 491.407249 
L 1242.29461 490.908212 
L 1243.287315 491.605196 
L 1244.280021 491.951771 
L 1245.272727 491.652073 
L 1245.272727 491.652073 
" clip-path="url(#p992ce83732)" style="fill: none; stroke: #1f77b4; stroke-width: 1.5; stroke-linecap: square"/>
   </g>
   <g id="patch_3">
    <path d="M 180 512.64 
L 180 69.12 
" style="fill: none; stroke: #000000; stroke-width: 0.8; stroke-linejoin: miter; stroke-linecap: square"/>
   </g>
   <g id="patch_4">
    <path d="M 1296 512.64 
L 1296 69.12 
" style="fill: none; stroke: #000000; stroke-width: 0.8; stroke-linejoin: miter; stroke-linecap: square"/>
   </g>
   <g id="patch_5">
    <path d="M 180 512.64 
L 1296 512.64 
" style="fill: none; stroke: #000000; stroke-width: 0.8; stroke-linejoin: miter; stroke-linecap: square"/>
   </g>
   <g id="patch_6">
    <path d="M 180 69.12 
L 1296 69.12 
" style="fill: none; stroke: #000000; stroke-width: 0.8; stroke-linejoin: miter; stroke-linecap: square"/>
   </g>
   <g id="text_13">
    <!-- source20-receiver9 -->
    <g transform="translate(544.9 60.80125) scale(0.4 -0.4)">
     <defs>
      <path id="DejaVuSans-73" d="M 2834 3397 
L 2834 2853 
Q 2591 2978 2328 3040 
Q 2066 3103 1784 3103 
Q 1356 3103 1142 2972 
Q 928 2841 928 2578 
Q 928 2378 1081 2264 
Q 1234 2150 1697 2047 
L 1894 2003 
Q 2506 1872 2764 1633 
Q 3022 1394 3022 966 
Q 3022 478 2636 193 
Q 2250 -91 1575 -91 
Q 1294 -91 989 -36 
Q 684 19 347 128 
L 347 722 
Q 666 556 975 473 
Q 1284 391 1588 391 
Q 1994 391 2212 530 
Q 2431 669 2431 922 
Q 2431 1156 2273 1281 
Q 2116 1406 1581 1522 
L 1381 1569 
Q 847 1681 609 1914 
Q 372 2147 372 2553 
Q 372 3047 722 3315 
Q 1072 3584 1716 3584 
Q 2034 3584 2315 3537 
Q 2597 3491 2834 3397 
z
" transform="scale(0.015625)"/>
      <path id="DejaVuSans-6f" d="M 1959 3097 
Q 1497 3097 1228 2736 
Q 959 2375 959 1747 
Q 959 1119 1226 758 
Q 1494 397 1959 397 
Q 2419 397 2687 759 
Q 2956 1122 2956 1747 
Q 2956 2369 2687 2733 
Q 2419 3097 1959 3097 
z
M 1959 3584 
Q 2709 3584 3137 3096 
Q 3566 2609 3566 1747 
Q 3566 888 3137 398 
Q 2709 -91 1959 -91 
Q 1206 -91 779 398 
Q 353 888 353 1747 
Q 353 2609 779 3096 
Q 1206 3584 1959 3584 
z
" transform="scale(0.015625)"/>
      <path id="DejaVuSans-75" d="M 544 1381 
L 544 3500 
L 1119 3500 
L 1119 1403 
Q 1119 906 1312 657 
Q 1506 409 1894 409 
Q 2359 409 2629 706 
Q 2900 1003 2900 1516 
L 2900 3500 
L 3475 3500 
L 3475 0 
L 2900 0 
L 2900 538 
Q 2691 219 2414 64 
Q 2138 -91 1772 -91 
Q 1169 -91 856 284 
Q 544 659 544 1381 
z
M 1991 3584 
L 1991 3584 
z
" transform="scale(0.015625)"/>
      <path id="DejaVuSans-72" d="M 2631 2963 
Q 2534 3019 2420 3045 
Q 2306 3072 2169 3072 
Q 1681 3072 1420 2755 
Q 1159 2438 1159 1844 
L 1159 0 
L 581 0 
L 581 3500 
L 1159 3500 
L 1159 2956 
Q 1341 3275 1631 3429 
Q 1922 3584 2338 3584 
Q 2397 3584 2469 3576 
Q 2541 3569 2628 3553 
L 2631 2963 
z
" transform="scale(0.015625)"/>
      <path id="DejaVuSans-63" d="M 3122 3366 
L 3122 2828 
Q 2878 2963 2633 3030 
Q 2388 3097 2138 3097 
Q 1578 3097 1268 2742 
Q 959 2388 959 1747 
Q 959 1106 1268 751 
Q 1578 397 2138 397 
Q 2388 397 2633 464 
Q 2878 531 3122 666 
L 3122 134 
Q 2881 22 2623 -34 
Q 2366 -91 2075 -91 
Q 1284 -91 818 406 
Q 353 903 353 1747 
Q 353 2603 823 3093 
Q 1294 3584 2113 3584 
Q 2378 3584 2631 3529 
Q 2884 3475 3122 3366 
z
" transform="scale(0.015625)"/>
      <path id="DejaVuSans-65" d="M 3597 1894 
L 3597 1613 
L 953 1613 
Q 991 1019 1311 708 
Q 1631 397 2203 397 
Q 2534 397 2845 478 
Q 3156 559 3463 722 
L 3463 178 
Q 3153 47 2828 -22 
Q 2503 -91 2169 -91 
Q 1331 -91 842 396 
Q 353 884 353 1716 
Q 353 2575 817 3079 
Q 1281 3584 2069 3584 
Q 2775 3584 3186 3129 
Q 3597 2675 3597 1894 
z
M 3022 2063 
Q 3016 2534 2758 2815 
Q 2500 3097 2075 3097 
Q 1594 3097 1305 2825 
Q 1016 2553 972 2059 
L 3022 2063 
z
" transform="scale(0.015625)"/>
      <path id="DejaVuSans-2d" d="M 313 2009 
L 1997 2009 
L 1997 1497 
L 313 1497 
L 313 2009 
z
" transform="scale(0.015625)"/>
      <path id="DejaVuSans-69" d="M 603 3500 
L 1178 3500 
L 1178 0 
L 603 0 
L 603 3500 
z
M 603 4863 
L 1178 4863 
L 1178 4134 
L 603 4134 
L 603 4863 
z
" transform="scale(0.015625)"/>
      <path id="DejaVuSans-76" d="M 191 3500 
L 800 3500 
L 1894 563 
L 2988 3500 
L 3597 3500 
L 2284 0 
L 1503 0 
L 191 3500 
z
" transform="scale(0.015625)"/>
      <path id="DejaVuSans-39" d="M 703 97 
L 703 672 
Q 941 559 1184 500 
Q 1428 441 1663 441 
Q 2288 441 2617 861 
Q 2947 1281 2994 2138 
Q 2813 1869 2534 1725 
Q 2256 1581 1919 1581 
Q 1219 1581 811 2004 
Q 403 2428 403 3163 
Q 403 3881 828 4315 
Q 1253 4750 1959 4750 
Q 2769 4750 3195 4129 
Q 3622 3509 3622 2328 
Q 3622 1225 3098 567 
Q 2575 -91 1691 -91 
Q 1453 -91 1209 -44 
Q 966 3 703 97 
z
M 1959 2075 
Q 2384 2075 2632 2365 
Q 2881 2656 2881 3163 
Q 2881 3666 2632 3958 
Q 2384 4250 1959 4250 
Q 1534 4250 1286 3958 
Q 1038 3666 1038 3163 
Q 1038 2656 1286 2365 
Q 1534 2075 1959 2075 
z
" transform="scale(0.015625)"/>
     </defs>
     <use xlink:href="#DejaVuSans-73"/>
     <use xlink:href="#DejaVuSans-6f" x="52.099609"/>
     <use xlink:href="#DejaVuSans-75" x="113.28125"/>
     <use xlink:href="#DejaVuSans-72" x="176.660156"/>
     <use xlink:href="#DejaVuSans-63" x="215.523438"/>
     <use xlink:href="#DejaVuSans-65" x="270.503906"/>
     <use xlink:href="#DejaVuSans-32" x="332.027344"/>
     <use xlink:href="#DejaVuSans-30" x="395.650391"/>
     <use xlink:href="#DejaVuSans-2d" x="459.273438"/>
     <use xlink:href="#DejaVuSans-72" x="495.357422"/>
     <use xlink:href="#DejaVuSans-65" x="534.220703"/>
     <use xlink:href="#DejaVuSans-63" x="595.744141"/>
     <use xlink:href="#DejaVuSans-65" x="650.724609"/>
     <use xlink:href="#DejaVuSans-69" x="712.248047"/>
     <use xlink:href="#DejaVuSans-76" x="740.03125"/>
     <use xlink:href="#DejaVuSans-65" x="799.210938"/>
     <use xlink:href="#DejaVuSans-72" x="860.734375"/>
     <use xlink:href="#DejaVuSans-39" x="901.847656"/>
    </g>
   </g>
  </g>
 </g>
 <defs>
  <clipPath id="p992ce83732">
   <rect x="180" y="69.12" width="1116" height="443.52"/>
  </clipPath>
 </defs>
</svg>
