<?xml version="1.0" encoding="utf-8" standalone="no"?>
<!DOCTYPE svg PUBLIC "-//W3C//DTD SVG 1.1//EN"
  "http://www.w3.org/Graphics/SVG/1.1/DTD/svg11.dtd">
<svg xmlns:xlink="http://www.w3.org/1999/xlink" width="1440pt" height="576pt" viewBox="0 0 1440 576" xmlns="http://www.w3.org/2000/svg" version="1.1">
 <metadata>
  <rdf:RDF xmlns:dc="http://purl.org/dc/elements/1.1/" xmlns:cc="http://creativecommons.org/ns#" xmlns:rdf="http://www.w3.org/1999/02/22-rdf-syntax-ns#">
   <cc:Work>
    <dc:type rdf:resource="http://purl.org/dc/dcmitype/StillImage"/>
    <dc:date>2024-05-22T04:50:07.998203</dc:date>
    <dc:format>image/svg+xml</dc:format>
    <dc:creator>
     <cc:Agent>
      <dc:title>Matplotlib v3.8.3, https://matplotlib.org/</dc:title>
     </cc:Agent>
    </dc:creator>
   </cc:Work>
  </rdf:RDF>
 </metadata>
 <defs>
  <style type="text/css">*{stroke-linejoin: round; stroke-linecap: butt}</style>
 </defs>
 <g id="figure_1">
  <g id="patch_1">
   <path d="M 0 576 
L 1440 576 
L 1440 0 
L 0 0 
z
" style="fill: #ffffff"/>
  </g>
  <g id="axes_1">
   <g id="patch_2">
    <path d="M 180 512.64 
L 1296 512.64 
L 1296 69.12 
L 180 69.12 
z
" style="fill: #ffffff"/>
   </g>
   <g id="matplotlib.axis_1">
    <g id="xtick_1">
     <g id="line2d_1">
      <defs>
       <path id="m5682e6bfd5" d="M 0 0 
L 0 3.5 
" style="stroke: #000000; stroke-width: 0.8"/>
      </defs>
      <g>
       <use xlink:href="#m5682e6bfd5" x="229.734567" y="512.64" style="stroke: #000000; stroke-width: 0.8"/>
      </g>
     </g>
     <g id="text_1">
      <!-- 0 -->
      <g transform="translate(226.553317 527.238438) scale(0.1 -0.1)">
       <defs>
        <path id="DejaVuSans-30" d="M 2034 4250 
Q 1547 4250 1301 3770 
Q 1056 3291 1056 2328 
Q 1056 1369 1301 889 
Q 1547 409 2034 409 
Q 2525 409 2770 889 
Q 3016 1369 3016 2328 
Q 3016 3291 2770 3770 
Q 2525 4250 2034 4250 
z
M 2034 4750 
Q 2819 4750 3233 4129 
Q 3647 3509 3647 2328 
Q 3647 1150 3233 529 
Q 2819 -91 2034 -91 
Q 1250 -91 836 529 
Q 422 1150 422 2328 
Q 422 3509 836 4129 
Q 1250 4750 2034 4750 
z
" transform="scale(0.015625)"/>
       </defs>
       <use xlink:href="#DejaVuSans-30"/>
      </g>
     </g>
    </g>
    <g id="xtick_2">
     <g id="line2d_2">
      <g>
       <use xlink:href="#m5682e6bfd5" x="433.04074" y="512.64" style="stroke: #000000; stroke-width: 0.8"/>
      </g>
     </g>
     <g id="text_2">
      <!-- 500 -->
      <g transform="translate(423.49699 527.238438) scale(0.1 -0.1)">
       <defs>
        <path id="DejaVuSans-35" d="M 691 4666 
L 3169 4666 
L 3169 4134 
L 1269 4134 
L 1269 2991 
Q 1406 3038 1543 3061 
Q 1681 3084 1819 3084 
Q 2600 3084 3056 2656 
Q 3513 2228 3513 1497 
Q 3513 744 3044 326 
Q 2575 -91 1722 -91 
Q 1428 -91 1123 -41 
Q 819 9 494 109 
L 494 744 
Q 775 591 1075 516 
Q 1375 441 1709 441 
Q 2250 441 2565 725 
Q 2881 1009 2881 1497 
Q 2881 1984 2565 2268 
Q 2250 2553 1709 2553 
Q 1456 2553 1204 2497 
Q 953 2441 691 2322 
L 691 4666 
z
" transform="scale(0.015625)"/>
       </defs>
       <use xlink:href="#DejaVuSans-35"/>
       <use xlink:href="#DejaVuSans-30" x="63.623047"/>
       <use xlink:href="#DejaVuSans-30" x="127.246094"/>
      </g>
     </g>
    </g>
    <g id="xtick_3">
     <g id="line2d_3">
      <g>
       <use xlink:href="#m5682e6bfd5" x="636.346913" y="512.64" style="stroke: #000000; stroke-width: 0.8"/>
      </g>
     </g>
     <g id="text_3">
      <!-- 1000 -->
      <g transform="translate(623.621913 527.238438) scale(0.1 -0.1)">
       <defs>
        <path id="DejaVuSans-31" d="M 794 531 
L 1825 531 
L 1825 4091 
L 703 3866 
L 703 4441 
L 1819 4666 
L 2450 4666 
L 2450 531 
L 3481 531 
L 3481 0 
L 794 0 
L 794 531 
z
" transform="scale(0.015625)"/>
       </defs>
       <use xlink:href="#DejaVuSans-31"/>
       <use xlink:href="#DejaVuSans-30" x="63.623047"/>
       <use xlink:href="#DejaVuSans-30" x="127.246094"/>
       <use xlink:href="#DejaVuSans-30" x="190.869141"/>
      </g>
     </g>
    </g>
    <g id="xtick_4">
     <g id="line2d_4">
      <g>
       <use xlink:href="#m5682e6bfd5" x="839.653087" y="512.64" style="stroke: #000000; stroke-width: 0.8"/>
      </g>
     </g>
     <g id="text_4">
      <!-- 1500 -->
      <g transform="translate(826.928087 527.238438) scale(0.1 -0.1)">
       <use xlink:href="#DejaVuSans-31"/>
       <use xlink:href="#DejaVuSans-35" x="63.623047"/>
       <use xlink:href="#DejaVuSans-30" x="127.246094"/>
       <use xlink:href="#DejaVuSans-30" x="190.869141"/>
      </g>
     </g>
    </g>
    <g id="xtick_5">
     <g id="line2d_5">
      <g>
       <use xlink:href="#m5682e6bfd5" x="1042.95926" y="512.64" style="stroke: #000000; stroke-width: 0.8"/>
      </g>
     </g>
     <g id="text_5">
      <!-- 2000 -->
      <g transform="translate(1030.23426 527.238438) scale(0.1 -0.1)">
       <defs>
        <path id="DejaVuSans-32" d="M 1228 531 
L 3431 531 
L 3431 0 
L 469 0 
L 469 531 
Q 828 903 1448 1529 
Q 2069 2156 2228 2338 
Q 2531 2678 2651 2914 
Q 2772 3150 2772 3378 
Q 2772 3750 2511 3984 
Q 2250 4219 1831 4219 
Q 1534 4219 1204 4116 
Q 875 4013 500 3803 
L 500 4441 
Q 881 4594 1212 4672 
Q 1544 4750 1819 4750 
Q 2544 4750 2975 4387 
Q 3406 4025 3406 3419 
Q 3406 3131 3298 2873 
Q 3191 2616 2906 2266 
Q 2828 2175 2409 1742 
Q 1991 1309 1228 531 
z
" transform="scale(0.015625)"/>
       </defs>
       <use xlink:href="#DejaVuSans-32"/>
       <use xlink:href="#DejaVuSans-30" x="63.623047"/>
       <use xlink:href="#DejaVuSans-30" x="127.246094"/>
       <use xlink:href="#DejaVuSans-30" x="190.869141"/>
      </g>
     </g>
    </g>
    <g id="xtick_6">
     <g id="line2d_6">
      <g>
       <use xlink:href="#m5682e6bfd5" x="1246.265433" y="512.64" style="stroke: #000000; stroke-width: 0.8"/>
      </g>
     </g>
     <g id="text_6">
      <!-- 2500 -->
      <g transform="translate(1233.540433 527.238438) scale(0.1 -0.1)">
       <use xlink:href="#DejaVuSans-32"/>
       <use xlink:href="#DejaVuSans-35" x="63.623047"/>
       <use xlink:href="#DejaVuSans-30" x="127.246094"/>
       <use xlink:href="#DejaVuSans-30" x="190.869141"/>
      </g>
     </g>
    </g>
   </g>
   <g id="matplotlib.axis_2">
    <g id="ytick_1">
     <g id="line2d_7">
      <defs>
       <path id="mb81894e576" d="M 0 0 
L -3.5 0 
" style="stroke: #000000; stroke-width: 0.8"/>
      </defs>
      <g>
       <use xlink:href="#mb81894e576" x="180" y="473.285489" style="stroke: #000000; stroke-width: 0.8"/>
      </g>
     </g>
     <g id="text_7">
      <!-- −4 -->
      <g transform="translate(158.257812 477.084708) scale(0.1 -0.1)">
       <defs>
        <path id="DejaVuSans-2212" d="M 678 2272 
L 4684 2272 
L 4684 1741 
L 678 1741 
L 678 2272 
z
" transform="scale(0.015625)"/>
        <path id="DejaVuSans-34" d="M 2419 4116 
L 825 1625 
L 2419 1625 
L 2419 4116 
z
M 2253 4666 
L 3047 4666 
L 3047 1625 
L 3713 1625 
L 3713 1100 
L 3047 1100 
L 3047 0 
L 2419 0 
L 2419 1100 
L 313 1100 
L 313 1709 
L 2253 4666 
z
" transform="scale(0.015625)"/>
       </defs>
       <use xlink:href="#DejaVuSans-2212"/>
       <use xlink:href="#DejaVuSans-34" x="83.789062"/>
      </g>
     </g>
    </g>
    <g id="ytick_2">
     <g id="line2d_8">
      <g>
       <use xlink:href="#mb81894e576" x="180" y="421.406113" style="stroke: #000000; stroke-width: 0.8"/>
      </g>
     </g>
     <g id="text_8">
      <!-- −3 -->
      <g transform="translate(158.257812 425.205332) scale(0.1 -0.1)">
       <defs>
        <path id="DejaVuSans-33" d="M 2597 2516 
Q 3050 2419 3304 2112 
Q 3559 1806 3559 1356 
Q 3559 666 3084 287 
Q 2609 -91 1734 -91 
Q 1441 -91 1130 -33 
Q 819 25 488 141 
L 488 750 
Q 750 597 1062 519 
Q 1375 441 1716 441 
Q 2309 441 2620 675 
Q 2931 909 2931 1356 
Q 2931 1769 2642 2001 
Q 2353 2234 1838 2234 
L 1294 2234 
L 1294 2753 
L 1863 2753 
Q 2328 2753 2575 2939 
Q 2822 3125 2822 3475 
Q 2822 3834 2567 4026 
Q 2313 4219 1838 4219 
Q 1578 4219 1281 4162 
Q 984 4106 628 3988 
L 628 4550 
Q 988 4650 1302 4700 
Q 1616 4750 1894 4750 
Q 2613 4750 3031 4423 
Q 3450 4097 3450 3541 
Q 3450 3153 3228 2886 
Q 3006 2619 2597 2516 
z
" transform="scale(0.015625)"/>
       </defs>
       <use xlink:href="#DejaVuSans-2212"/>
       <use xlink:href="#DejaVuSans-33" x="83.789062"/>
      </g>
     </g>
    </g>
    <g id="ytick_3">
     <g id="line2d_9">
      <g>
       <use xlink:href="#mb81894e576" x="180" y="369.526737" style="stroke: #000000; stroke-width: 0.8"/>
      </g>
     </g>
     <g id="text_9">
      <!-- −2 -->
      <g transform="translate(158.257812 373.325956) scale(0.1 -0.1)">
       <use xlink:href="#DejaVuSans-2212"/>
       <use xlink:href="#DejaVuSans-32" x="83.789062"/>
      </g>
     </g>
    </g>
    <g id="ytick_4">
     <g id="line2d_10">
      <g>
       <use xlink:href="#mb81894e576" x="180" y="317.647361" style="stroke: #000000; stroke-width: 0.8"/>
      </g>
     </g>
     <g id="text_10">
      <!-- −1 -->
      <g transform="translate(158.257812 321.44658) scale(0.1 -0.1)">
       <use xlink:href="#DejaVuSans-2212"/>
       <use xlink:href="#DejaVuSans-31" x="83.789062"/>
      </g>
     </g>
    </g>
    <g id="ytick_5">
     <g id="line2d_11">
      <g>
       <use xlink:href="#mb81894e576" x="180" y="265.767985" style="stroke: #000000; stroke-width: 0.8"/>
      </g>
     </g>
     <g id="text_11">
      <!-- 0 -->
      <g transform="translate(166.6375 269.567204) scale(0.1 -0.1)">
       <use xlink:href="#DejaVuSans-30"/>
      </g>
     </g>
    </g>
    <g id="ytick_6">
     <g id="line2d_12">
      <g>
       <use xlink:href="#mb81894e576" x="180" y="213.888609" style="stroke: #000000; stroke-width: 0.8"/>
      </g>
     </g>
     <g id="text_12">
      <!-- 1 -->
      <g transform="translate(166.6375 217.687828) scale(0.1 -0.1)">
       <use xlink:href="#DejaVuSans-31"/>
      </g>
     </g>
    </g>
    <g id="ytick_7">
     <g id="line2d_13">
      <g>
       <use xlink:href="#mb81894e576" x="180" y="162.009233" style="stroke: #000000; stroke-width: 0.8"/>
      </g>
     </g>
     <g id="text_13">
      <!-- 2 -->
      <g transform="translate(166.6375 165.808452) scale(0.1 -0.1)">
       <use xlink:href="#DejaVuSans-32"/>
      </g>
     </g>
    </g>
    <g id="ytick_8">
     <g id="line2d_14">
      <g>
       <use xlink:href="#mb81894e576" x="180" y="110.129858" style="stroke: #000000; stroke-width: 0.8"/>
      </g>
     </g>
     <g id="text_14">
      <!-- 3 -->
      <g transform="translate(166.6375 113.929076) scale(0.1 -0.1)">
       <use xlink:href="#DejaVuSans-33"/>
      </g>
     </g>
    </g>
   </g>
   <g id="line2d_15">
    <path d="M 230.727273 365.996515 
L 231.719979 364.180241 
L 232.712685 361.833373 
L 234.698096 353.390202 
L 235.690802 349.235614 
L 236.683508 343.878927 
L 242.639744 316.028518 
L 243.63245 313.026375 
L 244.625156 307.991129 
L 245.617862 297.245415 
L 246.610568 290.86392 
L 247.603273 311.891921 
L 248.595979 270.585097 
L 249.588685 214.769806 
L 250.581391 184.894112 
L 253.559509 136.263862 
L 254.552215 125.122334 
L 255.544921 128.162085 
L 256.537627 157.485443 
L 257.530333 203.101107 
L 258.523039 147.173019 
L 259.515745 144.754251 
L 260.50845 196.941947 
L 262.493862 138.115119 
L 263.486568 148.263784 
L 264.479274 179.094767 
L 265.47198 163.006132 
L 266.464686 166.827353 
L 267.457392 165.840788 
L 268.450098 149.209021 
L 269.442804 165.649139 
L 270.43551 185.967264 
L 271.428216 143.427698 
L 272.420922 149.302234 
L 273.413627 244.361056 
L 274.406333 140.94289 
L 275.399039 119.903842 
L 276.391745 119.772544 
L 277.384451 113.750856 
L 278.377157 103.639245 
L 279.369863 100.166545 
L 280.362569 95.8872 
L 281.355275 89.28 
L 282.347981 92.282454 
L 283.340687 117.861455 
L 284.333393 159.271432 
L 285.326099 108.228978 
L 286.318804 92.188934 
L 287.31151 96.786806 
L 289.296922 125.595995 
L 290.289628 146.752792 
L 291.282334 161.666924 
L 292.27504 136.327685 
L 293.267746 134.04319 
L 294.260452 161.748478 
L 295.253158 261.526714 
L 296.245864 187.504684 
L 297.23857 187.290794 
L 298.231276 229.547437 
L 299.223981 254.019053 
L 300.216687 248.09522 
L 301.209393 328.494165 
L 302.202099 255.046568 
L 303.194805 240.598029 
L 304.187511 260.058294 
L 305.180217 287.094662 
L 306.172923 267.094785 
L 307.165629 272.272626 
L 308.158335 324.593797 
L 309.151041 333.047783 
L 310.143747 339.830235 
L 311.136453 402.178568 
L 312.129159 351.854906 
L 313.121864 407.812158 
L 314.11457 351.066529 
L 315.107276 364.197041 
L 316.099982 390.067057 
L 317.092688 352.068351 
L 318.085394 354.546347 
L 319.0781 380.253807 
L 320.070806 347.631838 
L 321.063512 363.988256 
L 322.056218 363.887548 
L 323.048924 356.170992 
L 324.04163 354.331216 
L 325.034336 366.547048 
L 326.027041 351.570943 
L 327.019747 359.587004 
L 328.012453 364.313438 
L 329.005159 379.29332 
L 329.997865 353.407141 
L 330.990571 380.587274 
L 331.983277 350.612619 
L 332.975983 386.611312 
L 334.961395 351.488275 
L 335.954101 366.324304 
L 336.946807 386.068841 
L 337.939513 355.67945 
L 338.932218 361.028272 
L 339.924924 369.091537 
L 340.91763 353.888261 
L 341.910336 372.831267 
L 342.903042 375.394053 
L 343.895748 367.153958 
L 344.888454 371.895786 
L 345.88116 371.328679 
L 346.873866 364.455086 
L 347.866572 361.937273 
L 348.859278 363.997583 
L 349.851984 380.115612 
L 350.84469 366.570971 
L 351.837395 366.228994 
L 352.830101 349.15074 
L 353.822807 390.697479 
L 354.815513 376.213215 
L 355.808219 375.635366 
L 356.800925 379.357579 
L 357.793631 371.810359 
L 358.786337 373.00824 
L 359.779043 362.400314 
L 360.771749 385.506905 
L 361.764455 372.599323 
L 362.757161 367.610222 
L 363.749867 369.373513 
L 364.742572 374.373005 
L 365.735278 375.02399 
L 366.727984 394.234744 
L 367.72069 393.363384 
L 368.713396 389.854288 
L 369.706102 371.889861 
L 370.698808 377.171383 
L 371.691514 393.92956 
L 372.68422 373.597535 
L 373.676926 383.832558 
L 374.669632 382.14309 
L 375.662338 367.668497 
L 376.655044 408.111451 
L 377.64775 382.445476 
L 378.640455 375.53391 
L 379.633161 383.79652 
L 380.625867 397.413186 
L 381.618573 389.355116 
L 382.611279 367.284063 
L 383.603985 373.218121 
L 384.596691 391.478781 
L 385.589397 373.851092 
L 386.582103 377.799203 
L 387.574809 380.405633 
L 388.567515 388.782325 
L 389.560221 378.564754 
L 390.552927 377.82302 
L 391.545632 377.824591 
L 392.538338 398.467703 
L 393.531044 402.999445 
L 394.52375 377.937536 
L 395.516456 379.976241 
L 396.509162 375.471932 
L 397.501868 377.25606 
L 398.494574 407.855553 
L 399.48728 386.071612 
L 400.479986 414.175025 
L 401.472692 386.068013 
L 402.465398 366.288248 
L 403.458104 399.734416 
L 404.450809 369.17703 
L 405.443515 369.559932 
L 406.436221 378.227032 
L 407.428927 382.071496 
L 408.421633 388.363439 
L 409.414339 391.023746 
L 410.407045 399.534658 
L 411.399751 377.265937 
L 412.392457 395.221755 
L 413.385163 400.813703 
L 414.377869 421.361303 
L 415.370575 372.746996 
L 416.363281 374.309253 
L 417.355986 389.745687 
L 418.348692 378.22885 
L 419.341398 404.300848 
L 420.334104 381.854687 
L 421.32681 393.773562 
L 422.319516 385.637215 
L 423.312222 400.382807 
L 424.304928 378.13861 
L 425.297634 376.209748 
L 426.29034 376.762414 
L 427.283046 396.406547 
L 428.275752 375.928092 
L 429.268458 368.007862 
L 430.261163 407.192059 
L 431.253869 392.354865 
L 432.246575 400.675091 
L 433.239281 392.004528 
L 434.231987 409.034935 
L 435.224693 375.47295 
L 436.217399 388.329905 
L 437.210105 455.317958 
L 438.202811 402.847774 
L 439.195517 392.93477 
L 440.188223 390.904406 
L 441.180929 399.962892 
L 442.173635 384.178346 
L 443.166341 384.683911 
L 444.159046 389.576194 
L 445.151752 400.42305 
L 446.144458 397.513724 
L 447.137164 393.728477 
L 448.12987 385.415712 
L 449.122576 396.473798 
L 450.115282 384.941243 
L 451.107988 436.667388 
L 452.100694 398.214892 
L 453.0934 419.110968 
L 454.086106 378.167048 
L 455.078812 405.521256 
L 456.071518 380.220679 
L 457.064223 407.776614 
L 458.056929 379.166995 
L 459.049635 375.68332 
L 460.042341 408.24797 
L 461.035047 374.910731 
L 462.027753 379.95616 
L 463.020459 414.593082 
L 464.013165 392.635763 
L 465.998577 398.084454 
L 466.991283 401.749868 
L 467.983989 411.229431 
L 468.976695 382.65922 
L 469.9694 382.951945 
L 470.962106 381.452595 
L 471.954812 385.833323 
L 472.947518 438.230828 
L 474.93293 400.55834 
L 475.925636 410.300145 
L 476.918342 403.981327 
L 477.911048 399.851208 
L 478.903754 418.431552 
L 479.89646 408.178717 
L 480.889166 388.039109 
L 481.881872 376.160898 
L 482.874577 472.096854 
L 483.867283 420.16536 
L 484.859989 426.384812 
L 485.852695 400.480512 
L 486.845401 407.346446 
L 487.838107 392.198425 
L 488.830813 430.449372 
L 489.823519 447.346665 
L 490.816225 382.627664 
L 491.808931 403.611773 
L 492.801637 408.436755 
L 493.794343 423.667997 
L 494.787049 401.337502 
L 495.779754 386.784168 
L 496.77246 458.618703 
L 497.765166 405.401543 
L 498.757872 384.028257 
L 499.750578 401.988311 
L 500.743284 403.432235 
L 501.73599 387.997097 
L 502.728696 390.554228 
L 503.721402 454.14542 
L 504.714108 406.727393 
L 505.706814 469.206962 
L 506.69952 421.968372 
L 508.684932 407.513814 
L 509.677637 385.352204 
L 510.670343 469.529059 
L 511.663049 396.676451 
L 512.655755 408.041614 
L 513.648461 406.32504 
L 514.641167 383.630002 
L 515.633873 405.987174 
L 516.626579 387.944074 
L 517.619285 399.198688 
L 518.611991 416.202017 
L 519.604697 399.53394 
L 520.597403 424.626698 
L 521.590109 412.127423 
L 522.582814 418.553686 
L 523.57552 404.384984 
L 524.568226 454.167182 
L 525.560932 386.957709 
L 526.553638 421.148451 
L 527.546344 483.863033 
L 528.53905 418.066291 
L 529.531756 433.260748 
L 530.524462 406.467413 
L 531.517168 429.982178 
L 532.509874 409.977833 
L 533.50258 431.55582 
L 534.495286 435.341605 
L 535.487991 377.138857 
L 536.480697 405.548691 
L 537.473403 447.203454 
L 538.466109 427.665842 
L 539.458815 440.206295 
L 540.451521 437.971754 
L 541.444227 397.798638 
L 542.436933 413.659458 
L 543.429639 426.707632 
L 544.422345 419.594706 
L 545.415051 453.895299 
L 546.407757 403.029161 
L 547.400463 395.395704 
L 548.393168 404.59306 
L 549.385874 410.133562 
L 550.37858 426.485425 
L 551.371286 392.734788 
L 552.363992 440.542277 
L 553.356698 399.148798 
L 554.349404 394.332703 
L 555.34211 419.579335 
L 556.334816 412.42269 
L 557.327522 429.155294 
L 558.320228 430.23954 
L 559.312934 396.742111 
L 560.30564 414.125424 
L 561.298345 424.41361 
L 562.291051 443.026425 
L 563.283757 405.995981 
L 564.276463 424.403465 
L 565.269169 429.924761 
L 566.261875 447.96744 
L 567.254581 417.023368 
L 568.247287 435.81242 
L 569.239993 417.450388 
L 570.232699 492.48 
L 571.225405 399.555082 
L 572.218111 402.86318 
L 573.210817 476.429139 
L 574.203523 427.771689 
L 575.196228 406.483776 
L 576.188934 425.332738 
L 577.18164 403.074621 
L 578.174346 407.690039 
L 579.167052 390.867536 
L 580.159758 440.167563 
L 581.152464 404.621001 
L 582.14517 406.505466 
L 583.137876 404.601812 
L 584.130582 409.632226 
L 585.123288 447.749195 
L 586.115994 397.491503 
L 587.1087 394.080804 
L 588.101405 410.587524 
L 589.094111 396.829736 
L 590.086817 406.1945 
L 591.079523 431.879981 
L 592.072229 463.330825 
L 593.064935 400.995309 
L 594.057641 407.024511 
L 595.050347 432.72364 
L 596.043053 429.513316 
L 597.035759 405.483011 
L 598.028465 402.979124 
L 599.021171 439.267977 
L 600.013877 426.60259 
L 601.006582 431.238153 
L 601.999288 439.328761 
L 602.991994 430.484426 
L 603.9847 420.098768 
L 604.977406 426.708491 
L 605.970112 427.193761 
L 606.962818 434.191628 
L 607.955524 468.967937 
L 608.94823 418.530933 
L 609.940936 424.240996 
L 610.933642 422.071137 
L 611.926348 415.774848 
L 612.919054 424.221845 
L 613.911759 431.656617 
L 614.904465 411.223696 
L 615.897171 410.43231 
L 616.889877 410.129201 
L 617.882583 420.253707 
L 618.875289 427.7923 
L 619.867995 423.233626 
L 620.860701 430.014213 
L 621.853407 419.333913 
L 622.846113 413.649156 
L 623.838819 415.856216 
L 624.831525 416.26324 
L 625.824231 415.886964 
L 626.816936 423.31907 
L 627.809642 419.182744 
L 628.802348 435.653504 
L 629.795054 416.599041 
L 630.78776 412.460044 
L 631.780466 416.2764 
L 632.773172 427.534084 
L 633.765878 432.652216 
L 634.758584 417.957513 
L 635.75129 425.291337 
L 636.743996 436.939755 
L 637.736702 452.872794 
L 638.729408 419.95518 
L 639.722114 426.127478 
L 640.714819 440.266903 
L 641.707525 425.756095 
L 642.700231 429.394814 
L 643.692937 424.349349 
L 644.685643 418.540226 
L 645.678349 420.738629 
L 646.671055 432.409559 
L 647.663761 422.923596 
L 648.656467 428.112832 
L 649.649173 424.544531 
L 650.641879 430.075817 
L 651.634585 426.078962 
L 652.627291 425.0624 
L 653.619996 440.353789 
L 654.612702 431.438672 
L 655.605408 430.591312 
L 656.598114 428.202419 
L 657.59082 437.076397 
L 658.583526 422.619906 
L 660.568938 427.297269 
L 661.561644 438.670475 
L 662.55435 426.25979 
L 663.547056 428.446774 
L 664.539762 421.270361 
L 665.532468 432.322621 
L 666.525173 431.993301 
L 667.517879 430.865374 
L 668.510585 430.133827 
L 669.503291 436.607819 
L 670.495997 429.771483 
L 671.488703 426.508498 
L 674.466821 432.559788 
L 675.459527 430.746591 
L 676.452233 431.628101 
L 677.444939 429.803295 
L 678.437645 434.068432 
L 679.43035 433.352772 
L 680.423056 438.69471 
L 681.415762 426.948653 
L 682.408468 438.504798 
L 683.401174 433.96955 
L 684.39388 437.261295 
L 685.386586 435.54814 
L 687.371998 434.660928 
L 688.364704 433.118437 
L 689.35741 435.681488 
L 690.350116 435.94409 
L 691.342822 436.852456 
L 692.335527 434.518395 
L 693.328233 438.395227 
L 694.320939 431.376062 
L 695.313645 437.241349 
L 696.306351 432.519368 
L 697.299057 436.137225 
L 698.291763 436.998974 
L 699.284469 436.468208 
L 700.277175 434.596264 
L 701.269881 435.634641 
L 702.262587 432.600264 
L 703.255293 435.581165 
L 704.247999 431.680088 
L 705.240705 434.437439 
L 706.23341 432.962546 
L 707.226116 432.62239 
L 708.218822 434.683038 
L 709.211528 435.71251 
L 710.204234 435.247236 
L 711.19694 435.432375 
L 712.189646 434.68248 
L 713.182352 437.795957 
L 714.175058 435.425155 
L 715.167764 436.103982 
L 716.16047 435.025137 
L 717.153176 435.32502 
L 718.145882 436.745522 
L 719.138587 436.527102 
L 721.123999 432.416311 
L 722.116705 435.495869 
L 723.109411 436.73267 
L 724.102117 433.65417 
L 725.094823 434.311083 
L 726.087529 437.894357 
L 727.080235 437.016179 
L 728.072941 438.583984 
L 729.065647 436.514587 
L 730.058353 437.251962 
L 731.051059 436.505033 
L 732.043764 436.418218 
L 733.03647 439.978985 
L 734.029176 436.810943 
L 735.021882 437.010145 
L 736.014588 439.058473 
L 737.007294 439.478409 
L 738 438.125508 
L 739.985412 436.988166 
L 740.978118 437.781123 
L 741.970824 436.62547 
L 742.96353 438.200059 
L 743.956236 437.358304 
L 744.948941 437.181231 
L 745.941647 439.663205 
L 746.934353 439.01505 
L 747.927059 437.087053 
L 749.912471 439.752911 
L 750.905177 439.151884 
L 751.897883 438.091585 
L 752.890589 437.804431 
L 754.876001 439.566939 
L 755.868707 440.387918 
L 756.861413 441.717287 
L 757.854118 438.456152 
L 758.846824 438.497752 
L 759.83953 438.822161 
L 760.832236 437.683414 
L 761.824942 437.932546 
L 763.810354 441.508002 
L 764.80306 439.737236 
L 765.795766 440.876158 
L 766.788472 439.172047 
L 767.781178 441.325595 
L 768.773884 439.88005 
L 769.76659 439.808268 
L 770.759295 438.274242 
L 772.744707 441.423836 
L 773.737413 442.061955 
L 774.730119 440.683292 
L 775.722825 438.920118 
L 776.715531 441.693902 
L 777.708237 441.907532 
L 778.700943 439.662489 
L 779.693649 440.854078 
L 780.686355 441.213292 
L 781.679061 438.812523 
L 782.671767 440.302302 
L 783.664473 442.116238 
L 784.657178 441.359765 
L 785.649884 438.982288 
L 786.64259 441.741494 
L 787.635296 439.550463 
L 788.628002 441.79323 
L 789.620708 439.938382 
L 790.613414 443.329024 
L 791.60612 443.296728 
L 792.598826 442.599914 
L 793.591532 440.593745 
L 794.584238 440.682397 
L 795.576944 441.476664 
L 796.56965 440.559483 
L 797.562355 442.652201 
L 798.555061 440.70724 
L 799.547767 443.20697 
L 800.540473 440.042535 
L 801.533179 441.540895 
L 802.525885 443.754099 
L 803.518591 443.854487 
L 804.511297 441.267418 
L 805.504003 442.3619 
L 806.496709 442.087116 
L 807.489415 443.823348 
L 808.482121 440.803128 
L 809.474827 443.43763 
L 810.467532 441.461641 
L 811.460238 442.124273 
L 812.452944 442.266467 
L 813.44565 442.56783 
L 814.438356 441.967562 
L 815.431062 443.462567 
L 816.423768 443.341478 
L 817.416474 444.317796 
L 818.40918 443.230257 
L 819.401886 441.652244 
L 820.394592 444.88009 
L 821.387298 444.193866 
L 822.380004 442.795931 
L 823.372709 443.465394 
L 824.365415 442.613383 
L 825.358121 445.126091 
L 827.343533 443.156845 
L 828.336239 443.085099 
L 829.328945 445.414037 
L 830.321651 443.386447 
L 831.314357 444.353963 
L 832.307063 447.095219 
L 833.299769 443.78908 
L 834.292475 445.16908 
L 835.285181 443.198471 
L 836.277886 444.596599 
L 837.270592 445.047708 
L 838.263298 444.207378 
L 839.256004 445.57176 
L 840.24871 444.149222 
L 841.241416 443.97462 
L 842.234122 443.271636 
L 843.226828 445.120487 
L 844.219534 443.548714 
L 845.21224 447.673656 
L 846.204946 445.301419 
L 847.197652 445.265817 
L 848.190358 444.313933 
L 849.183064 443.632161 
L 850.175769 446.275192 
L 851.168475 446.86941 
L 852.161181 444.088029 
L 853.153887 447.692884 
L 854.146593 444.599798 
L 856.132005 443.792554 
L 857.124711 444.268153 
L 858.117417 449.19711 
L 859.110123 447.515753 
L 860.102829 446.198036 
L 861.095535 447.066743 
L 862.088241 444.873665 
L 863.080946 446.042504 
L 864.073652 447.969663 
L 865.066358 447.735213 
L 866.059064 447.135644 
L 867.05177 445.681059 
L 868.044476 448.240126 
L 869.037182 447.447901 
L 870.029888 444.97613 
L 871.022594 447.541213 
L 872.0153 448.263803 
L 873.008006 442.948457 
L 874.000712 448.019032 
L 874.993418 445.554897 
L 875.986123 447.523464 
L 876.978829 446.677508 
L 877.971535 449.19416 
L 878.964241 444.527644 
L 879.956947 447.813129 
L 880.949653 446.700653 
L 881.942359 447.193189 
L 882.935065 448.538924 
L 883.927771 446.829228 
L 884.920477 447.705833 
L 885.913183 445.762918 
L 887.898595 448.375292 
L 888.8913 445.23837 
L 889.884006 445.61842 
L 890.876712 446.247619 
L 891.869418 448.250936 
L 892.862124 449.504257 
L 893.85483 448.207151 
L 894.847536 447.201102 
L 895.840242 448.881086 
L 896.832948 449.984605 
L 897.825654 447.882689 
L 898.81836 447.916559 
L 899.811066 446.673476 
L 900.803772 449.456994 
L 901.796477 449.052966 
L 902.789183 447.66052 
L 903.781889 447.824401 
L 904.774595 448.766468 
L 905.767301 449.954476 
L 906.760007 448.897981 
L 907.752713 450.007638 
L 910.730831 447.97124 
L 911.723537 448.600504 
L 912.716243 446.774777 
L 913.708949 448.506378 
L 914.701655 448.403224 
L 915.69436 447.674961 
L 917.679772 447.817708 
L 919.665184 446.483746 
L 920.65789 448.907396 
L 921.650596 448.720597 
L 922.643302 448.705168 
L 923.636008 448.940065 
L 924.628714 449.504673 
L 925.62142 448.292402 
L 927.606832 446.617734 
L 928.599537 448.303167 
L 929.592243 451.189176 
L 930.584949 449.163318 
L 931.577655 449.598485 
L 932.570361 449.020772 
L 933.563067 451.652571 
L 934.555773 451.266603 
L 935.548479 447.803266 
L 936.541185 447.274724 
L 937.533891 448.715266 
L 938.526597 450.663294 
L 939.519303 450.691015 
L 940.512009 449.910127 
L 941.504714 452.423292 
L 942.49742 450.049667 
L 943.490126 450.335674 
L 944.482832 449.755085 
L 945.475538 448.243659 
L 946.468244 449.358803 
L 947.46095 451.842806 
L 948.453656 451.378261 
L 949.446362 447.380568 
L 950.439068 449.581502 
L 951.431774 450.304447 
L 952.42448 450.584151 
L 953.417186 448.900037 
L 954.409891 452.641011 
L 955.402597 448.382694 
L 956.395303 450.581204 
L 957.388009 449.831156 
L 958.380715 449.273096 
L 959.373421 449.97337 
L 960.366127 449.117564 
L 961.358833 451.341179 
L 962.351539 449.822336 
L 963.344245 451.350147 
L 964.336951 449.965877 
L 966.322363 450.567594 
L 967.315068 449.063131 
L 968.307774 451.902043 
L 969.30048 452.944879 
L 970.293186 448.584255 
L 971.285892 452.671445 
L 972.278598 452.955244 
L 973.271304 451.953941 
L 974.26401 449.59019 
L 975.256716 451.483291 
L 976.249422 452.915834 
L 977.242128 450.225458 
L 978.234834 451.852741 
L 979.22754 450.98253 
L 980.220246 452.204352 
L 981.212951 450.294829 
L 982.205657 450.32569 
L 983.198363 450.809643 
L 984.191069 453.150112 
L 985.183775 453.248915 
L 986.176481 450.633009 
L 987.169187 450.877306 
L 988.161893 451.853599 
L 989.154599 449.888989 
L 990.147305 450.703354 
L 991.140011 452.28244 
L 992.132717 453.06163 
L 993.125423 453.478488 
L 994.118128 451.117998 
L 995.110834 452.630817 
L 996.10354 449.839743 
L 997.096246 450.218478 
L 998.088952 452.605032 
L 999.081658 452.822807 
L 1000.074364 449.764031 
L 1001.06707 450.189915 
L 1002.059776 454.485096 
L 1003.052482 451.638952 
L 1004.045188 453.667419 
L 1005.037894 450.867162 
L 1006.0306 452.550486 
L 1007.023305 449.598131 
L 1008.016011 452.439369 
L 1009.008717 448.538753 
L 1010.001423 454.205163 
L 1010.994129 455.086087 
L 1011.986835 453.740973 
L 1012.979541 449.447322 
L 1013.972247 454.231394 
L 1014.964953 450.595076 
L 1015.957659 453.3967 
L 1016.950365 453.713307 
L 1017.943071 451.267524 
L 1018.935777 452.40724 
L 1019.928482 452.718259 
L 1020.921188 453.671037 
L 1021.913894 454.442375 
L 1022.9066 454.138848 
L 1023.899306 452.444156 
L 1024.892012 452.398354 
L 1025.884718 451.598392 
L 1026.877424 453.516189 
L 1027.87013 452.419689 
L 1028.862836 452.896299 
L 1029.855542 454.716623 
L 1030.848248 453.137295 
L 1031.840954 451.069777 
L 1032.833659 453.758642 
L 1033.826365 453.578148 
L 1034.819071 454.091116 
L 1035.811777 454.909364 
L 1036.804483 452.869711 
L 1037.797189 450.399464 
L 1038.789895 453.829118 
L 1039.782601 451.86741 
L 1040.775307 452.673204 
L 1041.768013 451.878836 
L 1042.760719 452.240353 
L 1043.753425 453.701136 
L 1044.746131 453.833541 
L 1045.738837 452.07688 
L 1046.731542 452.401083 
L 1048.716954 451.762222 
L 1049.70966 456.851893 
L 1051.695072 453.020382 
L 1052.687778 454.797339 
L 1053.680484 451.657207 
L 1054.67319 452.11474 
L 1055.665896 453.201536 
L 1056.658602 453.712009 
L 1057.651308 452.55303 
L 1058.644014 454.270504 
L 1059.636719 456.980387 
L 1060.629425 454.489804 
L 1061.622131 454.024307 
L 1062.614837 453.146278 
L 1063.607543 453.985595 
L 1064.600249 453.066856 
L 1065.592955 454.607206 
L 1066.585661 452.752506 
L 1067.578367 452.109334 
L 1068.571073 452.452168 
L 1069.563779 454.499533 
L 1070.556485 452.970689 
L 1071.549191 453.27951 
L 1072.541896 452.354384 
L 1073.534602 453.627449 
L 1074.527308 450.242938 
L 1075.520014 453.143964 
L 1076.51272 454.013229 
L 1077.505426 454.593871 
L 1078.498132 452.388744 
L 1079.490838 455.387343 
L 1080.483544 453.142743 
L 1081.47625 453.727257 
L 1082.468956 452.679388 
L 1083.461662 452.927388 
L 1085.447073 451.562965 
L 1086.439779 458.356654 
L 1087.432485 452.417586 
L 1088.425191 453.583652 
L 1089.417897 456.722508 
L 1090.410603 454.133404 
L 1091.403309 453.606362 
L 1092.396015 455.487121 
L 1093.388721 453.092998 
L 1094.381427 454.975168 
L 1095.374133 456.581064 
L 1096.366839 454.692697 
L 1097.359545 454.847244 
L 1098.35225 454.682081 
L 1099.344956 455.667701 
L 1100.337662 455.185175 
L 1101.330368 453.87508 
L 1102.323074 453.74991 
L 1103.31578 453.365842 
L 1104.308486 454.169357 
L 1105.301192 452.612115 
L 1106.293898 454.131212 
L 1107.286604 453.193858 
L 1108.27931 453.079455 
L 1109.272016 456.537394 
L 1110.264722 453.666048 
L 1111.257428 455.706156 
L 1112.250133 453.589086 
L 1113.242839 454.229711 
L 1114.235545 456.288145 
L 1115.228251 455.733838 
L 1117.213663 454.342979 
L 1118.206369 456.417083 
L 1119.199075 454.527118 
L 1120.191781 452.366858 
L 1121.184487 453.747491 
L 1122.177193 453.99161 
L 1123.169899 455.047121 
L 1124.162605 457.082534 
L 1125.15531 454.443755 
L 1126.148016 453.545272 
L 1127.140722 456.755895 
L 1128.133428 454.084855 
L 1129.126134 453.166127 
L 1130.11884 454.585072 
L 1131.111546 456.788657 
L 1132.104252 454.371136 
L 1133.096958 455.634036 
L 1134.089664 454.685969 
L 1135.08237 455.038127 
L 1136.075076 452.616841 
L 1137.067782 456.25674 
L 1138.060487 456.422283 
L 1139.053193 457.973179 
L 1140.045899 455.243101 
L 1141.038605 455.371718 
L 1142.031311 453.615486 
L 1143.024017 455.674042 
L 1144.016723 455.459541 
L 1145.009429 454.914508 
L 1146.994841 455.627532 
L 1147.987547 456.954677 
L 1148.980253 453.829647 
L 1149.972959 457.489675 
L 1150.965664 456.145385 
L 1151.95837 453.330566 
L 1152.951076 456.578206 
L 1153.943782 455.433447 
L 1154.936488 453.648068 
L 1155.929194 455.930564 
L 1156.9219 453.828103 
L 1157.914606 459.332212 
L 1158.907312 455.712738 
L 1159.900018 455.695853 
L 1160.892724 456.70794 
L 1161.88543 456.343845 
L 1162.878136 455.192546 
L 1163.870841 454.819887 
L 1164.863547 454.161279 
L 1165.856253 455.978575 
L 1166.848959 457.447812 
L 1167.841665 454.951262 
L 1168.834371 457.056259 
L 1169.827077 454.74462 
L 1170.819783 453.762927 
L 1171.812489 455.356677 
L 1172.805195 456.543088 
L 1173.797901 456.784373 
L 1174.790607 454.768435 
L 1176.776019 454.93521 
L 1177.768724 455.435882 
L 1178.76143 454.077653 
L 1179.754136 455.282008 
L 1180.746842 455.269527 
L 1181.739548 453.029056 
L 1182.732254 452.186861 
L 1183.72496 454.816022 
L 1184.717666 455.596083 
L 1185.710372 457.415535 
L 1186.703078 454.165255 
L 1187.695784 453.999266 
L 1188.68849 454.02143 
L 1189.681196 454.738265 
L 1190.673901 455.308196 
L 1191.666607 454.18708 
L 1192.659313 457.246898 
L 1193.652019 456.156156 
L 1194.644725 455.386765 
L 1195.637431 456.602056 
L 1196.630137 454.854179 
L 1197.622843 455.981493 
L 1198.615549 454.99965 
L 1199.608255 457.634749 
L 1200.600961 456.693325 
L 1201.593667 457.164388 
L 1202.586373 456.541085 
L 1203.579078 459.176173 
L 1204.571784 456.042821 
L 1205.56449 455.359252 
L 1206.557196 457.143092 
L 1207.549902 456.860503 
L 1208.542608 453.298353 
L 1209.535314 455.713247 
L 1210.52802 454.294949 
L 1211.520726 455.601727 
L 1212.513432 455.539156 
L 1213.506138 453.624056 
L 1215.49155 457.21981 
L 1216.484255 457.093441 
L 1217.476961 455.141901 
L 1218.469667 458.508159 
L 1219.462373 452.558526 
L 1220.455079 453.964952 
L 1221.447785 456.623834 
L 1222.440491 454.534298 
L 1223.433197 456.698886 
L 1225.418609 455.012905 
L 1226.411315 456.202075 
L 1227.404021 458.144673 
L 1228.396727 457.698281 
L 1229.389432 454.555703 
L 1230.382138 457.710263 
L 1231.374844 455.666786 
L 1232.36755 454.475502 
L 1233.360256 456.183203 
L 1235.345668 454.669901 
L 1236.338374 452.85371 
L 1237.33108 455.739561 
L 1238.323786 456.604059 
L 1239.316492 456.879476 
L 1240.309198 457.832058 
L 1241.301904 456.411358 
L 1242.29461 453.589137 
L 1243.287315 453.663237 
L 1244.280021 456.749557 
L 1245.272727 451.717685 
L 1245.272727 451.717685 
" clip-path="url(#pc33427d447)" style="fill: none; stroke: #1f77b4; stroke-width: 1.5; stroke-linecap: square"/>
   </g>
   <g id="patch_3">
    <path d="M 180 512.64 
L 180 69.12 
" style="fill: none; stroke: #000000; stroke-width: 0.8; stroke-linejoin: miter; stroke-linecap: square"/>
   </g>
   <g id="patch_4">
    <path d="M 1296 512.64 
L 1296 69.12 
" style="fill: none; stroke: #000000; stroke-width: 0.8; stroke-linejoin: miter; stroke-linecap: square"/>
   </g>
   <g id="patch_5">
    <path d="M 180 512.64 
L 1296 512.64 
" style="fill: none; stroke: #000000; stroke-width: 0.8; stroke-linejoin: miter; stroke-linecap: square"/>
   </g>
   <g id="patch_6">
    <path d="M 180 69.12 
L 1296 69.12 
" style="fill: none; stroke: #000000; stroke-width: 0.8; stroke-linejoin: miter; stroke-linecap: square"/>
   </g>
   <g id="text_15">
    <!-- source15-receiver12 -->
    <g transform="translate(532.175 60.80125) scale(0.4 -0.4)">
     <defs>
      <path id="DejaVuSans-73" d="M 2834 3397 
L 2834 2853 
Q 2591 2978 2328 3040 
Q 2066 3103 1784 3103 
Q 1356 3103 1142 2972 
Q 928 2841 928 2578 
Q 928 2378 1081 2264 
Q 1234 2150 1697 2047 
L 1894 2003 
Q 2506 1872 2764 1633 
Q 3022 1394 3022 966 
Q 3022 478 2636 193 
Q 2250 -91 1575 -91 
Q 1294 -91 989 -36 
Q 684 19 347 128 
L 347 722 
Q 666 556 975 473 
Q 1284 391 1588 391 
Q 1994 391 2212 530 
Q 2431 669 2431 922 
Q 2431 1156 2273 1281 
Q 2116 1406 1581 1522 
L 1381 1569 
Q 847 1681 609 1914 
Q 372 2147 372 2553 
Q 372 3047 722 3315 
Q 1072 3584 1716 3584 
Q 2034 3584 2315 3537 
Q 2597 3491 2834 3397 
z
" transform="scale(0.015625)"/>
      <path id="DejaVuSans-6f" d="M 1959 3097 
Q 1497 3097 1228 2736 
Q 959 2375 959 1747 
Q 959 1119 1226 758 
Q 1494 397 1959 397 
Q 2419 397 2687 759 
Q 2956 1122 2956 1747 
Q 2956 2369 2687 2733 
Q 2419 3097 1959 3097 
z
M 1959 3584 
Q 2709 3584 3137 3096 
Q 3566 2609 3566 1747 
Q 3566 888 3137 398 
Q 2709 -91 1959 -91 
Q 1206 -91 779 398 
Q 353 888 353 1747 
Q 353 2609 779 3096 
Q 1206 3584 1959 3584 
z
" transform="scale(0.015625)"/>
      <path id="DejaVuSans-75" d="M 544 1381 
L 544 3500 
L 1119 3500 
L 1119 1403 
Q 1119 906 1312 657 
Q 1506 409 1894 409 
Q 2359 409 2629 706 
Q 2900 1003 2900 1516 
L 2900 3500 
L 3475 3500 
L 3475 0 
L 2900 0 
L 2900 538 
Q 2691 219 2414 64 
Q 2138 -91 1772 -91 
Q 1169 -91 856 284 
Q 544 659 544 1381 
z
M 1991 3584 
L 1991 3584 
z
" transform="scale(0.015625)"/>
      <path id="DejaVuSans-72" d="M 2631 2963 
Q 2534 3019 2420 3045 
Q 2306 3072 2169 3072 
Q 1681 3072 1420 2755 
Q 1159 2438 1159 1844 
L 1159 0 
L 581 0 
L 581 3500 
L 1159 3500 
L 1159 2956 
Q 1341 3275 1631 3429 
Q 1922 3584 2338 3584 
Q 2397 3584 2469 3576 
Q 2541 3569 2628 3553 
L 2631 2963 
z
" transform="scale(0.015625)"/>
      <path id="DejaVuSans-63" d="M 3122 3366 
L 3122 2828 
Q 2878 2963 2633 3030 
Q 2388 3097 2138 3097 
Q 1578 3097 1268 2742 
Q 959 2388 959 1747 
Q 959 1106 1268 751 
Q 1578 397 2138 397 
Q 2388 397 2633 464 
Q 2878 531 3122 666 
L 3122 134 
Q 2881 22 2623 -34 
Q 2366 -91 2075 -91 
Q 1284 -91 818 406 
Q 353 903 353 1747 
Q 353 2603 823 3093 
Q 1294 3584 2113 3584 
Q 2378 3584 2631 3529 
Q 2884 3475 3122 3366 
z
" transform="scale(0.015625)"/>
      <path id="DejaVuSans-65" d="M 3597 1894 
L 3597 1613 
L 953 1613 
Q 991 1019 1311 708 
Q 1631 397 2203 397 
Q 2534 397 2845 478 
Q 3156 559 3463 722 
L 3463 178 
Q 3153 47 2828 -22 
Q 2503 -91 2169 -91 
Q 1331 -91 842 396 
Q 353 884 353 1716 
Q 353 2575 817 3079 
Q 1281 3584 2069 3584 
Q 2775 3584 3186 3129 
Q 3597 2675 3597 1894 
z
M 3022 2063 
Q 3016 2534 2758 2815 
Q 2500 3097 2075 3097 
Q 1594 3097 1305 2825 
Q 1016 2553 972 2059 
L 3022 2063 
z
" transform="scale(0.015625)"/>
      <path id="DejaVuSans-2d" d="M 313 2009 
L 1997 2009 
L 1997 1497 
L 313 1497 
L 313 2009 
z
" transform="scale(0.015625)"/>
      <path id="DejaVuSans-69" d="M 603 3500 
L 1178 3500 
L 1178 0 
L 603 0 
L 603 3500 
z
M 603 4863 
L 1178 4863 
L 1178 4134 
L 603 4134 
L 603 4863 
z
" transform="scale(0.015625)"/>
      <path id="DejaVuSans-76" d="M 191 3500 
L 800 3500 
L 1894 563 
L 2988 3500 
L 3597 3500 
L 2284 0 
L 1503 0 
L 191 3500 
z
" transform="scale(0.015625)"/>
     </defs>
     <use xlink:href="#DejaVuSans-73"/>
     <use xlink:href="#DejaVuSans-6f" x="52.099609"/>
     <use xlink:href="#DejaVuSans-75" x="113.28125"/>
     <use xlink:href="#DejaVuSans-72" x="176.660156"/>
     <use xlink:href="#DejaVuSans-63" x="215.523438"/>
     <use xlink:href="#DejaVuSans-65" x="270.503906"/>
     <use xlink:href="#DejaVuSans-31" x="332.027344"/>
     <use xlink:href="#DejaVuSans-35" x="395.650391"/>
     <use xlink:href="#DejaVuSans-2d" x="459.273438"/>
     <use xlink:href="#DejaVuSans-72" x="495.357422"/>
     <use xlink:href="#DejaVuSans-65" x="534.220703"/>
     <use xlink:href="#DejaVuSans-63" x="595.744141"/>
     <use xlink:href="#DejaVuSans-65" x="650.724609"/>
     <use xlink:href="#DejaVuSans-69" x="712.248047"/>
     <use xlink:href="#DejaVuSans-76" x="740.03125"/>
     <use xlink:href="#DejaVuSans-65" x="799.210938"/>
     <use xlink:href="#DejaVuSans-72" x="860.734375"/>
     <use xlink:href="#DejaVuSans-31" x="901.847656"/>
     <use xlink:href="#DejaVuSans-32" x="965.470703"/>
    </g>
   </g>
  </g>
 </g>
 <defs>
  <clipPath id="pc33427d447">
   <rect x="180" y="69.12" width="1116" height="443.52"/>
  </clipPath>
 </defs>
</svg>
