<?xml version="1.0" encoding="utf-8" standalone="no"?>
<!DOCTYPE svg PUBLIC "-//W3C//DTD SVG 1.1//EN"
  "http://www.w3.org/Graphics/SVG/1.1/DTD/svg11.dtd">
<svg xmlns:xlink="http://www.w3.org/1999/xlink" width="1440pt" height="576pt" viewBox="0 0 1440 576" xmlns="http://www.w3.org/2000/svg" version="1.1">
 <metadata>
  <rdf:RDF xmlns:dc="http://purl.org/dc/elements/1.1/" xmlns:cc="http://creativecommons.org/ns#" xmlns:rdf="http://www.w3.org/1999/02/22-rdf-syntax-ns#">
   <cc:Work>
    <dc:type rdf:resource="http://purl.org/dc/dcmitype/StillImage"/>
    <dc:date>2024-05-22T04:50:08.391227</dc:date>
    <dc:format>image/svg+xml</dc:format>
    <dc:creator>
     <cc:Agent>
      <dc:title>Matplotlib v3.8.3, https://matplotlib.org/</dc:title>
     </cc:Agent>
    </dc:creator>
   </cc:Work>
  </rdf:RDF>
 </metadata>
 <defs>
  <style type="text/css">*{stroke-linejoin: round; stroke-linecap: butt}</style>
 </defs>
 <g id="figure_1">
  <g id="patch_1">
   <path d="M 0 576 
L 1440 576 
L 1440 0 
L 0 0 
z
" style="fill: #ffffff"/>
  </g>
  <g id="axes_1">
   <g id="patch_2">
    <path d="M 180 512.64 
L 1296 512.64 
L 1296 69.12 
L 180 69.12 
z
" style="fill: #ffffff"/>
   </g>
   <g id="matplotlib.axis_1">
    <g id="xtick_1">
     <g id="line2d_1">
      <defs>
       <path id="mfe798194a3" d="M 0 0 
L 0 3.5 
" style="stroke: #000000; stroke-width: 0.8"/>
      </defs>
      <g>
       <use xlink:href="#mfe798194a3" x="229.734567" y="512.64" style="stroke: #000000; stroke-width: 0.8"/>
      </g>
     </g>
     <g id="text_1">
      <!-- 0 -->
      <g transform="translate(226.553317 527.238438) scale(0.1 -0.1)">
       <defs>
        <path id="DejaVuSans-30" d="M 2034 4250 
Q 1547 4250 1301 3770 
Q 1056 3291 1056 2328 
Q 1056 1369 1301 889 
Q 1547 409 2034 409 
Q 2525 409 2770 889 
Q 3016 1369 3016 2328 
Q 3016 3291 2770 3770 
Q 2525 4250 2034 4250 
z
M 2034 4750 
Q 2819 4750 3233 4129 
Q 3647 3509 3647 2328 
Q 3647 1150 3233 529 
Q 2819 -91 2034 -91 
Q 1250 -91 836 529 
Q 422 1150 422 2328 
Q 422 3509 836 4129 
Q 1250 4750 2034 4750 
z
" transform="scale(0.015625)"/>
       </defs>
       <use xlink:href="#DejaVuSans-30"/>
      </g>
     </g>
    </g>
    <g id="xtick_2">
     <g id="line2d_2">
      <g>
       <use xlink:href="#mfe798194a3" x="433.04074" y="512.64" style="stroke: #000000; stroke-width: 0.8"/>
      </g>
     </g>
     <g id="text_2">
      <!-- 500 -->
      <g transform="translate(423.49699 527.238438) scale(0.1 -0.1)">
       <defs>
        <path id="DejaVuSans-35" d="M 691 4666 
L 3169 4666 
L 3169 4134 
L 1269 4134 
L 1269 2991 
Q 1406 3038 1543 3061 
Q 1681 3084 1819 3084 
Q 2600 3084 3056 2656 
Q 3513 2228 3513 1497 
Q 3513 744 3044 326 
Q 2575 -91 1722 -91 
Q 1428 -91 1123 -41 
Q 819 9 494 109 
L 494 744 
Q 775 591 1075 516 
Q 1375 441 1709 441 
Q 2250 441 2565 725 
Q 2881 1009 2881 1497 
Q 2881 1984 2565 2268 
Q 2250 2553 1709 2553 
Q 1456 2553 1204 2497 
Q 953 2441 691 2322 
L 691 4666 
z
" transform="scale(0.015625)"/>
       </defs>
       <use xlink:href="#DejaVuSans-35"/>
       <use xlink:href="#DejaVuSans-30" x="63.623047"/>
       <use xlink:href="#DejaVuSans-30" x="127.246094"/>
      </g>
     </g>
    </g>
    <g id="xtick_3">
     <g id="line2d_3">
      <g>
       <use xlink:href="#mfe798194a3" x="636.346913" y="512.64" style="stroke: #000000; stroke-width: 0.8"/>
      </g>
     </g>
     <g id="text_3">
      <!-- 1000 -->
      <g transform="translate(623.621913 527.238438) scale(0.1 -0.1)">
       <defs>
        <path id="DejaVuSans-31" d="M 794 531 
L 1825 531 
L 1825 4091 
L 703 3866 
L 703 4441 
L 1819 4666 
L 2450 4666 
L 2450 531 
L 3481 531 
L 3481 0 
L 794 0 
L 794 531 
z
" transform="scale(0.015625)"/>
       </defs>
       <use xlink:href="#DejaVuSans-31"/>
       <use xlink:href="#DejaVuSans-30" x="63.623047"/>
       <use xlink:href="#DejaVuSans-30" x="127.246094"/>
       <use xlink:href="#DejaVuSans-30" x="190.869141"/>
      </g>
     </g>
    </g>
    <g id="xtick_4">
     <g id="line2d_4">
      <g>
       <use xlink:href="#mfe798194a3" x="839.653087" y="512.64" style="stroke: #000000; stroke-width: 0.8"/>
      </g>
     </g>
     <g id="text_4">
      <!-- 1500 -->
      <g transform="translate(826.928087 527.238438) scale(0.1 -0.1)">
       <use xlink:href="#DejaVuSans-31"/>
       <use xlink:href="#DejaVuSans-35" x="63.623047"/>
       <use xlink:href="#DejaVuSans-30" x="127.246094"/>
       <use xlink:href="#DejaVuSans-30" x="190.869141"/>
      </g>
     </g>
    </g>
    <g id="xtick_5">
     <g id="line2d_5">
      <g>
       <use xlink:href="#mfe798194a3" x="1042.95926" y="512.64" style="stroke: #000000; stroke-width: 0.8"/>
      </g>
     </g>
     <g id="text_5">
      <!-- 2000 -->
      <g transform="translate(1030.23426 527.238438) scale(0.1 -0.1)">
       <defs>
        <path id="DejaVuSans-32" d="M 1228 531 
L 3431 531 
L 3431 0 
L 469 0 
L 469 531 
Q 828 903 1448 1529 
Q 2069 2156 2228 2338 
Q 2531 2678 2651 2914 
Q 2772 3150 2772 3378 
Q 2772 3750 2511 3984 
Q 2250 4219 1831 4219 
Q 1534 4219 1204 4116 
Q 875 4013 500 3803 
L 500 4441 
Q 881 4594 1212 4672 
Q 1544 4750 1819 4750 
Q 2544 4750 2975 4387 
Q 3406 4025 3406 3419 
Q 3406 3131 3298 2873 
Q 3191 2616 2906 2266 
Q 2828 2175 2409 1742 
Q 1991 1309 1228 531 
z
" transform="scale(0.015625)"/>
       </defs>
       <use xlink:href="#DejaVuSans-32"/>
       <use xlink:href="#DejaVuSans-30" x="63.623047"/>
       <use xlink:href="#DejaVuSans-30" x="127.246094"/>
       <use xlink:href="#DejaVuSans-30" x="190.869141"/>
      </g>
     </g>
    </g>
    <g id="xtick_6">
     <g id="line2d_6">
      <g>
       <use xlink:href="#mfe798194a3" x="1246.265433" y="512.64" style="stroke: #000000; stroke-width: 0.8"/>
      </g>
     </g>
     <g id="text_6">
      <!-- 2500 -->
      <g transform="translate(1233.540433 527.238438) scale(0.1 -0.1)">
       <use xlink:href="#DejaVuSans-32"/>
       <use xlink:href="#DejaVuSans-35" x="63.623047"/>
       <use xlink:href="#DejaVuSans-30" x="127.246094"/>
       <use xlink:href="#DejaVuSans-30" x="190.869141"/>
      </g>
     </g>
    </g>
   </g>
   <g id="matplotlib.axis_2">
    <g id="ytick_1">
     <g id="line2d_7">
      <defs>
       <path id="m9f70bd07e6" d="M 0 0 
L -3.5 0 
" style="stroke: #000000; stroke-width: 0.8"/>
      </defs>
      <g>
       <use xlink:href="#m9f70bd07e6" x="180" y="496.105361" style="stroke: #000000; stroke-width: 0.8"/>
      </g>
     </g>
     <g id="text_7">
      <!-- −4 -->
      <g transform="translate(158.257812 499.90458) scale(0.1 -0.1)">
       <defs>
        <path id="DejaVuSans-2212" d="M 678 2272 
L 4684 2272 
L 4684 1741 
L 678 1741 
L 678 2272 
z
" transform="scale(0.015625)"/>
        <path id="DejaVuSans-34" d="M 2419 4116 
L 825 1625 
L 2419 1625 
L 2419 4116 
z
M 2253 4666 
L 3047 4666 
L 3047 1625 
L 3713 1625 
L 3713 1100 
L 3047 1100 
L 3047 0 
L 2419 0 
L 2419 1100 
L 313 1100 
L 313 1709 
L 2253 4666 
z
" transform="scale(0.015625)"/>
       </defs>
       <use xlink:href="#DejaVuSans-2212"/>
       <use xlink:href="#DejaVuSans-34" x="83.789062"/>
      </g>
     </g>
    </g>
    <g id="ytick_2">
     <g id="line2d_8">
      <g>
       <use xlink:href="#m9f70bd07e6" x="180" y="443.695939" style="stroke: #000000; stroke-width: 0.8"/>
      </g>
     </g>
     <g id="text_8">
      <!-- −3 -->
      <g transform="translate(158.257812 447.495158) scale(0.1 -0.1)">
       <defs>
        <path id="DejaVuSans-33" d="M 2597 2516 
Q 3050 2419 3304 2112 
Q 3559 1806 3559 1356 
Q 3559 666 3084 287 
Q 2609 -91 1734 -91 
Q 1441 -91 1130 -33 
Q 819 25 488 141 
L 488 750 
Q 750 597 1062 519 
Q 1375 441 1716 441 
Q 2309 441 2620 675 
Q 2931 909 2931 1356 
Q 2931 1769 2642 2001 
Q 2353 2234 1838 2234 
L 1294 2234 
L 1294 2753 
L 1863 2753 
Q 2328 2753 2575 2939 
Q 2822 3125 2822 3475 
Q 2822 3834 2567 4026 
Q 2313 4219 1838 4219 
Q 1578 4219 1281 4162 
Q 984 4106 628 3988 
L 628 4550 
Q 988 4650 1302 4700 
Q 1616 4750 1894 4750 
Q 2613 4750 3031 4423 
Q 3450 4097 3450 3541 
Q 3450 3153 3228 2886 
Q 3006 2619 2597 2516 
z
" transform="scale(0.015625)"/>
       </defs>
       <use xlink:href="#DejaVuSans-2212"/>
       <use xlink:href="#DejaVuSans-33" x="83.789062"/>
      </g>
     </g>
    </g>
    <g id="ytick_3">
     <g id="line2d_9">
      <g>
       <use xlink:href="#m9f70bd07e6" x="180" y="391.286517" style="stroke: #000000; stroke-width: 0.8"/>
      </g>
     </g>
     <g id="text_9">
      <!-- −2 -->
      <g transform="translate(158.257812 395.085736) scale(0.1 -0.1)">
       <use xlink:href="#DejaVuSans-2212"/>
       <use xlink:href="#DejaVuSans-32" x="83.789062"/>
      </g>
     </g>
    </g>
    <g id="ytick_4">
     <g id="line2d_10">
      <g>
       <use xlink:href="#m9f70bd07e6" x="180" y="338.877095" style="stroke: #000000; stroke-width: 0.8"/>
      </g>
     </g>
     <g id="text_10">
      <!-- −1 -->
      <g transform="translate(158.257812 342.676314) scale(0.1 -0.1)">
       <use xlink:href="#DejaVuSans-2212"/>
       <use xlink:href="#DejaVuSans-31" x="83.789062"/>
      </g>
     </g>
    </g>
    <g id="ytick_5">
     <g id="line2d_11">
      <g>
       <use xlink:href="#m9f70bd07e6" x="180" y="286.467673" style="stroke: #000000; stroke-width: 0.8"/>
      </g>
     </g>
     <g id="text_11">
      <!-- 0 -->
      <g transform="translate(166.6375 290.266892) scale(0.1 -0.1)">
       <use xlink:href="#DejaVuSans-30"/>
      </g>
     </g>
    </g>
    <g id="ytick_6">
     <g id="line2d_12">
      <g>
       <use xlink:href="#m9f70bd07e6" x="180" y="234.058251" style="stroke: #000000; stroke-width: 0.8"/>
      </g>
     </g>
     <g id="text_12">
      <!-- 1 -->
      <g transform="translate(166.6375 237.85747) scale(0.1 -0.1)">
       <use xlink:href="#DejaVuSans-31"/>
      </g>
     </g>
    </g>
    <g id="ytick_7">
     <g id="line2d_13">
      <g>
       <use xlink:href="#m9f70bd07e6" x="180" y="181.648829" style="stroke: #000000; stroke-width: 0.8"/>
      </g>
     </g>
     <g id="text_13">
      <!-- 2 -->
      <g transform="translate(166.6375 185.448048) scale(0.1 -0.1)">
       <use xlink:href="#DejaVuSans-32"/>
      </g>
     </g>
    </g>
    <g id="ytick_8">
     <g id="line2d_14">
      <g>
       <use xlink:href="#m9f70bd07e6" x="180" y="129.239407" style="stroke: #000000; stroke-width: 0.8"/>
      </g>
     </g>
     <g id="text_14">
      <!-- 3 -->
      <g transform="translate(166.6375 133.038626) scale(0.1 -0.1)">
       <use xlink:href="#DejaVuSans-33"/>
      </g>
     </g>
    </g>
    <g id="ytick_9">
     <g id="line2d_15">
      <g>
       <use xlink:href="#m9f70bd07e6" x="180" y="76.829985" style="stroke: #000000; stroke-width: 0.8"/>
      </g>
     </g>
     <g id="text_15">
      <!-- 4 -->
      <g transform="translate(166.6375 80.629204) scale(0.1 -0.1)">
       <use xlink:href="#DejaVuSans-34"/>
      </g>
     </g>
    </g>
   </g>
   <g id="line2d_16">
    <path d="M 230.727273 477.116057 
L 231.719979 467.650229 
L 232.712685 461.431223 
L 233.70539 456.836372 
L 235.690802 442.279239 
L 236.683508 435.041923 
L 238.66892 422.606849 
L 239.661626 415.453524 
L 241.647038 399.943592 
L 242.639744 392.91784 
L 243.63245 384.430065 
L 244.625156 372.189117 
L 245.617862 356.245144 
L 246.610568 334.643109 
L 247.603273 318.789656 
L 248.595979 298.876178 
L 249.588685 285.21173 
L 252.566803 209.695889 
L 253.559509 190.841354 
L 254.552215 176.654077 
L 255.544921 171.35743 
L 256.537627 173.264046 
L 257.530333 185.971312 
L 258.523039 200.860354 
L 259.515745 188.68262 
L 260.50845 167.119124 
L 261.501156 156.926871 
L 262.493862 157.126636 
L 263.486568 168.107295 
L 264.479274 181.751914 
L 265.47198 178.761603 
L 266.464686 168.315113 
L 267.457392 166.699111 
L 268.450098 173.629273 
L 269.442804 183.48955 
L 270.43551 187.087954 
L 271.428216 183.579243 
L 272.420922 183.792644 
L 273.413627 189.137231 
L 274.406333 201.713328 
L 275.399039 231.317049 
L 276.391745 289.172876 
L 277.384451 224.66456 
L 278.377157 192.528775 
L 280.362569 145.740136 
L 281.355275 123.705605 
L 282.347981 106.895118 
L 283.340687 95.075473 
L 284.333393 89.28 
L 285.326099 89.789632 
L 286.318804 96.790138 
L 287.31151 112.231103 
L 288.304216 138.356969 
L 289.296922 171.406907 
L 290.289628 177.666399 
L 291.282334 175.514084 
L 292.27504 187.151887 
L 293.267746 221.679892 
L 294.260452 265.661235 
L 295.253158 257.019916 
L 296.245864 269.111248 
L 297.23857 319.812716 
L 298.231276 318.270205 
L 299.223981 339.233599 
L 300.216687 319.097765 
L 301.209393 271.41747 
L 302.202099 262.265005 
L 303.194805 277.71517 
L 304.187511 394.064634 
L 305.180217 300.92083 
L 306.172923 275.190832 
L 307.165629 284.809545 
L 308.158335 317.12628 
L 309.151041 327.953081 
L 310.143747 317.823008 
L 311.136453 311.143568 
L 312.129159 330.017734 
L 313.121864 329.603534 
L 314.11457 333.863842 
L 315.107276 331.815085 
L 316.099982 332.766475 
L 317.092688 340.649048 
L 318.085394 334.559435 
L 319.0781 342.446041 
L 320.070806 341.920213 
L 321.063512 339.370687 
L 322.056218 346.426045 
L 323.048924 344.263791 
L 324.04163 345.006547 
L 325.034336 345.224369 
L 326.027041 346.715056 
L 327.019747 357.606629 
L 328.012453 350.619713 
L 329.005159 352.444087 
L 329.997865 348.197883 
L 330.990571 362.162495 
L 331.983277 346.581472 
L 332.975983 353.434253 
L 333.968689 357.885628 
L 334.961395 358.502094 
L 335.954101 361.331009 
L 336.946807 350.317529 
L 337.939513 356.821402 
L 338.932218 353.826061 
L 339.924924 362.402107 
L 340.91763 364.213985 
L 341.910336 368.526909 
L 342.903042 371.519731 
L 343.895748 373.415368 
L 344.888454 361.786528 
L 345.88116 374.273263 
L 346.873866 363.009377 
L 347.866572 378.097369 
L 348.859278 362.226688 
L 349.851984 356.93604 
L 350.84469 361.778604 
L 351.837395 353.127924 
L 352.830101 376.079524 
L 353.822807 374.981524 
L 354.815513 369.602705 
L 355.808219 373.908386 
L 356.800925 369.793096 
L 357.793631 378.655746 
L 358.786337 377.61739 
L 359.779043 379.857885 
L 360.771749 388.904033 
L 361.764455 373.876535 
L 362.757161 382.127758 
L 363.749867 382.915035 
L 364.742572 370.298723 
L 365.735278 368.52348 
L 366.727984 387.464649 
L 367.72069 370.898246 
L 368.713396 378.080971 
L 369.706102 387.806657 
L 370.698808 380.212191 
L 371.691514 386.368213 
L 372.68422 372.41176 
L 373.676926 383.811762 
L 374.669632 374.857539 
L 375.662338 390.221112 
L 376.655044 385.12103 
L 377.64775 384.119879 
L 379.633161 398.477355 
L 380.625867 379.266806 
L 381.618573 383.181008 
L 382.611279 398.941197 
L 383.603985 391.050812 
L 384.596691 378.108835 
L 385.589397 375.738217 
L 386.582103 384.688173 
L 387.574809 395.388352 
L 388.567515 392.434048 
L 389.560221 377.585699 
L 390.552927 380.080339 
L 391.545632 388.37815 
L 392.538338 380.563201 
L 393.531044 384.696381 
L 394.52375 397.69865 
L 395.516456 395.316947 
L 396.509162 368.665806 
L 397.501868 387.060031 
L 398.494574 379.844647 
L 399.48728 423.417894 
L 400.479986 400.0534 
L 401.472692 395.327266 
L 402.465398 383.144736 
L 403.458104 388.219174 
L 404.450809 394.108443 
L 405.443515 391.855472 
L 406.436221 403.452642 
L 407.428927 399.580029 
L 408.421633 399.110177 
L 409.414339 395.941119 
L 410.407045 391.830826 
L 411.399751 384.263 
L 412.392457 410.421333 
L 413.385163 403.476198 
L 414.377869 400.949123 
L 415.370575 383.95655 
L 416.363281 394.495536 
L 417.355986 411.597679 
L 418.348692 395.955146 
L 419.341398 396.136332 
L 420.334104 405.227993 
L 421.32681 399.383031 
L 422.319516 426.223196 
L 423.312222 396.638798 
L 424.304928 394.502284 
L 425.297634 413.273459 
L 426.29034 410.192205 
L 427.283046 391.255888 
L 429.268458 401.001312 
L 430.261163 398.050366 
L 431.253869 409.651572 
L 432.246575 385.991685 
L 433.239281 401.866602 
L 434.231987 407.8914 
L 435.224693 408.250056 
L 436.217399 397.219888 
L 437.210105 387.799724 
L 438.202811 391.142379 
L 439.195517 399.724611 
L 440.188223 439.058712 
L 441.180929 408.226807 
L 442.173635 407.772731 
L 443.166341 398.749974 
L 444.159046 413.910703 
L 445.151752 400.012329 
L 446.144458 413.781496 
L 447.137164 415.87957 
L 448.12987 396.545599 
L 449.122576 400.921743 
L 450.115282 413.396691 
L 451.107988 410.043685 
L 452.100694 395.055291 
L 453.0934 409.660689 
L 454.086106 415.16284 
L 455.078812 404.620305 
L 456.071518 431.033398 
L 457.064223 409.249051 
L 458.056929 423.229638 
L 459.049635 393.798095 
L 460.042341 406.96926 
L 461.035047 407.142617 
L 462.027753 387.310156 
L 463.020459 419.390066 
L 464.013165 402.462552 
L 465.005871 455.462411 
L 465.998577 407.684982 
L 466.991283 410.613143 
L 467.983989 384.815704 
L 468.976695 410.882147 
L 469.9694 401.563704 
L 470.962106 408.38073 
L 471.954812 438.216527 
L 472.947518 400.966142 
L 473.940224 467.015489 
L 474.93293 414.745818 
L 475.925636 431.707258 
L 476.918342 414.029604 
L 477.911048 427.916957 
L 478.903754 418.963722 
L 479.89646 416.684404 
L 480.889166 412.806252 
L 481.881872 426.015829 
L 482.874577 396.131825 
L 483.867283 421.239548 
L 484.859989 388.156637 
L 485.852695 421.968176 
L 486.845401 414.878118 
L 487.838107 416.334738 
L 488.830813 416.430075 
L 489.823519 404.397559 
L 490.816225 412.518954 
L 491.808931 406.264654 
L 492.801637 423.454388 
L 493.794343 430.446577 
L 494.787049 416.861414 
L 495.779754 418.572871 
L 496.77246 420.618157 
L 497.765166 398.663924 
L 498.757872 440.512286 
L 499.750578 408.676264 
L 500.743284 419.087137 
L 501.73599 466.255407 
L 502.728696 440.369669 
L 503.721402 420.094801 
L 504.714108 421.046321 
L 505.706814 398.916336 
L 506.69952 428.266703 
L 507.692226 424.872646 
L 508.684932 413.28436 
L 509.677637 414.499993 
L 510.670343 436.756265 
L 511.663049 409.605074 
L 512.655755 433.210023 
L 513.648461 428.337579 
L 514.641167 426.63834 
L 515.633873 407.462148 
L 516.626579 430.755586 
L 517.619285 428.473033 
L 518.611991 449.068285 
L 519.604697 450.51814 
L 520.597403 424.016192 
L 521.590109 413.130529 
L 522.582814 408.892985 
L 523.57552 413.876207 
L 524.568226 423.98997 
L 525.560932 402.041965 
L 526.553638 400.592196 
L 527.546344 398.424862 
L 529.531756 428.068901 
L 530.524462 423.280832 
L 531.517168 402.343931 
L 532.509874 422.6835 
L 533.50258 415.746252 
L 534.495286 465.390114 
L 535.487991 413.570119 
L 536.480697 492.48 
L 537.473403 447.915292 
L 538.466109 423.134931 
L 539.458815 442.735647 
L 540.451521 419.040042 
L 541.444227 430.909456 
L 542.436933 428.442229 
L 543.429639 466.448088 
L 544.422345 423.953831 
L 545.415051 475.156716 
L 546.407757 414.358676 
L 547.400463 420.632271 
L 548.393168 439.019938 
L 549.385874 447.331135 
L 550.37858 410.997894 
L 551.371286 417.89455 
L 552.363992 434.49206 
L 553.356698 414.809472 
L 554.349404 424.630626 
L 555.34211 431.861811 
L 556.334816 408.870884 
L 557.327522 433.686018 
L 558.320228 404.904115 
L 559.312934 419.093846 
L 560.30564 416.103492 
L 561.298345 456.945349 
L 562.291051 457.153771 
L 563.283757 423.562063 
L 564.276463 443.249228 
L 565.269169 440.694402 
L 566.261875 412.495037 
L 567.254581 419.031397 
L 568.247287 413.727299 
L 569.239993 434.628471 
L 570.232699 425.801808 
L 571.225405 454.767263 
L 572.218111 424.024089 
L 573.210817 422.959891 
L 574.203523 412.346797 
L 575.196228 423.362903 
L 576.188934 429.188401 
L 577.18164 441.245877 
L 578.174346 440.001014 
L 579.167052 437.900495 
L 580.159758 422.773998 
L 581.152464 439.205982 
L 582.14517 440.248689 
L 583.137876 435.410786 
L 584.130582 438.664974 
L 585.123288 442.460482 
L 586.115994 449.380656 
L 587.1087 479.421172 
L 588.101405 423.288569 
L 589.094111 424.536768 
L 590.086817 440.721626 
L 591.079523 447.254334 
L 592.072229 429.295581 
L 593.064935 444.143318 
L 594.057641 438.347365 
L 595.050347 438.823886 
L 596.043053 447.926249 
L 597.035759 428.372386 
L 598.028465 438.726441 
L 599.021171 422.270635 
L 600.013877 429.639655 
L 601.006582 443.568864 
L 601.999288 447.445177 
L 602.991994 419.024346 
L 603.9847 447.522443 
L 604.977406 459.796688 
L 605.970112 447.926763 
L 606.962818 424.957254 
L 607.955524 429.330344 
L 608.94823 442.585163 
L 609.940936 433.074703 
L 610.933642 442.893237 
L 611.926348 442.173609 
L 612.919054 460.9644 
L 613.911759 429.881493 
L 614.904465 439.385394 
L 615.897171 432.589324 
L 616.889877 447.372171 
L 617.882583 448.930786 
L 618.875289 436.97979 
L 619.867995 450.698489 
L 620.860701 457.03631 
L 621.853407 433.169638 
L 622.846113 439.410927 
L 623.838819 437.46083 
L 624.831525 457.476052 
L 625.824231 449.656648 
L 626.816936 448.488163 
L 627.809642 433.126265 
L 628.802348 459.378939 
L 629.795054 442.25724 
L 630.78776 458.877323 
L 631.780466 442.365505 
L 632.773172 442.892059 
L 633.765878 433.292744 
L 634.758584 454.286563 
L 635.75129 447.521173 
L 636.743996 451.870951 
L 637.736702 449.594509 
L 638.729408 437.365439 
L 639.722114 460.094145 
L 640.714819 437.964156 
L 641.707525 448.940757 
L 642.700231 446.09274 
L 643.692937 436.458923 
L 644.685643 453.194516 
L 645.678349 447.966526 
L 646.671055 434.353292 
L 647.663761 453.483816 
L 648.656467 435.990291 
L 649.649173 438.986538 
L 650.641879 442.565456 
L 651.634585 446.572145 
L 652.627291 451.122664 
L 653.619996 456.497647 
L 654.612702 437.157241 
L 655.605408 451.020263 
L 656.598114 445.566378 
L 657.59082 446.628765 
L 658.583526 454.393319 
L 659.576232 439.305534 
L 660.568938 440.979391 
L 661.561644 438.805401 
L 662.55435 449.334053 
L 663.547056 447.689315 
L 664.539762 447.541586 
L 665.532468 449.128404 
L 666.525173 447.576235 
L 667.517879 449.789244 
L 668.510585 450.020091 
L 669.503291 443.5439 
L 670.495997 452.607144 
L 671.488703 444.160242 
L 672.481409 449.749143 
L 673.474115 446.431967 
L 674.466821 442.300416 
L 675.459527 447.191125 
L 676.452233 449.32043 
L 677.444939 446.554421 
L 678.437645 451.831149 
L 679.43035 451.439441 
L 680.423056 456.800226 
L 681.415762 448.588075 
L 682.408468 447.835792 
L 683.401174 444.613161 
L 684.39388 446.697889 
L 685.386586 449.088447 
L 686.379292 449.249673 
L 687.371998 445.984796 
L 688.364704 448.736015 
L 689.35741 450.366411 
L 690.350116 445.130902 
L 691.342822 447.954164 
L 692.335527 447.784481 
L 693.328233 451.635139 
L 694.320939 451.565248 
L 695.313645 448.502834 
L 696.306351 449.707482 
L 697.299057 449.919545 
L 698.291763 448.075708 
L 699.284469 447.472957 
L 700.277175 450.310532 
L 701.269881 449.547973 
L 702.262587 448.400985 
L 704.247999 446.409 
L 705.240705 451.418769 
L 706.23341 452.934827 
L 707.226116 451.184207 
L 708.218822 449.684006 
L 709.211528 451.81682 
L 710.204234 450.933463 
L 711.19694 451.361204 
L 712.189646 453.285956 
L 713.182352 450.464287 
L 714.175058 449.862208 
L 715.167764 450.916286 
L 716.16047 451.195861 
L 717.153176 451.318492 
L 718.145882 450.949856 
L 719.138587 453.269955 
L 720.131293 449.251837 
L 721.123999 450.008889 
L 722.116705 450.493815 
L 723.109411 452.670336 
L 724.102117 451.170133 
L 725.094823 451.736034 
L 726.087529 451.958914 
L 727.080235 451.13376 
L 728.072941 453.054127 
L 729.065647 452.480361 
L 730.058353 456.082774 
L 731.051059 452.385579 
L 732.043764 451.83381 
L 733.03647 450.66315 
L 734.029176 452.159754 
L 735.021882 449.881021 
L 736.014588 451.127985 
L 737.007294 452.822645 
L 738 455.486268 
L 738.992706 453.61186 
L 739.985412 453.34106 
L 740.978118 453.732075 
L 741.970824 450.699995 
L 742.96353 454.834924 
L 743.956236 454.684998 
L 744.948941 451.712276 
L 745.941647 455.758355 
L 746.934353 454.71536 
L 747.927059 453.886513 
L 748.919765 453.4721 
L 749.912471 454.878027 
L 750.905177 454.299347 
L 751.897883 453.954866 
L 752.890589 453.000763 
L 753.883295 453.610518 
L 754.876001 453.305998 
L 755.868707 457.286119 
L 756.861413 452.272532 
L 757.854118 455.608442 
L 758.846824 454.436095 
L 759.83953 454.792334 
L 760.832236 454.816055 
L 761.824942 453.920325 
L 762.817648 453.293466 
L 763.810354 454.908504 
L 764.80306 454.827011 
L 765.795766 455.406347 
L 766.788472 455.724761 
L 767.781178 454.519015 
L 769.76659 453.7001 
L 770.759295 454.591068 
L 771.752001 457.628997 
L 772.744707 454.58211 
L 773.737413 458.405049 
L 774.730119 456.183683 
L 775.722825 456.662295 
L 776.715531 453.591859 
L 777.708237 455.97146 
L 778.700943 454.634621 
L 779.693649 455.557043 
L 780.686355 454.868323 
L 781.679061 455.893529 
L 782.671767 455.379086 
L 783.664473 457.616249 
L 784.657178 457.393314 
L 785.649884 456.480185 
L 786.64259 458.166934 
L 787.635296 457.005243 
L 789.620708 458.507126 
L 790.613414 456.949016 
L 791.60612 455.627917 
L 792.598826 455.156793 
L 793.591532 457.546618 
L 794.584238 457.072073 
L 795.576944 458.189944 
L 796.56965 456.46307 
L 797.562355 457.322611 
L 798.555061 456.871857 
L 799.547767 458.804645 
L 800.540473 459.076696 
L 801.533179 458.284379 
L 802.525885 459.381406 
L 803.518591 456.895137 
L 804.511297 459.108366 
L 805.504003 460.640606 
L 806.496709 458.104467 
L 807.489415 458.293507 
L 808.482121 457.477414 
L 809.474827 460.037878 
L 810.467532 459.950054 
L 811.460238 457.632486 
L 812.452944 457.671198 
L 813.44565 458.490375 
L 814.438356 458.236771 
L 815.431062 459.52439 
L 816.423768 459.915371 
L 817.416474 458.323991 
L 818.40918 459.002915 
L 819.401886 458.916165 
L 820.394592 459.219087 
L 821.387298 457.890378 
L 822.380004 459.370279 
L 823.372709 459.102616 
L 824.365415 457.260746 
L 825.358121 457.247446 
L 827.343533 460.152746 
L 828.336239 459.723833 
L 829.328945 458.637991 
L 830.321651 460.729302 
L 831.314357 460.833598 
L 832.307063 461.214906 
L 833.299769 458.044356 
L 834.292475 456.744811 
L 835.285181 459.093046 
L 836.277886 460.33408 
L 837.270592 460.030339 
L 838.263298 461.8409 
L 839.256004 458.818816 
L 840.24871 458.827747 
L 841.241416 460.275607 
L 843.226828 459.630839 
L 844.219534 460.240285 
L 845.21224 462.075025 
L 846.204946 460.339452 
L 848.190358 460.903971 
L 849.183064 460.667825 
L 850.175769 460.56074 
L 851.168475 459.674007 
L 852.161181 459.698254 
L 853.153887 460.415953 
L 854.146593 460.30995 
L 855.139299 462.901386 
L 856.132005 461.255584 
L 857.124711 462.202034 
L 858.117417 461.752726 
L 859.110123 461.86451 
L 860.102829 460.61736 
L 861.095535 460.496005 
L 862.088241 462.303965 
L 863.080946 461.626929 
L 864.073652 462.341715 
L 865.066358 462.223647 
L 866.059064 463.550849 
L 867.05177 462.290984 
L 868.044476 462.88488 
L 870.029888 460.502886 
L 871.022594 461.660916 
L 872.0153 460.580427 
L 874.000712 464.362013 
L 874.993418 460.39888 
L 875.986123 464.287558 
L 876.978829 462.553274 
L 877.971535 461.494715 
L 878.964241 461.736931 
L 879.956947 462.677161 
L 880.949653 462.354631 
L 881.942359 461.895727 
L 882.935065 463.450666 
L 883.927771 464.480681 
L 884.920477 461.339131 
L 885.913183 463.716671 
L 886.905889 461.829523 
L 887.898595 462.16248 
L 888.8913 464.627727 
L 889.884006 461.619923 
L 890.876712 462.539627 
L 891.869418 462.767699 
L 892.862124 464.694477 
L 893.85483 462.72088 
L 894.847536 463.077478 
L 895.840242 462.165144 
L 896.832948 464.710358 
L 897.825654 464.943051 
L 898.81836 462.689043 
L 899.811066 461.977817 
L 900.803772 462.473452 
L 901.796477 465.15854 
L 902.789183 462.993518 
L 903.781889 464.301095 
L 904.774595 461.291231 
L 905.767301 464.094709 
L 907.752713 461.926309 
L 908.745419 461.558175 
L 909.738125 461.471068 
L 910.730831 465.205461 
L 911.723537 464.353489 
L 912.716243 463.074481 
L 913.708949 465.213114 
L 914.701655 466.02329 
L 915.69436 463.685407 
L 916.687066 465.001576 
L 917.679772 463.918832 
L 918.672478 463.267303 
L 919.665184 465.100105 
L 920.65789 463.865085 
L 921.650596 463.86816 
L 922.643302 464.670503 
L 923.636008 463.913515 
L 924.628714 465.422288 
L 926.614126 462.552995 
L 927.606832 465.947419 
L 928.599537 464.104156 
L 929.592243 465.629657 
L 930.584949 464.873604 
L 931.577655 464.25967 
L 932.570361 464.193275 
L 933.563067 463.936606 
L 934.555773 464.27176 
L 935.548479 465.214442 
L 936.541185 463.941983 
L 937.533891 464.717137 
L 938.526597 464.812077 
L 939.519303 467.06997 
L 940.512009 462.446039 
L 941.504714 466.545038 
L 942.49742 466.469968 
L 943.490126 467.219208 
L 944.482832 466.467911 
L 945.475538 464.306216 
L 946.468244 464.992962 
L 947.46095 464.928696 
L 948.453656 464.145878 
L 949.446362 466.732507 
L 951.431774 466.121593 
L 952.42448 464.54232 
L 953.417186 465.720141 
L 954.409891 466.473737 
L 955.402597 466.78569 
L 956.395303 466.91694 
L 957.388009 467.64976 
L 958.380715 466.117475 
L 959.373421 467.330865 
L 960.366127 464.865559 
L 961.358833 464.963633 
L 962.351539 466.187603 
L 963.344245 466.30666 
L 964.336951 466.598783 
L 965.329657 466.680036 
L 966.322363 464.957575 
L 967.315068 464.458461 
L 968.307774 464.83298 
L 969.30048 466.306511 
L 970.293186 465.350601 
L 971.285892 468.011659 
L 972.278598 467.790307 
L 973.271304 467.92587 
L 974.26401 465.571134 
L 975.256716 463.681586 
L 976.249422 464.356326 
L 977.242128 467.165256 
L 978.234834 467.653754 
L 979.22754 469.056683 
L 980.220246 467.470453 
L 981.212951 467.07936 
L 982.205657 466.273197 
L 983.198363 467.531355 
L 984.191069 467.520039 
L 985.183775 470.123841 
L 986.176481 468.787883 
L 987.169187 469.263567 
L 988.161893 467.291525 
L 989.154599 466.428272 
L 990.147305 466.759304 
L 991.140011 466.778463 
L 992.132717 467.025352 
L 993.125423 465.626305 
L 994.118128 465.350416 
L 995.110834 467.929065 
L 996.10354 467.98758 
L 997.096246 469.608431 
L 999.081658 467.006773 
L 1000.074364 465.161969 
L 1001.06707 468.388123 
L 1002.059776 468.87707 
L 1003.052482 466.462178 
L 1004.045188 468.819464 
L 1005.037894 466.676361 
L 1006.0306 467.716008 
L 1007.023305 467.766736 
L 1008.016011 466.955336 
L 1009.008717 466.867355 
L 1010.001423 467.846982 
L 1010.994129 468.333931 
L 1011.986835 466.984681 
L 1013.972247 469.001608 
L 1015.957659 468.026341 
L 1016.950365 467.797071 
L 1017.943071 466.172175 
L 1018.935777 467.024058 
L 1019.928482 468.772894 
L 1020.921188 468.200421 
L 1021.913894 468.282281 
L 1023.899306 467.083568 
L 1024.892012 468.258742 
L 1026.877424 466.567213 
L 1027.87013 467.476915 
L 1028.862836 466.565489 
L 1029.855542 466.673492 
L 1030.848248 468.940684 
L 1031.840954 465.813806 
L 1032.833659 467.482137 
L 1033.826365 470.529881 
L 1034.819071 468.610902 
L 1035.811777 468.558314 
L 1036.804483 466.971114 
L 1037.797189 464.799794 
L 1038.789895 468.288043 
L 1039.782601 469.518051 
L 1040.775307 468.749874 
L 1041.768013 469.983988 
L 1043.753425 466.406466 
L 1044.746131 467.451603 
L 1045.738837 467.672535 
L 1046.731542 470.433077 
L 1047.724248 471.689894 
L 1048.716954 468.832713 
L 1049.70966 468.055466 
L 1050.702366 468.420614 
L 1051.695072 466.593745 
L 1052.687778 466.773626 
L 1053.680484 469.281751 
L 1054.67319 469.757564 
L 1055.665896 468.866277 
L 1056.658602 467.436068 
L 1057.651308 467.449752 
L 1058.644014 469.604048 
L 1059.636719 470.33781 
L 1060.629425 469.494177 
L 1061.622131 472.10886 
L 1062.614837 467.664176 
L 1063.607543 469.759005 
L 1064.600249 469.998809 
L 1065.592955 469.010193 
L 1066.585661 466.901566 
L 1067.578367 467.715903 
L 1068.571073 469.523059 
L 1069.563779 470.20501 
L 1070.556485 469.82671 
L 1071.549191 467.696581 
L 1072.541896 469.541364 
L 1073.534602 470.076426 
L 1074.527308 471.013346 
L 1075.520014 469.360224 
L 1076.51272 468.788975 
L 1077.505426 469.38558 
L 1078.498132 470.802649 
L 1080.483544 468.800451 
L 1081.47625 467.532105 
L 1082.468956 467.11972 
L 1083.461662 468.424929 
L 1084.454368 470.743605 
L 1085.447073 470.690409 
L 1086.439779 469.794149 
L 1087.432485 470.935851 
L 1089.417897 468.690758 
L 1090.410603 473.910401 
L 1091.403309 469.865574 
L 1092.396015 470.72485 
L 1093.388721 470.831476 
L 1094.381427 469.005152 
L 1095.374133 470.685347 
L 1096.366839 470.313455 
L 1097.359545 471.775443 
L 1098.35225 468.03581 
L 1099.344956 467.856616 
L 1100.337662 469.561528 
L 1101.330368 468.30379 
L 1102.323074 468.844035 
L 1103.31578 469.769786 
L 1104.308486 468.265531 
L 1105.301192 469.66533 
L 1106.293898 469.887516 
L 1107.286604 469.222764 
L 1108.27931 469.100299 
L 1109.272016 468.260448 
L 1110.264722 470.460318 
L 1111.257428 469.531736 
L 1112.250133 468.897676 
L 1113.242839 469.654168 
L 1114.235545 469.668599 
L 1115.228251 471.911307 
L 1116.220957 470.981533 
L 1117.213663 469.147553 
L 1118.206369 470.339902 
L 1119.199075 469.425193 
L 1120.191781 469.688266 
L 1121.184487 469.750613 
L 1123.169899 468.751357 
L 1124.162605 470.904413 
L 1125.15531 471.226701 
L 1126.148016 470.248486 
L 1127.140722 467.696969 
L 1128.133428 470.009837 
L 1129.126134 470.973071 
L 1130.11884 470.181852 
L 1131.111546 468.906172 
L 1132.104252 469.211188 
L 1133.096958 469.168183 
L 1134.089664 469.240772 
L 1135.08237 471.11937 
L 1136.075076 470.839116 
L 1137.067782 468.807184 
L 1138.060487 471.390502 
L 1139.053193 473.12597 
L 1140.045899 470.312917 
L 1141.038605 470.555278 
L 1142.031311 469.216863 
L 1143.024017 469.921176 
L 1144.016723 470.238337 
L 1145.009429 469.255376 
L 1146.002135 469.52141 
L 1146.994841 471.232516 
L 1147.987547 469.713177 
L 1148.980253 471.32088 
L 1149.972959 471.035755 
L 1150.965664 471.055848 
L 1152.951076 469.754087 
L 1153.943782 470.466501 
L 1154.936488 471.641666 
L 1155.929194 470.229522 
L 1156.9219 471.482402 
L 1157.914606 469.851494 
L 1158.907312 471.113631 
L 1159.900018 470.448157 
L 1160.892724 469.536326 
L 1161.88543 469.183786 
L 1162.878136 472.647192 
L 1163.870841 470.310771 
L 1164.863547 472.08114 
L 1165.856253 471.440564 
L 1166.848959 472.061898 
L 1167.841665 470.291974 
L 1168.834371 471.717471 
L 1169.827077 470.342166 
L 1170.819783 470.726741 
L 1171.812489 469.650361 
L 1172.805195 469.783436 
L 1173.797901 468.572934 
L 1174.790607 472.333044 
L 1175.783313 471.462994 
L 1176.776019 470.333324 
L 1177.768724 470.057294 
L 1178.76143 471.133622 
L 1179.754136 469.610961 
L 1180.746842 468.668341 
L 1181.739548 472.09512 
L 1182.732254 471.837652 
L 1183.72496 472.167244 
L 1184.717666 472.983256 
L 1185.710372 470.221273 
L 1186.703078 471.543318 
L 1187.695784 473.162598 
L 1188.68849 472.689565 
L 1189.681196 473.726298 
L 1190.673901 472.282904 
L 1191.666607 468.825176 
L 1192.659313 469.305535 
L 1193.652019 472.051681 
L 1194.644725 472.509117 
L 1195.637431 471.806308 
L 1196.630137 470.511736 
L 1197.622843 472.982853 
L 1198.615549 471.191608 
L 1199.608255 470.733704 
L 1200.600961 471.183145 
L 1201.593667 469.914997 
L 1202.586373 471.157309 
L 1203.579078 470.856858 
L 1204.571784 470.318912 
L 1205.56449 471.580412 
L 1206.557196 471.257851 
L 1207.549902 470.68814 
L 1208.542608 469.623273 
L 1209.535314 472.072938 
L 1211.520726 470.900106 
L 1212.513432 470.18776 
L 1213.506138 471.706232 
L 1214.498844 472.172894 
L 1215.49155 473.437068 
L 1217.476961 470.541809 
L 1218.469667 471.144597 
L 1219.462373 470.852263 
L 1220.455079 469.762756 
L 1221.447785 469.470068 
L 1222.440491 468.481299 
L 1223.433197 470.797061 
L 1224.425903 470.236599 
L 1225.418609 471.809978 
L 1226.411315 471.829868 
L 1227.404021 471.091833 
L 1228.396727 472.371682 
L 1229.389432 470.364593 
L 1230.382138 471.719368 
L 1231.374844 469.402343 
L 1232.36755 471.811322 
L 1233.360256 472.546157 
L 1234.352962 470.788594 
L 1235.345668 470.991296 
L 1236.338374 469.470827 
L 1237.33108 471.480846 
L 1238.323786 469.549494 
L 1239.316492 472.413468 
L 1240.309198 473.09976 
L 1241.301904 469.921182 
L 1242.29461 470.595857 
L 1243.287315 467.962601 
L 1244.280021 468.761254 
L 1245.272727 471.103063 
L 1245.272727 471.103063 
" clip-path="url(#p378cac422d)" style="fill: none; stroke: #1f77b4; stroke-width: 1.5; stroke-linecap: square"/>
   </g>
   <g id="patch_3">
    <path d="M 180 512.64 
L 180 69.12 
" style="fill: none; stroke: #000000; stroke-width: 0.8; stroke-linejoin: miter; stroke-linecap: square"/>
   </g>
   <g id="patch_4">
    <path d="M 1296 512.64 
L 1296 69.12 
" style="fill: none; stroke: #000000; stroke-width: 0.8; stroke-linejoin: miter; stroke-linecap: square"/>
   </g>
   <g id="patch_5">
    <path d="M 180 512.64 
L 1296 512.64 
" style="fill: none; stroke: #000000; stroke-width: 0.8; stroke-linejoin: miter; stroke-linecap: square"/>
   </g>
   <g id="patch_6">
    <path d="M 180 69.12 
L 1296 69.12 
" style="fill: none; stroke: #000000; stroke-width: 0.8; stroke-linejoin: miter; stroke-linecap: square"/>
   </g>
   <g id="text_16">
    <!-- source15-receiver17 -->
    <g transform="translate(532.175 60.80125) scale(0.4 -0.4)">
     <defs>
      <path id="DejaVuSans-73" d="M 2834 3397 
L 2834 2853 
Q 2591 2978 2328 3040 
Q 2066 3103 1784 3103 
Q 1356 3103 1142 2972 
Q 928 2841 928 2578 
Q 928 2378 1081 2264 
Q 1234 2150 1697 2047 
L 1894 2003 
Q 2506 1872 2764 1633 
Q 3022 1394 3022 966 
Q 3022 478 2636 193 
Q 2250 -91 1575 -91 
Q 1294 -91 989 -36 
Q 684 19 347 128 
L 347 722 
Q 666 556 975 473 
Q 1284 391 1588 391 
Q 1994 391 2212 530 
Q 2431 669 2431 922 
Q 2431 1156 2273 1281 
Q 2116 1406 1581 1522 
L 1381 1569 
Q 847 1681 609 1914 
Q 372 2147 372 2553 
Q 372 3047 722 3315 
Q 1072 3584 1716 3584 
Q 2034 3584 2315 3537 
Q 2597 3491 2834 3397 
z
" transform="scale(0.015625)"/>
      <path id="DejaVuSans-6f" d="M 1959 3097 
Q 1497 3097 1228 2736 
Q 959 2375 959 1747 
Q 959 1119 1226 758 
Q 1494 397 1959 397 
Q 2419 397 2687 759 
Q 2956 1122 2956 1747 
Q 2956 2369 2687 2733 
Q 2419 3097 1959 3097 
z
M 1959 3584 
Q 2709 3584 3137 3096 
Q 3566 2609 3566 1747 
Q 3566 888 3137 398 
Q 2709 -91 1959 -91 
Q 1206 -91 779 398 
Q 353 888 353 1747 
Q 353 2609 779 3096 
Q 1206 3584 1959 3584 
z
" transform="scale(0.015625)"/>
      <path id="DejaVuSans-75" d="M 544 1381 
L 544 3500 
L 1119 3500 
L 1119 1403 
Q 1119 906 1312 657 
Q 1506 409 1894 409 
Q 2359 409 2629 706 
Q 2900 1003 2900 1516 
L 2900 3500 
L 3475 3500 
L 3475 0 
L 2900 0 
L 2900 538 
Q 2691 219 2414 64 
Q 2138 -91 1772 -91 
Q 1169 -91 856 284 
Q 544 659 544 1381 
z
M 1991 3584 
L 1991 3584 
z
" transform="scale(0.015625)"/>
      <path id="DejaVuSans-72" d="M 2631 2963 
Q 2534 3019 2420 3045 
Q 2306 3072 2169 3072 
Q 1681 3072 1420 2755 
Q 1159 2438 1159 1844 
L 1159 0 
L 581 0 
L 581 3500 
L 1159 3500 
L 1159 2956 
Q 1341 3275 1631 3429 
Q 1922 3584 2338 3584 
Q 2397 3584 2469 3576 
Q 2541 3569 2628 3553 
L 2631 2963 
z
" transform="scale(0.015625)"/>
      <path id="DejaVuSans-63" d="M 3122 3366 
L 3122 2828 
Q 2878 2963 2633 3030 
Q 2388 3097 2138 3097 
Q 1578 3097 1268 2742 
Q 959 2388 959 1747 
Q 959 1106 1268 751 
Q 1578 397 2138 397 
Q 2388 397 2633 464 
Q 2878 531 3122 666 
L 3122 134 
Q 2881 22 2623 -34 
Q 2366 -91 2075 -91 
Q 1284 -91 818 406 
Q 353 903 353 1747 
Q 353 2603 823 3093 
Q 1294 3584 2113 3584 
Q 2378 3584 2631 3529 
Q 2884 3475 3122 3366 
z
" transform="scale(0.015625)"/>
      <path id="DejaVuSans-65" d="M 3597 1894 
L 3597 1613 
L 953 1613 
Q 991 1019 1311 708 
Q 1631 397 2203 397 
Q 2534 397 2845 478 
Q 3156 559 3463 722 
L 3463 178 
Q 3153 47 2828 -22 
Q 2503 -91 2169 -91 
Q 1331 -91 842 396 
Q 353 884 353 1716 
Q 353 2575 817 3079 
Q 1281 3584 2069 3584 
Q 2775 3584 3186 3129 
Q 3597 2675 3597 1894 
z
M 3022 2063 
Q 3016 2534 2758 2815 
Q 2500 3097 2075 3097 
Q 1594 3097 1305 2825 
Q 1016 2553 972 2059 
L 3022 2063 
z
" transform="scale(0.015625)"/>
      <path id="DejaVuSans-2d" d="M 313 2009 
L 1997 2009 
L 1997 1497 
L 313 1497 
L 313 2009 
z
" transform="scale(0.015625)"/>
      <path id="DejaVuSans-69" d="M 603 3500 
L 1178 3500 
L 1178 0 
L 603 0 
L 603 3500 
z
M 603 4863 
L 1178 4863 
L 1178 4134 
L 603 4134 
L 603 4863 
z
" transform="scale(0.015625)"/>
      <path id="DejaVuSans-76" d="M 191 3500 
L 800 3500 
L 1894 563 
L 2988 3500 
L 3597 3500 
L 2284 0 
L 1503 0 
L 191 3500 
z
" transform="scale(0.015625)"/>
      <path id="DejaVuSans-37" d="M 525 4666 
L 3525 4666 
L 3525 4397 
L 1831 0 
L 1172 0 
L 2766 4134 
L 525 4134 
L 525 4666 
z
" transform="scale(0.015625)"/>
     </defs>
     <use xlink:href="#DejaVuSans-73"/>
     <use xlink:href="#DejaVuSans-6f" x="52.099609"/>
     <use xlink:href="#DejaVuSans-75" x="113.28125"/>
     <use xlink:href="#DejaVuSans-72" x="176.660156"/>
     <use xlink:href="#DejaVuSans-63" x="215.523438"/>
     <use xlink:href="#DejaVuSans-65" x="270.503906"/>
     <use xlink:href="#DejaVuSans-31" x="332.027344"/>
     <use xlink:href="#DejaVuSans-35" x="395.650391"/>
     <use xlink:href="#DejaVuSans-2d" x="459.273438"/>
     <use xlink:href="#DejaVuSans-72" x="495.357422"/>
     <use xlink:href="#DejaVuSans-65" x="534.220703"/>
     <use xlink:href="#DejaVuSans-63" x="595.744141"/>
     <use xlink:href="#DejaVuSans-65" x="650.724609"/>
     <use xlink:href="#DejaVuSans-69" x="712.248047"/>
     <use xlink:href="#DejaVuSans-76" x="740.03125"/>
     <use xlink:href="#DejaVuSans-65" x="799.210938"/>
     <use xlink:href="#DejaVuSans-72" x="860.734375"/>
     <use xlink:href="#DejaVuSans-31" x="901.847656"/>
     <use xlink:href="#DejaVuSans-37" x="965.470703"/>
    </g>
   </g>
  </g>
 </g>
 <defs>
  <clipPath id="p378cac422d">
   <rect x="180" y="69.12" width="1116" height="443.52"/>
  </clipPath>
 </defs>
</svg>
