<?xml version="1.0" encoding="utf-8" standalone="no"?>
<!DOCTYPE svg PUBLIC "-//W3C//DTD SVG 1.1//EN"
  "http://www.w3.org/Graphics/SVG/1.1/DTD/svg11.dtd">
<svg xmlns:xlink="http://www.w3.org/1999/xlink" width="1440pt" height="576pt" viewBox="0 0 1440 576" xmlns="http://www.w3.org/2000/svg" version="1.1">
 <metadata>
  <rdf:RDF xmlns:dc="http://purl.org/dc/elements/1.1/" xmlns:cc="http://creativecommons.org/ns#" xmlns:rdf="http://www.w3.org/1999/02/22-rdf-syntax-ns#">
   <cc:Work>
    <dc:type rdf:resource="http://purl.org/dc/dcmitype/StillImage"/>
    <dc:date>2024-05-22T04:50:08.231986</dc:date>
    <dc:format>image/svg+xml</dc:format>
    <dc:creator>
     <cc:Agent>
      <dc:title>Matplotlib v3.8.3, https://matplotlib.org/</dc:title>
     </cc:Agent>
    </dc:creator>
   </cc:Work>
  </rdf:RDF>
 </metadata>
 <defs>
  <style type="text/css">*{stroke-linejoin: round; stroke-linecap: butt}</style>
 </defs>
 <g id="figure_1">
  <g id="patch_1">
   <path d="M 0 576 
L 1440 576 
L 1440 0 
L 0 0 
z
" style="fill: #ffffff"/>
  </g>
  <g id="axes_1">
   <g id="patch_2">
    <path d="M 180 512.64 
L 1296 512.64 
L 1296 69.12 
L 180 69.12 
z
" style="fill: #ffffff"/>
   </g>
   <g id="matplotlib.axis_1">
    <g id="xtick_1">
     <g id="line2d_1">
      <defs>
       <path id="meb91174417" d="M 0 0 
L 0 3.5 
" style="stroke: #000000; stroke-width: 0.8"/>
      </defs>
      <g>
       <use xlink:href="#meb91174417" x="229.734567" y="512.64" style="stroke: #000000; stroke-width: 0.8"/>
      </g>
     </g>
     <g id="text_1">
      <!-- 0 -->
      <g transform="translate(226.553317 527.238438) scale(0.1 -0.1)">
       <defs>
        <path id="DejaVuSans-30" d="M 2034 4250 
Q 1547 4250 1301 3770 
Q 1056 3291 1056 2328 
Q 1056 1369 1301 889 
Q 1547 409 2034 409 
Q 2525 409 2770 889 
Q 3016 1369 3016 2328 
Q 3016 3291 2770 3770 
Q 2525 4250 2034 4250 
z
M 2034 4750 
Q 2819 4750 3233 4129 
Q 3647 3509 3647 2328 
Q 3647 1150 3233 529 
Q 2819 -91 2034 -91 
Q 1250 -91 836 529 
Q 422 1150 422 2328 
Q 422 3509 836 4129 
Q 1250 4750 2034 4750 
z
" transform="scale(0.015625)"/>
       </defs>
       <use xlink:href="#DejaVuSans-30"/>
      </g>
     </g>
    </g>
    <g id="xtick_2">
     <g id="line2d_2">
      <g>
       <use xlink:href="#meb91174417" x="433.04074" y="512.64" style="stroke: #000000; stroke-width: 0.8"/>
      </g>
     </g>
     <g id="text_2">
      <!-- 500 -->
      <g transform="translate(423.49699 527.238438) scale(0.1 -0.1)">
       <defs>
        <path id="DejaVuSans-35" d="M 691 4666 
L 3169 4666 
L 3169 4134 
L 1269 4134 
L 1269 2991 
Q 1406 3038 1543 3061 
Q 1681 3084 1819 3084 
Q 2600 3084 3056 2656 
Q 3513 2228 3513 1497 
Q 3513 744 3044 326 
Q 2575 -91 1722 -91 
Q 1428 -91 1123 -41 
Q 819 9 494 109 
L 494 744 
Q 775 591 1075 516 
Q 1375 441 1709 441 
Q 2250 441 2565 725 
Q 2881 1009 2881 1497 
Q 2881 1984 2565 2268 
Q 2250 2553 1709 2553 
Q 1456 2553 1204 2497 
Q 953 2441 691 2322 
L 691 4666 
z
" transform="scale(0.015625)"/>
       </defs>
       <use xlink:href="#DejaVuSans-35"/>
       <use xlink:href="#DejaVuSans-30" x="63.623047"/>
       <use xlink:href="#DejaVuSans-30" x="127.246094"/>
      </g>
     </g>
    </g>
    <g id="xtick_3">
     <g id="line2d_3">
      <g>
       <use xlink:href="#meb91174417" x="636.346913" y="512.64" style="stroke: #000000; stroke-width: 0.8"/>
      </g>
     </g>
     <g id="text_3">
      <!-- 1000 -->
      <g transform="translate(623.621913 527.238438) scale(0.1 -0.1)">
       <defs>
        <path id="DejaVuSans-31" d="M 794 531 
L 1825 531 
L 1825 4091 
L 703 3866 
L 703 4441 
L 1819 4666 
L 2450 4666 
L 2450 531 
L 3481 531 
L 3481 0 
L 794 0 
L 794 531 
z
" transform="scale(0.015625)"/>
       </defs>
       <use xlink:href="#DejaVuSans-31"/>
       <use xlink:href="#DejaVuSans-30" x="63.623047"/>
       <use xlink:href="#DejaVuSans-30" x="127.246094"/>
       <use xlink:href="#DejaVuSans-30" x="190.869141"/>
      </g>
     </g>
    </g>
    <g id="xtick_4">
     <g id="line2d_4">
      <g>
       <use xlink:href="#meb91174417" x="839.653087" y="512.64" style="stroke: #000000; stroke-width: 0.8"/>
      </g>
     </g>
     <g id="text_4">
      <!-- 1500 -->
      <g transform="translate(826.928087 527.238438) scale(0.1 -0.1)">
       <use xlink:href="#DejaVuSans-31"/>
       <use xlink:href="#DejaVuSans-35" x="63.623047"/>
       <use xlink:href="#DejaVuSans-30" x="127.246094"/>
       <use xlink:href="#DejaVuSans-30" x="190.869141"/>
      </g>
     </g>
    </g>
    <g id="xtick_5">
     <g id="line2d_5">
      <g>
       <use xlink:href="#meb91174417" x="1042.95926" y="512.64" style="stroke: #000000; stroke-width: 0.8"/>
      </g>
     </g>
     <g id="text_5">
      <!-- 2000 -->
      <g transform="translate(1030.23426 527.238438) scale(0.1 -0.1)">
       <defs>
        <path id="DejaVuSans-32" d="M 1228 531 
L 3431 531 
L 3431 0 
L 469 0 
L 469 531 
Q 828 903 1448 1529 
Q 2069 2156 2228 2338 
Q 2531 2678 2651 2914 
Q 2772 3150 2772 3378 
Q 2772 3750 2511 3984 
Q 2250 4219 1831 4219 
Q 1534 4219 1204 4116 
Q 875 4013 500 3803 
L 500 4441 
Q 881 4594 1212 4672 
Q 1544 4750 1819 4750 
Q 2544 4750 2975 4387 
Q 3406 4025 3406 3419 
Q 3406 3131 3298 2873 
Q 3191 2616 2906 2266 
Q 2828 2175 2409 1742 
Q 1991 1309 1228 531 
z
" transform="scale(0.015625)"/>
       </defs>
       <use xlink:href="#DejaVuSans-32"/>
       <use xlink:href="#DejaVuSans-30" x="63.623047"/>
       <use xlink:href="#DejaVuSans-30" x="127.246094"/>
       <use xlink:href="#DejaVuSans-30" x="190.869141"/>
      </g>
     </g>
    </g>
    <g id="xtick_6">
     <g id="line2d_6">
      <g>
       <use xlink:href="#meb91174417" x="1246.265433" y="512.64" style="stroke: #000000; stroke-width: 0.8"/>
      </g>
     </g>
     <g id="text_6">
      <!-- 2500 -->
      <g transform="translate(1233.540433 527.238438) scale(0.1 -0.1)">
       <use xlink:href="#DejaVuSans-32"/>
       <use xlink:href="#DejaVuSans-35" x="63.623047"/>
       <use xlink:href="#DejaVuSans-30" x="127.246094"/>
       <use xlink:href="#DejaVuSans-30" x="190.869141"/>
      </g>
     </g>
    </g>
   </g>
   <g id="matplotlib.axis_2">
    <g id="ytick_1">
     <g id="line2d_7">
      <defs>
       <path id="mbf0fab2966" d="M 0 0 
L -3.5 0 
" style="stroke: #000000; stroke-width: 0.8"/>
      </defs>
      <g>
       <use xlink:href="#mbf0fab2966" x="180" y="506.795631" style="stroke: #000000; stroke-width: 0.8"/>
      </g>
     </g>
     <g id="text_7">
      <!-- −6 -->
      <g transform="translate(158.257812 510.59485) scale(0.1 -0.1)">
       <defs>
        <path id="DejaVuSans-2212" d="M 678 2272 
L 4684 2272 
L 4684 1741 
L 678 1741 
L 678 2272 
z
" transform="scale(0.015625)"/>
        <path id="DejaVuSans-36" d="M 2113 2584 
Q 1688 2584 1439 2293 
Q 1191 2003 1191 1497 
Q 1191 994 1439 701 
Q 1688 409 2113 409 
Q 2538 409 2786 701 
Q 3034 994 3034 1497 
Q 3034 2003 2786 2293 
Q 2538 2584 2113 2584 
z
M 3366 4563 
L 3366 3988 
Q 3128 4100 2886 4159 
Q 2644 4219 2406 4219 
Q 1781 4219 1451 3797 
Q 1122 3375 1075 2522 
Q 1259 2794 1537 2939 
Q 1816 3084 2150 3084 
Q 2853 3084 3261 2657 
Q 3669 2231 3669 1497 
Q 3669 778 3244 343 
Q 2819 -91 2113 -91 
Q 1303 -91 875 529 
Q 447 1150 447 2328 
Q 447 3434 972 4092 
Q 1497 4750 2381 4750 
Q 2619 4750 2861 4703 
Q 3103 4656 3366 4563 
z
" transform="scale(0.015625)"/>
       </defs>
       <use xlink:href="#DejaVuSans-2212"/>
       <use xlink:href="#DejaVuSans-36" x="83.789062"/>
      </g>
     </g>
    </g>
    <g id="ytick_2">
     <g id="line2d_8">
      <g>
       <use xlink:href="#mbf0fab2966" x="180" y="424.555507" style="stroke: #000000; stroke-width: 0.8"/>
      </g>
     </g>
     <g id="text_8">
      <!-- −4 -->
      <g transform="translate(158.257812 428.354725) scale(0.1 -0.1)">
       <defs>
        <path id="DejaVuSans-34" d="M 2419 4116 
L 825 1625 
L 2419 1625 
L 2419 4116 
z
M 2253 4666 
L 3047 4666 
L 3047 1625 
L 3713 1625 
L 3713 1100 
L 3047 1100 
L 3047 0 
L 2419 0 
L 2419 1100 
L 313 1100 
L 313 1709 
L 2253 4666 
z
" transform="scale(0.015625)"/>
       </defs>
       <use xlink:href="#DejaVuSans-2212"/>
       <use xlink:href="#DejaVuSans-34" x="83.789062"/>
      </g>
     </g>
    </g>
    <g id="ytick_3">
     <g id="line2d_9">
      <g>
       <use xlink:href="#mbf0fab2966" x="180" y="342.315382" style="stroke: #000000; stroke-width: 0.8"/>
      </g>
     </g>
     <g id="text_9">
      <!-- −2 -->
      <g transform="translate(158.257812 346.114601) scale(0.1 -0.1)">
       <use xlink:href="#DejaVuSans-2212"/>
       <use xlink:href="#DejaVuSans-32" x="83.789062"/>
      </g>
     </g>
    </g>
    <g id="ytick_4">
     <g id="line2d_10">
      <g>
       <use xlink:href="#mbf0fab2966" x="180" y="260.075258" style="stroke: #000000; stroke-width: 0.8"/>
      </g>
     </g>
     <g id="text_10">
      <!-- 0 -->
      <g transform="translate(166.6375 263.874477) scale(0.1 -0.1)">
       <use xlink:href="#DejaVuSans-30"/>
      </g>
     </g>
    </g>
    <g id="ytick_5">
     <g id="line2d_11">
      <g>
       <use xlink:href="#mbf0fab2966" x="180" y="177.835134" style="stroke: #000000; stroke-width: 0.8"/>
      </g>
     </g>
     <g id="text_11">
      <!-- 2 -->
      <g transform="translate(166.6375 181.634352) scale(0.1 -0.1)">
       <use xlink:href="#DejaVuSans-32"/>
      </g>
     </g>
    </g>
    <g id="ytick_6">
     <g id="line2d_12">
      <g>
       <use xlink:href="#mbf0fab2966" x="180" y="95.595009" style="stroke: #000000; stroke-width: 0.8"/>
      </g>
     </g>
     <g id="text_12">
      <!-- 4 -->
      <g transform="translate(166.6375 99.394228) scale(0.1 -0.1)">
       <use xlink:href="#DejaVuSans-34"/>
      </g>
     </g>
    </g>
   </g>
   <g id="line2d_13">
    <path d="M 230.727273 196.311033 
L 231.719979 195.987605 
L 232.712685 195.47009 
L 235.690802 192.979045 
L 238.66892 190.342087 
L 241.647038 187.993058 
L 242.639744 187.393222 
L 243.63245 187.074147 
L 244.625156 187.390744 
L 246.610568 189.656985 
L 247.603273 186.732153 
L 248.595979 175.402043 
L 249.588685 160.309552 
L 250.581391 147.928071 
L 251.574097 139.861876 
L 252.566803 135.17841 
L 253.559509 132.648516 
L 254.552215 131.295984 
L 255.544921 130.592368 
L 256.537627 130.217663 
L 260.50845 129.388706 
L 261.501156 128.977981 
L 262.493862 128.429456 
L 263.486568 127.730535 
L 265.47198 125.939754 
L 270.43551 120.880812 
L 271.428216 120.141401 
L 272.420922 119.587633 
L 273.413627 119.273573 
L 274.406333 119.210273 
L 275.399039 119.436718 
L 278.377157 120.801628 
L 279.369863 120.905455 
L 280.362569 120.58744 
L 281.355275 119.228968 
L 282.347981 116.476337 
L 283.340687 112.569655 
L 286.318804 98.828641 
L 287.31151 95.128278 
L 288.304216 92.325172 
L 289.296922 90.400119 
L 290.289628 89.341937 
L 291.282334 89.28 
L 292.27504 90.14881 
L 293.267746 91.706882 
L 294.260452 93.762199 
L 295.253158 96.174609 
L 297.23857 101.850929 
L 299.223981 108.412751 
L 301.209393 115.728064 
L 306.172923 134.63423 
L 307.165629 137.718985 
L 308.158335 140.394331 
L 309.151041 142.666498 
L 310.143747 144.539417 
L 312.129159 147.588265 
L 315.107276 151.749206 
L 316.099982 153.427843 
L 317.092688 155.382711 
L 318.085394 157.769584 
L 319.0781 160.598267 
L 320.070806 163.884941 
L 321.063512 167.685941 
L 325.034336 184.326015 
L 326.027041 186.058857 
L 327.019747 185.475188 
L 328.012453 182.81345 
L 329.005159 178.908036 
L 330.990571 170.260194 
L 331.983277 166.379238 
L 332.975983 162.956965 
L 333.968689 160.051463 
L 334.961395 157.659111 
L 335.954101 155.722847 
L 336.946807 154.263427 
L 337.939513 153.218284 
L 338.932218 152.581466 
L 339.924924 152.3038 
L 340.91763 152.363679 
L 341.910336 152.719517 
L 342.903042 153.348098 
L 343.895748 154.225095 
L 345.88116 156.452356 
L 347.866572 158.909813 
L 348.859278 160.003398 
L 349.851984 160.901972 
L 350.84469 161.578175 
L 351.837395 161.804028 
L 352.830101 161.766547 
L 353.822807 161.275877 
L 355.808219 159.619011 
L 357.793631 157.931685 
L 358.786337 157.268949 
L 359.779043 156.795906 
L 360.771749 156.565808 
L 361.764455 156.60879 
L 362.757161 156.967831 
L 363.749867 157.621001 
L 364.742572 158.647627 
L 365.735278 160.044135 
L 366.727984 161.824217 
L 367.72069 164.047101 
L 368.713396 166.754548 
L 369.706102 169.965924 
L 370.698808 173.780015 
L 371.691514 178.262736 
L 372.68422 183.495923 
L 373.676926 189.516001 
L 375.662338 204.031684 
L 376.655044 211.733633 
L 377.64775 217.688507 
L 378.640455 219.318924 
L 379.633161 216.035582 
L 383.603985 192.467737 
L 384.596691 188.137613 
L 385.589397 184.592704 
L 386.582103 181.724724 
L 387.574809 179.427117 
L 388.567515 177.612608 
L 389.560221 176.23661 
L 390.552927 175.260237 
L 391.545632 174.599381 
L 392.538338 174.22122 
L 393.531044 174.112633 
L 394.52375 174.186324 
L 395.516456 174.415917 
L 397.501868 175.223053 
L 404.450809 178.166239 
L 407.428927 179.190376 
L 409.414339 180.159183 
L 410.407045 180.828354 
L 411.399751 181.645681 
L 412.392457 182.608732 
L 413.385163 183.798254 
L 414.377869 185.162932 
L 415.370575 186.759081 
L 417.355986 190.624459 
L 419.341398 195.457795 
L 421.32681 201.138124 
L 423.312222 207.680104 
L 428.275752 224.921679 
L 429.268458 227.77086 
L 430.261163 230.024745 
L 431.253869 231.463671 
L 432.246575 232.203126 
L 433.239281 232.021845 
L 434.231987 231.096526 
L 435.224693 229.59822 
L 436.217399 227.549117 
L 438.202811 222.375313 
L 443.166341 208.362156 
L 445.151752 203.574138 
L 447.137164 199.582651 
L 448.12987 197.871626 
L 450.115282 195.155468 
L 451.107988 194.156002 
L 452.100694 193.375346 
L 453.0934 192.83398 
L 454.086106 192.481177 
L 455.078812 192.447605 
L 456.071518 192.586424 
L 457.064223 192.939312 
L 458.056929 193.559048 
L 459.049635 194.371279 
L 460.042341 195.411845 
L 461.035047 196.652356 
L 463.020459 199.88096 
L 464.013165 201.784181 
L 465.998577 206.361445 
L 467.983989 211.997241 
L 468.976695 215.239864 
L 470.962106 222.900798 
L 471.954812 227.384788 
L 472.947518 232.546249 
L 473.940224 238.355068 
L 474.93293 245.162514 
L 475.925636 253.283498 
L 476.918342 263.075604 
L 478.903754 285.41643 
L 479.89646 288.527125 
L 480.889166 280.002347 
L 482.874577 257.479869 
L 483.867283 248.51513 
L 484.859989 241.213521 
L 485.852695 234.923388 
L 486.845401 229.619945 
L 487.838107 225.22016 
L 488.830813 221.471936 
L 489.823519 218.329128 
L 490.816225 215.63297 
L 491.808931 213.351688 
L 492.801637 211.689052 
L 493.794343 210.253476 
L 494.787049 209.22776 
L 495.779754 208.692221 
L 496.77246 208.430967 
L 497.765166 208.470564 
L 498.757872 208.930083 
L 499.750578 209.699861 
L 500.743284 210.892288 
L 501.73599 212.360477 
L 502.728696 214.313479 
L 503.721402 216.51912 
L 505.706814 222.22999 
L 506.69952 225.641645 
L 508.684932 233.664665 
L 511.663049 246.927392 
L 512.655755 250.57399 
L 513.648461 253.122262 
L 514.641167 254.052029 
L 515.633873 253.678502 
L 516.626579 251.925031 
L 517.619285 249.725734 
L 519.604697 244.820656 
L 520.597403 242.664033 
L 522.582814 239.142282 
L 523.57552 237.848583 
L 525.560932 235.994691 
L 527.546344 234.883438 
L 529.531756 234.154934 
L 531.517168 233.576861 
L 534.495286 232.987387 
L 535.487991 232.93908 
L 536.480697 233.03871 
L 537.473403 233.356457 
L 538.466109 233.920919 
L 539.458815 234.792403 
L 540.451521 235.999564 
L 541.444227 237.650791 
L 542.436933 239.800799 
L 543.429639 242.574257 
L 544.422345 246.006228 
L 545.415051 250.354484 
L 546.407757 256.092407 
L 547.400463 262.876093 
L 548.393168 271.542913 
L 550.37858 291.576562 
L 551.371286 294.540662 
L 552.363992 285.959812 
L 554.349404 263.042694 
L 555.34211 253.685993 
L 556.334816 246.139276 
L 557.327522 239.669461 
L 558.320228 234.350761 
L 559.312934 229.871185 
L 560.30564 226.063622 
L 561.298345 222.777624 
L 562.291051 220.095762 
L 563.283757 218.006257 
L 564.276463 216.203066 
L 565.269169 214.871729 
L 566.261875 213.932734 
L 567.254581 213.3493 
L 568.247287 213.147206 
L 569.239993 213.193827 
L 570.232699 213.61296 
L 571.225405 214.412404 
L 572.218111 215.509268 
L 573.210817 216.884512 
L 574.203523 218.61356 
L 576.188934 223.107095 
L 577.18164 225.920141 
L 578.174346 229.096252 
L 580.159758 236.649514 
L 582.14517 246.123822 
L 583.137876 251.492626 
L 585.123288 264.438051 
L 587.1087 280.104866 
L 589.094111 300.253029 
L 591.079523 323.855831 
L 592.072229 332.264134 
L 593.064935 330.620107 
L 594.057641 323.490825 
L 597.035759 298.343403 
L 599.021171 284.96729 
L 601.006582 273.844022 
L 602.991994 264.565956 
L 604.977406 256.916678 
L 605.970112 253.676669 
L 607.955524 248.444173 
L 608.94823 246.356464 
L 610.933642 243.161234 
L 611.926348 242.131522 
L 612.919054 241.432467 
L 614.904465 240.917611 
L 615.897171 241.240076 
L 616.889877 241.786826 
L 617.882583 242.630553 
L 618.875289 243.873872 
L 619.867995 245.404007 
L 620.860701 247.262297 
L 621.853407 249.501327 
L 623.838819 255.007963 
L 624.831525 258.332463 
L 626.816936 266.318473 
L 627.809642 270.979947 
L 628.802348 276.206491 
L 630.78776 288.164999 
L 632.773172 303.48571 
L 633.765878 311.730503 
L 634.758584 321.509667 
L 636.743996 343.873254 
L 637.736702 351.935524 
L 638.729408 356.542216 
L 639.722114 354.816003 
L 640.714819 349.660277 
L 641.707525 342.639775 
L 643.692937 330.784662 
L 645.678349 320.149442 
L 646.671055 315.014667 
L 648.656467 306.382697 
L 649.649173 302.482927 
L 650.641879 299.035643 
L 652.627291 293.440889 
L 653.619996 291.313006 
L 655.605408 288.060558 
L 656.598114 286.972163 
L 657.59082 286.457338 
L 658.583526 286.170787 
L 659.576232 286.41627 
L 661.561644 287.838789 
L 663.547056 290.819372 
L 665.532468 294.801382 
L 668.510585 302.17186 
L 669.503291 303.913754 
L 670.495997 305.13357 
L 671.488703 305.56317 
L 672.481409 305.380002 
L 673.474115 304.176267 
L 674.466821 302.739883 
L 675.459527 301.032941 
L 676.452233 298.993912 
L 678.437645 295.603534 
L 679.43035 294.351076 
L 680.423056 293.499851 
L 681.415762 292.858266 
L 682.408468 292.514624 
L 683.401174 292.564506 
L 684.39388 293.151601 
L 685.386586 293.988028 
L 686.379292 295.176511 
L 687.371998 296.947462 
L 689.35741 301.881503 
L 690.350116 305.07233 
L 692.335527 313.320237 
L 694.320939 324.411611 
L 696.306351 339.26161 
L 698.291763 355.672673 
L 699.284469 359.829745 
L 700.277175 357.312738 
L 701.269881 351.498422 
L 703.255293 337.803473 
L 705.240705 328.253498 
L 707.226116 321.319125 
L 709.211528 317.479546 
L 711.19694 315.524497 
L 713.182352 315.562155 
L 714.175058 316.528648 
L 715.167764 317.767832 
L 716.16047 319.230811 
L 718.145882 324.389851 
L 719.138587 327.913856 
L 722.116705 340.55505 
L 723.109411 343.74955 
L 724.102117 345.835025 
L 725.094823 345.194281 
L 726.087529 341.933427 
L 729.065647 326.543208 
L 730.058353 321.1441 
L 732.043764 312.686753 
L 733.03647 309.359665 
L 734.029176 306.443021 
L 735.021882 304.198585 
L 736.014588 302.285488 
L 738 299.73661 
L 738.992706 299.289942 
L 740.978118 299.626797 
L 741.970824 300.493929 
L 742.96353 301.931911 
L 743.956236 303.893476 
L 744.948941 306.387852 
L 745.941647 309.591894 
L 746.934353 313.442342 
L 747.927059 318.317381 
L 748.919765 324.122474 
L 749.912471 330.939084 
L 752.890589 354.6448 
L 753.883295 355.796587 
L 754.876001 350.617528 
L 756.861413 333.846187 
L 757.854118 326.671827 
L 758.846824 320.677709 
L 759.83953 315.379255 
L 760.832236 311.586233 
L 761.824942 308.247913 
L 762.817648 305.770831 
L 763.810354 303.770392 
L 764.80306 302.246492 
L 765.795766 301.611812 
L 766.788472 301.216575 
L 767.781178 301.482954 
L 768.773884 301.906175 
L 769.76659 303.045609 
L 770.759295 304.446709 
L 772.744707 308.718412 
L 774.730119 314.361683 
L 777.708237 324.237437 
L 778.700943 326.893858 
L 779.693649 328.721679 
L 780.686355 329.444674 
L 781.679061 328.967382 
L 782.671767 328.085777 
L 783.664473 326.373053 
L 785.649884 322.586058 
L 786.64259 321.241414 
L 787.635296 320.128888 
L 788.628002 319.513744 
L 789.620708 319.390075 
L 790.613414 319.754019 
L 791.60612 320.598358 
L 792.598826 322.118265 
L 794.584238 326.701859 
L 795.576944 330.166787 
L 798.555061 342.222018 
L 799.547767 345.107835 
L 800.540473 346.200541 
L 801.533179 344.993628 
L 802.525885 341.196545 
L 806.496709 321.504721 
L 808.482121 314.445403 
L 809.474827 311.769958 
L 810.467532 309.607767 
L 811.460238 307.768885 
L 812.452944 306.570733 
L 813.44565 305.806524 
L 814.438356 305.521955 
L 815.431062 305.891494 
L 816.423768 306.506884 
L 817.416474 307.638712 
L 818.40918 309.451808 
L 819.401886 311.512307 
L 820.394592 314.355825 
L 821.387298 317.645572 
L 822.380004 321.797924 
L 824.365415 332.189351 
L 827.343533 350.824852 
L 828.336239 353.777703 
L 829.328945 353.163006 
L 830.321651 348.581366 
L 833.299769 331.032944 
L 835.285181 322.58975 
L 836.277886 319.513489 
L 837.270592 316.813435 
L 838.263298 314.820628 
L 839.256004 313.380535 
L 840.24871 312.402822 
L 841.241416 311.706038 
L 842.234122 311.705561 
L 843.226828 311.928966 
L 844.219534 312.593311 
L 845.21224 313.7663 
L 846.204946 315.415862 
L 847.197652 317.29612 
L 849.183064 322.360521 
L 850.175769 325.454158 
L 852.161181 332.652571 
L 855.139299 343.756484 
L 856.132005 346.73465 
L 857.124711 348.76383 
L 859.110123 349.697187 
L 860.102829 348.975571 
L 862.088241 345.450973 
L 865.066358 341.449501 
L 866.059064 340.837315 
L 867.05177 340.040223 
L 869.037182 339.525974 
L 870.029888 339.045085 
L 871.022594 339.044329 
L 872.0153 338.768205 
L 873.008006 338.144478 
L 874.000712 337.30877 
L 875.986123 334.865027 
L 880.949653 327.118965 
L 882.935065 324.89675 
L 883.927771 324.063707 
L 884.920477 323.773023 
L 885.913183 323.683029 
L 886.905889 323.874452 
L 887.898595 324.706882 
L 888.8913 325.95264 
L 889.884006 327.688424 
L 890.876712 330.347207 
L 891.869418 333.423511 
L 892.862124 337.647763 
L 893.85483 342.473806 
L 894.847536 348.745744 
L 895.840242 357.027252 
L 896.832948 368.334727 
L 897.825654 383.967634 
L 898.81836 406.855613 
L 899.811066 416.863568 
L 901.796477 374.230567 
L 902.789183 360.471167 
L 903.781889 349.972166 
L 904.774595 341.708702 
L 905.767301 335.254339 
L 906.760007 330.104092 
L 907.752713 325.854145 
L 908.745419 322.391707 
L 909.738125 319.558804 
L 910.730831 317.406592 
L 911.723537 315.701774 
L 912.716243 314.373096 
L 913.708949 313.629486 
L 915.69436 313.914576 
L 916.687066 314.600923 
L 917.679772 315.718979 
L 918.672478 317.416672 
L 919.665184 319.559953 
L 920.65789 322.447359 
L 921.650596 326.230259 
L 922.643302 330.566923 
L 923.636008 336.175939 
L 924.628714 342.836057 
L 925.62142 351.13582 
L 926.614126 362.705442 
L 927.606832 376.80603 
L 928.599537 401.503975 
L 929.592243 436.600049 
L 930.584949 406.49875 
L 931.577655 382.046005 
L 932.570361 365.794419 
L 933.563067 355.022904 
L 934.555773 346.976007 
L 935.548479 340.684676 
L 936.541185 335.569237 
L 937.533891 331.639869 
L 939.519303 326.040421 
L 940.512009 324.565774 
L 941.504714 323.586329 
L 942.49742 322.880225 
L 943.490126 322.897284 
L 944.482832 323.327421 
L 945.475538 324.284931 
L 946.468244 325.472653 
L 947.46095 327.47939 
L 948.453656 329.894978 
L 949.446362 333.064853 
L 950.439068 336.997745 
L 951.431774 341.384933 
L 952.42448 346.741267 
L 953.417186 352.950733 
L 954.409891 360.843975 
L 955.402597 370.511883 
L 957.388009 395.841462 
L 958.380715 405.701917 
L 959.373421 402.003601 
L 960.366127 392.49107 
L 961.358833 380.113328 
L 962.351539 372.442937 
L 963.344245 365.731536 
L 964.336951 360.506364 
L 965.329657 355.87894 
L 966.322363 353.140259 
L 967.315068 350.898526 
L 968.307774 349.317803 
L 969.30048 348.118592 
L 970.293186 347.650621 
L 971.285892 347.751844 
L 972.278598 347.716965 
L 973.271304 348.666086 
L 974.26401 349.168606 
L 977.242128 352.804876 
L 978.234834 353.650842 
L 979.22754 354.67809 
L 980.220246 355.019538 
L 981.212951 354.722164 
L 986.176481 351.96667 
L 987.169187 351.209007 
L 989.154599 351.472949 
L 990.147305 351.909586 
L 991.140011 352.702561 
L 992.132717 354.372049 
L 993.125423 356.824159 
L 994.118128 359.62287 
L 995.110834 363.021127 
L 996.10354 367.251588 
L 998.088952 379.781052 
L 999.081658 388.809665 
L 1000.074364 398.948588 
L 1001.06707 410.650319 
L 1002.059776 415.751029 
L 1003.052482 407.744861 
L 1006.0306 375.396154 
L 1007.023305 367.884368 
L 1008.016011 362.173305 
L 1009.008717 357.308983 
L 1010.994129 349.883726 
L 1012.979541 345.541097 
L 1013.972247 344.098281 
L 1014.964953 343.084196 
L 1015.957659 342.752684 
L 1016.950365 343.019683 
L 1017.943071 343.716215 
L 1018.935777 345.008714 
L 1019.928482 346.505173 
L 1021.913894 351.642503 
L 1022.9066 354.989618 
L 1023.899306 359.5665 
L 1025.884718 370.662153 
L 1026.877424 379.118418 
L 1027.87013 390.265432 
L 1028.862836 405.018058 
L 1029.855542 431.019335 
L 1030.848248 492.48 
L 1031.840954 447.103446 
L 1032.833659 417.784777 
L 1033.826365 399.792825 
L 1034.819071 388.400088 
L 1035.811777 380.263933 
L 1036.804483 373.86047 
L 1037.797189 368.975271 
L 1038.789895 365.438574 
L 1039.782601 362.648585 
L 1040.775307 360.345785 
L 1041.768013 359.201243 
L 1043.753425 357.948036 
L 1044.746131 358.651818 
L 1047.724248 362.467202 
L 1048.716954 365.67702 
L 1049.70966 367.876334 
L 1051.695072 374.704089 
L 1052.687778 378.675136 
L 1053.680484 383.619218 
L 1055.665896 391.379352 
L 1056.658602 392.941937 
L 1057.651308 391.919126 
L 1058.644014 391.913018 
L 1059.636719 390.401734 
L 1060.629425 387.64945 
L 1061.622131 385.254761 
L 1062.614837 384.078985 
L 1063.607543 382.653547 
L 1064.600249 382.502913 
L 1066.585661 382.712679 
L 1067.578367 384.088103 
L 1068.571073 386.299366 
L 1069.563779 389.638442 
L 1070.556485 395.236739 
L 1071.549191 401.807196 
L 1072.541896 410.246566 
L 1073.534602 422.444993 
L 1074.527308 438.40766 
L 1075.520014 446.501448 
L 1076.51272 434.832094 
L 1077.505426 421.241419 
L 1078.498132 406.006931 
L 1079.490838 394.997688 
L 1081.47625 379.681618 
L 1082.468956 374.508791 
L 1084.454368 365.887114 
L 1085.447073 363.112775 
L 1086.439779 360.708703 
L 1087.432485 358.654522 
L 1088.425191 357.439097 
L 1089.417897 356.586916 
L 1090.410603 356.186211 
L 1091.403309 356.096246 
L 1092.396015 356.850572 
L 1093.388721 358.080902 
L 1094.381427 358.900818 
L 1095.374133 361.016854 
L 1098.35225 370.092397 
L 1099.344956 374.003697 
L 1102.323074 387.243226 
L 1103.31578 388.918976 
L 1104.308486 389.621057 
L 1105.301192 388.449235 
L 1108.27931 375.151654 
L 1111.257428 364.052298 
L 1112.250133 361.360061 
L 1114.235545 357.150569 
L 1115.228251 355.950158 
L 1117.213663 354.693361 
L 1118.206369 354.295784 
L 1119.199075 355.18807 
L 1120.191781 355.866363 
L 1122.177193 358.176018 
L 1124.162605 362.401252 
L 1126.148016 369.117885 
L 1128.133428 377.107671 
L 1129.126134 381.517741 
L 1130.11884 386.653754 
L 1131.111546 391.017958 
L 1132.104252 395.917201 
L 1133.096958 398.499118 
L 1134.089664 400.223246 
L 1135.08237 398.759108 
L 1136.075076 397.694248 
L 1137.067782 393.690099 
L 1138.060487 391.112599 
L 1139.053193 387.691089 
L 1140.045899 385.216177 
L 1141.038605 383.274182 
L 1142.031311 381.680168 
L 1143.024017 380.982009 
L 1144.016723 379.40317 
L 1145.009429 379.705745 
L 1146.002135 380.519256 
L 1146.994841 380.911278 
L 1147.987547 382.085248 
L 1149.972959 386.344078 
L 1150.965664 388.035308 
L 1151.95837 392.388989 
L 1152.951076 395.642495 
L 1153.943782 399.41759 
L 1156.9219 414.276937 
L 1157.914606 418.470281 
L 1158.907312 423.982542 
L 1159.900018 426.661134 
L 1160.892724 426.765527 
L 1161.88543 427.819401 
L 1162.878136 427.49096 
L 1163.870841 426.873873 
L 1164.863547 426.603742 
L 1165.856253 426.499342 
L 1166.848959 429.273287 
L 1167.841665 431.031553 
L 1168.834371 430.207939 
L 1169.827077 436.568729 
L 1171.812489 444.757472 
L 1172.805195 451.964758 
L 1173.797901 448.680792 
L 1174.790607 443.171102 
L 1175.783313 436.210747 
L 1176.776019 428.431677 
L 1177.768724 419.410151 
L 1178.76143 414.603645 
L 1179.754136 407.456439 
L 1180.746842 402.11518 
L 1182.732254 394.611792 
L 1183.72496 390.942135 
L 1185.710372 384.984868 
L 1187.695784 381.639779 
L 1188.68849 380.714018 
L 1189.681196 379.530511 
L 1190.673901 379.521295 
L 1191.666607 379.082342 
L 1192.659313 379.218193 
L 1193.652019 379.579698 
L 1195.637431 381.140963 
L 1196.630137 381.22088 
L 1197.622843 383.139683 
L 1198.615549 384.757671 
L 1199.608255 386.133476 
L 1200.600961 387.261379 
L 1202.586373 389.205194 
L 1203.579078 390.235496 
L 1204.571784 390.973256 
L 1205.56449 390.327489 
L 1207.549902 389.392251 
L 1210.52802 385.946693 
L 1212.513432 384.451559 
L 1213.506138 383.485654 
L 1214.498844 383.30743 
L 1215.49155 383.539344 
L 1216.484255 383.0316 
L 1217.476961 383.655575 
L 1218.469667 384.128353 
L 1219.462373 385.390537 
L 1220.455079 385.819196 
L 1221.447785 387.131127 
L 1222.440491 387.490174 
L 1223.433197 390.027834 
L 1224.425903 390.940871 
L 1225.418609 395.040075 
L 1226.411315 397.480815 
L 1227.404021 399.273876 
L 1229.389432 405.384297 
L 1230.382138 409.218223 
L 1233.360256 417.797329 
L 1234.352962 421.88188 
L 1235.345668 422.554581 
L 1236.338374 425.317747 
L 1237.33108 427.235525 
L 1238.323786 424.82007 
L 1239.316492 425.988718 
L 1240.309198 425.476735 
L 1241.301904 425.488919 
L 1242.29461 425.134466 
L 1243.287315 422.240728 
L 1244.280021 423.778322 
L 1245.272727 424.606423 
L 1245.272727 424.606423 
" clip-path="url(#p783b7d2687)" style="fill: none; stroke: #1f77b4; stroke-width: 1.5; stroke-linecap: square"/>
   </g>
   <g id="patch_3">
    <path d="M 180 512.64 
L 180 69.12 
" style="fill: none; stroke: #000000; stroke-width: 0.8; stroke-linejoin: miter; stroke-linecap: square"/>
   </g>
   <g id="patch_4">
    <path d="M 1296 512.64 
L 1296 69.12 
" style="fill: none; stroke: #000000; stroke-width: 0.8; stroke-linejoin: miter; stroke-linecap: square"/>
   </g>
   <g id="patch_5">
    <path d="M 180 512.64 
L 1296 512.64 
" style="fill: none; stroke: #000000; stroke-width: 0.8; stroke-linejoin: miter; stroke-linecap: square"/>
   </g>
   <g id="patch_6">
    <path d="M 180 69.12 
L 1296 69.12 
" style="fill: none; stroke: #000000; stroke-width: 0.8; stroke-linejoin: miter; stroke-linecap: square"/>
   </g>
   <g id="text_13">
    <!-- source15-receiver15 -->
    <g transform="translate(532.175 60.80125) scale(0.4 -0.4)">
     <defs>
      <path id="DejaVuSans-73" d="M 2834 3397 
L 2834 2853 
Q 2591 2978 2328 3040 
Q 2066 3103 1784 3103 
Q 1356 3103 1142 2972 
Q 928 2841 928 2578 
Q 928 2378 1081 2264 
Q 1234 2150 1697 2047 
L 1894 2003 
Q 2506 1872 2764 1633 
Q 3022 1394 3022 966 
Q 3022 478 2636 193 
Q 2250 -91 1575 -91 
Q 1294 -91 989 -36 
Q 684 19 347 128 
L 347 722 
Q 666 556 975 473 
Q 1284 391 1588 391 
Q 1994 391 2212 530 
Q 2431 669 2431 922 
Q 2431 1156 2273 1281 
Q 2116 1406 1581 1522 
L 1381 1569 
Q 847 1681 609 1914 
Q 372 2147 372 2553 
Q 372 3047 722 3315 
Q 1072 3584 1716 3584 
Q 2034 3584 2315 3537 
Q 2597 3491 2834 3397 
z
" transform="scale(0.015625)"/>
      <path id="DejaVuSans-6f" d="M 1959 3097 
Q 1497 3097 1228 2736 
Q 959 2375 959 1747 
Q 959 1119 1226 758 
Q 1494 397 1959 397 
Q 2419 397 2687 759 
Q 2956 1122 2956 1747 
Q 2956 2369 2687 2733 
Q 2419 3097 1959 3097 
z
M 1959 3584 
Q 2709 3584 3137 3096 
Q 3566 2609 3566 1747 
Q 3566 888 3137 398 
Q 2709 -91 1959 -91 
Q 1206 -91 779 398 
Q 353 888 353 1747 
Q 353 2609 779 3096 
Q 1206 3584 1959 3584 
z
" transform="scale(0.015625)"/>
      <path id="DejaVuSans-75" d="M 544 1381 
L 544 3500 
L 1119 3500 
L 1119 1403 
Q 1119 906 1312 657 
Q 1506 409 1894 409 
Q 2359 409 2629 706 
Q 2900 1003 2900 1516 
L 2900 3500 
L 3475 3500 
L 3475 0 
L 2900 0 
L 2900 538 
Q 2691 219 2414 64 
Q 2138 -91 1772 -91 
Q 1169 -91 856 284 
Q 544 659 544 1381 
z
M 1991 3584 
L 1991 3584 
z
" transform="scale(0.015625)"/>
      <path id="DejaVuSans-72" d="M 2631 2963 
Q 2534 3019 2420 3045 
Q 2306 3072 2169 3072 
Q 1681 3072 1420 2755 
Q 1159 2438 1159 1844 
L 1159 0 
L 581 0 
L 581 3500 
L 1159 3500 
L 1159 2956 
Q 1341 3275 1631 3429 
Q 1922 3584 2338 3584 
Q 2397 3584 2469 3576 
Q 2541 3569 2628 3553 
L 2631 2963 
z
" transform="scale(0.015625)"/>
      <path id="DejaVuSans-63" d="M 3122 3366 
L 3122 2828 
Q 2878 2963 2633 3030 
Q 2388 3097 2138 3097 
Q 1578 3097 1268 2742 
Q 959 2388 959 1747 
Q 959 1106 1268 751 
Q 1578 397 2138 397 
Q 2388 397 2633 464 
Q 2878 531 3122 666 
L 3122 134 
Q 2881 22 2623 -34 
Q 2366 -91 2075 -91 
Q 1284 -91 818 406 
Q 353 903 353 1747 
Q 353 2603 823 3093 
Q 1294 3584 2113 3584 
Q 2378 3584 2631 3529 
Q 2884 3475 3122 3366 
z
" transform="scale(0.015625)"/>
      <path id="DejaVuSans-65" d="M 3597 1894 
L 3597 1613 
L 953 1613 
Q 991 1019 1311 708 
Q 1631 397 2203 397 
Q 2534 397 2845 478 
Q 3156 559 3463 722 
L 3463 178 
Q 3153 47 2828 -22 
Q 2503 -91 2169 -91 
Q 1331 -91 842 396 
Q 353 884 353 1716 
Q 353 2575 817 3079 
Q 1281 3584 2069 3584 
Q 2775 3584 3186 3129 
Q 3597 2675 3597 1894 
z
M 3022 2063 
Q 3016 2534 2758 2815 
Q 2500 3097 2075 3097 
Q 1594 3097 1305 2825 
Q 1016 2553 972 2059 
L 3022 2063 
z
" transform="scale(0.015625)"/>
      <path id="DejaVuSans-2d" d="M 313 2009 
L 1997 2009 
L 1997 1497 
L 313 1497 
L 313 2009 
z
" transform="scale(0.015625)"/>
      <path id="DejaVuSans-69" d="M 603 3500 
L 1178 3500 
L 1178 0 
L 603 0 
L 603 3500 
z
M 603 4863 
L 1178 4863 
L 1178 4134 
L 603 4134 
L 603 4863 
z
" transform="scale(0.015625)"/>
      <path id="DejaVuSans-76" d="M 191 3500 
L 800 3500 
L 1894 563 
L 2988 3500 
L 3597 3500 
L 2284 0 
L 1503 0 
L 191 3500 
z
" transform="scale(0.015625)"/>
     </defs>
     <use xlink:href="#DejaVuSans-73"/>
     <use xlink:href="#DejaVuSans-6f" x="52.099609"/>
     <use xlink:href="#DejaVuSans-75" x="113.28125"/>
     <use xlink:href="#DejaVuSans-72" x="176.660156"/>
     <use xlink:href="#DejaVuSans-63" x="215.523438"/>
     <use xlink:href="#DejaVuSans-65" x="270.503906"/>
     <use xlink:href="#DejaVuSans-31" x="332.027344"/>
     <use xlink:href="#DejaVuSans-35" x="395.650391"/>
     <use xlink:href="#DejaVuSans-2d" x="459.273438"/>
     <use xlink:href="#DejaVuSans-72" x="495.357422"/>
     <use xlink:href="#DejaVuSans-65" x="534.220703"/>
     <use xlink:href="#DejaVuSans-63" x="595.744141"/>
     <use xlink:href="#DejaVuSans-65" x="650.724609"/>
     <use xlink:href="#DejaVuSans-69" x="712.248047"/>
     <use xlink:href="#DejaVuSans-76" x="740.03125"/>
     <use xlink:href="#DejaVuSans-65" x="799.210938"/>
     <use xlink:href="#DejaVuSans-72" x="860.734375"/>
     <use xlink:href="#DejaVuSans-31" x="901.847656"/>
     <use xlink:href="#DejaVuSans-35" x="965.470703"/>
    </g>
   </g>
  </g>
 </g>
 <defs>
  <clipPath id="p783b7d2687">
   <rect x="180" y="69.12" width="1116" height="443.52"/>
  </clipPath>
 </defs>
</svg>
