<?xml version="1.0" encoding="utf-8" standalone="no"?>
<!DOCTYPE svg PUBLIC "-//W3C//DTD SVG 1.1//EN"
  "http://www.w3.org/Graphics/SVG/1.1/DTD/svg11.dtd">
<svg xmlns:xlink="http://www.w3.org/1999/xlink" width="1440pt" height="576pt" viewBox="0 0 1440 576" xmlns="http://www.w3.org/2000/svg" version="1.1">
 <metadata>
  <rdf:RDF xmlns:dc="http://purl.org/dc/elements/1.1/" xmlns:cc="http://creativecommons.org/ns#" xmlns:rdf="http://www.w3.org/1999/02/22-rdf-syntax-ns#">
   <cc:Work>
    <dc:type rdf:resource="http://purl.org/dc/dcmitype/StillImage"/>
    <dc:date>2024-05-22T04:50:08.556475</dc:date>
    <dc:format>image/svg+xml</dc:format>
    <dc:creator>
     <cc:Agent>
      <dc:title>Matplotlib v3.8.3, https://matplotlib.org/</dc:title>
     </cc:Agent>
    </dc:creator>
   </cc:Work>
  </rdf:RDF>
 </metadata>
 <defs>
  <style type="text/css">*{stroke-linejoin: round; stroke-linecap: butt}</style>
 </defs>
 <g id="figure_1">
  <g id="patch_1">
   <path d="M 0 576 
L 1440 576 
L 1440 0 
L 0 0 
z
" style="fill: #ffffff"/>
  </g>
  <g id="axes_1">
   <g id="patch_2">
    <path d="M 180 512.64 
L 1296 512.64 
L 1296 69.12 
L 180 69.12 
z
" style="fill: #ffffff"/>
   </g>
   <g id="matplotlib.axis_1">
    <g id="xtick_1">
     <g id="line2d_1">
      <defs>
       <path id="m2c86ef12a3" d="M 0 0 
L 0 3.5 
" style="stroke: #000000; stroke-width: 0.8"/>
      </defs>
      <g>
       <use xlink:href="#m2c86ef12a3" x="229.734567" y="512.64" style="stroke: #000000; stroke-width: 0.8"/>
      </g>
     </g>
     <g id="text_1">
      <!-- 0 -->
      <g transform="translate(226.553317 527.238438) scale(0.1 -0.1)">
       <defs>
        <path id="DejaVuSans-30" d="M 2034 4250 
Q 1547 4250 1301 3770 
Q 1056 3291 1056 2328 
Q 1056 1369 1301 889 
Q 1547 409 2034 409 
Q 2525 409 2770 889 
Q 3016 1369 3016 2328 
Q 3016 3291 2770 3770 
Q 2525 4250 2034 4250 
z
M 2034 4750 
Q 2819 4750 3233 4129 
Q 3647 3509 3647 2328 
Q 3647 1150 3233 529 
Q 2819 -91 2034 -91 
Q 1250 -91 836 529 
Q 422 1150 422 2328 
Q 422 3509 836 4129 
Q 1250 4750 2034 4750 
z
" transform="scale(0.015625)"/>
       </defs>
       <use xlink:href="#DejaVuSans-30"/>
      </g>
     </g>
    </g>
    <g id="xtick_2">
     <g id="line2d_2">
      <g>
       <use xlink:href="#m2c86ef12a3" x="433.04074" y="512.64" style="stroke: #000000; stroke-width: 0.8"/>
      </g>
     </g>
     <g id="text_2">
      <!-- 500 -->
      <g transform="translate(423.49699 527.238438) scale(0.1 -0.1)">
       <defs>
        <path id="DejaVuSans-35" d="M 691 4666 
L 3169 4666 
L 3169 4134 
L 1269 4134 
L 1269 2991 
Q 1406 3038 1543 3061 
Q 1681 3084 1819 3084 
Q 2600 3084 3056 2656 
Q 3513 2228 3513 1497 
Q 3513 744 3044 326 
Q 2575 -91 1722 -91 
Q 1428 -91 1123 -41 
Q 819 9 494 109 
L 494 744 
Q 775 591 1075 516 
Q 1375 441 1709 441 
Q 2250 441 2565 725 
Q 2881 1009 2881 1497 
Q 2881 1984 2565 2268 
Q 2250 2553 1709 2553 
Q 1456 2553 1204 2497 
Q 953 2441 691 2322 
L 691 4666 
z
" transform="scale(0.015625)"/>
       </defs>
       <use xlink:href="#DejaVuSans-35"/>
       <use xlink:href="#DejaVuSans-30" x="63.623047"/>
       <use xlink:href="#DejaVuSans-30" x="127.246094"/>
      </g>
     </g>
    </g>
    <g id="xtick_3">
     <g id="line2d_3">
      <g>
       <use xlink:href="#m2c86ef12a3" x="636.346913" y="512.64" style="stroke: #000000; stroke-width: 0.8"/>
      </g>
     </g>
     <g id="text_3">
      <!-- 1000 -->
      <g transform="translate(623.621913 527.238438) scale(0.1 -0.1)">
       <defs>
        <path id="DejaVuSans-31" d="M 794 531 
L 1825 531 
L 1825 4091 
L 703 3866 
L 703 4441 
L 1819 4666 
L 2450 4666 
L 2450 531 
L 3481 531 
L 3481 0 
L 794 0 
L 794 531 
z
" transform="scale(0.015625)"/>
       </defs>
       <use xlink:href="#DejaVuSans-31"/>
       <use xlink:href="#DejaVuSans-30" x="63.623047"/>
       <use xlink:href="#DejaVuSans-30" x="127.246094"/>
       <use xlink:href="#DejaVuSans-30" x="190.869141"/>
      </g>
     </g>
    </g>
    <g id="xtick_4">
     <g id="line2d_4">
      <g>
       <use xlink:href="#m2c86ef12a3" x="839.653087" y="512.64" style="stroke: #000000; stroke-width: 0.8"/>
      </g>
     </g>
     <g id="text_4">
      <!-- 1500 -->
      <g transform="translate(826.928087 527.238438) scale(0.1 -0.1)">
       <use xlink:href="#DejaVuSans-31"/>
       <use xlink:href="#DejaVuSans-35" x="63.623047"/>
       <use xlink:href="#DejaVuSans-30" x="127.246094"/>
       <use xlink:href="#DejaVuSans-30" x="190.869141"/>
      </g>
     </g>
    </g>
    <g id="xtick_5">
     <g id="line2d_5">
      <g>
       <use xlink:href="#m2c86ef12a3" x="1042.95926" y="512.64" style="stroke: #000000; stroke-width: 0.8"/>
      </g>
     </g>
     <g id="text_5">
      <!-- 2000 -->
      <g transform="translate(1030.23426 527.238438) scale(0.1 -0.1)">
       <defs>
        <path id="DejaVuSans-32" d="M 1228 531 
L 3431 531 
L 3431 0 
L 469 0 
L 469 531 
Q 828 903 1448 1529 
Q 2069 2156 2228 2338 
Q 2531 2678 2651 2914 
Q 2772 3150 2772 3378 
Q 2772 3750 2511 3984 
Q 2250 4219 1831 4219 
Q 1534 4219 1204 4116 
Q 875 4013 500 3803 
L 500 4441 
Q 881 4594 1212 4672 
Q 1544 4750 1819 4750 
Q 2544 4750 2975 4387 
Q 3406 4025 3406 3419 
Q 3406 3131 3298 2873 
Q 3191 2616 2906 2266 
Q 2828 2175 2409 1742 
Q 1991 1309 1228 531 
z
" transform="scale(0.015625)"/>
       </defs>
       <use xlink:href="#DejaVuSans-32"/>
       <use xlink:href="#DejaVuSans-30" x="63.623047"/>
       <use xlink:href="#DejaVuSans-30" x="127.246094"/>
       <use xlink:href="#DejaVuSans-30" x="190.869141"/>
      </g>
     </g>
    </g>
    <g id="xtick_6">
     <g id="line2d_6">
      <g>
       <use xlink:href="#m2c86ef12a3" x="1246.265433" y="512.64" style="stroke: #000000; stroke-width: 0.8"/>
      </g>
     </g>
     <g id="text_6">
      <!-- 2500 -->
      <g transform="translate(1233.540433 527.238438) scale(0.1 -0.1)">
       <use xlink:href="#DejaVuSans-32"/>
       <use xlink:href="#DejaVuSans-35" x="63.623047"/>
       <use xlink:href="#DejaVuSans-30" x="127.246094"/>
       <use xlink:href="#DejaVuSans-30" x="190.869141"/>
      </g>
     </g>
    </g>
   </g>
   <g id="matplotlib.axis_2">
    <g id="ytick_1">
     <g id="line2d_7">
      <defs>
       <path id="m12f3a1cb00" d="M 0 0 
L -3.5 0 
" style="stroke: #000000; stroke-width: 0.8"/>
      </defs>
      <g>
       <use xlink:href="#m12f3a1cb00" x="180" y="505.108018" style="stroke: #000000; stroke-width: 0.8"/>
      </g>
     </g>
     <g id="text_7">
      <!-- −5 -->
      <g transform="translate(158.257812 508.907237) scale(0.1 -0.1)">
       <defs>
        <path id="DejaVuSans-2212" d="M 678 2272 
L 4684 2272 
L 4684 1741 
L 678 1741 
L 678 2272 
z
" transform="scale(0.015625)"/>
       </defs>
       <use xlink:href="#DejaVuSans-2212"/>
       <use xlink:href="#DejaVuSans-35" x="83.789062"/>
      </g>
     </g>
    </g>
    <g id="ytick_2">
     <g id="line2d_8">
      <g>
       <use xlink:href="#m12f3a1cb00" x="180" y="454.895609" style="stroke: #000000; stroke-width: 0.8"/>
      </g>
     </g>
     <g id="text_8">
      <!-- −4 -->
      <g transform="translate(158.257812 458.694828) scale(0.1 -0.1)">
       <defs>
        <path id="DejaVuSans-34" d="M 2419 4116 
L 825 1625 
L 2419 1625 
L 2419 4116 
z
M 2253 4666 
L 3047 4666 
L 3047 1625 
L 3713 1625 
L 3713 1100 
L 3047 1100 
L 3047 0 
L 2419 0 
L 2419 1100 
L 313 1100 
L 313 1709 
L 2253 4666 
z
" transform="scale(0.015625)"/>
       </defs>
       <use xlink:href="#DejaVuSans-2212"/>
       <use xlink:href="#DejaVuSans-34" x="83.789062"/>
      </g>
     </g>
    </g>
    <g id="ytick_3">
     <g id="line2d_9">
      <g>
       <use xlink:href="#m12f3a1cb00" x="180" y="404.6832" style="stroke: #000000; stroke-width: 0.8"/>
      </g>
     </g>
     <g id="text_9">
      <!-- −3 -->
      <g transform="translate(158.257812 408.482418) scale(0.1 -0.1)">
       <defs>
        <path id="DejaVuSans-33" d="M 2597 2516 
Q 3050 2419 3304 2112 
Q 3559 1806 3559 1356 
Q 3559 666 3084 287 
Q 2609 -91 1734 -91 
Q 1441 -91 1130 -33 
Q 819 25 488 141 
L 488 750 
Q 750 597 1062 519 
Q 1375 441 1716 441 
Q 2309 441 2620 675 
Q 2931 909 2931 1356 
Q 2931 1769 2642 2001 
Q 2353 2234 1838 2234 
L 1294 2234 
L 1294 2753 
L 1863 2753 
Q 2328 2753 2575 2939 
Q 2822 3125 2822 3475 
Q 2822 3834 2567 4026 
Q 2313 4219 1838 4219 
Q 1578 4219 1281 4162 
Q 984 4106 628 3988 
L 628 4550 
Q 988 4650 1302 4700 
Q 1616 4750 1894 4750 
Q 2613 4750 3031 4423 
Q 3450 4097 3450 3541 
Q 3450 3153 3228 2886 
Q 3006 2619 2597 2516 
z
" transform="scale(0.015625)"/>
       </defs>
       <use xlink:href="#DejaVuSans-2212"/>
       <use xlink:href="#DejaVuSans-33" x="83.789062"/>
      </g>
     </g>
    </g>
    <g id="ytick_4">
     <g id="line2d_10">
      <g>
       <use xlink:href="#m12f3a1cb00" x="180" y="354.47079" style="stroke: #000000; stroke-width: 0.8"/>
      </g>
     </g>
     <g id="text_10">
      <!-- −2 -->
      <g transform="translate(158.257812 358.270009) scale(0.1 -0.1)">
       <use xlink:href="#DejaVuSans-2212"/>
       <use xlink:href="#DejaVuSans-32" x="83.789062"/>
      </g>
     </g>
    </g>
    <g id="ytick_5">
     <g id="line2d_11">
      <g>
       <use xlink:href="#m12f3a1cb00" x="180" y="304.258381" style="stroke: #000000; stroke-width: 0.8"/>
      </g>
     </g>
     <g id="text_11">
      <!-- −1 -->
      <g transform="translate(158.257812 308.0576) scale(0.1 -0.1)">
       <use xlink:href="#DejaVuSans-2212"/>
       <use xlink:href="#DejaVuSans-31" x="83.789062"/>
      </g>
     </g>
    </g>
    <g id="ytick_6">
     <g id="line2d_12">
      <g>
       <use xlink:href="#m12f3a1cb00" x="180" y="254.045971" style="stroke: #000000; stroke-width: 0.8"/>
      </g>
     </g>
     <g id="text_12">
      <!-- 0 -->
      <g transform="translate(166.6375 257.84519) scale(0.1 -0.1)">
       <use xlink:href="#DejaVuSans-30"/>
      </g>
     </g>
    </g>
    <g id="ytick_7">
     <g id="line2d_13">
      <g>
       <use xlink:href="#m12f3a1cb00" x="180" y="203.833562" style="stroke: #000000; stroke-width: 0.8"/>
      </g>
     </g>
     <g id="text_13">
      <!-- 1 -->
      <g transform="translate(166.6375 207.632781) scale(0.1 -0.1)">
       <use xlink:href="#DejaVuSans-31"/>
      </g>
     </g>
    </g>
    <g id="ytick_8">
     <g id="line2d_14">
      <g>
       <use xlink:href="#m12f3a1cb00" x="180" y="153.621153" style="stroke: #000000; stroke-width: 0.8"/>
      </g>
     </g>
     <g id="text_14">
      <!-- 2 -->
      <g transform="translate(166.6375 157.420371) scale(0.1 -0.1)">
       <use xlink:href="#DejaVuSans-32"/>
      </g>
     </g>
    </g>
    <g id="ytick_9">
     <g id="line2d_15">
      <g>
       <use xlink:href="#m12f3a1cb00" x="180" y="103.408743" style="stroke: #000000; stroke-width: 0.8"/>
      </g>
     </g>
     <g id="text_15">
      <!-- 3 -->
      <g transform="translate(166.6375 107.207962) scale(0.1 -0.1)">
       <use xlink:href="#DejaVuSans-33"/>
      </g>
     </g>
    </g>
   </g>
   <g id="line2d_16">
    <path d="M 230.727273 295.461651 
L 231.719979 294.907154 
L 232.712685 294.586721 
L 233.70539 294.4411 
L 234.698096 293.73509 
L 236.683508 291.601674 
L 237.676214 290.338661 
L 239.661626 286.78702 
L 241.647038 282.245548 
L 243.63245 275.743084 
L 244.625156 271.228611 
L 245.617862 267.809992 
L 246.610568 270.699296 
L 247.603273 263.885481 
L 248.595979 220.280075 
L 249.588685 183.562878 
L 250.581391 159.301551 
L 251.574097 145.200992 
L 252.566803 142.177608 
L 253.559509 152.923404 
L 254.552215 186.937538 
L 255.544921 194.238767 
L 256.537627 155.194743 
L 257.530333 145.243561 
L 258.523039 152.529515 
L 259.515745 175.375714 
L 260.50845 183.403808 
L 261.501156 178.736862 
L 262.493862 195.471471 
L 263.486568 204.747105 
L 264.479274 167.075163 
L 265.47198 148.458694 
L 266.464686 139.439911 
L 267.457392 134.833362 
L 268.450098 135.088649 
L 269.442804 141.778033 
L 270.43551 153.403974 
L 271.428216 169.67561 
L 272.420922 195.165141 
L 273.413627 184.143839 
L 274.406333 158.618905 
L 275.399039 151.650563 
L 276.391745 158.846189 
L 277.384451 160.729484 
L 278.377157 146.331783 
L 279.369863 136.94194 
L 280.362569 137.657815 
L 281.355275 146.968815 
L 282.347981 162.222614 
L 283.340687 151.084791 
L 284.333393 119.025679 
L 285.326099 98.384149 
L 286.318804 89.28 
L 287.31151 90.263259 
L 288.304216 102.807189 
L 289.296922 124.296828 
L 290.289628 143.357584 
L 291.282334 149.849053 
L 292.27504 161.449018 
L 294.260452 209.5959 
L 295.253158 242.641614 
L 296.245864 247.623427 
L 297.23857 228.298993 
L 298.231276 250.956981 
L 299.223981 334.515965 
L 300.216687 246.670553 
L 301.209393 255.9607 
L 302.202099 334.227828 
L 303.194805 265.037952 
L 304.187511 260.311535 
L 305.180217 314.126612 
L 306.172923 278.14498 
L 307.165629 268.958805 
L 308.158335 291.66147 
L 309.151041 304.786887 
L 310.143747 287.376991 
L 311.136453 298.379417 
L 312.129159 301.141285 
L 313.121864 291.362102 
L 314.11457 299.034731 
L 315.107276 305.193822 
L 316.099982 300.460389 
L 317.092688 300.140959 
L 318.085394 301.100805 
L 319.0781 304.207273 
L 320.070806 313.088573 
L 321.063512 312.01691 
L 322.056218 313.463098 
L 323.048924 312.255293 
L 324.04163 315.237811 
L 325.034336 321.043173 
L 326.027041 320.380851 
L 327.019747 320.792818 
L 328.012453 321.944643 
L 329.005159 317.632024 
L 329.997865 319.961851 
L 330.990571 313.986055 
L 331.983277 328.646902 
L 332.975983 332.149643 
L 333.968689 332.040303 
L 334.961395 327.375553 
L 335.954101 323.306985 
L 336.946807 337.340059 
L 337.939513 343.341026 
L 338.932218 315.457199 
L 339.924924 331.366821 
L 340.91763 338.861963 
L 341.910336 335.227595 
L 342.903042 329.667233 
L 343.895748 334.991599 
L 344.888454 329.679092 
L 345.88116 330.505962 
L 346.873866 340.230677 
L 347.866572 339.589338 
L 348.859278 344.381167 
L 349.851984 331.458832 
L 350.84469 337.713018 
L 351.837395 343.115285 
L 353.822807 332.177 
L 354.815513 349.245838 
L 355.808219 338.32115 
L 356.800925 358.189776 
L 357.793631 345.357975 
L 358.786337 348.939754 
L 359.779043 364.151713 
L 360.771749 339.286581 
L 361.764455 343.818063 
L 362.757161 338.100934 
L 363.749867 348.562506 
L 364.742572 340.394693 
L 365.735278 359.696397 
L 366.727984 337.463693 
L 367.72069 360.045801 
L 368.713396 353.53211 
L 369.706102 381.580005 
L 370.698808 393.687121 
L 371.691514 352.095744 
L 372.68422 352.058062 
L 373.676926 358.928453 
L 374.669632 349.823141 
L 375.662338 355.548561 
L 376.655044 335.489608 
L 377.64775 351.641358 
L 378.640455 387.745442 
L 379.633161 358.947001 
L 380.625867 342.308603 
L 381.618573 348.194194 
L 382.611279 367.720074 
L 383.603985 348.955008 
L 384.596691 348.909505 
L 385.589397 349.26193 
L 386.582103 340.923071 
L 387.574809 361.269901 
L 388.567515 371.246663 
L 389.560221 367.709419 
L 390.552927 351.809063 
L 391.545632 358.232022 
L 392.538338 383.29527 
L 393.531044 355.571263 
L 394.52375 375.656907 
L 395.516456 356.173551 
L 396.509162 370.946732 
L 397.501868 353.638715 
L 399.48728 368.452531 
L 400.479986 370.557422 
L 401.472692 397.345022 
L 402.465398 389.986565 
L 403.458104 360.439819 
L 404.450809 367.716366 
L 405.443515 368.686773 
L 406.436221 365.421761 
L 407.428927 381.02621 
L 408.421633 358.578224 
L 409.414339 362.179705 
L 410.407045 372.607982 
L 411.399751 386.638102 
L 412.392457 354.094719 
L 413.385163 383.391658 
L 414.377869 368.008426 
L 415.370575 373.739274 
L 416.363281 384.962081 
L 417.355986 358.815004 
L 418.348692 406.385864 
L 419.341398 383.807697 
L 420.334104 372.87449 
L 421.32681 359.73912 
L 422.319516 356.28087 
L 423.312222 381.916582 
L 424.304928 366.812337 
L 425.297634 381.309296 
L 426.29034 384.579198 
L 427.283046 363.480816 
L 428.275752 367.977507 
L 429.268458 379.624766 
L 430.261163 372.278785 
L 431.253869 379.622437 
L 432.246575 372.798335 
L 433.239281 384.421804 
L 434.231987 360.298527 
L 435.224693 387.786621 
L 436.217399 370.877707 
L 437.210105 364.641984 
L 438.202811 377.089789 
L 439.195517 365.814355 
L 440.188223 377.532406 
L 441.180929 365.908939 
L 442.173635 374.226262 
L 443.166341 387.717795 
L 444.159046 404.462545 
L 445.151752 383.540272 
L 446.144458 373.702029 
L 447.137164 380.271171 
L 448.12987 361.634788 
L 449.122576 376.822734 
L 450.115282 358.787232 
L 451.107988 363.886404 
L 452.100694 375.00524 
L 453.0934 366.359891 
L 454.086106 367.271879 
L 455.078812 377.194369 
L 456.071518 377.194073 
L 457.064223 364.713372 
L 458.056929 386.769257 
L 459.049635 381.750173 
L 460.042341 373.590451 
L 462.027753 401.542267 
L 463.020459 377.313409 
L 464.013165 367.779348 
L 465.005871 371.900687 
L 465.998577 367.994923 
L 466.991283 364.810283 
L 467.983989 377.609557 
L 468.976695 412.250098 
L 469.9694 389.72529 
L 470.962106 407.572283 
L 471.954812 368.516896 
L 472.947518 383.895608 
L 473.940224 403.186765 
L 474.93293 382.522294 
L 475.925636 371.861486 
L 476.918342 375.314269 
L 477.911048 361.792523 
L 478.903754 449.907788 
L 479.89646 404.203588 
L 480.889166 366.29521 
L 481.881872 398.585579 
L 482.874577 389.072377 
L 483.867283 399.076073 
L 484.859989 377.658545 
L 485.852695 373.281206 
L 487.838107 393.446352 
L 488.830813 395.0055 
L 489.823519 411.26387 
L 490.816225 361.040374 
L 491.808931 393.030375 
L 492.801637 379.254039 
L 493.794343 440.617112 
L 494.787049 382.635669 
L 495.779754 361.91724 
L 496.77246 447.285379 
L 497.765166 406.867707 
L 498.757872 386.03019 
L 499.750578 373.512492 
L 500.743284 384.437991 
L 501.73599 385.859891 
L 502.728696 417.031325 
L 503.721402 374.925249 
L 504.714108 390.10704 
L 505.706814 391.800951 
L 506.69952 371.87643 
L 507.692226 365.797544 
L 508.684932 380.360193 
L 509.677637 403.469386 
L 510.670343 377.936125 
L 511.663049 412.860789 
L 512.655755 378.367669 
L 513.648461 379.238096 
L 514.641167 384.635367 
L 515.633873 398.25503 
L 516.626579 398.369701 
L 517.619285 397.806449 
L 518.611991 389.476948 
L 519.604697 370.909843 
L 520.597403 381.173688 
L 521.590109 447.709971 
L 522.582814 379.890795 
L 523.57552 416.159813 
L 524.568226 404.787324 
L 525.560932 414.037919 
L 526.553638 390.736107 
L 527.546344 396.076411 
L 528.53905 374.809046 
L 529.531756 422.570914 
L 530.524462 372.016209 
L 531.517168 426.833252 
L 532.509874 391.460549 
L 533.50258 374.738592 
L 534.495286 393.916246 
L 535.487991 398.089168 
L 536.480697 393.849652 
L 537.473403 398.396457 
L 538.466109 395.623702 
L 539.458815 376.41766 
L 540.451521 369.113677 
L 541.444227 390.705815 
L 542.436933 396.35886 
L 543.429639 394.914659 
L 544.422345 399.283055 
L 545.415051 414.630715 
L 546.407757 386.800152 
L 547.400463 410.881084 
L 548.393168 408.024046 
L 549.385874 412.752655 
L 550.37858 413.351868 
L 551.371286 409.443115 
L 552.363992 384.594686 
L 553.356698 401.982943 
L 554.349404 380.575941 
L 555.34211 432.662481 
L 556.334816 407.900243 
L 557.327522 452.692476 
L 558.320228 402.981775 
L 559.312934 393.448007 
L 560.30564 380.961772 
L 562.291051 408.686793 
L 563.283757 407.483149 
L 564.276463 411.204053 
L 566.261875 383.372504 
L 567.254581 405.508256 
L 568.247287 394.262329 
L 569.239993 418.144837 
L 570.232699 398.446493 
L 571.225405 398.645951 
L 572.218111 492.48 
L 573.210817 415.076049 
L 574.203523 400.171176 
L 575.196228 392.274501 
L 576.188934 446.205809 
L 577.18164 393.007611 
L 578.174346 392.021666 
L 579.167052 402.843999 
L 580.159758 383.668904 
L 581.152464 409.518836 
L 582.14517 407.451439 
L 583.137876 404.66054 
L 584.130582 426.266638 
L 585.123288 396.770241 
L 586.115994 425.199168 
L 587.1087 376.273022 
L 588.101405 398.47983 
L 589.094111 391.088829 
L 590.086817 427.911367 
L 591.079523 395.141322 
L 592.072229 421.1306 
L 593.064935 413.053315 
L 594.057641 423.477395 
L 595.050347 402.041323 
L 596.043053 398.348158 
L 597.035759 412.638327 
L 598.028465 404.186012 
L 599.021171 396.922909 
L 600.013877 421.463259 
L 601.006582 418.948758 
L 601.999288 408.384245 
L 602.991994 404.473536 
L 603.9847 397.500178 
L 604.977406 391.745466 
L 606.962818 401.93509 
L 608.94823 429.421774 
L 609.940936 387.756004 
L 610.933642 429.322358 
L 611.926348 415.624257 
L 612.919054 405.948819 
L 613.911759 403.046412 
L 614.904465 410.576415 
L 615.897171 419.438371 
L 616.889877 421.478748 
L 617.882583 392.312245 
L 618.875289 413.003704 
L 619.867995 421.531593 
L 620.860701 406.484277 
L 621.853407 411.567089 
L 622.846113 414.581577 
L 623.838819 420.999791 
L 625.824231 456.854573 
L 626.816936 411.181801 
L 627.809642 408.765135 
L 628.802348 393.590501 
L 629.795054 394.849548 
L 630.78776 409.951335 
L 631.780466 430.080499 
L 633.765878 416.758934 
L 634.758584 411.510581 
L 635.75129 404.210185 
L 636.743996 420.805621 
L 637.736702 434.292529 
L 638.729408 425.447405 
L 639.722114 410.645615 
L 640.714819 412.820504 
L 641.707525 405.533636 
L 642.700231 426.050499 
L 643.692937 416.757404 
L 644.685643 419.394971 
L 645.678349 417.308052 
L 646.671055 416.69631 
L 647.663761 414.727277 
L 648.656467 412.434286 
L 649.649173 407.441252 
L 650.641879 414.052421 
L 651.634585 417.673126 
L 652.627291 402.965224 
L 653.619996 425.753138 
L 654.612702 421.903596 
L 655.605408 413.383782 
L 656.598114 414.71422 
L 657.59082 422.535422 
L 658.583526 423.714339 
L 659.576232 408.003671 
L 660.568938 421.909722 
L 661.561644 415.062816 
L 662.55435 410.494206 
L 663.547056 421.149341 
L 664.539762 421.113671 
L 665.532468 420.804733 
L 666.525173 416.26103 
L 667.517879 415.771773 
L 668.510585 421.832727 
L 669.503291 420.150497 
L 670.495997 423.547831 
L 671.488703 417.181264 
L 673.474115 420.134452 
L 674.466821 415.145647 
L 675.459527 412.362441 
L 676.452233 418.396925 
L 677.444939 416.286775 
L 678.437645 419.40643 
L 679.43035 421.1734 
L 680.423056 425.263995 
L 681.415762 419.448837 
L 682.408468 414.8627 
L 683.401174 422.456725 
L 684.39388 417.461378 
L 685.386586 423.661872 
L 686.379292 417.519202 
L 687.371998 423.552157 
L 688.364704 420.724066 
L 689.35741 418.992896 
L 690.350116 417.64325 
L 691.342822 421.670419 
L 693.328233 418.493933 
L 694.320939 419.704974 
L 695.313645 422.019864 
L 696.306351 418.916777 
L 697.299057 420.169816 
L 698.291763 415.144057 
L 699.284469 421.686452 
L 700.277175 418.847404 
L 701.269881 419.037674 
L 702.262587 418.917968 
L 703.255293 420.511595 
L 704.247999 422.322132 
L 705.240705 423.004838 
L 706.23341 420.742873 
L 707.226116 421.751506 
L 708.218822 423.870146 
L 709.211528 421.63449 
L 710.204234 420.786787 
L 711.19694 424.304707 
L 712.189646 423.815798 
L 713.182352 423.824813 
L 714.175058 422.978777 
L 715.167764 422.56634 
L 716.16047 420.184016 
L 717.153176 422.193087 
L 718.145882 423.184464 
L 719.138587 422.619724 
L 720.131293 423.415699 
L 721.123999 425.695349 
L 722.116705 425.361432 
L 723.109411 422.802134 
L 724.102117 422.707252 
L 725.094823 423.326739 
L 726.087529 425.319931 
L 727.080235 420.513036 
L 728.072941 423.410568 
L 729.065647 420.469818 
L 730.058353 423.690793 
L 733.03647 422.957613 
L 734.029176 426.914899 
L 735.021882 424.747363 
L 736.014588 424.175758 
L 737.007294 423.264386 
L 738 424.772509 
L 738.992706 423.679669 
L 739.985412 424.01436 
L 740.978118 423.730521 
L 741.970824 425.97581 
L 742.96353 425.470617 
L 743.956236 424.53632 
L 744.948941 425.390329 
L 745.941647 423.992081 
L 746.934353 425.928322 
L 747.927059 426.104188 
L 749.912471 422.333818 
L 750.905177 425.218536 
L 751.897883 424.56363 
L 753.883295 425.952034 
L 754.876001 425.105819 
L 755.868707 424.75289 
L 756.861413 425.108568 
L 757.854118 425.068375 
L 758.846824 427.197251 
L 759.83953 427.168118 
L 760.832236 424.780709 
L 761.824942 424.912603 
L 762.817648 426.294159 
L 763.810354 427.398526 
L 764.80306 427.211763 
L 765.795766 428.50927 
L 766.788472 427.424225 
L 767.781178 425.76557 
L 768.773884 429.311437 
L 770.759295 425.58367 
L 771.752001 426.742182 
L 772.744707 427.190972 
L 773.737413 427.141195 
L 774.730119 426.204709 
L 775.722825 427.078413 
L 776.715531 426.803409 
L 777.708237 426.655779 
L 778.700943 427.825752 
L 779.693649 430.240681 
L 780.686355 426.108159 
L 781.679061 425.401763 
L 782.671767 427.149449 
L 783.664473 428.360423 
L 784.657178 429.018799 
L 785.649884 428.441865 
L 786.64259 428.635007 
L 787.635296 428.206006 
L 788.628002 427.115015 
L 790.613414 429.185614 
L 791.60612 428.679564 
L 792.598826 427.126926 
L 793.591532 429.348385 
L 794.584238 430.096928 
L 795.576944 429.254563 
L 796.56965 429.71643 
L 797.562355 432.403748 
L 798.555061 425.488085 
L 799.547767 427.891652 
L 800.540473 430.65529 
L 801.533179 427.822245 
L 802.525885 427.240109 
L 803.518591 430.833315 
L 804.511297 427.964452 
L 805.504003 430.012092 
L 806.496709 430.782485 
L 807.489415 428.978177 
L 808.482121 431.124231 
L 809.474827 429.725954 
L 810.467532 432.138831 
L 811.460238 430.974627 
L 812.452944 431.544113 
L 813.44565 429.02347 
L 814.438356 427.747547 
L 816.423768 431.674675 
L 817.416474 431.066091 
L 818.40918 430.644592 
L 819.401886 429.640421 
L 820.394592 430.60441 
L 821.387298 432.057135 
L 823.372709 431.148563 
L 824.365415 429.49715 
L 825.358121 431.722301 
L 826.350827 430.230304 
L 827.343533 430.209257 
L 828.336239 430.03565 
L 829.328945 431.727774 
L 830.321651 430.850671 
L 831.314357 428.381545 
L 832.307063 429.305497 
L 833.299769 431.790629 
L 834.292475 431.90078 
L 835.285181 430.520672 
L 836.277886 431.732669 
L 837.270592 430.845911 
L 838.263298 430.503452 
L 839.256004 430.0217 
L 840.24871 431.344093 
L 841.241416 431.222331 
L 842.234122 431.330066 
L 843.226828 434.211052 
L 844.219534 432.09886 
L 845.21224 430.511507 
L 846.204946 431.642623 
L 847.197652 430.791202 
L 848.190358 432.061254 
L 849.183064 433.514134 
L 850.175769 431.865224 
L 851.168475 429.750459 
L 852.161181 432.191428 
L 853.153887 432.154118 
L 854.146593 432.798632 
L 855.139299 432.36898 
L 856.132005 431.313 
L 857.124711 430.032177 
L 858.117417 432.232904 
L 859.110123 431.402447 
L 860.102829 430.763759 
L 861.095535 432.109437 
L 862.088241 433.839941 
L 863.080946 432.944214 
L 864.073652 430.699795 
L 866.059064 432.536915 
L 867.05177 434.032498 
L 868.044476 432.064821 
L 869.037182 432.456543 
L 870.029888 434.081641 
L 871.022594 435.079468 
L 872.0153 433.97438 
L 873.008006 433.633136 
L 874.000712 433.928012 
L 874.993418 434.514342 
L 876.978829 432.076892 
L 877.971535 434.009459 
L 878.964241 433.517542 
L 879.956947 433.949236 
L 880.949653 433.358896 
L 881.942359 431.497465 
L 882.935065 434.089133 
L 883.927771 436.2804 
L 884.920477 431.564427 
L 885.913183 433.885442 
L 886.905889 434.368634 
L 887.898595 436.41228 
L 888.8913 434.391024 
L 889.884006 433.624903 
L 890.876712 434.604289 
L 891.869418 432.087463 
L 892.862124 434.922829 
L 893.85483 435.208897 
L 894.847536 434.57672 
L 895.840242 432.653053 
L 896.832948 433.73891 
L 897.825654 433.765318 
L 898.81836 434.935277 
L 899.811066 433.818293 
L 900.803772 434.401106 
L 901.796477 433.832115 
L 903.781889 432.120932 
L 905.767301 434.802563 
L 906.760007 435.052479 
L 907.752713 434.11725 
L 908.745419 433.906925 
L 909.738125 435.250128 
L 910.730831 434.903475 
L 911.723537 431.956224 
L 912.716243 433.772922 
L 913.708949 433.833347 
L 914.701655 432.947338 
L 916.687066 436.710941 
L 917.679772 435.473784 
L 918.672478 434.719903 
L 919.665184 434.802669 
L 920.65789 433.881592 
L 921.650596 436.112085 
L 922.643302 434.313699 
L 923.636008 435.6861 
L 924.628714 436.703045 
L 925.62142 435.188473 
L 926.614126 437.996992 
L 927.606832 434.238337 
L 928.599537 435.213283 
L 929.592243 435.296934 
L 930.584949 432.871277 
L 931.577655 433.87111 
L 932.570361 436.585534 
L 933.563067 435.00239 
L 934.555773 436.463847 
L 935.548479 434.603439 
L 936.541185 434.975831 
L 937.533891 436.149598 
L 938.526597 435.748663 
L 939.519303 437.76001 
L 940.512009 435.762002 
L 941.504714 436.072444 
L 942.49742 436.134885 
L 943.490126 436.65428 
L 944.482832 435.176618 
L 946.468244 437.326348 
L 947.46095 436.469918 
L 948.453656 434.411586 
L 949.446362 436.540349 
L 951.431774 436.206578 
L 952.42448 435.515693 
L 953.417186 439.411431 
L 954.409891 436.580519 
L 955.402597 434.579318 
L 956.395303 436.700277 
L 957.388009 436.305388 
L 958.380715 438.016971 
L 959.373421 435.093335 
L 960.366127 437.31313 
L 961.358833 434.858456 
L 962.351539 438.276675 
L 963.344245 440.496905 
L 964.336951 435.53274 
L 965.329657 437.17794 
L 966.322363 435.947246 
L 967.315068 438.324448 
L 968.307774 438.840369 
L 969.30048 437.000062 
L 970.293186 436.518322 
L 971.285892 436.813214 
L 972.278598 438.238277 
L 973.271304 436.459085 
L 975.256716 437.878854 
L 976.249422 440.671375 
L 977.242128 438.672256 
L 978.234834 438.07575 
L 979.22754 438.115353 
L 980.220246 441.91063 
L 981.212951 436.489859 
L 982.205657 437.89357 
L 983.198363 440.790097 
L 984.191069 438.199412 
L 985.183775 436.474212 
L 986.176481 437.132032 
L 987.169187 437.269468 
L 988.161893 438.015734 
L 990.147305 441.443574 
L 991.140011 435.269788 
L 992.132717 434.29992 
L 993.125423 437.622349 
L 994.118128 438.294969 
L 995.110834 438.686969 
L 996.10354 438.288851 
L 997.096246 438.263801 
L 998.088952 436.236571 
L 999.081658 438.666111 
L 1000.074364 436.540756 
L 1001.06707 440.780093 
L 1002.059776 437.184482 
L 1003.052482 439.230435 
L 1004.045188 436.909906 
L 1005.037894 439.343749 
L 1006.0306 439.829154 
L 1007.023305 438.082308 
L 1008.016011 435.834504 
L 1009.008717 440.059016 
L 1010.001423 439.737018 
L 1010.994129 437.982582 
L 1011.986835 438.180896 
L 1013.972247 439.914138 
L 1014.964953 439.708512 
L 1015.957659 440.533572 
L 1016.950365 438.538617 
L 1017.943071 437.012679 
L 1018.935777 436.745194 
L 1019.928482 438.112938 
L 1020.921188 438.376023 
L 1021.913894 441.745601 
L 1022.9066 437.949215 
L 1023.899306 437.670703 
L 1024.892012 437.736287 
L 1026.877424 440.583696 
L 1027.87013 441.735025 
L 1028.862836 438.108963 
L 1029.855542 438.507722 
L 1030.848248 438.762809 
L 1031.840954 439.638657 
L 1032.833659 436.426442 
L 1033.826365 439.606716 
L 1034.819071 443.640826 
L 1035.811777 441.155694 
L 1036.804483 440.559772 
L 1037.797189 438.468889 
L 1038.789895 441.108077 
L 1040.775307 436.912174 
L 1041.768013 437.921767 
L 1042.760719 439.264525 
L 1043.753425 438.837053 
L 1044.746131 437.867248 
L 1045.738837 439.985013 
L 1046.731542 438.012561 
L 1047.724248 438.631662 
L 1048.716954 439.610839 
L 1049.70966 439.051561 
L 1050.702366 441.204399 
L 1051.695072 440.467374 
L 1052.687778 438.264434 
L 1053.680484 438.389818 
L 1054.67319 439.723593 
L 1055.665896 440.787738 
L 1056.658602 440.763124 
L 1057.651308 440.625809 
L 1058.644014 439.948059 
L 1059.636719 440.887277 
L 1060.629425 440.014273 
L 1061.622131 441.670457 
L 1062.614837 440.007627 
L 1063.607543 441.757878 
L 1064.600249 437.5697 
L 1065.592955 438.546993 
L 1066.585661 440.098863 
L 1067.578367 440.790513 
L 1068.571073 443.96542 
L 1069.563779 438.971075 
L 1070.556485 441.677699 
L 1071.549191 439.776711 
L 1072.541896 439.026358 
L 1073.534602 438.931602 
L 1074.527308 441.869902 
L 1075.520014 437.430734 
L 1076.51272 440.53568 
L 1077.505426 438.420974 
L 1078.498132 437.847391 
L 1079.490838 438.278303 
L 1080.483544 441.800741 
L 1081.47625 438.997262 
L 1082.468956 438.592743 
L 1084.454368 439.162565 
L 1085.447073 441.044304 
L 1086.439779 441.555696 
L 1087.432485 438.726095 
L 1088.425191 440.403291 
L 1089.417897 439.311561 
L 1090.410603 442.275236 
L 1091.403309 439.029709 
L 1092.396015 438.256048 
L 1093.388721 440.642307 
L 1094.381427 442.699579 
L 1095.374133 438.459869 
L 1096.366839 441.012659 
L 1097.359545 438.422906 
L 1098.35225 440.144815 
L 1099.344956 440.46612 
L 1100.337662 444.388324 
L 1101.330368 440.901738 
L 1102.323074 438.808162 
L 1103.31578 440.765412 
L 1104.308486 440.40429 
L 1105.301192 440.970331 
L 1106.293898 439.773848 
L 1107.286604 441.579611 
L 1108.27931 442.919307 
L 1110.264722 439.300337 
L 1111.257428 441.258224 
L 1112.250133 440.141346 
L 1113.242839 441.64782 
L 1114.235545 442.632635 
L 1115.228251 439.140034 
L 1116.220957 439.702127 
L 1117.213663 442.66224 
L 1118.206369 442.557753 
L 1119.199075 440.615832 
L 1120.191781 441.532764 
L 1121.184487 443.04433 
L 1122.177193 442.998173 
L 1123.169899 439.862692 
L 1124.162605 444.841886 
L 1125.15531 440.085738 
L 1126.148016 442.443521 
L 1127.140722 440.645868 
L 1128.133428 444.622519 
L 1129.126134 443.046105 
L 1130.11884 440.527206 
L 1131.111546 441.152793 
L 1132.104252 441.517243 
L 1133.096958 440.947811 
L 1134.089664 443.12946 
L 1135.08237 440.961836 
L 1136.075076 443.690322 
L 1137.067782 442.747071 
L 1138.060487 442.877393 
L 1139.053193 440.776759 
L 1140.045899 439.955332 
L 1141.038605 441.370418 
L 1142.031311 442.161566 
L 1143.024017 442.669816 
L 1144.016723 442.601146 
L 1145.009429 440.473249 
L 1146.002135 443.543874 
L 1146.994841 439.761447 
L 1147.987547 442.284609 
L 1148.980253 441.294785 
L 1149.972959 441.222951 
L 1150.965664 440.439173 
L 1151.95837 442.000646 
L 1152.951076 440.417058 
L 1154.936488 441.13478 
L 1155.929194 442.24017 
L 1156.9219 441.350359 
L 1157.914606 443.140713 
L 1158.907312 438.750431 
L 1159.900018 438.835856 
L 1160.892724 441.957055 
L 1161.88543 440.971246 
L 1162.878136 441.715129 
L 1163.870841 442.199151 
L 1164.863547 441.127319 
L 1165.856253 442.685801 
L 1166.848959 440.575525 
L 1167.841665 442.874643 
L 1168.834371 439.978038 
L 1169.827077 443.338918 
L 1170.819783 440.334944 
L 1171.812489 441.870947 
L 1172.805195 441.594823 
L 1173.797901 440.98717 
L 1174.790607 441.022403 
L 1175.783313 443.065094 
L 1176.776019 441.964359 
L 1177.768724 442.457889 
L 1178.76143 440.684486 
L 1179.754136 441.253054 
L 1180.746842 439.063792 
L 1181.739548 443.296924 
L 1182.732254 442.571988 
L 1183.72496 443.705914 
L 1184.717666 441.684675 
L 1185.710372 443.036223 
L 1186.703078 443.718051 
L 1187.695784 441.915174 
L 1188.68849 442.470121 
L 1189.681196 441.22498 
L 1190.673901 440.938909 
L 1191.666607 443.460899 
L 1192.659313 442.155552 
L 1193.652019 440.198279 
L 1194.644725 440.588998 
L 1195.637431 440.135255 
L 1196.630137 442.71578 
L 1197.622843 441.057608 
L 1198.615549 441.136233 
L 1199.608255 442.041357 
L 1200.600961 440.621356 
L 1201.593667 443.89136 
L 1202.586373 440.766117 
L 1203.579078 440.033211 
L 1204.571784 443.707472 
L 1205.56449 443.460817 
L 1206.557196 441.468647 
L 1207.549902 442.016202 
L 1208.542608 441.862328 
L 1210.52802 441.053045 
L 1212.513432 443.933434 
L 1213.506138 440.814596 
L 1214.498844 440.843372 
L 1215.49155 441.233223 
L 1216.484255 445.278582 
L 1217.476961 441.883939 
L 1218.469667 440.564269 
L 1219.462373 439.05294 
L 1220.455079 441.4946 
L 1222.440491 443.576762 
L 1223.433197 441.969499 
L 1224.425903 442.27541 
L 1225.418609 438.418817 
L 1226.411315 442.264881 
L 1227.404021 442.946904 
L 1228.396727 440.532693 
L 1229.389432 441.668166 
L 1230.382138 440.126128 
L 1232.36755 443.614967 
L 1233.360256 444.711657 
L 1234.352962 439.88792 
L 1235.345668 442.881139 
L 1236.338374 441.197643 
L 1237.33108 441.426323 
L 1238.323786 440.29567 
L 1239.316492 441.233077 
L 1240.309198 440.637481 
L 1241.301904 441.500669 
L 1242.29461 443.910369 
L 1243.287315 441.244329 
L 1244.280021 441.233649 
L 1245.272727 442.523036 
L 1245.272727 442.523036 
" clip-path="url(#p4d9b3d65e3)" style="fill: none; stroke: #1f77b4; stroke-width: 1.5; stroke-linecap: square"/>
   </g>
   <g id="patch_3">
    <path d="M 180 512.64 
L 180 69.12 
" style="fill: none; stroke: #000000; stroke-width: 0.8; stroke-linejoin: miter; stroke-linecap: square"/>
   </g>
   <g id="patch_4">
    <path d="M 1296 512.64 
L 1296 69.12 
" style="fill: none; stroke: #000000; stroke-width: 0.8; stroke-linejoin: miter; stroke-linecap: square"/>
   </g>
   <g id="patch_5">
    <path d="M 180 512.64 
L 1296 512.64 
" style="fill: none; stroke: #000000; stroke-width: 0.8; stroke-linejoin: miter; stroke-linecap: square"/>
   </g>
   <g id="patch_6">
    <path d="M 180 69.12 
L 1296 69.12 
" style="fill: none; stroke: #000000; stroke-width: 0.8; stroke-linejoin: miter; stroke-linecap: square"/>
   </g>
   <g id="text_16">
    <!-- source15-receiver19 -->
    <g transform="translate(532.175 60.80125) scale(0.4 -0.4)">
     <defs>
      <path id="DejaVuSans-73" d="M 2834 3397 
L 2834 2853 
Q 2591 2978 2328 3040 
Q 2066 3103 1784 3103 
Q 1356 3103 1142 2972 
Q 928 2841 928 2578 
Q 928 2378 1081 2264 
Q 1234 2150 1697 2047 
L 1894 2003 
Q 2506 1872 2764 1633 
Q 3022 1394 3022 966 
Q 3022 478 2636 193 
Q 2250 -91 1575 -91 
Q 1294 -91 989 -36 
Q 684 19 347 128 
L 347 722 
Q 666 556 975 473 
Q 1284 391 1588 391 
Q 1994 391 2212 530 
Q 2431 669 2431 922 
Q 2431 1156 2273 1281 
Q 2116 1406 1581 1522 
L 1381 1569 
Q 847 1681 609 1914 
Q 372 2147 372 2553 
Q 372 3047 722 3315 
Q 1072 3584 1716 3584 
Q 2034 3584 2315 3537 
Q 2597 3491 2834 3397 
z
" transform="scale(0.015625)"/>
      <path id="DejaVuSans-6f" d="M 1959 3097 
Q 1497 3097 1228 2736 
Q 959 2375 959 1747 
Q 959 1119 1226 758 
Q 1494 397 1959 397 
Q 2419 397 2687 759 
Q 2956 1122 2956 1747 
Q 2956 2369 2687 2733 
Q 2419 3097 1959 3097 
z
M 1959 3584 
Q 2709 3584 3137 3096 
Q 3566 2609 3566 1747 
Q 3566 888 3137 398 
Q 2709 -91 1959 -91 
Q 1206 -91 779 398 
Q 353 888 353 1747 
Q 353 2609 779 3096 
Q 1206 3584 1959 3584 
z
" transform="scale(0.015625)"/>
      <path id="DejaVuSans-75" d="M 544 1381 
L 544 3500 
L 1119 3500 
L 1119 1403 
Q 1119 906 1312 657 
Q 1506 409 1894 409 
Q 2359 409 2629 706 
Q 2900 1003 2900 1516 
L 2900 3500 
L 3475 3500 
L 3475 0 
L 2900 0 
L 2900 538 
Q 2691 219 2414 64 
Q 2138 -91 1772 -91 
Q 1169 -91 856 284 
Q 544 659 544 1381 
z
M 1991 3584 
L 1991 3584 
z
" transform="scale(0.015625)"/>
      <path id="DejaVuSans-72" d="M 2631 2963 
Q 2534 3019 2420 3045 
Q 2306 3072 2169 3072 
Q 1681 3072 1420 2755 
Q 1159 2438 1159 1844 
L 1159 0 
L 581 0 
L 581 3500 
L 1159 3500 
L 1159 2956 
Q 1341 3275 1631 3429 
Q 1922 3584 2338 3584 
Q 2397 3584 2469 3576 
Q 2541 3569 2628 3553 
L 2631 2963 
z
" transform="scale(0.015625)"/>
      <path id="DejaVuSans-63" d="M 3122 3366 
L 3122 2828 
Q 2878 2963 2633 3030 
Q 2388 3097 2138 3097 
Q 1578 3097 1268 2742 
Q 959 2388 959 1747 
Q 959 1106 1268 751 
Q 1578 397 2138 397 
Q 2388 397 2633 464 
Q 2878 531 3122 666 
L 3122 134 
Q 2881 22 2623 -34 
Q 2366 -91 2075 -91 
Q 1284 -91 818 406 
Q 353 903 353 1747 
Q 353 2603 823 3093 
Q 1294 3584 2113 3584 
Q 2378 3584 2631 3529 
Q 2884 3475 3122 3366 
z
" transform="scale(0.015625)"/>
      <path id="DejaVuSans-65" d="M 3597 1894 
L 3597 1613 
L 953 1613 
Q 991 1019 1311 708 
Q 1631 397 2203 397 
Q 2534 397 2845 478 
Q 3156 559 3463 722 
L 3463 178 
Q 3153 47 2828 -22 
Q 2503 -91 2169 -91 
Q 1331 -91 842 396 
Q 353 884 353 1716 
Q 353 2575 817 3079 
Q 1281 3584 2069 3584 
Q 2775 3584 3186 3129 
Q 3597 2675 3597 1894 
z
M 3022 2063 
Q 3016 2534 2758 2815 
Q 2500 3097 2075 3097 
Q 1594 3097 1305 2825 
Q 1016 2553 972 2059 
L 3022 2063 
z
" transform="scale(0.015625)"/>
      <path id="DejaVuSans-2d" d="M 313 2009 
L 1997 2009 
L 1997 1497 
L 313 1497 
L 313 2009 
z
" transform="scale(0.015625)"/>
      <path id="DejaVuSans-69" d="M 603 3500 
L 1178 3500 
L 1178 0 
L 603 0 
L 603 3500 
z
M 603 4863 
L 1178 4863 
L 1178 4134 
L 603 4134 
L 603 4863 
z
" transform="scale(0.015625)"/>
      <path id="DejaVuSans-76" d="M 191 3500 
L 800 3500 
L 1894 563 
L 2988 3500 
L 3597 3500 
L 2284 0 
L 1503 0 
L 191 3500 
z
" transform="scale(0.015625)"/>
      <path id="DejaVuSans-39" d="M 703 97 
L 703 672 
Q 941 559 1184 500 
Q 1428 441 1663 441 
Q 2288 441 2617 861 
Q 2947 1281 2994 2138 
Q 2813 1869 2534 1725 
Q 2256 1581 1919 1581 
Q 1219 1581 811 2004 
Q 403 2428 403 3163 
Q 403 3881 828 4315 
Q 1253 4750 1959 4750 
Q 2769 4750 3195 4129 
Q 3622 3509 3622 2328 
Q 3622 1225 3098 567 
Q 2575 -91 1691 -91 
Q 1453 -91 1209 -44 
Q 966 3 703 97 
z
M 1959 2075 
Q 2384 2075 2632 2365 
Q 2881 2656 2881 3163 
Q 2881 3666 2632 3958 
Q 2384 4250 1959 4250 
Q 1534 4250 1286 3958 
Q 1038 3666 1038 3163 
Q 1038 2656 1286 2365 
Q 1534 2075 1959 2075 
z
" transform="scale(0.015625)"/>
     </defs>
     <use xlink:href="#DejaVuSans-73"/>
     <use xlink:href="#DejaVuSans-6f" x="52.099609"/>
     <use xlink:href="#DejaVuSans-75" x="113.28125"/>
     <use xlink:href="#DejaVuSans-72" x="176.660156"/>
     <use xlink:href="#DejaVuSans-63" x="215.523438"/>
     <use xlink:href="#DejaVuSans-65" x="270.503906"/>
     <use xlink:href="#DejaVuSans-31" x="332.027344"/>
     <use xlink:href="#DejaVuSans-35" x="395.650391"/>
     <use xlink:href="#DejaVuSans-2d" x="459.273438"/>
     <use xlink:href="#DejaVuSans-72" x="495.357422"/>
     <use xlink:href="#DejaVuSans-65" x="534.220703"/>
     <use xlink:href="#DejaVuSans-63" x="595.744141"/>
     <use xlink:href="#DejaVuSans-65" x="650.724609"/>
     <use xlink:href="#DejaVuSans-69" x="712.248047"/>
     <use xlink:href="#DejaVuSans-76" x="740.03125"/>
     <use xlink:href="#DejaVuSans-65" x="799.210938"/>
     <use xlink:href="#DejaVuSans-72" x="860.734375"/>
     <use xlink:href="#DejaVuSans-31" x="901.847656"/>
     <use xlink:href="#DejaVuSans-39" x="965.470703"/>
    </g>
   </g>
  </g>
 </g>
 <defs>
  <clipPath id="p4d9b3d65e3">
   <rect x="180" y="69.12" width="1116" height="443.52"/>
  </clipPath>
 </defs>
</svg>
