<?xml version="1.0" encoding="utf-8" standalone="no"?>
<!DOCTYPE svg PUBLIC "-//W3C//DTD SVG 1.1//EN"
  "http://www.w3.org/Graphics/SVG/1.1/DTD/svg11.dtd">
<svg xmlns:xlink="http://www.w3.org/1999/xlink" width="1440pt" height="576pt" viewBox="0 0 1440 576" xmlns="http://www.w3.org/2000/svg" version="1.1">
 <metadata>
  <rdf:RDF xmlns:dc="http://purl.org/dc/elements/1.1/" xmlns:cc="http://creativecommons.org/ns#" xmlns:rdf="http://www.w3.org/1999/02/22-rdf-syntax-ns#">
   <cc:Work>
    <dc:type rdf:resource="http://purl.org/dc/dcmitype/StillImage"/>
    <dc:date>2024-05-22T04:50:08.472494</dc:date>
    <dc:format>image/svg+xml</dc:format>
    <dc:creator>
     <cc:Agent>
      <dc:title>Matplotlib v3.8.3, https://matplotlib.org/</dc:title>
     </cc:Agent>
    </dc:creator>
   </cc:Work>
  </rdf:RDF>
 </metadata>
 <defs>
  <style type="text/css">*{stroke-linejoin: round; stroke-linecap: butt}</style>
 </defs>
 <g id="figure_1">
  <g id="patch_1">
   <path d="M 0 576 
L 1440 576 
L 1440 0 
L 0 0 
z
" style="fill: #ffffff"/>
  </g>
  <g id="axes_1">
   <g id="patch_2">
    <path d="M 180 512.64 
L 1296 512.64 
L 1296 69.12 
L 180 69.12 
z
" style="fill: #ffffff"/>
   </g>
   <g id="matplotlib.axis_1">
    <g id="xtick_1">
     <g id="line2d_1">
      <defs>
       <path id="m08b939d785" d="M 0 0 
L 0 3.5 
" style="stroke: #000000; stroke-width: 0.8"/>
      </defs>
      <g>
       <use xlink:href="#m08b939d785" x="229.734567" y="512.64" style="stroke: #000000; stroke-width: 0.8"/>
      </g>
     </g>
     <g id="text_1">
      <!-- 0 -->
      <g transform="translate(226.553317 527.238438) scale(0.1 -0.1)">
       <defs>
        <path id="DejaVuSans-30" d="M 2034 4250 
Q 1547 4250 1301 3770 
Q 1056 3291 1056 2328 
Q 1056 1369 1301 889 
Q 1547 409 2034 409 
Q 2525 409 2770 889 
Q 3016 1369 3016 2328 
Q 3016 3291 2770 3770 
Q 2525 4250 2034 4250 
z
M 2034 4750 
Q 2819 4750 3233 4129 
Q 3647 3509 3647 2328 
Q 3647 1150 3233 529 
Q 2819 -91 2034 -91 
Q 1250 -91 836 529 
Q 422 1150 422 2328 
Q 422 3509 836 4129 
Q 1250 4750 2034 4750 
z
" transform="scale(0.015625)"/>
       </defs>
       <use xlink:href="#DejaVuSans-30"/>
      </g>
     </g>
    </g>
    <g id="xtick_2">
     <g id="line2d_2">
      <g>
       <use xlink:href="#m08b939d785" x="433.04074" y="512.64" style="stroke: #000000; stroke-width: 0.8"/>
      </g>
     </g>
     <g id="text_2">
      <!-- 500 -->
      <g transform="translate(423.49699 527.238438) scale(0.1 -0.1)">
       <defs>
        <path id="DejaVuSans-35" d="M 691 4666 
L 3169 4666 
L 3169 4134 
L 1269 4134 
L 1269 2991 
Q 1406 3038 1543 3061 
Q 1681 3084 1819 3084 
Q 2600 3084 3056 2656 
Q 3513 2228 3513 1497 
Q 3513 744 3044 326 
Q 2575 -91 1722 -91 
Q 1428 -91 1123 -41 
Q 819 9 494 109 
L 494 744 
Q 775 591 1075 516 
Q 1375 441 1709 441 
Q 2250 441 2565 725 
Q 2881 1009 2881 1497 
Q 2881 1984 2565 2268 
Q 2250 2553 1709 2553 
Q 1456 2553 1204 2497 
Q 953 2441 691 2322 
L 691 4666 
z
" transform="scale(0.015625)"/>
       </defs>
       <use xlink:href="#DejaVuSans-35"/>
       <use xlink:href="#DejaVuSans-30" x="63.623047"/>
       <use xlink:href="#DejaVuSans-30" x="127.246094"/>
      </g>
     </g>
    </g>
    <g id="xtick_3">
     <g id="line2d_3">
      <g>
       <use xlink:href="#m08b939d785" x="636.346913" y="512.64" style="stroke: #000000; stroke-width: 0.8"/>
      </g>
     </g>
     <g id="text_3">
      <!-- 1000 -->
      <g transform="translate(623.621913 527.238438) scale(0.1 -0.1)">
       <defs>
        <path id="DejaVuSans-31" d="M 794 531 
L 1825 531 
L 1825 4091 
L 703 3866 
L 703 4441 
L 1819 4666 
L 2450 4666 
L 2450 531 
L 3481 531 
L 3481 0 
L 794 0 
L 794 531 
z
" transform="scale(0.015625)"/>
       </defs>
       <use xlink:href="#DejaVuSans-31"/>
       <use xlink:href="#DejaVuSans-30" x="63.623047"/>
       <use xlink:href="#DejaVuSans-30" x="127.246094"/>
       <use xlink:href="#DejaVuSans-30" x="190.869141"/>
      </g>
     </g>
    </g>
    <g id="xtick_4">
     <g id="line2d_4">
      <g>
       <use xlink:href="#m08b939d785" x="839.653087" y="512.64" style="stroke: #000000; stroke-width: 0.8"/>
      </g>
     </g>
     <g id="text_4">
      <!-- 1500 -->
      <g transform="translate(826.928087 527.238438) scale(0.1 -0.1)">
       <use xlink:href="#DejaVuSans-31"/>
       <use xlink:href="#DejaVuSans-35" x="63.623047"/>
       <use xlink:href="#DejaVuSans-30" x="127.246094"/>
       <use xlink:href="#DejaVuSans-30" x="190.869141"/>
      </g>
     </g>
    </g>
    <g id="xtick_5">
     <g id="line2d_5">
      <g>
       <use xlink:href="#m08b939d785" x="1042.95926" y="512.64" style="stroke: #000000; stroke-width: 0.8"/>
      </g>
     </g>
     <g id="text_5">
      <!-- 2000 -->
      <g transform="translate(1030.23426 527.238438) scale(0.1 -0.1)">
       <defs>
        <path id="DejaVuSans-32" d="M 1228 531 
L 3431 531 
L 3431 0 
L 469 0 
L 469 531 
Q 828 903 1448 1529 
Q 2069 2156 2228 2338 
Q 2531 2678 2651 2914 
Q 2772 3150 2772 3378 
Q 2772 3750 2511 3984 
Q 2250 4219 1831 4219 
Q 1534 4219 1204 4116 
Q 875 4013 500 3803 
L 500 4441 
Q 881 4594 1212 4672 
Q 1544 4750 1819 4750 
Q 2544 4750 2975 4387 
Q 3406 4025 3406 3419 
Q 3406 3131 3298 2873 
Q 3191 2616 2906 2266 
Q 2828 2175 2409 1742 
Q 1991 1309 1228 531 
z
" transform="scale(0.015625)"/>
       </defs>
       <use xlink:href="#DejaVuSans-32"/>
       <use xlink:href="#DejaVuSans-30" x="63.623047"/>
       <use xlink:href="#DejaVuSans-30" x="127.246094"/>
       <use xlink:href="#DejaVuSans-30" x="190.869141"/>
      </g>
     </g>
    </g>
    <g id="xtick_6">
     <g id="line2d_6">
      <g>
       <use xlink:href="#m08b939d785" x="1246.265433" y="512.64" style="stroke: #000000; stroke-width: 0.8"/>
      </g>
     </g>
     <g id="text_6">
      <!-- 2500 -->
      <g transform="translate(1233.540433 527.238438) scale(0.1 -0.1)">
       <use xlink:href="#DejaVuSans-32"/>
       <use xlink:href="#DejaVuSans-35" x="63.623047"/>
       <use xlink:href="#DejaVuSans-30" x="127.246094"/>
       <use xlink:href="#DejaVuSans-30" x="190.869141"/>
      </g>
     </g>
    </g>
   </g>
   <g id="matplotlib.axis_2">
    <g id="ytick_1">
     <g id="line2d_7">
      <defs>
       <path id="m1c6944ff8c" d="M 0 0 
L -3.5 0 
" style="stroke: #000000; stroke-width: 0.8"/>
      </defs>
      <g>
       <use xlink:href="#m1c6944ff8c" x="180" y="492.946525" style="stroke: #000000; stroke-width: 0.8"/>
      </g>
     </g>
     <g id="text_7">
      <!-- −6 -->
      <g transform="translate(158.257812 496.745744) scale(0.1 -0.1)">
       <defs>
        <path id="DejaVuSans-2212" d="M 678 2272 
L 4684 2272 
L 4684 1741 
L 678 1741 
L 678 2272 
z
" transform="scale(0.015625)"/>
        <path id="DejaVuSans-36" d="M 2113 2584 
Q 1688 2584 1439 2293 
Q 1191 2003 1191 1497 
Q 1191 994 1439 701 
Q 1688 409 2113 409 
Q 2538 409 2786 701 
Q 3034 994 3034 1497 
Q 3034 2003 2786 2293 
Q 2538 2584 2113 2584 
z
M 3366 4563 
L 3366 3988 
Q 3128 4100 2886 4159 
Q 2644 4219 2406 4219 
Q 1781 4219 1451 3797 
Q 1122 3375 1075 2522 
Q 1259 2794 1537 2939 
Q 1816 3084 2150 3084 
Q 2853 3084 3261 2657 
Q 3669 2231 3669 1497 
Q 3669 778 3244 343 
Q 2819 -91 2113 -91 
Q 1303 -91 875 529 
Q 447 1150 447 2328 
Q 447 3434 972 4092 
Q 1497 4750 2381 4750 
Q 2619 4750 2861 4703 
Q 3103 4656 3366 4563 
z
" transform="scale(0.015625)"/>
       </defs>
       <use xlink:href="#DejaVuSans-2212"/>
       <use xlink:href="#DejaVuSans-36" x="83.789062"/>
      </g>
     </g>
    </g>
    <g id="ytick_2">
     <g id="line2d_8">
      <g>
       <use xlink:href="#m1c6944ff8c" x="180" y="419.690577" style="stroke: #000000; stroke-width: 0.8"/>
      </g>
     </g>
     <g id="text_8">
      <!-- −4 -->
      <g transform="translate(158.257812 423.489796) scale(0.1 -0.1)">
       <defs>
        <path id="DejaVuSans-34" d="M 2419 4116 
L 825 1625 
L 2419 1625 
L 2419 4116 
z
M 2253 4666 
L 3047 4666 
L 3047 1625 
L 3713 1625 
L 3713 1100 
L 3047 1100 
L 3047 0 
L 2419 0 
L 2419 1100 
L 313 1100 
L 313 1709 
L 2253 4666 
z
" transform="scale(0.015625)"/>
       </defs>
       <use xlink:href="#DejaVuSans-2212"/>
       <use xlink:href="#DejaVuSans-34" x="83.789062"/>
      </g>
     </g>
    </g>
    <g id="ytick_3">
     <g id="line2d_9">
      <g>
       <use xlink:href="#m1c6944ff8c" x="180" y="346.434629" style="stroke: #000000; stroke-width: 0.8"/>
      </g>
     </g>
     <g id="text_9">
      <!-- −2 -->
      <g transform="translate(158.257812 350.233847) scale(0.1 -0.1)">
       <use xlink:href="#DejaVuSans-2212"/>
       <use xlink:href="#DejaVuSans-32" x="83.789062"/>
      </g>
     </g>
    </g>
    <g id="ytick_4">
     <g id="line2d_10">
      <g>
       <use xlink:href="#m1c6944ff8c" x="180" y="273.17868" style="stroke: #000000; stroke-width: 0.8"/>
      </g>
     </g>
     <g id="text_10">
      <!-- 0 -->
      <g transform="translate(166.6375 276.977899) scale(0.1 -0.1)">
       <use xlink:href="#DejaVuSans-30"/>
      </g>
     </g>
    </g>
    <g id="ytick_5">
     <g id="line2d_11">
      <g>
       <use xlink:href="#m1c6944ff8c" x="180" y="199.922732" style="stroke: #000000; stroke-width: 0.8"/>
      </g>
     </g>
     <g id="text_11">
      <!-- 2 -->
      <g transform="translate(166.6375 203.721951) scale(0.1 -0.1)">
       <use xlink:href="#DejaVuSans-32"/>
      </g>
     </g>
    </g>
    <g id="ytick_6">
     <g id="line2d_12">
      <g>
       <use xlink:href="#m1c6944ff8c" x="180" y="126.666784" style="stroke: #000000; stroke-width: 0.8"/>
      </g>
     </g>
     <g id="text_12">
      <!-- 4 -->
      <g transform="translate(166.6375 130.466002) scale(0.1 -0.1)">
       <use xlink:href="#DejaVuSans-34"/>
      </g>
     </g>
    </g>
   </g>
   <g id="line2d_13">
    <path d="M 230.727273 286.883204 
L 231.719979 294.360517 
L 232.712685 293.491068 
L 233.70539 287.300588 
L 234.698096 286.299675 
L 235.690802 292.906311 
L 236.683508 301.514605 
L 237.676214 297.233152 
L 238.66892 290.323375 
L 239.661626 291.741331 
L 240.654332 302.3196 
L 241.647038 306.573188 
L 242.639744 292.505126 
L 243.63245 285.637529 
L 244.625156 292.482118 
L 245.617862 312.001615 
L 246.610568 281.97537 
L 247.603273 255.383794 
L 249.588685 215.722377 
L 250.581391 198.070013 
L 251.574097 184.85253 
L 252.566803 177.414553 
L 253.559509 176.019363 
L 254.552215 181.174039 
L 255.544921 183.728824 
L 257.530333 160.135788 
L 258.523039 155.289186 
L 259.515745 156.539788 
L 260.50845 160.413115 
L 261.501156 161.902066 
L 262.493862 163.830079 
L 263.486568 173.409083 
L 264.479274 193.518666 
L 265.47198 194.286755 
L 266.464686 184.141359 
L 267.457392 186.378858 
L 268.450098 186.630751 
L 269.442804 176.929246 
L 270.43551 173.665916 
L 271.428216 178.444944 
L 272.420922 183.85571 
L 273.413627 188.305611 
L 274.406333 179.665524 
L 275.399039 152.795123 
L 276.391745 134.695753 
L 277.384451 125.017221 
L 278.377157 118.947594 
L 279.369863 111.332445 
L 280.362569 101.669257 
L 281.355275 93.605789 
L 282.347981 89.28 
L 283.340687 89.466232 
L 284.333393 93.946271 
L 286.318804 109.55847 
L 287.31151 114.846214 
L 288.304216 121.042968 
L 290.289628 140.915834 
L 291.282334 143.38194 
L 292.27504 149.771805 
L 293.267746 169.643446 
L 294.260452 179.669455 
L 295.253158 165.072119 
L 296.245864 166.648344 
L 297.23857 185.865648 
L 298.231276 197.189725 
L 299.223981 183.779298 
L 300.216687 184.981507 
L 301.209393 195.251145 
L 302.202099 199.026512 
L 303.194805 204.111777 
L 304.187511 226.14863 
L 305.180217 240.526484 
L 306.172923 224.737926 
L 307.165629 231.620659 
L 308.158335 254.543307 
L 309.151041 241.492119 
L 310.143747 239.035668 
L 311.136453 259.512465 
L 312.129159 274.295585 
L 313.121864 259.114886 
L 314.11457 264.018747 
L 315.107276 295.181646 
L 316.099982 332.404043 
L 317.092688 285.306689 
L 318.085394 276.014971 
L 319.0781 282.965932 
L 320.070806 322.627009 
L 321.063512 307.703522 
L 322.056218 285.399439 
L 323.048924 290.96608 
L 324.04163 310.913649 
L 325.034336 344.520931 
L 326.027041 297.336548 
L 327.019747 287.722353 
L 328.012453 294.69805 
L 329.005159 334.763551 
L 330.990571 289.563729 
L 331.983277 287.921843 
L 332.975983 309.234746 
L 333.968689 360.901855 
L 334.961395 316.315625 
L 335.954101 292.16822 
L 336.946807 291.009997 
L 337.939513 297.534694 
L 338.932218 336.110789 
L 339.924924 309.85878 
L 340.91763 290.076096 
L 341.910336 297.620508 
L 342.903042 327.064605 
L 343.895748 342.663988 
L 344.888454 309.039764 
L 345.88116 302.581751 
L 346.873866 310.314326 
L 347.866572 357.523118 
L 349.851984 297.626521 
L 350.84469 298.399638 
L 351.837395 317.214024 
L 352.830101 321.749923 
L 353.822807 293.586412 
L 354.815513 284.027442 
L 355.808219 287.753356 
L 356.800925 305.060644 
L 358.786337 279.314098 
L 359.779043 278.017629 
L 360.771749 281.720448 
L 361.764455 290.893724 
L 362.757161 278.082929 
L 363.749867 271.536309 
L 364.742572 273.464334 
L 365.735278 283.101831 
L 366.727984 284.783588 
L 367.72069 274.327012 
L 368.713396 270.980886 
L 369.706102 275.814779 
L 370.698808 283.263285 
L 371.691514 279.6908 
L 372.68422 272.29617 
L 373.676926 272.713814 
L 374.669632 281.211086 
L 375.662338 279.878672 
L 376.655044 273.197323 
L 377.64775 268.60095 
L 378.640455 273.817885 
L 379.633161 276.647721 
L 380.625867 272.944411 
L 381.618573 267.069392 
L 382.611279 267.339353 
L 383.603985 270.932767 
L 384.596691 269.76911 
L 386.582103 263.094963 
L 387.574809 266.293381 
L 388.567515 272.867028 
L 389.560221 271.488267 
L 390.552927 267.2039 
L 391.545632 267.265007 
L 392.538338 273.514119 
L 393.531044 276.276832 
L 394.52375 275.847412 
L 395.516456 272.166023 
L 396.509162 276.809615 
L 397.501868 283.815964 
L 398.494574 286.972832 
L 399.48728 283.358932 
L 400.479986 283.312661 
L 401.472692 290.871534 
L 402.465398 300.732614 
L 403.458104 295.74507 
L 404.450809 289.726663 
L 405.443515 295.555906 
L 406.436221 308.886586 
L 407.428927 308.364223 
L 409.414339 294.80248 
L 411.399751 317.566244 
L 412.392457 310.009906 
L 413.385163 304.103398 
L 414.377869 300.938924 
L 415.370575 309.581367 
L 416.363281 327.205514 
L 417.355986 318.321358 
L 418.348692 306.98854 
L 419.341398 305.797006 
L 420.334104 316.172802 
L 421.32681 347.338405 
L 422.319516 320.806104 
L 423.312222 317.810118 
L 424.304928 312.618972 
L 425.297634 330.275538 
L 426.29034 353.921335 
L 427.283046 332.736093 
L 428.275752 318.835369 
L 429.268458 321.198665 
L 430.261163 339.504872 
L 431.253869 361.478738 
L 432.246575 325.222281 
L 433.239281 320.790299 
L 434.231987 334.700277 
L 435.224693 341.190376 
L 436.217399 321.601829 
L 437.210105 309.429681 
L 438.202811 315.527089 
L 439.195517 316.895901 
L 440.188223 311.757311 
L 441.180929 298.976581 
L 442.173635 299.721263 
L 443.166341 303.359459 
L 444.159046 306.03356 
L 445.151752 298.717454 
L 446.144458 295.7282 
L 447.137164 297.938295 
L 448.12987 305.252541 
L 449.122576 306.188665 
L 450.115282 300.584412 
L 451.107988 299.93422 
L 452.100694 307.757324 
L 453.0934 314.364663 
L 454.086106 307.583203 
L 455.078812 298.880964 
L 456.071518 304.556284 
L 457.064223 304.061887 
L 458.056929 299.483076 
L 459.049635 288.99524 
L 460.042341 288.678697 
L 461.035047 291.755301 
L 462.027753 291.129816 
L 463.020459 283.175503 
L 464.013165 279.98091 
L 465.005871 281.878376 
L 465.998577 282.260133 
L 466.991283 280.966353 
L 467.983989 278.638915 
L 468.976695 276.976567 
L 469.9694 282.868118 
L 470.962106 286.99933 
L 471.954812 282.116359 
L 472.947518 280.640272 
L 473.940224 283.024903 
L 474.93293 289.14729 
L 476.918342 284.999109 
L 477.911048 285.166164 
L 478.903754 290.928401 
L 479.89646 299.514195 
L 480.889166 296.241886 
L 481.881872 291.652922 
L 482.874577 293.852642 
L 483.867283 298.666172 
L 484.859989 296.864455 
L 485.852695 294.199368 
L 486.845401 292.290951 
L 487.838107 297.058402 
L 488.830813 299.679498 
L 489.823519 296.881255 
L 490.816225 294.443892 
L 491.808931 293.616603 
L 492.801637 299.438972 
L 493.794343 308.550051 
L 494.787049 304.093234 
L 495.779754 301.635395 
L 496.77246 304.279603 
L 497.765166 309.523487 
L 498.757872 315.788292 
L 499.750578 313.040332 
L 500.743284 308.472321 
L 501.73599 316.921972 
L 502.728696 330.350694 
L 503.721402 333.745363 
L 504.714108 328.13479 
L 505.706814 319.968433 
L 506.69952 327.922072 
L 507.692226 345.818155 
L 508.684932 351.299172 
L 509.677637 327.995838 
L 510.670343 323.739415 
L 511.663049 333.480847 
L 512.655755 338.558873 
L 513.648461 328.641939 
L 514.641167 323.624694 
L 515.633873 313.611099 
L 516.626579 325.677216 
L 517.619285 321.977489 
L 518.611991 310.809948 
L 519.604697 305.599699 
L 520.597403 305.617088 
L 521.590109 310.620749 
L 522.582814 305.472047 
L 523.57552 301.225944 
L 524.568226 300.160508 
L 525.560932 302.87092 
L 526.553638 308.884968 
L 527.546344 305.617537 
L 528.53905 298.569212 
L 529.531756 301.970972 
L 531.517168 317.208902 
L 532.509874 318.120767 
L 533.50258 309.847822 
L 534.495286 318.241607 
L 535.487991 334.364396 
L 536.480697 329.039888 
L 537.473403 325.698564 
L 539.458815 338.722265 
L 540.451521 330.035383 
L 541.444227 319.639881 
L 542.436933 317.172561 
L 543.429639 320.532671 
L 544.422345 318.601014 
L 545.415051 310.89757 
L 546.407757 307.451928 
L 547.400463 310.820552 
L 548.393168 322.150331 
L 550.37858 305.458735 
L 551.371286 308.138314 
L 552.363992 317.668269 
L 553.356698 320.595662 
L 554.349404 317.858929 
L 556.334816 313.911087 
L 557.327522 338.170942 
L 559.312934 320.640128 
L 560.30564 319.950499 
L 561.298345 334.774101 
L 562.291051 322.64308 
L 563.283757 312.887249 
L 564.276463 310.935412 
L 565.269169 314.465176 
L 566.261875 312.213998 
L 567.254581 309.212695 
L 568.247287 301.662053 
L 569.239993 302.742445 
L 570.232699 307.099818 
L 571.225405 305.322979 
L 572.218111 301.003845 
L 573.210817 304.597693 
L 574.203523 304.931706 
L 575.196228 314.938381 
L 576.188934 309.21937 
L 577.18164 312.58124 
L 578.174346 311.883362 
L 579.167052 315.696038 
L 580.159758 326.324069 
L 582.14517 320.576963 
L 583.137876 325.994108 
L 584.130582 352.171711 
L 585.123288 347.235412 
L 586.115994 340.041791 
L 587.1087 337.797582 
L 588.101405 347.008621 
L 589.094111 364.729193 
L 590.086817 352.742746 
L 591.079523 343.265164 
L 592.072229 339.467596 
L 593.064935 352.820095 
L 594.057641 363.194162 
L 595.050347 345.063119 
L 596.043053 335.519339 
L 597.035759 333.69126 
L 598.028465 336.407479 
L 599.021171 340.357141 
L 600.013877 336.041135 
L 601.006582 321.624812 
L 601.999288 321.422582 
L 602.991994 324.347207 
L 603.9847 331.249519 
L 604.977406 326.984995 
L 605.970112 319.105443 
L 606.962818 318.266684 
L 607.955524 327.700759 
L 608.94823 331.30852 
L 609.940936 328.894951 
L 610.933642 320.731197 
L 611.926348 325.30447 
L 612.919054 334.459263 
L 613.911759 333.727901 
L 614.904465 330.331418 
L 615.897171 330.829988 
L 617.882583 349.356528 
L 618.875289 344.277125 
L 619.867995 334.114531 
L 620.860701 337.67164 
L 621.853407 349.660678 
L 622.846113 348.18108 
L 623.838819 330.759896 
L 624.831525 326.312521 
L 625.824231 329.218999 
L 626.816936 336.835794 
L 627.809642 327.007001 
L 628.802348 323.920148 
L 629.795054 321.850457 
L 630.78776 330.750472 
L 631.780466 335.472346 
L 632.773172 334.46062 
L 633.765878 326.540846 
L 634.758584 333.523757 
L 635.75129 344.225909 
L 636.743996 352.79336 
L 637.736702 345.902474 
L 638.729408 345.684814 
L 639.722114 350.712369 
L 640.714819 364.178855 
L 641.707525 397.718946 
L 642.700231 391.948954 
L 643.692937 367.914579 
L 644.685643 354.240822 
L 645.678349 355.00874 
L 646.671055 369.011832 
L 647.663761 380.849257 
L 649.649173 348.830122 
L 650.641879 345.768054 
L 651.634585 355.878442 
L 652.627291 373.922872 
L 653.619996 366.166155 
L 654.612702 353.968932 
L 655.605408 357.771589 
L 656.598114 381.222935 
L 657.59082 401.308269 
L 658.583526 373.216901 
L 659.576232 369.964316 
L 660.568938 381.041278 
L 661.561644 395.530225 
L 662.55435 360.919184 
L 663.547056 354.776439 
L 664.539762 356.769645 
L 665.532468 368.820599 
L 666.525173 352.536694 
L 667.517879 339.528767 
L 668.510585 339.980622 
L 669.503291 342.937868 
L 670.495997 352.498176 
L 671.488703 342.933299 
L 672.481409 335.28549 
L 673.474115 336.40983 
L 674.466821 345.392611 
L 675.459527 352.982356 
L 677.444939 340.907664 
L 678.437645 343.964186 
L 679.43035 357.283247 
L 680.423056 374.454413 
L 681.415762 363.637134 
L 682.408468 355.568909 
L 683.401174 358.284213 
L 684.39388 375.042013 
L 685.386586 412.465995 
L 686.379292 399.395723 
L 687.371998 381.294293 
L 688.364704 377.596736 
L 689.35741 388.085481 
L 690.350116 409.404931 
L 691.342822 405.429868 
L 692.335527 403.441118 
L 693.328233 403.864738 
L 694.320939 399.149224 
L 695.313645 383.565056 
L 696.306351 377.122312 
L 697.299057 384.493605 
L 698.291763 405.095245 
L 699.284469 401.067213 
L 700.277175 368.249354 
L 701.269881 356.490019 
L 702.262587 359.639357 
L 703.255293 372.086549 
L 704.247999 373.686644 
L 705.240705 355.195834 
L 706.23341 346.664139 
L 707.226116 346.80464 
L 708.218822 356.215222 
L 709.211528 362.005397 
L 710.204234 348.779932 
L 711.19694 341.369065 
L 712.189646 342.057162 
L 713.182352 352.246383 
L 714.175058 360.001762 
L 715.167764 350.772098 
L 716.16047 344.100468 
L 717.153176 345.051607 
L 718.145882 356.220352 
L 719.138587 369.996658 
L 720.131293 359.584616 
L 721.123999 350.679415 
L 722.116705 353.395475 
L 723.109411 368.2138 
L 724.102117 392.614542 
L 725.094823 374.136697 
L 726.087529 364.109321 
L 727.080235 369.259911 
L 728.072941 397.276769 
L 729.065647 412.407014 
L 730.058353 377.295749 
L 731.051059 374.159363 
L 732.043764 390.975567 
L 733.03647 410.662023 
L 734.029176 369.631339 
L 735.021882 357.258831 
L 736.014588 358.684567 
L 737.007294 370.661181 
L 738 365.479241 
L 738.992706 348.78703 
L 739.985412 342.628185 
L 740.978118 346.733098 
L 741.970824 353.336288 
L 742.96353 349.792038 
L 743.956236 339.713051 
L 744.948941 336.032887 
L 745.941647 340.515078 
L 746.934353 348.61223 
L 747.927059 345.482515 
L 748.919765 338.116979 
L 749.912471 336.404967 
L 750.905177 343.744978 
L 751.897883 353.319357 
L 752.890589 350.545063 
L 753.883295 343.797354 
L 754.876001 344.767655 
L 755.868707 357.21215 
L 756.861413 372.311626 
L 757.854118 360.888363 
L 758.846824 354.336865 
L 759.83953 361.13721 
L 760.832236 383.051058 
L 761.824942 378.116337 
L 762.817648 360.060772 
L 763.810354 358.082746 
L 764.80306 370.37886 
L 765.795766 374.505148 
L 766.788472 356.373652 
L 767.781178 347.767001 
L 768.773884 350.352047 
L 769.76659 360.567793 
L 770.759295 358.017915 
L 771.752001 346.580997 
L 772.744707 342.193391 
L 773.737413 347.03595 
L 774.730119 357.212191 
L 775.722825 355.579511 
L 776.715531 346.307193 
L 777.708237 343.896227 
L 778.700943 351.67719 
L 779.693649 365.672482 
L 780.686355 363.986018 
L 781.679061 354.731974 
L 782.671767 355.164247 
L 783.664473 368.016974 
L 784.657178 396.838 
L 785.649884 388.22586 
L 786.64259 374.91786 
L 787.635296 380.115462 
L 788.628002 405.809531 
L 789.620708 416.66101 
L 790.613414 392.444085 
L 791.60612 398.481154 
L 792.598826 463.592355 
L 793.591532 397.981054 
L 794.584238 374.011863 
L 795.576944 370.548789 
L 796.56965 385.656352 
L 797.562355 403.979839 
L 798.555061 376.763155 
L 799.547767 363.26535 
L 800.540473 363.880234 
L 801.533179 378.845445 
L 802.525885 397.743059 
L 803.518591 377.581401 
L 804.511297 366.894024 
L 805.504003 370.765529 
L 806.496709 391.296308 
L 807.489415 449.988911 
L 808.482121 397.352398 
L 809.474827 386.870811 
L 811.460238 405.435158 
L 812.452944 397.233088 
L 813.44565 397.285114 
L 814.438356 437.207687 
L 816.423768 375.607121 
L 817.416474 366.792121 
L 818.40918 371.012536 
L 819.401886 388.663292 
L 820.394592 377.422224 
L 821.387298 360.397149 
L 822.380004 354.745291 
L 823.372709 361.06786 
L 824.365415 374.971394 
L 825.358121 367.764275 
L 826.350827 355.9157 
L 827.343533 353.094702 
L 828.336239 362.931974 
L 829.328945 378.799255 
L 831.314357 359.871762 
L 832.307063 361.612861 
L 833.299769 378.364475 
L 834.292475 398.35902 
L 835.285181 376.190941 
L 836.277886 368.638685 
L 837.270592 378.662326 
L 838.263298 411.24385 
L 839.256004 384.470796 
L 840.24871 366.910944 
L 841.241416 367.360997 
L 842.234122 383.972965 
L 843.226828 381.781468 
L 844.219534 361.408821 
L 845.21224 354.401659 
L 846.204946 358.994252 
L 847.197652 369.406032 
L 848.190358 363.106944 
L 849.183064 351.133237 
L 850.175769 347.818022 
L 851.168475 355.345025 
L 852.161181 364.994874 
L 853.153887 358.420704 
L 854.146593 349.396989 
L 855.139299 349.030992 
L 856.132005 358.659208 
L 857.124711 370.933746 
L 859.110123 354.329564 
L 860.102829 358.077889 
L 862.088241 388.144411 
L 863.080946 371.508944 
L 864.073652 366.054323 
L 865.066358 375.097039 
L 866.059064 406.915226 
L 868.044476 369.376793 
L 869.037182 370.464503 
L 870.029888 389.507876 
L 871.022594 390.822304 
L 872.0153 367.814985 
L 873.008006 360.547617 
L 874.000712 367.153805 
L 874.993418 382.290602 
L 875.986123 373.18848 
L 876.978829 358.74916 
L 877.971535 356.241916 
L 878.964241 365.976803 
L 879.956947 379.022285 
L 881.942359 358.256047 
L 882.935065 359.98309 
L 883.927771 373.385851 
L 884.920477 389.295003 
L 885.913183 375.549887 
L 886.905889 365.555442 
L 887.898595 370.615924 
L 888.8913 394.223303 
L 889.884006 421.729572 
L 890.876712 386.645818 
L 891.869418 381.097392 
L 892.862124 396.507287 
L 893.85483 470.518804 
L 894.847536 400.227484 
L 895.840242 386.410646 
L 896.832948 395.279459 
L 897.825654 474.422988 
L 898.81836 400.757171 
L 899.811066 379.863599 
L 900.803772 378.088333 
L 901.796477 393.699086 
L 902.789183 418.341242 
L 903.781889 383.641757 
L 904.774595 372.135917 
L 905.767301 374.038695 
L 907.752713 411.628881 
L 908.745419 383.482646 
L 909.738125 374.454603 
L 910.730831 379.470187 
L 911.723537 404.375675 
L 912.716243 434.243933 
L 913.708949 393.174173 
L 914.701655 385.694827 
L 915.69436 395.396048 
L 916.687066 428.289925 
L 917.679772 420.750443 
L 918.672478 401.926961 
L 919.665184 409.401355 
L 920.65789 421.998667 
L 921.650596 405.360238 
L 922.643302 391.807274 
L 923.636008 396.822477 
L 924.628714 433.03295 
L 925.62142 420.830407 
L 926.614126 388.81078 
L 927.606832 380.109331 
L 928.599537 388.241941 
L 929.592243 419.953164 
L 930.584949 410.289735 
L 931.577655 381.457505 
L 932.570361 377.402719 
L 933.563067 387.564328 
L 934.555773 423.425387 
L 935.548479 415.024435 
L 936.541185 387.938251 
L 937.533891 383.494979 
L 938.526597 395.581885 
L 939.519303 434.951932 
L 940.512009 422.202049 
L 941.504714 397.231741 
L 942.49742 398.18115 
L 943.490126 410.82604 
L 944.482832 414.196226 
L 945.475538 408.262291 
L 946.468244 408.755469 
L 947.46095 423.233164 
L 948.453656 415.426461 
L 949.446362 399.000705 
L 950.439068 392.709996 
L 951.431774 406.518871 
L 952.42448 464.936618 
L 953.417186 411.984431 
L 954.409891 391.155084 
L 955.402597 386.833385 
L 956.395303 400.984521 
L 957.388009 472.812388 
L 958.380715 411.633427 
L 959.373421 392.149104 
L 960.366127 389.074722 
L 961.358833 403.307742 
L 962.351539 440.07196 
L 963.344245 423.16239 
L 964.336951 397.69012 
L 965.329657 394.177591 
L 966.322363 401.721368 
L 967.315068 419.868802 
L 968.307774 427.420032 
L 969.30048 412.757157 
L 971.285892 402.812182 
L 972.278598 405.015732 
L 973.271304 410.272899 
L 974.26401 427.207728 
L 975.256716 419.821723 
L 976.249422 404.307034 
L 977.242128 398.434662 
L 978.234834 403.358935 
L 979.22754 427.6173 
L 980.220246 432.160958 
L 981.212951 407.835803 
L 982.205657 398.218841 
L 983.198363 399.589847 
L 984.191069 412.683116 
L 985.183775 439.473079 
L 986.176481 416.038267 
L 987.169187 402.500888 
L 988.161893 398.702521 
L 989.154599 406.055437 
L 990.147305 428.993827 
L 991.140011 423.664159 
L 992.132717 407.178951 
L 993.125423 400.481221 
L 994.118128 401.43674 
L 996.10354 423.812622 
L 997.096246 414.824489 
L 998.088952 407.487984 
L 999.081658 403.556139 
L 1000.074364 407.142353 
L 1001.06707 413.700764 
L 1002.059776 418.263783 
L 1003.052482 419.859902 
L 1004.045188 410.225059 
L 1005.037894 402.367826 
L 1006.0306 401.776966 
L 1007.023305 410.670746 
L 1008.016011 435.741751 
L 1009.008717 419.903809 
L 1010.001423 399.765566 
L 1010.994129 392.462538 
L 1011.986835 401.583777 
L 1012.979541 439.839184 
L 1013.972247 432.322099 
L 1014.964953 396.119712 
L 1015.957659 387.534323 
L 1016.950365 396.95343 
L 1017.943071 435.310495 
L 1018.935777 425.649746 
L 1019.928482 395.190415 
L 1020.921188 388.544998 
L 1021.913894 400.299384 
L 1022.9066 444.978892 
L 1024.892012 395.342661 
L 1025.884718 395.014233 
L 1026.877424 414.82003 
L 1027.87013 442.520038 
L 1028.862836 403.256383 
L 1029.855542 393.46393 
L 1030.848248 402.140543 
L 1031.840954 457.330682 
L 1032.833659 411.886439 
L 1033.826365 387.572201 
L 1034.819071 387.161734 
L 1035.811777 405.014711 
L 1036.804483 436.190273 
L 1037.797189 393.95691 
L 1038.789895 378.720719 
L 1039.782601 379.83161 
L 1040.775307 401.212064 
L 1041.768013 410.299885 
L 1042.760719 382.513851 
L 1043.753425 373.088818 
L 1044.746131 378.755047 
L 1045.738837 402.924809 
L 1046.731542 402.734243 
L 1047.724248 379.769075 
L 1048.716954 373.967608 
L 1049.70966 384.397036 
L 1050.702366 412.668034 
L 1051.695072 398.478576 
L 1052.687778 379.146931 
L 1053.680484 379.008387 
L 1054.67319 396.556909 
L 1055.665896 432.220026 
L 1056.658602 391.588324 
L 1057.651308 378.56109 
L 1058.644014 385.404934 
L 1059.636719 415.069622 
L 1060.629425 404.081451 
L 1061.622131 379.31847 
L 1062.614837 375.266868 
L 1063.607543 386.691536 
L 1064.600249 408.676914 
L 1065.592955 387.314122 
L 1066.585661 372.364518 
L 1067.578367 372.624576 
L 1068.571073 388.253359 
L 1069.563779 399.660706 
L 1070.556485 378.214828 
L 1071.549191 369.224461 
L 1072.541896 373.592863 
L 1073.534602 392.327969 
L 1074.527308 398.195003 
L 1075.520014 378.283246 
L 1076.51272 371.441284 
L 1077.505426 379.620474 
L 1078.498132 405.353361 
L 1079.490838 403.488723 
L 1080.483544 381.59174 
L 1081.47625 379.297048 
L 1082.468956 395.06752 
L 1083.461662 443.538372 
L 1084.454368 399.026724 
L 1085.447073 385.463173 
L 1086.439779 390.5764 
L 1087.432485 426.073658 
L 1088.425191 420.7166 
L 1089.417897 388.601569 
L 1090.410603 383.5451 
L 1091.403309 398.491167 
L 1092.396015 438.217611 
L 1093.388721 398.910507 
L 1094.381427 381.280014 
L 1095.374133 382.04512 
L 1096.366839 402.195532 
L 1097.359545 428.80639 
L 1098.35225 391.379611 
L 1099.344956 380.796977 
L 1100.337662 385.889035 
L 1102.323074 435.330982 
L 1103.31578 395.882141 
L 1104.308486 387.538975 
L 1105.301192 395.933455 
L 1106.293898 425.743928 
L 1107.286604 440.709901 
L 1108.27931 407.795082 
L 1109.272016 403.158921 
L 1110.264722 407.459072 
L 1111.257428 414.87052 
L 1112.250133 412.650248 
L 1113.242839 421.00808 
L 1114.235545 437.159861 
L 1115.228251 409.846074 
L 1116.220957 395.422174 
L 1117.213663 396.799965 
L 1118.206369 418.536538 
L 1119.199075 492.48 
L 1120.191781 405.502601 
L 1121.184487 391.320546 
L 1122.177193 391.690789 
L 1123.169899 415.903245 
L 1124.162605 451.316308 
L 1125.15531 402.660298 
L 1126.148016 392.705049 
L 1127.140722 400.968176 
L 1128.133428 440.305855 
L 1130.11884 399.117931 
L 1131.111546 402.342372 
L 1132.104252 432.622813 
L 1133.096958 426.666602 
L 1134.089664 396.067284 
L 1135.08237 390.470947 
L 1136.075076 406.536385 
L 1137.067782 452.014347 
L 1138.060487 395.421087 
L 1139.053193 379.919786 
L 1140.045899 379.436661 
L 1141.038605 398.088433 
L 1142.031311 405.979617 
L 1143.024017 380.27819 
L 1144.016723 371.077137 
L 1145.009429 373.944723 
L 1146.002135 392.382141 
L 1146.994841 395.923245 
L 1147.987547 374.984462 
L 1148.980253 369.568591 
L 1149.972959 375.738741 
L 1150.965664 396.842575 
L 1151.95837 395.071714 
L 1152.951076 376.947901 
L 1153.943782 372.969429 
L 1154.936488 383.517493 
L 1155.929194 413.675207 
L 1156.9219 394.779004 
L 1157.914606 378.885838 
L 1158.907312 381.310946 
L 1159.900018 401.718679 
L 1160.892724 416.841626 
L 1161.88543 385.969873 
L 1162.878136 376.652857 
L 1163.870841 385.871179 
L 1164.863547 412.973565 
L 1166.848959 374.373955 
L 1167.841665 372.199041 
L 1168.834371 383.578182 
L 1169.827077 397.306863 
L 1170.819783 378.363654 
L 1171.812489 366.482033 
L 1172.805195 367.853917 
L 1173.797901 381.523651 
L 1174.790607 390.906735 
L 1175.783313 373.620875 
L 1176.776019 365.748674 
L 1177.768724 370.021613 
L 1178.76143 385.843468 
L 1179.754136 392.109942 
L 1180.746842 375.996416 
L 1181.739548 369.024831 
L 1182.732254 376.197609 
L 1183.72496 397.815895 
L 1184.717666 403.795405 
L 1185.710372 382.097689 
L 1186.703078 377.796848 
L 1187.695784 389.900194 
L 1188.68849 431.150861 
L 1189.681196 406.199269 
L 1190.673901 387.583147 
L 1191.666607 389.460513 
L 1192.659313 416.687161 
L 1193.652019 434.032371 
L 1194.644725 392.123627 
L 1195.637431 383.308443 
L 1196.630137 392.726702 
L 1197.622843 432.489735 
L 1198.615549 404.138181 
L 1199.608255 382.062495 
L 1200.600961 378.602944 
L 1201.593667 391.979345 
L 1202.586373 416.752941 
L 1203.579078 394.439162 
L 1204.571784 377.152658 
L 1205.56449 375.803189 
L 1206.557196 388.517389 
L 1207.549902 414.689393 
L 1209.535314 378.793455 
L 1210.52802 377.077306 
L 1211.520726 390.434279 
L 1212.513432 421.06031 
L 1213.506138 400.747864 
L 1214.498844 383.709855 
L 1215.49155 382.300445 
L 1216.484255 396.873511 
L 1217.476961 447.661708 
L 1218.469667 414.22011 
L 1219.462373 393.540925 
L 1220.455079 391.713137 
L 1221.447785 403.618643 
L 1222.440491 445.650485 
L 1223.433197 423.547453 
L 1224.425903 404.500141 
L 1225.418609 404.224496 
L 1226.411315 419.511848 
L 1227.404021 421.069482 
L 1228.396727 410.371138 
L 1229.389432 405.667282 
L 1230.382138 421.373881 
L 1231.374844 441.135687 
L 1232.36755 408.101961 
L 1233.360256 394.899015 
L 1234.352962 395.846744 
L 1235.345668 416.914605 
L 1236.338374 457.518243 
L 1237.33108 401.752959 
L 1238.323786 386.48694 
L 1239.316492 387.676479 
L 1240.309198 408.613091 
L 1241.301904 441.291808 
L 1242.29461 396.659946 
L 1243.287315 382.417691 
L 1244.280021 383.021067 
L 1245.272727 398.352861 
L 1245.272727 398.352861 
" clip-path="url(#paaa3f40694)" style="fill: none; stroke: #1f77b4; stroke-width: 1.5; stroke-linecap: square"/>
   </g>
   <g id="patch_3">
    <path d="M 180 512.64 
L 180 69.12 
" style="fill: none; stroke: #000000; stroke-width: 0.8; stroke-linejoin: miter; stroke-linecap: square"/>
   </g>
   <g id="patch_4">
    <path d="M 1296 512.64 
L 1296 69.12 
" style="fill: none; stroke: #000000; stroke-width: 0.8; stroke-linejoin: miter; stroke-linecap: square"/>
   </g>
   <g id="patch_5">
    <path d="M 180 512.64 
L 1296 512.64 
" style="fill: none; stroke: #000000; stroke-width: 0.8; stroke-linejoin: miter; stroke-linecap: square"/>
   </g>
   <g id="patch_6">
    <path d="M 180 69.12 
L 1296 69.12 
" style="fill: none; stroke: #000000; stroke-width: 0.8; stroke-linejoin: miter; stroke-linecap: square"/>
   </g>
   <g id="text_13">
    <!-- source15-receiver18 -->
    <g transform="translate(532.175 60.80125) scale(0.4 -0.4)">
     <defs>
      <path id="DejaVuSans-73" d="M 2834 3397 
L 2834 2853 
Q 2591 2978 2328 3040 
Q 2066 3103 1784 3103 
Q 1356 3103 1142 2972 
Q 928 2841 928 2578 
Q 928 2378 1081 2264 
Q 1234 2150 1697 2047 
L 1894 2003 
Q 2506 1872 2764 1633 
Q 3022 1394 3022 966 
Q 3022 478 2636 193 
Q 2250 -91 1575 -91 
Q 1294 -91 989 -36 
Q 684 19 347 128 
L 347 722 
Q 666 556 975 473 
Q 1284 391 1588 391 
Q 1994 391 2212 530 
Q 2431 669 2431 922 
Q 2431 1156 2273 1281 
Q 2116 1406 1581 1522 
L 1381 1569 
Q 847 1681 609 1914 
Q 372 2147 372 2553 
Q 372 3047 722 3315 
Q 1072 3584 1716 3584 
Q 2034 3584 2315 3537 
Q 2597 3491 2834 3397 
z
" transform="scale(0.015625)"/>
      <path id="DejaVuSans-6f" d="M 1959 3097 
Q 1497 3097 1228 2736 
Q 959 2375 959 1747 
Q 959 1119 1226 758 
Q 1494 397 1959 397 
Q 2419 397 2687 759 
Q 2956 1122 2956 1747 
Q 2956 2369 2687 2733 
Q 2419 3097 1959 3097 
z
M 1959 3584 
Q 2709 3584 3137 3096 
Q 3566 2609 3566 1747 
Q 3566 888 3137 398 
Q 2709 -91 1959 -91 
Q 1206 -91 779 398 
Q 353 888 353 1747 
Q 353 2609 779 3096 
Q 1206 3584 1959 3584 
z
" transform="scale(0.015625)"/>
      <path id="DejaVuSans-75" d="M 544 1381 
L 544 3500 
L 1119 3500 
L 1119 1403 
Q 1119 906 1312 657 
Q 1506 409 1894 409 
Q 2359 409 2629 706 
Q 2900 1003 2900 1516 
L 2900 3500 
L 3475 3500 
L 3475 0 
L 2900 0 
L 2900 538 
Q 2691 219 2414 64 
Q 2138 -91 1772 -91 
Q 1169 -91 856 284 
Q 544 659 544 1381 
z
M 1991 3584 
L 1991 3584 
z
" transform="scale(0.015625)"/>
      <path id="DejaVuSans-72" d="M 2631 2963 
Q 2534 3019 2420 3045 
Q 2306 3072 2169 3072 
Q 1681 3072 1420 2755 
Q 1159 2438 1159 1844 
L 1159 0 
L 581 0 
L 581 3500 
L 1159 3500 
L 1159 2956 
Q 1341 3275 1631 3429 
Q 1922 3584 2338 3584 
Q 2397 3584 2469 3576 
Q 2541 3569 2628 3553 
L 2631 2963 
z
" transform="scale(0.015625)"/>
      <path id="DejaVuSans-63" d="M 3122 3366 
L 3122 2828 
Q 2878 2963 2633 3030 
Q 2388 3097 2138 3097 
Q 1578 3097 1268 2742 
Q 959 2388 959 1747 
Q 959 1106 1268 751 
Q 1578 397 2138 397 
Q 2388 397 2633 464 
Q 2878 531 3122 666 
L 3122 134 
Q 2881 22 2623 -34 
Q 2366 -91 2075 -91 
Q 1284 -91 818 406 
Q 353 903 353 1747 
Q 353 2603 823 3093 
Q 1294 3584 2113 3584 
Q 2378 3584 2631 3529 
Q 2884 3475 3122 3366 
z
" transform="scale(0.015625)"/>
      <path id="DejaVuSans-65" d="M 3597 1894 
L 3597 1613 
L 953 1613 
Q 991 1019 1311 708 
Q 1631 397 2203 397 
Q 2534 397 2845 478 
Q 3156 559 3463 722 
L 3463 178 
Q 3153 47 2828 -22 
Q 2503 -91 2169 -91 
Q 1331 -91 842 396 
Q 353 884 353 1716 
Q 353 2575 817 3079 
Q 1281 3584 2069 3584 
Q 2775 3584 3186 3129 
Q 3597 2675 3597 1894 
z
M 3022 2063 
Q 3016 2534 2758 2815 
Q 2500 3097 2075 3097 
Q 1594 3097 1305 2825 
Q 1016 2553 972 2059 
L 3022 2063 
z
" transform="scale(0.015625)"/>
      <path id="DejaVuSans-2d" d="M 313 2009 
L 1997 2009 
L 1997 1497 
L 313 1497 
L 313 2009 
z
" transform="scale(0.015625)"/>
      <path id="DejaVuSans-69" d="M 603 3500 
L 1178 3500 
L 1178 0 
L 603 0 
L 603 3500 
z
M 603 4863 
L 1178 4863 
L 1178 4134 
L 603 4134 
L 603 4863 
z
" transform="scale(0.015625)"/>
      <path id="DejaVuSans-76" d="M 191 3500 
L 800 3500 
L 1894 563 
L 2988 3500 
L 3597 3500 
L 2284 0 
L 1503 0 
L 191 3500 
z
" transform="scale(0.015625)"/>
      <path id="DejaVuSans-38" d="M 2034 2216 
Q 1584 2216 1326 1975 
Q 1069 1734 1069 1313 
Q 1069 891 1326 650 
Q 1584 409 2034 409 
Q 2484 409 2743 651 
Q 3003 894 3003 1313 
Q 3003 1734 2745 1975 
Q 2488 2216 2034 2216 
z
M 1403 2484 
Q 997 2584 770 2862 
Q 544 3141 544 3541 
Q 544 4100 942 4425 
Q 1341 4750 2034 4750 
Q 2731 4750 3128 4425 
Q 3525 4100 3525 3541 
Q 3525 3141 3298 2862 
Q 3072 2584 2669 2484 
Q 3125 2378 3379 2068 
Q 3634 1759 3634 1313 
Q 3634 634 3220 271 
Q 2806 -91 2034 -91 
Q 1263 -91 848 271 
Q 434 634 434 1313 
Q 434 1759 690 2068 
Q 947 2378 1403 2484 
z
M 1172 3481 
Q 1172 3119 1398 2916 
Q 1625 2713 2034 2713 
Q 2441 2713 2670 2916 
Q 2900 3119 2900 3481 
Q 2900 3844 2670 4047 
Q 2441 4250 2034 4250 
Q 1625 4250 1398 4047 
Q 1172 3844 1172 3481 
z
" transform="scale(0.015625)"/>
     </defs>
     <use xlink:href="#DejaVuSans-73"/>
     <use xlink:href="#DejaVuSans-6f" x="52.099609"/>
     <use xlink:href="#DejaVuSans-75" x="113.28125"/>
     <use xlink:href="#DejaVuSans-72" x="176.660156"/>
     <use xlink:href="#DejaVuSans-63" x="215.523438"/>
     <use xlink:href="#DejaVuSans-65" x="270.503906"/>
     <use xlink:href="#DejaVuSans-31" x="332.027344"/>
     <use xlink:href="#DejaVuSans-35" x="395.650391"/>
     <use xlink:href="#DejaVuSans-2d" x="459.273438"/>
     <use xlink:href="#DejaVuSans-72" x="495.357422"/>
     <use xlink:href="#DejaVuSans-65" x="534.220703"/>
     <use xlink:href="#DejaVuSans-63" x="595.744141"/>
     <use xlink:href="#DejaVuSans-65" x="650.724609"/>
     <use xlink:href="#DejaVuSans-69" x="712.248047"/>
     <use xlink:href="#DejaVuSans-76" x="740.03125"/>
     <use xlink:href="#DejaVuSans-65" x="799.210938"/>
     <use xlink:href="#DejaVuSans-72" x="860.734375"/>
     <use xlink:href="#DejaVuSans-31" x="901.847656"/>
     <use xlink:href="#DejaVuSans-38" x="965.470703"/>
    </g>
   </g>
  </g>
 </g>
 <defs>
  <clipPath id="paaa3f40694">
   <rect x="180" y="69.12" width="1116" height="443.52"/>
  </clipPath>
 </defs>
</svg>
