<?xml version="1.0" encoding="utf-8" standalone="no"?>
<!DOCTYPE svg PUBLIC "-//W3C//DTD SVG 1.1//EN"
  "http://www.w3.org/Graphics/SVG/1.1/DTD/svg11.dtd">
<svg xmlns:xlink="http://www.w3.org/1999/xlink" width="1440pt" height="576pt" viewBox="0 0 1440 576" xmlns="http://www.w3.org/2000/svg" version="1.1">
 <metadata>
  <rdf:RDF xmlns:dc="http://purl.org/dc/elements/1.1/" xmlns:cc="http://creativecommons.org/ns#" xmlns:rdf="http://www.w3.org/1999/02/22-rdf-syntax-ns#">
   <cc:Work>
    <dc:type rdf:resource="http://purl.org/dc/dcmitype/StillImage"/>
    <dc:date>2024-05-22T04:50:08.883528</dc:date>
    <dc:format>image/svg+xml</dc:format>
    <dc:creator>
     <cc:Agent>
      <dc:title>Matplotlib v3.8.3, https://matplotlib.org/</dc:title>
     </cc:Agent>
    </dc:creator>
   </cc:Work>
  </rdf:RDF>
 </metadata>
 <defs>
  <style type="text/css">*{stroke-linejoin: round; stroke-linecap: butt}</style>
 </defs>
 <g id="figure_1">
  <g id="patch_1">
   <path d="M 0 576 
L 1440 576 
L 1440 0 
L 0 0 
z
" style="fill: #ffffff"/>
  </g>
  <g id="axes_1">
   <g id="patch_2">
    <path d="M 180 512.64 
L 1296 512.64 
L 1296 69.12 
L 180 69.12 
z
" style="fill: #ffffff"/>
   </g>
   <g id="matplotlib.axis_1">
    <g id="xtick_1">
     <g id="line2d_1">
      <defs>
       <path id="mc1211c73de" d="M 0 0 
L 0 3.5 
" style="stroke: #000000; stroke-width: 0.8"/>
      </defs>
      <g>
       <use xlink:href="#mc1211c73de" x="229.734567" y="512.64" style="stroke: #000000; stroke-width: 0.8"/>
      </g>
     </g>
     <g id="text_1">
      <!-- 0 -->
      <g transform="translate(226.553317 527.238438) scale(0.1 -0.1)">
       <defs>
        <path id="DejaVuSans-30" d="M 2034 4250 
Q 1547 4250 1301 3770 
Q 1056 3291 1056 2328 
Q 1056 1369 1301 889 
Q 1547 409 2034 409 
Q 2525 409 2770 889 
Q 3016 1369 3016 2328 
Q 3016 3291 2770 3770 
Q 2525 4250 2034 4250 
z
M 2034 4750 
Q 2819 4750 3233 4129 
Q 3647 3509 3647 2328 
Q 3647 1150 3233 529 
Q 2819 -91 2034 -91 
Q 1250 -91 836 529 
Q 422 1150 422 2328 
Q 422 3509 836 4129 
Q 1250 4750 2034 4750 
z
" transform="scale(0.015625)"/>
       </defs>
       <use xlink:href="#DejaVuSans-30"/>
      </g>
     </g>
    </g>
    <g id="xtick_2">
     <g id="line2d_2">
      <g>
       <use xlink:href="#mc1211c73de" x="433.04074" y="512.64" style="stroke: #000000; stroke-width: 0.8"/>
      </g>
     </g>
     <g id="text_2">
      <!-- 500 -->
      <g transform="translate(423.49699 527.238438) scale(0.1 -0.1)">
       <defs>
        <path id="DejaVuSans-35" d="M 691 4666 
L 3169 4666 
L 3169 4134 
L 1269 4134 
L 1269 2991 
Q 1406 3038 1543 3061 
Q 1681 3084 1819 3084 
Q 2600 3084 3056 2656 
Q 3513 2228 3513 1497 
Q 3513 744 3044 326 
Q 2575 -91 1722 -91 
Q 1428 -91 1123 -41 
Q 819 9 494 109 
L 494 744 
Q 775 591 1075 516 
Q 1375 441 1709 441 
Q 2250 441 2565 725 
Q 2881 1009 2881 1497 
Q 2881 1984 2565 2268 
Q 2250 2553 1709 2553 
Q 1456 2553 1204 2497 
Q 953 2441 691 2322 
L 691 4666 
z
" transform="scale(0.015625)"/>
       </defs>
       <use xlink:href="#DejaVuSans-35"/>
       <use xlink:href="#DejaVuSans-30" x="63.623047"/>
       <use xlink:href="#DejaVuSans-30" x="127.246094"/>
      </g>
     </g>
    </g>
    <g id="xtick_3">
     <g id="line2d_3">
      <g>
       <use xlink:href="#mc1211c73de" x="636.346913" y="512.64" style="stroke: #000000; stroke-width: 0.8"/>
      </g>
     </g>
     <g id="text_3">
      <!-- 1000 -->
      <g transform="translate(623.621913 527.238438) scale(0.1 -0.1)">
       <defs>
        <path id="DejaVuSans-31" d="M 794 531 
L 1825 531 
L 1825 4091 
L 703 3866 
L 703 4441 
L 1819 4666 
L 2450 4666 
L 2450 531 
L 3481 531 
L 3481 0 
L 794 0 
L 794 531 
z
" transform="scale(0.015625)"/>
       </defs>
       <use xlink:href="#DejaVuSans-31"/>
       <use xlink:href="#DejaVuSans-30" x="63.623047"/>
       <use xlink:href="#DejaVuSans-30" x="127.246094"/>
       <use xlink:href="#DejaVuSans-30" x="190.869141"/>
      </g>
     </g>
    </g>
    <g id="xtick_4">
     <g id="line2d_4">
      <g>
       <use xlink:href="#mc1211c73de" x="839.653087" y="512.64" style="stroke: #000000; stroke-width: 0.8"/>
      </g>
     </g>
     <g id="text_4">
      <!-- 1500 -->
      <g transform="translate(826.928087 527.238438) scale(0.1 -0.1)">
       <use xlink:href="#DejaVuSans-31"/>
       <use xlink:href="#DejaVuSans-35" x="63.623047"/>
       <use xlink:href="#DejaVuSans-30" x="127.246094"/>
       <use xlink:href="#DejaVuSans-30" x="190.869141"/>
      </g>
     </g>
    </g>
    <g id="xtick_5">
     <g id="line2d_5">
      <g>
       <use xlink:href="#mc1211c73de" x="1042.95926" y="512.64" style="stroke: #000000; stroke-width: 0.8"/>
      </g>
     </g>
     <g id="text_5">
      <!-- 2000 -->
      <g transform="translate(1030.23426 527.238438) scale(0.1 -0.1)">
       <defs>
        <path id="DejaVuSans-32" d="M 1228 531 
L 3431 531 
L 3431 0 
L 469 0 
L 469 531 
Q 828 903 1448 1529 
Q 2069 2156 2228 2338 
Q 2531 2678 2651 2914 
Q 2772 3150 2772 3378 
Q 2772 3750 2511 3984 
Q 2250 4219 1831 4219 
Q 1534 4219 1204 4116 
Q 875 4013 500 3803 
L 500 4441 
Q 881 4594 1212 4672 
Q 1544 4750 1819 4750 
Q 2544 4750 2975 4387 
Q 3406 4025 3406 3419 
Q 3406 3131 3298 2873 
Q 3191 2616 2906 2266 
Q 2828 2175 2409 1742 
Q 1991 1309 1228 531 
z
" transform="scale(0.015625)"/>
       </defs>
       <use xlink:href="#DejaVuSans-32"/>
       <use xlink:href="#DejaVuSans-30" x="63.623047"/>
       <use xlink:href="#DejaVuSans-30" x="127.246094"/>
       <use xlink:href="#DejaVuSans-30" x="190.869141"/>
      </g>
     </g>
    </g>
    <g id="xtick_6">
     <g id="line2d_6">
      <g>
       <use xlink:href="#mc1211c73de" x="1246.265433" y="512.64" style="stroke: #000000; stroke-width: 0.8"/>
      </g>
     </g>
     <g id="text_6">
      <!-- 2500 -->
      <g transform="translate(1233.540433 527.238438) scale(0.1 -0.1)">
       <use xlink:href="#DejaVuSans-32"/>
       <use xlink:href="#DejaVuSans-35" x="63.623047"/>
       <use xlink:href="#DejaVuSans-30" x="127.246094"/>
       <use xlink:href="#DejaVuSans-30" x="190.869141"/>
      </g>
     </g>
    </g>
   </g>
   <g id="matplotlib.axis_2">
    <g id="ytick_1">
     <g id="line2d_7">
      <defs>
       <path id="m629dd96e3a" d="M 0 0 
L -3.5 0 
" style="stroke: #000000; stroke-width: 0.8"/>
      </defs>
      <g>
       <use xlink:href="#m629dd96e3a" x="180" y="504.519845" style="stroke: #000000; stroke-width: 0.8"/>
      </g>
     </g>
     <g id="text_7">
      <!-- −4 -->
      <g transform="translate(158.257812 508.319063) scale(0.1 -0.1)">
       <defs>
        <path id="DejaVuSans-2212" d="M 678 2272 
L 4684 2272 
L 4684 1741 
L 678 1741 
L 678 2272 
z
" transform="scale(0.015625)"/>
        <path id="DejaVuSans-34" d="M 2419 4116 
L 825 1625 
L 2419 1625 
L 2419 4116 
z
M 2253 4666 
L 3047 4666 
L 3047 1625 
L 3713 1625 
L 3713 1100 
L 3047 1100 
L 3047 0 
L 2419 0 
L 2419 1100 
L 313 1100 
L 313 1709 
L 2253 4666 
z
" transform="scale(0.015625)"/>
       </defs>
       <use xlink:href="#DejaVuSans-2212"/>
       <use xlink:href="#DejaVuSans-34" x="83.789062"/>
      </g>
     </g>
    </g>
    <g id="ytick_2">
     <g id="line2d_8">
      <g>
       <use xlink:href="#m629dd96e3a" x="180" y="421.945304" style="stroke: #000000; stroke-width: 0.8"/>
      </g>
     </g>
     <g id="text_8">
      <!-- −2 -->
      <g transform="translate(158.257812 425.744523) scale(0.1 -0.1)">
       <use xlink:href="#DejaVuSans-2212"/>
       <use xlink:href="#DejaVuSans-32" x="83.789062"/>
      </g>
     </g>
    </g>
    <g id="ytick_3">
     <g id="line2d_9">
      <g>
       <use xlink:href="#m629dd96e3a" x="180" y="339.370764" style="stroke: #000000; stroke-width: 0.8"/>
      </g>
     </g>
     <g id="text_9">
      <!-- 0 -->
      <g transform="translate(166.6375 343.169983) scale(0.1 -0.1)">
       <use xlink:href="#DejaVuSans-30"/>
      </g>
     </g>
    </g>
    <g id="ytick_4">
     <g id="line2d_10">
      <g>
       <use xlink:href="#m629dd96e3a" x="180" y="256.796224" style="stroke: #000000; stroke-width: 0.8"/>
      </g>
     </g>
     <g id="text_10">
      <!-- 2 -->
      <g transform="translate(166.6375 260.595443) scale(0.1 -0.1)">
       <use xlink:href="#DejaVuSans-32"/>
      </g>
     </g>
    </g>
    <g id="ytick_5">
     <g id="line2d_11">
      <g>
       <use xlink:href="#m629dd96e3a" x="180" y="174.221684" style="stroke: #000000; stroke-width: 0.8"/>
      </g>
     </g>
     <g id="text_11">
      <!-- 4 -->
      <g transform="translate(166.6375 178.020902) scale(0.1 -0.1)">
       <use xlink:href="#DejaVuSans-34"/>
      </g>
     </g>
    </g>
    <g id="ytick_6">
     <g id="line2d_12">
      <g>
       <use xlink:href="#m629dd96e3a" x="180" y="91.647143" style="stroke: #000000; stroke-width: 0.8"/>
      </g>
     </g>
     <g id="text_12">
      <!-- 6 -->
      <g transform="translate(166.6375 95.446362) scale(0.1 -0.1)">
       <defs>
        <path id="DejaVuSans-36" d="M 2113 2584 
Q 1688 2584 1439 2293 
Q 1191 2003 1191 1497 
Q 1191 994 1439 701 
Q 1688 409 2113 409 
Q 2538 409 2786 701 
Q 3034 994 3034 1497 
Q 3034 2003 2786 2293 
Q 2538 2584 2113 2584 
z
M 3366 4563 
L 3366 3988 
Q 3128 4100 2886 4159 
Q 2644 4219 2406 4219 
Q 1781 4219 1451 3797 
Q 1122 3375 1075 2522 
Q 1259 2794 1537 2939 
Q 1816 3084 2150 3084 
Q 2853 3084 3261 2657 
Q 3669 2231 3669 1497 
Q 3669 778 3244 343 
Q 2819 -91 2113 -91 
Q 1303 -91 875 529 
Q 447 1150 447 2328 
Q 447 3434 972 4092 
Q 1497 4750 2381 4750 
Q 2619 4750 2861 4703 
Q 3103 4656 3366 4563 
z
" transform="scale(0.015625)"/>
       </defs>
       <use xlink:href="#DejaVuSans-36"/>
      </g>
     </g>
    </g>
   </g>
   <g id="line2d_13">
    <path d="M 230.727273 289.219263 
L 231.719979 282.696022 
L 232.712685 311.655398 
L 233.70539 297.223498 
L 234.698096 297.056446 
L 235.690802 284.604797 
L 236.683508 304.397073 
L 237.676214 296.936034 
L 238.66892 291.534164 
L 239.661626 284.554799 
L 240.654332 298.160263 
L 241.647038 296.516948 
L 242.639744 280.447125 
L 243.63245 284.918145 
L 244.625156 291.592979 
L 245.617862 282.227498 
L 246.610568 269.61501 
L 247.603273 275.767744 
L 248.595979 297.949609 
L 249.588685 249.192602 
L 250.581391 234.821375 
L 251.574097 214.321319 
L 252.566803 191.063141 
L 253.559509 193.582067 
L 254.552215 195.296803 
L 255.544921 186.576722 
L 256.537627 211.747313 
L 257.530333 233.670213 
L 258.523039 203.951487 
L 259.515745 228.275708 
L 260.50845 214.176773 
L 261.501156 223.099747 
L 262.493862 219.249414 
L 263.486568 206.063851 
L 264.479274 208.994724 
L 265.47198 217.540324 
L 266.464686 196.238869 
L 267.457392 219.158687 
L 268.450098 230.988037 
L 269.442804 198.147423 
L 270.43551 194.548369 
L 271.428216 220.449415 
L 272.420922 212.189962 
L 273.413627 180.480021 
L 274.406333 160.532557 
L 275.399039 177.048057 
L 276.391745 171.893756 
L 277.384451 168.674332 
L 278.377157 190.835543 
L 279.369863 154.18944 
L 280.362569 126.491556 
L 281.355275 127.161207 
L 282.347981 152.303387 
L 283.340687 119.512266 
L 284.333393 112.648114 
L 285.326099 109.051453 
L 286.318804 89.28 
L 287.31151 93.735623 
L 288.304216 132.256793 
L 289.296922 181.714637 
L 290.289628 172.264167 
L 291.282334 144.774627 
L 293.267746 161.137746 
L 294.260452 176.418748 
L 295.253158 170.385452 
L 296.245864 184.89572 
L 297.23857 177.135701 
L 298.231276 177.290851 
L 299.223981 169.769805 
L 300.216687 186.422482 
L 301.209393 211.514072 
L 302.202099 208.193577 
L 303.194805 189.881731 
L 304.187511 192.829134 
L 305.180217 194.005258 
L 306.172923 217.148039 
L 307.165629 221.755463 
L 308.158335 241.596355 
L 309.151041 218.243471 
L 310.143747 220.297127 
L 311.136453 211.675734 
L 312.129159 225.487847 
L 313.121864 247.50533 
L 314.11457 295.935646 
L 315.107276 239.339909 
L 316.099982 236.229498 
L 317.092688 231.132315 
L 318.085394 248.406716 
L 319.0781 312.81296 
L 320.070806 296.294088 
L 321.063512 246.494506 
L 322.056218 252.285648 
L 323.048924 256.765643 
L 324.04163 275.497424 
L 325.034336 286.13149 
L 326.027041 318.037795 
L 327.019747 273.92128 
L 329.005159 256.637423 
L 329.997865 267.958079 
L 330.990571 382.017693 
L 331.983277 303.226764 
L 332.975983 268.039133 
L 333.968689 271.887702 
L 334.961395 293.45063 
L 335.954101 291.35931 
L 336.946807 311.513069 
L 337.939513 311.192224 
L 338.932218 312.752495 
L 339.924924 289.619456 
L 340.91763 315.761053 
L 341.910336 323.725667 
L 342.903042 295.514777 
L 343.895748 292.644427 
L 344.888454 297.570405 
L 345.88116 307.719515 
L 346.873866 320.642943 
L 347.866572 321.157913 
L 348.859278 324.162778 
L 349.851984 309.113621 
L 350.84469 303.056491 
L 351.837395 305.926764 
L 352.830101 330.548765 
L 353.822807 322.678247 
L 354.815513 305.191631 
L 355.808219 315.096314 
L 356.800925 351.862664 
L 357.793631 313.257378 
L 358.786337 321.720351 
L 359.779043 316.558827 
L 360.771749 322.921695 
L 361.764455 285.546377 
L 362.757161 265.503557 
L 363.749867 252.262596 
L 364.742572 252.304138 
L 365.735278 279.85766 
L 366.727984 337.007807 
L 367.72069 276.133126 
L 368.713396 251.014224 
L 369.706102 250.102734 
L 370.698808 254.716343 
L 371.691514 269.093344 
L 372.68422 271.122403 
L 373.676926 249.123597 
L 374.669632 232.072205 
L 375.662338 228.788828 
L 376.655044 234.421563 
L 378.640455 254.114308 
L 379.633161 255.137289 
L 380.625867 249.234015 
L 381.618573 248.416834 
L 382.611279 246.56365 
L 383.603985 240.13229 
L 384.596691 241.529409 
L 385.589397 240.808831 
L 386.582103 232.675344 
L 387.574809 226.627503 
L 388.567515 223.730236 
L 389.560221 220.090793 
L 392.538338 206.446415 
L 393.531044 208.900116 
L 394.52375 211.932561 
L 395.516456 203.584396 
L 396.509162 189.806373 
L 397.501868 179.484292 
L 398.494574 177.275121 
L 399.48728 182.445129 
L 400.479986 198.490448 
L 401.472692 238.3898 
L 402.465398 253.478516 
L 403.458104 218.038393 
L 404.450809 212.496517 
L 405.443515 222.482516 
L 406.436221 248.903264 
L 407.428927 314.487675 
L 408.421633 254.727215 
L 409.414339 239.937692 
L 410.407045 237.495211 
L 411.399751 248.589215 
L 412.392457 265.542109 
L 413.385163 300.366229 
L 414.377869 287.091022 
L 415.370575 278.773171 
L 416.363281 265.49088 
L 418.348692 255.366158 
L 419.341398 268.111918 
L 420.334104 304.944838 
L 421.32681 326.682652 
L 422.319516 277.310432 
L 423.312222 272.537706 
L 424.304928 272.921428 
L 425.297634 283.770562 
L 426.29034 303.041917 
L 427.283046 331.390808 
L 428.275752 287.250773 
L 429.268458 270.642586 
L 430.261163 265.592777 
L 431.253869 279.208647 
L 432.246575 332.569607 
L 433.239281 308.344259 
L 434.231987 280.164895 
L 435.224693 282.362809 
L 436.217399 292.277191 
L 437.210105 304.392446 
L 438.202811 332.924407 
L 439.195517 380.955281 
L 440.188223 310.796866 
L 441.180929 297.050967 
L 442.173635 297.994285 
L 443.166341 309.231293 
L 444.159046 342.725468 
L 445.151752 352.199834 
L 446.144458 338.420266 
L 447.137164 305.598596 
L 448.12987 289.622819 
L 449.122576 288.23635 
L 450.115282 318.949293 
L 451.107988 393.170873 
L 452.100694 305.397651 
L 453.0934 289.941105 
L 455.078812 306.861868 
L 456.071518 333.947371 
L 457.064223 355.088537 
L 458.056929 345.909174 
L 459.049635 303.871851 
L 460.042341 300.39249 
L 461.035047 303.250421 
L 462.027753 342.481992 
L 463.020459 347.255758 
L 464.013165 322.320067 
L 465.005871 310.101944 
L 465.998577 321.388722 
L 466.991283 314.678884 
L 467.983989 317.154762 
L 468.976695 331.922752 
L 469.9694 311.160001 
L 470.962106 293.717615 
L 471.954812 294.526308 
L 472.947518 298.33227 
L 474.93293 279.85887 
L 475.925636 277.478955 
L 476.918342 275.46525 
L 477.911048 284.854366 
L 478.903754 302.295915 
L 479.89646 350.390131 
L 480.889166 320.216389 
L 481.881872 295.564725 
L 482.874577 285.680856 
L 483.867283 291.87625 
L 484.859989 301.579094 
L 485.852695 303.640354 
L 486.845401 313.97094 
L 487.838107 332.88616 
L 488.830813 364.75448 
L 489.823519 318.834305 
L 490.816225 309.451403 
L 491.808931 306.15265 
L 492.801637 305.87867 
L 493.794343 293.279313 
L 494.787049 296.702302 
L 495.779754 304.141345 
L 496.77246 302.794023 
L 497.765166 291.666846 
L 499.750578 273.276251 
L 500.743284 266.704319 
L 501.73599 258.50784 
L 502.728696 247.328496 
L 503.721402 240.745288 
L 504.714108 238.099561 
L 505.706814 239.690243 
L 506.69952 247.649182 
L 507.692226 249.771131 
L 508.684932 244.862827 
L 509.677637 237.746667 
L 510.670343 237.185624 
L 511.663049 245.746112 
L 512.655755 264.343665 
L 513.648461 316.839532 
L 514.641167 302.754175 
L 515.633873 273.145786 
L 516.626579 264.692703 
L 517.619285 272.313216 
L 518.611991 295.393081 
L 519.604697 345.670202 
L 520.597403 290.649906 
L 521.590109 274.244088 
L 522.582814 270.717208 
L 523.57552 280.517747 
L 524.568226 312.325127 
L 525.560932 425.838128 
L 526.553638 326.793435 
L 527.546344 316.460564 
L 528.53905 312.930957 
L 529.531756 298.163972 
L 530.524462 296.54444 
L 531.517168 300.736631 
L 533.50258 369.342435 
L 534.495286 317.582214 
L 535.487991 301.236924 
L 536.480697 300.131153 
L 537.473403 296.816556 
L 538.466109 301.177775 
L 539.458815 313.32006 
L 540.451521 342.809383 
L 541.444227 347.523904 
L 542.436933 315.883027 
L 543.429639 300.565717 
L 544.422345 298.047304 
L 545.415051 308.30052 
L 546.407757 315.072073 
L 547.400463 306.849695 
L 548.393168 297.300578 
L 549.385874 291.312179 
L 550.37858 293.653324 
L 552.363992 328.039458 
L 553.356698 323.036985 
L 554.349404 319.71823 
L 555.34211 333.285827 
L 556.334816 335.641545 
L 557.327522 346.014039 
L 558.320228 339.054049 
L 560.30564 333.210707 
L 561.298345 325.636997 
L 562.291051 325.424547 
L 563.283757 346.477468 
L 564.276463 377.081424 
L 565.269169 352.242648 
L 566.261875 336.524102 
L 567.254581 344.94652 
L 568.247287 345.892914 
L 569.239993 381.582664 
L 570.232699 392.831371 
L 571.225405 419.166107 
L 572.218111 433.019497 
L 573.210817 377.248867 
L 574.203523 343.471962 
L 575.196228 339.915321 
L 576.188934 337.879293 
L 578.174346 384.530787 
L 579.167052 354.680099 
L 580.159758 339.297281 
L 581.152464 354.587857 
L 582.14517 394.458546 
L 583.137876 356.093944 
L 584.130582 329.1101 
L 585.123288 322.792953 
L 586.115994 327.079484 
L 587.1087 322.635503 
L 588.101405 316.308574 
L 589.094111 314.809342 
L 590.086817 312.301033 
L 591.079523 317.57526 
L 592.072229 331.544462 
L 593.064935 337.767074 
L 594.057641 328.507294 
L 595.050347 328.995495 
L 596.043053 328.116165 
L 597.035759 330.65529 
L 598.028465 331.797131 
L 599.021171 324.495264 
L 600.013877 333.727745 
L 601.006582 338.816416 
L 601.999288 327.052502 
L 603.9847 308.328332 
L 604.977406 305.465487 
L 605.970112 315.031777 
L 606.962818 328.003617 
L 607.955524 364.078221 
L 608.94823 384.774809 
L 609.940936 335.693029 
L 610.933642 303.038133 
L 612.919054 267.310401 
L 613.911759 255.691821 
L 614.904465 248.778836 
L 615.897171 244.355568 
L 616.889877 244.842548 
L 617.882583 249.21573 
L 618.875289 256.493493 
L 619.867995 266.70679 
L 620.860701 267.826964 
L 621.853407 264.454493 
L 622.846113 260.347603 
L 623.838819 262.87273 
L 624.831525 274.026712 
L 625.824231 297.702075 
L 626.816936 359.655656 
L 627.809642 302.531712 
L 628.802348 282.552845 
L 629.795054 277.520761 
L 630.78776 286.928224 
L 631.780466 306.103601 
L 632.773172 331.343155 
L 633.765878 304.920835 
L 634.758584 295.578144 
L 635.75129 296.624258 
L 636.743996 315.190205 
L 637.736702 398.551404 
L 638.729408 333.128053 
L 639.722114 305.174972 
L 640.714819 302.659244 
L 641.707525 313.808808 
L 642.700231 335.389164 
L 643.692937 335.287372 
L 644.685643 318.009403 
L 645.678349 320.960319 
L 646.671055 336.629626 
L 647.663761 354.076063 
L 648.656467 316.821413 
L 649.649173 303.085564 
L 650.641879 297.350824 
L 651.634585 305.733405 
L 652.627291 316.922616 
L 653.619996 336.90047 
L 654.612702 329.353618 
L 655.605408 324.996392 
L 656.598114 321.746486 
L 657.59082 329.400252 
L 658.583526 343.620887 
L 659.576232 363.958616 
L 660.568938 361.231777 
L 661.561644 340.772314 
L 662.55435 324.091058 
L 663.547056 320.148835 
L 664.539762 331.092205 
L 665.532468 349.505362 
L 666.525173 384.346669 
L 667.517879 345.194632 
L 668.510585 333.907818 
L 669.503291 325.818135 
L 670.495997 333.007391 
L 671.488703 337.577144 
L 672.481409 347.372461 
L 673.474115 364.793139 
L 674.466821 360.688126 
L 675.459527 359.618955 
L 676.452233 383.625064 
L 677.444939 390.107582 
L 678.437645 353.81528 
L 679.43035 338.95318 
L 680.423056 336.044278 
L 681.415762 332.741004 
L 682.408468 345.536493 
L 683.401174 363.900893 
L 685.386586 357.390896 
L 686.379292 361.632482 
L 687.371998 354.719166 
L 688.364704 367.860361 
L 689.35741 364.536882 
L 690.350116 387.547437 
L 691.342822 359.652603 
L 692.335527 349.583531 
L 693.328233 337.176084 
L 694.320939 341.43917 
L 695.313645 355.472247 
L 696.306351 356.156519 
L 697.299057 341.744632 
L 698.291763 324.397243 
L 699.284469 321.001538 
L 700.277175 316.454291 
L 701.269881 319.262878 
L 702.262587 328.916154 
L 704.247999 340.360256 
L 705.240705 335.488976 
L 706.23341 319.908421 
L 707.226116 310.117228 
L 708.218822 308.662735 
L 709.211528 308.276524 
L 710.204234 317.534106 
L 711.19694 337.797654 
L 712.189646 348.473739 
L 713.182352 336.047827 
L 714.175058 332.922582 
L 715.167764 335.080936 
L 716.16047 354.64792 
L 717.153176 357.468982 
L 718.145882 336.1189 
L 719.138587 324.085298 
L 720.131293 321.131749 
L 721.123999 323.435704 
L 723.109411 300.452876 
L 724.102117 287.455504 
L 725.094823 281.389058 
L 726.087529 276.092293 
L 727.080235 272.596408 
L 728.072941 270.295099 
L 729.065647 266.813143 
L 730.058353 266.398456 
L 731.051059 267.188405 
L 732.043764 271.708898 
L 733.03647 281.659788 
L 734.029176 293.130103 
L 735.021882 306.908 
L 736.014588 307.956957 
L 737.007294 313.611646 
L 738 327.778734 
L 738.992706 391.928268 
L 739.985412 332.282843 
L 740.978118 307.205767 
L 741.970824 295.87447 
L 742.96353 298.347279 
L 743.956236 313.927892 
L 744.948941 341.751506 
L 745.941647 338.538668 
L 746.934353 318.397653 
L 747.927059 320.519331 
L 748.919765 336.655332 
L 749.912471 434.357282 
L 750.905177 336.467435 
L 751.897883 316.608318 
L 752.890589 309.997394 
L 753.883295 320.672223 
L 754.876001 342.211324 
L 755.868707 404.013272 
L 756.861413 344.974346 
L 757.854118 334.096787 
L 758.846824 331.027777 
L 759.83953 344.509183 
L 760.832236 351.758997 
L 761.824942 346.273415 
L 762.817648 339.910027 
L 763.810354 343.033789 
L 764.80306 364.226664 
L 766.788472 399.116142 
L 767.781178 381.645896 
L 768.773884 386.728588 
L 769.76659 385.216724 
L 770.759295 392.714891 
L 771.752001 370.392695 
L 773.737413 349.547416 
L 774.730119 361.530024 
L 775.722825 365.967126 
L 776.715531 387.942399 
L 777.708237 363.313042 
L 778.700943 361.142641 
L 779.693649 351.899093 
L 780.686355 358.639053 
L 781.679061 371.560057 
L 782.671767 382.065204 
L 783.664473 416.476322 
L 784.657178 395.685604 
L 785.649884 418.348935 
L 786.64259 411.398331 
L 787.635296 397.177437 
L 788.628002 403.413468 
L 789.620708 407.02039 
L 790.613414 377.162257 
L 791.60612 364.115926 
L 792.598826 368.063348 
L 793.591532 364.136309 
L 794.584238 364.558025 
L 795.576944 365.508116 
L 796.56965 350.941824 
L 797.562355 338.83409 
L 798.555061 340.958594 
L 799.547767 342.418482 
L 800.540473 355.26087 
L 801.533179 399.646496 
L 802.525885 401.859811 
L 803.518591 351.535181 
L 804.511297 337.915236 
L 805.504003 330.810352 
L 806.496709 329.404903 
L 808.482121 355.613167 
L 809.474827 392.390384 
L 810.467532 378.915394 
L 811.460238 373.325009 
L 812.452944 360.583873 
L 813.44565 361.791052 
L 814.438356 376.37573 
L 815.431062 384.82149 
L 816.423768 430.738751 
L 817.416474 398.06767 
L 818.40918 373.652567 
L 819.401886 352.152348 
L 820.394592 350.238451 
L 821.387298 349.567449 
L 822.380004 350.950948 
L 823.372709 366.305991 
L 824.365415 367.124165 
L 825.358121 347.188269 
L 826.350827 339.763762 
L 827.343533 342.051396 
L 828.336239 349.171995 
L 829.328945 398.90606 
L 830.321651 379.688528 
L 831.314357 348.411235 
L 832.307063 328.128768 
L 833.299769 323.258942 
L 834.292475 316.932618 
L 836.277886 311.264359 
L 837.270592 305.959543 
L 838.263298 304.653955 
L 839.256004 300.797299 
L 840.24871 300.865964 
L 841.241416 302.46292 
L 842.234122 304.275943 
L 843.226828 311.730077 
L 844.219534 317.305782 
L 846.204946 340.071373 
L 847.197652 346.818801 
L 848.190358 348.291371 
L 849.183064 349.217125 
L 851.168475 394.13178 
L 852.161181 355.824155 
L 853.153887 333.02741 
L 854.146593 326.800711 
L 855.139299 324.454592 
L 856.132005 338.578152 
L 857.124711 366.531052 
L 858.117417 433.673345 
L 859.110123 356.292548 
L 860.102829 347.917997 
L 861.095535 347.249398 
L 862.088241 369.855377 
L 863.080946 381.286106 
L 864.073652 361.129837 
L 865.066358 347.591909 
L 866.059064 351.101102 
L 867.05177 380.845562 
L 868.044476 406.522631 
L 869.037182 360.294822 
L 870.029888 341.591399 
L 871.022594 338.428193 
L 872.0153 337.058966 
L 873.008006 350.896228 
L 874.000712 354.90424 
L 874.993418 358.091343 
L 875.986123 350.894499 
L 876.978829 349.960492 
L 877.971535 361.942672 
L 878.964241 367.792831 
L 879.956947 392.408116 
L 880.949653 429.384731 
L 881.942359 432.589474 
L 882.935065 422.669792 
L 883.927771 396.367375 
L 884.920477 408.0162 
L 885.913183 391.081973 
L 886.905889 398.791961 
L 887.898595 431.115689 
L 889.884006 414.853974 
L 890.876712 417.672536 
L 891.869418 411.141374 
L 892.862124 387.931508 
L 893.85483 388.675585 
L 894.847536 387.555146 
L 895.840242 375.882262 
L 896.832948 386.286293 
L 897.825654 399.780637 
L 898.81836 396.902278 
L 899.811066 409.804504 
L 900.803772 450.158904 
L 901.796477 438.372302 
L 902.789183 433.251333 
L 903.781889 423.27174 
L 904.774595 428.796809 
L 905.767301 395.413625 
L 906.760007 399.458966 
L 907.752713 376.717589 
L 908.745419 378.249973 
L 909.738125 374.005911 
L 910.730831 372.519396 
L 911.723537 388.954309 
L 912.716243 393.373155 
L 913.708949 440.175597 
L 915.69436 374.404803 
L 916.687066 356.436804 
L 917.679772 355.862626 
L 918.672478 352.048609 
L 919.665184 362.997936 
L 920.65789 388.388475 
L 921.650596 382.930127 
L 922.643302 363.24669 
L 923.636008 362.948125 
L 924.628714 361.601899 
L 925.62142 367.435434 
L 926.614126 389.242457 
L 927.606832 389.597863 
L 928.599537 400.172665 
L 929.592243 405.16426 
L 930.584949 381.542897 
L 931.577655 381.888262 
L 932.570361 382.632045 
L 933.563067 376.074142 
L 934.555773 389.510106 
L 935.548479 383.121311 
L 936.541185 375.042246 
L 937.533891 376.155688 
L 938.526597 362.691175 
L 939.519303 363.979162 
L 940.512009 375.051007 
L 941.504714 395.069319 
L 942.49742 402.575876 
L 943.490126 359.856465 
L 944.482832 340.753103 
L 945.475538 328.103266 
L 946.468244 326.468601 
L 947.46095 321.689692 
L 948.453656 321.11673 
L 949.446362 319.763172 
L 950.439068 317.958456 
L 951.431774 321.605781 
L 952.42448 321.928215 
L 953.417186 327.269931 
L 954.409891 331.97403 
L 955.402597 335.586157 
L 956.395303 347.767934 
L 957.388009 355.926358 
L 958.380715 381.523405 
L 959.373421 433.593474 
L 960.366127 387.656617 
L 961.358833 362.337501 
L 962.351539 366.778376 
L 963.344245 375.659886 
L 964.336951 403.004928 
L 965.329657 369.521499 
L 966.322363 353.067625 
L 967.315068 348.914734 
L 968.307774 349.785485 
L 969.30048 368.747907 
L 970.293186 384.219974 
L 971.285892 367.835223 
L 972.278598 362.106222 
L 973.271304 369.548109 
L 974.26401 373.346345 
L 975.256716 396.20624 
L 976.249422 376.992843 
L 977.242128 382.673801 
L 978.234834 391.457448 
L 979.22754 401.331916 
L 980.220246 370.151197 
L 981.212951 353.270745 
L 982.205657 339.605231 
L 983.198363 340.987629 
L 985.183775 351.331082 
L 986.176481 358.754821 
L 987.169187 350.640734 
L 988.161893 352.001267 
L 989.154599 346.138911 
L 990.147305 352.077849 
L 992.132717 373.168005 
L 993.125423 402.392959 
L 994.118128 413.238156 
L 995.110834 394.432578 
L 996.10354 413.099683 
L 997.096246 457.179978 
L 998.088952 441.839183 
L 999.081658 383.060237 
L 1000.074364 374.076574 
L 1001.06707 368.108104 
L 1002.059776 367.246332 
L 1003.052482 385.597883 
L 1004.045188 382.394023 
L 1005.037894 390.189576 
L 1006.0306 374.893656 
L 1007.023305 387.153897 
L 1008.016011 394.50997 
L 1009.008717 417.693513 
L 1010.001423 426.963112 
L 1010.994129 428.869484 
L 1011.986835 410.967273 
L 1012.979541 409.653324 
L 1013.972247 457.717223 
L 1014.964953 431.660205 
L 1015.957659 394.116187 
L 1016.950365 389.03089 
L 1017.943071 370.29686 
L 1018.935777 362.921306 
L 1019.928482 360.970125 
L 1020.921188 355.816867 
L 1022.9066 381.791784 
L 1023.899306 399.205087 
L 1024.892012 406.758367 
L 1025.884718 395.492505 
L 1026.877424 373.314009 
L 1027.87013 372.553546 
L 1028.862836 371.032831 
L 1029.855542 365.45357 
L 1030.848248 373.171505 
L 1031.840954 367.369514 
L 1032.833659 363.933012 
L 1033.826365 367.059581 
L 1034.819071 360.050276 
L 1035.811777 363.462114 
L 1036.804483 375.174948 
L 1037.797189 375.247994 
L 1038.789895 374.083586 
L 1039.782601 378.291137 
L 1040.775307 372.544129 
L 1041.768013 374.708312 
L 1042.760719 393.927315 
L 1043.753425 390.632286 
L 1044.746131 407.204027 
L 1045.738837 387.357289 
L 1046.731542 384.458724 
L 1047.724248 383.771981 
L 1048.716954 367.629984 
L 1049.70966 363.490686 
L 1050.702366 361.906073 
L 1051.695072 358.890034 
L 1052.687778 377.091257 
L 1053.680484 388.033921 
L 1054.67319 387.951641 
L 1055.665896 352.403024 
L 1056.658602 338.222893 
L 1057.651308 326.474001 
L 1058.644014 320.189059 
L 1059.636719 320.444588 
L 1060.629425 319.091036 
L 1061.622131 323.117515 
L 1062.614837 323.840177 
L 1063.607543 325.957204 
L 1064.600249 331.662428 
L 1065.592955 334.613922 
L 1066.585661 345.815334 
L 1067.578367 354.18265 
L 1068.571073 363.727517 
L 1069.563779 385.184662 
L 1070.556485 392.078743 
L 1071.549191 424.033027 
L 1072.541896 446.965967 
L 1073.534602 395.052215 
L 1074.527308 377.916823 
L 1075.520014 372.927593 
L 1076.51272 362.844605 
L 1077.505426 371.5068 
L 1078.498132 366.667639 
L 1079.490838 367.50554 
L 1080.483544 367.79445 
L 1081.47625 370.492919 
L 1082.468956 390.719041 
L 1083.461662 383.812656 
L 1084.454368 361.189808 
L 1085.447073 358.412914 
L 1086.439779 366.475598 
L 1087.432485 378.542853 
L 1088.425191 459.342405 
L 1089.417897 401.475899 
L 1090.410603 393.648722 
L 1091.403309 389.326906 
L 1092.396015 428.569174 
L 1093.388721 384.126447 
L 1094.381427 355.806981 
L 1095.374133 339.912348 
L 1096.366839 341.128114 
L 1097.359545 345.373654 
L 1098.35225 360.245811 
L 1099.344956 380.615217 
L 1100.337662 375.05335 
L 1101.330368 372.400016 
L 1102.323074 364.853515 
L 1103.31578 376.544151 
L 1104.308486 382.257034 
L 1105.301192 380.466026 
L 1106.293898 391.852123 
L 1107.286604 396.288613 
L 1109.272016 430.202868 
L 1110.264722 395.532696 
L 1111.257428 373.453281 
L 1112.250133 360.396577 
L 1113.242839 361.595455 
L 1114.235545 356.9813 
L 1116.220957 382.271635 
L 1117.213663 407.312927 
L 1118.206369 419.725563 
L 1119.199075 419.882311 
L 1120.191781 395.578182 
L 1122.177193 377.717512 
L 1123.169899 372.479834 
L 1124.162605 391.458273 
L 1125.15531 403.126189 
L 1126.148016 412.527995 
L 1127.140722 397.85974 
L 1128.133428 379.661086 
L 1129.126134 366.868961 
L 1130.11884 373.352789 
L 1131.111546 371.244525 
L 1132.104252 385.078663 
L 1133.096958 391.500576 
L 1134.089664 396.8595 
L 1136.075076 473.745421 
L 1137.067782 404.374413 
L 1138.060487 383.793853 
L 1139.053193 375.961546 
L 1140.045899 363.277581 
L 1141.038605 366.565124 
L 1142.031311 361.533264 
L 1143.024017 360.952927 
L 1144.016723 369.416561 
L 1145.009429 370.400359 
L 1146.002135 390.419515 
L 1146.994841 422.177684 
L 1147.987547 417.029679 
L 1148.980253 393.901575 
L 1149.972959 388.203128 
L 1150.965664 371.547136 
L 1151.95837 369.012193 
L 1152.951076 377.494963 
L 1153.943782 376.1935 
L 1154.936488 385.73777 
L 1155.929194 402.049463 
L 1156.9219 395.312624 
L 1157.914606 401.91947 
L 1158.907312 439.545858 
L 1159.900018 447.055909 
L 1160.892724 416.319427 
L 1161.88543 393.136569 
L 1162.878136 386.96184 
L 1163.870841 371.552468 
L 1164.863547 375.079072 
L 1165.856253 379.077122 
L 1166.848959 369.709791 
L 1167.841665 359.014143 
L 1168.834371 341.876443 
L 1169.827077 337.372137 
L 1170.819783 331.283314 
L 1171.812489 331.88787 
L 1172.805195 335.176429 
L 1173.797901 335.557621 
L 1174.790607 339.53489 
L 1175.783313 335.562766 
L 1176.776019 339.30806 
L 1177.768724 344.463735 
L 1178.76143 353.751433 
L 1179.754136 379.502053 
L 1180.746842 400.530519 
L 1181.739548 398.283969 
L 1182.732254 403.493557 
L 1183.72496 407.794392 
L 1184.717666 396.974434 
L 1185.710372 413.216042 
L 1186.703078 394.180957 
L 1187.695784 400.747453 
L 1188.68849 395.48082 
L 1189.681196 391.406849 
L 1190.673901 403.504985 
L 1191.666607 394.492901 
L 1192.659313 421.871262 
L 1193.652019 433.721266 
L 1194.644725 401.269946 
L 1195.637431 379.542086 
L 1196.630137 366.583789 
L 1197.622843 355.869796 
L 1198.615549 365.827968 
L 1200.600961 409.106202 
L 1201.593667 379.422735 
L 1203.579078 362.156283 
L 1204.571784 369.201828 
L 1205.56449 369.016387 
L 1208.542608 338.54837 
L 1209.535314 340.662767 
L 1210.52802 341.650857 
L 1212.513432 366.957555 
L 1213.506138 375.522042 
L 1214.498844 389.349292 
L 1215.49155 383.895134 
L 1216.484255 401.149717 
L 1217.476961 405.747712 
L 1218.469667 411.172656 
L 1219.462373 492.48 
L 1220.455079 453.971058 
L 1221.447785 410.159552 
L 1222.440491 381.761691 
L 1223.433197 379.500032 
L 1224.425903 369.728379 
L 1225.418609 378.804326 
L 1226.411315 400.315336 
L 1227.404021 417.191692 
L 1228.396727 423.987965 
L 1229.389432 414.675488 
L 1230.382138 389.980181 
L 1231.374844 388.46834 
L 1232.36755 399.175231 
L 1233.360256 395.442709 
L 1234.352962 408.985698 
L 1235.345668 392.065743 
L 1236.338374 418.023412 
L 1237.33108 416.591498 
L 1238.323786 422.254983 
L 1239.316492 381.977119 
L 1240.309198 378.737506 
L 1241.301904 371.450363 
L 1242.29461 370.454431 
L 1243.287315 381.79298 
L 1244.280021 382.135341 
L 1245.272727 409.370947 
L 1245.272727 409.370947 
" clip-path="url(#p747417750e)" style="fill: none; stroke: #1f77b4; stroke-width: 1.5; stroke-linecap: square"/>
   </g>
   <g id="patch_3">
    <path d="M 180 512.64 
L 180 69.12 
" style="fill: none; stroke: #000000; stroke-width: 0.8; stroke-linejoin: miter; stroke-linecap: square"/>
   </g>
   <g id="patch_4">
    <path d="M 1296 512.64 
L 1296 69.12 
" style="fill: none; stroke: #000000; stroke-width: 0.8; stroke-linejoin: miter; stroke-linecap: square"/>
   </g>
   <g id="patch_5">
    <path d="M 180 512.64 
L 1296 512.64 
" style="fill: none; stroke: #000000; stroke-width: 0.8; stroke-linejoin: miter; stroke-linecap: square"/>
   </g>
   <g id="patch_6">
    <path d="M 180 69.12 
L 1296 69.12 
" style="fill: none; stroke: #000000; stroke-width: 0.8; stroke-linejoin: miter; stroke-linecap: square"/>
   </g>
   <g id="text_13">
    <!-- source15-receiver23 -->
    <g transform="translate(532.175 60.80125) scale(0.4 -0.4)">
     <defs>
      <path id="DejaVuSans-73" d="M 2834 3397 
L 2834 2853 
Q 2591 2978 2328 3040 
Q 2066 3103 1784 3103 
Q 1356 3103 1142 2972 
Q 928 2841 928 2578 
Q 928 2378 1081 2264 
Q 1234 2150 1697 2047 
L 1894 2003 
Q 2506 1872 2764 1633 
Q 3022 1394 3022 966 
Q 3022 478 2636 193 
Q 2250 -91 1575 -91 
Q 1294 -91 989 -36 
Q 684 19 347 128 
L 347 722 
Q 666 556 975 473 
Q 1284 391 1588 391 
Q 1994 391 2212 530 
Q 2431 669 2431 922 
Q 2431 1156 2273 1281 
Q 2116 1406 1581 1522 
L 1381 1569 
Q 847 1681 609 1914 
Q 372 2147 372 2553 
Q 372 3047 722 3315 
Q 1072 3584 1716 3584 
Q 2034 3584 2315 3537 
Q 2597 3491 2834 3397 
z
" transform="scale(0.015625)"/>
      <path id="DejaVuSans-6f" d="M 1959 3097 
Q 1497 3097 1228 2736 
Q 959 2375 959 1747 
Q 959 1119 1226 758 
Q 1494 397 1959 397 
Q 2419 397 2687 759 
Q 2956 1122 2956 1747 
Q 2956 2369 2687 2733 
Q 2419 3097 1959 3097 
z
M 1959 3584 
Q 2709 3584 3137 3096 
Q 3566 2609 3566 1747 
Q 3566 888 3137 398 
Q 2709 -91 1959 -91 
Q 1206 -91 779 398 
Q 353 888 353 1747 
Q 353 2609 779 3096 
Q 1206 3584 1959 3584 
z
" transform="scale(0.015625)"/>
      <path id="DejaVuSans-75" d="M 544 1381 
L 544 3500 
L 1119 3500 
L 1119 1403 
Q 1119 906 1312 657 
Q 1506 409 1894 409 
Q 2359 409 2629 706 
Q 2900 1003 2900 1516 
L 2900 3500 
L 3475 3500 
L 3475 0 
L 2900 0 
L 2900 538 
Q 2691 219 2414 64 
Q 2138 -91 1772 -91 
Q 1169 -91 856 284 
Q 544 659 544 1381 
z
M 1991 3584 
L 1991 3584 
z
" transform="scale(0.015625)"/>
      <path id="DejaVuSans-72" d="M 2631 2963 
Q 2534 3019 2420 3045 
Q 2306 3072 2169 3072 
Q 1681 3072 1420 2755 
Q 1159 2438 1159 1844 
L 1159 0 
L 581 0 
L 581 3500 
L 1159 3500 
L 1159 2956 
Q 1341 3275 1631 3429 
Q 1922 3584 2338 3584 
Q 2397 3584 2469 3576 
Q 2541 3569 2628 3553 
L 2631 2963 
z
" transform="scale(0.015625)"/>
      <path id="DejaVuSans-63" d="M 3122 3366 
L 3122 2828 
Q 2878 2963 2633 3030 
Q 2388 3097 2138 3097 
Q 1578 3097 1268 2742 
Q 959 2388 959 1747 
Q 959 1106 1268 751 
Q 1578 397 2138 397 
Q 2388 397 2633 464 
Q 2878 531 3122 666 
L 3122 134 
Q 2881 22 2623 -34 
Q 2366 -91 2075 -91 
Q 1284 -91 818 406 
Q 353 903 353 1747 
Q 353 2603 823 3093 
Q 1294 3584 2113 3584 
Q 2378 3584 2631 3529 
Q 2884 3475 3122 3366 
z
" transform="scale(0.015625)"/>
      <path id="DejaVuSans-65" d="M 3597 1894 
L 3597 1613 
L 953 1613 
Q 991 1019 1311 708 
Q 1631 397 2203 397 
Q 2534 397 2845 478 
Q 3156 559 3463 722 
L 3463 178 
Q 3153 47 2828 -22 
Q 2503 -91 2169 -91 
Q 1331 -91 842 396 
Q 353 884 353 1716 
Q 353 2575 817 3079 
Q 1281 3584 2069 3584 
Q 2775 3584 3186 3129 
Q 3597 2675 3597 1894 
z
M 3022 2063 
Q 3016 2534 2758 2815 
Q 2500 3097 2075 3097 
Q 1594 3097 1305 2825 
Q 1016 2553 972 2059 
L 3022 2063 
z
" transform="scale(0.015625)"/>
      <path id="DejaVuSans-2d" d="M 313 2009 
L 1997 2009 
L 1997 1497 
L 313 1497 
L 313 2009 
z
" transform="scale(0.015625)"/>
      <path id="DejaVuSans-69" d="M 603 3500 
L 1178 3500 
L 1178 0 
L 603 0 
L 603 3500 
z
M 603 4863 
L 1178 4863 
L 1178 4134 
L 603 4134 
L 603 4863 
z
" transform="scale(0.015625)"/>
      <path id="DejaVuSans-76" d="M 191 3500 
L 800 3500 
L 1894 563 
L 2988 3500 
L 3597 3500 
L 2284 0 
L 1503 0 
L 191 3500 
z
" transform="scale(0.015625)"/>
      <path id="DejaVuSans-33" d="M 2597 2516 
Q 3050 2419 3304 2112 
Q 3559 1806 3559 1356 
Q 3559 666 3084 287 
Q 2609 -91 1734 -91 
Q 1441 -91 1130 -33 
Q 819 25 488 141 
L 488 750 
Q 750 597 1062 519 
Q 1375 441 1716 441 
Q 2309 441 2620 675 
Q 2931 909 2931 1356 
Q 2931 1769 2642 2001 
Q 2353 2234 1838 2234 
L 1294 2234 
L 1294 2753 
L 1863 2753 
Q 2328 2753 2575 2939 
Q 2822 3125 2822 3475 
Q 2822 3834 2567 4026 
Q 2313 4219 1838 4219 
Q 1578 4219 1281 4162 
Q 984 4106 628 3988 
L 628 4550 
Q 988 4650 1302 4700 
Q 1616 4750 1894 4750 
Q 2613 4750 3031 4423 
Q 3450 4097 3450 3541 
Q 3450 3153 3228 2886 
Q 3006 2619 2597 2516 
z
" transform="scale(0.015625)"/>
     </defs>
     <use xlink:href="#DejaVuSans-73"/>
     <use xlink:href="#DejaVuSans-6f" x="52.099609"/>
     <use xlink:href="#DejaVuSans-75" x="113.28125"/>
     <use xlink:href="#DejaVuSans-72" x="176.660156"/>
     <use xlink:href="#DejaVuSans-63" x="215.523438"/>
     <use xlink:href="#DejaVuSans-65" x="270.503906"/>
     <use xlink:href="#DejaVuSans-31" x="332.027344"/>
     <use xlink:href="#DejaVuSans-35" x="395.650391"/>
     <use xlink:href="#DejaVuSans-2d" x="459.273438"/>
     <use xlink:href="#DejaVuSans-72" x="495.357422"/>
     <use xlink:href="#DejaVuSans-65" x="534.220703"/>
     <use xlink:href="#DejaVuSans-63" x="595.744141"/>
     <use xlink:href="#DejaVuSans-65" x="650.724609"/>
     <use xlink:href="#DejaVuSans-69" x="712.248047"/>
     <use xlink:href="#DejaVuSans-76" x="740.03125"/>
     <use xlink:href="#DejaVuSans-65" x="799.210938"/>
     <use xlink:href="#DejaVuSans-72" x="860.734375"/>
     <use xlink:href="#DejaVuSans-32" x="901.847656"/>
     <use xlink:href="#DejaVuSans-33" x="965.470703"/>
    </g>
   </g>
  </g>
 </g>
 <defs>
  <clipPath id="p747417750e">
   <rect x="180" y="69.12" width="1116" height="443.52"/>
  </clipPath>
 </defs>
</svg>
