<?xml version="1.0" encoding="utf-8" standalone="no"?>
<!DOCTYPE svg PUBLIC "-//W3C//DTD SVG 1.1//EN"
  "http://www.w3.org/Graphics/SVG/1.1/DTD/svg11.dtd">
<svg xmlns:xlink="http://www.w3.org/1999/xlink" width="1440pt" height="576pt" viewBox="0 0 1440 576" xmlns="http://www.w3.org/2000/svg" version="1.1">
 <metadata>
  <rdf:RDF xmlns:dc="http://purl.org/dc/elements/1.1/" xmlns:cc="http://creativecommons.org/ns#" xmlns:rdf="http://www.w3.org/1999/02/22-rdf-syntax-ns#">
   <cc:Work>
    <dc:type rdf:resource="http://purl.org/dc/dcmitype/StillImage"/>
    <dc:date>2024-05-22T04:50:08.794170</dc:date>
    <dc:format>image/svg+xml</dc:format>
    <dc:creator>
     <cc:Agent>
      <dc:title>Matplotlib v3.8.3, https://matplotlib.org/</dc:title>
     </cc:Agent>
    </dc:creator>
   </cc:Work>
  </rdf:RDF>
 </metadata>
 <defs>
  <style type="text/css">*{stroke-linejoin: round; stroke-linecap: butt}</style>
 </defs>
 <g id="figure_1">
  <g id="patch_1">
   <path d="M 0 576 
L 1440 576 
L 1440 0 
L 0 0 
z
" style="fill: #ffffff"/>
  </g>
  <g id="axes_1">
   <g id="patch_2">
    <path d="M 180 512.64 
L 1296 512.64 
L 1296 69.12 
L 180 69.12 
z
" style="fill: #ffffff"/>
   </g>
   <g id="matplotlib.axis_1">
    <g id="xtick_1">
     <g id="line2d_1">
      <defs>
       <path id="m51b638007b" d="M 0 0 
L 0 3.5 
" style="stroke: #000000; stroke-width: 0.8"/>
      </defs>
      <g>
       <use xlink:href="#m51b638007b" x="229.734567" y="512.64" style="stroke: #000000; stroke-width: 0.8"/>
      </g>
     </g>
     <g id="text_1">
      <!-- 0 -->
      <g transform="translate(226.553317 527.238438) scale(0.1 -0.1)">
       <defs>
        <path id="DejaVuSans-30" d="M 2034 4250 
Q 1547 4250 1301 3770 
Q 1056 3291 1056 2328 
Q 1056 1369 1301 889 
Q 1547 409 2034 409 
Q 2525 409 2770 889 
Q 3016 1369 3016 2328 
Q 3016 3291 2770 3770 
Q 2525 4250 2034 4250 
z
M 2034 4750 
Q 2819 4750 3233 4129 
Q 3647 3509 3647 2328 
Q 3647 1150 3233 529 
Q 2819 -91 2034 -91 
Q 1250 -91 836 529 
Q 422 1150 422 2328 
Q 422 3509 836 4129 
Q 1250 4750 2034 4750 
z
" transform="scale(0.015625)"/>
       </defs>
       <use xlink:href="#DejaVuSans-30"/>
      </g>
     </g>
    </g>
    <g id="xtick_2">
     <g id="line2d_2">
      <g>
       <use xlink:href="#m51b638007b" x="433.04074" y="512.64" style="stroke: #000000; stroke-width: 0.8"/>
      </g>
     </g>
     <g id="text_2">
      <!-- 500 -->
      <g transform="translate(423.49699 527.238438) scale(0.1 -0.1)">
       <defs>
        <path id="DejaVuSans-35" d="M 691 4666 
L 3169 4666 
L 3169 4134 
L 1269 4134 
L 1269 2991 
Q 1406 3038 1543 3061 
Q 1681 3084 1819 3084 
Q 2600 3084 3056 2656 
Q 3513 2228 3513 1497 
Q 3513 744 3044 326 
Q 2575 -91 1722 -91 
Q 1428 -91 1123 -41 
Q 819 9 494 109 
L 494 744 
Q 775 591 1075 516 
Q 1375 441 1709 441 
Q 2250 441 2565 725 
Q 2881 1009 2881 1497 
Q 2881 1984 2565 2268 
Q 2250 2553 1709 2553 
Q 1456 2553 1204 2497 
Q 953 2441 691 2322 
L 691 4666 
z
" transform="scale(0.015625)"/>
       </defs>
       <use xlink:href="#DejaVuSans-35"/>
       <use xlink:href="#DejaVuSans-30" x="63.623047"/>
       <use xlink:href="#DejaVuSans-30" x="127.246094"/>
      </g>
     </g>
    </g>
    <g id="xtick_3">
     <g id="line2d_3">
      <g>
       <use xlink:href="#m51b638007b" x="636.346913" y="512.64" style="stroke: #000000; stroke-width: 0.8"/>
      </g>
     </g>
     <g id="text_3">
      <!-- 1000 -->
      <g transform="translate(623.621913 527.238438) scale(0.1 -0.1)">
       <defs>
        <path id="DejaVuSans-31" d="M 794 531 
L 1825 531 
L 1825 4091 
L 703 3866 
L 703 4441 
L 1819 4666 
L 2450 4666 
L 2450 531 
L 3481 531 
L 3481 0 
L 794 0 
L 794 531 
z
" transform="scale(0.015625)"/>
       </defs>
       <use xlink:href="#DejaVuSans-31"/>
       <use xlink:href="#DejaVuSans-30" x="63.623047"/>
       <use xlink:href="#DejaVuSans-30" x="127.246094"/>
       <use xlink:href="#DejaVuSans-30" x="190.869141"/>
      </g>
     </g>
    </g>
    <g id="xtick_4">
     <g id="line2d_4">
      <g>
       <use xlink:href="#m51b638007b" x="839.653087" y="512.64" style="stroke: #000000; stroke-width: 0.8"/>
      </g>
     </g>
     <g id="text_4">
      <!-- 1500 -->
      <g transform="translate(826.928087 527.238438) scale(0.1 -0.1)">
       <use xlink:href="#DejaVuSans-31"/>
       <use xlink:href="#DejaVuSans-35" x="63.623047"/>
       <use xlink:href="#DejaVuSans-30" x="127.246094"/>
       <use xlink:href="#DejaVuSans-30" x="190.869141"/>
      </g>
     </g>
    </g>
    <g id="xtick_5">
     <g id="line2d_5">
      <g>
       <use xlink:href="#m51b638007b" x="1042.95926" y="512.64" style="stroke: #000000; stroke-width: 0.8"/>
      </g>
     </g>
     <g id="text_5">
      <!-- 2000 -->
      <g transform="translate(1030.23426 527.238438) scale(0.1 -0.1)">
       <defs>
        <path id="DejaVuSans-32" d="M 1228 531 
L 3431 531 
L 3431 0 
L 469 0 
L 469 531 
Q 828 903 1448 1529 
Q 2069 2156 2228 2338 
Q 2531 2678 2651 2914 
Q 2772 3150 2772 3378 
Q 2772 3750 2511 3984 
Q 2250 4219 1831 4219 
Q 1534 4219 1204 4116 
Q 875 4013 500 3803 
L 500 4441 
Q 881 4594 1212 4672 
Q 1544 4750 1819 4750 
Q 2544 4750 2975 4387 
Q 3406 4025 3406 3419 
Q 3406 3131 3298 2873 
Q 3191 2616 2906 2266 
Q 2828 2175 2409 1742 
Q 1991 1309 1228 531 
z
" transform="scale(0.015625)"/>
       </defs>
       <use xlink:href="#DejaVuSans-32"/>
       <use xlink:href="#DejaVuSans-30" x="63.623047"/>
       <use xlink:href="#DejaVuSans-30" x="127.246094"/>
       <use xlink:href="#DejaVuSans-30" x="190.869141"/>
      </g>
     </g>
    </g>
    <g id="xtick_6">
     <g id="line2d_6">
      <g>
       <use xlink:href="#m51b638007b" x="1246.265433" y="512.64" style="stroke: #000000; stroke-width: 0.8"/>
      </g>
     </g>
     <g id="text_6">
      <!-- 2500 -->
      <g transform="translate(1233.540433 527.238438) scale(0.1 -0.1)">
       <use xlink:href="#DejaVuSans-32"/>
       <use xlink:href="#DejaVuSans-35" x="63.623047"/>
       <use xlink:href="#DejaVuSans-30" x="127.246094"/>
       <use xlink:href="#DejaVuSans-30" x="190.869141"/>
      </g>
     </g>
    </g>
   </g>
   <g id="matplotlib.axis_2">
    <g id="ytick_1">
     <g id="line2d_7">
      <defs>
       <path id="m1304fa8fc0" d="M 0 0 
L -3.5 0 
" style="stroke: #000000; stroke-width: 0.8"/>
      </defs>
      <g>
       <use xlink:href="#m1304fa8fc0" x="180" y="471.291169" style="stroke: #000000; stroke-width: 0.8"/>
      </g>
     </g>
     <g id="text_7">
      <!-- −6 -->
      <g transform="translate(158.257812 475.090388) scale(0.1 -0.1)">
       <defs>
        <path id="DejaVuSans-2212" d="M 678 2272 
L 4684 2272 
L 4684 1741 
L 678 1741 
L 678 2272 
z
" transform="scale(0.015625)"/>
        <path id="DejaVuSans-36" d="M 2113 2584 
Q 1688 2584 1439 2293 
Q 1191 2003 1191 1497 
Q 1191 994 1439 701 
Q 1688 409 2113 409 
Q 2538 409 2786 701 
Q 3034 994 3034 1497 
Q 3034 2003 2786 2293 
Q 2538 2584 2113 2584 
z
M 3366 4563 
L 3366 3988 
Q 3128 4100 2886 4159 
Q 2644 4219 2406 4219 
Q 1781 4219 1451 3797 
Q 1122 3375 1075 2522 
Q 1259 2794 1537 2939 
Q 1816 3084 2150 3084 
Q 2853 3084 3261 2657 
Q 3669 2231 3669 1497 
Q 3669 778 3244 343 
Q 2819 -91 2113 -91 
Q 1303 -91 875 529 
Q 447 1150 447 2328 
Q 447 3434 972 4092 
Q 1497 4750 2381 4750 
Q 2619 4750 2861 4703 
Q 3103 4656 3366 4563 
z
" transform="scale(0.015625)"/>
       </defs>
       <use xlink:href="#DejaVuSans-2212"/>
       <use xlink:href="#DejaVuSans-36" x="83.789062"/>
      </g>
     </g>
    </g>
    <g id="ytick_2">
     <g id="line2d_8">
      <g>
       <use xlink:href="#m1304fa8fc0" x="180" y="383.190219" style="stroke: #000000; stroke-width: 0.8"/>
      </g>
     </g>
     <g id="text_8">
      <!-- −4 -->
      <g transform="translate(158.257812 386.989438) scale(0.1 -0.1)">
       <defs>
        <path id="DejaVuSans-34" d="M 2419 4116 
L 825 1625 
L 2419 1625 
L 2419 4116 
z
M 2253 4666 
L 3047 4666 
L 3047 1625 
L 3713 1625 
L 3713 1100 
L 3047 1100 
L 3047 0 
L 2419 0 
L 2419 1100 
L 313 1100 
L 313 1709 
L 2253 4666 
z
" transform="scale(0.015625)"/>
       </defs>
       <use xlink:href="#DejaVuSans-2212"/>
       <use xlink:href="#DejaVuSans-34" x="83.789062"/>
      </g>
     </g>
    </g>
    <g id="ytick_3">
     <g id="line2d_9">
      <g>
       <use xlink:href="#m1304fa8fc0" x="180" y="295.089269" style="stroke: #000000; stroke-width: 0.8"/>
      </g>
     </g>
     <g id="text_9">
      <!-- −2 -->
      <g transform="translate(158.257812 298.888488) scale(0.1 -0.1)">
       <use xlink:href="#DejaVuSans-2212"/>
       <use xlink:href="#DejaVuSans-32" x="83.789062"/>
      </g>
     </g>
    </g>
    <g id="ytick_4">
     <g id="line2d_10">
      <g>
       <use xlink:href="#m1304fa8fc0" x="180" y="206.988319" style="stroke: #000000; stroke-width: 0.8"/>
      </g>
     </g>
     <g id="text_10">
      <!-- 0 -->
      <g transform="translate(166.6375 210.787538) scale(0.1 -0.1)">
       <use xlink:href="#DejaVuSans-30"/>
      </g>
     </g>
    </g>
    <g id="ytick_5">
     <g id="line2d_11">
      <g>
       <use xlink:href="#m1304fa8fc0" x="180" y="118.887369" style="stroke: #000000; stroke-width: 0.8"/>
      </g>
     </g>
     <g id="text_11">
      <!-- 2 -->
      <g transform="translate(166.6375 122.686587) scale(0.1 -0.1)">
       <use xlink:href="#DejaVuSans-32"/>
      </g>
     </g>
    </g>
   </g>
   <g id="line2d_12">
    <path d="M 230.727273 307.404249 
L 231.719979 306.17082 
L 232.712685 307.776434 
L 233.70539 306.510681 
L 234.698096 304.931574 
L 235.690802 303.623509 
L 236.683508 301.476305 
L 237.676214 301.200358 
L 238.66892 299.981647 
L 239.661626 297.959431 
L 240.654332 295.52674 
L 241.647038 292.466144 
L 243.63245 285.269159 
L 244.625156 280.608549 
L 245.617862 273.76218 
L 246.610568 271.618484 
L 247.603273 275.507351 
L 248.595979 282.792256 
L 249.588685 304.676691 
L 250.581391 232.617186 
L 251.574097 197.56435 
L 252.566803 191.678418 
L 253.559509 212.905952 
L 254.552215 257.291228 
L 256.537627 185.529458 
L 257.530333 159.209727 
L 258.523039 151.747889 
L 259.515745 159.6081 
L 260.50845 164.0199 
L 261.501156 169.334884 
L 262.493862 180.344719 
L 263.486568 160.085982 
L 264.479274 142.972003 
L 265.47198 139.788488 
L 266.464686 149.741143 
L 267.457392 165.531475 
L 268.450098 166.898424 
L 269.442804 160.907291 
L 270.43551 170.399803 
L 271.428216 147.312071 
L 272.420922 132.213921 
L 273.413627 141.599692 
L 274.406333 116.407692 
L 275.399039 101.43309 
L 276.391745 122.349626 
L 277.384451 125.227181 
L 278.377157 89.997857 
L 279.369863 89.28 
L 280.362569 115.445472 
L 281.355275 150.829103 
L 282.347981 147.242725 
L 283.340687 224.332371 
L 284.333393 148.308102 
L 285.326099 138.520306 
L 286.318804 144.946639 
L 287.31151 148.90402 
L 288.304216 190.255715 
L 289.296922 162.317989 
L 290.289628 144.046026 
L 291.282334 159.687544 
L 292.27504 230.656045 
L 293.267746 198.013525 
L 294.260452 193.497197 
L 295.253158 193.892277 
L 296.245864 187.544556 
L 297.23857 184.974734 
L 298.231276 202.00921 
L 299.223981 266.186853 
L 300.216687 234.853924 
L 301.209393 233.611101 
L 302.202099 271.483843 
L 303.194805 235.212561 
L 304.187511 242.377459 
L 305.180217 260.704832 
L 306.172923 263.294622 
L 307.165629 278.311448 
L 308.158335 258.038005 
L 309.151041 258.856483 
L 310.143747 304.783738 
L 311.136453 302.50358 
L 312.129159 299.120957 
L 313.121864 313.913721 
L 314.11457 299.765162 
L 315.107276 302.239679 
L 316.099982 292.655296 
L 317.092688 294.437855 
L 318.085394 298.030585 
L 319.0781 297.819269 
L 320.070806 320.545762 
L 321.063512 307.918741 
L 322.056218 319.507764 
L 323.048924 299.435651 
L 324.04163 312.972574 
L 325.034336 301.762801 
L 326.027041 302.565914 
L 327.019747 328.094716 
L 328.012453 302.956567 
L 329.005159 314.420024 
L 329.997865 352.40113 
L 331.983277 289.802116 
L 332.975983 334.470026 
L 333.968689 324.97722 
L 334.961395 318.406648 
L 335.954101 305.912219 
L 336.946807 314.630339 
L 337.939513 312.523098 
L 338.932218 326.285993 
L 339.924924 324.015221 
L 340.91763 303.298903 
L 341.910336 312.716964 
L 342.903042 312.527388 
L 343.895748 301.073027 
L 346.873866 321.639644 
L 347.866572 323.254449 
L 348.859278 305.967389 
L 349.851984 303.161667 
L 350.84469 327.556641 
L 351.837395 327.39219 
L 352.830101 308.435609 
L 353.822807 312.89283 
L 354.815513 309.904722 
L 355.808219 303.744104 
L 356.800925 349.353222 
L 357.793631 315.030092 
L 358.786337 339.931453 
L 359.779043 325.231851 
L 360.771749 343.353466 
L 361.764455 332.142225 
L 362.757161 350.883826 
L 363.749867 329.715018 
L 364.742572 329.553035 
L 365.735278 325.428271 
L 366.727984 313.869842 
L 367.72069 327.640611 
L 368.713396 316.804584 
L 369.706102 347.019793 
L 370.698808 307.726061 
L 371.691514 318.195188 
L 372.68422 333.570782 
L 373.676926 309.172473 
L 374.669632 299.647182 
L 376.655044 343.010558 
L 377.64775 317.673861 
L 378.640455 330.623401 
L 379.633161 322.725718 
L 380.625867 347.032322 
L 381.618573 302.494179 
L 382.611279 312.474338 
L 383.603985 335.323636 
L 384.596691 323.527825 
L 385.589397 337.989031 
L 386.582103 331.654858 
L 387.574809 328.595879 
L 388.567515 313.335298 
L 390.552927 337.015164 
L 391.545632 340.271164 
L 392.538338 330.991417 
L 393.531044 301.845741 
L 394.52375 316.737437 
L 395.516456 324.640101 
L 396.509162 323.825367 
L 397.501868 334.226935 
L 398.494574 317.378768 
L 399.48728 362.106376 
L 400.479986 324.728437 
L 401.472692 340.833374 
L 402.465398 346.717344 
L 403.458104 327.698007 
L 404.450809 321.280702 
L 405.443515 342.891922 
L 407.428927 333.125062 
L 408.421633 324.073527 
L 409.414339 324.978237 
L 410.407045 358.441518 
L 411.399751 327.865249 
L 412.392457 343.446203 
L 413.385163 335.269975 
L 415.370575 386.841955 
L 416.363281 329.009204 
L 417.355986 337.02834 
L 418.348692 371.140776 
L 419.341398 339.152103 
L 420.334104 360.00685 
L 421.32681 348.193182 
L 422.319516 344.636858 
L 423.312222 335.330332 
L 424.304928 345.622334 
L 425.297634 316.908231 
L 426.29034 342.49027 
L 427.283046 315.812478 
L 428.275752 353.888831 
L 429.268458 322.515668 
L 430.261163 372.192596 
L 431.253869 334.214559 
L 432.246575 347.058925 
L 433.239281 337.097523 
L 434.231987 370.383373 
L 435.224693 350.465644 
L 436.217399 359.510586 
L 437.210105 341.735992 
L 438.202811 312.23468 
L 439.195517 360.129764 
L 440.188223 396.759717 
L 441.180929 368.851731 
L 442.173635 318.678939 
L 443.166341 350.463516 
L 444.159046 350.659965 
L 445.151752 318.444924 
L 446.144458 341.633191 
L 447.137164 355.122544 
L 448.12987 353.486767 
L 449.122576 355.560058 
L 450.115282 340.71439 
L 451.107988 345.873213 
L 452.100694 345.061271 
L 453.0934 332.868742 
L 454.086106 340.974548 
L 455.078812 372.969805 
L 456.071518 354.41796 
L 457.064223 327.895808 
L 458.056929 354.235058 
L 459.049635 358.979524 
L 460.042341 346.773751 
L 461.035047 347.5966 
L 462.027753 329.79773 
L 463.020459 342.890727 
L 464.013165 330.464127 
L 465.005871 390.044949 
L 465.998577 367.209349 
L 466.991283 381.669049 
L 467.983989 345.193514 
L 468.976695 332.395132 
L 469.9694 367.660353 
L 470.962106 418.338997 
L 471.954812 374.114227 
L 472.947518 367.431723 
L 473.940224 347.977896 
L 474.93293 342.805789 
L 475.925636 367.384361 
L 476.918342 358.222343 
L 477.911048 354.27166 
L 479.89646 338.711533 
L 480.889166 321.637241 
L 481.881872 346.718206 
L 482.874577 358.966365 
L 483.867283 328.500589 
L 484.859989 343.130883 
L 485.852695 324.451863 
L 486.845401 356.849571 
L 487.838107 329.894323 
L 488.830813 366.076161 
L 489.823519 331.356523 
L 490.816225 355.799875 
L 491.808931 347.755919 
L 492.801637 349.932517 
L 493.794343 322.703897 
L 494.787049 400.349058 
L 495.779754 367.035044 
L 496.77246 326.345987 
L 497.765166 348.671106 
L 498.757872 336.957144 
L 499.750578 330.108542 
L 500.743284 336.197273 
L 502.728696 353.871244 
L 503.721402 417.528792 
L 504.714108 347.463321 
L 505.706814 333.816812 
L 506.69952 325.891834 
L 507.692226 370.707387 
L 508.684932 344.968396 
L 509.677637 340.944353 
L 510.670343 352.890386 
L 511.663049 317.655131 
L 512.655755 340.382876 
L 513.648461 336.555372 
L 514.641167 374.26356 
L 515.633873 336.686646 
L 516.626579 372.487987 
L 517.619285 354.895283 
L 518.611991 398.117247 
L 519.604697 354.83901 
L 520.597403 336.876682 
L 521.590109 358.394741 
L 522.582814 363.752337 
L 523.57552 381.260334 
L 524.568226 336.920438 
L 525.560932 327.574724 
L 526.553638 357.581692 
L 527.546344 322.709558 
L 528.53905 337.657237 
L 529.531756 338.623229 
L 530.524462 381.48554 
L 531.517168 350.969337 
L 532.509874 382.914878 
L 533.50258 389.220499 
L 534.495286 351.896925 
L 535.487991 367.917565 
L 536.480697 396.987218 
L 537.473403 357.422035 
L 538.466109 408.458561 
L 539.458815 382.105322 
L 540.451521 339.340278 
L 541.444227 375.048259 
L 542.436933 330.951177 
L 543.429639 330.251551 
L 544.422345 375.362814 
L 545.415051 383.261882 
L 546.407757 333.44684 
L 547.400463 362.039221 
L 548.393168 349.609594 
L 549.385874 325.820248 
L 550.37858 426.625316 
L 551.371286 336.474566 
L 552.363992 332.317564 
L 553.356698 324.166636 
L 554.349404 353.041377 
L 555.34211 373.162753 
L 556.334816 327.132309 
L 557.327522 332.958744 
L 558.320228 353.728222 
L 559.312934 455.27733 
L 560.30564 344.68128 
L 561.298345 337.949761 
L 562.291051 370.945276 
L 563.283757 361.150631 
L 564.276463 391.029588 
L 565.269169 349.006751 
L 566.261875 346.425456 
L 567.254581 332.537737 
L 568.247287 349.961569 
L 569.239993 403.192948 
L 570.232699 336.986307 
L 571.225405 357.193631 
L 572.218111 340.487978 
L 573.210817 338.225826 
L 574.203523 359.750057 
L 575.196228 396.642883 
L 576.188934 345.638922 
L 577.18164 376.880604 
L 578.174346 359.020088 
L 580.159758 329.45371 
L 581.152464 380.976747 
L 582.14517 380.478653 
L 583.137876 365.155767 
L 584.130582 353.999164 
L 585.123288 371.027535 
L 586.115994 405.940003 
L 587.1087 366.829632 
L 588.101405 418.647827 
L 589.094111 354.345094 
L 590.086817 400.626304 
L 591.079523 386.068862 
L 592.072229 359.323942 
L 593.064935 342.830822 
L 594.057641 363.359012 
L 595.050347 351.149164 
L 596.043053 382.407314 
L 597.035759 344.986409 
L 598.028465 375.146442 
L 599.021171 342.272333 
L 600.013877 337.423299 
L 601.006582 373.966597 
L 601.999288 339.160796 
L 602.991994 375.701891 
L 603.9847 403.332985 
L 604.977406 365.279386 
L 605.970112 368.349724 
L 606.962818 364.383822 
L 607.955524 370.250185 
L 608.94823 359.994481 
L 609.940936 362.010676 
L 610.933642 406.084515 
L 611.926348 409.396527 
L 612.919054 367.420111 
L 613.911759 419.17997 
L 614.904465 392.470396 
L 615.897171 360.600938 
L 616.889877 371.998252 
L 617.882583 351.343092 
L 618.875289 393.810509 
L 619.867995 373.730093 
L 620.860701 439.354654 
L 621.853407 373.112019 
L 622.846113 363.839377 
L 623.838819 362.929106 
L 624.831525 382.668199 
L 625.824231 370.52423 
L 626.816936 388.934273 
L 627.809642 387.008462 
L 628.802348 368.700929 
L 629.795054 398.247478 
L 630.78776 374.823041 
L 631.780466 389.651558 
L 632.773172 492.48 
L 633.765878 369.157654 
L 634.758584 387.231968 
L 635.75129 380.699359 
L 636.743996 409.172867 
L 637.736702 367.302964 
L 638.729408 374.362229 
L 639.722114 398.351204 
L 640.714819 387.472643 
L 641.707525 368.393416 
L 642.700231 417.464625 
L 643.692937 374.652497 
L 644.685643 386.314023 
L 645.678349 382.628258 
L 646.671055 390.318881 
L 647.663761 371.592436 
L 648.656467 368.538487 
L 649.649173 411.70086 
L 650.641879 386.164029 
L 651.634585 373.483166 
L 652.627291 392.669444 
L 653.619996 363.21137 
L 654.612702 373.706002 
L 655.605408 409.387986 
L 656.598114 399.196479 
L 657.59082 386.530741 
L 658.583526 394.696555 
L 659.576232 366.827291 
L 660.568938 403.498739 
L 662.55435 378.292656 
L 663.547056 390.621048 
L 664.539762 384.438945 
L 665.532468 383.944838 
L 666.525173 388.822171 
L 667.517879 378.174838 
L 668.510585 384.625947 
L 669.503291 388.043029 
L 670.495997 385.33845 
L 671.488703 386.668254 
L 672.481409 407.90473 
L 673.474115 408.00804 
L 674.466821 382.596179 
L 675.459527 401.281144 
L 676.452233 385.823404 
L 677.444939 395.927377 
L 678.437645 375.45159 
L 679.43035 388.386949 
L 680.423056 373.703926 
L 681.415762 381.295884 
L 682.408468 384.577541 
L 683.401174 395.551705 
L 684.39388 386.517666 
L 685.386586 383.499234 
L 686.379292 387.158159 
L 687.371998 388.860936 
L 688.364704 394.483122 
L 689.35741 392.219349 
L 690.350116 387.564256 
L 691.342822 381.519911 
L 692.335527 383.332447 
L 694.320939 382.671057 
L 695.313645 382.78993 
L 696.306351 393.248635 
L 697.299057 387.31943 
L 698.291763 384.782694 
L 699.284469 384.702435 
L 700.277175 387.029803 
L 701.269881 396.087332 
L 702.262587 380.353871 
L 703.255293 392.53708 
L 704.247999 388.335975 
L 705.240705 386.424777 
L 706.23341 384.972128 
L 707.226116 384.489858 
L 708.218822 378.207936 
L 709.211528 385.397703 
L 710.204234 389.898087 
L 711.19694 388.008278 
L 712.189646 392.21876 
L 713.182352 385.721899 
L 714.175058 389.13226 
L 715.167764 386.340452 
L 716.16047 388.765024 
L 717.153176 389.110557 
L 718.145882 388.324336 
L 719.138587 393.28372 
L 720.131293 392.983757 
L 721.123999 393.353804 
L 722.116705 389.596627 
L 723.109411 388.786392 
L 724.102117 385.542846 
L 725.094823 388.758459 
L 726.087529 390.945493 
L 727.080235 389.703337 
L 728.072941 396.491636 
L 729.065647 388.581542 
L 730.058353 387.230348 
L 731.051059 393.883633 
L 732.043764 388.891568 
L 733.03647 389.839291 
L 734.029176 384.345437 
L 735.021882 390.762534 
L 736.014588 389.460591 
L 737.007294 387.774699 
L 738 392.897704 
L 738.992706 389.821288 
L 739.985412 389.295381 
L 740.978118 390.603156 
L 741.970824 387.010966 
L 742.96353 390.177793 
L 743.956236 394.445722 
L 744.948941 389.593864 
L 745.941647 394.022722 
L 746.934353 391.704005 
L 747.927059 394.585342 
L 748.919765 394.550161 
L 749.912471 386.038935 
L 751.897883 395.391842 
L 752.890589 383.281807 
L 753.883295 391.231462 
L 754.876001 397.237788 
L 755.868707 390.14166 
L 756.861413 390.077177 
L 757.854118 391.815377 
L 758.846824 393.024233 
L 759.83953 393.28743 
L 760.832236 392.475229 
L 761.824942 390.649625 
L 762.817648 387.030401 
L 763.810354 391.902444 
L 764.80306 389.648099 
L 765.795766 391.869501 
L 766.788472 397.381979 
L 767.781178 391.121038 
L 768.773884 394.601513 
L 769.76659 392.0625 
L 770.759295 392.46269 
L 771.752001 391.852494 
L 772.744707 392.089688 
L 773.737413 393.614149 
L 774.730119 390.084598 
L 775.722825 390.470061 
L 776.715531 394.169471 
L 777.708237 391.912213 
L 778.700943 392.470505 
L 779.693649 393.345037 
L 780.686355 392.700835 
L 782.671767 391.092853 
L 783.664473 393.386416 
L 784.657178 393.212173 
L 785.649884 391.294981 
L 786.64259 392.698048 
L 787.635296 392.867714 
L 788.628002 393.830571 
L 789.620708 387.667313 
L 790.613414 393.314626 
L 791.60612 395.907547 
L 792.598826 395.699482 
L 793.591532 392.129065 
L 794.584238 391.350997 
L 795.576944 387.864145 
L 796.56965 391.113057 
L 797.562355 390.758933 
L 798.555061 391.744755 
L 799.547767 393.317938 
L 800.540473 394.085973 
L 801.533179 394.689952 
L 802.525885 395.146592 
L 803.518591 391.252567 
L 804.511297 394.172101 
L 805.504003 396.673261 
L 806.496709 391.81335 
L 807.489415 393.612643 
L 808.482121 393.606406 
L 809.474827 390.101235 
L 810.467532 390.843741 
L 811.460238 390.549114 
L 812.452944 393.757125 
L 813.44565 398.072058 
L 814.438356 398.679454 
L 815.431062 393.157103 
L 816.423768 397.811404 
L 817.416474 391.700583 
L 818.40918 390.381303 
L 819.401886 392.513381 
L 820.394592 386.896795 
L 821.387298 395.161234 
L 822.380004 394.540216 
L 823.372709 399.6757 
L 825.358121 391.986527 
L 826.350827 396.903575 
L 827.343533 390.265326 
L 828.336239 390.80185 
L 829.328945 397.959725 
L 830.321651 400.153439 
L 831.314357 393.159242 
L 832.307063 397.775522 
L 833.299769 398.00971 
L 834.292475 389.592991 
L 835.285181 392.637152 
L 836.277886 391.009747 
L 837.270592 395.295333 
L 838.263298 392.33704 
L 839.256004 392.351572 
L 840.24871 396.725879 
L 842.234122 395.063536 
L 843.226828 395.214234 
L 844.219534 397.869879 
L 845.21224 396.695177 
L 846.204946 396.970179 
L 847.197652 396.412207 
L 848.190358 389.424191 
L 849.183064 394.734266 
L 850.175769 392.718719 
L 852.161181 396.20659 
L 853.153887 394.031095 
L 854.146593 397.285622 
L 855.139299 392.911331 
L 856.132005 398.4294 
L 857.124711 396.120858 
L 858.117417 396.03407 
L 859.110123 395.405365 
L 860.102829 391.284986 
L 861.095535 400.365436 
L 862.088241 400.914692 
L 863.080946 395.964172 
L 864.073652 398.033343 
L 865.066358 400.879885 
L 866.059064 404.511581 
L 868.044476 397.25695 
L 869.037182 400.13328 
L 870.029888 395.525125 
L 871.022594 395.482085 
L 872.0153 396.535104 
L 874.993418 392.238475 
L 876.978829 397.847844 
L 877.971535 392.502416 
L 878.964241 397.789271 
L 879.956947 396.302747 
L 880.949653 396.628827 
L 882.935065 399.309761 
L 883.927771 396.167865 
L 884.920477 397.680311 
L 885.913183 398.26099 
L 886.905889 402.025094 
L 887.898595 397.157528 
L 888.8913 396.994173 
L 889.884006 406.710029 
L 890.876712 399.819128 
L 891.869418 394.46994 
L 892.862124 396.842176 
L 893.85483 397.055752 
L 894.847536 395.997199 
L 895.840242 397.728351 
L 896.832948 396.889135 
L 897.825654 397.801353 
L 898.81836 397.006042 
L 899.811066 396.806813 
L 900.803772 403.767677 
L 901.796477 394.02034 
L 902.789183 395.94788 
L 903.781889 396.796888 
L 904.774595 396.008867 
L 905.767301 400.191268 
L 906.760007 400.460369 
L 907.752713 395.095947 
L 908.745419 400.887281 
L 909.738125 391.793301 
L 910.730831 398.315245 
L 911.723537 399.516847 
L 912.716243 399.279983 
L 913.708949 400.562 
L 914.701655 398.137069 
L 915.69436 397.797713 
L 916.687066 396.839186 
L 917.679772 393.47362 
L 918.672478 402.227136 
L 919.665184 396.929808 
L 920.65789 392.544769 
L 921.650596 395.85442 
L 922.643302 399.861487 
L 923.636008 394.060328 
L 924.628714 397.373389 
L 925.62142 403.443991 
L 926.614126 401.940518 
L 927.606832 402.571842 
L 928.599537 395.959394 
L 929.592243 398.155142 
L 930.584949 396.760591 
L 931.577655 397.82287 
L 932.570361 396.651027 
L 933.563067 398.766417 
L 934.555773 399.554582 
L 935.548479 403.263088 
L 936.541185 397.872979 
L 937.533891 393.669358 
L 938.526597 399.702591 
L 939.519303 400.953487 
L 940.512009 399.512677 
L 941.504714 392.472749 
L 942.49742 398.02475 
L 943.490126 405.431052 
L 944.482832 400.188528 
L 945.475538 392.571474 
L 946.468244 400.294108 
L 947.46095 399.603611 
L 948.453656 397.760892 
L 949.446362 399.170828 
L 950.439068 398.088411 
L 951.431774 397.336408 
L 952.42448 402.873744 
L 953.417186 397.931336 
L 954.409891 400.71806 
L 955.402597 405.523379 
L 956.395303 398.217148 
L 957.388009 406.112635 
L 958.380715 404.672604 
L 959.373421 409.459731 
L 960.366127 401.927234 
L 961.358833 400.435681 
L 962.351539 398.203575 
L 963.344245 405.729706 
L 964.336951 395.561977 
L 965.329657 400.485347 
L 966.322363 397.286819 
L 967.315068 400.782475 
L 968.307774 399.173426 
L 969.30048 398.284446 
L 970.293186 398.947764 
L 971.285892 401.553394 
L 972.278598 399.273615 
L 973.271304 403.522851 
L 974.26401 399.463099 
L 975.256716 400.92787 
L 976.249422 401.158785 
L 977.242128 398.267032 
L 978.234834 398.024848 
L 979.22754 399.142599 
L 980.220246 404.590543 
L 981.212951 398.457812 
L 982.205657 399.33785 
L 983.198363 400.901559 
L 984.191069 404.249509 
L 985.183775 399.712497 
L 986.176481 401.404832 
L 987.169187 397.268445 
L 988.161893 396.831841 
L 989.154599 401.602535 
L 990.147305 399.740017 
L 991.140011 399.875234 
L 992.132717 401.116232 
L 993.125423 397.546476 
L 994.118128 399.033249 
L 995.110834 402.88424 
L 996.10354 404.887089 
L 997.096246 399.877191 
L 998.088952 399.294994 
L 999.081658 399.0134 
L 1001.06707 406.685048 
L 1002.059776 395.509185 
L 1003.052482 404.23421 
L 1004.045188 396.637619 
L 1005.037894 398.287607 
L 1006.0306 401.039442 
L 1007.023305 395.757616 
L 1008.016011 399.103348 
L 1009.008717 397.223533 
L 1010.001423 400.023131 
L 1010.994129 402.431101 
L 1011.986835 397.999481 
L 1012.979541 399.397338 
L 1013.972247 397.195079 
L 1014.964953 397.900241 
L 1015.957659 400.400819 
L 1016.950365 403.685358 
L 1017.943071 404.396409 
L 1018.935777 400.611127 
L 1019.928482 403.797838 
L 1020.921188 402.162579 
L 1021.913894 402.127182 
L 1023.899306 405.319322 
L 1024.892012 400.506127 
L 1025.884718 404.715897 
L 1026.877424 394.785803 
L 1027.87013 398.993492 
L 1028.862836 397.570116 
L 1029.855542 403.818948 
L 1030.848248 401.80718 
L 1031.840954 401.846951 
L 1032.833659 404.752995 
L 1033.826365 403.699692 
L 1034.819071 403.270771 
L 1035.811777 400.235021 
L 1036.804483 400.187142 
L 1037.797189 404.328733 
L 1038.789895 402.946674 
L 1039.782601 407.374675 
L 1040.775307 405.627626 
L 1041.768013 402.622805 
L 1042.760719 393.219001 
L 1043.753425 394.495709 
L 1044.746131 398.078661 
L 1045.738837 400.529259 
L 1046.731542 401.746192 
L 1047.724248 401.301307 
L 1048.716954 398.755853 
L 1049.70966 405.787451 
L 1050.702366 400.615738 
L 1051.695072 400.633328 
L 1052.687778 399.950435 
L 1053.680484 403.177135 
L 1054.67319 409.36821 
L 1055.665896 404.544704 
L 1056.658602 402.656746 
L 1057.651308 405.76633 
L 1059.636719 400.48516 
L 1060.629425 401.434896 
L 1061.622131 400.177851 
L 1062.614837 401.601063 
L 1063.607543 398.283316 
L 1064.600249 405.035866 
L 1065.592955 398.401504 
L 1066.585661 405.751347 
L 1067.578367 404.81737 
L 1068.571073 398.987477 
L 1069.563779 398.677 
L 1070.556485 401.107293 
L 1071.549191 401.097209 
L 1072.541896 401.802341 
L 1073.534602 399.238566 
L 1074.527308 403.916946 
L 1075.520014 403.54373 
L 1076.51272 401.711952 
L 1077.505426 400.431774 
L 1078.498132 405.10816 
L 1079.490838 404.127831 
L 1080.483544 406.103302 
L 1081.47625 398.317127 
L 1082.468956 399.663335 
L 1083.461662 405.605293 
L 1084.454368 395.360746 
L 1085.447073 402.525897 
L 1086.439779 403.623422 
L 1087.432485 398.598972 
L 1088.425191 406.28215 
L 1089.417897 400.732175 
L 1090.410603 405.665074 
L 1091.403309 399.551552 
L 1092.396015 398.304126 
L 1093.388721 403.098482 
L 1094.381427 403.685736 
L 1095.374133 405.537613 
L 1096.366839 404.608167 
L 1097.359545 400.387114 
L 1098.35225 402.916249 
L 1099.344956 396.823762 
L 1100.337662 402.013532 
L 1101.330368 405.559312 
L 1102.323074 400.948122 
L 1103.31578 399.970963 
L 1104.308486 404.901976 
L 1105.301192 402.803417 
L 1106.293898 405.040592 
L 1107.286604 399.785039 
L 1108.27931 403.591222 
L 1109.272016 396.731153 
L 1110.264722 402.49905 
L 1111.257428 406.947892 
L 1112.250133 404.006277 
L 1113.242839 402.74236 
L 1114.235545 407.551665 
L 1115.228251 406.125038 
L 1116.220957 405.094876 
L 1117.213663 400.582343 
L 1118.206369 404.779562 
L 1119.199075 402.303164 
L 1120.191781 404.11268 
L 1121.184487 399.608174 
L 1122.177193 402.804927 
L 1123.169899 402.592485 
L 1124.162605 402.703184 
L 1125.15531 397.649893 
L 1126.148016 402.102157 
L 1127.140722 409.859827 
L 1128.133428 408.406591 
L 1129.126134 402.202503 
L 1130.11884 399.751628 
L 1131.111546 408.92333 
L 1132.104252 399.994936 
L 1133.096958 402.648833 
L 1134.089664 406.212752 
L 1135.08237 400.146585 
L 1136.075076 400.130896 
L 1137.067782 410.197563 
L 1138.060487 402.438714 
L 1139.053193 407.754919 
L 1140.045899 402.980038 
L 1141.038605 401.950416 
L 1142.031311 405.890326 
L 1143.024017 396.6698 
L 1144.016723 402.731666 
L 1145.009429 402.541422 
L 1146.002135 402.549509 
L 1146.994841 411.261113 
L 1147.987547 405.151038 
L 1148.980253 404.987904 
L 1149.972959 403.357988 
L 1150.965664 400.217049 
L 1151.95837 403.659046 
L 1152.951076 405.033688 
L 1153.943782 402.077593 
L 1154.936488 398.649463 
L 1156.9219 405.46551 
L 1157.914606 403.948176 
L 1158.907312 405.101797 
L 1159.900018 408.084853 
L 1160.892724 403.948944 
L 1161.88543 407.22659 
L 1162.878136 402.067107 
L 1163.870841 403.611087 
L 1164.863547 402.876781 
L 1165.856253 403.490182 
L 1166.848959 400.590151 
L 1167.841665 399.59111 
L 1168.834371 404.204793 
L 1169.827077 405.524124 
L 1170.819783 402.712336 
L 1171.812489 400.307323 
L 1172.805195 406.743574 
L 1173.797901 398.627841 
L 1174.790607 409.377526 
L 1175.783313 400.479365 
L 1176.776019 400.614226 
L 1177.768724 405.764992 
L 1178.76143 405.339107 
L 1179.754136 405.690059 
L 1180.746842 403.34606 
L 1181.739548 406.149697 
L 1182.732254 401.085033 
L 1184.717666 409.10991 
L 1185.710372 399.572029 
L 1186.703078 400.829331 
L 1187.695784 407.319729 
L 1188.68849 402.972264 
L 1189.681196 405.940924 
L 1190.673901 400.239837 
L 1191.666607 406.725614 
L 1192.659313 402.001312 
L 1193.652019 402.656159 
L 1194.644725 404.805121 
L 1195.637431 400.088423 
L 1196.630137 405.645947 
L 1197.622843 405.181697 
L 1198.615549 409.45185 
L 1199.608255 406.402441 
L 1201.593667 405.292856 
L 1202.586373 406.405091 
L 1203.579078 402.307681 
L 1204.571784 403.641749 
L 1205.56449 403.500252 
L 1206.557196 405.220292 
L 1207.549902 401.268679 
L 1208.542608 404.166009 
L 1209.535314 401.841669 
L 1210.52802 403.44918 
L 1211.520726 402.991465 
L 1212.513432 407.050802 
L 1213.506138 405.87791 
L 1214.498844 401.729274 
L 1215.49155 405.681542 
L 1216.484255 410.597762 
L 1217.476961 404.974095 
L 1218.469667 398.284699 
L 1219.462373 408.879972 
L 1220.455079 399.971285 
L 1221.447785 401.703611 
L 1222.440491 398.734728 
L 1223.433197 403.329081 
L 1224.425903 402.385493 
L 1225.418609 407.298119 
L 1226.411315 399.869963 
L 1227.404021 402.254865 
L 1228.396727 403.316525 
L 1229.389432 403.363174 
L 1230.382138 400.578659 
L 1231.374844 404.83776 
L 1232.36755 404.537751 
L 1234.352962 405.671773 
L 1235.345668 407.380603 
L 1236.338374 402.934719 
L 1237.33108 405.337928 
L 1238.323786 406.406416 
L 1239.316492 403.427891 
L 1240.309198 400.811091 
L 1241.301904 405.217789 
L 1242.29461 404.803139 
L 1243.287315 407.712462 
L 1244.280021 401.092462 
L 1245.272727 405.908017 
L 1245.272727 405.908017 
" clip-path="url(#p951c3abe66)" style="fill: none; stroke: #1f77b4; stroke-width: 1.5; stroke-linecap: square"/>
   </g>
   <g id="patch_3">
    <path d="M 180 512.64 
L 180 69.12 
" style="fill: none; stroke: #000000; stroke-width: 0.8; stroke-linejoin: miter; stroke-linecap: square"/>
   </g>
   <g id="patch_4">
    <path d="M 1296 512.64 
L 1296 69.12 
" style="fill: none; stroke: #000000; stroke-width: 0.8; stroke-linejoin: miter; stroke-linecap: square"/>
   </g>
   <g id="patch_5">
    <path d="M 180 512.64 
L 1296 512.64 
" style="fill: none; stroke: #000000; stroke-width: 0.8; stroke-linejoin: miter; stroke-linecap: square"/>
   </g>
   <g id="patch_6">
    <path d="M 180 69.12 
L 1296 69.12 
" style="fill: none; stroke: #000000; stroke-width: 0.8; stroke-linejoin: miter; stroke-linecap: square"/>
   </g>
   <g id="text_12">
    <!-- source15-receiver22 -->
    <g transform="translate(532.175 60.80125) scale(0.4 -0.4)">
     <defs>
      <path id="DejaVuSans-73" d="M 2834 3397 
L 2834 2853 
Q 2591 2978 2328 3040 
Q 2066 3103 1784 3103 
Q 1356 3103 1142 2972 
Q 928 2841 928 2578 
Q 928 2378 1081 2264 
Q 1234 2150 1697 2047 
L 1894 2003 
Q 2506 1872 2764 1633 
Q 3022 1394 3022 966 
Q 3022 478 2636 193 
Q 2250 -91 1575 -91 
Q 1294 -91 989 -36 
Q 684 19 347 128 
L 347 722 
Q 666 556 975 473 
Q 1284 391 1588 391 
Q 1994 391 2212 530 
Q 2431 669 2431 922 
Q 2431 1156 2273 1281 
Q 2116 1406 1581 1522 
L 1381 1569 
Q 847 1681 609 1914 
Q 372 2147 372 2553 
Q 372 3047 722 3315 
Q 1072 3584 1716 3584 
Q 2034 3584 2315 3537 
Q 2597 3491 2834 3397 
z
" transform="scale(0.015625)"/>
      <path id="DejaVuSans-6f" d="M 1959 3097 
Q 1497 3097 1228 2736 
Q 959 2375 959 1747 
Q 959 1119 1226 758 
Q 1494 397 1959 397 
Q 2419 397 2687 759 
Q 2956 1122 2956 1747 
Q 2956 2369 2687 2733 
Q 2419 3097 1959 3097 
z
M 1959 3584 
Q 2709 3584 3137 3096 
Q 3566 2609 3566 1747 
Q 3566 888 3137 398 
Q 2709 -91 1959 -91 
Q 1206 -91 779 398 
Q 353 888 353 1747 
Q 353 2609 779 3096 
Q 1206 3584 1959 3584 
z
" transform="scale(0.015625)"/>
      <path id="DejaVuSans-75" d="M 544 1381 
L 544 3500 
L 1119 3500 
L 1119 1403 
Q 1119 906 1312 657 
Q 1506 409 1894 409 
Q 2359 409 2629 706 
Q 2900 1003 2900 1516 
L 2900 3500 
L 3475 3500 
L 3475 0 
L 2900 0 
L 2900 538 
Q 2691 219 2414 64 
Q 2138 -91 1772 -91 
Q 1169 -91 856 284 
Q 544 659 544 1381 
z
M 1991 3584 
L 1991 3584 
z
" transform="scale(0.015625)"/>
      <path id="DejaVuSans-72" d="M 2631 2963 
Q 2534 3019 2420 3045 
Q 2306 3072 2169 3072 
Q 1681 3072 1420 2755 
Q 1159 2438 1159 1844 
L 1159 0 
L 581 0 
L 581 3500 
L 1159 3500 
L 1159 2956 
Q 1341 3275 1631 3429 
Q 1922 3584 2338 3584 
Q 2397 3584 2469 3576 
Q 2541 3569 2628 3553 
L 2631 2963 
z
" transform="scale(0.015625)"/>
      <path id="DejaVuSans-63" d="M 3122 3366 
L 3122 2828 
Q 2878 2963 2633 3030 
Q 2388 3097 2138 3097 
Q 1578 3097 1268 2742 
Q 959 2388 959 1747 
Q 959 1106 1268 751 
Q 1578 397 2138 397 
Q 2388 397 2633 464 
Q 2878 531 3122 666 
L 3122 134 
Q 2881 22 2623 -34 
Q 2366 -91 2075 -91 
Q 1284 -91 818 406 
Q 353 903 353 1747 
Q 353 2603 823 3093 
Q 1294 3584 2113 3584 
Q 2378 3584 2631 3529 
Q 2884 3475 3122 3366 
z
" transform="scale(0.015625)"/>
      <path id="DejaVuSans-65" d="M 3597 1894 
L 3597 1613 
L 953 1613 
Q 991 1019 1311 708 
Q 1631 397 2203 397 
Q 2534 397 2845 478 
Q 3156 559 3463 722 
L 3463 178 
Q 3153 47 2828 -22 
Q 2503 -91 2169 -91 
Q 1331 -91 842 396 
Q 353 884 353 1716 
Q 353 2575 817 3079 
Q 1281 3584 2069 3584 
Q 2775 3584 3186 3129 
Q 3597 2675 3597 1894 
z
M 3022 2063 
Q 3016 2534 2758 2815 
Q 2500 3097 2075 3097 
Q 1594 3097 1305 2825 
Q 1016 2553 972 2059 
L 3022 2063 
z
" transform="scale(0.015625)"/>
      <path id="DejaVuSans-2d" d="M 313 2009 
L 1997 2009 
L 1997 1497 
L 313 1497 
L 313 2009 
z
" transform="scale(0.015625)"/>
      <path id="DejaVuSans-69" d="M 603 3500 
L 1178 3500 
L 1178 0 
L 603 0 
L 603 3500 
z
M 603 4863 
L 1178 4863 
L 1178 4134 
L 603 4134 
L 603 4863 
z
" transform="scale(0.015625)"/>
      <path id="DejaVuSans-76" d="M 191 3500 
L 800 3500 
L 1894 563 
L 2988 3500 
L 3597 3500 
L 2284 0 
L 1503 0 
L 191 3500 
z
" transform="scale(0.015625)"/>
     </defs>
     <use xlink:href="#DejaVuSans-73"/>
     <use xlink:href="#DejaVuSans-6f" x="52.099609"/>
     <use xlink:href="#DejaVuSans-75" x="113.28125"/>
     <use xlink:href="#DejaVuSans-72" x="176.660156"/>
     <use xlink:href="#DejaVuSans-63" x="215.523438"/>
     <use xlink:href="#DejaVuSans-65" x="270.503906"/>
     <use xlink:href="#DejaVuSans-31" x="332.027344"/>
     <use xlink:href="#DejaVuSans-35" x="395.650391"/>
     <use xlink:href="#DejaVuSans-2d" x="459.273438"/>
     <use xlink:href="#DejaVuSans-72" x="495.357422"/>
     <use xlink:href="#DejaVuSans-65" x="534.220703"/>
     <use xlink:href="#DejaVuSans-63" x="595.744141"/>
     <use xlink:href="#DejaVuSans-65" x="650.724609"/>
     <use xlink:href="#DejaVuSans-69" x="712.248047"/>
     <use xlink:href="#DejaVuSans-76" x="740.03125"/>
     <use xlink:href="#DejaVuSans-65" x="799.210938"/>
     <use xlink:href="#DejaVuSans-72" x="860.734375"/>
     <use xlink:href="#DejaVuSans-32" x="901.847656"/>
     <use xlink:href="#DejaVuSans-32" x="965.470703"/>
    </g>
   </g>
  </g>
 </g>
 <defs>
  <clipPath id="p951c3abe66">
   <rect x="180" y="69.12" width="1116" height="443.52"/>
  </clipPath>
 </defs>
</svg>
