<?xml version="1.0" encoding="utf-8" standalone="no"?>
<!DOCTYPE svg PUBLIC "-//W3C//DTD SVG 1.1//EN"
  "http://www.w3.org/Graphics/SVG/1.1/DTD/svg11.dtd">
<svg xmlns:xlink="http://www.w3.org/1999/xlink" width="1440pt" height="576pt" viewBox="0 0 1440 576" xmlns="http://www.w3.org/2000/svg" version="1.1">
 <metadata>
  <rdf:RDF xmlns:dc="http://purl.org/dc/elements/1.1/" xmlns:cc="http://creativecommons.org/ns#" xmlns:rdf="http://www.w3.org/1999/02/22-rdf-syntax-ns#">
   <cc:Work>
    <dc:type rdf:resource="http://purl.org/dc/dcmitype/StillImage"/>
    <dc:date>2024-05-22T04:50:07.673758</dc:date>
    <dc:format>image/svg+xml</dc:format>
    <dc:creator>
     <cc:Agent>
      <dc:title>Matplotlib v3.8.3, https://matplotlib.org/</dc:title>
     </cc:Agent>
    </dc:creator>
   </cc:Work>
  </rdf:RDF>
 </metadata>
 <defs>
  <style type="text/css">*{stroke-linejoin: round; stroke-linecap: butt}</style>
 </defs>
 <g id="figure_1">
  <g id="patch_1">
   <path d="M 0 576 
L 1440 576 
L 1440 0 
L 0 0 
z
" style="fill: #ffffff"/>
  </g>
  <g id="axes_1">
   <g id="patch_2">
    <path d="M 180 512.64 
L 1296 512.64 
L 1296 69.12 
L 180 69.12 
z
" style="fill: #ffffff"/>
   </g>
   <g id="matplotlib.axis_1">
    <g id="xtick_1">
     <g id="line2d_1">
      <defs>
       <path id="m869f1bcb15" d="M 0 0 
L 0 3.5 
" style="stroke: #000000; stroke-width: 0.8"/>
      </defs>
      <g>
       <use xlink:href="#m869f1bcb15" x="229.734567" y="512.64" style="stroke: #000000; stroke-width: 0.8"/>
      </g>
     </g>
     <g id="text_1">
      <!-- 0 -->
      <g transform="translate(226.553317 527.238438) scale(0.1 -0.1)">
       <defs>
        <path id="DejaVuSans-30" d="M 2034 4250 
Q 1547 4250 1301 3770 
Q 1056 3291 1056 2328 
Q 1056 1369 1301 889 
Q 1547 409 2034 409 
Q 2525 409 2770 889 
Q 3016 1369 3016 2328 
Q 3016 3291 2770 3770 
Q 2525 4250 2034 4250 
z
M 2034 4750 
Q 2819 4750 3233 4129 
Q 3647 3509 3647 2328 
Q 3647 1150 3233 529 
Q 2819 -91 2034 -91 
Q 1250 -91 836 529 
Q 422 1150 422 2328 
Q 422 3509 836 4129 
Q 1250 4750 2034 4750 
z
" transform="scale(0.015625)"/>
       </defs>
       <use xlink:href="#DejaVuSans-30"/>
      </g>
     </g>
    </g>
    <g id="xtick_2">
     <g id="line2d_2">
      <g>
       <use xlink:href="#m869f1bcb15" x="433.04074" y="512.64" style="stroke: #000000; stroke-width: 0.8"/>
      </g>
     </g>
     <g id="text_2">
      <!-- 500 -->
      <g transform="translate(423.49699 527.238438) scale(0.1 -0.1)">
       <defs>
        <path id="DejaVuSans-35" d="M 691 4666 
L 3169 4666 
L 3169 4134 
L 1269 4134 
L 1269 2991 
Q 1406 3038 1543 3061 
Q 1681 3084 1819 3084 
Q 2600 3084 3056 2656 
Q 3513 2228 3513 1497 
Q 3513 744 3044 326 
Q 2575 -91 1722 -91 
Q 1428 -91 1123 -41 
Q 819 9 494 109 
L 494 744 
Q 775 591 1075 516 
Q 1375 441 1709 441 
Q 2250 441 2565 725 
Q 2881 1009 2881 1497 
Q 2881 1984 2565 2268 
Q 2250 2553 1709 2553 
Q 1456 2553 1204 2497 
Q 953 2441 691 2322 
L 691 4666 
z
" transform="scale(0.015625)"/>
       </defs>
       <use xlink:href="#DejaVuSans-35"/>
       <use xlink:href="#DejaVuSans-30" x="63.623047"/>
       <use xlink:href="#DejaVuSans-30" x="127.246094"/>
      </g>
     </g>
    </g>
    <g id="xtick_3">
     <g id="line2d_3">
      <g>
       <use xlink:href="#m869f1bcb15" x="636.346913" y="512.64" style="stroke: #000000; stroke-width: 0.8"/>
      </g>
     </g>
     <g id="text_3">
      <!-- 1000 -->
      <g transform="translate(623.621913 527.238438) scale(0.1 -0.1)">
       <defs>
        <path id="DejaVuSans-31" d="M 794 531 
L 1825 531 
L 1825 4091 
L 703 3866 
L 703 4441 
L 1819 4666 
L 2450 4666 
L 2450 531 
L 3481 531 
L 3481 0 
L 794 0 
L 794 531 
z
" transform="scale(0.015625)"/>
       </defs>
       <use xlink:href="#DejaVuSans-31"/>
       <use xlink:href="#DejaVuSans-30" x="63.623047"/>
       <use xlink:href="#DejaVuSans-30" x="127.246094"/>
       <use xlink:href="#DejaVuSans-30" x="190.869141"/>
      </g>
     </g>
    </g>
    <g id="xtick_4">
     <g id="line2d_4">
      <g>
       <use xlink:href="#m869f1bcb15" x="839.653087" y="512.64" style="stroke: #000000; stroke-width: 0.8"/>
      </g>
     </g>
     <g id="text_4">
      <!-- 1500 -->
      <g transform="translate(826.928087 527.238438) scale(0.1 -0.1)">
       <use xlink:href="#DejaVuSans-31"/>
       <use xlink:href="#DejaVuSans-35" x="63.623047"/>
       <use xlink:href="#DejaVuSans-30" x="127.246094"/>
       <use xlink:href="#DejaVuSans-30" x="190.869141"/>
      </g>
     </g>
    </g>
    <g id="xtick_5">
     <g id="line2d_5">
      <g>
       <use xlink:href="#m869f1bcb15" x="1042.95926" y="512.64" style="stroke: #000000; stroke-width: 0.8"/>
      </g>
     </g>
     <g id="text_5">
      <!-- 2000 -->
      <g transform="translate(1030.23426 527.238438) scale(0.1 -0.1)">
       <defs>
        <path id="DejaVuSans-32" d="M 1228 531 
L 3431 531 
L 3431 0 
L 469 0 
L 469 531 
Q 828 903 1448 1529 
Q 2069 2156 2228 2338 
Q 2531 2678 2651 2914 
Q 2772 3150 2772 3378 
Q 2772 3750 2511 3984 
Q 2250 4219 1831 4219 
Q 1534 4219 1204 4116 
Q 875 4013 500 3803 
L 500 4441 
Q 881 4594 1212 4672 
Q 1544 4750 1819 4750 
Q 2544 4750 2975 4387 
Q 3406 4025 3406 3419 
Q 3406 3131 3298 2873 
Q 3191 2616 2906 2266 
Q 2828 2175 2409 1742 
Q 1991 1309 1228 531 
z
" transform="scale(0.015625)"/>
       </defs>
       <use xlink:href="#DejaVuSans-32"/>
       <use xlink:href="#DejaVuSans-30" x="63.623047"/>
       <use xlink:href="#DejaVuSans-30" x="127.246094"/>
       <use xlink:href="#DejaVuSans-30" x="190.869141"/>
      </g>
     </g>
    </g>
    <g id="xtick_6">
     <g id="line2d_6">
      <g>
       <use xlink:href="#m869f1bcb15" x="1246.265433" y="512.64" style="stroke: #000000; stroke-width: 0.8"/>
      </g>
     </g>
     <g id="text_6">
      <!-- 2500 -->
      <g transform="translate(1233.540433 527.238438) scale(0.1 -0.1)">
       <use xlink:href="#DejaVuSans-32"/>
       <use xlink:href="#DejaVuSans-35" x="63.623047"/>
       <use xlink:href="#DejaVuSans-30" x="127.246094"/>
       <use xlink:href="#DejaVuSans-30" x="190.869141"/>
      </g>
     </g>
    </g>
   </g>
   <g id="matplotlib.axis_2">
    <g id="ytick_1">
     <g id="line2d_7">
      <defs>
       <path id="m894c5a1f14" d="M 0 0 
L -3.5 0 
" style="stroke: #000000; stroke-width: 0.8"/>
      </defs>
      <g>
       <use xlink:href="#m894c5a1f14" x="180" y="473.998626" style="stroke: #000000; stroke-width: 0.8"/>
      </g>
     </g>
     <g id="text_7">
      <!-- −2 -->
      <g transform="translate(158.257812 477.797845) scale(0.1 -0.1)">
       <defs>
        <path id="DejaVuSans-2212" d="M 678 2272 
L 4684 2272 
L 4684 1741 
L 678 1741 
L 678 2272 
z
" transform="scale(0.015625)"/>
       </defs>
       <use xlink:href="#DejaVuSans-2212"/>
       <use xlink:href="#DejaVuSans-32" x="83.789062"/>
      </g>
     </g>
    </g>
    <g id="ytick_2">
     <g id="line2d_8">
      <g>
       <use xlink:href="#m894c5a1f14" x="180" y="415.731526" style="stroke: #000000; stroke-width: 0.8"/>
      </g>
     </g>
     <g id="text_8">
      <!-- −1 -->
      <g transform="translate(158.257812 419.530745) scale(0.1 -0.1)">
       <use xlink:href="#DejaVuSans-2212"/>
       <use xlink:href="#DejaVuSans-31" x="83.789062"/>
      </g>
     </g>
    </g>
    <g id="ytick_3">
     <g id="line2d_9">
      <g>
       <use xlink:href="#m894c5a1f14" x="180" y="357.464427" style="stroke: #000000; stroke-width: 0.8"/>
      </g>
     </g>
     <g id="text_9">
      <!-- 0 -->
      <g transform="translate(166.6375 361.263645) scale(0.1 -0.1)">
       <use xlink:href="#DejaVuSans-30"/>
      </g>
     </g>
    </g>
    <g id="ytick_4">
     <g id="line2d_10">
      <g>
       <use xlink:href="#m894c5a1f14" x="180" y="299.197327" style="stroke: #000000; stroke-width: 0.8"/>
      </g>
     </g>
     <g id="text_10">
      <!-- 1 -->
      <g transform="translate(166.6375 302.996546) scale(0.1 -0.1)">
       <use xlink:href="#DejaVuSans-31"/>
      </g>
     </g>
    </g>
    <g id="ytick_5">
     <g id="line2d_11">
      <g>
       <use xlink:href="#m894c5a1f14" x="180" y="240.930227" style="stroke: #000000; stroke-width: 0.8"/>
      </g>
     </g>
     <g id="text_11">
      <!-- 2 -->
      <g transform="translate(166.6375 244.729446) scale(0.1 -0.1)">
       <use xlink:href="#DejaVuSans-32"/>
      </g>
     </g>
    </g>
    <g id="ytick_6">
     <g id="line2d_12">
      <g>
       <use xlink:href="#m894c5a1f14" x="180" y="182.663128" style="stroke: #000000; stroke-width: 0.8"/>
      </g>
     </g>
     <g id="text_12">
      <!-- 3 -->
      <g transform="translate(166.6375 186.462346) scale(0.1 -0.1)">
       <defs>
        <path id="DejaVuSans-33" d="M 2597 2516 
Q 3050 2419 3304 2112 
Q 3559 1806 3559 1356 
Q 3559 666 3084 287 
Q 2609 -91 1734 -91 
Q 1441 -91 1130 -33 
Q 819 25 488 141 
L 488 750 
Q 750 597 1062 519 
Q 1375 441 1716 441 
Q 2309 441 2620 675 
Q 2931 909 2931 1356 
Q 2931 1769 2642 2001 
Q 2353 2234 1838 2234 
L 1294 2234 
L 1294 2753 
L 1863 2753 
Q 2328 2753 2575 2939 
Q 2822 3125 2822 3475 
Q 2822 3834 2567 4026 
Q 2313 4219 1838 4219 
Q 1578 4219 1281 4162 
Q 984 4106 628 3988 
L 628 4550 
Q 988 4650 1302 4700 
Q 1616 4750 1894 4750 
Q 2613 4750 3031 4423 
Q 3450 4097 3450 3541 
Q 3450 3153 3228 2886 
Q 3006 2619 2597 2516 
z
" transform="scale(0.015625)"/>
       </defs>
       <use xlink:href="#DejaVuSans-33"/>
      </g>
     </g>
    </g>
    <g id="ytick_7">
     <g id="line2d_13">
      <g>
       <use xlink:href="#m894c5a1f14" x="180" y="124.396028" style="stroke: #000000; stroke-width: 0.8"/>
      </g>
     </g>
     <g id="text_13">
      <!-- 4 -->
      <g transform="translate(166.6375 128.195247) scale(0.1 -0.1)">
       <defs>
        <path id="DejaVuSans-34" d="M 2419 4116 
L 825 1625 
L 2419 1625 
L 2419 4116 
z
M 2253 4666 
L 3047 4666 
L 3047 1625 
L 3713 1625 
L 3713 1100 
L 3047 1100 
L 3047 0 
L 2419 0 
L 2419 1100 
L 313 1100 
L 313 1709 
L 2253 4666 
z
" transform="scale(0.015625)"/>
       </defs>
       <use xlink:href="#DejaVuSans-34"/>
      </g>
     </g>
    </g>
   </g>
   <g id="line2d_14">
    <path d="M 230.727273 357.189508 
L 231.719979 357.271385 
L 233.70539 356.995333 
L 237.676214 356.161732 
L 238.66892 355.695075 
L 239.661626 355.530751 
L 240.654332 354.929688 
L 242.639744 354.279111 
L 243.63245 354.470334 
L 244.625156 354.124711 
L 245.617862 351.472077 
L 247.603273 338.55277 
L 248.595979 343.221527 
L 249.588685 353.916614 
L 251.574097 260.098888 
L 252.566803 228.796785 
L 253.559509 210.517399 
L 254.552215 199.497029 
L 255.544921 194.407004 
L 256.537627 189.9975 
L 258.523039 178.04726 
L 259.515745 176.624383 
L 260.50845 179.254882 
L 261.501156 180.204382 
L 262.493862 177.113034 
L 263.486568 177.211106 
L 264.479274 190.441072 
L 266.464686 278.897179 
L 267.457392 212.954381 
L 268.450098 204.015925 
L 269.442804 221.698668 
L 270.43551 230.074767 
L 271.428216 207.700738 
L 272.420922 210.473723 
L 273.413627 268.373689 
L 274.406333 207.824931 
L 275.399039 163.46695 
L 276.391745 147.240068 
L 277.384451 144.495704 
L 278.377157 140.821129 
L 280.362569 104.658337 
L 281.355275 92.766313 
L 282.347981 89.28 
L 283.340687 94.426963 
L 284.333393 108.735025 
L 285.326099 129.426641 
L 286.318804 138.099909 
L 287.31151 131.484318 
L 288.304216 132.424354 
L 289.296922 149.346226 
L 290.289628 181.639238 
L 291.282334 182.455899 
L 292.27504 166.019674 
L 293.267746 170.186421 
L 294.260452 199.483784 
L 295.253158 263.549072 
L 296.245864 238.404492 
L 297.23857 231.262082 
L 298.231276 272.087039 
L 299.223981 319.541952 
L 300.216687 256.390305 
L 301.209393 261.945755 
L 302.202099 337.376441 
L 303.194805 288.013385 
L 304.187511 258.89495 
L 305.180217 268.697449 
L 306.172923 336.342994 
L 307.165629 326.99482 
L 308.158335 288.257767 
L 309.151041 296.967166 
L 310.143747 341.941965 
L 311.136453 336.938752 
L 312.129159 317.114732 
L 313.121864 328.32944 
L 314.11457 335.366606 
L 315.107276 331.771817 
L 316.099982 332.544099 
L 317.092688 337.039475 
L 318.085394 340.560003 
L 319.0781 338.987991 
L 320.070806 341.176932 
L 322.056218 344.671928 
L 323.048924 347.826828 
L 324.04163 347.257586 
L 325.034336 345.442992 
L 326.027041 351.089489 
L 327.019747 354.978022 
L 328.012453 352.269108 
L 329.005159 350.901646 
L 329.997865 355.157968 
L 330.990571 354.900599 
L 331.983277 357.757445 
L 332.975983 358.348687 
L 333.968689 360.251569 
L 334.961395 358.65982 
L 335.954101 360.055457 
L 336.946807 364.931893 
L 337.939513 371.001545 
L 338.932218 363.51365 
L 339.924924 361.024003 
L 340.91763 365.470539 
L 341.910336 372.199185 
L 342.903042 366.740666 
L 343.895748 369.53052 
L 344.888454 371.224861 
L 345.88116 376.746466 
L 346.873866 367.741539 
L 347.866572 371.398075 
L 348.859278 371.597089 
L 349.851984 372.949712 
L 350.84469 377.559244 
L 351.837395 380.019258 
L 352.830101 374.681042 
L 353.822807 377.610878 
L 354.815513 377.860063 
L 355.808219 383.327907 
L 356.800925 384.789688 
L 357.793631 381.865228 
L 358.786337 377.355596 
L 359.779043 382.393909 
L 360.771749 386.461308 
L 361.764455 381.921409 
L 362.757161 384.831691 
L 363.749867 388.884602 
L 364.742572 384.433368 
L 365.735278 386.254329 
L 366.727984 385.01693 
L 367.72069 387.24573 
L 368.713396 393.566802 
L 369.706102 387.382166 
L 370.698808 387.963329 
L 371.691514 386.037542 
L 372.68422 391.806344 
L 373.676926 394.668532 
L 374.669632 394.05288 
L 375.662338 400.048212 
L 376.655044 386.523119 
L 377.64775 387.660542 
L 378.640455 393.463006 
L 379.633161 395.575537 
L 380.625867 394.605602 
L 381.618573 399.316624 
L 382.611279 391.377816 
L 383.603985 391.136102 
L 384.596691 396.154562 
L 385.589397 399.134669 
L 386.582103 400.346181 
L 387.574809 397.303128 
L 388.567515 401.071927 
L 389.560221 398.938713 
L 390.552927 397.286347 
L 391.545632 397.108489 
L 392.538338 400.480233 
L 393.531044 395.49124 
L 394.52375 399.430287 
L 395.516456 406.50279 
L 396.509162 404.309028 
L 397.501868 403.940253 
L 399.48728 406.278835 
L 400.479986 403.203484 
L 401.472692 403.707189 
L 402.465398 409.677383 
L 403.458104 404.386174 
L 404.450809 410.145044 
L 405.443515 413.586561 
L 406.436221 407.227287 
L 407.428927 408.398795 
L 408.421633 407.867649 
L 409.414339 408.87417 
L 410.407045 410.348419 
L 412.392457 409.353969 
L 413.385163 404.858129 
L 414.377869 409.215504 
L 415.370575 401.949779 
L 416.363281 409.809442 
L 417.355986 409.096096 
L 418.348692 406.488839 
L 419.341398 414.914368 
L 420.334104 413.551294 
L 421.32681 416.255365 
L 422.319516 415.061169 
L 423.312222 411.314124 
L 424.304928 410.540916 
L 425.297634 413.363018 
L 426.29034 409.904455 
L 427.283046 414.473338 
L 428.275752 414.871184 
L 429.268458 415.959135 
L 430.261163 412.512241 
L 431.253869 418.494478 
L 432.246575 413.84956 
L 433.239281 415.190982 
L 434.231987 418.157708 
L 435.224693 419.626448 
L 436.217399 422.340767 
L 437.210105 417.485292 
L 438.202811 418.674201 
L 439.195517 412.827892 
L 440.188223 412.291433 
L 441.180929 420.047701 
L 442.173635 422.150585 
L 443.166341 418.976725 
L 444.159046 418.056693 
L 445.151752 416.781916 
L 446.144458 425.242759 
L 447.137164 419.943022 
L 448.12987 416.514967 
L 449.122576 426.873249 
L 450.115282 425.233689 
L 451.107988 425.413651 
L 452.100694 418.965174 
L 453.0934 420.894443 
L 454.086106 417.744068 
L 455.078812 423.865585 
L 456.071518 428.388403 
L 457.064223 423.068913 
L 458.056929 428.151181 
L 459.049635 423.197815 
L 460.042341 431.83203 
L 461.035047 429.702036 
L 462.027753 423.657736 
L 463.020459 432.887858 
L 464.013165 428.287215 
L 465.005871 426.528969 
L 465.998577 437.497489 
L 466.991283 436.870309 
L 467.983989 424.477951 
L 468.976695 433.903217 
L 469.9694 431.860879 
L 470.962106 425.490868 
L 471.954812 427.945875 
L 472.947518 435.858317 
L 473.940224 421.740747 
L 474.93293 431.871321 
L 475.925636 425.011206 
L 476.918342 421.291204 
L 477.911048 433.808083 
L 478.903754 435.923855 
L 479.89646 429.223635 
L 480.889166 426.389948 
L 481.881872 432.395045 
L 482.874577 434.85373 
L 483.867283 435.16859 
L 484.859989 429.931486 
L 485.852695 431.013757 
L 486.845401 431.919815 
L 487.838107 435.761141 
L 488.830813 437.68585 
L 489.823519 430.337386 
L 490.816225 435.954511 
L 491.808931 443.816401 
L 492.801637 433.948601 
L 493.794343 430.28257 
L 494.787049 436.018448 
L 495.779754 440.082281 
L 496.77246 434.786041 
L 497.765166 436.195126 
L 498.757872 434.047699 
L 499.750578 429.141948 
L 500.743284 444.449739 
L 501.73599 440.895431 
L 502.728696 440.439929 
L 503.721402 442.241927 
L 504.714108 441.176761 
L 505.706814 451.800478 
L 506.69952 437.76051 
L 507.692226 436.626533 
L 508.684932 432.185819 
L 509.677637 442.728553 
L 510.670343 435.160386 
L 511.663049 436.029962 
L 512.655755 433.66671 
L 513.648461 442.20007 
L 514.641167 446.974689 
L 515.633873 438.06829 
L 516.626579 447.863991 
L 517.619285 431.232019 
L 518.611991 444.071195 
L 519.604697 433.022915 
L 520.597403 449.987799 
L 521.590109 447.72811 
L 523.57552 442.809226 
L 524.568226 449.183259 
L 525.560932 450.58598 
L 526.553638 447.205883 
L 527.546344 436.610953 
L 528.53905 436.353038 
L 530.524462 454.597396 
L 531.517168 439.319881 
L 532.509874 435.24785 
L 533.50258 438.155318 
L 534.495286 448.992914 
L 535.487991 441.592894 
L 536.480697 444.933633 
L 537.473403 445.036263 
L 538.466109 441.419757 
L 539.458815 436.856192 
L 540.451521 450.260947 
L 541.444227 438.100175 
L 542.436933 452.088548 
L 543.429639 448.592131 
L 544.422345 438.506089 
L 545.415051 446.133101 
L 546.407757 442.659021 
L 547.400463 450.61349 
L 548.393168 445.302098 
L 549.385874 452.770659 
L 550.37858 448.245409 
L 551.371286 450.291441 
L 552.363992 441.937688 
L 553.356698 438.733487 
L 554.349404 444.83821 
L 555.34211 455.517444 
L 556.334816 445.174385 
L 557.327522 463.51401 
L 558.320228 454.221058 
L 559.312934 446.608893 
L 560.30564 449.513721 
L 561.298345 438.757873 
L 562.291051 445.085351 
L 563.283757 436.350861 
L 564.276463 443.942098 
L 565.269169 444.283604 
L 566.261875 445.648805 
L 567.254581 454.58543 
L 568.247287 445.498803 
L 569.239993 446.215327 
L 570.232699 462.116009 
L 571.225405 442.940879 
L 572.218111 442.071594 
L 573.210817 452.222003 
L 574.203523 437.63007 
L 575.196228 453.699908 
L 576.188934 454.684753 
L 577.18164 446.607761 
L 578.174346 455.371569 
L 579.167052 459.266518 
L 580.159758 455.79752 
L 581.152464 457.049685 
L 582.14517 458.858639 
L 583.137876 457.887155 
L 584.130582 450.120805 
L 585.123288 444.773734 
L 586.115994 457.327534 
L 587.1087 449.046342 
L 588.101405 448.722026 
L 589.094111 449.311022 
L 590.086817 446.892915 
L 591.079523 444.832838 
L 592.072229 444.98876 
L 593.064935 452.782591 
L 594.057641 442.394612 
L 595.050347 448.780028 
L 596.043053 455.950173 
L 597.035759 454.628836 
L 598.028465 452.14111 
L 599.021171 453.234458 
L 600.013877 456.09122 
L 601.006582 456.581702 
L 601.999288 456.122341 
L 602.991994 457.548397 
L 603.9847 447.588961 
L 604.977406 454.407876 
L 605.970112 457.520996 
L 606.962818 454.847999 
L 607.955524 456.354767 
L 608.94823 455.729237 
L 609.940936 452.726553 
L 610.933642 451.75816 
L 611.926348 457.705304 
L 612.919054 453.941061 
L 613.911759 462.516695 
L 614.904465 454.370113 
L 615.897171 450.573423 
L 616.889877 458.087371 
L 617.882583 456.406623 
L 618.875289 449.470977 
L 619.867995 458.575611 
L 620.860701 456.103158 
L 621.853407 455.338622 
L 622.846113 457.951683 
L 623.838819 456.383244 
L 624.831525 457.485324 
L 625.824231 454.281333 
L 626.816936 458.602439 
L 627.809642 456.384904 
L 628.802348 458.525206 
L 629.795054 455.167101 
L 630.78776 464.863609 
L 631.780466 455.363243 
L 632.773172 454.580045 
L 633.765878 459.621165 
L 634.758584 456.463047 
L 635.75129 465.242484 
L 636.743996 458.826727 
L 637.736702 463.410304 
L 638.729408 459.747163 
L 639.722114 459.509443 
L 640.714819 460.940337 
L 641.707525 462.11153 
L 642.700231 462.075978 
L 643.692937 461.473931 
L 644.685643 461.856875 
L 645.678349 459.692934 
L 646.671055 462.143602 
L 647.663761 463.806864 
L 648.656467 458.315282 
L 649.649173 458.65165 
L 650.641879 461.200159 
L 651.634585 461.56805 
L 652.627291 463.292797 
L 653.619996 461.106524 
L 654.612702 460.464085 
L 655.605408 462.583161 
L 656.598114 461.521301 
L 657.59082 459.390243 
L 658.583526 462.845521 
L 659.576232 462.154348 
L 660.568938 462.60426 
L 661.561644 459.750189 
L 662.55435 462.473213 
L 663.547056 462.039916 
L 664.539762 463.881749 
L 665.532468 463.184947 
L 666.525173 460.458493 
L 667.517879 462.419762 
L 668.510585 463.69922 
L 669.503291 464.612034 
L 670.495997 463.813124 
L 671.488703 464.385822 
L 673.474115 464.708743 
L 674.466821 463.886646 
L 675.459527 463.268281 
L 676.452233 464.641577 
L 677.444939 463.848221 
L 678.437645 465.12805 
L 679.43035 464.452245 
L 680.423056 464.718617 
L 681.415762 464.146622 
L 682.408468 462.790225 
L 683.401174 465.395265 
L 684.39388 464.718169 
L 685.386586 464.719831 
L 686.379292 466.111857 
L 688.364704 465.635515 
L 689.35741 465.157791 
L 690.350116 466.651433 
L 691.342822 464.73384 
L 692.335527 466.902514 
L 693.328233 466.413645 
L 694.320939 466.374911 
L 695.313645 466.953797 
L 696.306351 465.643709 
L 697.299057 467.356249 
L 698.291763 466.90978 
L 699.284469 466.636212 
L 701.269881 465.65977 
L 702.262587 467.648921 
L 703.255293 467.698302 
L 704.247999 467.310657 
L 705.240705 467.539851 
L 706.23341 467.103207 
L 707.226116 467.413967 
L 708.218822 468.2575 
L 709.211528 468.419321 
L 710.204234 467.847299 
L 711.19694 468.018767 
L 712.189646 467.119751 
L 713.182352 467.514325 
L 714.175058 468.284728 
L 715.167764 468.484365 
L 716.16047 468.018144 
L 717.153176 469.602446 
L 718.145882 468.715613 
L 719.138587 468.177403 
L 720.131293 469.179107 
L 721.123999 469.435042 
L 722.116705 468.713223 
L 723.109411 469.946377 
L 724.102117 469.202008 
L 725.094823 469.49455 
L 726.087529 469.18441 
L 728.072941 470.553761 
L 729.065647 469.645267 
L 730.058353 470.195853 
L 731.051059 470.33623 
L 732.043764 470.099649 
L 733.03647 470.01707 
L 734.029176 470.531227 
L 735.021882 470.422734 
L 736.014588 471.307091 
L 737.007294 470.802676 
L 738 470.43397 
L 738.992706 470.807029 
L 739.985412 470.234194 
L 740.978118 470.82002 
L 741.970824 471.841281 
L 743.956236 471.474178 
L 744.948941 470.59274 
L 746.934353 471.963674 
L 747.927059 471.17295 
L 748.919765 471.872849 
L 750.905177 470.412674 
L 751.897883 472.112487 
L 753.883295 472.734547 
L 754.876001 472.303808 
L 755.868707 471.326293 
L 756.861413 472.563681 
L 758.846824 472.399151 
L 759.83953 472.562028 
L 760.832236 472.254011 
L 761.824942 472.619425 
L 762.817648 472.287199 
L 763.810354 473.115433 
L 764.80306 473.761567 
L 765.795766 473.346417 
L 766.788472 474.009456 
L 767.781178 472.972808 
L 768.773884 473.016596 
L 769.76659 474.010716 
L 770.759295 473.527192 
L 771.752001 474.578449 
L 772.744707 473.263168 
L 773.737413 474.180878 
L 774.730119 474.110109 
L 775.722825 474.158027 
L 777.708237 473.637933 
L 778.700943 474.784649 
L 780.686355 474.253058 
L 781.679061 474.32674 
L 782.671767 475.048686 
L 783.664473 474.810152 
L 784.657178 474.349883 
L 785.649884 475.430575 
L 786.64259 474.536209 
L 787.635296 475.654029 
L 788.628002 475.379177 
L 790.613414 474.584673 
L 791.60612 475.924051 
L 792.598826 475.567014 
L 793.591532 474.839595 
L 794.584238 474.881813 
L 795.576944 475.600638 
L 796.56965 475.444647 
L 797.562355 476.014957 
L 799.547767 474.983458 
L 800.540473 476.321013 
L 801.533179 475.926521 
L 802.525885 475.978933 
L 803.518591 476.749408 
L 804.511297 476.404187 
L 805.504003 476.912317 
L 806.496709 476.048223 
L 808.482121 476.979344 
L 810.467532 476.433878 
L 811.460238 476.747183 
L 812.452944 476.910275 
L 813.44565 477.210578 
L 814.438356 476.975859 
L 815.431062 476.958426 
L 816.423768 477.241974 
L 818.40918 476.687237 
L 820.394592 477.658121 
L 821.387298 477.052273 
L 822.380004 477.489668 
L 823.372709 477.148394 
L 824.365415 477.79618 
L 825.358121 477.824393 
L 826.350827 478.824111 
L 827.343533 477.769217 
L 828.336239 477.821703 
L 829.328945 477.567897 
L 831.314357 479.135307 
L 832.307063 478.126835 
L 833.299769 478.872895 
L 834.292475 478.059101 
L 835.285181 478.111272 
L 836.277886 478.417478 
L 837.270592 477.954915 
L 838.263298 478.524017 
L 839.256004 478.360184 
L 840.24871 478.503061 
L 841.241416 479.098817 
L 842.234122 479.051306 
L 843.226828 478.508506 
L 845.21224 479.184084 
L 846.204946 478.896332 
L 847.197652 479.570821 
L 848.190358 478.522496 
L 849.183064 479.853922 
L 850.175769 479.833645 
L 852.161181 479.566504 
L 853.153887 479.773539 
L 854.146593 479.11813 
L 855.139299 480.016563 
L 856.132005 479.479115 
L 857.124711 480.237402 
L 858.117417 480.317511 
L 859.110123 479.657002 
L 860.102829 479.912923 
L 861.095535 479.249104 
L 862.088241 481.000226 
L 863.080946 480.593638 
L 865.066358 480.065575 
L 866.059064 479.662381 
L 867.05177 480.942995 
L 868.044476 480.842584 
L 869.037182 480.96751 
L 870.029888 480.381354 
L 871.022594 480.355435 
L 872.0153 480.75028 
L 873.008006 480.86036 
L 874.000712 481.38947 
L 874.993418 480.292593 
L 875.986123 482.165169 
L 876.978829 480.739584 
L 877.971535 481.395175 
L 878.964241 480.551489 
L 879.956947 481.221462 
L 880.949653 480.806853 
L 881.942359 481.186605 
L 882.935065 481.019147 
L 883.927771 481.810386 
L 884.920477 481.677885 
L 885.913183 481.717753 
L 886.905889 481.961096 
L 887.898595 481.348398 
L 889.884006 481.344541 
L 890.876712 482.008338 
L 892.862124 481.97413 
L 893.85483 481.701358 
L 894.847536 481.19672 
L 895.840242 482.273189 
L 897.825654 481.677414 
L 898.81836 482.56063 
L 899.811066 482.114598 
L 900.803772 482.89742 
L 901.796477 482.9546 
L 902.789183 482.441977 
L 903.781889 482.696916 
L 904.774595 482.210123 
L 906.760007 483.064518 
L 907.752713 482.65747 
L 908.745419 482.946395 
L 909.738125 482.736465 
L 910.730831 483.21766 
L 911.723537 483.483719 
L 912.716243 483.534184 
L 913.708949 482.194842 
L 914.701655 483.573295 
L 915.69436 482.407363 
L 916.687066 483.88437 
L 917.679772 483.376129 
L 919.665184 483.173118 
L 921.650596 483.855026 
L 922.643302 483.737038 
L 923.636008 484.611735 
L 924.628714 483.403432 
L 925.62142 483.775766 
L 926.614126 484.281758 
L 929.592243 483.880545 
L 930.584949 483.443203 
L 931.577655 484.270064 
L 932.570361 484.595135 
L 934.555773 484.505355 
L 935.548479 484.066289 
L 936.541185 484.910637 
L 937.533891 484.567807 
L 938.526597 484.990843 
L 939.519303 484.444519 
L 940.512009 484.933647 
L 941.504714 484.689818 
L 942.49742 484.821293 
L 943.490126 485.314788 
L 944.482832 485.289781 
L 945.475538 484.775314 
L 946.468244 485.064217 
L 947.46095 484.608875 
L 948.453656 484.599557 
L 949.446362 485.393311 
L 950.439068 484.647423 
L 951.431774 484.928286 
L 952.42448 485.469798 
L 953.417186 485.464 
L 954.409891 485.645231 
L 955.402597 484.510498 
L 956.395303 486.105717 
L 957.388009 485.545655 
L 958.380715 485.386511 
L 959.373421 486.326597 
L 960.366127 485.836001 
L 961.358833 485.863443 
L 962.351539 484.920923 
L 963.344245 485.667496 
L 964.336951 485.673449 
L 965.329657 485.50611 
L 966.322363 486.581465 
L 967.315068 486.10766 
L 968.307774 484.706162 
L 969.30048 485.832459 
L 970.293186 486.099744 
L 971.285892 485.96548 
L 972.278598 485.243245 
L 973.271304 485.849833 
L 974.26401 486.042871 
L 975.256716 485.424787 
L 976.249422 485.384008 
L 977.242128 485.708147 
L 978.234834 486.341144 
L 979.22754 486.231777 
L 980.220246 486.749244 
L 981.212951 485.598786 
L 982.205657 486.433985 
L 983.198363 486.29208 
L 984.191069 485.656472 
L 985.183775 486.931165 
L 986.176481 486.158152 
L 987.169187 487.115818 
L 988.161893 487.744422 
L 989.154599 487.215801 
L 990.147305 486.86612 
L 991.140011 486.751241 
L 992.132717 486.414531 
L 993.125423 486.344052 
L 994.118128 487.214203 
L 995.110834 486.097673 
L 996.10354 486.810962 
L 997.096246 487.125464 
L 998.088952 487.199188 
L 999.081658 487.456773 
L 1000.074364 487.353846 
L 1001.06707 486.974204 
L 1002.059776 487.664557 
L 1003.052482 487.717725 
L 1004.045188 486.877487 
L 1005.037894 486.954948 
L 1006.0306 487.31847 
L 1007.023305 487.029411 
L 1008.016011 486.915957 
L 1009.008717 486.991929 
L 1010.001423 488.021722 
L 1010.994129 487.652196 
L 1011.986835 487.441966 
L 1012.979541 487.777539 
L 1014.964953 486.84275 
L 1015.957659 488.062838 
L 1016.950365 487.295555 
L 1017.943071 487.00555 
L 1018.935777 488.235032 
L 1019.928482 487.36782 
L 1020.921188 487.695978 
L 1021.913894 486.914988 
L 1022.9066 488.235458 
L 1023.899306 487.562889 
L 1024.892012 487.542016 
L 1025.884718 488.198097 
L 1026.877424 487.253372 
L 1027.87013 487.831956 
L 1028.862836 487.846688 
L 1029.855542 487.49274 
L 1031.840954 488.389543 
L 1032.833659 487.699822 
L 1033.826365 488.688154 
L 1034.819071 488.673642 
L 1035.811777 487.685878 
L 1036.804483 488.710139 
L 1037.797189 488.826286 
L 1038.789895 487.898282 
L 1039.782601 488.429689 
L 1040.775307 488.046324 
L 1042.760719 488.273684 
L 1043.753425 488.867955 
L 1044.746131 488.221764 
L 1045.738837 488.186454 
L 1047.724248 489.443958 
L 1048.716954 488.512322 
L 1049.70966 487.950719 
L 1050.702366 489.169848 
L 1051.695072 488.568671 
L 1052.687778 488.614376 
L 1053.680484 488.514052 
L 1054.67319 488.701281 
L 1055.665896 489.234517 
L 1056.658602 489.085299 
L 1057.651308 487.755532 
L 1058.644014 489.318038 
L 1059.636719 489.34347 
L 1061.622131 488.556774 
L 1062.614837 489.192657 
L 1063.607543 488.826454 
L 1064.600249 489.057627 
L 1065.592955 488.888047 
L 1066.585661 487.959211 
L 1067.578367 488.741394 
L 1068.571073 488.766416 
L 1069.563779 489.49724 
L 1070.556485 489.229702 
L 1071.549191 489.187972 
L 1072.541896 488.910419 
L 1073.534602 489.5159 
L 1074.527308 489.624064 
L 1077.505426 489.058354 
L 1078.498132 489.080891 
L 1079.490838 488.866344 
L 1080.483544 489.376941 
L 1081.47625 490.178778 
L 1082.468956 489.367342 
L 1083.461662 489.888429 
L 1084.454368 489.645329 
L 1085.447073 488.993024 
L 1086.439779 489.704738 
L 1087.432485 489.251378 
L 1088.425191 489.739008 
L 1089.417897 490.589463 
L 1090.410603 490.245755 
L 1091.403309 489.511825 
L 1092.396015 490.466559 
L 1093.388721 490.147343 
L 1094.381427 490.405575 
L 1095.374133 489.23692 
L 1096.366839 489.432231 
L 1097.359545 490.129246 
L 1098.35225 490.399501 
L 1100.337662 489.863612 
L 1101.330368 490.143526 
L 1102.323074 489.504869 
L 1103.31578 489.698572 
L 1104.308486 489.196665 
L 1105.301192 490.129928 
L 1106.293898 489.670189 
L 1107.286604 490.128756 
L 1108.27931 489.557428 
L 1109.272016 490.440251 
L 1111.257428 489.971404 
L 1113.242839 490.602187 
L 1114.235545 489.9982 
L 1115.228251 490.853748 
L 1116.220957 489.888344 
L 1117.213663 490.265883 
L 1118.206369 490.070913 
L 1119.199075 490.466132 
L 1120.191781 490.528645 
L 1121.184487 491.204581 
L 1122.177193 490.431884 
L 1123.169899 489.839761 
L 1124.162605 489.600383 
L 1125.15531 489.627351 
L 1126.148016 490.161895 
L 1127.140722 489.907841 
L 1128.133428 490.608632 
L 1129.126134 490.024953 
L 1130.11884 490.441343 
L 1132.104252 490.610451 
L 1133.096958 490.192259 
L 1134.089664 491.121243 
L 1135.08237 490.439134 
L 1136.075076 491.084938 
L 1137.067782 491.212949 
L 1138.060487 490.235861 
L 1139.053193 490.926592 
L 1140.045899 490.770944 
L 1141.038605 491.637381 
L 1142.031311 490.946652 
L 1143.024017 491.362773 
L 1144.016723 490.635858 
L 1145.009429 490.721875 
L 1146.002135 490.968465 
L 1146.994841 490.519051 
L 1147.987547 490.394823 
L 1148.980253 490.926382 
L 1149.972959 491.117577 
L 1150.965664 491.116119 
L 1151.95837 489.409698 
L 1152.951076 491.138996 
L 1153.943782 490.692043 
L 1155.929194 491.359735 
L 1156.9219 490.358075 
L 1157.914606 489.986621 
L 1158.907312 491.188376 
L 1159.900018 490.899831 
L 1160.892724 491.501345 
L 1162.878136 490.540782 
L 1163.870841 490.500882 
L 1165.856253 491.137545 
L 1166.848959 491.300214 
L 1167.841665 491.787433 
L 1168.834371 490.803746 
L 1169.827077 490.455684 
L 1170.819783 490.982413 
L 1171.812489 491.004247 
L 1172.805195 491.535143 
L 1173.797901 490.813122 
L 1174.790607 490.808729 
L 1175.783313 491.011752 
L 1176.776019 491.065345 
L 1177.768724 491.330438 
L 1178.76143 490.941551 
L 1180.746842 491.678921 
L 1181.739548 491.198301 
L 1182.732254 491.657827 
L 1183.72496 490.865092 
L 1184.717666 490.731073 
L 1185.710372 492.245853 
L 1186.703078 491.313857 
L 1187.695784 491.077334 
L 1188.68849 491.818636 
L 1189.681196 491.213642 
L 1190.673901 491.095955 
L 1191.666607 491.648334 
L 1192.659313 491.7825 
L 1194.644725 490.115262 
L 1195.637431 491.317966 
L 1196.630137 491.490464 
L 1197.622843 491.002816 
L 1198.615549 491.954231 
L 1199.608255 490.903631 
L 1200.600961 491.54524 
L 1201.593667 491.342903 
L 1202.586373 491.928151 
L 1203.579078 492.091082 
L 1206.557196 490.71388 
L 1207.549902 491.428746 
L 1208.542608 491.179748 
L 1209.535314 491.055342 
L 1210.52802 492.288179 
L 1211.520726 491.192622 
L 1212.513432 491.829174 
L 1213.506138 491.232816 
L 1214.498844 492.39746 
L 1215.49155 491.418237 
L 1216.484255 491.746707 
L 1217.476961 491.91088 
L 1218.469667 491.197136 
L 1219.462373 491.452496 
L 1220.455079 490.557 
L 1222.440491 491.521401 
L 1223.433197 491.704555 
L 1224.425903 492.236886 
L 1225.418609 490.8642 
L 1226.411315 491.262664 
L 1227.404021 492.204957 
L 1228.396727 492.48 
L 1229.389432 491.402681 
L 1230.382138 490.866429 
L 1231.374844 491.470587 
L 1232.36755 491.929816 
L 1233.360256 491.632305 
L 1234.352962 491.458511 
L 1235.345668 491.014011 
L 1236.338374 491.619954 
L 1237.33108 491.733848 
L 1238.323786 492.185223 
L 1239.316492 491.118657 
L 1240.309198 491.299614 
L 1241.301904 492.282787 
L 1242.29461 492.004148 
L 1243.287315 491.167194 
L 1244.280021 491.386463 
L 1245.272727 491.352631 
L 1245.272727 491.352631 
" clip-path="url(#p49319b0369)" style="fill: none; stroke: #1f77b4; stroke-width: 1.5; stroke-linecap: square"/>
   </g>
   <g id="patch_3">
    <path d="M 180 512.64 
L 180 69.12 
" style="fill: none; stroke: #000000; stroke-width: 0.8; stroke-linejoin: miter; stroke-linecap: square"/>
   </g>
   <g id="patch_4">
    <path d="M 1296 512.64 
L 1296 69.12 
" style="fill: none; stroke: #000000; stroke-width: 0.8; stroke-linejoin: miter; stroke-linecap: square"/>
   </g>
   <g id="patch_5">
    <path d="M 180 512.64 
L 1296 512.64 
" style="fill: none; stroke: #000000; stroke-width: 0.8; stroke-linejoin: miter; stroke-linecap: square"/>
   </g>
   <g id="patch_6">
    <path d="M 180 69.12 
L 1296 69.12 
" style="fill: none; stroke: #000000; stroke-width: 0.8; stroke-linejoin: miter; stroke-linecap: square"/>
   </g>
   <g id="text_14">
    <!-- source15-receiver8 -->
    <g transform="translate(544.9 60.80125) scale(0.4 -0.4)">
     <defs>
      <path id="DejaVuSans-73" d="M 2834 3397 
L 2834 2853 
Q 2591 2978 2328 3040 
Q 2066 3103 1784 3103 
Q 1356 3103 1142 2972 
Q 928 2841 928 2578 
Q 928 2378 1081 2264 
Q 1234 2150 1697 2047 
L 1894 2003 
Q 2506 1872 2764 1633 
Q 3022 1394 3022 966 
Q 3022 478 2636 193 
Q 2250 -91 1575 -91 
Q 1294 -91 989 -36 
Q 684 19 347 128 
L 347 722 
Q 666 556 975 473 
Q 1284 391 1588 391 
Q 1994 391 2212 530 
Q 2431 669 2431 922 
Q 2431 1156 2273 1281 
Q 2116 1406 1581 1522 
L 1381 1569 
Q 847 1681 609 1914 
Q 372 2147 372 2553 
Q 372 3047 722 3315 
Q 1072 3584 1716 3584 
Q 2034 3584 2315 3537 
Q 2597 3491 2834 3397 
z
" transform="scale(0.015625)"/>
      <path id="DejaVuSans-6f" d="M 1959 3097 
Q 1497 3097 1228 2736 
Q 959 2375 959 1747 
Q 959 1119 1226 758 
Q 1494 397 1959 397 
Q 2419 397 2687 759 
Q 2956 1122 2956 1747 
Q 2956 2369 2687 2733 
Q 2419 3097 1959 3097 
z
M 1959 3584 
Q 2709 3584 3137 3096 
Q 3566 2609 3566 1747 
Q 3566 888 3137 398 
Q 2709 -91 1959 -91 
Q 1206 -91 779 398 
Q 353 888 353 1747 
Q 353 2609 779 3096 
Q 1206 3584 1959 3584 
z
" transform="scale(0.015625)"/>
      <path id="DejaVuSans-75" d="M 544 1381 
L 544 3500 
L 1119 3500 
L 1119 1403 
Q 1119 906 1312 657 
Q 1506 409 1894 409 
Q 2359 409 2629 706 
Q 2900 1003 2900 1516 
L 2900 3500 
L 3475 3500 
L 3475 0 
L 2900 0 
L 2900 538 
Q 2691 219 2414 64 
Q 2138 -91 1772 -91 
Q 1169 -91 856 284 
Q 544 659 544 1381 
z
M 1991 3584 
L 1991 3584 
z
" transform="scale(0.015625)"/>
      <path id="DejaVuSans-72" d="M 2631 2963 
Q 2534 3019 2420 3045 
Q 2306 3072 2169 3072 
Q 1681 3072 1420 2755 
Q 1159 2438 1159 1844 
L 1159 0 
L 581 0 
L 581 3500 
L 1159 3500 
L 1159 2956 
Q 1341 3275 1631 3429 
Q 1922 3584 2338 3584 
Q 2397 3584 2469 3576 
Q 2541 3569 2628 3553 
L 2631 2963 
z
" transform="scale(0.015625)"/>
      <path id="DejaVuSans-63" d="M 3122 3366 
L 3122 2828 
Q 2878 2963 2633 3030 
Q 2388 3097 2138 3097 
Q 1578 3097 1268 2742 
Q 959 2388 959 1747 
Q 959 1106 1268 751 
Q 1578 397 2138 397 
Q 2388 397 2633 464 
Q 2878 531 3122 666 
L 3122 134 
Q 2881 22 2623 -34 
Q 2366 -91 2075 -91 
Q 1284 -91 818 406 
Q 353 903 353 1747 
Q 353 2603 823 3093 
Q 1294 3584 2113 3584 
Q 2378 3584 2631 3529 
Q 2884 3475 3122 3366 
z
" transform="scale(0.015625)"/>
      <path id="DejaVuSans-65" d="M 3597 1894 
L 3597 1613 
L 953 1613 
Q 991 1019 1311 708 
Q 1631 397 2203 397 
Q 2534 397 2845 478 
Q 3156 559 3463 722 
L 3463 178 
Q 3153 47 2828 -22 
Q 2503 -91 2169 -91 
Q 1331 -91 842 396 
Q 353 884 353 1716 
Q 353 2575 817 3079 
Q 1281 3584 2069 3584 
Q 2775 3584 3186 3129 
Q 3597 2675 3597 1894 
z
M 3022 2063 
Q 3016 2534 2758 2815 
Q 2500 3097 2075 3097 
Q 1594 3097 1305 2825 
Q 1016 2553 972 2059 
L 3022 2063 
z
" transform="scale(0.015625)"/>
      <path id="DejaVuSans-2d" d="M 313 2009 
L 1997 2009 
L 1997 1497 
L 313 1497 
L 313 2009 
z
" transform="scale(0.015625)"/>
      <path id="DejaVuSans-69" d="M 603 3500 
L 1178 3500 
L 1178 0 
L 603 0 
L 603 3500 
z
M 603 4863 
L 1178 4863 
L 1178 4134 
L 603 4134 
L 603 4863 
z
" transform="scale(0.015625)"/>
      <path id="DejaVuSans-76" d="M 191 3500 
L 800 3500 
L 1894 563 
L 2988 3500 
L 3597 3500 
L 2284 0 
L 1503 0 
L 191 3500 
z
" transform="scale(0.015625)"/>
      <path id="DejaVuSans-38" d="M 2034 2216 
Q 1584 2216 1326 1975 
Q 1069 1734 1069 1313 
Q 1069 891 1326 650 
Q 1584 409 2034 409 
Q 2484 409 2743 651 
Q 3003 894 3003 1313 
Q 3003 1734 2745 1975 
Q 2488 2216 2034 2216 
z
M 1403 2484 
Q 997 2584 770 2862 
Q 544 3141 544 3541 
Q 544 4100 942 4425 
Q 1341 4750 2034 4750 
Q 2731 4750 3128 4425 
Q 3525 4100 3525 3541 
Q 3525 3141 3298 2862 
Q 3072 2584 2669 2484 
Q 3125 2378 3379 2068 
Q 3634 1759 3634 1313 
Q 3634 634 3220 271 
Q 2806 -91 2034 -91 
Q 1263 -91 848 271 
Q 434 634 434 1313 
Q 434 1759 690 2068 
Q 947 2378 1403 2484 
z
M 1172 3481 
Q 1172 3119 1398 2916 
Q 1625 2713 2034 2713 
Q 2441 2713 2670 2916 
Q 2900 3119 2900 3481 
Q 2900 3844 2670 4047 
Q 2441 4250 2034 4250 
Q 1625 4250 1398 4047 
Q 1172 3844 1172 3481 
z
" transform="scale(0.015625)"/>
     </defs>
     <use xlink:href="#DejaVuSans-73"/>
     <use xlink:href="#DejaVuSans-6f" x="52.099609"/>
     <use xlink:href="#DejaVuSans-75" x="113.28125"/>
     <use xlink:href="#DejaVuSans-72" x="176.660156"/>
     <use xlink:href="#DejaVuSans-63" x="215.523438"/>
     <use xlink:href="#DejaVuSans-65" x="270.503906"/>
     <use xlink:href="#DejaVuSans-31" x="332.027344"/>
     <use xlink:href="#DejaVuSans-35" x="395.650391"/>
     <use xlink:href="#DejaVuSans-2d" x="459.273438"/>
     <use xlink:href="#DejaVuSans-72" x="495.357422"/>
     <use xlink:href="#DejaVuSans-65" x="534.220703"/>
     <use xlink:href="#DejaVuSans-63" x="595.744141"/>
     <use xlink:href="#DejaVuSans-65" x="650.724609"/>
     <use xlink:href="#DejaVuSans-69" x="712.248047"/>
     <use xlink:href="#DejaVuSans-76" x="740.03125"/>
     <use xlink:href="#DejaVuSans-65" x="799.210938"/>
     <use xlink:href="#DejaVuSans-72" x="860.734375"/>
     <use xlink:href="#DejaVuSans-38" x="901.847656"/>
    </g>
   </g>
  </g>
 </g>
 <defs>
  <clipPath id="p49319b0369">
   <rect x="180" y="69.12" width="1116" height="443.52"/>
  </clipPath>
 </defs>
</svg>
