<?xml version="1.0" encoding="utf-8" standalone="no"?>
<!DOCTYPE svg PUBLIC "-//W3C//DTD SVG 1.1//EN"
  "http://www.w3.org/Graphics/SVG/1.1/DTD/svg11.dtd">
<svg xmlns:xlink="http://www.w3.org/1999/xlink" width="1440pt" height="576pt" viewBox="0 0 1440 576" xmlns="http://www.w3.org/2000/svg" version="1.1">
 <metadata>
  <rdf:RDF xmlns:dc="http://purl.org/dc/elements/1.1/" xmlns:cc="http://creativecommons.org/ns#" xmlns:rdf="http://www.w3.org/1999/02/22-rdf-syntax-ns#">
   <cc:Work>
    <dc:type rdf:resource="http://purl.org/dc/dcmitype/StillImage"/>
    <dc:date>2024-05-22T04:50:07.758952</dc:date>
    <dc:format>image/svg+xml</dc:format>
    <dc:creator>
     <cc:Agent>
      <dc:title>Matplotlib v3.8.3, https://matplotlib.org/</dc:title>
     </cc:Agent>
    </dc:creator>
   </cc:Work>
  </rdf:RDF>
 </metadata>
 <defs>
  <style type="text/css">*{stroke-linejoin: round; stroke-linecap: butt}</style>
 </defs>
 <g id="figure_1">
  <g id="patch_1">
   <path d="M 0 576 
L 1440 576 
L 1440 0 
L 0 0 
z
" style="fill: #ffffff"/>
  </g>
  <g id="axes_1">
   <g id="patch_2">
    <path d="M 180 512.64 
L 1296 512.64 
L 1296 69.12 
L 180 69.12 
z
" style="fill: #ffffff"/>
   </g>
   <g id="matplotlib.axis_1">
    <g id="xtick_1">
     <g id="line2d_1">
      <defs>
       <path id="m2175d4d92a" d="M 0 0 
L 0 3.5 
" style="stroke: #000000; stroke-width: 0.8"/>
      </defs>
      <g>
       <use xlink:href="#m2175d4d92a" x="229.734567" y="512.64" style="stroke: #000000; stroke-width: 0.8"/>
      </g>
     </g>
     <g id="text_1">
      <!-- 0 -->
      <g transform="translate(226.553317 527.238438) scale(0.1 -0.1)">
       <defs>
        <path id="DejaVuSans-30" d="M 2034 4250 
Q 1547 4250 1301 3770 
Q 1056 3291 1056 2328 
Q 1056 1369 1301 889 
Q 1547 409 2034 409 
Q 2525 409 2770 889 
Q 3016 1369 3016 2328 
Q 3016 3291 2770 3770 
Q 2525 4250 2034 4250 
z
M 2034 4750 
Q 2819 4750 3233 4129 
Q 3647 3509 3647 2328 
Q 3647 1150 3233 529 
Q 2819 -91 2034 -91 
Q 1250 -91 836 529 
Q 422 1150 422 2328 
Q 422 3509 836 4129 
Q 1250 4750 2034 4750 
z
" transform="scale(0.015625)"/>
       </defs>
       <use xlink:href="#DejaVuSans-30"/>
      </g>
     </g>
    </g>
    <g id="xtick_2">
     <g id="line2d_2">
      <g>
       <use xlink:href="#m2175d4d92a" x="433.04074" y="512.64" style="stroke: #000000; stroke-width: 0.8"/>
      </g>
     </g>
     <g id="text_2">
      <!-- 500 -->
      <g transform="translate(423.49699 527.238438) scale(0.1 -0.1)">
       <defs>
        <path id="DejaVuSans-35" d="M 691 4666 
L 3169 4666 
L 3169 4134 
L 1269 4134 
L 1269 2991 
Q 1406 3038 1543 3061 
Q 1681 3084 1819 3084 
Q 2600 3084 3056 2656 
Q 3513 2228 3513 1497 
Q 3513 744 3044 326 
Q 2575 -91 1722 -91 
Q 1428 -91 1123 -41 
Q 819 9 494 109 
L 494 744 
Q 775 591 1075 516 
Q 1375 441 1709 441 
Q 2250 441 2565 725 
Q 2881 1009 2881 1497 
Q 2881 1984 2565 2268 
Q 2250 2553 1709 2553 
Q 1456 2553 1204 2497 
Q 953 2441 691 2322 
L 691 4666 
z
" transform="scale(0.015625)"/>
       </defs>
       <use xlink:href="#DejaVuSans-35"/>
       <use xlink:href="#DejaVuSans-30" x="63.623047"/>
       <use xlink:href="#DejaVuSans-30" x="127.246094"/>
      </g>
     </g>
    </g>
    <g id="xtick_3">
     <g id="line2d_3">
      <g>
       <use xlink:href="#m2175d4d92a" x="636.346913" y="512.64" style="stroke: #000000; stroke-width: 0.8"/>
      </g>
     </g>
     <g id="text_3">
      <!-- 1000 -->
      <g transform="translate(623.621913 527.238438) scale(0.1 -0.1)">
       <defs>
        <path id="DejaVuSans-31" d="M 794 531 
L 1825 531 
L 1825 4091 
L 703 3866 
L 703 4441 
L 1819 4666 
L 2450 4666 
L 2450 531 
L 3481 531 
L 3481 0 
L 794 0 
L 794 531 
z
" transform="scale(0.015625)"/>
       </defs>
       <use xlink:href="#DejaVuSans-31"/>
       <use xlink:href="#DejaVuSans-30" x="63.623047"/>
       <use xlink:href="#DejaVuSans-30" x="127.246094"/>
       <use xlink:href="#DejaVuSans-30" x="190.869141"/>
      </g>
     </g>
    </g>
    <g id="xtick_4">
     <g id="line2d_4">
      <g>
       <use xlink:href="#m2175d4d92a" x="839.653087" y="512.64" style="stroke: #000000; stroke-width: 0.8"/>
      </g>
     </g>
     <g id="text_4">
      <!-- 1500 -->
      <g transform="translate(826.928087 527.238438) scale(0.1 -0.1)">
       <use xlink:href="#DejaVuSans-31"/>
       <use xlink:href="#DejaVuSans-35" x="63.623047"/>
       <use xlink:href="#DejaVuSans-30" x="127.246094"/>
       <use xlink:href="#DejaVuSans-30" x="190.869141"/>
      </g>
     </g>
    </g>
    <g id="xtick_5">
     <g id="line2d_5">
      <g>
       <use xlink:href="#m2175d4d92a" x="1042.95926" y="512.64" style="stroke: #000000; stroke-width: 0.8"/>
      </g>
     </g>
     <g id="text_5">
      <!-- 2000 -->
      <g transform="translate(1030.23426 527.238438) scale(0.1 -0.1)">
       <defs>
        <path id="DejaVuSans-32" d="M 1228 531 
L 3431 531 
L 3431 0 
L 469 0 
L 469 531 
Q 828 903 1448 1529 
Q 2069 2156 2228 2338 
Q 2531 2678 2651 2914 
Q 2772 3150 2772 3378 
Q 2772 3750 2511 3984 
Q 2250 4219 1831 4219 
Q 1534 4219 1204 4116 
Q 875 4013 500 3803 
L 500 4441 
Q 881 4594 1212 4672 
Q 1544 4750 1819 4750 
Q 2544 4750 2975 4387 
Q 3406 4025 3406 3419 
Q 3406 3131 3298 2873 
Q 3191 2616 2906 2266 
Q 2828 2175 2409 1742 
Q 1991 1309 1228 531 
z
" transform="scale(0.015625)"/>
       </defs>
       <use xlink:href="#DejaVuSans-32"/>
       <use xlink:href="#DejaVuSans-30" x="63.623047"/>
       <use xlink:href="#DejaVuSans-30" x="127.246094"/>
       <use xlink:href="#DejaVuSans-30" x="190.869141"/>
      </g>
     </g>
    </g>
    <g id="xtick_6">
     <g id="line2d_6">
      <g>
       <use xlink:href="#m2175d4d92a" x="1246.265433" y="512.64" style="stroke: #000000; stroke-width: 0.8"/>
      </g>
     </g>
     <g id="text_6">
      <!-- 2500 -->
      <g transform="translate(1233.540433 527.238438) scale(0.1 -0.1)">
       <use xlink:href="#DejaVuSans-32"/>
       <use xlink:href="#DejaVuSans-35" x="63.623047"/>
       <use xlink:href="#DejaVuSans-30" x="127.246094"/>
       <use xlink:href="#DejaVuSans-30" x="190.869141"/>
      </g>
     </g>
    </g>
   </g>
   <g id="matplotlib.axis_2">
    <g id="ytick_1">
     <g id="line2d_7">
      <defs>
       <path id="m830bd88c13" d="M 0 0 
L -3.5 0 
" style="stroke: #000000; stroke-width: 0.8"/>
      </defs>
      <g>
       <use xlink:href="#m830bd88c13" x="180" y="478.824756" style="stroke: #000000; stroke-width: 0.8"/>
      </g>
     </g>
     <g id="text_7">
      <!-- −2 -->
      <g transform="translate(158.257812 482.623974) scale(0.1 -0.1)">
       <defs>
        <path id="DejaVuSans-2212" d="M 678 2272 
L 4684 2272 
L 4684 1741 
L 678 1741 
L 678 2272 
z
" transform="scale(0.015625)"/>
       </defs>
       <use xlink:href="#DejaVuSans-2212"/>
       <use xlink:href="#DejaVuSans-32" x="83.789062"/>
      </g>
     </g>
    </g>
    <g id="ytick_2">
     <g id="line2d_8">
      <g>
       <use xlink:href="#m830bd88c13" x="180" y="424.137321" style="stroke: #000000; stroke-width: 0.8"/>
      </g>
     </g>
     <g id="text_8">
      <!-- −1 -->
      <g transform="translate(158.257812 427.936539) scale(0.1 -0.1)">
       <use xlink:href="#DejaVuSans-2212"/>
       <use xlink:href="#DejaVuSans-31" x="83.789062"/>
      </g>
     </g>
    </g>
    <g id="ytick_3">
     <g id="line2d_9">
      <g>
       <use xlink:href="#m830bd88c13" x="180" y="369.449886" style="stroke: #000000; stroke-width: 0.8"/>
      </g>
     </g>
     <g id="text_9">
      <!-- 0 -->
      <g transform="translate(166.6375 373.249104) scale(0.1 -0.1)">
       <use xlink:href="#DejaVuSans-30"/>
      </g>
     </g>
    </g>
    <g id="ytick_4">
     <g id="line2d_10">
      <g>
       <use xlink:href="#m830bd88c13" x="180" y="314.762451" style="stroke: #000000; stroke-width: 0.8"/>
      </g>
     </g>
     <g id="text_10">
      <!-- 1 -->
      <g transform="translate(166.6375 318.56167) scale(0.1 -0.1)">
       <use xlink:href="#DejaVuSans-31"/>
      </g>
     </g>
    </g>
    <g id="ytick_5">
     <g id="line2d_11">
      <g>
       <use xlink:href="#m830bd88c13" x="180" y="260.075016" style="stroke: #000000; stroke-width: 0.8"/>
      </g>
     </g>
     <g id="text_11">
      <!-- 2 -->
      <g transform="translate(166.6375 263.874235) scale(0.1 -0.1)">
       <use xlink:href="#DejaVuSans-32"/>
      </g>
     </g>
    </g>
    <g id="ytick_6">
     <g id="line2d_12">
      <g>
       <use xlink:href="#m830bd88c13" x="180" y="205.387581" style="stroke: #000000; stroke-width: 0.8"/>
      </g>
     </g>
     <g id="text_12">
      <!-- 3 -->
      <g transform="translate(166.6375 209.1868) scale(0.1 -0.1)">
       <defs>
        <path id="DejaVuSans-33" d="M 2597 2516 
Q 3050 2419 3304 2112 
Q 3559 1806 3559 1356 
Q 3559 666 3084 287 
Q 2609 -91 1734 -91 
Q 1441 -91 1130 -33 
Q 819 25 488 141 
L 488 750 
Q 750 597 1062 519 
Q 1375 441 1716 441 
Q 2309 441 2620 675 
Q 2931 909 2931 1356 
Q 2931 1769 2642 2001 
Q 2353 2234 1838 2234 
L 1294 2234 
L 1294 2753 
L 1863 2753 
Q 2328 2753 2575 2939 
Q 2822 3125 2822 3475 
Q 2822 3834 2567 4026 
Q 2313 4219 1838 4219 
Q 1578 4219 1281 4162 
Q 984 4106 628 3988 
L 628 4550 
Q 988 4650 1302 4700 
Q 1616 4750 1894 4750 
Q 2613 4750 3031 4423 
Q 3450 4097 3450 3541 
Q 3450 3153 3228 2886 
Q 3006 2619 2597 2516 
z
" transform="scale(0.015625)"/>
       </defs>
       <use xlink:href="#DejaVuSans-33"/>
      </g>
     </g>
    </g>
    <g id="ytick_7">
     <g id="line2d_13">
      <g>
       <use xlink:href="#m830bd88c13" x="180" y="150.700146" style="stroke: #000000; stroke-width: 0.8"/>
      </g>
     </g>
     <g id="text_13">
      <!-- 4 -->
      <g transform="translate(166.6375 154.499365) scale(0.1 -0.1)">
       <defs>
        <path id="DejaVuSans-34" d="M 2419 4116 
L 825 1625 
L 2419 1625 
L 2419 4116 
z
M 2253 4666 
L 3047 4666 
L 3047 1625 
L 3713 1625 
L 3713 1100 
L 3047 1100 
L 3047 0 
L 2419 0 
L 2419 1100 
L 313 1100 
L 313 1709 
L 2253 4666 
z
" transform="scale(0.015625)"/>
       </defs>
       <use xlink:href="#DejaVuSans-34"/>
      </g>
     </g>
    </g>
    <g id="ytick_8">
     <g id="line2d_14">
      <g>
       <use xlink:href="#m830bd88c13" x="180" y="96.012711" style="stroke: #000000; stroke-width: 0.8"/>
      </g>
     </g>
     <g id="text_14">
      <!-- 5 -->
      <g transform="translate(166.6375 99.81193) scale(0.1 -0.1)">
       <use xlink:href="#DejaVuSans-35"/>
      </g>
     </g>
    </g>
   </g>
   <g id="line2d_15">
    <path d="M 230.727273 359.087907 
L 232.712685 358.862668 
L 233.70539 358.352805 
L 234.698096 358.11383 
L 235.690802 357.631843 
L 236.683508 356.868543 
L 237.676214 356.260337 
L 239.661626 354.30619 
L 241.647038 352.129986 
L 244.625156 347.427324 
L 245.617862 342.922697 
L 246.610568 335.366646 
L 247.603273 333.822045 
L 249.588685 383.82987 
L 250.581391 297.464409 
L 251.574097 263.035216 
L 252.566803 249.904784 
L 253.559509 251.072781 
L 254.552215 253.864048 
L 255.544921 244.897747 
L 256.537627 237.346828 
L 257.530333 243.873332 
L 258.523039 248.868573 
L 259.515745 228.460814 
L 260.50845 212.346248 
L 261.501156 209.998251 
L 262.493862 220.123685 
L 263.486568 228.213126 
L 264.479274 214.509074 
L 265.47198 203.093902 
L 266.464686 204.194958 
L 267.457392 214.215215 
L 268.450098 222.416903 
L 269.442804 225.237069 
L 270.43551 222.219806 
L 271.428216 214.733778 
L 272.420922 220.528644 
L 273.413627 258.971283 
L 274.406333 252.374375 
L 275.399039 233.707172 
L 276.391745 262.198232 
L 277.384451 195.676156 
L 278.377157 159.729349 
L 279.369863 148.530973 
L 280.362569 150.305436 
L 281.355275 138.069586 
L 282.347981 112.278292 
L 283.340687 95.118484 
L 284.333393 89.28 
L 285.326099 93.53517 
L 286.318804 105.996176 
L 287.31151 122.279988 
L 288.304216 140.586041 
L 289.296922 173.300812 
L 290.289628 312.347981 
L 291.282334 200.775468 
L 292.27504 188.205232 
L 293.267746 216.787847 
L 294.260452 270.7216 
L 295.253158 237.579632 
L 296.245864 248.583997 
L 297.23857 253.901502 
L 298.231276 242.556177 
L 299.223981 273.044587 
L 300.216687 307.180522 
L 301.209393 255.539739 
L 302.202099 267.83976 
L 303.194805 380.891954 
L 304.187511 295.315667 
L 305.180217 295.238551 
L 306.172923 368.929869 
L 307.165629 318.933821 
L 308.158335 316.686163 
L 309.151041 350.969729 
L 310.143747 322.43201 
L 311.136453 321.84153 
L 312.129159 340.876187 
L 313.121864 335.988974 
L 314.11457 338.124263 
L 315.107276 345.002087 
L 316.099982 342.136474 
L 317.092688 347.314568 
L 318.085394 347.268634 
L 319.0781 346.487262 
L 320.070806 351.463189 
L 321.063512 350.524204 
L 322.056218 351.878145 
L 324.04163 357.879752 
L 325.034336 358.277348 
L 326.027041 357.926495 
L 327.019747 358.126675 
L 328.012453 361.953928 
L 329.005159 363.338553 
L 329.997865 360.370952 
L 331.983277 371.589455 
L 332.975983 364.445906 
L 333.968689 364.765048 
L 334.961395 370.279437 
L 335.954101 373.278115 
L 336.946807 372.092697 
L 337.939513 367.198639 
L 338.932218 367.185095 
L 339.924924 379.910136 
L 340.91763 377.661407 
L 341.910336 373.99341 
L 342.903042 375.270174 
L 343.895748 376.14198 
L 344.888454 379.903422 
L 345.88116 381.64184 
L 346.873866 381.295648 
L 347.866572 381.097432 
L 348.859278 382.000943 
L 349.851984 381.060052 
L 350.84469 380.414775 
L 351.837395 385.745612 
L 352.830101 387.359906 
L 353.822807 381.068586 
L 354.815513 387.182648 
L 355.808219 385.557016 
L 356.800925 385.590616 
L 357.793631 385.914028 
L 358.786337 385.916176 
L 359.779043 392.535693 
L 360.771749 390.753598 
L 361.764455 390.866825 
L 362.757161 392.720724 
L 363.749867 391.475675 
L 364.742572 395.252435 
L 365.735278 395.329964 
L 366.727984 392.72093 
L 367.72069 392.381807 
L 368.713396 398.739654 
L 369.706102 395.906899 
L 370.698808 394.810969 
L 371.691514 396.129128 
L 372.68422 401.402779 
L 373.676926 398.118825 
L 374.669632 401.415101 
L 375.662338 403.194088 
L 377.64775 393.693126 
L 378.640455 397.943401 
L 379.633161 404.5562 
L 380.625867 399.650906 
L 382.611279 406.476046 
L 383.603985 404.628045 
L 384.596691 402.08411 
L 385.589397 401.883772 
L 386.582103 403.112506 
L 387.574809 402.404991 
L 388.567515 402.661501 
L 389.560221 404.389298 
L 390.552927 401.221028 
L 391.545632 414.206406 
L 392.538338 408.626908 
L 393.531044 409.697165 
L 394.52375 405.531169 
L 395.516456 408.687375 
L 397.501868 406.799751 
L 398.494574 412.983374 
L 399.48728 411.480316 
L 400.479986 414.872637 
L 401.472692 416.159603 
L 402.465398 410.0276 
L 403.458104 410.517407 
L 404.450809 410.100828 
L 405.443515 412.026838 
L 406.436221 409.993143 
L 407.428927 412.168109 
L 408.421633 411.252195 
L 409.414339 413.655623 
L 410.407045 409.25129 
L 411.399751 414.356102 
L 412.392457 415.680619 
L 413.385163 415.028226 
L 414.377869 417.018697 
L 415.370575 414.872589 
L 416.363281 414.018468 
L 417.355986 412.239671 
L 418.348692 414.063203 
L 419.341398 419.668537 
L 420.334104 414.662125 
L 421.32681 419.083344 
L 422.319516 425.222302 
L 423.312222 419.175394 
L 424.304928 411.38388 
L 425.297634 412.17119 
L 426.29034 425.584534 
L 427.283046 426.083161 
L 428.275752 418.381633 
L 429.268458 423.24055 
L 431.253869 423.029933 
L 432.246575 425.391554 
L 433.239281 420.108548 
L 434.231987 419.439679 
L 435.224693 421.090488 
L 436.217399 421.580579 
L 437.210105 425.620359 
L 438.202811 419.300484 
L 439.195517 426.960516 
L 440.188223 425.478647 
L 441.180929 426.4667 
L 442.173635 424.206216 
L 443.166341 423.256894 
L 444.159046 418.526548 
L 445.151752 416.114878 
L 446.144458 428.98519 
L 447.137164 426.517146 
L 448.12987 421.438471 
L 449.122576 430.883521 
L 450.115282 426.569209 
L 451.107988 426.841221 
L 452.100694 428.280825 
L 453.0934 430.526129 
L 454.086106 427.793598 
L 455.078812 432.094934 
L 456.071518 428.829733 
L 457.064223 430.194342 
L 459.049635 430.083771 
L 460.042341 428.682441 
L 461.035047 430.437029 
L 462.027753 434.532448 
L 463.020459 429.362972 
L 464.013165 423.452604 
L 465.005871 434.338533 
L 465.998577 435.867321 
L 466.991283 434.98743 
L 467.983989 432.564552 
L 468.976695 433.159332 
L 469.9694 442.543215 
L 470.962106 424.313194 
L 471.954812 432.320321 
L 472.947518 438.583698 
L 473.940224 422.041629 
L 474.93293 429.789422 
L 475.925636 433.30184 
L 476.918342 425.149792 
L 477.911048 433.963151 
L 478.903754 440.731053 
L 479.89646 435.183556 
L 480.889166 431.927758 
L 481.881872 423.504054 
L 482.874577 439.415349 
L 483.867283 439.258653 
L 484.859989 445.217216 
L 485.852695 437.469794 
L 486.845401 440.420932 
L 487.838107 439.125245 
L 488.830813 439.701518 
L 489.823519 438.018761 
L 490.816225 437.17644 
L 491.808931 437.351978 
L 492.801637 433.530301 
L 493.794343 439.813988 
L 494.787049 437.466743 
L 495.779754 428.054753 
L 496.77246 439.861159 
L 497.765166 438.532935 
L 498.757872 438.679176 
L 499.750578 433.745798 
L 500.743284 445.866484 
L 501.73599 433.919344 
L 502.728696 447.607272 
L 503.721402 438.82028 
L 504.714108 440.489678 
L 505.706814 448.317203 
L 506.69952 445.930325 
L 507.692226 439.59302 
L 508.684932 443.817572 
L 509.677637 435.88253 
L 510.670343 436.279209 
L 511.663049 446.380095 
L 512.655755 440.940699 
L 513.648461 455.50612 
L 514.641167 440.306937 
L 515.633873 435.63754 
L 516.626579 437.876782 
L 517.619285 444.974874 
L 518.611991 440.688165 
L 519.604697 443.09375 
L 520.597403 440.62251 
L 521.590109 440.591188 
L 522.582814 443.501544 
L 523.57552 439.989633 
L 524.568226 437.507643 
L 525.560932 444.897496 
L 526.553638 441.611399 
L 527.546344 448.882538 
L 528.53905 457.282445 
L 529.531756 449.517186 
L 530.524462 449.319317 
L 531.517168 446.644994 
L 532.509874 441.406057 
L 533.50258 446.671223 
L 534.495286 436.128681 
L 535.487991 436.278823 
L 536.480697 441.144386 
L 537.473403 448.985768 
L 538.466109 449.868923 
L 539.458815 448.722885 
L 540.451521 439.430593 
L 541.444227 444.179453 
L 542.436933 467.188875 
L 543.429639 452.558038 
L 544.422345 440.201841 
L 545.415051 460.241183 
L 546.407757 453.914181 
L 548.393168 446.373015 
L 549.385874 453.200732 
L 550.37858 446.789955 
L 551.371286 449.285887 
L 552.363992 443.860896 
L 553.356698 446.768337 
L 554.349404 441.623831 
L 555.34211 454.443247 
L 556.334816 454.412982 
L 557.327522 451.377371 
L 558.320228 453.412434 
L 559.312934 444.972856 
L 560.30564 456.025094 
L 561.298345 446.318831 
L 562.291051 447.845787 
L 563.283757 447.538204 
L 564.276463 453.47074 
L 565.269169 447.930446 
L 567.254581 448.721611 
L 568.247287 453.696317 
L 569.239993 463.935641 
L 570.232699 450.529128 
L 571.225405 443.797806 
L 572.218111 447.308568 
L 573.210817 460.946688 
L 574.203523 455.978196 
L 575.196228 459.1809 
L 576.188934 450.642859 
L 577.18164 446.393412 
L 578.174346 450.590007 
L 579.167052 454.123395 
L 580.159758 451.783585 
L 581.152464 456.423752 
L 582.14517 450.147066 
L 583.137876 452.705503 
L 584.130582 449.805769 
L 585.123288 460.942085 
L 586.115994 452.043233 
L 587.1087 450.965086 
L 588.101405 457.10637 
L 590.086817 454.060139 
L 591.079523 451.481164 
L 592.072229 448.371237 
L 593.064935 458.418626 
L 594.057641 452.26116 
L 595.050347 454.488457 
L 596.043053 459.573715 
L 597.035759 457.920997 
L 598.028465 453.651787 
L 599.021171 463.197038 
L 600.013877 454.617532 
L 601.999288 457.814412 
L 602.991994 458.431167 
L 603.9847 452.526404 
L 604.977406 461.114527 
L 605.970112 453.391356 
L 606.962818 459.172674 
L 607.955524 460.253075 
L 608.94823 458.721426 
L 609.940936 461.870092 
L 610.933642 469.221293 
L 611.926348 457.378025 
L 612.919054 453.753106 
L 613.911759 464.101018 
L 615.897171 460.292748 
L 616.889877 465.218563 
L 617.882583 457.083246 
L 618.875289 464.667421 
L 619.867995 467.172487 
L 620.860701 454.838532 
L 621.853407 458.917941 
L 622.846113 458.552354 
L 623.838819 460.485028 
L 624.831525 458.653428 
L 625.824231 457.763738 
L 626.816936 463.254134 
L 627.809642 459.695742 
L 628.802348 461.913501 
L 629.795054 454.848128 
L 630.78776 458.661976 
L 631.780466 464.312306 
L 632.773172 464.310272 
L 633.765878 465.58461 
L 634.758584 457.574004 
L 635.75129 463.276945 
L 636.743996 457.497254 
L 637.736702 464.104781 
L 638.729408 461.593136 
L 639.722114 463.753517 
L 640.714819 462.739191 
L 641.707525 458.397884 
L 642.700231 463.415925 
L 643.692937 463.175784 
L 644.685643 461.235145 
L 645.678349 463.02301 
L 646.671055 462.84233 
L 647.663761 464.077918 
L 648.656467 465.746981 
L 649.649173 461.56101 
L 650.641879 465.262514 
L 651.634585 463.010321 
L 652.627291 463.877706 
L 653.619996 464.085868 
L 654.612702 463.246407 
L 655.605408 463.589317 
L 656.598114 464.789669 
L 657.59082 465.01885 
L 658.583526 464.840402 
L 659.576232 465.845528 
L 660.568938 463.644244 
L 662.55435 464.646907 
L 663.547056 467.106266 
L 665.532468 463.392771 
L 666.525173 466.040285 
L 667.517879 463.118046 
L 668.510585 465.206114 
L 669.503291 466.009113 
L 670.495997 464.904541 
L 671.488703 466.626978 
L 672.481409 465.859579 
L 673.474115 464.904304 
L 674.466821 466.799471 
L 675.459527 465.783887 
L 676.452233 465.348363 
L 677.444939 465.935992 
L 678.437645 467.879973 
L 679.43035 468.241736 
L 680.423056 466.743845 
L 681.415762 467.86121 
L 682.408468 466.016477 
L 683.401174 467.297121 
L 684.39388 467.530926 
L 685.386586 466.881196 
L 686.379292 467.939651 
L 687.371998 468.018497 
L 688.364704 467.363698 
L 689.35741 468.57043 
L 690.350116 468.603888 
L 691.342822 467.540551 
L 692.335527 468.968579 
L 693.328233 467.747586 
L 694.320939 468.073415 
L 695.313645 469.332445 
L 696.306351 468.921775 
L 697.299057 468.263763 
L 698.291763 467.748717 
L 699.284469 469.142071 
L 700.277175 469.42186 
L 701.269881 469.150334 
L 702.262587 468.711365 
L 703.255293 468.870013 
L 704.247999 469.817837 
L 705.240705 469.58591 
L 706.23341 469.569445 
L 708.218822 468.874007 
L 709.211528 469.775294 
L 710.204234 469.110013 
L 711.19694 469.551224 
L 712.189646 470.877286 
L 713.182352 469.78071 
L 714.175058 470.180257 
L 715.167764 470.07363 
L 716.16047 469.461375 
L 717.153176 470.846896 
L 718.145882 471.110228 
L 719.138587 469.551162 
L 720.131293 470.624998 
L 721.123999 471.199236 
L 723.109411 470.846497 
L 724.102117 470.429667 
L 725.094823 471.012435 
L 727.080235 471.868432 
L 728.072941 471.577872 
L 729.065647 471.620408 
L 730.058353 471.932328 
L 731.051059 471.548213 
L 732.043764 471.543669 
L 733.03647 472.180412 
L 734.029176 472.034121 
L 735.021882 472.015908 
L 736.014588 471.740027 
L 737.007294 472.406938 
L 738 471.896004 
L 739.985412 471.892524 
L 740.978118 472.421895 
L 741.970824 472.275908 
L 742.96353 473.070496 
L 743.956236 473.21244 
L 744.948941 473.718055 
L 745.941647 472.594094 
L 746.934353 472.590232 
L 747.927059 473.030679 
L 748.919765 473.001106 
L 749.912471 473.214431 
L 750.905177 473.307526 
L 753.883295 474.018264 
L 755.868707 473.496129 
L 756.861413 473.807649 
L 757.854118 473.827863 
L 758.846824 474.070325 
L 759.83953 474.444428 
L 760.832236 474.437395 
L 761.824942 473.845747 
L 762.817648 474.188932 
L 763.810354 475.001171 
L 764.80306 474.238004 
L 765.795766 474.514122 
L 767.781178 475.693498 
L 769.76659 474.209352 
L 771.752001 474.957333 
L 772.744707 474.202569 
L 773.737413 475.204578 
L 774.730119 475.60439 
L 776.715531 474.991053 
L 777.708237 475.712282 
L 778.700943 475.279847 
L 779.693649 475.945668 
L 780.686355 475.538983 
L 781.679061 476.062078 
L 782.671767 476.316008 
L 783.664473 476.28855 
L 784.657178 476.476646 
L 785.649884 476.029156 
L 786.64259 475.882017 
L 787.635296 476.391755 
L 789.620708 476.681875 
L 790.613414 476.303051 
L 791.60612 476.50609 
L 792.598826 477.021122 
L 794.584238 476.970762 
L 795.576944 477.497815 
L 796.56965 477.558893 
L 797.562355 476.839788 
L 798.555061 477.001589 
L 799.547767 477.515835 
L 803.518591 477.808058 
L 804.511297 476.642496 
L 805.504003 477.973632 
L 806.496709 477.607797 
L 807.489415 477.664047 
L 809.474827 477.92141 
L 810.467532 477.772349 
L 811.460238 477.84871 
L 812.452944 478.3057 
L 813.44565 478.187313 
L 814.438356 478.216529 
L 815.431062 478.678976 
L 816.423768 478.720435 
L 817.416474 478.341416 
L 818.40918 478.856324 
L 819.401886 478.941439 
L 820.394592 478.333181 
L 821.387298 478.622424 
L 822.380004 478.687406 
L 823.372709 478.54803 
L 824.365415 479.476196 
L 825.358121 478.863937 
L 826.350827 478.816232 
L 828.336239 478.418595 
L 829.328945 479.413795 
L 830.321651 480.053535 
L 831.314357 479.045288 
L 833.299769 479.896387 
L 834.292475 479.441642 
L 835.285181 479.782358 
L 837.270592 479.865233 
L 838.263298 479.868437 
L 839.256004 479.685338 
L 840.24871 479.651717 
L 841.241416 480.304062 
L 842.234122 480.381566 
L 843.226828 479.176379 
L 844.219534 480.535587 
L 845.21224 480.591586 
L 846.204946 480.270863 
L 847.197652 480.580863 
L 848.190358 480.207643 
L 850.175769 481.119412 
L 851.168475 480.727432 
L 852.161181 479.876484 
L 853.153887 481.492051 
L 854.146593 481.310475 
L 855.139299 481.786652 
L 856.132005 480.658519 
L 857.124711 481.443282 
L 858.117417 481.66686 
L 859.110123 481.180769 
L 860.102829 481.999996 
L 861.095535 481.06086 
L 862.088241 481.716819 
L 863.080946 481.195475 
L 864.073652 481.35009 
L 865.066358 481.36189 
L 866.059064 482.086766 
L 867.05177 480.979208 
L 869.037182 482.813172 
L 870.029888 481.669329 
L 871.022594 481.569878 
L 872.0153 482.105509 
L 873.008006 482.236272 
L 874.000712 481.976252 
L 874.993418 482.320533 
L 877.971535 481.920612 
L 879.956947 482.921921 
L 881.942359 481.867468 
L 882.935065 482.060843 
L 883.927771 483.012291 
L 884.920477 482.902467 
L 885.913183 482.247154 
L 886.905889 482.466423 
L 887.898595 483.007843 
L 888.8913 482.808609 
L 889.884006 482.959573 
L 890.876712 483.55781 
L 891.869418 483.973791 
L 892.862124 482.517492 
L 893.85483 483.217342 
L 894.847536 482.963728 
L 896.832948 483.460625 
L 897.825654 483.109578 
L 898.81836 483.447968 
L 899.811066 483.200379 
L 900.803772 484.267528 
L 901.796477 483.706351 
L 902.789183 483.66013 
L 903.781889 483.464623 
L 904.774595 484.075755 
L 905.767301 484.16521 
L 906.760007 484.388328 
L 907.752713 483.098263 
L 908.745419 484.063336 
L 909.738125 483.361476 
L 910.730831 483.592469 
L 911.723537 483.623583 
L 912.716243 484.549873 
L 913.708949 484.673626 
L 914.701655 483.53518 
L 915.69436 483.897862 
L 916.687066 485.023628 
L 917.679772 484.394841 
L 918.672478 484.26875 
L 919.665184 484.883936 
L 920.65789 484.721907 
L 921.650596 484.312189 
L 922.643302 484.071302 
L 923.636008 484.742808 
L 924.628714 484.95797 
L 925.62142 484.812471 
L 926.614126 485.048965 
L 928.599537 484.316538 
L 929.592243 484.334427 
L 930.584949 485.350651 
L 931.577655 484.301913 
L 932.570361 485.162804 
L 933.563067 484.886803 
L 934.555773 484.76957 
L 935.548479 484.827511 
L 936.541185 485.279397 
L 937.533891 485.327256 
L 938.526597 485.00708 
L 939.519303 485.954802 
L 940.512009 485.419423 
L 941.504714 485.059549 
L 942.49742 485.888485 
L 943.490126 486.117479 
L 944.482832 486.124638 
L 945.475538 485.824454 
L 946.468244 484.645861 
L 947.46095 485.186274 
L 949.446362 486.006765 
L 950.439068 485.464518 
L 951.431774 486.592053 
L 952.42448 485.923779 
L 953.417186 485.494155 
L 955.402597 485.62541 
L 956.395303 486.008613 
L 957.388009 485.722902 
L 958.380715 485.591357 
L 959.373421 485.911471 
L 960.366127 486.506714 
L 961.358833 486.205491 
L 962.351539 487.000834 
L 963.344245 486.076175 
L 964.336951 485.94973 
L 965.329657 485.626935 
L 966.322363 486.600572 
L 967.315068 486.941587 
L 968.307774 485.464072 
L 969.30048 486.545939 
L 970.293186 486.657635 
L 971.285892 486.513425 
L 972.278598 486.994984 
L 973.271304 487.069784 
L 974.26401 486.714091 
L 975.256716 486.572953 
L 976.249422 487.752701 
L 977.242128 486.870432 
L 978.234834 486.502625 
L 979.22754 486.929075 
L 980.220246 487.012276 
L 981.212951 487.347218 
L 982.205657 487.264693 
L 983.198363 486.64505 
L 984.191069 486.837718 
L 985.183775 487.348617 
L 988.161893 486.759647 
L 989.154599 486.816861 
L 990.147305 487.37483 
L 992.132717 486.426815 
L 993.125423 487.731636 
L 994.118128 488.130453 
L 995.110834 486.886558 
L 996.10354 487.553275 
L 997.096246 487.774748 
L 998.088952 487.81554 
L 999.081658 486.606083 
L 1000.074364 486.845421 
L 1001.06707 487.560952 
L 1002.059776 488.453689 
L 1004.045188 487.732473 
L 1005.037894 488.007364 
L 1007.023305 488.003748 
L 1008.016011 488.400528 
L 1010.001423 487.833763 
L 1010.994129 488.248994 
L 1011.986835 488.042107 
L 1012.979541 488.315986 
L 1013.972247 488.244515 
L 1014.964953 487.957682 
L 1015.957659 488.615585 
L 1016.950365 488.653887 
L 1017.943071 488.205955 
L 1018.935777 488.467296 
L 1019.928482 488.049981 
L 1020.921188 488.113963 
L 1021.913894 487.904387 
L 1022.9066 488.336482 
L 1023.899306 489.464674 
L 1025.884718 488.249599 
L 1026.877424 489.213014 
L 1027.87013 488.602213 
L 1028.862836 488.912797 
L 1029.855542 488.775325 
L 1030.848248 488.874153 
L 1031.840954 488.54145 
L 1032.833659 489.091111 
L 1033.826365 488.81924 
L 1034.819071 488.976004 
L 1035.811777 488.62429 
L 1036.804483 488.720562 
L 1037.797189 488.459941 
L 1038.789895 488.961457 
L 1039.782601 489.227975 
L 1040.775307 488.519948 
L 1041.768013 489.92755 
L 1042.760719 488.49594 
L 1043.753425 488.868996 
L 1044.746131 488.801859 
L 1045.738837 489.213851 
L 1046.731542 489.787302 
L 1047.724248 489.194833 
L 1048.716954 489.434541 
L 1049.70966 488.917978 
L 1050.702366 488.664491 
L 1051.695072 489.168962 
L 1053.680484 488.77829 
L 1054.67319 488.831029 
L 1055.665896 489.109429 
L 1056.658602 490.18285 
L 1057.651308 489.519146 
L 1058.644014 488.446102 
L 1059.636719 489.434026 
L 1060.629425 488.89887 
L 1061.622131 489.858714 
L 1062.614837 489.49718 
L 1063.607543 489.365619 
L 1064.600249 490.191083 
L 1065.592955 489.039216 
L 1066.585661 490.238409 
L 1067.578367 489.259929 
L 1068.571073 489.141604 
L 1069.563779 489.546656 
L 1071.549191 489.989258 
L 1072.541896 489.433522 
L 1073.534602 489.520757 
L 1074.527308 490.098432 
L 1075.520014 489.764171 
L 1076.51272 489.861885 
L 1077.505426 489.352272 
L 1078.498132 489.876742 
L 1079.490838 489.642715 
L 1080.483544 490.206755 
L 1081.47625 490.314521 
L 1082.468956 489.472156 
L 1083.461662 489.782357 
L 1084.454368 489.861257 
L 1085.447073 490.105313 
L 1086.439779 490.91204 
L 1087.432485 490.071412 
L 1088.425191 489.4059 
L 1089.417897 490.551981 
L 1090.410603 490.665765 
L 1091.403309 490.032265 
L 1092.396015 489.807019 
L 1093.388721 490.140793 
L 1094.381427 489.716861 
L 1095.374133 491.230395 
L 1096.366839 490.091448 
L 1097.359545 489.877346 
L 1098.35225 489.397717 
L 1099.344956 489.90165 
L 1100.337662 489.670093 
L 1101.330368 490.423717 
L 1102.323074 489.790524 
L 1103.31578 490.894784 
L 1104.308486 490.781915 
L 1105.301192 490.180378 
L 1106.293898 490.744615 
L 1107.286604 490.90131 
L 1108.27931 489.825498 
L 1109.272016 489.613797 
L 1110.264722 490.522134 
L 1111.257428 490.106705 
L 1112.250133 490.730328 
L 1113.242839 490.761118 
L 1114.235545 490.074789 
L 1115.228251 490.771219 
L 1116.220957 490.181595 
L 1117.213663 490.934748 
L 1118.206369 491.230052 
L 1119.199075 491.348112 
L 1120.191781 490.498939 
L 1121.184487 491.007363 
L 1122.177193 490.543663 
L 1123.169899 490.595406 
L 1124.162605 490.160645 
L 1125.15531 491.043451 
L 1126.148016 490.948124 
L 1127.140722 490.514612 
L 1128.133428 491.05565 
L 1129.126134 491.066278 
L 1130.11884 491.40376 
L 1131.111546 491.403502 
L 1132.104252 490.727151 
L 1133.096958 490.603901 
L 1134.089664 491.304611 
L 1135.08237 491.114761 
L 1136.075076 491.765941 
L 1137.067782 490.72432 
L 1138.060487 491.456841 
L 1139.053193 490.641568 
L 1140.045899 491.190525 
L 1141.038605 490.886529 
L 1142.031311 490.998031 
L 1143.024017 490.478296 
L 1144.016723 491.721893 
L 1146.994841 490.477628 
L 1147.987547 491.285432 
L 1148.980253 490.86096 
L 1149.972959 490.97987 
L 1150.965664 490.852364 
L 1151.95837 490.412447 
L 1152.951076 491.559251 
L 1153.943782 491.783159 
L 1155.929194 491.326031 
L 1156.9219 490.778263 
L 1157.914606 490.91257 
L 1159.900018 491.840029 
L 1160.892724 491.125406 
L 1161.88543 490.931856 
L 1162.878136 491.164328 
L 1163.870841 491.626339 
L 1165.856253 491.14978 
L 1166.848959 491.99546 
L 1167.841665 491.635911 
L 1168.834371 490.927309 
L 1169.827077 492.048207 
L 1170.819783 491.45252 
L 1171.812489 491.911752 
L 1172.805195 490.799658 
L 1173.797901 491.453624 
L 1174.790607 491.175753 
L 1175.783313 492.07906 
L 1176.776019 491.839766 
L 1177.768724 491.326561 
L 1178.76143 491.022109 
L 1179.754136 491.461408 
L 1181.739548 491.459464 
L 1182.732254 491.440092 
L 1183.72496 492.07761 
L 1184.717666 491.234964 
L 1185.710372 491.34165 
L 1186.703078 490.766034 
L 1187.695784 491.676701 
L 1188.68849 491.480766 
L 1189.681196 492.286546 
L 1190.673901 490.837408 
L 1191.666607 491.20888 
L 1192.659313 491.390533 
L 1194.644725 491.983217 
L 1195.637431 491.997602 
L 1196.630137 491.087344 
L 1197.622843 491.884512 
L 1198.615549 491.624937 
L 1199.608255 491.64938 
L 1200.600961 491.803181 
L 1202.586373 491.275978 
L 1203.579078 492.48 
L 1204.571784 492.055511 
L 1205.56449 491.370828 
L 1206.557196 491.15707 
L 1207.549902 491.939791 
L 1208.542608 491.996688 
L 1209.535314 491.448822 
L 1210.52802 491.304914 
L 1211.520726 491.836523 
L 1212.513432 491.942661 
L 1213.506138 491.804485 
L 1214.498844 492.102764 
L 1215.49155 491.3792 
L 1216.484255 491.886429 
L 1217.476961 491.795111 
L 1218.469667 492.328215 
L 1219.462373 492.395359 
L 1220.455079 491.378224 
L 1221.447785 491.51968 
L 1222.440491 491.364595 
L 1223.433197 492.248601 
L 1224.425903 491.696225 
L 1226.411315 491.006832 
L 1227.404021 492.107156 
L 1228.396727 490.57312 
L 1229.389432 491.032696 
L 1230.382138 492.198732 
L 1231.374844 491.922221 
L 1232.36755 491.991354 
L 1233.360256 491.196761 
L 1234.352962 491.609087 
L 1235.345668 492.337298 
L 1236.338374 491.75168 
L 1237.33108 491.466563 
L 1238.323786 492.306286 
L 1239.316492 491.938724 
L 1240.309198 492.108174 
L 1241.301904 491.421333 
L 1242.29461 492.093976 
L 1243.287315 492.320629 
L 1244.280021 491.580474 
L 1245.272727 492.17855 
L 1245.272727 492.17855 
" clip-path="url(#pf535ce1df6)" style="fill: none; stroke: #1f77b4; stroke-width: 1.5; stroke-linecap: square"/>
   </g>
   <g id="patch_3">
    <path d="M 180 512.64 
L 180 69.12 
" style="fill: none; stroke: #000000; stroke-width: 0.8; stroke-linejoin: miter; stroke-linecap: square"/>
   </g>
   <g id="patch_4">
    <path d="M 1296 512.64 
L 1296 69.12 
" style="fill: none; stroke: #000000; stroke-width: 0.8; stroke-linejoin: miter; stroke-linecap: square"/>
   </g>
   <g id="patch_5">
    <path d="M 180 512.64 
L 1296 512.64 
" style="fill: none; stroke: #000000; stroke-width: 0.8; stroke-linejoin: miter; stroke-linecap: square"/>
   </g>
   <g id="patch_6">
    <path d="M 180 69.12 
L 1296 69.12 
" style="fill: none; stroke: #000000; stroke-width: 0.8; stroke-linejoin: miter; stroke-linecap: square"/>
   </g>
   <g id="text_15">
    <!-- source15-receiver9 -->
    <g transform="translate(544.9 60.80125) scale(0.4 -0.4)">
     <defs>
      <path id="DejaVuSans-73" d="M 2834 3397 
L 2834 2853 
Q 2591 2978 2328 3040 
Q 2066 3103 1784 3103 
Q 1356 3103 1142 2972 
Q 928 2841 928 2578 
Q 928 2378 1081 2264 
Q 1234 2150 1697 2047 
L 1894 2003 
Q 2506 1872 2764 1633 
Q 3022 1394 3022 966 
Q 3022 478 2636 193 
Q 2250 -91 1575 -91 
Q 1294 -91 989 -36 
Q 684 19 347 128 
L 347 722 
Q 666 556 975 473 
Q 1284 391 1588 391 
Q 1994 391 2212 530 
Q 2431 669 2431 922 
Q 2431 1156 2273 1281 
Q 2116 1406 1581 1522 
L 1381 1569 
Q 847 1681 609 1914 
Q 372 2147 372 2553 
Q 372 3047 722 3315 
Q 1072 3584 1716 3584 
Q 2034 3584 2315 3537 
Q 2597 3491 2834 3397 
z
" transform="scale(0.015625)"/>
      <path id="DejaVuSans-6f" d="M 1959 3097 
Q 1497 3097 1228 2736 
Q 959 2375 959 1747 
Q 959 1119 1226 758 
Q 1494 397 1959 397 
Q 2419 397 2687 759 
Q 2956 1122 2956 1747 
Q 2956 2369 2687 2733 
Q 2419 3097 1959 3097 
z
M 1959 3584 
Q 2709 3584 3137 3096 
Q 3566 2609 3566 1747 
Q 3566 888 3137 398 
Q 2709 -91 1959 -91 
Q 1206 -91 779 398 
Q 353 888 353 1747 
Q 353 2609 779 3096 
Q 1206 3584 1959 3584 
z
" transform="scale(0.015625)"/>
      <path id="DejaVuSans-75" d="M 544 1381 
L 544 3500 
L 1119 3500 
L 1119 1403 
Q 1119 906 1312 657 
Q 1506 409 1894 409 
Q 2359 409 2629 706 
Q 2900 1003 2900 1516 
L 2900 3500 
L 3475 3500 
L 3475 0 
L 2900 0 
L 2900 538 
Q 2691 219 2414 64 
Q 2138 -91 1772 -91 
Q 1169 -91 856 284 
Q 544 659 544 1381 
z
M 1991 3584 
L 1991 3584 
z
" transform="scale(0.015625)"/>
      <path id="DejaVuSans-72" d="M 2631 2963 
Q 2534 3019 2420 3045 
Q 2306 3072 2169 3072 
Q 1681 3072 1420 2755 
Q 1159 2438 1159 1844 
L 1159 0 
L 581 0 
L 581 3500 
L 1159 3500 
L 1159 2956 
Q 1341 3275 1631 3429 
Q 1922 3584 2338 3584 
Q 2397 3584 2469 3576 
Q 2541 3569 2628 3553 
L 2631 2963 
z
" transform="scale(0.015625)"/>
      <path id="DejaVuSans-63" d="M 3122 3366 
L 3122 2828 
Q 2878 2963 2633 3030 
Q 2388 3097 2138 3097 
Q 1578 3097 1268 2742 
Q 959 2388 959 1747 
Q 959 1106 1268 751 
Q 1578 397 2138 397 
Q 2388 397 2633 464 
Q 2878 531 3122 666 
L 3122 134 
Q 2881 22 2623 -34 
Q 2366 -91 2075 -91 
Q 1284 -91 818 406 
Q 353 903 353 1747 
Q 353 2603 823 3093 
Q 1294 3584 2113 3584 
Q 2378 3584 2631 3529 
Q 2884 3475 3122 3366 
z
" transform="scale(0.015625)"/>
      <path id="DejaVuSans-65" d="M 3597 1894 
L 3597 1613 
L 953 1613 
Q 991 1019 1311 708 
Q 1631 397 2203 397 
Q 2534 397 2845 478 
Q 3156 559 3463 722 
L 3463 178 
Q 3153 47 2828 -22 
Q 2503 -91 2169 -91 
Q 1331 -91 842 396 
Q 353 884 353 1716 
Q 353 2575 817 3079 
Q 1281 3584 2069 3584 
Q 2775 3584 3186 3129 
Q 3597 2675 3597 1894 
z
M 3022 2063 
Q 3016 2534 2758 2815 
Q 2500 3097 2075 3097 
Q 1594 3097 1305 2825 
Q 1016 2553 972 2059 
L 3022 2063 
z
" transform="scale(0.015625)"/>
      <path id="DejaVuSans-2d" d="M 313 2009 
L 1997 2009 
L 1997 1497 
L 313 1497 
L 313 2009 
z
" transform="scale(0.015625)"/>
      <path id="DejaVuSans-69" d="M 603 3500 
L 1178 3500 
L 1178 0 
L 603 0 
L 603 3500 
z
M 603 4863 
L 1178 4863 
L 1178 4134 
L 603 4134 
L 603 4863 
z
" transform="scale(0.015625)"/>
      <path id="DejaVuSans-76" d="M 191 3500 
L 800 3500 
L 1894 563 
L 2988 3500 
L 3597 3500 
L 2284 0 
L 1503 0 
L 191 3500 
z
" transform="scale(0.015625)"/>
      <path id="DejaVuSans-39" d="M 703 97 
L 703 672 
Q 941 559 1184 500 
Q 1428 441 1663 441 
Q 2288 441 2617 861 
Q 2947 1281 2994 2138 
Q 2813 1869 2534 1725 
Q 2256 1581 1919 1581 
Q 1219 1581 811 2004 
Q 403 2428 403 3163 
Q 403 3881 828 4315 
Q 1253 4750 1959 4750 
Q 2769 4750 3195 4129 
Q 3622 3509 3622 2328 
Q 3622 1225 3098 567 
Q 2575 -91 1691 -91 
Q 1453 -91 1209 -44 
Q 966 3 703 97 
z
M 1959 2075 
Q 2384 2075 2632 2365 
Q 2881 2656 2881 3163 
Q 2881 3666 2632 3958 
Q 2384 4250 1959 4250 
Q 1534 4250 1286 3958 
Q 1038 3666 1038 3163 
Q 1038 2656 1286 2365 
Q 1534 2075 1959 2075 
z
" transform="scale(0.015625)"/>
     </defs>
     <use xlink:href="#DejaVuSans-73"/>
     <use xlink:href="#DejaVuSans-6f" x="52.099609"/>
     <use xlink:href="#DejaVuSans-75" x="113.28125"/>
     <use xlink:href="#DejaVuSans-72" x="176.660156"/>
     <use xlink:href="#DejaVuSans-63" x="215.523438"/>
     <use xlink:href="#DejaVuSans-65" x="270.503906"/>
     <use xlink:href="#DejaVuSans-31" x="332.027344"/>
     <use xlink:href="#DejaVuSans-35" x="395.650391"/>
     <use xlink:href="#DejaVuSans-2d" x="459.273438"/>
     <use xlink:href="#DejaVuSans-72" x="495.357422"/>
     <use xlink:href="#DejaVuSans-65" x="534.220703"/>
     <use xlink:href="#DejaVuSans-63" x="595.744141"/>
     <use xlink:href="#DejaVuSans-65" x="650.724609"/>
     <use xlink:href="#DejaVuSans-69" x="712.248047"/>
     <use xlink:href="#DejaVuSans-76" x="740.03125"/>
     <use xlink:href="#DejaVuSans-65" x="799.210938"/>
     <use xlink:href="#DejaVuSans-72" x="860.734375"/>
     <use xlink:href="#DejaVuSans-39" x="901.847656"/>
    </g>
   </g>
  </g>
 </g>
 <defs>
  <clipPath id="pf535ce1df6">
   <rect x="180" y="69.12" width="1116" height="443.52"/>
  </clipPath>
 </defs>
</svg>
