<?xml version="1.0" encoding="utf-8" standalone="no"?>
<!DOCTYPE svg PUBLIC "-//W3C//DTD SVG 1.1//EN"
  "http://www.w3.org/Graphics/SVG/1.1/DTD/svg11.dtd">
<svg xmlns:xlink="http://www.w3.org/1999/xlink" width="1440pt" height="576pt" viewBox="0 0 1440 576" xmlns="http://www.w3.org/2000/svg" version="1.1">
 <metadata>
  <rdf:RDF xmlns:dc="http://purl.org/dc/elements/1.1/" xmlns:cc="http://creativecommons.org/ns#" xmlns:rdf="http://www.w3.org/1999/02/22-rdf-syntax-ns#">
   <cc:Work>
    <dc:type rdf:resource="http://purl.org/dc/dcmitype/StillImage"/>
    <dc:date>2024-05-22T04:49:57.732868</dc:date>
    <dc:format>image/svg+xml</dc:format>
    <dc:creator>
     <cc:Agent>
      <dc:title>Matplotlib v3.8.3, https://matplotlib.org/</dc:title>
     </cc:Agent>
    </dc:creator>
   </cc:Work>
  </rdf:RDF>
 </metadata>
 <defs>
  <style type="text/css">*{stroke-linejoin: round; stroke-linecap: butt}</style>
 </defs>
 <g id="figure_1">
  <g id="patch_1">
   <path d="M 0 576 
L 1440 576 
L 1440 0 
L 0 0 
z
" style="fill: #ffffff"/>
  </g>
  <g id="axes_1">
   <g id="patch_2">
    <path d="M 180 512.64 
L 1296 512.64 
L 1296 69.12 
L 180 69.12 
z
" style="fill: #ffffff"/>
   </g>
   <g id="matplotlib.axis_1">
    <g id="xtick_1">
     <g id="line2d_1">
      <defs>
       <path id="m956c7fc56c" d="M 0 0 
L 0 3.5 
" style="stroke: #000000; stroke-width: 0.8"/>
      </defs>
      <g>
       <use xlink:href="#m956c7fc56c" x="229.734567" y="512.64" style="stroke: #000000; stroke-width: 0.8"/>
      </g>
     </g>
     <g id="text_1">
      <!-- 0 -->
      <g transform="translate(226.553317 527.238438) scale(0.1 -0.1)">
       <defs>
        <path id="DejaVuSans-30" d="M 2034 4250 
Q 1547 4250 1301 3770 
Q 1056 3291 1056 2328 
Q 1056 1369 1301 889 
Q 1547 409 2034 409 
Q 2525 409 2770 889 
Q 3016 1369 3016 2328 
Q 3016 3291 2770 3770 
Q 2525 4250 2034 4250 
z
M 2034 4750 
Q 2819 4750 3233 4129 
Q 3647 3509 3647 2328 
Q 3647 1150 3233 529 
Q 2819 -91 2034 -91 
Q 1250 -91 836 529 
Q 422 1150 422 2328 
Q 422 3509 836 4129 
Q 1250 4750 2034 4750 
z
" transform="scale(0.015625)"/>
       </defs>
       <use xlink:href="#DejaVuSans-30"/>
      </g>
     </g>
    </g>
    <g id="xtick_2">
     <g id="line2d_2">
      <g>
       <use xlink:href="#m956c7fc56c" x="433.04074" y="512.64" style="stroke: #000000; stroke-width: 0.8"/>
      </g>
     </g>
     <g id="text_2">
      <!-- 500 -->
      <g transform="translate(423.49699 527.238438) scale(0.1 -0.1)">
       <defs>
        <path id="DejaVuSans-35" d="M 691 4666 
L 3169 4666 
L 3169 4134 
L 1269 4134 
L 1269 2991 
Q 1406 3038 1543 3061 
Q 1681 3084 1819 3084 
Q 2600 3084 3056 2656 
Q 3513 2228 3513 1497 
Q 3513 744 3044 326 
Q 2575 -91 1722 -91 
Q 1428 -91 1123 -41 
Q 819 9 494 109 
L 494 744 
Q 775 591 1075 516 
Q 1375 441 1709 441 
Q 2250 441 2565 725 
Q 2881 1009 2881 1497 
Q 2881 1984 2565 2268 
Q 2250 2553 1709 2553 
Q 1456 2553 1204 2497 
Q 953 2441 691 2322 
L 691 4666 
z
" transform="scale(0.015625)"/>
       </defs>
       <use xlink:href="#DejaVuSans-35"/>
       <use xlink:href="#DejaVuSans-30" x="63.623047"/>
       <use xlink:href="#DejaVuSans-30" x="127.246094"/>
      </g>
     </g>
    </g>
    <g id="xtick_3">
     <g id="line2d_3">
      <g>
       <use xlink:href="#m956c7fc56c" x="636.346913" y="512.64" style="stroke: #000000; stroke-width: 0.8"/>
      </g>
     </g>
     <g id="text_3">
      <!-- 1000 -->
      <g transform="translate(623.621913 527.238438) scale(0.1 -0.1)">
       <defs>
        <path id="DejaVuSans-31" d="M 794 531 
L 1825 531 
L 1825 4091 
L 703 3866 
L 703 4441 
L 1819 4666 
L 2450 4666 
L 2450 531 
L 3481 531 
L 3481 0 
L 794 0 
L 794 531 
z
" transform="scale(0.015625)"/>
       </defs>
       <use xlink:href="#DejaVuSans-31"/>
       <use xlink:href="#DejaVuSans-30" x="63.623047"/>
       <use xlink:href="#DejaVuSans-30" x="127.246094"/>
       <use xlink:href="#DejaVuSans-30" x="190.869141"/>
      </g>
     </g>
    </g>
    <g id="xtick_4">
     <g id="line2d_4">
      <g>
       <use xlink:href="#m956c7fc56c" x="839.653087" y="512.64" style="stroke: #000000; stroke-width: 0.8"/>
      </g>
     </g>
     <g id="text_4">
      <!-- 1500 -->
      <g transform="translate(826.928087 527.238438) scale(0.1 -0.1)">
       <use xlink:href="#DejaVuSans-31"/>
       <use xlink:href="#DejaVuSans-35" x="63.623047"/>
       <use xlink:href="#DejaVuSans-30" x="127.246094"/>
       <use xlink:href="#DejaVuSans-30" x="190.869141"/>
      </g>
     </g>
    </g>
    <g id="xtick_5">
     <g id="line2d_5">
      <g>
       <use xlink:href="#m956c7fc56c" x="1042.95926" y="512.64" style="stroke: #000000; stroke-width: 0.8"/>
      </g>
     </g>
     <g id="text_5">
      <!-- 2000 -->
      <g transform="translate(1030.23426 527.238438) scale(0.1 -0.1)">
       <defs>
        <path id="DejaVuSans-32" d="M 1228 531 
L 3431 531 
L 3431 0 
L 469 0 
L 469 531 
Q 828 903 1448 1529 
Q 2069 2156 2228 2338 
Q 2531 2678 2651 2914 
Q 2772 3150 2772 3378 
Q 2772 3750 2511 3984 
Q 2250 4219 1831 4219 
Q 1534 4219 1204 4116 
Q 875 4013 500 3803 
L 500 4441 
Q 881 4594 1212 4672 
Q 1544 4750 1819 4750 
Q 2544 4750 2975 4387 
Q 3406 4025 3406 3419 
Q 3406 3131 3298 2873 
Q 3191 2616 2906 2266 
Q 2828 2175 2409 1742 
Q 1991 1309 1228 531 
z
" transform="scale(0.015625)"/>
       </defs>
       <use xlink:href="#DejaVuSans-32"/>
       <use xlink:href="#DejaVuSans-30" x="63.623047"/>
       <use xlink:href="#DejaVuSans-30" x="127.246094"/>
       <use xlink:href="#DejaVuSans-30" x="190.869141"/>
      </g>
     </g>
    </g>
    <g id="xtick_6">
     <g id="line2d_6">
      <g>
       <use xlink:href="#m956c7fc56c" x="1246.265433" y="512.64" style="stroke: #000000; stroke-width: 0.8"/>
      </g>
     </g>
     <g id="text_6">
      <!-- 2500 -->
      <g transform="translate(1233.540433 527.238438) scale(0.1 -0.1)">
       <use xlink:href="#DejaVuSans-32"/>
       <use xlink:href="#DejaVuSans-35" x="63.623047"/>
       <use xlink:href="#DejaVuSans-30" x="127.246094"/>
       <use xlink:href="#DejaVuSans-30" x="190.869141"/>
      </g>
     </g>
    </g>
   </g>
   <g id="matplotlib.axis_2">
    <g id="ytick_1">
     <g id="line2d_7">
      <defs>
       <path id="m76766250bd" d="M 0 0 
L -3.5 0 
" style="stroke: #000000; stroke-width: 0.8"/>
      </defs>
      <g>
       <use xlink:href="#m76766250bd" x="180" y="432.16847" style="stroke: #000000; stroke-width: 0.8"/>
      </g>
     </g>
     <g id="text_7">
      <!-- −4 -->
      <g transform="translate(158.257812 435.967688) scale(0.1 -0.1)">
       <defs>
        <path id="DejaVuSans-2212" d="M 678 2272 
L 4684 2272 
L 4684 1741 
L 678 1741 
L 678 2272 
z
" transform="scale(0.015625)"/>
        <path id="DejaVuSans-34" d="M 2419 4116 
L 825 1625 
L 2419 1625 
L 2419 4116 
z
M 2253 4666 
L 3047 4666 
L 3047 1625 
L 3713 1625 
L 3713 1100 
L 3047 1100 
L 3047 0 
L 2419 0 
L 2419 1100 
L 313 1100 
L 313 1709 
L 2253 4666 
z
" transform="scale(0.015625)"/>
       </defs>
       <use xlink:href="#DejaVuSans-2212"/>
       <use xlink:href="#DejaVuSans-34" x="83.789062"/>
      </g>
     </g>
    </g>
    <g id="ytick_2">
     <g id="line2d_8">
      <g>
       <use xlink:href="#m76766250bd" x="180" y="348.2367" style="stroke: #000000; stroke-width: 0.8"/>
      </g>
     </g>
     <g id="text_8">
      <!-- −2 -->
      <g transform="translate(158.257812 352.035918) scale(0.1 -0.1)">
       <use xlink:href="#DejaVuSans-2212"/>
       <use xlink:href="#DejaVuSans-32" x="83.789062"/>
      </g>
     </g>
    </g>
    <g id="ytick_3">
     <g id="line2d_9">
      <g>
       <use xlink:href="#m76766250bd" x="180" y="264.30493" style="stroke: #000000; stroke-width: 0.8"/>
      </g>
     </g>
     <g id="text_9">
      <!-- 0 -->
      <g transform="translate(166.6375 268.104148) scale(0.1 -0.1)">
       <use xlink:href="#DejaVuSans-30"/>
      </g>
     </g>
    </g>
    <g id="ytick_4">
     <g id="line2d_10">
      <g>
       <use xlink:href="#m76766250bd" x="180" y="180.37316" style="stroke: #000000; stroke-width: 0.8"/>
      </g>
     </g>
     <g id="text_10">
      <!-- 2 -->
      <g transform="translate(166.6375 184.172379) scale(0.1 -0.1)">
       <use xlink:href="#DejaVuSans-32"/>
      </g>
     </g>
    </g>
    <g id="ytick_5">
     <g id="line2d_11">
      <g>
       <use xlink:href="#m76766250bd" x="180" y="96.44139" style="stroke: #000000; stroke-width: 0.8"/>
      </g>
     </g>
     <g id="text_11">
      <!-- 4 -->
      <g transform="translate(166.6375 100.240609) scale(0.1 -0.1)">
       <use xlink:href="#DejaVuSans-34"/>
      </g>
     </g>
    </g>
   </g>
   <g id="line2d_12">
    <path d="M 230.727273 198.879897 
L 231.719979 198.626053 
L 232.712685 198.184127 
L 235.690802 196.013204 
L 238.66892 193.679456 
L 241.647038 191.478993 
L 242.639744 190.862617 
L 243.63245 190.543966 
L 244.625156 190.809224 
L 245.617862 191.856195 
L 246.610568 192.689667 
L 247.603273 189.283883 
L 248.595979 177.504977 
L 249.588685 162.265031 
L 250.581391 149.781762 
L 251.574097 141.630741 
L 252.566803 136.931208 
L 253.559509 134.370852 
L 254.552215 133.003043 
L 255.544921 132.270213 
L 256.537627 131.88383 
L 260.50845 130.936391 
L 261.501156 130.516708 
L 262.493862 129.931095 
L 264.479274 128.315735 
L 266.464686 126.274825 
L 269.442804 123.145384 
L 270.43551 122.280073 
L 271.428216 121.602998 
L 272.420922 121.15598 
L 273.413627 120.932466 
L 274.406333 120.988195 
L 275.399039 121.389673 
L 276.391745 122.185527 
L 277.384451 123.199534 
L 278.377157 123.84773 
L 279.369863 123.75334 
L 280.362569 122.68873 
L 281.355275 120.446783 
L 282.347981 117.17681 
L 283.340687 113.10287 
L 286.318804 99.149694 
L 287.31151 95.198807 
L 288.304216 92.105028 
L 289.296922 90.110795 
L 290.289628 89.28 
L 291.282334 89.463688 
L 292.27504 90.485796 
L 293.267746 92.195026 
L 294.260452 94.390397 
L 296.245864 99.776849 
L 298.231276 106.214877 
L 300.216687 113.510837 
L 305.180217 133.022598 
L 307.165629 139.454683 
L 308.158335 142.063746 
L 309.151041 144.272899 
L 311.136453 147.844016 
L 316.099982 155.502283 
L 317.092688 157.510216 
L 318.085394 159.909903 
L 319.0781 162.813994 
L 320.070806 166.205879 
L 322.056218 174.401961 
L 324.04163 183.111757 
L 325.034336 186.49427 
L 326.027041 188.067493 
L 327.019747 187.460862 
L 328.012453 184.772945 
L 329.005159 180.895612 
L 330.990571 172.298924 
L 331.983277 168.4261 
L 332.975983 165.00525 
L 333.968689 162.098194 
L 334.961395 159.662524 
L 335.954101 157.7324 
L 336.946807 156.267017 
L 337.939513 155.253612 
L 338.932218 154.638166 
L 339.924924 154.381974 
L 340.91763 154.485436 
L 341.910336 154.880984 
L 342.903042 155.57119 
L 343.895748 156.495654 
L 345.88116 158.813274 
L 347.866572 161.229582 
L 348.859278 162.239017 
L 349.851984 163.00312 
L 350.84469 163.559292 
L 351.837395 163.718009 
L 352.830101 163.646953 
L 353.822807 163.208964 
L 355.808219 161.729498 
L 357.793631 160.097243 
L 358.786337 159.443039 
L 359.779043 158.948789 
L 360.771749 158.691294 
L 361.764455 158.701436 
L 362.757161 159.062132 
L 363.749867 159.757064 
L 364.742572 160.821754 
L 365.735278 162.274378 
L 366.727984 164.135847 
L 367.72069 166.459923 
L 368.713396 169.258458 
L 369.706102 172.607329 
L 370.698808 176.554338 
L 371.691514 181.207047 
L 372.68422 186.627822 
L 373.676926 192.909234 
L 374.669632 200.087365 
L 376.655044 216.000649 
L 377.64775 222.045629 
L 378.640455 223.309753 
L 379.633161 219.315746 
L 382.611279 199.972807 
L 383.603985 194.749536 
L 384.596691 190.360497 
L 385.589397 186.792628 
L 386.582103 183.837097 
L 387.574809 181.504303 
L 388.567515 179.683851 
L 389.560221 178.278014 
L 390.552927 177.320521 
L 391.545632 176.640757 
L 392.538338 176.278405 
L 393.531044 176.16764 
L 394.52375 176.235832 
L 395.516456 176.494975 
L 397.501868 177.356678 
L 401.472692 179.352423 
L 404.450809 180.587579 
L 407.428927 181.749877 
L 409.414339 182.835071 
L 410.407045 183.555493 
L 412.392457 185.446658 
L 413.385163 186.665568 
L 415.370575 189.797537 
L 416.363281 191.626642 
L 418.348692 196.085623 
L 420.334104 201.517317 
L 422.319516 207.786372 
L 425.297634 218.331364 
L 427.283046 225.367376 
L 429.268458 231.38644 
L 430.261163 233.451298 
L 431.253869 234.889652 
L 432.246575 235.44694 
L 433.239281 235.343749 
L 434.231987 234.341236 
L 435.224693 232.835612 
L 436.217399 230.694589 
L 438.202811 225.521582 
L 443.166341 211.246998 
L 445.151752 206.412697 
L 447.137164 202.331289 
L 449.122576 199.156101 
L 451.107988 196.88988 
L 452.100694 196.140615 
L 453.0934 195.644729 
L 454.086106 195.355241 
L 455.078812 195.307101 
L 456.071518 195.487179 
L 457.064223 195.872169 
L 458.056929 196.537391 
L 459.049635 197.437266 
L 460.042341 198.539749 
L 461.035047 199.850398 
L 462.027753 201.453006 
L 463.020459 203.266723 
L 464.013165 205.332257 
L 465.998577 210.153087 
L 467.983989 216.145422 
L 468.976695 219.460429 
L 470.962106 227.850042 
L 472.947518 237.944607 
L 474.93293 251.849521 
L 475.925636 260.75087 
L 476.918342 271.33175 
L 478.903754 295.679413 
L 479.89646 295.333069 
L 480.889166 284.212372 
L 481.881872 271.366489 
L 482.874577 260.469946 
L 483.867283 251.700759 
L 484.859989 244.360731 
L 485.852695 238.114312 
L 486.845401 232.892495 
L 487.838107 228.56651 
L 488.830813 224.770095 
L 489.823519 221.537799 
L 490.816225 218.892266 
L 491.808931 216.706925 
L 492.801637 214.92958 
L 493.794343 213.506166 
L 494.787049 212.581885 
L 495.779754 211.978716 
L 496.77246 211.73275 
L 497.765166 211.831827 
L 498.757872 212.28153 
L 499.750578 213.089365 
L 500.743284 214.231395 
L 501.73599 215.803567 
L 502.728696 217.710925 
L 503.721402 220.046135 
L 505.706814 225.832276 
L 507.692226 233.313733 
L 509.677637 242.063858 
L 511.663049 251.158918 
L 512.655755 254.716353 
L 513.648461 257.344163 
L 514.641167 258.247603 
L 515.633873 257.760359 
L 516.626579 255.957172 
L 517.619285 253.694273 
L 519.604697 248.517062 
L 520.597403 246.207732 
L 522.582814 242.468283 
L 523.57552 241.055432 
L 525.560932 238.896021 
L 527.546344 237.567311 
L 529.531756 236.47561 
L 530.524462 236.197873 
L 531.517168 235.78768 
L 533.50258 235.387244 
L 534.495286 235.233942 
L 536.480697 235.446866 
L 537.473403 235.827336 
L 538.466109 236.579822 
L 539.458815 237.592482 
L 540.451521 238.991267 
L 541.444227 240.861911 
L 542.436933 243.17576 
L 543.429639 246.203306 
L 544.422345 250.076338 
L 545.415051 254.767102 
L 546.407757 260.610718 
L 547.400463 268.108728 
L 548.393168 277.34784 
L 550.37858 297.450247 
L 551.371286 297.244751 
L 552.363992 287.052062 
L 554.349404 264.109508 
L 555.34211 255.121952 
L 556.334816 247.644131 
L 557.327522 241.47515 
L 558.320228 236.113977 
L 559.312934 231.727164 
L 560.30564 228.041932 
L 561.298345 224.898177 
L 562.291051 222.321679 
L 563.283757 220.271919 
L 564.276463 218.49933 
L 565.269169 217.25614 
L 566.261875 216.4221 
L 567.254581 215.851915 
L 568.247287 215.721247 
L 569.239993 215.880998 
L 570.232699 216.4603 
L 571.225405 217.272861 
L 572.218111 218.517632 
L 573.210817 220.083664 
L 574.203523 222.007804 
L 575.196228 224.260207 
L 576.188934 226.844849 
L 577.18164 229.869857 
L 579.167052 237.064517 
L 581.152464 246.240612 
L 583.137876 257.734993 
L 584.130582 264.172056 
L 585.123288 271.797561 
L 587.1087 289.695816 
L 588.101405 300.666148 
L 589.094111 313.93909 
L 590.086817 329.74267 
L 591.079523 349.245723 
L 592.072229 365.110401 
L 593.064935 358.856798 
L 595.050347 330.965398 
L 596.043053 319.782133 
L 597.035759 310.038335 
L 600.013877 288.152816 
L 601.999288 275.877035 
L 603.9847 266.076827 
L 605.970112 258.298267 
L 607.955524 252.298214 
L 608.94823 249.933282 
L 609.940936 247.940577 
L 610.933642 246.26217 
L 611.926348 244.992922 
L 612.919054 244.09248 
L 613.911759 243.580975 
L 614.904465 243.464193 
L 615.897171 243.483866 
L 616.889877 243.898339 
L 617.882583 244.732883 
L 618.875289 245.858005 
L 619.867995 247.288004 
L 620.860701 249.13235 
L 621.853407 251.359434 
L 622.846113 253.948064 
L 623.838819 256.914551 
L 624.831525 260.363802 
L 626.816936 268.516266 
L 627.809642 273.37594 
L 629.795054 285.024169 
L 630.78776 291.791255 
L 632.773172 308.83012 
L 633.765878 319.061948 
L 636.743996 354.220524 
L 637.736702 358.106154 
L 638.729408 355.122884 
L 639.722114 348.241737 
L 640.714819 343.142108 
L 641.707525 336.921084 
L 642.700231 331.884977 
L 643.692937 328.16227 
L 647.663761 315.438469 
L 648.656467 312.737932 
L 650.641879 306.572956 
L 652.627291 301.485756 
L 654.612702 297.646401 
L 655.605408 295.933137 
L 656.598114 294.816827 
L 658.583526 293.522452 
L 659.576232 293.525639 
L 660.568938 293.809716 
L 661.561644 294.330773 
L 663.547056 296.724381 
L 665.532468 299.903169 
L 667.517879 303.883493 
L 669.503291 307.355057 
L 670.495997 308.164382 
L 671.488703 308.63116 
L 672.481409 308.846963 
L 673.474115 308.122209 
L 674.466821 306.835304 
L 675.459527 304.995149 
L 676.452233 303.675047 
L 678.437645 300.216597 
L 680.423056 298.010914 
L 681.415762 297.103838 
L 682.408468 296.647518 
L 683.401174 296.604946 
L 684.39388 296.763648 
L 685.386586 297.166606 
L 686.379292 298.296159 
L 687.371998 299.724758 
L 689.35741 303.563397 
L 691.342822 309.370202 
L 692.335527 313.129811 
L 694.320939 322.181134 
L 696.306351 333.283284 
L 698.291763 345.967938 
L 699.284469 349.20706 
L 700.277175 350.723512 
L 701.269881 348.702561 
L 702.262587 344.786929 
L 704.247999 334.925149 
L 705.240705 330.319393 
L 706.23341 326.368543 
L 707.226116 322.957777 
L 708.218822 320.285772 
L 710.204234 316.644465 
L 711.19694 315.619994 
L 712.189646 315.174427 
L 713.182352 315.23525 
L 714.175058 315.703898 
L 715.167764 316.825576 
L 716.16047 318.399691 
L 717.153176 320.902905 
L 718.145882 324.026833 
L 719.138587 328.023238 
L 720.131293 332.897779 
L 721.123999 339.50312 
L 722.116705 347.112862 
L 723.109411 356.390277 
L 724.102117 366.815492 
L 725.094823 373.73492 
L 726.087529 371.606494 
L 728.072941 349.002587 
L 730.058353 330.998768 
L 731.051059 324.357202 
L 732.043764 318.56778 
L 733.03647 314.115945 
L 734.029176 310.267823 
L 735.021882 307.135008 
L 736.014588 304.426719 
L 737.007294 302.61631 
L 738 301.306915 
L 738.992706 300.448239 
L 739.985412 300.083562 
L 740.978118 300.136823 
L 741.970824 300.746792 
L 742.96353 302.026191 
L 743.956236 303.673417 
L 744.948941 306.026557 
L 745.941647 308.951171 
L 746.934353 312.669915 
L 747.927059 316.978223 
L 748.919765 322.124615 
L 751.897883 340.471265 
L 752.890589 344.622316 
L 753.883295 344.405522 
L 754.876001 340.440113 
L 757.854118 321.328801 
L 758.846824 316.112202 
L 759.83953 311.555973 
L 760.832236 307.750752 
L 761.824942 304.758559 
L 762.817648 302.347359 
L 763.810354 300.403025 
L 764.80306 299.131122 
L 765.795766 298.320416 
L 766.788472 297.847751 
L 768.773884 298.699739 
L 769.76659 299.936974 
L 770.759295 301.467166 
L 771.752001 303.503436 
L 772.744707 305.987655 
L 774.730119 312.256294 
L 778.700943 326.597072 
L 779.693649 328.295861 
L 780.686355 328.707834 
L 781.679061 327.802399 
L 782.671767 325.738016 
L 784.657178 320.02242 
L 785.649884 317.294306 
L 786.64259 314.995903 
L 787.635296 313.050319 
L 788.628002 311.543587 
L 789.620708 310.416855 
L 790.613414 309.979511 
L 791.60612 310.109938 
L 792.598826 310.517279 
L 793.591532 311.672865 
L 794.584238 313.362038 
L 796.56965 318.51458 
L 797.562355 321.805016 
L 801.533179 338.179806 
L 802.525885 340.224455 
L 803.518591 339.660739 
L 804.511297 336.460973 
L 805.504003 332.194521 
L 807.489415 322.622409 
L 809.474827 314.23473 
L 810.467532 310.8254 
L 811.460238 308.025543 
L 812.452944 305.617173 
L 813.44565 303.933674 
L 814.438356 302.617028 
L 815.431062 301.783014 
L 816.423768 301.455247 
L 817.416474 301.586731 
L 818.40918 302.268004 
L 819.401886 303.12831 
L 820.394592 304.693156 
L 821.387298 306.753793 
L 822.380004 309.102733 
L 824.365415 315.758951 
L 826.350827 324.531023 
L 828.336239 334.752041 
L 829.328945 339.276434 
L 830.321651 342.195422 
L 831.314357 342.354605 
L 832.307063 340.078537 
L 833.299769 336.003196 
L 834.292475 331.118885 
L 837.270592 318.706816 
L 838.263298 315.623059 
L 840.24871 310.724435 
L 841.241416 309.068919 
L 842.234122 307.836446 
L 843.226828 307.104855 
L 844.219534 306.734461 
L 845.21224 306.693777 
L 846.204946 307.057362 
L 847.197652 307.904971 
L 848.190358 309.053968 
L 849.183064 310.510774 
L 850.175769 312.31929 
L 852.161181 316.816905 
L 853.153887 319.456146 
L 858.117417 334.524309 
L 859.110123 336.805176 
L 860.102829 338.420901 
L 861.095535 339.193488 
L 862.088241 339.360018 
L 863.080946 338.631881 
L 865.066358 336.259075 
L 867.05177 332.926627 
L 872.0153 326.145378 
L 873.008006 325.350767 
L 874.000712 324.296115 
L 874.993418 323.405642 
L 875.986123 322.276765 
L 876.978829 320.961151 
L 877.971535 320.221202 
L 879.956947 318.142908 
L 882.935065 316.382399 
L 883.927771 315.985489 
L 884.920477 315.952869 
L 886.905889 316.33969 
L 887.898595 317.169921 
L 888.8913 318.294085 
L 889.884006 319.928256 
L 890.876712 321.848956 
L 891.869418 324.01579 
L 893.85483 330.721252 
L 894.847536 335.186201 
L 896.832948 345.891724 
L 897.825654 352.718184 
L 898.81836 358.343557 
L 899.811066 362.365105 
L 900.803772 361.863345 
L 901.796477 357.539969 
L 904.774595 336.981854 
L 906.760007 326.024965 
L 907.752713 321.550495 
L 908.745419 317.915106 
L 909.738125 314.784502 
L 910.730831 312.070139 
L 912.716243 308.618149 
L 913.708949 307.558081 
L 914.701655 306.971939 
L 915.69436 306.754804 
L 916.687066 307.20744 
L 917.679772 307.891235 
L 918.672478 309.115371 
L 919.665184 310.86346 
L 920.65789 313.130986 
L 921.650596 315.977486 
L 922.643302 319.714086 
L 923.636008 324.16281 
L 924.628714 329.805395 
L 925.62142 336.375843 
L 926.614126 345.013759 
L 927.606832 355.53903 
L 928.599537 369.330788 
L 929.592243 386.040642 
L 930.584949 391.89927 
L 931.577655 378.935715 
L 932.570361 363.021351 
L 933.563067 351.047574 
L 934.555773 341.650576 
L 935.548479 334.059771 
L 937.533891 323.435785 
L 938.526597 319.617508 
L 939.519303 316.645008 
L 940.512009 314.56487 
L 941.504714 312.80958 
L 942.49742 311.544834 
L 943.490126 310.881856 
L 944.482832 310.840286 
L 945.475538 311.10335 
L 946.468244 311.796988 
L 947.46095 313.127425 
L 948.453656 315.082781 
L 949.446362 317.444527 
L 950.439068 320.468488 
L 951.431774 324.154218 
L 952.42448 328.461255 
L 953.417186 333.959685 
L 954.409891 340.223835 
L 955.402597 347.597218 
L 958.380715 373.610091 
L 959.373421 375.092656 
L 960.366127 370.668668 
L 962.351539 354.304627 
L 963.344245 347.258643 
L 965.329657 336.381202 
L 966.322363 332.730107 
L 967.315068 329.557954 
L 969.30048 325.435536 
L 970.293186 324.303627 
L 971.285892 323.60263 
L 972.278598 323.466773 
L 973.271304 323.780623 
L 974.26401 324.534672 
L 975.256716 325.52719 
L 977.242128 329.10011 
L 978.234834 331.269825 
L 981.212951 339.389569 
L 982.205657 342.220214 
L 983.198363 344.486084 
L 984.191069 346.213994 
L 985.183775 347.217538 
L 986.176481 347.210288 
L 987.169187 346.383061 
L 988.161893 345.009967 
L 989.154599 343.13338 
L 992.132717 338.347352 
L 994.118128 336.637694 
L 995.110834 336.175927 
L 996.10354 336.222887 
L 997.096246 336.571029 
L 999.081658 338.798874 
L 1000.074364 340.484974 
L 1002.059776 344.809555 
L 1004.045188 350.394089 
L 1005.037894 352.999012 
L 1006.0306 355.037764 
L 1007.023305 355.696557 
L 1008.016011 355.877819 
L 1009.008717 354.357182 
L 1010.001423 352.042806 
L 1013.972247 340.429933 
L 1015.957659 335.815865 
L 1016.950365 333.932535 
L 1017.943071 332.58577 
L 1018.935777 331.566273 
L 1019.928482 331.152959 
L 1020.921188 330.989398 
L 1021.913894 331.152669 
L 1022.9066 331.797776 
L 1023.899306 333.11353 
L 1025.884718 336.88353 
L 1026.877424 339.661413 
L 1027.87013 342.776809 
L 1028.862836 346.736201 
L 1029.855542 351.322456 
L 1031.840954 362.080854 
L 1032.833659 368.073084 
L 1033.826365 372.465866 
L 1034.819071 375.603744 
L 1035.811777 376.131979 
L 1036.804483 372.382613 
L 1037.797189 367.79653 
L 1038.789895 362.352123 
L 1040.775307 352.591054 
L 1042.760719 345.075352 
L 1043.753425 342.507586 
L 1045.738837 338.357085 
L 1046.731542 337.097672 
L 1047.724248 336.081994 
L 1048.716954 335.778697 
L 1049.70966 335.709689 
L 1051.695072 336.768504 
L 1052.687778 337.772034 
L 1053.680484 339.119868 
L 1055.665896 342.935357 
L 1056.658602 345.076907 
L 1058.644014 350.420634 
L 1060.629425 356.110236 
L 1063.607543 364.874607 
L 1064.600249 366.587614 
L 1065.592955 367.289626 
L 1066.585661 368.585993 
L 1068.571073 368.227331 
L 1069.563779 367.658597 
L 1070.556485 366.694637 
L 1071.549191 365.900597 
L 1073.534602 363.559447 
L 1077.505426 358.275648 
L 1078.498132 356.22562 
L 1083.461662 348.08293 
L 1084.454368 346.157102 
L 1086.439779 343.418974 
L 1088.425191 341.876027 
L 1089.417897 341.669054 
L 1090.410603 341.684589 
L 1091.403309 341.98162 
L 1092.396015 342.601791 
L 1093.388721 343.708899 
L 1094.381427 345.16013 
L 1095.374133 347.484572 
L 1096.366839 350.471585 
L 1097.359545 354.079398 
L 1098.35225 358.578671 
L 1099.344956 363.884902 
L 1100.337662 371.361664 
L 1101.330368 381.349098 
L 1102.323074 393.992293 
L 1103.31578 414.018079 
L 1104.308486 451.622768 
L 1105.301192 452.207843 
L 1106.293898 412.718043 
L 1107.286604 391.964053 
L 1108.27931 377.774921 
L 1109.272016 367.519516 
L 1110.264722 359.866189 
L 1111.257428 353.580041 
L 1112.250133 348.169531 
L 1113.242839 344.049994 
L 1114.235545 340.508183 
L 1115.228251 337.752598 
L 1117.213663 334.069053 
L 1118.206369 332.954846 
L 1119.199075 332.237305 
L 1120.191781 332.143352 
L 1121.184487 332.340904 
L 1122.177193 333.193358 
L 1124.162605 335.98861 
L 1126.148016 341.651499 
L 1127.140722 345.126717 
L 1129.126134 354.695046 
L 1130.11884 361.148907 
L 1131.111546 368.46149 
L 1133.096958 385.414098 
L 1134.089664 390.736657 
L 1135.08237 390.885471 
L 1139.053193 359.160044 
L 1141.038605 348.685697 
L 1142.031311 344.697224 
L 1143.024017 341.50265 
L 1144.016723 338.799676 
L 1145.009429 336.971892 
L 1146.002135 335.671111 
L 1146.994841 334.597541 
L 1147.987547 334.177283 
L 1148.980253 333.996289 
L 1149.972959 334.467851 
L 1150.965664 335.446951 
L 1151.95837 336.734463 
L 1152.951076 338.602711 
L 1153.943782 341.26004 
L 1154.936488 344.244413 
L 1155.929194 347.599004 
L 1157.914606 356.494513 
L 1159.900018 368.574907 
L 1161.88543 384.854788 
L 1162.878136 391.362005 
L 1163.870841 396.082557 
L 1164.863547 393.269191 
L 1165.856253 385.973812 
L 1166.848959 380.204517 
L 1167.841665 373.488636 
L 1168.834371 368.025552 
L 1169.827077 363.211644 
L 1170.819783 359.554277 
L 1171.812489 356.465182 
L 1172.805195 353.932342 
L 1173.797901 352.44208 
L 1174.790607 351.312567 
L 1175.783313 350.829415 
L 1176.776019 350.892006 
L 1177.768724 351.167844 
L 1179.754136 353.676074 
L 1180.746842 355.572876 
L 1182.732254 360.716943 
L 1183.72496 364.401776 
L 1184.717666 368.786521 
L 1186.703078 379.915444 
L 1187.695784 387.487437 
L 1189.681196 408.660271 
L 1190.673901 425.131929 
L 1191.666607 447.542555 
L 1192.659313 492.48 
L 1193.652019 469.195753 
L 1194.644725 442.443602 
L 1195.637431 425.589302 
L 1196.630137 414.438667 
L 1197.622843 407.367595 
L 1198.615549 402.254049 
L 1199.608255 397.926882 
L 1200.600961 396.161956 
L 1201.593667 394.059484 
L 1202.586373 393.138026 
L 1204.571784 393.069662 
L 1205.56449 394.163257 
L 1206.557196 395.481908 
L 1207.549902 397.1218 
L 1208.542608 397.182411 
L 1209.535314 399.163397 
L 1210.52802 399.972038 
L 1211.520726 399.99864 
L 1212.513432 398.297855 
L 1213.506138 397.527492 
L 1214.498844 396.073576 
L 1215.49155 393.734457 
L 1216.484255 392.553378 
L 1217.476961 391.57858 
L 1218.469667 389.288994 
L 1219.462373 389.184285 
L 1220.455079 389.651286 
L 1221.447785 389.201423 
L 1222.440491 389.218432 
L 1223.433197 391.194196 
L 1225.418609 396.909561 
L 1226.411315 400.27069 
L 1228.396727 412.970565 
L 1230.382138 431.366062 
L 1232.36755 458.815447 
L 1233.360256 453.049321 
L 1235.345668 423.839687 
L 1236.338374 412.402425 
L 1237.33108 404.125311 
L 1239.316492 390.860718 
L 1241.301904 383.539309 
L 1242.29461 381.191846 
L 1243.287315 380.18091 
L 1244.280021 377.855743 
L 1245.272727 376.647138 
L 1245.272727 376.647138 
" clip-path="url(#pb836494b11)" style="fill: none; stroke: #1f77b4; stroke-width: 1.5; stroke-linecap: square"/>
   </g>
   <g id="patch_3">
    <path d="M 180 512.64 
L 180 69.12 
" style="fill: none; stroke: #000000; stroke-width: 0.8; stroke-linejoin: miter; stroke-linecap: square"/>
   </g>
   <g id="patch_4">
    <path d="M 1296 512.64 
L 1296 69.12 
" style="fill: none; stroke: #000000; stroke-width: 0.8; stroke-linejoin: miter; stroke-linecap: square"/>
   </g>
   <g id="patch_5">
    <path d="M 180 512.64 
L 1296 512.64 
" style="fill: none; stroke: #000000; stroke-width: 0.8; stroke-linejoin: miter; stroke-linecap: square"/>
   </g>
   <g id="patch_6">
    <path d="M 180 69.12 
L 1296 69.12 
" style="fill: none; stroke: #000000; stroke-width: 0.8; stroke-linejoin: miter; stroke-linecap: square"/>
   </g>
   <g id="text_12">
    <!-- source10-receiver10 -->
    <g transform="translate(532.175 60.80125) scale(0.4 -0.4)">
     <defs>
      <path id="DejaVuSans-73" d="M 2834 3397 
L 2834 2853 
Q 2591 2978 2328 3040 
Q 2066 3103 1784 3103 
Q 1356 3103 1142 2972 
Q 928 2841 928 2578 
Q 928 2378 1081 2264 
Q 1234 2150 1697 2047 
L 1894 2003 
Q 2506 1872 2764 1633 
Q 3022 1394 3022 966 
Q 3022 478 2636 193 
Q 2250 -91 1575 -91 
Q 1294 -91 989 -36 
Q 684 19 347 128 
L 347 722 
Q 666 556 975 473 
Q 1284 391 1588 391 
Q 1994 391 2212 530 
Q 2431 669 2431 922 
Q 2431 1156 2273 1281 
Q 2116 1406 1581 1522 
L 1381 1569 
Q 847 1681 609 1914 
Q 372 2147 372 2553 
Q 372 3047 722 3315 
Q 1072 3584 1716 3584 
Q 2034 3584 2315 3537 
Q 2597 3491 2834 3397 
z
" transform="scale(0.015625)"/>
      <path id="DejaVuSans-6f" d="M 1959 3097 
Q 1497 3097 1228 2736 
Q 959 2375 959 1747 
Q 959 1119 1226 758 
Q 1494 397 1959 397 
Q 2419 397 2687 759 
Q 2956 1122 2956 1747 
Q 2956 2369 2687 2733 
Q 2419 3097 1959 3097 
z
M 1959 3584 
Q 2709 3584 3137 3096 
Q 3566 2609 3566 1747 
Q 3566 888 3137 398 
Q 2709 -91 1959 -91 
Q 1206 -91 779 398 
Q 353 888 353 1747 
Q 353 2609 779 3096 
Q 1206 3584 1959 3584 
z
" transform="scale(0.015625)"/>
      <path id="DejaVuSans-75" d="M 544 1381 
L 544 3500 
L 1119 3500 
L 1119 1403 
Q 1119 906 1312 657 
Q 1506 409 1894 409 
Q 2359 409 2629 706 
Q 2900 1003 2900 1516 
L 2900 3500 
L 3475 3500 
L 3475 0 
L 2900 0 
L 2900 538 
Q 2691 219 2414 64 
Q 2138 -91 1772 -91 
Q 1169 -91 856 284 
Q 544 659 544 1381 
z
M 1991 3584 
L 1991 3584 
z
" transform="scale(0.015625)"/>
      <path id="DejaVuSans-72" d="M 2631 2963 
Q 2534 3019 2420 3045 
Q 2306 3072 2169 3072 
Q 1681 3072 1420 2755 
Q 1159 2438 1159 1844 
L 1159 0 
L 581 0 
L 581 3500 
L 1159 3500 
L 1159 2956 
Q 1341 3275 1631 3429 
Q 1922 3584 2338 3584 
Q 2397 3584 2469 3576 
Q 2541 3569 2628 3553 
L 2631 2963 
z
" transform="scale(0.015625)"/>
      <path id="DejaVuSans-63" d="M 3122 3366 
L 3122 2828 
Q 2878 2963 2633 3030 
Q 2388 3097 2138 3097 
Q 1578 3097 1268 2742 
Q 959 2388 959 1747 
Q 959 1106 1268 751 
Q 1578 397 2138 397 
Q 2388 397 2633 464 
Q 2878 531 3122 666 
L 3122 134 
Q 2881 22 2623 -34 
Q 2366 -91 2075 -91 
Q 1284 -91 818 406 
Q 353 903 353 1747 
Q 353 2603 823 3093 
Q 1294 3584 2113 3584 
Q 2378 3584 2631 3529 
Q 2884 3475 3122 3366 
z
" transform="scale(0.015625)"/>
      <path id="DejaVuSans-65" d="M 3597 1894 
L 3597 1613 
L 953 1613 
Q 991 1019 1311 708 
Q 1631 397 2203 397 
Q 2534 397 2845 478 
Q 3156 559 3463 722 
L 3463 178 
Q 3153 47 2828 -22 
Q 2503 -91 2169 -91 
Q 1331 -91 842 396 
Q 353 884 353 1716 
Q 353 2575 817 3079 
Q 1281 3584 2069 3584 
Q 2775 3584 3186 3129 
Q 3597 2675 3597 1894 
z
M 3022 2063 
Q 3016 2534 2758 2815 
Q 2500 3097 2075 3097 
Q 1594 3097 1305 2825 
Q 1016 2553 972 2059 
L 3022 2063 
z
" transform="scale(0.015625)"/>
      <path id="DejaVuSans-2d" d="M 313 2009 
L 1997 2009 
L 1997 1497 
L 313 1497 
L 313 2009 
z
" transform="scale(0.015625)"/>
      <path id="DejaVuSans-69" d="M 603 3500 
L 1178 3500 
L 1178 0 
L 603 0 
L 603 3500 
z
M 603 4863 
L 1178 4863 
L 1178 4134 
L 603 4134 
L 603 4863 
z
" transform="scale(0.015625)"/>
      <path id="DejaVuSans-76" d="M 191 3500 
L 800 3500 
L 1894 563 
L 2988 3500 
L 3597 3500 
L 2284 0 
L 1503 0 
L 191 3500 
z
" transform="scale(0.015625)"/>
     </defs>
     <use xlink:href="#DejaVuSans-73"/>
     <use xlink:href="#DejaVuSans-6f" x="52.099609"/>
     <use xlink:href="#DejaVuSans-75" x="113.28125"/>
     <use xlink:href="#DejaVuSans-72" x="176.660156"/>
     <use xlink:href="#DejaVuSans-63" x="215.523438"/>
     <use xlink:href="#DejaVuSans-65" x="270.503906"/>
     <use xlink:href="#DejaVuSans-31" x="332.027344"/>
     <use xlink:href="#DejaVuSans-30" x="395.650391"/>
     <use xlink:href="#DejaVuSans-2d" x="459.273438"/>
     <use xlink:href="#DejaVuSans-72" x="495.357422"/>
     <use xlink:href="#DejaVuSans-65" x="534.220703"/>
     <use xlink:href="#DejaVuSans-63" x="595.744141"/>
     <use xlink:href="#DejaVuSans-65" x="650.724609"/>
     <use xlink:href="#DejaVuSans-69" x="712.248047"/>
     <use xlink:href="#DejaVuSans-76" x="740.03125"/>
     <use xlink:href="#DejaVuSans-65" x="799.210938"/>
     <use xlink:href="#DejaVuSans-72" x="860.734375"/>
     <use xlink:href="#DejaVuSans-31" x="901.847656"/>
     <use xlink:href="#DejaVuSans-30" x="965.470703"/>
    </g>
   </g>
  </g>
 </g>
 <defs>
  <clipPath id="pb836494b11">
   <rect x="180" y="69.12" width="1116" height="443.52"/>
  </clipPath>
 </defs>
</svg>
