<?xml version="1.0" encoding="utf-8" standalone="no"?>
<!DOCTYPE svg PUBLIC "-//W3C//DTD SVG 1.1//EN"
  "http://www.w3.org/Graphics/SVG/1.1/DTD/svg11.dtd">
<svg xmlns:xlink="http://www.w3.org/1999/xlink" width="1440pt" height="576pt" viewBox="0 0 1440 576" xmlns="http://www.w3.org/2000/svg" version="1.1">
 <metadata>
  <rdf:RDF xmlns:dc="http://purl.org/dc/elements/1.1/" xmlns:cc="http://creativecommons.org/ns#" xmlns:rdf="http://www.w3.org/1999/02/22-rdf-syntax-ns#">
   <cc:Work>
    <dc:type rdf:resource="http://purl.org/dc/dcmitype/StillImage"/>
    <dc:date>2024-05-22T04:49:58.475316</dc:date>
    <dc:format>image/svg+xml</dc:format>
    <dc:creator>
     <cc:Agent>
      <dc:title>Matplotlib v3.8.3, https://matplotlib.org/</dc:title>
     </cc:Agent>
    </dc:creator>
   </cc:Work>
  </rdf:RDF>
 </metadata>
 <defs>
  <style type="text/css">*{stroke-linejoin: round; stroke-linecap: butt}</style>
 </defs>
 <g id="figure_1">
  <g id="patch_1">
   <path d="M 0 576 
L 1440 576 
L 1440 0 
L 0 0 
z
" style="fill: #ffffff"/>
  </g>
  <g id="axes_1">
   <g id="patch_2">
    <path d="M 180 512.64 
L 1296 512.64 
L 1296 69.12 
L 180 69.12 
z
" style="fill: #ffffff"/>
   </g>
   <g id="matplotlib.axis_1">
    <g id="xtick_1">
     <g id="line2d_1">
      <defs>
       <path id="m8f4d565ad3" d="M 0 0 
L 0 3.5 
" style="stroke: #000000; stroke-width: 0.8"/>
      </defs>
      <g>
       <use xlink:href="#m8f4d565ad3" x="229.734567" y="512.64" style="stroke: #000000; stroke-width: 0.8"/>
      </g>
     </g>
     <g id="text_1">
      <!-- 0 -->
      <g transform="translate(226.553317 527.238438) scale(0.1 -0.1)">
       <defs>
        <path id="DejaVuSans-30" d="M 2034 4250 
Q 1547 4250 1301 3770 
Q 1056 3291 1056 2328 
Q 1056 1369 1301 889 
Q 1547 409 2034 409 
Q 2525 409 2770 889 
Q 3016 1369 3016 2328 
Q 3016 3291 2770 3770 
Q 2525 4250 2034 4250 
z
M 2034 4750 
Q 2819 4750 3233 4129 
Q 3647 3509 3647 2328 
Q 3647 1150 3233 529 
Q 2819 -91 2034 -91 
Q 1250 -91 836 529 
Q 422 1150 422 2328 
Q 422 3509 836 4129 
Q 1250 4750 2034 4750 
z
" transform="scale(0.015625)"/>
       </defs>
       <use xlink:href="#DejaVuSans-30"/>
      </g>
     </g>
    </g>
    <g id="xtick_2">
     <g id="line2d_2">
      <g>
       <use xlink:href="#m8f4d565ad3" x="433.04074" y="512.64" style="stroke: #000000; stroke-width: 0.8"/>
      </g>
     </g>
     <g id="text_2">
      <!-- 500 -->
      <g transform="translate(423.49699 527.238438) scale(0.1 -0.1)">
       <defs>
        <path id="DejaVuSans-35" d="M 691 4666 
L 3169 4666 
L 3169 4134 
L 1269 4134 
L 1269 2991 
Q 1406 3038 1543 3061 
Q 1681 3084 1819 3084 
Q 2600 3084 3056 2656 
Q 3513 2228 3513 1497 
Q 3513 744 3044 326 
Q 2575 -91 1722 -91 
Q 1428 -91 1123 -41 
Q 819 9 494 109 
L 494 744 
Q 775 591 1075 516 
Q 1375 441 1709 441 
Q 2250 441 2565 725 
Q 2881 1009 2881 1497 
Q 2881 1984 2565 2268 
Q 2250 2553 1709 2553 
Q 1456 2553 1204 2497 
Q 953 2441 691 2322 
L 691 4666 
z
" transform="scale(0.015625)"/>
       </defs>
       <use xlink:href="#DejaVuSans-35"/>
       <use xlink:href="#DejaVuSans-30" x="63.623047"/>
       <use xlink:href="#DejaVuSans-30" x="127.246094"/>
      </g>
     </g>
    </g>
    <g id="xtick_3">
     <g id="line2d_3">
      <g>
       <use xlink:href="#m8f4d565ad3" x="636.346913" y="512.64" style="stroke: #000000; stroke-width: 0.8"/>
      </g>
     </g>
     <g id="text_3">
      <!-- 1000 -->
      <g transform="translate(623.621913 527.238438) scale(0.1 -0.1)">
       <defs>
        <path id="DejaVuSans-31" d="M 794 531 
L 1825 531 
L 1825 4091 
L 703 3866 
L 703 4441 
L 1819 4666 
L 2450 4666 
L 2450 531 
L 3481 531 
L 3481 0 
L 794 0 
L 794 531 
z
" transform="scale(0.015625)"/>
       </defs>
       <use xlink:href="#DejaVuSans-31"/>
       <use xlink:href="#DejaVuSans-30" x="63.623047"/>
       <use xlink:href="#DejaVuSans-30" x="127.246094"/>
       <use xlink:href="#DejaVuSans-30" x="190.869141"/>
      </g>
     </g>
    </g>
    <g id="xtick_4">
     <g id="line2d_4">
      <g>
       <use xlink:href="#m8f4d565ad3" x="839.653087" y="512.64" style="stroke: #000000; stroke-width: 0.8"/>
      </g>
     </g>
     <g id="text_4">
      <!-- 1500 -->
      <g transform="translate(826.928087 527.238438) scale(0.1 -0.1)">
       <use xlink:href="#DejaVuSans-31"/>
       <use xlink:href="#DejaVuSans-35" x="63.623047"/>
       <use xlink:href="#DejaVuSans-30" x="127.246094"/>
       <use xlink:href="#DejaVuSans-30" x="190.869141"/>
      </g>
     </g>
    </g>
    <g id="xtick_5">
     <g id="line2d_5">
      <g>
       <use xlink:href="#m8f4d565ad3" x="1042.95926" y="512.64" style="stroke: #000000; stroke-width: 0.8"/>
      </g>
     </g>
     <g id="text_5">
      <!-- 2000 -->
      <g transform="translate(1030.23426 527.238438) scale(0.1 -0.1)">
       <defs>
        <path id="DejaVuSans-32" d="M 1228 531 
L 3431 531 
L 3431 0 
L 469 0 
L 469 531 
Q 828 903 1448 1529 
Q 2069 2156 2228 2338 
Q 2531 2678 2651 2914 
Q 2772 3150 2772 3378 
Q 2772 3750 2511 3984 
Q 2250 4219 1831 4219 
Q 1534 4219 1204 4116 
Q 875 4013 500 3803 
L 500 4441 
Q 881 4594 1212 4672 
Q 1544 4750 1819 4750 
Q 2544 4750 2975 4387 
Q 3406 4025 3406 3419 
Q 3406 3131 3298 2873 
Q 3191 2616 2906 2266 
Q 2828 2175 2409 1742 
Q 1991 1309 1228 531 
z
" transform="scale(0.015625)"/>
       </defs>
       <use xlink:href="#DejaVuSans-32"/>
       <use xlink:href="#DejaVuSans-30" x="63.623047"/>
       <use xlink:href="#DejaVuSans-30" x="127.246094"/>
       <use xlink:href="#DejaVuSans-30" x="190.869141"/>
      </g>
     </g>
    </g>
    <g id="xtick_6">
     <g id="line2d_6">
      <g>
       <use xlink:href="#m8f4d565ad3" x="1246.265433" y="512.64" style="stroke: #000000; stroke-width: 0.8"/>
      </g>
     </g>
     <g id="text_6">
      <!-- 2500 -->
      <g transform="translate(1233.540433 527.238438) scale(0.1 -0.1)">
       <use xlink:href="#DejaVuSans-32"/>
       <use xlink:href="#DejaVuSans-35" x="63.623047"/>
       <use xlink:href="#DejaVuSans-30" x="127.246094"/>
       <use xlink:href="#DejaVuSans-30" x="190.869141"/>
      </g>
     </g>
    </g>
   </g>
   <g id="matplotlib.axis_2">
    <g id="ytick_1">
     <g id="line2d_7">
      <defs>
       <path id="mcef3874657" d="M 0 0 
L -3.5 0 
" style="stroke: #000000; stroke-width: 0.8"/>
      </defs>
      <g>
       <use xlink:href="#mcef3874657" x="180" y="478.165701" style="stroke: #000000; stroke-width: 0.8"/>
      </g>
     </g>
     <g id="text_7">
      <!-- −6 -->
      <g transform="translate(158.257812 481.96492) scale(0.1 -0.1)">
       <defs>
        <path id="DejaVuSans-2212" d="M 678 2272 
L 4684 2272 
L 4684 1741 
L 678 1741 
L 678 2272 
z
" transform="scale(0.015625)"/>
        <path id="DejaVuSans-36" d="M 2113 2584 
Q 1688 2584 1439 2293 
Q 1191 2003 1191 1497 
Q 1191 994 1439 701 
Q 1688 409 2113 409 
Q 2538 409 2786 701 
Q 3034 994 3034 1497 
Q 3034 2003 2786 2293 
Q 2538 2584 2113 2584 
z
M 3366 4563 
L 3366 3988 
Q 3128 4100 2886 4159 
Q 2644 4219 2406 4219 
Q 1781 4219 1451 3797 
Q 1122 3375 1075 2522 
Q 1259 2794 1537 2939 
Q 1816 3084 2150 3084 
Q 2853 3084 3261 2657 
Q 3669 2231 3669 1497 
Q 3669 778 3244 343 
Q 2819 -91 2113 -91 
Q 1303 -91 875 529 
Q 447 1150 447 2328 
Q 447 3434 972 4092 
Q 1497 4750 2381 4750 
Q 2619 4750 2861 4703 
Q 3103 4656 3366 4563 
z
" transform="scale(0.015625)"/>
       </defs>
       <use xlink:href="#DejaVuSans-2212"/>
       <use xlink:href="#DejaVuSans-36" x="83.789062"/>
      </g>
     </g>
    </g>
    <g id="ytick_2">
     <g id="line2d_8">
      <g>
       <use xlink:href="#mcef3874657" x="180" y="410.285838" style="stroke: #000000; stroke-width: 0.8"/>
      </g>
     </g>
     <g id="text_8">
      <!-- −4 -->
      <g transform="translate(158.257812 414.085057) scale(0.1 -0.1)">
       <defs>
        <path id="DejaVuSans-34" d="M 2419 4116 
L 825 1625 
L 2419 1625 
L 2419 4116 
z
M 2253 4666 
L 3047 4666 
L 3047 1625 
L 3713 1625 
L 3713 1100 
L 3047 1100 
L 3047 0 
L 2419 0 
L 2419 1100 
L 313 1100 
L 313 1709 
L 2253 4666 
z
" transform="scale(0.015625)"/>
       </defs>
       <use xlink:href="#DejaVuSans-2212"/>
       <use xlink:href="#DejaVuSans-34" x="83.789062"/>
      </g>
     </g>
    </g>
    <g id="ytick_3">
     <g id="line2d_9">
      <g>
       <use xlink:href="#mcef3874657" x="180" y="342.405975" style="stroke: #000000; stroke-width: 0.8"/>
      </g>
     </g>
     <g id="text_9">
      <!-- −2 -->
      <g transform="translate(158.257812 346.205194) scale(0.1 -0.1)">
       <use xlink:href="#DejaVuSans-2212"/>
       <use xlink:href="#DejaVuSans-32" x="83.789062"/>
      </g>
     </g>
    </g>
    <g id="ytick_4">
     <g id="line2d_10">
      <g>
       <use xlink:href="#mcef3874657" x="180" y="274.526112" style="stroke: #000000; stroke-width: 0.8"/>
      </g>
     </g>
     <g id="text_10">
      <!-- 0 -->
      <g transform="translate(166.6375 278.325331) scale(0.1 -0.1)">
       <use xlink:href="#DejaVuSans-30"/>
      </g>
     </g>
    </g>
    <g id="ytick_5">
     <g id="line2d_11">
      <g>
       <use xlink:href="#mcef3874657" x="180" y="206.646249" style="stroke: #000000; stroke-width: 0.8"/>
      </g>
     </g>
     <g id="text_11">
      <!-- 2 -->
      <g transform="translate(166.6375 210.445468) scale(0.1 -0.1)">
       <use xlink:href="#DejaVuSans-32"/>
      </g>
     </g>
    </g>
    <g id="ytick_6">
     <g id="line2d_12">
      <g>
       <use xlink:href="#mcef3874657" x="180" y="138.766386" style="stroke: #000000; stroke-width: 0.8"/>
      </g>
     </g>
     <g id="text_12">
      <!-- 4 -->
      <g transform="translate(166.6375 142.565605) scale(0.1 -0.1)">
       <use xlink:href="#DejaVuSans-34"/>
      </g>
     </g>
    </g>
    <g id="ytick_7">
     <g id="line2d_13">
      <g>
       <use xlink:href="#mcef3874657" x="180" y="70.886523" style="stroke: #000000; stroke-width: 0.8"/>
      </g>
     </g>
     <g id="text_13">
      <!-- 6 -->
      <g transform="translate(166.6375 74.685742) scale(0.1 -0.1)">
       <use xlink:href="#DejaVuSans-36"/>
      </g>
     </g>
    </g>
   </g>
   <g id="line2d_14">
    <path d="M 230.727273 278.246767 
L 231.719979 285.909561 
L 232.712685 299.824322 
L 233.70539 276.986139 
L 234.698096 297.046511 
L 235.690802 286.162538 
L 236.683508 281.684463 
L 237.676214 293.403615 
L 238.66892 281.419313 
L 239.661626 287.83959 
L 240.654332 278.764386 
L 241.647038 285.404939 
L 242.639744 278.308097 
L 243.63245 270.007333 
L 244.625156 289.251099 
L 245.617862 262.444648 
L 246.610568 271.569827 
L 247.603273 274.340774 
L 248.595979 257.788432 
L 249.588685 235.720934 
L 252.566803 183.314339 
L 253.559509 180.537726 
L 254.552215 187.223869 
L 255.544921 175.564839 
L 256.537627 172.149521 
L 257.530333 182.905044 
L 258.523039 213.89816 
L 259.515745 253.313228 
L 260.50845 214.082685 
L 261.501156 183.158895 
L 262.493862 190.263885 
L 263.486568 194.562001 
L 264.479274 158.106115 
L 265.47198 164.256875 
L 266.464686 180.508169 
L 267.457392 156.603541 
L 268.450098 154.665771 
L 269.442804 155.923062 
L 270.43551 153.273934 
L 271.428216 166.23256 
L 272.420922 159.590615 
L 273.413627 142.249084 
L 274.406333 140.020759 
L 275.399039 141.128703 
L 276.391745 139.773992 
L 277.384451 136.729295 
L 278.377157 132.8755 
L 279.369863 134.623927 
L 280.362569 127.149619 
L 281.355275 118.008735 
L 282.347981 128.304339 
L 283.340687 107.111963 
L 284.333393 89.650564 
L 285.326099 89.28 
L 286.318804 90.38198 
L 287.31151 89.287147 
L 288.304216 102.42331 
L 289.296922 132.961625 
L 290.289628 141.775571 
L 291.282334 143.390834 
L 292.27504 136.495075 
L 293.267746 142.594207 
L 294.260452 151.844946 
L 295.253158 163.267147 
L 296.245864 156.806299 
L 298.231276 177.667477 
L 299.223981 181.055458 
L 300.216687 171.0006 
L 301.209393 182.148246 
L 302.202099 186.691523 
L 303.194805 187.827061 
L 304.187511 182.045017 
L 305.180217 182.971509 
L 306.172923 191.115594 
L 307.165629 204.155547 
L 308.158335 203.527237 
L 309.151041 200.439297 
L 310.143747 223.677988 
L 311.136453 218.915331 
L 312.129159 243.153777 
L 313.121864 243.413577 
L 314.11457 337.222968 
L 315.107276 267.995351 
L 316.099982 265.312065 
L 317.092688 249.585292 
L 318.085394 287.507215 
L 319.0781 260.31387 
L 320.070806 321.689554 
L 321.063512 273.774502 
L 322.056218 312.137163 
L 323.048924 272.842134 
L 324.04163 313.871996 
L 325.034336 285.245333 
L 326.027041 276.231294 
L 327.019747 330.901881 
L 328.012453 268.360382 
L 329.005159 279.604793 
L 329.997865 279.838258 
L 330.990571 271.800133 
L 331.983277 339.181872 
L 332.975983 288.850259 
L 333.968689 287.839005 
L 334.961395 323.917699 
L 335.954101 281.031474 
L 336.946807 307.23498 
L 337.939513 278.915366 
L 338.932218 290.04972 
L 339.924924 292.192484 
L 340.91763 275.795106 
L 341.910336 356.144642 
L 342.903042 287.698869 
L 343.895748 298.452955 
L 344.888454 297.698841 
L 345.88116 274.429834 
L 346.873866 330.946502 
L 347.866572 271.339318 
L 348.859278 300.286263 
L 349.851984 282.681634 
L 350.84469 295.41082 
L 351.837395 299.30921 
L 352.830101 300.527541 
L 353.822807 311.917783 
L 354.815513 288.977272 
L 355.808219 311.941466 
L 356.800925 304.491894 
L 357.793631 277.083502 
L 358.786337 315.825066 
L 359.779043 271.382426 
L 360.771749 274.26102 
L 361.764455 273.780286 
L 362.757161 258.795248 
L 363.749867 273.633671 
L 364.742572 258.849137 
L 365.735278 257.487183 
L 366.727984 266.802153 
L 367.72069 254.026339 
L 368.713396 266.828306 
L 369.706102 266.650583 
L 370.698808 262.111421 
L 371.691514 291.897282 
L 372.68422 279.682912 
L 373.676926 298.613362 
L 374.669632 307.374615 
L 375.662338 321.291156 
L 376.655044 263.416855 
L 378.640455 249.107213 
L 379.633161 234.636486 
L 380.625867 233.488397 
L 381.618573 224.982655 
L 382.611279 219.055177 
L 383.603985 218.034098 
L 384.596691 211.137792 
L 385.589397 209.606093 
L 386.582103 207.427265 
L 387.574809 203.433999 
L 388.567515 203.932831 
L 389.560221 201.077396 
L 390.552927 199.86799 
L 391.545632 200.773789 
L 392.538338 198.452276 
L 393.531044 199.813045 
L 394.52375 200.111746 
L 395.516456 199.384209 
L 396.509162 202.135077 
L 397.501868 202.208243 
L 398.494574 203.800223 
L 399.48728 207.41807 
L 400.479986 207.571838 
L 401.472692 212.348451 
L 402.465398 215.771468 
L 403.458104 217.387193 
L 404.450809 225.320478 
L 405.443515 226.781415 
L 406.436221 232.836602 
L 407.428927 241.219312 
L 408.421633 241.653835 
L 409.414339 255.528836 
L 411.399751 265.267417 
L 412.392457 293.064395 
L 413.385163 283.164219 
L 414.377869 309.986438 
L 415.370575 314.537501 
L 416.363281 312.092636 
L 417.355986 328.905325 
L 418.348692 302.018277 
L 419.341398 360.214261 
L 420.334104 307.545484 
L 421.32681 303.550337 
L 422.319516 413.718725 
L 423.312222 303.46337 
L 424.304928 302.349828 
L 425.297634 335.214324 
L 426.29034 290.80526 
L 428.275752 306.99694 
L 429.268458 284.55937 
L 430.261163 306.280856 
L 431.253869 293.596445 
L 432.246575 287.478173 
L 433.239281 315.121414 
L 434.231987 287.532698 
L 435.224693 303.900988 
L 436.217399 308.614623 
L 437.210105 297.329956 
L 438.202811 349.745983 
L 439.195517 305.900501 
L 440.188223 316.963 
L 441.180929 330.433131 
L 442.173635 312.068312 
L 443.166341 385.874398 
L 444.159046 308.014391 
L 445.151752 360.417526 
L 446.144458 314.813927 
L 447.137164 315.362316 
L 448.12987 327.66104 
L 449.122576 297.109101 
L 450.115282 332.326146 
L 451.107988 304.831705 
L 452.100694 306.808395 
L 453.0934 330.021354 
L 454.086106 298.13395 
L 455.078812 316.593699 
L 456.071518 308.70157 
L 457.064223 297.130659 
L 458.056929 328.764983 
L 459.049635 293.867245 
L 460.042341 308.812484 
L 461.035047 306.548042 
L 462.027753 297.465838 
L 463.020459 334.187822 
L 464.013165 296.472509 
L 465.005871 313.865525 
L 465.998577 306.977191 
L 466.991283 295.157145 
L 467.983989 324.688628 
L 468.976695 287.150476 
L 469.9694 302.779986 
L 471.954812 279.411143 
L 472.947518 295.221028 
L 473.940224 277.407567 
L 474.93293 282.023232 
L 475.925636 280.596488 
L 476.918342 271.273057 
L 477.911048 282.403369 
L 478.903754 271.929795 
L 479.89646 272.655306 
L 480.889166 281.839747 
L 481.881872 271.160907 
L 482.874577 281.356909 
L 483.867283 279.193497 
L 484.859989 276.701506 
L 485.852695 292.5054 
L 486.845401 281.622898 
L 487.838107 285.973942 
L 488.830813 301.867755 
L 489.823519 287.405268 
L 490.816225 300.185732 
L 491.808931 304.66817 
L 492.801637 286.568521 
L 493.794343 299.946575 
L 494.787049 288.146002 
L 495.779754 280.852658 
L 496.77246 291.665896 
L 497.765166 275.669694 
L 498.757872 277.329933 
L 499.750578 274.652079 
L 500.743284 265.23764 
L 501.73599 270.385275 
L 502.728696 261.34353 
L 503.721402 259.464013 
L 504.714108 260.426932 
L 505.706814 252.882727 
L 506.69952 255.485371 
L 507.692226 253.071074 
L 508.684932 248.909068 
L 509.677637 253.178414 
L 510.670343 247.874972 
L 511.663049 250.184968 
L 512.655755 251.827278 
L 513.648461 249.226015 
L 514.641167 255.443247 
L 515.633873 253.743474 
L 516.626579 256.061225 
L 517.619285 264.709471 
L 518.611991 260.571251 
L 519.604697 269.438618 
L 520.597403 275.399072 
L 521.590109 274.585274 
L 522.582814 296.869083 
L 523.57552 293.676469 
L 524.568226 307.461412 
L 525.560932 338.3195 
L 526.553638 339.678042 
L 527.546344 323.424916 
L 528.53905 313.806674 
L 529.531756 328.392705 
L 530.524462 294.03324 
L 531.517168 307.439518 
L 532.509874 298.591638 
L 533.50258 292.1409 
L 534.495286 315.030913 
L 535.487991 296.793127 
L 536.480697 300.202824 
L 537.473403 317.554435 
L 538.466109 304.896054 
L 539.458815 330.009157 
L 540.451521 328.588366 
L 541.444227 327.771234 
L 542.436933 352.150574 
L 543.429639 361.645899 
L 544.422345 332.311403 
L 545.415051 337.254124 
L 546.407757 345.71777 
L 547.400463 317.727541 
L 548.393168 334.806335 
L 549.385874 326.542808 
L 550.37858 315.635526 
L 551.371286 381.53443 
L 552.363992 318.561198 
L 553.356698 330.678805 
L 554.349404 340.686269 
L 555.34211 332.57265 
L 556.334816 365.852265 
L 557.327522 327.053105 
L 558.320228 356.937784 
L 559.312934 343.243344 
L 560.30564 354.069663 
L 561.298345 348.70658 
L 562.291051 334.730526 
L 563.283757 371.088747 
L 564.276463 334.107126 
L 565.269169 345.999875 
L 566.261875 341.707474 
L 567.254581 347.538851 
L 568.247287 340.480615 
L 569.239993 343.863393 
L 570.232699 355.44812 
L 571.225405 320.863607 
L 572.218111 354.771344 
L 573.210817 330.649959 
L 574.203523 327.365425 
L 575.196228 356.22014 
L 576.188934 316.706229 
L 577.18164 341.961396 
L 578.174346 326.480492 
L 579.167052 314.199792 
L 580.159758 350.270958 
L 581.152464 314.162573 
L 583.137876 338.744353 
L 584.130582 305.465227 
L 585.123288 327.896887 
L 586.115994 312.092036 
L 587.1087 305.865825 
L 588.101405 323.620464 
L 589.094111 304.802433 
L 590.086817 305.262961 
L 591.079523 317.358591 
L 592.072229 297.13889 
L 593.064935 311.408337 
L 594.057641 310.029852 
L 595.050347 304.247787 
L 596.043053 326.841498 
L 597.035759 306.249308 
L 598.028465 318.205964 
L 599.021171 338.768896 
L 600.013877 316.01377 
L 601.006582 357.854896 
L 601.999288 355.874902 
L 602.991994 352.079197 
L 603.9847 320.578186 
L 604.977406 327.627483 
L 605.970112 307.808996 
L 606.962818 294.850493 
L 607.955524 298.149731 
L 608.94823 281.808871 
L 609.940936 283.272711 
L 610.933642 282.760585 
L 611.926348 271.787284 
L 612.919054 276.801277 
L 614.904465 268.965583 
L 615.897171 274.336822 
L 616.889877 268.86824 
L 617.882583 270.938779 
L 618.875289 275.841041 
L 619.867995 270.974329 
L 620.860701 279.904042 
L 621.853407 281.214029 
L 622.846113 281.241514 
L 623.838819 296.458601 
L 624.831525 293.460867 
L 625.824231 300.892549 
L 626.816936 324.459991 
L 627.809642 312.792108 
L 628.802348 313.248349 
L 629.795054 334.262827 
L 630.78776 307.596064 
L 631.780466 299.440291 
L 632.773172 309.360974 
L 633.765878 291.411743 
L 634.758584 293.344783 
L 635.75129 297.625156 
L 636.743996 286.899611 
L 637.736702 295.026102 
L 638.729408 294.688456 
L 639.722114 290.925164 
L 640.714819 305.417623 
L 641.707525 297.994116 
L 642.700231 302.559186 
L 643.692937 323.796514 
L 644.685643 307.953344 
L 645.678349 331.462715 
L 646.671055 339.233325 
L 647.663761 331.549515 
L 648.656467 365.538215 
L 649.649173 353.109247 
L 650.641879 348.809258 
L 651.634585 335.973284 
L 652.627291 404.517899 
L 653.619996 333.115588 
L 654.612702 335.06106 
L 655.605408 378.53211 
L 656.598114 328.818279 
L 657.59082 345.303927 
L 658.583526 354.438814 
L 659.576232 334.344268 
L 660.568938 363.558514 
L 661.561644 354.45924 
L 662.55435 343.231242 
L 663.547056 352.30318 
L 664.539762 363.284624 
L 665.532468 342.634497 
L 666.525173 345.430712 
L 667.517879 375.899359 
L 668.510585 337.386857 
L 669.503291 347.353827 
L 670.495997 366.507996 
L 671.488703 332.869536 
L 672.481409 354.563913 
L 673.474115 350.304418 
L 674.466821 331.727223 
L 675.459527 374.830787 
L 676.452233 340.265119 
L 677.444939 338.049294 
L 678.437645 381.77925 
L 679.43035 340.787202 
L 680.423056 358.091859 
L 681.415762 349.110881 
L 682.408468 357.307692 
L 683.401174 349.611971 
L 684.39388 336.768413 
L 685.386586 404.931326 
L 686.379292 326.555764 
L 687.371998 336.726798 
L 688.364704 338.081467 
L 689.35741 316.827238 
L 690.350116 341.508088 
L 691.342822 320.957915 
L 692.335527 317.18048 
L 693.328233 346.950783 
L 694.320939 317.292539 
L 695.313645 328.912516 
L 696.306351 348.319882 
L 697.299057 324.004819 
L 698.291763 347.716371 
L 699.284469 359.267384 
L 700.277175 331.421997 
L 701.269881 340.72658 
L 702.262587 362.704588 
L 703.255293 320.599942 
L 704.247999 328.685823 
L 705.240705 328.510036 
L 706.23341 308.705858 
L 707.226116 323.825761 
L 708.218822 311.196795 
L 709.211528 305.646012 
L 710.204234 320.845942 
L 711.19694 303.713781 
L 712.189646 310.638394 
L 713.182352 315.725656 
L 714.175058 304.522616 
L 715.167764 323.993072 
L 716.16047 312.161903 
L 717.153176 314.262354 
L 718.145882 333.251331 
L 719.138587 312.769878 
L 720.131293 335.654542 
L 721.123999 322.119881 
L 722.116705 320.122987 
L 723.109411 340.805096 
L 724.102117 314.089031 
L 725.094823 332.061215 
L 726.087529 321.847596 
L 727.080235 314.594236 
L 728.072941 339.388487 
L 729.065647 314.619376 
L 730.058353 321.532782 
L 731.051059 334.469251 
L 732.043764 314.814577 
L 733.03647 333.547168 
L 734.029176 330.956296 
L 735.021882 318.346694 
L 736.014588 345.837224 
L 737.007294 328.811669 
L 738 320.187244 
L 738.992706 348.369395 
L 739.985412 322.496935 
L 740.978118 319.35005 
L 741.970824 343.119624 
L 742.96353 315.943786 
L 743.956236 321.18392 
L 744.948941 333.124402 
L 745.941647 312.866476 
L 746.934353 329.216485 
L 747.927059 324.861217 
L 748.919765 315.955288 
L 749.912471 345.910464 
L 750.905177 321.880639 
L 751.897883 328.31941 
L 752.890589 352.582392 
L 753.883295 325.85178 
L 754.876001 363.518003 
L 755.868707 338.34123 
L 756.861413 341.148288 
L 757.854118 362.966861 
L 758.846824 331.747832 
L 759.83953 383.199572 
L 760.832236 331.77952 
L 761.824942 335.741404 
L 762.817648 352.836564 
L 763.810354 323.89695 
L 764.80306 350.553924 
L 765.795766 333.529735 
L 766.788472 327.902932 
L 767.781178 376.945884 
L 768.773884 331.440456 
L 769.76659 345.436555 
L 770.759295 368.526837 
L 771.752001 343.594072 
L 772.744707 361.99693 
L 773.737413 360.856989 
L 774.730119 364.487654 
L 775.722825 337.223074 
L 776.715531 369.172618 
L 777.708237 335.035575 
L 778.700943 325.712829 
L 779.693649 351.664023 
L 780.686355 318.588461 
L 781.679061 325.42347 
L 782.671767 330.778887 
L 783.664473 313.545548 
L 784.657178 333.594744 
L 785.649884 320.936282 
L 786.64259 318.449124 
L 787.635296 345.012611 
L 788.628002 320.118389 
L 789.620708 336.82246 
L 790.613414 342.124804 
L 791.60612 330.770693 
L 792.598826 412.120447 
L 793.591532 335.527383 
L 794.584238 366.7125 
L 795.576944 339.643095 
L 796.56965 336.722474 
L 797.562355 354.871547 
L 798.555061 322.086232 
L 799.547767 341.343048 
L 800.540473 325.317776 
L 801.533179 318.228432 
L 802.525885 339.655099 
L 803.518591 315.652395 
L 804.511297 322.914034 
L 805.504003 331.707972 
L 806.496709 315.247676 
L 807.489415 336.129883 
L 808.482121 328.327763 
L 809.474827 322.306016 
L 810.467532 359.60183 
L 811.460238 331.566543 
L 812.452944 335.292209 
L 813.44565 400.953955 
L 814.438356 339.324244 
L 815.431062 343.126396 
L 816.423768 492.48 
L 817.416474 341.381849 
L 818.40918 339.762669 
L 819.401886 405.034801 
L 820.394592 334.901456 
L 821.387298 339.455749 
L 822.380004 369.427018 
L 823.372709 330.669139 
L 824.365415 345.744815 
L 825.358121 355.261645 
L 826.350827 330.484628 
L 827.343533 355.695854 
L 828.336239 349.393803 
L 829.328945 331.544497 
L 830.321651 361.164636 
L 831.314357 342.636462 
L 832.307063 328.899912 
L 833.299769 361.113033 
L 834.292475 330.662362 
L 835.285181 325.735101 
L 836.277886 351.314952 
L 837.270592 320.88805 
L 838.263298 327.516917 
L 839.256004 335.649753 
L 840.24871 316.361205 
L 841.241416 334.129509 
L 842.234122 324.155616 
L 843.226828 317.835393 
L 844.219534 341.55995 
L 845.21224 318.774259 
L 846.204946 326.512804 
L 847.197652 337.41533 
L 848.190358 319.875889 
L 849.183064 345.25312 
L 850.175769 331.609027 
L 851.168475 329.245546 
L 852.161181 372.527685 
L 853.153887 332.662528 
L 854.146593 350.372178 
L 855.139299 363.740758 
L 856.132005 343.818921 
L 857.124711 376.353587 
L 858.117417 361.04519 
L 859.110123 360.940021 
L 860.102829 353.045524 
L 861.095535 394.091042 
L 862.088241 345.192491 
L 863.080946 344.123041 
L 864.073652 372.755846 
L 865.066358 330.320243 
L 866.059064 346.678406 
L 867.05177 339.766985 
L 868.044476 324.544736 
L 869.037182 352.032152 
L 870.029888 326.447633 
L 871.022594 326.797962 
L 872.0153 348.337468 
L 873.008006 322.324593 
L 874.000712 337.072448 
L 874.993418 340.251855 
L 875.986123 325.533465 
L 876.978829 357.824333 
L 877.971535 337.701236 
L 878.964241 335.717834 
L 879.956947 407.790549 
L 880.949653 343.839393 
L 881.942359 347.760482 
L 882.935065 407.613199 
L 883.927771 351.725484 
L 884.920477 344.859558 
L 885.913183 401.573743 
L 886.905889 344.023838 
L 887.898595 337.130121 
L 888.8913 379.352146 
L 889.884006 331.113395 
L 890.876712 335.643083 
L 891.869418 351.105062 
L 892.862124 324.300352 
L 893.85483 342.344853 
L 894.847536 336.064494 
L 895.840242 325.125233 
L 896.832948 357.182267 
L 897.825654 329.93548 
L 898.81836 334.686712 
L 899.811066 362.244509 
L 900.803772 332.265437 
L 901.796477 360.553783 
L 902.789183 352.186358 
L 903.781889 346.658802 
L 904.774595 390.047126 
L 905.767301 348.801689 
L 906.760007 391.701489 
L 907.752713 346.797264 
L 908.745419 358.205984 
L 909.738125 357.689657 
L 910.730831 335.237522 
L 911.723537 376.29374 
L 912.716243 335.050822 
L 913.708949 335.403583 
L 914.701655 359.233854 
L 915.69436 327.302489 
L 916.687066 344.116792 
L 917.679772 342.37635 
L 918.672478 328.031829 
L 919.665184 362.572887 
L 920.65789 336.178096 
L 921.650596 335.508992 
L 922.643302 380.716779 
L 923.636008 336.115159 
L 924.628714 348.397753 
L 925.62142 373.442227 
L 926.614126 341.040234 
L 927.606832 365.181308 
L 928.599537 366.662721 
L 929.592243 347.5182 
L 930.584949 374.260832 
L 931.577655 365.15359 
L 932.570361 353.796144 
L 933.563067 370.775102 
L 934.555773 370.916303 
L 935.548479 355.999669 
L 936.541185 360.86485 
L 937.533891 387.064537 
L 938.526597 347.085834 
L 939.519303 354.647388 
L 940.512009 372.596667 
L 941.504714 335.26824 
L 942.49742 355.060676 
L 943.490126 343.57933 
L 944.482832 328.173499 
L 945.475538 354.745461 
L 946.468244 327.315715 
L 947.46095 326.193814 
L 948.453656 343.767606 
L 949.446362 319.792742 
L 950.439068 330.009929 
L 951.431774 331.066905 
L 952.42448 317.711185 
L 953.417186 337.43102 
L 954.409891 323.297826 
L 955.402597 321.44328 
L 956.395303 342.706813 
L 957.388009 321.215603 
L 958.380715 330.252031 
L 959.373421 341.617697 
L 960.366127 323.779906 
L 961.358833 344.54821 
L 962.351539 339.940069 
L 963.344245 329.261583 
L 964.336951 363.639897 
L 965.329657 338.644705 
L 966.322363 334.711471 
L 967.315068 377.446712 
L 968.307774 336.161393 
L 969.30048 338.418989 
L 970.293186 372.884257 
L 971.285892 333.274266 
L 972.278598 344.072343 
L 973.271304 358.218998 
L 974.26401 331.643365 
L 975.256716 353.921601 
L 976.249422 346.803055 
L 977.242128 333.107005 
L 978.234834 372.069641 
L 979.22754 340.901985 
L 980.220246 338.506416 
L 981.212951 392.625942 
L 982.205657 338.948413 
L 983.198363 347.065002 
L 984.191069 379.326759 
L 985.183775 339.510344 
L 986.176481 358.114078 
L 987.169187 366.216325 
L 988.161893 341.486563 
L 989.154599 374.402138 
L 990.147305 356.574735 
L 991.140011 343.907345 
L 992.132717 405.306542 
L 993.125423 350.424272 
L 994.118128 349.693962 
L 995.110834 417.002763 
L 996.10354 348.211262 
L 997.096246 359.553914 
L 998.088952 378.804201 
L 999.081658 349.615994 
L 1000.074364 372.73424 
L 1001.06707 367.12398 
L 1002.059776 353.332805 
L 1003.052482 380.093136 
L 1004.045188 362.0903 
L 1005.037894 357.361308 
L 1006.0306 379.738425 
L 1007.023305 361.800533 
L 1008.016011 361.362982 
L 1009.008717 376.677458 
L 1010.001423 360.463872 
L 1010.994129 363.569657 
L 1011.986835 374.346805 
L 1012.979541 360.176996 
L 1013.972247 367.757728 
L 1014.964953 371.280399 
L 1015.957659 360.485658 
L 1016.950365 369.256211 
L 1017.943071 370.045314 
L 1018.935777 360.262179 
L 1019.928482 372.394324 
L 1021.913894 359.623608 
L 1022.9066 378.558236 
L 1023.899306 362.20299 
L 1024.892012 361.659818 
L 1025.884718 379.475491 
L 1026.877424 357.708284 
L 1027.87013 366.900641 
L 1028.862836 373.785139 
L 1029.855542 357.512331 
L 1030.848248 373.857921 
L 1031.840954 366.789608 
L 1032.833659 358.454841 
L 1033.826365 376.220502 
L 1034.819071 364.833714 
L 1035.811777 359.634152 
L 1036.804483 378.740579 
L 1037.797189 362.975382 
L 1038.789895 357.682656 
L 1039.782601 391.074297 
L 1040.775307 355.343926 
L 1041.768013 360.096682 
L 1042.760719 385.686189 
L 1043.753425 349.714942 
L 1044.746131 372.144452 
L 1045.738837 363.035092 
L 1046.731542 349.020459 
L 1047.724248 409.797618 
L 1048.716954 351.70288 
L 1049.70966 358.346111 
L 1050.702366 379.555731 
L 1051.695072 350.271536 
L 1052.687778 384.135546 
L 1053.680484 358.834949 
L 1054.67319 358.083765 
L 1055.665896 383.261011 
L 1056.658602 353.190905 
L 1057.651308 379.610312 
L 1058.644014 360.986793 
L 1059.636719 358.110845 
L 1060.629425 388.827189 
L 1061.622131 352.190826 
L 1062.614837 369.628122 
L 1063.607543 369.807643 
L 1064.600249 351.661914 
L 1065.592955 386.379521 
L 1066.585661 360.924974 
L 1067.578367 353.694195 
L 1068.571073 400.858988 
L 1069.563779 355.224014 
L 1070.556485 354.356636 
L 1071.549191 412.660672 
L 1072.541896 347.69271 
L 1073.534602 355.808958 
L 1074.527308 377.444963 
L 1075.520014 341.382052 
L 1076.51272 367.596937 
L 1078.498132 341.665332 
L 1079.490838 407.911674 
L 1080.483544 345.218933 
L 1081.47625 350.471253 
L 1082.468956 383.985663 
L 1083.461662 344.75743 
L 1084.454368 374.297306 
L 1085.447073 362.723872 
L 1086.439779 356.213648 
L 1087.432485 384.176464 
L 1088.425191 359.318513 
L 1089.417897 378.463184 
L 1090.410603 358.522798 
L 1091.403309 374.75545 
L 1092.396015 362.571975 
L 1093.388721 351.983439 
L 1094.381427 424.824085 
L 1095.374133 348.406577 
L 1096.366839 360.78614 
L 1097.359545 369.936913 
L 1098.35225 346.080858 
L 1099.344956 393.731373 
L 1100.337662 354.128878 
L 1101.330368 356.134715 
L 1102.323074 388.496918 
L 1103.31578 354.783095 
L 1104.308486 379.976416 
L 1105.301192 360.234771 
L 1106.293898 373.082925 
L 1108.27931 354.729016 
L 1109.272016 403.450803 
L 1110.264722 344.920061 
L 1111.257428 362.812739 
L 1112.250133 358.009196 
L 1113.242839 339.145158 
L 1114.235545 383.87743 
L 1115.228251 341.718554 
L 1116.220957 343.040334 
L 1117.213663 377.110528 
L 1118.206369 337.993371 
L 1119.199075 357.897695 
L 1120.191781 358.670958 
L 1121.184487 342.045324 
L 1122.177193 397.638148 
L 1123.169899 353.557738 
L 1124.162605 355.879647 
L 1125.15531 389.54075 
L 1126.148016 359.333014 
L 1127.140722 372.516035 
L 1128.133428 364.047987 
L 1129.126134 378.635845 
L 1130.11884 359.327908 
L 1131.111546 360.272953 
L 1132.104252 390.3227 
L 1133.096958 346.939446 
L 1134.089664 366.869844 
L 1135.08237 360.732203 
L 1136.075076 342.21109 
L 1137.067782 387.535475 
L 1138.060487 348.098802 
L 1139.053193 344.4501 
L 1140.045899 408.227022 
L 1141.038605 343.523424 
L 1142.031311 352.449089 
L 1143.024017 385.961338 
L 1144.016723 345.331204 
L 1146.002135 378.664702 
L 1146.994841 347.755953 
L 1147.987547 364.092135 
L 1148.980253 376.448417 
L 1149.972959 345.193211 
L 1150.965664 364.759229 
L 1151.95837 364.738283 
L 1152.951076 340.277679 
L 1153.943782 369.354022 
L 1154.936488 350.162884 
L 1155.929194 338.791572 
L 1156.9219 382.731688 
L 1157.914606 341.558829 
L 1158.907312 342.01189 
L 1159.900018 382.510134 
L 1160.892724 339.499662 
L 1161.88543 351.092098 
L 1162.878136 373.0872 
L 1163.870841 341.734311 
L 1164.863547 362.220284 
L 1165.856253 367.555007 
L 1166.848959 342.982493 
L 1167.841665 368.020874 
L 1168.834371 360.605058 
L 1169.827077 340.801913 
L 1170.819783 375.029526 
L 1171.812489 348.00734 
L 1172.805195 339.253781 
L 1173.797901 382.585499 
L 1174.790607 338.244226 
L 1175.783313 343.963306 
L 1176.776019 365.425332 
L 1177.768724 335.189431 
L 1178.76143 359.612074 
L 1180.746842 339.524369 
L 1181.739548 398.157888 
L 1182.732254 342.617027 
L 1183.72496 355.137785 
L 1184.717666 372.100527 
L 1185.710372 346.429091 
L 1186.703078 392.718677 
L 1187.695784 357.98316 
L 1188.68849 361.930863 
L 1189.681196 377.28121 
L 1190.673901 362.419374 
L 1191.666607 372.774433 
L 1192.659313 363.141244 
L 1193.652019 385.507306 
L 1194.644725 353.631539 
L 1195.637431 372.417135 
L 1196.630137 360.21585 
L 1197.622843 344.16004 
L 1198.615549 398.777232 
L 1199.608255 339.470622 
L 1200.600961 344.546391 
L 1201.593667 357.974707 
L 1202.586373 331.457234 
L 1203.579078 354.624236 
L 1204.571784 339.585641 
L 1205.56449 332.072483 
L 1206.557196 364.84232 
L 1207.549902 333.166024 
L 1208.542608 341.361688 
L 1209.535314 360.710238 
L 1210.52802 335.363059 
L 1211.520726 361.27521 
L 1212.513432 358.332999 
L 1213.506138 345.028241 
L 1214.498844 383.173031 
L 1216.484255 350.902823 
L 1217.476961 371.027308 
L 1218.469667 370.615651 
L 1219.462373 342.189512 
L 1220.455079 365.851403 
L 1221.447785 351.764431 
L 1222.440491 335.548841 
L 1223.433197 367.721726 
L 1224.425903 337.610583 
L 1225.418609 335.393403 
L 1226.411315 364.949417 
L 1227.404021 332.471556 
L 1228.396727 342.660332 
L 1229.389432 356.892258 
L 1230.382138 334.049363 
L 1231.374844 359.687507 
L 1232.36755 353.008823 
L 1233.360256 341.126359 
L 1234.352962 388.694871 
L 1235.345668 355.582083 
L 1236.338374 349.396874 
L 1237.33108 394.262195 
L 1238.323786 361.808197 
L 1239.316492 350.797203 
L 1240.309198 386.252942 
L 1241.301904 360.257992 
L 1242.29461 346.473202 
L 1243.287315 397.647377 
L 1244.280021 351.227159 
L 1245.272727 346.479668 
L 1245.272727 346.479668 
" clip-path="url(#p6fd8f59cd9)" style="fill: none; stroke: #1f77b4; stroke-width: 1.5; stroke-linecap: square"/>
   </g>
   <g id="patch_3">
    <path d="M 180 512.64 
L 180 69.12 
" style="fill: none; stroke: #000000; stroke-width: 0.8; stroke-linejoin: miter; stroke-linecap: square"/>
   </g>
   <g id="patch_4">
    <path d="M 1296 512.64 
L 1296 69.12 
" style="fill: none; stroke: #000000; stroke-width: 0.8; stroke-linejoin: miter; stroke-linecap: square"/>
   </g>
   <g id="patch_5">
    <path d="M 180 512.64 
L 1296 512.64 
" style="fill: none; stroke: #000000; stroke-width: 0.8; stroke-linejoin: miter; stroke-linecap: square"/>
   </g>
   <g id="patch_6">
    <path d="M 180 69.12 
L 1296 69.12 
" style="fill: none; stroke: #000000; stroke-width: 0.8; stroke-linejoin: miter; stroke-linecap: square"/>
   </g>
   <g id="text_14">
    <!-- source10-receiver19 -->
    <g transform="translate(532.175 60.80125) scale(0.4 -0.4)">
     <defs>
      <path id="DejaVuSans-73" d="M 2834 3397 
L 2834 2853 
Q 2591 2978 2328 3040 
Q 2066 3103 1784 3103 
Q 1356 3103 1142 2972 
Q 928 2841 928 2578 
Q 928 2378 1081 2264 
Q 1234 2150 1697 2047 
L 1894 2003 
Q 2506 1872 2764 1633 
Q 3022 1394 3022 966 
Q 3022 478 2636 193 
Q 2250 -91 1575 -91 
Q 1294 -91 989 -36 
Q 684 19 347 128 
L 347 722 
Q 666 556 975 473 
Q 1284 391 1588 391 
Q 1994 391 2212 530 
Q 2431 669 2431 922 
Q 2431 1156 2273 1281 
Q 2116 1406 1581 1522 
L 1381 1569 
Q 847 1681 609 1914 
Q 372 2147 372 2553 
Q 372 3047 722 3315 
Q 1072 3584 1716 3584 
Q 2034 3584 2315 3537 
Q 2597 3491 2834 3397 
z
" transform="scale(0.015625)"/>
      <path id="DejaVuSans-6f" d="M 1959 3097 
Q 1497 3097 1228 2736 
Q 959 2375 959 1747 
Q 959 1119 1226 758 
Q 1494 397 1959 397 
Q 2419 397 2687 759 
Q 2956 1122 2956 1747 
Q 2956 2369 2687 2733 
Q 2419 3097 1959 3097 
z
M 1959 3584 
Q 2709 3584 3137 3096 
Q 3566 2609 3566 1747 
Q 3566 888 3137 398 
Q 2709 -91 1959 -91 
Q 1206 -91 779 398 
Q 353 888 353 1747 
Q 353 2609 779 3096 
Q 1206 3584 1959 3584 
z
" transform="scale(0.015625)"/>
      <path id="DejaVuSans-75" d="M 544 1381 
L 544 3500 
L 1119 3500 
L 1119 1403 
Q 1119 906 1312 657 
Q 1506 409 1894 409 
Q 2359 409 2629 706 
Q 2900 1003 2900 1516 
L 2900 3500 
L 3475 3500 
L 3475 0 
L 2900 0 
L 2900 538 
Q 2691 219 2414 64 
Q 2138 -91 1772 -91 
Q 1169 -91 856 284 
Q 544 659 544 1381 
z
M 1991 3584 
L 1991 3584 
z
" transform="scale(0.015625)"/>
      <path id="DejaVuSans-72" d="M 2631 2963 
Q 2534 3019 2420 3045 
Q 2306 3072 2169 3072 
Q 1681 3072 1420 2755 
Q 1159 2438 1159 1844 
L 1159 0 
L 581 0 
L 581 3500 
L 1159 3500 
L 1159 2956 
Q 1341 3275 1631 3429 
Q 1922 3584 2338 3584 
Q 2397 3584 2469 3576 
Q 2541 3569 2628 3553 
L 2631 2963 
z
" transform="scale(0.015625)"/>
      <path id="DejaVuSans-63" d="M 3122 3366 
L 3122 2828 
Q 2878 2963 2633 3030 
Q 2388 3097 2138 3097 
Q 1578 3097 1268 2742 
Q 959 2388 959 1747 
Q 959 1106 1268 751 
Q 1578 397 2138 397 
Q 2388 397 2633 464 
Q 2878 531 3122 666 
L 3122 134 
Q 2881 22 2623 -34 
Q 2366 -91 2075 -91 
Q 1284 -91 818 406 
Q 353 903 353 1747 
Q 353 2603 823 3093 
Q 1294 3584 2113 3584 
Q 2378 3584 2631 3529 
Q 2884 3475 3122 3366 
z
" transform="scale(0.015625)"/>
      <path id="DejaVuSans-65" d="M 3597 1894 
L 3597 1613 
L 953 1613 
Q 991 1019 1311 708 
Q 1631 397 2203 397 
Q 2534 397 2845 478 
Q 3156 559 3463 722 
L 3463 178 
Q 3153 47 2828 -22 
Q 2503 -91 2169 -91 
Q 1331 -91 842 396 
Q 353 884 353 1716 
Q 353 2575 817 3079 
Q 1281 3584 2069 3584 
Q 2775 3584 3186 3129 
Q 3597 2675 3597 1894 
z
M 3022 2063 
Q 3016 2534 2758 2815 
Q 2500 3097 2075 3097 
Q 1594 3097 1305 2825 
Q 1016 2553 972 2059 
L 3022 2063 
z
" transform="scale(0.015625)"/>
      <path id="DejaVuSans-2d" d="M 313 2009 
L 1997 2009 
L 1997 1497 
L 313 1497 
L 313 2009 
z
" transform="scale(0.015625)"/>
      <path id="DejaVuSans-69" d="M 603 3500 
L 1178 3500 
L 1178 0 
L 603 0 
L 603 3500 
z
M 603 4863 
L 1178 4863 
L 1178 4134 
L 603 4134 
L 603 4863 
z
" transform="scale(0.015625)"/>
      <path id="DejaVuSans-76" d="M 191 3500 
L 800 3500 
L 1894 563 
L 2988 3500 
L 3597 3500 
L 2284 0 
L 1503 0 
L 191 3500 
z
" transform="scale(0.015625)"/>
      <path id="DejaVuSans-39" d="M 703 97 
L 703 672 
Q 941 559 1184 500 
Q 1428 441 1663 441 
Q 2288 441 2617 861 
Q 2947 1281 2994 2138 
Q 2813 1869 2534 1725 
Q 2256 1581 1919 1581 
Q 1219 1581 811 2004 
Q 403 2428 403 3163 
Q 403 3881 828 4315 
Q 1253 4750 1959 4750 
Q 2769 4750 3195 4129 
Q 3622 3509 3622 2328 
Q 3622 1225 3098 567 
Q 2575 -91 1691 -91 
Q 1453 -91 1209 -44 
Q 966 3 703 97 
z
M 1959 2075 
Q 2384 2075 2632 2365 
Q 2881 2656 2881 3163 
Q 2881 3666 2632 3958 
Q 2384 4250 1959 4250 
Q 1534 4250 1286 3958 
Q 1038 3666 1038 3163 
Q 1038 2656 1286 2365 
Q 1534 2075 1959 2075 
z
" transform="scale(0.015625)"/>
     </defs>
     <use xlink:href="#DejaVuSans-73"/>
     <use xlink:href="#DejaVuSans-6f" x="52.099609"/>
     <use xlink:href="#DejaVuSans-75" x="113.28125"/>
     <use xlink:href="#DejaVuSans-72" x="176.660156"/>
     <use xlink:href="#DejaVuSans-63" x="215.523438"/>
     <use xlink:href="#DejaVuSans-65" x="270.503906"/>
     <use xlink:href="#DejaVuSans-31" x="332.027344"/>
     <use xlink:href="#DejaVuSans-30" x="395.650391"/>
     <use xlink:href="#DejaVuSans-2d" x="459.273438"/>
     <use xlink:href="#DejaVuSans-72" x="495.357422"/>
     <use xlink:href="#DejaVuSans-65" x="534.220703"/>
     <use xlink:href="#DejaVuSans-63" x="595.744141"/>
     <use xlink:href="#DejaVuSans-65" x="650.724609"/>
     <use xlink:href="#DejaVuSans-69" x="712.248047"/>
     <use xlink:href="#DejaVuSans-76" x="740.03125"/>
     <use xlink:href="#DejaVuSans-65" x="799.210938"/>
     <use xlink:href="#DejaVuSans-72" x="860.734375"/>
     <use xlink:href="#DejaVuSans-31" x="901.847656"/>
     <use xlink:href="#DejaVuSans-39" x="965.470703"/>
    </g>
   </g>
  </g>
 </g>
 <defs>
  <clipPath id="p6fd8f59cd9">
   <rect x="180" y="69.12" width="1116" height="443.52"/>
  </clipPath>
 </defs>
</svg>
