<?xml version="1.0" encoding="utf-8" standalone="no"?>
<!DOCTYPE svg PUBLIC "-//W3C//DTD SVG 1.1//EN"
  "http://www.w3.org/Graphics/SVG/1.1/DTD/svg11.dtd">
<svg xmlns:xlink="http://www.w3.org/1999/xlink" width="1440pt" height="576pt" viewBox="0 0 1440 576" xmlns="http://www.w3.org/2000/svg" version="1.1">
 <metadata>
  <rdf:RDF xmlns:dc="http://purl.org/dc/elements/1.1/" xmlns:cc="http://creativecommons.org/ns#" xmlns:rdf="http://www.w3.org/1999/02/22-rdf-syntax-ns#">
   <cc:Work>
    <dc:type rdf:resource="http://purl.org/dc/dcmitype/StillImage"/>
    <dc:date>2024-05-22T04:49:57.808456</dc:date>
    <dc:format>image/svg+xml</dc:format>
    <dc:creator>
     <cc:Agent>
      <dc:title>Matplotlib v3.8.3, https://matplotlib.org/</dc:title>
     </cc:Agent>
    </dc:creator>
   </cc:Work>
  </rdf:RDF>
 </metadata>
 <defs>
  <style type="text/css">*{stroke-linejoin: round; stroke-linecap: butt}</style>
 </defs>
 <g id="figure_1">
  <g id="patch_1">
   <path d="M 0 576 
L 1440 576 
L 1440 0 
L 0 0 
z
" style="fill: #ffffff"/>
  </g>
  <g id="axes_1">
   <g id="patch_2">
    <path d="M 180 512.64 
L 1296 512.64 
L 1296 69.12 
L 180 69.12 
z
" style="fill: #ffffff"/>
   </g>
   <g id="matplotlib.axis_1">
    <g id="xtick_1">
     <g id="line2d_1">
      <defs>
       <path id="m71a6645144" d="M 0 0 
L 0 3.5 
" style="stroke: #000000; stroke-width: 0.8"/>
      </defs>
      <g>
       <use xlink:href="#m71a6645144" x="229.734567" y="512.64" style="stroke: #000000; stroke-width: 0.8"/>
      </g>
     </g>
     <g id="text_1">
      <!-- 0 -->
      <g transform="translate(226.553317 527.238438) scale(0.1 -0.1)">
       <defs>
        <path id="DejaVuSans-30" d="M 2034 4250 
Q 1547 4250 1301 3770 
Q 1056 3291 1056 2328 
Q 1056 1369 1301 889 
Q 1547 409 2034 409 
Q 2525 409 2770 889 
Q 3016 1369 3016 2328 
Q 3016 3291 2770 3770 
Q 2525 4250 2034 4250 
z
M 2034 4750 
Q 2819 4750 3233 4129 
Q 3647 3509 3647 2328 
Q 3647 1150 3233 529 
Q 2819 -91 2034 -91 
Q 1250 -91 836 529 
Q 422 1150 422 2328 
Q 422 3509 836 4129 
Q 1250 4750 2034 4750 
z
" transform="scale(0.015625)"/>
       </defs>
       <use xlink:href="#DejaVuSans-30"/>
      </g>
     </g>
    </g>
    <g id="xtick_2">
     <g id="line2d_2">
      <g>
       <use xlink:href="#m71a6645144" x="433.04074" y="512.64" style="stroke: #000000; stroke-width: 0.8"/>
      </g>
     </g>
     <g id="text_2">
      <!-- 500 -->
      <g transform="translate(423.49699 527.238438) scale(0.1 -0.1)">
       <defs>
        <path id="DejaVuSans-35" d="M 691 4666 
L 3169 4666 
L 3169 4134 
L 1269 4134 
L 1269 2991 
Q 1406 3038 1543 3061 
Q 1681 3084 1819 3084 
Q 2600 3084 3056 2656 
Q 3513 2228 3513 1497 
Q 3513 744 3044 326 
Q 2575 -91 1722 -91 
Q 1428 -91 1123 -41 
Q 819 9 494 109 
L 494 744 
Q 775 591 1075 516 
Q 1375 441 1709 441 
Q 2250 441 2565 725 
Q 2881 1009 2881 1497 
Q 2881 1984 2565 2268 
Q 2250 2553 1709 2553 
Q 1456 2553 1204 2497 
Q 953 2441 691 2322 
L 691 4666 
z
" transform="scale(0.015625)"/>
       </defs>
       <use xlink:href="#DejaVuSans-35"/>
       <use xlink:href="#DejaVuSans-30" x="63.623047"/>
       <use xlink:href="#DejaVuSans-30" x="127.246094"/>
      </g>
     </g>
    </g>
    <g id="xtick_3">
     <g id="line2d_3">
      <g>
       <use xlink:href="#m71a6645144" x="636.346913" y="512.64" style="stroke: #000000; stroke-width: 0.8"/>
      </g>
     </g>
     <g id="text_3">
      <!-- 1000 -->
      <g transform="translate(623.621913 527.238438) scale(0.1 -0.1)">
       <defs>
        <path id="DejaVuSans-31" d="M 794 531 
L 1825 531 
L 1825 4091 
L 703 3866 
L 703 4441 
L 1819 4666 
L 2450 4666 
L 2450 531 
L 3481 531 
L 3481 0 
L 794 0 
L 794 531 
z
" transform="scale(0.015625)"/>
       </defs>
       <use xlink:href="#DejaVuSans-31"/>
       <use xlink:href="#DejaVuSans-30" x="63.623047"/>
       <use xlink:href="#DejaVuSans-30" x="127.246094"/>
       <use xlink:href="#DejaVuSans-30" x="190.869141"/>
      </g>
     </g>
    </g>
    <g id="xtick_4">
     <g id="line2d_4">
      <g>
       <use xlink:href="#m71a6645144" x="839.653087" y="512.64" style="stroke: #000000; stroke-width: 0.8"/>
      </g>
     </g>
     <g id="text_4">
      <!-- 1500 -->
      <g transform="translate(826.928087 527.238438) scale(0.1 -0.1)">
       <use xlink:href="#DejaVuSans-31"/>
       <use xlink:href="#DejaVuSans-35" x="63.623047"/>
       <use xlink:href="#DejaVuSans-30" x="127.246094"/>
       <use xlink:href="#DejaVuSans-30" x="190.869141"/>
      </g>
     </g>
    </g>
    <g id="xtick_5">
     <g id="line2d_5">
      <g>
       <use xlink:href="#m71a6645144" x="1042.95926" y="512.64" style="stroke: #000000; stroke-width: 0.8"/>
      </g>
     </g>
     <g id="text_5">
      <!-- 2000 -->
      <g transform="translate(1030.23426 527.238438) scale(0.1 -0.1)">
       <defs>
        <path id="DejaVuSans-32" d="M 1228 531 
L 3431 531 
L 3431 0 
L 469 0 
L 469 531 
Q 828 903 1448 1529 
Q 2069 2156 2228 2338 
Q 2531 2678 2651 2914 
Q 2772 3150 2772 3378 
Q 2772 3750 2511 3984 
Q 2250 4219 1831 4219 
Q 1534 4219 1204 4116 
Q 875 4013 500 3803 
L 500 4441 
Q 881 4594 1212 4672 
Q 1544 4750 1819 4750 
Q 2544 4750 2975 4387 
Q 3406 4025 3406 3419 
Q 3406 3131 3298 2873 
Q 3191 2616 2906 2266 
Q 2828 2175 2409 1742 
Q 1991 1309 1228 531 
z
" transform="scale(0.015625)"/>
       </defs>
       <use xlink:href="#DejaVuSans-32"/>
       <use xlink:href="#DejaVuSans-30" x="63.623047"/>
       <use xlink:href="#DejaVuSans-30" x="127.246094"/>
       <use xlink:href="#DejaVuSans-30" x="190.869141"/>
      </g>
     </g>
    </g>
    <g id="xtick_6">
     <g id="line2d_6">
      <g>
       <use xlink:href="#m71a6645144" x="1246.265433" y="512.64" style="stroke: #000000; stroke-width: 0.8"/>
      </g>
     </g>
     <g id="text_6">
      <!-- 2500 -->
      <g transform="translate(1233.540433 527.238438) scale(0.1 -0.1)">
       <use xlink:href="#DejaVuSans-32"/>
       <use xlink:href="#DejaVuSans-35" x="63.623047"/>
       <use xlink:href="#DejaVuSans-30" x="127.246094"/>
       <use xlink:href="#DejaVuSans-30" x="190.869141"/>
      </g>
     </g>
    </g>
   </g>
   <g id="matplotlib.axis_2">
    <g id="ytick_1">
     <g id="line2d_7">
      <defs>
       <path id="m6c193a956b" d="M 0 0 
L -3.5 0 
" style="stroke: #000000; stroke-width: 0.8"/>
      </defs>
      <g>
       <use xlink:href="#m6c193a956b" x="180" y="452.061548" style="stroke: #000000; stroke-width: 0.8"/>
      </g>
     </g>
     <g id="text_7">
      <!-- −4 -->
      <g transform="translate(158.257812 455.860767) scale(0.1 -0.1)">
       <defs>
        <path id="DejaVuSans-2212" d="M 678 2272 
L 4684 2272 
L 4684 1741 
L 678 1741 
L 678 2272 
z
" transform="scale(0.015625)"/>
        <path id="DejaVuSans-34" d="M 2419 4116 
L 825 1625 
L 2419 1625 
L 2419 4116 
z
M 2253 4666 
L 3047 4666 
L 3047 1625 
L 3713 1625 
L 3713 1100 
L 3047 1100 
L 3047 0 
L 2419 0 
L 2419 1100 
L 313 1100 
L 313 1709 
L 2253 4666 
z
" transform="scale(0.015625)"/>
       </defs>
       <use xlink:href="#DejaVuSans-2212"/>
       <use xlink:href="#DejaVuSans-34" x="83.789062"/>
      </g>
     </g>
    </g>
    <g id="ytick_2">
     <g id="line2d_8">
      <g>
       <use xlink:href="#m6c193a956b" x="180" y="368.301505" style="stroke: #000000; stroke-width: 0.8"/>
      </g>
     </g>
     <g id="text_8">
      <!-- −2 -->
      <g transform="translate(158.257812 372.100724) scale(0.1 -0.1)">
       <use xlink:href="#DejaVuSans-2212"/>
       <use xlink:href="#DejaVuSans-32" x="83.789062"/>
      </g>
     </g>
    </g>
    <g id="ytick_3">
     <g id="line2d_9">
      <g>
       <use xlink:href="#m6c193a956b" x="180" y="284.541462" style="stroke: #000000; stroke-width: 0.8"/>
      </g>
     </g>
     <g id="text_9">
      <!-- 0 -->
      <g transform="translate(166.6375 288.34068) scale(0.1 -0.1)">
       <use xlink:href="#DejaVuSans-30"/>
      </g>
     </g>
    </g>
    <g id="ytick_4">
     <g id="line2d_10">
      <g>
       <use xlink:href="#m6c193a956b" x="180" y="200.781419" style="stroke: #000000; stroke-width: 0.8"/>
      </g>
     </g>
     <g id="text_10">
      <!-- 2 -->
      <g transform="translate(166.6375 204.580637) scale(0.1 -0.1)">
       <use xlink:href="#DejaVuSans-32"/>
      </g>
     </g>
    </g>
    <g id="ytick_5">
     <g id="line2d_11">
      <g>
       <use xlink:href="#m6c193a956b" x="180" y="117.021375" style="stroke: #000000; stroke-width: 0.8"/>
      </g>
     </g>
     <g id="text_11">
      <!-- 4 -->
      <g transform="translate(166.6375 120.820594) scale(0.1 -0.1)">
       <use xlink:href="#DejaVuSans-34"/>
      </g>
     </g>
    </g>
   </g>
   <g id="line2d_12">
    <path d="M 230.727273 339.109538 
L 231.719979 339.041688 
L 232.712685 338.678384 
L 233.70539 338.00309 
L 234.698096 337.048402 
L 235.690802 336.569525 
L 237.676214 334.20066 
L 239.661626 331.451691 
L 240.654332 329.642947 
L 241.647038 327.382674 
L 242.639744 325.580584 
L 243.63245 322.353591 
L 244.625156 322.70818 
L 245.617862 317.226629 
L 247.603273 261.070092 
L 248.595979 233.639451 
L 249.588685 218.122995 
L 250.581391 204.799677 
L 251.574097 214.196744 
L 252.566803 206.338112 
L 253.559509 187.749501 
L 254.552215 182.715671 
L 255.544921 173.055194 
L 256.537627 161.046949 
L 257.530333 177.7111 
L 258.523039 237.106157 
L 259.515745 178.464378 
L 260.50845 178.915785 
L 261.501156 178.407055 
L 262.493862 165.328065 
L 263.486568 161.535575 
L 264.479274 164.37651 
L 265.47198 168.412264 
L 266.464686 180.409093 
L 267.457392 189.720223 
L 268.450098 189.680031 
L 269.442804 185.559262 
L 270.43551 174.483718 
L 271.428216 158.339575 
L 272.420922 164.039833 
L 273.413627 185.611076 
L 274.406333 181.684384 
L 275.399039 178.550566 
L 276.391745 122.134674 
L 277.384451 104.290634 
L 278.377157 95.950704 
L 279.369863 89.28 
L 280.362569 96.348419 
L 281.355275 138.336471 
L 282.347981 135.322449 
L 283.340687 109.119104 
L 284.333393 118.567582 
L 285.326099 135.245441 
L 286.318804 127.292023 
L 287.31151 141.169371 
L 288.304216 210.338016 
L 289.296922 165.415126 
L 290.289628 182.64072 
L 291.282334 196.084895 
L 292.27504 166.51503 
L 293.267746 178.223742 
L 294.260452 213.78332 
L 295.253158 193.535058 
L 296.245864 201.64874 
L 297.23857 230.555933 
L 298.231276 201.625732 
L 299.223981 203.454414 
L 300.216687 238.958365 
L 301.209393 242.953771 
L 302.202099 228.124758 
L 303.194805 210.276307 
L 304.187511 216.440111 
L 305.180217 252.968883 
L 306.172923 252.598814 
L 307.165629 244.669492 
L 308.158335 291.957913 
L 310.143747 258.303964 
L 311.136453 267.373313 
L 312.129159 266.81574 
L 313.121864 278.527588 
L 314.11457 349.521773 
L 315.107276 327.18614 
L 316.099982 365.83548 
L 317.092688 367.574652 
L 318.085394 344.312679 
L 319.0781 345.127481 
L 320.070806 370.100274 
L 321.063512 418.626864 
L 322.056218 351.663477 
L 323.048924 360.483468 
L 324.04163 372.287414 
L 325.034336 347.652985 
L 326.027041 435.714432 
L 327.019747 361.395151 
L 328.012453 357.541948 
L 329.005159 354.137031 
L 329.997865 355.404218 
L 330.990571 322.743656 
L 331.983277 331.853465 
L 332.975983 369.369786 
L 334.961395 354.573161 
L 335.954101 345.151505 
L 337.939513 402.164774 
L 338.932218 382.599307 
L 339.924924 351.564068 
L 340.91763 404.943732 
L 341.910336 354.549954 
L 342.903042 354.328986 
L 343.895748 380.724327 
L 344.888454 373.228116 
L 345.88116 368.64757 
L 346.873866 361.64067 
L 347.866572 383.229252 
L 348.859278 401.171072 
L 349.851984 368.47813 
L 350.84469 387.804339 
L 351.837395 378.547835 
L 352.830101 388.932739 
L 353.822807 334.100321 
L 354.815513 376.556527 
L 355.808219 378.18481 
L 356.800925 351.391606 
L 357.793631 352.534842 
L 358.786337 396.279273 
L 359.779043 358.825081 
L 360.771749 400.086672 
L 361.764455 346.101641 
L 362.757161 410.495163 
L 363.749867 360.955361 
L 364.742572 366.948776 
L 365.735278 358.443041 
L 366.727984 387.658707 
L 368.713396 408.104303 
L 369.706102 370.122729 
L 370.698808 404.685348 
L 371.691514 375.444345 
L 372.68422 374.414064 
L 373.676926 403.154274 
L 374.669632 371.872113 
L 375.662338 399.150394 
L 376.655044 387.014347 
L 377.64775 409.674106 
L 378.640455 392.525733 
L 379.633161 445.858903 
L 380.625867 391.06514 
L 381.618573 401.850254 
L 382.611279 408.030184 
L 383.603985 401.981829 
L 384.596691 417.773823 
L 385.589397 401.051493 
L 386.582103 411.308529 
L 387.574809 389.296517 
L 388.567515 418.698897 
L 389.560221 417.327959 
L 390.552927 407.317793 
L 391.545632 426.140557 
L 392.538338 415.316157 
L 393.531044 390.000046 
L 394.52375 422.814961 
L 395.516456 391.694155 
L 396.509162 409.554876 
L 397.501868 420.862547 
L 398.494574 386.089522 
L 399.48728 383.710079 
L 400.479986 395.436287 
L 401.472692 402.42722 
L 402.465398 404.157303 
L 403.458104 401.840204 
L 404.450809 428.551176 
L 405.443515 389.907162 
L 406.436221 387.363593 
L 407.428927 380.279652 
L 408.421633 433.839005 
L 409.414339 398.173277 
L 410.407045 378.947646 
L 411.399751 411.140069 
L 412.392457 426.75995 
L 413.385163 377.655713 
L 414.377869 411.914087 
L 415.370575 416.992362 
L 416.363281 401.156007 
L 417.355986 394.365623 
L 418.348692 373.22083 
L 419.341398 414.906071 
L 420.334104 412.355092 
L 421.32681 396.996324 
L 422.319516 390.844553 
L 423.312222 430.560536 
L 424.304928 434.358155 
L 425.297634 402.144382 
L 426.29034 451.770486 
L 427.283046 400.872709 
L 428.275752 400.942172 
L 429.268458 402.593103 
L 430.261163 395.455779 
L 431.253869 408.569173 
L 432.246575 424.790084 
L 433.239281 412.767398 
L 434.231987 408.585395 
L 435.224693 407.268807 
L 436.217399 412.861904 
L 437.210105 411.411113 
L 438.202811 401.821677 
L 439.195517 390.223716 
L 440.188223 415.270308 
L 441.180929 452.56603 
L 442.173635 407.133222 
L 443.166341 415.93249 
L 444.159046 416.112728 
L 445.151752 482.423238 
L 446.144458 449.046392 
L 447.137164 381.895858 
L 448.12987 421.798803 
L 449.122576 419.890346 
L 450.115282 383.593179 
L 451.107988 450.563035 
L 452.100694 416.752955 
L 453.0934 411.572161 
L 454.086106 449.134314 
L 455.078812 420.344682 
L 456.071518 427.377253 
L 457.064223 444.170108 
L 458.056929 391.629232 
L 459.049635 370.874495 
L 460.042341 407.38277 
L 461.035047 434.20592 
L 462.027753 430.932138 
L 463.020459 410.06302 
L 464.013165 417.703553 
L 465.005871 446.18157 
L 465.998577 417.108517 
L 466.991283 397.576621 
L 467.983989 436.193485 
L 468.976695 435.525973 
L 469.9694 397.108365 
L 470.962106 433.866567 
L 471.954812 427.521986 
L 472.947518 416.577733 
L 473.940224 390.955737 
L 474.93293 420.728113 
L 475.925636 398.171593 
L 476.918342 404.897991 
L 477.911048 425.466147 
L 478.903754 401.684164 
L 479.89646 476.407496 
L 480.889166 397.737642 
L 481.881872 397.744076 
L 482.874577 391.190203 
L 483.867283 431.764039 
L 484.859989 396.18427 
L 485.852695 407.515704 
L 486.845401 428.33108 
L 487.838107 465.540028 
L 488.830813 442.12152 
L 489.823519 403.923208 
L 490.816225 400.935164 
L 491.808931 389.507687 
L 492.801637 428.124584 
L 493.794343 402.802597 
L 494.787049 434.103472 
L 495.779754 409.684603 
L 496.77246 401.464898 
L 497.765166 398.94483 
L 498.757872 418.649242 
L 499.750578 401.245585 
L 500.743284 418.085855 
L 501.73599 436.91238 
L 502.728696 414.469398 
L 503.721402 384.075633 
L 504.714108 439.121192 
L 505.706814 409.808119 
L 506.69952 414.745092 
L 507.692226 420.845166 
L 508.684932 423.055519 
L 509.677637 412.192253 
L 510.670343 410.42428 
L 511.663049 408.128748 
L 512.655755 407.070305 
L 513.648461 390.479107 
L 514.641167 429.63583 
L 515.633873 486.268345 
L 516.626579 433.225111 
L 517.619285 453.688408 
L 518.611991 470.677368 
L 519.604697 453.936216 
L 520.597403 491.958322 
L 521.590109 437.082273 
L 522.582814 436.17125 
L 523.57552 392.097201 
L 524.568226 419.004229 
L 525.560932 401.602377 
L 526.553638 457.482282 
L 527.546344 395.772708 
L 528.53905 430.87198 
L 529.531756 414.338275 
L 530.524462 424.188325 
L 531.517168 426.427525 
L 532.509874 409.040611 
L 533.50258 400.390138 
L 534.495286 451.968741 
L 535.487991 409.289844 
L 536.480697 399.95608 
L 537.473403 436.632544 
L 538.466109 389.803441 
L 539.458815 433.105835 
L 540.451521 392.796407 
L 541.444227 452.841986 
L 542.436933 425.494882 
L 543.429639 413.351803 
L 544.422345 392.478098 
L 545.415051 435.763414 
L 546.407757 422.994352 
L 547.400463 399.861282 
L 548.393168 396.997848 
L 549.385874 462.752932 
L 550.37858 430.500181 
L 551.371286 446.130586 
L 552.363992 393.115877 
L 553.356698 417.880493 
L 554.349404 410.395735 
L 555.34211 401.336665 
L 556.334816 407.398594 
L 557.327522 417.22033 
L 558.320228 445.615811 
L 559.312934 413.035788 
L 560.30564 426.982185 
L 561.298345 427.817759 
L 562.291051 440.27181 
L 563.283757 411.169868 
L 564.276463 420.704747 
L 565.269169 399.929214 
L 566.261875 434.487738 
L 567.254581 454.059267 
L 568.247287 450.810796 
L 569.239993 438.970211 
L 570.232699 449.468861 
L 571.225405 417.663931 
L 572.218111 427.318213 
L 573.210817 418.075858 
L 574.203523 391.562336 
L 575.196228 492.48 
L 576.188934 439.289493 
L 577.18164 415.877026 
L 578.174346 417.231382 
L 579.167052 394.095277 
L 580.159758 414.306908 
L 581.152464 415.645246 
L 582.14517 397.413448 
L 585.123288 436.71019 
L 586.115994 454.448472 
L 587.1087 399.433021 
L 588.101405 454.517596 
L 589.094111 478.658743 
L 590.086817 449.359793 
L 591.079523 402.083158 
L 592.072229 442.493225 
L 593.064935 417.501112 
L 594.057641 416.467193 
L 595.050347 412.793716 
L 596.043053 458.760582 
L 597.035759 413.3073 
L 598.028465 449.317555 
L 599.021171 430.319306 
L 600.013877 443.286629 
L 601.006582 411.288047 
L 601.999288 429.716419 
L 602.991994 455.724763 
L 604.977406 431.980203 
L 605.970112 415.847751 
L 606.962818 446.771398 
L 607.955524 468.739721 
L 608.94823 415.800967 
L 609.940936 429.616841 
L 610.933642 431.801353 
L 611.926348 434.261454 
L 612.919054 420.604711 
L 613.911759 427.484355 
L 614.904465 443.610588 
L 615.897171 452.299187 
L 616.889877 441.835832 
L 617.882583 451.91941 
L 618.875289 424.161779 
L 619.867995 434.848862 
L 620.860701 439.25119 
L 621.853407 422.452293 
L 622.846113 421.37486 
L 623.838819 468.116732 
L 624.831525 414.983042 
L 625.824231 436.799876 
L 626.816936 429.92136 
L 627.809642 444.200513 
L 628.802348 449.744172 
L 629.795054 428.218849 
L 630.78776 430.185453 
L 631.780466 442.947458 
L 632.773172 425.316545 
L 633.765878 432.293994 
L 634.758584 451.411114 
L 635.75129 454.962334 
L 636.743996 425.594283 
L 638.729408 460.7043 
L 639.722114 426.696029 
L 640.714819 434.032261 
L 641.707525 435.775526 
L 642.700231 439.599449 
L 643.692937 417.707775 
L 644.685643 441.235778 
L 645.678349 441.039715 
L 646.671055 428.466648 
L 647.663761 446.78451 
L 648.656467 434.77034 
L 649.649173 457.165799 
L 650.641879 445.289087 
L 651.634585 445.804043 
L 652.627291 438.580955 
L 653.619996 433.988314 
L 654.612702 436.155039 
L 655.605408 433.666047 
L 656.598114 446.035525 
L 657.59082 439.590755 
L 658.583526 462.875649 
L 659.576232 436.687511 
L 660.568938 435.510872 
L 661.561644 447.396551 
L 662.55435 428.134625 
L 663.547056 448.365193 
L 664.539762 438.951651 
L 665.532468 442.486902 
L 666.525173 438.010334 
L 667.517879 438.496827 
L 668.510585 441.677161 
L 669.503291 452.257771 
L 670.495997 437.117956 
L 671.488703 447.212582 
L 672.481409 432.741101 
L 673.474115 442.494189 
L 674.466821 449.374053 
L 675.459527 447.452592 
L 676.452233 446.002856 
L 677.444939 454.108864 
L 678.437645 444.058326 
L 679.43035 439.92619 
L 680.423056 441.652125 
L 681.415762 434.698127 
L 682.408468 444.485775 
L 683.401174 439.169851 
L 684.39388 443.350534 
L 685.386586 440.868404 
L 686.379292 440.800555 
L 687.371998 442.802122 
L 688.364704 445.500495 
L 689.35741 446.517913 
L 690.350116 439.922911 
L 691.342822 443.864707 
L 692.335527 444.464461 
L 693.328233 444.656111 
L 694.320939 443.022078 
L 695.313645 439.201936 
L 696.306351 442.202282 
L 697.299057 440.773201 
L 698.291763 447.995608 
L 699.284469 443.783733 
L 700.277175 443.190968 
L 701.269881 446.942761 
L 702.262587 446.533774 
L 703.255293 443.709215 
L 704.247999 448.02143 
L 705.240705 447.470317 
L 706.23341 444.337896 
L 707.226116 448.152649 
L 708.218822 446.605555 
L 709.211528 446.238151 
L 710.204234 443.925584 
L 711.19694 445.190412 
L 712.189646 441.407081 
L 713.182352 445.098459 
L 714.175058 448.142568 
L 715.167764 445.605852 
L 716.16047 443.917816 
L 717.153176 445.167838 
L 718.145882 447.167611 
L 719.138587 443.825706 
L 720.131293 446.473815 
L 721.123999 446.481866 
L 722.116705 444.300242 
L 723.109411 444.919129 
L 724.102117 447.708448 
L 725.094823 448.545212 
L 726.087529 446.057645 
L 727.080235 444.972899 
L 728.072941 447.738137 
L 729.065647 446.343194 
L 730.058353 449.885309 
L 731.051059 448.465027 
L 732.043764 447.567599 
L 733.03647 447.421716 
L 734.029176 450.661328 
L 736.014588 442.493667 
L 737.007294 445.857338 
L 738 447.329304 
L 738.992706 443.883389 
L 740.978118 451.240222 
L 741.970824 448.361408 
L 742.96353 446.021063 
L 743.956236 451.182989 
L 744.948941 448.110559 
L 745.941647 449.506874 
L 746.934353 445.466216 
L 747.927059 448.112436 
L 748.919765 442.083449 
L 749.912471 446.234892 
L 750.905177 445.694499 
L 751.897883 443.740965 
L 752.890589 448.799334 
L 753.883295 448.424415 
L 754.876001 445.140373 
L 755.868707 448.67851 
L 756.861413 447.714457 
L 757.854118 448.120187 
L 758.846824 448.362029 
L 759.83953 448.129188 
L 760.832236 446.865767 
L 761.824942 447.322875 
L 762.817648 447.538567 
L 763.810354 448.143537 
L 764.80306 449.061047 
L 765.795766 447.235238 
L 766.788472 445.03991 
L 767.781178 447.838994 
L 768.773884 449.676482 
L 769.76659 448.100035 
L 771.752001 452.351172 
L 772.744707 449.906531 
L 773.737413 448.129544 
L 774.730119 449.469464 
L 775.722825 448.368115 
L 776.715531 451.924535 
L 777.708237 450.609965 
L 778.700943 450.632594 
L 779.693649 447.375274 
L 780.686355 450.180264 
L 781.679061 451.925703 
L 782.671767 450.925186 
L 783.664473 448.812277 
L 784.657178 448.821615 
L 785.649884 446.758233 
L 786.64259 449.989104 
L 787.635296 447.595201 
L 788.628002 450.05848 
L 789.620708 449.546373 
L 790.613414 449.61903 
L 791.60612 450.635338 
L 792.598826 449.249334 
L 793.591532 450.396513 
L 794.584238 447.758109 
L 795.576944 450.080364 
L 796.56965 449.736202 
L 797.562355 448.748132 
L 798.555061 447.352496 
L 799.547767 450.08249 
L 800.540473 452.316609 
L 801.533179 449.873037 
L 802.525885 450.979571 
L 803.518591 450.373675 
L 804.511297 452.960603 
L 805.504003 447.896019 
L 806.496709 451.344405 
L 807.489415 451.206875 
L 808.482121 448.488304 
L 809.474827 451.660082 
L 810.467532 452.423754 
L 811.460238 450.483328 
L 812.452944 454.171579 
L 813.44565 448.733276 
L 814.438356 449.89171 
L 815.431062 453.589285 
L 816.423768 454.253045 
L 817.416474 449.723852 
L 818.40918 449.368484 
L 819.401886 447.658354 
L 820.394592 450.487723 
L 821.387298 450.211651 
L 822.380004 448.265062 
L 823.372709 451.118842 
L 824.365415 452.099299 
L 825.358121 450.67363 
L 826.350827 451.607451 
L 827.343533 448.775522 
L 828.336239 450.460123 
L 829.328945 453.222148 
L 830.321651 451.075851 
L 831.314357 452.58507 
L 832.307063 451.173474 
L 833.299769 451.106469 
L 834.292475 451.320887 
L 835.285181 453.492648 
L 836.277886 452.810859 
L 837.270592 453.82771 
L 838.263298 453.191008 
L 839.256004 456.370651 
L 840.24871 453.601924 
L 841.241416 449.736964 
L 842.234122 449.351486 
L 843.226828 453.267818 
L 844.219534 453.371902 
L 845.21224 449.321951 
L 846.204946 457.078958 
L 847.197652 453.712679 
L 848.190358 451.871059 
L 849.183064 453.030215 
L 850.175769 454.471978 
L 852.161181 450.586696 
L 853.153887 455.996644 
L 854.146593 454.618007 
L 855.139299 454.104745 
L 856.132005 457.36613 
L 857.124711 454.158248 
L 858.117417 453.923569 
L 859.110123 452.012556 
L 860.102829 451.979823 
L 861.095535 454.082716 
L 862.088241 452.904529 
L 863.080946 454.012571 
L 864.073652 453.134535 
L 865.066358 452.850901 
L 866.059064 458.319154 
L 867.05177 455.007676 
L 868.044476 456.307481 
L 869.037182 454.347043 
L 870.029888 454.070975 
L 871.022594 453.92548 
L 872.0153 454.34854 
L 873.008006 455.188543 
L 874.000712 449.11094 
L 874.993418 452.839327 
L 875.986123 453.178992 
L 876.978829 454.313499 
L 877.971535 457.306922 
L 878.964241 454.393309 
L 879.956947 456.869814 
L 880.949653 455.094063 
L 881.942359 449.247625 
L 882.935065 453.004603 
L 883.927771 456.312847 
L 884.920477 452.761038 
L 885.913183 452.86446 
L 886.905889 455.770727 
L 887.898595 456.021147 
L 888.8913 455.902724 
L 889.884006 455.552279 
L 890.876712 455.648865 
L 892.862124 452.0181 
L 893.85483 453.672 
L 894.847536 457.483569 
L 895.840242 454.122633 
L 896.832948 454.862722 
L 897.825654 453.471068 
L 899.811066 455.427672 
L 900.803772 455.113564 
L 901.796477 453.550134 
L 902.789183 455.26444 
L 903.781889 452.271799 
L 904.774595 455.85241 
L 905.767301 455.52325 
L 906.760007 451.184015 
L 907.752713 457.068441 
L 908.745419 457.016831 
L 909.738125 456.447525 
L 910.730831 456.678002 
L 911.723537 453.480514 
L 912.716243 454.106824 
L 913.708949 455.164719 
L 914.701655 458.529486 
L 915.69436 457.539734 
L 916.687066 458.317658 
L 917.679772 449.830446 
L 918.672478 456.307109 
L 919.665184 457.496304 
L 920.65789 457.967098 
L 921.650596 453.940718 
L 922.643302 453.57985 
L 923.636008 457.067711 
L 924.628714 456.668201 
L 925.62142 456.641761 
L 926.614126 456.077423 
L 927.606832 457.619638 
L 928.599537 458.149328 
L 929.592243 457.791663 
L 930.584949 454.94477 
L 931.577655 455.819031 
L 932.570361 454.11268 
L 933.563067 454.556354 
L 934.555773 456.865551 
L 935.548479 453.595137 
L 936.541185 457.923813 
L 937.533891 455.205149 
L 939.519303 459.538669 
L 940.512009 458.9487 
L 941.504714 455.889602 
L 942.49742 458.414846 
L 943.490126 454.295523 
L 944.482832 459.76873 
L 945.475538 454.911439 
L 946.468244 457.189689 
L 947.46095 455.145462 
L 948.453656 456.070217 
L 949.446362 460.183914 
L 950.439068 457.103448 
L 951.431774 457.368327 
L 953.417186 454.216545 
L 954.409891 457.606796 
L 955.402597 456.46715 
L 956.395303 454.739678 
L 957.388009 456.201348 
L 958.380715 457.233417 
L 959.373421 456.481772 
L 960.366127 455.293726 
L 961.358833 455.730288 
L 962.351539 458.054892 
L 963.344245 458.51897 
L 964.336951 458.783667 
L 965.329657 454.47568 
L 966.322363 455.846629 
L 967.315068 455.247876 
L 968.307774 457.093073 
L 969.30048 457.363676 
L 970.293186 459.738017 
L 972.278598 456.544236 
L 973.271304 461.364804 
L 974.26401 455.176272 
L 975.256716 457.212449 
L 976.249422 457.282548 
L 977.242128 456.168548 
L 978.234834 459.31939 
L 979.22754 456.032294 
L 980.220246 457.76193 
L 981.212951 461.236777 
L 982.205657 457.683954 
L 983.198363 457.658504 
L 984.191069 455.918972 
L 985.183775 456.495184 
L 986.176481 456.539836 
L 987.169187 454.104083 
L 988.161893 456.171581 
L 989.154599 456.577703 
L 990.147305 460.533903 
L 991.140011 454.179715 
L 992.132717 454.893517 
L 993.125423 454.912382 
L 994.118128 454.579531 
L 995.110834 461.050848 
L 996.10354 460.788859 
L 997.096246 458.213833 
L 998.088952 459.961375 
L 999.081658 456.867623 
L 1000.074364 458.318173 
L 1001.06707 457.809096 
L 1002.059776 460.03798 
L 1003.052482 457.548087 
L 1004.045188 455.610888 
L 1005.037894 457.272414 
L 1006.0306 460.110089 
L 1007.023305 455.039188 
L 1008.016011 455.498371 
L 1009.008717 462.696696 
L 1010.001423 459.990477 
L 1010.994129 459.083884 
L 1011.986835 458.661739 
L 1012.979541 460.278194 
L 1013.972247 453.939014 
L 1015.957659 457.428235 
L 1016.950365 453.121314 
L 1017.943071 457.805005 
L 1018.935777 460.476463 
L 1019.928482 458.822809 
L 1020.921188 457.759461 
L 1021.913894 459.771889 
L 1022.9066 458.557277 
L 1023.899306 456.244241 
L 1024.892012 460.109037 
L 1025.884718 459.84756 
L 1026.877424 458.08371 
L 1027.87013 459.918431 
L 1028.862836 456.873686 
L 1029.855542 459.115962 
L 1030.848248 458.639782 
L 1031.840954 455.224692 
L 1032.833659 462.613678 
L 1033.826365 462.136761 
L 1034.819071 463.085342 
L 1035.811777 457.73672 
L 1036.804483 457.266241 
L 1037.797189 459.818621 
L 1038.789895 458.350273 
L 1039.782601 461.504199 
L 1040.775307 459.174519 
L 1041.768013 461.743781 
L 1042.760719 458.630181 
L 1043.753425 459.402286 
L 1044.746131 458.788973 
L 1045.738837 458.969719 
L 1046.731542 459.638297 
L 1047.724248 461.095782 
L 1048.716954 457.775192 
L 1049.70966 458.990567 
L 1050.702366 457.299724 
L 1051.695072 461.667314 
L 1052.687778 458.004903 
L 1053.680484 457.671189 
L 1054.67319 461.983494 
L 1055.665896 462.211537 
L 1056.658602 456.898266 
L 1057.651308 458.260789 
L 1058.644014 459.019918 
L 1059.636719 459.556362 
L 1060.629425 458.321469 
L 1061.622131 460.037287 
L 1062.614837 461.230336 
L 1063.607543 463.215804 
L 1064.600249 460.857296 
L 1065.592955 460.496205 
L 1066.585661 457.730815 
L 1067.578367 458.343751 
L 1068.571073 463.717092 
L 1069.563779 463.797591 
L 1070.556485 456.883645 
L 1071.549191 459.621804 
L 1072.541896 454.7691 
L 1073.534602 457.64377 
L 1074.527308 459.072318 
L 1075.520014 457.925338 
L 1076.51272 457.478565 
L 1077.505426 464.268049 
L 1078.498132 458.32778 
L 1079.490838 456.707566 
L 1080.483544 461.931904 
L 1081.47625 462.305509 
L 1082.468956 459.866698 
L 1083.461662 458.63255 
L 1084.454368 460.712455 
L 1085.447073 461.245722 
L 1086.439779 460.684885 
L 1087.432485 460.30281 
L 1088.425191 466.652017 
L 1089.417897 460.536752 
L 1090.410603 461.928703 
L 1091.403309 459.458699 
L 1092.396015 459.905931 
L 1093.388721 457.595696 
L 1094.381427 462.752926 
L 1095.374133 460.851223 
L 1096.366839 457.792207 
L 1097.359545 461.763805 
L 1098.35225 460.112523 
L 1099.344956 460.028715 
L 1100.337662 458.744915 
L 1101.330368 460.442393 
L 1102.323074 457.608872 
L 1103.31578 464.454102 
L 1104.308486 462.26571 
L 1105.301192 458.326207 
L 1106.293898 460.389903 
L 1107.286604 459.571874 
L 1108.27931 459.099522 
L 1109.272016 463.583516 
L 1110.264722 460.035311 
L 1111.257428 457.934665 
L 1112.250133 459.308767 
L 1113.242839 465.221454 
L 1114.235545 461.709276 
L 1115.228251 462.799225 
L 1116.220957 460.52029 
L 1117.213663 455.3926 
L 1118.206369 460.154245 
L 1119.199075 461.708206 
L 1120.191781 462.278919 
L 1121.184487 458.730411 
L 1122.177193 461.509649 
L 1124.162605 459.097182 
L 1125.15531 462.181575 
L 1126.148016 460.231163 
L 1127.140722 460.34037 
L 1128.133428 463.054663 
L 1129.126134 463.045433 
L 1130.11884 460.188235 
L 1131.111546 460.419123 
L 1132.104252 459.998986 
L 1133.096958 460.352151 
L 1134.089664 461.858868 
L 1135.08237 462.457958 
L 1136.075076 460.703892 
L 1137.067782 459.891426 
L 1138.060487 461.365252 
L 1139.053193 463.351515 
L 1140.045899 456.891567 
L 1141.038605 463.815548 
L 1142.031311 461.979794 
L 1143.024017 460.785828 
L 1144.016723 460.819877 
L 1145.009429 461.852608 
L 1146.002135 463.497571 
L 1146.994841 457.654069 
L 1147.987547 461.833031 
L 1148.980253 458.714666 
L 1149.972959 461.630468 
L 1150.965664 460.177041 
L 1151.95837 461.502952 
L 1152.951076 463.83576 
L 1153.943782 459.514668 
L 1154.936488 462.343447 
L 1155.929194 459.983318 
L 1156.9219 461.936125 
L 1157.914606 460.872914 
L 1158.907312 460.458841 
L 1159.900018 459.832716 
L 1160.892724 460.633314 
L 1161.88543 461.951138 
L 1162.878136 463.670506 
L 1163.870841 459.538158 
L 1164.863547 459.210629 
L 1165.856253 459.685948 
L 1166.848959 461.493273 
L 1167.841665 457.094204 
L 1168.834371 459.947257 
L 1169.827077 464.196742 
L 1171.812489 461.358741 
L 1172.805195 464.3555 
L 1173.797901 465.116474 
L 1174.790607 459.374871 
L 1175.783313 462.618661 
L 1176.776019 463.428923 
L 1177.768724 458.011511 
L 1178.76143 461.884636 
L 1179.754136 456.086475 
L 1180.746842 460.032477 
L 1181.739548 461.902072 
L 1182.732254 462.539736 
L 1183.72496 458.445429 
L 1184.717666 458.557533 
L 1185.710372 462.352078 
L 1186.703078 460.74837 
L 1187.695784 457.870297 
L 1188.68849 456.826292 
L 1189.681196 458.702115 
L 1190.673901 458.296764 
L 1191.666607 458.945716 
L 1192.659313 458.934177 
L 1194.644725 465.34872 
L 1195.637431 459.393406 
L 1196.630137 462.512567 
L 1197.622843 463.537991 
L 1198.615549 455.96927 
L 1199.608255 458.101699 
L 1200.600961 462.127504 
L 1201.593667 458.078623 
L 1202.586373 459.988376 
L 1203.579078 466.970791 
L 1204.571784 460.096985 
L 1205.56449 460.654968 
L 1206.557196 459.873681 
L 1207.549902 456.796514 
L 1208.542608 463.180422 
L 1209.535314 460.539494 
L 1210.52802 461.715968 
L 1211.520726 459.427028 
L 1212.513432 458.912918 
L 1213.506138 462.398829 
L 1214.498844 464.648288 
L 1215.49155 461.082241 
L 1216.484255 461.355674 
L 1217.476961 460.372172 
L 1219.462373 461.135243 
L 1220.455079 458.923023 
L 1221.447785 462.765729 
L 1222.440491 459.081557 
L 1223.433197 460.257103 
L 1224.425903 463.435423 
L 1225.418609 462.053405 
L 1226.411315 462.257813 
L 1227.404021 462.179665 
L 1228.396727 458.569802 
L 1229.389432 466.206805 
L 1230.382138 460.924493 
L 1231.374844 461.430574 
L 1232.36755 460.279424 
L 1233.360256 457.377969 
L 1234.352962 462.167969 
L 1235.345668 463.404438 
L 1236.338374 459.358014 
L 1237.33108 463.30868 
L 1238.323786 459.003545 
L 1239.316492 464.422498 
L 1240.309198 460.535197 
L 1241.301904 462.154126 
L 1242.29461 461.71046 
L 1243.287315 459.513065 
L 1244.280021 462.32021 
L 1245.272727 463.254361 
L 1245.272727 463.254361 
" clip-path="url(#p5d558bbdde)" style="fill: none; stroke: #1f77b4; stroke-width: 1.5; stroke-linecap: square"/>
   </g>
   <g id="patch_3">
    <path d="M 180 512.64 
L 180 69.12 
" style="fill: none; stroke: #000000; stroke-width: 0.8; stroke-linejoin: miter; stroke-linecap: square"/>
   </g>
   <g id="patch_4">
    <path d="M 1296 512.64 
L 1296 69.12 
" style="fill: none; stroke: #000000; stroke-width: 0.8; stroke-linejoin: miter; stroke-linecap: square"/>
   </g>
   <g id="patch_5">
    <path d="M 180 512.64 
L 1296 512.64 
" style="fill: none; stroke: #000000; stroke-width: 0.8; stroke-linejoin: miter; stroke-linecap: square"/>
   </g>
   <g id="patch_6">
    <path d="M 180 69.12 
L 1296 69.12 
" style="fill: none; stroke: #000000; stroke-width: 0.8; stroke-linejoin: miter; stroke-linecap: square"/>
   </g>
   <g id="text_12">
    <!-- source10-receiver11 -->
    <g transform="translate(532.175 60.80125) scale(0.4 -0.4)">
     <defs>
      <path id="DejaVuSans-73" d="M 2834 3397 
L 2834 2853 
Q 2591 2978 2328 3040 
Q 2066 3103 1784 3103 
Q 1356 3103 1142 2972 
Q 928 2841 928 2578 
Q 928 2378 1081 2264 
Q 1234 2150 1697 2047 
L 1894 2003 
Q 2506 1872 2764 1633 
Q 3022 1394 3022 966 
Q 3022 478 2636 193 
Q 2250 -91 1575 -91 
Q 1294 -91 989 -36 
Q 684 19 347 128 
L 347 722 
Q 666 556 975 473 
Q 1284 391 1588 391 
Q 1994 391 2212 530 
Q 2431 669 2431 922 
Q 2431 1156 2273 1281 
Q 2116 1406 1581 1522 
L 1381 1569 
Q 847 1681 609 1914 
Q 372 2147 372 2553 
Q 372 3047 722 3315 
Q 1072 3584 1716 3584 
Q 2034 3584 2315 3537 
Q 2597 3491 2834 3397 
z
" transform="scale(0.015625)"/>
      <path id="DejaVuSans-6f" d="M 1959 3097 
Q 1497 3097 1228 2736 
Q 959 2375 959 1747 
Q 959 1119 1226 758 
Q 1494 397 1959 397 
Q 2419 397 2687 759 
Q 2956 1122 2956 1747 
Q 2956 2369 2687 2733 
Q 2419 3097 1959 3097 
z
M 1959 3584 
Q 2709 3584 3137 3096 
Q 3566 2609 3566 1747 
Q 3566 888 3137 398 
Q 2709 -91 1959 -91 
Q 1206 -91 779 398 
Q 353 888 353 1747 
Q 353 2609 779 3096 
Q 1206 3584 1959 3584 
z
" transform="scale(0.015625)"/>
      <path id="DejaVuSans-75" d="M 544 1381 
L 544 3500 
L 1119 3500 
L 1119 1403 
Q 1119 906 1312 657 
Q 1506 409 1894 409 
Q 2359 409 2629 706 
Q 2900 1003 2900 1516 
L 2900 3500 
L 3475 3500 
L 3475 0 
L 2900 0 
L 2900 538 
Q 2691 219 2414 64 
Q 2138 -91 1772 -91 
Q 1169 -91 856 284 
Q 544 659 544 1381 
z
M 1991 3584 
L 1991 3584 
z
" transform="scale(0.015625)"/>
      <path id="DejaVuSans-72" d="M 2631 2963 
Q 2534 3019 2420 3045 
Q 2306 3072 2169 3072 
Q 1681 3072 1420 2755 
Q 1159 2438 1159 1844 
L 1159 0 
L 581 0 
L 581 3500 
L 1159 3500 
L 1159 2956 
Q 1341 3275 1631 3429 
Q 1922 3584 2338 3584 
Q 2397 3584 2469 3576 
Q 2541 3569 2628 3553 
L 2631 2963 
z
" transform="scale(0.015625)"/>
      <path id="DejaVuSans-63" d="M 3122 3366 
L 3122 2828 
Q 2878 2963 2633 3030 
Q 2388 3097 2138 3097 
Q 1578 3097 1268 2742 
Q 959 2388 959 1747 
Q 959 1106 1268 751 
Q 1578 397 2138 397 
Q 2388 397 2633 464 
Q 2878 531 3122 666 
L 3122 134 
Q 2881 22 2623 -34 
Q 2366 -91 2075 -91 
Q 1284 -91 818 406 
Q 353 903 353 1747 
Q 353 2603 823 3093 
Q 1294 3584 2113 3584 
Q 2378 3584 2631 3529 
Q 2884 3475 3122 3366 
z
" transform="scale(0.015625)"/>
      <path id="DejaVuSans-65" d="M 3597 1894 
L 3597 1613 
L 953 1613 
Q 991 1019 1311 708 
Q 1631 397 2203 397 
Q 2534 397 2845 478 
Q 3156 559 3463 722 
L 3463 178 
Q 3153 47 2828 -22 
Q 2503 -91 2169 -91 
Q 1331 -91 842 396 
Q 353 884 353 1716 
Q 353 2575 817 3079 
Q 1281 3584 2069 3584 
Q 2775 3584 3186 3129 
Q 3597 2675 3597 1894 
z
M 3022 2063 
Q 3016 2534 2758 2815 
Q 2500 3097 2075 3097 
Q 1594 3097 1305 2825 
Q 1016 2553 972 2059 
L 3022 2063 
z
" transform="scale(0.015625)"/>
      <path id="DejaVuSans-2d" d="M 313 2009 
L 1997 2009 
L 1997 1497 
L 313 1497 
L 313 2009 
z
" transform="scale(0.015625)"/>
      <path id="DejaVuSans-69" d="M 603 3500 
L 1178 3500 
L 1178 0 
L 603 0 
L 603 3500 
z
M 603 4863 
L 1178 4863 
L 1178 4134 
L 603 4134 
L 603 4863 
z
" transform="scale(0.015625)"/>
      <path id="DejaVuSans-76" d="M 191 3500 
L 800 3500 
L 1894 563 
L 2988 3500 
L 3597 3500 
L 2284 0 
L 1503 0 
L 191 3500 
z
" transform="scale(0.015625)"/>
     </defs>
     <use xlink:href="#DejaVuSans-73"/>
     <use xlink:href="#DejaVuSans-6f" x="52.099609"/>
     <use xlink:href="#DejaVuSans-75" x="113.28125"/>
     <use xlink:href="#DejaVuSans-72" x="176.660156"/>
     <use xlink:href="#DejaVuSans-63" x="215.523438"/>
     <use xlink:href="#DejaVuSans-65" x="270.503906"/>
     <use xlink:href="#DejaVuSans-31" x="332.027344"/>
     <use xlink:href="#DejaVuSans-30" x="395.650391"/>
     <use xlink:href="#DejaVuSans-2d" x="459.273438"/>
     <use xlink:href="#DejaVuSans-72" x="495.357422"/>
     <use xlink:href="#DejaVuSans-65" x="534.220703"/>
     <use xlink:href="#DejaVuSans-63" x="595.744141"/>
     <use xlink:href="#DejaVuSans-65" x="650.724609"/>
     <use xlink:href="#DejaVuSans-69" x="712.248047"/>
     <use xlink:href="#DejaVuSans-76" x="740.03125"/>
     <use xlink:href="#DejaVuSans-65" x="799.210938"/>
     <use xlink:href="#DejaVuSans-72" x="860.734375"/>
     <use xlink:href="#DejaVuSans-31" x="901.847656"/>
     <use xlink:href="#DejaVuSans-31" x="965.470703"/>
    </g>
   </g>
  </g>
 </g>
 <defs>
  <clipPath id="p5d558bbdde">
   <rect x="180" y="69.12" width="1116" height="443.52"/>
  </clipPath>
 </defs>
</svg>
