<?xml version="1.0" encoding="utf-8" standalone="no"?>
<!DOCTYPE svg PUBLIC "-//W3C//DTD SVG 1.1//EN"
  "http://www.w3.org/Graphics/SVG/1.1/DTD/svg11.dtd">
<svg xmlns:xlink="http://www.w3.org/1999/xlink" width="1440pt" height="576pt" viewBox="0 0 1440 576" xmlns="http://www.w3.org/2000/svg" version="1.1">
 <metadata>
  <rdf:RDF xmlns:dc="http://purl.org/dc/elements/1.1/" xmlns:cc="http://creativecommons.org/ns#" xmlns:rdf="http://www.w3.org/1999/02/22-rdf-syntax-ns#">
   <cc:Work>
    <dc:type rdf:resource="http://purl.org/dc/dcmitype/StillImage"/>
    <dc:date>2024-05-22T04:49:57.026350</dc:date>
    <dc:format>image/svg+xml</dc:format>
    <dc:creator>
     <cc:Agent>
      <dc:title>Matplotlib v3.8.3, https://matplotlib.org/</dc:title>
     </cc:Agent>
    </dc:creator>
   </cc:Work>
  </rdf:RDF>
 </metadata>
 <defs>
  <style type="text/css">*{stroke-linejoin: round; stroke-linecap: butt}</style>
 </defs>
 <g id="figure_1">
  <g id="patch_1">
   <path d="M 0 576 
L 1440 576 
L 1440 0 
L 0 0 
z
" style="fill: #ffffff"/>
  </g>
  <g id="axes_1">
   <g id="patch_2">
    <path d="M 180 512.64 
L 1296 512.64 
L 1296 69.12 
L 180 69.12 
z
" style="fill: #ffffff"/>
   </g>
   <g id="matplotlib.axis_1">
    <g id="xtick_1">
     <g id="line2d_1">
      <defs>
       <path id="meee3af0e3b" d="M 0 0 
L 0 3.5 
" style="stroke: #000000; stroke-width: 0.8"/>
      </defs>
      <g>
       <use xlink:href="#meee3af0e3b" x="229.734567" y="512.64" style="stroke: #000000; stroke-width: 0.8"/>
      </g>
     </g>
     <g id="text_1">
      <!-- 0 -->
      <g transform="translate(226.553317 527.238438) scale(0.1 -0.1)">
       <defs>
        <path id="DejaVuSans-30" d="M 2034 4250 
Q 1547 4250 1301 3770 
Q 1056 3291 1056 2328 
Q 1056 1369 1301 889 
Q 1547 409 2034 409 
Q 2525 409 2770 889 
Q 3016 1369 3016 2328 
Q 3016 3291 2770 3770 
Q 2525 4250 2034 4250 
z
M 2034 4750 
Q 2819 4750 3233 4129 
Q 3647 3509 3647 2328 
Q 3647 1150 3233 529 
Q 2819 -91 2034 -91 
Q 1250 -91 836 529 
Q 422 1150 422 2328 
Q 422 3509 836 4129 
Q 1250 4750 2034 4750 
z
" transform="scale(0.015625)"/>
       </defs>
       <use xlink:href="#DejaVuSans-30"/>
      </g>
     </g>
    </g>
    <g id="xtick_2">
     <g id="line2d_2">
      <g>
       <use xlink:href="#meee3af0e3b" x="433.04074" y="512.64" style="stroke: #000000; stroke-width: 0.8"/>
      </g>
     </g>
     <g id="text_2">
      <!-- 500 -->
      <g transform="translate(423.49699 527.238438) scale(0.1 -0.1)">
       <defs>
        <path id="DejaVuSans-35" d="M 691 4666 
L 3169 4666 
L 3169 4134 
L 1269 4134 
L 1269 2991 
Q 1406 3038 1543 3061 
Q 1681 3084 1819 3084 
Q 2600 3084 3056 2656 
Q 3513 2228 3513 1497 
Q 3513 744 3044 326 
Q 2575 -91 1722 -91 
Q 1428 -91 1123 -41 
Q 819 9 494 109 
L 494 744 
Q 775 591 1075 516 
Q 1375 441 1709 441 
Q 2250 441 2565 725 
Q 2881 1009 2881 1497 
Q 2881 1984 2565 2268 
Q 2250 2553 1709 2553 
Q 1456 2553 1204 2497 
Q 953 2441 691 2322 
L 691 4666 
z
" transform="scale(0.015625)"/>
       </defs>
       <use xlink:href="#DejaVuSans-35"/>
       <use xlink:href="#DejaVuSans-30" x="63.623047"/>
       <use xlink:href="#DejaVuSans-30" x="127.246094"/>
      </g>
     </g>
    </g>
    <g id="xtick_3">
     <g id="line2d_3">
      <g>
       <use xlink:href="#meee3af0e3b" x="636.346913" y="512.64" style="stroke: #000000; stroke-width: 0.8"/>
      </g>
     </g>
     <g id="text_3">
      <!-- 1000 -->
      <g transform="translate(623.621913 527.238438) scale(0.1 -0.1)">
       <defs>
        <path id="DejaVuSans-31" d="M 794 531 
L 1825 531 
L 1825 4091 
L 703 3866 
L 703 4441 
L 1819 4666 
L 2450 4666 
L 2450 531 
L 3481 531 
L 3481 0 
L 794 0 
L 794 531 
z
" transform="scale(0.015625)"/>
       </defs>
       <use xlink:href="#DejaVuSans-31"/>
       <use xlink:href="#DejaVuSans-30" x="63.623047"/>
       <use xlink:href="#DejaVuSans-30" x="127.246094"/>
       <use xlink:href="#DejaVuSans-30" x="190.869141"/>
      </g>
     </g>
    </g>
    <g id="xtick_4">
     <g id="line2d_4">
      <g>
       <use xlink:href="#meee3af0e3b" x="839.653087" y="512.64" style="stroke: #000000; stroke-width: 0.8"/>
      </g>
     </g>
     <g id="text_4">
      <!-- 1500 -->
      <g transform="translate(826.928087 527.238438) scale(0.1 -0.1)">
       <use xlink:href="#DejaVuSans-31"/>
       <use xlink:href="#DejaVuSans-35" x="63.623047"/>
       <use xlink:href="#DejaVuSans-30" x="127.246094"/>
       <use xlink:href="#DejaVuSans-30" x="190.869141"/>
      </g>
     </g>
    </g>
    <g id="xtick_5">
     <g id="line2d_5">
      <g>
       <use xlink:href="#meee3af0e3b" x="1042.95926" y="512.64" style="stroke: #000000; stroke-width: 0.8"/>
      </g>
     </g>
     <g id="text_5">
      <!-- 2000 -->
      <g transform="translate(1030.23426 527.238438) scale(0.1 -0.1)">
       <defs>
        <path id="DejaVuSans-32" d="M 1228 531 
L 3431 531 
L 3431 0 
L 469 0 
L 469 531 
Q 828 903 1448 1529 
Q 2069 2156 2228 2338 
Q 2531 2678 2651 2914 
Q 2772 3150 2772 3378 
Q 2772 3750 2511 3984 
Q 2250 4219 1831 4219 
Q 1534 4219 1204 4116 
Q 875 4013 500 3803 
L 500 4441 
Q 881 4594 1212 4672 
Q 1544 4750 1819 4750 
Q 2544 4750 2975 4387 
Q 3406 4025 3406 3419 
Q 3406 3131 3298 2873 
Q 3191 2616 2906 2266 
Q 2828 2175 2409 1742 
Q 1991 1309 1228 531 
z
" transform="scale(0.015625)"/>
       </defs>
       <use xlink:href="#DejaVuSans-32"/>
       <use xlink:href="#DejaVuSans-30" x="63.623047"/>
       <use xlink:href="#DejaVuSans-30" x="127.246094"/>
       <use xlink:href="#DejaVuSans-30" x="190.869141"/>
      </g>
     </g>
    </g>
    <g id="xtick_6">
     <g id="line2d_6">
      <g>
       <use xlink:href="#meee3af0e3b" x="1246.265433" y="512.64" style="stroke: #000000; stroke-width: 0.8"/>
      </g>
     </g>
     <g id="text_6">
      <!-- 2500 -->
      <g transform="translate(1233.540433 527.238438) scale(0.1 -0.1)">
       <use xlink:href="#DejaVuSans-32"/>
       <use xlink:href="#DejaVuSans-35" x="63.623047"/>
       <use xlink:href="#DejaVuSans-30" x="127.246094"/>
       <use xlink:href="#DejaVuSans-30" x="190.869141"/>
      </g>
     </g>
    </g>
   </g>
   <g id="matplotlib.axis_2">
    <g id="ytick_1">
     <g id="line2d_7">
      <defs>
       <path id="ma235f51730" d="M 0 0 
L -3.5 0 
" style="stroke: #000000; stroke-width: 0.8"/>
      </defs>
      <g>
       <use xlink:href="#ma235f51730" x="180" y="475.679315" style="stroke: #000000; stroke-width: 0.8"/>
      </g>
     </g>
     <g id="text_7">
      <!-- −4 -->
      <g transform="translate(158.257812 479.478534) scale(0.1 -0.1)">
       <defs>
        <path id="DejaVuSans-2212" d="M 678 2272 
L 4684 2272 
L 4684 1741 
L 678 1741 
L 678 2272 
z
" transform="scale(0.015625)"/>
        <path id="DejaVuSans-34" d="M 2419 4116 
L 825 1625 
L 2419 1625 
L 2419 4116 
z
M 2253 4666 
L 3047 4666 
L 3047 1625 
L 3713 1625 
L 3713 1100 
L 3047 1100 
L 3047 0 
L 2419 0 
L 2419 1100 
L 313 1100 
L 313 1709 
L 2253 4666 
z
" transform="scale(0.015625)"/>
       </defs>
       <use xlink:href="#DejaVuSans-2212"/>
       <use xlink:href="#DejaVuSans-34" x="83.789062"/>
      </g>
     </g>
    </g>
    <g id="ytick_2">
     <g id="line2d_8">
      <g>
       <use xlink:href="#ma235f51730" x="180" y="381.153622" style="stroke: #000000; stroke-width: 0.8"/>
      </g>
     </g>
     <g id="text_8">
      <!-- −2 -->
      <g transform="translate(158.257812 384.952841) scale(0.1 -0.1)">
       <use xlink:href="#DejaVuSans-2212"/>
       <use xlink:href="#DejaVuSans-32" x="83.789062"/>
      </g>
     </g>
    </g>
    <g id="ytick_3">
     <g id="line2d_9">
      <g>
       <use xlink:href="#ma235f51730" x="180" y="286.62793" style="stroke: #000000; stroke-width: 0.8"/>
      </g>
     </g>
     <g id="text_9">
      <!-- 0 -->
      <g transform="translate(166.6375 290.427148) scale(0.1 -0.1)">
       <use xlink:href="#DejaVuSans-30"/>
      </g>
     </g>
    </g>
    <g id="ytick_4">
     <g id="line2d_10">
      <g>
       <use xlink:href="#ma235f51730" x="180" y="192.102237" style="stroke: #000000; stroke-width: 0.8"/>
      </g>
     </g>
     <g id="text_10">
      <!-- 2 -->
      <g transform="translate(166.6375 195.901456) scale(0.1 -0.1)">
       <use xlink:href="#DejaVuSans-32"/>
      </g>
     </g>
    </g>
    <g id="ytick_5">
     <g id="line2d_11">
      <g>
       <use xlink:href="#ma235f51730" x="180" y="97.576544" style="stroke: #000000; stroke-width: 0.8"/>
      </g>
     </g>
     <g id="text_11">
      <!-- 4 -->
      <g transform="translate(166.6375 101.375763) scale(0.1 -0.1)">
       <use xlink:href="#DejaVuSans-34"/>
      </g>
     </g>
    </g>
   </g>
   <g id="line2d_12">
    <path d="M 230.727273 373.805167 
L 231.719979 372.945219 
L 232.712685 371.685209 
L 233.70539 370.659087 
L 234.698096 369.021629 
L 235.690802 366.459955 
L 236.683508 364.726189 
L 237.676214 361.212338 
L 238.66892 358.652896 
L 239.661626 355.104316 
L 241.647038 346.775303 
L 242.639744 341.886085 
L 244.625156 330.98697 
L 245.617862 327.705761 
L 246.610568 322.169358 
L 247.603273 301.811558 
L 248.595979 271.831753 
L 249.588685 245.348339 
L 250.581391 227.170524 
L 251.574097 213.690357 
L 252.566803 202.987385 
L 253.559509 194.52227 
L 254.552215 187.243262 
L 255.544921 181.148582 
L 256.537627 173.918319 
L 257.530333 167.650491 
L 258.523039 160.170106 
L 259.515745 154.368137 
L 260.50845 153.167095 
L 261.501156 158.722106 
L 262.493862 174.016104 
L 263.486568 201.013559 
L 264.479274 203.228666 
L 265.47198 185.959686 
L 266.464686 182.45984 
L 267.457392 194.624804 
L 268.450098 229.217036 
L 269.442804 235.24706 
L 270.43551 199.587884 
L 271.428216 185.171676 
L 272.420922 179.165877 
L 273.413627 175.494882 
L 274.406333 163.929544 
L 276.391745 125.038568 
L 277.384451 109.462665 
L 278.377157 98.576943 
L 279.369863 91.975737 
L 280.362569 89.28 
L 281.355275 89.850734 
L 282.347981 92.279607 
L 283.340687 94.211633 
L 284.333393 94.16461 
L 285.326099 93.368033 
L 286.318804 95.316095 
L 287.31151 101.239424 
L 288.304216 113.269819 
L 289.296922 129.939312 
L 290.289628 144.146585 
L 291.282334 148.048396 
L 292.27504 150.144636 
L 293.267746 157.42346 
L 294.260452 173.019544 
L 295.253158 196.694922 
L 296.245864 210.506868 
L 297.23857 200.327615 
L 298.231276 197.724207 
L 300.216687 217.019591 
L 301.209393 213.175239 
L 302.202099 212.307056 
L 303.194805 225.116118 
L 304.187511 255.643682 
L 305.180217 261.042589 
L 306.172923 248.078221 
L 307.165629 255.037814 
L 309.151041 304.803513 
L 310.143747 295.149594 
L 311.136453 304.881086 
L 312.129159 324.890178 
L 313.121864 350.799248 
L 314.11457 342.053458 
L 315.107276 334.488752 
L 316.099982 342.576692 
L 317.092688 335.092592 
L 318.085394 337.925315 
L 319.0781 346.545687 
L 320.070806 339.334281 
L 321.063512 347.442239 
L 322.056218 350.42616 
L 323.048924 340.293933 
L 324.04163 339.646651 
L 325.034336 350.5007 
L 326.027041 351.610756 
L 327.019747 348.876647 
L 328.012453 363.69955 
L 329.005159 363.969272 
L 329.997865 364.507434 
L 331.983277 346.603614 
L 332.975983 351.675198 
L 333.968689 374.536102 
L 334.961395 355.602019 
L 335.954101 360.125645 
L 336.946807 360.171291 
L 337.939513 350.193316 
L 338.932218 364.399702 
L 340.91763 373.20108 
L 341.910336 351.802293 
L 342.903042 350.168958 
L 343.895748 372.673688 
L 344.888454 371.005812 
L 345.88116 362.078604 
L 346.873866 362.435977 
L 347.866572 372.392038 
L 348.859278 379.730087 
L 349.851984 376.842646 
L 350.84469 351.825108 
L 351.837395 364.048434 
L 352.830101 368.59642 
L 353.822807 357.584347 
L 354.815513 372.557439 
L 355.808219 374.694204 
L 356.800925 373.23108 
L 357.793631 384.535175 
L 358.786337 372.796601 
L 359.779043 374.160767 
L 360.771749 373.208659 
L 361.764455 375.620969 
L 362.757161 365.030807 
L 363.749867 366.73451 
L 364.742572 370.225639 
L 365.735278 378.590373 
L 366.727984 367.605785 
L 367.72069 412.559653 
L 368.713396 381.706681 
L 369.706102 387.737614 
L 370.698808 381.056904 
L 371.691514 381.355115 
L 372.68422 383.051935 
L 373.676926 372.418739 
L 374.669632 385.140912 
L 375.662338 379.562963 
L 376.655044 388.692372 
L 377.64775 390.672997 
L 378.640455 375.28762 
L 379.633161 370.797702 
L 380.625867 371.137713 
L 381.618573 394.694205 
L 382.611279 387.557263 
L 383.603985 379.376067 
L 384.596691 391.361174 
L 385.589397 372.184791 
L 386.582103 383.257502 
L 387.574809 375.886475 
L 388.567515 370.973685 
L 389.560221 378.700992 
L 390.552927 375.186335 
L 391.545632 392.335646 
L 392.538338 378.687074 
L 393.531044 398.0432 
L 394.52375 396.679487 
L 395.516456 411.613321 
L 396.509162 383.711827 
L 397.501868 380.953787 
L 398.494574 396.407836 
L 399.48728 390.819401 
L 400.479986 394.162829 
L 401.472692 389.465687 
L 402.465398 406.359388 
L 403.458104 411.961837 
L 404.450809 384.336362 
L 405.443515 387.421635 
L 406.436221 394.611934 
L 407.428927 406.777661 
L 408.421633 400.186458 
L 409.414339 401.132914 
L 410.407045 406.951048 
L 411.399751 390.749276 
L 412.392457 385.630068 
L 413.385163 391.850088 
L 414.377869 378.703212 
L 415.370575 377.638042 
L 416.363281 372.624135 
L 417.355986 387.759496 
L 418.348692 390.370029 
L 419.341398 400.545394 
L 420.334104 396.54457 
L 421.32681 391.025246 
L 422.319516 412.606945 
L 423.312222 398.201235 
L 424.304928 397.58715 
L 425.297634 378.742245 
L 426.29034 389.034793 
L 427.283046 391.771469 
L 428.275752 393.18767 
L 429.268458 408.501151 
L 430.261163 386.571143 
L 431.253869 392.1058 
L 432.246575 395.521634 
L 433.239281 397.10048 
L 434.231987 390.142403 
L 435.224693 416.142194 
L 436.217399 380.799539 
L 437.210105 390.69002 
L 438.202811 391.982651 
L 439.195517 405.27817 
L 440.188223 396.880636 
L 441.180929 395.932519 
L 442.173635 412.538547 
L 443.166341 390.826415 
L 444.159046 393.225701 
L 445.151752 400.428821 
L 446.144458 426.115039 
L 447.137164 384.854577 
L 448.12987 390.476571 
L 449.122576 385.73005 
L 450.115282 408.710494 
L 451.107988 403.750376 
L 452.100694 413.015061 
L 453.0934 409.921405 
L 454.086106 388.944131 
L 455.078812 458.589928 
L 456.071518 402.988618 
L 457.064223 426.87117 
L 458.056929 385.723645 
L 459.049635 429.490506 
L 460.042341 412.824692 
L 462.027753 406.491706 
L 463.020459 397.189816 
L 464.013165 401.323843 
L 465.005871 410.335892 
L 465.998577 428.076 
L 466.991283 416.736008 
L 467.983989 401.135088 
L 468.976695 420.579551 
L 469.9694 396.517577 
L 470.962106 411.05626 
L 471.954812 419.985602 
L 472.947518 400.450204 
L 473.940224 393.345304 
L 474.93293 394.450093 
L 475.925636 395.205527 
L 476.918342 386.186284 
L 477.911048 393.545961 
L 478.903754 417.233478 
L 479.89646 414.642348 
L 480.889166 413.678661 
L 481.881872 389.153752 
L 482.874577 393.900847 
L 483.867283 386.411438 
L 484.859989 397.194371 
L 485.852695 418.989491 
L 486.845401 396.810469 
L 487.838107 400.374687 
L 488.830813 413.732473 
L 489.823519 403.951917 
L 490.816225 401.189913 
L 491.808931 403.892924 
L 492.801637 404.595475 
L 493.794343 400.125618 
L 494.787049 401.306289 
L 495.779754 421.845185 
L 496.77246 449.696369 
L 497.765166 411.005494 
L 498.757872 420.081115 
L 499.750578 443.320655 
L 500.743284 405.852551 
L 501.73599 405.376713 
L 502.728696 400.239847 
L 503.721402 409.469268 
L 504.714108 410.898257 
L 505.706814 418.991417 
L 506.69952 439.101106 
L 507.692226 401.076115 
L 508.684932 411.166664 
L 509.677637 409.635881 
L 510.670343 418.882895 
L 511.663049 399.150001 
L 512.655755 393.222683 
L 513.648461 401.061584 
L 514.641167 415.062954 
L 515.633873 447.796468 
L 516.626579 406.497458 
L 517.619285 402.462339 
L 518.611991 435.81041 
L 519.604697 400.600196 
L 521.590109 451.388414 
L 522.582814 492.48 
L 523.57552 399.830192 
L 524.568226 401.735549 
L 525.560932 431.006647 
L 526.553638 405.846486 
L 527.546344 443.705846 
L 528.53905 421.983534 
L 529.531756 424.943541 
L 530.524462 419.345192 
L 531.517168 478.793941 
L 532.509874 420.746441 
L 533.50258 410.206864 
L 534.495286 418.9247 
L 535.487991 447.31071 
L 536.480697 406.216574 
L 537.473403 406.195296 
L 538.466109 390.707569 
L 539.458815 389.189522 
L 541.444227 445.206308 
L 542.436933 413.498201 
L 543.429639 426.452021 
L 544.422345 451.826864 
L 545.415051 417.059721 
L 546.407757 438.486114 
L 547.400463 417.277549 
L 548.393168 427.528641 
L 549.385874 422.825244 
L 550.37858 427.637154 
L 551.371286 427.467331 
L 552.363992 388.899215 
L 554.349404 448.102307 
L 555.34211 417.695879 
L 556.334816 413.44354 
L 557.327522 431.57436 
L 558.320228 411.596419 
L 559.312934 400.872158 
L 560.30564 414.11147 
L 561.298345 405.760238 
L 562.291051 443.083143 
L 563.283757 488.832932 
L 564.276463 490.977743 
L 565.269169 447.04125 
L 566.261875 434.982943 
L 567.254581 489.273336 
L 568.247287 405.424174 
L 569.239993 433.849286 
L 570.232699 449.630738 
L 571.225405 449.74538 
L 572.218111 437.833348 
L 573.210817 393.585701 
L 574.203523 421.890889 
L 575.196228 424.215448 
L 576.188934 400.678893 
L 577.18164 422.929848 
L 578.174346 422.566894 
L 579.167052 429.440388 
L 580.159758 409.294908 
L 581.152464 440.85288 
L 582.14517 419.566186 
L 583.137876 438.037429 
L 584.130582 411.432922 
L 585.123288 444.595411 
L 586.115994 438.68875 
L 587.1087 429.325666 
L 588.101405 415.220003 
L 589.094111 445.059642 
L 590.086817 414.755592 
L 591.079523 423.309174 
L 592.072229 435.3355 
L 593.064935 411.492148 
L 595.050347 451.744025 
L 596.043053 427.12243 
L 597.035759 412.393584 
L 598.028465 417.333982 
L 599.021171 425.601218 
L 600.013877 429.584402 
L 601.006582 461.316261 
L 601.999288 421.132675 
L 602.991994 421.001889 
L 603.9847 437.28739 
L 604.977406 418.887047 
L 605.970112 431.146596 
L 606.962818 411.96823 
L 607.955524 436.138526 
L 608.94823 418.244426 
L 609.940936 410.42562 
L 610.933642 426.874035 
L 611.926348 428.565722 
L 612.919054 451.09027 
L 613.911759 421.402363 
L 614.904465 431.653382 
L 615.897171 430.597776 
L 616.889877 427.380248 
L 617.882583 432.775221 
L 618.875289 439.031197 
L 619.867995 429.278226 
L 620.860701 425.309636 
L 621.853407 432.688959 
L 622.846113 418.893062 
L 623.838819 408.699964 
L 624.831525 423.132649 
L 625.824231 419.64801 
L 626.816936 422.408391 
L 627.809642 432.748266 
L 628.802348 423.725415 
L 629.795054 430.559468 
L 630.78776 431.531011 
L 631.780466 427.962453 
L 632.773172 448.536675 
L 633.765878 425.942255 
L 634.758584 433.073401 
L 635.75129 417.57391 
L 636.743996 424.265702 
L 637.736702 437.361075 
L 638.729408 426.957498 
L 639.722114 445.077549 
L 640.714819 435.309839 
L 641.707525 428.042613 
L 642.700231 424.747835 
L 643.692937 429.214916 
L 644.685643 431.924711 
L 645.678349 431.649519 
L 646.671055 427.464532 
L 647.663761 435.319983 
L 648.656467 433.592471 
L 649.649173 427.445086 
L 650.641879 443.591305 
L 651.634585 432.559991 
L 652.627291 429.312116 
L 653.619996 433.376938 
L 654.612702 432.830647 
L 655.605408 419.960111 
L 656.598114 426.219076 
L 657.59082 438.09605 
L 658.583526 432.26087 
L 659.576232 429.420012 
L 660.568938 431.539945 
L 661.561644 424.778104 
L 662.55435 436.067715 
L 663.547056 437.459962 
L 664.539762 434.371748 
L 665.532468 430.529273 
L 666.525173 433.277872 
L 667.517879 430.032261 
L 668.510585 432.734 
L 669.503291 437.932441 
L 670.495997 436.106612 
L 671.488703 435.695913 
L 672.481409 435.549225 
L 673.474115 432.809207 
L 674.466821 431.7046 
L 675.459527 431.910821 
L 676.452233 430.56755 
L 677.444939 430.327687 
L 678.437645 434.686099 
L 679.43035 434.626262 
L 680.423056 435.026399 
L 681.415762 435.00928 
L 682.408468 435.83713 
L 683.401174 436.450443 
L 684.39388 435.568812 
L 685.386586 437.402594 
L 686.379292 436.769251 
L 687.371998 436.862788 
L 688.364704 435.957394 
L 689.35741 431.799455 
L 690.350116 438.387941 
L 691.342822 437.739237 
L 692.335527 431.512885 
L 693.328233 438.304094 
L 694.320939 435.633065 
L 695.313645 436.689224 
L 696.306351 434.532 
L 697.299057 433.405724 
L 698.291763 434.356229 
L 699.284469 438.03182 
L 700.277175 437.58955 
L 701.269881 436.125832 
L 702.262587 436.484432 
L 703.255293 437.588481 
L 704.247999 435.433341 
L 705.240705 434.089919 
L 706.23341 441.552992 
L 707.226116 436.01312 
L 708.218822 439.673138 
L 709.211528 439.945868 
L 710.204234 439.111957 
L 711.19694 434.47897 
L 712.189646 434.045057 
L 713.182352 436.280278 
L 714.175058 439.189827 
L 715.167764 439.028924 
L 716.16047 440.855251 
L 717.153176 438.363518 
L 718.145882 437.226886 
L 719.138587 437.065717 
L 720.131293 439.183019 
L 721.123999 439.705024 
L 722.116705 439.04927 
L 723.109411 437.802587 
L 724.102117 438.35939 
L 725.094823 441.178533 
L 726.087529 436.375257 
L 727.080235 439.905304 
L 729.065647 438.570497 
L 730.058353 440.264902 
L 731.051059 438.295319 
L 732.043764 441.269299 
L 733.03647 441.069722 
L 734.029176 439.911701 
L 735.021882 441.698754 
L 736.014588 439.791984 
L 737.007294 439.617828 
L 738 440.403204 
L 738.992706 437.537457 
L 739.985412 441.183022 
L 740.978118 437.991658 
L 741.970824 439.909657 
L 742.96353 441.02323 
L 743.956236 441.604698 
L 744.948941 441.475846 
L 745.941647 440.659207 
L 746.934353 440.188003 
L 747.927059 438.312041 
L 748.919765 438.064554 
L 749.912471 443.795332 
L 750.905177 442.39549 
L 751.897883 442.316086 
L 752.890589 442.752777 
L 753.883295 442.029281 
L 754.876001 440.478983 
L 756.861413 440.684683 
L 757.854118 441.362108 
L 758.846824 441.75016 
L 759.83953 441.972884 
L 760.832236 442.5889 
L 761.824942 444.646825 
L 762.817648 442.394107 
L 763.810354 442.696455 
L 765.795766 441.934342 
L 766.788472 442.098506 
L 767.781178 441.396907 
L 768.773884 440.901028 
L 769.76659 444.50724 
L 770.759295 443.411765 
L 771.752001 442.806397 
L 773.737413 446.440413 
L 774.730119 443.419533 
L 775.722825 441.623754 
L 776.715531 444.38717 
L 777.708237 443.683328 
L 778.700943 441.779277 
L 779.693649 441.843756 
L 780.686355 439.230786 
L 781.679061 442.350204 
L 782.671767 443.060566 
L 783.664473 445.10139 
L 784.657178 443.54226 
L 785.649884 443.486705 
L 786.64259 443.908641 
L 787.635296 441.992312 
L 788.628002 441.178534 
L 790.613414 444.613658 
L 791.60612 443.708613 
L 792.598826 443.354667 
L 793.591532 445.762691 
L 794.584238 445.489746 
L 795.576944 443.248632 
L 796.56965 446.129781 
L 797.562355 444.825572 
L 798.555061 445.209448 
L 799.547767 444.740444 
L 800.540473 443.151025 
L 801.533179 444.048901 
L 802.525885 443.671726 
L 803.518591 445.074852 
L 804.511297 443.355174 
L 805.504003 446.120866 
L 806.496709 445.441335 
L 807.489415 444.569521 
L 808.482121 445.023675 
L 809.474827 443.02527 
L 810.467532 444.624798 
L 811.460238 443.8149 
L 813.44565 446.175815 
L 814.438356 445.190953 
L 815.431062 442.843211 
L 816.423768 446.303646 
L 817.416474 444.955841 
L 818.40918 448.057559 
L 819.401886 447.260053 
L 820.394592 444.897842 
L 821.387298 448.30311 
L 822.380004 445.846873 
L 823.372709 442.539216 
L 824.365415 443.809948 
L 825.358121 445.916434 
L 826.350827 445.219672 
L 827.343533 448.076916 
L 828.336239 448.603696 
L 829.328945 446.508939 
L 830.321651 448.561513 
L 831.314357 443.661973 
L 832.307063 447.829315 
L 833.299769 445.742363 
L 834.292475 446.007679 
L 835.285181 445.774688 
L 836.277886 448.951663 
L 837.270592 450.459241 
L 838.263298 448.018758 
L 839.256004 444.537629 
L 840.24871 449.812971 
L 841.241416 448.076748 
L 842.234122 445.77623 
L 843.226828 448.072725 
L 844.219534 447.441145 
L 845.21224 445.849972 
L 846.204946 447.86131 
L 847.197652 446.585178 
L 848.190358 448.476789 
L 849.183064 448.276941 
L 850.175769 448.786063 
L 851.168475 449.48857 
L 852.161181 447.82656 
L 853.153887 446.414642 
L 854.146593 446.704077 
L 855.139299 448.406769 
L 856.132005 446.734065 
L 857.124711 448.324842 
L 858.117417 447.503254 
L 859.110123 447.947164 
L 860.102829 446.220633 
L 861.095535 445.948008 
L 862.088241 447.590335 
L 863.080946 447.927348 
L 864.073652 448.846824 
L 865.066358 449.231866 
L 866.059064 448.582159 
L 867.05177 448.377016 
L 868.044476 449.443148 
L 869.037182 448.575978 
L 870.029888 448.447171 
L 871.022594 445.956604 
L 872.0153 450.839381 
L 873.008006 447.695233 
L 874.000712 448.155254 
L 874.993418 448.079765 
L 875.986123 446.82071 
L 876.978829 448.646231 
L 877.971535 449.053444 
L 879.956947 450.599209 
L 880.949653 450.349634 
L 881.942359 449.539521 
L 882.935065 448.135308 
L 883.927771 447.814534 
L 884.920477 450.164386 
L 886.905889 448.443361 
L 887.898595 450.202307 
L 888.8913 451.67844 
L 889.884006 451.387035 
L 890.876712 448.58438 
L 891.869418 449.384506 
L 892.862124 450.40775 
L 893.85483 449.818513 
L 894.847536 450.01776 
L 895.840242 449.99087 
L 896.832948 452.237629 
L 897.825654 448.652678 
L 899.811066 450.919646 
L 900.803772 451.610709 
L 901.796477 447.852606 
L 902.789183 449.64185 
L 903.781889 451.91329 
L 904.774595 447.947183 
L 905.767301 450.731074 
L 906.760007 452.310489 
L 907.752713 449.927356 
L 908.745419 449.641761 
L 909.738125 450.036662 
L 910.730831 449.242759 
L 911.723537 448.821697 
L 912.716243 449.828757 
L 913.708949 451.48157 
L 914.701655 450.431619 
L 915.69436 452.944331 
L 916.687066 448.01698 
L 917.679772 449.733546 
L 918.672478 448.312942 
L 919.665184 451.645868 
L 920.65789 449.8534 
L 921.650596 453.342629 
L 922.643302 449.650482 
L 923.636008 451.827741 
L 924.628714 450.136544 
L 925.62142 450.886595 
L 926.614126 450.79527 
L 927.606832 449.555271 
L 928.599537 451.785504 
L 929.592243 451.459934 
L 930.584949 449.497677 
L 931.577655 450.452749 
L 932.570361 451.089392 
L 933.563067 450.590138 
L 934.555773 452.054744 
L 935.548479 450.671429 
L 936.541185 451.890018 
L 937.533891 451.803088 
L 938.526597 450.597783 
L 939.519303 448.588614 
L 940.512009 451.75044 
L 941.504714 452.014367 
L 942.49742 450.729328 
L 943.490126 451.964539 
L 944.482832 451.466543 
L 945.475538 452.695282 
L 946.468244 450.453374 
L 947.46095 451.336033 
L 948.453656 453.492714 
L 949.446362 449.995065 
L 950.439068 450.730879 
L 951.431774 453.938789 
L 953.417186 449.652425 
L 954.409891 452.210914 
L 955.402597 452.650879 
L 956.395303 450.061346 
L 957.388009 450.157811 
L 958.380715 452.02841 
L 959.373421 450.772454 
L 960.366127 450.58639 
L 961.358833 453.871425 
L 962.351539 455.093967 
L 963.344245 453.751821 
L 964.336951 451.247792 
L 965.329657 452.129308 
L 966.322363 453.240193 
L 967.315068 455.371718 
L 968.307774 450.998513 
L 969.30048 454.167588 
L 970.293186 452.557842 
L 971.285892 453.742715 
L 972.278598 451.542735 
L 973.271304 455.530598 
L 974.26401 451.207614 
L 975.256716 452.450783 
L 976.249422 454.730671 
L 977.242128 455.021219 
L 978.234834 453.105328 
L 979.22754 452.007039 
L 980.220246 455.168818 
L 981.212951 452.214876 
L 982.205657 455.079128 
L 983.198363 452.650711 
L 984.191069 454.262362 
L 985.183775 453.65349 
L 986.176481 452.112148 
L 987.169187 454.434319 
L 988.161893 454.823578 
L 989.154599 453.099609 
L 990.147305 453.247142 
L 991.140011 455.281966 
L 992.132717 453.216067 
L 993.125423 454.977774 
L 994.118128 452.653661 
L 995.110834 452.775056 
L 996.10354 451.551393 
L 997.096246 452.450727 
L 998.088952 452.178808 
L 999.081658 453.486321 
L 1002.059776 452.49761 
L 1003.052482 455.797629 
L 1004.045188 453.680381 
L 1005.037894 454.972938 
L 1006.0306 453.415733 
L 1007.023305 452.307761 
L 1008.016011 451.828095 
L 1009.008717 450.882243 
L 1010.001423 452.608591 
L 1010.994129 456.713615 
L 1011.986835 455.1122 
L 1012.979541 454.29333 
L 1013.972247 453.820146 
L 1014.964953 454.338347 
L 1015.957659 453.731197 
L 1016.950365 452.637653 
L 1018.935777 455.409858 
L 1019.928482 455.695076 
L 1020.921188 453.962587 
L 1021.913894 457.077418 
L 1022.9066 452.540028 
L 1023.899306 454.582971 
L 1024.892012 455.096883 
L 1025.884718 455.069501 
L 1026.877424 454.830553 
L 1027.87013 453.13956 
L 1028.862836 455.501867 
L 1029.855542 454.416712 
L 1030.848248 454.914966 
L 1031.840954 452.59119 
L 1032.833659 456.100097 
L 1033.826365 454.432741 
L 1034.819071 456.031106 
L 1035.811777 454.786547 
L 1036.804483 453.227414 
L 1037.797189 455.886587 
L 1038.789895 455.499459 
L 1039.782601 455.641653 
L 1040.775307 454.983991 
L 1041.768013 453.709575 
L 1042.760719 454.647627 
L 1043.753425 457.36472 
L 1044.746131 455.224822 
L 1045.738837 457.848336 
L 1046.731542 452.83361 
L 1047.724248 455.051244 
L 1048.716954 454.63104 
L 1049.70966 455.981756 
L 1050.702366 455.615689 
L 1051.695072 455.379462 
L 1052.687778 454.453134 
L 1053.680484 455.546297 
L 1054.67319 455.600599 
L 1055.665896 454.032676 
L 1056.658602 456.775707 
L 1057.651308 455.062292 
L 1058.644014 456.740281 
L 1059.636719 454.177819 
L 1060.629425 456.227242 
L 1061.622131 456.479774 
L 1062.614837 453.772524 
L 1063.607543 453.932532 
L 1064.600249 456.211725 
L 1065.592955 456.496214 
L 1066.585661 454.478034 
L 1067.578367 452.947829 
L 1068.571073 455.754512 
L 1069.563779 457.648122 
L 1070.556485 455.930838 
L 1071.549191 455.847099 
L 1072.541896 453.888002 
L 1073.534602 454.436144 
L 1074.527308 455.434114 
L 1075.520014 456.628801 
L 1076.51272 456.778989 
L 1077.505426 453.823333 
L 1078.498132 455.850786 
L 1079.490838 456.619594 
L 1080.483544 456.630115 
L 1081.47625 455.66726 
L 1082.468956 453.540081 
L 1083.461662 455.263359 
L 1084.454368 453.392138 
L 1085.447073 457.399285 
L 1086.439779 456.511692 
L 1087.432485 453.297314 
L 1088.425191 453.613461 
L 1089.417897 456.311479 
L 1090.410603 455.412632 
L 1091.403309 453.696408 
L 1092.396015 452.627372 
L 1093.388721 454.673523 
L 1094.381427 455.436094 
L 1095.374133 455.18891 
L 1096.366839 454.610804 
L 1097.359545 455.980063 
L 1098.35225 454.017228 
L 1099.344956 456.173958 
L 1100.337662 456.914257 
L 1101.330368 455.791408 
L 1102.323074 458.280578 
L 1103.31578 454.866942 
L 1104.308486 454.802971 
L 1105.301192 455.406071 
L 1106.293898 456.53547 
L 1107.286604 456.007183 
L 1108.27931 457.732567 
L 1109.272016 459.053763 
L 1110.264722 454.749821 
L 1111.257428 455.581371 
L 1112.250133 456.784201 
L 1113.242839 456.303563 
L 1114.235545 457.859819 
L 1115.228251 456.407696 
L 1116.220957 458.435584 
L 1117.213663 458.448492 
L 1118.206369 455.438695 
L 1119.199075 455.726432 
L 1120.191781 458.481182 
L 1121.184487 457.908633 
L 1122.177193 456.565583 
L 1123.169899 454.564193 
L 1124.162605 457.467506 
L 1125.15531 458.571027 
L 1126.148016 456.262222 
L 1127.140722 454.565492 
L 1128.133428 456.47296 
L 1129.126134 457.138194 
L 1130.11884 456.627011 
L 1131.111546 457.539292 
L 1132.104252 457.888276 
L 1133.096958 456.077831 
L 1134.089664 454.712518 
L 1135.08237 456.87115 
L 1136.075076 456.197605 
L 1137.067782 457.293517 
L 1138.060487 455.390307 
L 1139.053193 454.393661 
L 1140.045899 457.883395 
L 1141.038605 456.958761 
L 1142.031311 453.964986 
L 1143.024017 454.748961 
L 1144.016723 457.153763 
L 1145.009429 455.424984 
L 1146.002135 456.073394 
L 1146.994841 457.37051 
L 1147.987547 457.74226 
L 1148.980253 456.460956 
L 1149.972959 452.981463 
L 1150.965664 455.57077 
L 1151.95837 456.795975 
L 1154.936488 458.045397 
L 1155.929194 456.913587 
L 1156.9219 453.136466 
L 1157.914606 455.977687 
L 1158.907312 455.880465 
L 1159.900018 454.854819 
L 1160.892724 454.542051 
L 1161.88543 455.410245 
L 1162.878136 455.442923 
L 1163.870841 457.191865 
L 1164.863547 455.713775 
L 1165.856253 457.606452 
L 1166.848959 458.484149 
L 1167.841665 455.273788 
L 1168.834371 457.011902 
L 1169.827077 457.189004 
L 1170.819783 457.037254 
L 1171.812489 458.550598 
L 1172.805195 456.200833 
L 1173.797901 457.432132 
L 1174.790607 455.44877 
L 1175.783313 457.793095 
L 1176.776019 455.901783 
L 1177.768724 456.886258 
L 1178.76143 455.356019 
L 1179.754136 456.103284 
L 1180.746842 455.089577 
L 1181.739548 455.294388 
L 1183.72496 458.876891 
L 1184.717666 458.132368 
L 1185.710372 456.57994 
L 1186.703078 455.934027 
L 1187.695784 458.983274 
L 1188.68849 456.056795 
L 1189.681196 458.336669 
L 1190.673901 456.967845 
L 1191.666607 457.487301 
L 1192.659313 458.312268 
L 1194.644725 456.03776 
L 1195.637431 458.955639 
L 1196.630137 455.800709 
L 1197.622843 457.1214 
L 1198.615549 457.141152 
L 1199.608255 456.95099 
L 1200.600961 454.263146 
L 1201.593667 455.787073 
L 1203.579078 457.59882 
L 1204.571784 458.922051 
L 1205.56449 454.493498 
L 1206.557196 457.427359 
L 1207.549902 455.859901 
L 1208.542608 458.619108 
L 1209.535314 458.706673 
L 1210.52802 456.403298 
L 1211.520726 458.06402 
L 1212.513432 457.490699 
L 1213.506138 457.108187 
L 1214.498844 458.417363 
L 1215.49155 457.535783 
L 1216.484255 457.531097 
L 1217.476961 456.367588 
L 1219.462373 458.00859 
L 1220.455079 454.773903 
L 1221.447785 457.072988 
L 1222.440491 456.121348 
L 1223.433197 458.947581 
L 1224.425903 458.52747 
L 1225.418609 459.610626 
L 1226.411315 456.373653 
L 1227.404021 459.128626 
L 1228.396727 457.879039 
L 1229.389432 455.963922 
L 1230.382138 456.780047 
L 1231.374844 456.76866 
L 1232.36755 456.387895 
L 1233.360256 458.75519 
L 1234.352962 456.02906 
L 1235.345668 458.139349 
L 1237.33108 459.587696 
L 1238.323786 456.401511 
L 1239.316492 458.351322 
L 1240.309198 458.713323 
L 1241.301904 457.532005 
L 1242.29461 459.948949 
L 1243.287315 456.055241 
L 1244.280021 456.266431 
L 1245.272727 456.892085 
L 1245.272727 456.892085 
" clip-path="url(#p43bc9abdbd)" style="fill: none; stroke: #1f77b4; stroke-width: 1.5; stroke-linecap: square"/>
   </g>
   <g id="patch_3">
    <path d="M 180 512.64 
L 180 69.12 
" style="fill: none; stroke: #000000; stroke-width: 0.8; stroke-linejoin: miter; stroke-linecap: square"/>
   </g>
   <g id="patch_4">
    <path d="M 1296 512.64 
L 1296 69.12 
" style="fill: none; stroke: #000000; stroke-width: 0.8; stroke-linejoin: miter; stroke-linecap: square"/>
   </g>
   <g id="patch_5">
    <path d="M 180 512.64 
L 1296 512.64 
" style="fill: none; stroke: #000000; stroke-width: 0.8; stroke-linejoin: miter; stroke-linecap: square"/>
   </g>
   <g id="patch_6">
    <path d="M 180 69.12 
L 1296 69.12 
" style="fill: none; stroke: #000000; stroke-width: 0.8; stroke-linejoin: miter; stroke-linecap: square"/>
   </g>
   <g id="text_12">
    <!-- source10-receiver1 -->
    <g transform="translate(544.9 60.80125) scale(0.4 -0.4)">
     <defs>
      <path id="DejaVuSans-73" d="M 2834 3397 
L 2834 2853 
Q 2591 2978 2328 3040 
Q 2066 3103 1784 3103 
Q 1356 3103 1142 2972 
Q 928 2841 928 2578 
Q 928 2378 1081 2264 
Q 1234 2150 1697 2047 
L 1894 2003 
Q 2506 1872 2764 1633 
Q 3022 1394 3022 966 
Q 3022 478 2636 193 
Q 2250 -91 1575 -91 
Q 1294 -91 989 -36 
Q 684 19 347 128 
L 347 722 
Q 666 556 975 473 
Q 1284 391 1588 391 
Q 1994 391 2212 530 
Q 2431 669 2431 922 
Q 2431 1156 2273 1281 
Q 2116 1406 1581 1522 
L 1381 1569 
Q 847 1681 609 1914 
Q 372 2147 372 2553 
Q 372 3047 722 3315 
Q 1072 3584 1716 3584 
Q 2034 3584 2315 3537 
Q 2597 3491 2834 3397 
z
" transform="scale(0.015625)"/>
      <path id="DejaVuSans-6f" d="M 1959 3097 
Q 1497 3097 1228 2736 
Q 959 2375 959 1747 
Q 959 1119 1226 758 
Q 1494 397 1959 397 
Q 2419 397 2687 759 
Q 2956 1122 2956 1747 
Q 2956 2369 2687 2733 
Q 2419 3097 1959 3097 
z
M 1959 3584 
Q 2709 3584 3137 3096 
Q 3566 2609 3566 1747 
Q 3566 888 3137 398 
Q 2709 -91 1959 -91 
Q 1206 -91 779 398 
Q 353 888 353 1747 
Q 353 2609 779 3096 
Q 1206 3584 1959 3584 
z
" transform="scale(0.015625)"/>
      <path id="DejaVuSans-75" d="M 544 1381 
L 544 3500 
L 1119 3500 
L 1119 1403 
Q 1119 906 1312 657 
Q 1506 409 1894 409 
Q 2359 409 2629 706 
Q 2900 1003 2900 1516 
L 2900 3500 
L 3475 3500 
L 3475 0 
L 2900 0 
L 2900 538 
Q 2691 219 2414 64 
Q 2138 -91 1772 -91 
Q 1169 -91 856 284 
Q 544 659 544 1381 
z
M 1991 3584 
L 1991 3584 
z
" transform="scale(0.015625)"/>
      <path id="DejaVuSans-72" d="M 2631 2963 
Q 2534 3019 2420 3045 
Q 2306 3072 2169 3072 
Q 1681 3072 1420 2755 
Q 1159 2438 1159 1844 
L 1159 0 
L 581 0 
L 581 3500 
L 1159 3500 
L 1159 2956 
Q 1341 3275 1631 3429 
Q 1922 3584 2338 3584 
Q 2397 3584 2469 3576 
Q 2541 3569 2628 3553 
L 2631 2963 
z
" transform="scale(0.015625)"/>
      <path id="DejaVuSans-63" d="M 3122 3366 
L 3122 2828 
Q 2878 2963 2633 3030 
Q 2388 3097 2138 3097 
Q 1578 3097 1268 2742 
Q 959 2388 959 1747 
Q 959 1106 1268 751 
Q 1578 397 2138 397 
Q 2388 397 2633 464 
Q 2878 531 3122 666 
L 3122 134 
Q 2881 22 2623 -34 
Q 2366 -91 2075 -91 
Q 1284 -91 818 406 
Q 353 903 353 1747 
Q 353 2603 823 3093 
Q 1294 3584 2113 3584 
Q 2378 3584 2631 3529 
Q 2884 3475 3122 3366 
z
" transform="scale(0.015625)"/>
      <path id="DejaVuSans-65" d="M 3597 1894 
L 3597 1613 
L 953 1613 
Q 991 1019 1311 708 
Q 1631 397 2203 397 
Q 2534 397 2845 478 
Q 3156 559 3463 722 
L 3463 178 
Q 3153 47 2828 -22 
Q 2503 -91 2169 -91 
Q 1331 -91 842 396 
Q 353 884 353 1716 
Q 353 2575 817 3079 
Q 1281 3584 2069 3584 
Q 2775 3584 3186 3129 
Q 3597 2675 3597 1894 
z
M 3022 2063 
Q 3016 2534 2758 2815 
Q 2500 3097 2075 3097 
Q 1594 3097 1305 2825 
Q 1016 2553 972 2059 
L 3022 2063 
z
" transform="scale(0.015625)"/>
      <path id="DejaVuSans-2d" d="M 313 2009 
L 1997 2009 
L 1997 1497 
L 313 1497 
L 313 2009 
z
" transform="scale(0.015625)"/>
      <path id="DejaVuSans-69" d="M 603 3500 
L 1178 3500 
L 1178 0 
L 603 0 
L 603 3500 
z
M 603 4863 
L 1178 4863 
L 1178 4134 
L 603 4134 
L 603 4863 
z
" transform="scale(0.015625)"/>
      <path id="DejaVuSans-76" d="M 191 3500 
L 800 3500 
L 1894 563 
L 2988 3500 
L 3597 3500 
L 2284 0 
L 1503 0 
L 191 3500 
z
" transform="scale(0.015625)"/>
     </defs>
     <use xlink:href="#DejaVuSans-73"/>
     <use xlink:href="#DejaVuSans-6f" x="52.099609"/>
     <use xlink:href="#DejaVuSans-75" x="113.28125"/>
     <use xlink:href="#DejaVuSans-72" x="176.660156"/>
     <use xlink:href="#DejaVuSans-63" x="215.523438"/>
     <use xlink:href="#DejaVuSans-65" x="270.503906"/>
     <use xlink:href="#DejaVuSans-31" x="332.027344"/>
     <use xlink:href="#DejaVuSans-30" x="395.650391"/>
     <use xlink:href="#DejaVuSans-2d" x="459.273438"/>
     <use xlink:href="#DejaVuSans-72" x="495.357422"/>
     <use xlink:href="#DejaVuSans-65" x="534.220703"/>
     <use xlink:href="#DejaVuSans-63" x="595.744141"/>
     <use xlink:href="#DejaVuSans-65" x="650.724609"/>
     <use xlink:href="#DejaVuSans-69" x="712.248047"/>
     <use xlink:href="#DejaVuSans-76" x="740.03125"/>
     <use xlink:href="#DejaVuSans-65" x="799.210938"/>
     <use xlink:href="#DejaVuSans-72" x="860.734375"/>
     <use xlink:href="#DejaVuSans-31" x="901.847656"/>
    </g>
   </g>
  </g>
 </g>
 <defs>
  <clipPath id="p43bc9abdbd">
   <rect x="180" y="69.12" width="1116" height="443.52"/>
  </clipPath>
 </defs>
</svg>
