<?xml version="1.0" encoding="utf-8" standalone="no"?>
<!DOCTYPE svg PUBLIC "-//W3C//DTD SVG 1.1//EN"
  "http://www.w3.org/Graphics/SVG/1.1/DTD/svg11.dtd">
<svg xmlns:xlink="http://www.w3.org/1999/xlink" width="1440pt" height="576pt" viewBox="0 0 1440 576" xmlns="http://www.w3.org/2000/svg" version="1.1">
 <metadata>
  <rdf:RDF xmlns:dc="http://purl.org/dc/elements/1.1/" xmlns:cc="http://creativecommons.org/ns#" xmlns:rdf="http://www.w3.org/1999/02/22-rdf-syntax-ns#">
   <cc:Work>
    <dc:type rdf:resource="http://purl.org/dc/dcmitype/StillImage"/>
    <dc:date>2024-05-22T04:49:58.795302</dc:date>
    <dc:format>image/svg+xml</dc:format>
    <dc:creator>
     <cc:Agent>
      <dc:title>Matplotlib v3.8.3, https://matplotlib.org/</dc:title>
     </cc:Agent>
    </dc:creator>
   </cc:Work>
  </rdf:RDF>
 </metadata>
 <defs>
  <style type="text/css">*{stroke-linejoin: round; stroke-linecap: butt}</style>
 </defs>
 <g id="figure_1">
  <g id="patch_1">
   <path d="M 0 576 
L 1440 576 
L 1440 0 
L 0 0 
z
" style="fill: #ffffff"/>
  </g>
  <g id="axes_1">
   <g id="patch_2">
    <path d="M 180 512.64 
L 1296 512.64 
L 1296 69.12 
L 180 69.12 
z
" style="fill: #ffffff"/>
   </g>
   <g id="matplotlib.axis_1">
    <g id="xtick_1">
     <g id="line2d_1">
      <defs>
       <path id="m6e43e88236" d="M 0 0 
L 0 3.5 
" style="stroke: #000000; stroke-width: 0.8"/>
      </defs>
      <g>
       <use xlink:href="#m6e43e88236" x="229.734567" y="512.64" style="stroke: #000000; stroke-width: 0.8"/>
      </g>
     </g>
     <g id="text_1">
      <!-- 0 -->
      <g transform="translate(226.553317 527.238438) scale(0.1 -0.1)">
       <defs>
        <path id="DejaVuSans-30" d="M 2034 4250 
Q 1547 4250 1301 3770 
Q 1056 3291 1056 2328 
Q 1056 1369 1301 889 
Q 1547 409 2034 409 
Q 2525 409 2770 889 
Q 3016 1369 3016 2328 
Q 3016 3291 2770 3770 
Q 2525 4250 2034 4250 
z
M 2034 4750 
Q 2819 4750 3233 4129 
Q 3647 3509 3647 2328 
Q 3647 1150 3233 529 
Q 2819 -91 2034 -91 
Q 1250 -91 836 529 
Q 422 1150 422 2328 
Q 422 3509 836 4129 
Q 1250 4750 2034 4750 
z
" transform="scale(0.015625)"/>
       </defs>
       <use xlink:href="#DejaVuSans-30"/>
      </g>
     </g>
    </g>
    <g id="xtick_2">
     <g id="line2d_2">
      <g>
       <use xlink:href="#m6e43e88236" x="433.04074" y="512.64" style="stroke: #000000; stroke-width: 0.8"/>
      </g>
     </g>
     <g id="text_2">
      <!-- 500 -->
      <g transform="translate(423.49699 527.238438) scale(0.1 -0.1)">
       <defs>
        <path id="DejaVuSans-35" d="M 691 4666 
L 3169 4666 
L 3169 4134 
L 1269 4134 
L 1269 2991 
Q 1406 3038 1543 3061 
Q 1681 3084 1819 3084 
Q 2600 3084 3056 2656 
Q 3513 2228 3513 1497 
Q 3513 744 3044 326 
Q 2575 -91 1722 -91 
Q 1428 -91 1123 -41 
Q 819 9 494 109 
L 494 744 
Q 775 591 1075 516 
Q 1375 441 1709 441 
Q 2250 441 2565 725 
Q 2881 1009 2881 1497 
Q 2881 1984 2565 2268 
Q 2250 2553 1709 2553 
Q 1456 2553 1204 2497 
Q 953 2441 691 2322 
L 691 4666 
z
" transform="scale(0.015625)"/>
       </defs>
       <use xlink:href="#DejaVuSans-35"/>
       <use xlink:href="#DejaVuSans-30" x="63.623047"/>
       <use xlink:href="#DejaVuSans-30" x="127.246094"/>
      </g>
     </g>
    </g>
    <g id="xtick_3">
     <g id="line2d_3">
      <g>
       <use xlink:href="#m6e43e88236" x="636.346913" y="512.64" style="stroke: #000000; stroke-width: 0.8"/>
      </g>
     </g>
     <g id="text_3">
      <!-- 1000 -->
      <g transform="translate(623.621913 527.238438) scale(0.1 -0.1)">
       <defs>
        <path id="DejaVuSans-31" d="M 794 531 
L 1825 531 
L 1825 4091 
L 703 3866 
L 703 4441 
L 1819 4666 
L 2450 4666 
L 2450 531 
L 3481 531 
L 3481 0 
L 794 0 
L 794 531 
z
" transform="scale(0.015625)"/>
       </defs>
       <use xlink:href="#DejaVuSans-31"/>
       <use xlink:href="#DejaVuSans-30" x="63.623047"/>
       <use xlink:href="#DejaVuSans-30" x="127.246094"/>
       <use xlink:href="#DejaVuSans-30" x="190.869141"/>
      </g>
     </g>
    </g>
    <g id="xtick_4">
     <g id="line2d_4">
      <g>
       <use xlink:href="#m6e43e88236" x="839.653087" y="512.64" style="stroke: #000000; stroke-width: 0.8"/>
      </g>
     </g>
     <g id="text_4">
      <!-- 1500 -->
      <g transform="translate(826.928087 527.238438) scale(0.1 -0.1)">
       <use xlink:href="#DejaVuSans-31"/>
       <use xlink:href="#DejaVuSans-35" x="63.623047"/>
       <use xlink:href="#DejaVuSans-30" x="127.246094"/>
       <use xlink:href="#DejaVuSans-30" x="190.869141"/>
      </g>
     </g>
    </g>
    <g id="xtick_5">
     <g id="line2d_5">
      <g>
       <use xlink:href="#m6e43e88236" x="1042.95926" y="512.64" style="stroke: #000000; stroke-width: 0.8"/>
      </g>
     </g>
     <g id="text_5">
      <!-- 2000 -->
      <g transform="translate(1030.23426 527.238438) scale(0.1 -0.1)">
       <defs>
        <path id="DejaVuSans-32" d="M 1228 531 
L 3431 531 
L 3431 0 
L 469 0 
L 469 531 
Q 828 903 1448 1529 
Q 2069 2156 2228 2338 
Q 2531 2678 2651 2914 
Q 2772 3150 2772 3378 
Q 2772 3750 2511 3984 
Q 2250 4219 1831 4219 
Q 1534 4219 1204 4116 
Q 875 4013 500 3803 
L 500 4441 
Q 881 4594 1212 4672 
Q 1544 4750 1819 4750 
Q 2544 4750 2975 4387 
Q 3406 4025 3406 3419 
Q 3406 3131 3298 2873 
Q 3191 2616 2906 2266 
Q 2828 2175 2409 1742 
Q 1991 1309 1228 531 
z
" transform="scale(0.015625)"/>
       </defs>
       <use xlink:href="#DejaVuSans-32"/>
       <use xlink:href="#DejaVuSans-30" x="63.623047"/>
       <use xlink:href="#DejaVuSans-30" x="127.246094"/>
       <use xlink:href="#DejaVuSans-30" x="190.869141"/>
      </g>
     </g>
    </g>
    <g id="xtick_6">
     <g id="line2d_6">
      <g>
       <use xlink:href="#m6e43e88236" x="1246.265433" y="512.64" style="stroke: #000000; stroke-width: 0.8"/>
      </g>
     </g>
     <g id="text_6">
      <!-- 2500 -->
      <g transform="translate(1233.540433 527.238438) scale(0.1 -0.1)">
       <use xlink:href="#DejaVuSans-32"/>
       <use xlink:href="#DejaVuSans-35" x="63.623047"/>
       <use xlink:href="#DejaVuSans-30" x="127.246094"/>
       <use xlink:href="#DejaVuSans-30" x="190.869141"/>
      </g>
     </g>
    </g>
   </g>
   <g id="matplotlib.axis_2">
    <g id="ytick_1">
     <g id="line2d_7">
      <defs>
       <path id="m058ae54ca3" d="M 0 0 
L -3.5 0 
" style="stroke: #000000; stroke-width: 0.8"/>
      </defs>
      <g>
       <use xlink:href="#m058ae54ca3" x="180" y="510.686733" style="stroke: #000000; stroke-width: 0.8"/>
      </g>
     </g>
     <g id="text_7">
      <!-- −5 -->
      <g transform="translate(158.257812 514.485952) scale(0.1 -0.1)">
       <defs>
        <path id="DejaVuSans-2212" d="M 678 2272 
L 4684 2272 
L 4684 1741 
L 678 1741 
L 678 2272 
z
" transform="scale(0.015625)"/>
       </defs>
       <use xlink:href="#DejaVuSans-2212"/>
       <use xlink:href="#DejaVuSans-35" x="83.789062"/>
      </g>
     </g>
    </g>
    <g id="ytick_2">
     <g id="line2d_8">
      <g>
       <use xlink:href="#m058ae54ca3" x="180" y="457.380159" style="stroke: #000000; stroke-width: 0.8"/>
      </g>
     </g>
     <g id="text_8">
      <!-- −4 -->
      <g transform="translate(158.257812 461.179378) scale(0.1 -0.1)">
       <defs>
        <path id="DejaVuSans-34" d="M 2419 4116 
L 825 1625 
L 2419 1625 
L 2419 4116 
z
M 2253 4666 
L 3047 4666 
L 3047 1625 
L 3713 1625 
L 3713 1100 
L 3047 1100 
L 3047 0 
L 2419 0 
L 2419 1100 
L 313 1100 
L 313 1709 
L 2253 4666 
z
" transform="scale(0.015625)"/>
       </defs>
       <use xlink:href="#DejaVuSans-2212"/>
       <use xlink:href="#DejaVuSans-34" x="83.789062"/>
      </g>
     </g>
    </g>
    <g id="ytick_3">
     <g id="line2d_9">
      <g>
       <use xlink:href="#m058ae54ca3" x="180" y="404.073585" style="stroke: #000000; stroke-width: 0.8"/>
      </g>
     </g>
     <g id="text_9">
      <!-- −3 -->
      <g transform="translate(158.257812 407.872804) scale(0.1 -0.1)">
       <defs>
        <path id="DejaVuSans-33" d="M 2597 2516 
Q 3050 2419 3304 2112 
Q 3559 1806 3559 1356 
Q 3559 666 3084 287 
Q 2609 -91 1734 -91 
Q 1441 -91 1130 -33 
Q 819 25 488 141 
L 488 750 
Q 750 597 1062 519 
Q 1375 441 1716 441 
Q 2309 441 2620 675 
Q 2931 909 2931 1356 
Q 2931 1769 2642 2001 
Q 2353 2234 1838 2234 
L 1294 2234 
L 1294 2753 
L 1863 2753 
Q 2328 2753 2575 2939 
Q 2822 3125 2822 3475 
Q 2822 3834 2567 4026 
Q 2313 4219 1838 4219 
Q 1578 4219 1281 4162 
Q 984 4106 628 3988 
L 628 4550 
Q 988 4650 1302 4700 
Q 1616 4750 1894 4750 
Q 2613 4750 3031 4423 
Q 3450 4097 3450 3541 
Q 3450 3153 3228 2886 
Q 3006 2619 2597 2516 
z
" transform="scale(0.015625)"/>
       </defs>
       <use xlink:href="#DejaVuSans-2212"/>
       <use xlink:href="#DejaVuSans-33" x="83.789062"/>
      </g>
     </g>
    </g>
    <g id="ytick_4">
     <g id="line2d_10">
      <g>
       <use xlink:href="#m058ae54ca3" x="180" y="350.767011" style="stroke: #000000; stroke-width: 0.8"/>
      </g>
     </g>
     <g id="text_10">
      <!-- −2 -->
      <g transform="translate(158.257812 354.56623) scale(0.1 -0.1)">
       <use xlink:href="#DejaVuSans-2212"/>
       <use xlink:href="#DejaVuSans-32" x="83.789062"/>
      </g>
     </g>
    </g>
    <g id="ytick_5">
     <g id="line2d_11">
      <g>
       <use xlink:href="#m058ae54ca3" x="180" y="297.460437" style="stroke: #000000; stroke-width: 0.8"/>
      </g>
     </g>
     <g id="text_11">
      <!-- −1 -->
      <g transform="translate(158.257812 301.259656) scale(0.1 -0.1)">
       <use xlink:href="#DejaVuSans-2212"/>
       <use xlink:href="#DejaVuSans-31" x="83.789062"/>
      </g>
     </g>
    </g>
    <g id="ytick_6">
     <g id="line2d_12">
      <g>
       <use xlink:href="#m058ae54ca3" x="180" y="244.153863" style="stroke: #000000; stroke-width: 0.8"/>
      </g>
     </g>
     <g id="text_12">
      <!-- 0 -->
      <g transform="translate(166.6375 247.953082) scale(0.1 -0.1)">
       <use xlink:href="#DejaVuSans-30"/>
      </g>
     </g>
    </g>
    <g id="ytick_7">
     <g id="line2d_13">
      <g>
       <use xlink:href="#m058ae54ca3" x="180" y="190.847289" style="stroke: #000000; stroke-width: 0.8"/>
      </g>
     </g>
     <g id="text_13">
      <!-- 1 -->
      <g transform="translate(166.6375 194.646508) scale(0.1 -0.1)">
       <use xlink:href="#DejaVuSans-31"/>
      </g>
     </g>
    </g>
    <g id="ytick_8">
     <g id="line2d_14">
      <g>
       <use xlink:href="#m058ae54ca3" x="180" y="137.540715" style="stroke: #000000; stroke-width: 0.8"/>
      </g>
     </g>
     <g id="text_14">
      <!-- 2 -->
      <g transform="translate(166.6375 141.339934) scale(0.1 -0.1)">
       <use xlink:href="#DejaVuSans-32"/>
      </g>
     </g>
    </g>
    <g id="ytick_9">
     <g id="line2d_15">
      <g>
       <use xlink:href="#m058ae54ca3" x="180" y="84.234141" style="stroke: #000000; stroke-width: 0.8"/>
      </g>
     </g>
     <g id="text_15">
      <!-- 3 -->
      <g transform="translate(166.6375 88.03336) scale(0.1 -0.1)">
       <use xlink:href="#DejaVuSans-33"/>
      </g>
     </g>
    </g>
   </g>
   <g id="line2d_16">
    <path d="M 230.727273 321.756953 
L 231.719979 322.137467 
L 232.712685 321.593063 
L 233.70539 321.24448 
L 234.698096 319.888942 
L 235.690802 319.336009 
L 236.683508 318.434827 
L 237.676214 317.142221 
L 238.66892 315.394162 
L 239.661626 314.341336 
L 242.639744 309.342727 
L 243.63245 307.444168 
L 244.625156 304.335459 
L 245.617862 303.964887 
L 246.610568 311.087222 
L 247.603273 328.366575 
L 249.588685 226.134515 
L 250.581391 193.925149 
L 251.574097 172.834765 
L 252.566803 161.060524 
L 253.559509 160.586152 
L 254.552215 171.446704 
L 255.544921 197.394386 
L 256.537627 216.96959 
L 257.530333 199.219687 
L 258.523039 199.796202 
L 259.515745 237.482742 
L 260.50845 222.08744 
L 261.501156 176.601104 
L 262.493862 165.238234 
L 263.486568 173.982557 
L 264.479274 209.150273 
L 265.47198 213.783256 
L 266.464686 189.103819 
L 267.457392 190.235485 
L 268.450098 211.802901 
L 269.442804 200.996787 
L 270.43551 180.881424 
L 271.428216 178.60679 
L 272.420922 196.076939 
L 273.413627 233.205418 
L 274.406333 247.800295 
L 275.399039 213.798972 
L 276.391745 213.266117 
L 277.384451 253.480362 
L 278.377157 227.085554 
L 279.369863 173.422211 
L 280.362569 148.116614 
L 281.355275 134.372848 
L 282.347981 123.669355 
L 284.333393 98.126757 
L 285.326099 89.777088 
L 286.318804 89.28 
L 287.31151 99.201929 
L 288.304216 126.33735 
L 289.296922 172.858096 
L 290.289628 143.146598 
L 291.282334 123.30058 
L 292.27504 124.701393 
L 293.267746 142.667034 
L 294.260452 177.157689 
L 295.253158 204.006497 
L 296.245864 206.894373 
L 297.23857 222.927531 
L 298.231276 227.929568 
L 299.223981 222.912917 
L 300.216687 233.861511 
L 301.209393 276.504923 
L 302.202099 287.953293 
L 303.194805 266.02158 
L 304.187511 276.320946 
L 305.180217 343.356363 
L 306.172923 313.344518 
L 307.165629 293.22732 
L 308.158335 287.274294 
L 309.151041 285.508084 
L 310.143747 292.790003 
L 311.136453 294.519703 
L 312.129159 291.457455 
L 313.121864 293.946578 
L 315.107276 307.21514 
L 316.099982 305.676428 
L 317.092688 300.650678 
L 318.085394 299.718907 
L 320.070806 310.716366 
L 321.063512 298.580127 
L 322.056218 311.593736 
L 323.048924 302.296451 
L 324.04163 304.375796 
L 325.034336 310.83116 
L 326.027041 300.11475 
L 327.019747 302.558054 
L 328.012453 306.291003 
L 329.005159 302.261826 
L 329.997865 312.058341 
L 330.990571 308.596072 
L 331.983277 320.497909 
L 332.975983 317.44281 
L 333.968689 311.841962 
L 334.961395 309.306554 
L 335.954101 312.078786 
L 336.946807 321.648167 
L 337.939513 319.659894 
L 338.932218 322.418546 
L 339.924924 317.609808 
L 340.91763 317.42149 
L 341.910336 320.948717 
L 342.903042 315.559699 
L 343.895748 324.610037 
L 344.888454 322.343918 
L 345.88116 326.355579 
L 346.873866 322.832092 
L 347.866572 326.565975 
L 348.859278 316.350009 
L 349.851984 329.720693 
L 350.84469 325.425503 
L 351.837395 329.968437 
L 352.830101 317.528852 
L 353.822807 319.145342 
L 354.815513 324.585031 
L 355.808219 326.547408 
L 356.800925 337.354569 
L 357.793631 334.079574 
L 358.786337 345.057059 
L 359.779043 348.610649 
L 360.771749 334.575561 
L 361.764455 325.339112 
L 362.757161 324.232497 
L 363.749867 327.694377 
L 364.742572 347.375701 
L 365.735278 333.333868 
L 366.727984 330.300396 
L 367.72069 347.908903 
L 368.713396 330.486835 
L 369.706102 337.893219 
L 370.698808 340.889452 
L 371.691514 352.18157 
L 372.68422 322.016662 
L 373.676926 354.373449 
L 374.669632 337.259564 
L 375.662338 354.396491 
L 376.655044 325.339624 
L 377.64775 354.252602 
L 378.640455 342.82546 
L 379.633161 342.334101 
L 380.625867 324.107451 
L 381.618573 340.785176 
L 382.611279 353.637614 
L 383.603985 350.491785 
L 384.596691 331.712156 
L 385.589397 338.741678 
L 386.582103 344.416762 
L 387.574809 335.301777 
L 388.567515 349.938238 
L 389.560221 345.149495 
L 390.552927 349.991647 
L 391.545632 367.257217 
L 392.538338 347.348576 
L 393.531044 335.112605 
L 394.52375 325.965585 
L 395.516456 352.992178 
L 396.509162 364.569823 
L 397.501868 347.784074 
L 398.494574 343.800152 
L 399.48728 349.405376 
L 400.479986 363.071554 
L 402.465398 340.352145 
L 403.458104 338.180296 
L 404.450809 337.321858 
L 405.443515 351.613132 
L 406.436221 350.729487 
L 407.428927 358.316731 
L 408.421633 359.745771 
L 409.414339 342.070667 
L 410.407045 319.855264 
L 411.399751 339.406389 
L 412.392457 351.054905 
L 413.385163 347.139232 
L 414.377869 344.163521 
L 415.370575 357.920967 
L 416.363281 354.376181 
L 417.355986 361.717191 
L 419.341398 336.894 
L 420.334104 352.947108 
L 421.32681 357.104358 
L 422.319516 363.411007 
L 423.312222 354.744423 
L 424.304928 349.252682 
L 425.297634 356.721302 
L 426.29034 351.141423 
L 427.283046 366.004544 
L 428.275752 349.35178 
L 429.268458 350.157095 
L 430.261163 348.258678 
L 431.253869 372.965853 
L 432.246575 354.130944 
L 433.239281 354.636015 
L 434.231987 365.792319 
L 436.217399 348.828608 
L 437.210105 343.566321 
L 438.202811 365.457297 
L 439.195517 366.116385 
L 440.188223 370.668366 
L 441.180929 358.528091 
L 442.173635 367.255846 
L 443.166341 355.795413 
L 444.159046 352.465248 
L 445.151752 343.419546 
L 447.137164 394.956957 
L 448.12987 358.736457 
L 449.122576 361.048677 
L 450.115282 360.219104 
L 451.107988 347.529437 
L 452.100694 360.84082 
L 453.0934 370.207766 
L 454.086106 353.380654 
L 455.078812 405.190306 
L 456.071518 407.044306 
L 457.064223 360.421064 
L 458.056929 353.600619 
L 459.049635 379.547946 
L 460.042341 353.139087 
L 461.035047 363.050798 
L 462.027753 365.237913 
L 463.020459 372.930745 
L 464.013165 388.463701 
L 465.005871 391.835119 
L 465.998577 367.214497 
L 466.991283 385.853966 
L 467.983989 377.186331 
L 468.976695 401.971454 
L 469.9694 362.269683 
L 470.962106 363.85516 
L 471.954812 357.172002 
L 472.947518 366.450056 
L 473.940224 367.319242 
L 474.93293 377.104231 
L 475.925636 376.693972 
L 476.918342 355.439856 
L 477.911048 384.744117 
L 478.903754 395.463589 
L 479.89646 370.135816 
L 480.889166 368.745651 
L 481.881872 374.025589 
L 482.874577 362.672006 
L 484.859989 376.659116 
L 485.852695 363.964286 
L 486.845401 367.555715 
L 487.838107 376.960731 
L 488.830813 369.219505 
L 489.823519 364.453545 
L 490.816225 369.58271 
L 491.808931 380.577119 
L 492.801637 405.451933 
L 493.794343 355.293123 
L 494.787049 353.198985 
L 495.779754 364.29087 
L 496.77246 383.089235 
L 497.765166 352.730747 
L 498.757872 384.26008 
L 499.750578 366.203354 
L 500.743284 366.645944 
L 501.73599 354.879783 
L 502.728696 357.3164 
L 503.721402 365.884334 
L 504.714108 385.274859 
L 505.706814 384.106964 
L 506.69952 381.64613 
L 507.692226 384.26755 
L 508.684932 358.371253 
L 509.677637 396.200906 
L 511.663049 363.708678 
L 512.655755 369.326456 
L 513.648461 383.645163 
L 514.641167 362.466243 
L 515.633873 368.169587 
L 516.626579 379.018709 
L 517.619285 378.329745 
L 518.611991 363.770661 
L 519.604697 430.890933 
L 520.597403 414.841136 
L 521.590109 368.615869 
L 522.582814 385.561923 
L 523.57552 399.024083 
L 524.568226 366.490537 
L 525.560932 371.713195 
L 526.553638 393.027319 
L 527.546344 360.931148 
L 528.53905 373.614402 
L 529.531756 364.334145 
L 530.524462 373.564791 
L 531.517168 360.471083 
L 532.509874 358.401815 
L 533.50258 406.562838 
L 534.495286 400.12482 
L 535.487991 359.317476 
L 536.480697 375.916719 
L 537.473403 373.033412 
L 538.466109 400.300578 
L 539.458815 376.871221 
L 540.451521 388.568716 
L 541.444227 375.901749 
L 542.436933 371.131211 
L 543.429639 363.415201 
L 544.422345 400.606218 
L 545.415051 383.597689 
L 546.407757 406.367898 
L 547.400463 382.017044 
L 548.393168 492.48 
L 549.385874 377.42289 
L 550.37858 378.817695 
L 551.371286 376.649901 
L 552.363992 367.853944 
L 553.356698 387.396802 
L 554.349404 378.726227 
L 555.34211 376.542261 
L 556.334816 365.770722 
L 557.327522 370.635453 
L 558.320228 360.379185 
L 559.312934 371.539983 
L 560.30564 355.279269 
L 561.298345 375.080994 
L 562.291051 375.997607 
L 563.283757 368.169989 
L 564.276463 375.429015 
L 565.269169 417.707561 
L 566.261875 376.010483 
L 567.254581 422.771487 
L 568.247287 379.685851 
L 569.239993 390.373919 
L 570.232699 387.264286 
L 571.225405 389.387407 
L 572.218111 406.601769 
L 573.210817 367.451703 
L 574.203523 376.637152 
L 575.196228 378.688335 
L 576.188934 399.426592 
L 577.18164 369.091815 
L 578.174346 377.525894 
L 579.167052 384.008609 
L 580.159758 387.513749 
L 581.152464 423.881486 
L 582.14517 396.491396 
L 583.137876 388.24588 
L 585.123288 408.562152 
L 586.115994 382.885394 
L 587.1087 366.269542 
L 588.101405 378.215781 
L 589.094111 377.149138 
L 590.086817 425.226392 
L 591.079523 395.704072 
L 592.072229 385.007591 
L 593.064935 392.763327 
L 594.057641 422.337775 
L 595.050347 401.306802 
L 596.043053 398.192953 
L 597.035759 433.08235 
L 598.028465 393.162807 
L 599.021171 393.037551 
L 600.013877 392.022152 
L 601.006582 370.442744 
L 601.999288 404.069094 
L 602.991994 370.854048 
L 603.9847 386.748244 
L 604.977406 387.851411 
L 605.970112 407.400175 
L 606.962818 389.278926 
L 607.955524 374.246477 
L 608.94823 402.372715 
L 609.940936 398.749871 
L 610.933642 377.06141 
L 611.926348 393.827588 
L 613.911759 400.811173 
L 614.904465 394.89322 
L 615.897171 381.877119 
L 616.889877 402.591007 
L 617.882583 382.471114 
L 618.875289 404.685548 
L 619.867995 393.454536 
L 620.860701 396.602897 
L 621.853407 390.923417 
L 622.846113 398.002179 
L 623.838819 386.909776 
L 624.831525 384.093723 
L 625.824231 391.644772 
L 626.816936 392.958404 
L 627.809642 390.465384 
L 628.802348 390.539414 
L 629.795054 396.073626 
L 630.78776 399.156969 
L 631.780466 396.273558 
L 632.773172 396.476412 
L 633.765878 407.601097 
L 634.758584 396.180449 
L 635.75129 396.779608 
L 636.743996 391.354391 
L 637.736702 385.089024 
L 638.729408 400.087439 
L 639.722114 406.831158 
L 640.714819 407.485522 
L 641.707525 393.871508 
L 642.700231 387.903837 
L 643.692937 399.014861 
L 644.685643 392.690205 
L 645.678349 393.103653 
L 646.671055 390.240555 
L 647.663761 397.387922 
L 648.656467 397.286113 
L 649.649173 404.712245 
L 650.641879 401.403371 
L 651.634585 393.397274 
L 652.627291 392.496254 
L 653.619996 397.993461 
L 654.612702 397.375891 
L 655.605408 392.826813 
L 656.598114 394.042397 
L 657.59082 404.265054 
L 658.583526 399.742779 
L 659.576232 400.413333 
L 660.568938 402.298921 
L 661.561644 398.169381 
L 662.55435 395.963833 
L 663.547056 395.712995 
L 664.539762 402.039001 
L 665.532468 397.482051 
L 666.525173 400.48137 
L 667.517879 400.494914 
L 668.510585 397.292966 
L 669.503291 402.877065 
L 670.495997 397.040556 
L 671.488703 400.520994 
L 672.481409 396.238796 
L 673.474115 400.192198 
L 674.466821 401.910528 
L 675.459527 402.207662 
L 676.452233 400.155784 
L 677.444939 399.268796 
L 678.437645 396.082772 
L 679.43035 395.80714 
L 680.423056 398.234267 
L 681.415762 401.430797 
L 682.408468 401.317282 
L 684.39388 399.296046 
L 685.386586 395.125342 
L 686.379292 399.911085 
L 687.371998 400.160883 
L 688.364704 401.197004 
L 689.35741 397.945257 
L 690.350116 401.702112 
L 691.342822 403.737055 
L 692.335527 401.226425 
L 693.328233 403.022575 
L 694.320939 401.829047 
L 695.313645 403.33551 
L 696.306351 402.711956 
L 697.299057 402.488023 
L 698.291763 400.181609 
L 699.284469 399.821402 
L 700.277175 402.1013 
L 701.269881 402.729839 
L 702.262587 401.894954 
L 703.255293 403.42447 
L 704.247999 405.805571 
L 705.240705 401.534523 
L 706.23341 404.078224 
L 707.226116 401.242598 
L 708.218822 403.738858 
L 709.211528 403.570528 
L 710.204234 403.054094 
L 711.19694 402.902112 
L 712.189646 402.949356 
L 713.182352 403.47627 
L 714.175058 403.366024 
L 715.167764 403.657549 
L 716.16047 401.090674 
L 717.153176 402.183857 
L 718.145882 404.746612 
L 719.138587 402.648553 
L 720.131293 404.699275 
L 721.123999 403.586372 
L 722.116705 403.498052 
L 723.109411 404.00694 
L 725.094823 405.643115 
L 726.087529 404.327116 
L 727.080235 403.773151 
L 728.072941 404.676281 
L 729.065647 408.231892 
L 730.058353 403.98645 
L 731.051059 406.295262 
L 732.043764 402.463894 
L 733.03647 405.318102 
L 734.029176 406.57408 
L 735.021882 402.629368 
L 736.014588 403.833051 
L 737.007294 406.219379 
L 738 407.002814 
L 738.992706 405.046849 
L 740.978118 406.705188 
L 741.970824 407.504477 
L 743.956236 405.852127 
L 744.948941 403.978791 
L 745.941647 407.274311 
L 746.934353 406.54564 
L 747.927059 407.112522 
L 748.919765 406.820084 
L 750.905177 406.849573 
L 751.897883 407.987841 
L 752.890589 406.737037 
L 753.883295 407.911151 
L 754.876001 405.64246 
L 755.868707 406.741202 
L 756.861413 407.329368 
L 757.854118 406.511349 
L 758.846824 404.652647 
L 759.83953 406.967319 
L 760.832236 408.450075 
L 761.824942 408.553486 
L 762.817648 408.235492 
L 763.810354 407.239638 
L 764.80306 408.038537 
L 765.795766 407.212794 
L 766.788472 407.080325 
L 767.781178 407.127726 
L 768.773884 409.46888 
L 769.76659 408.575907 
L 770.759295 408.710357 
L 771.752001 407.356856 
L 772.744707 408.609629 
L 773.737413 409.262019 
L 774.730119 408.723827 
L 775.722825 407.659975 
L 776.715531 409.925664 
L 777.708237 410.89649 
L 778.700943 408.822228 
L 779.693649 409.230758 
L 780.686355 408.218169 
L 781.679061 409.852459 
L 782.671767 408.756247 
L 783.664473 409.486976 
L 784.657178 409.503175 
L 785.649884 410.289593 
L 787.635296 409.278115 
L 788.628002 408.972889 
L 789.620708 410.355572 
L 790.613414 409.044852 
L 791.60612 412.932021 
L 792.598826 408.604991 
L 793.591532 408.788176 
L 794.584238 410.310566 
L 795.576944 411.071445 
L 796.56965 409.058136 
L 797.562355 409.131868 
L 798.555061 408.417787 
L 799.547767 411.454191 
L 800.540473 412.63738 
L 801.533179 410.200769 
L 803.518591 411.407034 
L 804.511297 410.979329 
L 805.504003 411.980415 
L 806.496709 412.732334 
L 807.489415 411.061835 
L 808.482121 410.101308 
L 809.474827 410.351021 
L 810.467532 412.856187 
L 811.460238 410.384487 
L 812.452944 411.584867 
L 813.44565 413.096698 
L 814.438356 412.019583 
L 815.431062 410.542177 
L 816.423768 411.568775 
L 817.416474 410.87613 
L 818.40918 411.801294 
L 819.401886 412.389572 
L 820.394592 412.675342 
L 821.387298 409.365843 
L 822.380004 410.306566 
L 823.372709 411.572548 
L 824.365415 413.313701 
L 825.358121 413.07175 
L 826.350827 411.716881 
L 827.343533 413.992286 
L 828.336239 411.723396 
L 829.328945 413.426305 
L 830.321651 411.370201 
L 831.314357 412.434721 
L 832.307063 412.07139 
L 833.299769 410.896681 
L 834.292475 414.144886 
L 835.285181 412.620625 
L 836.277886 413.756063 
L 837.270592 413.699137 
L 838.263298 412.92631 
L 840.24871 412.681884 
L 841.241416 413.736996 
L 842.234122 412.246546 
L 843.226828 413.985256 
L 844.219534 414.091514 
L 845.21224 413.012616 
L 846.204946 413.831086 
L 847.197652 413.683596 
L 848.190358 413.70341 
L 849.183064 414.199402 
L 850.175769 418.53034 
L 851.168475 415.830595 
L 853.153887 412.992029 
L 854.146593 413.640462 
L 855.139299 413.871925 
L 856.132005 415.323027 
L 857.124711 413.611615 
L 858.117417 414.911656 
L 859.110123 414.425749 
L 860.102829 415.109639 
L 861.095535 412.031237 
L 862.088241 413.737422 
L 863.080946 412.714147 
L 864.073652 414.538314 
L 865.066358 415.694028 
L 866.059064 415.896324 
L 867.05177 414.822626 
L 868.044476 414.61238 
L 870.029888 415.678192 
L 871.022594 417.159335 
L 872.0153 417.268787 
L 873.008006 416.717077 
L 874.000712 416.554033 
L 874.993418 414.380095 
L 875.986123 415.184572 
L 876.978829 413.723749 
L 877.971535 414.929532 
L 878.964241 417.51527 
L 879.956947 415.439596 
L 880.949653 416.387705 
L 881.942359 417.07563 
L 882.935065 415.98494 
L 883.927771 415.179854 
L 884.920477 416.884251 
L 885.913183 415.271226 
L 886.905889 412.781968 
L 887.898595 414.347151 
L 888.8913 416.171008 
L 889.884006 415.350982 
L 890.876712 416.099935 
L 891.869418 418.463294 
L 892.862124 417.190336 
L 893.85483 414.909862 
L 894.847536 414.74247 
L 895.840242 418.951527 
L 896.832948 414.704992 
L 897.825654 413.801472 
L 898.81836 418.109776 
L 899.811066 416.217718 
L 900.803772 416.679516 
L 901.796477 414.953766 
L 902.789183 415.194937 
L 903.781889 415.577855 
L 904.774595 414.916239 
L 905.767301 415.103964 
L 906.760007 416.921532 
L 907.752713 415.753575 
L 908.745419 416.610555 
L 909.738125 415.48248 
L 910.730831 419.693053 
L 911.723537 417.705597 
L 912.716243 416.88152 
L 913.708949 418.366081 
L 914.701655 418.215913 
L 915.69436 417.550779 
L 916.687066 420.704188 
L 917.679772 416.401742 
L 918.672478 418.778653 
L 919.665184 416.340798 
L 920.65789 419.538651 
L 921.650596 417.649474 
L 922.643302 418.598048 
L 923.636008 417.974684 
L 924.628714 416.978126 
L 925.62142 417.639585 
L 926.614126 417.167165 
L 927.606832 416.178253 
L 928.599537 419.502409 
L 929.592243 419.957999 
L 931.577655 416.832953 
L 932.570361 416.417685 
L 933.563067 418.141973 
L 934.555773 419.426222 
L 935.548479 415.843135 
L 936.541185 418.213325 
L 938.526597 418.262155 
L 939.519303 417.967307 
L 940.512009 418.52629 
L 941.504714 417.498394 
L 942.49742 417.864466 
L 943.490126 419.318458 
L 944.482832 417.784985 
L 945.475538 418.122461 
L 946.468244 421.423828 
L 947.46095 418.257656 
L 948.453656 421.359849 
L 949.446362 418.004898 
L 950.439068 419.796708 
L 951.431774 418.179812 
L 952.42448 420.469231 
L 953.417186 417.936395 
L 954.409891 416.769574 
L 955.402597 420.069955 
L 956.395303 419.97148 
L 957.388009 418.378193 
L 958.380715 419.552705 
L 959.373421 417.30254 
L 960.366127 418.044719 
L 961.358833 418.408677 
L 962.351539 419.540213 
L 963.344245 418.663749 
L 964.336951 420.111406 
L 965.329657 420.236657 
L 966.322363 418.248181 
L 967.315068 419.344959 
L 968.307774 418.50026 
L 969.30048 419.640865 
L 970.293186 418.553562 
L 971.285892 419.286523 
L 972.278598 420.612192 
L 973.271304 418.578023 
L 974.26401 421.516853 
L 975.256716 420.223282 
L 976.249422 419.423202 
L 977.242128 418.831801 
L 978.234834 419.583715 
L 979.22754 421.053862 
L 980.220246 420.69735 
L 981.212951 421.35126 
L 982.205657 420.150505 
L 983.198363 422.087939 
L 984.191069 419.516699 
L 985.183775 420.241455 
L 986.176481 420.020354 
L 987.169187 419.102483 
L 988.161893 419.985407 
L 989.154599 419.103805 
L 990.147305 418.965431 
L 991.140011 422.491204 
L 992.132717 416.988515 
L 993.125423 421.43739 
L 994.118128 422.915712 
L 995.110834 421.279679 
L 996.10354 420.335466 
L 997.096246 419.184235 
L 998.088952 418.915281 
L 999.081658 420.622682 
L 1000.074364 423.192196 
L 1001.06707 420.458993 
L 1002.059776 421.59804 
L 1003.052482 421.424544 
L 1005.037894 420.544674 
L 1006.0306 421.557864 
L 1007.023305 419.826107 
L 1008.016011 421.240173 
L 1009.008717 420.315627 
L 1010.001423 420.122792 
L 1010.994129 419.367589 
L 1012.979541 422.78667 
L 1013.972247 420.360561 
L 1014.964953 420.656888 
L 1015.957659 419.836134 
L 1016.950365 422.463421 
L 1017.943071 422.650775 
L 1018.935777 419.681294 
L 1019.928482 422.599343 
L 1020.921188 421.184612 
L 1021.913894 422.18156 
L 1022.9066 420.10583 
L 1023.899306 420.984843 
L 1024.892012 418.856074 
L 1025.884718 422.195982 
L 1026.877424 422.58326 
L 1027.87013 423.504006 
L 1029.855542 423.385374 
L 1030.848248 421.145315 
L 1031.840954 420.917959 
L 1033.826365 420.192612 
L 1034.819071 422.828822 
L 1035.811777 421.764113 
L 1036.804483 419.538862 
L 1037.797189 424.134476 
L 1038.789895 421.969959 
L 1039.782601 422.359967 
L 1040.775307 420.883828 
L 1041.768013 423.963928 
L 1042.760719 423.679328 
L 1043.753425 422.808523 
L 1044.746131 423.421564 
L 1045.738837 422.23705 
L 1046.731542 421.393149 
L 1047.724248 421.064142 
L 1048.716954 420.973094 
L 1049.70966 424.632088 
L 1050.702366 422.42146 
L 1051.695072 422.474126 
L 1052.687778 422.992235 
L 1053.680484 421.917311 
L 1054.67319 421.687955 
L 1055.665896 423.845514 
L 1056.658602 422.162216 
L 1057.651308 422.646482 
L 1058.644014 422.159703 
L 1059.636719 423.436637 
L 1060.629425 420.380253 
L 1061.622131 422.081323 
L 1062.614837 422.002889 
L 1063.607543 422.596044 
L 1064.600249 421.306727 
L 1065.592955 423.70093 
L 1066.585661 422.669664 
L 1067.578367 423.169524 
L 1068.571073 422.611942 
L 1069.563779 422.395457 
L 1070.556485 421.560591 
L 1071.549191 420.459343 
L 1072.541896 422.955288 
L 1073.534602 424.901817 
L 1074.527308 424.795675 
L 1075.520014 422.336054 
L 1076.51272 420.438584 
L 1077.505426 423.391331 
L 1078.498132 422.420783 
L 1079.490838 423.533884 
L 1081.47625 422.882506 
L 1082.468956 423.410006 
L 1083.461662 422.532321 
L 1084.454368 423.646908 
L 1085.447073 422.569832 
L 1086.439779 422.274863 
L 1087.432485 422.781943 
L 1088.425191 422.417132 
L 1089.417897 422.215345 
L 1090.410603 423.910962 
L 1091.403309 423.617338 
L 1092.396015 422.073666 
L 1093.388721 424.498869 
L 1094.381427 422.867422 
L 1095.374133 424.647053 
L 1096.366839 424.292423 
L 1097.359545 424.492365 
L 1098.35225 422.372738 
L 1099.344956 422.334959 
L 1100.337662 422.73323 
L 1101.330368 422.140849 
L 1102.323074 423.9791 
L 1103.31578 423.065112 
L 1104.308486 423.249055 
L 1105.301192 424.246166 
L 1106.293898 421.902091 
L 1107.286604 424.218127 
L 1108.27931 423.31083 
L 1109.272016 424.644386 
L 1110.264722 424.019959 
L 1111.257428 425.587167 
L 1112.250133 422.247115 
L 1113.242839 422.302099 
L 1114.235545 422.145662 
L 1115.228251 424.413664 
L 1116.220957 423.412979 
L 1117.213663 425.032333 
L 1118.206369 423.568541 
L 1119.199075 425.24174 
L 1120.191781 424.174656 
L 1121.184487 422.683286 
L 1122.177193 425.998126 
L 1123.169899 423.776992 
L 1124.162605 425.723806 
L 1125.15531 424.228602 
L 1126.148016 422.190537 
L 1127.140722 423.795984 
L 1128.133428 425.14397 
L 1129.126134 422.026829 
L 1130.11884 422.007968 
L 1131.111546 422.499573 
L 1132.104252 424.247066 
L 1133.096958 426.634168 
L 1134.089664 422.514052 
L 1135.08237 423.411022 
L 1136.075076 423.525993 
L 1137.067782 423.459175 
L 1138.060487 424.247002 
L 1139.053193 424.808404 
L 1140.045899 424.625995 
L 1142.031311 422.769333 
L 1143.024017 424.279602 
L 1144.016723 423.056707 
L 1145.009429 423.204047 
L 1146.002135 422.903287 
L 1146.994841 425.563197 
L 1147.987547 423.768688 
L 1148.980253 424.482394 
L 1149.972959 424.010022 
L 1150.965664 424.270892 
L 1151.95837 423.567113 
L 1152.951076 423.230959 
L 1153.943782 425.010336 
L 1154.936488 422.962788 
L 1155.929194 424.390664 
L 1156.9219 424.130469 
L 1157.914606 425.401927 
L 1158.907312 427.84275 
L 1159.900018 426.896521 
L 1160.892724 422.929298 
L 1161.88543 422.459551 
L 1162.878136 425.381703 
L 1163.870841 425.366958 
L 1164.863547 422.485705 
L 1165.856253 425.107603 
L 1166.848959 424.170376 
L 1167.841665 422.79866 
L 1168.834371 425.493721 
L 1169.827077 424.794877 
L 1171.812489 425.855481 
L 1172.805195 423.254612 
L 1173.797901 423.952986 
L 1174.790607 424.206935 
L 1175.783313 424.884692 
L 1176.776019 422.650944 
L 1177.768724 425.06344 
L 1178.76143 424.995236 
L 1179.754136 426.032502 
L 1181.739548 423.187673 
L 1182.732254 424.267106 
L 1183.72496 426.050187 
L 1184.717666 423.225717 
L 1185.710372 424.66949 
L 1186.703078 425.286404 
L 1187.695784 423.996713 
L 1188.68849 424.763585 
L 1189.681196 424.668742 
L 1190.673901 423.987493 
L 1191.666607 424.623225 
L 1192.659313 423.541215 
L 1193.652019 424.722084 
L 1194.644725 424.137105 
L 1195.637431 424.142688 
L 1196.630137 422.758658 
L 1198.615549 424.539101 
L 1199.608255 423.641247 
L 1200.600961 425.819027 
L 1201.593667 425.938514 
L 1202.586373 427.270151 
L 1203.579078 423.832396 
L 1204.571784 423.993558 
L 1205.56449 423.68919 
L 1206.557196 423.951278 
L 1207.549902 423.810914 
L 1209.535314 423.12894 
L 1210.52802 426.610008 
L 1211.520726 425.08529 
L 1212.513432 425.939564 
L 1213.506138 422.803111 
L 1214.498844 424.091029 
L 1215.49155 423.25923 
L 1216.484255 424.23306 
L 1217.476961 426.830998 
L 1218.469667 424.150665 
L 1219.462373 424.009099 
L 1220.455079 422.548613 
L 1221.447785 425.921339 
L 1222.440491 423.43019 
L 1223.433197 426.371666 
L 1224.425903 422.782116 
L 1225.418609 424.622373 
L 1226.411315 425.000702 
L 1227.404021 424.863601 
L 1228.396727 423.293674 
L 1229.389432 424.143197 
L 1231.374844 425.233396 
L 1232.36755 424.987314 
L 1233.360256 425.132937 
L 1234.352962 423.602837 
L 1235.345668 425.722181 
L 1236.338374 426.223023 
L 1237.33108 424.071254 
L 1238.323786 425.410031 
L 1239.316492 424.08091 
L 1240.309198 424.639713 
L 1241.301904 423.559248 
L 1244.280021 426.912708 
L 1245.272727 425.155634 
L 1245.272727 425.155634 
" clip-path="url(#p600b3f3f72)" style="fill: none; stroke: #1f77b4; stroke-width: 1.5; stroke-linecap: square"/>
   </g>
   <g id="patch_3">
    <path d="M 180 512.64 
L 180 69.12 
" style="fill: none; stroke: #000000; stroke-width: 0.8; stroke-linejoin: miter; stroke-linecap: square"/>
   </g>
   <g id="patch_4">
    <path d="M 1296 512.64 
L 1296 69.12 
" style="fill: none; stroke: #000000; stroke-width: 0.8; stroke-linejoin: miter; stroke-linecap: square"/>
   </g>
   <g id="patch_5">
    <path d="M 180 512.64 
L 1296 512.64 
" style="fill: none; stroke: #000000; stroke-width: 0.8; stroke-linejoin: miter; stroke-linecap: square"/>
   </g>
   <g id="patch_6">
    <path d="M 180 69.12 
L 1296 69.12 
" style="fill: none; stroke: #000000; stroke-width: 0.8; stroke-linejoin: miter; stroke-linecap: square"/>
   </g>
   <g id="text_16">
    <!-- source10-receiver23 -->
    <g transform="translate(532.175 60.80125) scale(0.4 -0.4)">
     <defs>
      <path id="DejaVuSans-73" d="M 2834 3397 
L 2834 2853 
Q 2591 2978 2328 3040 
Q 2066 3103 1784 3103 
Q 1356 3103 1142 2972 
Q 928 2841 928 2578 
Q 928 2378 1081 2264 
Q 1234 2150 1697 2047 
L 1894 2003 
Q 2506 1872 2764 1633 
Q 3022 1394 3022 966 
Q 3022 478 2636 193 
Q 2250 -91 1575 -91 
Q 1294 -91 989 -36 
Q 684 19 347 128 
L 347 722 
Q 666 556 975 473 
Q 1284 391 1588 391 
Q 1994 391 2212 530 
Q 2431 669 2431 922 
Q 2431 1156 2273 1281 
Q 2116 1406 1581 1522 
L 1381 1569 
Q 847 1681 609 1914 
Q 372 2147 372 2553 
Q 372 3047 722 3315 
Q 1072 3584 1716 3584 
Q 2034 3584 2315 3537 
Q 2597 3491 2834 3397 
z
" transform="scale(0.015625)"/>
      <path id="DejaVuSans-6f" d="M 1959 3097 
Q 1497 3097 1228 2736 
Q 959 2375 959 1747 
Q 959 1119 1226 758 
Q 1494 397 1959 397 
Q 2419 397 2687 759 
Q 2956 1122 2956 1747 
Q 2956 2369 2687 2733 
Q 2419 3097 1959 3097 
z
M 1959 3584 
Q 2709 3584 3137 3096 
Q 3566 2609 3566 1747 
Q 3566 888 3137 398 
Q 2709 -91 1959 -91 
Q 1206 -91 779 398 
Q 353 888 353 1747 
Q 353 2609 779 3096 
Q 1206 3584 1959 3584 
z
" transform="scale(0.015625)"/>
      <path id="DejaVuSans-75" d="M 544 1381 
L 544 3500 
L 1119 3500 
L 1119 1403 
Q 1119 906 1312 657 
Q 1506 409 1894 409 
Q 2359 409 2629 706 
Q 2900 1003 2900 1516 
L 2900 3500 
L 3475 3500 
L 3475 0 
L 2900 0 
L 2900 538 
Q 2691 219 2414 64 
Q 2138 -91 1772 -91 
Q 1169 -91 856 284 
Q 544 659 544 1381 
z
M 1991 3584 
L 1991 3584 
z
" transform="scale(0.015625)"/>
      <path id="DejaVuSans-72" d="M 2631 2963 
Q 2534 3019 2420 3045 
Q 2306 3072 2169 3072 
Q 1681 3072 1420 2755 
Q 1159 2438 1159 1844 
L 1159 0 
L 581 0 
L 581 3500 
L 1159 3500 
L 1159 2956 
Q 1341 3275 1631 3429 
Q 1922 3584 2338 3584 
Q 2397 3584 2469 3576 
Q 2541 3569 2628 3553 
L 2631 2963 
z
" transform="scale(0.015625)"/>
      <path id="DejaVuSans-63" d="M 3122 3366 
L 3122 2828 
Q 2878 2963 2633 3030 
Q 2388 3097 2138 3097 
Q 1578 3097 1268 2742 
Q 959 2388 959 1747 
Q 959 1106 1268 751 
Q 1578 397 2138 397 
Q 2388 397 2633 464 
Q 2878 531 3122 666 
L 3122 134 
Q 2881 22 2623 -34 
Q 2366 -91 2075 -91 
Q 1284 -91 818 406 
Q 353 903 353 1747 
Q 353 2603 823 3093 
Q 1294 3584 2113 3584 
Q 2378 3584 2631 3529 
Q 2884 3475 3122 3366 
z
" transform="scale(0.015625)"/>
      <path id="DejaVuSans-65" d="M 3597 1894 
L 3597 1613 
L 953 1613 
Q 991 1019 1311 708 
Q 1631 397 2203 397 
Q 2534 397 2845 478 
Q 3156 559 3463 722 
L 3463 178 
Q 3153 47 2828 -22 
Q 2503 -91 2169 -91 
Q 1331 -91 842 396 
Q 353 884 353 1716 
Q 353 2575 817 3079 
Q 1281 3584 2069 3584 
Q 2775 3584 3186 3129 
Q 3597 2675 3597 1894 
z
M 3022 2063 
Q 3016 2534 2758 2815 
Q 2500 3097 2075 3097 
Q 1594 3097 1305 2825 
Q 1016 2553 972 2059 
L 3022 2063 
z
" transform="scale(0.015625)"/>
      <path id="DejaVuSans-2d" d="M 313 2009 
L 1997 2009 
L 1997 1497 
L 313 1497 
L 313 2009 
z
" transform="scale(0.015625)"/>
      <path id="DejaVuSans-69" d="M 603 3500 
L 1178 3500 
L 1178 0 
L 603 0 
L 603 3500 
z
M 603 4863 
L 1178 4863 
L 1178 4134 
L 603 4134 
L 603 4863 
z
" transform="scale(0.015625)"/>
      <path id="DejaVuSans-76" d="M 191 3500 
L 800 3500 
L 1894 563 
L 2988 3500 
L 3597 3500 
L 2284 0 
L 1503 0 
L 191 3500 
z
" transform="scale(0.015625)"/>
     </defs>
     <use xlink:href="#DejaVuSans-73"/>
     <use xlink:href="#DejaVuSans-6f" x="52.099609"/>
     <use xlink:href="#DejaVuSans-75" x="113.28125"/>
     <use xlink:href="#DejaVuSans-72" x="176.660156"/>
     <use xlink:href="#DejaVuSans-63" x="215.523438"/>
     <use xlink:href="#DejaVuSans-65" x="270.503906"/>
     <use xlink:href="#DejaVuSans-31" x="332.027344"/>
     <use xlink:href="#DejaVuSans-30" x="395.650391"/>
     <use xlink:href="#DejaVuSans-2d" x="459.273438"/>
     <use xlink:href="#DejaVuSans-72" x="495.357422"/>
     <use xlink:href="#DejaVuSans-65" x="534.220703"/>
     <use xlink:href="#DejaVuSans-63" x="595.744141"/>
     <use xlink:href="#DejaVuSans-65" x="650.724609"/>
     <use xlink:href="#DejaVuSans-69" x="712.248047"/>
     <use xlink:href="#DejaVuSans-76" x="740.03125"/>
     <use xlink:href="#DejaVuSans-65" x="799.210938"/>
     <use xlink:href="#DejaVuSans-72" x="860.734375"/>
     <use xlink:href="#DejaVuSans-32" x="901.847656"/>
     <use xlink:href="#DejaVuSans-33" x="965.470703"/>
    </g>
   </g>
  </g>
 </g>
 <defs>
  <clipPath id="p600b3f3f72">
   <rect x="180" y="69.12" width="1116" height="443.52"/>
  </clipPath>
 </defs>
</svg>
