<?xml version="1.0" encoding="utf-8" standalone="no"?>
<!DOCTYPE svg PUBLIC "-//W3C//DTD SVG 1.1//EN"
  "http://www.w3.org/Graphics/SVG/1.1/DTD/svg11.dtd">
<svg xmlns:xlink="http://www.w3.org/1999/xlink" width="1440pt" height="576pt" viewBox="0 0 1440 576" xmlns="http://www.w3.org/2000/svg" version="1.1">
 <metadata>
  <rdf:RDF xmlns:dc="http://purl.org/dc/elements/1.1/" xmlns:cc="http://creativecommons.org/ns#" xmlns:rdf="http://www.w3.org/1999/02/22-rdf-syntax-ns#">
   <cc:Work>
    <dc:type rdf:resource="http://purl.org/dc/dcmitype/StillImage"/>
    <dc:date>2024-05-22T04:49:57.105405</dc:date>
    <dc:format>image/svg+xml</dc:format>
    <dc:creator>
     <cc:Agent>
      <dc:title>Matplotlib v3.8.3, https://matplotlib.org/</dc:title>
     </cc:Agent>
    </dc:creator>
   </cc:Work>
  </rdf:RDF>
 </metadata>
 <defs>
  <style type="text/css">*{stroke-linejoin: round; stroke-linecap: butt}</style>
 </defs>
 <g id="figure_1">
  <g id="patch_1">
   <path d="M 0 576 
L 1440 576 
L 1440 0 
L 0 0 
z
" style="fill: #ffffff"/>
  </g>
  <g id="axes_1">
   <g id="patch_2">
    <path d="M 180 512.64 
L 1296 512.64 
L 1296 69.12 
L 180 69.12 
z
" style="fill: #ffffff"/>
   </g>
   <g id="matplotlib.axis_1">
    <g id="xtick_1">
     <g id="line2d_1">
      <defs>
       <path id="m9c84f8ba55" d="M 0 0 
L 0 3.5 
" style="stroke: #000000; stroke-width: 0.8"/>
      </defs>
      <g>
       <use xlink:href="#m9c84f8ba55" x="229.734567" y="512.64" style="stroke: #000000; stroke-width: 0.8"/>
      </g>
     </g>
     <g id="text_1">
      <!-- 0 -->
      <g transform="translate(226.553317 527.238438) scale(0.1 -0.1)">
       <defs>
        <path id="DejaVuSans-30" d="M 2034 4250 
Q 1547 4250 1301 3770 
Q 1056 3291 1056 2328 
Q 1056 1369 1301 889 
Q 1547 409 2034 409 
Q 2525 409 2770 889 
Q 3016 1369 3016 2328 
Q 3016 3291 2770 3770 
Q 2525 4250 2034 4250 
z
M 2034 4750 
Q 2819 4750 3233 4129 
Q 3647 3509 3647 2328 
Q 3647 1150 3233 529 
Q 2819 -91 2034 -91 
Q 1250 -91 836 529 
Q 422 1150 422 2328 
Q 422 3509 836 4129 
Q 1250 4750 2034 4750 
z
" transform="scale(0.015625)"/>
       </defs>
       <use xlink:href="#DejaVuSans-30"/>
      </g>
     </g>
    </g>
    <g id="xtick_2">
     <g id="line2d_2">
      <g>
       <use xlink:href="#m9c84f8ba55" x="433.04074" y="512.64" style="stroke: #000000; stroke-width: 0.8"/>
      </g>
     </g>
     <g id="text_2">
      <!-- 500 -->
      <g transform="translate(423.49699 527.238438) scale(0.1 -0.1)">
       <defs>
        <path id="DejaVuSans-35" d="M 691 4666 
L 3169 4666 
L 3169 4134 
L 1269 4134 
L 1269 2991 
Q 1406 3038 1543 3061 
Q 1681 3084 1819 3084 
Q 2600 3084 3056 2656 
Q 3513 2228 3513 1497 
Q 3513 744 3044 326 
Q 2575 -91 1722 -91 
Q 1428 -91 1123 -41 
Q 819 9 494 109 
L 494 744 
Q 775 591 1075 516 
Q 1375 441 1709 441 
Q 2250 441 2565 725 
Q 2881 1009 2881 1497 
Q 2881 1984 2565 2268 
Q 2250 2553 1709 2553 
Q 1456 2553 1204 2497 
Q 953 2441 691 2322 
L 691 4666 
z
" transform="scale(0.015625)"/>
       </defs>
       <use xlink:href="#DejaVuSans-35"/>
       <use xlink:href="#DejaVuSans-30" x="63.623047"/>
       <use xlink:href="#DejaVuSans-30" x="127.246094"/>
      </g>
     </g>
    </g>
    <g id="xtick_3">
     <g id="line2d_3">
      <g>
       <use xlink:href="#m9c84f8ba55" x="636.346913" y="512.64" style="stroke: #000000; stroke-width: 0.8"/>
      </g>
     </g>
     <g id="text_3">
      <!-- 1000 -->
      <g transform="translate(623.621913 527.238438) scale(0.1 -0.1)">
       <defs>
        <path id="DejaVuSans-31" d="M 794 531 
L 1825 531 
L 1825 4091 
L 703 3866 
L 703 4441 
L 1819 4666 
L 2450 4666 
L 2450 531 
L 3481 531 
L 3481 0 
L 794 0 
L 794 531 
z
" transform="scale(0.015625)"/>
       </defs>
       <use xlink:href="#DejaVuSans-31"/>
       <use xlink:href="#DejaVuSans-30" x="63.623047"/>
       <use xlink:href="#DejaVuSans-30" x="127.246094"/>
       <use xlink:href="#DejaVuSans-30" x="190.869141"/>
      </g>
     </g>
    </g>
    <g id="xtick_4">
     <g id="line2d_4">
      <g>
       <use xlink:href="#m9c84f8ba55" x="839.653087" y="512.64" style="stroke: #000000; stroke-width: 0.8"/>
      </g>
     </g>
     <g id="text_4">
      <!-- 1500 -->
      <g transform="translate(826.928087 527.238438) scale(0.1 -0.1)">
       <use xlink:href="#DejaVuSans-31"/>
       <use xlink:href="#DejaVuSans-35" x="63.623047"/>
       <use xlink:href="#DejaVuSans-30" x="127.246094"/>
       <use xlink:href="#DejaVuSans-30" x="190.869141"/>
      </g>
     </g>
    </g>
    <g id="xtick_5">
     <g id="line2d_5">
      <g>
       <use xlink:href="#m9c84f8ba55" x="1042.95926" y="512.64" style="stroke: #000000; stroke-width: 0.8"/>
      </g>
     </g>
     <g id="text_5">
      <!-- 2000 -->
      <g transform="translate(1030.23426 527.238438) scale(0.1 -0.1)">
       <defs>
        <path id="DejaVuSans-32" d="M 1228 531 
L 3431 531 
L 3431 0 
L 469 0 
L 469 531 
Q 828 903 1448 1529 
Q 2069 2156 2228 2338 
Q 2531 2678 2651 2914 
Q 2772 3150 2772 3378 
Q 2772 3750 2511 3984 
Q 2250 4219 1831 4219 
Q 1534 4219 1204 4116 
Q 875 4013 500 3803 
L 500 4441 
Q 881 4594 1212 4672 
Q 1544 4750 1819 4750 
Q 2544 4750 2975 4387 
Q 3406 4025 3406 3419 
Q 3406 3131 3298 2873 
Q 3191 2616 2906 2266 
Q 2828 2175 2409 1742 
Q 1991 1309 1228 531 
z
" transform="scale(0.015625)"/>
       </defs>
       <use xlink:href="#DejaVuSans-32"/>
       <use xlink:href="#DejaVuSans-30" x="63.623047"/>
       <use xlink:href="#DejaVuSans-30" x="127.246094"/>
       <use xlink:href="#DejaVuSans-30" x="190.869141"/>
      </g>
     </g>
    </g>
    <g id="xtick_6">
     <g id="line2d_6">
      <g>
       <use xlink:href="#m9c84f8ba55" x="1246.265433" y="512.64" style="stroke: #000000; stroke-width: 0.8"/>
      </g>
     </g>
     <g id="text_6">
      <!-- 2500 -->
      <g transform="translate(1233.540433 527.238438) scale(0.1 -0.1)">
       <use xlink:href="#DejaVuSans-32"/>
       <use xlink:href="#DejaVuSans-35" x="63.623047"/>
       <use xlink:href="#DejaVuSans-30" x="127.246094"/>
       <use xlink:href="#DejaVuSans-30" x="190.869141"/>
      </g>
     </g>
    </g>
   </g>
   <g id="matplotlib.axis_2">
    <g id="ytick_1">
     <g id="line2d_7">
      <defs>
       <path id="m9513867175" d="M 0 0 
L -3.5 0 
" style="stroke: #000000; stroke-width: 0.8"/>
      </defs>
      <g>
       <use xlink:href="#m9513867175" x="180" y="496.834516" style="stroke: #000000; stroke-width: 0.8"/>
      </g>
     </g>
     <g id="text_7">
      <!-- −6 -->
      <g transform="translate(158.257812 500.633735) scale(0.1 -0.1)">
       <defs>
        <path id="DejaVuSans-2212" d="M 678 2272 
L 4684 2272 
L 4684 1741 
L 678 1741 
L 678 2272 
z
" transform="scale(0.015625)"/>
        <path id="DejaVuSans-36" d="M 2113 2584 
Q 1688 2584 1439 2293 
Q 1191 2003 1191 1497 
Q 1191 994 1439 701 
Q 1688 409 2113 409 
Q 2538 409 2786 701 
Q 3034 994 3034 1497 
Q 3034 2003 2786 2293 
Q 2538 2584 2113 2584 
z
M 3366 4563 
L 3366 3988 
Q 3128 4100 2886 4159 
Q 2644 4219 2406 4219 
Q 1781 4219 1451 3797 
Q 1122 3375 1075 2522 
Q 1259 2794 1537 2939 
Q 1816 3084 2150 3084 
Q 2853 3084 3261 2657 
Q 3669 2231 3669 1497 
Q 3669 778 3244 343 
Q 2819 -91 2113 -91 
Q 1303 -91 875 529 
Q 447 1150 447 2328 
Q 447 3434 972 4092 
Q 1497 4750 2381 4750 
Q 2619 4750 2861 4703 
Q 3103 4656 3366 4563 
z
" transform="scale(0.015625)"/>
       </defs>
       <use xlink:href="#DejaVuSans-2212"/>
       <use xlink:href="#DejaVuSans-36" x="83.789062"/>
      </g>
     </g>
    </g>
    <g id="ytick_2">
     <g id="line2d_8">
      <g>
       <use xlink:href="#m9513867175" x="180" y="412.738356" style="stroke: #000000; stroke-width: 0.8"/>
      </g>
     </g>
     <g id="text_8">
      <!-- −4 -->
      <g transform="translate(158.257812 416.537574) scale(0.1 -0.1)">
       <defs>
        <path id="DejaVuSans-34" d="M 2419 4116 
L 825 1625 
L 2419 1625 
L 2419 4116 
z
M 2253 4666 
L 3047 4666 
L 3047 1625 
L 3713 1625 
L 3713 1100 
L 3047 1100 
L 3047 0 
L 2419 0 
L 2419 1100 
L 313 1100 
L 313 1709 
L 2253 4666 
z
" transform="scale(0.015625)"/>
       </defs>
       <use xlink:href="#DejaVuSans-2212"/>
       <use xlink:href="#DejaVuSans-34" x="83.789062"/>
      </g>
     </g>
    </g>
    <g id="ytick_3">
     <g id="line2d_9">
      <g>
       <use xlink:href="#m9513867175" x="180" y="328.642195" style="stroke: #000000; stroke-width: 0.8"/>
      </g>
     </g>
     <g id="text_9">
      <!-- −2 -->
      <g transform="translate(158.257812 332.441414) scale(0.1 -0.1)">
       <use xlink:href="#DejaVuSans-2212"/>
       <use xlink:href="#DejaVuSans-32" x="83.789062"/>
      </g>
     </g>
    </g>
    <g id="ytick_4">
     <g id="line2d_10">
      <g>
       <use xlink:href="#m9513867175" x="180" y="244.546035" style="stroke: #000000; stroke-width: 0.8"/>
      </g>
     </g>
     <g id="text_10">
      <!-- 0 -->
      <g transform="translate(166.6375 248.345254) scale(0.1 -0.1)">
       <use xlink:href="#DejaVuSans-30"/>
      </g>
     </g>
    </g>
    <g id="ytick_5">
     <g id="line2d_11">
      <g>
       <use xlink:href="#m9513867175" x="180" y="160.449874" style="stroke: #000000; stroke-width: 0.8"/>
      </g>
     </g>
     <g id="text_11">
      <!-- 2 -->
      <g transform="translate(166.6375 164.249093) scale(0.1 -0.1)">
       <use xlink:href="#DejaVuSans-32"/>
      </g>
     </g>
    </g>
    <g id="ytick_6">
     <g id="line2d_12">
      <g>
       <use xlink:href="#m9513867175" x="180" y="76.353714" style="stroke: #000000; stroke-width: 0.8"/>
      </g>
     </g>
     <g id="text_12">
      <!-- 4 -->
      <g transform="translate(166.6375 80.152933) scale(0.1 -0.1)">
       <use xlink:href="#DejaVuSans-34"/>
      </g>
     </g>
    </g>
   </g>
   <g id="line2d_13">
    <path d="M 230.727273 300.81492 
L 233.70539 300.831184 
L 234.698096 300.693183 
L 235.690802 300.894212 
L 236.683508 300.920454 
L 237.676214 300.698414 
L 238.66892 300.886648 
L 239.661626 300.600698 
L 240.654332 300.680681 
L 241.647038 300.609159 
L 242.639744 299.8814 
L 243.63245 298.763174 
L 244.625156 298.584777 
L 245.617862 299.931561 
L 246.610568 297.472711 
L 248.595979 259.281345 
L 250.581391 217.46261 
L 251.574097 201.152216 
L 255.544921 149.264947 
L 256.537627 140.425352 
L 257.530333 138.251831 
L 258.523039 140.285828 
L 259.515745 141.109215 
L 260.50845 138.913111 
L 261.501156 140.980993 
L 262.493862 151.376443 
L 263.486568 159.170425 
L 264.479274 152.436787 
L 265.47198 153.897632 
L 266.464686 179.970433 
L 267.457392 202.19687 
L 268.450098 158.255463 
L 269.442804 148.290588 
L 270.43551 155.479382 
L 271.428216 179.685839 
L 272.420922 200.863768 
L 273.413627 171.777548 
L 274.406333 159.054907 
L 275.399039 152.962677 
L 277.384451 128.082245 
L 278.377157 121.203637 
L 279.369863 118.867305 
L 280.362569 112.816603 
L 281.355275 100.641892 
L 282.347981 91.244714 
L 283.340687 89.28 
L 284.333393 95.953547 
L 285.326099 110.369306 
L 286.318804 115.943128 
L 287.31151 106.982907 
L 288.304216 105.794943 
L 289.296922 118.10862 
L 290.289628 140.616343 
L 291.282334 137.47634 
L 292.27504 128.874629 
L 293.267746 132.249229 
L 294.260452 141.252121 
L 295.253158 146.596121 
L 296.245864 153.398165 
L 297.23857 164.475222 
L 298.231276 166.057021 
L 299.223981 164.855054 
L 300.216687 174.398025 
L 301.209393 192.541213 
L 302.202099 198.999814 
L 303.194805 201.849715 
L 304.187511 211.92845 
L 306.172923 225.767616 
L 307.165629 252.095246 
L 308.158335 355.815026 
L 309.151041 267.9597 
L 310.143747 262.035981 
L 311.136453 292.675683 
L 312.129159 296.274353 
L 313.121864 302.932017 
L 314.11457 307.565983 
L 315.107276 304.999129 
L 316.099982 318.649027 
L 317.092688 311.391342 
L 318.085394 315.763924 
L 319.0781 301.815896 
L 320.070806 310.430868 
L 321.063512 314.588957 
L 322.056218 310.245064 
L 323.048924 333.62345 
L 324.04163 322.843378 
L 325.034336 332.331158 
L 326.027041 318.775695 
L 327.019747 332.903574 
L 328.012453 312.251303 
L 329.005159 333.058724 
L 329.997865 357.450022 
L 330.990571 338.475758 
L 331.983277 331.812816 
L 332.975983 327.022176 
L 333.968689 342.762495 
L 334.961395 363.200555 
L 335.954101 338.294734 
L 336.946807 336.397756 
L 337.939513 358.937261 
L 338.932218 384.257755 
L 339.924924 335.529508 
L 340.91763 335.153826 
L 341.910336 363.55679 
L 342.903042 340.909537 
L 343.895748 326.063356 
L 344.888454 340.125785 
L 345.88116 365.629798 
L 346.873866 351.093905 
L 347.866572 348.366194 
L 348.859278 326.850482 
L 349.851984 342.67852 
L 350.84469 343.35964 
L 351.837395 382.811265 
L 352.830101 355.066379 
L 353.822807 366.24832 
L 354.815513 374.485259 
L 355.808219 343.120249 
L 356.800925 347.951311 
L 357.793631 376.915126 
L 358.786337 365.602095 
L 359.779043 363.162218 
L 360.771749 335.812647 
L 361.764455 342.029483 
L 362.757161 360.412215 
L 363.749867 356.826793 
L 364.742572 385.205865 
L 365.735278 351.493592 
L 366.727984 335.40204 
L 367.72069 353.574697 
L 368.713396 347.221095 
L 369.706102 355.748859 
L 370.698808 381.579234 
L 371.691514 369.282511 
L 372.68422 350.799434 
L 373.676926 365.420119 
L 374.669632 417.236523 
L 375.662338 398.12747 
L 376.655044 362.091481 
L 377.64775 385.247269 
L 378.640455 362.723909 
L 379.633161 396.712576 
L 380.625867 370.210282 
L 381.618573 374.129485 
L 382.611279 491.546844 
L 383.603985 357.886967 
L 384.596691 366.971447 
L 387.574809 375.080364 
L 388.567515 352.669235 
L 389.560221 380.723319 
L 390.552927 375.095293 
L 391.545632 377.804114 
L 392.538338 492.48 
L 393.531044 351.743166 
L 394.52375 359.662959 
L 395.516456 384.244715 
L 396.509162 398.741208 
L 397.501868 355.30874 
L 398.494574 373.313077 
L 399.48728 358.022629 
L 400.479986 355.554634 
L 401.472692 390.680125 
L 402.465398 371.032061 
L 403.458104 370.291177 
L 404.450809 362.341199 
L 406.436221 400.870627 
L 407.428927 375.990281 
L 408.421633 391.999173 
L 409.414339 362.902429 
L 410.407045 373.399863 
L 411.399751 425.646013 
L 412.392457 350.594528 
L 413.385163 410.999715 
L 414.377869 401.603726 
L 415.370575 355.664271 
L 416.363281 380.676425 
L 417.355986 374.725681 
L 418.348692 396.395147 
L 419.341398 411.436142 
L 420.334104 395.238761 
L 421.32681 367.133351 
L 422.319516 382.923167 
L 423.312222 381.096281 
L 424.304928 373.627665 
L 425.297634 380.257013 
L 426.29034 410.466017 
L 427.283046 351.650111 
L 428.275752 356.545097 
L 429.268458 416.847965 
L 430.261163 416.995976 
L 431.253869 384.152839 
L 432.246575 386.568018 
L 433.239281 359.546024 
L 434.231987 368.02892 
L 435.224693 411.970129 
L 436.217399 370.311456 
L 437.210105 366.874414 
L 438.202811 405.149955 
L 439.195517 373.7843 
L 440.188223 382.869786 
L 441.180929 379.117429 
L 442.173635 407.697969 
L 443.166341 431.011219 
L 444.159046 464.564737 
L 445.151752 371.67153 
L 446.144458 366.101704 
L 447.137164 402.404951 
L 448.12987 433.420686 
L 449.122576 371.035712 
L 450.115282 400.106455 
L 451.107988 382.501652 
L 452.100694 382.773755 
L 453.0934 416.455162 
L 454.086106 400.136364 
L 455.078812 375.427467 
L 456.071518 386.146085 
L 457.064223 384.462117 
L 458.056929 371.742037 
L 459.049635 369.498745 
L 460.042341 401.976091 
L 461.035047 376.409902 
L 462.027753 403.638822 
L 463.020459 370.278967 
L 464.013165 372.276426 
L 465.005871 376.399489 
L 465.998577 356.361457 
L 466.991283 418.921036 
L 467.983989 424.915608 
L 468.976695 444.244177 
L 469.9694 347.306307 
L 470.962106 404.627454 
L 471.954812 369.087788 
L 472.947518 388.991764 
L 473.940224 399.952445 
L 474.93293 371.647808 
L 475.925636 387.888177 
L 476.918342 388.347755 
L 477.911048 372.134624 
L 478.903754 359.805632 
L 479.89646 449.271235 
L 480.889166 363.124049 
L 481.881872 379.196935 
L 482.874577 368.608914 
L 483.867283 349.934087 
L 485.852695 384.079193 
L 486.845401 405.343157 
L 487.838107 354.887573 
L 488.830813 408.737235 
L 489.823519 375.783957 
L 490.816225 392.306561 
L 491.808931 403.446392 
L 492.801637 390.18839 
L 493.794343 379.765929 
L 494.787049 418.49431 
L 495.779754 445.086243 
L 496.77246 390.675107 
L 497.765166 366.70894 
L 498.757872 411.08021 
L 499.750578 390.249204 
L 500.743284 410.011891 
L 501.73599 388.50441 
L 502.728696 393.839784 
L 503.721402 383.527368 
L 504.714108 358.807858 
L 505.706814 378.218927 
L 506.69952 372.775804 
L 507.692226 399.839286 
L 508.684932 384.775696 
L 509.677637 386.092285 
L 510.670343 378.395259 
L 511.663049 365.638834 
L 512.655755 434.481663 
L 513.648461 386.723073 
L 514.641167 386.888515 
L 515.633873 376.560231 
L 516.626579 369.318998 
L 517.619285 372.93307 
L 518.611991 398.700244 
L 519.604697 405.409961 
L 520.597403 362.175046 
L 521.590109 394.769077 
L 522.582814 385.764223 
L 523.57552 409.63008 
L 524.568226 406.361087 
L 525.560932 390.074573 
L 526.553638 390.158704 
L 527.546344 382.276445 
L 528.53905 405.985726 
L 529.531756 372.274639 
L 530.524462 386.710647 
L 531.517168 396.572626 
L 532.509874 389.885835 
L 533.50258 385.020346 
L 534.495286 409.461462 
L 535.487991 393.634106 
L 536.480697 363.099683 
L 537.473403 387.826939 
L 538.466109 439.050645 
L 539.458815 365.910112 
L 540.451521 381.954878 
L 541.444227 407.383238 
L 542.436933 382.244291 
L 543.429639 377.674789 
L 544.422345 398.998295 
L 545.415051 378.269665 
L 546.407757 409.982763 
L 547.400463 401.123482 
L 548.393168 365.172283 
L 549.385874 383.880734 
L 550.37858 373.497263 
L 551.371286 401.125808 
L 552.363992 424.251765 
L 553.356698 383.940111 
L 554.349404 386.137233 
L 555.34211 464.736696 
L 556.334816 370.585908 
L 557.327522 385.026438 
L 558.320228 365.174429 
L 559.312934 387.145365 
L 560.30564 369.136965 
L 561.298345 451.802119 
L 562.291051 377.726137 
L 563.283757 390.801839 
L 564.276463 394.754558 
L 565.269169 387.729197 
L 566.261875 399.751782 
L 567.254581 373.879887 
L 568.247287 437.708704 
L 569.239993 423.853668 
L 570.232699 403.781389 
L 571.225405 393.830226 
L 572.218111 395.921614 
L 573.210817 374.03068 
L 574.203523 362.246944 
L 575.196228 443.47154 
L 576.188934 380.809773 
L 577.18164 376.480691 
L 578.174346 419.559451 
L 579.167052 389.942848 
L 580.159758 418.684423 
L 581.152464 394.434128 
L 582.14517 379.118621 
L 583.137876 394.605598 
L 584.130582 464.694986 
L 585.123288 419.663322 
L 586.115994 393.883867 
L 587.1087 362.178397 
L 588.101405 398.19474 
L 589.094111 395.202382 
L 590.086817 388.932028 
L 591.079523 413.121766 
L 592.072229 426.361938 
L 593.064935 372.045905 
L 594.057641 402.185684 
L 595.050347 446.532764 
L 596.043053 394.172172 
L 597.035759 396.040554 
L 598.028465 407.365522 
L 599.021171 378.622296 
L 600.013877 394.680301 
L 601.006582 408.481332 
L 601.999288 403.183029 
L 602.991994 433.427506 
L 603.9847 403.464845 
L 604.977406 382.074384 
L 605.970112 441.238186 
L 606.962818 392.840265 
L 607.955524 462.549093 
L 608.94823 432.057156 
L 609.940936 420.242501 
L 610.933642 398.443581 
L 611.926348 403.511911 
L 612.919054 407.865983 
L 613.911759 412.754594 
L 614.904465 411.660091 
L 615.897171 399.36664 
L 616.889877 419.984376 
L 618.875289 399.324128 
L 619.867995 413.875538 
L 620.860701 397.430712 
L 621.853407 463.721156 
L 622.846113 472.811041 
L 623.838819 424.186022 
L 624.831525 419.431486 
L 625.824231 385.684629 
L 626.816936 410.392611 
L 627.809642 417.676131 
L 628.802348 418.334661 
L 629.795054 448.951383 
L 630.78776 436.355072 
L 631.780466 446.149874 
L 632.773172 396.05586 
L 633.765878 473.500785 
L 634.758584 459.741015 
L 635.75129 467.708803 
L 636.743996 430.221788 
L 637.736702 448.830046 
L 638.729408 428.684559 
L 639.722114 420.382637 
L 640.714819 484.248107 
L 641.707525 422.214462 
L 642.700231 419.939244 
L 643.692937 416.314011 
L 644.685643 466.455243 
L 645.678349 462.302542 
L 646.671055 485.932056 
L 647.663761 424.147159 
L 648.656467 424.225976 
L 649.649173 460.639465 
L 650.641879 458.129251 
L 651.634585 418.740875 
L 652.627291 427.642402 
L 653.619996 447.824727 
L 654.612702 445.7718 
L 655.605408 424.514292 
L 656.598114 427.567991 
L 657.59082 420.860564 
L 658.583526 422.111686 
L 659.576232 436.643477 
L 660.568938 454.110831 
L 661.561644 429.190439 
L 662.55435 449.100636 
L 663.547056 424.400254 
L 664.539762 427.164159 
L 666.525173 463.514692 
L 667.517879 427.451271 
L 668.510585 436.607741 
L 669.503291 428.572436 
L 670.495997 439.559942 
L 671.488703 426.771182 
L 672.481409 425.663675 
L 673.474115 435.098994 
L 674.466821 434.829318 
L 675.459527 434.873827 
L 676.452233 465.306225 
L 678.437645 426.311103 
L 679.43035 440.424967 
L 680.423056 437.688938 
L 681.415762 427.959303 
L 682.408468 431.536135 
L 683.401174 440.308297 
L 684.39388 430.667942 
L 685.386586 433.393225 
L 686.379292 424.407156 
L 687.371998 459.771704 
L 688.364704 470.886518 
L 689.35741 443.674052 
L 690.350116 439.34816 
L 691.342822 448.240122 
L 692.335527 438.927674 
L 693.328233 451.303081 
L 694.320939 434.04717 
L 695.313645 441.38339 
L 696.306351 435.831621 
L 697.299057 432.653391 
L 698.291763 435.442262 
L 699.284469 447.069636 
L 700.277175 442.713905 
L 701.269881 440.061072 
L 702.262587 444.944404 
L 703.255293 441.974087 
L 704.247999 445.125237 
L 705.240705 436.256613 
L 706.23341 436.979132 
L 707.226116 433.497756 
L 709.211528 447.403431 
L 710.204234 437.657544 
L 711.19694 439.98264 
L 712.189646 453.922776 
L 713.182352 453.570814 
L 714.175058 440.526068 
L 715.167764 444.469001 
L 716.16047 436.825343 
L 717.153176 435.501333 
L 718.145882 449.671345 
L 719.138587 450.90043 
L 720.131293 438.807042 
L 721.123999 462.2597 
L 722.116705 444.958169 
L 723.109411 439.881551 
L 724.102117 440.201961 
L 725.094823 446.810387 
L 726.087529 442.696065 
L 727.080235 441.987287 
L 728.072941 444.497019 
L 729.065647 441.107136 
L 730.058353 445.36686 
L 731.051059 442.097047 
L 732.043764 444.696588 
L 733.03647 436.426313 
L 734.029176 443.133182 
L 735.021882 448.14883 
L 736.014588 439.456564 
L 737.007294 442.600517 
L 738 443.462183 
L 738.992706 444.507446 
L 739.985412 449.428169 
L 740.978118 450.594368 
L 741.970824 455.213868 
L 742.96353 445.791425 
L 743.956236 452.271595 
L 744.948941 438.366371 
L 745.941647 444.221945 
L 746.934353 449.187488 
L 747.927059 447.646198 
L 748.919765 441.974523 
L 749.912471 447.734044 
L 750.905177 447.873189 
L 751.897883 449.810284 
L 752.890589 443.411233 
L 753.883295 443.333877 
L 754.876001 454.151857 
L 755.868707 440.562862 
L 756.861413 438.333152 
L 757.854118 443.815347 
L 758.846824 445.477791 
L 759.83953 449.23919 
L 760.832236 448.869736 
L 761.824942 451.233665 
L 762.817648 450.988279 
L 763.810354 452.698696 
L 764.80306 444.398543 
L 765.795766 446.600057 
L 766.788472 455.129802 
L 767.781178 446.662959 
L 768.773884 449.261325 
L 769.76659 445.689345 
L 770.759295 447.809748 
L 771.752001 447.581403 
L 772.744707 452.142112 
L 773.737413 443.605957 
L 774.730119 450.151995 
L 775.722825 449.563805 
L 776.715531 449.307368 
L 777.708237 442.636171 
L 778.700943 445.654297 
L 779.693649 454.501064 
L 780.686355 452.292373 
L 782.671767 441.483485 
L 783.664473 451.676976 
L 784.657178 448.991633 
L 785.649884 452.384812 
L 786.64259 447.156037 
L 787.635296 448.539525 
L 788.628002 444.702126 
L 789.620708 445.031109 
L 790.613414 450.586532 
L 791.60612 450.121707 
L 792.598826 443.841188 
L 793.591532 456.727657 
L 794.584238 451.557072 
L 795.576944 455.410641 
L 796.56965 453.030592 
L 797.562355 442.803072 
L 800.540473 456.980494 
L 801.533179 455.342342 
L 802.525885 452.776333 
L 803.518591 445.500523 
L 804.511297 451.892957 
L 805.504003 447.490148 
L 806.496709 458.250816 
L 807.489415 456.279919 
L 808.482121 445.828932 
L 809.474827 446.390182 
L 810.467532 456.920912 
L 811.460238 446.654657 
L 812.452944 448.845087 
L 813.44565 447.397671 
L 814.438356 451.158352 
L 815.431062 446.955856 
L 816.423768 459.374241 
L 817.416474 449.659885 
L 818.40918 451.116213 
L 819.401886 448.076008 
L 821.387298 453.662664 
L 822.380004 451.282309 
L 823.372709 441.174856 
L 824.365415 457.930656 
L 826.350827 448.999638 
L 827.343533 455.761295 
L 829.328945 452.81989 
L 830.321651 442.20448 
L 831.314357 451.633821 
L 832.307063 450.047534 
L 833.299769 453.097508 
L 834.292475 450.227224 
L 835.285181 451.81721 
L 836.277886 452.642139 
L 837.270592 460.855922 
L 838.263298 451.102704 
L 839.256004 450.489991 
L 840.24871 452.690759 
L 841.241416 458.394361 
L 842.234122 456.21776 
L 843.226828 449.502287 
L 844.219534 451.018407 
L 845.21224 456.656435 
L 846.204946 455.326193 
L 847.197652 450.584694 
L 848.190358 450.931413 
L 849.183064 467.216535 
L 850.175769 455.818167 
L 851.168475 451.87011 
L 852.161181 452.296542 
L 853.153887 453.485884 
L 854.146593 454.081973 
L 855.139299 457.125078 
L 857.124711 444.992735 
L 858.117417 450.573069 
L 859.110123 459.698361 
L 860.102829 457.326095 
L 861.095535 448.64363 
L 863.080946 461.472575 
L 864.073652 452.745957 
L 865.066358 451.92582 
L 866.059064 455.4018 
L 867.05177 450.097753 
L 868.044476 446.89362 
L 869.037182 454.599071 
L 870.029888 459.618125 
L 871.022594 452.215995 
L 872.0153 448.416764 
L 873.008006 452.008782 
L 874.000712 450.528842 
L 874.993418 462.272589 
L 875.986123 453.294683 
L 876.978829 453.900478 
L 877.971535 464.830433 
L 878.964241 455.033568 
L 879.956947 454.33847 
L 880.949653 455.73756 
L 881.942359 457.893931 
L 882.935065 462.815198 
L 883.927771 461.836851 
L 884.920477 453.508042 
L 885.913183 451.729907 
L 886.905889 461.753306 
L 887.898595 461.254453 
L 888.8913 461.322813 
L 889.884006 461.614427 
L 890.876712 452.000712 
L 891.869418 453.267926 
L 892.862124 452.103423 
L 893.85483 457.134341 
L 894.847536 457.533721 
L 895.840242 457.271506 
L 896.832948 452.39603 
L 897.825654 449.31075 
L 898.81836 459.975977 
L 899.811066 456.46814 
L 900.803772 455.480644 
L 901.796477 453.294785 
L 902.789183 459.232528 
L 903.781889 455.069275 
L 904.774595 446.609766 
L 905.767301 461.717619 
L 906.760007 456.358936 
L 907.752713 453.32965 
L 908.745419 453.598247 
L 909.738125 461.248413 
L 910.730831 455.576547 
L 911.723537 452.878291 
L 912.716243 454.418749 
L 913.708949 461.999937 
L 914.701655 459.833439 
L 915.69436 455.613759 
L 916.687066 464.526124 
L 917.679772 457.038055 
L 918.672478 457.19487 
L 919.665184 451.607995 
L 920.65789 454.412442 
L 921.650596 455.145319 
L 922.643302 453.821006 
L 923.636008 457.020555 
L 924.628714 454.875007 
L 925.62142 460.524243 
L 926.614126 465.497387 
L 927.606832 458.212207 
L 928.599537 458.359625 
L 929.592243 454.879219 
L 930.584949 452.310384 
L 931.577655 467.870497 
L 932.570361 457.285962 
L 933.563067 451.488168 
L 934.555773 455.920096 
L 935.548479 457.163615 
L 936.541185 454.841992 
L 937.533891 458.52618 
L 938.526597 471.136524 
L 939.519303 460.059267 
L 940.512009 450.806217 
L 941.504714 454.402666 
L 942.49742 462.571677 
L 943.490126 458.965336 
L 944.482832 454.803779 
L 945.475538 455.852565 
L 946.468244 462.14302 
L 947.46095 460.462414 
L 948.453656 459.966838 
L 949.446362 459.08199 
L 950.439068 449.607136 
L 951.431774 459.858702 
L 952.42448 455.636417 
L 953.417186 455.203851 
L 954.409891 461.756719 
L 955.402597 452.453718 
L 957.388009 460.761255 
L 958.380715 460.52643 
L 959.373421 461.087913 
L 960.366127 467.102974 
L 961.358833 464.996863 
L 962.351539 456.170107 
L 963.344245 460.571872 
L 964.336951 458.984387 
L 965.329657 459.085484 
L 966.322363 457.251679 
L 967.315068 454.948899 
L 968.307774 456.42579 
L 969.30048 455.911586 
L 970.293186 456.29824 
L 971.285892 465.441977 
L 972.278598 456.014782 
L 973.271304 462.942691 
L 974.26401 458.948483 
L 975.256716 450.487003 
L 976.249422 457.620021 
L 977.242128 461.080139 
L 978.234834 465.118222 
L 979.22754 458.132151 
L 980.220246 464.769939 
L 981.212951 462.505776 
L 982.205657 462.602587 
L 983.198363 457.287013 
L 984.191069 448.892246 
L 985.183775 458.169287 
L 986.176481 463.778126 
L 987.169187 456.948768 
L 988.161893 456.028823 
L 989.154599 452.934766 
L 990.147305 471.528935 
L 991.140011 461.16763 
L 992.132717 460.115555 
L 993.125423 461.417171 
L 994.118128 461.379984 
L 995.110834 458.611275 
L 996.10354 459.542409 
L 997.096246 462.501624 
L 998.088952 459.652589 
L 999.081658 455.848705 
L 1000.074364 467.109586 
L 1001.06707 453.441475 
L 1002.059776 453.196446 
L 1003.052482 451.830387 
L 1004.045188 458.591031 
L 1005.037894 462.367064 
L 1006.0306 457.460418 
L 1007.023305 453.691047 
L 1008.016011 459.761466 
L 1009.008717 458.793084 
L 1010.001423 458.495836 
L 1010.994129 457.158579 
L 1011.986835 453.69708 
L 1012.979541 460.937161 
L 1013.972247 454.732884 
L 1014.964953 458.037138 
L 1015.957659 459.767782 
L 1016.950365 458.270876 
L 1017.943071 460.643035 
L 1018.935777 451.148451 
L 1019.928482 463.692964 
L 1020.921188 458.447179 
L 1021.913894 462.696239 
L 1022.9066 461.768908 
L 1023.899306 455.289333 
L 1024.892012 456.390807 
L 1025.884718 455.844546 
L 1026.877424 453.264921 
L 1027.87013 456.684966 
L 1028.862836 461.405677 
L 1029.855542 457.852101 
L 1030.848248 473.746992 
L 1031.840954 461.685368 
L 1032.833659 460.699764 
L 1033.826365 458.431897 
L 1034.819071 458.961042 
L 1035.811777 471.190097 
L 1036.804483 457.701715 
L 1037.797189 456.466364 
L 1038.789895 460.885608 
L 1039.782601 458.507662 
L 1040.775307 460.771927 
L 1041.768013 459.45638 
L 1042.760719 462.437724 
L 1043.753425 463.201389 
L 1044.746131 468.14853 
L 1045.738837 461.607943 
L 1046.731542 465.515099 
L 1047.724248 465.379901 
L 1048.716954 463.666221 
L 1049.70966 464.472851 
L 1050.702366 459.400401 
L 1051.695072 459.721385 
L 1052.687778 464.95588 
L 1053.680484 459.257276 
L 1054.67319 460.289015 
L 1055.665896 461.067374 
L 1056.658602 455.856784 
L 1057.651308 458.690401 
L 1058.644014 456.8109 
L 1059.636719 465.064351 
L 1060.629425 464.832889 
L 1061.622131 465.079328 
L 1062.614837 451.584022 
L 1063.607543 461.320944 
L 1064.600249 461.812756 
L 1065.592955 464.946349 
L 1066.585661 457.117776 
L 1067.578367 455.929225 
L 1068.571073 462.927825 
L 1069.563779 452.391843 
L 1070.556485 460.872573 
L 1071.549191 460.527807 
L 1072.541896 461.05867 
L 1073.534602 464.144619 
L 1074.527308 461.381863 
L 1075.520014 454.028482 
L 1076.51272 460.941597 
L 1077.505426 473.280471 
L 1078.498132 461.427661 
L 1079.490838 460.680636 
L 1080.483544 461.311659 
L 1081.47625 456.943788 
L 1082.468956 463.210629 
L 1083.461662 464.683895 
L 1084.454368 460.96642 
L 1085.447073 461.981024 
L 1086.439779 462.592218 
L 1087.432485 462.207809 
L 1088.425191 455.447244 
L 1089.417897 467.859866 
L 1090.410603 472.159965 
L 1091.403309 452.998964 
L 1092.396015 461.67599 
L 1093.388721 466.430823 
L 1094.381427 463.761563 
L 1095.374133 452.186697 
L 1096.366839 473.1212 
L 1097.359545 460.014872 
L 1098.35225 458.695905 
L 1099.344956 468.771623 
L 1101.330368 459.765689 
L 1102.323074 449.451623 
L 1103.31578 458.701017 
L 1104.308486 460.331832 
L 1105.301192 465.789938 
L 1106.293898 462.378096 
L 1107.286604 459.845896 
L 1108.27931 461.400157 
L 1109.272016 468.341521 
L 1110.264722 471.229991 
L 1111.257428 462.118838 
L 1112.250133 458.397628 
L 1113.242839 465.567132 
L 1114.235545 459.148392 
L 1116.220957 457.564176 
L 1117.213663 469.300812 
L 1118.206369 462.909832 
L 1119.199075 460.899729 
L 1120.191781 459.74005 
L 1121.184487 470.837965 
L 1122.177193 473.496601 
L 1123.169899 454.363226 
L 1124.162605 455.747675 
L 1126.148016 468.622276 
L 1127.140722 459.822225 
L 1128.133428 461.008259 
L 1129.126134 456.840178 
L 1130.11884 466.160782 
L 1131.111546 472.442734 
L 1132.104252 462.523885 
L 1133.096958 466.156184 
L 1135.08237 455.379422 
L 1136.075076 456.791566 
L 1137.067782 461.17933 
L 1138.060487 467.787576 
L 1139.053193 450.817919 
L 1140.045899 459.954958 
L 1141.038605 462.874114 
L 1142.031311 463.954533 
L 1143.024017 460.78718 
L 1144.016723 461.787794 
L 1145.009429 467.515774 
L 1146.002135 464.660996 
L 1146.994841 466.53038 
L 1147.987547 461.725546 
L 1148.980253 460.471748 
L 1149.972959 465.670028 
L 1150.965664 463.643322 
L 1151.95837 462.007642 
L 1152.951076 462.008079 
L 1153.943782 459.631746 
L 1154.936488 471.893893 
L 1155.929194 463.248841 
L 1156.9219 459.271065 
L 1157.914606 461.452016 
L 1158.907312 453.953351 
L 1159.900018 471.905809 
L 1160.892724 462.099207 
L 1161.88543 469.604845 
L 1162.878136 475.114803 
L 1163.870841 469.671459 
L 1164.863547 466.129451 
L 1165.856253 461.804015 
L 1166.848959 453.27147 
L 1167.841665 462.249516 
L 1168.834371 467.93743 
L 1169.827077 462.69237 
L 1170.819783 452.865905 
L 1171.812489 460.326046 
L 1172.805195 460.330277 
L 1173.797901 467.234162 
L 1174.790607 472.153724 
L 1175.783313 464.554036 
L 1176.776019 465.716247 
L 1177.768724 456.224417 
L 1178.76143 462.6927 
L 1179.754136 460.847332 
L 1180.746842 460.131511 
L 1181.739548 458.72709 
L 1182.732254 458.947743 
L 1183.72496 458.053997 
L 1184.717666 469.210456 
L 1185.710372 467.78794 
L 1186.703078 462.215261 
L 1187.695784 464.39619 
L 1189.681196 464.336405 
L 1190.673901 461.114875 
L 1191.666607 461.123048 
L 1192.659313 467.005782 
L 1193.652019 462.827956 
L 1194.644725 469.513719 
L 1195.637431 465.012615 
L 1196.630137 466.089103 
L 1197.622843 458.597858 
L 1198.615549 460.844012 
L 1199.608255 459.723395 
L 1200.600961 456.390166 
L 1201.593667 464.742761 
L 1202.586373 460.966663 
L 1203.579078 463.458842 
L 1204.571784 462.041938 
L 1205.56449 455.190234 
L 1206.557196 457.350376 
L 1207.549902 466.146373 
L 1208.542608 471.336959 
L 1209.535314 462.919048 
L 1210.52802 463.295181 
L 1211.520726 452.259519 
L 1212.513432 459.916155 
L 1213.506138 475.098683 
L 1214.498844 458.949248 
L 1215.49155 454.868264 
L 1216.484255 462.281607 
L 1217.476961 464.903494 
L 1218.469667 461.026205 
L 1219.462373 456.049642 
L 1220.455079 458.046479 
L 1221.447785 459.111344 
L 1222.440491 460.408784 
L 1223.433197 461.420172 
L 1224.425903 460.875614 
L 1225.418609 458.328809 
L 1226.411315 460.166546 
L 1227.404021 454.332662 
L 1228.396727 461.177626 
L 1229.389432 471.92035 
L 1230.382138 461.366491 
L 1231.374844 466.743218 
L 1232.36755 470.336234 
L 1233.360256 464.770967 
L 1234.352962 465.162115 
L 1235.345668 462.841749 
L 1236.338374 468.780179 
L 1237.33108 468.553559 
L 1238.323786 463.490369 
L 1239.316492 460.926755 
L 1240.309198 465.720998 
L 1241.301904 460.723251 
L 1242.29461 463.983062 
L 1244.280021 466.628503 
L 1245.272727 464.011441 
L 1245.272727 464.011441 
" clip-path="url(#p6d26528acf)" style="fill: none; stroke: #1f77b4; stroke-width: 1.5; stroke-linecap: square"/>
   </g>
   <g id="patch_3">
    <path d="M 180 512.64 
L 180 69.12 
" style="fill: none; stroke: #000000; stroke-width: 0.8; stroke-linejoin: miter; stroke-linecap: square"/>
   </g>
   <g id="patch_4">
    <path d="M 1296 512.64 
L 1296 69.12 
" style="fill: none; stroke: #000000; stroke-width: 0.8; stroke-linejoin: miter; stroke-linecap: square"/>
   </g>
   <g id="patch_5">
    <path d="M 180 512.64 
L 1296 512.64 
" style="fill: none; stroke: #000000; stroke-width: 0.8; stroke-linejoin: miter; stroke-linecap: square"/>
   </g>
   <g id="patch_6">
    <path d="M 180 69.12 
L 1296 69.12 
" style="fill: none; stroke: #000000; stroke-width: 0.8; stroke-linejoin: miter; stroke-linecap: square"/>
   </g>
   <g id="text_13">
    <!-- source10-receiver2 -->
    <g transform="translate(544.9 60.80125) scale(0.4 -0.4)">
     <defs>
      <path id="DejaVuSans-73" d="M 2834 3397 
L 2834 2853 
Q 2591 2978 2328 3040 
Q 2066 3103 1784 3103 
Q 1356 3103 1142 2972 
Q 928 2841 928 2578 
Q 928 2378 1081 2264 
Q 1234 2150 1697 2047 
L 1894 2003 
Q 2506 1872 2764 1633 
Q 3022 1394 3022 966 
Q 3022 478 2636 193 
Q 2250 -91 1575 -91 
Q 1294 -91 989 -36 
Q 684 19 347 128 
L 347 722 
Q 666 556 975 473 
Q 1284 391 1588 391 
Q 1994 391 2212 530 
Q 2431 669 2431 922 
Q 2431 1156 2273 1281 
Q 2116 1406 1581 1522 
L 1381 1569 
Q 847 1681 609 1914 
Q 372 2147 372 2553 
Q 372 3047 722 3315 
Q 1072 3584 1716 3584 
Q 2034 3584 2315 3537 
Q 2597 3491 2834 3397 
z
" transform="scale(0.015625)"/>
      <path id="DejaVuSans-6f" d="M 1959 3097 
Q 1497 3097 1228 2736 
Q 959 2375 959 1747 
Q 959 1119 1226 758 
Q 1494 397 1959 397 
Q 2419 397 2687 759 
Q 2956 1122 2956 1747 
Q 2956 2369 2687 2733 
Q 2419 3097 1959 3097 
z
M 1959 3584 
Q 2709 3584 3137 3096 
Q 3566 2609 3566 1747 
Q 3566 888 3137 398 
Q 2709 -91 1959 -91 
Q 1206 -91 779 398 
Q 353 888 353 1747 
Q 353 2609 779 3096 
Q 1206 3584 1959 3584 
z
" transform="scale(0.015625)"/>
      <path id="DejaVuSans-75" d="M 544 1381 
L 544 3500 
L 1119 3500 
L 1119 1403 
Q 1119 906 1312 657 
Q 1506 409 1894 409 
Q 2359 409 2629 706 
Q 2900 1003 2900 1516 
L 2900 3500 
L 3475 3500 
L 3475 0 
L 2900 0 
L 2900 538 
Q 2691 219 2414 64 
Q 2138 -91 1772 -91 
Q 1169 -91 856 284 
Q 544 659 544 1381 
z
M 1991 3584 
L 1991 3584 
z
" transform="scale(0.015625)"/>
      <path id="DejaVuSans-72" d="M 2631 2963 
Q 2534 3019 2420 3045 
Q 2306 3072 2169 3072 
Q 1681 3072 1420 2755 
Q 1159 2438 1159 1844 
L 1159 0 
L 581 0 
L 581 3500 
L 1159 3500 
L 1159 2956 
Q 1341 3275 1631 3429 
Q 1922 3584 2338 3584 
Q 2397 3584 2469 3576 
Q 2541 3569 2628 3553 
L 2631 2963 
z
" transform="scale(0.015625)"/>
      <path id="DejaVuSans-63" d="M 3122 3366 
L 3122 2828 
Q 2878 2963 2633 3030 
Q 2388 3097 2138 3097 
Q 1578 3097 1268 2742 
Q 959 2388 959 1747 
Q 959 1106 1268 751 
Q 1578 397 2138 397 
Q 2388 397 2633 464 
Q 2878 531 3122 666 
L 3122 134 
Q 2881 22 2623 -34 
Q 2366 -91 2075 -91 
Q 1284 -91 818 406 
Q 353 903 353 1747 
Q 353 2603 823 3093 
Q 1294 3584 2113 3584 
Q 2378 3584 2631 3529 
Q 2884 3475 3122 3366 
z
" transform="scale(0.015625)"/>
      <path id="DejaVuSans-65" d="M 3597 1894 
L 3597 1613 
L 953 1613 
Q 991 1019 1311 708 
Q 1631 397 2203 397 
Q 2534 397 2845 478 
Q 3156 559 3463 722 
L 3463 178 
Q 3153 47 2828 -22 
Q 2503 -91 2169 -91 
Q 1331 -91 842 396 
Q 353 884 353 1716 
Q 353 2575 817 3079 
Q 1281 3584 2069 3584 
Q 2775 3584 3186 3129 
Q 3597 2675 3597 1894 
z
M 3022 2063 
Q 3016 2534 2758 2815 
Q 2500 3097 2075 3097 
Q 1594 3097 1305 2825 
Q 1016 2553 972 2059 
L 3022 2063 
z
" transform="scale(0.015625)"/>
      <path id="DejaVuSans-2d" d="M 313 2009 
L 1997 2009 
L 1997 1497 
L 313 1497 
L 313 2009 
z
" transform="scale(0.015625)"/>
      <path id="DejaVuSans-69" d="M 603 3500 
L 1178 3500 
L 1178 0 
L 603 0 
L 603 3500 
z
M 603 4863 
L 1178 4863 
L 1178 4134 
L 603 4134 
L 603 4863 
z
" transform="scale(0.015625)"/>
      <path id="DejaVuSans-76" d="M 191 3500 
L 800 3500 
L 1894 563 
L 2988 3500 
L 3597 3500 
L 2284 0 
L 1503 0 
L 191 3500 
z
" transform="scale(0.015625)"/>
     </defs>
     <use xlink:href="#DejaVuSans-73"/>
     <use xlink:href="#DejaVuSans-6f" x="52.099609"/>
     <use xlink:href="#DejaVuSans-75" x="113.28125"/>
     <use xlink:href="#DejaVuSans-72" x="176.660156"/>
     <use xlink:href="#DejaVuSans-63" x="215.523438"/>
     <use xlink:href="#DejaVuSans-65" x="270.503906"/>
     <use xlink:href="#DejaVuSans-31" x="332.027344"/>
     <use xlink:href="#DejaVuSans-30" x="395.650391"/>
     <use xlink:href="#DejaVuSans-2d" x="459.273438"/>
     <use xlink:href="#DejaVuSans-72" x="495.357422"/>
     <use xlink:href="#DejaVuSans-65" x="534.220703"/>
     <use xlink:href="#DejaVuSans-63" x="595.744141"/>
     <use xlink:href="#DejaVuSans-65" x="650.724609"/>
     <use xlink:href="#DejaVuSans-69" x="712.248047"/>
     <use xlink:href="#DejaVuSans-76" x="740.03125"/>
     <use xlink:href="#DejaVuSans-65" x="799.210938"/>
     <use xlink:href="#DejaVuSans-72" x="860.734375"/>
     <use xlink:href="#DejaVuSans-32" x="901.847656"/>
    </g>
   </g>
  </g>
 </g>
 <defs>
  <clipPath id="p6d26528acf">
   <rect x="180" y="69.12" width="1116" height="443.52"/>
  </clipPath>
 </defs>
</svg>
