<?xml version="1.0" encoding="utf-8" standalone="no"?>
<!DOCTYPE svg PUBLIC "-//W3C//DTD SVG 1.1//EN"
  "http://www.w3.org/Graphics/SVG/1.1/DTD/svg11.dtd">
<svg xmlns:xlink="http://www.w3.org/1999/xlink" width="1440pt" height="576pt" viewBox="0 0 1440 576" xmlns="http://www.w3.org/2000/svg" version="1.1">
 <metadata>
  <rdf:RDF xmlns:dc="http://purl.org/dc/elements/1.1/" xmlns:cc="http://creativecommons.org/ns#" xmlns:rdf="http://www.w3.org/1999/02/22-rdf-syntax-ns#">
   <cc:Work>
    <dc:type rdf:resource="http://purl.org/dc/dcmitype/StillImage"/>
    <dc:date>2024-05-22T04:49:57.180771</dc:date>
    <dc:format>image/svg+xml</dc:format>
    <dc:creator>
     <cc:Agent>
      <dc:title>Matplotlib v3.8.3, https://matplotlib.org/</dc:title>
     </cc:Agent>
    </dc:creator>
   </cc:Work>
  </rdf:RDF>
 </metadata>
 <defs>
  <style type="text/css">*{stroke-linejoin: round; stroke-linecap: butt}</style>
 </defs>
 <g id="figure_1">
  <g id="patch_1">
   <path d="M 0 576 
L 1440 576 
L 1440 0 
L 0 0 
z
" style="fill: #ffffff"/>
  </g>
  <g id="axes_1">
   <g id="patch_2">
    <path d="M 180 512.64 
L 1296 512.64 
L 1296 69.12 
L 180 69.12 
z
" style="fill: #ffffff"/>
   </g>
   <g id="matplotlib.axis_1">
    <g id="xtick_1">
     <g id="line2d_1">
      <defs>
       <path id="m67982b7077" d="M 0 0 
L 0 3.5 
" style="stroke: #000000; stroke-width: 0.8"/>
      </defs>
      <g>
       <use xlink:href="#m67982b7077" x="229.734567" y="512.64" style="stroke: #000000; stroke-width: 0.8"/>
      </g>
     </g>
     <g id="text_1">
      <!-- 0 -->
      <g transform="translate(226.553317 527.238438) scale(0.1 -0.1)">
       <defs>
        <path id="DejaVuSans-30" d="M 2034 4250 
Q 1547 4250 1301 3770 
Q 1056 3291 1056 2328 
Q 1056 1369 1301 889 
Q 1547 409 2034 409 
Q 2525 409 2770 889 
Q 3016 1369 3016 2328 
Q 3016 3291 2770 3770 
Q 2525 4250 2034 4250 
z
M 2034 4750 
Q 2819 4750 3233 4129 
Q 3647 3509 3647 2328 
Q 3647 1150 3233 529 
Q 2819 -91 2034 -91 
Q 1250 -91 836 529 
Q 422 1150 422 2328 
Q 422 3509 836 4129 
Q 1250 4750 2034 4750 
z
" transform="scale(0.015625)"/>
       </defs>
       <use xlink:href="#DejaVuSans-30"/>
      </g>
     </g>
    </g>
    <g id="xtick_2">
     <g id="line2d_2">
      <g>
       <use xlink:href="#m67982b7077" x="433.04074" y="512.64" style="stroke: #000000; stroke-width: 0.8"/>
      </g>
     </g>
     <g id="text_2">
      <!-- 500 -->
      <g transform="translate(423.49699 527.238438) scale(0.1 -0.1)">
       <defs>
        <path id="DejaVuSans-35" d="M 691 4666 
L 3169 4666 
L 3169 4134 
L 1269 4134 
L 1269 2991 
Q 1406 3038 1543 3061 
Q 1681 3084 1819 3084 
Q 2600 3084 3056 2656 
Q 3513 2228 3513 1497 
Q 3513 744 3044 326 
Q 2575 -91 1722 -91 
Q 1428 -91 1123 -41 
Q 819 9 494 109 
L 494 744 
Q 775 591 1075 516 
Q 1375 441 1709 441 
Q 2250 441 2565 725 
Q 2881 1009 2881 1497 
Q 2881 1984 2565 2268 
Q 2250 2553 1709 2553 
Q 1456 2553 1204 2497 
Q 953 2441 691 2322 
L 691 4666 
z
" transform="scale(0.015625)"/>
       </defs>
       <use xlink:href="#DejaVuSans-35"/>
       <use xlink:href="#DejaVuSans-30" x="63.623047"/>
       <use xlink:href="#DejaVuSans-30" x="127.246094"/>
      </g>
     </g>
    </g>
    <g id="xtick_3">
     <g id="line2d_3">
      <g>
       <use xlink:href="#m67982b7077" x="636.346913" y="512.64" style="stroke: #000000; stroke-width: 0.8"/>
      </g>
     </g>
     <g id="text_3">
      <!-- 1000 -->
      <g transform="translate(623.621913 527.238438) scale(0.1 -0.1)">
       <defs>
        <path id="DejaVuSans-31" d="M 794 531 
L 1825 531 
L 1825 4091 
L 703 3866 
L 703 4441 
L 1819 4666 
L 2450 4666 
L 2450 531 
L 3481 531 
L 3481 0 
L 794 0 
L 794 531 
z
" transform="scale(0.015625)"/>
       </defs>
       <use xlink:href="#DejaVuSans-31"/>
       <use xlink:href="#DejaVuSans-30" x="63.623047"/>
       <use xlink:href="#DejaVuSans-30" x="127.246094"/>
       <use xlink:href="#DejaVuSans-30" x="190.869141"/>
      </g>
     </g>
    </g>
    <g id="xtick_4">
     <g id="line2d_4">
      <g>
       <use xlink:href="#m67982b7077" x="839.653087" y="512.64" style="stroke: #000000; stroke-width: 0.8"/>
      </g>
     </g>
     <g id="text_4">
      <!-- 1500 -->
      <g transform="translate(826.928087 527.238438) scale(0.1 -0.1)">
       <use xlink:href="#DejaVuSans-31"/>
       <use xlink:href="#DejaVuSans-35" x="63.623047"/>
       <use xlink:href="#DejaVuSans-30" x="127.246094"/>
       <use xlink:href="#DejaVuSans-30" x="190.869141"/>
      </g>
     </g>
    </g>
    <g id="xtick_5">
     <g id="line2d_5">
      <g>
       <use xlink:href="#m67982b7077" x="1042.95926" y="512.64" style="stroke: #000000; stroke-width: 0.8"/>
      </g>
     </g>
     <g id="text_5">
      <!-- 2000 -->
      <g transform="translate(1030.23426 527.238438) scale(0.1 -0.1)">
       <defs>
        <path id="DejaVuSans-32" d="M 1228 531 
L 3431 531 
L 3431 0 
L 469 0 
L 469 531 
Q 828 903 1448 1529 
Q 2069 2156 2228 2338 
Q 2531 2678 2651 2914 
Q 2772 3150 2772 3378 
Q 2772 3750 2511 3984 
Q 2250 4219 1831 4219 
Q 1534 4219 1204 4116 
Q 875 4013 500 3803 
L 500 4441 
Q 881 4594 1212 4672 
Q 1544 4750 1819 4750 
Q 2544 4750 2975 4387 
Q 3406 4025 3406 3419 
Q 3406 3131 3298 2873 
Q 3191 2616 2906 2266 
Q 2828 2175 2409 1742 
Q 1991 1309 1228 531 
z
" transform="scale(0.015625)"/>
       </defs>
       <use xlink:href="#DejaVuSans-32"/>
       <use xlink:href="#DejaVuSans-30" x="63.623047"/>
       <use xlink:href="#DejaVuSans-30" x="127.246094"/>
       <use xlink:href="#DejaVuSans-30" x="190.869141"/>
      </g>
     </g>
    </g>
    <g id="xtick_6">
     <g id="line2d_6">
      <g>
       <use xlink:href="#m67982b7077" x="1246.265433" y="512.64" style="stroke: #000000; stroke-width: 0.8"/>
      </g>
     </g>
     <g id="text_6">
      <!-- 2500 -->
      <g transform="translate(1233.540433 527.238438) scale(0.1 -0.1)">
       <use xlink:href="#DejaVuSans-32"/>
       <use xlink:href="#DejaVuSans-35" x="63.623047"/>
       <use xlink:href="#DejaVuSans-30" x="127.246094"/>
       <use xlink:href="#DejaVuSans-30" x="190.869141"/>
      </g>
     </g>
    </g>
   </g>
   <g id="matplotlib.axis_2">
    <g id="ytick_1">
     <g id="line2d_7">
      <defs>
       <path id="m51c5bb02f7" d="M 0 0 
L -3.5 0 
" style="stroke: #000000; stroke-width: 0.8"/>
      </defs>
      <g>
       <use xlink:href="#m51c5bb02f7" x="180" y="432.331919" style="stroke: #000000; stroke-width: 0.8"/>
      </g>
     </g>
     <g id="text_7">
      <!-- −4 -->
      <g transform="translate(158.257812 436.131138) scale(0.1 -0.1)">
       <defs>
        <path id="DejaVuSans-2212" d="M 678 2272 
L 4684 2272 
L 4684 1741 
L 678 1741 
L 678 2272 
z
" transform="scale(0.015625)"/>
        <path id="DejaVuSans-34" d="M 2419 4116 
L 825 1625 
L 2419 1625 
L 2419 4116 
z
M 2253 4666 
L 3047 4666 
L 3047 1625 
L 3713 1625 
L 3713 1100 
L 3047 1100 
L 3047 0 
L 2419 0 
L 2419 1100 
L 313 1100 
L 313 1709 
L 2253 4666 
z
" transform="scale(0.015625)"/>
       </defs>
       <use xlink:href="#DejaVuSans-2212"/>
       <use xlink:href="#DejaVuSans-34" x="83.789062"/>
      </g>
     </g>
    </g>
    <g id="ytick_2">
     <g id="line2d_8">
      <g>
       <use xlink:href="#m51c5bb02f7" x="180" y="335.435608" style="stroke: #000000; stroke-width: 0.8"/>
      </g>
     </g>
     <g id="text_8">
      <!-- −2 -->
      <g transform="translate(158.257812 339.234827) scale(0.1 -0.1)">
       <use xlink:href="#DejaVuSans-2212"/>
       <use xlink:href="#DejaVuSans-32" x="83.789062"/>
      </g>
     </g>
    </g>
    <g id="ytick_3">
     <g id="line2d_9">
      <g>
       <use xlink:href="#m51c5bb02f7" x="180" y="238.539296" style="stroke: #000000; stroke-width: 0.8"/>
      </g>
     </g>
     <g id="text_9">
      <!-- 0 -->
      <g transform="translate(166.6375 242.338515) scale(0.1 -0.1)">
       <use xlink:href="#DejaVuSans-30"/>
      </g>
     </g>
    </g>
    <g id="ytick_4">
     <g id="line2d_10">
      <g>
       <use xlink:href="#m51c5bb02f7" x="180" y="141.642985" style="stroke: #000000; stroke-width: 0.8"/>
      </g>
     </g>
     <g id="text_10">
      <!-- 2 -->
      <g transform="translate(166.6375 145.442204) scale(0.1 -0.1)">
       <use xlink:href="#DejaVuSans-32"/>
      </g>
     </g>
    </g>
   </g>
   <g id="line2d_11">
    <path d="M 230.727273 401.855675 
L 231.719979 402.605812 
L 232.712685 401.573887 
L 233.70539 400.168389 
L 234.698096 394.3774 
L 235.690802 391.544812 
L 236.683508 390.293315 
L 237.676214 385.533938 
L 238.66892 381.622923 
L 239.661626 376.957824 
L 240.654332 374.329337 
L 241.647038 370.282835 
L 242.639744 368.016093 
L 243.63245 363.875587 
L 244.625156 356.353554 
L 245.617862 351.843591 
L 246.610568 351.356068 
L 247.603273 357.237739 
L 248.595979 340.163461 
L 249.588685 296.256402 
L 250.581391 268.681441 
L 251.574097 246.993807 
L 252.566803 231.388507 
L 253.559509 222.290751 
L 254.552215 219.902314 
L 255.544921 219.551007 
L 256.537627 224.276367 
L 258.523039 217.108053 
L 259.515745 219.562899 
L 261.501156 261.760655 
L 262.493862 233.27392 
L 263.486568 228.282056 
L 264.479274 250.933187 
L 265.47198 255.997389 
L 266.464686 236.693831 
L 267.457392 244.830527 
L 268.450098 289.075133 
L 269.442804 229.490074 
L 270.43551 203.031829 
L 272.420922 168.989651 
L 273.413627 154.153322 
L 274.406333 146.25124 
L 275.399039 146.804875 
L 276.391745 155.491662 
L 277.384451 151.865733 
L 278.377157 125.688591 
L 279.369863 104.490076 
L 280.362569 92.730621 
L 281.355275 89.28 
L 282.347981 94.387629 
L 283.340687 110.263301 
L 284.333393 139.594795 
L 285.326099 162.737905 
L 286.318804 146.39069 
L 287.31151 146.930494 
L 288.304216 163.130525 
L 289.296922 165.870779 
L 290.289628 155.5457 
L 291.282334 161.213171 
L 292.27504 178.423873 
L 293.267746 171.432765 
L 294.260452 161.331918 
L 295.253158 163.761299 
L 296.245864 167.083744 
L 297.23857 160.561542 
L 298.231276 159.747929 
L 299.223981 167.668951 
L 300.216687 171.5759 
L 301.209393 171.249035 
L 302.202099 177.551998 
L 303.194805 190.670865 
L 304.187511 200.225119 
L 305.180217 203.378406 
L 306.172923 216.819137 
L 307.165629 249.093527 
L 308.158335 288.801054 
L 309.151041 273.005702 
L 310.143747 277.795701 
L 312.129159 329.646109 
L 313.121864 314.68328 
L 314.11457 303.341601 
L 315.107276 301.707381 
L 316.099982 330.640764 
L 317.092688 307.396603 
L 318.085394 311.594945 
L 319.0781 318.129075 
L 320.070806 323.706238 
L 321.063512 322.827215 
L 322.056218 319.264428 
L 323.048924 334.066964 
L 324.04163 337.26536 
L 325.034336 327.075697 
L 326.027041 314.347974 
L 327.019747 332.185275 
L 328.012453 332.712999 
L 329.005159 328.851563 
L 329.997865 317.609164 
L 330.990571 335.118596 
L 331.983277 321.786807 
L 333.968689 339.530036 
L 334.961395 315.922288 
L 335.954101 334.647166 
L 336.946807 337.897569 
L 337.939513 327.700014 
L 338.932218 315.381784 
L 339.924924 341.123003 
L 340.91763 323.39245 
L 341.910336 328.656753 
L 342.903042 341.910997 
L 343.895748 362.942723 
L 344.888454 333.072519 
L 345.88116 320.376241 
L 346.873866 343.408126 
L 347.866572 331.532321 
L 348.859278 367.811249 
L 349.851984 325.037461 
L 350.84469 341.753702 
L 351.837395 333.292958 
L 352.830101 351.157785 
L 353.822807 340.832874 
L 354.815513 335.722371 
L 355.808219 340.090815 
L 356.800925 387.971072 
L 357.793631 341.189695 
L 358.786337 333.524704 
L 359.779043 392.866071 
L 360.771749 345.120768 
L 361.764455 325.581731 
L 362.757161 346.074505 
L 363.749867 331.68709 
L 364.742572 377.337621 
L 365.735278 353.945622 
L 366.727984 336.83879 
L 367.72069 381.173059 
L 368.713396 339.609428 
L 369.706102 373.520461 
L 370.698808 354.397327 
L 371.691514 355.080148 
L 372.68422 344.887545 
L 373.676926 356.502416 
L 374.669632 334.730569 
L 375.662338 355.676696 
L 376.655044 355.881421 
L 377.64775 368.406767 
L 378.640455 364.379444 
L 379.633161 351.745338 
L 380.625867 360.278172 
L 381.618573 343.506715 
L 382.611279 364.651669 
L 383.603985 352.13595 
L 384.596691 346.280456 
L 385.589397 354.398858 
L 386.582103 342.799386 
L 387.574809 358.511721 
L 388.567515 405.486102 
L 389.560221 344.845244 
L 390.552927 351.320477 
L 391.545632 347.829971 
L 392.538338 378.30222 
L 393.531044 375.240472 
L 394.52375 359.184019 
L 395.516456 348.264095 
L 396.509162 383.458042 
L 397.501868 382.039276 
L 398.494574 376.439387 
L 400.479986 354.735276 
L 401.472692 378.001994 
L 402.465398 349.965331 
L 403.458104 361.908228 
L 404.450809 343.223285 
L 405.443515 361.339588 
L 406.436221 356.136477 
L 407.428927 348.861166 
L 408.421633 374.223562 
L 409.414339 386.746921 
L 410.407045 362.524659 
L 411.399751 366.353758 
L 412.392457 371.423549 
L 413.385163 356.427484 
L 414.377869 362.993928 
L 415.370575 361.746313 
L 416.363281 373.331086 
L 417.355986 374.018063 
L 418.348692 361.058658 
L 419.341398 379.327819 
L 420.334104 353.855067 
L 421.32681 393.631004 
L 422.319516 365.344958 
L 423.312222 360.659939 
L 424.304928 340.046402 
L 425.297634 366.712358 
L 426.29034 385.184605 
L 427.283046 364.825535 
L 428.275752 357.5968 
L 429.268458 367.95529 
L 430.261163 357.571827 
L 431.253869 406.885329 
L 432.246575 363.377458 
L 433.239281 374.969147 
L 434.231987 472.799057 
L 435.224693 359.363329 
L 436.217399 376.292283 
L 437.210105 422.216345 
L 438.202811 373.081134 
L 440.188223 388.458864 
L 441.180929 352.385449 
L 442.173635 393.698788 
L 443.166341 347.742129 
L 444.159046 399.666221 
L 445.151752 394.012362 
L 446.144458 390.01067 
L 447.137164 409.440167 
L 448.12987 380.167583 
L 449.122576 380.922877 
L 450.115282 377.961505 
L 451.107988 362.645571 
L 452.100694 372.625794 
L 453.0934 360.090313 
L 454.086106 350.82572 
L 455.078812 386.582231 
L 456.071518 391.833649 
L 457.064223 375.379784 
L 458.056929 369.117642 
L 459.049635 401.715306 
L 460.042341 352.79168 
L 461.035047 394.168584 
L 462.027753 380.208101 
L 463.020459 393.58419 
L 464.013165 353.776576 
L 465.005871 392.464962 
L 465.998577 359.06238 
L 466.991283 371.63029 
L 467.983989 390.548302 
L 468.976695 380.937103 
L 469.9694 373.219777 
L 470.962106 336.839784 
L 471.954812 400.703678 
L 472.947518 381.360166 
L 473.940224 399.596481 
L 474.93293 385.10566 
L 475.925636 395.713137 
L 476.918342 376.14517 
L 477.911048 409.073803 
L 478.903754 368.489383 
L 479.89646 387.213626 
L 480.889166 373.524994 
L 481.881872 386.354048 
L 482.874577 428.413661 
L 483.867283 380.904238 
L 484.859989 389.557374 
L 485.852695 449.592339 
L 486.845401 374.974798 
L 487.838107 345.035595 
L 488.830813 388.82347 
L 489.823519 386.021391 
L 490.816225 377.983919 
L 491.808931 377.712271 
L 492.801637 386.310367 
L 493.794343 384.435724 
L 494.787049 358.231154 
L 495.779754 403.694377 
L 496.77246 408.895535 
L 497.765166 365.76068 
L 498.757872 389.114889 
L 499.750578 368.216602 
L 500.743284 406.153664 
L 501.73599 346.17833 
L 502.728696 375.729104 
L 503.721402 395.74979 
L 504.714108 373.669292 
L 505.706814 396.152743 
L 506.69952 372.611042 
L 507.692226 391.661358 
L 508.684932 392.192777 
L 509.677637 492.48 
L 510.670343 405.223345 
L 511.663049 398.531668 
L 512.655755 411.604378 
L 513.648461 450.163838 
L 514.641167 398.583497 
L 515.633873 382.335158 
L 516.626579 368.101508 
L 517.619285 393.439048 
L 519.604697 410.791652 
L 520.597403 365.515388 
L 521.590109 370.064025 
L 522.582814 397.591242 
L 523.57552 369.518106 
L 524.568226 443.253616 
L 525.560932 411.145041 
L 526.553638 407.366829 
L 527.546344 385.872118 
L 528.53905 411.197586 
L 529.531756 377.45422 
L 530.524462 400.498345 
L 531.517168 486.533083 
L 532.509874 396.56973 
L 533.50258 393.840987 
L 534.495286 369.781078 
L 535.487991 397.322379 
L 536.480697 364.820602 
L 537.473403 390.729528 
L 538.466109 389.858304 
L 539.458815 491.184045 
L 540.451521 400.067661 
L 541.444227 374.950898 
L 542.436933 403.931026 
L 543.429639 374.482514 
L 544.422345 374.772381 
L 545.415051 392.351654 
L 546.407757 393.294902 
L 547.400463 422.626673 
L 548.393168 418.820872 
L 549.385874 430.253658 
L 550.37858 348.94308 
L 551.371286 362.152625 
L 552.363992 389.220242 
L 553.356698 391.485512 
L 554.349404 409.968473 
L 555.34211 392.981148 
L 556.334816 401.834518 
L 557.327522 399.985421 
L 558.320228 418.287577 
L 559.312934 442.1891 
L 560.30564 387.575717 
L 561.298345 414.669717 
L 562.291051 461.682164 
L 563.283757 404.088235 
L 564.276463 385.12338 
L 565.269169 387.649595 
L 566.261875 367.4607 
L 567.254581 368.651308 
L 568.247287 379.418485 
L 569.239993 380.982279 
L 570.232699 401.751448 
L 571.225405 380.138287 
L 572.218111 367.774301 
L 573.210817 389.965944 
L 574.203523 383.136535 
L 575.196228 431.740617 
L 576.188934 384.525045 
L 577.18164 364.737938 
L 578.174346 369.640506 
L 579.167052 467.369993 
L 580.159758 410.108152 
L 581.152464 406.036719 
L 582.14517 394.565697 
L 583.137876 449.700009 
L 584.130582 386.186714 
L 585.123288 423.157375 
L 586.115994 383.602639 
L 587.1087 423.033031 
L 588.101405 386.873519 
L 589.094111 387.481593 
L 590.086817 452.279981 
L 591.079523 404.31645 
L 592.072229 365.284254 
L 593.064935 374.81325 
L 594.057641 391.900199 
L 595.050347 400.846845 
L 596.043053 398.937952 
L 597.035759 398.746512 
L 598.028465 449.554134 
L 599.021171 377.195718 
L 600.013877 433.243052 
L 601.006582 399.816972 
L 601.999288 407.818864 
L 602.991994 397.62349 
L 603.9847 397.531859 
L 604.977406 401.434377 
L 605.970112 414.879852 
L 606.962818 394.138391 
L 607.955524 413.409042 
L 608.94823 386.394524 
L 609.940936 378.44676 
L 610.933642 407.270692 
L 611.926348 407.527467 
L 612.919054 429.219693 
L 613.911759 398.302498 
L 614.904465 393.372203 
L 615.897171 403.496407 
L 616.889877 402.97226 
L 617.882583 413.596161 
L 618.875289 388.039252 
L 619.867995 403.940378 
L 620.860701 426.289272 
L 621.853407 416.172999 
L 622.846113 415.735496 
L 623.838819 383.406968 
L 624.831525 402.13883 
L 625.824231 394.914819 
L 626.816936 436.120679 
L 627.809642 391.068619 
L 628.802348 398.608685 
L 629.795054 381.652126 
L 630.78776 418.128592 
L 631.780466 401.612087 
L 632.773172 391.095045 
L 633.765878 396.33014 
L 634.758584 398.642244 
L 635.75129 397.463838 
L 636.743996 391.159844 
L 637.736702 411.457794 
L 638.729408 409.689664 
L 639.722114 397.147343 
L 640.714819 405.441201 
L 641.707525 427.115466 
L 642.700231 400.487493 
L 643.692937 406.788408 
L 644.685643 399.892011 
L 645.678349 424.178197 
L 646.671055 400.095461 
L 647.663761 421.370503 
L 648.656467 413.063325 
L 649.649173 397.465453 
L 650.641879 398.64252 
L 651.634585 404.262462 
L 652.627291 421.884756 
L 653.619996 400.171266 
L 654.612702 424.519399 
L 655.605408 402.408275 
L 656.598114 406.833658 
L 657.59082 408.089585 
L 658.583526 420.981859 
L 659.576232 411.877707 
L 660.568938 409.086275 
L 661.561644 417.612174 
L 662.55435 405.566773 
L 663.547056 416.756959 
L 664.539762 423.730025 
L 665.532468 405.959761 
L 666.525173 410.196323 
L 667.517879 416.751022 
L 669.503291 412.772013 
L 670.495997 416.161817 
L 671.488703 412.606294 
L 672.481409 409.557889 
L 673.474115 410.503591 
L 674.466821 415.234237 
L 675.459527 401.86801 
L 676.452233 411.846878 
L 677.444939 420.356802 
L 678.437645 416.256047 
L 679.43035 418.409816 
L 680.423056 412.917178 
L 681.415762 420.369038 
L 682.408468 408.964245 
L 683.401174 407.634243 
L 684.39388 419.029375 
L 685.386586 415.758948 
L 686.379292 411.990009 
L 687.371998 414.14665 
L 688.364704 406.108117 
L 689.35741 417.081595 
L 690.350116 410.038124 
L 691.342822 408.804963 
L 692.335527 414.136344 
L 693.328233 409.123661 
L 694.320939 421.065154 
L 695.313645 417.203865 
L 696.306351 416.570459 
L 697.299057 417.098145 
L 698.291763 412.55726 
L 699.284469 410.622167 
L 700.277175 411.642363 
L 701.269881 412.889318 
L 702.262587 416.121336 
L 703.255293 416.097163 
L 704.247999 412.048274 
L 705.240705 413.258192 
L 706.23341 412.222502 
L 707.226116 415.197791 
L 708.218822 411.067862 
L 709.211528 416.228137 
L 710.204234 412.661979 
L 711.19694 418.390342 
L 712.189646 420.794782 
L 713.182352 418.04405 
L 714.175058 420.374109 
L 716.16047 415.668762 
L 717.153176 419.997915 
L 718.145882 421.131131 
L 719.138587 417.673409 
L 720.131293 420.628899 
L 721.123999 420.268238 
L 722.116705 418.486054 
L 723.109411 414.27931 
L 724.102117 423.697936 
L 725.094823 417.732673 
L 726.087529 422.038451 
L 727.080235 417.522378 
L 728.072941 414.488641 
L 729.065647 419.188968 
L 730.058353 420.720585 
L 731.051059 414.829478 
L 732.043764 417.386768 
L 733.03647 418.803764 
L 734.029176 415.716424 
L 735.021882 418.134722 
L 736.014588 416.95245 
L 737.007294 419.795239 
L 738 417.209214 
L 738.992706 416.365314 
L 739.985412 419.983139 
L 740.978118 419.388922 
L 741.970824 416.912989 
L 742.96353 414.897358 
L 743.956236 418.398157 
L 744.948941 420.894766 
L 745.941647 417.285792 
L 746.934353 417.824253 
L 747.927059 421.519144 
L 748.919765 416.609367 
L 749.912471 419.328324 
L 750.905177 418.287292 
L 751.897883 421.019004 
L 752.890589 419.051321 
L 753.883295 417.963604 
L 754.876001 420.940105 
L 755.868707 419.220734 
L 756.861413 420.729862 
L 757.854118 417.757165 
L 758.846824 422.092032 
L 759.83953 419.654049 
L 760.832236 422.143921 
L 761.824942 420.188958 
L 762.817648 425.088624 
L 763.810354 417.251263 
L 764.80306 418.977662 
L 765.795766 418.655107 
L 766.788472 417.784781 
L 767.781178 421.242595 
L 768.773884 418.474342 
L 769.76659 419.831034 
L 770.759295 422.869939 
L 771.752001 421.365598 
L 772.744707 421.154403 
L 773.737413 423.453626 
L 774.730119 419.38765 
L 775.722825 422.71963 
L 776.715531 420.768911 
L 777.708237 421.754109 
L 778.700943 420.06991 
L 779.693649 420.857383 
L 780.686355 422.605779 
L 781.679061 423.359166 
L 782.671767 421.006014 
L 783.664473 417.50345 
L 784.657178 421.589962 
L 785.649884 421.78059 
L 786.64259 424.920912 
L 787.635296 421.467426 
L 788.628002 424.205502 
L 789.620708 420.709712 
L 790.613414 425.194585 
L 791.60612 420.844407 
L 792.598826 421.312065 
L 793.591532 423.235055 
L 794.584238 423.928571 
L 795.576944 423.737833 
L 796.56965 418.856321 
L 797.562355 422.535058 
L 798.555061 420.387791 
L 799.547767 424.572123 
L 800.540473 420.350563 
L 801.533179 424.061143 
L 802.525885 421.750352 
L 803.518591 424.506205 
L 804.511297 421.419076 
L 805.504003 425.540975 
L 806.496709 423.454892 
L 807.489415 422.939714 
L 808.482121 425.513705 
L 809.474827 423.486059 
L 810.467532 423.565783 
L 811.460238 421.509906 
L 812.452944 422.831972 
L 813.44565 422.871374 
L 814.438356 425.261762 
L 815.431062 424.317873 
L 816.423768 426.099254 
L 817.416474 424.426164 
L 818.40918 423.457721 
L 819.401886 427.249802 
L 820.394592 423.59382 
L 821.387298 423.070084 
L 822.380004 423.596658 
L 823.372709 422.588523 
L 824.365415 428.244277 
L 825.358121 426.951903 
L 826.350827 424.977542 
L 827.343533 422.154705 
L 828.336239 424.047583 
L 829.328945 426.840514 
L 830.321651 426.986727 
L 831.314357 424.330884 
L 832.307063 425.463416 
L 833.299769 427.856095 
L 834.292475 423.285982 
L 835.285181 422.921573 
L 836.277886 424.158918 
L 837.270592 421.042072 
L 838.263298 428.221687 
L 839.256004 425.118159 
L 840.24871 425.282023 
L 841.241416 427.045581 
L 842.234122 423.400819 
L 843.226828 427.499121 
L 844.219534 423.00005 
L 845.21224 423.845193 
L 846.204946 425.296899 
L 847.197652 427.692097 
L 848.190358 426.419014 
L 849.183064 424.345754 
L 850.175769 424.815829 
L 851.168475 423.314161 
L 852.161181 425.74848 
L 853.153887 426.43646 
L 854.146593 426.830457 
L 855.139299 425.359524 
L 856.132005 425.045875 
L 857.124711 426.915239 
L 858.117417 430.672277 
L 859.110123 428.75885 
L 860.102829 427.699263 
L 861.095535 425.953966 
L 862.088241 428.635356 
L 864.073652 425.795306 
L 865.066358 424.644753 
L 866.059064 426.294154 
L 867.05177 426.760423 
L 868.044476 426.733278 
L 869.037182 424.03536 
L 870.029888 425.550721 
L 871.022594 427.957672 
L 872.0153 427.395588 
L 873.008006 428.304972 
L 874.000712 424.65623 
L 874.993418 426.689239 
L 875.986123 429.846251 
L 876.978829 425.992284 
L 877.971535 424.019822 
L 878.964241 426.652718 
L 879.956947 426.141871 
L 880.949653 424.700575 
L 881.942359 426.658695 
L 882.935065 425.874072 
L 883.927771 430.154838 
L 884.920477 430.340518 
L 885.913183 427.304461 
L 886.905889 427.218039 
L 887.898595 429.69159 
L 888.8913 425.30646 
L 889.884006 424.594433 
L 890.876712 428.628874 
L 891.869418 425.786097 
L 892.862124 429.090939 
L 893.85483 430.159924 
L 894.847536 433.257659 
L 895.840242 427.860981 
L 896.832948 430.595772 
L 897.825654 429.693241 
L 898.81836 426.093885 
L 899.811066 428.553226 
L 900.803772 426.288923 
L 901.796477 428.760657 
L 902.789183 423.922824 
L 903.781889 429.958197 
L 904.774595 427.108932 
L 905.767301 426.019563 
L 907.752713 429.002104 
L 908.745419 430.398985 
L 909.738125 430.068591 
L 910.730831 427.863162 
L 911.723537 427.450189 
L 912.716243 426.890351 
L 913.708949 429.208586 
L 914.701655 428.865722 
L 915.69436 428.887128 
L 916.687066 432.157841 
L 917.679772 428.067705 
L 918.672478 427.732343 
L 919.665184 429.518572 
L 920.65789 431.635741 
L 921.650596 426.588989 
L 922.643302 428.688002 
L 923.636008 430.030674 
L 924.628714 429.692217 
L 925.62142 426.822602 
L 926.614126 427.812066 
L 927.606832 428.479149 
L 928.599537 427.375349 
L 929.592243 425.723127 
L 930.584949 430.40964 
L 931.577655 427.424998 
L 932.570361 427.769575 
L 933.563067 429.439867 
L 934.555773 429.013166 
L 935.548479 430.554966 
L 936.541185 428.363405 
L 937.533891 426.758709 
L 938.526597 430.653093 
L 939.519303 429.013433 
L 940.512009 434.076284 
L 941.504714 433.099269 
L 942.49742 431.694104 
L 943.490126 431.225831 
L 944.482832 431.685258 
L 945.475538 430.385465 
L 946.468244 427.189216 
L 947.46095 431.260893 
L 948.453656 431.964548 
L 949.446362 429.53291 
L 950.439068 429.959175 
L 951.431774 430.948767 
L 952.42448 431.479573 
L 953.417186 431.493081 
L 954.409891 431.289268 
L 955.402597 429.770978 
L 956.395303 433.708169 
L 958.380715 429.863894 
L 959.373421 434.029728 
L 960.366127 428.886009 
L 962.351539 430.065132 
L 963.344245 432.429943 
L 964.336951 432.308563 
L 965.329657 429.045384 
L 966.322363 432.04002 
L 967.315068 429.681223 
L 968.307774 430.278302 
L 969.30048 432.819279 
L 970.293186 433.647718 
L 971.285892 431.992845 
L 972.278598 428.973719 
L 973.271304 432.02684 
L 974.26401 434.438053 
L 975.256716 430.05572 
L 976.249422 432.1477 
L 977.242128 432.354163 
L 978.234834 431.551503 
L 979.22754 429.175912 
L 980.220246 429.275142 
L 981.212951 431.020863 
L 982.205657 430.037362 
L 983.198363 437.383554 
L 984.191069 431.881953 
L 985.183775 432.268187 
L 986.176481 431.451795 
L 987.169187 431.341506 
L 988.161893 432.165995 
L 989.154599 429.528264 
L 990.147305 429.896788 
L 991.140011 432.186518 
L 992.132717 432.322857 
L 993.125423 430.429196 
L 994.118128 434.826033 
L 995.110834 434.730708 
L 996.10354 430.869839 
L 997.096246 434.162415 
L 998.088952 430.155575 
L 999.081658 433.904618 
L 1000.074364 433.29215 
L 1001.06707 431.016 
L 1002.059776 429.777066 
L 1003.052482 432.116586 
L 1004.045188 429.419914 
L 1005.037894 428.258649 
L 1006.0306 432.47676 
L 1007.023305 435.098669 
L 1009.008717 428.296651 
L 1010.994129 433.174599 
L 1011.986835 432.556321 
L 1012.979541 430.138019 
L 1014.964953 434.524588 
L 1015.957659 432.226595 
L 1016.950365 433.474501 
L 1017.943071 430.102157 
L 1018.935777 430.723591 
L 1020.921188 436.477081 
L 1021.913894 433.36258 
L 1022.9066 432.479144 
L 1023.899306 430.540217 
L 1024.892012 429.786991 
L 1025.884718 434.016935 
L 1026.877424 430.756779 
L 1027.87013 432.501519 
L 1028.862836 433.077492 
L 1029.855542 433.944944 
L 1030.848248 432.95852 
L 1031.840954 432.981163 
L 1032.833659 434.728667 
L 1033.826365 432.318938 
L 1034.819071 431.113088 
L 1035.811777 433.849204 
L 1036.804483 438.200962 
L 1037.797189 433.034154 
L 1038.789895 428.474024 
L 1039.782601 434.170071 
L 1040.775307 434.02043 
L 1041.768013 433.603979 
L 1042.760719 435.38037 
L 1043.753425 432.193551 
L 1044.746131 430.462502 
L 1045.738837 433.425236 
L 1046.731542 431.591645 
L 1047.724248 437.346786 
L 1048.716954 436.866597 
L 1049.70966 436.101784 
L 1050.702366 431.594167 
L 1051.695072 431.449751 
L 1052.687778 435.627752 
L 1053.680484 438.61426 
L 1054.67319 432.975929 
L 1055.665896 433.064253 
L 1056.658602 432.634306 
L 1057.651308 433.270829 
L 1058.644014 432.811439 
L 1059.636719 433.543899 
L 1060.629425 434.0785 
L 1061.622131 433.409779 
L 1062.614837 439.107798 
L 1063.607543 434.63504 
L 1064.600249 437.465823 
L 1065.592955 434.480987 
L 1066.585661 433.748312 
L 1067.578367 435.829327 
L 1068.571073 433.094732 
L 1069.563779 434.050387 
L 1070.556485 434.333402 
L 1071.549191 434.379122 
L 1072.541896 434.87388 
L 1073.534602 434.127436 
L 1074.527308 432.410582 
L 1075.520014 434.091282 
L 1076.51272 433.032928 
L 1077.505426 436.806181 
L 1078.498132 436.728999 
L 1079.490838 436.11955 
L 1080.483544 433.191869 
L 1081.47625 436.820085 
L 1082.468956 434.281957 
L 1083.461662 435.727427 
L 1084.454368 435.241901 
L 1085.447073 434.22621 
L 1086.439779 432.926847 
L 1087.432485 432.320143 
L 1088.425191 435.436389 
L 1089.417897 431.922693 
L 1090.410603 430.672028 
L 1091.403309 437.071782 
L 1093.388721 433.521333 
L 1094.381427 430.37459 
L 1095.374133 433.344766 
L 1097.359545 434.372682 
L 1099.344956 432.604174 
L 1100.337662 433.832653 
L 1101.330368 432.131268 
L 1102.323074 429.973439 
L 1104.308486 437.5687 
L 1105.301192 435.356869 
L 1106.293898 436.520503 
L 1107.286604 436.205713 
L 1108.27931 434.799716 
L 1109.272016 432.197318 
L 1110.264722 432.873203 
L 1111.257428 430.680403 
L 1112.250133 434.046494 
L 1113.242839 433.638503 
L 1114.235545 432.673998 
L 1116.220957 436.586963 
L 1117.213663 435.700168 
L 1118.206369 437.606221 
L 1119.199075 436.466214 
L 1120.191781 434.466572 
L 1121.184487 436.556967 
L 1122.177193 432.627187 
L 1123.169899 431.022159 
L 1124.162605 434.349617 
L 1125.15531 435.538567 
L 1126.148016 437.449598 
L 1127.140722 433.265734 
L 1128.133428 433.45802 
L 1129.126134 436.925708 
L 1130.11884 436.838432 
L 1131.111546 436.532852 
L 1132.104252 433.424628 
L 1133.096958 437.495685 
L 1134.089664 436.145568 
L 1135.08237 432.146526 
L 1136.075076 437.980066 
L 1137.067782 434.111088 
L 1138.060487 435.798395 
L 1139.053193 434.876063 
L 1140.045899 434.395224 
L 1141.038605 437.001085 
L 1142.031311 433.744936 
L 1143.024017 435.55411 
L 1144.016723 436.116031 
L 1145.009429 435.81499 
L 1146.002135 438.656851 
L 1146.994841 432.525555 
L 1147.987547 434.125295 
L 1148.980253 436.125254 
L 1149.972959 440.003501 
L 1150.965664 434.636996 
L 1151.95837 434.660845 
L 1152.951076 434.111469 
L 1153.943782 437.048404 
L 1154.936488 435.544547 
L 1155.929194 440.441046 
L 1156.9219 436.38674 
L 1157.914606 435.465277 
L 1158.907312 432.50902 
L 1159.900018 433.521622 
L 1160.892724 438.032432 
L 1161.88543 437.26535 
L 1162.878136 434.514355 
L 1164.863547 438.823854 
L 1165.856253 433.737001 
L 1166.848959 434.326206 
L 1167.841665 434.582405 
L 1168.834371 433.66312 
L 1169.827077 435.694782 
L 1170.819783 435.398004 
L 1171.812489 433.071907 
L 1172.805195 434.930172 
L 1173.797901 432.315745 
L 1174.790607 434.298908 
L 1175.783313 433.770221 
L 1176.776019 433.027542 
L 1177.768724 435.946361 
L 1178.76143 439.352628 
L 1179.754136 438.474412 
L 1180.746842 436.236948 
L 1181.739548 435.622787 
L 1182.732254 433.527961 
L 1183.72496 432.596708 
L 1184.717666 434.430861 
L 1185.710372 437.025302 
L 1186.703078 437.370119 
L 1187.695784 436.373898 
L 1188.68849 435.024132 
L 1189.681196 436.473175 
L 1190.673901 435.476132 
L 1191.666607 437.575109 
L 1192.659313 436.814551 
L 1193.652019 431.931398 
L 1194.644725 435.154649 
L 1195.637431 435.561685 
L 1196.630137 439.009097 
L 1197.622843 433.295777 
L 1198.615549 440.264762 
L 1199.608255 437.111211 
L 1200.600961 435.005229 
L 1201.593667 439.408582 
L 1202.586373 434.105185 
L 1203.579078 434.298153 
L 1205.56449 431.483909 
L 1206.557196 435.142119 
L 1207.549902 435.683387 
L 1208.542608 433.92611 
L 1209.535314 435.301507 
L 1210.52802 438.128409 
L 1211.520726 441.633049 
L 1212.513432 433.037651 
L 1213.506138 436.808401 
L 1214.498844 434.141645 
L 1215.49155 435.922557 
L 1216.484255 434.172333 
L 1217.476961 434.850523 
L 1218.469667 435.022597 
L 1219.462373 433.16765 
L 1220.455079 436.498622 
L 1221.447785 435.375955 
L 1222.440491 435.843877 
L 1223.433197 437.153224 
L 1225.418609 434.162762 
L 1226.411315 431.236534 
L 1227.404021 433.229237 
L 1228.396727 436.102504 
L 1229.389432 435.600457 
L 1230.382138 436.706024 
L 1231.374844 436.624017 
L 1232.36755 435.111749 
L 1233.360256 436.232373 
L 1234.352962 437.526477 
L 1235.345668 436.245608 
L 1236.338374 433.194043 
L 1237.33108 438.409711 
L 1238.323786 438.482972 
L 1240.309198 431.408272 
L 1241.301904 431.570519 
L 1242.29461 435.972239 
L 1243.287315 436.595928 
L 1244.280021 433.983926 
L 1245.272727 435.110847 
L 1245.272727 435.110847 
" clip-path="url(#p07f5b8192f)" style="fill: none; stroke: #1f77b4; stroke-width: 1.5; stroke-linecap: square"/>
   </g>
   <g id="patch_3">
    <path d="M 180 512.64 
L 180 69.12 
" style="fill: none; stroke: #000000; stroke-width: 0.8; stroke-linejoin: miter; stroke-linecap: square"/>
   </g>
   <g id="patch_4">
    <path d="M 1296 512.64 
L 1296 69.12 
" style="fill: none; stroke: #000000; stroke-width: 0.8; stroke-linejoin: miter; stroke-linecap: square"/>
   </g>
   <g id="patch_5">
    <path d="M 180 512.64 
L 1296 512.64 
" style="fill: none; stroke: #000000; stroke-width: 0.8; stroke-linejoin: miter; stroke-linecap: square"/>
   </g>
   <g id="patch_6">
    <path d="M 180 69.12 
L 1296 69.12 
" style="fill: none; stroke: #000000; stroke-width: 0.8; stroke-linejoin: miter; stroke-linecap: square"/>
   </g>
   <g id="text_11">
    <!-- source10-receiver3 -->
    <g transform="translate(544.9 60.80125) scale(0.4 -0.4)">
     <defs>
      <path id="DejaVuSans-73" d="M 2834 3397 
L 2834 2853 
Q 2591 2978 2328 3040 
Q 2066 3103 1784 3103 
Q 1356 3103 1142 2972 
Q 928 2841 928 2578 
Q 928 2378 1081 2264 
Q 1234 2150 1697 2047 
L 1894 2003 
Q 2506 1872 2764 1633 
Q 3022 1394 3022 966 
Q 3022 478 2636 193 
Q 2250 -91 1575 -91 
Q 1294 -91 989 -36 
Q 684 19 347 128 
L 347 722 
Q 666 556 975 473 
Q 1284 391 1588 391 
Q 1994 391 2212 530 
Q 2431 669 2431 922 
Q 2431 1156 2273 1281 
Q 2116 1406 1581 1522 
L 1381 1569 
Q 847 1681 609 1914 
Q 372 2147 372 2553 
Q 372 3047 722 3315 
Q 1072 3584 1716 3584 
Q 2034 3584 2315 3537 
Q 2597 3491 2834 3397 
z
" transform="scale(0.015625)"/>
      <path id="DejaVuSans-6f" d="M 1959 3097 
Q 1497 3097 1228 2736 
Q 959 2375 959 1747 
Q 959 1119 1226 758 
Q 1494 397 1959 397 
Q 2419 397 2687 759 
Q 2956 1122 2956 1747 
Q 2956 2369 2687 2733 
Q 2419 3097 1959 3097 
z
M 1959 3584 
Q 2709 3584 3137 3096 
Q 3566 2609 3566 1747 
Q 3566 888 3137 398 
Q 2709 -91 1959 -91 
Q 1206 -91 779 398 
Q 353 888 353 1747 
Q 353 2609 779 3096 
Q 1206 3584 1959 3584 
z
" transform="scale(0.015625)"/>
      <path id="DejaVuSans-75" d="M 544 1381 
L 544 3500 
L 1119 3500 
L 1119 1403 
Q 1119 906 1312 657 
Q 1506 409 1894 409 
Q 2359 409 2629 706 
Q 2900 1003 2900 1516 
L 2900 3500 
L 3475 3500 
L 3475 0 
L 2900 0 
L 2900 538 
Q 2691 219 2414 64 
Q 2138 -91 1772 -91 
Q 1169 -91 856 284 
Q 544 659 544 1381 
z
M 1991 3584 
L 1991 3584 
z
" transform="scale(0.015625)"/>
      <path id="DejaVuSans-72" d="M 2631 2963 
Q 2534 3019 2420 3045 
Q 2306 3072 2169 3072 
Q 1681 3072 1420 2755 
Q 1159 2438 1159 1844 
L 1159 0 
L 581 0 
L 581 3500 
L 1159 3500 
L 1159 2956 
Q 1341 3275 1631 3429 
Q 1922 3584 2338 3584 
Q 2397 3584 2469 3576 
Q 2541 3569 2628 3553 
L 2631 2963 
z
" transform="scale(0.015625)"/>
      <path id="DejaVuSans-63" d="M 3122 3366 
L 3122 2828 
Q 2878 2963 2633 3030 
Q 2388 3097 2138 3097 
Q 1578 3097 1268 2742 
Q 959 2388 959 1747 
Q 959 1106 1268 751 
Q 1578 397 2138 397 
Q 2388 397 2633 464 
Q 2878 531 3122 666 
L 3122 134 
Q 2881 22 2623 -34 
Q 2366 -91 2075 -91 
Q 1284 -91 818 406 
Q 353 903 353 1747 
Q 353 2603 823 3093 
Q 1294 3584 2113 3584 
Q 2378 3584 2631 3529 
Q 2884 3475 3122 3366 
z
" transform="scale(0.015625)"/>
      <path id="DejaVuSans-65" d="M 3597 1894 
L 3597 1613 
L 953 1613 
Q 991 1019 1311 708 
Q 1631 397 2203 397 
Q 2534 397 2845 478 
Q 3156 559 3463 722 
L 3463 178 
Q 3153 47 2828 -22 
Q 2503 -91 2169 -91 
Q 1331 -91 842 396 
Q 353 884 353 1716 
Q 353 2575 817 3079 
Q 1281 3584 2069 3584 
Q 2775 3584 3186 3129 
Q 3597 2675 3597 1894 
z
M 3022 2063 
Q 3016 2534 2758 2815 
Q 2500 3097 2075 3097 
Q 1594 3097 1305 2825 
Q 1016 2553 972 2059 
L 3022 2063 
z
" transform="scale(0.015625)"/>
      <path id="DejaVuSans-2d" d="M 313 2009 
L 1997 2009 
L 1997 1497 
L 313 1497 
L 313 2009 
z
" transform="scale(0.015625)"/>
      <path id="DejaVuSans-69" d="M 603 3500 
L 1178 3500 
L 1178 0 
L 603 0 
L 603 3500 
z
M 603 4863 
L 1178 4863 
L 1178 4134 
L 603 4134 
L 603 4863 
z
" transform="scale(0.015625)"/>
      <path id="DejaVuSans-76" d="M 191 3500 
L 800 3500 
L 1894 563 
L 2988 3500 
L 3597 3500 
L 2284 0 
L 1503 0 
L 191 3500 
z
" transform="scale(0.015625)"/>
      <path id="DejaVuSans-33" d="M 2597 2516 
Q 3050 2419 3304 2112 
Q 3559 1806 3559 1356 
Q 3559 666 3084 287 
Q 2609 -91 1734 -91 
Q 1441 -91 1130 -33 
Q 819 25 488 141 
L 488 750 
Q 750 597 1062 519 
Q 1375 441 1716 441 
Q 2309 441 2620 675 
Q 2931 909 2931 1356 
Q 2931 1769 2642 2001 
Q 2353 2234 1838 2234 
L 1294 2234 
L 1294 2753 
L 1863 2753 
Q 2328 2753 2575 2939 
Q 2822 3125 2822 3475 
Q 2822 3834 2567 4026 
Q 2313 4219 1838 4219 
Q 1578 4219 1281 4162 
Q 984 4106 628 3988 
L 628 4550 
Q 988 4650 1302 4700 
Q 1616 4750 1894 4750 
Q 2613 4750 3031 4423 
Q 3450 4097 3450 3541 
Q 3450 3153 3228 2886 
Q 3006 2619 2597 2516 
z
" transform="scale(0.015625)"/>
     </defs>
     <use xlink:href="#DejaVuSans-73"/>
     <use xlink:href="#DejaVuSans-6f" x="52.099609"/>
     <use xlink:href="#DejaVuSans-75" x="113.28125"/>
     <use xlink:href="#DejaVuSans-72" x="176.660156"/>
     <use xlink:href="#DejaVuSans-63" x="215.523438"/>
     <use xlink:href="#DejaVuSans-65" x="270.503906"/>
     <use xlink:href="#DejaVuSans-31" x="332.027344"/>
     <use xlink:href="#DejaVuSans-30" x="395.650391"/>
     <use xlink:href="#DejaVuSans-2d" x="459.273438"/>
     <use xlink:href="#DejaVuSans-72" x="495.357422"/>
     <use xlink:href="#DejaVuSans-65" x="534.220703"/>
     <use xlink:href="#DejaVuSans-63" x="595.744141"/>
     <use xlink:href="#DejaVuSans-65" x="650.724609"/>
     <use xlink:href="#DejaVuSans-69" x="712.248047"/>
     <use xlink:href="#DejaVuSans-76" x="740.03125"/>
     <use xlink:href="#DejaVuSans-65" x="799.210938"/>
     <use xlink:href="#DejaVuSans-72" x="860.734375"/>
     <use xlink:href="#DejaVuSans-33" x="901.847656"/>
    </g>
   </g>
  </g>
 </g>
 <defs>
  <clipPath id="p07f5b8192f">
   <rect x="180" y="69.12" width="1116" height="443.52"/>
  </clipPath>
 </defs>
</svg>
