<?xml version="1.0" encoding="utf-8" standalone="no"?>
<!DOCTYPE svg PUBLIC "-//W3C//DTD SVG 1.1//EN"
  "http://www.w3.org/Graphics/SVG/1.1/DTD/svg11.dtd">
<svg xmlns:xlink="http://www.w3.org/1999/xlink" width="1440pt" height="576pt" viewBox="0 0 1440 576" xmlns="http://www.w3.org/2000/svg" version="1.1">
 <metadata>
  <rdf:RDF xmlns:dc="http://purl.org/dc/elements/1.1/" xmlns:cc="http://creativecommons.org/ns#" xmlns:rdf="http://www.w3.org/1999/02/22-rdf-syntax-ns#">
   <cc:Work>
    <dc:type rdf:resource="http://purl.org/dc/dcmitype/StillImage"/>
    <dc:date>2024-05-22T04:49:57.254853</dc:date>
    <dc:format>image/svg+xml</dc:format>
    <dc:creator>
     <cc:Agent>
      <dc:title>Matplotlib v3.8.3, https://matplotlib.org/</dc:title>
     </cc:Agent>
    </dc:creator>
   </cc:Work>
  </rdf:RDF>
 </metadata>
 <defs>
  <style type="text/css">*{stroke-linejoin: round; stroke-linecap: butt}</style>
 </defs>
 <g id="figure_1">
  <g id="patch_1">
   <path d="M 0 576 
L 1440 576 
L 1440 0 
L 0 0 
z
" style="fill: #ffffff"/>
  </g>
  <g id="axes_1">
   <g id="patch_2">
    <path d="M 180 512.64 
L 1296 512.64 
L 1296 69.12 
L 180 69.12 
z
" style="fill: #ffffff"/>
   </g>
   <g id="matplotlib.axis_1">
    <g id="xtick_1">
     <g id="line2d_1">
      <defs>
       <path id="mbdda75d6a7" d="M 0 0 
L 0 3.5 
" style="stroke: #000000; stroke-width: 0.8"/>
      </defs>
      <g>
       <use xlink:href="#mbdda75d6a7" x="229.734567" y="512.64" style="stroke: #000000; stroke-width: 0.8"/>
      </g>
     </g>
     <g id="text_1">
      <!-- 0 -->
      <g transform="translate(226.553317 527.238438) scale(0.1 -0.1)">
       <defs>
        <path id="DejaVuSans-30" d="M 2034 4250 
Q 1547 4250 1301 3770 
Q 1056 3291 1056 2328 
Q 1056 1369 1301 889 
Q 1547 409 2034 409 
Q 2525 409 2770 889 
Q 3016 1369 3016 2328 
Q 3016 3291 2770 3770 
Q 2525 4250 2034 4250 
z
M 2034 4750 
Q 2819 4750 3233 4129 
Q 3647 3509 3647 2328 
Q 3647 1150 3233 529 
Q 2819 -91 2034 -91 
Q 1250 -91 836 529 
Q 422 1150 422 2328 
Q 422 3509 836 4129 
Q 1250 4750 2034 4750 
z
" transform="scale(0.015625)"/>
       </defs>
       <use xlink:href="#DejaVuSans-30"/>
      </g>
     </g>
    </g>
    <g id="xtick_2">
     <g id="line2d_2">
      <g>
       <use xlink:href="#mbdda75d6a7" x="433.04074" y="512.64" style="stroke: #000000; stroke-width: 0.8"/>
      </g>
     </g>
     <g id="text_2">
      <!-- 500 -->
      <g transform="translate(423.49699 527.238438) scale(0.1 -0.1)">
       <defs>
        <path id="DejaVuSans-35" d="M 691 4666 
L 3169 4666 
L 3169 4134 
L 1269 4134 
L 1269 2991 
Q 1406 3038 1543 3061 
Q 1681 3084 1819 3084 
Q 2600 3084 3056 2656 
Q 3513 2228 3513 1497 
Q 3513 744 3044 326 
Q 2575 -91 1722 -91 
Q 1428 -91 1123 -41 
Q 819 9 494 109 
L 494 744 
Q 775 591 1075 516 
Q 1375 441 1709 441 
Q 2250 441 2565 725 
Q 2881 1009 2881 1497 
Q 2881 1984 2565 2268 
Q 2250 2553 1709 2553 
Q 1456 2553 1204 2497 
Q 953 2441 691 2322 
L 691 4666 
z
" transform="scale(0.015625)"/>
       </defs>
       <use xlink:href="#DejaVuSans-35"/>
       <use xlink:href="#DejaVuSans-30" x="63.623047"/>
       <use xlink:href="#DejaVuSans-30" x="127.246094"/>
      </g>
     </g>
    </g>
    <g id="xtick_3">
     <g id="line2d_3">
      <g>
       <use xlink:href="#mbdda75d6a7" x="636.346913" y="512.64" style="stroke: #000000; stroke-width: 0.8"/>
      </g>
     </g>
     <g id="text_3">
      <!-- 1000 -->
      <g transform="translate(623.621913 527.238438) scale(0.1 -0.1)">
       <defs>
        <path id="DejaVuSans-31" d="M 794 531 
L 1825 531 
L 1825 4091 
L 703 3866 
L 703 4441 
L 1819 4666 
L 2450 4666 
L 2450 531 
L 3481 531 
L 3481 0 
L 794 0 
L 794 531 
z
" transform="scale(0.015625)"/>
       </defs>
       <use xlink:href="#DejaVuSans-31"/>
       <use xlink:href="#DejaVuSans-30" x="63.623047"/>
       <use xlink:href="#DejaVuSans-30" x="127.246094"/>
       <use xlink:href="#DejaVuSans-30" x="190.869141"/>
      </g>
     </g>
    </g>
    <g id="xtick_4">
     <g id="line2d_4">
      <g>
       <use xlink:href="#mbdda75d6a7" x="839.653087" y="512.64" style="stroke: #000000; stroke-width: 0.8"/>
      </g>
     </g>
     <g id="text_4">
      <!-- 1500 -->
      <g transform="translate(826.928087 527.238438) scale(0.1 -0.1)">
       <use xlink:href="#DejaVuSans-31"/>
       <use xlink:href="#DejaVuSans-35" x="63.623047"/>
       <use xlink:href="#DejaVuSans-30" x="127.246094"/>
       <use xlink:href="#DejaVuSans-30" x="190.869141"/>
      </g>
     </g>
    </g>
    <g id="xtick_5">
     <g id="line2d_5">
      <g>
       <use xlink:href="#mbdda75d6a7" x="1042.95926" y="512.64" style="stroke: #000000; stroke-width: 0.8"/>
      </g>
     </g>
     <g id="text_5">
      <!-- 2000 -->
      <g transform="translate(1030.23426 527.238438) scale(0.1 -0.1)">
       <defs>
        <path id="DejaVuSans-32" d="M 1228 531 
L 3431 531 
L 3431 0 
L 469 0 
L 469 531 
Q 828 903 1448 1529 
Q 2069 2156 2228 2338 
Q 2531 2678 2651 2914 
Q 2772 3150 2772 3378 
Q 2772 3750 2511 3984 
Q 2250 4219 1831 4219 
Q 1534 4219 1204 4116 
Q 875 4013 500 3803 
L 500 4441 
Q 881 4594 1212 4672 
Q 1544 4750 1819 4750 
Q 2544 4750 2975 4387 
Q 3406 4025 3406 3419 
Q 3406 3131 3298 2873 
Q 3191 2616 2906 2266 
Q 2828 2175 2409 1742 
Q 1991 1309 1228 531 
z
" transform="scale(0.015625)"/>
       </defs>
       <use xlink:href="#DejaVuSans-32"/>
       <use xlink:href="#DejaVuSans-30" x="63.623047"/>
       <use xlink:href="#DejaVuSans-30" x="127.246094"/>
       <use xlink:href="#DejaVuSans-30" x="190.869141"/>
      </g>
     </g>
    </g>
    <g id="xtick_6">
     <g id="line2d_6">
      <g>
       <use xlink:href="#mbdda75d6a7" x="1246.265433" y="512.64" style="stroke: #000000; stroke-width: 0.8"/>
      </g>
     </g>
     <g id="text_6">
      <!-- 2500 -->
      <g transform="translate(1233.540433 527.238438) scale(0.1 -0.1)">
       <use xlink:href="#DejaVuSans-32"/>
       <use xlink:href="#DejaVuSans-35" x="63.623047"/>
       <use xlink:href="#DejaVuSans-30" x="127.246094"/>
       <use xlink:href="#DejaVuSans-30" x="190.869141"/>
      </g>
     </g>
    </g>
   </g>
   <g id="matplotlib.axis_2">
    <g id="ytick_1">
     <g id="line2d_7">
      <defs>
       <path id="md3bc1ede78" d="M 0 0 
L -3.5 0 
" style="stroke: #000000; stroke-width: 0.8"/>
      </defs>
      <g>
       <use xlink:href="#md3bc1ede78" x="180" y="441.793889" style="stroke: #000000; stroke-width: 0.8"/>
      </g>
     </g>
     <g id="text_7">
      <!-- −4 -->
      <g transform="translate(158.257812 445.593107) scale(0.1 -0.1)">
       <defs>
        <path id="DejaVuSans-2212" d="M 678 2272 
L 4684 2272 
L 4684 1741 
L 678 1741 
L 678 2272 
z
" transform="scale(0.015625)"/>
        <path id="DejaVuSans-34" d="M 2419 4116 
L 825 1625 
L 2419 1625 
L 2419 4116 
z
M 2253 4666 
L 3047 4666 
L 3047 1625 
L 3713 1625 
L 3713 1100 
L 3047 1100 
L 3047 0 
L 2419 0 
L 2419 1100 
L 313 1100 
L 313 1709 
L 2253 4666 
z
" transform="scale(0.015625)"/>
       </defs>
       <use xlink:href="#DejaVuSans-2212"/>
       <use xlink:href="#DejaVuSans-34" x="83.789062"/>
      </g>
     </g>
    </g>
    <g id="ytick_2">
     <g id="line2d_8">
      <g>
       <use xlink:href="#md3bc1ede78" x="180" y="360.634589" style="stroke: #000000; stroke-width: 0.8"/>
      </g>
     </g>
     <g id="text_8">
      <!-- −2 -->
      <g transform="translate(158.257812 364.433808) scale(0.1 -0.1)">
       <use xlink:href="#DejaVuSans-2212"/>
       <use xlink:href="#DejaVuSans-32" x="83.789062"/>
      </g>
     </g>
    </g>
    <g id="ytick_3">
     <g id="line2d_9">
      <g>
       <use xlink:href="#md3bc1ede78" x="180" y="279.475289" style="stroke: #000000; stroke-width: 0.8"/>
      </g>
     </g>
     <g id="text_9">
      <!-- 0 -->
      <g transform="translate(166.6375 283.274508) scale(0.1 -0.1)">
       <use xlink:href="#DejaVuSans-30"/>
      </g>
     </g>
    </g>
    <g id="ytick_4">
     <g id="line2d_10">
      <g>
       <use xlink:href="#md3bc1ede78" x="180" y="198.31599" style="stroke: #000000; stroke-width: 0.8"/>
      </g>
     </g>
     <g id="text_10">
      <!-- 2 -->
      <g transform="translate(166.6375 202.115208) scale(0.1 -0.1)">
       <use xlink:href="#DejaVuSans-32"/>
      </g>
     </g>
    </g>
    <g id="ytick_5">
     <g id="line2d_11">
      <g>
       <use xlink:href="#md3bc1ede78" x="180" y="117.15669" style="stroke: #000000; stroke-width: 0.8"/>
      </g>
     </g>
     <g id="text_11">
      <!-- 4 -->
      <g transform="translate(166.6375 120.955909) scale(0.1 -0.1)">
       <use xlink:href="#DejaVuSans-34"/>
      </g>
     </g>
    </g>
   </g>
   <g id="line2d_12">
    <path d="M 230.727273 299.00665 
L 232.712685 298.864599 
L 233.70539 298.740918 
L 236.683508 297.727207 
L 238.66892 296.923663 
L 241.647038 295.188581 
L 243.63245 293.303867 
L 244.625156 293.537118 
L 245.617862 296.192375 
L 246.610568 294.084076 
L 247.603273 284.669269 
L 248.595979 285.284646 
L 249.588685 252.776665 
L 250.581391 209.037926 
L 251.574097 182.462964 
L 252.566803 168.055809 
L 253.559509 163.433577 
L 254.552215 167.362703 
L 255.544921 169.814141 
L 256.537627 159.16517 
L 257.530333 150.620756 
L 258.523039 150.840803 
L 259.515745 160.850827 
L 260.50845 179.112791 
L 261.501156 193.230201 
L 262.493862 199.361316 
L 263.486568 224.309353 
L 264.479274 214.341548 
L 265.47198 179.067482 
L 266.464686 168.40533 
L 267.457392 174.245267 
L 268.450098 189.648469 
L 269.442804 189.573373 
L 270.43551 190.18362 
L 271.428216 207.782903 
L 272.420922 206.42286 
L 273.413627 196.941209 
L 274.406333 212.88302 
L 275.399039 224.184597 
L 276.391745 173.661442 
L 277.384451 147.855361 
L 278.377157 135.266945 
L 280.362569 128.677797 
L 282.347981 99.383715 
L 283.340687 91.21547 
L 284.333393 89.28 
L 285.326099 90.467375 
L 286.318804 91.4596 
L 287.31151 93.182281 
L 288.304216 100.125696 
L 289.296922 113.791888 
L 290.289628 124.326845 
L 291.282334 123.767844 
L 292.27504 125.974509 
L 295.253158 149.164341 
L 296.245864 157.277003 
L 297.23857 159.863933 
L 298.231276 164.665863 
L 299.223981 173.9274 
L 300.216687 173.069289 
L 301.209393 172.38208 
L 302.202099 181.174976 
L 303.194805 194.256609 
L 304.187511 205.662052 
L 306.172923 245.877103 
L 307.165629 245.998342 
L 308.158335 274.03879 
L 309.151041 284.570374 
L 310.143747 274.306741 
L 311.136453 315.515471 
L 312.129159 314.526956 
L 313.121864 311.767644 
L 314.11457 327.969099 
L 315.107276 304.693289 
L 316.099982 352.381455 
L 317.092688 309.998474 
L 318.085394 293.406532 
L 320.070806 344.636757 
L 321.063512 313.079151 
L 322.056218 340.420794 
L 323.048924 323.73843 
L 324.04163 325.692856 
L 325.034336 342.892926 
L 326.027041 322.722675 
L 327.019747 335.429867 
L 328.012453 342.90426 
L 329.005159 324.629796 
L 329.997865 336.054587 
L 330.990571 354.947492 
L 331.983277 320.188292 
L 332.975983 336.492572 
L 333.968689 350.286705 
L 334.961395 330.796891 
L 335.954101 373.14173 
L 336.946807 334.97662 
L 337.939513 327.307661 
L 338.932218 389.283452 
L 339.924924 338.16873 
L 340.91763 335.316695 
L 341.910336 381.019535 
L 342.903042 335.970775 
L 343.895748 337.706108 
L 344.888454 411.165927 
L 345.88116 318.189307 
L 346.873866 333.441547 
L 347.866572 351.161365 
L 348.859278 313.189718 
L 349.851984 320.799175 
L 350.84469 339.756329 
L 351.837395 310.276181 
L 352.830101 317.14725 
L 353.822807 329.474426 
L 354.815513 307.413401 
L 355.808219 313.662586 
L 356.800925 346.838382 
L 357.793631 314.450901 
L 358.786337 317.533868 
L 359.779043 368.567792 
L 360.771749 332.348776 
L 361.764455 342.97972 
L 362.757161 492.48 
L 363.749867 339.608906 
L 365.735278 402.764356 
L 366.727984 341.977644 
L 367.72069 357.532284 
L 369.706102 371.095706 
L 370.698808 360.57861 
L 371.691514 357.0549 
L 372.68422 357.942817 
L 373.676926 388.029848 
L 374.669632 355.836928 
L 375.662338 374.164587 
L 376.655044 369.989371 
L 377.64775 371.884848 
L 379.633161 363.104561 
L 380.625867 353.503246 
L 381.618573 380.316967 
L 382.611279 367.01033 
L 383.603985 374.926773 
L 384.596691 381.753443 
L 385.589397 370.989976 
L 386.582103 370.233731 
L 387.574809 366.153705 
L 388.567515 375.222246 
L 389.560221 385.434657 
L 390.552927 374.115413 
L 391.545632 374.809727 
L 392.538338 379.59877 
L 393.531044 367.815094 
L 394.52375 379.490399 
L 395.516456 388.407667 
L 396.509162 376.348799 
L 397.501868 375.957092 
L 398.494574 374.910706 
L 399.48728 369.869965 
L 400.479986 370.545037 
L 401.472692 376.996892 
L 402.465398 370.386879 
L 403.458104 381.759255 
L 404.450809 384.238471 
L 405.443515 367.594879 
L 406.436221 389.512155 
L 407.428927 362.636723 
L 408.421633 356.304373 
L 410.407045 419.728079 
L 411.399751 370.935349 
L 412.392457 397.235178 
L 413.385163 379.017238 
L 414.377869 390.22908 
L 415.370575 385.874064 
L 416.363281 373.571716 
L 417.355986 399.136948 
L 418.348692 359.196784 
L 419.341398 388.346041 
L 420.334104 372.472477 
L 421.32681 374.696432 
L 423.312222 393.634882 
L 424.304928 387.127575 
L 425.297634 383.794679 
L 426.29034 407.460212 
L 427.283046 379.94119 
L 428.275752 396.683728 
L 429.268458 441.275106 
L 430.261163 397.715586 
L 431.253869 392.290573 
L 432.246575 378.410742 
L 433.239281 405.575058 
L 434.231987 378.55001 
L 435.224693 379.102125 
L 436.217399 368.195477 
L 437.210105 377.463167 
L 438.202811 393.846844 
L 439.195517 384.329755 
L 440.188223 411.155436 
L 441.180929 384.704101 
L 442.173635 364.781601 
L 443.166341 390.98251 
L 444.159046 382.24692 
L 445.151752 371.912174 
L 446.144458 385.087431 
L 447.137164 374.18457 
L 448.12987 470.283512 
L 449.122576 375.744222 
L 450.115282 397.30741 
L 451.107988 378.26174 
L 452.100694 409.070167 
L 453.0934 404.725786 
L 454.086106 394.762048 
L 455.078812 432.960025 
L 456.071518 385.946969 
L 457.064223 388.399962 
L 458.056929 394.922626 
L 459.049635 385.001585 
L 460.042341 388.85512 
L 461.035047 387.361952 
L 462.027753 378.006161 
L 463.020459 405.450633 
L 464.013165 429.316417 
L 465.005871 393.417334 
L 465.998577 365.670827 
L 466.991283 410.128918 
L 467.983989 393.292708 
L 468.976695 401.899115 
L 469.9694 408.119051 
L 470.962106 379.925568 
L 471.954812 389.5577 
L 472.947518 382.455762 
L 473.940224 409.872403 
L 474.93293 431.722054 
L 475.925636 397.578871 
L 476.918342 385.033764 
L 477.911048 379.288506 
L 478.903754 398.634065 
L 479.89646 390.728462 
L 480.889166 388.682918 
L 481.881872 399.189325 
L 482.874577 401.73182 
L 483.867283 384.003191 
L 484.859989 427.443798 
L 485.852695 400.62348 
L 486.845401 378.514456 
L 487.838107 388.214357 
L 488.830813 424.326327 
L 489.823519 384.566094 
L 490.816225 408.638419 
L 491.808931 387.652719 
L 493.794343 471.974925 
L 494.787049 397.556198 
L 495.779754 378.607124 
L 497.765166 399.142733 
L 498.757872 373.787185 
L 499.750578 421.763536 
L 500.743284 407.010134 
L 501.73599 405.803 
L 502.728696 383.851044 
L 503.721402 392.684179 
L 504.714108 382.829964 
L 505.706814 414.384774 
L 506.69952 384.485988 
L 507.692226 394.338969 
L 508.684932 401.916054 
L 509.677637 394.787626 
L 510.670343 418.417115 
L 511.663049 396.88097 
L 512.655755 400.041564 
L 513.648461 388.383584 
L 514.641167 385.988004 
L 515.633873 413.176284 
L 516.626579 405.21307 
L 517.619285 389.793361 
L 518.611991 413.78657 
L 519.604697 399.746396 
L 520.597403 408.276006 
L 521.590109 383.434253 
L 522.582814 455.958152 
L 523.57552 476.511666 
L 524.568226 426.608883 
L 525.560932 390.883852 
L 526.553638 399.338981 
L 527.546344 382.577791 
L 528.53905 435.590504 
L 529.531756 397.303594 
L 530.524462 398.484987 
L 531.517168 443.579166 
L 532.509874 391.221046 
L 533.50258 460.280127 
L 534.495286 390.583671 
L 535.487991 395.636981 
L 536.480697 414.36537 
L 537.473403 419.137101 
L 538.466109 436.192277 
L 539.458815 406.991008 
L 540.451521 388.978374 
L 542.436933 396.655216 
L 543.429639 391.348165 
L 544.422345 399.317113 
L 545.415051 403.895926 
L 546.407757 382.737826 
L 547.400463 406.021969 
L 548.393168 435.914201 
L 549.385874 422.228548 
L 550.37858 430.962724 
L 551.371286 393.195837 
L 552.363992 390.675699 
L 553.356698 389.471453 
L 554.349404 391.695024 
L 555.34211 398.712697 
L 556.334816 411.886646 
L 557.327522 409.85625 
L 558.320228 408.651459 
L 559.312934 384.110187 
L 560.30564 401.54427 
L 561.298345 430.797807 
L 562.291051 396.7832 
L 563.283757 407.869462 
L 564.276463 412.610694 
L 565.269169 385.219514 
L 566.261875 387.377442 
L 567.254581 383.566973 
L 568.247287 380.549814 
L 569.239993 402.178362 
L 570.232699 404.306472 
L 571.225405 410.095761 
L 572.218111 427.550122 
L 573.210817 384.835609 
L 574.203523 393.21703 
L 575.196228 421.6756 
L 576.188934 467.328401 
L 577.18164 418.529087 
L 578.174346 425.952017 
L 579.167052 447.300279 
L 580.159758 394.543088 
L 581.152464 416.864225 
L 582.14517 399.769579 
L 583.137876 386.751443 
L 584.130582 430.24819 
L 585.123288 409.383043 
L 586.115994 406.676372 
L 587.1087 401.020958 
L 588.101405 412.501856 
L 589.094111 420.088068 
L 590.086817 423.739086 
L 591.079523 466.405698 
L 592.072229 403.957175 
L 593.064935 465.486498 
L 594.057641 476.821414 
L 595.050347 475.486831 
L 596.043053 473.039576 
L 597.035759 407.441196 
L 598.028465 429.667409 
L 599.021171 467.748929 
L 600.013877 463.925686 
L 601.006582 426.75165 
L 601.999288 399.329431 
L 602.991994 445.8313 
L 604.977406 387.167331 
L 605.970112 396.337491 
L 606.962818 399.762649 
L 607.955524 391.405531 
L 608.94823 418.962674 
L 609.940936 469.256541 
L 610.933642 441.999998 
L 611.926348 388.854585 
L 612.919054 425.115029 
L 613.911759 432.76631 
L 614.904465 429.379438 
L 615.897171 418.122985 
L 616.889877 410.660776 
L 617.882583 431.780026 
L 618.875289 415.721029 
L 619.867995 407.584878 
L 620.860701 413.951605 
L 621.853407 408.627527 
L 622.846113 437.469518 
L 623.838819 418.555277 
L 624.831525 418.516322 
L 625.824231 427.892679 
L 626.816936 417.343966 
L 627.809642 418.874285 
L 628.802348 414.115504 
L 629.795054 434.725068 
L 630.78776 407.957491 
L 631.780466 433.615821 
L 632.773172 418.399247 
L 633.765878 436.38662 
L 634.758584 415.673401 
L 635.75129 425.44749 
L 636.743996 440.341892 
L 637.736702 414.845734 
L 638.729408 421.290491 
L 639.722114 411.385922 
L 640.714819 428.843137 
L 641.707525 412.071781 
L 642.700231 416.289048 
L 643.692937 429.995863 
L 644.685643 411.46433 
L 645.678349 410.0441 
L 646.671055 415.455757 
L 647.663761 423.600917 
L 648.656467 415.075629 
L 649.649173 416.20492 
L 651.634585 420.106636 
L 652.627291 428.98424 
L 653.619996 431.749602 
L 654.612702 422.60113 
L 655.605408 435.459917 
L 656.598114 420.244792 
L 657.59082 416.912707 
L 658.583526 421.127785 
L 659.576232 422.742045 
L 660.568938 423.06518 
L 661.561644 438.690375 
L 662.55435 420.33609 
L 663.547056 430.986278 
L 664.539762 418.975727 
L 665.532468 419.668702 
L 666.525173 420.592218 
L 667.517879 426.178491 
L 668.510585 426.006405 
L 669.503291 427.919048 
L 670.495997 425.619098 
L 671.488703 422.4099 
L 672.481409 420.861465 
L 673.474115 424.037663 
L 674.466821 422.251869 
L 675.459527 427.853054 
L 676.452233 423.830592 
L 677.444939 428.788971 
L 678.437645 424.158408 
L 679.43035 422.093356 
L 680.423056 422.301858 
L 681.415762 424.002517 
L 682.408468 423.230751 
L 684.39388 424.094474 
L 685.386586 415.352962 
L 686.379292 428.003443 
L 687.371998 421.640435 
L 688.364704 426.023902 
L 689.35741 423.97165 
L 690.350116 425.847714 
L 691.342822 418.333495 
L 692.335527 423.263005 
L 693.328233 422.383565 
L 694.320939 425.912169 
L 695.313645 427.489112 
L 696.306351 427.027442 
L 697.299057 422.723151 
L 698.291763 426.856066 
L 699.284469 423.303201 
L 700.277175 429.807622 
L 701.269881 426.856695 
L 702.262587 428.100907 
L 703.255293 423.679793 
L 705.240705 426.966248 
L 706.23341 424.610319 
L 707.226116 421.858904 
L 708.218822 426.604707 
L 709.211528 423.407424 
L 710.204234 428.498139 
L 711.19694 424.346571 
L 712.189646 426.292663 
L 713.182352 424.609305 
L 714.175058 426.24435 
L 715.167764 425.957958 
L 716.16047 427.573526 
L 717.153176 425.533037 
L 718.145882 428.734984 
L 719.138587 431.231719 
L 720.131293 427.092588 
L 721.123999 428.813545 
L 722.116705 429.497408 
L 723.109411 428.67044 
L 724.102117 428.408019 
L 725.094823 432.521122 
L 726.087529 425.937735 
L 727.080235 429.367559 
L 728.072941 427.273946 
L 729.065647 426.22129 
L 730.058353 428.13244 
L 731.051059 429.413682 
L 732.043764 428.743433 
L 733.03647 428.684796 
L 734.029176 429.66946 
L 735.021882 429.156045 
L 736.014588 428.188133 
L 737.007294 425.988374 
L 738 431.352831 
L 738.992706 425.964536 
L 739.985412 432.331113 
L 740.978118 428.311826 
L 741.970824 430.979286 
L 742.96353 430.047262 
L 743.956236 433.478849 
L 744.948941 432.040631 
L 745.941647 428.48692 
L 746.934353 429.651141 
L 747.927059 428.41958 
L 748.919765 428.647703 
L 749.912471 428.756223 
L 750.905177 427.715276 
L 751.897883 429.212011 
L 752.890589 430.381737 
L 753.883295 430.600279 
L 754.876001 432.810645 
L 755.868707 430.666134 
L 756.861413 432.674235 
L 757.854118 432.846493 
L 758.846824 433.221919 
L 759.83953 430.424632 
L 760.832236 431.541436 
L 761.824942 427.686788 
L 762.817648 431.010309 
L 763.810354 429.574583 
L 764.80306 431.353671 
L 765.795766 431.863523 
L 766.788472 427.98579 
L 767.781178 430.854958 
L 768.773884 430.793728 
L 770.759295 429.910579 
L 771.752001 432.155434 
L 772.744707 431.603897 
L 773.737413 430.56312 
L 774.730119 433.020284 
L 775.722825 428.984271 
L 776.715531 434.914644 
L 777.708237 432.087275 
L 778.700943 431.847924 
L 779.693649 432.715567 
L 780.686355 431.659281 
L 781.679061 433.205954 
L 782.671767 432.229614 
L 783.664473 429.798658 
L 784.657178 430.994605 
L 785.649884 431.666761 
L 786.64259 431.556064 
L 787.635296 430.383413 
L 788.628002 431.352553 
L 789.620708 433.14726 
L 790.613414 430.63352 
L 791.60612 433.738379 
L 792.598826 433.118001 
L 793.591532 431.686423 
L 794.584238 432.444545 
L 795.576944 430.694601 
L 796.56965 431.274721 
L 797.562355 436.724736 
L 798.555061 432.221512 
L 799.547767 432.493873 
L 800.540473 437.798546 
L 801.533179 432.590337 
L 802.525885 433.241736 
L 803.518591 430.23589 
L 805.504003 431.607283 
L 806.496709 435.34734 
L 807.489415 436.276236 
L 808.482121 431.917097 
L 809.474827 432.521535 
L 810.467532 432.161198 
L 811.460238 433.095701 
L 812.452944 432.151292 
L 813.44565 435.214597 
L 814.438356 433.168818 
L 815.431062 434.686867 
L 816.423768 434.112224 
L 817.416474 435.546299 
L 818.40918 435.71876 
L 819.401886 435.333198 
L 820.394592 434.515439 
L 821.387298 431.800804 
L 822.380004 433.810029 
L 823.372709 434.713103 
L 824.365415 430.908814 
L 825.358121 435.274469 
L 826.350827 432.943056 
L 827.343533 434.757988 
L 828.336239 433.827272 
L 829.328945 434.858778 
L 830.321651 437.091522 
L 831.314357 433.035613 
L 832.307063 431.512074 
L 833.299769 433.908177 
L 834.292475 433.36686 
L 837.270592 437.765752 
L 838.263298 433.83416 
L 839.256004 432.421921 
L 840.24871 434.573983 
L 841.241416 434.93723 
L 842.234122 436.845954 
L 843.226828 433.191786 
L 844.219534 435.029753 
L 845.21224 433.80241 
L 846.204946 436.346806 
L 847.197652 435.529681 
L 848.190358 436.061849 
L 849.183064 435.24502 
L 850.175769 437.119093 
L 851.168475 434.908189 
L 852.161181 436.731038 
L 853.153887 437.331583 
L 855.139299 435.110009 
L 856.132005 437.312691 
L 857.124711 436.531576 
L 858.117417 434.033132 
L 860.102829 437.963977 
L 862.088241 435.371971 
L 863.080946 437.105434 
L 864.073652 436.127905 
L 865.066358 437.538772 
L 866.059064 434.363722 
L 867.05177 434.348851 
L 868.044476 436.750372 
L 869.037182 434.597672 
L 870.029888 434.954407 
L 872.0153 436.095754 
L 873.008006 440.786622 
L 874.000712 435.744633 
L 874.993418 438.882466 
L 875.986123 434.350779 
L 876.978829 439.049985 
L 877.971535 438.342406 
L 878.964241 437.978837 
L 879.956947 441.446346 
L 880.949653 435.606592 
L 881.942359 436.69707 
L 882.935065 435.770535 
L 883.927771 439.770898 
L 885.913183 436.208367 
L 886.905889 440.006194 
L 887.898595 434.214407 
L 888.8913 437.257931 
L 889.884006 435.897943 
L 890.876712 438.416963 
L 891.869418 438.085367 
L 892.862124 435.272485 
L 893.85483 437.50522 
L 894.847536 435.35657 
L 895.840242 437.849111 
L 896.832948 436.218122 
L 897.825654 436.626866 
L 899.811066 436.10282 
L 900.803772 438.214642 
L 901.796477 436.736177 
L 902.789183 439.874703 
L 903.781889 437.700276 
L 904.774595 436.682402 
L 905.767301 437.332445 
L 906.760007 436.288065 
L 907.752713 441.093629 
L 908.745419 437.015868 
L 909.738125 438.458876 
L 910.730831 437.711636 
L 911.723537 440.414568 
L 912.716243 440.326605 
L 913.708949 435.064406 
L 914.701655 436.363127 
L 915.69436 438.727534 
L 916.687066 438.69077 
L 917.679772 438.999058 
L 920.65789 437.311747 
L 921.650596 436.279326 
L 922.643302 436.781377 
L 924.628714 437.047056 
L 925.62142 436.652594 
L 926.614126 438.45935 
L 927.606832 437.620876 
L 929.592243 439.46226 
L 930.584949 438.411967 
L 931.577655 437.889449 
L 932.570361 436.479825 
L 934.555773 439.52217 
L 935.548479 443.332718 
L 936.541185 440.002381 
L 937.533891 438.694081 
L 938.526597 437.070229 
L 939.519303 440.554428 
L 940.512009 439.805969 
L 941.504714 435.870207 
L 942.49742 437.135383 
L 943.490126 437.371719 
L 944.482832 439.299065 
L 945.475538 440.591374 
L 946.468244 436.470165 
L 947.46095 439.711464 
L 949.446362 439.489607 
L 950.439068 440.357124 
L 951.431774 437.876907 
L 952.42448 437.327522 
L 953.417186 441.708177 
L 954.409891 439.740664 
L 955.402597 439.253478 
L 956.395303 442.823664 
L 957.388009 439.937311 
L 958.380715 439.985876 
L 960.366127 439.589742 
L 961.358833 439.005402 
L 962.351539 440.82977 
L 963.344245 440.09748 
L 964.336951 441.647899 
L 965.329657 436.396913 
L 966.322363 441.341776 
L 968.307774 438.166522 
L 969.30048 441.882673 
L 970.293186 441.746917 
L 971.285892 437.365668 
L 972.278598 437.29186 
L 973.271304 439.119175 
L 974.26401 438.291539 
L 975.256716 438.885492 
L 976.249422 441.656225 
L 977.242128 441.291466 
L 978.234834 437.948781 
L 979.22754 438.410539 
L 980.220246 440.711841 
L 981.212951 440.804548 
L 982.205657 437.637895 
L 983.198363 440.740944 
L 984.191069 439.477373 
L 985.183775 440.656947 
L 986.176481 441.263465 
L 987.169187 442.303418 
L 988.161893 439.727861 
L 989.154599 441.461465 
L 990.147305 439.424326 
L 991.140011 439.610987 
L 992.132717 442.235801 
L 993.125423 439.413082 
L 994.118128 440.322497 
L 995.110834 440.602419 
L 996.10354 441.023108 
L 997.096246 440.693682 
L 998.088952 440.830791 
L 999.081658 442.032358 
L 1000.074364 441.753563 
L 1001.06707 439.598973 
L 1002.059776 442.04517 
L 1003.052482 439.614027 
L 1004.045188 440.012674 
L 1005.037894 443.049636 
L 1006.0306 443.701907 
L 1007.023305 442.521908 
L 1008.016011 440.864534 
L 1009.008717 440.414999 
L 1010.001423 443.225558 
L 1010.994129 441.854778 
L 1011.986835 443.906456 
L 1012.979541 441.449942 
L 1013.972247 441.279718 
L 1014.964953 444.178548 
L 1015.957659 439.313123 
L 1016.950365 440.595272 
L 1017.943071 438.864879 
L 1018.935777 439.598046 
L 1019.928482 442.550181 
L 1020.921188 444.37684 
L 1021.913894 443.534582 
L 1022.9066 438.776212 
L 1023.899306 439.826719 
L 1024.892012 439.156692 
L 1025.884718 444.618432 
L 1026.877424 443.719779 
L 1027.87013 442.420424 
L 1028.862836 440.848569 
L 1029.855542 441.740006 
L 1030.848248 441.035247 
L 1031.840954 442.463817 
L 1032.833659 441.49581 
L 1033.826365 442.101932 
L 1034.819071 441.290899 
L 1035.811777 442.813508 
L 1036.804483 445.56032 
L 1037.797189 443.675218 
L 1038.789895 440.738684 
L 1039.782601 442.039512 
L 1040.775307 444.492928 
L 1041.768013 443.75915 
L 1042.760719 443.41658 
L 1043.753425 441.623046 
L 1044.746131 442.096007 
L 1045.738837 441.300501 
L 1046.731542 441.898062 
L 1047.724248 443.993093 
L 1048.716954 441.347677 
L 1049.70966 443.491535 
L 1050.702366 443.085658 
L 1051.695072 443.756851 
L 1052.687778 440.17176 
L 1053.680484 437.558645 
L 1054.67319 443.975733 
L 1055.665896 443.626763 
L 1056.658602 442.605912 
L 1057.651308 441.234282 
L 1058.644014 441.211495 
L 1059.636719 442.842686 
L 1060.629425 443.029143 
L 1061.622131 441.681826 
L 1062.614837 442.320567 
L 1063.607543 440.216683 
L 1064.600249 443.606004 
L 1065.592955 439.751 
L 1066.585661 441.106924 
L 1067.578367 444.608461 
L 1068.571073 438.802911 
L 1069.563779 444.066633 
L 1070.556485 441.969186 
L 1071.549191 440.533713 
L 1072.541896 442.82796 
L 1073.534602 443.563043 
L 1074.527308 445.809626 
L 1075.520014 440.039876 
L 1076.51272 440.649846 
L 1077.505426 439.137489 
L 1078.498132 439.247114 
L 1079.490838 439.226564 
L 1080.483544 443.20031 
L 1081.47625 440.656233 
L 1082.468956 444.04914 
L 1083.461662 444.551815 
L 1084.454368 439.454621 
L 1085.447073 441.267341 
L 1086.439779 444.222361 
L 1087.432485 442.158198 
L 1088.425191 444.728152 
L 1089.417897 446.63474 
L 1090.410603 442.05389 
L 1091.403309 443.536933 
L 1092.396015 440.068718 
L 1093.388721 443.126101 
L 1094.381427 439.766529 
L 1095.374133 440.180395 
L 1096.366839 446.216447 
L 1097.359545 447.826581 
L 1098.35225 444.752814 
L 1099.344956 440.659731 
L 1100.337662 440.917259 
L 1102.323074 445.580386 
L 1103.31578 441.635368 
L 1104.308486 442.718852 
L 1105.301192 442.842977 
L 1106.293898 443.128417 
L 1107.286604 445.086736 
L 1108.27931 444.258597 
L 1109.272016 442.743516 
L 1110.264722 441.952432 
L 1111.257428 443.589175 
L 1112.250133 442.782147 
L 1113.242839 439.523517 
L 1114.235545 443.442337 
L 1115.228251 442.920299 
L 1116.220957 442.198123 
L 1118.206369 442.369653 
L 1119.199075 442.724585 
L 1120.191781 443.518224 
L 1121.184487 443.08793 
L 1122.177193 442.941263 
L 1123.169899 445.221834 
L 1124.162605 443.958337 
L 1125.15531 443.237227 
L 1126.148016 447.625928 
L 1127.140722 445.508017 
L 1128.133428 442.549406 
L 1129.126134 442.607322 
L 1131.111546 444.207205 
L 1132.104252 444.085141 
L 1133.096958 444.762153 
L 1134.089664 443.23186 
L 1135.08237 443.91876 
L 1136.075076 442.356107 
L 1137.067782 440.484653 
L 1138.060487 443.6315 
L 1139.053193 445.463647 
L 1140.045899 441.917052 
L 1141.038605 442.323478 
L 1142.031311 445.696458 
L 1143.024017 441.203427 
L 1144.016723 444.632465 
L 1145.009429 442.204794 
L 1146.994841 442.400097 
L 1147.987547 447.208647 
L 1148.980253 445.272174 
L 1149.972959 445.201601 
L 1150.965664 444.482782 
L 1151.95837 444.582615 
L 1152.951076 445.6815 
L 1153.943782 445.162238 
L 1154.936488 444.043245 
L 1155.929194 445.168934 
L 1156.9219 444.668977 
L 1157.914606 443.15624 
L 1158.907312 442.353769 
L 1159.900018 442.804868 
L 1160.892724 440.783444 
L 1161.88543 443.690501 
L 1162.878136 442.91805 
L 1163.870841 444.101975 
L 1164.863547 444.847287 
L 1165.856253 447.800426 
L 1166.848959 444.516665 
L 1167.841665 446.854392 
L 1168.834371 445.229457 
L 1169.827077 441.38598 
L 1170.819783 443.443542 
L 1171.812489 441.333628 
L 1172.805195 442.58348 
L 1173.797901 441.348239 
L 1174.790607 442.660515 
L 1175.783313 442.163423 
L 1176.776019 445.081921 
L 1177.768724 441.365498 
L 1178.76143 444.008812 
L 1179.754136 443.839738 
L 1180.746842 441.31191 
L 1181.739548 446.261455 
L 1182.732254 445.08244 
L 1183.72496 443.144266 
L 1184.717666 444.424745 
L 1185.710372 444.12553 
L 1186.703078 444.487475 
L 1187.695784 442.861509 
L 1188.68849 445.003308 
L 1189.681196 442.801829 
L 1190.673901 442.274283 
L 1191.666607 442.771474 
L 1192.659313 445.303958 
L 1193.652019 443.419201 
L 1194.644725 444.797855 
L 1195.637431 441.720487 
L 1196.630137 440.683995 
L 1198.615549 446.848773 
L 1199.608255 443.896014 
L 1200.600961 442.907492 
L 1201.593667 443.108647 
L 1202.586373 446.032648 
L 1203.579078 444.402621 
L 1204.571784 443.16122 
L 1205.56449 444.193269 
L 1206.557196 442.508392 
L 1207.549902 446.961249 
L 1208.542608 441.678777 
L 1209.535314 440.322916 
L 1211.520726 446.1302 
L 1213.506138 441.203154 
L 1214.498844 443.347593 
L 1215.49155 446.456362 
L 1216.484255 443.736037 
L 1217.476961 443.138274 
L 1218.469667 442.768974 
L 1219.462373 449.096775 
L 1221.447785 440.289634 
L 1222.440491 440.567424 
L 1223.433197 442.721507 
L 1224.425903 446.261044 
L 1225.418609 446.46609 
L 1226.411315 445.46314 
L 1227.404021 443.308025 
L 1228.396727 441.947386 
L 1229.389432 442.157052 
L 1230.382138 443.250871 
L 1231.374844 447.403194 
L 1232.36755 441.771875 
L 1233.360256 443.290148 
L 1234.352962 444.341636 
L 1235.345668 443.835866 
L 1236.338374 442.506063 
L 1237.33108 443.999505 
L 1238.323786 443.443293 
L 1239.316492 444.356934 
L 1240.309198 442.149097 
L 1241.301904 444.150484 
L 1242.29461 444.219009 
L 1243.287315 443.003089 
L 1244.280021 446.691617 
L 1245.272727 441.137755 
L 1245.272727 441.137755 
" clip-path="url(#p5c3192c340)" style="fill: none; stroke: #1f77b4; stroke-width: 1.5; stroke-linecap: square"/>
   </g>
   <g id="patch_3">
    <path d="M 180 512.64 
L 180 69.12 
" style="fill: none; stroke: #000000; stroke-width: 0.8; stroke-linejoin: miter; stroke-linecap: square"/>
   </g>
   <g id="patch_4">
    <path d="M 1296 512.64 
L 1296 69.12 
" style="fill: none; stroke: #000000; stroke-width: 0.8; stroke-linejoin: miter; stroke-linecap: square"/>
   </g>
   <g id="patch_5">
    <path d="M 180 512.64 
L 1296 512.64 
" style="fill: none; stroke: #000000; stroke-width: 0.8; stroke-linejoin: miter; stroke-linecap: square"/>
   </g>
   <g id="patch_6">
    <path d="M 180 69.12 
L 1296 69.12 
" style="fill: none; stroke: #000000; stroke-width: 0.8; stroke-linejoin: miter; stroke-linecap: square"/>
   </g>
   <g id="text_12">
    <!-- source10-receiver4 -->
    <g transform="translate(544.9 60.80125) scale(0.4 -0.4)">
     <defs>
      <path id="DejaVuSans-73" d="M 2834 3397 
L 2834 2853 
Q 2591 2978 2328 3040 
Q 2066 3103 1784 3103 
Q 1356 3103 1142 2972 
Q 928 2841 928 2578 
Q 928 2378 1081 2264 
Q 1234 2150 1697 2047 
L 1894 2003 
Q 2506 1872 2764 1633 
Q 3022 1394 3022 966 
Q 3022 478 2636 193 
Q 2250 -91 1575 -91 
Q 1294 -91 989 -36 
Q 684 19 347 128 
L 347 722 
Q 666 556 975 473 
Q 1284 391 1588 391 
Q 1994 391 2212 530 
Q 2431 669 2431 922 
Q 2431 1156 2273 1281 
Q 2116 1406 1581 1522 
L 1381 1569 
Q 847 1681 609 1914 
Q 372 2147 372 2553 
Q 372 3047 722 3315 
Q 1072 3584 1716 3584 
Q 2034 3584 2315 3537 
Q 2597 3491 2834 3397 
z
" transform="scale(0.015625)"/>
      <path id="DejaVuSans-6f" d="M 1959 3097 
Q 1497 3097 1228 2736 
Q 959 2375 959 1747 
Q 959 1119 1226 758 
Q 1494 397 1959 397 
Q 2419 397 2687 759 
Q 2956 1122 2956 1747 
Q 2956 2369 2687 2733 
Q 2419 3097 1959 3097 
z
M 1959 3584 
Q 2709 3584 3137 3096 
Q 3566 2609 3566 1747 
Q 3566 888 3137 398 
Q 2709 -91 1959 -91 
Q 1206 -91 779 398 
Q 353 888 353 1747 
Q 353 2609 779 3096 
Q 1206 3584 1959 3584 
z
" transform="scale(0.015625)"/>
      <path id="DejaVuSans-75" d="M 544 1381 
L 544 3500 
L 1119 3500 
L 1119 1403 
Q 1119 906 1312 657 
Q 1506 409 1894 409 
Q 2359 409 2629 706 
Q 2900 1003 2900 1516 
L 2900 3500 
L 3475 3500 
L 3475 0 
L 2900 0 
L 2900 538 
Q 2691 219 2414 64 
Q 2138 -91 1772 -91 
Q 1169 -91 856 284 
Q 544 659 544 1381 
z
M 1991 3584 
L 1991 3584 
z
" transform="scale(0.015625)"/>
      <path id="DejaVuSans-72" d="M 2631 2963 
Q 2534 3019 2420 3045 
Q 2306 3072 2169 3072 
Q 1681 3072 1420 2755 
Q 1159 2438 1159 1844 
L 1159 0 
L 581 0 
L 581 3500 
L 1159 3500 
L 1159 2956 
Q 1341 3275 1631 3429 
Q 1922 3584 2338 3584 
Q 2397 3584 2469 3576 
Q 2541 3569 2628 3553 
L 2631 2963 
z
" transform="scale(0.015625)"/>
      <path id="DejaVuSans-63" d="M 3122 3366 
L 3122 2828 
Q 2878 2963 2633 3030 
Q 2388 3097 2138 3097 
Q 1578 3097 1268 2742 
Q 959 2388 959 1747 
Q 959 1106 1268 751 
Q 1578 397 2138 397 
Q 2388 397 2633 464 
Q 2878 531 3122 666 
L 3122 134 
Q 2881 22 2623 -34 
Q 2366 -91 2075 -91 
Q 1284 -91 818 406 
Q 353 903 353 1747 
Q 353 2603 823 3093 
Q 1294 3584 2113 3584 
Q 2378 3584 2631 3529 
Q 2884 3475 3122 3366 
z
" transform="scale(0.015625)"/>
      <path id="DejaVuSans-65" d="M 3597 1894 
L 3597 1613 
L 953 1613 
Q 991 1019 1311 708 
Q 1631 397 2203 397 
Q 2534 397 2845 478 
Q 3156 559 3463 722 
L 3463 178 
Q 3153 47 2828 -22 
Q 2503 -91 2169 -91 
Q 1331 -91 842 396 
Q 353 884 353 1716 
Q 353 2575 817 3079 
Q 1281 3584 2069 3584 
Q 2775 3584 3186 3129 
Q 3597 2675 3597 1894 
z
M 3022 2063 
Q 3016 2534 2758 2815 
Q 2500 3097 2075 3097 
Q 1594 3097 1305 2825 
Q 1016 2553 972 2059 
L 3022 2063 
z
" transform="scale(0.015625)"/>
      <path id="DejaVuSans-2d" d="M 313 2009 
L 1997 2009 
L 1997 1497 
L 313 1497 
L 313 2009 
z
" transform="scale(0.015625)"/>
      <path id="DejaVuSans-69" d="M 603 3500 
L 1178 3500 
L 1178 0 
L 603 0 
L 603 3500 
z
M 603 4863 
L 1178 4863 
L 1178 4134 
L 603 4134 
L 603 4863 
z
" transform="scale(0.015625)"/>
      <path id="DejaVuSans-76" d="M 191 3500 
L 800 3500 
L 1894 563 
L 2988 3500 
L 3597 3500 
L 2284 0 
L 1503 0 
L 191 3500 
z
" transform="scale(0.015625)"/>
     </defs>
     <use xlink:href="#DejaVuSans-73"/>
     <use xlink:href="#DejaVuSans-6f" x="52.099609"/>
     <use xlink:href="#DejaVuSans-75" x="113.28125"/>
     <use xlink:href="#DejaVuSans-72" x="176.660156"/>
     <use xlink:href="#DejaVuSans-63" x="215.523438"/>
     <use xlink:href="#DejaVuSans-65" x="270.503906"/>
     <use xlink:href="#DejaVuSans-31" x="332.027344"/>
     <use xlink:href="#DejaVuSans-30" x="395.650391"/>
     <use xlink:href="#DejaVuSans-2d" x="459.273438"/>
     <use xlink:href="#DejaVuSans-72" x="495.357422"/>
     <use xlink:href="#DejaVuSans-65" x="534.220703"/>
     <use xlink:href="#DejaVuSans-63" x="595.744141"/>
     <use xlink:href="#DejaVuSans-65" x="650.724609"/>
     <use xlink:href="#DejaVuSans-69" x="712.248047"/>
     <use xlink:href="#DejaVuSans-76" x="740.03125"/>
     <use xlink:href="#DejaVuSans-65" x="799.210938"/>
     <use xlink:href="#DejaVuSans-72" x="860.734375"/>
     <use xlink:href="#DejaVuSans-34" x="901.847656"/>
    </g>
   </g>
  </g>
 </g>
 <defs>
  <clipPath id="p5c3192c340">
   <rect x="180" y="69.12" width="1116" height="443.52"/>
  </clipPath>
 </defs>
</svg>
