<?xml version="1.0" encoding="utf-8" standalone="no"?>
<!DOCTYPE svg PUBLIC "-//W3C//DTD SVG 1.1//EN"
  "http://www.w3.org/Graphics/SVG/1.1/DTD/svg11.dtd">
<svg xmlns:xlink="http://www.w3.org/1999/xlink" width="1440pt" height="576pt" viewBox="0 0 1440 576" xmlns="http://www.w3.org/2000/svg" version="1.1">
 <metadata>
  <rdf:RDF xmlns:dc="http://purl.org/dc/elements/1.1/" xmlns:cc="http://creativecommons.org/ns#" xmlns:rdf="http://www.w3.org/1999/02/22-rdf-syntax-ns#">
   <cc:Work>
    <dc:type rdf:resource="http://purl.org/dc/dcmitype/StillImage"/>
    <dc:date>2024-05-22T04:49:57.335749</dc:date>
    <dc:format>image/svg+xml</dc:format>
    <dc:creator>
     <cc:Agent>
      <dc:title>Matplotlib v3.8.3, https://matplotlib.org/</dc:title>
     </cc:Agent>
    </dc:creator>
   </cc:Work>
  </rdf:RDF>
 </metadata>
 <defs>
  <style type="text/css">*{stroke-linejoin: round; stroke-linecap: butt}</style>
 </defs>
 <g id="figure_1">
  <g id="patch_1">
   <path d="M 0 576 
L 1440 576 
L 1440 0 
L 0 0 
z
" style="fill: #ffffff"/>
  </g>
  <g id="axes_1">
   <g id="patch_2">
    <path d="M 180 512.64 
L 1296 512.64 
L 1296 69.12 
L 180 69.12 
z
" style="fill: #ffffff"/>
   </g>
   <g id="matplotlib.axis_1">
    <g id="xtick_1">
     <g id="line2d_1">
      <defs>
       <path id="ma9da5810b6" d="M 0 0 
L 0 3.5 
" style="stroke: #000000; stroke-width: 0.8"/>
      </defs>
      <g>
       <use xlink:href="#ma9da5810b6" x="229.734567" y="512.64" style="stroke: #000000; stroke-width: 0.8"/>
      </g>
     </g>
     <g id="text_1">
      <!-- 0 -->
      <g transform="translate(226.553317 527.238438) scale(0.1 -0.1)">
       <defs>
        <path id="DejaVuSans-30" d="M 2034 4250 
Q 1547 4250 1301 3770 
Q 1056 3291 1056 2328 
Q 1056 1369 1301 889 
Q 1547 409 2034 409 
Q 2525 409 2770 889 
Q 3016 1369 3016 2328 
Q 3016 3291 2770 3770 
Q 2525 4250 2034 4250 
z
M 2034 4750 
Q 2819 4750 3233 4129 
Q 3647 3509 3647 2328 
Q 3647 1150 3233 529 
Q 2819 -91 2034 -91 
Q 1250 -91 836 529 
Q 422 1150 422 2328 
Q 422 3509 836 4129 
Q 1250 4750 2034 4750 
z
" transform="scale(0.015625)"/>
       </defs>
       <use xlink:href="#DejaVuSans-30"/>
      </g>
     </g>
    </g>
    <g id="xtick_2">
     <g id="line2d_2">
      <g>
       <use xlink:href="#ma9da5810b6" x="433.04074" y="512.64" style="stroke: #000000; stroke-width: 0.8"/>
      </g>
     </g>
     <g id="text_2">
      <!-- 500 -->
      <g transform="translate(423.49699 527.238438) scale(0.1 -0.1)">
       <defs>
        <path id="DejaVuSans-35" d="M 691 4666 
L 3169 4666 
L 3169 4134 
L 1269 4134 
L 1269 2991 
Q 1406 3038 1543 3061 
Q 1681 3084 1819 3084 
Q 2600 3084 3056 2656 
Q 3513 2228 3513 1497 
Q 3513 744 3044 326 
Q 2575 -91 1722 -91 
Q 1428 -91 1123 -41 
Q 819 9 494 109 
L 494 744 
Q 775 591 1075 516 
Q 1375 441 1709 441 
Q 2250 441 2565 725 
Q 2881 1009 2881 1497 
Q 2881 1984 2565 2268 
Q 2250 2553 1709 2553 
Q 1456 2553 1204 2497 
Q 953 2441 691 2322 
L 691 4666 
z
" transform="scale(0.015625)"/>
       </defs>
       <use xlink:href="#DejaVuSans-35"/>
       <use xlink:href="#DejaVuSans-30" x="63.623047"/>
       <use xlink:href="#DejaVuSans-30" x="127.246094"/>
      </g>
     </g>
    </g>
    <g id="xtick_3">
     <g id="line2d_3">
      <g>
       <use xlink:href="#ma9da5810b6" x="636.346913" y="512.64" style="stroke: #000000; stroke-width: 0.8"/>
      </g>
     </g>
     <g id="text_3">
      <!-- 1000 -->
      <g transform="translate(623.621913 527.238438) scale(0.1 -0.1)">
       <defs>
        <path id="DejaVuSans-31" d="M 794 531 
L 1825 531 
L 1825 4091 
L 703 3866 
L 703 4441 
L 1819 4666 
L 2450 4666 
L 2450 531 
L 3481 531 
L 3481 0 
L 794 0 
L 794 531 
z
" transform="scale(0.015625)"/>
       </defs>
       <use xlink:href="#DejaVuSans-31"/>
       <use xlink:href="#DejaVuSans-30" x="63.623047"/>
       <use xlink:href="#DejaVuSans-30" x="127.246094"/>
       <use xlink:href="#DejaVuSans-30" x="190.869141"/>
      </g>
     </g>
    </g>
    <g id="xtick_4">
     <g id="line2d_4">
      <g>
       <use xlink:href="#ma9da5810b6" x="839.653087" y="512.64" style="stroke: #000000; stroke-width: 0.8"/>
      </g>
     </g>
     <g id="text_4">
      <!-- 1500 -->
      <g transform="translate(826.928087 527.238438) scale(0.1 -0.1)">
       <use xlink:href="#DejaVuSans-31"/>
       <use xlink:href="#DejaVuSans-35" x="63.623047"/>
       <use xlink:href="#DejaVuSans-30" x="127.246094"/>
       <use xlink:href="#DejaVuSans-30" x="190.869141"/>
      </g>
     </g>
    </g>
    <g id="xtick_5">
     <g id="line2d_5">
      <g>
       <use xlink:href="#ma9da5810b6" x="1042.95926" y="512.64" style="stroke: #000000; stroke-width: 0.8"/>
      </g>
     </g>
     <g id="text_5">
      <!-- 2000 -->
      <g transform="translate(1030.23426 527.238438) scale(0.1 -0.1)">
       <defs>
        <path id="DejaVuSans-32" d="M 1228 531 
L 3431 531 
L 3431 0 
L 469 0 
L 469 531 
Q 828 903 1448 1529 
Q 2069 2156 2228 2338 
Q 2531 2678 2651 2914 
Q 2772 3150 2772 3378 
Q 2772 3750 2511 3984 
Q 2250 4219 1831 4219 
Q 1534 4219 1204 4116 
Q 875 4013 500 3803 
L 500 4441 
Q 881 4594 1212 4672 
Q 1544 4750 1819 4750 
Q 2544 4750 2975 4387 
Q 3406 4025 3406 3419 
Q 3406 3131 3298 2873 
Q 3191 2616 2906 2266 
Q 2828 2175 2409 1742 
Q 1991 1309 1228 531 
z
" transform="scale(0.015625)"/>
       </defs>
       <use xlink:href="#DejaVuSans-32"/>
       <use xlink:href="#DejaVuSans-30" x="63.623047"/>
       <use xlink:href="#DejaVuSans-30" x="127.246094"/>
       <use xlink:href="#DejaVuSans-30" x="190.869141"/>
      </g>
     </g>
    </g>
    <g id="xtick_6">
     <g id="line2d_6">
      <g>
       <use xlink:href="#ma9da5810b6" x="1246.265433" y="512.64" style="stroke: #000000; stroke-width: 0.8"/>
      </g>
     </g>
     <g id="text_6">
      <!-- 2500 -->
      <g transform="translate(1233.540433 527.238438) scale(0.1 -0.1)">
       <use xlink:href="#DejaVuSans-32"/>
       <use xlink:href="#DejaVuSans-35" x="63.623047"/>
       <use xlink:href="#DejaVuSans-30" x="127.246094"/>
       <use xlink:href="#DejaVuSans-30" x="190.869141"/>
      </g>
     </g>
    </g>
   </g>
   <g id="matplotlib.axis_2">
    <g id="ytick_1">
     <g id="line2d_7">
      <defs>
       <path id="m961d867c46" d="M 0 0 
L -3.5 0 
" style="stroke: #000000; stroke-width: 0.8"/>
      </defs>
      <g>
       <use xlink:href="#m961d867c46" x="180" y="497.963771" style="stroke: #000000; stroke-width: 0.8"/>
      </g>
     </g>
     <g id="text_7">
      <!-- −3 -->
      <g transform="translate(158.257812 501.76299) scale(0.1 -0.1)">
       <defs>
        <path id="DejaVuSans-2212" d="M 678 2272 
L 4684 2272 
L 4684 1741 
L 678 1741 
L 678 2272 
z
" transform="scale(0.015625)"/>
        <path id="DejaVuSans-33" d="M 2597 2516 
Q 3050 2419 3304 2112 
Q 3559 1806 3559 1356 
Q 3559 666 3084 287 
Q 2609 -91 1734 -91 
Q 1441 -91 1130 -33 
Q 819 25 488 141 
L 488 750 
Q 750 597 1062 519 
Q 1375 441 1716 441 
Q 2309 441 2620 675 
Q 2931 909 2931 1356 
Q 2931 1769 2642 2001 
Q 2353 2234 1838 2234 
L 1294 2234 
L 1294 2753 
L 1863 2753 
Q 2328 2753 2575 2939 
Q 2822 3125 2822 3475 
Q 2822 3834 2567 4026 
Q 2313 4219 1838 4219 
Q 1578 4219 1281 4162 
Q 984 4106 628 3988 
L 628 4550 
Q 988 4650 1302 4700 
Q 1616 4750 1894 4750 
Q 2613 4750 3031 4423 
Q 3450 4097 3450 3541 
Q 3450 3153 3228 2886 
Q 3006 2619 2597 2516 
z
" transform="scale(0.015625)"/>
       </defs>
       <use xlink:href="#DejaVuSans-2212"/>
       <use xlink:href="#DejaVuSans-33" x="83.789062"/>
      </g>
     </g>
    </g>
    <g id="ytick_2">
     <g id="line2d_8">
      <g>
       <use xlink:href="#m961d867c46" x="180" y="441.19603" style="stroke: #000000; stroke-width: 0.8"/>
      </g>
     </g>
     <g id="text_8">
      <!-- −2 -->
      <g transform="translate(158.257812 444.995249) scale(0.1 -0.1)">
       <use xlink:href="#DejaVuSans-2212"/>
       <use xlink:href="#DejaVuSans-32" x="83.789062"/>
      </g>
     </g>
    </g>
    <g id="ytick_3">
     <g id="line2d_9">
      <g>
       <use xlink:href="#m961d867c46" x="180" y="384.428288" style="stroke: #000000; stroke-width: 0.8"/>
      </g>
     </g>
     <g id="text_9">
      <!-- −1 -->
      <g transform="translate(158.257812 388.227507) scale(0.1 -0.1)">
       <use xlink:href="#DejaVuSans-2212"/>
       <use xlink:href="#DejaVuSans-31" x="83.789062"/>
      </g>
     </g>
    </g>
    <g id="ytick_4">
     <g id="line2d_10">
      <g>
       <use xlink:href="#m961d867c46" x="180" y="327.660547" style="stroke: #000000; stroke-width: 0.8"/>
      </g>
     </g>
     <g id="text_10">
      <!-- 0 -->
      <g transform="translate(166.6375 331.459765) scale(0.1 -0.1)">
       <use xlink:href="#DejaVuSans-30"/>
      </g>
     </g>
    </g>
    <g id="ytick_5">
     <g id="line2d_11">
      <g>
       <use xlink:href="#m961d867c46" x="180" y="270.892805" style="stroke: #000000; stroke-width: 0.8"/>
      </g>
     </g>
     <g id="text_11">
      <!-- 1 -->
      <g transform="translate(166.6375 274.692024) scale(0.1 -0.1)">
       <use xlink:href="#DejaVuSans-31"/>
      </g>
     </g>
    </g>
    <g id="ytick_6">
     <g id="line2d_12">
      <g>
       <use xlink:href="#m961d867c46" x="180" y="214.125063" style="stroke: #000000; stroke-width: 0.8"/>
      </g>
     </g>
     <g id="text_12">
      <!-- 2 -->
      <g transform="translate(166.6375 217.924282) scale(0.1 -0.1)">
       <use xlink:href="#DejaVuSans-32"/>
      </g>
     </g>
    </g>
    <g id="ytick_7">
     <g id="line2d_13">
      <g>
       <use xlink:href="#m961d867c46" x="180" y="157.357322" style="stroke: #000000; stroke-width: 0.8"/>
      </g>
     </g>
     <g id="text_13">
      <!-- 3 -->
      <g transform="translate(166.6375 161.15654) scale(0.1 -0.1)">
       <use xlink:href="#DejaVuSans-33"/>
      </g>
     </g>
    </g>
    <g id="ytick_8">
     <g id="line2d_14">
      <g>
       <use xlink:href="#m961d867c46" x="180" y="100.58958" style="stroke: #000000; stroke-width: 0.8"/>
      </g>
     </g>
     <g id="text_14">
      <!-- 4 -->
      <g transform="translate(166.6375 104.388799) scale(0.1 -0.1)">
       <defs>
        <path id="DejaVuSans-34" d="M 2419 4116 
L 825 1625 
L 2419 1625 
L 2419 4116 
z
M 2253 4666 
L 3047 4666 
L 3047 1625 
L 3713 1625 
L 3713 1100 
L 3047 1100 
L 3047 0 
L 2419 0 
L 2419 1100 
L 313 1100 
L 313 1709 
L 2253 4666 
z
" transform="scale(0.015625)"/>
       </defs>
       <use xlink:href="#DejaVuSans-34"/>
      </g>
     </g>
    </g>
   </g>
   <g id="line2d_15">
    <path d="M 230.727273 401.283764 
L 231.719979 401.320499 
L 232.712685 400.622756 
L 235.690802 397.478363 
L 236.683508 395.95289 
L 239.661626 390.123352 
L 241.647038 383.990486 
L 242.639744 380.758831 
L 243.63245 376.099732 
L 244.625156 372.371241 
L 245.617862 369.955811 
L 247.603273 333.992764 
L 248.595979 341.929481 
L 249.588685 378.187551 
L 250.581391 293.254172 
L 251.574097 260.465614 
L 252.566803 259.252036 
L 253.559509 303.47446 
L 254.552215 293.233506 
L 255.544921 233.923221 
L 256.537627 224.39762 
L 257.530333 251.578981 
L 258.523039 250.090875 
L 259.515745 220.138444 
L 260.50845 225.321984 
L 261.501156 223.703048 
L 262.493862 217.939019 
L 263.486568 256.543366 
L 264.479274 220.144752 
L 265.47198 195.580788 
L 266.464686 199.641582 
L 267.457392 188.993622 
L 268.450098 172.928857 
L 269.442804 167.51229 
L 270.43551 171.732356 
L 271.428216 183.185809 
L 272.420922 156.079463 
L 273.413627 137.082224 
L 274.406333 144.321324 
L 275.399039 184.910628 
L 276.391745 176.495506 
L 277.384451 147.181042 
L 278.377157 147.509796 
L 279.369863 152.387728 
L 280.362569 127.353445 
L 281.355275 114.893328 
L 282.347981 130.324337 
L 283.340687 151.908989 
L 284.333393 107.442175 
L 285.326099 89.28 
L 286.318804 92.66338 
L 287.31151 109.068063 
L 288.304216 127.797302 
L 290.289628 177.128425 
L 291.282334 180.531915 
L 292.27504 225.557742 
L 293.267746 212.103009 
L 294.260452 191.389554 
L 295.253158 216.467822 
L 297.23857 254.102863 
L 298.231276 290.553887 
L 299.223981 260.025919 
L 300.216687 321.434883 
L 301.209393 299.657693 
L 302.202099 312.643248 
L 303.194805 306.983594 
L 304.187511 270.453719 
L 305.180217 318.639318 
L 306.172923 319.858888 
L 307.165629 314.016562 
L 308.158335 387.793845 
L 309.151041 311.13538 
L 310.143747 346.348247 
L 312.129159 337.274927 
L 313.121864 352.169663 
L 314.11457 340.582231 
L 315.107276 349.085655 
L 316.099982 346.461866 
L 317.092688 362.268114 
L 318.085394 351.306568 
L 319.0781 346.616448 
L 320.070806 354.247339 
L 321.063512 355.521224 
L 322.056218 357.71247 
L 324.04163 360.647443 
L 325.034336 367.856008 
L 326.027041 359.813977 
L 327.019747 361.548223 
L 328.012453 360.774204 
L 329.005159 362.713958 
L 329.997865 372.866467 
L 330.990571 365.799712 
L 331.983277 365.811656 
L 332.975983 369.111842 
L 333.968689 377.032494 
L 334.961395 373.281193 
L 335.954101 366.983439 
L 336.946807 369.337709 
L 337.939513 373.274513 
L 339.924924 385.505845 
L 340.91763 375.014334 
L 341.910336 371.145925 
L 342.903042 372.540954 
L 343.895748 378.65228 
L 344.888454 375.606743 
L 345.88116 374.724463 
L 346.873866 382.980821 
L 348.859278 375.809104 
L 349.851984 375.743534 
L 350.84469 378.505457 
L 351.837395 377.569874 
L 352.830101 383.569361 
L 353.822807 383.259709 
L 354.815513 392.146162 
L 355.808219 391.939301 
L 356.800925 384.884947 
L 357.793631 392.740892 
L 358.786337 395.058244 
L 359.779043 393.036105 
L 360.771749 396.063958 
L 361.764455 385.574903 
L 362.757161 395.882974 
L 363.749867 387.079172 
L 364.742572 388.985229 
L 365.735278 394.009153 
L 366.727984 389.751851 
L 367.72069 396.815437 
L 368.713396 392.515435 
L 369.706102 390.234824 
L 370.698808 392.573648 
L 371.691514 400.841618 
L 372.68422 394.469141 
L 373.676926 392.508191 
L 374.669632 397.222687 
L 375.662338 400.064956 
L 376.655044 388.878763 
L 377.64775 396.49769 
L 378.640455 395.619298 
L 379.633161 394.586878 
L 380.625867 402.344111 
L 381.618573 397.848381 
L 382.611279 396.719273 
L 383.603985 396.536593 
L 384.596691 397.262347 
L 385.589397 401.593152 
L 386.582103 401.568223 
L 387.574809 397.969575 
L 388.567515 401.469255 
L 389.560221 400.983486 
L 391.545632 405.212964 
L 392.538338 412.701385 
L 393.531044 409.986309 
L 394.52375 405.066085 
L 395.516456 398.958533 
L 396.509162 409.243446 
L 397.501868 404.297933 
L 398.494574 408.288235 
L 399.48728 402.341724 
L 400.479986 412.728003 
L 401.472692 416.229404 
L 402.465398 401.398402 
L 403.458104 400.312608 
L 404.450809 407.015147 
L 405.443515 402.686076 
L 406.436221 420.36158 
L 407.428927 421.579952 
L 408.421633 407.395436 
L 409.414339 412.992567 
L 410.407045 412.515241 
L 411.399751 403.773994 
L 412.392457 415.220059 
L 413.385163 418.721482 
L 414.377869 413.913572 
L 415.370575 412.752562 
L 416.363281 416.182481 
L 417.355986 414.217752 
L 418.348692 418.646937 
L 419.341398 411.493004 
L 420.334104 408.940035 
L 421.32681 414.73025 
L 422.319516 409.52607 
L 423.312222 426.830665 
L 424.304928 421.722211 
L 425.297634 413.226444 
L 426.29034 416.819381 
L 427.283046 416.310903 
L 428.275752 420.254308 
L 429.268458 417.339541 
L 430.261163 427.065526 
L 431.253869 431.382498 
L 432.246575 429.822627 
L 433.239281 422.689701 
L 434.231987 423.031282 
L 435.224693 418.669319 
L 436.217399 417.359015 
L 437.210105 433.183023 
L 438.202811 411.933546 
L 439.195517 424.757114 
L 440.188223 415.979188 
L 441.180929 433.104542 
L 442.173635 438.75955 
L 443.166341 411.534366 
L 444.159046 429.279134 
L 445.151752 436.185547 
L 446.144458 421.889401 
L 447.137164 420.394204 
L 448.12987 414.833504 
L 449.122576 417.736104 
L 450.115282 418.082571 
L 451.107988 428.739636 
L 452.100694 434.869995 
L 453.0934 421.553038 
L 454.086106 439.168278 
L 455.078812 435.493249 
L 456.071518 420.595919 
L 457.064223 423.900707 
L 458.056929 421.55129 
L 459.049635 424.431833 
L 460.042341 425.455787 
L 461.035047 426.071215 
L 462.027753 425.746517 
L 463.020459 427.675729 
L 464.013165 425.087949 
L 465.005871 437.074963 
L 465.998577 435.427075 
L 466.991283 418.359148 
L 467.983989 423.790211 
L 468.976695 430.634564 
L 469.9694 416.300798 
L 470.962106 430.799368 
L 471.954812 428.774142 
L 472.947518 424.077831 
L 473.940224 429.68608 
L 474.93293 425.866564 
L 475.925636 436.05068 
L 476.918342 427.060464 
L 477.911048 433.900621 
L 478.903754 429.704304 
L 479.89646 421.706739 
L 481.881872 439.46583 
L 482.874577 425.667882 
L 483.867283 423.085184 
L 485.852695 432.0035 
L 486.845401 441.786541 
L 487.838107 429.302466 
L 488.830813 420.596683 
L 489.823519 435.383092 
L 490.816225 428.247687 
L 491.808931 431.190286 
L 492.801637 427.754729 
L 493.794343 431.78827 
L 494.787049 426.062378 
L 495.779754 435.348042 
L 496.77246 421.574619 
L 497.765166 421.98136 
L 498.757872 430.600317 
L 499.750578 431.175982 
L 500.743284 448.305324 
L 501.73599 430.759509 
L 502.728696 430.167463 
L 503.721402 449.035847 
L 504.714108 429.47905 
L 505.706814 435.668354 
L 506.69952 438.231399 
L 507.692226 426.165683 
L 508.684932 444.991565 
L 509.677637 435.218685 
L 510.670343 441.512985 
L 511.663049 425.009526 
L 512.655755 433.668552 
L 513.648461 440.814191 
L 514.641167 451.141913 
L 515.633873 440.234213 
L 516.626579 443.702887 
L 517.619285 446.369748 
L 518.611991 444.409683 
L 519.604697 439.067092 
L 520.597403 453.038466 
L 521.590109 442.372335 
L 522.582814 453.944562 
L 523.57552 432.108027 
L 524.568226 439.730428 
L 525.560932 439.953484 
L 526.553638 448.208349 
L 527.546344 434.563375 
L 528.53905 447.746413 
L 529.531756 450.28443 
L 530.524462 440.80672 
L 531.517168 460.123421 
L 532.509874 451.623056 
L 533.50258 449.002592 
L 534.495286 442.034321 
L 535.487991 425.169686 
L 536.480697 479.456602 
L 537.473403 440.974445 
L 538.466109 439.618564 
L 539.458815 446.223048 
L 540.451521 440.93635 
L 541.444227 490.013787 
L 542.436933 452.408932 
L 543.429639 437.043615 
L 544.422345 448.51121 
L 545.415051 433.247859 
L 546.407757 440.116432 
L 547.400463 450.800335 
L 548.393168 448.395042 
L 549.385874 479.076592 
L 550.37858 445.253167 
L 551.371286 443.800766 
L 552.363992 456.177598 
L 553.356698 436.018131 
L 554.349404 448.118931 
L 555.34211 448.840176 
L 556.334816 447.315144 
L 557.327522 451.995895 
L 559.312934 438.151144 
L 560.30564 430.591605 
L 561.298345 471.720512 
L 562.291051 453.833279 
L 563.283757 443.203063 
L 564.276463 441.969123 
L 565.269169 450.255807 
L 566.261875 450.831544 
L 567.254581 452.624257 
L 568.247287 448.580848 
L 569.239993 456.692783 
L 570.232699 442.897638 
L 571.225405 448.142297 
L 572.218111 445.470533 
L 573.210817 442.141984 
L 574.203523 450.509283 
L 575.196228 432.359182 
L 576.188934 470.589606 
L 577.18164 453.20029 
L 578.174346 439.566858 
L 579.167052 450.04799 
L 580.159758 445.302378 
L 581.152464 461.265632 
L 582.14517 453.331692 
L 583.137876 454.862524 
L 584.130582 469.576861 
L 585.123288 451.847629 
L 586.115994 470.875969 
L 587.1087 446.398098 
L 588.101405 444.383525 
L 590.086817 458.170998 
L 591.079523 449.285972 
L 592.072229 459.829782 
L 593.064935 458.072301 
L 594.057641 466.171489 
L 595.050347 465.324296 
L 596.043053 460.559034 
L 597.035759 439.977463 
L 598.028465 453.328882 
L 599.021171 469.593054 
L 601.006582 454.953167 
L 601.999288 462.067825 
L 602.991994 451.144451 
L 603.9847 451.198247 
L 604.977406 448.06611 
L 605.970112 464.503243 
L 606.962818 448.292409 
L 608.94823 467.386392 
L 609.940936 454.935037 
L 610.933642 439.434951 
L 611.926348 446.566625 
L 612.919054 444.376519 
L 614.904465 462.894547 
L 615.897171 463.506416 
L 616.889877 456.503291 
L 617.882583 457.075759 
L 618.875289 453.438673 
L 619.867995 443.711203 
L 620.860701 454.77637 
L 621.853407 459.048263 
L 622.846113 456.503327 
L 623.838819 464.700826 
L 624.831525 452.066915 
L 625.824231 452.113546 
L 626.816936 454.18519 
L 627.809642 462.096485 
L 628.802348 444.473035 
L 629.795054 450.832244 
L 630.78776 464.517481 
L 631.780466 456.87362 
L 632.773172 463.766681 
L 633.765878 455.956793 
L 634.758584 462.034074 
L 635.75129 458.845373 
L 636.743996 456.535108 
L 637.736702 449.088823 
L 638.729408 464.269725 
L 639.722114 460.467094 
L 640.714819 464.621309 
L 641.707525 464.076931 
L 642.700231 459.145588 
L 643.692937 465.556247 
L 644.685643 459.964983 
L 645.678349 462.091883 
L 646.671055 468.157314 
L 647.663761 461.709201 
L 648.656467 465.393623 
L 649.649173 463.812491 
L 650.641879 461.966504 
L 651.634585 462.013319 
L 652.627291 462.390125 
L 653.619996 456.842126 
L 654.612702 456.902974 
L 655.605408 456.52668 
L 656.598114 464.837259 
L 657.59082 460.378415 
L 658.583526 458.623817 
L 659.576232 460.394009 
L 660.568938 462.954799 
L 661.561644 463.778622 
L 662.55435 466.076865 
L 663.547056 462.711965 
L 664.539762 460.387739 
L 665.532468 462.554716 
L 666.525173 466.271536 
L 667.517879 460.845675 
L 668.510585 457.856112 
L 669.503291 467.183447 
L 670.495997 462.647813 
L 672.481409 464.692477 
L 673.474115 463.65434 
L 674.466821 463.835734 
L 675.459527 462.261221 
L 676.452233 465.317712 
L 677.444939 465.229838 
L 678.437645 464.819 
L 679.43035 463.100931 
L 680.423056 464.954578 
L 682.408468 466.350365 
L 683.401174 466.05493 
L 684.39388 461.858894 
L 685.386586 465.2277 
L 686.379292 465.892224 
L 687.371998 465.274262 
L 688.364704 463.297818 
L 689.35741 466.457346 
L 690.350116 466.539943 
L 692.335527 466.316058 
L 693.328233 468.339287 
L 694.320939 465.742368 
L 695.313645 466.895259 
L 696.306351 466.322287 
L 697.299057 467.411245 
L 698.291763 465.516122 
L 699.284469 465.232596 
L 700.277175 466.8189 
L 701.269881 464.870532 
L 704.247999 468.714282 
L 705.240705 467.82151 
L 706.23341 467.57624 
L 707.226116 468.505858 
L 709.211528 468.460331 
L 710.204234 470.067843 
L 711.19694 467.881178 
L 712.189646 467.043053 
L 713.182352 466.658125 
L 714.175058 468.904356 
L 715.167764 469.709343 
L 716.16047 467.881212 
L 717.153176 468.521996 
L 718.145882 470.914311 
L 719.138587 467.882742 
L 720.131293 468.308703 
L 721.123999 468.522002 
L 722.116705 467.917713 
L 723.109411 468.705237 
L 724.102117 470.473886 
L 725.094823 467.810747 
L 726.087529 469.308386 
L 727.080235 469.937898 
L 728.072941 470.201129 
L 729.065647 469.064861 
L 731.051059 471.194563 
L 732.043764 469.212954 
L 733.03647 469.907823 
L 734.029176 470.936967 
L 735.021882 470.59604 
L 736.014588 469.969632 
L 737.007294 472.472744 
L 738 472.371314 
L 738.992706 471.106728 
L 739.985412 471.35328 
L 740.978118 471.448477 
L 741.970824 470.193904 
L 742.96353 470.807573 
L 743.956236 470.485185 
L 744.948941 471.612396 
L 745.941647 470.938612 
L 746.934353 472.264762 
L 747.927059 472.036536 
L 748.919765 470.383078 
L 749.912471 472.159447 
L 750.905177 471.735924 
L 751.897883 471.943028 
L 752.890589 472.352123 
L 753.883295 471.751968 
L 754.876001 471.544868 
L 755.868707 473.270467 
L 756.861413 472.212499 
L 757.854118 470.932606 
L 758.846824 470.39939 
L 759.83953 472.294433 
L 760.832236 473.361252 
L 761.824942 473.033683 
L 762.817648 471.916962 
L 763.810354 473.874661 
L 764.80306 474.307455 
L 766.788472 471.69654 
L 767.781178 474.468178 
L 768.773884 474.327664 
L 769.76659 473.379195 
L 770.759295 473.75168 
L 771.752001 473.348568 
L 772.744707 473.375961 
L 773.737413 472.612059 
L 774.730119 472.535311 
L 775.722825 474.321073 
L 776.715531 474.782325 
L 777.708237 474.428565 
L 779.693649 473.852785 
L 780.686355 475.223814 
L 781.679061 473.747119 
L 782.671767 474.914597 
L 783.664473 475.628929 
L 784.657178 474.414556 
L 785.649884 473.379473 
L 786.64259 475.317729 
L 787.635296 474.168104 
L 788.628002 474.330781 
L 789.620708 474.806564 
L 790.613414 474.75518 
L 791.60612 474.267107 
L 792.598826 474.914713 
L 793.591532 473.292977 
L 794.584238 474.631826 
L 795.576944 474.297142 
L 796.56965 474.329575 
L 797.562355 475.471424 
L 798.555061 474.773214 
L 799.547767 475.778995 
L 801.533179 474.745113 
L 802.525885 475.554615 
L 803.518591 475.113279 
L 804.511297 474.885797 
L 805.504003 476.942681 
L 806.496709 475.031958 
L 807.489415 475.377654 
L 808.482121 477.060996 
L 809.474827 476.125429 
L 810.467532 476.646679 
L 811.460238 477.680422 
L 812.452944 475.714859 
L 813.44565 477.013824 
L 814.438356 475.856708 
L 815.431062 475.698953 
L 816.423768 477.895816 
L 817.416474 475.276078 
L 818.40918 477.465111 
L 819.401886 476.569828 
L 820.394592 476.873551 
L 821.387298 476.001577 
L 822.380004 477.326669 
L 823.372709 477.255297 
L 824.365415 478.233977 
L 825.358121 478.292897 
L 827.343533 477.266205 
L 828.336239 477.021569 
L 829.328945 478.697984 
L 830.321651 477.645523 
L 831.314357 478.117932 
L 832.307063 477.214649 
L 833.299769 477.699006 
L 834.292475 479.841875 
L 835.285181 476.572425 
L 836.277886 478.304468 
L 837.270592 478.742576 
L 838.263298 477.942047 
L 839.256004 478.336658 
L 840.24871 477.433422 
L 841.241416 478.336651 
L 842.234122 479.049105 
L 843.226828 477.783198 
L 844.219534 478.123888 
L 845.21224 479.451998 
L 846.204946 479.405678 
L 847.197652 478.505904 
L 848.190358 480.146418 
L 849.183064 478.313493 
L 851.168475 478.713522 
L 852.161181 478.894846 
L 854.146593 478.990959 
L 855.139299 479.569541 
L 856.132005 479.24372 
L 857.124711 479.782513 
L 858.117417 480.872432 
L 859.110123 480.237566 
L 860.102829 480.972162 
L 862.088241 478.754761 
L 863.080946 478.998705 
L 864.073652 479.055542 
L 865.066358 479.620867 
L 866.059064 479.606052 
L 867.05177 481.181752 
L 868.044476 480.990391 
L 869.037182 480.304172 
L 870.029888 478.915773 
L 871.022594 480.529585 
L 872.0153 479.997432 
L 873.008006 479.737576 
L 874.993418 481.127849 
L 875.986123 481.021415 
L 876.978829 480.217514 
L 877.971535 480.183214 
L 878.964241 480.920509 
L 879.956947 480.649446 
L 880.949653 481.55379 
L 881.942359 481.153989 
L 882.935065 479.862526 
L 883.927771 480.476477 
L 884.920477 482.336948 
L 885.913183 480.832257 
L 886.905889 481.814792 
L 887.898595 481.232674 
L 888.8913 481.040138 
L 889.884006 480.961499 
L 890.876712 481.170445 
L 891.869418 480.27969 
L 892.862124 481.870255 
L 893.85483 481.548626 
L 894.847536 481.512029 
L 895.840242 479.155601 
L 896.832948 483.032223 
L 897.825654 481.690407 
L 898.81836 483.726916 
L 899.811066 481.647753 
L 900.803772 483.690945 
L 901.796477 481.421716 
L 902.789183 483.925755 
L 903.781889 482.145945 
L 904.774595 482.096512 
L 905.767301 481.120526 
L 906.760007 482.617768 
L 907.752713 481.27205 
L 908.745419 482.4984 
L 909.738125 481.325678 
L 910.730831 482.12637 
L 911.723537 481.86564 
L 912.716243 483.200708 
L 913.708949 481.27233 
L 914.701655 481.480112 
L 915.69436 481.516967 
L 918.672478 483.279556 
L 919.665184 483.203817 
L 920.65789 482.022086 
L 921.650596 482.032576 
L 922.643302 483.161921 
L 923.636008 482.279085 
L 924.628714 482.045707 
L 925.62142 483.336451 
L 926.614126 483.885012 
L 927.606832 482.878401 
L 928.599537 482.901292 
L 929.592243 484.04579 
L 930.584949 483.008535 
L 931.577655 482.461507 
L 932.570361 486.156888 
L 933.563067 484.365714 
L 934.555773 483.453848 
L 935.548479 483.329226 
L 936.541185 483.580558 
L 938.526597 482.943039 
L 939.519303 483.895665 
L 940.512009 482.717749 
L 941.504714 483.988337 
L 942.49742 482.959308 
L 943.490126 483.157525 
L 944.482832 485.247358 
L 945.475538 484.211042 
L 946.468244 483.349635 
L 947.46095 483.368697 
L 948.453656 484.23575 
L 949.446362 483.011677 
L 952.42448 484.539497 
L 953.417186 483.291961 
L 954.409891 485.324053 
L 955.402597 483.69576 
L 956.395303 483.19641 
L 957.388009 485.105008 
L 958.380715 485.205262 
L 959.373421 484.408222 
L 960.366127 485.026326 
L 961.358833 483.667816 
L 962.351539 485.693718 
L 963.344245 484.963961 
L 964.336951 485.504733 
L 965.329657 484.886709 
L 966.322363 484.651748 
L 967.315068 487.313278 
L 968.307774 485.418425 
L 969.30048 486.608076 
L 970.293186 484.746792 
L 971.285892 484.628378 
L 972.278598 486.158526 
L 973.271304 485.477632 
L 974.26401 483.757557 
L 975.256716 485.096473 
L 976.249422 484.773595 
L 977.242128 485.085454 
L 978.234834 485.614144 
L 979.22754 485.732706 
L 980.220246 486.399034 
L 981.212951 484.859407 
L 982.205657 484.002376 
L 983.198363 486.270832 
L 984.191069 485.592181 
L 985.183775 485.353528 
L 986.176481 486.691027 
L 987.169187 485.490094 
L 988.161893 485.917431 
L 989.154599 485.428621 
L 990.147305 486.485838 
L 991.140011 485.368637 
L 992.132717 486.345291 
L 993.125423 486.832756 
L 994.118128 485.471263 
L 996.10354 486.802164 
L 997.096246 487.68561 
L 998.088952 486.147398 
L 999.081658 487.215328 
L 1000.074364 486.192424 
L 1001.06707 486.24213 
L 1002.059776 485.931774 
L 1003.052482 485.495653 
L 1004.045188 486.824453 
L 1005.037894 485.225096 
L 1006.0306 486.20144 
L 1007.023305 486.056452 
L 1009.008717 486.68708 
L 1010.001423 486.30164 
L 1010.994129 487.692434 
L 1011.986835 486.760389 
L 1012.979541 486.794538 
L 1013.972247 487.085211 
L 1014.964953 486.393499 
L 1015.957659 487.775607 
L 1016.950365 488.011807 
L 1017.943071 487.606496 
L 1018.935777 486.50491 
L 1019.928482 486.445513 
L 1020.921188 487.732626 
L 1021.913894 487.447885 
L 1022.9066 486.79298 
L 1023.899306 487.339275 
L 1024.892012 487.356644 
L 1025.884718 487.517959 
L 1026.877424 485.999904 
L 1027.87013 486.80545 
L 1028.862836 486.5769 
L 1029.855542 487.032113 
L 1030.848248 487.145228 
L 1031.840954 486.669951 
L 1032.833659 488.432987 
L 1033.826365 487.772523 
L 1034.819071 486.926662 
L 1035.811777 487.99436 
L 1036.804483 487.434835 
L 1037.797189 487.761569 
L 1038.789895 486.909787 
L 1039.782601 487.33025 
L 1040.775307 487.989275 
L 1042.760719 487.880624 
L 1043.753425 486.29299 
L 1045.738837 488.620943 
L 1046.731542 489.027646 
L 1048.716954 486.173217 
L 1049.70966 488.212831 
L 1050.702366 488.637872 
L 1051.695072 487.059026 
L 1052.687778 488.075999 
L 1054.67319 487.377808 
L 1055.665896 488.826879 
L 1056.658602 486.610011 
L 1057.651308 487.854184 
L 1058.644014 489.941199 
L 1059.636719 487.360823 
L 1060.629425 488.660464 
L 1061.622131 488.633917 
L 1062.614837 487.593428 
L 1063.607543 488.323699 
L 1064.600249 487.07674 
L 1065.592955 486.353537 
L 1066.585661 486.008679 
L 1067.578367 488.875804 
L 1068.571073 488.308209 
L 1069.563779 487.969377 
L 1070.556485 488.136901 
L 1071.549191 488.520072 
L 1072.541896 488.780389 
L 1073.534602 488.733338 
L 1074.527308 487.331911 
L 1075.520014 488.125098 
L 1076.51272 488.142021 
L 1079.490838 488.570729 
L 1080.483544 489.253132 
L 1081.47625 487.529893 
L 1082.468956 487.840117 
L 1083.461662 488.780559 
L 1085.447073 488.642441 
L 1086.439779 487.140303 
L 1087.432485 488.576103 
L 1088.425191 488.000191 
L 1089.417897 489.952534 
L 1090.410603 488.870656 
L 1091.403309 487.258116 
L 1093.388721 488.97439 
L 1094.381427 489.311785 
L 1095.374133 489.78335 
L 1096.366839 488.247956 
L 1097.359545 488.752231 
L 1098.35225 488.644886 
L 1099.344956 489.23426 
L 1100.337662 488.965212 
L 1101.330368 488.000139 
L 1102.323074 488.359182 
L 1103.31578 489.721305 
L 1104.308486 488.651244 
L 1105.301192 490.001025 
L 1106.293898 488.783659 
L 1107.286604 489.316851 
L 1108.27931 488.900308 
L 1109.272016 488.664735 
L 1110.264722 488.94797 
L 1111.257428 488.232853 
L 1112.250133 488.905086 
L 1113.242839 488.89304 
L 1114.235545 490.030781 
L 1115.228251 489.213915 
L 1117.213663 489.715608 
L 1118.206369 489.357641 
L 1119.199075 488.47359 
L 1120.191781 490.177613 
L 1121.184487 488.324297 
L 1122.177193 490.355096 
L 1123.169899 489.136204 
L 1124.162605 490.428493 
L 1125.15531 490.64293 
L 1126.148016 489.022432 
L 1127.140722 490.403774 
L 1128.133428 489.325388 
L 1129.126134 491.253872 
L 1130.11884 488.717205 
L 1131.111546 489.099508 
L 1132.104252 489.313873 
L 1133.096958 488.499793 
L 1134.089664 490.421145 
L 1135.08237 491.263909 
L 1136.075076 489.486884 
L 1137.067782 489.555754 
L 1138.060487 491.020677 
L 1139.053193 490.160212 
L 1140.045899 489.113064 
L 1141.038605 489.66741 
L 1142.031311 490.617812 
L 1143.024017 488.753289 
L 1144.016723 489.64534 
L 1145.009429 488.740722 
L 1146.002135 489.375279 
L 1146.994841 490.20421 
L 1147.987547 490.703328 
L 1148.980253 490.203018 
L 1149.972959 491.836391 
L 1150.965664 488.764869 
L 1151.95837 490.521953 
L 1152.951076 490.175986 
L 1153.943782 488.779753 
L 1154.936488 489.285984 
L 1155.929194 490.619759 
L 1156.9219 490.332331 
L 1157.914606 487.541297 
L 1158.907312 489.480189 
L 1159.900018 489.259846 
L 1160.892724 490.054563 
L 1161.88543 490.14791 
L 1162.878136 490.710567 
L 1163.870841 490.638376 
L 1164.863547 490.20993 
L 1165.856253 490.214546 
L 1166.848959 490.553495 
L 1167.841665 490.707273 
L 1168.834371 490.524515 
L 1169.827077 490.774366 
L 1170.819783 490.281293 
L 1171.812489 490.921363 
L 1172.805195 490.624255 
L 1173.797901 490.608225 
L 1174.790607 490.423229 
L 1175.783313 489.912317 
L 1176.776019 489.920832 
L 1177.768724 490.414855 
L 1178.76143 491.441951 
L 1179.754136 490.39451 
L 1180.746842 490.329504 
L 1181.739548 490.555646 
L 1182.732254 489.465217 
L 1183.72496 490.670445 
L 1184.717666 490.524101 
L 1185.710372 490.022348 
L 1186.703078 490.093003 
L 1187.695784 489.253372 
L 1189.681196 491.388027 
L 1190.673901 489.343034 
L 1191.666607 488.79535 
L 1192.659313 492.044791 
L 1193.652019 491.161075 
L 1194.644725 489.160862 
L 1195.637431 490.02859 
L 1196.630137 489.790469 
L 1197.622843 488.553491 
L 1198.615549 489.731537 
L 1199.608255 489.781365 
L 1200.600961 490.623757 
L 1201.593667 490.155988 
L 1202.586373 490.284202 
L 1203.579078 490.164817 
L 1206.557196 490.835681 
L 1207.549902 489.918066 
L 1208.542608 489.513808 
L 1209.535314 490.757689 
L 1210.52802 489.325958 
L 1211.520726 490.631305 
L 1212.513432 491.300516 
L 1213.506138 489.167514 
L 1214.498844 489.518403 
L 1215.49155 491.129841 
L 1216.484255 490.504917 
L 1217.476961 489.368486 
L 1218.469667 489.998702 
L 1219.462373 490.268613 
L 1220.455079 490.14808 
L 1221.447785 490.861537 
L 1222.440491 489.727719 
L 1223.433197 491.999908 
L 1224.425903 489.493771 
L 1225.418609 491.281615 
L 1226.411315 489.800003 
L 1227.404021 489.366127 
L 1228.396727 490.829173 
L 1229.389432 491.262363 
L 1230.382138 489.932859 
L 1231.374844 490.679204 
L 1232.36755 490.680827 
L 1233.360256 491.616959 
L 1234.352962 491.091402 
L 1235.345668 492.48 
L 1236.338374 489.550819 
L 1237.33108 491.224084 
L 1238.323786 490.332224 
L 1239.316492 489.911172 
L 1240.309198 491.222926 
L 1241.301904 490.667396 
L 1242.29461 489.587573 
L 1243.287315 490.157441 
L 1244.280021 489.684613 
L 1245.272727 489.920014 
L 1245.272727 489.920014 
" clip-path="url(#p7a48863231)" style="fill: none; stroke: #1f77b4; stroke-width: 1.5; stroke-linecap: square"/>
   </g>
   <g id="patch_3">
    <path d="M 180 512.64 
L 180 69.12 
" style="fill: none; stroke: #000000; stroke-width: 0.8; stroke-linejoin: miter; stroke-linecap: square"/>
   </g>
   <g id="patch_4">
    <path d="M 1296 512.64 
L 1296 69.12 
" style="fill: none; stroke: #000000; stroke-width: 0.8; stroke-linejoin: miter; stroke-linecap: square"/>
   </g>
   <g id="patch_5">
    <path d="M 180 512.64 
L 1296 512.64 
" style="fill: none; stroke: #000000; stroke-width: 0.8; stroke-linejoin: miter; stroke-linecap: square"/>
   </g>
   <g id="patch_6">
    <path d="M 180 69.12 
L 1296 69.12 
" style="fill: none; stroke: #000000; stroke-width: 0.8; stroke-linejoin: miter; stroke-linecap: square"/>
   </g>
   <g id="text_15">
    <!-- source10-receiver5 -->
    <g transform="translate(544.9 60.80125) scale(0.4 -0.4)">
     <defs>
      <path id="DejaVuSans-73" d="M 2834 3397 
L 2834 2853 
Q 2591 2978 2328 3040 
Q 2066 3103 1784 3103 
Q 1356 3103 1142 2972 
Q 928 2841 928 2578 
Q 928 2378 1081 2264 
Q 1234 2150 1697 2047 
L 1894 2003 
Q 2506 1872 2764 1633 
Q 3022 1394 3022 966 
Q 3022 478 2636 193 
Q 2250 -91 1575 -91 
Q 1294 -91 989 -36 
Q 684 19 347 128 
L 347 722 
Q 666 556 975 473 
Q 1284 391 1588 391 
Q 1994 391 2212 530 
Q 2431 669 2431 922 
Q 2431 1156 2273 1281 
Q 2116 1406 1581 1522 
L 1381 1569 
Q 847 1681 609 1914 
Q 372 2147 372 2553 
Q 372 3047 722 3315 
Q 1072 3584 1716 3584 
Q 2034 3584 2315 3537 
Q 2597 3491 2834 3397 
z
" transform="scale(0.015625)"/>
      <path id="DejaVuSans-6f" d="M 1959 3097 
Q 1497 3097 1228 2736 
Q 959 2375 959 1747 
Q 959 1119 1226 758 
Q 1494 397 1959 397 
Q 2419 397 2687 759 
Q 2956 1122 2956 1747 
Q 2956 2369 2687 2733 
Q 2419 3097 1959 3097 
z
M 1959 3584 
Q 2709 3584 3137 3096 
Q 3566 2609 3566 1747 
Q 3566 888 3137 398 
Q 2709 -91 1959 -91 
Q 1206 -91 779 398 
Q 353 888 353 1747 
Q 353 2609 779 3096 
Q 1206 3584 1959 3584 
z
" transform="scale(0.015625)"/>
      <path id="DejaVuSans-75" d="M 544 1381 
L 544 3500 
L 1119 3500 
L 1119 1403 
Q 1119 906 1312 657 
Q 1506 409 1894 409 
Q 2359 409 2629 706 
Q 2900 1003 2900 1516 
L 2900 3500 
L 3475 3500 
L 3475 0 
L 2900 0 
L 2900 538 
Q 2691 219 2414 64 
Q 2138 -91 1772 -91 
Q 1169 -91 856 284 
Q 544 659 544 1381 
z
M 1991 3584 
L 1991 3584 
z
" transform="scale(0.015625)"/>
      <path id="DejaVuSans-72" d="M 2631 2963 
Q 2534 3019 2420 3045 
Q 2306 3072 2169 3072 
Q 1681 3072 1420 2755 
Q 1159 2438 1159 1844 
L 1159 0 
L 581 0 
L 581 3500 
L 1159 3500 
L 1159 2956 
Q 1341 3275 1631 3429 
Q 1922 3584 2338 3584 
Q 2397 3584 2469 3576 
Q 2541 3569 2628 3553 
L 2631 2963 
z
" transform="scale(0.015625)"/>
      <path id="DejaVuSans-63" d="M 3122 3366 
L 3122 2828 
Q 2878 2963 2633 3030 
Q 2388 3097 2138 3097 
Q 1578 3097 1268 2742 
Q 959 2388 959 1747 
Q 959 1106 1268 751 
Q 1578 397 2138 397 
Q 2388 397 2633 464 
Q 2878 531 3122 666 
L 3122 134 
Q 2881 22 2623 -34 
Q 2366 -91 2075 -91 
Q 1284 -91 818 406 
Q 353 903 353 1747 
Q 353 2603 823 3093 
Q 1294 3584 2113 3584 
Q 2378 3584 2631 3529 
Q 2884 3475 3122 3366 
z
" transform="scale(0.015625)"/>
      <path id="DejaVuSans-65" d="M 3597 1894 
L 3597 1613 
L 953 1613 
Q 991 1019 1311 708 
Q 1631 397 2203 397 
Q 2534 397 2845 478 
Q 3156 559 3463 722 
L 3463 178 
Q 3153 47 2828 -22 
Q 2503 -91 2169 -91 
Q 1331 -91 842 396 
Q 353 884 353 1716 
Q 353 2575 817 3079 
Q 1281 3584 2069 3584 
Q 2775 3584 3186 3129 
Q 3597 2675 3597 1894 
z
M 3022 2063 
Q 3016 2534 2758 2815 
Q 2500 3097 2075 3097 
Q 1594 3097 1305 2825 
Q 1016 2553 972 2059 
L 3022 2063 
z
" transform="scale(0.015625)"/>
      <path id="DejaVuSans-2d" d="M 313 2009 
L 1997 2009 
L 1997 1497 
L 313 1497 
L 313 2009 
z
" transform="scale(0.015625)"/>
      <path id="DejaVuSans-69" d="M 603 3500 
L 1178 3500 
L 1178 0 
L 603 0 
L 603 3500 
z
M 603 4863 
L 1178 4863 
L 1178 4134 
L 603 4134 
L 603 4863 
z
" transform="scale(0.015625)"/>
      <path id="DejaVuSans-76" d="M 191 3500 
L 800 3500 
L 1894 563 
L 2988 3500 
L 3597 3500 
L 2284 0 
L 1503 0 
L 191 3500 
z
" transform="scale(0.015625)"/>
     </defs>
     <use xlink:href="#DejaVuSans-73"/>
     <use xlink:href="#DejaVuSans-6f" x="52.099609"/>
     <use xlink:href="#DejaVuSans-75" x="113.28125"/>
     <use xlink:href="#DejaVuSans-72" x="176.660156"/>
     <use xlink:href="#DejaVuSans-63" x="215.523438"/>
     <use xlink:href="#DejaVuSans-65" x="270.503906"/>
     <use xlink:href="#DejaVuSans-31" x="332.027344"/>
     <use xlink:href="#DejaVuSans-30" x="395.650391"/>
     <use xlink:href="#DejaVuSans-2d" x="459.273438"/>
     <use xlink:href="#DejaVuSans-72" x="495.357422"/>
     <use xlink:href="#DejaVuSans-65" x="534.220703"/>
     <use xlink:href="#DejaVuSans-63" x="595.744141"/>
     <use xlink:href="#DejaVuSans-65" x="650.724609"/>
     <use xlink:href="#DejaVuSans-69" x="712.248047"/>
     <use xlink:href="#DejaVuSans-76" x="740.03125"/>
     <use xlink:href="#DejaVuSans-65" x="799.210938"/>
     <use xlink:href="#DejaVuSans-72" x="860.734375"/>
     <use xlink:href="#DejaVuSans-35" x="901.847656"/>
    </g>
   </g>
  </g>
 </g>
 <defs>
  <clipPath id="p7a48863231">
   <rect x="180" y="69.12" width="1116" height="443.52"/>
  </clipPath>
 </defs>
</svg>
