<?xml version="1.0" encoding="utf-8" standalone="no"?>
<!DOCTYPE svg PUBLIC "-//W3C//DTD SVG 1.1//EN"
  "http://www.w3.org/Graphics/SVG/1.1/DTD/svg11.dtd">
<svg xmlns:xlink="http://www.w3.org/1999/xlink" width="1440pt" height="576pt" viewBox="0 0 1440 576" xmlns="http://www.w3.org/2000/svg" version="1.1">
 <metadata>
  <rdf:RDF xmlns:dc="http://purl.org/dc/elements/1.1/" xmlns:cc="http://creativecommons.org/ns#" xmlns:rdf="http://www.w3.org/1999/02/22-rdf-syntax-ns#">
   <cc:Work>
    <dc:type rdf:resource="http://purl.org/dc/dcmitype/StillImage"/>
    <dc:date>2024-05-22T04:49:57.494532</dc:date>
    <dc:format>image/svg+xml</dc:format>
    <dc:creator>
     <cc:Agent>
      <dc:title>Matplotlib v3.8.3, https://matplotlib.org/</dc:title>
     </cc:Agent>
    </dc:creator>
   </cc:Work>
  </rdf:RDF>
 </metadata>
 <defs>
  <style type="text/css">*{stroke-linejoin: round; stroke-linecap: butt}</style>
 </defs>
 <g id="figure_1">
  <g id="patch_1">
   <path d="M 0 576 
L 1440 576 
L 1440 0 
L 0 0 
z
" style="fill: #ffffff"/>
  </g>
  <g id="axes_1">
   <g id="patch_2">
    <path d="M 180 512.64 
L 1296 512.64 
L 1296 69.12 
L 180 69.12 
z
" style="fill: #ffffff"/>
   </g>
   <g id="matplotlib.axis_1">
    <g id="xtick_1">
     <g id="line2d_1">
      <defs>
       <path id="md5194140d2" d="M 0 0 
L 0 3.5 
" style="stroke: #000000; stroke-width: 0.8"/>
      </defs>
      <g>
       <use xlink:href="#md5194140d2" x="229.734567" y="512.64" style="stroke: #000000; stroke-width: 0.8"/>
      </g>
     </g>
     <g id="text_1">
      <!-- 0 -->
      <g transform="translate(226.553317 527.238438) scale(0.1 -0.1)">
       <defs>
        <path id="DejaVuSans-30" d="M 2034 4250 
Q 1547 4250 1301 3770 
Q 1056 3291 1056 2328 
Q 1056 1369 1301 889 
Q 1547 409 2034 409 
Q 2525 409 2770 889 
Q 3016 1369 3016 2328 
Q 3016 3291 2770 3770 
Q 2525 4250 2034 4250 
z
M 2034 4750 
Q 2819 4750 3233 4129 
Q 3647 3509 3647 2328 
Q 3647 1150 3233 529 
Q 2819 -91 2034 -91 
Q 1250 -91 836 529 
Q 422 1150 422 2328 
Q 422 3509 836 4129 
Q 1250 4750 2034 4750 
z
" transform="scale(0.015625)"/>
       </defs>
       <use xlink:href="#DejaVuSans-30"/>
      </g>
     </g>
    </g>
    <g id="xtick_2">
     <g id="line2d_2">
      <g>
       <use xlink:href="#md5194140d2" x="433.04074" y="512.64" style="stroke: #000000; stroke-width: 0.8"/>
      </g>
     </g>
     <g id="text_2">
      <!-- 500 -->
      <g transform="translate(423.49699 527.238438) scale(0.1 -0.1)">
       <defs>
        <path id="DejaVuSans-35" d="M 691 4666 
L 3169 4666 
L 3169 4134 
L 1269 4134 
L 1269 2991 
Q 1406 3038 1543 3061 
Q 1681 3084 1819 3084 
Q 2600 3084 3056 2656 
Q 3513 2228 3513 1497 
Q 3513 744 3044 326 
Q 2575 -91 1722 -91 
Q 1428 -91 1123 -41 
Q 819 9 494 109 
L 494 744 
Q 775 591 1075 516 
Q 1375 441 1709 441 
Q 2250 441 2565 725 
Q 2881 1009 2881 1497 
Q 2881 1984 2565 2268 
Q 2250 2553 1709 2553 
Q 1456 2553 1204 2497 
Q 953 2441 691 2322 
L 691 4666 
z
" transform="scale(0.015625)"/>
       </defs>
       <use xlink:href="#DejaVuSans-35"/>
       <use xlink:href="#DejaVuSans-30" x="63.623047"/>
       <use xlink:href="#DejaVuSans-30" x="127.246094"/>
      </g>
     </g>
    </g>
    <g id="xtick_3">
     <g id="line2d_3">
      <g>
       <use xlink:href="#md5194140d2" x="636.346913" y="512.64" style="stroke: #000000; stroke-width: 0.8"/>
      </g>
     </g>
     <g id="text_3">
      <!-- 1000 -->
      <g transform="translate(623.621913 527.238438) scale(0.1 -0.1)">
       <defs>
        <path id="DejaVuSans-31" d="M 794 531 
L 1825 531 
L 1825 4091 
L 703 3866 
L 703 4441 
L 1819 4666 
L 2450 4666 
L 2450 531 
L 3481 531 
L 3481 0 
L 794 0 
L 794 531 
z
" transform="scale(0.015625)"/>
       </defs>
       <use xlink:href="#DejaVuSans-31"/>
       <use xlink:href="#DejaVuSans-30" x="63.623047"/>
       <use xlink:href="#DejaVuSans-30" x="127.246094"/>
       <use xlink:href="#DejaVuSans-30" x="190.869141"/>
      </g>
     </g>
    </g>
    <g id="xtick_4">
     <g id="line2d_4">
      <g>
       <use xlink:href="#md5194140d2" x="839.653087" y="512.64" style="stroke: #000000; stroke-width: 0.8"/>
      </g>
     </g>
     <g id="text_4">
      <!-- 1500 -->
      <g transform="translate(826.928087 527.238438) scale(0.1 -0.1)">
       <use xlink:href="#DejaVuSans-31"/>
       <use xlink:href="#DejaVuSans-35" x="63.623047"/>
       <use xlink:href="#DejaVuSans-30" x="127.246094"/>
       <use xlink:href="#DejaVuSans-30" x="190.869141"/>
      </g>
     </g>
    </g>
    <g id="xtick_5">
     <g id="line2d_5">
      <g>
       <use xlink:href="#md5194140d2" x="1042.95926" y="512.64" style="stroke: #000000; stroke-width: 0.8"/>
      </g>
     </g>
     <g id="text_5">
      <!-- 2000 -->
      <g transform="translate(1030.23426 527.238438) scale(0.1 -0.1)">
       <defs>
        <path id="DejaVuSans-32" d="M 1228 531 
L 3431 531 
L 3431 0 
L 469 0 
L 469 531 
Q 828 903 1448 1529 
Q 2069 2156 2228 2338 
Q 2531 2678 2651 2914 
Q 2772 3150 2772 3378 
Q 2772 3750 2511 3984 
Q 2250 4219 1831 4219 
Q 1534 4219 1204 4116 
Q 875 4013 500 3803 
L 500 4441 
Q 881 4594 1212 4672 
Q 1544 4750 1819 4750 
Q 2544 4750 2975 4387 
Q 3406 4025 3406 3419 
Q 3406 3131 3298 2873 
Q 3191 2616 2906 2266 
Q 2828 2175 2409 1742 
Q 1991 1309 1228 531 
z
" transform="scale(0.015625)"/>
       </defs>
       <use xlink:href="#DejaVuSans-32"/>
       <use xlink:href="#DejaVuSans-30" x="63.623047"/>
       <use xlink:href="#DejaVuSans-30" x="127.246094"/>
       <use xlink:href="#DejaVuSans-30" x="190.869141"/>
      </g>
     </g>
    </g>
    <g id="xtick_6">
     <g id="line2d_6">
      <g>
       <use xlink:href="#md5194140d2" x="1246.265433" y="512.64" style="stroke: #000000; stroke-width: 0.8"/>
      </g>
     </g>
     <g id="text_6">
      <!-- 2500 -->
      <g transform="translate(1233.540433 527.238438) scale(0.1 -0.1)">
       <use xlink:href="#DejaVuSans-32"/>
       <use xlink:href="#DejaVuSans-35" x="63.623047"/>
       <use xlink:href="#DejaVuSans-30" x="127.246094"/>
       <use xlink:href="#DejaVuSans-30" x="190.869141"/>
      </g>
     </g>
    </g>
   </g>
   <g id="matplotlib.axis_2">
    <g id="ytick_1">
     <g id="line2d_7">
      <defs>
       <path id="m0c69433049" d="M 0 0 
L -3.5 0 
" style="stroke: #000000; stroke-width: 0.8"/>
      </defs>
      <g>
       <use xlink:href="#m0c69433049" x="180" y="423.342739" style="stroke: #000000; stroke-width: 0.8"/>
      </g>
     </g>
     <g id="text_7">
      <!-- −2 -->
      <g transform="translate(158.257812 427.141958) scale(0.1 -0.1)">
       <defs>
        <path id="DejaVuSans-2212" d="M 678 2272 
L 4684 2272 
L 4684 1741 
L 678 1741 
L 678 2272 
z
" transform="scale(0.015625)"/>
       </defs>
       <use xlink:href="#DejaVuSans-2212"/>
       <use xlink:href="#DejaVuSans-32" x="83.789062"/>
      </g>
     </g>
    </g>
    <g id="ytick_2">
     <g id="line2d_8">
      <g>
       <use xlink:href="#m0c69433049" x="180" y="325.645447" style="stroke: #000000; stroke-width: 0.8"/>
      </g>
     </g>
     <g id="text_8">
      <!-- 0 -->
      <g transform="translate(166.6375 329.444666) scale(0.1 -0.1)">
       <use xlink:href="#DejaVuSans-30"/>
      </g>
     </g>
    </g>
    <g id="ytick_3">
     <g id="line2d_9">
      <g>
       <use xlink:href="#m0c69433049" x="180" y="227.948154" style="stroke: #000000; stroke-width: 0.8"/>
      </g>
     </g>
     <g id="text_9">
      <!-- 2 -->
      <g transform="translate(166.6375 231.747373) scale(0.1 -0.1)">
       <use xlink:href="#DejaVuSans-32"/>
      </g>
     </g>
    </g>
    <g id="ytick_4">
     <g id="line2d_10">
      <g>
       <use xlink:href="#m0c69433049" x="180" y="130.250862" style="stroke: #000000; stroke-width: 0.8"/>
      </g>
     </g>
     <g id="text_10">
      <!-- 4 -->
      <g transform="translate(166.6375 134.050081) scale(0.1 -0.1)">
       <defs>
        <path id="DejaVuSans-34" d="M 2419 4116 
L 825 1625 
L 2419 1625 
L 2419 4116 
z
M 2253 4666 
L 3047 4666 
L 3047 1625 
L 3713 1625 
L 3713 1100 
L 3047 1100 
L 3047 0 
L 2419 0 
L 2419 1100 
L 313 1100 
L 313 1709 
L 2253 4666 
z
" transform="scale(0.015625)"/>
       </defs>
       <use xlink:href="#DejaVuSans-34"/>
      </g>
     </g>
    </g>
   </g>
   <g id="line2d_11">
    <path d="M 230.727273 373.228464 
L 231.719979 372.867988 
L 232.712685 372.290812 
L 233.70539 372.080497 
L 234.698096 371.073847 
L 235.690802 370.487134 
L 236.683508 369.140743 
L 237.676214 368.12674 
L 239.661626 365.481538 
L 241.647038 362.350178 
L 242.639744 361.44155 
L 243.63245 360.372035 
L 244.625156 357.128783 
L 245.617862 360.041519 
L 246.610568 348.908176 
L 247.603273 346.390184 
L 248.595979 362.928667 
L 249.588685 285.592058 
L 250.581391 261.73781 
L 251.574097 214.354354 
L 252.566803 185.127231 
L 253.559509 182.786239 
L 255.544921 250.694093 
L 256.537627 193.087844 
L 257.530333 186.833546 
L 258.523039 176.972224 
L 259.515745 153.529078 
L 260.50845 162.154224 
L 261.501156 246.274395 
L 262.493862 204.731304 
L 263.486568 240.256382 
L 264.479274 164.449138 
L 265.47198 171.189833 
L 267.457392 194.564127 
L 268.450098 179.189478 
L 269.442804 136.961648 
L 270.43551 148.68158 
L 271.428216 188.346925 
L 272.420922 187.628372 
L 273.413627 164.930603 
L 274.406333 168.126638 
L 275.399039 177.500614 
L 276.391745 130.137808 
L 277.384451 117.975225 
L 278.377157 122.280421 
L 280.362569 147.98826 
L 281.355275 153.967054 
L 282.347981 148.62624 
L 283.340687 162.444217 
L 284.333393 121.332576 
L 285.326099 89.28 
L 286.318804 89.931318 
L 287.31151 140.21251 
L 288.304216 127.061396 
L 289.296922 104.947418 
L 290.289628 120.397643 
L 291.282334 124.405012 
L 292.27504 135.888434 
L 293.267746 165.200409 
L 294.260452 148.890491 
L 295.253158 156.656664 
L 296.245864 176.836532 
L 297.23857 167.44377 
L 298.231276 162.944597 
L 299.223981 179.841309 
L 301.209393 228.554805 
L 302.202099 198.643679 
L 303.194805 214.491733 
L 304.187511 291.90646 
L 305.180217 235.437569 
L 306.172923 259.009572 
L 307.165629 287.838851 
L 308.158335 268.163222 
L 309.151041 281.688425 
L 310.143747 328.974007 
L 311.136453 350.055388 
L 312.129159 332.068028 
L 313.121864 340.190606 
L 314.11457 443.739381 
L 315.107276 373.205455 
L 316.099982 368.173511 
L 317.092688 405.936118 
L 318.085394 373.013159 
L 319.0781 404.625089 
L 320.070806 373.281461 
L 321.063512 398.435703 
L 322.056218 376.438522 
L 323.048924 385.919997 
L 324.04163 392.518403 
L 325.034336 406.305943 
L 326.027041 392.195688 
L 327.019747 382.61161 
L 328.012453 407.969971 
L 329.005159 375.342232 
L 329.997865 384.737958 
L 330.990571 385.145546 
L 331.983277 405.189678 
L 332.975983 380.330565 
L 333.968689 405.076494 
L 334.961395 368.031551 
L 335.954101 398.196126 
L 336.946807 381.288983 
L 337.939513 398.988911 
L 338.932218 385.515054 
L 339.924924 419.407868 
L 340.91763 392.645602 
L 341.910336 440.475526 
L 342.903042 390.069645 
L 343.895748 396.83773 
L 344.888454 387.850594 
L 345.88116 400.752035 
L 346.873866 386.585705 
L 347.866572 398.067493 
L 348.859278 404.512405 
L 349.851984 420.392823 
L 350.84469 378.115848 
L 351.837395 419.748816 
L 352.830101 384.191479 
L 353.822807 379.920076 
L 354.815513 425.742141 
L 355.808219 376.211167 
L 356.800925 433.209725 
L 357.793631 399.237195 
L 358.786337 398.646859 
L 359.779043 408.05615 
L 360.771749 400.6278 
L 361.764455 414.363876 
L 362.757161 401.579027 
L 363.749867 410.71266 
L 364.742572 414.510605 
L 365.735278 401.945163 
L 366.727984 403.953933 
L 367.72069 429.543536 
L 368.713396 400.970064 
L 369.706102 424.338692 
L 370.698808 406.412565 
L 371.691514 421.723055 
L 372.68422 398.863593 
L 373.676926 420.016377 
L 374.669632 402.133561 
L 375.662338 413.818348 
L 376.655044 406.438721 
L 377.64775 425.897439 
L 378.640455 420.590379 
L 379.633161 410.801566 
L 380.625867 416.068702 
L 381.618573 415.362099 
L 382.611279 415.358001 
L 383.603985 410.863503 
L 384.596691 425.102856 
L 385.589397 411.159874 
L 386.582103 423.305754 
L 387.574809 416.56984 
L 388.567515 419.572808 
L 389.560221 420.588763 
L 390.552927 448.168185 
L 391.545632 418.118624 
L 392.538338 416.081657 
L 393.531044 411.3384 
L 394.52375 433.432423 
L 395.516456 415.235043 
L 396.509162 425.015536 
L 397.501868 414.367825 
L 398.494574 420.60672 
L 399.48728 407.993912 
L 400.479986 430.274174 
L 401.472692 432.866512 
L 402.465398 424.321486 
L 403.458104 412.453057 
L 404.450809 407.340435 
L 405.443515 415.065633 
L 406.436221 428.325909 
L 407.428927 413.059308 
L 408.421633 421.723336 
L 409.414339 434.167893 
L 410.407045 419.997657 
L 411.399751 437.482724 
L 412.392457 425.095267 
L 413.385163 419.887286 
L 414.377869 427.028748 
L 415.370575 421.36019 
L 416.363281 428.627894 
L 418.348692 423.176832 
L 419.341398 454.280437 
L 420.334104 438.015565 
L 421.32681 441.35678 
L 422.319516 438.197969 
L 423.312222 423.778277 
L 424.304928 424.449418 
L 425.297634 429.282944 
L 426.29034 428.688884 
L 427.283046 422.457511 
L 428.275752 422.450892 
L 429.268458 440.719785 
L 430.261163 414.834355 
L 431.253869 429.013753 
L 432.246575 428.181477 
L 433.239281 435.491559 
L 434.231987 427.432826 
L 435.224693 440.642822 
L 436.217399 411.847846 
L 437.210105 429.77466 
L 438.202811 423.661049 
L 439.195517 436.147483 
L 440.188223 424.297066 
L 441.180929 426.52798 
L 442.173635 443.181361 
L 443.166341 435.211137 
L 444.159046 434.292996 
L 445.151752 426.963727 
L 447.137164 437.69587 
L 448.12987 426.675645 
L 449.122576 431.057022 
L 450.115282 444.812898 
L 451.107988 433.869008 
L 452.100694 433.401528 
L 453.0934 437.255715 
L 454.086106 426.33015 
L 455.078812 442.630559 
L 456.071518 420.865694 
L 457.064223 433.458655 
L 458.056929 442.606374 
L 459.049635 434.367344 
L 460.042341 448.128088 
L 461.035047 470.515224 
L 462.027753 456.184694 
L 463.020459 438.904321 
L 464.013165 460.551287 
L 465.005871 431.535532 
L 465.998577 427.376312 
L 466.991283 432.485779 
L 467.983989 446.189015 
L 468.976695 438.663616 
L 469.9694 441.521293 
L 470.962106 436.175761 
L 471.954812 436.333752 
L 472.947518 448.896399 
L 473.940224 436.623739 
L 474.93293 444.970475 
L 475.925636 454.638359 
L 476.918342 457.227227 
L 477.911048 439.613921 
L 478.903754 434.866288 
L 479.89646 444.512437 
L 480.889166 464.479829 
L 482.874577 427.612915 
L 483.867283 427.770844 
L 484.859989 454.003758 
L 485.852695 433.829756 
L 486.845401 449.631267 
L 487.838107 446.623565 
L 488.830813 436.319643 
L 489.823519 462.328694 
L 490.816225 451.729141 
L 491.808931 448.761151 
L 492.801637 437.932333 
L 493.794343 452.274116 
L 494.787049 433.166765 
L 495.779754 437.466047 
L 496.77246 447.513246 
L 497.765166 433.407385 
L 498.757872 424.55041 
L 499.750578 446.772584 
L 501.73599 418.53644 
L 502.728696 457.980281 
L 503.721402 456.125619 
L 504.714108 435.513833 
L 505.706814 473.930294 
L 506.69952 450.57886 
L 507.692226 468.446554 
L 508.684932 433.212651 
L 511.663049 461.413824 
L 512.655755 441.180932 
L 513.648461 450.615679 
L 514.641167 455.399636 
L 515.633873 466.340235 
L 516.626579 437.868774 
L 517.619285 456.510626 
L 518.611991 453.0455 
L 519.604697 467.022727 
L 520.597403 439.283457 
L 521.590109 427.943531 
L 522.582814 436.250087 
L 523.57552 438.235828 
L 524.568226 452.235641 
L 526.553638 429.321676 
L 527.546344 441.118933 
L 528.53905 459.868064 
L 529.531756 460.053781 
L 530.524462 455.977569 
L 531.517168 443.931802 
L 532.509874 429.214934 
L 533.50258 469.776942 
L 534.495286 442.900135 
L 535.487991 437.874699 
L 536.480697 445.588198 
L 537.473403 438.032464 
L 538.466109 443.751523 
L 539.458815 455.484058 
L 540.451521 462.423181 
L 541.444227 430.874937 
L 542.436933 467.586703 
L 543.429639 445.56562 
L 544.422345 463.701603 
L 545.415051 441.369541 
L 546.407757 439.412121 
L 547.400463 446.882008 
L 548.393168 452.900545 
L 549.385874 475.569487 
L 551.371286 424.789401 
L 552.363992 438.80442 
L 553.356698 438.504192 
L 554.349404 436.412341 
L 555.34211 450.291868 
L 556.334816 451.677428 
L 557.327522 450.573096 
L 558.320228 445.093383 
L 559.312934 448.338107 
L 560.30564 454.244538 
L 561.298345 458.927243 
L 562.291051 448.370591 
L 563.283757 433.964233 
L 564.276463 452.623624 
L 565.269169 452.514757 
L 566.261875 434.220994 
L 567.254581 462.439216 
L 568.247287 447.638104 
L 569.239993 472.215551 
L 570.232699 449.225986 
L 571.225405 453.967884 
L 572.218111 460.004611 
L 573.210817 459.081603 
L 574.203523 446.092847 
L 576.188934 453.430117 
L 577.18164 440.06331 
L 578.174346 452.958397 
L 579.167052 472.186716 
L 580.159758 440.403115 
L 581.152464 448.853293 
L 582.14517 453.406568 
L 583.137876 456.600854 
L 584.130582 462.96256 
L 585.123288 452.853879 
L 586.115994 423.533798 
L 587.1087 448.870663 
L 588.101405 451.911521 
L 589.094111 474.648906 
L 590.086817 456.776048 
L 591.079523 485.428979 
L 592.072229 429.477773 
L 593.064935 465.067995 
L 594.057641 465.334196 
L 595.050347 450.230723 
L 596.043053 449.692069 
L 597.035759 440.441131 
L 599.021171 490.104095 
L 600.013877 450.6817 
L 601.006582 450.169014 
L 601.999288 450.540859 
L 602.991994 471.477937 
L 603.9847 457.670492 
L 604.977406 457.396699 
L 605.970112 466.546084 
L 606.962818 488.455366 
L 607.955524 450.545233 
L 608.94823 478.524281 
L 609.940936 458.026623 
L 610.933642 451.623302 
L 612.919054 472.399198 
L 613.911759 466.842626 
L 614.904465 440.544259 
L 615.897171 465.895473 
L 616.889877 460.602009 
L 617.882583 469.201892 
L 618.875289 443.292191 
L 619.867995 470.621761 
L 620.860701 461.082944 
L 621.853407 454.59799 
L 622.846113 467.643208 
L 623.838819 469.186609 
L 624.831525 468.216135 
L 625.824231 454.828437 
L 626.816936 464.972007 
L 627.809642 477.843613 
L 628.802348 473.449228 
L 629.795054 454.893551 
L 630.78776 460.944411 
L 631.780466 447.996227 
L 632.773172 464.627654 
L 633.765878 477.353012 
L 634.758584 469.78693 
L 635.75129 458.204766 
L 636.743996 457.050437 
L 637.736702 470.895462 
L 638.729408 460.572012 
L 639.722114 474.400318 
L 640.714819 463.859023 
L 641.707525 469.525046 
L 642.700231 468.998375 
L 643.692937 451.407258 
L 644.685643 467.529172 
L 645.678349 463.229027 
L 646.671055 458.098914 
L 647.663761 459.017439 
L 648.656467 463.199422 
L 649.649173 464.61746 
L 650.641879 453.395315 
L 651.634585 460.996858 
L 652.627291 465.647195 
L 653.619996 460.418325 
L 654.612702 471.777615 
L 655.605408 459.539834 
L 656.598114 465.427414 
L 657.59082 469.236123 
L 658.583526 473.929929 
L 659.576232 468.198804 
L 660.568938 472.30922 
L 661.561644 461.811655 
L 662.55435 473.047375 
L 663.547056 467.116928 
L 664.539762 465.695971 
L 665.532468 470.010389 
L 666.525173 464.669554 
L 667.517879 465.728253 
L 668.510585 468.899201 
L 669.503291 460.10577 
L 670.495997 464.985544 
L 671.488703 470.798141 
L 672.481409 466.126827 
L 673.474115 470.603852 
L 674.466821 468.804904 
L 675.459527 469.251268 
L 676.452233 464.580404 
L 677.444939 470.118363 
L 678.437645 474.061698 
L 679.43035 469.369783 
L 680.423056 467.947295 
L 681.415762 469.657698 
L 682.408468 467.09777 
L 683.401174 468.041392 
L 684.39388 467.371378 
L 685.386586 466.992602 
L 686.379292 464.678745 
L 687.371998 471.133705 
L 688.364704 474.595877 
L 689.35741 470.749739 
L 690.350116 472.470411 
L 691.342822 468.336565 
L 692.335527 469.208944 
L 693.328233 466.354412 
L 694.320939 471.048291 
L 695.313645 469.290847 
L 696.306351 464.443408 
L 697.299057 469.996469 
L 698.291763 469.144674 
L 699.284469 471.253732 
L 700.277175 468.472576 
L 701.269881 471.585061 
L 702.262587 468.902992 
L 703.255293 470.681361 
L 704.247999 470.334603 
L 705.240705 470.296993 
L 706.23341 472.64897 
L 707.226116 471.136318 
L 708.218822 468.928685 
L 709.211528 468.504379 
L 710.204234 469.505989 
L 711.19694 469.360801 
L 712.189646 470.005301 
L 713.182352 470.889641 
L 714.175058 472.872654 
L 715.167764 470.158523 
L 716.16047 470.153007 
L 717.153176 470.618025 
L 718.145882 469.100083 
L 719.138587 471.30783 
L 720.131293 474.176795 
L 721.123999 471.962106 
L 722.116705 470.877605 
L 723.109411 469.593352 
L 724.102117 470.442325 
L 725.094823 471.511436 
L 726.087529 471.066328 
L 727.080235 470.414572 
L 728.072941 471.169014 
L 729.065647 472.219627 
L 730.058353 470.281554 
L 732.043764 473.604216 
L 733.03647 471.980951 
L 734.029176 470.792901 
L 735.021882 473.799186 
L 736.014588 473.615119 
L 737.007294 472.755514 
L 738 473.153716 
L 738.992706 471.035502 
L 739.985412 472.294402 
L 740.978118 471.23128 
L 741.970824 473.013264 
L 742.96353 473.688829 
L 743.956236 472.758074 
L 744.948941 473.315038 
L 745.941647 474.275365 
L 747.927059 472.810042 
L 748.919765 474.769473 
L 750.905177 473.836156 
L 751.897883 474.663229 
L 752.890589 472.219586 
L 753.883295 474.565578 
L 754.876001 473.60049 
L 755.868707 473.921505 
L 756.861413 473.011492 
L 757.854118 473.75584 
L 758.846824 472.272607 
L 759.83953 473.563152 
L 760.832236 473.494299 
L 761.824942 474.40479 
L 762.817648 474.24833 
L 763.810354 474.332859 
L 765.795766 473.410073 
L 766.788472 474.745609 
L 767.781178 472.979259 
L 768.773884 475.752363 
L 769.76659 476.090608 
L 770.759295 475.518826 
L 771.752001 476.08747 
L 772.744707 476.987335 
L 773.737413 474.047188 
L 774.730119 472.994483 
L 775.722825 476.362993 
L 776.715531 475.494532 
L 777.708237 474.202493 
L 778.700943 475.841867 
L 779.693649 474.546901 
L 780.686355 475.319849 
L 781.679061 476.61749 
L 782.671767 475.84866 
L 783.664473 475.27006 
L 784.657178 474.902481 
L 785.649884 476.94118 
L 786.64259 476.6952 
L 787.635296 477.122121 
L 788.628002 476.129934 
L 789.620708 477.31531 
L 790.613414 476.231891 
L 791.60612 475.834865 
L 792.598826 477.06284 
L 793.591532 477.055564 
L 794.584238 479.375712 
L 795.576944 476.54098 
L 796.56965 476.260118 
L 797.562355 476.821057 
L 798.555061 477.794566 
L 799.547767 476.41069 
L 800.540473 476.495924 
L 801.533179 478.715986 
L 802.525885 477.599332 
L 803.518591 478.327741 
L 804.511297 477.828931 
L 805.504003 477.043519 
L 806.496709 478.023361 
L 807.489415 476.17235 
L 808.482121 477.215893 
L 809.474827 476.369761 
L 810.467532 476.711868 
L 811.460238 477.626468 
L 813.44565 477.256863 
L 814.438356 477.759414 
L 815.431062 478.659356 
L 816.423768 478.524715 
L 817.416474 477.928044 
L 818.40918 478.706782 
L 819.401886 478.045736 
L 820.394592 479.118925 
L 821.387298 479.208686 
L 822.380004 477.954413 
L 823.372709 478.213645 
L 824.365415 478.989226 
L 825.358121 478.656055 
L 827.343533 479.296721 
L 828.336239 478.537468 
L 829.328945 478.85018 
L 830.321651 477.538703 
L 831.314357 480.122754 
L 832.307063 477.379858 
L 833.299769 477.296092 
L 834.292475 478.803534 
L 835.285181 479.422192 
L 836.277886 478.933236 
L 837.270592 478.984842 
L 838.263298 478.576348 
L 839.256004 480.724679 
L 840.24871 479.102275 
L 841.241416 481.008349 
L 842.234122 478.417094 
L 843.226828 478.528669 
L 844.219534 477.770393 
L 845.21224 480.326339 
L 846.204946 479.257094 
L 847.197652 480.199256 
L 848.190358 479.516193 
L 849.183064 479.239487 
L 850.175769 480.651747 
L 851.168475 480.545882 
L 852.161181 479.4663 
L 853.153887 481.477642 
L 854.146593 479.575768 
L 855.139299 479.036393 
L 856.132005 480.519673 
L 857.124711 481.282827 
L 858.117417 480.087321 
L 859.110123 480.76494 
L 860.102829 478.777206 
L 861.095535 481.845176 
L 862.088241 479.224138 
L 863.080946 481.456575 
L 864.073652 481.574485 
L 865.066358 482.783211 
L 866.059064 479.476418 
L 867.05177 480.762307 
L 868.044476 481.78227 
L 869.037182 480.736757 
L 870.029888 478.598036 
L 871.022594 480.653975 
L 872.0153 480.143174 
L 873.008006 480.290144 
L 874.000712 480.835866 
L 874.993418 479.629137 
L 875.986123 480.287208 
L 876.978829 481.772626 
L 877.971535 481.135869 
L 878.964241 482.337936 
L 879.956947 482.282423 
L 880.949653 482.08875 
L 881.942359 479.243133 
L 882.935065 480.521221 
L 883.927771 482.510043 
L 884.920477 480.253443 
L 885.913183 482.075245 
L 886.905889 479.592964 
L 887.898595 481.179168 
L 888.8913 479.876663 
L 889.884006 480.726406 
L 890.876712 483.413217 
L 891.869418 482.620887 
L 892.862124 481.253933 
L 893.85483 482.222321 
L 894.847536 481.723227 
L 895.840242 482.222812 
L 896.832948 480.978388 
L 897.825654 482.935485 
L 898.81836 480.572247 
L 899.811066 483.473647 
L 900.803772 482.093112 
L 901.796477 483.288153 
L 902.789183 483.217027 
L 904.774595 482.467009 
L 905.767301 483.24101 
L 906.760007 484.568912 
L 907.752713 482.749013 
L 908.745419 482.465768 
L 909.738125 482.63938 
L 910.730831 481.277625 
L 911.723537 482.032453 
L 913.708949 481.90465 
L 914.701655 480.248418 
L 915.69436 481.396259 
L 916.687066 483.408689 
L 917.679772 483.666193 
L 918.672478 483.681418 
L 919.665184 483.180363 
L 920.65789 484.440031 
L 921.650596 484.47331 
L 922.643302 482.341373 
L 923.636008 483.288632 
L 924.628714 482.050976 
L 925.62142 484.717943 
L 926.614126 484.111294 
L 927.606832 483.857487 
L 928.599537 483.907876 
L 929.592243 482.951099 
L 930.584949 484.119529 
L 931.577655 482.656099 
L 932.570361 483.639937 
L 933.563067 484.997813 
L 934.555773 483.141394 
L 935.548479 484.78271 
L 936.541185 483.502714 
L 937.533891 484.362013 
L 938.526597 484.856864 
L 939.519303 484.4734 
L 940.512009 482.810625 
L 941.504714 484.115096 
L 942.49742 482.578337 
L 943.490126 483.954655 
L 944.482832 484.35433 
L 945.475538 485.224557 
L 946.468244 484.236049 
L 947.46095 484.26467 
L 948.453656 484.081803 
L 949.446362 483.57375 
L 950.439068 483.958847 
L 951.431774 484.842105 
L 952.42448 484.921817 
L 953.417186 482.690147 
L 954.409891 483.417809 
L 955.402597 485.105752 
L 956.395303 485.46622 
L 957.388009 483.765485 
L 958.380715 484.927983 
L 959.373421 484.887716 
L 960.366127 485.089438 
L 961.358833 483.908203 
L 962.351539 484.330898 
L 963.344245 486.286879 
L 964.336951 484.519524 
L 965.329657 485.191937 
L 966.322363 485.447754 
L 967.315068 485.224539 
L 968.307774 484.381946 
L 969.30048 485.516519 
L 970.293186 486.446679 
L 971.285892 485.677159 
L 972.278598 484.211619 
L 973.271304 486.487001 
L 974.26401 486.239389 
L 975.256716 484.766526 
L 976.249422 485.565243 
L 977.242128 485.837753 
L 978.234834 484.676587 
L 979.22754 484.499068 
L 980.220246 485.241669 
L 981.212951 485.294716 
L 982.205657 486.465206 
L 983.198363 487.045228 
L 984.191069 486.984089 
L 985.183775 485.054711 
L 986.176481 483.751127 
L 987.169187 486.250547 
L 988.161893 485.492937 
L 989.154599 486.356042 
L 990.147305 486.29594 
L 991.140011 485.871258 
L 992.132717 487.553164 
L 993.125423 486.837438 
L 994.118128 486.371323 
L 996.10354 485.08826 
L 997.096246 485.09514 
L 998.088952 486.08615 
L 999.081658 486.0663 
L 1000.074364 485.103207 
L 1001.06707 486.628701 
L 1002.059776 484.961657 
L 1003.052482 484.363648 
L 1004.045188 486.954191 
L 1005.037894 486.140104 
L 1006.0306 487.648677 
L 1007.023305 485.344239 
L 1008.016011 486.403605 
L 1009.008717 487.217599 
L 1010.001423 486.674196 
L 1010.994129 485.647121 
L 1011.986835 486.776051 
L 1012.979541 487.134638 
L 1013.972247 485.114922 
L 1014.964953 486.272368 
L 1015.957659 487.729139 
L 1016.950365 485.930044 
L 1017.943071 487.3125 
L 1018.935777 486.251604 
L 1019.928482 487.816826 
L 1020.921188 488.416915 
L 1021.913894 486.456105 
L 1022.9066 487.015801 
L 1023.899306 486.939295 
L 1024.892012 485.273478 
L 1025.884718 486.267329 
L 1026.877424 485.889112 
L 1027.87013 486.406667 
L 1028.862836 487.075649 
L 1029.855542 487.884973 
L 1030.848248 488.20994 
L 1031.840954 487.526601 
L 1032.833659 488.3689 
L 1033.826365 486.579809 
L 1034.819071 485.326049 
L 1035.811777 487.463547 
L 1036.804483 488.306828 
L 1037.797189 486.153177 
L 1038.789895 487.922056 
L 1039.782601 487.276348 
L 1040.775307 488.667699 
L 1041.768013 489.570907 
L 1042.760719 488.640026 
L 1043.753425 487.082212 
L 1044.746131 486.817356 
L 1045.738837 486.269758 
L 1046.731542 486.005949 
L 1047.724248 486.843442 
L 1048.716954 489.553021 
L 1049.70966 489.242216 
L 1050.702366 488.481056 
L 1051.695072 488.647435 
L 1052.687778 486.68852 
L 1053.680484 486.630928 
L 1054.67319 488.98539 
L 1055.665896 489.049572 
L 1056.658602 486.520531 
L 1057.651308 487.506702 
L 1058.644014 485.39435 
L 1059.636719 486.744401 
L 1060.629425 488.539432 
L 1061.622131 488.324486 
L 1062.614837 486.849146 
L 1063.607543 487.264952 
L 1064.600249 487.806811 
L 1065.592955 487.989089 
L 1066.585661 486.601717 
L 1067.578367 487.675276 
L 1068.571073 488.195445 
L 1069.563779 489.749181 
L 1070.556485 487.52915 
L 1071.549191 488.351569 
L 1072.541896 489.443154 
L 1073.534602 487.556898 
L 1074.527308 486.261415 
L 1075.520014 488.075234 
L 1076.51272 488.501909 
L 1077.505426 487.921995 
L 1078.498132 489.7986 
L 1079.490838 486.561755 
L 1080.483544 487.341166 
L 1081.47625 488.379906 
L 1082.468956 489.238967 
L 1083.461662 489.498389 
L 1084.454368 488.762461 
L 1085.447073 488.394818 
L 1086.439779 487.52684 
L 1087.432485 486.200295 
L 1088.425191 488.32949 
L 1089.417897 487.636319 
L 1090.410603 488.476304 
L 1091.403309 489.110048 
L 1092.396015 487.662003 
L 1093.388721 490.779192 
L 1094.381427 487.380231 
L 1096.366839 488.949404 
L 1097.359545 488.819437 
L 1098.35225 489.67816 
L 1100.337662 487.309527 
L 1101.330368 488.359449 
L 1102.323074 489.105601 
L 1103.31578 487.190637 
L 1104.308486 489.310468 
L 1106.293898 490.32758 
L 1107.286604 488.355015 
L 1108.27931 488.514542 
L 1110.264722 489.27155 
L 1111.257428 488.615161 
L 1112.250133 490.757525 
L 1113.242839 488.496751 
L 1115.228251 487.257322 
L 1116.220957 488.583153 
L 1117.213663 489.455231 
L 1118.206369 491.067806 
L 1119.199075 491.065536 
L 1120.191781 487.465088 
L 1121.184487 485.755952 
L 1122.177193 490.214772 
L 1123.169899 487.941868 
L 1124.162605 487.83517 
L 1125.15531 486.969554 
L 1126.148016 487.088751 
L 1127.140722 489.089654 
L 1128.133428 488.095571 
L 1129.126134 489.603218 
L 1130.11884 488.88002 
L 1131.111546 487.728169 
L 1132.104252 487.037242 
L 1133.096958 487.537675 
L 1134.089664 490.238521 
L 1135.08237 490.659902 
L 1136.075076 490.643616 
L 1137.067782 488.608376 
L 1138.060487 488.33689 
L 1139.053193 489.249511 
L 1140.045899 489.008751 
L 1141.038605 488.021029 
L 1142.031311 489.059507 
L 1143.024017 488.682845 
L 1144.016723 489.193609 
L 1145.009429 488.168764 
L 1146.002135 490.876203 
L 1146.994841 489.001986 
L 1147.987547 487.614337 
L 1148.980253 489.066413 
L 1149.972959 489.734103 
L 1150.965664 489.471219 
L 1151.95837 488.228765 
L 1152.951076 490.158686 
L 1153.943782 488.296013 
L 1154.936488 491.20666 
L 1155.929194 489.48986 
L 1156.9219 490.261556 
L 1157.914606 488.837853 
L 1158.907312 489.285904 
L 1159.900018 487.618213 
L 1160.892724 488.862926 
L 1161.88543 488.535566 
L 1162.878136 490.318676 
L 1163.870841 489.294885 
L 1164.863547 489.54814 
L 1165.856253 488.833272 
L 1166.848959 489.603292 
L 1167.841665 488.673768 
L 1168.834371 488.507278 
L 1169.827077 487.710662 
L 1170.819783 489.321954 
L 1171.812489 488.98057 
L 1172.805195 490.526504 
L 1173.797901 488.873593 
L 1174.790607 489.668773 
L 1175.783313 487.05189 
L 1176.776019 490.133237 
L 1177.768724 490.397061 
L 1178.76143 490.123394 
L 1179.754136 489.164655 
L 1180.746842 492.48 
L 1181.739548 489.531428 
L 1182.732254 489.489162 
L 1183.72496 488.346612 
L 1184.717666 490.565747 
L 1185.710372 487.949312 
L 1186.703078 489.391804 
L 1187.695784 489.991698 
L 1188.68849 489.023927 
L 1189.681196 490.933601 
L 1191.666607 489.049207 
L 1192.659313 489.69137 
L 1193.652019 488.977534 
L 1194.644725 490.210364 
L 1195.637431 490.902916 
L 1196.630137 490.276156 
L 1197.622843 489.098274 
L 1198.615549 489.26863 
L 1199.608255 488.966879 
L 1200.600961 490.939976 
L 1201.593667 491.4671 
L 1202.586373 489.244973 
L 1203.579078 488.824264 
L 1204.571784 489.511331 
L 1205.56449 489.232424 
L 1206.557196 489.849204 
L 1207.549902 488.098973 
L 1208.542608 489.58406 
L 1209.535314 488.639443 
L 1211.520726 491.847564 
L 1212.513432 490.771743 
L 1213.506138 489.904101 
L 1214.498844 488.260474 
L 1215.49155 488.896451 
L 1216.484255 490.082923 
L 1217.476961 489.019029 
L 1219.462373 491.252535 
L 1220.455079 491.591374 
L 1221.447785 489.852348 
L 1222.440491 490.222695 
L 1223.433197 488.849485 
L 1224.425903 491.534493 
L 1225.418609 489.008229 
L 1226.411315 490.032682 
L 1227.404021 487.400152 
L 1228.396727 491.251845 
L 1229.389432 490.642859 
L 1230.382138 489.831532 
L 1231.374844 490.78065 
L 1232.36755 490.287762 
L 1233.360256 488.784816 
L 1234.352962 488.888644 
L 1235.345668 488.272933 
L 1236.338374 489.764258 
L 1237.33108 489.984186 
L 1238.323786 489.411876 
L 1239.316492 488.430653 
L 1240.309198 489.283256 
L 1241.301904 490.319622 
L 1242.29461 490.508156 
L 1243.287315 491.718201 
L 1245.272727 488.014165 
L 1245.272727 488.014165 
" clip-path="url(#pdef4930c94)" style="fill: none; stroke: #1f77b4; stroke-width: 1.5; stroke-linecap: square"/>
   </g>
   <g id="patch_3">
    <path d="M 180 512.64 
L 180 69.12 
" style="fill: none; stroke: #000000; stroke-width: 0.8; stroke-linejoin: miter; stroke-linecap: square"/>
   </g>
   <g id="patch_4">
    <path d="M 1296 512.64 
L 1296 69.12 
" style="fill: none; stroke: #000000; stroke-width: 0.8; stroke-linejoin: miter; stroke-linecap: square"/>
   </g>
   <g id="patch_5">
    <path d="M 180 512.64 
L 1296 512.64 
" style="fill: none; stroke: #000000; stroke-width: 0.8; stroke-linejoin: miter; stroke-linecap: square"/>
   </g>
   <g id="patch_6">
    <path d="M 180 69.12 
L 1296 69.12 
" style="fill: none; stroke: #000000; stroke-width: 0.8; stroke-linejoin: miter; stroke-linecap: square"/>
   </g>
   <g id="text_11">
    <!-- source10-receiver7 -->
    <g transform="translate(544.9 60.80125) scale(0.4 -0.4)">
     <defs>
      <path id="DejaVuSans-73" d="M 2834 3397 
L 2834 2853 
Q 2591 2978 2328 3040 
Q 2066 3103 1784 3103 
Q 1356 3103 1142 2972 
Q 928 2841 928 2578 
Q 928 2378 1081 2264 
Q 1234 2150 1697 2047 
L 1894 2003 
Q 2506 1872 2764 1633 
Q 3022 1394 3022 966 
Q 3022 478 2636 193 
Q 2250 -91 1575 -91 
Q 1294 -91 989 -36 
Q 684 19 347 128 
L 347 722 
Q 666 556 975 473 
Q 1284 391 1588 391 
Q 1994 391 2212 530 
Q 2431 669 2431 922 
Q 2431 1156 2273 1281 
Q 2116 1406 1581 1522 
L 1381 1569 
Q 847 1681 609 1914 
Q 372 2147 372 2553 
Q 372 3047 722 3315 
Q 1072 3584 1716 3584 
Q 2034 3584 2315 3537 
Q 2597 3491 2834 3397 
z
" transform="scale(0.015625)"/>
      <path id="DejaVuSans-6f" d="M 1959 3097 
Q 1497 3097 1228 2736 
Q 959 2375 959 1747 
Q 959 1119 1226 758 
Q 1494 397 1959 397 
Q 2419 397 2687 759 
Q 2956 1122 2956 1747 
Q 2956 2369 2687 2733 
Q 2419 3097 1959 3097 
z
M 1959 3584 
Q 2709 3584 3137 3096 
Q 3566 2609 3566 1747 
Q 3566 888 3137 398 
Q 2709 -91 1959 -91 
Q 1206 -91 779 398 
Q 353 888 353 1747 
Q 353 2609 779 3096 
Q 1206 3584 1959 3584 
z
" transform="scale(0.015625)"/>
      <path id="DejaVuSans-75" d="M 544 1381 
L 544 3500 
L 1119 3500 
L 1119 1403 
Q 1119 906 1312 657 
Q 1506 409 1894 409 
Q 2359 409 2629 706 
Q 2900 1003 2900 1516 
L 2900 3500 
L 3475 3500 
L 3475 0 
L 2900 0 
L 2900 538 
Q 2691 219 2414 64 
Q 2138 -91 1772 -91 
Q 1169 -91 856 284 
Q 544 659 544 1381 
z
M 1991 3584 
L 1991 3584 
z
" transform="scale(0.015625)"/>
      <path id="DejaVuSans-72" d="M 2631 2963 
Q 2534 3019 2420 3045 
Q 2306 3072 2169 3072 
Q 1681 3072 1420 2755 
Q 1159 2438 1159 1844 
L 1159 0 
L 581 0 
L 581 3500 
L 1159 3500 
L 1159 2956 
Q 1341 3275 1631 3429 
Q 1922 3584 2338 3584 
Q 2397 3584 2469 3576 
Q 2541 3569 2628 3553 
L 2631 2963 
z
" transform="scale(0.015625)"/>
      <path id="DejaVuSans-63" d="M 3122 3366 
L 3122 2828 
Q 2878 2963 2633 3030 
Q 2388 3097 2138 3097 
Q 1578 3097 1268 2742 
Q 959 2388 959 1747 
Q 959 1106 1268 751 
Q 1578 397 2138 397 
Q 2388 397 2633 464 
Q 2878 531 3122 666 
L 3122 134 
Q 2881 22 2623 -34 
Q 2366 -91 2075 -91 
Q 1284 -91 818 406 
Q 353 903 353 1747 
Q 353 2603 823 3093 
Q 1294 3584 2113 3584 
Q 2378 3584 2631 3529 
Q 2884 3475 3122 3366 
z
" transform="scale(0.015625)"/>
      <path id="DejaVuSans-65" d="M 3597 1894 
L 3597 1613 
L 953 1613 
Q 991 1019 1311 708 
Q 1631 397 2203 397 
Q 2534 397 2845 478 
Q 3156 559 3463 722 
L 3463 178 
Q 3153 47 2828 -22 
Q 2503 -91 2169 -91 
Q 1331 -91 842 396 
Q 353 884 353 1716 
Q 353 2575 817 3079 
Q 1281 3584 2069 3584 
Q 2775 3584 3186 3129 
Q 3597 2675 3597 1894 
z
M 3022 2063 
Q 3016 2534 2758 2815 
Q 2500 3097 2075 3097 
Q 1594 3097 1305 2825 
Q 1016 2553 972 2059 
L 3022 2063 
z
" transform="scale(0.015625)"/>
      <path id="DejaVuSans-2d" d="M 313 2009 
L 1997 2009 
L 1997 1497 
L 313 1497 
L 313 2009 
z
" transform="scale(0.015625)"/>
      <path id="DejaVuSans-69" d="M 603 3500 
L 1178 3500 
L 1178 0 
L 603 0 
L 603 3500 
z
M 603 4863 
L 1178 4863 
L 1178 4134 
L 603 4134 
L 603 4863 
z
" transform="scale(0.015625)"/>
      <path id="DejaVuSans-76" d="M 191 3500 
L 800 3500 
L 1894 563 
L 2988 3500 
L 3597 3500 
L 2284 0 
L 1503 0 
L 191 3500 
z
" transform="scale(0.015625)"/>
      <path id="DejaVuSans-37" d="M 525 4666 
L 3525 4666 
L 3525 4397 
L 1831 0 
L 1172 0 
L 2766 4134 
L 525 4134 
L 525 4666 
z
" transform="scale(0.015625)"/>
     </defs>
     <use xlink:href="#DejaVuSans-73"/>
     <use xlink:href="#DejaVuSans-6f" x="52.099609"/>
     <use xlink:href="#DejaVuSans-75" x="113.28125"/>
     <use xlink:href="#DejaVuSans-72" x="176.660156"/>
     <use xlink:href="#DejaVuSans-63" x="215.523438"/>
     <use xlink:href="#DejaVuSans-65" x="270.503906"/>
     <use xlink:href="#DejaVuSans-31" x="332.027344"/>
     <use xlink:href="#DejaVuSans-30" x="395.650391"/>
     <use xlink:href="#DejaVuSans-2d" x="459.273438"/>
     <use xlink:href="#DejaVuSans-72" x="495.357422"/>
     <use xlink:href="#DejaVuSans-65" x="534.220703"/>
     <use xlink:href="#DejaVuSans-63" x="595.744141"/>
     <use xlink:href="#DejaVuSans-65" x="650.724609"/>
     <use xlink:href="#DejaVuSans-69" x="712.248047"/>
     <use xlink:href="#DejaVuSans-76" x="740.03125"/>
     <use xlink:href="#DejaVuSans-65" x="799.210938"/>
     <use xlink:href="#DejaVuSans-72" x="860.734375"/>
     <use xlink:href="#DejaVuSans-37" x="901.847656"/>
    </g>
   </g>
  </g>
 </g>
 <defs>
  <clipPath id="pdef4930c94">
   <rect x="180" y="69.12" width="1116" height="443.52"/>
  </clipPath>
 </defs>
</svg>
