<?xml version="1.0" encoding="utf-8" standalone="no"?>
<!DOCTYPE svg PUBLIC "-//W3C//DTD SVG 1.1//EN"
  "http://www.w3.org/Graphics/SVG/1.1/DTD/svg11.dtd">
<svg xmlns:xlink="http://www.w3.org/1999/xlink" width="1440pt" height="576pt" viewBox="0 0 1440 576" xmlns="http://www.w3.org/2000/svg" version="1.1">
 <metadata>
  <rdf:RDF xmlns:dc="http://purl.org/dc/elements/1.1/" xmlns:cc="http://creativecommons.org/ns#" xmlns:rdf="http://www.w3.org/1999/02/22-rdf-syntax-ns#">
   <cc:Work>
    <dc:type rdf:resource="http://purl.org/dc/dcmitype/StillImage"/>
    <dc:date>2024-05-22T04:49:43.477672</dc:date>
    <dc:format>image/svg+xml</dc:format>
    <dc:creator>
     <cc:Agent>
      <dc:title>Matplotlib v3.8.3, https://matplotlib.org/</dc:title>
     </cc:Agent>
    </dc:creator>
   </cc:Work>
  </rdf:RDF>
 </metadata>
 <defs>
  <style type="text/css">*{stroke-linejoin: round; stroke-linecap: butt}</style>
 </defs>
 <g id="figure_1">
  <g id="patch_1">
   <path d="M 0 576 
L 1440 576 
L 1440 0 
L 0 0 
z
" style="fill: #ffffff"/>
  </g>
  <g id="axes_1">
   <g id="patch_2">
    <path d="M 180 512.64 
L 1296 512.64 
L 1296 69.12 
L 180 69.12 
z
" style="fill: #ffffff"/>
   </g>
   <g id="matplotlib.axis_1">
    <g id="xtick_1">
     <g id="line2d_1">
      <defs>
       <path id="m5066e72ab8" d="M 0 0 
L 0 3.5 
" style="stroke: #000000; stroke-width: 0.8"/>
      </defs>
      <g>
       <use xlink:href="#m5066e72ab8" x="229.734567" y="512.64" style="stroke: #000000; stroke-width: 0.8"/>
      </g>
     </g>
     <g id="text_1">
      <!-- 0 -->
      <g transform="translate(226.553317 527.238438) scale(0.1 -0.1)">
       <defs>
        <path id="DejaVuSans-30" d="M 2034 4250 
Q 1547 4250 1301 3770 
Q 1056 3291 1056 2328 
Q 1056 1369 1301 889 
Q 1547 409 2034 409 
Q 2525 409 2770 889 
Q 3016 1369 3016 2328 
Q 3016 3291 2770 3770 
Q 2525 4250 2034 4250 
z
M 2034 4750 
Q 2819 4750 3233 4129 
Q 3647 3509 3647 2328 
Q 3647 1150 3233 529 
Q 2819 -91 2034 -91 
Q 1250 -91 836 529 
Q 422 1150 422 2328 
Q 422 3509 836 4129 
Q 1250 4750 2034 4750 
z
" transform="scale(0.015625)"/>
       </defs>
       <use xlink:href="#DejaVuSans-30"/>
      </g>
     </g>
    </g>
    <g id="xtick_2">
     <g id="line2d_2">
      <g>
       <use xlink:href="#m5066e72ab8" x="433.04074" y="512.64" style="stroke: #000000; stroke-width: 0.8"/>
      </g>
     </g>
     <g id="text_2">
      <!-- 500 -->
      <g transform="translate(423.49699 527.238438) scale(0.1 -0.1)">
       <defs>
        <path id="DejaVuSans-35" d="M 691 4666 
L 3169 4666 
L 3169 4134 
L 1269 4134 
L 1269 2991 
Q 1406 3038 1543 3061 
Q 1681 3084 1819 3084 
Q 2600 3084 3056 2656 
Q 3513 2228 3513 1497 
Q 3513 744 3044 326 
Q 2575 -91 1722 -91 
Q 1428 -91 1123 -41 
Q 819 9 494 109 
L 494 744 
Q 775 591 1075 516 
Q 1375 441 1709 441 
Q 2250 441 2565 725 
Q 2881 1009 2881 1497 
Q 2881 1984 2565 2268 
Q 2250 2553 1709 2553 
Q 1456 2553 1204 2497 
Q 953 2441 691 2322 
L 691 4666 
z
" transform="scale(0.015625)"/>
       </defs>
       <use xlink:href="#DejaVuSans-35"/>
       <use xlink:href="#DejaVuSans-30" x="63.623047"/>
       <use xlink:href="#DejaVuSans-30" x="127.246094"/>
      </g>
     </g>
    </g>
    <g id="xtick_3">
     <g id="line2d_3">
      <g>
       <use xlink:href="#m5066e72ab8" x="636.346913" y="512.64" style="stroke: #000000; stroke-width: 0.8"/>
      </g>
     </g>
     <g id="text_3">
      <!-- 1000 -->
      <g transform="translate(623.621913 527.238438) scale(0.1 -0.1)">
       <defs>
        <path id="DejaVuSans-31" d="M 794 531 
L 1825 531 
L 1825 4091 
L 703 3866 
L 703 4441 
L 1819 4666 
L 2450 4666 
L 2450 531 
L 3481 531 
L 3481 0 
L 794 0 
L 794 531 
z
" transform="scale(0.015625)"/>
       </defs>
       <use xlink:href="#DejaVuSans-31"/>
       <use xlink:href="#DejaVuSans-30" x="63.623047"/>
       <use xlink:href="#DejaVuSans-30" x="127.246094"/>
       <use xlink:href="#DejaVuSans-30" x="190.869141"/>
      </g>
     </g>
    </g>
    <g id="xtick_4">
     <g id="line2d_4">
      <g>
       <use xlink:href="#m5066e72ab8" x="839.653087" y="512.64" style="stroke: #000000; stroke-width: 0.8"/>
      </g>
     </g>
     <g id="text_4">
      <!-- 1500 -->
      <g transform="translate(826.928087 527.238438) scale(0.1 -0.1)">
       <use xlink:href="#DejaVuSans-31"/>
       <use xlink:href="#DejaVuSans-35" x="63.623047"/>
       <use xlink:href="#DejaVuSans-30" x="127.246094"/>
       <use xlink:href="#DejaVuSans-30" x="190.869141"/>
      </g>
     </g>
    </g>
    <g id="xtick_5">
     <g id="line2d_5">
      <g>
       <use xlink:href="#m5066e72ab8" x="1042.95926" y="512.64" style="stroke: #000000; stroke-width: 0.8"/>
      </g>
     </g>
     <g id="text_5">
      <!-- 2000 -->
      <g transform="translate(1030.23426 527.238438) scale(0.1 -0.1)">
       <defs>
        <path id="DejaVuSans-32" d="M 1228 531 
L 3431 531 
L 3431 0 
L 469 0 
L 469 531 
Q 828 903 1448 1529 
Q 2069 2156 2228 2338 
Q 2531 2678 2651 2914 
Q 2772 3150 2772 3378 
Q 2772 3750 2511 3984 
Q 2250 4219 1831 4219 
Q 1534 4219 1204 4116 
Q 875 4013 500 3803 
L 500 4441 
Q 881 4594 1212 4672 
Q 1544 4750 1819 4750 
Q 2544 4750 2975 4387 
Q 3406 4025 3406 3419 
Q 3406 3131 3298 2873 
Q 3191 2616 2906 2266 
Q 2828 2175 2409 1742 
Q 1991 1309 1228 531 
z
" transform="scale(0.015625)"/>
       </defs>
       <use xlink:href="#DejaVuSans-32"/>
       <use xlink:href="#DejaVuSans-30" x="63.623047"/>
       <use xlink:href="#DejaVuSans-30" x="127.246094"/>
       <use xlink:href="#DejaVuSans-30" x="190.869141"/>
      </g>
     </g>
    </g>
    <g id="xtick_6">
     <g id="line2d_6">
      <g>
       <use xlink:href="#m5066e72ab8" x="1246.265433" y="512.64" style="stroke: #000000; stroke-width: 0.8"/>
      </g>
     </g>
     <g id="text_6">
      <!-- 2500 -->
      <g transform="translate(1233.540433 527.238438) scale(0.1 -0.1)">
       <use xlink:href="#DejaVuSans-32"/>
       <use xlink:href="#DejaVuSans-35" x="63.623047"/>
       <use xlink:href="#DejaVuSans-30" x="127.246094"/>
       <use xlink:href="#DejaVuSans-30" x="190.869141"/>
      </g>
     </g>
    </g>
   </g>
   <g id="matplotlib.axis_2">
    <g id="ytick_1">
     <g id="line2d_7">
      <defs>
       <path id="m5aa5216f68" d="M 0 0 
L -3.5 0 
" style="stroke: #000000; stroke-width: 0.8"/>
      </defs>
      <g>
       <use xlink:href="#m5aa5216f68" x="180" y="472.907504" style="stroke: #000000; stroke-width: 0.8"/>
      </g>
     </g>
     <g id="text_7">
      <!-- −6 -->
      <g transform="translate(158.257812 476.706723) scale(0.1 -0.1)">
       <defs>
        <path id="DejaVuSans-2212" d="M 678 2272 
L 4684 2272 
L 4684 1741 
L 678 1741 
L 678 2272 
z
" transform="scale(0.015625)"/>
        <path id="DejaVuSans-36" d="M 2113 2584 
Q 1688 2584 1439 2293 
Q 1191 2003 1191 1497 
Q 1191 994 1439 701 
Q 1688 409 2113 409 
Q 2538 409 2786 701 
Q 3034 994 3034 1497 
Q 3034 2003 2786 2293 
Q 2538 2584 2113 2584 
z
M 3366 4563 
L 3366 3988 
Q 3128 4100 2886 4159 
Q 2644 4219 2406 4219 
Q 1781 4219 1451 3797 
Q 1122 3375 1075 2522 
Q 1259 2794 1537 2939 
Q 1816 3084 2150 3084 
Q 2853 3084 3261 2657 
Q 3669 2231 3669 1497 
Q 3669 778 3244 343 
Q 2819 -91 2113 -91 
Q 1303 -91 875 529 
Q 447 1150 447 2328 
Q 447 3434 972 4092 
Q 1497 4750 2381 4750 
Q 2619 4750 2861 4703 
Q 3103 4656 3366 4563 
z
" transform="scale(0.015625)"/>
       </defs>
       <use xlink:href="#DejaVuSans-2212"/>
       <use xlink:href="#DejaVuSans-36" x="83.789062"/>
      </g>
     </g>
    </g>
    <g id="ytick_2">
     <g id="line2d_8">
      <g>
       <use xlink:href="#m5aa5216f68" x="180" y="382.915999" style="stroke: #000000; stroke-width: 0.8"/>
      </g>
     </g>
     <g id="text_8">
      <!-- −4 -->
      <g transform="translate(158.257812 386.715218) scale(0.1 -0.1)">
       <defs>
        <path id="DejaVuSans-34" d="M 2419 4116 
L 825 1625 
L 2419 1625 
L 2419 4116 
z
M 2253 4666 
L 3047 4666 
L 3047 1625 
L 3713 1625 
L 3713 1100 
L 3047 1100 
L 3047 0 
L 2419 0 
L 2419 1100 
L 313 1100 
L 313 1709 
L 2253 4666 
z
" transform="scale(0.015625)"/>
       </defs>
       <use xlink:href="#DejaVuSans-2212"/>
       <use xlink:href="#DejaVuSans-34" x="83.789062"/>
      </g>
     </g>
    </g>
    <g id="ytick_3">
     <g id="line2d_9">
      <g>
       <use xlink:href="#m5aa5216f68" x="180" y="292.924494" style="stroke: #000000; stroke-width: 0.8"/>
      </g>
     </g>
     <g id="text_9">
      <!-- −2 -->
      <g transform="translate(158.257812 296.723713) scale(0.1 -0.1)">
       <use xlink:href="#DejaVuSans-2212"/>
       <use xlink:href="#DejaVuSans-32" x="83.789062"/>
      </g>
     </g>
    </g>
    <g id="ytick_4">
     <g id="line2d_10">
      <g>
       <use xlink:href="#m5aa5216f68" x="180" y="202.932989" style="stroke: #000000; stroke-width: 0.8"/>
      </g>
     </g>
     <g id="text_10">
      <!-- 0 -->
      <g transform="translate(166.6375 206.732208) scale(0.1 -0.1)">
       <use xlink:href="#DejaVuSans-30"/>
      </g>
     </g>
    </g>
    <g id="ytick_5">
     <g id="line2d_11">
      <g>
       <use xlink:href="#m5aa5216f68" x="180" y="112.941484" style="stroke: #000000; stroke-width: 0.8"/>
      </g>
     </g>
     <g id="text_11">
      <!-- 2 -->
      <g transform="translate(166.6375 116.740702) scale(0.1 -0.1)">
       <use xlink:href="#DejaVuSans-32"/>
      </g>
     </g>
    </g>
   </g>
   <g id="line2d_12">
    <path d="M 230.727273 286.175313 
L 231.719979 285.431851 
L 232.712685 285.077354 
L 233.70539 284.855984 
L 234.698096 285.528662 
L 236.683508 283.674684 
L 237.676214 283.655741 
L 238.66892 283.48965 
L 239.661626 282.679561 
L 240.654332 281.133279 
L 241.647038 280.816301 
L 242.639744 280.105232 
L 243.63245 279.244521 
L 244.625156 277.896617 
L 245.617862 276.892803 
L 246.610568 272.16369 
L 247.603273 264.546519 
L 248.595979 263.734149 
L 249.588685 280.715977 
L 250.581391 327.682425 
L 251.574097 273.339363 
L 252.566803 234.17241 
L 253.559509 223.501276 
L 254.552215 222.270716 
L 255.544921 243.182758 
L 256.537627 245.259451 
L 257.530333 221.774408 
L 258.523039 219.542043 
L 259.515745 219.437174 
L 260.50845 218.917943 
L 261.501156 222.634223 
L 262.493862 235.106619 
L 263.486568 304.92067 
L 264.479274 268.739629 
L 265.47198 266.278239 
L 266.464686 202.563104 
L 267.457392 174.228364 
L 268.450098 169.348378 
L 269.442804 190.690958 
L 270.43551 275.448329 
L 271.428216 177.738233 
L 272.420922 162.173849 
L 273.413627 160.775284 
L 275.399039 107.179732 
L 276.391745 93.609972 
L 277.384451 89.28 
L 278.377157 92.701107 
L 279.369863 101.336602 
L 280.362569 108.592721 
L 281.355275 111.461603 
L 282.347981 113.855512 
L 283.340687 124.90123 
L 284.333393 141.984582 
L 285.326099 147.441261 
L 286.318804 136.153613 
L 287.31151 133.590138 
L 288.304216 142.95322 
L 289.296922 164.732645 
L 291.282334 213.691043 
L 292.27504 255.826142 
L 293.267746 219.982998 
L 294.260452 204.183341 
L 295.253158 209.66412 
L 296.245864 244.55531 
L 297.23857 224.316775 
L 298.231276 221.801982 
L 299.223981 230.451856 
L 300.216687 297.840467 
L 301.209393 262.473099 
L 302.202099 250.660464 
L 303.194805 283.502989 
L 304.187511 349.280406 
L 305.180217 287.818546 
L 306.172923 299.360065 
L 307.165629 312.242887 
L 308.158335 301.484912 
L 309.151041 305.655266 
L 310.143747 312.162459 
L 311.136453 311.052889 
L 312.129159 330.185374 
L 313.121864 283.591119 
L 314.11457 305.0514 
L 315.107276 291.827841 
L 316.099982 283.194934 
L 317.092688 326.378382 
L 318.085394 293.015276 
L 319.0781 305.164981 
L 320.070806 313.839981 
L 321.063512 330.086513 
L 322.056218 323.551943 
L 323.048924 303.137689 
L 324.04163 363.455431 
L 325.034336 309.370695 
L 326.027041 358.645531 
L 327.019747 314.180953 
L 328.012453 323.029562 
L 329.997865 332.024877 
L 330.990571 315.643362 
L 331.983277 302.55187 
L 332.975983 389.642648 
L 333.968689 492.48 
L 334.961395 315.365484 
L 335.954101 315.451165 
L 336.946807 348.971776 
L 337.939513 313.134968 
L 338.932218 317.031048 
L 339.924924 343.232774 
L 340.91763 313.619303 
L 341.910336 365.429345 
L 342.903042 363.320617 
L 343.895748 327.357602 
L 344.888454 316.526783 
L 345.88116 393.792448 
L 346.873866 346.305053 
L 347.866572 358.130602 
L 348.859278 356.065551 
L 349.851984 316.376184 
L 350.84469 328.72436 
L 351.837395 327.203468 
L 352.830101 342.168287 
L 354.815513 314.005031 
L 355.808219 327.897534 
L 356.800925 407.987353 
L 357.793631 315.215988 
L 358.786337 340.201872 
L 359.779043 329.882432 
L 360.771749 359.281045 
L 361.764455 318.899158 
L 362.757161 318.029454 
L 363.749867 328.390507 
L 364.742572 357.3599 
L 365.735278 390.381791 
L 366.727984 314.436504 
L 367.72069 314.039994 
L 368.713396 315.859767 
L 369.706102 320.812233 
L 370.698808 414.447061 
L 371.691514 371.265716 
L 372.68422 362.110443 
L 373.676926 365.005441 
L 374.669632 347.938081 
L 375.662338 349.093136 
L 376.655044 317.517789 
L 377.64775 337.317792 
L 378.640455 341.68684 
L 379.633161 354.049878 
L 380.625867 349.727423 
L 381.618573 416.107517 
L 382.611279 327.368329 
L 383.603985 364.001639 
L 384.596691 374.597026 
L 385.589397 332.486177 
L 386.582103 360.597401 
L 387.574809 336.928037 
L 388.567515 324.878442 
L 389.560221 336.924143 
L 390.552927 366.428495 
L 391.545632 327.425492 
L 392.538338 361.352279 
L 393.531044 328.679425 
L 394.52375 430.042097 
L 395.516456 340.002086 
L 396.509162 389.754327 
L 397.501868 409.210793 
L 398.494574 347.913304 
L 399.48728 367.884393 
L 400.479986 344.3729 
L 401.472692 357.960347 
L 402.465398 331.408937 
L 403.458104 353.393016 
L 404.450809 372.142483 
L 405.443515 368.08933 
L 406.436221 326.726832 
L 407.428927 361.686038 
L 408.421633 373.363127 
L 409.414339 336.725595 
L 410.407045 327.078528 
L 411.399751 352.405782 
L 412.392457 342.480705 
L 413.385163 379.651042 
L 414.377869 358.850427 
L 415.370575 333.95482 
L 416.363281 345.589725 
L 417.355986 373.361166 
L 418.348692 329.42605 
L 419.341398 377.458262 
L 420.334104 354.770421 
L 421.32681 342.670427 
L 422.319516 327.954843 
L 423.312222 350.296694 
L 424.304928 353.669776 
L 425.297634 335.450419 
L 426.29034 372.221597 
L 427.283046 344.296103 
L 428.275752 347.51513 
L 429.268458 365.520784 
L 430.261163 341.584843 
L 431.253869 356.916031 
L 432.246575 342.84036 
L 433.239281 353.360601 
L 434.231987 389.986166 
L 435.224693 386.151968 
L 436.217399 325.82465 
L 437.210105 402.501444 
L 438.202811 367.226113 
L 440.188223 396.009253 
L 441.180929 349.477994 
L 442.173635 363.169726 
L 443.166341 344.321465 
L 444.159046 344.135166 
L 445.151752 343.27577 
L 446.144458 399.499464 
L 447.137164 387.712072 
L 448.12987 354.449186 
L 449.122576 370.136146 
L 450.115282 399.389739 
L 451.107988 334.888037 
L 452.100694 336.560218 
L 453.0934 350.740785 
L 454.086106 360.041619 
L 455.078812 350.116545 
L 456.071518 357.626592 
L 457.064223 335.455796 
L 458.056929 366.778537 
L 459.049635 382.488772 
L 460.042341 357.684198 
L 461.035047 362.910489 
L 462.027753 350.291914 
L 463.020459 369.554513 
L 464.013165 359.179333 
L 465.005871 344.158262 
L 465.998577 363.817881 
L 466.991283 362.008343 
L 468.976695 366.09554 
L 469.9694 337.953055 
L 470.962106 369.486407 
L 471.954812 416.245518 
L 472.947518 366.685391 
L 473.940224 342.847109 
L 474.93293 353.554848 
L 475.925636 347.890589 
L 476.918342 352.634821 
L 477.911048 380.009426 
L 478.903754 360.665036 
L 479.89646 395.875476 
L 480.889166 423.232437 
L 481.881872 356.981051 
L 482.874577 362.614818 
L 483.867283 356.857293 
L 484.859989 341.389428 
L 485.852695 381.47415 
L 486.845401 332.822345 
L 487.838107 380.340488 
L 488.830813 348.005262 
L 489.823519 341.529561 
L 490.816225 382.595244 
L 491.808931 337.872813 
L 492.801637 371.386203 
L 493.794343 368.052295 
L 494.787049 357.801059 
L 495.779754 335.259779 
L 496.77246 322.115146 
L 497.765166 344.004793 
L 498.757872 355.107003 
L 499.750578 336.644869 
L 500.743284 325.822318 
L 501.73599 344.144874 
L 502.728696 337.584345 
L 503.721402 347.002808 
L 504.714108 361.15224 
L 505.706814 356.536825 
L 506.69952 369.810894 
L 507.692226 331.80264 
L 508.684932 428.585081 
L 509.677637 320.888451 
L 510.670343 358.788341 
L 511.663049 401.657219 
L 512.655755 364.905475 
L 513.648461 443.625324 
L 514.641167 351.888766 
L 515.633873 360.978415 
L 516.626579 364.710938 
L 517.619285 342.268042 
L 518.611991 322.872255 
L 519.604697 337.415788 
L 520.597403 370.305297 
L 521.590109 345.266356 
L 522.582814 338.095407 
L 524.568226 383.101158 
L 526.553638 309.272939 
L 527.546344 349.791682 
L 528.53905 407.901107 
L 529.531756 311.0438 
L 530.524462 317.696149 
L 531.517168 342.300168 
L 532.509874 338.151873 
L 533.50258 355.392666 
L 534.495286 344.716549 
L 535.487991 402.839114 
L 536.480697 348.857492 
L 537.473403 372.147547 
L 538.466109 360.825604 
L 539.458815 345.663576 
L 540.451521 378.252044 
L 541.444227 404.931909 
L 542.436933 382.814903 
L 543.429639 330.899024 
L 544.422345 386.192395 
L 545.415051 339.681575 
L 546.407757 352.351095 
L 547.400463 382.683108 
L 548.393168 362.748686 
L 549.385874 458.439424 
L 550.37858 362.912631 
L 551.371286 357.04747 
L 552.363992 329.92003 
L 553.356698 404.576402 
L 554.349404 339.821647 
L 555.34211 451.110522 
L 556.334816 331.345503 
L 557.327522 337.718321 
L 558.320228 342.802175 
L 559.312934 369.946216 
L 560.30564 362.09947 
L 561.298345 323.762028 
L 562.291051 379.617359 
L 563.283757 342.442668 
L 564.276463 366.372687 
L 565.269169 355.253232 
L 566.261875 326.946351 
L 567.254581 328.056463 
L 568.247287 397.183277 
L 569.239993 336.047482 
L 570.232699 356.864247 
L 571.225405 330.199914 
L 572.218111 329.230087 
L 573.210817 330.008781 
L 575.196228 374.814565 
L 576.188934 374.989933 
L 577.18164 357.559878 
L 578.174346 416.997218 
L 579.167052 350.368552 
L 580.159758 369.748748 
L 582.14517 389.777941 
L 583.137876 347.759507 
L 584.130582 336.818979 
L 585.123288 360.550652 
L 586.115994 399.173876 
L 587.1087 374.721247 
L 588.101405 382.155615 
L 589.094111 428.226102 
L 590.086817 344.937746 
L 591.079523 347.449985 
L 592.072229 331.059713 
L 593.064935 348.445041 
L 594.057641 389.114498 
L 596.043053 399.74209 
L 597.035759 359.910976 
L 598.028465 368.120224 
L 599.021171 410.384995 
L 600.013877 411.551649 
L 601.006582 366.842303 
L 601.999288 378.149901 
L 602.991994 362.584126 
L 603.9847 383.189442 
L 604.977406 388.83704 
L 605.970112 380.540428 
L 606.962818 419.957472 
L 607.955524 417.367591 
L 608.94823 412.03217 
L 609.940936 356.102915 
L 610.933642 389.855683 
L 611.926348 362.053315 
L 612.919054 384.422714 
L 613.911759 386.110102 
L 614.904465 368.834318 
L 615.897171 407.685019 
L 616.889877 373.013005 
L 618.875289 384.169773 
L 619.867995 375.989742 
L 620.860701 360.00519 
L 621.853407 409.545576 
L 622.846113 408.281015 
L 623.838819 377.012131 
L 624.831525 377.437949 
L 625.824231 378.97988 
L 626.816936 406.296491 
L 627.809642 398.640021 
L 628.802348 397.565136 
L 629.795054 376.07341 
L 630.78776 403.518716 
L 631.780466 387.451529 
L 632.773172 397.129839 
L 633.765878 398.906888 
L 634.758584 354.181572 
L 635.75129 460.754082 
L 636.743996 375.400359 
L 637.736702 406.644239 
L 638.729408 476.999402 
L 639.722114 377.16539 
L 640.714819 401.103614 
L 641.707525 377.300877 
L 642.700231 395.632542 
L 643.692937 449.256743 
L 644.685643 393.487443 
L 645.678349 376.527556 
L 646.671055 384.082627 
L 647.663761 413.143148 
L 648.656467 379.462721 
L 649.649173 457.87887 
L 650.641879 374.658796 
L 651.634585 399.443777 
L 652.627291 383.334132 
L 653.619996 378.763112 
L 654.612702 393.783392 
L 655.605408 380.572813 
L 656.598114 389.564969 
L 657.59082 388.610689 
L 659.576232 399.97453 
L 660.568938 398.868336 
L 661.561644 404.117519 
L 662.55435 393.862723 
L 663.547056 391.634313 
L 664.539762 441.826272 
L 665.532468 395.373504 
L 666.525173 396.853067 
L 667.517879 394.123641 
L 668.510585 393.514039 
L 669.503291 406.487635 
L 670.495997 406.658263 
L 671.488703 406.461059 
L 672.481409 428.48151 
L 673.474115 387.437147 
L 674.466821 392.226362 
L 675.459527 417.611439 
L 676.452233 391.981155 
L 677.444939 393.181509 
L 679.43035 388.486829 
L 680.423056 425.186758 
L 681.415762 400.896941 
L 682.408468 392.918298 
L 683.401174 395.435541 
L 684.39388 410.791346 
L 685.386586 412.146262 
L 686.379292 407.81862 
L 687.371998 400.545979 
L 688.364704 421.981712 
L 689.35741 417.580492 
L 690.350116 405.451812 
L 691.342822 401.021519 
L 692.335527 421.670809 
L 693.328233 408.656871 
L 694.320939 397.221474 
L 695.313645 413.587202 
L 696.306351 415.243378 
L 697.299057 402.022707 
L 698.291763 402.842985 
L 699.284469 401.850964 
L 700.277175 405.305438 
L 701.269881 397.488763 
L 702.262587 416.746218 
L 703.255293 414.681542 
L 704.247999 400.638499 
L 705.240705 408.246973 
L 706.23341 409.345169 
L 707.226116 405.661607 
L 708.218822 409.807535 
L 709.211528 401.544229 
L 710.204234 405.012898 
L 711.19694 418.37707 
L 712.189646 409.310905 
L 713.182352 396.351511 
L 714.175058 408.666868 
L 715.167764 399.947286 
L 716.16047 409.923162 
L 717.153176 407.706203 
L 718.145882 404.038793 
L 719.138587 408.726723 
L 720.131293 405.233211 
L 721.123999 405.066352 
L 722.116705 406.388478 
L 723.109411 405.590142 
L 724.102117 399.841708 
L 725.094823 413.53867 
L 726.087529 405.167349 
L 727.080235 406.881293 
L 728.072941 408.115935 
L 729.065647 400.927351 
L 730.058353 411.406109 
L 731.051059 404.58761 
L 732.043764 411.828133 
L 733.03647 408.975862 
L 734.029176 418.488814 
L 735.021882 406.199554 
L 736.014588 404.737887 
L 737.007294 404.563133 
L 738 408.757591 
L 738.992706 415.007517 
L 739.985412 414.676592 
L 740.978118 412.763832 
L 741.970824 406.112311 
L 742.96353 409.333543 
L 743.956236 400.862429 
L 744.948941 409.496656 
L 746.934353 414.62398 
L 747.927059 412.581054 
L 748.919765 400.381323 
L 749.912471 409.17019 
L 750.905177 412.460638 
L 751.897883 414.637052 
L 752.890589 407.828258 
L 753.883295 400.150216 
L 754.876001 411.975435 
L 755.868707 409.609904 
L 756.861413 405.844793 
L 757.854118 408.681885 
L 758.846824 407.528577 
L 759.83953 406.784309 
L 760.832236 408.505253 
L 761.824942 411.624122 
L 763.810354 421.029341 
L 764.80306 407.699617 
L 765.795766 411.907792 
L 766.788472 407.891931 
L 767.781178 415.991514 
L 768.773884 410.868073 
L 769.76659 413.006876 
L 770.759295 415.745151 
L 771.752001 409.644398 
L 772.744707 418.559652 
L 773.737413 405.87689 
L 774.730119 418.122821 
L 775.722825 406.950721 
L 776.715531 411.985402 
L 777.708237 414.184263 
L 778.700943 410.433863 
L 779.693649 414.992763 
L 780.686355 425.738128 
L 781.679061 410.086718 
L 782.671767 415.138456 
L 783.664473 413.285064 
L 784.657178 413.056317 
L 785.649884 413.182769 
L 786.64259 419.596028 
L 787.635296 414.371371 
L 788.628002 411.050564 
L 789.620708 414.588141 
L 790.613414 408.624105 
L 791.60612 411.590903 
L 792.598826 419.513928 
L 793.591532 410.390232 
L 794.584238 418.397719 
L 795.576944 416.354276 
L 796.56965 414.665056 
L 797.562355 414.324921 
L 798.555061 417.154464 
L 799.547767 416.48947 
L 800.540473 419.272934 
L 801.533179 413.036664 
L 802.525885 408.70425 
L 803.518591 410.284344 
L 804.511297 408.823044 
L 805.504003 413.255533 
L 806.496709 410.465581 
L 807.489415 410.407906 
L 808.482121 416.688665 
L 809.474827 407.222224 
L 810.467532 403.844872 
L 811.460238 414.231618 
L 812.452944 410.22079 
L 813.44565 414.70476 
L 814.438356 416.616203 
L 815.431062 411.83135 
L 817.416474 413.77804 
L 818.40918 415.623926 
L 819.401886 416.106557 
L 820.394592 414.25891 
L 821.387298 410.510317 
L 822.380004 410.923917 
L 823.372709 410.767287 
L 824.365415 423.914458 
L 825.358121 415.806144 
L 826.350827 430.018768 
L 827.343533 415.899514 
L 828.336239 416.004676 
L 829.328945 414.471506 
L 830.321651 409.421653 
L 831.314357 422.800343 
L 832.307063 416.207101 
L 833.299769 411.924704 
L 834.292475 414.105805 
L 835.285181 416.819648 
L 836.277886 411.394314 
L 837.270592 417.430612 
L 838.263298 412.944744 
L 839.256004 419.953609 
L 840.24871 411.769052 
L 841.241416 416.779998 
L 842.234122 416.155959 
L 843.226828 416.871396 
L 844.219534 415.999041 
L 845.21224 423.77912 
L 846.204946 418.29529 
L 847.197652 417.800568 
L 848.190358 411.493525 
L 849.183064 410.698467 
L 850.175769 411.537364 
L 851.168475 411.065552 
L 852.161181 423.167807 
L 853.153887 423.924021 
L 854.146593 409.828473 
L 855.139299 420.534999 
L 856.132005 413.215357 
L 857.124711 424.938938 
L 858.117417 425.13443 
L 859.110123 424.968067 
L 860.102829 412.425385 
L 861.095535 419.277832 
L 862.088241 411.865692 
L 863.080946 418.941847 
L 864.073652 418.953399 
L 865.066358 423.456368 
L 866.059064 419.491303 
L 867.05177 418.211634 
L 868.044476 413.015444 
L 869.037182 418.315494 
L 870.029888 421.962499 
L 871.022594 411.003126 
L 872.0153 408.577454 
L 873.008006 416.533993 
L 874.000712 420.89375 
L 874.993418 416.598351 
L 875.986123 420.284177 
L 877.971535 417.169015 
L 878.964241 416.503862 
L 879.956947 415.253588 
L 880.949653 411.860472 
L 881.942359 425.979749 
L 882.935065 413.146932 
L 883.927771 413.214579 
L 884.920477 413.858368 
L 885.913183 412.568391 
L 886.905889 427.254275 
L 887.898595 418.440052 
L 888.8913 417.711901 
L 889.884006 420.870169 
L 890.876712 417.862803 
L 891.869418 425.111014 
L 892.862124 410.569403 
L 893.85483 421.673759 
L 894.847536 420.53587 
L 895.840242 418.394795 
L 896.832948 424.298958 
L 897.825654 426.986287 
L 898.81836 421.685776 
L 899.811066 418.729126 
L 900.803772 411.714246 
L 901.796477 417.323393 
L 902.789183 421.105342 
L 903.781889 422.018544 
L 904.774595 417.862989 
L 905.767301 419.611529 
L 906.760007 420.947051 
L 907.752713 419.881794 
L 908.745419 415.497127 
L 909.738125 415.757944 
L 910.730831 425.488647 
L 911.723537 423.747102 
L 912.716243 420.872175 
L 913.708949 418.810896 
L 914.701655 424.926779 
L 915.69436 417.422632 
L 916.687066 421.000456 
L 917.679772 426.85771 
L 918.672478 415.20193 
L 919.665184 425.357576 
L 920.65789 414.882658 
L 921.650596 416.378661 
L 922.643302 423.578809 
L 923.636008 418.492358 
L 924.628714 422.866236 
L 925.62142 422.545811 
L 926.614126 429.508428 
L 927.606832 421.84267 
L 928.599537 418.259049 
L 929.592243 424.807249 
L 930.584949 423.608655 
L 931.577655 421.70651 
L 932.570361 423.32852 
L 933.563067 416.527403 
L 934.555773 419.38792 
L 935.548479 414.580033 
L 936.541185 428.21051 
L 937.533891 422.737362 
L 938.526597 413.498458 
L 939.519303 415.120172 
L 940.512009 419.18753 
L 941.504714 418.799473 
L 942.49742 420.462909 
L 943.490126 410.162596 
L 944.482832 418.665818 
L 945.475538 413.648271 
L 946.468244 419.397818 
L 947.46095 419.248953 
L 948.453656 415.190614 
L 949.446362 426.506676 
L 950.439068 426.110364 
L 951.431774 415.110547 
L 952.42448 425.151709 
L 953.417186 415.269005 
L 954.409891 420.703992 
L 955.402597 421.981825 
L 956.395303 419.003036 
L 957.388009 424.071998 
L 958.380715 422.145036 
L 959.373421 426.863499 
L 960.366127 422.803363 
L 961.358833 422.986044 
L 962.351539 423.647667 
L 963.344245 420.59479 
L 964.336951 423.764697 
L 965.329657 425.632592 
L 966.322363 425.880173 
L 967.315068 420.679636 
L 968.307774 417.376167 
L 969.30048 419.383713 
L 970.293186 420.694855 
L 971.285892 419.15585 
L 972.278598 425.232036 
L 973.271304 415.516514 
L 975.256716 423.130201 
L 976.249422 420.116709 
L 977.242128 415.119425 
L 978.234834 418.132351 
L 979.22754 423.734416 
L 981.212951 423.216495 
L 982.205657 429.452183 
L 983.198363 412.157469 
L 984.191069 426.092405 
L 985.183775 415.797196 
L 986.176481 433.941655 
L 987.169187 418.53233 
L 988.161893 428.406959 
L 989.154599 415.166179 
L 990.147305 423.723785 
L 991.140011 428.735119 
L 992.132717 421.995773 
L 993.125423 421.170251 
L 994.118128 419.173456 
L 995.110834 424.630668 
L 996.10354 419.566046 
L 997.096246 420.791426 
L 998.088952 418.21104 
L 999.081658 421.704791 
L 1000.074364 416.690897 
L 1001.06707 414.633218 
L 1002.059776 417.562786 
L 1003.052482 426.052016 
L 1004.045188 424.699809 
L 1005.037894 420.055936 
L 1006.0306 423.330056 
L 1007.023305 419.526077 
L 1008.016011 416.658275 
L 1009.008717 425.482465 
L 1010.001423 418.574197 
L 1010.994129 415.513807 
L 1011.986835 418.833918 
L 1012.979541 424.255533 
L 1013.972247 418.945324 
L 1014.964953 415.881319 
L 1015.957659 419.843191 
L 1016.950365 422.43433 
L 1018.935777 425.037765 
L 1019.928482 422.439385 
L 1020.921188 420.222694 
L 1021.913894 420.646082 
L 1022.9066 429.676325 
L 1023.899306 430.355842 
L 1024.892012 422.551202 
L 1025.884718 421.060865 
L 1026.877424 421.045923 
L 1027.87013 419.544134 
L 1028.862836 423.094104 
L 1029.855542 427.937972 
L 1030.848248 423.578094 
L 1031.840954 421.171191 
L 1032.833659 421.481588 
L 1033.826365 420.838283 
L 1034.819071 424.99851 
L 1035.811777 423.392889 
L 1036.804483 421.305161 
L 1037.797189 428.901289 
L 1038.789895 422.110544 
L 1039.782601 420.010601 
L 1040.775307 421.536732 
L 1041.768013 413.771725 
L 1042.760719 426.95113 
L 1043.753425 418.610225 
L 1044.746131 414.586295 
L 1045.738837 422.288159 
L 1046.731542 436.936914 
L 1047.724248 422.118457 
L 1048.716954 420.927802 
L 1049.70966 423.451772 
L 1050.702366 420.672581 
L 1051.695072 430.424696 
L 1052.687778 430.449585 
L 1053.680484 426.189702 
L 1054.67319 427.007171 
L 1055.665896 425.723855 
L 1056.658602 425.421015 
L 1057.651308 422.098075 
L 1058.644014 417.444757 
L 1059.636719 423.623676 
L 1060.629425 417.597951 
L 1061.622131 421.671306 
L 1062.614837 422.799363 
L 1063.607543 426.172124 
L 1064.600249 425.808182 
L 1065.592955 415.058024 
L 1066.585661 417.383025 
L 1067.578367 430.713375 
L 1068.571073 428.160087 
L 1069.563779 432.235765 
L 1070.556485 418.416887 
L 1071.549191 420.273226 
L 1072.541896 417.524995 
L 1073.534602 430.618918 
L 1075.520014 424.558889 
L 1076.51272 420.316269 
L 1077.505426 437.895697 
L 1078.498132 424.370921 
L 1079.490838 428.250445 
L 1080.483544 428.184103 
L 1081.47625 426.372881 
L 1082.468956 427.102726 
L 1084.454368 418.641981 
L 1085.447073 419.693685 
L 1086.439779 429.347378 
L 1087.432485 429.384389 
L 1088.425191 434.501409 
L 1089.417897 420.326352 
L 1090.410603 429.498663 
L 1091.403309 417.468309 
L 1092.396015 414.372999 
L 1093.388721 427.658463 
L 1094.381427 433.248746 
L 1095.374133 425.741669 
L 1096.366839 427.140376 
L 1097.359545 419.190644 
L 1098.35225 431.104294 
L 1100.337662 420.284752 
L 1101.330368 422.673977 
L 1102.323074 415.47484 
L 1103.31578 429.592962 
L 1104.308486 424.032033 
L 1105.301192 428.200472 
L 1106.293898 427.546439 
L 1107.286604 424.307988 
L 1108.27931 422.14611 
L 1109.272016 427.953503 
L 1110.264722 427.479458 
L 1111.257428 424.874048 
L 1112.250133 421.551704 
L 1113.242839 423.209474 
L 1114.235545 423.989407 
L 1115.228251 430.915034 
L 1116.220957 426.725737 
L 1117.213663 425.095566 
L 1118.206369 427.376168 
L 1119.199075 420.374163 
L 1120.191781 427.704654 
L 1121.184487 427.666236 
L 1122.177193 418.511807 
L 1123.169899 431.025576 
L 1124.162605 432.23987 
L 1126.148016 426.163016 
L 1127.140722 427.868841 
L 1128.133428 419.42836 
L 1129.126134 421.897078 
L 1130.11884 417.777431 
L 1131.111546 431.664247 
L 1132.104252 429.460517 
L 1134.089664 422.896935 
L 1135.08237 421.629831 
L 1136.075076 425.904571 
L 1137.067782 417.556482 
L 1138.060487 427.877698 
L 1139.053193 430.674718 
L 1140.045899 420.751449 
L 1141.038605 429.8394 
L 1142.031311 425.466221 
L 1143.024017 422.134168 
L 1144.016723 421.238488 
L 1145.009429 424.260971 
L 1146.002135 424.806037 
L 1146.994841 424.550589 
L 1147.987547 421.976919 
L 1148.980253 434.329251 
L 1149.972959 422.106724 
L 1150.965664 419.364726 
L 1151.95837 433.428579 
L 1152.951076 426.881008 
L 1153.943782 427.939742 
L 1154.936488 420.959827 
L 1155.929194 420.173008 
L 1156.9219 421.30079 
L 1157.914606 419.653348 
L 1158.907312 437.682712 
L 1159.900018 435.838874 
L 1160.892724 423.281748 
L 1161.88543 426.718936 
L 1162.878136 428.254423 
L 1163.870841 427.688471 
L 1164.863547 422.548435 
L 1165.856253 429.20046 
L 1166.848959 429.473826 
L 1167.841665 435.153546 
L 1168.834371 430.80819 
L 1169.827077 424.324691 
L 1170.819783 435.17753 
L 1171.812489 425.943177 
L 1172.805195 430.825116 
L 1173.797901 433.191214 
L 1174.790607 426.433422 
L 1175.783313 422.363019 
L 1176.776019 425.799358 
L 1177.768724 415.990531 
L 1178.76143 423.360163 
L 1179.754136 423.7272 
L 1180.746842 431.405147 
L 1181.739548 423.844615 
L 1182.732254 426.416542 
L 1183.72496 425.89797 
L 1184.717666 424.369606 
L 1185.710372 432.851776 
L 1186.703078 427.301105 
L 1187.695784 425.749548 
L 1188.68849 417.161108 
L 1189.681196 423.736124 
L 1190.673901 421.483999 
L 1191.666607 416.58177 
L 1192.659313 419.970374 
L 1193.652019 426.149952 
L 1194.644725 433.103955 
L 1195.637431 431.897274 
L 1196.630137 423.755867 
L 1197.622843 436.218858 
L 1198.615549 425.75982 
L 1199.608255 431.809741 
L 1200.600961 421.863973 
L 1201.593667 421.869569 
L 1202.586373 433.700353 
L 1203.579078 436.029257 
L 1204.571784 419.603827 
L 1205.56449 434.310931 
L 1206.557196 425.356559 
L 1207.549902 428.705514 
L 1208.542608 419.897942 
L 1209.535314 425.114639 
L 1210.52802 419.761001 
L 1211.520726 429.0589 
L 1212.513432 422.452185 
L 1213.506138 421.007859 
L 1214.498844 429.975446 
L 1215.49155 416.423298 
L 1216.484255 427.227958 
L 1217.476961 419.485717 
L 1218.469667 426.242168 
L 1219.462373 420.394182 
L 1220.455079 420.148363 
L 1221.447785 420.870737 
L 1222.440491 429.819673 
L 1223.433197 426.861972 
L 1224.425903 432.354709 
L 1225.418609 430.277915 
L 1226.411315 425.712073 
L 1227.404021 422.268199 
L 1228.396727 423.871358 
L 1229.389432 415.999731 
L 1230.382138 428.213415 
L 1231.374844 420.661237 
L 1232.36755 416.491508 
L 1233.360256 418.280589 
L 1234.352962 425.136741 
L 1236.338374 428.667914 
L 1237.33108 427.315439 
L 1238.323786 436.307602 
L 1239.316492 425.262456 
L 1240.309198 420.627646 
L 1241.301904 430.696619 
L 1242.29461 420.696899 
L 1243.287315 424.558881 
L 1244.280021 427.006027 
L 1245.272727 430.327576 
L 1245.272727 430.327576 
" clip-path="url(#pd913137483)" style="fill: none; stroke: #1f77b4; stroke-width: 1.5; stroke-linecap: square"/>
   </g>
   <g id="patch_3">
    <path d="M 180 512.64 
L 180 69.12 
" style="fill: none; stroke: #000000; stroke-width: 0.8; stroke-linejoin: miter; stroke-linecap: square"/>
   </g>
   <g id="patch_4">
    <path d="M 1296 512.64 
L 1296 69.12 
" style="fill: none; stroke: #000000; stroke-width: 0.8; stroke-linejoin: miter; stroke-linecap: square"/>
   </g>
   <g id="patch_5">
    <path d="M 180 512.64 
L 1296 512.64 
" style="fill: none; stroke: #000000; stroke-width: 0.8; stroke-linejoin: miter; stroke-linecap: square"/>
   </g>
   <g id="patch_6">
    <path d="M 180 69.12 
L 1296 69.12 
" style="fill: none; stroke: #000000; stroke-width: 0.8; stroke-linejoin: miter; stroke-linecap: square"/>
   </g>
   <g id="text_12">
    <!-- source3-receiver14 -->
    <g transform="translate(544.9 60.80125) scale(0.4 -0.4)">
     <defs>
      <path id="DejaVuSans-73" d="M 2834 3397 
L 2834 2853 
Q 2591 2978 2328 3040 
Q 2066 3103 1784 3103 
Q 1356 3103 1142 2972 
Q 928 2841 928 2578 
Q 928 2378 1081 2264 
Q 1234 2150 1697 2047 
L 1894 2003 
Q 2506 1872 2764 1633 
Q 3022 1394 3022 966 
Q 3022 478 2636 193 
Q 2250 -91 1575 -91 
Q 1294 -91 989 -36 
Q 684 19 347 128 
L 347 722 
Q 666 556 975 473 
Q 1284 391 1588 391 
Q 1994 391 2212 530 
Q 2431 669 2431 922 
Q 2431 1156 2273 1281 
Q 2116 1406 1581 1522 
L 1381 1569 
Q 847 1681 609 1914 
Q 372 2147 372 2553 
Q 372 3047 722 3315 
Q 1072 3584 1716 3584 
Q 2034 3584 2315 3537 
Q 2597 3491 2834 3397 
z
" transform="scale(0.015625)"/>
      <path id="DejaVuSans-6f" d="M 1959 3097 
Q 1497 3097 1228 2736 
Q 959 2375 959 1747 
Q 959 1119 1226 758 
Q 1494 397 1959 397 
Q 2419 397 2687 759 
Q 2956 1122 2956 1747 
Q 2956 2369 2687 2733 
Q 2419 3097 1959 3097 
z
M 1959 3584 
Q 2709 3584 3137 3096 
Q 3566 2609 3566 1747 
Q 3566 888 3137 398 
Q 2709 -91 1959 -91 
Q 1206 -91 779 398 
Q 353 888 353 1747 
Q 353 2609 779 3096 
Q 1206 3584 1959 3584 
z
" transform="scale(0.015625)"/>
      <path id="DejaVuSans-75" d="M 544 1381 
L 544 3500 
L 1119 3500 
L 1119 1403 
Q 1119 906 1312 657 
Q 1506 409 1894 409 
Q 2359 409 2629 706 
Q 2900 1003 2900 1516 
L 2900 3500 
L 3475 3500 
L 3475 0 
L 2900 0 
L 2900 538 
Q 2691 219 2414 64 
Q 2138 -91 1772 -91 
Q 1169 -91 856 284 
Q 544 659 544 1381 
z
M 1991 3584 
L 1991 3584 
z
" transform="scale(0.015625)"/>
      <path id="DejaVuSans-72" d="M 2631 2963 
Q 2534 3019 2420 3045 
Q 2306 3072 2169 3072 
Q 1681 3072 1420 2755 
Q 1159 2438 1159 1844 
L 1159 0 
L 581 0 
L 581 3500 
L 1159 3500 
L 1159 2956 
Q 1341 3275 1631 3429 
Q 1922 3584 2338 3584 
Q 2397 3584 2469 3576 
Q 2541 3569 2628 3553 
L 2631 2963 
z
" transform="scale(0.015625)"/>
      <path id="DejaVuSans-63" d="M 3122 3366 
L 3122 2828 
Q 2878 2963 2633 3030 
Q 2388 3097 2138 3097 
Q 1578 3097 1268 2742 
Q 959 2388 959 1747 
Q 959 1106 1268 751 
Q 1578 397 2138 397 
Q 2388 397 2633 464 
Q 2878 531 3122 666 
L 3122 134 
Q 2881 22 2623 -34 
Q 2366 -91 2075 -91 
Q 1284 -91 818 406 
Q 353 903 353 1747 
Q 353 2603 823 3093 
Q 1294 3584 2113 3584 
Q 2378 3584 2631 3529 
Q 2884 3475 3122 3366 
z
" transform="scale(0.015625)"/>
      <path id="DejaVuSans-65" d="M 3597 1894 
L 3597 1613 
L 953 1613 
Q 991 1019 1311 708 
Q 1631 397 2203 397 
Q 2534 397 2845 478 
Q 3156 559 3463 722 
L 3463 178 
Q 3153 47 2828 -22 
Q 2503 -91 2169 -91 
Q 1331 -91 842 396 
Q 353 884 353 1716 
Q 353 2575 817 3079 
Q 1281 3584 2069 3584 
Q 2775 3584 3186 3129 
Q 3597 2675 3597 1894 
z
M 3022 2063 
Q 3016 2534 2758 2815 
Q 2500 3097 2075 3097 
Q 1594 3097 1305 2825 
Q 1016 2553 972 2059 
L 3022 2063 
z
" transform="scale(0.015625)"/>
      <path id="DejaVuSans-33" d="M 2597 2516 
Q 3050 2419 3304 2112 
Q 3559 1806 3559 1356 
Q 3559 666 3084 287 
Q 2609 -91 1734 -91 
Q 1441 -91 1130 -33 
Q 819 25 488 141 
L 488 750 
Q 750 597 1062 519 
Q 1375 441 1716 441 
Q 2309 441 2620 675 
Q 2931 909 2931 1356 
Q 2931 1769 2642 2001 
Q 2353 2234 1838 2234 
L 1294 2234 
L 1294 2753 
L 1863 2753 
Q 2328 2753 2575 2939 
Q 2822 3125 2822 3475 
Q 2822 3834 2567 4026 
Q 2313 4219 1838 4219 
Q 1578 4219 1281 4162 
Q 984 4106 628 3988 
L 628 4550 
Q 988 4650 1302 4700 
Q 1616 4750 1894 4750 
Q 2613 4750 3031 4423 
Q 3450 4097 3450 3541 
Q 3450 3153 3228 2886 
Q 3006 2619 2597 2516 
z
" transform="scale(0.015625)"/>
      <path id="DejaVuSans-2d" d="M 313 2009 
L 1997 2009 
L 1997 1497 
L 313 1497 
L 313 2009 
z
" transform="scale(0.015625)"/>
      <path id="DejaVuSans-69" d="M 603 3500 
L 1178 3500 
L 1178 0 
L 603 0 
L 603 3500 
z
M 603 4863 
L 1178 4863 
L 1178 4134 
L 603 4134 
L 603 4863 
z
" transform="scale(0.015625)"/>
      <path id="DejaVuSans-76" d="M 191 3500 
L 800 3500 
L 1894 563 
L 2988 3500 
L 3597 3500 
L 2284 0 
L 1503 0 
L 191 3500 
z
" transform="scale(0.015625)"/>
     </defs>
     <use xlink:href="#DejaVuSans-73"/>
     <use xlink:href="#DejaVuSans-6f" x="52.099609"/>
     <use xlink:href="#DejaVuSans-75" x="113.28125"/>
     <use xlink:href="#DejaVuSans-72" x="176.660156"/>
     <use xlink:href="#DejaVuSans-63" x="215.523438"/>
     <use xlink:href="#DejaVuSans-65" x="270.503906"/>
     <use xlink:href="#DejaVuSans-33" x="332.027344"/>
     <use xlink:href="#DejaVuSans-2d" x="395.650391"/>
     <use xlink:href="#DejaVuSans-72" x="431.734375"/>
     <use xlink:href="#DejaVuSans-65" x="470.597656"/>
     <use xlink:href="#DejaVuSans-63" x="532.121094"/>
     <use xlink:href="#DejaVuSans-65" x="587.101562"/>
     <use xlink:href="#DejaVuSans-69" x="648.625"/>
     <use xlink:href="#DejaVuSans-76" x="676.408203"/>
     <use xlink:href="#DejaVuSans-65" x="735.587891"/>
     <use xlink:href="#DejaVuSans-72" x="797.111328"/>
     <use xlink:href="#DejaVuSans-31" x="838.224609"/>
     <use xlink:href="#DejaVuSans-34" x="901.847656"/>
    </g>
   </g>
  </g>
 </g>
 <defs>
  <clipPath id="pd913137483">
   <rect x="180" y="69.12" width="1116" height="443.52"/>
  </clipPath>
 </defs>
</svg>
