<?xml version="1.0" encoding="utf-8" standalone="no"?>
<!DOCTYPE svg PUBLIC "-//W3C//DTD SVG 1.1//EN"
  "http://www.w3.org/Graphics/SVG/1.1/DTD/svg11.dtd">
<svg xmlns:xlink="http://www.w3.org/1999/xlink" width="1440pt" height="576pt" viewBox="0 0 1440 576" xmlns="http://www.w3.org/2000/svg" version="1.1">
 <metadata>
  <rdf:RDF xmlns:dc="http://purl.org/dc/elements/1.1/" xmlns:cc="http://creativecommons.org/ns#" xmlns:rdf="http://www.w3.org/1999/02/22-rdf-syntax-ns#">
   <cc:Work>
    <dc:type rdf:resource="http://purl.org/dc/dcmitype/StillImage"/>
    <dc:date>2024-05-22T04:49:43.563223</dc:date>
    <dc:format>image/svg+xml</dc:format>
    <dc:creator>
     <cc:Agent>
      <dc:title>Matplotlib v3.8.3, https://matplotlib.org/</dc:title>
     </cc:Agent>
    </dc:creator>
   </cc:Work>
  </rdf:RDF>
 </metadata>
 <defs>
  <style type="text/css">*{stroke-linejoin: round; stroke-linecap: butt}</style>
 </defs>
 <g id="figure_1">
  <g id="patch_1">
   <path d="M 0 576 
L 1440 576 
L 1440 0 
L 0 0 
z
" style="fill: #ffffff"/>
  </g>
  <g id="axes_1">
   <g id="patch_2">
    <path d="M 180 512.64 
L 1296 512.64 
L 1296 69.12 
L 180 69.12 
z
" style="fill: #ffffff"/>
   </g>
   <g id="matplotlib.axis_1">
    <g id="xtick_1">
     <g id="line2d_1">
      <defs>
       <path id="mddc5cdaded" d="M 0 0 
L 0 3.5 
" style="stroke: #000000; stroke-width: 0.8"/>
      </defs>
      <g>
       <use xlink:href="#mddc5cdaded" x="229.734567" y="512.64" style="stroke: #000000; stroke-width: 0.8"/>
      </g>
     </g>
     <g id="text_1">
      <!-- 0 -->
      <g transform="translate(226.553317 527.238438) scale(0.1 -0.1)">
       <defs>
        <path id="DejaVuSans-30" d="M 2034 4250 
Q 1547 4250 1301 3770 
Q 1056 3291 1056 2328 
Q 1056 1369 1301 889 
Q 1547 409 2034 409 
Q 2525 409 2770 889 
Q 3016 1369 3016 2328 
Q 3016 3291 2770 3770 
Q 2525 4250 2034 4250 
z
M 2034 4750 
Q 2819 4750 3233 4129 
Q 3647 3509 3647 2328 
Q 3647 1150 3233 529 
Q 2819 -91 2034 -91 
Q 1250 -91 836 529 
Q 422 1150 422 2328 
Q 422 3509 836 4129 
Q 1250 4750 2034 4750 
z
" transform="scale(0.015625)"/>
       </defs>
       <use xlink:href="#DejaVuSans-30"/>
      </g>
     </g>
    </g>
    <g id="xtick_2">
     <g id="line2d_2">
      <g>
       <use xlink:href="#mddc5cdaded" x="433.04074" y="512.64" style="stroke: #000000; stroke-width: 0.8"/>
      </g>
     </g>
     <g id="text_2">
      <!-- 500 -->
      <g transform="translate(423.49699 527.238438) scale(0.1 -0.1)">
       <defs>
        <path id="DejaVuSans-35" d="M 691 4666 
L 3169 4666 
L 3169 4134 
L 1269 4134 
L 1269 2991 
Q 1406 3038 1543 3061 
Q 1681 3084 1819 3084 
Q 2600 3084 3056 2656 
Q 3513 2228 3513 1497 
Q 3513 744 3044 326 
Q 2575 -91 1722 -91 
Q 1428 -91 1123 -41 
Q 819 9 494 109 
L 494 744 
Q 775 591 1075 516 
Q 1375 441 1709 441 
Q 2250 441 2565 725 
Q 2881 1009 2881 1497 
Q 2881 1984 2565 2268 
Q 2250 2553 1709 2553 
Q 1456 2553 1204 2497 
Q 953 2441 691 2322 
L 691 4666 
z
" transform="scale(0.015625)"/>
       </defs>
       <use xlink:href="#DejaVuSans-35"/>
       <use xlink:href="#DejaVuSans-30" x="63.623047"/>
       <use xlink:href="#DejaVuSans-30" x="127.246094"/>
      </g>
     </g>
    </g>
    <g id="xtick_3">
     <g id="line2d_3">
      <g>
       <use xlink:href="#mddc5cdaded" x="636.346913" y="512.64" style="stroke: #000000; stroke-width: 0.8"/>
      </g>
     </g>
     <g id="text_3">
      <!-- 1000 -->
      <g transform="translate(623.621913 527.238438) scale(0.1 -0.1)">
       <defs>
        <path id="DejaVuSans-31" d="M 794 531 
L 1825 531 
L 1825 4091 
L 703 3866 
L 703 4441 
L 1819 4666 
L 2450 4666 
L 2450 531 
L 3481 531 
L 3481 0 
L 794 0 
L 794 531 
z
" transform="scale(0.015625)"/>
       </defs>
       <use xlink:href="#DejaVuSans-31"/>
       <use xlink:href="#DejaVuSans-30" x="63.623047"/>
       <use xlink:href="#DejaVuSans-30" x="127.246094"/>
       <use xlink:href="#DejaVuSans-30" x="190.869141"/>
      </g>
     </g>
    </g>
    <g id="xtick_4">
     <g id="line2d_4">
      <g>
       <use xlink:href="#mddc5cdaded" x="839.653087" y="512.64" style="stroke: #000000; stroke-width: 0.8"/>
      </g>
     </g>
     <g id="text_4">
      <!-- 1500 -->
      <g transform="translate(826.928087 527.238438) scale(0.1 -0.1)">
       <use xlink:href="#DejaVuSans-31"/>
       <use xlink:href="#DejaVuSans-35" x="63.623047"/>
       <use xlink:href="#DejaVuSans-30" x="127.246094"/>
       <use xlink:href="#DejaVuSans-30" x="190.869141"/>
      </g>
     </g>
    </g>
    <g id="xtick_5">
     <g id="line2d_5">
      <g>
       <use xlink:href="#mddc5cdaded" x="1042.95926" y="512.64" style="stroke: #000000; stroke-width: 0.8"/>
      </g>
     </g>
     <g id="text_5">
      <!-- 2000 -->
      <g transform="translate(1030.23426 527.238438) scale(0.1 -0.1)">
       <defs>
        <path id="DejaVuSans-32" d="M 1228 531 
L 3431 531 
L 3431 0 
L 469 0 
L 469 531 
Q 828 903 1448 1529 
Q 2069 2156 2228 2338 
Q 2531 2678 2651 2914 
Q 2772 3150 2772 3378 
Q 2772 3750 2511 3984 
Q 2250 4219 1831 4219 
Q 1534 4219 1204 4116 
Q 875 4013 500 3803 
L 500 4441 
Q 881 4594 1212 4672 
Q 1544 4750 1819 4750 
Q 2544 4750 2975 4387 
Q 3406 4025 3406 3419 
Q 3406 3131 3298 2873 
Q 3191 2616 2906 2266 
Q 2828 2175 2409 1742 
Q 1991 1309 1228 531 
z
" transform="scale(0.015625)"/>
       </defs>
       <use xlink:href="#DejaVuSans-32"/>
       <use xlink:href="#DejaVuSans-30" x="63.623047"/>
       <use xlink:href="#DejaVuSans-30" x="127.246094"/>
       <use xlink:href="#DejaVuSans-30" x="190.869141"/>
      </g>
     </g>
    </g>
    <g id="xtick_6">
     <g id="line2d_6">
      <g>
       <use xlink:href="#mddc5cdaded" x="1246.265433" y="512.64" style="stroke: #000000; stroke-width: 0.8"/>
      </g>
     </g>
     <g id="text_6">
      <!-- 2500 -->
      <g transform="translate(1233.540433 527.238438) scale(0.1 -0.1)">
       <use xlink:href="#DejaVuSans-32"/>
       <use xlink:href="#DejaVuSans-35" x="63.623047"/>
       <use xlink:href="#DejaVuSans-30" x="127.246094"/>
       <use xlink:href="#DejaVuSans-30" x="190.869141"/>
      </g>
     </g>
    </g>
   </g>
   <g id="matplotlib.axis_2">
    <g id="ytick_1">
     <g id="line2d_7">
      <defs>
       <path id="ma41eeb4bb0" d="M 0 0 
L -3.5 0 
" style="stroke: #000000; stroke-width: 0.8"/>
      </defs>
      <g>
       <use xlink:href="#ma41eeb4bb0" x="180" y="502.608517" style="stroke: #000000; stroke-width: 0.8"/>
      </g>
     </g>
     <g id="text_7">
      <!-- −6 -->
      <g transform="translate(158.257812 506.407736) scale(0.1 -0.1)">
       <defs>
        <path id="DejaVuSans-2212" d="M 678 2272 
L 4684 2272 
L 4684 1741 
L 678 1741 
L 678 2272 
z
" transform="scale(0.015625)"/>
        <path id="DejaVuSans-36" d="M 2113 2584 
Q 1688 2584 1439 2293 
Q 1191 2003 1191 1497 
Q 1191 994 1439 701 
Q 1688 409 2113 409 
Q 2538 409 2786 701 
Q 3034 994 3034 1497 
Q 3034 2003 2786 2293 
Q 2538 2584 2113 2584 
z
M 3366 4563 
L 3366 3988 
Q 3128 4100 2886 4159 
Q 2644 4219 2406 4219 
Q 1781 4219 1451 3797 
Q 1122 3375 1075 2522 
Q 1259 2794 1537 2939 
Q 1816 3084 2150 3084 
Q 2853 3084 3261 2657 
Q 3669 2231 3669 1497 
Q 3669 778 3244 343 
Q 2819 -91 2113 -91 
Q 1303 -91 875 529 
Q 447 1150 447 2328 
Q 447 3434 972 4092 
Q 1497 4750 2381 4750 
Q 2619 4750 2861 4703 
Q 3103 4656 3366 4563 
z
" transform="scale(0.015625)"/>
       </defs>
       <use xlink:href="#DejaVuSans-2212"/>
       <use xlink:href="#DejaVuSans-36" x="83.789062"/>
      </g>
     </g>
    </g>
    <g id="ytick_2">
     <g id="line2d_8">
      <g>
       <use xlink:href="#ma41eeb4bb0" x="180" y="419.745914" style="stroke: #000000; stroke-width: 0.8"/>
      </g>
     </g>
     <g id="text_8">
      <!-- −4 -->
      <g transform="translate(158.257812 423.545133) scale(0.1 -0.1)">
       <defs>
        <path id="DejaVuSans-34" d="M 2419 4116 
L 825 1625 
L 2419 1625 
L 2419 4116 
z
M 2253 4666 
L 3047 4666 
L 3047 1625 
L 3713 1625 
L 3713 1100 
L 3047 1100 
L 3047 0 
L 2419 0 
L 2419 1100 
L 313 1100 
L 313 1709 
L 2253 4666 
z
" transform="scale(0.015625)"/>
       </defs>
       <use xlink:href="#DejaVuSans-2212"/>
       <use xlink:href="#DejaVuSans-34" x="83.789062"/>
      </g>
     </g>
    </g>
    <g id="ytick_3">
     <g id="line2d_9">
      <g>
       <use xlink:href="#ma41eeb4bb0" x="180" y="336.883311" style="stroke: #000000; stroke-width: 0.8"/>
      </g>
     </g>
     <g id="text_9">
      <!-- −2 -->
      <g transform="translate(158.257812 340.68253) scale(0.1 -0.1)">
       <use xlink:href="#DejaVuSans-2212"/>
       <use xlink:href="#DejaVuSans-32" x="83.789062"/>
      </g>
     </g>
    </g>
    <g id="ytick_4">
     <g id="line2d_10">
      <g>
       <use xlink:href="#ma41eeb4bb0" x="180" y="254.020708" style="stroke: #000000; stroke-width: 0.8"/>
      </g>
     </g>
     <g id="text_10">
      <!-- 0 -->
      <g transform="translate(166.6375 257.819926) scale(0.1 -0.1)">
       <use xlink:href="#DejaVuSans-30"/>
      </g>
     </g>
    </g>
    <g id="ytick_5">
     <g id="line2d_11">
      <g>
       <use xlink:href="#ma41eeb4bb0" x="180" y="171.158105" style="stroke: #000000; stroke-width: 0.8"/>
      </g>
     </g>
     <g id="text_11">
      <!-- 2 -->
      <g transform="translate(166.6375 174.957323) scale(0.1 -0.1)">
       <use xlink:href="#DejaVuSans-32"/>
      </g>
     </g>
    </g>
    <g id="ytick_6">
     <g id="line2d_12">
      <g>
       <use xlink:href="#ma41eeb4bb0" x="180" y="88.295502" style="stroke: #000000; stroke-width: 0.8"/>
      </g>
     </g>
     <g id="text_12">
      <!-- 4 -->
      <g transform="translate(166.6375 92.09472) scale(0.1 -0.1)">
       <use xlink:href="#DejaVuSans-34"/>
      </g>
     </g>
    </g>
   </g>
   <g id="line2d_13">
    <path d="M 230.727273 347.909973 
L 231.719979 349.184803 
L 232.712685 347.509156 
L 233.70539 347.272855 
L 234.698096 346.419623 
L 235.690802 345.398586 
L 237.676214 343.018523 
L 238.66892 341.064018 
L 239.661626 339.627509 
L 240.654332 337.04902 
L 242.639744 330.997482 
L 243.63245 327.477908 
L 244.625156 320.269568 
L 245.617862 315.066407 
L 246.610568 315.761246 
L 247.603273 294.59949 
L 248.595979 270.76986 
L 249.588685 274.784317 
L 250.581391 389.053971 
L 251.574097 249.024596 
L 252.566803 229.896655 
L 254.552215 251.319295 
L 255.544921 226.197062 
L 256.537627 221.971472 
L 257.530333 228.411532 
L 258.523039 213.630396 
L 259.515745 205.979525 
L 260.50845 195.057659 
L 261.501156 190.663816 
L 262.493862 201.30887 
L 263.486568 208.179071 
L 264.479274 209.027292 
L 265.47198 213.466977 
L 266.464686 200.573803 
L 267.457392 201.011204 
L 268.450098 181.952864 
L 269.442804 171.086488 
L 270.43551 171.201944 
L 271.428216 151.132701 
L 272.420922 142.160942 
L 273.413627 156.775458 
L 274.406333 153.867392 
L 275.399039 120.92561 
L 276.391745 103.893691 
L 277.384451 94.610131 
L 278.377157 89.28 
L 279.369863 89.734975 
L 280.362569 101.035865 
L 281.355275 132.180659 
L 282.347981 123.138493 
L 283.340687 103.200282 
L 284.333393 106.345248 
L 285.326099 126.150564 
L 286.318804 126.909517 
L 287.31151 121.057798 
L 288.304216 130.891417 
L 289.296922 145.295001 
L 290.289628 157.895216 
L 291.282334 175.272731 
L 292.27504 179.908057 
L 293.267746 189.635142 
L 294.260452 181.514041 
L 295.253158 182.441077 
L 296.245864 210.705227 
L 297.23857 247.809558 
L 298.231276 221.540423 
L 299.223981 202.113357 
L 300.216687 221.621191 
L 301.209393 256.396757 
L 302.202099 225.563612 
L 303.194805 224.353802 
L 304.187511 201.481437 
L 305.180217 203.75903 
L 306.172923 223.843741 
L 307.165629 231.209425 
L 308.158335 251.791588 
L 309.151041 260.858798 
L 310.143747 271.126316 
L 311.136453 296.347816 
L 312.129159 267.246198 
L 314.11457 306.605108 
L 315.107276 318.148178 
L 316.099982 319.110304 
L 317.092688 311.528981 
L 318.085394 330.659872 
L 319.0781 331.672859 
L 320.070806 339.635318 
L 321.063512 328.33936 
L 322.056218 319.087668 
L 323.048924 356.52471 
L 324.04163 319.45711 
L 325.034336 352.772958 
L 326.027041 337.776643 
L 327.019747 332.068668 
L 328.012453 343.919037 
L 329.005159 329.870786 
L 329.997865 351.162758 
L 330.990571 323.276499 
L 331.983277 359.220182 
L 332.975983 338.455586 
L 333.968689 330.356302 
L 334.961395 345.135681 
L 335.954101 354.571701 
L 336.946807 349.192188 
L 337.939513 334.50654 
L 338.932218 360.439191 
L 339.924924 346.595844 
L 340.91763 363.940622 
L 341.910336 334.716898 
L 342.903042 413.326862 
L 343.895748 325.422076 
L 344.888454 367.457204 
L 345.88116 357.969953 
L 346.873866 332.824202 
L 347.866572 405.21352 
L 348.859278 329.500739 
L 349.851984 368.786272 
L 350.84469 338.265063 
L 351.837395 320.843352 
L 352.830101 356.434011 
L 353.822807 348.524834 
L 354.815513 408.428954 
L 355.808219 328.551802 
L 356.800925 391.688191 
L 357.793631 332.073272 
L 358.786337 419.204045 
L 359.779043 330.464311 
L 360.771749 312.23553 
L 361.764455 380.242088 
L 362.757161 328.993838 
L 363.749867 358.390685 
L 364.742572 354.732829 
L 365.735278 353.505769 
L 366.727984 373.321714 
L 367.72069 338.070782 
L 368.713396 402.210637 
L 369.706102 348.270834 
L 370.698808 340.059899 
L 371.691514 349.53441 
L 372.68422 354.420599 
L 373.676926 374.015394 
L 374.669632 345.366928 
L 375.662338 368.128336 
L 376.655044 367.432357 
L 377.64775 374.66025 
L 378.640455 391.335513 
L 379.633161 431.119861 
L 380.625867 376.97981 
L 381.618573 377.729852 
L 382.611279 386.46079 
L 383.603985 358.660082 
L 385.589397 374.448381 
L 386.582103 375.611973 
L 387.574809 372.716644 
L 388.567515 375.07386 
L 389.560221 394.76837 
L 390.552927 367.057654 
L 391.545632 365.475687 
L 392.538338 364.52755 
L 393.531044 351.817045 
L 394.52375 355.371509 
L 395.516456 366.874639 
L 396.509162 409.907201 
L 397.501868 379.637748 
L 398.494574 363.929264 
L 399.48728 357.853697 
L 400.479986 354.215403 
L 401.472692 380.629134 
L 402.465398 356.185633 
L 403.458104 374.491325 
L 404.450809 398.561038 
L 405.443515 403.03154 
L 406.436221 377.66527 
L 407.428927 369.454242 
L 408.421633 386.653908 
L 409.414339 401.893139 
L 410.407045 386.87589 
L 411.399751 356.781303 
L 412.392457 367.084762 
L 413.385163 404.802971 
L 414.377869 383.491306 
L 415.370575 427.567976 
L 416.363281 375.239372 
L 417.355986 372.712399 
L 418.348692 383.180928 
L 420.334104 423.321398 
L 421.32681 426.066296 
L 422.319516 395.827026 
L 423.312222 398.642021 
L 424.304928 389.390377 
L 425.297634 398.271566 
L 426.29034 361.817035 
L 427.283046 392.060766 
L 428.275752 360.141356 
L 429.268458 377.696658 
L 430.261163 454.180539 
L 431.253869 429.169514 
L 432.246575 391.666709 
L 433.239281 365.756095 
L 434.231987 466.912383 
L 435.224693 415.199891 
L 436.217399 375.72527 
L 437.210105 387.860797 
L 438.202811 395.150875 
L 439.195517 371.501859 
L 440.188223 373.347423 
L 441.180929 408.52847 
L 442.173635 380.347373 
L 443.166341 379.217116 
L 444.159046 412.815356 
L 445.151752 410.969112 
L 446.144458 377.157278 
L 447.137164 373.02398 
L 448.12987 394.432745 
L 449.122576 395.739064 
L 450.115282 455.457941 
L 451.107988 383.912135 
L 452.100694 428.825574 
L 453.0934 408.868372 
L 454.086106 374.989541 
L 455.078812 433.541349 
L 456.071518 368.606791 
L 457.064223 361.022833 
L 458.056929 384.149197 
L 459.049635 346.184079 
L 460.042341 383.143325 
L 461.035047 405.741764 
L 462.027753 418.848047 
L 463.020459 392.723421 
L 464.013165 391.321108 
L 465.005871 400.913658 
L 465.998577 376.183724 
L 466.991283 405.689731 
L 467.983989 363.381181 
L 468.976695 406.05517 
L 469.9694 386.150784 
L 470.962106 347.714603 
L 471.954812 390.462059 
L 472.947518 374.503173 
L 473.940224 363.539354 
L 476.918342 394.749506 
L 477.911048 375.61548 
L 478.903754 392.297082 
L 479.89646 349.947705 
L 480.889166 401.784483 
L 481.881872 423.399943 
L 482.874577 428.489095 
L 483.867283 394.896365 
L 484.859989 393.456075 
L 485.852695 378.359627 
L 486.845401 359.022654 
L 487.838107 363.795971 
L 488.830813 395.030615 
L 489.823519 450.773072 
L 490.816225 433.586665 
L 492.801637 360.426138 
L 493.794343 372.754969 
L 494.787049 380.127894 
L 495.779754 374.400644 
L 496.77246 400.147539 
L 497.765166 364.827627 
L 498.757872 399.900848 
L 499.750578 383.527675 
L 500.743284 345.46794 
L 501.73599 347.902425 
L 502.728696 368.798739 
L 503.721402 373.672457 
L 504.714108 395.049572 
L 505.706814 465.724743 
L 506.69952 378.611586 
L 507.692226 389.300334 
L 508.684932 369.801384 
L 509.677637 336.477997 
L 510.670343 353.894749 
L 511.663049 364.941483 
L 512.655755 390.947209 
L 513.648461 376.095173 
L 514.641167 415.735892 
L 515.633873 385.753326 
L 516.626579 365.014064 
L 517.619285 397.003843 
L 518.611991 410.024551 
L 519.604697 379.058948 
L 520.597403 377.88386 
L 521.590109 339.456291 
L 522.582814 342.327307 
L 524.568226 370.57496 
L 525.560932 375.339823 
L 526.553638 415.148435 
L 527.546344 381.488072 
L 528.53905 421.211968 
L 529.531756 323.792524 
L 530.524462 405.595259 
L 531.517168 390.126456 
L 532.509874 404.075977 
L 533.50258 346.397057 
L 534.495286 349.015104 
L 535.487991 378.224465 
L 536.480697 358.987867 
L 537.473403 422.661487 
L 539.458815 374.700523 
L 540.451521 420.550379 
L 542.436933 343.652345 
L 543.429639 336.766041 
L 544.422345 366.101025 
L 545.415051 373.131355 
L 546.407757 383.083795 
L 547.400463 374.834345 
L 548.393168 392.108594 
L 549.385874 435.66492 
L 550.37858 403.949329 
L 551.371286 444.492732 
L 552.363992 384.175736 
L 553.356698 478.064782 
L 554.349404 434.997063 
L 555.34211 375.760428 
L 556.334816 419.842464 
L 557.327522 367.733663 
L 558.320228 378.268123 
L 559.312934 431.883405 
L 560.30564 365.520159 
L 561.298345 395.712921 
L 562.291051 360.693316 
L 563.283757 407.437609 
L 564.276463 388.583374 
L 565.269169 397.331449 
L 566.261875 363.465026 
L 567.254581 361.024396 
L 568.247287 397.641589 
L 569.239993 413.131981 
L 570.232699 371.301367 
L 571.225405 377.03916 
L 572.218111 426.220868 
L 573.210817 362.469019 
L 574.203523 378.819594 
L 575.196228 385.242955 
L 576.188934 375.622313 
L 577.18164 377.243601 
L 578.174346 367.98789 
L 579.167052 365.731319 
L 580.159758 398.177918 
L 581.152464 413.305643 
L 582.14517 391.540978 
L 583.137876 373.483614 
L 584.130582 387.350977 
L 585.123288 389.029238 
L 586.115994 416.356347 
L 587.1087 388.804254 
L 588.101405 391.154387 
L 589.094111 395.549402 
L 590.086817 384.236886 
L 591.079523 403.078876 
L 592.072229 379.44012 
L 593.064935 383.991926 
L 594.057641 382.456218 
L 595.050347 405.932684 
L 596.043053 389.349548 
L 597.035759 461.028457 
L 598.028465 402.674895 
L 599.021171 414.502965 
L 600.013877 398.898429 
L 601.006582 397.19776 
L 601.999288 450.54478 
L 602.991994 384.118646 
L 603.9847 398.441882 
L 604.977406 377.642541 
L 605.970112 387.089764 
L 606.962818 392.201528 
L 607.955524 414.974132 
L 608.94823 403.069261 
L 609.940936 436.323932 
L 610.933642 397.902808 
L 611.926348 441.926814 
L 612.919054 431.528591 
L 613.911759 430.095727 
L 614.904465 399.943468 
L 615.897171 416.497664 
L 616.889877 446.352927 
L 617.882583 400.91717 
L 618.875289 405.695128 
L 619.867995 407.888059 
L 620.860701 408.571113 
L 621.853407 428.659432 
L 622.846113 408.140113 
L 623.838819 406.093903 
L 624.831525 428.285678 
L 625.824231 423.757157 
L 626.816936 433.880577 
L 627.809642 412.976108 
L 628.802348 437.357684 
L 629.795054 405.055307 
L 630.78776 415.313799 
L 632.773172 440.321074 
L 633.765878 418.350088 
L 634.758584 413.242885 
L 635.75129 427.305517 
L 636.743996 427.047006 
L 637.736702 423.034685 
L 638.729408 410.127 
L 639.722114 401.050266 
L 640.714819 420.481724 
L 641.707525 407.983327 
L 642.700231 472.026517 
L 643.692937 474.269103 
L 644.685643 492.48 
L 645.678349 400.214959 
L 646.671055 442.847252 
L 647.663761 437.848 
L 648.656467 446.648914 
L 649.649173 418.095464 
L 650.641879 427.807157 
L 651.634585 413.388323 
L 652.627291 440.366095 
L 653.619996 439.205071 
L 654.612702 414.330521 
L 655.605408 422.661166 
L 656.598114 429.004166 
L 657.59082 423.288044 
L 658.583526 413.982496 
L 659.576232 407.337972 
L 660.568938 423.776124 
L 661.561644 424.705839 
L 662.55435 423.392799 
L 663.547056 408.548079 
L 664.539762 413.027399 
L 665.532468 425.49312 
L 666.525173 440.743613 
L 667.517879 431.719695 
L 668.510585 431.238378 
L 669.503291 423.494382 
L 670.495997 431.147939 
L 671.488703 432.357116 
L 672.481409 422.21918 
L 673.474115 436.709111 
L 674.466821 418.363906 
L 675.459527 425.422091 
L 676.452233 443.715787 
L 677.444939 436.050589 
L 678.437645 430.06355 
L 679.43035 426.482472 
L 680.423056 432.560341 
L 681.415762 429.768392 
L 682.408468 427.905225 
L 683.401174 418.691282 
L 684.39388 423.064567 
L 685.386586 424.712422 
L 686.379292 426.645188 
L 687.371998 419.100597 
L 688.364704 430.164345 
L 689.35741 431.968591 
L 690.350116 420.090194 
L 691.342822 428.63334 
L 692.335527 419.313326 
L 693.328233 419.525009 
L 694.320939 423.196545 
L 695.313645 431.597271 
L 696.306351 428.365842 
L 697.299057 428.221444 
L 698.291763 419.305366 
L 699.284469 427.758907 
L 700.277175 425.44724 
L 701.269881 422.84385 
L 702.262587 433.824274 
L 703.255293 426.430423 
L 704.247999 434.55741 
L 705.240705 427.274013 
L 706.23341 427.36559 
L 707.226116 421.621209 
L 708.218822 435.725229 
L 709.211528 431.738445 
L 710.204234 435.192684 
L 711.19694 425.322709 
L 712.189646 431.773805 
L 713.182352 431.482875 
L 714.175058 430.114681 
L 715.167764 434.127053 
L 716.16047 433.250277 
L 717.153176 436.864873 
L 718.145882 426.12542 
L 719.138587 431.473159 
L 720.131293 424.763575 
L 721.123999 431.077815 
L 722.116705 435.495409 
L 723.109411 429.021543 
L 724.102117 429.261535 
L 725.094823 432.126574 
L 726.087529 431.395939 
L 727.080235 425.23376 
L 728.072941 427.94898 
L 729.065647 426.818715 
L 730.058353 430.263373 
L 731.051059 426.899294 
L 732.043764 433.733181 
L 733.03647 432.692998 
L 734.029176 432.034162 
L 735.021882 432.062096 
L 736.014588 429.38935 
L 737.007294 434.954659 
L 738 425.883049 
L 738.992706 430.663599 
L 739.985412 427.927863 
L 740.978118 437.457018 
L 741.970824 435.397762 
L 742.96353 431.832933 
L 744.948941 427.285736 
L 745.941647 432.343205 
L 746.934353 435.492561 
L 747.927059 426.967143 
L 748.919765 430.24851 
L 749.912471 434.305548 
L 750.905177 436.510767 
L 751.897883 430.047655 
L 752.890589 435.681331 
L 753.883295 432.196819 
L 754.876001 429.536432 
L 755.868707 433.667715 
L 756.861413 434.380698 
L 757.854118 430.65002 
L 758.846824 435.045476 
L 759.83953 433.086116 
L 760.832236 430.515488 
L 761.824942 437.23518 
L 762.817648 432.90032 
L 763.810354 429.859955 
L 764.80306 432.14089 
L 765.795766 436.733417 
L 766.788472 437.789366 
L 767.781178 432.797745 
L 768.773884 428.855216 
L 769.76659 435.603288 
L 770.759295 435.410764 
L 771.752001 434.330127 
L 772.744707 438.073101 
L 773.737413 431.750635 
L 774.730119 433.922356 
L 775.722825 431.034788 
L 776.715531 434.312045 
L 777.708237 434.187631 
L 779.693649 431.136381 
L 781.679061 437.603508 
L 782.671767 429.098816 
L 783.664473 437.126115 
L 784.657178 435.478595 
L 785.649884 431.395415 
L 786.64259 426.637027 
L 787.635296 430.689157 
L 788.628002 430.779315 
L 789.620708 437.263692 
L 790.613414 440.40536 
L 791.60612 435.376673 
L 792.598826 433.366199 
L 793.591532 440.382253 
L 794.584238 431.560266 
L 795.576944 434.749524 
L 796.56965 429.352834 
L 797.562355 436.069069 
L 798.555061 433.483463 
L 799.547767 434.262988 
L 800.540473 435.354008 
L 801.533179 443.334556 
L 802.525885 438.307094 
L 803.518591 442.768198 
L 804.511297 430.35435 
L 805.504003 440.413197 
L 806.496709 437.817494 
L 807.489415 433.147067 
L 808.482121 435.995953 
L 809.474827 435.675239 
L 810.467532 434.880255 
L 811.460238 438.416017 
L 812.452944 437.626018 
L 813.44565 439.803319 
L 814.438356 440.586133 
L 815.431062 436.287077 
L 816.423768 437.147212 
L 817.416474 433.948832 
L 818.40918 432.949326 
L 819.401886 429.516154 
L 820.394592 437.196758 
L 821.387298 435.218425 
L 822.380004 434.406181 
L 823.372709 436.111974 
L 824.365415 431.574496 
L 825.358121 440.857781 
L 826.350827 434.162908 
L 827.343533 433.782936 
L 828.336239 436.387129 
L 829.328945 439.610234 
L 830.321651 437.949229 
L 831.314357 439.031567 
L 832.307063 435.012226 
L 833.299769 437.943237 
L 834.292475 433.021587 
L 835.285181 438.882676 
L 836.277886 434.384821 
L 837.270592 433.191407 
L 839.256004 442.905496 
L 840.24871 435.556254 
L 841.241416 440.204347 
L 842.234122 441.689085 
L 843.226828 434.479577 
L 844.219534 441.410807 
L 845.21224 439.717115 
L 846.204946 435.338542 
L 847.197652 433.64279 
L 848.190358 435.814956 
L 850.175769 442.18998 
L 851.168475 439.127351 
L 852.161181 438.537388 
L 853.153887 436.068359 
L 854.146593 434.399936 
L 855.139299 436.901466 
L 856.132005 439.811637 
L 857.124711 438.938175 
L 858.117417 440.695281 
L 859.110123 443.778547 
L 860.102829 433.9414 
L 861.095535 439.569515 
L 862.088241 438.802001 
L 863.080946 441.326878 
L 864.073652 436.967888 
L 865.066358 436.470724 
L 866.059064 443.206764 
L 867.05177 436.908169 
L 868.044476 436.263848 
L 869.037182 442.891896 
L 870.029888 440.918862 
L 871.022594 436.094789 
L 872.0153 438.573593 
L 873.008006 442.245798 
L 874.000712 439.924265 
L 874.993418 438.494162 
L 875.986123 438.377176 
L 876.978829 443.482966 
L 877.971535 440.290139 
L 878.964241 440.776186 
L 879.956947 438.873958 
L 880.949653 440.752063 
L 881.942359 434.501695 
L 882.935065 438.868444 
L 883.927771 439.007702 
L 884.920477 435.990376 
L 885.913183 441.114875 
L 886.905889 442.752518 
L 887.898595 443.412547 
L 888.8913 439.168505 
L 889.884006 437.739907 
L 890.876712 442.345271 
L 891.869418 440.000337 
L 892.862124 438.493601 
L 893.85483 440.500124 
L 894.847536 438.875073 
L 895.840242 441.161305 
L 896.832948 440.486879 
L 897.825654 435.198835 
L 899.811066 441.685562 
L 900.803772 446.442475 
L 901.796477 442.507639 
L 902.789183 440.401905 
L 903.781889 447.138598 
L 904.774595 442.216176 
L 905.767301 439.742353 
L 906.760007 438.695835 
L 907.752713 436.098205 
L 908.745419 445.48998 
L 909.738125 439.34959 
L 910.730831 437.100054 
L 911.723537 441.386233 
L 912.716243 435.095165 
L 913.708949 441.536914 
L 914.701655 441.143918 
L 915.69436 441.474442 
L 916.687066 437.170942 
L 918.672478 444.188373 
L 919.665184 443.926151 
L 920.65789 444.35373 
L 921.650596 436.196169 
L 922.643302 438.855086 
L 923.636008 445.15431 
L 924.628714 444.796822 
L 925.62142 440.729331 
L 926.614126 433.182972 
L 927.606832 441.536174 
L 928.599537 438.076257 
L 929.592243 443.552546 
L 930.584949 436.60544 
L 931.577655 440.023868 
L 932.570361 440.473241 
L 933.563067 446.993863 
L 934.555773 442.374851 
L 935.548479 438.417363 
L 936.541185 446.472246 
L 937.533891 438.769592 
L 938.526597 440.688297 
L 939.519303 442.0799 
L 940.512009 442.599532 
L 941.504714 442.263897 
L 942.49742 439.198504 
L 943.490126 442.740833 
L 944.482832 440.384533 
L 945.475538 440.099539 
L 946.468244 441.757061 
L 947.46095 438.99432 
L 948.453656 439.705272 
L 949.446362 441.149597 
L 950.439068 445.70152 
L 951.431774 440.071191 
L 952.42448 446.307712 
L 953.417186 440.041175 
L 954.409891 442.218838 
L 955.402597 440.044521 
L 956.395303 444.539332 
L 957.388009 440.792333 
L 958.380715 441.279316 
L 959.373421 443.779768 
L 960.366127 440.217976 
L 961.358833 439.560524 
L 962.351539 444.572695 
L 963.344245 441.602894 
L 964.336951 445.287574 
L 965.329657 439.970833 
L 966.322363 445.827452 
L 967.315068 442.450603 
L 968.307774 440.676167 
L 969.30048 440.25659 
L 970.293186 439.092942 
L 971.285892 439.127475 
L 972.278598 437.221868 
L 973.271304 444.754972 
L 974.26401 440.472479 
L 975.256716 445.378443 
L 977.242128 444.236622 
L 978.234834 444.526607 
L 979.22754 446.508045 
L 980.220246 446.763407 
L 981.212951 447.581347 
L 982.205657 451.476439 
L 983.198363 440.905031 
L 984.191069 439.977028 
L 985.183775 439.660108 
L 987.169187 445.908799 
L 988.161893 441.86119 
L 989.154599 442.686909 
L 990.147305 441.126885 
L 991.140011 441.55738 
L 993.125423 444.432657 
L 994.118128 442.99871 
L 995.110834 444.286704 
L 996.10354 445.823722 
L 997.096246 441.859975 
L 999.081658 447.943192 
L 1000.074364 446.521054 
L 1001.06707 443.035509 
L 1002.059776 441.700622 
L 1003.052482 444.206251 
L 1004.045188 443.370174 
L 1005.037894 439.984905 
L 1006.0306 445.349511 
L 1007.023305 443.757827 
L 1008.016011 448.130175 
L 1009.008717 443.76127 
L 1010.001423 445.159723 
L 1010.994129 447.947575 
L 1011.986835 441.502527 
L 1012.979541 441.059779 
L 1013.972247 449.531966 
L 1014.964953 442.843162 
L 1015.957659 438.113005 
L 1016.950365 443.590551 
L 1017.943071 444.606056 
L 1018.935777 446.250094 
L 1019.928482 447.42608 
L 1020.921188 447.887724 
L 1021.913894 447.862795 
L 1022.9066 451.614559 
L 1023.899306 444.303032 
L 1024.892012 446.23212 
L 1025.884718 439.278283 
L 1026.877424 441.94277 
L 1027.87013 445.062265 
L 1028.862836 442.708098 
L 1029.855542 444.081429 
L 1030.848248 443.8743 
L 1031.840954 439.554354 
L 1032.833659 445.739407 
L 1033.826365 443.323471 
L 1034.819071 444.918964 
L 1035.811777 444.618475 
L 1036.804483 444.059329 
L 1037.797189 440.242351 
L 1038.789895 446.638155 
L 1039.782601 444.294081 
L 1040.775307 444.825462 
L 1041.768013 445.610967 
L 1042.760719 444.484977 
L 1043.753425 442.168281 
L 1044.746131 445.972559 
L 1045.738837 444.359466 
L 1046.731542 440.501733 
L 1047.724248 443.127186 
L 1048.716954 439.402831 
L 1049.70966 444.945385 
L 1050.702366 443.043665 
L 1051.695072 440.873272 
L 1052.687778 444.175224 
L 1053.680484 441.149589 
L 1054.67319 439.379125 
L 1055.665896 442.862603 
L 1056.658602 448.036531 
L 1057.651308 449.843555 
L 1058.644014 443.442599 
L 1059.636719 442.350322 
L 1060.629425 444.065959 
L 1061.622131 442.018428 
L 1062.614837 443.280852 
L 1063.607543 445.872103 
L 1064.600249 442.597174 
L 1065.592955 445.859275 
L 1066.585661 439.599054 
L 1067.578367 441.607133 
L 1068.571073 456.227391 
L 1069.563779 438.769684 
L 1070.556485 445.942161 
L 1071.549191 449.722324 
L 1072.541896 444.918813 
L 1073.534602 451.195667 
L 1074.527308 446.515415 
L 1075.520014 441.297919 
L 1076.51272 443.99179 
L 1077.505426 445.616597 
L 1078.498132 447.539022 
L 1079.490838 445.91607 
L 1080.483544 443.356335 
L 1081.47625 445.664247 
L 1082.468956 448.332519 
L 1084.454368 443.139937 
L 1085.447073 447.305452 
L 1087.432485 452.504894 
L 1088.425191 449.291985 
L 1089.417897 447.796664 
L 1090.410603 451.532879 
L 1091.403309 443.197426 
L 1092.396015 448.521422 
L 1093.388721 443.886425 
L 1094.381427 442.916143 
L 1095.374133 447.562889 
L 1096.366839 447.041924 
L 1097.359545 446.339027 
L 1098.35225 448.497458 
L 1099.344956 445.119847 
L 1100.337662 447.530639 
L 1101.330368 448.65805 
L 1102.323074 446.057697 
L 1103.31578 441.42031 
L 1104.308486 447.224036 
L 1105.301192 445.698323 
L 1106.293898 443.832393 
L 1107.286604 449.474279 
L 1108.27931 442.95685 
L 1109.272016 450.366216 
L 1110.264722 442.547886 
L 1111.257428 447.594535 
L 1112.250133 445.5428 
L 1113.242839 439.585598 
L 1114.235545 448.093017 
L 1115.228251 448.772384 
L 1116.220957 445.393083 
L 1117.213663 450.4405 
L 1118.206369 441.134398 
L 1119.199075 452.841779 
L 1120.191781 444.983522 
L 1121.184487 445.253513 
L 1122.177193 446.730411 
L 1123.169899 444.844276 
L 1124.162605 445.356612 
L 1125.15531 444.841638 
L 1126.148016 449.331264 
L 1127.140722 448.90717 
L 1128.133428 443.752671 
L 1129.126134 447.446874 
L 1130.11884 446.177565 
L 1131.111546 444.34019 
L 1132.104252 444.308466 
L 1133.096958 442.242492 
L 1134.089664 449.109568 
L 1135.08237 442.286742 
L 1136.075076 442.447751 
L 1137.067782 447.896475 
L 1138.060487 444.740259 
L 1139.053193 448.028636 
L 1140.045899 443.980639 
L 1142.031311 449.902675 
L 1143.024017 445.988647 
L 1144.016723 442.724853 
L 1145.009429 452.722955 
L 1146.002135 446.168432 
L 1146.994841 443.738707 
L 1147.987547 447.692399 
L 1148.980253 446.680135 
L 1149.972959 445.035797 
L 1150.965664 445.01596 
L 1151.95837 449.966283 
L 1152.951076 445.816892 
L 1153.943782 444.863567 
L 1154.936488 444.951817 
L 1155.929194 445.342407 
L 1156.9219 446.269446 
L 1157.914606 445.541244 
L 1158.907312 449.2069 
L 1159.900018 446.578126 
L 1160.892724 447.624036 
L 1161.88543 449.837799 
L 1162.878136 448.489007 
L 1163.870841 447.542271 
L 1164.863547 445.789601 
L 1165.856253 448.017809 
L 1166.848959 444.41856 
L 1167.841665 443.827559 
L 1168.834371 446.861091 
L 1169.827077 448.409047 
L 1170.819783 452.252812 
L 1171.812489 443.872244 
L 1172.805195 444.182493 
L 1173.797901 451.739368 
L 1174.790607 449.864327 
L 1175.783313 450.847997 
L 1176.776019 443.129355 
L 1177.768724 448.927946 
L 1178.76143 442.540555 
L 1179.754136 451.86795 
L 1180.746842 449.332295 
L 1181.739548 444.048851 
L 1182.732254 447.037856 
L 1183.72496 447.979419 
L 1184.717666 444.932454 
L 1185.710372 447.382709 
L 1186.703078 448.599493 
L 1187.695784 445.512728 
L 1188.68849 441.451923 
L 1189.681196 441.331024 
L 1190.673901 445.452937 
L 1191.666607 444.918371 
L 1192.659313 448.221023 
L 1193.652019 444.036345 
L 1194.644725 445.661347 
L 1195.637431 443.169852 
L 1196.630137 445.605674 
L 1197.622843 445.38607 
L 1198.615549 447.468519 
L 1199.608255 454.902689 
L 1200.600961 444.983143 
L 1201.593667 445.157544 
L 1202.586373 442.980989 
L 1203.579078 447.536775 
L 1204.571784 445.613649 
L 1205.56449 450.186985 
L 1206.557196 453.83094 
L 1207.549902 442.650606 
L 1208.542608 447.263382 
L 1209.535314 445.516894 
L 1210.52802 446.230316 
L 1211.520726 446.179952 
L 1212.513432 449.113191 
L 1213.506138 449.756632 
L 1214.498844 445.313468 
L 1215.49155 452.630906 
L 1216.484255 453.602525 
L 1217.476961 448.000849 
L 1218.469667 443.225938 
L 1219.462373 447.843974 
L 1220.455079 449.491931 
L 1221.447785 439.029925 
L 1222.440491 446.215916 
L 1223.433197 446.628875 
L 1224.425903 451.640635 
L 1225.418609 445.289994 
L 1226.411315 450.713389 
L 1227.404021 449.233218 
L 1228.396727 449.178141 
L 1229.389432 443.515528 
L 1230.382138 451.933297 
L 1231.374844 443.557639 
L 1232.36755 444.27568 
L 1233.360256 445.675227 
L 1234.352962 448.746593 
L 1235.345668 446.22613 
L 1236.338374 448.438949 
L 1237.33108 444.44255 
L 1238.323786 445.480645 
L 1239.316492 452.603662 
L 1240.309198 449.480062 
L 1241.301904 444.372897 
L 1242.29461 448.914504 
L 1243.287315 451.78806 
L 1244.280021 454.179819 
L 1245.272727 446.305683 
L 1245.272727 446.305683 
" clip-path="url(#p8953982105)" style="fill: none; stroke: #1f77b4; stroke-width: 1.5; stroke-linecap: square"/>
   </g>
   <g id="patch_3">
    <path d="M 180 512.64 
L 180 69.12 
" style="fill: none; stroke: #000000; stroke-width: 0.8; stroke-linejoin: miter; stroke-linecap: square"/>
   </g>
   <g id="patch_4">
    <path d="M 1296 512.64 
L 1296 69.12 
" style="fill: none; stroke: #000000; stroke-width: 0.8; stroke-linejoin: miter; stroke-linecap: square"/>
   </g>
   <g id="patch_5">
    <path d="M 180 512.64 
L 1296 512.64 
" style="fill: none; stroke: #000000; stroke-width: 0.8; stroke-linejoin: miter; stroke-linecap: square"/>
   </g>
   <g id="patch_6">
    <path d="M 180 69.12 
L 1296 69.12 
" style="fill: none; stroke: #000000; stroke-width: 0.8; stroke-linejoin: miter; stroke-linecap: square"/>
   </g>
   <g id="text_13">
    <!-- source3-receiver15 -->
    <g transform="translate(544.9 60.80125) scale(0.4 -0.4)">
     <defs>
      <path id="DejaVuSans-73" d="M 2834 3397 
L 2834 2853 
Q 2591 2978 2328 3040 
Q 2066 3103 1784 3103 
Q 1356 3103 1142 2972 
Q 928 2841 928 2578 
Q 928 2378 1081 2264 
Q 1234 2150 1697 2047 
L 1894 2003 
Q 2506 1872 2764 1633 
Q 3022 1394 3022 966 
Q 3022 478 2636 193 
Q 2250 -91 1575 -91 
Q 1294 -91 989 -36 
Q 684 19 347 128 
L 347 722 
Q 666 556 975 473 
Q 1284 391 1588 391 
Q 1994 391 2212 530 
Q 2431 669 2431 922 
Q 2431 1156 2273 1281 
Q 2116 1406 1581 1522 
L 1381 1569 
Q 847 1681 609 1914 
Q 372 2147 372 2553 
Q 372 3047 722 3315 
Q 1072 3584 1716 3584 
Q 2034 3584 2315 3537 
Q 2597 3491 2834 3397 
z
" transform="scale(0.015625)"/>
      <path id="DejaVuSans-6f" d="M 1959 3097 
Q 1497 3097 1228 2736 
Q 959 2375 959 1747 
Q 959 1119 1226 758 
Q 1494 397 1959 397 
Q 2419 397 2687 759 
Q 2956 1122 2956 1747 
Q 2956 2369 2687 2733 
Q 2419 3097 1959 3097 
z
M 1959 3584 
Q 2709 3584 3137 3096 
Q 3566 2609 3566 1747 
Q 3566 888 3137 398 
Q 2709 -91 1959 -91 
Q 1206 -91 779 398 
Q 353 888 353 1747 
Q 353 2609 779 3096 
Q 1206 3584 1959 3584 
z
" transform="scale(0.015625)"/>
      <path id="DejaVuSans-75" d="M 544 1381 
L 544 3500 
L 1119 3500 
L 1119 1403 
Q 1119 906 1312 657 
Q 1506 409 1894 409 
Q 2359 409 2629 706 
Q 2900 1003 2900 1516 
L 2900 3500 
L 3475 3500 
L 3475 0 
L 2900 0 
L 2900 538 
Q 2691 219 2414 64 
Q 2138 -91 1772 -91 
Q 1169 -91 856 284 
Q 544 659 544 1381 
z
M 1991 3584 
L 1991 3584 
z
" transform="scale(0.015625)"/>
      <path id="DejaVuSans-72" d="M 2631 2963 
Q 2534 3019 2420 3045 
Q 2306 3072 2169 3072 
Q 1681 3072 1420 2755 
Q 1159 2438 1159 1844 
L 1159 0 
L 581 0 
L 581 3500 
L 1159 3500 
L 1159 2956 
Q 1341 3275 1631 3429 
Q 1922 3584 2338 3584 
Q 2397 3584 2469 3576 
Q 2541 3569 2628 3553 
L 2631 2963 
z
" transform="scale(0.015625)"/>
      <path id="DejaVuSans-63" d="M 3122 3366 
L 3122 2828 
Q 2878 2963 2633 3030 
Q 2388 3097 2138 3097 
Q 1578 3097 1268 2742 
Q 959 2388 959 1747 
Q 959 1106 1268 751 
Q 1578 397 2138 397 
Q 2388 397 2633 464 
Q 2878 531 3122 666 
L 3122 134 
Q 2881 22 2623 -34 
Q 2366 -91 2075 -91 
Q 1284 -91 818 406 
Q 353 903 353 1747 
Q 353 2603 823 3093 
Q 1294 3584 2113 3584 
Q 2378 3584 2631 3529 
Q 2884 3475 3122 3366 
z
" transform="scale(0.015625)"/>
      <path id="DejaVuSans-65" d="M 3597 1894 
L 3597 1613 
L 953 1613 
Q 991 1019 1311 708 
Q 1631 397 2203 397 
Q 2534 397 2845 478 
Q 3156 559 3463 722 
L 3463 178 
Q 3153 47 2828 -22 
Q 2503 -91 2169 -91 
Q 1331 -91 842 396 
Q 353 884 353 1716 
Q 353 2575 817 3079 
Q 1281 3584 2069 3584 
Q 2775 3584 3186 3129 
Q 3597 2675 3597 1894 
z
M 3022 2063 
Q 3016 2534 2758 2815 
Q 2500 3097 2075 3097 
Q 1594 3097 1305 2825 
Q 1016 2553 972 2059 
L 3022 2063 
z
" transform="scale(0.015625)"/>
      <path id="DejaVuSans-33" d="M 2597 2516 
Q 3050 2419 3304 2112 
Q 3559 1806 3559 1356 
Q 3559 666 3084 287 
Q 2609 -91 1734 -91 
Q 1441 -91 1130 -33 
Q 819 25 488 141 
L 488 750 
Q 750 597 1062 519 
Q 1375 441 1716 441 
Q 2309 441 2620 675 
Q 2931 909 2931 1356 
Q 2931 1769 2642 2001 
Q 2353 2234 1838 2234 
L 1294 2234 
L 1294 2753 
L 1863 2753 
Q 2328 2753 2575 2939 
Q 2822 3125 2822 3475 
Q 2822 3834 2567 4026 
Q 2313 4219 1838 4219 
Q 1578 4219 1281 4162 
Q 984 4106 628 3988 
L 628 4550 
Q 988 4650 1302 4700 
Q 1616 4750 1894 4750 
Q 2613 4750 3031 4423 
Q 3450 4097 3450 3541 
Q 3450 3153 3228 2886 
Q 3006 2619 2597 2516 
z
" transform="scale(0.015625)"/>
      <path id="DejaVuSans-2d" d="M 313 2009 
L 1997 2009 
L 1997 1497 
L 313 1497 
L 313 2009 
z
" transform="scale(0.015625)"/>
      <path id="DejaVuSans-69" d="M 603 3500 
L 1178 3500 
L 1178 0 
L 603 0 
L 603 3500 
z
M 603 4863 
L 1178 4863 
L 1178 4134 
L 603 4134 
L 603 4863 
z
" transform="scale(0.015625)"/>
      <path id="DejaVuSans-76" d="M 191 3500 
L 800 3500 
L 1894 563 
L 2988 3500 
L 3597 3500 
L 2284 0 
L 1503 0 
L 191 3500 
z
" transform="scale(0.015625)"/>
     </defs>
     <use xlink:href="#DejaVuSans-73"/>
     <use xlink:href="#DejaVuSans-6f" x="52.099609"/>
     <use xlink:href="#DejaVuSans-75" x="113.28125"/>
     <use xlink:href="#DejaVuSans-72" x="176.660156"/>
     <use xlink:href="#DejaVuSans-63" x="215.523438"/>
     <use xlink:href="#DejaVuSans-65" x="270.503906"/>
     <use xlink:href="#DejaVuSans-33" x="332.027344"/>
     <use xlink:href="#DejaVuSans-2d" x="395.650391"/>
     <use xlink:href="#DejaVuSans-72" x="431.734375"/>
     <use xlink:href="#DejaVuSans-65" x="470.597656"/>
     <use xlink:href="#DejaVuSans-63" x="532.121094"/>
     <use xlink:href="#DejaVuSans-65" x="587.101562"/>
     <use xlink:href="#DejaVuSans-69" x="648.625"/>
     <use xlink:href="#DejaVuSans-76" x="676.408203"/>
     <use xlink:href="#DejaVuSans-65" x="735.587891"/>
     <use xlink:href="#DejaVuSans-72" x="797.111328"/>
     <use xlink:href="#DejaVuSans-31" x="838.224609"/>
     <use xlink:href="#DejaVuSans-35" x="901.847656"/>
    </g>
   </g>
  </g>
 </g>
 <defs>
  <clipPath id="p8953982105">
   <rect x="180" y="69.12" width="1116" height="443.52"/>
  </clipPath>
 </defs>
</svg>
