<?xml version="1.0" encoding="utf-8" standalone="no"?>
<!DOCTYPE svg PUBLIC "-//W3C//DTD SVG 1.1//EN"
  "http://www.w3.org/Graphics/SVG/1.1/DTD/svg11.dtd">
<svg xmlns:xlink="http://www.w3.org/1999/xlink" width="1440pt" height="576pt" viewBox="0 0 1440 576" xmlns="http://www.w3.org/2000/svg" version="1.1">
 <metadata>
  <rdf:RDF xmlns:dc="http://purl.org/dc/elements/1.1/" xmlns:cc="http://creativecommons.org/ns#" xmlns:rdf="http://www.w3.org/1999/02/22-rdf-syntax-ns#">
   <cc:Work>
    <dc:type rdf:resource="http://purl.org/dc/dcmitype/StillImage"/>
    <dc:date>2024-05-22T04:49:44.309524</dc:date>
    <dc:format>image/svg+xml</dc:format>
    <dc:creator>
     <cc:Agent>
      <dc:title>Matplotlib v3.8.3, https://matplotlib.org/</dc:title>
     </cc:Agent>
    </dc:creator>
   </cc:Work>
  </rdf:RDF>
 </metadata>
 <defs>
  <style type="text/css">*{stroke-linejoin: round; stroke-linecap: butt}</style>
 </defs>
 <g id="figure_1">
  <g id="patch_1">
   <path d="M 0 576 
L 1440 576 
L 1440 0 
L 0 0 
z
" style="fill: #ffffff"/>
  </g>
  <g id="axes_1">
   <g id="patch_2">
    <path d="M 180 512.64 
L 1296 512.64 
L 1296 69.12 
L 180 69.12 
z
" style="fill: #ffffff"/>
   </g>
   <g id="matplotlib.axis_1">
    <g id="xtick_1">
     <g id="line2d_1">
      <defs>
       <path id="m93453f7b28" d="M 0 0 
L 0 3.5 
" style="stroke: #000000; stroke-width: 0.8"/>
      </defs>
      <g>
       <use xlink:href="#m93453f7b28" x="229.734567" y="512.64" style="stroke: #000000; stroke-width: 0.8"/>
      </g>
     </g>
     <g id="text_1">
      <!-- 0 -->
      <g transform="translate(226.553317 527.238438) scale(0.1 -0.1)">
       <defs>
        <path id="DejaVuSans-30" d="M 2034 4250 
Q 1547 4250 1301 3770 
Q 1056 3291 1056 2328 
Q 1056 1369 1301 889 
Q 1547 409 2034 409 
Q 2525 409 2770 889 
Q 3016 1369 3016 2328 
Q 3016 3291 2770 3770 
Q 2525 4250 2034 4250 
z
M 2034 4750 
Q 2819 4750 3233 4129 
Q 3647 3509 3647 2328 
Q 3647 1150 3233 529 
Q 2819 -91 2034 -91 
Q 1250 -91 836 529 
Q 422 1150 422 2328 
Q 422 3509 836 4129 
Q 1250 4750 2034 4750 
z
" transform="scale(0.015625)"/>
       </defs>
       <use xlink:href="#DejaVuSans-30"/>
      </g>
     </g>
    </g>
    <g id="xtick_2">
     <g id="line2d_2">
      <g>
       <use xlink:href="#m93453f7b28" x="433.04074" y="512.64" style="stroke: #000000; stroke-width: 0.8"/>
      </g>
     </g>
     <g id="text_2">
      <!-- 500 -->
      <g transform="translate(423.49699 527.238438) scale(0.1 -0.1)">
       <defs>
        <path id="DejaVuSans-35" d="M 691 4666 
L 3169 4666 
L 3169 4134 
L 1269 4134 
L 1269 2991 
Q 1406 3038 1543 3061 
Q 1681 3084 1819 3084 
Q 2600 3084 3056 2656 
Q 3513 2228 3513 1497 
Q 3513 744 3044 326 
Q 2575 -91 1722 -91 
Q 1428 -91 1123 -41 
Q 819 9 494 109 
L 494 744 
Q 775 591 1075 516 
Q 1375 441 1709 441 
Q 2250 441 2565 725 
Q 2881 1009 2881 1497 
Q 2881 1984 2565 2268 
Q 2250 2553 1709 2553 
Q 1456 2553 1204 2497 
Q 953 2441 691 2322 
L 691 4666 
z
" transform="scale(0.015625)"/>
       </defs>
       <use xlink:href="#DejaVuSans-35"/>
       <use xlink:href="#DejaVuSans-30" x="63.623047"/>
       <use xlink:href="#DejaVuSans-30" x="127.246094"/>
      </g>
     </g>
    </g>
    <g id="xtick_3">
     <g id="line2d_3">
      <g>
       <use xlink:href="#m93453f7b28" x="636.346913" y="512.64" style="stroke: #000000; stroke-width: 0.8"/>
      </g>
     </g>
     <g id="text_3">
      <!-- 1000 -->
      <g transform="translate(623.621913 527.238438) scale(0.1 -0.1)">
       <defs>
        <path id="DejaVuSans-31" d="M 794 531 
L 1825 531 
L 1825 4091 
L 703 3866 
L 703 4441 
L 1819 4666 
L 2450 4666 
L 2450 531 
L 3481 531 
L 3481 0 
L 794 0 
L 794 531 
z
" transform="scale(0.015625)"/>
       </defs>
       <use xlink:href="#DejaVuSans-31"/>
       <use xlink:href="#DejaVuSans-30" x="63.623047"/>
       <use xlink:href="#DejaVuSans-30" x="127.246094"/>
       <use xlink:href="#DejaVuSans-30" x="190.869141"/>
      </g>
     </g>
    </g>
    <g id="xtick_4">
     <g id="line2d_4">
      <g>
       <use xlink:href="#m93453f7b28" x="839.653087" y="512.64" style="stroke: #000000; stroke-width: 0.8"/>
      </g>
     </g>
     <g id="text_4">
      <!-- 1500 -->
      <g transform="translate(826.928087 527.238438) scale(0.1 -0.1)">
       <use xlink:href="#DejaVuSans-31"/>
       <use xlink:href="#DejaVuSans-35" x="63.623047"/>
       <use xlink:href="#DejaVuSans-30" x="127.246094"/>
       <use xlink:href="#DejaVuSans-30" x="190.869141"/>
      </g>
     </g>
    </g>
    <g id="xtick_5">
     <g id="line2d_5">
      <g>
       <use xlink:href="#m93453f7b28" x="1042.95926" y="512.64" style="stroke: #000000; stroke-width: 0.8"/>
      </g>
     </g>
     <g id="text_5">
      <!-- 2000 -->
      <g transform="translate(1030.23426 527.238438) scale(0.1 -0.1)">
       <defs>
        <path id="DejaVuSans-32" d="M 1228 531 
L 3431 531 
L 3431 0 
L 469 0 
L 469 531 
Q 828 903 1448 1529 
Q 2069 2156 2228 2338 
Q 2531 2678 2651 2914 
Q 2772 3150 2772 3378 
Q 2772 3750 2511 3984 
Q 2250 4219 1831 4219 
Q 1534 4219 1204 4116 
Q 875 4013 500 3803 
L 500 4441 
Q 881 4594 1212 4672 
Q 1544 4750 1819 4750 
Q 2544 4750 2975 4387 
Q 3406 4025 3406 3419 
Q 3406 3131 3298 2873 
Q 3191 2616 2906 2266 
Q 2828 2175 2409 1742 
Q 1991 1309 1228 531 
z
" transform="scale(0.015625)"/>
       </defs>
       <use xlink:href="#DejaVuSans-32"/>
       <use xlink:href="#DejaVuSans-30" x="63.623047"/>
       <use xlink:href="#DejaVuSans-30" x="127.246094"/>
       <use xlink:href="#DejaVuSans-30" x="190.869141"/>
      </g>
     </g>
    </g>
    <g id="xtick_6">
     <g id="line2d_6">
      <g>
       <use xlink:href="#m93453f7b28" x="1246.265433" y="512.64" style="stroke: #000000; stroke-width: 0.8"/>
      </g>
     </g>
     <g id="text_6">
      <!-- 2500 -->
      <g transform="translate(1233.540433 527.238438) scale(0.1 -0.1)">
       <use xlink:href="#DejaVuSans-32"/>
       <use xlink:href="#DejaVuSans-35" x="63.623047"/>
       <use xlink:href="#DejaVuSans-30" x="127.246094"/>
       <use xlink:href="#DejaVuSans-30" x="190.869141"/>
      </g>
     </g>
    </g>
   </g>
   <g id="matplotlib.axis_2">
    <g id="ytick_1">
     <g id="line2d_7">
      <defs>
       <path id="mac538b386a" d="M 0 0 
L -3.5 0 
" style="stroke: #000000; stroke-width: 0.8"/>
      </defs>
      <g>
       <use xlink:href="#mac538b386a" x="180" y="494.330967" style="stroke: #000000; stroke-width: 0.8"/>
      </g>
     </g>
     <g id="text_7">
      <!-- −6 -->
      <g transform="translate(158.257812 498.130186) scale(0.1 -0.1)">
       <defs>
        <path id="DejaVuSans-2212" d="M 678 2272 
L 4684 2272 
L 4684 1741 
L 678 1741 
L 678 2272 
z
" transform="scale(0.015625)"/>
        <path id="DejaVuSans-36" d="M 2113 2584 
Q 1688 2584 1439 2293 
Q 1191 2003 1191 1497 
Q 1191 994 1439 701 
Q 1688 409 2113 409 
Q 2538 409 2786 701 
Q 3034 994 3034 1497 
Q 3034 2003 2786 2293 
Q 2538 2584 2113 2584 
z
M 3366 4563 
L 3366 3988 
Q 3128 4100 2886 4159 
Q 2644 4219 2406 4219 
Q 1781 4219 1451 3797 
Q 1122 3375 1075 2522 
Q 1259 2794 1537 2939 
Q 1816 3084 2150 3084 
Q 2853 3084 3261 2657 
Q 3669 2231 3669 1497 
Q 3669 778 3244 343 
Q 2819 -91 2113 -91 
Q 1303 -91 875 529 
Q 447 1150 447 2328 
Q 447 3434 972 4092 
Q 1497 4750 2381 4750 
Q 2619 4750 2861 4703 
Q 3103 4656 3366 4563 
z
" transform="scale(0.015625)"/>
       </defs>
       <use xlink:href="#DejaVuSans-2212"/>
       <use xlink:href="#DejaVuSans-36" x="83.789062"/>
      </g>
     </g>
    </g>
    <g id="ytick_2">
     <g id="line2d_8">
      <g>
       <use xlink:href="#mac538b386a" x="180" y="408.340358" style="stroke: #000000; stroke-width: 0.8"/>
      </g>
     </g>
     <g id="text_8">
      <!-- −4 -->
      <g transform="translate(158.257812 412.139577) scale(0.1 -0.1)">
       <defs>
        <path id="DejaVuSans-34" d="M 2419 4116 
L 825 1625 
L 2419 1625 
L 2419 4116 
z
M 2253 4666 
L 3047 4666 
L 3047 1625 
L 3713 1625 
L 3713 1100 
L 3047 1100 
L 3047 0 
L 2419 0 
L 2419 1100 
L 313 1100 
L 313 1709 
L 2253 4666 
z
" transform="scale(0.015625)"/>
       </defs>
       <use xlink:href="#DejaVuSans-2212"/>
       <use xlink:href="#DejaVuSans-34" x="83.789062"/>
      </g>
     </g>
    </g>
    <g id="ytick_3">
     <g id="line2d_9">
      <g>
       <use xlink:href="#mac538b386a" x="180" y="322.34975" style="stroke: #000000; stroke-width: 0.8"/>
      </g>
     </g>
     <g id="text_9">
      <!-- −2 -->
      <g transform="translate(158.257812 326.148968) scale(0.1 -0.1)">
       <use xlink:href="#DejaVuSans-2212"/>
       <use xlink:href="#DejaVuSans-32" x="83.789062"/>
      </g>
     </g>
    </g>
    <g id="ytick_4">
     <g id="line2d_10">
      <g>
       <use xlink:href="#mac538b386a" x="180" y="236.359141" style="stroke: #000000; stroke-width: 0.8"/>
      </g>
     </g>
     <g id="text_10">
      <!-- 0 -->
      <g transform="translate(166.6375 240.15836) scale(0.1 -0.1)">
       <use xlink:href="#DejaVuSans-30"/>
      </g>
     </g>
    </g>
    <g id="ytick_5">
     <g id="line2d_11">
      <g>
       <use xlink:href="#mac538b386a" x="180" y="150.368532" style="stroke: #000000; stroke-width: 0.8"/>
      </g>
     </g>
     <g id="text_11">
      <!-- 2 -->
      <g transform="translate(166.6375 154.167751) scale(0.1 -0.1)">
       <use xlink:href="#DejaVuSans-32"/>
      </g>
     </g>
    </g>
   </g>
   <g id="line2d_12">
    <path d="M 230.727273 364.885029 
L 231.719979 365.541389 
L 232.712685 365.52475 
L 233.70539 363.651247 
L 235.690802 360.213228 
L 236.683508 361.190312 
L 237.676214 360.731118 
L 238.66892 357.388928 
L 240.654332 352.880383 
L 241.647038 348.854906 
L 242.639744 347.263597 
L 243.63245 341.148514 
L 244.625156 329.09568 
L 246.610568 307.451245 
L 247.603273 264.747627 
L 248.595979 230.877101 
L 249.588685 209.824363 
L 250.581391 204.462418 
L 251.574097 224.021527 
L 252.566803 204.928614 
L 253.559509 170.190362 
L 254.552215 158.837174 
L 255.544921 164.621298 
L 256.537627 191.26824 
L 257.530333 369.796509 
L 258.523039 247.709648 
L 259.515745 193.084878 
L 260.50845 161.090415 
L 261.501156 157.164718 
L 262.493862 174.272287 
L 263.486568 179.643339 
L 264.479274 160.436782 
L 265.47198 154.585472 
L 266.464686 193.414672 
L 268.450098 127.866926 
L 269.442804 128.301865 
L 270.43551 119.756324 
L 271.428216 96.74731 
L 272.420922 89.28 
L 273.413627 105.88432 
L 274.406333 114.32011 
L 275.399039 90.575966 
L 276.391745 96.96206 
L 277.384451 112.584184 
L 278.377157 100.213996 
L 280.362569 109.173235 
L 281.355275 97.26819 
L 282.347981 97.116246 
L 284.333393 125.979851 
L 285.326099 106.825035 
L 286.318804 102.400152 
L 287.31151 127.184963 
L 288.304216 120.343106 
L 289.296922 99.461697 
L 290.289628 112.335332 
L 291.282334 140.222718 
L 292.27504 142.7541 
L 293.267746 148.636405 
L 294.260452 144.211181 
L 295.253158 148.137813 
L 296.245864 124.307166 
L 297.23857 128.951831 
L 298.231276 121.452062 
L 299.223981 119.142312 
L 300.216687 148.21416 
L 301.209393 213.276055 
L 302.202099 142.480504 
L 303.194805 134.589221 
L 304.187511 146.360351 
L 305.180217 159.715836 
L 306.172923 198.571469 
L 307.165629 219.757874 
L 308.158335 224.891126 
L 309.151041 201.994116 
L 310.143747 193.959384 
L 311.136453 215.539583 
L 312.129159 249.644211 
L 313.121864 288.409857 
L 314.11457 285.226264 
L 315.107276 317.281618 
L 316.099982 278.411574 
L 317.092688 330.174843 
L 318.085394 302.344822 
L 319.0781 322.732214 
L 320.070806 292.197421 
L 321.063512 331.145029 
L 322.056218 304.398896 
L 323.048924 305.662575 
L 324.04163 324.310023 
L 325.034336 304.859406 
L 326.027041 307.10194 
L 327.019747 324.059401 
L 328.012453 321.859527 
L 329.005159 310.340672 
L 329.997865 327.18407 
L 330.990571 341.401459 
L 331.983277 325.990333 
L 332.975983 359.131095 
L 333.968689 311.086876 
L 334.961395 315.828889 
L 335.954101 322.62594 
L 336.946807 332.07772 
L 337.939513 331.126986 
L 338.932218 331.611496 
L 339.924924 329.191135 
L 340.91763 341.062711 
L 341.910336 328.421164 
L 342.903042 328.973947 
L 343.895748 323.161427 
L 344.888454 354.899662 
L 345.88116 331.744629 
L 346.873866 321.767948 
L 347.866572 322.843698 
L 348.859278 327.822296 
L 349.851984 333.770426 
L 350.84469 321.760452 
L 351.837395 351.698819 
L 352.830101 301.441039 
L 353.822807 368.079511 
L 354.815513 311.6708 
L 355.808219 332.843562 
L 356.800925 356.656719 
L 357.793631 356.818393 
L 358.786337 310.865556 
L 359.779043 396.09302 
L 360.771749 300.776351 
L 361.764455 335.118394 
L 362.757161 328.228663 
L 363.749867 342.299822 
L 364.742572 326.538366 
L 365.735278 354.506946 
L 366.727984 360.907194 
L 367.72069 334.679492 
L 368.713396 375.286053 
L 369.706102 354.250656 
L 370.698808 340.1984 
L 371.691514 340.404643 
L 372.68422 441.820228 
L 373.676926 329.560207 
L 374.669632 355.256659 
L 376.655044 346.58708 
L 377.64775 386.81641 
L 378.640455 361.029265 
L 379.633161 368.131655 
L 380.625867 359.629911 
L 381.618573 364.604701 
L 382.611279 353.907421 
L 383.603985 348.074761 
L 384.596691 360.985928 
L 385.589397 340.083429 
L 386.582103 345.426112 
L 387.574809 404.459557 
L 388.567515 339.026309 
L 389.560221 350.792369 
L 390.552927 344.178071 
L 391.545632 352.687357 
L 392.538338 377.164048 
L 393.531044 366.609781 
L 394.52375 361.571848 
L 395.516456 347.446701 
L 396.509162 331.709605 
L 397.501868 359.312011 
L 398.494574 363.77335 
L 399.48728 341.136513 
L 400.479986 391.650432 
L 401.472692 362.660982 
L 402.465398 359.587156 
L 403.458104 392.159728 
L 404.450809 399.522635 
L 405.443515 372.878703 
L 406.436221 373.263591 
L 407.428927 348.396646 
L 408.421633 353.170009 
L 409.414339 337.907602 
L 410.407045 356.808646 
L 411.399751 336.824339 
L 412.392457 354.602651 
L 413.385163 356.476735 
L 414.377869 344.791494 
L 415.370575 354.802752 
L 416.363281 384.727951 
L 417.355986 376.859786 
L 418.348692 376.283697 
L 419.341398 346.429105 
L 420.334104 334.042294 
L 421.32681 348.336335 
L 422.319516 366.989204 
L 423.312222 393.561964 
L 424.304928 395.623574 
L 426.29034 343.500999 
L 427.283046 341.59989 
L 428.275752 349.061193 
L 429.268458 346.321555 
L 430.261163 342.855499 
L 431.253869 348.373979 
L 432.246575 424.828829 
L 433.239281 429.171765 
L 434.231987 402.3083 
L 435.224693 338.866932 
L 436.217399 353.6023 
L 437.210105 358.641044 
L 438.202811 358.331728 
L 439.195517 422.226356 
L 440.188223 373.804884 
L 441.180929 436.83882 
L 442.173635 425.082141 
L 443.166341 348.384163 
L 444.159046 354.836123 
L 445.151752 369.531282 
L 446.144458 342.860227 
L 447.137164 347.462814 
L 448.12987 346.912654 
L 449.122576 398.453219 
L 450.115282 349.045987 
L 451.107988 373.950747 
L 452.100694 350.904415 
L 453.0934 372.41934 
L 454.086106 354.605978 
L 455.078812 411.441473 
L 456.071518 397.935832 
L 457.064223 372.570865 
L 458.056929 365.921338 
L 459.049635 362.372976 
L 460.042341 465.087218 
L 461.035047 380.665107 
L 462.027753 369.202015 
L 463.020459 372.361151 
L 464.013165 362.414461 
L 465.005871 369.546669 
L 465.998577 373.369439 
L 466.991283 374.744144 
L 467.983989 359.37486 
L 468.976695 356.793189 
L 469.9694 382.69482 
L 470.962106 385.416046 
L 471.954812 355.697277 
L 472.947518 371.471887 
L 473.940224 375.449133 
L 474.93293 394.016009 
L 475.925636 334.537246 
L 476.918342 376.574658 
L 477.911048 364.431709 
L 478.903754 368.557871 
L 479.89646 333.502296 
L 480.889166 353.35531 
L 481.881872 390.945575 
L 482.874577 366.373682 
L 483.867283 351.246263 
L 484.859989 391.298891 
L 485.852695 400.001291 
L 486.845401 365.197487 
L 487.838107 399.726777 
L 488.830813 375.125464 
L 489.823519 400.516376 
L 490.816225 377.206563 
L 491.808931 362.783643 
L 492.801637 373.391575 
L 493.794343 370.402989 
L 494.787049 407.022363 
L 495.779754 367.415162 
L 496.77246 382.234418 
L 497.765166 347.00447 
L 498.757872 400.00366 
L 499.750578 359.793183 
L 500.743284 353.956931 
L 501.73599 366.078704 
L 502.728696 336.962046 
L 503.721402 356.99888 
L 504.714108 383.206025 
L 505.706814 433.471388 
L 507.692226 347.605561 
L 508.684932 357.798184 
L 509.677637 349.688238 
L 510.670343 388.44136 
L 511.663049 348.443004 
L 512.655755 360.653309 
L 513.648461 361.475259 
L 514.641167 388.48686 
L 515.633873 374.247024 
L 516.626579 379.349766 
L 517.619285 418.945747 
L 518.611991 371.596451 
L 519.604697 346.017856 
L 520.597403 383.542609 
L 521.590109 332.342822 
L 522.582814 372.558618 
L 523.57552 366.582714 
L 524.568226 378.432126 
L 525.560932 397.771625 
L 526.553638 366.219406 
L 527.546344 353.853922 
L 528.53905 368.76431 
L 529.531756 363.994752 
L 530.524462 407.760823 
L 531.517168 393.468114 
L 532.509874 361.075171 
L 533.50258 355.690028 
L 534.495286 368.994359 
L 535.487991 350.770693 
L 536.480697 373.264743 
L 537.473403 347.013484 
L 538.466109 340.005604 
L 539.458815 364.026327 
L 540.451521 351.472783 
L 541.444227 387.327137 
L 542.436933 327.426211 
L 543.429639 383.17532 
L 544.422345 403.734953 
L 545.415051 359.587143 
L 546.407757 366.160774 
L 547.400463 354.221286 
L 548.393168 481.0943 
L 549.385874 363.38356 
L 550.37858 367.992761 
L 551.371286 348.18074 
L 553.356698 360.008521 
L 554.349404 371.317626 
L 555.34211 353.103934 
L 556.334816 388.802677 
L 557.327522 382.212562 
L 558.320228 365.190108 
L 559.312934 390.415678 
L 560.30564 344.696303 
L 561.298345 372.929344 
L 562.291051 382.49465 
L 563.283757 386.121714 
L 564.276463 492.48 
L 565.269169 377.121539 
L 566.261875 380.782021 
L 567.254581 388.654931 
L 568.247287 376.803248 
L 569.239993 380.733157 
L 570.232699 382.212479 
L 571.225405 377.740079 
L 572.218111 349.751319 
L 573.210817 382.825439 
L 574.203523 408.302634 
L 575.196228 355.476616 
L 576.188934 366.788554 
L 577.18164 361.641713 
L 578.174346 378.495772 
L 579.167052 369.194314 
L 580.159758 385.86753 
L 581.152464 383.911395 
L 582.14517 374.810736 
L 583.137876 390.126809 
L 584.130582 379.48724 
L 585.123288 383.32744 
L 586.115994 364.142357 
L 587.1087 378.961631 
L 588.101405 390.584321 
L 589.094111 465.101913 
L 590.086817 374.086367 
L 591.079523 403.886463 
L 592.072229 362.826975 
L 593.064935 396.009291 
L 594.057641 398.380351 
L 595.050347 396.462226 
L 596.043053 393.719012 
L 597.035759 386.715862 
L 598.028465 369.848011 
L 599.021171 404.825942 
L 600.013877 430.653878 
L 601.006582 387.058616 
L 601.999288 436.232189 
L 602.991994 445.081009 
L 603.9847 407.092421 
L 604.977406 409.469386 
L 605.970112 403.40609 
L 606.962818 400.25793 
L 607.955524 392.65989 
L 608.94823 379.563853 
L 609.940936 403.231891 
L 610.933642 408.536994 
L 611.926348 373.659409 
L 612.919054 386.304639 
L 613.911759 385.763262 
L 614.904465 357.452924 
L 615.897171 384.67967 
L 616.889877 395.190355 
L 617.882583 412.952505 
L 618.875289 404.047137 
L 619.867995 447.78139 
L 620.860701 421.747672 
L 621.853407 378.578581 
L 622.846113 403.793299 
L 623.838819 386.214883 
L 624.831525 377.420192 
L 625.824231 393.949577 
L 626.816936 394.738088 
L 627.809642 390.373625 
L 628.802348 390.293998 
L 629.795054 397.711836 
L 630.78776 412.393646 
L 631.780466 417.277998 
L 632.773172 394.430365 
L 633.765878 381.5913 
L 634.758584 402.698907 
L 635.75129 381.671791 
L 636.743996 393.009411 
L 637.736702 407.166886 
L 638.729408 406.738948 
L 639.722114 409.150992 
L 640.714819 413.404444 
L 641.707525 414.875082 
L 642.700231 401.614 
L 643.692937 393.895898 
L 644.685643 416.919717 
L 645.678349 401.719592 
L 646.671055 402.431153 
L 647.663761 401.643315 
L 648.656467 405.19844 
L 649.649173 387.994725 
L 650.641879 399.437948 
L 651.634585 404.084912 
L 652.627291 401.79105 
L 653.619996 407.530606 
L 654.612702 390.739904 
L 655.605408 414.399432 
L 656.598114 416.833444 
L 657.59082 402.106588 
L 658.583526 390.964084 
L 659.576232 405.640538 
L 660.568938 410.086914 
L 661.561644 389.065341 
L 662.55435 395.658501 
L 663.547056 400.449222 
L 664.539762 399.606369 
L 665.532468 401.937645 
L 666.525173 406.036842 
L 667.517879 403.466224 
L 668.510585 398.898902 
L 670.495997 419.291947 
L 671.488703 403.345459 
L 672.481409 403.804915 
L 673.474115 403.878502 
L 674.466821 417.935193 
L 675.459527 426.364601 
L 676.452233 412.245359 
L 677.444939 406.833849 
L 678.437645 393.817063 
L 679.43035 399.469686 
L 680.423056 402.145887 
L 681.415762 412.750566 
L 682.408468 412.726009 
L 683.401174 401.526425 
L 684.39388 404.545762 
L 685.386586 397.854784 
L 686.379292 402.349774 
L 687.371998 410.287593 
L 688.364704 407.760847 
L 689.35741 413.29314 
L 690.350116 406.595977 
L 691.342822 410.294077 
L 692.335527 407.858918 
L 693.328233 414.33431 
L 694.320939 407.045848 
L 695.313645 404.536647 
L 696.306351 408.434326 
L 697.299057 409.032584 
L 698.291763 415.433621 
L 699.284469 403.973168 
L 700.277175 408.459973 
L 701.269881 405.977202 
L 702.262587 406.64241 
L 703.255293 409.284623 
L 704.247999 401.593277 
L 705.240705 406.696163 
L 707.226116 401.586122 
L 708.218822 403.128498 
L 709.211528 407.019539 
L 710.204234 401.430024 
L 711.19694 407.137796 
L 712.189646 406.141911 
L 713.182352 408.761862 
L 714.175058 409.742286 
L 716.16047 404.701272 
L 717.153176 411.581745 
L 718.145882 410.158423 
L 719.138587 408.933989 
L 720.131293 406.539249 
L 721.123999 404.98871 
L 722.116705 407.416659 
L 723.109411 407.883625 
L 724.102117 407.781939 
L 725.094823 408.033978 
L 726.087529 414.682319 
L 728.072941 406.396908 
L 729.065647 405.591984 
L 730.058353 408.278698 
L 731.051059 409.922186 
L 732.043764 406.563569 
L 733.03647 405.691315 
L 734.029176 409.122066 
L 735.021882 410.385446 
L 736.014588 412.054334 
L 737.007294 413.292841 
L 738 407.67825 
L 738.992706 409.605707 
L 739.985412 404.915098 
L 740.978118 406.309419 
L 741.970824 409.847464 
L 742.96353 408.103501 
L 743.956236 409.624549 
L 744.948941 409.74991 
L 745.941647 408.035384 
L 746.934353 405.669605 
L 747.927059 406.552187 
L 748.919765 409.775214 
L 749.912471 409.188635 
L 750.905177 408.738313 
L 751.897883 414.28828 
L 752.890589 408.349302 
L 753.883295 409.0724 
L 754.876001 413.343309 
L 755.868707 410.168168 
L 756.861413 407.973751 
L 757.854118 409.922697 
L 758.846824 408.831911 
L 759.83953 403.954848 
L 760.832236 411.509032 
L 761.824942 407.186269 
L 762.817648 411.100897 
L 763.810354 413.427566 
L 764.80306 412.164059 
L 765.795766 408.419473 
L 767.781178 407.548493 
L 768.773884 413.942746 
L 769.76659 409.800162 
L 770.759295 413.904818 
L 771.752001 411.149052 
L 772.744707 408.741429 
L 773.737413 409.98207 
L 774.730119 414.20258 
L 775.722825 410.277505 
L 776.715531 413.468254 
L 777.708237 412.793004 
L 778.700943 406.616835 
L 779.693649 410.426949 
L 780.686355 410.668847 
L 781.679061 405.068762 
L 782.671767 408.232928 
L 783.664473 414.03644 
L 784.657178 408.47255 
L 785.649884 409.982915 
L 786.64259 411.177714 
L 787.635296 407.485648 
L 788.628002 411.649684 
L 790.613414 416.014496 
L 791.60612 412.002531 
L 792.598826 415.689431 
L 793.591532 413.651204 
L 794.584238 411.279831 
L 795.576944 412.328044 
L 796.56965 413.173323 
L 797.562355 412.676596 
L 798.555061 413.463984 
L 799.547767 410.044644 
L 800.540473 412.787642 
L 801.533179 411.080633 
L 802.525885 410.698435 
L 803.518591 415.91432 
L 804.511297 414.86567 
L 805.504003 409.629584 
L 806.496709 413.221164 
L 807.489415 416.266216 
L 808.482121 413.537137 
L 809.474827 412.247414 
L 810.467532 413.688074 
L 811.460238 412.078091 
L 812.452944 412.532978 
L 813.44565 413.76701 
L 815.431062 409.610563 
L 816.423768 410.785746 
L 817.416474 413.269176 
L 818.40918 411.760055 
L 819.401886 414.909602 
L 820.394592 419.623179 
L 821.387298 412.906247 
L 822.380004 414.542676 
L 823.372709 413.894591 
L 824.365415 413.985321 
L 825.358121 420.620241 
L 826.350827 411.112875 
L 827.343533 414.770558 
L 828.336239 412.275288 
L 829.328945 414.431051 
L 830.321651 414.747554 
L 831.314357 410.367931 
L 832.307063 414.579308 
L 833.299769 412.647565 
L 834.292475 413.330614 
L 835.285181 412.849567 
L 836.277886 413.531018 
L 837.270592 416.167575 
L 838.263298 411.931544 
L 839.256004 414.705742 
L 840.24871 412.063216 
L 841.241416 415.518496 
L 842.234122 419.408017 
L 843.226828 415.637839 
L 844.219534 417.923355 
L 845.21224 413.909658 
L 846.204946 415.17653 
L 847.197652 413.854976 
L 848.190358 415.713349 
L 849.183064 414.063697 
L 850.175769 414.113017 
L 851.168475 413.776017 
L 852.161181 414.717573 
L 853.153887 416.126666 
L 854.146593 414.320944 
L 855.139299 416.694144 
L 856.132005 415.564971 
L 857.124711 412.086074 
L 858.117417 422.215257 
L 859.110123 409.847737 
L 860.102829 417.24485 
L 861.095535 418.091099 
L 863.080946 413.867206 
L 864.073652 411.155288 
L 865.066358 417.093698 
L 866.059064 415.537974 
L 867.05177 411.922611 
L 868.044476 412.432281 
L 869.037182 418.334142 
L 870.029888 414.36555 
L 871.022594 415.066857 
L 872.0153 416.741108 
L 873.008006 416.373208 
L 874.000712 416.52326 
L 874.993418 419.238057 
L 875.986123 416.713691 
L 877.971535 421.11984 
L 878.964241 415.854779 
L 879.956947 420.357144 
L 880.949653 414.928265 
L 881.942359 415.707526 
L 882.935065 419.923148 
L 883.927771 417.30369 
L 884.920477 416.556196 
L 885.913183 413.672752 
L 887.898595 418.263365 
L 888.8913 418.880942 
L 889.884006 413.047637 
L 890.876712 413.583032 
L 891.869418 416.749703 
L 892.862124 417.749542 
L 893.85483 414.050973 
L 894.847536 416.369801 
L 895.840242 421.262917 
L 896.832948 415.230973 
L 897.825654 419.376153 
L 898.81836 419.902814 
L 899.811066 416.15466 
L 900.803772 415.140303 
L 901.796477 418.370432 
L 902.789183 414.617947 
L 903.781889 419.204927 
L 904.774595 419.609545 
L 905.767301 418.071168 
L 906.760007 418.585076 
L 907.752713 414.506862 
L 908.745419 414.774389 
L 909.738125 418.107409 
L 910.730831 420.133951 
L 911.723537 421.61505 
L 912.716243 414.205558 
L 913.708949 413.431217 
L 914.701655 419.079574 
L 915.69436 415.668483 
L 916.687066 416.310948 
L 917.679772 415.782605 
L 918.672478 419.302758 
L 919.665184 415.277926 
L 920.65789 423.815329 
L 921.650596 415.989107 
L 922.643302 416.555005 
L 923.636008 420.496247 
L 924.628714 414.511862 
L 925.62142 417.440694 
L 927.606832 417.666093 
L 928.599537 419.574925 
L 929.592243 419.952745 
L 930.584949 417.166438 
L 931.577655 418.034472 
L 932.570361 417.192405 
L 933.563067 420.524361 
L 934.555773 416.513359 
L 935.548479 417.80065 
L 936.541185 421.393019 
L 937.533891 418.256634 
L 938.526597 417.921411 
L 939.519303 420.296841 
L 940.512009 416.553096 
L 941.504714 425.084945 
L 942.49742 418.217187 
L 943.490126 417.863322 
L 944.482832 417.198847 
L 945.475538 417.971248 
L 946.468244 420.69813 
L 947.46095 416.873658 
L 948.453656 422.61205 
L 949.446362 414.933792 
L 950.439068 417.426949 
L 951.431774 417.396291 
L 952.42448 418.077385 
L 953.417186 417.754197 
L 954.409891 415.934929 
L 955.402597 419.569798 
L 956.395303 415.924589 
L 957.388009 416.905223 
L 958.380715 426.475399 
L 959.373421 419.138935 
L 960.366127 421.145557 
L 961.358833 420.431764 
L 962.351539 421.692539 
L 963.344245 418.219673 
L 964.336951 415.841345 
L 965.329657 422.50486 
L 966.322363 418.348231 
L 967.315068 423.203693 
L 968.307774 415.956536 
L 969.30048 424.123217 
L 970.293186 414.797275 
L 971.285892 414.60934 
L 972.278598 421.796987 
L 973.271304 418.653995 
L 974.26401 420.459884 
L 975.256716 423.219995 
L 977.242128 416.530381 
L 978.234834 419.286961 
L 979.22754 420.219204 
L 980.220246 417.982131 
L 981.212951 418.613349 
L 982.205657 420.288997 
L 983.198363 422.339707 
L 984.191069 421.515534 
L 985.183775 423.973954 
L 986.176481 421.319172 
L 987.169187 421.870067 
L 988.161893 419.687706 
L 989.154599 418.522144 
L 990.147305 421.206543 
L 991.140011 417.12559 
L 992.132717 423.215777 
L 993.125423 421.421345 
L 994.118128 424.187955 
L 995.110834 418.922418 
L 996.10354 419.330444 
L 997.096246 414.26057 
L 998.088952 426.938181 
L 999.081658 419.683295 
L 1000.074364 418.370855 
L 1001.06707 416.320566 
L 1002.059776 422.590949 
L 1003.052482 421.486221 
L 1004.045188 416.91488 
L 1005.037894 417.041348 
L 1006.0306 423.978696 
L 1007.023305 423.52905 
L 1008.016011 418.735947 
L 1009.008717 421.999447 
L 1010.001423 419.729531 
L 1010.994129 415.002432 
L 1011.986835 417.603278 
L 1012.979541 418.422483 
L 1013.972247 420.675512 
L 1014.964953 423.96703 
L 1015.957659 418.518588 
L 1016.950365 422.018251 
L 1017.943071 416.048732 
L 1019.928482 422.292436 
L 1020.921188 419.832163 
L 1021.913894 420.760217 
L 1022.9066 422.802717 
L 1023.899306 423.207446 
L 1024.892012 422.749021 
L 1025.884718 425.431992 
L 1026.877424 416.176667 
L 1027.87013 421.453286 
L 1028.862836 421.881041 
L 1029.855542 419.229418 
L 1030.848248 419.347332 
L 1031.840954 422.170439 
L 1032.833659 421.539906 
L 1033.826365 421.198076 
L 1034.819071 419.560767 
L 1035.811777 419.844475 
L 1036.804483 422.255228 
L 1037.797189 421.665952 
L 1038.789895 422.211841 
L 1039.782601 419.298281 
L 1040.775307 425.100303 
L 1041.768013 417.740897 
L 1042.760719 420.462149 
L 1043.753425 421.891882 
L 1044.746131 418.3297 
L 1045.738837 420.380617 
L 1046.731542 422.814671 
L 1047.724248 422.209206 
L 1048.716954 423.041333 
L 1049.70966 416.713706 
L 1050.702366 423.179778 
L 1051.695072 421.987052 
L 1052.687778 425.141625 
L 1053.680484 424.402789 
L 1054.67319 420.228013 
L 1055.665896 425.808563 
L 1056.658602 420.358224 
L 1057.651308 430.85486 
L 1058.644014 418.366916 
L 1059.636719 417.571158 
L 1060.629425 421.809312 
L 1061.622131 424.492321 
L 1062.614837 424.462012 
L 1063.607543 419.781064 
L 1064.600249 423.63536 
L 1065.592955 424.415235 
L 1066.585661 420.85263 
L 1067.578367 425.273808 
L 1068.571073 420.721476 
L 1069.563779 420.721686 
L 1070.556485 419.011374 
L 1071.549191 420.565909 
L 1072.541896 422.800889 
L 1073.534602 421.395581 
L 1074.527308 424.041356 
L 1075.520014 421.820198 
L 1076.51272 420.901629 
L 1077.505426 424.391347 
L 1078.498132 424.920375 
L 1079.490838 423.589446 
L 1080.483544 418.938387 
L 1081.47625 418.626817 
L 1082.468956 419.621624 
L 1083.461662 418.465794 
L 1084.454368 421.737364 
L 1085.447073 423.214352 
L 1086.439779 422.060838 
L 1087.432485 426.407998 
L 1088.425191 427.357688 
L 1089.417897 424.908091 
L 1090.410603 424.502527 
L 1091.403309 423.406548 
L 1092.396015 420.200805 
L 1093.388721 421.931698 
L 1094.381427 421.908525 
L 1095.374133 426.80342 
L 1096.366839 421.556943 
L 1097.359545 421.178785 
L 1098.35225 422.670566 
L 1099.344956 423.796623 
L 1100.337662 424.388478 
L 1101.330368 418.268787 
L 1102.323074 425.719592 
L 1103.31578 425.116683 
L 1104.308486 421.937914 
L 1105.301192 423.389629 
L 1106.293898 421.174588 
L 1107.286604 423.423909 
L 1108.27931 419.99542 
L 1109.272016 422.517166 
L 1110.264722 425.973074 
L 1111.257428 428.845175 
L 1112.250133 420.761919 
L 1113.242839 418.893741 
L 1114.235545 426.175743 
L 1115.228251 422.481335 
L 1116.220957 419.902656 
L 1117.213663 422.419295 
L 1118.206369 422.161605 
L 1119.199075 429.62299 
L 1120.191781 425.307072 
L 1121.184487 422.182975 
L 1122.177193 425.057102 
L 1123.169899 423.486523 
L 1124.162605 424.427544 
L 1125.15531 418.615467 
L 1126.148016 420.014576 
L 1127.140722 424.337412 
L 1128.133428 419.545813 
L 1129.126134 423.966652 
L 1130.11884 419.721615 
L 1131.111546 423.842816 
L 1132.104252 422.160237 
L 1133.096958 419.185067 
L 1134.089664 424.974117 
L 1135.08237 419.935881 
L 1136.075076 423.098087 
L 1137.067782 420.760296 
L 1138.060487 424.658306 
L 1139.053193 422.959381 
L 1140.045899 427.779978 
L 1141.038605 423.321622 
L 1142.031311 423.966489 
L 1143.024017 421.269011 
L 1144.016723 421.892028 
L 1145.009429 425.166978 
L 1146.002135 418.381636 
L 1146.994841 427.36701 
L 1147.987547 418.588027 
L 1148.980253 422.622252 
L 1149.972959 423.920398 
L 1150.965664 418.561915 
L 1151.95837 425.917124 
L 1152.951076 421.696749 
L 1153.943782 424.467077 
L 1154.936488 423.97501 
L 1155.929194 424.599158 
L 1157.914606 420.235022 
L 1158.907312 427.406713 
L 1159.900018 420.964136 
L 1160.892724 422.286181 
L 1161.88543 423.150519 
L 1162.878136 421.777173 
L 1163.870841 422.26535 
L 1164.863547 426.588712 
L 1165.856253 427.470259 
L 1166.848959 424.657638 
L 1167.841665 424.216523 
L 1168.834371 423.454998 
L 1169.827077 424.444983 
L 1170.819783 426.901626 
L 1171.812489 426.058681 
L 1172.805195 421.873359 
L 1173.797901 419.109339 
L 1174.790607 421.620919 
L 1175.783313 425.56882 
L 1176.776019 421.116034 
L 1177.768724 423.605439 
L 1178.76143 420.798011 
L 1179.754136 426.353452 
L 1180.746842 420.997433 
L 1181.739548 420.400984 
L 1182.732254 422.251418 
L 1183.72496 424.817271 
L 1184.717666 421.094028 
L 1185.710372 420.708131 
L 1186.703078 425.701848 
L 1187.695784 422.333059 
L 1188.68849 423.255112 
L 1189.681196 425.127425 
L 1190.673901 425.514693 
L 1191.666607 431.737593 
L 1192.659313 423.603719 
L 1193.652019 420.006939 
L 1194.644725 425.170278 
L 1195.637431 425.17491 
L 1196.630137 423.261178 
L 1197.622843 424.754101 
L 1198.615549 423.898814 
L 1199.608255 420.631811 
L 1200.600961 423.868266 
L 1201.593667 422.9545 
L 1202.586373 422.211513 
L 1203.579078 425.489768 
L 1204.571784 426.628547 
L 1205.56449 422.41322 
L 1206.557196 424.688625 
L 1207.549902 422.517071 
L 1208.542608 422.755597 
L 1209.535314 425.091652 
L 1210.52802 422.66781 
L 1211.520726 423.324206 
L 1212.513432 420.850968 
L 1213.506138 425.597483 
L 1215.49155 421.247334 
L 1216.484255 420.071725 
L 1217.476961 430.907297 
L 1218.469667 429.645184 
L 1219.462373 421.356657 
L 1220.455079 420.449951 
L 1221.447785 422.623154 
L 1222.440491 427.397362 
L 1224.425903 422.326701 
L 1225.418609 429.262772 
L 1226.411315 420.815045 
L 1227.404021 425.745636 
L 1228.396727 420.195828 
L 1229.389432 422.288651 
L 1230.382138 425.677881 
L 1231.374844 424.418139 
L 1232.36755 419.689754 
L 1233.360256 425.410931 
L 1234.352962 428.506661 
L 1235.345668 426.076011 
L 1237.33108 424.236849 
L 1238.323786 424.553049 
L 1239.316492 421.18544 
L 1240.309198 425.139564 
L 1241.301904 422.574279 
L 1242.29461 427.941887 
L 1243.287315 426.507361 
L 1244.280021 422.393445 
L 1245.272727 425.111828 
L 1245.272727 425.111828 
" clip-path="url(#p26e7b459ba)" style="fill: none; stroke: #1f77b4; stroke-width: 1.5; stroke-linecap: square"/>
   </g>
   <g id="patch_3">
    <path d="M 180 512.64 
L 180 69.12 
" style="fill: none; stroke: #000000; stroke-width: 0.8; stroke-linejoin: miter; stroke-linecap: square"/>
   </g>
   <g id="patch_4">
    <path d="M 1296 512.64 
L 1296 69.12 
" style="fill: none; stroke: #000000; stroke-width: 0.8; stroke-linejoin: miter; stroke-linecap: square"/>
   </g>
   <g id="patch_5">
    <path d="M 180 512.64 
L 1296 512.64 
" style="fill: none; stroke: #000000; stroke-width: 0.8; stroke-linejoin: miter; stroke-linecap: square"/>
   </g>
   <g id="patch_6">
    <path d="M 180 69.12 
L 1296 69.12 
" style="fill: none; stroke: #000000; stroke-width: 0.8; stroke-linejoin: miter; stroke-linecap: square"/>
   </g>
   <g id="text_12">
    <!-- source3-receiver23 -->
    <g transform="translate(544.9 60.80125) scale(0.4 -0.4)">
     <defs>
      <path id="DejaVuSans-73" d="M 2834 3397 
L 2834 2853 
Q 2591 2978 2328 3040 
Q 2066 3103 1784 3103 
Q 1356 3103 1142 2972 
Q 928 2841 928 2578 
Q 928 2378 1081 2264 
Q 1234 2150 1697 2047 
L 1894 2003 
Q 2506 1872 2764 1633 
Q 3022 1394 3022 966 
Q 3022 478 2636 193 
Q 2250 -91 1575 -91 
Q 1294 -91 989 -36 
Q 684 19 347 128 
L 347 722 
Q 666 556 975 473 
Q 1284 391 1588 391 
Q 1994 391 2212 530 
Q 2431 669 2431 922 
Q 2431 1156 2273 1281 
Q 2116 1406 1581 1522 
L 1381 1569 
Q 847 1681 609 1914 
Q 372 2147 372 2553 
Q 372 3047 722 3315 
Q 1072 3584 1716 3584 
Q 2034 3584 2315 3537 
Q 2597 3491 2834 3397 
z
" transform="scale(0.015625)"/>
      <path id="DejaVuSans-6f" d="M 1959 3097 
Q 1497 3097 1228 2736 
Q 959 2375 959 1747 
Q 959 1119 1226 758 
Q 1494 397 1959 397 
Q 2419 397 2687 759 
Q 2956 1122 2956 1747 
Q 2956 2369 2687 2733 
Q 2419 3097 1959 3097 
z
M 1959 3584 
Q 2709 3584 3137 3096 
Q 3566 2609 3566 1747 
Q 3566 888 3137 398 
Q 2709 -91 1959 -91 
Q 1206 -91 779 398 
Q 353 888 353 1747 
Q 353 2609 779 3096 
Q 1206 3584 1959 3584 
z
" transform="scale(0.015625)"/>
      <path id="DejaVuSans-75" d="M 544 1381 
L 544 3500 
L 1119 3500 
L 1119 1403 
Q 1119 906 1312 657 
Q 1506 409 1894 409 
Q 2359 409 2629 706 
Q 2900 1003 2900 1516 
L 2900 3500 
L 3475 3500 
L 3475 0 
L 2900 0 
L 2900 538 
Q 2691 219 2414 64 
Q 2138 -91 1772 -91 
Q 1169 -91 856 284 
Q 544 659 544 1381 
z
M 1991 3584 
L 1991 3584 
z
" transform="scale(0.015625)"/>
      <path id="DejaVuSans-72" d="M 2631 2963 
Q 2534 3019 2420 3045 
Q 2306 3072 2169 3072 
Q 1681 3072 1420 2755 
Q 1159 2438 1159 1844 
L 1159 0 
L 581 0 
L 581 3500 
L 1159 3500 
L 1159 2956 
Q 1341 3275 1631 3429 
Q 1922 3584 2338 3584 
Q 2397 3584 2469 3576 
Q 2541 3569 2628 3553 
L 2631 2963 
z
" transform="scale(0.015625)"/>
      <path id="DejaVuSans-63" d="M 3122 3366 
L 3122 2828 
Q 2878 2963 2633 3030 
Q 2388 3097 2138 3097 
Q 1578 3097 1268 2742 
Q 959 2388 959 1747 
Q 959 1106 1268 751 
Q 1578 397 2138 397 
Q 2388 397 2633 464 
Q 2878 531 3122 666 
L 3122 134 
Q 2881 22 2623 -34 
Q 2366 -91 2075 -91 
Q 1284 -91 818 406 
Q 353 903 353 1747 
Q 353 2603 823 3093 
Q 1294 3584 2113 3584 
Q 2378 3584 2631 3529 
Q 2884 3475 3122 3366 
z
" transform="scale(0.015625)"/>
      <path id="DejaVuSans-65" d="M 3597 1894 
L 3597 1613 
L 953 1613 
Q 991 1019 1311 708 
Q 1631 397 2203 397 
Q 2534 397 2845 478 
Q 3156 559 3463 722 
L 3463 178 
Q 3153 47 2828 -22 
Q 2503 -91 2169 -91 
Q 1331 -91 842 396 
Q 353 884 353 1716 
Q 353 2575 817 3079 
Q 1281 3584 2069 3584 
Q 2775 3584 3186 3129 
Q 3597 2675 3597 1894 
z
M 3022 2063 
Q 3016 2534 2758 2815 
Q 2500 3097 2075 3097 
Q 1594 3097 1305 2825 
Q 1016 2553 972 2059 
L 3022 2063 
z
" transform="scale(0.015625)"/>
      <path id="DejaVuSans-33" d="M 2597 2516 
Q 3050 2419 3304 2112 
Q 3559 1806 3559 1356 
Q 3559 666 3084 287 
Q 2609 -91 1734 -91 
Q 1441 -91 1130 -33 
Q 819 25 488 141 
L 488 750 
Q 750 597 1062 519 
Q 1375 441 1716 441 
Q 2309 441 2620 675 
Q 2931 909 2931 1356 
Q 2931 1769 2642 2001 
Q 2353 2234 1838 2234 
L 1294 2234 
L 1294 2753 
L 1863 2753 
Q 2328 2753 2575 2939 
Q 2822 3125 2822 3475 
Q 2822 3834 2567 4026 
Q 2313 4219 1838 4219 
Q 1578 4219 1281 4162 
Q 984 4106 628 3988 
L 628 4550 
Q 988 4650 1302 4700 
Q 1616 4750 1894 4750 
Q 2613 4750 3031 4423 
Q 3450 4097 3450 3541 
Q 3450 3153 3228 2886 
Q 3006 2619 2597 2516 
z
" transform="scale(0.015625)"/>
      <path id="DejaVuSans-2d" d="M 313 2009 
L 1997 2009 
L 1997 1497 
L 313 1497 
L 313 2009 
z
" transform="scale(0.015625)"/>
      <path id="DejaVuSans-69" d="M 603 3500 
L 1178 3500 
L 1178 0 
L 603 0 
L 603 3500 
z
M 603 4863 
L 1178 4863 
L 1178 4134 
L 603 4134 
L 603 4863 
z
" transform="scale(0.015625)"/>
      <path id="DejaVuSans-76" d="M 191 3500 
L 800 3500 
L 1894 563 
L 2988 3500 
L 3597 3500 
L 2284 0 
L 1503 0 
L 191 3500 
z
" transform="scale(0.015625)"/>
     </defs>
     <use xlink:href="#DejaVuSans-73"/>
     <use xlink:href="#DejaVuSans-6f" x="52.099609"/>
     <use xlink:href="#DejaVuSans-75" x="113.28125"/>
     <use xlink:href="#DejaVuSans-72" x="176.660156"/>
     <use xlink:href="#DejaVuSans-63" x="215.523438"/>
     <use xlink:href="#DejaVuSans-65" x="270.503906"/>
     <use xlink:href="#DejaVuSans-33" x="332.027344"/>
     <use xlink:href="#DejaVuSans-2d" x="395.650391"/>
     <use xlink:href="#DejaVuSans-72" x="431.734375"/>
     <use xlink:href="#DejaVuSans-65" x="470.597656"/>
     <use xlink:href="#DejaVuSans-63" x="532.121094"/>
     <use xlink:href="#DejaVuSans-65" x="587.101562"/>
     <use xlink:href="#DejaVuSans-69" x="648.625"/>
     <use xlink:href="#DejaVuSans-76" x="676.408203"/>
     <use xlink:href="#DejaVuSans-65" x="735.587891"/>
     <use xlink:href="#DejaVuSans-72" x="797.111328"/>
     <use xlink:href="#DejaVuSans-32" x="838.224609"/>
     <use xlink:href="#DejaVuSans-33" x="901.847656"/>
    </g>
   </g>
  </g>
 </g>
 <defs>
  <clipPath id="p26e7b459ba">
   <rect x="180" y="69.12" width="1116" height="443.52"/>
  </clipPath>
 </defs>
</svg>
