<?xml version="1.0" encoding="utf-8" standalone="no"?>
<!DOCTYPE svg PUBLIC "-//W3C//DTD SVG 1.1//EN"
  "http://www.w3.org/Graphics/SVG/1.1/DTD/svg11.dtd">
<svg xmlns:xlink="http://www.w3.org/1999/xlink" width="1440pt" height="576pt" viewBox="0 0 1440 576" xmlns="http://www.w3.org/2000/svg" version="1.1">
 <metadata>
  <rdf:RDF xmlns:dc="http://purl.org/dc/elements/1.1/" xmlns:cc="http://creativecommons.org/ns#" xmlns:rdf="http://www.w3.org/1999/02/22-rdf-syntax-ns#">
   <cc:Work>
    <dc:type rdf:resource="http://purl.org/dc/dcmitype/StillImage"/>
    <dc:date>2024-05-22T04:49:44.391519</dc:date>
    <dc:format>image/svg+xml</dc:format>
    <dc:creator>
     <cc:Agent>
      <dc:title>Matplotlib v3.8.3, https://matplotlib.org/</dc:title>
     </cc:Agent>
    </dc:creator>
   </cc:Work>
  </rdf:RDF>
 </metadata>
 <defs>
  <style type="text/css">*{stroke-linejoin: round; stroke-linecap: butt}</style>
 </defs>
 <g id="figure_1">
  <g id="patch_1">
   <path d="M 0 576 
L 1440 576 
L 1440 0 
L 0 0 
z
" style="fill: #ffffff"/>
  </g>
  <g id="axes_1">
   <g id="patch_2">
    <path d="M 180 512.64 
L 1296 512.64 
L 1296 69.12 
L 180 69.12 
z
" style="fill: #ffffff"/>
   </g>
   <g id="matplotlib.axis_1">
    <g id="xtick_1">
     <g id="line2d_1">
      <defs>
       <path id="me06caac904" d="M 0 0 
L 0 3.5 
" style="stroke: #000000; stroke-width: 0.8"/>
      </defs>
      <g>
       <use xlink:href="#me06caac904" x="229.734567" y="512.64" style="stroke: #000000; stroke-width: 0.8"/>
      </g>
     </g>
     <g id="text_1">
      <!-- 0 -->
      <g transform="translate(226.553317 527.238438) scale(0.1 -0.1)">
       <defs>
        <path id="DejaVuSans-30" d="M 2034 4250 
Q 1547 4250 1301 3770 
Q 1056 3291 1056 2328 
Q 1056 1369 1301 889 
Q 1547 409 2034 409 
Q 2525 409 2770 889 
Q 3016 1369 3016 2328 
Q 3016 3291 2770 3770 
Q 2525 4250 2034 4250 
z
M 2034 4750 
Q 2819 4750 3233 4129 
Q 3647 3509 3647 2328 
Q 3647 1150 3233 529 
Q 2819 -91 2034 -91 
Q 1250 -91 836 529 
Q 422 1150 422 2328 
Q 422 3509 836 4129 
Q 1250 4750 2034 4750 
z
" transform="scale(0.015625)"/>
       </defs>
       <use xlink:href="#DejaVuSans-30"/>
      </g>
     </g>
    </g>
    <g id="xtick_2">
     <g id="line2d_2">
      <g>
       <use xlink:href="#me06caac904" x="433.04074" y="512.64" style="stroke: #000000; stroke-width: 0.8"/>
      </g>
     </g>
     <g id="text_2">
      <!-- 500 -->
      <g transform="translate(423.49699 527.238438) scale(0.1 -0.1)">
       <defs>
        <path id="DejaVuSans-35" d="M 691 4666 
L 3169 4666 
L 3169 4134 
L 1269 4134 
L 1269 2991 
Q 1406 3038 1543 3061 
Q 1681 3084 1819 3084 
Q 2600 3084 3056 2656 
Q 3513 2228 3513 1497 
Q 3513 744 3044 326 
Q 2575 -91 1722 -91 
Q 1428 -91 1123 -41 
Q 819 9 494 109 
L 494 744 
Q 775 591 1075 516 
Q 1375 441 1709 441 
Q 2250 441 2565 725 
Q 2881 1009 2881 1497 
Q 2881 1984 2565 2268 
Q 2250 2553 1709 2553 
Q 1456 2553 1204 2497 
Q 953 2441 691 2322 
L 691 4666 
z
" transform="scale(0.015625)"/>
       </defs>
       <use xlink:href="#DejaVuSans-35"/>
       <use xlink:href="#DejaVuSans-30" x="63.623047"/>
       <use xlink:href="#DejaVuSans-30" x="127.246094"/>
      </g>
     </g>
    </g>
    <g id="xtick_3">
     <g id="line2d_3">
      <g>
       <use xlink:href="#me06caac904" x="636.346913" y="512.64" style="stroke: #000000; stroke-width: 0.8"/>
      </g>
     </g>
     <g id="text_3">
      <!-- 1000 -->
      <g transform="translate(623.621913 527.238438) scale(0.1 -0.1)">
       <defs>
        <path id="DejaVuSans-31" d="M 794 531 
L 1825 531 
L 1825 4091 
L 703 3866 
L 703 4441 
L 1819 4666 
L 2450 4666 
L 2450 531 
L 3481 531 
L 3481 0 
L 794 0 
L 794 531 
z
" transform="scale(0.015625)"/>
       </defs>
       <use xlink:href="#DejaVuSans-31"/>
       <use xlink:href="#DejaVuSans-30" x="63.623047"/>
       <use xlink:href="#DejaVuSans-30" x="127.246094"/>
       <use xlink:href="#DejaVuSans-30" x="190.869141"/>
      </g>
     </g>
    </g>
    <g id="xtick_4">
     <g id="line2d_4">
      <g>
       <use xlink:href="#me06caac904" x="839.653087" y="512.64" style="stroke: #000000; stroke-width: 0.8"/>
      </g>
     </g>
     <g id="text_4">
      <!-- 1500 -->
      <g transform="translate(826.928087 527.238438) scale(0.1 -0.1)">
       <use xlink:href="#DejaVuSans-31"/>
       <use xlink:href="#DejaVuSans-35" x="63.623047"/>
       <use xlink:href="#DejaVuSans-30" x="127.246094"/>
       <use xlink:href="#DejaVuSans-30" x="190.869141"/>
      </g>
     </g>
    </g>
    <g id="xtick_5">
     <g id="line2d_5">
      <g>
       <use xlink:href="#me06caac904" x="1042.95926" y="512.64" style="stroke: #000000; stroke-width: 0.8"/>
      </g>
     </g>
     <g id="text_5">
      <!-- 2000 -->
      <g transform="translate(1030.23426 527.238438) scale(0.1 -0.1)">
       <defs>
        <path id="DejaVuSans-32" d="M 1228 531 
L 3431 531 
L 3431 0 
L 469 0 
L 469 531 
Q 828 903 1448 1529 
Q 2069 2156 2228 2338 
Q 2531 2678 2651 2914 
Q 2772 3150 2772 3378 
Q 2772 3750 2511 3984 
Q 2250 4219 1831 4219 
Q 1534 4219 1204 4116 
Q 875 4013 500 3803 
L 500 4441 
Q 881 4594 1212 4672 
Q 1544 4750 1819 4750 
Q 2544 4750 2975 4387 
Q 3406 4025 3406 3419 
Q 3406 3131 3298 2873 
Q 3191 2616 2906 2266 
Q 2828 2175 2409 1742 
Q 1991 1309 1228 531 
z
" transform="scale(0.015625)"/>
       </defs>
       <use xlink:href="#DejaVuSans-32"/>
       <use xlink:href="#DejaVuSans-30" x="63.623047"/>
       <use xlink:href="#DejaVuSans-30" x="127.246094"/>
       <use xlink:href="#DejaVuSans-30" x="190.869141"/>
      </g>
     </g>
    </g>
    <g id="xtick_6">
     <g id="line2d_6">
      <g>
       <use xlink:href="#me06caac904" x="1246.265433" y="512.64" style="stroke: #000000; stroke-width: 0.8"/>
      </g>
     </g>
     <g id="text_6">
      <!-- 2500 -->
      <g transform="translate(1233.540433 527.238438) scale(0.1 -0.1)">
       <use xlink:href="#DejaVuSans-32"/>
       <use xlink:href="#DejaVuSans-35" x="63.623047"/>
       <use xlink:href="#DejaVuSans-30" x="127.246094"/>
       <use xlink:href="#DejaVuSans-30" x="190.869141"/>
      </g>
     </g>
    </g>
   </g>
   <g id="matplotlib.axis_2">
    <g id="ytick_1">
     <g id="line2d_7">
      <defs>
       <path id="m6c305c5faa" d="M 0 0 
L -3.5 0 
" style="stroke: #000000; stroke-width: 0.8"/>
      </defs>
      <g>
       <use xlink:href="#m6c305c5faa" x="180" y="431.238096" style="stroke: #000000; stroke-width: 0.8"/>
      </g>
     </g>
     <g id="text_7">
      <!-- −4 -->
      <g transform="translate(158.257812 435.037315) scale(0.1 -0.1)">
       <defs>
        <path id="DejaVuSans-2212" d="M 678 2272 
L 4684 2272 
L 4684 1741 
L 678 1741 
L 678 2272 
z
" transform="scale(0.015625)"/>
        <path id="DejaVuSans-34" d="M 2419 4116 
L 825 1625 
L 2419 1625 
L 2419 4116 
z
M 2253 4666 
L 3047 4666 
L 3047 1625 
L 3713 1625 
L 3713 1100 
L 3047 1100 
L 3047 0 
L 2419 0 
L 2419 1100 
L 313 1100 
L 313 1709 
L 2253 4666 
z
" transform="scale(0.015625)"/>
       </defs>
       <use xlink:href="#DejaVuSans-2212"/>
       <use xlink:href="#DejaVuSans-34" x="83.789062"/>
      </g>
     </g>
    </g>
    <g id="ytick_2">
     <g id="line2d_8">
      <g>
       <use xlink:href="#m6c305c5faa" x="180" y="334.148211" style="stroke: #000000; stroke-width: 0.8"/>
      </g>
     </g>
     <g id="text_8">
      <!-- −2 -->
      <g transform="translate(158.257812 337.947429) scale(0.1 -0.1)">
       <use xlink:href="#DejaVuSans-2212"/>
       <use xlink:href="#DejaVuSans-32" x="83.789062"/>
      </g>
     </g>
    </g>
    <g id="ytick_3">
     <g id="line2d_9">
      <g>
       <use xlink:href="#m6c305c5faa" x="180" y="237.058325" style="stroke: #000000; stroke-width: 0.8"/>
      </g>
     </g>
     <g id="text_9">
      <!-- 0 -->
      <g transform="translate(166.6375 240.857544) scale(0.1 -0.1)">
       <use xlink:href="#DejaVuSans-30"/>
      </g>
     </g>
    </g>
    <g id="ytick_4">
     <g id="line2d_10">
      <g>
       <use xlink:href="#m6c305c5faa" x="180" y="139.96844" style="stroke: #000000; stroke-width: 0.8"/>
      </g>
     </g>
     <g id="text_10">
      <!-- 2 -->
      <g transform="translate(166.6375 143.767659) scale(0.1 -0.1)">
       <use xlink:href="#DejaVuSans-32"/>
      </g>
     </g>
    </g>
   </g>
   <g id="line2d_11">
    <path d="M 230.727273 486.817867 
L 232.712685 430.700038 
L 233.70539 411.103982 
L 235.690802 390.20322 
L 236.683508 381.73195 
L 237.676214 381.502639 
L 238.66892 370.271168 
L 239.661626 365.244249 
L 240.654332 357.777168 
L 242.639744 345.852462 
L 244.625156 335.512518 
L 246.610568 310.446306 
L 247.603273 291.537997 
L 248.595979 275.241139 
L 249.588685 269.843921 
L 250.581391 250.612134 
L 251.574097 217.916988 
L 252.566803 203.744874 
L 253.559509 215.692059 
L 254.552215 333.177824 
L 255.544921 212.389316 
L 256.537627 190.391931 
L 257.530333 192.28199 
L 258.523039 213.211917 
L 259.515745 257.975594 
L 260.50845 211.129679 
L 261.501156 197.731869 
L 262.493862 219.099303 
L 263.486568 231.912877 
L 265.47198 201.691058 
L 266.464686 189.702934 
L 267.457392 199.474276 
L 268.450098 188.409465 
L 269.442804 178.934807 
L 270.43551 225.787163 
L 271.428216 183.407907 
L 272.420922 160.195307 
L 273.413627 164.471911 
L 274.406333 129.984962 
L 275.399039 113.272608 
L 276.391745 130.661363 
L 277.384451 194.864719 
L 278.377157 106.918711 
L 279.369863 89.28 
L 280.362569 93.172628 
L 281.355275 109.506977 
L 282.347981 130.437451 
L 283.340687 170.663988 
L 284.333393 180.452369 
L 285.326099 130.158032 
L 286.318804 119.930306 
L 287.31151 131.880455 
L 288.304216 158.503385 
L 289.296922 203.9839 
L 290.289628 232.896672 
L 291.282334 203.289506 
L 292.27504 208.640494 
L 293.267746 247.05493 
L 294.260452 279.347294 
L 295.253158 264.913947 
L 296.245864 247.703348 
L 297.23857 214.034188 
L 298.231276 194.275525 
L 299.223981 198.289485 
L 300.216687 204.935074 
L 301.209393 195.10611 
L 302.202099 199.340496 
L 303.194805 223.283917 
L 304.187511 232.070276 
L 305.180217 252.001089 
L 306.172923 342.231508 
L 307.165629 311.50323 
L 308.158335 306.319428 
L 309.151041 312.047598 
L 310.143747 306.295582 
L 311.136453 307.821425 
L 312.129159 325.758265 
L 313.121864 386.996127 
L 314.11457 338.632245 
L 315.107276 315.532397 
L 316.099982 326.339728 
L 317.092688 334.345456 
L 318.085394 329.109861 
L 319.0781 339.328887 
L 320.070806 340.47313 
L 321.063512 329.887216 
L 322.056218 353.749253 
L 323.048924 325.115202 
L 324.04163 342.357868 
L 325.034336 332.391065 
L 326.027041 348.167409 
L 327.019747 350.062736 
L 328.012453 362.932261 
L 329.005159 341.861147 
L 329.997865 345.723025 
L 330.990571 316.626621 
L 331.983277 354.979432 
L 332.975983 327.400007 
L 333.968689 360.603548 
L 334.961395 337.949554 
L 335.954101 345.736367 
L 336.946807 336.619601 
L 337.939513 353.954395 
L 338.932218 352.361014 
L 339.924924 363.819687 
L 340.91763 351.761652 
L 341.910336 351.235243 
L 342.903042 336.923132 
L 343.895748 343.981091 
L 344.888454 331.992357 
L 345.88116 351.007775 
L 346.873866 348.426523 
L 347.866572 363.152783 
L 348.859278 329.902689 
L 349.851984 329.450296 
L 350.84469 346.112773 
L 351.837395 345.244988 
L 352.830101 349.567031 
L 353.822807 388.507577 
L 354.815513 346.452786 
L 355.808219 366.520104 
L 356.800925 337.720873 
L 357.793631 344.529716 
L 358.786337 361.460988 
L 359.779043 349.151429 
L 360.771749 367.01586 
L 361.764455 328.68865 
L 363.749867 391.950542 
L 364.742572 387.283142 
L 365.735278 355.672712 
L 366.727984 348.367997 
L 367.72069 354.947144 
L 368.713396 362.348645 
L 369.706102 384.493735 
L 370.698808 342.3585 
L 371.691514 369.948089 
L 372.68422 350.168069 
L 373.676926 358.613915 
L 374.669632 409.503054 
L 375.662338 372.775225 
L 376.655044 365.658913 
L 377.64775 361.665408 
L 378.640455 349.519712 
L 379.633161 388.136063 
L 380.625867 355.506289 
L 381.618573 374.161877 
L 382.611279 345.592837 
L 383.603985 388.570679 
L 384.596691 374.783553 
L 385.589397 362.772392 
L 386.582103 374.487618 
L 387.574809 368.104107 
L 388.567515 383.296888 
L 389.560221 376.063864 
L 390.552927 354.843845 
L 391.545632 385.371606 
L 392.538338 387.23814 
L 393.531044 347.131539 
L 394.52375 353.082587 
L 395.516456 417.141464 
L 396.509162 375.105368 
L 397.501868 355.668212 
L 398.494574 437.867153 
L 399.48728 384.538669 
L 400.479986 372.446797 
L 401.472692 365.710275 
L 402.465398 381.025415 
L 403.458104 385.386866 
L 404.450809 367.419688 
L 405.443515 361.680194 
L 406.436221 396.018646 
L 407.428927 395.457654 
L 408.421633 346.123706 
L 409.414339 371.506784 
L 410.407045 378.581611 
L 411.399751 392.668441 
L 412.392457 364.085305 
L 413.385163 377.518167 
L 414.377869 353.815146 
L 415.370575 378.577548 
L 416.363281 395.594295 
L 417.355986 351.519584 
L 418.348692 379.738443 
L 419.341398 367.070063 
L 420.334104 367.720775 
L 421.32681 354.506414 
L 423.312222 371.426247 
L 424.304928 410.34527 
L 425.297634 383.758036 
L 426.29034 403.194356 
L 427.283046 368.678831 
L 428.275752 360.583695 
L 429.268458 374.203335 
L 430.261163 392.534747 
L 431.253869 380.868129 
L 432.246575 399.497012 
L 433.239281 391.639722 
L 434.231987 427.952536 
L 435.224693 392.915362 
L 436.217399 387.425346 
L 437.210105 371.047105 
L 438.202811 392.523681 
L 439.195517 370.53399 
L 440.188223 392.29613 
L 441.180929 367.133288 
L 442.173635 427.89975 
L 443.166341 403.118816 
L 444.159046 402.442991 
L 445.151752 390.818586 
L 446.144458 361.48699 
L 447.137164 381.857395 
L 448.12987 390.943327 
L 449.122576 396.87346 
L 450.115282 369.436488 
L 451.107988 381.603659 
L 452.100694 398.313792 
L 453.0934 440.239668 
L 454.086106 368.143242 
L 455.078812 398.60485 
L 456.071518 405.64351 
L 457.064223 365.425121 
L 458.056929 374.054591 
L 459.049635 399.394673 
L 460.042341 378.302768 
L 461.035047 428.977411 
L 462.027753 468.118675 
L 463.020459 362.445234 
L 464.013165 358.862496 
L 465.005871 354.183501 
L 465.998577 442.231343 
L 466.991283 359.796049 
L 467.983989 349.825406 
L 468.976695 405.468321 
L 469.9694 370.791041 
L 470.962106 449.772245 
L 471.954812 442.313074 
L 472.947518 362.195054 
L 473.940224 485.524648 
L 474.93293 422.258446 
L 475.925636 389.344471 
L 476.918342 394.587594 
L 477.911048 361.081331 
L 478.903754 377.562315 
L 479.89646 355.659847 
L 480.889166 373.400263 
L 481.881872 424.237368 
L 482.874577 363.517773 
L 483.867283 433.954403 
L 484.859989 453.054104 
L 485.852695 381.460725 
L 486.845401 382.622161 
L 487.838107 388.606047 
L 488.830813 437.811389 
L 489.823519 356.882759 
L 490.816225 382.837592 
L 491.808931 390.137261 
L 492.801637 376.134758 
L 493.794343 366.561543 
L 494.787049 371.65681 
L 495.779754 385.588461 
L 496.77246 353.313221 
L 497.765166 378.636431 
L 498.757872 378.551553 
L 499.750578 403.344421 
L 500.743284 340.050735 
L 501.73599 384.557721 
L 502.728696 365.199582 
L 503.721402 371.299246 
L 504.714108 392.290873 
L 505.706814 406.002311 
L 506.69952 396.74322 
L 507.692226 367.006894 
L 508.684932 355.756335 
L 509.677637 327.530236 
L 510.670343 385.542419 
L 511.663049 377.774039 
L 512.655755 410.99358 
L 513.648461 375.857981 
L 514.641167 388.619464 
L 515.633873 372.61969 
L 516.626579 375.603659 
L 517.619285 359.65373 
L 518.611991 383.727616 
L 519.604697 418.540802 
L 520.597403 370.076727 
L 521.590109 349.65716 
L 522.582814 379.433543 
L 523.57552 353.897203 
L 524.568226 408.675543 
L 525.560932 419.161407 
L 526.553638 377.581777 
L 527.546344 367.694039 
L 528.53905 384.412005 
L 529.531756 396.938322 
L 530.524462 392.202865 
L 531.517168 379.177164 
L 532.509874 358.892216 
L 533.50258 362.216611 
L 534.495286 399.508982 
L 535.487991 387.590451 
L 536.480697 372.523037 
L 537.473403 350.812414 
L 538.466109 408.164176 
L 539.458815 362.977447 
L 540.451521 408.187651 
L 541.444227 389.659058 
L 542.436933 337.415499 
L 543.429639 377.346452 
L 544.422345 399.422161 
L 545.415051 384.622583 
L 546.407757 377.899072 
L 547.400463 409.441028 
L 548.393168 420.436278 
L 549.385874 390.690921 
L 550.37858 399.355984 
L 551.371286 382.64343 
L 552.363992 417.386475 
L 553.356698 378.46956 
L 554.349404 429.285551 
L 556.334816 374.334895 
L 557.327522 412.177425 
L 558.320228 408.154465 
L 560.30564 460.170591 
L 561.298345 412.302032 
L 562.291051 375.503221 
L 563.283757 374.679283 
L 564.276463 411.151543 
L 565.269169 410.714153 
L 566.261875 368.509217 
L 567.254581 483.821642 
L 568.247287 377.444335 
L 569.239993 368.61156 
L 570.232699 392.190304 
L 571.225405 424.542356 
L 572.218111 359.667127 
L 573.210817 384.46756 
L 574.203523 389.43975 
L 575.196228 427.259002 
L 576.188934 428.122211 
L 577.18164 359.507355 
L 578.174346 375.340261 
L 579.167052 386.4206 
L 580.159758 376.632855 
L 581.152464 441.958681 
L 582.14517 379.782988 
L 583.137876 420.980177 
L 584.130582 405.757962 
L 585.123288 405.416376 
L 586.115994 409.396051 
L 587.1087 350.214648 
L 588.101405 391.06664 
L 589.094111 384.989043 
L 590.086817 428.60255 
L 591.079523 411.433695 
L 592.072229 371.730354 
L 593.064935 492.48 
L 594.057641 441.504373 
L 595.050347 448.226198 
L 596.043053 421.288213 
L 597.035759 390.18562 
L 598.028465 406.306718 
L 599.021171 381.957368 
L 600.013877 430.658172 
L 601.006582 410.835387 
L 601.999288 412.356265 
L 602.991994 370.823897 
L 603.9847 390.611597 
L 604.977406 445.043176 
L 605.970112 443.775848 
L 606.962818 408.22525 
L 607.955524 398.932966 
L 608.94823 410.380545 
L 609.940936 394.921791 
L 610.933642 393.986663 
L 611.926348 386.165264 
L 612.919054 427.746273 
L 613.911759 394.221393 
L 614.904465 384.270793 
L 615.897171 418.207572 
L 617.882583 371.209468 
L 618.875289 420.562944 
L 619.867995 410.408473 
L 620.860701 427.386773 
L 621.853407 404.886695 
L 622.846113 453.920321 
L 623.838819 400.126059 
L 624.831525 423.386061 
L 625.824231 408.706427 
L 626.816936 414.478799 
L 627.809642 413.254783 
L 628.802348 393.527297 
L 629.795054 419.363265 
L 630.78776 422.903003 
L 631.780466 415.04412 
L 632.773172 435.607198 
L 633.765878 422.056145 
L 635.75129 402.489373 
L 636.743996 461.768251 
L 637.736702 463.748824 
L 638.729408 403.490068 
L 639.722114 400.059536 
L 640.714819 404.292078 
L 641.707525 418.365787 
L 642.700231 428.266735 
L 643.692937 423.231435 
L 644.685643 414.029281 
L 645.678349 422.038321 
L 646.671055 422.971179 
L 647.663761 415.123628 
L 648.656467 428.331217 
L 649.649173 419.96035 
L 650.641879 429.199399 
L 651.634585 423.687835 
L 652.627291 409.674524 
L 653.619996 430.580533 
L 654.612702 433.843719 
L 655.605408 425.32006 
L 656.598114 421.175481 
L 657.59082 420.297705 
L 658.583526 418.211217 
L 659.576232 421.687034 
L 660.568938 409.957363 
L 661.561644 407.247486 
L 662.55435 426.077057 
L 663.547056 417.292045 
L 664.539762 417.611185 
L 665.532468 417.382702 
L 666.525173 416.355242 
L 667.517879 418.469973 
L 668.510585 415.488056 
L 669.503291 413.583752 
L 670.495997 431.79511 
L 671.488703 418.488758 
L 672.481409 416.40928 
L 673.474115 422.023393 
L 674.466821 424.19068 
L 675.459527 422.771118 
L 676.452233 414.456261 
L 677.444939 422.43034 
L 678.437645 419.567566 
L 679.43035 431.028027 
L 680.423056 424.835803 
L 681.415762 429.172491 
L 682.408468 418.51882 
L 683.401174 425.846333 
L 684.39388 413.244977 
L 685.386586 415.634758 
L 686.379292 424.034006 
L 687.371998 427.813216 
L 688.364704 427.060275 
L 689.35741 429.117646 
L 690.350116 422.070271 
L 691.342822 427.157388 
L 692.335527 428.398999 
L 693.328233 427.592405 
L 694.320939 420.24616 
L 696.306351 432.239933 
L 697.299057 429.75481 
L 698.291763 429.071418 
L 699.284469 420.043216 
L 700.277175 430.765065 
L 701.269881 437.471968 
L 702.262587 428.305749 
L 703.255293 423.178523 
L 705.240705 431.682515 
L 706.23341 427.315228 
L 707.226116 417.951573 
L 708.218822 424.592788 
L 709.211528 425.692237 
L 710.204234 426.497385 
L 711.19694 422.155965 
L 712.189646 426.313531 
L 713.182352 425.313278 
L 714.175058 419.548577 
L 715.167764 426.200734 
L 716.16047 430.150185 
L 717.153176 428.28343 
L 719.138587 426.327203 
L 720.131293 426.873506 
L 721.123999 424.423362 
L 722.116705 427.329227 
L 723.109411 424.797798 
L 724.102117 430.866358 
L 725.094823 426.769533 
L 726.087529 427.229958 
L 727.080235 430.218699 
L 728.072941 425.762607 
L 729.065647 425.884005 
L 730.058353 427.360433 
L 731.051059 429.213735 
L 732.043764 425.897788 
L 733.03647 430.743074 
L 734.029176 433.860458 
L 735.021882 428.25549 
L 736.014588 426.432976 
L 737.007294 433.254801 
L 738 429.454014 
L 738.992706 427.246839 
L 739.985412 426.186107 
L 740.978118 430.73039 
L 741.970824 431.12913 
L 742.96353 427.135152 
L 743.956236 425.771088 
L 744.948941 426.029998 
L 745.941647 431.926049 
L 746.934353 430.647142 
L 747.927059 430.726446 
L 748.919765 431.699698 
L 749.912471 431.261371 
L 750.905177 431.680051 
L 751.897883 427.915061 
L 752.890589 432.138992 
L 753.883295 428.648009 
L 754.876001 429.305554 
L 755.868707 427.722621 
L 756.861413 427.767542 
L 757.854118 431.17917 
L 758.846824 431.480105 
L 759.83953 430.184777 
L 760.832236 430.291152 
L 761.824942 434.940847 
L 762.817648 427.051477 
L 763.810354 428.183159 
L 764.80306 436.28093 
L 765.795766 429.284832 
L 766.788472 431.213597 
L 767.781178 427.853091 
L 768.773884 432.21346 
L 769.76659 430.849766 
L 770.759295 429.811607 
L 771.752001 427.718732 
L 772.744707 431.236798 
L 773.737413 429.632737 
L 774.730119 437.377653 
L 775.722825 430.639783 
L 777.708237 435.348134 
L 778.700943 428.719012 
L 779.693649 428.417842 
L 780.686355 431.978493 
L 781.679061 433.327851 
L 782.671767 429.017677 
L 783.664473 438.389271 
L 784.657178 431.296924 
L 785.649884 430.331113 
L 786.64259 422.386062 
L 787.635296 433.051024 
L 788.628002 434.019659 
L 790.613414 431.964684 
L 791.60612 428.256837 
L 792.598826 432.83134 
L 793.591532 434.519211 
L 794.584238 434.70605 
L 795.576944 432.630634 
L 796.56965 429.034558 
L 797.562355 430.329775 
L 798.555061 437.051011 
L 799.547767 427.820852 
L 800.540473 432.847499 
L 801.533179 437.074457 
L 802.525885 433.922196 
L 803.518591 432.390501 
L 804.511297 431.578371 
L 805.504003 432.535819 
L 806.496709 431.163955 
L 807.489415 431.634391 
L 808.482121 429.135238 
L 809.474827 431.584977 
L 811.460238 435.401727 
L 812.452944 434.342042 
L 813.44565 435.367981 
L 814.438356 432.890294 
L 815.431062 429.348386 
L 816.423768 430.399137 
L 817.416474 430.307687 
L 818.40918 434.088637 
L 819.401886 432.137435 
L 820.394592 438.498451 
L 821.387298 433.483162 
L 822.380004 439.081693 
L 823.372709 435.074209 
L 824.365415 432.453989 
L 825.358121 439.156119 
L 826.350827 434.580134 
L 827.343533 433.555886 
L 828.336239 436.253058 
L 829.328945 431.715772 
L 830.321651 435.512185 
L 831.314357 437.377406 
L 832.307063 434.46656 
L 833.299769 433.837891 
L 834.292475 434.795139 
L 835.285181 433.227375 
L 836.277886 434.732517 
L 837.270592 433.968356 
L 838.263298 435.109229 
L 839.256004 434.072832 
L 840.24871 438.836307 
L 841.241416 435.630835 
L 842.234122 438.322273 
L 843.226828 433.992242 
L 844.219534 438.395393 
L 845.21224 436.216292 
L 846.204946 434.321119 
L 847.197652 439.434426 
L 848.190358 431.996884 
L 849.183064 432.113289 
L 850.175769 435.264094 
L 851.168475 437.443234 
L 852.161181 433.198439 
L 853.153887 432.706737 
L 855.139299 438.513347 
L 856.132005 434.640686 
L 857.124711 432.060056 
L 858.117417 436.986239 
L 859.110123 435.307836 
L 860.102829 438.804838 
L 861.095535 432.5749 
L 863.080946 438.730195 
L 864.073652 435.760635 
L 865.066358 436.506142 
L 866.059064 436.950493 
L 867.05177 436.261829 
L 868.044476 438.982137 
L 869.037182 442.313743 
L 870.029888 438.351979 
L 871.022594 435.57093 
L 872.0153 437.515499 
L 873.008006 433.733845 
L 874.000712 433.702908 
L 874.993418 439.075769 
L 875.986123 433.911017 
L 876.978829 439.950259 
L 877.971535 436.048114 
L 878.964241 440.458646 
L 879.956947 441.715409 
L 880.949653 437.832526 
L 881.942359 438.839512 
L 882.935065 430.544853 
L 883.927771 435.476198 
L 884.920477 436.817247 
L 885.913183 437.419207 
L 886.905889 438.427682 
L 887.898595 434.189863 
L 888.8913 434.19789 
L 889.884006 432.237189 
L 891.869418 441.505974 
L 892.862124 436.452151 
L 893.85483 437.555071 
L 894.847536 439.520797 
L 895.840242 439.167358 
L 897.825654 436.9306 
L 898.81836 437.795845 
L 899.811066 438.129252 
L 900.803772 436.920571 
L 901.796477 434.484503 
L 902.789183 438.812087 
L 903.781889 440.278895 
L 904.774595 434.214588 
L 905.767301 436.615347 
L 906.760007 441.511753 
L 907.752713 437.589286 
L 908.745419 439.316366 
L 909.738125 431.361855 
L 910.730831 438.544301 
L 911.723537 440.933972 
L 912.716243 441.634025 
L 913.708949 439.867877 
L 914.701655 441.092839 
L 915.69436 437.620919 
L 916.687066 440.662374 
L 917.679772 439.096828 
L 918.672478 438.131563 
L 919.665184 439.869562 
L 920.65789 441.27859 
L 921.650596 438.535442 
L 922.643302 437.300331 
L 923.636008 441.457258 
L 924.628714 439.565949 
L 925.62142 438.043906 
L 926.614126 438.461648 
L 927.606832 440.853201 
L 928.599537 434.750849 
L 929.592243 436.807478 
L 930.584949 436.743826 
L 931.577655 435.772615 
L 932.570361 438.581059 
L 933.563067 438.509931 
L 934.555773 435.056936 
L 935.548479 438.202903 
L 936.541185 438.660855 
L 937.533891 440.174643 
L 938.526597 439.901309 
L 939.519303 437.501274 
L 940.512009 439.140058 
L 941.504714 441.358562 
L 942.49742 442.794774 
L 944.482832 440.011451 
L 945.475538 435.770605 
L 946.468244 440.160892 
L 947.46095 439.304878 
L 948.453656 436.8764 
L 949.446362 441.211543 
L 950.439068 438.718248 
L 951.431774 439.006108 
L 952.42448 442.10614 
L 953.417186 436.012111 
L 954.409891 441.440173 
L 955.402597 445.402306 
L 956.395303 442.085658 
L 957.388009 441.354584 
L 958.380715 443.274208 
L 959.373421 440.054893 
L 960.366127 439.013544 
L 961.358833 442.433828 
L 962.351539 441.405337 
L 963.344245 437.89712 
L 964.336951 436.459329 
L 965.329657 438.983682 
L 966.322363 442.402397 
L 967.315068 441.864924 
L 968.307774 441.82331 
L 969.30048 437.098978 
L 970.293186 440.594303 
L 971.285892 444.835704 
L 972.278598 444.865071 
L 973.271304 449.070902 
L 974.26401 442.54114 
L 975.256716 437.844542 
L 976.249422 436.006472 
L 977.242128 445.318847 
L 978.234834 444.027041 
L 979.22754 443.903558 
L 981.212951 441.115483 
L 982.205657 441.86764 
L 983.198363 441.292412 
L 984.191069 438.888996 
L 985.183775 443.791506 
L 986.176481 439.470424 
L 987.169187 442.834297 
L 988.161893 440.201933 
L 989.154599 441.806548 
L 990.147305 441.035375 
L 991.140011 442.060586 
L 992.132717 440.241068 
L 993.125423 439.249235 
L 994.118128 438.791575 
L 995.110834 443.304574 
L 996.10354 442.403541 
L 997.096246 443.8788 
L 998.088952 442.003774 
L 999.081658 445.037574 
L 1000.074364 441.356852 
L 1001.06707 445.437485 
L 1002.059776 445.251423 
L 1003.052482 438.87125 
L 1004.045188 440.574681 
L 1005.037894 447.989152 
L 1006.0306 446.674679 
L 1007.023305 442.917768 
L 1008.016011 444.816121 
L 1009.008717 439.985659 
L 1010.001423 443.298785 
L 1010.994129 443.143442 
L 1011.986835 442.832025 
L 1012.979541 444.541106 
L 1013.972247 441.223912 
L 1014.964953 448.042107 
L 1015.957659 441.160597 
L 1016.950365 441.873343 
L 1017.943071 441.16068 
L 1018.935777 440.122136 
L 1019.928482 441.179762 
L 1020.921188 444.725663 
L 1021.913894 445.505157 
L 1022.9066 441.195976 
L 1023.899306 446.12347 
L 1025.884718 439.246167 
L 1026.877424 439.114127 
L 1027.87013 443.158795 
L 1028.862836 443.25936 
L 1030.848248 441.466294 
L 1031.840954 444.906157 
L 1032.833659 443.924272 
L 1033.826365 443.207113 
L 1034.819071 439.784865 
L 1035.811777 443.352823 
L 1036.804483 441.497584 
L 1037.797189 440.198781 
L 1038.789895 442.391688 
L 1039.782601 442.29876 
L 1040.775307 447.352435 
L 1041.768013 441.655534 
L 1042.760719 449.060986 
L 1043.753425 448.016613 
L 1044.746131 437.997143 
L 1045.738837 443.538749 
L 1046.731542 441.749832 
L 1047.724248 440.653313 
L 1048.716954 442.038141 
L 1049.70966 442.161832 
L 1050.702366 444.943309 
L 1052.687778 440.478107 
L 1053.680484 442.232559 
L 1055.665896 439.036252 
L 1056.658602 435.72775 
L 1057.651308 440.161845 
L 1058.644014 441.865903 
L 1059.636719 438.835347 
L 1061.622131 444.568918 
L 1062.614837 439.236179 
L 1063.607543 435.131129 
L 1064.600249 441.507365 
L 1065.592955 444.114465 
L 1066.585661 441.216156 
L 1067.578367 440.75469 
L 1068.571073 445.362419 
L 1069.563779 441.329359 
L 1070.556485 440.18513 
L 1071.549191 440.956796 
L 1072.541896 444.957175 
L 1073.534602 440.801359 
L 1074.527308 444.850761 
L 1075.520014 444.479806 
L 1076.51272 442.556367 
L 1077.505426 437.824152 
L 1078.498132 447.5867 
L 1079.490838 439.803093 
L 1080.483544 444.757038 
L 1081.47625 444.11187 
L 1082.468956 442.510581 
L 1083.461662 448.174868 
L 1084.454368 442.936435 
L 1085.447073 442.486427 
L 1086.439779 442.628029 
L 1087.432485 444.3264 
L 1088.425191 443.132874 
L 1089.417897 440.158367 
L 1091.403309 447.386212 
L 1092.396015 443.832675 
L 1093.388721 442.898836 
L 1094.381427 440.197599 
L 1095.374133 442.659372 
L 1096.366839 443.511182 
L 1097.359545 444.564394 
L 1098.35225 447.359485 
L 1099.344956 443.085172 
L 1100.337662 444.339443 
L 1101.330368 445.033062 
L 1102.323074 441.984564 
L 1103.31578 447.087553 
L 1105.301192 440.330099 
L 1106.293898 444.776949 
L 1107.286604 439.622011 
L 1108.27931 442.335504 
L 1109.272016 442.256649 
L 1110.264722 445.173825 
L 1112.250133 441.671447 
L 1113.242839 445.232103 
L 1114.235545 444.631735 
L 1115.228251 444.202843 
L 1116.220957 445.73104 
L 1117.213663 443.407392 
L 1118.206369 442.021272 
L 1119.199075 445.403121 
L 1121.184487 448.441338 
L 1122.177193 442.298175 
L 1123.169899 442.874344 
L 1124.162605 441.993726 
L 1125.15531 444.800167 
L 1126.148016 440.277339 
L 1127.140722 443.923897 
L 1128.133428 443.944421 
L 1129.126134 445.963795 
L 1130.11884 444.310324 
L 1131.111546 443.707797 
L 1132.104252 439.498074 
L 1133.096958 444.320786 
L 1134.089664 453.036226 
L 1135.08237 442.635134 
L 1136.075076 449.075764 
L 1137.067782 448.903654 
L 1138.060487 443.072728 
L 1139.053193 447.680615 
L 1140.045899 450.238976 
L 1141.038605 442.514398 
L 1142.031311 443.46908 
L 1143.024017 442.52471 
L 1144.016723 444.220576 
L 1145.009429 449.314047 
L 1146.994841 440.295009 
L 1147.987547 446.653988 
L 1148.980253 447.58136 
L 1149.972959 447.399147 
L 1150.965664 445.620168 
L 1151.95837 441.118829 
L 1152.951076 441.287679 
L 1153.943782 444.033471 
L 1154.936488 450.39438 
L 1155.929194 442.676534 
L 1156.9219 444.551288 
L 1157.914606 445.395218 
L 1158.907312 445.625642 
L 1159.900018 444.360039 
L 1160.892724 446.416612 
L 1161.88543 445.621601 
L 1162.878136 447.332759 
L 1163.870841 446.181378 
L 1164.863547 447.124424 
L 1165.856253 447.07509 
L 1166.848959 449.242943 
L 1167.841665 444.884184 
L 1169.827077 448.50604 
L 1171.812489 441.223724 
L 1172.805195 445.93007 
L 1173.797901 447.812675 
L 1174.790607 442.870142 
L 1175.783313 445.505636 
L 1176.776019 443.555057 
L 1177.768724 443.092948 
L 1178.76143 448.617009 
L 1179.754136 446.22893 
L 1180.746842 447.175176 
L 1181.739548 442.00807 
L 1182.732254 449.118345 
L 1183.72496 443.329494 
L 1184.717666 443.487482 
L 1185.710372 438.341387 
L 1186.703078 443.31777 
L 1187.695784 444.163312 
L 1188.68849 443.518723 
L 1189.681196 445.523466 
L 1190.673901 443.856663 
L 1191.666607 445.144467 
L 1192.659313 441.312623 
L 1194.644725 449.090826 
L 1195.637431 450.570788 
L 1196.630137 443.235815 
L 1197.622843 447.006457 
L 1198.615549 445.122106 
L 1199.608255 446.62077 
L 1200.600961 445.001493 
L 1201.593667 444.241395 
L 1202.586373 444.861563 
L 1203.579078 440.313681 
L 1204.571784 447.126006 
L 1205.56449 439.302391 
L 1206.557196 443.973904 
L 1207.549902 446.028248 
L 1208.542608 443.763152 
L 1209.535314 448.769928 
L 1210.52802 446.386836 
L 1211.520726 444.462304 
L 1212.513432 447.338592 
L 1213.506138 442.521214 
L 1214.498844 442.330122 
L 1215.49155 445.43858 
L 1216.484255 440.366088 
L 1217.476961 446.419166 
L 1218.469667 440.205016 
L 1219.462373 444.859524 
L 1220.455079 445.34562 
L 1221.447785 447.677499 
L 1222.440491 443.451669 
L 1223.433197 448.61221 
L 1224.425903 446.312847 
L 1225.418609 452.045075 
L 1226.411315 447.934624 
L 1227.404021 441.806792 
L 1228.396727 441.313165 
L 1230.382138 447.872732 
L 1231.374844 448.512237 
L 1232.36755 447.885103 
L 1233.360256 447.622335 
L 1234.352962 450.410065 
L 1235.345668 448.150089 
L 1236.338374 448.682542 
L 1237.33108 446.204383 
L 1238.323786 442.771828 
L 1239.316492 442.962089 
L 1240.309198 445.353789 
L 1241.301904 448.331371 
L 1242.29461 447.798473 
L 1243.287315 442.68915 
L 1244.280021 444.603171 
L 1245.272727 441.315182 
L 1245.272727 441.315182 
" clip-path="url(#p747c61582c)" style="fill: none; stroke: #1f77b4; stroke-width: 1.5; stroke-linecap: square"/>
   </g>
   <g id="patch_3">
    <path d="M 180 512.64 
L 180 69.12 
" style="fill: none; stroke: #000000; stroke-width: 0.8; stroke-linejoin: miter; stroke-linecap: square"/>
   </g>
   <g id="patch_4">
    <path d="M 1296 512.64 
L 1296 69.12 
" style="fill: none; stroke: #000000; stroke-width: 0.8; stroke-linejoin: miter; stroke-linecap: square"/>
   </g>
   <g id="patch_5">
    <path d="M 180 512.64 
L 1296 512.64 
" style="fill: none; stroke: #000000; stroke-width: 0.8; stroke-linejoin: miter; stroke-linecap: square"/>
   </g>
   <g id="patch_6">
    <path d="M 180 69.12 
L 1296 69.12 
" style="fill: none; stroke: #000000; stroke-width: 0.8; stroke-linejoin: miter; stroke-linecap: square"/>
   </g>
   <g id="text_11">
    <!-- source3-receiver24 -->
    <g transform="translate(544.9 60.80125) scale(0.4 -0.4)">
     <defs>
      <path id="DejaVuSans-73" d="M 2834 3397 
L 2834 2853 
Q 2591 2978 2328 3040 
Q 2066 3103 1784 3103 
Q 1356 3103 1142 2972 
Q 928 2841 928 2578 
Q 928 2378 1081 2264 
Q 1234 2150 1697 2047 
L 1894 2003 
Q 2506 1872 2764 1633 
Q 3022 1394 3022 966 
Q 3022 478 2636 193 
Q 2250 -91 1575 -91 
Q 1294 -91 989 -36 
Q 684 19 347 128 
L 347 722 
Q 666 556 975 473 
Q 1284 391 1588 391 
Q 1994 391 2212 530 
Q 2431 669 2431 922 
Q 2431 1156 2273 1281 
Q 2116 1406 1581 1522 
L 1381 1569 
Q 847 1681 609 1914 
Q 372 2147 372 2553 
Q 372 3047 722 3315 
Q 1072 3584 1716 3584 
Q 2034 3584 2315 3537 
Q 2597 3491 2834 3397 
z
" transform="scale(0.015625)"/>
      <path id="DejaVuSans-6f" d="M 1959 3097 
Q 1497 3097 1228 2736 
Q 959 2375 959 1747 
Q 959 1119 1226 758 
Q 1494 397 1959 397 
Q 2419 397 2687 759 
Q 2956 1122 2956 1747 
Q 2956 2369 2687 2733 
Q 2419 3097 1959 3097 
z
M 1959 3584 
Q 2709 3584 3137 3096 
Q 3566 2609 3566 1747 
Q 3566 888 3137 398 
Q 2709 -91 1959 -91 
Q 1206 -91 779 398 
Q 353 888 353 1747 
Q 353 2609 779 3096 
Q 1206 3584 1959 3584 
z
" transform="scale(0.015625)"/>
      <path id="DejaVuSans-75" d="M 544 1381 
L 544 3500 
L 1119 3500 
L 1119 1403 
Q 1119 906 1312 657 
Q 1506 409 1894 409 
Q 2359 409 2629 706 
Q 2900 1003 2900 1516 
L 2900 3500 
L 3475 3500 
L 3475 0 
L 2900 0 
L 2900 538 
Q 2691 219 2414 64 
Q 2138 -91 1772 -91 
Q 1169 -91 856 284 
Q 544 659 544 1381 
z
M 1991 3584 
L 1991 3584 
z
" transform="scale(0.015625)"/>
      <path id="DejaVuSans-72" d="M 2631 2963 
Q 2534 3019 2420 3045 
Q 2306 3072 2169 3072 
Q 1681 3072 1420 2755 
Q 1159 2438 1159 1844 
L 1159 0 
L 581 0 
L 581 3500 
L 1159 3500 
L 1159 2956 
Q 1341 3275 1631 3429 
Q 1922 3584 2338 3584 
Q 2397 3584 2469 3576 
Q 2541 3569 2628 3553 
L 2631 2963 
z
" transform="scale(0.015625)"/>
      <path id="DejaVuSans-63" d="M 3122 3366 
L 3122 2828 
Q 2878 2963 2633 3030 
Q 2388 3097 2138 3097 
Q 1578 3097 1268 2742 
Q 959 2388 959 1747 
Q 959 1106 1268 751 
Q 1578 397 2138 397 
Q 2388 397 2633 464 
Q 2878 531 3122 666 
L 3122 134 
Q 2881 22 2623 -34 
Q 2366 -91 2075 -91 
Q 1284 -91 818 406 
Q 353 903 353 1747 
Q 353 2603 823 3093 
Q 1294 3584 2113 3584 
Q 2378 3584 2631 3529 
Q 2884 3475 3122 3366 
z
" transform="scale(0.015625)"/>
      <path id="DejaVuSans-65" d="M 3597 1894 
L 3597 1613 
L 953 1613 
Q 991 1019 1311 708 
Q 1631 397 2203 397 
Q 2534 397 2845 478 
Q 3156 559 3463 722 
L 3463 178 
Q 3153 47 2828 -22 
Q 2503 -91 2169 -91 
Q 1331 -91 842 396 
Q 353 884 353 1716 
Q 353 2575 817 3079 
Q 1281 3584 2069 3584 
Q 2775 3584 3186 3129 
Q 3597 2675 3597 1894 
z
M 3022 2063 
Q 3016 2534 2758 2815 
Q 2500 3097 2075 3097 
Q 1594 3097 1305 2825 
Q 1016 2553 972 2059 
L 3022 2063 
z
" transform="scale(0.015625)"/>
      <path id="DejaVuSans-33" d="M 2597 2516 
Q 3050 2419 3304 2112 
Q 3559 1806 3559 1356 
Q 3559 666 3084 287 
Q 2609 -91 1734 -91 
Q 1441 -91 1130 -33 
Q 819 25 488 141 
L 488 750 
Q 750 597 1062 519 
Q 1375 441 1716 441 
Q 2309 441 2620 675 
Q 2931 909 2931 1356 
Q 2931 1769 2642 2001 
Q 2353 2234 1838 2234 
L 1294 2234 
L 1294 2753 
L 1863 2753 
Q 2328 2753 2575 2939 
Q 2822 3125 2822 3475 
Q 2822 3834 2567 4026 
Q 2313 4219 1838 4219 
Q 1578 4219 1281 4162 
Q 984 4106 628 3988 
L 628 4550 
Q 988 4650 1302 4700 
Q 1616 4750 1894 4750 
Q 2613 4750 3031 4423 
Q 3450 4097 3450 3541 
Q 3450 3153 3228 2886 
Q 3006 2619 2597 2516 
z
" transform="scale(0.015625)"/>
      <path id="DejaVuSans-2d" d="M 313 2009 
L 1997 2009 
L 1997 1497 
L 313 1497 
L 313 2009 
z
" transform="scale(0.015625)"/>
      <path id="DejaVuSans-69" d="M 603 3500 
L 1178 3500 
L 1178 0 
L 603 0 
L 603 3500 
z
M 603 4863 
L 1178 4863 
L 1178 4134 
L 603 4134 
L 603 4863 
z
" transform="scale(0.015625)"/>
      <path id="DejaVuSans-76" d="M 191 3500 
L 800 3500 
L 1894 563 
L 2988 3500 
L 3597 3500 
L 2284 0 
L 1503 0 
L 191 3500 
z
" transform="scale(0.015625)"/>
     </defs>
     <use xlink:href="#DejaVuSans-73"/>
     <use xlink:href="#DejaVuSans-6f" x="52.099609"/>
     <use xlink:href="#DejaVuSans-75" x="113.28125"/>
     <use xlink:href="#DejaVuSans-72" x="176.660156"/>
     <use xlink:href="#DejaVuSans-63" x="215.523438"/>
     <use xlink:href="#DejaVuSans-65" x="270.503906"/>
     <use xlink:href="#DejaVuSans-33" x="332.027344"/>
     <use xlink:href="#DejaVuSans-2d" x="395.650391"/>
     <use xlink:href="#DejaVuSans-72" x="431.734375"/>
     <use xlink:href="#DejaVuSans-65" x="470.597656"/>
     <use xlink:href="#DejaVuSans-63" x="532.121094"/>
     <use xlink:href="#DejaVuSans-65" x="587.101562"/>
     <use xlink:href="#DejaVuSans-69" x="648.625"/>
     <use xlink:href="#DejaVuSans-76" x="676.408203"/>
     <use xlink:href="#DejaVuSans-65" x="735.587891"/>
     <use xlink:href="#DejaVuSans-72" x="797.111328"/>
     <use xlink:href="#DejaVuSans-32" x="838.224609"/>
     <use xlink:href="#DejaVuSans-34" x="901.847656"/>
    </g>
   </g>
  </g>
 </g>
 <defs>
  <clipPath id="p747c61582c">
   <rect x="180" y="69.12" width="1116" height="443.52"/>
  </clipPath>
 </defs>
</svg>
