<?xml version="1.0" encoding="utf-8" standalone="no"?>
<!DOCTYPE svg PUBLIC "-//W3C//DTD SVG 1.1//EN"
  "http://www.w3.org/Graphics/SVG/1.1/DTD/svg11.dtd">
<svg xmlns:xlink="http://www.w3.org/1999/xlink" width="1440pt" height="576pt" viewBox="0 0 1440 576" xmlns="http://www.w3.org/2000/svg" version="1.1">
 <metadata>
  <rdf:RDF xmlns:dc="http://purl.org/dc/elements/1.1/" xmlns:cc="http://creativecommons.org/ns#" xmlns:rdf="http://www.w3.org/1999/02/22-rdf-syntax-ns#">
   <cc:Work>
    <dc:type rdf:resource="http://purl.org/dc/dcmitype/StillImage"/>
    <dc:date>2024-05-22T04:49:42.559430</dc:date>
    <dc:format>image/svg+xml</dc:format>
    <dc:creator>
     <cc:Agent>
      <dc:title>Matplotlib v3.8.3, https://matplotlib.org/</dc:title>
     </cc:Agent>
    </dc:creator>
   </cc:Work>
  </rdf:RDF>
 </metadata>
 <defs>
  <style type="text/css">*{stroke-linejoin: round; stroke-linecap: butt}</style>
 </defs>
 <g id="figure_1">
  <g id="patch_1">
   <path d="M 0 576 
L 1440 576 
L 1440 0 
L 0 0 
z
" style="fill: #ffffff"/>
  </g>
  <g id="axes_1">
   <g id="patch_2">
    <path d="M 180 512.64 
L 1296 512.64 
L 1296 69.12 
L 180 69.12 
z
" style="fill: #ffffff"/>
   </g>
   <g id="matplotlib.axis_1">
    <g id="xtick_1">
     <g id="line2d_1">
      <defs>
       <path id="medeb1bc8cd" d="M 0 0 
L 0 3.5 
" style="stroke: #000000; stroke-width: 0.8"/>
      </defs>
      <g>
       <use xlink:href="#medeb1bc8cd" x="229.734567" y="512.64" style="stroke: #000000; stroke-width: 0.8"/>
      </g>
     </g>
     <g id="text_1">
      <!-- 0 -->
      <g transform="translate(226.553317 527.238438) scale(0.1 -0.1)">
       <defs>
        <path id="DejaVuSans-30" d="M 2034 4250 
Q 1547 4250 1301 3770 
Q 1056 3291 1056 2328 
Q 1056 1369 1301 889 
Q 1547 409 2034 409 
Q 2525 409 2770 889 
Q 3016 1369 3016 2328 
Q 3016 3291 2770 3770 
Q 2525 4250 2034 4250 
z
M 2034 4750 
Q 2819 4750 3233 4129 
Q 3647 3509 3647 2328 
Q 3647 1150 3233 529 
Q 2819 -91 2034 -91 
Q 1250 -91 836 529 
Q 422 1150 422 2328 
Q 422 3509 836 4129 
Q 1250 4750 2034 4750 
z
" transform="scale(0.015625)"/>
       </defs>
       <use xlink:href="#DejaVuSans-30"/>
      </g>
     </g>
    </g>
    <g id="xtick_2">
     <g id="line2d_2">
      <g>
       <use xlink:href="#medeb1bc8cd" x="433.04074" y="512.64" style="stroke: #000000; stroke-width: 0.8"/>
      </g>
     </g>
     <g id="text_2">
      <!-- 500 -->
      <g transform="translate(423.49699 527.238438) scale(0.1 -0.1)">
       <defs>
        <path id="DejaVuSans-35" d="M 691 4666 
L 3169 4666 
L 3169 4134 
L 1269 4134 
L 1269 2991 
Q 1406 3038 1543 3061 
Q 1681 3084 1819 3084 
Q 2600 3084 3056 2656 
Q 3513 2228 3513 1497 
Q 3513 744 3044 326 
Q 2575 -91 1722 -91 
Q 1428 -91 1123 -41 
Q 819 9 494 109 
L 494 744 
Q 775 591 1075 516 
Q 1375 441 1709 441 
Q 2250 441 2565 725 
Q 2881 1009 2881 1497 
Q 2881 1984 2565 2268 
Q 2250 2553 1709 2553 
Q 1456 2553 1204 2497 
Q 953 2441 691 2322 
L 691 4666 
z
" transform="scale(0.015625)"/>
       </defs>
       <use xlink:href="#DejaVuSans-35"/>
       <use xlink:href="#DejaVuSans-30" x="63.623047"/>
       <use xlink:href="#DejaVuSans-30" x="127.246094"/>
      </g>
     </g>
    </g>
    <g id="xtick_3">
     <g id="line2d_3">
      <g>
       <use xlink:href="#medeb1bc8cd" x="636.346913" y="512.64" style="stroke: #000000; stroke-width: 0.8"/>
      </g>
     </g>
     <g id="text_3">
      <!-- 1000 -->
      <g transform="translate(623.621913 527.238438) scale(0.1 -0.1)">
       <defs>
        <path id="DejaVuSans-31" d="M 794 531 
L 1825 531 
L 1825 4091 
L 703 3866 
L 703 4441 
L 1819 4666 
L 2450 4666 
L 2450 531 
L 3481 531 
L 3481 0 
L 794 0 
L 794 531 
z
" transform="scale(0.015625)"/>
       </defs>
       <use xlink:href="#DejaVuSans-31"/>
       <use xlink:href="#DejaVuSans-30" x="63.623047"/>
       <use xlink:href="#DejaVuSans-30" x="127.246094"/>
       <use xlink:href="#DejaVuSans-30" x="190.869141"/>
      </g>
     </g>
    </g>
    <g id="xtick_4">
     <g id="line2d_4">
      <g>
       <use xlink:href="#medeb1bc8cd" x="839.653087" y="512.64" style="stroke: #000000; stroke-width: 0.8"/>
      </g>
     </g>
     <g id="text_4">
      <!-- 1500 -->
      <g transform="translate(826.928087 527.238438) scale(0.1 -0.1)">
       <use xlink:href="#DejaVuSans-31"/>
       <use xlink:href="#DejaVuSans-35" x="63.623047"/>
       <use xlink:href="#DejaVuSans-30" x="127.246094"/>
       <use xlink:href="#DejaVuSans-30" x="190.869141"/>
      </g>
     </g>
    </g>
    <g id="xtick_5">
     <g id="line2d_5">
      <g>
       <use xlink:href="#medeb1bc8cd" x="1042.95926" y="512.64" style="stroke: #000000; stroke-width: 0.8"/>
      </g>
     </g>
     <g id="text_5">
      <!-- 2000 -->
      <g transform="translate(1030.23426 527.238438) scale(0.1 -0.1)">
       <defs>
        <path id="DejaVuSans-32" d="M 1228 531 
L 3431 531 
L 3431 0 
L 469 0 
L 469 531 
Q 828 903 1448 1529 
Q 2069 2156 2228 2338 
Q 2531 2678 2651 2914 
Q 2772 3150 2772 3378 
Q 2772 3750 2511 3984 
Q 2250 4219 1831 4219 
Q 1534 4219 1204 4116 
Q 875 4013 500 3803 
L 500 4441 
Q 881 4594 1212 4672 
Q 1544 4750 1819 4750 
Q 2544 4750 2975 4387 
Q 3406 4025 3406 3419 
Q 3406 3131 3298 2873 
Q 3191 2616 2906 2266 
Q 2828 2175 2409 1742 
Q 1991 1309 1228 531 
z
" transform="scale(0.015625)"/>
       </defs>
       <use xlink:href="#DejaVuSans-32"/>
       <use xlink:href="#DejaVuSans-30" x="63.623047"/>
       <use xlink:href="#DejaVuSans-30" x="127.246094"/>
       <use xlink:href="#DejaVuSans-30" x="190.869141"/>
      </g>
     </g>
    </g>
    <g id="xtick_6">
     <g id="line2d_6">
      <g>
       <use xlink:href="#medeb1bc8cd" x="1246.265433" y="512.64" style="stroke: #000000; stroke-width: 0.8"/>
      </g>
     </g>
     <g id="text_6">
      <!-- 2500 -->
      <g transform="translate(1233.540433 527.238438) scale(0.1 -0.1)">
       <use xlink:href="#DejaVuSans-32"/>
       <use xlink:href="#DejaVuSans-35" x="63.623047"/>
       <use xlink:href="#DejaVuSans-30" x="127.246094"/>
       <use xlink:href="#DejaVuSans-30" x="190.869141"/>
      </g>
     </g>
    </g>
   </g>
   <g id="matplotlib.axis_2">
    <g id="ytick_1">
     <g id="line2d_7">
      <defs>
       <path id="mba0ba1a66b" d="M 0 0 
L -3.5 0 
" style="stroke: #000000; stroke-width: 0.8"/>
      </defs>
      <g>
       <use xlink:href="#mba0ba1a66b" x="180" y="453.892034" style="stroke: #000000; stroke-width: 0.8"/>
      </g>
     </g>
     <g id="text_7">
      <!-- −4 -->
      <g transform="translate(158.257812 457.691252) scale(0.1 -0.1)">
       <defs>
        <path id="DejaVuSans-2212" d="M 678 2272 
L 4684 2272 
L 4684 1741 
L 678 1741 
L 678 2272 
z
" transform="scale(0.015625)"/>
        <path id="DejaVuSans-34" d="M 2419 4116 
L 825 1625 
L 2419 1625 
L 2419 4116 
z
M 2253 4666 
L 3047 4666 
L 3047 1625 
L 3713 1625 
L 3713 1100 
L 3047 1100 
L 3047 0 
L 2419 0 
L 2419 1100 
L 313 1100 
L 313 1709 
L 2253 4666 
z
" transform="scale(0.015625)"/>
       </defs>
       <use xlink:href="#DejaVuSans-2212"/>
       <use xlink:href="#DejaVuSans-34" x="83.789062"/>
      </g>
     </g>
    </g>
    <g id="ytick_2">
     <g id="line2d_8">
      <g>
       <use xlink:href="#mba0ba1a66b" x="180" y="364.725811" style="stroke: #000000; stroke-width: 0.8"/>
      </g>
     </g>
     <g id="text_8">
      <!-- −2 -->
      <g transform="translate(158.257812 368.52503) scale(0.1 -0.1)">
       <use xlink:href="#DejaVuSans-2212"/>
       <use xlink:href="#DejaVuSans-32" x="83.789062"/>
      </g>
     </g>
    </g>
    <g id="ytick_3">
     <g id="line2d_9">
      <g>
       <use xlink:href="#mba0ba1a66b" x="180" y="275.559588" style="stroke: #000000; stroke-width: 0.8"/>
      </g>
     </g>
     <g id="text_9">
      <!-- 0 -->
      <g transform="translate(166.6375 279.358807) scale(0.1 -0.1)">
       <use xlink:href="#DejaVuSans-30"/>
      </g>
     </g>
    </g>
    <g id="ytick_4">
     <g id="line2d_10">
      <g>
       <use xlink:href="#mba0ba1a66b" x="180" y="186.393365" style="stroke: #000000; stroke-width: 0.8"/>
      </g>
     </g>
     <g id="text_10">
      <!-- 2 -->
      <g transform="translate(166.6375 190.192584) scale(0.1 -0.1)">
       <use xlink:href="#DejaVuSans-32"/>
      </g>
     </g>
    </g>
    <g id="ytick_5">
     <g id="line2d_11">
      <g>
       <use xlink:href="#mba0ba1a66b" x="180" y="97.227142" style="stroke: #000000; stroke-width: 0.8"/>
      </g>
     </g>
     <g id="text_11">
      <!-- 4 -->
      <g transform="translate(166.6375 101.026361) scale(0.1 -0.1)">
       <use xlink:href="#DejaVuSans-34"/>
      </g>
     </g>
    </g>
   </g>
   <g id="line2d_12">
    <path d="M 230.727273 206.963656 
L 231.719979 206.635385 
L 232.712685 206.070057 
L 235.690802 203.358368 
L 237.676214 201.35958 
L 241.647038 197.915824 
L 242.639744 197.245904 
L 243.63245 196.886527 
L 244.625156 197.200316 
L 246.610568 199.512329 
L 247.603273 196.307348 
L 248.595979 184.007117 
L 249.588685 167.679814 
L 250.581391 154.25687 
L 251.574097 145.479614 
L 252.566803 140.427874 
L 253.559509 137.665994 
L 254.552215 136.173989 
L 255.544921 135.383482 
L 256.537627 134.967843 
L 260.50845 133.952313 
L 261.501156 133.484052 
L 262.493862 132.850202 
L 263.486568 132.061095 
L 265.47198 130.074394 
L 269.442804 125.560244 
L 270.43551 124.615041 
L 271.428216 123.864946 
L 272.420922 123.356068 
L 273.413627 123.161221 
L 274.406333 123.369772 
L 275.399039 124.171403 
L 276.391745 125.921555 
L 277.384451 128.90466 
L 278.377157 131.306485 
L 279.369863 130.112939 
L 280.362569 127.031809 
L 281.355275 123.557831 
L 282.347981 119.540676 
L 283.340687 114.817519 
L 286.318804 99.143345 
L 287.31151 94.926388 
L 288.304216 91.820881 
L 289.296922 89.955091 
L 290.289628 89.28 
L 291.282334 89.641955 
L 292.27504 90.839568 
L 293.267746 92.705434 
L 294.260452 95.104011 
L 296.245864 100.939042 
L 298.231276 107.664968 
L 300.216687 115.145599 
L 303.194805 127.375675 
L 306.172923 139.369032 
L 307.165629 142.817418 
L 308.158335 145.83573 
L 309.151041 148.33662 
L 310.143747 150.402452 
L 311.136453 152.084801 
L 315.107276 157.787567 
L 316.099982 159.612454 
L 317.092688 161.774025 
L 318.085394 164.344394 
L 319.0781 167.378768 
L 320.070806 170.919987 
L 322.056218 179.347567 
L 324.04163 188.436622 
L 325.034336 191.972524 
L 326.027041 193.795538 
L 327.019747 193.316985 
L 328.012453 190.736033 
L 329.997865 182.36587 
L 331.983277 173.869582 
L 332.975983 170.254628 
L 333.968689 167.185393 
L 334.961395 164.628153 
L 335.954101 162.562897 
L 336.946807 160.97365 
L 337.939513 159.840431 
L 338.932218 159.145784 
L 339.924924 158.846397 
L 340.91763 158.904856 
L 341.910336 159.296201 
L 342.903042 159.978396 
L 343.895748 160.950864 
L 345.88116 163.411511 
L 347.866572 166.164698 
L 348.859278 167.386034 
L 349.851984 168.320705 
L 350.84469 169.005786 
L 351.837395 169.240722 
L 352.830101 169.121817 
L 353.822807 168.691092 
L 355.808219 167.077919 
L 357.793631 165.391097 
L 358.786337 164.689517 
L 359.779043 164.195401 
L 360.771749 163.927892 
L 361.764455 163.895398 
L 362.757161 164.195017 
L 363.749867 164.823272 
L 364.742572 165.860452 
L 365.735278 167.281482 
L 366.727984 169.16857 
L 367.72069 171.526072 
L 368.713396 174.396228 
L 369.706102 177.861759 
L 370.698808 181.931013 
L 371.691514 186.716915 
L 372.68422 192.255149 
L 373.676926 198.710831 
L 375.662338 214.179417 
L 376.655044 222.375473 
L 377.64775 228.996145 
L 378.640455 231.039106 
L 379.633161 227.914331 
L 383.603985 202.674281 
L 384.596691 198.055466 
L 385.589397 194.189942 
L 386.582103 191.026745 
L 387.574809 188.515618 
L 388.567515 186.566805 
L 389.560221 185.061458 
L 390.552927 184.00019 
L 391.545632 183.286211 
L 392.538338 182.902387 
L 393.531044 182.748673 
L 394.52375 182.80294 
L 395.516456 183.073348 
L 397.501868 183.908749 
L 402.465398 186.28637 
L 405.443515 187.318059 
L 407.428927 188.019852 
L 409.414339 189.015013 
L 410.407045 189.656073 
L 412.392457 191.528785 
L 413.385163 192.744143 
L 415.370575 195.854399 
L 416.363281 197.747014 
L 418.348692 202.290454 
L 420.334104 207.855019 
L 422.319516 214.356691 
L 424.304928 221.668475 
L 427.283046 232.910711 
L 428.275752 236.314909 
L 429.268458 239.28222 
L 430.261163 241.662456 
L 431.253869 243.375271 
L 432.246575 244.111078 
L 433.239281 244.099831 
L 434.231987 243.321394 
L 435.224693 241.712978 
L 436.217399 239.6593 
L 438.202811 234.409494 
L 443.166341 219.724631 
L 445.151752 214.60308 
L 447.137164 210.252818 
L 448.12987 208.450687 
L 449.122576 206.898138 
L 450.115282 205.580923 
L 451.107988 204.475308 
L 452.100694 203.679691 
L 453.0934 203.069378 
L 454.086106 202.752567 
L 455.078812 202.650704 
L 456.071518 202.824538 
L 457.064223 203.213546 
L 458.056929 203.882025 
L 459.049635 204.806233 
L 460.042341 205.969391 
L 461.035047 207.308054 
L 462.027753 208.903896 
L 463.020459 210.718705 
L 465.005871 215.251461 
L 466.991283 220.847673 
L 468.976695 227.768985 
L 469.9694 231.685863 
L 471.954812 241.118601 
L 472.947518 246.897155 
L 473.940224 253.360958 
L 474.93293 261.091014 
L 475.925636 269.92759 
L 476.918342 280.643316 
L 478.903754 305.201884 
L 479.89646 307.088397 
L 480.889166 296.796919 
L 481.881872 283.599043 
L 482.874577 272.349441 
L 483.867283 262.654692 
L 484.859989 254.729145 
L 485.852695 248.089668 
L 486.845401 242.508717 
L 487.838107 237.710619 
L 488.830813 233.655827 
L 489.823519 230.272753 
L 490.816225 227.301856 
L 492.801637 222.96098 
L 493.794343 221.499526 
L 494.787049 220.359147 
L 495.779754 219.68014 
L 496.77246 219.353899 
L 497.765166 219.441526 
L 498.757872 219.911295 
L 499.750578 220.740725 
L 500.743284 222.0017 
L 501.73599 223.637078 
L 502.728696 225.576422 
L 503.721402 228.023 
L 504.714108 230.906374 
L 506.69952 237.798603 
L 508.684932 246.64979 
L 512.655755 265.860216 
L 513.648461 268.722548 
L 514.641167 270.010086 
L 515.633873 269.496275 
L 516.626579 267.599063 
L 517.619285 265.096084 
L 519.604697 259.416385 
L 520.597403 256.80769 
L 521.590109 254.546198 
L 522.582814 252.694695 
L 523.57552 251.079847 
L 525.560932 248.882379 
L 526.553638 248.111862 
L 528.53905 246.95588 
L 529.531756 246.578268 
L 530.524462 246.374831 
L 532.509874 245.779189 
L 534.495286 245.493718 
L 536.480697 245.770903 
L 537.473403 246.1579 
L 538.466109 246.809851 
L 539.458815 247.736939 
L 540.451521 249.049062 
L 541.444227 250.867053 
L 542.436933 253.003805 
L 543.429639 256.104483 
L 544.422345 259.821126 
L 545.415051 264.405132 
L 546.407757 270.145721 
L 547.400463 277.390092 
L 548.393168 286.455617 
L 550.37858 308.628605 
L 551.371286 313.521839 
L 552.363992 305.675377 
L 554.349404 280.576306 
L 555.34211 270.254642 
L 556.334816 261.781413 
L 557.327522 254.633871 
L 558.320228 248.727739 
L 559.312934 243.67507 
L 560.30564 239.358601 
L 561.298345 235.845014 
L 562.291051 232.869036 
L 563.283757 230.353373 
L 564.276463 228.417697 
L 565.269169 226.972076 
L 566.261875 225.750624 
L 567.254581 225.070346 
L 568.247287 224.755942 
L 569.239993 224.811347 
L 570.232699 225.203235 
L 571.225405 225.932439 
L 572.218111 227.08854 
L 573.210817 228.456126 
L 575.196228 232.445275 
L 576.188934 235.055336 
L 578.174346 241.300752 
L 580.159758 249.323417 
L 582.14517 259.307057 
L 583.137876 264.991682 
L 585.123288 278.64269 
L 586.115994 286.638096 
L 588.101405 305.715152 
L 589.094111 315.883889 
L 591.079523 339.289885 
L 592.072229 346.710202 
L 593.064935 345.454341 
L 594.057641 339.29478 
L 595.050347 330.120879 
L 597.035759 315.382021 
L 599.021171 301.481697 
L 601.006582 290.219115 
L 601.999288 284.924342 
L 603.9847 275.875045 
L 605.970112 268.77328 
L 606.962818 265.811384 
L 607.955524 263.219846 
L 609.940936 259.060661 
L 610.933642 257.520571 
L 611.926348 256.429399 
L 612.919054 255.737443 
L 613.911759 255.188937 
L 614.904465 255.052665 
L 615.897171 255.275933 
L 616.889877 255.849776 
L 617.882583 256.801649 
L 618.875289 257.979162 
L 619.867995 259.690377 
L 620.860701 261.709468 
L 622.846113 266.693894 
L 624.831525 273.48368 
L 626.816936 282.28239 
L 628.802348 292.875979 
L 630.78776 306.313003 
L 632.773172 322.961876 
L 634.758584 344.076374 
L 636.743996 368.678072 
L 637.736702 375.710309 
L 638.729408 379.331909 
L 639.722114 374.174925 
L 640.714819 368.326245 
L 642.700231 354.728383 
L 644.685643 343.307809 
L 646.671055 334.367732 
L 647.663761 329.290744 
L 649.649173 321.135853 
L 651.634585 314.239927 
L 653.619996 308.986485 
L 654.612702 307.163652 
L 655.605408 305.638301 
L 657.59082 303.684276 
L 658.583526 303.310312 
L 659.576232 303.313785 
L 661.561644 304.885191 
L 662.55435 306.050135 
L 663.547056 307.685815 
L 665.532468 311.858417 
L 668.510585 319.507205 
L 669.503291 321.598081 
L 670.495997 323.21892 
L 671.488703 324.559564 
L 672.481409 324.350713 
L 673.474115 323.839085 
L 674.466821 322.565074 
L 676.452233 318.904014 
L 677.444939 316.804243 
L 679.43035 313.551967 
L 680.423056 312.413103 
L 681.415762 311.679477 
L 682.408468 311.263478 
L 683.401174 311.253161 
L 684.39388 311.49936 
L 685.386586 312.229056 
L 687.371998 315.176484 
L 688.364704 317.420187 
L 689.35741 319.938836 
L 691.342822 326.860022 
L 692.335527 331.290546 
L 693.328233 336.421036 
L 694.320939 342.248258 
L 696.306351 356.29485 
L 697.299057 364.746712 
L 698.291763 371.715311 
L 699.284469 376.716078 
L 700.277175 376.836671 
L 701.269881 373.532608 
L 704.247999 356.130981 
L 705.240705 351.220473 
L 706.23341 347.148206 
L 707.226116 343.995089 
L 708.218822 341.286693 
L 710.204234 337.963764 
L 711.19694 337.225178 
L 712.189646 337.02265 
L 713.182352 337.223976 
L 714.175058 338.286025 
L 715.167764 339.629779 
L 716.16047 341.540225 
L 717.153176 343.752676 
L 720.131293 354.958942 
L 721.123999 360.400642 
L 723.109411 369.828155 
L 724.102117 371.992486 
L 725.094823 371.588086 
L 726.087529 367.430032 
L 727.080235 362.064613 
L 729.065647 348.883917 
L 731.051059 337.94043 
L 733.03647 329.818472 
L 734.029176 326.376282 
L 735.021882 323.867001 
L 737.007294 319.962477 
L 738 318.857107 
L 738.992706 318.262774 
L 739.985412 318.279406 
L 740.978118 318.468732 
L 741.970824 319.054654 
L 742.96353 320.624464 
L 743.956236 322.495902 
L 744.948941 325.017646 
L 745.941647 328.20164 
L 746.934353 332.251141 
L 747.927059 337.086495 
L 748.919765 342.798725 
L 750.905177 357.904629 
L 752.890589 374.347835 
L 753.883295 377.189683 
L 754.876001 373.691386 
L 755.868707 366.04199 
L 757.854118 349.574954 
L 758.846824 343.126871 
L 759.83953 337.480242 
L 760.832236 332.988492 
L 762.817648 326.02106 
L 763.810354 323.915616 
L 764.80306 322.341349 
L 765.795766 321.250077 
L 766.788472 320.679869 
L 767.781178 320.652095 
L 768.773884 321.135321 
L 769.76659 322.042253 
L 770.759295 323.46099 
L 771.752001 325.389203 
L 772.744707 327.699016 
L 773.737413 330.367694 
L 774.730119 333.434196 
L 776.715531 340.47127 
L 778.700943 347.202287 
L 779.693649 349.679835 
L 780.686355 350.652615 
L 781.679061 350.927237 
L 782.671767 350.016185 
L 783.664473 348.835578 
L 785.649884 344.8238 
L 786.64259 343.288871 
L 788.628002 340.908704 
L 789.620708 340.598166 
L 790.613414 340.57883 
L 791.60612 341.412307 
L 792.598826 342.80079 
L 793.591532 344.755157 
L 794.584238 347.324827 
L 795.576944 350.540722 
L 797.562355 358.135706 
L 798.555061 362.439169 
L 799.547767 365.291923 
L 800.540473 367.079695 
L 801.533179 366.108595 
L 802.525885 362.947333 
L 803.518591 358.64537 
L 805.504003 348.16311 
L 806.496709 343.257585 
L 808.482121 335.557711 
L 809.474827 332.380764 
L 810.467532 330.115991 
L 811.460238 328.25875 
L 812.452944 326.678586 
L 813.44565 325.717061 
L 814.438356 325.31515 
L 815.431062 325.383344 
L 816.423768 325.985663 
L 817.416474 327.035514 
L 818.40918 328.821715 
L 819.401886 330.917234 
L 820.394592 333.691028 
L 821.387298 337.069228 
L 822.380004 341.211438 
L 824.365415 351.668109 
L 827.343533 371.840834 
L 828.336239 375.891979 
L 829.328945 376.270512 
L 830.321651 372.957994 
L 834.292475 349.593449 
L 835.285181 345.125266 
L 836.277886 341.346534 
L 837.270592 338.243691 
L 838.263298 335.806316 
L 839.256004 333.979045 
L 840.24871 332.595203 
L 841.241416 331.606818 
L 842.234122 331.460216 
L 843.226828 331.582203 
L 844.219534 332.112537 
L 845.21224 333.117663 
L 846.204946 334.612354 
L 847.197652 336.366768 
L 848.190358 338.580743 
L 849.183064 341.370851 
L 851.168475 348.001914 
L 853.153887 355.651449 
L 855.139299 364.183117 
L 856.132005 368.230775 
L 857.124711 371.109851 
L 858.117417 372.772017 
L 859.110123 374.127413 
L 860.102829 373.314667 
L 861.095535 372.982491 
L 863.080946 368.69166 
L 864.073652 367.431652 
L 865.066358 364.972828 
L 867.05177 362.935798 
L 868.044476 361.90178 
L 869.037182 361.255161 
L 870.029888 360.071724 
L 871.022594 359.465327 
L 873.008006 357.892645 
L 874.000712 356.940446 
L 874.993418 355.441503 
L 875.986123 354.6604 
L 876.978829 353.399543 
L 879.956947 348.959395 
L 880.949653 347.699204 
L 883.927771 345.281333 
L 884.920477 344.989028 
L 885.913183 345.231678 
L 886.905889 345.617496 
L 888.8913 348.17566 
L 889.884006 350.221911 
L 890.876712 352.772962 
L 891.869418 355.932912 
L 892.862124 360.270405 
L 893.85483 365.896686 
L 894.847536 372.456003 
L 895.840242 381.084904 
L 896.832948 392.690837 
L 897.825654 407.463426 
L 898.81836 426.54058 
L 899.811066 433.588289 
L 901.796477 398.683052 
L 902.789183 384.438437 
L 903.781889 373.092138 
L 905.767301 358.256837 
L 906.760007 352.496637 
L 907.752713 348.062692 
L 908.745419 344.15037 
L 909.738125 340.979643 
L 910.730831 338.553381 
L 911.723537 336.675969 
L 912.716243 335.286986 
L 913.708949 334.668529 
L 914.701655 334.235759 
L 915.69436 334.315533 
L 916.687066 335.200938 
L 917.679772 336.350608 
L 918.672478 337.944888 
L 919.665184 340.310427 
L 920.65789 343.341134 
L 921.650596 346.930004 
L 922.643302 351.368365 
L 923.636008 357.09359 
L 924.628714 363.749982 
L 925.62142 372.654219 
L 926.614126 383.967725 
L 927.606832 399.530739 
L 928.599537 422.635068 
L 929.592243 473.366422 
L 930.584949 447.207812 
L 931.577655 413.012253 
L 932.570361 394.695333 
L 933.563067 381.672078 
L 934.555773 372.215038 
L 935.548479 364.556775 
L 936.541185 359.077338 
L 937.533891 354.390594 
L 938.526597 350.783543 
L 939.519303 348.094364 
L 940.512009 346.191366 
L 941.504714 344.734807 
L 942.49742 343.95237 
L 943.490126 343.542682 
L 945.475538 344.693249 
L 946.468244 346.041863 
L 947.46095 347.876433 
L 948.453656 350.217568 
L 949.446362 353.04013 
L 950.439068 356.864909 
L 952.42448 366.239246 
L 953.417186 372.44245 
L 954.409891 379.827405 
L 956.395303 400.82363 
L 958.380715 427.248885 
L 959.373421 431.56013 
L 960.366127 423.647629 
L 962.351539 402.182747 
L 963.344245 393.794327 
L 964.336951 386.874188 
L 966.322363 377.976082 
L 967.315068 374.54343 
L 968.307774 372.383893 
L 969.30048 370.671804 
L 970.293186 369.337734 
L 971.285892 369.127433 
L 972.278598 368.720313 
L 973.271304 369.260442 
L 974.26401 369.33166 
L 977.242128 372.84224 
L 979.22754 374.278516 
L 980.220246 375.151374 
L 981.212951 374.980494 
L 982.205657 375.093162 
L 983.198363 375.494378 
L 984.191069 375.402466 
L 985.183775 375.440335 
L 987.169187 375.166166 
L 988.161893 375.382826 
L 989.154599 375.839639 
L 990.147305 376.604227 
L 991.140011 377.951534 
L 992.132717 379.850586 
L 993.125423 382.118527 
L 994.118128 385.223757 
L 995.110834 388.963984 
L 996.10354 393.262272 
L 997.096246 398.552663 
L 998.088952 405.74753 
L 1000.074364 422.664627 
L 1001.06707 431.246271 
L 1002.059776 434.015557 
L 1003.052482 429.474599 
L 1005.037894 408.433941 
L 1007.023305 393.824377 
L 1008.016011 387.213527 
L 1009.008717 382.075285 
L 1010.001423 377.799751 
L 1011.986835 371.377308 
L 1012.979541 369.528373 
L 1014.964953 366.761034 
L 1016.950365 366.275909 
L 1017.943071 366.778896 
L 1018.935777 367.794452 
L 1019.928482 369.067142 
L 1021.913894 374.105443 
L 1023.899306 382.091238 
L 1024.892012 387.202705 
L 1025.884718 393.70072 
L 1026.877424 401.007269 
L 1027.87013 410.602957 
L 1028.862836 424.140038 
L 1029.855542 442.109354 
L 1030.848248 470.352529 
L 1031.840954 490.19072 
L 1032.833659 461.793619 
L 1033.826365 437.117824 
L 1034.819071 422.857219 
L 1035.811777 412.033465 
L 1037.797189 397.693701 
L 1038.789895 393.212913 
L 1040.775307 387.195674 
L 1041.768013 385.542166 
L 1042.760719 383.528871 
L 1043.753425 382.831939 
L 1044.746131 382.734347 
L 1045.738837 383.145944 
L 1046.731542 383.988975 
L 1047.724248 385.09136 
L 1050.702366 391.285141 
L 1051.695072 393.982389 
L 1052.687778 397.218807 
L 1053.680484 399.858197 
L 1054.67319 403.909361 
L 1055.665896 406.453355 
L 1056.658602 408.249924 
L 1057.651308 409.186721 
L 1058.644014 410.787221 
L 1059.636719 411.449625 
L 1061.622131 410.797166 
L 1063.607543 410.454849 
L 1064.600249 412.067171 
L 1065.592955 411.791092 
L 1066.585661 414.463555 
L 1067.578367 416.662711 
L 1068.571073 420.20005 
L 1069.563779 424.159029 
L 1070.556485 430.123926 
L 1071.549191 435.311544 
L 1073.534602 454.680697 
L 1074.527308 458.617792 
L 1075.520014 456.50485 
L 1076.51272 443.682784 
L 1078.498132 423.021835 
L 1079.490838 415.114537 
L 1081.47625 401.742689 
L 1082.468956 396.676416 
L 1084.454368 389.245999 
L 1085.447073 386.173047 
L 1088.425191 380.537601 
L 1089.417897 380.163967 
L 1090.410603 380.270716 
L 1091.403309 380.548862 
L 1093.388721 382.457928 
L 1094.381427 384.049665 
L 1095.374133 386.511772 
L 1097.359545 392.376282 
L 1098.35225 396.523385 
L 1100.337662 406.69438 
L 1102.323074 417.399594 
L 1103.31578 420.902744 
L 1104.308486 420.432373 
L 1105.301192 418.739808 
L 1110.264722 393.697745 
L 1111.257428 390.146182 
L 1112.250133 387.218815 
L 1113.242839 383.669964 
L 1114.235545 381.595917 
L 1115.228251 380.644411 
L 1116.220957 379.29681 
L 1117.213663 378.339625 
L 1118.206369 378.103625 
L 1119.199075 378.151934 
L 1120.191781 378.931255 
L 1121.184487 380.061332 
L 1122.177193 381.478206 
L 1124.162605 385.50246 
L 1125.15531 388.287022 
L 1126.148016 391.811056 
L 1128.133428 399.671914 
L 1130.11884 410.140977 
L 1132.104252 422.410921 
L 1133.096958 426.764182 
L 1134.089664 429.169276 
L 1135.08237 428.549488 
L 1136.075076 426.916415 
L 1138.060487 420.977531 
L 1139.053193 416.777737 
L 1140.045899 413.480877 
L 1141.038605 409.32789 
L 1142.031311 408.02132 
L 1143.024017 406.108689 
L 1144.016723 404.879154 
L 1145.009429 403.827266 
L 1146.002135 403.338839 
L 1146.994841 403.526547 
L 1147.987547 404.151499 
L 1148.980253 404.959869 
L 1149.972959 405.533697 
L 1150.965664 407.496797 
L 1151.95837 408.128414 
L 1153.943782 413.349539 
L 1154.936488 416.026309 
L 1155.929194 419.539867 
L 1156.9219 422.044897 
L 1157.914606 427.135572 
L 1159.900018 432.416822 
L 1160.892724 435.811995 
L 1161.88543 439.626288 
L 1164.863547 452.638322 
L 1165.856253 455.579871 
L 1166.848959 459.428282 
L 1167.841665 468.359523 
L 1168.834371 473.962058 
L 1169.827077 477.044072 
L 1170.819783 482.044169 
L 1171.812489 481.501594 
L 1172.805195 481.614916 
L 1173.797901 466.908118 
L 1174.790607 464.078082 
L 1175.783313 453.599835 
L 1176.776019 447.420818 
L 1177.768724 437.922339 
L 1178.76143 433.590856 
L 1179.754136 428.241897 
L 1180.746842 424.53125 
L 1181.739548 419.917895 
L 1182.732254 416.651779 
L 1184.717666 411.447447 
L 1185.710372 410.298345 
L 1186.703078 408.266101 
L 1187.695784 407.07443 
L 1188.68849 406.183443 
L 1189.681196 406.2062 
L 1190.673901 405.322748 
L 1191.666607 405.32798 
L 1192.659313 406.124225 
L 1193.652019 407.334051 
L 1194.644725 406.790746 
L 1195.637431 409.553226 
L 1196.630137 410.851131 
L 1197.622843 412.622652 
L 1199.608255 415.464218 
L 1200.600961 417.488027 
L 1201.593667 419.219985 
L 1202.586373 419.997604 
L 1203.579078 421.128002 
L 1204.571784 421.775453 
L 1205.56449 420.88223 
L 1206.557196 420.770637 
L 1207.549902 419.873266 
L 1208.542608 418.382444 
L 1209.535314 417.411787 
L 1210.52802 416.787228 
L 1211.520726 415.109537 
L 1213.506138 413.682581 
L 1214.498844 412.820229 
L 1215.49155 411.560487 
L 1216.484255 411.626902 
L 1217.476961 412.303331 
L 1218.469667 412.666721 
L 1219.462373 413.765721 
L 1220.455079 414.533378 
L 1221.447785 415.719358 
L 1222.440491 417.871039 
L 1223.433197 419.456702 
L 1224.425903 421.494399 
L 1225.418609 424.716684 
L 1226.411315 426.786147 
L 1227.404021 430.452206 
L 1228.396727 433.111714 
L 1229.389432 438.655207 
L 1230.382138 441.882023 
L 1231.374844 448.176313 
L 1232.36755 452.796173 
L 1233.360256 458.015909 
L 1234.352962 461.622011 
L 1235.345668 468.011565 
L 1236.338374 472.136244 
L 1237.33108 480.833375 
L 1238.323786 483.967704 
L 1239.316492 485.602957 
L 1240.309198 486.675289 
L 1241.301904 488.721264 
L 1242.29461 490.409511 
L 1243.287315 489.02409 
L 1244.280021 488.108448 
L 1245.272727 492.48 
L 1245.272727 492.48 
" clip-path="url(#pebe0e340b7)" style="fill: none; stroke: #1f77b4; stroke-width: 1.5; stroke-linecap: square"/>
   </g>
   <g id="patch_3">
    <path d="M 180 512.64 
L 180 69.12 
" style="fill: none; stroke: #000000; stroke-width: 0.8; stroke-linejoin: miter; stroke-linecap: square"/>
   </g>
   <g id="patch_4">
    <path d="M 1296 512.64 
L 1296 69.12 
" style="fill: none; stroke: #000000; stroke-width: 0.8; stroke-linejoin: miter; stroke-linecap: square"/>
   </g>
   <g id="patch_5">
    <path d="M 180 512.64 
L 1296 512.64 
" style="fill: none; stroke: #000000; stroke-width: 0.8; stroke-linejoin: miter; stroke-linecap: square"/>
   </g>
   <g id="patch_6">
    <path d="M 180 69.12 
L 1296 69.12 
" style="fill: none; stroke: #000000; stroke-width: 0.8; stroke-linejoin: miter; stroke-linecap: square"/>
   </g>
   <g id="text_12">
    <!-- source3-receiver3 -->
    <g transform="translate(557.625 60.80125) scale(0.4 -0.4)">
     <defs>
      <path id="DejaVuSans-73" d="M 2834 3397 
L 2834 2853 
Q 2591 2978 2328 3040 
Q 2066 3103 1784 3103 
Q 1356 3103 1142 2972 
Q 928 2841 928 2578 
Q 928 2378 1081 2264 
Q 1234 2150 1697 2047 
L 1894 2003 
Q 2506 1872 2764 1633 
Q 3022 1394 3022 966 
Q 3022 478 2636 193 
Q 2250 -91 1575 -91 
Q 1294 -91 989 -36 
Q 684 19 347 128 
L 347 722 
Q 666 556 975 473 
Q 1284 391 1588 391 
Q 1994 391 2212 530 
Q 2431 669 2431 922 
Q 2431 1156 2273 1281 
Q 2116 1406 1581 1522 
L 1381 1569 
Q 847 1681 609 1914 
Q 372 2147 372 2553 
Q 372 3047 722 3315 
Q 1072 3584 1716 3584 
Q 2034 3584 2315 3537 
Q 2597 3491 2834 3397 
z
" transform="scale(0.015625)"/>
      <path id="DejaVuSans-6f" d="M 1959 3097 
Q 1497 3097 1228 2736 
Q 959 2375 959 1747 
Q 959 1119 1226 758 
Q 1494 397 1959 397 
Q 2419 397 2687 759 
Q 2956 1122 2956 1747 
Q 2956 2369 2687 2733 
Q 2419 3097 1959 3097 
z
M 1959 3584 
Q 2709 3584 3137 3096 
Q 3566 2609 3566 1747 
Q 3566 888 3137 398 
Q 2709 -91 1959 -91 
Q 1206 -91 779 398 
Q 353 888 353 1747 
Q 353 2609 779 3096 
Q 1206 3584 1959 3584 
z
" transform="scale(0.015625)"/>
      <path id="DejaVuSans-75" d="M 544 1381 
L 544 3500 
L 1119 3500 
L 1119 1403 
Q 1119 906 1312 657 
Q 1506 409 1894 409 
Q 2359 409 2629 706 
Q 2900 1003 2900 1516 
L 2900 3500 
L 3475 3500 
L 3475 0 
L 2900 0 
L 2900 538 
Q 2691 219 2414 64 
Q 2138 -91 1772 -91 
Q 1169 -91 856 284 
Q 544 659 544 1381 
z
M 1991 3584 
L 1991 3584 
z
" transform="scale(0.015625)"/>
      <path id="DejaVuSans-72" d="M 2631 2963 
Q 2534 3019 2420 3045 
Q 2306 3072 2169 3072 
Q 1681 3072 1420 2755 
Q 1159 2438 1159 1844 
L 1159 0 
L 581 0 
L 581 3500 
L 1159 3500 
L 1159 2956 
Q 1341 3275 1631 3429 
Q 1922 3584 2338 3584 
Q 2397 3584 2469 3576 
Q 2541 3569 2628 3553 
L 2631 2963 
z
" transform="scale(0.015625)"/>
      <path id="DejaVuSans-63" d="M 3122 3366 
L 3122 2828 
Q 2878 2963 2633 3030 
Q 2388 3097 2138 3097 
Q 1578 3097 1268 2742 
Q 959 2388 959 1747 
Q 959 1106 1268 751 
Q 1578 397 2138 397 
Q 2388 397 2633 464 
Q 2878 531 3122 666 
L 3122 134 
Q 2881 22 2623 -34 
Q 2366 -91 2075 -91 
Q 1284 -91 818 406 
Q 353 903 353 1747 
Q 353 2603 823 3093 
Q 1294 3584 2113 3584 
Q 2378 3584 2631 3529 
Q 2884 3475 3122 3366 
z
" transform="scale(0.015625)"/>
      <path id="DejaVuSans-65" d="M 3597 1894 
L 3597 1613 
L 953 1613 
Q 991 1019 1311 708 
Q 1631 397 2203 397 
Q 2534 397 2845 478 
Q 3156 559 3463 722 
L 3463 178 
Q 3153 47 2828 -22 
Q 2503 -91 2169 -91 
Q 1331 -91 842 396 
Q 353 884 353 1716 
Q 353 2575 817 3079 
Q 1281 3584 2069 3584 
Q 2775 3584 3186 3129 
Q 3597 2675 3597 1894 
z
M 3022 2063 
Q 3016 2534 2758 2815 
Q 2500 3097 2075 3097 
Q 1594 3097 1305 2825 
Q 1016 2553 972 2059 
L 3022 2063 
z
" transform="scale(0.015625)"/>
      <path id="DejaVuSans-33" d="M 2597 2516 
Q 3050 2419 3304 2112 
Q 3559 1806 3559 1356 
Q 3559 666 3084 287 
Q 2609 -91 1734 -91 
Q 1441 -91 1130 -33 
Q 819 25 488 141 
L 488 750 
Q 750 597 1062 519 
Q 1375 441 1716 441 
Q 2309 441 2620 675 
Q 2931 909 2931 1356 
Q 2931 1769 2642 2001 
Q 2353 2234 1838 2234 
L 1294 2234 
L 1294 2753 
L 1863 2753 
Q 2328 2753 2575 2939 
Q 2822 3125 2822 3475 
Q 2822 3834 2567 4026 
Q 2313 4219 1838 4219 
Q 1578 4219 1281 4162 
Q 984 4106 628 3988 
L 628 4550 
Q 988 4650 1302 4700 
Q 1616 4750 1894 4750 
Q 2613 4750 3031 4423 
Q 3450 4097 3450 3541 
Q 3450 3153 3228 2886 
Q 3006 2619 2597 2516 
z
" transform="scale(0.015625)"/>
      <path id="DejaVuSans-2d" d="M 313 2009 
L 1997 2009 
L 1997 1497 
L 313 1497 
L 313 2009 
z
" transform="scale(0.015625)"/>
      <path id="DejaVuSans-69" d="M 603 3500 
L 1178 3500 
L 1178 0 
L 603 0 
L 603 3500 
z
M 603 4863 
L 1178 4863 
L 1178 4134 
L 603 4134 
L 603 4863 
z
" transform="scale(0.015625)"/>
      <path id="DejaVuSans-76" d="M 191 3500 
L 800 3500 
L 1894 563 
L 2988 3500 
L 3597 3500 
L 2284 0 
L 1503 0 
L 191 3500 
z
" transform="scale(0.015625)"/>
     </defs>
     <use xlink:href="#DejaVuSans-73"/>
     <use xlink:href="#DejaVuSans-6f" x="52.099609"/>
     <use xlink:href="#DejaVuSans-75" x="113.28125"/>
     <use xlink:href="#DejaVuSans-72" x="176.660156"/>
     <use xlink:href="#DejaVuSans-63" x="215.523438"/>
     <use xlink:href="#DejaVuSans-65" x="270.503906"/>
     <use xlink:href="#DejaVuSans-33" x="332.027344"/>
     <use xlink:href="#DejaVuSans-2d" x="395.650391"/>
     <use xlink:href="#DejaVuSans-72" x="431.734375"/>
     <use xlink:href="#DejaVuSans-65" x="470.597656"/>
     <use xlink:href="#DejaVuSans-63" x="532.121094"/>
     <use xlink:href="#DejaVuSans-65" x="587.101562"/>
     <use xlink:href="#DejaVuSans-69" x="648.625"/>
     <use xlink:href="#DejaVuSans-76" x="676.408203"/>
     <use xlink:href="#DejaVuSans-65" x="735.587891"/>
     <use xlink:href="#DejaVuSans-72" x="797.111328"/>
     <use xlink:href="#DejaVuSans-33" x="838.224609"/>
    </g>
   </g>
  </g>
 </g>
 <defs>
  <clipPath id="pebe0e340b7">
   <rect x="180" y="69.12" width="1116" height="443.52"/>
  </clipPath>
 </defs>
</svg>
