<?xml version="1.0" encoding="utf-8" standalone="no"?>
<!DOCTYPE svg PUBLIC "-//W3C//DTD SVG 1.1//EN"
  "http://www.w3.org/Graphics/SVG/1.1/DTD/svg11.dtd">
<svg xmlns:xlink="http://www.w3.org/1999/xlink" width="1440pt" height="576pt" viewBox="0 0 1440 576" xmlns="http://www.w3.org/2000/svg" version="1.1">
 <metadata>
  <rdf:RDF xmlns:dc="http://purl.org/dc/elements/1.1/" xmlns:cc="http://creativecommons.org/ns#" xmlns:rdf="http://www.w3.org/1999/02/22-rdf-syntax-ns#">
   <cc:Work>
    <dc:type rdf:resource="http://purl.org/dc/dcmitype/StillImage"/>
    <dc:date>2024-05-22T04:49:42.892402</dc:date>
    <dc:format>image/svg+xml</dc:format>
    <dc:creator>
     <cc:Agent>
      <dc:title>Matplotlib v3.8.3, https://matplotlib.org/</dc:title>
     </cc:Agent>
    </dc:creator>
   </cc:Work>
  </rdf:RDF>
 </metadata>
 <defs>
  <style type="text/css">*{stroke-linejoin: round; stroke-linecap: butt}</style>
 </defs>
 <g id="figure_1">
  <g id="patch_1">
   <path d="M 0 576 
L 1440 576 
L 1440 0 
L 0 0 
z
" style="fill: #ffffff"/>
  </g>
  <g id="axes_1">
   <g id="patch_2">
    <path d="M 180 512.64 
L 1296 512.64 
L 1296 69.12 
L 180 69.12 
z
" style="fill: #ffffff"/>
   </g>
   <g id="matplotlib.axis_1">
    <g id="xtick_1">
     <g id="line2d_1">
      <defs>
       <path id="mb494044ab6" d="M 0 0 
L 0 3.5 
" style="stroke: #000000; stroke-width: 0.8"/>
      </defs>
      <g>
       <use xlink:href="#mb494044ab6" x="229.734567" y="512.64" style="stroke: #000000; stroke-width: 0.8"/>
      </g>
     </g>
     <g id="text_1">
      <!-- 0 -->
      <g transform="translate(226.553317 527.238438) scale(0.1 -0.1)">
       <defs>
        <path id="DejaVuSans-30" d="M 2034 4250 
Q 1547 4250 1301 3770 
Q 1056 3291 1056 2328 
Q 1056 1369 1301 889 
Q 1547 409 2034 409 
Q 2525 409 2770 889 
Q 3016 1369 3016 2328 
Q 3016 3291 2770 3770 
Q 2525 4250 2034 4250 
z
M 2034 4750 
Q 2819 4750 3233 4129 
Q 3647 3509 3647 2328 
Q 3647 1150 3233 529 
Q 2819 -91 2034 -91 
Q 1250 -91 836 529 
Q 422 1150 422 2328 
Q 422 3509 836 4129 
Q 1250 4750 2034 4750 
z
" transform="scale(0.015625)"/>
       </defs>
       <use xlink:href="#DejaVuSans-30"/>
      </g>
     </g>
    </g>
    <g id="xtick_2">
     <g id="line2d_2">
      <g>
       <use xlink:href="#mb494044ab6" x="433.04074" y="512.64" style="stroke: #000000; stroke-width: 0.8"/>
      </g>
     </g>
     <g id="text_2">
      <!-- 500 -->
      <g transform="translate(423.49699 527.238438) scale(0.1 -0.1)">
       <defs>
        <path id="DejaVuSans-35" d="M 691 4666 
L 3169 4666 
L 3169 4134 
L 1269 4134 
L 1269 2991 
Q 1406 3038 1543 3061 
Q 1681 3084 1819 3084 
Q 2600 3084 3056 2656 
Q 3513 2228 3513 1497 
Q 3513 744 3044 326 
Q 2575 -91 1722 -91 
Q 1428 -91 1123 -41 
Q 819 9 494 109 
L 494 744 
Q 775 591 1075 516 
Q 1375 441 1709 441 
Q 2250 441 2565 725 
Q 2881 1009 2881 1497 
Q 2881 1984 2565 2268 
Q 2250 2553 1709 2553 
Q 1456 2553 1204 2497 
Q 953 2441 691 2322 
L 691 4666 
z
" transform="scale(0.015625)"/>
       </defs>
       <use xlink:href="#DejaVuSans-35"/>
       <use xlink:href="#DejaVuSans-30" x="63.623047"/>
       <use xlink:href="#DejaVuSans-30" x="127.246094"/>
      </g>
     </g>
    </g>
    <g id="xtick_3">
     <g id="line2d_3">
      <g>
       <use xlink:href="#mb494044ab6" x="636.346913" y="512.64" style="stroke: #000000; stroke-width: 0.8"/>
      </g>
     </g>
     <g id="text_3">
      <!-- 1000 -->
      <g transform="translate(623.621913 527.238438) scale(0.1 -0.1)">
       <defs>
        <path id="DejaVuSans-31" d="M 794 531 
L 1825 531 
L 1825 4091 
L 703 3866 
L 703 4441 
L 1819 4666 
L 2450 4666 
L 2450 531 
L 3481 531 
L 3481 0 
L 794 0 
L 794 531 
z
" transform="scale(0.015625)"/>
       </defs>
       <use xlink:href="#DejaVuSans-31"/>
       <use xlink:href="#DejaVuSans-30" x="63.623047"/>
       <use xlink:href="#DejaVuSans-30" x="127.246094"/>
       <use xlink:href="#DejaVuSans-30" x="190.869141"/>
      </g>
     </g>
    </g>
    <g id="xtick_4">
     <g id="line2d_4">
      <g>
       <use xlink:href="#mb494044ab6" x="839.653087" y="512.64" style="stroke: #000000; stroke-width: 0.8"/>
      </g>
     </g>
     <g id="text_4">
      <!-- 1500 -->
      <g transform="translate(826.928087 527.238438) scale(0.1 -0.1)">
       <use xlink:href="#DejaVuSans-31"/>
       <use xlink:href="#DejaVuSans-35" x="63.623047"/>
       <use xlink:href="#DejaVuSans-30" x="127.246094"/>
       <use xlink:href="#DejaVuSans-30" x="190.869141"/>
      </g>
     </g>
    </g>
    <g id="xtick_5">
     <g id="line2d_5">
      <g>
       <use xlink:href="#mb494044ab6" x="1042.95926" y="512.64" style="stroke: #000000; stroke-width: 0.8"/>
      </g>
     </g>
     <g id="text_5">
      <!-- 2000 -->
      <g transform="translate(1030.23426 527.238438) scale(0.1 -0.1)">
       <defs>
        <path id="DejaVuSans-32" d="M 1228 531 
L 3431 531 
L 3431 0 
L 469 0 
L 469 531 
Q 828 903 1448 1529 
Q 2069 2156 2228 2338 
Q 2531 2678 2651 2914 
Q 2772 3150 2772 3378 
Q 2772 3750 2511 3984 
Q 2250 4219 1831 4219 
Q 1534 4219 1204 4116 
Q 875 4013 500 3803 
L 500 4441 
Q 881 4594 1212 4672 
Q 1544 4750 1819 4750 
Q 2544 4750 2975 4387 
Q 3406 4025 3406 3419 
Q 3406 3131 3298 2873 
Q 3191 2616 2906 2266 
Q 2828 2175 2409 1742 
Q 1991 1309 1228 531 
z
" transform="scale(0.015625)"/>
       </defs>
       <use xlink:href="#DejaVuSans-32"/>
       <use xlink:href="#DejaVuSans-30" x="63.623047"/>
       <use xlink:href="#DejaVuSans-30" x="127.246094"/>
       <use xlink:href="#DejaVuSans-30" x="190.869141"/>
      </g>
     </g>
    </g>
    <g id="xtick_6">
     <g id="line2d_6">
      <g>
       <use xlink:href="#mb494044ab6" x="1246.265433" y="512.64" style="stroke: #000000; stroke-width: 0.8"/>
      </g>
     </g>
     <g id="text_6">
      <!-- 2500 -->
      <g transform="translate(1233.540433 527.238438) scale(0.1 -0.1)">
       <use xlink:href="#DejaVuSans-32"/>
       <use xlink:href="#DejaVuSans-35" x="63.623047"/>
       <use xlink:href="#DejaVuSans-30" x="127.246094"/>
       <use xlink:href="#DejaVuSans-30" x="190.869141"/>
      </g>
     </g>
    </g>
   </g>
   <g id="matplotlib.axis_2">
    <g id="ytick_1">
     <g id="line2d_7">
      <defs>
       <path id="m23447cc223" d="M 0 0 
L -3.5 0 
" style="stroke: #000000; stroke-width: 0.8"/>
      </defs>
      <g>
       <use xlink:href="#m23447cc223" x="180" y="485.643889" style="stroke: #000000; stroke-width: 0.8"/>
      </g>
     </g>
     <g id="text_7">
      <!-- −10 -->
      <g transform="translate(151.895312 489.443108) scale(0.1 -0.1)">
       <defs>
        <path id="DejaVuSans-2212" d="M 678 2272 
L 4684 2272 
L 4684 1741 
L 678 1741 
L 678 2272 
z
" transform="scale(0.015625)"/>
       </defs>
       <use xlink:href="#DejaVuSans-2212"/>
       <use xlink:href="#DejaVuSans-31" x="83.789062"/>
       <use xlink:href="#DejaVuSans-30" x="147.412109"/>
      </g>
     </g>
    </g>
    <g id="ytick_2">
     <g id="line2d_8">
      <g>
       <use xlink:href="#m23447cc223" x="180" y="426.56784" style="stroke: #000000; stroke-width: 0.8"/>
      </g>
     </g>
     <g id="text_8">
      <!-- −8 -->
      <g transform="translate(158.257812 430.367059) scale(0.1 -0.1)">
       <defs>
        <path id="DejaVuSans-38" d="M 2034 2216 
Q 1584 2216 1326 1975 
Q 1069 1734 1069 1313 
Q 1069 891 1326 650 
Q 1584 409 2034 409 
Q 2484 409 2743 651 
Q 3003 894 3003 1313 
Q 3003 1734 2745 1975 
Q 2488 2216 2034 2216 
z
M 1403 2484 
Q 997 2584 770 2862 
Q 544 3141 544 3541 
Q 544 4100 942 4425 
Q 1341 4750 2034 4750 
Q 2731 4750 3128 4425 
Q 3525 4100 3525 3541 
Q 3525 3141 3298 2862 
Q 3072 2584 2669 2484 
Q 3125 2378 3379 2068 
Q 3634 1759 3634 1313 
Q 3634 634 3220 271 
Q 2806 -91 2034 -91 
Q 1263 -91 848 271 
Q 434 634 434 1313 
Q 434 1759 690 2068 
Q 947 2378 1403 2484 
z
M 1172 3481 
Q 1172 3119 1398 2916 
Q 1625 2713 2034 2713 
Q 2441 2713 2670 2916 
Q 2900 3119 2900 3481 
Q 2900 3844 2670 4047 
Q 2441 4250 2034 4250 
Q 1625 4250 1398 4047 
Q 1172 3844 1172 3481 
z
" transform="scale(0.015625)"/>
       </defs>
       <use xlink:href="#DejaVuSans-2212"/>
       <use xlink:href="#DejaVuSans-38" x="83.789062"/>
      </g>
     </g>
    </g>
    <g id="ytick_3">
     <g id="line2d_9">
      <g>
       <use xlink:href="#m23447cc223" x="180" y="367.491791" style="stroke: #000000; stroke-width: 0.8"/>
      </g>
     </g>
     <g id="text_9">
      <!-- −6 -->
      <g transform="translate(158.257812 371.29101) scale(0.1 -0.1)">
       <defs>
        <path id="DejaVuSans-36" d="M 2113 2584 
Q 1688 2584 1439 2293 
Q 1191 2003 1191 1497 
Q 1191 994 1439 701 
Q 1688 409 2113 409 
Q 2538 409 2786 701 
Q 3034 994 3034 1497 
Q 3034 2003 2786 2293 
Q 2538 2584 2113 2584 
z
M 3366 4563 
L 3366 3988 
Q 3128 4100 2886 4159 
Q 2644 4219 2406 4219 
Q 1781 4219 1451 3797 
Q 1122 3375 1075 2522 
Q 1259 2794 1537 2939 
Q 1816 3084 2150 3084 
Q 2853 3084 3261 2657 
Q 3669 2231 3669 1497 
Q 3669 778 3244 343 
Q 2819 -91 2113 -91 
Q 1303 -91 875 529 
Q 447 1150 447 2328 
Q 447 3434 972 4092 
Q 1497 4750 2381 4750 
Q 2619 4750 2861 4703 
Q 3103 4656 3366 4563 
z
" transform="scale(0.015625)"/>
       </defs>
       <use xlink:href="#DejaVuSans-2212"/>
       <use xlink:href="#DejaVuSans-36" x="83.789062"/>
      </g>
     </g>
    </g>
    <g id="ytick_4">
     <g id="line2d_10">
      <g>
       <use xlink:href="#m23447cc223" x="180" y="308.415741" style="stroke: #000000; stroke-width: 0.8"/>
      </g>
     </g>
     <g id="text_10">
      <!-- −4 -->
      <g transform="translate(158.257812 312.21496) scale(0.1 -0.1)">
       <defs>
        <path id="DejaVuSans-34" d="M 2419 4116 
L 825 1625 
L 2419 1625 
L 2419 4116 
z
M 2253 4666 
L 3047 4666 
L 3047 1625 
L 3713 1625 
L 3713 1100 
L 3047 1100 
L 3047 0 
L 2419 0 
L 2419 1100 
L 313 1100 
L 313 1709 
L 2253 4666 
z
" transform="scale(0.015625)"/>
       </defs>
       <use xlink:href="#DejaVuSans-2212"/>
       <use xlink:href="#DejaVuSans-34" x="83.789062"/>
      </g>
     </g>
    </g>
    <g id="ytick_5">
     <g id="line2d_11">
      <g>
       <use xlink:href="#m23447cc223" x="180" y="249.339692" style="stroke: #000000; stroke-width: 0.8"/>
      </g>
     </g>
     <g id="text_11">
      <!-- −2 -->
      <g transform="translate(158.257812 253.138911) scale(0.1 -0.1)">
       <use xlink:href="#DejaVuSans-2212"/>
       <use xlink:href="#DejaVuSans-32" x="83.789062"/>
      </g>
     </g>
    </g>
    <g id="ytick_6">
     <g id="line2d_12">
      <g>
       <use xlink:href="#m23447cc223" x="180" y="190.263643" style="stroke: #000000; stroke-width: 0.8"/>
      </g>
     </g>
     <g id="text_12">
      <!-- 0 -->
      <g transform="translate(166.6375 194.062862) scale(0.1 -0.1)">
       <use xlink:href="#DejaVuSans-30"/>
      </g>
     </g>
    </g>
    <g id="ytick_7">
     <g id="line2d_13">
      <g>
       <use xlink:href="#m23447cc223" x="180" y="131.187594" style="stroke: #000000; stroke-width: 0.8"/>
      </g>
     </g>
     <g id="text_13">
      <!-- 2 -->
      <g transform="translate(166.6375 134.986812) scale(0.1 -0.1)">
       <use xlink:href="#DejaVuSans-32"/>
      </g>
     </g>
    </g>
    <g id="ytick_8">
     <g id="line2d_14">
      <g>
       <use xlink:href="#m23447cc223" x="180" y="72.111544" style="stroke: #000000; stroke-width: 0.8"/>
      </g>
     </g>
     <g id="text_14">
      <!-- 4 -->
      <g transform="translate(166.6375 75.910763) scale(0.1 -0.1)">
       <use xlink:href="#DejaVuSans-34"/>
      </g>
     </g>
    </g>
   </g>
   <g id="line2d_15">
    <path d="M 230.727273 217.714828 
L 231.719979 218.046698 
L 232.712685 217.793262 
L 233.70539 217.742645 
L 235.690802 217.35063 
L 236.683508 217.451517 
L 237.676214 217.05277 
L 238.66892 216.901199 
L 243.63245 215.417446 
L 244.625156 215.7486 
L 245.617862 214.088649 
L 246.610568 209.405889 
L 247.603273 215.831634 
L 248.595979 212.329275 
L 249.588685 185.526423 
L 250.581391 180.360878 
L 251.574097 188.02975 
L 252.566803 181.256394 
L 253.559509 199.399725 
L 254.552215 188.974633 
L 255.544921 171.274269 
L 256.537627 187.793357 
L 257.530333 153.00954 
L 258.523039 149.995222 
L 259.515745 192.68298 
L 260.50845 163.799565 
L 261.501156 165.322779 
L 262.493862 171.816743 
L 263.486568 148.719589 
L 264.479274 158.294684 
L 265.47198 204.707106 
L 266.464686 178.788239 
L 267.457392 146.307272 
L 268.450098 133.217148 
L 269.442804 134.243264 
L 270.43551 127.883812 
L 271.428216 112.312271 
L 272.420922 112.173835 
L 273.413627 107.851325 
L 274.406333 92.316486 
L 275.399039 93.121974 
L 276.391745 105.313004 
L 277.384451 91.826909 
L 278.377157 89.28 
L 279.369863 111.585318 
L 280.362569 116.597443 
L 281.355275 98.072973 
L 282.347981 103.108895 
L 283.340687 116.252389 
L 284.333393 119.112587 
L 285.326099 122.525584 
L 286.318804 128.71047 
L 287.31151 157.014997 
L 288.304216 134.605165 
L 289.296922 122.979785 
L 290.289628 135.166735 
L 291.282334 166.323268 
L 292.27504 177.484103 
L 293.267746 192.351169 
L 294.260452 175.936085 
L 295.253158 210.965591 
L 296.245864 203.715917 
L 297.23857 224.66484 
L 298.231276 183.402413 
L 299.223981 187.464328 
L 300.216687 203.757514 
L 301.209393 202.765946 
L 302.202099 198.576801 
L 303.194805 193.468662 
L 304.187511 240.627878 
L 305.180217 195.896032 
L 306.172923 204.169997 
L 307.165629 196.916063 
L 308.158335 194.344883 
L 309.151041 259.58023 
L 310.143747 211.916545 
L 311.136453 224.200899 
L 312.129159 224.368269 
L 313.121864 225.517102 
L 314.11457 242.218418 
L 315.107276 240.837699 
L 316.099982 236.81797 
L 317.092688 232.266041 
L 318.085394 233.239776 
L 319.0781 251.059977 
L 320.070806 238.131934 
L 321.063512 239.888656 
L 322.056218 242.290807 
L 323.048924 241.786079 
L 324.04163 238.762522 
L 325.034336 254.960248 
L 326.027041 252.536911 
L 327.019747 243.222906 
L 328.012453 237.021945 
L 329.005159 242.029427 
L 329.997865 245.819515 
L 330.990571 250.494403 
L 331.983277 256.192373 
L 332.975983 239.444151 
L 333.968689 261.397623 
L 334.961395 251.844276 
L 335.954101 254.938828 
L 336.946807 266.001234 
L 337.939513 254.694056 
L 338.932218 272.620884 
L 339.924924 247.801376 
L 340.91763 248.253727 
L 341.910336 253.991162 
L 342.903042 264.051511 
L 343.895748 246.27671 
L 344.888454 249.295356 
L 345.88116 250.325238 
L 346.873866 268.630143 
L 347.866572 260.801279 
L 348.859278 248.076379 
L 349.851984 254.649314 
L 350.84469 258.560087 
L 351.837395 258.229159 
L 352.830101 274.425961 
L 353.822807 259.030502 
L 354.815513 263.968437 
L 355.808219 264.059894 
L 356.800925 280.588712 
L 357.793631 284.97899 
L 358.786337 246.041107 
L 359.779043 252.504911 
L 360.771749 273.968871 
L 361.764455 262.576237 
L 362.757161 267.735421 
L 363.749867 258.861266 
L 364.742572 256.283169 
L 365.735278 273.170292 
L 366.727984 261.227671 
L 367.72069 264.66884 
L 368.713396 259.698917 
L 369.706102 250.99557 
L 370.698808 260.170547 
L 371.691514 258.066933 
L 372.68422 267.950794 
L 373.676926 273.466314 
L 374.669632 292.456041 
L 375.662338 276.97263 
L 376.655044 294.180361 
L 377.64775 261.006333 
L 378.640455 278.916111 
L 379.633161 265.201593 
L 380.625867 271.087128 
L 381.618573 277.723064 
L 382.611279 289.473834 
L 383.603985 260.732009 
L 384.596691 288.984557 
L 385.589397 293.005357 
L 386.582103 259.700218 
L 387.574809 292.436086 
L 388.567515 277.351682 
L 389.560221 296.189621 
L 390.552927 288.504513 
L 391.545632 265.819471 
L 392.538338 272.86303 
L 393.531044 276.526163 
L 394.52375 278.576247 
L 395.516456 286.013545 
L 396.509162 262.561288 
L 397.501868 316.058217 
L 398.494574 288.340777 
L 399.48728 296.83269 
L 400.479986 287.017731 
L 401.472692 279.459907 
L 402.465398 293.893225 
L 403.458104 311.016371 
L 404.450809 284.848184 
L 405.443515 285.125989 
L 406.436221 265.221171 
L 407.428927 329.704206 
L 408.421633 270.633571 
L 409.414339 299.272041 
L 410.407045 292.342467 
L 411.399751 275.464229 
L 412.392457 287.959086 
L 413.385163 279.587902 
L 414.377869 332.381169 
L 415.370575 294.289214 
L 416.363281 292.962054 
L 417.355986 327.582252 
L 418.348692 273.698733 
L 419.341398 279.562363 
L 420.334104 334.634435 
L 421.32681 284.102792 
L 422.319516 326.836625 
L 423.312222 278.857261 
L 424.304928 302.583758 
L 425.297634 308.351386 
L 426.29034 276.750093 
L 427.283046 310.544636 
L 428.275752 293.518462 
L 429.268458 282.652416 
L 430.261163 274.683729 
L 431.253869 312.238942 
L 432.246575 268.272416 
L 433.239281 310.774472 
L 434.231987 297.152036 
L 435.224693 295.428416 
L 436.217399 325.113314 
L 437.210105 305.206304 
L 439.195517 276.565176 
L 440.188223 282.731938 
L 441.180929 298.463003 
L 442.173635 309.374816 
L 443.166341 281.910579 
L 444.159046 288.646253 
L 445.151752 287.553434 
L 446.144458 303.874263 
L 447.137164 271.441783 
L 448.12987 283.86829 
L 449.122576 265.333593 
L 450.115282 267.445729 
L 451.107988 301.916887 
L 452.100694 284.647379 
L 453.0934 280.420769 
L 454.086106 277.756919 
L 455.078812 311.254325 
L 456.071518 303.461899 
L 457.064223 297.397821 
L 458.056929 272.441188 
L 459.049635 305.084318 
L 460.042341 291.444253 
L 461.035047 287.549133 
L 462.027753 275.182208 
L 463.020459 287.035321 
L 464.013165 339.318239 
L 465.005871 281.345194 
L 465.998577 296.21694 
L 466.991283 266.104172 
L 467.983989 341.186125 
L 468.976695 280.111951 
L 469.9694 276.689 
L 470.962106 297.640243 
L 471.954812 299.372139 
L 472.947518 295.142544 
L 473.940224 292.008767 
L 474.93293 281.861673 
L 475.925636 274.009693 
L 476.918342 288.485808 
L 477.911048 286.035969 
L 478.903754 288.939726 
L 479.89646 266.289787 
L 480.889166 293.581022 
L 481.881872 294.176723 
L 482.874577 283.1051 
L 483.867283 270.619076 
L 484.859989 303.968885 
L 485.852695 304.669923 
L 486.845401 280.837349 
L 487.838107 279.898871 
L 488.830813 272.007001 
L 489.823519 299.180655 
L 490.816225 281.838418 
L 491.808931 285.998241 
L 492.801637 341.180767 
L 493.794343 274.386613 
L 494.787049 285.580005 
L 495.779754 287.293036 
L 496.77246 270.010683 
L 497.765166 293.640239 
L 498.757872 288.257264 
L 499.750578 294.422024 
L 500.743284 254.132445 
L 502.728696 268.523207 
L 503.721402 265.207414 
L 504.714108 269.971746 
L 505.706814 280.968043 
L 506.69952 294.817664 
L 507.692226 264.191045 
L 508.684932 272.370425 
L 509.677637 248.679696 
L 510.670343 261.491388 
L 512.655755 313.149962 
L 513.648461 271.058386 
L 514.641167 280.230017 
L 515.633873 336.357568 
L 516.626579 279.370506 
L 517.619285 299.165243 
L 518.611991 296.772835 
L 519.604697 290.653778 
L 520.597403 320.185683 
L 521.590109 255.879969 
L 522.582814 261.556893 
L 523.57552 277.663964 
L 524.568226 274.274123 
L 525.560932 265.988998 
L 526.553638 272.094914 
L 527.546344 272.557554 
L 528.53905 275.454788 
L 529.531756 255.570383 
L 530.524462 294.482204 
L 531.517168 276.389779 
L 532.509874 285.80078 
L 533.50258 290.430035 
L 534.495286 298.546183 
L 535.487991 296.401607 
L 536.480697 304.284803 
L 537.473403 282.973133 
L 538.466109 295.496207 
L 539.458815 290.743303 
L 540.451521 286.79744 
L 541.444227 306.355431 
L 542.436933 267.217657 
L 543.429639 273.024048 
L 544.422345 384.83671 
L 545.415051 307.47885 
L 546.407757 285.407069 
L 547.400463 265.92638 
L 548.393168 290.231463 
L 549.385874 282.189807 
L 550.37858 294.490941 
L 551.371286 289.107324 
L 552.363992 331.757567 
L 553.356698 287.731636 
L 554.349404 286.084394 
L 555.34211 265.511479 
L 556.334816 281.821112 
L 557.327522 316.183633 
L 558.320228 273.466282 
L 559.312934 281.946987 
L 560.30564 299.147292 
L 561.298345 281.473249 
L 562.291051 278.108597 
L 563.283757 288.708462 
L 564.276463 294.510447 
L 565.269169 276.783613 
L 566.261875 277.70402 
L 567.254581 300.76645 
L 568.247287 263.129342 
L 569.239993 314.276862 
L 570.232699 284.580718 
L 571.225405 278.618962 
L 572.218111 342.069548 
L 573.210817 278.651016 
L 574.203523 273.283267 
L 575.196228 297.534349 
L 576.188934 325.721615 
L 577.18164 287.098346 
L 578.174346 287.096253 
L 579.167052 286.509978 
L 580.159758 322.214553 
L 581.152464 282.670442 
L 582.14517 279.993908 
L 583.137876 301.898775 
L 584.130582 290.961285 
L 585.123288 281.603301 
L 586.115994 279.691412 
L 587.1087 287.27965 
L 588.101405 278.07795 
L 589.094111 318.979566 
L 590.086817 296.724111 
L 591.079523 297.099428 
L 592.072229 287.092699 
L 593.064935 345.815766 
L 594.057641 290.116652 
L 595.050347 297.40194 
L 596.043053 318.484509 
L 597.035759 332.925122 
L 598.028465 298.919629 
L 599.021171 318.220883 
L 600.013877 309.036625 
L 601.006582 320.663494 
L 601.999288 279.664714 
L 602.991994 288.457199 
L 603.9847 285.657595 
L 604.977406 355.979892 
L 605.970112 284.381686 
L 606.962818 311.746501 
L 607.955524 302.996006 
L 608.94823 301.161945 
L 609.940936 293.246435 
L 610.933642 310.965827 
L 611.926348 292.301687 
L 612.919054 330.701919 
L 614.904465 295.983391 
L 615.897171 298.298402 
L 616.889877 354.094457 
L 617.882583 299.975953 
L 618.875289 339.187028 
L 619.867995 337.392261 
L 620.860701 383.114244 
L 621.853407 301.82434 
L 622.846113 301.765047 
L 623.838819 320.890387 
L 624.831525 292.316943 
L 625.824231 342.389936 
L 626.816936 320.763513 
L 627.809642 395.035726 
L 628.802348 354.60686 
L 629.795054 321.577577 
L 630.78776 354.090925 
L 631.780466 312.763924 
L 632.773172 301.861458 
L 633.765878 334.762469 
L 634.758584 308.29026 
L 635.75129 310.418488 
L 636.743996 314.54308 
L 637.736702 310.692357 
L 638.729408 312.985723 
L 639.722114 317.842874 
L 640.714819 332.149121 
L 641.707525 319.099725 
L 642.700231 313.334176 
L 643.692937 327.249117 
L 644.685643 373.239406 
L 645.678349 334.483282 
L 646.671055 334.461627 
L 647.663761 310.143348 
L 648.656467 367.526862 
L 649.649173 336.833628 
L 650.641879 321.804121 
L 651.634585 340.340085 
L 652.627291 316.894512 
L 653.619996 369.990213 
L 654.612702 337.511868 
L 655.605408 338.080228 
L 656.598114 355.390529 
L 657.59082 319.810591 
L 658.583526 367.949786 
L 659.576232 326.78866 
L 660.568938 326.025034 
L 661.561644 341.744407 
L 662.55435 326.758568 
L 663.547056 342.763966 
L 664.539762 338.109318 
L 665.532468 332.678219 
L 666.525173 340.260094 
L 667.517879 327.516625 
L 668.510585 337.670663 
L 669.503291 364.03008 
L 670.495997 345.461383 
L 671.488703 351.469077 
L 672.481409 335.104574 
L 673.474115 339.534027 
L 674.466821 332.638203 
L 675.459527 379.901044 
L 677.444939 346.847221 
L 678.437645 345.328796 
L 679.43035 338.758088 
L 680.423056 337.687602 
L 681.415762 349.049531 
L 682.408468 349.639236 
L 683.401174 330.242415 
L 684.39388 364.235044 
L 685.386586 351.791802 
L 686.379292 334.620651 
L 687.371998 356.216252 
L 688.364704 346.319885 
L 689.35741 339.539448 
L 690.350116 343.030423 
L 691.342822 342.619409 
L 692.335527 351.117601 
L 693.328233 353.28914 
L 694.320939 345.216838 
L 695.313645 339.680948 
L 696.306351 350.850799 
L 697.299057 363.430283 
L 698.291763 355.217865 
L 699.284469 348.995056 
L 700.277175 355.003884 
L 701.269881 349.77979 
L 702.262587 354.107252 
L 703.255293 362.212871 
L 705.240705 343.881432 
L 706.23341 367.018281 
L 707.226116 373.510007 
L 708.218822 345.051098 
L 709.211528 366.665582 
L 710.204234 338.159243 
L 711.19694 342.835457 
L 712.189646 357.691234 
L 713.182352 358.131604 
L 714.175058 358.306059 
L 715.167764 365.937547 
L 716.16047 356.645529 
L 717.153176 360.350153 
L 718.145882 367.417482 
L 719.138587 343.89197 
L 720.131293 340.885038 
L 721.123999 345.005953 
L 722.116705 347.918195 
L 723.109411 344.665336 
L 724.102117 370.814789 
L 725.094823 358.778351 
L 726.087529 366.339046 
L 727.080235 352.340077 
L 728.072941 355.379856 
L 729.065647 343.271342 
L 730.058353 354.044536 
L 731.051059 360.503948 
L 732.043764 356.771764 
L 733.03647 350.066884 
L 734.029176 353.566551 
L 735.021882 347.086678 
L 736.014588 352.020087 
L 737.007294 363.337263 
L 738 355.821093 
L 738.992706 352.548793 
L 739.985412 355.141123 
L 740.978118 358.323306 
L 741.970824 357.203943 
L 742.96353 347.947848 
L 743.956236 358.69963 
L 744.948941 361.944455 
L 745.941647 359.157233 
L 746.934353 355.641153 
L 747.927059 365.052426 
L 748.919765 352.838653 
L 749.912471 367.097808 
L 750.905177 346.272772 
L 751.897883 344.958461 
L 752.890589 359.693764 
L 753.883295 361.063798 
L 754.876001 350.539474 
L 755.868707 355.351437 
L 756.861413 350.523459 
L 757.854118 350.496207 
L 758.846824 356.341531 
L 759.83953 357.309932 
L 760.832236 356.643875 
L 761.824942 358.840172 
L 762.817648 351.769117 
L 763.810354 360.38427 
L 764.80306 355.427234 
L 765.795766 361.35477 
L 766.788472 350.38091 
L 767.781178 377.503246 
L 768.773884 360.012671 
L 769.76659 355.376314 
L 770.759295 356.446842 
L 771.752001 361.985931 
L 772.744707 362.36505 
L 773.737413 365.891179 
L 774.730119 371.794946 
L 775.722825 357.569813 
L 776.715531 367.794087 
L 777.708237 360.946616 
L 778.700943 358.6623 
L 779.693649 357.982423 
L 780.686355 354.767134 
L 781.679061 365.062719 
L 783.664473 352.532341 
L 784.657178 365.110057 
L 785.649884 373.502824 
L 786.64259 368.909254 
L 787.635296 352.388394 
L 788.628002 367.985209 
L 789.620708 357.320817 
L 790.613414 368.583539 
L 792.598826 349.445934 
L 793.591532 371.969867 
L 794.584238 357.229438 
L 795.576944 367.662529 
L 796.56965 354.019815 
L 798.555061 363.35364 
L 799.547767 346.694295 
L 800.540473 365.868893 
L 801.533179 358.289471 
L 802.525885 355.573475 
L 803.518591 366.119565 
L 804.511297 367.121096 
L 805.504003 341.338907 
L 806.496709 361.580121 
L 807.489415 372.145481 
L 808.482121 377.314667 
L 809.474827 357.94091 
L 810.467532 367.24916 
L 811.460238 365.314358 
L 812.452944 362.287238 
L 813.44565 357.510169 
L 814.438356 365.218423 
L 815.431062 357.857577 
L 816.423768 377.091686 
L 817.416474 360.071659 
L 818.40918 364.725494 
L 819.401886 377.842842 
L 820.394592 367.804983 
L 821.387298 361.720598 
L 822.380004 359.001893 
L 823.372709 375.195834 
L 824.365415 373.629596 
L 825.358121 365.223543 
L 826.350827 366.915209 
L 827.343533 398.173832 
L 828.336239 367.540203 
L 829.328945 360.231771 
L 830.321651 359.724368 
L 831.314357 357.025055 
L 832.307063 367.018331 
L 833.299769 386.716274 
L 834.292475 370.771525 
L 835.285181 349.756515 
L 836.277886 363.636875 
L 837.270592 363.701553 
L 838.263298 376.706324 
L 839.256004 364.673373 
L 840.24871 356.532001 
L 841.241416 362.342623 
L 842.234122 353.572143 
L 843.226828 367.575642 
L 844.219534 408.658147 
L 845.21224 360.218114 
L 847.197652 364.667637 
L 848.190358 359.707554 
L 849.183064 360.602857 
L 850.175769 371.295627 
L 851.168475 365.797415 
L 852.161181 362.527235 
L 853.153887 364.310313 
L 854.146593 362.19583 
L 855.139299 348.330542 
L 856.132005 369.235224 
L 857.124711 367.990602 
L 858.117417 375.429796 
L 859.110123 373.341371 
L 860.102829 377.028451 
L 861.095535 357.846191 
L 862.088241 358.112093 
L 863.080946 381.850388 
L 864.073652 357.133653 
L 865.066358 355.285751 
L 866.059064 374.413796 
L 867.05177 362.671769 
L 868.044476 363.476812 
L 869.037182 377.434728 
L 870.029888 373.615381 
L 871.022594 371.694246 
L 872.0153 361.575828 
L 873.008006 379.680086 
L 874.000712 369.472358 
L 874.993418 373.126868 
L 875.986123 369.146086 
L 876.978829 370.177253 
L 877.971535 358.999229 
L 878.964241 358.761177 
L 879.956947 362.128234 
L 880.949653 363.289705 
L 881.942359 407.385013 
L 882.935065 375.454264 
L 883.927771 369.21252 
L 884.920477 360.356985 
L 885.913183 391.915396 
L 886.905889 376.234187 
L 887.898595 365.726168 
L 888.8913 367.617033 
L 889.884006 366.595356 
L 890.876712 366.755084 
L 891.869418 380.35836 
L 892.862124 374.350627 
L 893.85483 375.170373 
L 894.847536 396.193896 
L 895.840242 374.394626 
L 896.832948 357.182278 
L 897.825654 396.142958 
L 898.81836 368.650209 
L 899.811066 363.053799 
L 900.803772 370.518672 
L 901.796477 386.930002 
L 902.789183 374.595105 
L 903.781889 367.606081 
L 904.774595 363.876037 
L 905.767301 365.368874 
L 906.760007 381.254092 
L 907.752713 432.296207 
L 908.745419 369.210622 
L 909.738125 365.230958 
L 910.730831 377.400764 
L 911.723537 361.290014 
L 912.716243 361.484251 
L 913.708949 387.933381 
L 914.701655 360.698949 
L 915.69436 366.087248 
L 916.687066 379.269814 
L 917.679772 368.599083 
L 918.672478 377.846168 
L 919.665184 364.256099 
L 920.65789 368.378324 
L 921.650596 393.47826 
L 922.643302 403.5626 
L 923.636008 386.607615 
L 924.628714 376.493928 
L 925.62142 364.803881 
L 926.614126 365.548168 
L 927.606832 365.912009 
L 928.599537 373.957411 
L 929.592243 372.706968 
L 930.584949 370.989047 
L 931.577655 384.776708 
L 932.570361 374.881313 
L 933.563067 362.346105 
L 934.555773 372.853642 
L 935.548479 387.089739 
L 936.541185 392.603354 
L 937.533891 367.908844 
L 938.526597 381.977338 
L 939.519303 360.258113 
L 940.512009 356.991747 
L 941.504714 376.87582 
L 942.49742 364.571839 
L 943.490126 362.710961 
L 944.482832 369.791465 
L 945.475538 396.377267 
L 946.468244 371.94629 
L 947.46095 374.200379 
L 948.453656 369.736252 
L 949.446362 363.999528 
L 950.439068 362.569687 
L 951.431774 382.827465 
L 952.42448 378.594299 
L 953.417186 376.478992 
L 954.409891 381.667984 
L 955.402597 367.959385 
L 956.395303 390.72114 
L 957.388009 384.282232 
L 958.380715 362.281091 
L 959.373421 366.454414 
L 960.366127 439.451706 
L 961.358833 386.17652 
L 962.351539 375.226946 
L 963.344245 367.143959 
L 964.336951 376.20845 
L 965.329657 382.928937 
L 966.322363 372.912667 
L 967.315068 369.248848 
L 968.307774 368.71358 
L 969.30048 405.643179 
L 970.293186 370.446935 
L 971.285892 368.818502 
L 972.278598 365.91346 
L 973.271304 395.975862 
L 974.26401 393.258759 
L 975.256716 365.907646 
L 976.249422 421.009614 
L 977.242128 367.095923 
L 978.234834 367.003733 
L 979.22754 367.527887 
L 980.220246 365.97945 
L 981.212951 387.66475 
L 982.205657 379.096682 
L 983.198363 373.778884 
L 984.191069 386.716865 
L 985.183775 362.818148 
L 986.176481 366.131442 
L 987.169187 492.48 
L 988.161893 387.264163 
L 989.154599 403.864488 
L 990.147305 374.347166 
L 991.140011 362.633056 
L 992.132717 381.857675 
L 993.125423 374.428751 
L 994.118128 376.708519 
L 995.110834 383.783397 
L 996.10354 382.257798 
L 997.096246 363.297018 
L 998.088952 370.517878 
L 999.081658 370.258935 
L 1000.074364 374.050286 
L 1001.06707 370.037859 
L 1002.059776 401.458855 
L 1003.052482 378.733453 
L 1004.045188 363.88599 
L 1005.037894 376.860497 
L 1006.0306 369.91148 
L 1007.023305 379.020958 
L 1008.016011 383.91192 
L 1009.008717 366.41599 
L 1010.001423 415.201236 
L 1010.994129 386.825915 
L 1011.986835 379.331171 
L 1012.979541 388.468217 
L 1013.972247 399.137652 
L 1014.964953 367.178955 
L 1015.957659 405.173385 
L 1016.950365 381.680033 
L 1017.943071 371.039758 
L 1018.935777 394.865506 
L 1019.928482 365.047685 
L 1020.921188 368.09051 
L 1021.913894 395.970673 
L 1023.899306 361.979595 
L 1024.892012 379.786551 
L 1025.884718 400.117032 
L 1027.87013 367.338061 
L 1028.862836 377.257657 
L 1029.855542 376.478811 
L 1030.848248 371.408054 
L 1031.840954 376.779359 
L 1032.833659 369.877441 
L 1033.826365 359.686376 
L 1034.819071 363.971582 
L 1035.811777 382.859535 
L 1036.804483 378.214182 
L 1037.797189 377.188804 
L 1038.789895 371.568648 
L 1039.782601 379.119205 
L 1041.768013 371.291387 
L 1042.760719 385.310961 
L 1043.753425 371.999683 
L 1044.746131 383.306626 
L 1045.738837 364.423812 
L 1046.731542 360.613514 
L 1047.724248 371.907207 
L 1048.716954 407.841227 
L 1049.70966 367.151813 
L 1051.695072 405.081187 
L 1052.687778 369.409639 
L 1053.680484 373.890089 
L 1054.67319 370.798172 
L 1055.665896 382.084303 
L 1056.658602 372.063351 
L 1057.651308 368.925069 
L 1058.644014 368.876449 
L 1059.636719 370.2923 
L 1061.622131 398.20205 
L 1062.614837 375.331397 
L 1063.607543 386.384073 
L 1064.600249 389.746044 
L 1065.592955 384.614068 
L 1066.585661 393.524683 
L 1067.578367 396.307017 
L 1068.571073 372.20545 
L 1069.563779 368.651199 
L 1070.556485 373.997825 
L 1071.549191 409.068484 
L 1072.541896 401.668371 
L 1073.534602 379.148698 
L 1074.527308 389.820424 
L 1075.520014 371.707373 
L 1076.51272 443.227396 
L 1077.505426 368.925099 
L 1078.498132 392.517453 
L 1079.490838 398.599966 
L 1080.483544 394.841353 
L 1081.47625 394.088628 
L 1082.468956 362.498182 
L 1083.461662 386.154737 
L 1084.454368 394.545244 
L 1085.447073 415.453219 
L 1086.439779 411.831661 
L 1087.432485 372.335767 
L 1088.425191 406.736755 
L 1089.417897 368.886949 
L 1090.410603 379.029373 
L 1091.403309 372.944147 
L 1092.396015 394.540671 
L 1093.388721 382.249369 
L 1094.381427 375.967345 
L 1095.374133 374.024325 
L 1096.366839 377.721764 
L 1097.359545 383.84954 
L 1098.35225 419.924876 
L 1099.344956 388.543114 
L 1100.337662 370.231608 
L 1101.330368 382.887723 
L 1102.323074 422.828561 
L 1103.31578 382.405771 
L 1104.308486 379.105056 
L 1105.301192 377.531275 
L 1106.293898 389.391525 
L 1107.286604 406.957542 
L 1108.27931 372.258371 
L 1109.272016 373.302685 
L 1110.264722 408.671061 
L 1111.257428 381.770126 
L 1112.250133 388.63759 
L 1113.242839 390.202514 
L 1114.235545 370.857576 
L 1116.220957 359.940043 
L 1117.213663 406.6467 
L 1118.206369 382.038727 
L 1119.199075 394.80735 
L 1120.191781 417.035461 
L 1121.184487 429.226023 
L 1122.177193 384.50381 
L 1123.169899 394.217705 
L 1124.162605 408.893799 
L 1125.15531 377.31048 
L 1126.148016 406.300543 
L 1127.140722 368.042799 
L 1128.133428 369.797208 
L 1129.126134 382.902125 
L 1130.11884 384.878601 
L 1131.111546 393.595195 
L 1132.104252 387.439166 
L 1133.096958 390.300639 
L 1134.089664 401.674233 
L 1135.08237 389.677107 
L 1136.075076 379.507699 
L 1137.067782 365.105964 
L 1138.060487 366.442631 
L 1139.053193 381.381688 
L 1140.045899 371.258821 
L 1141.038605 417.731033 
L 1142.031311 377.959833 
L 1143.024017 367.97424 
L 1144.016723 389.983922 
L 1145.009429 403.970278 
L 1146.002135 369.21425 
L 1146.994841 398.219005 
L 1147.987547 420.291551 
L 1148.980253 389.027322 
L 1149.972959 399.415375 
L 1150.965664 415.570969 
L 1151.95837 409.186638 
L 1152.951076 400.661201 
L 1153.943782 370.035218 
L 1154.936488 386.965556 
L 1155.929194 380.244749 
L 1156.9219 362.467651 
L 1157.914606 374.750941 
L 1158.907312 402.655753 
L 1159.900018 392.549978 
L 1160.892724 388.978817 
L 1161.88543 393.742908 
L 1162.878136 384.382503 
L 1163.870841 369.082463 
L 1164.863547 406.504104 
L 1165.856253 386.726445 
L 1166.848959 385.569566 
L 1167.841665 385.138202 
L 1168.834371 397.948778 
L 1170.819783 397.580937 
L 1171.812489 375.241814 
L 1172.805195 448.779192 
L 1173.797901 370.304991 
L 1174.790607 384.610295 
L 1175.783313 387.745466 
L 1176.776019 404.523961 
L 1177.768724 400.472951 
L 1178.76143 391.745976 
L 1179.754136 381.506555 
L 1180.746842 376.622737 
L 1181.739548 374.535168 
L 1182.732254 397.278397 
L 1183.72496 395.952475 
L 1184.717666 378.714321 
L 1185.710372 386.747728 
L 1186.703078 455.778698 
L 1187.695784 397.640995 
L 1188.68849 386.040031 
L 1189.681196 379.350213 
L 1190.673901 409.715635 
L 1191.666607 390.06119 
L 1193.652019 373.381286 
L 1194.644725 389.649342 
L 1195.637431 416.256009 
L 1196.630137 423.689973 
L 1197.622843 388.95737 
L 1198.615549 370.508157 
L 1200.600961 399.019376 
L 1201.593667 376.969957 
L 1202.586373 387.406414 
L 1203.579078 390.67883 
L 1204.571784 391.371978 
L 1205.56449 405.156748 
L 1206.557196 375.881418 
L 1207.549902 373.880717 
L 1208.542608 380.150633 
L 1209.535314 392.004825 
L 1210.52802 389.020508 
L 1211.520726 392.207067 
L 1212.513432 372.58402 
L 1213.506138 375.734357 
L 1214.498844 401.285746 
L 1215.49155 382.678363 
L 1216.484255 400.519417 
L 1217.476961 438.256151 
L 1218.469667 389.545921 
L 1219.462373 422.856569 
L 1220.455079 409.894937 
L 1221.447785 383.472793 
L 1222.440491 380.355966 
L 1223.433197 397.808713 
L 1224.425903 386.085891 
L 1225.418609 388.885803 
L 1226.411315 375.005886 
L 1227.404021 398.818272 
L 1228.396727 382.686915 
L 1229.389432 371.130978 
L 1230.382138 381.430226 
L 1231.374844 380.733997 
L 1232.36755 383.137771 
L 1233.360256 374.557263 
L 1234.352962 369.150554 
L 1235.345668 375.762351 
L 1236.338374 400.258949 
L 1237.33108 380.390834 
L 1238.323786 392.422787 
L 1239.316492 398.064992 
L 1240.309198 366.823719 
L 1241.301904 413.657271 
L 1242.29461 371.488054 
L 1243.287315 384.37406 
L 1244.280021 389.663585 
L 1245.272727 381.021155 
L 1245.272727 381.021155 
" clip-path="url(#p43388b7540)" style="fill: none; stroke: #1f77b4; stroke-width: 1.5; stroke-linecap: square"/>
   </g>
   <g id="patch_3">
    <path d="M 180 512.64 
L 180 69.12 
" style="fill: none; stroke: #000000; stroke-width: 0.8; stroke-linejoin: miter; stroke-linecap: square"/>
   </g>
   <g id="patch_4">
    <path d="M 1296 512.64 
L 1296 69.12 
" style="fill: none; stroke: #000000; stroke-width: 0.8; stroke-linejoin: miter; stroke-linecap: square"/>
   </g>
   <g id="patch_5">
    <path d="M 180 512.64 
L 1296 512.64 
" style="fill: none; stroke: #000000; stroke-width: 0.8; stroke-linejoin: miter; stroke-linecap: square"/>
   </g>
   <g id="patch_6">
    <path d="M 180 69.12 
L 1296 69.12 
" style="fill: none; stroke: #000000; stroke-width: 0.8; stroke-linejoin: miter; stroke-linecap: square"/>
   </g>
   <g id="text_15">
    <!-- source3-receiver7 -->
    <g transform="translate(557.625 60.80125) scale(0.4 -0.4)">
     <defs>
      <path id="DejaVuSans-73" d="M 2834 3397 
L 2834 2853 
Q 2591 2978 2328 3040 
Q 2066 3103 1784 3103 
Q 1356 3103 1142 2972 
Q 928 2841 928 2578 
Q 928 2378 1081 2264 
Q 1234 2150 1697 2047 
L 1894 2003 
Q 2506 1872 2764 1633 
Q 3022 1394 3022 966 
Q 3022 478 2636 193 
Q 2250 -91 1575 -91 
Q 1294 -91 989 -36 
Q 684 19 347 128 
L 347 722 
Q 666 556 975 473 
Q 1284 391 1588 391 
Q 1994 391 2212 530 
Q 2431 669 2431 922 
Q 2431 1156 2273 1281 
Q 2116 1406 1581 1522 
L 1381 1569 
Q 847 1681 609 1914 
Q 372 2147 372 2553 
Q 372 3047 722 3315 
Q 1072 3584 1716 3584 
Q 2034 3584 2315 3537 
Q 2597 3491 2834 3397 
z
" transform="scale(0.015625)"/>
      <path id="DejaVuSans-6f" d="M 1959 3097 
Q 1497 3097 1228 2736 
Q 959 2375 959 1747 
Q 959 1119 1226 758 
Q 1494 397 1959 397 
Q 2419 397 2687 759 
Q 2956 1122 2956 1747 
Q 2956 2369 2687 2733 
Q 2419 3097 1959 3097 
z
M 1959 3584 
Q 2709 3584 3137 3096 
Q 3566 2609 3566 1747 
Q 3566 888 3137 398 
Q 2709 -91 1959 -91 
Q 1206 -91 779 398 
Q 353 888 353 1747 
Q 353 2609 779 3096 
Q 1206 3584 1959 3584 
z
" transform="scale(0.015625)"/>
      <path id="DejaVuSans-75" d="M 544 1381 
L 544 3500 
L 1119 3500 
L 1119 1403 
Q 1119 906 1312 657 
Q 1506 409 1894 409 
Q 2359 409 2629 706 
Q 2900 1003 2900 1516 
L 2900 3500 
L 3475 3500 
L 3475 0 
L 2900 0 
L 2900 538 
Q 2691 219 2414 64 
Q 2138 -91 1772 -91 
Q 1169 -91 856 284 
Q 544 659 544 1381 
z
M 1991 3584 
L 1991 3584 
z
" transform="scale(0.015625)"/>
      <path id="DejaVuSans-72" d="M 2631 2963 
Q 2534 3019 2420 3045 
Q 2306 3072 2169 3072 
Q 1681 3072 1420 2755 
Q 1159 2438 1159 1844 
L 1159 0 
L 581 0 
L 581 3500 
L 1159 3500 
L 1159 2956 
Q 1341 3275 1631 3429 
Q 1922 3584 2338 3584 
Q 2397 3584 2469 3576 
Q 2541 3569 2628 3553 
L 2631 2963 
z
" transform="scale(0.015625)"/>
      <path id="DejaVuSans-63" d="M 3122 3366 
L 3122 2828 
Q 2878 2963 2633 3030 
Q 2388 3097 2138 3097 
Q 1578 3097 1268 2742 
Q 959 2388 959 1747 
Q 959 1106 1268 751 
Q 1578 397 2138 397 
Q 2388 397 2633 464 
Q 2878 531 3122 666 
L 3122 134 
Q 2881 22 2623 -34 
Q 2366 -91 2075 -91 
Q 1284 -91 818 406 
Q 353 903 353 1747 
Q 353 2603 823 3093 
Q 1294 3584 2113 3584 
Q 2378 3584 2631 3529 
Q 2884 3475 3122 3366 
z
" transform="scale(0.015625)"/>
      <path id="DejaVuSans-65" d="M 3597 1894 
L 3597 1613 
L 953 1613 
Q 991 1019 1311 708 
Q 1631 397 2203 397 
Q 2534 397 2845 478 
Q 3156 559 3463 722 
L 3463 178 
Q 3153 47 2828 -22 
Q 2503 -91 2169 -91 
Q 1331 -91 842 396 
Q 353 884 353 1716 
Q 353 2575 817 3079 
Q 1281 3584 2069 3584 
Q 2775 3584 3186 3129 
Q 3597 2675 3597 1894 
z
M 3022 2063 
Q 3016 2534 2758 2815 
Q 2500 3097 2075 3097 
Q 1594 3097 1305 2825 
Q 1016 2553 972 2059 
L 3022 2063 
z
" transform="scale(0.015625)"/>
      <path id="DejaVuSans-33" d="M 2597 2516 
Q 3050 2419 3304 2112 
Q 3559 1806 3559 1356 
Q 3559 666 3084 287 
Q 2609 -91 1734 -91 
Q 1441 -91 1130 -33 
Q 819 25 488 141 
L 488 750 
Q 750 597 1062 519 
Q 1375 441 1716 441 
Q 2309 441 2620 675 
Q 2931 909 2931 1356 
Q 2931 1769 2642 2001 
Q 2353 2234 1838 2234 
L 1294 2234 
L 1294 2753 
L 1863 2753 
Q 2328 2753 2575 2939 
Q 2822 3125 2822 3475 
Q 2822 3834 2567 4026 
Q 2313 4219 1838 4219 
Q 1578 4219 1281 4162 
Q 984 4106 628 3988 
L 628 4550 
Q 988 4650 1302 4700 
Q 1616 4750 1894 4750 
Q 2613 4750 3031 4423 
Q 3450 4097 3450 3541 
Q 3450 3153 3228 2886 
Q 3006 2619 2597 2516 
z
" transform="scale(0.015625)"/>
      <path id="DejaVuSans-2d" d="M 313 2009 
L 1997 2009 
L 1997 1497 
L 313 1497 
L 313 2009 
z
" transform="scale(0.015625)"/>
      <path id="DejaVuSans-69" d="M 603 3500 
L 1178 3500 
L 1178 0 
L 603 0 
L 603 3500 
z
M 603 4863 
L 1178 4863 
L 1178 4134 
L 603 4134 
L 603 4863 
z
" transform="scale(0.015625)"/>
      <path id="DejaVuSans-76" d="M 191 3500 
L 800 3500 
L 1894 563 
L 2988 3500 
L 3597 3500 
L 2284 0 
L 1503 0 
L 191 3500 
z
" transform="scale(0.015625)"/>
      <path id="DejaVuSans-37" d="M 525 4666 
L 3525 4666 
L 3525 4397 
L 1831 0 
L 1172 0 
L 2766 4134 
L 525 4134 
L 525 4666 
z
" transform="scale(0.015625)"/>
     </defs>
     <use xlink:href="#DejaVuSans-73"/>
     <use xlink:href="#DejaVuSans-6f" x="52.099609"/>
     <use xlink:href="#DejaVuSans-75" x="113.28125"/>
     <use xlink:href="#DejaVuSans-72" x="176.660156"/>
     <use xlink:href="#DejaVuSans-63" x="215.523438"/>
     <use xlink:href="#DejaVuSans-65" x="270.503906"/>
     <use xlink:href="#DejaVuSans-33" x="332.027344"/>
     <use xlink:href="#DejaVuSans-2d" x="395.650391"/>
     <use xlink:href="#DejaVuSans-72" x="431.734375"/>
     <use xlink:href="#DejaVuSans-65" x="470.597656"/>
     <use xlink:href="#DejaVuSans-63" x="532.121094"/>
     <use xlink:href="#DejaVuSans-65" x="587.101562"/>
     <use xlink:href="#DejaVuSans-69" x="648.625"/>
     <use xlink:href="#DejaVuSans-76" x="676.408203"/>
     <use xlink:href="#DejaVuSans-65" x="735.587891"/>
     <use xlink:href="#DejaVuSans-72" x="797.111328"/>
     <use xlink:href="#DejaVuSans-37" x="838.224609"/>
    </g>
   </g>
  </g>
 </g>
 <defs>
  <clipPath id="p43388b7540">
   <rect x="180" y="69.12" width="1116" height="443.52"/>
  </clipPath>
 </defs>
</svg>
