<?xml version="1.0" encoding="utf-8" standalone="no"?>
<!DOCTYPE svg PUBLIC "-//W3C//DTD SVG 1.1//EN"
  "http://www.w3.org/Graphics/SVG/1.1/DTD/svg11.dtd">
<svg xmlns:xlink="http://www.w3.org/1999/xlink" width="1440pt" height="576pt" viewBox="0 0 1440 576" xmlns="http://www.w3.org/2000/svg" version="1.1">
 <metadata>
  <rdf:RDF xmlns:dc="http://purl.org/dc/elements/1.1/" xmlns:cc="http://creativecommons.org/ns#" xmlns:rdf="http://www.w3.org/1999/02/22-rdf-syntax-ns#">
   <cc:Work>
    <dc:type rdf:resource="http://purl.org/dc/dcmitype/StillImage"/>
    <dc:date>2024-05-22T04:49:42.976880</dc:date>
    <dc:format>image/svg+xml</dc:format>
    <dc:creator>
     <cc:Agent>
      <dc:title>Matplotlib v3.8.3, https://matplotlib.org/</dc:title>
     </cc:Agent>
    </dc:creator>
   </cc:Work>
  </rdf:RDF>
 </metadata>
 <defs>
  <style type="text/css">*{stroke-linejoin: round; stroke-linecap: butt}</style>
 </defs>
 <g id="figure_1">
  <g id="patch_1">
   <path d="M 0 576 
L 1440 576 
L 1440 0 
L 0 0 
z
" style="fill: #ffffff"/>
  </g>
  <g id="axes_1">
   <g id="patch_2">
    <path d="M 180 512.64 
L 1296 512.64 
L 1296 69.12 
L 180 69.12 
z
" style="fill: #ffffff"/>
   </g>
   <g id="matplotlib.axis_1">
    <g id="xtick_1">
     <g id="line2d_1">
      <defs>
       <path id="m6035243447" d="M 0 0 
L 0 3.5 
" style="stroke: #000000; stroke-width: 0.8"/>
      </defs>
      <g>
       <use xlink:href="#m6035243447" x="229.734567" y="512.64" style="stroke: #000000; stroke-width: 0.8"/>
      </g>
     </g>
     <g id="text_1">
      <!-- 0 -->
      <g transform="translate(226.553317 527.238438) scale(0.1 -0.1)">
       <defs>
        <path id="DejaVuSans-30" d="M 2034 4250 
Q 1547 4250 1301 3770 
Q 1056 3291 1056 2328 
Q 1056 1369 1301 889 
Q 1547 409 2034 409 
Q 2525 409 2770 889 
Q 3016 1369 3016 2328 
Q 3016 3291 2770 3770 
Q 2525 4250 2034 4250 
z
M 2034 4750 
Q 2819 4750 3233 4129 
Q 3647 3509 3647 2328 
Q 3647 1150 3233 529 
Q 2819 -91 2034 -91 
Q 1250 -91 836 529 
Q 422 1150 422 2328 
Q 422 3509 836 4129 
Q 1250 4750 2034 4750 
z
" transform="scale(0.015625)"/>
       </defs>
       <use xlink:href="#DejaVuSans-30"/>
      </g>
     </g>
    </g>
    <g id="xtick_2">
     <g id="line2d_2">
      <g>
       <use xlink:href="#m6035243447" x="433.04074" y="512.64" style="stroke: #000000; stroke-width: 0.8"/>
      </g>
     </g>
     <g id="text_2">
      <!-- 500 -->
      <g transform="translate(423.49699 527.238438) scale(0.1 -0.1)">
       <defs>
        <path id="DejaVuSans-35" d="M 691 4666 
L 3169 4666 
L 3169 4134 
L 1269 4134 
L 1269 2991 
Q 1406 3038 1543 3061 
Q 1681 3084 1819 3084 
Q 2600 3084 3056 2656 
Q 3513 2228 3513 1497 
Q 3513 744 3044 326 
Q 2575 -91 1722 -91 
Q 1428 -91 1123 -41 
Q 819 9 494 109 
L 494 744 
Q 775 591 1075 516 
Q 1375 441 1709 441 
Q 2250 441 2565 725 
Q 2881 1009 2881 1497 
Q 2881 1984 2565 2268 
Q 2250 2553 1709 2553 
Q 1456 2553 1204 2497 
Q 953 2441 691 2322 
L 691 4666 
z
" transform="scale(0.015625)"/>
       </defs>
       <use xlink:href="#DejaVuSans-35"/>
       <use xlink:href="#DejaVuSans-30" x="63.623047"/>
       <use xlink:href="#DejaVuSans-30" x="127.246094"/>
      </g>
     </g>
    </g>
    <g id="xtick_3">
     <g id="line2d_3">
      <g>
       <use xlink:href="#m6035243447" x="636.346913" y="512.64" style="stroke: #000000; stroke-width: 0.8"/>
      </g>
     </g>
     <g id="text_3">
      <!-- 1000 -->
      <g transform="translate(623.621913 527.238438) scale(0.1 -0.1)">
       <defs>
        <path id="DejaVuSans-31" d="M 794 531 
L 1825 531 
L 1825 4091 
L 703 3866 
L 703 4441 
L 1819 4666 
L 2450 4666 
L 2450 531 
L 3481 531 
L 3481 0 
L 794 0 
L 794 531 
z
" transform="scale(0.015625)"/>
       </defs>
       <use xlink:href="#DejaVuSans-31"/>
       <use xlink:href="#DejaVuSans-30" x="63.623047"/>
       <use xlink:href="#DejaVuSans-30" x="127.246094"/>
       <use xlink:href="#DejaVuSans-30" x="190.869141"/>
      </g>
     </g>
    </g>
    <g id="xtick_4">
     <g id="line2d_4">
      <g>
       <use xlink:href="#m6035243447" x="839.653087" y="512.64" style="stroke: #000000; stroke-width: 0.8"/>
      </g>
     </g>
     <g id="text_4">
      <!-- 1500 -->
      <g transform="translate(826.928087 527.238438) scale(0.1 -0.1)">
       <use xlink:href="#DejaVuSans-31"/>
       <use xlink:href="#DejaVuSans-35" x="63.623047"/>
       <use xlink:href="#DejaVuSans-30" x="127.246094"/>
       <use xlink:href="#DejaVuSans-30" x="190.869141"/>
      </g>
     </g>
    </g>
    <g id="xtick_5">
     <g id="line2d_5">
      <g>
       <use xlink:href="#m6035243447" x="1042.95926" y="512.64" style="stroke: #000000; stroke-width: 0.8"/>
      </g>
     </g>
     <g id="text_5">
      <!-- 2000 -->
      <g transform="translate(1030.23426 527.238438) scale(0.1 -0.1)">
       <defs>
        <path id="DejaVuSans-32" d="M 1228 531 
L 3431 531 
L 3431 0 
L 469 0 
L 469 531 
Q 828 903 1448 1529 
Q 2069 2156 2228 2338 
Q 2531 2678 2651 2914 
Q 2772 3150 2772 3378 
Q 2772 3750 2511 3984 
Q 2250 4219 1831 4219 
Q 1534 4219 1204 4116 
Q 875 4013 500 3803 
L 500 4441 
Q 881 4594 1212 4672 
Q 1544 4750 1819 4750 
Q 2544 4750 2975 4387 
Q 3406 4025 3406 3419 
Q 3406 3131 3298 2873 
Q 3191 2616 2906 2266 
Q 2828 2175 2409 1742 
Q 1991 1309 1228 531 
z
" transform="scale(0.015625)"/>
       </defs>
       <use xlink:href="#DejaVuSans-32"/>
       <use xlink:href="#DejaVuSans-30" x="63.623047"/>
       <use xlink:href="#DejaVuSans-30" x="127.246094"/>
       <use xlink:href="#DejaVuSans-30" x="190.869141"/>
      </g>
     </g>
    </g>
    <g id="xtick_6">
     <g id="line2d_6">
      <g>
       <use xlink:href="#m6035243447" x="1246.265433" y="512.64" style="stroke: #000000; stroke-width: 0.8"/>
      </g>
     </g>
     <g id="text_6">
      <!-- 2500 -->
      <g transform="translate(1233.540433 527.238438) scale(0.1 -0.1)">
       <use xlink:href="#DejaVuSans-32"/>
       <use xlink:href="#DejaVuSans-35" x="63.623047"/>
       <use xlink:href="#DejaVuSans-30" x="127.246094"/>
       <use xlink:href="#DejaVuSans-30" x="190.869141"/>
      </g>
     </g>
    </g>
   </g>
   <g id="matplotlib.axis_2">
    <g id="ytick_1">
     <g id="line2d_7">
      <defs>
       <path id="mf7d487c601" d="M 0 0 
L -3.5 0 
" style="stroke: #000000; stroke-width: 0.8"/>
      </defs>
      <g>
       <use xlink:href="#mf7d487c601" x="180" y="493.69238" style="stroke: #000000; stroke-width: 0.8"/>
      </g>
     </g>
     <g id="text_7">
      <!-- −8 -->
      <g transform="translate(158.257812 497.491599) scale(0.1 -0.1)">
       <defs>
        <path id="DejaVuSans-2212" d="M 678 2272 
L 4684 2272 
L 4684 1741 
L 678 1741 
L 678 2272 
z
" transform="scale(0.015625)"/>
        <path id="DejaVuSans-38" d="M 2034 2216 
Q 1584 2216 1326 1975 
Q 1069 1734 1069 1313 
Q 1069 891 1326 650 
Q 1584 409 2034 409 
Q 2484 409 2743 651 
Q 3003 894 3003 1313 
Q 3003 1734 2745 1975 
Q 2488 2216 2034 2216 
z
M 1403 2484 
Q 997 2584 770 2862 
Q 544 3141 544 3541 
Q 544 4100 942 4425 
Q 1341 4750 2034 4750 
Q 2731 4750 3128 4425 
Q 3525 4100 3525 3541 
Q 3525 3141 3298 2862 
Q 3072 2584 2669 2484 
Q 3125 2378 3379 2068 
Q 3634 1759 3634 1313 
Q 3634 634 3220 271 
Q 2806 -91 2034 -91 
Q 1263 -91 848 271 
Q 434 634 434 1313 
Q 434 1759 690 2068 
Q 947 2378 1403 2484 
z
M 1172 3481 
Q 1172 3119 1398 2916 
Q 1625 2713 2034 2713 
Q 2441 2713 2670 2916 
Q 2900 3119 2900 3481 
Q 2900 3844 2670 4047 
Q 2441 4250 2034 4250 
Q 1625 4250 1398 4047 
Q 1172 3844 1172 3481 
z
" transform="scale(0.015625)"/>
       </defs>
       <use xlink:href="#DejaVuSans-2212"/>
       <use xlink:href="#DejaVuSans-38" x="83.789062"/>
      </g>
     </g>
    </g>
    <g id="ytick_2">
     <g id="line2d_8">
      <g>
       <use xlink:href="#mf7d487c601" x="180" y="420.14383" style="stroke: #000000; stroke-width: 0.8"/>
      </g>
     </g>
     <g id="text_8">
      <!-- −6 -->
      <g transform="translate(158.257812 423.943049) scale(0.1 -0.1)">
       <defs>
        <path id="DejaVuSans-36" d="M 2113 2584 
Q 1688 2584 1439 2293 
Q 1191 2003 1191 1497 
Q 1191 994 1439 701 
Q 1688 409 2113 409 
Q 2538 409 2786 701 
Q 3034 994 3034 1497 
Q 3034 2003 2786 2293 
Q 2538 2584 2113 2584 
z
M 3366 4563 
L 3366 3988 
Q 3128 4100 2886 4159 
Q 2644 4219 2406 4219 
Q 1781 4219 1451 3797 
Q 1122 3375 1075 2522 
Q 1259 2794 1537 2939 
Q 1816 3084 2150 3084 
Q 2853 3084 3261 2657 
Q 3669 2231 3669 1497 
Q 3669 778 3244 343 
Q 2819 -91 2113 -91 
Q 1303 -91 875 529 
Q 447 1150 447 2328 
Q 447 3434 972 4092 
Q 1497 4750 2381 4750 
Q 2619 4750 2861 4703 
Q 3103 4656 3366 4563 
z
" transform="scale(0.015625)"/>
       </defs>
       <use xlink:href="#DejaVuSans-2212"/>
       <use xlink:href="#DejaVuSans-36" x="83.789062"/>
      </g>
     </g>
    </g>
    <g id="ytick_3">
     <g id="line2d_9">
      <g>
       <use xlink:href="#mf7d487c601" x="180" y="346.595279" style="stroke: #000000; stroke-width: 0.8"/>
      </g>
     </g>
     <g id="text_9">
      <!-- −4 -->
      <g transform="translate(158.257812 350.394498) scale(0.1 -0.1)">
       <defs>
        <path id="DejaVuSans-34" d="M 2419 4116 
L 825 1625 
L 2419 1625 
L 2419 4116 
z
M 2253 4666 
L 3047 4666 
L 3047 1625 
L 3713 1625 
L 3713 1100 
L 3047 1100 
L 3047 0 
L 2419 0 
L 2419 1100 
L 313 1100 
L 313 1709 
L 2253 4666 
z
" transform="scale(0.015625)"/>
       </defs>
       <use xlink:href="#DejaVuSans-2212"/>
       <use xlink:href="#DejaVuSans-34" x="83.789062"/>
      </g>
     </g>
    </g>
    <g id="ytick_4">
     <g id="line2d_10">
      <g>
       <use xlink:href="#mf7d487c601" x="180" y="273.046728" style="stroke: #000000; stroke-width: 0.8"/>
      </g>
     </g>
     <g id="text_10">
      <!-- −2 -->
      <g transform="translate(158.257812 276.845947) scale(0.1 -0.1)">
       <use xlink:href="#DejaVuSans-2212"/>
       <use xlink:href="#DejaVuSans-32" x="83.789062"/>
      </g>
     </g>
    </g>
    <g id="ytick_5">
     <g id="line2d_11">
      <g>
       <use xlink:href="#mf7d487c601" x="180" y="199.498178" style="stroke: #000000; stroke-width: 0.8"/>
      </g>
     </g>
     <g id="text_11">
      <!-- 0 -->
      <g transform="translate(166.6375 203.297396) scale(0.1 -0.1)">
       <use xlink:href="#DejaVuSans-30"/>
      </g>
     </g>
    </g>
    <g id="ytick_6">
     <g id="line2d_12">
      <g>
       <use xlink:href="#mf7d487c601" x="180" y="125.949627" style="stroke: #000000; stroke-width: 0.8"/>
      </g>
     </g>
     <g id="text_12">
      <!-- 2 -->
      <g transform="translate(166.6375 129.748846) scale(0.1 -0.1)">
       <use xlink:href="#DejaVuSans-32"/>
      </g>
     </g>
    </g>
   </g>
   <g id="line2d_13">
    <path d="M 230.727273 277.285101 
L 231.719979 277.168872 
L 232.712685 278.073366 
L 233.70539 276.925418 
L 234.698096 276.08526 
L 235.690802 276.550185 
L 236.683508 276.711721 
L 237.676214 275.919593 
L 238.66892 274.482769 
L 239.661626 274.311734 
L 240.654332 274.333737 
L 241.647038 273.854483 
L 242.639744 272.627768 
L 243.63245 270.729755 
L 244.625156 270.510615 
L 245.617862 269.792473 
L 246.610568 253.283272 
L 247.603273 240.461227 
L 248.595979 256.87628 
L 249.588685 247.581286 
L 250.581391 203.890982 
L 251.574097 190.30457 
L 252.566803 211.526049 
L 253.559509 209.962686 
L 254.552215 177.347045 
L 255.544921 178.882011 
L 256.537627 203.087048 
L 257.530333 193.48041 
L 258.523039 190.074696 
L 259.515745 226.458223 
L 260.50845 237.184073 
L 261.501156 262.106829 
L 262.493862 181.3045 
L 263.486568 169.107544 
L 264.479274 184.814047 
L 265.47198 183.277468 
L 266.464686 170.51371 
L 267.457392 188.23513 
L 268.450098 183.858359 
L 269.442804 189.197464 
L 270.43551 188.064355 
L 271.428216 142.588012 
L 272.420922 124.753525 
L 273.413627 112.030041 
L 274.406333 103.322101 
L 276.391745 96.691593 
L 277.384451 90.086259 
L 278.377157 89.28 
L 279.369863 100.784226 
L 280.362569 120.989062 
L 281.355275 111.387108 
L 282.347981 107.949412 
L 283.340687 128.750902 
L 284.333393 135.783443 
L 285.326099 117.207701 
L 286.318804 117.433331 
L 287.31151 112.284279 
L 288.304216 102.797053 
L 289.296922 107.729746 
L 290.289628 130.937044 
L 291.282334 147.365844 
L 292.27504 148.733706 
L 293.267746 155.884783 
L 294.260452 149.568608 
L 295.253158 157.936348 
L 296.245864 162.306769 
L 297.23857 156.715009 
L 298.231276 168.850206 
L 299.223981 188.476734 
L 300.216687 199.096505 
L 301.209393 195.617437 
L 302.202099 177.113547 
L 303.194805 177.713407 
L 304.187511 188.972966 
L 305.180217 208.9369 
L 306.172923 231.189043 
L 307.165629 227.655524 
L 308.158335 249.855401 
L 309.151041 265.673309 
L 310.143747 260.351758 
L 311.136453 294.064155 
L 312.129159 266.99912 
L 313.121864 300.748499 
L 314.11457 300.827668 
L 315.107276 294.045141 
L 316.099982 319.113789 
L 317.092688 302.338101 
L 318.085394 344.490186 
L 319.0781 281.670622 
L 320.070806 311.173155 
L 321.063512 304.465485 
L 322.056218 277.324939 
L 323.048924 299.981857 
L 324.04163 318.609287 
L 325.034336 289.499342 
L 326.027041 316.837519 
L 327.019747 359.042506 
L 328.012453 302.577919 
L 329.005159 289.271711 
L 329.997865 300.273428 
L 330.990571 283.120609 
L 332.975983 325.704738 
L 333.968689 305.463502 
L 334.961395 308.558561 
L 335.954101 320.521162 
L 336.946807 304.804328 
L 337.939513 341.494723 
L 338.932218 313.375273 
L 339.924924 322.665328 
L 341.910336 303.612228 
L 342.903042 318.801819 
L 343.895748 314.632107 
L 344.888454 333.254465 
L 345.88116 342.773134 
L 346.873866 317.679615 
L 347.866572 331.679032 
L 348.859278 329.170019 
L 349.851984 328.86998 
L 350.84469 305.908984 
L 351.837395 321.671732 
L 352.830101 299.810233 
L 353.822807 336.659055 
L 354.815513 314.244248 
L 355.808219 296.996261 
L 356.800925 323.841196 
L 357.793631 321.113174 
L 358.786337 300.370241 
L 359.779043 315.112271 
L 360.771749 325.696493 
L 361.764455 339.583075 
L 362.757161 313.59215 
L 363.749867 299.826985 
L 364.742572 310.392948 
L 365.735278 296.501977 
L 366.727984 331.355258 
L 367.72069 387.568112 
L 368.713396 310.886499 
L 369.706102 352.623453 
L 370.698808 323.772731 
L 371.691514 334.316618 
L 372.68422 305.624259 
L 373.676926 313.327426 
L 374.669632 371.071266 
L 375.662338 319.144194 
L 376.655044 315.521361 
L 377.64775 315.9513 
L 378.640455 338.615349 
L 379.633161 385.06744 
L 380.625867 361.131875 
L 381.618573 332.74986 
L 382.611279 331.068457 
L 383.603985 369.170836 
L 384.596691 352.467347 
L 385.589397 351.340691 
L 386.582103 300.755518 
L 387.574809 321.75999 
L 388.567515 317.187349 
L 389.560221 322.610231 
L 390.552927 325.158595 
L 391.545632 333.393609 
L 392.538338 328.856875 
L 393.531044 347.173105 
L 394.52375 335.02811 
L 395.516456 350.57801 
L 396.509162 306.82879 
L 397.501868 310.738194 
L 398.494574 322.42219 
L 399.48728 326.164957 
L 400.479986 328.933728 
L 401.472692 343.92515 
L 402.465398 284.21418 
L 403.458104 351.901128 
L 404.450809 322.59831 
L 405.443515 322.853644 
L 406.436221 369.900546 
L 407.428927 363.112781 
L 408.421633 310.988125 
L 409.414339 336.265674 
L 410.407045 341.886955 
L 411.399751 376.091176 
L 412.392457 361.335561 
L 413.385163 327.770045 
L 414.377869 308.843386 
L 415.370575 321.164994 
L 416.363281 308.66441 
L 417.355986 356.071488 
L 418.348692 387.053938 
L 419.341398 340.473168 
L 420.334104 320.618669 
L 421.32681 331.036073 
L 422.319516 356.042223 
L 423.312222 337.086079 
L 424.304928 314.554646 
L 425.297634 304.796988 
L 426.29034 316.386218 
L 427.283046 313.841298 
L 428.275752 423.632667 
L 429.268458 374.134378 
L 431.253869 333.20988 
L 432.246575 326.299149 
L 433.239281 358.750976 
L 434.231987 314.302379 
L 435.224693 313.907611 
L 436.217399 306.115231 
L 437.210105 333.83651 
L 438.202811 312.662854 
L 439.195517 354.7056 
L 440.188223 297.080578 
L 441.180929 330.478991 
L 442.173635 340.769045 
L 443.166341 320.832544 
L 444.159046 331.521995 
L 445.151752 365.438647 
L 446.144458 344.261335 
L 447.137164 381.916953 
L 448.12987 308.932193 
L 449.122576 315.472533 
L 450.115282 340.162737 
L 451.107988 324.444014 
L 452.100694 339.672407 
L 453.0934 373.433625 
L 454.086106 321.11259 
L 455.078812 312.964154 
L 456.071518 360.861606 
L 457.064223 350.215086 
L 458.056929 314.527493 
L 459.049635 328.627894 
L 460.042341 313.336915 
L 461.035047 402.402447 
L 462.027753 351.946907 
L 463.020459 355.12189 
L 464.013165 342.639577 
L 465.005871 320.051818 
L 465.998577 357.534303 
L 466.991283 339.875829 
L 467.983989 310.031073 
L 468.976695 315.969915 
L 469.9694 342.672383 
L 470.962106 357.217392 
L 471.954812 333.585659 
L 472.947518 335.086953 
L 473.940224 312.543057 
L 474.93293 355.2574 
L 475.925636 323.762346 
L 476.918342 315.776024 
L 477.911048 304.242697 
L 478.903754 320.025728 
L 479.89646 309.596971 
L 480.889166 376.240302 
L 481.881872 297.794723 
L 482.874577 334.743776 
L 483.867283 338.482252 
L 484.859989 327.796419 
L 485.852695 334.388642 
L 486.845401 335.499594 
L 487.838107 370.647387 
L 488.830813 355.8786 
L 489.823519 316.094956 
L 490.816225 319.048076 
L 491.808931 379.068122 
L 492.801637 329.40539 
L 493.794343 329.377071 
L 494.787049 327.255346 
L 495.779754 334.567829 
L 496.77246 343.964755 
L 497.765166 317.716186 
L 498.757872 336.897643 
L 499.750578 314.131378 
L 500.743284 300.711591 
L 501.73599 301.86991 
L 502.728696 324.505934 
L 503.721402 336.015191 
L 504.714108 312.939993 
L 505.706814 342.122426 
L 506.69952 311.480587 
L 507.692226 334.013551 
L 508.684932 345.999921 
L 509.677637 305.230258 
L 510.670343 345.748428 
L 511.663049 316.916556 
L 512.655755 315.587003 
L 513.648461 340.40559 
L 514.641167 307.555925 
L 515.633873 329.833238 
L 516.626579 342.345979 
L 517.619285 359.476222 
L 518.611991 297.95565 
L 519.604697 329.044638 
L 520.597403 339.053439 
L 521.590109 305.464042 
L 522.582814 324.029159 
L 523.57552 322.612231 
L 524.568226 346.73091 
L 525.560932 344.965719 
L 526.553638 324.395915 
L 527.546344 316.508381 
L 528.53905 330.734586 
L 529.531756 292.375875 
L 530.524462 367.638518 
L 531.517168 341.373733 
L 532.509874 341.915297 
L 533.50258 322.819143 
L 534.495286 312.851966 
L 535.487991 309.098905 
L 536.480697 298.939554 
L 537.473403 401.714155 
L 538.466109 335.584326 
L 539.458815 307.226341 
L 540.451521 309.899167 
L 541.444227 313.277684 
L 542.436933 323.637591 
L 543.429639 299.974494 
L 544.422345 354.231939 
L 545.415051 351.596513 
L 546.407757 351.845593 
L 547.400463 342.109521 
L 548.393168 338.041571 
L 549.385874 332.674319 
L 550.37858 321.348926 
L 551.371286 338.318071 
L 553.356698 312.826448 
L 554.349404 332.086263 
L 555.34211 335.198171 
L 556.334816 303.515653 
L 557.327522 337.304991 
L 558.320228 317.545022 
L 559.312934 305.650571 
L 560.30564 311.592545 
L 561.298345 344.414265 
L 562.291051 313.182013 
L 563.283757 349.299078 
L 564.276463 300.004988 
L 565.269169 340.650489 
L 566.261875 322.641827 
L 567.254581 340.839473 
L 568.247287 331.062965 
L 569.239993 327.127616 
L 570.232699 333.228871 
L 571.225405 343.21274 
L 572.218111 339.323095 
L 573.210817 351.22002 
L 574.203523 364.552355 
L 575.196228 355.727851 
L 576.188934 428.351976 
L 577.18164 319.265937 
L 578.174346 306.515545 
L 579.167052 306.910314 
L 580.159758 368.532903 
L 581.152464 348.362965 
L 582.14517 324.468162 
L 583.137876 342.320722 
L 584.130582 317.353826 
L 585.123288 357.373339 
L 586.115994 349.906455 
L 587.1087 322.652407 
L 588.101405 341.621744 
L 589.094111 310.571446 
L 590.086817 366.297892 
L 591.079523 405.597415 
L 592.072229 364.743024 
L 593.064935 340.138639 
L 594.057641 320.367676 
L 595.050347 338.01027 
L 596.043053 358.585647 
L 597.035759 332.729055 
L 598.028465 353.201009 
L 599.021171 370.380167 
L 600.013877 335.53943 
L 601.006582 349.278421 
L 601.999288 335.09798 
L 602.991994 368.859039 
L 603.9847 317.312334 
L 604.977406 424.124892 
L 605.970112 362.007549 
L 606.962818 354.181774 
L 607.955524 336.783044 
L 608.94823 343.099188 
L 609.940936 360.125017 
L 610.933642 365.442245 
L 611.926348 324.233381 
L 612.919054 333.318896 
L 613.911759 332.482859 
L 614.904465 336.839548 
L 615.897171 356.114637 
L 616.889877 333.969231 
L 617.882583 320.733055 
L 618.875289 360.326444 
L 619.867995 353.748501 
L 620.860701 357.813118 
L 621.853407 357.853659 
L 622.846113 337.564356 
L 623.838819 359.446353 
L 624.831525 420.794608 
L 625.824231 342.924114 
L 626.816936 349.716033 
L 627.809642 388.965962 
L 628.802348 439.334627 
L 629.795054 352.596448 
L 630.78776 407.913829 
L 631.780466 360.545997 
L 632.773172 394.490126 
L 633.765878 352.430306 
L 634.758584 368.150907 
L 635.75129 382.101483 
L 636.743996 403.469106 
L 637.736702 377.685472 
L 638.729408 381.384386 
L 639.722114 353.771522 
L 640.714819 349.99775 
L 641.707525 369.550309 
L 642.700231 398.965841 
L 643.692937 412.305783 
L 644.685643 366.395743 
L 645.678349 397.793634 
L 646.671055 358.627778 
L 647.663761 386.691497 
L 648.656467 428.680328 
L 649.649173 382.139394 
L 650.641879 406.835327 
L 651.634585 380.222109 
L 652.627291 400.318138 
L 653.619996 361.892602 
L 654.612702 401.328421 
L 655.605408 375.887843 
L 656.598114 406.760883 
L 657.59082 366.482891 
L 658.583526 388.744246 
L 659.576232 377.525635 
L 660.568938 386.933261 
L 661.561644 404.355638 
L 662.55435 411.936944 
L 663.547056 465.211901 
L 664.539762 427.834955 
L 665.532468 373.946953 
L 666.525173 384.326047 
L 667.517879 428.375046 
L 668.510585 423.418101 
L 669.503291 375.669893 
L 670.495997 430.930403 
L 671.488703 397.845428 
L 672.481409 377.308641 
L 673.474115 371.545532 
L 674.466821 384.830501 
L 675.459527 393.959211 
L 676.452233 401.49582 
L 677.444939 438.98014 
L 678.437645 383.156823 
L 679.43035 394.17495 
L 680.423056 391.000977 
L 681.415762 434.382298 
L 682.408468 414.671173 
L 683.401174 388.516357 
L 684.39388 422.177273 
L 685.386586 380.16679 
L 686.379292 392.546836 
L 687.371998 420.315014 
L 688.364704 389.085404 
L 689.35741 411.970748 
L 690.350116 411.802775 
L 691.342822 376.491455 
L 692.335527 384.877871 
L 693.328233 432.120151 
L 694.320939 405.146886 
L 695.313645 405.914542 
L 696.306351 405.228875 
L 697.299057 426.810446 
L 698.291763 389.955972 
L 699.284469 408.772478 
L 700.277175 403.56362 
L 701.269881 381.815104 
L 702.262587 410.461238 
L 703.255293 379.667036 
L 705.240705 398.155027 
L 706.23341 413.309002 
L 707.226116 416.934574 
L 708.218822 391.55753 
L 709.211528 401.550689 
L 710.204234 418.852547 
L 711.19694 387.771593 
L 712.189646 412.660383 
L 713.182352 400.013642 
L 714.175058 430.276365 
L 715.167764 406.602623 
L 716.16047 391.206955 
L 717.153176 400.948473 
L 718.145882 393.231407 
L 719.138587 403.643661 
L 720.131293 399.916635 
L 721.123999 419.027289 
L 722.116705 414.264328 
L 723.109411 410.58863 
L 724.102117 413.013522 
L 725.094823 425.436015 
L 726.087529 444.203765 
L 727.080235 393.112738 
L 728.072941 397.671167 
L 729.065647 407.702471 
L 730.058353 392.530642 
L 731.051059 422.124927 
L 732.043764 400.400414 
L 733.03647 407.920275 
L 734.029176 409.546011 
L 735.021882 424.426843 
L 736.014588 394.718104 
L 737.007294 434.718526 
L 738 424.447737 
L 738.992706 395.532267 
L 739.985412 429.658375 
L 740.978118 410.726227 
L 741.970824 424.525076 
L 742.96353 412.470346 
L 743.956236 423.997711 
L 744.948941 418.593356 
L 745.941647 399.423757 
L 746.934353 424.444325 
L 747.927059 412.333715 
L 748.919765 412.722947 
L 749.912471 407.585412 
L 750.905177 434.428228 
L 751.897883 405.285538 
L 752.890589 412.468316 
L 753.883295 417.790819 
L 754.876001 396.517116 
L 755.868707 422.412508 
L 756.861413 411.093655 
L 757.854118 397.973524 
L 758.846824 407.876014 
L 759.83953 407.456212 
L 760.832236 413.530222 
L 761.824942 411.90666 
L 762.817648 420.194835 
L 763.810354 400.401115 
L 764.80306 407.271979 
L 765.795766 422.469224 
L 766.788472 425.103508 
L 767.781178 411.737196 
L 768.773884 407.073794 
L 769.76659 427.392072 
L 770.759295 406.770157 
L 771.752001 410.410081 
L 772.744707 422.363508 
L 773.737413 402.102479 
L 774.730119 399.866141 
L 775.722825 435.768923 
L 776.715531 492.48 
L 777.708237 408.613692 
L 778.700943 400.021879 
L 779.693649 422.55564 
L 780.686355 424.098003 
L 781.679061 398.698887 
L 782.671767 405.129244 
L 783.664473 418.522504 
L 784.657178 416.240965 
L 785.649884 399.161303 
L 786.64259 405.433409 
L 787.635296 403.358737 
L 788.628002 413.022584 
L 789.620708 400.506033 
L 790.613414 409.519966 
L 791.60612 405.032652 
L 792.598826 430.755384 
L 793.591532 404.763711 
L 794.584238 404.559401 
L 795.576944 431.151055 
L 796.56965 420.662393 
L 797.562355 401.440213 
L 798.555061 399.790653 
L 799.547767 401.065126 
L 800.540473 413.360284 
L 801.533179 412.63646 
L 802.525885 426.504438 
L 803.518591 412.386624 
L 804.511297 414.597586 
L 805.504003 396.531678 
L 806.496709 398.913385 
L 807.489415 406.981797 
L 808.482121 403.144226 
L 809.474827 401.477713 
L 810.467532 418.947611 
L 812.452944 431.88425 
L 813.44565 410.368441 
L 814.438356 408.987458 
L 815.431062 406.6084 
L 816.423768 439.475061 
L 817.416474 419.942687 
L 818.40918 403.245785 
L 819.401886 408.329889 
L 820.394592 433.298541 
L 821.387298 427.768375 
L 822.380004 416.462131 
L 823.372709 420.82248 
L 824.365415 397.008154 
L 825.358121 398.9498 
L 826.350827 419.653993 
L 827.343533 409.257363 
L 828.336239 402.707319 
L 829.328945 443.823728 
L 830.321651 409.413459 
L 831.314357 430.858165 
L 832.307063 408.225081 
L 833.299769 464.182791 
L 834.292475 416.808969 
L 835.285181 408.943881 
L 836.277886 449.448839 
L 837.270592 404.651414 
L 838.263298 420.392547 
L 839.256004 418.642525 
L 840.24871 410.69345 
L 842.234122 430.584705 
L 843.226828 435.511779 
L 845.21224 405.486984 
L 846.204946 431.985248 
L 847.197652 393.125825 
L 848.190358 422.833256 
L 849.183064 419.93994 
L 850.175769 429.071784 
L 851.168475 401.615064 
L 852.161181 426.886822 
L 853.153887 427.347909 
L 854.146593 433.05768 
L 855.139299 423.958038 
L 856.132005 420.932376 
L 857.124711 465.202971 
L 858.117417 473.371579 
L 859.110123 428.823222 
L 860.102829 417.715918 
L 861.095535 409.686179 
L 862.088241 420.934613 
L 863.080946 420.210229 
L 864.073652 401.818606 
L 865.066358 414.421036 
L 866.059064 402.529708 
L 867.05177 431.503858 
L 868.044476 422.879056 
L 869.037182 405.794397 
L 870.029888 413.023887 
L 871.022594 396.266869 
L 872.0153 411.262365 
L 873.008006 410.676359 
L 874.000712 421.941798 
L 874.993418 416.555236 
L 875.986123 397.165569 
L 876.978829 407.857349 
L 877.971535 415.911926 
L 878.964241 408.619216 
L 879.956947 407.283235 
L 880.949653 436.167601 
L 881.942359 422.976373 
L 882.935065 429.986508 
L 883.927771 420.215051 
L 884.920477 428.275464 
L 885.913183 442.301146 
L 886.905889 419.983964 
L 887.898595 393.660289 
L 888.8913 419.872894 
L 889.884006 407.242674 
L 890.876712 411.731038 
L 891.869418 429.463985 
L 892.862124 432.249058 
L 893.85483 422.364884 
L 894.847536 411.13213 
L 895.840242 416.070507 
L 896.832948 457.317375 
L 897.825654 427.736889 
L 898.81836 407.172518 
L 899.811066 417.581388 
L 900.803772 414.538339 
L 901.796477 431.69461 
L 902.789183 419.228245 
L 903.781889 412.831751 
L 904.774595 409.114892 
L 905.767301 435.585051 
L 906.760007 424.030685 
L 907.752713 443.80532 
L 908.745419 443.652849 
L 909.738125 403.226475 
L 910.730831 418.263345 
L 911.723537 428.964318 
L 912.716243 413.357616 
L 913.708949 410.911331 
L 914.701655 411.194848 
L 915.69436 406.936858 
L 916.687066 420.064953 
L 917.679772 422.451684 
L 918.672478 438.210285 
L 919.665184 411.719364 
L 920.65789 423.207 
L 921.650596 419.77109 
L 922.643302 404.033708 
L 923.636008 415.897014 
L 924.628714 406.354369 
L 925.62142 426.211011 
L 926.614126 429.883643 
L 927.606832 421.067842 
L 928.599537 399.543925 
L 929.592243 426.602065 
L 930.584949 414.089168 
L 931.577655 433.100534 
L 932.570361 427.477777 
L 933.563067 414.756295 
L 934.555773 413.300118 
L 935.548479 434.6446 
L 936.541185 408.349893 
L 937.533891 408.060204 
L 938.526597 412.027869 
L 939.519303 441.803015 
L 940.512009 422.979411 
L 941.504714 411.381985 
L 942.49742 418.501939 
L 943.490126 442.828153 
L 944.482832 415.576971 
L 945.475538 416.421358 
L 946.468244 433.522002 
L 947.46095 425.512502 
L 948.453656 407.320192 
L 949.446362 411.904273 
L 950.439068 413.236425 
L 951.431774 433.701224 
L 952.42448 411.973601 
L 953.417186 409.078469 
L 954.409891 410.759284 
L 955.402597 429.321054 
L 956.395303 436.574111 
L 957.388009 410.062444 
L 958.380715 409.051414 
L 959.373421 405.669037 
L 960.366127 438.247131 
L 961.358833 417.399362 
L 962.351539 449.984503 
L 963.344245 426.078627 
L 964.336951 430.433007 
L 965.329657 431.194312 
L 966.322363 440.413933 
L 967.315068 424.038894 
L 968.307774 428.701041 
L 969.30048 413.559044 
L 970.293186 423.036189 
L 971.285892 425.661887 
L 972.278598 416.050005 
L 973.271304 405.277433 
L 974.26401 426.301335 
L 975.256716 435.491683 
L 976.249422 428.634265 
L 977.242128 461.979106 
L 978.234834 435.994868 
L 979.22754 439.725227 
L 980.220246 420.611929 
L 981.212951 417.189803 
L 982.205657 420.108779 
L 983.198363 408.059951 
L 984.191069 417.861736 
L 985.183775 448.483627 
L 986.176481 406.81929 
L 987.169187 417.412488 
L 988.161893 421.853435 
L 989.154599 419.791836 
L 990.147305 405.317756 
L 991.140011 423.932911 
L 992.132717 427.726547 
L 993.125423 420.332015 
L 994.118128 409.405003 
L 995.110834 442.352903 
L 996.10354 432.865179 
L 997.096246 417.656912 
L 998.088952 436.51103 
L 999.081658 394.096396 
L 1000.074364 441.390192 
L 1001.06707 411.349219 
L 1002.059776 415.315729 
L 1003.052482 427.139777 
L 1004.045188 408.045681 
L 1005.037894 403.843424 
L 1006.0306 411.42124 
L 1007.023305 447.64592 
L 1008.016011 415.402079 
L 1009.008717 423.659595 
L 1010.001423 433.117705 
L 1010.994129 420.062331 
L 1011.986835 460.581439 
L 1012.979541 400.214545 
L 1013.972247 416.309593 
L 1014.964953 404.031232 
L 1015.957659 407.077612 
L 1016.950365 418.633515 
L 1017.943071 433.601982 
L 1018.935777 411.653562 
L 1019.928482 424.437045 
L 1020.921188 431.264002 
L 1021.913894 404.317856 
L 1022.9066 415.740703 
L 1023.899306 417.707795 
L 1024.892012 427.096855 
L 1025.884718 414.44676 
L 1026.877424 420.56715 
L 1027.87013 409.738455 
L 1028.862836 416.666105 
L 1029.855542 426.638817 
L 1030.848248 423.128757 
L 1032.833659 440.333873 
L 1033.826365 418.422869 
L 1034.819071 429.059774 
L 1035.811777 420.782899 
L 1036.804483 416.973741 
L 1037.797189 404.669283 
L 1038.789895 413.926261 
L 1039.782601 445.211468 
L 1040.775307 410.852908 
L 1041.768013 423.504872 
L 1042.760719 418.591714 
L 1043.753425 451.040764 
L 1044.746131 410.022842 
L 1045.738837 425.027177 
L 1046.731542 414.663042 
L 1047.724248 411.84135 
L 1048.716954 426.747492 
L 1049.70966 432.942461 
L 1050.702366 414.800665 
L 1051.695072 434.036697 
L 1052.687778 428.033 
L 1053.680484 437.500709 
L 1054.67319 419.223562 
L 1055.665896 422.36651 
L 1056.658602 415.44626 
L 1057.651308 423.460323 
L 1058.644014 397.381492 
L 1059.636719 443.380743 
L 1061.622131 417.71484 
L 1062.614837 410.479874 
L 1063.607543 444.179241 
L 1064.600249 416.997762 
L 1065.592955 422.684056 
L 1066.585661 421.446768 
L 1067.578367 420.937244 
L 1068.571073 425.864252 
L 1069.563779 423.040789 
L 1071.549191 437.289928 
L 1072.541896 420.457703 
L 1073.534602 399.651463 
L 1074.527308 432.997678 
L 1075.520014 415.903528 
L 1076.51272 431.328459 
L 1077.505426 410.863114 
L 1079.490838 412.706187 
L 1080.483544 425.494171 
L 1081.47625 406.457571 
L 1082.468956 442.845848 
L 1083.461662 416.137647 
L 1084.454368 437.445557 
L 1085.447073 414.79701 
L 1086.439779 408.007717 
L 1087.432485 423.965849 
L 1088.425191 450.177853 
L 1089.417897 409.28943 
L 1090.410603 415.640229 
L 1091.403309 415.431223 
L 1092.396015 440.176498 
L 1093.388721 429.840713 
L 1094.381427 423.175156 
L 1095.374133 412.83044 
L 1096.366839 429.099648 
L 1097.359545 417.920297 
L 1098.35225 414.785453 
L 1099.344956 419.175408 
L 1100.337662 433.787087 
L 1101.330368 429.766521 
L 1102.323074 428.108254 
L 1103.31578 411.460298 
L 1104.308486 424.298831 
L 1105.301192 420.045329 
L 1106.293898 417.620044 
L 1107.286604 428.191769 
L 1108.27931 416.458536 
L 1109.272016 424.644018 
L 1110.264722 419.018685 
L 1111.257428 450.850721 
L 1112.250133 408.236223 
L 1113.242839 433.415648 
L 1114.235545 413.52556 
L 1115.228251 428.514129 
L 1116.220957 423.702539 
L 1117.213663 428.962381 
L 1118.206369 409.509668 
L 1119.199075 428.205861 
L 1120.191781 421.65016 
L 1121.184487 433.046526 
L 1122.177193 437.375498 
L 1123.169899 446.128002 
L 1124.162605 420.441793 
L 1125.15531 410.249078 
L 1126.148016 402.781107 
L 1127.140722 421.478871 
L 1128.133428 435.101683 
L 1129.126134 408.323529 
L 1130.11884 488.92477 
L 1131.111546 423.120029 
L 1132.104252 424.214596 
L 1133.096958 420.330526 
L 1134.089664 431.593615 
L 1135.08237 419.002086 
L 1136.075076 412.591338 
L 1137.067782 411.736825 
L 1138.060487 407.152668 
L 1139.053193 436.573758 
L 1140.045899 434.38396 
L 1141.038605 422.624405 
L 1142.031311 469.295972 
L 1143.024017 418.679753 
L 1144.016723 438.891511 
L 1145.009429 424.775596 
L 1146.002135 440.330734 
L 1146.994841 420.235079 
L 1147.987547 432.007273 
L 1148.980253 420.072878 
L 1149.972959 421.391485 
L 1150.965664 419.491636 
L 1151.95837 432.328353 
L 1152.951076 480.529248 
L 1153.943782 439.089524 
L 1154.936488 450.070519 
L 1155.929194 405.969733 
L 1156.9219 430.97974 
L 1157.914606 434.410025 
L 1158.907312 407.893571 
L 1159.900018 419.009162 
L 1160.892724 412.297866 
L 1161.88543 414.489023 
L 1162.878136 420.605082 
L 1163.870841 434.419488 
L 1164.863547 418.387164 
L 1165.856253 422.954566 
L 1166.848959 429.864647 
L 1167.841665 408.70075 
L 1168.834371 424.442306 
L 1169.827077 424.770774 
L 1170.819783 407.840791 
L 1171.812489 416.714667 
L 1172.805195 432.144166 
L 1173.797901 426.898918 
L 1174.790607 416.171192 
L 1175.783313 436.234254 
L 1176.776019 438.155017 
L 1177.768724 410.827464 
L 1178.76143 412.908564 
L 1179.754136 410.344958 
L 1180.746842 425.958085 
L 1181.739548 421.505951 
L 1182.732254 437.182609 
L 1183.72496 410.905584 
L 1185.710372 442.945731 
L 1186.703078 440.298702 
L 1187.695784 420.73582 
L 1188.68849 470.251393 
L 1189.681196 431.346116 
L 1190.673901 421.686724 
L 1191.666607 447.72332 
L 1192.659313 418.548883 
L 1193.652019 415.072921 
L 1194.644725 413.51545 
L 1195.637431 408.034084 
L 1196.630137 434.699183 
L 1197.622843 415.045017 
L 1198.615549 444.86787 
L 1199.608255 410.787919 
L 1200.600961 427.474409 
L 1201.593667 420.241098 
L 1202.586373 445.474566 
L 1203.579078 416.14603 
L 1204.571784 414.144953 
L 1205.56449 408.744536 
L 1206.557196 405.831744 
L 1207.549902 427.49015 
L 1208.542608 405.385556 
L 1209.535314 415.939898 
L 1210.52802 412.061243 
L 1211.520726 417.289889 
L 1212.513432 426.865301 
L 1213.506138 414.57293 
L 1214.498844 426.546641 
L 1215.49155 426.712426 
L 1216.484255 414.112786 
L 1217.476961 432.921001 
L 1218.469667 488.733515 
L 1219.462373 417.661057 
L 1220.455079 416.25737 
L 1222.440491 426.817464 
L 1223.433197 411.183119 
L 1224.425903 419.547145 
L 1225.418609 408.09612 
L 1226.411315 409.105737 
L 1227.404021 431.799529 
L 1228.396727 417.421433 
L 1229.389432 448.729343 
L 1230.382138 438.060092 
L 1231.374844 402.0624 
L 1232.36755 410.269384 
L 1233.360256 437.753019 
L 1234.352962 434.018431 
L 1235.345668 425.983879 
L 1236.338374 431.630159 
L 1237.33108 413.848022 
L 1238.323786 453.155932 
L 1239.316492 443.242091 
L 1240.309198 426.382402 
L 1241.301904 456.512571 
L 1242.29461 424.102998 
L 1243.287315 417.531936 
L 1244.280021 436.195919 
L 1245.272727 431.721629 
L 1245.272727 431.721629 
" clip-path="url(#p6ae9d616b0)" style="fill: none; stroke: #1f77b4; stroke-width: 1.5; stroke-linecap: square"/>
   </g>
   <g id="patch_3">
    <path d="M 180 512.64 
L 180 69.12 
" style="fill: none; stroke: #000000; stroke-width: 0.8; stroke-linejoin: miter; stroke-linecap: square"/>
   </g>
   <g id="patch_4">
    <path d="M 1296 512.64 
L 1296 69.12 
" style="fill: none; stroke: #000000; stroke-width: 0.8; stroke-linejoin: miter; stroke-linecap: square"/>
   </g>
   <g id="patch_5">
    <path d="M 180 512.64 
L 1296 512.64 
" style="fill: none; stroke: #000000; stroke-width: 0.8; stroke-linejoin: miter; stroke-linecap: square"/>
   </g>
   <g id="patch_6">
    <path d="M 180 69.12 
L 1296 69.12 
" style="fill: none; stroke: #000000; stroke-width: 0.8; stroke-linejoin: miter; stroke-linecap: square"/>
   </g>
   <g id="text_13">
    <!-- source3-receiver8 -->
    <g transform="translate(557.625 60.80125) scale(0.4 -0.4)">
     <defs>
      <path id="DejaVuSans-73" d="M 2834 3397 
L 2834 2853 
Q 2591 2978 2328 3040 
Q 2066 3103 1784 3103 
Q 1356 3103 1142 2972 
Q 928 2841 928 2578 
Q 928 2378 1081 2264 
Q 1234 2150 1697 2047 
L 1894 2003 
Q 2506 1872 2764 1633 
Q 3022 1394 3022 966 
Q 3022 478 2636 193 
Q 2250 -91 1575 -91 
Q 1294 -91 989 -36 
Q 684 19 347 128 
L 347 722 
Q 666 556 975 473 
Q 1284 391 1588 391 
Q 1994 391 2212 530 
Q 2431 669 2431 922 
Q 2431 1156 2273 1281 
Q 2116 1406 1581 1522 
L 1381 1569 
Q 847 1681 609 1914 
Q 372 2147 372 2553 
Q 372 3047 722 3315 
Q 1072 3584 1716 3584 
Q 2034 3584 2315 3537 
Q 2597 3491 2834 3397 
z
" transform="scale(0.015625)"/>
      <path id="DejaVuSans-6f" d="M 1959 3097 
Q 1497 3097 1228 2736 
Q 959 2375 959 1747 
Q 959 1119 1226 758 
Q 1494 397 1959 397 
Q 2419 397 2687 759 
Q 2956 1122 2956 1747 
Q 2956 2369 2687 2733 
Q 2419 3097 1959 3097 
z
M 1959 3584 
Q 2709 3584 3137 3096 
Q 3566 2609 3566 1747 
Q 3566 888 3137 398 
Q 2709 -91 1959 -91 
Q 1206 -91 779 398 
Q 353 888 353 1747 
Q 353 2609 779 3096 
Q 1206 3584 1959 3584 
z
" transform="scale(0.015625)"/>
      <path id="DejaVuSans-75" d="M 544 1381 
L 544 3500 
L 1119 3500 
L 1119 1403 
Q 1119 906 1312 657 
Q 1506 409 1894 409 
Q 2359 409 2629 706 
Q 2900 1003 2900 1516 
L 2900 3500 
L 3475 3500 
L 3475 0 
L 2900 0 
L 2900 538 
Q 2691 219 2414 64 
Q 2138 -91 1772 -91 
Q 1169 -91 856 284 
Q 544 659 544 1381 
z
M 1991 3584 
L 1991 3584 
z
" transform="scale(0.015625)"/>
      <path id="DejaVuSans-72" d="M 2631 2963 
Q 2534 3019 2420 3045 
Q 2306 3072 2169 3072 
Q 1681 3072 1420 2755 
Q 1159 2438 1159 1844 
L 1159 0 
L 581 0 
L 581 3500 
L 1159 3500 
L 1159 2956 
Q 1341 3275 1631 3429 
Q 1922 3584 2338 3584 
Q 2397 3584 2469 3576 
Q 2541 3569 2628 3553 
L 2631 2963 
z
" transform="scale(0.015625)"/>
      <path id="DejaVuSans-63" d="M 3122 3366 
L 3122 2828 
Q 2878 2963 2633 3030 
Q 2388 3097 2138 3097 
Q 1578 3097 1268 2742 
Q 959 2388 959 1747 
Q 959 1106 1268 751 
Q 1578 397 2138 397 
Q 2388 397 2633 464 
Q 2878 531 3122 666 
L 3122 134 
Q 2881 22 2623 -34 
Q 2366 -91 2075 -91 
Q 1284 -91 818 406 
Q 353 903 353 1747 
Q 353 2603 823 3093 
Q 1294 3584 2113 3584 
Q 2378 3584 2631 3529 
Q 2884 3475 3122 3366 
z
" transform="scale(0.015625)"/>
      <path id="DejaVuSans-65" d="M 3597 1894 
L 3597 1613 
L 953 1613 
Q 991 1019 1311 708 
Q 1631 397 2203 397 
Q 2534 397 2845 478 
Q 3156 559 3463 722 
L 3463 178 
Q 3153 47 2828 -22 
Q 2503 -91 2169 -91 
Q 1331 -91 842 396 
Q 353 884 353 1716 
Q 353 2575 817 3079 
Q 1281 3584 2069 3584 
Q 2775 3584 3186 3129 
Q 3597 2675 3597 1894 
z
M 3022 2063 
Q 3016 2534 2758 2815 
Q 2500 3097 2075 3097 
Q 1594 3097 1305 2825 
Q 1016 2553 972 2059 
L 3022 2063 
z
" transform="scale(0.015625)"/>
      <path id="DejaVuSans-33" d="M 2597 2516 
Q 3050 2419 3304 2112 
Q 3559 1806 3559 1356 
Q 3559 666 3084 287 
Q 2609 -91 1734 -91 
Q 1441 -91 1130 -33 
Q 819 25 488 141 
L 488 750 
Q 750 597 1062 519 
Q 1375 441 1716 441 
Q 2309 441 2620 675 
Q 2931 909 2931 1356 
Q 2931 1769 2642 2001 
Q 2353 2234 1838 2234 
L 1294 2234 
L 1294 2753 
L 1863 2753 
Q 2328 2753 2575 2939 
Q 2822 3125 2822 3475 
Q 2822 3834 2567 4026 
Q 2313 4219 1838 4219 
Q 1578 4219 1281 4162 
Q 984 4106 628 3988 
L 628 4550 
Q 988 4650 1302 4700 
Q 1616 4750 1894 4750 
Q 2613 4750 3031 4423 
Q 3450 4097 3450 3541 
Q 3450 3153 3228 2886 
Q 3006 2619 2597 2516 
z
" transform="scale(0.015625)"/>
      <path id="DejaVuSans-2d" d="M 313 2009 
L 1997 2009 
L 1997 1497 
L 313 1497 
L 313 2009 
z
" transform="scale(0.015625)"/>
      <path id="DejaVuSans-69" d="M 603 3500 
L 1178 3500 
L 1178 0 
L 603 0 
L 603 3500 
z
M 603 4863 
L 1178 4863 
L 1178 4134 
L 603 4134 
L 603 4863 
z
" transform="scale(0.015625)"/>
      <path id="DejaVuSans-76" d="M 191 3500 
L 800 3500 
L 1894 563 
L 2988 3500 
L 3597 3500 
L 2284 0 
L 1503 0 
L 191 3500 
z
" transform="scale(0.015625)"/>
     </defs>
     <use xlink:href="#DejaVuSans-73"/>
     <use xlink:href="#DejaVuSans-6f" x="52.099609"/>
     <use xlink:href="#DejaVuSans-75" x="113.28125"/>
     <use xlink:href="#DejaVuSans-72" x="176.660156"/>
     <use xlink:href="#DejaVuSans-63" x="215.523438"/>
     <use xlink:href="#DejaVuSans-65" x="270.503906"/>
     <use xlink:href="#DejaVuSans-33" x="332.027344"/>
     <use xlink:href="#DejaVuSans-2d" x="395.650391"/>
     <use xlink:href="#DejaVuSans-72" x="431.734375"/>
     <use xlink:href="#DejaVuSans-65" x="470.597656"/>
     <use xlink:href="#DejaVuSans-63" x="532.121094"/>
     <use xlink:href="#DejaVuSans-65" x="587.101562"/>
     <use xlink:href="#DejaVuSans-69" x="648.625"/>
     <use xlink:href="#DejaVuSans-76" x="676.408203"/>
     <use xlink:href="#DejaVuSans-65" x="735.587891"/>
     <use xlink:href="#DejaVuSans-72" x="797.111328"/>
     <use xlink:href="#DejaVuSans-38" x="838.224609"/>
    </g>
   </g>
  </g>
 </g>
 <defs>
  <clipPath id="p6ae9d616b0">
   <rect x="180" y="69.12" width="1116" height="443.52"/>
  </clipPath>
 </defs>
</svg>
