<?xml version="1.0" encoding="utf-8" standalone="no"?>
<!DOCTYPE svg PUBLIC "-//W3C//DTD SVG 1.1//EN"
  "http://www.w3.org/Graphics/SVG/1.1/DTD/svg11.dtd">
<svg xmlns:xlink="http://www.w3.org/1999/xlink" width="1440pt" height="576pt" viewBox="0 0 1440 576" xmlns="http://www.w3.org/2000/svg" version="1.1">
 <metadata>
  <rdf:RDF xmlns:dc="http://purl.org/dc/elements/1.1/" xmlns:cc="http://creativecommons.org/ns#" xmlns:rdf="http://www.w3.org/1999/02/22-rdf-syntax-ns#">
   <cc:Work>
    <dc:type rdf:resource="http://purl.org/dc/dcmitype/StillImage"/>
    <dc:date>2024-05-22T04:49:38.315249</dc:date>
    <dc:format>image/svg+xml</dc:format>
    <dc:creator>
     <cc:Agent>
      <dc:title>Matplotlib v3.8.3, https://matplotlib.org/</dc:title>
     </cc:Agent>
    </dc:creator>
   </cc:Work>
  </rdf:RDF>
 </metadata>
 <defs>
  <style type="text/css">*{stroke-linejoin: round; stroke-linecap: butt}</style>
 </defs>
 <g id="figure_1">
  <g id="patch_1">
   <path d="M 0 576 
L 1440 576 
L 1440 0 
L 0 0 
z
" style="fill: #ffffff"/>
  </g>
  <g id="axes_1">
   <g id="patch_2">
    <path d="M 180 512.64 
L 1296 512.64 
L 1296 69.12 
L 180 69.12 
z
" style="fill: #ffffff"/>
   </g>
   <g id="matplotlib.axis_1">
    <g id="xtick_1">
     <g id="line2d_1">
      <defs>
       <path id="m79f8f553b5" d="M 0 0 
L 0 3.5 
" style="stroke: #000000; stroke-width: 0.8"/>
      </defs>
      <g>
       <use xlink:href="#m79f8f553b5" x="229.734567" y="512.64" style="stroke: #000000; stroke-width: 0.8"/>
      </g>
     </g>
     <g id="text_1">
      <!-- 0 -->
      <g transform="translate(226.553317 527.238438) scale(0.1 -0.1)">
       <defs>
        <path id="DejaVuSans-30" d="M 2034 4250 
Q 1547 4250 1301 3770 
Q 1056 3291 1056 2328 
Q 1056 1369 1301 889 
Q 1547 409 2034 409 
Q 2525 409 2770 889 
Q 3016 1369 3016 2328 
Q 3016 3291 2770 3770 
Q 2525 4250 2034 4250 
z
M 2034 4750 
Q 2819 4750 3233 4129 
Q 3647 3509 3647 2328 
Q 3647 1150 3233 529 
Q 2819 -91 2034 -91 
Q 1250 -91 836 529 
Q 422 1150 422 2328 
Q 422 3509 836 4129 
Q 1250 4750 2034 4750 
z
" transform="scale(0.015625)"/>
       </defs>
       <use xlink:href="#DejaVuSans-30"/>
      </g>
     </g>
    </g>
    <g id="xtick_2">
     <g id="line2d_2">
      <g>
       <use xlink:href="#m79f8f553b5" x="433.04074" y="512.64" style="stroke: #000000; stroke-width: 0.8"/>
      </g>
     </g>
     <g id="text_2">
      <!-- 500 -->
      <g transform="translate(423.49699 527.238438) scale(0.1 -0.1)">
       <defs>
        <path id="DejaVuSans-35" d="M 691 4666 
L 3169 4666 
L 3169 4134 
L 1269 4134 
L 1269 2991 
Q 1406 3038 1543 3061 
Q 1681 3084 1819 3084 
Q 2600 3084 3056 2656 
Q 3513 2228 3513 1497 
Q 3513 744 3044 326 
Q 2575 -91 1722 -91 
Q 1428 -91 1123 -41 
Q 819 9 494 109 
L 494 744 
Q 775 591 1075 516 
Q 1375 441 1709 441 
Q 2250 441 2565 725 
Q 2881 1009 2881 1497 
Q 2881 1984 2565 2268 
Q 2250 2553 1709 2553 
Q 1456 2553 1204 2497 
Q 953 2441 691 2322 
L 691 4666 
z
" transform="scale(0.015625)"/>
       </defs>
       <use xlink:href="#DejaVuSans-35"/>
       <use xlink:href="#DejaVuSans-30" x="63.623047"/>
       <use xlink:href="#DejaVuSans-30" x="127.246094"/>
      </g>
     </g>
    </g>
    <g id="xtick_3">
     <g id="line2d_3">
      <g>
       <use xlink:href="#m79f8f553b5" x="636.346913" y="512.64" style="stroke: #000000; stroke-width: 0.8"/>
      </g>
     </g>
     <g id="text_3">
      <!-- 1000 -->
      <g transform="translate(623.621913 527.238438) scale(0.1 -0.1)">
       <defs>
        <path id="DejaVuSans-31" d="M 794 531 
L 1825 531 
L 1825 4091 
L 703 3866 
L 703 4441 
L 1819 4666 
L 2450 4666 
L 2450 531 
L 3481 531 
L 3481 0 
L 794 0 
L 794 531 
z
" transform="scale(0.015625)"/>
       </defs>
       <use xlink:href="#DejaVuSans-31"/>
       <use xlink:href="#DejaVuSans-30" x="63.623047"/>
       <use xlink:href="#DejaVuSans-30" x="127.246094"/>
       <use xlink:href="#DejaVuSans-30" x="190.869141"/>
      </g>
     </g>
    </g>
    <g id="xtick_4">
     <g id="line2d_4">
      <g>
       <use xlink:href="#m79f8f553b5" x="839.653087" y="512.64" style="stroke: #000000; stroke-width: 0.8"/>
      </g>
     </g>
     <g id="text_4">
      <!-- 1500 -->
      <g transform="translate(826.928087 527.238438) scale(0.1 -0.1)">
       <use xlink:href="#DejaVuSans-31"/>
       <use xlink:href="#DejaVuSans-35" x="63.623047"/>
       <use xlink:href="#DejaVuSans-30" x="127.246094"/>
       <use xlink:href="#DejaVuSans-30" x="190.869141"/>
      </g>
     </g>
    </g>
    <g id="xtick_5">
     <g id="line2d_5">
      <g>
       <use xlink:href="#m79f8f553b5" x="1042.95926" y="512.64" style="stroke: #000000; stroke-width: 0.8"/>
      </g>
     </g>
     <g id="text_5">
      <!-- 2000 -->
      <g transform="translate(1030.23426 527.238438) scale(0.1 -0.1)">
       <defs>
        <path id="DejaVuSans-32" d="M 1228 531 
L 3431 531 
L 3431 0 
L 469 0 
L 469 531 
Q 828 903 1448 1529 
Q 2069 2156 2228 2338 
Q 2531 2678 2651 2914 
Q 2772 3150 2772 3378 
Q 2772 3750 2511 3984 
Q 2250 4219 1831 4219 
Q 1534 4219 1204 4116 
Q 875 4013 500 3803 
L 500 4441 
Q 881 4594 1212 4672 
Q 1544 4750 1819 4750 
Q 2544 4750 2975 4387 
Q 3406 4025 3406 3419 
Q 3406 3131 3298 2873 
Q 3191 2616 2906 2266 
Q 2828 2175 2409 1742 
Q 1991 1309 1228 531 
z
" transform="scale(0.015625)"/>
       </defs>
       <use xlink:href="#DejaVuSans-32"/>
       <use xlink:href="#DejaVuSans-30" x="63.623047"/>
       <use xlink:href="#DejaVuSans-30" x="127.246094"/>
       <use xlink:href="#DejaVuSans-30" x="190.869141"/>
      </g>
     </g>
    </g>
    <g id="xtick_6">
     <g id="line2d_6">
      <g>
       <use xlink:href="#m79f8f553b5" x="1246.265433" y="512.64" style="stroke: #000000; stroke-width: 0.8"/>
      </g>
     </g>
     <g id="text_6">
      <!-- 2500 -->
      <g transform="translate(1233.540433 527.238438) scale(0.1 -0.1)">
       <use xlink:href="#DejaVuSans-32"/>
       <use xlink:href="#DejaVuSans-35" x="63.623047"/>
       <use xlink:href="#DejaVuSans-30" x="127.246094"/>
       <use xlink:href="#DejaVuSans-30" x="190.869141"/>
      </g>
     </g>
    </g>
   </g>
   <g id="matplotlib.axis_2">
    <g id="ytick_1">
     <g id="line2d_7">
      <defs>
       <path id="m569ccab8a9" d="M 0 0 
L -3.5 0 
" style="stroke: #000000; stroke-width: 0.8"/>
      </defs>
      <g>
       <use xlink:href="#m569ccab8a9" x="180" y="437.678855" style="stroke: #000000; stroke-width: 0.8"/>
      </g>
     </g>
     <g id="text_7">
      <!-- −4 -->
      <g transform="translate(158.257812 441.478074) scale(0.1 -0.1)">
       <defs>
        <path id="DejaVuSans-2212" d="M 678 2272 
L 4684 2272 
L 4684 1741 
L 678 1741 
L 678 2272 
z
" transform="scale(0.015625)"/>
        <path id="DejaVuSans-34" d="M 2419 4116 
L 825 1625 
L 2419 1625 
L 2419 4116 
z
M 2253 4666 
L 3047 4666 
L 3047 1625 
L 3713 1625 
L 3713 1100 
L 3047 1100 
L 3047 0 
L 2419 0 
L 2419 1100 
L 313 1100 
L 313 1709 
L 2253 4666 
z
" transform="scale(0.015625)"/>
       </defs>
       <use xlink:href="#DejaVuSans-2212"/>
       <use xlink:href="#DejaVuSans-34" x="83.789062"/>
      </g>
     </g>
    </g>
    <g id="ytick_2">
     <g id="line2d_8">
      <g>
       <use xlink:href="#m569ccab8a9" x="180" y="352.366176" style="stroke: #000000; stroke-width: 0.8"/>
      </g>
     </g>
     <g id="text_8">
      <!-- −2 -->
      <g transform="translate(158.257812 356.165394) scale(0.1 -0.1)">
       <use xlink:href="#DejaVuSans-2212"/>
       <use xlink:href="#DejaVuSans-32" x="83.789062"/>
      </g>
     </g>
    </g>
    <g id="ytick_3">
     <g id="line2d_9">
      <g>
       <use xlink:href="#m569ccab8a9" x="180" y="267.053496" style="stroke: #000000; stroke-width: 0.8"/>
      </g>
     </g>
     <g id="text_9">
      <!-- 0 -->
      <g transform="translate(166.6375 270.852714) scale(0.1 -0.1)">
       <use xlink:href="#DejaVuSans-30"/>
      </g>
     </g>
    </g>
    <g id="ytick_4">
     <g id="line2d_10">
      <g>
       <use xlink:href="#m569ccab8a9" x="180" y="181.740816" style="stroke: #000000; stroke-width: 0.8"/>
      </g>
     </g>
     <g id="text_10">
      <!-- 2 -->
      <g transform="translate(166.6375 185.540035) scale(0.1 -0.1)">
       <use xlink:href="#DejaVuSans-32"/>
      </g>
     </g>
    </g>
    <g id="ytick_5">
     <g id="line2d_11">
      <g>
       <use xlink:href="#m569ccab8a9" x="180" y="96.428136" style="stroke: #000000; stroke-width: 0.8"/>
      </g>
     </g>
     <g id="text_11">
      <!-- 4 -->
      <g transform="translate(166.6375 100.227355) scale(0.1 -0.1)">
       <use xlink:href="#DejaVuSans-34"/>
      </g>
     </g>
    </g>
   </g>
   <g id="line2d_12">
    <path d="M 230.727273 201.217489 
L 232.712685 200.403153 
L 234.698096 198.971732 
L 242.639744 192.928638 
L 243.63245 192.57242 
L 244.625156 192.837236 
L 245.617862 193.820793 
L 246.610568 194.577923 
L 247.603273 190.897375 
L 248.595979 178.88443 
L 249.588685 163.425091 
L 250.581391 150.775567 
L 251.574097 142.499563 
L 252.566803 137.72319 
L 253.559509 135.123528 
L 254.552215 133.732251 
L 255.544921 132.991924 
L 256.537627 132.598972 
L 260.50845 131.645983 
L 261.501156 131.195999 
L 262.493862 130.586233 
L 263.486568 129.835229 
L 265.47198 127.91106 
L 270.43551 122.553839 
L 271.428216 121.746188 
L 272.420922 121.125161 
L 273.413627 120.724101 
L 274.406333 120.584765 
L 275.399039 120.747563 
L 276.391745 121.25501 
L 277.384451 122.164888 
L 279.369863 124.933818 
L 280.362569 125.695351 
L 281.355275 124.68338 
L 282.347981 121.380805 
L 283.340687 116.482808 
L 286.318804 99.947753 
L 287.31151 95.514144 
L 288.304216 92.190772 
L 289.296922 90.118547 
L 290.289628 89.28 
L 291.282334 89.494365 
L 292.27504 90.537672 
L 293.267746 92.207778 
L 294.260452 94.377087 
L 296.245864 99.778537 
L 298.231276 106.192801 
L 300.216687 113.414837 
L 303.194805 125.327198 
L 305.180217 133.274037 
L 307.165629 140.280606 
L 308.158335 143.141499 
L 309.151041 145.511271 
L 310.143747 147.428345 
L 311.136453 148.994735 
L 315.107276 154.497017 
L 316.099982 156.282244 
L 317.092688 158.401421 
L 318.085394 160.889029 
L 319.0781 163.803232 
L 320.070806 167.174048 
L 322.056218 175.18919 
L 324.04163 183.826144 
L 325.034336 187.162003 
L 326.027041 188.837649 
L 327.019747 188.361689 
L 328.012453 185.858737 
L 329.005159 182.103096 
L 331.983277 169.740526 
L 332.975983 166.296069 
L 333.968689 163.347805 
L 334.961395 160.897867 
L 335.954101 158.954232 
L 336.946807 157.471913 
L 337.939513 156.412898 
L 338.932218 155.760425 
L 339.924924 155.464628 
L 340.91763 155.518463 
L 341.910336 155.891269 
L 342.903042 156.538589 
L 343.895748 157.430926 
L 345.88116 159.737377 
L 348.859278 163.341723 
L 349.851984 164.167064 
L 350.84469 164.810112 
L 351.837395 165.070753 
L 352.830101 165.018385 
L 353.822807 164.590964 
L 354.815513 163.931525 
L 358.786337 160.732021 
L 359.779043 160.216211 
L 360.771749 159.946106 
L 361.764455 159.938824 
L 362.757161 160.243734 
L 363.749867 160.888283 
L 364.742572 161.905241 
L 365.735278 163.316569 
L 366.727984 165.130449 
L 367.72069 167.402552 
L 368.713396 170.17543 
L 369.706102 173.46832 
L 370.698808 177.39449 
L 371.691514 181.969893 
L 372.68422 187.319208 
L 373.676926 193.479744 
L 375.662338 208.346307 
L 376.655044 216.272979 
L 377.64775 222.383901 
L 378.640455 224.235474 
L 379.633161 221.003466 
L 383.603985 196.776822 
L 384.596691 192.304833 
L 385.589397 188.639962 
L 386.582103 185.649079 
L 387.574809 183.223583 
L 388.567515 181.317964 
L 389.560221 179.896507 
L 390.552927 178.848598 
L 391.545632 178.162475 
L 392.538338 177.782469 
L 393.531044 177.635009 
L 394.52375 177.713324 
L 395.516456 177.967204 
L 397.501868 178.814136 
L 402.465398 181.319924 
L 405.443515 182.455126 
L 407.428927 183.253951 
L 409.414339 184.322004 
L 410.407045 184.994886 
L 411.399751 185.838202 
L 412.392457 186.863879 
L 413.385163 188.063818 
L 414.377869 189.465415 
L 416.363281 192.971046 
L 418.348692 197.378598 
L 420.334104 202.801932 
L 422.319516 209.110723 
L 428.275752 230.091819 
L 429.268458 232.875704 
L 430.261163 235.123714 
L 431.253869 236.678029 
L 432.246575 237.295179 
L 433.239281 237.326766 
L 434.231987 236.366521 
L 435.224693 234.958178 
L 436.217399 232.893874 
L 437.210105 230.54164 
L 440.188223 222.064116 
L 443.166341 213.615538 
L 445.151752 208.672048 
L 447.137164 204.522477 
L 448.12987 202.740421 
L 449.122576 201.246764 
L 450.115282 200.008239 
L 451.107988 198.963189 
L 452.100694 198.151972 
L 453.0934 197.620076 
L 454.086106 197.304893 
L 455.078812 197.226297 
L 456.071518 197.415499 
L 457.064223 197.859109 
L 458.056929 198.45688 
L 459.049635 199.375594 
L 460.042341 200.448654 
L 461.035047 201.792437 
L 462.027753 203.330653 
L 464.013165 207.254554 
L 465.005871 209.526293 
L 466.991283 214.95354 
L 468.976695 221.606543 
L 470.962106 229.78376 
L 471.954812 234.633844 
L 472.947518 240.152634 
L 473.940224 246.604423 
L 474.93293 253.942096 
L 475.925636 262.784771 
L 476.918342 273.310083 
L 478.903754 297.27476 
L 479.89646 297.970676 
L 480.889166 287.23193 
L 481.881872 274.355312 
L 482.874577 263.335741 
L 483.867283 254.38543 
L 484.859989 246.783389 
L 485.852695 240.549372 
L 486.845401 235.059516 
L 487.838107 230.546682 
L 488.830813 226.744989 
L 489.823519 223.446482 
L 490.816225 220.655523 
L 491.808931 218.39056 
L 492.801637 216.538202 
L 493.794343 215.062636 
L 494.787049 214.019174 
L 495.779754 213.335073 
L 496.77246 213.038158 
L 497.765166 213.093083 
L 498.757872 213.533827 
L 499.750578 214.30647 
L 500.743284 215.450062 
L 501.73599 216.97365 
L 502.728696 218.919922 
L 503.721402 221.172825 
L 505.706814 227.043243 
L 506.69952 230.639237 
L 508.684932 239.033404 
L 512.655755 257.521439 
L 513.648461 260.35693 
L 514.641167 261.837748 
L 515.633873 261.346413 
L 516.626579 259.374521 
L 517.619285 257.04049 
L 520.597403 248.848509 
L 521.590109 246.673406 
L 522.582814 244.789057 
L 523.57552 243.224015 
L 524.568226 241.983143 
L 525.560932 240.965023 
L 526.553638 240.180289 
L 527.546344 239.552288 
L 529.531756 238.690975 
L 530.524462 238.289167 
L 533.50258 237.694675 
L 534.495286 237.604272 
L 536.480697 237.847007 
L 537.473403 238.258563 
L 538.466109 238.925092 
L 539.458815 239.903801 
L 540.451521 241.233831 
L 541.444227 242.983282 
L 542.436933 245.356357 
L 543.429639 248.198789 
L 544.422345 251.763566 
L 545.415051 256.428102 
L 546.407757 262.194183 
L 547.400463 269.236376 
L 548.393168 278.299907 
L 550.37858 299.822892 
L 551.371286 303.290089 
L 552.363992 294.421095 
L 554.349404 270.259611 
L 555.34211 260.491959 
L 556.334816 252.535142 
L 557.327522 245.889916 
L 558.320228 240.228441 
L 559.312934 235.47973 
L 560.30564 231.479766 
L 561.298345 228.139001 
L 562.291051 225.342435 
L 563.283757 223.107815 
L 564.276463 221.252295 
L 565.269169 219.811912 
L 566.261875 218.848475 
L 567.254581 218.242123 
L 568.247287 217.965769 
L 569.239993 218.071781 
L 570.232699 218.471672 
L 571.225405 219.328761 
L 572.218111 220.412412 
L 573.210817 221.921902 
L 574.203523 223.720687 
L 575.196228 225.940987 
L 576.188934 228.493689 
L 577.18164 231.468396 
L 578.174346 234.841473 
L 580.159758 242.903311 
L 581.152464 247.605803 
L 583.137876 258.895469 
L 584.130582 265.37527 
L 585.123288 272.800442 
L 586.115994 281.102311 
L 587.1087 290.432151 
L 588.101405 301.235982 
L 589.094111 313.474895 
L 592.072229 355.931106 
L 593.064935 353.589854 
L 594.057641 342.831242 
L 595.050347 330.150327 
L 596.043053 320.476835 
L 598.028465 303.991323 
L 599.021171 296.660355 
L 601.999288 278.576547 
L 603.9847 268.98571 
L 604.977406 264.752932 
L 606.962818 257.806336 
L 607.955524 254.996909 
L 608.94823 252.529541 
L 609.940936 250.553053 
L 610.933642 248.88764 
L 611.926348 247.548314 
L 612.919054 246.651581 
L 613.911759 246.133321 
L 614.904465 245.857743 
L 615.897171 246.006183 
L 616.889877 246.418208 
L 617.882583 247.199639 
L 618.875289 248.390768 
L 619.867995 249.769271 
L 620.860701 251.716987 
L 621.853407 253.951214 
L 622.846113 256.545799 
L 624.831525 263.131577 
L 625.824231 267.017798 
L 626.816936 271.400166 
L 627.809642 276.394503 
L 628.802348 282.109978 
L 630.78776 295.535861 
L 632.773172 312.596899 
L 633.765878 323.026427 
L 636.743996 357.125805 
L 637.736702 360.561268 
L 638.729408 357.23611 
L 640.714819 345.118654 
L 642.700231 335.893326 
L 643.692937 332.714221 
L 644.685643 328.793567 
L 645.678349 326.072409 
L 646.671055 322.359994 
L 648.656467 315.953155 
L 651.634585 306.694332 
L 652.627291 303.980329 
L 654.612702 299.47959 
L 656.598114 296.564986 
L 657.59082 295.553284 
L 658.583526 294.90024 
L 659.576232 294.811276 
L 660.568938 295.087575 
L 661.561644 295.675959 
L 662.55435 296.506349 
L 663.547056 297.79795 
L 664.539762 299.324818 
L 665.532468 301.272689 
L 669.503291 310.808444 
L 671.488703 313.588437 
L 672.481409 313.969392 
L 673.474115 313.785515 
L 674.466821 312.803858 
L 676.452233 309.466816 
L 680.423056 302.307321 
L 681.415762 301.132386 
L 682.408468 300.381313 
L 683.401174 299.915279 
L 684.39388 299.672011 
L 685.386586 299.950693 
L 686.379292 300.744101 
L 687.371998 301.690499 
L 688.364704 303.222844 
L 689.35741 305.185839 
L 690.350116 307.453913 
L 692.335527 313.481595 
L 694.320939 321.853065 
L 696.306351 332.586967 
L 698.291763 344.587076 
L 699.284469 350.32882 
L 700.277175 353.782203 
L 701.269881 354.143055 
L 702.262587 351.717038 
L 703.255293 347.111049 
L 704.247999 341.834198 
L 706.23341 332.503643 
L 708.218822 325.825899 
L 710.204234 321.376788 
L 711.19694 319.976382 
L 712.189646 319.43355 
L 713.182352 319.197587 
L 714.175058 319.326759 
L 715.167764 320.45028 
L 716.16047 321.794743 
L 717.153176 324.004384 
L 718.145882 326.655688 
L 719.138587 330.572926 
L 720.131293 334.991374 
L 721.123999 341.231777 
L 722.116705 348.729029 
L 723.109411 357.747678 
L 725.094823 380.150905 
L 726.087529 381.893866 
L 727.080235 371.236652 
L 728.072941 358.119719 
L 729.065647 347.32284 
L 730.058353 338.033459 
L 731.051059 330.491195 
L 732.043764 324.09112 
L 733.03647 319.087885 
L 734.029176 314.795528 
L 735.021882 311.248661 
L 736.014588 308.372112 
L 737.007294 306.24225 
L 738 304.714131 
L 738.992706 303.676109 
L 739.985412 303.192493 
L 740.978118 303.097346 
L 741.970824 303.460208 
L 742.96353 304.588469 
L 743.956236 306.036609 
L 744.948941 308.124417 
L 745.941647 310.893492 
L 746.934353 314.293545 
L 747.927059 318.535826 
L 748.919765 323.531346 
L 749.912471 329.435169 
L 751.897883 342.372707 
L 752.890589 347.540682 
L 753.883295 349.243478 
L 754.876001 346.027464 
L 755.868707 339.970852 
L 757.854118 326.820932 
L 758.846824 321.169419 
L 759.83953 316.359721 
L 760.832236 312.203987 
L 761.824942 308.848769 
L 762.817648 306.083238 
L 763.810354 303.966796 
L 764.80306 302.616031 
L 765.795766 301.652753 
L 766.788472 301.169526 
L 767.781178 301.122524 
L 768.773884 301.787382 
L 769.76659 302.761048 
L 770.759295 304.037217 
L 771.752001 306.209753 
L 773.737413 311.638493 
L 774.730119 315.050484 
L 778.700943 330.106608 
L 779.693649 332.580192 
L 780.686355 333.439993 
L 781.679061 332.843674 
L 782.671767 330.849318 
L 785.649884 321.591345 
L 786.64259 318.730762 
L 787.635296 316.501057 
L 788.628002 315.038342 
L 789.620708 313.774862 
L 790.613414 313.115262 
L 791.60612 313.068563 
L 792.598826 313.429747 
L 793.591532 314.340283 
L 794.584238 315.82938 
L 795.576944 318.066033 
L 796.56965 320.906623 
L 797.562355 324.306315 
L 798.555061 328.423215 
L 801.533179 342.102414 
L 802.525885 344.805475 
L 803.518591 345.157161 
L 804.511297 342.648325 
L 806.496709 332.818869 
L 808.482121 322.85355 
L 810.467532 314.845279 
L 811.460238 311.85708 
L 812.452944 309.355006 
L 813.44565 307.462328 
L 814.438356 305.963028 
L 815.431062 304.953435 
L 816.423768 304.478255 
L 817.416474 304.482191 
L 818.40918 304.928062 
L 819.401886 305.812711 
L 820.394592 307.41167 
L 821.387298 309.306741 
L 822.380004 311.787039 
L 823.372709 314.847875 
L 824.365415 318.734462 
L 825.358121 323.082517 
L 827.343533 333.396952 
L 829.328945 344.134437 
L 830.321651 347.643855 
L 831.314357 348.220806 
L 832.307063 345.767656 
L 833.299769 341.312556 
L 836.277886 326.378568 
L 838.263298 318.719506 
L 839.256004 316.045495 
L 840.24871 313.770132 
L 841.241416 312.053115 
L 842.234122 310.620534 
L 843.226828 309.963594 
L 844.219534 309.506233 
L 845.21224 309.500288 
L 846.204946 309.831493 
L 847.197652 310.645167 
L 848.190358 311.789954 
L 849.183064 313.416277 
L 850.175769 315.433658 
L 851.168475 317.872227 
L 853.153887 323.583638 
L 854.146593 326.680259 
L 857.124711 337.276373 
L 858.117417 340.098634 
L 859.110123 342.214264 
L 860.102829 343.546251 
L 861.095535 343.817574 
L 862.088241 343.235584 
L 863.080946 342.14571 
L 864.073652 340.457246 
L 866.059064 336.759054 
L 867.05177 335.071547 
L 870.029888 331.052248 
L 871.022594 329.929306 
L 872.0153 329.093596 
L 874.000712 327.704526 
L 874.993418 327.003823 
L 875.986123 326.614081 
L 876.978829 325.801858 
L 879.956947 323.922619 
L 880.949653 323.001674 
L 881.942359 322.343287 
L 882.935065 321.978377 
L 883.927771 321.226398 
L 884.920477 321.060629 
L 885.913183 321.043261 
L 886.905889 321.220135 
L 887.898595 321.664341 
L 888.8913 322.398528 
L 889.884006 323.548555 
L 890.876712 325.054548 
L 891.869418 326.955907 
L 892.862124 329.580939 
L 893.85483 332.620883 
L 895.840242 340.497512 
L 896.832948 345.757126 
L 898.81836 357.4165 
L 899.811066 362.806668 
L 900.803772 364.792443 
L 901.796477 363.19897 
L 902.789183 358.203859 
L 905.767301 338.421998 
L 906.760007 332.681717 
L 907.752713 327.921271 
L 908.745419 323.782321 
L 909.738125 320.369384 
L 911.723537 314.855237 
L 912.716243 313.211983 
L 913.708949 311.93868 
L 914.701655 311.05692 
L 915.69436 310.643698 
L 916.687066 310.687671 
L 917.679772 311.230271 
L 918.672478 312.228418 
L 919.665184 313.70527 
L 920.65789 315.78502 
L 921.650596 318.522772 
L 922.643302 321.84927 
L 923.636008 326.073758 
L 924.628714 331.012525 
L 925.62142 337.378134 
L 926.614126 345.40408 
L 927.606832 355.47674 
L 928.599537 368.846085 
L 929.592243 385.207148 
L 930.584949 397.780511 
L 931.577655 389.352575 
L 932.570361 372.59793 
L 933.563067 359.12631 
L 934.555773 348.722623 
L 935.548479 340.353153 
L 936.541185 333.845885 
L 937.533891 328.77651 
L 938.526597 324.47808 
L 939.519303 320.949064 
L 940.512009 318.491621 
L 941.504714 316.486571 
L 942.49742 315.143677 
L 943.490126 314.394606 
L 944.482832 314.174749 
L 945.475538 314.254073 
L 946.468244 314.931575 
L 947.46095 316.131703 
L 948.453656 317.845681 
L 949.446362 320.123704 
L 950.439068 322.969647 
L 951.431774 326.596618 
L 952.42448 330.975853 
L 953.417186 336.222109 
L 954.409891 342.584082 
L 955.402597 350.003239 
L 956.395303 358.763698 
L 958.380715 378.606793 
L 959.373421 382.344235 
L 960.366127 377.719327 
L 962.351539 359.930566 
L 963.344245 352.216184 
L 964.336951 345.827626 
L 965.329657 340.622017 
L 966.322363 336.450926 
L 967.315068 333.227713 
L 968.307774 330.598669 
L 969.30048 328.852318 
L 970.293186 327.47997 
L 971.285892 326.755951 
L 973.271304 326.857731 
L 974.26401 327.591059 
L 975.256716 328.894635 
L 976.249422 330.583742 
L 977.242128 332.558294 
L 978.234834 334.856768 
L 982.205657 347.127947 
L 983.198363 349.82143 
L 984.191069 351.267614 
L 985.183775 352.269372 
L 986.176481 352.251039 
L 987.169187 351.010513 
L 988.161893 349.270831 
L 992.132717 341.196749 
L 994.118128 339.022145 
L 995.110834 338.443815 
L 996.10354 338.576324 
L 997.096246 338.942883 
L 998.088952 339.723124 
L 999.081658 341.227843 
L 1000.074364 343.12741 
L 1001.06707 345.390337 
L 1003.052482 350.967712 
L 1004.045188 354.280777 
L 1005.037894 358.142753 
L 1006.0306 360.919858 
L 1007.023305 362.30322 
L 1008.016011 362.800096 
L 1009.008717 361.736731 
L 1010.001423 359.089312 
L 1012.979541 348.217894 
L 1013.972247 344.625792 
L 1014.964953 341.601968 
L 1016.950365 337.086099 
L 1017.943071 335.558447 
L 1018.935777 334.278032 
L 1019.928482 333.611888 
L 1020.921188 333.347779 
L 1021.913894 333.336042 
L 1022.9066 334.157687 
L 1023.899306 335.263732 
L 1024.892012 336.967992 
L 1025.884718 339.207627 
L 1026.877424 341.998231 
L 1027.87013 345.589733 
L 1028.862836 349.697857 
L 1029.855542 354.443809 
L 1030.848248 360.316764 
L 1033.826365 380.472688 
L 1034.819071 385.200764 
L 1035.811777 384.766675 
L 1036.804483 379.95536 
L 1039.782601 360.880191 
L 1040.775307 355.893142 
L 1041.768013 351.555581 
L 1042.760719 347.876305 
L 1043.753425 344.710239 
L 1044.746131 342.256022 
L 1045.738837 340.383158 
L 1047.724248 338.31444 
L 1048.716954 337.983648 
L 1049.70966 338.241699 
L 1050.702366 338.65377 
L 1052.687778 340.904684 
L 1054.67319 344.940848 
L 1055.665896 347.27833 
L 1056.658602 350.060036 
L 1058.644014 356.55925 
L 1060.629425 364.118855 
L 1062.614837 370.207486 
L 1063.607543 372.557451 
L 1064.600249 372.896292 
L 1065.592955 373.068381 
L 1066.585661 372.378027 
L 1068.571073 369.192572 
L 1070.556485 367.270152 
L 1071.549191 365.768939 
L 1072.541896 364.794159 
L 1073.534602 363.614106 
L 1077.505426 361.200092 
L 1078.498132 360.563843 
L 1079.490838 360.218963 
L 1080.483544 358.758979 
L 1081.47625 357.811 
L 1084.454368 354.161453 
L 1085.447073 352.37195 
L 1087.432485 350.064519 
L 1088.425191 349.28613 
L 1089.417897 348.697929 
L 1090.410603 347.851046 
L 1092.396015 347.966473 
L 1094.381427 349.534966 
L 1095.374133 351.294446 
L 1097.359545 356.263537 
L 1098.35225 360.524205 
L 1099.344956 365.310422 
L 1100.337662 371.104658 
L 1101.330368 379.143197 
L 1102.323074 389.635333 
L 1103.31578 404.15672 
L 1104.308486 428.571158 
L 1105.301192 464.506453 
L 1106.293898 438.636291 
L 1107.286604 408.90201 
L 1108.27931 390.936157 
L 1109.272016 378.293881 
L 1110.264722 368.982306 
L 1111.257428 361.746152 
L 1112.250133 355.619679 
L 1113.242839 350.700578 
L 1114.235545 346.798306 
L 1115.228251 343.489179 
L 1117.213663 339.022915 
L 1119.199075 336.822502 
L 1120.191781 336.388236 
L 1121.184487 336.197304 
L 1122.177193 336.980197 
L 1123.169899 338.126834 
L 1124.162605 339.546444 
L 1125.15531 341.747726 
L 1126.148016 344.451586 
L 1127.140722 347.786788 
L 1128.133428 351.986542 
L 1129.126134 356.902555 
L 1130.11884 363.139151 
L 1131.111546 370.161155 
L 1133.096958 387.7114 
L 1134.089664 394.153646 
L 1135.08237 395.325621 
L 1136.075076 389.116063 
L 1138.060487 372.313229 
L 1139.053193 364.826423 
L 1140.045899 358.664236 
L 1141.038605 353.453874 
L 1142.031311 349.425276 
L 1144.016723 343.107616 
L 1145.009429 340.993548 
L 1146.994841 338.511336 
L 1147.987547 337.866938 
L 1148.980253 337.847305 
L 1149.972959 338.076338 
L 1150.965664 338.70238 
L 1151.95837 340.276808 
L 1152.951076 342.119202 
L 1153.943782 344.619369 
L 1154.936488 347.640201 
L 1155.929194 351.072045 
L 1157.914606 360.631197 
L 1158.907312 366.802644 
L 1159.900018 373.714177 
L 1162.878136 396.640091 
L 1163.870841 399.16064 
L 1164.863547 396.627001 
L 1168.834371 371.599437 
L 1169.827077 366.727118 
L 1171.812489 359.931623 
L 1173.797901 356.333375 
L 1174.790607 355.350505 
L 1175.783313 354.777999 
L 1176.776019 354.922883 
L 1177.768724 355.634742 
L 1179.754136 358.309881 
L 1181.739548 363.415129 
L 1182.732254 366.789181 
L 1183.72496 371.408445 
L 1185.710372 382.667507 
L 1186.703078 390.341837 
L 1187.695784 399.420276 
L 1189.681196 426.816729 
L 1190.673901 451.387403 
L 1191.666607 492.48 
L 1192.659313 471.043617 
L 1193.652019 442.64986 
L 1194.644725 427.671189 
L 1195.637431 415.657979 
L 1196.630137 408.683289 
L 1197.622843 403.602693 
L 1198.615549 399.966873 
L 1199.608255 398.267391 
L 1200.600961 397.163937 
L 1201.593667 397.146183 
L 1202.586373 397.7871 
L 1203.579078 399.117233 
L 1204.571784 401.428737 
L 1205.56449 404.249021 
L 1206.557196 408.572649 
L 1207.549902 410.806369 
L 1208.542608 414.151617 
L 1209.535314 415.955335 
L 1210.52802 415.394656 
L 1211.520726 415.567947 
L 1212.513432 412.59304 
L 1213.506138 407.285308 
L 1214.498844 404.236149 
L 1216.484255 396.783208 
L 1217.476961 393.922077 
L 1219.462373 389.3909 
L 1220.455079 388.441387 
L 1221.447785 387.72188 
L 1223.433197 389.526591 
L 1225.418609 393.529603 
L 1226.411315 396.537948 
L 1228.396727 406.230997 
L 1229.389432 412.646574 
L 1231.374844 429.542187 
L 1232.36755 436.28844 
L 1233.360256 435.98013 
L 1234.352962 429.70771 
L 1236.338374 411.184076 
L 1238.323786 397.001524 
L 1239.316492 391.509401 
L 1240.309198 387.888162 
L 1241.301904 383.559276 
L 1242.29461 381.168908 
L 1243.287315 379.13683 
L 1244.280021 377.394838 
L 1245.272727 376.624753 
L 1245.272727 376.624753 
" clip-path="url(#p4d32a0399a)" style="fill: none; stroke: #1f77b4; stroke-width: 1.5; stroke-linecap: square"/>
   </g>
   <g id="patch_3">
    <path d="M 180 512.64 
L 180 69.12 
" style="fill: none; stroke: #000000; stroke-width: 0.8; stroke-linejoin: miter; stroke-linecap: square"/>
   </g>
   <g id="patch_4">
    <path d="M 1296 512.64 
L 1296 69.12 
" style="fill: none; stroke: #000000; stroke-width: 0.8; stroke-linejoin: miter; stroke-linecap: square"/>
   </g>
   <g id="patch_5">
    <path d="M 180 512.64 
L 1296 512.64 
" style="fill: none; stroke: #000000; stroke-width: 0.8; stroke-linejoin: miter; stroke-linecap: square"/>
   </g>
   <g id="patch_6">
    <path d="M 180 69.12 
L 1296 69.12 
" style="fill: none; stroke: #000000; stroke-width: 0.8; stroke-linejoin: miter; stroke-linecap: square"/>
   </g>
   <g id="text_12">
    <!-- source1-receiver1 -->
    <g transform="translate(557.625 60.80125) scale(0.4 -0.4)">
     <defs>
      <path id="DejaVuSans-73" d="M 2834 3397 
L 2834 2853 
Q 2591 2978 2328 3040 
Q 2066 3103 1784 3103 
Q 1356 3103 1142 2972 
Q 928 2841 928 2578 
Q 928 2378 1081 2264 
Q 1234 2150 1697 2047 
L 1894 2003 
Q 2506 1872 2764 1633 
Q 3022 1394 3022 966 
Q 3022 478 2636 193 
Q 2250 -91 1575 -91 
Q 1294 -91 989 -36 
Q 684 19 347 128 
L 347 722 
Q 666 556 975 473 
Q 1284 391 1588 391 
Q 1994 391 2212 530 
Q 2431 669 2431 922 
Q 2431 1156 2273 1281 
Q 2116 1406 1581 1522 
L 1381 1569 
Q 847 1681 609 1914 
Q 372 2147 372 2553 
Q 372 3047 722 3315 
Q 1072 3584 1716 3584 
Q 2034 3584 2315 3537 
Q 2597 3491 2834 3397 
z
" transform="scale(0.015625)"/>
      <path id="DejaVuSans-6f" d="M 1959 3097 
Q 1497 3097 1228 2736 
Q 959 2375 959 1747 
Q 959 1119 1226 758 
Q 1494 397 1959 397 
Q 2419 397 2687 759 
Q 2956 1122 2956 1747 
Q 2956 2369 2687 2733 
Q 2419 3097 1959 3097 
z
M 1959 3584 
Q 2709 3584 3137 3096 
Q 3566 2609 3566 1747 
Q 3566 888 3137 398 
Q 2709 -91 1959 -91 
Q 1206 -91 779 398 
Q 353 888 353 1747 
Q 353 2609 779 3096 
Q 1206 3584 1959 3584 
z
" transform="scale(0.015625)"/>
      <path id="DejaVuSans-75" d="M 544 1381 
L 544 3500 
L 1119 3500 
L 1119 1403 
Q 1119 906 1312 657 
Q 1506 409 1894 409 
Q 2359 409 2629 706 
Q 2900 1003 2900 1516 
L 2900 3500 
L 3475 3500 
L 3475 0 
L 2900 0 
L 2900 538 
Q 2691 219 2414 64 
Q 2138 -91 1772 -91 
Q 1169 -91 856 284 
Q 544 659 544 1381 
z
M 1991 3584 
L 1991 3584 
z
" transform="scale(0.015625)"/>
      <path id="DejaVuSans-72" d="M 2631 2963 
Q 2534 3019 2420 3045 
Q 2306 3072 2169 3072 
Q 1681 3072 1420 2755 
Q 1159 2438 1159 1844 
L 1159 0 
L 581 0 
L 581 3500 
L 1159 3500 
L 1159 2956 
Q 1341 3275 1631 3429 
Q 1922 3584 2338 3584 
Q 2397 3584 2469 3576 
Q 2541 3569 2628 3553 
L 2631 2963 
z
" transform="scale(0.015625)"/>
      <path id="DejaVuSans-63" d="M 3122 3366 
L 3122 2828 
Q 2878 2963 2633 3030 
Q 2388 3097 2138 3097 
Q 1578 3097 1268 2742 
Q 959 2388 959 1747 
Q 959 1106 1268 751 
Q 1578 397 2138 397 
Q 2388 397 2633 464 
Q 2878 531 3122 666 
L 3122 134 
Q 2881 22 2623 -34 
Q 2366 -91 2075 -91 
Q 1284 -91 818 406 
Q 353 903 353 1747 
Q 353 2603 823 3093 
Q 1294 3584 2113 3584 
Q 2378 3584 2631 3529 
Q 2884 3475 3122 3366 
z
" transform="scale(0.015625)"/>
      <path id="DejaVuSans-65" d="M 3597 1894 
L 3597 1613 
L 953 1613 
Q 991 1019 1311 708 
Q 1631 397 2203 397 
Q 2534 397 2845 478 
Q 3156 559 3463 722 
L 3463 178 
Q 3153 47 2828 -22 
Q 2503 -91 2169 -91 
Q 1331 -91 842 396 
Q 353 884 353 1716 
Q 353 2575 817 3079 
Q 1281 3584 2069 3584 
Q 2775 3584 3186 3129 
Q 3597 2675 3597 1894 
z
M 3022 2063 
Q 3016 2534 2758 2815 
Q 2500 3097 2075 3097 
Q 1594 3097 1305 2825 
Q 1016 2553 972 2059 
L 3022 2063 
z
" transform="scale(0.015625)"/>
      <path id="DejaVuSans-2d" d="M 313 2009 
L 1997 2009 
L 1997 1497 
L 313 1497 
L 313 2009 
z
" transform="scale(0.015625)"/>
      <path id="DejaVuSans-69" d="M 603 3500 
L 1178 3500 
L 1178 0 
L 603 0 
L 603 3500 
z
M 603 4863 
L 1178 4863 
L 1178 4134 
L 603 4134 
L 603 4863 
z
" transform="scale(0.015625)"/>
      <path id="DejaVuSans-76" d="M 191 3500 
L 800 3500 
L 1894 563 
L 2988 3500 
L 3597 3500 
L 2284 0 
L 1503 0 
L 191 3500 
z
" transform="scale(0.015625)"/>
     </defs>
     <use xlink:href="#DejaVuSans-73"/>
     <use xlink:href="#DejaVuSans-6f" x="52.099609"/>
     <use xlink:href="#DejaVuSans-75" x="113.28125"/>
     <use xlink:href="#DejaVuSans-72" x="176.660156"/>
     <use xlink:href="#DejaVuSans-63" x="215.523438"/>
     <use xlink:href="#DejaVuSans-65" x="270.503906"/>
     <use xlink:href="#DejaVuSans-31" x="332.027344"/>
     <use xlink:href="#DejaVuSans-2d" x="395.650391"/>
     <use xlink:href="#DejaVuSans-72" x="431.734375"/>
     <use xlink:href="#DejaVuSans-65" x="470.597656"/>
     <use xlink:href="#DejaVuSans-63" x="532.121094"/>
     <use xlink:href="#DejaVuSans-65" x="587.101562"/>
     <use xlink:href="#DejaVuSans-69" x="648.625"/>
     <use xlink:href="#DejaVuSans-76" x="676.408203"/>
     <use xlink:href="#DejaVuSans-65" x="735.587891"/>
     <use xlink:href="#DejaVuSans-72" x="797.111328"/>
     <use xlink:href="#DejaVuSans-31" x="838.224609"/>
    </g>
   </g>
  </g>
 </g>
 <defs>
  <clipPath id="p4d32a0399a">
   <rect x="180" y="69.12" width="1116" height="443.52"/>
  </clipPath>
 </defs>
</svg>
