<?xml version="1.0" encoding="utf-8" standalone="no"?>
<!DOCTYPE svg PUBLIC "-//W3C//DTD SVG 1.1//EN"
  "http://www.w3.org/Graphics/SVG/1.1/DTD/svg11.dtd">
<svg xmlns:xlink="http://www.w3.org/1999/xlink" width="1440pt" height="576pt" viewBox="0 0 1440 576" xmlns="http://www.w3.org/2000/svg" version="1.1">
 <metadata>
  <rdf:RDF xmlns:dc="http://purl.org/dc/elements/1.1/" xmlns:cc="http://creativecommons.org/ns#" xmlns:rdf="http://www.w3.org/1999/02/22-rdf-syntax-ns#">
   <cc:Work>
    <dc:type rdf:resource="http://purl.org/dc/dcmitype/StillImage"/>
    <dc:date>2024-05-22T04:49:39.082960</dc:date>
    <dc:format>image/svg+xml</dc:format>
    <dc:creator>
     <cc:Agent>
      <dc:title>Matplotlib v3.8.3, https://matplotlib.org/</dc:title>
     </cc:Agent>
    </dc:creator>
   </cc:Work>
  </rdf:RDF>
 </metadata>
 <defs>
  <style type="text/css">*{stroke-linejoin: round; stroke-linecap: butt}</style>
 </defs>
 <g id="figure_1">
  <g id="patch_1">
   <path d="M 0 576 
L 1440 576 
L 1440 0 
L 0 0 
z
" style="fill: #ffffff"/>
  </g>
  <g id="axes_1">
   <g id="patch_2">
    <path d="M 180 512.64 
L 1296 512.64 
L 1296 69.12 
L 180 69.12 
z
" style="fill: #ffffff"/>
   </g>
   <g id="matplotlib.axis_1">
    <g id="xtick_1">
     <g id="line2d_1">
      <defs>
       <path id="mb3ff6e862f" d="M 0 0 
L 0 3.5 
" style="stroke: #000000; stroke-width: 0.8"/>
      </defs>
      <g>
       <use xlink:href="#mb3ff6e862f" x="229.734567" y="512.64" style="stroke: #000000; stroke-width: 0.8"/>
      </g>
     </g>
     <g id="text_1">
      <!-- 0 -->
      <g transform="translate(226.553317 527.238438) scale(0.1 -0.1)">
       <defs>
        <path id="DejaVuSans-30" d="M 2034 4250 
Q 1547 4250 1301 3770 
Q 1056 3291 1056 2328 
Q 1056 1369 1301 889 
Q 1547 409 2034 409 
Q 2525 409 2770 889 
Q 3016 1369 3016 2328 
Q 3016 3291 2770 3770 
Q 2525 4250 2034 4250 
z
M 2034 4750 
Q 2819 4750 3233 4129 
Q 3647 3509 3647 2328 
Q 3647 1150 3233 529 
Q 2819 -91 2034 -91 
Q 1250 -91 836 529 
Q 422 1150 422 2328 
Q 422 3509 836 4129 
Q 1250 4750 2034 4750 
z
" transform="scale(0.015625)"/>
       </defs>
       <use xlink:href="#DejaVuSans-30"/>
      </g>
     </g>
    </g>
    <g id="xtick_2">
     <g id="line2d_2">
      <g>
       <use xlink:href="#mb3ff6e862f" x="433.04074" y="512.64" style="stroke: #000000; stroke-width: 0.8"/>
      </g>
     </g>
     <g id="text_2">
      <!-- 500 -->
      <g transform="translate(423.49699 527.238438) scale(0.1 -0.1)">
       <defs>
        <path id="DejaVuSans-35" d="M 691 4666 
L 3169 4666 
L 3169 4134 
L 1269 4134 
L 1269 2991 
Q 1406 3038 1543 3061 
Q 1681 3084 1819 3084 
Q 2600 3084 3056 2656 
Q 3513 2228 3513 1497 
Q 3513 744 3044 326 
Q 2575 -91 1722 -91 
Q 1428 -91 1123 -41 
Q 819 9 494 109 
L 494 744 
Q 775 591 1075 516 
Q 1375 441 1709 441 
Q 2250 441 2565 725 
Q 2881 1009 2881 1497 
Q 2881 1984 2565 2268 
Q 2250 2553 1709 2553 
Q 1456 2553 1204 2497 
Q 953 2441 691 2322 
L 691 4666 
z
" transform="scale(0.015625)"/>
       </defs>
       <use xlink:href="#DejaVuSans-35"/>
       <use xlink:href="#DejaVuSans-30" x="63.623047"/>
       <use xlink:href="#DejaVuSans-30" x="127.246094"/>
      </g>
     </g>
    </g>
    <g id="xtick_3">
     <g id="line2d_3">
      <g>
       <use xlink:href="#mb3ff6e862f" x="636.346913" y="512.64" style="stroke: #000000; stroke-width: 0.8"/>
      </g>
     </g>
     <g id="text_3">
      <!-- 1000 -->
      <g transform="translate(623.621913 527.238438) scale(0.1 -0.1)">
       <defs>
        <path id="DejaVuSans-31" d="M 794 531 
L 1825 531 
L 1825 4091 
L 703 3866 
L 703 4441 
L 1819 4666 
L 2450 4666 
L 2450 531 
L 3481 531 
L 3481 0 
L 794 0 
L 794 531 
z
" transform="scale(0.015625)"/>
       </defs>
       <use xlink:href="#DejaVuSans-31"/>
       <use xlink:href="#DejaVuSans-30" x="63.623047"/>
       <use xlink:href="#DejaVuSans-30" x="127.246094"/>
       <use xlink:href="#DejaVuSans-30" x="190.869141"/>
      </g>
     </g>
    </g>
    <g id="xtick_4">
     <g id="line2d_4">
      <g>
       <use xlink:href="#mb3ff6e862f" x="839.653087" y="512.64" style="stroke: #000000; stroke-width: 0.8"/>
      </g>
     </g>
     <g id="text_4">
      <!-- 1500 -->
      <g transform="translate(826.928087 527.238438) scale(0.1 -0.1)">
       <use xlink:href="#DejaVuSans-31"/>
       <use xlink:href="#DejaVuSans-35" x="63.623047"/>
       <use xlink:href="#DejaVuSans-30" x="127.246094"/>
       <use xlink:href="#DejaVuSans-30" x="190.869141"/>
      </g>
     </g>
    </g>
    <g id="xtick_5">
     <g id="line2d_5">
      <g>
       <use xlink:href="#mb3ff6e862f" x="1042.95926" y="512.64" style="stroke: #000000; stroke-width: 0.8"/>
      </g>
     </g>
     <g id="text_5">
      <!-- 2000 -->
      <g transform="translate(1030.23426 527.238438) scale(0.1 -0.1)">
       <defs>
        <path id="DejaVuSans-32" d="M 1228 531 
L 3431 531 
L 3431 0 
L 469 0 
L 469 531 
Q 828 903 1448 1529 
Q 2069 2156 2228 2338 
Q 2531 2678 2651 2914 
Q 2772 3150 2772 3378 
Q 2772 3750 2511 3984 
Q 2250 4219 1831 4219 
Q 1534 4219 1204 4116 
Q 875 4013 500 3803 
L 500 4441 
Q 881 4594 1212 4672 
Q 1544 4750 1819 4750 
Q 2544 4750 2975 4387 
Q 3406 4025 3406 3419 
Q 3406 3131 3298 2873 
Q 3191 2616 2906 2266 
Q 2828 2175 2409 1742 
Q 1991 1309 1228 531 
z
" transform="scale(0.015625)"/>
       </defs>
       <use xlink:href="#DejaVuSans-32"/>
       <use xlink:href="#DejaVuSans-30" x="63.623047"/>
       <use xlink:href="#DejaVuSans-30" x="127.246094"/>
       <use xlink:href="#DejaVuSans-30" x="190.869141"/>
      </g>
     </g>
    </g>
    <g id="xtick_6">
     <g id="line2d_6">
      <g>
       <use xlink:href="#mb3ff6e862f" x="1246.265433" y="512.64" style="stroke: #000000; stroke-width: 0.8"/>
      </g>
     </g>
     <g id="text_6">
      <!-- 2500 -->
      <g transform="translate(1233.540433 527.238438) scale(0.1 -0.1)">
       <use xlink:href="#DejaVuSans-32"/>
       <use xlink:href="#DejaVuSans-35" x="63.623047"/>
       <use xlink:href="#DejaVuSans-30" x="127.246094"/>
       <use xlink:href="#DejaVuSans-30" x="190.869141"/>
      </g>
     </g>
    </g>
   </g>
   <g id="matplotlib.axis_2">
    <g id="ytick_1">
     <g id="line2d_7">
      <defs>
       <path id="m7c2c1e63fe" d="M 0 0 
L -3.5 0 
" style="stroke: #000000; stroke-width: 0.8"/>
      </defs>
      <g>
       <use xlink:href="#m7c2c1e63fe" x="180" y="509.603337" style="stroke: #000000; stroke-width: 0.8"/>
      </g>
     </g>
     <g id="text_7">
      <!-- −3 -->
      <g transform="translate(158.257812 513.402556) scale(0.1 -0.1)">
       <defs>
        <path id="DejaVuSans-2212" d="M 678 2272 
L 4684 2272 
L 4684 1741 
L 678 1741 
L 678 2272 
z
" transform="scale(0.015625)"/>
        <path id="DejaVuSans-33" d="M 2597 2516 
Q 3050 2419 3304 2112 
Q 3559 1806 3559 1356 
Q 3559 666 3084 287 
Q 2609 -91 1734 -91 
Q 1441 -91 1130 -33 
Q 819 25 488 141 
L 488 750 
Q 750 597 1062 519 
Q 1375 441 1716 441 
Q 2309 441 2620 675 
Q 2931 909 2931 1356 
Q 2931 1769 2642 2001 
Q 2353 2234 1838 2234 
L 1294 2234 
L 1294 2753 
L 1863 2753 
Q 2328 2753 2575 2939 
Q 2822 3125 2822 3475 
Q 2822 3834 2567 4026 
Q 2313 4219 1838 4219 
Q 1578 4219 1281 4162 
Q 984 4106 628 3988 
L 628 4550 
Q 988 4650 1302 4700 
Q 1616 4750 1894 4750 
Q 2613 4750 3031 4423 
Q 3450 4097 3450 3541 
Q 3450 3153 3228 2886 
Q 3006 2619 2597 2516 
z
" transform="scale(0.015625)"/>
       </defs>
       <use xlink:href="#DejaVuSans-2212"/>
       <use xlink:href="#DejaVuSans-33" x="83.789062"/>
      </g>
     </g>
    </g>
    <g id="ytick_2">
     <g id="line2d_8">
      <g>
       <use xlink:href="#m7c2c1e63fe" x="180" y="454.224786" style="stroke: #000000; stroke-width: 0.8"/>
      </g>
     </g>
     <g id="text_8">
      <!-- −2 -->
      <g transform="translate(158.257812 458.024005) scale(0.1 -0.1)">
       <use xlink:href="#DejaVuSans-2212"/>
       <use xlink:href="#DejaVuSans-32" x="83.789062"/>
      </g>
     </g>
    </g>
    <g id="ytick_3">
     <g id="line2d_9">
      <g>
       <use xlink:href="#m7c2c1e63fe" x="180" y="398.846234" style="stroke: #000000; stroke-width: 0.8"/>
      </g>
     </g>
     <g id="text_9">
      <!-- −1 -->
      <g transform="translate(158.257812 402.645453) scale(0.1 -0.1)">
       <use xlink:href="#DejaVuSans-2212"/>
       <use xlink:href="#DejaVuSans-31" x="83.789062"/>
      </g>
     </g>
    </g>
    <g id="ytick_4">
     <g id="line2d_10">
      <g>
       <use xlink:href="#m7c2c1e63fe" x="180" y="343.467683" style="stroke: #000000; stroke-width: 0.8"/>
      </g>
     </g>
     <g id="text_10">
      <!-- 0 -->
      <g transform="translate(166.6375 347.266902) scale(0.1 -0.1)">
       <use xlink:href="#DejaVuSans-30"/>
      </g>
     </g>
    </g>
    <g id="ytick_5">
     <g id="line2d_11">
      <g>
       <use xlink:href="#m7c2c1e63fe" x="180" y="288.089131" style="stroke: #000000; stroke-width: 0.8"/>
      </g>
     </g>
     <g id="text_11">
      <!-- 1 -->
      <g transform="translate(166.6375 291.88835) scale(0.1 -0.1)">
       <use xlink:href="#DejaVuSans-31"/>
      </g>
     </g>
    </g>
    <g id="ytick_6">
     <g id="line2d_12">
      <g>
       <use xlink:href="#m7c2c1e63fe" x="180" y="232.71058" style="stroke: #000000; stroke-width: 0.8"/>
      </g>
     </g>
     <g id="text_12">
      <!-- 2 -->
      <g transform="translate(166.6375 236.509799) scale(0.1 -0.1)">
       <use xlink:href="#DejaVuSans-32"/>
      </g>
     </g>
    </g>
    <g id="ytick_7">
     <g id="line2d_13">
      <g>
       <use xlink:href="#m7c2c1e63fe" x="180" y="177.332028" style="stroke: #000000; stroke-width: 0.8"/>
      </g>
     </g>
     <g id="text_13">
      <!-- 3 -->
      <g transform="translate(166.6375 181.131247) scale(0.1 -0.1)">
       <use xlink:href="#DejaVuSans-33"/>
      </g>
     </g>
    </g>
    <g id="ytick_8">
     <g id="line2d_14">
      <g>
       <use xlink:href="#m7c2c1e63fe" x="180" y="121.953477" style="stroke: #000000; stroke-width: 0.8"/>
      </g>
     </g>
     <g id="text_14">
      <!-- 4 -->
      <g transform="translate(166.6375 125.752696) scale(0.1 -0.1)">
       <defs>
        <path id="DejaVuSans-34" d="M 2419 4116 
L 825 1625 
L 2419 1625 
L 2419 4116 
z
M 2253 4666 
L 3047 4666 
L 3047 1625 
L 3713 1625 
L 3713 1100 
L 3047 1100 
L 3047 0 
L 2419 0 
L 2419 1100 
L 313 1100 
L 313 1709 
L 2253 4666 
z
" transform="scale(0.015625)"/>
       </defs>
       <use xlink:href="#DejaVuSans-34"/>
      </g>
     </g>
    </g>
   </g>
   <g id="line2d_15">
    <path d="M 230.727273 438.048088 
L 231.719979 436.790928 
L 232.712685 435.131877 
L 234.698096 428.390746 
L 238.66892 411.975857 
L 240.654332 402.306179 
L 242.639744 392.039701 
L 244.625156 378.633359 
L 245.617862 374.03936 
L 246.610568 373.603277 
L 247.603273 360.528335 
L 248.595979 322.836886 
L 249.588685 290.73684 
L 250.581391 267.88073 
L 251.574097 254.748393 
L 252.566803 247.390221 
L 253.559509 244.275364 
L 254.552215 233.582451 
L 255.544921 221.087019 
L 256.537627 212.200537 
L 258.523039 204.788235 
L 259.515745 197.790864 
L 260.50845 193.174317 
L 261.501156 198.001522 
L 262.493862 219.346555 
L 263.486568 264.262177 
L 265.47198 221.363292 
L 266.464686 224.385986 
L 267.457392 249.168424 
L 268.450098 283.538266 
L 269.442804 268.091246 
L 270.43551 254.822906 
L 272.420922 221.455113 
L 273.413627 211.240323 
L 274.406333 209.295899 
L 275.399039 193.77058 
L 277.384451 131.057902 
L 278.377157 110.10255 
L 279.369863 96.70055 
L 280.362569 89.867978 
L 281.355275 89.28 
L 282.347981 95.014064 
L 283.340687 106.927875 
L 284.333393 122.422945 
L 285.326099 132.126454 
L 286.318804 132.554699 
L 287.31151 135.325599 
L 288.304216 147.487323 
L 289.296922 169.352548 
L 290.289628 185.068014 
L 291.282334 184.32716 
L 292.27504 189.229135 
L 293.267746 205.816687 
L 294.260452 225.242639 
L 295.253158 239.324756 
L 296.245864 259.466209 
L 297.23857 264.896439 
L 298.231276 247.948249 
L 299.223981 249.629267 
L 300.216687 274.453863 
L 301.209393 280.2798 
L 302.202099 262.666624 
L 303.194805 267.842766 
L 304.187511 310.126786 
L 305.180217 334.538713 
L 306.172923 290.530015 
L 307.165629 292.547028 
L 308.158335 328.530077 
L 309.151041 425.398824 
L 310.143747 337.524702 
L 311.136453 332.60879 
L 312.129159 352.074869 
L 313.121864 360.463819 
L 314.11457 358.289422 
L 315.107276 349.511539 
L 316.099982 357.668164 
L 317.092688 359.266519 
L 318.085394 365.128145 
L 319.0781 361.707725 
L 320.070806 364.226851 
L 321.063512 361.576776 
L 322.056218 363.04788 
L 323.048924 365.360646 
L 324.04163 368.178198 
L 325.034336 368.164337 
L 326.027041 365.47287 
L 327.019747 366.635838 
L 328.012453 367.519245 
L 329.005159 375.46723 
L 329.997865 378.33202 
L 331.983277 372.349693 
L 332.975983 371.079357 
L 333.968689 374.946105 
L 334.961395 378.008125 
L 335.954101 379.84263 
L 336.946807 378.610811 
L 337.939513 372.020933 
L 338.932218 381.8207 
L 339.924924 378.814216 
L 340.91763 385.532681 
L 341.910336 379.539997 
L 342.903042 382.34962 
L 343.895748 383.466139 
L 344.888454 388.881198 
L 345.88116 379.95728 
L 346.873866 384.683967 
L 347.866572 391.604129 
L 348.859278 381.504672 
L 349.851984 382.143322 
L 350.84469 381.85437 
L 351.837395 390.615304 
L 352.830101 388.249952 
L 353.822807 389.075243 
L 354.815513 400.16792 
L 355.808219 387.012575 
L 357.793631 398.169399 
L 358.786337 399.440366 
L 359.779043 391.980502 
L 360.771749 388.9349 
L 361.764455 399.596786 
L 362.757161 396.87883 
L 363.749867 395.5486 
L 364.742572 389.471229 
L 365.735278 399.110161 
L 367.72069 392.686666 
L 368.713396 390.290037 
L 369.706102 399.809922 
L 370.698808 399.328784 
L 371.691514 402.563344 
L 372.68422 404.86855 
L 373.676926 404.95449 
L 374.669632 400.253395 
L 375.662338 403.910963 
L 376.655044 398.473234 
L 377.64775 407.715131 
L 378.640455 403.236198 
L 379.633161 402.140741 
L 380.625867 403.645836 
L 381.618573 406.874679 
L 382.611279 413.944491 
L 383.603985 402.278842 
L 384.596691 409.487481 
L 385.589397 400.556396 
L 386.582103 400.632654 
L 387.574809 401.595811 
L 388.567515 411.659036 
L 390.552927 406.037872 
L 391.545632 403.222013 
L 392.538338 405.49382 
L 394.52375 408.34768 
L 395.516456 410.589198 
L 396.509162 408.733899 
L 397.501868 418.65855 
L 398.494574 410.675411 
L 399.48728 407.866089 
L 400.479986 414.368085 
L 401.472692 414.507563 
L 402.465398 413.018817 
L 403.458104 409.81423 
L 404.450809 416.956866 
L 405.443515 416.962331 
L 406.436221 411.179464 
L 407.428927 420.07387 
L 408.421633 412.57291 
L 409.414339 414.343674 
L 410.407045 408.043044 
L 411.399751 417.391221 
L 412.392457 422.367834 
L 413.385163 415.309485 
L 414.377869 422.079753 
L 415.370575 419.351337 
L 416.363281 423.620152 
L 417.355986 418.234848 
L 418.348692 419.484328 
L 419.341398 415.791269 
L 420.334104 418.957801 
L 421.32681 411.639136 
L 422.319516 419.088154 
L 423.312222 415.490841 
L 424.304928 426.637246 
L 425.297634 422.188397 
L 426.29034 411.149468 
L 427.283046 424.157474 
L 428.275752 423.592645 
L 429.268458 417.772182 
L 430.261163 425.732289 
L 431.253869 416.219469 
L 432.246575 416.850342 
L 433.239281 414.166843 
L 434.231987 417.97965 
L 435.224693 420.761055 
L 436.217399 422.318636 
L 437.210105 407.125375 
L 438.202811 437.808604 
L 439.195517 423.57323 
L 440.188223 432.207098 
L 441.180929 419.851298 
L 442.173635 421.415474 
L 443.166341 424.360925 
L 444.159046 422.717397 
L 445.151752 431.167131 
L 446.144458 427.40128 
L 447.137164 429.164794 
L 448.12987 421.999441 
L 449.122576 428.215628 
L 450.115282 424.200886 
L 451.107988 424.493854 
L 452.100694 427.52846 
L 453.0934 424.705299 
L 454.086106 443.031847 
L 455.078812 423.070923 
L 456.071518 424.63953 
L 457.064223 424.63101 
L 459.049635 433.779901 
L 460.042341 434.323054 
L 463.020459 424.983846 
L 464.013165 430.418596 
L 465.005871 437.019853 
L 465.998577 425.557694 
L 467.983989 436.053665 
L 468.976695 436.099038 
L 469.9694 429.885953 
L 470.962106 435.087852 
L 471.954812 428.804099 
L 472.947518 437.685782 
L 473.940224 430.107632 
L 474.93293 447.68741 
L 475.925636 436.10844 
L 476.918342 437.618711 
L 477.911048 459.936984 
L 478.903754 434.333326 
L 479.89646 436.667509 
L 480.889166 432.140616 
L 481.881872 434.500209 
L 482.874577 437.26862 
L 483.867283 446.813266 
L 484.859989 424.753352 
L 485.852695 445.370141 
L 486.845401 444.122207 
L 487.838107 439.06 
L 488.830813 432.463999 
L 489.823519 445.659913 
L 490.816225 445.46562 
L 491.808931 441.846378 
L 492.801637 432.212383 
L 494.787049 447.402314 
L 495.779754 434.883563 
L 496.77246 425.478096 
L 497.765166 444.340068 
L 498.757872 440.206182 
L 500.743284 447.140507 
L 501.73599 447.214588 
L 502.728696 437.133753 
L 503.721402 452.303879 
L 504.714108 447.532502 
L 505.706814 445.677354 
L 506.69952 440.072042 
L 507.692226 446.255793 
L 508.684932 432.79376 
L 509.677637 440.113759 
L 510.670343 446.396728 
L 511.663049 442.807238 
L 512.655755 448.272421 
L 513.648461 441.193627 
L 514.641167 429.532948 
L 515.633873 444.904795 
L 516.626579 444.47759 
L 517.619285 444.476173 
L 518.611991 444.721266 
L 519.604697 442.315526 
L 520.597403 447.083538 
L 521.590109 445.31251 
L 522.582814 438.989412 
L 523.57552 445.298473 
L 524.568226 445.200488 
L 525.560932 444.750307 
L 526.553638 450.753001 
L 527.546344 441.37496 
L 528.53905 442.841963 
L 529.531756 448.815629 
L 530.524462 440.993699 
L 531.517168 441.455691 
L 532.509874 443.643486 
L 533.50258 456.492092 
L 535.487991 442.73518 
L 536.480697 448.574438 
L 537.473403 446.928999 
L 538.466109 454.217861 
L 539.458815 460.559868 
L 540.451521 449.664229 
L 541.444227 446.56504 
L 542.436933 445.127426 
L 543.429639 433.510365 
L 544.422345 448.132336 
L 545.415051 447.53352 
L 546.407757 449.95043 
L 547.400463 437.474261 
L 548.393168 465.930262 
L 549.385874 435.404901 
L 550.37858 446.589304 
L 551.371286 436.022659 
L 552.363992 439.52687 
L 553.356698 457.843059 
L 554.349404 448.07162 
L 555.34211 450.813478 
L 556.334816 449.760521 
L 557.327522 441.557546 
L 558.320228 439.115669 
L 559.312934 447.68929 
L 560.30564 452.759305 
L 561.298345 446.090816 
L 562.291051 446.98203 
L 563.283757 440.604927 
L 564.276463 443.473625 
L 565.269169 458.14089 
L 566.261875 450.042017 
L 567.254581 454.518371 
L 568.247287 442.561206 
L 569.239993 463.739849 
L 570.232699 444.646434 
L 571.225405 457.255507 
L 572.218111 450.825007 
L 573.210817 445.453208 
L 574.203523 456.376372 
L 575.196228 456.040885 
L 576.188934 452.503136 
L 577.18164 436.148237 
L 578.174346 447.912537 
L 579.167052 452.951461 
L 580.159758 454.35402 
L 581.152464 454.821964 
L 582.14517 450.993835 
L 583.137876 443.927646 
L 584.130582 475.180244 
L 585.123288 449.289558 
L 586.115994 443.244591 
L 587.1087 446.754448 
L 588.101405 450.913473 
L 589.094111 463.420809 
L 590.086817 467.3886 
L 591.079523 450.131695 
L 592.072229 457.408774 
L 593.064935 459.498778 
L 594.057641 463.739108 
L 595.050347 457.212502 
L 596.043053 456.867705 
L 597.035759 472.890843 
L 598.028465 474.812833 
L 599.021171 456.501068 
L 600.013877 450.846634 
L 601.006582 458.72212 
L 601.999288 459.09516 
L 602.991994 454.696928 
L 603.9847 449.565454 
L 604.977406 454.238521 
L 605.970112 452.475019 
L 606.962818 442.525263 
L 607.955524 458.557565 
L 608.94823 465.152655 
L 609.940936 462.542636 
L 610.933642 448.532551 
L 611.926348 463.593795 
L 612.919054 450.184951 
L 613.911759 453.350048 
L 614.904465 463.605553 
L 615.897171 458.108299 
L 616.889877 457.970698 
L 618.875289 465.654541 
L 619.867995 452.705386 
L 620.860701 467.224215 
L 621.853407 457.42558 
L 623.838819 452.403531 
L 624.831525 467.119162 
L 625.824231 460.301559 
L 626.816936 466.582883 
L 627.809642 459.454024 
L 628.802348 459.16365 
L 629.795054 453.197763 
L 630.78776 459.888367 
L 631.780466 461.628169 
L 632.773172 459.607218 
L 633.765878 456.270735 
L 634.758584 461.026438 
L 635.75129 458.166771 
L 636.743996 461.391373 
L 637.736702 459.565199 
L 638.729408 463.433974 
L 639.722114 465.60213 
L 640.714819 460.068666 
L 641.707525 458.959193 
L 642.700231 462.065843 
L 643.692937 461.29741 
L 644.685643 469.177697 
L 645.678349 460.927327 
L 646.671055 466.556534 
L 647.663761 463.965914 
L 648.656467 458.765744 
L 649.649173 462.917342 
L 650.641879 459.567117 
L 651.634585 462.450853 
L 652.627291 466.764802 
L 653.619996 460.991443 
L 654.612702 462.674447 
L 655.605408 469.439806 
L 656.598114 460.462084 
L 657.59082 460.722648 
L 658.583526 459.711231 
L 659.576232 464.300476 
L 660.568938 466.919535 
L 661.561644 463.313704 
L 662.55435 461.235362 
L 663.547056 466.046704 
L 664.539762 465.56268 
L 665.532468 465.442476 
L 666.525173 462.788571 
L 667.517879 463.01719 
L 668.510585 465.797963 
L 669.503291 466.675227 
L 670.495997 462.459296 
L 671.488703 463.106161 
L 672.481409 466.373119 
L 673.474115 465.515711 
L 674.466821 464.822428 
L 675.459527 466.20023 
L 676.452233 468.908452 
L 677.444939 465.646476 
L 678.437645 465.859913 
L 679.43035 465.493033 
L 680.423056 463.995541 
L 681.415762 468.293611 
L 682.408468 464.575041 
L 683.401174 465.765208 
L 684.39388 464.310454 
L 685.386586 466.736667 
L 686.379292 466.16388 
L 687.371998 467.345934 
L 688.364704 465.784883 
L 689.35741 466.983865 
L 690.350116 466.586188 
L 691.342822 469.118465 
L 692.335527 468.579321 
L 693.328233 466.038646 
L 694.320939 466.452725 
L 695.313645 467.651323 
L 696.306351 465.500426 
L 697.299057 468.028853 
L 698.291763 466.609922 
L 699.284469 468.604611 
L 700.277175 467.873512 
L 701.269881 467.608776 
L 702.262587 468.306667 
L 703.255293 467.73389 
L 704.247999 469.020607 
L 705.240705 467.996568 
L 706.23341 469.732886 
L 707.226116 468.518556 
L 708.218822 468.342419 
L 709.211528 468.887871 
L 711.19694 468.841448 
L 713.182352 469.583185 
L 714.175058 469.592864 
L 715.167764 468.915174 
L 716.16047 468.915879 
L 717.153176 469.866888 
L 718.145882 469.765444 
L 719.138587 468.895191 
L 720.131293 469.368672 
L 721.123999 470.965635 
L 722.116705 470.201615 
L 723.109411 469.762028 
L 724.102117 469.658105 
L 726.087529 471.192895 
L 727.080235 471.250087 
L 728.072941 470.228222 
L 729.065647 470.018218 
L 730.058353 470.905135 
L 731.051059 470.885929 
L 732.043764 471.795364 
L 733.03647 470.160971 
L 735.021882 471.514474 
L 736.014588 471.115235 
L 737.007294 471.204504 
L 738 472.110889 
L 738.992706 471.755544 
L 740.978118 472.018999 
L 741.970824 472.877157 
L 743.956236 471.502163 
L 744.948941 471.725269 
L 745.941647 472.423287 
L 746.934353 472.125602 
L 747.927059 471.289179 
L 748.919765 472.063679 
L 749.912471 471.806098 
L 750.905177 472.504412 
L 751.897883 471.929172 
L 752.890589 473.017545 
L 753.883295 473.658859 
L 754.876001 473.429308 
L 755.868707 472.746211 
L 756.861413 472.538148 
L 757.854118 473.469461 
L 758.846824 473.853107 
L 759.83953 473.682024 
L 760.832236 474.180947 
L 761.824942 472.89994 
L 762.817648 473.522991 
L 763.810354 474.91015 
L 764.80306 473.636431 
L 766.788472 473.942057 
L 767.781178 474.493956 
L 768.773884 473.688417 
L 769.76659 474.449141 
L 770.759295 473.829436 
L 771.752001 475.209396 
L 772.744707 474.258983 
L 773.737413 474.207807 
L 774.730119 474.330781 
L 775.722825 474.680071 
L 776.715531 474.125558 
L 777.708237 474.9339 
L 778.700943 475.443357 
L 779.693649 475.436976 
L 780.686355 475.24302 
L 781.679061 475.396682 
L 783.664473 474.6399 
L 784.657178 475.81854 
L 785.649884 474.833272 
L 786.64259 475.257936 
L 787.635296 476.624811 
L 788.628002 476.198872 
L 789.620708 475.269378 
L 790.613414 475.166352 
L 791.60612 476.16393 
L 792.598826 476.530565 
L 793.591532 475.556773 
L 794.584238 475.985627 
L 795.576944 475.415362 
L 796.56965 476.239849 
L 797.562355 476.493878 
L 798.555061 476.387052 
L 799.547767 477.049984 
L 800.540473 477.123693 
L 802.525885 476.726851 
L 803.518591 475.907736 
L 804.511297 476.768227 
L 805.504003 476.960236 
L 806.496709 476.809094 
L 807.489415 476.33893 
L 808.482121 477.216015 
L 810.467532 476.693783 
L 811.460238 477.080281 
L 812.452944 477.05316 
L 813.44565 477.480866 
L 814.438356 477.510132 
L 815.431062 478.27072 
L 816.423768 478.223337 
L 817.416474 477.779715 
L 818.40918 477.089491 
L 819.401886 477.772128 
L 821.387298 478.098112 
L 822.380004 477.968298 
L 823.372709 477.656164 
L 824.365415 477.483644 
L 825.358121 479.058593 
L 826.350827 478.635919 
L 827.343533 479.154964 
L 828.336239 478.115543 
L 829.328945 478.88771 
L 830.321651 478.909636 
L 831.314357 478.401409 
L 832.307063 478.682001 
L 833.299769 479.191415 
L 834.292475 479.278776 
L 835.285181 479.603558 
L 836.277886 478.837014 
L 837.270592 479.463363 
L 838.263298 478.732103 
L 839.256004 478.792669 
L 840.24871 479.054921 
L 841.241416 478.689306 
L 842.234122 479.951835 
L 843.226828 479.483975 
L 844.219534 479.234592 
L 845.21224 479.935764 
L 846.204946 480.316572 
L 847.197652 479.57495 
L 848.190358 481.137453 
L 849.183064 480.265872 
L 850.175769 480.121687 
L 851.168475 478.798432 
L 852.161181 480.441666 
L 853.153887 479.61828 
L 854.146593 480.50031 
L 855.139299 479.647424 
L 856.132005 479.650218 
L 857.124711 480.434947 
L 858.117417 480.35221 
L 859.110123 479.554075 
L 860.102829 481.487114 
L 861.095535 480.240174 
L 862.088241 481.074904 
L 863.080946 480.85845 
L 864.073652 482.158157 
L 865.066358 480.346774 
L 866.059064 479.891265 
L 867.05177 480.413137 
L 868.044476 480.792461 
L 869.037182 481.764278 
L 870.029888 481.24551 
L 871.022594 480.858855 
L 872.0153 481.670808 
L 873.008006 481.407505 
L 874.000712 480.285571 
L 874.993418 481.445334 
L 875.986123 480.67477 
L 876.978829 480.326284 
L 877.971535 481.129926 
L 878.964241 481.457941 
L 879.956947 482.280541 
L 880.949653 481.007067 
L 883.927771 481.957709 
L 884.920477 481.378263 
L 885.913183 482.30531 
L 886.905889 482.051281 
L 889.884006 482.865987 
L 890.876712 482.461513 
L 891.869418 482.425471 
L 892.862124 481.806119 
L 893.85483 483.094596 
L 894.847536 482.355462 
L 895.840242 482.75609 
L 896.832948 482.657828 
L 897.825654 481.737068 
L 898.81836 483.205507 
L 900.803772 482.511864 
L 901.796477 483.071646 
L 902.789183 482.610117 
L 903.781889 483.109787 
L 904.774595 482.730094 
L 906.760007 483.213397 
L 908.745419 482.568145 
L 909.738125 483.297232 
L 910.730831 483.723325 
L 911.723537 483.582177 
L 912.716243 483.586251 
L 914.701655 482.833338 
L 915.69436 483.867395 
L 916.687066 484.303246 
L 917.679772 483.197974 
L 918.672478 484.543416 
L 920.65789 484.051999 
L 921.650596 483.406202 
L 923.636008 484.269253 
L 924.628714 483.600099 
L 925.62142 483.268183 
L 926.614126 483.917808 
L 927.606832 483.88606 
L 928.599537 484.074993 
L 929.592243 485.28343 
L 930.584949 485.36157 
L 931.577655 483.704934 
L 932.570361 484.11098 
L 933.563067 483.924903 
L 934.555773 484.839473 
L 935.548479 485.208195 
L 936.541185 484.462778 
L 937.533891 485.181431 
L 938.526597 484.656016 
L 941.504714 485.65503 
L 942.49742 484.459287 
L 943.490126 484.974301 
L 944.482832 485.252455 
L 946.468244 485.060368 
L 948.453656 485.356601 
L 949.446362 484.909545 
L 950.439068 485.586629 
L 951.431774 485.06443 
L 952.42448 485.409101 
L 953.417186 485.53883 
L 954.409891 485.492565 
L 955.402597 485.158489 
L 956.395303 485.909696 
L 957.388009 485.461761 
L 958.380715 484.602856 
L 959.373421 484.794908 
L 960.366127 485.400551 
L 962.351539 485.398882 
L 963.344245 486.284387 
L 964.336951 485.85976 
L 965.329657 486.228418 
L 966.322363 486.369288 
L 967.315068 485.872488 
L 968.307774 485.917829 
L 969.30048 485.587555 
L 970.293186 486.902601 
L 971.285892 486.747514 
L 972.278598 486.453042 
L 973.271304 485.468761 
L 974.26401 486.370993 
L 975.256716 485.422421 
L 976.249422 485.569865 
L 977.242128 485.861317 
L 978.234834 485.187663 
L 979.22754 486.135814 
L 980.220246 486.142696 
L 982.205657 486.718724 
L 983.198363 485.786138 
L 984.191069 486.017503 
L 985.183775 486.541409 
L 986.176481 486.27332 
L 987.169187 485.720206 
L 988.161893 486.932878 
L 989.154599 486.476346 
L 990.147305 486.44146 
L 991.140011 486.7468 
L 992.132717 487.342215 
L 993.125423 485.615351 
L 994.118128 487.035608 
L 995.110834 487.162105 
L 996.10354 486.656352 
L 997.096246 487.302575 
L 998.088952 486.848762 
L 1001.06707 487.096625 
L 1003.052482 486.729078 
L 1004.045188 486.614859 
L 1005.037894 487.378494 
L 1006.0306 487.093824 
L 1008.016011 486.839798 
L 1010.001423 487.684947 
L 1010.994129 487.056249 
L 1011.986835 487.626844 
L 1012.979541 487.219044 
L 1013.972247 487.863631 
L 1014.964953 488.020182 
L 1015.957659 487.755226 
L 1016.950365 487.876257 
L 1018.935777 487.503941 
L 1019.928482 488.062732 
L 1020.921188 487.815011 
L 1021.913894 488.518155 
L 1022.9066 487.941559 
L 1023.899306 487.874937 
L 1024.892012 487.634003 
L 1025.884718 487.659627 
L 1026.877424 487.459138 
L 1027.87013 487.565992 
L 1028.862836 488.710189 
L 1029.855542 487.181464 
L 1030.848248 486.726478 
L 1031.840954 487.86551 
L 1033.826365 487.719581 
L 1034.819071 488.476868 
L 1035.811777 487.945026 
L 1036.804483 488.688931 
L 1037.797189 488.879112 
L 1039.782601 487.496448 
L 1040.775307 488.10747 
L 1041.768013 488.543242 
L 1042.760719 488.192832 
L 1043.753425 489.020389 
L 1044.746131 488.632968 
L 1045.738837 487.470352 
L 1046.731542 488.571516 
L 1047.724248 488.86794 
L 1048.716954 488.350923 
L 1049.70966 489.052401 
L 1050.702366 487.610157 
L 1051.695072 489.119417 
L 1052.687778 488.9701 
L 1053.680484 488.626602 
L 1054.67319 488.562156 
L 1055.665896 488.866819 
L 1056.658602 488.04906 
L 1057.651308 488.295591 
L 1058.644014 489.101003 
L 1059.636719 488.124594 
L 1060.629425 488.451203 
L 1061.622131 488.918421 
L 1062.614837 488.915819 
L 1063.607543 488.671462 
L 1064.600249 487.867716 
L 1065.592955 488.242196 
L 1066.585661 487.815657 
L 1067.578367 490.200577 
L 1068.571073 489.668301 
L 1069.563779 488.568728 
L 1070.556485 488.083889 
L 1071.549191 489.918963 
L 1072.541896 488.503812 
L 1073.534602 488.805711 
L 1074.527308 489.489132 
L 1075.520014 489.204786 
L 1076.51272 487.772673 
L 1077.505426 489.522567 
L 1078.498132 489.058254 
L 1079.490838 488.804082 
L 1080.483544 489.892062 
L 1081.47625 489.047461 
L 1082.468956 489.543291 
L 1083.461662 489.411707 
L 1084.454368 488.956687 
L 1085.447073 490.082195 
L 1086.439779 489.85847 
L 1088.425191 488.710699 
L 1089.417897 490.025649 
L 1090.410603 490.390263 
L 1091.403309 489.832402 
L 1092.396015 489.618379 
L 1093.388721 488.921327 
L 1094.381427 489.879446 
L 1095.374133 489.051253 
L 1096.366839 489.200744 
L 1097.359545 490.239281 
L 1098.35225 489.437061 
L 1099.344956 490.545074 
L 1100.337662 491.133594 
L 1101.330368 489.921009 
L 1102.323074 490.013231 
L 1103.31578 489.877994 
L 1104.308486 489.98366 
L 1105.301192 489.975956 
L 1106.293898 490.419489 
L 1107.286604 490.222927 
L 1108.27931 489.893915 
L 1109.272016 489.741366 
L 1110.264722 490.74713 
L 1111.257428 489.398105 
L 1112.250133 490.282564 
L 1113.242839 490.072649 
L 1114.235545 489.542196 
L 1115.228251 489.519568 
L 1116.220957 489.67249 
L 1117.213663 489.014752 
L 1118.206369 490.213708 
L 1119.199075 489.825678 
L 1120.191781 489.029184 
L 1121.184487 488.565697 
L 1122.177193 489.418151 
L 1123.169899 490.707406 
L 1124.162605 489.832806 
L 1125.15531 489.347164 
L 1126.148016 490.267097 
L 1127.140722 489.885655 
L 1128.133428 490.017487 
L 1129.126134 490.841193 
L 1130.11884 489.709634 
L 1131.111546 490.008207 
L 1132.104252 489.860266 
L 1133.096958 490.576274 
L 1135.08237 490.098852 
L 1136.075076 490.527114 
L 1139.053193 489.86546 
L 1140.045899 489.976319 
L 1141.038605 490.50493 
L 1142.031311 490.854775 
L 1143.024017 490.969483 
L 1144.016723 490.857125 
L 1145.009429 491.017229 
L 1146.002135 490.449813 
L 1146.994841 490.723557 
L 1147.987547 489.733296 
L 1148.980253 490.487765 
L 1149.972959 490.022811 
L 1150.965664 490.799851 
L 1151.95837 490.722149 
L 1152.951076 490.22975 
L 1153.943782 491.366082 
L 1154.936488 490.279331 
L 1155.929194 490.216638 
L 1156.9219 491.66112 
L 1157.914606 490.815788 
L 1159.900018 490.379686 
L 1160.892724 491.928529 
L 1161.88543 491.620159 
L 1162.878136 489.32798 
L 1164.863547 492.101042 
L 1166.848959 490.035678 
L 1167.841665 491.234474 
L 1168.834371 490.689188 
L 1169.827077 491.127937 
L 1170.819783 489.89268 
L 1171.812489 490.939165 
L 1172.805195 492.48 
L 1173.797901 489.800979 
L 1174.790607 491.472508 
L 1175.783313 491.418918 
L 1176.776019 491.923921 
L 1177.768724 491.155803 
L 1178.76143 490.832156 
L 1179.754136 490.387155 
L 1180.746842 489.456897 
L 1181.739548 491.266347 
L 1182.732254 491.041832 
L 1183.72496 492.186431 
L 1184.717666 490.404055 
L 1185.710372 491.15324 
L 1186.703078 490.196142 
L 1187.695784 491.111581 
L 1188.68849 490.31429 
L 1189.681196 489.944934 
L 1190.673901 490.546172 
L 1191.666607 490.812559 
L 1192.659313 490.469492 
L 1193.652019 490.523831 
L 1194.644725 490.76554 
L 1195.637431 490.498126 
L 1196.630137 490.905909 
L 1198.615549 491.126975 
L 1199.608255 490.544169 
L 1200.600961 491.667542 
L 1201.593667 490.982362 
L 1202.586373 490.559557 
L 1203.579078 490.581157 
L 1204.571784 491.107775 
L 1205.56449 491.211375 
L 1206.557196 490.087412 
L 1207.549902 490.639559 
L 1208.542608 490.581908 
L 1209.535314 490.78396 
L 1210.52802 490.682241 
L 1212.513432 491.627931 
L 1213.506138 491.143552 
L 1215.49155 491.132007 
L 1216.484255 491.327764 
L 1217.476961 491.320259 
L 1218.469667 490.488623 
L 1219.462373 491.32838 
L 1220.455079 491.264672 
L 1221.447785 491.056425 
L 1222.440491 490.542449 
L 1223.433197 491.442715 
L 1224.425903 491.899734 
L 1226.411315 489.789408 
L 1228.396727 491.231021 
L 1229.389432 491.75059 
L 1230.382138 490.349053 
L 1231.374844 491.086069 
L 1232.36755 491.283515 
L 1233.360256 490.747574 
L 1235.345668 491.445549 
L 1236.338374 492.180091 
L 1237.33108 491.116568 
L 1238.323786 491.312316 
L 1239.316492 490.637744 
L 1240.309198 491.441373 
L 1241.301904 491.630528 
L 1242.29461 490.346368 
L 1243.287315 491.571621 
L 1244.280021 491.76883 
L 1245.272727 491.667629 
L 1245.272727 491.667629 
" clip-path="url(#p406b72f74d)" style="fill: none; stroke: #1f77b4; stroke-width: 1.5; stroke-linecap: square"/>
   </g>
   <g id="patch_3">
    <path d="M 180 512.64 
L 180 69.12 
" style="fill: none; stroke: #000000; stroke-width: 0.8; stroke-linejoin: miter; stroke-linecap: square"/>
   </g>
   <g id="patch_4">
    <path d="M 1296 512.64 
L 1296 69.12 
" style="fill: none; stroke: #000000; stroke-width: 0.8; stroke-linejoin: miter; stroke-linecap: square"/>
   </g>
   <g id="patch_5">
    <path d="M 180 512.64 
L 1296 512.64 
" style="fill: none; stroke: #000000; stroke-width: 0.8; stroke-linejoin: miter; stroke-linecap: square"/>
   </g>
   <g id="patch_6">
    <path d="M 180 69.12 
L 1296 69.12 
" style="fill: none; stroke: #000000; stroke-width: 0.8; stroke-linejoin: miter; stroke-linecap: square"/>
   </g>
   <g id="text_15">
    <!-- source1-receiver10 -->
    <g transform="translate(544.9 60.80125) scale(0.4 -0.4)">
     <defs>
      <path id="DejaVuSans-73" d="M 2834 3397 
L 2834 2853 
Q 2591 2978 2328 3040 
Q 2066 3103 1784 3103 
Q 1356 3103 1142 2972 
Q 928 2841 928 2578 
Q 928 2378 1081 2264 
Q 1234 2150 1697 2047 
L 1894 2003 
Q 2506 1872 2764 1633 
Q 3022 1394 3022 966 
Q 3022 478 2636 193 
Q 2250 -91 1575 -91 
Q 1294 -91 989 -36 
Q 684 19 347 128 
L 347 722 
Q 666 556 975 473 
Q 1284 391 1588 391 
Q 1994 391 2212 530 
Q 2431 669 2431 922 
Q 2431 1156 2273 1281 
Q 2116 1406 1581 1522 
L 1381 1569 
Q 847 1681 609 1914 
Q 372 2147 372 2553 
Q 372 3047 722 3315 
Q 1072 3584 1716 3584 
Q 2034 3584 2315 3537 
Q 2597 3491 2834 3397 
z
" transform="scale(0.015625)"/>
      <path id="DejaVuSans-6f" d="M 1959 3097 
Q 1497 3097 1228 2736 
Q 959 2375 959 1747 
Q 959 1119 1226 758 
Q 1494 397 1959 397 
Q 2419 397 2687 759 
Q 2956 1122 2956 1747 
Q 2956 2369 2687 2733 
Q 2419 3097 1959 3097 
z
M 1959 3584 
Q 2709 3584 3137 3096 
Q 3566 2609 3566 1747 
Q 3566 888 3137 398 
Q 2709 -91 1959 -91 
Q 1206 -91 779 398 
Q 353 888 353 1747 
Q 353 2609 779 3096 
Q 1206 3584 1959 3584 
z
" transform="scale(0.015625)"/>
      <path id="DejaVuSans-75" d="M 544 1381 
L 544 3500 
L 1119 3500 
L 1119 1403 
Q 1119 906 1312 657 
Q 1506 409 1894 409 
Q 2359 409 2629 706 
Q 2900 1003 2900 1516 
L 2900 3500 
L 3475 3500 
L 3475 0 
L 2900 0 
L 2900 538 
Q 2691 219 2414 64 
Q 2138 -91 1772 -91 
Q 1169 -91 856 284 
Q 544 659 544 1381 
z
M 1991 3584 
L 1991 3584 
z
" transform="scale(0.015625)"/>
      <path id="DejaVuSans-72" d="M 2631 2963 
Q 2534 3019 2420 3045 
Q 2306 3072 2169 3072 
Q 1681 3072 1420 2755 
Q 1159 2438 1159 1844 
L 1159 0 
L 581 0 
L 581 3500 
L 1159 3500 
L 1159 2956 
Q 1341 3275 1631 3429 
Q 1922 3584 2338 3584 
Q 2397 3584 2469 3576 
Q 2541 3569 2628 3553 
L 2631 2963 
z
" transform="scale(0.015625)"/>
      <path id="DejaVuSans-63" d="M 3122 3366 
L 3122 2828 
Q 2878 2963 2633 3030 
Q 2388 3097 2138 3097 
Q 1578 3097 1268 2742 
Q 959 2388 959 1747 
Q 959 1106 1268 751 
Q 1578 397 2138 397 
Q 2388 397 2633 464 
Q 2878 531 3122 666 
L 3122 134 
Q 2881 22 2623 -34 
Q 2366 -91 2075 -91 
Q 1284 -91 818 406 
Q 353 903 353 1747 
Q 353 2603 823 3093 
Q 1294 3584 2113 3584 
Q 2378 3584 2631 3529 
Q 2884 3475 3122 3366 
z
" transform="scale(0.015625)"/>
      <path id="DejaVuSans-65" d="M 3597 1894 
L 3597 1613 
L 953 1613 
Q 991 1019 1311 708 
Q 1631 397 2203 397 
Q 2534 397 2845 478 
Q 3156 559 3463 722 
L 3463 178 
Q 3153 47 2828 -22 
Q 2503 -91 2169 -91 
Q 1331 -91 842 396 
Q 353 884 353 1716 
Q 353 2575 817 3079 
Q 1281 3584 2069 3584 
Q 2775 3584 3186 3129 
Q 3597 2675 3597 1894 
z
M 3022 2063 
Q 3016 2534 2758 2815 
Q 2500 3097 2075 3097 
Q 1594 3097 1305 2825 
Q 1016 2553 972 2059 
L 3022 2063 
z
" transform="scale(0.015625)"/>
      <path id="DejaVuSans-2d" d="M 313 2009 
L 1997 2009 
L 1997 1497 
L 313 1497 
L 313 2009 
z
" transform="scale(0.015625)"/>
      <path id="DejaVuSans-69" d="M 603 3500 
L 1178 3500 
L 1178 0 
L 603 0 
L 603 3500 
z
M 603 4863 
L 1178 4863 
L 1178 4134 
L 603 4134 
L 603 4863 
z
" transform="scale(0.015625)"/>
      <path id="DejaVuSans-76" d="M 191 3500 
L 800 3500 
L 1894 563 
L 2988 3500 
L 3597 3500 
L 2284 0 
L 1503 0 
L 191 3500 
z
" transform="scale(0.015625)"/>
     </defs>
     <use xlink:href="#DejaVuSans-73"/>
     <use xlink:href="#DejaVuSans-6f" x="52.099609"/>
     <use xlink:href="#DejaVuSans-75" x="113.28125"/>
     <use xlink:href="#DejaVuSans-72" x="176.660156"/>
     <use xlink:href="#DejaVuSans-63" x="215.523438"/>
     <use xlink:href="#DejaVuSans-65" x="270.503906"/>
     <use xlink:href="#DejaVuSans-31" x="332.027344"/>
     <use xlink:href="#DejaVuSans-2d" x="395.650391"/>
     <use xlink:href="#DejaVuSans-72" x="431.734375"/>
     <use xlink:href="#DejaVuSans-65" x="470.597656"/>
     <use xlink:href="#DejaVuSans-63" x="532.121094"/>
     <use xlink:href="#DejaVuSans-65" x="587.101562"/>
     <use xlink:href="#DejaVuSans-69" x="648.625"/>
     <use xlink:href="#DejaVuSans-76" x="676.408203"/>
     <use xlink:href="#DejaVuSans-65" x="735.587891"/>
     <use xlink:href="#DejaVuSans-72" x="797.111328"/>
     <use xlink:href="#DejaVuSans-31" x="838.224609"/>
     <use xlink:href="#DejaVuSans-30" x="901.847656"/>
    </g>
   </g>
  </g>
 </g>
 <defs>
  <clipPath id="p406b72f74d">
   <rect x="180" y="69.12" width="1116" height="443.52"/>
  </clipPath>
 </defs>
</svg>
