<?xml version="1.0" encoding="utf-8" standalone="no"?>
<!DOCTYPE svg PUBLIC "-//W3C//DTD SVG 1.1//EN"
  "http://www.w3.org/Graphics/SVG/1.1/DTD/svg11.dtd">
<svg xmlns:xlink="http://www.w3.org/1999/xlink" width="1440pt" height="576pt" viewBox="0 0 1440 576" xmlns="http://www.w3.org/2000/svg" version="1.1">
 <metadata>
  <rdf:RDF xmlns:dc="http://purl.org/dc/elements/1.1/" xmlns:cc="http://creativecommons.org/ns#" xmlns:rdf="http://www.w3.org/1999/02/22-rdf-syntax-ns#">
   <cc:Work>
    <dc:type rdf:resource="http://purl.org/dc/dcmitype/StillImage"/>
    <dc:date>2024-05-22T04:49:39.420751</dc:date>
    <dc:format>image/svg+xml</dc:format>
    <dc:creator>
     <cc:Agent>
      <dc:title>Matplotlib v3.8.3, https://matplotlib.org/</dc:title>
     </cc:Agent>
    </dc:creator>
   </cc:Work>
  </rdf:RDF>
 </metadata>
 <defs>
  <style type="text/css">*{stroke-linejoin: round; stroke-linecap: butt}</style>
 </defs>
 <g id="figure_1">
  <g id="patch_1">
   <path d="M 0 576 
L 1440 576 
L 1440 0 
L 0 0 
z
" style="fill: #ffffff"/>
  </g>
  <g id="axes_1">
   <g id="patch_2">
    <path d="M 180 512.64 
L 1296 512.64 
L 1296 69.12 
L 180 69.12 
z
" style="fill: #ffffff"/>
   </g>
   <g id="matplotlib.axis_1">
    <g id="xtick_1">
     <g id="line2d_1">
      <defs>
       <path id="me7cb660573" d="M 0 0 
L 0 3.5 
" style="stroke: #000000; stroke-width: 0.8"/>
      </defs>
      <g>
       <use xlink:href="#me7cb660573" x="229.734567" y="512.64" style="stroke: #000000; stroke-width: 0.8"/>
      </g>
     </g>
     <g id="text_1">
      <!-- 0 -->
      <g transform="translate(226.553317 527.238438) scale(0.1 -0.1)">
       <defs>
        <path id="DejaVuSans-30" d="M 2034 4250 
Q 1547 4250 1301 3770 
Q 1056 3291 1056 2328 
Q 1056 1369 1301 889 
Q 1547 409 2034 409 
Q 2525 409 2770 889 
Q 3016 1369 3016 2328 
Q 3016 3291 2770 3770 
Q 2525 4250 2034 4250 
z
M 2034 4750 
Q 2819 4750 3233 4129 
Q 3647 3509 3647 2328 
Q 3647 1150 3233 529 
Q 2819 -91 2034 -91 
Q 1250 -91 836 529 
Q 422 1150 422 2328 
Q 422 3509 836 4129 
Q 1250 4750 2034 4750 
z
" transform="scale(0.015625)"/>
       </defs>
       <use xlink:href="#DejaVuSans-30"/>
      </g>
     </g>
    </g>
    <g id="xtick_2">
     <g id="line2d_2">
      <g>
       <use xlink:href="#me7cb660573" x="433.04074" y="512.64" style="stroke: #000000; stroke-width: 0.8"/>
      </g>
     </g>
     <g id="text_2">
      <!-- 500 -->
      <g transform="translate(423.49699 527.238438) scale(0.1 -0.1)">
       <defs>
        <path id="DejaVuSans-35" d="M 691 4666 
L 3169 4666 
L 3169 4134 
L 1269 4134 
L 1269 2991 
Q 1406 3038 1543 3061 
Q 1681 3084 1819 3084 
Q 2600 3084 3056 2656 
Q 3513 2228 3513 1497 
Q 3513 744 3044 326 
Q 2575 -91 1722 -91 
Q 1428 -91 1123 -41 
Q 819 9 494 109 
L 494 744 
Q 775 591 1075 516 
Q 1375 441 1709 441 
Q 2250 441 2565 725 
Q 2881 1009 2881 1497 
Q 2881 1984 2565 2268 
Q 2250 2553 1709 2553 
Q 1456 2553 1204 2497 
Q 953 2441 691 2322 
L 691 4666 
z
" transform="scale(0.015625)"/>
       </defs>
       <use xlink:href="#DejaVuSans-35"/>
       <use xlink:href="#DejaVuSans-30" x="63.623047"/>
       <use xlink:href="#DejaVuSans-30" x="127.246094"/>
      </g>
     </g>
    </g>
    <g id="xtick_3">
     <g id="line2d_3">
      <g>
       <use xlink:href="#me7cb660573" x="636.346913" y="512.64" style="stroke: #000000; stroke-width: 0.8"/>
      </g>
     </g>
     <g id="text_3">
      <!-- 1000 -->
      <g transform="translate(623.621913 527.238438) scale(0.1 -0.1)">
       <defs>
        <path id="DejaVuSans-31" d="M 794 531 
L 1825 531 
L 1825 4091 
L 703 3866 
L 703 4441 
L 1819 4666 
L 2450 4666 
L 2450 531 
L 3481 531 
L 3481 0 
L 794 0 
L 794 531 
z
" transform="scale(0.015625)"/>
       </defs>
       <use xlink:href="#DejaVuSans-31"/>
       <use xlink:href="#DejaVuSans-30" x="63.623047"/>
       <use xlink:href="#DejaVuSans-30" x="127.246094"/>
       <use xlink:href="#DejaVuSans-30" x="190.869141"/>
      </g>
     </g>
    </g>
    <g id="xtick_4">
     <g id="line2d_4">
      <g>
       <use xlink:href="#me7cb660573" x="839.653087" y="512.64" style="stroke: #000000; stroke-width: 0.8"/>
      </g>
     </g>
     <g id="text_4">
      <!-- 1500 -->
      <g transform="translate(826.928087 527.238438) scale(0.1 -0.1)">
       <use xlink:href="#DejaVuSans-31"/>
       <use xlink:href="#DejaVuSans-35" x="63.623047"/>
       <use xlink:href="#DejaVuSans-30" x="127.246094"/>
       <use xlink:href="#DejaVuSans-30" x="190.869141"/>
      </g>
     </g>
    </g>
    <g id="xtick_5">
     <g id="line2d_5">
      <g>
       <use xlink:href="#me7cb660573" x="1042.95926" y="512.64" style="stroke: #000000; stroke-width: 0.8"/>
      </g>
     </g>
     <g id="text_5">
      <!-- 2000 -->
      <g transform="translate(1030.23426 527.238438) scale(0.1 -0.1)">
       <defs>
        <path id="DejaVuSans-32" d="M 1228 531 
L 3431 531 
L 3431 0 
L 469 0 
L 469 531 
Q 828 903 1448 1529 
Q 2069 2156 2228 2338 
Q 2531 2678 2651 2914 
Q 2772 3150 2772 3378 
Q 2772 3750 2511 3984 
Q 2250 4219 1831 4219 
Q 1534 4219 1204 4116 
Q 875 4013 500 3803 
L 500 4441 
Q 881 4594 1212 4672 
Q 1544 4750 1819 4750 
Q 2544 4750 2975 4387 
Q 3406 4025 3406 3419 
Q 3406 3131 3298 2873 
Q 3191 2616 2906 2266 
Q 2828 2175 2409 1742 
Q 1991 1309 1228 531 
z
" transform="scale(0.015625)"/>
       </defs>
       <use xlink:href="#DejaVuSans-32"/>
       <use xlink:href="#DejaVuSans-30" x="63.623047"/>
       <use xlink:href="#DejaVuSans-30" x="127.246094"/>
       <use xlink:href="#DejaVuSans-30" x="190.869141"/>
      </g>
     </g>
    </g>
    <g id="xtick_6">
     <g id="line2d_6">
      <g>
       <use xlink:href="#me7cb660573" x="1246.265433" y="512.64" style="stroke: #000000; stroke-width: 0.8"/>
      </g>
     </g>
     <g id="text_6">
      <!-- 2500 -->
      <g transform="translate(1233.540433 527.238438) scale(0.1 -0.1)">
       <use xlink:href="#DejaVuSans-32"/>
       <use xlink:href="#DejaVuSans-35" x="63.623047"/>
       <use xlink:href="#DejaVuSans-30" x="127.246094"/>
       <use xlink:href="#DejaVuSans-30" x="190.869141"/>
      </g>
     </g>
    </g>
   </g>
   <g id="matplotlib.axis_2">
    <g id="ytick_1">
     <g id="line2d_7">
      <defs>
       <path id="mca0d454ac4" d="M 0 0 
L -3.5 0 
" style="stroke: #000000; stroke-width: 0.8"/>
      </defs>
      <g>
       <use xlink:href="#mca0d454ac4" x="180" y="488.814811" style="stroke: #000000; stroke-width: 0.8"/>
      </g>
     </g>
     <g id="text_7">
      <!-- −2 -->
      <g transform="translate(158.257812 492.61403) scale(0.1 -0.1)">
       <defs>
        <path id="DejaVuSans-2212" d="M 678 2272 
L 4684 2272 
L 4684 1741 
L 678 1741 
L 678 2272 
z
" transform="scale(0.015625)"/>
       </defs>
       <use xlink:href="#DejaVuSans-2212"/>
       <use xlink:href="#DejaVuSans-32" x="83.789062"/>
      </g>
     </g>
    </g>
    <g id="ytick_2">
     <g id="line2d_8">
      <g>
       <use xlink:href="#mca0d454ac4" x="180" y="419.354658" style="stroke: #000000; stroke-width: 0.8"/>
      </g>
     </g>
     <g id="text_8">
      <!-- −1 -->
      <g transform="translate(158.257812 423.153876) scale(0.1 -0.1)">
       <use xlink:href="#DejaVuSans-2212"/>
       <use xlink:href="#DejaVuSans-31" x="83.789062"/>
      </g>
     </g>
    </g>
    <g id="ytick_3">
     <g id="line2d_9">
      <g>
       <use xlink:href="#mca0d454ac4" x="180" y="349.894504" style="stroke: #000000; stroke-width: 0.8"/>
      </g>
     </g>
     <g id="text_9">
      <!-- 0 -->
      <g transform="translate(166.6375 353.693723) scale(0.1 -0.1)">
       <use xlink:href="#DejaVuSans-30"/>
      </g>
     </g>
    </g>
    <g id="ytick_4">
     <g id="line2d_10">
      <g>
       <use xlink:href="#mca0d454ac4" x="180" y="280.434351" style="stroke: #000000; stroke-width: 0.8"/>
      </g>
     </g>
     <g id="text_10">
      <!-- 1 -->
      <g transform="translate(166.6375 284.23357) scale(0.1 -0.1)">
       <use xlink:href="#DejaVuSans-31"/>
      </g>
     </g>
    </g>
    <g id="ytick_5">
     <g id="line2d_11">
      <g>
       <use xlink:href="#mca0d454ac4" x="180" y="210.974198" style="stroke: #000000; stroke-width: 0.8"/>
      </g>
     </g>
     <g id="text_11">
      <!-- 2 -->
      <g transform="translate(166.6375 214.773416) scale(0.1 -0.1)">
       <use xlink:href="#DejaVuSans-32"/>
      </g>
     </g>
    </g>
    <g id="ytick_6">
     <g id="line2d_12">
      <g>
       <use xlink:href="#mca0d454ac4" x="180" y="141.514044" style="stroke: #000000; stroke-width: 0.8"/>
      </g>
     </g>
     <g id="text_12">
      <!-- 3 -->
      <g transform="translate(166.6375 145.313263) scale(0.1 -0.1)">
       <defs>
        <path id="DejaVuSans-33" d="M 2597 2516 
Q 3050 2419 3304 2112 
Q 3559 1806 3559 1356 
Q 3559 666 3084 287 
Q 2609 -91 1734 -91 
Q 1441 -91 1130 -33 
Q 819 25 488 141 
L 488 750 
Q 750 597 1062 519 
Q 1375 441 1716 441 
Q 2309 441 2620 675 
Q 2931 909 2931 1356 
Q 2931 1769 2642 2001 
Q 2353 2234 1838 2234 
L 1294 2234 
L 1294 2753 
L 1863 2753 
Q 2328 2753 2575 2939 
Q 2822 3125 2822 3475 
Q 2822 3834 2567 4026 
Q 2313 4219 1838 4219 
Q 1578 4219 1281 4162 
Q 984 4106 628 3988 
L 628 4550 
Q 988 4650 1302 4700 
Q 1616 4750 1894 4750 
Q 2613 4750 3031 4423 
Q 3450 4097 3450 3541 
Q 3450 3153 3228 2886 
Q 3006 2619 2597 2516 
z
" transform="scale(0.015625)"/>
       </defs>
       <use xlink:href="#DejaVuSans-33"/>
      </g>
     </g>
    </g>
    <g id="ytick_7">
     <g id="line2d_13">
      <g>
       <use xlink:href="#mca0d454ac4" x="180" y="72.053891" style="stroke: #000000; stroke-width: 0.8"/>
      </g>
     </g>
     <g id="text_13">
      <!-- 4 -->
      <g transform="translate(166.6375 75.85311) scale(0.1 -0.1)">
       <defs>
        <path id="DejaVuSans-34" d="M 2419 4116 
L 825 1625 
L 2419 1625 
L 2419 4116 
z
M 2253 4666 
L 3047 4666 
L 3047 1625 
L 3713 1625 
L 3713 1100 
L 3047 1100 
L 3047 0 
L 2419 0 
L 2419 1100 
L 313 1100 
L 313 1709 
L 2253 4666 
z
" transform="scale(0.015625)"/>
       </defs>
       <use xlink:href="#DejaVuSans-34"/>
      </g>
     </g>
    </g>
   </g>
   <g id="line2d_14">
    <path d="M 230.727273 376.250907 
L 231.719979 375.736823 
L 232.712685 374.580035 
L 233.70539 373.058006 
L 234.698096 371.127167 
L 236.683508 366.13039 
L 237.676214 363.282594 
L 239.661626 356.311561 
L 241.647038 348.013972 
L 242.639744 343.068386 
L 244.625156 332.283069 
L 245.617862 328.512855 
L 246.610568 317.776329 
L 247.603273 293.373959 
L 248.595979 277.251918 
L 249.588685 293.812071 
L 250.581391 368.532619 
L 251.574097 229.73761 
L 252.566803 184.836689 
L 253.559509 171.941164 
L 254.552215 186.3229 
L 255.544921 236.860657 
L 256.537627 218.749093 
L 257.530333 192.417654 
L 258.523039 197.971557 
L 259.515745 195.534559 
L 260.50845 181.905221 
L 261.501156 191.02394 
L 262.493862 239.397931 
L 263.486568 300.221415 
L 264.479274 286.830488 
L 265.47198 310.831414 
L 266.464686 293.678629 
L 267.457392 256.748726 
L 268.450098 211.206472 
L 269.442804 200.081827 
L 271.428216 265.1763 
L 272.420922 221.259094 
L 273.413627 239.384242 
L 274.406333 353.517785 
L 275.399039 251.881129 
L 276.391745 196.712539 
L 277.384451 162.141205 
L 278.377157 157.86084 
L 279.369863 207.724816 
L 280.362569 170.958005 
L 281.355275 109.718178 
L 282.347981 89.28 
L 283.340687 94.648575 
L 284.333393 129.144269 
L 285.326099 218.743813 
L 286.318804 162.657003 
L 287.31151 136.162281 
L 288.304216 134.93008 
L 289.296922 149.969461 
L 290.289628 198.207571 
L 291.282334 262.40543 
L 292.27504 181.810716 
L 293.267746 177.444059 
L 294.260452 224.481915 
L 295.253158 314.185903 
L 296.245864 227.597906 
L 297.23857 229.752184 
L 298.231276 271.841435 
L 299.223981 293.705611 
L 300.216687 265.025096 
L 301.209393 268.673187 
L 302.202099 293.992153 
L 303.194805 314.713661 
L 304.187511 306.379668 
L 305.180217 284.909942 
L 306.172923 285.57847 
L 307.165629 306.147048 
L 308.158335 307.669657 
L 309.151041 292.768849 
L 310.143747 305.539519 
L 311.136453 321.490358 
L 312.129159 310.140369 
L 313.121864 315.107592 
L 314.11457 320.770179 
L 315.107276 318.530018 
L 316.099982 318.719904 
L 318.085394 325.404572 
L 319.0781 324.716005 
L 320.070806 326.15168 
L 321.063512 327.837042 
L 322.056218 327.731809 
L 324.04163 334.677171 
L 325.034336 335.182768 
L 326.027041 336.642484 
L 327.019747 334.304916 
L 328.012453 335.120178 
L 329.997865 343.695229 
L 330.990571 337.91883 
L 331.983277 345.264663 
L 332.975983 345.703485 
L 333.968689 344.853816 
L 334.961395 347.320119 
L 335.954101 347.88402 
L 336.946807 350.26834 
L 337.939513 353.403117 
L 338.932218 349.349148 
L 339.924924 351.342471 
L 340.91763 350.25533 
L 341.910336 353.850252 
L 342.903042 352.486473 
L 343.895748 353.675262 
L 344.888454 353.6347 
L 345.88116 359.046531 
L 346.873866 361.39561 
L 347.866572 359.435186 
L 348.859278 358.228052 
L 349.851984 359.175677 
L 350.84469 361.655417 
L 351.837395 363.024887 
L 352.830101 360.991795 
L 353.822807 359.853136 
L 354.815513 365.477183 
L 355.808219 362.032414 
L 356.800925 368.093329 
L 357.793631 365.069807 
L 358.786337 371.914905 
L 359.779043 369.214877 
L 360.771749 368.060086 
L 361.764455 373.809259 
L 362.757161 373.625401 
L 363.749867 369.688467 
L 364.742572 368.724733 
L 365.735278 374.026547 
L 366.727984 373.796092 
L 367.72069 379.185084 
L 368.713396 374.3322 
L 369.706102 378.517487 
L 370.698808 372.167179 
L 371.691514 375.656788 
L 372.68422 376.735306 
L 373.676926 376.084947 
L 374.669632 376.324231 
L 375.662338 382.673349 
L 376.655044 384.254567 
L 377.64775 379.679969 
L 378.640455 384.819694 
L 379.633161 380.765985 
L 380.625867 378.743279 
L 381.618573 378.891952 
L 382.611279 389.118226 
L 383.603985 380.305601 
L 384.596691 384.785787 
L 385.589397 381.777357 
L 386.582103 387.603296 
L 387.574809 392.53282 
L 388.567515 388.934097 
L 389.560221 386.125089 
L 390.552927 390.259381 
L 391.545632 386.219468 
L 392.538338 381.386396 
L 393.531044 387.360581 
L 394.52375 386.590248 
L 395.516456 388.342735 
L 396.509162 385.045876 
L 397.501868 393.808929 
L 398.494574 393.089925 
L 399.48728 390.411842 
L 400.479986 389.878499 
L 401.472692 394.889835 
L 402.465398 395.902603 
L 403.458104 392.716535 
L 405.443515 392.438382 
L 406.436221 394.879015 
L 407.428927 393.364906 
L 408.421633 392.564656 
L 409.414339 394.344484 
L 410.407045 394.797909 
L 411.399751 400.756328 
L 412.392457 402.792443 
L 413.385163 394.330483 
L 414.377869 396.952104 
L 415.370575 397.941374 
L 416.363281 398.516195 
L 417.355986 406.674106 
L 418.348692 405.147216 
L 419.341398 397.993555 
L 420.334104 401.746847 
L 421.32681 404.491608 
L 422.319516 404.385744 
L 423.312222 397.517822 
L 424.304928 396.34566 
L 425.297634 404.45524 
L 426.29034 406.412488 
L 427.283046 400.354654 
L 428.275752 405.135483 
L 429.268458 408.239741 
L 430.261163 413.230746 
L 431.253869 410.946221 
L 432.246575 405.988393 
L 433.239281 411.289753 
L 434.231987 405.370515 
L 435.224693 405.967329 
L 436.217399 409.003123 
L 437.210105 403.016648 
L 438.202811 408.063664 
L 439.195517 410.06634 
L 440.188223 411.481821 
L 441.180929 406.654866 
L 442.173635 406.783126 
L 443.166341 413.793802 
L 444.159046 415.846766 
L 445.151752 409.259477 
L 446.144458 406.297216 
L 447.137164 407.400618 
L 448.12987 411.715025 
L 449.122576 409.043842 
L 450.115282 413.698592 
L 451.107988 408.643734 
L 452.100694 409.450728 
L 453.0934 413.925881 
L 454.086106 410.228229 
L 455.078812 420.001539 
L 456.071518 411.083775 
L 457.064223 418.181269 
L 458.056929 414.825292 
L 459.049635 412.356535 
L 460.042341 412.284093 
L 462.027753 412.85854 
L 463.020459 409.703339 
L 464.013165 417.385742 
L 465.005871 411.217091 
L 465.998577 425.600703 
L 466.991283 413.868332 
L 467.983989 418.997173 
L 468.976695 415.110804 
L 469.9694 407.973488 
L 470.962106 428.17043 
L 471.954812 416.725758 
L 472.947518 418.388649 
L 473.940224 412.410192 
L 474.93293 421.988515 
L 475.925636 418.031182 
L 476.918342 421.027983 
L 477.911048 423.1524 
L 478.903754 422.844911 
L 479.89646 421.324939 
L 480.889166 411.448162 
L 481.881872 420.220776 
L 482.874577 427.577246 
L 483.867283 421.110232 
L 484.859989 427.937988 
L 485.852695 424.534692 
L 486.845401 422.525927 
L 487.838107 426.735534 
L 488.830813 428.599189 
L 489.823519 424.924504 
L 490.816225 424.96918 
L 491.808931 423.543165 
L 492.801637 419.789087 
L 493.794343 422.057961 
L 494.787049 423.790063 
L 495.779754 419.456083 
L 496.77246 420.3723 
L 497.765166 427.417689 
L 498.757872 424.028602 
L 499.750578 429.232544 
L 500.743284 433.65776 
L 501.73599 424.306573 
L 502.728696 428.867124 
L 503.721402 428.259502 
L 504.714108 423.276673 
L 505.706814 431.316127 
L 506.69952 424.789957 
L 507.692226 430.660462 
L 508.684932 424.781798 
L 509.677637 428.156082 
L 510.670343 446.028844 
L 511.663049 432.943195 
L 512.655755 425.918041 
L 513.648461 437.432674 
L 514.641167 423.715348 
L 515.633873 431.943738 
L 516.626579 434.791923 
L 517.619285 429.89755 
L 518.611991 437.477125 
L 519.604697 433.109966 
L 520.597403 424.053124 
L 521.590109 437.589963 
L 522.582814 435.514542 
L 523.57552 428.242609 
L 524.568226 437.156352 
L 525.560932 438.556816 
L 528.53905 425.272976 
L 529.531756 435.876102 
L 530.524462 434.999745 
L 531.517168 431.170432 
L 532.509874 432.987248 
L 533.50258 426.892253 
L 534.495286 436.948312 
L 535.487991 434.112747 
L 536.480697 446.480293 
L 537.473403 443.687548 
L 538.466109 430.910434 
L 540.451521 441.192724 
L 541.444227 442.796009 
L 542.436933 441.552358 
L 543.429639 434.600107 
L 544.422345 440.847437 
L 545.415051 436.958759 
L 546.407757 439.832668 
L 547.400463 435.492138 
L 548.393168 435.780508 
L 549.385874 441.250653 
L 550.37858 435.209503 
L 551.371286 440.39682 
L 552.363992 440.545116 
L 553.356698 454.052024 
L 555.34211 438.614837 
L 556.334816 440.216159 
L 557.327522 434.807067 
L 558.320228 425.857362 
L 559.312934 430.4872 
L 560.30564 437.438234 
L 561.298345 446.104477 
L 562.291051 441.855226 
L 563.283757 445.953875 
L 564.276463 439.924731 
L 565.269169 448.778725 
L 566.261875 435.257527 
L 567.254581 449.302427 
L 568.247287 457.209859 
L 569.239993 444.989758 
L 570.232699 449.818119 
L 571.225405 449.790096 
L 572.218111 439.942752 
L 573.210817 431.583176 
L 574.203523 436.582968 
L 575.196228 443.990464 
L 576.188934 447.34876 
L 577.18164 439.785526 
L 578.174346 440.577218 
L 579.167052 445.364514 
L 580.159758 443.381715 
L 581.152464 439.920441 
L 582.14517 433.410273 
L 583.137876 439.81661 
L 584.130582 451.431399 
L 585.123288 442.67584 
L 586.115994 448.4355 
L 587.1087 443.877074 
L 588.101405 455.268527 
L 589.094111 443.928848 
L 590.086817 440.68606 
L 591.079523 453.209761 
L 592.072229 448.472268 
L 593.064935 446.111395 
L 594.057641 446.327578 
L 595.050347 451.573656 
L 596.043053 448.191497 
L 597.035759 454.034215 
L 598.028465 443.124519 
L 599.021171 446.21777 
L 600.013877 447.264439 
L 601.006582 451.176153 
L 601.999288 443.036849 
L 602.991994 450.33565 
L 603.9847 446.202179 
L 604.977406 456.164781 
L 605.970112 448.346642 
L 606.962818 451.204428 
L 607.955524 447.393438 
L 608.94823 447.170604 
L 609.940936 446.189884 
L 610.933642 447.818012 
L 611.926348 452.869467 
L 612.919054 449.44599 
L 613.911759 446.491593 
L 614.904465 448.500294 
L 615.897171 449.123825 
L 617.882583 444.518064 
L 618.875289 451.317241 
L 619.867995 447.466752 
L 620.860701 452.97684 
L 621.853407 448.791139 
L 622.846113 449.163093 
L 623.838819 459.542372 
L 624.831525 450.740667 
L 625.824231 451.426575 
L 626.816936 447.314637 
L 627.809642 450.687141 
L 628.802348 451.125577 
L 629.795054 457.381466 
L 631.780466 452.421586 
L 632.773172 455.618224 
L 633.765878 457.972271 
L 634.758584 452.82395 
L 635.75129 451.928377 
L 636.743996 453.312565 
L 637.736702 451.103992 
L 638.729408 454.265339 
L 639.722114 447.985654 
L 640.714819 455.886047 
L 641.707525 453.491247 
L 642.700231 452.607026 
L 643.692937 455.115361 
L 644.685643 453.421221 
L 645.678349 454.535526 
L 646.671055 453.001474 
L 647.663761 454.76012 
L 648.656467 453.558562 
L 649.649173 456.926287 
L 650.641879 453.84069 
L 651.634585 452.335483 
L 652.627291 456.182269 
L 653.619996 455.837878 
L 654.612702 457.73103 
L 655.605408 455.414433 
L 656.598114 457.004631 
L 657.59082 458.849984 
L 658.583526 456.33147 
L 659.576232 455.97087 
L 660.568938 459.167913 
L 661.561644 456.632637 
L 662.55435 460.388712 
L 663.547056 456.368489 
L 664.539762 456.352316 
L 665.532468 459.982777 
L 666.525173 458.817762 
L 667.517879 457.466916 
L 668.510585 457.72836 
L 669.503291 458.461593 
L 670.495997 459.838483 
L 671.488703 456.093374 
L 672.481409 459.823016 
L 674.466821 460.878387 
L 675.459527 461.211562 
L 676.452233 460.677648 
L 677.444939 460.698845 
L 678.437645 458.454528 
L 679.43035 460.633469 
L 680.423056 460.474945 
L 681.415762 459.636056 
L 682.408468 460.589017 
L 683.401174 462.033305 
L 684.39388 459.716714 
L 685.386586 460.076321 
L 686.379292 460.848289 
L 688.364704 461.511184 
L 689.35741 461.248994 
L 690.350116 460.709839 
L 691.342822 461.696572 
L 692.335527 461.532851 
L 693.328233 460.149603 
L 694.320939 462.228731 
L 695.313645 461.906659 
L 696.306351 462.683787 
L 697.299057 462.912626 
L 698.291763 461.977313 
L 699.284469 463.08594 
L 700.277175 463.374665 
L 701.269881 462.668739 
L 702.262587 461.666823 
L 703.255293 463.606532 
L 704.247999 462.962672 
L 705.240705 463.200062 
L 706.23341 462.391067 
L 707.226116 463.007529 
L 708.218822 463.452085 
L 709.211528 462.461344 
L 710.204234 464.238728 
L 711.19694 463.800594 
L 712.189646 463.51026 
L 713.182352 464.311856 
L 714.175058 463.915045 
L 716.16047 464.325605 
L 717.153176 464.873861 
L 718.145882 464.188093 
L 719.138587 464.978802 
L 720.131293 464.651803 
L 721.123999 465.093985 
L 722.116705 465.229599 
L 723.109411 465.829525 
L 724.102117 465.829719 
L 725.094823 465.513417 
L 726.087529 467.002818 
L 727.080235 465.51601 
L 728.072941 465.759545 
L 729.065647 466.327278 
L 730.058353 466.590222 
L 731.051059 466.230789 
L 732.043764 467.102581 
L 734.029176 466.101484 
L 735.021882 466.579322 
L 736.014588 466.501258 
L 737.007294 466.657325 
L 738 467.045445 
L 738.992706 467.171911 
L 740.978118 467.873045 
L 741.970824 468.032436 
L 742.96353 467.276407 
L 743.956236 468.237235 
L 744.948941 467.852132 
L 745.941647 467.940521 
L 746.934353 467.915431 
L 747.927059 468.311461 
L 748.919765 468.979887 
L 749.912471 469.014891 
L 750.905177 468.298662 
L 751.897883 468.287568 
L 752.890589 469.051194 
L 753.883295 468.746501 
L 754.876001 468.204807 
L 755.868707 469.220459 
L 756.861413 468.844184 
L 757.854118 469.070318 
L 758.846824 468.89164 
L 759.83953 469.844688 
L 760.832236 469.871829 
L 761.824942 470.30298 
L 762.817648 469.841097 
L 763.810354 470.048759 
L 764.80306 469.700007 
L 765.795766 469.893375 
L 766.788472 470.289576 
L 767.781178 469.438534 
L 768.773884 470.35412 
L 769.76659 470.410148 
L 770.759295 469.869776 
L 771.752001 470.459016 
L 773.737413 470.752749 
L 774.730119 471.124712 
L 777.708237 471.276943 
L 778.700943 471.746678 
L 779.693649 470.919729 
L 780.686355 471.321679 
L 781.679061 470.581785 
L 782.671767 472.117025 
L 783.664473 471.822404 
L 784.657178 471.890542 
L 785.649884 471.841077 
L 786.64259 472.008011 
L 787.635296 472.381605 
L 788.628002 472.071546 
L 789.620708 472.433258 
L 790.613414 471.728167 
L 791.60612 472.226874 
L 792.598826 472.997068 
L 793.591532 472.457331 
L 794.584238 472.960209 
L 795.576944 472.787184 
L 796.56965 472.864679 
L 797.562355 472.807056 
L 798.555061 473.274774 
L 799.547767 473.290268 
L 800.540473 472.822876 
L 801.533179 473.276125 
L 802.525885 473.256691 
L 803.518591 474.026112 
L 804.511297 473.315398 
L 805.504003 473.667064 
L 806.496709 473.484307 
L 808.482121 474.526356 
L 809.474827 473.748772 
L 810.467532 473.411317 
L 811.460238 474.677678 
L 812.452944 474.801521 
L 813.44565 473.749441 
L 814.438356 475.009646 
L 815.431062 474.053787 
L 816.423768 474.683014 
L 817.416474 474.228639 
L 818.40918 474.586998 
L 819.401886 475.25689 
L 820.394592 475.510752 
L 821.387298 474.645548 
L 822.380004 475.735539 
L 823.372709 475.780037 
L 824.365415 475.255399 
L 825.358121 475.739366 
L 827.343533 475.235232 
L 828.336239 475.485684 
L 829.328945 476.58549 
L 830.321651 476.645748 
L 832.307063 475.6636 
L 833.299769 476.207955 
L 834.292475 476.448148 
L 835.285181 475.922409 
L 836.277886 476.621468 
L 837.270592 476.541416 
L 838.263298 475.99684 
L 839.256004 477.168317 
L 840.24871 477.116031 
L 841.241416 477.452543 
L 842.234122 476.819334 
L 843.226828 475.755174 
L 844.219534 476.786695 
L 845.21224 477.26732 
L 846.204946 476.780372 
L 847.197652 477.207517 
L 848.190358 477.114824 
L 849.183064 476.685447 
L 850.175769 477.822935 
L 851.168475 477.767325 
L 852.161181 478.295515 
L 853.153887 477.004524 
L 854.146593 477.551278 
L 855.139299 477.780082 
L 856.132005 478.263533 
L 857.124711 478.383589 
L 858.117417 477.275609 
L 859.110123 477.882349 
L 860.102829 478.236472 
L 861.095535 477.994915 
L 862.088241 478.358069 
L 863.080946 477.725537 
L 864.073652 478.325427 
L 865.066358 478.056418 
L 866.059064 478.976551 
L 867.05177 479.294525 
L 868.044476 478.848024 
L 869.037182 479.030645 
L 870.029888 479.330763 
L 871.022594 479.093073 
L 872.0153 479.333258 
L 873.008006 479.115182 
L 874.000712 479.384809 
L 874.993418 479.062908 
L 875.986123 479.700484 
L 877.971535 478.783868 
L 878.964241 479.171218 
L 879.956947 480.183631 
L 880.949653 480.019293 
L 881.942359 480.152448 
L 882.935065 479.340097 
L 883.927771 480.420016 
L 884.920477 479.810721 
L 885.913183 479.64664 
L 886.905889 480.262047 
L 887.898595 479.787716 
L 888.8913 480.180007 
L 890.876712 480.41018 
L 891.869418 481.018607 
L 892.862124 480.102188 
L 893.85483 480.8556 
L 894.847536 480.342644 
L 895.840242 480.707578 
L 896.832948 481.343655 
L 897.825654 481.053307 
L 898.81836 480.537337 
L 899.811066 481.237854 
L 900.803772 480.736016 
L 901.796477 481.41386 
L 902.789183 481.608991 
L 903.781889 481.46519 
L 904.774595 480.976697 
L 905.767301 481.609163 
L 907.752713 481.065359 
L 908.745419 481.247378 
L 909.738125 481.644854 
L 910.730831 482.188259 
L 911.723537 481.924787 
L 912.716243 481.807768 
L 913.708949 481.890602 
L 915.69436 482.420508 
L 916.687066 481.988474 
L 917.679772 481.353826 
L 918.672478 482.041786 
L 919.665184 482.507062 
L 920.65789 482.186406 
L 921.650596 482.035201 
L 922.643302 483.059106 
L 923.636008 482.949955 
L 924.628714 481.666075 
L 925.62142 483.250777 
L 927.606832 481.802139 
L 928.599537 482.728981 
L 930.584949 483.089236 
L 931.577655 483.864437 
L 932.570361 483.346599 
L 933.563067 483.198595 
L 935.548479 483.567245 
L 936.541185 483.115294 
L 937.533891 483.858857 
L 938.526597 483.157644 
L 939.519303 482.795924 
L 940.512009 483.637616 
L 941.504714 483.550778 
L 942.49742 483.062943 
L 943.490126 483.433555 
L 944.482832 483.087011 
L 947.46095 483.83203 
L 948.453656 483.946718 
L 949.446362 483.876019 
L 950.439068 484.286938 
L 951.431774 484.35563 
L 952.42448 483.411183 
L 953.417186 484.194851 
L 954.409891 484.105534 
L 955.402597 483.567991 
L 956.395303 484.033515 
L 957.388009 484.313672 
L 958.380715 484.121291 
L 959.373421 484.334848 
L 960.366127 485.066196 
L 961.358833 484.648908 
L 962.351539 484.462106 
L 963.344245 484.787514 
L 965.329657 484.536843 
L 966.322363 485.381186 
L 967.315068 484.681734 
L 968.307774 484.977221 
L 969.30048 484.611272 
L 970.293186 485.366103 
L 971.285892 485.345008 
L 972.278598 485.925133 
L 973.271304 485.257649 
L 974.26401 484.305002 
L 975.256716 485.926677 
L 976.249422 484.748157 
L 977.242128 485.460354 
L 978.234834 485.081285 
L 979.22754 485.020541 
L 980.220246 485.915323 
L 981.212951 485.443075 
L 982.205657 486.142026 
L 983.198363 486.232649 
L 984.191069 485.612729 
L 985.183775 485.597443 
L 986.176481 485.931673 
L 987.169187 485.222675 
L 988.161893 485.855984 
L 989.154599 486.694232 
L 990.147305 485.69396 
L 991.140011 485.569348 
L 992.132717 485.57755 
L 993.125423 486.186009 
L 994.118128 486.284545 
L 995.110834 485.962549 
L 996.10354 486.426546 
L 997.096246 485.647389 
L 998.088952 486.720512 
L 999.081658 486.410771 
L 1001.06707 486.498453 
L 1002.059776 486.314163 
L 1003.052482 485.670119 
L 1004.045188 486.991484 
L 1005.037894 486.748193 
L 1006.0306 486.794774 
L 1007.023305 486.403058 
L 1008.016011 486.377718 
L 1010.001423 487.691307 
L 1010.994129 487.036246 
L 1011.986835 487.354277 
L 1012.979541 487.827841 
L 1013.972247 487.037764 
L 1014.964953 487.102713 
L 1015.957659 487.639231 
L 1016.950365 486.87225 
L 1017.943071 487.924823 
L 1018.935777 486.897514 
L 1019.928482 487.077677 
L 1020.921188 486.87681 
L 1022.9066 486.970724 
L 1023.899306 487.397829 
L 1026.877424 487.731704 
L 1027.87013 486.889064 
L 1028.862836 487.916699 
L 1029.855542 487.186344 
L 1030.848248 487.43967 
L 1031.840954 488.380792 
L 1033.826365 487.67021 
L 1034.819071 487.920187 
L 1035.811777 486.835482 
L 1036.804483 488.145152 
L 1037.797189 487.665045 
L 1039.782601 487.853704 
L 1040.775307 487.524454 
L 1041.768013 488.348738 
L 1042.760719 487.601805 
L 1044.746131 488.065509 
L 1045.738837 488.182129 
L 1051.695072 488.019763 
L 1052.687778 488.786176 
L 1053.680484 488.711804 
L 1054.67319 488.891427 
L 1055.665896 488.397804 
L 1056.658602 488.50558 
L 1057.651308 489.313484 
L 1058.644014 488.875883 
L 1059.636719 489.289354 
L 1060.629425 488.102316 
L 1061.622131 488.940562 
L 1062.614837 489.015144 
L 1063.607543 488.528185 
L 1064.600249 489.390965 
L 1065.592955 488.118381 
L 1066.585661 489.007961 
L 1067.578367 488.236463 
L 1068.571073 489.527953 
L 1069.563779 488.942103 
L 1071.549191 488.643952 
L 1073.534602 489.62238 
L 1074.527308 488.641112 
L 1075.520014 490.060281 
L 1076.51272 488.979712 
L 1077.505426 488.979996 
L 1078.498132 488.560184 
L 1079.490838 488.871603 
L 1080.483544 489.575384 
L 1081.47625 488.918323 
L 1082.468956 489.404746 
L 1083.461662 489.551357 
L 1084.454368 489.090845 
L 1085.447073 489.446329 
L 1086.439779 489.262068 
L 1087.432485 489.937073 
L 1088.425191 489.544367 
L 1090.410603 489.721382 
L 1091.403309 490.22606 
L 1092.396015 489.542556 
L 1093.388721 489.90033 
L 1094.381427 489.061345 
L 1095.374133 489.685477 
L 1096.366839 489.492634 
L 1097.359545 489.702074 
L 1098.35225 489.54653 
L 1099.344956 489.721407 
L 1100.337662 489.340992 
L 1102.323074 489.363703 
L 1103.31578 490.244492 
L 1105.301192 489.982701 
L 1106.293898 489.976287 
L 1107.286604 490.131302 
L 1108.27931 489.405251 
L 1110.264722 490.598962 
L 1111.257428 490.792271 
L 1112.250133 490.205976 
L 1113.242839 490.732537 
L 1114.235545 490.508208 
L 1115.228251 489.905506 
L 1116.220957 490.295766 
L 1118.206369 489.923399 
L 1119.199075 490.043358 
L 1120.191781 489.491445 
L 1121.184487 489.991761 
L 1122.177193 490.806862 
L 1123.169899 489.809198 
L 1124.162605 490.216318 
L 1125.15531 490.351803 
L 1126.148016 490.212947 
L 1127.140722 491.034973 
L 1128.133428 489.929495 
L 1129.126134 490.974599 
L 1130.11884 490.755281 
L 1131.111546 490.342933 
L 1132.104252 490.969667 
L 1133.096958 489.926226 
L 1135.08237 490.627901 
L 1136.075076 490.616294 
L 1137.067782 490.33183 
L 1138.060487 490.349434 
L 1140.045899 491.455135 
L 1141.038605 490.172812 
L 1142.031311 490.39684 
L 1143.024017 490.322203 
L 1145.009429 491.039205 
L 1146.002135 490.951828 
L 1146.994841 490.429787 
L 1147.987547 491.040659 
L 1149.972959 490.675712 
L 1151.95837 491.356628 
L 1152.951076 490.571945 
L 1153.943782 490.637662 
L 1154.936488 490.172475 
L 1155.929194 491.414462 
L 1156.9219 491.024546 
L 1157.914606 490.882402 
L 1158.907312 490.881784 
L 1159.900018 490.281337 
L 1160.892724 490.330999 
L 1162.878136 491.382485 
L 1163.870841 490.778536 
L 1164.863547 491.097624 
L 1165.856253 490.612269 
L 1166.848959 491.390027 
L 1167.841665 491.551624 
L 1168.834371 490.942781 
L 1169.827077 490.787032 
L 1170.819783 491.273348 
L 1172.805195 491.294044 
L 1173.797901 491.916545 
L 1174.790607 491.142817 
L 1177.768724 491.130636 
L 1178.76143 491.285312 
L 1179.754136 491.044019 
L 1180.746842 491.269149 
L 1181.739548 491.007878 
L 1182.732254 490.926712 
L 1183.72496 491.200507 
L 1184.717666 491.811934 
L 1185.710372 491.650052 
L 1186.703078 490.574072 
L 1187.695784 490.99204 
L 1188.68849 490.895275 
L 1189.681196 491.348663 
L 1191.666607 490.943107 
L 1192.659313 491.816673 
L 1193.652019 491.987836 
L 1194.644725 491.439037 
L 1195.637431 491.359055 
L 1196.630137 491.836569 
L 1198.615549 491.432532 
L 1199.608255 491.519257 
L 1200.600961 490.652042 
L 1201.593667 491.788978 
L 1202.586373 491.590637 
L 1203.579078 491.576823 
L 1204.571784 491.26267 
L 1205.56449 491.628612 
L 1206.557196 491.075193 
L 1207.549902 491.427648 
L 1208.542608 491.450838 
L 1209.535314 491.820334 
L 1210.52802 491.759384 
L 1211.520726 491.301144 
L 1212.513432 491.755315 
L 1213.506138 490.895228 
L 1214.498844 491.42033 
L 1215.49155 491.508705 
L 1216.484255 491.276104 
L 1217.476961 492.305639 
L 1218.469667 491.672751 
L 1219.462373 490.335997 
L 1220.455079 491.91958 
L 1221.447785 491.989101 
L 1222.440491 491.852758 
L 1223.433197 491.10538 
L 1224.425903 491.394085 
L 1225.418609 492.177133 
L 1226.411315 491.366641 
L 1227.404021 491.117704 
L 1229.389432 491.571753 
L 1230.382138 491.127324 
L 1231.374844 492.307035 
L 1232.36755 491.783809 
L 1233.360256 492.48 
L 1234.352962 491.503589 
L 1235.345668 491.540951 
L 1236.338374 492.395037 
L 1237.33108 491.91852 
L 1239.316492 491.373826 
L 1240.309198 491.486691 
L 1241.301904 490.886029 
L 1242.29461 491.809365 
L 1243.287315 491.647136 
L 1244.280021 491.130443 
L 1245.272727 491.401187 
L 1245.272727 491.401187 
" clip-path="url(#p1234005395)" style="fill: none; stroke: #1f77b4; stroke-width: 1.5; stroke-linecap: square"/>
   </g>
   <g id="patch_3">
    <path d="M 180 512.64 
L 180 69.12 
" style="fill: none; stroke: #000000; stroke-width: 0.8; stroke-linejoin: miter; stroke-linecap: square"/>
   </g>
   <g id="patch_4">
    <path d="M 1296 512.64 
L 1296 69.12 
" style="fill: none; stroke: #000000; stroke-width: 0.8; stroke-linejoin: miter; stroke-linecap: square"/>
   </g>
   <g id="patch_5">
    <path d="M 180 512.64 
L 1296 512.64 
" style="fill: none; stroke: #000000; stroke-width: 0.8; stroke-linejoin: miter; stroke-linecap: square"/>
   </g>
   <g id="patch_6">
    <path d="M 180 69.12 
L 1296 69.12 
" style="fill: none; stroke: #000000; stroke-width: 0.8; stroke-linejoin: miter; stroke-linecap: square"/>
   </g>
   <g id="text_14">
    <!-- source1-receiver14 -->
    <g transform="translate(544.9 60.80125) scale(0.4 -0.4)">
     <defs>
      <path id="DejaVuSans-73" d="M 2834 3397 
L 2834 2853 
Q 2591 2978 2328 3040 
Q 2066 3103 1784 3103 
Q 1356 3103 1142 2972 
Q 928 2841 928 2578 
Q 928 2378 1081 2264 
Q 1234 2150 1697 2047 
L 1894 2003 
Q 2506 1872 2764 1633 
Q 3022 1394 3022 966 
Q 3022 478 2636 193 
Q 2250 -91 1575 -91 
Q 1294 -91 989 -36 
Q 684 19 347 128 
L 347 722 
Q 666 556 975 473 
Q 1284 391 1588 391 
Q 1994 391 2212 530 
Q 2431 669 2431 922 
Q 2431 1156 2273 1281 
Q 2116 1406 1581 1522 
L 1381 1569 
Q 847 1681 609 1914 
Q 372 2147 372 2553 
Q 372 3047 722 3315 
Q 1072 3584 1716 3584 
Q 2034 3584 2315 3537 
Q 2597 3491 2834 3397 
z
" transform="scale(0.015625)"/>
      <path id="DejaVuSans-6f" d="M 1959 3097 
Q 1497 3097 1228 2736 
Q 959 2375 959 1747 
Q 959 1119 1226 758 
Q 1494 397 1959 397 
Q 2419 397 2687 759 
Q 2956 1122 2956 1747 
Q 2956 2369 2687 2733 
Q 2419 3097 1959 3097 
z
M 1959 3584 
Q 2709 3584 3137 3096 
Q 3566 2609 3566 1747 
Q 3566 888 3137 398 
Q 2709 -91 1959 -91 
Q 1206 -91 779 398 
Q 353 888 353 1747 
Q 353 2609 779 3096 
Q 1206 3584 1959 3584 
z
" transform="scale(0.015625)"/>
      <path id="DejaVuSans-75" d="M 544 1381 
L 544 3500 
L 1119 3500 
L 1119 1403 
Q 1119 906 1312 657 
Q 1506 409 1894 409 
Q 2359 409 2629 706 
Q 2900 1003 2900 1516 
L 2900 3500 
L 3475 3500 
L 3475 0 
L 2900 0 
L 2900 538 
Q 2691 219 2414 64 
Q 2138 -91 1772 -91 
Q 1169 -91 856 284 
Q 544 659 544 1381 
z
M 1991 3584 
L 1991 3584 
z
" transform="scale(0.015625)"/>
      <path id="DejaVuSans-72" d="M 2631 2963 
Q 2534 3019 2420 3045 
Q 2306 3072 2169 3072 
Q 1681 3072 1420 2755 
Q 1159 2438 1159 1844 
L 1159 0 
L 581 0 
L 581 3500 
L 1159 3500 
L 1159 2956 
Q 1341 3275 1631 3429 
Q 1922 3584 2338 3584 
Q 2397 3584 2469 3576 
Q 2541 3569 2628 3553 
L 2631 2963 
z
" transform="scale(0.015625)"/>
      <path id="DejaVuSans-63" d="M 3122 3366 
L 3122 2828 
Q 2878 2963 2633 3030 
Q 2388 3097 2138 3097 
Q 1578 3097 1268 2742 
Q 959 2388 959 1747 
Q 959 1106 1268 751 
Q 1578 397 2138 397 
Q 2388 397 2633 464 
Q 2878 531 3122 666 
L 3122 134 
Q 2881 22 2623 -34 
Q 2366 -91 2075 -91 
Q 1284 -91 818 406 
Q 353 903 353 1747 
Q 353 2603 823 3093 
Q 1294 3584 2113 3584 
Q 2378 3584 2631 3529 
Q 2884 3475 3122 3366 
z
" transform="scale(0.015625)"/>
      <path id="DejaVuSans-65" d="M 3597 1894 
L 3597 1613 
L 953 1613 
Q 991 1019 1311 708 
Q 1631 397 2203 397 
Q 2534 397 2845 478 
Q 3156 559 3463 722 
L 3463 178 
Q 3153 47 2828 -22 
Q 2503 -91 2169 -91 
Q 1331 -91 842 396 
Q 353 884 353 1716 
Q 353 2575 817 3079 
Q 1281 3584 2069 3584 
Q 2775 3584 3186 3129 
Q 3597 2675 3597 1894 
z
M 3022 2063 
Q 3016 2534 2758 2815 
Q 2500 3097 2075 3097 
Q 1594 3097 1305 2825 
Q 1016 2553 972 2059 
L 3022 2063 
z
" transform="scale(0.015625)"/>
      <path id="DejaVuSans-2d" d="M 313 2009 
L 1997 2009 
L 1997 1497 
L 313 1497 
L 313 2009 
z
" transform="scale(0.015625)"/>
      <path id="DejaVuSans-69" d="M 603 3500 
L 1178 3500 
L 1178 0 
L 603 0 
L 603 3500 
z
M 603 4863 
L 1178 4863 
L 1178 4134 
L 603 4134 
L 603 4863 
z
" transform="scale(0.015625)"/>
      <path id="DejaVuSans-76" d="M 191 3500 
L 800 3500 
L 1894 563 
L 2988 3500 
L 3597 3500 
L 2284 0 
L 1503 0 
L 191 3500 
z
" transform="scale(0.015625)"/>
     </defs>
     <use xlink:href="#DejaVuSans-73"/>
     <use xlink:href="#DejaVuSans-6f" x="52.099609"/>
     <use xlink:href="#DejaVuSans-75" x="113.28125"/>
     <use xlink:href="#DejaVuSans-72" x="176.660156"/>
     <use xlink:href="#DejaVuSans-63" x="215.523438"/>
     <use xlink:href="#DejaVuSans-65" x="270.503906"/>
     <use xlink:href="#DejaVuSans-31" x="332.027344"/>
     <use xlink:href="#DejaVuSans-2d" x="395.650391"/>
     <use xlink:href="#DejaVuSans-72" x="431.734375"/>
     <use xlink:href="#DejaVuSans-65" x="470.597656"/>
     <use xlink:href="#DejaVuSans-63" x="532.121094"/>
     <use xlink:href="#DejaVuSans-65" x="587.101562"/>
     <use xlink:href="#DejaVuSans-69" x="648.625"/>
     <use xlink:href="#DejaVuSans-76" x="676.408203"/>
     <use xlink:href="#DejaVuSans-65" x="735.587891"/>
     <use xlink:href="#DejaVuSans-72" x="797.111328"/>
     <use xlink:href="#DejaVuSans-31" x="838.224609"/>
     <use xlink:href="#DejaVuSans-34" x="901.847656"/>
    </g>
   </g>
  </g>
 </g>
 <defs>
  <clipPath id="p1234005395">
   <rect x="180" y="69.12" width="1116" height="443.52"/>
  </clipPath>
 </defs>
</svg>
