<?xml version="1.0" encoding="utf-8" standalone="no"?>
<!DOCTYPE svg PUBLIC "-//W3C//DTD SVG 1.1//EN"
  "http://www.w3.org/Graphics/SVG/1.1/DTD/svg11.dtd">
<svg xmlns:xlink="http://www.w3.org/1999/xlink" width="1440pt" height="576pt" viewBox="0 0 1440 576" xmlns="http://www.w3.org/2000/svg" version="1.1">
 <metadata>
  <rdf:RDF xmlns:dc="http://purl.org/dc/elements/1.1/" xmlns:cc="http://creativecommons.org/ns#" xmlns:rdf="http://www.w3.org/1999/02/22-rdf-syntax-ns#">
   <cc:Work>
    <dc:type rdf:resource="http://purl.org/dc/dcmitype/StillImage"/>
    <dc:date>2024-05-22T04:49:39.667091</dc:date>
    <dc:format>image/svg+xml</dc:format>
    <dc:creator>
     <cc:Agent>
      <dc:title>Matplotlib v3.8.3, https://matplotlib.org/</dc:title>
     </cc:Agent>
    </dc:creator>
   </cc:Work>
  </rdf:RDF>
 </metadata>
 <defs>
  <style type="text/css">*{stroke-linejoin: round; stroke-linecap: butt}</style>
 </defs>
 <g id="figure_1">
  <g id="patch_1">
   <path d="M 0 576 
L 1440 576 
L 1440 0 
L 0 0 
z
" style="fill: #ffffff"/>
  </g>
  <g id="axes_1">
   <g id="patch_2">
    <path d="M 180 512.64 
L 1296 512.64 
L 1296 69.12 
L 180 69.12 
z
" style="fill: #ffffff"/>
   </g>
   <g id="matplotlib.axis_1">
    <g id="xtick_1">
     <g id="line2d_1">
      <defs>
       <path id="mbf2e70a68f" d="M 0 0 
L 0 3.5 
" style="stroke: #000000; stroke-width: 0.8"/>
      </defs>
      <g>
       <use xlink:href="#mbf2e70a68f" x="229.734567" y="512.64" style="stroke: #000000; stroke-width: 0.8"/>
      </g>
     </g>
     <g id="text_1">
      <!-- 0 -->
      <g transform="translate(226.553317 527.238438) scale(0.1 -0.1)">
       <defs>
        <path id="DejaVuSans-30" d="M 2034 4250 
Q 1547 4250 1301 3770 
Q 1056 3291 1056 2328 
Q 1056 1369 1301 889 
Q 1547 409 2034 409 
Q 2525 409 2770 889 
Q 3016 1369 3016 2328 
Q 3016 3291 2770 3770 
Q 2525 4250 2034 4250 
z
M 2034 4750 
Q 2819 4750 3233 4129 
Q 3647 3509 3647 2328 
Q 3647 1150 3233 529 
Q 2819 -91 2034 -91 
Q 1250 -91 836 529 
Q 422 1150 422 2328 
Q 422 3509 836 4129 
Q 1250 4750 2034 4750 
z
" transform="scale(0.015625)"/>
       </defs>
       <use xlink:href="#DejaVuSans-30"/>
      </g>
     </g>
    </g>
    <g id="xtick_2">
     <g id="line2d_2">
      <g>
       <use xlink:href="#mbf2e70a68f" x="433.04074" y="512.64" style="stroke: #000000; stroke-width: 0.8"/>
      </g>
     </g>
     <g id="text_2">
      <!-- 500 -->
      <g transform="translate(423.49699 527.238438) scale(0.1 -0.1)">
       <defs>
        <path id="DejaVuSans-35" d="M 691 4666 
L 3169 4666 
L 3169 4134 
L 1269 4134 
L 1269 2991 
Q 1406 3038 1543 3061 
Q 1681 3084 1819 3084 
Q 2600 3084 3056 2656 
Q 3513 2228 3513 1497 
Q 3513 744 3044 326 
Q 2575 -91 1722 -91 
Q 1428 -91 1123 -41 
Q 819 9 494 109 
L 494 744 
Q 775 591 1075 516 
Q 1375 441 1709 441 
Q 2250 441 2565 725 
Q 2881 1009 2881 1497 
Q 2881 1984 2565 2268 
Q 2250 2553 1709 2553 
Q 1456 2553 1204 2497 
Q 953 2441 691 2322 
L 691 4666 
z
" transform="scale(0.015625)"/>
       </defs>
       <use xlink:href="#DejaVuSans-35"/>
       <use xlink:href="#DejaVuSans-30" x="63.623047"/>
       <use xlink:href="#DejaVuSans-30" x="127.246094"/>
      </g>
     </g>
    </g>
    <g id="xtick_3">
     <g id="line2d_3">
      <g>
       <use xlink:href="#mbf2e70a68f" x="636.346913" y="512.64" style="stroke: #000000; stroke-width: 0.8"/>
      </g>
     </g>
     <g id="text_3">
      <!-- 1000 -->
      <g transform="translate(623.621913 527.238438) scale(0.1 -0.1)">
       <defs>
        <path id="DejaVuSans-31" d="M 794 531 
L 1825 531 
L 1825 4091 
L 703 3866 
L 703 4441 
L 1819 4666 
L 2450 4666 
L 2450 531 
L 3481 531 
L 3481 0 
L 794 0 
L 794 531 
z
" transform="scale(0.015625)"/>
       </defs>
       <use xlink:href="#DejaVuSans-31"/>
       <use xlink:href="#DejaVuSans-30" x="63.623047"/>
       <use xlink:href="#DejaVuSans-30" x="127.246094"/>
       <use xlink:href="#DejaVuSans-30" x="190.869141"/>
      </g>
     </g>
    </g>
    <g id="xtick_4">
     <g id="line2d_4">
      <g>
       <use xlink:href="#mbf2e70a68f" x="839.653087" y="512.64" style="stroke: #000000; stroke-width: 0.8"/>
      </g>
     </g>
     <g id="text_4">
      <!-- 1500 -->
      <g transform="translate(826.928087 527.238438) scale(0.1 -0.1)">
       <use xlink:href="#DejaVuSans-31"/>
       <use xlink:href="#DejaVuSans-35" x="63.623047"/>
       <use xlink:href="#DejaVuSans-30" x="127.246094"/>
       <use xlink:href="#DejaVuSans-30" x="190.869141"/>
      </g>
     </g>
    </g>
    <g id="xtick_5">
     <g id="line2d_5">
      <g>
       <use xlink:href="#mbf2e70a68f" x="1042.95926" y="512.64" style="stroke: #000000; stroke-width: 0.8"/>
      </g>
     </g>
     <g id="text_5">
      <!-- 2000 -->
      <g transform="translate(1030.23426 527.238438) scale(0.1 -0.1)">
       <defs>
        <path id="DejaVuSans-32" d="M 1228 531 
L 3431 531 
L 3431 0 
L 469 0 
L 469 531 
Q 828 903 1448 1529 
Q 2069 2156 2228 2338 
Q 2531 2678 2651 2914 
Q 2772 3150 2772 3378 
Q 2772 3750 2511 3984 
Q 2250 4219 1831 4219 
Q 1534 4219 1204 4116 
Q 875 4013 500 3803 
L 500 4441 
Q 881 4594 1212 4672 
Q 1544 4750 1819 4750 
Q 2544 4750 2975 4387 
Q 3406 4025 3406 3419 
Q 3406 3131 3298 2873 
Q 3191 2616 2906 2266 
Q 2828 2175 2409 1742 
Q 1991 1309 1228 531 
z
" transform="scale(0.015625)"/>
       </defs>
       <use xlink:href="#DejaVuSans-32"/>
       <use xlink:href="#DejaVuSans-30" x="63.623047"/>
       <use xlink:href="#DejaVuSans-30" x="127.246094"/>
       <use xlink:href="#DejaVuSans-30" x="190.869141"/>
      </g>
     </g>
    </g>
    <g id="xtick_6">
     <g id="line2d_6">
      <g>
       <use xlink:href="#mbf2e70a68f" x="1246.265433" y="512.64" style="stroke: #000000; stroke-width: 0.8"/>
      </g>
     </g>
     <g id="text_6">
      <!-- 2500 -->
      <g transform="translate(1233.540433 527.238438) scale(0.1 -0.1)">
       <use xlink:href="#DejaVuSans-32"/>
       <use xlink:href="#DejaVuSans-35" x="63.623047"/>
       <use xlink:href="#DejaVuSans-30" x="127.246094"/>
       <use xlink:href="#DejaVuSans-30" x="190.869141"/>
      </g>
     </g>
    </g>
   </g>
   <g id="matplotlib.axis_2">
    <g id="ytick_1">
     <g id="line2d_7">
      <defs>
       <path id="m823a3489e3" d="M 0 0 
L -3.5 0 
" style="stroke: #000000; stroke-width: 0.8"/>
      </defs>
      <g>
       <use xlink:href="#m823a3489e3" x="180" y="477.396587" style="stroke: #000000; stroke-width: 0.8"/>
      </g>
     </g>
     <g id="text_7">
      <!-- −2 -->
      <g transform="translate(158.257812 481.195806) scale(0.1 -0.1)">
       <defs>
        <path id="DejaVuSans-2212" d="M 678 2272 
L 4684 2272 
L 4684 1741 
L 678 1741 
L 678 2272 
z
" transform="scale(0.015625)"/>
       </defs>
       <use xlink:href="#DejaVuSans-2212"/>
       <use xlink:href="#DejaVuSans-32" x="83.789062"/>
      </g>
     </g>
    </g>
    <g id="ytick_2">
     <g id="line2d_8">
      <g>
       <use xlink:href="#m823a3489e3" x="180" y="419.45735" style="stroke: #000000; stroke-width: 0.8"/>
      </g>
     </g>
     <g id="text_8">
      <!-- −1 -->
      <g transform="translate(158.257812 423.256569) scale(0.1 -0.1)">
       <use xlink:href="#DejaVuSans-2212"/>
       <use xlink:href="#DejaVuSans-31" x="83.789062"/>
      </g>
     </g>
    </g>
    <g id="ytick_3">
     <g id="line2d_9">
      <g>
       <use xlink:href="#m823a3489e3" x="180" y="361.518113" style="stroke: #000000; stroke-width: 0.8"/>
      </g>
     </g>
     <g id="text_9">
      <!-- 0 -->
      <g transform="translate(166.6375 365.317332) scale(0.1 -0.1)">
       <use xlink:href="#DejaVuSans-30"/>
      </g>
     </g>
    </g>
    <g id="ytick_4">
     <g id="line2d_10">
      <g>
       <use xlink:href="#m823a3489e3" x="180" y="303.578876" style="stroke: #000000; stroke-width: 0.8"/>
      </g>
     </g>
     <g id="text_10">
      <!-- 1 -->
      <g transform="translate(166.6375 307.378095) scale(0.1 -0.1)">
       <use xlink:href="#DejaVuSans-31"/>
      </g>
     </g>
    </g>
    <g id="ytick_5">
     <g id="line2d_11">
      <g>
       <use xlink:href="#m823a3489e3" x="180" y="245.639639" style="stroke: #000000; stroke-width: 0.8"/>
      </g>
     </g>
     <g id="text_11">
      <!-- 2 -->
      <g transform="translate(166.6375 249.438858) scale(0.1 -0.1)">
       <use xlink:href="#DejaVuSans-32"/>
      </g>
     </g>
    </g>
    <g id="ytick_6">
     <g id="line2d_12">
      <g>
       <use xlink:href="#m823a3489e3" x="180" y="187.700402" style="stroke: #000000; stroke-width: 0.8"/>
      </g>
     </g>
     <g id="text_12">
      <!-- 3 -->
      <g transform="translate(166.6375 191.499621) scale(0.1 -0.1)">
       <defs>
        <path id="DejaVuSans-33" d="M 2597 2516 
Q 3050 2419 3304 2112 
Q 3559 1806 3559 1356 
Q 3559 666 3084 287 
Q 2609 -91 1734 -91 
Q 1441 -91 1130 -33 
Q 819 25 488 141 
L 488 750 
Q 750 597 1062 519 
Q 1375 441 1716 441 
Q 2309 441 2620 675 
Q 2931 909 2931 1356 
Q 2931 1769 2642 2001 
Q 2353 2234 1838 2234 
L 1294 2234 
L 1294 2753 
L 1863 2753 
Q 2328 2753 2575 2939 
Q 2822 3125 2822 3475 
Q 2822 3834 2567 4026 
Q 2313 4219 1838 4219 
Q 1578 4219 1281 4162 
Q 984 4106 628 3988 
L 628 4550 
Q 988 4650 1302 4700 
Q 1616 4750 1894 4750 
Q 2613 4750 3031 4423 
Q 3450 4097 3450 3541 
Q 3450 3153 3228 2886 
Q 3006 2619 2597 2516 
z
" transform="scale(0.015625)"/>
       </defs>
       <use xlink:href="#DejaVuSans-33"/>
      </g>
     </g>
    </g>
    <g id="ytick_7">
     <g id="line2d_13">
      <g>
       <use xlink:href="#m823a3489e3" x="180" y="129.761165" style="stroke: #000000; stroke-width: 0.8"/>
      </g>
     </g>
     <g id="text_13">
      <!-- 4 -->
      <g transform="translate(166.6375 133.560384) scale(0.1 -0.1)">
       <defs>
        <path id="DejaVuSans-34" d="M 2419 4116 
L 825 1625 
L 2419 1625 
L 2419 4116 
z
M 2253 4666 
L 3047 4666 
L 3047 1625 
L 3713 1625 
L 3713 1100 
L 3047 1100 
L 3047 0 
L 2419 0 
L 2419 1100 
L 313 1100 
L 313 1709 
L 2253 4666 
z
" transform="scale(0.015625)"/>
       </defs>
       <use xlink:href="#DejaVuSans-34"/>
      </g>
     </g>
    </g>
    <g id="ytick_8">
     <g id="line2d_14">
      <g>
       <use xlink:href="#m823a3489e3" x="180" y="71.821928" style="stroke: #000000; stroke-width: 0.8"/>
      </g>
     </g>
     <g id="text_14">
      <!-- 5 -->
      <g transform="translate(166.6375 75.621147) scale(0.1 -0.1)">
       <use xlink:href="#DejaVuSans-35"/>
      </g>
     </g>
    </g>
   </g>
   <g id="line2d_15">
    <path d="M 230.727273 316.980656 
L 233.70539 316.55092 
L 235.690802 316.005875 
L 238.66892 314.608523 
L 239.661626 314.096674 
L 242.639744 311.87021 
L 243.63245 310.980979 
L 244.625156 310.348829 
L 245.617862 311.15533 
L 246.610568 313.738912 
L 247.603273 310.568523 
L 249.588685 273.358387 
L 250.581391 263.212732 
L 251.574097 267.511406 
L 252.566803 279.762548 
L 254.552215 241.344866 
L 255.544921 240.875981 
L 256.537627 278.907357 
L 257.530333 296.66666 
L 258.523039 230.362722 
L 259.515745 215.192258 
L 260.50845 231.606122 
L 261.501156 318.577058 
L 262.493862 243.568304 
L 263.486568 218.920449 
L 265.47198 238.887705 
L 266.464686 213.648527 
L 267.457392 212.090886 
L 268.450098 260.646557 
L 269.442804 247.391341 
L 270.43551 198.119563 
L 271.428216 193.564666 
L 272.420922 218.089065 
L 273.413627 234.312412 
L 274.406333 225.440021 
L 275.399039 304.867605 
L 276.391745 202.048742 
L 277.384451 154.821866 
L 278.377157 139.926973 
L 279.369863 149.117155 
L 280.362569 183.111108 
L 282.347981 108.350802 
L 283.340687 91.343159 
L 284.333393 89.28 
L 285.326099 102.378587 
L 286.318804 138.507242 
L 287.31151 314.573177 
L 288.304216 164.001818 
L 289.296922 145.869128 
L 290.289628 158.451575 
L 291.282334 190.37257 
L 292.27504 203.121559 
L 293.267746 206.834984 
L 294.260452 253.079895 
L 295.253158 269.036471 
L 296.245864 225.639941 
L 297.23857 238.59612 
L 298.231276 349.957702 
L 299.223981 262.467329 
L 300.216687 246.919585 
L 301.209393 287.004289 
L 302.202099 318.317701 
L 303.194805 263.032783 
L 304.187511 268.941217 
L 305.180217 327.080632 
L 306.172923 329.571594 
L 307.165629 299.57879 
L 308.158335 317.483077 
L 309.151041 328.933068 
L 310.143747 312.494621 
L 311.136453 313.314765 
L 312.129159 331.621264 
L 313.121864 337.727333 
L 314.11457 332.936571 
L 315.107276 333.781467 
L 316.099982 334.10468 
L 318.085394 340.922376 
L 319.0781 341.857632 
L 320.070806 338.860334 
L 321.063512 342.087945 
L 323.048924 345.968116 
L 324.04163 346.939371 
L 325.034336 347.461552 
L 326.027041 350.595197 
L 327.019747 349.851123 
L 328.012453 349.789282 
L 329.005159 351.800139 
L 329.997865 352.650114 
L 330.990571 357.806546 
L 331.983277 354.61948 
L 332.975983 353.541358 
L 333.968689 358.864544 
L 334.961395 359.238262 
L 336.946807 360.383289 
L 337.939513 360.647355 
L 338.932218 364.041782 
L 339.924924 364.934405 
L 340.91763 365.34657 
L 341.910336 367.188597 
L 342.903042 369.467102 
L 343.895748 366.682017 
L 344.888454 367.121843 
L 345.88116 368.629872 
L 346.873866 373.278508 
L 347.866572 373.896102 
L 348.859278 374.189936 
L 349.851984 373.269126 
L 350.84469 380.267366 
L 351.837395 376.122167 
L 352.830101 371.0759 
L 353.822807 378.435941 
L 354.815513 379.530202 
L 355.808219 380.191107 
L 356.800925 382.504582 
L 357.793631 377.950004 
L 358.786337 378.368996 
L 359.779043 385.811923 
L 360.771749 380.878092 
L 361.764455 385.998027 
L 362.757161 380.630402 
L 363.749867 385.147553 
L 364.742572 385.126501 
L 365.735278 383.984046 
L 366.727984 387.059217 
L 367.72069 388.597323 
L 368.713396 388.972365 
L 369.706102 386.133056 
L 370.698808 388.315366 
L 371.691514 388.094357 
L 372.68422 394.523324 
L 373.676926 392.636212 
L 374.669632 391.727249 
L 375.662338 391.904041 
L 376.655044 391.339167 
L 377.64775 390.396825 
L 378.640455 391.480557 
L 379.633161 393.867479 
L 380.625867 392.289133 
L 381.618573 394.945042 
L 382.611279 399.970498 
L 383.603985 396.171426 
L 384.596691 394.107733 
L 385.589397 396.079759 
L 386.582103 398.964347 
L 387.574809 397.938509 
L 388.567515 391.531534 
L 389.560221 397.495015 
L 390.552927 397.735257 
L 391.545632 398.266364 
L 392.538338 399.701747 
L 393.531044 399.795029 
L 394.52375 402.570857 
L 395.516456 400.824937 
L 396.509162 403.221689 
L 397.501868 407.134086 
L 398.494574 405.801993 
L 399.48728 405.907617 
L 400.479986 405.244737 
L 401.472692 402.818022 
L 402.465398 409.80667 
L 403.458104 407.362077 
L 404.450809 407.195169 
L 405.443515 405.697224 
L 406.436221 406.949475 
L 407.428927 406.938325 
L 408.421633 406.314442 
L 410.407045 412.434832 
L 411.399751 404.139438 
L 412.392457 406.342716 
L 413.385163 410.867133 
L 414.377869 408.488108 
L 415.370575 407.503927 
L 416.363281 409.258128 
L 417.355986 405.821477 
L 418.348692 407.301936 
L 419.341398 409.42138 
L 420.334104 416.630801 
L 421.32681 409.574016 
L 422.319516 416.590655 
L 423.312222 419.199394 
L 424.304928 410.005846 
L 425.297634 410.714181 
L 426.29034 406.76655 
L 427.283046 417.000304 
L 428.275752 420.418896 
L 429.268458 414.667616 
L 430.261163 412.570212 
L 431.253869 414.044029 
L 432.246575 418.089191 
L 433.239281 417.220166 
L 434.231987 416.119101 
L 435.224693 418.371599 
L 436.217399 418.484519 
L 437.210105 420.195219 
L 438.202811 414.257659 
L 439.195517 417.689449 
L 440.188223 411.762144 
L 441.180929 421.368551 
L 442.173635 422.407952 
L 443.166341 417.008145 
L 444.159046 416.744782 
L 445.151752 414.345429 
L 446.144458 424.763862 
L 447.137164 419.116247 
L 448.12987 429.514979 
L 449.122576 419.441578 
L 450.115282 424.453629 
L 451.107988 423.145982 
L 452.100694 416.382049 
L 453.0934 424.295144 
L 454.086106 421.640188 
L 455.078812 421.707534 
L 456.071518 418.274293 
L 457.064223 417.567763 
L 458.056929 426.84038 
L 459.049635 424.389388 
L 460.042341 423.516596 
L 461.035047 427.814238 
L 462.027753 429.104238 
L 463.020459 428.386628 
L 464.013165 425.30404 
L 465.005871 428.774377 
L 465.998577 436.828582 
L 466.991283 429.538733 
L 467.983989 428.496348 
L 468.976695 432.798787 
L 469.9694 423.831159 
L 470.962106 429.885337 
L 471.954812 425.395078 
L 472.947518 425.484809 
L 473.940224 428.961111 
L 474.93293 433.853778 
L 475.925636 425.870942 
L 476.918342 429.265458 
L 477.911048 429.433682 
L 478.903754 437.073397 
L 479.89646 438.453809 
L 480.889166 439.079575 
L 481.881872 421.564906 
L 482.874577 434.452158 
L 483.867283 426.353814 
L 484.859989 426.434306 
L 485.852695 428.695275 
L 486.845401 441.006492 
L 487.838107 436.981782 
L 488.830813 434.713599 
L 489.823519 425.98512 
L 490.816225 425.744293 
L 491.808931 433.829949 
L 492.801637 430.485652 
L 493.794343 434.666525 
L 494.787049 442.948692 
L 495.779754 436.906993 
L 496.77246 426.083358 
L 497.765166 443.259113 
L 498.757872 440.558567 
L 500.743284 434.317661 
L 501.73599 440.066698 
L 502.728696 432.748338 
L 503.721402 429.153054 
L 504.714108 435.853908 
L 505.706814 435.225764 
L 506.69952 441.261005 
L 507.692226 430.907682 
L 508.684932 434.699675 
L 509.677637 434.665683 
L 510.670343 431.96672 
L 511.663049 434.614229 
L 512.655755 443.591329 
L 513.648461 429.330503 
L 514.641167 441.204113 
L 515.633873 434.664122 
L 516.626579 434.317826 
L 517.619285 434.365673 
L 518.611991 438.23096 
L 519.604697 447.308083 
L 520.597403 437.415943 
L 521.590109 441.763789 
L 522.582814 440.517672 
L 523.57552 452.155374 
L 524.568226 450.209818 
L 525.560932 437.50101 
L 526.553638 454.669914 
L 527.546344 445.460508 
L 528.53905 437.48661 
L 529.531756 441.334902 
L 530.524462 441.091466 
L 531.517168 444.122086 
L 532.509874 442.329543 
L 533.50258 446.362086 
L 534.495286 445.860667 
L 535.487991 451.600324 
L 536.480697 442.652926 
L 537.473403 438.046667 
L 538.466109 440.947853 
L 539.458815 443.445249 
L 540.451521 439.974389 
L 541.444227 438.833185 
L 542.436933 445.083364 
L 543.429639 443.101269 
L 544.422345 444.792684 
L 545.415051 433.555704 
L 546.407757 443.909811 
L 547.400463 448.62695 
L 548.393168 445.862677 
L 549.385874 440.825838 
L 550.37858 445.460876 
L 551.371286 447.912713 
L 552.363992 450.06583 
L 553.356698 447.587945 
L 554.349404 459.373595 
L 555.34211 449.571186 
L 556.334816 447.69652 
L 557.327522 455.645347 
L 558.320228 456.136091 
L 559.312934 440.88969 
L 560.30564 453.218218 
L 561.298345 461.46552 
L 562.291051 446.650631 
L 563.283757 445.810593 
L 564.276463 451.806201 
L 565.269169 447.872879 
L 566.261875 447.767096 
L 567.254581 451.335726 
L 568.247287 450.681645 
L 569.239993 442.122546 
L 570.232699 453.315009 
L 571.225405 444.004374 
L 572.218111 439.77662 
L 573.210817 454.085843 
L 574.203523 457.917722 
L 575.196228 445.921244 
L 576.188934 446.974261 
L 577.18164 449.220888 
L 578.174346 449.737926 
L 579.167052 460.720146 
L 580.159758 445.901205 
L 581.152464 440.224106 
L 582.14517 456.628077 
L 583.137876 458.797013 
L 584.130582 449.304768 
L 585.123288 452.630382 
L 586.115994 449.067889 
L 587.1087 458.353333 
L 588.101405 449.190042 
L 589.094111 460.236 
L 590.086817 456.823206 
L 591.079523 456.299924 
L 592.072229 455.560187 
L 593.064935 453.483116 
L 594.057641 450.477595 
L 595.050347 454.297053 
L 596.043053 448.823684 
L 597.035759 458.11795 
L 598.028465 447.549604 
L 599.021171 450.150659 
L 600.013877 449.907213 
L 601.006582 461.278553 
L 601.999288 461.217296 
L 602.991994 454.251266 
L 603.9847 456.492974 
L 604.977406 460.920562 
L 605.970112 459.242678 
L 606.962818 464.293485 
L 607.955524 453.622823 
L 608.94823 456.472989 
L 609.940936 454.018602 
L 610.933642 456.467004 
L 611.926348 455.579427 
L 612.919054 459.786072 
L 613.911759 455.132511 
L 614.904465 462.02321 
L 615.897171 454.836321 
L 616.889877 456.904717 
L 617.882583 461.997934 
L 618.875289 455.292395 
L 619.867995 456.015705 
L 620.860701 463.197345 
L 621.853407 452.637896 
L 622.846113 458.579177 
L 623.838819 457.393938 
L 624.831525 463.335085 
L 626.816936 452.270965 
L 627.809642 460.714372 
L 628.802348 458.703957 
L 629.795054 456.969967 
L 630.78776 459.8668 
L 631.780466 460.408947 
L 632.773172 462.086681 
L 633.765878 457.712632 
L 634.758584 462.272039 
L 635.75129 461.205023 
L 636.743996 460.446078 
L 637.736702 455.89297 
L 638.729408 460.240145 
L 639.722114 460.37577 
L 640.714819 459.350011 
L 641.707525 456.854216 
L 642.700231 460.53449 
L 643.692937 462.95987 
L 644.685643 460.709972 
L 645.678349 459.744229 
L 646.671055 461.198115 
L 648.656467 459.903268 
L 649.649173 460.636888 
L 650.641879 464.359332 
L 651.634585 461.654707 
L 652.627291 462.561664 
L 653.619996 461.02586 
L 654.612702 462.402368 
L 655.605408 463.066789 
L 656.598114 463.237475 
L 657.59082 460.028964 
L 658.583526 462.448202 
L 659.576232 461.351345 
L 660.568938 464.93787 
L 661.561644 464.628283 
L 662.55435 464.022784 
L 663.547056 462.961576 
L 664.539762 464.99571 
L 665.532468 461.709272 
L 666.525173 464.862741 
L 667.517879 464.623636 
L 668.510585 463.499602 
L 669.503291 463.476254 
L 670.495997 465.13499 
L 671.488703 463.552664 
L 672.481409 462.261174 
L 673.474115 464.781841 
L 674.466821 464.175462 
L 675.459527 464.984406 
L 676.452233 464.348168 
L 677.444939 464.408151 
L 678.437645 467.218957 
L 679.43035 465.093856 
L 680.423056 464.50075 
L 681.415762 464.516378 
L 682.408468 465.338159 
L 683.401174 463.864254 
L 684.39388 465.957008 
L 685.386586 464.727691 
L 686.379292 466.164335 
L 687.371998 464.163201 
L 688.364704 465.591721 
L 689.35741 465.393905 
L 690.350116 467.077438 
L 691.342822 466.033814 
L 692.335527 466.641312 
L 693.328233 465.791389 
L 694.320939 465.968991 
L 695.313645 466.467939 
L 696.306351 466.596122 
L 697.299057 466.384837 
L 698.291763 467.806653 
L 699.284469 465.788835 
L 700.277175 466.893415 
L 701.269881 466.894281 
L 702.262587 467.728071 
L 703.255293 467.756921 
L 704.247999 467.133968 
L 705.240705 468.267834 
L 706.23341 467.806742 
L 707.226116 466.765757 
L 708.218822 467.782409 
L 709.211528 468.590059 
L 710.204234 468.822554 
L 711.19694 467.793416 
L 712.189646 468.740093 
L 713.182352 468.933494 
L 714.175058 468.196091 
L 715.167764 469.086249 
L 716.16047 468.740066 
L 718.145882 469.474644 
L 719.138587 469.690314 
L 720.131293 468.862671 
L 721.123999 469.026963 
L 722.116705 469.90407 
L 723.109411 469.250489 
L 724.102117 468.980337 
L 725.094823 469.939848 
L 726.087529 469.172755 
L 727.080235 469.376253 
L 729.065647 470.759768 
L 730.058353 470.11499 
L 731.051059 470.593005 
L 732.043764 470.785972 
L 734.029176 470.556532 
L 735.021882 470.400684 
L 736.014588 470.811698 
L 737.007294 470.791542 
L 738 471.358988 
L 738.992706 471.25713 
L 740.978118 470.876216 
L 741.970824 471.815199 
L 742.96353 472.010972 
L 743.956236 471.698025 
L 745.941647 471.41218 
L 747.927059 471.925681 
L 748.919765 472.501983 
L 749.912471 471.690788 
L 750.905177 471.859302 
L 751.897883 471.618538 
L 753.883295 472.190558 
L 754.876001 472.226466 
L 755.868707 473.093115 
L 756.861413 471.915131 
L 757.854118 472.853532 
L 758.846824 472.73765 
L 759.83953 473.017783 
L 760.832236 473.102885 
L 761.824942 473.441228 
L 762.817648 473.32894 
L 763.810354 473.535429 
L 764.80306 473.534045 
L 765.795766 472.980235 
L 766.788472 473.5416 
L 767.781178 473.245074 
L 768.773884 473.651628 
L 769.76659 473.573677 
L 772.744707 473.8287 
L 773.737413 474.226776 
L 774.730119 474.189563 
L 775.722825 473.67948 
L 776.715531 474.362278 
L 777.708237 474.331844 
L 778.700943 474.479421 
L 779.693649 474.380466 
L 781.679061 475.25747 
L 782.671767 474.770403 
L 783.664473 475.098976 
L 784.657178 475.261413 
L 785.649884 474.594141 
L 786.64259 475.407172 
L 787.635296 475.566429 
L 788.628002 475.068407 
L 789.620708 475.67114 
L 790.613414 475.345662 
L 791.60612 475.650959 
L 792.598826 475.20114 
L 793.591532 476.463261 
L 794.584238 475.920225 
L 795.576944 475.655807 
L 796.56965 475.923036 
L 797.562355 475.445118 
L 798.555061 476.487061 
L 800.540473 475.439192 
L 801.533179 476.223393 
L 802.525885 476.048457 
L 803.518591 475.528841 
L 804.511297 476.698788 
L 805.504003 477.173645 
L 806.496709 476.557439 
L 807.489415 477.089068 
L 808.482121 477.102708 
L 809.474827 477.359077 
L 810.467532 477.164726 
L 811.460238 476.809651 
L 812.452944 477.388553 
L 813.44565 477.659068 
L 814.438356 477.7092 
L 815.431062 476.556575 
L 816.423768 477.317672 
L 817.416474 477.552492 
L 818.40918 478.16039 
L 819.401886 477.157981 
L 821.387298 477.667905 
L 822.380004 478.421647 
L 823.372709 477.713893 
L 825.358121 478.581622 
L 827.343533 477.666622 
L 828.336239 479.001408 
L 831.314357 478.084864 
L 832.307063 478.128447 
L 833.299769 478.704485 
L 834.292475 478.951542 
L 835.285181 478.672193 
L 837.270592 479.088581 
L 839.256004 478.430491 
L 840.24871 479.138569 
L 841.241416 478.814489 
L 842.234122 479.869169 
L 843.226828 478.752021 
L 844.219534 478.65024 
L 846.204946 480.014035 
L 847.197652 479.15958 
L 848.190358 479.689911 
L 849.183064 479.038454 
L 850.175769 479.508412 
L 851.168475 479.292998 
L 853.153887 480.207605 
L 854.146593 480.024518 
L 855.139299 480.519474 
L 856.132005 480.179239 
L 857.124711 480.410908 
L 858.117417 480.441486 
L 861.095535 480.098269 
L 862.088241 480.72832 
L 863.080946 481.162714 
L 864.073652 480.723933 
L 865.066358 480.500471 
L 866.059064 480.500238 
L 867.05177 480.154749 
L 868.044476 480.638455 
L 869.037182 480.590786 
L 870.029888 480.97867 
L 871.022594 480.503429 
L 872.0153 481.246155 
L 873.008006 480.877129 
L 876.978829 481.383325 
L 877.971535 481.89299 
L 878.964241 481.373182 
L 879.956947 482.143433 
L 880.949653 481.42882 
L 881.942359 481.725956 
L 882.935065 481.393751 
L 883.927771 482.163679 
L 884.920477 482.057997 
L 885.913183 482.258469 
L 886.905889 482.576526 
L 889.884006 482.201619 
L 890.876712 481.79699 
L 893.85483 482.226463 
L 894.847536 482.286167 
L 896.832948 483.001464 
L 897.825654 482.123917 
L 898.81836 482.632831 
L 899.811066 482.740055 
L 900.803772 482.467851 
L 901.796477 482.321686 
L 902.789183 482.345608 
L 903.781889 482.951702 
L 904.774595 482.977042 
L 905.767301 482.420867 
L 906.760007 482.780909 
L 907.752713 482.929566 
L 908.745419 484.379031 
L 909.738125 483.348294 
L 910.730831 483.659015 
L 911.723537 483.201059 
L 912.716243 483.816363 
L 913.708949 483.132389 
L 914.701655 483.306582 
L 915.69436 483.611825 
L 916.687066 484.315118 
L 918.672478 483.62115 
L 919.665184 484.380681 
L 920.65789 484.087229 
L 921.650596 483.629082 
L 922.643302 483.380658 
L 924.628714 483.911649 
L 925.62142 483.856259 
L 926.614126 484.714659 
L 927.606832 484.693647 
L 929.592243 483.868236 
L 930.584949 484.645979 
L 931.577655 484.836945 
L 933.563067 483.99656 
L 934.555773 483.869851 
L 935.548479 484.628997 
L 936.541185 484.587476 
L 937.533891 485.013155 
L 938.526597 483.927833 
L 939.519303 485.32214 
L 940.512009 485.57406 
L 941.504714 484.889083 
L 942.49742 485.020833 
L 943.490126 484.712739 
L 944.482832 485.088519 
L 945.475538 484.649395 
L 946.468244 485.726204 
L 947.46095 485.801379 
L 949.446362 485.251997 
L 950.439068 485.304187 
L 952.42448 484.726257 
L 953.417186 485.470736 
L 954.409891 485.361803 
L 955.402597 485.049192 
L 956.395303 485.302359 
L 957.388009 485.869089 
L 958.380715 486.128524 
L 959.373421 485.821487 
L 960.366127 486.058983 
L 961.358833 485.708625 
L 962.351539 485.562898 
L 963.344245 486.355507 
L 964.336951 486.329338 
L 965.329657 486.704045 
L 966.322363 485.843244 
L 967.315068 486.100225 
L 968.307774 485.608766 
L 969.30048 485.666474 
L 970.293186 486.1166 
L 971.285892 486.153927 
L 972.278598 486.304287 
L 973.271304 485.984214 
L 974.26401 486.544386 
L 975.256716 485.569056 
L 976.249422 486.638471 
L 977.242128 486.978486 
L 978.234834 487.038472 
L 979.22754 486.682835 
L 980.220246 487.210052 
L 981.212951 486.274835 
L 982.205657 486.721665 
L 983.198363 486.245021 
L 985.183775 486.366212 
L 987.169187 487.236792 
L 988.161893 486.378331 
L 989.154599 486.509113 
L 990.147305 487.161451 
L 991.140011 486.544294 
L 992.132717 487.415228 
L 993.125423 487.054471 
L 994.118128 487.174336 
L 995.110834 487.895578 
L 996.10354 487.38321 
L 998.088952 486.887677 
L 999.081658 487.43836 
L 1000.074364 486.865328 
L 1001.06707 487.000846 
L 1002.059776 487.89424 
L 1004.045188 486.93358 
L 1005.037894 487.520363 
L 1006.0306 487.671353 
L 1007.023305 487.271796 
L 1008.016011 488.021396 
L 1009.008717 488.158269 
L 1010.001423 488.122523 
L 1010.994129 487.847378 
L 1011.986835 487.744936 
L 1012.979541 487.855325 
L 1013.972247 488.123974 
L 1014.964953 487.81584 
L 1016.950365 488.127371 
L 1017.943071 487.46238 
L 1018.935777 487.846024 
L 1019.928482 487.039849 
L 1020.921188 487.758557 
L 1021.913894 487.843762 
L 1022.9066 487.156252 
L 1023.899306 488.230968 
L 1024.892012 487.863572 
L 1025.884718 487.937717 
L 1026.877424 487.797832 
L 1027.87013 488.108021 
L 1028.862836 488.902842 
L 1029.855542 488.094234 
L 1030.848248 488.831713 
L 1031.840954 488.131599 
L 1032.833659 488.072549 
L 1034.819071 488.734136 
L 1035.811777 488.217735 
L 1036.804483 488.238791 
L 1037.797189 488.9766 
L 1038.789895 488.153738 
L 1040.775307 488.236046 
L 1041.768013 488.927882 
L 1043.753425 488.718966 
L 1044.746131 488.888824 
L 1045.738837 488.513622 
L 1048.716954 488.433322 
L 1050.702366 488.70836 
L 1051.695072 488.699705 
L 1052.687778 488.353234 
L 1053.680484 489.364087 
L 1054.67319 489.028753 
L 1055.665896 488.861953 
L 1057.651308 489.545103 
L 1058.644014 488.32373 
L 1061.622131 489.470078 
L 1062.614837 489.423518 
L 1065.592955 488.835799 
L 1066.585661 489.476777 
L 1067.578367 489.348118 
L 1068.571073 489.701821 
L 1069.563779 489.084545 
L 1071.549191 490.006986 
L 1072.541896 489.415701 
L 1073.534602 489.398258 
L 1074.527308 490.40134 
L 1075.520014 489.723612 
L 1076.51272 489.61529 
L 1077.505426 489.805251 
L 1078.498132 490.512226 
L 1079.490838 489.718071 
L 1080.483544 489.8428 
L 1081.47625 489.467396 
L 1082.468956 489.68221 
L 1083.461662 490.199044 
L 1085.447073 489.453913 
L 1086.439779 489.469317 
L 1087.432485 489.787717 
L 1088.425191 489.389951 
L 1089.417897 490.167816 
L 1090.410603 490.263046 
L 1092.396015 490.035921 
L 1093.388721 490.175789 
L 1094.381427 490.084592 
L 1095.374133 489.671261 
L 1096.366839 490.221261 
L 1097.359545 490.17684 
L 1098.35225 489.983778 
L 1099.344956 490.077207 
L 1100.337662 489.929438 
L 1101.330368 490.649508 
L 1102.323074 489.673572 
L 1103.31578 490.255844 
L 1104.308486 490.554497 
L 1105.301192 489.754726 
L 1107.286604 490.217177 
L 1108.27931 490.331532 
L 1109.272016 490.809917 
L 1110.264722 489.650375 
L 1111.257428 490.110212 
L 1112.250133 489.354207 
L 1114.235545 490.853327 
L 1115.228251 490.994201 
L 1117.213663 489.810606 
L 1118.206369 490.791448 
L 1119.199075 490.585257 
L 1120.191781 490.1344 
L 1121.184487 490.135062 
L 1122.177193 490.600405 
L 1123.169899 490.455922 
L 1124.162605 490.821587 
L 1125.15531 490.386464 
L 1126.148016 490.849373 
L 1127.140722 490.445999 
L 1129.126134 490.963541 
L 1130.11884 490.706976 
L 1131.111546 490.174298 
L 1132.104252 490.412391 
L 1133.096958 491.102612 
L 1134.089664 490.171483 
L 1135.08237 490.289575 
L 1136.075076 491.06023 
L 1137.067782 491.321753 
L 1138.060487 490.419469 
L 1139.053193 491.168292 
L 1140.045899 491.222371 
L 1141.038605 490.669777 
L 1142.031311 490.559582 
L 1144.016723 491.083913 
L 1145.009429 490.897962 
L 1146.002135 490.142612 
L 1146.994841 490.860614 
L 1147.987547 491.753502 
L 1148.980253 491.05239 
L 1149.972959 491.13872 
L 1150.965664 490.282488 
L 1151.95837 490.64049 
L 1152.951076 490.562089 
L 1153.943782 491.207144 
L 1154.936488 490.940684 
L 1155.929194 491.133288 
L 1156.9219 491.547162 
L 1158.907312 492.015742 
L 1159.900018 491.744129 
L 1160.892724 491.687108 
L 1161.88543 491.104764 
L 1163.870841 491.422181 
L 1164.863547 490.552846 
L 1165.856253 491.213929 
L 1166.848959 491.167901 
L 1168.834371 491.351293 
L 1169.827077 491.11253 
L 1170.819783 492.057143 
L 1171.812489 491.489201 
L 1172.805195 491.414999 
L 1173.797901 491.871912 
L 1174.790607 491.418466 
L 1175.783313 491.327658 
L 1177.768724 490.805935 
L 1178.76143 491.662705 
L 1179.754136 491.307408 
L 1180.746842 491.072396 
L 1182.732254 491.009075 
L 1183.72496 491.706982 
L 1184.717666 491.710819 
L 1185.710372 491.001722 
L 1187.695784 491.161424 
L 1188.68849 490.653287 
L 1190.673901 492.252618 
L 1192.659313 491.671167 
L 1193.652019 491.762549 
L 1195.637431 492.121879 
L 1196.630137 490.788765 
L 1197.622843 491.952469 
L 1198.615549 490.831878 
L 1199.608255 491.932105 
L 1200.600961 492.162149 
L 1202.586373 491.331907 
L 1203.579078 491.766399 
L 1204.571784 492.48 
L 1205.56449 491.071067 
L 1206.557196 491.716891 
L 1207.549902 492.029089 
L 1208.542608 491.829228 
L 1209.535314 491.511045 
L 1210.52802 491.78273 
L 1211.520726 490.997383 
L 1212.513432 491.345859 
L 1213.506138 491.149179 
L 1214.498844 491.207591 
L 1215.49155 491.572051 
L 1217.476961 491.886749 
L 1218.469667 491.54426 
L 1219.462373 490.672558 
L 1221.447785 491.666097 
L 1222.440491 491.295146 
L 1223.433197 491.821037 
L 1224.425903 491.369481 
L 1225.418609 491.43274 
L 1226.411315 492.258898 
L 1227.404021 491.454935 
L 1229.389432 491.73418 
L 1230.382138 491.634031 
L 1231.374844 491.965127 
L 1233.360256 491.27095 
L 1234.352962 492.073715 
L 1235.345668 491.236646 
L 1236.338374 491.973353 
L 1237.33108 491.900151 
L 1238.323786 491.540213 
L 1239.316492 491.413905 
L 1240.309198 491.793841 
L 1241.301904 492.023518 
L 1242.29461 491.398284 
L 1243.287315 491.818028 
L 1244.280021 491.432451 
L 1245.272727 491.533328 
L 1245.272727 491.533328 
" clip-path="url(#p72b472e823)" style="fill: none; stroke: #1f77b4; stroke-width: 1.5; stroke-linecap: square"/>
   </g>
   <g id="patch_3">
    <path d="M 180 512.64 
L 180 69.12 
" style="fill: none; stroke: #000000; stroke-width: 0.8; stroke-linejoin: miter; stroke-linecap: square"/>
   </g>
   <g id="patch_4">
    <path d="M 1296 512.64 
L 1296 69.12 
" style="fill: none; stroke: #000000; stroke-width: 0.8; stroke-linejoin: miter; stroke-linecap: square"/>
   </g>
   <g id="patch_5">
    <path d="M 180 512.64 
L 1296 512.64 
" style="fill: none; stroke: #000000; stroke-width: 0.8; stroke-linejoin: miter; stroke-linecap: square"/>
   </g>
   <g id="patch_6">
    <path d="M 180 69.12 
L 1296 69.12 
" style="fill: none; stroke: #000000; stroke-width: 0.8; stroke-linejoin: miter; stroke-linecap: square"/>
   </g>
   <g id="text_15">
    <!-- source1-receiver17 -->
    <g transform="translate(544.9 60.80125) scale(0.4 -0.4)">
     <defs>
      <path id="DejaVuSans-73" d="M 2834 3397 
L 2834 2853 
Q 2591 2978 2328 3040 
Q 2066 3103 1784 3103 
Q 1356 3103 1142 2972 
Q 928 2841 928 2578 
Q 928 2378 1081 2264 
Q 1234 2150 1697 2047 
L 1894 2003 
Q 2506 1872 2764 1633 
Q 3022 1394 3022 966 
Q 3022 478 2636 193 
Q 2250 -91 1575 -91 
Q 1294 -91 989 -36 
Q 684 19 347 128 
L 347 722 
Q 666 556 975 473 
Q 1284 391 1588 391 
Q 1994 391 2212 530 
Q 2431 669 2431 922 
Q 2431 1156 2273 1281 
Q 2116 1406 1581 1522 
L 1381 1569 
Q 847 1681 609 1914 
Q 372 2147 372 2553 
Q 372 3047 722 3315 
Q 1072 3584 1716 3584 
Q 2034 3584 2315 3537 
Q 2597 3491 2834 3397 
z
" transform="scale(0.015625)"/>
      <path id="DejaVuSans-6f" d="M 1959 3097 
Q 1497 3097 1228 2736 
Q 959 2375 959 1747 
Q 959 1119 1226 758 
Q 1494 397 1959 397 
Q 2419 397 2687 759 
Q 2956 1122 2956 1747 
Q 2956 2369 2687 2733 
Q 2419 3097 1959 3097 
z
M 1959 3584 
Q 2709 3584 3137 3096 
Q 3566 2609 3566 1747 
Q 3566 888 3137 398 
Q 2709 -91 1959 -91 
Q 1206 -91 779 398 
Q 353 888 353 1747 
Q 353 2609 779 3096 
Q 1206 3584 1959 3584 
z
" transform="scale(0.015625)"/>
      <path id="DejaVuSans-75" d="M 544 1381 
L 544 3500 
L 1119 3500 
L 1119 1403 
Q 1119 906 1312 657 
Q 1506 409 1894 409 
Q 2359 409 2629 706 
Q 2900 1003 2900 1516 
L 2900 3500 
L 3475 3500 
L 3475 0 
L 2900 0 
L 2900 538 
Q 2691 219 2414 64 
Q 2138 -91 1772 -91 
Q 1169 -91 856 284 
Q 544 659 544 1381 
z
M 1991 3584 
L 1991 3584 
z
" transform="scale(0.015625)"/>
      <path id="DejaVuSans-72" d="M 2631 2963 
Q 2534 3019 2420 3045 
Q 2306 3072 2169 3072 
Q 1681 3072 1420 2755 
Q 1159 2438 1159 1844 
L 1159 0 
L 581 0 
L 581 3500 
L 1159 3500 
L 1159 2956 
Q 1341 3275 1631 3429 
Q 1922 3584 2338 3584 
Q 2397 3584 2469 3576 
Q 2541 3569 2628 3553 
L 2631 2963 
z
" transform="scale(0.015625)"/>
      <path id="DejaVuSans-63" d="M 3122 3366 
L 3122 2828 
Q 2878 2963 2633 3030 
Q 2388 3097 2138 3097 
Q 1578 3097 1268 2742 
Q 959 2388 959 1747 
Q 959 1106 1268 751 
Q 1578 397 2138 397 
Q 2388 397 2633 464 
Q 2878 531 3122 666 
L 3122 134 
Q 2881 22 2623 -34 
Q 2366 -91 2075 -91 
Q 1284 -91 818 406 
Q 353 903 353 1747 
Q 353 2603 823 3093 
Q 1294 3584 2113 3584 
Q 2378 3584 2631 3529 
Q 2884 3475 3122 3366 
z
" transform="scale(0.015625)"/>
      <path id="DejaVuSans-65" d="M 3597 1894 
L 3597 1613 
L 953 1613 
Q 991 1019 1311 708 
Q 1631 397 2203 397 
Q 2534 397 2845 478 
Q 3156 559 3463 722 
L 3463 178 
Q 3153 47 2828 -22 
Q 2503 -91 2169 -91 
Q 1331 -91 842 396 
Q 353 884 353 1716 
Q 353 2575 817 3079 
Q 1281 3584 2069 3584 
Q 2775 3584 3186 3129 
Q 3597 2675 3597 1894 
z
M 3022 2063 
Q 3016 2534 2758 2815 
Q 2500 3097 2075 3097 
Q 1594 3097 1305 2825 
Q 1016 2553 972 2059 
L 3022 2063 
z
" transform="scale(0.015625)"/>
      <path id="DejaVuSans-2d" d="M 313 2009 
L 1997 2009 
L 1997 1497 
L 313 1497 
L 313 2009 
z
" transform="scale(0.015625)"/>
      <path id="DejaVuSans-69" d="M 603 3500 
L 1178 3500 
L 1178 0 
L 603 0 
L 603 3500 
z
M 603 4863 
L 1178 4863 
L 1178 4134 
L 603 4134 
L 603 4863 
z
" transform="scale(0.015625)"/>
      <path id="DejaVuSans-76" d="M 191 3500 
L 800 3500 
L 1894 563 
L 2988 3500 
L 3597 3500 
L 2284 0 
L 1503 0 
L 191 3500 
z
" transform="scale(0.015625)"/>
      <path id="DejaVuSans-37" d="M 525 4666 
L 3525 4666 
L 3525 4397 
L 1831 0 
L 1172 0 
L 2766 4134 
L 525 4134 
L 525 4666 
z
" transform="scale(0.015625)"/>
     </defs>
     <use xlink:href="#DejaVuSans-73"/>
     <use xlink:href="#DejaVuSans-6f" x="52.099609"/>
     <use xlink:href="#DejaVuSans-75" x="113.28125"/>
     <use xlink:href="#DejaVuSans-72" x="176.660156"/>
     <use xlink:href="#DejaVuSans-63" x="215.523438"/>
     <use xlink:href="#DejaVuSans-65" x="270.503906"/>
     <use xlink:href="#DejaVuSans-31" x="332.027344"/>
     <use xlink:href="#DejaVuSans-2d" x="395.650391"/>
     <use xlink:href="#DejaVuSans-72" x="431.734375"/>
     <use xlink:href="#DejaVuSans-65" x="470.597656"/>
     <use xlink:href="#DejaVuSans-63" x="532.121094"/>
     <use xlink:href="#DejaVuSans-65" x="587.101562"/>
     <use xlink:href="#DejaVuSans-69" x="648.625"/>
     <use xlink:href="#DejaVuSans-76" x="676.408203"/>
     <use xlink:href="#DejaVuSans-65" x="735.587891"/>
     <use xlink:href="#DejaVuSans-72" x="797.111328"/>
     <use xlink:href="#DejaVuSans-31" x="838.224609"/>
     <use xlink:href="#DejaVuSans-37" x="901.847656"/>
    </g>
   </g>
  </g>
 </g>
 <defs>
  <clipPath id="p72b472e823">
   <rect x="180" y="69.12" width="1116" height="443.52"/>
  </clipPath>
 </defs>
</svg>
