<?xml version="1.0" encoding="utf-8" standalone="no"?>
<!DOCTYPE svg PUBLIC "-//W3C//DTD SVG 1.1//EN"
  "http://www.w3.org/Graphics/SVG/1.1/DTD/svg11.dtd">
<svg xmlns:xlink="http://www.w3.org/1999/xlink" width="1440pt" height="576pt" viewBox="0 0 1440 576" xmlns="http://www.w3.org/2000/svg" version="1.1">
 <metadata>
  <rdf:RDF xmlns:dc="http://purl.org/dc/elements/1.1/" xmlns:cc="http://creativecommons.org/ns#" xmlns:rdf="http://www.w3.org/1999/02/22-rdf-syntax-ns#">
   <cc:Work>
    <dc:type rdf:resource="http://purl.org/dc/dcmitype/StillImage"/>
    <dc:date>2024-05-22T04:49:39.832517</dc:date>
    <dc:format>image/svg+xml</dc:format>
    <dc:creator>
     <cc:Agent>
      <dc:title>Matplotlib v3.8.3, https://matplotlib.org/</dc:title>
     </cc:Agent>
    </dc:creator>
   </cc:Work>
  </rdf:RDF>
 </metadata>
 <defs>
  <style type="text/css">*{stroke-linejoin: round; stroke-linecap: butt}</style>
 </defs>
 <g id="figure_1">
  <g id="patch_1">
   <path d="M 0 576 
L 1440 576 
L 1440 0 
L 0 0 
z
" style="fill: #ffffff"/>
  </g>
  <g id="axes_1">
   <g id="patch_2">
    <path d="M 180 512.64 
L 1296 512.64 
L 1296 69.12 
L 180 69.12 
z
" style="fill: #ffffff"/>
   </g>
   <g id="matplotlib.axis_1">
    <g id="xtick_1">
     <g id="line2d_1">
      <defs>
       <path id="mfa8cde4346" d="M 0 0 
L 0 3.5 
" style="stroke: #000000; stroke-width: 0.8"/>
      </defs>
      <g>
       <use xlink:href="#mfa8cde4346" x="229.734567" y="512.64" style="stroke: #000000; stroke-width: 0.8"/>
      </g>
     </g>
     <g id="text_1">
      <!-- 0 -->
      <g transform="translate(226.553317 527.238438) scale(0.1 -0.1)">
       <defs>
        <path id="DejaVuSans-30" d="M 2034 4250 
Q 1547 4250 1301 3770 
Q 1056 3291 1056 2328 
Q 1056 1369 1301 889 
Q 1547 409 2034 409 
Q 2525 409 2770 889 
Q 3016 1369 3016 2328 
Q 3016 3291 2770 3770 
Q 2525 4250 2034 4250 
z
M 2034 4750 
Q 2819 4750 3233 4129 
Q 3647 3509 3647 2328 
Q 3647 1150 3233 529 
Q 2819 -91 2034 -91 
Q 1250 -91 836 529 
Q 422 1150 422 2328 
Q 422 3509 836 4129 
Q 1250 4750 2034 4750 
z
" transform="scale(0.015625)"/>
       </defs>
       <use xlink:href="#DejaVuSans-30"/>
      </g>
     </g>
    </g>
    <g id="xtick_2">
     <g id="line2d_2">
      <g>
       <use xlink:href="#mfa8cde4346" x="433.04074" y="512.64" style="stroke: #000000; stroke-width: 0.8"/>
      </g>
     </g>
     <g id="text_2">
      <!-- 500 -->
      <g transform="translate(423.49699 527.238438) scale(0.1 -0.1)">
       <defs>
        <path id="DejaVuSans-35" d="M 691 4666 
L 3169 4666 
L 3169 4134 
L 1269 4134 
L 1269 2991 
Q 1406 3038 1543 3061 
Q 1681 3084 1819 3084 
Q 2600 3084 3056 2656 
Q 3513 2228 3513 1497 
Q 3513 744 3044 326 
Q 2575 -91 1722 -91 
Q 1428 -91 1123 -41 
Q 819 9 494 109 
L 494 744 
Q 775 591 1075 516 
Q 1375 441 1709 441 
Q 2250 441 2565 725 
Q 2881 1009 2881 1497 
Q 2881 1984 2565 2268 
Q 2250 2553 1709 2553 
Q 1456 2553 1204 2497 
Q 953 2441 691 2322 
L 691 4666 
z
" transform="scale(0.015625)"/>
       </defs>
       <use xlink:href="#DejaVuSans-35"/>
       <use xlink:href="#DejaVuSans-30" x="63.623047"/>
       <use xlink:href="#DejaVuSans-30" x="127.246094"/>
      </g>
     </g>
    </g>
    <g id="xtick_3">
     <g id="line2d_3">
      <g>
       <use xlink:href="#mfa8cde4346" x="636.346913" y="512.64" style="stroke: #000000; stroke-width: 0.8"/>
      </g>
     </g>
     <g id="text_3">
      <!-- 1000 -->
      <g transform="translate(623.621913 527.238438) scale(0.1 -0.1)">
       <defs>
        <path id="DejaVuSans-31" d="M 794 531 
L 1825 531 
L 1825 4091 
L 703 3866 
L 703 4441 
L 1819 4666 
L 2450 4666 
L 2450 531 
L 3481 531 
L 3481 0 
L 794 0 
L 794 531 
z
" transform="scale(0.015625)"/>
       </defs>
       <use xlink:href="#DejaVuSans-31"/>
       <use xlink:href="#DejaVuSans-30" x="63.623047"/>
       <use xlink:href="#DejaVuSans-30" x="127.246094"/>
       <use xlink:href="#DejaVuSans-30" x="190.869141"/>
      </g>
     </g>
    </g>
    <g id="xtick_4">
     <g id="line2d_4">
      <g>
       <use xlink:href="#mfa8cde4346" x="839.653087" y="512.64" style="stroke: #000000; stroke-width: 0.8"/>
      </g>
     </g>
     <g id="text_4">
      <!-- 1500 -->
      <g transform="translate(826.928087 527.238438) scale(0.1 -0.1)">
       <use xlink:href="#DejaVuSans-31"/>
       <use xlink:href="#DejaVuSans-35" x="63.623047"/>
       <use xlink:href="#DejaVuSans-30" x="127.246094"/>
       <use xlink:href="#DejaVuSans-30" x="190.869141"/>
      </g>
     </g>
    </g>
    <g id="xtick_5">
     <g id="line2d_5">
      <g>
       <use xlink:href="#mfa8cde4346" x="1042.95926" y="512.64" style="stroke: #000000; stroke-width: 0.8"/>
      </g>
     </g>
     <g id="text_5">
      <!-- 2000 -->
      <g transform="translate(1030.23426 527.238438) scale(0.1 -0.1)">
       <defs>
        <path id="DejaVuSans-32" d="M 1228 531 
L 3431 531 
L 3431 0 
L 469 0 
L 469 531 
Q 828 903 1448 1529 
Q 2069 2156 2228 2338 
Q 2531 2678 2651 2914 
Q 2772 3150 2772 3378 
Q 2772 3750 2511 3984 
Q 2250 4219 1831 4219 
Q 1534 4219 1204 4116 
Q 875 4013 500 3803 
L 500 4441 
Q 881 4594 1212 4672 
Q 1544 4750 1819 4750 
Q 2544 4750 2975 4387 
Q 3406 4025 3406 3419 
Q 3406 3131 3298 2873 
Q 3191 2616 2906 2266 
Q 2828 2175 2409 1742 
Q 1991 1309 1228 531 
z
" transform="scale(0.015625)"/>
       </defs>
       <use xlink:href="#DejaVuSans-32"/>
       <use xlink:href="#DejaVuSans-30" x="63.623047"/>
       <use xlink:href="#DejaVuSans-30" x="127.246094"/>
       <use xlink:href="#DejaVuSans-30" x="190.869141"/>
      </g>
     </g>
    </g>
    <g id="xtick_6">
     <g id="line2d_6">
      <g>
       <use xlink:href="#mfa8cde4346" x="1246.265433" y="512.64" style="stroke: #000000; stroke-width: 0.8"/>
      </g>
     </g>
     <g id="text_6">
      <!-- 2500 -->
      <g transform="translate(1233.540433 527.238438) scale(0.1 -0.1)">
       <use xlink:href="#DejaVuSans-32"/>
       <use xlink:href="#DejaVuSans-35" x="63.623047"/>
       <use xlink:href="#DejaVuSans-30" x="127.246094"/>
       <use xlink:href="#DejaVuSans-30" x="190.869141"/>
      </g>
     </g>
    </g>
   </g>
   <g id="matplotlib.axis_2">
    <g id="ytick_1">
     <g id="line2d_7">
      <defs>
       <path id="m940a2a5665" d="M 0 0 
L -3.5 0 
" style="stroke: #000000; stroke-width: 0.8"/>
      </defs>
      <g>
       <use xlink:href="#m940a2a5665" x="180" y="490.359621" style="stroke: #000000; stroke-width: 0.8"/>
      </g>
     </g>
     <g id="text_7">
      <!-- −2 -->
      <g transform="translate(158.257812 494.15884) scale(0.1 -0.1)">
       <defs>
        <path id="DejaVuSans-2212" d="M 678 2272 
L 4684 2272 
L 4684 1741 
L 678 1741 
L 678 2272 
z
" transform="scale(0.015625)"/>
       </defs>
       <use xlink:href="#DejaVuSans-2212"/>
       <use xlink:href="#DejaVuSans-32" x="83.789062"/>
      </g>
     </g>
    </g>
    <g id="ytick_2">
     <g id="line2d_8">
      <g>
       <use xlink:href="#m940a2a5665" x="180" y="430.393769" style="stroke: #000000; stroke-width: 0.8"/>
      </g>
     </g>
     <g id="text_8">
      <!-- −1 -->
      <g transform="translate(158.257812 434.192988) scale(0.1 -0.1)">
       <use xlink:href="#DejaVuSans-2212"/>
       <use xlink:href="#DejaVuSans-31" x="83.789062"/>
      </g>
     </g>
    </g>
    <g id="ytick_3">
     <g id="line2d_9">
      <g>
       <use xlink:href="#m940a2a5665" x="180" y="370.427918" style="stroke: #000000; stroke-width: 0.8"/>
      </g>
     </g>
     <g id="text_9">
      <!-- 0 -->
      <g transform="translate(166.6375 374.227136) scale(0.1 -0.1)">
       <use xlink:href="#DejaVuSans-30"/>
      </g>
     </g>
    </g>
    <g id="ytick_4">
     <g id="line2d_10">
      <g>
       <use xlink:href="#m940a2a5665" x="180" y="310.462066" style="stroke: #000000; stroke-width: 0.8"/>
      </g>
     </g>
     <g id="text_10">
      <!-- 1 -->
      <g transform="translate(166.6375 314.261284) scale(0.1 -0.1)">
       <use xlink:href="#DejaVuSans-31"/>
      </g>
     </g>
    </g>
    <g id="ytick_5">
     <g id="line2d_11">
      <g>
       <use xlink:href="#m940a2a5665" x="180" y="250.496214" style="stroke: #000000; stroke-width: 0.8"/>
      </g>
     </g>
     <g id="text_11">
      <!-- 2 -->
      <g transform="translate(166.6375 254.295432) scale(0.1 -0.1)">
       <use xlink:href="#DejaVuSans-32"/>
      </g>
     </g>
    </g>
    <g id="ytick_6">
     <g id="line2d_12">
      <g>
       <use xlink:href="#m940a2a5665" x="180" y="190.530362" style="stroke: #000000; stroke-width: 0.8"/>
      </g>
     </g>
     <g id="text_12">
      <!-- 3 -->
      <g transform="translate(166.6375 194.32958) scale(0.1 -0.1)">
       <defs>
        <path id="DejaVuSans-33" d="M 2597 2516 
Q 3050 2419 3304 2112 
Q 3559 1806 3559 1356 
Q 3559 666 3084 287 
Q 2609 -91 1734 -91 
Q 1441 -91 1130 -33 
Q 819 25 488 141 
L 488 750 
Q 750 597 1062 519 
Q 1375 441 1716 441 
Q 2309 441 2620 675 
Q 2931 909 2931 1356 
Q 2931 1769 2642 2001 
Q 2353 2234 1838 2234 
L 1294 2234 
L 1294 2753 
L 1863 2753 
Q 2328 2753 2575 2939 
Q 2822 3125 2822 3475 
Q 2822 3834 2567 4026 
Q 2313 4219 1838 4219 
Q 1578 4219 1281 4162 
Q 984 4106 628 3988 
L 628 4550 
Q 988 4650 1302 4700 
Q 1616 4750 1894 4750 
Q 2613 4750 3031 4423 
Q 3450 4097 3450 3541 
Q 3450 3153 3228 2886 
Q 3006 2619 2597 2516 
z
" transform="scale(0.015625)"/>
       </defs>
       <use xlink:href="#DejaVuSans-33"/>
      </g>
     </g>
    </g>
    <g id="ytick_7">
     <g id="line2d_13">
      <g>
       <use xlink:href="#m940a2a5665" x="180" y="130.56451" style="stroke: #000000; stroke-width: 0.8"/>
      </g>
     </g>
     <g id="text_13">
      <!-- 4 -->
      <g transform="translate(166.6375 134.363729) scale(0.1 -0.1)">
       <defs>
        <path id="DejaVuSans-34" d="M 2419 4116 
L 825 1625 
L 2419 1625 
L 2419 4116 
z
M 2253 4666 
L 3047 4666 
L 3047 1625 
L 3713 1625 
L 3713 1100 
L 3047 1100 
L 3047 0 
L 2419 0 
L 2419 1100 
L 313 1100 
L 313 1709 
L 2253 4666 
z
" transform="scale(0.015625)"/>
       </defs>
       <use xlink:href="#DejaVuSans-34"/>
      </g>
     </g>
    </g>
    <g id="ytick_8">
     <g id="line2d_14">
      <g>
       <use xlink:href="#m940a2a5665" x="180" y="70.598658" style="stroke: #000000; stroke-width: 0.8"/>
      </g>
     </g>
     <g id="text_14">
      <!-- 5 -->
      <g transform="translate(166.6375 74.397877) scale(0.1 -0.1)">
       <use xlink:href="#DejaVuSans-35"/>
      </g>
     </g>
    </g>
   </g>
   <g id="line2d_15">
    <path d="M 230.727273 377.682048 
L 231.719979 377.370154 
L 232.712685 376.744919 
L 234.698096 374.728556 
L 235.690802 373.424137 
L 237.676214 369.927121 
L 239.661626 365.512342 
L 240.654332 363.004855 
L 242.639744 356.773739 
L 244.625156 349.540318 
L 245.617862 344.792559 
L 247.603273 333.645098 
L 248.595979 325.466838 
L 249.588685 306.086443 
L 250.581391 279.573624 
L 251.574097 263.069178 
L 252.566803 260.370967 
L 253.559509 275.191984 
L 254.552215 299.150747 
L 255.544921 275.213562 
L 256.537627 258.18903 
L 257.530333 264.529121 
L 258.523039 282.864669 
L 260.50845 234.261527 
L 261.501156 229.606845 
L 262.493862 247.884742 
L 263.486568 308.287967 
L 264.479274 246.628789 
L 265.47198 214.615899 
L 266.464686 213.542751 
L 267.457392 242.855861 
L 268.450098 376.340471 
L 269.442804 257.695364 
L 270.43551 240.828654 
L 271.428216 262.249686 
L 272.420922 409.003163 
L 273.413627 258.963566 
L 274.406333 220.840566 
L 275.399039 205.390588 
L 276.391745 174.162225 
L 277.384451 134.262957 
L 278.377157 106.717653 
L 279.369863 92.1873 
L 280.362569 89.28 
L 281.355275 96.69754 
L 282.347981 111.046911 
L 283.340687 117.384417 
L 284.333393 110.382874 
L 285.326099 104.643089 
L 286.318804 106.326794 
L 287.31151 114.925413 
L 288.304216 132.928328 
L 289.296922 171.500388 
L 290.289628 197.074613 
L 291.282334 157.582328 
L 292.27504 150.022166 
L 293.267746 170.434601 
L 294.260452 225.545818 
L 295.253158 240.427694 
L 296.245864 239.823569 
L 297.23857 293.202326 
L 298.231276 249.965649 
L 299.223981 245.423182 
L 300.216687 296.638405 
L 301.209393 265.866233 
L 302.202099 251.001687 
L 303.194805 293.681944 
L 304.187511 317.123758 
L 305.180217 270.803579 
L 306.172923 286.68586 
L 307.165629 360.81248 
L 308.158335 318.802652 
L 309.151041 326.238529 
L 310.143747 363.154941 
L 311.136453 327.068903 
L 312.129159 325.171898 
L 313.121864 343.413572 
L 314.11457 343.062138 
L 315.107276 340.320116 
L 316.099982 342.953565 
L 317.092688 347.406009 
L 318.085394 347.731173 
L 319.0781 345.425996 
L 320.070806 349.359862 
L 321.063512 355.439773 
L 322.056218 355.075889 
L 323.048924 353.496308 
L 325.034336 355.479649 
L 326.027041 357.299185 
L 327.019747 357.559728 
L 328.012453 355.601994 
L 329.005159 359.514916 
L 329.997865 365.286934 
L 330.990571 358.063852 
L 331.983277 364.67447 
L 332.975983 367.975858 
L 333.968689 364.821279 
L 334.961395 364.518075 
L 336.946807 370.878521 
L 337.939513 372.706199 
L 338.932218 369.584901 
L 339.924924 369.336634 
L 340.91763 375.976313 
L 341.910336 372.667972 
L 342.903042 370.100236 
L 343.895748 372.818856 
L 344.888454 376.42312 
L 346.873866 372.703548 
L 347.866572 375.77785 
L 348.859278 377.546944 
L 349.851984 378.377246 
L 350.84469 375.558048 
L 351.837395 380.09452 
L 352.830101 376.988571 
L 353.822807 382.693 
L 354.815513 381.931235 
L 355.808219 380.719838 
L 356.800925 382.846575 
L 357.793631 385.275905 
L 358.786337 384.529 
L 359.779043 382.656736 
L 360.771749 386.890269 
L 361.764455 384.082929 
L 362.757161 387.423447 
L 363.749867 387.802892 
L 364.742572 386.363012 
L 365.735278 386.710184 
L 366.727984 389.676667 
L 367.72069 391.086784 
L 368.713396 387.441001 
L 369.706102 386.174919 
L 370.698808 393.081021 
L 371.691514 393.580102 
L 372.68422 391.273123 
L 373.676926 395.480934 
L 374.669632 394.967452 
L 375.662338 393.11537 
L 376.655044 394.893384 
L 377.64775 395.91319 
L 378.640455 397.326181 
L 379.633161 394.289206 
L 380.625867 397.662387 
L 381.618573 398.128202 
L 382.611279 400.68944 
L 383.603985 395.179356 
L 384.596691 397.799695 
L 385.589397 398.041482 
L 386.582103 403.469059 
L 387.574809 399.962401 
L 388.567515 400.791851 
L 389.560221 400.437407 
L 390.552927 401.721496 
L 391.545632 401.837101 
L 392.538338 404.838788 
L 393.531044 403.135956 
L 394.52375 402.570066 
L 395.516456 399.164957 
L 396.509162 408.111949 
L 397.501868 404.619791 
L 398.494574 406.070002 
L 399.48728 408.193968 
L 400.479986 405.908055 
L 401.472692 404.918012 
L 402.465398 400.292015 
L 404.450809 409.809715 
L 405.443515 408.947107 
L 406.436221 406.194629 
L 407.428927 405.876738 
L 408.421633 404.756878 
L 409.414339 405.765856 
L 411.399751 414.208404 
L 412.392457 414.217781 
L 413.385163 407.476971 
L 414.377869 412.232952 
L 415.370575 408.049496 
L 416.363281 413.008253 
L 417.355986 409.109556 
L 418.348692 411.262544 
L 419.341398 417.998593 
L 420.334104 411.931448 
L 421.32681 415.432536 
L 422.319516 410.02383 
L 423.312222 415.100745 
L 424.304928 413.24032 
L 425.297634 416.834177 
L 426.29034 418.749225 
L 427.283046 417.20557 
L 428.275752 413.689201 
L 429.268458 415.577327 
L 430.261163 417.842256 
L 431.253869 414.113238 
L 432.246575 422.200696 
L 433.239281 416.708855 
L 434.231987 420.505054 
L 435.224693 418.243536 
L 436.217399 418.81881 
L 437.210105 420.057529 
L 438.202811 417.396602 
L 439.195517 422.849491 
L 440.188223 419.698033 
L 441.180929 417.517065 
L 442.173635 420.712274 
L 443.166341 421.124767 
L 444.159046 414.897544 
L 445.151752 424.238451 
L 446.144458 421.125772 
L 447.137164 425.083103 
L 448.12987 421.948826 
L 449.122576 421.893793 
L 450.115282 426.985144 
L 451.107988 425.946927 
L 452.100694 425.799563 
L 453.0934 421.960951 
L 454.086106 426.460157 
L 455.078812 421.993998 
L 456.071518 425.061422 
L 457.064223 421.792779 
L 458.056929 425.685878 
L 459.049635 427.394514 
L 460.042341 427.273362 
L 461.035047 421.973325 
L 462.027753 430.946413 
L 463.020459 423.487787 
L 464.013165 429.512149 
L 465.005871 426.230755 
L 465.998577 434.060231 
L 466.991283 427.93337 
L 467.983989 432.586143 
L 468.976695 422.678369 
L 469.9694 425.775768 
L 470.962106 438.859029 
L 472.947518 427.709828 
L 473.940224 432.837083 
L 474.93293 432.085284 
L 475.925636 426.804107 
L 476.918342 431.109157 
L 477.911048 428.426726 
L 478.903754 427.306215 
L 479.89646 425.222166 
L 480.889166 428.572313 
L 481.881872 433.458471 
L 482.874577 430.819698 
L 483.867283 442.139341 
L 484.859989 433.60753 
L 485.852695 432.623685 
L 486.845401 433.579064 
L 487.838107 432.712857 
L 488.830813 432.054189 
L 489.823519 433.722905 
L 490.816225 427.291405 
L 491.808931 431.721512 
L 492.801637 434.387593 
L 493.794343 431.913762 
L 494.787049 439.792938 
L 495.779754 434.087056 
L 496.77246 432.66357 
L 497.765166 432.431781 
L 498.757872 433.412077 
L 499.750578 431.981604 
L 500.743284 441.928918 
L 501.73599 444.078979 
L 502.728696 433.357841 
L 503.721402 434.697134 
L 504.714108 427.733602 
L 505.706814 438.622716 
L 506.69952 438.159883 
L 507.692226 438.141631 
L 508.684932 437.281914 
L 509.677637 439.871734 
L 510.670343 443.775714 
L 511.663049 429.504673 
L 512.655755 442.816485 
L 513.648461 442.485456 
L 514.641167 432.650341 
L 515.633873 438.65923 
L 516.626579 439.807173 
L 517.619285 432.723207 
L 518.611991 436.266861 
L 519.604697 443.361929 
L 520.597403 443.440622 
L 521.590109 443.872835 
L 522.582814 446.138584 
L 523.57552 443.22838 
L 524.568226 437.305252 
L 525.560932 447.014937 
L 526.553638 442.744444 
L 527.546344 437.907039 
L 528.53905 436.051859 
L 529.531756 441.15714 
L 530.524462 447.31862 
L 531.517168 436.880952 
L 532.509874 443.082859 
L 533.50258 440.544091 
L 534.495286 440.797136 
L 535.487991 437.449725 
L 536.480697 449.87287 
L 537.473403 436.005988 
L 538.466109 440.621135 
L 539.458815 450.701264 
L 540.451521 435.313069 
L 541.444227 435.542968 
L 542.436933 449.333774 
L 543.429639 453.16378 
L 544.422345 440.114393 
L 545.415051 442.450982 
L 546.407757 448.811904 
L 547.400463 448.655985 
L 548.393168 449.421379 
L 549.385874 447.780232 
L 550.37858 443.205305 
L 551.371286 446.96032 
L 552.363992 442.504163 
L 553.356698 443.956206 
L 554.349404 444.41906 
L 555.34211 452.214794 
L 556.334816 449.600129 
L 557.327522 445.941694 
L 558.320228 449.644711 
L 559.312934 449.064646 
L 560.30564 450.104238 
L 561.298345 449.578138 
L 562.291051 451.023093 
L 563.283757 442.786775 
L 564.276463 458.113846 
L 565.269169 448.482247 
L 566.261875 452.655597 
L 567.254581 454.943762 
L 568.247287 449.239524 
L 569.239993 444.942487 
L 570.232699 438.992403 
L 571.225405 444.499764 
L 572.218111 447.500107 
L 573.210817 446.3055 
L 574.203523 444.64878 
L 575.196228 453.913485 
L 576.188934 448.283496 
L 577.18164 446.837057 
L 579.167052 457.006589 
L 580.159758 445.771075 
L 581.152464 451.031723 
L 582.14517 446.117505 
L 585.123288 460.649592 
L 586.115994 446.95934 
L 587.1087 449.74971 
L 588.101405 457.106095 
L 589.094111 450.356974 
L 590.086817 452.19895 
L 591.079523 458.441317 
L 592.072229 453.193104 
L 593.064935 444.475379 
L 594.057641 456.216899 
L 595.050347 452.623306 
L 596.043053 452.51125 
L 597.035759 460.480987 
L 599.021171 451.086722 
L 600.013877 449.158921 
L 601.006582 461.407385 
L 601.999288 455.004525 
L 602.991994 452.390043 
L 603.9847 452.635179 
L 604.977406 450.108196 
L 605.970112 454.656783 
L 606.962818 452.888982 
L 607.955524 453.437427 
L 608.94823 451.7342 
L 609.940936 456.100002 
L 610.933642 453.496878 
L 611.926348 458.56745 
L 612.919054 457.225285 
L 613.911759 454.316044 
L 614.904465 458.228255 
L 615.897171 456.667722 
L 616.889877 462.342008 
L 617.882583 454.235404 
L 618.875289 456.963911 
L 619.867995 457.137608 
L 620.860701 455.021855 
L 621.853407 456.70351 
L 622.846113 457.430606 
L 623.838819 456.194006 
L 624.831525 456.681498 
L 625.824231 456.245723 
L 626.816936 458.536089 
L 627.809642 455.485689 
L 628.802348 458.237307 
L 629.795054 456.860602 
L 630.78776 457.055036 
L 631.780466 458.629059 
L 632.773172 456.169317 
L 633.765878 458.776324 
L 634.758584 457.07978 
L 635.75129 456.430146 
L 636.743996 460.924047 
L 637.736702 459.806554 
L 638.729408 458.394811 
L 639.722114 457.558894 
L 640.714819 459.913316 
L 641.707525 461.875464 
L 642.700231 459.938102 
L 643.692937 458.658239 
L 644.685643 458.175591 
L 645.678349 461.114294 
L 646.671055 460.891466 
L 647.663761 461.622508 
L 648.656467 459.054109 
L 649.649173 459.51692 
L 650.641879 462.722862 
L 651.634585 458.912774 
L 652.627291 461.938201 
L 653.619996 462.504839 
L 654.612702 459.781328 
L 655.605408 460.541184 
L 656.598114 463.63696 
L 657.59082 461.195736 
L 658.583526 461.023125 
L 659.576232 461.935764 
L 660.568938 461.345276 
L 661.561644 464.0244 
L 662.55435 463.037985 
L 663.547056 461.612056 
L 664.539762 461.779456 
L 665.532468 464.191692 
L 666.525173 462.264191 
L 667.517879 463.344113 
L 668.510585 462.674229 
L 669.503291 464.529347 
L 670.495997 462.875049 
L 671.488703 463.1049 
L 672.481409 464.496436 
L 673.474115 463.1442 
L 674.466821 463.534322 
L 675.459527 465.368043 
L 676.452233 464.807338 
L 677.444939 463.765879 
L 678.437645 465.435861 
L 679.43035 464.319998 
L 680.423056 464.967132 
L 681.415762 465.450859 
L 682.408468 464.068011 
L 683.401174 465.029772 
L 684.39388 465.648525 
L 685.386586 464.520089 
L 687.371998 465.24901 
L 688.364704 466.214459 
L 689.35741 464.944861 
L 690.350116 466.339923 
L 692.335527 464.941649 
L 693.328233 465.600896 
L 694.320939 465.728719 
L 695.313645 466.582704 
L 696.306351 466.640322 
L 697.299057 467.231112 
L 698.291763 466.629658 
L 700.277175 467.487759 
L 701.269881 467.712593 
L 702.262587 467.343884 
L 703.255293 467.651139 
L 704.247999 466.938321 
L 705.240705 467.425939 
L 706.23341 467.230983 
L 707.226116 468.576213 
L 708.218822 467.216983 
L 709.211528 467.648778 
L 710.204234 467.825916 
L 711.19694 468.543527 
L 712.189646 467.702005 
L 713.182352 467.790765 
L 714.175058 469.058412 
L 715.167764 467.766816 
L 716.16047 469.184478 
L 717.153176 468.350069 
L 718.145882 469.027808 
L 719.138587 468.928247 
L 720.131293 469.155708 
L 721.123999 468.205721 
L 722.116705 469.351397 
L 723.109411 469.066205 
L 724.102117 469.598944 
L 725.094823 469.291959 
L 726.087529 469.896195 
L 727.080235 469.479542 
L 728.072941 469.955885 
L 729.065647 470.022513 
L 730.058353 469.945312 
L 732.043764 470.687145 
L 733.03647 470.03807 
L 734.029176 470.595649 
L 735.021882 470.367828 
L 736.014588 470.93033 
L 737.007294 470.633071 
L 738 470.988075 
L 738.992706 470.649372 
L 739.985412 470.46789 
L 740.978118 471.239443 
L 741.970824 470.658986 
L 742.96353 470.847078 
L 743.956236 471.363643 
L 744.948941 470.792191 
L 745.941647 471.708938 
L 746.934353 471.425986 
L 748.919765 471.864896 
L 749.912471 471.46596 
L 750.905177 471.68927 
L 751.897883 472.388731 
L 752.890589 471.730444 
L 753.883295 472.198553 
L 755.868707 472.778693 
L 756.861413 472.514985 
L 757.854118 472.385558 
L 758.846824 472.652714 
L 759.83953 473.069646 
L 760.832236 473.088272 
L 761.824942 472.637187 
L 762.817648 472.563873 
L 763.810354 472.927646 
L 764.80306 473.085605 
L 765.795766 472.84637 
L 766.788472 473.349573 
L 767.781178 473.104512 
L 768.773884 473.630996 
L 769.76659 473.52427 
L 770.759295 473.969524 
L 771.752001 473.35908 
L 772.744707 473.895544 
L 773.737413 473.658898 
L 774.730119 473.968075 
L 775.722825 474.546847 
L 776.715531 473.58859 
L 778.700943 474.64365 
L 781.679061 474.729686 
L 782.671767 474.339493 
L 783.664473 474.498082 
L 784.657178 475.136928 
L 785.649884 475.047609 
L 786.64259 474.442099 
L 787.635296 475.284451 
L 789.620708 475.045784 
L 791.60612 475.296677 
L 794.584238 475.85234 
L 795.576944 475.577359 
L 796.56965 475.744174 
L 797.562355 475.741782 
L 798.555061 476.028427 
L 799.547767 475.935348 
L 800.540473 476.178013 
L 801.533179 476.020899 
L 802.525885 476.008641 
L 803.518591 476.189304 
L 804.511297 476.215891 
L 806.496709 476.865068 
L 807.489415 476.691927 
L 808.482121 476.852816 
L 809.474827 477.31659 
L 810.467532 476.877866 
L 811.460238 477.453598 
L 812.452944 476.906971 
L 815.431062 477.396694 
L 816.423768 477.076148 
L 817.416474 477.117932 
L 818.40918 477.620964 
L 819.401886 477.127865 
L 821.387298 477.969444 
L 822.380004 477.624538 
L 823.372709 477.759227 
L 824.365415 478.535761 
L 826.350827 477.714063 
L 827.343533 478.198528 
L 828.336239 478.320562 
L 829.328945 478.266883 
L 830.321651 478.718125 
L 831.314357 478.152402 
L 834.292475 478.623201 
L 836.277886 478.743207 
L 837.270592 478.721399 
L 838.263298 479.119354 
L 839.256004 479.204142 
L 840.24871 478.846562 
L 841.241416 479.279868 
L 842.234122 479.555517 
L 844.219534 478.671254 
L 845.21224 478.904946 
L 846.204946 479.456062 
L 847.197652 479.235156 
L 848.190358 479.208503 
L 849.183064 480.660011 
L 850.175769 479.857666 
L 851.168475 480.043163 
L 852.161181 479.719369 
L 853.153887 479.638986 
L 854.146593 480.034807 
L 855.139299 480.055662 
L 856.132005 480.612111 
L 857.124711 479.841201 
L 858.117417 480.129793 
L 859.110123 480.654057 
L 860.102829 480.42255 
L 861.095535 480.401792 
L 862.088241 481.431298 
L 864.073652 480.404233 
L 865.066358 480.42682 
L 866.059064 480.679226 
L 867.05177 480.47144 
L 868.044476 480.571807 
L 869.037182 481.499274 
L 870.029888 481.456263 
L 871.022594 481.16931 
L 872.0153 481.009837 
L 873.008006 480.709782 
L 874.993418 481.310703 
L 875.986123 481.682939 
L 876.978829 481.418897 
L 877.971535 481.447814 
L 878.964241 482.486646 
L 879.956947 481.876154 
L 880.949653 482.002055 
L 881.942359 481.746314 
L 882.935065 481.927361 
L 885.913183 481.818481 
L 888.8913 482.395833 
L 889.884006 481.772582 
L 890.876712 482.568528 
L 891.869418 482.098726 
L 893.85483 482.53158 
L 894.847536 482.591801 
L 895.840242 482.903274 
L 896.832948 482.435395 
L 897.825654 482.122941 
L 898.81836 482.842146 
L 899.811066 482.72627 
L 900.803772 482.309146 
L 901.796477 482.843527 
L 902.789183 482.52809 
L 903.781889 482.503185 
L 904.774595 483.048526 
L 905.767301 482.979165 
L 906.760007 483.326371 
L 907.752713 483.096577 
L 908.745419 483.308428 
L 909.738125 483.212778 
L 910.730831 483.826291 
L 911.723537 483.176759 
L 912.716243 483.410598 
L 913.708949 483.425332 
L 914.701655 483.607648 
L 915.69436 483.512477 
L 916.687066 483.658772 
L 918.672478 483.162991 
L 919.665184 483.770512 
L 920.65789 483.705782 
L 921.650596 483.385777 
L 922.643302 483.808088 
L 923.636008 484.071138 
L 924.628714 484.099795 
L 925.62142 483.810925 
L 926.614126 484.359964 
L 927.606832 484.404598 
L 928.599537 484.105577 
L 929.592243 484.385255 
L 930.584949 484.36388 
L 931.577655 484.55464 
L 932.570361 484.473703 
L 933.563067 483.889645 
L 934.555773 484.923656 
L 935.548479 484.803249 
L 936.541185 484.956935 
L 937.533891 484.637268 
L 938.526597 484.898946 
L 939.519303 484.111878 
L 940.512009 484.858024 
L 941.504714 485.048038 
L 942.49742 484.355382 
L 943.490126 484.784351 
L 944.482832 484.927857 
L 945.475538 484.844436 
L 946.468244 485.151331 
L 947.46095 484.830807 
L 948.453656 485.337898 
L 949.446362 484.494946 
L 952.42448 485.470909 
L 953.417186 486.073928 
L 954.409891 485.516343 
L 956.395303 485.427962 
L 958.380715 485.695688 
L 961.358833 485.930318 
L 962.351539 485.808118 
L 964.336951 486.493406 
L 965.329657 486.480075 
L 966.322363 485.187002 
L 967.315068 486.105928 
L 968.307774 486.838427 
L 969.30048 485.838342 
L 970.293186 486.069999 
L 971.285892 486.104521 
L 972.278598 486.519222 
L 973.271304 485.743887 
L 975.256716 486.720603 
L 976.249422 487.129271 
L 977.242128 486.33705 
L 978.234834 486.120919 
L 979.22754 486.551064 
L 982.205657 486.553877 
L 983.198363 486.171051 
L 985.183775 487.264913 
L 987.169187 486.662266 
L 988.161893 486.956077 
L 989.154599 486.546961 
L 990.147305 486.730247 
L 991.140011 486.526137 
L 992.132717 486.77426 
L 993.125423 487.22441 
L 995.110834 487.089644 
L 997.096246 487.502918 
L 998.088952 487.144364 
L 999.081658 487.486376 
L 1000.074364 487.471413 
L 1001.06707 487.727235 
L 1004.045188 487.345933 
L 1007.023305 487.734511 
L 1008.016011 488.45798 
L 1009.008717 487.7422 
L 1010.994129 487.719481 
L 1011.986835 487.267245 
L 1013.972247 487.515196 
L 1014.964953 487.712043 
L 1015.957659 487.770176 
L 1016.950365 488.018277 
L 1017.943071 487.32844 
L 1018.935777 487.91962 
L 1019.928482 488.119348 
L 1020.921188 487.880571 
L 1021.913894 487.765159 
L 1022.9066 488.602749 
L 1023.899306 488.784171 
L 1024.892012 488.385234 
L 1025.884718 488.994209 
L 1026.877424 488.424623 
L 1027.87013 488.049859 
L 1029.855542 488.89145 
L 1030.848248 488.608463 
L 1031.840954 488.677923 
L 1032.833659 488.994999 
L 1033.826365 488.94748 
L 1034.819071 488.571934 
L 1036.804483 488.350608 
L 1037.797189 487.896655 
L 1038.789895 488.070868 
L 1041.768013 489.120527 
L 1043.753425 489.009325 
L 1044.746131 489.245319 
L 1046.731542 488.475923 
L 1047.724248 488.999377 
L 1049.70966 489.092535 
L 1050.702366 489.483079 
L 1051.695072 488.984701 
L 1052.687778 489.12365 
L 1053.680484 489.05759 
L 1054.67319 489.904465 
L 1056.658602 488.988294 
L 1057.651308 488.90346 
L 1058.644014 489.916089 
L 1059.636719 489.470154 
L 1060.629425 489.306622 
L 1061.622131 489.5462 
L 1062.614837 488.850432 
L 1063.607543 489.468375 
L 1064.600249 489.608962 
L 1065.592955 489.44265 
L 1066.585661 489.534579 
L 1067.578367 489.501079 
L 1068.571073 489.987947 
L 1069.563779 489.959366 
L 1070.556485 489.236211 
L 1071.549191 488.99211 
L 1072.541896 489.634965 
L 1073.534602 489.88812 
L 1074.527308 489.901201 
L 1075.520014 489.560417 
L 1076.51272 490.210698 
L 1077.505426 489.49177 
L 1078.498132 490.241636 
L 1080.483544 490.376799 
L 1081.47625 489.597564 
L 1082.468956 490.173666 
L 1083.461662 490.460959 
L 1084.454368 489.780921 
L 1085.447073 490.17039 
L 1086.439779 489.805844 
L 1087.432485 489.661478 
L 1088.425191 490.246703 
L 1089.417897 490.375917 
L 1090.410603 489.955021 
L 1092.396015 490.250711 
L 1093.388721 489.921735 
L 1094.381427 489.761069 
L 1095.374133 490.672367 
L 1096.366839 490.038537 
L 1097.359545 490.093149 
L 1098.35225 490.003125 
L 1100.337662 490.524863 
L 1102.323074 490.204143 
L 1103.31578 490.866404 
L 1104.308486 490.817119 
L 1105.301192 490.240061 
L 1106.293898 490.751347 
L 1107.286604 490.77193 
L 1108.27931 490.620126 
L 1109.272016 490.687606 
L 1110.264722 490.366618 
L 1111.257428 490.561202 
L 1112.250133 490.285468 
L 1114.235545 490.754494 
L 1115.228251 490.119193 
L 1116.220957 490.150376 
L 1117.213663 490.843892 
L 1118.206369 490.607392 
L 1119.199075 491.126856 
L 1120.191781 490.330391 
L 1121.184487 490.389382 
L 1122.177193 490.857228 
L 1123.169899 490.293193 
L 1124.162605 489.989789 
L 1125.15531 490.856583 
L 1126.148016 491.095637 
L 1127.140722 490.851823 
L 1128.133428 491.533371 
L 1129.126134 490.91541 
L 1130.11884 490.785233 
L 1132.104252 491.173952 
L 1134.089664 490.558399 
L 1135.08237 490.949266 
L 1137.067782 491.017758 
L 1138.060487 490.516543 
L 1139.053193 491.4737 
L 1140.045899 491.31679 
L 1141.038605 490.95927 
L 1142.031311 491.289805 
L 1143.024017 491.86317 
L 1144.016723 490.542199 
L 1145.009429 490.840303 
L 1146.002135 491.638393 
L 1146.994841 490.303038 
L 1147.987547 491.211069 
L 1148.980253 491.544552 
L 1149.972959 490.964677 
L 1150.965664 490.985213 
L 1151.95837 491.321187 
L 1152.951076 491.13963 
L 1153.943782 491.098174 
L 1155.929194 491.30257 
L 1156.9219 490.71503 
L 1157.914606 491.535485 
L 1158.907312 491.222914 
L 1159.900018 491.362934 
L 1160.892724 491.227532 
L 1161.88543 491.329253 
L 1162.878136 491.877915 
L 1163.870841 491.39721 
L 1164.863547 491.357416 
L 1165.856253 491.80709 
L 1166.848959 491.970698 
L 1167.841665 491.659664 
L 1168.834371 492.037734 
L 1169.827077 492.171274 
L 1171.812489 491.046146 
L 1172.805195 491.223417 
L 1173.797901 491.282842 
L 1174.790607 490.956595 
L 1175.783313 491.514592 
L 1177.768724 491.431733 
L 1178.76143 491.665445 
L 1179.754136 491.550691 
L 1180.746842 491.209041 
L 1181.739548 491.879659 
L 1182.732254 491.969128 
L 1183.72496 491.182384 
L 1185.710372 491.9326 
L 1186.703078 491.547013 
L 1187.695784 491.745613 
L 1188.68849 491.477944 
L 1189.681196 491.538587 
L 1190.673901 491.437343 
L 1191.666607 491.920892 
L 1192.659313 491.939719 
L 1193.652019 491.831682 
L 1194.644725 491.868808 
L 1195.637431 491.466005 
L 1197.622843 492.157534 
L 1199.608255 491.462575 
L 1200.600961 491.908987 
L 1201.593667 491.584585 
L 1202.586373 491.709279 
L 1204.571784 492.383868 
L 1206.557196 491.605419 
L 1207.549902 492.409777 
L 1209.535314 492.48 
L 1211.520726 491.712724 
L 1212.513432 491.911773 
L 1213.506138 492.382435 
L 1214.498844 491.555626 
L 1215.49155 491.227775 
L 1216.484255 491.868535 
L 1217.476961 491.327221 
L 1218.469667 492.39393 
L 1219.462373 491.766915 
L 1220.455079 491.382603 
L 1221.447785 492.007284 
L 1223.433197 491.809381 
L 1224.425903 491.340127 
L 1225.418609 491.569857 
L 1226.411315 491.550626 
L 1227.404021 491.854099 
L 1228.396727 491.717355 
L 1230.382138 492.01971 
L 1231.374844 491.154738 
L 1233.360256 491.990774 
L 1234.352962 491.874193 
L 1235.345668 492.063489 
L 1236.338374 491.347189 
L 1237.33108 491.881602 
L 1238.323786 492.108577 
L 1239.316492 491.964563 
L 1240.309198 491.606686 
L 1241.301904 491.455517 
L 1242.29461 491.792359 
L 1244.280021 491.332391 
L 1245.272727 492.110908 
L 1245.272727 492.110908 
" clip-path="url(#p06cb01afda)" style="fill: none; stroke: #1f77b4; stroke-width: 1.5; stroke-linecap: square"/>
   </g>
   <g id="patch_3">
    <path d="M 180 512.64 
L 180 69.12 
" style="fill: none; stroke: #000000; stroke-width: 0.8; stroke-linejoin: miter; stroke-linecap: square"/>
   </g>
   <g id="patch_4">
    <path d="M 1296 512.64 
L 1296 69.12 
" style="fill: none; stroke: #000000; stroke-width: 0.8; stroke-linejoin: miter; stroke-linecap: square"/>
   </g>
   <g id="patch_5">
    <path d="M 180 512.64 
L 1296 512.64 
" style="fill: none; stroke: #000000; stroke-width: 0.8; stroke-linejoin: miter; stroke-linecap: square"/>
   </g>
   <g id="patch_6">
    <path d="M 180 69.12 
L 1296 69.12 
" style="fill: none; stroke: #000000; stroke-width: 0.8; stroke-linejoin: miter; stroke-linecap: square"/>
   </g>
   <g id="text_15">
    <!-- source1-receiver19 -->
    <g transform="translate(544.9 60.80125) scale(0.4 -0.4)">
     <defs>
      <path id="DejaVuSans-73" d="M 2834 3397 
L 2834 2853 
Q 2591 2978 2328 3040 
Q 2066 3103 1784 3103 
Q 1356 3103 1142 2972 
Q 928 2841 928 2578 
Q 928 2378 1081 2264 
Q 1234 2150 1697 2047 
L 1894 2003 
Q 2506 1872 2764 1633 
Q 3022 1394 3022 966 
Q 3022 478 2636 193 
Q 2250 -91 1575 -91 
Q 1294 -91 989 -36 
Q 684 19 347 128 
L 347 722 
Q 666 556 975 473 
Q 1284 391 1588 391 
Q 1994 391 2212 530 
Q 2431 669 2431 922 
Q 2431 1156 2273 1281 
Q 2116 1406 1581 1522 
L 1381 1569 
Q 847 1681 609 1914 
Q 372 2147 372 2553 
Q 372 3047 722 3315 
Q 1072 3584 1716 3584 
Q 2034 3584 2315 3537 
Q 2597 3491 2834 3397 
z
" transform="scale(0.015625)"/>
      <path id="DejaVuSans-6f" d="M 1959 3097 
Q 1497 3097 1228 2736 
Q 959 2375 959 1747 
Q 959 1119 1226 758 
Q 1494 397 1959 397 
Q 2419 397 2687 759 
Q 2956 1122 2956 1747 
Q 2956 2369 2687 2733 
Q 2419 3097 1959 3097 
z
M 1959 3584 
Q 2709 3584 3137 3096 
Q 3566 2609 3566 1747 
Q 3566 888 3137 398 
Q 2709 -91 1959 -91 
Q 1206 -91 779 398 
Q 353 888 353 1747 
Q 353 2609 779 3096 
Q 1206 3584 1959 3584 
z
" transform="scale(0.015625)"/>
      <path id="DejaVuSans-75" d="M 544 1381 
L 544 3500 
L 1119 3500 
L 1119 1403 
Q 1119 906 1312 657 
Q 1506 409 1894 409 
Q 2359 409 2629 706 
Q 2900 1003 2900 1516 
L 2900 3500 
L 3475 3500 
L 3475 0 
L 2900 0 
L 2900 538 
Q 2691 219 2414 64 
Q 2138 -91 1772 -91 
Q 1169 -91 856 284 
Q 544 659 544 1381 
z
M 1991 3584 
L 1991 3584 
z
" transform="scale(0.015625)"/>
      <path id="DejaVuSans-72" d="M 2631 2963 
Q 2534 3019 2420 3045 
Q 2306 3072 2169 3072 
Q 1681 3072 1420 2755 
Q 1159 2438 1159 1844 
L 1159 0 
L 581 0 
L 581 3500 
L 1159 3500 
L 1159 2956 
Q 1341 3275 1631 3429 
Q 1922 3584 2338 3584 
Q 2397 3584 2469 3576 
Q 2541 3569 2628 3553 
L 2631 2963 
z
" transform="scale(0.015625)"/>
      <path id="DejaVuSans-63" d="M 3122 3366 
L 3122 2828 
Q 2878 2963 2633 3030 
Q 2388 3097 2138 3097 
Q 1578 3097 1268 2742 
Q 959 2388 959 1747 
Q 959 1106 1268 751 
Q 1578 397 2138 397 
Q 2388 397 2633 464 
Q 2878 531 3122 666 
L 3122 134 
Q 2881 22 2623 -34 
Q 2366 -91 2075 -91 
Q 1284 -91 818 406 
Q 353 903 353 1747 
Q 353 2603 823 3093 
Q 1294 3584 2113 3584 
Q 2378 3584 2631 3529 
Q 2884 3475 3122 3366 
z
" transform="scale(0.015625)"/>
      <path id="DejaVuSans-65" d="M 3597 1894 
L 3597 1613 
L 953 1613 
Q 991 1019 1311 708 
Q 1631 397 2203 397 
Q 2534 397 2845 478 
Q 3156 559 3463 722 
L 3463 178 
Q 3153 47 2828 -22 
Q 2503 -91 2169 -91 
Q 1331 -91 842 396 
Q 353 884 353 1716 
Q 353 2575 817 3079 
Q 1281 3584 2069 3584 
Q 2775 3584 3186 3129 
Q 3597 2675 3597 1894 
z
M 3022 2063 
Q 3016 2534 2758 2815 
Q 2500 3097 2075 3097 
Q 1594 3097 1305 2825 
Q 1016 2553 972 2059 
L 3022 2063 
z
" transform="scale(0.015625)"/>
      <path id="DejaVuSans-2d" d="M 313 2009 
L 1997 2009 
L 1997 1497 
L 313 1497 
L 313 2009 
z
" transform="scale(0.015625)"/>
      <path id="DejaVuSans-69" d="M 603 3500 
L 1178 3500 
L 1178 0 
L 603 0 
L 603 3500 
z
M 603 4863 
L 1178 4863 
L 1178 4134 
L 603 4134 
L 603 4863 
z
" transform="scale(0.015625)"/>
      <path id="DejaVuSans-76" d="M 191 3500 
L 800 3500 
L 1894 563 
L 2988 3500 
L 3597 3500 
L 2284 0 
L 1503 0 
L 191 3500 
z
" transform="scale(0.015625)"/>
      <path id="DejaVuSans-39" d="M 703 97 
L 703 672 
Q 941 559 1184 500 
Q 1428 441 1663 441 
Q 2288 441 2617 861 
Q 2947 1281 2994 2138 
Q 2813 1869 2534 1725 
Q 2256 1581 1919 1581 
Q 1219 1581 811 2004 
Q 403 2428 403 3163 
Q 403 3881 828 4315 
Q 1253 4750 1959 4750 
Q 2769 4750 3195 4129 
Q 3622 3509 3622 2328 
Q 3622 1225 3098 567 
Q 2575 -91 1691 -91 
Q 1453 -91 1209 -44 
Q 966 3 703 97 
z
M 1959 2075 
Q 2384 2075 2632 2365 
Q 2881 2656 2881 3163 
Q 2881 3666 2632 3958 
Q 2384 4250 1959 4250 
Q 1534 4250 1286 3958 
Q 1038 3666 1038 3163 
Q 1038 2656 1286 2365 
Q 1534 2075 1959 2075 
z
" transform="scale(0.015625)"/>
     </defs>
     <use xlink:href="#DejaVuSans-73"/>
     <use xlink:href="#DejaVuSans-6f" x="52.099609"/>
     <use xlink:href="#DejaVuSans-75" x="113.28125"/>
     <use xlink:href="#DejaVuSans-72" x="176.660156"/>
     <use xlink:href="#DejaVuSans-63" x="215.523438"/>
     <use xlink:href="#DejaVuSans-65" x="270.503906"/>
     <use xlink:href="#DejaVuSans-31" x="332.027344"/>
     <use xlink:href="#DejaVuSans-2d" x="395.650391"/>
     <use xlink:href="#DejaVuSans-72" x="431.734375"/>
     <use xlink:href="#DejaVuSans-65" x="470.597656"/>
     <use xlink:href="#DejaVuSans-63" x="532.121094"/>
     <use xlink:href="#DejaVuSans-65" x="587.101562"/>
     <use xlink:href="#DejaVuSans-69" x="648.625"/>
     <use xlink:href="#DejaVuSans-76" x="676.408203"/>
     <use xlink:href="#DejaVuSans-65" x="735.587891"/>
     <use xlink:href="#DejaVuSans-72" x="797.111328"/>
     <use xlink:href="#DejaVuSans-31" x="838.224609"/>
     <use xlink:href="#DejaVuSans-39" x="901.847656"/>
    </g>
   </g>
  </g>
 </g>
 <defs>
  <clipPath id="p06cb01afda">
   <rect x="180" y="69.12" width="1116" height="443.52"/>
  </clipPath>
 </defs>
</svg>
