<?xml version="1.0" encoding="utf-8" standalone="no"?>
<!DOCTYPE svg PUBLIC "-//W3C//DTD SVG 1.1//EN"
  "http://www.w3.org/Graphics/SVG/1.1/DTD/svg11.dtd">
<svg xmlns:xlink="http://www.w3.org/1999/xlink" width="1440pt" height="576pt" viewBox="0 0 1440 576" xmlns="http://www.w3.org/2000/svg" version="1.1">
 <metadata>
  <rdf:RDF xmlns:dc="http://purl.org/dc/elements/1.1/" xmlns:cc="http://creativecommons.org/ns#" xmlns:rdf="http://www.w3.org/1999/02/22-rdf-syntax-ns#">
   <cc:Work>
    <dc:type rdf:resource="http://purl.org/dc/dcmitype/StillImage"/>
    <dc:date>2024-05-22T04:50:24.059438</dc:date>
    <dc:format>image/svg+xml</dc:format>
    <dc:creator>
     <cc:Agent>
      <dc:title>Matplotlib v3.8.3, https://matplotlib.org/</dc:title>
     </cc:Agent>
    </dc:creator>
   </cc:Work>
  </rdf:RDF>
 </metadata>
 <defs>
  <style type="text/css">*{stroke-linejoin: round; stroke-linecap: butt}</style>
 </defs>
 <g id="figure_1">
  <g id="patch_1">
   <path d="M 0 576 
L 1440 576 
L 1440 0 
L 0 0 
z
" style="fill: #ffffff"/>
  </g>
  <g id="axes_1">
   <g id="patch_2">
    <path d="M 180 512.64 
L 1296 512.64 
L 1296 69.12 
L 180 69.12 
z
" style="fill: #ffffff"/>
   </g>
   <g id="matplotlib.axis_1">
    <g id="xtick_1">
     <g id="line2d_1">
      <defs>
       <path id="m2283c23b4e" d="M 0 0 
L 0 3.5 
" style="stroke: #000000; stroke-width: 0.8"/>
      </defs>
      <g>
       <use xlink:href="#m2283c23b4e" x="229.734567" y="512.64" style="stroke: #000000; stroke-width: 0.8"/>
      </g>
     </g>
     <g id="text_1">
      <!-- 0 -->
      <g transform="translate(226.553317 527.238438) scale(0.1 -0.1)">
       <defs>
        <path id="DejaVuSans-30" d="M 2034 4250 
Q 1547 4250 1301 3770 
Q 1056 3291 1056 2328 
Q 1056 1369 1301 889 
Q 1547 409 2034 409 
Q 2525 409 2770 889 
Q 3016 1369 3016 2328 
Q 3016 3291 2770 3770 
Q 2525 4250 2034 4250 
z
M 2034 4750 
Q 2819 4750 3233 4129 
Q 3647 3509 3647 2328 
Q 3647 1150 3233 529 
Q 2819 -91 2034 -91 
Q 1250 -91 836 529 
Q 422 1150 422 2328 
Q 422 3509 836 4129 
Q 1250 4750 2034 4750 
z
" transform="scale(0.015625)"/>
       </defs>
       <use xlink:href="#DejaVuSans-30"/>
      </g>
     </g>
    </g>
    <g id="xtick_2">
     <g id="line2d_2">
      <g>
       <use xlink:href="#m2283c23b4e" x="433.04074" y="512.64" style="stroke: #000000; stroke-width: 0.8"/>
      </g>
     </g>
     <g id="text_2">
      <!-- 500 -->
      <g transform="translate(423.49699 527.238438) scale(0.1 -0.1)">
       <defs>
        <path id="DejaVuSans-35" d="M 691 4666 
L 3169 4666 
L 3169 4134 
L 1269 4134 
L 1269 2991 
Q 1406 3038 1543 3061 
Q 1681 3084 1819 3084 
Q 2600 3084 3056 2656 
Q 3513 2228 3513 1497 
Q 3513 744 3044 326 
Q 2575 -91 1722 -91 
Q 1428 -91 1123 -41 
Q 819 9 494 109 
L 494 744 
Q 775 591 1075 516 
Q 1375 441 1709 441 
Q 2250 441 2565 725 
Q 2881 1009 2881 1497 
Q 2881 1984 2565 2268 
Q 2250 2553 1709 2553 
Q 1456 2553 1204 2497 
Q 953 2441 691 2322 
L 691 4666 
z
" transform="scale(0.015625)"/>
       </defs>
       <use xlink:href="#DejaVuSans-35"/>
       <use xlink:href="#DejaVuSans-30" x="63.623047"/>
       <use xlink:href="#DejaVuSans-30" x="127.246094"/>
      </g>
     </g>
    </g>
    <g id="xtick_3">
     <g id="line2d_3">
      <g>
       <use xlink:href="#m2283c23b4e" x="636.346913" y="512.64" style="stroke: #000000; stroke-width: 0.8"/>
      </g>
     </g>
     <g id="text_3">
      <!-- 1000 -->
      <g transform="translate(623.621913 527.238438) scale(0.1 -0.1)">
       <defs>
        <path id="DejaVuSans-31" d="M 794 531 
L 1825 531 
L 1825 4091 
L 703 3866 
L 703 4441 
L 1819 4666 
L 2450 4666 
L 2450 531 
L 3481 531 
L 3481 0 
L 794 0 
L 794 531 
z
" transform="scale(0.015625)"/>
       </defs>
       <use xlink:href="#DejaVuSans-31"/>
       <use xlink:href="#DejaVuSans-30" x="63.623047"/>
       <use xlink:href="#DejaVuSans-30" x="127.246094"/>
       <use xlink:href="#DejaVuSans-30" x="190.869141"/>
      </g>
     </g>
    </g>
    <g id="xtick_4">
     <g id="line2d_4">
      <g>
       <use xlink:href="#m2283c23b4e" x="839.653087" y="512.64" style="stroke: #000000; stroke-width: 0.8"/>
      </g>
     </g>
     <g id="text_4">
      <!-- 1500 -->
      <g transform="translate(826.928087 527.238438) scale(0.1 -0.1)">
       <use xlink:href="#DejaVuSans-31"/>
       <use xlink:href="#DejaVuSans-35" x="63.623047"/>
       <use xlink:href="#DejaVuSans-30" x="127.246094"/>
       <use xlink:href="#DejaVuSans-30" x="190.869141"/>
      </g>
     </g>
    </g>
    <g id="xtick_5">
     <g id="line2d_5">
      <g>
       <use xlink:href="#m2283c23b4e" x="1042.95926" y="512.64" style="stroke: #000000; stroke-width: 0.8"/>
      </g>
     </g>
     <g id="text_5">
      <!-- 2000 -->
      <g transform="translate(1030.23426 527.238438) scale(0.1 -0.1)">
       <defs>
        <path id="DejaVuSans-32" d="M 1228 531 
L 3431 531 
L 3431 0 
L 469 0 
L 469 531 
Q 828 903 1448 1529 
Q 2069 2156 2228 2338 
Q 2531 2678 2651 2914 
Q 2772 3150 2772 3378 
Q 2772 3750 2511 3984 
Q 2250 4219 1831 4219 
Q 1534 4219 1204 4116 
Q 875 4013 500 3803 
L 500 4441 
Q 881 4594 1212 4672 
Q 1544 4750 1819 4750 
Q 2544 4750 2975 4387 
Q 3406 4025 3406 3419 
Q 3406 3131 3298 2873 
Q 3191 2616 2906 2266 
Q 2828 2175 2409 1742 
Q 1991 1309 1228 531 
z
" transform="scale(0.015625)"/>
       </defs>
       <use xlink:href="#DejaVuSans-32"/>
       <use xlink:href="#DejaVuSans-30" x="63.623047"/>
       <use xlink:href="#DejaVuSans-30" x="127.246094"/>
       <use xlink:href="#DejaVuSans-30" x="190.869141"/>
      </g>
     </g>
    </g>
    <g id="xtick_6">
     <g id="line2d_6">
      <g>
       <use xlink:href="#m2283c23b4e" x="1246.265433" y="512.64" style="stroke: #000000; stroke-width: 0.8"/>
      </g>
     </g>
     <g id="text_6">
      <!-- 2500 -->
      <g transform="translate(1233.540433 527.238438) scale(0.1 -0.1)">
       <use xlink:href="#DejaVuSans-32"/>
       <use xlink:href="#DejaVuSans-35" x="63.623047"/>
       <use xlink:href="#DejaVuSans-30" x="127.246094"/>
       <use xlink:href="#DejaVuSans-30" x="190.869141"/>
      </g>
     </g>
    </g>
   </g>
   <g id="matplotlib.axis_2">
    <g id="ytick_1">
     <g id="line2d_7">
      <defs>
       <path id="m535ab4e9d2" d="M 0 0 
L -3.5 0 
" style="stroke: #000000; stroke-width: 0.8"/>
      </defs>
      <g>
       <use xlink:href="#m535ab4e9d2" x="180" y="474.454805" style="stroke: #000000; stroke-width: 0.8"/>
      </g>
     </g>
     <g id="text_7">
      <!-- −4 -->
      <g transform="translate(158.257812 478.254023) scale(0.1 -0.1)">
       <defs>
        <path id="DejaVuSans-2212" d="M 678 2272 
L 4684 2272 
L 4684 1741 
L 678 1741 
L 678 2272 
z
" transform="scale(0.015625)"/>
        <path id="DejaVuSans-34" d="M 2419 4116 
L 825 1625 
L 2419 1625 
L 2419 4116 
z
M 2253 4666 
L 3047 4666 
L 3047 1625 
L 3713 1625 
L 3713 1100 
L 3047 1100 
L 3047 0 
L 2419 0 
L 2419 1100 
L 313 1100 
L 313 1709 
L 2253 4666 
z
" transform="scale(0.015625)"/>
       </defs>
       <use xlink:href="#DejaVuSans-2212"/>
       <use xlink:href="#DejaVuSans-34" x="83.789062"/>
      </g>
     </g>
    </g>
    <g id="ytick_2">
     <g id="line2d_8">
      <g>
       <use xlink:href="#m535ab4e9d2" x="180" y="418.049706" style="stroke: #000000; stroke-width: 0.8"/>
      </g>
     </g>
     <g id="text_8">
      <!-- −3 -->
      <g transform="translate(158.257812 421.848925) scale(0.1 -0.1)">
       <defs>
        <path id="DejaVuSans-33" d="M 2597 2516 
Q 3050 2419 3304 2112 
Q 3559 1806 3559 1356 
Q 3559 666 3084 287 
Q 2609 -91 1734 -91 
Q 1441 -91 1130 -33 
Q 819 25 488 141 
L 488 750 
Q 750 597 1062 519 
Q 1375 441 1716 441 
Q 2309 441 2620 675 
Q 2931 909 2931 1356 
Q 2931 1769 2642 2001 
Q 2353 2234 1838 2234 
L 1294 2234 
L 1294 2753 
L 1863 2753 
Q 2328 2753 2575 2939 
Q 2822 3125 2822 3475 
Q 2822 3834 2567 4026 
Q 2313 4219 1838 4219 
Q 1578 4219 1281 4162 
Q 984 4106 628 3988 
L 628 4550 
Q 988 4650 1302 4700 
Q 1616 4750 1894 4750 
Q 2613 4750 3031 4423 
Q 3450 4097 3450 3541 
Q 3450 3153 3228 2886 
Q 3006 2619 2597 2516 
z
" transform="scale(0.015625)"/>
       </defs>
       <use xlink:href="#DejaVuSans-2212"/>
       <use xlink:href="#DejaVuSans-33" x="83.789062"/>
      </g>
     </g>
    </g>
    <g id="ytick_3">
     <g id="line2d_9">
      <g>
       <use xlink:href="#m535ab4e9d2" x="180" y="361.644607" style="stroke: #000000; stroke-width: 0.8"/>
      </g>
     </g>
     <g id="text_9">
      <!-- −2 -->
      <g transform="translate(158.257812 365.443826) scale(0.1 -0.1)">
       <use xlink:href="#DejaVuSans-2212"/>
       <use xlink:href="#DejaVuSans-32" x="83.789062"/>
      </g>
     </g>
    </g>
    <g id="ytick_4">
     <g id="line2d_10">
      <g>
       <use xlink:href="#m535ab4e9d2" x="180" y="305.239509" style="stroke: #000000; stroke-width: 0.8"/>
      </g>
     </g>
     <g id="text_10">
      <!-- −1 -->
      <g transform="translate(158.257812 309.038728) scale(0.1 -0.1)">
       <use xlink:href="#DejaVuSans-2212"/>
       <use xlink:href="#DejaVuSans-31" x="83.789062"/>
      </g>
     </g>
    </g>
    <g id="ytick_5">
     <g id="line2d_11">
      <g>
       <use xlink:href="#m535ab4e9d2" x="180" y="248.83441" style="stroke: #000000; stroke-width: 0.8"/>
      </g>
     </g>
     <g id="text_11">
      <!-- 0 -->
      <g transform="translate(166.6375 252.633629) scale(0.1 -0.1)">
       <use xlink:href="#DejaVuSans-30"/>
      </g>
     </g>
    </g>
    <g id="ytick_6">
     <g id="line2d_12">
      <g>
       <use xlink:href="#m535ab4e9d2" x="180" y="192.429312" style="stroke: #000000; stroke-width: 0.8"/>
      </g>
     </g>
     <g id="text_12">
      <!-- 1 -->
      <g transform="translate(166.6375 196.22853) scale(0.1 -0.1)">
       <use xlink:href="#DejaVuSans-31"/>
      </g>
     </g>
    </g>
    <g id="ytick_7">
     <g id="line2d_13">
      <g>
       <use xlink:href="#m535ab4e9d2" x="180" y="136.024213" style="stroke: #000000; stroke-width: 0.8"/>
      </g>
     </g>
     <g id="text_13">
      <!-- 2 -->
      <g transform="translate(166.6375 139.823432) scale(0.1 -0.1)">
       <use xlink:href="#DejaVuSans-32"/>
      </g>
     </g>
    </g>
    <g id="ytick_8">
     <g id="line2d_14">
      <g>
       <use xlink:href="#m535ab4e9d2" x="180" y="79.619115" style="stroke: #000000; stroke-width: 0.8"/>
      </g>
     </g>
     <g id="text_14">
      <!-- 3 -->
      <g transform="translate(166.6375 83.418333) scale(0.1 -0.1)">
       <use xlink:href="#DejaVuSans-33"/>
      </g>
     </g>
    </g>
   </g>
   <g id="line2d_15">
    <path d="M 230.727273 414.24909 
L 231.719979 413.409008 
L 232.712685 411.465474 
L 233.70539 407.901858 
L 235.690802 398.147765 
L 236.683508 397.944399 
L 238.66892 387.13111 
L 239.661626 384.197632 
L 241.647038 377.232842 
L 243.63245 370.970581 
L 244.625156 366.286388 
L 245.617862 366.171469 
L 246.610568 394.694011 
L 247.603273 370.167591 
L 248.595979 282.367177 
L 249.588685 232.776232 
L 250.581391 200.143593 
L 251.574097 177.749891 
L 252.566803 164.03817 
L 253.559509 161.918348 
L 254.552215 170.598001 
L 256.537627 217.886821 
L 257.530333 201.936985 
L 258.523039 199.54445 
L 259.515745 238.449795 
L 260.50845 241.882507 
L 261.501156 181.757983 
L 262.493862 167.400004 
L 263.486568 175.966862 
L 264.479274 210.755073 
L 265.47198 207.210349 
L 266.464686 182.474225 
L 267.457392 186.731 
L 268.450098 215.163509 
L 269.442804 200.259031 
L 270.43551 176.349966 
L 271.428216 176.251638 
L 272.420922 203.021911 
L 273.413627 280.467575 
L 274.406333 216.888885 
L 275.399039 192.191579 
L 276.391745 197.805111 
L 277.384451 244.917115 
L 279.369863 150.82958 
L 280.362569 122.754325 
L 281.355275 106.775352 
L 282.347981 97.082181 
L 283.340687 92.815885 
L 284.333393 89.283721 
L 285.326099 89.28 
L 286.318804 92.691711 
L 287.31151 105.6129 
L 288.304216 135.271198 
L 289.296922 183.849238 
L 290.289628 151.260378 
L 291.282334 130.77061 
L 292.27504 132.303016 
L 293.267746 150.029624 
L 294.260452 182.779935 
L 295.253158 210.563992 
L 296.245864 218.267849 
L 297.23857 240.391237 
L 298.231276 246.202219 
L 299.223981 229.660244 
L 300.216687 239.700717 
L 301.209393 286.331294 
L 302.202099 313.29205 
L 303.194805 277.783556 
L 304.187511 298.494784 
L 305.180217 346.719312 
L 306.172923 357.450991 
L 307.165629 304.295045 
L 308.158335 307.332451 
L 309.151041 304.040784 
L 310.143747 311.717775 
L 311.136453 322.296084 
L 312.129159 315.988404 
L 313.121864 308.212018 
L 314.11457 303.604584 
L 315.107276 322.24224 
L 316.099982 316.997785 
L 317.092688 312.639127 
L 318.085394 330.79084 
L 319.0781 315.29102 
L 320.070806 326.763105 
L 321.063512 315.504375 
L 322.056218 334.284322 
L 323.048924 314.048377 
L 324.04163 330.67845 
L 325.034336 319.038991 
L 326.027041 326.053966 
L 327.019747 336.909094 
L 329.005159 323.021358 
L 329.997865 329.939716 
L 330.990571 330.713656 
L 331.983277 339.3176 
L 332.975983 319.613913 
L 333.968689 334.697266 
L 334.961395 330.286139 
L 335.954101 333.669577 
L 336.946807 338.250638 
L 337.939513 338.712338 
L 338.932218 349.940332 
L 339.924924 327.68958 
L 340.91763 347.614845 
L 341.910336 326.946701 
L 342.903042 332.564831 
L 343.895748 327.765685 
L 344.888454 347.021359 
L 345.88116 337.724076 
L 346.873866 339.900783 
L 347.866572 345.132671 
L 348.859278 355.050859 
L 349.851984 340.066766 
L 350.84469 351.627636 
L 351.837395 356.331157 
L 352.830101 348.967884 
L 353.822807 342.805963 
L 354.815513 365.987072 
L 355.808219 344.342185 
L 356.800925 352.099851 
L 357.793631 346.421166 
L 358.786337 330.50078 
L 359.779043 351.633658 
L 360.771749 339.83388 
L 361.764455 374.736259 
L 362.757161 336.686399 
L 363.749867 342.239937 
L 364.742572 365.301284 
L 365.735278 368.48368 
L 366.727984 343.074551 
L 367.72069 337.119413 
L 368.713396 392.588623 
L 369.706102 341.747219 
L 370.698808 350.87234 
L 371.691514 367.553246 
L 372.68422 376.970369 
L 373.676926 336.335611 
L 374.669632 370.709699 
L 375.662338 366.638595 
L 376.655044 339.390544 
L 377.64775 360.014876 
L 378.640455 369.738403 
L 379.633161 348.860569 
L 380.625867 363.561883 
L 381.618573 411.488745 
L 382.611279 353.190039 
L 383.603985 353.851477 
L 384.596691 355.109949 
L 385.589397 377.354692 
L 386.582103 362.633293 
L 387.574809 358.093117 
L 388.567515 364.595787 
L 389.560221 372.230754 
L 390.552927 383.265882 
L 391.545632 366.864026 
L 392.538338 362.467297 
L 393.531044 363.616091 
L 394.52375 353.186149 
L 395.516456 374.446181 
L 396.509162 362.648187 
L 397.501868 372.258423 
L 398.494574 373.479478 
L 399.48728 356.907093 
L 400.479986 355.669356 
L 401.472692 377.774063 
L 402.465398 361.930729 
L 403.458104 354.408094 
L 404.450809 379.896538 
L 405.443515 360.444913 
L 406.436221 345.060544 
L 407.428927 384.721862 
L 409.414339 355.81629 
L 410.407045 384.960324 
L 411.399751 353.451518 
L 412.392457 377.122545 
L 413.385163 354.920146 
L 414.377869 367.372267 
L 415.370575 389.641399 
L 417.355986 354.036554 
L 418.348692 394.884455 
L 419.341398 368.232959 
L 420.334104 364.55496 
L 421.32681 353.616747 
L 422.319516 385.59797 
L 423.312222 366.562463 
L 424.304928 391.49114 
L 425.297634 374.068633 
L 426.29034 377.4093 
L 427.283046 382.329263 
L 428.275752 400.419798 
L 429.268458 378.41879 
L 430.261163 369.684881 
L 431.253869 363.087174 
L 432.246575 380.59783 
L 433.239281 381.05567 
L 434.231987 373.294988 
L 435.224693 391.23276 
L 436.217399 358.3905 
L 437.210105 373.665525 
L 438.202811 377.654879 
L 439.195517 385.595473 
L 440.188223 365.770853 
L 441.180929 376.456183 
L 442.173635 378.540475 
L 443.166341 375.472682 
L 444.159046 407.068056 
L 445.151752 366.632263 
L 446.144458 423.77198 
L 447.137164 376.079688 
L 448.12987 381.16116 
L 449.122576 365.897046 
L 450.115282 380.724698 
L 451.107988 363.983873 
L 452.100694 407.730749 
L 453.0934 396.041767 
L 454.086106 394.400384 
L 455.078812 386.12855 
L 456.071518 382.520919 
L 457.064223 397.205176 
L 458.056929 378.86964 
L 459.049635 395.758582 
L 460.042341 374.535112 
L 461.035047 376.341021 
L 462.027753 375.556188 
L 463.020459 403.520761 
L 464.013165 379.936478 
L 465.005871 374.224127 
L 465.998577 375.586004 
L 466.991283 375.409851 
L 467.983989 383.92002 
L 468.976695 386.494847 
L 469.9694 384.139695 
L 470.962106 391.555547 
L 471.954812 388.449828 
L 472.947518 397.189471 
L 473.940224 393.018645 
L 474.93293 467.091409 
L 475.925636 395.285436 
L 476.918342 375.187615 
L 477.911048 382.072665 
L 478.903754 369.917606 
L 479.89646 412.879391 
L 480.889166 382.484327 
L 481.881872 372.382318 
L 482.874577 406.551543 
L 483.867283 381.419188 
L 484.859989 376.730058 
L 485.852695 394.401799 
L 486.845401 394.567503 
L 487.838107 369.64097 
L 488.830813 393.300354 
L 489.823519 363.98422 
L 490.816225 405.669418 
L 491.808931 374.468457 
L 493.794343 400.479846 
L 494.787049 425.526225 
L 495.779754 420.047378 
L 496.77246 392.280965 
L 497.765166 422.14674 
L 498.757872 388.909965 
L 499.750578 407.536007 
L 500.743284 376.963167 
L 501.73599 394.367351 
L 502.728696 386.534926 
L 503.721402 438.350873 
L 504.714108 369.708405 
L 505.706814 398.624604 
L 506.69952 350.316453 
L 507.692226 430.383137 
L 508.684932 409.064036 
L 509.677637 348.864135 
L 510.670343 370.644072 
L 511.663049 348.130735 
L 512.655755 480.028662 
L 513.648461 343.497821 
L 514.641167 381.519318 
L 515.633873 427.378631 
L 516.626579 379.792735 
L 517.619285 382.28153 
L 518.611991 431.572754 
L 519.604697 327.93651 
L 520.597403 381.152997 
L 521.590109 413.255507 
L 522.582814 374.757642 
L 523.57552 399.399971 
L 524.568226 365.837652 
L 525.560932 433.341631 
L 526.553638 386.017952 
L 527.546344 366.248629 
L 528.53905 426.204896 
L 529.531756 368.103911 
L 530.524462 337.028656 
L 531.517168 388.926103 
L 532.509874 362.819772 
L 533.50258 368.931783 
L 534.495286 415.38823 
L 535.487991 420.721551 
L 536.480697 421.094601 
L 537.473403 341.122638 
L 538.466109 340.795691 
L 539.458815 337.016078 
L 540.451521 327.553511 
L 541.444227 392.509292 
L 542.436933 379.563094 
L 543.429639 369.47029 
L 544.422345 391.019801 
L 545.415051 388.109253 
L 546.407757 376.370576 
L 547.400463 400.158336 
L 548.393168 392.99884 
L 549.385874 413.687845 
L 550.37858 422.087243 
L 551.371286 387.334332 
L 552.363992 405.364986 
L 553.356698 368.74212 
L 554.349404 431.479979 
L 555.34211 438.670696 
L 556.334816 390.297338 
L 557.327522 353.950582 
L 558.320228 386.12756 
L 559.312934 379.666724 
L 560.30564 428.123771 
L 561.298345 392.981552 
L 562.291051 407.734331 
L 563.283757 371.391575 
L 564.276463 394.479057 
L 565.269169 387.111565 
L 566.261875 359.166881 
L 567.254581 408.613612 
L 568.247287 492.48 
L 569.239993 368.969645 
L 570.232699 391.653336 
L 571.225405 427.18112 
L 572.218111 372.618677 
L 573.210817 394.322738 
L 574.203523 396.064742 
L 575.196228 402.348293 
L 576.188934 432.818156 
L 577.18164 389.905808 
L 578.174346 416.01585 
L 579.167052 375.239646 
L 580.159758 373.182278 
L 582.14517 436.999146 
L 583.137876 400.673314 
L 584.130582 419.790325 
L 585.123288 390.382331 
L 586.115994 403.995708 
L 587.1087 404.569883 
L 588.101405 398.681366 
L 589.094111 439.455939 
L 590.086817 375.195924 
L 591.079523 410.100827 
L 592.072229 407.100643 
L 593.064935 414.608871 
L 594.057641 385.738288 
L 595.050347 447.883982 
L 596.043053 417.024115 
L 597.035759 404.600523 
L 598.028465 413.616181 
L 599.021171 399.781413 
L 600.013877 415.838199 
L 601.006582 415.988836 
L 601.999288 406.258017 
L 602.991994 426.907513 
L 603.9847 399.35507 
L 604.977406 423.669739 
L 605.970112 428.924007 
L 606.962818 414.671555 
L 607.955524 402.635978 
L 608.94823 412.623747 
L 609.940936 413.702606 
L 610.933642 423.258083 
L 611.926348 410.385351 
L 612.919054 476.46187 
L 613.911759 417.593492 
L 614.904465 412.547435 
L 615.897171 417.573905 
L 616.889877 410.009316 
L 617.882583 411.825643 
L 618.875289 411.002355 
L 619.867995 419.294653 
L 620.860701 413.016773 
L 621.853407 422.729507 
L 622.846113 424.315146 
L 624.831525 408.289659 
L 625.824231 411.263795 
L 626.816936 399.467093 
L 627.809642 401.845712 
L 628.802348 405.314924 
L 629.795054 409.406731 
L 630.78776 398.801692 
L 631.780466 407.411474 
L 632.773172 410.204577 
L 633.765878 415.925418 
L 634.758584 437.379389 
L 635.75129 430.816189 
L 636.743996 412.494055 
L 637.736702 408.019578 
L 638.729408 408.601089 
L 639.722114 421.514351 
L 640.714819 410.267255 
L 641.707525 423.325929 
L 642.700231 419.242745 
L 643.692937 410.565206 
L 644.685643 411.818418 
L 645.678349 434.454973 
L 646.671055 423.42485 
L 647.663761 420.626814 
L 648.656467 409.635981 
L 649.649173 438.814403 
L 650.641879 439.492456 
L 651.634585 424.609489 
L 653.619996 410.579274 
L 654.612702 416.316254 
L 655.605408 418.381348 
L 656.598114 419.757673 
L 657.59082 421.390643 
L 658.583526 413.583095 
L 659.576232 427.320233 
L 660.568938 425.13047 
L 661.561644 427.552656 
L 662.55435 417.386265 
L 663.547056 415.996705 
L 664.539762 425.390506 
L 665.532468 413.030026 
L 667.517879 421.033571 
L 668.510585 423.811696 
L 669.503291 420.964177 
L 670.495997 421.366107 
L 671.488703 419.834152 
L 672.481409 422.201152 
L 673.474115 428.282479 
L 674.466821 416.970406 
L 675.459527 422.800896 
L 676.452233 423.798402 
L 677.444939 429.876217 
L 678.437645 420.117953 
L 679.43035 427.771157 
L 680.423056 422.469137 
L 681.415762 419.40215 
L 682.408468 423.704404 
L 683.401174 422.716371 
L 684.39388 425.484182 
L 685.386586 421.649223 
L 686.379292 427.216962 
L 687.371998 420.557572 
L 688.364704 423.838699 
L 689.35741 419.921552 
L 690.350116 423.628465 
L 691.342822 425.633727 
L 692.335527 422.652485 
L 693.328233 425.269943 
L 694.320939 422.224085 
L 695.313645 425.464358 
L 696.306351 424.485602 
L 697.299057 426.208465 
L 698.291763 425.581651 
L 699.284469 422.930038 
L 700.277175 429.153943 
L 701.269881 427.165568 
L 702.262587 422.82505 
L 703.255293 424.938053 
L 704.247999 426.032502 
L 705.240705 427.862186 
L 706.23341 423.203388 
L 707.226116 426.059224 
L 708.218822 426.546825 
L 709.211528 426.610298 
L 710.204234 427.121837 
L 711.19694 426.462049 
L 712.189646 429.001674 
L 713.182352 426.381561 
L 714.175058 428.145711 
L 715.167764 426.451728 
L 716.16047 426.437883 
L 717.153176 429.230171 
L 718.145882 426.868197 
L 719.138587 428.043649 
L 720.131293 427.578095 
L 721.123999 426.78616 
L 722.116705 428.07946 
L 723.109411 426.81082 
L 724.102117 426.491438 
L 725.094823 428.956506 
L 726.087529 426.339316 
L 727.080235 427.295351 
L 728.072941 428.520072 
L 729.065647 426.730921 
L 730.058353 427.553875 
L 731.051059 426.227276 
L 732.043764 427.571603 
L 733.03647 426.517464 
L 734.029176 427.103533 
L 735.021882 429.213276 
L 736.014588 430.039892 
L 737.007294 428.932038 
L 738 428.296883 
L 738.992706 430.90868 
L 739.985412 431.414942 
L 740.978118 429.373438 
L 741.970824 428.735147 
L 742.96353 431.573219 
L 743.956236 429.692222 
L 744.948941 428.999454 
L 745.941647 429.729853 
L 746.934353 428.139967 
L 747.927059 428.688056 
L 748.919765 431.369999 
L 749.912471 429.083112 
L 750.905177 429.30358 
L 751.897883 430.223076 
L 752.890589 432.460376 
L 753.883295 427.361785 
L 754.876001 429.104905 
L 755.868707 430.210465 
L 756.861413 428.59146 
L 758.846824 431.396501 
L 759.83953 430.16394 
L 760.832236 430.617895 
L 762.817648 430.709941 
L 763.810354 430.460073 
L 764.80306 431.853559 
L 765.795766 429.312753 
L 766.788472 428.6048 
L 767.781178 430.381519 
L 768.773884 431.297238 
L 769.76659 431.633193 
L 770.759295 433.32268 
L 771.752001 431.038651 
L 772.744707 433.317801 
L 773.737413 433.619094 
L 774.730119 430.732356 
L 775.722825 431.338792 
L 776.715531 430.759879 
L 778.700943 432.082184 
L 779.693649 433.699403 
L 780.686355 433.213333 
L 781.679061 433.510232 
L 782.671767 434.328672 
L 783.664473 434.188829 
L 784.657178 431.054206 
L 785.649884 432.010124 
L 786.64259 432.610964 
L 787.635296 433.349125 
L 789.620708 432.517105 
L 790.613414 433.318687 
L 791.60612 434.70205 
L 792.598826 433.651171 
L 793.591532 434.119553 
L 794.584238 431.779557 
L 795.576944 430.913824 
L 796.56965 434.198954 
L 797.562355 435.066163 
L 798.555061 434.148396 
L 799.547767 431.702714 
L 800.540473 434.108109 
L 801.533179 435.9576 
L 802.525885 435.242565 
L 803.518591 435.505588 
L 804.511297 432.959445 
L 805.504003 435.631686 
L 806.496709 434.557509 
L 807.489415 435.02213 
L 808.482121 436.069906 
L 809.474827 435.245161 
L 810.467532 437.064205 
L 811.460238 435.42118 
L 812.452944 435.662142 
L 813.44565 436.019609 
L 814.438356 433.968299 
L 815.431062 435.7393 
L 816.423768 434.156014 
L 817.416474 435.218255 
L 818.40918 434.849179 
L 819.401886 433.450175 
L 820.394592 434.821285 
L 821.387298 436.617678 
L 822.380004 435.602693 
L 823.372709 436.275473 
L 824.365415 436.15774 
L 825.358121 436.351973 
L 827.343533 435.218888 
L 829.328945 438.327006 
L 830.321651 434.413911 
L 831.314357 437.174675 
L 832.307063 436.900808 
L 833.299769 436.241433 
L 834.292475 436.540333 
L 835.285181 434.729284 
L 836.277886 435.75467 
L 837.270592 437.171255 
L 838.263298 436.782036 
L 839.256004 435.371297 
L 840.24871 436.708263 
L 841.241416 435.421082 
L 842.234122 437.008586 
L 843.226828 436.82349 
L 844.219534 436.366396 
L 845.21224 437.693733 
L 846.204946 435.824566 
L 847.197652 435.208569 
L 848.190358 438.313818 
L 849.183064 438.004127 
L 850.175769 439.073028 
L 851.168475 437.492921 
L 852.161181 437.155988 
L 853.153887 435.534965 
L 854.146593 439.238306 
L 855.139299 438.042057 
L 856.132005 437.137757 
L 857.124711 435.520862 
L 858.117417 436.218849 
L 859.110123 438.61543 
L 860.102829 438.008258 
L 861.095535 437.794082 
L 862.088241 438.277805 
L 863.080946 439.475102 
L 864.073652 438.385028 
L 865.066358 436.668198 
L 866.059064 438.087741 
L 867.05177 438.661575 
L 868.044476 437.773351 
L 869.037182 438.387428 
L 870.029888 438.653305 
L 871.022594 440.644922 
L 872.0153 440.525038 
L 874.000712 437.379365 
L 874.993418 437.822902 
L 875.986123 439.441864 
L 876.978829 438.994588 
L 877.971535 438.308694 
L 878.964241 437.413579 
L 879.956947 439.132389 
L 880.949653 437.428545 
L 881.942359 435.04387 
L 882.935065 440.453773 
L 883.927771 437.638341 
L 884.920477 439.578547 
L 885.913183 439.943914 
L 886.905889 441.046035 
L 887.898595 439.148615 
L 888.8913 442.151436 
L 889.884006 438.764228 
L 890.876712 438.376804 
L 891.869418 438.836496 
L 892.862124 438.412905 
L 893.85483 440.022782 
L 894.847536 438.38351 
L 895.840242 437.973223 
L 896.832948 438.705298 
L 897.825654 439.208841 
L 898.81836 438.932047 
L 899.811066 437.973794 
L 900.803772 439.481416 
L 901.796477 438.651109 
L 902.789183 441.261486 
L 903.781889 437.959272 
L 905.767301 440.087818 
L 906.760007 440.732884 
L 907.752713 439.901395 
L 908.745419 441.160949 
L 910.730831 440.755425 
L 911.723537 441.004251 
L 912.716243 440.825405 
L 913.708949 442.385734 
L 914.701655 441.973599 
L 915.69436 441.292494 
L 916.687066 441.13407 
L 917.679772 440.523447 
L 918.672478 440.923956 
L 919.665184 441.809527 
L 920.65789 442.150277 
L 921.650596 440.43028 
L 922.643302 441.173906 
L 923.636008 441.739907 
L 924.628714 442.016601 
L 925.62142 439.397925 
L 926.614126 438.939117 
L 927.606832 441.434284 
L 928.599537 439.662704 
L 929.592243 440.869069 
L 930.584949 441.606542 
L 931.577655 440.433462 
L 932.570361 442.417085 
L 933.563067 441.663115 
L 934.555773 442.181927 
L 935.548479 442.111358 
L 936.541185 442.699769 
L 937.533891 441.987114 
L 938.526597 442.32312 
L 939.519303 441.718181 
L 940.512009 441.375939 
L 941.504714 441.933958 
L 942.49742 440.280801 
L 943.490126 443.047688 
L 944.482832 441.933079 
L 945.475538 440.31063 
L 946.468244 442.071691 
L 947.46095 440.951382 
L 948.453656 442.543817 
L 949.446362 442.465359 
L 950.439068 445.317611 
L 952.42448 440.866378 
L 953.417186 442.281202 
L 954.409891 445.215803 
L 955.402597 443.310924 
L 956.395303 442.357181 
L 957.388009 440.81608 
L 958.380715 443.191866 
L 959.373421 444.169027 
L 960.366127 442.670313 
L 961.358833 443.553165 
L 962.351539 443.720037 
L 963.344245 445.775019 
L 964.336951 446.461305 
L 965.329657 443.53574 
L 966.322363 441.965973 
L 967.315068 441.037377 
L 968.307774 442.096575 
L 969.30048 443.616455 
L 970.293186 445.380102 
L 971.285892 443.360242 
L 972.278598 442.384289 
L 973.271304 442.338811 
L 974.26401 445.791286 
L 975.256716 443.719912 
L 976.249422 443.410542 
L 977.242128 446.655831 
L 978.234834 442.785431 
L 979.22754 446.993841 
L 980.220246 444.423448 
L 981.212951 442.362368 
L 982.205657 444.490993 
L 983.198363 442.553281 
L 984.191069 444.667587 
L 985.183775 445.812479 
L 986.176481 444.236007 
L 987.169187 443.321487 
L 988.161893 442.749957 
L 989.154599 443.82131 
L 990.147305 442.82222 
L 991.140011 445.57981 
L 992.132717 442.246683 
L 993.125423 442.409749 
L 994.118128 443.357549 
L 995.110834 441.426614 
L 996.10354 444.778152 
L 997.096246 443.247988 
L 998.088952 444.176861 
L 999.081658 445.713766 
L 1001.06707 443.197111 
L 1002.059776 443.788375 
L 1003.052482 442.81741 
L 1004.045188 445.141006 
L 1005.037894 444.899812 
L 1006.0306 445.034291 
L 1007.023305 444.576432 
L 1008.016011 444.785287 
L 1009.008717 442.650876 
L 1010.001423 444.512044 
L 1011.986835 443.67862 
L 1012.979541 441.696067 
L 1013.972247 444.805169 
L 1014.964953 445.678515 
L 1016.950365 444.225091 
L 1017.943071 443.879234 
L 1018.935777 446.050649 
L 1019.928482 445.060136 
L 1020.921188 445.111415 
L 1021.913894 444.857323 
L 1022.9066 443.623694 
L 1023.899306 446.120077 
L 1024.892012 445.258002 
L 1025.884718 443.182529 
L 1027.87013 446.730802 
L 1028.862836 446.38948 
L 1029.855542 442.762371 
L 1030.848248 444.276657 
L 1031.840954 445.123621 
L 1032.833659 446.312176 
L 1033.826365 447.735311 
L 1035.811777 446.131243 
L 1036.804483 446.065986 
L 1037.797189 443.79588 
L 1038.789895 444.990558 
L 1039.782601 445.207592 
L 1040.775307 448.663649 
L 1041.768013 444.913896 
L 1043.753425 448.539893 
L 1044.746131 446.516155 
L 1045.738837 445.271369 
L 1046.731542 446.410196 
L 1047.724248 447.922597 
L 1048.716954 446.366365 
L 1049.70966 446.051677 
L 1050.702366 443.761817 
L 1051.695072 446.885413 
L 1052.687778 446.139073 
L 1053.680484 445.174847 
L 1054.67319 446.088299 
L 1055.665896 448.374306 
L 1056.658602 449.1655 
L 1057.651308 446.869627 
L 1058.644014 445.982567 
L 1059.636719 444.305372 
L 1060.629425 445.381315 
L 1061.622131 445.878657 
L 1062.614837 447.318132 
L 1063.607543 448.540397 
L 1065.592955 444.78718 
L 1066.585661 448.491063 
L 1067.578367 445.898214 
L 1068.571073 445.796919 
L 1069.563779 447.302896 
L 1070.556485 446.200004 
L 1071.549191 449.439867 
L 1072.541896 446.952902 
L 1073.534602 445.808701 
L 1074.527308 445.358887 
L 1075.520014 446.662165 
L 1076.51272 447.710093 
L 1077.505426 446.949907 
L 1078.498132 447.983915 
L 1079.490838 446.259609 
L 1080.483544 446.590789 
L 1081.47625 447.888537 
L 1082.468956 445.465478 
L 1083.461662 447.608246 
L 1084.454368 446.629989 
L 1085.447073 447.779535 
L 1086.439779 448.229497 
L 1087.432485 445.904174 
L 1088.425191 446.633548 
L 1089.417897 449.988923 
L 1090.410603 447.875704 
L 1091.403309 447.41377 
L 1092.396015 446.018264 
L 1093.388721 446.190418 
L 1094.381427 444.637989 
L 1095.374133 449.810165 
L 1096.366839 448.130043 
L 1097.359545 449.052166 
L 1098.35225 447.1876 
L 1099.344956 445.900513 
L 1100.337662 446.137343 
L 1101.330368 448.196765 
L 1102.323074 447.413734 
L 1103.31578 448.007634 
L 1104.308486 450.678451 
L 1105.301192 446.487396 
L 1106.293898 446.06456 
L 1107.286604 446.517023 
L 1109.272016 449.414372 
L 1110.264722 450.223859 
L 1111.257428 447.655696 
L 1112.250133 447.266467 
L 1113.242839 446.209947 
L 1114.235545 449.893437 
L 1115.228251 447.225365 
L 1116.220957 445.317188 
L 1117.213663 445.732741 
L 1118.206369 446.763166 
L 1120.191781 446.72012 
L 1121.184487 446.523029 
L 1122.177193 445.932863 
L 1123.169899 446.886986 
L 1124.162605 450.985761 
L 1125.15531 446.859744 
L 1126.148016 448.050281 
L 1127.140722 447.296809 
L 1128.133428 448.834969 
L 1129.126134 448.976147 
L 1130.11884 449.656173 
L 1131.111546 450.099204 
L 1132.104252 446.853737 
L 1133.096958 449.38516 
L 1134.089664 445.562907 
L 1135.08237 446.682174 
L 1136.075076 449.614958 
L 1137.067782 448.736184 
L 1138.060487 450.311739 
L 1139.053193 447.61828 
L 1140.045899 447.29032 
L 1141.038605 446.827152 
L 1142.031311 448.647999 
L 1143.024017 448.247265 
L 1144.016723 448.428314 
L 1145.009429 450.510099 
L 1146.002135 448.401066 
L 1146.994841 447.507888 
L 1147.987547 447.69622 
L 1148.980253 447.323349 
L 1149.972959 445.915966 
L 1150.965664 447.329657 
L 1151.95837 448.191333 
L 1152.951076 448.245323 
L 1153.943782 446.560604 
L 1154.936488 450.109337 
L 1155.929194 450.076566 
L 1157.914606 451.416072 
L 1158.907312 446.488434 
L 1159.900018 447.819939 
L 1160.892724 447.532155 
L 1161.88543 447.414035 
L 1162.878136 447.707817 
L 1164.863547 447.776138 
L 1165.856253 445.925507 
L 1166.848959 447.401026 
L 1167.841665 449.162259 
L 1168.834371 449.356259 
L 1169.827077 447.849163 
L 1170.819783 449.423333 
L 1171.812489 447.947497 
L 1172.805195 449.943296 
L 1173.797901 448.03718 
L 1174.790607 449.447338 
L 1175.783313 448.610196 
L 1176.776019 449.586256 
L 1177.768724 448.224908 
L 1178.76143 447.641314 
L 1179.754136 447.716909 
L 1180.746842 449.245628 
L 1182.732254 447.23382 
L 1183.72496 447.462864 
L 1184.717666 446.807295 
L 1185.710372 449.141259 
L 1186.703078 449.927982 
L 1187.695784 446.865793 
L 1188.68849 448.27406 
L 1189.681196 446.937404 
L 1190.673901 449.371534 
L 1191.666607 448.368226 
L 1193.652019 450.159498 
L 1194.644725 446.577567 
L 1195.637431 448.962064 
L 1196.630137 448.569636 
L 1197.622843 449.459609 
L 1198.615549 447.157836 
L 1199.608255 446.727112 
L 1200.600961 450.133976 
L 1201.593667 448.763686 
L 1202.586373 446.754764 
L 1203.579078 448.385474 
L 1204.571784 445.942559 
L 1205.56449 449.739836 
L 1206.557196 446.339529 
L 1207.549902 447.779053 
L 1209.535314 451.213927 
L 1210.52802 447.270362 
L 1211.520726 447.556209 
L 1212.513432 446.575438 
L 1213.506138 448.519839 
L 1214.498844 447.569405 
L 1215.49155 447.480183 
L 1216.484255 448.963891 
L 1217.476961 448.486948 
L 1218.469667 449.438112 
L 1219.462373 447.372151 
L 1220.455079 448.900355 
L 1221.447785 449.413172 
L 1222.440491 449.43225 
L 1223.433197 447.731614 
L 1224.425903 451.763174 
L 1225.418609 449.864393 
L 1226.411315 450.359019 
L 1227.404021 448.794571 
L 1228.396727 445.814656 
L 1230.382138 448.773535 
L 1231.374844 448.14045 
L 1232.36755 448.148287 
L 1234.352962 447.26274 
L 1235.345668 447.741862 
L 1236.338374 447.119708 
L 1237.33108 450.710123 
L 1238.323786 449.23381 
L 1239.316492 450.656493 
L 1240.309198 447.970106 
L 1241.301904 450.146178 
L 1242.29461 449.391385 
L 1243.287315 449.48306 
L 1244.280021 447.106172 
L 1245.272727 448.10361 
L 1245.272727 448.10361 
" clip-path="url(#pf47e006638)" style="fill: none; stroke: #1f77b4; stroke-width: 1.5; stroke-linecap: square"/>
   </g>
   <g id="patch_3">
    <path d="M 180 512.64 
L 180 69.12 
" style="fill: none; stroke: #000000; stroke-width: 0.8; stroke-linejoin: miter; stroke-linecap: square"/>
   </g>
   <g id="patch_4">
    <path d="M 1296 512.64 
L 1296 69.12 
" style="fill: none; stroke: #000000; stroke-width: 0.8; stroke-linejoin: miter; stroke-linecap: square"/>
   </g>
   <g id="patch_5">
    <path d="M 180 512.64 
L 1296 512.64 
" style="fill: none; stroke: #000000; stroke-width: 0.8; stroke-linejoin: miter; stroke-linecap: square"/>
   </g>
   <g id="patch_6">
    <path d="M 180 69.12 
L 1296 69.12 
" style="fill: none; stroke: #000000; stroke-width: 0.8; stroke-linejoin: miter; stroke-linecap: square"/>
   </g>
   <g id="text_15">
    <!-- source23-receiver10 -->
    <g transform="translate(532.175 60.80125) scale(0.4 -0.4)">
     <defs>
      <path id="DejaVuSans-73" d="M 2834 3397 
L 2834 2853 
Q 2591 2978 2328 3040 
Q 2066 3103 1784 3103 
Q 1356 3103 1142 2972 
Q 928 2841 928 2578 
Q 928 2378 1081 2264 
Q 1234 2150 1697 2047 
L 1894 2003 
Q 2506 1872 2764 1633 
Q 3022 1394 3022 966 
Q 3022 478 2636 193 
Q 2250 -91 1575 -91 
Q 1294 -91 989 -36 
Q 684 19 347 128 
L 347 722 
Q 666 556 975 473 
Q 1284 391 1588 391 
Q 1994 391 2212 530 
Q 2431 669 2431 922 
Q 2431 1156 2273 1281 
Q 2116 1406 1581 1522 
L 1381 1569 
Q 847 1681 609 1914 
Q 372 2147 372 2553 
Q 372 3047 722 3315 
Q 1072 3584 1716 3584 
Q 2034 3584 2315 3537 
Q 2597 3491 2834 3397 
z
" transform="scale(0.015625)"/>
      <path id="DejaVuSans-6f" d="M 1959 3097 
Q 1497 3097 1228 2736 
Q 959 2375 959 1747 
Q 959 1119 1226 758 
Q 1494 397 1959 397 
Q 2419 397 2687 759 
Q 2956 1122 2956 1747 
Q 2956 2369 2687 2733 
Q 2419 3097 1959 3097 
z
M 1959 3584 
Q 2709 3584 3137 3096 
Q 3566 2609 3566 1747 
Q 3566 888 3137 398 
Q 2709 -91 1959 -91 
Q 1206 -91 779 398 
Q 353 888 353 1747 
Q 353 2609 779 3096 
Q 1206 3584 1959 3584 
z
" transform="scale(0.015625)"/>
      <path id="DejaVuSans-75" d="M 544 1381 
L 544 3500 
L 1119 3500 
L 1119 1403 
Q 1119 906 1312 657 
Q 1506 409 1894 409 
Q 2359 409 2629 706 
Q 2900 1003 2900 1516 
L 2900 3500 
L 3475 3500 
L 3475 0 
L 2900 0 
L 2900 538 
Q 2691 219 2414 64 
Q 2138 -91 1772 -91 
Q 1169 -91 856 284 
Q 544 659 544 1381 
z
M 1991 3584 
L 1991 3584 
z
" transform="scale(0.015625)"/>
      <path id="DejaVuSans-72" d="M 2631 2963 
Q 2534 3019 2420 3045 
Q 2306 3072 2169 3072 
Q 1681 3072 1420 2755 
Q 1159 2438 1159 1844 
L 1159 0 
L 581 0 
L 581 3500 
L 1159 3500 
L 1159 2956 
Q 1341 3275 1631 3429 
Q 1922 3584 2338 3584 
Q 2397 3584 2469 3576 
Q 2541 3569 2628 3553 
L 2631 2963 
z
" transform="scale(0.015625)"/>
      <path id="DejaVuSans-63" d="M 3122 3366 
L 3122 2828 
Q 2878 2963 2633 3030 
Q 2388 3097 2138 3097 
Q 1578 3097 1268 2742 
Q 959 2388 959 1747 
Q 959 1106 1268 751 
Q 1578 397 2138 397 
Q 2388 397 2633 464 
Q 2878 531 3122 666 
L 3122 134 
Q 2881 22 2623 -34 
Q 2366 -91 2075 -91 
Q 1284 -91 818 406 
Q 353 903 353 1747 
Q 353 2603 823 3093 
Q 1294 3584 2113 3584 
Q 2378 3584 2631 3529 
Q 2884 3475 3122 3366 
z
" transform="scale(0.015625)"/>
      <path id="DejaVuSans-65" d="M 3597 1894 
L 3597 1613 
L 953 1613 
Q 991 1019 1311 708 
Q 1631 397 2203 397 
Q 2534 397 2845 478 
Q 3156 559 3463 722 
L 3463 178 
Q 3153 47 2828 -22 
Q 2503 -91 2169 -91 
Q 1331 -91 842 396 
Q 353 884 353 1716 
Q 353 2575 817 3079 
Q 1281 3584 2069 3584 
Q 2775 3584 3186 3129 
Q 3597 2675 3597 1894 
z
M 3022 2063 
Q 3016 2534 2758 2815 
Q 2500 3097 2075 3097 
Q 1594 3097 1305 2825 
Q 1016 2553 972 2059 
L 3022 2063 
z
" transform="scale(0.015625)"/>
      <path id="DejaVuSans-2d" d="M 313 2009 
L 1997 2009 
L 1997 1497 
L 313 1497 
L 313 2009 
z
" transform="scale(0.015625)"/>
      <path id="DejaVuSans-69" d="M 603 3500 
L 1178 3500 
L 1178 0 
L 603 0 
L 603 3500 
z
M 603 4863 
L 1178 4863 
L 1178 4134 
L 603 4134 
L 603 4863 
z
" transform="scale(0.015625)"/>
      <path id="DejaVuSans-76" d="M 191 3500 
L 800 3500 
L 1894 563 
L 2988 3500 
L 3597 3500 
L 2284 0 
L 1503 0 
L 191 3500 
z
" transform="scale(0.015625)"/>
     </defs>
     <use xlink:href="#DejaVuSans-73"/>
     <use xlink:href="#DejaVuSans-6f" x="52.099609"/>
     <use xlink:href="#DejaVuSans-75" x="113.28125"/>
     <use xlink:href="#DejaVuSans-72" x="176.660156"/>
     <use xlink:href="#DejaVuSans-63" x="215.523438"/>
     <use xlink:href="#DejaVuSans-65" x="270.503906"/>
     <use xlink:href="#DejaVuSans-32" x="332.027344"/>
     <use xlink:href="#DejaVuSans-33" x="395.650391"/>
     <use xlink:href="#DejaVuSans-2d" x="459.273438"/>
     <use xlink:href="#DejaVuSans-72" x="495.357422"/>
     <use xlink:href="#DejaVuSans-65" x="534.220703"/>
     <use xlink:href="#DejaVuSans-63" x="595.744141"/>
     <use xlink:href="#DejaVuSans-65" x="650.724609"/>
     <use xlink:href="#DejaVuSans-69" x="712.248047"/>
     <use xlink:href="#DejaVuSans-76" x="740.03125"/>
     <use xlink:href="#DejaVuSans-65" x="799.210938"/>
     <use xlink:href="#DejaVuSans-72" x="860.734375"/>
     <use xlink:href="#DejaVuSans-31" x="901.847656"/>
     <use xlink:href="#DejaVuSans-30" x="965.470703"/>
    </g>
   </g>
  </g>
 </g>
 <defs>
  <clipPath id="pf47e006638">
   <rect x="180" y="69.12" width="1116" height="443.52"/>
  </clipPath>
 </defs>
</svg>
