<?xml version="1.0" encoding="utf-8" standalone="no"?>
<!DOCTYPE svg PUBLIC "-//W3C//DTD SVG 1.1//EN"
  "http://www.w3.org/Graphics/SVG/1.1/DTD/svg11.dtd">
<svg xmlns:xlink="http://www.w3.org/1999/xlink" width="1440pt" height="576pt" viewBox="0 0 1440 576" xmlns="http://www.w3.org/2000/svg" version="1.1">
 <metadata>
  <rdf:RDF xmlns:dc="http://purl.org/dc/elements/1.1/" xmlns:cc="http://creativecommons.org/ns#" xmlns:rdf="http://www.w3.org/1999/02/22-rdf-syntax-ns#">
   <cc:Work>
    <dc:type rdf:resource="http://purl.org/dc/dcmitype/StillImage"/>
    <dc:date>2024-05-22T04:50:24.141926</dc:date>
    <dc:format>image/svg+xml</dc:format>
    <dc:creator>
     <cc:Agent>
      <dc:title>Matplotlib v3.8.3, https://matplotlib.org/</dc:title>
     </cc:Agent>
    </dc:creator>
   </cc:Work>
  </rdf:RDF>
 </metadata>
 <defs>
  <style type="text/css">*{stroke-linejoin: round; stroke-linecap: butt}</style>
 </defs>
 <g id="figure_1">
  <g id="patch_1">
   <path d="M 0 576 
L 1440 576 
L 1440 0 
L 0 0 
z
" style="fill: #ffffff"/>
  </g>
  <g id="axes_1">
   <g id="patch_2">
    <path d="M 180 512.64 
L 1296 512.64 
L 1296 69.12 
L 180 69.12 
z
" style="fill: #ffffff"/>
   </g>
   <g id="matplotlib.axis_1">
    <g id="xtick_1">
     <g id="line2d_1">
      <defs>
       <path id="m1a2cf0c43f" d="M 0 0 
L 0 3.5 
" style="stroke: #000000; stroke-width: 0.8"/>
      </defs>
      <g>
       <use xlink:href="#m1a2cf0c43f" x="229.734567" y="512.64" style="stroke: #000000; stroke-width: 0.8"/>
      </g>
     </g>
     <g id="text_1">
      <!-- 0 -->
      <g transform="translate(226.553317 527.238438) scale(0.1 -0.1)">
       <defs>
        <path id="DejaVuSans-30" d="M 2034 4250 
Q 1547 4250 1301 3770 
Q 1056 3291 1056 2328 
Q 1056 1369 1301 889 
Q 1547 409 2034 409 
Q 2525 409 2770 889 
Q 3016 1369 3016 2328 
Q 3016 3291 2770 3770 
Q 2525 4250 2034 4250 
z
M 2034 4750 
Q 2819 4750 3233 4129 
Q 3647 3509 3647 2328 
Q 3647 1150 3233 529 
Q 2819 -91 2034 -91 
Q 1250 -91 836 529 
Q 422 1150 422 2328 
Q 422 3509 836 4129 
Q 1250 4750 2034 4750 
z
" transform="scale(0.015625)"/>
       </defs>
       <use xlink:href="#DejaVuSans-30"/>
      </g>
     </g>
    </g>
    <g id="xtick_2">
     <g id="line2d_2">
      <g>
       <use xlink:href="#m1a2cf0c43f" x="433.04074" y="512.64" style="stroke: #000000; stroke-width: 0.8"/>
      </g>
     </g>
     <g id="text_2">
      <!-- 500 -->
      <g transform="translate(423.49699 527.238438) scale(0.1 -0.1)">
       <defs>
        <path id="DejaVuSans-35" d="M 691 4666 
L 3169 4666 
L 3169 4134 
L 1269 4134 
L 1269 2991 
Q 1406 3038 1543 3061 
Q 1681 3084 1819 3084 
Q 2600 3084 3056 2656 
Q 3513 2228 3513 1497 
Q 3513 744 3044 326 
Q 2575 -91 1722 -91 
Q 1428 -91 1123 -41 
Q 819 9 494 109 
L 494 744 
Q 775 591 1075 516 
Q 1375 441 1709 441 
Q 2250 441 2565 725 
Q 2881 1009 2881 1497 
Q 2881 1984 2565 2268 
Q 2250 2553 1709 2553 
Q 1456 2553 1204 2497 
Q 953 2441 691 2322 
L 691 4666 
z
" transform="scale(0.015625)"/>
       </defs>
       <use xlink:href="#DejaVuSans-35"/>
       <use xlink:href="#DejaVuSans-30" x="63.623047"/>
       <use xlink:href="#DejaVuSans-30" x="127.246094"/>
      </g>
     </g>
    </g>
    <g id="xtick_3">
     <g id="line2d_3">
      <g>
       <use xlink:href="#m1a2cf0c43f" x="636.346913" y="512.64" style="stroke: #000000; stroke-width: 0.8"/>
      </g>
     </g>
     <g id="text_3">
      <!-- 1000 -->
      <g transform="translate(623.621913 527.238438) scale(0.1 -0.1)">
       <defs>
        <path id="DejaVuSans-31" d="M 794 531 
L 1825 531 
L 1825 4091 
L 703 3866 
L 703 4441 
L 1819 4666 
L 2450 4666 
L 2450 531 
L 3481 531 
L 3481 0 
L 794 0 
L 794 531 
z
" transform="scale(0.015625)"/>
       </defs>
       <use xlink:href="#DejaVuSans-31"/>
       <use xlink:href="#DejaVuSans-30" x="63.623047"/>
       <use xlink:href="#DejaVuSans-30" x="127.246094"/>
       <use xlink:href="#DejaVuSans-30" x="190.869141"/>
      </g>
     </g>
    </g>
    <g id="xtick_4">
     <g id="line2d_4">
      <g>
       <use xlink:href="#m1a2cf0c43f" x="839.653087" y="512.64" style="stroke: #000000; stroke-width: 0.8"/>
      </g>
     </g>
     <g id="text_4">
      <!-- 1500 -->
      <g transform="translate(826.928087 527.238438) scale(0.1 -0.1)">
       <use xlink:href="#DejaVuSans-31"/>
       <use xlink:href="#DejaVuSans-35" x="63.623047"/>
       <use xlink:href="#DejaVuSans-30" x="127.246094"/>
       <use xlink:href="#DejaVuSans-30" x="190.869141"/>
      </g>
     </g>
    </g>
    <g id="xtick_5">
     <g id="line2d_5">
      <g>
       <use xlink:href="#m1a2cf0c43f" x="1042.95926" y="512.64" style="stroke: #000000; stroke-width: 0.8"/>
      </g>
     </g>
     <g id="text_5">
      <!-- 2000 -->
      <g transform="translate(1030.23426 527.238438) scale(0.1 -0.1)">
       <defs>
        <path id="DejaVuSans-32" d="M 1228 531 
L 3431 531 
L 3431 0 
L 469 0 
L 469 531 
Q 828 903 1448 1529 
Q 2069 2156 2228 2338 
Q 2531 2678 2651 2914 
Q 2772 3150 2772 3378 
Q 2772 3750 2511 3984 
Q 2250 4219 1831 4219 
Q 1534 4219 1204 4116 
Q 875 4013 500 3803 
L 500 4441 
Q 881 4594 1212 4672 
Q 1544 4750 1819 4750 
Q 2544 4750 2975 4387 
Q 3406 4025 3406 3419 
Q 3406 3131 3298 2873 
Q 3191 2616 2906 2266 
Q 2828 2175 2409 1742 
Q 1991 1309 1228 531 
z
" transform="scale(0.015625)"/>
       </defs>
       <use xlink:href="#DejaVuSans-32"/>
       <use xlink:href="#DejaVuSans-30" x="63.623047"/>
       <use xlink:href="#DejaVuSans-30" x="127.246094"/>
       <use xlink:href="#DejaVuSans-30" x="190.869141"/>
      </g>
     </g>
    </g>
    <g id="xtick_6">
     <g id="line2d_6">
      <g>
       <use xlink:href="#m1a2cf0c43f" x="1246.265433" y="512.64" style="stroke: #000000; stroke-width: 0.8"/>
      </g>
     </g>
     <g id="text_6">
      <!-- 2500 -->
      <g transform="translate(1233.540433 527.238438) scale(0.1 -0.1)">
       <use xlink:href="#DejaVuSans-32"/>
       <use xlink:href="#DejaVuSans-35" x="63.623047"/>
       <use xlink:href="#DejaVuSans-30" x="127.246094"/>
       <use xlink:href="#DejaVuSans-30" x="190.869141"/>
      </g>
     </g>
    </g>
   </g>
   <g id="matplotlib.axis_2">
    <g id="ytick_1">
     <g id="line2d_7">
      <defs>
       <path id="mfa3fc93d4c" d="M 0 0 
L -3.5 0 
" style="stroke: #000000; stroke-width: 0.8"/>
      </defs>
      <g>
       <use xlink:href="#mfa3fc93d4c" x="180" y="420.920493" style="stroke: #000000; stroke-width: 0.8"/>
      </g>
     </g>
     <g id="text_7">
      <!-- −2 -->
      <g transform="translate(158.257812 424.719712) scale(0.1 -0.1)">
       <defs>
        <path id="DejaVuSans-2212" d="M 678 2272 
L 4684 2272 
L 4684 1741 
L 678 1741 
L 678 2272 
z
" transform="scale(0.015625)"/>
       </defs>
       <use xlink:href="#DejaVuSans-2212"/>
       <use xlink:href="#DejaVuSans-32" x="83.789062"/>
      </g>
     </g>
    </g>
    <g id="ytick_2">
     <g id="line2d_8">
      <g>
       <use xlink:href="#mfa3fc93d4c" x="180" y="327.312602" style="stroke: #000000; stroke-width: 0.8"/>
      </g>
     </g>
     <g id="text_8">
      <!-- 0 -->
      <g transform="translate(166.6375 331.111821) scale(0.1 -0.1)">
       <use xlink:href="#DejaVuSans-30"/>
      </g>
     </g>
    </g>
    <g id="ytick_3">
     <g id="line2d_9">
      <g>
       <use xlink:href="#mfa3fc93d4c" x="180" y="233.704711" style="stroke: #000000; stroke-width: 0.8"/>
      </g>
     </g>
     <g id="text_9">
      <!-- 2 -->
      <g transform="translate(166.6375 237.50393) scale(0.1 -0.1)">
       <use xlink:href="#DejaVuSans-32"/>
      </g>
     </g>
    </g>
    <g id="ytick_4">
     <g id="line2d_10">
      <g>
       <use xlink:href="#mfa3fc93d4c" x="180" y="140.09682" style="stroke: #000000; stroke-width: 0.8"/>
      </g>
     </g>
     <g id="text_10">
      <!-- 4 -->
      <g transform="translate(166.6375 143.896039) scale(0.1 -0.1)">
       <defs>
        <path id="DejaVuSans-34" d="M 2419 4116 
L 825 1625 
L 2419 1625 
L 2419 4116 
z
M 2253 4666 
L 3047 4666 
L 3047 1625 
L 3713 1625 
L 3713 1100 
L 3047 1100 
L 3047 0 
L 2419 0 
L 2419 1100 
L 313 1100 
L 313 1709 
L 2253 4666 
z
" transform="scale(0.015625)"/>
       </defs>
       <use xlink:href="#DejaVuSans-34"/>
      </g>
     </g>
    </g>
   </g>
   <g id="line2d_11">
    <path d="M 230.727273 389.353251 
L 231.719979 350.54283 
L 232.712685 348.032069 
L 233.70539 395.865213 
L 234.698096 335.379162 
L 235.690802 371.781633 
L 236.683508 348.067216 
L 237.676214 331.114751 
L 238.66892 473.503425 
L 239.661626 326.905176 
L 240.654332 334.867326 
L 241.647038 368.021808 
L 242.639744 316.867001 
L 243.63245 344.624602 
L 244.625156 341.884566 
L 245.617862 313.139262 
L 246.610568 331.328072 
L 247.603273 398.017638 
L 248.595979 313.449822 
L 249.588685 268.741311 
L 250.581391 243.344526 
L 251.574097 230.966423 
L 252.566803 244.889426 
L 253.559509 228.666699 
L 254.552215 182.059578 
L 255.544921 165.752057 
L 256.537627 168.321288 
L 257.530333 167.769547 
L 258.523039 147.366585 
L 259.515745 136.270616 
L 260.50845 142.909475 
L 261.501156 173.638521 
L 262.493862 178.539367 
L 263.486568 163.073028 
L 264.479274 176.265793 
L 265.47198 207.933863 
L 266.464686 229.119608 
L 267.457392 168.589943 
L 268.450098 160.262884 
L 269.442804 205.263569 
L 270.43551 206.106905 
L 271.428216 203.085013 
L 272.420922 201.511738 
L 273.413627 173.221087 
L 274.406333 226.506804 
L 275.399039 168.609979 
L 276.391745 155.608267 
L 277.384451 123.940139 
L 278.377157 96.12141 
L 279.369863 90.829917 
L 280.362569 97.473057 
L 281.355275 92.855015 
L 282.347981 89.28 
L 283.340687 98.655422 
L 284.333393 100.451353 
L 285.326099 100.180565 
L 286.318804 132.045201 
L 287.31151 131.992837 
L 288.304216 97.240058 
L 289.296922 93.953427 
L 290.289628 108.311698 
L 291.282334 154.119941 
L 292.27504 164.42583 
L 293.267746 128.580724 
L 294.260452 141.055703 
L 295.253158 180.295201 
L 296.245864 177.372651 
L 297.23857 194.619662 
L 298.231276 207.637307 
L 299.223981 223.556101 
L 300.216687 187.030829 
L 301.209393 185.728529 
L 302.202099 228.242049 
L 303.194805 217.955058 
L 304.187511 226.546704 
L 306.172923 245.704814 
L 307.165629 291.479554 
L 308.158335 252.965353 
L 309.151041 288.235274 
L 310.143747 259.139824 
L 311.136453 276.297687 
L 312.129159 290.612236 
L 313.121864 268.62689 
L 314.11457 332.869475 
L 315.107276 292.071511 
L 316.099982 293.772295 
L 317.092688 334.336851 
L 318.085394 295.721988 
L 319.0781 306.60462 
L 320.070806 327.562026 
L 321.063512 290.587033 
L 322.056218 314.17498 
L 323.048924 321.515009 
L 324.04163 295.058852 
L 325.034336 333.997107 
L 326.027041 309.763298 
L 327.019747 301.100457 
L 328.012453 350.675303 
L 329.005159 306.080506 
L 329.997865 311.039615 
L 330.990571 340.689565 
L 331.983277 307.110995 
L 332.975983 331.278768 
L 333.968689 320.807071 
L 334.961395 312.044743 
L 335.954101 348.745657 
L 336.946807 314.020023 
L 337.939513 318.758554 
L 338.932218 344.597025 
L 339.924924 313.529392 
L 340.91763 334.549935 
L 341.910336 333.438141 
L 342.903042 311.440387 
L 343.895748 361.917695 
L 344.888454 317.457171 
L 345.88116 314.174394 
L 346.873866 385.438731 
L 347.866572 310.197291 
L 348.859278 322.99559 
L 349.851984 343.371003 
L 350.84469 299.174295 
L 351.837395 326.445582 
L 352.830101 329.080521 
L 353.822807 298.014338 
L 354.815513 351.859488 
L 355.808219 315.76435 
L 356.800925 306.664378 
L 357.793631 389.896188 
L 358.786337 299.801282 
L 359.779043 308.969672 
L 360.771749 346.3718 
L 361.764455 296.473084 
L 363.749867 330.84976 
L 364.742572 296.331643 
L 365.735278 328.18163 
L 366.727984 320.421938 
L 367.72069 299.29387 
L 368.713396 351.423726 
L 369.706102 318.584778 
L 370.698808 306.584794 
L 371.691514 381.788934 
L 372.68422 321.686678 
L 373.676926 310.645994 
L 374.669632 395.126052 
L 375.662338 324.647345 
L 376.655044 313.114771 
L 377.64775 384.17122 
L 378.640455 322.816865 
L 379.633161 307.754248 
L 380.625867 372.142632 
L 381.618573 313.047563 
L 382.611279 302.594533 
L 383.603985 341.991527 
L 384.596691 301.278584 
L 385.589397 302.144344 
L 386.582103 331.330805 
L 387.574809 292.160702 
L 388.567515 301.802491 
L 389.560221 313.927102 
L 390.552927 286.9284 
L 391.545632 304.453327 
L 392.538338 302.962256 
L 393.531044 285.011902 
L 394.52375 312.263088 
L 395.516456 298.440179 
L 396.509162 289.923607 
L 397.501868 319.045451 
L 398.494574 294.437088 
L 399.48728 295.586541 
L 400.479986 326.393407 
L 401.472692 296.0575 
L 402.465398 308.731758 
L 403.458104 325.192451 
L 404.450809 298.737902 
L 405.443515 327.821814 
L 406.436221 321.405191 
L 407.428927 308.909243 
L 408.421633 354.561606 
L 409.414339 317.090564 
L 410.407045 322.41648 
L 411.399751 375.018284 
L 412.392457 319.60795 
L 413.385163 341.853122 
L 414.377869 346.903585 
L 415.370575 322.365247 
L 416.363281 373.648964 
L 417.355986 334.340498 
L 418.348692 333.553274 
L 419.341398 450.244445 
L 420.334104 327.701852 
L 421.32681 350.226457 
L 422.319516 367.091489 
L 423.312222 326.577152 
L 424.304928 373.429547 
L 425.297634 349.375339 
L 426.29034 330.330141 
L 427.283046 452.072437 
L 428.275752 341.244545 
L 429.268458 342.279523 
L 430.261163 425.986855 
L 431.253869 334.559885 
L 432.246575 351.792711 
L 433.239281 375.414307 
L 434.231987 336.082296 
L 435.224693 375.369132 
L 436.217399 352.273555 
L 437.210105 341.641623 
L 438.202811 398.715007 
L 439.195517 353.246528 
L 440.188223 353.954198 
L 441.180929 407.138284 
L 442.173635 346.604246 
L 443.166341 357.834577 
L 444.159046 389.619031 
L 445.151752 350.421183 
L 446.144458 368.989239 
L 447.137164 380.977477 
L 448.12987 356.467094 
L 449.122576 357.881433 
L 450.115282 386.125522 
L 451.107988 355.907777 
L 452.100694 353.277794 
L 453.0934 409.251617 
L 454.086106 347.070984 
L 455.078812 348.323688 
L 456.071518 418.99048 
L 457.064223 334.84448 
L 458.056929 346.85879 
L 459.049635 366.68334 
L 460.042341 321.324363 
L 461.035047 344.243782 
L 462.027753 341.043136 
L 463.020459 315.517186 
L 464.013165 345.336653 
L 465.005871 324.674691 
L 465.998577 312.526795 
L 466.991283 344.157688 
L 467.983989 313.571788 
L 468.976695 311.881157 
L 469.9694 334.83685 
L 470.962106 307.997466 
L 471.954812 317.659215 
L 472.947518 329.791226 
L 473.940224 306.46096 
L 474.93293 324.430277 
L 475.925636 325.267283 
L 476.918342 309.044598 
L 477.911048 336.706173 
L 478.903754 322.134563 
L 479.89646 316.840491 
L 480.889166 354.398111 
L 481.881872 324.424858 
L 482.874577 328.193809 
L 483.867283 369.103829 
L 484.859989 327.557767 
L 486.845401 376.553839 
L 487.838107 335.213574 
L 488.830813 369.773471 
L 489.823519 364.672779 
L 490.816225 353.791616 
L 491.808931 410.966805 
L 492.801637 367.623239 
L 493.794343 371.644221 
L 494.787049 389.8467 
L 495.779754 369.678819 
L 496.77246 390.403936 
L 497.765166 370.684011 
L 498.757872 377.387317 
L 499.750578 385.599124 
L 500.743284 362.533123 
L 501.73599 391.962677 
L 502.728696 365.993506 
L 503.721402 373.589344 
L 504.714108 385.833742 
L 505.706814 386.412885 
L 506.69952 367.700975 
L 507.692226 392.258013 
L 508.684932 373.266885 
L 509.677637 373.951973 
L 510.670343 364.13886 
L 511.663049 379.173354 
L 512.655755 397.657501 
L 513.648461 348.213623 
L 514.641167 440.212564 
L 515.633873 361.050592 
L 516.626579 354.828451 
L 517.619285 418.381323 
L 518.611991 355.53568 
L 519.604697 349.346994 
L 520.597403 371.656796 
L 521.590109 341.556724 
L 522.582814 371.871487 
L 523.57552 359.466222 
L 524.568226 333.337755 
L 525.560932 372.80651 
L 526.553638 359.975503 
L 527.546344 341.4056 
L 528.53905 379.000501 
L 529.531756 340.380971 
L 530.524462 334.476952 
L 531.517168 363.359266 
L 532.509874 336.733207 
L 533.50258 354.931524 
L 534.495286 369.335098 
L 535.487991 338.645484 
L 536.480697 363.977894 
L 537.473403 355.835047 
L 538.466109 344.79815 
L 539.458815 358.097777 
L 540.451521 332.936955 
L 541.444227 352.562642 
L 542.436933 424.846433 
L 543.429639 341.247166 
L 544.422345 390.065423 
L 545.415051 410.325158 
L 546.407757 339.168 
L 547.400463 403.067678 
L 548.393168 366.041853 
L 549.385874 350.026889 
L 550.37858 443.54373 
L 551.371286 347.260806 
L 552.363992 367.390261 
L 553.356698 401.979926 
L 554.349404 356.475141 
L 555.34211 394.903018 
L 556.334816 411.736767 
L 557.327522 351.045532 
L 558.320228 401.244192 
L 559.312934 380.524571 
L 560.30564 372.110783 
L 561.298345 401.156891 
L 562.291051 392.688108 
L 563.283757 372.380079 
L 564.276463 374.814302 
L 565.269169 492.48 
L 566.261875 368.156257 
L 567.254581 377.857996 
L 568.247287 433.442044 
L 569.239993 369.136552 
L 570.232699 368.041693 
L 571.225405 430.923709 
L 572.218111 358.373792 
L 573.210817 380.065726 
L 574.203523 392.276637 
L 575.196228 356.40283 
L 576.188934 394.10248 
L 578.174346 361.634814 
L 579.167052 426.293362 
L 580.159758 367.392789 
L 581.152464 363.565206 
L 582.14517 443.735326 
L 583.137876 357.665087 
L 584.130582 386.188742 
L 585.123288 402.952024 
L 586.115994 366.879634 
L 587.1087 391.266037 
L 588.101405 379.815812 
L 589.094111 382.861722 
L 590.086817 416.757942 
L 591.079523 367.825349 
L 592.072229 388.128284 
L 593.064935 404.687749 
L 594.057641 363.342563 
L 595.050347 422.341748 
L 596.043053 377.037012 
L 597.035759 360.47437 
L 598.028465 457.45733 
L 599.021171 357.345021 
L 600.013877 358.521706 
L 601.006582 405.481688 
L 601.999288 349.113612 
L 602.991994 364.558844 
L 603.9847 377.582008 
L 604.977406 344.748498 
L 605.970112 374.573299 
L 606.962818 363.158703 
L 607.955524 342.452422 
L 608.94823 380.547609 
L 609.940936 353.579492 
L 610.933642 344.281128 
L 611.926348 391.20837 
L 612.919054 349.848034 
L 613.911759 352.134711 
L 614.904465 394.598831 
L 615.897171 348.697088 
L 616.889877 363.721944 
L 617.882583 391.394734 
L 618.875289 353.007906 
L 619.867995 382.081587 
L 620.860701 382.945504 
L 621.853407 361.227229 
L 622.846113 416.147299 
L 623.838819 387.25397 
L 624.831525 374.855144 
L 625.824231 419.316452 
L 626.816936 390.211216 
L 627.809642 389.703596 
L 628.802348 396.66724 
L 629.795054 406.396744 
L 630.78776 391.702252 
L 631.780466 382.325126 
L 632.773172 437.822264 
L 633.765878 379.475355 
L 634.758584 383.854212 
L 635.75129 440.711982 
L 636.743996 369.134546 
L 637.736702 389.528087 
L 638.729408 405.222097 
L 639.722114 366.177797 
L 640.714819 404.104593 
L 641.707525 387.1346 
L 642.700231 367.952885 
L 643.692937 443.615168 
L 644.685643 380.083968 
L 645.678349 377.188991 
L 646.671055 460.183745 
L 647.663761 376.132296 
L 648.656467 388.949145 
L 649.649173 417.185212 
L 650.641879 377.125053 
L 651.634585 403.759625 
L 652.627291 399.519833 
L 653.619996 383.548881 
L 654.612702 414.935164 
L 655.605408 393.421826 
L 656.598114 390.513576 
L 657.59082 412.821501 
L 658.583526 395.00983 
L 659.576232 391.782676 
L 660.568938 411.168285 
L 661.561644 397.148086 
L 662.55435 389.440082 
L 663.547056 415.562582 
L 664.539762 391.507649 
L 665.532468 386.621259 
L 666.525173 430.092437 
L 667.517879 385.653757 
L 668.510585 386.631515 
L 669.503291 437.920319 
L 670.495997 378.070463 
L 671.488703 391.185898 
L 672.481409 420.91305 
L 673.474115 373.125874 
L 674.466821 400.913362 
L 675.459527 404.932242 
L 676.452233 372.815708 
L 677.444939 413.122931 
L 679.43035 375.146513 
L 680.423056 431.472026 
L 681.415762 390.450246 
L 682.408468 378.099588 
L 683.401174 436.814144 
L 684.39388 390.442853 
L 685.386586 381.142066 
L 686.379292 436.553472 
L 687.371998 391.160438 
L 688.364704 382.11039 
L 689.35741 437.320579 
L 690.350116 390.2245 
L 691.342822 380.588789 
L 692.335527 446.822136 
L 693.328233 387.173391 
L 694.320939 380.820771 
L 695.313645 463.990592 
L 696.306351 384.427308 
L 697.299057 381.930137 
L 698.291763 469.204194 
L 699.284469 382.40741 
L 700.277175 385.323989 
L 701.269881 454.316269 
L 702.262587 383.388843 
L 703.255293 388.310005 
L 704.247999 449.180969 
L 705.240705 384.428393 
L 706.23341 387.498087 
L 707.226116 454.661477 
L 708.218822 383.099357 
L 709.211528 386.439435 
L 710.204234 469.220489 
L 711.19694 379.683467 
L 712.189646 384.559243 
L 713.182352 456.996969 
L 714.175058 373.700852 
L 715.167764 386.57065 
L 716.16047 425.730045 
L 717.153176 370.029961 
L 718.145882 393.766006 
L 719.138587 405.703631 
L 720.131293 369.370492 
L 721.123999 408.192458 
L 722.116705 393.688628 
L 723.109411 373.253578 
L 724.102117 436.047399 
L 725.094823 388.124253 
L 726.087529 380.734345 
L 727.080235 463.739523 
L 728.072941 387.991962 
L 729.065647 392.64405 
L 730.058353 431.792838 
L 731.051059 392.100312 
L 732.043764 403.865179 
L 733.03647 411.971587 
L 734.029176 400.773207 
L 735.021882 405.233669 
L 736.014588 405.819482 
L 737.007294 411.438311 
L 738 398.293892 
L 738.992706 406.7193 
L 739.985412 413.819627 
L 740.978118 392.787902 
L 741.970824 414.65038 
L 742.96353 407.177425 
L 743.956236 392.669929 
L 744.948941 423.642664 
L 745.941647 400.16831 
L 746.934353 397.308901 
L 747.927059 423.14582 
L 748.919765 397.542285 
L 750.905177 412.629247 
L 751.897883 399.652379 
L 752.890589 412.295739 
L 753.883295 405.51504 
L 754.876001 405.847633 
L 755.868707 410.514762 
L 756.861413 402.811295 
L 757.854118 412.216296 
L 758.846824 405.290773 
L 759.83953 405.429314 
L 760.832236 413.03024 
L 761.824942 402.394232 
L 762.817648 411.089088 
L 763.810354 406.875924 
L 764.80306 405.517018 
L 765.795766 411.726572 
L 766.788472 401.285305 
L 767.781178 415.711461 
L 768.773884 403.642022 
L 769.76659 401.015203 
L 770.759295 427.452992 
L 771.752001 393.163446 
L 773.737413 419.777049 
L 774.730119 385.973193 
L 775.722825 421.810386 
L 777.708237 383.087359 
L 778.700943 457.052282 
L 779.693649 389.516759 
L 780.686355 385.815548 
L 781.679061 490.438644 
L 782.671767 382.515969 
L 783.664473 394.125625 
L 784.657178 434.923086 
L 785.649884 380.792742 
L 786.64259 409.295401 
L 787.635296 412.594902 
L 788.628002 384.671365 
L 789.620708 430.408285 
L 790.613414 402.278714 
L 791.60612 392.918771 
L 792.598826 435.015963 
L 793.591532 399.73455 
L 794.584238 405.91633 
L 795.576944 416.876141 
L 796.56965 403.769212 
L 797.562355 415.125742 
L 798.555061 403.842556 
L 799.547767 413.960784 
L 800.540473 410.760567 
L 801.533179 398.048609 
L 802.525885 431.668076 
L 803.518591 400.204167 
L 804.511297 397.827553 
L 805.504003 441.701878 
L 806.496709 392.970632 
L 807.489415 403.316051 
L 808.482121 433.114689 
L 809.474827 390.018673 
L 810.467532 411.648221 
L 811.460238 419.361828 
L 812.452944 390.79736 
L 813.44565 421.525969 
L 814.438356 412.688518 
L 815.431062 393.855056 
L 816.423768 426.223076 
L 817.416474 409.273204 
L 818.40918 397.666112 
L 819.401886 425.137035 
L 820.394592 408.920559 
L 821.387298 400.34763 
L 822.380004 423.137397 
L 823.372709 409.5983 
L 824.365415 401.762276 
L 825.358121 421.944233 
L 826.350827 409.959647 
L 827.343533 403.348249 
L 828.336239 421.732881 
L 829.328945 409.022862 
L 830.321651 404.442506 
L 831.314357 421.185873 
L 832.307063 409.82959 
L 833.299769 406.5589 
L 834.292475 418.1174 
L 835.285181 410.314663 
L 836.277886 407.959871 
L 837.270592 415.759898 
L 838.263298 413.291806 
L 839.256004 407.715444 
L 840.24871 414.551969 
L 841.241416 416.01323 
L 842.234122 405.987671 
L 843.226828 415.375585 
L 844.219534 415.776897 
L 845.21224 404.734941 
L 846.204946 417.760525 
L 847.197652 414.088709 
L 848.190358 405.559405 
L 849.183064 419.211118 
L 850.175769 412.231965 
L 851.168475 407.669579 
L 852.161181 417.506509 
L 853.153887 413.289705 
L 854.146593 410.60661 
L 855.139299 412.106447 
L 856.132005 418.194992 
L 857.124711 408.039631 
L 858.117417 409.721653 
L 859.110123 426.07272 
L 860.102829 402.879867 
L 861.095535 410.909403 
L 862.088241 427.754299 
L 863.080946 396.605366 
L 864.073652 418.562704 
L 865.066358 418.996485 
L 866.059064 393.916349 
L 867.05177 433.261904 
L 868.044476 406.334276 
L 869.037182 395.191734 
L 870.029888 453.656026 
L 871.022594 398.585361 
L 872.0153 402.20186 
L 873.008006 441.50842 
L 874.000712 395.131025 
L 874.993418 415.887978 
L 875.986123 419.391115 
L 876.978829 397.591059 
L 877.971535 434.297368 
L 878.964241 406.098173 
L 879.956947 406.614733 
L 880.949653 431.081077 
L 881.942359 399.731912 
L 882.935065 424.043797 
L 883.927771 411.109912 
L 884.920477 400.117192 
L 885.913183 446.046882 
L 886.905889 398.306677 
L 887.898595 407.873617 
L 888.8913 432.589715 
L 889.884006 391.542322 
L 890.876712 424.739041 
L 891.869418 409.770281 
L 892.862124 391.129971 
L 893.85483 461.115828 
L 894.847536 396.825398 
L 895.840242 396.931113 
L 896.832948 462.497221 
L 897.825654 391.002616 
L 898.81836 409.912652 
L 899.811066 424.736133 
L 900.803772 390.573098 
L 901.796477 434.42274 
L 902.789183 406.913187 
L 903.781889 395.795772 
L 904.774595 457.442404 
L 905.767301 398.997131 
L 906.760007 407.262118 
L 907.752713 435.73477 
L 908.745419 397.020509 
L 909.738125 423.139003 
L 910.730831 415.50072 
L 911.723537 400.61189 
L 912.716243 437.223979 
L 913.708949 406.637556 
L 914.701655 409.247106 
L 915.69436 431.548942 
L 916.687066 404.159379 
L 917.679772 419.356294 
L 918.672478 419.38407 
L 919.665184 406.259228 
L 920.65789 425.770609 
L 921.650596 412.315131 
L 922.643302 412.365511 
L 923.636008 422.327666 
L 924.628714 411.656397 
L 925.62142 419.266941 
L 926.614126 416.08858 
L 927.606832 414.046755 
L 928.599537 421.632815 
L 929.592243 411.100869 
L 930.584949 419.703667 
L 931.577655 417.81835 
L 932.570361 409.806223 
L 933.563067 423.989779 
L 934.555773 414.049722 
L 935.548479 410.818067 
L 936.541185 427.355913 
L 937.533891 410.516751 
L 938.526597 413.22374 
L 939.519303 427.040233 
L 940.512009 409.089278 
L 941.504714 415.268828 
L 942.49742 426.815442 
L 943.490126 407.833628 
L 945.475538 426.436577 
L 946.468244 406.529373 
L 947.46095 419.28459 
L 948.453656 424.89861 
L 949.446362 405.130251 
L 950.439068 422.944342 
L 951.431774 421.618947 
L 952.42448 404.804498 
L 953.417186 428.297754 
L 955.402597 405.914127 
L 956.395303 431.617732 
L 957.388009 413.699777 
L 958.380715 408.435751 
L 959.373421 431.35056 
L 960.366127 412.700248 
L 961.358833 411.43719 
L 962.351539 427.498116 
L 963.344245 414.089054 
L 964.336951 411.436517 
L 965.329657 426.423764 
L 966.322363 415.96471 
L 967.315068 409.084015 
L 968.307774 429.40283 
L 969.30048 414.716083 
L 970.293186 406.000597 
L 971.285892 438.261966 
L 972.278598 409.701035 
L 973.271304 405.613936 
L 974.26401 450.705413 
L 975.256716 402.170861 
L 976.249422 408.006552 
L 977.242128 445.817468 
L 978.234834 397.521498 
L 979.22754 416.523116 
L 980.220246 429.444552 
L 981.212951 396.586313 
L 982.205657 431.221577 
L 984.191069 399.123975 
L 985.183775 446.928417 
L 986.176481 408.061478 
L 987.169187 406.301959 
L 988.161893 442.131514 
L 989.154599 406.718039 
L 991.140011 426.809484 
L 992.132717 409.942613 
L 993.125423 423.99427 
L 994.118128 417.023797 
L 995.110834 419.157956 
L 996.10354 419.022633 
L 997.096246 413.740798 
L 998.088952 429.845799 
L 999.081658 408.905899 
L 1000.074364 418.202459 
L 1001.06707 429.945232 
L 1002.059776 401.848071 
L 1003.052482 430.851823 
L 1004.045188 417.208259 
L 1005.037894 399.48493 
L 1006.0306 453.293816 
L 1007.023305 405.286434 
L 1008.016011 402.045289 
L 1009.008717 468.083839 
L 1010.001423 398.390531 
L 1010.994129 409.399868 
L 1011.986835 442.066856 
L 1012.979541 395.810312 
L 1013.972247 422.334323 
L 1014.964953 424.113239 
L 1015.957659 398.430558 
L 1016.950365 436.968329 
L 1017.943071 414.740252 
L 1018.935777 403.54992 
L 1019.928482 441.32703 
L 1020.921188 411.709183 
L 1021.913894 410.180275 
L 1022.9066 434.516989 
L 1023.899306 413.375193 
L 1024.892012 414.602217 
L 1025.884718 427.741823 
L 1026.877424 416.759153 
L 1027.87013 414.932504 
L 1028.862836 426.511728 
L 1030.848248 411.890156 
L 1031.840954 429.416924 
L 1032.833659 417.242187 
L 1033.826365 410.687213 
L 1034.819071 434.967811 
L 1035.811777 413.109898 
L 1036.804483 412.380078 
L 1037.797189 437.045495 
L 1038.789895 410.232069 
L 1039.782601 415.710343 
L 1040.775307 433.240533 
L 1041.768013 408.746891 
L 1042.760719 420.619387 
L 1043.753425 427.412486 
L 1044.746131 410.363926 
L 1045.738837 424.637133 
L 1046.731542 423.294051 
L 1047.724248 413.299301 
L 1048.716954 424.078443 
L 1049.70966 422.760729 
L 1050.702366 413.849403 
L 1051.695072 422.301298 
L 1052.687778 424.936352 
L 1053.680484 413.33266 
L 1054.67319 422.821422 
L 1055.665896 424.740357 
L 1056.658602 410.854377 
L 1057.651308 427.015009 
L 1058.644014 422.583997 
L 1059.636719 409.083025 
L 1060.629425 433.529922 
L 1061.622131 417.341213 
L 1062.614837 410.163654 
L 1063.607543 439.170508 
L 1064.600249 411.846656 
L 1065.592955 413.943793 
L 1066.585661 438.121888 
L 1067.578367 409.004761 
L 1068.571073 418.507154 
L 1069.563779 432.233318 
L 1070.556485 408.651505 
L 1071.549191 424.114083 
L 1072.541896 426.208452 
L 1073.534602 409.825931 
L 1074.527308 427.285688 
L 1075.520014 423.544388 
L 1076.51272 410.984996 
L 1077.505426 428.048451 
L 1078.498132 422.425439 
L 1079.490838 411.026448 
L 1080.483544 427.717321 
L 1081.47625 421.710771 
L 1082.468956 410.527722 
L 1083.461662 431.991604 
L 1084.454368 419.607818 
L 1085.447073 408.938872 
L 1086.439779 437.859359 
L 1087.432485 415.305097 
L 1088.425191 409.530246 
L 1089.417897 442.892736 
L 1090.410603 410.927572 
L 1091.403309 412.022117 
L 1092.396015 442.890286 
L 1093.388721 408.693153 
L 1094.381427 416.535524 
L 1095.374133 436.700635 
L 1096.366839 407.946843 
L 1097.359545 421.325324 
L 1098.35225 430.968539 
L 1099.344956 410.601839 
L 1100.337662 422.909242 
L 1101.330368 427.591593 
L 1102.323074 412.362135 
L 1104.308486 429.580036 
L 1105.301192 413.042122 
L 1106.293898 418.865344 
L 1107.286604 434.231628 
L 1108.27931 410.190539 
L 1109.272016 418.435374 
L 1110.264722 436.750003 
L 1111.257428 405.961225 
L 1112.250133 421.711659 
L 1113.242839 432.751869 
L 1114.235545 403.318557 
L 1115.228251 429.35495 
L 1116.220957 422.91472 
L 1117.213663 402.793021 
L 1118.206369 440.530083 
L 1119.199075 416.488996 
L 1120.191781 405.84089 
L 1121.184487 445.303872 
L 1122.177193 412.510426 
L 1123.169899 411.094457 
L 1124.162605 441.810548 
L 1125.15531 412.973444 
L 1126.148016 416.127072 
L 1127.140722 433.345826 
L 1128.133428 415.822334 
L 1129.126134 417.639791 
L 1130.11884 429.806324 
L 1131.111546 420.032505 
L 1132.104252 414.946734 
L 1133.096958 431.050369 
L 1134.089664 420.03946 
L 1135.08237 411.686228 
L 1136.075076 437.173795 
L 1137.067782 415.8803 
L 1138.060487 411.379668 
L 1139.053193 442.199789 
L 1140.045899 410.54445 
L 1141.038605 414.395012 
L 1142.031311 442.957546 
L 1143.024017 407.26252 
L 1144.016723 421.519718 
L 1145.009429 431.728455 
L 1146.002135 407.921559 
L 1146.994841 429.863768 
L 1147.987547 422.831691 
L 1148.980253 411.546928 
L 1149.972959 433.644702 
L 1150.965664 417.087169 
L 1151.95837 418.677132 
L 1152.951076 429.050415 
L 1153.943782 416.201219 
L 1154.936488 425.354627 
L 1155.929194 420.791336 
L 1156.9219 419.713839 
L 1157.914606 426.831383 
L 1158.907312 416.837723 
L 1159.900018 425.30554 
L 1160.892724 423.030636 
L 1161.88543 416.134719 
L 1162.878136 430.572398 
L 1163.870841 417.122553 
L 1164.863547 418.927682 
L 1165.856253 430.697163 
L 1166.848959 413.994262 
L 1167.841665 425.106691 
L 1168.834371 423.602779 
L 1169.827077 414.509625 
L 1170.819783 430.120938 
L 1171.812489 417.821703 
L 1172.805195 419.473856 
L 1173.797901 429.65856 
L 1174.790607 414.645797 
L 1175.783313 425.741049 
L 1176.776019 424.313628 
L 1177.768724 414.465575 
L 1178.76143 431.990562 
L 1179.754136 417.90752 
L 1180.746842 415.971457 
L 1181.739548 434.780445 
L 1182.732254 413.907124 
L 1183.72496 420.074831 
L 1184.717666 432.305486 
L 1185.710372 412.258302 
L 1186.703078 424.733348 
L 1187.695784 428.21739 
L 1188.68849 411.507646 
L 1189.681196 427.297504 
L 1190.673901 425.482921 
L 1191.666607 412.497001 
L 1192.659313 429.991236 
L 1194.644725 413.379805 
L 1195.637431 430.898175 
L 1196.630137 421.264327 
L 1197.622843 415.033155 
L 1198.615549 431.22349 
L 1199.608255 419.972417 
L 1200.600961 416.383963 
L 1201.593667 430.364321 
L 1202.586373 419.758532 
L 1203.579078 418.168315 
L 1204.571784 427.67163 
L 1205.56449 421.326204 
L 1206.557196 418.542658 
L 1207.549902 425.469345 
L 1208.542608 424.008658 
L 1209.535314 417.077241 
L 1210.52802 424.116531 
L 1211.520726 426.937887 
L 1212.513432 413.822141 
L 1213.506138 426.186179 
L 1214.498844 427.13468 
L 1215.49155 411.151253 
L 1216.484255 431.72415 
L 1217.476961 422.47241 
L 1218.469667 409.233884 
L 1219.462373 439.62005 
L 1220.455079 416.033062 
L 1221.447785 410.619319 
L 1222.440491 444.88207 
L 1223.433197 411.786159 
L 1224.425903 415.423833 
L 1225.418609 440.163495 
L 1226.411315 410.062495 
L 1227.404021 422.987693 
L 1228.396727 429.834631 
L 1229.389432 412.700618 
L 1230.382138 428.754608 
L 1231.374844 422.328859 
L 1232.36755 418.18058 
L 1233.360256 427.000853 
L 1234.352962 419.513175 
L 1235.345668 426.463888 
L 1236.338374 419.405799 
L 1237.33108 421.113265 
L 1238.323786 428.516867 
L 1239.316492 412.851036 
L 1240.309198 426.914104 
L 1241.301904 424.086427 
L 1242.29461 410.501394 
L 1243.287315 437.956059 
L 1244.280021 416.954101 
L 1245.272727 411.50024 
L 1245.272727 411.50024 
" clip-path="url(#pee3b1ba594)" style="fill: none; stroke: #1f77b4; stroke-width: 1.5; stroke-linecap: square"/>
   </g>
   <g id="patch_3">
    <path d="M 180 512.64 
L 180 69.12 
" style="fill: none; stroke: #000000; stroke-width: 0.8; stroke-linejoin: miter; stroke-linecap: square"/>
   </g>
   <g id="patch_4">
    <path d="M 1296 512.64 
L 1296 69.12 
" style="fill: none; stroke: #000000; stroke-width: 0.8; stroke-linejoin: miter; stroke-linecap: square"/>
   </g>
   <g id="patch_5">
    <path d="M 180 512.64 
L 1296 512.64 
" style="fill: none; stroke: #000000; stroke-width: 0.8; stroke-linejoin: miter; stroke-linecap: square"/>
   </g>
   <g id="patch_6">
    <path d="M 180 69.12 
L 1296 69.12 
" style="fill: none; stroke: #000000; stroke-width: 0.8; stroke-linejoin: miter; stroke-linecap: square"/>
   </g>
   <g id="text_11">
    <!-- source23-receiver11 -->
    <g transform="translate(532.175 60.80125) scale(0.4 -0.4)">
     <defs>
      <path id="DejaVuSans-73" d="M 2834 3397 
L 2834 2853 
Q 2591 2978 2328 3040 
Q 2066 3103 1784 3103 
Q 1356 3103 1142 2972 
Q 928 2841 928 2578 
Q 928 2378 1081 2264 
Q 1234 2150 1697 2047 
L 1894 2003 
Q 2506 1872 2764 1633 
Q 3022 1394 3022 966 
Q 3022 478 2636 193 
Q 2250 -91 1575 -91 
Q 1294 -91 989 -36 
Q 684 19 347 128 
L 347 722 
Q 666 556 975 473 
Q 1284 391 1588 391 
Q 1994 391 2212 530 
Q 2431 669 2431 922 
Q 2431 1156 2273 1281 
Q 2116 1406 1581 1522 
L 1381 1569 
Q 847 1681 609 1914 
Q 372 2147 372 2553 
Q 372 3047 722 3315 
Q 1072 3584 1716 3584 
Q 2034 3584 2315 3537 
Q 2597 3491 2834 3397 
z
" transform="scale(0.015625)"/>
      <path id="DejaVuSans-6f" d="M 1959 3097 
Q 1497 3097 1228 2736 
Q 959 2375 959 1747 
Q 959 1119 1226 758 
Q 1494 397 1959 397 
Q 2419 397 2687 759 
Q 2956 1122 2956 1747 
Q 2956 2369 2687 2733 
Q 2419 3097 1959 3097 
z
M 1959 3584 
Q 2709 3584 3137 3096 
Q 3566 2609 3566 1747 
Q 3566 888 3137 398 
Q 2709 -91 1959 -91 
Q 1206 -91 779 398 
Q 353 888 353 1747 
Q 353 2609 779 3096 
Q 1206 3584 1959 3584 
z
" transform="scale(0.015625)"/>
      <path id="DejaVuSans-75" d="M 544 1381 
L 544 3500 
L 1119 3500 
L 1119 1403 
Q 1119 906 1312 657 
Q 1506 409 1894 409 
Q 2359 409 2629 706 
Q 2900 1003 2900 1516 
L 2900 3500 
L 3475 3500 
L 3475 0 
L 2900 0 
L 2900 538 
Q 2691 219 2414 64 
Q 2138 -91 1772 -91 
Q 1169 -91 856 284 
Q 544 659 544 1381 
z
M 1991 3584 
L 1991 3584 
z
" transform="scale(0.015625)"/>
      <path id="DejaVuSans-72" d="M 2631 2963 
Q 2534 3019 2420 3045 
Q 2306 3072 2169 3072 
Q 1681 3072 1420 2755 
Q 1159 2438 1159 1844 
L 1159 0 
L 581 0 
L 581 3500 
L 1159 3500 
L 1159 2956 
Q 1341 3275 1631 3429 
Q 1922 3584 2338 3584 
Q 2397 3584 2469 3576 
Q 2541 3569 2628 3553 
L 2631 2963 
z
" transform="scale(0.015625)"/>
      <path id="DejaVuSans-63" d="M 3122 3366 
L 3122 2828 
Q 2878 2963 2633 3030 
Q 2388 3097 2138 3097 
Q 1578 3097 1268 2742 
Q 959 2388 959 1747 
Q 959 1106 1268 751 
Q 1578 397 2138 397 
Q 2388 397 2633 464 
Q 2878 531 3122 666 
L 3122 134 
Q 2881 22 2623 -34 
Q 2366 -91 2075 -91 
Q 1284 -91 818 406 
Q 353 903 353 1747 
Q 353 2603 823 3093 
Q 1294 3584 2113 3584 
Q 2378 3584 2631 3529 
Q 2884 3475 3122 3366 
z
" transform="scale(0.015625)"/>
      <path id="DejaVuSans-65" d="M 3597 1894 
L 3597 1613 
L 953 1613 
Q 991 1019 1311 708 
Q 1631 397 2203 397 
Q 2534 397 2845 478 
Q 3156 559 3463 722 
L 3463 178 
Q 3153 47 2828 -22 
Q 2503 -91 2169 -91 
Q 1331 -91 842 396 
Q 353 884 353 1716 
Q 353 2575 817 3079 
Q 1281 3584 2069 3584 
Q 2775 3584 3186 3129 
Q 3597 2675 3597 1894 
z
M 3022 2063 
Q 3016 2534 2758 2815 
Q 2500 3097 2075 3097 
Q 1594 3097 1305 2825 
Q 1016 2553 972 2059 
L 3022 2063 
z
" transform="scale(0.015625)"/>
      <path id="DejaVuSans-33" d="M 2597 2516 
Q 3050 2419 3304 2112 
Q 3559 1806 3559 1356 
Q 3559 666 3084 287 
Q 2609 -91 1734 -91 
Q 1441 -91 1130 -33 
Q 819 25 488 141 
L 488 750 
Q 750 597 1062 519 
Q 1375 441 1716 441 
Q 2309 441 2620 675 
Q 2931 909 2931 1356 
Q 2931 1769 2642 2001 
Q 2353 2234 1838 2234 
L 1294 2234 
L 1294 2753 
L 1863 2753 
Q 2328 2753 2575 2939 
Q 2822 3125 2822 3475 
Q 2822 3834 2567 4026 
Q 2313 4219 1838 4219 
Q 1578 4219 1281 4162 
Q 984 4106 628 3988 
L 628 4550 
Q 988 4650 1302 4700 
Q 1616 4750 1894 4750 
Q 2613 4750 3031 4423 
Q 3450 4097 3450 3541 
Q 3450 3153 3228 2886 
Q 3006 2619 2597 2516 
z
" transform="scale(0.015625)"/>
      <path id="DejaVuSans-2d" d="M 313 2009 
L 1997 2009 
L 1997 1497 
L 313 1497 
L 313 2009 
z
" transform="scale(0.015625)"/>
      <path id="DejaVuSans-69" d="M 603 3500 
L 1178 3500 
L 1178 0 
L 603 0 
L 603 3500 
z
M 603 4863 
L 1178 4863 
L 1178 4134 
L 603 4134 
L 603 4863 
z
" transform="scale(0.015625)"/>
      <path id="DejaVuSans-76" d="M 191 3500 
L 800 3500 
L 1894 563 
L 2988 3500 
L 3597 3500 
L 2284 0 
L 1503 0 
L 191 3500 
z
" transform="scale(0.015625)"/>
     </defs>
     <use xlink:href="#DejaVuSans-73"/>
     <use xlink:href="#DejaVuSans-6f" x="52.099609"/>
     <use xlink:href="#DejaVuSans-75" x="113.28125"/>
     <use xlink:href="#DejaVuSans-72" x="176.660156"/>
     <use xlink:href="#DejaVuSans-63" x="215.523438"/>
     <use xlink:href="#DejaVuSans-65" x="270.503906"/>
     <use xlink:href="#DejaVuSans-32" x="332.027344"/>
     <use xlink:href="#DejaVuSans-33" x="395.650391"/>
     <use xlink:href="#DejaVuSans-2d" x="459.273438"/>
     <use xlink:href="#DejaVuSans-72" x="495.357422"/>
     <use xlink:href="#DejaVuSans-65" x="534.220703"/>
     <use xlink:href="#DejaVuSans-63" x="595.744141"/>
     <use xlink:href="#DejaVuSans-65" x="650.724609"/>
     <use xlink:href="#DejaVuSans-69" x="712.248047"/>
     <use xlink:href="#DejaVuSans-76" x="740.03125"/>
     <use xlink:href="#DejaVuSans-65" x="799.210938"/>
     <use xlink:href="#DejaVuSans-72" x="860.734375"/>
     <use xlink:href="#DejaVuSans-31" x="901.847656"/>
     <use xlink:href="#DejaVuSans-31" x="965.470703"/>
    </g>
   </g>
  </g>
 </g>
 <defs>
  <clipPath id="pee3b1ba594">
   <rect x="180" y="69.12" width="1116" height="443.52"/>
  </clipPath>
 </defs>
</svg>
