<?xml version="1.0" encoding="utf-8" standalone="no"?>
<!DOCTYPE svg PUBLIC "-//W3C//DTD SVG 1.1//EN"
  "http://www.w3.org/Graphics/SVG/1.1/DTD/svg11.dtd">
<svg xmlns:xlink="http://www.w3.org/1999/xlink" width="1440pt" height="576pt" viewBox="0 0 1440 576" xmlns="http://www.w3.org/2000/svg" version="1.1">
 <metadata>
  <rdf:RDF xmlns:dc="http://purl.org/dc/elements/1.1/" xmlns:cc="http://creativecommons.org/ns#" xmlns:rdf="http://www.w3.org/1999/02/22-rdf-syntax-ns#">
   <cc:Work>
    <dc:type rdf:resource="http://purl.org/dc/dcmitype/StillImage"/>
    <dc:date>2024-05-22T04:50:23.324188</dc:date>
    <dc:format>image/svg+xml</dc:format>
    <dc:creator>
     <cc:Agent>
      <dc:title>Matplotlib v3.8.3, https://matplotlib.org/</dc:title>
     </cc:Agent>
    </dc:creator>
   </cc:Work>
  </rdf:RDF>
 </metadata>
 <defs>
  <style type="text/css">*{stroke-linejoin: round; stroke-linecap: butt}</style>
 </defs>
 <g id="figure_1">
  <g id="patch_1">
   <path d="M 0 576 
L 1440 576 
L 1440 0 
L 0 0 
z
" style="fill: #ffffff"/>
  </g>
  <g id="axes_1">
   <g id="patch_2">
    <path d="M 180 512.64 
L 1296 512.64 
L 1296 69.12 
L 180 69.12 
z
" style="fill: #ffffff"/>
   </g>
   <g id="matplotlib.axis_1">
    <g id="xtick_1">
     <g id="line2d_1">
      <defs>
       <path id="mbd9198d3b6" d="M 0 0 
L 0 3.5 
" style="stroke: #000000; stroke-width: 0.8"/>
      </defs>
      <g>
       <use xlink:href="#mbd9198d3b6" x="229.734567" y="512.64" style="stroke: #000000; stroke-width: 0.8"/>
      </g>
     </g>
     <g id="text_1">
      <!-- 0 -->
      <g transform="translate(226.553317 527.238438) scale(0.1 -0.1)">
       <defs>
        <path id="DejaVuSans-30" d="M 2034 4250 
Q 1547 4250 1301 3770 
Q 1056 3291 1056 2328 
Q 1056 1369 1301 889 
Q 1547 409 2034 409 
Q 2525 409 2770 889 
Q 3016 1369 3016 2328 
Q 3016 3291 2770 3770 
Q 2525 4250 2034 4250 
z
M 2034 4750 
Q 2819 4750 3233 4129 
Q 3647 3509 3647 2328 
Q 3647 1150 3233 529 
Q 2819 -91 2034 -91 
Q 1250 -91 836 529 
Q 422 1150 422 2328 
Q 422 3509 836 4129 
Q 1250 4750 2034 4750 
z
" transform="scale(0.015625)"/>
       </defs>
       <use xlink:href="#DejaVuSans-30"/>
      </g>
     </g>
    </g>
    <g id="xtick_2">
     <g id="line2d_2">
      <g>
       <use xlink:href="#mbd9198d3b6" x="433.04074" y="512.64" style="stroke: #000000; stroke-width: 0.8"/>
      </g>
     </g>
     <g id="text_2">
      <!-- 500 -->
      <g transform="translate(423.49699 527.238438) scale(0.1 -0.1)">
       <defs>
        <path id="DejaVuSans-35" d="M 691 4666 
L 3169 4666 
L 3169 4134 
L 1269 4134 
L 1269 2991 
Q 1406 3038 1543 3061 
Q 1681 3084 1819 3084 
Q 2600 3084 3056 2656 
Q 3513 2228 3513 1497 
Q 3513 744 3044 326 
Q 2575 -91 1722 -91 
Q 1428 -91 1123 -41 
Q 819 9 494 109 
L 494 744 
Q 775 591 1075 516 
Q 1375 441 1709 441 
Q 2250 441 2565 725 
Q 2881 1009 2881 1497 
Q 2881 1984 2565 2268 
Q 2250 2553 1709 2553 
Q 1456 2553 1204 2497 
Q 953 2441 691 2322 
L 691 4666 
z
" transform="scale(0.015625)"/>
       </defs>
       <use xlink:href="#DejaVuSans-35"/>
       <use xlink:href="#DejaVuSans-30" x="63.623047"/>
       <use xlink:href="#DejaVuSans-30" x="127.246094"/>
      </g>
     </g>
    </g>
    <g id="xtick_3">
     <g id="line2d_3">
      <g>
       <use xlink:href="#mbd9198d3b6" x="636.346913" y="512.64" style="stroke: #000000; stroke-width: 0.8"/>
      </g>
     </g>
     <g id="text_3">
      <!-- 1000 -->
      <g transform="translate(623.621913 527.238438) scale(0.1 -0.1)">
       <defs>
        <path id="DejaVuSans-31" d="M 794 531 
L 1825 531 
L 1825 4091 
L 703 3866 
L 703 4441 
L 1819 4666 
L 2450 4666 
L 2450 531 
L 3481 531 
L 3481 0 
L 794 0 
L 794 531 
z
" transform="scale(0.015625)"/>
       </defs>
       <use xlink:href="#DejaVuSans-31"/>
       <use xlink:href="#DejaVuSans-30" x="63.623047"/>
       <use xlink:href="#DejaVuSans-30" x="127.246094"/>
       <use xlink:href="#DejaVuSans-30" x="190.869141"/>
      </g>
     </g>
    </g>
    <g id="xtick_4">
     <g id="line2d_4">
      <g>
       <use xlink:href="#mbd9198d3b6" x="839.653087" y="512.64" style="stroke: #000000; stroke-width: 0.8"/>
      </g>
     </g>
     <g id="text_4">
      <!-- 1500 -->
      <g transform="translate(826.928087 527.238438) scale(0.1 -0.1)">
       <use xlink:href="#DejaVuSans-31"/>
       <use xlink:href="#DejaVuSans-35" x="63.623047"/>
       <use xlink:href="#DejaVuSans-30" x="127.246094"/>
       <use xlink:href="#DejaVuSans-30" x="190.869141"/>
      </g>
     </g>
    </g>
    <g id="xtick_5">
     <g id="line2d_5">
      <g>
       <use xlink:href="#mbd9198d3b6" x="1042.95926" y="512.64" style="stroke: #000000; stroke-width: 0.8"/>
      </g>
     </g>
     <g id="text_5">
      <!-- 2000 -->
      <g transform="translate(1030.23426 527.238438) scale(0.1 -0.1)">
       <defs>
        <path id="DejaVuSans-32" d="M 1228 531 
L 3431 531 
L 3431 0 
L 469 0 
L 469 531 
Q 828 903 1448 1529 
Q 2069 2156 2228 2338 
Q 2531 2678 2651 2914 
Q 2772 3150 2772 3378 
Q 2772 3750 2511 3984 
Q 2250 4219 1831 4219 
Q 1534 4219 1204 4116 
Q 875 4013 500 3803 
L 500 4441 
Q 881 4594 1212 4672 
Q 1544 4750 1819 4750 
Q 2544 4750 2975 4387 
Q 3406 4025 3406 3419 
Q 3406 3131 3298 2873 
Q 3191 2616 2906 2266 
Q 2828 2175 2409 1742 
Q 1991 1309 1228 531 
z
" transform="scale(0.015625)"/>
       </defs>
       <use xlink:href="#DejaVuSans-32"/>
       <use xlink:href="#DejaVuSans-30" x="63.623047"/>
       <use xlink:href="#DejaVuSans-30" x="127.246094"/>
       <use xlink:href="#DejaVuSans-30" x="190.869141"/>
      </g>
     </g>
    </g>
    <g id="xtick_6">
     <g id="line2d_6">
      <g>
       <use xlink:href="#mbd9198d3b6" x="1246.265433" y="512.64" style="stroke: #000000; stroke-width: 0.8"/>
      </g>
     </g>
     <g id="text_6">
      <!-- 2500 -->
      <g transform="translate(1233.540433 527.238438) scale(0.1 -0.1)">
       <use xlink:href="#DejaVuSans-32"/>
       <use xlink:href="#DejaVuSans-35" x="63.623047"/>
       <use xlink:href="#DejaVuSans-30" x="127.246094"/>
       <use xlink:href="#DejaVuSans-30" x="190.869141"/>
      </g>
     </g>
    </g>
   </g>
   <g id="matplotlib.axis_2">
    <g id="ytick_1">
     <g id="line2d_7">
      <defs>
       <path id="mbc7abef25b" d="M 0 0 
L -3.5 0 
" style="stroke: #000000; stroke-width: 0.8"/>
      </defs>
      <g>
       <use xlink:href="#mbc7abef25b" x="180" y="504.190248" style="stroke: #000000; stroke-width: 0.8"/>
      </g>
     </g>
     <g id="text_7">
      <!-- −4 -->
      <g transform="translate(158.257812 507.989467) scale(0.1 -0.1)">
       <defs>
        <path id="DejaVuSans-2212" d="M 678 2272 
L 4684 2272 
L 4684 1741 
L 678 1741 
L 678 2272 
z
" transform="scale(0.015625)"/>
        <path id="DejaVuSans-34" d="M 2419 4116 
L 825 1625 
L 2419 1625 
L 2419 4116 
z
M 2253 4666 
L 3047 4666 
L 3047 1625 
L 3713 1625 
L 3713 1100 
L 3047 1100 
L 3047 0 
L 2419 0 
L 2419 1100 
L 313 1100 
L 313 1709 
L 2253 4666 
z
" transform="scale(0.015625)"/>
       </defs>
       <use xlink:href="#DejaVuSans-2212"/>
       <use xlink:href="#DejaVuSans-34" x="83.789062"/>
      </g>
     </g>
    </g>
    <g id="ytick_2">
     <g id="line2d_8">
      <g>
       <use xlink:href="#mbc7abef25b" x="180" y="423.002766" style="stroke: #000000; stroke-width: 0.8"/>
      </g>
     </g>
     <g id="text_8">
      <!-- −2 -->
      <g transform="translate(158.257812 426.801985) scale(0.1 -0.1)">
       <use xlink:href="#DejaVuSans-2212"/>
       <use xlink:href="#DejaVuSans-32" x="83.789062"/>
      </g>
     </g>
    </g>
    <g id="ytick_3">
     <g id="line2d_9">
      <g>
       <use xlink:href="#mbc7abef25b" x="180" y="341.815284" style="stroke: #000000; stroke-width: 0.8"/>
      </g>
     </g>
     <g id="text_9">
      <!-- 0 -->
      <g transform="translate(166.6375 345.614503) scale(0.1 -0.1)">
       <use xlink:href="#DejaVuSans-30"/>
      </g>
     </g>
    </g>
    <g id="ytick_4">
     <g id="line2d_10">
      <g>
       <use xlink:href="#mbc7abef25b" x="180" y="260.627802" style="stroke: #000000; stroke-width: 0.8"/>
      </g>
     </g>
     <g id="text_10">
      <!-- 2 -->
      <g transform="translate(166.6375 264.42702) scale(0.1 -0.1)">
       <use xlink:href="#DejaVuSans-32"/>
      </g>
     </g>
    </g>
    <g id="ytick_5">
     <g id="line2d_11">
      <g>
       <use xlink:href="#mbc7abef25b" x="180" y="179.440319" style="stroke: #000000; stroke-width: 0.8"/>
      </g>
     </g>
     <g id="text_11">
      <!-- 4 -->
      <g transform="translate(166.6375 183.239538) scale(0.1 -0.1)">
       <use xlink:href="#DejaVuSans-34"/>
      </g>
     </g>
    </g>
    <g id="ytick_6">
     <g id="line2d_12">
      <g>
       <use xlink:href="#mbc7abef25b" x="180" y="98.252837" style="stroke: #000000; stroke-width: 0.8"/>
      </g>
     </g>
     <g id="text_12">
      <!-- 6 -->
      <g transform="translate(166.6375 102.052056) scale(0.1 -0.1)">
       <defs>
        <path id="DejaVuSans-36" d="M 2113 2584 
Q 1688 2584 1439 2293 
Q 1191 2003 1191 1497 
Q 1191 994 1439 701 
Q 1688 409 2113 409 
Q 2538 409 2786 701 
Q 3034 994 3034 1497 
Q 3034 2003 2786 2293 
Q 2538 2584 2113 2584 
z
M 3366 4563 
L 3366 3988 
Q 3128 4100 2886 4159 
Q 2644 4219 2406 4219 
Q 1781 4219 1451 3797 
Q 1122 3375 1075 2522 
Q 1259 2794 1537 2939 
Q 1816 3084 2150 3084 
Q 2853 3084 3261 2657 
Q 3669 2231 3669 1497 
Q 3669 778 3244 343 
Q 2819 -91 2113 -91 
Q 1303 -91 875 529 
Q 447 1150 447 2328 
Q 447 3434 972 4092 
Q 1497 4750 2381 4750 
Q 2619 4750 2861 4703 
Q 3103 4656 3366 4563 
z
" transform="scale(0.015625)"/>
       </defs>
       <use xlink:href="#DejaVuSans-36"/>
      </g>
     </g>
    </g>
   </g>
   <g id="line2d_13">
    <path d="M 230.727273 257.834599 
L 231.719979 282.758874 
L 232.712685 249.49901 
L 233.70539 262.587939 
L 234.698096 321.319577 
L 235.690802 243.221542 
L 236.683508 238.46959 
L 237.676214 266.6183 
L 238.66892 285.290834 
L 239.661626 282.813607 
L 240.654332 293.629039 
L 241.647038 276.182056 
L 242.639744 249.325602 
L 243.63245 232.894041 
L 244.625156 240.702647 
L 245.617862 281.932898 
L 246.610568 262.003684 
L 247.603273 217.364947 
L 248.595979 203.799344 
L 249.588685 197.134796 
L 250.581391 197.885303 
L 251.574097 203.948456 
L 252.566803 206.763404 
L 253.559509 220.641265 
L 254.552215 239.562307 
L 255.544921 179.319973 
L 256.537627 167.550426 
L 257.530333 167.233781 
L 258.523039 165.371527 
L 259.515745 156.279298 
L 260.50845 158.733117 
L 261.501156 172.707117 
L 262.493862 194.232013 
L 263.486568 272.838255 
L 264.479274 207.824897 
L 265.47198 162.790515 
L 267.457392 196.351234 
L 268.450098 178.700447 
L 269.442804 184.004836 
L 270.43551 152.135606 
L 271.428216 133.414844 
L 272.420922 137.470132 
L 273.413627 163.453951 
L 274.406333 168.562982 
L 275.399039 163.772714 
L 276.391745 186.000255 
L 277.384451 170.555722 
L 278.377157 152.423152 
L 279.369863 163.005972 
L 280.362569 168.788392 
L 281.355275 164.320153 
L 282.347981 149.03407 
L 283.340687 109.399383 
L 284.333393 125.79773 
L 286.318804 89.28 
L 287.31151 123.096613 
L 288.304216 137.110936 
L 289.296922 148.794039 
L 290.289628 155.58415 
L 291.282334 143.689661 
L 292.27504 143.741752 
L 293.267746 181.168507 
L 294.260452 165.404544 
L 295.253158 226.574778 
L 296.245864 157.956288 
L 297.23857 174.691459 
L 298.231276 167.348975 
L 299.223981 173.561463 
L 300.216687 162.330256 
L 301.209393 213.900797 
L 302.202099 241.042688 
L 303.194805 183.599789 
L 304.187511 176.030358 
L 305.180217 184.829472 
L 306.172923 207.676359 
L 307.165629 210.579754 
L 308.158335 227.401442 
L 309.151041 209.147284 
L 310.143747 243.589251 
L 311.136453 211.228616 
L 312.129159 215.618135 
L 313.121864 204.597718 
L 314.11457 230.496026 
L 315.107276 240.065004 
L 316.099982 219.554804 
L 317.092688 210.238749 
L 318.085394 239.165332 
L 319.0781 225.337766 
L 320.070806 236.104064 
L 321.063512 285.950413 
L 322.056218 249.657288 
L 323.048924 256.600592 
L 324.04163 298.894518 
L 325.034336 247.126193 
L 326.027041 294.565753 
L 327.019747 251.468626 
L 328.012453 284.021983 
L 329.005159 247.484032 
L 329.997865 248.168475 
L 330.990571 247.24485 
L 331.983277 244.600547 
L 332.975983 240.314706 
L 333.968689 246.033486 
L 334.961395 236.822819 
L 335.954101 224.204252 
L 336.946807 234.841656 
L 337.939513 223.006149 
L 338.932218 226.916856 
L 339.924924 242.445437 
L 340.91763 245.968563 
L 341.910336 244.644851 
L 342.903042 261.993027 
L 343.895748 255.97442 
L 344.888454 252.449494 
L 345.88116 250.06854 
L 346.873866 254.43452 
L 347.866572 248.087252 
L 348.859278 236.825196 
L 349.851984 249.210431 
L 350.84469 279.561511 
L 351.837395 272.924473 
L 352.830101 255.460624 
L 353.822807 356.723656 
L 354.815513 253.430447 
L 355.808219 258.458891 
L 356.800925 258.049762 
L 357.793631 238.016851 
L 358.786337 244.731156 
L 359.779043 285.691422 
L 360.771749 280.449331 
L 361.764455 237.55509 
L 362.757161 217.203178 
L 363.749867 216.710104 
L 364.742572 220.236614 
L 365.735278 222.312195 
L 366.727984 260.921453 
L 367.72069 280.254365 
L 368.713396 247.74409 
L 369.706102 239.768983 
L 370.698808 249.056085 
L 371.691514 231.764356 
L 372.68422 208.138596 
L 373.676926 203.380531 
L 374.669632 207.362584 
L 375.662338 215.33652 
L 376.655044 262.966025 
L 377.64775 230.606678 
L 378.640455 216.855275 
L 379.633161 216.768957 
L 380.625867 225.103089 
L 381.618573 219.631245 
L 382.611279 206.899303 
L 383.603985 206.127939 
L 384.596691 210.211607 
L 385.589397 197.039998 
L 386.582103 205.545219 
L 387.574809 222.546844 
L 388.567515 211.82933 
L 389.560221 203.88199 
L 390.552927 199.432045 
L 391.545632 225.002305 
L 392.538338 219.489727 
L 393.531044 201.301102 
L 395.516456 184.761083 
L 396.509162 191.533615 
L 397.501868 222.22626 
L 398.494574 227.229287 
L 399.48728 262.688549 
L 400.479986 230.073814 
L 401.472692 232.823397 
L 402.465398 275.005464 
L 403.458104 268.22354 
L 404.450809 330.425035 
L 405.443515 254.131596 
L 406.436221 230.014441 
L 407.428927 250.746826 
L 408.421633 238.948428 
L 409.414339 233.607567 
L 410.407045 272.919653 
L 411.399751 265.239601 
L 412.392457 248.977905 
L 413.385163 252.791134 
L 414.377869 303.491856 
L 415.370575 305.342117 
L 416.363281 265.638048 
L 417.355986 252.894349 
L 418.348692 289.164894 
L 419.341398 374.523717 
L 420.334104 273.275612 
L 421.32681 304.935676 
L 422.319516 256.41995 
L 423.312222 297.422783 
L 424.304928 260.546251 
L 425.297634 262.519998 
L 426.29034 291.611005 
L 427.283046 293.868318 
L 428.275752 277.775094 
L 429.268458 247.912002 
L 430.261163 230.373404 
L 431.253869 269.523136 
L 432.246575 324.775517 
L 433.239281 276.41511 
L 434.231987 259.273341 
L 435.224693 264.586285 
L 436.217399 313.397685 
L 437.210105 258.444238 
L 438.202811 265.105132 
L 439.195517 282.486036 
L 440.188223 288.144127 
L 441.180929 292.469541 
L 442.173635 263.177937 
L 443.166341 250.854749 
L 444.159046 292.324847 
L 445.151752 266.986014 
L 446.144458 286.763286 
L 447.137164 324.067354 
L 448.12987 263.993292 
L 449.122576 245.23599 
L 450.115282 250.479244 
L 451.107988 245.216212 
L 452.100694 262.70322 
L 453.0934 293.686099 
L 454.086106 269.037618 
L 455.078812 281.184752 
L 456.071518 305.511333 
L 457.064223 307.586938 
L 458.056929 282.955709 
L 459.049635 262.732449 
L 460.042341 297.860134 
L 461.035047 307.003076 
L 462.027753 290.183875 
L 463.020459 283.033175 
L 464.013165 271.505357 
L 465.005871 291.082725 
L 465.998577 301.368232 
L 466.991283 317.773298 
L 467.983989 259.618798 
L 468.976695 259.203682 
L 469.9694 264.99274 
L 470.962106 257.611806 
L 471.954812 270.127292 
L 472.947518 253.446403 
L 473.940224 242.736945 
L 474.93293 277.979729 
L 475.925636 246.217659 
L 476.918342 248.011809 
L 477.911048 267.120537 
L 478.903754 261.115856 
L 479.89646 254.086514 
L 480.889166 241.847945 
L 481.881872 245.43705 
L 482.874577 267.150756 
L 483.867283 262.385223 
L 484.859989 295.67232 
L 485.852695 282.547056 
L 486.845401 328.016515 
L 487.838107 302.259002 
L 488.830813 334.971283 
L 489.823519 276.249734 
L 490.816225 301.426856 
L 491.808931 302.299749 
L 492.801637 322.176331 
L 493.794343 291.872538 
L 494.787049 287.693821 
L 495.779754 261.266693 
L 496.77246 251.277059 
L 497.765166 251.127866 
L 498.757872 241.506137 
L 499.750578 250.917156 
L 500.743284 249.119796 
L 501.73599 268.492482 
L 502.728696 294.372135 
L 503.721402 258.278162 
L 504.714108 236.030422 
L 505.706814 236.390675 
L 506.69952 244.18361 
L 507.692226 245.01539 
L 508.684932 262.900712 
L 509.677637 271.234681 
L 510.670343 340.118491 
L 511.663049 298.14459 
L 512.655755 372.068024 
L 513.648461 346.45674 
L 514.641167 277.723989 
L 515.633873 280.09528 
L 516.626579 295.987288 
L 517.619285 270.768293 
L 518.611991 274.054231 
L 519.604697 265.957735 
L 520.597403 314.577491 
L 521.590109 269.786014 
L 522.582814 286.495102 
L 523.57552 283.554832 
L 524.568226 294.062123 
L 525.560932 281.587926 
L 526.553638 342.817134 
L 527.546344 345.515016 
L 528.53905 285.091239 
L 529.531756 315.917675 
L 530.524462 274.685141 
L 531.517168 282.8753 
L 532.509874 318.856444 
L 533.50258 306.338297 
L 534.495286 290.932373 
L 535.487991 346.586586 
L 536.480697 305.020846 
L 537.473403 307.299604 
L 538.466109 285.76928 
L 539.458815 364.313759 
L 540.451521 311.426553 
L 541.444227 322.325637 
L 542.436933 292.436614 
L 543.429639 299.615768 
L 544.422345 295.974599 
L 545.415051 347.247508 
L 546.407757 319.914572 
L 547.400463 295.682954 
L 548.393168 346.312403 
L 549.385874 273.546116 
L 550.37858 286.037614 
L 551.371286 354.663041 
L 552.363992 322.678312 
L 553.356698 297.074395 
L 554.349404 349.618859 
L 555.34211 341.878403 
L 556.334816 290.359965 
L 557.327522 291.891 
L 558.320228 413.147314 
L 559.312934 307.69215 
L 560.30564 290.226825 
L 561.298345 291.081693 
L 562.291051 280.516786 
L 563.283757 314.543825 
L 564.276463 274.471336 
L 566.261875 329.503074 
L 567.254581 301.085397 
L 568.247287 291.929409 
L 569.239993 298.530785 
L 570.232699 292.856045 
L 571.225405 282.057406 
L 572.218111 276.176485 
L 573.210817 330.321909 
L 574.203523 307.325415 
L 575.196228 277.334507 
L 576.188934 281.992784 
L 577.18164 275.00078 
L 579.167052 325.014508 
L 580.159758 385.585 
L 581.152464 289.315642 
L 582.14517 314.698459 
L 583.137876 360.476832 
L 584.130582 319.549263 
L 585.123288 296.99166 
L 586.115994 293.328627 
L 587.1087 276.795027 
L 588.101405 306.514714 
L 589.094111 286.852778 
L 590.086817 272.354906 
L 591.079523 269.317772 
L 592.072229 253.434588 
L 593.064935 260.836952 
L 594.057641 266.109257 
L 595.050347 278.989583 
L 596.043053 348.720273 
L 597.035759 347.146369 
L 598.028465 281.928388 
L 599.021171 278.231334 
L 600.013877 264.817859 
L 601.006582 271.508308 
L 601.999288 295.227057 
L 602.991994 281.589438 
L 603.9847 295.272474 
L 604.977406 357.385203 
L 605.970112 325.56371 
L 606.962818 306.200539 
L 607.955524 297.164491 
L 608.94823 271.820665 
L 609.940936 262.914233 
L 610.933642 271.700957 
L 611.926348 263.584425 
L 612.919054 270.034803 
L 613.911759 264.429782 
L 614.904465 264.081958 
L 615.897171 255.190093 
L 616.889877 270.116831 
L 617.882583 262.140817 
L 618.875289 277.058517 
L 619.867995 315.751493 
L 620.860701 297.035452 
L 621.853407 293.510804 
L 622.846113 308.903682 
L 623.838819 279.610119 
L 624.831525 295.291001 
L 625.824231 339.99031 
L 626.816936 306.824869 
L 627.809642 269.587723 
L 628.802348 267.653377 
L 629.795054 262.652563 
L 630.78776 273.968245 
L 631.780466 272.708416 
L 632.773172 284.001447 
L 633.765878 290.444012 
L 634.758584 291.627131 
L 635.75129 322.010349 
L 636.743996 336.299015 
L 637.736702 310.957284 
L 638.729408 344.090738 
L 639.722114 281.818224 
L 640.714819 286.497325 
L 641.707525 279.971147 
L 642.700231 290.449032 
L 643.692937 334.72626 
L 644.685643 326.450434 
L 645.678349 284.083316 
L 646.671055 291.099221 
L 647.663761 292.331728 
L 648.656467 299.07704 
L 649.649173 364.606672 
L 650.641879 317.783349 
L 651.634585 295.237367 
L 652.627291 303.393242 
L 653.619996 280.856813 
L 654.612702 307.473601 
L 655.605408 288.310548 
L 656.598114 320.464263 
L 658.583526 308.811608 
L 659.576232 312.058365 
L 660.568938 287.517688 
L 661.561644 284.221193 
L 662.55435 322.282646 
L 663.547056 311.2057 
L 664.539762 303.049725 
L 665.532468 303.215606 
L 666.525173 285.380454 
L 667.517879 309.512053 
L 668.510585 292.438709 
L 669.503291 313.084802 
L 670.495997 286.356271 
L 671.488703 299.323117 
L 672.481409 302.955595 
L 673.474115 304.399717 
L 674.466821 327.722498 
L 675.459527 312.363404 
L 676.452233 293.062715 
L 677.444939 308.394647 
L 678.437645 286.143516 
L 679.43035 304.187808 
L 681.415762 310.457239 
L 682.408468 357.299499 
L 683.401174 307.042618 
L 684.39388 319.336151 
L 685.386586 310.411627 
L 686.379292 299.525723 
L 687.371998 321.754988 
L 688.364704 290.401387 
L 689.35741 290.100465 
L 690.350116 312.652875 
L 691.342822 296.980554 
L 692.335527 307.437687 
L 693.328233 338.147333 
L 694.320939 309.909323 
L 695.313645 334.839419 
L 696.306351 318.578018 
L 697.299057 320.107865 
L 699.284469 358.774823 
L 700.277175 296.314758 
L 701.269881 289.914349 
L 702.262587 282.543837 
L 703.255293 276.797636 
L 704.247999 295.271182 
L 705.240705 292.106706 
L 706.23341 333.649641 
L 707.226116 292.969526 
L 708.218822 303.677596 
L 709.211528 279.829148 
L 710.204234 292.662486 
L 711.19694 281.733449 
L 712.189646 294.965497 
L 713.182352 322.093758 
L 714.175058 336.387808 
L 715.167764 328.074901 
L 716.16047 327.594471 
L 717.153176 305.616231 
L 718.145882 295.602923 
L 719.138587 303.400704 
L 720.131293 282.866401 
L 721.123999 291.842056 
L 722.116705 281.999645 
L 723.109411 292.426612 
L 724.102117 289.290711 
L 725.094823 305.520077 
L 726.087529 301.282382 
L 727.080235 293.449984 
L 728.072941 306.437429 
L 729.065647 295.86798 
L 730.058353 351.512242 
L 731.051059 362.841147 
L 732.043764 345.066614 
L 733.03647 350.46398 
L 734.029176 327.614219 
L 735.021882 347.132144 
L 736.014588 309.67933 
L 737.007294 299.72801 
L 738 281.668775 
L 738.992706 275.528757 
L 739.985412 272.337719 
L 740.978118 271.405926 
L 741.970824 297.478326 
L 742.96353 307.516806 
L 743.956236 328.242101 
L 744.948941 304.45305 
L 745.941647 307.26576 
L 746.934353 299.111997 
L 747.927059 333.999603 
L 748.919765 339.86329 
L 749.912471 313.156493 
L 750.905177 321.730997 
L 751.897883 298.657853 
L 752.890589 297.755769 
L 753.883295 298.925129 
L 754.876001 291.861463 
L 755.868707 316.785666 
L 756.861413 304.111306 
L 757.854118 322.212257 
L 759.83953 297.799186 
L 760.832236 316.631267 
L 761.824942 297.220376 
L 762.817648 310.366373 
L 763.810354 311.556104 
L 764.80306 310.442 
L 765.795766 392.637843 
L 766.788472 332.647507 
L 767.781178 399.67884 
L 768.773884 346.001194 
L 769.76659 328.849356 
L 770.759295 355.486902 
L 771.752001 311.146909 
L 772.744707 316.455906 
L 773.737413 315.124352 
L 774.730119 297.870548 
L 775.722825 310.305436 
L 776.715531 299.394549 
L 777.708237 297.132203 
L 778.700943 312.577005 
L 779.693649 303.267391 
L 780.686355 355.468885 
L 781.679061 357.522553 
L 782.671767 338.89078 
L 783.664473 317.062075 
L 784.657178 354.800981 
L 785.649884 332.887663 
L 786.64259 360.215663 
L 787.635296 346.782078 
L 788.628002 329.873358 
L 789.620708 325.893478 
L 790.613414 339.776614 
L 791.60612 326.5289 
L 792.598826 351.473457 
L 793.591532 339.475485 
L 794.584238 383.793262 
L 795.576944 400.91695 
L 796.56965 317.157528 
L 797.562355 339.646719 
L 798.555061 324.310702 
L 799.547767 334.399514 
L 800.540473 361.762687 
L 801.533179 355.665359 
L 802.525885 312.582976 
L 803.518591 336.48784 
L 804.511297 311.321655 
L 805.504003 329.038423 
L 806.496709 358.391804 
L 807.489415 329.807609 
L 808.482121 326.825896 
L 809.474827 349.618696 
L 810.467532 310.346721 
L 811.460238 305.350109 
L 812.452944 307.776617 
L 813.44565 290.99305 
L 814.438356 303.839655 
L 815.431062 294.990066 
L 816.423768 317.816923 
L 817.416474 312.560904 
L 818.40918 345.40373 
L 819.401886 314.402541 
L 820.394592 324.578398 
L 821.387298 308.325875 
L 822.380004 321.652437 
L 823.372709 346.343479 
L 824.365415 361.221217 
L 825.358121 324.344528 
L 826.350827 321.784746 
L 827.343533 358.29892 
L 828.336239 319.15642 
L 829.328945 341.382835 
L 830.321651 338.270961 
L 831.314357 339.836032 
L 832.307063 354.734221 
L 833.299769 343.873795 
L 834.292475 344.936409 
L 835.285181 329.616871 
L 836.277886 330.458604 
L 837.270592 308.718955 
L 838.263298 339.975318 
L 839.256004 324.497746 
L 840.24871 350.741127 
L 841.241416 397.784235 
L 842.234122 330.189405 
L 843.226828 340.11018 
L 844.219534 329.160736 
L 845.21224 320.745622 
L 846.204946 353.480386 
L 847.197652 325.632149 
L 848.190358 346.264664 
L 849.183064 311.05875 
L 850.175769 319.195517 
L 851.168475 301.826293 
L 852.161181 335.05838 
L 853.153887 322.014499 
L 854.146593 386.823425 
L 855.139299 318.626681 
L 856.132005 349.696162 
L 857.124711 321.492964 
L 859.110123 396.227495 
L 860.102829 319.391163 
L 861.095535 318.146004 
L 862.088241 316.012888 
L 863.080946 299.09449 
L 864.073652 326.170946 
L 865.066358 308.6385 
L 866.059064 324.095072 
L 867.05177 327.03282 
L 868.044476 311.836509 
L 869.037182 338.857403 
L 870.029888 305.67692 
L 871.022594 317.811617 
L 872.0153 331.67547 
L 873.008006 321.056727 
L 874.000712 350.053204 
L 874.993418 329.965055 
L 875.986123 314.529106 
L 876.978829 358.888614 
L 877.971535 344.839638 
L 878.964241 333.339657 
L 879.956947 346.377694 
L 881.942359 330.248715 
L 882.935065 366.500148 
L 883.927771 338.265038 
L 884.920477 347.785406 
L 885.913183 352.71757 
L 886.905889 336.257288 
L 887.898595 322.92818 
L 888.8913 348.008169 
L 889.884006 332.822544 
L 890.876712 379.458643 
L 891.869418 343.654665 
L 892.862124 372.172133 
L 893.85483 353.212147 
L 894.847536 354.562622 
L 895.840242 339.483787 
L 896.832948 348.890684 
L 897.825654 324.160145 
L 898.81836 373.180835 
L 899.811066 346.729872 
L 900.803772 337.216736 
L 902.789183 383.408317 
L 903.781889 339.935276 
L 904.774595 380.422191 
L 905.767301 332.825031 
L 906.760007 331.448198 
L 907.752713 399.232888 
L 908.745419 335.897448 
L 909.738125 338.808434 
L 910.730831 425.837105 
L 911.723537 341.243726 
L 912.716243 356.373357 
L 913.708949 359.960843 
L 914.701655 370.612281 
L 915.69436 332.255906 
L 916.687066 413.391932 
L 917.679772 344.696649 
L 918.672478 413.638073 
L 919.665184 352.506744 
L 920.65789 360.973298 
L 921.650596 320.378165 
L 922.643302 349.400954 
L 923.636008 319.486318 
L 924.628714 336.211625 
L 925.62142 361.160772 
L 926.614126 338.46036 
L 927.606832 365.000379 
L 928.599537 382.017697 
L 929.592243 345.075248 
L 930.584949 334.36752 
L 931.577655 367.642532 
L 932.570361 318.742067 
L 933.563067 358.860243 
L 934.555773 343.123016 
L 935.548479 362.111851 
L 936.541185 349.088439 
L 937.533891 367.854357 
L 938.526597 328.885855 
L 939.519303 414.408894 
L 940.512009 343.962023 
L 941.504714 378.374759 
L 942.49742 379.663771 
L 943.490126 344.108598 
L 944.482832 364.522321 
L 945.475538 332.936994 
L 946.468244 347.589791 
L 947.46095 337.869685 
L 948.453656 345.186198 
L 949.446362 358.530078 
L 950.439068 352.711636 
L 951.431774 350.119329 
L 952.42448 391.162171 
L 953.417186 326.464867 
L 954.409891 371.036126 
L 955.402597 325.882357 
L 956.395303 386.327014 
L 957.388009 345.431905 
L 958.380715 376.45037 
L 959.373421 320.92645 
L 960.366127 336.439957 
L 961.358833 311.642612 
L 962.351539 333.83812 
L 963.344245 329.705349 
L 964.336951 338.373318 
L 965.329657 422.487426 
L 966.322363 347.735505 
L 967.315068 353.342434 
L 968.307774 368.515531 
L 969.30048 330.73265 
L 970.293186 382.605989 
L 971.285892 328.499746 
L 972.278598 345.652773 
L 973.271304 339.91242 
L 974.26401 330.847273 
L 975.256716 388.247672 
L 976.249422 346.313839 
L 977.242128 381.277982 
L 978.234834 355.291036 
L 979.22754 391.520469 
L 980.220246 336.381933 
L 981.212951 353.469076 
L 982.205657 363.609737 
L 983.198363 330.739204 
L 984.191069 355.514674 
L 985.183775 349.190716 
L 986.176481 338.242882 
L 987.169187 392.628569 
L 988.161893 359.567644 
L 989.154599 352.311441 
L 990.147305 335.404341 
L 991.140011 342.325729 
L 992.132717 321.55004 
L 993.125423 364.25662 
L 994.118128 332.849221 
L 995.110834 358.120614 
L 996.10354 349.973074 
L 997.096246 350.299534 
L 998.088952 325.199285 
L 999.081658 405.817054 
L 1000.074364 353.168284 
L 1001.06707 377.751494 
L 1002.059776 345.851631 
L 1003.052482 379.744292 
L 1004.045188 349.606992 
L 1005.037894 364.973948 
L 1006.0306 343.422295 
L 1007.023305 406.49424 
L 1008.016011 337.946992 
L 1009.008717 360.851282 
L 1010.001423 352.387272 
L 1010.994129 341.220552 
L 1011.986835 427.488186 
L 1012.979541 351.57623 
L 1013.972247 343.839704 
L 1014.964953 363.234864 
L 1015.957659 346.142446 
L 1016.950365 338.02897 
L 1017.943071 441.985999 
L 1018.935777 354.131001 
L 1019.928482 334.104671 
L 1020.921188 394.150647 
L 1021.913894 341.564109 
L 1022.9066 371.421924 
L 1023.899306 349.567875 
L 1024.892012 402.111266 
L 1025.884718 341.514877 
L 1026.877424 369.737613 
L 1027.87013 343.864812 
L 1028.862836 348.100819 
L 1029.855542 373.839353 
L 1030.848248 363.686306 
L 1032.833659 340.438288 
L 1033.826365 338.249577 
L 1034.819071 316.580469 
L 1035.811777 353.602866 
L 1036.804483 326.292645 
L 1037.797189 399.484953 
L 1038.789895 348.553004 
L 1039.782601 394.855114 
L 1040.775307 333.797373 
L 1041.768013 425.934173 
L 1042.760719 344.160524 
L 1043.753425 356.708006 
L 1044.746131 393.927372 
L 1045.738837 352.831805 
L 1046.731542 345.916587 
L 1047.724248 404.632225 
L 1048.716954 350.191403 
L 1049.70966 355.107068 
L 1050.702366 395.624008 
L 1051.695072 351.537598 
L 1052.687778 369.738982 
L 1053.680484 381.883868 
L 1054.67319 378.622709 
L 1055.665896 366.932594 
L 1056.658602 356.858739 
L 1057.651308 373.587918 
L 1058.644014 354.139588 
L 1059.636719 354.393255 
L 1060.629425 372.302184 
L 1061.622131 385.602757 
L 1062.614837 346.956903 
L 1063.607543 378.81122 
L 1064.600249 344.461757 
L 1065.592955 346.477089 
L 1066.585661 429.724279 
L 1067.578367 342.737767 
L 1068.571073 353.650521 
L 1069.563779 339.967679 
L 1070.556485 332.183914 
L 1071.549191 348.855897 
L 1072.541896 326.013538 
L 1073.534602 367.945965 
L 1074.527308 337.853145 
L 1075.520014 368.445169 
L 1076.51272 402.744461 
L 1077.505426 335.150019 
L 1078.498132 338.986938 
L 1079.490838 352.735074 
L 1080.483544 346.267128 
L 1081.47625 364.408822 
L 1082.468956 368.506635 
L 1083.461662 351.573792 
L 1084.454368 354.117704 
L 1085.447073 368.770996 
L 1086.439779 347.668429 
L 1087.432485 397.308532 
L 1088.425191 356.194685 
L 1089.417897 365.265022 
L 1090.410603 360.028935 
L 1091.403309 337.540527 
L 1092.396015 376.143158 
L 1093.388721 326.855169 
L 1094.381427 346.519087 
L 1095.374133 342.59617 
L 1096.366839 329.05165 
L 1097.359545 400.858754 
L 1098.35225 349.012386 
L 1099.344956 378.604272 
L 1100.337662 351.591822 
L 1101.330368 397.950917 
L 1102.323074 342.15573 
L 1103.31578 409.939265 
L 1104.308486 339.731732 
L 1105.301192 451.619265 
L 1106.293898 342.616405 
L 1107.286604 401.544039 
L 1108.27931 349.968347 
L 1109.272016 369.721577 
L 1110.264722 364.661976 
L 1111.257428 386.053421 
L 1112.250133 339.267193 
L 1113.242839 399.986938 
L 1114.235545 337.071104 
L 1115.228251 355.12493 
L 1116.220957 370.537531 
L 1117.213663 378.890428 
L 1118.206369 356.602313 
L 1119.199075 401.01467 
L 1120.191781 362.828011 
L 1121.184487 361.031277 
L 1122.177193 399.283641 
L 1123.169899 345.964162 
L 1124.162605 357.974568 
L 1126.148016 393.386547 
L 1127.140722 349.270435 
L 1128.133428 388.329196 
L 1129.126134 349.436349 
L 1130.11884 346.637265 
L 1131.111546 379.510804 
L 1133.096958 351.337417 
L 1134.089664 386.653405 
L 1135.08237 358.22845 
L 1136.075076 363.297857 
L 1137.067782 351.137999 
L 1138.060487 342.593354 
L 1139.053193 325.000285 
L 1140.045899 361.448434 
L 1141.038605 336.960952 
L 1142.031311 365.726572 
L 1143.024017 335.533865 
L 1144.016723 341.744571 
L 1145.009429 319.717985 
L 1146.002135 380.630663 
L 1146.994841 340.188171 
L 1147.987547 397.663806 
L 1148.980253 358.850071 
L 1149.972959 396.081134 
L 1150.965664 364.152193 
L 1151.95837 376.835534 
L 1152.951076 356.846398 
L 1153.943782 361.212866 
L 1155.929194 384.339537 
L 1156.9219 348.975287 
L 1157.914606 380.225893 
L 1158.907312 359.769703 
L 1159.900018 362.378031 
L 1160.892724 347.253962 
L 1161.88543 398.246898 
L 1162.878136 328.580454 
L 1163.870841 341.432818 
L 1164.863547 358.769519 
L 1165.856253 348.098255 
L 1166.848959 380.246426 
L 1167.841665 371.809604 
L 1168.834371 341.212722 
L 1169.827077 406.876923 
L 1170.819783 340.577803 
L 1172.805195 377.200744 
L 1173.797901 347.89361 
L 1174.790607 399.53198 
L 1175.783313 344.921106 
L 1176.776019 366.698619 
L 1177.768724 345.166071 
L 1178.76143 342.127408 
L 1179.754136 393.927283 
L 1180.746842 355.538857 
L 1181.739548 361.083388 
L 1182.732254 357.540303 
L 1183.72496 388.514007 
L 1184.717666 353.592024 
L 1185.710372 398.304608 
L 1186.703078 353.161018 
L 1187.695784 367.437819 
L 1188.68849 358.412912 
L 1189.681196 346.920762 
L 1190.673901 405.821232 
L 1191.666607 354.776546 
L 1192.659313 351.350983 
L 1193.652019 418.736577 
L 1194.644725 333.429441 
L 1195.637431 363.715664 
L 1196.630137 331.350705 
L 1197.622843 336.130714 
L 1198.615549 379.97587 
L 1199.608255 342.72112 
L 1200.600961 370.694537 
L 1201.593667 365.538118 
L 1202.586373 355.951027 
L 1203.579078 372.024272 
L 1204.571784 350.563844 
L 1205.56449 387.267285 
L 1206.557196 351.318132 
L 1207.549902 374.897666 
L 1208.542608 351.72422 
L 1209.535314 370.444312 
L 1210.52802 336.369479 
L 1211.520726 492.48 
L 1212.513432 344.856377 
L 1213.506138 370.089048 
L 1214.498844 385.54564 
L 1215.49155 359.147014 
L 1216.484255 369.817479 
L 1217.476961 371.38291 
L 1218.469667 357.416804 
L 1220.455079 371.257499 
L 1221.447785 370.706749 
L 1222.440491 361.853171 
L 1223.433197 347.680191 
L 1224.425903 368.272497 
L 1225.418609 330.997964 
L 1226.411315 396.447596 
L 1227.404021 352.021153 
L 1228.396727 357.964011 
L 1229.389432 361.927652 
L 1230.382138 371.551827 
L 1231.374844 341.407922 
L 1232.36755 425.083795 
L 1233.360256 346.150808 
L 1234.352962 397.848692 
L 1235.345668 348.60563 
L 1236.338374 415.844618 
L 1237.33108 346.852135 
L 1238.323786 393.752019 
L 1239.316492 362.914363 
L 1240.309198 377.294496 
L 1241.301904 352.002806 
L 1242.29461 413.334108 
L 1243.287315 344.22657 
L 1244.280021 377.147751 
L 1245.272727 364.107259 
L 1245.272727 364.107259 
" clip-path="url(#p63b15fc72c)" style="fill: none; stroke: #1f77b4; stroke-width: 1.5; stroke-linecap: square"/>
   </g>
   <g id="patch_3">
    <path d="M 180 512.64 
L 180 69.12 
" style="fill: none; stroke: #000000; stroke-width: 0.8; stroke-linejoin: miter; stroke-linecap: square"/>
   </g>
   <g id="patch_4">
    <path d="M 1296 512.64 
L 1296 69.12 
" style="fill: none; stroke: #000000; stroke-width: 0.8; stroke-linejoin: miter; stroke-linecap: square"/>
   </g>
   <g id="patch_5">
    <path d="M 180 512.64 
L 1296 512.64 
" style="fill: none; stroke: #000000; stroke-width: 0.8; stroke-linejoin: miter; stroke-linecap: square"/>
   </g>
   <g id="patch_6">
    <path d="M 180 69.12 
L 1296 69.12 
" style="fill: none; stroke: #000000; stroke-width: 0.8; stroke-linejoin: miter; stroke-linecap: square"/>
   </g>
   <g id="text_13">
    <!-- source23-receiver1 -->
    <g transform="translate(544.9 60.80125) scale(0.4 -0.4)">
     <defs>
      <path id="DejaVuSans-73" d="M 2834 3397 
L 2834 2853 
Q 2591 2978 2328 3040 
Q 2066 3103 1784 3103 
Q 1356 3103 1142 2972 
Q 928 2841 928 2578 
Q 928 2378 1081 2264 
Q 1234 2150 1697 2047 
L 1894 2003 
Q 2506 1872 2764 1633 
Q 3022 1394 3022 966 
Q 3022 478 2636 193 
Q 2250 -91 1575 -91 
Q 1294 -91 989 -36 
Q 684 19 347 128 
L 347 722 
Q 666 556 975 473 
Q 1284 391 1588 391 
Q 1994 391 2212 530 
Q 2431 669 2431 922 
Q 2431 1156 2273 1281 
Q 2116 1406 1581 1522 
L 1381 1569 
Q 847 1681 609 1914 
Q 372 2147 372 2553 
Q 372 3047 722 3315 
Q 1072 3584 1716 3584 
Q 2034 3584 2315 3537 
Q 2597 3491 2834 3397 
z
" transform="scale(0.015625)"/>
      <path id="DejaVuSans-6f" d="M 1959 3097 
Q 1497 3097 1228 2736 
Q 959 2375 959 1747 
Q 959 1119 1226 758 
Q 1494 397 1959 397 
Q 2419 397 2687 759 
Q 2956 1122 2956 1747 
Q 2956 2369 2687 2733 
Q 2419 3097 1959 3097 
z
M 1959 3584 
Q 2709 3584 3137 3096 
Q 3566 2609 3566 1747 
Q 3566 888 3137 398 
Q 2709 -91 1959 -91 
Q 1206 -91 779 398 
Q 353 888 353 1747 
Q 353 2609 779 3096 
Q 1206 3584 1959 3584 
z
" transform="scale(0.015625)"/>
      <path id="DejaVuSans-75" d="M 544 1381 
L 544 3500 
L 1119 3500 
L 1119 1403 
Q 1119 906 1312 657 
Q 1506 409 1894 409 
Q 2359 409 2629 706 
Q 2900 1003 2900 1516 
L 2900 3500 
L 3475 3500 
L 3475 0 
L 2900 0 
L 2900 538 
Q 2691 219 2414 64 
Q 2138 -91 1772 -91 
Q 1169 -91 856 284 
Q 544 659 544 1381 
z
M 1991 3584 
L 1991 3584 
z
" transform="scale(0.015625)"/>
      <path id="DejaVuSans-72" d="M 2631 2963 
Q 2534 3019 2420 3045 
Q 2306 3072 2169 3072 
Q 1681 3072 1420 2755 
Q 1159 2438 1159 1844 
L 1159 0 
L 581 0 
L 581 3500 
L 1159 3500 
L 1159 2956 
Q 1341 3275 1631 3429 
Q 1922 3584 2338 3584 
Q 2397 3584 2469 3576 
Q 2541 3569 2628 3553 
L 2631 2963 
z
" transform="scale(0.015625)"/>
      <path id="DejaVuSans-63" d="M 3122 3366 
L 3122 2828 
Q 2878 2963 2633 3030 
Q 2388 3097 2138 3097 
Q 1578 3097 1268 2742 
Q 959 2388 959 1747 
Q 959 1106 1268 751 
Q 1578 397 2138 397 
Q 2388 397 2633 464 
Q 2878 531 3122 666 
L 3122 134 
Q 2881 22 2623 -34 
Q 2366 -91 2075 -91 
Q 1284 -91 818 406 
Q 353 903 353 1747 
Q 353 2603 823 3093 
Q 1294 3584 2113 3584 
Q 2378 3584 2631 3529 
Q 2884 3475 3122 3366 
z
" transform="scale(0.015625)"/>
      <path id="DejaVuSans-65" d="M 3597 1894 
L 3597 1613 
L 953 1613 
Q 991 1019 1311 708 
Q 1631 397 2203 397 
Q 2534 397 2845 478 
Q 3156 559 3463 722 
L 3463 178 
Q 3153 47 2828 -22 
Q 2503 -91 2169 -91 
Q 1331 -91 842 396 
Q 353 884 353 1716 
Q 353 2575 817 3079 
Q 1281 3584 2069 3584 
Q 2775 3584 3186 3129 
Q 3597 2675 3597 1894 
z
M 3022 2063 
Q 3016 2534 2758 2815 
Q 2500 3097 2075 3097 
Q 1594 3097 1305 2825 
Q 1016 2553 972 2059 
L 3022 2063 
z
" transform="scale(0.015625)"/>
      <path id="DejaVuSans-33" d="M 2597 2516 
Q 3050 2419 3304 2112 
Q 3559 1806 3559 1356 
Q 3559 666 3084 287 
Q 2609 -91 1734 -91 
Q 1441 -91 1130 -33 
Q 819 25 488 141 
L 488 750 
Q 750 597 1062 519 
Q 1375 441 1716 441 
Q 2309 441 2620 675 
Q 2931 909 2931 1356 
Q 2931 1769 2642 2001 
Q 2353 2234 1838 2234 
L 1294 2234 
L 1294 2753 
L 1863 2753 
Q 2328 2753 2575 2939 
Q 2822 3125 2822 3475 
Q 2822 3834 2567 4026 
Q 2313 4219 1838 4219 
Q 1578 4219 1281 4162 
Q 984 4106 628 3988 
L 628 4550 
Q 988 4650 1302 4700 
Q 1616 4750 1894 4750 
Q 2613 4750 3031 4423 
Q 3450 4097 3450 3541 
Q 3450 3153 3228 2886 
Q 3006 2619 2597 2516 
z
" transform="scale(0.015625)"/>
      <path id="DejaVuSans-2d" d="M 313 2009 
L 1997 2009 
L 1997 1497 
L 313 1497 
L 313 2009 
z
" transform="scale(0.015625)"/>
      <path id="DejaVuSans-69" d="M 603 3500 
L 1178 3500 
L 1178 0 
L 603 0 
L 603 3500 
z
M 603 4863 
L 1178 4863 
L 1178 4134 
L 603 4134 
L 603 4863 
z
" transform="scale(0.015625)"/>
      <path id="DejaVuSans-76" d="M 191 3500 
L 800 3500 
L 1894 563 
L 2988 3500 
L 3597 3500 
L 2284 0 
L 1503 0 
L 191 3500 
z
" transform="scale(0.015625)"/>
     </defs>
     <use xlink:href="#DejaVuSans-73"/>
     <use xlink:href="#DejaVuSans-6f" x="52.099609"/>
     <use xlink:href="#DejaVuSans-75" x="113.28125"/>
     <use xlink:href="#DejaVuSans-72" x="176.660156"/>
     <use xlink:href="#DejaVuSans-63" x="215.523438"/>
     <use xlink:href="#DejaVuSans-65" x="270.503906"/>
     <use xlink:href="#DejaVuSans-32" x="332.027344"/>
     <use xlink:href="#DejaVuSans-33" x="395.650391"/>
     <use xlink:href="#DejaVuSans-2d" x="459.273438"/>
     <use xlink:href="#DejaVuSans-72" x="495.357422"/>
     <use xlink:href="#DejaVuSans-65" x="534.220703"/>
     <use xlink:href="#DejaVuSans-63" x="595.744141"/>
     <use xlink:href="#DejaVuSans-65" x="650.724609"/>
     <use xlink:href="#DejaVuSans-69" x="712.248047"/>
     <use xlink:href="#DejaVuSans-76" x="740.03125"/>
     <use xlink:href="#DejaVuSans-65" x="799.210938"/>
     <use xlink:href="#DejaVuSans-72" x="860.734375"/>
     <use xlink:href="#DejaVuSans-31" x="901.847656"/>
    </g>
   </g>
  </g>
 </g>
 <defs>
  <clipPath id="p63b15fc72c">
   <rect x="180" y="69.12" width="1116" height="443.52"/>
  </clipPath>
 </defs>
</svg>
