<?xml version="1.0" encoding="utf-8" standalone="no"?>
<!DOCTYPE svg PUBLIC "-//W3C//DTD SVG 1.1//EN"
  "http://www.w3.org/Graphics/SVG/1.1/DTD/svg11.dtd">
<svg xmlns:xlink="http://www.w3.org/1999/xlink" width="1440pt" height="576pt" viewBox="0 0 1440 576" xmlns="http://www.w3.org/2000/svg" version="1.1">
 <metadata>
  <rdf:RDF xmlns:dc="http://purl.org/dc/elements/1.1/" xmlns:cc="http://creativecommons.org/ns#" xmlns:rdf="http://www.w3.org/1999/02/22-rdf-syntax-ns#">
   <cc:Work>
    <dc:type rdf:resource="http://purl.org/dc/dcmitype/StillImage"/>
    <dc:date>2024-05-22T04:50:24.393515</dc:date>
    <dc:format>image/svg+xml</dc:format>
    <dc:creator>
     <cc:Agent>
      <dc:title>Matplotlib v3.8.3, https://matplotlib.org/</dc:title>
     </cc:Agent>
    </dc:creator>
   </cc:Work>
  </rdf:RDF>
 </metadata>
 <defs>
  <style type="text/css">*{stroke-linejoin: round; stroke-linecap: butt}</style>
 </defs>
 <g id="figure_1">
  <g id="patch_1">
   <path d="M 0 576 
L 1440 576 
L 1440 0 
L 0 0 
z
" style="fill: #ffffff"/>
  </g>
  <g id="axes_1">
   <g id="patch_2">
    <path d="M 180 512.64 
L 1296 512.64 
L 1296 69.12 
L 180 69.12 
z
" style="fill: #ffffff"/>
   </g>
   <g id="matplotlib.axis_1">
    <g id="xtick_1">
     <g id="line2d_1">
      <defs>
       <path id="mf32e89429f" d="M 0 0 
L 0 3.5 
" style="stroke: #000000; stroke-width: 0.8"/>
      </defs>
      <g>
       <use xlink:href="#mf32e89429f" x="229.734567" y="512.64" style="stroke: #000000; stroke-width: 0.8"/>
      </g>
     </g>
     <g id="text_1">
      <!-- 0 -->
      <g transform="translate(226.553317 527.238438) scale(0.1 -0.1)">
       <defs>
        <path id="DejaVuSans-30" d="M 2034 4250 
Q 1547 4250 1301 3770 
Q 1056 3291 1056 2328 
Q 1056 1369 1301 889 
Q 1547 409 2034 409 
Q 2525 409 2770 889 
Q 3016 1369 3016 2328 
Q 3016 3291 2770 3770 
Q 2525 4250 2034 4250 
z
M 2034 4750 
Q 2819 4750 3233 4129 
Q 3647 3509 3647 2328 
Q 3647 1150 3233 529 
Q 2819 -91 2034 -91 
Q 1250 -91 836 529 
Q 422 1150 422 2328 
Q 422 3509 836 4129 
Q 1250 4750 2034 4750 
z
" transform="scale(0.015625)"/>
       </defs>
       <use xlink:href="#DejaVuSans-30"/>
      </g>
     </g>
    </g>
    <g id="xtick_2">
     <g id="line2d_2">
      <g>
       <use xlink:href="#mf32e89429f" x="433.04074" y="512.64" style="stroke: #000000; stroke-width: 0.8"/>
      </g>
     </g>
     <g id="text_2">
      <!-- 500 -->
      <g transform="translate(423.49699 527.238438) scale(0.1 -0.1)">
       <defs>
        <path id="DejaVuSans-35" d="M 691 4666 
L 3169 4666 
L 3169 4134 
L 1269 4134 
L 1269 2991 
Q 1406 3038 1543 3061 
Q 1681 3084 1819 3084 
Q 2600 3084 3056 2656 
Q 3513 2228 3513 1497 
Q 3513 744 3044 326 
Q 2575 -91 1722 -91 
Q 1428 -91 1123 -41 
Q 819 9 494 109 
L 494 744 
Q 775 591 1075 516 
Q 1375 441 1709 441 
Q 2250 441 2565 725 
Q 2881 1009 2881 1497 
Q 2881 1984 2565 2268 
Q 2250 2553 1709 2553 
Q 1456 2553 1204 2497 
Q 953 2441 691 2322 
L 691 4666 
z
" transform="scale(0.015625)"/>
       </defs>
       <use xlink:href="#DejaVuSans-35"/>
       <use xlink:href="#DejaVuSans-30" x="63.623047"/>
       <use xlink:href="#DejaVuSans-30" x="127.246094"/>
      </g>
     </g>
    </g>
    <g id="xtick_3">
     <g id="line2d_3">
      <g>
       <use xlink:href="#mf32e89429f" x="636.346913" y="512.64" style="stroke: #000000; stroke-width: 0.8"/>
      </g>
     </g>
     <g id="text_3">
      <!-- 1000 -->
      <g transform="translate(623.621913 527.238438) scale(0.1 -0.1)">
       <defs>
        <path id="DejaVuSans-31" d="M 794 531 
L 1825 531 
L 1825 4091 
L 703 3866 
L 703 4441 
L 1819 4666 
L 2450 4666 
L 2450 531 
L 3481 531 
L 3481 0 
L 794 0 
L 794 531 
z
" transform="scale(0.015625)"/>
       </defs>
       <use xlink:href="#DejaVuSans-31"/>
       <use xlink:href="#DejaVuSans-30" x="63.623047"/>
       <use xlink:href="#DejaVuSans-30" x="127.246094"/>
       <use xlink:href="#DejaVuSans-30" x="190.869141"/>
      </g>
     </g>
    </g>
    <g id="xtick_4">
     <g id="line2d_4">
      <g>
       <use xlink:href="#mf32e89429f" x="839.653087" y="512.64" style="stroke: #000000; stroke-width: 0.8"/>
      </g>
     </g>
     <g id="text_4">
      <!-- 1500 -->
      <g transform="translate(826.928087 527.238438) scale(0.1 -0.1)">
       <use xlink:href="#DejaVuSans-31"/>
       <use xlink:href="#DejaVuSans-35" x="63.623047"/>
       <use xlink:href="#DejaVuSans-30" x="127.246094"/>
       <use xlink:href="#DejaVuSans-30" x="190.869141"/>
      </g>
     </g>
    </g>
    <g id="xtick_5">
     <g id="line2d_5">
      <g>
       <use xlink:href="#mf32e89429f" x="1042.95926" y="512.64" style="stroke: #000000; stroke-width: 0.8"/>
      </g>
     </g>
     <g id="text_5">
      <!-- 2000 -->
      <g transform="translate(1030.23426 527.238438) scale(0.1 -0.1)">
       <defs>
        <path id="DejaVuSans-32" d="M 1228 531 
L 3431 531 
L 3431 0 
L 469 0 
L 469 531 
Q 828 903 1448 1529 
Q 2069 2156 2228 2338 
Q 2531 2678 2651 2914 
Q 2772 3150 2772 3378 
Q 2772 3750 2511 3984 
Q 2250 4219 1831 4219 
Q 1534 4219 1204 4116 
Q 875 4013 500 3803 
L 500 4441 
Q 881 4594 1212 4672 
Q 1544 4750 1819 4750 
Q 2544 4750 2975 4387 
Q 3406 4025 3406 3419 
Q 3406 3131 3298 2873 
Q 3191 2616 2906 2266 
Q 2828 2175 2409 1742 
Q 1991 1309 1228 531 
z
" transform="scale(0.015625)"/>
       </defs>
       <use xlink:href="#DejaVuSans-32"/>
       <use xlink:href="#DejaVuSans-30" x="63.623047"/>
       <use xlink:href="#DejaVuSans-30" x="127.246094"/>
       <use xlink:href="#DejaVuSans-30" x="190.869141"/>
      </g>
     </g>
    </g>
    <g id="xtick_6">
     <g id="line2d_6">
      <g>
       <use xlink:href="#mf32e89429f" x="1246.265433" y="512.64" style="stroke: #000000; stroke-width: 0.8"/>
      </g>
     </g>
     <g id="text_6">
      <!-- 2500 -->
      <g transform="translate(1233.540433 527.238438) scale(0.1 -0.1)">
       <use xlink:href="#DejaVuSans-32"/>
       <use xlink:href="#DejaVuSans-35" x="63.623047"/>
       <use xlink:href="#DejaVuSans-30" x="127.246094"/>
       <use xlink:href="#DejaVuSans-30" x="190.869141"/>
      </g>
     </g>
    </g>
   </g>
   <g id="matplotlib.axis_2">
    <g id="ytick_1">
     <g id="line2d_7">
      <defs>
       <path id="m318f4d0764" d="M 0 0 
L -3.5 0 
" style="stroke: #000000; stroke-width: 0.8"/>
      </defs>
      <g>
       <use xlink:href="#m318f4d0764" x="180" y="450.686999" style="stroke: #000000; stroke-width: 0.8"/>
      </g>
     </g>
     <g id="text_7">
      <!-- −8 -->
      <g transform="translate(158.257812 454.486217) scale(0.1 -0.1)">
       <defs>
        <path id="DejaVuSans-2212" d="M 678 2272 
L 4684 2272 
L 4684 1741 
L 678 1741 
L 678 2272 
z
" transform="scale(0.015625)"/>
        <path id="DejaVuSans-38" d="M 2034 2216 
Q 1584 2216 1326 1975 
Q 1069 1734 1069 1313 
Q 1069 891 1326 650 
Q 1584 409 2034 409 
Q 2484 409 2743 651 
Q 3003 894 3003 1313 
Q 3003 1734 2745 1975 
Q 2488 2216 2034 2216 
z
M 1403 2484 
Q 997 2584 770 2862 
Q 544 3141 544 3541 
Q 544 4100 942 4425 
Q 1341 4750 2034 4750 
Q 2731 4750 3128 4425 
Q 3525 4100 3525 3541 
Q 3525 3141 3298 2862 
Q 3072 2584 2669 2484 
Q 3125 2378 3379 2068 
Q 3634 1759 3634 1313 
Q 3634 634 3220 271 
Q 2806 -91 2034 -91 
Q 1263 -91 848 271 
Q 434 634 434 1313 
Q 434 1759 690 2068 
Q 947 2378 1403 2484 
z
M 1172 3481 
Q 1172 3119 1398 2916 
Q 1625 2713 2034 2713 
Q 2441 2713 2670 2916 
Q 2900 3119 2900 3481 
Q 2900 3844 2670 4047 
Q 2441 4250 2034 4250 
Q 1625 4250 1398 4047 
Q 1172 3844 1172 3481 
z
" transform="scale(0.015625)"/>
       </defs>
       <use xlink:href="#DejaVuSans-2212"/>
       <use xlink:href="#DejaVuSans-38" x="83.789062"/>
      </g>
     </g>
    </g>
    <g id="ytick_2">
     <g id="line2d_8">
      <g>
       <use xlink:href="#m318f4d0764" x="180" y="383.926874" style="stroke: #000000; stroke-width: 0.8"/>
      </g>
     </g>
     <g id="text_8">
      <!-- −6 -->
      <g transform="translate(158.257812 387.726093) scale(0.1 -0.1)">
       <defs>
        <path id="DejaVuSans-36" d="M 2113 2584 
Q 1688 2584 1439 2293 
Q 1191 2003 1191 1497 
Q 1191 994 1439 701 
Q 1688 409 2113 409 
Q 2538 409 2786 701 
Q 3034 994 3034 1497 
Q 3034 2003 2786 2293 
Q 2538 2584 2113 2584 
z
M 3366 4563 
L 3366 3988 
Q 3128 4100 2886 4159 
Q 2644 4219 2406 4219 
Q 1781 4219 1451 3797 
Q 1122 3375 1075 2522 
Q 1259 2794 1537 2939 
Q 1816 3084 2150 3084 
Q 2853 3084 3261 2657 
Q 3669 2231 3669 1497 
Q 3669 778 3244 343 
Q 2819 -91 2113 -91 
Q 1303 -91 875 529 
Q 447 1150 447 2328 
Q 447 3434 972 4092 
Q 1497 4750 2381 4750 
Q 2619 4750 2861 4703 
Q 3103 4656 3366 4563 
z
" transform="scale(0.015625)"/>
       </defs>
       <use xlink:href="#DejaVuSans-2212"/>
       <use xlink:href="#DejaVuSans-36" x="83.789062"/>
      </g>
     </g>
    </g>
    <g id="ytick_3">
     <g id="line2d_9">
      <g>
       <use xlink:href="#m318f4d0764" x="180" y="317.166749" style="stroke: #000000; stroke-width: 0.8"/>
      </g>
     </g>
     <g id="text_9">
      <!-- −4 -->
      <g transform="translate(158.257812 320.965968) scale(0.1 -0.1)">
       <defs>
        <path id="DejaVuSans-34" d="M 2419 4116 
L 825 1625 
L 2419 1625 
L 2419 4116 
z
M 2253 4666 
L 3047 4666 
L 3047 1625 
L 3713 1625 
L 3713 1100 
L 3047 1100 
L 3047 0 
L 2419 0 
L 2419 1100 
L 313 1100 
L 313 1709 
L 2253 4666 
z
" transform="scale(0.015625)"/>
       </defs>
       <use xlink:href="#DejaVuSans-2212"/>
       <use xlink:href="#DejaVuSans-34" x="83.789062"/>
      </g>
     </g>
    </g>
    <g id="ytick_4">
     <g id="line2d_10">
      <g>
       <use xlink:href="#m318f4d0764" x="180" y="250.406625" style="stroke: #000000; stroke-width: 0.8"/>
      </g>
     </g>
     <g id="text_10">
      <!-- −2 -->
      <g transform="translate(158.257812 254.205843) scale(0.1 -0.1)">
       <use xlink:href="#DejaVuSans-2212"/>
       <use xlink:href="#DejaVuSans-32" x="83.789062"/>
      </g>
     </g>
    </g>
    <g id="ytick_5">
     <g id="line2d_11">
      <g>
       <use xlink:href="#m318f4d0764" x="180" y="183.6465" style="stroke: #000000; stroke-width: 0.8"/>
      </g>
     </g>
     <g id="text_11">
      <!-- 0 -->
      <g transform="translate(166.6375 187.445719) scale(0.1 -0.1)">
       <use xlink:href="#DejaVuSans-30"/>
      </g>
     </g>
    </g>
    <g id="ytick_6">
     <g id="line2d_12">
      <g>
       <use xlink:href="#m318f4d0764" x="180" y="116.886375" style="stroke: #000000; stroke-width: 0.8"/>
      </g>
     </g>
     <g id="text_12">
      <!-- 2 -->
      <g transform="translate(166.6375 120.685594) scale(0.1 -0.1)">
       <use xlink:href="#DejaVuSans-32"/>
      </g>
     </g>
    </g>
   </g>
   <g id="line2d_13">
    <path d="M 230.727273 280.897029 
L 231.719979 281.239554 
L 232.712685 280.060482 
L 233.70539 279.148372 
L 234.698096 280.414627 
L 235.690802 278.1893 
L 236.683508 274.832334 
L 237.676214 274.301653 
L 239.661626 270.509719 
L 240.654332 269.641036 
L 241.647038 268.335477 
L 242.639744 266.317687 
L 243.63245 263.376573 
L 244.625156 261.758953 
L 245.617862 268.874064 
L 246.610568 284.778962 
L 247.603273 215.034644 
L 248.595979 181.293396 
L 249.588685 158.235626 
L 250.581391 142.80822 
L 251.574097 133.273615 
L 252.566803 129.815596 
L 253.559509 132.299422 
L 254.552215 143.696114 
L 255.544921 159.120981 
L 256.537627 152.574429 
L 257.530333 146.963909 
L 258.523039 151.623828 
L 259.515745 151.206454 
L 260.50845 141.764529 
L 261.501156 139.555776 
L 262.493862 147.940949 
L 263.486568 173.353384 
L 264.479274 165.071648 
L 265.47198 151.797707 
L 266.464686 152.290656 
L 267.457392 166.71645 
L 268.450098 170.917791 
L 269.442804 155.553373 
L 270.43551 145.8034 
L 271.428216 146.580755 
L 274.406333 171.199916 
L 275.399039 169.791602 
L 276.391745 143.946934 
L 277.384451 131.260341 
L 278.377157 131.652855 
L 279.369863 140.676858 
L 280.362569 126.345505 
L 281.355275 105.615351 
L 282.347981 93.839971 
L 283.340687 89.28 
L 284.333393 91.266837 
L 285.326099 99.550482 
L 286.318804 115.930758 
L 287.31151 137.780196 
L 288.304216 137.75438 
L 289.296922 137.1456 
L 290.289628 147.168301 
L 291.282334 181.559804 
L 292.27504 189.538178 
L 293.267746 172.096086 
L 294.260452 177.19823 
L 295.253158 205.144659 
L 296.245864 227.547324 
L 297.23857 208.201062 
L 298.231276 224.722123 
L 299.223981 250.467963 
L 300.216687 210.577164 
L 301.209393 216.453978 
L 302.202099 257.718782 
L 304.187511 217.170112 
L 305.180217 230.273626 
L 306.172923 274.756884 
L 307.165629 240.807583 
L 308.158335 233.572643 
L 309.151041 256.763916 
L 310.143747 283.755225 
L 311.136453 250.211318 
L 312.129159 260.395862 
L 313.121864 276.186048 
L 314.11457 289.055087 
L 315.107276 281.404435 
L 316.099982 271.71717 
L 317.092688 263.464758 
L 318.085394 270.859095 
L 319.0781 287.000004 
L 320.070806 256.328896 
L 321.063512 264.606497 
L 322.056218 278.436514 
L 323.048924 271.900105 
L 324.04163 263.978564 
L 325.034336 298.040571 
L 326.027041 324.032242 
L 327.019747 285.804382 
L 328.012453 290.505053 
L 329.005159 287.823805 
L 329.997865 287.870078 
L 330.990571 315.667463 
L 331.983277 315.318396 
L 332.975983 259.267973 
L 333.968689 276.821371 
L 334.961395 264.755873 
L 335.954101 278.231462 
L 336.946807 287.391366 
L 337.939513 331.313146 
L 338.932218 277.150747 
L 339.924924 297.514987 
L 340.91763 289.755287 
L 341.910336 275.743253 
L 342.903042 271.346687 
L 343.895748 287.162096 
L 344.888454 330.149335 
L 345.88116 289.675379 
L 346.873866 297.54626 
L 347.866572 322.024194 
L 348.859278 268.401272 
L 349.851984 285.012707 
L 350.84469 295.889577 
L 351.837395 295.8296 
L 352.830101 304.886612 
L 353.822807 288.595199 
L 354.815513 305.362399 
L 355.808219 269.228141 
L 356.800925 258.095881 
L 357.793631 344.790661 
L 358.786337 310.862045 
L 359.779043 351.173916 
L 360.771749 266.927821 
L 361.764455 271.76224 
L 362.757161 290.093146 
L 363.749867 297.204263 
L 364.742572 319.58608 
L 365.735278 280.025171 
L 366.727984 298.508717 
L 367.72069 282.085462 
L 368.713396 324.430554 
L 369.706102 258.108851 
L 370.698808 301.43228 
L 371.691514 276.65863 
L 372.68422 275.973048 
L 373.676926 309.127331 
L 374.669632 292.454405 
L 375.662338 291.247776 
L 376.655044 333.443067 
L 377.64775 292.859384 
L 378.640455 288.66269 
L 379.633161 299.950986 
L 380.625867 269.078255 
L 381.618573 288.733423 
L 382.611279 280.052718 
L 383.603985 302.376362 
L 384.596691 278.805856 
L 386.582103 356.681912 
L 387.574809 288.621038 
L 388.567515 295.607695 
L 389.560221 274.05634 
L 390.552927 293.117594 
L 391.545632 281.968863 
L 392.538338 306.950622 
L 393.531044 286.847196 
L 394.52375 307.37009 
L 395.516456 336.491608 
L 396.509162 314.956709 
L 397.501868 308.047277 
L 398.494574 324.676318 
L 399.48728 287.277554 
L 400.479986 295.329467 
L 401.472692 290.084969 
L 402.465398 304.475927 
L 403.458104 276.899775 
L 404.450809 278.923644 
L 405.443515 301.677925 
L 406.436221 308.099739 
L 408.421633 275.617139 
L 409.414339 303.977144 
L 410.407045 318.975408 
L 411.399751 307.484464 
L 412.392457 298.682054 
L 413.385163 349.093476 
L 414.377869 288.642918 
L 416.363281 313.758516 
L 417.355986 293.293387 
L 418.348692 309.958662 
L 419.341398 273.992367 
L 420.334104 282.082423 
L 421.32681 327.719197 
L 422.319516 302.687801 
L 423.312222 306.598266 
L 424.304928 289.441431 
L 425.297634 297.688449 
L 426.29034 277.318929 
L 427.283046 289.654123 
L 428.275752 279.567257 
L 429.268458 314.359946 
L 430.261163 261.706731 
L 432.246575 327.358251 
L 433.239281 285.652256 
L 434.231987 290.497707 
L 435.224693 289.247687 
L 436.217399 289.673965 
L 437.210105 304.546675 
L 438.202811 292.818545 
L 439.195517 307.126565 
L 441.180929 300.763607 
L 442.173635 321.592282 
L 443.166341 314.980569 
L 444.159046 313.007073 
L 445.151752 311.702712 
L 446.144458 311.370239 
L 447.137164 328.419566 
L 448.12987 278.474889 
L 449.122576 278.727927 
L 450.115282 292.997133 
L 451.107988 349.340162 
L 452.100694 307.464792 
L 453.0934 301.188814 
L 454.086106 307.015438 
L 455.078812 299.618325 
L 456.071518 299.788003 
L 457.064223 327.719676 
L 458.056929 312.122362 
L 459.049635 305.539801 
L 460.042341 288.727644 
L 461.035047 299.865203 
L 462.027753 264.093404 
L 463.020459 311.234925 
L 464.013165 279.821359 
L 465.005871 333.18266 
L 465.998577 280.755132 
L 466.991283 287.591367 
L 467.983989 323.988188 
L 468.976695 278.644984 
L 469.9694 316.742745 
L 470.962106 313.751349 
L 471.954812 285.102319 
L 472.947518 316.370875 
L 473.940224 319.022084 
L 474.93293 321.271325 
L 475.925636 286.4073 
L 476.918342 340.013312 
L 477.911048 293.005541 
L 478.903754 333.827706 
L 479.89646 284.761278 
L 480.889166 303.445429 
L 481.881872 291.263701 
L 482.874577 312.644904 
L 483.867283 289.109849 
L 484.859989 297.844842 
L 485.852695 268.483444 
L 486.845401 298.073996 
L 487.838107 274.582329 
L 488.830813 301.654237 
L 489.823519 310.198231 
L 490.816225 301.911347 
L 491.808931 308.631849 
L 492.801637 261.329957 
L 493.794343 289.90751 
L 494.787049 295.42534 
L 495.779754 302.101132 
L 496.77246 269.038229 
L 497.765166 312.332172 
L 498.757872 314.904334 
L 499.750578 303.068716 
L 500.743284 272.67721 
L 501.73599 323.952418 
L 502.728696 267.121205 
L 503.721402 273.358233 
L 504.714108 262.022801 
L 505.706814 262.990917 
L 506.69952 286.701526 
L 507.692226 342.112118 
L 508.684932 319.661988 
L 509.677637 277.262033 
L 510.670343 336.884111 
L 511.663049 265.220812 
L 512.655755 251.558648 
L 513.648461 251.266135 
L 514.641167 253.690605 
L 515.633873 304.162325 
L 516.626579 295.562937 
L 517.619285 290.868029 
L 518.611991 287.618821 
L 519.604697 247.568903 
L 520.597403 264.375265 
L 521.590109 313.647664 
L 522.582814 277.415417 
L 523.57552 310.729697 
L 524.568226 289.756213 
L 525.560932 278.181504 
L 526.553638 263.180526 
L 527.546344 260.313403 
L 528.53905 281.480648 
L 529.531756 280.426216 
L 530.524462 254.317759 
L 531.517168 245.118159 
L 532.509874 264.264132 
L 533.50258 290.668816 
L 534.495286 343.255977 
L 535.487991 277.705494 
L 536.480697 267.459494 
L 538.466109 233.473996 
L 539.458815 234.258107 
L 540.451521 233.930923 
L 541.444227 249.459466 
L 542.436933 306.808451 
L 543.429639 287.923686 
L 544.422345 244.592291 
L 545.415051 245.564992 
L 546.407757 268.245183 
L 547.400463 294.533993 
L 548.393168 307.808016 
L 549.385874 288.731466 
L 550.37858 292.141096 
L 551.371286 268.297767 
L 552.363992 295.483712 
L 553.356698 290.928384 
L 554.349404 282.948768 
L 555.34211 273.126213 
L 556.334816 257.894777 
L 557.327522 250.390598 
L 559.312934 282.341809 
L 560.30564 336.63471 
L 561.298345 280.948453 
L 562.291051 284.986093 
L 563.283757 265.072179 
L 564.276463 276.546066 
L 565.269169 254.519129 
L 567.254581 295.515032 
L 568.247287 281.188278 
L 569.239993 290.239158 
L 570.232699 275.408447 
L 571.225405 278.579209 
L 572.218111 303.488488 
L 573.210817 265.577628 
L 574.203523 292.546082 
L 575.196228 314.415462 
L 576.188934 282.787568 
L 577.18164 331.198936 
L 578.174346 286.715691 
L 579.167052 276.638961 
L 580.159758 288.286047 
L 581.152464 301.678371 
L 582.14517 281.961871 
L 583.137876 301.157872 
L 584.130582 279.893818 
L 585.123288 279.781843 
L 586.115994 361.737066 
L 587.1087 285.173 
L 588.101405 322.848388 
L 589.094111 299.820951 
L 590.086817 295.709809 
L 591.079523 304.180655 
L 592.072229 334.285691 
L 593.064935 291.577531 
L 594.057641 293.436059 
L 595.050347 292.393809 
L 596.043053 320.886602 
L 597.035759 291.032648 
L 598.028465 354.168019 
L 599.021171 315.256087 
L 600.013877 333.216206 
L 601.006582 319.535546 
L 601.999288 311.845852 
L 602.991994 287.941619 
L 603.9847 289.199021 
L 604.977406 304.651346 
L 605.970112 315.328314 
L 606.962818 300.577299 
L 607.955524 349.609586 
L 608.94823 313.526551 
L 609.940936 326.591203 
L 610.933642 355.012713 
L 611.926348 326.837789 
L 612.919054 315.37604 
L 613.911759 352.341224 
L 614.904465 320.53431 
L 615.897171 336.826151 
L 616.889877 345.390726 
L 617.882583 350.76792 
L 618.875289 330.004839 
L 619.867995 320.410893 
L 620.860701 319.45535 
L 621.853407 313.533123 
L 622.846113 352.44081 
L 623.838819 335.008821 
L 624.831525 342.820276 
L 625.824231 335.843901 
L 626.816936 347.551652 
L 627.809642 319.921922 
L 628.802348 325.606329 
L 629.795054 322.546459 
L 630.78776 365.252568 
L 631.780466 338.386735 
L 632.773172 353.556792 
L 633.765878 321.12891 
L 634.758584 318.531518 
L 635.75129 320.209964 
L 636.743996 337.767361 
L 637.736702 324.955724 
L 638.729408 326.666013 
L 639.722114 364.856945 
L 640.714819 317.845987 
L 641.707525 326.32561 
L 642.700231 356.443527 
L 643.692937 350.002911 
L 644.685643 350.218316 
L 645.678349 345.0706 
L 646.671055 326.516523 
L 647.663761 322.899119 
L 648.656467 358.885598 
L 650.641879 348.286223 
L 651.634585 332.94268 
L 652.627291 365.848737 
L 653.619996 322.782104 
L 654.612702 340.196895 
L 655.605408 360.717069 
L 656.598114 358.671907 
L 657.59082 361.759631 
L 658.583526 352.719798 
L 659.576232 341.605872 
L 660.568938 382.192815 
L 661.561644 336.619024 
L 662.55435 369.205886 
L 663.547056 348.047277 
L 664.539762 388.623567 
L 665.532468 377.107254 
L 666.525173 339.395037 
L 667.517879 403.241424 
L 668.510585 391.651895 
L 669.503291 361.691136 
L 670.495997 364.639731 
L 671.488703 362.351197 
L 672.481409 344.605889 
L 673.474115 355.602672 
L 674.466821 344.468433 
L 675.459527 392.116743 
L 676.452233 350.742208 
L 677.444939 354.520528 
L 678.437645 379.704903 
L 679.43035 363.789457 
L 680.423056 388.622036 
L 681.415762 369.358681 
L 682.408468 375.974296 
L 683.401174 361.570936 
L 684.39388 383.631604 
L 685.386586 363.234197 
L 686.379292 356.216666 
L 687.371998 367.68772 
L 688.364704 361.047277 
L 689.35741 390.518104 
L 690.350116 379.086942 
L 691.342822 391.725694 
L 692.335527 366.293139 
L 693.328233 389.695319 
L 694.320939 393.085103 
L 695.313645 379.748271 
L 696.306351 382.699012 
L 697.299057 387.014559 
L 698.291763 371.359349 
L 699.284469 381.073267 
L 700.277175 358.1171 
L 701.269881 363.162218 
L 702.262587 385.19038 
L 703.255293 366.17744 
L 704.247999 375.544314 
L 705.240705 355.607455 
L 706.23341 357.136213 
L 707.226116 366.353317 
L 708.218822 371.41206 
L 709.211528 371.859085 
L 710.204234 350.898462 
L 711.19694 405.81608 
L 712.189646 375.664118 
L 713.182352 384.023224 
L 714.175058 369.523822 
L 715.167764 387.703134 
L 716.16047 368.267347 
L 717.153176 364.812233 
L 718.145882 386.222472 
L 719.138587 368.279957 
L 720.131293 401.733095 
L 721.123999 382.728364 
L 722.116705 397.908652 
L 723.109411 372.534675 
L 724.102117 369.167943 
L 725.094823 391.92392 
L 726.087529 372.254995 
L 727.080235 371.619097 
L 728.072941 428.222503 
L 729.065647 369.294099 
L 730.058353 383.166655 
L 731.051059 370.156258 
L 733.03647 382.528357 
L 734.029176 362.266361 
L 736.014588 389.700624 
L 737.007294 375.706297 
L 738 377.654401 
L 738.992706 380.738217 
L 739.985412 375.279213 
L 740.978118 385.831237 
L 741.970824 386.565658 
L 742.96353 376.007292 
L 744.948941 382.387284 
L 745.941647 369.971692 
L 746.934353 383.805657 
L 747.927059 385.317171 
L 748.919765 374.512779 
L 749.912471 387.32428 
L 750.905177 383.39148 
L 751.897883 406.16418 
L 752.890589 385.218259 
L 753.883295 374.670908 
L 754.876001 380.677504 
L 755.868707 389.290158 
L 756.861413 373.973824 
L 757.854118 393.789175 
L 758.846824 394.710162 
L 759.83953 372.350159 
L 760.832236 386.291584 
L 761.824942 388.707373 
L 762.817648 376.499349 
L 763.810354 395.313398 
L 764.80306 372.206522 
L 765.795766 377.876834 
L 766.788472 367.134096 
L 767.781178 397.120461 
L 768.773884 404.32096 
L 770.759295 373.905545 
L 771.752001 385.030538 
L 772.744707 378.76877 
L 773.737413 381.084361 
L 774.730119 377.843662 
L 775.722825 375.287293 
L 776.715531 394.432271 
L 777.708237 429.633186 
L 778.700943 391.499264 
L 779.693649 387.432904 
L 780.686355 371.575414 
L 781.679061 394.811281 
L 782.671767 384.51973 
L 783.664473 382.93541 
L 784.657178 374.274758 
L 785.649884 370.225908 
L 786.64259 421.939012 
L 787.635296 397.352042 
L 788.628002 411.737284 
L 789.620708 389.025558 
L 790.613414 395.677943 
L 791.60612 381.762036 
L 792.598826 407.130476 
L 793.591532 393.223126 
L 794.584238 372.308984 
L 795.576944 382.314478 
L 796.56965 379.709183 
L 797.562355 379.126502 
L 798.555061 371.558289 
L 799.547767 392.965505 
L 800.540473 380.847513 
L 801.533179 383.681098 
L 802.525885 373.579155 
L 803.518591 406.756514 
L 804.511297 414.380854 
L 805.504003 387.006484 
L 806.496709 405.248027 
L 807.489415 366.989635 
L 808.482121 389.716329 
L 809.474827 386.953199 
L 810.467532 371.830443 
L 811.460238 413.143281 
L 812.452944 384.94745 
L 813.44565 376.995075 
L 814.438356 383.902587 
L 815.431062 401.904723 
L 816.423768 387.959779 
L 817.416474 433.313775 
L 818.40918 391.900634 
L 819.401886 386.953134 
L 820.394592 387.539736 
L 821.387298 395.249734 
L 822.380004 387.321058 
L 823.372709 385.392436 
L 824.365415 396.345996 
L 825.358121 385.215529 
L 826.350827 380.953249 
L 827.343533 410.586916 
L 828.336239 384.573846 
L 829.328945 400.038799 
L 830.321651 391.886943 
L 831.314357 380.619166 
L 832.307063 378.032839 
L 833.299769 378.737858 
L 834.292475 388.591953 
L 835.285181 383.162649 
L 836.277886 383.115076 
L 837.270592 396.24027 
L 838.263298 378.660272 
L 839.256004 396.789365 
L 840.24871 389.385767 
L 841.241416 386.555073 
L 842.234122 398.232458 
L 843.226828 419.384867 
L 844.219534 402.80658 
L 845.21224 382.30472 
L 846.204946 373.472063 
L 847.197652 397.559561 
L 848.190358 398.930029 
L 849.183064 386.025596 
L 850.175769 391.653115 
L 851.168475 376.803852 
L 852.161181 420.171378 
L 853.153887 374.131635 
L 854.146593 396.462213 
L 855.139299 386.275022 
L 856.132005 389.605543 
L 857.124711 401.272559 
L 858.117417 390.751901 
L 859.110123 377.197903 
L 860.102829 397.404899 
L 862.088241 386.556922 
L 863.080946 420.767356 
L 865.066358 371.665895 
L 866.059064 401.289237 
L 867.05177 405.066491 
L 868.044476 382.774535 
L 869.037182 404.644269 
L 870.029888 390.133172 
L 871.022594 385.061084 
L 872.0153 386.044086 
L 873.008006 359.424091 
L 874.000712 374.342228 
L 874.993418 385.116196 
L 875.986123 378.067717 
L 876.978829 389.181177 
L 877.971535 391.633715 
L 878.964241 398.953125 
L 879.956947 382.195725 
L 880.949653 383.669313 
L 881.942359 376.349699 
L 882.935065 394.844678 
L 883.927771 385.271211 
L 884.920477 414.779775 
L 885.913183 397.428433 
L 886.905889 426.441476 
L 887.898595 389.877941 
L 888.8913 415.725015 
L 889.884006 401.642395 
L 890.876712 379.196901 
L 891.869418 406.674925 
L 892.862124 386.789817 
L 893.85483 400.304061 
L 895.840242 381.782315 
L 896.832948 384.589694 
L 897.825654 379.138977 
L 898.81836 407.82873 
L 899.811066 375.880151 
L 900.803772 392.196502 
L 901.796477 391.117627 
L 902.789183 401.541094 
L 903.781889 381.510576 
L 904.774595 395.104934 
L 905.767301 412.096194 
L 906.760007 400.045585 
L 907.752713 373.416275 
L 908.745419 378.373014 
L 909.738125 377.823942 
L 910.730831 425.752186 
L 911.723537 397.833973 
L 912.716243 383.954648 
L 913.708949 385.232155 
L 914.701655 398.315494 
L 915.69436 405.983612 
L 916.687066 416.562741 
L 917.679772 377.248093 
L 918.672478 492.48 
L 919.665184 401.768138 
L 920.65789 390.990976 
L 921.650596 378.039327 
L 922.643302 395.206449 
L 923.636008 368.731543 
L 924.628714 402.475414 
L 925.62142 387.598464 
L 926.614126 387.391947 
L 927.606832 394.170079 
L 928.599537 376.432434 
L 929.592243 403.297015 
L 930.584949 384.215081 
L 931.577655 395.985789 
L 932.570361 376.487071 
L 933.563067 410.930705 
L 934.555773 394.310417 
L 935.548479 395.895698 
L 936.541185 387.722219 
L 937.533891 385.014739 
L 938.526597 435.975219 
L 939.519303 384.243518 
L 940.512009 403.694867 
L 941.504714 438.971615 
L 942.49742 379.926086 
L 943.490126 391.270348 
L 944.482832 398.643423 
L 945.475538 401.685411 
L 946.468244 396.030689 
L 947.46095 401.02953 
L 948.453656 390.992602 
L 949.446362 385.03262 
L 950.439068 390.121835 
L 951.431774 390.843248 
L 952.42448 454.398045 
L 953.417186 405.282127 
L 954.409891 379.566332 
L 955.402597 394.043752 
L 956.395303 383.84818 
L 957.388009 400.801652 
L 958.380715 370.694118 
L 959.373421 384.097741 
L 960.366127 376.215139 
L 961.358833 378.504615 
L 962.351539 407.342027 
L 963.344245 397.676542 
L 964.336951 391.754595 
L 965.329657 393.497266 
L 966.322363 377.307391 
L 967.315068 409.042677 
L 968.307774 401.920535 
L 969.30048 411.491415 
L 970.293186 391.157021 
L 971.285892 396.40493 
L 972.278598 379.734444 
L 973.271304 410.435441 
L 974.26401 397.339282 
L 975.256716 401.412287 
L 976.249422 413.706918 
L 977.242128 390.56892 
L 978.234834 390.598398 
L 979.22754 373.66732 
L 980.220246 403.853772 
L 981.212951 387.636798 
L 982.205657 397.699439 
L 983.198363 380.491732 
L 984.191069 385.406955 
L 985.183775 405.071664 
L 986.176481 383.848125 
L 987.169187 394.357138 
L 988.161893 375.428888 
L 989.154599 374.744062 
L 990.147305 394.624978 
L 991.140011 402.736426 
L 992.132717 423.141446 
L 993.125423 373.080881 
L 994.118128 386.020725 
L 995.110834 389.616858 
L 996.10354 389.743675 
L 997.096246 375.142265 
L 998.088952 388.768839 
L 999.081658 373.308488 
L 1000.074364 377.117419 
L 1001.06707 398.269432 
L 1002.059776 394.634664 
L 1003.052482 391.628903 
L 1004.045188 386.997697 
L 1005.037894 397.08413 
L 1006.0306 392.698403 
L 1007.023305 386.353637 
L 1008.016011 383.789199 
L 1009.008717 383.996553 
L 1010.001423 394.908374 
L 1010.994129 409.997236 
L 1011.986835 378.10939 
L 1012.979541 384.094736 
L 1013.972247 400.276611 
L 1014.964953 400.092106 
L 1015.957659 398.122206 
L 1016.950365 404.635729 
L 1017.943071 414.619375 
L 1018.935777 385.376714 
L 1019.928482 393.898859 
L 1020.921188 382.068113 
L 1021.913894 376.269943 
L 1022.9066 401.689269 
L 1023.899306 384.739176 
L 1024.892012 405.652881 
L 1025.884718 383.222197 
L 1026.877424 382.104743 
L 1027.87013 373.932326 
L 1028.862836 367.434098 
L 1029.855542 414.993413 
L 1030.848248 395.562484 
L 1031.840954 390.390529 
L 1032.833659 389.012529 
L 1033.826365 390.959125 
L 1034.819071 388.977773 
L 1035.811777 396.714292 
L 1036.804483 382.105614 
L 1037.797189 405.458175 
L 1038.789895 378.87821 
L 1039.782601 398.457588 
L 1040.775307 375.393487 
L 1041.768013 385.666822 
L 1042.760719 412.808406 
L 1043.753425 414.684553 
L 1044.746131 410.334375 
L 1045.738837 417.49004 
L 1046.731542 399.983436 
L 1047.724248 393.468288 
L 1048.716954 379.767996 
L 1049.70966 406.141342 
L 1050.702366 393.406528 
L 1051.695072 386.99687 
L 1052.687778 389.547339 
L 1053.680484 386.229657 
L 1054.67319 450.620237 
L 1055.665896 379.760804 
L 1056.658602 400.301599 
L 1057.651308 398.78602 
L 1058.644014 409.211141 
L 1059.636719 391.346649 
L 1060.629425 403.466004 
L 1061.622131 396.264137 
L 1062.614837 407.587725 
L 1063.607543 380.27316 
L 1064.600249 385.741876 
L 1065.592955 386.381281 
L 1066.585661 370.834716 
L 1067.578367 383.536764 
L 1068.571073 386.298682 
L 1069.563779 390.283153 
L 1070.556485 395.660878 
L 1071.549191 393.386744 
L 1072.541896 387.886069 
L 1073.534602 400.609467 
L 1074.527308 379.128331 
L 1075.520014 382.885082 
L 1076.51272 390.394447 
L 1077.505426 381.908398 
L 1078.498132 401.382109 
L 1079.490838 428.040428 
L 1080.483544 377.981829 
L 1081.47625 395.598536 
L 1082.468956 394.208115 
L 1083.461662 388.438671 
L 1084.454368 407.917606 
L 1085.447073 383.594291 
L 1086.439779 399.945037 
L 1087.432485 407.764064 
L 1088.425191 388.906554 
L 1089.417897 405.920313 
L 1090.410603 380.149381 
L 1091.403309 372.705438 
L 1092.396015 375.921675 
L 1093.388721 376.616327 
L 1094.381427 380.550933 
L 1095.374133 379.479141 
L 1096.366839 397.967397 
L 1097.359545 411.658251 
L 1098.35225 387.68198 
L 1099.344956 396.361309 
L 1100.337662 397.241591 
L 1101.330368 372.3653 
L 1102.323074 392.580786 
L 1103.31578 398.318791 
L 1104.308486 390.001189 
L 1105.301192 404.167957 
L 1106.293898 400.044024 
L 1107.286604 387.826046 
L 1108.27931 379.497237 
L 1109.272016 381.969847 
L 1110.264722 388.259311 
L 1111.257428 379.598681 
L 1112.250133 383.565186 
L 1113.242839 392.633027 
L 1114.235545 394.855544 
L 1115.228251 380.208993 
L 1116.220957 394.870152 
L 1117.213663 405.676169 
L 1118.206369 433.425305 
L 1119.199075 392.788328 
L 1120.191781 389.200819 
L 1121.184487 379.357205 
L 1122.177193 380.060013 
L 1123.169899 403.082504 
L 1124.162605 381.283397 
L 1125.15531 390.972881 
L 1126.148016 412.072487 
L 1127.140722 397.046943 
L 1128.133428 387.367321 
L 1129.126134 391.27451 
L 1131.111546 380.118511 
L 1132.104252 378.506684 
L 1133.096958 387.617261 
L 1134.089664 383.564917 
L 1135.08237 407.965442 
L 1136.075076 420.997975 
L 1137.067782 389.955995 
L 1138.060487 408.933315 
L 1139.053193 387.254274 
L 1140.045899 384.081165 
L 1141.038605 397.391055 
L 1142.031311 413.447926 
L 1143.024017 380.589392 
L 1144.016723 401.005123 
L 1145.009429 381.954979 
L 1146.002135 429.532317 
L 1146.994841 402.760448 
L 1147.987547 393.210747 
L 1148.980253 437.549985 
L 1149.972959 377.618464 
L 1150.965664 448.005191 
L 1151.95837 388.788317 
L 1152.951076 393.832994 
L 1153.943782 391.717934 
L 1154.936488 401.621744 
L 1155.929194 384.889974 
L 1156.9219 412.003492 
L 1157.914606 400.23508 
L 1158.907312 384.69372 
L 1159.900018 392.632261 
L 1160.892724 441.104054 
L 1161.88543 405.80658 
L 1162.878136 412.583523 
L 1163.870841 410.34416 
L 1164.863547 377.776006 
L 1166.848959 407.229521 
L 1167.841665 386.762931 
L 1168.834371 384.623002 
L 1169.827077 400.338448 
L 1170.819783 386.107969 
L 1171.812489 376.093565 
L 1172.805195 383.628126 
L 1173.797901 382.295088 
L 1174.790607 415.016424 
L 1175.783313 396.295648 
L 1176.776019 389.620701 
L 1177.768724 391.67495 
L 1178.76143 427.986234 
L 1179.754136 393.39899 
L 1180.746842 386.202164 
L 1181.739548 393.183518 
L 1182.732254 375.561234 
L 1183.72496 393.657524 
L 1184.717666 379.943983 
L 1185.710372 411.471089 
L 1186.703078 403.66299 
L 1187.695784 394.042431 
L 1188.68849 378.462506 
L 1189.681196 392.790482 
L 1190.673901 418.454491 
L 1191.666607 379.845538 
L 1192.659313 394.089101 
L 1193.652019 386.818635 
L 1195.637431 400.766455 
L 1196.630137 390.524606 
L 1197.622843 398.529046 
L 1198.615549 433.910938 
L 1199.608255 390.735256 
L 1200.600961 377.027144 
L 1201.593667 425.392127 
L 1202.586373 383.954951 
L 1203.579078 404.752707 
L 1204.571784 414.74277 
L 1205.56449 403.579012 
L 1206.557196 386.275782 
L 1207.549902 395.102702 
L 1208.542608 417.098891 
L 1209.535314 412.768971 
L 1210.52802 403.468277 
L 1211.520726 424.286614 
L 1212.513432 391.517859 
L 1213.506138 399.391497 
L 1214.498844 404.654619 
L 1215.49155 390.528116 
L 1216.484255 430.026109 
L 1217.476961 388.567272 
L 1218.469667 389.686536 
L 1219.462373 402.195106 
L 1220.455079 421.342254 
L 1221.447785 383.487402 
L 1222.440491 415.506048 
L 1223.433197 421.56949 
L 1224.425903 402.969357 
L 1225.418609 388.177394 
L 1226.411315 421.675296 
L 1227.404021 382.153455 
L 1228.396727 389.985656 
L 1229.389432 392.489782 
L 1230.382138 377.928323 
L 1231.374844 403.024482 
L 1232.36755 391.347649 
L 1233.360256 398.635085 
L 1234.352962 429.062636 
L 1235.345668 383.841027 
L 1236.338374 406.616985 
L 1237.33108 386.775198 
L 1238.323786 399.961872 
L 1239.316492 394.119663 
L 1240.309198 397.282904 
L 1241.301904 373.707538 
L 1242.29461 390.450834 
L 1243.287315 398.781157 
L 1244.280021 380.796312 
L 1245.272727 396.063326 
L 1245.272727 396.063326 
" clip-path="url(#p1c8db9cd20)" style="fill: none; stroke: #1f77b4; stroke-width: 1.5; stroke-linecap: square"/>
   </g>
   <g id="patch_3">
    <path d="M 180 512.64 
L 180 69.12 
" style="fill: none; stroke: #000000; stroke-width: 0.8; stroke-linejoin: miter; stroke-linecap: square"/>
   </g>
   <g id="patch_4">
    <path d="M 1296 512.64 
L 1296 69.12 
" style="fill: none; stroke: #000000; stroke-width: 0.8; stroke-linejoin: miter; stroke-linecap: square"/>
   </g>
   <g id="patch_5">
    <path d="M 180 512.64 
L 1296 512.64 
" style="fill: none; stroke: #000000; stroke-width: 0.8; stroke-linejoin: miter; stroke-linecap: square"/>
   </g>
   <g id="patch_6">
    <path d="M 180 69.12 
L 1296 69.12 
" style="fill: none; stroke: #000000; stroke-width: 0.8; stroke-linejoin: miter; stroke-linecap: square"/>
   </g>
   <g id="text_13">
    <!-- source23-receiver14 -->
    <g transform="translate(532.175 60.80125) scale(0.4 -0.4)">
     <defs>
      <path id="DejaVuSans-73" d="M 2834 3397 
L 2834 2853 
Q 2591 2978 2328 3040 
Q 2066 3103 1784 3103 
Q 1356 3103 1142 2972 
Q 928 2841 928 2578 
Q 928 2378 1081 2264 
Q 1234 2150 1697 2047 
L 1894 2003 
Q 2506 1872 2764 1633 
Q 3022 1394 3022 966 
Q 3022 478 2636 193 
Q 2250 -91 1575 -91 
Q 1294 -91 989 -36 
Q 684 19 347 128 
L 347 722 
Q 666 556 975 473 
Q 1284 391 1588 391 
Q 1994 391 2212 530 
Q 2431 669 2431 922 
Q 2431 1156 2273 1281 
Q 2116 1406 1581 1522 
L 1381 1569 
Q 847 1681 609 1914 
Q 372 2147 372 2553 
Q 372 3047 722 3315 
Q 1072 3584 1716 3584 
Q 2034 3584 2315 3537 
Q 2597 3491 2834 3397 
z
" transform="scale(0.015625)"/>
      <path id="DejaVuSans-6f" d="M 1959 3097 
Q 1497 3097 1228 2736 
Q 959 2375 959 1747 
Q 959 1119 1226 758 
Q 1494 397 1959 397 
Q 2419 397 2687 759 
Q 2956 1122 2956 1747 
Q 2956 2369 2687 2733 
Q 2419 3097 1959 3097 
z
M 1959 3584 
Q 2709 3584 3137 3096 
Q 3566 2609 3566 1747 
Q 3566 888 3137 398 
Q 2709 -91 1959 -91 
Q 1206 -91 779 398 
Q 353 888 353 1747 
Q 353 2609 779 3096 
Q 1206 3584 1959 3584 
z
" transform="scale(0.015625)"/>
      <path id="DejaVuSans-75" d="M 544 1381 
L 544 3500 
L 1119 3500 
L 1119 1403 
Q 1119 906 1312 657 
Q 1506 409 1894 409 
Q 2359 409 2629 706 
Q 2900 1003 2900 1516 
L 2900 3500 
L 3475 3500 
L 3475 0 
L 2900 0 
L 2900 538 
Q 2691 219 2414 64 
Q 2138 -91 1772 -91 
Q 1169 -91 856 284 
Q 544 659 544 1381 
z
M 1991 3584 
L 1991 3584 
z
" transform="scale(0.015625)"/>
      <path id="DejaVuSans-72" d="M 2631 2963 
Q 2534 3019 2420 3045 
Q 2306 3072 2169 3072 
Q 1681 3072 1420 2755 
Q 1159 2438 1159 1844 
L 1159 0 
L 581 0 
L 581 3500 
L 1159 3500 
L 1159 2956 
Q 1341 3275 1631 3429 
Q 1922 3584 2338 3584 
Q 2397 3584 2469 3576 
Q 2541 3569 2628 3553 
L 2631 2963 
z
" transform="scale(0.015625)"/>
      <path id="DejaVuSans-63" d="M 3122 3366 
L 3122 2828 
Q 2878 2963 2633 3030 
Q 2388 3097 2138 3097 
Q 1578 3097 1268 2742 
Q 959 2388 959 1747 
Q 959 1106 1268 751 
Q 1578 397 2138 397 
Q 2388 397 2633 464 
Q 2878 531 3122 666 
L 3122 134 
Q 2881 22 2623 -34 
Q 2366 -91 2075 -91 
Q 1284 -91 818 406 
Q 353 903 353 1747 
Q 353 2603 823 3093 
Q 1294 3584 2113 3584 
Q 2378 3584 2631 3529 
Q 2884 3475 3122 3366 
z
" transform="scale(0.015625)"/>
      <path id="DejaVuSans-65" d="M 3597 1894 
L 3597 1613 
L 953 1613 
Q 991 1019 1311 708 
Q 1631 397 2203 397 
Q 2534 397 2845 478 
Q 3156 559 3463 722 
L 3463 178 
Q 3153 47 2828 -22 
Q 2503 -91 2169 -91 
Q 1331 -91 842 396 
Q 353 884 353 1716 
Q 353 2575 817 3079 
Q 1281 3584 2069 3584 
Q 2775 3584 3186 3129 
Q 3597 2675 3597 1894 
z
M 3022 2063 
Q 3016 2534 2758 2815 
Q 2500 3097 2075 3097 
Q 1594 3097 1305 2825 
Q 1016 2553 972 2059 
L 3022 2063 
z
" transform="scale(0.015625)"/>
      <path id="DejaVuSans-33" d="M 2597 2516 
Q 3050 2419 3304 2112 
Q 3559 1806 3559 1356 
Q 3559 666 3084 287 
Q 2609 -91 1734 -91 
Q 1441 -91 1130 -33 
Q 819 25 488 141 
L 488 750 
Q 750 597 1062 519 
Q 1375 441 1716 441 
Q 2309 441 2620 675 
Q 2931 909 2931 1356 
Q 2931 1769 2642 2001 
Q 2353 2234 1838 2234 
L 1294 2234 
L 1294 2753 
L 1863 2753 
Q 2328 2753 2575 2939 
Q 2822 3125 2822 3475 
Q 2822 3834 2567 4026 
Q 2313 4219 1838 4219 
Q 1578 4219 1281 4162 
Q 984 4106 628 3988 
L 628 4550 
Q 988 4650 1302 4700 
Q 1616 4750 1894 4750 
Q 2613 4750 3031 4423 
Q 3450 4097 3450 3541 
Q 3450 3153 3228 2886 
Q 3006 2619 2597 2516 
z
" transform="scale(0.015625)"/>
      <path id="DejaVuSans-2d" d="M 313 2009 
L 1997 2009 
L 1997 1497 
L 313 1497 
L 313 2009 
z
" transform="scale(0.015625)"/>
      <path id="DejaVuSans-69" d="M 603 3500 
L 1178 3500 
L 1178 0 
L 603 0 
L 603 3500 
z
M 603 4863 
L 1178 4863 
L 1178 4134 
L 603 4134 
L 603 4863 
z
" transform="scale(0.015625)"/>
      <path id="DejaVuSans-76" d="M 191 3500 
L 800 3500 
L 1894 563 
L 2988 3500 
L 3597 3500 
L 2284 0 
L 1503 0 
L 191 3500 
z
" transform="scale(0.015625)"/>
     </defs>
     <use xlink:href="#DejaVuSans-73"/>
     <use xlink:href="#DejaVuSans-6f" x="52.099609"/>
     <use xlink:href="#DejaVuSans-75" x="113.28125"/>
     <use xlink:href="#DejaVuSans-72" x="176.660156"/>
     <use xlink:href="#DejaVuSans-63" x="215.523438"/>
     <use xlink:href="#DejaVuSans-65" x="270.503906"/>
     <use xlink:href="#DejaVuSans-32" x="332.027344"/>
     <use xlink:href="#DejaVuSans-33" x="395.650391"/>
     <use xlink:href="#DejaVuSans-2d" x="459.273438"/>
     <use xlink:href="#DejaVuSans-72" x="495.357422"/>
     <use xlink:href="#DejaVuSans-65" x="534.220703"/>
     <use xlink:href="#DejaVuSans-63" x="595.744141"/>
     <use xlink:href="#DejaVuSans-65" x="650.724609"/>
     <use xlink:href="#DejaVuSans-69" x="712.248047"/>
     <use xlink:href="#DejaVuSans-76" x="740.03125"/>
     <use xlink:href="#DejaVuSans-65" x="799.210938"/>
     <use xlink:href="#DejaVuSans-72" x="860.734375"/>
     <use xlink:href="#DejaVuSans-31" x="901.847656"/>
     <use xlink:href="#DejaVuSans-34" x="965.470703"/>
    </g>
   </g>
  </g>
 </g>
 <defs>
  <clipPath id="p1c8db9cd20">
   <rect x="180" y="69.12" width="1116" height="443.52"/>
  </clipPath>
 </defs>
</svg>
