<?xml version="1.0" encoding="utf-8" standalone="no"?>
<!DOCTYPE svg PUBLIC "-//W3C//DTD SVG 1.1//EN"
  "http://www.w3.org/Graphics/SVG/1.1/DTD/svg11.dtd">
<svg xmlns:xlink="http://www.w3.org/1999/xlink" width="1440pt" height="576pt" viewBox="0 0 1440 576" xmlns="http://www.w3.org/2000/svg" version="1.1">
 <metadata>
  <rdf:RDF xmlns:dc="http://purl.org/dc/elements/1.1/" xmlns:cc="http://creativecommons.org/ns#" xmlns:rdf="http://www.w3.org/1999/02/22-rdf-syntax-ns#">
   <cc:Work>
    <dc:type rdf:resource="http://purl.org/dc/dcmitype/StillImage"/>
    <dc:date>2024-05-22T04:50:24.641316</dc:date>
    <dc:format>image/svg+xml</dc:format>
    <dc:creator>
     <cc:Agent>
      <dc:title>Matplotlib v3.8.3, https://matplotlib.org/</dc:title>
     </cc:Agent>
    </dc:creator>
   </cc:Work>
  </rdf:RDF>
 </metadata>
 <defs>
  <style type="text/css">*{stroke-linejoin: round; stroke-linecap: butt}</style>
 </defs>
 <g id="figure_1">
  <g id="patch_1">
   <path d="M 0 576 
L 1440 576 
L 1440 0 
L 0 0 
z
" style="fill: #ffffff"/>
  </g>
  <g id="axes_1">
   <g id="patch_2">
    <path d="M 180 512.64 
L 1296 512.64 
L 1296 69.12 
L 180 69.12 
z
" style="fill: #ffffff"/>
   </g>
   <g id="matplotlib.axis_1">
    <g id="xtick_1">
     <g id="line2d_1">
      <defs>
       <path id="mf793ba76d4" d="M 0 0 
L 0 3.5 
" style="stroke: #000000; stroke-width: 0.8"/>
      </defs>
      <g>
       <use xlink:href="#mf793ba76d4" x="229.734567" y="512.64" style="stroke: #000000; stroke-width: 0.8"/>
      </g>
     </g>
     <g id="text_1">
      <!-- 0 -->
      <g transform="translate(226.553317 527.238438) scale(0.1 -0.1)">
       <defs>
        <path id="DejaVuSans-30" d="M 2034 4250 
Q 1547 4250 1301 3770 
Q 1056 3291 1056 2328 
Q 1056 1369 1301 889 
Q 1547 409 2034 409 
Q 2525 409 2770 889 
Q 3016 1369 3016 2328 
Q 3016 3291 2770 3770 
Q 2525 4250 2034 4250 
z
M 2034 4750 
Q 2819 4750 3233 4129 
Q 3647 3509 3647 2328 
Q 3647 1150 3233 529 
Q 2819 -91 2034 -91 
Q 1250 -91 836 529 
Q 422 1150 422 2328 
Q 422 3509 836 4129 
Q 1250 4750 2034 4750 
z
" transform="scale(0.015625)"/>
       </defs>
       <use xlink:href="#DejaVuSans-30"/>
      </g>
     </g>
    </g>
    <g id="xtick_2">
     <g id="line2d_2">
      <g>
       <use xlink:href="#mf793ba76d4" x="433.04074" y="512.64" style="stroke: #000000; stroke-width: 0.8"/>
      </g>
     </g>
     <g id="text_2">
      <!-- 500 -->
      <g transform="translate(423.49699 527.238438) scale(0.1 -0.1)">
       <defs>
        <path id="DejaVuSans-35" d="M 691 4666 
L 3169 4666 
L 3169 4134 
L 1269 4134 
L 1269 2991 
Q 1406 3038 1543 3061 
Q 1681 3084 1819 3084 
Q 2600 3084 3056 2656 
Q 3513 2228 3513 1497 
Q 3513 744 3044 326 
Q 2575 -91 1722 -91 
Q 1428 -91 1123 -41 
Q 819 9 494 109 
L 494 744 
Q 775 591 1075 516 
Q 1375 441 1709 441 
Q 2250 441 2565 725 
Q 2881 1009 2881 1497 
Q 2881 1984 2565 2268 
Q 2250 2553 1709 2553 
Q 1456 2553 1204 2497 
Q 953 2441 691 2322 
L 691 4666 
z
" transform="scale(0.015625)"/>
       </defs>
       <use xlink:href="#DejaVuSans-35"/>
       <use xlink:href="#DejaVuSans-30" x="63.623047"/>
       <use xlink:href="#DejaVuSans-30" x="127.246094"/>
      </g>
     </g>
    </g>
    <g id="xtick_3">
     <g id="line2d_3">
      <g>
       <use xlink:href="#mf793ba76d4" x="636.346913" y="512.64" style="stroke: #000000; stroke-width: 0.8"/>
      </g>
     </g>
     <g id="text_3">
      <!-- 1000 -->
      <g transform="translate(623.621913 527.238438) scale(0.1 -0.1)">
       <defs>
        <path id="DejaVuSans-31" d="M 794 531 
L 1825 531 
L 1825 4091 
L 703 3866 
L 703 4441 
L 1819 4666 
L 2450 4666 
L 2450 531 
L 3481 531 
L 3481 0 
L 794 0 
L 794 531 
z
" transform="scale(0.015625)"/>
       </defs>
       <use xlink:href="#DejaVuSans-31"/>
       <use xlink:href="#DejaVuSans-30" x="63.623047"/>
       <use xlink:href="#DejaVuSans-30" x="127.246094"/>
       <use xlink:href="#DejaVuSans-30" x="190.869141"/>
      </g>
     </g>
    </g>
    <g id="xtick_4">
     <g id="line2d_4">
      <g>
       <use xlink:href="#mf793ba76d4" x="839.653087" y="512.64" style="stroke: #000000; stroke-width: 0.8"/>
      </g>
     </g>
     <g id="text_4">
      <!-- 1500 -->
      <g transform="translate(826.928087 527.238438) scale(0.1 -0.1)">
       <use xlink:href="#DejaVuSans-31"/>
       <use xlink:href="#DejaVuSans-35" x="63.623047"/>
       <use xlink:href="#DejaVuSans-30" x="127.246094"/>
       <use xlink:href="#DejaVuSans-30" x="190.869141"/>
      </g>
     </g>
    </g>
    <g id="xtick_5">
     <g id="line2d_5">
      <g>
       <use xlink:href="#mf793ba76d4" x="1042.95926" y="512.64" style="stroke: #000000; stroke-width: 0.8"/>
      </g>
     </g>
     <g id="text_5">
      <!-- 2000 -->
      <g transform="translate(1030.23426 527.238438) scale(0.1 -0.1)">
       <defs>
        <path id="DejaVuSans-32" d="M 1228 531 
L 3431 531 
L 3431 0 
L 469 0 
L 469 531 
Q 828 903 1448 1529 
Q 2069 2156 2228 2338 
Q 2531 2678 2651 2914 
Q 2772 3150 2772 3378 
Q 2772 3750 2511 3984 
Q 2250 4219 1831 4219 
Q 1534 4219 1204 4116 
Q 875 4013 500 3803 
L 500 4441 
Q 881 4594 1212 4672 
Q 1544 4750 1819 4750 
Q 2544 4750 2975 4387 
Q 3406 4025 3406 3419 
Q 3406 3131 3298 2873 
Q 3191 2616 2906 2266 
Q 2828 2175 2409 1742 
Q 1991 1309 1228 531 
z
" transform="scale(0.015625)"/>
       </defs>
       <use xlink:href="#DejaVuSans-32"/>
       <use xlink:href="#DejaVuSans-30" x="63.623047"/>
       <use xlink:href="#DejaVuSans-30" x="127.246094"/>
       <use xlink:href="#DejaVuSans-30" x="190.869141"/>
      </g>
     </g>
    </g>
    <g id="xtick_6">
     <g id="line2d_6">
      <g>
       <use xlink:href="#mf793ba76d4" x="1246.265433" y="512.64" style="stroke: #000000; stroke-width: 0.8"/>
      </g>
     </g>
     <g id="text_6">
      <!-- 2500 -->
      <g transform="translate(1233.540433 527.238438) scale(0.1 -0.1)">
       <use xlink:href="#DejaVuSans-32"/>
       <use xlink:href="#DejaVuSans-35" x="63.623047"/>
       <use xlink:href="#DejaVuSans-30" x="127.246094"/>
       <use xlink:href="#DejaVuSans-30" x="190.869141"/>
      </g>
     </g>
    </g>
   </g>
   <g id="matplotlib.axis_2">
    <g id="ytick_1">
     <g id="line2d_7">
      <defs>
       <path id="m014f95f892" d="M 0 0 
L -3.5 0 
" style="stroke: #000000; stroke-width: 0.8"/>
      </defs>
      <g>
       <use xlink:href="#m014f95f892" x="180" y="463.483608" style="stroke: #000000; stroke-width: 0.8"/>
      </g>
     </g>
     <g id="text_7">
      <!-- −2 -->
      <g transform="translate(158.257812 467.282827) scale(0.1 -0.1)">
       <defs>
        <path id="DejaVuSans-2212" d="M 678 2272 
L 4684 2272 
L 4684 1741 
L 678 1741 
L 678 2272 
z
" transform="scale(0.015625)"/>
       </defs>
       <use xlink:href="#DejaVuSans-2212"/>
       <use xlink:href="#DejaVuSans-32" x="83.789062"/>
      </g>
     </g>
    </g>
    <g id="ytick_2">
     <g id="line2d_8">
      <g>
       <use xlink:href="#m014f95f892" x="180" y="394.008931" style="stroke: #000000; stroke-width: 0.8"/>
      </g>
     </g>
     <g id="text_8">
      <!-- −1 -->
      <g transform="translate(158.257812 397.808149) scale(0.1 -0.1)">
       <use xlink:href="#DejaVuSans-2212"/>
       <use xlink:href="#DejaVuSans-31" x="83.789062"/>
      </g>
     </g>
    </g>
    <g id="ytick_3">
     <g id="line2d_9">
      <g>
       <use xlink:href="#m014f95f892" x="180" y="324.534253" style="stroke: #000000; stroke-width: 0.8"/>
      </g>
     </g>
     <g id="text_9">
      <!-- 0 -->
      <g transform="translate(166.6375 328.333472) scale(0.1 -0.1)">
       <use xlink:href="#DejaVuSans-30"/>
      </g>
     </g>
    </g>
    <g id="ytick_4">
     <g id="line2d_10">
      <g>
       <use xlink:href="#m014f95f892" x="180" y="255.059576" style="stroke: #000000; stroke-width: 0.8"/>
      </g>
     </g>
     <g id="text_10">
      <!-- 1 -->
      <g transform="translate(166.6375 258.858795) scale(0.1 -0.1)">
       <use xlink:href="#DejaVuSans-31"/>
      </g>
     </g>
    </g>
    <g id="ytick_5">
     <g id="line2d_11">
      <g>
       <use xlink:href="#m014f95f892" x="180" y="185.584899" style="stroke: #000000; stroke-width: 0.8"/>
      </g>
     </g>
     <g id="text_11">
      <!-- 2 -->
      <g transform="translate(166.6375 189.384118) scale(0.1 -0.1)">
       <use xlink:href="#DejaVuSans-32"/>
      </g>
     </g>
    </g>
    <g id="ytick_6">
     <g id="line2d_12">
      <g>
       <use xlink:href="#m014f95f892" x="180" y="116.110222" style="stroke: #000000; stroke-width: 0.8"/>
      </g>
     </g>
     <g id="text_12">
      <!-- 3 -->
      <g transform="translate(166.6375 119.90944) scale(0.1 -0.1)">
       <defs>
        <path id="DejaVuSans-33" d="M 2597 2516 
Q 3050 2419 3304 2112 
Q 3559 1806 3559 1356 
Q 3559 666 3084 287 
Q 2609 -91 1734 -91 
Q 1441 -91 1130 -33 
Q 819 25 488 141 
L 488 750 
Q 750 597 1062 519 
Q 1375 441 1716 441 
Q 2309 441 2620 675 
Q 2931 909 2931 1356 
Q 2931 1769 2642 2001 
Q 2353 2234 1838 2234 
L 1294 2234 
L 1294 2753 
L 1863 2753 
Q 2328 2753 2575 2939 
Q 2822 3125 2822 3475 
Q 2822 3834 2567 4026 
Q 2313 4219 1838 4219 
Q 1578 4219 1281 4162 
Q 984 4106 628 3988 
L 628 4550 
Q 988 4650 1302 4700 
Q 1616 4750 1894 4750 
Q 2613 4750 3031 4423 
Q 3450 4097 3450 3541 
Q 3450 3153 3228 2886 
Q 3006 2619 2597 2516 
z
" transform="scale(0.015625)"/>
       </defs>
       <use xlink:href="#DejaVuSans-33"/>
      </g>
     </g>
    </g>
   </g>
   <g id="line2d_13">
    <path d="M 230.727273 305.647699 
L 231.719979 305.301441 
L 232.712685 304.680551 
L 233.70539 303.909039 
L 234.698096 302.838526 
L 235.690802 301.511365 
L 236.683508 299.836323 
L 238.66892 295.656993 
L 239.661626 293.104642 
L 240.654332 290.079161 
L 241.647038 286.658875 
L 242.639744 282.779498 
L 243.63245 278.262772 
L 244.625156 273.106313 
L 245.617862 266.114794 
L 246.610568 255.464968 
L 247.603273 238.741941 
L 250.581391 175.901082 
L 251.574097 160.530433 
L 252.566803 151.97549 
L 253.559509 149.928708 
L 254.552215 157.941815 
L 255.544921 177.137257 
L 256.537627 202.712 
L 257.530333 179.790352 
L 258.523039 147.19203 
L 259.515745 128.005748 
L 260.50845 121.557528 
L 261.501156 126.773124 
L 262.493862 144.272421 
L 263.486568 179.128095 
L 264.479274 231.987714 
L 265.47198 222.60281 
L 266.464686 201.724235 
L 267.457392 202.240945 
L 268.450098 214.977652 
L 269.442804 223.242333 
L 270.43551 227.738278 
L 271.428216 247.301348 
L 272.420922 311.918277 
L 274.406333 226.167718 
L 275.399039 222.695068 
L 276.391745 246.026584 
L 277.384451 206.852403 
L 278.377157 154.367791 
L 279.369863 122.298612 
L 280.362569 102.63857 
L 281.355275 92.141709 
L 282.347981 89.28 
L 283.340687 92.317864 
L 285.326099 110.84772 
L 286.318804 113.092713 
L 287.31151 106.769447 
L 288.304216 101.898139 
L 289.296922 103.998433 
L 290.289628 117.537573 
L 291.282334 145.790208 
L 292.27504 201.669577 
L 293.267746 308.268756 
L 294.260452 219.935006 
L 295.253158 212.511724 
L 296.245864 242.630783 
L 297.23857 392.125072 
L 298.231276 263.773393 
L 299.223981 227.630903 
L 300.216687 226.455398 
L 301.209393 250.575845 
L 302.202099 317.017542 
L 303.194805 358.626619 
L 304.187511 287.519268 
L 305.180217 277.447717 
L 306.172923 286.533991 
L 307.165629 304.793843 
L 308.158335 313.034205 
L 309.151041 306.908186 
L 310.143747 308.044025 
L 311.136453 311.398591 
L 312.129159 310.613273 
L 313.121864 312.764782 
L 314.11457 312.999832 
L 315.107276 317.946698 
L 316.099982 320.77721 
L 318.085394 321.657909 
L 319.0781 320.535349 
L 320.070806 327.391195 
L 321.063512 325.202377 
L 323.048924 331.014074 
L 324.04163 331.70797 
L 325.034336 335.361229 
L 326.027041 330.429982 
L 327.019747 333.356842 
L 328.012453 334.801328 
L 329.005159 338.086173 
L 329.997865 340.140873 
L 330.990571 341.17095 
L 331.983277 347.814811 
L 332.975983 340.04286 
L 333.968689 347.713539 
L 334.961395 343.956554 
L 335.954101 344.391187 
L 336.946807 347.514528 
L 337.939513 353.942291 
L 338.932218 352.53673 
L 339.924924 348.328126 
L 340.91763 351.127033 
L 341.910336 350.593445 
L 342.903042 351.419917 
L 343.895748 358.959984 
L 344.888454 360.539407 
L 345.88116 352.981528 
L 346.873866 357.699015 
L 347.866572 358.116234 
L 348.859278 353.227207 
L 349.851984 356.75207 
L 350.84469 363.060018 
L 351.837395 356.038298 
L 353.822807 366.903114 
L 354.815513 363.752799 
L 355.808219 359.849977 
L 356.800925 373.236465 
L 357.793631 366.711972 
L 358.786337 369.815078 
L 359.779043 369.282482 
L 360.771749 366.326652 
L 361.764455 367.070781 
L 362.757161 370.186515 
L 363.749867 371.921532 
L 364.742572 372.633984 
L 365.735278 367.107604 
L 366.727984 370.771141 
L 367.72069 373.64516 
L 368.713396 363.386329 
L 369.706102 372.694196 
L 370.698808 379.815038 
L 371.691514 372.221387 
L 372.68422 376.815079 
L 373.676926 392.039064 
L 374.669632 374.300208 
L 375.662338 378.970823 
L 376.655044 378.971455 
L 377.64775 379.407541 
L 378.640455 371.834057 
L 379.633161 378.41846 
L 380.625867 381.309877 
L 381.618573 374.433148 
L 382.611279 395.491831 
L 383.603985 379.626181 
L 384.596691 382.36207 
L 385.589397 381.288961 
L 386.582103 383.14519 
L 387.574809 383.71826 
L 388.567515 384.988691 
L 389.560221 379.99299 
L 390.552927 382.778985 
L 391.545632 379.433795 
L 392.538338 379.703346 
L 393.531044 394.635826 
L 394.52375 385.44125 
L 395.516456 378.063931 
L 396.509162 389.067988 
L 397.501868 393.041972 
L 398.494574 388.248416 
L 399.48728 391.910271 
L 400.479986 387.956371 
L 401.472692 387.663236 
L 402.465398 394.569972 
L 403.458104 387.783182 
L 404.450809 391.869027 
L 405.443515 400.506076 
L 406.436221 398.179265 
L 407.428927 391.332965 
L 408.421633 391.119177 
L 409.414339 394.206222 
L 410.407045 387.468533 
L 411.399751 397.399228 
L 412.392457 395.830624 
L 413.385163 395.080042 
L 414.377869 391.972831 
L 415.370575 392.818421 
L 416.363281 396.145823 
L 417.355986 405.729704 
L 418.348692 396.967172 
L 419.341398 399.266661 
L 420.334104 405.338411 
L 421.32681 404.235793 
L 422.319516 398.768152 
L 423.312222 397.860378 
L 424.304928 393.506877 
L 425.297634 398.056102 
L 426.29034 408.931746 
L 427.283046 402.478318 
L 428.275752 404.354473 
L 429.268458 401.681544 
L 430.261163 413.151179 
L 431.253869 405.856079 
L 432.246575 393.084612 
L 433.239281 405.202062 
L 434.231987 406.735849 
L 435.224693 403.457902 
L 436.217399 414.442915 
L 437.210105 396.441296 
L 438.202811 405.150617 
L 439.195517 400.52793 
L 440.188223 405.06084 
L 441.180929 405.463698 
L 442.173635 411.995913 
L 443.166341 408.759631 
L 444.159046 402.837432 
L 445.151752 419.486173 
L 446.144458 417.070953 
L 447.137164 412.810613 
L 448.12987 413.043621 
L 449.122576 415.935975 
L 450.115282 398.148608 
L 451.107988 411.069246 
L 452.100694 401.067908 
L 453.0934 410.321184 
L 454.086106 403.067263 
L 455.078812 415.07202 
L 456.071518 419.233416 
L 457.064223 405.22016 
L 458.056929 409.003182 
L 459.049635 410.444332 
L 460.042341 425.270506 
L 461.035047 409.666896 
L 462.027753 407.656859 
L 463.020459 432.616762 
L 464.013165 407.762547 
L 465.005871 419.562417 
L 465.998577 409.087612 
L 466.991283 414.576359 
L 467.983989 418.764506 
L 468.976695 408.852475 
L 469.9694 422.751425 
L 470.962106 412.716246 
L 471.954812 426.99216 
L 472.947518 410.854587 
L 473.940224 424.363029 
L 474.93293 414.636952 
L 475.925636 422.023931 
L 476.918342 419.269727 
L 477.911048 407.48917 
L 478.903754 420.758161 
L 479.89646 411.097829 
L 480.889166 423.74071 
L 481.881872 415.907943 
L 482.874577 430.021636 
L 483.867283 436.433188 
L 484.859989 423.014398 
L 485.852695 411.722488 
L 486.845401 418.055212 
L 487.838107 432.643926 
L 488.830813 407.908973 
L 489.823519 440.8232 
L 490.816225 415.517104 
L 491.808931 423.613474 
L 492.801637 424.535846 
L 493.794343 430.486178 
L 494.787049 415.37843 
L 495.779754 428.751145 
L 496.77246 418.591879 
L 497.765166 430.670784 
L 498.757872 414.300812 
L 499.750578 416.829099 
L 500.743284 444.650499 
L 501.73599 419.437683 
L 502.728696 442.901188 
L 503.721402 430.613209 
L 504.714108 427.312643 
L 505.706814 417.231658 
L 506.69952 442.303556 
L 507.692226 412.739884 
L 508.684932 419.333696 
L 509.677637 438.005589 
L 510.670343 450.736334 
L 511.663049 439.101683 
L 512.655755 399.952979 
L 513.648461 450.555794 
L 514.641167 415.553147 
L 515.633873 426.663582 
L 516.626579 447.621674 
L 517.619285 441.709639 
L 518.611991 413.237231 
L 519.604697 453.045465 
L 520.597403 418.776636 
L 521.590109 432.240256 
L 522.582814 434.893104 
L 523.57552 443.335348 
L 524.568226 447.090372 
L 525.560932 425.871585 
L 526.553638 419.734709 
L 527.546344 436.401416 
L 528.53905 427.036624 
L 529.531756 429.289259 
L 530.524462 464.452202 
L 531.517168 401.82316 
L 532.509874 427.963395 
L 533.50258 441.599251 
L 534.495286 419.782369 
L 535.487991 442.936573 
L 536.480697 416.199364 
L 537.473403 460.502138 
L 538.466109 418.361505 
L 539.458815 400.865209 
L 540.451521 443.16452 
L 541.444227 415.677698 
L 542.436933 420.820166 
L 543.429639 460.133729 
L 544.422345 414.264753 
L 545.415051 419.455559 
L 546.407757 461.482108 
L 547.400463 454.062503 
L 548.393168 449.944129 
L 549.385874 439.271295 
L 550.37858 420.09238 
L 551.371286 469.817655 
L 552.363992 416.835227 
L 553.356698 443.645545 
L 554.349404 435.363693 
L 555.34211 431.131413 
L 556.334816 428.866649 
L 557.327522 447.83399 
L 558.320228 423.831696 
L 560.30564 442.97435 
L 561.298345 449.20035 
L 562.291051 423.256406 
L 563.283757 452.998249 
L 564.276463 470.171778 
L 565.269169 421.113174 
L 566.261875 456.688168 
L 567.254581 439.606405 
L 568.247287 426.773723 
L 570.232699 464.949931 
L 571.225405 433.303215 
L 572.218111 434.761264 
L 573.210817 435.336175 
L 574.203523 445.41961 
L 575.196228 425.524831 
L 576.188934 432.702365 
L 577.18164 460.910924 
L 578.174346 445.341075 
L 580.159758 435.524541 
L 581.152464 446.620503 
L 582.14517 436.340633 
L 583.137876 460.891172 
L 584.130582 439.633861 
L 585.123288 449.078406 
L 586.115994 438.640234 
L 587.1087 454.293161 
L 588.101405 449.49068 
L 589.094111 428.185041 
L 590.086817 454.513726 
L 591.079523 449.590299 
L 592.072229 438.001276 
L 593.064935 452.811152 
L 594.057641 457.601587 
L 595.050347 444.322857 
L 596.043053 462.858517 
L 597.035759 445.464884 
L 598.028465 455.318589 
L 599.021171 463.68707 
L 600.013877 439.28149 
L 601.006582 439.252956 
L 601.999288 447.773251 
L 602.991994 443.880139 
L 603.9847 460.842487 
L 604.977406 444.789149 
L 605.970112 452.792029 
L 606.962818 445.251805 
L 608.94823 450.030388 
L 610.933642 450.402105 
L 611.926348 450.692474 
L 612.919054 456.056548 
L 613.911759 438.444378 
L 614.904465 452.493289 
L 615.897171 447.329523 
L 616.889877 453.023411 
L 617.882583 456.257485 
L 618.875289 446.816753 
L 619.867995 449.237834 
L 620.860701 455.343903 
L 621.853407 452.713376 
L 622.846113 448.807278 
L 623.838819 452.349573 
L 624.831525 453.471135 
L 625.824231 445.328468 
L 626.816936 447.164897 
L 627.809642 453.955452 
L 628.802348 457.319362 
L 629.795054 449.467634 
L 630.78776 449.257419 
L 631.780466 463.043483 
L 632.773172 441.694834 
L 633.765878 451.861025 
L 634.758584 453.381957 
L 635.75129 460.548799 
L 636.743996 453.240816 
L 637.736702 454.626383 
L 638.729408 452.706166 
L 639.722114 450.463115 
L 640.714819 458.942981 
L 641.707525 455.922882 
L 642.700231 451.366146 
L 643.692937 460.701224 
L 644.685643 460.290697 
L 645.678349 457.512155 
L 646.671055 457.803914 
L 647.663761 458.441418 
L 648.656467 455.55257 
L 649.649173 457.493889 
L 650.641879 455.061948 
L 651.634585 453.67338 
L 652.627291 458.57328 
L 653.619996 454.053601 
L 654.612702 454.040573 
L 655.605408 453.61332 
L 656.598114 457.201934 
L 657.59082 461.316053 
L 658.583526 457.477862 
L 659.576232 457.759588 
L 660.568938 457.528962 
L 661.561644 455.705759 
L 662.55435 460.269953 
L 663.547056 458.057731 
L 664.539762 454.119655 
L 665.532468 459.868819 
L 666.525173 458.54466 
L 667.517879 455.482987 
L 668.510585 461.718006 
L 669.503291 455.799497 
L 670.495997 456.414889 
L 671.488703 457.662554 
L 672.481409 459.149401 
L 673.474115 455.925536 
L 674.466821 459.527563 
L 675.459527 461.163491 
L 676.452233 459.092263 
L 677.444939 460.882539 
L 678.437645 459.657974 
L 679.43035 459.524071 
L 680.423056 460.739569 
L 681.415762 459.906684 
L 682.408468 459.612888 
L 683.401174 463.030576 
L 685.386586 459.551073 
L 686.379292 461.043775 
L 687.371998 459.955404 
L 688.364704 459.338246 
L 689.35741 461.312403 
L 690.350116 464.217209 
L 691.342822 461.902289 
L 692.335527 462.046656 
L 693.328233 463.296218 
L 694.320939 462.159435 
L 695.313645 463.408308 
L 696.306351 462.683901 
L 697.299057 461.368141 
L 698.291763 461.73855 
L 699.284469 461.875781 
L 700.277175 463.112609 
L 701.269881 462.925666 
L 702.262587 464.410925 
L 703.255293 463.914232 
L 704.247999 463.888136 
L 705.240705 463.183427 
L 706.23341 463.515778 
L 707.226116 464.060097 
L 708.218822 464.902196 
L 709.211528 463.964957 
L 710.204234 464.816553 
L 711.19694 463.797133 
L 712.189646 465.117411 
L 713.182352 464.311273 
L 714.175058 464.30196 
L 715.167764 464.936687 
L 716.16047 463.23478 
L 717.153176 464.493678 
L 718.145882 464.641784 
L 719.138587 463.375978 
L 720.131293 465.378836 
L 721.123999 465.665594 
L 722.116705 465.102616 
L 723.109411 464.739055 
L 724.102117 466.244503 
L 725.094823 465.913504 
L 726.087529 466.199107 
L 727.080235 464.799201 
L 728.072941 465.023303 
L 729.065647 466.475179 
L 730.058353 466.546643 
L 731.051059 465.957193 
L 732.043764 466.0636 
L 733.03647 466.984113 
L 734.029176 465.928329 
L 735.021882 466.24701 
L 736.014588 466.187646 
L 737.007294 465.649106 
L 738 465.509298 
L 738.992706 466.169653 
L 739.985412 467.249317 
L 740.978118 467.54658 
L 741.970824 467.103675 
L 742.96353 467.238717 
L 743.956236 468.08384 
L 744.948941 467.874077 
L 745.941647 467.820742 
L 746.934353 467.431772 
L 747.927059 468.232323 
L 748.919765 468.238161 
L 749.912471 467.877444 
L 750.905177 469.195462 
L 751.897883 468.296511 
L 752.890589 468.425516 
L 753.883295 469.262079 
L 755.868707 468.505127 
L 756.861413 469.50162 
L 757.854118 469.030505 
L 758.846824 468.922363 
L 759.83953 470.038093 
L 760.832236 467.770478 
L 761.824942 470.078377 
L 762.817648 469.312273 
L 763.810354 468.861528 
L 764.80306 469.009796 
L 765.795766 469.7685 
L 766.788472 470.084087 
L 767.781178 470.194214 
L 768.773884 469.753161 
L 769.76659 470.178849 
L 770.759295 469.975085 
L 771.752001 470.668539 
L 773.737413 470.931522 
L 774.730119 470.886335 
L 775.722825 471.610463 
L 776.715531 470.358495 
L 777.708237 469.982299 
L 778.700943 471.834493 
L 779.693649 471.046263 
L 780.686355 471.435638 
L 781.679061 470.87992 
L 782.671767 471.37833 
L 783.664473 471.1165 
L 784.657178 471.18147 
L 785.649884 470.816151 
L 786.64259 472.014989 
L 787.635296 472.134521 
L 788.628002 472.422208 
L 789.620708 472.889056 
L 790.613414 472.641566 
L 791.60612 471.939307 
L 792.598826 472.438948 
L 794.584238 472.932384 
L 795.576944 473.19254 
L 796.56965 471.904042 
L 797.562355 473.661775 
L 798.555061 472.868791 
L 799.547767 472.719807 
L 800.540473 472.766354 
L 801.533179 472.989303 
L 802.525885 473.75347 
L 803.518591 472.831898 
L 804.511297 473.826031 
L 805.504003 472.858589 
L 806.496709 473.523705 
L 807.489415 473.874573 
L 808.482121 473.696971 
L 809.474827 473.666533 
L 810.467532 474.331365 
L 811.460238 473.340323 
L 812.452944 474.324724 
L 813.44565 474.48337 
L 814.438356 474.256422 
L 815.431062 474.708836 
L 816.423768 474.629746 
L 817.416474 474.936332 
L 818.40918 474.246791 
L 819.401886 475.121789 
L 821.387298 474.492591 
L 822.380004 475.27169 
L 823.372709 474.866131 
L 824.365415 475.617046 
L 825.358121 476.143469 
L 826.350827 474.875125 
L 827.343533 475.394756 
L 828.336239 475.157328 
L 829.328945 475.856985 
L 830.321651 476.308457 
L 832.307063 475.788953 
L 833.299769 476.179538 
L 834.292475 475.789206 
L 835.285181 476.272263 
L 836.277886 475.465543 
L 837.270592 476.007214 
L 839.256004 476.7351 
L 840.24871 476.642312 
L 841.241416 477.161832 
L 842.234122 477.171181 
L 843.226828 477.341733 
L 844.219534 476.726694 
L 845.21224 476.252618 
L 847.197652 477.202204 
L 848.190358 476.701065 
L 849.183064 477.69699 
L 851.168475 476.522656 
L 852.161181 478.10901 
L 854.146593 477.746281 
L 855.139299 478.311161 
L 856.132005 477.592664 
L 857.124711 478.312075 
L 858.117417 477.972907 
L 859.110123 477.048821 
L 860.102829 478.11048 
L 861.095535 477.752576 
L 862.088241 478.05142 
L 863.080946 477.841869 
L 865.066358 478.007707 
L 867.05177 478.436367 
L 868.044476 478.372994 
L 871.022594 478.643808 
L 872.0153 478.531457 
L 873.008006 479.234788 
L 874.000712 479.14272 
L 874.993418 479.747439 
L 875.986123 478.978324 
L 876.978829 478.913716 
L 877.971535 479.469386 
L 878.964241 478.816586 
L 880.949653 479.099182 
L 881.942359 480.272737 
L 882.935065 480.288386 
L 883.927771 479.612031 
L 884.920477 479.32129 
L 885.913183 479.364408 
L 886.905889 479.878661 
L 888.8913 480.317491 
L 889.884006 480.78646 
L 890.876712 480.142895 
L 891.869418 480.300271 
L 892.862124 479.758502 
L 894.847536 481.316834 
L 895.840242 480.129091 
L 896.832948 480.896584 
L 897.825654 480.467573 
L 898.81836 480.227659 
L 899.811066 480.828645 
L 900.803772 480.309935 
L 901.796477 479.57248 
L 903.781889 481.494612 
L 904.774595 480.70373 
L 905.767301 481.453442 
L 906.760007 480.182419 
L 907.752713 480.837032 
L 909.738125 481.56257 
L 911.723537 481.913635 
L 912.716243 481.308967 
L 913.708949 481.549083 
L 914.701655 482.776742 
L 915.69436 482.404308 
L 916.687066 481.561648 
L 917.679772 480.963109 
L 918.672478 481.632417 
L 919.665184 481.711091 
L 920.65789 482.772976 
L 921.650596 482.394394 
L 922.643302 482.767651 
L 923.636008 482.757354 
L 924.628714 482.020304 
L 925.62142 482.505738 
L 926.614126 482.617358 
L 927.606832 483.025621 
L 928.599537 483.048116 
L 929.592243 482.005809 
L 930.584949 482.501241 
L 931.577655 482.325697 
L 932.570361 482.920654 
L 933.563067 482.861642 
L 935.548479 481.946647 
L 936.541185 483.248693 
L 937.533891 482.392638 
L 938.526597 482.750488 
L 939.519303 482.512489 
L 940.512009 482.71194 
L 941.504714 484.067543 
L 942.49742 483.357825 
L 943.490126 484.710554 
L 944.482832 484.33071 
L 945.475538 483.662112 
L 946.468244 483.628692 
L 947.46095 483.89873 
L 948.453656 483.627057 
L 950.439068 484.49624 
L 951.431774 484.566367 
L 952.42448 485.474632 
L 953.417186 484.602417 
L 954.409891 482.680723 
L 955.402597 484.067619 
L 956.395303 484.285525 
L 957.388009 484.22621 
L 958.380715 484.970148 
L 959.373421 483.838808 
L 960.366127 484.816695 
L 961.358833 483.985477 
L 962.351539 484.044105 
L 963.344245 485.042228 
L 964.336951 484.739345 
L 965.329657 485.280954 
L 966.322363 484.746951 
L 967.315068 484.378428 
L 968.307774 484.78791 
L 969.30048 485.459409 
L 970.293186 484.615858 
L 971.285892 485.149132 
L 972.278598 484.868983 
L 973.271304 485.807093 
L 974.26401 485.866346 
L 975.256716 485.413272 
L 976.249422 485.462549 
L 977.242128 484.127511 
L 978.234834 485.192399 
L 979.22754 485.252711 
L 980.220246 484.636019 
L 981.212951 484.713979 
L 982.205657 485.569725 
L 983.198363 485.375481 
L 984.191069 485.688078 
L 985.183775 485.744383 
L 986.176481 486.839404 
L 987.169187 485.09179 
L 988.161893 485.738855 
L 989.154599 485.883134 
L 990.147305 486.40597 
L 991.140011 486.428991 
L 992.132717 485.81151 
L 993.125423 487.213754 
L 994.118128 485.780117 
L 995.110834 486.10618 
L 996.10354 486.271743 
L 997.096246 486.614132 
L 998.088952 485.729308 
L 999.081658 486.697742 
L 1000.074364 485.780903 
L 1002.059776 486.200304 
L 1003.052482 486.044393 
L 1004.045188 486.176373 
L 1006.0306 486.758634 
L 1007.023305 486.930169 
L 1008.016011 486.94073 
L 1009.008717 486.500832 
L 1010.001423 486.879317 
L 1010.994129 486.669141 
L 1011.986835 486.297932 
L 1013.972247 487.084696 
L 1014.964953 486.489705 
L 1015.957659 486.141862 
L 1016.950365 487.781446 
L 1017.943071 487.36907 
L 1018.935777 487.41366 
L 1019.928482 487.821012 
L 1020.921188 486.859482 
L 1021.913894 487.569129 
L 1022.9066 487.020899 
L 1023.899306 487.383407 
L 1024.892012 486.549949 
L 1025.884718 487.149128 
L 1026.877424 486.579853 
L 1027.87013 487.54449 
L 1028.862836 486.823268 
L 1029.855542 487.28414 
L 1031.840954 487.864025 
L 1032.833659 488.223423 
L 1033.826365 487.599778 
L 1034.819071 487.590888 
L 1035.811777 487.830204 
L 1036.804483 486.723913 
L 1037.797189 487.967872 
L 1038.789895 487.471369 
L 1039.782601 487.780454 
L 1040.775307 486.585263 
L 1041.768013 487.849951 
L 1042.760719 488.450627 
L 1043.753425 487.215922 
L 1044.746131 488.13546 
L 1045.738837 488.671941 
L 1046.731542 486.642704 
L 1047.724248 488.563658 
L 1048.716954 487.74598 
L 1049.70966 488.132823 
L 1050.702366 488.879158 
L 1051.695072 488.167872 
L 1052.687778 488.003799 
L 1053.680484 488.538157 
L 1054.67319 487.224449 
L 1055.665896 488.820309 
L 1056.658602 488.328652 
L 1057.651308 488.654999 
L 1060.629425 488.734713 
L 1062.614837 487.956516 
L 1063.607543 488.185248 
L 1064.600249 488.157424 
L 1066.585661 489.051963 
L 1067.578367 487.981909 
L 1068.571073 488.23167 
L 1069.563779 488.984573 
L 1070.556485 488.699249 
L 1071.549191 488.864929 
L 1072.541896 489.176332 
L 1073.534602 488.878189 
L 1077.505426 488.768468 
L 1078.498132 489.159704 
L 1079.490838 488.865164 
L 1082.468956 488.425197 
L 1083.461662 489.007854 
L 1085.447073 489.215829 
L 1086.439779 489.903219 
L 1087.432485 489.243928 
L 1088.425191 489.274636 
L 1089.417897 489.78798 
L 1090.410603 488.771928 
L 1092.396015 489.652161 
L 1093.388721 488.871537 
L 1094.381427 489.243604 
L 1095.374133 488.872257 
L 1096.366839 489.739897 
L 1097.359545 490.182008 
L 1098.35225 490.443138 
L 1099.344956 490.47755 
L 1100.337662 490.146951 
L 1101.330368 489.23296 
L 1102.323074 488.562745 
L 1103.31578 489.022154 
L 1104.308486 489.022944 
L 1105.301192 488.834465 
L 1106.293898 490.102224 
L 1107.286604 490.283586 
L 1108.27931 489.217693 
L 1109.272016 488.952733 
L 1110.264722 489.637373 
L 1111.257428 490.459617 
L 1112.250133 490.421233 
L 1113.242839 489.693733 
L 1114.235545 489.854083 
L 1115.228251 489.156703 
L 1116.220957 489.212159 
L 1117.213663 490.014321 
L 1118.206369 489.898564 
L 1119.199075 491.006359 
L 1120.191781 489.660579 
L 1121.184487 490.055748 
L 1122.177193 489.997738 
L 1123.169899 490.25538 
L 1124.162605 490.350942 
L 1125.15531 489.57373 
L 1126.148016 490.324744 
L 1127.140722 490.435297 
L 1128.133428 490.966597 
L 1129.126134 490.634955 
L 1130.11884 490.458311 
L 1131.111546 490.533386 
L 1132.104252 490.23734 
L 1134.089664 491.122688 
L 1135.08237 490.102359 
L 1136.075076 489.899815 
L 1137.067782 490.242772 
L 1138.060487 490.225228 
L 1139.053193 490.595052 
L 1140.045899 490.142214 
L 1141.038605 490.332764 
L 1142.031311 490.960687 
L 1143.024017 491.177702 
L 1144.016723 490.433622 
L 1145.009429 490.658982 
L 1146.002135 490.327911 
L 1146.994841 491.179989 
L 1147.987547 490.675745 
L 1148.980253 490.319344 
L 1150.965664 490.29658 
L 1151.95837 490.704607 
L 1152.951076 491.325011 
L 1153.943782 490.807482 
L 1154.936488 491.22847 
L 1155.929194 491.365001 
L 1156.9219 490.58173 
L 1157.914606 490.556532 
L 1158.907312 490.662028 
L 1159.900018 491.006284 
L 1160.892724 491.184404 
L 1161.88543 491.119713 
L 1162.878136 491.279632 
L 1163.870841 491.282483 
L 1164.863547 491.647238 
L 1165.856253 491.557001 
L 1166.848959 490.746917 
L 1167.841665 491.450112 
L 1169.827077 491.461422 
L 1171.812489 491.156033 
L 1172.805195 490.364619 
L 1173.797901 491.950693 
L 1174.790607 490.846932 
L 1175.783313 491.31456 
L 1176.776019 490.552849 
L 1177.768724 491.087897 
L 1178.76143 491.131012 
L 1179.754136 491.010136 
L 1180.746842 490.434483 
L 1181.739548 490.965307 
L 1182.732254 490.821666 
L 1183.72496 491.347919 
L 1184.717666 490.957337 
L 1185.710372 491.480863 
L 1186.703078 490.567834 
L 1187.695784 491.571541 
L 1188.68849 491.267384 
L 1189.681196 491.654192 
L 1190.673901 492.479327 
L 1192.659313 490.978188 
L 1193.652019 491.144596 
L 1194.644725 491.587213 
L 1195.637431 491.475341 
L 1196.630137 490.582747 
L 1197.622843 491.378515 
L 1198.615549 490.828979 
L 1199.608255 491.510029 
L 1200.600961 490.762924 
L 1201.593667 491.621115 
L 1202.586373 491.180826 
L 1203.579078 491.273978 
L 1204.571784 490.435773 
L 1205.56449 491.621007 
L 1206.557196 491.763641 
L 1207.549902 490.974264 
L 1208.542608 491.810916 
L 1209.535314 491.107122 
L 1212.513432 492.48 
L 1213.506138 491.40556 
L 1214.498844 491.389215 
L 1215.49155 491.159875 
L 1216.484255 491.121213 
L 1217.476961 490.565949 
L 1218.469667 490.902195 
L 1220.455079 491.948687 
L 1221.447785 492.370502 
L 1222.440491 491.123438 
L 1223.433197 492.478409 
L 1225.418609 491.554772 
L 1227.404021 491.366399 
L 1228.396727 490.835375 
L 1229.389432 492.097672 
L 1231.374844 490.995181 
L 1233.360256 491.961958 
L 1234.352962 491.554809 
L 1235.345668 492.144467 
L 1236.338374 492.020804 
L 1237.33108 491.377314 
L 1238.323786 491.58022 
L 1239.316492 491.561546 
L 1240.309198 491.229211 
L 1241.301904 492.007993 
L 1242.29461 490.927541 
L 1243.287315 491.765223 
L 1244.280021 491.499461 
L 1245.272727 491.678024 
L 1245.272727 491.678024 
" clip-path="url(#pd9e148efc7)" style="fill: none; stroke: #1f77b4; stroke-width: 1.5; stroke-linecap: square"/>
   </g>
   <g id="patch_3">
    <path d="M 180 512.64 
L 180 69.12 
" style="fill: none; stroke: #000000; stroke-width: 0.8; stroke-linejoin: miter; stroke-linecap: square"/>
   </g>
   <g id="patch_4">
    <path d="M 1296 512.64 
L 1296 69.12 
" style="fill: none; stroke: #000000; stroke-width: 0.8; stroke-linejoin: miter; stroke-linecap: square"/>
   </g>
   <g id="patch_5">
    <path d="M 180 512.64 
L 1296 512.64 
" style="fill: none; stroke: #000000; stroke-width: 0.8; stroke-linejoin: miter; stroke-linecap: square"/>
   </g>
   <g id="patch_6">
    <path d="M 180 69.12 
L 1296 69.12 
" style="fill: none; stroke: #000000; stroke-width: 0.8; stroke-linejoin: miter; stroke-linecap: square"/>
   </g>
   <g id="text_13">
    <!-- source23-receiver17 -->
    <g transform="translate(532.175 60.80125) scale(0.4 -0.4)">
     <defs>
      <path id="DejaVuSans-73" d="M 2834 3397 
L 2834 2853 
Q 2591 2978 2328 3040 
Q 2066 3103 1784 3103 
Q 1356 3103 1142 2972 
Q 928 2841 928 2578 
Q 928 2378 1081 2264 
Q 1234 2150 1697 2047 
L 1894 2003 
Q 2506 1872 2764 1633 
Q 3022 1394 3022 966 
Q 3022 478 2636 193 
Q 2250 -91 1575 -91 
Q 1294 -91 989 -36 
Q 684 19 347 128 
L 347 722 
Q 666 556 975 473 
Q 1284 391 1588 391 
Q 1994 391 2212 530 
Q 2431 669 2431 922 
Q 2431 1156 2273 1281 
Q 2116 1406 1581 1522 
L 1381 1569 
Q 847 1681 609 1914 
Q 372 2147 372 2553 
Q 372 3047 722 3315 
Q 1072 3584 1716 3584 
Q 2034 3584 2315 3537 
Q 2597 3491 2834 3397 
z
" transform="scale(0.015625)"/>
      <path id="DejaVuSans-6f" d="M 1959 3097 
Q 1497 3097 1228 2736 
Q 959 2375 959 1747 
Q 959 1119 1226 758 
Q 1494 397 1959 397 
Q 2419 397 2687 759 
Q 2956 1122 2956 1747 
Q 2956 2369 2687 2733 
Q 2419 3097 1959 3097 
z
M 1959 3584 
Q 2709 3584 3137 3096 
Q 3566 2609 3566 1747 
Q 3566 888 3137 398 
Q 2709 -91 1959 -91 
Q 1206 -91 779 398 
Q 353 888 353 1747 
Q 353 2609 779 3096 
Q 1206 3584 1959 3584 
z
" transform="scale(0.015625)"/>
      <path id="DejaVuSans-75" d="M 544 1381 
L 544 3500 
L 1119 3500 
L 1119 1403 
Q 1119 906 1312 657 
Q 1506 409 1894 409 
Q 2359 409 2629 706 
Q 2900 1003 2900 1516 
L 2900 3500 
L 3475 3500 
L 3475 0 
L 2900 0 
L 2900 538 
Q 2691 219 2414 64 
Q 2138 -91 1772 -91 
Q 1169 -91 856 284 
Q 544 659 544 1381 
z
M 1991 3584 
L 1991 3584 
z
" transform="scale(0.015625)"/>
      <path id="DejaVuSans-72" d="M 2631 2963 
Q 2534 3019 2420 3045 
Q 2306 3072 2169 3072 
Q 1681 3072 1420 2755 
Q 1159 2438 1159 1844 
L 1159 0 
L 581 0 
L 581 3500 
L 1159 3500 
L 1159 2956 
Q 1341 3275 1631 3429 
Q 1922 3584 2338 3584 
Q 2397 3584 2469 3576 
Q 2541 3569 2628 3553 
L 2631 2963 
z
" transform="scale(0.015625)"/>
      <path id="DejaVuSans-63" d="M 3122 3366 
L 3122 2828 
Q 2878 2963 2633 3030 
Q 2388 3097 2138 3097 
Q 1578 3097 1268 2742 
Q 959 2388 959 1747 
Q 959 1106 1268 751 
Q 1578 397 2138 397 
Q 2388 397 2633 464 
Q 2878 531 3122 666 
L 3122 134 
Q 2881 22 2623 -34 
Q 2366 -91 2075 -91 
Q 1284 -91 818 406 
Q 353 903 353 1747 
Q 353 2603 823 3093 
Q 1294 3584 2113 3584 
Q 2378 3584 2631 3529 
Q 2884 3475 3122 3366 
z
" transform="scale(0.015625)"/>
      <path id="DejaVuSans-65" d="M 3597 1894 
L 3597 1613 
L 953 1613 
Q 991 1019 1311 708 
Q 1631 397 2203 397 
Q 2534 397 2845 478 
Q 3156 559 3463 722 
L 3463 178 
Q 3153 47 2828 -22 
Q 2503 -91 2169 -91 
Q 1331 -91 842 396 
Q 353 884 353 1716 
Q 353 2575 817 3079 
Q 1281 3584 2069 3584 
Q 2775 3584 3186 3129 
Q 3597 2675 3597 1894 
z
M 3022 2063 
Q 3016 2534 2758 2815 
Q 2500 3097 2075 3097 
Q 1594 3097 1305 2825 
Q 1016 2553 972 2059 
L 3022 2063 
z
" transform="scale(0.015625)"/>
      <path id="DejaVuSans-2d" d="M 313 2009 
L 1997 2009 
L 1997 1497 
L 313 1497 
L 313 2009 
z
" transform="scale(0.015625)"/>
      <path id="DejaVuSans-69" d="M 603 3500 
L 1178 3500 
L 1178 0 
L 603 0 
L 603 3500 
z
M 603 4863 
L 1178 4863 
L 1178 4134 
L 603 4134 
L 603 4863 
z
" transform="scale(0.015625)"/>
      <path id="DejaVuSans-76" d="M 191 3500 
L 800 3500 
L 1894 563 
L 2988 3500 
L 3597 3500 
L 2284 0 
L 1503 0 
L 191 3500 
z
" transform="scale(0.015625)"/>
      <path id="DejaVuSans-37" d="M 525 4666 
L 3525 4666 
L 3525 4397 
L 1831 0 
L 1172 0 
L 2766 4134 
L 525 4134 
L 525 4666 
z
" transform="scale(0.015625)"/>
     </defs>
     <use xlink:href="#DejaVuSans-73"/>
     <use xlink:href="#DejaVuSans-6f" x="52.099609"/>
     <use xlink:href="#DejaVuSans-75" x="113.28125"/>
     <use xlink:href="#DejaVuSans-72" x="176.660156"/>
     <use xlink:href="#DejaVuSans-63" x="215.523438"/>
     <use xlink:href="#DejaVuSans-65" x="270.503906"/>
     <use xlink:href="#DejaVuSans-32" x="332.027344"/>
     <use xlink:href="#DejaVuSans-33" x="395.650391"/>
     <use xlink:href="#DejaVuSans-2d" x="459.273438"/>
     <use xlink:href="#DejaVuSans-72" x="495.357422"/>
     <use xlink:href="#DejaVuSans-65" x="534.220703"/>
     <use xlink:href="#DejaVuSans-63" x="595.744141"/>
     <use xlink:href="#DejaVuSans-65" x="650.724609"/>
     <use xlink:href="#DejaVuSans-69" x="712.248047"/>
     <use xlink:href="#DejaVuSans-76" x="740.03125"/>
     <use xlink:href="#DejaVuSans-65" x="799.210938"/>
     <use xlink:href="#DejaVuSans-72" x="860.734375"/>
     <use xlink:href="#DejaVuSans-31" x="901.847656"/>
     <use xlink:href="#DejaVuSans-37" x="965.470703"/>
    </g>
   </g>
  </g>
 </g>
 <defs>
  <clipPath id="pd9e148efc7">
   <rect x="180" y="69.12" width="1116" height="443.52"/>
  </clipPath>
 </defs>
</svg>
