<?xml version="1.0" encoding="utf-8" standalone="no"?>
<!DOCTYPE svg PUBLIC "-//W3C//DTD SVG 1.1//EN"
  "http://www.w3.org/Graphics/SVG/1.1/DTD/svg11.dtd">
<svg xmlns:xlink="http://www.w3.org/1999/xlink" width="1440pt" height="576pt" viewBox="0 0 1440 576" xmlns="http://www.w3.org/2000/svg" version="1.1">
 <metadata>
  <rdf:RDF xmlns:dc="http://purl.org/dc/elements/1.1/" xmlns:cc="http://creativecommons.org/ns#" xmlns:rdf="http://www.w3.org/1999/02/22-rdf-syntax-ns#">
   <cc:Work>
    <dc:type rdf:resource="http://purl.org/dc/dcmitype/StillImage"/>
    <dc:date>2024-05-22T04:50:24.225110</dc:date>
    <dc:format>image/svg+xml</dc:format>
    <dc:creator>
     <cc:Agent>
      <dc:title>Matplotlib v3.8.3, https://matplotlib.org/</dc:title>
     </cc:Agent>
    </dc:creator>
   </cc:Work>
  </rdf:RDF>
 </metadata>
 <defs>
  <style type="text/css">*{stroke-linejoin: round; stroke-linecap: butt}</style>
 </defs>
 <g id="figure_1">
  <g id="patch_1">
   <path d="M 0 576 
L 1440 576 
L 1440 0 
L 0 0 
z
" style="fill: #ffffff"/>
  </g>
  <g id="axes_1">
   <g id="patch_2">
    <path d="M 180 512.64 
L 1296 512.64 
L 1296 69.12 
L 180 69.12 
z
" style="fill: #ffffff"/>
   </g>
   <g id="matplotlib.axis_1">
    <g id="xtick_1">
     <g id="line2d_1">
      <defs>
       <path id="m49c4ec2e93" d="M 0 0 
L 0 3.5 
" style="stroke: #000000; stroke-width: 0.8"/>
      </defs>
      <g>
       <use xlink:href="#m49c4ec2e93" x="229.734567" y="512.64" style="stroke: #000000; stroke-width: 0.8"/>
      </g>
     </g>
     <g id="text_1">
      <!-- 0 -->
      <g transform="translate(226.553317 527.238438) scale(0.1 -0.1)">
       <defs>
        <path id="DejaVuSans-30" d="M 2034 4250 
Q 1547 4250 1301 3770 
Q 1056 3291 1056 2328 
Q 1056 1369 1301 889 
Q 1547 409 2034 409 
Q 2525 409 2770 889 
Q 3016 1369 3016 2328 
Q 3016 3291 2770 3770 
Q 2525 4250 2034 4250 
z
M 2034 4750 
Q 2819 4750 3233 4129 
Q 3647 3509 3647 2328 
Q 3647 1150 3233 529 
Q 2819 -91 2034 -91 
Q 1250 -91 836 529 
Q 422 1150 422 2328 
Q 422 3509 836 4129 
Q 1250 4750 2034 4750 
z
" transform="scale(0.015625)"/>
       </defs>
       <use xlink:href="#DejaVuSans-30"/>
      </g>
     </g>
    </g>
    <g id="xtick_2">
     <g id="line2d_2">
      <g>
       <use xlink:href="#m49c4ec2e93" x="433.04074" y="512.64" style="stroke: #000000; stroke-width: 0.8"/>
      </g>
     </g>
     <g id="text_2">
      <!-- 500 -->
      <g transform="translate(423.49699 527.238438) scale(0.1 -0.1)">
       <defs>
        <path id="DejaVuSans-35" d="M 691 4666 
L 3169 4666 
L 3169 4134 
L 1269 4134 
L 1269 2991 
Q 1406 3038 1543 3061 
Q 1681 3084 1819 3084 
Q 2600 3084 3056 2656 
Q 3513 2228 3513 1497 
Q 3513 744 3044 326 
Q 2575 -91 1722 -91 
Q 1428 -91 1123 -41 
Q 819 9 494 109 
L 494 744 
Q 775 591 1075 516 
Q 1375 441 1709 441 
Q 2250 441 2565 725 
Q 2881 1009 2881 1497 
Q 2881 1984 2565 2268 
Q 2250 2553 1709 2553 
Q 1456 2553 1204 2497 
Q 953 2441 691 2322 
L 691 4666 
z
" transform="scale(0.015625)"/>
       </defs>
       <use xlink:href="#DejaVuSans-35"/>
       <use xlink:href="#DejaVuSans-30" x="63.623047"/>
       <use xlink:href="#DejaVuSans-30" x="127.246094"/>
      </g>
     </g>
    </g>
    <g id="xtick_3">
     <g id="line2d_3">
      <g>
       <use xlink:href="#m49c4ec2e93" x="636.346913" y="512.64" style="stroke: #000000; stroke-width: 0.8"/>
      </g>
     </g>
     <g id="text_3">
      <!-- 1000 -->
      <g transform="translate(623.621913 527.238438) scale(0.1 -0.1)">
       <defs>
        <path id="DejaVuSans-31" d="M 794 531 
L 1825 531 
L 1825 4091 
L 703 3866 
L 703 4441 
L 1819 4666 
L 2450 4666 
L 2450 531 
L 3481 531 
L 3481 0 
L 794 0 
L 794 531 
z
" transform="scale(0.015625)"/>
       </defs>
       <use xlink:href="#DejaVuSans-31"/>
       <use xlink:href="#DejaVuSans-30" x="63.623047"/>
       <use xlink:href="#DejaVuSans-30" x="127.246094"/>
       <use xlink:href="#DejaVuSans-30" x="190.869141"/>
      </g>
     </g>
    </g>
    <g id="xtick_4">
     <g id="line2d_4">
      <g>
       <use xlink:href="#m49c4ec2e93" x="839.653087" y="512.64" style="stroke: #000000; stroke-width: 0.8"/>
      </g>
     </g>
     <g id="text_4">
      <!-- 1500 -->
      <g transform="translate(826.928087 527.238438) scale(0.1 -0.1)">
       <use xlink:href="#DejaVuSans-31"/>
       <use xlink:href="#DejaVuSans-35" x="63.623047"/>
       <use xlink:href="#DejaVuSans-30" x="127.246094"/>
       <use xlink:href="#DejaVuSans-30" x="190.869141"/>
      </g>
     </g>
    </g>
    <g id="xtick_5">
     <g id="line2d_5">
      <g>
       <use xlink:href="#m49c4ec2e93" x="1042.95926" y="512.64" style="stroke: #000000; stroke-width: 0.8"/>
      </g>
     </g>
     <g id="text_5">
      <!-- 2000 -->
      <g transform="translate(1030.23426 527.238438) scale(0.1 -0.1)">
       <defs>
        <path id="DejaVuSans-32" d="M 1228 531 
L 3431 531 
L 3431 0 
L 469 0 
L 469 531 
Q 828 903 1448 1529 
Q 2069 2156 2228 2338 
Q 2531 2678 2651 2914 
Q 2772 3150 2772 3378 
Q 2772 3750 2511 3984 
Q 2250 4219 1831 4219 
Q 1534 4219 1204 4116 
Q 875 4013 500 3803 
L 500 4441 
Q 881 4594 1212 4672 
Q 1544 4750 1819 4750 
Q 2544 4750 2975 4387 
Q 3406 4025 3406 3419 
Q 3406 3131 3298 2873 
Q 3191 2616 2906 2266 
Q 2828 2175 2409 1742 
Q 1991 1309 1228 531 
z
" transform="scale(0.015625)"/>
       </defs>
       <use xlink:href="#DejaVuSans-32"/>
       <use xlink:href="#DejaVuSans-30" x="63.623047"/>
       <use xlink:href="#DejaVuSans-30" x="127.246094"/>
       <use xlink:href="#DejaVuSans-30" x="190.869141"/>
      </g>
     </g>
    </g>
    <g id="xtick_6">
     <g id="line2d_6">
      <g>
       <use xlink:href="#m49c4ec2e93" x="1246.265433" y="512.64" style="stroke: #000000; stroke-width: 0.8"/>
      </g>
     </g>
     <g id="text_6">
      <!-- 2500 -->
      <g transform="translate(1233.540433 527.238438) scale(0.1 -0.1)">
       <use xlink:href="#DejaVuSans-32"/>
       <use xlink:href="#DejaVuSans-35" x="63.623047"/>
       <use xlink:href="#DejaVuSans-30" x="127.246094"/>
       <use xlink:href="#DejaVuSans-30" x="190.869141"/>
      </g>
     </g>
    </g>
   </g>
   <g id="matplotlib.axis_2">
    <g id="ytick_1">
     <g id="line2d_7">
      <defs>
       <path id="m05d08d91eb" d="M 0 0 
L -3.5 0 
" style="stroke: #000000; stroke-width: 0.8"/>
      </defs>
      <g>
       <use xlink:href="#m05d08d91eb" x="180" y="492.030078" style="stroke: #000000; stroke-width: 0.8"/>
      </g>
     </g>
     <g id="text_7">
      <!-- −2 -->
      <g transform="translate(158.257812 495.829297) scale(0.1 -0.1)">
       <defs>
        <path id="DejaVuSans-2212" d="M 678 2272 
L 4684 2272 
L 4684 1741 
L 678 1741 
L 678 2272 
z
" transform="scale(0.015625)"/>
       </defs>
       <use xlink:href="#DejaVuSans-2212"/>
       <use xlink:href="#DejaVuSans-32" x="83.789062"/>
      </g>
     </g>
    </g>
    <g id="ytick_2">
     <g id="line2d_8">
      <g>
       <use xlink:href="#m05d08d91eb" x="180" y="423.409949" style="stroke: #000000; stroke-width: 0.8"/>
      </g>
     </g>
     <g id="text_8">
      <!-- −1 -->
      <g transform="translate(158.257812 427.209167) scale(0.1 -0.1)">
       <use xlink:href="#DejaVuSans-2212"/>
       <use xlink:href="#DejaVuSans-31" x="83.789062"/>
      </g>
     </g>
    </g>
    <g id="ytick_3">
     <g id="line2d_9">
      <g>
       <use xlink:href="#m05d08d91eb" x="180" y="354.789819" style="stroke: #000000; stroke-width: 0.8"/>
      </g>
     </g>
     <g id="text_9">
      <!-- 0 -->
      <g transform="translate(166.6375 358.589038) scale(0.1 -0.1)">
       <use xlink:href="#DejaVuSans-30"/>
      </g>
     </g>
    </g>
    <g id="ytick_4">
     <g id="line2d_10">
      <g>
       <use xlink:href="#m05d08d91eb" x="180" y="286.169689" style="stroke: #000000; stroke-width: 0.8"/>
      </g>
     </g>
     <g id="text_10">
      <!-- 1 -->
      <g transform="translate(166.6375 289.968908) scale(0.1 -0.1)">
       <use xlink:href="#DejaVuSans-31"/>
      </g>
     </g>
    </g>
    <g id="ytick_5">
     <g id="line2d_11">
      <g>
       <use xlink:href="#m05d08d91eb" x="180" y="217.54956" style="stroke: #000000; stroke-width: 0.8"/>
      </g>
     </g>
     <g id="text_11">
      <!-- 2 -->
      <g transform="translate(166.6375 221.348779) scale(0.1 -0.1)">
       <use xlink:href="#DejaVuSans-32"/>
      </g>
     </g>
    </g>
    <g id="ytick_6">
     <g id="line2d_12">
      <g>
       <use xlink:href="#m05d08d91eb" x="180" y="148.92943" style="stroke: #000000; stroke-width: 0.8"/>
      </g>
     </g>
     <g id="text_12">
      <!-- 3 -->
      <g transform="translate(166.6375 152.728649) scale(0.1 -0.1)">
       <defs>
        <path id="DejaVuSans-33" d="M 2597 2516 
Q 3050 2419 3304 2112 
Q 3559 1806 3559 1356 
Q 3559 666 3084 287 
Q 2609 -91 1734 -91 
Q 1441 -91 1130 -33 
Q 819 25 488 141 
L 488 750 
Q 750 597 1062 519 
Q 1375 441 1716 441 
Q 2309 441 2620 675 
Q 2931 909 2931 1356 
Q 2931 1769 2642 2001 
Q 2353 2234 1838 2234 
L 1294 2234 
L 1294 2753 
L 1863 2753 
Q 2328 2753 2575 2939 
Q 2822 3125 2822 3475 
Q 2822 3834 2567 4026 
Q 2313 4219 1838 4219 
Q 1578 4219 1281 4162 
Q 984 4106 628 3988 
L 628 4550 
Q 988 4650 1302 4700 
Q 1616 4750 1894 4750 
Q 2613 4750 3031 4423 
Q 3450 4097 3450 3541 
Q 3450 3153 3228 2886 
Q 3006 2619 2597 2516 
z
" transform="scale(0.015625)"/>
       </defs>
       <use xlink:href="#DejaVuSans-33"/>
      </g>
     </g>
    </g>
    <g id="ytick_7">
     <g id="line2d_13">
      <g>
       <use xlink:href="#m05d08d91eb" x="180" y="80.309301" style="stroke: #000000; stroke-width: 0.8"/>
      </g>
     </g>
     <g id="text_13">
      <!-- 4 -->
      <g transform="translate(166.6375 84.10852) scale(0.1 -0.1)">
       <defs>
        <path id="DejaVuSans-34" d="M 2419 4116 
L 825 1625 
L 2419 1625 
L 2419 4116 
z
M 2253 4666 
L 3047 4666 
L 3047 1625 
L 3713 1625 
L 3713 1100 
L 3047 1100 
L 3047 0 
L 2419 0 
L 2419 1100 
L 313 1100 
L 313 1709 
L 2253 4666 
z
" transform="scale(0.015625)"/>
       </defs>
       <use xlink:href="#DejaVuSans-34"/>
      </g>
     </g>
    </g>
   </g>
   <g id="line2d_14">
    <path d="M 230.727273 339.85599 
L 233.70539 339.268782 
L 235.690802 338.739321 
L 236.683508 338.395411 
L 239.661626 337.056483 
L 240.654332 336.64323 
L 241.647038 336.105325 
L 244.625156 335.188994 
L 245.617862 336.256267 
L 246.610568 341.09332 
L 247.603273 349.040053 
L 248.595979 335.181896 
L 249.588685 305.75525 
L 250.581391 285.945726 
L 251.574097 289.397921 
L 252.566803 330.174479 
L 253.559509 401.823616 
L 254.552215 306.951927 
L 255.544921 298.932465 
L 256.537627 339.490386 
L 258.523039 253.578555 
L 259.515745 254.486378 
L 260.50845 286.34634 
L 261.501156 288.502201 
L 262.493862 257.911285 
L 263.486568 259.680694 
L 264.479274 257.840787 
L 265.47198 241.073262 
L 266.464686 244.446958 
L 267.457392 274.300335 
L 268.450098 273.505171 
L 269.442804 283.420481 
L 270.43551 354.998696 
L 271.428216 234.825803 
L 272.420922 212.136366 
L 273.413627 236.521737 
L 274.406333 236.922066 
L 275.399039 183.904715 
L 276.391745 169.812761 
L 277.384451 180.922435 
L 278.377157 181.31001 
L 279.369863 160.301115 
L 280.362569 156.960675 
L 281.355275 170.501394 
L 282.347981 142.161043 
L 283.340687 105.340311 
L 284.333393 89.28 
L 285.326099 94.212532 
L 286.318804 126.154857 
L 287.31151 241.031004 
L 288.304216 163.074227 
L 289.296922 135.257572 
L 290.289628 151.488281 
L 291.282334 212.335599 
L 292.27504 204.661996 
L 293.267746 183.742604 
L 294.260452 209.262904 
L 295.253158 254.504711 
L 296.245864 234.1763 
L 297.23857 252.596764 
L 298.231276 403.789158 
L 299.223981 262.476484 
L 300.216687 251.061234 
L 301.209393 272.692842 
L 302.202099 264.879618 
L 303.194805 260.430967 
L 304.187511 280.121907 
L 305.180217 289.797793 
L 306.172923 282.309786 
L 307.165629 298.064202 
L 308.158335 311.065591 
L 309.151041 300.526814 
L 310.143747 297.475603 
L 311.136453 303.199585 
L 312.129159 304.076307 
L 313.121864 307.867333 
L 314.11457 309.70988 
L 315.107276 308.252696 
L 316.099982 313.160343 
L 317.092688 314.20645 
L 318.085394 316.235495 
L 319.0781 317.563294 
L 320.070806 320.915855 
L 321.063512 322.94264 
L 322.056218 321.447507 
L 323.048924 324.449629 
L 324.04163 326.783103 
L 325.034336 329.684232 
L 326.027041 329.386281 
L 327.019747 332.34414 
L 328.012453 333.945699 
L 329.997865 332.097059 
L 330.990571 337.780045 
L 331.983277 337.923484 
L 332.975983 338.811445 
L 333.968689 338.957595 
L 334.961395 340.84782 
L 335.954101 343.407183 
L 336.946807 342.719665 
L 337.939513 346.093539 
L 338.932218 344.244933 
L 339.924924 345.943202 
L 340.91763 348.293234 
L 341.910336 351.56729 
L 342.903042 348.716509 
L 343.895748 352.006728 
L 344.888454 353.938597 
L 345.88116 355.447891 
L 346.873866 352.090481 
L 347.866572 357.555808 
L 348.859278 354.38582 
L 349.851984 357.108855 
L 350.84469 358.496185 
L 352.830101 359.129224 
L 353.822807 357.590342 
L 354.815513 362.96275 
L 355.808219 364.488555 
L 356.800925 360.517766 
L 357.793631 365.996852 
L 358.786337 362.546371 
L 359.779043 366.293192 
L 360.771749 363.583732 
L 361.764455 368.918246 
L 362.757161 365.80753 
L 364.742572 366.065496 
L 365.735278 378.900306 
L 366.727984 370.853124 
L 367.72069 371.347853 
L 368.713396 372.684951 
L 369.706102 364.85417 
L 370.698808 370.59384 
L 371.691514 372.351328 
L 372.68422 371.655527 
L 373.676926 370.461422 
L 374.669632 376.152085 
L 375.662338 375.297744 
L 376.655044 375.689847 
L 377.64775 378.294627 
L 378.640455 376.421304 
L 379.633161 374.191461 
L 380.625867 377.206639 
L 381.618573 392.287317 
L 382.611279 374.806368 
L 383.603985 385.708472 
L 384.596691 383.254738 
L 385.589397 388.664344 
L 386.582103 382.71221 
L 387.574809 387.936564 
L 388.567515 384.568546 
L 389.560221 384.673237 
L 390.552927 390.558869 
L 391.545632 382.271651 
L 392.538338 385.835986 
L 393.531044 384.464457 
L 394.52375 383.964218 
L 395.516456 390.114927 
L 397.501868 386.761233 
L 398.494574 388.063005 
L 399.48728 387.152613 
L 400.479986 384.625466 
L 401.472692 394.604675 
L 402.465398 388.827526 
L 403.458104 389.041115 
L 404.450809 391.399462 
L 405.443515 395.86763 
L 406.436221 392.922195 
L 407.428927 395.18659 
L 408.421633 399.537645 
L 409.414339 389.49786 
L 410.407045 397.275176 
L 411.399751 393.125773 
L 412.392457 399.219081 
L 413.385163 394.322478 
L 414.377869 398.59782 
L 415.370575 395.064041 
L 416.363281 395.701079 
L 417.355986 400.303079 
L 418.348692 395.191884 
L 419.341398 386.918267 
L 420.334104 399.667129 
L 421.32681 404.525008 
L 422.319516 401.072606 
L 423.312222 399.220504 
L 425.297634 399.294443 
L 426.29034 402.951084 
L 427.283046 402.813806 
L 429.268458 404.106745 
L 430.261163 407.419991 
L 431.253869 406.809667 
L 432.246575 408.720724 
L 433.239281 404.318436 
L 434.231987 407.729881 
L 435.224693 405.549137 
L 436.217399 405.638117 
L 437.210105 409.832558 
L 438.202811 409.911485 
L 439.195517 409.286706 
L 440.188223 409.438666 
L 441.180929 399.982902 
L 442.173635 412.525105 
L 443.166341 404.582398 
L 444.159046 417.91233 
L 445.151752 406.574191 
L 447.137164 414.507604 
L 448.12987 415.360598 
L 449.122576 411.012668 
L 450.115282 415.290911 
L 451.107988 409.540399 
L 452.100694 414.650554 
L 453.0934 408.307547 
L 454.086106 415.839323 
L 455.078812 412.067081 
L 456.071518 414.854367 
L 457.064223 408.709175 
L 459.049635 421.57846 
L 460.042341 410.79936 
L 461.035047 422.917528 
L 462.027753 414.305867 
L 463.020459 419.007751 
L 464.013165 414.547814 
L 465.005871 415.790419 
L 465.998577 411.853772 
L 466.991283 411.757481 
L 467.983989 417.641065 
L 468.976695 412.509536 
L 469.9694 417.624073 
L 470.962106 426.256043 
L 471.954812 419.456863 
L 472.947518 423.473107 
L 473.940224 416.883679 
L 474.93293 423.45488 
L 475.925636 414.925937 
L 476.918342 421.092303 
L 477.911048 421.049542 
L 478.903754 422.103823 
L 479.89646 423.668383 
L 480.889166 421.984319 
L 481.881872 426.151566 
L 482.874577 420.754387 
L 483.867283 426.698826 
L 484.859989 417.586782 
L 485.852695 424.006087 
L 486.845401 424.866834 
L 487.838107 421.246903 
L 488.830813 420.915574 
L 489.823519 412.522219 
L 490.816225 429.978087 
L 491.808931 421.292646 
L 492.801637 417.607189 
L 493.794343 427.21978 
L 494.787049 442.214337 
L 495.779754 423.999693 
L 496.77246 421.835428 
L 497.765166 424.776478 
L 498.757872 425.000243 
L 499.750578 432.917234 
L 500.743284 420.979024 
L 501.73599 433.344032 
L 502.728696 417.547164 
L 503.721402 435.462001 
L 504.714108 433.691324 
L 505.706814 435.393074 
L 506.69952 412.249021 
L 507.692226 440.829664 
L 508.684932 431.321942 
L 509.677637 419.187392 
L 510.670343 425.106332 
L 511.663049 417.563448 
L 512.655755 466.377001 
L 513.648461 402.078617 
L 514.641167 446.303404 
L 515.633873 432.054259 
L 516.626579 425.373786 
L 517.619285 429.972472 
L 518.611991 438.112056 
L 519.604697 407.256395 
L 520.597403 432.325012 
L 521.590109 428.751382 
L 522.582814 437.0808 
L 523.57552 432.816757 
L 524.568226 430.981551 
L 525.560932 450.056324 
L 526.553638 423.883213 
L 527.546344 442.220686 
L 528.53905 432.494411 
L 529.531756 425.870897 
L 530.524462 407.381553 
L 531.517168 476.775782 
L 532.509874 428.226444 
L 533.50258 425.348804 
L 535.487991 456.401194 
L 536.480697 442.445364 
L 537.473403 410.654524 
L 538.466109 432.468614 
L 539.458815 423.508929 
L 540.451521 417.61697 
L 541.444227 484.389398 
L 542.436933 436.328129 
L 543.429639 419.569741 
L 544.422345 447.111761 
L 545.415051 443.140425 
L 546.407757 427.872027 
L 547.400463 441.214574 
L 548.393168 445.64978 
L 550.37858 435.995047 
L 551.371286 436.574496 
L 552.363992 443.033336 
L 553.356698 426.032806 
L 554.349404 450.310571 
L 555.34211 446.128023 
L 556.334816 427.526131 
L 557.327522 426.721297 
L 558.320228 455.371168 
L 559.312934 433.070659 
L 560.30564 438.262134 
L 561.298345 429.1804 
L 562.291051 451.157589 
L 563.283757 421.511986 
L 564.276463 429.746404 
L 565.269169 489.608101 
L 566.261875 428.356884 
L 567.254581 443.668315 
L 568.247287 445.754971 
L 569.239993 443.587507 
L 570.232699 431.212209 
L 571.225405 449.419106 
L 572.218111 435.776337 
L 573.210817 441.509151 
L 574.203523 439.25204 
L 575.196228 439.368526 
L 576.188934 449.09511 
L 577.18164 440.960666 
L 578.174346 454.255645 
L 579.167052 441.99049 
L 580.159758 447.240623 
L 581.152464 443.961592 
L 582.14517 457.763646 
L 583.137876 433.659804 
L 584.130582 453.364744 
L 585.123288 441.118342 
L 586.115994 455.090964 
L 588.101405 436.527575 
L 589.094111 451.436423 
L 590.086817 440.561421 
L 591.079523 442.192437 
L 592.072229 454.014131 
L 593.064935 446.944307 
L 594.057641 437.018362 
L 595.050347 457.863326 
L 596.043053 442.821819 
L 597.035759 448.418933 
L 598.028465 456.279877 
L 599.021171 449.968179 
L 600.013877 450.052227 
L 601.006582 450.804761 
L 601.999288 455.955347 
L 602.991994 454.12945 
L 603.9847 445.164111 
L 604.977406 447.29508 
L 605.970112 455.993386 
L 606.962818 444.743213 
L 607.955524 452.644306 
L 608.94823 450.91722 
L 609.940936 449.919778 
L 610.933642 449.992999 
L 611.926348 451.321224 
L 612.919054 450.804771 
L 613.911759 445.131138 
L 615.897171 453.013411 
L 616.889877 450.504855 
L 617.882583 453.362668 
L 618.875289 451.607067 
L 619.867995 444.710337 
L 620.860701 450.589602 
L 621.853407 455.293117 
L 622.846113 456.095036 
L 623.838819 452.841078 
L 624.831525 453.374005 
L 625.824231 455.422832 
L 626.816936 455.041847 
L 627.809642 449.798304 
L 628.802348 452.163289 
L 629.795054 453.063376 
L 630.78776 451.823824 
L 631.780466 448.885616 
L 632.773172 459.811763 
L 633.765878 451.634906 
L 634.758584 454.135256 
L 635.75129 451.87096 
L 636.743996 455.665756 
L 637.736702 458.373161 
L 638.729408 450.971375 
L 639.722114 452.934096 
L 640.714819 457.230739 
L 641.707525 454.09663 
L 642.700231 457.719169 
L 643.692937 454.123015 
L 644.685643 456.464611 
L 645.678349 454.165919 
L 646.671055 456.210272 
L 647.663761 455.553312 
L 648.656467 456.054792 
L 649.649173 452.505698 
L 650.641879 459.920788 
L 651.634585 455.659169 
L 652.627291 455.969579 
L 653.619996 456.154141 
L 654.612702 457.350728 
L 655.605408 455.87334 
L 656.598114 453.812155 
L 657.59082 458.328216 
L 658.583526 455.994381 
L 660.568938 459.19936 
L 661.561644 457.937042 
L 662.55435 456.270034 
L 663.547056 456.567226 
L 664.539762 458.693317 
L 665.532468 455.980855 
L 666.525173 459.780698 
L 667.517879 457.292895 
L 668.510585 459.255738 
L 669.503291 459.313509 
L 670.495997 460.769341 
L 671.488703 460.012788 
L 672.481409 458.786421 
L 673.474115 459.118297 
L 674.466821 458.177442 
L 675.459527 460.90322 
L 676.452233 459.86392 
L 677.444939 459.973738 
L 678.437645 459.799678 
L 679.43035 460.052003 
L 680.423056 459.462163 
L 681.415762 460.892143 
L 682.408468 460.450679 
L 683.401174 461.038689 
L 684.39388 461.385743 
L 685.386586 459.525173 
L 686.379292 460.827126 
L 687.371998 461.335526 
L 688.364704 461.183837 
L 689.35741 461.321729 
L 690.350116 461.673939 
L 691.342822 462.420423 
L 692.335527 461.750114 
L 693.328233 461.882514 
L 694.320939 462.313553 
L 695.313645 462.404235 
L 696.306351 461.848474 
L 697.299057 463.111181 
L 698.291763 462.396667 
L 699.284469 462.254412 
L 700.277175 461.844402 
L 701.269881 463.350306 
L 702.262587 464.305587 
L 703.255293 463.171233 
L 704.247999 464.630982 
L 705.240705 463.356418 
L 706.23341 463.684217 
L 707.226116 463.582607 
L 708.218822 464.800053 
L 709.211528 464.163376 
L 712.189646 464.651293 
L 713.182352 464.155787 
L 714.175058 464.986723 
L 716.16047 465.215575 
L 717.153176 464.500533 
L 718.145882 465.589625 
L 719.138587 465.258951 
L 720.131293 465.885143 
L 721.123999 465.97887 
L 722.116705 466.556284 
L 723.109411 465.677503 
L 724.102117 465.82291 
L 725.094823 466.744507 
L 726.087529 466.88812 
L 727.080235 466.173613 
L 728.072941 466.513884 
L 730.058353 466.453907 
L 731.051059 467.148821 
L 732.043764 466.810776 
L 733.03647 466.831749 
L 734.029176 466.627148 
L 735.021882 467.313668 
L 736.014588 467.250925 
L 738 466.827662 
L 738.992706 467.742655 
L 739.985412 467.425203 
L 741.970824 468.212841 
L 742.96353 467.665945 
L 743.956236 467.809656 
L 744.948941 468.930287 
L 745.941647 468.317113 
L 747.927059 468.648947 
L 748.919765 468.420145 
L 749.912471 469.043616 
L 750.905177 468.59988 
L 751.897883 468.874946 
L 752.890589 469.37058 
L 753.883295 468.919996 
L 754.876001 469.426429 
L 755.868707 469.685444 
L 756.861413 469.068063 
L 757.854118 469.313187 
L 758.846824 469.335475 
L 759.83953 469.863064 
L 760.832236 469.562347 
L 762.817648 470.450356 
L 763.810354 470.27366 
L 764.80306 469.839859 
L 765.795766 470.849387 
L 766.788472 470.453845 
L 768.773884 471.038456 
L 769.76659 470.76644 
L 770.759295 470.733059 
L 771.752001 471.201276 
L 772.744707 471.058083 
L 773.737413 471.713133 
L 774.730119 470.841898 
L 775.722825 471.274462 
L 776.715531 471.361379 
L 777.708237 471.65555 
L 778.700943 471.731242 
L 779.693649 472.2108 
L 780.686355 471.460463 
L 781.679061 472.442486 
L 782.671767 471.632627 
L 783.664473 471.806854 
L 786.64259 472.744681 
L 787.635296 472.561694 
L 788.628002 472.620523 
L 789.620708 473.205253 
L 790.613414 472.372479 
L 791.60612 472.788962 
L 792.598826 472.378195 
L 793.591532 473.227858 
L 794.584238 472.921769 
L 796.56965 474.156267 
L 797.562355 473.359949 
L 798.555061 473.485067 
L 799.547767 473.438934 
L 800.540473 473.744618 
L 801.533179 473.843531 
L 802.525885 474.201397 
L 803.518591 474.300056 
L 804.511297 473.865617 
L 806.496709 474.362662 
L 807.489415 474.170283 
L 808.482121 473.740478 
L 809.474827 474.123051 
L 810.467532 474.381022 
L 811.460238 473.911854 
L 812.452944 475.149732 
L 813.44565 474.853855 
L 814.438356 475.289022 
L 815.431062 474.878063 
L 817.416474 475.383388 
L 818.40918 474.951149 
L 819.401886 475.026423 
L 820.394592 474.794003 
L 821.387298 474.946027 
L 822.380004 475.326765 
L 823.372709 475.573188 
L 824.365415 475.636608 
L 825.358121 475.859067 
L 826.350827 475.647609 
L 827.343533 475.914194 
L 828.336239 476.033208 
L 829.328945 476.418536 
L 830.321651 475.970023 
L 831.314357 475.933177 
L 832.307063 476.048559 
L 833.299769 475.90479 
L 834.292475 476.786829 
L 835.285181 476.884672 
L 836.277886 476.818553 
L 837.270592 476.614591 
L 838.263298 476.843921 
L 839.256004 477.251053 
L 840.24871 477.487813 
L 841.241416 477.279551 
L 843.226828 477.295593 
L 844.219534 477.186132 
L 845.21224 477.780851 
L 847.197652 477.208235 
L 848.190358 477.357068 
L 849.183064 477.641831 
L 850.175769 478.147255 
L 851.168475 477.77114 
L 852.161181 477.698688 
L 853.153887 478.839434 
L 854.146593 478.132164 
L 856.132005 477.522217 
L 858.117417 478.481004 
L 859.110123 478.177152 
L 860.102829 478.798644 
L 861.095535 478.534428 
L 862.088241 478.747026 
L 863.080946 478.192855 
L 864.073652 479.272525 
L 865.066358 478.540507 
L 866.059064 478.907717 
L 867.05177 478.592355 
L 868.044476 478.944752 
L 869.037182 478.417322 
L 870.029888 479.812375 
L 871.022594 479.57213 
L 872.0153 479.191436 
L 874.000712 479.432379 
L 874.993418 479.302619 
L 875.986123 479.81521 
L 876.978829 480.097813 
L 877.971535 479.950736 
L 878.964241 479.649262 
L 879.956947 479.750836 
L 880.949653 480.164382 
L 881.942359 479.819536 
L 882.935065 480.237446 
L 883.927771 480.010297 
L 885.913183 480.641469 
L 886.905889 479.971916 
L 887.898595 480.184745 
L 888.8913 480.703584 
L 890.876712 480.581732 
L 891.869418 480.668009 
L 892.862124 480.28262 
L 893.85483 480.71861 
L 895.840242 480.967122 
L 896.832948 480.521352 
L 897.825654 481.212623 
L 898.81836 481.293883 
L 899.811066 481.255765 
L 901.796477 481.427409 
L 902.789183 481.699092 
L 903.781889 481.420201 
L 904.774595 481.504995 
L 905.767301 481.103181 
L 907.752713 482.417609 
L 908.745419 481.910948 
L 910.730831 481.958773 
L 911.723537 482.631477 
L 912.716243 481.747708 
L 913.708949 482.29803 
L 914.701655 482.295747 
L 915.69436 482.668214 
L 916.687066 482.683716 
L 917.679772 482.017584 
L 918.672478 482.40222 
L 919.665184 481.583062 
L 920.65789 482.827748 
L 921.650596 482.936349 
L 922.643302 482.614479 
L 924.628714 483.003757 
L 925.62142 482.534572 
L 926.614126 483.344434 
L 927.606832 483.154865 
L 928.599537 482.753083 
L 929.592243 483.177581 
L 930.584949 482.901812 
L 931.577655 483.372583 
L 932.570361 483.254632 
L 933.563067 483.332973 
L 934.555773 483.534327 
L 935.548479 483.078913 
L 936.541185 483.905955 
L 937.533891 483.593812 
L 938.526597 483.560756 
L 939.519303 482.929209 
L 940.512009 483.373996 
L 941.504714 484.312267 
L 942.49742 483.451416 
L 943.490126 483.392675 
L 945.475538 483.89576 
L 946.468244 483.936432 
L 947.46095 483.576095 
L 948.453656 484.202804 
L 949.446362 483.647118 
L 951.431774 484.44361 
L 952.42448 483.886457 
L 953.417186 484.371346 
L 954.409891 485.017267 
L 955.402597 484.639795 
L 956.395303 484.79196 
L 958.380715 484.427062 
L 959.373421 484.164032 
L 960.366127 484.617702 
L 961.358833 485.642243 
L 962.351539 485.394765 
L 963.344245 483.916561 
L 964.336951 484.821055 
L 965.329657 484.405283 
L 966.322363 485.161752 
L 967.315068 484.939831 
L 968.307774 485.495471 
L 969.30048 484.831514 
L 970.293186 485.400886 
L 972.278598 485.463865 
L 973.271304 485.320149 
L 974.26401 485.79344 
L 976.249422 485.719626 
L 977.242128 485.394096 
L 978.234834 485.606076 
L 979.22754 486.054453 
L 982.205657 485.670778 
L 984.191069 485.889193 
L 985.183775 486.089124 
L 986.176481 485.934221 
L 987.169187 486.491952 
L 988.161893 486.531957 
L 989.154599 486.733948 
L 990.147305 485.914806 
L 991.140011 485.999279 
L 992.132717 486.36785 
L 993.125423 485.80152 
L 994.118128 485.812973 
L 995.110834 486.635857 
L 996.10354 485.927908 
L 997.096246 485.814231 
L 998.088952 486.075189 
L 999.081658 486.048657 
L 1000.074364 487.387291 
L 1001.06707 486.939813 
L 1002.059776 487.031941 
L 1003.052482 486.683542 
L 1004.045188 486.964233 
L 1006.0306 486.988239 
L 1009.008717 486.542814 
L 1010.001423 486.721866 
L 1010.994129 487.625071 
L 1011.986835 487.125193 
L 1012.979541 487.130245 
L 1013.972247 487.401437 
L 1014.964953 487.910168 
L 1015.957659 486.897159 
L 1016.950365 486.993796 
L 1017.943071 487.614008 
L 1018.935777 487.252908 
L 1019.928482 487.417428 
L 1020.921188 488.54092 
L 1021.913894 487.289997 
L 1022.9066 486.825529 
L 1023.899306 487.487636 
L 1024.892012 487.769199 
L 1025.884718 487.88421 
L 1026.877424 487.354474 
L 1027.87013 488.022993 
L 1029.855542 487.276912 
L 1030.848248 487.73418 
L 1031.840954 487.296049 
L 1032.833659 487.501595 
L 1033.826365 488.018128 
L 1036.804483 488.353554 
L 1037.797189 487.793851 
L 1038.789895 488.177244 
L 1039.782601 488.260748 
L 1040.775307 488.142938 
L 1042.760719 487.763885 
L 1043.753425 488.058127 
L 1044.746131 488.605881 
L 1045.738837 487.880062 
L 1046.731542 489.013142 
L 1047.724248 488.685137 
L 1048.716954 488.190923 
L 1049.70966 489.221268 
L 1050.702366 488.417027 
L 1051.695072 488.716119 
L 1052.687778 488.630065 
L 1053.680484 489.388738 
L 1054.67319 488.339145 
L 1055.665896 488.399171 
L 1056.658602 488.830422 
L 1058.644014 488.654592 
L 1060.629425 488.583433 
L 1061.622131 489.131059 
L 1062.614837 488.658045 
L 1063.607543 488.97855 
L 1064.600249 488.9415 
L 1066.585661 489.967983 
L 1068.571073 489.024191 
L 1069.563779 489.364892 
L 1070.556485 490.266082 
L 1071.549191 489.024539 
L 1072.541896 489.2337 
L 1073.534602 489.556831 
L 1074.527308 489.759098 
L 1076.51272 489.226142 
L 1078.498132 490.057989 
L 1080.483544 489.633549 
L 1081.47625 489.80851 
L 1083.461662 489.779848 
L 1084.454368 489.080188 
L 1085.447073 488.941471 
L 1086.439779 490.061733 
L 1088.425191 489.505608 
L 1089.417897 489.461565 
L 1090.410603 490.073434 
L 1091.403309 489.579679 
L 1093.388721 490.00562 
L 1094.381427 489.697427 
L 1095.374133 489.588177 
L 1096.366839 489.660269 
L 1097.359545 490.613555 
L 1098.35225 489.843685 
L 1100.337662 490.532984 
L 1101.330368 489.800604 
L 1102.323074 489.991928 
L 1103.31578 490.501866 
L 1104.308486 489.892968 
L 1105.301192 490.280201 
L 1106.293898 490.367968 
L 1107.286604 490.613869 
L 1108.27931 490.119152 
L 1109.272016 490.357663 
L 1110.264722 490.195746 
L 1111.257428 490.303219 
L 1112.250133 489.729652 
L 1113.242839 490.002146 
L 1114.235545 489.987 
L 1115.228251 490.630136 
L 1116.220957 489.919953 
L 1117.213663 489.758426 
L 1120.191781 490.348902 
L 1122.177193 490.427535 
L 1124.162605 490.96093 
L 1125.15531 491.635804 
L 1126.148016 490.023673 
L 1127.140722 490.556046 
L 1128.133428 490.393323 
L 1129.126134 491.114178 
L 1130.11884 490.129338 
L 1131.111546 491.476745 
L 1132.104252 490.809209 
L 1133.096958 491.108335 
L 1134.089664 490.963531 
L 1135.08237 491.679302 
L 1136.075076 491.187233 
L 1137.067782 490.202049 
L 1138.060487 490.438217 
L 1139.053193 490.94232 
L 1140.045899 490.768776 
L 1141.038605 490.790867 
L 1142.031311 491.211107 
L 1143.024017 490.43337 
L 1146.002135 491.716033 
L 1146.994841 491.218549 
L 1147.987547 490.944135 
L 1148.980253 491.167129 
L 1149.972959 490.623969 
L 1150.965664 491.484329 
L 1151.95837 491.150354 
L 1152.951076 490.546212 
L 1153.943782 491.076106 
L 1154.936488 491.263919 
L 1155.929194 491.571786 
L 1156.9219 490.898177 
L 1157.914606 491.023252 
L 1160.892724 490.70176 
L 1161.88543 491.669975 
L 1162.878136 490.999373 
L 1164.863547 492.060454 
L 1165.856253 491.672126 
L 1166.848959 491.550806 
L 1167.841665 491.61675 
L 1168.834371 491.450157 
L 1170.819783 490.768881 
L 1171.812489 491.224143 
L 1172.805195 490.772891 
L 1173.797901 491.335948 
L 1174.790607 491.51721 
L 1175.783313 490.903635 
L 1176.776019 491.27876 
L 1177.768724 492.209243 
L 1178.76143 491.678927 
L 1179.754136 491.294659 
L 1180.746842 491.744218 
L 1181.739548 491.303199 
L 1182.732254 491.024938 
L 1183.72496 491.116467 
L 1184.717666 490.88133 
L 1185.710372 491.192702 
L 1186.703078 492.028221 
L 1187.695784 491.713078 
L 1188.68849 491.062426 
L 1189.681196 491.41009 
L 1190.673901 492.033239 
L 1191.666607 491.788016 
L 1192.659313 491.210735 
L 1193.652019 491.374694 
L 1194.644725 491.683005 
L 1197.622843 491.32507 
L 1198.615549 491.609003 
L 1199.608255 491.637571 
L 1201.593667 491.194376 
L 1202.586373 491.270189 
L 1203.579078 491.540933 
L 1204.571784 491.218306 
L 1205.56449 491.834323 
L 1206.557196 491.742488 
L 1207.549902 491.209437 
L 1208.542608 491.984937 
L 1209.535314 491.861023 
L 1210.52802 492.184039 
L 1211.520726 491.458253 
L 1213.506138 492.129692 
L 1214.498844 492.014715 
L 1215.49155 492.222799 
L 1216.484255 491.787112 
L 1217.476961 492.076597 
L 1218.469667 491.798197 
L 1219.462373 491.371404 
L 1220.455079 491.644234 
L 1221.447785 492.066416 
L 1222.440491 491.848516 
L 1224.425903 491.804444 
L 1225.418609 491.919538 
L 1226.411315 491.34323 
L 1227.404021 491.376684 
L 1228.396727 491.672848 
L 1229.389432 492.130452 
L 1230.382138 491.804406 
L 1231.374844 491.820176 
L 1232.36755 491.126255 
L 1233.360256 491.605845 
L 1235.345668 491.932323 
L 1237.33108 491.775262 
L 1238.323786 491.783609 
L 1239.316492 491.646905 
L 1240.309198 491.212706 
L 1243.287315 491.897447 
L 1244.280021 492.48 
L 1245.272727 491.83289 
L 1245.272727 491.83289 
" clip-path="url(#p6bb2bd1b5d)" style="fill: none; stroke: #1f77b4; stroke-width: 1.5; stroke-linecap: square"/>
   </g>
   <g id="patch_3">
    <path d="M 180 512.64 
L 180 69.12 
" style="fill: none; stroke: #000000; stroke-width: 0.8; stroke-linejoin: miter; stroke-linecap: square"/>
   </g>
   <g id="patch_4">
    <path d="M 1296 512.64 
L 1296 69.12 
" style="fill: none; stroke: #000000; stroke-width: 0.8; stroke-linejoin: miter; stroke-linecap: square"/>
   </g>
   <g id="patch_5">
    <path d="M 180 512.64 
L 1296 512.64 
" style="fill: none; stroke: #000000; stroke-width: 0.8; stroke-linejoin: miter; stroke-linecap: square"/>
   </g>
   <g id="patch_6">
    <path d="M 180 69.12 
L 1296 69.12 
" style="fill: none; stroke: #000000; stroke-width: 0.8; stroke-linejoin: miter; stroke-linecap: square"/>
   </g>
   <g id="text_14">
    <!-- source23-receiver12 -->
    <g transform="translate(532.175 60.80125) scale(0.4 -0.4)">
     <defs>
      <path id="DejaVuSans-73" d="M 2834 3397 
L 2834 2853 
Q 2591 2978 2328 3040 
Q 2066 3103 1784 3103 
Q 1356 3103 1142 2972 
Q 928 2841 928 2578 
Q 928 2378 1081 2264 
Q 1234 2150 1697 2047 
L 1894 2003 
Q 2506 1872 2764 1633 
Q 3022 1394 3022 966 
Q 3022 478 2636 193 
Q 2250 -91 1575 -91 
Q 1294 -91 989 -36 
Q 684 19 347 128 
L 347 722 
Q 666 556 975 473 
Q 1284 391 1588 391 
Q 1994 391 2212 530 
Q 2431 669 2431 922 
Q 2431 1156 2273 1281 
Q 2116 1406 1581 1522 
L 1381 1569 
Q 847 1681 609 1914 
Q 372 2147 372 2553 
Q 372 3047 722 3315 
Q 1072 3584 1716 3584 
Q 2034 3584 2315 3537 
Q 2597 3491 2834 3397 
z
" transform="scale(0.015625)"/>
      <path id="DejaVuSans-6f" d="M 1959 3097 
Q 1497 3097 1228 2736 
Q 959 2375 959 1747 
Q 959 1119 1226 758 
Q 1494 397 1959 397 
Q 2419 397 2687 759 
Q 2956 1122 2956 1747 
Q 2956 2369 2687 2733 
Q 2419 3097 1959 3097 
z
M 1959 3584 
Q 2709 3584 3137 3096 
Q 3566 2609 3566 1747 
Q 3566 888 3137 398 
Q 2709 -91 1959 -91 
Q 1206 -91 779 398 
Q 353 888 353 1747 
Q 353 2609 779 3096 
Q 1206 3584 1959 3584 
z
" transform="scale(0.015625)"/>
      <path id="DejaVuSans-75" d="M 544 1381 
L 544 3500 
L 1119 3500 
L 1119 1403 
Q 1119 906 1312 657 
Q 1506 409 1894 409 
Q 2359 409 2629 706 
Q 2900 1003 2900 1516 
L 2900 3500 
L 3475 3500 
L 3475 0 
L 2900 0 
L 2900 538 
Q 2691 219 2414 64 
Q 2138 -91 1772 -91 
Q 1169 -91 856 284 
Q 544 659 544 1381 
z
M 1991 3584 
L 1991 3584 
z
" transform="scale(0.015625)"/>
      <path id="DejaVuSans-72" d="M 2631 2963 
Q 2534 3019 2420 3045 
Q 2306 3072 2169 3072 
Q 1681 3072 1420 2755 
Q 1159 2438 1159 1844 
L 1159 0 
L 581 0 
L 581 3500 
L 1159 3500 
L 1159 2956 
Q 1341 3275 1631 3429 
Q 1922 3584 2338 3584 
Q 2397 3584 2469 3576 
Q 2541 3569 2628 3553 
L 2631 2963 
z
" transform="scale(0.015625)"/>
      <path id="DejaVuSans-63" d="M 3122 3366 
L 3122 2828 
Q 2878 2963 2633 3030 
Q 2388 3097 2138 3097 
Q 1578 3097 1268 2742 
Q 959 2388 959 1747 
Q 959 1106 1268 751 
Q 1578 397 2138 397 
Q 2388 397 2633 464 
Q 2878 531 3122 666 
L 3122 134 
Q 2881 22 2623 -34 
Q 2366 -91 2075 -91 
Q 1284 -91 818 406 
Q 353 903 353 1747 
Q 353 2603 823 3093 
Q 1294 3584 2113 3584 
Q 2378 3584 2631 3529 
Q 2884 3475 3122 3366 
z
" transform="scale(0.015625)"/>
      <path id="DejaVuSans-65" d="M 3597 1894 
L 3597 1613 
L 953 1613 
Q 991 1019 1311 708 
Q 1631 397 2203 397 
Q 2534 397 2845 478 
Q 3156 559 3463 722 
L 3463 178 
Q 3153 47 2828 -22 
Q 2503 -91 2169 -91 
Q 1331 -91 842 396 
Q 353 884 353 1716 
Q 353 2575 817 3079 
Q 1281 3584 2069 3584 
Q 2775 3584 3186 3129 
Q 3597 2675 3597 1894 
z
M 3022 2063 
Q 3016 2534 2758 2815 
Q 2500 3097 2075 3097 
Q 1594 3097 1305 2825 
Q 1016 2553 972 2059 
L 3022 2063 
z
" transform="scale(0.015625)"/>
      <path id="DejaVuSans-2d" d="M 313 2009 
L 1997 2009 
L 1997 1497 
L 313 1497 
L 313 2009 
z
" transform="scale(0.015625)"/>
      <path id="DejaVuSans-69" d="M 603 3500 
L 1178 3500 
L 1178 0 
L 603 0 
L 603 3500 
z
M 603 4863 
L 1178 4863 
L 1178 4134 
L 603 4134 
L 603 4863 
z
" transform="scale(0.015625)"/>
      <path id="DejaVuSans-76" d="M 191 3500 
L 800 3500 
L 1894 563 
L 2988 3500 
L 3597 3500 
L 2284 0 
L 1503 0 
L 191 3500 
z
" transform="scale(0.015625)"/>
     </defs>
     <use xlink:href="#DejaVuSans-73"/>
     <use xlink:href="#DejaVuSans-6f" x="52.099609"/>
     <use xlink:href="#DejaVuSans-75" x="113.28125"/>
     <use xlink:href="#DejaVuSans-72" x="176.660156"/>
     <use xlink:href="#DejaVuSans-63" x="215.523438"/>
     <use xlink:href="#DejaVuSans-65" x="270.503906"/>
     <use xlink:href="#DejaVuSans-32" x="332.027344"/>
     <use xlink:href="#DejaVuSans-33" x="395.650391"/>
     <use xlink:href="#DejaVuSans-2d" x="459.273438"/>
     <use xlink:href="#DejaVuSans-72" x="495.357422"/>
     <use xlink:href="#DejaVuSans-65" x="534.220703"/>
     <use xlink:href="#DejaVuSans-63" x="595.744141"/>
     <use xlink:href="#DejaVuSans-65" x="650.724609"/>
     <use xlink:href="#DejaVuSans-69" x="712.248047"/>
     <use xlink:href="#DejaVuSans-76" x="740.03125"/>
     <use xlink:href="#DejaVuSans-65" x="799.210938"/>
     <use xlink:href="#DejaVuSans-72" x="860.734375"/>
     <use xlink:href="#DejaVuSans-31" x="901.847656"/>
     <use xlink:href="#DejaVuSans-32" x="965.470703"/>
    </g>
   </g>
  </g>
 </g>
 <defs>
  <clipPath id="p6bb2bd1b5d">
   <rect x="180" y="69.12" width="1116" height="443.52"/>
  </clipPath>
 </defs>
</svg>
