<?xml version="1.0" encoding="utf-8" standalone="no"?>
<!DOCTYPE svg PUBLIC "-//W3C//DTD SVG 1.1//EN"
  "http://www.w3.org/Graphics/SVG/1.1/DTD/svg11.dtd">
<svg xmlns:xlink="http://www.w3.org/1999/xlink" width="1440pt" height="576pt" viewBox="0 0 1440 576" xmlns="http://www.w3.org/2000/svg" version="1.1">
 <metadata>
  <rdf:RDF xmlns:dc="http://purl.org/dc/elements/1.1/" xmlns:cc="http://creativecommons.org/ns#" xmlns:rdf="http://www.w3.org/1999/02/22-rdf-syntax-ns#">
   <cc:Work>
    <dc:type rdf:resource="http://purl.org/dc/dcmitype/StillImage"/>
    <dc:date>2024-05-22T04:50:23.403753</dc:date>
    <dc:format>image/svg+xml</dc:format>
    <dc:creator>
     <cc:Agent>
      <dc:title>Matplotlib v3.8.3, https://matplotlib.org/</dc:title>
     </cc:Agent>
    </dc:creator>
   </cc:Work>
  </rdf:RDF>
 </metadata>
 <defs>
  <style type="text/css">*{stroke-linejoin: round; stroke-linecap: butt}</style>
 </defs>
 <g id="figure_1">
  <g id="patch_1">
   <path d="M 0 576 
L 1440 576 
L 1440 0 
L 0 0 
z
" style="fill: #ffffff"/>
  </g>
  <g id="axes_1">
   <g id="patch_2">
    <path d="M 180 512.64 
L 1296 512.64 
L 1296 69.12 
L 180 69.12 
z
" style="fill: #ffffff"/>
   </g>
   <g id="matplotlib.axis_1">
    <g id="xtick_1">
     <g id="line2d_1">
      <defs>
       <path id="m66171af78b" d="M 0 0 
L 0 3.5 
" style="stroke: #000000; stroke-width: 0.8"/>
      </defs>
      <g>
       <use xlink:href="#m66171af78b" x="229.734567" y="512.64" style="stroke: #000000; stroke-width: 0.8"/>
      </g>
     </g>
     <g id="text_1">
      <!-- 0 -->
      <g transform="translate(226.553317 527.238438) scale(0.1 -0.1)">
       <defs>
        <path id="DejaVuSans-30" d="M 2034 4250 
Q 1547 4250 1301 3770 
Q 1056 3291 1056 2328 
Q 1056 1369 1301 889 
Q 1547 409 2034 409 
Q 2525 409 2770 889 
Q 3016 1369 3016 2328 
Q 3016 3291 2770 3770 
Q 2525 4250 2034 4250 
z
M 2034 4750 
Q 2819 4750 3233 4129 
Q 3647 3509 3647 2328 
Q 3647 1150 3233 529 
Q 2819 -91 2034 -91 
Q 1250 -91 836 529 
Q 422 1150 422 2328 
Q 422 3509 836 4129 
Q 1250 4750 2034 4750 
z
" transform="scale(0.015625)"/>
       </defs>
       <use xlink:href="#DejaVuSans-30"/>
      </g>
     </g>
    </g>
    <g id="xtick_2">
     <g id="line2d_2">
      <g>
       <use xlink:href="#m66171af78b" x="433.04074" y="512.64" style="stroke: #000000; stroke-width: 0.8"/>
      </g>
     </g>
     <g id="text_2">
      <!-- 500 -->
      <g transform="translate(423.49699 527.238438) scale(0.1 -0.1)">
       <defs>
        <path id="DejaVuSans-35" d="M 691 4666 
L 3169 4666 
L 3169 4134 
L 1269 4134 
L 1269 2991 
Q 1406 3038 1543 3061 
Q 1681 3084 1819 3084 
Q 2600 3084 3056 2656 
Q 3513 2228 3513 1497 
Q 3513 744 3044 326 
Q 2575 -91 1722 -91 
Q 1428 -91 1123 -41 
Q 819 9 494 109 
L 494 744 
Q 775 591 1075 516 
Q 1375 441 1709 441 
Q 2250 441 2565 725 
Q 2881 1009 2881 1497 
Q 2881 1984 2565 2268 
Q 2250 2553 1709 2553 
Q 1456 2553 1204 2497 
Q 953 2441 691 2322 
L 691 4666 
z
" transform="scale(0.015625)"/>
       </defs>
       <use xlink:href="#DejaVuSans-35"/>
       <use xlink:href="#DejaVuSans-30" x="63.623047"/>
       <use xlink:href="#DejaVuSans-30" x="127.246094"/>
      </g>
     </g>
    </g>
    <g id="xtick_3">
     <g id="line2d_3">
      <g>
       <use xlink:href="#m66171af78b" x="636.346913" y="512.64" style="stroke: #000000; stroke-width: 0.8"/>
      </g>
     </g>
     <g id="text_3">
      <!-- 1000 -->
      <g transform="translate(623.621913 527.238438) scale(0.1 -0.1)">
       <defs>
        <path id="DejaVuSans-31" d="M 794 531 
L 1825 531 
L 1825 4091 
L 703 3866 
L 703 4441 
L 1819 4666 
L 2450 4666 
L 2450 531 
L 3481 531 
L 3481 0 
L 794 0 
L 794 531 
z
" transform="scale(0.015625)"/>
       </defs>
       <use xlink:href="#DejaVuSans-31"/>
       <use xlink:href="#DejaVuSans-30" x="63.623047"/>
       <use xlink:href="#DejaVuSans-30" x="127.246094"/>
       <use xlink:href="#DejaVuSans-30" x="190.869141"/>
      </g>
     </g>
    </g>
    <g id="xtick_4">
     <g id="line2d_4">
      <g>
       <use xlink:href="#m66171af78b" x="839.653087" y="512.64" style="stroke: #000000; stroke-width: 0.8"/>
      </g>
     </g>
     <g id="text_4">
      <!-- 1500 -->
      <g transform="translate(826.928087 527.238438) scale(0.1 -0.1)">
       <use xlink:href="#DejaVuSans-31"/>
       <use xlink:href="#DejaVuSans-35" x="63.623047"/>
       <use xlink:href="#DejaVuSans-30" x="127.246094"/>
       <use xlink:href="#DejaVuSans-30" x="190.869141"/>
      </g>
     </g>
    </g>
    <g id="xtick_5">
     <g id="line2d_5">
      <g>
       <use xlink:href="#m66171af78b" x="1042.95926" y="512.64" style="stroke: #000000; stroke-width: 0.8"/>
      </g>
     </g>
     <g id="text_5">
      <!-- 2000 -->
      <g transform="translate(1030.23426 527.238438) scale(0.1 -0.1)">
       <defs>
        <path id="DejaVuSans-32" d="M 1228 531 
L 3431 531 
L 3431 0 
L 469 0 
L 469 531 
Q 828 903 1448 1529 
Q 2069 2156 2228 2338 
Q 2531 2678 2651 2914 
Q 2772 3150 2772 3378 
Q 2772 3750 2511 3984 
Q 2250 4219 1831 4219 
Q 1534 4219 1204 4116 
Q 875 4013 500 3803 
L 500 4441 
Q 881 4594 1212 4672 
Q 1544 4750 1819 4750 
Q 2544 4750 2975 4387 
Q 3406 4025 3406 3419 
Q 3406 3131 3298 2873 
Q 3191 2616 2906 2266 
Q 2828 2175 2409 1742 
Q 1991 1309 1228 531 
z
" transform="scale(0.015625)"/>
       </defs>
       <use xlink:href="#DejaVuSans-32"/>
       <use xlink:href="#DejaVuSans-30" x="63.623047"/>
       <use xlink:href="#DejaVuSans-30" x="127.246094"/>
       <use xlink:href="#DejaVuSans-30" x="190.869141"/>
      </g>
     </g>
    </g>
    <g id="xtick_6">
     <g id="line2d_6">
      <g>
       <use xlink:href="#m66171af78b" x="1246.265433" y="512.64" style="stroke: #000000; stroke-width: 0.8"/>
      </g>
     </g>
     <g id="text_6">
      <!-- 2500 -->
      <g transform="translate(1233.540433 527.238438) scale(0.1 -0.1)">
       <use xlink:href="#DejaVuSans-32"/>
       <use xlink:href="#DejaVuSans-35" x="63.623047"/>
       <use xlink:href="#DejaVuSans-30" x="127.246094"/>
       <use xlink:href="#DejaVuSans-30" x="190.869141"/>
      </g>
     </g>
    </g>
   </g>
   <g id="matplotlib.axis_2">
    <g id="ytick_1">
     <g id="line2d_7">
      <defs>
       <path id="m6172ef27eb" d="M 0 0 
L -3.5 0 
" style="stroke: #000000; stroke-width: 0.8"/>
      </defs>
      <g>
       <use xlink:href="#m6172ef27eb" x="180" y="458.929411" style="stroke: #000000; stroke-width: 0.8"/>
      </g>
     </g>
     <g id="text_7">
      <!-- −1 -->
      <g transform="translate(158.257812 462.728629) scale(0.1 -0.1)">
       <defs>
        <path id="DejaVuSans-2212" d="M 678 2272 
L 4684 2272 
L 4684 1741 
L 678 1741 
L 678 2272 
z
" transform="scale(0.015625)"/>
       </defs>
       <use xlink:href="#DejaVuSans-2212"/>
       <use xlink:href="#DejaVuSans-31" x="83.789062"/>
      </g>
     </g>
    </g>
    <g id="ytick_2">
     <g id="line2d_8">
      <g>
       <use xlink:href="#m6172ef27eb" x="180" y="395.776658" style="stroke: #000000; stroke-width: 0.8"/>
      </g>
     </g>
     <g id="text_8">
      <!-- 0 -->
      <g transform="translate(166.6375 399.575877) scale(0.1 -0.1)">
       <use xlink:href="#DejaVuSans-30"/>
      </g>
     </g>
    </g>
    <g id="ytick_3">
     <g id="line2d_9">
      <g>
       <use xlink:href="#m6172ef27eb" x="180" y="332.623906" style="stroke: #000000; stroke-width: 0.8"/>
      </g>
     </g>
     <g id="text_9">
      <!-- 1 -->
      <g transform="translate(166.6375 336.423125) scale(0.1 -0.1)">
       <use xlink:href="#DejaVuSans-31"/>
      </g>
     </g>
    </g>
    <g id="ytick_4">
     <g id="line2d_10">
      <g>
       <use xlink:href="#m6172ef27eb" x="180" y="269.471154" style="stroke: #000000; stroke-width: 0.8"/>
      </g>
     </g>
     <g id="text_10">
      <!-- 2 -->
      <g transform="translate(166.6375 273.270373) scale(0.1 -0.1)">
       <use xlink:href="#DejaVuSans-32"/>
      </g>
     </g>
    </g>
    <g id="ytick_5">
     <g id="line2d_11">
      <g>
       <use xlink:href="#m6172ef27eb" x="180" y="206.318402" style="stroke: #000000; stroke-width: 0.8"/>
      </g>
     </g>
     <g id="text_11">
      <!-- 3 -->
      <g transform="translate(166.6375 210.117621) scale(0.1 -0.1)">
       <defs>
        <path id="DejaVuSans-33" d="M 2597 2516 
Q 3050 2419 3304 2112 
Q 3559 1806 3559 1356 
Q 3559 666 3084 287 
Q 2609 -91 1734 -91 
Q 1441 -91 1130 -33 
Q 819 25 488 141 
L 488 750 
Q 750 597 1062 519 
Q 1375 441 1716 441 
Q 2309 441 2620 675 
Q 2931 909 2931 1356 
Q 2931 1769 2642 2001 
Q 2353 2234 1838 2234 
L 1294 2234 
L 1294 2753 
L 1863 2753 
Q 2328 2753 2575 2939 
Q 2822 3125 2822 3475 
Q 2822 3834 2567 4026 
Q 2313 4219 1838 4219 
Q 1578 4219 1281 4162 
Q 984 4106 628 3988 
L 628 4550 
Q 988 4650 1302 4700 
Q 1616 4750 1894 4750 
Q 2613 4750 3031 4423 
Q 3450 4097 3450 3541 
Q 3450 3153 3228 2886 
Q 3006 2619 2597 2516 
z
" transform="scale(0.015625)"/>
       </defs>
       <use xlink:href="#DejaVuSans-33"/>
      </g>
     </g>
    </g>
    <g id="ytick_6">
     <g id="line2d_12">
      <g>
       <use xlink:href="#m6172ef27eb" x="180" y="143.16565" style="stroke: #000000; stroke-width: 0.8"/>
      </g>
     </g>
     <g id="text_12">
      <!-- 4 -->
      <g transform="translate(166.6375 146.964868) scale(0.1 -0.1)">
       <defs>
        <path id="DejaVuSans-34" d="M 2419 4116 
L 825 1625 
L 2419 1625 
L 2419 4116 
z
M 2253 4666 
L 3047 4666 
L 3047 1625 
L 3713 1625 
L 3713 1100 
L 3047 1100 
L 3047 0 
L 2419 0 
L 2419 1100 
L 313 1100 
L 313 1709 
L 2253 4666 
z
" transform="scale(0.015625)"/>
       </defs>
       <use xlink:href="#DejaVuSans-34"/>
      </g>
     </g>
    </g>
    <g id="ytick_7">
     <g id="line2d_13">
      <g>
       <use xlink:href="#m6172ef27eb" x="180" y="80.012898" style="stroke: #000000; stroke-width: 0.8"/>
      </g>
     </g>
     <g id="text_13">
      <!-- 5 -->
      <g transform="translate(166.6375 83.812116) scale(0.1 -0.1)">
       <use xlink:href="#DejaVuSans-35"/>
      </g>
     </g>
    </g>
   </g>
   <g id="line2d_14">
    <path d="M 230.727273 409.520869 
L 231.719979 407.18557 
L 232.712685 400.271005 
L 233.70539 404.66139 
L 234.698096 398.680513 
L 235.690802 391.675806 
L 236.683508 393.647176 
L 237.676214 385.803816 
L 238.66892 378.956716 
L 239.661626 378.673168 
L 240.654332 369.997763 
L 241.647038 362.821708 
L 242.639744 359.69261 
L 243.63245 349.794196 
L 245.617862 333.121955 
L 246.610568 319.522481 
L 247.603273 314.094832 
L 248.595979 321.734063 
L 250.581391 248.298371 
L 251.574097 239.802866 
L 252.566803 278.143976 
L 253.559509 283.77315 
L 254.552215 211.992026 
L 255.544921 194.561985 
L 256.537627 203.752589 
L 257.530333 214.194341 
L 258.523039 200.977026 
L 259.515745 200.902175 
L 260.50845 224.156389 
L 261.501156 239.059494 
L 262.493862 228.198905 
L 263.486568 236.499647 
L 264.479274 236.359827 
L 265.47198 203.57053 
L 266.464686 192.15902 
L 267.457392 200.355993 
L 268.450098 182.201856 
L 269.442804 168.247136 
L 270.43551 181.019766 
L 271.428216 163.744425 
L 272.420922 144.481367 
L 273.413627 165.890441 
L 274.406333 299.14819 
L 275.399039 167.444695 
L 276.391745 139.847887 
L 277.384451 130.942097 
L 278.377157 138.515938 
L 279.369863 152.664492 
L 280.362569 136.348624 
L 281.355275 142.827348 
L 282.347981 190.893505 
L 283.340687 116.120752 
L 284.333393 97.239131 
L 285.326099 133.75439 
L 286.318804 151.031142 
L 287.31151 89.28 
L 288.304216 92.242615 
L 289.296922 153.520215 
L 290.289628 124.613399 
L 291.282334 104.545782 
L 292.27504 131.985268 
L 293.267746 177.922011 
L 294.260452 174.990602 
L 295.253158 189.554474 
L 296.245864 185.962456 
L 297.23857 223.650757 
L 298.231276 252.646031 
L 299.223981 208.536175 
L 300.216687 249.768113 
L 301.209393 306.762675 
L 302.202099 291.290974 
L 303.194805 321.475741 
L 304.187511 273.979379 
L 305.180217 306.843764 
L 306.172923 281.376735 
L 307.165629 285.587051 
L 308.158335 322.391637 
L 309.151041 309.449785 
L 310.143747 327.226849 
L 311.136453 319.550053 
L 312.129159 328.771527 
L 313.121864 332.001019 
L 314.11457 328.62587 
L 315.107276 333.019547 
L 316.099982 330.643683 
L 317.092688 338.621292 
L 318.085394 334.781954 
L 319.0781 336.176782 
L 320.070806 342.258486 
L 321.063512 337.814395 
L 322.056218 339.73825 
L 323.048924 346.026826 
L 324.04163 341.244464 
L 325.034336 342.883206 
L 326.027041 351.892781 
L 327.019747 346.457886 
L 328.012453 347.532455 
L 329.005159 352.129857 
L 329.997865 347.505457 
L 330.990571 353.852266 
L 331.983277 353.318723 
L 332.975983 351.700944 
L 333.968689 360.053482 
L 334.961395 356.859487 
L 335.954101 356.679414 
L 336.946807 362.20995 
L 337.939513 359.095743 
L 338.932218 359.23664 
L 339.924924 363.766801 
L 340.91763 360.767379 
L 341.910336 362.521159 
L 342.903042 368.987199 
L 343.895748 366.670517 
L 344.888454 367.433374 
L 345.88116 371.890166 
L 346.873866 365.392955 
L 347.866572 369.248583 
L 348.859278 373.58285 
L 349.851984 362.110374 
L 350.84469 373.296859 
L 351.837395 375.677628 
L 352.830101 365.568827 
L 353.822807 379.891688 
L 354.815513 372.258248 
L 355.808219 370.584588 
L 356.800925 384.739563 
L 357.793631 371.063893 
L 358.786337 375.401469 
L 359.779043 383.75995 
L 360.771749 375.329347 
L 361.764455 384.44822 
L 362.757161 382.892387 
L 363.749867 376.415428 
L 364.742572 381.781809 
L 365.735278 384.03482 
L 366.727984 378.984259 
L 367.72069 376.930341 
L 368.713396 388.190385 
L 369.706102 377.543181 
L 371.691514 390.405335 
L 372.68422 379.560251 
L 373.676926 387.082515 
L 374.669632 389.199126 
L 375.662338 379.819359 
L 376.655044 392.653381 
L 377.64775 390.440585 
L 378.640455 382.441856 
L 379.633161 393.397132 
L 380.625867 392.243579 
L 381.618573 388.356764 
L 382.611279 394.486252 
L 383.603985 393.27896 
L 384.596691 383.959268 
L 385.589397 400.970077 
L 386.582103 392.629135 
L 387.574809 388.153762 
L 388.567515 403.696961 
L 389.560221 393.753586 
L 390.552927 388.764856 
L 391.545632 402.740893 
L 392.538338 392.182227 
L 393.531044 392.50531 
L 394.52375 403.696741 
L 395.516456 394.488414 
L 396.509162 392.246079 
L 397.501868 408.052456 
L 398.494574 398.801565 
L 399.48728 395.171187 
L 400.479986 406.441777 
L 401.472692 393.440943 
L 402.465398 395.773635 
L 403.458104 406.587333 
L 404.450809 395.951045 
L 405.443515 404.353806 
L 406.436221 406.840099 
L 407.428927 395.367211 
L 408.421633 404.026754 
L 409.414339 405.312654 
L 410.407045 397.598755 
L 411.399751 405.207673 
L 412.392457 406.917883 
L 413.385163 398.776362 
L 414.377869 408.914439 
L 415.370575 408.264349 
L 416.363281 403.138668 
L 417.355986 406.911298 
L 418.348692 411.269747 
L 419.341398 404.304826 
L 420.334104 408.584651 
L 421.32681 408.013416 
L 422.319516 406.013101 
L 423.312222 412.073357 
L 424.304928 406.717695 
L 425.297634 408.578448 
L 426.29034 408.19631 
L 427.283046 408.917079 
L 428.275752 415.718377 
L 429.268458 414.055369 
L 430.261163 411.482021 
L 431.253869 413.708402 
L 432.246575 410.842963 
L 433.239281 412.709055 
L 434.231987 417.8769 
L 435.224693 412.011515 
L 436.217399 413.03987 
L 437.210105 420.378759 
L 438.202811 409.698399 
L 439.195517 418.396303 
L 440.188223 419.886001 
L 441.180929 410.521367 
L 442.173635 417.144944 
L 444.159046 413.152668 
L 445.151752 418.737736 
L 446.144458 418.966677 
L 447.137164 412.106327 
L 448.12987 421.136407 
L 449.122576 415.833371 
L 450.115282 412.94106 
L 451.107988 425.824145 
L 452.100694 415.964138 
L 453.0934 411.836965 
L 454.086106 426.839289 
L 455.078812 417.596672 
L 456.071518 412.037649 
L 457.064223 428.669867 
L 458.056929 418.874517 
L 459.049635 415.363063 
L 460.042341 431.07154 
L 461.035047 417.030088 
L 462.027753 413.246022 
L 463.020459 432.045118 
L 464.013165 417.109819 
L 465.005871 418.780265 
L 465.998577 440.734371 
L 466.991283 418.221917 
L 467.983989 419.105085 
L 468.976695 435.92193 
L 469.9694 414.898946 
L 470.962106 422.10432 
L 471.954812 436.148108 
L 472.947518 415.210155 
L 474.93293 440.422856 
L 475.925636 417.132401 
L 476.918342 429.14149 
L 477.911048 431.337383 
L 478.903754 415.87527 
L 479.89646 426.277427 
L 480.889166 432.68397 
L 481.881872 414.347611 
L 482.874577 429.012179 
L 483.867283 430.536379 
L 484.859989 416.269118 
L 485.852695 432.659741 
L 486.845401 426.926857 
L 487.838107 415.823962 
L 488.830813 433.06146 
L 489.823519 427.376439 
L 490.816225 425.441824 
L 491.808931 435.28664 
L 492.801637 430.899609 
L 493.794343 424.639221 
L 494.787049 435.581703 
L 495.779754 429.229985 
L 496.77246 421.145889 
L 497.765166 438.729653 
L 498.757872 428.928004 
L 499.750578 424.320423 
L 500.743284 437.566926 
L 501.73599 431.451425 
L 502.728696 428.088965 
L 503.721402 442.53464 
L 504.714108 429.450044 
L 505.706814 433.023471 
L 506.69952 427.648574 
L 507.692226 439.182558 
L 508.684932 435.295082 
L 509.677637 428.380077 
L 510.670343 428.722034 
L 511.663049 423.600799 
L 512.655755 443.58323 
L 513.648461 424.668218 
L 514.641167 436.452511 
L 515.633873 435.839308 
L 516.626579 435.888619 
L 517.619285 432.401107 
L 518.611991 438.235509 
L 519.604697 428.398496 
L 520.597403 439.088811 
L 521.590109 433.957178 
L 522.582814 442.092346 
L 523.57552 435.630813 
L 524.568226 426.352445 
L 525.560932 445.456042 
L 526.553638 433.514098 
L 527.546344 438.596182 
L 528.53905 445.943651 
L 529.531756 430.767102 
L 530.524462 427.958933 
L 531.517168 453.180572 
L 532.509874 429.389963 
L 533.50258 430.226613 
L 534.495286 457.044364 
L 535.487991 434.931904 
L 536.480697 444.842059 
L 537.473403 439.764876 
L 538.466109 428.606311 
L 539.458815 435.601979 
L 540.451521 433.62157 
L 541.444227 441.464723 
L 542.436933 443.442061 
L 543.429639 447.881644 
L 544.422345 434.600487 
L 545.415051 446.833169 
L 546.407757 442.706626 
L 547.400463 434.336438 
L 548.393168 448.736538 
L 549.385874 446.828898 
L 550.37858 430.358664 
L 551.371286 448.926192 
L 552.363992 460.074023 
L 553.356698 430.013373 
L 554.349404 453.875224 
L 555.34211 441.155592 
L 556.334816 433.855488 
L 557.327522 441.545462 
L 558.320228 454.569855 
L 559.312934 431.699657 
L 560.30564 469.180447 
L 561.298345 435.003794 
L 563.283757 449.97334 
L 564.276463 434.992104 
L 565.269169 450.247022 
L 566.261875 447.873957 
L 567.254581 436.497124 
L 568.247287 440.013818 
L 569.239993 463.579907 
L 570.232699 439.222253 
L 571.225405 443.784345 
L 572.218111 456.617799 
L 573.210817 437.78562 
L 574.203523 439.739731 
L 575.196228 458.379312 
L 576.188934 445.143247 
L 577.18164 441.851034 
L 578.174346 464.750985 
L 579.167052 440.402565 
L 580.159758 442.408942 
L 581.152464 463.995836 
L 582.14517 446.053007 
L 583.137876 443.350663 
L 584.130582 452.80696 
L 585.123288 439.951356 
L 586.115994 458.050204 
L 587.1087 450.876514 
L 588.101405 442.450035 
L 589.094111 454.24773 
L 590.086817 442.832443 
L 591.079523 447.532043 
L 592.072229 449.354915 
L 593.064935 454.894884 
L 594.057641 444.998052 
L 595.050347 460.594068 
L 596.043053 448.246402 
L 597.035759 448.310451 
L 598.028465 447.804355 
L 599.021171 445.852544 
L 600.013877 452.192656 
L 601.006582 455.432837 
L 601.999288 450.949345 
L 602.991994 449.681286 
L 603.9847 451.675788 
L 604.977406 452.282468 
L 605.970112 452.644113 
L 606.962818 450.502719 
L 607.955524 449.212825 
L 608.94823 450.275549 
L 609.940936 451.17152 
L 610.933642 449.877664 
L 611.926348 454.203709 
L 612.919054 449.075242 
L 613.911759 453.701228 
L 614.904465 449.714097 
L 615.897171 449.659075 
L 616.889877 461.978191 
L 617.882583 453.559145 
L 618.875289 451.193798 
L 619.867995 460.710098 
L 620.860701 456.896545 
L 621.853407 449.425728 
L 622.846113 458.889948 
L 623.838819 451.925294 
L 624.831525 448.059733 
L 625.824231 463.902206 
L 626.816936 452.571365 
L 627.809642 449.425526 
L 628.802348 462.856654 
L 629.795054 455.053031 
L 630.78776 449.716706 
L 631.780466 464.808435 
L 632.773172 452.517502 
L 633.765878 451.174008 
L 634.758584 464.332992 
L 635.75129 450.915985 
L 636.743996 451.147277 
L 637.736702 468.426511 
L 638.729408 449.455645 
L 639.722114 454.374514 
L 640.714819 466.842975 
L 641.707525 449.208766 
L 642.700231 454.504273 
L 643.692937 469.511272 
L 644.685643 449.154648 
L 645.678349 455.092418 
L 646.671055 468.204795 
L 647.663761 448.041022 
L 648.656467 458.086713 
L 649.649173 466.705761 
L 650.641879 447.589863 
L 651.634585 458.519114 
L 652.627291 466.028237 
L 653.619996 449.663511 
L 654.612702 460.136826 
L 655.605408 466.115836 
L 656.598114 449.22498 
L 657.59082 463.368894 
L 658.583526 465.984637 
L 659.576232 450.605939 
L 660.568938 462.510257 
L 661.561644 463.592729 
L 662.55435 450.560455 
L 663.547056 464.602652 
L 664.539762 465.448094 
L 665.532468 451.614815 
L 666.525173 465.684313 
L 667.517879 463.140271 
L 668.510585 452.388306 
L 669.503291 465.797185 
L 670.495997 462.454975 
L 671.488703 454.164179 
L 672.481409 467.006225 
L 673.474115 462.940376 
L 674.466821 455.341004 
L 675.459527 465.839771 
L 676.452233 462.066576 
L 677.444939 456.360157 
L 678.437645 466.336002 
L 679.43035 463.223252 
L 680.423056 455.810099 
L 681.415762 465.865565 
L 682.408468 464.052233 
L 683.401174 457.27223 
L 684.39388 467.173309 
L 685.386586 464.089342 
L 686.379292 458.667547 
L 687.371998 466.26301 
L 688.364704 464.40589 
L 689.35741 459.225455 
L 690.350116 465.792609 
L 691.342822 465.443434 
L 692.335527 458.986336 
L 693.328233 465.717687 
L 694.320939 465.407336 
L 695.313645 458.577087 
L 696.306351 466.732941 
L 697.299057 466.71199 
L 698.291763 459.218515 
L 699.284469 467.13365 
L 700.277175 467.016794 
L 701.269881 459.585677 
L 702.262587 467.397688 
L 703.255293 467.342638 
L 704.247999 459.264143 
L 705.240705 467.578275 
L 706.23341 468.293407 
L 707.226116 459.263707 
L 708.218822 468.157185 
L 709.211528 468.863164 
L 710.204234 459.309643 
L 711.19694 469.65466 
L 712.189646 468.361436 
L 713.182352 459.213766 
L 714.175058 470.366958 
L 715.167764 468.523164 
L 716.16047 459.349895 
L 717.153176 470.632984 
L 718.145882 468.615695 
L 719.138587 459.459607 
L 720.131293 472.228351 
L 721.123999 468.723655 
L 722.116705 459.533781 
L 723.109411 473.092193 
L 724.102117 468.019229 
L 725.094823 459.970688 
L 726.087529 473.815678 
L 727.080235 467.694158 
L 728.072941 460.488756 
L 729.065647 475.047993 
L 730.058353 467.66032 
L 731.051059 461.129647 
L 732.043764 475.297814 
L 733.03647 466.881286 
L 734.029176 461.586601 
L 735.021882 476.001402 
L 736.014588 466.865832 
L 737.007294 462.095351 
L 738 475.949638 
L 738.992706 466.685628 
L 739.985412 463.107233 
L 740.978118 476.666464 
L 741.970824 466.631609 
L 742.96353 463.64753 
L 743.956236 476.820485 
L 744.948941 466.35152 
L 745.941647 464.208522 
L 746.934353 477.186216 
L 747.927059 466.554655 
L 748.919765 465.227007 
L 749.912471 477.118218 
L 750.905177 466.514746 
L 751.897883 465.611173 
L 752.890589 476.977515 
L 753.883295 466.501978 
L 754.876001 466.354116 
L 755.868707 477.029851 
L 756.861413 467.195371 
L 757.854118 466.998424 
L 758.846824 477.080448 
L 759.83953 467.456081 
L 760.832236 467.558175 
L 761.824942 477.641818 
L 762.817648 467.498281 
L 763.810354 468.026181 
L 764.80306 477.477438 
L 765.795766 467.729817 
L 766.788472 468.187055 
L 767.781178 477.400893 
L 768.773884 468.24544 
L 769.76659 468.825272 
L 770.759295 477.673393 
L 771.752001 468.868808 
L 772.744707 468.652806 
L 773.737413 477.9304 
L 774.730119 468.671916 
L 775.722825 469.225404 
L 776.715531 478.509893 
L 777.708237 468.892571 
L 778.700943 469.70059 
L 779.693649 478.831457 
L 780.686355 468.954143 
L 781.679061 469.861421 
L 782.671767 478.873909 
L 783.664473 469.182602 
L 784.657178 470.461937 
L 785.649884 479.457749 
L 786.64259 469.18479 
L 787.635296 470.667762 
L 788.628002 479.814358 
L 789.620708 469.20686 
L 790.613414 470.989795 
L 791.60612 480.003513 
L 792.598826 469.332536 
L 793.591532 471.426795 
L 794.584238 480.344926 
L 795.576944 469.095323 
L 796.56965 471.557439 
L 797.562355 481.074039 
L 798.555061 469.56727 
L 799.547767 472.489032 
L 800.540473 480.623537 
L 801.533179 469.248913 
L 802.525885 472.707081 
L 803.518591 480.521841 
L 804.511297 469.099934 
L 805.504003 473.688617 
L 806.496709 480.917136 
L 807.489415 469.123878 
L 808.482121 474.071827 
L 809.474827 480.999199 
L 810.467532 469.537494 
L 812.452944 480.683759 
L 813.44565 469.517405 
L 814.438356 475.528145 
L 815.431062 480.824985 
L 816.423768 469.819011 
L 817.416474 475.971615 
L 818.40918 480.900582 
L 819.401886 469.985266 
L 820.394592 476.565321 
L 821.387298 480.761707 
L 822.380004 469.855942 
L 823.372709 476.975524 
L 824.365415 480.6508 
L 825.358121 470.363658 
L 826.350827 477.217661 
L 827.343533 480.609064 
L 828.336239 470.578446 
L 829.328945 477.642856 
L 830.321651 480.640315 
L 831.314357 470.89591 
L 832.307063 478.079548 
L 833.299769 480.93545 
L 834.292475 470.974101 
L 835.285181 478.84386 
L 836.277886 480.689514 
L 837.270592 471.522301 
L 838.263298 479.059879 
L 839.256004 480.622403 
L 840.24871 472.019456 
L 841.241416 479.675413 
L 842.234122 480.508442 
L 843.226828 472.220754 
L 844.219534 479.926251 
L 845.21224 480.835354 
L 846.204946 472.265225 
L 847.197652 480.305932 
L 848.190358 480.724449 
L 849.183064 472.49877 
L 850.175769 480.694553 
L 851.168475 480.60873 
L 852.161181 472.706008 
L 853.153887 480.860909 
L 854.146593 480.999657 
L 855.139299 472.661121 
L 856.132005 481.012865 
L 857.124711 481.113229 
L 858.117417 473.007428 
L 859.110123 481.286453 
L 860.102829 481.115607 
L 861.095535 473.268439 
L 862.088241 481.998051 
L 863.080946 480.980771 
L 864.073652 473.417966 
L 865.066358 482.374884 
L 866.059064 480.934185 
L 867.05177 473.700919 
L 868.044476 482.462205 
L 869.037182 480.903376 
L 870.029888 474.011573 
L 871.022594 483.328412 
L 872.0153 481.02064 
L 873.008006 473.920121 
L 874.000712 483.266806 
L 874.993418 480.761233 
L 875.986123 474.482132 
L 876.978829 484.201814 
L 877.971535 480.561709 
L 878.964241 474.566854 
L 879.956947 484.403675 
L 880.949653 480.775677 
L 881.942359 474.880812 
L 882.935065 484.531792 
L 883.927771 480.856054 
L 884.920477 475.353316 
L 885.913183 485.018668 
L 886.905889 480.790099 
L 887.898595 475.558308 
L 888.8913 485.223204 
L 890.876712 475.611203 
L 891.869418 485.28372 
L 893.85483 476.051789 
L 894.847536 485.640047 
L 895.840242 480.483888 
L 896.832948 476.381292 
L 897.825654 486.166162 
L 898.81836 480.822016 
L 899.811066 476.891563 
L 900.803772 486.357555 
L 901.796477 480.33453 
L 902.789183 477.036485 
L 903.781889 486.371438 
L 904.774595 480.626007 
L 905.767301 477.329424 
L 906.760007 486.48602 
L 907.752713 480.250313 
L 908.745419 477.78902 
L 909.738125 486.512724 
L 910.730831 480.43791 
L 911.723537 478.427863 
L 912.716243 486.56432 
L 913.708949 480.579194 
L 914.701655 478.45363 
L 915.69436 486.905139 
L 916.687066 480.602602 
L 917.679772 478.981066 
L 918.672478 487.29882 
L 919.665184 480.523615 
L 920.65789 478.845112 
L 921.650596 487.59393 
L 922.643302 480.643455 
L 923.636008 479.113316 
L 924.628714 487.664974 
L 925.62142 480.578482 
L 926.614126 479.382901 
L 927.606832 487.633308 
L 928.599537 480.835128 
L 929.592243 479.821561 
L 930.584949 487.648192 
L 931.577655 480.724346 
L 932.570361 480.248394 
L 933.563067 488.248318 
L 934.555773 480.546357 
L 935.548479 480.706202 
L 936.541185 488.194892 
L 937.533891 480.504714 
L 938.526597 480.53447 
L 939.519303 488.512757 
L 940.512009 480.89074 
L 941.504714 480.814844 
L 942.49742 488.482543 
L 943.490126 480.816273 
L 944.482832 481.53546 
L 945.475538 488.715128 
L 946.468244 480.84983 
L 947.46095 481.473352 
L 948.453656 488.245148 
L 949.446362 480.503435 
L 950.439068 482.138179 
L 951.431774 488.520143 
L 952.42448 480.72346 
L 953.417186 482.233543 
L 954.409891 488.716406 
L 955.402597 480.506112 
L 956.395303 482.951286 
L 957.388009 489.182219 
L 958.380715 480.663317 
L 959.373421 483.009476 
L 960.366127 488.930967 
L 961.358833 480.527081 
L 962.351539 483.648036 
L 963.344245 488.687561 
L 964.336951 481.012925 
L 965.329657 483.567517 
L 966.322363 489.137963 
L 967.315068 480.71256 
L 968.307774 483.87818 
L 969.30048 488.663312 
L 970.293186 481.29921 
L 971.285892 484.539731 
L 972.278598 489.138096 
L 973.271304 481.279933 
L 974.26401 484.522982 
L 975.256716 488.770161 
L 976.249422 481.395568 
L 977.242128 484.805802 
L 978.234834 488.948365 
L 979.22754 481.157022 
L 981.212951 488.931696 
L 982.205657 481.623182 
L 983.198363 485.552304 
L 984.191069 488.835525 
L 985.183775 482.049326 
L 987.169187 488.892203 
L 988.161893 481.798791 
L 989.154599 486.179103 
L 990.147305 488.761258 
L 991.140011 482.046176 
L 992.132717 486.267362 
L 993.125423 488.753591 
L 994.118128 481.998394 
L 995.110834 486.583439 
L 996.10354 488.905979 
L 997.096246 481.928282 
L 998.088952 487.262762 
L 999.081658 488.601559 
L 1000.074364 482.290711 
L 1001.06707 487.336278 
L 1002.059776 488.426331 
L 1003.052482 482.571319 
L 1004.045188 487.079917 
L 1005.037894 489.078516 
L 1006.0306 482.618218 
L 1007.023305 487.473535 
L 1008.016011 488.801206 
L 1009.008717 482.671894 
L 1010.001423 488.124099 
L 1010.994129 488.598783 
L 1011.986835 482.749517 
L 1012.979541 488.065294 
L 1013.972247 488.704472 
L 1014.964953 482.907262 
L 1015.957659 488.485593 
L 1016.950365 488.507991 
L 1017.943071 483.147635 
L 1018.935777 488.339416 
L 1019.928482 488.544336 
L 1020.921188 483.326958 
L 1021.913894 488.721415 
L 1022.9066 488.404832 
L 1023.899306 483.297236 
L 1024.892012 488.940585 
L 1025.884718 488.024937 
L 1026.877424 483.628429 
L 1027.87013 488.849902 
L 1028.862836 488.272426 
L 1029.855542 483.639594 
L 1030.848248 489.442407 
L 1031.840954 488.512974 
L 1032.833659 483.82069 
L 1033.826365 489.984806 
L 1034.819071 488.308756 
L 1035.811777 484.098842 
L 1036.804483 489.846492 
L 1037.797189 488.284418 
L 1038.789895 484.147343 
L 1039.782601 489.839472 
L 1040.775307 488.511335 
L 1041.768013 484.058775 
L 1042.760719 489.632697 
L 1043.753425 488.374683 
L 1044.746131 484.754246 
L 1045.738837 490.187665 
L 1046.731542 488.285647 
L 1047.724248 485.022463 
L 1048.716954 490.211037 
L 1049.70966 488.166082 
L 1050.702366 485.02548 
L 1051.695072 490.307874 
L 1053.680484 485.007968 
L 1054.67319 490.517786 
L 1056.658602 485.095454 
L 1057.651308 490.756893 
L 1059.636719 485.31465 
L 1060.629425 490.942353 
L 1062.614837 485.201765 
L 1063.607543 491.257106 
L 1064.600249 488.172814 
L 1065.592955 485.591678 
L 1066.585661 491.531605 
L 1067.578367 488.024567 
L 1068.571073 485.383824 
L 1069.563779 491.24172 
L 1070.556485 487.720953 
L 1071.549191 485.999174 
L 1072.541896 491.409153 
L 1073.534602 487.810417 
L 1074.527308 486.34764 
L 1075.520014 491.377555 
L 1076.51272 487.780427 
L 1077.505426 486.154591 
L 1078.498132 491.214936 
L 1079.490838 487.789767 
L 1080.483544 485.811767 
L 1081.47625 491.434144 
L 1082.468956 487.897703 
L 1083.461662 486.593875 
L 1084.454368 492.114868 
L 1085.447073 487.888629 
L 1086.439779 486.720355 
L 1087.432485 491.818244 
L 1088.425191 487.491305 
L 1089.417897 487.03986 
L 1090.410603 491.490396 
L 1091.403309 488.331842 
L 1092.396015 487.281917 
L 1093.388721 491.808366 
L 1094.381427 487.865408 
L 1095.374133 487.427388 
L 1096.366839 491.740198 
L 1097.359545 487.95848 
L 1098.35225 487.346564 
L 1099.344956 492.224224 
L 1100.337662 487.849693 
L 1101.330368 487.759762 
L 1102.323074 492.226301 
L 1103.31578 487.646866 
L 1104.308486 487.738559 
L 1105.301192 492.002065 
L 1106.293898 488.127873 
L 1107.286604 487.950358 
L 1108.27931 492.426017 
L 1109.272016 487.728384 
L 1110.264722 488.151137 
L 1111.257428 491.804199 
L 1112.250133 487.84574 
L 1113.242839 488.466932 
L 1114.235545 492.48 
L 1115.228251 488.030757 
L 1116.220957 488.266499 
L 1117.213663 492.128324 
L 1118.206369 488.056663 
L 1119.199075 488.078456 
L 1120.191781 492.147936 
L 1121.184487 488.029583 
L 1122.177193 488.38601 
L 1123.169899 492.235982 
L 1124.162605 488.124073 
L 1125.15531 488.844188 
L 1126.148016 491.938154 
L 1127.140722 487.968667 
L 1128.133428 488.843461 
L 1129.126134 491.925172 
L 1130.11884 488.44377 
L 1131.111546 489.457842 
L 1132.104252 492.231499 
L 1133.096958 488.371561 
L 1134.089664 489.005142 
L 1135.08237 492.195213 
L 1136.075076 488.195334 
L 1137.067782 489.13234 
L 1138.060487 492.052111 
L 1139.053193 488.266983 
L 1140.045899 489.103169 
L 1141.038605 491.564559 
L 1142.031311 488.538169 
L 1143.024017 489.360234 
L 1144.016723 491.927988 
L 1145.009429 487.976104 
L 1146.002135 489.6013 
L 1146.994841 492.079487 
L 1147.987547 488.213742 
L 1148.980253 489.812818 
L 1149.972959 491.979753 
L 1150.965664 488.453283 
L 1151.95837 489.599722 
L 1152.951076 491.769508 
L 1153.943782 488.163985 
L 1154.936488 489.603321 
L 1155.929194 491.997999 
L 1156.9219 488.533621 
L 1158.907312 491.909708 
L 1159.900018 488.378756 
L 1161.88543 491.747149 
L 1162.878136 488.686329 
L 1163.870841 489.941016 
L 1164.863547 492.263054 
L 1165.856253 488.097517 
L 1166.848959 489.881695 
L 1167.841665 492.386726 
L 1168.834371 488.662102 
L 1169.827077 490.495073 
L 1170.819783 492.054146 
L 1171.812489 488.781599 
L 1172.805195 490.636706 
L 1173.797901 491.797461 
L 1174.790607 488.72904 
L 1175.783313 490.524643 
L 1176.776019 492.03762 
L 1177.768724 488.713159 
L 1178.76143 490.141394 
L 1179.754136 492.200407 
L 1180.746842 488.461077 
L 1181.739548 490.448825 
L 1182.732254 491.913169 
L 1183.72496 488.873474 
L 1184.717666 490.987564 
L 1185.710372 492.15046 
L 1186.703078 488.772103 
L 1187.695784 491.030322 
L 1188.68849 492.057721 
L 1189.681196 488.7871 
L 1190.673901 490.699901 
L 1191.666607 492.133646 
L 1192.659313 488.973414 
L 1193.652019 491.110309 
L 1194.644725 492.008814 
L 1195.637431 488.929079 
L 1196.630137 491.165725 
L 1197.622843 491.723664 
L 1198.615549 488.948593 
L 1199.608255 490.863635 
L 1200.600961 491.619771 
L 1201.593667 489.072433 
L 1202.586373 491.513379 
L 1203.579078 492.150707 
L 1204.571784 488.856709 
L 1205.56449 491.066928 
L 1206.557196 491.821487 
L 1207.549902 488.836106 
L 1208.542608 491.147323 
L 1209.535314 491.838523 
L 1210.52802 488.957513 
L 1211.520726 491.264392 
L 1212.513432 491.898008 
L 1213.506138 489.408397 
L 1214.498844 491.399394 
L 1215.49155 491.466576 
L 1216.484255 489.314974 
L 1217.476961 491.128038 
L 1218.469667 491.728354 
L 1219.462373 489.15553 
L 1220.455079 491.758853 
L 1221.447785 491.748999 
L 1222.440491 489.224332 
L 1223.433197 491.752741 
L 1224.425903 492.119457 
L 1225.418609 489.242668 
L 1226.411315 491.049332 
L 1227.404021 491.647722 
L 1228.396727 489.074204 
L 1229.389432 491.58015 
L 1230.382138 491.448437 
L 1231.374844 489.268316 
L 1232.36755 491.804353 
L 1233.360256 491.526825 
L 1234.352962 489.445957 
L 1235.345668 491.477069 
L 1236.338374 491.774572 
L 1237.33108 489.36727 
L 1238.323786 491.767599 
L 1239.316492 491.537059 
L 1240.309198 489.434999 
L 1241.301904 491.3788 
L 1242.29461 491.302077 
L 1243.287315 489.205175 
L 1244.280021 491.541598 
L 1245.272727 491.666164 
L 1245.272727 491.666164 
" clip-path="url(#p8ce3ef7a98)" style="fill: none; stroke: #1f77b4; stroke-width: 1.5; stroke-linecap: square"/>
   </g>
   <g id="patch_3">
    <path d="M 180 512.64 
L 180 69.12 
" style="fill: none; stroke: #000000; stroke-width: 0.8; stroke-linejoin: miter; stroke-linecap: square"/>
   </g>
   <g id="patch_4">
    <path d="M 1296 512.64 
L 1296 69.12 
" style="fill: none; stroke: #000000; stroke-width: 0.8; stroke-linejoin: miter; stroke-linecap: square"/>
   </g>
   <g id="patch_5">
    <path d="M 180 512.64 
L 1296 512.64 
" style="fill: none; stroke: #000000; stroke-width: 0.8; stroke-linejoin: miter; stroke-linecap: square"/>
   </g>
   <g id="patch_6">
    <path d="M 180 69.12 
L 1296 69.12 
" style="fill: none; stroke: #000000; stroke-width: 0.8; stroke-linejoin: miter; stroke-linecap: square"/>
   </g>
   <g id="text_14">
    <!-- source23-receiver2 -->
    <g transform="translate(544.9 60.80125) scale(0.4 -0.4)">
     <defs>
      <path id="DejaVuSans-73" d="M 2834 3397 
L 2834 2853 
Q 2591 2978 2328 3040 
Q 2066 3103 1784 3103 
Q 1356 3103 1142 2972 
Q 928 2841 928 2578 
Q 928 2378 1081 2264 
Q 1234 2150 1697 2047 
L 1894 2003 
Q 2506 1872 2764 1633 
Q 3022 1394 3022 966 
Q 3022 478 2636 193 
Q 2250 -91 1575 -91 
Q 1294 -91 989 -36 
Q 684 19 347 128 
L 347 722 
Q 666 556 975 473 
Q 1284 391 1588 391 
Q 1994 391 2212 530 
Q 2431 669 2431 922 
Q 2431 1156 2273 1281 
Q 2116 1406 1581 1522 
L 1381 1569 
Q 847 1681 609 1914 
Q 372 2147 372 2553 
Q 372 3047 722 3315 
Q 1072 3584 1716 3584 
Q 2034 3584 2315 3537 
Q 2597 3491 2834 3397 
z
" transform="scale(0.015625)"/>
      <path id="DejaVuSans-6f" d="M 1959 3097 
Q 1497 3097 1228 2736 
Q 959 2375 959 1747 
Q 959 1119 1226 758 
Q 1494 397 1959 397 
Q 2419 397 2687 759 
Q 2956 1122 2956 1747 
Q 2956 2369 2687 2733 
Q 2419 3097 1959 3097 
z
M 1959 3584 
Q 2709 3584 3137 3096 
Q 3566 2609 3566 1747 
Q 3566 888 3137 398 
Q 2709 -91 1959 -91 
Q 1206 -91 779 398 
Q 353 888 353 1747 
Q 353 2609 779 3096 
Q 1206 3584 1959 3584 
z
" transform="scale(0.015625)"/>
      <path id="DejaVuSans-75" d="M 544 1381 
L 544 3500 
L 1119 3500 
L 1119 1403 
Q 1119 906 1312 657 
Q 1506 409 1894 409 
Q 2359 409 2629 706 
Q 2900 1003 2900 1516 
L 2900 3500 
L 3475 3500 
L 3475 0 
L 2900 0 
L 2900 538 
Q 2691 219 2414 64 
Q 2138 -91 1772 -91 
Q 1169 -91 856 284 
Q 544 659 544 1381 
z
M 1991 3584 
L 1991 3584 
z
" transform="scale(0.015625)"/>
      <path id="DejaVuSans-72" d="M 2631 2963 
Q 2534 3019 2420 3045 
Q 2306 3072 2169 3072 
Q 1681 3072 1420 2755 
Q 1159 2438 1159 1844 
L 1159 0 
L 581 0 
L 581 3500 
L 1159 3500 
L 1159 2956 
Q 1341 3275 1631 3429 
Q 1922 3584 2338 3584 
Q 2397 3584 2469 3576 
Q 2541 3569 2628 3553 
L 2631 2963 
z
" transform="scale(0.015625)"/>
      <path id="DejaVuSans-63" d="M 3122 3366 
L 3122 2828 
Q 2878 2963 2633 3030 
Q 2388 3097 2138 3097 
Q 1578 3097 1268 2742 
Q 959 2388 959 1747 
Q 959 1106 1268 751 
Q 1578 397 2138 397 
Q 2388 397 2633 464 
Q 2878 531 3122 666 
L 3122 134 
Q 2881 22 2623 -34 
Q 2366 -91 2075 -91 
Q 1284 -91 818 406 
Q 353 903 353 1747 
Q 353 2603 823 3093 
Q 1294 3584 2113 3584 
Q 2378 3584 2631 3529 
Q 2884 3475 3122 3366 
z
" transform="scale(0.015625)"/>
      <path id="DejaVuSans-65" d="M 3597 1894 
L 3597 1613 
L 953 1613 
Q 991 1019 1311 708 
Q 1631 397 2203 397 
Q 2534 397 2845 478 
Q 3156 559 3463 722 
L 3463 178 
Q 3153 47 2828 -22 
Q 2503 -91 2169 -91 
Q 1331 -91 842 396 
Q 353 884 353 1716 
Q 353 2575 817 3079 
Q 1281 3584 2069 3584 
Q 2775 3584 3186 3129 
Q 3597 2675 3597 1894 
z
M 3022 2063 
Q 3016 2534 2758 2815 
Q 2500 3097 2075 3097 
Q 1594 3097 1305 2825 
Q 1016 2553 972 2059 
L 3022 2063 
z
" transform="scale(0.015625)"/>
      <path id="DejaVuSans-2d" d="M 313 2009 
L 1997 2009 
L 1997 1497 
L 313 1497 
L 313 2009 
z
" transform="scale(0.015625)"/>
      <path id="DejaVuSans-69" d="M 603 3500 
L 1178 3500 
L 1178 0 
L 603 0 
L 603 3500 
z
M 603 4863 
L 1178 4863 
L 1178 4134 
L 603 4134 
L 603 4863 
z
" transform="scale(0.015625)"/>
      <path id="DejaVuSans-76" d="M 191 3500 
L 800 3500 
L 1894 563 
L 2988 3500 
L 3597 3500 
L 2284 0 
L 1503 0 
L 191 3500 
z
" transform="scale(0.015625)"/>
     </defs>
     <use xlink:href="#DejaVuSans-73"/>
     <use xlink:href="#DejaVuSans-6f" x="52.099609"/>
     <use xlink:href="#DejaVuSans-75" x="113.28125"/>
     <use xlink:href="#DejaVuSans-72" x="176.660156"/>
     <use xlink:href="#DejaVuSans-63" x="215.523438"/>
     <use xlink:href="#DejaVuSans-65" x="270.503906"/>
     <use xlink:href="#DejaVuSans-32" x="332.027344"/>
     <use xlink:href="#DejaVuSans-33" x="395.650391"/>
     <use xlink:href="#DejaVuSans-2d" x="459.273438"/>
     <use xlink:href="#DejaVuSans-72" x="495.357422"/>
     <use xlink:href="#DejaVuSans-65" x="534.220703"/>
     <use xlink:href="#DejaVuSans-63" x="595.744141"/>
     <use xlink:href="#DejaVuSans-65" x="650.724609"/>
     <use xlink:href="#DejaVuSans-69" x="712.248047"/>
     <use xlink:href="#DejaVuSans-76" x="740.03125"/>
     <use xlink:href="#DejaVuSans-65" x="799.210938"/>
     <use xlink:href="#DejaVuSans-72" x="860.734375"/>
     <use xlink:href="#DejaVuSans-32" x="901.847656"/>
    </g>
   </g>
  </g>
 </g>
 <defs>
  <clipPath id="p8ce3ef7a98">
   <rect x="180" y="69.12" width="1116" height="443.52"/>
  </clipPath>
 </defs>
</svg>
