<?xml version="1.0" encoding="utf-8" standalone="no"?>
<!DOCTYPE svg PUBLIC "-//W3C//DTD SVG 1.1//EN"
  "http://www.w3.org/Graphics/SVG/1.1/DTD/svg11.dtd">
<svg xmlns:xlink="http://www.w3.org/1999/xlink" width="1440pt" height="576pt" viewBox="0 0 1440 576" xmlns="http://www.w3.org/2000/svg" version="1.1">
 <metadata>
  <rdf:RDF xmlns:dc="http://purl.org/dc/elements/1.1/" xmlns:cc="http://creativecommons.org/ns#" xmlns:rdf="http://www.w3.org/1999/02/22-rdf-syntax-ns#">
   <cc:Work>
    <dc:type rdf:resource="http://purl.org/dc/dcmitype/StillImage"/>
    <dc:date>2024-05-22T04:50:24.891631</dc:date>
    <dc:format>image/svg+xml</dc:format>
    <dc:creator>
     <cc:Agent>
      <dc:title>Matplotlib v3.8.3, https://matplotlib.org/</dc:title>
     </cc:Agent>
    </dc:creator>
   </cc:Work>
  </rdf:RDF>
 </metadata>
 <defs>
  <style type="text/css">*{stroke-linejoin: round; stroke-linecap: butt}</style>
 </defs>
 <g id="figure_1">
  <g id="patch_1">
   <path d="M 0 576 
L 1440 576 
L 1440 0 
L 0 0 
z
" style="fill: #ffffff"/>
  </g>
  <g id="axes_1">
   <g id="patch_2">
    <path d="M 180 512.64 
L 1296 512.64 
L 1296 69.12 
L 180 69.12 
z
" style="fill: #ffffff"/>
   </g>
   <g id="matplotlib.axis_1">
    <g id="xtick_1">
     <g id="line2d_1">
      <defs>
       <path id="m6c9d374274" d="M 0 0 
L 0 3.5 
" style="stroke: #000000; stroke-width: 0.8"/>
      </defs>
      <g>
       <use xlink:href="#m6c9d374274" x="229.734567" y="512.64" style="stroke: #000000; stroke-width: 0.8"/>
      </g>
     </g>
     <g id="text_1">
      <!-- 0 -->
      <g transform="translate(226.553317 527.238438) scale(0.1 -0.1)">
       <defs>
        <path id="DejaVuSans-30" d="M 2034 4250 
Q 1547 4250 1301 3770 
Q 1056 3291 1056 2328 
Q 1056 1369 1301 889 
Q 1547 409 2034 409 
Q 2525 409 2770 889 
Q 3016 1369 3016 2328 
Q 3016 3291 2770 3770 
Q 2525 4250 2034 4250 
z
M 2034 4750 
Q 2819 4750 3233 4129 
Q 3647 3509 3647 2328 
Q 3647 1150 3233 529 
Q 2819 -91 2034 -91 
Q 1250 -91 836 529 
Q 422 1150 422 2328 
Q 422 3509 836 4129 
Q 1250 4750 2034 4750 
z
" transform="scale(0.015625)"/>
       </defs>
       <use xlink:href="#DejaVuSans-30"/>
      </g>
     </g>
    </g>
    <g id="xtick_2">
     <g id="line2d_2">
      <g>
       <use xlink:href="#m6c9d374274" x="433.04074" y="512.64" style="stroke: #000000; stroke-width: 0.8"/>
      </g>
     </g>
     <g id="text_2">
      <!-- 500 -->
      <g transform="translate(423.49699 527.238438) scale(0.1 -0.1)">
       <defs>
        <path id="DejaVuSans-35" d="M 691 4666 
L 3169 4666 
L 3169 4134 
L 1269 4134 
L 1269 2991 
Q 1406 3038 1543 3061 
Q 1681 3084 1819 3084 
Q 2600 3084 3056 2656 
Q 3513 2228 3513 1497 
Q 3513 744 3044 326 
Q 2575 -91 1722 -91 
Q 1428 -91 1123 -41 
Q 819 9 494 109 
L 494 744 
Q 775 591 1075 516 
Q 1375 441 1709 441 
Q 2250 441 2565 725 
Q 2881 1009 2881 1497 
Q 2881 1984 2565 2268 
Q 2250 2553 1709 2553 
Q 1456 2553 1204 2497 
Q 953 2441 691 2322 
L 691 4666 
z
" transform="scale(0.015625)"/>
       </defs>
       <use xlink:href="#DejaVuSans-35"/>
       <use xlink:href="#DejaVuSans-30" x="63.623047"/>
       <use xlink:href="#DejaVuSans-30" x="127.246094"/>
      </g>
     </g>
    </g>
    <g id="xtick_3">
     <g id="line2d_3">
      <g>
       <use xlink:href="#m6c9d374274" x="636.346913" y="512.64" style="stroke: #000000; stroke-width: 0.8"/>
      </g>
     </g>
     <g id="text_3">
      <!-- 1000 -->
      <g transform="translate(623.621913 527.238438) scale(0.1 -0.1)">
       <defs>
        <path id="DejaVuSans-31" d="M 794 531 
L 1825 531 
L 1825 4091 
L 703 3866 
L 703 4441 
L 1819 4666 
L 2450 4666 
L 2450 531 
L 3481 531 
L 3481 0 
L 794 0 
L 794 531 
z
" transform="scale(0.015625)"/>
       </defs>
       <use xlink:href="#DejaVuSans-31"/>
       <use xlink:href="#DejaVuSans-30" x="63.623047"/>
       <use xlink:href="#DejaVuSans-30" x="127.246094"/>
       <use xlink:href="#DejaVuSans-30" x="190.869141"/>
      </g>
     </g>
    </g>
    <g id="xtick_4">
     <g id="line2d_4">
      <g>
       <use xlink:href="#m6c9d374274" x="839.653087" y="512.64" style="stroke: #000000; stroke-width: 0.8"/>
      </g>
     </g>
     <g id="text_4">
      <!-- 1500 -->
      <g transform="translate(826.928087 527.238438) scale(0.1 -0.1)">
       <use xlink:href="#DejaVuSans-31"/>
       <use xlink:href="#DejaVuSans-35" x="63.623047"/>
       <use xlink:href="#DejaVuSans-30" x="127.246094"/>
       <use xlink:href="#DejaVuSans-30" x="190.869141"/>
      </g>
     </g>
    </g>
    <g id="xtick_5">
     <g id="line2d_5">
      <g>
       <use xlink:href="#m6c9d374274" x="1042.95926" y="512.64" style="stroke: #000000; stroke-width: 0.8"/>
      </g>
     </g>
     <g id="text_5">
      <!-- 2000 -->
      <g transform="translate(1030.23426 527.238438) scale(0.1 -0.1)">
       <defs>
        <path id="DejaVuSans-32" d="M 1228 531 
L 3431 531 
L 3431 0 
L 469 0 
L 469 531 
Q 828 903 1448 1529 
Q 2069 2156 2228 2338 
Q 2531 2678 2651 2914 
Q 2772 3150 2772 3378 
Q 2772 3750 2511 3984 
Q 2250 4219 1831 4219 
Q 1534 4219 1204 4116 
Q 875 4013 500 3803 
L 500 4441 
Q 881 4594 1212 4672 
Q 1544 4750 1819 4750 
Q 2544 4750 2975 4387 
Q 3406 4025 3406 3419 
Q 3406 3131 3298 2873 
Q 3191 2616 2906 2266 
Q 2828 2175 2409 1742 
Q 1991 1309 1228 531 
z
" transform="scale(0.015625)"/>
       </defs>
       <use xlink:href="#DejaVuSans-32"/>
       <use xlink:href="#DejaVuSans-30" x="63.623047"/>
       <use xlink:href="#DejaVuSans-30" x="127.246094"/>
       <use xlink:href="#DejaVuSans-30" x="190.869141"/>
      </g>
     </g>
    </g>
    <g id="xtick_6">
     <g id="line2d_6">
      <g>
       <use xlink:href="#m6c9d374274" x="1246.265433" y="512.64" style="stroke: #000000; stroke-width: 0.8"/>
      </g>
     </g>
     <g id="text_6">
      <!-- 2500 -->
      <g transform="translate(1233.540433 527.238438) scale(0.1 -0.1)">
       <use xlink:href="#DejaVuSans-32"/>
       <use xlink:href="#DejaVuSans-35" x="63.623047"/>
       <use xlink:href="#DejaVuSans-30" x="127.246094"/>
       <use xlink:href="#DejaVuSans-30" x="190.869141"/>
      </g>
     </g>
    </g>
   </g>
   <g id="matplotlib.axis_2">
    <g id="ytick_1">
     <g id="line2d_7">
      <defs>
       <path id="m114c064eca" d="M 0 0 
L -3.5 0 
" style="stroke: #000000; stroke-width: 0.8"/>
      </defs>
      <g>
       <use xlink:href="#m114c064eca" x="180" y="497.565615" style="stroke: #000000; stroke-width: 0.8"/>
      </g>
     </g>
     <g id="text_7">
      <!-- −4 -->
      <g transform="translate(158.257812 501.364834) scale(0.1 -0.1)">
       <defs>
        <path id="DejaVuSans-2212" d="M 678 2272 
L 4684 2272 
L 4684 1741 
L 678 1741 
L 678 2272 
z
" transform="scale(0.015625)"/>
        <path id="DejaVuSans-34" d="M 2419 4116 
L 825 1625 
L 2419 1625 
L 2419 4116 
z
M 2253 4666 
L 3047 4666 
L 3047 1625 
L 3713 1625 
L 3713 1100 
L 3047 1100 
L 3047 0 
L 2419 0 
L 2419 1100 
L 313 1100 
L 313 1709 
L 2253 4666 
z
" transform="scale(0.015625)"/>
       </defs>
       <use xlink:href="#DejaVuSans-2212"/>
       <use xlink:href="#DejaVuSans-34" x="83.789062"/>
      </g>
     </g>
    </g>
    <g id="ytick_2">
     <g id="line2d_8">
      <g>
       <use xlink:href="#m114c064eca" x="180" y="411.132895" style="stroke: #000000; stroke-width: 0.8"/>
      </g>
     </g>
     <g id="text_8">
      <!-- −2 -->
      <g transform="translate(158.257812 414.932114) scale(0.1 -0.1)">
       <use xlink:href="#DejaVuSans-2212"/>
       <use xlink:href="#DejaVuSans-32" x="83.789062"/>
      </g>
     </g>
    </g>
    <g id="ytick_3">
     <g id="line2d_9">
      <g>
       <use xlink:href="#m114c064eca" x="180" y="324.700176" style="stroke: #000000; stroke-width: 0.8"/>
      </g>
     </g>
     <g id="text_9">
      <!-- 0 -->
      <g transform="translate(166.6375 328.499394) scale(0.1 -0.1)">
       <use xlink:href="#DejaVuSans-30"/>
      </g>
     </g>
    </g>
    <g id="ytick_4">
     <g id="line2d_10">
      <g>
       <use xlink:href="#m114c064eca" x="180" y="238.267456" style="stroke: #000000; stroke-width: 0.8"/>
      </g>
     </g>
     <g id="text_10">
      <!-- 2 -->
      <g transform="translate(166.6375 242.066674) scale(0.1 -0.1)">
       <use xlink:href="#DejaVuSans-32"/>
      </g>
     </g>
    </g>
    <g id="ytick_5">
     <g id="line2d_11">
      <g>
       <use xlink:href="#m114c064eca" x="180" y="151.834736" style="stroke: #000000; stroke-width: 0.8"/>
      </g>
     </g>
     <g id="text_11">
      <!-- 4 -->
      <g transform="translate(166.6375 155.633955) scale(0.1 -0.1)">
       <use xlink:href="#DejaVuSans-34"/>
      </g>
     </g>
    </g>
   </g>
   <g id="line2d_12">
    <path d="M 230.727273 323.081127 
L 231.719979 311.762565 
L 232.712685 316.065601 
L 234.698096 365.2917 
L 235.690802 334.686148 
L 236.683508 328.175793 
L 237.676214 338.026188 
L 238.66892 343.194834 
L 239.661626 337.80103 
L 240.654332 361.032558 
L 241.647038 362.644206 
L 242.639744 307.487891 
L 243.63245 290.506407 
L 244.625156 295.239612 
L 245.617862 349.614912 
L 246.610568 300.451424 
L 247.603273 263.361394 
L 248.595979 249.688018 
L 249.588685 247.331424 
L 250.581391 248.210326 
L 251.574097 241.151211 
L 252.566803 230.514176 
L 253.559509 223.002946 
L 254.552215 214.017716 
L 255.544921 203.279314 
L 256.537627 196.518419 
L 257.530333 199.255295 
L 258.523039 217.860334 
L 259.515745 294.125955 
L 260.50845 223.216846 
L 261.501156 203.180243 
L 262.493862 208.862381 
L 263.486568 252.02211 
L 264.479274 230.801739 
L 265.47198 199.191365 
L 266.464686 196.815214 
L 267.457392 219.144416 
L 268.450098 230.339166 
L 269.442804 197.302742 
L 270.43551 189.427165 
L 271.428216 201.714894 
L 272.420922 223.228842 
L 273.413627 203.763012 
L 274.406333 193.893743 
L 276.391745 212.666378 
L 277.384451 188.246423 
L 278.377157 169.161586 
L 279.369863 158.38774 
L 280.362569 152.12806 
L 281.355275 149.623945 
L 282.347981 152.798017 
L 283.340687 160.073487 
L 284.333393 146.483824 
L 285.326099 120.380375 
L 286.318804 101.953996 
L 287.31151 91.85532 
L 288.304216 89.28 
L 289.296922 94.352888 
L 290.289628 108.074063 
L 292.27504 158.395389 
L 293.267746 162.044629 
L 294.260452 172.17598 
L 295.253158 221.789296 
L 296.245864 206.376963 
L 297.23857 179.671786 
L 298.231276 184.294736 
L 299.223981 209.384825 
L 300.216687 208.670741 
L 301.209393 194.763401 
L 302.202099 201.782597 
L 304.187511 268.069159 
L 305.180217 240.318457 
L 306.172923 250.463749 
L 307.165629 272.948499 
L 308.158335 253.649342 
L 309.151041 249.362073 
L 310.143747 266.6855 
L 311.136453 297.353825 
L 312.129159 294.51928 
L 313.121864 270.822244 
L 314.11457 253.665301 
L 315.107276 251.928357 
L 316.099982 267.836252 
L 317.092688 331.372353 
L 318.085394 287.508653 
L 319.0781 266.76581 
L 320.070806 265.216906 
L 321.063512 275.234098 
L 322.056218 292.340761 
L 323.048924 304.10135 
L 325.034336 281.238987 
L 326.027041 280.371748 
L 327.019747 287.193016 
L 328.012453 290.603243 
L 329.005159 296.865645 
L 329.997865 300.06298 
L 331.983277 289.233855 
L 332.975983 287.786978 
L 333.968689 291.761163 
L 334.961395 303.567809 
L 335.954101 310.617129 
L 336.946807 293.94879 
L 337.939513 284.360802 
L 338.932218 292.271934 
L 339.924924 323.251466 
L 341.910336 285.721401 
L 342.903042 288.069991 
L 343.895748 319.355626 
L 344.888454 321.953597 
L 345.88116 287.71687 
L 346.873866 280.938503 
L 347.866572 292.107371 
L 348.859278 336.118773 
L 350.84469 289.660001 
L 351.837395 291.879783 
L 352.830101 315.077831 
L 353.822807 315.774824 
L 354.815513 297.399703 
L 355.808219 306.845549 
L 356.800925 378.170518 
L 357.793631 297.847462 
L 358.786337 276.262001 
L 359.779043 275.040848 
L 360.771749 295.59143 
L 361.764455 302.008178 
L 362.757161 271.402233 
L 363.749867 259.517227 
L 364.742572 262.755955 
L 365.735278 280.381607 
L 366.727984 286.113631 
L 367.72069 269.024479 
L 368.713396 258.525093 
L 369.706102 263.855332 
L 371.691514 299.934473 
L 372.68422 282.841567 
L 373.676926 272.277022 
L 374.669632 271.411883 
L 375.662338 284.711478 
L 376.655044 312.628733 
L 377.64775 313.518454 
L 378.640455 285.260627 
L 379.633161 278.277334 
L 380.625867 285.449818 
L 381.618573 322.964629 
L 382.611279 330.273177 
L 383.603985 292.998263 
L 384.596691 293.646513 
L 385.589397 323.694259 
L 387.574809 263.562399 
L 388.567515 252.741715 
L 389.560221 252.250913 
L 390.552927 251.073235 
L 391.545632 237.938914 
L 392.538338 226.560518 
L 393.531044 221.951398 
L 394.52375 221.688182 
L 395.516456 221.292292 
L 397.501868 210.007168 
L 398.494574 208.561988 
L 399.48728 210.957972 
L 400.479986 212.413761 
L 402.465398 208.27797 
L 403.458104 209.78437 
L 405.443515 219.924941 
L 406.436221 220.258828 
L 407.428927 220.740266 
L 408.421633 225.569337 
L 410.407045 246.950329 
L 411.399751 249.663375 
L 412.392457 251.803414 
L 413.385163 263.279687 
L 414.377869 290.439802 
L 415.370575 341.155346 
L 416.363281 320.501588 
L 418.348692 353.244937 
L 419.341398 298.237602 
L 420.334104 284.257568 
L 421.32681 288.283222 
L 422.319516 306.380996 
L 423.312222 295.303298 
L 424.304928 277.908152 
L 425.297634 275.234084 
L 426.29034 288.079182 
L 427.283046 308.908001 
L 429.268458 282.859073 
L 430.261163 287.525325 
L 432.246575 334.250983 
L 433.239281 302.730017 
L 434.231987 294.538982 
L 435.224693 305.377241 
L 436.217399 343.938163 
L 437.210105 355.498797 
L 438.202811 315.777475 
L 439.195517 309.810291 
L 440.188223 320.347766 
L 441.180929 357.169531 
L 442.173635 365.389672 
L 443.166341 338.697719 
L 444.159046 326.010368 
L 445.151752 325.335507 
L 446.144458 333.922639 
L 447.137164 350.405174 
L 448.12987 357.737631 
L 449.122576 342.404827 
L 450.115282 330.55929 
L 451.107988 332.395084 
L 452.100694 338.726291 
L 453.0934 343.096067 
L 454.086106 349.824259 
L 455.078812 352.482867 
L 456.071518 334.486991 
L 457.064223 322.023393 
L 458.056929 329.539522 
L 459.049635 356.132608 
L 460.042341 377.682825 
L 461.035047 323.946113 
L 462.027753 315.012263 
L 463.020459 321.646166 
L 464.013165 371.003687 
L 465.005871 356.831354 
L 465.998577 321.547477 
L 466.991283 316.951699 
L 467.983989 334.187007 
L 468.976695 393.091317 
L 469.9694 354.008168 
L 470.962106 330.129761 
L 471.954812 336.585988 
L 472.947518 352.539295 
L 473.940224 343.829246 
L 474.93293 332.03959 
L 475.925636 348.502551 
L 476.918342 384.6419 
L 477.911048 342.918926 
L 478.903754 323.068662 
L 479.89646 319.086414 
L 480.889166 340.569812 
L 481.881872 416.126004 
L 482.874577 333.604293 
L 483.867283 316.850092 
L 484.859989 317.489669 
L 485.852695 334.786981 
L 486.845401 435.8331 
L 487.838107 359.970955 
L 488.830813 332.61022 
L 489.823519 334.491075 
L 490.816225 334.26467 
L 491.808931 338.033952 
L 492.801637 357.425708 
L 493.794343 454.86583 
L 494.787049 338.6112 
L 495.779754 312.503575 
L 496.77246 303.006997 
L 497.765166 311.117 
L 498.757872 327.968331 
L 499.750578 314.124866 
L 500.743284 292.365432 
L 501.73599 284.601508 
L 502.728696 287.71577 
L 503.721402 298.553804 
L 504.714108 293.73451 
L 505.706814 277.133417 
L 506.69952 274.071876 
L 507.692226 276.18391 
L 508.684932 283.875307 
L 509.677637 277.516808 
L 510.670343 268.501821 
L 511.663049 265.214522 
L 512.655755 268.162932 
L 513.648461 273.194921 
L 514.641167 271.77279 
L 515.633873 262.813435 
L 516.626579 261.427487 
L 517.619285 265.797409 
L 518.611991 274.588685 
L 519.604697 269.076417 
L 520.597403 265.935227 
L 521.590109 266.155815 
L 522.582814 274.046353 
L 523.57552 286.252667 
L 524.568226 287.449005 
L 525.560932 282.182092 
L 526.553638 284.988492 
L 527.546344 296.196169 
L 528.53905 329.046965 
L 529.531756 343.728021 
L 530.524462 333.036031 
L 531.517168 319.777273 
L 532.509874 321.752638 
L 533.50258 316.070584 
L 534.495286 328.102599 
L 535.487991 344.90143 
L 536.480697 323.326753 
L 537.473403 304.432824 
L 538.466109 294.851162 
L 539.458815 313.891955 
L 540.451521 320.520944 
L 541.444227 322.137869 
L 542.436933 306.058784 
L 543.429639 307.954064 
L 544.422345 319.816416 
L 545.415051 372.530584 
L 546.407757 344.589367 
L 547.400463 320.615961 
L 548.393168 329.077104 
L 549.385874 388.203421 
L 550.37858 351.909755 
L 551.371286 324.456896 
L 552.363992 321.770602 
L 553.356698 340.447965 
L 554.349404 402.033743 
L 555.34211 341.337787 
L 556.334816 325.175602 
L 557.327522 326.245369 
L 558.320228 352.145013 
L 559.312934 389.139705 
L 560.30564 379.232379 
L 561.298345 362.014517 
L 562.291051 338.846534 
L 563.283757 337.665407 
L 564.276463 335.254647 
L 565.269169 351.006749 
L 566.261875 400.13555 
L 567.254581 349.908454 
L 568.247287 325.73357 
L 569.239993 322.090175 
L 570.232699 331.134304 
L 571.225405 363.634421 
L 572.218111 369.206477 
L 573.210817 333.118646 
L 574.203523 323.699754 
L 575.196228 325.796176 
L 576.188934 345.456341 
L 577.18164 407.358099 
L 578.174346 357.157636 
L 579.167052 334.603055 
L 580.159758 330.402952 
L 581.152464 341.364923 
L 582.14517 369.754515 
L 583.137876 421.958066 
L 584.130582 363.869047 
L 585.123288 348.114204 
L 586.115994 340.25999 
L 587.1087 342.235009 
L 588.101405 353.536573 
L 589.094111 411.233309 
L 590.086817 354.810703 
L 591.079523 327.479778 
L 592.072229 319.104442 
L 593.064935 326.618243 
L 594.057641 348.751735 
L 595.050347 341.496894 
L 596.043053 315.165042 
L 597.035759 309.463609 
L 598.028465 319.857892 
L 599.021171 341.565531 
L 600.013877 329.271114 
L 601.006582 311.97102 
L 601.999288 311.083578 
L 602.991994 331.873678 
L 603.9847 348.692165 
L 604.977406 323.731141 
L 605.970112 312.718402 
L 606.962818 322.262373 
L 607.955524 349.847849 
L 608.94823 335.543127 
L 609.940936 313.986988 
L 610.933642 312.090106 
L 611.926348 326.366586 
L 612.919054 335.860482 
L 613.911759 312.695725 
L 614.904465 301.862267 
L 615.897171 305.995818 
L 616.889877 319.207071 
L 617.882583 317.380308 
L 618.875289 301.914726 
L 619.867995 296.775146 
L 620.860701 304.472787 
L 621.853407 320.154903 
L 622.846113 316.647198 
L 623.838819 303.859579 
L 624.831525 301.670922 
L 625.824231 311.90018 
L 626.816936 331.109546 
L 627.809642 326.458548 
L 628.802348 312.726146 
L 629.795054 310.689272 
L 630.78776 323.11357 
L 631.780466 348.978585 
L 632.773172 335.28366 
L 633.765878 317.553693 
L 634.758584 314.272097 
L 635.75129 327.509548 
L 636.743996 347.514107 
L 638.729408 313.355745 
L 639.722114 310.130168 
L 640.714819 320.815681 
L 641.707525 336.980901 
L 642.700231 325.16509 
L 643.692937 310.543373 
L 644.685643 307.876117 
L 645.678349 318.702459 
L 646.671055 340.092351 
L 647.663761 334.351939 
L 648.656467 319.198012 
L 649.649173 318.542699 
L 650.641879 333.295272 
L 651.634585 375.211444 
L 652.627291 393.998554 
L 653.619996 359.525746 
L 654.612702 354.671977 
L 655.605408 349.114521 
L 656.598114 342.390408 
L 657.59082 345.542497 
L 658.583526 370.154169 
L 659.576232 365.072506 
L 660.568938 330.44964 
L 661.561644 318.351586 
L 662.55435 321.283883 
L 663.547056 340.505748 
L 664.539762 351.703321 
L 665.532468 329.378413 
L 666.525173 319.732876 
L 667.517879 326.043092 
L 668.510585 352.126338 
L 669.503291 392.343724 
L 670.495997 352.545892 
L 671.488703 343.013218 
L 672.481409 354.09561 
L 673.474115 376.262556 
L 674.466821 368.92277 
L 675.459527 365.115281 
L 676.452233 390.212875 
L 677.444939 391.917982 
L 678.437645 351.409814 
L 679.43035 340.744201 
L 680.423056 348.976114 
L 681.415762 393.239595 
L 682.408468 385.642553 
L 683.401174 348.219241 
L 684.39388 341.532267 
L 685.386586 354.867422 
L 686.379292 406.055788 
L 687.371998 383.1628 
L 688.364704 356.953038 
L 689.35741 357.507519 
L 690.350116 375.184878 
L 691.342822 382.67395 
L 692.335527 366.181332 
L 693.328233 363.519312 
L 694.320939 377.455352 
L 695.313645 385.320449 
L 696.306351 366.538498 
L 697.299057 359.062072 
L 698.291763 368.187325 
L 699.284469 391.22829 
L 700.277175 379.648554 
L 701.269881 360.980186 
L 702.262587 358.87763 
L 703.255293 369.800459 
L 704.247999 395.36513 
L 705.240705 383.824208 
L 706.23341 362.078293 
L 707.226116 354.178971 
L 708.218822 358.756957 
L 709.211528 383.147018 
L 710.204234 429.298774 
L 711.19694 363.180141 
L 712.189646 343.160532 
L 713.182352 340.471829 
L 714.175058 355.010804 
L 715.167764 396.212344 
L 716.16047 356.748293 
L 717.153176 332.891712 
L 718.145882 327.527273 
L 719.138587 337.519147 
L 720.131293 363.443261 
L 721.123999 351.843704 
L 722.116705 329.393262 
L 723.109411 323.841994 
L 724.102117 332.931593 
L 725.094823 359.797508 
L 726.087529 359.184757 
L 727.080235 335.103001 
L 728.072941 329.299799 
L 729.065647 340.132705 
L 730.058353 377.839684 
L 731.051059 377.125247 
L 732.043764 345.7797 
L 733.03647 341.546201 
L 734.029176 358.994664 
L 735.021882 462.082431 
L 736.014588 367.621519 
L 737.007294 346.304825 
L 738 349.589877 
L 738.992706 383.132802 
L 739.985412 396.28 
L 740.978118 349.143103 
L 741.970824 338.330716 
L 742.96353 346.657549 
L 743.956236 383.745537 
L 744.948941 374.67274 
L 745.941647 342.1562 
L 746.934353 335.265573 
L 747.927059 346.438452 
L 748.919765 387.208559 
L 749.912471 373.804994 
L 750.905177 344.449987 
L 751.897883 340.076966 
L 752.890589 355.296692 
L 753.883295 420.352436 
L 754.876001 377.495546 
L 755.868707 351.518411 
L 756.861413 351.585816 
L 757.854118 373.899247 
L 758.846824 419.738963 
L 759.83953 373.120079 
L 760.832236 361.386951 
L 761.824942 371.28338 
L 762.817648 392.309379 
L 763.810354 374.660096 
L 764.80306 363.235063 
L 765.795766 374.002786 
L 766.788472 415.767497 
L 767.781178 374.469587 
L 768.773884 352.09842 
L 769.76659 351.526288 
L 770.759295 375.599034 
L 771.752001 424.495847 
L 772.744707 357.226611 
L 773.737413 340.978558 
L 774.730119 343.7197 
L 775.722825 368.454542 
L 776.715531 404.358091 
L 777.708237 355.704715 
L 778.700943 341.375366 
L 779.693649 345.660882 
L 780.686355 371.596732 
L 781.679061 463.331956 
L 782.671767 370.524004 
L 783.664473 355.399335 
L 784.657178 358.890764 
L 786.64259 391.126465 
L 787.635296 389.23254 
L 788.628002 387.949366 
L 789.620708 378.208837 
L 790.613414 363.475297 
L 791.60612 359.326091 
L 792.598826 371.666518 
L 793.591532 429.48247 
L 794.584238 384.402832 
L 795.576944 355.493857 
L 796.56965 350.674021 
L 797.562355 365.345352 
L 798.555061 434.538467 
L 799.547767 382.26579 
L 800.540473 355.614138 
L 801.533179 353.694723 
L 802.525885 373.525997 
L 803.518591 445.223742 
L 804.511297 374.813364 
L 805.504003 357.000001 
L 806.496709 361.402769 
L 807.489415 391.600485 
L 808.482121 408.22029 
L 809.474827 368.294787 
L 810.467532 359.744303 
L 811.460238 370.704071 
L 812.452944 402.274421 
L 813.44565 387.992761 
L 814.438356 369.381459 
L 815.431062 371.11789 
L 816.423768 387.853658 
L 817.416474 385.015491 
L 818.40918 368.857995 
L 819.401886 369.104238 
L 820.394592 393.411545 
L 821.387298 405.783485 
L 822.380004 366.457439 
L 823.372709 354.370557 
L 824.365415 360.62197 
L 825.358121 395.903111 
L 826.350827 413.282557 
L 827.343533 364.010404 
L 828.336239 352.414657 
L 829.328945 357.638234 
L 830.321651 382.369361 
L 831.314357 440.0913 
L 832.307063 385.825706 
L 833.299769 366.955094 
L 834.292475 360.711534 
L 835.285181 362.409144 
L 836.277886 374.83344 
L 837.270592 421.829224 
L 838.263298 397.355105 
L 839.256004 358.007488 
L 840.24871 345.565204 
L 841.241416 348.944935 
L 843.226828 398.276723 
L 844.219534 355.183397 
L 845.21224 340.449396 
L 846.204946 342.902636 
L 847.197652 364.786513 
L 848.190358 409.327195 
L 849.183064 363.503124 
L 850.175769 347.748286 
L 851.168475 351.181057 
L 852.161181 376.022012 
L 853.153887 458.955044 
L 854.146593 378.475582 
L 855.139299 364.303491 
L 856.132005 371.113554 
L 857.124711 392.045035 
L 858.117417 388.756743 
L 859.110123 374.61609 
L 860.102829 375.072025 
L 861.095535 389.007865 
L 862.088241 395.822751 
L 863.080946 380.194993 
L 864.073652 371.87869 
L 865.066358 372.646914 
L 866.059064 380.77831 
L 867.05177 395.403907 
L 868.044476 401.537448 
L 869.037182 380.374752 
L 870.029888 364.23243 
L 871.022594 361.009697 
L 872.0153 374.007331 
L 873.008006 439.458835 
L 874.000712 387.554388 
L 874.993418 356.141259 
L 875.986123 348.541236 
L 876.978829 357.85341 
L 877.971535 396.187386 
L 878.964241 392.326673 
L 879.956947 355.5404 
L 880.949653 345.653668 
L 881.942359 351.908297 
L 882.935065 380.624422 
L 883.927771 417.997014 
L 884.920477 365.005188 
L 885.913183 350.106634 
L 886.905889 351.71648 
L 887.898595 370.399079 
L 888.8913 442.717951 
L 889.884006 387.52485 
L 890.876712 359.805997 
L 891.869418 353.61075 
L 892.862124 362.44346 
L 893.85483 394.77897 
L 894.847536 431.19604 
L 895.840242 373.469782 
L 896.832948 358.712215 
L 897.825654 360.446015 
L 898.81836 378.391556 
L 899.811066 427.702083 
L 900.803772 395.60168 
L 901.796477 370.969492 
L 902.789183 364.794231 
L 903.781889 370.943281 
L 904.774595 389.43004 
L 905.767301 414.541802 
L 906.760007 390.578568 
L 907.752713 371.362233 
L 908.745419 365.946957 
L 909.738125 374.15463 
L 910.730831 402.670529 
L 911.723537 406.594185 
L 912.716243 375.120483 
L 913.708949 366.246802 
L 914.701655 374.247446 
L 915.69436 402.69688 
L 916.687066 397.734912 
L 917.679772 373.891673 
L 918.672478 370.753703 
L 919.665184 386.507126 
L 920.65789 408.010332 
L 921.650596 380.739008 
L 922.643302 368.452591 
L 923.636008 374.57834 
L 924.628714 402.223621 
L 925.62142 401.155261 
L 926.614126 374.683606 
L 927.606832 369.730431 
L 928.599537 381.10812 
L 929.592243 398.740241 
L 930.584949 388.745818 
L 931.577655 381.493544 
L 932.570361 388.033345 
L 933.563067 390.10396 
L 934.555773 374.155577 
L 935.548479 368.700576 
L 936.541185 383.694521 
L 937.533891 461.466388 
L 938.526597 379.296592 
L 939.519303 355.534839 
L 940.512009 353.239311 
L 941.504714 371.43788 
L 942.49742 427.101375 
L 943.490126 368.812083 
L 944.482832 348.785711 
L 945.475538 348.711505 
L 946.468244 368.776612 
L 947.46095 425.839669 
L 948.453656 370.686339 
L 949.446362 352.636758 
L 950.439068 355.319327 
L 951.431774 380.414668 
L 952.42448 468.119222 
L 953.417186 377.145177 
L 954.409891 362.970218 
L 955.402597 370.832314 
L 956.395303 405.413396 
L 957.388009 398.81052 
L 958.380715 371.388071 
L 959.373421 368.270109 
L 960.366127 387.900957 
L 961.358833 430.534789 
L 962.351539 379.441395 
L 963.344245 361.890823 
L 964.336951 363.690549 
L 965.329657 388.793508 
L 966.322363 453.207015 
L 967.315068 374.021511 
L 968.307774 356.659849 
L 969.30048 358.27771 
L 970.293186 381.40808 
L 971.285892 460.989785 
L 972.278598 373.359593 
L 973.271304 355.131537 
L 974.26401 356.968202 
L 975.256716 381.256629 
L 976.249422 454.715695 
L 977.242128 372.463363 
L 978.234834 356.420328 
L 979.22754 361.232804 
L 980.220246 394.675528 
L 981.212951 419.428315 
L 982.205657 367.737051 
L 983.198363 357.955456 
L 984.191069 369.56315 
L 985.183775 426.579783 
L 986.176481 392.209224 
L 987.169187 362.243443 
L 988.161893 358.890546 
L 989.154599 377.253878 
L 990.147305 478.911281 
L 991.140011 383.937744 
L 992.132717 362.603475 
L 993.125423 363.398373 
L 994.118128 384.302296 
L 995.110834 432.583681 
L 996.10354 390.92305 
L 997.096246 374.672319 
L 998.088952 374.408034 
L 1001.06707 398.042871 
L 1002.059776 402.977434 
L 1003.052482 384.795883 
L 1004.045188 370.052986 
L 1005.037894 368.693795 
L 1006.0306 385.89216 
L 1007.023305 450.271424 
L 1008.016011 387.128595 
L 1009.008717 364.291294 
L 1010.001423 362.698674 
L 1010.994129 379.880321 
L 1011.986835 442.21459 
L 1012.979541 393.346218 
L 1013.972247 370.670947 
L 1014.964953 369.122831 
L 1015.957659 383.005747 
L 1016.950365 403.587767 
L 1017.943071 396.410652 
L 1018.935777 387.353808 
L 1019.928482 385.441206 
L 1021.913894 379.933724 
L 1022.9066 384.640786 
L 1023.899306 401.92514 
L 1024.892012 401.730901 
L 1025.884718 380.234963 
L 1026.877424 371.964247 
L 1027.87013 379.256442 
L 1028.862836 403.400645 
L 1029.855542 403.216026 
L 1030.848248 381.523791 
L 1031.840954 376.629796 
L 1032.833659 385.027514 
L 1033.826365 396.314649 
L 1035.811777 384.38958 
L 1036.804483 388.453637 
L 1037.797189 393.812398 
L 1039.782601 380.946534 
L 1040.775307 385.101229 
L 1041.768013 396.769588 
L 1042.760719 394.355113 
L 1043.753425 383.61803 
L 1044.746131 382.747491 
L 1045.738837 390.763201 
L 1046.731542 391.575948 
L 1047.724248 383.888114 
L 1048.716954 385.016776 
L 1049.70966 399.648005 
L 1050.702366 397.876389 
L 1051.695072 376.826739 
L 1052.687778 370.307435 
L 1053.680484 382.421592 
L 1054.67319 440.020318 
L 1055.665896 390.331627 
L 1056.658602 363.408128 
L 1057.651308 359.957546 
L 1058.644014 377.514003 
L 1059.636719 464.640169 
L 1060.629425 376.544133 
L 1061.622131 354.65247 
L 1062.614837 354.14021 
L 1063.607543 374.954642 
L 1064.600249 419.37916 
L 1065.592955 366.624816 
L 1066.585661 349.284089 
L 1067.578367 351.23008 
L 1068.571073 373.701282 
L 1069.563779 402.767103 
L 1070.556485 361.203395 
L 1071.549191 346.921466 
L 1072.541896 350.759542 
L 1074.527308 399.911775 
L 1075.520014 360.562802 
L 1076.51272 348.338503 
L 1077.505426 354.460776 
L 1078.498132 385.112588 
L 1079.490838 405.777449 
L 1080.483544 363.347979 
L 1081.47625 353.663516 
L 1082.468956 363.841448 
L 1083.461662 410.093738 
L 1084.454368 400.30643 
L 1085.447073 364.497 
L 1086.439779 360.032124 
L 1087.432485 377.953227 
L 1088.425191 492.48 
L 1089.417897 382.934263 
L 1090.410603 361.953266 
L 1091.403309 363.958036 
L 1092.396015 392.150679 
L 1093.388721 439.914017 
L 1094.381427 374.257531 
L 1095.374133 360.919126 
L 1096.366839 367.569573 
L 1097.359545 402.635611 
L 1098.35225 422.578687 
L 1099.344956 376.474315 
L 1100.337662 367.518476 
L 1101.330368 376.69209 
L 1102.323074 403.566802 
L 1103.31578 403.974382 
L 1104.308486 385.78457 
L 1105.301192 384.559901 
L 1106.293898 390.678806 
L 1107.286604 386.634329 
L 1108.27931 380.447706 
L 1109.272016 388.285337 
L 1110.264722 414.782886 
L 1111.257428 396.038903 
L 1112.250133 371.821156 
L 1113.242839 367.471373 
L 1114.235545 382.185122 
L 1115.228251 448.641372 
L 1116.220957 391.769069 
L 1117.213663 366.747176 
L 1118.206369 363.938954 
L 1119.199075 380.871145 
L 1120.191781 449.532864 
L 1121.184487 393.719991 
L 1122.177193 369.984846 
L 1123.169899 368.341194 
L 1124.162605 384.068009 
L 1125.15531 417.756925 
L 1127.140722 381.699351 
L 1128.133428 378.848444 
L 1129.126134 382.779415 
L 1130.11884 389.207181 
L 1131.111546 398.698097 
L 1132.104252 406.024846 
L 1134.089664 374.682094 
L 1135.08237 371.48612 
L 1136.075076 385.011124 
L 1137.067782 435.756276 
L 1138.060487 396.933032 
L 1139.053193 369.407546 
L 1140.045899 363.985371 
L 1141.038605 376.735227 
L 1142.031311 425.475729 
L 1143.024017 404.955555 
L 1144.016723 373.013227 
L 1145.009429 366.881984 
L 1146.002135 376.897684 
L 1146.994841 407.005681 
L 1147.987547 412.001934 
L 1148.980253 385.760373 
L 1149.972959 378.571984 
L 1150.965664 382.156267 
L 1151.95837 389.705075 
L 1152.951076 394.932629 
L 1153.943782 397.997415 
L 1154.936488 394.43848 
L 1155.929194 385.813473 
L 1156.9219 381.522708 
L 1157.914606 385.958572 
L 1158.907312 396.853745 
L 1159.900018 397.459173 
L 1160.892724 388.12896 
L 1161.88543 386.330621 
L 1162.878136 392.224004 
L 1163.870841 392.094754 
L 1164.863547 383.864528 
L 1165.856253 383.00156 
L 1167.841665 411.194729 
L 1168.834371 385.291683 
L 1169.827077 371.642255 
L 1170.819783 374.524665 
L 1172.805195 426.569603 
L 1173.797901 381.159397 
L 1174.790607 368.254792 
L 1175.783313 375.022735 
L 1176.776019 406.650622 
L 1177.768724 411.15845 
L 1178.76143 378.465506 
L 1179.754136 372.385118 
L 1180.746842 387.370702 
L 1181.739548 423.670451 
L 1182.732254 387.699583 
L 1183.72496 369.826142 
L 1184.717666 373.099471 
L 1185.710372 403.676241 
L 1186.703078 425.008641 
L 1187.695784 374.32157 
L 1188.68849 361.75412 
L 1189.681196 367.532039 
L 1190.673901 400.580776 
L 1191.666607 427.86408 
L 1192.659313 373.618184 
L 1193.652019 360.666376 
L 1194.644725 365.386809 
L 1195.637431 391.643146 
L 1196.630137 466.371721 
L 1197.622843 384.963682 
L 1198.615549 368.12365 
L 1199.608255 369.549062 
L 1200.600961 387.137893 
L 1201.593667 420.62874 
L 1202.586373 398.564822 
L 1203.579078 381.397642 
L 1204.571784 379.915511 
L 1205.56449 388.490189 
L 1206.557196 395.983814 
L 1207.549902 391.255358 
L 1208.542608 388.351302 
L 1209.535314 394.035266 
L 1210.52802 398.481516 
L 1211.520726 388.581709 
L 1212.513432 379.927295 
L 1213.506138 381.992453 
L 1215.49155 409.42704 
L 1216.484255 393.243276 
L 1217.476961 380.421716 
L 1218.469667 378.412936 
L 1219.462373 385.255213 
L 1220.455079 397.984081 
L 1221.447785 406.781892 
L 1222.440491 397.701424 
L 1223.433197 382.923266 
L 1224.425903 374.087893 
L 1225.418609 375.364166 
L 1226.411315 393.418858 
L 1227.404021 451.254371 
L 1228.396727 389.077779 
L 1229.389432 365.374252 
L 1230.382138 361.029947 
L 1231.374844 373.997701 
L 1232.36755 428.499548 
L 1234.352962 363.466251 
L 1235.345668 356.588636 
L 1236.338374 366.561013 
L 1237.33108 405.941855 
L 1238.323786 414.115211 
L 1239.316492 371.310056 
L 1240.309198 361.518667 
L 1241.301904 367.552863 
L 1242.29461 392.799368 
L 1243.287315 450.426185 
L 1244.280021 394.55694 
L 1245.272727 374.644094 
L 1245.272727 374.644094 
" clip-path="url(#pc2ead51f23)" style="fill: none; stroke: #1f77b4; stroke-width: 1.5; stroke-linecap: square"/>
   </g>
   <g id="patch_3">
    <path d="M 180 512.64 
L 180 69.12 
" style="fill: none; stroke: #000000; stroke-width: 0.8; stroke-linejoin: miter; stroke-linecap: square"/>
   </g>
   <g id="patch_4">
    <path d="M 1296 512.64 
L 1296 69.12 
" style="fill: none; stroke: #000000; stroke-width: 0.8; stroke-linejoin: miter; stroke-linecap: square"/>
   </g>
   <g id="patch_5">
    <path d="M 180 512.64 
L 1296 512.64 
" style="fill: none; stroke: #000000; stroke-width: 0.8; stroke-linejoin: miter; stroke-linecap: square"/>
   </g>
   <g id="patch_6">
    <path d="M 180 69.12 
L 1296 69.12 
" style="fill: none; stroke: #000000; stroke-width: 0.8; stroke-linejoin: miter; stroke-linecap: square"/>
   </g>
   <g id="text_12">
    <!-- source23-receiver20 -->
    <g transform="translate(532.175 60.80125) scale(0.4 -0.4)">
     <defs>
      <path id="DejaVuSans-73" d="M 2834 3397 
L 2834 2853 
Q 2591 2978 2328 3040 
Q 2066 3103 1784 3103 
Q 1356 3103 1142 2972 
Q 928 2841 928 2578 
Q 928 2378 1081 2264 
Q 1234 2150 1697 2047 
L 1894 2003 
Q 2506 1872 2764 1633 
Q 3022 1394 3022 966 
Q 3022 478 2636 193 
Q 2250 -91 1575 -91 
Q 1294 -91 989 -36 
Q 684 19 347 128 
L 347 722 
Q 666 556 975 473 
Q 1284 391 1588 391 
Q 1994 391 2212 530 
Q 2431 669 2431 922 
Q 2431 1156 2273 1281 
Q 2116 1406 1581 1522 
L 1381 1569 
Q 847 1681 609 1914 
Q 372 2147 372 2553 
Q 372 3047 722 3315 
Q 1072 3584 1716 3584 
Q 2034 3584 2315 3537 
Q 2597 3491 2834 3397 
z
" transform="scale(0.015625)"/>
      <path id="DejaVuSans-6f" d="M 1959 3097 
Q 1497 3097 1228 2736 
Q 959 2375 959 1747 
Q 959 1119 1226 758 
Q 1494 397 1959 397 
Q 2419 397 2687 759 
Q 2956 1122 2956 1747 
Q 2956 2369 2687 2733 
Q 2419 3097 1959 3097 
z
M 1959 3584 
Q 2709 3584 3137 3096 
Q 3566 2609 3566 1747 
Q 3566 888 3137 398 
Q 2709 -91 1959 -91 
Q 1206 -91 779 398 
Q 353 888 353 1747 
Q 353 2609 779 3096 
Q 1206 3584 1959 3584 
z
" transform="scale(0.015625)"/>
      <path id="DejaVuSans-75" d="M 544 1381 
L 544 3500 
L 1119 3500 
L 1119 1403 
Q 1119 906 1312 657 
Q 1506 409 1894 409 
Q 2359 409 2629 706 
Q 2900 1003 2900 1516 
L 2900 3500 
L 3475 3500 
L 3475 0 
L 2900 0 
L 2900 538 
Q 2691 219 2414 64 
Q 2138 -91 1772 -91 
Q 1169 -91 856 284 
Q 544 659 544 1381 
z
M 1991 3584 
L 1991 3584 
z
" transform="scale(0.015625)"/>
      <path id="DejaVuSans-72" d="M 2631 2963 
Q 2534 3019 2420 3045 
Q 2306 3072 2169 3072 
Q 1681 3072 1420 2755 
Q 1159 2438 1159 1844 
L 1159 0 
L 581 0 
L 581 3500 
L 1159 3500 
L 1159 2956 
Q 1341 3275 1631 3429 
Q 1922 3584 2338 3584 
Q 2397 3584 2469 3576 
Q 2541 3569 2628 3553 
L 2631 2963 
z
" transform="scale(0.015625)"/>
      <path id="DejaVuSans-63" d="M 3122 3366 
L 3122 2828 
Q 2878 2963 2633 3030 
Q 2388 3097 2138 3097 
Q 1578 3097 1268 2742 
Q 959 2388 959 1747 
Q 959 1106 1268 751 
Q 1578 397 2138 397 
Q 2388 397 2633 464 
Q 2878 531 3122 666 
L 3122 134 
Q 2881 22 2623 -34 
Q 2366 -91 2075 -91 
Q 1284 -91 818 406 
Q 353 903 353 1747 
Q 353 2603 823 3093 
Q 1294 3584 2113 3584 
Q 2378 3584 2631 3529 
Q 2884 3475 3122 3366 
z
" transform="scale(0.015625)"/>
      <path id="DejaVuSans-65" d="M 3597 1894 
L 3597 1613 
L 953 1613 
Q 991 1019 1311 708 
Q 1631 397 2203 397 
Q 2534 397 2845 478 
Q 3156 559 3463 722 
L 3463 178 
Q 3153 47 2828 -22 
Q 2503 -91 2169 -91 
Q 1331 -91 842 396 
Q 353 884 353 1716 
Q 353 2575 817 3079 
Q 1281 3584 2069 3584 
Q 2775 3584 3186 3129 
Q 3597 2675 3597 1894 
z
M 3022 2063 
Q 3016 2534 2758 2815 
Q 2500 3097 2075 3097 
Q 1594 3097 1305 2825 
Q 1016 2553 972 2059 
L 3022 2063 
z
" transform="scale(0.015625)"/>
      <path id="DejaVuSans-33" d="M 2597 2516 
Q 3050 2419 3304 2112 
Q 3559 1806 3559 1356 
Q 3559 666 3084 287 
Q 2609 -91 1734 -91 
Q 1441 -91 1130 -33 
Q 819 25 488 141 
L 488 750 
Q 750 597 1062 519 
Q 1375 441 1716 441 
Q 2309 441 2620 675 
Q 2931 909 2931 1356 
Q 2931 1769 2642 2001 
Q 2353 2234 1838 2234 
L 1294 2234 
L 1294 2753 
L 1863 2753 
Q 2328 2753 2575 2939 
Q 2822 3125 2822 3475 
Q 2822 3834 2567 4026 
Q 2313 4219 1838 4219 
Q 1578 4219 1281 4162 
Q 984 4106 628 3988 
L 628 4550 
Q 988 4650 1302 4700 
Q 1616 4750 1894 4750 
Q 2613 4750 3031 4423 
Q 3450 4097 3450 3541 
Q 3450 3153 3228 2886 
Q 3006 2619 2597 2516 
z
" transform="scale(0.015625)"/>
      <path id="DejaVuSans-2d" d="M 313 2009 
L 1997 2009 
L 1997 1497 
L 313 1497 
L 313 2009 
z
" transform="scale(0.015625)"/>
      <path id="DejaVuSans-69" d="M 603 3500 
L 1178 3500 
L 1178 0 
L 603 0 
L 603 3500 
z
M 603 4863 
L 1178 4863 
L 1178 4134 
L 603 4134 
L 603 4863 
z
" transform="scale(0.015625)"/>
      <path id="DejaVuSans-76" d="M 191 3500 
L 800 3500 
L 1894 563 
L 2988 3500 
L 3597 3500 
L 2284 0 
L 1503 0 
L 191 3500 
z
" transform="scale(0.015625)"/>
     </defs>
     <use xlink:href="#DejaVuSans-73"/>
     <use xlink:href="#DejaVuSans-6f" x="52.099609"/>
     <use xlink:href="#DejaVuSans-75" x="113.28125"/>
     <use xlink:href="#DejaVuSans-72" x="176.660156"/>
     <use xlink:href="#DejaVuSans-63" x="215.523438"/>
     <use xlink:href="#DejaVuSans-65" x="270.503906"/>
     <use xlink:href="#DejaVuSans-32" x="332.027344"/>
     <use xlink:href="#DejaVuSans-33" x="395.650391"/>
     <use xlink:href="#DejaVuSans-2d" x="459.273438"/>
     <use xlink:href="#DejaVuSans-72" x="495.357422"/>
     <use xlink:href="#DejaVuSans-65" x="534.220703"/>
     <use xlink:href="#DejaVuSans-63" x="595.744141"/>
     <use xlink:href="#DejaVuSans-65" x="650.724609"/>
     <use xlink:href="#DejaVuSans-69" x="712.248047"/>
     <use xlink:href="#DejaVuSans-76" x="740.03125"/>
     <use xlink:href="#DejaVuSans-65" x="799.210938"/>
     <use xlink:href="#DejaVuSans-72" x="860.734375"/>
     <use xlink:href="#DejaVuSans-32" x="901.847656"/>
     <use xlink:href="#DejaVuSans-30" x="965.470703"/>
    </g>
   </g>
  </g>
 </g>
 <defs>
  <clipPath id="pc2ead51f23">
   <rect x="180" y="69.12" width="1116" height="443.52"/>
  </clipPath>
 </defs>
</svg>
