<?xml version="1.0" encoding="utf-8" standalone="no"?>
<!DOCTYPE svg PUBLIC "-//W3C//DTD SVG 1.1//EN"
  "http://www.w3.org/Graphics/SVG/1.1/DTD/svg11.dtd">
<svg xmlns:xlink="http://www.w3.org/1999/xlink" width="1440pt" height="576pt" viewBox="0 0 1440 576" xmlns="http://www.w3.org/2000/svg" version="1.1">
 <metadata>
  <rdf:RDF xmlns:dc="http://purl.org/dc/elements/1.1/" xmlns:cc="http://creativecommons.org/ns#" xmlns:rdf="http://www.w3.org/1999/02/22-rdf-syntax-ns#">
   <cc:Work>
    <dc:type rdf:resource="http://purl.org/dc/dcmitype/StillImage"/>
    <dc:date>2024-05-22T04:50:25.208762</dc:date>
    <dc:format>image/svg+xml</dc:format>
    <dc:creator>
     <cc:Agent>
      <dc:title>Matplotlib v3.8.3, https://matplotlib.org/</dc:title>
     </cc:Agent>
    </dc:creator>
   </cc:Work>
  </rdf:RDF>
 </metadata>
 <defs>
  <style type="text/css">*{stroke-linejoin: round; stroke-linecap: butt}</style>
 </defs>
 <g id="figure_1">
  <g id="patch_1">
   <path d="M 0 576 
L 1440 576 
L 1440 0 
L 0 0 
z
" style="fill: #ffffff"/>
  </g>
  <g id="axes_1">
   <g id="patch_2">
    <path d="M 180 512.64 
L 1296 512.64 
L 1296 69.12 
L 180 69.12 
z
" style="fill: #ffffff"/>
   </g>
   <g id="matplotlib.axis_1">
    <g id="xtick_1">
     <g id="line2d_1">
      <defs>
       <path id="m77a816f907" d="M 0 0 
L 0 3.5 
" style="stroke: #000000; stroke-width: 0.8"/>
      </defs>
      <g>
       <use xlink:href="#m77a816f907" x="229.734567" y="512.64" style="stroke: #000000; stroke-width: 0.8"/>
      </g>
     </g>
     <g id="text_1">
      <!-- 0 -->
      <g transform="translate(226.553317 527.238438) scale(0.1 -0.1)">
       <defs>
        <path id="DejaVuSans-30" d="M 2034 4250 
Q 1547 4250 1301 3770 
Q 1056 3291 1056 2328 
Q 1056 1369 1301 889 
Q 1547 409 2034 409 
Q 2525 409 2770 889 
Q 3016 1369 3016 2328 
Q 3016 3291 2770 3770 
Q 2525 4250 2034 4250 
z
M 2034 4750 
Q 2819 4750 3233 4129 
Q 3647 3509 3647 2328 
Q 3647 1150 3233 529 
Q 2819 -91 2034 -91 
Q 1250 -91 836 529 
Q 422 1150 422 2328 
Q 422 3509 836 4129 
Q 1250 4750 2034 4750 
z
" transform="scale(0.015625)"/>
       </defs>
       <use xlink:href="#DejaVuSans-30"/>
      </g>
     </g>
    </g>
    <g id="xtick_2">
     <g id="line2d_2">
      <g>
       <use xlink:href="#m77a816f907" x="433.04074" y="512.64" style="stroke: #000000; stroke-width: 0.8"/>
      </g>
     </g>
     <g id="text_2">
      <!-- 500 -->
      <g transform="translate(423.49699 527.238438) scale(0.1 -0.1)">
       <defs>
        <path id="DejaVuSans-35" d="M 691 4666 
L 3169 4666 
L 3169 4134 
L 1269 4134 
L 1269 2991 
Q 1406 3038 1543 3061 
Q 1681 3084 1819 3084 
Q 2600 3084 3056 2656 
Q 3513 2228 3513 1497 
Q 3513 744 3044 326 
Q 2575 -91 1722 -91 
Q 1428 -91 1123 -41 
Q 819 9 494 109 
L 494 744 
Q 775 591 1075 516 
Q 1375 441 1709 441 
Q 2250 441 2565 725 
Q 2881 1009 2881 1497 
Q 2881 1984 2565 2268 
Q 2250 2553 1709 2553 
Q 1456 2553 1204 2497 
Q 953 2441 691 2322 
L 691 4666 
z
" transform="scale(0.015625)"/>
       </defs>
       <use xlink:href="#DejaVuSans-35"/>
       <use xlink:href="#DejaVuSans-30" x="63.623047"/>
       <use xlink:href="#DejaVuSans-30" x="127.246094"/>
      </g>
     </g>
    </g>
    <g id="xtick_3">
     <g id="line2d_3">
      <g>
       <use xlink:href="#m77a816f907" x="636.346913" y="512.64" style="stroke: #000000; stroke-width: 0.8"/>
      </g>
     </g>
     <g id="text_3">
      <!-- 1000 -->
      <g transform="translate(623.621913 527.238438) scale(0.1 -0.1)">
       <defs>
        <path id="DejaVuSans-31" d="M 794 531 
L 1825 531 
L 1825 4091 
L 703 3866 
L 703 4441 
L 1819 4666 
L 2450 4666 
L 2450 531 
L 3481 531 
L 3481 0 
L 794 0 
L 794 531 
z
" transform="scale(0.015625)"/>
       </defs>
       <use xlink:href="#DejaVuSans-31"/>
       <use xlink:href="#DejaVuSans-30" x="63.623047"/>
       <use xlink:href="#DejaVuSans-30" x="127.246094"/>
       <use xlink:href="#DejaVuSans-30" x="190.869141"/>
      </g>
     </g>
    </g>
    <g id="xtick_4">
     <g id="line2d_4">
      <g>
       <use xlink:href="#m77a816f907" x="839.653087" y="512.64" style="stroke: #000000; stroke-width: 0.8"/>
      </g>
     </g>
     <g id="text_4">
      <!-- 1500 -->
      <g transform="translate(826.928087 527.238438) scale(0.1 -0.1)">
       <use xlink:href="#DejaVuSans-31"/>
       <use xlink:href="#DejaVuSans-35" x="63.623047"/>
       <use xlink:href="#DejaVuSans-30" x="127.246094"/>
       <use xlink:href="#DejaVuSans-30" x="190.869141"/>
      </g>
     </g>
    </g>
    <g id="xtick_5">
     <g id="line2d_5">
      <g>
       <use xlink:href="#m77a816f907" x="1042.95926" y="512.64" style="stroke: #000000; stroke-width: 0.8"/>
      </g>
     </g>
     <g id="text_5">
      <!-- 2000 -->
      <g transform="translate(1030.23426 527.238438) scale(0.1 -0.1)">
       <defs>
        <path id="DejaVuSans-32" d="M 1228 531 
L 3431 531 
L 3431 0 
L 469 0 
L 469 531 
Q 828 903 1448 1529 
Q 2069 2156 2228 2338 
Q 2531 2678 2651 2914 
Q 2772 3150 2772 3378 
Q 2772 3750 2511 3984 
Q 2250 4219 1831 4219 
Q 1534 4219 1204 4116 
Q 875 4013 500 3803 
L 500 4441 
Q 881 4594 1212 4672 
Q 1544 4750 1819 4750 
Q 2544 4750 2975 4387 
Q 3406 4025 3406 3419 
Q 3406 3131 3298 2873 
Q 3191 2616 2906 2266 
Q 2828 2175 2409 1742 
Q 1991 1309 1228 531 
z
" transform="scale(0.015625)"/>
       </defs>
       <use xlink:href="#DejaVuSans-32"/>
       <use xlink:href="#DejaVuSans-30" x="63.623047"/>
       <use xlink:href="#DejaVuSans-30" x="127.246094"/>
       <use xlink:href="#DejaVuSans-30" x="190.869141"/>
      </g>
     </g>
    </g>
    <g id="xtick_6">
     <g id="line2d_6">
      <g>
       <use xlink:href="#m77a816f907" x="1246.265433" y="512.64" style="stroke: #000000; stroke-width: 0.8"/>
      </g>
     </g>
     <g id="text_6">
      <!-- 2500 -->
      <g transform="translate(1233.540433 527.238438) scale(0.1 -0.1)">
       <use xlink:href="#DejaVuSans-32"/>
       <use xlink:href="#DejaVuSans-35" x="63.623047"/>
       <use xlink:href="#DejaVuSans-30" x="127.246094"/>
       <use xlink:href="#DejaVuSans-30" x="190.869141"/>
      </g>
     </g>
    </g>
   </g>
   <g id="matplotlib.axis_2">
    <g id="ytick_1">
     <g id="line2d_7">
      <defs>
       <path id="m4d51a6a9f6" d="M 0 0 
L -3.5 0 
" style="stroke: #000000; stroke-width: 0.8"/>
      </defs>
      <g>
       <use xlink:href="#m4d51a6a9f6" x="180" y="476.052491" style="stroke: #000000; stroke-width: 0.8"/>
      </g>
     </g>
     <g id="text_7">
      <!-- −4 -->
      <g transform="translate(158.257812 479.85171) scale(0.1 -0.1)">
       <defs>
        <path id="DejaVuSans-2212" d="M 678 2272 
L 4684 2272 
L 4684 1741 
L 678 1741 
L 678 2272 
z
" transform="scale(0.015625)"/>
        <path id="DejaVuSans-34" d="M 2419 4116 
L 825 1625 
L 2419 1625 
L 2419 4116 
z
M 2253 4666 
L 3047 4666 
L 3047 1625 
L 3713 1625 
L 3713 1100 
L 3047 1100 
L 3047 0 
L 2419 0 
L 2419 1100 
L 313 1100 
L 313 1709 
L 2253 4666 
z
" transform="scale(0.015625)"/>
       </defs>
       <use xlink:href="#DejaVuSans-2212"/>
       <use xlink:href="#DejaVuSans-34" x="83.789062"/>
      </g>
     </g>
    </g>
    <g id="ytick_2">
     <g id="line2d_8">
      <g>
       <use xlink:href="#m4d51a6a9f6" x="180" y="384.966793" style="stroke: #000000; stroke-width: 0.8"/>
      </g>
     </g>
     <g id="text_8">
      <!-- −2 -->
      <g transform="translate(158.257812 388.766012) scale(0.1 -0.1)">
       <use xlink:href="#DejaVuSans-2212"/>
       <use xlink:href="#DejaVuSans-32" x="83.789062"/>
      </g>
     </g>
    </g>
    <g id="ytick_3">
     <g id="line2d_9">
      <g>
       <use xlink:href="#m4d51a6a9f6" x="180" y="293.881096" style="stroke: #000000; stroke-width: 0.8"/>
      </g>
     </g>
     <g id="text_9">
      <!-- 0 -->
      <g transform="translate(166.6375 297.680315) scale(0.1 -0.1)">
       <use xlink:href="#DejaVuSans-30"/>
      </g>
     </g>
    </g>
    <g id="ytick_4">
     <g id="line2d_10">
      <g>
       <use xlink:href="#m4d51a6a9f6" x="180" y="202.795399" style="stroke: #000000; stroke-width: 0.8"/>
      </g>
     </g>
     <g id="text_10">
      <!-- 2 -->
      <g transform="translate(166.6375 206.594617) scale(0.1 -0.1)">
       <use xlink:href="#DejaVuSans-32"/>
      </g>
     </g>
    </g>
    <g id="ytick_5">
     <g id="line2d_11">
      <g>
       <use xlink:href="#m4d51a6a9f6" x="180" y="111.709701" style="stroke: #000000; stroke-width: 0.8"/>
      </g>
     </g>
     <g id="text_11">
      <!-- 4 -->
      <g transform="translate(166.6375 115.50892) scale(0.1 -0.1)">
       <use xlink:href="#DejaVuSans-34"/>
      </g>
     </g>
    </g>
   </g>
   <g id="line2d_12">
    <path d="M 230.727273 363.382871 
L 231.719979 363.950594 
L 232.712685 363.566467 
L 234.698096 361.229923 
L 235.690802 360.744617 
L 236.683508 359.394304 
L 237.676214 358.945196 
L 238.66892 356.651537 
L 239.661626 355.636616 
L 240.654332 354.120691 
L 241.647038 352.906476 
L 242.639744 351.114046 
L 243.63245 348.424393 
L 244.625156 350.302489 
L 245.617862 348.283665 
L 246.610568 343.281127 
L 247.603273 288.654353 
L 248.595979 253.446188 
L 249.588685 248.438048 
L 250.581391 231.809956 
L 251.574097 206.290167 
L 252.566803 188.764768 
L 253.559509 173.921702 
L 254.552215 165.593499 
L 255.544921 165.309864 
L 256.537627 177.825969 
L 257.530333 199.182434 
L 258.523039 201.870099 
L 259.515745 181.150379 
L 260.50845 175.630572 
L 261.501156 180.599579 
L 263.486568 169.461231 
L 264.479274 172.416955 
L 266.464686 196.561889 
L 267.457392 175.898869 
L 268.450098 159.608789 
L 269.442804 162.929134 
L 270.43551 178.86883 
L 271.428216 188.316445 
L 272.420922 154.29856 
L 273.413627 125.917509 
L 274.406333 114.755197 
L 275.399039 118.429876 
L 276.391745 138.178143 
L 277.384451 149.919741 
L 278.377157 130.354541 
L 280.362569 110.201281 
L 281.355275 97.652237 
L 282.347981 89.28 
L 283.340687 91.271384 
L 284.333393 104.556609 
L 285.326099 119.6673 
L 286.318804 120.775952 
L 287.31151 122.119501 
L 288.304216 147.029585 
L 289.296922 238.262989 
L 290.289628 180.555071 
L 291.282334 203.281073 
L 292.27504 198.450227 
L 293.267746 201.572556 
L 294.260452 207.432731 
L 295.253158 229.039767 
L 296.245864 219.444471 
L 297.23857 200.964439 
L 298.231276 208.083989 
L 299.223981 219.229149 
L 300.216687 212.494608 
L 301.209393 227.95413 
L 302.202099 258.352164 
L 303.194805 222.11393 
L 304.187511 227.410969 
L 305.180217 256.447586 
L 306.172923 250.502365 
L 307.165629 285.279386 
L 308.158335 392.857036 
L 309.151041 276.693561 
L 310.143747 280.527582 
L 311.136453 389.482812 
L 312.129159 295.140388 
L 313.121864 309.502885 
L 314.11457 327.063018 
L 315.107276 316.178268 
L 316.099982 322.780916 
L 317.092688 318.136096 
L 318.085394 325.518136 
L 319.0781 323.982241 
L 320.070806 319.590248 
L 321.063512 321.857298 
L 322.056218 329.266868 
L 323.048924 324.238881 
L 324.04163 327.480087 
L 325.034336 328.723921 
L 326.027041 327.055788 
L 327.019747 336.78097 
L 328.012453 336.306596 
L 329.005159 330.645518 
L 329.997865 335.331582 
L 330.990571 334.471585 
L 331.983277 339.046565 
L 332.975983 331.264652 
L 333.968689 338.696051 
L 334.961395 337.10166 
L 335.954101 334.39711 
L 336.946807 335.814874 
L 337.939513 343.691927 
L 338.932218 342.748678 
L 339.924924 335.643318 
L 340.91763 344.406553 
L 341.910336 334.938126 
L 342.903042 340.622904 
L 343.895748 348.247136 
L 344.888454 335.744397 
L 345.88116 350.859905 
L 346.873866 352.832326 
L 347.866572 346.226276 
L 348.859278 350.274328 
L 349.851984 351.101279 
L 350.84469 351.678732 
L 351.837395 352.957599 
L 352.830101 347.931542 
L 353.822807 356.195723 
L 354.815513 353.354364 
L 355.808219 344.535718 
L 356.800925 360.676639 
L 357.793631 348.035045 
L 358.786337 348.767774 
L 359.779043 364.08617 
L 360.771749 339.626703 
L 361.764455 371.755599 
L 362.757161 366.118518 
L 363.749867 347.193099 
L 365.735278 367.118817 
L 366.727984 353.394285 
L 367.72069 343.858767 
L 368.713396 361.973679 
L 369.706102 349.074883 
L 370.698808 362.381367 
L 371.691514 346.863281 
L 372.68422 353.768421 
L 373.676926 347.953577 
L 374.669632 370.139521 
L 375.662338 361.42732 
L 376.655044 349.303016 
L 377.64775 367.652593 
L 378.640455 363.908678 
L 379.633161 353.659171 
L 380.625867 363.194432 
L 381.618573 386.701519 
L 382.611279 362.045493 
L 383.603985 371.634309 
L 384.596691 348.351404 
L 385.589397 367.996386 
L 386.582103 358.593623 
L 387.574809 367.018153 
L 388.567515 383.689929 
L 389.560221 367.255994 
L 390.552927 364.366308 
L 391.545632 360.795774 
L 392.538338 370.910821 
L 393.531044 369.725756 
L 394.52375 364.677127 
L 395.516456 374.500107 
L 397.501868 362.194413 
L 398.494574 378.745377 
L 399.48728 377.446425 
L 400.479986 367.354027 
L 401.472692 366.636923 
L 402.465398 357.221542 
L 403.458104 362.750094 
L 404.450809 355.7694 
L 405.443515 375.951254 
L 406.436221 360.504329 
L 407.428927 376.72755 
L 408.421633 374.058824 
L 409.414339 355.373676 
L 410.407045 374.949634 
L 411.399751 353.729826 
L 412.392457 377.813579 
L 413.385163 355.748406 
L 414.377869 366.645614 
L 415.370575 374.281977 
L 416.363281 372.412582 
L 417.355986 361.455185 
L 418.348692 391.545687 
L 419.341398 360.6563 
L 420.334104 367.521093 
L 421.32681 382.257058 
L 422.319516 371.228935 
L 423.312222 369.501729 
L 424.304928 380.510299 
L 425.297634 370.371273 
L 426.29034 370.217187 
L 427.283046 378.575649 
L 428.275752 379.465448 
L 429.268458 375.277258 
L 430.261163 371.963883 
L 431.253869 367.083392 
L 432.246575 391.633238 
L 433.239281 370.984469 
L 434.231987 376.760626 
L 435.224693 385.623317 
L 436.217399 369.565074 
L 437.210105 378.019204 
L 438.202811 383.098366 
L 439.195517 394.3801 
L 440.188223 377.863021 
L 441.180929 378.623933 
L 442.173635 384.621272 
L 443.166341 381.909032 
L 444.159046 386.710868 
L 445.151752 368.292812 
L 446.144458 386.568307 
L 447.137164 378.466155 
L 448.12987 401.514514 
L 449.122576 377.171907 
L 450.115282 371.012834 
L 451.107988 386.566592 
L 452.100694 395.96935 
L 453.0934 379.313406 
L 454.086106 375.230794 
L 455.078812 367.009585 
L 456.071518 379.154826 
L 457.064223 389.871847 
L 458.056929 384.926631 
L 459.049635 388.840867 
L 460.042341 377.434143 
L 461.035047 387.513394 
L 462.027753 378.186123 
L 463.020459 388.070824 
L 464.013165 391.057757 
L 465.005871 389.684334 
L 465.998577 383.439791 
L 466.991283 385.197071 
L 467.983989 400.619458 
L 468.976695 398.458209 
L 469.9694 396.731693 
L 470.962106 400.704655 
L 471.954812 388.122062 
L 472.947518 383.736982 
L 473.940224 392.582005 
L 474.93293 390.427819 
L 476.918342 389.362103 
L 477.911048 391.263757 
L 478.903754 375.06812 
L 479.89646 391.354694 
L 480.889166 382.057215 
L 481.881872 379.235866 
L 482.874577 384.615551 
L 483.867283 377.149848 
L 484.859989 374.214584 
L 485.852695 405.172172 
L 487.838107 368.021396 
L 488.830813 390.865103 
L 489.823519 367.934396 
L 490.816225 397.745479 
L 491.808931 379.440242 
L 492.801637 380.468704 
L 493.794343 403.290284 
L 494.787049 400.679204 
L 496.77246 375.161823 
L 497.765166 390.569758 
L 498.757872 403.181308 
L 499.750578 397.815524 
L 500.743284 376.858635 
L 501.73599 402.096051 
L 502.728696 382.127533 
L 503.721402 412.479248 
L 504.714108 372.992854 
L 505.706814 411.567765 
L 506.69952 366.909251 
L 507.692226 440.804251 
L 508.684932 386.174631 
L 509.677637 362.573675 
L 510.670343 380.234418 
L 511.663049 366.123652 
L 512.655755 421.764604 
L 513.648461 350.200652 
L 514.641167 381.469434 
L 515.633873 379.212406 
L 516.626579 373.4942 
L 517.619285 373.832988 
L 518.611991 423.716056 
L 519.604697 348.830202 
L 520.597403 401.464148 
L 521.590109 386.658301 
L 522.582814 401.379095 
L 523.57552 394.264275 
L 524.568226 378.404441 
L 525.560932 437.468962 
L 526.553638 380.961613 
L 527.546344 390.525989 
L 528.53905 403.12551 
L 529.531756 396.097599 
L 530.524462 360.165676 
L 531.517168 386.149079 
L 532.509874 375.752869 
L 533.50258 374.192748 
L 534.495286 429.827751 
L 535.487991 427.439998 
L 536.480697 430.393015 
L 537.473403 356.713826 
L 538.466109 365.617718 
L 539.458815 351.276124 
L 540.451521 341.951176 
L 541.444227 415.110425 
L 542.436933 403.743957 
L 543.429639 369.931187 
L 544.422345 381.625618 
L 545.415051 375.727999 
L 546.407757 368.897298 
L 547.400463 414.690477 
L 548.393168 403.59178 
L 549.385874 426.6451 
L 550.37858 416.432519 
L 551.371286 375.260414 
L 552.363992 459.15182 
L 553.356698 381.916615 
L 555.34211 423.823621 
L 556.334816 381.020525 
L 557.327522 354.391098 
L 558.320228 418.203314 
L 559.312934 384.34095 
L 560.30564 396.596621 
L 561.298345 382.563129 
L 562.291051 422.859295 
L 563.283757 374.765115 
L 564.276463 376.154747 
L 565.269169 400.271278 
L 566.261875 374.096489 
L 568.247287 427.056336 
L 569.239993 385.955689 
L 570.232699 376.184186 
L 571.225405 415.977105 
L 572.218111 399.015592 
L 573.210817 476.949799 
L 574.203523 381.750504 
L 575.196228 389.508157 
L 576.188934 446.492194 
L 577.18164 388.945857 
L 578.174346 432.628489 
L 579.167052 385.205809 
L 580.159758 385.205919 
L 581.152464 395.640842 
L 582.14517 492.48 
L 583.137876 386.266348 
L 584.130582 399.701649 
L 585.123288 383.388738 
L 586.115994 401.991949 
L 587.1087 395.273073 
L 588.101405 387.324376 
L 589.094111 410.315055 
L 590.086817 386.253864 
L 591.079523 415.434597 
L 592.072229 415.242289 
L 593.064935 423.345597 
L 594.057641 392.467773 
L 595.050347 448.302656 
L 596.043053 405.347953 
L 597.035759 404.61733 
L 598.028465 406.481583 
L 599.021171 418.955096 
L 600.013877 413.534867 
L 601.006582 396.904904 
L 601.999288 392.775382 
L 602.991994 425.768093 
L 603.9847 398.461175 
L 604.977406 399.448282 
L 605.970112 404.593661 
L 606.962818 398.410547 
L 607.955524 403.045773 
L 608.94823 404.512971 
L 609.940936 404.148827 
L 610.933642 404.949134 
L 611.926348 403.86194 
L 612.919054 406.276101 
L 613.911759 419.790661 
L 614.904465 416.889527 
L 615.897171 416.390755 
L 616.889877 400.495545 
L 617.882583 409.531009 
L 618.875289 403.496771 
L 619.867995 411.1445 
L 620.860701 403.738476 
L 621.853407 409.963229 
L 622.846113 412.992662 
L 623.838819 426.855244 
L 624.831525 402.748973 
L 625.824231 404.526576 
L 626.816936 410.636257 
L 627.809642 397.711017 
L 628.802348 409.527742 
L 629.795054 409.16736 
L 630.78776 409.658403 
L 631.780466 406.513004 
L 632.773172 412.570746 
L 633.765878 409.636698 
L 634.758584 414.589584 
L 635.75129 413.575401 
L 636.743996 412.381 
L 637.736702 412.284938 
L 638.729408 407.471465 
L 639.722114 413.57936 
L 640.714819 415.845031 
L 641.707525 406.574649 
L 642.700231 416.118505 
L 643.692937 410.755232 
L 644.685643 411.380129 
L 645.678349 402.120398 
L 646.671055 414.223556 
L 647.663761 408.297734 
L 648.656467 416.918824 
L 649.649173 410.12832 
L 650.641879 413.438847 
L 651.634585 415.040366 
L 653.619996 412.852759 
L 654.612702 411.193978 
L 655.605408 411.749142 
L 656.598114 411.707192 
L 657.59082 412.523359 
L 658.583526 415.383076 
L 659.576232 418.761399 
L 660.568938 413.993242 
L 661.561644 414.325447 
L 662.55435 415.124118 
L 663.547056 411.922617 
L 664.539762 413.810381 
L 665.532468 409.514255 
L 666.525173 412.54512 
L 667.517879 414.921809 
L 668.510585 411.260366 
L 669.503291 416.419652 
L 670.495997 415.576 
L 671.488703 410.6766 
L 672.481409 416.585727 
L 673.474115 412.78684 
L 674.466821 414.524825 
L 675.459527 414.554014 
L 676.452233 412.281835 
L 677.444939 418.170595 
L 678.437645 414.213947 
L 679.43035 413.93697 
L 680.423056 416.409681 
L 681.415762 416.197008 
L 682.408468 412.935832 
L 683.401174 415.858837 
L 684.39388 415.835254 
L 685.386586 414.057422 
L 686.379292 415.144685 
L 687.371998 415.383864 
L 688.364704 416.442925 
L 689.35741 413.29052 
L 690.350116 417.042111 
L 691.342822 415.827288 
L 693.328233 416.743522 
L 694.320939 413.428028 
L 695.313645 415.621222 
L 696.306351 415.213785 
L 697.299057 415.6353 
L 698.291763 415.361995 
L 699.284469 415.944472 
L 700.277175 415.82482 
L 701.269881 414.891925 
L 702.262587 416.755339 
L 703.255293 417.276261 
L 704.247999 416.573015 
L 705.240705 415.5973 
L 706.23341 416.767521 
L 707.226116 416.943245 
L 708.218822 418.307512 
L 709.211528 416.740583 
L 710.204234 417.260262 
L 711.19694 416.691266 
L 713.182352 417.691187 
L 714.175058 414.824236 
L 715.167764 416.429785 
L 716.16047 416.272957 
L 717.153176 417.115678 
L 718.145882 417.300444 
L 719.138587 415.366905 
L 720.131293 418.729768 
L 721.123999 417.589281 
L 722.116705 417.252526 
L 723.109411 419.20956 
L 724.102117 416.991597 
L 725.094823 418.032338 
L 726.087529 418.820456 
L 727.080235 418.107855 
L 728.072941 417.796944 
L 729.065647 416.750031 
L 730.058353 419.820605 
L 731.051059 418.47284 
L 732.043764 418.598762 
L 733.03647 416.498548 
L 734.029176 418.840478 
L 735.021882 418.298777 
L 736.014588 418.857943 
L 737.007294 417.929279 
L 738 418.389421 
L 738.992706 418.588325 
L 739.985412 419.919323 
L 740.978118 418.026464 
L 741.970824 418.788958 
L 743.956236 418.461609 
L 744.948941 419.444922 
L 745.941647 419.154747 
L 746.934353 419.039305 
L 747.927059 419.140565 
L 748.919765 418.595616 
L 749.912471 420.505741 
L 750.905177 419.411156 
L 751.897883 420.820857 
L 752.890589 419.934295 
L 753.883295 419.867834 
L 754.876001 419.277599 
L 755.868707 420.579195 
L 756.861413 419.714646 
L 757.854118 420.308089 
L 758.846824 420.510076 
L 759.83953 420.908416 
L 760.832236 420.979072 
L 761.824942 420.211767 
L 762.817648 420.667276 
L 763.810354 420.312079 
L 764.80306 421.443298 
L 765.795766 421.229037 
L 766.788472 420.353366 
L 767.781178 420.94662 
L 768.773884 421.287662 
L 769.76659 420.755693 
L 770.759295 421.866409 
L 771.752001 421.123285 
L 772.744707 421.468989 
L 773.737413 420.894175 
L 774.730119 420.563866 
L 775.722825 421.539974 
L 776.715531 420.623737 
L 777.708237 421.011894 
L 778.700943 422.853781 
L 779.693649 421.335334 
L 781.679061 421.858293 
L 782.671767 422.920968 
L 783.664473 422.564651 
L 784.657178 421.378724 
L 785.649884 421.375729 
L 786.64259 421.628703 
L 787.635296 422.606187 
L 788.628002 422.940171 
L 789.620708 421.795475 
L 790.613414 421.62199 
L 791.60612 421.032125 
L 792.598826 421.511326 
L 793.591532 422.610812 
L 794.584238 422.047301 
L 795.576944 422.813635 
L 796.56965 423.031098 
L 797.562355 422.811173 
L 798.555061 422.345993 
L 799.547767 421.700488 
L 801.533179 423.524139 
L 802.525885 424.117638 
L 804.511297 422.261952 
L 805.504003 423.122333 
L 806.496709 423.55283 
L 807.489415 423.589333 
L 808.482121 423.852938 
L 809.474827 423.598144 
L 810.467532 423.110487 
L 811.460238 423.719565 
L 812.452944 421.984029 
L 813.44565 425.012588 
L 814.438356 424.103823 
L 815.431062 423.574262 
L 816.423768 424.224017 
L 818.40918 424.295161 
L 819.401886 425.239543 
L 820.394592 424.266954 
L 821.387298 424.830315 
L 822.380004 423.552089 
L 823.372709 424.035213 
L 824.365415 424.324548 
L 826.350827 423.654219 
L 827.343533 425.408398 
L 828.336239 422.770878 
L 829.328945 423.964342 
L 830.321651 424.170341 
L 831.314357 424.17679 
L 832.307063 424.902944 
L 833.299769 424.023118 
L 834.292475 424.402222 
L 836.277886 425.345979 
L 837.270592 424.744842 
L 838.263298 425.693617 
L 839.256004 424.153554 
L 841.241416 426.455907 
L 842.234122 424.687932 
L 843.226828 424.916006 
L 844.219534 424.960073 
L 845.21224 426.369731 
L 846.204946 426.052435 
L 847.197652 425.129259 
L 848.190358 425.91039 
L 850.175769 426.526475 
L 851.168475 424.451719 
L 853.153887 426.835956 
L 854.146593 426.319048 
L 855.139299 424.750479 
L 856.132005 427.251924 
L 857.124711 426.299837 
L 858.117417 426.186845 
L 859.110123 426.854835 
L 860.102829 424.757623 
L 861.095535 426.15606 
L 862.088241 425.66432 
L 863.080946 425.993852 
L 864.073652 426.155277 
L 865.066358 426.867519 
L 866.059064 426.478263 
L 867.05177 426.256726 
L 868.044476 426.831226 
L 870.029888 426.292173 
L 871.022594 426.34865 
L 872.0153 425.651383 
L 873.008006 426.214572 
L 874.000712 427.820413 
L 874.993418 425.4912 
L 875.986123 427.496511 
L 876.978829 427.834046 
L 877.971535 426.461771 
L 878.964241 427.203358 
L 879.956947 425.283028 
L 880.949653 427.704173 
L 881.942359 426.131229 
L 882.935065 428.15369 
L 883.927771 426.935095 
L 884.920477 427.658864 
L 885.913183 427.892995 
L 886.905889 428.434211 
L 887.898595 427.431089 
L 888.8913 426.101693 
L 889.884006 427.551116 
L 890.876712 427.15283 
L 891.869418 427.893195 
L 892.862124 428.047532 
L 893.85483 429.152826 
L 894.847536 429.005262 
L 896.832948 427.063645 
L 897.825654 428.248223 
L 898.81836 427.929494 
L 899.811066 428.857908 
L 900.803772 429.949138 
L 901.796477 427.779059 
L 902.789183 428.402115 
L 903.781889 429.57017 
L 904.774595 429.031935 
L 905.767301 429.184196 
L 906.760007 427.12904 
L 907.752713 428.954011 
L 908.745419 427.789109 
L 909.738125 429.663856 
L 910.730831 427.620685 
L 911.723537 428.495364 
L 912.716243 426.044013 
L 913.708949 429.157418 
L 914.701655 426.74762 
L 915.69436 428.889164 
L 916.687066 427.956232 
L 917.679772 429.899195 
L 918.672478 428.301955 
L 919.665184 427.848538 
L 920.65789 428.715551 
L 921.650596 428.618903 
L 922.643302 428.003994 
L 923.636008 429.729956 
L 924.628714 427.81027 
L 925.62142 429.010933 
L 926.614126 429.404559 
L 927.606832 429.365938 
L 928.599537 428.573764 
L 929.592243 429.92702 
L 930.584949 429.551679 
L 931.577655 428.59704 
L 932.570361 429.133687 
L 933.563067 430.211524 
L 934.555773 429.174658 
L 935.548479 429.356474 
L 936.541185 428.796029 
L 937.533891 428.088547 
L 938.526597 429.28901 
L 939.519303 430.006461 
L 940.512009 430.452116 
L 941.504714 430.101136 
L 942.49742 429.118424 
L 943.490126 429.833292 
L 944.482832 429.381404 
L 946.468244 430.54886 
L 947.46095 429.250393 
L 948.453656 430.00236 
L 949.446362 429.314146 
L 950.439068 430.435541 
L 951.431774 429.661126 
L 952.42448 429.843677 
L 953.417186 431.426878 
L 954.409891 428.888099 
L 955.402597 430.281312 
L 956.395303 430.953274 
L 957.388009 430.141194 
L 958.380715 429.988095 
L 959.373421 430.507237 
L 960.366127 430.89809 
L 961.358833 429.412671 
L 962.351539 430.437236 
L 963.344245 429.866367 
L 964.336951 431.339597 
L 965.329657 431.08301 
L 966.322363 430.675095 
L 967.315068 430.604103 
L 968.307774 430.309032 
L 969.30048 432.006143 
L 970.293186 430.451055 
L 971.285892 431.08687 
L 972.278598 429.600436 
L 973.271304 430.603191 
L 974.26401 431.027203 
L 976.249422 431.503159 
L 977.242128 431.398499 
L 978.234834 430.65608 
L 979.22754 430.394976 
L 980.220246 431.196538 
L 981.212951 430.865024 
L 983.198363 430.669482 
L 984.191069 431.208608 
L 985.183775 431.901775 
L 986.176481 432.440443 
L 987.169187 431.982649 
L 988.161893 431.044118 
L 989.154599 430.940044 
L 990.147305 431.51942 
L 991.140011 432.249632 
L 992.132717 431.080242 
L 993.125423 432.184902 
L 994.118128 430.435461 
L 995.110834 431.394755 
L 996.10354 431.916746 
L 997.096246 432.097674 
L 998.088952 431.340827 
L 999.081658 431.536526 
L 1000.074364 431.032583 
L 1001.06707 431.074264 
L 1002.059776 432.655267 
L 1003.052482 430.183504 
L 1004.045188 431.052934 
L 1005.037894 431.036866 
L 1006.0306 431.929965 
L 1007.023305 432.218888 
L 1008.016011 430.806172 
L 1009.008717 431.078415 
L 1010.001423 430.515359 
L 1010.994129 430.66624 
L 1011.986835 431.714264 
L 1012.979541 430.194693 
L 1013.972247 431.852852 
L 1014.964953 430.527053 
L 1015.957659 431.534147 
L 1016.950365 433.120519 
L 1017.943071 431.372423 
L 1018.935777 431.289447 
L 1019.928482 432.248608 
L 1020.921188 433.016529 
L 1021.913894 431.448324 
L 1022.9066 433.365762 
L 1023.899306 431.996796 
L 1024.892012 432.712276 
L 1025.884718 430.932861 
L 1026.877424 431.654822 
L 1027.87013 431.704449 
L 1028.862836 433.254947 
L 1029.855542 431.725775 
L 1030.848248 432.757136 
L 1031.840954 432.056108 
L 1032.833659 431.778874 
L 1033.826365 433.893725 
L 1034.819071 432.451939 
L 1035.811777 433.737936 
L 1036.804483 431.826053 
L 1037.797189 433.054926 
L 1038.789895 432.216221 
L 1040.775307 431.398935 
L 1041.768013 433.550398 
L 1042.760719 432.464879 
L 1043.753425 432.191193 
L 1044.746131 433.438768 
L 1045.738837 432.086745 
L 1046.731542 433.715298 
L 1047.724248 431.86511 
L 1049.70966 432.298475 
L 1051.695072 432.909754 
L 1052.687778 431.796983 
L 1053.680484 433.746092 
L 1054.67319 433.957001 
L 1055.665896 432.610174 
L 1056.658602 432.61033 
L 1057.651308 433.970452 
L 1058.644014 432.52053 
L 1059.636719 432.255338 
L 1060.629425 433.099214 
L 1061.622131 432.84327 
L 1062.614837 433.305153 
L 1063.607543 432.91212 
L 1065.592955 435.581372 
L 1066.585661 432.091027 
L 1067.578367 434.290214 
L 1068.571073 432.818817 
L 1069.563779 432.157669 
L 1070.556485 432.83534 
L 1071.549191 434.69435 
L 1072.541896 434.346359 
L 1073.534602 433.380283 
L 1075.520014 432.727464 
L 1076.51272 432.11997 
L 1077.505426 434.574245 
L 1078.498132 434.823178 
L 1079.490838 434.678135 
L 1080.483544 433.98868 
L 1081.47625 434.259196 
L 1082.468956 433.035939 
L 1083.461662 433.951589 
L 1084.454368 433.969476 
L 1085.447073 433.416575 
L 1086.439779 433.506653 
L 1087.432485 434.177762 
L 1088.425191 433.404613 
L 1089.417897 433.103196 
L 1090.410603 433.07278 
L 1091.403309 433.829355 
L 1092.396015 432.947059 
L 1093.388721 434.349765 
L 1094.381427 434.102133 
L 1095.374133 432.99861 
L 1096.366839 433.271044 
L 1097.359545 434.156567 
L 1098.35225 434.318808 
L 1099.344956 433.08491 
L 1100.337662 433.941815 
L 1101.330368 435.007785 
L 1102.323074 434.772984 
L 1103.31578 433.818475 
L 1104.308486 431.599657 
L 1105.301192 433.345068 
L 1106.293898 432.68845 
L 1107.286604 435.249022 
L 1108.27931 433.386626 
L 1109.272016 434.141493 
L 1110.264722 433.732129 
L 1111.257428 432.523489 
L 1112.250133 433.265135 
L 1113.242839 435.554385 
L 1114.235545 432.805178 
L 1115.228251 433.204981 
L 1116.220957 433.364223 
L 1117.213663 433.353021 
L 1118.206369 434.548951 
L 1119.199075 433.25709 
L 1120.191781 435.498649 
L 1121.184487 433.781299 
L 1122.177193 435.492119 
L 1123.169899 433.763866 
L 1124.162605 434.439867 
L 1125.15531 433.281608 
L 1126.148016 433.799091 
L 1127.140722 432.778165 
L 1129.126134 434.857984 
L 1130.11884 434.655932 
L 1131.111546 434.143941 
L 1132.104252 435.130324 
L 1133.096958 432.862397 
L 1134.089664 435.671633 
L 1135.08237 433.498915 
L 1136.075076 433.90727 
L 1137.067782 434.590327 
L 1138.060487 433.886511 
L 1139.053193 434.881939 
L 1140.045899 432.442884 
L 1141.038605 434.821419 
L 1142.031311 435.278426 
L 1143.024017 434.23211 
L 1144.016723 434.697033 
L 1145.009429 432.196741 
L 1146.002135 434.879472 
L 1146.994841 433.941111 
L 1147.987547 435.315134 
L 1148.980253 435.360821 
L 1149.972959 433.406769 
L 1150.965664 433.365386 
L 1151.95837 435.05321 
L 1152.951076 434.151454 
L 1153.943782 433.622236 
L 1154.936488 434.056377 
L 1155.929194 434.337938 
L 1156.9219 435.405896 
L 1157.914606 433.601522 
L 1158.907312 434.626634 
L 1159.900018 433.461883 
L 1160.892724 434.211534 
L 1161.88543 436.217638 
L 1162.878136 434.535731 
L 1163.870841 435.812192 
L 1164.863547 433.724276 
L 1165.856253 435.44639 
L 1166.848959 434.96035 
L 1167.841665 433.462116 
L 1168.834371 435.051894 
L 1169.827077 435.824651 
L 1170.819783 434.253676 
L 1171.812489 435.334205 
L 1172.805195 434.297315 
L 1173.797901 434.883264 
L 1174.790607 434.555899 
L 1175.783313 435.121218 
L 1177.768724 433.512295 
L 1178.76143 433.543167 
L 1179.754136 434.477045 
L 1180.746842 433.707736 
L 1181.739548 433.964647 
L 1182.732254 434.455332 
L 1183.72496 436.256446 
L 1184.717666 434.16777 
L 1185.710372 434.908384 
L 1186.703078 434.940217 
L 1187.695784 435.336258 
L 1188.68849 434.161369 
L 1189.681196 434.039797 
L 1190.673901 434.11662 
L 1191.666607 434.653867 
L 1192.659313 435.814201 
L 1193.652019 432.52982 
L 1194.644725 434.92438 
L 1195.637431 434.688321 
L 1196.630137 434.039242 
L 1197.622843 434.406216 
L 1199.608255 434.291841 
L 1200.600961 433.106618 
L 1201.593667 434.780672 
L 1202.586373 433.761566 
L 1203.579078 435.748956 
L 1204.571784 434.566439 
L 1205.56449 435.553524 
L 1206.557196 435.962475 
L 1207.549902 435.64199 
L 1208.542608 436.183258 
L 1209.535314 435.71176 
L 1210.52802 434.475411 
L 1211.520726 434.462539 
L 1212.513432 435.562822 
L 1213.506138 434.670225 
L 1214.498844 434.823567 
L 1215.49155 435.281308 
L 1216.484255 435.13166 
L 1217.476961 435.84871 
L 1219.462373 433.194558 
L 1220.455079 434.83913 
L 1221.447785 434.733023 
L 1222.440491 433.9859 
L 1223.433197 434.682617 
L 1224.425903 435.58277 
L 1225.418609 435.342218 
L 1226.411315 435.36081 
L 1227.404021 433.704418 
L 1228.396727 434.106004 
L 1229.389432 435.041755 
L 1230.382138 434.529985 
L 1231.374844 435.268073 
L 1232.36755 436.476413 
L 1233.360256 433.69674 
L 1234.352962 435.910469 
L 1235.345668 436.422919 
L 1236.338374 434.645161 
L 1237.33108 433.800051 
L 1238.323786 433.309851 
L 1239.316492 434.825778 
L 1240.309198 434.589475 
L 1241.301904 435.547555 
L 1242.29461 433.636297 
L 1243.287315 435.045161 
L 1244.280021 435.451004 
L 1245.272727 433.524008 
L 1245.272727 433.524008 
" clip-path="url(#p556eb07b78)" style="fill: none; stroke: #1f77b4; stroke-width: 1.5; stroke-linecap: square"/>
   </g>
   <g id="patch_3">
    <path d="M 180 512.64 
L 180 69.12 
" style="fill: none; stroke: #000000; stroke-width: 0.8; stroke-linejoin: miter; stroke-linecap: square"/>
   </g>
   <g id="patch_4">
    <path d="M 1296 512.64 
L 1296 69.12 
" style="fill: none; stroke: #000000; stroke-width: 0.8; stroke-linejoin: miter; stroke-linecap: square"/>
   </g>
   <g id="patch_5">
    <path d="M 180 512.64 
L 1296 512.64 
" style="fill: none; stroke: #000000; stroke-width: 0.8; stroke-linejoin: miter; stroke-linecap: square"/>
   </g>
   <g id="patch_6">
    <path d="M 180 69.12 
L 1296 69.12 
" style="fill: none; stroke: #000000; stroke-width: 0.8; stroke-linejoin: miter; stroke-linecap: square"/>
   </g>
   <g id="text_12">
    <!-- source23-receiver24 -->
    <g transform="translate(532.175 60.80125) scale(0.4 -0.4)">
     <defs>
      <path id="DejaVuSans-73" d="M 2834 3397 
L 2834 2853 
Q 2591 2978 2328 3040 
Q 2066 3103 1784 3103 
Q 1356 3103 1142 2972 
Q 928 2841 928 2578 
Q 928 2378 1081 2264 
Q 1234 2150 1697 2047 
L 1894 2003 
Q 2506 1872 2764 1633 
Q 3022 1394 3022 966 
Q 3022 478 2636 193 
Q 2250 -91 1575 -91 
Q 1294 -91 989 -36 
Q 684 19 347 128 
L 347 722 
Q 666 556 975 473 
Q 1284 391 1588 391 
Q 1994 391 2212 530 
Q 2431 669 2431 922 
Q 2431 1156 2273 1281 
Q 2116 1406 1581 1522 
L 1381 1569 
Q 847 1681 609 1914 
Q 372 2147 372 2553 
Q 372 3047 722 3315 
Q 1072 3584 1716 3584 
Q 2034 3584 2315 3537 
Q 2597 3491 2834 3397 
z
" transform="scale(0.015625)"/>
      <path id="DejaVuSans-6f" d="M 1959 3097 
Q 1497 3097 1228 2736 
Q 959 2375 959 1747 
Q 959 1119 1226 758 
Q 1494 397 1959 397 
Q 2419 397 2687 759 
Q 2956 1122 2956 1747 
Q 2956 2369 2687 2733 
Q 2419 3097 1959 3097 
z
M 1959 3584 
Q 2709 3584 3137 3096 
Q 3566 2609 3566 1747 
Q 3566 888 3137 398 
Q 2709 -91 1959 -91 
Q 1206 -91 779 398 
Q 353 888 353 1747 
Q 353 2609 779 3096 
Q 1206 3584 1959 3584 
z
" transform="scale(0.015625)"/>
      <path id="DejaVuSans-75" d="M 544 1381 
L 544 3500 
L 1119 3500 
L 1119 1403 
Q 1119 906 1312 657 
Q 1506 409 1894 409 
Q 2359 409 2629 706 
Q 2900 1003 2900 1516 
L 2900 3500 
L 3475 3500 
L 3475 0 
L 2900 0 
L 2900 538 
Q 2691 219 2414 64 
Q 2138 -91 1772 -91 
Q 1169 -91 856 284 
Q 544 659 544 1381 
z
M 1991 3584 
L 1991 3584 
z
" transform="scale(0.015625)"/>
      <path id="DejaVuSans-72" d="M 2631 2963 
Q 2534 3019 2420 3045 
Q 2306 3072 2169 3072 
Q 1681 3072 1420 2755 
Q 1159 2438 1159 1844 
L 1159 0 
L 581 0 
L 581 3500 
L 1159 3500 
L 1159 2956 
Q 1341 3275 1631 3429 
Q 1922 3584 2338 3584 
Q 2397 3584 2469 3576 
Q 2541 3569 2628 3553 
L 2631 2963 
z
" transform="scale(0.015625)"/>
      <path id="DejaVuSans-63" d="M 3122 3366 
L 3122 2828 
Q 2878 2963 2633 3030 
Q 2388 3097 2138 3097 
Q 1578 3097 1268 2742 
Q 959 2388 959 1747 
Q 959 1106 1268 751 
Q 1578 397 2138 397 
Q 2388 397 2633 464 
Q 2878 531 3122 666 
L 3122 134 
Q 2881 22 2623 -34 
Q 2366 -91 2075 -91 
Q 1284 -91 818 406 
Q 353 903 353 1747 
Q 353 2603 823 3093 
Q 1294 3584 2113 3584 
Q 2378 3584 2631 3529 
Q 2884 3475 3122 3366 
z
" transform="scale(0.015625)"/>
      <path id="DejaVuSans-65" d="M 3597 1894 
L 3597 1613 
L 953 1613 
Q 991 1019 1311 708 
Q 1631 397 2203 397 
Q 2534 397 2845 478 
Q 3156 559 3463 722 
L 3463 178 
Q 3153 47 2828 -22 
Q 2503 -91 2169 -91 
Q 1331 -91 842 396 
Q 353 884 353 1716 
Q 353 2575 817 3079 
Q 1281 3584 2069 3584 
Q 2775 3584 3186 3129 
Q 3597 2675 3597 1894 
z
M 3022 2063 
Q 3016 2534 2758 2815 
Q 2500 3097 2075 3097 
Q 1594 3097 1305 2825 
Q 1016 2553 972 2059 
L 3022 2063 
z
" transform="scale(0.015625)"/>
      <path id="DejaVuSans-33" d="M 2597 2516 
Q 3050 2419 3304 2112 
Q 3559 1806 3559 1356 
Q 3559 666 3084 287 
Q 2609 -91 1734 -91 
Q 1441 -91 1130 -33 
Q 819 25 488 141 
L 488 750 
Q 750 597 1062 519 
Q 1375 441 1716 441 
Q 2309 441 2620 675 
Q 2931 909 2931 1356 
Q 2931 1769 2642 2001 
Q 2353 2234 1838 2234 
L 1294 2234 
L 1294 2753 
L 1863 2753 
Q 2328 2753 2575 2939 
Q 2822 3125 2822 3475 
Q 2822 3834 2567 4026 
Q 2313 4219 1838 4219 
Q 1578 4219 1281 4162 
Q 984 4106 628 3988 
L 628 4550 
Q 988 4650 1302 4700 
Q 1616 4750 1894 4750 
Q 2613 4750 3031 4423 
Q 3450 4097 3450 3541 
Q 3450 3153 3228 2886 
Q 3006 2619 2597 2516 
z
" transform="scale(0.015625)"/>
      <path id="DejaVuSans-2d" d="M 313 2009 
L 1997 2009 
L 1997 1497 
L 313 1497 
L 313 2009 
z
" transform="scale(0.015625)"/>
      <path id="DejaVuSans-69" d="M 603 3500 
L 1178 3500 
L 1178 0 
L 603 0 
L 603 3500 
z
M 603 4863 
L 1178 4863 
L 1178 4134 
L 603 4134 
L 603 4863 
z
" transform="scale(0.015625)"/>
      <path id="DejaVuSans-76" d="M 191 3500 
L 800 3500 
L 1894 563 
L 2988 3500 
L 3597 3500 
L 2284 0 
L 1503 0 
L 191 3500 
z
" transform="scale(0.015625)"/>
     </defs>
     <use xlink:href="#DejaVuSans-73"/>
     <use xlink:href="#DejaVuSans-6f" x="52.099609"/>
     <use xlink:href="#DejaVuSans-75" x="113.28125"/>
     <use xlink:href="#DejaVuSans-72" x="176.660156"/>
     <use xlink:href="#DejaVuSans-63" x="215.523438"/>
     <use xlink:href="#DejaVuSans-65" x="270.503906"/>
     <use xlink:href="#DejaVuSans-32" x="332.027344"/>
     <use xlink:href="#DejaVuSans-33" x="395.650391"/>
     <use xlink:href="#DejaVuSans-2d" x="459.273438"/>
     <use xlink:href="#DejaVuSans-72" x="495.357422"/>
     <use xlink:href="#DejaVuSans-65" x="534.220703"/>
     <use xlink:href="#DejaVuSans-63" x="595.744141"/>
     <use xlink:href="#DejaVuSans-65" x="650.724609"/>
     <use xlink:href="#DejaVuSans-69" x="712.248047"/>
     <use xlink:href="#DejaVuSans-76" x="740.03125"/>
     <use xlink:href="#DejaVuSans-65" x="799.210938"/>
     <use xlink:href="#DejaVuSans-72" x="860.734375"/>
     <use xlink:href="#DejaVuSans-32" x="901.847656"/>
     <use xlink:href="#DejaVuSans-34" x="965.470703"/>
    </g>
   </g>
  </g>
 </g>
 <defs>
  <clipPath id="p556eb07b78">
   <rect x="180" y="69.12" width="1116" height="443.52"/>
  </clipPath>
 </defs>
</svg>
