<?xml version="1.0" encoding="utf-8" standalone="no"?>
<!DOCTYPE svg PUBLIC "-//W3C//DTD SVG 1.1//EN"
  "http://www.w3.org/Graphics/SVG/1.1/DTD/svg11.dtd">
<svg xmlns:xlink="http://www.w3.org/1999/xlink" width="1440pt" height="576pt" viewBox="0 0 1440 576" xmlns="http://www.w3.org/2000/svg" version="1.1">
 <metadata>
  <rdf:RDF xmlns:dc="http://purl.org/dc/elements/1.1/" xmlns:cc="http://creativecommons.org/ns#" xmlns:rdf="http://www.w3.org/1999/02/22-rdf-syntax-ns#">
   <cc:Work>
    <dc:type rdf:resource="http://purl.org/dc/dcmitype/StillImage"/>
    <dc:date>2024-05-22T04:50:23.645861</dc:date>
    <dc:format>image/svg+xml</dc:format>
    <dc:creator>
     <cc:Agent>
      <dc:title>Matplotlib v3.8.3, https://matplotlib.org/</dc:title>
     </cc:Agent>
    </dc:creator>
   </cc:Work>
  </rdf:RDF>
 </metadata>
 <defs>
  <style type="text/css">*{stroke-linejoin: round; stroke-linecap: butt}</style>
 </defs>
 <g id="figure_1">
  <g id="patch_1">
   <path d="M 0 576 
L 1440 576 
L 1440 0 
L 0 0 
z
" style="fill: #ffffff"/>
  </g>
  <g id="axes_1">
   <g id="patch_2">
    <path d="M 180 512.64 
L 1296 512.64 
L 1296 69.12 
L 180 69.12 
z
" style="fill: #ffffff"/>
   </g>
   <g id="matplotlib.axis_1">
    <g id="xtick_1">
     <g id="line2d_1">
      <defs>
       <path id="m1d51678b02" d="M 0 0 
L 0 3.5 
" style="stroke: #000000; stroke-width: 0.8"/>
      </defs>
      <g>
       <use xlink:href="#m1d51678b02" x="229.734567" y="512.64" style="stroke: #000000; stroke-width: 0.8"/>
      </g>
     </g>
     <g id="text_1">
      <!-- 0 -->
      <g transform="translate(226.553317 527.238438) scale(0.1 -0.1)">
       <defs>
        <path id="DejaVuSans-30" d="M 2034 4250 
Q 1547 4250 1301 3770 
Q 1056 3291 1056 2328 
Q 1056 1369 1301 889 
Q 1547 409 2034 409 
Q 2525 409 2770 889 
Q 3016 1369 3016 2328 
Q 3016 3291 2770 3770 
Q 2525 4250 2034 4250 
z
M 2034 4750 
Q 2819 4750 3233 4129 
Q 3647 3509 3647 2328 
Q 3647 1150 3233 529 
Q 2819 -91 2034 -91 
Q 1250 -91 836 529 
Q 422 1150 422 2328 
Q 422 3509 836 4129 
Q 1250 4750 2034 4750 
z
" transform="scale(0.015625)"/>
       </defs>
       <use xlink:href="#DejaVuSans-30"/>
      </g>
     </g>
    </g>
    <g id="xtick_2">
     <g id="line2d_2">
      <g>
       <use xlink:href="#m1d51678b02" x="433.04074" y="512.64" style="stroke: #000000; stroke-width: 0.8"/>
      </g>
     </g>
     <g id="text_2">
      <!-- 500 -->
      <g transform="translate(423.49699 527.238438) scale(0.1 -0.1)">
       <defs>
        <path id="DejaVuSans-35" d="M 691 4666 
L 3169 4666 
L 3169 4134 
L 1269 4134 
L 1269 2991 
Q 1406 3038 1543 3061 
Q 1681 3084 1819 3084 
Q 2600 3084 3056 2656 
Q 3513 2228 3513 1497 
Q 3513 744 3044 326 
Q 2575 -91 1722 -91 
Q 1428 -91 1123 -41 
Q 819 9 494 109 
L 494 744 
Q 775 591 1075 516 
Q 1375 441 1709 441 
Q 2250 441 2565 725 
Q 2881 1009 2881 1497 
Q 2881 1984 2565 2268 
Q 2250 2553 1709 2553 
Q 1456 2553 1204 2497 
Q 953 2441 691 2322 
L 691 4666 
z
" transform="scale(0.015625)"/>
       </defs>
       <use xlink:href="#DejaVuSans-35"/>
       <use xlink:href="#DejaVuSans-30" x="63.623047"/>
       <use xlink:href="#DejaVuSans-30" x="127.246094"/>
      </g>
     </g>
    </g>
    <g id="xtick_3">
     <g id="line2d_3">
      <g>
       <use xlink:href="#m1d51678b02" x="636.346913" y="512.64" style="stroke: #000000; stroke-width: 0.8"/>
      </g>
     </g>
     <g id="text_3">
      <!-- 1000 -->
      <g transform="translate(623.621913 527.238438) scale(0.1 -0.1)">
       <defs>
        <path id="DejaVuSans-31" d="M 794 531 
L 1825 531 
L 1825 4091 
L 703 3866 
L 703 4441 
L 1819 4666 
L 2450 4666 
L 2450 531 
L 3481 531 
L 3481 0 
L 794 0 
L 794 531 
z
" transform="scale(0.015625)"/>
       </defs>
       <use xlink:href="#DejaVuSans-31"/>
       <use xlink:href="#DejaVuSans-30" x="63.623047"/>
       <use xlink:href="#DejaVuSans-30" x="127.246094"/>
       <use xlink:href="#DejaVuSans-30" x="190.869141"/>
      </g>
     </g>
    </g>
    <g id="xtick_4">
     <g id="line2d_4">
      <g>
       <use xlink:href="#m1d51678b02" x="839.653087" y="512.64" style="stroke: #000000; stroke-width: 0.8"/>
      </g>
     </g>
     <g id="text_4">
      <!-- 1500 -->
      <g transform="translate(826.928087 527.238438) scale(0.1 -0.1)">
       <use xlink:href="#DejaVuSans-31"/>
       <use xlink:href="#DejaVuSans-35" x="63.623047"/>
       <use xlink:href="#DejaVuSans-30" x="127.246094"/>
       <use xlink:href="#DejaVuSans-30" x="190.869141"/>
      </g>
     </g>
    </g>
    <g id="xtick_5">
     <g id="line2d_5">
      <g>
       <use xlink:href="#m1d51678b02" x="1042.95926" y="512.64" style="stroke: #000000; stroke-width: 0.8"/>
      </g>
     </g>
     <g id="text_5">
      <!-- 2000 -->
      <g transform="translate(1030.23426 527.238438) scale(0.1 -0.1)">
       <defs>
        <path id="DejaVuSans-32" d="M 1228 531 
L 3431 531 
L 3431 0 
L 469 0 
L 469 531 
Q 828 903 1448 1529 
Q 2069 2156 2228 2338 
Q 2531 2678 2651 2914 
Q 2772 3150 2772 3378 
Q 2772 3750 2511 3984 
Q 2250 4219 1831 4219 
Q 1534 4219 1204 4116 
Q 875 4013 500 3803 
L 500 4441 
Q 881 4594 1212 4672 
Q 1544 4750 1819 4750 
Q 2544 4750 2975 4387 
Q 3406 4025 3406 3419 
Q 3406 3131 3298 2873 
Q 3191 2616 2906 2266 
Q 2828 2175 2409 1742 
Q 1991 1309 1228 531 
z
" transform="scale(0.015625)"/>
       </defs>
       <use xlink:href="#DejaVuSans-32"/>
       <use xlink:href="#DejaVuSans-30" x="63.623047"/>
       <use xlink:href="#DejaVuSans-30" x="127.246094"/>
       <use xlink:href="#DejaVuSans-30" x="190.869141"/>
      </g>
     </g>
    </g>
    <g id="xtick_6">
     <g id="line2d_6">
      <g>
       <use xlink:href="#m1d51678b02" x="1246.265433" y="512.64" style="stroke: #000000; stroke-width: 0.8"/>
      </g>
     </g>
     <g id="text_6">
      <!-- 2500 -->
      <g transform="translate(1233.540433 527.238438) scale(0.1 -0.1)">
       <use xlink:href="#DejaVuSans-32"/>
       <use xlink:href="#DejaVuSans-35" x="63.623047"/>
       <use xlink:href="#DejaVuSans-30" x="127.246094"/>
       <use xlink:href="#DejaVuSans-30" x="190.869141"/>
      </g>
     </g>
    </g>
   </g>
   <g id="matplotlib.axis_2">
    <g id="ytick_1">
     <g id="line2d_7">
      <defs>
       <path id="mcd85f28095" d="M 0 0 
L -3.5 0 
" style="stroke: #000000; stroke-width: 0.8"/>
      </defs>
      <g>
       <use xlink:href="#mcd85f28095" x="180" y="467.877561" style="stroke: #000000; stroke-width: 0.8"/>
      </g>
     </g>
     <g id="text_7">
      <!-- −4 -->
      <g transform="translate(158.257812 471.67678) scale(0.1 -0.1)">
       <defs>
        <path id="DejaVuSans-2212" d="M 678 2272 
L 4684 2272 
L 4684 1741 
L 678 1741 
L 678 2272 
z
" transform="scale(0.015625)"/>
        <path id="DejaVuSans-34" d="M 2419 4116 
L 825 1625 
L 2419 1625 
L 2419 4116 
z
M 2253 4666 
L 3047 4666 
L 3047 1625 
L 3713 1625 
L 3713 1100 
L 3047 1100 
L 3047 0 
L 2419 0 
L 2419 1100 
L 313 1100 
L 313 1709 
L 2253 4666 
z
" transform="scale(0.015625)"/>
       </defs>
       <use xlink:href="#DejaVuSans-2212"/>
       <use xlink:href="#DejaVuSans-34" x="83.789062"/>
      </g>
     </g>
    </g>
    <g id="ytick_2">
     <g id="line2d_8">
      <g>
       <use xlink:href="#mcd85f28095" x="180" y="388.263675" style="stroke: #000000; stroke-width: 0.8"/>
      </g>
     </g>
     <g id="text_8">
      <!-- −2 -->
      <g transform="translate(158.257812 392.062893) scale(0.1 -0.1)">
       <use xlink:href="#DejaVuSans-2212"/>
       <use xlink:href="#DejaVuSans-32" x="83.789062"/>
      </g>
     </g>
    </g>
    <g id="ytick_3">
     <g id="line2d_9">
      <g>
       <use xlink:href="#mcd85f28095" x="180" y="308.649788" style="stroke: #000000; stroke-width: 0.8"/>
      </g>
     </g>
     <g id="text_9">
      <!-- 0 -->
      <g transform="translate(166.6375 312.449007) scale(0.1 -0.1)">
       <use xlink:href="#DejaVuSans-30"/>
      </g>
     </g>
    </g>
    <g id="ytick_4">
     <g id="line2d_10">
      <g>
       <use xlink:href="#mcd85f28095" x="180" y="229.035902" style="stroke: #000000; stroke-width: 0.8"/>
      </g>
     </g>
     <g id="text_10">
      <!-- 2 -->
      <g transform="translate(166.6375 232.835121) scale(0.1 -0.1)">
       <use xlink:href="#DejaVuSans-32"/>
      </g>
     </g>
    </g>
    <g id="ytick_5">
     <g id="line2d_11">
      <g>
       <use xlink:href="#mcd85f28095" x="180" y="149.422015" style="stroke: #000000; stroke-width: 0.8"/>
      </g>
     </g>
     <g id="text_11">
      <!-- 4 -->
      <g transform="translate(166.6375 153.221234) scale(0.1 -0.1)">
       <use xlink:href="#DejaVuSans-34"/>
      </g>
     </g>
    </g>
    <g id="ytick_6">
     <g id="line2d_12">
      <g>
       <use xlink:href="#mcd85f28095" x="180" y="69.808129" style="stroke: #000000; stroke-width: 0.8"/>
      </g>
     </g>
     <g id="text_12">
      <!-- 6 -->
      <g transform="translate(166.6375 73.607348) scale(0.1 -0.1)">
       <defs>
        <path id="DejaVuSans-36" d="M 2113 2584 
Q 1688 2584 1439 2293 
Q 1191 2003 1191 1497 
Q 1191 994 1439 701 
Q 1688 409 2113 409 
Q 2538 409 2786 701 
Q 3034 994 3034 1497 
Q 3034 2003 2786 2293 
Q 2538 2584 2113 2584 
z
M 3366 4563 
L 3366 3988 
Q 3128 4100 2886 4159 
Q 2644 4219 2406 4219 
Q 1781 4219 1451 3797 
Q 1122 3375 1075 2522 
Q 1259 2794 1537 2939 
Q 1816 3084 2150 3084 
Q 2853 3084 3261 2657 
Q 3669 2231 3669 1497 
Q 3669 778 3244 343 
Q 2819 -91 2113 -91 
Q 1303 -91 875 529 
Q 447 1150 447 2328 
Q 447 3434 972 4092 
Q 1497 4750 2381 4750 
Q 2619 4750 2861 4703 
Q 3103 4656 3366 4563 
z
" transform="scale(0.015625)"/>
       </defs>
       <use xlink:href="#DejaVuSans-36"/>
      </g>
     </g>
    </g>
   </g>
   <g id="line2d_13">
    <path d="M 230.727273 287.851329 
L 231.719979 285.075886 
L 232.712685 278.280891 
L 233.70539 292.016893 
L 234.698096 280.499644 
L 235.690802 276.409038 
L 236.683508 295.941219 
L 237.676214 274.811074 
L 238.66892 277.799532 
L 239.661626 289.754811 
L 240.654332 272.28604 
L 241.647038 282.071693 
L 242.639744 274.441702 
L 243.63245 274.355316 
L 244.625156 275.425803 
L 245.617862 256.899034 
L 246.610568 268.735173 
L 247.603273 260.547362 
L 248.595979 240.184035 
L 249.588685 229.03797 
L 250.581391 209.052633 
L 251.574097 195.256409 
L 252.566803 197.642808 
L 253.559509 200.559527 
L 254.552215 174.341839 
L 255.544921 165.577923 
L 256.537627 175.811729 
L 257.530333 169.607101 
L 258.523039 159.769904 
L 259.515745 172.50344 
L 260.50845 190.307866 
L 261.501156 189.738625 
L 262.493862 251.067552 
L 263.486568 197.288855 
L 264.479274 188.658418 
L 265.47198 223.171427 
L 266.464686 200.422257 
L 267.457392 163.790396 
L 268.450098 158.953665 
L 269.442804 191.089966 
L 270.43551 194.96253 
L 271.428216 182.138495 
L 272.420922 206.591277 
L 273.413627 162.044827 
L 274.406333 155.574034 
L 276.391745 195.34094 
L 277.384451 145.90178 
L 278.377157 127.245789 
L 279.369863 127.534863 
L 280.362569 153.57875 
L 281.355275 138.955094 
L 282.347981 102.333953 
L 283.340687 89.28 
L 284.333393 93.875892 
L 285.326099 120.402272 
L 286.318804 114.768493 
L 287.31151 100.786425 
L 288.304216 115.519557 
L 289.296922 150.646839 
L 290.289628 129.044815 
L 291.282334 138.32715 
L 292.27504 174.465535 
L 293.267746 178.791592 
L 294.260452 178.286189 
L 295.253158 164.297769 
L 296.245864 176.297058 
L 297.23857 177.213852 
L 298.231276 173.079973 
L 299.223981 180.064366 
L 300.216687 177.073006 
L 301.209393 188.642805 
L 303.194805 209.430008 
L 304.187511 276.289978 
L 305.180217 237.365781 
L 306.172923 240.618796 
L 307.165629 236.581814 
L 308.158335 249.081413 
L 309.151041 254.250523 
L 310.143747 257.708195 
L 311.136453 300.897115 
L 312.129159 287.12107 
L 313.121864 317.629583 
L 314.11457 321.023646 
L 315.107276 307.643075 
L 316.099982 359.580478 
L 317.092688 295.609527 
L 318.085394 289.101034 
L 319.0781 331.615823 
L 320.070806 285.770929 
L 321.063512 308.478738 
L 322.056218 321.811315 
L 323.048924 308.101132 
L 324.04163 327.0528 
L 325.034336 315.132394 
L 326.027041 363.288807 
L 327.019747 296.119815 
L 328.012453 317.639654 
L 329.005159 314.990896 
L 329.997865 294.649639 
L 330.990571 343.677222 
L 331.983277 310.42983 
L 332.975983 311.137543 
L 333.968689 360.058649 
L 334.961395 304.485188 
L 335.954101 349.265268 
L 336.946807 306.112068 
L 337.939513 301.247555 
L 338.932218 338.110817 
L 339.924924 293.538831 
L 340.91763 311.396739 
L 341.910336 312.435132 
L 342.903042 296.487494 
L 343.895748 329.766708 
L 344.888454 301.588937 
L 345.88116 305.272368 
L 346.873866 330.89242 
L 347.866572 297.219481 
L 348.859278 317.322684 
L 349.851984 302.254374 
L 350.84469 300.542563 
L 351.837395 318.955571 
L 352.830101 289.191473 
L 353.822807 307.942543 
L 354.815513 289.986927 
L 355.808219 283.329191 
L 356.800925 286.749609 
L 357.793631 267.879525 
L 358.786337 268.122634 
L 359.779043 261.45287 
L 360.771749 252.193556 
L 361.764455 254.537773 
L 362.757161 247.541728 
L 363.749867 244.294208 
L 364.742572 246.674076 
L 365.735278 242.272352 
L 366.727984 243.86758 
L 367.72069 248.319976 
L 368.713396 246.362194 
L 369.706102 253.644155 
L 370.698808 258.254271 
L 371.691514 259.927461 
L 372.68422 274.006806 
L 374.669632 285.630895 
L 375.662338 308.118758 
L 376.655044 298.996166 
L 377.64775 298.564516 
L 378.640455 306.171315 
L 379.633161 279.923831 
L 380.625867 271.389288 
L 381.618573 261.455301 
L 382.611279 245.249159 
L 383.603985 238.070384 
L 384.596691 229.867501 
L 385.589397 220.080273 
L 386.582103 215.01702 
L 388.567515 203.333706 
L 389.560221 200.708896 
L 390.552927 196.880765 
L 391.545632 194.457254 
L 392.538338 193.934709 
L 393.531044 192.12615 
L 394.52375 192.401902 
L 395.516456 193.694392 
L 396.509162 194.288082 
L 397.501868 197.130804 
L 398.494574 200.665094 
L 399.48728 203.640703 
L 402.465398 223.203395 
L 403.458104 236.120001 
L 404.450809 247.39061 
L 405.443515 264.740112 
L 406.436221 302.477597 
L 407.428927 307.311448 
L 408.421633 289.975885 
L 409.414339 265.530777 
L 410.407045 261.00762 
L 411.399751 254.011201 
L 412.392457 249.522303 
L 413.385163 251.700143 
L 414.377869 248.760108 
L 415.370575 250.467115 
L 416.363281 256.968132 
L 417.355986 255.999706 
L 418.348692 262.503482 
L 419.341398 270.790231 
L 420.334104 270.969894 
L 421.32681 283.670377 
L 422.319516 290.505192 
L 423.312222 289.707797 
L 424.304928 309.631759 
L 425.297634 308.473252 
L 426.29034 310.120779 
L 427.283046 340.961561 
L 428.275752 323.566368 
L 429.268458 328.079371 
L 430.261163 375.015134 
L 431.253869 333.378409 
L 432.246575 362.003518 
L 433.239281 384.180925 
L 434.231987 384.440544 
L 435.224693 365.157728 
L 436.217399 341.84783 
L 437.210105 361.422336 
L 438.202811 321.897944 
L 439.195517 317.703949 
L 440.188223 323.611534 
L 441.180929 306.200576 
L 442.173635 315.36948 
L 443.166341 318.685706 
L 444.159046 309.580953 
L 445.151752 326.226772 
L 446.144458 328.460112 
L 447.137164 325.39367 
L 448.12987 373.746798 
L 449.122576 346.151961 
L 450.115282 371.304322 
L 451.107988 370.372552 
L 452.100694 360.472025 
L 453.0934 396.33022 
L 454.086106 349.32695 
L 455.078812 376.325121 
L 456.071518 380.453646 
L 457.064223 387.597574 
L 458.056929 357.305639 
L 459.049635 358.485093 
L 460.042341 346.79755 
L 461.035047 320.496276 
L 462.027753 321.933647 
L 463.020459 310.98228 
L 464.013165 303.308898 
L 465.005871 310.851804 
L 465.998577 302.935341 
L 466.991283 302.544421 
L 467.983989 312.960444 
L 468.976695 305.567899 
L 469.9694 317.300425 
L 470.962106 326.911594 
L 471.954812 317.843139 
L 472.947518 344.748027 
L 473.940224 329.179294 
L 474.93293 333.707946 
L 475.925636 342.850485 
L 476.918342 323.789635 
L 477.911048 339.972361 
L 478.903754 337.607446 
L 479.89646 329.466891 
L 480.889166 345.854436 
L 481.881872 344.476913 
L 482.874577 315.847493 
L 483.867283 315.519595 
L 484.859989 310.348997 
L 485.852695 293.596804 
L 486.845401 290.874868 
L 487.838107 284.051972 
L 488.830813 275.406832 
L 489.823519 276.013852 
L 490.816225 271.468248 
L 491.808931 266.230244 
L 492.801637 267.917563 
L 493.794343 263.969546 
L 494.787049 261.490968 
L 495.779754 263.372858 
L 496.77246 259.053707 
L 497.765166 258.179518 
L 498.757872 259.588884 
L 499.750578 256.428988 
L 500.743284 255.755499 
L 501.73599 256.640136 
L 502.728696 252.754304 
L 503.721402 253.898307 
L 504.714108 253.901785 
L 505.706814 252.850518 
L 506.69952 254.932638 
L 507.692226 255.534063 
L 508.684932 255.562357 
L 509.677637 261.144591 
L 510.670343 263.649324 
L 511.663049 265.785901 
L 512.655755 274.133352 
L 513.648461 280.46163 
L 514.641167 299.298177 
L 515.633873 321.013345 
L 516.626579 330.620211 
L 517.619285 346.27332 
L 518.611991 308.491884 
L 519.604697 297.539267 
L 520.597403 283.228775 
L 521.590109 276.863989 
L 522.582814 273.893642 
L 523.57552 268.490534 
L 524.568226 267.247146 
L 525.560932 268.564426 
L 526.553638 267.241646 
L 527.546344 273.189194 
L 528.53905 276.712887 
L 529.531756 276.375904 
L 530.524462 290.06652 
L 531.517168 289.689215 
L 532.509874 293.1559 
L 533.50258 312.473114 
L 534.495286 310.96571 
L 535.487991 321.611813 
L 536.480697 319.779084 
L 537.473403 310.559277 
L 538.466109 311.835755 
L 539.458815 312.309885 
L 540.451521 334.041911 
L 541.444227 320.576387 
L 542.436933 315.658278 
L 543.429639 346.620553 
L 544.422345 329.063863 
L 545.415051 333.539473 
L 546.407757 345.82547 
L 547.400463 345.965354 
L 548.393168 365.913199 
L 549.385874 343.571474 
L 550.37858 341.406201 
L 551.371286 336.322841 
L 552.363992 337.268864 
L 553.356698 368.800812 
L 554.349404 355.778582 
L 555.34211 355.645005 
L 556.334816 358.322901 
L 557.327522 350.389087 
L 558.320228 363.286918 
L 559.312934 373.668907 
L 560.30564 388.804094 
L 561.298345 344.353256 
L 563.283757 384.583153 
L 564.276463 338.527003 
L 565.269169 348.011879 
L 566.261875 346.27243 
L 567.254581 351.678143 
L 568.247287 369.18029 
L 569.239993 350.354466 
L 570.232699 376.673032 
L 571.225405 377.479292 
L 572.218111 365.326056 
L 573.210817 426.858846 
L 574.203523 362.372996 
L 575.196228 421.244331 
L 576.188934 360.490933 
L 577.18164 348.126323 
L 578.174346 345.422768 
L 579.167052 326.431871 
L 580.159758 332.197934 
L 581.152464 326.225538 
L 582.14517 321.330031 
L 583.137876 327.520377 
L 584.130582 314.788005 
L 585.123288 312.679022 
L 586.115994 323.015459 
L 587.1087 315.157664 
L 588.101405 321.344769 
L 589.094111 323.478136 
L 590.086817 315.064929 
L 591.079523 332.38441 
L 592.072229 321.727314 
L 593.064935 315.722517 
L 594.057641 322.797859 
L 595.050347 308.184651 
L 597.035759 303.153924 
L 598.028465 293.278264 
L 599.021171 295.016778 
L 600.013877 291.092257 
L 601.006582 285.764536 
L 601.999288 287.762246 
L 602.991994 284.692201 
L 603.9847 279.911313 
L 604.977406 282.77363 
L 605.970112 279.82762 
L 606.962818 280.037484 
L 607.955524 284.616556 
L 608.94823 282.163032 
L 609.940936 285.12907 
L 610.933642 289.795959 
L 611.926348 287.76842 
L 612.919054 294.134353 
L 613.911759 296.970314 
L 614.904465 295.659248 
L 615.897171 303.174459 
L 616.889877 301.673774 
L 617.882583 301.998866 
L 618.875289 307.566801 
L 619.867995 303.201619 
L 620.860701 306.146246 
L 621.853407 310.318887 
L 622.846113 304.174733 
L 623.838819 310.499489 
L 624.831525 314.718275 
L 625.824231 310.350915 
L 626.816936 319.966743 
L 627.809642 324.824462 
L 628.802348 322.837635 
L 629.795054 339.049911 
L 630.78776 348.243891 
L 631.780466 342.283736 
L 633.765878 366.940402 
L 634.758584 343.113278 
L 635.75129 330.256116 
L 636.743996 333.703318 
L 637.736702 320.658398 
L 638.729408 312.940128 
L 639.722114 316.509778 
L 640.714819 309.689101 
L 641.707525 306.723114 
L 642.700231 312.423432 
L 643.692937 308.016753 
L 644.685643 309.530601 
L 645.678349 318.759193 
L 646.671055 316.836371 
L 647.663761 322.803159 
L 648.656467 338.639962 
L 649.649173 336.610541 
L 650.641879 349.920501 
L 651.634585 392.300791 
L 652.627291 377.679614 
L 653.619996 360.957904 
L 654.612702 363.123033 
L 655.605408 363.324222 
L 656.598114 339.339897 
L 657.59082 342.996739 
L 658.583526 347.252186 
L 659.576232 333.622783 
L 660.568938 341.230411 
L 661.561644 345.189685 
L 662.55435 335.634193 
L 663.547056 350.556006 
L 664.539762 351.480205 
L 665.532468 344.637826 
L 666.525173 366.598344 
L 667.517879 360.963824 
L 668.510585 354.115953 
L 669.503291 384.402007 
L 670.495997 360.247573 
L 671.488703 361.369032 
L 672.481409 384.13378 
L 673.474115 355.044567 
L 674.466821 366.025401 
L 675.459527 370.346565 
L 676.452233 351.728312 
L 677.444939 368.752352 
L 678.437645 363.140257 
L 679.43035 352.791656 
L 680.423056 380.211522 
L 681.415762 363.790772 
L 682.408468 364.11424 
L 683.401174 407.937109 
L 684.39388 371.002855 
L 685.386586 390.852558 
L 686.379292 394.07784 
L 687.371998 372.85004 
L 688.364704 416.878378 
L 689.35741 365.856711 
L 690.350116 364.47801 
L 691.342822 379.7386 
L 692.335527 351.367842 
L 693.328233 355.419911 
L 694.320939 360.557585 
L 695.313645 341.405106 
L 696.306351 345.764422 
L 697.299057 347.611512 
L 698.291763 333.148518 
L 699.284469 337.476488 
L 700.277175 337.066719 
L 701.269881 325.831184 
L 702.262587 330.952746 
L 703.255293 329.037691 
L 704.247999 321.133628 
L 705.240705 328.026742 
L 707.226116 319.779558 
L 708.218822 327.748598 
L 709.211528 321.889664 
L 710.204234 321.310351 
L 711.19694 328.996665 
L 712.189646 320.934874 
L 714.175058 328.947695 
L 715.167764 321.683992 
L 716.16047 329.356819 
L 717.153176 328.020529 
L 718.145882 324.045804 
L 719.138587 334.102759 
L 720.131293 328.136688 
L 721.123999 329.065152 
L 722.116705 338.97805 
L 723.109411 329.995587 
L 724.102117 338.055621 
L 725.094823 341.870902 
L 726.087529 334.21599 
L 727.080235 347.252738 
L 728.072941 340.400559 
L 729.065647 338.57941 
L 730.058353 350.346162 
L 731.051059 337.110602 
L 732.043764 342.694732 
L 733.03647 347.266783 
L 734.029176 336.621151 
L 735.021882 348.825257 
L 736.014588 346.205558 
L 737.007294 341.813805 
L 738 359.95831 
L 738.992706 350.59252 
L 739.985412 354.902378 
L 740.978118 379.975838 
L 741.970824 361.4162 
L 742.96353 383.703549 
L 743.956236 382.547836 
L 744.948941 371.594072 
L 745.941647 399.390047 
L 746.934353 360.677186 
L 747.927059 367.028876 
L 748.919765 364.740823 
L 749.912471 346.952062 
L 750.905177 358.130271 
L 752.890589 342.215942 
L 753.883295 356.004316 
L 754.876001 347.110962 
L 755.868707 344.675553 
L 756.861413 362.138092 
L 757.854118 351.834376 
L 758.846824 354.05226 
L 759.83953 380.189561 
L 760.832236 365.871265 
L 761.824942 368.370092 
L 762.817648 407.283581 
L 763.810354 386.302785 
L 764.80306 369.448452 
L 765.795766 383.464014 
L 766.788472 379.583851 
L 767.781178 355.99178 
L 768.773884 364.072043 
L 769.76659 362.285424 
L 770.759295 346.068894 
L 771.752001 355.693169 
L 772.744707 352.558087 
L 773.737413 341.961582 
L 774.730119 353.593038 
L 775.722825 348.713533 
L 776.715531 341.978822 
L 777.708237 356.2499 
L 778.700943 348.075006 
L 779.693649 345.494428 
L 780.686355 362.321209 
L 781.679061 350.301892 
L 782.671767 352.661364 
L 783.664473 370.564023 
L 784.657178 354.432188 
L 785.649884 364.700074 
L 786.64259 378.407838 
L 787.635296 361.135638 
L 788.628002 385.633756 
L 789.620708 379.665974 
L 790.613414 371.58472 
L 791.60612 410.943602 
L 792.598826 372.287848 
L 793.591532 382.335305 
L 794.584238 386.289021 
L 795.576944 364.000134 
L 796.56965 384.199287 
L 797.562355 366.758968 
L 798.555061 359.1564 
L 799.547767 378.204433 
L 800.540473 357.840527 
L 801.533179 359.18356 
L 802.525885 374.715553 
L 803.518591 355.468956 
L 804.511297 363.434008 
L 805.504003 375.890914 
L 806.496709 358.16657 
L 807.489415 370.863262 
L 808.482121 381.018294 
L 809.474827 362.175043 
L 810.467532 376.008288 
L 811.460238 384.561072 
L 812.452944 362.236749 
L 813.44565 372.561662 
L 814.438356 377.019923 
L 815.431062 356.398335 
L 816.423768 366.11813 
L 817.416474 364.931912 
L 818.40918 349.799994 
L 819.401886 361.287381 
L 820.394592 354.526173 
L 821.387298 345.655359 
L 822.380004 358.623872 
L 823.372709 348.240692 
L 824.365415 345.53172 
L 825.358121 358.578847 
L 826.350827 346.079313 
L 827.343533 349.907717 
L 828.336239 361.374513 
L 829.328945 348.633476 
L 830.321651 360.968666 
L 831.314357 366.281452 
L 832.307063 357.071646 
L 833.299769 382.025355 
L 834.292475 372.275934 
L 835.285181 373.417548 
L 836.277886 410.352372 
L 837.270592 376.177618 
L 838.263298 402.872614 
L 839.256004 389.642478 
L 840.24871 380.039961 
L 841.241416 416.061681 
L 842.234122 373.091723 
L 843.226828 387.578658 
L 844.219534 383.638301 
L 845.21224 366.615295 
L 846.204946 390.786109 
L 847.197652 365.553535 
L 848.190358 364.377316 
L 849.183064 376.301711 
L 850.175769 354.464959 
L 851.168475 362.365819 
L 852.161181 360.990423 
L 853.153887 348.399574 
L 854.146593 360.329676 
L 856.132005 347.097146 
L 857.124711 361.54495 
L 858.117417 351.797835 
L 859.110123 350.920535 
L 860.102829 368.886072 
L 861.095535 357.069132 
L 862.088241 360.08073 
L 863.080946 383.771193 
L 864.073652 367.645513 
L 865.066358 369.464762 
L 866.059064 400.531694 
L 867.05177 378.209763 
L 868.044476 370.821297 
L 869.037182 395.179505 
L 870.029888 379.595529 
L 871.022594 366.359253 
L 872.0153 386.671238 
L 873.008006 377.703825 
L 874.000712 364.881439 
L 874.993418 386.029574 
L 875.986123 378.850411 
L 876.978829 368.298005 
L 877.971535 395.150746 
L 879.956947 376.224073 
L 880.949653 416.629878 
L 881.942359 398.785994 
L 882.935065 390.356945 
L 883.927771 452.785957 
L 884.920477 410.83438 
L 885.913183 416.106589 
L 886.905889 419.871418 
L 887.898595 408.043773 
L 888.8913 476.214723 
L 889.884006 393.773292 
L 890.876712 397.564333 
L 891.869418 427.964368 
L 892.862124 380.371602 
L 893.85483 390.470422 
L 894.847536 406.24867 
L 895.840242 374.849189 
L 896.832948 391.917961 
L 897.825654 398.668393 
L 898.81836 376.568987 
L 899.811066 406.047633 
L 900.803772 399.122064 
L 901.796477 385.997877 
L 902.789183 455.826962 
L 903.781889 398.289102 
L 904.774595 407.59877 
L 905.767301 428.437891 
L 906.760007 396.031413 
L 907.752713 458.872867 
L 908.745419 395.928672 
L 909.738125 394.588802 
L 910.730831 440.94789 
L 911.723537 385.836655 
L 912.716243 404.738999 
L 913.708949 412.634117 
L 914.701655 387.920828 
L 915.69436 443.219732 
L 916.687066 397.617341 
L 917.679772 399.889926 
L 918.672478 428.916013 
L 919.665184 385.611037 
L 920.65789 415.676682 
L 921.650596 389.910307 
L 922.643302 378.38233 
L 923.636008 407.935695 
L 924.628714 373.990459 
L 925.62142 376.680953 
L 926.614126 395.796428 
L 927.606832 368.994398 
L 928.599537 384.028307 
L 929.592243 388.087878 
L 930.584949 372.070674 
L 931.577655 402.199389 
L 932.570361 384.308051 
L 933.563067 381.152702 
L 934.555773 421.075607 
L 935.548479 379.957523 
L 936.541185 394.15064 
L 937.533891 399.494733 
L 938.526597 376.862188 
L 939.519303 407.315145 
L 940.512009 386.146456 
L 941.504714 379.433204 
L 942.49742 420.833544 
L 943.490126 384.497941 
L 944.482832 389.925284 
L 945.475538 441.730288 
L 946.468244 392.22154 
L 947.46095 412.45975 
L 948.453656 435.242891 
L 949.446362 413.178209 
L 950.439068 426.112174 
L 951.431774 409.686645 
L 952.42448 462.899688 
L 953.417186 402.434421 
L 954.409891 400.071998 
L 955.402597 459.899527 
L 956.395303 390.693813 
L 957.388009 402.933736 
L 958.380715 425.378161 
L 959.373421 388.471072 
L 960.366127 424.067853 
L 961.358833 403.912056 
L 962.351539 391.40759 
L 963.344245 452.765038 
L 964.336951 386.132714 
L 965.329657 391.471251 
L 966.322363 404.588711 
L 967.315068 372.897255 
L 968.307774 385.904016 
L 969.30048 383.255149 
L 970.293186 365.104056 
L 971.285892 380.323959 
L 972.278598 373.778913 
L 973.271304 361.534084 
L 974.26401 378.824288 
L 975.256716 371.649477 
L 976.249422 362.536969 
L 977.242128 382.482727 
L 978.234834 376.191139 
L 979.22754 366.519106 
L 980.220246 387.817634 
L 981.212951 385.130461 
L 982.205657 369.985834 
L 983.198363 384.60422 
L 984.191069 389.798315 
L 985.183775 367.57684 
L 986.176481 373.734335 
L 987.169187 383.198549 
L 988.161893 361.713437 
L 989.154599 365.471545 
L 990.147305 374.787498 
L 991.140011 357.561881 
L 992.132717 361.727981 
L 993.125423 372.360629 
L 994.118128 356.908292 
L 995.110834 362.46895 
L 996.10354 375.162531 
L 997.096246 360.246597 
L 998.088952 367.492908 
L 999.081658 384.207385 
L 1000.074364 366.74003 
L 1001.06707 374.566574 
L 1002.059776 398.458689 
L 1003.052482 375.137457 
L 1004.045188 379.555437 
L 1005.037894 412.389984 
L 1006.0306 382.072357 
L 1007.023305 382.553892 
L 1008.016011 418.91326 
L 1009.008717 386.158344 
L 1010.001423 384.480732 
L 1010.994129 428.858707 
L 1011.986835 390.841567 
L 1012.979541 390.556865 
L 1013.972247 458.666148 
L 1014.964953 397.515781 
L 1015.957659 402.074303 
L 1016.950365 479.002176 
L 1017.943071 413.255643 
L 1018.935777 415.047474 
L 1019.928482 425.26714 
L 1020.921188 448.371372 
L 1021.913894 405.095501 
L 1022.9066 402.668745 
L 1023.899306 446.522418 
L 1024.892012 384.767262 
L 1025.884718 389.679203 
L 1026.877424 400.089526 
L 1027.87013 370.297775 
L 1028.862836 379.121414 
L 1029.855542 376.487697 
L 1030.848248 359.40529 
L 1031.840954 370.562938 
L 1032.833659 362.733011 
L 1033.826365 353.103854 
L 1034.819071 364.738027 
L 1035.811777 354.746869 
L 1036.804483 350.577201 
L 1037.797189 363.105023 
L 1038.789895 352.103654 
L 1039.782601 352.843767 
L 1040.775307 365.953693 
L 1041.768013 354.305169 
L 1042.760719 361.487939 
L 1043.753425 374.227908 
L 1044.746131 361.993736 
L 1045.738837 378.755258 
L 1046.731542 386.445099 
L 1047.724248 375.831021 
L 1048.716954 417.254919 
L 1049.70966 394.108375 
L 1050.702366 398.994748 
L 1051.695072 431.836994 
L 1052.687778 390.073501 
L 1053.680484 430.080008 
L 1054.67319 395.959089 
L 1055.665896 390.636215 
L 1056.658602 433.947012 
L 1057.651308 386.478468 
L 1058.644014 401.641584 
L 1059.636719 411.719627 
L 1060.629425 387.219701 
L 1061.622131 435.313506 
L 1062.614837 394.079195 
L 1063.607543 394.906661 
L 1064.600249 421.730962 
L 1065.592955 382.162176 
L 1066.585661 401.148264 
L 1067.578367 392.439955 
L 1068.571073 376.348174 
L 1069.563779 403.502247 
L 1070.556485 380.641953 
L 1071.549191 378.303867 
L 1072.541896 408.459856 
L 1073.534602 379.414786 
L 1074.527308 389.776761 
L 1075.520014 412.355464 
L 1076.51272 385.110091 
L 1077.505426 419.243898 
L 1078.498132 403.251551 
L 1079.490838 396.438127 
L 1080.483544 462.542015 
L 1081.47625 391.947987 
L 1082.468956 410.594582 
L 1083.461662 409.217452 
L 1084.454368 386.937327 
L 1085.447073 426.35046 
L 1086.439779 397.567071 
L 1087.432485 391.542686 
L 1088.425191 463.492471 
L 1089.417897 397.73735 
L 1090.410603 410.084254 
L 1091.403309 438.587658 
L 1092.396015 410.626388 
L 1093.388721 458.050248 
L 1094.381427 399.555494 
L 1095.374133 416.757493 
L 1096.366839 407.761555 
L 1097.359545 380.83467 
L 1098.35225 401.596303 
L 1099.344956 382.50754 
L 1100.337662 370.052986 
L 1101.330368 389.197137 
L 1102.323074 371.441108 
L 1103.31578 365.098208 
L 1104.308486 382.999205 
L 1105.301192 366.718025 
L 1106.293898 364.358834 
L 1107.286604 382.570208 
L 1108.27931 366.397494 
L 1109.272016 366.705122 
L 1110.264722 386.129769 
L 1111.257428 368.638357 
L 1112.250133 371.080379 
L 1113.242839 393.496217 
L 1114.235545 372.615381 
L 1115.228251 377.38844 
L 1116.220957 403.441277 
L 1117.213663 378.400451 
L 1118.206369 384.33869 
L 1119.199075 416.117252 
L 1120.191781 384.341543 
L 1121.184487 391.793893 
L 1122.177193 433.747996 
L 1123.169899 390.770281 
L 1124.162605 399.640668 
L 1125.15531 453.391304 
L 1126.148016 396.387953 
L 1127.140722 406.964173 
L 1128.133428 474.304037 
L 1129.126134 404.522679 
L 1130.11884 411.773199 
L 1131.111546 463.801995 
L 1132.104252 416.458416 
L 1133.096958 408.899854 
L 1134.089664 433.057927 
L 1135.08237 430.928686 
L 1136.075076 395.178216 
L 1137.067782 408.558564 
L 1138.060487 414.008604 
L 1139.053193 380.325996 
L 1140.045899 392.025275 
L 1141.038605 390.355836 
L 1142.031311 368.500241 
L 1143.024017 380.008415 
L 1144.016723 374.304265 
L 1145.009429 360.467497 
L 1146.002135 373.329611 
L 1147.987547 357.244798 
L 1148.980253 372.389996 
L 1149.972959 362.891507 
L 1150.965664 359.717841 
L 1151.95837 378.22553 
L 1152.951076 366.225574 
L 1153.943782 368.859889 
L 1154.936488 394.361933 
L 1155.929194 376.426813 
L 1156.9219 389.757657 
L 1157.914606 426.453387 
L 1158.907312 396.570531 
L 1159.900018 445.308137 
L 1160.892724 410.128759 
L 1161.88543 430.20233 
L 1163.870841 387.814166 
L 1164.863547 419.069164 
L 1165.856253 382.606652 
L 1166.848959 379.046273 
L 1167.841665 401.446551 
L 1168.834371 373.911223 
L 1169.827077 380.781087 
L 1170.819783 394.685834 
L 1171.812489 372.619127 
L 1172.805195 390.04248 
L 1173.797901 391.351324 
L 1174.790607 377.57332 
L 1175.783313 409.443348 
L 1176.776019 387.584564 
L 1177.768724 386.297289 
L 1178.76143 426.376021 
L 1179.754136 386.344648 
L 1181.739548 415.819199 
L 1182.732254 387.885035 
L 1183.72496 422.555221 
L 1184.717666 406.8529 
L 1185.710372 396.0713 
L 1186.703078 475.232053 
L 1187.695784 408.993545 
L 1188.68849 412.836486 
L 1189.681196 445.420861 
L 1190.673901 419.089888 
L 1191.666607 430.406906 
L 1192.659313 415.301862 
L 1193.652019 443.26432 
L 1194.644725 416.378997 
L 1195.637431 403.107072 
L 1196.630137 492.48 
L 1197.622843 397.53915 
L 1198.615549 399.899212 
L 1199.608255 434.307728 
L 1200.600961 387.220928 
L 1201.593667 401.59336 
L 1202.586373 406.582767 
L 1203.579078 381.00084 
L 1204.571784 404.680965 
L 1205.56449 388.95596 
L 1206.557196 377.146861 
L 1207.549902 402.995812 
L 1208.542608 378.260603 
L 1209.535314 375.821462 
L 1210.52802 397.992376 
L 1211.520726 372.330068 
L 1212.513432 377.790794 
L 1213.506138 393.44547 
L 1214.498844 370.807174 
L 1215.49155 383.472068 
L 1216.484255 392.389842 
L 1217.476961 374.396828 
L 1218.469667 396.411592 
L 1219.462373 394.625298 
L 1220.455079 382.654763 
L 1221.447785 425.774734 
L 1222.440491 398.417058 
L 1223.433197 398.716931 
L 1224.425903 466.744702 
L 1225.418609 400.181382 
L 1226.411315 428.683359 
L 1227.404021 415.231501 
L 1228.396727 399.456105 
L 1229.389432 478.908268 
L 1230.382138 398.123352 
L 1231.374844 400.78894 
L 1232.36755 448.511405 
L 1233.360256 393.914501 
L 1234.352962 408.186614 
L 1235.345668 436.472322 
L 1236.338374 397.92204 
L 1237.33108 420.251323 
L 1238.323786 436.392282 
L 1239.316492 407.106234 
L 1240.309198 428.878738 
L 1241.301904 435.358564 
L 1242.29461 419.743455 
L 1243.287315 421.758739 
L 1244.280021 432.589006 
L 1245.272727 427.422988 
L 1245.272727 427.422988 
" clip-path="url(#p31008fd6c9)" style="fill: none; stroke: #1f77b4; stroke-width: 1.5; stroke-linecap: square"/>
   </g>
   <g id="patch_3">
    <path d="M 180 512.64 
L 180 69.12 
" style="fill: none; stroke: #000000; stroke-width: 0.8; stroke-linejoin: miter; stroke-linecap: square"/>
   </g>
   <g id="patch_4">
    <path d="M 1296 512.64 
L 1296 69.12 
" style="fill: none; stroke: #000000; stroke-width: 0.8; stroke-linejoin: miter; stroke-linecap: square"/>
   </g>
   <g id="patch_5">
    <path d="M 180 512.64 
L 1296 512.64 
" style="fill: none; stroke: #000000; stroke-width: 0.8; stroke-linejoin: miter; stroke-linecap: square"/>
   </g>
   <g id="patch_6">
    <path d="M 180 69.12 
L 1296 69.12 
" style="fill: none; stroke: #000000; stroke-width: 0.8; stroke-linejoin: miter; stroke-linecap: square"/>
   </g>
   <g id="text_13">
    <!-- source23-receiver5 -->
    <g transform="translate(544.9 60.80125) scale(0.4 -0.4)">
     <defs>
      <path id="DejaVuSans-73" d="M 2834 3397 
L 2834 2853 
Q 2591 2978 2328 3040 
Q 2066 3103 1784 3103 
Q 1356 3103 1142 2972 
Q 928 2841 928 2578 
Q 928 2378 1081 2264 
Q 1234 2150 1697 2047 
L 1894 2003 
Q 2506 1872 2764 1633 
Q 3022 1394 3022 966 
Q 3022 478 2636 193 
Q 2250 -91 1575 -91 
Q 1294 -91 989 -36 
Q 684 19 347 128 
L 347 722 
Q 666 556 975 473 
Q 1284 391 1588 391 
Q 1994 391 2212 530 
Q 2431 669 2431 922 
Q 2431 1156 2273 1281 
Q 2116 1406 1581 1522 
L 1381 1569 
Q 847 1681 609 1914 
Q 372 2147 372 2553 
Q 372 3047 722 3315 
Q 1072 3584 1716 3584 
Q 2034 3584 2315 3537 
Q 2597 3491 2834 3397 
z
" transform="scale(0.015625)"/>
      <path id="DejaVuSans-6f" d="M 1959 3097 
Q 1497 3097 1228 2736 
Q 959 2375 959 1747 
Q 959 1119 1226 758 
Q 1494 397 1959 397 
Q 2419 397 2687 759 
Q 2956 1122 2956 1747 
Q 2956 2369 2687 2733 
Q 2419 3097 1959 3097 
z
M 1959 3584 
Q 2709 3584 3137 3096 
Q 3566 2609 3566 1747 
Q 3566 888 3137 398 
Q 2709 -91 1959 -91 
Q 1206 -91 779 398 
Q 353 888 353 1747 
Q 353 2609 779 3096 
Q 1206 3584 1959 3584 
z
" transform="scale(0.015625)"/>
      <path id="DejaVuSans-75" d="M 544 1381 
L 544 3500 
L 1119 3500 
L 1119 1403 
Q 1119 906 1312 657 
Q 1506 409 1894 409 
Q 2359 409 2629 706 
Q 2900 1003 2900 1516 
L 2900 3500 
L 3475 3500 
L 3475 0 
L 2900 0 
L 2900 538 
Q 2691 219 2414 64 
Q 2138 -91 1772 -91 
Q 1169 -91 856 284 
Q 544 659 544 1381 
z
M 1991 3584 
L 1991 3584 
z
" transform="scale(0.015625)"/>
      <path id="DejaVuSans-72" d="M 2631 2963 
Q 2534 3019 2420 3045 
Q 2306 3072 2169 3072 
Q 1681 3072 1420 2755 
Q 1159 2438 1159 1844 
L 1159 0 
L 581 0 
L 581 3500 
L 1159 3500 
L 1159 2956 
Q 1341 3275 1631 3429 
Q 1922 3584 2338 3584 
Q 2397 3584 2469 3576 
Q 2541 3569 2628 3553 
L 2631 2963 
z
" transform="scale(0.015625)"/>
      <path id="DejaVuSans-63" d="M 3122 3366 
L 3122 2828 
Q 2878 2963 2633 3030 
Q 2388 3097 2138 3097 
Q 1578 3097 1268 2742 
Q 959 2388 959 1747 
Q 959 1106 1268 751 
Q 1578 397 2138 397 
Q 2388 397 2633 464 
Q 2878 531 3122 666 
L 3122 134 
Q 2881 22 2623 -34 
Q 2366 -91 2075 -91 
Q 1284 -91 818 406 
Q 353 903 353 1747 
Q 353 2603 823 3093 
Q 1294 3584 2113 3584 
Q 2378 3584 2631 3529 
Q 2884 3475 3122 3366 
z
" transform="scale(0.015625)"/>
      <path id="DejaVuSans-65" d="M 3597 1894 
L 3597 1613 
L 953 1613 
Q 991 1019 1311 708 
Q 1631 397 2203 397 
Q 2534 397 2845 478 
Q 3156 559 3463 722 
L 3463 178 
Q 3153 47 2828 -22 
Q 2503 -91 2169 -91 
Q 1331 -91 842 396 
Q 353 884 353 1716 
Q 353 2575 817 3079 
Q 1281 3584 2069 3584 
Q 2775 3584 3186 3129 
Q 3597 2675 3597 1894 
z
M 3022 2063 
Q 3016 2534 2758 2815 
Q 2500 3097 2075 3097 
Q 1594 3097 1305 2825 
Q 1016 2553 972 2059 
L 3022 2063 
z
" transform="scale(0.015625)"/>
      <path id="DejaVuSans-33" d="M 2597 2516 
Q 3050 2419 3304 2112 
Q 3559 1806 3559 1356 
Q 3559 666 3084 287 
Q 2609 -91 1734 -91 
Q 1441 -91 1130 -33 
Q 819 25 488 141 
L 488 750 
Q 750 597 1062 519 
Q 1375 441 1716 441 
Q 2309 441 2620 675 
Q 2931 909 2931 1356 
Q 2931 1769 2642 2001 
Q 2353 2234 1838 2234 
L 1294 2234 
L 1294 2753 
L 1863 2753 
Q 2328 2753 2575 2939 
Q 2822 3125 2822 3475 
Q 2822 3834 2567 4026 
Q 2313 4219 1838 4219 
Q 1578 4219 1281 4162 
Q 984 4106 628 3988 
L 628 4550 
Q 988 4650 1302 4700 
Q 1616 4750 1894 4750 
Q 2613 4750 3031 4423 
Q 3450 4097 3450 3541 
Q 3450 3153 3228 2886 
Q 3006 2619 2597 2516 
z
" transform="scale(0.015625)"/>
      <path id="DejaVuSans-2d" d="M 313 2009 
L 1997 2009 
L 1997 1497 
L 313 1497 
L 313 2009 
z
" transform="scale(0.015625)"/>
      <path id="DejaVuSans-69" d="M 603 3500 
L 1178 3500 
L 1178 0 
L 603 0 
L 603 3500 
z
M 603 4863 
L 1178 4863 
L 1178 4134 
L 603 4134 
L 603 4863 
z
" transform="scale(0.015625)"/>
      <path id="DejaVuSans-76" d="M 191 3500 
L 800 3500 
L 1894 563 
L 2988 3500 
L 3597 3500 
L 2284 0 
L 1503 0 
L 191 3500 
z
" transform="scale(0.015625)"/>
     </defs>
     <use xlink:href="#DejaVuSans-73"/>
     <use xlink:href="#DejaVuSans-6f" x="52.099609"/>
     <use xlink:href="#DejaVuSans-75" x="113.28125"/>
     <use xlink:href="#DejaVuSans-72" x="176.660156"/>
     <use xlink:href="#DejaVuSans-63" x="215.523438"/>
     <use xlink:href="#DejaVuSans-65" x="270.503906"/>
     <use xlink:href="#DejaVuSans-32" x="332.027344"/>
     <use xlink:href="#DejaVuSans-33" x="395.650391"/>
     <use xlink:href="#DejaVuSans-2d" x="459.273438"/>
     <use xlink:href="#DejaVuSans-72" x="495.357422"/>
     <use xlink:href="#DejaVuSans-65" x="534.220703"/>
     <use xlink:href="#DejaVuSans-63" x="595.744141"/>
     <use xlink:href="#DejaVuSans-65" x="650.724609"/>
     <use xlink:href="#DejaVuSans-69" x="712.248047"/>
     <use xlink:href="#DejaVuSans-76" x="740.03125"/>
     <use xlink:href="#DejaVuSans-65" x="799.210938"/>
     <use xlink:href="#DejaVuSans-72" x="860.734375"/>
     <use xlink:href="#DejaVuSans-35" x="901.847656"/>
    </g>
   </g>
  </g>
 </g>
 <defs>
  <clipPath id="p31008fd6c9">
   <rect x="180" y="69.12" width="1116" height="443.52"/>
  </clipPath>
 </defs>
</svg>
