<?xml version="1.0" encoding="utf-8" standalone="no"?>
<!DOCTYPE svg PUBLIC "-//W3C//DTD SVG 1.1//EN"
  "http://www.w3.org/Graphics/SVG/1.1/DTD/svg11.dtd">
<svg xmlns:xlink="http://www.w3.org/1999/xlink" width="1440pt" height="576pt" viewBox="0 0 1440 576" xmlns="http://www.w3.org/2000/svg" version="1.1">
 <metadata>
  <rdf:RDF xmlns:dc="http://purl.org/dc/elements/1.1/" xmlns:cc="http://creativecommons.org/ns#" xmlns:rdf="http://www.w3.org/1999/02/22-rdf-syntax-ns#">
   <cc:Work>
    <dc:type rdf:resource="http://purl.org/dc/dcmitype/StillImage"/>
    <dc:date>2024-05-22T04:50:23.805184</dc:date>
    <dc:format>image/svg+xml</dc:format>
    <dc:creator>
     <cc:Agent>
      <dc:title>Matplotlib v3.8.3, https://matplotlib.org/</dc:title>
     </cc:Agent>
    </dc:creator>
   </cc:Work>
  </rdf:RDF>
 </metadata>
 <defs>
  <style type="text/css">*{stroke-linejoin: round; stroke-linecap: butt}</style>
 </defs>
 <g id="figure_1">
  <g id="patch_1">
   <path d="M 0 576 
L 1440 576 
L 1440 0 
L 0 0 
z
" style="fill: #ffffff"/>
  </g>
  <g id="axes_1">
   <g id="patch_2">
    <path d="M 180 512.64 
L 1296 512.64 
L 1296 69.12 
L 180 69.12 
z
" style="fill: #ffffff"/>
   </g>
   <g id="matplotlib.axis_1">
    <g id="xtick_1">
     <g id="line2d_1">
      <defs>
       <path id="m91c251e9b0" d="M 0 0 
L 0 3.5 
" style="stroke: #000000; stroke-width: 0.8"/>
      </defs>
      <g>
       <use xlink:href="#m91c251e9b0" x="229.734567" y="512.64" style="stroke: #000000; stroke-width: 0.8"/>
      </g>
     </g>
     <g id="text_1">
      <!-- 0 -->
      <g transform="translate(226.553317 527.238438) scale(0.1 -0.1)">
       <defs>
        <path id="DejaVuSans-30" d="M 2034 4250 
Q 1547 4250 1301 3770 
Q 1056 3291 1056 2328 
Q 1056 1369 1301 889 
Q 1547 409 2034 409 
Q 2525 409 2770 889 
Q 3016 1369 3016 2328 
Q 3016 3291 2770 3770 
Q 2525 4250 2034 4250 
z
M 2034 4750 
Q 2819 4750 3233 4129 
Q 3647 3509 3647 2328 
Q 3647 1150 3233 529 
Q 2819 -91 2034 -91 
Q 1250 -91 836 529 
Q 422 1150 422 2328 
Q 422 3509 836 4129 
Q 1250 4750 2034 4750 
z
" transform="scale(0.015625)"/>
       </defs>
       <use xlink:href="#DejaVuSans-30"/>
      </g>
     </g>
    </g>
    <g id="xtick_2">
     <g id="line2d_2">
      <g>
       <use xlink:href="#m91c251e9b0" x="433.04074" y="512.64" style="stroke: #000000; stroke-width: 0.8"/>
      </g>
     </g>
     <g id="text_2">
      <!-- 500 -->
      <g transform="translate(423.49699 527.238438) scale(0.1 -0.1)">
       <defs>
        <path id="DejaVuSans-35" d="M 691 4666 
L 3169 4666 
L 3169 4134 
L 1269 4134 
L 1269 2991 
Q 1406 3038 1543 3061 
Q 1681 3084 1819 3084 
Q 2600 3084 3056 2656 
Q 3513 2228 3513 1497 
Q 3513 744 3044 326 
Q 2575 -91 1722 -91 
Q 1428 -91 1123 -41 
Q 819 9 494 109 
L 494 744 
Q 775 591 1075 516 
Q 1375 441 1709 441 
Q 2250 441 2565 725 
Q 2881 1009 2881 1497 
Q 2881 1984 2565 2268 
Q 2250 2553 1709 2553 
Q 1456 2553 1204 2497 
Q 953 2441 691 2322 
L 691 4666 
z
" transform="scale(0.015625)"/>
       </defs>
       <use xlink:href="#DejaVuSans-35"/>
       <use xlink:href="#DejaVuSans-30" x="63.623047"/>
       <use xlink:href="#DejaVuSans-30" x="127.246094"/>
      </g>
     </g>
    </g>
    <g id="xtick_3">
     <g id="line2d_3">
      <g>
       <use xlink:href="#m91c251e9b0" x="636.346913" y="512.64" style="stroke: #000000; stroke-width: 0.8"/>
      </g>
     </g>
     <g id="text_3">
      <!-- 1000 -->
      <g transform="translate(623.621913 527.238438) scale(0.1 -0.1)">
       <defs>
        <path id="DejaVuSans-31" d="M 794 531 
L 1825 531 
L 1825 4091 
L 703 3866 
L 703 4441 
L 1819 4666 
L 2450 4666 
L 2450 531 
L 3481 531 
L 3481 0 
L 794 0 
L 794 531 
z
" transform="scale(0.015625)"/>
       </defs>
       <use xlink:href="#DejaVuSans-31"/>
       <use xlink:href="#DejaVuSans-30" x="63.623047"/>
       <use xlink:href="#DejaVuSans-30" x="127.246094"/>
       <use xlink:href="#DejaVuSans-30" x="190.869141"/>
      </g>
     </g>
    </g>
    <g id="xtick_4">
     <g id="line2d_4">
      <g>
       <use xlink:href="#m91c251e9b0" x="839.653087" y="512.64" style="stroke: #000000; stroke-width: 0.8"/>
      </g>
     </g>
     <g id="text_4">
      <!-- 1500 -->
      <g transform="translate(826.928087 527.238438) scale(0.1 -0.1)">
       <use xlink:href="#DejaVuSans-31"/>
       <use xlink:href="#DejaVuSans-35" x="63.623047"/>
       <use xlink:href="#DejaVuSans-30" x="127.246094"/>
       <use xlink:href="#DejaVuSans-30" x="190.869141"/>
      </g>
     </g>
    </g>
    <g id="xtick_5">
     <g id="line2d_5">
      <g>
       <use xlink:href="#m91c251e9b0" x="1042.95926" y="512.64" style="stroke: #000000; stroke-width: 0.8"/>
      </g>
     </g>
     <g id="text_5">
      <!-- 2000 -->
      <g transform="translate(1030.23426 527.238438) scale(0.1 -0.1)">
       <defs>
        <path id="DejaVuSans-32" d="M 1228 531 
L 3431 531 
L 3431 0 
L 469 0 
L 469 531 
Q 828 903 1448 1529 
Q 2069 2156 2228 2338 
Q 2531 2678 2651 2914 
Q 2772 3150 2772 3378 
Q 2772 3750 2511 3984 
Q 2250 4219 1831 4219 
Q 1534 4219 1204 4116 
Q 875 4013 500 3803 
L 500 4441 
Q 881 4594 1212 4672 
Q 1544 4750 1819 4750 
Q 2544 4750 2975 4387 
Q 3406 4025 3406 3419 
Q 3406 3131 3298 2873 
Q 3191 2616 2906 2266 
Q 2828 2175 2409 1742 
Q 1991 1309 1228 531 
z
" transform="scale(0.015625)"/>
       </defs>
       <use xlink:href="#DejaVuSans-32"/>
       <use xlink:href="#DejaVuSans-30" x="63.623047"/>
       <use xlink:href="#DejaVuSans-30" x="127.246094"/>
       <use xlink:href="#DejaVuSans-30" x="190.869141"/>
      </g>
     </g>
    </g>
    <g id="xtick_6">
     <g id="line2d_6">
      <g>
       <use xlink:href="#m91c251e9b0" x="1246.265433" y="512.64" style="stroke: #000000; stroke-width: 0.8"/>
      </g>
     </g>
     <g id="text_6">
      <!-- 2500 -->
      <g transform="translate(1233.540433 527.238438) scale(0.1 -0.1)">
       <use xlink:href="#DejaVuSans-32"/>
       <use xlink:href="#DejaVuSans-35" x="63.623047"/>
       <use xlink:href="#DejaVuSans-30" x="127.246094"/>
       <use xlink:href="#DejaVuSans-30" x="190.869141"/>
      </g>
     </g>
    </g>
   </g>
   <g id="matplotlib.axis_2">
    <g id="ytick_1">
     <g id="line2d_7">
      <defs>
       <path id="mfba4b2e9eb" d="M 0 0 
L -3.5 0 
" style="stroke: #000000; stroke-width: 0.8"/>
      </defs>
      <g>
       <use xlink:href="#mfba4b2e9eb" x="180" y="418.231963" style="stroke: #000000; stroke-width: 0.8"/>
      </g>
     </g>
     <g id="text_7">
      <!-- −2 -->
      <g transform="translate(158.257812 422.031182) scale(0.1 -0.1)">
       <defs>
        <path id="DejaVuSans-2212" d="M 678 2272 
L 4684 2272 
L 4684 1741 
L 678 1741 
L 678 2272 
z
" transform="scale(0.015625)"/>
       </defs>
       <use xlink:href="#DejaVuSans-2212"/>
       <use xlink:href="#DejaVuSans-32" x="83.789062"/>
      </g>
     </g>
    </g>
    <g id="ytick_2">
     <g id="line2d_8">
      <g>
       <use xlink:href="#mfba4b2e9eb" x="180" y="323.263849" style="stroke: #000000; stroke-width: 0.8"/>
      </g>
     </g>
     <g id="text_8">
      <!-- 0 -->
      <g transform="translate(166.6375 327.063068) scale(0.1 -0.1)">
       <use xlink:href="#DejaVuSans-30"/>
      </g>
     </g>
    </g>
    <g id="ytick_3">
     <g id="line2d_9">
      <g>
       <use xlink:href="#mfba4b2e9eb" x="180" y="228.295735" style="stroke: #000000; stroke-width: 0.8"/>
      </g>
     </g>
     <g id="text_9">
      <!-- 2 -->
      <g transform="translate(166.6375 232.094954) scale(0.1 -0.1)">
       <use xlink:href="#DejaVuSans-32"/>
      </g>
     </g>
    </g>
    <g id="ytick_4">
     <g id="line2d_10">
      <g>
       <use xlink:href="#mfba4b2e9eb" x="180" y="133.32762" style="stroke: #000000; stroke-width: 0.8"/>
      </g>
     </g>
     <g id="text_10">
      <!-- 4 -->
      <g transform="translate(166.6375 137.126839) scale(0.1 -0.1)">
       <defs>
        <path id="DejaVuSans-34" d="M 2419 4116 
L 825 1625 
L 2419 1625 
L 2419 4116 
z
M 2253 4666 
L 3047 4666 
L 3047 1625 
L 3713 1625 
L 3713 1100 
L 3047 1100 
L 3047 0 
L 2419 0 
L 2419 1100 
L 313 1100 
L 313 1709 
L 2253 4666 
z
" transform="scale(0.015625)"/>
       </defs>
       <use xlink:href="#DejaVuSans-34"/>
      </g>
     </g>
    </g>
   </g>
   <g id="line2d_11">
    <path d="M 230.727273 330.411279 
L 231.719979 330.070612 
L 232.712685 329.937908 
L 234.698096 328.876585 
L 235.690802 328.206768 
L 237.676214 326.455622 
L 239.661626 324.538009 
L 241.647038 322.406258 
L 242.639744 321.549686 
L 243.63245 321.141224 
L 244.625156 324.354245 
L 245.617862 327.088578 
L 246.610568 302.056367 
L 247.603273 280.463951 
L 248.595979 281.139467 
L 249.588685 292.84536 
L 250.581391 257.625786 
L 251.574097 246.506836 
L 252.566803 291.484911 
L 253.559509 246.432712 
L 254.552215 212.335586 
L 255.544921 202.411796 
L 256.537627 182.831226 
L 257.530333 166.898317 
L 258.523039 172.312342 
L 259.515745 219.559126 
L 261.501156 165.649378 
L 262.493862 172.180922 
L 263.486568 190.835104 
L 264.479274 168.503211 
L 265.47198 159.645505 
L 266.464686 173.28015 
L 267.457392 189.681273 
L 268.450098 194.070933 
L 269.442804 256.131804 
L 270.43551 218.309588 
L 271.428216 235.394521 
L 272.420922 167.658627 
L 273.413627 139.575593 
L 274.406333 156.812608 
L 275.399039 177.740049 
L 276.391745 115.632449 
L 277.384451 107.56673 
L 278.377157 141.682537 
L 279.369863 148.166042 
L 280.362569 98.396417 
L 281.355275 89.28 
L 282.347981 100.879005 
L 283.340687 141.436474 
L 284.333393 176.06299 
L 285.326099 117.383892 
L 286.318804 103.871279 
L 287.31151 110.92733 
L 288.304216 138.839203 
L 289.296922 146.649411 
L 290.289628 129.038066 
L 291.282334 128.036955 
L 292.27504 138.044305 
L 293.267746 152.777732 
L 294.260452 157.000679 
L 295.253158 161.727785 
L 296.245864 183.400934 
L 297.23857 182.196935 
L 298.231276 178.957594 
L 300.216687 227.403735 
L 301.209393 239.168319 
L 302.202099 291.713797 
L 303.194805 255.511172 
L 304.187511 284.206333 
L 305.180217 264.671337 
L 306.172923 260.925854 
L 307.165629 318.351452 
L 308.158335 299.17898 
L 309.151041 331.006179 
L 310.143747 320.824209 
L 311.136453 307.440919 
L 312.129159 339.672646 
L 313.121864 316.363204 
L 314.11457 324.214696 
L 315.107276 327.02365 
L 316.099982 325.147626 
L 317.092688 331.163866 
L 318.085394 326.035185 
L 319.0781 333.421327 
L 320.070806 330.033419 
L 321.063512 332.21537 
L 322.056218 331.85455 
L 323.048924 333.159997 
L 324.04163 331.150013 
L 325.034336 333.080552 
L 326.027041 337.668907 
L 327.019747 336.625129 
L 328.012453 338.220529 
L 329.005159 333.40371 
L 329.997865 336.330446 
L 330.990571 342.112091 
L 331.983277 335.930975 
L 332.975983 335.659839 
L 333.968689 343.900468 
L 334.961395 340.401141 
L 335.954101 344.028423 
L 336.946807 345.910721 
L 337.939513 336.094831 
L 338.932218 345.058931 
L 339.924924 345.940373 
L 340.91763 343.045297 
L 341.910336 347.000442 
L 342.903042 346.353003 
L 343.895748 340.771515 
L 344.888454 347.809916 
L 345.88116 351.454311 
L 346.873866 347.648126 
L 347.866572 351.269712 
L 348.859278 351.520567 
L 349.851984 346.049194 
L 350.84469 352.189315 
L 351.837395 348.307743 
L 352.830101 349.422326 
L 353.822807 349.351652 
L 354.815513 353.343554 
L 355.808219 350.776804 
L 356.800925 351.290274 
L 357.793631 358.239737 
L 358.786337 351.46756 
L 359.779043 357.795037 
L 360.771749 354.525838 
L 361.764455 357.639361 
L 362.757161 353.901712 
L 363.749867 357.542207 
L 364.742572 358.034021 
L 365.735278 362.96619 
L 366.727984 356.895885 
L 367.72069 352.647156 
L 368.713396 360.416911 
L 369.706102 355.510676 
L 370.698808 357.744115 
L 371.691514 356.672421 
L 372.68422 357.983578 
L 373.676926 351.039954 
L 374.669632 365.4203 
L 375.662338 354.832018 
L 376.655044 359.749552 
L 377.64775 357.39377 
L 378.640455 360.003488 
L 379.633161 355.366777 
L 380.625867 366.839396 
L 381.618573 379.88556 
L 382.611279 363.783707 
L 383.603985 386.057107 
L 384.596691 358.964526 
L 385.589397 374.784244 
L 386.582103 365.263394 
L 387.574809 365.242032 
L 388.567515 365.398928 
L 389.560221 371.936128 
L 390.552927 363.68001 
L 391.545632 365.074412 
L 392.538338 367.099772 
L 393.531044 359.351995 
L 394.52375 366.050751 
L 395.516456 371.426412 
L 396.509162 372.637461 
L 397.501868 365.619827 
L 398.494574 375.14873 
L 399.48728 367.13398 
L 400.479986 366.309418 
L 401.472692 370.828859 
L 402.465398 365.673735 
L 403.458104 369.758667 
L 404.450809 366.866361 
L 405.443515 372.529677 
L 406.436221 361.330296 
L 407.428927 373.941229 
L 408.421633 369.248311 
L 409.414339 368.519502 
L 410.407045 368.788571 
L 411.399751 369.491355 
L 412.392457 376.091884 
L 413.385163 371.412995 
L 414.377869 373.23439 
L 415.370575 379.062751 
L 416.363281 380.179687 
L 417.355986 371.124024 
L 418.348692 381.506677 
L 419.341398 369.890611 
L 420.334104 371.082639 
L 421.32681 380.317756 
L 422.319516 372.446007 
L 423.312222 380.11784 
L 424.304928 370.943964 
L 425.297634 382.19318 
L 426.29034 374.493056 
L 427.283046 374.571214 
L 428.275752 383.495408 
L 429.268458 384.788551 
L 430.261163 371.533101 
L 431.253869 376.289747 
L 432.246575 379.69868 
L 433.239281 372.70985 
L 434.231987 383.999925 
L 435.224693 376.875438 
L 436.217399 374.321862 
L 437.210105 383.855138 
L 438.202811 379.389535 
L 439.195517 379.597122 
L 440.188223 381.936565 
L 441.180929 380.560078 
L 442.173635 377.918711 
L 443.166341 380.933461 
L 444.159046 381.702263 
L 445.151752 388.835839 
L 446.144458 381.034346 
L 447.137164 378.62129 
L 448.12987 385.721506 
L 449.122576 378.451418 
L 450.115282 388.089601 
L 451.107988 379.722327 
L 452.100694 385.087758 
L 453.0934 386.750047 
L 454.086106 376.283583 
L 455.078812 379.641376 
L 456.071518 382.077552 
L 457.064223 380.202934 
L 458.056929 386.124334 
L 459.049635 394.496044 
L 460.042341 373.490852 
L 461.035047 394.433846 
L 462.027753 376.734396 
L 463.020459 392.121673 
L 464.013165 395.161708 
L 465.005871 387.335306 
L 465.998577 392.20543 
L 466.991283 388.892023 
L 467.983989 387.76559 
L 468.976695 386.320768 
L 469.9694 381.63616 
L 470.962106 387.508059 
L 471.954812 387.659631 
L 472.947518 395.387163 
L 473.940224 392.724151 
L 474.93293 395.903568 
L 475.925636 384.317733 
L 476.918342 386.725436 
L 477.911048 395.822954 
L 478.903754 389.576072 
L 479.89646 386.773575 
L 480.889166 395.92063 
L 481.881872 382.249637 
L 482.874577 379.022554 
L 483.867283 391.404622 
L 484.859989 391.960978 
L 485.852695 406.05443 
L 486.845401 381.963882 
L 487.838107 386.591774 
L 488.830813 393.918109 
L 489.823519 375.625534 
L 490.816225 404.759065 
L 491.808931 386.295256 
L 492.801637 387.122061 
L 494.787049 398.935818 
L 495.779754 384.041117 
L 496.77246 380.738687 
L 497.765166 388.286402 
L 498.757872 393.340062 
L 499.750578 395.927593 
L 500.743284 385.864073 
L 501.73599 394.014286 
L 502.728696 383.530812 
L 503.721402 416.257876 
L 504.714108 394.898181 
L 505.706814 391.214239 
L 506.69952 378.168789 
L 507.692226 414.090672 
L 508.684932 396.753064 
L 509.677637 382.400276 
L 510.670343 377.525629 
L 511.663049 370.685247 
L 512.655755 492.48 
L 513.648461 363.818734 
L 514.641167 408.711317 
L 515.633873 400.749778 
L 516.626579 389.977037 
L 517.619285 387.871401 
L 518.611991 409.128753 
L 519.604697 361.946122 
L 520.597403 394.181189 
L 521.590109 391.583807 
L 522.582814 408.271788 
L 523.57552 399.852502 
L 524.568226 385.486352 
L 525.560932 421.606142 
L 526.553638 382.239317 
L 527.546344 416.623587 
L 528.53905 396.988119 
L 529.531756 384.461833 
L 530.524462 369.668862 
L 531.517168 431.886366 
L 532.509874 377.896862 
L 534.495286 397.649939 
L 536.480697 421.905956 
L 537.473403 370.058702 
L 538.466109 381.996042 
L 539.458815 367.412284 
L 540.451521 363.829994 
L 541.444227 467.169581 
L 542.436933 396.467645 
L 543.429639 383.729088 
L 544.422345 407.320699 
L 545.415051 390.282987 
L 546.407757 381.030931 
L 547.400463 416.756586 
L 548.393168 407.742086 
L 549.385874 401.302561 
L 550.37858 399.868541 
L 551.371286 388.515221 
L 552.363992 412.867402 
L 553.356698 389.547767 
L 554.349404 402.90659 
L 555.34211 425.864863 
L 556.334816 383.024065 
L 557.327522 374.57315 
L 558.320228 407.648685 
L 559.312934 407.338657 
L 560.30564 403.790208 
L 561.298345 391.660209 
L 562.291051 433.478916 
L 563.283757 383.647975 
L 564.276463 379.733379 
L 565.269169 424.608247 
L 566.261875 379.574891 
L 567.254581 404.316244 
L 568.247287 418.847237 
L 569.239993 392.019372 
L 570.232699 400.811982 
L 571.225405 416.010558 
L 572.218111 398.286703 
L 573.210817 409.083918 
L 574.203523 387.552657 
L 575.196228 407.728433 
L 576.188934 411.227578 
L 577.18164 396.844293 
L 578.174346 417.523078 
L 579.167052 395.277282 
L 580.159758 406.558824 
L 581.152464 398.311537 
L 582.14517 439.482332 
L 583.137876 395.313625 
L 584.130582 424.068417 
L 585.123288 398.359403 
L 586.115994 412.975946 
L 587.1087 400.145954 
L 588.101405 391.210361 
L 589.094111 443.758404 
L 590.086817 396.831141 
L 591.079523 407.82665 
L 592.072229 406.87671 
L 593.064935 410.445782 
L 594.057641 396.6994 
L 595.050347 430.907009 
L 596.043053 402.433998 
L 597.035759 398.811694 
L 598.028465 403.475608 
L 599.021171 405.692641 
L 600.013877 406.763975 
L 601.006582 408.485203 
L 601.999288 404.667108 
L 602.991994 410.194228 
L 603.9847 410.257626 
L 604.977406 415.980847 
L 605.970112 413.046146 
L 606.962818 403.380011 
L 607.955524 404.910408 
L 608.94823 409.721406 
L 609.940936 409.320448 
L 610.933642 406.876416 
L 611.926348 406.22946 
L 612.919054 416.027854 
L 613.911759 402.829715 
L 614.904465 407.2464 
L 615.897171 407.15537 
L 616.889877 407.764527 
L 617.882583 404.262019 
L 618.875289 407.42474 
L 619.867995 407.241999 
L 620.860701 406.703273 
L 621.853407 408.118487 
L 622.846113 416.279168 
L 623.838819 412.218491 
L 624.831525 406.13818 
L 625.824231 409.660957 
L 626.816936 403.699699 
L 627.809642 412.157403 
L 628.802348 406.352511 
L 629.795054 411.570846 
L 630.78776 414.635838 
L 631.780466 406.226237 
L 632.773172 411.459973 
L 633.765878 403.445996 
L 634.758584 412.03704 
L 635.75129 415.013403 
L 636.743996 408.740943 
L 637.736702 411.30385 
L 638.729408 407.651806 
L 639.722114 409.747381 
L 640.714819 410.916037 
L 641.707525 413.411277 
L 642.700231 414.545204 
L 643.692937 409.592204 
L 644.685643 412.1176 
L 645.678349 409.739635 
L 646.671055 414.42994 
L 647.663761 414.129383 
L 648.656467 413.366098 
L 649.649173 411.777306 
L 650.641879 412.051394 
L 651.634585 409.913646 
L 652.627291 414.100616 
L 653.619996 416.027825 
L 654.612702 412.645097 
L 655.605408 413.986228 
L 656.598114 413.709759 
L 657.59082 413.913509 
L 658.583526 410.676295 
L 659.576232 411.902968 
L 660.568938 412.360953 
L 661.561644 411.408916 
L 662.55435 413.644941 
L 663.547056 414.163976 
L 664.539762 413.78397 
L 665.532468 411.366994 
L 666.525173 416.589702 
L 667.517879 414.275209 
L 668.510585 414.491715 
L 669.503291 416.224285 
L 670.495997 414.168162 
L 671.488703 413.476619 
L 672.481409 413.866567 
L 673.474115 414.999977 
L 674.466821 417.242086 
L 675.459527 416.561932 
L 676.452233 414.879794 
L 677.444939 415.702659 
L 678.437645 415.192578 
L 679.43035 415.143375 
L 680.423056 415.799279 
L 681.415762 415.602503 
L 682.408468 414.434782 
L 683.401174 416.223769 
L 684.39388 416.752887 
L 685.386586 416.3413 
L 686.379292 416.440325 
L 687.371998 415.881175 
L 688.364704 417.062693 
L 689.35741 417.54474 
L 690.350116 414.317599 
L 691.342822 416.270737 
L 692.335527 416.872001 
L 693.328233 416.715808 
L 694.320939 416.796319 
L 695.313645 416.681106 
L 696.306351 417.167571 
L 698.291763 416.983117 
L 699.284469 418.263139 
L 700.277175 416.04457 
L 701.269881 417.984519 
L 702.262587 416.868696 
L 703.255293 417.721758 
L 704.247999 418.742569 
L 705.240705 417.933464 
L 706.23341 417.805488 
L 707.226116 417.933427 
L 708.218822 417.933744 
L 710.204234 418.759927 
L 711.19694 419.565313 
L 712.189646 418.086487 
L 713.182352 418.030052 
L 714.175058 417.469759 
L 715.167764 419.323129 
L 716.16047 418.998123 
L 717.153176 419.373018 
L 718.145882 419.408684 
L 719.138587 418.6868 
L 720.131293 418.661633 
L 721.123999 418.780099 
L 722.116705 419.585721 
L 723.109411 419.400219 
L 724.102117 419.655548 
L 725.094823 419.3445 
L 726.087529 419.985805 
L 727.080235 419.464928 
L 729.065647 420.242222 
L 730.058353 419.344728 
L 731.051059 419.541309 
L 732.043764 420.499319 
L 733.03647 419.652833 
L 734.029176 419.717706 
L 735.021882 420.530579 
L 736.014588 419.704084 
L 737.007294 420.456123 
L 738 420.653642 
L 738.992706 420.577188 
L 739.985412 420.151496 
L 740.978118 420.926456 
L 741.970824 420.98809 
L 742.96353 420.88048 
L 743.956236 421.055531 
L 744.948941 420.262839 
L 745.941647 421.43774 
L 746.934353 421.395005 
L 747.927059 421.154259 
L 748.919765 421.440579 
L 750.905177 421.553507 
L 751.897883 422.294361 
L 752.890589 421.565301 
L 753.883295 421.620636 
L 754.876001 422.183105 
L 755.868707 421.468398 
L 756.861413 422.018894 
L 757.854118 421.581339 
L 758.846824 421.532567 
L 759.83953 422.407609 
L 760.832236 422.163354 
L 761.824942 422.571516 
L 762.817648 422.458299 
L 763.810354 422.609182 
L 764.80306 422.881553 
L 765.795766 422.060387 
L 766.788472 422.554219 
L 767.781178 422.721549 
L 768.773884 422.497048 
L 769.76659 423.278047 
L 770.759295 423.345468 
L 771.752001 422.878346 
L 772.744707 423.206668 
L 773.737413 422.784495 
L 774.730119 422.052526 
L 775.722825 422.715555 
L 776.715531 423.818362 
L 777.708237 423.517208 
L 778.700943 423.03987 
L 779.693649 423.790283 
L 781.679061 423.355442 
L 783.664473 424.018192 
L 784.657178 423.40156 
L 785.649884 423.285368 
L 786.64259 424.337664 
L 787.635296 424.097524 
L 788.628002 424.656172 
L 789.620708 423.861615 
L 790.613414 424.452631 
L 792.598826 424.47513 
L 793.591532 424.3553 
L 794.584238 424.777417 
L 795.576944 424.234778 
L 799.547767 424.791609 
L 800.540473 424.254697 
L 801.533179 424.528738 
L 802.525885 425.008807 
L 803.518591 424.782921 
L 804.511297 425.197451 
L 805.504003 424.732845 
L 806.496709 424.405464 
L 807.489415 425.471279 
L 808.482121 425.254008 
L 809.474827 425.364361 
L 810.467532 425.220188 
L 811.460238 425.69505 
L 813.44565 424.864835 
L 814.438356 425.92544 
L 815.431062 425.45563 
L 816.423768 426.057571 
L 817.416474 426.445466 
L 818.40918 425.430419 
L 820.394592 425.650518 
L 821.387298 426.246564 
L 822.380004 426.477306 
L 824.365415 426.323276 
L 825.358121 426.325546 
L 826.350827 426.133775 
L 827.343533 426.370743 
L 828.336239 426.19346 
L 830.321651 426.28962 
L 831.314357 426.593298 
L 833.299769 426.361186 
L 834.292475 427.154908 
L 835.285181 427.081297 
L 836.277886 426.26509 
L 837.270592 427.074776 
L 838.263298 426.630745 
L 839.256004 427.867562 
L 840.24871 426.99227 
L 841.241416 427.312855 
L 842.234122 427.368652 
L 843.226828 427.283112 
L 844.219534 426.923529 
L 845.21224 427.846761 
L 846.204946 427.525622 
L 847.197652 427.835156 
L 848.190358 427.415071 
L 849.183064 427.558123 
L 850.175769 427.863045 
L 851.168475 428.373484 
L 852.161181 427.91846 
L 853.153887 427.638065 
L 854.146593 427.999497 
L 856.132005 427.611114 
L 857.124711 428.657542 
L 858.117417 427.487448 
L 859.110123 428.124562 
L 861.095535 428.360902 
L 862.088241 428.692988 
L 863.080946 428.627015 
L 864.073652 427.968603 
L 865.066358 427.687714 
L 866.059064 427.812206 
L 867.05177 428.759111 
L 868.044476 429.278428 
L 869.037182 428.730731 
L 870.029888 428.632928 
L 871.022594 428.837104 
L 872.0153 428.283391 
L 873.008006 428.914632 
L 874.000712 429.227119 
L 876.978829 428.796668 
L 877.971535 429.272323 
L 878.964241 428.985287 
L 880.949653 428.988345 
L 881.942359 429.436524 
L 882.935065 429.426112 
L 883.927771 428.782914 
L 885.913183 429.526778 
L 886.905889 430.135802 
L 887.898595 429.857418 
L 888.8913 429.2812 
L 889.884006 429.924056 
L 890.876712 429.750228 
L 891.869418 430.454237 
L 892.862124 429.467644 
L 893.85483 430.095227 
L 894.847536 429.547697 
L 895.840242 429.580756 
L 896.832948 430.706288 
L 897.825654 430.590954 
L 898.81836 429.679605 
L 899.811066 429.419761 
L 900.803772 430.813174 
L 901.796477 429.936573 
L 902.789183 429.57751 
L 903.781889 429.924696 
L 904.774595 430.866851 
L 905.767301 430.463405 
L 906.760007 430.292582 
L 907.752713 429.643404 
L 908.745419 430.628255 
L 909.738125 430.489624 
L 910.730831 429.962493 
L 911.723537 431.17925 
L 912.716243 430.793939 
L 913.708949 430.771584 
L 914.701655 430.97282 
L 915.69436 430.524105 
L 916.687066 430.255295 
L 917.679772 431.017313 
L 918.672478 430.918305 
L 919.665184 430.451105 
L 920.65789 430.780391 
L 921.650596 430.887803 
L 922.643302 431.34155 
L 923.636008 431.100121 
L 924.628714 431.126167 
L 925.62142 430.918583 
L 926.614126 431.405393 
L 927.606832 431.183253 
L 928.599537 431.663274 
L 930.584949 431.633432 
L 931.577655 431.898405 
L 932.570361 431.746321 
L 933.563067 431.951243 
L 934.555773 432.027328 
L 935.548479 431.63723 
L 936.541185 430.843385 
L 937.533891 431.640539 
L 938.526597 431.474488 
L 939.519303 431.882158 
L 941.504714 431.47659 
L 942.49742 431.854791 
L 943.490126 431.956184 
L 944.482832 431.782246 
L 945.475538 432.144176 
L 946.468244 431.855944 
L 947.46095 431.43186 
L 948.453656 432.431352 
L 949.446362 432.146316 
L 950.439068 431.63398 
L 951.431774 432.724941 
L 952.42448 432.777445 
L 953.417186 432.13161 
L 954.409891 431.864329 
L 955.402597 432.331727 
L 956.395303 432.063627 
L 958.380715 432.425362 
L 959.373421 432.193679 
L 961.358833 433.334518 
L 962.351539 432.236493 
L 964.336951 432.077348 
L 965.329657 432.929599 
L 967.315068 431.590527 
L 968.307774 433.368443 
L 969.30048 433.043728 
L 970.293186 433.075775 
L 971.285892 432.030976 
L 972.278598 432.330583 
L 973.271304 432.376155 
L 974.26401 433.127141 
L 975.256716 432.92023 
L 976.249422 432.984252 
L 977.242128 433.989805 
L 978.234834 433.24786 
L 979.22754 433.102273 
L 981.212951 433.418374 
L 982.205657 432.845316 
L 983.198363 433.614609 
L 984.191069 433.302124 
L 985.183775 433.17822 
L 986.176481 433.416749 
L 987.169187 433.406215 
L 988.161893 433.187301 
L 989.154599 433.704812 
L 990.147305 433.494756 
L 991.140011 433.824929 
L 992.132717 433.34411 
L 993.125423 434.114015 
L 994.118128 433.883914 
L 995.110834 433.083382 
L 996.10354 433.421231 
L 997.096246 433.281197 
L 998.088952 433.619587 
L 999.081658 433.312802 
L 1000.074364 433.527919 
L 1002.059776 434.362095 
L 1004.045188 433.743921 
L 1005.037894 433.789965 
L 1006.0306 434.584636 
L 1007.023305 433.680332 
L 1008.016011 433.739852 
L 1009.008717 433.64595 
L 1010.994129 434.071968 
L 1011.986835 433.840539 
L 1012.979541 434.708346 
L 1013.972247 434.555622 
L 1014.964953 433.934421 
L 1015.957659 433.845868 
L 1017.943071 434.670316 
L 1019.928482 434.697935 
L 1020.921188 434.884746 
L 1021.913894 434.604897 
L 1022.9066 434.763899 
L 1024.892012 433.523156 
L 1025.884718 434.506905 
L 1026.877424 434.071674 
L 1027.87013 434.639997 
L 1028.862836 434.370179 
L 1029.855542 434.479873 
L 1032.833659 434.248977 
L 1033.826365 435.183606 
L 1034.819071 434.798028 
L 1035.811777 434.818078 
L 1036.804483 435.043446 
L 1037.797189 434.457263 
L 1038.789895 434.332132 
L 1039.782601 435.022401 
L 1042.760719 434.477189 
L 1043.753425 435.055064 
L 1044.746131 433.737153 
L 1045.738837 435.517176 
L 1046.731542 434.336027 
L 1047.724248 435.06164 
L 1048.716954 434.800752 
L 1049.70966 434.978426 
L 1052.687778 435.141927 
L 1053.680484 435.557413 
L 1054.67319 435.479176 
L 1055.665896 434.767243 
L 1056.658602 435.020644 
L 1057.651308 434.655409 
L 1058.644014 434.854161 
L 1059.636719 435.976558 
L 1061.622131 434.67304 
L 1063.607543 435.884609 
L 1064.600249 435.498292 
L 1065.592955 434.952104 
L 1066.585661 435.893733 
L 1067.578367 434.779344 
L 1068.571073 434.89621 
L 1070.556485 436.335527 
L 1071.549191 435.954481 
L 1072.541896 436.364585 
L 1073.534602 434.991717 
L 1074.527308 435.667654 
L 1075.520014 436.136515 
L 1076.51272 436.440544 
L 1077.505426 435.510967 
L 1078.498132 434.895274 
L 1079.490838 435.138305 
L 1080.483544 435.610822 
L 1081.47625 436.307863 
L 1082.468956 436.242892 
L 1083.461662 435.820979 
L 1084.454368 436.303071 
L 1085.447073 435.798353 
L 1086.439779 436.490551 
L 1087.432485 436.124885 
L 1088.425191 435.40011 
L 1090.410603 435.785523 
L 1091.403309 435.613375 
L 1092.396015 435.870926 
L 1093.388721 435.625107 
L 1094.381427 435.940393 
L 1095.374133 435.704707 
L 1096.366839 436.144219 
L 1097.359545 436.208844 
L 1098.35225 435.588537 
L 1099.344956 436.168568 
L 1100.337662 436.000047 
L 1101.330368 435.691025 
L 1102.323074 435.703335 
L 1103.31578 436.315903 
L 1104.308486 436.183421 
L 1106.293898 436.734072 
L 1107.286604 435.66502 
L 1108.27931 436.28649 
L 1109.272016 436.039164 
L 1110.264722 436.031816 
L 1111.257428 436.590119 
L 1112.250133 436.372556 
L 1113.242839 435.889901 
L 1115.228251 436.618334 
L 1116.220957 436.203526 
L 1117.213663 436.540486 
L 1118.206369 436.413004 
L 1119.199075 436.130855 
L 1121.184487 436.231754 
L 1122.177193 435.82794 
L 1123.169899 436.39196 
L 1124.162605 436.29903 
L 1125.15531 436.90383 
L 1126.148016 436.128676 
L 1127.140722 437.049918 
L 1128.133428 436.449618 
L 1129.126134 435.9886 
L 1131.111546 436.935132 
L 1132.104252 435.9043 
L 1133.096958 437.081743 
L 1134.089664 436.478016 
L 1135.08237 436.302038 
L 1136.075076 436.430103 
L 1137.067782 437.134618 
L 1138.060487 436.842476 
L 1139.053193 436.76771 
L 1140.045899 437.394519 
L 1141.038605 436.797676 
L 1142.031311 435.786448 
L 1143.024017 436.781687 
L 1144.016723 437.411552 
L 1145.009429 436.604682 
L 1146.002135 437.041105 
L 1146.994841 435.810696 
L 1147.987547 436.243197 
L 1148.980253 437.265885 
L 1149.972959 436.121145 
L 1150.965664 436.515675 
L 1151.95837 436.441947 
L 1152.951076 436.758679 
L 1153.943782 436.034017 
L 1154.936488 437.051647 
L 1155.929194 437.074171 
L 1156.9219 437.744521 
L 1157.914606 437.076871 
L 1158.907312 436.081119 
L 1159.900018 436.802618 
L 1162.878136 436.989463 
L 1165.856253 437.348689 
L 1166.848959 437.242763 
L 1167.841665 436.912272 
L 1168.834371 435.992088 
L 1169.827077 437.304697 
L 1170.819783 437.241986 
L 1171.812489 436.404758 
L 1172.805195 436.531255 
L 1173.797901 437.027308 
L 1174.790607 436.994723 
L 1175.783313 436.475998 
L 1176.776019 436.823722 
L 1177.768724 437.030741 
L 1178.76143 437.045367 
L 1179.754136 436.723089 
L 1180.746842 436.523784 
L 1181.739548 437.665079 
L 1182.732254 437.067285 
L 1183.72496 436.672742 
L 1184.717666 436.965993 
L 1186.703078 436.46264 
L 1187.695784 436.76125 
L 1188.68849 436.854509 
L 1189.681196 437.081538 
L 1190.673901 436.77879 
L 1191.666607 437.023285 
L 1194.644725 437.186599 
L 1195.637431 436.958536 
L 1197.622843 436.851853 
L 1198.615549 437.359641 
L 1199.608255 437.450268 
L 1200.600961 437.27412 
L 1201.593667 437.496882 
L 1202.586373 437.128037 
L 1204.571784 437.06309 
L 1205.56449 437.122077 
L 1206.557196 437.821279 
L 1207.549902 436.994396 
L 1209.535314 437.864523 
L 1211.520726 436.796931 
L 1212.513432 437.659403 
L 1213.506138 436.777589 
L 1214.498844 437.483815 
L 1215.49155 437.038429 
L 1217.476961 436.71802 
L 1218.469667 437.526278 
L 1219.462373 437.920607 
L 1221.447785 436.190785 
L 1222.440491 437.649675 
L 1223.433197 436.549886 
L 1225.418609 436.959083 
L 1226.411315 438.068057 
L 1227.404021 437.590662 
L 1228.396727 436.721855 
L 1229.389432 437.510772 
L 1230.382138 437.709173 
L 1231.374844 437.040291 
L 1233.360256 437.395777 
L 1235.345668 437.679208 
L 1236.338374 437.595216 
L 1237.33108 436.693168 
L 1240.309198 437.721612 
L 1241.301904 437.257908 
L 1242.29461 436.998364 
L 1243.287315 437.055699 
L 1244.280021 437.515372 
L 1245.272727 437.733598 
L 1245.272727 437.733598 
" clip-path="url(#pf9f5ff0c23)" style="fill: none; stroke: #1f77b4; stroke-width: 1.5; stroke-linecap: square"/>
   </g>
   <g id="patch_3">
    <path d="M 180 512.64 
L 180 69.12 
" style="fill: none; stroke: #000000; stroke-width: 0.8; stroke-linejoin: miter; stroke-linecap: square"/>
   </g>
   <g id="patch_4">
    <path d="M 1296 512.64 
L 1296 69.12 
" style="fill: none; stroke: #000000; stroke-width: 0.8; stroke-linejoin: miter; stroke-linecap: square"/>
   </g>
   <g id="patch_5">
    <path d="M 180 512.64 
L 1296 512.64 
" style="fill: none; stroke: #000000; stroke-width: 0.8; stroke-linejoin: miter; stroke-linecap: square"/>
   </g>
   <g id="patch_6">
    <path d="M 180 69.12 
L 1296 69.12 
" style="fill: none; stroke: #000000; stroke-width: 0.8; stroke-linejoin: miter; stroke-linecap: square"/>
   </g>
   <g id="text_11">
    <!-- source23-receiver7 -->
    <g transform="translate(544.9 60.80125) scale(0.4 -0.4)">
     <defs>
      <path id="DejaVuSans-73" d="M 2834 3397 
L 2834 2853 
Q 2591 2978 2328 3040 
Q 2066 3103 1784 3103 
Q 1356 3103 1142 2972 
Q 928 2841 928 2578 
Q 928 2378 1081 2264 
Q 1234 2150 1697 2047 
L 1894 2003 
Q 2506 1872 2764 1633 
Q 3022 1394 3022 966 
Q 3022 478 2636 193 
Q 2250 -91 1575 -91 
Q 1294 -91 989 -36 
Q 684 19 347 128 
L 347 722 
Q 666 556 975 473 
Q 1284 391 1588 391 
Q 1994 391 2212 530 
Q 2431 669 2431 922 
Q 2431 1156 2273 1281 
Q 2116 1406 1581 1522 
L 1381 1569 
Q 847 1681 609 1914 
Q 372 2147 372 2553 
Q 372 3047 722 3315 
Q 1072 3584 1716 3584 
Q 2034 3584 2315 3537 
Q 2597 3491 2834 3397 
z
" transform="scale(0.015625)"/>
      <path id="DejaVuSans-6f" d="M 1959 3097 
Q 1497 3097 1228 2736 
Q 959 2375 959 1747 
Q 959 1119 1226 758 
Q 1494 397 1959 397 
Q 2419 397 2687 759 
Q 2956 1122 2956 1747 
Q 2956 2369 2687 2733 
Q 2419 3097 1959 3097 
z
M 1959 3584 
Q 2709 3584 3137 3096 
Q 3566 2609 3566 1747 
Q 3566 888 3137 398 
Q 2709 -91 1959 -91 
Q 1206 -91 779 398 
Q 353 888 353 1747 
Q 353 2609 779 3096 
Q 1206 3584 1959 3584 
z
" transform="scale(0.015625)"/>
      <path id="DejaVuSans-75" d="M 544 1381 
L 544 3500 
L 1119 3500 
L 1119 1403 
Q 1119 906 1312 657 
Q 1506 409 1894 409 
Q 2359 409 2629 706 
Q 2900 1003 2900 1516 
L 2900 3500 
L 3475 3500 
L 3475 0 
L 2900 0 
L 2900 538 
Q 2691 219 2414 64 
Q 2138 -91 1772 -91 
Q 1169 -91 856 284 
Q 544 659 544 1381 
z
M 1991 3584 
L 1991 3584 
z
" transform="scale(0.015625)"/>
      <path id="DejaVuSans-72" d="M 2631 2963 
Q 2534 3019 2420 3045 
Q 2306 3072 2169 3072 
Q 1681 3072 1420 2755 
Q 1159 2438 1159 1844 
L 1159 0 
L 581 0 
L 581 3500 
L 1159 3500 
L 1159 2956 
Q 1341 3275 1631 3429 
Q 1922 3584 2338 3584 
Q 2397 3584 2469 3576 
Q 2541 3569 2628 3553 
L 2631 2963 
z
" transform="scale(0.015625)"/>
      <path id="DejaVuSans-63" d="M 3122 3366 
L 3122 2828 
Q 2878 2963 2633 3030 
Q 2388 3097 2138 3097 
Q 1578 3097 1268 2742 
Q 959 2388 959 1747 
Q 959 1106 1268 751 
Q 1578 397 2138 397 
Q 2388 397 2633 464 
Q 2878 531 3122 666 
L 3122 134 
Q 2881 22 2623 -34 
Q 2366 -91 2075 -91 
Q 1284 -91 818 406 
Q 353 903 353 1747 
Q 353 2603 823 3093 
Q 1294 3584 2113 3584 
Q 2378 3584 2631 3529 
Q 2884 3475 3122 3366 
z
" transform="scale(0.015625)"/>
      <path id="DejaVuSans-65" d="M 3597 1894 
L 3597 1613 
L 953 1613 
Q 991 1019 1311 708 
Q 1631 397 2203 397 
Q 2534 397 2845 478 
Q 3156 559 3463 722 
L 3463 178 
Q 3153 47 2828 -22 
Q 2503 -91 2169 -91 
Q 1331 -91 842 396 
Q 353 884 353 1716 
Q 353 2575 817 3079 
Q 1281 3584 2069 3584 
Q 2775 3584 3186 3129 
Q 3597 2675 3597 1894 
z
M 3022 2063 
Q 3016 2534 2758 2815 
Q 2500 3097 2075 3097 
Q 1594 3097 1305 2825 
Q 1016 2553 972 2059 
L 3022 2063 
z
" transform="scale(0.015625)"/>
      <path id="DejaVuSans-33" d="M 2597 2516 
Q 3050 2419 3304 2112 
Q 3559 1806 3559 1356 
Q 3559 666 3084 287 
Q 2609 -91 1734 -91 
Q 1441 -91 1130 -33 
Q 819 25 488 141 
L 488 750 
Q 750 597 1062 519 
Q 1375 441 1716 441 
Q 2309 441 2620 675 
Q 2931 909 2931 1356 
Q 2931 1769 2642 2001 
Q 2353 2234 1838 2234 
L 1294 2234 
L 1294 2753 
L 1863 2753 
Q 2328 2753 2575 2939 
Q 2822 3125 2822 3475 
Q 2822 3834 2567 4026 
Q 2313 4219 1838 4219 
Q 1578 4219 1281 4162 
Q 984 4106 628 3988 
L 628 4550 
Q 988 4650 1302 4700 
Q 1616 4750 1894 4750 
Q 2613 4750 3031 4423 
Q 3450 4097 3450 3541 
Q 3450 3153 3228 2886 
Q 3006 2619 2597 2516 
z
" transform="scale(0.015625)"/>
      <path id="DejaVuSans-2d" d="M 313 2009 
L 1997 2009 
L 1997 1497 
L 313 1497 
L 313 2009 
z
" transform="scale(0.015625)"/>
      <path id="DejaVuSans-69" d="M 603 3500 
L 1178 3500 
L 1178 0 
L 603 0 
L 603 3500 
z
M 603 4863 
L 1178 4863 
L 1178 4134 
L 603 4134 
L 603 4863 
z
" transform="scale(0.015625)"/>
      <path id="DejaVuSans-76" d="M 191 3500 
L 800 3500 
L 1894 563 
L 2988 3500 
L 3597 3500 
L 2284 0 
L 1503 0 
L 191 3500 
z
" transform="scale(0.015625)"/>
      <path id="DejaVuSans-37" d="M 525 4666 
L 3525 4666 
L 3525 4397 
L 1831 0 
L 1172 0 
L 2766 4134 
L 525 4134 
L 525 4666 
z
" transform="scale(0.015625)"/>
     </defs>
     <use xlink:href="#DejaVuSans-73"/>
     <use xlink:href="#DejaVuSans-6f" x="52.099609"/>
     <use xlink:href="#DejaVuSans-75" x="113.28125"/>
     <use xlink:href="#DejaVuSans-72" x="176.660156"/>
     <use xlink:href="#DejaVuSans-63" x="215.523438"/>
     <use xlink:href="#DejaVuSans-65" x="270.503906"/>
     <use xlink:href="#DejaVuSans-32" x="332.027344"/>
     <use xlink:href="#DejaVuSans-33" x="395.650391"/>
     <use xlink:href="#DejaVuSans-2d" x="459.273438"/>
     <use xlink:href="#DejaVuSans-72" x="495.357422"/>
     <use xlink:href="#DejaVuSans-65" x="534.220703"/>
     <use xlink:href="#DejaVuSans-63" x="595.744141"/>
     <use xlink:href="#DejaVuSans-65" x="650.724609"/>
     <use xlink:href="#DejaVuSans-69" x="712.248047"/>
     <use xlink:href="#DejaVuSans-76" x="740.03125"/>
     <use xlink:href="#DejaVuSans-65" x="799.210938"/>
     <use xlink:href="#DejaVuSans-72" x="860.734375"/>
     <use xlink:href="#DejaVuSans-37" x="901.847656"/>
    </g>
   </g>
  </g>
 </g>
 <defs>
  <clipPath id="pf9f5ff0c23">
   <rect x="180" y="69.12" width="1116" height="443.52"/>
  </clipPath>
 </defs>
</svg>
