<?xml version="1.0" encoding="utf-8" standalone="no"?>
<!DOCTYPE svg PUBLIC "-//W3C//DTD SVG 1.1//EN"
  "http://www.w3.org/Graphics/SVG/1.1/DTD/svg11.dtd">
<svg xmlns:xlink="http://www.w3.org/1999/xlink" width="1440pt" height="576pt" viewBox="0 0 1440 576" xmlns="http://www.w3.org/2000/svg" version="1.1">
 <metadata>
  <rdf:RDF xmlns:dc="http://purl.org/dc/elements/1.1/" xmlns:cc="http://creativecommons.org/ns#" xmlns:rdf="http://www.w3.org/1999/02/22-rdf-syntax-ns#">
   <cc:Work>
    <dc:type rdf:resource="http://purl.org/dc/dcmitype/StillImage"/>
    <dc:date>2024-05-22T04:50:23.974069</dc:date>
    <dc:format>image/svg+xml</dc:format>
    <dc:creator>
     <cc:Agent>
      <dc:title>Matplotlib v3.8.3, https://matplotlib.org/</dc:title>
     </cc:Agent>
    </dc:creator>
   </cc:Work>
  </rdf:RDF>
 </metadata>
 <defs>
  <style type="text/css">*{stroke-linejoin: round; stroke-linecap: butt}</style>
 </defs>
 <g id="figure_1">
  <g id="patch_1">
   <path d="M 0 576 
L 1440 576 
L 1440 0 
L 0 0 
z
" style="fill: #ffffff"/>
  </g>
  <g id="axes_1">
   <g id="patch_2">
    <path d="M 180 512.64 
L 1296 512.64 
L 1296 69.12 
L 180 69.12 
z
" style="fill: #ffffff"/>
   </g>
   <g id="matplotlib.axis_1">
    <g id="xtick_1">
     <g id="line2d_1">
      <defs>
       <path id="md6ea81035e" d="M 0 0 
L 0 3.5 
" style="stroke: #000000; stroke-width: 0.8"/>
      </defs>
      <g>
       <use xlink:href="#md6ea81035e" x="229.734567" y="512.64" style="stroke: #000000; stroke-width: 0.8"/>
      </g>
     </g>
     <g id="text_1">
      <!-- 0 -->
      <g transform="translate(226.553317 527.238438) scale(0.1 -0.1)">
       <defs>
        <path id="DejaVuSans-30" d="M 2034 4250 
Q 1547 4250 1301 3770 
Q 1056 3291 1056 2328 
Q 1056 1369 1301 889 
Q 1547 409 2034 409 
Q 2525 409 2770 889 
Q 3016 1369 3016 2328 
Q 3016 3291 2770 3770 
Q 2525 4250 2034 4250 
z
M 2034 4750 
Q 2819 4750 3233 4129 
Q 3647 3509 3647 2328 
Q 3647 1150 3233 529 
Q 2819 -91 2034 -91 
Q 1250 -91 836 529 
Q 422 1150 422 2328 
Q 422 3509 836 4129 
Q 1250 4750 2034 4750 
z
" transform="scale(0.015625)"/>
       </defs>
       <use xlink:href="#DejaVuSans-30"/>
      </g>
     </g>
    </g>
    <g id="xtick_2">
     <g id="line2d_2">
      <g>
       <use xlink:href="#md6ea81035e" x="433.04074" y="512.64" style="stroke: #000000; stroke-width: 0.8"/>
      </g>
     </g>
     <g id="text_2">
      <!-- 500 -->
      <g transform="translate(423.49699 527.238438) scale(0.1 -0.1)">
       <defs>
        <path id="DejaVuSans-35" d="M 691 4666 
L 3169 4666 
L 3169 4134 
L 1269 4134 
L 1269 2991 
Q 1406 3038 1543 3061 
Q 1681 3084 1819 3084 
Q 2600 3084 3056 2656 
Q 3513 2228 3513 1497 
Q 3513 744 3044 326 
Q 2575 -91 1722 -91 
Q 1428 -91 1123 -41 
Q 819 9 494 109 
L 494 744 
Q 775 591 1075 516 
Q 1375 441 1709 441 
Q 2250 441 2565 725 
Q 2881 1009 2881 1497 
Q 2881 1984 2565 2268 
Q 2250 2553 1709 2553 
Q 1456 2553 1204 2497 
Q 953 2441 691 2322 
L 691 4666 
z
" transform="scale(0.015625)"/>
       </defs>
       <use xlink:href="#DejaVuSans-35"/>
       <use xlink:href="#DejaVuSans-30" x="63.623047"/>
       <use xlink:href="#DejaVuSans-30" x="127.246094"/>
      </g>
     </g>
    </g>
    <g id="xtick_3">
     <g id="line2d_3">
      <g>
       <use xlink:href="#md6ea81035e" x="636.346913" y="512.64" style="stroke: #000000; stroke-width: 0.8"/>
      </g>
     </g>
     <g id="text_3">
      <!-- 1000 -->
      <g transform="translate(623.621913 527.238438) scale(0.1 -0.1)">
       <defs>
        <path id="DejaVuSans-31" d="M 794 531 
L 1825 531 
L 1825 4091 
L 703 3866 
L 703 4441 
L 1819 4666 
L 2450 4666 
L 2450 531 
L 3481 531 
L 3481 0 
L 794 0 
L 794 531 
z
" transform="scale(0.015625)"/>
       </defs>
       <use xlink:href="#DejaVuSans-31"/>
       <use xlink:href="#DejaVuSans-30" x="63.623047"/>
       <use xlink:href="#DejaVuSans-30" x="127.246094"/>
       <use xlink:href="#DejaVuSans-30" x="190.869141"/>
      </g>
     </g>
    </g>
    <g id="xtick_4">
     <g id="line2d_4">
      <g>
       <use xlink:href="#md6ea81035e" x="839.653087" y="512.64" style="stroke: #000000; stroke-width: 0.8"/>
      </g>
     </g>
     <g id="text_4">
      <!-- 1500 -->
      <g transform="translate(826.928087 527.238438) scale(0.1 -0.1)">
       <use xlink:href="#DejaVuSans-31"/>
       <use xlink:href="#DejaVuSans-35" x="63.623047"/>
       <use xlink:href="#DejaVuSans-30" x="127.246094"/>
       <use xlink:href="#DejaVuSans-30" x="190.869141"/>
      </g>
     </g>
    </g>
    <g id="xtick_5">
     <g id="line2d_5">
      <g>
       <use xlink:href="#md6ea81035e" x="1042.95926" y="512.64" style="stroke: #000000; stroke-width: 0.8"/>
      </g>
     </g>
     <g id="text_5">
      <!-- 2000 -->
      <g transform="translate(1030.23426 527.238438) scale(0.1 -0.1)">
       <defs>
        <path id="DejaVuSans-32" d="M 1228 531 
L 3431 531 
L 3431 0 
L 469 0 
L 469 531 
Q 828 903 1448 1529 
Q 2069 2156 2228 2338 
Q 2531 2678 2651 2914 
Q 2772 3150 2772 3378 
Q 2772 3750 2511 3984 
Q 2250 4219 1831 4219 
Q 1534 4219 1204 4116 
Q 875 4013 500 3803 
L 500 4441 
Q 881 4594 1212 4672 
Q 1544 4750 1819 4750 
Q 2544 4750 2975 4387 
Q 3406 4025 3406 3419 
Q 3406 3131 3298 2873 
Q 3191 2616 2906 2266 
Q 2828 2175 2409 1742 
Q 1991 1309 1228 531 
z
" transform="scale(0.015625)"/>
       </defs>
       <use xlink:href="#DejaVuSans-32"/>
       <use xlink:href="#DejaVuSans-30" x="63.623047"/>
       <use xlink:href="#DejaVuSans-30" x="127.246094"/>
       <use xlink:href="#DejaVuSans-30" x="190.869141"/>
      </g>
     </g>
    </g>
    <g id="xtick_6">
     <g id="line2d_6">
      <g>
       <use xlink:href="#md6ea81035e" x="1246.265433" y="512.64" style="stroke: #000000; stroke-width: 0.8"/>
      </g>
     </g>
     <g id="text_6">
      <!-- 2500 -->
      <g transform="translate(1233.540433 527.238438) scale(0.1 -0.1)">
       <use xlink:href="#DejaVuSans-32"/>
       <use xlink:href="#DejaVuSans-35" x="63.623047"/>
       <use xlink:href="#DejaVuSans-30" x="127.246094"/>
       <use xlink:href="#DejaVuSans-30" x="190.869141"/>
      </g>
     </g>
    </g>
   </g>
   <g id="matplotlib.axis_2">
    <g id="ytick_1">
     <g id="line2d_7">
      <defs>
       <path id="m67dd1d333d" d="M 0 0 
L -3.5 0 
" style="stroke: #000000; stroke-width: 0.8"/>
      </defs>
      <g>
       <use xlink:href="#m67dd1d333d" x="180" y="492.929229" style="stroke: #000000; stroke-width: 0.8"/>
      </g>
     </g>
     <g id="text_7">
      <!-- −4 -->
      <g transform="translate(158.257812 496.728447) scale(0.1 -0.1)">
       <defs>
        <path id="DejaVuSans-2212" d="M 678 2272 
L 4684 2272 
L 4684 1741 
L 678 1741 
L 678 2272 
z
" transform="scale(0.015625)"/>
        <path id="DejaVuSans-34" d="M 2419 4116 
L 825 1625 
L 2419 1625 
L 2419 4116 
z
M 2253 4666 
L 3047 4666 
L 3047 1625 
L 3713 1625 
L 3713 1100 
L 3047 1100 
L 3047 0 
L 2419 0 
L 2419 1100 
L 313 1100 
L 313 1709 
L 2253 4666 
z
" transform="scale(0.015625)"/>
       </defs>
       <use xlink:href="#DejaVuSans-2212"/>
       <use xlink:href="#DejaVuSans-34" x="83.789062"/>
      </g>
     </g>
    </g>
    <g id="ytick_2">
     <g id="line2d_8">
      <g>
       <use xlink:href="#m67dd1d333d" x="180" y="408.481858" style="stroke: #000000; stroke-width: 0.8"/>
      </g>
     </g>
     <g id="text_8">
      <!-- −2 -->
      <g transform="translate(158.257812 412.281076) scale(0.1 -0.1)">
       <use xlink:href="#DejaVuSans-2212"/>
       <use xlink:href="#DejaVuSans-32" x="83.789062"/>
      </g>
     </g>
    </g>
    <g id="ytick_3">
     <g id="line2d_9">
      <g>
       <use xlink:href="#m67dd1d333d" x="180" y="324.034487" style="stroke: #000000; stroke-width: 0.8"/>
      </g>
     </g>
     <g id="text_9">
      <!-- 0 -->
      <g transform="translate(166.6375 327.833705) scale(0.1 -0.1)">
       <use xlink:href="#DejaVuSans-30"/>
      </g>
     </g>
    </g>
    <g id="ytick_4">
     <g id="line2d_10">
      <g>
       <use xlink:href="#m67dd1d333d" x="180" y="239.587116" style="stroke: #000000; stroke-width: 0.8"/>
      </g>
     </g>
     <g id="text_10">
      <!-- 2 -->
      <g transform="translate(166.6375 243.386334) scale(0.1 -0.1)">
       <use xlink:href="#DejaVuSans-32"/>
      </g>
     </g>
    </g>
    <g id="ytick_5">
     <g id="line2d_11">
      <g>
       <use xlink:href="#m67dd1d333d" x="180" y="155.139745" style="stroke: #000000; stroke-width: 0.8"/>
      </g>
     </g>
     <g id="text_11">
      <!-- 4 -->
      <g transform="translate(166.6375 158.938963) scale(0.1 -0.1)">
       <use xlink:href="#DejaVuSans-34"/>
      </g>
     </g>
    </g>
    <g id="ytick_6">
     <g id="line2d_12">
      <g>
       <use xlink:href="#m67dd1d333d" x="180" y="70.692374" style="stroke: #000000; stroke-width: 0.8"/>
      </g>
     </g>
     <g id="text_12">
      <!-- 6 -->
      <g transform="translate(166.6375 74.491592) scale(0.1 -0.1)">
       <defs>
        <path id="DejaVuSans-36" d="M 2113 2584 
Q 1688 2584 1439 2293 
Q 1191 2003 1191 1497 
Q 1191 994 1439 701 
Q 1688 409 2113 409 
Q 2538 409 2786 701 
Q 3034 994 3034 1497 
Q 3034 2003 2786 2293 
Q 2538 2584 2113 2584 
z
M 3366 4563 
L 3366 3988 
Q 3128 4100 2886 4159 
Q 2644 4219 2406 4219 
Q 1781 4219 1451 3797 
Q 1122 3375 1075 2522 
Q 1259 2794 1537 2939 
Q 1816 3084 2150 3084 
Q 2853 3084 3261 2657 
Q 3669 2231 3669 1497 
Q 3669 778 3244 343 
Q 2819 -91 2113 -91 
Q 1303 -91 875 529 
Q 447 1150 447 2328 
Q 447 3434 972 4092 
Q 1497 4750 2381 4750 
Q 2619 4750 2861 4703 
Q 3103 4656 3366 4563 
z
" transform="scale(0.015625)"/>
       </defs>
       <use xlink:href="#DejaVuSans-36"/>
      </g>
     </g>
    </g>
   </g>
   <g id="line2d_13">
    <path d="M 230.727273 284.820707 
L 231.719979 282.004911 
L 232.712685 339.45871 
L 233.70539 293.584611 
L 234.698096 288.29441 
L 235.690802 320.416777 
L 236.683508 292.241755 
L 237.676214 295.791724 
L 238.66892 320.120649 
L 239.661626 284.080679 
L 240.654332 291.35257 
L 241.647038 324.287075 
L 242.639744 285.136898 
L 243.63245 293.343612 
L 244.625156 304.320416 
L 245.617862 282.120963 
L 246.610568 312.771824 
L 247.603273 293.884771 
L 248.595979 270.536803 
L 249.588685 290.948481 
L 250.581391 270.52181 
L 251.574097 269.992223 
L 252.566803 286.671284 
L 253.559509 223.654794 
L 254.552215 213.391721 
L 255.544921 246.780239 
L 256.537627 236.172847 
L 257.530333 203.731627 
L 258.523039 212.143291 
L 259.515745 238.316289 
L 260.50845 195.654297 
L 261.501156 180.408424 
L 262.493862 181.251219 
L 263.486568 200.273262 
L 264.479274 295.031654 
L 265.47198 212.828581 
L 266.464686 200.59289 
L 267.457392 202.333714 
L 268.450098 210.341512 
L 269.442804 209.876252 
L 270.43551 178.883228 
L 271.428216 177.178746 
L 272.420922 237.671011 
L 273.413627 184.080582 
L 274.406333 166.365267 
L 275.399039 188.366577 
L 276.391745 237.341597 
L 277.384451 177.405308 
L 278.377157 158.596436 
L 279.369863 149.373826 
L 280.362569 152.862828 
L 281.355275 132.758083 
L 282.347981 104.045123 
L 283.340687 90.243205 
L 284.333393 89.28 
L 285.326099 96.644177 
L 286.318804 100.727416 
L 287.31151 103.066715 
L 288.304216 121.072087 
L 289.296922 196.757723 
L 290.289628 147.462462 
L 291.282334 140.325353 
L 292.27504 159.247604 
L 293.267746 163.770604 
L 294.260452 172.548522 
L 295.253158 199.404767 
L 296.245864 184.685889 
L 297.23857 201.746782 
L 298.231276 230.007783 
L 299.223981 197.858234 
L 300.216687 213.254524 
L 301.209393 224.197613 
L 302.202099 213.679937 
L 303.194805 241.585933 
L 304.187511 287.384785 
L 305.180217 261.423587 
L 306.172923 314.586864 
L 307.165629 261.856527 
L 308.158335 266.457019 
L 309.151041 305.897597 
L 310.143747 259.345257 
L 311.136453 264.651509 
L 312.129159 466.861148 
L 313.121864 267.327813 
L 314.11457 267.785638 
L 315.107276 338.247012 
L 316.099982 276.805614 
L 317.092688 279.11911 
L 318.085394 339.283072 
L 319.0781 277.201073 
L 320.070806 277.834076 
L 321.063512 341.358548 
L 322.056218 288.244896 
L 323.048924 281.844726 
L 324.04163 305.348703 
L 325.034336 308.01493 
L 326.027041 303.396675 
L 327.019747 296.105078 
L 328.012453 293.752019 
L 329.005159 326.144746 
L 329.997865 299.194303 
L 330.990571 288.562804 
L 331.983277 320.958015 
L 332.975983 306.798283 
L 333.968689 288.149525 
L 334.961395 311.369373 
L 335.954101 327.794781 
L 336.946807 290.382488 
L 337.939513 304.019056 
L 338.932218 338.506116 
L 339.924924 303.480617 
L 340.91763 313.24169 
L 341.910336 313.275094 
L 342.903042 310.996534 
L 343.895748 328.114507 
L 344.888454 311.056224 
L 345.88116 311.31991 
L 346.873866 333.836837 
L 347.866572 307.406406 
L 348.859278 310.920939 
L 349.851984 354.144209 
L 350.84469 297.251309 
L 351.837395 301.074296 
L 352.830101 389.354134 
L 353.822807 292.725853 
L 354.815513 295.89463 
L 355.808219 343.850874 
L 356.800925 284.663669 
L 357.793631 282.152576 
L 358.786337 315.535388 
L 359.779043 284.517361 
L 360.771749 276.042087 
L 361.764455 306.931016 
L 362.757161 314.66478 
L 363.749867 295.890239 
L 364.742572 319.224223 
L 366.727984 318.920762 
L 367.72069 333.586067 
L 368.713396 286.249516 
L 369.706102 279.014622 
L 370.698808 304.088316 
L 371.691514 295.578274 
L 372.68422 278.404089 
L 373.676926 279.600535 
L 374.669632 302.02414 
L 375.662338 295.139085 
L 376.655044 275.320159 
L 377.64775 278.909387 
L 378.640455 302.783467 
L 379.633161 302.185403 
L 380.625867 283.624018 
L 382.611279 272.765501 
L 383.603985 258.689744 
L 384.596691 237.563323 
L 385.589397 226.067583 
L 386.582103 220.389287 
L 388.567515 202.088802 
L 389.560221 198.809675 
L 390.552927 196.044308 
L 391.545632 191.426018 
L 392.538338 190.3176 
L 393.531044 192.451878 
L 394.52375 192.480249 
L 395.516456 194.01405 
L 397.501868 206.040906 
L 398.494574 209.992127 
L 399.48728 220.01291 
L 400.479986 231.956307 
L 401.472692 235.73681 
L 402.465398 246.973689 
L 403.458104 260.102965 
L 404.450809 255.194177 
L 405.443515 266.222823 
L 406.436221 275.943455 
L 407.428927 266.032206 
L 408.421633 276.37029 
L 409.414339 278.911257 
L 410.407045 266.330046 
L 411.399751 275.880972 
L 412.392457 275.75032 
L 413.385163 266.905883 
L 414.377869 281.018648 
L 415.370575 288.587089 
L 416.363281 280.105578 
L 417.355986 298.883244 
L 418.348692 313.425677 
L 419.341398 294.813173 
L 420.334104 316.329629 
L 421.32681 306.339272 
L 422.319516 290.266255 
L 423.312222 307.414412 
L 424.304928 305.546955 
L 425.297634 289.516773 
L 427.283046 325.863364 
L 428.275752 305.439169 
L 429.268458 326.999702 
L 430.261163 364.2818 
L 431.253869 323.819881 
L 432.246575 360.758513 
L 433.239281 337.016335 
L 434.231987 316.062536 
L 435.224693 340.156506 
L 436.217399 338.298279 
L 437.210105 316.977242 
L 438.202811 340.294043 
L 439.195517 374.919703 
L 440.188223 324.848678 
L 441.180929 349.704272 
L 442.173635 347.551902 
L 443.166341 330.527519 
L 444.159046 387.910262 
L 445.151752 340.623902 
L 446.144458 325.519836 
L 447.137164 379.569693 
L 448.12987 338.928158 
L 449.122576 325.829182 
L 450.115282 380.377768 
L 451.107988 339.113629 
L 452.100694 328.341477 
L 453.0934 405.007805 
L 454.086106 332.07862 
L 455.078812 324.245814 
L 456.071518 372.504676 
L 457.064223 318.123601 
L 458.056929 311.241994 
L 459.049635 336.781141 
L 460.042341 311.292539 
L 461.035047 302.98439 
L 462.027753 329.407783 
L 463.020459 326.86927 
L 464.013165 318.42805 
L 465.005871 351.638087 
L 465.998577 347.460246 
L 466.991283 348.790234 
L 467.983989 337.261868 
L 468.976695 298.080369 
L 469.9694 295.879826 
L 470.962106 305.123376 
L 471.954812 292.395179 
L 472.947518 287.651768 
L 474.93293 321.01218 
L 475.925636 312.24162 
L 476.918342 314.618146 
L 477.911048 326.401544 
L 478.903754 344.19594 
L 479.89646 321.061004 
L 480.889166 301.754854 
L 481.881872 307.789766 
L 482.874577 336.163636 
L 483.867283 315.750743 
L 484.859989 309.287952 
L 485.852695 333.864044 
L 486.845401 361.767504 
L 487.838107 319.284778 
L 488.830813 309.640218 
L 489.823519 317.337518 
L 490.816225 308.319075 
L 491.808931 285.761026 
L 492.801637 282.090837 
L 493.794343 284.241816 
L 494.787049 271.609916 
L 495.779754 263.599805 
L 496.77246 267.404403 
L 497.765166 261.554649 
L 498.757872 253.623044 
L 499.750578 254.903445 
L 500.743284 256.624054 
L 501.73599 250.203227 
L 502.728696 249.658772 
L 503.721402 253.948205 
L 504.714108 251.640162 
L 505.706814 251.124496 
L 506.69952 258.144135 
L 507.692226 262.623873 
L 508.684932 262.267989 
L 509.677637 270.337267 
L 510.670343 286.2807 
L 511.663049 281.975463 
L 512.655755 297.891688 
L 513.648461 323.194982 
L 514.641167 296.638841 
L 515.633873 300.461044 
L 516.626579 307.669536 
L 517.619285 289.35946 
L 518.611991 294.199228 
L 519.604697 312.925871 
L 520.597403 292.761937 
L 521.590109 301.100123 
L 522.582814 319.095469 
L 523.57552 305.108168 
L 524.568226 313.158111 
L 525.560932 328.056871 
L 526.553638 308.598397 
L 527.546344 321.694367 
L 528.53905 325.595554 
L 529.531756 305.688016 
L 530.524462 314.12428 
L 531.517168 335.971708 
L 532.509874 333.845309 
L 533.50258 372.578094 
L 534.495286 348.642314 
L 535.487991 321.762608 
L 536.480697 325.6025 
L 538.466109 301.461897 
L 539.458815 302.868252 
L 540.451521 315.80101 
L 541.444227 320.474585 
L 542.436933 331.778986 
L 543.429639 373.064363 
L 544.422345 344.513347 
L 545.415051 348.344083 
L 546.407757 331.788632 
L 547.400463 327.85365 
L 548.393168 350.426562 
L 549.385874 375.712116 
L 550.37858 349.665696 
L 551.371286 362.851731 
L 552.363992 374.012455 
L 553.356698 369.924695 
L 554.349404 404.205525 
L 555.34211 348.880782 
L 556.334816 345.347298 
L 557.327522 369.371777 
L 558.320228 366.294251 
L 559.312934 380.341764 
L 560.30564 369.3276 
L 561.298345 335.708251 
L 562.291051 369.629451 
L 563.283757 381.518573 
L 564.276463 326.624246 
L 565.269169 346.366727 
L 566.261875 461.250025 
L 567.254581 354.341018 
L 568.247287 352.814683 
L 569.239993 353.497171 
L 570.232699 399.197073 
L 571.225405 375.24595 
L 572.218111 334.656299 
L 573.210817 341.708388 
L 574.203523 391.990464 
L 575.196228 344.275928 
L 576.188934 337.87496 
L 577.18164 372.41367 
L 578.174346 373.556621 
L 579.167052 348.697418 
L 580.159758 409.915794 
L 581.152464 358.175178 
L 582.14517 361.488975 
L 583.137876 400.79942 
L 584.130582 356.382362 
L 585.123288 341.918 
L 586.115994 392.464264 
L 587.1087 376.107928 
L 588.101405 345.521835 
L 589.094111 381.090975 
L 590.086817 380.891995 
L 591.079523 347.96973 
L 592.072229 355.593627 
L 593.064935 417.032009 
L 594.057641 374.496124 
L 595.050347 350.325552 
L 596.043053 338.571482 
L 597.035759 352.745165 
L 598.028465 335.336492 
L 599.021171 309.316584 
L 600.013877 307.312393 
L 601.006582 311.165731 
L 601.999288 295.316407 
L 602.991994 289.723242 
L 603.9847 296.604058 
L 604.977406 291.042058 
L 605.970112 284.495338 
L 606.962818 290.262245 
L 607.955524 291.604051 
L 608.94823 283.741809 
L 609.940936 286.343856 
L 610.933642 288.575828 
L 611.926348 278.345016 
L 612.919054 277.473442 
L 613.911759 280.564516 
L 614.904465 273.715412 
L 615.897171 272.532193 
L 616.889877 279.421365 
L 617.882583 281.187713 
L 618.875289 280.03695 
L 619.867995 290.638902 
L 620.860701 306.713114 
L 621.853407 308.672414 
L 622.846113 319.903242 
L 623.838819 378.759388 
L 624.831525 360.791551 
L 625.824231 373.059078 
L 626.816936 374.140475 
L 627.809642 337.7459 
L 628.802348 346.599911 
L 629.795054 383.650868 
L 630.78776 343.202315 
L 631.780466 347.249056 
L 632.773172 422.942275 
L 633.765878 348.402974 
L 634.758584 347.13219 
L 635.75129 398.418294 
L 636.743996 348.091109 
L 637.736702 341.565318 
L 638.729408 385.927091 
L 639.722114 362.985268 
L 640.714819 352.10693 
L 641.707525 437.663081 
L 642.700231 357.196364 
L 643.692937 345.706944 
L 644.685643 388.517118 
L 645.678349 354.183949 
L 646.671055 342.929273 
L 647.663761 380.300696 
L 648.656467 385.230774 
L 649.649173 362.644083 
L 650.641879 422.983541 
L 651.634585 363.538533 
L 652.627291 356.126724 
L 653.619996 418.94986 
L 654.612702 370.674319 
L 655.605408 360.540098 
L 656.598114 391.170996 
L 657.59082 370.995965 
L 658.583526 388.930165 
L 659.576232 382.880768 
L 660.568938 343.798995 
L 661.561644 351.061784 
L 662.55435 394.268173 
L 663.547056 349.914647 
L 664.539762 349.700809 
L 665.532468 410.485293 
L 666.525173 379.698868 
L 667.517879 374.068943 
L 668.510585 395.719954 
L 669.503291 369.175646 
L 671.488703 398.215065 
L 672.481409 367.362585 
L 673.474115 391.464045 
L 674.466821 380.269431 
L 675.459527 362.446444 
L 676.452233 410.341972 
L 677.444939 371.31239 
L 678.437645 351.077828 
L 679.43035 381.524215 
L 680.423056 385.595259 
L 681.415762 357.383884 
L 682.408468 390.465799 
L 683.401174 378.589143 
L 684.39388 357.816952 
L 685.386586 404.381291 
L 686.379292 357.870333 
L 687.371998 338.898872 
L 688.364704 357.335843 
L 689.35741 364.363207 
L 690.350116 338.873664 
L 691.342822 348.929043 
L 692.335527 411.276225 
L 693.328233 364.07417 
L 694.320939 365.921234 
L 695.313645 400.236314 
L 696.306351 372.514049 
L 697.299057 394.537944 
L 698.291763 387.915746 
L 699.284469 352.183071 
L 700.277175 365.572638 
L 701.269881 390.347439 
L 702.262587 345.193496 
L 703.255293 347.055047 
L 704.247999 376.213138 
L 705.240705 340.275801 
L 706.23341 332.687191 
L 707.226116 354.568678 
L 708.218822 346.463727 
L 709.211528 331.645147 
L 710.204234 348.252464 
L 711.19694 370.774977 
L 712.189646 342.783455 
L 713.182352 355.923398 
L 714.175058 375.33314 
L 715.167764 336.972701 
L 716.16047 340.12399 
L 717.153176 353.554058 
L 718.145882 328.017194 
L 719.138587 325.27481 
L 720.131293 343.869257 
L 721.123999 331.81391 
L 722.116705 323.193245 
L 723.109411 339.147231 
L 724.102117 335.350259 
L 725.094823 319.327577 
L 727.080235 332.536872 
L 728.072941 316.910146 
L 729.065647 317.744232 
L 730.058353 334.97259 
L 731.051059 331.690483 
L 732.043764 326.378791 
L 733.03647 344.851021 
L 734.029176 392.699482 
L 735.021882 369.491661 
L 736.014588 365.587742 
L 737.007294 367.186646 
L 738 386.422793 
L 738.992706 419.11006 
L 739.985412 363.567338 
L 740.978118 366.821799 
L 741.970824 436.663105 
L 742.96353 375.103284 
L 743.956236 377.7464 
L 744.948941 437.75555 
L 745.941647 364.044549 
L 746.934353 365.185599 
L 747.927059 458.432254 
L 748.919765 374.847774 
L 749.912471 372.111785 
L 750.905177 426.381984 
L 751.897883 369.109288 
L 752.890589 369.60295 
L 753.883295 443.647698 
L 754.876001 361.213424 
L 755.868707 352.548152 
L 756.861413 385.656954 
L 757.854118 386.592926 
L 758.846824 357.756477 
L 759.83953 366.765244 
L 760.832236 439.799513 
L 761.824942 384.003675 
L 762.817648 364.166254 
L 763.810354 378.187755 
L 764.80306 452.150856 
L 765.795766 367.435186 
L 766.788472 362.072666 
L 767.781178 409.582817 
L 768.773884 382.152895 
L 769.76659 361.533671 
L 770.759295 384.854026 
L 771.752001 414.392163 
L 772.744707 380.729264 
L 773.737413 397.14314 
L 774.730119 380.57161 
L 775.722825 376.192305 
L 776.715531 461.865136 
L 777.708237 373.820504 
L 778.700943 363.666637 
L 779.693649 410.243885 
L 780.686355 386.999767 
L 781.679061 373.035741 
L 782.671767 429.807522 
L 783.664473 370.99371 
L 784.657178 364.779841 
L 785.649884 417.775693 
L 786.64259 358.163714 
L 787.635296 347.530543 
L 788.628002 377.033992 
L 789.620708 367.614023 
L 790.613414 349.902198 
L 791.60612 376.797403 
L 792.598826 397.806156 
L 793.591532 365.689639 
L 794.584238 410.693381 
L 795.576944 371.193187 
L 796.56965 350.260258 
L 797.562355 371.58567 
L 798.555061 363.891967 
L 799.547767 341.227624 
L 800.540473 352.507174 
L 801.533179 384.784303 
L 802.525885 354.139038 
L 803.518591 356.68864 
L 804.511297 417.184243 
L 805.504003 384.765594 
L 806.496709 374.993702 
L 807.489415 408.743388 
L 808.482121 389.372441 
L 809.474827 383.646287 
L 810.467532 405.591835 
L 811.460238 391.654883 
L 812.452944 385.937462 
L 813.44565 403.66182 
L 814.438356 395.03179 
L 815.431062 377.261365 
L 816.423768 385.526351 
L 817.416474 473.156187 
L 818.40918 371.809003 
L 819.401886 358.09516 
L 820.394592 381.245538 
L 821.387298 387.356634 
L 822.380004 353.949858 
L 823.372709 362.094551 
L 824.365415 430.936854 
L 825.358121 365.790493 
L 826.350827 367.710861 
L 827.343533 423.65388 
L 828.336239 354.20537 
L 829.328945 348.651553 
L 830.321651 370.867464 
L 831.314357 346.461408 
L 832.307063 334.70463 
L 833.299769 350.289764 
L 834.292475 359.841645 
L 835.285181 341.233879 
L 836.277886 349.738648 
L 837.270592 395.355133 
L 838.263298 363.84777 
L 839.256004 361.076281 
L 840.24871 412.337017 
L 841.241416 389.021771 
L 842.234122 370.703078 
L 843.226828 390.924776 
L 844.219534 422.779715 
L 845.21224 394.750838 
L 846.204946 381.870101 
L 847.197652 380.668756 
L 848.190358 407.673798 
L 849.183064 412.672583 
L 850.175769 377.569649 
L 851.168475 376.860181 
L 852.161181 402.192585 
L 853.153887 421.081835 
L 854.146593 388.672184 
L 855.139299 377.407387 
L 856.132005 389.093909 
L 857.124711 424.730317 
L 858.117417 392.119455 
L 859.110123 386.504614 
L 860.102829 397.874688 
L 861.095535 388.010792 
L 862.088241 395.7344 
L 863.080946 429.937465 
L 864.073652 377.079768 
L 865.066358 368.695006 
L 866.059064 400.849166 
L 867.05177 405.696352 
L 868.044476 367.189897 
L 869.037182 369.586646 
L 870.029888 422.642571 
L 871.022594 390.150701 
L 872.0153 367.021527 
L 873.008006 382.703934 
L 874.000712 452.494298 
L 874.993418 375.972162 
L 875.986123 376.305204 
L 876.978829 441.722869 
L 877.971535 386.090743 
L 878.964241 378.77636 
L 879.956947 421.144576 
L 880.949653 388.563565 
L 881.942359 384.058005 
L 882.935065 438.682108 
L 883.927771 377.210922 
L 884.920477 373.708962 
L 885.913183 459.703442 
L 886.905889 374.894687 
L 887.898595 364.545021 
L 888.8913 407.913222 
L 890.876712 368.490764 
L 891.869418 403.483338 
L 892.862124 397.424456 
L 893.85483 375.85255 
L 894.847536 417.782008 
L 895.840242 388.330536 
L 896.832948 369.839293 
L 897.825654 404.844892 
L 898.81836 397.522138 
L 899.811066 370.181549 
L 900.803772 390.473253 
L 901.796477 421.63538 
L 902.789183 387.959241 
L 903.781889 403.100554 
L 904.774595 389.538097 
L 905.767301 381.132009 
L 906.760007 435.401914 
L 907.752713 387.887841 
L 908.745419 368.303318 
L 909.738125 387.412414 
L 910.730831 447.722032 
L 911.723537 380.81532 
L 912.716243 376.210373 
L 913.708949 399.442467 
L 914.701655 431.792454 
L 915.69436 382.881728 
L 916.687066 375.371835 
L 917.679772 413.912163 
L 918.672478 395.638552 
L 919.665184 367.05622 
L 920.65789 383.709251 
L 921.650596 414.708009 
L 922.643302 364.345206 
L 923.636008 368.944579 
L 924.628714 444.027177 
L 925.62142 372.291023 
L 926.614126 370.015454 
L 927.606832 459.818116 
L 928.599537 370.750664 
L 929.592243 362.897043 
L 930.584949 401.280936 
L 931.577655 361.776013 
L 932.570361 348.253596 
L 933.563067 369.091288 
L 934.555773 366.994022 
L 935.548479 346.600933 
L 936.541185 360.653496 
L 937.533891 377.069878 
L 938.526597 346.970067 
L 939.519303 351.803154 
L 940.512009 365.614046 
L 941.504714 338.395802 
L 942.49742 334.77868 
L 943.490126 349.007194 
L 944.482832 337.732867 
L 945.475538 329.011318 
L 946.468244 341.988756 
L 947.46095 353.369515 
L 948.453656 339.865127 
L 949.446362 347.296831 
L 950.439068 387.183731 
L 951.431774 373.518981 
L 952.42448 366.858593 
L 953.417186 392.686287 
L 954.409891 422.481546 
L 955.402597 411.9849 
L 956.395303 380.608823 
L 957.388009 373.851274 
L 958.380715 418.111793 
L 959.373421 383.021274 
L 960.366127 360.179732 
L 961.358833 376.444634 
L 962.351539 411.761683 
L 963.344245 367.041324 
L 964.336951 370.486372 
L 965.329657 439.645556 
L 966.322363 393.017831 
L 967.315068 385.90708 
L 968.307774 414.111542 
L 969.30048 391.040436 
L 970.293186 390.208539 
L 971.285892 425.502659 
L 972.278598 396.411936 
L 973.271304 385.527353 
L 974.26401 397.398325 
L 975.256716 413.48446 
L 976.249422 405.678159 
L 977.242128 388.491606 
L 978.234834 389.475873 
L 979.22754 419.895157 
L 980.220246 399.988755 
L 981.212951 386.939717 
L 982.205657 410.266204 
L 983.198363 398.691962 
L 984.191069 385.42207 
L 985.183775 422.377056 
L 987.169187 372.89008 
L 988.161893 393.597986 
L 989.154599 421.317987 
L 990.147305 372.070326 
L 991.140011 377.389959 
L 992.132717 476.361343 
L 993.125423 386.151665 
L 994.118128 377.449231 
L 995.110834 411.964454 
L 996.10354 407.422923 
L 997.096246 385.420153 
L 998.088952 399.01994 
L 999.081658 418.024787 
L 1000.074364 394.369838 
L 1001.06707 388.884631 
L 1002.059776 406.261117 
L 1003.052482 419.481752 
L 1004.045188 383.408292 
L 1005.037894 383.01913 
L 1006.0306 448.44426 
L 1007.023305 389.466665 
L 1008.016011 374.392547 
L 1009.008717 408.577655 
L 1010.001423 403.063481 
L 1010.994129 377.06508 
L 1011.986835 407.15248 
L 1012.979541 400.596519 
L 1013.972247 371.524897 
L 1014.964953 394.075885 
L 1015.957659 405.791338 
L 1016.950365 366.922639 
L 1017.943071 377.886215 
L 1018.935777 451.855992 
L 1019.928482 376.151751 
L 1020.921188 379.237014 
L 1021.913894 450.603051 
L 1022.9066 389.534286 
L 1023.899306 390.43818 
L 1024.892012 424.906009 
L 1025.884718 385.652699 
L 1026.877424 395.207949 
L 1027.87013 429.554592 
L 1028.862836 376.967067 
L 1029.855542 382.27717 
L 1030.848248 463.096493 
L 1031.840954 373.145216 
L 1032.833659 366.878347 
L 1033.826365 408.675355 
L 1034.819071 384.586216 
L 1035.811777 363.9514 
L 1036.804483 384.604639 
L 1037.797189 417.646641 
L 1038.789895 371.035505 
L 1039.782601 381.468075 
L 1040.775307 438.320779 
L 1041.768013 369.077851 
L 1042.760719 370.365696 
L 1043.753425 413.122302 
L 1044.746131 363.101246 
L 1045.738837 355.978767 
L 1046.731542 386.094066 
L 1047.724248 367.002775 
L 1048.716954 352.121249 
L 1049.70966 374.562969 
L 1050.702366 372.212397 
L 1051.695072 349.387341 
L 1052.687778 361.833332 
L 1053.680484 372.405268 
L 1054.67319 346.836597 
L 1055.665896 350.789883 
L 1056.658602 378.103085 
L 1057.651308 358.370178 
L 1058.644014 353.664787 
L 1060.629425 411.664797 
L 1061.622131 378.540522 
L 1062.614837 379.960215 
L 1063.607543 394.959409 
L 1064.600249 492.48 
L 1065.592955 385.114282 
L 1066.585661 369.296256 
L 1067.578367 394.73086 
L 1068.571073 405.217684 
L 1069.563779 368.497784 
L 1070.556485 379.922816 
L 1071.549191 456.072236 
L 1072.541896 377.836611 
L 1073.534602 379.469762 
L 1074.527308 445.561616 
L 1075.520014 393.949052 
L 1076.51272 388.676653 
L 1077.505426 416.942306 
L 1078.498132 398.063215 
L 1079.490838 395.972546 
L 1080.483544 417.77085 
L 1081.47625 397.99184 
L 1082.468956 391.222558 
L 1083.461662 408.06979 
L 1084.454368 415.359024 
L 1085.447073 392.104994 
L 1086.439779 388.807098 
L 1087.432485 423.049808 
L 1088.425191 402.820721 
L 1089.417897 377.207038 
L 1090.410603 393.212322 
L 1091.403309 429.535965 
L 1092.396015 371.810349 
L 1093.388721 372.45086 
L 1094.381427 429.215733 
L 1095.374133 377.688866 
L 1096.366839 365.159594 
L 1097.359545 392.385819 
L 1098.35225 411.450969 
L 1099.344956 374.658949 
L 1100.337662 381.319651 
L 1101.330368 422.631734 
L 1102.323074 420.8952 
L 1103.31578 389.782993 
L 1104.308486 378.713925 
L 1105.301192 397.820051 
L 1106.293898 425.211001 
L 1107.286604 371.753706 
L 1108.27931 372.975313 
L 1109.272016 439.138629 
L 1110.264722 378.643445 
L 1111.257428 369.632466 
L 1112.250133 419.251118 
L 1113.242839 381.146118 
L 1114.235545 364.571727 
L 1115.228251 395.442022 
L 1116.220957 382.05682 
L 1117.213663 358.921322 
L 1118.206369 377.102326 
L 1119.199075 399.130164 
L 1120.191781 364.337474 
L 1121.184487 375.543765 
L 1122.177193 441.387424 
L 1123.169899 374.161578 
L 1124.162605 381.881541 
L 1125.15531 439.792965 
L 1126.148016 370.624147 
L 1127.140722 372.80956 
L 1128.133428 429.992978 
L 1129.126134 373.210018 
L 1130.11884 366.058762 
L 1131.111546 405.554145 
L 1132.104252 394.084104 
L 1133.096958 370.668016 
L 1134.089664 389.951107 
L 1135.08237 451.313916 
L 1136.075076 386.17409 
L 1137.067782 387.202066 
L 1138.060487 417.517515 
L 1140.045899 398.101333 
L 1141.038605 401.310967 
L 1142.031311 397.877173 
L 1143.024017 406.366473 
L 1144.016723 425.122551 
L 1145.009429 386.350761 
L 1146.002135 380.941692 
L 1146.994841 427.730075 
L 1147.987547 395.764516 
L 1148.980253 371.557995 
L 1149.972959 390.012503 
L 1150.965664 431.122919 
L 1151.95837 377.207855 
L 1152.951076 386.997038 
L 1153.943782 452.423955 
L 1154.936488 378.031648 
L 1155.929194 382.561914 
L 1156.9219 460.804608 
L 1157.914606 374.602495 
L 1158.907312 370.380031 
L 1159.900018 420.236757 
L 1160.892724 386.586573 
L 1161.88543 369.486028 
L 1163.870841 423.581048 
L 1164.863547 378.887657 
L 1165.856253 386.26334 
L 1166.848959 455.761041 
L 1167.841665 393.965392 
L 1168.834371 380.719248 
L 1170.819783 429.832696 
L 1171.812489 382.385074 
L 1172.805195 383.797624 
L 1173.797901 441.48279 
L 1174.790607 398.628682 
L 1175.783313 384.755761 
L 1176.776019 410.199391 
L 1177.768724 408.101849 
L 1178.76143 395.988352 
L 1179.754136 419.062458 
L 1180.746842 394.343217 
L 1181.739548 388.634178 
L 1182.732254 431.457368 
L 1183.72496 399.471701 
L 1184.717666 384.663908 
L 1185.710372 410.29348 
L 1186.703078 412.008075 
L 1187.695784 392.881395 
L 1188.68849 405.627209 
L 1189.681196 407.451756 
L 1190.673901 399.665123 
L 1191.666607 404.49099 
L 1192.659313 402.056906 
L 1193.652019 413.901091 
L 1195.637431 384.878174 
L 1196.630137 415.113544 
L 1197.622843 403.780847 
L 1198.615549 370.793364 
L 1199.608255 382.483657 
L 1200.600961 426.458695 
L 1201.593667 370.213228 
L 1202.586373 369.930411 
L 1203.579078 427.525025 
L 1204.571784 385.807297 
L 1205.56449 373.287789 
L 1206.557196 406.624475 
L 1207.549902 416.998509 
L 1208.542608 392.461091 
L 1209.535314 404.101705 
L 1210.52802 393.693241 
L 1211.520726 406.599898 
L 1212.513432 422.632547 
L 1213.506138 373.446262 
L 1214.498844 374.598055 
L 1215.49155 423.54791 
L 1216.484255 371.36076 
L 1217.476961 360.934777 
L 1218.469667 389.080917 
L 1219.462373 387.990627 
L 1220.455079 363.20116 
L 1221.447785 378.995834 
L 1222.440491 428.496764 
L 1223.433197 373.662988 
L 1224.425903 380.943976 
L 1225.418609 466.728606 
L 1226.411315 376.084755 
L 1227.404021 374.802313 
L 1228.396727 440.415147 
L 1229.389432 380.888168 
L 1230.382138 369.30491 
L 1231.374844 403.620125 
L 1232.36755 407.29611 
L 1233.360256 378.149815 
L 1235.345668 419.271669 
L 1236.338374 389.325224 
L 1237.33108 413.016466 
L 1238.323786 406.33182 
L 1239.316492 378.521207 
L 1240.309198 395.695561 
L 1241.301904 435.928303 
L 1242.29461 376.127052 
L 1243.287315 375.852437 
L 1244.280021 432.207498 
L 1245.272727 389.975496 
L 1245.272727 389.975496 
" clip-path="url(#pa384fe7021)" style="fill: none; stroke: #1f77b4; stroke-width: 1.5; stroke-linecap: square"/>
   </g>
   <g id="patch_3">
    <path d="M 180 512.64 
L 180 69.12 
" style="fill: none; stroke: #000000; stroke-width: 0.8; stroke-linejoin: miter; stroke-linecap: square"/>
   </g>
   <g id="patch_4">
    <path d="M 1296 512.64 
L 1296 69.12 
" style="fill: none; stroke: #000000; stroke-width: 0.8; stroke-linejoin: miter; stroke-linecap: square"/>
   </g>
   <g id="patch_5">
    <path d="M 180 512.64 
L 1296 512.64 
" style="fill: none; stroke: #000000; stroke-width: 0.8; stroke-linejoin: miter; stroke-linecap: square"/>
   </g>
   <g id="patch_6">
    <path d="M 180 69.12 
L 1296 69.12 
" style="fill: none; stroke: #000000; stroke-width: 0.8; stroke-linejoin: miter; stroke-linecap: square"/>
   </g>
   <g id="text_13">
    <!-- source23-receiver9 -->
    <g transform="translate(544.9 60.80125) scale(0.4 -0.4)">
     <defs>
      <path id="DejaVuSans-73" d="M 2834 3397 
L 2834 2853 
Q 2591 2978 2328 3040 
Q 2066 3103 1784 3103 
Q 1356 3103 1142 2972 
Q 928 2841 928 2578 
Q 928 2378 1081 2264 
Q 1234 2150 1697 2047 
L 1894 2003 
Q 2506 1872 2764 1633 
Q 3022 1394 3022 966 
Q 3022 478 2636 193 
Q 2250 -91 1575 -91 
Q 1294 -91 989 -36 
Q 684 19 347 128 
L 347 722 
Q 666 556 975 473 
Q 1284 391 1588 391 
Q 1994 391 2212 530 
Q 2431 669 2431 922 
Q 2431 1156 2273 1281 
Q 2116 1406 1581 1522 
L 1381 1569 
Q 847 1681 609 1914 
Q 372 2147 372 2553 
Q 372 3047 722 3315 
Q 1072 3584 1716 3584 
Q 2034 3584 2315 3537 
Q 2597 3491 2834 3397 
z
" transform="scale(0.015625)"/>
      <path id="DejaVuSans-6f" d="M 1959 3097 
Q 1497 3097 1228 2736 
Q 959 2375 959 1747 
Q 959 1119 1226 758 
Q 1494 397 1959 397 
Q 2419 397 2687 759 
Q 2956 1122 2956 1747 
Q 2956 2369 2687 2733 
Q 2419 3097 1959 3097 
z
M 1959 3584 
Q 2709 3584 3137 3096 
Q 3566 2609 3566 1747 
Q 3566 888 3137 398 
Q 2709 -91 1959 -91 
Q 1206 -91 779 398 
Q 353 888 353 1747 
Q 353 2609 779 3096 
Q 1206 3584 1959 3584 
z
" transform="scale(0.015625)"/>
      <path id="DejaVuSans-75" d="M 544 1381 
L 544 3500 
L 1119 3500 
L 1119 1403 
Q 1119 906 1312 657 
Q 1506 409 1894 409 
Q 2359 409 2629 706 
Q 2900 1003 2900 1516 
L 2900 3500 
L 3475 3500 
L 3475 0 
L 2900 0 
L 2900 538 
Q 2691 219 2414 64 
Q 2138 -91 1772 -91 
Q 1169 -91 856 284 
Q 544 659 544 1381 
z
M 1991 3584 
L 1991 3584 
z
" transform="scale(0.015625)"/>
      <path id="DejaVuSans-72" d="M 2631 2963 
Q 2534 3019 2420 3045 
Q 2306 3072 2169 3072 
Q 1681 3072 1420 2755 
Q 1159 2438 1159 1844 
L 1159 0 
L 581 0 
L 581 3500 
L 1159 3500 
L 1159 2956 
Q 1341 3275 1631 3429 
Q 1922 3584 2338 3584 
Q 2397 3584 2469 3576 
Q 2541 3569 2628 3553 
L 2631 2963 
z
" transform="scale(0.015625)"/>
      <path id="DejaVuSans-63" d="M 3122 3366 
L 3122 2828 
Q 2878 2963 2633 3030 
Q 2388 3097 2138 3097 
Q 1578 3097 1268 2742 
Q 959 2388 959 1747 
Q 959 1106 1268 751 
Q 1578 397 2138 397 
Q 2388 397 2633 464 
Q 2878 531 3122 666 
L 3122 134 
Q 2881 22 2623 -34 
Q 2366 -91 2075 -91 
Q 1284 -91 818 406 
Q 353 903 353 1747 
Q 353 2603 823 3093 
Q 1294 3584 2113 3584 
Q 2378 3584 2631 3529 
Q 2884 3475 3122 3366 
z
" transform="scale(0.015625)"/>
      <path id="DejaVuSans-65" d="M 3597 1894 
L 3597 1613 
L 953 1613 
Q 991 1019 1311 708 
Q 1631 397 2203 397 
Q 2534 397 2845 478 
Q 3156 559 3463 722 
L 3463 178 
Q 3153 47 2828 -22 
Q 2503 -91 2169 -91 
Q 1331 -91 842 396 
Q 353 884 353 1716 
Q 353 2575 817 3079 
Q 1281 3584 2069 3584 
Q 2775 3584 3186 3129 
Q 3597 2675 3597 1894 
z
M 3022 2063 
Q 3016 2534 2758 2815 
Q 2500 3097 2075 3097 
Q 1594 3097 1305 2825 
Q 1016 2553 972 2059 
L 3022 2063 
z
" transform="scale(0.015625)"/>
      <path id="DejaVuSans-33" d="M 2597 2516 
Q 3050 2419 3304 2112 
Q 3559 1806 3559 1356 
Q 3559 666 3084 287 
Q 2609 -91 1734 -91 
Q 1441 -91 1130 -33 
Q 819 25 488 141 
L 488 750 
Q 750 597 1062 519 
Q 1375 441 1716 441 
Q 2309 441 2620 675 
Q 2931 909 2931 1356 
Q 2931 1769 2642 2001 
Q 2353 2234 1838 2234 
L 1294 2234 
L 1294 2753 
L 1863 2753 
Q 2328 2753 2575 2939 
Q 2822 3125 2822 3475 
Q 2822 3834 2567 4026 
Q 2313 4219 1838 4219 
Q 1578 4219 1281 4162 
Q 984 4106 628 3988 
L 628 4550 
Q 988 4650 1302 4700 
Q 1616 4750 1894 4750 
Q 2613 4750 3031 4423 
Q 3450 4097 3450 3541 
Q 3450 3153 3228 2886 
Q 3006 2619 2597 2516 
z
" transform="scale(0.015625)"/>
      <path id="DejaVuSans-2d" d="M 313 2009 
L 1997 2009 
L 1997 1497 
L 313 1497 
L 313 2009 
z
" transform="scale(0.015625)"/>
      <path id="DejaVuSans-69" d="M 603 3500 
L 1178 3500 
L 1178 0 
L 603 0 
L 603 3500 
z
M 603 4863 
L 1178 4863 
L 1178 4134 
L 603 4134 
L 603 4863 
z
" transform="scale(0.015625)"/>
      <path id="DejaVuSans-76" d="M 191 3500 
L 800 3500 
L 1894 563 
L 2988 3500 
L 3597 3500 
L 2284 0 
L 1503 0 
L 191 3500 
z
" transform="scale(0.015625)"/>
      <path id="DejaVuSans-39" d="M 703 97 
L 703 672 
Q 941 559 1184 500 
Q 1428 441 1663 441 
Q 2288 441 2617 861 
Q 2947 1281 2994 2138 
Q 2813 1869 2534 1725 
Q 2256 1581 1919 1581 
Q 1219 1581 811 2004 
Q 403 2428 403 3163 
Q 403 3881 828 4315 
Q 1253 4750 1959 4750 
Q 2769 4750 3195 4129 
Q 3622 3509 3622 2328 
Q 3622 1225 3098 567 
Q 2575 -91 1691 -91 
Q 1453 -91 1209 -44 
Q 966 3 703 97 
z
M 1959 2075 
Q 2384 2075 2632 2365 
Q 2881 2656 2881 3163 
Q 2881 3666 2632 3958 
Q 2384 4250 1959 4250 
Q 1534 4250 1286 3958 
Q 1038 3666 1038 3163 
Q 1038 2656 1286 2365 
Q 1534 2075 1959 2075 
z
" transform="scale(0.015625)"/>
     </defs>
     <use xlink:href="#DejaVuSans-73"/>
     <use xlink:href="#DejaVuSans-6f" x="52.099609"/>
     <use xlink:href="#DejaVuSans-75" x="113.28125"/>
     <use xlink:href="#DejaVuSans-72" x="176.660156"/>
     <use xlink:href="#DejaVuSans-63" x="215.523438"/>
     <use xlink:href="#DejaVuSans-65" x="270.503906"/>
     <use xlink:href="#DejaVuSans-32" x="332.027344"/>
     <use xlink:href="#DejaVuSans-33" x="395.650391"/>
     <use xlink:href="#DejaVuSans-2d" x="459.273438"/>
     <use xlink:href="#DejaVuSans-72" x="495.357422"/>
     <use xlink:href="#DejaVuSans-65" x="534.220703"/>
     <use xlink:href="#DejaVuSans-63" x="595.744141"/>
     <use xlink:href="#DejaVuSans-65" x="650.724609"/>
     <use xlink:href="#DejaVuSans-69" x="712.248047"/>
     <use xlink:href="#DejaVuSans-76" x="740.03125"/>
     <use xlink:href="#DejaVuSans-65" x="799.210938"/>
     <use xlink:href="#DejaVuSans-72" x="860.734375"/>
     <use xlink:href="#DejaVuSans-39" x="901.847656"/>
    </g>
   </g>
  </g>
 </g>
 <defs>
  <clipPath id="pa384fe7021">
   <rect x="180" y="69.12" width="1116" height="443.52"/>
  </clipPath>
 </defs>
</svg>
