<?xml version="1.0" encoding="utf-8" standalone="no"?>
<!DOCTYPE svg PUBLIC "-//W3C//DTD SVG 1.1//EN"
  "http://www.w3.org/Graphics/SVG/1.1/DTD/svg11.dtd">
<svg xmlns:xlink="http://www.w3.org/1999/xlink" width="1440pt" height="576pt" viewBox="0 0 1440 576" xmlns="http://www.w3.org/2000/svg" version="1.1">
 <metadata>
  <rdf:RDF xmlns:dc="http://purl.org/dc/elements/1.1/" xmlns:cc="http://creativecommons.org/ns#" xmlns:rdf="http://www.w3.org/1999/02/22-rdf-syntax-ns#">
   <cc:Work>
    <dc:type rdf:resource="http://purl.org/dc/dcmitype/StillImage"/>
    <dc:date>2024-04-12T02:31:01.773255</dc:date>
    <dc:format>image/svg+xml</dc:format>
    <dc:creator>
     <cc:Agent>
      <dc:title>Matplotlib v3.8.4, https://matplotlib.org/</dc:title>
     </cc:Agent>
    </dc:creator>
   </cc:Work>
  </rdf:RDF>
 </metadata>
 <defs>
  <style type="text/css">*{stroke-linejoin: round; stroke-linecap: butt}</style>
 </defs>
 <g id="figure_1">
  <g id="patch_1">
   <path d="M 0 576 
L 1440 576 
L 1440 0 
L 0 0 
z
" style="fill: #ffffff"/>
  </g>
  <g id="axes_1">
   <g id="patch_2">
    <path d="M 180 512.64 
L 1296 512.64 
L 1296 69.12 
L 180 69.12 
z
" style="fill: #ffffff"/>
   </g>
   <g id="matplotlib.axis_1">
    <g id="xtick_1">
     <g id="line2d_1">
      <defs>
       <path id="md12fb971eb" d="M 0 0 
L 0 3.5 
" style="stroke: #000000; stroke-width: 0.8"/>
      </defs>
      <g>
       <use xlink:href="#md12fb971eb" x="230.727273" y="512.64" style="stroke: #000000; stroke-width: 0.8"/>
      </g>
     </g>
     <g id="text_1">
      <!-- 0 -->
      <g transform="translate(227.546023 527.238438) scale(0.1 -0.1)">
       <defs>
        <path id="DejaVuSans-30" d="M 2034 4250 
Q 1547 4250 1301 3770 
Q 1056 3291 1056 2328 
Q 1056 1369 1301 889 
Q 1547 409 2034 409 
Q 2525 409 2770 889 
Q 3016 1369 3016 2328 
Q 3016 3291 2770 3770 
Q 2525 4250 2034 4250 
z
M 2034 4750 
Q 2819 4750 3233 4129 
Q 3647 3509 3647 2328 
Q 3647 1150 3233 529 
Q 2819 -91 2034 -91 
Q 1250 -91 836 529 
Q 422 1150 422 2328 
Q 422 3509 836 4129 
Q 1250 4750 2034 4750 
z
" transform="scale(0.015625)"/>
       </defs>
       <use xlink:href="#DejaVuSans-30"/>
      </g>
     </g>
    </g>
    <g id="xtick_2">
     <g id="line2d_2">
      <g>
       <use xlink:href="#md12fb971eb" x="478.540036" y="512.64" style="stroke: #000000; stroke-width: 0.8"/>
      </g>
     </g>
     <g id="text_2">
      <!-- 500 -->
      <g transform="translate(468.996286 527.238438) scale(0.1 -0.1)">
       <defs>
        <path id="DejaVuSans-35" d="M 691 4666 
L 3169 4666 
L 3169 4134 
L 1269 4134 
L 1269 2991 
Q 1406 3038 1543 3061 
Q 1681 3084 1819 3084 
Q 2600 3084 3056 2656 
Q 3513 2228 3513 1497 
Q 3513 744 3044 326 
Q 2575 -91 1722 -91 
Q 1428 -91 1123 -41 
Q 819 9 494 109 
L 494 744 
Q 775 591 1075 516 
Q 1375 441 1709 441 
Q 2250 441 2565 725 
Q 2881 1009 2881 1497 
Q 2881 1984 2565 2268 
Q 2250 2553 1709 2553 
Q 1456 2553 1204 2497 
Q 953 2441 691 2322 
L 691 4666 
z
" transform="scale(0.015625)"/>
       </defs>
       <use xlink:href="#DejaVuSans-35"/>
       <use xlink:href="#DejaVuSans-30" x="63.623047"/>
       <use xlink:href="#DejaVuSans-30" x="127.246094"/>
      </g>
     </g>
    </g>
    <g id="xtick_3">
     <g id="line2d_3">
      <g>
       <use xlink:href="#md12fb971eb" x="726.3528" y="512.64" style="stroke: #000000; stroke-width: 0.8"/>
      </g>
     </g>
     <g id="text_3">
      <!-- 1000 -->
      <g transform="translate(713.6278 527.238438) scale(0.1 -0.1)">
       <defs>
        <path id="DejaVuSans-31" d="M 794 531 
L 1825 531 
L 1825 4091 
L 703 3866 
L 703 4441 
L 1819 4666 
L 2450 4666 
L 2450 531 
L 3481 531 
L 3481 0 
L 794 0 
L 794 531 
z
" transform="scale(0.015625)"/>
       </defs>
       <use xlink:href="#DejaVuSans-31"/>
       <use xlink:href="#DejaVuSans-30" x="63.623047"/>
       <use xlink:href="#DejaVuSans-30" x="127.246094"/>
       <use xlink:href="#DejaVuSans-30" x="190.869141"/>
      </g>
     </g>
    </g>
    <g id="xtick_4">
     <g id="line2d_4">
      <g>
       <use xlink:href="#md12fb971eb" x="974.165564" y="512.64" style="stroke: #000000; stroke-width: 0.8"/>
      </g>
     </g>
     <g id="text_4">
      <!-- 1500 -->
      <g transform="translate(961.440564 527.238438) scale(0.1 -0.1)">
       <use xlink:href="#DejaVuSans-31"/>
       <use xlink:href="#DejaVuSans-35" x="63.623047"/>
       <use xlink:href="#DejaVuSans-30" x="127.246094"/>
       <use xlink:href="#DejaVuSans-30" x="190.869141"/>
      </g>
     </g>
    </g>
    <g id="xtick_5">
     <g id="line2d_5">
      <g>
       <use xlink:href="#md12fb971eb" x="1221.978327" y="512.64" style="stroke: #000000; stroke-width: 0.8"/>
      </g>
     </g>
     <g id="text_5">
      <!-- 2000 -->
      <g transform="translate(1209.253327 527.238438) scale(0.1 -0.1)">
       <defs>
        <path id="DejaVuSans-32" d="M 1228 531 
L 3431 531 
L 3431 0 
L 469 0 
L 469 531 
Q 828 903 1448 1529 
Q 2069 2156 2228 2338 
Q 2531 2678 2651 2914 
Q 2772 3150 2772 3378 
Q 2772 3750 2511 3984 
Q 2250 4219 1831 4219 
Q 1534 4219 1204 4116 
Q 875 4013 500 3803 
L 500 4441 
Q 881 4594 1212 4672 
Q 1544 4750 1819 4750 
Q 2544 4750 2975 4387 
Q 3406 4025 3406 3419 
Q 3406 3131 3298 2873 
Q 3191 2616 2906 2266 
Q 2828 2175 2409 1742 
Q 1991 1309 1228 531 
z
" transform="scale(0.015625)"/>
       </defs>
       <use xlink:href="#DejaVuSans-32"/>
       <use xlink:href="#DejaVuSans-30" x="63.623047"/>
       <use xlink:href="#DejaVuSans-30" x="127.246094"/>
       <use xlink:href="#DejaVuSans-30" x="190.869141"/>
      </g>
     </g>
    </g>
   </g>
   <g id="matplotlib.axis_2">
    <g id="ytick_1">
     <g id="line2d_6">
      <defs>
       <path id="m5ddc318fac" d="M 0 0 
L -3.5 0 
" style="stroke: #000000; stroke-width: 0.8"/>
      </defs>
      <g>
       <use xlink:href="#m5ddc318fac" x="180" y="452.16" style="stroke: #000000; stroke-width: 0.8"/>
      </g>
     </g>
     <g id="text_6">
      <!-- −1.0 -->
      <g transform="translate(148.717187 455.959219) scale(0.1 -0.1)">
       <defs>
        <path id="DejaVuSans-2212" d="M 678 2272 
L 4684 2272 
L 4684 1741 
L 678 1741 
L 678 2272 
z
" transform="scale(0.015625)"/>
        <path id="DejaVuSans-2e" d="M 684 794 
L 1344 794 
L 1344 0 
L 684 0 
L 684 794 
z
" transform="scale(0.015625)"/>
       </defs>
       <use xlink:href="#DejaVuSans-2212"/>
       <use xlink:href="#DejaVuSans-31" x="83.789062"/>
       <use xlink:href="#DejaVuSans-2e" x="147.412109"/>
       <use xlink:href="#DejaVuSans-30" x="179.199219"/>
      </g>
     </g>
    </g>
    <g id="ytick_2">
     <g id="line2d_7">
      <g>
       <use xlink:href="#m5ddc318fac" x="180" y="371.52" style="stroke: #000000; stroke-width: 0.8"/>
      </g>
     </g>
     <g id="text_7">
      <!-- −0.5 -->
      <g transform="translate(148.717187 375.319219) scale(0.1 -0.1)">
       <use xlink:href="#DejaVuSans-2212"/>
       <use xlink:href="#DejaVuSans-30" x="83.789062"/>
       <use xlink:href="#DejaVuSans-2e" x="147.412109"/>
       <use xlink:href="#DejaVuSans-35" x="179.199219"/>
      </g>
     </g>
    </g>
    <g id="ytick_3">
     <g id="line2d_8">
      <g>
       <use xlink:href="#m5ddc318fac" x="180" y="290.88" style="stroke: #000000; stroke-width: 0.8"/>
      </g>
     </g>
     <g id="text_8">
      <!-- 0.0 -->
      <g transform="translate(157.096875 294.679219) scale(0.1 -0.1)">
       <use xlink:href="#DejaVuSans-30"/>
       <use xlink:href="#DejaVuSans-2e" x="63.623047"/>
       <use xlink:href="#DejaVuSans-30" x="95.410156"/>
      </g>
     </g>
    </g>
    <g id="ytick_4">
     <g id="line2d_9">
      <g>
       <use xlink:href="#m5ddc318fac" x="180" y="210.24" style="stroke: #000000; stroke-width: 0.8"/>
      </g>
     </g>
     <g id="text_9">
      <!-- 0.5 -->
      <g transform="translate(157.096875 214.039219) scale(0.1 -0.1)">
       <use xlink:href="#DejaVuSans-30"/>
       <use xlink:href="#DejaVuSans-2e" x="63.623047"/>
       <use xlink:href="#DejaVuSans-35" x="95.410156"/>
      </g>
     </g>
    </g>
    <g id="ytick_5">
     <g id="line2d_10">
      <g>
       <use xlink:href="#m5ddc318fac" x="180" y="129.6" style="stroke: #000000; stroke-width: 0.8"/>
      </g>
     </g>
     <g id="text_10">
      <!-- 1.0 -->
      <g transform="translate(157.096875 133.399219) scale(0.1 -0.1)">
       <use xlink:href="#DejaVuSans-31"/>
       <use xlink:href="#DejaVuSans-2e" x="63.623047"/>
       <use xlink:href="#DejaVuSans-30" x="95.410156"/>
      </g>
     </g>
    </g>
   </g>
   <g id="line2d_11">
    <path d="M 230.727273 291.132254 
L 233.2054 290.88 
L 234.196651 290.90461 
L 235.683528 290.664661 
L 238.657281 290.664661 
L 241.631034 290.769254 
L 244.604787 290.959983 
L 247.578541 291.009203 
L 250.056668 290.923068 
L 251.047919 290.898458 
L 252.03917 290.990746 
L 254.517298 290.750797 
L 258.977928 290.88 
L 261.456055 290.923068 
L 262.447306 290.978441 
L 264.429809 290.800017 
L 266.412311 291.015356 
L 267.403562 291.003051 
L 268.394813 291.132254 
L 270.87294 290.873847 
L 271.864191 290.88 
L 274.342319 290.744644 
L 278.307323 290.787712 
L 280.785451 291.027661 
L 282.272328 290.83078 
L 284.750455 290.88 
L 286.237332 290.861542 
L 287.228583 290.769254 
L 292.184838 290.95383 
L 294.16734 290.793865 
L 298.132344 290.90461 
L 299.123596 290.92922 
L 300.610472 290.990746 
L 302.592974 290.88 
L 308.044855 290.85539 
L 310.027357 290.80617 
L 311.018608 290.898458 
L 312.505485 290.775407 
L 313.992361 290.95383 
L 315.974863 290.886153 
L 317.46174 290.910763 
L 320.931119 290.892305 
L 323.409246 290.959983 
L 324.400497 290.972288 
L 325.887374 290.88 
L 327.869876 290.849237 
L 329.356753 290.756949 
L 330.843629 290.793865 
L 332.330506 290.689272 
L 333.817382 290.916915 
L 337.782387 290.910763 
L 339.269263 291.076881 
L 346.208021 290.83078 
L 349.677399 290.92922 
L 352.155527 290.966135 
L 353.642404 290.80617 
L 357.607408 290.916915 
L 360.581161 290.916915 
L 361.572412 290.941525 
L 363.554914 290.824627 
L 373.467425 290.923068 
L 376.936803 290.947678 
L 378.42368 290.923068 
L 380.406182 291.039966 
L 382.88431 290.88 
L 384.866812 290.923068 
L 386.849314 290.85539 
L 388.33619 290.775407 
L 389.823067 290.609289 
L 392.301195 290.90461 
L 393.788071 290.836932 
L 399.239952 291.009203 
L 401.71808 290.843085 
L 403.204956 290.95383 
L 406.674335 290.763102 
L 408.161212 291.046118 
L 409.152463 290.916915 
L 410.143714 290.787712 
L 412.621841 290.984593 
L 413.613092 290.984593 
L 415.099969 291.058423 
L 417.082471 290.800017 
L 420.056224 290.843085 
L 421.047475 290.695424 
L 422.534352 290.732339 
L 424.516854 290.83078 
L 426.499356 290.720034 
L 427.986233 290.947678 
L 435.420616 290.959983 
L 436.411867 290.959983 
L 437.898743 290.824627 
L 440.376871 290.935373 
L 441.368122 290.738492 
L 442.359373 290.88 
L 443.350624 290.978441 
L 444.341875 290.861542 
L 446.324377 291.058423 
L 447.315628 290.88 
L 449.29813 290.843085 
L 450.289381 290.707729 
L 452.767509 290.88 
L 456.732513 290.88 
L 457.723764 290.910763 
L 459.210641 290.861542 
L 460.697517 291.021508 
L 463.175645 290.947678 
L 464.166896 290.990746 
L 465.158147 290.763102 
L 465.653773 290.633899 
L 466.149398 290.627746 
L 467.636275 290.910763 
L 469.123151 290.861542 
L 470.114402 290.910763 
L 471.601279 290.664661 
L 473.088156 290.849237 
L 474.079407 290.787712 
L 476.557534 290.978441 
L 483.991917 290.972288 
L 484.983168 290.966135 
L 485.974419 290.867695 
L 490.930675 290.90461 
L 494.400053 290.676966 
L 497.869432 290.775407 
L 499.356309 291.052271 
L 500.843185 290.947678 
L 503.321313 291.113796 
L 505.79944 290.83078 
L 508.773194 290.80617 
L 510.755696 290.812322 
L 512.242572 290.843085 
L 513.729449 290.873847 
L 514.7207 290.88 
L 516.207576 290.744644 
L 518.190079 290.941525 
L 519.676955 290.843085 
L 521.659457 290.92922 
L 522.650708 290.88 
L 524.63321 291.064576 
L 526.120087 290.910763 
L 527.606964 290.947678 
L 529.589466 290.787712 
L 530.580717 290.713882 
L 532.067593 290.849237 
L 533.55447 290.676966 
L 535.536972 290.836932 
L 536.528223 290.843085 
L 538.0151 290.849237 
L 539.006351 290.861542 
L 540.988853 291.039966 
L 542.971355 290.88 
L 543.962606 290.750797 
L 546.440734 290.941525 
L 549.910112 290.88 
L 552.38824 290.898458 
L 553.379491 291.009203 
L 555.361993 290.793865 
L 556.84887 290.892305 
L 563.787627 290.90461 
L 564.778878 290.88 
L 565.770129 290.793865 
L 567.257006 290.92922 
L 568.743882 290.701577 
L 570.230759 290.843085 
L 571.22201 290.689272 
L 572.213261 290.836932 
L 573.204512 291.033813 
L 577.665142 290.849237 
L 579.152018 290.966135 
L 580.14327 291.052271 
L 585.59515 290.861542 
L 586.586401 290.836932 
L 587.577652 290.720034 
L 591.047031 290.88 
L 592.533908 291.113796 
L 595.507661 290.916915 
L 596.498912 290.910763 
L 597.985789 290.886153 
L 599.472665 290.92922 
L 601.455167 290.85539 
L 603.933295 290.88 
L 604.924546 290.849237 
L 605.915797 290.935373 
L 608.393925 290.750797 
L 611.863303 290.861542 
L 613.35018 290.720034 
L 615.828308 290.978441 
L 622.767065 290.873847 
L 624.253941 290.910763 
L 625.740818 290.83078 
L 627.227695 290.92922 
L 629.705822 290.818475 
L 630.697073 290.898458 
L 631.688324 291.058423 
L 633.175201 290.85539 
L 635.157703 290.984593 
L 636.148954 291.021508 
L 637.140205 291.175322 
L 641.105209 290.824627 
L 648.043967 290.763102 
L 649.530843 290.824627 
L 650.522094 290.818475 
L 651.513345 290.683119 
L 657.956477 290.984593 
L 659.443354 291.058423 
L 660.434605 291.107644 
L 662.417107 290.873847 
L 667.868988 290.95383 
L 668.860239 291.021508 
L 670.842741 290.88 
L 672.329618 290.867695 
L 673.816494 290.867695 
L 675.303371 290.88 
L 676.294622 290.738492 
L 677.285873 290.88 
L 678.277124 291.033813 
L 679.764001 290.781559 
L 682.242128 290.984593 
L 685.711507 290.88 
L 689.180886 290.886153 
L 690.172137 290.972288 
L 692.154639 290.812322 
L 693.14589 290.910763 
L 695.128392 290.824627 
L 696.119643 290.923068 
L 698.102145 290.849237 
L 699.093396 290.916915 
L 700.580273 290.849237 
L 702.067149 290.88 
L 703.554026 290.756949 
L 706.527779 290.775407 
L 707.51903 290.658509 
L 709.501532 291.076881 
L 710.988409 290.916915 
L 712.475285 291.052271 
L 713.962162 290.947678 
L 715.944664 291.169169 
L 717.927166 290.867695 
L 718.918417 290.984593 
L 719.909668 290.818475 
L 720.405294 290.701577 
L 721.396545 290.787712 
L 722.387796 290.88 
L 724.370298 290.701577 
L 726.848426 290.88 
L 729.822179 290.88 
L 735.27406 290.90461 
L 744.690945 290.775407 
L 747.664698 290.910763 
L 750.142825 291.039966 
L 751.629702 290.95383 
L 752.620953 290.947678 
L 753.612204 290.88 
L 758.072834 290.941525 
L 759.064085 290.713882 
L 762.037838 290.763102 
L 763.029089 290.83078 
L 764.02034 290.916915 
L 766.498468 290.775407 
L 767.985344 290.818475 
L 769.472221 290.916915 
L 770.463472 291.009203 
L 772.445974 290.959983 
L 773.437225 291.070728 
L 775.419727 290.843085 
L 777.897855 290.95383 
L 781.862859 290.769254 
L 783.349736 290.689272 
L 785.332238 290.867695 
L 788.305991 290.812322 
L 790.784119 291.126101 
L 794.749123 290.873847 
L 800.696629 290.88 
L 801.68788 290.935373 
L 803.174757 290.80617 
L 805.157259 290.818475 
L 807.635387 290.88 
L 809.122263 290.886153 
L 811.104765 290.959983 
L 812.096016 291.107644 
L 814.078518 290.88 
L 815.06977 290.90461 
L 816.556646 290.713882 
L 819.530399 290.88 
L 820.52165 290.763102 
L 822.999778 290.843085 
L 824.486655 290.756949 
L 825.477906 290.916915 
L 826.469157 291.126101 
L 827.460408 290.966135 
L 828.451659 290.85539 
L 830.929786 290.95383 
L 835.886042 290.726187 
L 838.859795 290.824627 
L 839.851046 290.793865 
L 844.311676 290.90461 
L 845.302927 290.966135 
L 846.294178 291.052271 
L 848.27668 290.935373 
L 849.763556 290.978441 
L 851.250433 290.85539 
L 855.215437 290.83078 
L 856.206688 290.578526 
L 856.702314 290.627746 
L 857.693565 290.92922 
L 858.684816 290.861542 
L 859.676067 290.726187 
L 862.154195 290.966135 
L 863.641071 290.959983 
L 865.127948 290.984593 
L 868.101701 290.941525 
L 870.579829 290.85539 
L 872.562331 290.80617 
L 879.005463 290.818475 
L 883.466092 290.996898 
L 888.422348 290.996898 
L 889.413599 291.101491 
L 891.891726 290.732339 
L 892.882977 290.633899 
L 895.85673 289.889442 
L 896.847982 290.074018 
L 897.343607 290.34473 
L 897.839233 290.812322 
L 898.334858 291.532168 
L 899.326109 293.839368 
L 900.812986 298.035394 
L 901.308611 299.14285 
L 901.804237 299.899611 
L 902.299862 300.121102 
L 902.795488 299.616595 
L 903.291113 298.250733 
L 903.786739 295.992754 
L 904.282364 292.842658 
L 905.273615 284.376774 
L 907.256118 264.399505 
L 907.751743 260.615698 
L 908.247369 257.927042 
L 908.742994 256.604248 
L 909.23862 256.850349 
L 909.734245 258.862225 
L 910.229871 262.762931 
L 910.725496 268.558617 
L 911.716747 285.355026 
L 912.707998 307.190361 
L 914.690501 353.605058 
L 915.681752 370.124605 
L 916.177377 374.837449 
L 916.673003 376.658591 
L 917.168628 375.28658 
L 917.664254 370.487603 
L 918.159879 362.058637 
L 918.655505 349.981217 
L 919.646756 315.828516 
L 921.133632 248.51982 
L 922.620509 180.934262 
L 923.61176 148.079747 
L 924.107386 138.0019 
L 924.603011 132.987586 
L 925.098637 133.412108 
L 925.594262 139.466196 
L 926.089888 151.156005 
L 926.585513 168.296964 
L 927.576764 217.055773 
L 929.063641 313.570536 
L 930.550517 411.285039 
L 931.541768 461.065172 
L 932.037394 478.089226 
L 932.533019 488.73926 
L 933.028645 492.412324 
L 933.524271 488.850002 
L 934.019896 478.107683 
L 934.515522 460.548355 
L 935.011147 436.719607 
L 936.002398 374.056073 
L 938.976151 163.719476 
L 939.471777 140.961264 
L 939.967402 124.903166 
L 940.463028 116.166569 
L 940.958653 115.132937 
L 941.454279 121.913031 
L 941.949905 136.205358 
L 942.44553 157.376217 
L 943.436781 216.760451 
L 945.914909 391.541572 
L 946.90616 443.339731 
L 947.401785 459.004079 
L 947.897411 466.485559 
L 948.393036 464.77515 
L 948.888662 449.732208 
L 949.384287 414.822743 
L 950.871164 246.409504 
L 951.36679 211.684614 
L 951.862415 190.575283 
L 952.853666 162.433597 
L 953.349292 153.217108 
L 953.844917 149.85167 
L 954.836168 154.041551 
L 955.331794 145.114221 
L 956.323045 89.28 
L 957.809921 89.28 
L 958.305547 153.887732 
L 959.296798 318.037274 
L 959.792424 374.357547 
L 960.288049 412.220224 
L 961.2793 465.033549 
L 961.774926 484.346352 
L 962.270551 492.48 
L 967.226806 492.48 
L 968.218057 308.150156 
L 968.713683 252.703541 
L 969.704934 181.734096 
L 970.696185 123.365023 
L 971.191811 107.749893 
L 971.687436 100.686791 
L 972.183062 97.991988 
L 972.678687 96.484606 
L 973.174313 89.28 
L 975.65244 89.28 
L 976.148066 102.834036 
L 976.643691 210.146484 
L 977.139317 279.608563 
L 978.130568 348.233898 
L 979.121819 414.416678 
L 979.617445 436.098201 
L 980.11307 445.923792 
L 980.608696 449.276925 
L 981.104321 450.938106 
L 981.599947 451.270342 
L 982.095572 449.363058 
L 982.591198 453.146874 
L 983.086823 484.00182 
L 983.582449 492.48 
L 985.069325 492.48 
L 986.556202 246.38489 
L 988.538704 125.604553 
L 989.03433 109.349561 
L 989.529955 105.122766 
L 990.025581 105.694953 
L 990.521206 106.753195 
L 991.016832 109.312646 
L 991.512457 114.474617 
L 992.008083 112.08743 
L 992.503708 89.28 
L 994.48621 89.28 
L 995.477461 296.029669 
L 995.973087 347.717087 
L 996.964338 406.990578 
L 997.955589 473.450224 
L 998.451215 488.745412 
L 998.94684 492.48 
L 999.938091 492.48 
L 1000.433717 491.040313 
L 1000.929342 487.564124 
L 1001.424968 492.48 
L 1003.903095 492.48 
L 1004.398721 377.704528 
L 1004.894346 291.8521 
L 1005.389972 248.569039 
L 1006.381223 186.557677 
L 1006.876849 150.097773 
L 1007.372474 123.143538 
L 1007.8681 110.623134 
L 1008.363725 107.226925 
L 1008.859351 106.033351 
L 1009.354976 105.233508 
L 1009.850602 105.208899 
L 1010.346227 95.912438 
L 1010.841853 89.28 
L 1012.824355 89.28 
L 1013.815606 272.391642 
L 1014.311232 322.079487 
L 1015.302483 381.97438 
L 1016.293734 446.483675 
L 1016.789359 461.268199 
L 1017.284985 465.531908 
L 1017.78061 466.442493 
L 1018.276236 466.946985 
L 1018.771861 465.310423 
L 1019.267487 461.003648 
L 1019.763112 464.738236 
L 1020.258738 492.48 
L 1022.24124 492.48 
L 1023.232491 298.060004 
L 1023.728117 241.739731 
L 1025.710619 117.606256 
L 1026.206244 101.68351 
L 1026.70187 96.97066 
L 1027.197495 96.841461 
L 1027.693121 97.561305 
L 1028.188746 100.096147 
L 1028.684372 104.18759 
L 1029.179997 98.361129 
L 1029.675623 89.28 
L 1031.658125 89.28 
L 1033.145002 330.643811 
L 1034.631878 432.025225 
L 1035.127504 460.788316 
L 1035.623129 478.107683 
L 1036.118755 484.844711 
L 1036.61438 486.419749 
L 1037.110006 486.296702 
L 1037.605631 484.389418 
L 1038.101257 483.226587 
L 1038.596882 492.48 
L 1041.07501 492.48 
L 1041.570636 419.763229 
L 1042.066261 328.502731 
L 1042.561887 264.264149 
L 1043.553138 189.190957 
L 1044.544389 131.750927 
L 1045.040014 114.283894 
L 1045.53564 105.910285 
L 1046.031265 103.301614 
L 1046.526891 103.492356 
L 1047.022516 104.064524 
L 1048.013767 89.28 
L 1049.996269 89.28 
L 1050.491895 95.807829 
L 1051.483146 259.686665 
L 1051.978772 323.236164 
L 1052.474397 368.35883 
L 1053.465648 428.659787 
L 1053.961274 450.968868 
L 1054.456899 466.725501 
L 1054.952525 475.191395 
L 1055.44815 477.720085 
L 1055.943776 476.686453 
L 1056.439401 476.581863 
L 1056.935027 486.345921 
L 1057.430652 492.48 
L 1059.413155 492.48 
L 1059.90878 476.329598 
L 1060.900031 342.881196 
L 1061.891282 217.947892 
L 1062.386908 179.359214 
L 1062.882533 152.8295 
L 1063.873784 115.66821 
L 1064.36941 104.445989 
L 1064.865035 99.62855 
L 1065.360661 98.674917 
L 1066.351912 89.28 
L 1068.83004 89.28 
L 1069.325665 118.498365 
L 1069.821291 162.679701 
L 1071.803793 389.812706 
L 1072.299418 420.538453 
L 1073.290669 457.650525 
L 1073.786295 470.263214 
L 1074.777546 485.072347 
L 1075.273171 492.48 
L 1077.751299 492.48 
L 1078.246925 478.064616 
L 1079.238176 413.210781 
L 1080.229427 327.819799 
L 1081.716303 187.154474 
L 1082.211929 156.404118 
L 1082.707554 136.039235 
L 1084.194431 92.965369 
L 1084.690056 89.28 
L 1086.672559 89.28 
L 1087.168184 99.690092 
L 1088.159435 149.556348 
L 1089.646312 249.75648 
L 1091.628814 384.127767 
L 1092.620065 436.448894 
L 1093.11569 456.309275 
L 1093.611316 471.450655 
L 1094.106941 481.639243 
L 1094.602567 486.73969 
L 1095.098192 486.776604 
L 1095.593818 481.885337 
L 1096.089444 472.336611 
L 1096.585069 458.524177 
L 1097.57632 420.052398 
L 1099.063197 344.868465 
L 1101.045699 240.18314 
L 1102.03695 197.349215 
L 1103.028201 166.020529 
L 1103.523826 155.284362 
L 1104.019452 147.975147 
L 1104.515077 144.179036 
L 1105.010703 143.889866 
L 1105.506329 147.046115 
L 1106.001954 153.395535 
L 1106.49758 162.642787 
L 1107.488831 188.403438 
L 1108.480082 221.405615 
L 1111.94946 346.178953 
L 1112.940711 371.871924 
L 1113.436337 381.672905 
L 1113.931963 389.234366 
L 1114.427588 394.420956 
L 1114.923214 397.158826 
L 1115.418839 397.447995 
L 1115.914465 395.343836 
L 1116.41009 391.024756 
L 1116.905716 384.644583 
L 1117.896967 366.359255 
L 1118.888218 341.902944 
L 1122.853222 234.332083 
L 1123.844473 217.178825 
L 1124.340099 211.247783 
L 1124.835724 207.273253 
L 1125.33135 205.415188 
L 1125.826975 205.747424 
L 1126.322601 208.214591 
L 1126.818226 212.656713 
L 1127.313852 218.932296 
L 1128.305103 236.374724 
L 1129.296354 258.862225 
L 1132.270107 331.425181 
L 1133.261358 349.439796 
L 1133.756984 356.023006 
L 1134.252609 360.785064 
L 1134.748235 363.682904 
L 1135.24386 364.673465 
L 1135.739486 363.732128 
L 1136.235111 360.877349 
L 1136.730737 356.170667 
L 1137.226362 349.685894 
L 1138.217613 332.015825 
L 1139.70449 298.256885 
L 1141.686992 251.829882 
L 1142.678243 233.341527 
L 1143.173869 226.339943 
L 1143.669494 221.085683 
L 1144.16512 217.720245 
L 1144.660745 216.354387 
L 1145.156371 217.018859 
L 1145.651996 219.676753 
L 1146.147622 224.272693 
L 1146.643247 230.708242 
L 1147.634498 248.599806 
L 1148.625749 271.684101 
L 1151.599503 347.218732 
L 1152.590754 365.688631 
L 1153.086379 372.333369 
L 1153.582005 377.003132 
L 1154.07763 379.599508 
L 1154.573256 380.036334 
L 1155.068881 378.245944 
L 1155.564507 374.185272 
L 1156.060132 367.909694 
L 1157.051383 349.421339 
L 1158.042634 324.872737 
L 1162.007639 217.184977 
L 1162.99889 201.563696 
L 1163.494515 196.857018 
L 1163.990141 194.457527 
L 1164.485766 194.43907 
L 1164.981392 196.777028 
L 1165.477017 201.379125 
L 1165.972643 208.048468 
L 1166.963894 226.73986 
L 1167.955145 251.110036 
L 1170.928898 331.591299 
L 1171.920149 351.593179 
L 1172.415775 359.111573 
L 1172.9114 364.759598 
L 1173.407026 368.414201 
L 1173.902651 370.020011 
L 1174.398277 369.558575 
L 1174.893902 367.12217 
L 1175.389528 362.8154 
L 1175.885153 356.773611 
L 1176.876404 340.198692 
L 1178.363281 308.396257 
L 1180.345783 265.931484 
L 1181.337034 249.738023 
L 1181.83266 243.628558 
L 1182.328285 238.964937 
L 1182.823911 235.820993 
L 1183.319536 234.313626 
L 1183.815162 234.485896 
L 1184.310787 236.239367 
L 1184.806413 239.444835 
L 1185.302038 243.899271 
L 1186.29329 256.025908 
L 1187.780166 279.547037 
L 1189.267043 303.652655 
L 1190.258294 317.114394 
L 1191.249545 327.136867 
L 1191.74517 330.582285 
L 1192.240796 332.864877 
L 1192.736421 333.953871 
L 1193.232047 333.843129 
L 1193.727672 332.66184 
L 1194.223298 330.52076 
L 1194.718923 327.50602 
L 1195.710175 319.101661 
L 1197.197051 302.803606 
L 1198.683928 286.265601 
L 1199.675179 277.042957 
L 1200.66643 270.004461 
L 1201.162055 267.432702 
L 1201.657681 265.63001 
L 1202.153306 264.633301 
L 1202.648932 264.436419 
L 1203.144557 264.922469 
L 1203.640183 265.980705 
L 1204.135809 267.59882 
L 1205.12706 272.274744 
L 1206.613936 281.362034 
L 1208.596438 294.073164 
L 1209.587689 299.099782 
L 1210.57894 302.815911 
L 1211.074566 304.089485 
L 1211.570191 305.00006 
L 1212.065817 305.566093 
L 1212.561442 305.781431 
L 1213.057068 305.553788 
L 1213.552694 304.920077 
L 1214.048319 303.947977 
L 1215.03957 301.173185 
L 1216.030821 297.370921 
L 1218.013323 288.394377 
L 1220.491451 276.815313 
L 1221.482702 273.068422 
L 1222.473953 270.078291 
L 1222.969579 268.98314 
L 1223.465204 268.226378 
L 1223.96083 267.801854 
L 1224.456455 267.666498 
L 1224.952081 267.832616 
L 1225.447706 268.337125 
L 1225.943332 269.266158 
L 1226.438957 270.632019 
L 1227.430208 274.551181 
L 1228.421459 279.805444 
L 1229.41271 286.40711 
L 1231.395213 301.831506 
L 1233.377715 316.991345 
L 1234.368966 322.799333 
L 1235.360217 326.786174 
L 1235.855842 327.918239 
L 1236.351468 328.379679 
L 1236.847093 328.170495 
L 1237.342719 327.266071 
L 1237.838344 325.740244 
L 1238.33397 323.599161 
L 1239.325221 317.53892 
L 1240.316472 309.429882 
L 1244.281476 274.18203 
L 1245.272727 268.613988 
L 1245.272727 268.613988 
" clip-path="url(#p12159b1f08)" style="fill: none; stroke: #1f77b4; stroke-width: 1.5; stroke-linecap: square"/>
   </g>
   <g id="patch_3">
    <path d="M 180 512.64 
L 180 69.12 
" style="fill: none; stroke: #000000; stroke-width: 0.8; stroke-linejoin: miter; stroke-linecap: square"/>
   </g>
   <g id="patch_4">
    <path d="M 1296 512.64 
L 1296 69.12 
" style="fill: none; stroke: #000000; stroke-width: 0.8; stroke-linejoin: miter; stroke-linecap: square"/>
   </g>
   <g id="patch_5">
    <path d="M 180 512.64 
L 1296 512.64 
" style="fill: none; stroke: #000000; stroke-width: 0.8; stroke-linejoin: miter; stroke-linecap: square"/>
   </g>
   <g id="patch_6">
    <path d="M 180 69.12 
L 1296 69.12 
" style="fill: none; stroke: #000000; stroke-width: 0.8; stroke-linejoin: miter; stroke-linecap: square"/>
   </g>
   <g id="text_11">
    <!-- source1-receiver9 -->
    <g transform="translate(557.625 60.80125) scale(0.4 -0.4)">
     <defs>
      <path id="DejaVuSans-73" d="M 2834 3397 
L 2834 2853 
Q 2591 2978 2328 3040 
Q 2066 3103 1784 3103 
Q 1356 3103 1142 2972 
Q 928 2841 928 2578 
Q 928 2378 1081 2264 
Q 1234 2150 1697 2047 
L 1894 2003 
Q 2506 1872 2764 1633 
Q 3022 1394 3022 966 
Q 3022 478 2636 193 
Q 2250 -91 1575 -91 
Q 1294 -91 989 -36 
Q 684 19 347 128 
L 347 722 
Q 666 556 975 473 
Q 1284 391 1588 391 
Q 1994 391 2212 530 
Q 2431 669 2431 922 
Q 2431 1156 2273 1281 
Q 2116 1406 1581 1522 
L 1381 1569 
Q 847 1681 609 1914 
Q 372 2147 372 2553 
Q 372 3047 722 3315 
Q 1072 3584 1716 3584 
Q 2034 3584 2315 3537 
Q 2597 3491 2834 3397 
z
" transform="scale(0.015625)"/>
      <path id="DejaVuSans-6f" d="M 1959 3097 
Q 1497 3097 1228 2736 
Q 959 2375 959 1747 
Q 959 1119 1226 758 
Q 1494 397 1959 397 
Q 2419 397 2687 759 
Q 2956 1122 2956 1747 
Q 2956 2369 2687 2733 
Q 2419 3097 1959 3097 
z
M 1959 3584 
Q 2709 3584 3137 3096 
Q 3566 2609 3566 1747 
Q 3566 888 3137 398 
Q 2709 -91 1959 -91 
Q 1206 -91 779 398 
Q 353 888 353 1747 
Q 353 2609 779 3096 
Q 1206 3584 1959 3584 
z
" transform="scale(0.015625)"/>
      <path id="DejaVuSans-75" d="M 544 1381 
L 544 3500 
L 1119 3500 
L 1119 1403 
Q 1119 906 1312 657 
Q 1506 409 1894 409 
Q 2359 409 2629 706 
Q 2900 1003 2900 1516 
L 2900 3500 
L 3475 3500 
L 3475 0 
L 2900 0 
L 2900 538 
Q 2691 219 2414 64 
Q 2138 -91 1772 -91 
Q 1169 -91 856 284 
Q 544 659 544 1381 
z
M 1991 3584 
L 1991 3584 
z
" transform="scale(0.015625)"/>
      <path id="DejaVuSans-72" d="M 2631 2963 
Q 2534 3019 2420 3045 
Q 2306 3072 2169 3072 
Q 1681 3072 1420 2755 
Q 1159 2438 1159 1844 
L 1159 0 
L 581 0 
L 581 3500 
L 1159 3500 
L 1159 2956 
Q 1341 3275 1631 3429 
Q 1922 3584 2338 3584 
Q 2397 3584 2469 3576 
Q 2541 3569 2628 3553 
L 2631 2963 
z
" transform="scale(0.015625)"/>
      <path id="DejaVuSans-63" d="M 3122 3366 
L 3122 2828 
Q 2878 2963 2633 3030 
Q 2388 3097 2138 3097 
Q 1578 3097 1268 2742 
Q 959 2388 959 1747 
Q 959 1106 1268 751 
Q 1578 397 2138 397 
Q 2388 397 2633 464 
Q 2878 531 3122 666 
L 3122 134 
Q 2881 22 2623 -34 
Q 2366 -91 2075 -91 
Q 1284 -91 818 406 
Q 353 903 353 1747 
Q 353 2603 823 3093 
Q 1294 3584 2113 3584 
Q 2378 3584 2631 3529 
Q 2884 3475 3122 3366 
z
" transform="scale(0.015625)"/>
      <path id="DejaVuSans-65" d="M 3597 1894 
L 3597 1613 
L 953 1613 
Q 991 1019 1311 708 
Q 1631 397 2203 397 
Q 2534 397 2845 478 
Q 3156 559 3463 722 
L 3463 178 
Q 3153 47 2828 -22 
Q 2503 -91 2169 -91 
Q 1331 -91 842 396 
Q 353 884 353 1716 
Q 353 2575 817 3079 
Q 1281 3584 2069 3584 
Q 2775 3584 3186 3129 
Q 3597 2675 3597 1894 
z
M 3022 2063 
Q 3016 2534 2758 2815 
Q 2500 3097 2075 3097 
Q 1594 3097 1305 2825 
Q 1016 2553 972 2059 
L 3022 2063 
z
" transform="scale(0.015625)"/>
      <path id="DejaVuSans-2d" d="M 313 2009 
L 1997 2009 
L 1997 1497 
L 313 1497 
L 313 2009 
z
" transform="scale(0.015625)"/>
      <path id="DejaVuSans-69" d="M 603 3500 
L 1178 3500 
L 1178 0 
L 603 0 
L 603 3500 
z
M 603 4863 
L 1178 4863 
L 1178 4134 
L 603 4134 
L 603 4863 
z
" transform="scale(0.015625)"/>
      <path id="DejaVuSans-76" d="M 191 3500 
L 800 3500 
L 1894 563 
L 2988 3500 
L 3597 3500 
L 2284 0 
L 1503 0 
L 191 3500 
z
" transform="scale(0.015625)"/>
      <path id="DejaVuSans-39" d="M 703 97 
L 703 672 
Q 941 559 1184 500 
Q 1428 441 1663 441 
Q 2288 441 2617 861 
Q 2947 1281 2994 2138 
Q 2813 1869 2534 1725 
Q 2256 1581 1919 1581 
Q 1219 1581 811 2004 
Q 403 2428 403 3163 
Q 403 3881 828 4315 
Q 1253 4750 1959 4750 
Q 2769 4750 3195 4129 
Q 3622 3509 3622 2328 
Q 3622 1225 3098 567 
Q 2575 -91 1691 -91 
Q 1453 -91 1209 -44 
Q 966 3 703 97 
z
M 1959 2075 
Q 2384 2075 2632 2365 
Q 2881 2656 2881 3163 
Q 2881 3666 2632 3958 
Q 2384 4250 1959 4250 
Q 1534 4250 1286 3958 
Q 1038 3666 1038 3163 
Q 1038 2656 1286 2365 
Q 1534 2075 1959 2075 
z
" transform="scale(0.015625)"/>
     </defs>
     <use xlink:href="#DejaVuSans-73"/>
     <use xlink:href="#DejaVuSans-6f" x="52.099609"/>
     <use xlink:href="#DejaVuSans-75" x="113.28125"/>
     <use xlink:href="#DejaVuSans-72" x="176.660156"/>
     <use xlink:href="#DejaVuSans-63" x="215.523438"/>
     <use xlink:href="#DejaVuSans-65" x="270.503906"/>
     <use xlink:href="#DejaVuSans-31" x="332.027344"/>
     <use xlink:href="#DejaVuSans-2d" x="395.650391"/>
     <use xlink:href="#DejaVuSans-72" x="431.734375"/>
     <use xlink:href="#DejaVuSans-65" x="470.597656"/>
     <use xlink:href="#DejaVuSans-63" x="532.121094"/>
     <use xlink:href="#DejaVuSans-65" x="587.101562"/>
     <use xlink:href="#DejaVuSans-69" x="648.625"/>
     <use xlink:href="#DejaVuSans-76" x="676.408203"/>
     <use xlink:href="#DejaVuSans-65" x="735.587891"/>
     <use xlink:href="#DejaVuSans-72" x="797.111328"/>
     <use xlink:href="#DejaVuSans-39" x="838.224609"/>
    </g>
   </g>
  </g>
 </g>
 <defs>
  <clipPath id="p12159b1f08">
   <rect x="180" y="69.12" width="1116" height="443.52"/>
  </clipPath>
 </defs>
</svg>
