<?xml version="1.0" encoding="utf-8" standalone="no"?>
<!DOCTYPE svg PUBLIC "-//W3C//DTD SVG 1.1//EN"
  "http://www.w3.org/Graphics/SVG/1.1/DTD/svg11.dtd">
<svg xmlns:xlink="http://www.w3.org/1999/xlink" width="1440pt" height="576pt" viewBox="0 0 1440 576" xmlns="http://www.w3.org/2000/svg" version="1.1">
 <metadata>
  <rdf:RDF xmlns:dc="http://purl.org/dc/elements/1.1/" xmlns:cc="http://creativecommons.org/ns#" xmlns:rdf="http://www.w3.org/1999/02/22-rdf-syntax-ns#">
   <cc:Work>
    <dc:type rdf:resource="http://purl.org/dc/dcmitype/StillImage"/>
    <dc:date>2024-05-22T04:50:14.639719</dc:date>
    <dc:format>image/svg+xml</dc:format>
    <dc:creator>
     <cc:Agent>
      <dc:title>Matplotlib v3.8.3, https://matplotlib.org/</dc:title>
     </cc:Agent>
    </dc:creator>
   </cc:Work>
  </rdf:RDF>
 </metadata>
 <defs>
  <style type="text/css">*{stroke-linejoin: round; stroke-linecap: butt}</style>
 </defs>
 <g id="figure_1">
  <g id="patch_1">
   <path d="M 0 576 
L 1440 576 
L 1440 0 
L 0 0 
z
" style="fill: #ffffff"/>
  </g>
  <g id="axes_1">
   <g id="patch_2">
    <path d="M 180 512.64 
L 1296 512.64 
L 1296 69.12 
L 180 69.12 
z
" style="fill: #ffffff"/>
   </g>
   <g id="matplotlib.axis_1">
    <g id="xtick_1">
     <g id="line2d_1">
      <defs>
       <path id="m6953370033" d="M 0 0 
L 0 3.5 
" style="stroke: #000000; stroke-width: 0.8"/>
      </defs>
      <g>
       <use xlink:href="#m6953370033" x="229.734567" y="512.64" style="stroke: #000000; stroke-width: 0.8"/>
      </g>
     </g>
     <g id="text_1">
      <!-- 0 -->
      <g transform="translate(226.553317 527.238438) scale(0.1 -0.1)">
       <defs>
        <path id="DejaVuSans-30" d="M 2034 4250 
Q 1547 4250 1301 3770 
Q 1056 3291 1056 2328 
Q 1056 1369 1301 889 
Q 1547 409 2034 409 
Q 2525 409 2770 889 
Q 3016 1369 3016 2328 
Q 3016 3291 2770 3770 
Q 2525 4250 2034 4250 
z
M 2034 4750 
Q 2819 4750 3233 4129 
Q 3647 3509 3647 2328 
Q 3647 1150 3233 529 
Q 2819 -91 2034 -91 
Q 1250 -91 836 529 
Q 422 1150 422 2328 
Q 422 3509 836 4129 
Q 1250 4750 2034 4750 
z
" transform="scale(0.015625)"/>
       </defs>
       <use xlink:href="#DejaVuSans-30"/>
      </g>
     </g>
    </g>
    <g id="xtick_2">
     <g id="line2d_2">
      <g>
       <use xlink:href="#m6953370033" x="433.04074" y="512.64" style="stroke: #000000; stroke-width: 0.8"/>
      </g>
     </g>
     <g id="text_2">
      <!-- 500 -->
      <g transform="translate(423.49699 527.238438) scale(0.1 -0.1)">
       <defs>
        <path id="DejaVuSans-35" d="M 691 4666 
L 3169 4666 
L 3169 4134 
L 1269 4134 
L 1269 2991 
Q 1406 3038 1543 3061 
Q 1681 3084 1819 3084 
Q 2600 3084 3056 2656 
Q 3513 2228 3513 1497 
Q 3513 744 3044 326 
Q 2575 -91 1722 -91 
Q 1428 -91 1123 -41 
Q 819 9 494 109 
L 494 744 
Q 775 591 1075 516 
Q 1375 441 1709 441 
Q 2250 441 2565 725 
Q 2881 1009 2881 1497 
Q 2881 1984 2565 2268 
Q 2250 2553 1709 2553 
Q 1456 2553 1204 2497 
Q 953 2441 691 2322 
L 691 4666 
z
" transform="scale(0.015625)"/>
       </defs>
       <use xlink:href="#DejaVuSans-35"/>
       <use xlink:href="#DejaVuSans-30" x="63.623047"/>
       <use xlink:href="#DejaVuSans-30" x="127.246094"/>
      </g>
     </g>
    </g>
    <g id="xtick_3">
     <g id="line2d_3">
      <g>
       <use xlink:href="#m6953370033" x="636.346913" y="512.64" style="stroke: #000000; stroke-width: 0.8"/>
      </g>
     </g>
     <g id="text_3">
      <!-- 1000 -->
      <g transform="translate(623.621913 527.238438) scale(0.1 -0.1)">
       <defs>
        <path id="DejaVuSans-31" d="M 794 531 
L 1825 531 
L 1825 4091 
L 703 3866 
L 703 4441 
L 1819 4666 
L 2450 4666 
L 2450 531 
L 3481 531 
L 3481 0 
L 794 0 
L 794 531 
z
" transform="scale(0.015625)"/>
       </defs>
       <use xlink:href="#DejaVuSans-31"/>
       <use xlink:href="#DejaVuSans-30" x="63.623047"/>
       <use xlink:href="#DejaVuSans-30" x="127.246094"/>
       <use xlink:href="#DejaVuSans-30" x="190.869141"/>
      </g>
     </g>
    </g>
    <g id="xtick_4">
     <g id="line2d_4">
      <g>
       <use xlink:href="#m6953370033" x="839.653087" y="512.64" style="stroke: #000000; stroke-width: 0.8"/>
      </g>
     </g>
     <g id="text_4">
      <!-- 1500 -->
      <g transform="translate(826.928087 527.238438) scale(0.1 -0.1)">
       <use xlink:href="#DejaVuSans-31"/>
       <use xlink:href="#DejaVuSans-35" x="63.623047"/>
       <use xlink:href="#DejaVuSans-30" x="127.246094"/>
       <use xlink:href="#DejaVuSans-30" x="190.869141"/>
      </g>
     </g>
    </g>
    <g id="xtick_5">
     <g id="line2d_5">
      <g>
       <use xlink:href="#m6953370033" x="1042.95926" y="512.64" style="stroke: #000000; stroke-width: 0.8"/>
      </g>
     </g>
     <g id="text_5">
      <!-- 2000 -->
      <g transform="translate(1030.23426 527.238438) scale(0.1 -0.1)">
       <defs>
        <path id="DejaVuSans-32" d="M 1228 531 
L 3431 531 
L 3431 0 
L 469 0 
L 469 531 
Q 828 903 1448 1529 
Q 2069 2156 2228 2338 
Q 2531 2678 2651 2914 
Q 2772 3150 2772 3378 
Q 2772 3750 2511 3984 
Q 2250 4219 1831 4219 
Q 1534 4219 1204 4116 
Q 875 4013 500 3803 
L 500 4441 
Q 881 4594 1212 4672 
Q 1544 4750 1819 4750 
Q 2544 4750 2975 4387 
Q 3406 4025 3406 3419 
Q 3406 3131 3298 2873 
Q 3191 2616 2906 2266 
Q 2828 2175 2409 1742 
Q 1991 1309 1228 531 
z
" transform="scale(0.015625)"/>
       </defs>
       <use xlink:href="#DejaVuSans-32"/>
       <use xlink:href="#DejaVuSans-30" x="63.623047"/>
       <use xlink:href="#DejaVuSans-30" x="127.246094"/>
       <use xlink:href="#DejaVuSans-30" x="190.869141"/>
      </g>
     </g>
    </g>
    <g id="xtick_6">
     <g id="line2d_6">
      <g>
       <use xlink:href="#m6953370033" x="1246.265433" y="512.64" style="stroke: #000000; stroke-width: 0.8"/>
      </g>
     </g>
     <g id="text_6">
      <!-- 2500 -->
      <g transform="translate(1233.540433 527.238438) scale(0.1 -0.1)">
       <use xlink:href="#DejaVuSans-32"/>
       <use xlink:href="#DejaVuSans-35" x="63.623047"/>
       <use xlink:href="#DejaVuSans-30" x="127.246094"/>
       <use xlink:href="#DejaVuSans-30" x="190.869141"/>
      </g>
     </g>
    </g>
   </g>
   <g id="matplotlib.axis_2">
    <g id="ytick_1">
     <g id="line2d_7">
      <defs>
       <path id="m8f68651b26" d="M 0 0 
L -3.5 0 
" style="stroke: #000000; stroke-width: 0.8"/>
      </defs>
      <g>
       <use xlink:href="#m8f68651b26" x="180" y="466.826561" style="stroke: #000000; stroke-width: 0.8"/>
      </g>
     </g>
     <g id="text_7">
      <!-- −2 -->
      <g transform="translate(158.257812 470.62578) scale(0.1 -0.1)">
       <defs>
        <path id="DejaVuSans-2212" d="M 678 2272 
L 4684 2272 
L 4684 1741 
L 678 1741 
L 678 2272 
z
" transform="scale(0.015625)"/>
       </defs>
       <use xlink:href="#DejaVuSans-2212"/>
       <use xlink:href="#DejaVuSans-32" x="83.789062"/>
      </g>
     </g>
    </g>
    <g id="ytick_2">
     <g id="line2d_8">
      <g>
       <use xlink:href="#m8f68651b26" x="180" y="410.732263" style="stroke: #000000; stroke-width: 0.8"/>
      </g>
     </g>
     <g id="text_8">
      <!-- −1 -->
      <g transform="translate(158.257812 414.531482) scale(0.1 -0.1)">
       <use xlink:href="#DejaVuSans-2212"/>
       <use xlink:href="#DejaVuSans-31" x="83.789062"/>
      </g>
     </g>
    </g>
    <g id="ytick_3">
     <g id="line2d_9">
      <g>
       <use xlink:href="#m8f68651b26" x="180" y="354.637966" style="stroke: #000000; stroke-width: 0.8"/>
      </g>
     </g>
     <g id="text_9">
      <!-- 0 -->
      <g transform="translate(166.6375 358.437185) scale(0.1 -0.1)">
       <use xlink:href="#DejaVuSans-30"/>
      </g>
     </g>
    </g>
    <g id="ytick_4">
     <g id="line2d_10">
      <g>
       <use xlink:href="#m8f68651b26" x="180" y="298.543668" style="stroke: #000000; stroke-width: 0.8"/>
      </g>
     </g>
     <g id="text_10">
      <!-- 1 -->
      <g transform="translate(166.6375 302.342887) scale(0.1 -0.1)">
       <use xlink:href="#DejaVuSans-31"/>
      </g>
     </g>
    </g>
    <g id="ytick_5">
     <g id="line2d_11">
      <g>
       <use xlink:href="#m8f68651b26" x="180" y="242.449371" style="stroke: #000000; stroke-width: 0.8"/>
      </g>
     </g>
     <g id="text_11">
      <!-- 2 -->
      <g transform="translate(166.6375 246.24859) scale(0.1 -0.1)">
       <use xlink:href="#DejaVuSans-32"/>
      </g>
     </g>
    </g>
    <g id="ytick_6">
     <g id="line2d_12">
      <g>
       <use xlink:href="#m8f68651b26" x="180" y="186.355073" style="stroke: #000000; stroke-width: 0.8"/>
      </g>
     </g>
     <g id="text_12">
      <!-- 3 -->
      <g transform="translate(166.6375 190.154292) scale(0.1 -0.1)">
       <defs>
        <path id="DejaVuSans-33" d="M 2597 2516 
Q 3050 2419 3304 2112 
Q 3559 1806 3559 1356 
Q 3559 666 3084 287 
Q 2609 -91 1734 -91 
Q 1441 -91 1130 -33 
Q 819 25 488 141 
L 488 750 
Q 750 597 1062 519 
Q 1375 441 1716 441 
Q 2309 441 2620 675 
Q 2931 909 2931 1356 
Q 2931 1769 2642 2001 
Q 2353 2234 1838 2234 
L 1294 2234 
L 1294 2753 
L 1863 2753 
Q 2328 2753 2575 2939 
Q 2822 3125 2822 3475 
Q 2822 3834 2567 4026 
Q 2313 4219 1838 4219 
Q 1578 4219 1281 4162 
Q 984 4106 628 3988 
L 628 4550 
Q 988 4650 1302 4700 
Q 1616 4750 1894 4750 
Q 2613 4750 3031 4423 
Q 3450 4097 3450 3541 
Q 3450 3153 3228 2886 
Q 3006 2619 2597 2516 
z
" transform="scale(0.015625)"/>
       </defs>
       <use xlink:href="#DejaVuSans-33"/>
      </g>
     </g>
    </g>
    <g id="ytick_7">
     <g id="line2d_13">
      <g>
       <use xlink:href="#m8f68651b26" x="180" y="130.260776" style="stroke: #000000; stroke-width: 0.8"/>
      </g>
     </g>
     <g id="text_13">
      <!-- 4 -->
      <g transform="translate(166.6375 134.059994) scale(0.1 -0.1)">
       <defs>
        <path id="DejaVuSans-34" d="M 2419 4116 
L 825 1625 
L 2419 1625 
L 2419 4116 
z
M 2253 4666 
L 3047 4666 
L 3047 1625 
L 3713 1625 
L 3713 1100 
L 3047 1100 
L 3047 0 
L 2419 0 
L 2419 1100 
L 313 1100 
L 313 1709 
L 2253 4666 
z
" transform="scale(0.015625)"/>
       </defs>
       <use xlink:href="#DejaVuSans-34"/>
      </g>
     </g>
    </g>
    <g id="ytick_8">
     <g id="line2d_14">
      <g>
       <use xlink:href="#m8f68651b26" x="180" y="74.166478" style="stroke: #000000; stroke-width: 0.8"/>
      </g>
     </g>
     <g id="text_14">
      <!-- 5 -->
      <g transform="translate(166.6375 77.965697) scale(0.1 -0.1)">
       <use xlink:href="#DejaVuSans-35"/>
      </g>
     </g>
    </g>
   </g>
   <g id="line2d_15">
    <path d="M 230.727273 431.845184 
L 231.719979 432.102237 
L 232.712685 430.215334 
L 234.698096 428.014585 
L 235.690802 426.400807 
L 236.683508 424.041343 
L 237.676214 422.4666 
L 239.661626 417.169422 
L 240.654332 413.204343 
L 241.647038 410.301996 
L 242.639744 406.272362 
L 243.63245 399.279753 
L 244.625156 386.368141 
L 245.617862 384.290676 
L 246.610568 399.508457 
L 247.603273 344.034155 
L 248.595979 280.984725 
L 249.588685 225.527141 
L 250.581391 188.776245 
L 251.574097 173.069625 
L 252.566803 181.614832 
L 255.544921 283.942978 
L 256.537627 198.261127 
L 257.530333 179.060621 
L 258.523039 181.552542 
L 259.515745 182.428763 
L 260.50845 171.896111 
L 261.501156 164.642337 
L 262.493862 165.055746 
L 263.486568 166.25072 
L 264.479274 168.096643 
L 265.47198 171.854447 
L 266.464686 179.496846 
L 267.457392 196.299295 
L 268.450098 207.713767 
L 269.442804 261.83302 
L 270.43551 247.929037 
L 271.428216 307.518389 
L 272.420922 214.612443 
L 273.413627 186.536458 
L 274.406333 167.60471 
L 275.399039 173.112698 
L 276.391745 136.658561 
L 277.384451 129.804172 
L 278.377157 176.876922 
L 279.369863 137.153553 
L 280.362569 104.876668 
L 281.355275 89.28 
L 282.347981 107.966885 
L 283.340687 196.2171 
L 284.333393 109.101428 
L 285.326099 112.224859 
L 286.318804 159.203954 
L 287.31151 235.994264 
L 288.304216 253.783713 
L 289.296922 205.710664 
L 290.289628 176.89474 
L 291.282334 208.922181 
L 292.27504 195.552545 
L 293.267746 184.530776 
L 294.260452 236.438473 
L 295.253158 230.018166 
L 296.245864 254.512624 
L 297.23857 286.650487 
L 298.231276 244.823704 
L 299.223981 251.787661 
L 300.216687 324.136348 
L 301.209393 275.9466 
L 302.202099 362.507389 
L 303.194805 300.497922 
L 304.187511 314.302072 
L 305.180217 346.407761 
L 306.172923 337.569968 
L 307.165629 323.564758 
L 308.158335 358.36162 
L 309.151041 317.225392 
L 310.143747 336.439788 
L 311.136453 351.754669 
L 312.129159 348.070921 
L 313.121864 357.883475 
L 314.11457 345.997434 
L 315.107276 348.63774 
L 316.099982 348.229799 
L 317.092688 353.104965 
L 318.085394 344.398747 
L 319.0781 346.166312 
L 320.070806 364.677124 
L 321.063512 353.661372 
L 322.056218 360.936781 
L 323.048924 358.652853 
L 324.04163 358.068949 
L 325.034336 359.278129 
L 326.027041 364.731577 
L 327.019747 365.399784 
L 328.012453 358.9706 
L 329.005159 367.193921 
L 329.997865 372.333761 
L 330.990571 359.94409 
L 331.983277 374.566595 
L 332.975983 367.259191 
L 333.968689 366.032088 
L 334.961395 374.406899 
L 335.954101 371.566866 
L 336.946807 364.645481 
L 337.939513 382.70476 
L 338.932218 375.305609 
L 339.924924 372.849898 
L 340.91763 376.994563 
L 341.910336 370.241754 
L 342.903042 381.237464 
L 343.895748 375.808143 
L 344.888454 378.282567 
L 345.88116 383.561606 
L 346.873866 384.576363 
L 347.866572 378.542958 
L 348.859278 380.05205 
L 349.851984 390.849046 
L 350.84469 379.943363 
L 351.837395 387.222065 
L 352.830101 390.243708 
L 353.822807 377.544723 
L 354.815513 387.824646 
L 355.808219 391.024962 
L 356.800925 385.05215 
L 357.793631 390.897983 
L 358.786337 388.360147 
L 359.779043 381.571215 
L 360.771749 394.41099 
L 361.764455 387.314526 
L 362.757161 398.135364 
L 363.749867 394.137312 
L 364.742572 386.180846 
L 365.735278 398.871374 
L 366.727984 389.374459 
L 367.72069 396.489346 
L 368.713396 392.159853 
L 369.706102 396.864085 
L 370.698808 392.373225 
L 371.691514 392.361204 
L 372.68422 398.757834 
L 373.676926 389.955623 
L 374.669632 401.107765 
L 375.662338 393.207424 
L 376.655044 397.89097 
L 377.64775 396.297607 
L 378.640455 405.216805 
L 379.633161 394.928356 
L 380.625867 406.737089 
L 381.618573 399.550278 
L 382.611279 400.640555 
L 383.603985 393.504615 
L 384.596691 403.395881 
L 385.589397 407.972893 
L 386.582103 397.386213 
L 387.574809 406.6255 
L 388.567515 412.971032 
L 389.560221 411.046442 
L 391.545632 397.601146 
L 392.538338 417.104881 
L 393.531044 405.121508 
L 394.52375 407.320353 
L 395.516456 402.702848 
L 396.509162 405.215172 
L 397.501868 414.528592 
L 398.494574 400.486049 
L 400.479986 407.221443 
L 401.472692 414.564196 
L 402.465398 408.646864 
L 403.458104 415.952505 
L 404.450809 408.905284 
L 405.443515 415.630518 
L 406.436221 413.818894 
L 407.428927 411.536123 
L 408.421633 407.521545 
L 409.414339 409.382475 
L 410.407045 410.157345 
L 411.399751 419.661075 
L 412.392457 419.236488 
L 413.385163 412.775937 
L 414.377869 416.029684 
L 415.370575 417.224903 
L 416.363281 417.80792 
L 417.355986 413.714785 
L 418.348692 415.485303 
L 419.341398 416.353511 
L 420.334104 414.95293 
L 421.32681 423.353891 
L 422.319516 414.714247 
L 423.312222 409.881729 
L 424.304928 410.320454 
L 425.297634 423.387067 
L 426.29034 411.135101 
L 427.283046 421.489271 
L 428.275752 423.019242 
L 429.268458 427.582683 
L 430.261163 428.35344 
L 431.253869 424.001469 
L 432.246575 412.104601 
L 433.239281 421.245037 
L 434.231987 423.856531 
L 435.224693 425.290568 
L 436.217399 420.386188 
L 437.210105 424.389034 
L 438.202811 421.259071 
L 439.195517 427.168422 
L 440.188223 428.326294 
L 441.180929 433.099395 
L 442.173635 418.06407 
L 443.166341 429.255032 
L 444.159046 433.430162 
L 445.151752 425.29907 
L 446.144458 421.294985 
L 447.137164 426.96609 
L 448.12987 425.254307 
L 449.122576 431.043913 
L 450.115282 431.261446 
L 451.107988 435.945575 
L 452.100694 426.999223 
L 453.0934 421.945888 
L 454.086106 424.699881 
L 455.078812 420.713083 
L 456.071518 422.684248 
L 457.064223 431.65139 
L 458.056929 421.31595 
L 459.049635 432.084756 
L 460.042341 420.887956 
L 461.035047 432.788103 
L 462.027753 428.999217 
L 463.020459 426.910255 
L 464.013165 429.475575 
L 465.005871 431.085984 
L 465.998577 429.600294 
L 466.991283 428.568861 
L 467.983989 431.67621 
L 468.976695 431.798057 
L 469.9694 426.874834 
L 470.962106 424.389368 
L 471.954812 432.618552 
L 472.947518 433.684247 
L 473.940224 429.185339 
L 474.93293 431.157643 
L 475.925636 436.622087 
L 477.911048 427.021417 
L 478.903754 430.234319 
L 479.89646 435.460493 
L 480.889166 432.151369 
L 481.881872 433.820841 
L 482.874577 434.006103 
L 483.867283 431.833228 
L 484.859989 434.965634 
L 485.852695 423.320186 
L 486.845401 427.494394 
L 487.838107 432.715316 
L 488.830813 426.934236 
L 489.823519 447.470268 
L 491.808931 431.197456 
L 492.801637 441.378941 
L 493.794343 442.046307 
L 494.787049 433.681065 
L 495.779754 434.111289 
L 496.77246 432.533485 
L 497.765166 448.615426 
L 498.757872 434.538802 
L 499.750578 446.969605 
L 500.743284 439.027626 
L 501.73599 441.887833 
L 502.728696 449.199548 
L 503.721402 445.21361 
L 504.714108 432.392241 
L 505.706814 439.681458 
L 506.69952 442.027756 
L 507.692226 427.064164 
L 508.684932 435.529004 
L 509.677637 441.040512 
L 510.670343 432.674091 
L 511.663049 448.792047 
L 512.655755 438.077821 
L 513.648461 449.55202 
L 514.641167 436.071714 
L 515.633873 438.245721 
L 516.626579 442.50835 
L 517.619285 438.623461 
L 518.611991 440.956298 
L 519.604697 442.00068 
L 520.597403 453.119875 
L 521.590109 439.940938 
L 522.582814 444.122588 
L 523.57552 446.888767 
L 524.568226 436.666603 
L 525.560932 445.658321 
L 526.553638 426.94449 
L 527.546344 447.373812 
L 528.53905 435.358724 
L 529.531756 434.249483 
L 530.524462 435.869117 
L 531.517168 443.523296 
L 532.509874 447.680859 
L 533.50258 464.509307 
L 534.495286 447.370841 
L 535.487991 453.392209 
L 536.480697 454.410025 
L 537.473403 442.198796 
L 538.466109 443.712841 
L 539.458815 441.658837 
L 540.451521 460.921147 
L 541.444227 445.063096 
L 542.436933 443.755429 
L 543.429639 451.725821 
L 544.422345 443.385153 
L 545.415051 444.794079 
L 546.407757 451.923401 
L 547.400463 453.650938 
L 548.393168 449.202782 
L 549.385874 455.641889 
L 550.37858 442.756664 
L 551.371286 457.665126 
L 552.363992 442.753449 
L 553.356698 435.974845 
L 554.349404 456.068578 
L 555.34211 460.391531 
L 556.334816 460.075353 
L 557.327522 448.540537 
L 558.320228 459.326156 
L 559.312934 447.933818 
L 560.30564 481.601059 
L 561.298345 447.073596 
L 562.291051 438.255831 
L 563.283757 448.520436 
L 564.276463 452.514185 
L 565.269169 444.621743 
L 566.261875 451.283077 
L 567.254581 446.004387 
L 568.247287 455.230255 
L 570.232699 448.143587 
L 571.225405 440.03072 
L 572.218111 444.536787 
L 573.210817 459.015735 
L 574.203523 460.916973 
L 575.196228 456.509288 
L 576.188934 459.259192 
L 577.18164 445.586949 
L 578.174346 456.022417 
L 579.167052 455.100659 
L 580.159758 448.891028 
L 581.152464 459.225753 
L 582.14517 457.151431 
L 583.137876 448.352058 
L 584.130582 454.897536 
L 585.123288 460.301562 
L 586.115994 451.495748 
L 587.1087 453.624483 
L 588.101405 470.221768 
L 589.094111 455.901625 
L 590.086817 445.864574 
L 591.079523 454.575434 
L 592.072229 464.986049 
L 593.064935 447.541057 
L 594.057641 456.849978 
L 595.050347 450.319843 
L 596.043053 449.70007 
L 597.035759 458.497575 
L 598.028465 457.927545 
L 599.021171 454.540648 
L 600.013877 447.858326 
L 601.006582 450.278662 
L 601.999288 463.202903 
L 602.991994 454.560022 
L 603.9847 457.085241 
L 604.977406 454.848979 
L 605.970112 458.169199 
L 606.962818 455.881915 
L 607.955524 462.221519 
L 608.94823 456.740899 
L 609.940936 449.156985 
L 610.933642 454.158875 
L 611.926348 463.252898 
L 612.919054 451.19338 
L 613.911759 452.56974 
L 614.904465 453.098317 
L 615.897171 467.956018 
L 616.889877 461.423432 
L 617.882583 452.977662 
L 618.875289 459.692905 
L 619.867995 461.647247 
L 620.860701 457.621429 
L 621.853407 454.993505 
L 622.846113 455.7331 
L 623.838819 456.723632 
L 624.831525 461.698703 
L 625.824231 455.86334 
L 627.809642 460.368932 
L 628.802348 461.093555 
L 629.795054 455.525339 
L 630.78776 467.238408 
L 631.780466 460.829247 
L 632.773172 460.932305 
L 633.765878 466.125378 
L 634.758584 459.039663 
L 635.75129 460.320883 
L 636.743996 463.06778 
L 637.736702 459.490667 
L 638.729408 461.441433 
L 639.722114 458.960049 
L 640.714819 462.411995 
L 641.707525 460.10661 
L 642.700231 462.770191 
L 643.692937 464.606821 
L 645.678349 460.255977 
L 646.671055 460.701056 
L 647.663761 460.333046 
L 648.656467 458.441939 
L 649.649173 459.360794 
L 650.641879 462.689938 
L 651.634585 461.750264 
L 652.627291 462.648141 
L 653.619996 460.253325 
L 654.612702 464.748329 
L 655.605408 461.687406 
L 656.598114 461.015088 
L 657.59082 463.601805 
L 658.583526 464.31794 
L 659.576232 464.438976 
L 660.568938 465.293367 
L 661.561644 464.419584 
L 662.55435 464.035785 
L 663.547056 463.27544 
L 664.539762 465.283507 
L 665.532468 463.603404 
L 666.525173 463.626678 
L 667.517879 463.075428 
L 669.503291 466.893 
L 670.495997 463.816687 
L 671.488703 464.997722 
L 672.481409 465.28959 
L 674.466821 467.95804 
L 675.459527 464.944144 
L 676.452233 466.018394 
L 677.444939 465.062963 
L 678.437645 463.911745 
L 679.43035 465.842443 
L 680.423056 467.168644 
L 681.415762 466.428232 
L 682.408468 465.063961 
L 683.401174 467.876892 
L 684.39388 465.857337 
L 685.386586 466.630072 
L 686.379292 466.228098 
L 687.371998 466.454884 
L 688.364704 467.15928 
L 689.35741 466.243137 
L 692.335527 466.982253 
L 693.328233 468.597251 
L 694.320939 466.280119 
L 695.313645 466.347785 
L 696.306351 468.234506 
L 697.299057 466.964813 
L 698.291763 467.990753 
L 699.284469 467.906479 
L 700.277175 467.525314 
L 702.262587 469.107103 
L 703.255293 468.573642 
L 704.247999 467.160919 
L 705.240705 468.776567 
L 706.23341 468.207224 
L 707.226116 468.228263 
L 708.218822 469.260808 
L 709.211528 468.384106 
L 710.204234 468.515652 
L 711.19694 468.883718 
L 712.189646 468.712193 
L 713.182352 470.714004 
L 714.175058 469.730588 
L 716.16047 469.906308 
L 717.153176 469.470958 
L 718.145882 470.276995 
L 719.138587 468.801914 
L 720.131293 469.648779 
L 721.123999 469.510902 
L 722.116705 469.759176 
L 723.109411 469.824276 
L 724.102117 469.295167 
L 725.094823 470.736081 
L 726.087529 470.272665 
L 727.080235 471.577651 
L 728.072941 470.437604 
L 729.065647 470.549036 
L 731.051059 471.377227 
L 732.043764 471.045212 
L 733.03647 470.898054 
L 734.029176 470.524316 
L 735.021882 470.387032 
L 736.014588 471.216785 
L 738 471.505616 
L 738.992706 470.764665 
L 739.985412 471.158835 
L 740.978118 471.778654 
L 741.970824 471.75064 
L 742.96353 471.890926 
L 743.956236 472.517623 
L 744.948941 472.518595 
L 745.941647 471.907744 
L 746.934353 471.96095 
L 747.927059 472.419713 
L 748.919765 471.931145 
L 749.912471 472.035104 
L 750.905177 472.003802 
L 751.897883 471.766549 
L 752.890589 472.466739 
L 753.883295 471.659119 
L 754.876001 472.973432 
L 755.868707 473.012895 
L 756.861413 473.613661 
L 757.854118 473.026573 
L 758.846824 473.368876 
L 759.83953 473.518171 
L 760.832236 472.703874 
L 761.824942 473.849713 
L 762.817648 473.252713 
L 763.810354 473.981842 
L 764.80306 472.445866 
L 766.788472 474.373951 
L 767.781178 474.206536 
L 768.773884 474.336722 
L 769.76659 474.317339 
L 770.759295 474.642421 
L 772.744707 474.156797 
L 773.737413 474.162002 
L 775.722825 474.579598 
L 776.715531 475.046495 
L 778.700943 475.174976 
L 779.693649 474.881233 
L 780.686355 474.889197 
L 781.679061 475.56561 
L 782.671767 474.687971 
L 783.664473 474.501693 
L 784.657178 474.703927 
L 785.649884 475.72009 
L 786.64259 474.718038 
L 787.635296 475.822789 
L 788.628002 475.284242 
L 789.620708 475.623807 
L 790.613414 475.392269 
L 791.60612 475.806268 
L 792.598826 474.881947 
L 793.591532 475.931769 
L 794.584238 476.151984 
L 795.576944 476.59018 
L 796.56965 475.394363 
L 797.562355 477.176583 
L 798.555061 475.633619 
L 799.547767 476.292834 
L 801.533179 476.595857 
L 802.525885 476.988618 
L 803.518591 476.262351 
L 804.511297 476.573825 
L 805.504003 477.410584 
L 806.496709 476.39695 
L 808.482121 477.315737 
L 809.474827 477.419656 
L 810.467532 477.070894 
L 811.460238 477.262634 
L 812.452944 477.930876 
L 813.44565 477.605843 
L 814.438356 477.020549 
L 815.431062 477.237693 
L 816.423768 478.065009 
L 817.416474 477.793585 
L 818.40918 477.191418 
L 819.401886 478.411676 
L 820.394592 477.363042 
L 821.387298 477.720983 
L 822.380004 478.319809 
L 823.372709 478.645047 
L 824.365415 478.698878 
L 825.358121 477.828547 
L 826.350827 478.431022 
L 827.343533 478.46354 
L 828.336239 478.110605 
L 829.328945 478.829422 
L 830.321651 479.082901 
L 831.314357 478.08557 
L 832.307063 478.287434 
L 833.299769 477.891564 
L 834.292475 479.030792 
L 835.285181 478.943765 
L 836.277886 479.063415 
L 837.270592 478.194383 
L 838.263298 478.690448 
L 839.256004 478.814341 
L 840.24871 479.054793 
L 841.241416 478.523857 
L 842.234122 479.406867 
L 843.226828 479.060068 
L 844.219534 479.031388 
L 845.21224 479.28474 
L 846.204946 480.731325 
L 847.197652 479.558223 
L 848.190358 479.529617 
L 849.183064 480.142151 
L 850.175769 479.362689 
L 851.168475 479.830186 
L 852.161181 480.483799 
L 854.146593 479.803774 
L 855.139299 481.023657 
L 856.132005 480.43974 
L 857.124711 480.188296 
L 858.117417 480.934987 
L 859.110123 480.110122 
L 860.102829 480.532496 
L 861.095535 480.602584 
L 862.088241 480.156158 
L 863.080946 481.272221 
L 864.073652 480.715904 
L 865.066358 480.805578 
L 866.059064 480.550235 
L 867.05177 480.723376 
L 868.044476 480.541694 
L 869.037182 481.227942 
L 870.029888 481.266228 
L 871.022594 481.470169 
L 872.0153 481.104459 
L 873.008006 480.962186 
L 874.000712 481.037383 
L 874.993418 480.904475 
L 875.986123 481.540692 
L 877.971535 481.280904 
L 878.964241 481.218965 
L 879.956947 480.896929 
L 880.949653 481.839245 
L 882.935065 481.353315 
L 883.927771 480.786308 
L 884.920477 482.290519 
L 885.913183 482.167581 
L 886.905889 481.887713 
L 887.898595 481.914066 
L 889.884006 481.098912 
L 890.876712 482.663962 
L 891.869418 482.426888 
L 892.862124 481.857673 
L 893.85483 482.554903 
L 894.847536 482.404409 
L 895.840242 483.208463 
L 896.832948 482.622848 
L 897.825654 483.075459 
L 898.81836 482.821958 
L 899.811066 482.698555 
L 900.803772 483.127752 
L 901.796477 483.423824 
L 902.789183 482.868699 
L 903.781889 482.521144 
L 904.774595 483.176054 
L 906.760007 483.066767 
L 907.752713 483.780702 
L 908.745419 482.8873 
L 909.738125 483.603069 
L 910.730831 484.123614 
L 911.723537 483.194074 
L 912.716243 483.361551 
L 913.708949 483.368773 
L 914.701655 483.795983 
L 915.69436 482.652842 
L 916.687066 483.790015 
L 917.679772 483.718175 
L 918.672478 483.773084 
L 919.665184 483.358861 
L 920.65789 483.334674 
L 921.650596 483.686603 
L 923.636008 483.066559 
L 924.628714 484.235735 
L 925.62142 483.617057 
L 926.614126 484.232802 
L 927.606832 483.436948 
L 928.599537 483.469797 
L 929.592243 483.615724 
L 930.584949 483.561336 
L 931.577655 485.19413 
L 932.570361 484.419429 
L 933.563067 483.379801 
L 934.555773 484.621393 
L 935.548479 484.555646 
L 936.541185 484.20795 
L 937.533891 485.098426 
L 938.526597 484.731056 
L 939.519303 484.91008 
L 940.512009 485.431614 
L 941.504714 485.459413 
L 942.49742 484.443971 
L 943.490126 484.75966 
L 944.482832 484.683295 
L 945.475538 484.353614 
L 946.468244 484.700388 
L 947.46095 484.365487 
L 948.453656 484.262429 
L 949.446362 485.547649 
L 950.439068 484.819741 
L 951.431774 484.668518 
L 952.42448 485.484348 
L 953.417186 485.004205 
L 954.409891 485.023039 
L 957.388009 485.597579 
L 958.380715 485.011573 
L 959.373421 485.102212 
L 960.366127 485.413633 
L 962.351539 484.643468 
L 963.344245 486.339192 
L 964.336951 485.277067 
L 965.329657 485.01954 
L 966.322363 486.158142 
L 967.315068 485.820672 
L 968.307774 485.803693 
L 969.30048 486.157952 
L 970.293186 485.669954 
L 971.285892 485.54209 
L 972.278598 486.053902 
L 973.271304 487.146514 
L 974.26401 485.268931 
L 975.256716 486.473285 
L 977.242128 486.583684 
L 978.234834 486.844466 
L 979.22754 485.021692 
L 980.220246 486.616448 
L 981.212951 486.303195 
L 982.205657 486.353719 
L 983.198363 487.028841 
L 984.191069 486.127375 
L 985.183775 487.140738 
L 986.176481 485.189595 
L 987.169187 486.877773 
L 988.161893 486.447111 
L 989.154599 486.610213 
L 990.147305 487.014419 
L 991.140011 487.134092 
L 992.132717 486.328902 
L 993.125423 486.531972 
L 994.118128 487.702071 
L 996.10354 486.899414 
L 997.096246 487.307334 
L 998.088952 486.990668 
L 999.081658 487.88555 
L 1000.074364 487.061568 
L 1001.06707 487.848421 
L 1002.059776 486.658393 
L 1004.045188 486.791622 
L 1005.037894 486.645731 
L 1006.0306 487.185299 
L 1007.023305 488.015744 
L 1008.016011 487.770645 
L 1010.001423 486.750478 
L 1010.994129 487.101582 
L 1011.986835 487.157043 
L 1012.979541 487.332923 
L 1013.972247 487.673115 
L 1014.964953 487.229679 
L 1015.957659 487.835602 
L 1016.950365 488.133307 
L 1017.943071 487.381996 
L 1018.935777 487.340906 
L 1019.928482 488.152676 
L 1020.921188 487.238571 
L 1021.913894 488.150487 
L 1022.9066 488.036047 
L 1023.899306 488.277151 
L 1024.892012 487.490283 
L 1026.877424 488.226585 
L 1027.87013 488.372715 
L 1028.862836 488.338304 
L 1029.855542 488.078042 
L 1030.848248 487.243966 
L 1032.833659 488.272316 
L 1033.826365 486.818187 
L 1034.819071 488.252841 
L 1035.811777 487.727513 
L 1036.804483 488.368922 
L 1037.797189 488.548246 
L 1038.789895 487.757647 
L 1039.782601 487.680241 
L 1040.775307 488.068509 
L 1041.768013 487.66838 
L 1042.760719 488.115244 
L 1043.753425 489.342836 
L 1044.746131 487.743334 
L 1045.738837 488.425033 
L 1046.731542 488.773747 
L 1047.724248 488.038293 
L 1048.716954 488.443537 
L 1049.70966 489.295222 
L 1050.702366 489.283122 
L 1051.695072 489.644672 
L 1052.687778 487.989448 
L 1054.67319 487.980058 
L 1055.665896 489.375637 
L 1056.658602 489.505786 
L 1057.651308 489.382056 
L 1058.644014 487.930611 
L 1059.636719 488.731902 
L 1060.629425 489.089227 
L 1061.622131 488.995466 
L 1062.614837 488.360184 
L 1063.607543 488.28414 
L 1064.600249 489.714736 
L 1065.592955 488.789354 
L 1067.578367 488.733228 
L 1068.571073 488.894918 
L 1069.563779 489.57668 
L 1070.556485 488.505094 
L 1071.549191 489.886114 
L 1072.541896 488.98392 
L 1073.534602 489.352167 
L 1074.527308 490.162225 
L 1075.520014 488.463464 
L 1076.51272 488.994731 
L 1077.505426 489.230276 
L 1078.498132 489.821196 
L 1080.483544 489.446836 
L 1081.47625 489.682054 
L 1082.468956 488.779222 
L 1083.461662 488.625317 
L 1084.454368 489.997567 
L 1086.439779 488.657308 
L 1087.432485 489.80623 
L 1089.417897 489.800534 
L 1090.410603 489.238712 
L 1091.403309 489.958992 
L 1092.396015 489.99198 
L 1093.388721 489.47261 
L 1094.381427 489.705967 
L 1095.374133 488.486885 
L 1096.366839 488.601955 
L 1098.35225 490.529548 
L 1099.344956 489.504575 
L 1100.337662 489.93761 
L 1101.330368 489.403376 
L 1102.323074 490.095623 
L 1103.31578 489.753334 
L 1104.308486 490.317248 
L 1105.301192 490.029787 
L 1106.293898 490.166482 
L 1107.286604 489.853652 
L 1108.27931 490.563041 
L 1109.272016 490.530746 
L 1110.264722 489.795054 
L 1111.257428 490.414996 
L 1112.250133 489.762006 
L 1113.242839 489.485893 
L 1114.235545 489.386387 
L 1115.228251 489.779349 
L 1116.220957 489.530334 
L 1117.213663 490.21634 
L 1118.206369 489.631594 
L 1119.199075 490.143772 
L 1120.191781 489.99997 
L 1121.184487 489.551475 
L 1122.177193 489.810824 
L 1123.169899 489.9321 
L 1124.162605 490.680197 
L 1126.148016 490.017351 
L 1127.140722 491.068493 
L 1128.133428 490.311517 
L 1129.126134 490.588829 
L 1130.11884 490.479794 
L 1131.111546 490.098092 
L 1132.104252 490.369736 
L 1133.096958 488.71431 
L 1134.089664 489.866411 
L 1135.08237 490.117867 
L 1136.075076 490.781468 
L 1137.067782 491.28776 
L 1138.060487 490.690978 
L 1139.053193 490.818831 
L 1140.045899 489.954367 
L 1141.038605 490.600226 
L 1142.031311 490.02504 
L 1143.024017 490.260662 
L 1144.016723 489.885794 
L 1145.009429 490.376079 
L 1146.994841 489.560315 
L 1147.987547 491.509292 
L 1148.980253 490.753378 
L 1149.972959 491.12201 
L 1150.965664 490.164089 
L 1152.951076 490.583768 
L 1153.943782 490.619844 
L 1154.936488 490.512688 
L 1155.929194 490.27995 
L 1156.9219 491.457235 
L 1157.914606 490.597457 
L 1158.907312 490.745408 
L 1159.900018 491.536583 
L 1160.892724 491.335028 
L 1161.88543 490.482142 
L 1162.878136 490.649951 
L 1163.870841 490.972971 
L 1164.863547 490.59481 
L 1165.856253 492.006487 
L 1167.841665 489.989674 
L 1168.834371 490.125394 
L 1169.827077 491.915965 
L 1170.819783 490.793258 
L 1171.812489 491.193354 
L 1172.805195 490.50416 
L 1173.797901 491.019857 
L 1174.790607 490.663162 
L 1175.783313 490.095077 
L 1177.768724 491.281582 
L 1178.76143 490.597052 
L 1179.754136 490.868769 
L 1180.746842 490.33892 
L 1181.739548 491.013752 
L 1182.732254 490.890221 
L 1183.72496 491.803354 
L 1184.717666 491.042178 
L 1187.695784 490.692811 
L 1188.68849 491.04706 
L 1189.681196 490.467521 
L 1190.673901 490.865237 
L 1191.666607 491.555001 
L 1192.659313 491.342619 
L 1193.652019 491.555368 
L 1194.644725 491.411659 
L 1195.637431 490.661132 
L 1196.630137 491.113619 
L 1197.622843 490.718134 
L 1198.615549 491.422475 
L 1199.608255 490.882158 
L 1200.600961 491.691297 
L 1201.593667 491.016621 
L 1202.586373 491.20878 
L 1203.579078 491.899446 
L 1204.571784 490.44697 
L 1205.56449 491.537511 
L 1206.557196 491.348286 
L 1207.549902 491.029139 
L 1208.542608 490.974268 
L 1210.52802 491.619653 
L 1212.513432 491.478619 
L 1213.506138 491.580506 
L 1214.498844 491.45619 
L 1215.49155 490.472063 
L 1216.484255 490.638123 
L 1217.476961 491.285206 
L 1218.469667 490.346797 
L 1219.462373 490.363044 
L 1220.455079 490.788307 
L 1221.447785 492.48 
L 1222.440491 491.72899 
L 1223.433197 490.7924 
L 1224.425903 490.934445 
L 1225.418609 490.426317 
L 1226.411315 491.931147 
L 1227.404021 491.17752 
L 1228.396727 491.54459 
L 1229.389432 491.469054 
L 1230.382138 491.20963 
L 1231.374844 490.643733 
L 1232.36755 490.596002 
L 1233.360256 491.191406 
L 1234.352962 491.604013 
L 1235.345668 490.546101 
L 1236.338374 491.775065 
L 1238.323786 491.167979 
L 1239.316492 491.313627 
L 1240.309198 491.00382 
L 1241.301904 491.524712 
L 1242.29461 489.974342 
L 1243.287315 490.684197 
L 1244.280021 491.745797 
L 1245.272727 491.310936 
L 1245.272727 491.310936 
" clip-path="url(#pd7130d27b6)" style="fill: none; stroke: #1f77b4; stroke-width: 1.5; stroke-linecap: square"/>
   </g>
   <g id="patch_3">
    <path d="M 180 512.64 
L 180 69.12 
" style="fill: none; stroke: #000000; stroke-width: 0.8; stroke-linejoin: miter; stroke-linecap: square"/>
   </g>
   <g id="patch_4">
    <path d="M 1296 512.64 
L 1296 69.12 
" style="fill: none; stroke: #000000; stroke-width: 0.8; stroke-linejoin: miter; stroke-linecap: square"/>
   </g>
   <g id="patch_5">
    <path d="M 180 512.64 
L 1296 512.64 
" style="fill: none; stroke: #000000; stroke-width: 0.8; stroke-linejoin: miter; stroke-linecap: square"/>
   </g>
   <g id="patch_6">
    <path d="M 180 69.12 
L 1296 69.12 
" style="fill: none; stroke: #000000; stroke-width: 0.8; stroke-linejoin: miter; stroke-linecap: square"/>
   </g>
   <g id="text_15">
    <!-- source18-receiver19 -->
    <g transform="translate(532.175 60.80125) scale(0.4 -0.4)">
     <defs>
      <path id="DejaVuSans-73" d="M 2834 3397 
L 2834 2853 
Q 2591 2978 2328 3040 
Q 2066 3103 1784 3103 
Q 1356 3103 1142 2972 
Q 928 2841 928 2578 
Q 928 2378 1081 2264 
Q 1234 2150 1697 2047 
L 1894 2003 
Q 2506 1872 2764 1633 
Q 3022 1394 3022 966 
Q 3022 478 2636 193 
Q 2250 -91 1575 -91 
Q 1294 -91 989 -36 
Q 684 19 347 128 
L 347 722 
Q 666 556 975 473 
Q 1284 391 1588 391 
Q 1994 391 2212 530 
Q 2431 669 2431 922 
Q 2431 1156 2273 1281 
Q 2116 1406 1581 1522 
L 1381 1569 
Q 847 1681 609 1914 
Q 372 2147 372 2553 
Q 372 3047 722 3315 
Q 1072 3584 1716 3584 
Q 2034 3584 2315 3537 
Q 2597 3491 2834 3397 
z
" transform="scale(0.015625)"/>
      <path id="DejaVuSans-6f" d="M 1959 3097 
Q 1497 3097 1228 2736 
Q 959 2375 959 1747 
Q 959 1119 1226 758 
Q 1494 397 1959 397 
Q 2419 397 2687 759 
Q 2956 1122 2956 1747 
Q 2956 2369 2687 2733 
Q 2419 3097 1959 3097 
z
M 1959 3584 
Q 2709 3584 3137 3096 
Q 3566 2609 3566 1747 
Q 3566 888 3137 398 
Q 2709 -91 1959 -91 
Q 1206 -91 779 398 
Q 353 888 353 1747 
Q 353 2609 779 3096 
Q 1206 3584 1959 3584 
z
" transform="scale(0.015625)"/>
      <path id="DejaVuSans-75" d="M 544 1381 
L 544 3500 
L 1119 3500 
L 1119 1403 
Q 1119 906 1312 657 
Q 1506 409 1894 409 
Q 2359 409 2629 706 
Q 2900 1003 2900 1516 
L 2900 3500 
L 3475 3500 
L 3475 0 
L 2900 0 
L 2900 538 
Q 2691 219 2414 64 
Q 2138 -91 1772 -91 
Q 1169 -91 856 284 
Q 544 659 544 1381 
z
M 1991 3584 
L 1991 3584 
z
" transform="scale(0.015625)"/>
      <path id="DejaVuSans-72" d="M 2631 2963 
Q 2534 3019 2420 3045 
Q 2306 3072 2169 3072 
Q 1681 3072 1420 2755 
Q 1159 2438 1159 1844 
L 1159 0 
L 581 0 
L 581 3500 
L 1159 3500 
L 1159 2956 
Q 1341 3275 1631 3429 
Q 1922 3584 2338 3584 
Q 2397 3584 2469 3576 
Q 2541 3569 2628 3553 
L 2631 2963 
z
" transform="scale(0.015625)"/>
      <path id="DejaVuSans-63" d="M 3122 3366 
L 3122 2828 
Q 2878 2963 2633 3030 
Q 2388 3097 2138 3097 
Q 1578 3097 1268 2742 
Q 959 2388 959 1747 
Q 959 1106 1268 751 
Q 1578 397 2138 397 
Q 2388 397 2633 464 
Q 2878 531 3122 666 
L 3122 134 
Q 2881 22 2623 -34 
Q 2366 -91 2075 -91 
Q 1284 -91 818 406 
Q 353 903 353 1747 
Q 353 2603 823 3093 
Q 1294 3584 2113 3584 
Q 2378 3584 2631 3529 
Q 2884 3475 3122 3366 
z
" transform="scale(0.015625)"/>
      <path id="DejaVuSans-65" d="M 3597 1894 
L 3597 1613 
L 953 1613 
Q 991 1019 1311 708 
Q 1631 397 2203 397 
Q 2534 397 2845 478 
Q 3156 559 3463 722 
L 3463 178 
Q 3153 47 2828 -22 
Q 2503 -91 2169 -91 
Q 1331 -91 842 396 
Q 353 884 353 1716 
Q 353 2575 817 3079 
Q 1281 3584 2069 3584 
Q 2775 3584 3186 3129 
Q 3597 2675 3597 1894 
z
M 3022 2063 
Q 3016 2534 2758 2815 
Q 2500 3097 2075 3097 
Q 1594 3097 1305 2825 
Q 1016 2553 972 2059 
L 3022 2063 
z
" transform="scale(0.015625)"/>
      <path id="DejaVuSans-38" d="M 2034 2216 
Q 1584 2216 1326 1975 
Q 1069 1734 1069 1313 
Q 1069 891 1326 650 
Q 1584 409 2034 409 
Q 2484 409 2743 651 
Q 3003 894 3003 1313 
Q 3003 1734 2745 1975 
Q 2488 2216 2034 2216 
z
M 1403 2484 
Q 997 2584 770 2862 
Q 544 3141 544 3541 
Q 544 4100 942 4425 
Q 1341 4750 2034 4750 
Q 2731 4750 3128 4425 
Q 3525 4100 3525 3541 
Q 3525 3141 3298 2862 
Q 3072 2584 2669 2484 
Q 3125 2378 3379 2068 
Q 3634 1759 3634 1313 
Q 3634 634 3220 271 
Q 2806 -91 2034 -91 
Q 1263 -91 848 271 
Q 434 634 434 1313 
Q 434 1759 690 2068 
Q 947 2378 1403 2484 
z
M 1172 3481 
Q 1172 3119 1398 2916 
Q 1625 2713 2034 2713 
Q 2441 2713 2670 2916 
Q 2900 3119 2900 3481 
Q 2900 3844 2670 4047 
Q 2441 4250 2034 4250 
Q 1625 4250 1398 4047 
Q 1172 3844 1172 3481 
z
" transform="scale(0.015625)"/>
      <path id="DejaVuSans-2d" d="M 313 2009 
L 1997 2009 
L 1997 1497 
L 313 1497 
L 313 2009 
z
" transform="scale(0.015625)"/>
      <path id="DejaVuSans-69" d="M 603 3500 
L 1178 3500 
L 1178 0 
L 603 0 
L 603 3500 
z
M 603 4863 
L 1178 4863 
L 1178 4134 
L 603 4134 
L 603 4863 
z
" transform="scale(0.015625)"/>
      <path id="DejaVuSans-76" d="M 191 3500 
L 800 3500 
L 1894 563 
L 2988 3500 
L 3597 3500 
L 2284 0 
L 1503 0 
L 191 3500 
z
" transform="scale(0.015625)"/>
      <path id="DejaVuSans-39" d="M 703 97 
L 703 672 
Q 941 559 1184 500 
Q 1428 441 1663 441 
Q 2288 441 2617 861 
Q 2947 1281 2994 2138 
Q 2813 1869 2534 1725 
Q 2256 1581 1919 1581 
Q 1219 1581 811 2004 
Q 403 2428 403 3163 
Q 403 3881 828 4315 
Q 1253 4750 1959 4750 
Q 2769 4750 3195 4129 
Q 3622 3509 3622 2328 
Q 3622 1225 3098 567 
Q 2575 -91 1691 -91 
Q 1453 -91 1209 -44 
Q 966 3 703 97 
z
M 1959 2075 
Q 2384 2075 2632 2365 
Q 2881 2656 2881 3163 
Q 2881 3666 2632 3958 
Q 2384 4250 1959 4250 
Q 1534 4250 1286 3958 
Q 1038 3666 1038 3163 
Q 1038 2656 1286 2365 
Q 1534 2075 1959 2075 
z
" transform="scale(0.015625)"/>
     </defs>
     <use xlink:href="#DejaVuSans-73"/>
     <use xlink:href="#DejaVuSans-6f" x="52.099609"/>
     <use xlink:href="#DejaVuSans-75" x="113.28125"/>
     <use xlink:href="#DejaVuSans-72" x="176.660156"/>
     <use xlink:href="#DejaVuSans-63" x="215.523438"/>
     <use xlink:href="#DejaVuSans-65" x="270.503906"/>
     <use xlink:href="#DejaVuSans-31" x="332.027344"/>
     <use xlink:href="#DejaVuSans-38" x="395.650391"/>
     <use xlink:href="#DejaVuSans-2d" x="459.273438"/>
     <use xlink:href="#DejaVuSans-72" x="495.357422"/>
     <use xlink:href="#DejaVuSans-65" x="534.220703"/>
     <use xlink:href="#DejaVuSans-63" x="595.744141"/>
     <use xlink:href="#DejaVuSans-65" x="650.724609"/>
     <use xlink:href="#DejaVuSans-69" x="712.248047"/>
     <use xlink:href="#DejaVuSans-76" x="740.03125"/>
     <use xlink:href="#DejaVuSans-65" x="799.210938"/>
     <use xlink:href="#DejaVuSans-72" x="860.734375"/>
     <use xlink:href="#DejaVuSans-31" x="901.847656"/>
     <use xlink:href="#DejaVuSans-39" x="965.470703"/>
    </g>
   </g>
  </g>
 </g>
 <defs>
  <clipPath id="pd7130d27b6">
   <rect x="180" y="69.12" width="1116" height="443.52"/>
  </clipPath>
 </defs>
</svg>
