<?xml version="1.0" encoding="utf-8" standalone="no"?>
<!DOCTYPE svg PUBLIC "-//W3C//DTD SVG 1.1//EN"
  "http://www.w3.org/Graphics/SVG/1.1/DTD/svg11.dtd">
<svg xmlns:xlink="http://www.w3.org/1999/xlink" width="1440pt" height="576pt" viewBox="0 0 1440 576" xmlns="http://www.w3.org/2000/svg" version="1.1">
 <metadata>
  <rdf:RDF xmlns:dc="http://purl.org/dc/elements/1.1/" xmlns:cc="http://creativecommons.org/ns#" xmlns:rdf="http://www.w3.org/1999/02/22-rdf-syntax-ns#">
   <cc:Work>
    <dc:type rdf:resource="http://purl.org/dc/dcmitype/StillImage"/>
    <dc:date>2024-05-22T04:50:14.553964</dc:date>
    <dc:format>image/svg+xml</dc:format>
    <dc:creator>
     <cc:Agent>
      <dc:title>Matplotlib v3.8.3, https://matplotlib.org/</dc:title>
     </cc:Agent>
    </dc:creator>
   </cc:Work>
  </rdf:RDF>
 </metadata>
 <defs>
  <style type="text/css">*{stroke-linejoin: round; stroke-linecap: butt}</style>
 </defs>
 <g id="figure_1">
  <g id="patch_1">
   <path d="M 0 576 
L 1440 576 
L 1440 0 
L 0 0 
z
" style="fill: #ffffff"/>
  </g>
  <g id="axes_1">
   <g id="patch_2">
    <path d="M 180 512.64 
L 1296 512.64 
L 1296 69.12 
L 180 69.12 
z
" style="fill: #ffffff"/>
   </g>
   <g id="matplotlib.axis_1">
    <g id="xtick_1">
     <g id="line2d_1">
      <defs>
       <path id="ma94017ff3d" d="M 0 0 
L 0 3.5 
" style="stroke: #000000; stroke-width: 0.8"/>
      </defs>
      <g>
       <use xlink:href="#ma94017ff3d" x="229.734567" y="512.64" style="stroke: #000000; stroke-width: 0.8"/>
      </g>
     </g>
     <g id="text_1">
      <!-- 0 -->
      <g transform="translate(226.553317 527.238438) scale(0.1 -0.1)">
       <defs>
        <path id="DejaVuSans-30" d="M 2034 4250 
Q 1547 4250 1301 3770 
Q 1056 3291 1056 2328 
Q 1056 1369 1301 889 
Q 1547 409 2034 409 
Q 2525 409 2770 889 
Q 3016 1369 3016 2328 
Q 3016 3291 2770 3770 
Q 2525 4250 2034 4250 
z
M 2034 4750 
Q 2819 4750 3233 4129 
Q 3647 3509 3647 2328 
Q 3647 1150 3233 529 
Q 2819 -91 2034 -91 
Q 1250 -91 836 529 
Q 422 1150 422 2328 
Q 422 3509 836 4129 
Q 1250 4750 2034 4750 
z
" transform="scale(0.015625)"/>
       </defs>
       <use xlink:href="#DejaVuSans-30"/>
      </g>
     </g>
    </g>
    <g id="xtick_2">
     <g id="line2d_2">
      <g>
       <use xlink:href="#ma94017ff3d" x="433.04074" y="512.64" style="stroke: #000000; stroke-width: 0.8"/>
      </g>
     </g>
     <g id="text_2">
      <!-- 500 -->
      <g transform="translate(423.49699 527.238438) scale(0.1 -0.1)">
       <defs>
        <path id="DejaVuSans-35" d="M 691 4666 
L 3169 4666 
L 3169 4134 
L 1269 4134 
L 1269 2991 
Q 1406 3038 1543 3061 
Q 1681 3084 1819 3084 
Q 2600 3084 3056 2656 
Q 3513 2228 3513 1497 
Q 3513 744 3044 326 
Q 2575 -91 1722 -91 
Q 1428 -91 1123 -41 
Q 819 9 494 109 
L 494 744 
Q 775 591 1075 516 
Q 1375 441 1709 441 
Q 2250 441 2565 725 
Q 2881 1009 2881 1497 
Q 2881 1984 2565 2268 
Q 2250 2553 1709 2553 
Q 1456 2553 1204 2497 
Q 953 2441 691 2322 
L 691 4666 
z
" transform="scale(0.015625)"/>
       </defs>
       <use xlink:href="#DejaVuSans-35"/>
       <use xlink:href="#DejaVuSans-30" x="63.623047"/>
       <use xlink:href="#DejaVuSans-30" x="127.246094"/>
      </g>
     </g>
    </g>
    <g id="xtick_3">
     <g id="line2d_3">
      <g>
       <use xlink:href="#ma94017ff3d" x="636.346913" y="512.64" style="stroke: #000000; stroke-width: 0.8"/>
      </g>
     </g>
     <g id="text_3">
      <!-- 1000 -->
      <g transform="translate(623.621913 527.238438) scale(0.1 -0.1)">
       <defs>
        <path id="DejaVuSans-31" d="M 794 531 
L 1825 531 
L 1825 4091 
L 703 3866 
L 703 4441 
L 1819 4666 
L 2450 4666 
L 2450 531 
L 3481 531 
L 3481 0 
L 794 0 
L 794 531 
z
" transform="scale(0.015625)"/>
       </defs>
       <use xlink:href="#DejaVuSans-31"/>
       <use xlink:href="#DejaVuSans-30" x="63.623047"/>
       <use xlink:href="#DejaVuSans-30" x="127.246094"/>
       <use xlink:href="#DejaVuSans-30" x="190.869141"/>
      </g>
     </g>
    </g>
    <g id="xtick_4">
     <g id="line2d_4">
      <g>
       <use xlink:href="#ma94017ff3d" x="839.653087" y="512.64" style="stroke: #000000; stroke-width: 0.8"/>
      </g>
     </g>
     <g id="text_4">
      <!-- 1500 -->
      <g transform="translate(826.928087 527.238438) scale(0.1 -0.1)">
       <use xlink:href="#DejaVuSans-31"/>
       <use xlink:href="#DejaVuSans-35" x="63.623047"/>
       <use xlink:href="#DejaVuSans-30" x="127.246094"/>
       <use xlink:href="#DejaVuSans-30" x="190.869141"/>
      </g>
     </g>
    </g>
    <g id="xtick_5">
     <g id="line2d_5">
      <g>
       <use xlink:href="#ma94017ff3d" x="1042.95926" y="512.64" style="stroke: #000000; stroke-width: 0.8"/>
      </g>
     </g>
     <g id="text_5">
      <!-- 2000 -->
      <g transform="translate(1030.23426 527.238438) scale(0.1 -0.1)">
       <defs>
        <path id="DejaVuSans-32" d="M 1228 531 
L 3431 531 
L 3431 0 
L 469 0 
L 469 531 
Q 828 903 1448 1529 
Q 2069 2156 2228 2338 
Q 2531 2678 2651 2914 
Q 2772 3150 2772 3378 
Q 2772 3750 2511 3984 
Q 2250 4219 1831 4219 
Q 1534 4219 1204 4116 
Q 875 4013 500 3803 
L 500 4441 
Q 881 4594 1212 4672 
Q 1544 4750 1819 4750 
Q 2544 4750 2975 4387 
Q 3406 4025 3406 3419 
Q 3406 3131 3298 2873 
Q 3191 2616 2906 2266 
Q 2828 2175 2409 1742 
Q 1991 1309 1228 531 
z
" transform="scale(0.015625)"/>
       </defs>
       <use xlink:href="#DejaVuSans-32"/>
       <use xlink:href="#DejaVuSans-30" x="63.623047"/>
       <use xlink:href="#DejaVuSans-30" x="127.246094"/>
       <use xlink:href="#DejaVuSans-30" x="190.869141"/>
      </g>
     </g>
    </g>
    <g id="xtick_6">
     <g id="line2d_6">
      <g>
       <use xlink:href="#ma94017ff3d" x="1246.265433" y="512.64" style="stroke: #000000; stroke-width: 0.8"/>
      </g>
     </g>
     <g id="text_6">
      <!-- 2500 -->
      <g transform="translate(1233.540433 527.238438) scale(0.1 -0.1)">
       <use xlink:href="#DejaVuSans-32"/>
       <use xlink:href="#DejaVuSans-35" x="63.623047"/>
       <use xlink:href="#DejaVuSans-30" x="127.246094"/>
       <use xlink:href="#DejaVuSans-30" x="190.869141"/>
      </g>
     </g>
    </g>
   </g>
   <g id="matplotlib.axis_2">
    <g id="ytick_1">
     <g id="line2d_7">
      <defs>
       <path id="meae8c43c17" d="M 0 0 
L -3.5 0 
" style="stroke: #000000; stroke-width: 0.8"/>
      </defs>
      <g>
       <use xlink:href="#meae8c43c17" x="180" y="488.427779" style="stroke: #000000; stroke-width: 0.8"/>
      </g>
     </g>
     <g id="text_7">
      <!-- −6 -->
      <g transform="translate(158.257812 492.226998) scale(0.1 -0.1)">
       <defs>
        <path id="DejaVuSans-2212" d="M 678 2272 
L 4684 2272 
L 4684 1741 
L 678 1741 
L 678 2272 
z
" transform="scale(0.015625)"/>
        <path id="DejaVuSans-36" d="M 2113 2584 
Q 1688 2584 1439 2293 
Q 1191 2003 1191 1497 
Q 1191 994 1439 701 
Q 1688 409 2113 409 
Q 2538 409 2786 701 
Q 3034 994 3034 1497 
Q 3034 2003 2786 2293 
Q 2538 2584 2113 2584 
z
M 3366 4563 
L 3366 3988 
Q 3128 4100 2886 4159 
Q 2644 4219 2406 4219 
Q 1781 4219 1451 3797 
Q 1122 3375 1075 2522 
Q 1259 2794 1537 2939 
Q 1816 3084 2150 3084 
Q 2853 3084 3261 2657 
Q 3669 2231 3669 1497 
Q 3669 778 3244 343 
Q 2819 -91 2113 -91 
Q 1303 -91 875 529 
Q 447 1150 447 2328 
Q 447 3434 972 4092 
Q 1497 4750 2381 4750 
Q 2619 4750 2861 4703 
Q 3103 4656 3366 4563 
z
" transform="scale(0.015625)"/>
       </defs>
       <use xlink:href="#DejaVuSans-2212"/>
       <use xlink:href="#DejaVuSans-36" x="83.789062"/>
      </g>
     </g>
    </g>
    <g id="ytick_2">
     <g id="line2d_8">
      <g>
       <use xlink:href="#meae8c43c17" x="180" y="409.885771" style="stroke: #000000; stroke-width: 0.8"/>
      </g>
     </g>
     <g id="text_8">
      <!-- −4 -->
      <g transform="translate(158.257812 413.684989) scale(0.1 -0.1)">
       <defs>
        <path id="DejaVuSans-34" d="M 2419 4116 
L 825 1625 
L 2419 1625 
L 2419 4116 
z
M 2253 4666 
L 3047 4666 
L 3047 1625 
L 3713 1625 
L 3713 1100 
L 3047 1100 
L 3047 0 
L 2419 0 
L 2419 1100 
L 313 1100 
L 313 1709 
L 2253 4666 
z
" transform="scale(0.015625)"/>
       </defs>
       <use xlink:href="#DejaVuSans-2212"/>
       <use xlink:href="#DejaVuSans-34" x="83.789062"/>
      </g>
     </g>
    </g>
    <g id="ytick_3">
     <g id="line2d_9">
      <g>
       <use xlink:href="#meae8c43c17" x="180" y="331.343762" style="stroke: #000000; stroke-width: 0.8"/>
      </g>
     </g>
     <g id="text_9">
      <!-- −2 -->
      <g transform="translate(158.257812 335.14298) scale(0.1 -0.1)">
       <use xlink:href="#DejaVuSans-2212"/>
       <use xlink:href="#DejaVuSans-32" x="83.789062"/>
      </g>
     </g>
    </g>
    <g id="ytick_4">
     <g id="line2d_10">
      <g>
       <use xlink:href="#meae8c43c17" x="180" y="252.801753" style="stroke: #000000; stroke-width: 0.8"/>
      </g>
     </g>
     <g id="text_10">
      <!-- 0 -->
      <g transform="translate(166.6375 256.600972) scale(0.1 -0.1)">
       <use xlink:href="#DejaVuSans-30"/>
      </g>
     </g>
    </g>
    <g id="ytick_5">
     <g id="line2d_11">
      <g>
       <use xlink:href="#meae8c43c17" x="180" y="174.259744" style="stroke: #000000; stroke-width: 0.8"/>
      </g>
     </g>
     <g id="text_11">
      <!-- 2 -->
      <g transform="translate(166.6375 178.058963) scale(0.1 -0.1)">
       <use xlink:href="#DejaVuSans-32"/>
      </g>
     </g>
    </g>
    <g id="ytick_6">
     <g id="line2d_12">
      <g>
       <use xlink:href="#meae8c43c17" x="180" y="95.717735" style="stroke: #000000; stroke-width: 0.8"/>
      </g>
     </g>
     <g id="text_12">
      <!-- 4 -->
      <g transform="translate(166.6375 99.516954) scale(0.1 -0.1)">
       <use xlink:href="#DejaVuSans-34"/>
      </g>
     </g>
    </g>
   </g>
   <g id="line2d_13">
    <path d="M 230.727273 192.811813 
L 231.719979 192.503889 
L 232.712685 191.965187 
L 234.698096 190.488777 
L 239.661626 186.410856 
L 241.647038 184.91776 
L 242.639744 184.317122 
L 243.63245 183.980652 
L 244.625156 184.209191 
L 246.610568 186.00038 
L 247.603273 182.888909 
L 248.595979 171.937873 
L 249.588685 157.651864 
L 250.581391 145.919946 
L 251.574097 138.237042 
L 252.566803 133.795568 
L 253.559509 131.384749 
L 254.552215 130.079251 
L 255.544921 129.382263 
L 256.537627 129.018036 
L 260.50845 128.118876 
L 261.501156 127.711557 
L 262.493862 127.154349 
L 263.486568 126.46279 
L 265.47198 124.692621 
L 270.43551 119.841 
L 271.428216 119.128052 
L 272.420922 118.606134 
L 273.413627 118.307397 
L 274.406333 118.303732 
L 275.399039 118.676274 
L 276.391745 119.455355 
L 277.384451 120.682416 
L 278.377157 122.17341 
L 279.369863 123.176239 
L 280.362569 122.713006 
L 281.355275 120.5921 
L 282.347981 117.172732 
L 283.340687 112.86425 
L 286.318804 98.538631 
L 287.31151 94.681838 
L 288.304216 91.794587 
L 289.296922 90.00623 
L 290.289628 89.28 
L 291.282334 89.483597 
L 292.27504 90.457007 
L 293.267746 92.042825 
L 294.260452 94.069373 
L 296.245864 98.973865 
L 298.231276 104.829044 
L 300.216687 111.485972 
L 306.172923 132.976645 
L 307.165629 135.973257 
L 308.158335 138.598368 
L 309.151041 140.785458 
L 310.143747 142.597146 
L 311.136453 144.116309 
L 315.107276 149.250746 
L 316.099982 150.861007 
L 317.092688 152.751255 
L 318.085394 154.993742 
L 319.0781 157.653601 
L 320.070806 160.707012 
L 322.056218 168.037274 
L 324.04163 175.867106 
L 325.034336 178.953338 
L 326.027041 180.530646 
L 327.019747 180.165972 
L 328.012453 177.995668 
L 329.005159 174.624774 
L 331.983277 163.386044 
L 332.975983 160.23185 
L 333.968689 157.540868 
L 334.961395 155.315889 
L 335.954101 153.522531 
L 336.946807 152.131007 
L 337.939513 151.177031 
L 338.932218 150.562234 
L 339.924924 150.28616 
L 340.91763 150.342202 
L 341.910336 150.70008 
L 342.903042 151.28487 
L 343.895748 152.10282 
L 345.88116 154.23829 
L 347.866572 156.513994 
L 349.851984 158.307181 
L 350.84469 158.851468 
L 351.837395 159.208809 
L 352.830101 158.964122 
L 353.822807 158.575331 
L 354.815513 157.98904 
L 358.786337 155.153214 
L 359.779043 154.687258 
L 360.771749 154.439794 
L 361.764455 154.42265 
L 362.757161 154.680695 
L 363.749867 155.26517 
L 364.742572 156.157117 
L 365.735278 157.405402 
L 366.727984 159.027945 
L 367.72069 161.078127 
L 368.713396 163.588448 
L 369.706102 166.56679 
L 370.698808 170.058831 
L 371.691514 174.157974 
L 372.68422 178.8636 
L 373.676926 184.335534 
L 374.669632 190.501924 
L 376.655044 204.326664 
L 377.64775 210.112532 
L 378.640455 212.483593 
L 379.633161 210.460798 
L 380.625867 205.485497 
L 382.611279 194.097818 
L 383.603985 189.250607 
L 384.596691 185.102087 
L 385.589397 181.677408 
L 386.582103 178.903112 
L 387.574809 176.643973 
L 388.567515 174.878683 
L 389.560221 173.526211 
L 390.552927 172.537461 
L 391.545632 171.890385 
L 392.538338 171.544642 
L 393.531044 171.392616 
L 394.52375 171.448311 
L 395.516456 171.637053 
L 397.501868 172.363021 
L 401.472692 173.97985 
L 403.458104 174.643341 
L 407.428927 175.731887 
L 409.414339 176.624982 
L 411.399751 177.979004 
L 413.385163 179.917961 
L 415.370575 182.640496 
L 417.355986 186.189733 
L 419.341398 190.614763 
L 421.32681 195.945835 
L 423.312222 201.933707 
L 428.275752 217.92505 
L 429.268458 220.390958 
L 430.261163 222.500998 
L 431.253869 224.031816 
L 432.246575 224.713993 
L 433.239281 224.623055 
L 434.231987 223.976417 
L 435.224693 222.646404 
L 436.217399 220.924125 
L 438.202811 216.347174 
L 444.159046 201.332926 
L 446.144458 197.18187 
L 448.12987 193.843863 
L 449.122576 192.485403 
L 450.115282 191.351346 
L 451.107988 190.415293 
L 452.100694 189.691256 
L 453.0934 189.226962 
L 454.086106 188.954112 
L 455.078812 188.890134 
L 456.071518 189.013073 
L 457.064223 189.418713 
L 458.056929 189.998801 
L 459.049635 190.799735 
L 460.042341 191.791514 
L 461.035047 192.995599 
L 462.027753 194.438394 
L 464.013165 197.90387 
L 465.998577 202.347205 
L 466.991283 204.889925 
L 467.983989 207.745583 
L 469.9694 214.475523 
L 470.962106 218.37944 
L 471.954812 222.817919 
L 473.940224 233.381757 
L 474.93293 240.362644 
L 475.925636 248.259595 
L 476.918342 257.70566 
L 477.911048 268.899669 
L 478.903754 278.541875 
L 479.89646 280.052395 
L 480.889166 270.701264 
L 482.874577 249.179237 
L 483.867283 240.963236 
L 484.859989 233.987053 
L 485.852695 228.202078 
L 486.845401 223.243725 
L 487.838107 219.027776 
L 488.830813 215.460736 
L 489.823519 212.441897 
L 490.816225 209.809989 
L 491.808931 207.679793 
L 492.801637 205.947087 
L 493.794343 204.622071 
L 494.787049 203.581658 
L 495.779754 202.960567 
L 496.77246 202.634451 
L 497.765166 202.655366 
L 498.757872 203.03653 
L 499.750578 203.717737 
L 500.743284 204.699695 
L 501.73599 206.091797 
L 502.728696 207.800543 
L 503.721402 209.876436 
L 504.714108 212.264695 
L 505.706814 215.111489 
L 506.69952 218.296196 
L 508.684932 225.871353 
L 512.655755 242.965545 
L 513.648461 245.982047 
L 514.641167 247.761232 
L 515.633873 247.674445 
L 516.626579 246.329069 
L 517.619285 244.30426 
L 520.597403 236.81213 
L 522.582814 232.977983 
L 523.57552 231.407565 
L 524.568226 230.158312 
L 525.560932 229.230487 
L 527.546344 227.70742 
L 529.531756 226.775679 
L 532.509874 225.837115 
L 534.495286 225.518893 
L 536.480697 225.671867 
L 537.473403 225.89305 
L 538.466109 226.460811 
L 539.458815 227.287917 
L 540.451521 228.435628 
L 541.444227 229.860403 
L 542.436933 231.817354 
L 543.429639 234.318714 
L 544.422345 237.440749 
L 545.415051 241.385825 
L 546.407757 246.160212 
L 547.400463 252.30894 
L 548.393168 259.673744 
L 550.37858 278.877017 
L 551.371286 285.320087 
L 552.363992 280.702978 
L 554.349404 259.022894 
L 555.34211 249.650322 
L 556.334816 241.955233 
L 557.327522 235.539687 
L 558.320228 230.173124 
L 559.312934 225.571966 
L 560.30564 221.747199 
L 561.298345 218.511036 
L 562.291051 215.796923 
L 563.283757 213.563094 
L 564.276463 211.703508 
L 565.269169 210.375393 
L 566.261875 209.319266 
L 567.254581 208.660275 
L 568.247287 208.337497 
L 569.239993 208.286507 
L 570.232699 208.584185 
L 571.225405 209.167652 
L 572.218111 210.100831 
L 573.210817 211.351038 
L 574.203523 212.901317 
L 575.196228 214.779446 
L 576.188934 216.959773 
L 577.18164 219.486761 
L 579.167052 225.61871 
L 580.159758 229.225127 
L 582.14517 237.80665 
L 584.130582 248.313375 
L 586.115994 261.288365 
L 588.101405 276.646771 
L 591.079523 303.310901 
L 592.072229 308.873179 
L 593.064935 309.20454 
L 594.057641 305.032997 
L 596.043053 292.383909 
L 599.021171 275.168987 
L 600.013877 270.059122 
L 601.999288 261.239942 
L 603.9847 253.469334 
L 605.970112 247.087961 
L 606.962818 244.404249 
L 607.955524 242.122638 
L 609.940936 238.505134 
L 610.933642 237.118972 
L 611.926348 236.09149 
L 612.919054 235.341642 
L 613.911759 234.948194 
L 614.904465 234.8603 
L 615.897171 235.003135 
L 616.889877 235.510381 
L 617.882583 236.236329 
L 618.875289 237.328178 
L 619.867995 238.73189 
L 621.853407 242.497348 
L 623.838819 247.610859 
L 624.831525 250.687513 
L 625.824231 254.223241 
L 627.809642 262.553354 
L 628.802348 267.466905 
L 630.78776 279.247663 
L 631.780466 286.161424 
L 633.765878 303.119216 
L 634.758584 313.134152 
L 636.743996 339.291699 
L 637.736702 352.906407 
L 638.729408 355.890407 
L 640.714819 337.793659 
L 641.707525 328.674509 
L 643.692937 315.410568 
L 644.685643 309.949279 
L 647.663761 296.973336 
L 648.656467 293.09566 
L 650.641879 287.014722 
L 652.627291 282.255004 
L 653.619996 280.218475 
L 654.612702 278.623692 
L 655.605408 277.365168 
L 657.59082 276.019411 
L 658.583526 276.034294 
L 659.576232 276.206247 
L 660.568938 276.630175 
L 662.55435 279.012776 
L 664.539762 282.602324 
L 665.532468 284.91823 
L 666.525173 287.745612 
L 667.517879 290.209499 
L 668.510585 293.149382 
L 669.503291 295.68781 
L 670.495997 297.695912 
L 671.488703 298.774789 
L 672.481409 299.318004 
L 673.474115 298.887051 
L 676.452233 293.49036 
L 677.444939 291.18762 
L 679.43035 287.387144 
L 680.423056 285.971677 
L 681.415762 285.067469 
L 682.408468 284.367733 
L 683.401174 284.181245 
L 684.39388 284.108413 
L 686.379292 285.42054 
L 687.371998 286.589754 
L 688.364704 288.189422 
L 689.35741 290.029018 
L 690.350116 292.519312 
L 692.335527 298.815661 
L 693.328233 302.751293 
L 695.313645 312.658225 
L 698.291763 331.755288 
L 699.284469 338.569079 
L 700.277175 342.711467 
L 701.269881 343.684771 
L 702.262587 340.648542 
L 703.255293 336.589582 
L 704.247999 330.779193 
L 705.240705 326.216573 
L 707.226116 318.66079 
L 708.218822 316.556347 
L 709.211528 313.966569 
L 710.204234 312.465691 
L 711.19694 311.217243 
L 712.189646 310.810896 
L 713.182352 310.569293 
L 714.175058 311.051318 
L 715.167764 312.134725 
L 716.16047 313.459498 
L 717.153176 315.396804 
L 718.145882 318.200141 
L 719.138587 321.604406 
L 720.131293 325.463173 
L 724.102117 344.36022 
L 725.094823 345.089039 
L 726.087529 341.747222 
L 727.080235 336.072136 
L 729.065647 323.160692 
L 730.058353 317.28171 
L 731.051059 312.427597 
L 732.043764 308.146474 
L 734.029176 301.212404 
L 735.021882 298.552247 
L 736.014588 296.274849 
L 737.007294 294.825699 
L 738 293.668142 
L 738.992706 292.804646 
L 739.985412 292.434527 
L 740.978118 292.656963 
L 741.970824 293.33187 
L 742.96353 294.458555 
L 743.956236 295.997475 
L 744.948941 298.095868 
L 745.941647 300.756087 
L 746.934353 303.992498 
L 747.927059 308.030964 
L 749.912471 318.793855 
L 751.897883 331.894813 
L 752.890589 337.029622 
L 753.883295 338.713214 
L 754.876001 335.710067 
L 755.868707 329.831333 
L 757.854118 316.784263 
L 758.846824 311.399546 
L 759.83953 306.805347 
L 760.832236 302.967981 
L 761.824942 299.789698 
L 762.817648 297.376524 
L 763.810354 295.445783 
L 765.795766 293.207095 
L 766.788472 292.845223 
L 767.781178 292.966941 
L 768.773884 293.244 
L 769.76659 294.282119 
L 770.759295 295.638273 
L 771.752001 297.355136 
L 773.737413 302.247863 
L 774.730119 305.373878 
L 776.715531 312.38963 
L 778.700943 318.851804 
L 779.693649 321.198488 
L 780.686355 322.553732 
L 781.679061 322.231839 
L 782.671767 320.909025 
L 783.664473 318.901225 
L 785.649884 314.256128 
L 786.64259 312.201052 
L 787.635296 310.663778 
L 788.628002 309.44409 
L 789.620708 308.729278 
L 790.613414 308.472391 
L 791.60612 308.684528 
L 792.598826 309.49722 
L 793.591532 310.921913 
L 794.584238 312.95455 
L 795.576944 315.487218 
L 796.56965 318.412957 
L 799.547767 329.909958 
L 800.540473 332.661803 
L 801.533179 333.955769 
L 802.525885 332.920568 
L 803.518591 330.286222 
L 804.511297 326.256891 
L 806.496709 317.197209 
L 807.489415 313.029564 
L 808.482121 309.414553 
L 809.474827 306.233725 
L 810.467532 303.855022 
L 811.460238 301.768401 
L 812.452944 300.153865 
L 813.44565 298.93785 
L 814.438356 298.20992 
L 815.431062 297.954266 
L 816.423768 298.288331 
L 817.416474 298.899411 
L 818.40918 300.053259 
L 819.401886 301.653376 
L 820.394592 303.61884 
L 821.387298 306.126661 
L 822.380004 309.339771 
L 823.372709 312.944134 
L 825.358121 322.044583 
L 827.343533 332.4639 
L 828.336239 336.85516 
L 829.328945 338.596418 
L 830.321651 337.795238 
L 831.314357 334.746409 
L 832.307063 330.636045 
L 834.292475 321.273286 
L 835.285181 317.343991 
L 837.270592 311.095141 
L 838.263298 308.568057 
L 839.256004 306.977187 
L 840.24871 305.71138 
L 841.241416 304.931899 
L 842.234122 304.452087 
L 843.226828 304.351297 
L 844.219534 304.556561 
L 845.21224 305.182712 
L 847.197652 307.859924 
L 849.183064 311.831372 
L 851.168475 316.961432 
L 853.153887 323.458838 
L 854.146593 326.451459 
L 855.139299 329.897771 
L 857.124711 335.001665 
L 858.117417 336.140213 
L 859.110123 336.971894 
L 860.102829 336.913077 
L 861.095535 335.965378 
L 862.088241 334.804265 
L 863.080946 333.852428 
L 864.073652 332.633336 
L 866.059064 330.915754 
L 867.05177 330.086163 
L 868.044476 329.81315 
L 870.029888 328.851428 
L 871.022594 328.914555 
L 874.000712 327.67503 
L 875.986123 325.564349 
L 878.964241 321.785613 
L 879.956947 320.284407 
L 880.949653 318.984676 
L 882.935065 317.032155 
L 883.927771 316.115094 
L 885.913183 315.325411 
L 886.905889 315.506886 
L 887.898595 315.956487 
L 888.8913 316.934388 
L 890.876712 319.920354 
L 892.862124 325.485845 
L 893.85483 329.519489 
L 894.847536 334.365899 
L 895.840242 340.778414 
L 896.832948 348.058641 
L 897.825654 358.272489 
L 898.81836 371.133807 
L 899.811066 382.298451 
L 900.803772 382.430642 
L 902.789183 357.497902 
L 903.781889 345.914044 
L 904.774595 337.786805 
L 905.767301 330.894425 
L 906.760007 325.271575 
L 907.752713 320.947672 
L 908.745419 317.267414 
L 909.738125 314.094859 
L 910.730831 311.631431 
L 911.723537 309.70819 
L 912.716243 308.360474 
L 913.708949 307.327817 
L 914.701655 306.73527 
L 915.69436 306.703166 
L 916.687066 307.159999 
L 917.679772 307.794424 
L 918.672478 309.206376 
L 919.665184 310.923414 
L 920.65789 313.18565 
L 921.650596 316.191807 
L 922.643302 319.833755 
L 923.636008 324.43075 
L 924.628714 329.689883 
L 925.62142 336.472687 
L 926.614126 345.211606 
L 927.606832 357.059304 
L 928.599537 373.674614 
L 929.592243 404.229583 
L 930.584949 456.441391 
L 931.577655 391.629683 
L 932.570361 367.001166 
L 933.563067 353.723685 
L 934.555773 343.904668 
L 935.548479 336.445763 
L 936.541185 330.88159 
L 937.533891 326.345974 
L 938.526597 322.774114 
L 939.519303 320.145567 
L 940.512009 318.044441 
L 941.504714 316.718141 
L 942.49742 315.699406 
L 943.490126 315.162174 
L 944.482832 315.413658 
L 945.475538 315.98833 
L 946.468244 316.784927 
L 947.46095 318.348822 
L 948.453656 320.244839 
L 949.446362 322.752286 
L 950.439068 325.852415 
L 951.431774 329.503732 
L 952.42448 333.884065 
L 953.417186 338.916207 
L 954.409891 344.957256 
L 955.402597 352.244904 
L 958.380715 377.403973 
L 959.373421 381.769352 
L 960.366127 377.028651 
L 962.351539 363.024925 
L 964.336951 351.105568 
L 965.329657 346.808992 
L 966.322363 343.762023 
L 968.307774 339.146078 
L 969.30048 337.80026 
L 971.285892 336.87927 
L 972.278598 336.603093 
L 973.271304 337.562852 
L 974.26401 337.684189 
L 975.256716 338.781581 
L 976.249422 339.525312 
L 978.234834 341.751535 
L 979.22754 342.41566 
L 980.220246 343.472883 
L 982.205657 344.159429 
L 983.198363 343.938617 
L 984.191069 343.389679 
L 985.183775 343.364919 
L 986.176481 342.560269 
L 987.169187 342.117238 
L 988.161893 341.390388 
L 989.154599 341.271826 
L 990.147305 341.342708 
L 991.140011 341.772024 
L 992.132717 342.538744 
L 993.125423 344.592152 
L 994.118128 345.79292 
L 995.110834 348.17026 
L 997.096246 354.809249 
L 998.088952 359.403764 
L 999.081658 364.59606 
L 1002.059776 382.511213 
L 1003.052482 384.941288 
L 1004.045188 383.850052 
L 1005.037894 378.950766 
L 1007.023305 365.008999 
L 1008.016011 358.04262 
L 1010.994129 345.243952 
L 1011.986835 342.211514 
L 1012.979541 339.629378 
L 1013.972247 337.729523 
L 1014.964953 336.352767 
L 1015.957659 335.885342 
L 1016.950365 335.167066 
L 1017.943071 335.268666 
L 1018.935777 335.605782 
L 1019.928482 336.616137 
L 1020.921188 337.94012 
L 1021.913894 339.548084 
L 1022.9066 342.093886 
L 1023.899306 345.165037 
L 1025.884718 353.118199 
L 1026.877424 358.489885 
L 1028.862836 372.904741 
L 1029.855542 383.040179 
L 1031.840954 409.783796 
L 1032.833659 416.512909 
L 1033.826365 405.317992 
L 1034.819071 392.203471 
L 1035.811777 381.401088 
L 1036.804483 373.735983 
L 1037.797189 367.795429 
L 1039.782601 359.260381 
L 1040.775307 355.980505 
L 1041.768013 353.970979 
L 1042.760719 352.401522 
L 1044.746131 350.431028 
L 1045.738837 350.484123 
L 1046.731542 350.855644 
L 1048.716954 352.924694 
L 1049.70966 353.415257 
L 1050.702366 354.883131 
L 1051.695072 357.042959 
L 1052.687778 358.676723 
L 1053.680484 361.362706 
L 1054.67319 363.365264 
L 1056.658602 366.502298 
L 1057.651308 366.628348 
L 1058.644014 367.230258 
L 1059.636719 368.182569 
L 1061.622131 368.325057 
L 1062.614837 367.842446 
L 1063.607543 368.007049 
L 1064.600249 368.31821 
L 1065.592955 369.910507 
L 1066.585661 370.942344 
L 1067.578367 372.626174 
L 1068.571073 375.24792 
L 1069.563779 379.144143 
L 1070.556485 383.669614 
L 1071.549191 389.605335 
L 1074.527308 412.267417 
L 1075.520014 416.697822 
L 1076.51272 409.323631 
L 1078.498132 389.416835 
L 1079.490838 380.83137 
L 1082.468956 362.830363 
L 1083.461662 358.622047 
L 1084.454368 355.131986 
L 1086.439779 349.268649 
L 1087.432485 347.895139 
L 1090.410603 344.884554 
L 1091.403309 344.955862 
L 1092.396015 345.528112 
L 1093.388721 346.248693 
L 1094.381427 347.337946 
L 1095.374133 349.498789 
L 1096.366839 351.342377 
L 1097.359545 353.971154 
L 1100.337662 365.983446 
L 1101.330368 370.855896 
L 1103.31578 381.777561 
L 1104.308486 385.078087 
L 1105.301192 386.83864 
L 1106.293898 383.335637 
L 1107.286604 379.193446 
L 1108.27931 373.428623 
L 1109.272016 369.130378 
L 1111.257428 359.317669 
L 1113.242839 352.470187 
L 1114.235545 350.119087 
L 1115.228251 348.570521 
L 1116.220957 346.796487 
L 1117.213663 345.835923 
L 1118.206369 345.093321 
L 1119.199075 344.625443 
L 1121.184487 345.462507 
L 1122.177193 346.329119 
L 1123.169899 347.660114 
L 1125.15531 351.035024 
L 1127.140722 356.97939 
L 1129.126134 364.886583 
L 1130.11884 369.787512 
L 1131.111546 374.119138 
L 1133.096958 386.792272 
L 1134.089664 391.988309 
L 1135.08237 395.526502 
L 1136.075076 397.876416 
L 1137.067782 397.198036 
L 1138.060487 391.99409 
L 1140.045899 383.154195 
L 1143.024017 373.740627 
L 1145.009429 369.84489 
L 1146.002135 368.615095 
L 1146.994841 367.684141 
L 1147.987547 367.66525 
L 1148.980253 367.850944 
L 1149.972959 367.820968 
L 1150.965664 368.54158 
L 1151.95837 368.600048 
L 1152.951076 370.102869 
L 1153.943782 372.072193 
L 1154.936488 373.361733 
L 1155.929194 374.879844 
L 1158.907312 381.736896 
L 1159.900018 384.251914 
L 1160.892724 387.201991 
L 1161.88543 389.335315 
L 1163.870841 394.177648 
L 1165.856253 400.203215 
L 1166.848959 402.891468 
L 1167.841665 408.941627 
L 1168.834371 411.963177 
L 1169.827077 419.110453 
L 1170.819783 428.102817 
L 1171.812489 433.074759 
L 1173.797901 435.707717 
L 1174.790607 429.060761 
L 1175.783313 419.708781 
L 1176.776019 414.528936 
L 1177.768724 408.123476 
L 1178.76143 399.618796 
L 1181.739548 383.850302 
L 1183.72496 376.626676 
L 1184.717666 375.118907 
L 1185.710372 373.242285 
L 1186.703078 370.745227 
L 1187.695784 370.28194 
L 1188.68849 368.989553 
L 1189.681196 367.400992 
L 1190.673901 366.863002 
L 1191.666607 366.597187 
L 1192.659313 367.208768 
L 1193.652019 367.527856 
L 1194.644725 368.028248 
L 1195.637431 369.612109 
L 1196.630137 370.778164 
L 1197.622843 371.320176 
L 1198.615549 372.96004 
L 1199.608255 376.027263 
L 1201.593667 380.657801 
L 1202.586373 382.214756 
L 1203.579078 384.596432 
L 1204.571784 385.684583 
L 1205.56449 387.878567 
L 1207.549902 388.130496 
L 1208.542608 387.523322 
L 1209.535314 386.256557 
L 1210.52802 384.30415 
L 1211.520726 383.912794 
L 1212.513432 381.658048 
L 1213.506138 379.854646 
L 1215.49155 377.414757 
L 1216.484255 376.883729 
L 1217.476961 376.024894 
L 1218.469667 375.998996 
L 1219.462373 375.610744 
L 1220.455079 375.659332 
L 1221.447785 376.124612 
L 1222.440491 376.191199 
L 1223.433197 378.340241 
L 1224.425903 379.560562 
L 1225.418609 381.184927 
L 1226.411315 383.75335 
L 1227.404021 385.923972 
L 1228.396727 389.612662 
L 1230.382138 396.197463 
L 1231.374844 401.561462 
L 1233.360256 413.652414 
L 1234.352962 420.964622 
L 1235.345668 431.334234 
L 1236.338374 440.243079 
L 1237.33108 454.766635 
L 1239.316492 490.513495 
L 1240.309198 492.48 
L 1241.301904 475.156832 
L 1242.29461 466.662036 
L 1243.287315 453.993734 
L 1244.280021 446.909206 
L 1245.272727 444.175963 
L 1245.272727 444.175963 
" clip-path="url(#p7426351c24)" style="fill: none; stroke: #1f77b4; stroke-width: 1.5; stroke-linecap: square"/>
   </g>
   <g id="patch_3">
    <path d="M 180 512.64 
L 180 69.12 
" style="fill: none; stroke: #000000; stroke-width: 0.8; stroke-linejoin: miter; stroke-linecap: square"/>
   </g>
   <g id="patch_4">
    <path d="M 1296 512.64 
L 1296 69.12 
" style="fill: none; stroke: #000000; stroke-width: 0.8; stroke-linejoin: miter; stroke-linecap: square"/>
   </g>
   <g id="patch_5">
    <path d="M 180 512.64 
L 1296 512.64 
" style="fill: none; stroke: #000000; stroke-width: 0.8; stroke-linejoin: miter; stroke-linecap: square"/>
   </g>
   <g id="patch_6">
    <path d="M 180 69.12 
L 1296 69.12 
" style="fill: none; stroke: #000000; stroke-width: 0.8; stroke-linejoin: miter; stroke-linecap: square"/>
   </g>
   <g id="text_13">
    <!-- source18-receiver18 -->
    <g transform="translate(532.175 60.80125) scale(0.4 -0.4)">
     <defs>
      <path id="DejaVuSans-73" d="M 2834 3397 
L 2834 2853 
Q 2591 2978 2328 3040 
Q 2066 3103 1784 3103 
Q 1356 3103 1142 2972 
Q 928 2841 928 2578 
Q 928 2378 1081 2264 
Q 1234 2150 1697 2047 
L 1894 2003 
Q 2506 1872 2764 1633 
Q 3022 1394 3022 966 
Q 3022 478 2636 193 
Q 2250 -91 1575 -91 
Q 1294 -91 989 -36 
Q 684 19 347 128 
L 347 722 
Q 666 556 975 473 
Q 1284 391 1588 391 
Q 1994 391 2212 530 
Q 2431 669 2431 922 
Q 2431 1156 2273 1281 
Q 2116 1406 1581 1522 
L 1381 1569 
Q 847 1681 609 1914 
Q 372 2147 372 2553 
Q 372 3047 722 3315 
Q 1072 3584 1716 3584 
Q 2034 3584 2315 3537 
Q 2597 3491 2834 3397 
z
" transform="scale(0.015625)"/>
      <path id="DejaVuSans-6f" d="M 1959 3097 
Q 1497 3097 1228 2736 
Q 959 2375 959 1747 
Q 959 1119 1226 758 
Q 1494 397 1959 397 
Q 2419 397 2687 759 
Q 2956 1122 2956 1747 
Q 2956 2369 2687 2733 
Q 2419 3097 1959 3097 
z
M 1959 3584 
Q 2709 3584 3137 3096 
Q 3566 2609 3566 1747 
Q 3566 888 3137 398 
Q 2709 -91 1959 -91 
Q 1206 -91 779 398 
Q 353 888 353 1747 
Q 353 2609 779 3096 
Q 1206 3584 1959 3584 
z
" transform="scale(0.015625)"/>
      <path id="DejaVuSans-75" d="M 544 1381 
L 544 3500 
L 1119 3500 
L 1119 1403 
Q 1119 906 1312 657 
Q 1506 409 1894 409 
Q 2359 409 2629 706 
Q 2900 1003 2900 1516 
L 2900 3500 
L 3475 3500 
L 3475 0 
L 2900 0 
L 2900 538 
Q 2691 219 2414 64 
Q 2138 -91 1772 -91 
Q 1169 -91 856 284 
Q 544 659 544 1381 
z
M 1991 3584 
L 1991 3584 
z
" transform="scale(0.015625)"/>
      <path id="DejaVuSans-72" d="M 2631 2963 
Q 2534 3019 2420 3045 
Q 2306 3072 2169 3072 
Q 1681 3072 1420 2755 
Q 1159 2438 1159 1844 
L 1159 0 
L 581 0 
L 581 3500 
L 1159 3500 
L 1159 2956 
Q 1341 3275 1631 3429 
Q 1922 3584 2338 3584 
Q 2397 3584 2469 3576 
Q 2541 3569 2628 3553 
L 2631 2963 
z
" transform="scale(0.015625)"/>
      <path id="DejaVuSans-63" d="M 3122 3366 
L 3122 2828 
Q 2878 2963 2633 3030 
Q 2388 3097 2138 3097 
Q 1578 3097 1268 2742 
Q 959 2388 959 1747 
Q 959 1106 1268 751 
Q 1578 397 2138 397 
Q 2388 397 2633 464 
Q 2878 531 3122 666 
L 3122 134 
Q 2881 22 2623 -34 
Q 2366 -91 2075 -91 
Q 1284 -91 818 406 
Q 353 903 353 1747 
Q 353 2603 823 3093 
Q 1294 3584 2113 3584 
Q 2378 3584 2631 3529 
Q 2884 3475 3122 3366 
z
" transform="scale(0.015625)"/>
      <path id="DejaVuSans-65" d="M 3597 1894 
L 3597 1613 
L 953 1613 
Q 991 1019 1311 708 
Q 1631 397 2203 397 
Q 2534 397 2845 478 
Q 3156 559 3463 722 
L 3463 178 
Q 3153 47 2828 -22 
Q 2503 -91 2169 -91 
Q 1331 -91 842 396 
Q 353 884 353 1716 
Q 353 2575 817 3079 
Q 1281 3584 2069 3584 
Q 2775 3584 3186 3129 
Q 3597 2675 3597 1894 
z
M 3022 2063 
Q 3016 2534 2758 2815 
Q 2500 3097 2075 3097 
Q 1594 3097 1305 2825 
Q 1016 2553 972 2059 
L 3022 2063 
z
" transform="scale(0.015625)"/>
      <path id="DejaVuSans-38" d="M 2034 2216 
Q 1584 2216 1326 1975 
Q 1069 1734 1069 1313 
Q 1069 891 1326 650 
Q 1584 409 2034 409 
Q 2484 409 2743 651 
Q 3003 894 3003 1313 
Q 3003 1734 2745 1975 
Q 2488 2216 2034 2216 
z
M 1403 2484 
Q 997 2584 770 2862 
Q 544 3141 544 3541 
Q 544 4100 942 4425 
Q 1341 4750 2034 4750 
Q 2731 4750 3128 4425 
Q 3525 4100 3525 3541 
Q 3525 3141 3298 2862 
Q 3072 2584 2669 2484 
Q 3125 2378 3379 2068 
Q 3634 1759 3634 1313 
Q 3634 634 3220 271 
Q 2806 -91 2034 -91 
Q 1263 -91 848 271 
Q 434 634 434 1313 
Q 434 1759 690 2068 
Q 947 2378 1403 2484 
z
M 1172 3481 
Q 1172 3119 1398 2916 
Q 1625 2713 2034 2713 
Q 2441 2713 2670 2916 
Q 2900 3119 2900 3481 
Q 2900 3844 2670 4047 
Q 2441 4250 2034 4250 
Q 1625 4250 1398 4047 
Q 1172 3844 1172 3481 
z
" transform="scale(0.015625)"/>
      <path id="DejaVuSans-2d" d="M 313 2009 
L 1997 2009 
L 1997 1497 
L 313 1497 
L 313 2009 
z
" transform="scale(0.015625)"/>
      <path id="DejaVuSans-69" d="M 603 3500 
L 1178 3500 
L 1178 0 
L 603 0 
L 603 3500 
z
M 603 4863 
L 1178 4863 
L 1178 4134 
L 603 4134 
L 603 4863 
z
" transform="scale(0.015625)"/>
      <path id="DejaVuSans-76" d="M 191 3500 
L 800 3500 
L 1894 563 
L 2988 3500 
L 3597 3500 
L 2284 0 
L 1503 0 
L 191 3500 
z
" transform="scale(0.015625)"/>
     </defs>
     <use xlink:href="#DejaVuSans-73"/>
     <use xlink:href="#DejaVuSans-6f" x="52.099609"/>
     <use xlink:href="#DejaVuSans-75" x="113.28125"/>
     <use xlink:href="#DejaVuSans-72" x="176.660156"/>
     <use xlink:href="#DejaVuSans-63" x="215.523438"/>
     <use xlink:href="#DejaVuSans-65" x="270.503906"/>
     <use xlink:href="#DejaVuSans-31" x="332.027344"/>
     <use xlink:href="#DejaVuSans-38" x="395.650391"/>
     <use xlink:href="#DejaVuSans-2d" x="459.273438"/>
     <use xlink:href="#DejaVuSans-72" x="495.357422"/>
     <use xlink:href="#DejaVuSans-65" x="534.220703"/>
     <use xlink:href="#DejaVuSans-63" x="595.744141"/>
     <use xlink:href="#DejaVuSans-65" x="650.724609"/>
     <use xlink:href="#DejaVuSans-69" x="712.248047"/>
     <use xlink:href="#DejaVuSans-76" x="740.03125"/>
     <use xlink:href="#DejaVuSans-65" x="799.210938"/>
     <use xlink:href="#DejaVuSans-72" x="860.734375"/>
     <use xlink:href="#DejaVuSans-31" x="901.847656"/>
     <use xlink:href="#DejaVuSans-38" x="965.470703"/>
    </g>
   </g>
  </g>
 </g>
 <defs>
  <clipPath id="p7426351c24">
   <rect x="180" y="69.12" width="1116" height="443.52"/>
  </clipPath>
 </defs>
</svg>
