<?xml version="1.0" encoding="utf-8" standalone="no"?>
<!DOCTYPE svg PUBLIC "-//W3C//DTD SVG 1.1//EN"
  "http://www.w3.org/Graphics/SVG/1.1/DTD/svg11.dtd">
<svg xmlns:xlink="http://www.w3.org/1999/xlink" width="1440pt" height="576pt" viewBox="0 0 1440 576" xmlns="http://www.w3.org/2000/svg" version="1.1">
 <metadata>
  <rdf:RDF xmlns:dc="http://purl.org/dc/elements/1.1/" xmlns:cc="http://creativecommons.org/ns#" xmlns:rdf="http://www.w3.org/1999/02/22-rdf-syntax-ns#">
   <cc:Work>
    <dc:type rdf:resource="http://purl.org/dc/dcmitype/StillImage"/>
    <dc:date>2024-05-22T04:50:14.388933</dc:date>
    <dc:format>image/svg+xml</dc:format>
    <dc:creator>
     <cc:Agent>
      <dc:title>Matplotlib v3.8.3, https://matplotlib.org/</dc:title>
     </cc:Agent>
    </dc:creator>
   </cc:Work>
  </rdf:RDF>
 </metadata>
 <defs>
  <style type="text/css">*{stroke-linejoin: round; stroke-linecap: butt}</style>
 </defs>
 <g id="figure_1">
  <g id="patch_1">
   <path d="M 0 576 
L 1440 576 
L 1440 0 
L 0 0 
z
" style="fill: #ffffff"/>
  </g>
  <g id="axes_1">
   <g id="patch_2">
    <path d="M 180 512.64 
L 1296 512.64 
L 1296 69.12 
L 180 69.12 
z
" style="fill: #ffffff"/>
   </g>
   <g id="matplotlib.axis_1">
    <g id="xtick_1">
     <g id="line2d_1">
      <defs>
       <path id="mf6aa2e5547" d="M 0 0 
L 0 3.5 
" style="stroke: #000000; stroke-width: 0.8"/>
      </defs>
      <g>
       <use xlink:href="#mf6aa2e5547" x="229.734567" y="512.64" style="stroke: #000000; stroke-width: 0.8"/>
      </g>
     </g>
     <g id="text_1">
      <!-- 0 -->
      <g transform="translate(226.553317 527.238438) scale(0.1 -0.1)">
       <defs>
        <path id="DejaVuSans-30" d="M 2034 4250 
Q 1547 4250 1301 3770 
Q 1056 3291 1056 2328 
Q 1056 1369 1301 889 
Q 1547 409 2034 409 
Q 2525 409 2770 889 
Q 3016 1369 3016 2328 
Q 3016 3291 2770 3770 
Q 2525 4250 2034 4250 
z
M 2034 4750 
Q 2819 4750 3233 4129 
Q 3647 3509 3647 2328 
Q 3647 1150 3233 529 
Q 2819 -91 2034 -91 
Q 1250 -91 836 529 
Q 422 1150 422 2328 
Q 422 3509 836 4129 
Q 1250 4750 2034 4750 
z
" transform="scale(0.015625)"/>
       </defs>
       <use xlink:href="#DejaVuSans-30"/>
      </g>
     </g>
    </g>
    <g id="xtick_2">
     <g id="line2d_2">
      <g>
       <use xlink:href="#mf6aa2e5547" x="433.04074" y="512.64" style="stroke: #000000; stroke-width: 0.8"/>
      </g>
     </g>
     <g id="text_2">
      <!-- 500 -->
      <g transform="translate(423.49699 527.238438) scale(0.1 -0.1)">
       <defs>
        <path id="DejaVuSans-35" d="M 691 4666 
L 3169 4666 
L 3169 4134 
L 1269 4134 
L 1269 2991 
Q 1406 3038 1543 3061 
Q 1681 3084 1819 3084 
Q 2600 3084 3056 2656 
Q 3513 2228 3513 1497 
Q 3513 744 3044 326 
Q 2575 -91 1722 -91 
Q 1428 -91 1123 -41 
Q 819 9 494 109 
L 494 744 
Q 775 591 1075 516 
Q 1375 441 1709 441 
Q 2250 441 2565 725 
Q 2881 1009 2881 1497 
Q 2881 1984 2565 2268 
Q 2250 2553 1709 2553 
Q 1456 2553 1204 2497 
Q 953 2441 691 2322 
L 691 4666 
z
" transform="scale(0.015625)"/>
       </defs>
       <use xlink:href="#DejaVuSans-35"/>
       <use xlink:href="#DejaVuSans-30" x="63.623047"/>
       <use xlink:href="#DejaVuSans-30" x="127.246094"/>
      </g>
     </g>
    </g>
    <g id="xtick_3">
     <g id="line2d_3">
      <g>
       <use xlink:href="#mf6aa2e5547" x="636.346913" y="512.64" style="stroke: #000000; stroke-width: 0.8"/>
      </g>
     </g>
     <g id="text_3">
      <!-- 1000 -->
      <g transform="translate(623.621913 527.238438) scale(0.1 -0.1)">
       <defs>
        <path id="DejaVuSans-31" d="M 794 531 
L 1825 531 
L 1825 4091 
L 703 3866 
L 703 4441 
L 1819 4666 
L 2450 4666 
L 2450 531 
L 3481 531 
L 3481 0 
L 794 0 
L 794 531 
z
" transform="scale(0.015625)"/>
       </defs>
       <use xlink:href="#DejaVuSans-31"/>
       <use xlink:href="#DejaVuSans-30" x="63.623047"/>
       <use xlink:href="#DejaVuSans-30" x="127.246094"/>
       <use xlink:href="#DejaVuSans-30" x="190.869141"/>
      </g>
     </g>
    </g>
    <g id="xtick_4">
     <g id="line2d_4">
      <g>
       <use xlink:href="#mf6aa2e5547" x="839.653087" y="512.64" style="stroke: #000000; stroke-width: 0.8"/>
      </g>
     </g>
     <g id="text_4">
      <!-- 1500 -->
      <g transform="translate(826.928087 527.238438) scale(0.1 -0.1)">
       <use xlink:href="#DejaVuSans-31"/>
       <use xlink:href="#DejaVuSans-35" x="63.623047"/>
       <use xlink:href="#DejaVuSans-30" x="127.246094"/>
       <use xlink:href="#DejaVuSans-30" x="190.869141"/>
      </g>
     </g>
    </g>
    <g id="xtick_5">
     <g id="line2d_5">
      <g>
       <use xlink:href="#mf6aa2e5547" x="1042.95926" y="512.64" style="stroke: #000000; stroke-width: 0.8"/>
      </g>
     </g>
     <g id="text_5">
      <!-- 2000 -->
      <g transform="translate(1030.23426 527.238438) scale(0.1 -0.1)">
       <defs>
        <path id="DejaVuSans-32" d="M 1228 531 
L 3431 531 
L 3431 0 
L 469 0 
L 469 531 
Q 828 903 1448 1529 
Q 2069 2156 2228 2338 
Q 2531 2678 2651 2914 
Q 2772 3150 2772 3378 
Q 2772 3750 2511 3984 
Q 2250 4219 1831 4219 
Q 1534 4219 1204 4116 
Q 875 4013 500 3803 
L 500 4441 
Q 881 4594 1212 4672 
Q 1544 4750 1819 4750 
Q 2544 4750 2975 4387 
Q 3406 4025 3406 3419 
Q 3406 3131 3298 2873 
Q 3191 2616 2906 2266 
Q 2828 2175 2409 1742 
Q 1991 1309 1228 531 
z
" transform="scale(0.015625)"/>
       </defs>
       <use xlink:href="#DejaVuSans-32"/>
       <use xlink:href="#DejaVuSans-30" x="63.623047"/>
       <use xlink:href="#DejaVuSans-30" x="127.246094"/>
       <use xlink:href="#DejaVuSans-30" x="190.869141"/>
      </g>
     </g>
    </g>
    <g id="xtick_6">
     <g id="line2d_6">
      <g>
       <use xlink:href="#mf6aa2e5547" x="1246.265433" y="512.64" style="stroke: #000000; stroke-width: 0.8"/>
      </g>
     </g>
     <g id="text_6">
      <!-- 2500 -->
      <g transform="translate(1233.540433 527.238438) scale(0.1 -0.1)">
       <use xlink:href="#DejaVuSans-32"/>
       <use xlink:href="#DejaVuSans-35" x="63.623047"/>
       <use xlink:href="#DejaVuSans-30" x="127.246094"/>
       <use xlink:href="#DejaVuSans-30" x="190.869141"/>
      </g>
     </g>
    </g>
   </g>
   <g id="matplotlib.axis_2">
    <g id="ytick_1">
     <g id="line2d_7">
      <defs>
       <path id="m3c9ba7f603" d="M 0 0 
L -3.5 0 
" style="stroke: #000000; stroke-width: 0.8"/>
      </defs>
      <g>
       <use xlink:href="#m3c9ba7f603" x="180" y="473.371048" style="stroke: #000000; stroke-width: 0.8"/>
      </g>
     </g>
     <g id="text_7">
      <!-- −4 -->
      <g transform="translate(158.257812 477.170267) scale(0.1 -0.1)">
       <defs>
        <path id="DejaVuSans-2212" d="M 678 2272 
L 4684 2272 
L 4684 1741 
L 678 1741 
L 678 2272 
z
" transform="scale(0.015625)"/>
        <path id="DejaVuSans-34" d="M 2419 4116 
L 825 1625 
L 2419 1625 
L 2419 4116 
z
M 2253 4666 
L 3047 4666 
L 3047 1625 
L 3713 1625 
L 3713 1100 
L 3047 1100 
L 3047 0 
L 2419 0 
L 2419 1100 
L 313 1100 
L 313 1709 
L 2253 4666 
z
" transform="scale(0.015625)"/>
       </defs>
       <use xlink:href="#DejaVuSans-2212"/>
       <use xlink:href="#DejaVuSans-34" x="83.789062"/>
      </g>
     </g>
    </g>
    <g id="ytick_2">
     <g id="line2d_8">
      <g>
       <use xlink:href="#m3c9ba7f603" x="180" y="384.007185" style="stroke: #000000; stroke-width: 0.8"/>
      </g>
     </g>
     <g id="text_8">
      <!-- −2 -->
      <g transform="translate(158.257812 387.806404) scale(0.1 -0.1)">
       <use xlink:href="#DejaVuSans-2212"/>
       <use xlink:href="#DejaVuSans-32" x="83.789062"/>
      </g>
     </g>
    </g>
    <g id="ytick_3">
     <g id="line2d_9">
      <g>
       <use xlink:href="#m3c9ba7f603" x="180" y="294.643323" style="stroke: #000000; stroke-width: 0.8"/>
      </g>
     </g>
     <g id="text_9">
      <!-- 0 -->
      <g transform="translate(166.6375 298.442541) scale(0.1 -0.1)">
       <use xlink:href="#DejaVuSans-30"/>
      </g>
     </g>
    </g>
    <g id="ytick_4">
     <g id="line2d_10">
      <g>
       <use xlink:href="#m3c9ba7f603" x="180" y="205.27946" style="stroke: #000000; stroke-width: 0.8"/>
      </g>
     </g>
     <g id="text_10">
      <!-- 2 -->
      <g transform="translate(166.6375 209.078679) scale(0.1 -0.1)">
       <use xlink:href="#DejaVuSans-32"/>
      </g>
     </g>
    </g>
    <g id="ytick_5">
     <g id="line2d_11">
      <g>
       <use xlink:href="#m3c9ba7f603" x="180" y="115.915597" style="stroke: #000000; stroke-width: 0.8"/>
      </g>
     </g>
     <g id="text_11">
      <!-- 4 -->
      <g transform="translate(166.6375 119.714816) scale(0.1 -0.1)">
       <use xlink:href="#DejaVuSans-34"/>
      </g>
     </g>
    </g>
   </g>
   <g id="line2d_12">
    <path d="M 230.727273 286.219397 
L 231.719979 286.042035 
L 232.712685 285.646577 
L 233.70539 285.121642 
L 234.698096 284.423069 
L 235.690802 283.568861 
L 237.676214 281.314311 
L 238.66892 279.823203 
L 239.661626 278.112425 
L 240.654332 276.142093 
L 241.647038 273.779313 
L 242.639744 270.982456 
L 243.63245 267.74312 
L 244.625156 263.580105 
L 245.617862 258.553457 
L 246.610568 251.532698 
L 247.603273 237.844389 
L 248.595979 222.330309 
L 249.588685 220.815967 
L 250.581391 267.610296 
L 251.574097 216.186984 
L 252.566803 179.426259 
L 253.559509 172.7942 
L 254.552215 195.773933 
L 255.544921 262.032676 
L 256.537627 188.18637 
L 257.530333 180.945708 
L 258.523039 187.041489 
L 259.515745 195.75665 
L 260.50845 247.738623 
L 261.501156 204.87081 
L 262.493862 180.560174 
L 263.486568 192.67139 
L 264.479274 246.620102 
L 265.47198 230.161371 
L 266.464686 218.978791 
L 267.457392 218.543006 
L 268.450098 238.102271 
L 269.442804 221.833723 
L 270.43551 200.293892 
L 271.428216 209.723453 
L 272.420922 262.031869 
L 273.413627 236.569465 
L 274.406333 207.622273 
L 275.399039 201.090912 
L 276.391745 254.676333 
L 277.384451 175.034176 
L 278.377157 128.553304 
L 279.369863 106.864481 
L 280.362569 99.410073 
L 281.355275 100.000935 
L 282.347981 98.016615 
L 283.340687 91.0261 
L 284.333393 89.28 
L 285.326099 95.847462 
L 287.31151 117.019346 
L 288.304216 121.030443 
L 289.296922 119.102085 
L 290.289628 124.634383 
L 291.282334 146.632229 
L 292.27504 171.401564 
L 293.267746 173.530845 
L 294.260452 195.812276 
L 295.253158 226.790454 
L 296.245864 235.090719 
L 297.23857 246.114234 
L 298.231276 238.51123 
L 299.223981 279.333357 
L 300.216687 244.716227 
L 301.209393 235.870741 
L 302.202099 229.839364 
L 303.194805 231.484125 
L 304.187511 252.44343 
L 305.180217 251.316282 
L 306.172923 264.425069 
L 307.165629 330.700427 
L 308.158335 284.848916 
L 309.151041 325.247758 
L 310.143747 313.964146 
L 311.136453 317.75194 
L 312.129159 361.553018 
L 313.121864 319.342635 
L 314.11457 345.056085 
L 315.107276 338.337523 
L 316.099982 342.551379 
L 317.092688 343.227955 
L 318.085394 337.010562 
L 319.0781 345.379488 
L 320.070806 349.760743 
L 321.063512 340.700517 
L 322.056218 344.312886 
L 323.048924 348.690452 
L 324.04163 345.313648 
L 325.034336 354.540454 
L 326.027041 342.832594 
L 327.019747 349.901447 
L 328.012453 346.410661 
L 329.005159 363.348132 
L 329.997865 358.29776 
L 330.990571 346.097874 
L 331.983277 361.5297 
L 332.975983 347.312644 
L 333.968689 362.913498 
L 334.961395 348.555918 
L 335.954101 369.093581 
L 336.946807 363.066683 
L 337.939513 341.083047 
L 338.932218 378.126689 
L 339.924924 362.786649 
L 340.91763 355.859416 
L 341.910336 375.216992 
L 342.903042 361.062729 
L 343.895748 357.158389 
L 344.888454 369.409135 
L 345.88116 368.332741 
L 346.873866 362.290356 
L 347.866572 380.658331 
L 348.859278 374.276794 
L 349.851984 365.247788 
L 350.84469 376.499751 
L 351.837395 368.124602 
L 353.822807 370.623677 
L 354.815513 386.985622 
L 355.808219 367.247171 
L 356.800925 370.996518 
L 357.793631 372.107181 
L 358.786337 369.972336 
L 359.779043 383.140188 
L 360.771749 367.870429 
L 361.764455 380.370462 
L 362.757161 372.587535 
L 363.749867 372.338984 
L 364.742572 371.77527 
L 365.735278 365.403764 
L 366.727984 380.195555 
L 367.72069 380.293498 
L 368.713396 375.326709 
L 369.706102 384.813599 
L 370.698808 381.318732 
L 371.691514 381.195209 
L 372.68422 375.359501 
L 373.676926 374.791489 
L 374.669632 402.618795 
L 375.662338 361.594336 
L 376.655044 380.091673 
L 377.64775 381.468788 
L 378.640455 381.196526 
L 379.633161 393.045526 
L 380.625867 388.092323 
L 381.618573 376.814407 
L 382.611279 386.003518 
L 383.603985 376.745925 
L 384.596691 379.381821 
L 385.589397 393.735734 
L 387.574809 370.693098 
L 388.567515 369.602991 
L 389.560221 400.084341 
L 390.552927 383.599854 
L 391.545632 381.342171 
L 392.538338 388.810736 
L 393.531044 384.483205 
L 394.52375 384.897429 
L 395.516456 380.911121 
L 396.509162 398.448058 
L 397.501868 392.295144 
L 398.494574 397.474122 
L 399.48728 383.742859 
L 400.479986 383.800631 
L 401.472692 386.995429 
L 402.465398 380.785472 
L 403.458104 388.978799 
L 404.450809 390.989291 
L 405.443515 395.031635 
L 406.436221 383.504976 
L 407.428927 391.775169 
L 408.421633 386.631394 
L 409.414339 388.069143 
L 410.407045 385.869996 
L 411.399751 390.94392 
L 412.392457 406.204606 
L 413.385163 387.372741 
L 414.377869 393.022817 
L 415.370575 408.673869 
L 416.363281 382.538046 
L 417.355986 388.187538 
L 418.348692 395.792765 
L 419.341398 398.369097 
L 420.334104 389.382623 
L 421.32681 409.241617 
L 422.319516 405.310647 
L 423.312222 389.194655 
L 424.304928 435.816907 
L 425.297634 381.405803 
L 426.29034 401.70229 
L 427.283046 378.825937 
L 428.275752 395.164322 
L 429.268458 393.396353 
L 430.261163 414.11909 
L 431.253869 415.663131 
L 432.246575 395.030804 
L 433.239281 394.451562 
L 434.231987 390.865164 
L 435.224693 396.022795 
L 436.217399 389.655201 
L 437.210105 417.217353 
L 438.202811 400.590395 
L 439.195517 394.965898 
L 440.188223 387.964457 
L 441.180929 420.858507 
L 442.173635 394.184894 
L 443.166341 393.632979 
L 444.159046 394.34208 
L 445.151752 398.28033 
L 446.144458 406.181747 
L 447.137164 410.343597 
L 448.12987 419.758451 
L 449.122576 419.814798 
L 450.115282 391.047295 
L 451.107988 400.705318 
L 452.100694 388.230159 
L 453.0934 409.437296 
L 454.086106 393.424063 
L 455.078812 405.95737 
L 456.071518 421.126998 
L 457.064223 400.716476 
L 458.056929 391.421052 
L 459.049635 428.07212 
L 460.042341 408.818748 
L 461.035047 421.620056 
L 463.020459 394.927081 
L 464.013165 386.887799 
L 465.005871 394.963226 
L 465.998577 407.183745 
L 466.991283 398.258046 
L 467.983989 412.273373 
L 468.976695 408.774851 
L 469.9694 400.67291 
L 470.962106 397.167403 
L 471.954812 416.343732 
L 472.947518 402.688759 
L 473.940224 421.489866 
L 474.93293 406.727886 
L 475.925636 395.224845 
L 476.918342 393.200793 
L 477.911048 403.66651 
L 478.903754 406.911934 
L 479.89646 404.835988 
L 480.889166 428.274545 
L 481.881872 404.390118 
L 482.874577 410.704513 
L 483.867283 399.556164 
L 484.859989 407.265366 
L 485.852695 426.810308 
L 486.845401 421.768962 
L 487.838107 402.178893 
L 488.830813 423.418229 
L 489.823519 395.605545 
L 490.816225 407.486738 
L 491.808931 406.570865 
L 492.801637 410.342488 
L 493.794343 409.532631 
L 494.787049 409.794657 
L 495.779754 440.812407 
L 496.77246 404.969509 
L 497.765166 404.517818 
L 498.757872 434.952721 
L 499.750578 417.81975 
L 500.743284 405.631128 
L 501.73599 422.793054 
L 502.728696 394.167128 
L 503.721402 409.434378 
L 504.714108 405.250991 
L 505.706814 395.808283 
L 506.69952 401.599839 
L 507.692226 418.527657 
L 508.684932 399.151447 
L 509.677637 405.303929 
L 510.670343 401.403399 
L 511.663049 404.874847 
L 512.655755 420.876302 
L 513.648461 423.282846 
L 514.641167 403.607776 
L 515.633873 404.423034 
L 516.626579 424.768049 
L 517.619285 463.55938 
L 518.611991 387.816976 
L 519.604697 438.43239 
L 520.597403 456.929527 
L 521.590109 457.780338 
L 522.582814 408.684315 
L 523.57552 443.007148 
L 524.568226 410.2946 
L 525.560932 405.941286 
L 526.553638 404.058934 
L 527.546344 397.609782 
L 528.53905 402.641236 
L 529.531756 436.911415 
L 530.524462 408.830071 
L 531.517168 412.927497 
L 532.509874 419.540951 
L 533.50258 430.514502 
L 534.495286 419.064142 
L 535.487991 432.808005 
L 536.480697 436.16429 
L 537.473403 404.600578 
L 538.466109 409.933834 
L 539.458815 417.436532 
L 540.451521 414.830225 
L 541.444227 419.217907 
L 542.436933 448.799975 
L 544.422345 408.636852 
L 545.415051 412.983458 
L 546.407757 455.353216 
L 547.400463 456.219253 
L 548.393168 472.374724 
L 549.385874 432.098658 
L 550.37858 441.254204 
L 551.371286 454.767328 
L 552.363992 411.64571 
L 553.356698 412.58332 
L 554.349404 471.099875 
L 555.34211 492.48 
L 556.334816 444.956478 
L 557.327522 413.654584 
L 558.320228 411.175117 
L 560.30564 473.443063 
L 561.298345 422.728272 
L 562.291051 417.473853 
L 563.283757 414.832354 
L 564.276463 434.120978 
L 565.269169 408.801544 
L 566.261875 394.862188 
L 567.254581 429.428756 
L 568.247287 445.045342 
L 569.239993 425.765089 
L 570.232699 421.572749 
L 571.225405 425.925729 
L 572.218111 405.298346 
L 573.210817 412.828552 
L 574.203523 396.31469 
L 575.196228 445.515233 
L 576.188934 416.818487 
L 577.18164 429.422618 
L 578.174346 423.687333 
L 579.167052 409.899798 
L 580.159758 404.73159 
L 582.14517 440.927 
L 583.137876 421.868566 
L 584.130582 436.323875 
L 585.123288 414.720539 
L 586.115994 416.044356 
L 587.1087 421.927237 
L 589.094111 440.033067 
L 590.086817 417.598382 
L 591.079523 404.979307 
L 592.072229 428.351925 
L 593.064935 415.45479 
L 594.057641 430.303069 
L 595.050347 415.859463 
L 596.043053 442.250656 
L 597.035759 454.365527 
L 598.028465 416.790133 
L 599.021171 442.588245 
L 600.013877 442.164447 
L 601.006582 419.014355 
L 601.999288 444.197451 
L 602.991994 447.173949 
L 603.9847 413.789432 
L 604.977406 424.894598 
L 605.970112 422.887885 
L 606.962818 432.48498 
L 607.955524 411.178719 
L 608.94823 433.003635 
L 609.940936 441.082267 
L 610.933642 428.513348 
L 611.926348 438.211952 
L 612.919054 461.18905 
L 613.911759 421.73857 
L 614.904465 420.138831 
L 615.897171 444.927653 
L 616.889877 435.958985 
L 617.882583 416.016997 
L 618.875289 440.624181 
L 619.867995 433.047112 
L 620.860701 432.171983 
L 621.853407 428.200896 
L 622.846113 436.950906 
L 623.838819 431.171711 
L 624.831525 448.604912 
L 625.824231 427.788337 
L 626.816936 458.762595 
L 627.809642 443.748267 
L 628.802348 433.868307 
L 629.795054 431.490881 
L 630.78776 423.513224 
L 631.780466 436.974008 
L 633.765878 426.850471 
L 634.758584 428.834914 
L 635.75129 431.802967 
L 636.743996 435.869179 
L 637.736702 448.632242 
L 638.729408 436.874112 
L 639.722114 436.35628 
L 640.714819 435.162981 
L 641.707525 437.02756 
L 643.692937 428.886251 
L 644.685643 435.04365 
L 645.678349 431.309227 
L 646.671055 434.301224 
L 647.663761 433.343013 
L 648.656467 440.884785 
L 649.649173 431.967772 
L 650.641879 427.800384 
L 651.634585 443.207529 
L 652.627291 441.328798 
L 653.619996 429.731213 
L 654.612702 438.201464 
L 655.605408 427.764805 
L 656.598114 440.174947 
L 657.59082 440.699177 
L 659.576232 434.28991 
L 660.568938 428.488528 
L 661.561644 437.918458 
L 662.55435 434.187768 
L 663.547056 443.254531 
L 664.539762 437.467127 
L 665.532468 432.74246 
L 666.525173 440.657752 
L 667.517879 446.070106 
L 669.503291 433.849122 
L 670.495997 439.378572 
L 671.488703 440.023705 
L 672.481409 437.297441 
L 673.474115 439.635066 
L 674.466821 437.366755 
L 675.459527 439.231404 
L 676.452233 434.096345 
L 677.444939 439.009481 
L 678.437645 438.100436 
L 679.43035 440.453633 
L 680.423056 433.625742 
L 681.415762 436.846615 
L 682.408468 437.020727 
L 683.401174 438.921738 
L 684.39388 435.531043 
L 685.386586 438.38959 
L 686.379292 436.215461 
L 687.371998 434.707777 
L 688.364704 435.721938 
L 689.35741 438.970248 
L 690.350116 439.553461 
L 691.342822 440.578103 
L 692.335527 438.880155 
L 693.328233 440.703381 
L 694.320939 440.726 
L 695.313645 437.807966 
L 696.306351 437.569243 
L 697.299057 440.194642 
L 698.291763 437.327157 
L 699.284469 438.06514 
L 700.277175 436.99987 
L 701.269881 436.611866 
L 702.262587 437.75933 
L 703.255293 438.613239 
L 704.247999 440.602982 
L 705.240705 438.527099 
L 706.23341 440.087362 
L 707.226116 439.750988 
L 708.218822 438.953202 
L 709.211528 437.73336 
L 710.204234 438.083084 
L 711.19694 438.176038 
L 712.189646 440.293779 
L 713.182352 439.162103 
L 714.175058 441.600602 
L 715.167764 441.813015 
L 716.16047 441.714138 
L 717.153176 438.940437 
L 718.145882 440.424849 
L 719.138587 438.653911 
L 720.131293 442.620496 
L 721.123999 442.464681 
L 722.116705 441.249867 
L 723.109411 441.035539 
L 724.102117 437.81218 
L 725.094823 437.370322 
L 726.087529 440.710367 
L 727.080235 440.526266 
L 728.072941 440.581539 
L 729.065647 440.110839 
L 730.058353 440.089246 
L 731.051059 441.702774 
L 733.03647 442.102708 
L 734.029176 441.186651 
L 735.021882 442.73203 
L 736.014588 441.892724 
L 737.007294 441.455528 
L 738 442.687397 
L 738.992706 443.341386 
L 739.985412 442.814517 
L 740.978118 442.978966 
L 741.970824 442.27353 
L 742.96353 442.380815 
L 743.956236 442.281806 
L 744.948941 441.13104 
L 745.941647 442.466519 
L 746.934353 442.484438 
L 747.927059 442.16957 
L 748.919765 442.902323 
L 749.912471 444.105119 
L 750.905177 443.201844 
L 751.897883 444.980279 
L 752.890589 444.184965 
L 753.883295 441.859678 
L 754.876001 443.521416 
L 755.868707 442.536259 
L 756.861413 442.457108 
L 757.854118 445.010717 
L 758.846824 443.454295 
L 759.83953 443.725824 
L 760.832236 445.702699 
L 761.824942 444.92651 
L 762.817648 442.550662 
L 763.810354 443.946464 
L 764.80306 442.241273 
L 765.795766 443.332991 
L 766.788472 442.751004 
L 767.781178 442.39185 
L 768.773884 442.461522 
L 769.76659 442.266684 
L 770.759295 442.45652 
L 771.752001 443.739463 
L 772.744707 444.120453 
L 773.737413 443.11078 
L 775.722825 443.912183 
L 776.715531 443.719771 
L 777.708237 444.974366 
L 778.700943 444.234244 
L 779.693649 446.137975 
L 780.686355 445.000397 
L 781.679061 444.946883 
L 782.671767 443.858738 
L 783.664473 444.724681 
L 784.657178 444.080832 
L 785.649884 443.718059 
L 786.64259 444.030737 
L 787.635296 443.125775 
L 788.628002 444.881714 
L 789.620708 444.131942 
L 790.613414 445.444301 
L 791.60612 444.233712 
L 793.591532 445.352569 
L 794.584238 446.332139 
L 795.576944 444.760537 
L 796.56965 446.649011 
L 797.562355 446.604707 
L 798.555061 445.917903 
L 799.547767 446.438566 
L 801.533179 447.041174 
L 802.525885 446.294565 
L 803.518591 446.019434 
L 804.511297 448.382058 
L 805.504003 445.273091 
L 806.496709 445.876991 
L 807.489415 444.840566 
L 808.482121 446.734868 
L 809.474827 445.866661 
L 810.467532 448.031714 
L 811.460238 447.937844 
L 812.452944 447.005856 
L 813.44565 446.8856 
L 814.438356 445.71647 
L 815.431062 447.030153 
L 816.423768 447.083306 
L 817.416474 446.384694 
L 820.394592 448.188368 
L 821.387298 447.987212 
L 822.380004 449.733114 
L 823.372709 446.999432 
L 824.365415 449.396523 
L 825.358121 446.476348 
L 826.350827 447.725233 
L 827.343533 447.931889 
L 828.336239 447.871428 
L 829.328945 447.102094 
L 832.307063 447.559896 
L 833.299769 446.841287 
L 834.292475 447.425414 
L 835.285181 447.775948 
L 836.277886 447.099066 
L 837.270592 447.357971 
L 838.263298 446.746606 
L 839.256004 446.956127 
L 840.24871 445.669166 
L 841.241416 450.116844 
L 842.234122 448.16201 
L 843.226828 448.592402 
L 844.219534 448.411983 
L 845.21224 447.285365 
L 846.204946 449.262466 
L 847.197652 448.947718 
L 848.190358 449.770212 
L 849.183064 449.717707 
L 850.175769 447.828046 
L 851.168475 448.822698 
L 852.161181 448.377988 
L 853.153887 448.754539 
L 854.146593 450.711433 
L 855.139299 448.107054 
L 856.132005 447.457628 
L 857.124711 449.097453 
L 858.117417 447.796645 
L 859.110123 450.47496 
L 860.102829 448.510985 
L 861.095535 449.086849 
L 862.088241 447.92591 
L 863.080946 449.897851 
L 864.073652 449.950288 
L 865.066358 447.116381 
L 866.059064 448.731902 
L 867.05177 448.757158 
L 868.044476 447.543483 
L 869.037182 450.117443 
L 871.022594 449.541095 
L 872.0153 450.279025 
L 873.008006 449.025768 
L 874.000712 449.660577 
L 874.993418 448.189544 
L 875.986123 450.181554 
L 876.978829 450.610526 
L 877.971535 450.136087 
L 878.964241 450.5197 
L 879.956947 449.401443 
L 880.949653 451.193728 
L 881.942359 452.059166 
L 882.935065 448.614159 
L 883.927771 449.315986 
L 884.920477 449.085622 
L 885.913183 450.201269 
L 887.898595 449.712425 
L 888.8913 450.698373 
L 889.884006 449.318777 
L 890.876712 450.259068 
L 891.869418 451.029664 
L 892.862124 450.817677 
L 893.85483 451.636421 
L 894.847536 449.277793 
L 895.840242 451.100347 
L 896.832948 450.697178 
L 897.825654 447.702984 
L 898.81836 450.3661 
L 899.811066 451.429613 
L 900.803772 453.193738 
L 901.796477 450.941359 
L 902.789183 452.336802 
L 903.781889 452.687176 
L 904.774595 451.459868 
L 906.760007 453.197372 
L 907.752713 450.485814 
L 908.745419 452.396456 
L 910.730831 450.420708 
L 911.723537 452.151869 
L 912.716243 452.403088 
L 913.708949 450.164638 
L 914.701655 452.147791 
L 915.69436 453.328288 
L 916.687066 450.871393 
L 917.679772 450.434322 
L 919.665184 450.842625 
L 920.65789 452.667877 
L 921.650596 451.115386 
L 922.643302 450.905573 
L 924.628714 453.100598 
L 925.62142 449.474451 
L 926.614126 451.9878 
L 927.606832 452.75882 
L 928.599537 453.845609 
L 929.592243 451.724502 
L 930.584949 452.781867 
L 931.577655 453.297743 
L 932.570361 452.290586 
L 933.563067 452.372642 
L 934.555773 449.996027 
L 935.548479 454.9822 
L 936.541185 452.275097 
L 937.533891 452.567454 
L 938.526597 451.566389 
L 940.512009 453.089779 
L 941.504714 454.79594 
L 942.49742 450.840558 
L 944.482832 452.899906 
L 945.475538 451.706838 
L 946.468244 452.584216 
L 947.46095 454.76938 
L 948.453656 452.984906 
L 949.446362 452.700492 
L 950.439068 453.939613 
L 951.431774 454.292598 
L 952.42448 453.634072 
L 953.417186 452.114436 
L 954.409891 452.26003 
L 955.402597 453.351422 
L 956.395303 451.370549 
L 957.388009 455.584684 
L 958.380715 454.461261 
L 959.373421 452.013906 
L 960.366127 453.269356 
L 962.351539 452.101586 
L 963.344245 452.895692 
L 964.336951 455.902125 
L 965.329657 454.034251 
L 966.322363 451.900429 
L 967.315068 453.799779 
L 968.307774 453.253879 
L 969.30048 453.619444 
L 970.293186 453.649312 
L 971.285892 453.831602 
L 972.278598 452.480116 
L 973.271304 451.460066 
L 974.26401 453.774518 
L 975.256716 454.969252 
L 976.249422 453.223429 
L 978.234834 454.446451 
L 979.22754 453.730869 
L 980.220246 453.466442 
L 981.212951 453.707379 
L 982.205657 456.440159 
L 983.198363 453.749379 
L 984.191069 452.446717 
L 985.183775 452.88616 
L 986.176481 453.039766 
L 987.169187 456.299939 
L 988.161893 455.372139 
L 989.154599 453.904635 
L 990.147305 452.931365 
L 991.140011 455.096633 
L 992.132717 453.303508 
L 993.125423 453.747053 
L 994.118128 453.223702 
L 995.110834 454.007509 
L 996.10354 454.234005 
L 997.096246 453.313695 
L 998.088952 453.855256 
L 999.081658 455.702454 
L 1000.074364 454.406635 
L 1001.06707 455.683812 
L 1002.059776 454.279773 
L 1003.052482 455.68467 
L 1004.045188 454.522047 
L 1005.037894 454.312109 
L 1006.0306 453.527216 
L 1007.023305 454.184241 
L 1008.016011 456.084937 
L 1009.008717 453.969437 
L 1010.001423 455.057416 
L 1010.994129 455.783848 
L 1011.986835 453.34191 
L 1012.979541 457.514307 
L 1013.972247 456.860213 
L 1014.964953 454.22688 
L 1015.957659 456.430345 
L 1016.950365 454.790184 
L 1017.943071 456.97804 
L 1018.935777 456.800217 
L 1019.928482 455.187237 
L 1020.921188 455.577252 
L 1021.913894 455.636748 
L 1022.9066 454.83194 
L 1024.892012 456.385478 
L 1025.884718 454.537486 
L 1026.877424 454.900765 
L 1027.87013 457.448201 
L 1028.862836 455.384153 
L 1029.855542 456.272683 
L 1030.848248 453.017546 
L 1032.833659 454.893435 
L 1033.826365 456.59162 
L 1034.819071 456.235879 
L 1035.811777 456.092876 
L 1036.804483 454.621073 
L 1038.789895 454.922613 
L 1039.782601 455.9295 
L 1040.775307 456.746457 
L 1041.768013 454.191243 
L 1042.760719 455.561535 
L 1043.753425 455.060603 
L 1044.746131 454.779189 
L 1045.738837 454.823022 
L 1046.731542 456.463321 
L 1047.724248 455.920905 
L 1048.716954 456.65859 
L 1049.70966 453.268932 
L 1050.702366 455.579179 
L 1051.695072 456.788688 
L 1052.687778 455.709758 
L 1053.680484 457.861557 
L 1054.67319 457.175166 
L 1055.665896 456.051634 
L 1056.658602 456.573353 
L 1057.651308 454.552726 
L 1058.644014 453.606571 
L 1059.636719 454.289627 
L 1060.629425 456.610678 
L 1061.622131 456.484915 
L 1062.614837 455.881005 
L 1063.607543 455.786246 
L 1064.600249 454.05866 
L 1065.592955 457.338674 
L 1066.585661 457.117627 
L 1067.578367 457.463524 
L 1068.571073 458.567008 
L 1069.563779 455.260751 
L 1070.556485 456.178057 
L 1071.549191 455.302939 
L 1072.541896 455.916873 
L 1073.534602 453.929949 
L 1074.527308 457.079593 
L 1075.520014 456.255973 
L 1076.51272 457.326156 
L 1077.505426 456.286468 
L 1078.498132 455.690909 
L 1079.490838 456.904691 
L 1080.483544 458.54275 
L 1081.47625 456.654323 
L 1082.468956 457.868331 
L 1083.461662 456.33786 
L 1084.454368 457.553074 
L 1085.447073 455.268695 
L 1086.439779 453.458512 
L 1087.432485 456.678842 
L 1088.425191 455.605966 
L 1089.417897 457.057077 
L 1090.410603 457.641735 
L 1091.403309 458.09095 
L 1092.396015 457.410543 
L 1093.388721 454.956305 
L 1094.381427 453.680048 
L 1095.374133 455.194674 
L 1096.366839 455.522342 
L 1098.35225 456.740199 
L 1099.344956 457.128061 
L 1100.337662 454.973158 
L 1101.330368 456.419642 
L 1102.323074 456.336826 
L 1103.31578 460.140742 
L 1105.301192 455.753095 
L 1106.293898 458.449408 
L 1107.286604 454.823898 
L 1108.27931 454.648895 
L 1109.272016 456.351082 
L 1110.264722 457.196767 
L 1111.257428 456.419206 
L 1112.250133 456.928349 
L 1113.242839 457.087338 
L 1114.235545 455.919555 
L 1115.228251 453.798579 
L 1116.220957 454.715833 
L 1117.213663 456.756041 
L 1118.206369 456.077231 
L 1119.199075 456.935813 
L 1120.191781 457.153787 
L 1121.184487 456.829572 
L 1122.177193 455.305404 
L 1123.169899 455.88829 
L 1124.162605 457.899064 
L 1125.15531 456.511786 
L 1126.148016 456.438108 
L 1128.133428 457.061064 
L 1129.126134 458.048305 
L 1130.11884 457.240367 
L 1131.111546 457.129289 
L 1132.104252 455.952619 
L 1133.096958 456.209736 
L 1134.089664 458.200476 
L 1135.08237 457.188819 
L 1136.075076 457.264128 
L 1137.067782 457.10055 
L 1138.060487 456.518341 
L 1139.053193 456.285932 
L 1140.045899 457.576398 
L 1141.038605 456.741547 
L 1142.031311 455.11821 
L 1143.024017 456.61714 
L 1144.016723 457.432587 
L 1145.009429 456.693405 
L 1146.002135 456.308685 
L 1146.994841 455.088639 
L 1147.987547 458.80639 
L 1148.980253 455.659224 
L 1149.972959 454.87219 
L 1150.965664 456.957447 
L 1151.95837 456.669982 
L 1152.951076 458.699854 
L 1153.943782 458.799602 
L 1154.936488 455.1904 
L 1155.929194 458.338935 
L 1156.9219 458.158961 
L 1158.907312 456.776632 
L 1159.900018 457.957506 
L 1160.892724 456.158775 
L 1161.88543 457.211817 
L 1162.878136 457.93236 
L 1163.870841 458.956924 
L 1164.863547 454.962879 
L 1165.856253 456.5041 
L 1166.848959 458.632816 
L 1167.841665 455.490133 
L 1168.834371 455.840347 
L 1169.827077 458.984999 
L 1170.819783 456.791459 
L 1171.812489 457.981469 
L 1172.805195 456.804434 
L 1173.797901 457.053087 
L 1174.790607 456.812017 
L 1175.783313 457.933362 
L 1176.776019 460.451114 
L 1177.768724 457.809152 
L 1178.76143 458.680608 
L 1179.754136 456.988444 
L 1180.746842 456.350661 
L 1181.739548 455.894518 
L 1182.732254 454.795449 
L 1183.72496 458.505973 
L 1184.717666 458.218249 
L 1185.710372 456.035417 
L 1186.703078 456.573254 
L 1187.695784 459.320526 
L 1188.68849 456.641646 
L 1189.681196 457.545853 
L 1190.673901 455.666007 
L 1191.666607 456.947341 
L 1192.659313 457.112144 
L 1193.652019 458.39199 
L 1194.644725 456.202338 
L 1195.637431 456.524947 
L 1196.630137 458.492631 
L 1197.622843 456.131081 
L 1198.615549 461.712582 
L 1199.608255 456.549803 
L 1200.600961 456.366937 
L 1201.593667 458.75895 
L 1202.586373 457.919829 
L 1203.579078 458.110676 
L 1204.571784 460.475169 
L 1206.557196 458.853177 
L 1207.549902 457.011993 
L 1208.542608 456.755694 
L 1209.535314 456.876525 
L 1210.52802 458.163975 
L 1211.520726 456.907874 
L 1212.513432 456.678236 
L 1213.506138 458.243144 
L 1214.498844 459.451759 
L 1215.49155 456.363279 
L 1216.484255 457.560986 
L 1217.476961 456.336646 
L 1218.469667 459.027102 
L 1219.462373 459.99718 
L 1220.455079 458.499999 
L 1221.447785 457.953115 
L 1222.440491 456.954771 
L 1223.433197 456.637974 
L 1224.425903 457.66654 
L 1226.411315 457.997683 
L 1227.404021 461.07806 
L 1228.396727 457.326408 
L 1229.389432 458.013355 
L 1230.382138 457.848101 
L 1231.374844 457.425852 
L 1232.36755 458.726161 
L 1233.360256 458.321488 
L 1234.352962 456.548914 
L 1235.345668 459.792176 
L 1236.338374 458.30645 
L 1237.33108 459.782634 
L 1238.323786 456.802654 
L 1239.316492 458.12771 
L 1240.309198 457.277058 
L 1241.301904 455.906318 
L 1242.29461 459.381115 
L 1243.287315 458.677471 
L 1244.280021 457.15934 
L 1245.272727 457.737675 
L 1245.272727 457.737675 
" clip-path="url(#pacdecc6f15)" style="fill: none; stroke: #1f77b4; stroke-width: 1.5; stroke-linecap: square"/>
   </g>
   <g id="patch_3">
    <path d="M 180 512.64 
L 180 69.12 
" style="fill: none; stroke: #000000; stroke-width: 0.8; stroke-linejoin: miter; stroke-linecap: square"/>
   </g>
   <g id="patch_4">
    <path d="M 1296 512.64 
L 1296 69.12 
" style="fill: none; stroke: #000000; stroke-width: 0.8; stroke-linejoin: miter; stroke-linecap: square"/>
   </g>
   <g id="patch_5">
    <path d="M 180 512.64 
L 1296 512.64 
" style="fill: none; stroke: #000000; stroke-width: 0.8; stroke-linejoin: miter; stroke-linecap: square"/>
   </g>
   <g id="patch_6">
    <path d="M 180 69.12 
L 1296 69.12 
" style="fill: none; stroke: #000000; stroke-width: 0.8; stroke-linejoin: miter; stroke-linecap: square"/>
   </g>
   <g id="text_12">
    <!-- source18-receiver16 -->
    <g transform="translate(532.175 60.80125) scale(0.4 -0.4)">
     <defs>
      <path id="DejaVuSans-73" d="M 2834 3397 
L 2834 2853 
Q 2591 2978 2328 3040 
Q 2066 3103 1784 3103 
Q 1356 3103 1142 2972 
Q 928 2841 928 2578 
Q 928 2378 1081 2264 
Q 1234 2150 1697 2047 
L 1894 2003 
Q 2506 1872 2764 1633 
Q 3022 1394 3022 966 
Q 3022 478 2636 193 
Q 2250 -91 1575 -91 
Q 1294 -91 989 -36 
Q 684 19 347 128 
L 347 722 
Q 666 556 975 473 
Q 1284 391 1588 391 
Q 1994 391 2212 530 
Q 2431 669 2431 922 
Q 2431 1156 2273 1281 
Q 2116 1406 1581 1522 
L 1381 1569 
Q 847 1681 609 1914 
Q 372 2147 372 2553 
Q 372 3047 722 3315 
Q 1072 3584 1716 3584 
Q 2034 3584 2315 3537 
Q 2597 3491 2834 3397 
z
" transform="scale(0.015625)"/>
      <path id="DejaVuSans-6f" d="M 1959 3097 
Q 1497 3097 1228 2736 
Q 959 2375 959 1747 
Q 959 1119 1226 758 
Q 1494 397 1959 397 
Q 2419 397 2687 759 
Q 2956 1122 2956 1747 
Q 2956 2369 2687 2733 
Q 2419 3097 1959 3097 
z
M 1959 3584 
Q 2709 3584 3137 3096 
Q 3566 2609 3566 1747 
Q 3566 888 3137 398 
Q 2709 -91 1959 -91 
Q 1206 -91 779 398 
Q 353 888 353 1747 
Q 353 2609 779 3096 
Q 1206 3584 1959 3584 
z
" transform="scale(0.015625)"/>
      <path id="DejaVuSans-75" d="M 544 1381 
L 544 3500 
L 1119 3500 
L 1119 1403 
Q 1119 906 1312 657 
Q 1506 409 1894 409 
Q 2359 409 2629 706 
Q 2900 1003 2900 1516 
L 2900 3500 
L 3475 3500 
L 3475 0 
L 2900 0 
L 2900 538 
Q 2691 219 2414 64 
Q 2138 -91 1772 -91 
Q 1169 -91 856 284 
Q 544 659 544 1381 
z
M 1991 3584 
L 1991 3584 
z
" transform="scale(0.015625)"/>
      <path id="DejaVuSans-72" d="M 2631 2963 
Q 2534 3019 2420 3045 
Q 2306 3072 2169 3072 
Q 1681 3072 1420 2755 
Q 1159 2438 1159 1844 
L 1159 0 
L 581 0 
L 581 3500 
L 1159 3500 
L 1159 2956 
Q 1341 3275 1631 3429 
Q 1922 3584 2338 3584 
Q 2397 3584 2469 3576 
Q 2541 3569 2628 3553 
L 2631 2963 
z
" transform="scale(0.015625)"/>
      <path id="DejaVuSans-63" d="M 3122 3366 
L 3122 2828 
Q 2878 2963 2633 3030 
Q 2388 3097 2138 3097 
Q 1578 3097 1268 2742 
Q 959 2388 959 1747 
Q 959 1106 1268 751 
Q 1578 397 2138 397 
Q 2388 397 2633 464 
Q 2878 531 3122 666 
L 3122 134 
Q 2881 22 2623 -34 
Q 2366 -91 2075 -91 
Q 1284 -91 818 406 
Q 353 903 353 1747 
Q 353 2603 823 3093 
Q 1294 3584 2113 3584 
Q 2378 3584 2631 3529 
Q 2884 3475 3122 3366 
z
" transform="scale(0.015625)"/>
      <path id="DejaVuSans-65" d="M 3597 1894 
L 3597 1613 
L 953 1613 
Q 991 1019 1311 708 
Q 1631 397 2203 397 
Q 2534 397 2845 478 
Q 3156 559 3463 722 
L 3463 178 
Q 3153 47 2828 -22 
Q 2503 -91 2169 -91 
Q 1331 -91 842 396 
Q 353 884 353 1716 
Q 353 2575 817 3079 
Q 1281 3584 2069 3584 
Q 2775 3584 3186 3129 
Q 3597 2675 3597 1894 
z
M 3022 2063 
Q 3016 2534 2758 2815 
Q 2500 3097 2075 3097 
Q 1594 3097 1305 2825 
Q 1016 2553 972 2059 
L 3022 2063 
z
" transform="scale(0.015625)"/>
      <path id="DejaVuSans-38" d="M 2034 2216 
Q 1584 2216 1326 1975 
Q 1069 1734 1069 1313 
Q 1069 891 1326 650 
Q 1584 409 2034 409 
Q 2484 409 2743 651 
Q 3003 894 3003 1313 
Q 3003 1734 2745 1975 
Q 2488 2216 2034 2216 
z
M 1403 2484 
Q 997 2584 770 2862 
Q 544 3141 544 3541 
Q 544 4100 942 4425 
Q 1341 4750 2034 4750 
Q 2731 4750 3128 4425 
Q 3525 4100 3525 3541 
Q 3525 3141 3298 2862 
Q 3072 2584 2669 2484 
Q 3125 2378 3379 2068 
Q 3634 1759 3634 1313 
Q 3634 634 3220 271 
Q 2806 -91 2034 -91 
Q 1263 -91 848 271 
Q 434 634 434 1313 
Q 434 1759 690 2068 
Q 947 2378 1403 2484 
z
M 1172 3481 
Q 1172 3119 1398 2916 
Q 1625 2713 2034 2713 
Q 2441 2713 2670 2916 
Q 2900 3119 2900 3481 
Q 2900 3844 2670 4047 
Q 2441 4250 2034 4250 
Q 1625 4250 1398 4047 
Q 1172 3844 1172 3481 
z
" transform="scale(0.015625)"/>
      <path id="DejaVuSans-2d" d="M 313 2009 
L 1997 2009 
L 1997 1497 
L 313 1497 
L 313 2009 
z
" transform="scale(0.015625)"/>
      <path id="DejaVuSans-69" d="M 603 3500 
L 1178 3500 
L 1178 0 
L 603 0 
L 603 3500 
z
M 603 4863 
L 1178 4863 
L 1178 4134 
L 603 4134 
L 603 4863 
z
" transform="scale(0.015625)"/>
      <path id="DejaVuSans-76" d="M 191 3500 
L 800 3500 
L 1894 563 
L 2988 3500 
L 3597 3500 
L 2284 0 
L 1503 0 
L 191 3500 
z
" transform="scale(0.015625)"/>
      <path id="DejaVuSans-36" d="M 2113 2584 
Q 1688 2584 1439 2293 
Q 1191 2003 1191 1497 
Q 1191 994 1439 701 
Q 1688 409 2113 409 
Q 2538 409 2786 701 
Q 3034 994 3034 1497 
Q 3034 2003 2786 2293 
Q 2538 2584 2113 2584 
z
M 3366 4563 
L 3366 3988 
Q 3128 4100 2886 4159 
Q 2644 4219 2406 4219 
Q 1781 4219 1451 3797 
Q 1122 3375 1075 2522 
Q 1259 2794 1537 2939 
Q 1816 3084 2150 3084 
Q 2853 3084 3261 2657 
Q 3669 2231 3669 1497 
Q 3669 778 3244 343 
Q 2819 -91 2113 -91 
Q 1303 -91 875 529 
Q 447 1150 447 2328 
Q 447 3434 972 4092 
Q 1497 4750 2381 4750 
Q 2619 4750 2861 4703 
Q 3103 4656 3366 4563 
z
" transform="scale(0.015625)"/>
     </defs>
     <use xlink:href="#DejaVuSans-73"/>
     <use xlink:href="#DejaVuSans-6f" x="52.099609"/>
     <use xlink:href="#DejaVuSans-75" x="113.28125"/>
     <use xlink:href="#DejaVuSans-72" x="176.660156"/>
     <use xlink:href="#DejaVuSans-63" x="215.523438"/>
     <use xlink:href="#DejaVuSans-65" x="270.503906"/>
     <use xlink:href="#DejaVuSans-31" x="332.027344"/>
     <use xlink:href="#DejaVuSans-38" x="395.650391"/>
     <use xlink:href="#DejaVuSans-2d" x="459.273438"/>
     <use xlink:href="#DejaVuSans-72" x="495.357422"/>
     <use xlink:href="#DejaVuSans-65" x="534.220703"/>
     <use xlink:href="#DejaVuSans-63" x="595.744141"/>
     <use xlink:href="#DejaVuSans-65" x="650.724609"/>
     <use xlink:href="#DejaVuSans-69" x="712.248047"/>
     <use xlink:href="#DejaVuSans-76" x="740.03125"/>
     <use xlink:href="#DejaVuSans-65" x="799.210938"/>
     <use xlink:href="#DejaVuSans-72" x="860.734375"/>
     <use xlink:href="#DejaVuSans-31" x="901.847656"/>
     <use xlink:href="#DejaVuSans-36" x="965.470703"/>
    </g>
   </g>
  </g>
 </g>
 <defs>
  <clipPath id="pacdecc6f15">
   <rect x="180" y="69.12" width="1116" height="443.52"/>
  </clipPath>
 </defs>
</svg>
