<?xml version="1.0" encoding="utf-8" standalone="no"?>
<!DOCTYPE svg PUBLIC "-//W3C//DTD SVG 1.1//EN"
  "http://www.w3.org/Graphics/SVG/1.1/DTD/svg11.dtd">
<svg xmlns:xlink="http://www.w3.org/1999/xlink" width="1440pt" height="576pt" viewBox="0 0 1440 576" xmlns="http://www.w3.org/2000/svg" version="1.1">
 <metadata>
  <rdf:RDF xmlns:dc="http://purl.org/dc/elements/1.1/" xmlns:cc="http://creativecommons.org/ns#" xmlns:rdf="http://www.w3.org/1999/02/22-rdf-syntax-ns#">
   <cc:Work>
    <dc:type rdf:resource="http://purl.org/dc/dcmitype/StillImage"/>
    <dc:date>2024-05-22T04:50:13.990660</dc:date>
    <dc:format>image/svg+xml</dc:format>
    <dc:creator>
     <cc:Agent>
      <dc:title>Matplotlib v3.8.3, https://matplotlib.org/</dc:title>
     </cc:Agent>
    </dc:creator>
   </cc:Work>
  </rdf:RDF>
 </metadata>
 <defs>
  <style type="text/css">*{stroke-linejoin: round; stroke-linecap: butt}</style>
 </defs>
 <g id="figure_1">
  <g id="patch_1">
   <path d="M 0 576 
L 1440 576 
L 1440 0 
L 0 0 
z
" style="fill: #ffffff"/>
  </g>
  <g id="axes_1">
   <g id="patch_2">
    <path d="M 180 512.64 
L 1296 512.64 
L 1296 69.12 
L 180 69.12 
z
" style="fill: #ffffff"/>
   </g>
   <g id="matplotlib.axis_1">
    <g id="xtick_1">
     <g id="line2d_1">
      <defs>
       <path id="mfc0e30276c" d="M 0 0 
L 0 3.5 
" style="stroke: #000000; stroke-width: 0.8"/>
      </defs>
      <g>
       <use xlink:href="#mfc0e30276c" x="229.734567" y="512.64" style="stroke: #000000; stroke-width: 0.8"/>
      </g>
     </g>
     <g id="text_1">
      <!-- 0 -->
      <g transform="translate(226.553317 527.238438) scale(0.1 -0.1)">
       <defs>
        <path id="DejaVuSans-30" d="M 2034 4250 
Q 1547 4250 1301 3770 
Q 1056 3291 1056 2328 
Q 1056 1369 1301 889 
Q 1547 409 2034 409 
Q 2525 409 2770 889 
Q 3016 1369 3016 2328 
Q 3016 3291 2770 3770 
Q 2525 4250 2034 4250 
z
M 2034 4750 
Q 2819 4750 3233 4129 
Q 3647 3509 3647 2328 
Q 3647 1150 3233 529 
Q 2819 -91 2034 -91 
Q 1250 -91 836 529 
Q 422 1150 422 2328 
Q 422 3509 836 4129 
Q 1250 4750 2034 4750 
z
" transform="scale(0.015625)"/>
       </defs>
       <use xlink:href="#DejaVuSans-30"/>
      </g>
     </g>
    </g>
    <g id="xtick_2">
     <g id="line2d_2">
      <g>
       <use xlink:href="#mfc0e30276c" x="433.04074" y="512.64" style="stroke: #000000; stroke-width: 0.8"/>
      </g>
     </g>
     <g id="text_2">
      <!-- 500 -->
      <g transform="translate(423.49699 527.238438) scale(0.1 -0.1)">
       <defs>
        <path id="DejaVuSans-35" d="M 691 4666 
L 3169 4666 
L 3169 4134 
L 1269 4134 
L 1269 2991 
Q 1406 3038 1543 3061 
Q 1681 3084 1819 3084 
Q 2600 3084 3056 2656 
Q 3513 2228 3513 1497 
Q 3513 744 3044 326 
Q 2575 -91 1722 -91 
Q 1428 -91 1123 -41 
Q 819 9 494 109 
L 494 744 
Q 775 591 1075 516 
Q 1375 441 1709 441 
Q 2250 441 2565 725 
Q 2881 1009 2881 1497 
Q 2881 1984 2565 2268 
Q 2250 2553 1709 2553 
Q 1456 2553 1204 2497 
Q 953 2441 691 2322 
L 691 4666 
z
" transform="scale(0.015625)"/>
       </defs>
       <use xlink:href="#DejaVuSans-35"/>
       <use xlink:href="#DejaVuSans-30" x="63.623047"/>
       <use xlink:href="#DejaVuSans-30" x="127.246094"/>
      </g>
     </g>
    </g>
    <g id="xtick_3">
     <g id="line2d_3">
      <g>
       <use xlink:href="#mfc0e30276c" x="636.346913" y="512.64" style="stroke: #000000; stroke-width: 0.8"/>
      </g>
     </g>
     <g id="text_3">
      <!-- 1000 -->
      <g transform="translate(623.621913 527.238438) scale(0.1 -0.1)">
       <defs>
        <path id="DejaVuSans-31" d="M 794 531 
L 1825 531 
L 1825 4091 
L 703 3866 
L 703 4441 
L 1819 4666 
L 2450 4666 
L 2450 531 
L 3481 531 
L 3481 0 
L 794 0 
L 794 531 
z
" transform="scale(0.015625)"/>
       </defs>
       <use xlink:href="#DejaVuSans-31"/>
       <use xlink:href="#DejaVuSans-30" x="63.623047"/>
       <use xlink:href="#DejaVuSans-30" x="127.246094"/>
       <use xlink:href="#DejaVuSans-30" x="190.869141"/>
      </g>
     </g>
    </g>
    <g id="xtick_4">
     <g id="line2d_4">
      <g>
       <use xlink:href="#mfc0e30276c" x="839.653087" y="512.64" style="stroke: #000000; stroke-width: 0.8"/>
      </g>
     </g>
     <g id="text_4">
      <!-- 1500 -->
      <g transform="translate(826.928087 527.238438) scale(0.1 -0.1)">
       <use xlink:href="#DejaVuSans-31"/>
       <use xlink:href="#DejaVuSans-35" x="63.623047"/>
       <use xlink:href="#DejaVuSans-30" x="127.246094"/>
       <use xlink:href="#DejaVuSans-30" x="190.869141"/>
      </g>
     </g>
    </g>
    <g id="xtick_5">
     <g id="line2d_5">
      <g>
       <use xlink:href="#mfc0e30276c" x="1042.95926" y="512.64" style="stroke: #000000; stroke-width: 0.8"/>
      </g>
     </g>
     <g id="text_5">
      <!-- 2000 -->
      <g transform="translate(1030.23426 527.238438) scale(0.1 -0.1)">
       <defs>
        <path id="DejaVuSans-32" d="M 1228 531 
L 3431 531 
L 3431 0 
L 469 0 
L 469 531 
Q 828 903 1448 1529 
Q 2069 2156 2228 2338 
Q 2531 2678 2651 2914 
Q 2772 3150 2772 3378 
Q 2772 3750 2511 3984 
Q 2250 4219 1831 4219 
Q 1534 4219 1204 4116 
Q 875 4013 500 3803 
L 500 4441 
Q 881 4594 1212 4672 
Q 1544 4750 1819 4750 
Q 2544 4750 2975 4387 
Q 3406 4025 3406 3419 
Q 3406 3131 3298 2873 
Q 3191 2616 2906 2266 
Q 2828 2175 2409 1742 
Q 1991 1309 1228 531 
z
" transform="scale(0.015625)"/>
       </defs>
       <use xlink:href="#DejaVuSans-32"/>
       <use xlink:href="#DejaVuSans-30" x="63.623047"/>
       <use xlink:href="#DejaVuSans-30" x="127.246094"/>
       <use xlink:href="#DejaVuSans-30" x="190.869141"/>
      </g>
     </g>
    </g>
    <g id="xtick_6">
     <g id="line2d_6">
      <g>
       <use xlink:href="#mfc0e30276c" x="1246.265433" y="512.64" style="stroke: #000000; stroke-width: 0.8"/>
      </g>
     </g>
     <g id="text_6">
      <!-- 2500 -->
      <g transform="translate(1233.540433 527.238438) scale(0.1 -0.1)">
       <use xlink:href="#DejaVuSans-32"/>
       <use xlink:href="#DejaVuSans-35" x="63.623047"/>
       <use xlink:href="#DejaVuSans-30" x="127.246094"/>
       <use xlink:href="#DejaVuSans-30" x="190.869141"/>
      </g>
     </g>
    </g>
   </g>
   <g id="matplotlib.axis_2">
    <g id="ytick_1">
     <g id="line2d_7">
      <defs>
       <path id="mdd20f6db57" d="M 0 0 
L -3.5 0 
" style="stroke: #000000; stroke-width: 0.8"/>
      </defs>
      <g>
       <use xlink:href="#mdd20f6db57" x="180" y="504.097561" style="stroke: #000000; stroke-width: 0.8"/>
      </g>
     </g>
     <g id="text_7">
      <!-- −2 -->
      <g transform="translate(158.257812 507.89678) scale(0.1 -0.1)">
       <defs>
        <path id="DejaVuSans-2212" d="M 678 2272 
L 4684 2272 
L 4684 1741 
L 678 1741 
L 678 2272 
z
" transform="scale(0.015625)"/>
       </defs>
       <use xlink:href="#DejaVuSans-2212"/>
       <use xlink:href="#DejaVuSans-32" x="83.789062"/>
      </g>
     </g>
    </g>
    <g id="ytick_2">
     <g id="line2d_8">
      <g>
       <use xlink:href="#mdd20f6db57" x="180" y="439.82987" style="stroke: #000000; stroke-width: 0.8"/>
      </g>
     </g>
     <g id="text_8">
      <!-- −1 -->
      <g transform="translate(158.257812 443.629089) scale(0.1 -0.1)">
       <use xlink:href="#DejaVuSans-2212"/>
       <use xlink:href="#DejaVuSans-31" x="83.789062"/>
      </g>
     </g>
    </g>
    <g id="ytick_3">
     <g id="line2d_9">
      <g>
       <use xlink:href="#mdd20f6db57" x="180" y="375.562178" style="stroke: #000000; stroke-width: 0.8"/>
      </g>
     </g>
     <g id="text_9">
      <!-- 0 -->
      <g transform="translate(166.6375 379.361397) scale(0.1 -0.1)">
       <use xlink:href="#DejaVuSans-30"/>
      </g>
     </g>
    </g>
    <g id="ytick_4">
     <g id="line2d_10">
      <g>
       <use xlink:href="#mdd20f6db57" x="180" y="311.294487" style="stroke: #000000; stroke-width: 0.8"/>
      </g>
     </g>
     <g id="text_10">
      <!-- 1 -->
      <g transform="translate(166.6375 315.093706) scale(0.1 -0.1)">
       <use xlink:href="#DejaVuSans-31"/>
      </g>
     </g>
    </g>
    <g id="ytick_5">
     <g id="line2d_11">
      <g>
       <use xlink:href="#mdd20f6db57" x="180" y="247.026795" style="stroke: #000000; stroke-width: 0.8"/>
      </g>
     </g>
     <g id="text_11">
      <!-- 2 -->
      <g transform="translate(166.6375 250.826014) scale(0.1 -0.1)">
       <use xlink:href="#DejaVuSans-32"/>
      </g>
     </g>
    </g>
    <g id="ytick_6">
     <g id="line2d_12">
      <g>
       <use xlink:href="#mdd20f6db57" x="180" y="182.759104" style="stroke: #000000; stroke-width: 0.8"/>
      </g>
     </g>
     <g id="text_12">
      <!-- 3 -->
      <g transform="translate(166.6375 186.558323) scale(0.1 -0.1)">
       <defs>
        <path id="DejaVuSans-33" d="M 2597 2516 
Q 3050 2419 3304 2112 
Q 3559 1806 3559 1356 
Q 3559 666 3084 287 
Q 2609 -91 1734 -91 
Q 1441 -91 1130 -33 
Q 819 25 488 141 
L 488 750 
Q 750 597 1062 519 
Q 1375 441 1716 441 
Q 2309 441 2620 675 
Q 2931 909 2931 1356 
Q 2931 1769 2642 2001 
Q 2353 2234 1838 2234 
L 1294 2234 
L 1294 2753 
L 1863 2753 
Q 2328 2753 2575 2939 
Q 2822 3125 2822 3475 
Q 2822 3834 2567 4026 
Q 2313 4219 1838 4219 
Q 1578 4219 1281 4162 
Q 984 4106 628 3988 
L 628 4550 
Q 988 4650 1302 4700 
Q 1616 4750 1894 4750 
Q 2613 4750 3031 4423 
Q 3450 4097 3450 3541 
Q 3450 3153 3228 2886 
Q 3006 2619 2597 2516 
z
" transform="scale(0.015625)"/>
       </defs>
       <use xlink:href="#DejaVuSans-33"/>
      </g>
     </g>
    </g>
    <g id="ytick_7">
     <g id="line2d_13">
      <g>
       <use xlink:href="#mdd20f6db57" x="180" y="118.491412" style="stroke: #000000; stroke-width: 0.8"/>
      </g>
     </g>
     <g id="text_13">
      <!-- 4 -->
      <g transform="translate(166.6375 122.290631) scale(0.1 -0.1)">
       <defs>
        <path id="DejaVuSans-34" d="M 2419 4116 
L 825 1625 
L 2419 1625 
L 2419 4116 
z
M 2253 4666 
L 3047 4666 
L 3047 1625 
L 3713 1625 
L 3713 1100 
L 3047 1100 
L 3047 0 
L 2419 0 
L 2419 1100 
L 313 1100 
L 313 1709 
L 2253 4666 
z
" transform="scale(0.015625)"/>
       </defs>
       <use xlink:href="#DejaVuSans-34"/>
      </g>
     </g>
    </g>
   </g>
   <g id="line2d_14">
    <path d="M 230.727273 381.121816 
L 231.719979 380.839291 
L 232.712685 379.91514 
L 233.70539 378.802644 
L 234.698096 377.413829 
L 235.690802 375.72891 
L 236.683508 373.740776 
L 238.66892 368.986898 
L 239.661626 366.183577 
L 241.647038 359.630817 
L 242.639744 355.909966 
L 244.625156 347.518548 
L 245.617862 344.876784 
L 246.610568 340.717114 
L 247.603273 319.805686 
L 248.595979 286.260638 
L 249.588685 256.484337 
L 250.581391 236.763445 
L 251.574097 227.107766 
L 252.566803 224.973159 
L 253.559509 229.124876 
L 254.552215 236.35047 
L 255.544921 250.218276 
L 256.537627 281.917351 
L 257.530333 306.337194 
L 258.523039 271.944741 
L 259.515745 263.447667 
L 260.50845 261.305574 
L 261.501156 231.833131 
L 262.493862 212.576703 
L 263.486568 215.293593 
L 264.479274 234.390257 
L 265.47198 227.421933 
L 266.464686 217.143174 
L 268.450098 268.482995 
L 269.442804 195.479391 
L 270.43551 170.441492 
L 271.428216 168.389003 
L 272.420922 183.852973 
L 273.413627 212.360133 
L 274.406333 208.53892 
L 275.399039 172.115435 
L 276.391745 153.405407 
L 277.384451 157.519151 
L 278.377157 182.421433 
L 279.369863 151.04284 
L 280.362569 110.629743 
L 281.355275 91.526687 
L 282.347981 89.28 
L 283.340687 104.425015 
L 284.333393 142.09958 
L 285.326099 158.518447 
L 286.318804 128.216804 
L 287.31151 123.776879 
L 288.304216 145.960723 
L 289.296922 187.572407 
L 290.289628 172.484779 
L 291.282334 166.709923 
L 292.27504 199.969598 
L 293.267746 252.103552 
L 294.260452 204.648283 
L 295.253158 207.759424 
L 296.245864 244.336982 
L 297.23857 230.443767 
L 298.231276 223.101411 
L 299.223981 264.257281 
L 300.216687 312.005946 
L 301.209393 256.019426 
L 302.202099 274.478204 
L 303.194805 312.171343 
L 304.187511 263.253842 
L 305.180217 264.42642 
L 306.172923 322.57737 
L 307.165629 320.909227 
L 308.158335 288.187218 
L 309.151041 309.392987 
L 310.143747 343.831647 
L 311.136453 320.236955 
L 312.129159 316.363176 
L 313.121864 329.214852 
L 314.11457 329.024153 
L 315.107276 330.468742 
L 316.099982 333.784199 
L 317.092688 332.498776 
L 318.085394 333.774649 
L 319.0781 336.858403 
L 320.070806 340.882043 
L 321.063512 343.382484 
L 322.056218 338.422866 
L 324.04163 345.680283 
L 325.034336 344.493021 
L 326.027041 347.720126 
L 327.019747 353.005193 
L 328.012453 348.011714 
L 329.005159 347.107984 
L 329.997865 353.932414 
L 331.983277 348.910828 
L 332.975983 356.062902 
L 333.968689 356.873476 
L 334.961395 351.495879 
L 335.954101 357.404291 
L 336.946807 361.920063 
L 337.939513 355.214772 
L 338.932218 359.58273 
L 339.924924 367.854984 
L 340.91763 363.065613 
L 341.910336 362.128315 
L 342.903042 367.629763 
L 343.895748 369.263891 
L 344.888454 364.769913 
L 345.88116 365.159523 
L 346.873866 370.6649 
L 347.866572 367.542703 
L 348.859278 368.189611 
L 349.851984 373.336015 
L 350.84469 373.768426 
L 351.837395 371.089097 
L 352.830101 372.583364 
L 353.822807 373.005175 
L 354.815513 372.019347 
L 355.808219 374.27575 
L 356.800925 380.94214 
L 357.793631 375.099599 
L 358.786337 374.275235 
L 359.779043 382.178257 
L 360.771749 385.262656 
L 361.764455 374.646804 
L 362.757161 382.713567 
L 363.749867 382.180118 
L 364.742572 376.548829 
L 365.735278 377.397148 
L 366.727984 386.756672 
L 367.72069 383.904412 
L 368.713396 380.577772 
L 369.706102 386.396844 
L 370.698808 386.46099 
L 371.691514 383.450704 
L 372.68422 383.380827 
L 373.676926 388.925881 
L 374.669632 384.976297 
L 375.662338 386.3712 
L 376.655044 387.431993 
L 377.64775 385.491987 
L 379.633161 389.213074 
L 380.625867 386.178617 
L 381.618573 391.997144 
L 382.611279 389.210514 
L 383.603985 398.527798 
L 384.596691 393.3663 
L 385.589397 389.85779 
L 386.582103 392.376974 
L 387.574809 392.35131 
L 388.567515 396.069299 
L 389.560221 395.623158 
L 390.552927 396.001598 
L 391.545632 392.764897 
L 392.538338 394.445974 
L 393.531044 399.049264 
L 395.516456 395.359758 
L 396.509162 399.538637 
L 397.501868 393.796378 
L 398.494574 397.596486 
L 399.48728 407.375504 
L 400.479986 404.274617 
L 401.472692 399.956514 
L 402.465398 402.793405 
L 403.458104 398.489015 
L 404.450809 401.847648 
L 405.443515 400.323922 
L 406.436221 403.007859 
L 407.428927 403.317002 
L 408.421633 410.038482 
L 409.414339 403.401776 
L 410.407045 403.778838 
L 411.399751 401.909185 
L 412.392457 403.405647 
L 413.385163 401.513545 
L 414.377869 405.02877 
L 415.370575 406.308297 
L 417.355986 407.620562 
L 418.348692 405.114094 
L 419.341398 406.636011 
L 420.334104 407.653539 
L 421.32681 405.661484 
L 422.319516 415.252807 
L 423.312222 409.583737 
L 424.304928 406.197334 
L 425.297634 406.932938 
L 426.29034 410.751599 
L 427.283046 412.522811 
L 428.275752 411.324183 
L 429.268458 409.446587 
L 430.261163 410.631417 
L 431.253869 410.359029 
L 432.246575 414.012192 
L 433.239281 407.922952 
L 434.231987 418.391645 
L 435.224693 409.784832 
L 436.217399 416.095503 
L 437.210105 411.123395 
L 438.202811 418.68011 
L 439.195517 421.380346 
L 440.188223 411.470289 
L 441.180929 408.057893 
L 442.173635 414.620797 
L 443.166341 416.291492 
L 444.159046 411.588666 
L 445.151752 418.912369 
L 446.144458 417.506738 
L 447.137164 418.239759 
L 448.12987 414.32372 
L 449.122576 417.592129 
L 450.115282 417.31141 
L 451.107988 416.798179 
L 452.100694 418.587351 
L 453.0934 418.5301 
L 454.086106 425.392787 
L 455.078812 419.442701 
L 456.071518 418.988477 
L 457.064223 416.746221 
L 458.056929 417.150863 
L 459.049635 421.068142 
L 460.042341 417.62078 
L 461.035047 430.596817 
L 462.027753 426.721849 
L 463.020459 418.843409 
L 464.013165 421.462791 
L 465.005871 422.865407 
L 465.998577 422.187244 
L 466.991283 422.065706 
L 467.983989 431.448321 
L 468.976695 423.12887 
L 469.9694 417.657505 
L 470.962106 423.769492 
L 471.954812 425.829566 
L 472.947518 432.829842 
L 473.940224 424.858198 
L 474.93293 425.197658 
L 475.925636 424.872722 
L 476.918342 422.159276 
L 477.911048 429.728507 
L 478.903754 431.105269 
L 479.89646 422.845089 
L 480.889166 436.166794 
L 481.881872 421.709302 
L 482.874577 424.967068 
L 483.867283 421.673565 
L 484.859989 425.861107 
L 485.852695 428.985711 
L 486.845401 433.231506 
L 487.838107 424.804844 
L 488.830813 429.939083 
L 489.823519 423.697751 
L 490.816225 431.324018 
L 491.808931 423.221512 
L 493.794343 429.229881 
L 494.787049 433.016114 
L 495.779754 434.917642 
L 496.77246 445.077443 
L 497.765166 429.4715 
L 498.757872 431.97423 
L 499.750578 425.549997 
L 500.743284 433.598585 
L 501.73599 428.288515 
L 502.728696 431.965253 
L 503.721402 432.35112 
L 504.714108 429.95037 
L 505.706814 435.840792 
L 506.69952 428.556246 
L 507.692226 434.73798 
L 508.684932 436.395397 
L 509.677637 434.110578 
L 510.670343 435.100907 
L 511.663049 436.490519 
L 512.655755 431.932686 
L 513.648461 435.963927 
L 514.641167 441.100127 
L 515.633873 435.400151 
L 516.626579 431.772802 
L 518.611991 444.880868 
L 519.604697 434.66413 
L 520.597403 428.428118 
L 521.590109 431.344787 
L 522.582814 433.018937 
L 523.57552 438.970871 
L 524.568226 440.316157 
L 525.560932 437.312954 
L 526.553638 440.206031 
L 527.546344 438.601713 
L 528.53905 435.88346 
L 530.524462 443.645658 
L 531.517168 441.793963 
L 532.509874 437.079494 
L 533.50258 433.139793 
L 534.495286 437.840141 
L 535.487991 447.896845 
L 536.480697 441.586749 
L 537.473403 437.321266 
L 538.466109 440.377851 
L 539.458815 442.762399 
L 540.451521 435.066992 
L 541.444227 445.842613 
L 543.429639 445.782636 
L 544.422345 440.934499 
L 545.415051 443.78082 
L 546.407757 447.093555 
L 547.400463 444.48066 
L 548.393168 444.706457 
L 549.385874 439.930522 
L 550.37858 441.562899 
L 551.371286 435.38706 
L 552.363992 445.35421 
L 553.356698 448.979283 
L 554.349404 435.365775 
L 555.34211 441.640478 
L 556.334816 440.273351 
L 557.327522 442.717581 
L 558.320228 441.396043 
L 560.30564 446.419827 
L 561.298345 453.123212 
L 562.291051 452.953395 
L 563.283757 439.865922 
L 564.276463 437.961604 
L 565.269169 443.797206 
L 566.261875 441.679127 
L 567.254581 451.634736 
L 568.247287 443.418952 
L 569.239993 440.154182 
L 570.232699 442.53379 
L 571.225405 448.449196 
L 572.218111 449.125934 
L 573.210817 447.248548 
L 575.196228 448.567092 
L 576.188934 448.267938 
L 577.18164 449.040837 
L 578.174346 448.192511 
L 579.167052 447.602192 
L 580.159758 451.857468 
L 582.14517 445.33851 
L 583.137876 450.524997 
L 584.130582 446.341483 
L 585.123288 453.055557 
L 586.115994 440.581509 
L 587.1087 455.341293 
L 588.101405 454.060944 
L 589.094111 450.764948 
L 590.086817 453.722317 
L 591.079523 450.56998 
L 592.072229 451.112954 
L 593.064935 448.505539 
L 594.057641 450.574934 
L 595.050347 452.279986 
L 596.043053 454.278768 
L 597.035759 448.069829 
L 598.028465 450.545522 
L 599.021171 449.47326 
L 600.013877 454.279732 
L 601.006582 448.628228 
L 601.999288 449.618043 
L 602.991994 454.56451 
L 603.9847 458.903962 
L 604.977406 453.790783 
L 605.970112 453.360289 
L 606.962818 452.188805 
L 607.955524 458.391422 
L 609.940936 452.080049 
L 610.933642 455.565347 
L 611.926348 449.445485 
L 613.911759 455.95685 
L 614.904465 461.600957 
L 615.897171 452.152366 
L 616.889877 453.351572 
L 617.882583 459.876438 
L 618.875289 455.154928 
L 619.867995 449.51352 
L 620.860701 454.093631 
L 621.853407 457.130011 
L 622.846113 455.657581 
L 623.838819 450.398464 
L 624.831525 454.85761 
L 625.824231 458.408169 
L 626.816936 454.903742 
L 627.809642 453.603035 
L 629.795054 458.845325 
L 630.78776 454.289275 
L 631.780466 455.920412 
L 632.773172 455.428119 
L 633.765878 458.270725 
L 634.758584 457.27007 
L 635.75129 459.598452 
L 636.743996 457.84389 
L 637.736702 457.219573 
L 638.729408 457.04457 
L 640.714819 456.491908 
L 641.707525 458.52155 
L 642.700231 458.249538 
L 643.692937 458.356673 
L 644.685643 457.872778 
L 645.678349 457.874002 
L 646.671055 459.389461 
L 647.663761 460.142101 
L 648.656467 459.911822 
L 649.649173 459.073755 
L 650.641879 461.086195 
L 651.634585 457.971271 
L 652.627291 460.185142 
L 653.619996 457.344664 
L 654.612702 458.356768 
L 655.605408 460.498966 
L 656.598114 459.165497 
L 657.59082 460.295425 
L 658.583526 461.022309 
L 659.576232 459.641234 
L 660.568938 460.613267 
L 661.561644 461.32859 
L 662.55435 461.851007 
L 663.547056 459.820002 
L 665.532468 459.911454 
L 666.525173 460.980923 
L 667.517879 461.197451 
L 668.510585 461.662145 
L 669.503291 459.378286 
L 670.495997 462.41862 
L 671.488703 461.432868 
L 672.481409 460.955048 
L 673.474115 462.53793 
L 674.466821 461.69616 
L 675.459527 461.718051 
L 676.452233 462.18588 
L 677.444939 461.222119 
L 678.437645 462.757869 
L 679.43035 462.508175 
L 680.423056 462.513571 
L 681.415762 463.14496 
L 682.408468 462.938687 
L 683.401174 462.421609 
L 684.39388 463.984904 
L 685.386586 463.460306 
L 686.379292 463.591971 
L 687.371998 463.086588 
L 688.364704 464.279562 
L 689.35741 463.564207 
L 690.350116 464.250883 
L 691.342822 464.33561 
L 692.335527 464.235745 
L 693.328233 464.750715 
L 694.320939 463.927088 
L 695.313645 464.650443 
L 696.306351 464.411144 
L 697.299057 465.679563 
L 698.291763 465.693244 
L 699.284469 465.083852 
L 700.277175 465.461875 
L 701.269881 464.477963 
L 702.262587 465.595336 
L 703.255293 466.109667 
L 704.247999 466.326117 
L 705.240705 465.604612 
L 706.23341 465.796693 
L 707.226116 465.371509 
L 708.218822 465.159838 
L 709.211528 466.19245 
L 710.204234 466.621393 
L 711.19694 465.751819 
L 712.189646 466.545151 
L 713.182352 466.855032 
L 714.175058 466.677448 
L 715.167764 467.425021 
L 716.16047 466.476954 
L 717.153176 466.63038 
L 718.145882 467.170952 
L 720.131293 467.541023 
L 721.123999 467.230375 
L 722.116705 468.001038 
L 723.109411 467.828999 
L 724.102117 467.284001 
L 725.094823 467.665177 
L 727.080235 468.07645 
L 728.072941 468.676593 
L 729.065647 467.972885 
L 730.058353 468.547181 
L 731.051059 468.46601 
L 732.043764 468.571408 
L 734.029176 469.18469 
L 738 469.147294 
L 738.992706 469.473917 
L 739.985412 469.124721 
L 740.978118 469.959535 
L 741.970824 470.062454 
L 742.96353 469.869534 
L 743.956236 469.289252 
L 744.948941 470.043264 
L 745.941647 469.864929 
L 747.927059 470.218981 
L 748.919765 469.862577 
L 749.912471 470.30686 
L 750.905177 470.343891 
L 751.897883 470.211726 
L 753.883295 470.949824 
L 755.868707 471.330905 
L 756.861413 471.183419 
L 757.854118 470.865775 
L 758.846824 471.703893 
L 759.83953 471.428044 
L 760.832236 471.97452 
L 761.824942 471.705982 
L 762.817648 471.585215 
L 763.810354 472.383798 
L 764.80306 472.166777 
L 765.795766 471.177288 
L 766.788472 471.627771 
L 767.781178 471.952764 
L 768.773884 471.935525 
L 769.76659 472.485034 
L 770.759295 472.44701 
L 771.752001 472.617779 
L 773.737413 472.61841 
L 774.730119 473.023117 
L 775.722825 472.314914 
L 776.715531 473.311389 
L 778.700943 472.752296 
L 779.693649 473.376302 
L 780.686355 473.571945 
L 781.679061 473.136245 
L 782.671767 473.541963 
L 783.664473 473.132433 
L 784.657178 473.088 
L 785.649884 473.884862 
L 786.64259 474.035046 
L 787.635296 474.004828 
L 789.620708 474.391366 
L 790.613414 474.024532 
L 791.60612 474.456183 
L 793.591532 474.346051 
L 794.584238 474.251416 
L 795.576944 474.030657 
L 796.56965 475.036933 
L 797.562355 475.310856 
L 799.547767 475.068979 
L 800.540473 475.116021 
L 801.533179 475.031705 
L 802.525885 475.117714 
L 804.511297 475.830802 
L 805.504003 475.710722 
L 806.496709 475.778267 
L 807.489415 475.278814 
L 808.482121 475.775619 
L 809.474827 475.30759 
L 810.467532 475.643828 
L 811.460238 476.341923 
L 812.452944 475.797614 
L 813.44565 476.209074 
L 814.438356 475.496311 
L 815.431062 476.080473 
L 816.423768 476.059148 
L 817.416474 476.695625 
L 818.40918 476.023343 
L 820.394592 476.632423 
L 822.380004 476.802485 
L 823.372709 477.152475 
L 824.365415 476.903921 
L 825.358121 477.124298 
L 826.350827 477.725167 
L 827.343533 477.11697 
L 828.336239 477.397664 
L 829.328945 477.290056 
L 830.321651 477.765183 
L 831.314357 477.295696 
L 835.285181 477.744928 
L 836.277886 477.579966 
L 837.270592 477.887449 
L 839.256004 478.234646 
L 840.24871 477.841902 
L 841.241416 477.866461 
L 842.234122 478.871084 
L 844.219534 478.239308 
L 845.21224 478.724711 
L 847.197652 478.422492 
L 848.190358 479.177852 
L 849.183064 478.948078 
L 850.175769 478.894976 
L 851.168475 479.171191 
L 852.161181 479.01265 
L 853.153887 478.596689 
L 854.146593 479.555001 
L 855.139299 479.322974 
L 857.124711 479.170333 
L 858.117417 479.223563 
L 859.110123 478.701102 
L 860.102829 479.708869 
L 861.095535 479.778211 
L 862.088241 479.126708 
L 863.080946 480.023515 
L 864.073652 479.564774 
L 866.059064 480.230143 
L 868.044476 480.251875 
L 869.037182 480.266964 
L 870.029888 480.019691 
L 871.022594 479.930686 
L 872.0153 480.772981 
L 873.008006 480.385659 
L 874.000712 480.732654 
L 874.993418 480.582137 
L 876.978829 480.671416 
L 877.971535 480.544429 
L 878.964241 481.113289 
L 879.956947 480.461045 
L 881.942359 480.795481 
L 882.935065 480.467261 
L 883.927771 480.937445 
L 884.920477 480.672288 
L 885.913183 481.581182 
L 886.905889 481.073185 
L 887.898595 481.162196 
L 890.876712 482.00573 
L 891.869418 481.770334 
L 893.85483 481.63235 
L 896.832948 481.909054 
L 897.825654 481.566015 
L 898.81836 482.036267 
L 899.811066 482.331229 
L 900.803772 482.21995 
L 901.796477 482.269987 
L 902.789183 482.631698 
L 903.781889 482.369389 
L 904.774595 481.738485 
L 905.767301 482.120866 
L 906.760007 482.241127 
L 908.745419 482.636247 
L 909.738125 482.637693 
L 910.730831 482.49866 
L 911.723537 482.84568 
L 912.716243 482.855925 
L 913.708949 483.2318 
L 914.701655 483.203974 
L 915.69436 482.613343 
L 916.687066 482.248442 
L 917.679772 483.032502 
L 918.672478 482.973138 
L 919.665184 483.546212 
L 920.65789 483.474261 
L 921.650596 482.742942 
L 922.643302 483.536205 
L 923.636008 484.149536 
L 924.628714 484.168678 
L 925.62142 483.678242 
L 926.614126 483.481444 
L 927.606832 483.4306 
L 928.599537 484.087688 
L 929.592243 483.64005 
L 930.584949 484.112238 
L 931.577655 484.046396 
L 932.570361 484.130946 
L 934.555773 483.886354 
L 935.548479 483.901155 
L 936.541185 483.71934 
L 938.526597 484.325514 
L 939.519303 484.848646 
L 940.512009 484.268255 
L 943.490126 484.431243 
L 944.482832 484.398092 
L 945.475538 484.883045 
L 946.468244 484.035323 
L 947.46095 484.856995 
L 948.453656 484.195323 
L 949.446362 484.583799 
L 950.439068 484.644977 
L 951.431774 484.905058 
L 952.42448 484.591901 
L 953.417186 485.165072 
L 954.409891 484.653688 
L 955.402597 485.42405 
L 956.395303 485.499053 
L 957.388009 485.143422 
L 958.380715 485.008577 
L 959.373421 485.249184 
L 960.366127 485.15824 
L 961.358833 485.827316 
L 962.351539 485.901963 
L 963.344245 485.835049 
L 964.336951 485.133799 
L 965.329657 485.337977 
L 966.322363 485.328474 
L 967.315068 485.753541 
L 968.307774 485.602418 
L 969.30048 485.612027 
L 971.285892 486.12796 
L 972.278598 485.897683 
L 973.271304 486.325378 
L 974.26401 486.1595 
L 975.256716 486.224606 
L 976.249422 485.867827 
L 977.242128 486.320637 
L 979.22754 486.68757 
L 980.220246 486.521132 
L 981.212951 486.016485 
L 982.205657 486.04531 
L 983.198363 486.345263 
L 984.191069 486.319312 
L 986.176481 486.011378 
L 987.169187 486.299293 
L 988.161893 486.73126 
L 989.154599 486.908274 
L 990.147305 486.41379 
L 991.140011 486.850312 
L 992.132717 486.56129 
L 994.118128 486.892124 
L 995.110834 487.285426 
L 996.10354 487.133449 
L 997.096246 487.438846 
L 998.088952 487.25251 
L 1000.074364 487.144547 
L 1001.06707 487.639869 
L 1002.059776 487.218016 
L 1003.052482 487.400953 
L 1004.045188 486.6681 
L 1005.037894 487.121417 
L 1006.0306 486.921051 
L 1007.023305 487.073808 
L 1008.016011 487.417677 
L 1009.008717 487.622064 
L 1010.001423 487.234576 
L 1010.994129 487.567881 
L 1011.986835 487.748001 
L 1012.979541 487.185969 
L 1013.972247 487.634857 
L 1014.964953 487.720673 
L 1015.957659 487.372908 
L 1017.943071 487.903369 
L 1018.935777 487.696025 
L 1019.928482 487.976925 
L 1020.921188 487.780381 
L 1021.913894 488.112281 
L 1022.9066 488.092262 
L 1023.899306 488.42446 
L 1024.892012 488.070052 
L 1027.87013 487.890201 
L 1028.862836 487.376926 
L 1030.848248 488.588069 
L 1031.840954 488.247965 
L 1032.833659 488.142833 
L 1033.826365 488.552096 
L 1034.819071 488.501263 
L 1035.811777 488.037347 
L 1036.804483 487.875262 
L 1039.782601 488.605492 
L 1040.775307 488.502437 
L 1041.768013 488.68976 
L 1042.760719 488.060497 
L 1043.753425 489.019671 
L 1045.738837 488.349052 
L 1046.731542 488.206493 
L 1047.724248 489.449293 
L 1048.716954 489.130316 
L 1049.70966 488.561138 
L 1050.702366 488.595722 
L 1051.695072 489.28776 
L 1052.687778 488.774044 
L 1053.680484 489.107816 
L 1054.67319 489.098667 
L 1055.665896 488.711665 
L 1056.658602 489.313028 
L 1057.651308 488.848278 
L 1059.636719 489.192706 
L 1060.629425 489.226619 
L 1061.622131 489.564604 
L 1062.614837 488.88993 
L 1063.607543 489.427971 
L 1064.600249 489.11539 
L 1065.592955 489.56283 
L 1066.585661 489.310534 
L 1067.578367 489.710491 
L 1068.571073 489.526544 
L 1069.563779 489.714851 
L 1070.556485 489.456858 
L 1071.549191 489.967876 
L 1073.534602 489.149755 
L 1074.527308 489.238769 
L 1075.520014 489.656631 
L 1076.51272 489.119666 
L 1077.505426 489.945065 
L 1083.461662 489.534845 
L 1084.454368 489.56533 
L 1085.447073 489.468886 
L 1086.439779 490.191599 
L 1087.432485 489.879601 
L 1088.425191 489.993407 
L 1089.417897 488.977497 
L 1090.410603 490.340725 
L 1091.403309 490.286473 
L 1093.388721 489.974232 
L 1095.374133 490.398226 
L 1096.366839 490.538138 
L 1097.359545 489.87449 
L 1098.35225 490.699112 
L 1100.337662 490.398443 
L 1101.330368 490.602793 
L 1102.323074 490.238093 
L 1103.31578 490.219807 
L 1104.308486 490.337872 
L 1105.301192 490.303801 
L 1106.293898 490.395039 
L 1107.286604 489.863029 
L 1108.27931 490.614915 
L 1110.264722 490.284292 
L 1111.257428 489.708755 
L 1112.250133 490.482789 
L 1113.242839 490.7278 
L 1115.228251 490.261542 
L 1116.220957 491.05156 
L 1117.213663 489.869075 
L 1118.206369 490.53781 
L 1119.199075 489.77741 
L 1120.191781 490.693505 
L 1121.184487 490.762121 
L 1122.177193 491.404019 
L 1123.169899 490.462837 
L 1124.162605 490.87569 
L 1125.15531 490.982513 
L 1126.148016 490.752472 
L 1128.133428 491.249349 
L 1129.126134 491.219176 
L 1130.11884 490.989922 
L 1131.111546 490.973381 
L 1133.096958 490.707653 
L 1135.08237 491.047007 
L 1136.075076 490.960967 
L 1137.067782 490.429836 
L 1138.060487 490.678781 
L 1139.053193 490.648581 
L 1141.038605 491.496389 
L 1142.031311 491.437933 
L 1143.024017 490.908763 
L 1144.016723 491.455213 
L 1145.009429 491.518128 
L 1146.002135 490.990329 
L 1146.994841 491.30647 
L 1147.987547 491.985467 
L 1148.980253 491.335295 
L 1149.972959 490.974548 
L 1150.965664 490.949905 
L 1151.95837 491.309677 
L 1152.951076 491.821629 
L 1153.943782 490.8591 
L 1154.936488 491.111235 
L 1155.929194 491.801763 
L 1156.9219 491.271426 
L 1157.914606 491.121512 
L 1158.907312 491.552618 
L 1159.900018 491.525475 
L 1160.892724 490.934193 
L 1161.88543 491.186164 
L 1162.878136 490.995554 
L 1164.863547 491.861647 
L 1166.848959 491.655953 
L 1167.841665 491.306973 
L 1169.827077 491.408732 
L 1171.812489 491.746834 
L 1172.805195 491.020634 
L 1173.797901 492.02116 
L 1174.790607 491.334731 
L 1175.783313 490.888069 
L 1176.776019 491.825769 
L 1177.768724 491.17596 
L 1178.76143 491.118994 
L 1179.754136 491.538618 
L 1180.746842 491.4232 
L 1181.739548 490.846012 
L 1182.732254 491.67066 
L 1183.72496 492.115035 
L 1184.717666 491.07861 
L 1186.703078 491.190643 
L 1187.695784 491.285041 
L 1188.68849 491.915903 
L 1189.681196 491.446638 
L 1190.673901 491.836884 
L 1191.666607 491.767308 
L 1192.659313 491.40892 
L 1193.652019 491.5948 
L 1194.644725 491.25689 
L 1195.637431 491.148631 
L 1196.630137 491.483768 
L 1197.622843 492.137924 
L 1199.608255 491.696547 
L 1200.600961 491.74165 
L 1201.593667 492.109725 
L 1202.586373 491.363333 
L 1203.579078 491.461458 
L 1204.571784 491.4081 
L 1205.56449 491.56566 
L 1206.557196 492.004911 
L 1207.549902 492.053409 
L 1208.542608 492.397958 
L 1209.535314 491.450439 
L 1210.52802 492.308667 
L 1212.513432 491.745991 
L 1213.506138 491.881272 
L 1214.498844 492.48 
L 1215.49155 491.624658 
L 1216.484255 492.019981 
L 1217.476961 491.764591 
L 1219.462373 491.939936 
L 1220.455079 491.740361 
L 1221.447785 491.915406 
L 1223.433197 491.979238 
L 1224.425903 491.529137 
L 1225.418609 491.840318 
L 1226.411315 491.799424 
L 1228.396727 492.227602 
L 1229.389432 491.569381 
L 1230.382138 492.255625 
L 1231.374844 491.708446 
L 1232.36755 492.010997 
L 1233.360256 491.820895 
L 1234.352962 491.482212 
L 1235.345668 491.600763 
L 1236.338374 491.848087 
L 1237.33108 491.75348 
L 1238.323786 491.770967 
L 1239.316492 492.089893 
L 1240.309198 491.259322 
L 1241.301904 491.776602 
L 1244.280021 491.564863 
L 1245.272727 491.778813 
L 1245.272727 491.778813 
" clip-path="url(#p92f38e0476)" style="fill: none; stroke: #1f77b4; stroke-width: 1.5; stroke-linecap: square"/>
   </g>
   <g id="patch_3">
    <path d="M 180 512.64 
L 180 69.12 
" style="fill: none; stroke: #000000; stroke-width: 0.8; stroke-linejoin: miter; stroke-linecap: square"/>
   </g>
   <g id="patch_4">
    <path d="M 1296 512.64 
L 1296 69.12 
" style="fill: none; stroke: #000000; stroke-width: 0.8; stroke-linejoin: miter; stroke-linecap: square"/>
   </g>
   <g id="patch_5">
    <path d="M 180 512.64 
L 1296 512.64 
" style="fill: none; stroke: #000000; stroke-width: 0.8; stroke-linejoin: miter; stroke-linecap: square"/>
   </g>
   <g id="patch_6">
    <path d="M 180 69.12 
L 1296 69.12 
" style="fill: none; stroke: #000000; stroke-width: 0.8; stroke-linejoin: miter; stroke-linecap: square"/>
   </g>
   <g id="text_14">
    <!-- source18-receiver11 -->
    <g transform="translate(532.175 60.80125) scale(0.4 -0.4)">
     <defs>
      <path id="DejaVuSans-73" d="M 2834 3397 
L 2834 2853 
Q 2591 2978 2328 3040 
Q 2066 3103 1784 3103 
Q 1356 3103 1142 2972 
Q 928 2841 928 2578 
Q 928 2378 1081 2264 
Q 1234 2150 1697 2047 
L 1894 2003 
Q 2506 1872 2764 1633 
Q 3022 1394 3022 966 
Q 3022 478 2636 193 
Q 2250 -91 1575 -91 
Q 1294 -91 989 -36 
Q 684 19 347 128 
L 347 722 
Q 666 556 975 473 
Q 1284 391 1588 391 
Q 1994 391 2212 530 
Q 2431 669 2431 922 
Q 2431 1156 2273 1281 
Q 2116 1406 1581 1522 
L 1381 1569 
Q 847 1681 609 1914 
Q 372 2147 372 2553 
Q 372 3047 722 3315 
Q 1072 3584 1716 3584 
Q 2034 3584 2315 3537 
Q 2597 3491 2834 3397 
z
" transform="scale(0.015625)"/>
      <path id="DejaVuSans-6f" d="M 1959 3097 
Q 1497 3097 1228 2736 
Q 959 2375 959 1747 
Q 959 1119 1226 758 
Q 1494 397 1959 397 
Q 2419 397 2687 759 
Q 2956 1122 2956 1747 
Q 2956 2369 2687 2733 
Q 2419 3097 1959 3097 
z
M 1959 3584 
Q 2709 3584 3137 3096 
Q 3566 2609 3566 1747 
Q 3566 888 3137 398 
Q 2709 -91 1959 -91 
Q 1206 -91 779 398 
Q 353 888 353 1747 
Q 353 2609 779 3096 
Q 1206 3584 1959 3584 
z
" transform="scale(0.015625)"/>
      <path id="DejaVuSans-75" d="M 544 1381 
L 544 3500 
L 1119 3500 
L 1119 1403 
Q 1119 906 1312 657 
Q 1506 409 1894 409 
Q 2359 409 2629 706 
Q 2900 1003 2900 1516 
L 2900 3500 
L 3475 3500 
L 3475 0 
L 2900 0 
L 2900 538 
Q 2691 219 2414 64 
Q 2138 -91 1772 -91 
Q 1169 -91 856 284 
Q 544 659 544 1381 
z
M 1991 3584 
L 1991 3584 
z
" transform="scale(0.015625)"/>
      <path id="DejaVuSans-72" d="M 2631 2963 
Q 2534 3019 2420 3045 
Q 2306 3072 2169 3072 
Q 1681 3072 1420 2755 
Q 1159 2438 1159 1844 
L 1159 0 
L 581 0 
L 581 3500 
L 1159 3500 
L 1159 2956 
Q 1341 3275 1631 3429 
Q 1922 3584 2338 3584 
Q 2397 3584 2469 3576 
Q 2541 3569 2628 3553 
L 2631 2963 
z
" transform="scale(0.015625)"/>
      <path id="DejaVuSans-63" d="M 3122 3366 
L 3122 2828 
Q 2878 2963 2633 3030 
Q 2388 3097 2138 3097 
Q 1578 3097 1268 2742 
Q 959 2388 959 1747 
Q 959 1106 1268 751 
Q 1578 397 2138 397 
Q 2388 397 2633 464 
Q 2878 531 3122 666 
L 3122 134 
Q 2881 22 2623 -34 
Q 2366 -91 2075 -91 
Q 1284 -91 818 406 
Q 353 903 353 1747 
Q 353 2603 823 3093 
Q 1294 3584 2113 3584 
Q 2378 3584 2631 3529 
Q 2884 3475 3122 3366 
z
" transform="scale(0.015625)"/>
      <path id="DejaVuSans-65" d="M 3597 1894 
L 3597 1613 
L 953 1613 
Q 991 1019 1311 708 
Q 1631 397 2203 397 
Q 2534 397 2845 478 
Q 3156 559 3463 722 
L 3463 178 
Q 3153 47 2828 -22 
Q 2503 -91 2169 -91 
Q 1331 -91 842 396 
Q 353 884 353 1716 
Q 353 2575 817 3079 
Q 1281 3584 2069 3584 
Q 2775 3584 3186 3129 
Q 3597 2675 3597 1894 
z
M 3022 2063 
Q 3016 2534 2758 2815 
Q 2500 3097 2075 3097 
Q 1594 3097 1305 2825 
Q 1016 2553 972 2059 
L 3022 2063 
z
" transform="scale(0.015625)"/>
      <path id="DejaVuSans-38" d="M 2034 2216 
Q 1584 2216 1326 1975 
Q 1069 1734 1069 1313 
Q 1069 891 1326 650 
Q 1584 409 2034 409 
Q 2484 409 2743 651 
Q 3003 894 3003 1313 
Q 3003 1734 2745 1975 
Q 2488 2216 2034 2216 
z
M 1403 2484 
Q 997 2584 770 2862 
Q 544 3141 544 3541 
Q 544 4100 942 4425 
Q 1341 4750 2034 4750 
Q 2731 4750 3128 4425 
Q 3525 4100 3525 3541 
Q 3525 3141 3298 2862 
Q 3072 2584 2669 2484 
Q 3125 2378 3379 2068 
Q 3634 1759 3634 1313 
Q 3634 634 3220 271 
Q 2806 -91 2034 -91 
Q 1263 -91 848 271 
Q 434 634 434 1313 
Q 434 1759 690 2068 
Q 947 2378 1403 2484 
z
M 1172 3481 
Q 1172 3119 1398 2916 
Q 1625 2713 2034 2713 
Q 2441 2713 2670 2916 
Q 2900 3119 2900 3481 
Q 2900 3844 2670 4047 
Q 2441 4250 2034 4250 
Q 1625 4250 1398 4047 
Q 1172 3844 1172 3481 
z
" transform="scale(0.015625)"/>
      <path id="DejaVuSans-2d" d="M 313 2009 
L 1997 2009 
L 1997 1497 
L 313 1497 
L 313 2009 
z
" transform="scale(0.015625)"/>
      <path id="DejaVuSans-69" d="M 603 3500 
L 1178 3500 
L 1178 0 
L 603 0 
L 603 3500 
z
M 603 4863 
L 1178 4863 
L 1178 4134 
L 603 4134 
L 603 4863 
z
" transform="scale(0.015625)"/>
      <path id="DejaVuSans-76" d="M 191 3500 
L 800 3500 
L 1894 563 
L 2988 3500 
L 3597 3500 
L 2284 0 
L 1503 0 
L 191 3500 
z
" transform="scale(0.015625)"/>
     </defs>
     <use xlink:href="#DejaVuSans-73"/>
     <use xlink:href="#DejaVuSans-6f" x="52.099609"/>
     <use xlink:href="#DejaVuSans-75" x="113.28125"/>
     <use xlink:href="#DejaVuSans-72" x="176.660156"/>
     <use xlink:href="#DejaVuSans-63" x="215.523438"/>
     <use xlink:href="#DejaVuSans-65" x="270.503906"/>
     <use xlink:href="#DejaVuSans-31" x="332.027344"/>
     <use xlink:href="#DejaVuSans-38" x="395.650391"/>
     <use xlink:href="#DejaVuSans-2d" x="459.273438"/>
     <use xlink:href="#DejaVuSans-72" x="495.357422"/>
     <use xlink:href="#DejaVuSans-65" x="534.220703"/>
     <use xlink:href="#DejaVuSans-63" x="595.744141"/>
     <use xlink:href="#DejaVuSans-65" x="650.724609"/>
     <use xlink:href="#DejaVuSans-69" x="712.248047"/>
     <use xlink:href="#DejaVuSans-76" x="740.03125"/>
     <use xlink:href="#DejaVuSans-65" x="799.210938"/>
     <use xlink:href="#DejaVuSans-72" x="860.734375"/>
     <use xlink:href="#DejaVuSans-31" x="901.847656"/>
     <use xlink:href="#DejaVuSans-31" x="965.470703"/>
    </g>
   </g>
  </g>
 </g>
 <defs>
  <clipPath id="p92f38e0476">
   <rect x="180" y="69.12" width="1116" height="443.52"/>
  </clipPath>
 </defs>
</svg>
