<?xml version="1.0" encoding="utf-8" standalone="no"?>
<!DOCTYPE svg PUBLIC "-//W3C//DTD SVG 1.1//EN"
  "http://www.w3.org/Graphics/SVG/1.1/DTD/svg11.dtd">
<svg xmlns:xlink="http://www.w3.org/1999/xlink" width="1440pt" height="576pt" viewBox="0 0 1440 576" xmlns="http://www.w3.org/2000/svg" version="1.1">
 <metadata>
  <rdf:RDF xmlns:dc="http://purl.org/dc/elements/1.1/" xmlns:cc="http://creativecommons.org/ns#" xmlns:rdf="http://www.w3.org/1999/02/22-rdf-syntax-ns#">
   <cc:Work>
    <dc:type rdf:resource="http://purl.org/dc/dcmitype/StillImage"/>
    <dc:date>2024-05-22T04:50:14.801054</dc:date>
    <dc:format>image/svg+xml</dc:format>
    <dc:creator>
     <cc:Agent>
      <dc:title>Matplotlib v3.8.3, https://matplotlib.org/</dc:title>
     </cc:Agent>
    </dc:creator>
   </cc:Work>
  </rdf:RDF>
 </metadata>
 <defs>
  <style type="text/css">*{stroke-linejoin: round; stroke-linecap: butt}</style>
 </defs>
 <g id="figure_1">
  <g id="patch_1">
   <path d="M 0 576 
L 1440 576 
L 1440 0 
L 0 0 
z
" style="fill: #ffffff"/>
  </g>
  <g id="axes_1">
   <g id="patch_2">
    <path d="M 180 512.64 
L 1296 512.64 
L 1296 69.12 
L 180 69.12 
z
" style="fill: #ffffff"/>
   </g>
   <g id="matplotlib.axis_1">
    <g id="xtick_1">
     <g id="line2d_1">
      <defs>
       <path id="m02632ea3bd" d="M 0 0 
L 0 3.5 
" style="stroke: #000000; stroke-width: 0.8"/>
      </defs>
      <g>
       <use xlink:href="#m02632ea3bd" x="229.734567" y="512.64" style="stroke: #000000; stroke-width: 0.8"/>
      </g>
     </g>
     <g id="text_1">
      <!-- 0 -->
      <g transform="translate(226.553317 527.238438) scale(0.1 -0.1)">
       <defs>
        <path id="DejaVuSans-30" d="M 2034 4250 
Q 1547 4250 1301 3770 
Q 1056 3291 1056 2328 
Q 1056 1369 1301 889 
Q 1547 409 2034 409 
Q 2525 409 2770 889 
Q 3016 1369 3016 2328 
Q 3016 3291 2770 3770 
Q 2525 4250 2034 4250 
z
M 2034 4750 
Q 2819 4750 3233 4129 
Q 3647 3509 3647 2328 
Q 3647 1150 3233 529 
Q 2819 -91 2034 -91 
Q 1250 -91 836 529 
Q 422 1150 422 2328 
Q 422 3509 836 4129 
Q 1250 4750 2034 4750 
z
" transform="scale(0.015625)"/>
       </defs>
       <use xlink:href="#DejaVuSans-30"/>
      </g>
     </g>
    </g>
    <g id="xtick_2">
     <g id="line2d_2">
      <g>
       <use xlink:href="#m02632ea3bd" x="433.04074" y="512.64" style="stroke: #000000; stroke-width: 0.8"/>
      </g>
     </g>
     <g id="text_2">
      <!-- 500 -->
      <g transform="translate(423.49699 527.238438) scale(0.1 -0.1)">
       <defs>
        <path id="DejaVuSans-35" d="M 691 4666 
L 3169 4666 
L 3169 4134 
L 1269 4134 
L 1269 2991 
Q 1406 3038 1543 3061 
Q 1681 3084 1819 3084 
Q 2600 3084 3056 2656 
Q 3513 2228 3513 1497 
Q 3513 744 3044 326 
Q 2575 -91 1722 -91 
Q 1428 -91 1123 -41 
Q 819 9 494 109 
L 494 744 
Q 775 591 1075 516 
Q 1375 441 1709 441 
Q 2250 441 2565 725 
Q 2881 1009 2881 1497 
Q 2881 1984 2565 2268 
Q 2250 2553 1709 2553 
Q 1456 2553 1204 2497 
Q 953 2441 691 2322 
L 691 4666 
z
" transform="scale(0.015625)"/>
       </defs>
       <use xlink:href="#DejaVuSans-35"/>
       <use xlink:href="#DejaVuSans-30" x="63.623047"/>
       <use xlink:href="#DejaVuSans-30" x="127.246094"/>
      </g>
     </g>
    </g>
    <g id="xtick_3">
     <g id="line2d_3">
      <g>
       <use xlink:href="#m02632ea3bd" x="636.346913" y="512.64" style="stroke: #000000; stroke-width: 0.8"/>
      </g>
     </g>
     <g id="text_3">
      <!-- 1000 -->
      <g transform="translate(623.621913 527.238438) scale(0.1 -0.1)">
       <defs>
        <path id="DejaVuSans-31" d="M 794 531 
L 1825 531 
L 1825 4091 
L 703 3866 
L 703 4441 
L 1819 4666 
L 2450 4666 
L 2450 531 
L 3481 531 
L 3481 0 
L 794 0 
L 794 531 
z
" transform="scale(0.015625)"/>
       </defs>
       <use xlink:href="#DejaVuSans-31"/>
       <use xlink:href="#DejaVuSans-30" x="63.623047"/>
       <use xlink:href="#DejaVuSans-30" x="127.246094"/>
       <use xlink:href="#DejaVuSans-30" x="190.869141"/>
      </g>
     </g>
    </g>
    <g id="xtick_4">
     <g id="line2d_4">
      <g>
       <use xlink:href="#m02632ea3bd" x="839.653087" y="512.64" style="stroke: #000000; stroke-width: 0.8"/>
      </g>
     </g>
     <g id="text_4">
      <!-- 1500 -->
      <g transform="translate(826.928087 527.238438) scale(0.1 -0.1)">
       <use xlink:href="#DejaVuSans-31"/>
       <use xlink:href="#DejaVuSans-35" x="63.623047"/>
       <use xlink:href="#DejaVuSans-30" x="127.246094"/>
       <use xlink:href="#DejaVuSans-30" x="190.869141"/>
      </g>
     </g>
    </g>
    <g id="xtick_5">
     <g id="line2d_5">
      <g>
       <use xlink:href="#m02632ea3bd" x="1042.95926" y="512.64" style="stroke: #000000; stroke-width: 0.8"/>
      </g>
     </g>
     <g id="text_5">
      <!-- 2000 -->
      <g transform="translate(1030.23426 527.238438) scale(0.1 -0.1)">
       <defs>
        <path id="DejaVuSans-32" d="M 1228 531 
L 3431 531 
L 3431 0 
L 469 0 
L 469 531 
Q 828 903 1448 1529 
Q 2069 2156 2228 2338 
Q 2531 2678 2651 2914 
Q 2772 3150 2772 3378 
Q 2772 3750 2511 3984 
Q 2250 4219 1831 4219 
Q 1534 4219 1204 4116 
Q 875 4013 500 3803 
L 500 4441 
Q 881 4594 1212 4672 
Q 1544 4750 1819 4750 
Q 2544 4750 2975 4387 
Q 3406 4025 3406 3419 
Q 3406 3131 3298 2873 
Q 3191 2616 2906 2266 
Q 2828 2175 2409 1742 
Q 1991 1309 1228 531 
z
" transform="scale(0.015625)"/>
       </defs>
       <use xlink:href="#DejaVuSans-32"/>
       <use xlink:href="#DejaVuSans-30" x="63.623047"/>
       <use xlink:href="#DejaVuSans-30" x="127.246094"/>
       <use xlink:href="#DejaVuSans-30" x="190.869141"/>
      </g>
     </g>
    </g>
    <g id="xtick_6">
     <g id="line2d_6">
      <g>
       <use xlink:href="#m02632ea3bd" x="1246.265433" y="512.64" style="stroke: #000000; stroke-width: 0.8"/>
      </g>
     </g>
     <g id="text_6">
      <!-- 2500 -->
      <g transform="translate(1233.540433 527.238438) scale(0.1 -0.1)">
       <use xlink:href="#DejaVuSans-32"/>
       <use xlink:href="#DejaVuSans-35" x="63.623047"/>
       <use xlink:href="#DejaVuSans-30" x="127.246094"/>
       <use xlink:href="#DejaVuSans-30" x="190.869141"/>
      </g>
     </g>
    </g>
   </g>
   <g id="matplotlib.axis_2">
    <g id="ytick_1">
     <g id="line2d_7">
      <defs>
       <path id="m1ef4bc6cd5" d="M 0 0 
L -3.5 0 
" style="stroke: #000000; stroke-width: 0.8"/>
      </defs>
      <g>
       <use xlink:href="#m1ef4bc6cd5" x="180" y="488.809098" style="stroke: #000000; stroke-width: 0.8"/>
      </g>
     </g>
     <g id="text_7">
      <!-- −6 -->
      <g transform="translate(158.257812 492.608316) scale(0.1 -0.1)">
       <defs>
        <path id="DejaVuSans-2212" d="M 678 2272 
L 4684 2272 
L 4684 1741 
L 678 1741 
L 678 2272 
z
" transform="scale(0.015625)"/>
        <path id="DejaVuSans-36" d="M 2113 2584 
Q 1688 2584 1439 2293 
Q 1191 2003 1191 1497 
Q 1191 994 1439 701 
Q 1688 409 2113 409 
Q 2538 409 2786 701 
Q 3034 994 3034 1497 
Q 3034 2003 2786 2293 
Q 2538 2584 2113 2584 
z
M 3366 4563 
L 3366 3988 
Q 3128 4100 2886 4159 
Q 2644 4219 2406 4219 
Q 1781 4219 1451 3797 
Q 1122 3375 1075 2522 
Q 1259 2794 1537 2939 
Q 1816 3084 2150 3084 
Q 2853 3084 3261 2657 
Q 3669 2231 3669 1497 
Q 3669 778 3244 343 
Q 2819 -91 2113 -91 
Q 1303 -91 875 529 
Q 447 1150 447 2328 
Q 447 3434 972 4092 
Q 1497 4750 2381 4750 
Q 2619 4750 2861 4703 
Q 3103 4656 3366 4563 
z
" transform="scale(0.015625)"/>
       </defs>
       <use xlink:href="#DejaVuSans-2212"/>
       <use xlink:href="#DejaVuSans-36" x="83.789062"/>
      </g>
     </g>
    </g>
    <g id="ytick_2">
     <g id="line2d_8">
      <g>
       <use xlink:href="#m1ef4bc6cd5" x="180" y="415.80359" style="stroke: #000000; stroke-width: 0.8"/>
      </g>
     </g>
     <g id="text_8">
      <!-- −4 -->
      <g transform="translate(158.257812 419.602808) scale(0.1 -0.1)">
       <defs>
        <path id="DejaVuSans-34" d="M 2419 4116 
L 825 1625 
L 2419 1625 
L 2419 4116 
z
M 2253 4666 
L 3047 4666 
L 3047 1625 
L 3713 1625 
L 3713 1100 
L 3047 1100 
L 3047 0 
L 2419 0 
L 2419 1100 
L 313 1100 
L 313 1709 
L 2253 4666 
z
" transform="scale(0.015625)"/>
       </defs>
       <use xlink:href="#DejaVuSans-2212"/>
       <use xlink:href="#DejaVuSans-34" x="83.789062"/>
      </g>
     </g>
    </g>
    <g id="ytick_3">
     <g id="line2d_9">
      <g>
       <use xlink:href="#m1ef4bc6cd5" x="180" y="342.798082" style="stroke: #000000; stroke-width: 0.8"/>
      </g>
     </g>
     <g id="text_9">
      <!-- −2 -->
      <g transform="translate(158.257812 346.5973) scale(0.1 -0.1)">
       <use xlink:href="#DejaVuSans-2212"/>
       <use xlink:href="#DejaVuSans-32" x="83.789062"/>
      </g>
     </g>
    </g>
    <g id="ytick_4">
     <g id="line2d_10">
      <g>
       <use xlink:href="#m1ef4bc6cd5" x="180" y="269.792573" style="stroke: #000000; stroke-width: 0.8"/>
      </g>
     </g>
     <g id="text_10">
      <!-- 0 -->
      <g transform="translate(166.6375 273.591792) scale(0.1 -0.1)">
       <use xlink:href="#DejaVuSans-30"/>
      </g>
     </g>
    </g>
    <g id="ytick_5">
     <g id="line2d_11">
      <g>
       <use xlink:href="#m1ef4bc6cd5" x="180" y="196.787065" style="stroke: #000000; stroke-width: 0.8"/>
      </g>
     </g>
     <g id="text_11">
      <!-- 2 -->
      <g transform="translate(166.6375 200.586284) scale(0.1 -0.1)">
       <use xlink:href="#DejaVuSans-32"/>
      </g>
     </g>
    </g>
    <g id="ytick_6">
     <g id="line2d_12">
      <g>
       <use xlink:href="#m1ef4bc6cd5" x="180" y="123.781557" style="stroke: #000000; stroke-width: 0.8"/>
      </g>
     </g>
     <g id="text_12">
      <!-- 4 -->
      <g transform="translate(166.6375 127.580776) scale(0.1 -0.1)">
       <use xlink:href="#DejaVuSans-34"/>
      </g>
     </g>
    </g>
   </g>
   <g id="line2d_13">
    <path d="M 230.727273 250.919655 
L 231.719979 242.292098 
L 232.712685 242.130934 
L 233.70539 251.146828 
L 234.698096 264.816629 
L 235.690802 259.351844 
L 236.683508 248.377172 
L 237.676214 246.025086 
L 238.66892 253.527787 
L 239.661626 273.478173 
L 240.654332 283.364025 
L 241.647038 259.45366 
L 242.639744 246.918531 
L 243.63245 245.179088 
L 244.625156 256.431593 
L 245.617862 317.406657 
L 246.610568 254.541122 
L 247.603273 222.399867 
L 248.595979 204.376115 
L 250.581391 177.807396 
L 251.574097 165.271456 
L 252.566803 154.789489 
L 253.559509 147.837586 
L 254.552215 145.637852 
L 255.544921 148.955537 
L 256.537627 158.504387 
L 257.530333 169.429172 
L 258.523039 165.707515 
L 259.515745 158.696318 
L 260.50845 161.284475 
L 261.501156 179.446069 
L 262.493862 256.039549 
L 263.486568 183.688587 
L 264.479274 166.786078 
L 265.47198 163.593567 
L 266.464686 162.240529 
L 267.457392 157.738239 
L 268.450098 157.123654 
L 269.442804 165.091141 
L 270.43551 176.397936 
L 271.428216 168.67814 
L 272.420922 162.182084 
L 273.413627 171.189315 
L 274.406333 190.755919 
L 275.399039 163.64753 
L 276.391745 144.926235 
L 277.384451 137.016805 
L 278.377157 133.294806 
L 279.369863 128.07471 
L 281.355275 113.124451 
L 283.340687 101.405897 
L 284.333393 96.091171 
L 285.326099 91.64193 
L 286.318804 89.28 
L 287.31151 89.69243 
L 288.304216 93.121076 
L 289.296922 98.894124 
L 290.289628 106.201407 
L 291.282334 115.188978 
L 292.27504 127.23805 
L 293.267746 143.810919 
L 294.260452 158.445378 
L 295.253158 161.465895 
L 296.245864 163.300091 
L 297.23857 165.407659 
L 298.231276 162.691613 
L 299.223981 160.931383 
L 300.216687 162.680268 
L 301.209393 162.809402 
L 302.202099 162.258946 
L 303.194805 166.809481 
L 304.187511 178.792746 
L 305.180217 188.454362 
L 306.172923 185.762997 
L 307.165629 186.478949 
L 308.158335 191.787629 
L 309.151041 191.293702 
L 310.143747 188.754783 
L 311.136453 193.192163 
L 312.129159 200.766723 
L 314.11457 203.897356 
L 315.107276 213.206056 
L 316.099982 229.450912 
L 317.092688 236.022614 
L 318.085394 240.62136 
L 319.0781 251.664953 
L 320.070806 259.865437 
L 321.063512 266.996112 
L 322.056218 258.830399 
L 323.048924 242.995651 
L 324.04163 241.380882 
L 325.034336 255.404101 
L 326.027041 275.750422 
L 327.019747 276.998813 
L 328.012453 287.836777 
L 329.005159 297.067903 
L 329.997865 268.992447 
L 330.990571 271.913597 
L 331.983277 282.592061 
L 332.975983 279.431757 
L 333.968689 269.48153 
L 334.961395 270.405828 
L 335.954101 275.566342 
L 336.946807 275.436261 
L 337.939513 274.067741 
L 338.932218 256.428103 
L 339.924924 245.555036 
L 340.91763 244.790817 
L 341.910336 252.642349 
L 342.903042 257.808804 
L 343.895748 254.05182 
L 344.888454 257.853579 
L 345.88116 273.290001 
L 346.873866 296.201213 
L 347.866572 323.392727 
L 348.859278 301.01771 
L 349.851984 285.326996 
L 350.84469 281.622871 
L 352.830101 319.254203 
L 353.822807 299.592911 
L 354.815513 287.027697 
L 355.808219 263.466787 
L 356.800925 246.82649 
L 357.793631 241.173407 
L 358.786337 239.446108 
L 359.779043 238.618261 
L 360.771749 232.578317 
L 361.764455 229.208905 
L 362.757161 229.611424 
L 363.749867 232.349985 
L 364.742572 231.345471 
L 366.727984 224.606134 
L 367.72069 225.332259 
L 368.713396 226.772138 
L 369.706102 225.660386 
L 370.698808 223.236294 
L 371.691514 222.157801 
L 372.68422 224.582271 
L 373.676926 227.51361 
L 374.669632 226.94336 
L 375.662338 225.47011 
L 376.655044 225.471578 
L 377.64775 228.456342 
L 378.640455 229.782176 
L 380.625867 225.777462 
L 381.618573 225.064825 
L 382.611279 226.864622 
L 383.603985 226.643807 
L 384.596691 223.585492 
L 385.589397 221.687702 
L 386.582103 220.046249 
L 388.567515 219.036844 
L 389.560221 216.167705 
L 390.552927 214.060158 
L 391.545632 213.776834 
L 392.538338 214.514999 
L 393.531044 214.053925 
L 394.52375 211.462188 
L 395.516456 211.229764 
L 396.509162 212.963829 
L 397.501868 213.591518 
L 398.494574 213.954644 
L 399.48728 213.150271 
L 400.479986 214.649591 
L 402.465398 220.461057 
L 404.450809 222.116033 
L 406.436221 229.902786 
L 407.428927 236.222347 
L 408.421633 237.764015 
L 409.414339 240.78235 
L 410.407045 247.73828 
L 411.399751 257.254731 
L 412.392457 264.765826 
L 413.385163 269.46666 
L 414.377869 276.778221 
L 415.370575 297.877837 
L 416.363281 321.41613 
L 417.355986 302.969304 
L 418.348692 296.576981 
L 419.341398 296.437753 
L 420.334104 283.437498 
L 421.32681 272.795877 
L 422.319516 264.97419 
L 423.312222 265.743196 
L 424.304928 264.57833 
L 425.297634 260.169173 
L 426.29034 254.746361 
L 427.283046 252.738691 
L 428.275752 255.764727 
L 429.268458 257.332766 
L 430.261163 255.603607 
L 431.253869 254.894493 
L 432.246575 255.425563 
L 433.239281 262.007946 
L 434.231987 267.219069 
L 435.224693 266.690279 
L 436.217399 263.818649 
L 438.202811 283.089381 
L 439.195517 289.128166 
L 440.188223 286.723375 
L 441.180929 289.957448 
L 442.173635 295.76538 
L 443.166341 309.728085 
L 444.159046 317.642314 
L 445.151752 306.733929 
L 446.144458 304.699987 
L 447.137164 309.430368 
L 448.12987 321.485568 
L 449.122576 314.682366 
L 450.115282 296.16051 
L 451.107988 296.346898 
L 452.100694 302.984035 
L 453.0934 304.729251 
L 454.086106 292.691579 
L 455.078812 285.402501 
L 456.071518 288.285775 
L 457.064223 298.432599 
L 458.056929 294.091428 
L 459.049635 290.711747 
L 460.042341 292.560656 
L 461.035047 306.946764 
L 462.027753 332.014149 
L 463.020459 347.933638 
L 464.013165 370.738447 
L 465.005871 329.128237 
L 465.998577 298.839771 
L 466.991283 289.068961 
L 467.983989 282.897432 
L 468.976695 275.600368 
L 469.9694 265.166541 
L 470.962106 257.701474 
L 471.954812 254.211099 
L 473.940224 250.745333 
L 474.93293 245.798249 
L 475.925636 243.174817 
L 476.918342 242.142737 
L 477.911048 243.884831 
L 478.903754 243.189126 
L 479.89646 241.864437 
L 480.889166 242.310802 
L 481.881872 244.347486 
L 482.874577 247.861713 
L 483.867283 249.749889 
L 484.859989 249.880696 
L 486.845401 257.147052 
L 487.838107 263.096208 
L 488.830813 266.078709 
L 489.823519 267.688443 
L 490.816225 271.615895 
L 491.808931 284.473923 
L 492.801637 295.784818 
L 493.794343 297.625744 
L 494.787049 300.661838 
L 495.779754 305.316027 
L 496.77246 338.093264 
L 497.765166 378.771068 
L 498.757872 352.254353 
L 499.750578 364.036428 
L 500.743284 395.216678 
L 501.73599 344.955845 
L 502.728696 315.809945 
L 503.721402 320.676558 
L 504.714108 321.931423 
L 505.706814 319.463176 
L 506.69952 306.319962 
L 507.692226 298.630323 
L 508.684932 302.620064 
L 509.677637 314.071816 
L 510.670343 316.474997 
L 511.663049 304.461857 
L 512.655755 302.421413 
L 513.648461 313.222667 
L 514.641167 325.549808 
L 515.633873 320.877067 
L 516.626579 315.306317 
L 517.619285 322.148786 
L 518.611991 333.538647 
L 519.604697 355.617346 
L 520.597403 328.556921 
L 521.590109 330.031448 
L 522.582814 332.082576 
L 523.57552 346.349239 
L 524.568226 335.55259 
L 525.560932 316.284198 
L 526.553638 300.771797 
L 527.546344 299.438102 
L 528.53905 301.02057 
L 529.531756 297.234271 
L 530.524462 285.644028 
L 531.517168 279.676884 
L 532.509874 277.562451 
L 533.50258 276.763145 
L 534.495286 271.508385 
L 535.487991 268.16016 
L 536.480697 267.027001 
L 537.473403 267.352013 
L 538.466109 268.831145 
L 539.458815 266.536576 
L 540.451521 265.902529 
L 541.444227 268.067296 
L 542.436933 273.955792 
L 543.429639 275.703288 
L 544.422345 276.903284 
L 545.415051 280.474793 
L 546.407757 286.415472 
L 548.393168 310.712206 
L 549.385874 311.089091 
L 550.37858 313.250451 
L 551.371286 338.931518 
L 552.363992 354.53634 
L 553.356698 351.464478 
L 554.349404 342.326908 
L 555.34211 325.400928 
L 556.334816 310.868879 
L 557.327522 307.678797 
L 558.320228 321.569571 
L 559.312934 329.780939 
L 560.30564 318.656022 
L 561.298345 317.331202 
L 562.291051 336.795147 
L 563.283757 389.304706 
L 564.276463 345.639392 
L 565.269169 333.610397 
L 566.261875 338.554417 
L 567.254581 320.555503 
L 568.247287 305.16723 
L 569.239993 297.168259 
L 570.232699 297.325302 
L 571.225405 298.193027 
L 572.218111 288.988708 
L 573.210817 284.318005 
L 574.203523 284.795596 
L 575.196228 291.677389 
L 576.188934 290.954655 
L 577.18164 289.242412 
L 578.174346 288.112753 
L 580.159758 307.011433 
L 581.152464 310.636553 
L 582.14517 309.915574 
L 583.137876 306.003818 
L 584.130582 326.527848 
L 585.123288 356.054073 
L 586.115994 370.806224 
L 587.1087 371.421358 
L 589.094111 342.695614 
L 590.086817 348.563919 
L 591.079523 341.806412 
L 592.072229 369.608109 
L 594.057641 333.790997 
L 595.050347 328.453205 
L 596.043053 328.206167 
L 597.035759 349.769978 
L 598.028465 348.021295 
L 599.021171 329.264914 
L 600.013877 326.891755 
L 601.006582 331.105033 
L 602.991994 367.157433 
L 603.9847 348.527085 
L 604.977406 337.513803 
L 605.970112 348.26821 
L 606.962818 352.535132 
L 607.955524 366.467905 
L 608.94823 369.301692 
L 609.940936 363.098863 
L 610.933642 332.035079 
L 611.926348 321.512022 
L 612.919054 320.770938 
L 613.911759 324.941707 
L 614.904465 320.891878 
L 615.897171 306.825479 
L 616.889877 302.701362 
L 617.882583 305.720113 
L 618.875289 310.25793 
L 619.867995 307.524683 
L 620.860701 302.701781 
L 621.853407 304.868034 
L 623.838819 322.400569 
L 624.831525 319.520682 
L 625.824231 315.503463 
L 626.816936 329.087757 
L 627.809642 356.024189 
L 628.802348 336.312864 
L 629.795054 325.697412 
L 630.78776 335.275965 
L 631.780466 336.284521 
L 632.773172 317.323829 
L 633.765878 313.447727 
L 634.758584 313.748132 
L 635.75129 318.958675 
L 637.736702 305.044072 
L 638.729408 306.074667 
L 640.714819 317.745333 
L 641.707525 310.218836 
L 642.700231 307.094794 
L 643.692937 313.928037 
L 644.685643 327.476072 
L 645.678349 329.281137 
L 646.671055 324.567274 
L 647.663761 324.520515 
L 648.656467 338.765287 
L 649.649173 368.646125 
L 650.641879 369.824192 
L 651.634585 347.856659 
L 652.627291 348.054765 
L 653.619996 352.279715 
L 654.612702 372.145401 
L 655.605408 408.888378 
L 656.598114 363.723448 
L 657.59082 349.604551 
L 658.583526 347.182693 
L 659.576232 377.954893 
L 660.568938 416.41419 
L 661.561644 363.800187 
L 662.55435 358.21288 
L 663.547056 374.344706 
L 664.539762 384.681825 
L 665.532468 366.067866 
L 666.525173 375.834625 
L 667.517879 456.671085 
L 668.510585 361.003995 
L 669.503291 340.476551 
L 670.495997 338.088037 
L 671.488703 348.044762 
L 672.481409 345.737489 
L 673.474115 327.815432 
L 674.466821 320.325257 
L 675.459527 322.391031 
L 676.452233 329.653158 
L 677.444939 325.27355 
L 678.437645 314.379594 
L 679.43035 312.199995 
L 680.423056 316.713577 
L 681.415762 323.464461 
L 682.408468 317.461203 
L 683.401174 310.482007 
L 684.39388 309.905313 
L 685.386586 316.78127 
L 686.379292 322.455088 
L 687.371998 318.167052 
L 688.364704 312.512342 
L 689.35741 313.83583 
L 690.350116 322.412503 
L 691.342822 329.598867 
L 692.335527 323.80812 
L 693.328233 319.532444 
L 694.320939 321.808682 
L 695.313645 332.118982 
L 696.306351 344.400566 
L 697.299057 338.9283 
L 698.291763 330.633052 
L 699.284469 330.375853 
L 700.277175 337.389452 
L 701.269881 348.880497 
L 702.262587 345.959334 
L 703.255293 331.465832 
L 704.247999 322.272902 
L 705.240705 321.024807 
L 706.23341 326.108104 
L 707.226116 325.710793 
L 708.218822 315.584124 
L 709.211528 308.791903 
L 710.204234 308.995182 
L 711.19694 313.743442 
L 712.189646 313.119671 
L 713.182352 305.977063 
L 714.175058 302.571723 
L 715.167764 305.04697 
L 716.16047 310.495739 
L 717.153176 309.201005 
L 718.145882 304.07659 
L 719.138587 303.666839 
L 720.131293 308.85207 
L 721.123999 314.666144 
L 722.116705 312.296086 
L 723.109411 307.849674 
L 724.102117 310.25652 
L 725.094823 318.945528 
L 726.087529 324.925321 
L 727.080235 319.202345 
L 728.072941 316.424563 
L 729.065647 321.512704 
L 730.058353 333.177913 
L 731.051059 336.771049 
L 732.043764 328.533592 
L 733.03647 325.985357 
L 734.029176 334.032762 
L 735.021882 349.736727 
L 736.014588 349.047923 
L 737.007294 337.477527 
L 738 335.27145 
L 738.992706 344.507877 
L 739.985412 365.641268 
L 740.978118 360.508875 
L 741.970824 344.826683 
L 742.96353 341.408977 
L 743.956236 349.618641 
L 744.948941 372.485402 
L 745.941647 368.97702 
L 746.934353 348.891508 
L 747.927059 342.41809 
L 748.919765 347.451225 
L 749.912471 364.990491 
L 750.905177 368.720616 
L 751.897883 347.290646 
L 752.890589 338.409974 
L 753.883295 340.238527 
L 754.876001 353.628738 
L 755.868707 357.271886 
L 756.861413 340.412189 
L 757.854118 332.776131 
L 758.846824 336.421278 
L 759.83953 349.926778 
L 760.832236 350.600373 
L 761.824942 336.418447 
L 762.817648 332.036564 
L 763.810354 339.418385 
L 764.80306 356.151544 
L 765.795766 353.706777 
L 766.788472 340.820554 
L 767.781178 339.650694 
L 768.773884 354.137531 
L 769.76659 387.357779 
L 770.759295 366.451754 
L 771.752001 355.634375 
L 772.744707 362.604563 
L 773.737413 398.631486 
L 774.730119 397.393759 
L 775.722825 375.985076 
L 776.715531 384.754686 
L 777.708237 428.166126 
L 778.700943 369.18548 
L 779.693649 354.949314 
L 780.686355 357.075516 
L 781.679061 380.375295 
L 782.671767 369.160287 
L 783.664473 346.272736 
L 784.657178 340.227282 
L 785.649884 346.748668 
L 786.64259 361.51032 
L 787.635296 351.005455 
L 788.628002 337.270325 
L 789.620708 334.996833 
L 790.613414 342.579653 
L 791.60612 354.996643 
L 792.598826 347.303152 
L 793.591532 335.37345 
L 794.584238 333.907553 
L 795.576944 342.948895 
L 796.56965 355.608307 
L 797.562355 348.902813 
L 798.555061 337.093276 
L 799.547767 335.269922 
L 800.540473 343.026714 
L 801.533179 356.057448 
L 802.525885 351.854236 
L 803.518591 338.671786 
L 804.511297 334.392435 
L 805.504003 339.965336 
L 806.496709 352.08327 
L 807.489415 351.614742 
L 808.482121 336.986713 
L 809.474827 331.999177 
L 810.467532 336.689327 
L 811.460238 348.43801 
L 812.452944 348.945265 
L 813.44565 336.402638 
L 814.438356 331.745451 
L 815.431062 336.006563 
L 816.423768 348.732376 
L 817.416474 350.168022 
L 818.40918 338.675226 
L 819.401886 333.516283 
L 820.394592 337.738704 
L 821.387298 350.653169 
L 822.380004 354.006081 
L 823.372709 340.75658 
L 824.365415 334.495517 
L 825.358121 339.299091 
L 826.350827 352.194569 
L 827.343533 354.938944 
L 828.336239 341.379447 
L 829.328945 335.06457 
L 830.321651 339.366315 
L 831.314357 353.716475 
L 832.307063 353.798451 
L 833.299769 340.15451 
L 834.292475 336.037359 
L 835.285181 344.374918 
L 836.277886 360.487586 
L 837.270592 352.820729 
L 838.263298 340.632705 
L 839.256004 340.788761 
L 840.24871 355.288927 
L 841.241416 366.416871 
L 842.234122 348.514601 
L 843.226828 341.713385 
L 844.219534 348.871413 
L 845.21224 370.430644 
L 846.204946 358.254124 
L 847.197652 344.198169 
L 848.190358 344.548101 
L 849.183064 359.338262 
L 850.175769 371.064936 
L 851.168475 351.129936 
L 852.161181 344.298048 
L 853.153887 351.442322 
L 854.146593 374.998415 
L 855.139299 371.838762 
L 856.132005 354.353958 
L 857.124711 353.536677 
L 858.117417 369.249543 
L 859.110123 426.709986 
L 860.102829 389.996024 
L 861.095535 373.030018 
L 862.088241 372.425159 
L 863.080946 375.770097 
L 864.073652 382.024147 
L 865.066358 414.670943 
L 866.059064 395.428889 
L 867.05177 361.295813 
L 868.044476 350.354844 
L 869.037182 354.743579 
L 870.029888 369.861067 
L 871.022594 358.425872 
L 872.0153 341.806922 
L 873.008006 337.419244 
L 874.000712 344.044803 
L 874.993418 353.45795 
L 875.986123 342.978044 
L 876.978829 333.692903 
L 877.971535 333.755771 
L 878.964241 344.042333 
L 879.956947 350.63259 
L 880.949653 338.372764 
L 881.942359 333.069393 
L 882.935065 338.798669 
L 883.927771 353.733203 
L 884.920477 352.76431 
L 885.913183 341.009634 
L 886.905889 340.632072 
L 887.898595 353.510421 
L 888.8913 373.540746 
L 889.884006 358.746356 
L 890.876712 349.67127 
L 891.869418 356.222256 
L 892.862124 383.297048 
L 893.85483 396.092267 
L 894.847536 366.889131 
L 895.840242 363.97004 
L 896.832948 377.609484 
L 897.825654 418.386767 
L 898.81836 405.616717 
L 899.811066 384.074251 
L 900.803772 378.254323 
L 901.796477 376.664043 
L 902.789183 386.461932 
L 903.781889 442.854181 
L 904.774595 389.94273 
L 905.767301 363.769608 
L 906.760007 359.140876 
L 907.752713 371.706883 
L 908.745419 392.924056 
L 909.738125 362.854724 
L 910.730831 348.830404 
L 911.723537 349.085423 
L 912.716243 363.117461 
L 913.708949 369.438277 
L 914.701655 349.766565 
L 915.69436 342.830752 
L 916.687066 347.460351 
L 917.679772 363.797494 
L 918.672478 361.757847 
L 919.665184 347.721924 
L 920.65789 344.344015 
L 921.650596 354.022524 
L 922.643302 375.980394 
L 923.636008 370.138152 
L 924.628714 355.345909 
L 925.62142 353.758581 
L 926.614126 364.503519 
L 927.606832 394.899005 
L 928.599537 398.0021 
L 929.592243 370.19617 
L 930.584949 358.190343 
L 931.577655 358.7779 
L 932.570361 371.650974 
L 933.563067 391.2098 
L 934.555773 364.239222 
L 935.548479 348.918241 
L 936.541185 346.570402 
L 938.526597 368.031734 
L 939.519303 352.295397 
L 940.512009 341.46109 
L 941.504714 343.058189 
L 942.49742 355.668395 
L 943.490126 365.698696 
L 944.482832 350.748024 
L 945.475538 344.302605 
L 946.468244 350.435502 
L 947.46095 372.47421 
L 948.453656 380.933403 
L 949.446362 361.108623 
L 950.439068 359.816284 
L 951.431774 374.246879 
L 952.42448 416.241836 
L 953.417186 410.097256 
L 954.409891 396.89453 
L 955.402597 395.694561 
L 956.395303 377.091763 
L 957.388009 367.42003 
L 958.380715 373.399994 
L 959.373421 402.264728 
L 960.366127 373.522631 
L 961.358833 353.567294 
L 962.351539 349.895085 
L 963.344245 360.287564 
L 964.336951 372.785483 
L 965.329657 355.872805 
L 966.322363 345.015951 
L 967.315068 346.28248 
L 968.307774 362.368969 
L 969.30048 369.997749 
L 970.293186 353.649045 
L 971.285892 347.687511 
L 972.278598 354.974272 
L 973.271304 380.133838 
L 974.26401 383.721721 
L 975.256716 363.815724 
L 976.249422 362.74955 
L 977.242128 376.687934 
L 978.234834 411.045232 
L 979.22754 417.185327 
L 980.220246 396.504701 
L 982.205657 373.984306 
L 983.198363 372.874087 
L 984.191069 390.004807 
L 985.183775 412.375002 
L 986.176481 368.613042 
L 987.169187 354.688752 
L 988.161893 356.789435 
L 989.154599 374.459721 
L 990.147305 375.589686 
L 991.140011 354.271283 
L 992.132717 347.88783 
L 993.125423 354.695572 
L 994.118128 373.127398 
L 995.110834 365.970974 
L 996.10354 350.745786 
L 997.096246 349.307103 
L 998.088952 361.873019 
L 999.081658 384.896184 
L 1000.074364 366.629015 
L 1001.06707 354.445623 
L 1002.059776 358.072818 
L 1003.052482 380.219481 
L 1004.045188 410.469215 
L 1005.037894 375.428872 
L 1006.0306 364.929336 
L 1007.023305 369.896435 
L 1008.016011 392.759706 
L 1009.008717 492.48 
L 1010.001423 393.399815 
L 1010.994129 372.792647 
L 1011.986835 368.303612 
L 1012.979541 376.573408 
L 1013.972247 412.667349 
L 1014.964953 390.989112 
L 1015.957659 363.570094 
L 1016.950365 356.245136 
L 1017.943071 364.46099 
L 1018.935777 387.09032 
L 1020.921188 353.304716 
L 1021.913894 350.075724 
L 1022.9066 361.768727 
L 1023.899306 376.719805 
L 1024.892012 359.661268 
L 1025.884718 348.680879 
L 1026.877424 350.431584 
L 1027.87013 365.619353 
L 1028.862836 377.740454 
L 1029.855542 358.552185 
L 1030.848248 350.992219 
L 1031.840954 356.438331 
L 1032.833659 378.671321 
L 1033.826365 389.088733 
L 1034.819071 365.68705 
L 1035.811777 360.133584 
L 1036.804483 366.0917 
L 1037.797189 389.903437 
L 1038.789895 435.798256 
L 1039.782601 384.608732 
L 1040.775307 367.308615 
L 1041.768013 364.424476 
L 1042.760719 372.426704 
L 1043.753425 401.343167 
L 1044.746131 382.016012 
L 1045.738837 359.222719 
L 1046.731542 352.232198 
L 1047.724248 359.865538 
L 1048.716954 376.147456 
L 1049.70966 366.336474 
L 1050.702366 350.400963 
L 1051.695072 346.596335 
L 1052.687778 356.00771 
L 1053.680484 370.640902 
L 1055.665896 347.038265 
L 1056.658602 347.28978 
L 1057.651308 360.541986 
L 1058.644014 375.359694 
L 1059.636719 359.832451 
L 1060.629425 351.324656 
L 1061.622131 355.779662 
L 1062.614837 376.916936 
L 1063.607543 392.136668 
L 1064.600249 368.50133 
L 1065.592955 362.932742 
L 1066.585661 372.066767 
L 1067.578367 407.09992 
L 1068.571073 421.121122 
L 1069.563779 385.314612 
L 1070.556485 379.970934 
L 1073.534602 402.565225 
L 1074.527308 416.145087 
L 1075.520014 393.18023 
L 1076.51272 379.165161 
L 1077.505426 377.318626 
L 1078.498132 394.964282 
L 1079.490838 448.613742 
L 1080.483544 384.702555 
L 1081.47625 370.18337 
L 1082.468956 375.030638 
L 1083.461662 408.786557 
L 1084.454368 411.012599 
L 1085.447073 376.35114 
L 1086.439779 371.030026 
L 1087.432485 386.525167 
L 1088.425191 469.733078 
L 1089.417897 391.412159 
L 1090.410603 374.775838 
L 1091.403309 378.354685 
L 1092.396015 415.239739 
L 1093.388721 409.311496 
L 1094.381427 378.331006 
L 1095.374133 374.826593 
L 1096.366839 391.525061 
L 1097.359545 470.478161 
L 1098.35225 385.027657 
L 1099.344956 372.191219 
L 1100.337662 378.395111 
L 1101.330368 413.849387 
L 1102.323074 404.422691 
L 1103.31578 375.232449 
L 1104.308486 370.349806 
L 1105.301192 383.852362 
L 1106.293898 466.343841 
L 1107.286604 393.705037 
L 1108.27931 373.23752 
L 1109.272016 373.422601 
L 1110.264722 391.702692 
L 1111.257428 476.108183 
L 1112.250133 390.970126 
L 1113.242839 375.464864 
L 1114.235545 375.756462 
L 1115.228251 395.974259 
L 1116.220957 443.952247 
L 1117.213663 395.208929 
L 1118.206369 376.729302 
L 1119.199075 377.504564 
L 1120.191781 391.920614 
L 1121.184487 450.970703 
L 1122.177193 396.942532 
L 1123.169899 377.20088 
L 1124.162605 377.155317 
L 1125.15531 394.058512 
L 1126.148016 454.900101 
L 1127.140722 390.009107 
L 1128.133428 376.445109 
L 1129.126134 377.152951 
L 1130.11884 401.224255 
L 1131.111546 437.082601 
L 1132.104252 384.619142 
L 1133.096958 375.983165 
L 1134.089664 383.510938 
L 1135.08237 417.429266 
L 1136.075076 410.051022 
L 1137.067782 384.378077 
L 1138.060487 379.908992 
L 1139.053193 389.915956 
L 1140.045899 417.292807 
L 1141.038605 404.739761 
L 1142.031311 389.980315 
L 1143.024017 386.684433 
L 1144.016723 393.162852 
L 1146.002135 410.668753 
L 1147.987547 386.635106 
L 1148.980253 381.909263 
L 1149.972959 394.175019 
L 1150.965664 442.684146 
L 1151.95837 392.336552 
L 1152.951076 373.804025 
L 1153.943782 372.601989 
L 1154.936488 392.449552 
L 1155.929194 429.945099 
L 1156.9219 376.344972 
L 1157.914606 363.169736 
L 1158.907312 367.529055 
L 1159.900018 394.194483 
L 1160.892724 394.342545 
L 1161.88543 366.762333 
L 1162.878136 360.111861 
L 1163.870841 371.512027 
L 1164.863547 402.688671 
L 1165.856253 379.733014 
L 1166.848959 362.751693 
L 1167.841665 363.76416 
L 1168.834371 386.258558 
L 1169.827077 415.479311 
L 1170.819783 374.975316 
L 1171.812489 367.373096 
L 1172.805195 380.408957 
L 1173.797901 461.173401 
L 1174.790607 391.054408 
L 1175.783313 374.766481 
L 1176.776019 384.098442 
L 1177.768724 443.910476 
L 1178.76143 391.277203 
L 1179.754136 371.046868 
L 1180.746842 375.409914 
L 1181.739548 412.434925 
L 1182.732254 394.22765 
L 1183.72496 367.034676 
L 1184.717666 363.747465 
L 1185.710372 377.812015 
L 1186.703078 405.504471 
L 1187.695784 369.950187 
L 1188.68849 358.550635 
L 1189.681196 364.702174 
L 1190.673901 388.55583 
L 1191.666607 389.067303 
L 1192.659313 365.35912 
L 1193.652019 362.115053 
L 1194.644725 375.896012 
L 1195.637431 425.27113 
L 1196.630137 390.128373 
L 1197.622843 373.034968 
L 1198.615549 377.983718 
L 1199.608255 402.408068 
L 1200.600961 409.116614 
L 1201.593667 393.968613 
L 1202.586373 403.248272 
L 1203.579078 402.837295 
L 1204.571784 379.693814 
L 1205.56449 373.095706 
L 1206.557196 386.080461 
L 1207.549902 422.346203 
L 1208.542608 374.287434 
L 1209.535314 357.896936 
L 1210.52802 359.094055 
L 1211.520726 375.394374 
L 1212.513432 379.147925 
L 1213.506138 356.734062 
L 1214.498844 349.445837 
L 1215.49155 354.965751 
L 1216.484255 371.289565 
L 1217.476961 365.40157 
L 1218.469667 350.431843 
L 1219.462373 347.489216 
L 1220.455079 357.622929 
L 1221.447785 374.294924 
L 1223.433197 351.151919 
L 1224.425903 351.806213 
L 1225.418609 365.842383 
L 1226.411315 387.49571 
L 1227.404021 368.550225 
L 1228.396727 357.077549 
L 1229.389432 358.670328 
L 1230.382138 375.956171 
L 1231.374844 404.140708 
L 1232.36755 379.060235 
L 1233.360256 363.348233 
L 1234.352962 361.935645 
L 1235.345668 374.439318 
L 1236.338374 404.545199 
L 1237.33108 381.580971 
L 1238.323786 361.908618 
L 1239.316492 358.739149 
L 1240.309198 369.001668 
L 1241.301904 394.18065 
L 1242.29461 373.902409 
L 1243.287315 357.881749 
L 1244.280021 355.983709 
L 1245.272727 368.874935 
L 1245.272727 368.874935 
" clip-path="url(#p00caa5bc5d)" style="fill: none; stroke: #1f77b4; stroke-width: 1.5; stroke-linecap: square"/>
   </g>
   <g id="patch_3">
    <path d="M 180 512.64 
L 180 69.12 
" style="fill: none; stroke: #000000; stroke-width: 0.8; stroke-linejoin: miter; stroke-linecap: square"/>
   </g>
   <g id="patch_4">
    <path d="M 1296 512.64 
L 1296 69.12 
" style="fill: none; stroke: #000000; stroke-width: 0.8; stroke-linejoin: miter; stroke-linecap: square"/>
   </g>
   <g id="patch_5">
    <path d="M 180 512.64 
L 1296 512.64 
" style="fill: none; stroke: #000000; stroke-width: 0.8; stroke-linejoin: miter; stroke-linecap: square"/>
   </g>
   <g id="patch_6">
    <path d="M 180 69.12 
L 1296 69.12 
" style="fill: none; stroke: #000000; stroke-width: 0.8; stroke-linejoin: miter; stroke-linecap: square"/>
   </g>
   <g id="text_13">
    <!-- source18-receiver21 -->
    <g transform="translate(532.175 60.80125) scale(0.4 -0.4)">
     <defs>
      <path id="DejaVuSans-73" d="M 2834 3397 
L 2834 2853 
Q 2591 2978 2328 3040 
Q 2066 3103 1784 3103 
Q 1356 3103 1142 2972 
Q 928 2841 928 2578 
Q 928 2378 1081 2264 
Q 1234 2150 1697 2047 
L 1894 2003 
Q 2506 1872 2764 1633 
Q 3022 1394 3022 966 
Q 3022 478 2636 193 
Q 2250 -91 1575 -91 
Q 1294 -91 989 -36 
Q 684 19 347 128 
L 347 722 
Q 666 556 975 473 
Q 1284 391 1588 391 
Q 1994 391 2212 530 
Q 2431 669 2431 922 
Q 2431 1156 2273 1281 
Q 2116 1406 1581 1522 
L 1381 1569 
Q 847 1681 609 1914 
Q 372 2147 372 2553 
Q 372 3047 722 3315 
Q 1072 3584 1716 3584 
Q 2034 3584 2315 3537 
Q 2597 3491 2834 3397 
z
" transform="scale(0.015625)"/>
      <path id="DejaVuSans-6f" d="M 1959 3097 
Q 1497 3097 1228 2736 
Q 959 2375 959 1747 
Q 959 1119 1226 758 
Q 1494 397 1959 397 
Q 2419 397 2687 759 
Q 2956 1122 2956 1747 
Q 2956 2369 2687 2733 
Q 2419 3097 1959 3097 
z
M 1959 3584 
Q 2709 3584 3137 3096 
Q 3566 2609 3566 1747 
Q 3566 888 3137 398 
Q 2709 -91 1959 -91 
Q 1206 -91 779 398 
Q 353 888 353 1747 
Q 353 2609 779 3096 
Q 1206 3584 1959 3584 
z
" transform="scale(0.015625)"/>
      <path id="DejaVuSans-75" d="M 544 1381 
L 544 3500 
L 1119 3500 
L 1119 1403 
Q 1119 906 1312 657 
Q 1506 409 1894 409 
Q 2359 409 2629 706 
Q 2900 1003 2900 1516 
L 2900 3500 
L 3475 3500 
L 3475 0 
L 2900 0 
L 2900 538 
Q 2691 219 2414 64 
Q 2138 -91 1772 -91 
Q 1169 -91 856 284 
Q 544 659 544 1381 
z
M 1991 3584 
L 1991 3584 
z
" transform="scale(0.015625)"/>
      <path id="DejaVuSans-72" d="M 2631 2963 
Q 2534 3019 2420 3045 
Q 2306 3072 2169 3072 
Q 1681 3072 1420 2755 
Q 1159 2438 1159 1844 
L 1159 0 
L 581 0 
L 581 3500 
L 1159 3500 
L 1159 2956 
Q 1341 3275 1631 3429 
Q 1922 3584 2338 3584 
Q 2397 3584 2469 3576 
Q 2541 3569 2628 3553 
L 2631 2963 
z
" transform="scale(0.015625)"/>
      <path id="DejaVuSans-63" d="M 3122 3366 
L 3122 2828 
Q 2878 2963 2633 3030 
Q 2388 3097 2138 3097 
Q 1578 3097 1268 2742 
Q 959 2388 959 1747 
Q 959 1106 1268 751 
Q 1578 397 2138 397 
Q 2388 397 2633 464 
Q 2878 531 3122 666 
L 3122 134 
Q 2881 22 2623 -34 
Q 2366 -91 2075 -91 
Q 1284 -91 818 406 
Q 353 903 353 1747 
Q 353 2603 823 3093 
Q 1294 3584 2113 3584 
Q 2378 3584 2631 3529 
Q 2884 3475 3122 3366 
z
" transform="scale(0.015625)"/>
      <path id="DejaVuSans-65" d="M 3597 1894 
L 3597 1613 
L 953 1613 
Q 991 1019 1311 708 
Q 1631 397 2203 397 
Q 2534 397 2845 478 
Q 3156 559 3463 722 
L 3463 178 
Q 3153 47 2828 -22 
Q 2503 -91 2169 -91 
Q 1331 -91 842 396 
Q 353 884 353 1716 
Q 353 2575 817 3079 
Q 1281 3584 2069 3584 
Q 2775 3584 3186 3129 
Q 3597 2675 3597 1894 
z
M 3022 2063 
Q 3016 2534 2758 2815 
Q 2500 3097 2075 3097 
Q 1594 3097 1305 2825 
Q 1016 2553 972 2059 
L 3022 2063 
z
" transform="scale(0.015625)"/>
      <path id="DejaVuSans-38" d="M 2034 2216 
Q 1584 2216 1326 1975 
Q 1069 1734 1069 1313 
Q 1069 891 1326 650 
Q 1584 409 2034 409 
Q 2484 409 2743 651 
Q 3003 894 3003 1313 
Q 3003 1734 2745 1975 
Q 2488 2216 2034 2216 
z
M 1403 2484 
Q 997 2584 770 2862 
Q 544 3141 544 3541 
Q 544 4100 942 4425 
Q 1341 4750 2034 4750 
Q 2731 4750 3128 4425 
Q 3525 4100 3525 3541 
Q 3525 3141 3298 2862 
Q 3072 2584 2669 2484 
Q 3125 2378 3379 2068 
Q 3634 1759 3634 1313 
Q 3634 634 3220 271 
Q 2806 -91 2034 -91 
Q 1263 -91 848 271 
Q 434 634 434 1313 
Q 434 1759 690 2068 
Q 947 2378 1403 2484 
z
M 1172 3481 
Q 1172 3119 1398 2916 
Q 1625 2713 2034 2713 
Q 2441 2713 2670 2916 
Q 2900 3119 2900 3481 
Q 2900 3844 2670 4047 
Q 2441 4250 2034 4250 
Q 1625 4250 1398 4047 
Q 1172 3844 1172 3481 
z
" transform="scale(0.015625)"/>
      <path id="DejaVuSans-2d" d="M 313 2009 
L 1997 2009 
L 1997 1497 
L 313 1497 
L 313 2009 
z
" transform="scale(0.015625)"/>
      <path id="DejaVuSans-69" d="M 603 3500 
L 1178 3500 
L 1178 0 
L 603 0 
L 603 3500 
z
M 603 4863 
L 1178 4863 
L 1178 4134 
L 603 4134 
L 603 4863 
z
" transform="scale(0.015625)"/>
      <path id="DejaVuSans-76" d="M 191 3500 
L 800 3500 
L 1894 563 
L 2988 3500 
L 3597 3500 
L 2284 0 
L 1503 0 
L 191 3500 
z
" transform="scale(0.015625)"/>
     </defs>
     <use xlink:href="#DejaVuSans-73"/>
     <use xlink:href="#DejaVuSans-6f" x="52.099609"/>
     <use xlink:href="#DejaVuSans-75" x="113.28125"/>
     <use xlink:href="#DejaVuSans-72" x="176.660156"/>
     <use xlink:href="#DejaVuSans-63" x="215.523438"/>
     <use xlink:href="#DejaVuSans-65" x="270.503906"/>
     <use xlink:href="#DejaVuSans-31" x="332.027344"/>
     <use xlink:href="#DejaVuSans-38" x="395.650391"/>
     <use xlink:href="#DejaVuSans-2d" x="459.273438"/>
     <use xlink:href="#DejaVuSans-72" x="495.357422"/>
     <use xlink:href="#DejaVuSans-65" x="534.220703"/>
     <use xlink:href="#DejaVuSans-63" x="595.744141"/>
     <use xlink:href="#DejaVuSans-65" x="650.724609"/>
     <use xlink:href="#DejaVuSans-69" x="712.248047"/>
     <use xlink:href="#DejaVuSans-76" x="740.03125"/>
     <use xlink:href="#DejaVuSans-65" x="799.210938"/>
     <use xlink:href="#DejaVuSans-72" x="860.734375"/>
     <use xlink:href="#DejaVuSans-32" x="901.847656"/>
     <use xlink:href="#DejaVuSans-31" x="965.470703"/>
    </g>
   </g>
  </g>
 </g>
 <defs>
  <clipPath id="p00caa5bc5d">
   <rect x="180" y="69.12" width="1116" height="443.52"/>
  </clipPath>
 </defs>
</svg>
