<?xml version="1.0" encoding="utf-8" standalone="no"?>
<!DOCTYPE svg PUBLIC "-//W3C//DTD SVG 1.1//EN"
  "http://www.w3.org/Graphics/SVG/1.1/DTD/svg11.dtd">
<svg xmlns:xlink="http://www.w3.org/1999/xlink" width="1440pt" height="576pt" viewBox="0 0 1440 576" xmlns="http://www.w3.org/2000/svg" version="1.1">
 <metadata>
  <rdf:RDF xmlns:dc="http://purl.org/dc/elements/1.1/" xmlns:cc="http://creativecommons.org/ns#" xmlns:rdf="http://www.w3.org/1999/02/22-rdf-syntax-ns#">
   <cc:Work>
    <dc:type rdf:resource="http://purl.org/dc/dcmitype/StillImage"/>
    <dc:date>2024-05-22T04:50:13.323133</dc:date>
    <dc:format>image/svg+xml</dc:format>
    <dc:creator>
     <cc:Agent>
      <dc:title>Matplotlib v3.8.3, https://matplotlib.org/</dc:title>
     </cc:Agent>
    </dc:creator>
   </cc:Work>
  </rdf:RDF>
 </metadata>
 <defs>
  <style type="text/css">*{stroke-linejoin: round; stroke-linecap: butt}</style>
 </defs>
 <g id="figure_1">
  <g id="patch_1">
   <path d="M 0 576 
L 1440 576 
L 1440 0 
L 0 0 
z
" style="fill: #ffffff"/>
  </g>
  <g id="axes_1">
   <g id="patch_2">
    <path d="M 180 512.64 
L 1296 512.64 
L 1296 69.12 
L 180 69.12 
z
" style="fill: #ffffff"/>
   </g>
   <g id="matplotlib.axis_1">
    <g id="xtick_1">
     <g id="line2d_1">
      <defs>
       <path id="mfec1b70dee" d="M 0 0 
L 0 3.5 
" style="stroke: #000000; stroke-width: 0.8"/>
      </defs>
      <g>
       <use xlink:href="#mfec1b70dee" x="229.734567" y="512.64" style="stroke: #000000; stroke-width: 0.8"/>
      </g>
     </g>
     <g id="text_1">
      <!-- 0 -->
      <g transform="translate(226.553317 527.238438) scale(0.1 -0.1)">
       <defs>
        <path id="DejaVuSans-30" d="M 2034 4250 
Q 1547 4250 1301 3770 
Q 1056 3291 1056 2328 
Q 1056 1369 1301 889 
Q 1547 409 2034 409 
Q 2525 409 2770 889 
Q 3016 1369 3016 2328 
Q 3016 3291 2770 3770 
Q 2525 4250 2034 4250 
z
M 2034 4750 
Q 2819 4750 3233 4129 
Q 3647 3509 3647 2328 
Q 3647 1150 3233 529 
Q 2819 -91 2034 -91 
Q 1250 -91 836 529 
Q 422 1150 422 2328 
Q 422 3509 836 4129 
Q 1250 4750 2034 4750 
z
" transform="scale(0.015625)"/>
       </defs>
       <use xlink:href="#DejaVuSans-30"/>
      </g>
     </g>
    </g>
    <g id="xtick_2">
     <g id="line2d_2">
      <g>
       <use xlink:href="#mfec1b70dee" x="433.04074" y="512.64" style="stroke: #000000; stroke-width: 0.8"/>
      </g>
     </g>
     <g id="text_2">
      <!-- 500 -->
      <g transform="translate(423.49699 527.238438) scale(0.1 -0.1)">
       <defs>
        <path id="DejaVuSans-35" d="M 691 4666 
L 3169 4666 
L 3169 4134 
L 1269 4134 
L 1269 2991 
Q 1406 3038 1543 3061 
Q 1681 3084 1819 3084 
Q 2600 3084 3056 2656 
Q 3513 2228 3513 1497 
Q 3513 744 3044 326 
Q 2575 -91 1722 -91 
Q 1428 -91 1123 -41 
Q 819 9 494 109 
L 494 744 
Q 775 591 1075 516 
Q 1375 441 1709 441 
Q 2250 441 2565 725 
Q 2881 1009 2881 1497 
Q 2881 1984 2565 2268 
Q 2250 2553 1709 2553 
Q 1456 2553 1204 2497 
Q 953 2441 691 2322 
L 691 4666 
z
" transform="scale(0.015625)"/>
       </defs>
       <use xlink:href="#DejaVuSans-35"/>
       <use xlink:href="#DejaVuSans-30" x="63.623047"/>
       <use xlink:href="#DejaVuSans-30" x="127.246094"/>
      </g>
     </g>
    </g>
    <g id="xtick_3">
     <g id="line2d_3">
      <g>
       <use xlink:href="#mfec1b70dee" x="636.346913" y="512.64" style="stroke: #000000; stroke-width: 0.8"/>
      </g>
     </g>
     <g id="text_3">
      <!-- 1000 -->
      <g transform="translate(623.621913 527.238438) scale(0.1 -0.1)">
       <defs>
        <path id="DejaVuSans-31" d="M 794 531 
L 1825 531 
L 1825 4091 
L 703 3866 
L 703 4441 
L 1819 4666 
L 2450 4666 
L 2450 531 
L 3481 531 
L 3481 0 
L 794 0 
L 794 531 
z
" transform="scale(0.015625)"/>
       </defs>
       <use xlink:href="#DejaVuSans-31"/>
       <use xlink:href="#DejaVuSans-30" x="63.623047"/>
       <use xlink:href="#DejaVuSans-30" x="127.246094"/>
       <use xlink:href="#DejaVuSans-30" x="190.869141"/>
      </g>
     </g>
    </g>
    <g id="xtick_4">
     <g id="line2d_4">
      <g>
       <use xlink:href="#mfec1b70dee" x="839.653087" y="512.64" style="stroke: #000000; stroke-width: 0.8"/>
      </g>
     </g>
     <g id="text_4">
      <!-- 1500 -->
      <g transform="translate(826.928087 527.238438) scale(0.1 -0.1)">
       <use xlink:href="#DejaVuSans-31"/>
       <use xlink:href="#DejaVuSans-35" x="63.623047"/>
       <use xlink:href="#DejaVuSans-30" x="127.246094"/>
       <use xlink:href="#DejaVuSans-30" x="190.869141"/>
      </g>
     </g>
    </g>
    <g id="xtick_5">
     <g id="line2d_5">
      <g>
       <use xlink:href="#mfec1b70dee" x="1042.95926" y="512.64" style="stroke: #000000; stroke-width: 0.8"/>
      </g>
     </g>
     <g id="text_5">
      <!-- 2000 -->
      <g transform="translate(1030.23426 527.238438) scale(0.1 -0.1)">
       <defs>
        <path id="DejaVuSans-32" d="M 1228 531 
L 3431 531 
L 3431 0 
L 469 0 
L 469 531 
Q 828 903 1448 1529 
Q 2069 2156 2228 2338 
Q 2531 2678 2651 2914 
Q 2772 3150 2772 3378 
Q 2772 3750 2511 3984 
Q 2250 4219 1831 4219 
Q 1534 4219 1204 4116 
Q 875 4013 500 3803 
L 500 4441 
Q 881 4594 1212 4672 
Q 1544 4750 1819 4750 
Q 2544 4750 2975 4387 
Q 3406 4025 3406 3419 
Q 3406 3131 3298 2873 
Q 3191 2616 2906 2266 
Q 2828 2175 2409 1742 
Q 1991 1309 1228 531 
z
" transform="scale(0.015625)"/>
       </defs>
       <use xlink:href="#DejaVuSans-32"/>
       <use xlink:href="#DejaVuSans-30" x="63.623047"/>
       <use xlink:href="#DejaVuSans-30" x="127.246094"/>
       <use xlink:href="#DejaVuSans-30" x="190.869141"/>
      </g>
     </g>
    </g>
    <g id="xtick_6">
     <g id="line2d_6">
      <g>
       <use xlink:href="#mfec1b70dee" x="1246.265433" y="512.64" style="stroke: #000000; stroke-width: 0.8"/>
      </g>
     </g>
     <g id="text_6">
      <!-- 2500 -->
      <g transform="translate(1233.540433 527.238438) scale(0.1 -0.1)">
       <use xlink:href="#DejaVuSans-32"/>
       <use xlink:href="#DejaVuSans-35" x="63.623047"/>
       <use xlink:href="#DejaVuSans-30" x="127.246094"/>
       <use xlink:href="#DejaVuSans-30" x="190.869141"/>
      </g>
     </g>
    </g>
   </g>
   <g id="matplotlib.axis_2">
    <g id="ytick_1">
     <g id="line2d_7">
      <defs>
       <path id="me45590fe13" d="M 0 0 
L -3.5 0 
" style="stroke: #000000; stroke-width: 0.8"/>
      </defs>
      <g>
       <use xlink:href="#me45590fe13" x="180" y="452.584836" style="stroke: #000000; stroke-width: 0.8"/>
      </g>
     </g>
     <g id="text_7">
      <!-- −4 -->
      <g transform="translate(158.257812 456.384055) scale(0.1 -0.1)">
       <defs>
        <path id="DejaVuSans-2212" d="M 678 2272 
L 4684 2272 
L 4684 1741 
L 678 1741 
L 678 2272 
z
" transform="scale(0.015625)"/>
        <path id="DejaVuSans-34" d="M 2419 4116 
L 825 1625 
L 2419 1625 
L 2419 4116 
z
M 2253 4666 
L 3047 4666 
L 3047 1625 
L 3713 1625 
L 3713 1100 
L 3047 1100 
L 3047 0 
L 2419 0 
L 2419 1100 
L 313 1100 
L 313 1709 
L 2253 4666 
z
" transform="scale(0.015625)"/>
       </defs>
       <use xlink:href="#DejaVuSans-2212"/>
       <use xlink:href="#DejaVuSans-34" x="83.789062"/>
      </g>
     </g>
    </g>
    <g id="ytick_2">
     <g id="line2d_8">
      <g>
       <use xlink:href="#me45590fe13" x="180" y="372.463242" style="stroke: #000000; stroke-width: 0.8"/>
      </g>
     </g>
     <g id="text_8">
      <!-- −2 -->
      <g transform="translate(158.257812 376.262461) scale(0.1 -0.1)">
       <use xlink:href="#DejaVuSans-2212"/>
       <use xlink:href="#DejaVuSans-32" x="83.789062"/>
      </g>
     </g>
    </g>
    <g id="ytick_3">
     <g id="line2d_9">
      <g>
       <use xlink:href="#me45590fe13" x="180" y="292.341648" style="stroke: #000000; stroke-width: 0.8"/>
      </g>
     </g>
     <g id="text_9">
      <!-- 0 -->
      <g transform="translate(166.6375 296.140867) scale(0.1 -0.1)">
       <use xlink:href="#DejaVuSans-30"/>
      </g>
     </g>
    </g>
    <g id="ytick_4">
     <g id="line2d_10">
      <g>
       <use xlink:href="#me45590fe13" x="180" y="212.220054" style="stroke: #000000; stroke-width: 0.8"/>
      </g>
     </g>
     <g id="text_10">
      <!-- 2 -->
      <g transform="translate(166.6375 216.019273) scale(0.1 -0.1)">
       <use xlink:href="#DejaVuSans-32"/>
      </g>
     </g>
    </g>
    <g id="ytick_5">
     <g id="line2d_11">
      <g>
       <use xlink:href="#me45590fe13" x="180" y="132.09846" style="stroke: #000000; stroke-width: 0.8"/>
      </g>
     </g>
     <g id="text_11">
      <!-- 4 -->
      <g transform="translate(166.6375 135.897678) scale(0.1 -0.1)">
       <use xlink:href="#DejaVuSans-34"/>
      </g>
     </g>
    </g>
   </g>
   <g id="line2d_12">
    <path d="M 230.727273 346.810763 
L 231.719979 347.179241 
L 232.712685 346.169707 
L 233.70539 346.124297 
L 236.683508 344.685839 
L 237.676214 343.623304 
L 238.66892 342.871805 
L 240.654332 340.387019 
L 241.647038 338.942655 
L 244.625156 332.919169 
L 245.617862 328.26808 
L 246.610568 325.190988 
L 247.603273 333.000943 
L 249.588685 272.765327 
L 250.581391 255.080968 
L 251.574097 246.874061 
L 252.566803 248.225278 
L 253.559509 263.809528 
L 254.552215 287.720007 
L 255.544921 248.050125 
L 256.537627 238.981569 
L 257.530333 269.664437 
L 258.523039 274.789427 
L 259.515745 247.847916 
L 260.50845 288.030736 
L 261.501156 237.853047 
L 262.493862 219.299545 
L 263.486568 234.013173 
L 264.479274 278.471369 
L 265.47198 250.978434 
L 266.464686 260.091603 
L 267.457392 267.928839 
L 268.450098 233.26465 
L 269.442804 211.106686 
L 270.43551 215.209595 
L 271.428216 228.805649 
L 272.420922 190.696578 
L 273.413627 171.056298 
L 274.406333 160.367206 
L 275.399039 159.931724 
L 276.391745 163.221533 
L 277.384451 139.840538 
L 278.377157 122.725946 
L 279.369863 116.256819 
L 280.362569 108.241554 
L 281.355275 96.024477 
L 282.347981 89.28 
L 283.340687 91.261097 
L 286.318804 117.30667 
L 287.31151 133.530753 
L 288.304216 141.939574 
L 289.296922 136.90784 
L 290.289628 147.474225 
L 291.282334 160.853495 
L 292.27504 157.32008 
L 294.260452 185.520591 
L 295.253158 171.789434 
L 296.245864 180.543418 
L 297.23857 201.275316 
L 298.231276 199.822332 
L 299.223981 211.308039 
L 300.216687 226.645179 
L 301.209393 213.307089 
L 302.202099 211.334189 
L 303.194805 215.677944 
L 304.187511 219.098703 
L 305.180217 225.698753 
L 306.172923 226.984295 
L 307.165629 226.857977 
L 309.151041 237.34506 
L 310.143747 251.630522 
L 311.136453 269.750334 
L 312.129159 267.112678 
L 313.121864 290.827193 
L 314.11457 317.305441 
L 315.107276 302.488959 
L 316.099982 378.64212 
L 317.092688 316.261229 
L 318.085394 339.69999 
L 319.0781 346.504935 
L 320.070806 337.262888 
L 321.063512 346.611099 
L 322.056218 338.423999 
L 323.048924 339.255054 
L 324.04163 347.924437 
L 325.034336 346.78679 
L 326.027041 344.237083 
L 327.019747 350.589237 
L 328.012453 344.588964 
L 329.005159 347.216967 
L 329.997865 351.475509 
L 330.990571 342.691057 
L 331.983277 358.159482 
L 332.975983 376.793342 
L 333.968689 350.34246 
L 334.961395 344.346726 
L 335.954101 350.335692 
L 336.946807 383.331168 
L 337.939513 338.42967 
L 338.932218 355.388306 
L 339.924924 386.95637 
L 340.91763 352.514108 
L 341.910336 353.543216 
L 342.903042 403.63209 
L 343.895748 339.346394 
L 344.888454 355.426798 
L 345.88116 357.755741 
L 346.873866 324.575971 
L 347.866572 374.63426 
L 348.859278 324.653641 
L 349.851984 325.370626 
L 350.84469 360.282228 
L 351.837395 324.785914 
L 352.830101 356.959541 
L 353.822807 322.973368 
L 354.815513 320.1363 
L 355.808219 344.646363 
L 356.800925 311.316703 
L 357.793631 343.093286 
L 358.786337 324.609096 
L 359.779043 319.968496 
L 360.771749 347.418295 
L 361.764455 321.954696 
L 362.757161 341.088673 
L 363.749867 351.517092 
L 364.742572 340.742768 
L 365.735278 408.74746 
L 366.727984 335.28901 
L 367.72069 358.805417 
L 369.706102 330.16488 
L 370.698808 385.070486 
L 371.691514 341.275394 
L 372.68422 353.035747 
L 373.676926 404.930826 
L 374.669632 355.259561 
L 375.662338 407.194396 
L 376.655044 386.493749 
L 377.64775 381.608506 
L 378.640455 368.018783 
L 379.633161 364.297792 
L 380.625867 382.99971 
L 381.618573 371.34259 
L 382.611279 381.397855 
L 383.603985 397.506401 
L 384.596691 374.78378 
L 385.589397 358.368872 
L 386.582103 385.652893 
L 387.574809 390.124266 
L 388.567515 365.454881 
L 389.560221 383.643254 
L 390.552927 369.541358 
L 391.545632 358.257313 
L 392.538338 381.997969 
L 393.531044 373.162544 
L 394.52375 367.858272 
L 395.516456 364.473125 
L 396.509162 377.470643 
L 397.501868 381.829848 
L 398.494574 374.790253 
L 399.48728 392.437584 
L 400.479986 374.601615 
L 401.472692 385.049114 
L 402.465398 398.683445 
L 403.458104 369.342899 
L 404.450809 385.904392 
L 405.443515 390.353731 
L 406.436221 381.877757 
L 407.428927 403.370988 
L 408.421633 381.041502 
L 409.414339 388.224901 
L 410.407045 393.808395 
L 411.399751 387.217634 
L 412.392457 370.97587 
L 413.385163 373.480165 
L 414.377869 374.78414 
L 415.370575 387.190663 
L 416.363281 390.102315 
L 417.355986 380.305178 
L 418.348692 383.53184 
L 419.341398 400.222804 
L 420.334104 375.03018 
L 421.32681 381.819688 
L 422.319516 406.223446 
L 423.312222 394.818383 
L 424.304928 370.029313 
L 425.297634 381.662519 
L 426.29034 380.05161 
L 427.283046 373.678555 
L 428.275752 384.939963 
L 429.268458 380.272846 
L 430.261163 368.3361 
L 431.253869 377.949903 
L 432.246575 395.899382 
L 433.239281 376.443091 
L 434.231987 378.489255 
L 435.224693 394.666548 
L 436.217399 383.497907 
L 437.210105 381.7444 
L 438.202811 392.232516 
L 439.195517 407.015819 
L 440.188223 395.036898 
L 441.180929 394.354495 
L 443.166341 401.471644 
L 444.159046 384.01149 
L 445.151752 380.829185 
L 446.144458 380.338329 
L 447.137164 398.434202 
L 448.12987 396.275434 
L 449.122576 378.637707 
L 450.115282 411.671608 
L 451.107988 391.378735 
L 452.100694 379.961978 
L 453.0934 398.653353 
L 454.086106 396.442904 
L 455.078812 384.738807 
L 456.071518 392.190935 
L 457.064223 407.177284 
L 458.056929 379.923564 
L 459.049635 410.269713 
L 460.042341 378.398545 
L 461.035047 395.597955 
L 462.027753 395.649399 
L 463.020459 401.491087 
L 464.013165 402.157294 
L 465.005871 378.614137 
L 465.998577 384.15674 
L 466.991283 428.514946 
L 467.983989 420.46718 
L 468.976695 392.837957 
L 470.962106 418.528945 
L 471.954812 395.907228 
L 473.940224 415.791092 
L 474.93293 386.709512 
L 475.925636 389.132096 
L 476.918342 382.372204 
L 477.911048 415.161738 
L 478.903754 394.835416 
L 479.89646 384.714296 
L 480.889166 396.420756 
L 481.881872 379.591482 
L 482.874577 408.694219 
L 483.867283 406.825637 
L 484.859989 393.632471 
L 485.852695 383.61766 
L 486.845401 393.62257 
L 487.838107 399.760386 
L 488.830813 423.382084 
L 489.823519 410.557618 
L 491.808931 393.274079 
L 492.801637 419.261078 
L 493.794343 403.722476 
L 494.787049 397.156757 
L 495.779754 402.760992 
L 496.77246 416.455817 
L 497.765166 387.440983 
L 498.757872 412.091553 
L 499.750578 395.572922 
L 500.743284 400.74634 
L 501.73599 399.871603 
L 502.728696 417.478169 
L 503.721402 393.431584 
L 504.714108 432.603567 
L 505.706814 413.211736 
L 506.69952 381.523805 
L 507.692226 404.600101 
L 508.684932 413.853344 
L 509.677637 440.001723 
L 510.670343 408.761361 
L 511.663049 384.669367 
L 512.655755 404.964027 
L 513.648461 393.598648 
L 514.641167 403.04987 
L 515.633873 393.256195 
L 516.626579 398.559027 
L 517.619285 492.48 
L 518.611991 401.26752 
L 519.604697 386.975447 
L 520.597403 405.299427 
L 521.590109 389.898251 
L 522.582814 398.89832 
L 523.57552 380.306444 
L 524.568226 427.498282 
L 525.560932 407.460971 
L 526.553638 409.953854 
L 527.546344 415.87322 
L 528.53905 383.316111 
L 529.531756 450.719864 
L 530.524462 394.41113 
L 531.517168 390.845665 
L 532.509874 435.889489 
L 533.50258 411.911299 
L 534.495286 400.166729 
L 535.487991 410.998341 
L 536.480697 400.152439 
L 537.473403 387.62908 
L 538.466109 415.632264 
L 539.458815 417.94162 
L 540.451521 392.039982 
L 541.444227 391.711461 
L 542.436933 485.33592 
L 543.429639 409.667317 
L 544.422345 410.726861 
L 545.415051 409.75322 
L 546.407757 404.322192 
L 547.400463 411.273539 
L 548.393168 415.336273 
L 549.385874 396.212626 
L 550.37858 420.701552 
L 551.371286 376.647596 
L 553.356698 416.029932 
L 554.349404 414.222087 
L 555.34211 394.583174 
L 556.334816 403.81219 
L 557.327522 428.410164 
L 558.320228 389.421392 
L 559.312934 408.517177 
L 560.30564 389.219903 
L 561.298345 385.407218 
L 562.291051 406.70296 
L 563.283757 422.571045 
L 564.276463 384.921773 
L 565.269169 409.846444 
L 566.261875 387.377188 
L 567.254581 429.940056 
L 568.247287 400.537794 
L 569.239993 399.991529 
L 570.232699 409.283317 
L 571.225405 393.902687 
L 572.218111 412.41043 
L 573.210817 421.566972 
L 574.203523 411.094456 
L 575.196228 419.655001 
L 576.188934 414.360281 
L 577.18164 411.374779 
L 578.174346 404.899889 
L 579.167052 408.68666 
L 580.159758 420.485732 
L 581.152464 417.471541 
L 582.14517 396.425908 
L 583.137876 394.167091 
L 584.130582 399.545753 
L 585.123288 413.021635 
L 586.115994 407.104643 
L 587.1087 407.636949 
L 588.101405 407.487906 
L 589.094111 420.166029 
L 590.086817 410.821854 
L 591.079523 431.561551 
L 592.072229 397.66708 
L 593.064935 402.853248 
L 594.057641 453.99808 
L 595.050347 422.595899 
L 596.043053 407.385628 
L 597.035759 405.558997 
L 598.028465 410.97125 
L 599.021171 400.616588 
L 600.013877 405.309114 
L 601.006582 411.832793 
L 601.999288 402.342326 
L 602.991994 413.348386 
L 603.9847 399.931543 
L 604.977406 437.358784 
L 605.970112 407.119684 
L 606.962818 400.899538 
L 607.955524 418.156184 
L 608.94823 410.500767 
L 609.940936 421.25724 
L 610.933642 405.615164 
L 611.926348 403.344146 
L 612.919054 405.211457 
L 613.911759 408.433027 
L 614.904465 424.765016 
L 615.897171 418.05442 
L 616.889877 401.232473 
L 617.882583 432.329901 
L 618.875289 427.205404 
L 619.867995 443.787109 
L 620.860701 403.125347 
L 621.853407 424.615401 
L 622.846113 416.39429 
L 623.838819 427.405023 
L 624.831525 434.801265 
L 625.824231 412.799919 
L 626.816936 419.264369 
L 627.809642 412.024253 
L 628.802348 415.75861 
L 629.795054 435.592479 
L 630.78776 423.141746 
L 631.780466 417.550672 
L 632.773172 419.411498 
L 633.765878 423.163165 
L 634.758584 405.827654 
L 635.75129 417.067316 
L 636.743996 415.288196 
L 637.736702 414.0678 
L 638.729408 424.047406 
L 639.722114 417.199504 
L 640.714819 422.430775 
L 641.707525 415.861513 
L 642.700231 424.212313 
L 643.692937 418.349755 
L 644.685643 408.230686 
L 645.678349 419.801926 
L 646.671055 424.199395 
L 647.663761 416.469532 
L 648.656467 418.140055 
L 649.649173 418.496577 
L 650.641879 415.381197 
L 651.634585 419.736339 
L 652.627291 423.003961 
L 653.619996 435.636882 
L 654.612702 420.860224 
L 655.605408 410.654203 
L 656.598114 417.189825 
L 657.59082 414.193487 
L 658.583526 414.061029 
L 659.576232 418.556799 
L 660.568938 426.454035 
L 661.561644 418.628325 
L 662.55435 420.948648 
L 663.547056 415.724307 
L 664.539762 415.794665 
L 666.525173 427.949731 
L 667.517879 423.169516 
L 668.510585 423.087469 
L 669.503291 418.6902 
L 670.495997 421.697098 
L 671.488703 422.324819 
L 672.481409 422.225935 
L 673.474115 415.832159 
L 675.459527 423.536438 
L 676.452233 418.568762 
L 677.444939 423.206989 
L 678.437645 423.613845 
L 679.43035 416.210184 
L 680.423056 425.21981 
L 681.415762 420.553195 
L 682.408468 420.686326 
L 683.401174 420.145155 
L 684.39388 421.825114 
L 685.386586 419.625949 
L 686.379292 423.758674 
L 687.371998 421.519956 
L 688.364704 422.30239 
L 689.35741 421.025736 
L 690.350116 419.131958 
L 691.342822 423.808644 
L 692.335527 423.296031 
L 693.328233 420.281508 
L 694.320939 424.545542 
L 695.313645 425.209122 
L 696.306351 420.59926 
L 697.299057 423.137044 
L 698.291763 426.606119 
L 699.284469 420.686549 
L 700.277175 421.2548 
L 701.269881 427.545862 
L 702.262587 423.498275 
L 703.255293 421.940959 
L 704.247999 426.605013 
L 705.240705 424.080785 
L 706.23341 420.822475 
L 707.226116 425.246298 
L 708.218822 421.468504 
L 709.211528 420.285433 
L 710.204234 425.136495 
L 711.19694 425.177688 
L 712.189646 423.548643 
L 713.182352 424.839287 
L 714.175058 423.534272 
L 715.167764 426.789057 
L 716.16047 423.79349 
L 717.153176 424.275091 
L 718.145882 424.945146 
L 719.138587 425.385126 
L 720.131293 427.411047 
L 721.123999 422.919383 
L 722.116705 427.446107 
L 723.109411 423.478871 
L 724.102117 425.640299 
L 725.094823 424.629196 
L 726.087529 423.910387 
L 727.080235 424.573874 
L 728.072941 423.199703 
L 729.065647 426.31095 
L 730.058353 423.760581 
L 731.051059 425.808001 
L 732.043764 425.901898 
L 733.03647 424.485859 
L 734.029176 426.616267 
L 735.021882 425.769199 
L 736.014588 425.836019 
L 737.007294 425.665466 
L 738 425.85805 
L 738.992706 425.216019 
L 739.985412 428.326758 
L 740.978118 426.210914 
L 741.970824 427.102465 
L 742.96353 426.992136 
L 743.956236 425.881456 
L 744.948941 426.166153 
L 745.941647 426.62702 
L 746.934353 425.525979 
L 747.927059 427.780399 
L 748.919765 425.641038 
L 749.912471 424.908918 
L 750.905177 427.696601 
L 751.897883 428.428133 
L 752.890589 426.319831 
L 753.883295 426.490445 
L 754.876001 426.172863 
L 755.868707 426.774687 
L 756.861413 426.331136 
L 757.854118 426.880595 
L 758.846824 426.301816 
L 759.83953 427.892865 
L 760.832236 425.910022 
L 761.824942 426.923148 
L 762.817648 426.8339 
L 763.810354 427.582724 
L 764.80306 428.756913 
L 765.795766 427.964874 
L 766.788472 426.981878 
L 767.781178 426.884621 
L 768.773884 427.546329 
L 769.76659 427.739452 
L 770.759295 425.774924 
L 771.752001 425.640704 
L 772.744707 427.887745 
L 773.737413 427.85237 
L 774.730119 429.316403 
L 775.722825 427.088304 
L 776.715531 428.784145 
L 777.708237 429.396139 
L 778.700943 427.849318 
L 779.693649 430.002425 
L 780.686355 427.996234 
L 781.679061 428.370797 
L 782.671767 429.798257 
L 783.664473 428.382667 
L 784.657178 429.246871 
L 785.649884 430.478073 
L 786.64259 427.134704 
L 787.635296 428.781114 
L 788.628002 429.956614 
L 789.620708 428.291656 
L 790.613414 430.552358 
L 791.60612 427.620272 
L 792.598826 428.862377 
L 793.591532 429.310366 
L 794.584238 428.706089 
L 795.576944 428.96169 
L 796.56965 429.841955 
L 797.562355 428.800982 
L 798.555061 430.271363 
L 799.547767 427.509877 
L 800.540473 429.946407 
L 801.533179 427.514911 
L 802.525885 428.051756 
L 803.518591 427.797039 
L 804.511297 430.361335 
L 805.504003 430.849522 
L 806.496709 429.6703 
L 807.489415 430.805181 
L 808.482121 429.892816 
L 809.474827 430.744153 
L 810.467532 428.981561 
L 811.460238 430.927459 
L 812.452944 427.012754 
L 813.44565 429.295145 
L 814.438356 428.83866 
L 815.431062 429.649697 
L 816.423768 430.11553 
L 817.416474 428.679824 
L 818.40918 432.588643 
L 819.401886 432.141048 
L 820.394592 432.175615 
L 821.387298 432.339338 
L 822.380004 429.595091 
L 823.372709 429.810325 
L 824.365415 432.046884 
L 825.358121 431.06372 
L 826.350827 428.836263 
L 827.343533 428.867915 
L 828.336239 431.170129 
L 829.328945 429.300384 
L 830.321651 430.427676 
L 831.314357 431.809923 
L 832.307063 430.196266 
L 833.299769 430.059819 
L 834.292475 430.56351 
L 835.285181 430.604222 
L 836.277886 432.361059 
L 837.270592 432.322581 
L 838.263298 430.227059 
L 840.24871 430.764591 
L 841.241416 429.158914 
L 842.234122 433.499775 
L 843.226828 432.247739 
L 844.219534 430.592768 
L 845.21224 431.630512 
L 846.204946 432.391775 
L 847.197652 432.18151 
L 848.190358 432.356491 
L 849.183064 431.804813 
L 850.175769 432.143153 
L 851.168475 430.860288 
L 852.161181 430.24334 
L 853.153887 430.428025 
L 854.146593 432.073986 
L 856.132005 430.698074 
L 857.124711 432.040246 
L 858.117417 432.52783 
L 859.110123 431.977751 
L 860.102829 432.929472 
L 861.095535 430.618335 
L 862.088241 431.288452 
L 863.080946 432.334841 
L 864.073652 433.016938 
L 865.066358 435.404298 
L 866.059064 431.424427 
L 867.05177 433.413726 
L 868.044476 432.896199 
L 869.037182 431.895676 
L 870.029888 434.478802 
L 871.022594 432.863648 
L 872.0153 433.621653 
L 873.008006 433.023413 
L 874.000712 431.0498 
L 874.993418 432.51574 
L 875.986123 431.966555 
L 876.978829 432.259454 
L 877.971535 430.706793 
L 879.956947 433.484944 
L 880.949653 432.642249 
L 881.942359 432.80323 
L 882.935065 431.669646 
L 883.927771 432.056088 
L 884.920477 433.339066 
L 885.913183 433.270942 
L 887.898595 433.849453 
L 888.8913 432.881428 
L 889.884006 433.090314 
L 890.876712 432.217793 
L 891.869418 435.428076 
L 892.862124 433.166753 
L 894.847536 435.578998 
L 895.840242 433.649215 
L 896.832948 433.10092 
L 897.825654 433.213845 
L 898.81836 432.502862 
L 899.811066 434.736058 
L 900.803772 432.785849 
L 901.796477 433.768119 
L 902.789183 433.381032 
L 903.781889 433.390741 
L 904.774595 435.076196 
L 905.767301 433.283708 
L 906.760007 432.992152 
L 907.752713 433.560317 
L 908.745419 433.464038 
L 909.738125 436.244856 
L 910.730831 432.583514 
L 911.723537 432.178588 
L 912.716243 434.171974 
L 913.708949 434.802928 
L 914.701655 432.585856 
L 915.69436 435.38996 
L 916.687066 435.075796 
L 917.679772 434.229934 
L 918.672478 435.013436 
L 919.665184 435.607904 
L 920.65789 432.205073 
L 921.650596 435.99812 
L 922.643302 434.816939 
L 923.636008 436.969272 
L 924.628714 435.585027 
L 925.62142 434.759103 
L 926.614126 435.045157 
L 927.606832 433.18877 
L 928.599537 434.854893 
L 929.592243 435.846305 
L 930.584949 433.772427 
L 931.577655 434.247796 
L 932.570361 433.727045 
L 933.563067 434.789809 
L 934.555773 434.808056 
L 935.548479 435.604096 
L 936.541185 435.483767 
L 937.533891 434.104947 
L 938.526597 433.906553 
L 939.519303 436.416811 
L 940.512009 435.227568 
L 941.504714 436.420359 
L 942.49742 433.106396 
L 943.490126 436.563509 
L 944.482832 436.176403 
L 945.475538 432.97798 
L 947.46095 436.505209 
L 948.453656 432.424842 
L 949.446362 436.504722 
L 950.439068 436.818892 
L 951.431774 434.069494 
L 952.42448 436.204257 
L 953.417186 434.701608 
L 954.409891 435.754676 
L 955.402597 434.669518 
L 956.395303 435.2736 
L 957.388009 435.251076 
L 958.380715 436.217613 
L 959.373421 436.638734 
L 960.366127 434.748154 
L 961.358833 436.004644 
L 962.351539 436.260083 
L 963.344245 433.916432 
L 964.336951 438.650566 
L 965.329657 436.387482 
L 966.322363 435.071306 
L 967.315068 436.650562 
L 968.307774 434.330067 
L 969.30048 434.394991 
L 970.293186 437.147343 
L 971.285892 437.341494 
L 972.278598 437.185032 
L 973.271304 433.200182 
L 974.26401 436.857967 
L 975.256716 434.644033 
L 976.249422 437.23783 
L 977.242128 435.686292 
L 979.22754 435.998127 
L 980.220246 437.167779 
L 981.212951 436.420613 
L 982.205657 437.883602 
L 983.198363 435.357911 
L 984.191069 435.201543 
L 986.176481 436.619614 
L 987.169187 437.185887 
L 988.161893 436.970896 
L 989.154599 437.844433 
L 990.147305 439.517929 
L 991.140011 436.430495 
L 992.132717 439.024388 
L 993.125423 437.267992 
L 994.118128 435.766286 
L 995.110834 437.672237 
L 996.10354 437.845436 
L 997.096246 437.843404 
L 998.088952 436.758551 
L 999.081658 436.077168 
L 1000.074364 435.166471 
L 1001.06707 434.979381 
L 1002.059776 436.120167 
L 1003.052482 436.797967 
L 1004.045188 437.79737 
L 1005.037894 437.050627 
L 1006.0306 438.145292 
L 1007.023305 438.564293 
L 1008.016011 437.694847 
L 1009.008717 435.994861 
L 1010.001423 436.763682 
L 1010.994129 436.781215 
L 1011.986835 438.219153 
L 1012.979541 435.94185 
L 1013.972247 438.006003 
L 1014.964953 436.916846 
L 1015.957659 436.815387 
L 1016.950365 439.129342 
L 1017.943071 437.023049 
L 1018.935777 435.455438 
L 1019.928482 436.549967 
L 1020.921188 438.598464 
L 1021.913894 438.224819 
L 1022.9066 438.568191 
L 1023.899306 438.495132 
L 1024.892012 438.921182 
L 1025.884718 435.319385 
L 1026.877424 436.850456 
L 1027.87013 437.438978 
L 1028.862836 435.943197 
L 1029.855542 436.236084 
L 1030.848248 437.238511 
L 1031.840954 437.50762 
L 1032.833659 440.486238 
L 1033.826365 438.901413 
L 1034.819071 437.539208 
L 1035.811777 439.108803 
L 1037.797189 438.340582 
L 1038.789895 436.256528 
L 1039.782601 437.459121 
L 1040.775307 437.140207 
L 1041.768013 436.224123 
L 1042.760719 437.051396 
L 1043.753425 436.763784 
L 1044.746131 437.292606 
L 1045.738837 439.59276 
L 1046.731542 438.269766 
L 1047.724248 437.268134 
L 1048.716954 438.434072 
L 1049.70966 441.142777 
L 1050.702366 436.531323 
L 1051.695072 438.45942 
L 1052.687778 438.978859 
L 1053.680484 436.834245 
L 1054.67319 439.055223 
L 1056.658602 438.285102 
L 1057.651308 438.13648 
L 1058.644014 438.371383 
L 1059.636719 441.04416 
L 1060.629425 436.74059 
L 1061.622131 436.667395 
L 1062.614837 438.789096 
L 1064.600249 439.168368 
L 1065.592955 437.000458 
L 1066.585661 437.989712 
L 1067.578367 437.929802 
L 1068.571073 438.752943 
L 1069.563779 438.253115 
L 1070.556485 438.408644 
L 1071.549191 437.356645 
L 1072.541896 437.242864 
L 1073.534602 440.280005 
L 1074.527308 439.284338 
L 1075.520014 437.922028 
L 1076.51272 438.913463 
L 1077.505426 437.265737 
L 1078.498132 438.370379 
L 1079.490838 437.524128 
L 1080.483544 438.68058 
L 1081.47625 440.565772 
L 1082.468956 438.119629 
L 1083.461662 439.227135 
L 1084.454368 439.334137 
L 1085.447073 436.169078 
L 1086.439779 438.353869 
L 1087.432485 438.196359 
L 1088.425191 438.468993 
L 1089.417897 438.614325 
L 1090.410603 439.072042 
L 1091.403309 441.047185 
L 1092.396015 440.461053 
L 1093.388721 439.206459 
L 1094.381427 439.209425 
L 1095.374133 438.956286 
L 1096.366839 439.371519 
L 1097.359545 439.075966 
L 1098.35225 439.021725 
L 1099.344956 437.630314 
L 1100.337662 438.499002 
L 1101.330368 437.04147 
L 1102.323074 438.916936 
L 1103.31578 439.242943 
L 1104.308486 437.973263 
L 1105.301192 438.533484 
L 1106.293898 438.021213 
L 1107.286604 438.463537 
L 1108.27931 438.747632 
L 1109.272016 438.878298 
L 1110.264722 440.103918 
L 1111.257428 439.492097 
L 1112.250133 438.340753 
L 1113.242839 439.838475 
L 1114.235545 439.551622 
L 1115.228251 438.26903 
L 1116.220957 439.771108 
L 1117.213663 437.294194 
L 1118.206369 439.693312 
L 1119.199075 439.968932 
L 1120.191781 438.406464 
L 1121.184487 441.40342 
L 1122.177193 436.141807 
L 1123.169899 436.510381 
L 1124.162605 438.095202 
L 1125.15531 438.486875 
L 1126.148016 438.222755 
L 1127.140722 438.54713 
L 1128.133428 439.196832 
L 1129.126134 439.277965 
L 1130.11884 439.002225 
L 1131.111546 437.462135 
L 1132.104252 438.862221 
L 1133.096958 438.143779 
L 1134.089664 438.089478 
L 1136.075076 440.119037 
L 1137.067782 441.542934 
L 1138.060487 439.08718 
L 1139.053193 439.053512 
L 1140.045899 437.094588 
L 1141.038605 437.562525 
L 1142.031311 442.239177 
L 1143.024017 440.923998 
L 1144.016723 438.144422 
L 1145.009429 440.448325 
L 1146.002135 438.478779 
L 1147.987547 441.075627 
L 1148.980253 441.037641 
L 1149.972959 438.428677 
L 1150.965664 440.260979 
L 1151.95837 438.038418 
L 1152.951076 440.046631 
L 1153.943782 440.450838 
L 1154.936488 438.83193 
L 1155.929194 438.487279 
L 1156.9219 440.361655 
L 1157.914606 439.885217 
L 1158.907312 438.8657 
L 1159.900018 439.48923 
L 1160.892724 439.654634 
L 1161.88543 441.113257 
L 1162.878136 440.118741 
L 1163.870841 438.632646 
L 1164.863547 439.413802 
L 1165.856253 439.526168 
L 1167.841665 440.424993 
L 1168.834371 441.84352 
L 1169.827077 442.61215 
L 1170.819783 436.537396 
L 1171.812489 438.839608 
L 1172.805195 440.121552 
L 1173.797901 439.852777 
L 1174.790607 440.661171 
L 1175.783313 440.230673 
L 1176.776019 440.852706 
L 1177.768724 438.95181 
L 1178.76143 438.421198 
L 1179.754136 439.989346 
L 1180.746842 437.555343 
L 1181.739548 439.343344 
L 1182.732254 440.710448 
L 1183.72496 440.187188 
L 1184.717666 440.058483 
L 1185.710372 440.855266 
L 1186.703078 440.760941 
L 1187.695784 438.382029 
L 1188.68849 438.643473 
L 1189.681196 439.209122 
L 1190.673901 440.881905 
L 1191.666607 441.938535 
L 1192.659313 439.955176 
L 1193.652019 438.685427 
L 1194.644725 440.14628 
L 1195.637431 439.580788 
L 1196.630137 439.27247 
L 1197.622843 438.432785 
L 1198.615549 439.37798 
L 1199.608255 441.973853 
L 1200.600961 439.2432 
L 1201.593667 438.534627 
L 1202.586373 439.364511 
L 1203.579078 439.928681 
L 1204.571784 439.022158 
L 1205.56449 440.026451 
L 1206.557196 440.370867 
L 1207.549902 439.819807 
L 1208.542608 440.182571 
L 1209.535314 440.400814 
L 1210.52802 442.068402 
L 1211.520726 439.068024 
L 1212.513432 439.652993 
L 1214.498844 437.927243 
L 1215.49155 442.719442 
L 1216.484255 442.075365 
L 1217.476961 437.949511 
L 1218.469667 438.728932 
L 1219.462373 439.67213 
L 1220.455079 439.445239 
L 1221.447785 439.069339 
L 1222.440491 437.563678 
L 1223.433197 439.621477 
L 1224.425903 438.709432 
L 1226.411315 440.064359 
L 1227.404021 438.822097 
L 1228.396727 439.564406 
L 1229.389432 439.062194 
L 1230.382138 438.851532 
L 1232.36755 440.198672 
L 1233.360256 437.729498 
L 1234.352962 440.85531 
L 1235.345668 439.51405 
L 1236.338374 437.44831 
L 1237.33108 440.840035 
L 1238.323786 441.786998 
L 1239.316492 439.792542 
L 1240.309198 440.329792 
L 1241.301904 439.555323 
L 1242.29461 437.538405 
L 1243.287315 437.836909 
L 1244.280021 440.623955 
L 1245.272727 440.246493 
L 1245.272727 440.246493 
" clip-path="url(#p064ae531ff)" style="fill: none; stroke: #1f77b4; stroke-width: 1.5; stroke-linecap: square"/>
   </g>
   <g id="patch_3">
    <path d="M 180 512.64 
L 180 69.12 
" style="fill: none; stroke: #000000; stroke-width: 0.8; stroke-linejoin: miter; stroke-linecap: square"/>
   </g>
   <g id="patch_4">
    <path d="M 1296 512.64 
L 1296 69.12 
" style="fill: none; stroke: #000000; stroke-width: 0.8; stroke-linejoin: miter; stroke-linecap: square"/>
   </g>
   <g id="patch_5">
    <path d="M 180 512.64 
L 1296 512.64 
" style="fill: none; stroke: #000000; stroke-width: 0.8; stroke-linejoin: miter; stroke-linecap: square"/>
   </g>
   <g id="patch_6">
    <path d="M 180 69.12 
L 1296 69.12 
" style="fill: none; stroke: #000000; stroke-width: 0.8; stroke-linejoin: miter; stroke-linecap: square"/>
   </g>
   <g id="text_12">
    <!-- source18-receiver3 -->
    <g transform="translate(544.9 60.80125) scale(0.4 -0.4)">
     <defs>
      <path id="DejaVuSans-73" d="M 2834 3397 
L 2834 2853 
Q 2591 2978 2328 3040 
Q 2066 3103 1784 3103 
Q 1356 3103 1142 2972 
Q 928 2841 928 2578 
Q 928 2378 1081 2264 
Q 1234 2150 1697 2047 
L 1894 2003 
Q 2506 1872 2764 1633 
Q 3022 1394 3022 966 
Q 3022 478 2636 193 
Q 2250 -91 1575 -91 
Q 1294 -91 989 -36 
Q 684 19 347 128 
L 347 722 
Q 666 556 975 473 
Q 1284 391 1588 391 
Q 1994 391 2212 530 
Q 2431 669 2431 922 
Q 2431 1156 2273 1281 
Q 2116 1406 1581 1522 
L 1381 1569 
Q 847 1681 609 1914 
Q 372 2147 372 2553 
Q 372 3047 722 3315 
Q 1072 3584 1716 3584 
Q 2034 3584 2315 3537 
Q 2597 3491 2834 3397 
z
" transform="scale(0.015625)"/>
      <path id="DejaVuSans-6f" d="M 1959 3097 
Q 1497 3097 1228 2736 
Q 959 2375 959 1747 
Q 959 1119 1226 758 
Q 1494 397 1959 397 
Q 2419 397 2687 759 
Q 2956 1122 2956 1747 
Q 2956 2369 2687 2733 
Q 2419 3097 1959 3097 
z
M 1959 3584 
Q 2709 3584 3137 3096 
Q 3566 2609 3566 1747 
Q 3566 888 3137 398 
Q 2709 -91 1959 -91 
Q 1206 -91 779 398 
Q 353 888 353 1747 
Q 353 2609 779 3096 
Q 1206 3584 1959 3584 
z
" transform="scale(0.015625)"/>
      <path id="DejaVuSans-75" d="M 544 1381 
L 544 3500 
L 1119 3500 
L 1119 1403 
Q 1119 906 1312 657 
Q 1506 409 1894 409 
Q 2359 409 2629 706 
Q 2900 1003 2900 1516 
L 2900 3500 
L 3475 3500 
L 3475 0 
L 2900 0 
L 2900 538 
Q 2691 219 2414 64 
Q 2138 -91 1772 -91 
Q 1169 -91 856 284 
Q 544 659 544 1381 
z
M 1991 3584 
L 1991 3584 
z
" transform="scale(0.015625)"/>
      <path id="DejaVuSans-72" d="M 2631 2963 
Q 2534 3019 2420 3045 
Q 2306 3072 2169 3072 
Q 1681 3072 1420 2755 
Q 1159 2438 1159 1844 
L 1159 0 
L 581 0 
L 581 3500 
L 1159 3500 
L 1159 2956 
Q 1341 3275 1631 3429 
Q 1922 3584 2338 3584 
Q 2397 3584 2469 3576 
Q 2541 3569 2628 3553 
L 2631 2963 
z
" transform="scale(0.015625)"/>
      <path id="DejaVuSans-63" d="M 3122 3366 
L 3122 2828 
Q 2878 2963 2633 3030 
Q 2388 3097 2138 3097 
Q 1578 3097 1268 2742 
Q 959 2388 959 1747 
Q 959 1106 1268 751 
Q 1578 397 2138 397 
Q 2388 397 2633 464 
Q 2878 531 3122 666 
L 3122 134 
Q 2881 22 2623 -34 
Q 2366 -91 2075 -91 
Q 1284 -91 818 406 
Q 353 903 353 1747 
Q 353 2603 823 3093 
Q 1294 3584 2113 3584 
Q 2378 3584 2631 3529 
Q 2884 3475 3122 3366 
z
" transform="scale(0.015625)"/>
      <path id="DejaVuSans-65" d="M 3597 1894 
L 3597 1613 
L 953 1613 
Q 991 1019 1311 708 
Q 1631 397 2203 397 
Q 2534 397 2845 478 
Q 3156 559 3463 722 
L 3463 178 
Q 3153 47 2828 -22 
Q 2503 -91 2169 -91 
Q 1331 -91 842 396 
Q 353 884 353 1716 
Q 353 2575 817 3079 
Q 1281 3584 2069 3584 
Q 2775 3584 3186 3129 
Q 3597 2675 3597 1894 
z
M 3022 2063 
Q 3016 2534 2758 2815 
Q 2500 3097 2075 3097 
Q 1594 3097 1305 2825 
Q 1016 2553 972 2059 
L 3022 2063 
z
" transform="scale(0.015625)"/>
      <path id="DejaVuSans-38" d="M 2034 2216 
Q 1584 2216 1326 1975 
Q 1069 1734 1069 1313 
Q 1069 891 1326 650 
Q 1584 409 2034 409 
Q 2484 409 2743 651 
Q 3003 894 3003 1313 
Q 3003 1734 2745 1975 
Q 2488 2216 2034 2216 
z
M 1403 2484 
Q 997 2584 770 2862 
Q 544 3141 544 3541 
Q 544 4100 942 4425 
Q 1341 4750 2034 4750 
Q 2731 4750 3128 4425 
Q 3525 4100 3525 3541 
Q 3525 3141 3298 2862 
Q 3072 2584 2669 2484 
Q 3125 2378 3379 2068 
Q 3634 1759 3634 1313 
Q 3634 634 3220 271 
Q 2806 -91 2034 -91 
Q 1263 -91 848 271 
Q 434 634 434 1313 
Q 434 1759 690 2068 
Q 947 2378 1403 2484 
z
M 1172 3481 
Q 1172 3119 1398 2916 
Q 1625 2713 2034 2713 
Q 2441 2713 2670 2916 
Q 2900 3119 2900 3481 
Q 2900 3844 2670 4047 
Q 2441 4250 2034 4250 
Q 1625 4250 1398 4047 
Q 1172 3844 1172 3481 
z
" transform="scale(0.015625)"/>
      <path id="DejaVuSans-2d" d="M 313 2009 
L 1997 2009 
L 1997 1497 
L 313 1497 
L 313 2009 
z
" transform="scale(0.015625)"/>
      <path id="DejaVuSans-69" d="M 603 3500 
L 1178 3500 
L 1178 0 
L 603 0 
L 603 3500 
z
M 603 4863 
L 1178 4863 
L 1178 4134 
L 603 4134 
L 603 4863 
z
" transform="scale(0.015625)"/>
      <path id="DejaVuSans-76" d="M 191 3500 
L 800 3500 
L 1894 563 
L 2988 3500 
L 3597 3500 
L 2284 0 
L 1503 0 
L 191 3500 
z
" transform="scale(0.015625)"/>
      <path id="DejaVuSans-33" d="M 2597 2516 
Q 3050 2419 3304 2112 
Q 3559 1806 3559 1356 
Q 3559 666 3084 287 
Q 2609 -91 1734 -91 
Q 1441 -91 1130 -33 
Q 819 25 488 141 
L 488 750 
Q 750 597 1062 519 
Q 1375 441 1716 441 
Q 2309 441 2620 675 
Q 2931 909 2931 1356 
Q 2931 1769 2642 2001 
Q 2353 2234 1838 2234 
L 1294 2234 
L 1294 2753 
L 1863 2753 
Q 2328 2753 2575 2939 
Q 2822 3125 2822 3475 
Q 2822 3834 2567 4026 
Q 2313 4219 1838 4219 
Q 1578 4219 1281 4162 
Q 984 4106 628 3988 
L 628 4550 
Q 988 4650 1302 4700 
Q 1616 4750 1894 4750 
Q 2613 4750 3031 4423 
Q 3450 4097 3450 3541 
Q 3450 3153 3228 2886 
Q 3006 2619 2597 2516 
z
" transform="scale(0.015625)"/>
     </defs>
     <use xlink:href="#DejaVuSans-73"/>
     <use xlink:href="#DejaVuSans-6f" x="52.099609"/>
     <use xlink:href="#DejaVuSans-75" x="113.28125"/>
     <use xlink:href="#DejaVuSans-72" x="176.660156"/>
     <use xlink:href="#DejaVuSans-63" x="215.523438"/>
     <use xlink:href="#DejaVuSans-65" x="270.503906"/>
     <use xlink:href="#DejaVuSans-31" x="332.027344"/>
     <use xlink:href="#DejaVuSans-38" x="395.650391"/>
     <use xlink:href="#DejaVuSans-2d" x="459.273438"/>
     <use xlink:href="#DejaVuSans-72" x="495.357422"/>
     <use xlink:href="#DejaVuSans-65" x="534.220703"/>
     <use xlink:href="#DejaVuSans-63" x="595.744141"/>
     <use xlink:href="#DejaVuSans-65" x="650.724609"/>
     <use xlink:href="#DejaVuSans-69" x="712.248047"/>
     <use xlink:href="#DejaVuSans-76" x="740.03125"/>
     <use xlink:href="#DejaVuSans-65" x="799.210938"/>
     <use xlink:href="#DejaVuSans-72" x="860.734375"/>
     <use xlink:href="#DejaVuSans-33" x="901.847656"/>
    </g>
   </g>
  </g>
 </g>
 <defs>
  <clipPath id="p064ae531ff">
   <rect x="180" y="69.12" width="1116" height="443.52"/>
  </clipPath>
 </defs>
</svg>
