<?xml version="1.0" encoding="utf-8" standalone="no"?>
<!DOCTYPE svg PUBLIC "-//W3C//DTD SVG 1.1//EN"
  "http://www.w3.org/Graphics/SVG/1.1/DTD/svg11.dtd">
<svg xmlns:xlink="http://www.w3.org/1999/xlink" width="1440pt" height="576pt" viewBox="0 0 1440 576" xmlns="http://www.w3.org/2000/svg" version="1.1">
 <metadata>
  <rdf:RDF xmlns:dc="http://purl.org/dc/elements/1.1/" xmlns:cc="http://creativecommons.org/ns#" xmlns:rdf="http://www.w3.org/1999/02/22-rdf-syntax-ns#">
   <cc:Work>
    <dc:type rdf:resource="http://purl.org/dc/dcmitype/StillImage"/>
    <dc:date>2024-05-22T04:50:13.826217</dc:date>
    <dc:format>image/svg+xml</dc:format>
    <dc:creator>
     <cc:Agent>
      <dc:title>Matplotlib v3.8.3, https://matplotlib.org/</dc:title>
     </cc:Agent>
    </dc:creator>
   </cc:Work>
  </rdf:RDF>
 </metadata>
 <defs>
  <style type="text/css">*{stroke-linejoin: round; stroke-linecap: butt}</style>
 </defs>
 <g id="figure_1">
  <g id="patch_1">
   <path d="M 0 576 
L 1440 576 
L 1440 0 
L 0 0 
z
" style="fill: #ffffff"/>
  </g>
  <g id="axes_1">
   <g id="patch_2">
    <path d="M 180 512.64 
L 1296 512.64 
L 1296 69.12 
L 180 69.12 
z
" style="fill: #ffffff"/>
   </g>
   <g id="matplotlib.axis_1">
    <g id="xtick_1">
     <g id="line2d_1">
      <defs>
       <path id="m059161e374" d="M 0 0 
L 0 3.5 
" style="stroke: #000000; stroke-width: 0.8"/>
      </defs>
      <g>
       <use xlink:href="#m059161e374" x="229.734567" y="512.64" style="stroke: #000000; stroke-width: 0.8"/>
      </g>
     </g>
     <g id="text_1">
      <!-- 0 -->
      <g transform="translate(226.553317 527.238438) scale(0.1 -0.1)">
       <defs>
        <path id="DejaVuSans-30" d="M 2034 4250 
Q 1547 4250 1301 3770 
Q 1056 3291 1056 2328 
Q 1056 1369 1301 889 
Q 1547 409 2034 409 
Q 2525 409 2770 889 
Q 3016 1369 3016 2328 
Q 3016 3291 2770 3770 
Q 2525 4250 2034 4250 
z
M 2034 4750 
Q 2819 4750 3233 4129 
Q 3647 3509 3647 2328 
Q 3647 1150 3233 529 
Q 2819 -91 2034 -91 
Q 1250 -91 836 529 
Q 422 1150 422 2328 
Q 422 3509 836 4129 
Q 1250 4750 2034 4750 
z
" transform="scale(0.015625)"/>
       </defs>
       <use xlink:href="#DejaVuSans-30"/>
      </g>
     </g>
    </g>
    <g id="xtick_2">
     <g id="line2d_2">
      <g>
       <use xlink:href="#m059161e374" x="433.04074" y="512.64" style="stroke: #000000; stroke-width: 0.8"/>
      </g>
     </g>
     <g id="text_2">
      <!-- 500 -->
      <g transform="translate(423.49699 527.238438) scale(0.1 -0.1)">
       <defs>
        <path id="DejaVuSans-35" d="M 691 4666 
L 3169 4666 
L 3169 4134 
L 1269 4134 
L 1269 2991 
Q 1406 3038 1543 3061 
Q 1681 3084 1819 3084 
Q 2600 3084 3056 2656 
Q 3513 2228 3513 1497 
Q 3513 744 3044 326 
Q 2575 -91 1722 -91 
Q 1428 -91 1123 -41 
Q 819 9 494 109 
L 494 744 
Q 775 591 1075 516 
Q 1375 441 1709 441 
Q 2250 441 2565 725 
Q 2881 1009 2881 1497 
Q 2881 1984 2565 2268 
Q 2250 2553 1709 2553 
Q 1456 2553 1204 2497 
Q 953 2441 691 2322 
L 691 4666 
z
" transform="scale(0.015625)"/>
       </defs>
       <use xlink:href="#DejaVuSans-35"/>
       <use xlink:href="#DejaVuSans-30" x="63.623047"/>
       <use xlink:href="#DejaVuSans-30" x="127.246094"/>
      </g>
     </g>
    </g>
    <g id="xtick_3">
     <g id="line2d_3">
      <g>
       <use xlink:href="#m059161e374" x="636.346913" y="512.64" style="stroke: #000000; stroke-width: 0.8"/>
      </g>
     </g>
     <g id="text_3">
      <!-- 1000 -->
      <g transform="translate(623.621913 527.238438) scale(0.1 -0.1)">
       <defs>
        <path id="DejaVuSans-31" d="M 794 531 
L 1825 531 
L 1825 4091 
L 703 3866 
L 703 4441 
L 1819 4666 
L 2450 4666 
L 2450 531 
L 3481 531 
L 3481 0 
L 794 0 
L 794 531 
z
" transform="scale(0.015625)"/>
       </defs>
       <use xlink:href="#DejaVuSans-31"/>
       <use xlink:href="#DejaVuSans-30" x="63.623047"/>
       <use xlink:href="#DejaVuSans-30" x="127.246094"/>
       <use xlink:href="#DejaVuSans-30" x="190.869141"/>
      </g>
     </g>
    </g>
    <g id="xtick_4">
     <g id="line2d_4">
      <g>
       <use xlink:href="#m059161e374" x="839.653087" y="512.64" style="stroke: #000000; stroke-width: 0.8"/>
      </g>
     </g>
     <g id="text_4">
      <!-- 1500 -->
      <g transform="translate(826.928087 527.238438) scale(0.1 -0.1)">
       <use xlink:href="#DejaVuSans-31"/>
       <use xlink:href="#DejaVuSans-35" x="63.623047"/>
       <use xlink:href="#DejaVuSans-30" x="127.246094"/>
       <use xlink:href="#DejaVuSans-30" x="190.869141"/>
      </g>
     </g>
    </g>
    <g id="xtick_5">
     <g id="line2d_5">
      <g>
       <use xlink:href="#m059161e374" x="1042.95926" y="512.64" style="stroke: #000000; stroke-width: 0.8"/>
      </g>
     </g>
     <g id="text_5">
      <!-- 2000 -->
      <g transform="translate(1030.23426 527.238438) scale(0.1 -0.1)">
       <defs>
        <path id="DejaVuSans-32" d="M 1228 531 
L 3431 531 
L 3431 0 
L 469 0 
L 469 531 
Q 828 903 1448 1529 
Q 2069 2156 2228 2338 
Q 2531 2678 2651 2914 
Q 2772 3150 2772 3378 
Q 2772 3750 2511 3984 
Q 2250 4219 1831 4219 
Q 1534 4219 1204 4116 
Q 875 4013 500 3803 
L 500 4441 
Q 881 4594 1212 4672 
Q 1544 4750 1819 4750 
Q 2544 4750 2975 4387 
Q 3406 4025 3406 3419 
Q 3406 3131 3298 2873 
Q 3191 2616 2906 2266 
Q 2828 2175 2409 1742 
Q 1991 1309 1228 531 
z
" transform="scale(0.015625)"/>
       </defs>
       <use xlink:href="#DejaVuSans-32"/>
       <use xlink:href="#DejaVuSans-30" x="63.623047"/>
       <use xlink:href="#DejaVuSans-30" x="127.246094"/>
       <use xlink:href="#DejaVuSans-30" x="190.869141"/>
      </g>
     </g>
    </g>
    <g id="xtick_6">
     <g id="line2d_6">
      <g>
       <use xlink:href="#m059161e374" x="1246.265433" y="512.64" style="stroke: #000000; stroke-width: 0.8"/>
      </g>
     </g>
     <g id="text_6">
      <!-- 2500 -->
      <g transform="translate(1233.540433 527.238438) scale(0.1 -0.1)">
       <use xlink:href="#DejaVuSans-32"/>
       <use xlink:href="#DejaVuSans-35" x="63.623047"/>
       <use xlink:href="#DejaVuSans-30" x="127.246094"/>
       <use xlink:href="#DejaVuSans-30" x="190.869141"/>
      </g>
     </g>
    </g>
   </g>
   <g id="matplotlib.axis_2">
    <g id="ytick_1">
     <g id="line2d_7">
      <defs>
       <path id="m54b3e166ee" d="M 0 0 
L -3.5 0 
" style="stroke: #000000; stroke-width: 0.8"/>
      </defs>
      <g>
       <use xlink:href="#m54b3e166ee" x="180" y="502.822484" style="stroke: #000000; stroke-width: 0.8"/>
      </g>
     </g>
     <g id="text_7">
      <!-- −4 -->
      <g transform="translate(158.257812 506.621703) scale(0.1 -0.1)">
       <defs>
        <path id="DejaVuSans-2212" d="M 678 2272 
L 4684 2272 
L 4684 1741 
L 678 1741 
L 678 2272 
z
" transform="scale(0.015625)"/>
        <path id="DejaVuSans-34" d="M 2419 4116 
L 825 1625 
L 2419 1625 
L 2419 4116 
z
M 2253 4666 
L 3047 4666 
L 3047 1625 
L 3713 1625 
L 3713 1100 
L 3047 1100 
L 3047 0 
L 2419 0 
L 2419 1100 
L 313 1100 
L 313 1709 
L 2253 4666 
z
" transform="scale(0.015625)"/>
       </defs>
       <use xlink:href="#DejaVuSans-2212"/>
       <use xlink:href="#DejaVuSans-34" x="83.789062"/>
      </g>
     </g>
    </g>
    <g id="ytick_2">
     <g id="line2d_8">
      <g>
       <use xlink:href="#m54b3e166ee" x="180" y="414.975828" style="stroke: #000000; stroke-width: 0.8"/>
      </g>
     </g>
     <g id="text_8">
      <!-- −2 -->
      <g transform="translate(158.257812 418.775047) scale(0.1 -0.1)">
       <use xlink:href="#DejaVuSans-2212"/>
       <use xlink:href="#DejaVuSans-32" x="83.789062"/>
      </g>
     </g>
    </g>
    <g id="ytick_3">
     <g id="line2d_9">
      <g>
       <use xlink:href="#m54b3e166ee" x="180" y="327.129172" style="stroke: #000000; stroke-width: 0.8"/>
      </g>
     </g>
     <g id="text_9">
      <!-- 0 -->
      <g transform="translate(166.6375 330.928391) scale(0.1 -0.1)">
       <use xlink:href="#DejaVuSans-30"/>
      </g>
     </g>
    </g>
    <g id="ytick_4">
     <g id="line2d_10">
      <g>
       <use xlink:href="#m54b3e166ee" x="180" y="239.282516" style="stroke: #000000; stroke-width: 0.8"/>
      </g>
     </g>
     <g id="text_10">
      <!-- 2 -->
      <g transform="translate(166.6375 243.081734) scale(0.1 -0.1)">
       <use xlink:href="#DejaVuSans-32"/>
      </g>
     </g>
    </g>
    <g id="ytick_5">
     <g id="line2d_11">
      <g>
       <use xlink:href="#m54b3e166ee" x="180" y="151.435859" style="stroke: #000000; stroke-width: 0.8"/>
      </g>
     </g>
     <g id="text_11">
      <!-- 4 -->
      <g transform="translate(166.6375 155.235078) scale(0.1 -0.1)">
       <use xlink:href="#DejaVuSans-34"/>
      </g>
     </g>
    </g>
   </g>
   <g id="line2d_12">
    <path d="M 230.727273 296.570499 
L 231.719979 289.051285 
L 232.712685 289.71585 
L 233.70539 300.97532 
L 234.698096 297.942266 
L 235.690802 286.466902 
L 236.683508 291.587485 
L 237.676214 302.215621 
L 238.66892 286.183212 
L 239.661626 281.597568 
L 240.654332 298.287582 
L 241.647038 296.60925 
L 242.639744 278.88049 
L 243.63245 281.74798 
L 244.625156 291.458381 
L 245.617862 282.405024 
L 246.610568 277.212505 
L 247.603273 268.314002 
L 248.595979 256.125557 
L 249.588685 257.363654 
L 250.581391 263.86439 
L 251.574097 250.948682 
L 253.559509 238.358868 
L 254.552215 222.000036 
L 255.544921 217.772893 
L 256.537627 248.350825 
L 257.530333 252.444454 
L 258.523039 207.280512 
L 259.515745 203.717332 
L 260.50845 222.145136 
L 261.501156 215.420961 
L 262.493862 210.553559 
L 263.486568 252.259756 
L 264.479274 205.137124 
L 265.47198 181.994418 
L 266.464686 188.739453 
L 267.457392 220.311704 
L 268.450098 211.043216 
L 269.442804 220.026559 
L 270.43551 243.057236 
L 271.428216 190.409054 
L 272.420922 188.22746 
L 273.413627 201.965763 
L 274.406333 176.678434 
L 275.399039 170.788826 
L 276.391745 177.940753 
L 277.384451 151.94308 
L 278.377157 137.168555 
L 279.369863 144.97486 
L 280.362569 167.474338 
L 281.355275 124.910381 
L 282.347981 99.314759 
L 283.340687 89.28 
L 284.333393 90.670572 
L 285.326099 99.442186 
L 286.318804 102.474379 
L 287.31151 98.784031 
L 288.304216 104.817149 
L 290.289628 155.405456 
L 291.282334 139.220241 
L 292.27504 146.876615 
L 293.267746 165.109507 
L 294.260452 149.959359 
L 295.253158 148.534681 
L 296.245864 159.399043 
L 297.23857 159.531722 
L 298.231276 163.982946 
L 299.223981 181.988579 
L 300.216687 178.904706 
L 301.209393 179.045231 
L 302.202099 201.544728 
L 303.194805 194.54934 
L 304.187511 188.895807 
L 305.180217 215.033467 
L 306.172923 217.921927 
L 307.165629 203.637271 
L 308.158335 226.448732 
L 309.151041 234.273007 
L 310.143747 213.750425 
L 311.136453 230.448263 
L 312.129159 277.422513 
L 313.121864 239.440603 
L 314.11457 249.251825 
L 315.107276 391.466174 
L 316.099982 256.702584 
L 317.092688 253.780407 
L 318.085394 301.073538 
L 320.070806 255.980814 
L 321.063512 273.936471 
L 322.056218 316.160915 
L 323.048924 262.362659 
L 324.04163 266.922383 
L 325.034336 353.093205 
L 326.027041 270.148087 
L 327.019747 263.834678 
L 328.012453 311.063515 
L 329.005159 286.816094 
L 329.997865 272.066856 
L 330.990571 305.637264 
L 332.975983 270.979673 
L 333.968689 293.986531 
L 334.961395 322.920645 
L 335.954101 272.914574 
L 336.946807 271.090867 
L 337.939513 305.991914 
L 338.932218 312.8203 
L 339.924924 280.679476 
L 340.91763 285.963159 
L 341.910336 301.54633 
L 342.903042 296.993617 
L 343.895748 314.103733 
L 345.88116 281.861898 
L 346.873866 302.811788 
L 347.866572 317.234375 
L 348.859278 282.642438 
L 350.84469 321.20431 
L 351.837395 276.408239 
L 352.830101 283.410926 
L 353.822807 394.533285 
L 354.815513 292.759939 
L 355.808219 291.159907 
L 356.800925 331.8427 
L 357.793631 281.047855 
L 358.786337 277.526256 
L 359.779043 305.938348 
L 360.771749 265.176351 
L 361.764455 248.473233 
L 362.757161 257.048795 
L 363.749867 271.342442 
L 364.742572 252.60025 
L 365.735278 250.089961 
L 366.727984 276.854513 
L 367.72069 278.085129 
L 368.713396 257.305015 
L 369.706102 267.925946 
L 370.698808 265.949627 
L 371.691514 241.530343 
L 372.68422 238.948302 
L 373.676926 251.399922 
L 374.669632 246.786145 
L 375.662338 240.532427 
L 376.655044 254.558077 
L 377.64775 287.908113 
L 378.640455 271.365414 
L 379.633161 275.567539 
L 380.625867 301.40759 
L 381.618573 264.235784 
L 382.611279 253.363724 
L 383.603985 262.812886 
L 384.596691 278.374287 
L 385.589397 265.408022 
L 386.582103 240.284756 
L 387.574809 224.317437 
L 389.560221 208.018441 
L 390.552927 196.248474 
L 391.545632 187.388075 
L 392.538338 184.634026 
L 393.531044 183.689839 
L 394.52375 180.509435 
L 395.516456 178.988328 
L 396.509162 182.527823 
L 397.501868 188.146443 
L 398.494574 191.665997 
L 399.48728 196.651425 
L 400.479986 209.615148 
L 401.472692 227.751123 
L 402.465398 238.996981 
L 403.458104 256.558071 
L 404.450809 286.977233 
L 405.443515 251.534335 
L 406.436221 242.362872 
L 407.428927 245.975832 
L 408.421633 238.717435 
L 409.414339 232.287859 
L 410.407045 240.482902 
L 411.399751 255.00463 
L 412.392457 253.583655 
L 413.385163 257.109861 
L 414.377869 285.483854 
L 415.370575 303.032489 
L 416.363281 283.482994 
L 417.355986 307.022563 
L 418.348692 321.560635 
L 419.341398 286.205647 
L 420.334104 294.052737 
L 421.32681 349.440325 
L 422.319516 315.206789 
L 423.312222 307.542325 
L 424.304928 322.337946 
L 425.297634 322.672703 
L 426.29034 350.778664 
L 427.283046 344.067019 
L 428.275752 299.379121 
L 429.268458 299.645177 
L 430.261163 349.223172 
L 431.253869 315.271904 
L 432.246575 298.475177 
L 433.239281 330.256621 
L 434.231987 333.926568 
L 435.224693 298.326411 
L 436.217399 309.836229 
L 437.210105 342.571637 
L 438.202811 294.448419 
L 439.195517 291.10893 
L 440.188223 327.866525 
L 441.180929 324.13352 
L 442.173635 300.830596 
L 443.166341 327.107066 
L 444.159046 343.339971 
L 445.151752 301.094034 
L 446.144458 311.003546 
L 447.137164 347.267989 
L 448.12987 299.573175 
L 449.122576 293.81497 
L 450.115282 330.08589 
L 451.107988 329.852544 
L 452.100694 304.685042 
L 454.086106 344.419198 
L 455.078812 299.237183 
L 456.071518 300.758648 
L 457.064223 342.549853 
L 458.056929 314.734348 
L 459.049635 299.562354 
L 460.042341 315.799679 
L 461.035047 362.597963 
L 462.027753 353.384793 
L 463.020459 374.32254 
L 464.013165 318.854315 
L 465.005871 300.207488 
L 465.998577 311.386681 
L 466.991283 346.492179 
L 467.983989 306.634223 
L 468.976695 300.82388 
L 469.9694 334.381076 
L 470.962106 344.098515 
L 471.954812 310.030931 
L 472.947518 329.336083 
L 473.940224 333.444894 
L 474.93293 293.439184 
L 475.925636 287.830385 
L 476.918342 304.829411 
L 477.911048 306.846935 
L 478.903754 286.797711 
L 479.89646 288.486426 
L 480.889166 318.568649 
L 481.881872 334.95352 
L 482.874577 308.898522 
L 483.867283 320.392814 
L 484.859989 407.751277 
L 485.852695 316.872224 
L 486.845401 307.392228 
L 487.838107 330.853269 
L 489.823519 283.38403 
L 490.816225 281.124451 
L 491.808931 290.726158 
L 492.801637 284.680564 
L 493.794343 268.958373 
L 494.787049 265.516181 
L 495.779754 272.777823 
L 496.77246 273.062668 
L 497.765166 259.947915 
L 498.757872 253.389715 
L 499.750578 255.367567 
L 500.743284 256.705394 
L 502.728696 240.774653 
L 503.721402 241.836635 
L 504.714108 245.574804 
L 506.69952 238.557759 
L 507.692226 243.431183 
L 508.684932 253.129651 
L 509.677637 255.438141 
L 510.670343 256.206154 
L 511.663049 271.762593 
L 512.655755 300.777982 
L 513.648461 295.537998 
L 514.641167 299.442998 
L 515.633873 314.7002 
L 516.626579 282.105384 
L 517.619285 270.88157 
L 518.611991 279.612407 
L 519.604697 280.405511 
L 520.597403 270.775676 
L 521.590109 275.373745 
L 522.582814 298.286329 
L 523.57552 301.594945 
L 524.568226 294.512369 
L 525.560932 314.672346 
L 526.553638 323.396245 
L 527.546344 294.005186 
L 528.53905 294.374111 
L 529.531756 314.228312 
L 530.524462 297.420428 
L 531.517168 288.521589 
L 532.509874 305.867257 
L 533.50258 331.025299 
L 534.495286 307.305419 
L 535.487991 309.951197 
L 536.480697 358.436578 
L 537.473403 324.680809 
L 538.466109 306.144558 
L 539.458815 323.047926 
L 540.451521 360.247652 
L 541.444227 317.743176 
L 542.436933 311.446388 
L 543.429639 336.947716 
L 544.422345 438.001935 
L 545.415051 341.886244 
L 546.407757 346.386459 
L 547.400463 356.157126 
L 548.393168 339.432365 
L 549.385874 339.766413 
L 550.37858 380.965542 
L 551.371286 361.598097 
L 552.363992 323.923088 
L 553.356698 326.562009 
L 554.349404 378.814334 
L 556.334816 334.32419 
L 557.327522 349.835413 
L 558.320228 383.279861 
L 559.312934 330.607577 
L 560.30564 332.585528 
L 561.298345 394.126407 
L 562.291051 334.829296 
L 563.283757 316.142957 
L 564.276463 327.157863 
L 565.269169 393.705596 
L 566.261875 339.149625 
L 567.254581 325.95166 
L 568.247287 345.729947 
L 569.239993 394.924619 
L 570.232699 346.577782 
L 571.225405 349.322512 
L 572.218111 372.896587 
L 573.210817 344.642875 
L 574.203523 343.188116 
L 575.196228 369.365767 
L 576.188934 367.772076 
L 577.18164 342.552992 
L 578.174346 342.299398 
L 579.167052 367.394941 
L 580.159758 374.291526 
L 581.152464 346.046701 
L 582.14517 345.900987 
L 583.137876 355.855427 
L 584.130582 388.095982 
L 586.115994 338.487862 
L 587.1087 341.437176 
L 589.094111 390.386142 
L 590.086817 343.049758 
L 591.079523 331.162751 
L 592.072229 352.306556 
L 593.064935 428.462725 
L 594.057641 343.522788 
L 595.050347 335.187852 
L 596.043053 380.802052 
L 597.035759 343.934497 
L 598.028465 312.592045 
L 599.021171 313.38285 
L 600.013877 323.765378 
L 601.006582 299.121362 
L 601.999288 283.116131 
L 602.991994 283.19749 
L 603.9847 287.354507 
L 605.970112 268.398892 
L 606.962818 269.407332 
L 607.955524 275.295466 
L 608.94823 270.971813 
L 609.940936 264.118242 
L 610.933642 265.160729 
L 611.926348 271.702788 
L 612.919054 269.900867 
L 613.911759 263.013111 
L 614.904465 263.705344 
L 615.897171 271.244375 
L 616.889877 270.92429 
L 617.882583 264.890047 
L 618.875289 267.004199 
L 619.867995 277.496101 
L 620.860701 280.427693 
L 621.853407 276.483551 
L 622.846113 284.324835 
L 623.838819 309.20376 
L 624.831525 319.914856 
L 625.824231 319.510865 
L 626.816936 371.520348 
L 627.809642 332.595672 
L 628.802348 307.015643 
L 629.795054 311.400582 
L 630.78776 307.08381 
L 631.780466 288.179883 
L 632.773172 285.350941 
L 633.765878 298.368774 
L 634.758584 305.034945 
L 635.75129 296.76329 
L 636.743996 304.208648 
L 637.736702 345.739703 
L 638.729408 358.307734 
L 639.722114 343.728387 
L 640.714819 452.163862 
L 641.707525 330.407606 
L 642.700231 312.763361 
L 643.692937 324.585953 
L 644.685643 338.716992 
L 645.678349 314.618055 
L 646.671055 312.237368 
L 647.663761 339.742691 
L 648.656467 370.97732 
L 649.649173 336.656265 
L 650.641879 346.031452 
L 651.634585 398.423967 
L 652.627291 352.372419 
L 653.619996 350.001408 
L 654.612702 390.319093 
L 656.598114 351.071593 
L 658.583526 365.776755 
L 659.576232 369.796398 
L 660.568938 384.855796 
L 661.561644 360.914248 
L 662.55435 347.087463 
L 663.547056 357.971258 
L 664.539762 403.405133 
L 665.532468 366.871707 
L 666.525173 350.277152 
L 667.517879 354.203132 
L 668.510585 376.456426 
L 669.503291 390.083658 
L 670.495997 352.77465 
L 671.488703 342.970349 
L 672.481409 362.884272 
L 673.474115 413.768083 
L 674.466821 342.732568 
L 675.459527 333.472279 
L 676.452233 358.804236 
L 677.444939 398.302168 
L 678.437645 343.147372 
L 679.43035 339.602903 
L 680.423056 369.435446 
L 681.415762 392.667775 
L 682.408468 362.778337 
L 683.401174 364.979108 
L 684.39388 362.921329 
L 685.386586 359.452907 
L 686.379292 379.052464 
L 687.371998 377.623499 
L 688.364704 358.610327 
L 689.35741 367.969524 
L 690.350116 370.800271 
L 691.342822 353.007371 
L 692.335527 369.014304 
L 693.328233 403.98003 
L 694.320939 341.052758 
L 695.313645 334.324041 
L 696.306351 367.282073 
L 697.299057 362.219025 
L 698.291763 330.323607 
L 699.284469 338.483467 
L 700.277175 392.837878 
L 701.269881 333.784688 
L 702.262587 322.195765 
L 703.255293 341.51543 
L 704.247999 333.855567 
L 705.240705 308.052832 
L 706.23341 306.672366 
L 707.226116 320.025922 
L 708.218822 309.799341 
L 709.211528 295.516052 
L 710.204234 297.557766 
L 711.19694 309.339802 
L 712.189646 302.561938 
L 713.182352 291.592159 
L 714.175058 293.920206 
L 715.167764 305.289512 
L 716.16047 300.935689 
L 717.153176 289.950377 
L 718.145882 290.887193 
L 719.138587 301.423326 
L 720.131293 299.09575 
L 721.123999 288.37466 
L 722.116705 289.139799 
L 723.109411 300.3453 
L 724.102117 299.705167 
L 725.094823 290.165008 
L 726.087529 292.9055 
L 727.080235 307.561393 
L 728.072941 307.317858 
L 729.065647 298.409676 
L 730.058353 305.519248 
L 731.051059 329.143987 
L 732.043764 326.495509 
L 733.03647 317.942208 
L 734.029176 335.093755 
L 735.021882 423.886922 
L 736.014588 364.881767 
L 737.007294 370.801895 
L 738 379.156128 
L 738.992706 338.21819 
L 739.985412 336.321277 
L 740.978118 364.214026 
L 741.970824 337.396796 
L 742.96353 317.582677 
L 743.956236 322.60942 
L 744.948941 350.269434 
L 745.941647 339.032974 
L 746.934353 323.871754 
L 747.927059 333.716576 
L 748.919765 385.100627 
L 749.912471 374.591584 
L 750.905177 353.810657 
L 751.897883 368.268157 
L 752.890589 371.63381 
L 753.883295 357.259754 
L 754.876001 375.346215 
L 755.868707 416.468149 
L 756.861413 349.493058 
L 757.854118 338.393081 
L 758.846824 355.891588 
L 759.83953 422.093492 
L 760.832236 351.476705 
L 761.824942 339.934212 
L 762.817648 359.36931 
L 763.810354 446.624942 
L 764.80306 362.04427 
L 765.795766 358.794474 
L 766.788472 395.348791 
L 767.781178 366.532156 
L 768.773884 351.097155 
L 770.759295 399.249509 
L 771.752001 347.618743 
L 772.744707 345.633232 
L 773.737413 386.068538 
L 774.730119 384.886551 
L 775.722825 354.338914 
L 776.715531 368.01311 
L 777.708237 388.954613 
L 778.700943 357.906063 
L 779.693649 367.105648 
L 780.686355 436.437394 
L 781.679061 348.858967 
L 782.671767 338.092638 
L 783.664473 363.039674 
L 784.657178 376.752429 
L 785.649884 337.203092 
L 786.64259 337.204726 
L 787.635296 377.355672 
L 788.628002 367.086154 
L 789.620708 340.280144 
L 790.613414 350.981615 
L 791.60612 451.215736 
L 792.598826 362.858377 
L 793.591532 349.062975 
L 794.584238 370.279224 
L 795.576944 418.081611 
L 796.56965 365.533372 
L 797.562355 356.950376 
L 798.555061 370.034151 
L 799.547767 411.299195 
L 800.540473 375.400783 
L 801.533179 351.129848 
L 802.525885 355.624003 
L 803.518591 422.527735 
L 804.511297 362.451162 
L 805.504003 338.490602 
L 806.496709 348.662134 
L 807.489415 397.321933 
L 808.482121 343.936164 
L 809.474827 331.746602 
L 810.467532 352.109767 
L 811.460238 369.715726 
L 812.452944 332.871306 
L 813.44565 331.082909 
L 814.438356 361.126482 
L 815.431062 348.059463 
L 816.423768 325.541727 
L 817.416474 331.312882 
L 818.40918 359.588224 
L 819.401886 337.039339 
L 820.394592 321.709554 
L 821.387298 329.55396 
L 822.380004 354.948338 
L 824.365415 320.930049 
L 825.358121 324.94204 
L 826.350827 346.349022 
L 827.343533 338.658428 
L 828.336239 318.92011 
L 829.328945 318.598226 
L 830.321651 336.592499 
L 831.314357 337.697891 
L 832.307063 318.607759 
L 833.299769 318.74401 
L 834.292475 340.31563 
L 835.285181 345.111352 
L 836.277886 325.606352 
L 837.270592 329.504833 
L 838.263298 364.5488 
L 839.256004 365.557878 
L 840.24871 342.657255 
L 841.241416 353.647584 
L 842.234122 407.369543 
L 843.226828 381.201617 
L 844.219534 378.77311 
L 845.21224 386.03103 
L 846.204946 357.326824 
L 847.197652 355.566708 
L 848.190358 402.983844 
L 850.175769 341.794413 
L 851.168475 345.256874 
L 852.161181 388.781208 
L 853.153887 376.324392 
L 854.146593 348.470473 
L 855.139299 354.474617 
L 856.132005 396.821183 
L 857.124711 388.923393 
L 858.117417 371.763397 
L 859.110123 386.86961 
L 860.102829 375.446275 
L 861.095535 357.059728 
L 862.088241 367.158072 
L 863.080946 492.48 
L 864.073652 360.876799 
L 865.066358 342.331707 
L 866.059064 352.854822 
L 867.05177 415.085379 
L 868.044476 362.120224 
L 869.037182 345.087073 
L 870.029888 360.465013 
L 871.022594 459.707502 
L 872.0153 369.054279 
L 873.008006 363.614843 
L 874.000712 400.185981 
L 874.993418 373.655272 
L 875.986123 357.156021 
L 876.978829 382.047422 
L 877.971535 401.553824 
L 878.964241 353.152948 
L 879.956947 354.004259 
L 880.949653 411.731933 
L 881.942359 372.924555 
L 882.935065 350.665772 
L 883.927771 369.579906 
L 884.920477 424.786275 
L 885.913183 356.639062 
L 886.905889 355.811565 
L 887.898595 415.915865 
L 888.8913 371.650495 
L 889.884006 350.991413 
L 890.876712 373.665383 
L 891.869418 405.325241 
L 892.862124 350.58978 
L 893.85483 350.593187 
L 894.847536 403.260193 
L 895.840242 365.655424 
L 896.832948 342.870856 
L 897.825654 355.953944 
L 898.81836 430.024642 
L 899.811066 357.58543 
L 900.803772 347.669129 
L 901.796477 375.063011 
L 902.789183 410.492509 
L 903.781889 358.026006 
L 904.774595 358.018972 
L 905.767301 397.529061 
L 906.760007 394.832788 
L 907.752713 362.220526 
L 908.745419 361.412221 
L 909.738125 384.017614 
L 910.730831 427.314474 
L 911.723537 368.92857 
L 912.716243 353.21636 
L 913.708949 364.14829 
L 914.701655 462.956499 
L 915.69436 365.252842 
L 916.687066 346.875215 
L 917.679772 361.107903 
L 918.672478 438.597101 
L 919.665184 356.725934 
L 920.65789 345.179808 
L 922.643302 394.748438 
L 923.636008 346.354101 
L 924.628714 341.46214 
L 925.62142 368.001408 
L 926.614126 375.817516 
L 927.606832 340.62003 
L 928.599537 337.447164 
L 929.592243 361.603219 
L 930.584949 371.873921 
L 931.577655 338.715829 
L 932.570361 334.347212 
L 933.563067 355.699138 
L 934.555773 366.670322 
L 935.548479 335.524122 
L 936.541185 330.92014 
L 937.533891 350.967043 
L 938.526597 358.232398 
L 939.519303 331.352659 
L 940.512009 328.462551 
L 941.504714 349.166358 
L 942.49742 357.891077 
L 943.490126 333.450192 
L 944.482832 332.327468 
L 945.475538 357.407865 
L 946.468244 377.584583 
L 947.46095 346.204946 
L 948.453656 344.971649 
L 949.446362 372.807474 
L 950.439068 442.159498 
L 951.431774 369.902903 
L 952.42448 361.646722 
L 953.417186 372.539123 
L 954.409891 400.316472 
L 955.402597 399.383321 
L 956.395303 371.733022 
L 957.388009 363.435261 
L 958.380715 376.739589 
L 959.373421 434.284643 
L 960.366127 379.329839 
L 961.358833 357.630001 
L 962.351539 361.280205 
L 963.344245 400.871072 
L 964.336951 399.334572 
L 965.329657 358.613747 
L 966.322363 354.014518 
L 967.315068 375.211023 
L 968.307774 471.536069 
L 969.30048 377.845936 
L 970.293186 362.784119 
L 971.285892 365.530345 
L 972.278598 378.334542 
L 973.271304 418.201009 
L 974.26401 395.429506 
L 975.256716 356.223887 
L 976.249422 348.295584 
L 977.242128 366.159856 
L 978.234834 409.70489 
L 979.22754 356.359328 
L 980.220246 345.210603 
L 981.212951 360.765958 
L 982.205657 448.761546 
L 983.198363 383.894192 
L 984.191069 369.757744 
L 985.183775 375.110824 
L 986.176481 372.763875 
L 987.169187 379.904174 
L 988.161893 444.876915 
L 989.154599 374.79919 
L 990.147305 355.054455 
L 991.140011 366.163323 
L 992.132717 441.185453 
L 993.125423 380.129639 
L 994.118128 367.558002 
L 995.110834 389.209391 
L 996.10354 384.037096 
L 997.096246 366.70482 
L 998.088952 387.601546 
L 999.081658 412.584894 
L 1000.074364 358.187458 
L 1001.06707 352.84338 
L 1002.059776 384.598835 
L 1003.052482 398.185066 
L 1004.045188 355.750732 
L 1005.037894 356.79228 
L 1006.0306 400.912661 
L 1007.023305 391.532668 
L 1008.016011 361.780507 
L 1009.008717 370.443344 
L 1010.001423 423.782951 
L 1010.994129 379.678899 
L 1011.986835 365.064797 
L 1012.979541 380.305936 
L 1013.972247 419.31241 
L 1014.964953 376.252008 
L 1015.957659 365.260397 
L 1016.950365 381.651506 
L 1017.943071 425.284732 
L 1018.935777 373.847585 
L 1019.928482 360.220047 
L 1020.921188 375.780352 
L 1021.913894 478.671958 
L 1022.9066 367.08416 
L 1023.899306 351.69419 
L 1024.892012 365.651111 
L 1025.884718 436.916565 
L 1026.877424 362.029318 
L 1027.87013 346.591062 
L 1028.862836 360.563564 
L 1029.855542 422.790961 
L 1030.848248 360.424031 
L 1031.840954 346.932521 
L 1032.833659 364.985554 
L 1033.826365 412.349973 
L 1034.819071 352.937713 
L 1035.811777 343.918531 
L 1036.804483 366.439042 
L 1037.797189 374.119749 
L 1038.789895 338.633612 
L 1039.782601 333.830428 
L 1040.775307 352.81731 
L 1041.768013 354.269064 
L 1042.760719 329.964311 
L 1043.753425 327.879501 
L 1044.746131 346.957207 
L 1045.738837 352.915654 
L 1046.731542 331.854252 
L 1047.724248 331.60311 
L 1048.716954 356.167241 
L 1049.70966 367.559123 
L 1050.702366 341.976478 
L 1051.695072 343.631523 
L 1052.687778 379.053685 
L 1053.680484 387.340832 
L 1054.67319 353.535452 
L 1055.665896 356.704118 
L 1056.658602 400.156129 
L 1057.651308 397.282214 
L 1058.644014 363.160815 
L 1059.636719 364.819 
L 1060.629425 397.274011 
L 1061.622131 406.764126 
L 1062.614837 373.751807 
L 1063.607543 371.83094 
L 1064.600249 388.778975 
L 1065.592955 396.026019 
L 1066.585661 385.728927 
L 1067.578367 385.84101 
L 1068.571073 382.043005 
L 1069.563779 377.326316 
L 1070.556485 392.146291 
L 1071.549191 404.808815 
L 1072.541896 371.976888 
L 1073.534602 366.749518 
L 1074.527308 396.66491 
L 1075.520014 404.215744 
L 1076.51272 364.465486 
L 1077.505426 364.587576 
L 1078.498132 405.955143 
L 1079.490838 395.36482 
L 1080.483544 366.362451 
L 1081.47625 373.515392 
L 1082.468956 403.962547 
L 1083.461662 385.148504 
L 1084.454368 382.943756 
L 1085.447073 400.964013 
L 1086.439779 375.141565 
L 1087.432485 365.352999 
L 1088.425191 391.041456 
L 1089.417897 413.660693 
L 1090.410603 362.112708 
L 1091.403309 357.770284 
L 1093.388721 418.535931 
L 1094.381427 370.112411 
L 1095.374133 369.587559 
L 1096.366839 391.104942 
L 1097.359545 390.330829 
L 1098.35225 386.023398 
L 1099.344956 399.573941 
L 1100.337662 382.375324 
L 1101.330368 369.656774 
L 1102.323074 381.849385 
L 1103.31578 414.248279 
L 1104.308486 385.210268 
L 1105.301192 376.465941 
L 1106.293898 385.217625 
L 1107.286604 382.255666 
L 1108.27931 380.898092 
L 1109.272016 413.806052 
L 1110.264722 388.607966 
L 1111.257428 358.543761 
L 1112.250133 358.852769 
L 1113.242839 397.731418 
L 1114.235545 383.294704 
L 1115.228251 349.607884 
L 1116.220957 349.088148 
L 1117.213663 381.698549 
L 1118.206369 385.133615 
L 1119.199075 351.058756 
L 1120.191781 352.05009 
L 1121.184487 393.036328 
L 1122.177193 386.843773 
L 1123.169899 355.041978 
L 1124.162605 362.097773 
L 1125.15531 438.057938 
L 1126.148016 374.07527 
L 1127.140722 354.587167 
L 1128.133428 370.01184 
L 1129.126134 465.825357 
L 1130.11884 365.650674 
L 1131.111546 353.885517 
L 1132.104252 374.039 
L 1133.096958 445.506721 
L 1134.089664 365.36424 
L 1135.08237 354.80869 
L 1136.075076 373.98104 
L 1137.067782 460.506334 
L 1138.060487 366.402148 
L 1139.053193 353.018042 
L 1140.045899 368.115113 
L 1141.038605 442.038877 
L 1142.031311 363.528193 
L 1143.024017 348.692737 
L 1144.016723 364.605871 
L 1145.009429 414.807236 
L 1146.002135 356.154851 
L 1146.994841 345.833152 
L 1147.987547 368.014761 
L 1148.980253 387.133408 
L 1149.972959 346.04221 
L 1150.965664 342.512011 
L 1151.95837 369.223311 
L 1152.951076 365.810298 
L 1153.943782 338.713585 
L 1154.936488 340.016652 
L 1155.929194 368.990055 
L 1156.9219 363.951075 
L 1157.914606 341.301812 
L 1158.907312 345.681768 
L 1159.900018 383.289674 
L 1160.892724 387.528976 
L 1161.88543 357.795006 
L 1162.878136 361.933086 
L 1163.870841 394.268212 
L 1164.863547 407.836887 
L 1165.856253 384.157059 
L 1166.848959 382.436919 
L 1167.841665 383.624172 
L 1168.834371 382.002207 
L 1169.827077 389.891396 
L 1170.819783 401.079511 
L 1171.812489 386.065533 
L 1172.805195 375.063452 
L 1173.797901 381.319657 
L 1174.790607 402.87287 
L 1176.776019 377.246127 
L 1177.768724 385.776137 
L 1178.76143 397.697559 
L 1179.754136 380.082322 
L 1180.746842 379.070707 
L 1181.739548 406.414469 
L 1182.732254 388.949298 
L 1183.72496 368.558491 
L 1184.717666 377.900851 
L 1185.710372 426.680696 
L 1186.703078 381.219704 
L 1187.695784 368.237513 
L 1189.681196 407.452299 
L 1190.673901 374.365144 
L 1191.666607 376.927789 
L 1192.659313 414.408102 
L 1193.652019 382.964528 
L 1194.644725 368.302564 
L 1195.637431 386.957925 
L 1196.630137 416.566078 
L 1197.622843 374.244929 
L 1198.615549 371.401207 
L 1199.608255 400.989674 
L 1200.600961 394.630479 
L 1201.593667 373.341591 
L 1202.586373 383.74863 
L 1203.579078 409.911164 
L 1204.571784 378.627862 
L 1205.56449 371.809961 
L 1206.557196 394.840586 
L 1207.549902 406.424927 
L 1208.542608 375.076728 
L 1209.535314 372.782167 
L 1210.52802 393.946781 
L 1211.520726 403.170156 
L 1212.513432 381.883118 
L 1213.506138 378.726766 
L 1214.498844 386.029826 
L 1216.484255 395.647815 
L 1217.476961 390.862526 
L 1218.469667 374.951511 
L 1219.462373 373.43047 
L 1220.455079 405.302644 
L 1221.447785 401.014024 
L 1222.440491 361.406326 
L 1223.433197 358.329974 
L 1224.425903 393.158735 
L 1225.418609 386.345274 
L 1226.411315 349.728285 
L 1227.404021 348.898499 
L 1228.396727 382.19441 
L 1229.389432 372.685166 
L 1230.382138 344.584783 
L 1231.374844 348.207702 
L 1232.36755 388.02498 
L 1233.360256 368.575767 
L 1234.352962 346.358016 
L 1235.345668 356.324588 
L 1236.338374 418.868183 
L 1237.33108 366.909775 
L 1238.323786 351.256299 
L 1239.316492 369.283781 
L 1240.309198 453.70711 
L 1241.301904 366.349907 
L 1242.29461 356.105205 
L 1243.287315 376.748686 
L 1244.280021 473.768428 
L 1245.272727 372.100394 
L 1245.272727 372.100394 
" clip-path="url(#pd2feec0ad9)" style="fill: none; stroke: #1f77b4; stroke-width: 1.5; stroke-linecap: square"/>
   </g>
   <g id="patch_3">
    <path d="M 180 512.64 
L 180 69.12 
" style="fill: none; stroke: #000000; stroke-width: 0.8; stroke-linejoin: miter; stroke-linecap: square"/>
   </g>
   <g id="patch_4">
    <path d="M 1296 512.64 
L 1296 69.12 
" style="fill: none; stroke: #000000; stroke-width: 0.8; stroke-linejoin: miter; stroke-linecap: square"/>
   </g>
   <g id="patch_5">
    <path d="M 180 512.64 
L 1296 512.64 
" style="fill: none; stroke: #000000; stroke-width: 0.8; stroke-linejoin: miter; stroke-linecap: square"/>
   </g>
   <g id="patch_6">
    <path d="M 180 69.12 
L 1296 69.12 
" style="fill: none; stroke: #000000; stroke-width: 0.8; stroke-linejoin: miter; stroke-linecap: square"/>
   </g>
   <g id="text_12">
    <!-- source18-receiver9 -->
    <g transform="translate(544.9 60.80125) scale(0.4 -0.4)">
     <defs>
      <path id="DejaVuSans-73" d="M 2834 3397 
L 2834 2853 
Q 2591 2978 2328 3040 
Q 2066 3103 1784 3103 
Q 1356 3103 1142 2972 
Q 928 2841 928 2578 
Q 928 2378 1081 2264 
Q 1234 2150 1697 2047 
L 1894 2003 
Q 2506 1872 2764 1633 
Q 3022 1394 3022 966 
Q 3022 478 2636 193 
Q 2250 -91 1575 -91 
Q 1294 -91 989 -36 
Q 684 19 347 128 
L 347 722 
Q 666 556 975 473 
Q 1284 391 1588 391 
Q 1994 391 2212 530 
Q 2431 669 2431 922 
Q 2431 1156 2273 1281 
Q 2116 1406 1581 1522 
L 1381 1569 
Q 847 1681 609 1914 
Q 372 2147 372 2553 
Q 372 3047 722 3315 
Q 1072 3584 1716 3584 
Q 2034 3584 2315 3537 
Q 2597 3491 2834 3397 
z
" transform="scale(0.015625)"/>
      <path id="DejaVuSans-6f" d="M 1959 3097 
Q 1497 3097 1228 2736 
Q 959 2375 959 1747 
Q 959 1119 1226 758 
Q 1494 397 1959 397 
Q 2419 397 2687 759 
Q 2956 1122 2956 1747 
Q 2956 2369 2687 2733 
Q 2419 3097 1959 3097 
z
M 1959 3584 
Q 2709 3584 3137 3096 
Q 3566 2609 3566 1747 
Q 3566 888 3137 398 
Q 2709 -91 1959 -91 
Q 1206 -91 779 398 
Q 353 888 353 1747 
Q 353 2609 779 3096 
Q 1206 3584 1959 3584 
z
" transform="scale(0.015625)"/>
      <path id="DejaVuSans-75" d="M 544 1381 
L 544 3500 
L 1119 3500 
L 1119 1403 
Q 1119 906 1312 657 
Q 1506 409 1894 409 
Q 2359 409 2629 706 
Q 2900 1003 2900 1516 
L 2900 3500 
L 3475 3500 
L 3475 0 
L 2900 0 
L 2900 538 
Q 2691 219 2414 64 
Q 2138 -91 1772 -91 
Q 1169 -91 856 284 
Q 544 659 544 1381 
z
M 1991 3584 
L 1991 3584 
z
" transform="scale(0.015625)"/>
      <path id="DejaVuSans-72" d="M 2631 2963 
Q 2534 3019 2420 3045 
Q 2306 3072 2169 3072 
Q 1681 3072 1420 2755 
Q 1159 2438 1159 1844 
L 1159 0 
L 581 0 
L 581 3500 
L 1159 3500 
L 1159 2956 
Q 1341 3275 1631 3429 
Q 1922 3584 2338 3584 
Q 2397 3584 2469 3576 
Q 2541 3569 2628 3553 
L 2631 2963 
z
" transform="scale(0.015625)"/>
      <path id="DejaVuSans-63" d="M 3122 3366 
L 3122 2828 
Q 2878 2963 2633 3030 
Q 2388 3097 2138 3097 
Q 1578 3097 1268 2742 
Q 959 2388 959 1747 
Q 959 1106 1268 751 
Q 1578 397 2138 397 
Q 2388 397 2633 464 
Q 2878 531 3122 666 
L 3122 134 
Q 2881 22 2623 -34 
Q 2366 -91 2075 -91 
Q 1284 -91 818 406 
Q 353 903 353 1747 
Q 353 2603 823 3093 
Q 1294 3584 2113 3584 
Q 2378 3584 2631 3529 
Q 2884 3475 3122 3366 
z
" transform="scale(0.015625)"/>
      <path id="DejaVuSans-65" d="M 3597 1894 
L 3597 1613 
L 953 1613 
Q 991 1019 1311 708 
Q 1631 397 2203 397 
Q 2534 397 2845 478 
Q 3156 559 3463 722 
L 3463 178 
Q 3153 47 2828 -22 
Q 2503 -91 2169 -91 
Q 1331 -91 842 396 
Q 353 884 353 1716 
Q 353 2575 817 3079 
Q 1281 3584 2069 3584 
Q 2775 3584 3186 3129 
Q 3597 2675 3597 1894 
z
M 3022 2063 
Q 3016 2534 2758 2815 
Q 2500 3097 2075 3097 
Q 1594 3097 1305 2825 
Q 1016 2553 972 2059 
L 3022 2063 
z
" transform="scale(0.015625)"/>
      <path id="DejaVuSans-38" d="M 2034 2216 
Q 1584 2216 1326 1975 
Q 1069 1734 1069 1313 
Q 1069 891 1326 650 
Q 1584 409 2034 409 
Q 2484 409 2743 651 
Q 3003 894 3003 1313 
Q 3003 1734 2745 1975 
Q 2488 2216 2034 2216 
z
M 1403 2484 
Q 997 2584 770 2862 
Q 544 3141 544 3541 
Q 544 4100 942 4425 
Q 1341 4750 2034 4750 
Q 2731 4750 3128 4425 
Q 3525 4100 3525 3541 
Q 3525 3141 3298 2862 
Q 3072 2584 2669 2484 
Q 3125 2378 3379 2068 
Q 3634 1759 3634 1313 
Q 3634 634 3220 271 
Q 2806 -91 2034 -91 
Q 1263 -91 848 271 
Q 434 634 434 1313 
Q 434 1759 690 2068 
Q 947 2378 1403 2484 
z
M 1172 3481 
Q 1172 3119 1398 2916 
Q 1625 2713 2034 2713 
Q 2441 2713 2670 2916 
Q 2900 3119 2900 3481 
Q 2900 3844 2670 4047 
Q 2441 4250 2034 4250 
Q 1625 4250 1398 4047 
Q 1172 3844 1172 3481 
z
" transform="scale(0.015625)"/>
      <path id="DejaVuSans-2d" d="M 313 2009 
L 1997 2009 
L 1997 1497 
L 313 1497 
L 313 2009 
z
" transform="scale(0.015625)"/>
      <path id="DejaVuSans-69" d="M 603 3500 
L 1178 3500 
L 1178 0 
L 603 0 
L 603 3500 
z
M 603 4863 
L 1178 4863 
L 1178 4134 
L 603 4134 
L 603 4863 
z
" transform="scale(0.015625)"/>
      <path id="DejaVuSans-76" d="M 191 3500 
L 800 3500 
L 1894 563 
L 2988 3500 
L 3597 3500 
L 2284 0 
L 1503 0 
L 191 3500 
z
" transform="scale(0.015625)"/>
      <path id="DejaVuSans-39" d="M 703 97 
L 703 672 
Q 941 559 1184 500 
Q 1428 441 1663 441 
Q 2288 441 2617 861 
Q 2947 1281 2994 2138 
Q 2813 1869 2534 1725 
Q 2256 1581 1919 1581 
Q 1219 1581 811 2004 
Q 403 2428 403 3163 
Q 403 3881 828 4315 
Q 1253 4750 1959 4750 
Q 2769 4750 3195 4129 
Q 3622 3509 3622 2328 
Q 3622 1225 3098 567 
Q 2575 -91 1691 -91 
Q 1453 -91 1209 -44 
Q 966 3 703 97 
z
M 1959 2075 
Q 2384 2075 2632 2365 
Q 2881 2656 2881 3163 
Q 2881 3666 2632 3958 
Q 2384 4250 1959 4250 
Q 1534 4250 1286 3958 
Q 1038 3666 1038 3163 
Q 1038 2656 1286 2365 
Q 1534 2075 1959 2075 
z
" transform="scale(0.015625)"/>
     </defs>
     <use xlink:href="#DejaVuSans-73"/>
     <use xlink:href="#DejaVuSans-6f" x="52.099609"/>
     <use xlink:href="#DejaVuSans-75" x="113.28125"/>
     <use xlink:href="#DejaVuSans-72" x="176.660156"/>
     <use xlink:href="#DejaVuSans-63" x="215.523438"/>
     <use xlink:href="#DejaVuSans-65" x="270.503906"/>
     <use xlink:href="#DejaVuSans-31" x="332.027344"/>
     <use xlink:href="#DejaVuSans-38" x="395.650391"/>
     <use xlink:href="#DejaVuSans-2d" x="459.273438"/>
     <use xlink:href="#DejaVuSans-72" x="495.357422"/>
     <use xlink:href="#DejaVuSans-65" x="534.220703"/>
     <use xlink:href="#DejaVuSans-63" x="595.744141"/>
     <use xlink:href="#DejaVuSans-65" x="650.724609"/>
     <use xlink:href="#DejaVuSans-69" x="712.248047"/>
     <use xlink:href="#DejaVuSans-76" x="740.03125"/>
     <use xlink:href="#DejaVuSans-65" x="799.210938"/>
     <use xlink:href="#DejaVuSans-72" x="860.734375"/>
     <use xlink:href="#DejaVuSans-39" x="901.847656"/>
    </g>
   </g>
  </g>
 </g>
 <defs>
  <clipPath id="pd2feec0ad9">
   <rect x="180" y="69.12" width="1116" height="443.52"/>
  </clipPath>
 </defs>
</svg>
