<?xml version="1.0" encoding="utf-8" standalone="no"?>
<!DOCTYPE svg PUBLIC "-//W3C//DTD SVG 1.1//EN"
  "http://www.w3.org/Graphics/SVG/1.1/DTD/svg11.dtd">
<svg xmlns:xlink="http://www.w3.org/1999/xlink" width="1440pt" height="576pt" viewBox="0 0 1440 576" xmlns="http://www.w3.org/2000/svg" version="1.1">
 <metadata>
  <rdf:RDF xmlns:dc="http://purl.org/dc/elements/1.1/" xmlns:cc="http://creativecommons.org/ns#" xmlns:rdf="http://www.w3.org/1999/02/22-rdf-syntax-ns#">
   <cc:Work>
    <dc:type rdf:resource="http://purl.org/dc/dcmitype/StillImage"/>
    <dc:date>2024-05-22T04:50:16.106137</dc:date>
    <dc:format>image/svg+xml</dc:format>
    <dc:creator>
     <cc:Agent>
      <dc:title>Matplotlib v3.8.3, https://matplotlib.org/</dc:title>
     </cc:Agent>
    </dc:creator>
   </cc:Work>
  </rdf:RDF>
 </metadata>
 <defs>
  <style type="text/css">*{stroke-linejoin: round; stroke-linecap: butt}</style>
 </defs>
 <g id="figure_1">
  <g id="patch_1">
   <path d="M 0 576 
L 1440 576 
L 1440 0 
L 0 0 
z
" style="fill: #ffffff"/>
  </g>
  <g id="axes_1">
   <g id="patch_2">
    <path d="M 180 512.64 
L 1296 512.64 
L 1296 69.12 
L 180 69.12 
z
" style="fill: #ffffff"/>
   </g>
   <g id="matplotlib.axis_1">
    <g id="xtick_1">
     <g id="line2d_1">
      <defs>
       <path id="m08804dae3b" d="M 0 0 
L 0 3.5 
" style="stroke: #000000; stroke-width: 0.8"/>
      </defs>
      <g>
       <use xlink:href="#m08804dae3b" x="229.734567" y="512.64" style="stroke: #000000; stroke-width: 0.8"/>
      </g>
     </g>
     <g id="text_1">
      <!-- 0 -->
      <g transform="translate(226.553317 527.238438) scale(0.1 -0.1)">
       <defs>
        <path id="DejaVuSans-30" d="M 2034 4250 
Q 1547 4250 1301 3770 
Q 1056 3291 1056 2328 
Q 1056 1369 1301 889 
Q 1547 409 2034 409 
Q 2525 409 2770 889 
Q 3016 1369 3016 2328 
Q 3016 3291 2770 3770 
Q 2525 4250 2034 4250 
z
M 2034 4750 
Q 2819 4750 3233 4129 
Q 3647 3509 3647 2328 
Q 3647 1150 3233 529 
Q 2819 -91 2034 -91 
Q 1250 -91 836 529 
Q 422 1150 422 2328 
Q 422 3509 836 4129 
Q 1250 4750 2034 4750 
z
" transform="scale(0.015625)"/>
       </defs>
       <use xlink:href="#DejaVuSans-30"/>
      </g>
     </g>
    </g>
    <g id="xtick_2">
     <g id="line2d_2">
      <g>
       <use xlink:href="#m08804dae3b" x="433.04074" y="512.64" style="stroke: #000000; stroke-width: 0.8"/>
      </g>
     </g>
     <g id="text_2">
      <!-- 500 -->
      <g transform="translate(423.49699 527.238438) scale(0.1 -0.1)">
       <defs>
        <path id="DejaVuSans-35" d="M 691 4666 
L 3169 4666 
L 3169 4134 
L 1269 4134 
L 1269 2991 
Q 1406 3038 1543 3061 
Q 1681 3084 1819 3084 
Q 2600 3084 3056 2656 
Q 3513 2228 3513 1497 
Q 3513 744 3044 326 
Q 2575 -91 1722 -91 
Q 1428 -91 1123 -41 
Q 819 9 494 109 
L 494 744 
Q 775 591 1075 516 
Q 1375 441 1709 441 
Q 2250 441 2565 725 
Q 2881 1009 2881 1497 
Q 2881 1984 2565 2268 
Q 2250 2553 1709 2553 
Q 1456 2553 1204 2497 
Q 953 2441 691 2322 
L 691 4666 
z
" transform="scale(0.015625)"/>
       </defs>
       <use xlink:href="#DejaVuSans-35"/>
       <use xlink:href="#DejaVuSans-30" x="63.623047"/>
       <use xlink:href="#DejaVuSans-30" x="127.246094"/>
      </g>
     </g>
    </g>
    <g id="xtick_3">
     <g id="line2d_3">
      <g>
       <use xlink:href="#m08804dae3b" x="636.346913" y="512.64" style="stroke: #000000; stroke-width: 0.8"/>
      </g>
     </g>
     <g id="text_3">
      <!-- 1000 -->
      <g transform="translate(623.621913 527.238438) scale(0.1 -0.1)">
       <defs>
        <path id="DejaVuSans-31" d="M 794 531 
L 1825 531 
L 1825 4091 
L 703 3866 
L 703 4441 
L 1819 4666 
L 2450 4666 
L 2450 531 
L 3481 531 
L 3481 0 
L 794 0 
L 794 531 
z
" transform="scale(0.015625)"/>
       </defs>
       <use xlink:href="#DejaVuSans-31"/>
       <use xlink:href="#DejaVuSans-30" x="63.623047"/>
       <use xlink:href="#DejaVuSans-30" x="127.246094"/>
       <use xlink:href="#DejaVuSans-30" x="190.869141"/>
      </g>
     </g>
    </g>
    <g id="xtick_4">
     <g id="line2d_4">
      <g>
       <use xlink:href="#m08804dae3b" x="839.653087" y="512.64" style="stroke: #000000; stroke-width: 0.8"/>
      </g>
     </g>
     <g id="text_4">
      <!-- 1500 -->
      <g transform="translate(826.928087 527.238438) scale(0.1 -0.1)">
       <use xlink:href="#DejaVuSans-31"/>
       <use xlink:href="#DejaVuSans-35" x="63.623047"/>
       <use xlink:href="#DejaVuSans-30" x="127.246094"/>
       <use xlink:href="#DejaVuSans-30" x="190.869141"/>
      </g>
     </g>
    </g>
    <g id="xtick_5">
     <g id="line2d_5">
      <g>
       <use xlink:href="#m08804dae3b" x="1042.95926" y="512.64" style="stroke: #000000; stroke-width: 0.8"/>
      </g>
     </g>
     <g id="text_5">
      <!-- 2000 -->
      <g transform="translate(1030.23426 527.238438) scale(0.1 -0.1)">
       <defs>
        <path id="DejaVuSans-32" d="M 1228 531 
L 3431 531 
L 3431 0 
L 469 0 
L 469 531 
Q 828 903 1448 1529 
Q 2069 2156 2228 2338 
Q 2531 2678 2651 2914 
Q 2772 3150 2772 3378 
Q 2772 3750 2511 3984 
Q 2250 4219 1831 4219 
Q 1534 4219 1204 4116 
Q 875 4013 500 3803 
L 500 4441 
Q 881 4594 1212 4672 
Q 1544 4750 1819 4750 
Q 2544 4750 2975 4387 
Q 3406 4025 3406 3419 
Q 3406 3131 3298 2873 
Q 3191 2616 2906 2266 
Q 2828 2175 2409 1742 
Q 1991 1309 1228 531 
z
" transform="scale(0.015625)"/>
       </defs>
       <use xlink:href="#DejaVuSans-32"/>
       <use xlink:href="#DejaVuSans-30" x="63.623047"/>
       <use xlink:href="#DejaVuSans-30" x="127.246094"/>
       <use xlink:href="#DejaVuSans-30" x="190.869141"/>
      </g>
     </g>
    </g>
    <g id="xtick_6">
     <g id="line2d_6">
      <g>
       <use xlink:href="#m08804dae3b" x="1246.265433" y="512.64" style="stroke: #000000; stroke-width: 0.8"/>
      </g>
     </g>
     <g id="text_6">
      <!-- 2500 -->
      <g transform="translate(1233.540433 527.238438) scale(0.1 -0.1)">
       <use xlink:href="#DejaVuSans-32"/>
       <use xlink:href="#DejaVuSans-35" x="63.623047"/>
       <use xlink:href="#DejaVuSans-30" x="127.246094"/>
       <use xlink:href="#DejaVuSans-30" x="190.869141"/>
      </g>
     </g>
    </g>
   </g>
   <g id="matplotlib.axis_2">
    <g id="ytick_1">
     <g id="line2d_7">
      <defs>
       <path id="m87240dd30b" d="M 0 0 
L -3.5 0 
" style="stroke: #000000; stroke-width: 0.8"/>
      </defs>
      <g>
       <use xlink:href="#m87240dd30b" x="180" y="481.30661" style="stroke: #000000; stroke-width: 0.8"/>
      </g>
     </g>
     <g id="text_7">
      <!-- −3 -->
      <g transform="translate(158.257812 485.105829) scale(0.1 -0.1)">
       <defs>
        <path id="DejaVuSans-2212" d="M 678 2272 
L 4684 2272 
L 4684 1741 
L 678 1741 
L 678 2272 
z
" transform="scale(0.015625)"/>
        <path id="DejaVuSans-33" d="M 2597 2516 
Q 3050 2419 3304 2112 
Q 3559 1806 3559 1356 
Q 3559 666 3084 287 
Q 2609 -91 1734 -91 
Q 1441 -91 1130 -33 
Q 819 25 488 141 
L 488 750 
Q 750 597 1062 519 
Q 1375 441 1716 441 
Q 2309 441 2620 675 
Q 2931 909 2931 1356 
Q 2931 1769 2642 2001 
Q 2353 2234 1838 2234 
L 1294 2234 
L 1294 2753 
L 1863 2753 
Q 2328 2753 2575 2939 
Q 2822 3125 2822 3475 
Q 2822 3834 2567 4026 
Q 2313 4219 1838 4219 
Q 1578 4219 1281 4162 
Q 984 4106 628 3988 
L 628 4550 
Q 988 4650 1302 4700 
Q 1616 4750 1894 4750 
Q 2613 4750 3031 4423 
Q 3450 4097 3450 3541 
Q 3450 3153 3228 2886 
Q 3006 2619 2597 2516 
z
" transform="scale(0.015625)"/>
       </defs>
       <use xlink:href="#DejaVuSans-2212"/>
       <use xlink:href="#DejaVuSans-33" x="83.789062"/>
      </g>
     </g>
    </g>
    <g id="ytick_2">
     <g id="line2d_8">
      <g>
       <use xlink:href="#m87240dd30b" x="180" y="419.78813" style="stroke: #000000; stroke-width: 0.8"/>
      </g>
     </g>
     <g id="text_8">
      <!-- −2 -->
      <g transform="translate(158.257812 423.587349) scale(0.1 -0.1)">
       <use xlink:href="#DejaVuSans-2212"/>
       <use xlink:href="#DejaVuSans-32" x="83.789062"/>
      </g>
     </g>
    </g>
    <g id="ytick_3">
     <g id="line2d_9">
      <g>
       <use xlink:href="#m87240dd30b" x="180" y="358.269649" style="stroke: #000000; stroke-width: 0.8"/>
      </g>
     </g>
     <g id="text_9">
      <!-- −1 -->
      <g transform="translate(158.257812 362.068868) scale(0.1 -0.1)">
       <use xlink:href="#DejaVuSans-2212"/>
       <use xlink:href="#DejaVuSans-31" x="83.789062"/>
      </g>
     </g>
    </g>
    <g id="ytick_4">
     <g id="line2d_10">
      <g>
       <use xlink:href="#m87240dd30b" x="180" y="296.751169" style="stroke: #000000; stroke-width: 0.8"/>
      </g>
     </g>
     <g id="text_10">
      <!-- 0 -->
      <g transform="translate(166.6375 300.550388) scale(0.1 -0.1)">
       <use xlink:href="#DejaVuSans-30"/>
      </g>
     </g>
    </g>
    <g id="ytick_5">
     <g id="line2d_11">
      <g>
       <use xlink:href="#m87240dd30b" x="180" y="235.232688" style="stroke: #000000; stroke-width: 0.8"/>
      </g>
     </g>
     <g id="text_11">
      <!-- 1 -->
      <g transform="translate(166.6375 239.031907) scale(0.1 -0.1)">
       <use xlink:href="#DejaVuSans-31"/>
      </g>
     </g>
    </g>
    <g id="ytick_6">
     <g id="line2d_12">
      <g>
       <use xlink:href="#m87240dd30b" x="180" y="173.714208" style="stroke: #000000; stroke-width: 0.8"/>
      </g>
     </g>
     <g id="text_12">
      <!-- 2 -->
      <g transform="translate(166.6375 177.513427) scale(0.1 -0.1)">
       <use xlink:href="#DejaVuSans-32"/>
      </g>
     </g>
    </g>
    <g id="ytick_7">
     <g id="line2d_13">
      <g>
       <use xlink:href="#m87240dd30b" x="180" y="112.195727" style="stroke: #000000; stroke-width: 0.8"/>
      </g>
     </g>
     <g id="text_13">
      <!-- 3 -->
      <g transform="translate(166.6375 115.994946) scale(0.1 -0.1)">
       <use xlink:href="#DejaVuSans-33"/>
      </g>
     </g>
    </g>
   </g>
   <g id="line2d_14">
    <path d="M 230.727273 285.915039 
L 232.712685 285.806599 
L 234.698096 285.251445 
L 236.683508 284.623748 
L 239.661626 282.989306 
L 242.639744 281.329225 
L 243.63245 281.264243 
L 244.625156 281.976826 
L 245.617862 281.35593 
L 246.610568 276.856725 
L 247.603273 279.394144 
L 248.595979 297.209629 
L 249.588685 241.252865 
L 250.581391 193.229893 
L 251.574097 171.982571 
L 252.566803 173.551195 
L 253.559509 209.56258 
L 254.552215 296.719939 
L 255.544921 194.359499 
L 256.537627 176.316748 
L 257.530333 169.755328 
L 258.523039 169.092479 
L 259.515745 191.952877 
L 260.50845 203.769093 
L 261.501156 157.089554 
L 262.493862 143.877926 
L 263.486568 152.613463 
L 264.479274 164.401345 
L 265.47198 194.970718 
L 266.464686 244.148419 
L 267.457392 160.683269 
L 268.450098 155.226623 
L 269.442804 179.46449 
L 270.43551 141.084592 
L 271.428216 131.089447 
L 272.420922 172.403832 
L 273.413627 160.970815 
L 274.406333 125.669759 
L 275.399039 142.205386 
L 276.391745 164.117365 
L 277.384451 119.499295 
L 278.377157 110.087817 
L 279.369863 114.290571 
L 280.362569 99.076008 
L 281.355275 89.28 
L 282.347981 100.471616 
L 283.340687 123.655565 
L 284.333393 111.102824 
L 285.326099 109.291602 
L 286.318804 149.546808 
L 287.31151 157.424957 
L 288.304216 119.173585 
L 289.296922 134.858105 
L 290.289628 272.918757 
L 291.282334 158.222527 
L 292.27504 158.716643 
L 293.267746 358.100343 
L 294.260452 161.620388 
L 295.253158 152.601924 
L 296.245864 197.199894 
L 297.23857 180.631758 
L 298.231276 166.047108 
L 299.223981 188.468815 
L 300.216687 189.075126 
L 301.209393 189.134674 
L 302.202099 236.107428 
L 303.194805 242.385909 
L 304.187511 229.042042 
L 305.180217 297.745781 
L 306.172923 277.696106 
L 307.165629 268.354004 
L 308.158335 331.867215 
L 309.151041 276.693583 
L 310.143747 285.558469 
L 311.136453 311.520478 
L 312.129159 292.114023 
L 313.121864 304.460717 
L 314.11457 308.706194 
L 315.107276 304.678723 
L 316.099982 322.889075 
L 317.092688 319.73127 
L 318.085394 309.727303 
L 319.0781 321.586579 
L 320.070806 316.539888 
L 322.056218 327.79396 
L 323.048924 323.727482 
L 324.04163 329.306319 
L 325.034336 325.180635 
L 326.027041 330.576974 
L 327.019747 324.964044 
L 328.012453 326.142008 
L 329.005159 331.944028 
L 329.997865 335.269697 
L 330.990571 335.591342 
L 331.983277 340.262924 
L 332.975983 334.571331 
L 333.968689 337.89294 
L 334.961395 339.917232 
L 335.954101 337.643621 
L 336.946807 347.753662 
L 337.939513 339.577067 
L 338.932218 347.623775 
L 339.924924 345.741605 
L 340.91763 352.304591 
L 341.910336 355.53301 
L 342.903042 355.123211 
L 343.895748 352.647679 
L 344.888454 359.164638 
L 345.88116 351.431531 
L 346.873866 346.17741 
L 347.866572 354.924477 
L 348.859278 360.908591 
L 349.851984 357.484773 
L 350.84469 358.256322 
L 351.837395 370.76325 
L 353.822807 363.602925 
L 354.815513 369.963605 
L 355.808219 359.627308 
L 356.800925 360.035359 
L 357.793631 364.385456 
L 358.786337 352.904098 
L 359.779043 369.319848 
L 360.771749 370.03863 
L 361.764455 366.984589 
L 362.757161 361.402697 
L 363.749867 370.901568 
L 364.742572 378.140039 
L 365.735278 376.105115 
L 366.727984 377.069609 
L 367.72069 381.376118 
L 369.706102 370.566626 
L 370.698808 378.127138 
L 371.691514 369.144111 
L 372.68422 396.815419 
L 373.676926 370.150497 
L 374.669632 391.832461 
L 375.662338 373.02265 
L 376.655044 364.364655 
L 377.64775 366.470085 
L 378.640455 367.017755 
L 379.633161 387.255371 
L 380.625867 380.344749 
L 381.618573 378.125186 
L 382.611279 391.87641 
L 383.603985 393.863203 
L 384.596691 384.953945 
L 385.589397 373.058255 
L 386.582103 407.566048 
L 387.574809 373.414549 
L 388.567515 399.327369 
L 389.560221 380.717051 
L 390.552927 410.679414 
L 391.545632 392.600583 
L 392.538338 404.923465 
L 393.531044 396.075882 
L 394.52375 384.715944 
L 395.516456 392.335614 
L 396.509162 382.461501 
L 397.501868 368.065335 
L 398.494574 392.032278 
L 399.48728 398.957536 
L 400.479986 410.887423 
L 401.472692 369.040358 
L 402.465398 398.342035 
L 403.458104 390.21255 
L 404.450809 385.612593 
L 405.443515 384.190113 
L 406.436221 404.46182 
L 407.428927 408.49236 
L 408.421633 393.776592 
L 409.414339 381.800099 
L 410.407045 385.966834 
L 411.399751 407.591727 
L 412.392457 402.687118 
L 413.385163 392.427099 
L 414.377869 401.964078 
L 415.370575 407.756662 
L 416.363281 396.702006 
L 417.355986 392.812991 
L 418.348692 402.259923 
L 420.334104 395.857334 
L 421.32681 396.705525 
L 422.319516 399.520432 
L 423.312222 392.111123 
L 424.304928 406.716846 
L 425.297634 398.163438 
L 426.29034 421.894414 
L 427.283046 413.893872 
L 428.275752 407.157179 
L 429.268458 404.689787 
L 430.261163 397.828347 
L 431.253869 401.370104 
L 432.246575 432.483947 
L 433.239281 415.350894 
L 434.231987 440.056769 
L 435.224693 400.185404 
L 436.217399 423.214439 
L 437.210105 395.060272 
L 438.202811 414.869505 
L 439.195517 409.282865 
L 440.188223 398.912788 
L 441.180929 404.662349 
L 442.173635 417.828021 
L 443.166341 445.715365 
L 444.159046 415.653482 
L 445.151752 452.873012 
L 446.144458 397.209328 
L 447.137164 413.243565 
L 448.12987 413.774814 
L 449.122576 417.213572 
L 450.115282 412.454023 
L 451.107988 422.300945 
L 452.100694 411.667031 
L 453.0934 428.213886 
L 454.086106 407.410748 
L 455.078812 412.306706 
L 456.071518 439.623179 
L 457.064223 420.805499 
L 458.056929 418.891213 
L 459.049635 404.827084 
L 460.042341 398.997107 
L 461.035047 431.020186 
L 462.027753 421.426604 
L 463.020459 407.223488 
L 464.013165 415.934903 
L 465.005871 428.976865 
L 465.998577 417.374922 
L 466.991283 418.616737 
L 467.983989 441.917199 
L 468.976695 418.592824 
L 469.9694 402.941333 
L 470.962106 442.71435 
L 471.954812 444.392741 
L 472.947518 416.717435 
L 473.940224 423.231554 
L 474.93293 433.194265 
L 475.925636 433.065785 
L 476.918342 413.999737 
L 477.911048 416.750101 
L 478.903754 443.160916 
L 479.89646 425.388149 
L 480.889166 432.937572 
L 481.881872 427.740723 
L 482.874577 437.812493 
L 483.867283 432.709289 
L 484.859989 406.834973 
L 485.852695 436.224494 
L 486.845401 421.618262 
L 487.838107 446.462975 
L 488.830813 437.567466 
L 489.823519 446.760144 
L 490.816225 418.181494 
L 491.808931 434.717872 
L 492.801637 422.068257 
L 493.794343 433.812671 
L 494.787049 417.303435 
L 495.779754 415.593528 
L 496.77246 427.659089 
L 497.765166 422.034675 
L 498.757872 421.971761 
L 499.750578 465.102777 
L 500.743284 445.995835 
L 501.73599 415.2734 
L 502.728696 426.090462 
L 503.721402 434.78603 
L 504.714108 473.613412 
L 505.706814 424.931207 
L 506.69952 424.088252 
L 507.692226 449.04063 
L 508.684932 424.159034 
L 509.677637 417.13111 
L 510.670343 421.686385 
L 511.663049 437.534524 
L 512.655755 450.415671 
L 513.648461 437.12644 
L 514.641167 425.625492 
L 515.633873 434.649532 
L 516.626579 412.054266 
L 517.619285 441.78657 
L 518.611991 424.587714 
L 519.604697 441.996378 
L 520.597403 439.881499 
L 521.590109 423.857193 
L 522.582814 442.954941 
L 523.57552 424.803452 
L 524.568226 467.02833 
L 525.560932 419.962222 
L 527.546344 465.32914 
L 528.53905 442.533541 
L 529.531756 458.898291 
L 530.524462 467.49248 
L 531.517168 419.693296 
L 532.509874 422.37147 
L 533.50258 406.393188 
L 534.495286 449.472715 
L 535.487991 455.476446 
L 536.480697 430.636765 
L 537.473403 490.508354 
L 538.466109 427.913135 
L 539.458815 433.871165 
L 540.451521 414.414751 
L 541.444227 428.134825 
L 542.436933 445.459156 
L 543.429639 444.171038 
L 544.422345 426.800628 
L 545.415051 417.368219 
L 546.407757 427.531437 
L 547.400463 442.664999 
L 548.393168 417.834205 
L 549.385874 470.03483 
L 550.37858 446.96078 
L 551.371286 438.35865 
L 552.363992 459.400692 
L 553.356698 416.071455 
L 554.349404 432.04937 
L 555.34211 424.120548 
L 556.334816 448.130749 
L 557.327522 436.831614 
L 558.320228 427.77923 
L 559.312934 439.427307 
L 560.30564 408.498042 
L 561.298345 440.332411 
L 562.291051 436.543632 
L 563.283757 440.442809 
L 564.276463 419.967441 
L 565.269169 434.236014 
L 566.261875 467.356376 
L 567.254581 475.118482 
L 568.247287 444.697735 
L 569.239993 434.671155 
L 570.232699 447.27904 
L 571.225405 483.258592 
L 572.218111 436.582071 
L 573.210817 458.537115 
L 574.203523 423.775614 
L 575.196228 428.833302 
L 576.188934 408.962495 
L 577.18164 443.01283 
L 578.174346 430.475401 
L 579.167052 488.649241 
L 581.152464 427.148956 
L 582.14517 437.229723 
L 583.137876 442.521086 
L 584.130582 461.658024 
L 585.123288 455.926432 
L 586.115994 423.469454 
L 587.1087 443.580019 
L 588.101405 449.164449 
L 589.094111 471.578271 
L 590.086817 431.711937 
L 591.079523 465.575874 
L 592.072229 471.090948 
L 593.064935 440.733213 
L 594.057641 465.488081 
L 595.050347 450.015155 
L 596.043053 449.963614 
L 597.035759 445.845178 
L 598.028465 444.320923 
L 599.021171 446.598973 
L 600.013877 463.494074 
L 601.006582 460.49779 
L 601.999288 458.353938 
L 602.991994 445.975257 
L 603.9847 464.506463 
L 604.977406 450.357354 
L 605.970112 442.57592 
L 606.962818 442.020652 
L 607.955524 434.199485 
L 608.94823 455.045042 
L 609.940936 451.979685 
L 610.933642 439.61129 
L 611.926348 445.429139 
L 612.919054 458.788326 
L 613.911759 468.788396 
L 614.904465 444.213435 
L 615.897171 462.428104 
L 616.889877 443.570656 
L 617.882583 444.405055 
L 618.875289 445.656771 
L 619.867995 448.962356 
L 620.860701 441.951767 
L 621.853407 456.400311 
L 622.846113 467.834134 
L 623.838819 435.603073 
L 624.831525 458.998684 
L 625.824231 463.588504 
L 626.816936 456.744761 
L 627.809642 462.290425 
L 628.802348 450.556353 
L 629.795054 448.727041 
L 630.78776 460.911884 
L 631.780466 465.764826 
L 632.773172 442.505748 
L 633.765878 470.829515 
L 634.758584 457.21834 
L 635.75129 454.056436 
L 636.743996 455.4995 
L 637.736702 449.849516 
L 638.729408 447.277522 
L 639.722114 448.763339 
L 640.714819 461.688595 
L 641.707525 455.87762 
L 642.700231 464.614079 
L 643.692937 450.966368 
L 644.685643 455.538846 
L 645.678349 462.138285 
L 646.671055 446.782266 
L 647.663761 460.004715 
L 648.656467 462.99347 
L 649.649173 453.36503 
L 650.641879 459.485257 
L 651.634585 457.724441 
L 652.627291 453.258123 
L 653.619996 453.645243 
L 654.612702 460.522532 
L 655.605408 458.23014 
L 656.598114 455.223436 
L 657.59082 458.632828 
L 658.583526 459.873108 
L 659.576232 453.201313 
L 660.568938 463.904964 
L 661.561644 456.778157 
L 662.55435 458.954071 
L 663.547056 455.402592 
L 664.539762 453.173837 
L 665.532468 459.994782 
L 666.525173 462.675318 
L 667.517879 454.245477 
L 668.510585 455.93927 
L 669.503291 459.941299 
L 670.495997 457.810714 
L 671.488703 460.93468 
L 672.481409 461.236137 
L 673.474115 459.951585 
L 674.466821 457.583111 
L 675.459527 461.674717 
L 676.452233 462.669282 
L 677.444939 459.426171 
L 678.437645 457.535196 
L 679.43035 459.535256 
L 680.423056 459.300925 
L 681.415762 459.490055 
L 682.408468 461.134659 
L 683.401174 457.591488 
L 684.39388 463.312169 
L 685.386586 463.51678 
L 687.371998 461.00306 
L 688.364704 462.260068 
L 689.35741 467.803266 
L 690.350116 459.502866 
L 691.342822 461.051943 
L 692.335527 462.907896 
L 693.328233 462.764812 
L 694.320939 462.751653 
L 695.313645 460.682087 
L 696.306351 464.636039 
L 697.299057 465.048733 
L 698.291763 463.914274 
L 699.284469 465.792267 
L 700.277175 462.61681 
L 701.269881 463.066449 
L 702.262587 462.147131 
L 703.255293 464.826528 
L 704.247999 463.754634 
L 705.240705 467.700108 
L 706.23341 462.883583 
L 707.226116 462.530061 
L 708.218822 463.794822 
L 709.211528 466.438281 
L 710.204234 462.745746 
L 711.19694 464.323595 
L 712.189646 465.159014 
L 713.182352 463.542876 
L 714.175058 463.879408 
L 715.167764 464.971719 
L 716.16047 465.85816 
L 717.153176 462.98138 
L 718.145882 466.702049 
L 719.138587 466.34168 
L 720.131293 465.343972 
L 721.123999 463.558073 
L 722.116705 465.532609 
L 723.109411 465.96451 
L 724.102117 466.252814 
L 725.094823 466.179399 
L 726.087529 464.861113 
L 727.080235 465.032141 
L 728.072941 466.284321 
L 729.065647 467.875377 
L 730.058353 468.978971 
L 731.051059 467.177192 
L 732.043764 466.774409 
L 733.03647 467.368405 
L 734.029176 467.147555 
L 735.021882 465.170449 
L 736.014588 467.832894 
L 737.007294 466.671965 
L 738 468.053062 
L 738.992706 468.29496 
L 739.985412 467.190692 
L 740.978118 466.934393 
L 741.970824 468.087266 
L 742.96353 469.740183 
L 743.956236 468.937479 
L 744.948941 467.381648 
L 745.941647 467.855217 
L 746.934353 469.151808 
L 747.927059 466.597256 
L 748.919765 468.367808 
L 749.912471 467.036391 
L 750.905177 468.694597 
L 751.897883 469.836064 
L 752.890589 467.330665 
L 753.883295 469.223303 
L 754.876001 469.809585 
L 755.868707 468.895674 
L 756.861413 469.713255 
L 757.854118 468.582407 
L 758.846824 469.6123 
L 759.83953 468.929422 
L 760.832236 469.069466 
L 761.824942 468.650783 
L 762.817648 470.581361 
L 763.810354 471.025982 
L 764.80306 468.857733 
L 765.795766 470.665035 
L 768.773884 471.591897 
L 769.76659 470.191568 
L 770.759295 471.381322 
L 771.752001 471.292071 
L 772.744707 472.622019 
L 773.737413 469.45585 
L 774.730119 472.714907 
L 775.722825 469.980228 
L 776.715531 471.16396 
L 777.708237 470.564995 
L 778.700943 471.964311 
L 779.693649 469.603297 
L 780.686355 471.269647 
L 781.679061 472.595661 
L 782.671767 470.945431 
L 783.664473 471.073671 
L 784.657178 472.052565 
L 785.649884 472.172668 
L 786.64259 471.296541 
L 787.635296 473.516144 
L 788.628002 471.834079 
L 789.620708 471.908384 
L 790.613414 471.046393 
L 791.60612 474.576019 
L 792.598826 473.405326 
L 794.584238 474.390853 
L 795.576944 473.768712 
L 796.56965 472.79662 
L 797.562355 473.123651 
L 798.555061 472.563933 
L 799.547767 474.431549 
L 800.540473 472.930245 
L 801.533179 473.572387 
L 802.525885 472.908518 
L 803.518591 473.582699 
L 804.511297 473.387041 
L 805.504003 473.494537 
L 807.489415 474.667158 
L 808.482121 474.982026 
L 809.474827 476.16458 
L 810.467532 473.849261 
L 811.460238 473.588864 
L 812.452944 474.20084 
L 813.44565 473.686985 
L 814.438356 474.414067 
L 815.431062 475.599311 
L 816.423768 473.871069 
L 817.416474 474.912282 
L 818.40918 475.081106 
L 819.401886 475.793083 
L 820.394592 475.82321 
L 821.387298 474.558236 
L 822.380004 473.959405 
L 823.372709 475.556157 
L 824.365415 475.154032 
L 825.358121 474.435962 
L 826.350827 476.875665 
L 827.343533 474.988191 
L 828.336239 474.843006 
L 829.328945 476.114975 
L 830.321651 475.788898 
L 831.314357 475.753453 
L 832.307063 477.424576 
L 833.299769 475.583318 
L 834.292475 475.909043 
L 835.285181 474.27373 
L 836.277886 476.525851 
L 838.263298 475.950675 
L 839.256004 475.437914 
L 840.24871 475.415791 
L 841.241416 477.269008 
L 843.226828 475.974789 
L 844.219534 476.748788 
L 845.21224 476.99263 
L 846.204946 476.862798 
L 847.197652 475.923866 
L 848.190358 477.707 
L 849.183064 475.54598 
L 851.168475 477.178593 
L 853.153887 478.074969 
L 854.146593 477.407116 
L 855.139299 478.817481 
L 856.132005 478.065098 
L 857.124711 476.54022 
L 858.117417 475.813154 
L 859.110123 478.671846 
L 860.102829 479.379151 
L 861.095535 478.823786 
L 862.088241 477.596028 
L 863.080946 477.071003 
L 864.073652 477.939646 
L 865.066358 478.595133 
L 866.059064 478.710612 
L 867.05177 480.830184 
L 868.044476 478.958116 
L 869.037182 478.377936 
L 870.029888 478.909071 
L 871.022594 478.58314 
L 872.0153 479.250739 
L 873.008006 479.400703 
L 874.000712 478.292456 
L 874.993418 477.472181 
L 875.986123 478.999885 
L 876.978829 479.251302 
L 877.971535 479.646545 
L 878.964241 479.851103 
L 879.956947 478.59104 
L 881.942359 480.495151 
L 882.935065 479.401527 
L 883.927771 479.931469 
L 884.920477 480.251827 
L 885.913183 479.477003 
L 886.905889 479.864302 
L 887.898595 479.823093 
L 888.8913 478.327713 
L 890.876712 481.38683 
L 891.869418 479.19302 
L 892.862124 480.307074 
L 893.85483 480.880011 
L 894.847536 479.234435 
L 895.840242 481.212819 
L 896.832948 479.039466 
L 897.825654 481.790527 
L 898.81836 478.303139 
L 899.811066 479.425947 
L 900.803772 478.850061 
L 901.796477 482.622088 
L 902.789183 480.47839 
L 903.781889 480.753854 
L 904.774595 480.712303 
L 905.767301 481.202145 
L 906.760007 478.943008 
L 907.752713 481.761018 
L 908.745419 481.148224 
L 909.738125 480.86293 
L 910.730831 481.67806 
L 911.723537 481.146807 
L 912.716243 482.029198 
L 913.708949 479.978514 
L 914.701655 480.664701 
L 915.69436 483.15965 
L 916.687066 481.565549 
L 917.679772 481.505505 
L 918.672478 481.614518 
L 919.665184 480.428123 
L 920.65789 482.151932 
L 921.650596 483.186698 
L 922.643302 482.858133 
L 923.636008 480.351768 
L 924.628714 480.679529 
L 925.62142 480.603744 
L 926.614126 481.587145 
L 927.606832 481.618199 
L 928.599537 483.837791 
L 929.592243 483.275513 
L 931.577655 481.031162 
L 932.570361 482.120099 
L 933.563067 482.614202 
L 934.555773 481.677419 
L 935.548479 483.719379 
L 936.541185 482.140897 
L 937.533891 482.694324 
L 938.526597 483.551309 
L 939.519303 482.940239 
L 940.512009 482.762234 
L 941.504714 483.115097 
L 942.49742 483.690588 
L 943.490126 482.209264 
L 944.482832 483.173139 
L 945.475538 485.157439 
L 946.468244 483.209837 
L 947.46095 481.520664 
L 948.453656 481.019579 
L 950.439068 483.987577 
L 951.431774 484.025383 
L 952.42448 483.942161 
L 953.417186 482.921298 
L 954.409891 484.538796 
L 955.402597 484.968607 
L 956.395303 482.825563 
L 957.388009 482.813438 
L 958.380715 483.560471 
L 960.366127 484.202075 
L 961.358833 482.564468 
L 962.351539 484.177545 
L 963.344245 483.659859 
L 964.336951 484.379934 
L 965.329657 482.575274 
L 966.322363 483.916046 
L 967.315068 483.393448 
L 968.307774 485.014015 
L 969.30048 484.312152 
L 970.293186 484.333874 
L 971.285892 484.524481 
L 972.278598 485.140052 
L 973.271304 484.667305 
L 975.256716 482.515255 
L 976.249422 483.848019 
L 977.242128 484.17785 
L 978.234834 483.695086 
L 979.22754 482.976442 
L 980.220246 485.103344 
L 981.212951 484.780119 
L 982.205657 486.025759 
L 983.198363 483.095358 
L 984.191069 483.572091 
L 985.183775 486.172183 
L 986.176481 485.435903 
L 987.169187 484.423018 
L 988.161893 485.117155 
L 989.154599 486.617519 
L 990.147305 486.571868 
L 991.140011 485.661412 
L 992.132717 485.166197 
L 993.125423 484.393692 
L 994.118128 485.787029 
L 995.110834 483.853534 
L 996.10354 484.922239 
L 997.096246 485.232525 
L 998.088952 485.813086 
L 999.081658 485.335402 
L 1000.074364 485.421602 
L 1001.06707 486.72051 
L 1002.059776 484.720078 
L 1003.052482 485.41243 
L 1004.045188 484.300025 
L 1005.037894 485.438339 
L 1006.0306 485.393958 
L 1007.023305 484.190791 
L 1008.016011 485.504902 
L 1009.008717 485.620916 
L 1010.001423 486.789627 
L 1010.994129 487.655928 
L 1011.986835 485.948555 
L 1012.979541 485.967597 
L 1013.972247 487.355178 
L 1014.964953 486.582096 
L 1015.957659 486.39713 
L 1017.943071 485.559287 
L 1018.935777 485.010766 
L 1019.928482 486.021379 
L 1020.921188 485.95655 
L 1021.913894 487.508373 
L 1022.9066 485.785596 
L 1023.899306 485.180204 
L 1024.892012 485.058774 
L 1025.884718 486.548111 
L 1026.877424 484.610423 
L 1027.87013 485.020923 
L 1028.862836 488.272493 
L 1029.855542 486.611766 
L 1030.848248 487.649859 
L 1031.840954 485.745316 
L 1032.833659 488.656673 
L 1033.826365 485.940823 
L 1034.819071 486.231554 
L 1036.804483 489.308016 
L 1037.797189 484.635754 
L 1038.789895 485.829385 
L 1039.782601 487.433479 
L 1040.775307 486.353855 
L 1041.768013 487.502916 
L 1042.760719 486.951596 
L 1043.753425 485.869122 
L 1045.738837 488.093168 
L 1046.731542 487.613591 
L 1047.724248 488.104007 
L 1048.716954 489.255999 
L 1049.70966 487.785922 
L 1050.702366 486.578375 
L 1051.695072 488.029491 
L 1052.687778 487.12364 
L 1053.680484 485.288054 
L 1054.67319 487.239355 
L 1055.665896 487.160266 
L 1056.658602 486.256361 
L 1057.651308 486.573344 
L 1058.644014 487.446753 
L 1059.636719 486.93645 
L 1060.629425 486.68729 
L 1061.622131 486.807795 
L 1062.614837 487.783369 
L 1063.607543 488.099242 
L 1064.600249 488.925538 
L 1065.592955 487.481991 
L 1066.585661 486.586846 
L 1067.578367 489.395507 
L 1068.571073 487.958583 
L 1070.556485 488.134048 
L 1071.549191 489.330332 
L 1072.541896 487.146455 
L 1073.534602 486.541732 
L 1074.527308 487.710284 
L 1075.520014 488.451321 
L 1076.51272 487.797691 
L 1077.505426 488.570345 
L 1078.498132 487.960577 
L 1079.490838 486.906153 
L 1080.483544 487.991615 
L 1081.47625 486.895745 
L 1082.468956 487.969507 
L 1083.461662 486.939191 
L 1084.454368 488.960887 
L 1085.447073 487.784675 
L 1086.439779 488.52876 
L 1087.432485 486.700671 
L 1088.425191 488.825287 
L 1089.417897 489.662515 
L 1090.410603 487.383431 
L 1091.403309 488.686399 
L 1092.396015 488.530569 
L 1093.388721 489.027822 
L 1094.381427 487.168251 
L 1095.374133 486.388191 
L 1097.359545 489.504114 
L 1098.35225 487.671012 
L 1099.344956 486.750014 
L 1100.337662 486.833749 
L 1101.330368 487.891723 
L 1102.323074 489.273803 
L 1103.31578 488.056194 
L 1104.308486 489.180539 
L 1105.301192 490.518732 
L 1106.293898 487.962755 
L 1107.286604 488.023558 
L 1108.27931 489.062244 
L 1109.272016 489.452134 
L 1110.264722 488.847653 
L 1111.257428 488.047227 
L 1112.250133 488.484565 
L 1113.242839 491.032173 
L 1114.235545 487.760767 
L 1115.228251 487.361676 
L 1116.220957 488.65452 
L 1117.213663 489.399135 
L 1119.199075 487.33836 
L 1120.191781 487.560238 
L 1121.184487 488.123623 
L 1122.177193 489.502068 
L 1123.169899 488.606687 
L 1124.162605 489.507371 
L 1125.15531 489.498425 
L 1126.148016 488.244763 
L 1127.140722 487.992239 
L 1128.133428 488.445057 
L 1129.126134 489.596729 
L 1130.11884 490.193996 
L 1131.111546 489.537889 
L 1132.104252 489.732491 
L 1133.096958 487.894421 
L 1134.089664 490.288524 
L 1135.08237 489.190767 
L 1136.075076 488.684208 
L 1137.067782 490.195902 
L 1138.060487 490.398692 
L 1139.053193 487.840734 
L 1140.045899 489.940582 
L 1141.038605 490.115038 
L 1142.031311 488.907518 
L 1143.024017 488.923553 
L 1144.016723 490.597896 
L 1145.009429 489.97783 
L 1146.002135 489.179229 
L 1146.994841 488.84215 
L 1147.987547 490.634151 
L 1148.980253 489.427225 
L 1149.972959 488.796297 
L 1150.965664 490.448318 
L 1152.951076 489.201123 
L 1153.943782 489.520338 
L 1154.936488 490.007431 
L 1156.9219 489.939299 
L 1157.914606 489.79655 
L 1158.907312 490.375227 
L 1159.900018 489.934515 
L 1160.892724 492.176828 
L 1161.88543 490.303546 
L 1162.878136 491.611908 
L 1163.870841 490.11695 
L 1164.863547 489.221536 
L 1165.856253 492.48 
L 1166.848959 491.528828 
L 1167.841665 487.225838 
L 1168.834371 489.446279 
L 1169.827077 489.72559 
L 1170.819783 489.350987 
L 1171.812489 489.619911 
L 1172.805195 490.817533 
L 1173.797901 490.497227 
L 1174.790607 489.779132 
L 1175.783313 489.762871 
L 1176.776019 490.984205 
L 1177.768724 490.598839 
L 1178.76143 490.893407 
L 1179.754136 488.78061 
L 1180.746842 489.587643 
L 1181.739548 489.403078 
L 1182.732254 490.936331 
L 1184.717666 489.36184 
L 1185.710372 491.251508 
L 1186.703078 491.236855 
L 1187.695784 488.692742 
L 1188.68849 491.68593 
L 1189.681196 489.700205 
L 1190.673901 488.843907 
L 1192.659313 491.118115 
L 1193.652019 488.49768 
L 1194.644725 489.584216 
L 1195.637431 488.734663 
L 1196.630137 490.956473 
L 1197.622843 489.074354 
L 1198.615549 489.253602 
L 1199.608255 489.74404 
L 1201.593667 489.398544 
L 1202.586373 490.839152 
L 1204.571784 490.275758 
L 1205.56449 490.738403 
L 1206.557196 490.834065 
L 1207.549902 487.443683 
L 1208.542608 491.808052 
L 1209.535314 489.83146 
L 1210.52802 489.287539 
L 1211.520726 490.584714 
L 1212.513432 489.289956 
L 1213.506138 491.038991 
L 1214.498844 491.35987 
L 1215.49155 488.417078 
L 1216.484255 488.333926 
L 1217.476961 488.913841 
L 1218.469667 490.914771 
L 1219.462373 490.055682 
L 1220.455079 489.52736 
L 1221.447785 491.006865 
L 1222.440491 488.969224 
L 1223.433197 490.012869 
L 1224.425903 491.635268 
L 1225.418609 490.336819 
L 1226.411315 490.145742 
L 1227.404021 490.94685 
L 1228.396727 490.527161 
L 1229.389432 489.258438 
L 1231.374844 491.157352 
L 1232.36755 489.25958 
L 1233.360256 490.72686 
L 1234.352962 491.210208 
L 1235.345668 490.292213 
L 1236.338374 491.566772 
L 1237.33108 489.447473 
L 1238.323786 489.898643 
L 1239.316492 490.067605 
L 1240.309198 488.092259 
L 1241.301904 490.215198 
L 1242.29461 490.825952 
L 1243.287315 489.716893 
L 1244.280021 489.661165 
L 1245.272727 490.459481 
L 1245.272727 490.459481 
" clip-path="url(#pa1cf42b419)" style="fill: none; stroke: #1f77b4; stroke-width: 1.5; stroke-linecap: square"/>
   </g>
   <g id="patch_3">
    <path d="M 180 512.64 
L 180 69.12 
" style="fill: none; stroke: #000000; stroke-width: 0.8; stroke-linejoin: miter; stroke-linecap: square"/>
   </g>
   <g id="patch_4">
    <path d="M 1296 512.64 
L 1296 69.12 
" style="fill: none; stroke: #000000; stroke-width: 0.8; stroke-linejoin: miter; stroke-linecap: square"/>
   </g>
   <g id="patch_5">
    <path d="M 180 512.64 
L 1296 512.64 
" style="fill: none; stroke: #000000; stroke-width: 0.8; stroke-linejoin: miter; stroke-linecap: square"/>
   </g>
   <g id="patch_6">
    <path d="M 180 69.12 
L 1296 69.12 
" style="fill: none; stroke: #000000; stroke-width: 0.8; stroke-linejoin: miter; stroke-linecap: square"/>
   </g>
   <g id="text_14">
    <!-- source19-receiver13 -->
    <g transform="translate(532.175 60.80125) scale(0.4 -0.4)">
     <defs>
      <path id="DejaVuSans-73" d="M 2834 3397 
L 2834 2853 
Q 2591 2978 2328 3040 
Q 2066 3103 1784 3103 
Q 1356 3103 1142 2972 
Q 928 2841 928 2578 
Q 928 2378 1081 2264 
Q 1234 2150 1697 2047 
L 1894 2003 
Q 2506 1872 2764 1633 
Q 3022 1394 3022 966 
Q 3022 478 2636 193 
Q 2250 -91 1575 -91 
Q 1294 -91 989 -36 
Q 684 19 347 128 
L 347 722 
Q 666 556 975 473 
Q 1284 391 1588 391 
Q 1994 391 2212 530 
Q 2431 669 2431 922 
Q 2431 1156 2273 1281 
Q 2116 1406 1581 1522 
L 1381 1569 
Q 847 1681 609 1914 
Q 372 2147 372 2553 
Q 372 3047 722 3315 
Q 1072 3584 1716 3584 
Q 2034 3584 2315 3537 
Q 2597 3491 2834 3397 
z
" transform="scale(0.015625)"/>
      <path id="DejaVuSans-6f" d="M 1959 3097 
Q 1497 3097 1228 2736 
Q 959 2375 959 1747 
Q 959 1119 1226 758 
Q 1494 397 1959 397 
Q 2419 397 2687 759 
Q 2956 1122 2956 1747 
Q 2956 2369 2687 2733 
Q 2419 3097 1959 3097 
z
M 1959 3584 
Q 2709 3584 3137 3096 
Q 3566 2609 3566 1747 
Q 3566 888 3137 398 
Q 2709 -91 1959 -91 
Q 1206 -91 779 398 
Q 353 888 353 1747 
Q 353 2609 779 3096 
Q 1206 3584 1959 3584 
z
" transform="scale(0.015625)"/>
      <path id="DejaVuSans-75" d="M 544 1381 
L 544 3500 
L 1119 3500 
L 1119 1403 
Q 1119 906 1312 657 
Q 1506 409 1894 409 
Q 2359 409 2629 706 
Q 2900 1003 2900 1516 
L 2900 3500 
L 3475 3500 
L 3475 0 
L 2900 0 
L 2900 538 
Q 2691 219 2414 64 
Q 2138 -91 1772 -91 
Q 1169 -91 856 284 
Q 544 659 544 1381 
z
M 1991 3584 
L 1991 3584 
z
" transform="scale(0.015625)"/>
      <path id="DejaVuSans-72" d="M 2631 2963 
Q 2534 3019 2420 3045 
Q 2306 3072 2169 3072 
Q 1681 3072 1420 2755 
Q 1159 2438 1159 1844 
L 1159 0 
L 581 0 
L 581 3500 
L 1159 3500 
L 1159 2956 
Q 1341 3275 1631 3429 
Q 1922 3584 2338 3584 
Q 2397 3584 2469 3576 
Q 2541 3569 2628 3553 
L 2631 2963 
z
" transform="scale(0.015625)"/>
      <path id="DejaVuSans-63" d="M 3122 3366 
L 3122 2828 
Q 2878 2963 2633 3030 
Q 2388 3097 2138 3097 
Q 1578 3097 1268 2742 
Q 959 2388 959 1747 
Q 959 1106 1268 751 
Q 1578 397 2138 397 
Q 2388 397 2633 464 
Q 2878 531 3122 666 
L 3122 134 
Q 2881 22 2623 -34 
Q 2366 -91 2075 -91 
Q 1284 -91 818 406 
Q 353 903 353 1747 
Q 353 2603 823 3093 
Q 1294 3584 2113 3584 
Q 2378 3584 2631 3529 
Q 2884 3475 3122 3366 
z
" transform="scale(0.015625)"/>
      <path id="DejaVuSans-65" d="M 3597 1894 
L 3597 1613 
L 953 1613 
Q 991 1019 1311 708 
Q 1631 397 2203 397 
Q 2534 397 2845 478 
Q 3156 559 3463 722 
L 3463 178 
Q 3153 47 2828 -22 
Q 2503 -91 2169 -91 
Q 1331 -91 842 396 
Q 353 884 353 1716 
Q 353 2575 817 3079 
Q 1281 3584 2069 3584 
Q 2775 3584 3186 3129 
Q 3597 2675 3597 1894 
z
M 3022 2063 
Q 3016 2534 2758 2815 
Q 2500 3097 2075 3097 
Q 1594 3097 1305 2825 
Q 1016 2553 972 2059 
L 3022 2063 
z
" transform="scale(0.015625)"/>
      <path id="DejaVuSans-39" d="M 703 97 
L 703 672 
Q 941 559 1184 500 
Q 1428 441 1663 441 
Q 2288 441 2617 861 
Q 2947 1281 2994 2138 
Q 2813 1869 2534 1725 
Q 2256 1581 1919 1581 
Q 1219 1581 811 2004 
Q 403 2428 403 3163 
Q 403 3881 828 4315 
Q 1253 4750 1959 4750 
Q 2769 4750 3195 4129 
Q 3622 3509 3622 2328 
Q 3622 1225 3098 567 
Q 2575 -91 1691 -91 
Q 1453 -91 1209 -44 
Q 966 3 703 97 
z
M 1959 2075 
Q 2384 2075 2632 2365 
Q 2881 2656 2881 3163 
Q 2881 3666 2632 3958 
Q 2384 4250 1959 4250 
Q 1534 4250 1286 3958 
Q 1038 3666 1038 3163 
Q 1038 2656 1286 2365 
Q 1534 2075 1959 2075 
z
" transform="scale(0.015625)"/>
      <path id="DejaVuSans-2d" d="M 313 2009 
L 1997 2009 
L 1997 1497 
L 313 1497 
L 313 2009 
z
" transform="scale(0.015625)"/>
      <path id="DejaVuSans-69" d="M 603 3500 
L 1178 3500 
L 1178 0 
L 603 0 
L 603 3500 
z
M 603 4863 
L 1178 4863 
L 1178 4134 
L 603 4134 
L 603 4863 
z
" transform="scale(0.015625)"/>
      <path id="DejaVuSans-76" d="M 191 3500 
L 800 3500 
L 1894 563 
L 2988 3500 
L 3597 3500 
L 2284 0 
L 1503 0 
L 191 3500 
z
" transform="scale(0.015625)"/>
     </defs>
     <use xlink:href="#DejaVuSans-73"/>
     <use xlink:href="#DejaVuSans-6f" x="52.099609"/>
     <use xlink:href="#DejaVuSans-75" x="113.28125"/>
     <use xlink:href="#DejaVuSans-72" x="176.660156"/>
     <use xlink:href="#DejaVuSans-63" x="215.523438"/>
     <use xlink:href="#DejaVuSans-65" x="270.503906"/>
     <use xlink:href="#DejaVuSans-31" x="332.027344"/>
     <use xlink:href="#DejaVuSans-39" x="395.650391"/>
     <use xlink:href="#DejaVuSans-2d" x="459.273438"/>
     <use xlink:href="#DejaVuSans-72" x="495.357422"/>
     <use xlink:href="#DejaVuSans-65" x="534.220703"/>
     <use xlink:href="#DejaVuSans-63" x="595.744141"/>
     <use xlink:href="#DejaVuSans-65" x="650.724609"/>
     <use xlink:href="#DejaVuSans-69" x="712.248047"/>
     <use xlink:href="#DejaVuSans-76" x="740.03125"/>
     <use xlink:href="#DejaVuSans-65" x="799.210938"/>
     <use xlink:href="#DejaVuSans-72" x="860.734375"/>
     <use xlink:href="#DejaVuSans-31" x="901.847656"/>
     <use xlink:href="#DejaVuSans-33" x="965.470703"/>
    </g>
   </g>
  </g>
 </g>
 <defs>
  <clipPath id="pa1cf42b419">
   <rect x="180" y="69.12" width="1116" height="443.52"/>
  </clipPath>
 </defs>
</svg>
