<?xml version="1.0" encoding="utf-8" standalone="no"?>
<!DOCTYPE svg PUBLIC "-//W3C//DTD SVG 1.1//EN"
  "http://www.w3.org/Graphics/SVG/1.1/DTD/svg11.dtd">
<svg xmlns:xlink="http://www.w3.org/1999/xlink" width="1440pt" height="576pt" viewBox="0 0 1440 576" xmlns="http://www.w3.org/2000/svg" version="1.1">
 <metadata>
  <rdf:RDF xmlns:dc="http://purl.org/dc/elements/1.1/" xmlns:cc="http://creativecommons.org/ns#" xmlns:rdf="http://www.w3.org/1999/02/22-rdf-syntax-ns#">
   <cc:Work>
    <dc:type rdf:resource="http://purl.org/dc/dcmitype/StillImage"/>
    <dc:date>2024-05-22T04:50:15.943959</dc:date>
    <dc:format>image/svg+xml</dc:format>
    <dc:creator>
     <cc:Agent>
      <dc:title>Matplotlib v3.8.3, https://matplotlib.org/</dc:title>
     </cc:Agent>
    </dc:creator>
   </cc:Work>
  </rdf:RDF>
 </metadata>
 <defs>
  <style type="text/css">*{stroke-linejoin: round; stroke-linecap: butt}</style>
 </defs>
 <g id="figure_1">
  <g id="patch_1">
   <path d="M 0 576 
L 1440 576 
L 1440 0 
L 0 0 
z
" style="fill: #ffffff"/>
  </g>
  <g id="axes_1">
   <g id="patch_2">
    <path d="M 180 512.64 
L 1296 512.64 
L 1296 69.12 
L 180 69.12 
z
" style="fill: #ffffff"/>
   </g>
   <g id="matplotlib.axis_1">
    <g id="xtick_1">
     <g id="line2d_1">
      <defs>
       <path id="m0ea384931b" d="M 0 0 
L 0 3.5 
" style="stroke: #000000; stroke-width: 0.8"/>
      </defs>
      <g>
       <use xlink:href="#m0ea384931b" x="229.734567" y="512.64" style="stroke: #000000; stroke-width: 0.8"/>
      </g>
     </g>
     <g id="text_1">
      <!-- 0 -->
      <g transform="translate(226.553317 527.238438) scale(0.1 -0.1)">
       <defs>
        <path id="DejaVuSans-30" d="M 2034 4250 
Q 1547 4250 1301 3770 
Q 1056 3291 1056 2328 
Q 1056 1369 1301 889 
Q 1547 409 2034 409 
Q 2525 409 2770 889 
Q 3016 1369 3016 2328 
Q 3016 3291 2770 3770 
Q 2525 4250 2034 4250 
z
M 2034 4750 
Q 2819 4750 3233 4129 
Q 3647 3509 3647 2328 
Q 3647 1150 3233 529 
Q 2819 -91 2034 -91 
Q 1250 -91 836 529 
Q 422 1150 422 2328 
Q 422 3509 836 4129 
Q 1250 4750 2034 4750 
z
" transform="scale(0.015625)"/>
       </defs>
       <use xlink:href="#DejaVuSans-30"/>
      </g>
     </g>
    </g>
    <g id="xtick_2">
     <g id="line2d_2">
      <g>
       <use xlink:href="#m0ea384931b" x="433.04074" y="512.64" style="stroke: #000000; stroke-width: 0.8"/>
      </g>
     </g>
     <g id="text_2">
      <!-- 500 -->
      <g transform="translate(423.49699 527.238438) scale(0.1 -0.1)">
       <defs>
        <path id="DejaVuSans-35" d="M 691 4666 
L 3169 4666 
L 3169 4134 
L 1269 4134 
L 1269 2991 
Q 1406 3038 1543 3061 
Q 1681 3084 1819 3084 
Q 2600 3084 3056 2656 
Q 3513 2228 3513 1497 
Q 3513 744 3044 326 
Q 2575 -91 1722 -91 
Q 1428 -91 1123 -41 
Q 819 9 494 109 
L 494 744 
Q 775 591 1075 516 
Q 1375 441 1709 441 
Q 2250 441 2565 725 
Q 2881 1009 2881 1497 
Q 2881 1984 2565 2268 
Q 2250 2553 1709 2553 
Q 1456 2553 1204 2497 
Q 953 2441 691 2322 
L 691 4666 
z
" transform="scale(0.015625)"/>
       </defs>
       <use xlink:href="#DejaVuSans-35"/>
       <use xlink:href="#DejaVuSans-30" x="63.623047"/>
       <use xlink:href="#DejaVuSans-30" x="127.246094"/>
      </g>
     </g>
    </g>
    <g id="xtick_3">
     <g id="line2d_3">
      <g>
       <use xlink:href="#m0ea384931b" x="636.346913" y="512.64" style="stroke: #000000; stroke-width: 0.8"/>
      </g>
     </g>
     <g id="text_3">
      <!-- 1000 -->
      <g transform="translate(623.621913 527.238438) scale(0.1 -0.1)">
       <defs>
        <path id="DejaVuSans-31" d="M 794 531 
L 1825 531 
L 1825 4091 
L 703 3866 
L 703 4441 
L 1819 4666 
L 2450 4666 
L 2450 531 
L 3481 531 
L 3481 0 
L 794 0 
L 794 531 
z
" transform="scale(0.015625)"/>
       </defs>
       <use xlink:href="#DejaVuSans-31"/>
       <use xlink:href="#DejaVuSans-30" x="63.623047"/>
       <use xlink:href="#DejaVuSans-30" x="127.246094"/>
       <use xlink:href="#DejaVuSans-30" x="190.869141"/>
      </g>
     </g>
    </g>
    <g id="xtick_4">
     <g id="line2d_4">
      <g>
       <use xlink:href="#m0ea384931b" x="839.653087" y="512.64" style="stroke: #000000; stroke-width: 0.8"/>
      </g>
     </g>
     <g id="text_4">
      <!-- 1500 -->
      <g transform="translate(826.928087 527.238438) scale(0.1 -0.1)">
       <use xlink:href="#DejaVuSans-31"/>
       <use xlink:href="#DejaVuSans-35" x="63.623047"/>
       <use xlink:href="#DejaVuSans-30" x="127.246094"/>
       <use xlink:href="#DejaVuSans-30" x="190.869141"/>
      </g>
     </g>
    </g>
    <g id="xtick_5">
     <g id="line2d_5">
      <g>
       <use xlink:href="#m0ea384931b" x="1042.95926" y="512.64" style="stroke: #000000; stroke-width: 0.8"/>
      </g>
     </g>
     <g id="text_5">
      <!-- 2000 -->
      <g transform="translate(1030.23426 527.238438) scale(0.1 -0.1)">
       <defs>
        <path id="DejaVuSans-32" d="M 1228 531 
L 3431 531 
L 3431 0 
L 469 0 
L 469 531 
Q 828 903 1448 1529 
Q 2069 2156 2228 2338 
Q 2531 2678 2651 2914 
Q 2772 3150 2772 3378 
Q 2772 3750 2511 3984 
Q 2250 4219 1831 4219 
Q 1534 4219 1204 4116 
Q 875 4013 500 3803 
L 500 4441 
Q 881 4594 1212 4672 
Q 1544 4750 1819 4750 
Q 2544 4750 2975 4387 
Q 3406 4025 3406 3419 
Q 3406 3131 3298 2873 
Q 3191 2616 2906 2266 
Q 2828 2175 2409 1742 
Q 1991 1309 1228 531 
z
" transform="scale(0.015625)"/>
       </defs>
       <use xlink:href="#DejaVuSans-32"/>
       <use xlink:href="#DejaVuSans-30" x="63.623047"/>
       <use xlink:href="#DejaVuSans-30" x="127.246094"/>
       <use xlink:href="#DejaVuSans-30" x="190.869141"/>
      </g>
     </g>
    </g>
    <g id="xtick_6">
     <g id="line2d_6">
      <g>
       <use xlink:href="#m0ea384931b" x="1246.265433" y="512.64" style="stroke: #000000; stroke-width: 0.8"/>
      </g>
     </g>
     <g id="text_6">
      <!-- 2500 -->
      <g transform="translate(1233.540433 527.238438) scale(0.1 -0.1)">
       <use xlink:href="#DejaVuSans-32"/>
       <use xlink:href="#DejaVuSans-35" x="63.623047"/>
       <use xlink:href="#DejaVuSans-30" x="127.246094"/>
       <use xlink:href="#DejaVuSans-30" x="190.869141"/>
      </g>
     </g>
    </g>
   </g>
   <g id="matplotlib.axis_2">
    <g id="ytick_1">
     <g id="line2d_7">
      <defs>
       <path id="m48c892e0cb" d="M 0 0 
L -3.5 0 
" style="stroke: #000000; stroke-width: 0.8"/>
      </defs>
      <g>
       <use xlink:href="#m48c892e0cb" x="180" y="483.206208" style="stroke: #000000; stroke-width: 0.8"/>
      </g>
     </g>
     <g id="text_7">
      <!-- −4 -->
      <g transform="translate(158.257812 487.005426) scale(0.1 -0.1)">
       <defs>
        <path id="DejaVuSans-2212" d="M 678 2272 
L 4684 2272 
L 4684 1741 
L 678 1741 
L 678 2272 
z
" transform="scale(0.015625)"/>
        <path id="DejaVuSans-34" d="M 2419 4116 
L 825 1625 
L 2419 1625 
L 2419 4116 
z
M 2253 4666 
L 3047 4666 
L 3047 1625 
L 3713 1625 
L 3713 1100 
L 3047 1100 
L 3047 0 
L 2419 0 
L 2419 1100 
L 313 1100 
L 313 1709 
L 2253 4666 
z
" transform="scale(0.015625)"/>
       </defs>
       <use xlink:href="#DejaVuSans-2212"/>
       <use xlink:href="#DejaVuSans-34" x="83.789062"/>
      </g>
     </g>
    </g>
    <g id="ytick_2">
     <g id="line2d_8">
      <g>
       <use xlink:href="#m48c892e0cb" x="180" y="400.440125" style="stroke: #000000; stroke-width: 0.8"/>
      </g>
     </g>
     <g id="text_8">
      <!-- −2 -->
      <g transform="translate(158.257812 404.239344) scale(0.1 -0.1)">
       <use xlink:href="#DejaVuSans-2212"/>
       <use xlink:href="#DejaVuSans-32" x="83.789062"/>
      </g>
     </g>
    </g>
    <g id="ytick_3">
     <g id="line2d_9">
      <g>
       <use xlink:href="#m48c892e0cb" x="180" y="317.674043" style="stroke: #000000; stroke-width: 0.8"/>
      </g>
     </g>
     <g id="text_9">
      <!-- 0 -->
      <g transform="translate(166.6375 321.473262) scale(0.1 -0.1)">
       <use xlink:href="#DejaVuSans-30"/>
      </g>
     </g>
    </g>
    <g id="ytick_4">
     <g id="line2d_10">
      <g>
       <use xlink:href="#m48c892e0cb" x="180" y="234.90796" style="stroke: #000000; stroke-width: 0.8"/>
      </g>
     </g>
     <g id="text_10">
      <!-- 2 -->
      <g transform="translate(166.6375 238.707179) scale(0.1 -0.1)">
       <use xlink:href="#DejaVuSans-32"/>
      </g>
     </g>
    </g>
    <g id="ytick_5">
     <g id="line2d_11">
      <g>
       <use xlink:href="#m48c892e0cb" x="180" y="152.141878" style="stroke: #000000; stroke-width: 0.8"/>
      </g>
     </g>
     <g id="text_11">
      <!-- 4 -->
      <g transform="translate(166.6375 155.941097) scale(0.1 -0.1)">
       <use xlink:href="#DejaVuSans-34"/>
      </g>
     </g>
    </g>
    <g id="ytick_6">
     <g id="line2d_12">
      <g>
       <use xlink:href="#m48c892e0cb" x="180" y="69.375796" style="stroke: #000000; stroke-width: 0.8"/>
      </g>
     </g>
     <g id="text_12">
      <!-- 6 -->
      <g transform="translate(166.6375 73.175014) scale(0.1 -0.1)">
       <defs>
        <path id="DejaVuSans-36" d="M 2113 2584 
Q 1688 2584 1439 2293 
Q 1191 2003 1191 1497 
Q 1191 994 1439 701 
Q 1688 409 2113 409 
Q 2538 409 2786 701 
Q 3034 994 3034 1497 
Q 3034 2003 2786 2293 
Q 2538 2584 2113 2584 
z
M 3366 4563 
L 3366 3988 
Q 3128 4100 2886 4159 
Q 2644 4219 2406 4219 
Q 1781 4219 1451 3797 
Q 1122 3375 1075 2522 
Q 1259 2794 1537 2939 
Q 1816 3084 2150 3084 
Q 2853 3084 3261 2657 
Q 3669 2231 3669 1497 
Q 3669 778 3244 343 
Q 2819 -91 2113 -91 
Q 1303 -91 875 529 
Q 447 1150 447 2328 
Q 447 3434 972 4092 
Q 1497 4750 2381 4750 
Q 2619 4750 2861 4703 
Q 3103 4656 3366 4563 
z
" transform="scale(0.015625)"/>
       </defs>
       <use xlink:href="#DejaVuSans-36"/>
      </g>
     </g>
    </g>
   </g>
   <g id="line2d_13">
    <path d="M 230.727273 314.019529 
L 231.719979 315.373848 
L 232.712685 363.650344 
L 233.70539 313.929374 
L 234.698096 320.893327 
L 235.690802 343.141076 
L 236.683508 311.162091 
L 237.676214 330.543593 
L 238.66892 326.626261 
L 239.661626 305.939035 
L 240.654332 338.823513 
L 241.647038 319.05298 
L 242.639744 306.922623 
L 243.63245 341.161108 
L 244.625156 315.080925 
L 245.617862 321.596303 
L 246.610568 362.268588 
L 247.603273 313.202976 
L 248.595979 293.046532 
L 250.581391 237.40314 
L 251.574097 219.133918 
L 252.566803 215.637559 
L 253.559509 205.19639 
L 254.552215 183.325081 
L 255.544921 177.020296 
L 256.537627 188.034988 
L 257.530333 186.892432 
L 258.523039 176.504358 
L 259.515745 190.402362 
L 260.50845 283.820564 
L 261.501156 212.730794 
L 262.493862 206.840982 
L 264.479274 253.032528 
L 265.47198 195.339886 
L 266.464686 194.740169 
L 267.457392 211.192829 
L 268.450098 173.049157 
L 269.442804 166.948333 
L 270.43551 171.872003 
L 271.428216 174.053988 
L 272.420922 217.972855 
L 273.413627 197.76181 
L 274.406333 202.559457 
L 275.399039 175.577126 
L 276.391745 140.906214 
L 277.384451 145.94745 
L 278.377157 131.754312 
L 279.369863 104.479892 
L 280.362569 102.584697 
L 281.355275 140.783954 
L 282.347981 124.738108 
L 283.340687 90.59657 
L 284.333393 89.28 
L 285.326099 108.700705 
L 286.318804 111.158008 
L 287.31151 104.948609 
L 288.304216 128.795127 
L 289.296922 158.588709 
L 290.289628 136.462894 
L 291.282334 168.243369 
L 292.27504 167.424551 
L 293.267746 156.893432 
L 294.260452 169.722655 
L 295.253158 154.442504 
L 297.23857 174.292292 
L 298.231276 175.317415 
L 299.223981 198.420405 
L 300.216687 184.078853 
L 301.209393 191.489835 
L 302.202099 182.327106 
L 303.194805 179.04515 
L 304.187511 197.072099 
L 305.180217 190.208731 
L 306.172923 205.224304 
L 307.165629 229.829467 
L 308.158335 212.064197 
L 309.151041 244.563229 
L 310.143747 222.558969 
L 311.136453 233.960528 
L 312.129159 254.18054 
L 313.121864 227.544562 
L 314.11457 260.089381 
L 315.107276 272.883495 
L 316.099982 255.030207 
L 317.092688 282.408736 
L 318.085394 274.359083 
L 319.0781 275.038765 
L 320.070806 282.487823 
L 321.063512 260.661339 
L 322.056218 281.120147 
L 323.048924 284.021103 
L 324.04163 253.944764 
L 325.034336 287.805797 
L 326.027041 282.209119 
L 327.019747 269.824319 
L 328.012453 288.533465 
L 329.005159 277.185623 
L 329.997865 309.107864 
L 330.990571 271.741012 
L 331.983277 275.411531 
L 332.975983 328.62482 
L 333.968689 276.295893 
L 334.961395 274.203483 
L 335.954101 300.722403 
L 336.946807 293.996624 
L 337.939513 267.118757 
L 338.932218 289.074968 
L 339.924924 297.788054 
L 340.91763 269.75588 
L 341.910336 303.065599 
L 342.903042 288.731564 
L 343.895748 290.266403 
L 344.888454 301.126955 
L 345.88116 273.800335 
L 346.873866 309.971924 
L 347.866572 287.334465 
L 348.859278 268.845939 
L 349.851984 323.758366 
L 350.84469 283.826032 
L 351.837395 276.900096 
L 352.830101 322.155302 
L 353.822807 284.87188 
L 354.815513 331.332884 
L 355.808219 276.659158 
L 356.800925 263.56351 
L 357.793631 294.560042 
L 358.786337 254.33987 
L 359.779043 248.806476 
L 360.771749 276.037277 
L 361.764455 257.95572 
L 362.757161 252.953056 
L 363.749867 288.145058 
L 364.742572 283.330723 
L 365.735278 266.990162 
L 366.727984 275.506735 
L 367.72069 317.635677 
L 368.713396 275.577736 
L 369.706102 252.160115 
L 370.698808 259.073038 
L 371.691514 259.152279 
L 372.68422 238.351093 
L 373.676926 241.144604 
L 374.669632 251.993863 
L 375.662338 239.553197 
L 376.655044 246.40438 
L 377.64775 281.250846 
L 378.640455 279.14868 
L 379.633161 274.034451 
L 380.625867 253.900603 
L 381.618573 249.046461 
L 382.611279 228.915064 
L 383.603985 211.894174 
L 384.596691 208.933886 
L 385.589397 202.303821 
L 386.582103 193.222631 
L 387.574809 192.51816 
L 388.567515 190.73386 
L 389.560221 185.95975 
L 391.545632 189.345456 
L 392.538338 187.641332 
L 393.531044 191.942622 
L 394.52375 197.650034 
L 395.516456 197.963586 
L 396.509162 205.719989 
L 397.501868 216.33626 
L 398.494574 218.192806 
L 399.48728 230.783549 
L 400.479986 251.35495 
L 401.472692 251.252921 
L 402.465398 276.97066 
L 403.458104 308.124796 
L 404.450809 289.300005 
L 405.443515 393.563222 
L 406.436221 284.909194 
L 407.428927 295.317907 
L 408.421633 332.109349 
L 409.414339 287.63367 
L 410.407045 312.804797 
L 411.399751 333.218237 
L 412.392457 309.768976 
L 413.385163 324.745908 
L 414.377869 309.432757 
L 415.370575 330.709829 
L 417.355986 306.499306 
L 418.348692 333.016848 
L 419.341398 322.92245 
L 420.334104 322.468747 
L 421.32681 313.779928 
L 422.319516 314.41015 
L 423.312222 352.04648 
L 424.304928 301.921975 
L 425.297634 309.069417 
L 426.29034 354.877855 
L 427.283046 300.14452 
L 429.268458 333.517912 
L 430.261163 301.643591 
L 431.253869 329.436696 
L 432.246575 324.41042 
L 433.239281 307.058029 
L 434.231987 341.08536 
L 435.224693 320.850118 
L 436.217399 321.565279 
L 437.210105 324.949379 
L 438.202811 320.103468 
L 439.195517 345.347719 
L 440.188223 312.988886 
L 441.180929 310.756013 
L 442.173635 376.140704 
L 443.166341 311.945687 
L 444.159046 308.806671 
L 445.151752 349.768399 
L 446.144458 325.753932 
L 447.137164 317.958645 
L 448.12987 323.278813 
L 449.122576 340.91339 
L 450.115282 330.878328 
L 451.107988 310.386622 
L 452.100694 327.098684 
L 453.0934 358.917482 
L 454.086106 314.202186 
L 455.078812 310.470155 
L 456.071518 350.956437 
L 457.064223 329.615111 
L 458.056929 297.195752 
L 459.049635 307.418911 
L 460.042341 335.288524 
L 461.035047 289.535281 
L 462.027753 293.670053 
L 463.020459 333.009337 
L 464.013165 292.241502 
L 465.005871 295.14054 
L 465.998577 368.876896 
L 466.991283 312.266451 
L 467.983989 313.742756 
L 468.976695 337.168352 
L 469.9694 343.56929 
L 470.962106 334.644451 
L 471.954812 300.434256 
L 472.947518 315.72666 
L 473.940224 327.92269 
L 474.93293 290.691146 
L 475.925636 304.012479 
L 476.918342 331.601944 
L 477.911048 296.13089 
L 478.903754 307.626687 
L 479.89646 398.706198 
L 480.889166 315.886133 
L 481.881872 316.187527 
L 482.874577 331.519941 
L 483.867283 404.052144 
L 484.859989 307.224987 
L 485.852695 296.328238 
L 486.845401 323.59458 
L 487.838107 292.720794 
L 488.830813 277.736006 
L 489.823519 290.766192 
L 490.816225 279.18414 
L 491.808931 263.508336 
L 492.801637 270.640124 
L 493.794343 266.305859 
L 494.787049 252.564781 
L 495.779754 255.5476 
L 496.77246 255.79209 
L 497.765166 244.074949 
L 498.757872 245.832296 
L 499.750578 248.665835 
L 500.743284 240.309541 
L 501.73599 242.402658 
L 502.728696 248.95447 
L 503.721402 243.176946 
L 504.714108 247.216272 
L 505.706814 257.457675 
L 506.69952 253.594337 
L 507.692226 261.202238 
L 508.684932 282.193551 
L 509.677637 274.252654 
L 510.670343 290.527477 
L 511.663049 315.846723 
L 512.655755 292.435656 
L 513.648461 325.393784 
L 514.641167 301.52224 
L 515.633873 291.142832 
L 516.626579 326.722473 
L 517.619285 298.280653 
L 518.611991 299.990705 
L 519.604697 377.920669 
L 520.597403 320.064921 
L 521.590109 340.440203 
L 522.582814 325.496088 
L 523.57552 322.413023 
L 524.568226 348.498613 
L 525.560932 298.032076 
L 526.553638 301.997427 
L 527.546344 330.037992 
L 528.53905 297.203292 
L 529.531756 305.25774 
L 530.524462 358.427682 
L 531.517168 316.973084 
L 532.509874 320.260723 
L 533.50258 342.794023 
L 534.495286 382.35727 
L 535.487991 326.191334 
L 536.480697 310.283816 
L 537.473403 348.806006 
L 538.466109 322.48017 
L 539.458815 306.176247 
L 540.451521 344.756306 
L 541.444227 336.537185 
L 542.436933 326.300279 
L 543.429639 354.359642 
L 544.422345 337.946645 
L 545.415051 364.532507 
L 546.407757 330.739137 
L 547.400463 318.547235 
L 548.393168 387.541397 
L 549.385874 324.291914 
L 550.37858 319.065424 
L 551.371286 391.7822 
L 552.363992 334.184855 
L 553.356698 334.79041 
L 554.349404 344.485783 
L 555.34211 336.624711 
L 556.334816 387.739972 
L 557.327522 315.651837 
L 558.320228 320.250163 
L 559.312934 364.580181 
L 560.30564 307.338288 
L 561.298345 317.389032 
L 562.291051 359.854613 
L 563.283757 310.306558 
L 564.276463 327.442223 
L 565.269169 364.821065 
L 566.261875 319.452852 
L 567.254581 344.013974 
L 568.247287 347.299543 
L 569.239993 333.082678 
L 570.232699 358.539294 
L 571.225405 335.066312 
L 572.218111 350.581762 
L 573.210817 344.923348 
L 574.203523 319.462142 
L 575.196228 354.64266 
L 576.188934 331.856948 
L 577.18164 313.765176 
L 578.174346 344.007546 
L 579.167052 333.390747 
L 580.159758 309.465861 
L 582.14517 348.377648 
L 583.137876 312.229869 
L 584.130582 322.959398 
L 585.123288 383.460791 
L 586.115994 319.255944 
L 587.1087 316.003766 
L 588.101405 363.414842 
L 589.094111 348.453814 
L 590.086817 320.653774 
L 591.079523 330.100345 
L 592.072229 379.850933 
L 593.064935 325.553327 
L 594.057641 301.097597 
L 595.050347 314.602145 
L 596.043053 309.132654 
L 597.035759 284.496848 
L 598.028465 288.847423 
L 599.021171 290.90444 
L 600.013877 274.767926 
L 601.006582 276.643882 
L 601.999288 282.279466 
L 602.991994 269.242209 
L 603.9847 271.496299 
L 604.977406 278.773534 
L 605.970112 267.870951 
L 606.962818 269.569746 
L 607.955524 279.086795 
L 608.94823 268.94409 
L 609.940936 270.046999 
L 610.933642 280.917991 
L 611.926348 272.183044 
L 612.919054 272.192379 
L 613.911759 285.535816 
L 614.904465 277.652032 
L 615.897171 276.472971 
L 616.889877 293.77486 
L 617.882583 287.48057 
L 618.875289 284.31956 
L 619.867995 306.953156 
L 620.860701 302.790565 
L 621.853407 297.934297 
L 622.846113 332.840407 
L 624.831525 317.447017 
L 625.824231 401.653327 
L 626.816936 332.250448 
L 627.809642 339.038499 
L 628.802348 369.370191 
L 629.795054 322.165197 
L 630.78776 342.262843 
L 631.780466 355.278923 
L 632.773172 320.558518 
L 633.765878 340.98564 
L 634.758584 370.521179 
L 635.75129 330.211573 
L 636.743996 345.551321 
L 637.736702 371.110661 
L 638.729408 353.125366 
L 640.714819 340.436922 
L 641.707525 371.971494 
L 643.692937 330.765019 
L 644.685643 358.963773 
L 645.678349 360.863362 
L 646.671055 331.007968 
L 647.663761 350.38521 
L 648.656467 373.260763 
L 649.649173 339.547289 
L 651.634585 364.193178 
L 652.627291 349.696012 
L 653.619996 356.582112 
L 654.612702 352.272444 
L 655.605408 350.711669 
L 656.598114 366.273494 
L 657.59082 348.005343 
L 658.583526 347.457625 
L 659.576232 368.497441 
L 660.568938 352.312508 
L 661.561644 349.803367 
L 662.55435 356.304095 
L 663.547056 357.599227 
L 664.539762 364.62747 
L 665.532468 342.630302 
L 666.525173 347.872286 
L 667.517879 396.943246 
L 668.510585 335.08362 
L 669.503291 336.008112 
L 670.495997 492.48 
L 671.488703 334.878605 
L 672.481409 332.86784 
L 673.474115 413.63384 
L 674.466821 343.482574 
L 675.459527 339.233117 
L 676.452233 373.62239 
L 677.444939 357.237483 
L 678.437645 354.816191 
L 679.43035 350.903423 
L 680.423056 356.504644 
L 681.415762 372.281322 
L 682.408468 341.836531 
L 683.401174 353.102089 
L 684.39388 374.160084 
L 685.386586 341.809204 
L 686.379292 362.136288 
L 687.371998 357.092646 
L 688.364704 344.185277 
L 689.35741 396.145852 
L 690.350116 337.405056 
L 691.342822 338.377474 
L 692.335527 399.958841 
L 693.328233 325.343849 
L 694.320939 330.595243 
L 695.313645 371.907386 
L 696.306351 320.583258 
L 697.299057 329.625759 
L 698.291763 364.418039 
L 699.284469 320.248876 
L 700.277175 335.492715 
L 701.269881 354.764612 
L 702.262587 319.116482 
L 703.255293 341.679992 
L 704.247999 337.728724 
L 705.240705 313.309224 
L 706.23341 336.126762 
L 707.226116 325.158752 
L 708.218822 306.334774 
L 709.211528 324.725793 
L 710.204234 318.800142 
L 711.19694 301.294262 
L 712.189646 316.009973 
L 713.182352 317.584112 
L 714.175058 299.128432 
L 715.167764 310.072178 
L 716.16047 319.383575 
L 717.153176 299.349303 
L 718.145882 306.306602 
L 719.138587 322.760108 
L 720.131293 301.679135 
L 721.123999 304.909637 
L 722.116705 327.403218 
L 723.109411 306.548777 
L 724.102117 306.570193 
L 725.094823 335.539525 
L 726.087529 315.177322 
L 727.080235 312.172217 
L 728.072941 350.193622 
L 729.065647 329.040905 
L 730.058353 322.648594 
L 731.051059 374.53446 
L 732.043764 347.591677 
L 733.03647 338.831242 
L 734.029176 380.300578 
L 735.021882 356.698161 
L 736.014588 361.36747 
L 737.007294 360.796014 
L 738 349.370876 
L 738.992706 385.637495 
L 739.985412 351.519856 
L 740.978118 344.721664 
L 741.970824 396.766689 
L 742.96353 349.935839 
L 743.956236 346.764312 
L 744.948941 390.42638 
L 745.941647 351.182408 
L 746.934353 354.534497 
L 747.927059 375.923801 
L 748.919765 351.517309 
L 749.912471 365.686183 
L 750.905177 363.616125 
L 751.897883 350.958252 
L 752.890589 377.078774 
L 753.883295 356.576907 
L 754.876001 351.821475 
L 755.868707 382.496345 
L 756.861413 352.848797 
L 757.854118 354.910998 
L 758.846824 380.063557 
L 759.83953 351.645777 
L 760.832236 360.524472 
L 761.824942 372.191424 
L 762.817648 352.212743 
L 763.810354 368.47454 
L 764.80306 363.403297 
L 765.795766 353.672799 
L 766.788472 377.10133 
L 767.781178 355.615827 
L 768.773884 355.165331 
L 769.76659 384.811638 
L 770.759295 349.61911 
L 771.752001 355.841286 
L 772.744707 387.783953 
L 773.737413 346.665232 
L 774.730119 356.941552 
L 775.722825 385.286858 
L 776.715531 346.212114 
L 777.708237 360.336032 
L 778.700943 378.817755 
L 779.693649 346.994821 
L 780.686355 366.113485 
L 781.679061 371.05232 
L 782.671767 347.602899 
L 783.664473 372.727211 
L 784.657178 365.778061 
L 785.649884 347.657779 
L 786.64259 375.421419 
L 787.635296 365.457764 
L 788.628002 347.902581 
L 789.620708 372.176452 
L 790.613414 370.270311 
L 791.60612 350.304951 
L 793.591532 378.901776 
L 794.584238 354.488991 
L 795.576944 355.748409 
L 796.56965 384.746045 
L 797.562355 359.181794 
L 798.555061 348.626641 
L 799.547767 381.895554 
L 801.533179 343.346458 
L 802.525885 375.246391 
L 803.518591 364.792168 
L 804.511297 339.563402 
L 805.504003 368.284585 
L 806.496709 365.905221 
L 807.489415 336.890989 
L 808.482121 362.934072 
L 809.474827 368.162043 
L 810.467532 335.728437 
L 811.460238 359.137424 
L 812.452944 371.064523 
L 813.44565 335.405895 
L 814.438356 356.64891 
L 815.431062 373.428644 
L 816.423768 335.165301 
L 818.40918 374.426856 
L 819.401886 333.917621 
L 820.394592 351.752806 
L 821.387298 374.027556 
L 822.380004 331.740549 
L 823.372709 345.781794 
L 824.365415 375.679869 
L 825.358121 329.970385 
L 826.350827 339.119919 
L 827.343533 382.339942 
L 828.336239 330.672532 
L 829.328945 334.330315 
L 830.321651 391.589574 
L 831.314357 335.566927 
L 832.307063 332.404196 
L 833.299769 386.498271 
L 834.292475 346.855878 
L 835.285181 334.15045 
L 836.277886 369.62086 
L 837.270592 367.805236 
L 838.263298 339.984981 
L 839.256004 357.840538 
L 840.24871 400.86278 
L 841.241416 349.882053 
L 842.234122 353.643534 
L 843.226828 392.180006 
L 844.219534 362.140172 
L 845.21224 356.220141 
L 846.204946 374.821776 
L 847.197652 367.865463 
L 848.190358 363.123209 
L 849.183064 372.486066 
L 850.175769 361.009924 
L 851.168475 365.547914 
L 852.161181 381.950161 
L 853.153887 354.558325 
L 854.146593 357.809619 
L 855.139299 403.083848 
L 856.132005 353.667522 
L 857.124711 349.910643 
L 858.117417 399.735382 
L 859.110123 360.788211 
L 860.102829 347.64814 
L 861.095535 376.182804 
L 862.088241 376.785338 
L 863.080946 352.502722 
L 864.073652 362.19027 
L 865.066358 387.194357 
L 866.059064 364.852679 
L 867.05177 355.445279 
L 869.037182 384.077148 
L 870.029888 355.175696 
L 871.022594 358.743779 
L 872.0153 393.357306 
L 873.008006 360.2923 
L 874.000712 357.323163 
L 874.993418 381.681046 
L 875.986123 366.001012 
L 876.978829 364.583908 
L 877.971535 372.033156 
L 878.964241 361.922212 
L 879.956947 378.335335 
L 880.949653 367.005287 
L 881.942359 352.600165 
L 882.935065 384.144697 
L 883.927771 367.376856 
L 884.920477 347.554877 
L 885.913183 377.635115 
L 886.905889 371.588452 
L 887.898595 348.604313 
L 888.8913 376.177335 
L 889.884006 372.7205 
L 890.876712 354.541388 
L 891.869418 381.897891 
L 892.862124 364.265888 
L 893.85483 359.470747 
L 894.847536 393.579245 
L 895.840242 355.36848 
L 896.832948 358.475896 
L 897.825654 405.053515 
L 898.81836 352.134082 
L 899.811066 357.183518 
L 900.803772 403.803829 
L 901.796477 355.506525 
L 902.789183 361.19337 
L 903.781889 385.439269 
L 904.774595 362.215326 
L 905.767301 372.374979 
L 906.760007 367.592801 
L 907.752713 363.422008 
L 908.745419 388.833088 
L 909.738125 357.207522 
L 910.730831 359.753976 
L 911.723537 402.970929 
L 912.716243 352.749199 
L 913.708949 359.609814 
L 914.701655 399.420423 
L 915.69436 350.317234 
L 916.687066 365.252586 
L 917.679772 382.579985 
L 918.672478 344.635614 
L 919.665184 368.577316 
L 920.65789 368.664806 
L 921.650596 336.283522 
L 922.643302 358.882327 
L 923.636008 360.521482 
L 924.628714 329.44813 
L 925.62142 346.119354 
L 926.614126 358.446858 
L 927.606832 325.942371 
L 928.599537 337.045707 
L 929.592243 361.101108 
L 930.584949 325.911924 
L 931.577655 331.879682 
L 932.570361 365.649717 
L 933.563067 328.448964 
L 934.555773 329.730007 
L 935.548479 370.509624 
L 936.541185 332.907411 
L 937.533891 329.825821 
L 938.526597 373.77432 
L 939.519303 338.548184 
L 940.512009 331.456701 
L 941.504714 376.380638 
L 942.49742 345.463707 
L 943.490126 334.389578 
L 944.482832 378.988438 
L 945.475538 354.164845 
L 946.468244 339.150307 
L 947.46095 379.714565 
L 948.453656 366.462125 
L 949.446362 346.541438 
L 950.439068 377.156595 
L 951.431774 378.3842 
L 952.42448 356.7203 
L 953.417186 373.488507 
L 954.409891 376.216761 
L 955.402597 367.298327 
L 956.395303 372.98752 
L 957.388009 369.075865 
L 958.380715 370.819663 
L 959.373421 377.010408 
L 960.366127 368.119474 
L 961.358833 364.961029 
L 962.351539 379.058603 
L 963.344245 375.943139 
L 964.336951 357.609563 
L 965.329657 368.949824 
L 966.322363 395.76103 
L 967.315068 353.725041 
L 968.307774 357.651308 
L 969.30048 425.576219 
L 970.293186 356.025844 
L 971.285892 352.734975 
L 972.278598 403.665695 
L 973.271304 365.82645 
L 974.26401 354.811233 
L 975.256716 379.615423 
L 976.249422 380.498087 
L 977.242128 363.88748 
L 978.234834 364.991778 
L 979.22754 379.594893 
L 980.220246 379.319795 
L 981.212951 358.425728 
L 982.205657 367.480784 
L 983.198363 394.909481 
L 984.191069 358.665515 
L 985.183775 363.493233 
L 986.176481 393.142969 
L 987.169187 363.882556 
L 988.161893 368.186648 
L 989.154599 378.033155 
L 990.147305 367.305298 
L 991.140011 380.92018 
L 992.132717 366.738651 
L 993.125423 363.076349 
L 994.118128 397.553813 
L 995.110834 361.68869 
L 996.10354 358.75199 
L 997.096246 403.198482 
L 998.088952 362.902682 
L 999.081658 359.729797 
L 1000.074364 391.76435 
L 1001.06707 367.565666 
L 1002.059776 367.323343 
L 1003.052482 377.517948 
L 1004.045188 368.992267 
L 1005.037894 380.60339 
L 1006.0306 366.306535 
L 1007.023305 366.012436 
L 1008.016011 395.166065 
L 1009.008717 358.827141 
L 1010.001423 363.478236 
L 1010.994129 403.487827 
L 1011.986835 353.313779 
L 1012.979541 363.410484 
L 1013.972247 398.679611 
L 1014.964953 348.164589 
L 1015.957659 363.036264 
L 1016.950365 389.340876 
L 1017.943071 343.939535 
L 1018.935777 361.321033 
L 1019.928482 384.531733 
L 1020.921188 342.265057 
L 1021.913894 360.581893 
L 1022.9066 384.854412 
L 1023.899306 343.646187 
L 1025.884718 383.410517 
L 1026.877424 346.092803 
L 1027.87013 372.378499 
L 1028.862836 374.084712 
L 1029.855542 345.509538 
L 1030.848248 380.125462 
L 1031.840954 363.864737 
L 1032.833659 340.269315 
L 1033.826365 372.618263 
L 1034.819071 357.236633 
L 1035.811777 333.749957 
L 1036.804483 357.527888 
L 1037.797189 355.041081 
L 1038.789895 329.034805 
L 1039.782601 345.958476 
L 1040.775307 356.663093 
L 1041.768013 327.408038 
L 1042.760719 339.38913 
L 1043.753425 363.357886 
L 1044.746131 329.68666 
L 1045.738837 337.865765 
L 1046.731542 377.959665 
L 1047.724248 336.25151 
L 1048.716954 341.170231 
L 1049.70966 411.699487 
L 1050.702366 347.075208 
L 1051.695072 348.896957 
L 1052.687778 441.830075 
L 1053.680484 360.055788 
L 1054.67319 360.316294 
L 1055.665896 391.831485 
L 1056.658602 368.621964 
L 1057.651308 372.980414 
L 1058.644014 375.199507 
L 1059.636719 369.444364 
L 1060.629425 382.256127 
L 1061.622131 369.565162 
L 1062.614837 369.273198 
L 1063.607543 383.412202 
L 1064.600249 368.714561 
L 1065.592955 372.636135 
L 1066.585661 378.266558 
L 1067.578367 369.576959 
L 1068.571073 378.233397 
L 1069.563779 371.599032 
L 1070.556485 370.71358 
L 1071.549191 383.88058 
L 1072.541896 366.378623 
L 1073.534602 371.533158 
L 1074.527308 386.626725 
L 1075.520014 362.976399 
L 1076.51272 373.065488 
L 1077.505426 385.845112 
L 1078.498132 361.694489 
L 1079.490838 375.655233 
L 1080.483544 382.828619 
L 1081.47625 362.531309 
L 1082.468956 377.833737 
L 1083.461662 378.84064 
L 1084.454368 366.219472 
L 1085.447073 380.438597 
L 1086.439779 372.500751 
L 1087.432485 371.995597 
L 1088.425191 380.955733 
L 1089.417897 365.895821 
L 1090.410603 377.835136 
L 1091.403309 380.548941 
L 1092.396015 360.639974 
L 1093.388721 380.136614 
L 1094.381427 380.540866 
L 1095.374133 358.322688 
L 1096.366839 380.038492 
L 1097.359545 380.989813 
L 1098.35225 359.626876 
L 1099.344956 379.004998 
L 1100.337662 380.848959 
L 1101.330368 363.914228 
L 1102.323074 378.688378 
L 1103.31578 377.384592 
L 1104.308486 368.927393 
L 1105.301192 379.255007 
L 1106.293898 373.778795 
L 1107.286604 370.745005 
L 1108.27931 380.112755 
L 1109.272016 374.2377 
L 1110.264722 369.141992 
L 1111.257428 377.454597 
L 1112.250133 381.897219 
L 1113.242839 364.626436 
L 1114.235545 368.442311 
L 1115.228251 402.821373 
L 1116.220957 360.188196 
L 1117.213663 357.266426 
L 1118.206369 436.073248 
L 1119.199075 357.014162 
L 1120.191781 348.323476 
L 1121.184487 409.40155 
L 1122.177193 356.162597 
L 1123.169899 343.042237 
L 1124.162605 388.566375 
L 1125.15531 358.367519 
L 1126.148016 341.463402 
L 1127.140722 379.489199 
L 1128.133428 363.61169 
L 1129.126134 342.919098 
L 1130.11884 377.419042 
L 1131.111546 369.598398 
L 1132.104252 345.669364 
L 1133.096958 378.720555 
L 1134.089664 373.045798 
L 1135.08237 348.453559 
L 1136.075076 380.906966 
L 1137.067782 374.338792 
L 1138.060487 349.733701 
L 1139.053193 382.201034 
L 1140.045899 373.937 
L 1141.038605 349.716026 
L 1142.031311 381.790337 
L 1143.024017 373.896397 
L 1144.016723 349.162156 
L 1145.009429 380.303162 
L 1146.002135 374.921873 
L 1146.994841 348.38797 
L 1147.987547 377.856275 
L 1148.980253 376.455601 
L 1149.972959 348.086776 
L 1150.965664 374.792957 
L 1151.95837 380.624664 
L 1152.951076 349.254816 
L 1153.943782 371.55438 
L 1154.936488 389.923377 
L 1155.929194 352.915117 
L 1156.9219 368.702158 
L 1157.914606 400.578117 
L 1158.907312 360.621787 
L 1159.900018 366.169031 
L 1160.892724 392.867386 
L 1161.88543 374.836512 
L 1162.878136 364.373513 
L 1163.870841 373.355478 
L 1164.863547 395.7216 
L 1165.856253 363.912576 
L 1166.848959 361.17388 
L 1167.841665 407.414525 
L 1168.834371 366.438144 
L 1169.827077 356.529969 
L 1170.819783 396.399099 
L 1171.812489 371.868805 
L 1172.805195 358.406204 
L 1173.797901 388.562098 
L 1174.790607 375.191346 
L 1175.783313 365.333131 
L 1176.776019 385.539215 
L 1177.768724 370.367398 
L 1178.76143 373.147787 
L 1179.754136 385.610587 
L 1180.746842 363.468606 
L 1181.739548 374.915719 
L 1182.732254 389.187458 
L 1183.72496 361.218469 
L 1184.717666 371.900474 
L 1185.710372 392.431915 
L 1186.703078 365.099808 
L 1187.695784 370.485043 
L 1188.68849 384.776521 
L 1189.681196 374.641989 
L 1190.673901 372.006313 
L 1191.666607 372.433946 
L 1192.659313 383.324291 
L 1193.652019 375.8759 
L 1194.644725 363.751896 
L 1195.637431 382.981354 
L 1196.630137 380.870564 
L 1197.622843 361.162319 
L 1198.615549 379.768157 
L 1199.608255 382.474796 
L 1200.600961 362.85623 
L 1201.593667 381.197009 
L 1202.586373 377.798301 
L 1203.579078 365.581809 
L 1204.571784 389.034738 
L 1205.56449 370.218771 
L 1206.557196 363.76236 
L 1207.549902 400.32448 
L 1208.542608 366.378227 
L 1209.535314 359.966829 
L 1210.52802 404.844814 
L 1211.520726 367.320273 
L 1212.513432 357.489532 
L 1213.506138 397.386155 
L 1214.498844 372.358536 
L 1215.49155 357.979122 
L 1216.484255 387.257804 
L 1217.476961 378.297273 
L 1218.469667 360.592188 
L 1219.462373 382.273054 
L 1220.455079 381.352262 
L 1221.447785 362.293296 
L 1222.440491 379.643425 
L 1223.433197 383.724328 
L 1224.425903 361.049658 
L 1226.411315 390.636141 
L 1227.404021 358.091699 
L 1228.396727 368.225508 
L 1229.389432 409.851024 
L 1230.382138 356.187964 
L 1231.374844 358.799302 
L 1232.36755 450.40616 
L 1233.360256 357.088604 
L 1234.352962 352.032947 
L 1235.345668 417.098592 
L 1236.338374 361.783528 
L 1237.33108 349.154141 
L 1238.323786 392.55192 
L 1239.316492 369.635892 
L 1240.309198 349.790917 
L 1241.301904 382.343556 
L 1242.29461 377.378951 
L 1243.287315 352.231961 
L 1244.280021 380.171243 
L 1245.272727 380.42399 
L 1245.272727 380.42399 
" clip-path="url(#p3e6146adc2)" style="fill: none; stroke: #1f77b4; stroke-width: 1.5; stroke-linecap: square"/>
   </g>
   <g id="patch_3">
    <path d="M 180 512.64 
L 180 69.12 
" style="fill: none; stroke: #000000; stroke-width: 0.8; stroke-linejoin: miter; stroke-linecap: square"/>
   </g>
   <g id="patch_4">
    <path d="M 1296 512.64 
L 1296 69.12 
" style="fill: none; stroke: #000000; stroke-width: 0.8; stroke-linejoin: miter; stroke-linecap: square"/>
   </g>
   <g id="patch_5">
    <path d="M 180 512.64 
L 1296 512.64 
" style="fill: none; stroke: #000000; stroke-width: 0.8; stroke-linejoin: miter; stroke-linecap: square"/>
   </g>
   <g id="patch_6">
    <path d="M 180 69.12 
L 1296 69.12 
" style="fill: none; stroke: #000000; stroke-width: 0.8; stroke-linejoin: miter; stroke-linecap: square"/>
   </g>
   <g id="text_13">
    <!-- source19-receiver11 -->
    <g transform="translate(532.175 60.80125) scale(0.4 -0.4)">
     <defs>
      <path id="DejaVuSans-73" d="M 2834 3397 
L 2834 2853 
Q 2591 2978 2328 3040 
Q 2066 3103 1784 3103 
Q 1356 3103 1142 2972 
Q 928 2841 928 2578 
Q 928 2378 1081 2264 
Q 1234 2150 1697 2047 
L 1894 2003 
Q 2506 1872 2764 1633 
Q 3022 1394 3022 966 
Q 3022 478 2636 193 
Q 2250 -91 1575 -91 
Q 1294 -91 989 -36 
Q 684 19 347 128 
L 347 722 
Q 666 556 975 473 
Q 1284 391 1588 391 
Q 1994 391 2212 530 
Q 2431 669 2431 922 
Q 2431 1156 2273 1281 
Q 2116 1406 1581 1522 
L 1381 1569 
Q 847 1681 609 1914 
Q 372 2147 372 2553 
Q 372 3047 722 3315 
Q 1072 3584 1716 3584 
Q 2034 3584 2315 3537 
Q 2597 3491 2834 3397 
z
" transform="scale(0.015625)"/>
      <path id="DejaVuSans-6f" d="M 1959 3097 
Q 1497 3097 1228 2736 
Q 959 2375 959 1747 
Q 959 1119 1226 758 
Q 1494 397 1959 397 
Q 2419 397 2687 759 
Q 2956 1122 2956 1747 
Q 2956 2369 2687 2733 
Q 2419 3097 1959 3097 
z
M 1959 3584 
Q 2709 3584 3137 3096 
Q 3566 2609 3566 1747 
Q 3566 888 3137 398 
Q 2709 -91 1959 -91 
Q 1206 -91 779 398 
Q 353 888 353 1747 
Q 353 2609 779 3096 
Q 1206 3584 1959 3584 
z
" transform="scale(0.015625)"/>
      <path id="DejaVuSans-75" d="M 544 1381 
L 544 3500 
L 1119 3500 
L 1119 1403 
Q 1119 906 1312 657 
Q 1506 409 1894 409 
Q 2359 409 2629 706 
Q 2900 1003 2900 1516 
L 2900 3500 
L 3475 3500 
L 3475 0 
L 2900 0 
L 2900 538 
Q 2691 219 2414 64 
Q 2138 -91 1772 -91 
Q 1169 -91 856 284 
Q 544 659 544 1381 
z
M 1991 3584 
L 1991 3584 
z
" transform="scale(0.015625)"/>
      <path id="DejaVuSans-72" d="M 2631 2963 
Q 2534 3019 2420 3045 
Q 2306 3072 2169 3072 
Q 1681 3072 1420 2755 
Q 1159 2438 1159 1844 
L 1159 0 
L 581 0 
L 581 3500 
L 1159 3500 
L 1159 2956 
Q 1341 3275 1631 3429 
Q 1922 3584 2338 3584 
Q 2397 3584 2469 3576 
Q 2541 3569 2628 3553 
L 2631 2963 
z
" transform="scale(0.015625)"/>
      <path id="DejaVuSans-63" d="M 3122 3366 
L 3122 2828 
Q 2878 2963 2633 3030 
Q 2388 3097 2138 3097 
Q 1578 3097 1268 2742 
Q 959 2388 959 1747 
Q 959 1106 1268 751 
Q 1578 397 2138 397 
Q 2388 397 2633 464 
Q 2878 531 3122 666 
L 3122 134 
Q 2881 22 2623 -34 
Q 2366 -91 2075 -91 
Q 1284 -91 818 406 
Q 353 903 353 1747 
Q 353 2603 823 3093 
Q 1294 3584 2113 3584 
Q 2378 3584 2631 3529 
Q 2884 3475 3122 3366 
z
" transform="scale(0.015625)"/>
      <path id="DejaVuSans-65" d="M 3597 1894 
L 3597 1613 
L 953 1613 
Q 991 1019 1311 708 
Q 1631 397 2203 397 
Q 2534 397 2845 478 
Q 3156 559 3463 722 
L 3463 178 
Q 3153 47 2828 -22 
Q 2503 -91 2169 -91 
Q 1331 -91 842 396 
Q 353 884 353 1716 
Q 353 2575 817 3079 
Q 1281 3584 2069 3584 
Q 2775 3584 3186 3129 
Q 3597 2675 3597 1894 
z
M 3022 2063 
Q 3016 2534 2758 2815 
Q 2500 3097 2075 3097 
Q 1594 3097 1305 2825 
Q 1016 2553 972 2059 
L 3022 2063 
z
" transform="scale(0.015625)"/>
      <path id="DejaVuSans-39" d="M 703 97 
L 703 672 
Q 941 559 1184 500 
Q 1428 441 1663 441 
Q 2288 441 2617 861 
Q 2947 1281 2994 2138 
Q 2813 1869 2534 1725 
Q 2256 1581 1919 1581 
Q 1219 1581 811 2004 
Q 403 2428 403 3163 
Q 403 3881 828 4315 
Q 1253 4750 1959 4750 
Q 2769 4750 3195 4129 
Q 3622 3509 3622 2328 
Q 3622 1225 3098 567 
Q 2575 -91 1691 -91 
Q 1453 -91 1209 -44 
Q 966 3 703 97 
z
M 1959 2075 
Q 2384 2075 2632 2365 
Q 2881 2656 2881 3163 
Q 2881 3666 2632 3958 
Q 2384 4250 1959 4250 
Q 1534 4250 1286 3958 
Q 1038 3666 1038 3163 
Q 1038 2656 1286 2365 
Q 1534 2075 1959 2075 
z
" transform="scale(0.015625)"/>
      <path id="DejaVuSans-2d" d="M 313 2009 
L 1997 2009 
L 1997 1497 
L 313 1497 
L 313 2009 
z
" transform="scale(0.015625)"/>
      <path id="DejaVuSans-69" d="M 603 3500 
L 1178 3500 
L 1178 0 
L 603 0 
L 603 3500 
z
M 603 4863 
L 1178 4863 
L 1178 4134 
L 603 4134 
L 603 4863 
z
" transform="scale(0.015625)"/>
      <path id="DejaVuSans-76" d="M 191 3500 
L 800 3500 
L 1894 563 
L 2988 3500 
L 3597 3500 
L 2284 0 
L 1503 0 
L 191 3500 
z
" transform="scale(0.015625)"/>
     </defs>
     <use xlink:href="#DejaVuSans-73"/>
     <use xlink:href="#DejaVuSans-6f" x="52.099609"/>
     <use xlink:href="#DejaVuSans-75" x="113.28125"/>
     <use xlink:href="#DejaVuSans-72" x="176.660156"/>
     <use xlink:href="#DejaVuSans-63" x="215.523438"/>
     <use xlink:href="#DejaVuSans-65" x="270.503906"/>
     <use xlink:href="#DejaVuSans-31" x="332.027344"/>
     <use xlink:href="#DejaVuSans-39" x="395.650391"/>
     <use xlink:href="#DejaVuSans-2d" x="459.273438"/>
     <use xlink:href="#DejaVuSans-72" x="495.357422"/>
     <use xlink:href="#DejaVuSans-65" x="534.220703"/>
     <use xlink:href="#DejaVuSans-63" x="595.744141"/>
     <use xlink:href="#DejaVuSans-65" x="650.724609"/>
     <use xlink:href="#DejaVuSans-69" x="712.248047"/>
     <use xlink:href="#DejaVuSans-76" x="740.03125"/>
     <use xlink:href="#DejaVuSans-65" x="799.210938"/>
     <use xlink:href="#DejaVuSans-72" x="860.734375"/>
     <use xlink:href="#DejaVuSans-31" x="901.847656"/>
     <use xlink:href="#DejaVuSans-31" x="965.470703"/>
    </g>
   </g>
  </g>
 </g>
 <defs>
  <clipPath id="p3e6146adc2">
   <rect x="180" y="69.12" width="1116" height="443.52"/>
  </clipPath>
 </defs>
</svg>
