<?xml version="1.0" encoding="utf-8" standalone="no"?>
<!DOCTYPE svg PUBLIC "-//W3C//DTD SVG 1.1//EN"
  "http://www.w3.org/Graphics/SVG/1.1/DTD/svg11.dtd">
<svg xmlns:xlink="http://www.w3.org/1999/xlink" width="1440pt" height="576pt" viewBox="0 0 1440 576" xmlns="http://www.w3.org/2000/svg" version="1.1">
 <metadata>
  <rdf:RDF xmlns:dc="http://purl.org/dc/elements/1.1/" xmlns:cc="http://creativecommons.org/ns#" xmlns:rdf="http://www.w3.org/1999/02/22-rdf-syntax-ns#">
   <cc:Work>
    <dc:type rdf:resource="http://purl.org/dc/dcmitype/StillImage"/>
    <dc:date>2024-05-22T04:50:15.127933</dc:date>
    <dc:format>image/svg+xml</dc:format>
    <dc:creator>
     <cc:Agent>
      <dc:title>Matplotlib v3.8.3, https://matplotlib.org/</dc:title>
     </cc:Agent>
    </dc:creator>
   </cc:Work>
  </rdf:RDF>
 </metadata>
 <defs>
  <style type="text/css">*{stroke-linejoin: round; stroke-linecap: butt}</style>
 </defs>
 <g id="figure_1">
  <g id="patch_1">
   <path d="M 0 576 
L 1440 576 
L 1440 0 
L 0 0 
z
" style="fill: #ffffff"/>
  </g>
  <g id="axes_1">
   <g id="patch_2">
    <path d="M 180 512.64 
L 1296 512.64 
L 1296 69.12 
L 180 69.12 
z
" style="fill: #ffffff"/>
   </g>
   <g id="matplotlib.axis_1">
    <g id="xtick_1">
     <g id="line2d_1">
      <defs>
       <path id="m15e31f5fa1" d="M 0 0 
L 0 3.5 
" style="stroke: #000000; stroke-width: 0.8"/>
      </defs>
      <g>
       <use xlink:href="#m15e31f5fa1" x="229.734567" y="512.64" style="stroke: #000000; stroke-width: 0.8"/>
      </g>
     </g>
     <g id="text_1">
      <!-- 0 -->
      <g transform="translate(226.553317 527.238438) scale(0.1 -0.1)">
       <defs>
        <path id="DejaVuSans-30" d="M 2034 4250 
Q 1547 4250 1301 3770 
Q 1056 3291 1056 2328 
Q 1056 1369 1301 889 
Q 1547 409 2034 409 
Q 2525 409 2770 889 
Q 3016 1369 3016 2328 
Q 3016 3291 2770 3770 
Q 2525 4250 2034 4250 
z
M 2034 4750 
Q 2819 4750 3233 4129 
Q 3647 3509 3647 2328 
Q 3647 1150 3233 529 
Q 2819 -91 2034 -91 
Q 1250 -91 836 529 
Q 422 1150 422 2328 
Q 422 3509 836 4129 
Q 1250 4750 2034 4750 
z
" transform="scale(0.015625)"/>
       </defs>
       <use xlink:href="#DejaVuSans-30"/>
      </g>
     </g>
    </g>
    <g id="xtick_2">
     <g id="line2d_2">
      <g>
       <use xlink:href="#m15e31f5fa1" x="433.04074" y="512.64" style="stroke: #000000; stroke-width: 0.8"/>
      </g>
     </g>
     <g id="text_2">
      <!-- 500 -->
      <g transform="translate(423.49699 527.238438) scale(0.1 -0.1)">
       <defs>
        <path id="DejaVuSans-35" d="M 691 4666 
L 3169 4666 
L 3169 4134 
L 1269 4134 
L 1269 2991 
Q 1406 3038 1543 3061 
Q 1681 3084 1819 3084 
Q 2600 3084 3056 2656 
Q 3513 2228 3513 1497 
Q 3513 744 3044 326 
Q 2575 -91 1722 -91 
Q 1428 -91 1123 -41 
Q 819 9 494 109 
L 494 744 
Q 775 591 1075 516 
Q 1375 441 1709 441 
Q 2250 441 2565 725 
Q 2881 1009 2881 1497 
Q 2881 1984 2565 2268 
Q 2250 2553 1709 2553 
Q 1456 2553 1204 2497 
Q 953 2441 691 2322 
L 691 4666 
z
" transform="scale(0.015625)"/>
       </defs>
       <use xlink:href="#DejaVuSans-35"/>
       <use xlink:href="#DejaVuSans-30" x="63.623047"/>
       <use xlink:href="#DejaVuSans-30" x="127.246094"/>
      </g>
     </g>
    </g>
    <g id="xtick_3">
     <g id="line2d_3">
      <g>
       <use xlink:href="#m15e31f5fa1" x="636.346913" y="512.64" style="stroke: #000000; stroke-width: 0.8"/>
      </g>
     </g>
     <g id="text_3">
      <!-- 1000 -->
      <g transform="translate(623.621913 527.238438) scale(0.1 -0.1)">
       <defs>
        <path id="DejaVuSans-31" d="M 794 531 
L 1825 531 
L 1825 4091 
L 703 3866 
L 703 4441 
L 1819 4666 
L 2450 4666 
L 2450 531 
L 3481 531 
L 3481 0 
L 794 0 
L 794 531 
z
" transform="scale(0.015625)"/>
       </defs>
       <use xlink:href="#DejaVuSans-31"/>
       <use xlink:href="#DejaVuSans-30" x="63.623047"/>
       <use xlink:href="#DejaVuSans-30" x="127.246094"/>
       <use xlink:href="#DejaVuSans-30" x="190.869141"/>
      </g>
     </g>
    </g>
    <g id="xtick_4">
     <g id="line2d_4">
      <g>
       <use xlink:href="#m15e31f5fa1" x="839.653087" y="512.64" style="stroke: #000000; stroke-width: 0.8"/>
      </g>
     </g>
     <g id="text_4">
      <!-- 1500 -->
      <g transform="translate(826.928087 527.238438) scale(0.1 -0.1)">
       <use xlink:href="#DejaVuSans-31"/>
       <use xlink:href="#DejaVuSans-35" x="63.623047"/>
       <use xlink:href="#DejaVuSans-30" x="127.246094"/>
       <use xlink:href="#DejaVuSans-30" x="190.869141"/>
      </g>
     </g>
    </g>
    <g id="xtick_5">
     <g id="line2d_5">
      <g>
       <use xlink:href="#m15e31f5fa1" x="1042.95926" y="512.64" style="stroke: #000000; stroke-width: 0.8"/>
      </g>
     </g>
     <g id="text_5">
      <!-- 2000 -->
      <g transform="translate(1030.23426 527.238438) scale(0.1 -0.1)">
       <defs>
        <path id="DejaVuSans-32" d="M 1228 531 
L 3431 531 
L 3431 0 
L 469 0 
L 469 531 
Q 828 903 1448 1529 
Q 2069 2156 2228 2338 
Q 2531 2678 2651 2914 
Q 2772 3150 2772 3378 
Q 2772 3750 2511 3984 
Q 2250 4219 1831 4219 
Q 1534 4219 1204 4116 
Q 875 4013 500 3803 
L 500 4441 
Q 881 4594 1212 4672 
Q 1544 4750 1819 4750 
Q 2544 4750 2975 4387 
Q 3406 4025 3406 3419 
Q 3406 3131 3298 2873 
Q 3191 2616 2906 2266 
Q 2828 2175 2409 1742 
Q 1991 1309 1228 531 
z
" transform="scale(0.015625)"/>
       </defs>
       <use xlink:href="#DejaVuSans-32"/>
       <use xlink:href="#DejaVuSans-30" x="63.623047"/>
       <use xlink:href="#DejaVuSans-30" x="127.246094"/>
       <use xlink:href="#DejaVuSans-30" x="190.869141"/>
      </g>
     </g>
    </g>
    <g id="xtick_6">
     <g id="line2d_6">
      <g>
       <use xlink:href="#m15e31f5fa1" x="1246.265433" y="512.64" style="stroke: #000000; stroke-width: 0.8"/>
      </g>
     </g>
     <g id="text_6">
      <!-- 2500 -->
      <g transform="translate(1233.540433 527.238438) scale(0.1 -0.1)">
       <use xlink:href="#DejaVuSans-32"/>
       <use xlink:href="#DejaVuSans-35" x="63.623047"/>
       <use xlink:href="#DejaVuSans-30" x="127.246094"/>
       <use xlink:href="#DejaVuSans-30" x="190.869141"/>
      </g>
     </g>
    </g>
   </g>
   <g id="matplotlib.axis_2">
    <g id="ytick_1">
     <g id="line2d_7">
      <defs>
       <path id="mf7afb1374e" d="M 0 0 
L -3.5 0 
" style="stroke: #000000; stroke-width: 0.8"/>
      </defs>
      <g>
       <use xlink:href="#mf7afb1374e" x="180" y="487.812404" style="stroke: #000000; stroke-width: 0.8"/>
      </g>
     </g>
     <g id="text_7">
      <!-- −2 -->
      <g transform="translate(158.257812 491.611622) scale(0.1 -0.1)">
       <defs>
        <path id="DejaVuSans-2212" d="M 678 2272 
L 4684 2272 
L 4684 1741 
L 678 1741 
L 678 2272 
z
" transform="scale(0.015625)"/>
       </defs>
       <use xlink:href="#DejaVuSans-2212"/>
       <use xlink:href="#DejaVuSans-32" x="83.789062"/>
      </g>
     </g>
    </g>
    <g id="ytick_2">
     <g id="line2d_8">
      <g>
       <use xlink:href="#mf7afb1374e" x="180" y="428.000755" style="stroke: #000000; stroke-width: 0.8"/>
      </g>
     </g>
     <g id="text_8">
      <!-- −1 -->
      <g transform="translate(158.257812 431.799974) scale(0.1 -0.1)">
       <use xlink:href="#DejaVuSans-2212"/>
       <use xlink:href="#DejaVuSans-31" x="83.789062"/>
      </g>
     </g>
    </g>
    <g id="ytick_3">
     <g id="line2d_9">
      <g>
       <use xlink:href="#mf7afb1374e" x="180" y="368.189107" style="stroke: #000000; stroke-width: 0.8"/>
      </g>
     </g>
     <g id="text_9">
      <!-- 0 -->
      <g transform="translate(166.6375 371.988325) scale(0.1 -0.1)">
       <use xlink:href="#DejaVuSans-30"/>
      </g>
     </g>
    </g>
    <g id="ytick_4">
     <g id="line2d_10">
      <g>
       <use xlink:href="#mf7afb1374e" x="180" y="308.377458" style="stroke: #000000; stroke-width: 0.8"/>
      </g>
     </g>
     <g id="text_10">
      <!-- 1 -->
      <g transform="translate(166.6375 312.176677) scale(0.1 -0.1)">
       <use xlink:href="#DejaVuSans-31"/>
      </g>
     </g>
    </g>
    <g id="ytick_5">
     <g id="line2d_11">
      <g>
       <use xlink:href="#mf7afb1374e" x="180" y="248.56581" style="stroke: #000000; stroke-width: 0.8"/>
      </g>
     </g>
     <g id="text_11">
      <!-- 2 -->
      <g transform="translate(166.6375 252.365029) scale(0.1 -0.1)">
       <use xlink:href="#DejaVuSans-32"/>
      </g>
     </g>
    </g>
    <g id="ytick_6">
     <g id="line2d_12">
      <g>
       <use xlink:href="#mf7afb1374e" x="180" y="188.754161" style="stroke: #000000; stroke-width: 0.8"/>
      </g>
     </g>
     <g id="text_12">
      <!-- 3 -->
      <g transform="translate(166.6375 192.55338) scale(0.1 -0.1)">
       <defs>
        <path id="DejaVuSans-33" d="M 2597 2516 
Q 3050 2419 3304 2112 
Q 3559 1806 3559 1356 
Q 3559 666 3084 287 
Q 2609 -91 1734 -91 
Q 1441 -91 1130 -33 
Q 819 25 488 141 
L 488 750 
Q 750 597 1062 519 
Q 1375 441 1716 441 
Q 2309 441 2620 675 
Q 2931 909 2931 1356 
Q 2931 1769 2642 2001 
Q 2353 2234 1838 2234 
L 1294 2234 
L 1294 2753 
L 1863 2753 
Q 2328 2753 2575 2939 
Q 2822 3125 2822 3475 
Q 2822 3834 2567 4026 
Q 2313 4219 1838 4219 
Q 1578 4219 1281 4162 
Q 984 4106 628 3988 
L 628 4550 
Q 988 4650 1302 4700 
Q 1616 4750 1894 4750 
Q 2613 4750 3031 4423 
Q 3450 4097 3450 3541 
Q 3450 3153 3228 2886 
Q 3006 2619 2597 2516 
z
" transform="scale(0.015625)"/>
       </defs>
       <use xlink:href="#DejaVuSans-33"/>
      </g>
     </g>
    </g>
    <g id="ytick_7">
     <g id="line2d_13">
      <g>
       <use xlink:href="#mf7afb1374e" x="180" y="128.942513" style="stroke: #000000; stroke-width: 0.8"/>
      </g>
     </g>
     <g id="text_13">
      <!-- 4 -->
      <g transform="translate(166.6375 132.741732) scale(0.1 -0.1)">
       <defs>
        <path id="DejaVuSans-34" d="M 2419 4116 
L 825 1625 
L 2419 1625 
L 2419 4116 
z
M 2253 4666 
L 3047 4666 
L 3047 1625 
L 3713 1625 
L 3713 1100 
L 3047 1100 
L 3047 0 
L 2419 0 
L 2419 1100 
L 313 1100 
L 313 1709 
L 2253 4666 
z
" transform="scale(0.015625)"/>
       </defs>
       <use xlink:href="#DejaVuSans-34"/>
      </g>
     </g>
    </g>
    <g id="ytick_8">
     <g id="line2d_14">
      <g>
       <use xlink:href="#mf7afb1374e" x="180" y="69.130864" style="stroke: #000000; stroke-width: 0.8"/>
      </g>
     </g>
     <g id="text_14">
      <!-- 5 -->
      <g transform="translate(166.6375 72.930083) scale(0.1 -0.1)">
       <use xlink:href="#DejaVuSans-35"/>
      </g>
     </g>
    </g>
   </g>
   <g id="line2d_15">
    <path d="M 230.727273 376.693567 
L 231.719979 376.428704 
L 232.712685 375.813192 
L 233.70539 374.936 
L 234.698096 373.790423 
L 235.690802 372.401971 
L 237.676214 368.99518 
L 238.66892 366.946718 
L 240.654332 362.002833 
L 241.647038 359.232357 
L 243.63245 352.442437 
L 244.625156 348.709139 
L 245.617862 343.811936 
L 247.603273 332.683921 
L 248.595979 324.383139 
L 249.588685 304.393725 
L 250.581391 279.508628 
L 251.574097 261.692802 
L 252.566803 258.950034 
L 253.559509 271.944555 
L 254.552215 293.054834 
L 255.544921 269.922024 
L 256.537627 256.076082 
L 257.530333 261.130266 
L 258.523039 279.370728 
L 260.50845 230.669135 
L 261.501156 225.880283 
L 262.493862 245.444936 
L 263.486568 306.752252 
L 264.479274 241.904536 
L 265.47198 210.795688 
L 266.464686 209.583952 
L 267.457392 238.846304 
L 268.450098 364.057088 
L 269.442804 252.846256 
L 270.43551 236.722579 
L 271.428216 256.678741 
L 272.420922 373.057617 
L 273.413627 260.901586 
L 274.406333 218.616922 
L 275.399039 201.738785 
L 276.391745 172.691867 
L 277.384451 134.355886 
L 278.377157 106.994901 
L 279.369863 92.468637 
L 280.362569 89.28 
L 281.355275 96.467715 
L 282.347981 110.455493 
L 283.340687 118.225035 
L 284.333393 112.222603 
L 285.326099 106.97658 
L 286.318804 108.468488 
L 287.31151 116.386336 
L 288.304216 134.0812 
L 289.296922 173.173247 
L 290.289628 204.904545 
L 291.282334 160.996366 
L 292.27504 152.498758 
L 293.267746 173.179117 
L 294.260452 228.731071 
L 295.253158 240.448941 
L 296.245864 240.357091 
L 297.23857 288.302307 
L 298.231276 246.720534 
L 299.223981 243.968503 
L 300.216687 292.223453 
L 301.209393 265.935219 
L 302.202099 252.128823 
L 303.194805 294.598479 
L 304.187511 320.828581 
L 305.180217 272.628097 
L 306.172923 290.033605 
L 307.165629 364.447199 
L 308.158335 316.867172 
L 309.151041 329.843758 
L 310.143747 367.863556 
L 311.136453 322.582423 
L 312.129159 326.71307 
L 313.121864 348.124868 
L 314.11457 344.370336 
L 315.107276 339.523364 
L 316.099982 347.13532 
L 317.092688 346.140313 
L 318.085394 345.674181 
L 319.0781 347.396943 
L 320.070806 348.296757 
L 321.063512 354.146445 
L 322.056218 351.585741 
L 323.048924 352.999628 
L 324.04163 356.761739 
L 325.034336 357.949127 
L 326.027041 357.416662 
L 327.019747 357.466864 
L 328.012453 359.863239 
L 329.005159 368.759506 
L 329.997865 364.115213 
L 330.990571 360.82812 
L 331.983277 367.455657 
L 332.975983 367.577591 
L 333.968689 369.662232 
L 334.961395 365.101976 
L 335.954101 365.691306 
L 337.939513 376.667329 
L 338.932218 367.943403 
L 339.924924 365.941549 
L 340.91763 379.308715 
L 341.910336 374.518396 
L 342.903042 368.997977 
L 343.895748 373.58758 
L 344.888454 376.496391 
L 345.88116 376.648868 
L 346.873866 375.630961 
L 347.866572 375.334683 
L 348.859278 381.98509 
L 350.84469 377.172749 
L 351.837395 379.731125 
L 352.830101 383.018888 
L 353.822807 376.478561 
L 354.815513 386.836697 
L 355.808219 384.869018 
L 356.800925 383.326589 
L 357.793631 379.762273 
L 358.786337 382.576944 
L 359.779043 382.675603 
L 360.771749 390.020858 
L 361.764455 382.334497 
L 362.757161 390.116721 
L 363.749867 387.375508 
L 364.742572 389.927875 
L 365.735278 388.095247 
L 366.727984 392.389715 
L 367.72069 394.991849 
L 368.713396 396.247637 
L 369.706102 391.158365 
L 370.698808 390.732232 
L 371.691514 390.846492 
L 372.68422 392.747451 
L 373.676926 393.03661 
L 374.669632 400.535718 
L 375.662338 388.748767 
L 376.655044 394.794822 
L 377.64775 390.644358 
L 378.640455 389.763844 
L 379.633161 395.444106 
L 380.625867 397.043662 
L 381.618573 396.68629 
L 382.611279 394.165137 
L 383.603985 400.793563 
L 384.596691 396.497856 
L 385.589397 399.385843 
L 386.582103 407.469296 
L 387.574809 398.920446 
L 388.567515 398.075719 
L 389.560221 403.211753 
L 390.552927 405.035334 
L 391.545632 400.597945 
L 392.538338 405.519111 
L 393.531044 398.142903 
L 394.52375 400.621067 
L 395.516456 403.508334 
L 396.509162 403.040159 
L 397.501868 405.031592 
L 398.494574 409.229515 
L 399.48728 403.098909 
L 400.479986 407.04716 
L 401.472692 402.732892 
L 402.465398 408.682947 
L 403.458104 407.899952 
L 404.450809 407.620533 
L 405.443515 408.600376 
L 406.436221 414.068571 
L 407.428927 414.461434 
L 408.421633 403.723851 
L 409.414339 408.123541 
L 410.407045 407.407166 
L 411.399751 408.827563 
L 412.392457 409.343442 
L 413.385163 406.805895 
L 414.377869 411.553172 
L 415.370575 408.387453 
L 416.363281 417.669867 
L 417.355986 410.554566 
L 418.348692 410.674572 
L 419.341398 417.736521 
L 420.334104 413.221682 
L 421.32681 414.615662 
L 422.319516 421.447072 
L 423.312222 415.786713 
L 424.304928 410.820646 
L 425.297634 407.854462 
L 426.29034 413.663833 
L 427.283046 414.798624 
L 428.275752 418.809317 
L 429.268458 417.329507 
L 430.261163 418.662616 
L 431.253869 414.008913 
L 432.246575 419.272741 
L 433.239281 423.499082 
L 435.224693 416.58609 
L 436.217399 415.918763 
L 437.210105 416.933259 
L 438.202811 421.538004 
L 439.195517 417.157404 
L 440.188223 416.628628 
L 441.180929 420.649137 
L 442.173635 423.145296 
L 443.166341 425.15371 
L 444.159046 427.584139 
L 445.151752 425.729211 
L 446.144458 427.058502 
L 447.137164 421.316989 
L 448.12987 420.185519 
L 449.122576 422.611556 
L 450.115282 427.016138 
L 451.107988 428.141436 
L 452.100694 423.863815 
L 453.0934 424.865592 
L 454.086106 430.80671 
L 455.078812 422.086115 
L 456.071518 428.020714 
L 457.064223 424.448223 
L 458.056929 427.569448 
L 459.049635 424.678282 
L 460.042341 423.818426 
L 461.035047 424.436216 
L 462.027753 423.102242 
L 463.020459 427.034828 
L 464.013165 421.483847 
L 465.005871 426.121286 
L 465.998577 427.374537 
L 466.991283 433.569897 
L 467.983989 433.42592 
L 468.976695 427.773588 
L 469.9694 426.799542 
L 470.962106 429.211345 
L 471.954812 430.708119 
L 472.947518 438.923409 
L 473.940224 431.446509 
L 474.93293 430.040148 
L 476.918342 431.828915 
L 477.911048 431.5602 
L 479.89646 429.33729 
L 481.881872 427.077461 
L 482.874577 428.817976 
L 483.867283 432.661277 
L 484.859989 434.372512 
L 485.852695 436.352477 
L 486.845401 431.510686 
L 487.838107 437.340025 
L 488.830813 433.81924 
L 489.823519 433.13798 
L 490.816225 429.702022 
L 491.808931 434.506797 
L 492.801637 437.033659 
L 493.794343 430.681751 
L 494.787049 436.525118 
L 495.779754 431.507105 
L 496.77246 435.379621 
L 497.765166 429.625191 
L 498.757872 433.317674 
L 499.750578 438.441101 
L 500.743284 437.717922 
L 501.73599 432.208801 
L 502.728696 433.324899 
L 503.721402 442.673852 
L 504.714108 446.674272 
L 505.706814 437.81683 
L 506.69952 432.383377 
L 508.684932 441.772445 
L 509.677637 440.433833 
L 510.670343 436.889692 
L 511.663049 439.304647 
L 512.655755 440.720119 
L 513.648461 437.977299 
L 514.641167 453.386054 
L 515.633873 440.829016 
L 516.626579 439.35961 
L 517.619285 453.164014 
L 518.611991 435.56615 
L 519.604697 435.498231 
L 520.597403 441.465641 
L 521.590109 442.18285 
L 522.582814 443.175057 
L 523.57552 441.276823 
L 524.568226 453.295933 
L 525.560932 444.424624 
L 526.553638 446.631871 
L 527.546344 453.726771 
L 528.53905 440.261035 
L 529.531756 440.9728 
L 530.524462 446.310821 
L 531.517168 441.598745 
L 532.509874 437.76926 
L 533.50258 435.639418 
L 534.495286 438.681205 
L 535.487991 445.479769 
L 536.480697 445.520332 
L 537.473403 446.966841 
L 538.466109 445.937508 
L 539.458815 444.736451 
L 540.451521 450.673493 
L 541.444227 449.097557 
L 542.436933 444.995499 
L 543.429639 445.528676 
L 544.422345 450.28035 
L 545.415051 447.692876 
L 546.407757 449.113294 
L 547.400463 459.811596 
L 548.393168 446.539883 
L 549.385874 449.726152 
L 550.37858 447.113339 
L 551.371286 448.829222 
L 552.363992 440.542713 
L 553.356698 448.511543 
L 554.349404 447.664026 
L 555.34211 449.184562 
L 556.334816 449.843617 
L 558.320228 442.189967 
L 559.312934 448.07798 
L 560.30564 439.502793 
L 561.298345 452.139983 
L 562.291051 450.997469 
L 563.283757 445.66595 
L 564.276463 452.883995 
L 565.269169 454.175235 
L 566.261875 453.991985 
L 567.254581 442.387736 
L 568.247287 450.782208 
L 569.239993 449.190055 
L 570.232699 446.846078 
L 571.225405 450.504161 
L 572.218111 444.059768 
L 573.210817 450.138058 
L 574.203523 448.993821 
L 575.196228 450.029289 
L 576.188934 448.618027 
L 577.18164 453.006034 
L 578.174346 450.837032 
L 579.167052 456.69778 
L 580.159758 453.030007 
L 581.152464 444.414248 
L 582.14517 449.179645 
L 583.137876 451.621217 
L 584.130582 463.607019 
L 585.123288 451.330394 
L 586.115994 437.327897 
L 587.1087 458.989706 
L 588.101405 456.427183 
L 589.094111 452.892403 
L 590.086817 455.329234 
L 591.079523 453.126117 
L 592.072229 454.627318 
L 593.064935 455.290528 
L 594.057641 457.889103 
L 595.050347 443.750754 
L 596.043053 460.263627 
L 597.035759 455.665225 
L 598.028465 455.215844 
L 599.021171 462.536526 
L 600.013877 454.043179 
L 601.006582 452.98698 
L 601.999288 449.840077 
L 602.991994 452.268142 
L 603.9847 451.749188 
L 604.977406 456.484802 
L 605.970112 452.209302 
L 606.962818 451.24972 
L 607.955524 455.751825 
L 608.94823 459.242839 
L 609.940936 456.207469 
L 610.933642 455.2056 
L 611.926348 457.761827 
L 612.919054 450.280996 
L 613.911759 457.517514 
L 614.904465 451.249907 
L 615.897171 462.003266 
L 616.889877 454.198662 
L 617.882583 460.491288 
L 618.875289 463.333026 
L 619.867995 455.49856 
L 620.860701 450.384841 
L 621.853407 454.09103 
L 622.846113 456.139331 
L 623.838819 455.958371 
L 624.831525 458.661069 
L 625.824231 458.598105 
L 626.816936 458.837708 
L 627.809642 456.902347 
L 628.802348 456.325004 
L 629.795054 454.6545 
L 630.78776 458.93297 
L 631.780466 459.569835 
L 632.773172 459.471991 
L 633.765878 456.708643 
L 634.758584 461.292778 
L 635.75129 458.642837 
L 636.743996 458.107321 
L 637.736702 455.805936 
L 638.729408 458.270901 
L 639.722114 458.540724 
L 640.714819 463.677941 
L 642.700231 459.153723 
L 643.692937 459.383222 
L 644.685643 460.527915 
L 645.678349 461.181146 
L 646.671055 459.855861 
L 647.663761 461.140569 
L 648.656467 462.061521 
L 649.649173 458.954674 
L 650.641879 461.512948 
L 651.634585 462.514281 
L 652.627291 461.695315 
L 653.619996 458.792676 
L 654.612702 461.70137 
L 655.605408 461.054552 
L 656.598114 461.336798 
L 657.59082 462.150995 
L 658.583526 461.575096 
L 659.576232 462.461903 
L 660.568938 462.858582 
L 661.561644 461.786599 
L 662.55435 461.610347 
L 663.547056 462.540333 
L 664.539762 460.724068 
L 665.532468 462.033195 
L 666.525173 464.18334 
L 667.517879 462.289154 
L 668.510585 460.908398 
L 669.503291 465.373593 
L 670.495997 464.26011 
L 671.488703 463.974619 
L 672.481409 463.959625 
L 673.474115 464.526336 
L 675.459527 464.773688 
L 676.452233 462.445178 
L 678.437645 463.844741 
L 679.43035 465.401833 
L 680.423056 465.498962 
L 681.415762 464.313936 
L 682.408468 464.148987 
L 683.401174 464.677569 
L 684.39388 464.044143 
L 685.386586 465.072788 
L 686.379292 465.274587 
L 687.371998 464.832569 
L 688.364704 464.544653 
L 689.35741 465.983104 
L 690.350116 464.631082 
L 691.342822 465.977362 
L 693.328233 466.23378 
L 694.320939 466.063419 
L 695.313645 466.141644 
L 696.306351 465.427901 
L 697.299057 466.046362 
L 698.291763 467.211797 
L 699.284469 467.172555 
L 700.277175 466.798412 
L 701.269881 466.206362 
L 702.262587 468.378155 
L 703.255293 467.352614 
L 704.247999 466.784466 
L 705.240705 467.693502 
L 706.23341 467.736381 
L 707.226116 468.324364 
L 708.218822 467.025439 
L 709.211528 467.317898 
L 710.204234 467.947168 
L 711.19694 468.734004 
L 712.189646 467.90684 
L 713.182352 467.781186 
L 714.175058 468.183205 
L 715.167764 468.816251 
L 716.16047 468.539938 
L 718.145882 468.320988 
L 719.138587 469.044228 
L 720.131293 469.315457 
L 721.123999 469.09074 
L 724.102117 469.184139 
L 725.094823 470.139609 
L 726.087529 469.917589 
L 727.080235 469.287997 
L 729.065647 469.849681 
L 730.058353 469.318486 
L 731.051059 470.344861 
L 732.043764 470.202842 
L 733.03647 469.612346 
L 734.029176 470.298821 
L 735.021882 470.238686 
L 736.014588 470.401885 
L 737.007294 469.925449 
L 738 470.536825 
L 738.992706 470.934019 
L 739.985412 470.316709 
L 740.978118 471.135913 
L 741.970824 470.553806 
L 742.96353 471.559033 
L 743.956236 470.176538 
L 744.948941 471.544739 
L 745.941647 471.449738 
L 746.934353 471.00271 
L 747.927059 471.629032 
L 748.919765 471.30802 
L 749.912471 471.643439 
L 750.905177 472.171954 
L 751.897883 471.602726 
L 752.890589 471.59262 
L 754.876001 472.54989 
L 755.868707 472.538955 
L 756.861413 472.81636 
L 757.854118 472.316685 
L 758.846824 471.95799 
L 759.83953 473.011802 
L 760.832236 472.70692 
L 761.824942 473.120188 
L 762.817648 473.291079 
L 763.810354 472.866001 
L 765.795766 472.750905 
L 766.788472 473.457467 
L 767.781178 473.375474 
L 768.773884 473.763737 
L 769.76659 473.181146 
L 771.752001 473.948265 
L 772.744707 474.401138 
L 773.737413 473.988059 
L 774.730119 474.560563 
L 776.715531 474.074617 
L 777.708237 474.164375 
L 778.700943 474.782241 
L 779.693649 474.745047 
L 780.686355 475.015592 
L 781.679061 474.261115 
L 782.671767 474.912682 
L 783.664473 474.646324 
L 786.64259 474.990762 
L 787.635296 475.063954 
L 788.628002 475.55541 
L 789.620708 475.332055 
L 790.613414 474.703954 
L 791.60612 475.186774 
L 792.598826 475.428246 
L 793.591532 475.434698 
L 794.584238 475.809069 
L 795.576944 475.552033 
L 796.56965 475.665209 
L 797.562355 475.665709 
L 799.547767 476.17948 
L 800.540473 475.742647 
L 801.533179 476.642692 
L 802.525885 476.722246 
L 803.518591 477.372616 
L 804.511297 476.208329 
L 805.504003 476.7711 
L 806.496709 476.496491 
L 807.489415 476.794639 
L 808.482121 476.290826 
L 809.474827 477.118179 
L 810.467532 476.544377 
L 811.460238 476.664342 
L 812.452944 477.70839 
L 813.44565 477.223063 
L 814.438356 477.153705 
L 815.431062 476.912179 
L 816.423768 477.479048 
L 817.416474 477.73792 
L 818.40918 476.926273 
L 819.401886 477.744267 
L 820.394592 477.850911 
L 821.387298 477.714263 
L 822.380004 477.460128 
L 824.365415 478.561212 
L 825.358121 477.826007 
L 826.350827 478.361818 
L 827.343533 478.179971 
L 828.336239 478.543724 
L 830.321651 477.808931 
L 831.314357 477.99028 
L 832.307063 478.365811 
L 833.299769 478.984118 
L 834.292475 478.290192 
L 835.285181 478.121996 
L 836.277886 478.131812 
L 837.270592 478.909061 
L 839.256004 479.089784 
L 840.24871 479.397387 
L 841.241416 478.968527 
L 842.234122 479.216278 
L 843.226828 479.332316 
L 845.21224 479.013642 
L 846.204946 479.705305 
L 848.190358 479.307898 
L 849.183064 479.390505 
L 850.175769 479.792022 
L 851.168475 479.493686 
L 852.161181 480.054348 
L 853.153887 480.024688 
L 854.146593 480.153244 
L 855.139299 479.616005 
L 856.132005 479.800558 
L 857.124711 480.522005 
L 858.117417 480.009894 
L 859.110123 480.599993 
L 860.102829 480.418158 
L 861.095535 480.376284 
L 862.088241 480.636021 
L 863.080946 481.057472 
L 864.073652 480.35195 
L 865.066358 480.188999 
L 866.059064 480.961437 
L 867.05177 481.553285 
L 868.044476 481.079231 
L 869.037182 479.95543 
L 870.029888 480.95623 
L 871.022594 481.000034 
L 872.0153 480.501043 
L 873.008006 480.957426 
L 874.000712 480.537593 
L 875.986123 481.707149 
L 876.978829 481.719215 
L 877.971535 481.176791 
L 878.964241 480.921793 
L 879.956947 481.541273 
L 880.949653 481.439287 
L 881.942359 481.870529 
L 882.935065 482.171267 
L 883.927771 482.045437 
L 884.920477 481.684573 
L 885.913183 482.149576 
L 887.898595 482.37195 
L 888.8913 481.952406 
L 889.884006 482.131965 
L 890.876712 481.957122 
L 891.869418 482.666835 
L 892.862124 482.784674 
L 893.85483 482.729212 
L 894.847536 482.019228 
L 895.840242 482.621604 
L 896.832948 482.31127 
L 897.825654 482.503248 
L 899.811066 482.055303 
L 900.803772 482.582399 
L 901.796477 482.637023 
L 902.789183 483.227342 
L 903.781889 483.079232 
L 904.774595 482.550141 
L 905.767301 482.96607 
L 906.760007 482.851924 
L 907.752713 483.381933 
L 908.745419 482.965164 
L 910.730831 483.295347 
L 911.723537 482.613529 
L 912.716243 483.078319 
L 913.708949 483.839415 
L 914.701655 483.576606 
L 915.69436 483.995506 
L 916.687066 483.48702 
L 917.679772 483.923637 
L 918.672478 483.84872 
L 919.665184 483.182704 
L 920.65789 484.057793 
L 921.650596 483.169044 
L 923.636008 484.258026 
L 924.628714 484.270228 
L 925.62142 483.829489 
L 926.614126 484.153373 
L 927.606832 483.775624 
L 928.599537 484.463391 
L 930.584949 484.4993 
L 931.577655 484.238149 
L 932.570361 484.298871 
L 933.563067 484.859432 
L 934.555773 484.772173 
L 935.548479 484.379938 
L 936.541185 484.773624 
L 937.533891 485.42829 
L 938.526597 485.02689 
L 939.519303 484.426281 
L 941.504714 484.817612 
L 942.49742 484.73487 
L 943.490126 485.48703 
L 944.482832 485.118343 
L 945.475538 484.508923 
L 946.468244 484.951658 
L 947.46095 485.608836 
L 948.453656 485.875355 
L 949.446362 485.237139 
L 950.439068 485.120945 
L 951.431774 485.603337 
L 952.42448 485.816473 
L 953.417186 485.272789 
L 954.409891 485.5747 
L 955.402597 485.347437 
L 956.395303 484.799084 
L 957.388009 486.23094 
L 959.373421 485.737906 
L 960.366127 485.558118 
L 961.358833 485.823122 
L 962.351539 485.499167 
L 963.344245 485.341296 
L 964.336951 486.1696 
L 965.329657 486.102879 
L 966.322363 486.157456 
L 967.315068 486.422833 
L 968.307774 485.905531 
L 969.30048 486.657716 
L 970.293186 485.789966 
L 971.285892 486.27481 
L 972.278598 486.529018 
L 973.271304 486.223514 
L 974.26401 486.184303 
L 975.256716 486.513065 
L 976.249422 486.012923 
L 977.242128 487.23195 
L 978.234834 485.895469 
L 979.22754 486.602406 
L 980.220246 486.122747 
L 981.212951 486.915998 
L 982.205657 486.50479 
L 983.198363 487.271633 
L 984.191069 486.731143 
L 985.183775 487.338517 
L 986.176481 486.929812 
L 987.169187 487.042845 
L 988.161893 486.727494 
L 989.154599 487.187691 
L 991.140011 487.615845 
L 992.132717 487.005349 
L 993.125423 487.620041 
L 994.118128 486.920197 
L 995.110834 487.325633 
L 997.096246 486.711325 
L 998.088952 487.057412 
L 999.081658 487.265291 
L 1000.074364 487.976189 
L 1001.06707 487.225407 
L 1002.059776 487.617466 
L 1005.037894 487.547761 
L 1006.0306 488.465757 
L 1007.023305 487.528501 
L 1008.016011 488.010902 
L 1009.008717 488.038593 
L 1010.001423 488.396453 
L 1010.994129 487.883265 
L 1011.986835 487.801346 
L 1012.979541 487.971082 
L 1013.972247 488.297163 
L 1014.964953 488.208033 
L 1015.957659 487.732549 
L 1016.950365 488.618425 
L 1017.943071 488.071935 
L 1018.935777 487.74751 
L 1020.921188 488.944081 
L 1021.913894 488.55428 
L 1023.899306 488.635346 
L 1024.892012 487.90877 
L 1025.884718 488.758334 
L 1026.877424 488.402818 
L 1027.87013 488.284735 
L 1028.862836 487.957985 
L 1029.855542 487.947079 
L 1030.848248 487.746886 
L 1031.840954 488.125674 
L 1032.833659 488.702854 
L 1033.826365 488.871736 
L 1034.819071 488.56012 
L 1035.811777 489.226276 
L 1036.804483 488.117318 
L 1037.797189 487.85672 
L 1038.789895 488.860711 
L 1040.775307 488.132731 
L 1041.768013 489.291443 
L 1042.760719 488.622482 
L 1043.753425 488.733023 
L 1044.746131 489.271416 
L 1045.738837 489.191342 
L 1046.731542 488.579305 
L 1047.724248 488.726814 
L 1048.716954 489.21258 
L 1049.70966 489.365981 
L 1050.702366 489.06821 
L 1051.695072 488.566726 
L 1052.687778 488.431128 
L 1053.680484 489.158967 
L 1054.67319 488.437094 
L 1055.665896 489.237895 
L 1057.651308 489.672227 
L 1058.644014 488.73619 
L 1059.636719 489.224664 
L 1060.629425 489.41885 
L 1061.622131 489.422376 
L 1062.614837 490.227984 
L 1063.607543 489.228257 
L 1064.600249 489.942954 
L 1065.592955 489.308728 
L 1066.585661 489.709672 
L 1067.578367 489.159738 
L 1068.571073 489.188769 
L 1069.563779 489.96705 
L 1070.556485 489.462583 
L 1071.549191 489.323729 
L 1072.541896 489.730633 
L 1073.534602 489.968784 
L 1074.527308 490.42313 
L 1075.520014 489.628338 
L 1076.51272 489.533832 
L 1077.505426 488.878022 
L 1078.498132 490.20067 
L 1080.483544 489.716663 
L 1081.47625 489.401258 
L 1082.468956 489.627584 
L 1083.461662 489.717927 
L 1084.454368 490.052424 
L 1085.447073 490.243073 
L 1086.439779 490.253506 
L 1087.432485 490.06719 
L 1088.425191 490.287533 
L 1089.417897 489.945522 
L 1090.410603 489.921647 
L 1091.403309 489.618981 
L 1092.396015 490.264973 
L 1093.388721 490.028109 
L 1094.381427 490.861418 
L 1095.374133 490.281771 
L 1096.366839 490.422406 
L 1097.359545 490.763821 
L 1098.35225 490.544198 
L 1099.344956 490.86933 
L 1100.337662 490.435616 
L 1101.330368 490.423071 
L 1102.323074 490.260466 
L 1103.31578 489.537709 
L 1104.308486 490.632239 
L 1105.301192 490.873149 
L 1106.293898 490.778175 
L 1107.286604 490.458074 
L 1109.272016 490.619057 
L 1110.264722 490.515116 
L 1111.257428 490.933921 
L 1112.250133 490.65434 
L 1113.242839 490.835576 
L 1114.235545 490.376034 
L 1115.228251 490.658479 
L 1116.220957 490.437145 
L 1118.206369 490.685867 
L 1119.199075 490.387242 
L 1120.191781 491.591037 
L 1121.184487 490.848488 
L 1122.177193 490.531569 
L 1123.169899 490.975764 
L 1124.162605 490.225759 
L 1126.148016 490.941464 
L 1127.140722 491.000428 
L 1130.11884 490.645173 
L 1131.111546 490.975468 
L 1132.104252 491.131193 
L 1133.096958 490.710791 
L 1135.08237 491.002029 
L 1136.075076 490.496881 
L 1138.060487 490.971617 
L 1139.053193 490.897372 
L 1140.045899 491.610318 
L 1141.038605 490.48047 
L 1142.031311 491.130923 
L 1143.024017 491.254711 
L 1144.016723 491.502184 
L 1145.009429 490.954354 
L 1146.002135 490.973388 
L 1146.994841 491.104368 
L 1147.987547 491.526601 
L 1148.980253 491.177479 
L 1149.972959 491.424818 
L 1150.965664 491.399445 
L 1151.95837 490.99705 
L 1152.951076 490.893283 
L 1153.943782 491.170685 
L 1154.936488 490.997242 
L 1155.929194 491.134758 
L 1156.9219 491.078128 
L 1157.914606 491.259536 
L 1158.907312 490.784974 
L 1159.900018 490.907032 
L 1160.892724 491.297225 
L 1161.88543 491.153694 
L 1162.878136 491.50224 
L 1163.870841 490.942235 
L 1164.863547 491.107894 
L 1165.856253 490.871735 
L 1166.848959 492.212202 
L 1167.841665 491.909723 
L 1168.834371 491.217862 
L 1169.827077 491.847128 
L 1170.819783 491.275973 
L 1171.812489 491.096674 
L 1172.805195 491.214158 
L 1173.797901 490.72728 
L 1174.790607 491.314205 
L 1175.783313 491.540844 
L 1176.776019 491.386323 
L 1177.768724 491.994268 
L 1178.76143 491.165289 
L 1179.754136 491.770806 
L 1180.746842 491.629995 
L 1181.739548 492.362329 
L 1182.732254 491.863993 
L 1183.72496 492.005383 
L 1184.717666 491.656051 
L 1185.710372 491.905813 
L 1186.703078 491.189223 
L 1187.695784 491.962224 
L 1188.68849 491.449793 
L 1189.681196 491.984964 
L 1190.673901 491.83736 
L 1192.659313 491.273455 
L 1193.652019 491.903053 
L 1194.644725 491.733476 
L 1195.637431 491.770543 
L 1196.630137 492.103887 
L 1197.622843 491.614553 
L 1198.615549 491.921548 
L 1199.608255 490.992296 
L 1200.600961 492.48 
L 1201.593667 491.546561 
L 1202.586373 491.666118 
L 1203.579078 491.53772 
L 1204.571784 491.717421 
L 1205.56449 492.138623 
L 1206.557196 491.483221 
L 1207.549902 491.865612 
L 1208.542608 491.421016 
L 1209.535314 492.389003 
L 1210.52802 491.72186 
L 1211.520726 491.303855 
L 1212.513432 491.789329 
L 1213.506138 491.574251 
L 1214.498844 491.61623 
L 1215.49155 491.78739 
L 1217.476961 492.339286 
L 1218.469667 491.261484 
L 1219.462373 492.278124 
L 1220.455079 491.773687 
L 1221.447785 491.920648 
L 1224.425903 492.064675 
L 1225.418609 491.170129 
L 1226.411315 491.417047 
L 1227.404021 491.323574 
L 1228.396727 492.179459 
L 1229.389432 492.282859 
L 1231.374844 491.542115 
L 1232.36755 491.812219 
L 1233.360256 491.724349 
L 1234.352962 492.087608 
L 1236.338374 491.759827 
L 1237.33108 491.878637 
L 1238.323786 492.186715 
L 1239.316492 492.328163 
L 1240.309198 491.598818 
L 1241.301904 492.255233 
L 1242.29461 491.459189 
L 1243.287315 491.460059 
L 1244.280021 492.155124 
L 1245.272727 492.283942 
L 1245.272727 492.283942 
" clip-path="url(#p6a3ad74987)" style="fill: none; stroke: #1f77b4; stroke-width: 1.5; stroke-linecap: square"/>
   </g>
   <g id="patch_3">
    <path d="M 180 512.64 
L 180 69.12 
" style="fill: none; stroke: #000000; stroke-width: 0.8; stroke-linejoin: miter; stroke-linecap: square"/>
   </g>
   <g id="patch_4">
    <path d="M 1296 512.64 
L 1296 69.12 
" style="fill: none; stroke: #000000; stroke-width: 0.8; stroke-linejoin: miter; stroke-linecap: square"/>
   </g>
   <g id="patch_5">
    <path d="M 180 512.64 
L 1296 512.64 
" style="fill: none; stroke: #000000; stroke-width: 0.8; stroke-linejoin: miter; stroke-linecap: square"/>
   </g>
   <g id="patch_6">
    <path d="M 180 69.12 
L 1296 69.12 
" style="fill: none; stroke: #000000; stroke-width: 0.8; stroke-linejoin: miter; stroke-linecap: square"/>
   </g>
   <g id="text_15">
    <!-- source19-receiver1 -->
    <g transform="translate(544.9 60.80125) scale(0.4 -0.4)">
     <defs>
      <path id="DejaVuSans-73" d="M 2834 3397 
L 2834 2853 
Q 2591 2978 2328 3040 
Q 2066 3103 1784 3103 
Q 1356 3103 1142 2972 
Q 928 2841 928 2578 
Q 928 2378 1081 2264 
Q 1234 2150 1697 2047 
L 1894 2003 
Q 2506 1872 2764 1633 
Q 3022 1394 3022 966 
Q 3022 478 2636 193 
Q 2250 -91 1575 -91 
Q 1294 -91 989 -36 
Q 684 19 347 128 
L 347 722 
Q 666 556 975 473 
Q 1284 391 1588 391 
Q 1994 391 2212 530 
Q 2431 669 2431 922 
Q 2431 1156 2273 1281 
Q 2116 1406 1581 1522 
L 1381 1569 
Q 847 1681 609 1914 
Q 372 2147 372 2553 
Q 372 3047 722 3315 
Q 1072 3584 1716 3584 
Q 2034 3584 2315 3537 
Q 2597 3491 2834 3397 
z
" transform="scale(0.015625)"/>
      <path id="DejaVuSans-6f" d="M 1959 3097 
Q 1497 3097 1228 2736 
Q 959 2375 959 1747 
Q 959 1119 1226 758 
Q 1494 397 1959 397 
Q 2419 397 2687 759 
Q 2956 1122 2956 1747 
Q 2956 2369 2687 2733 
Q 2419 3097 1959 3097 
z
M 1959 3584 
Q 2709 3584 3137 3096 
Q 3566 2609 3566 1747 
Q 3566 888 3137 398 
Q 2709 -91 1959 -91 
Q 1206 -91 779 398 
Q 353 888 353 1747 
Q 353 2609 779 3096 
Q 1206 3584 1959 3584 
z
" transform="scale(0.015625)"/>
      <path id="DejaVuSans-75" d="M 544 1381 
L 544 3500 
L 1119 3500 
L 1119 1403 
Q 1119 906 1312 657 
Q 1506 409 1894 409 
Q 2359 409 2629 706 
Q 2900 1003 2900 1516 
L 2900 3500 
L 3475 3500 
L 3475 0 
L 2900 0 
L 2900 538 
Q 2691 219 2414 64 
Q 2138 -91 1772 -91 
Q 1169 -91 856 284 
Q 544 659 544 1381 
z
M 1991 3584 
L 1991 3584 
z
" transform="scale(0.015625)"/>
      <path id="DejaVuSans-72" d="M 2631 2963 
Q 2534 3019 2420 3045 
Q 2306 3072 2169 3072 
Q 1681 3072 1420 2755 
Q 1159 2438 1159 1844 
L 1159 0 
L 581 0 
L 581 3500 
L 1159 3500 
L 1159 2956 
Q 1341 3275 1631 3429 
Q 1922 3584 2338 3584 
Q 2397 3584 2469 3576 
Q 2541 3569 2628 3553 
L 2631 2963 
z
" transform="scale(0.015625)"/>
      <path id="DejaVuSans-63" d="M 3122 3366 
L 3122 2828 
Q 2878 2963 2633 3030 
Q 2388 3097 2138 3097 
Q 1578 3097 1268 2742 
Q 959 2388 959 1747 
Q 959 1106 1268 751 
Q 1578 397 2138 397 
Q 2388 397 2633 464 
Q 2878 531 3122 666 
L 3122 134 
Q 2881 22 2623 -34 
Q 2366 -91 2075 -91 
Q 1284 -91 818 406 
Q 353 903 353 1747 
Q 353 2603 823 3093 
Q 1294 3584 2113 3584 
Q 2378 3584 2631 3529 
Q 2884 3475 3122 3366 
z
" transform="scale(0.015625)"/>
      <path id="DejaVuSans-65" d="M 3597 1894 
L 3597 1613 
L 953 1613 
Q 991 1019 1311 708 
Q 1631 397 2203 397 
Q 2534 397 2845 478 
Q 3156 559 3463 722 
L 3463 178 
Q 3153 47 2828 -22 
Q 2503 -91 2169 -91 
Q 1331 -91 842 396 
Q 353 884 353 1716 
Q 353 2575 817 3079 
Q 1281 3584 2069 3584 
Q 2775 3584 3186 3129 
Q 3597 2675 3597 1894 
z
M 3022 2063 
Q 3016 2534 2758 2815 
Q 2500 3097 2075 3097 
Q 1594 3097 1305 2825 
Q 1016 2553 972 2059 
L 3022 2063 
z
" transform="scale(0.015625)"/>
      <path id="DejaVuSans-39" d="M 703 97 
L 703 672 
Q 941 559 1184 500 
Q 1428 441 1663 441 
Q 2288 441 2617 861 
Q 2947 1281 2994 2138 
Q 2813 1869 2534 1725 
Q 2256 1581 1919 1581 
Q 1219 1581 811 2004 
Q 403 2428 403 3163 
Q 403 3881 828 4315 
Q 1253 4750 1959 4750 
Q 2769 4750 3195 4129 
Q 3622 3509 3622 2328 
Q 3622 1225 3098 567 
Q 2575 -91 1691 -91 
Q 1453 -91 1209 -44 
Q 966 3 703 97 
z
M 1959 2075 
Q 2384 2075 2632 2365 
Q 2881 2656 2881 3163 
Q 2881 3666 2632 3958 
Q 2384 4250 1959 4250 
Q 1534 4250 1286 3958 
Q 1038 3666 1038 3163 
Q 1038 2656 1286 2365 
Q 1534 2075 1959 2075 
z
" transform="scale(0.015625)"/>
      <path id="DejaVuSans-2d" d="M 313 2009 
L 1997 2009 
L 1997 1497 
L 313 1497 
L 313 2009 
z
" transform="scale(0.015625)"/>
      <path id="DejaVuSans-69" d="M 603 3500 
L 1178 3500 
L 1178 0 
L 603 0 
L 603 3500 
z
M 603 4863 
L 1178 4863 
L 1178 4134 
L 603 4134 
L 603 4863 
z
" transform="scale(0.015625)"/>
      <path id="DejaVuSans-76" d="M 191 3500 
L 800 3500 
L 1894 563 
L 2988 3500 
L 3597 3500 
L 2284 0 
L 1503 0 
L 191 3500 
z
" transform="scale(0.015625)"/>
     </defs>
     <use xlink:href="#DejaVuSans-73"/>
     <use xlink:href="#DejaVuSans-6f" x="52.099609"/>
     <use xlink:href="#DejaVuSans-75" x="113.28125"/>
     <use xlink:href="#DejaVuSans-72" x="176.660156"/>
     <use xlink:href="#DejaVuSans-63" x="215.523438"/>
     <use xlink:href="#DejaVuSans-65" x="270.503906"/>
     <use xlink:href="#DejaVuSans-31" x="332.027344"/>
     <use xlink:href="#DejaVuSans-39" x="395.650391"/>
     <use xlink:href="#DejaVuSans-2d" x="459.273438"/>
     <use xlink:href="#DejaVuSans-72" x="495.357422"/>
     <use xlink:href="#DejaVuSans-65" x="534.220703"/>
     <use xlink:href="#DejaVuSans-63" x="595.744141"/>
     <use xlink:href="#DejaVuSans-65" x="650.724609"/>
     <use xlink:href="#DejaVuSans-69" x="712.248047"/>
     <use xlink:href="#DejaVuSans-76" x="740.03125"/>
     <use xlink:href="#DejaVuSans-65" x="799.210938"/>
     <use xlink:href="#DejaVuSans-72" x="860.734375"/>
     <use xlink:href="#DejaVuSans-31" x="901.847656"/>
    </g>
   </g>
  </g>
 </g>
 <defs>
  <clipPath id="p6a3ad74987">
   <rect x="180" y="69.12" width="1116" height="443.52"/>
  </clipPath>
 </defs>
</svg>
