<?xml version="1.0" encoding="utf-8" standalone="no"?>
<!DOCTYPE svg PUBLIC "-//W3C//DTD SVG 1.1//EN"
  "http://www.w3.org/Graphics/SVG/1.1/DTD/svg11.dtd">
<svg xmlns:xlink="http://www.w3.org/1999/xlink" width="1440pt" height="576pt" viewBox="0 0 1440 576" xmlns="http://www.w3.org/2000/svg" version="1.1">
 <metadata>
  <rdf:RDF xmlns:dc="http://purl.org/dc/elements/1.1/" xmlns:cc="http://creativecommons.org/ns#" xmlns:rdf="http://www.w3.org/1999/02/22-rdf-syntax-ns#">
   <cc:Work>
    <dc:type rdf:resource="http://purl.org/dc/dcmitype/StillImage"/>
    <dc:date>2024-05-22T04:50:16.604585</dc:date>
    <dc:format>image/svg+xml</dc:format>
    <dc:creator>
     <cc:Agent>
      <dc:title>Matplotlib v3.8.3, https://matplotlib.org/</dc:title>
     </cc:Agent>
    </dc:creator>
   </cc:Work>
  </rdf:RDF>
 </metadata>
 <defs>
  <style type="text/css">*{stroke-linejoin: round; stroke-linecap: butt}</style>
 </defs>
 <g id="figure_1">
  <g id="patch_1">
   <path d="M 0 576 
L 1440 576 
L 1440 0 
L 0 0 
z
" style="fill: #ffffff"/>
  </g>
  <g id="axes_1">
   <g id="patch_2">
    <path d="M 180 512.64 
L 1296 512.64 
L 1296 69.12 
L 180 69.12 
z
" style="fill: #ffffff"/>
   </g>
   <g id="matplotlib.axis_1">
    <g id="xtick_1">
     <g id="line2d_1">
      <defs>
       <path id="m29936f143d" d="M 0 0 
L 0 3.5 
" style="stroke: #000000; stroke-width: 0.8"/>
      </defs>
      <g>
       <use xlink:href="#m29936f143d" x="229.734567" y="512.64" style="stroke: #000000; stroke-width: 0.8"/>
      </g>
     </g>
     <g id="text_1">
      <!-- 0 -->
      <g transform="translate(226.553317 527.238438) scale(0.1 -0.1)">
       <defs>
        <path id="DejaVuSans-30" d="M 2034 4250 
Q 1547 4250 1301 3770 
Q 1056 3291 1056 2328 
Q 1056 1369 1301 889 
Q 1547 409 2034 409 
Q 2525 409 2770 889 
Q 3016 1369 3016 2328 
Q 3016 3291 2770 3770 
Q 2525 4250 2034 4250 
z
M 2034 4750 
Q 2819 4750 3233 4129 
Q 3647 3509 3647 2328 
Q 3647 1150 3233 529 
Q 2819 -91 2034 -91 
Q 1250 -91 836 529 
Q 422 1150 422 2328 
Q 422 3509 836 4129 
Q 1250 4750 2034 4750 
z
" transform="scale(0.015625)"/>
       </defs>
       <use xlink:href="#DejaVuSans-30"/>
      </g>
     </g>
    </g>
    <g id="xtick_2">
     <g id="line2d_2">
      <g>
       <use xlink:href="#m29936f143d" x="433.04074" y="512.64" style="stroke: #000000; stroke-width: 0.8"/>
      </g>
     </g>
     <g id="text_2">
      <!-- 500 -->
      <g transform="translate(423.49699 527.238438) scale(0.1 -0.1)">
       <defs>
        <path id="DejaVuSans-35" d="M 691 4666 
L 3169 4666 
L 3169 4134 
L 1269 4134 
L 1269 2991 
Q 1406 3038 1543 3061 
Q 1681 3084 1819 3084 
Q 2600 3084 3056 2656 
Q 3513 2228 3513 1497 
Q 3513 744 3044 326 
Q 2575 -91 1722 -91 
Q 1428 -91 1123 -41 
Q 819 9 494 109 
L 494 744 
Q 775 591 1075 516 
Q 1375 441 1709 441 
Q 2250 441 2565 725 
Q 2881 1009 2881 1497 
Q 2881 1984 2565 2268 
Q 2250 2553 1709 2553 
Q 1456 2553 1204 2497 
Q 953 2441 691 2322 
L 691 4666 
z
" transform="scale(0.015625)"/>
       </defs>
       <use xlink:href="#DejaVuSans-35"/>
       <use xlink:href="#DejaVuSans-30" x="63.623047"/>
       <use xlink:href="#DejaVuSans-30" x="127.246094"/>
      </g>
     </g>
    </g>
    <g id="xtick_3">
     <g id="line2d_3">
      <g>
       <use xlink:href="#m29936f143d" x="636.346913" y="512.64" style="stroke: #000000; stroke-width: 0.8"/>
      </g>
     </g>
     <g id="text_3">
      <!-- 1000 -->
      <g transform="translate(623.621913 527.238438) scale(0.1 -0.1)">
       <defs>
        <path id="DejaVuSans-31" d="M 794 531 
L 1825 531 
L 1825 4091 
L 703 3866 
L 703 4441 
L 1819 4666 
L 2450 4666 
L 2450 531 
L 3481 531 
L 3481 0 
L 794 0 
L 794 531 
z
" transform="scale(0.015625)"/>
       </defs>
       <use xlink:href="#DejaVuSans-31"/>
       <use xlink:href="#DejaVuSans-30" x="63.623047"/>
       <use xlink:href="#DejaVuSans-30" x="127.246094"/>
       <use xlink:href="#DejaVuSans-30" x="190.869141"/>
      </g>
     </g>
    </g>
    <g id="xtick_4">
     <g id="line2d_4">
      <g>
       <use xlink:href="#m29936f143d" x="839.653087" y="512.64" style="stroke: #000000; stroke-width: 0.8"/>
      </g>
     </g>
     <g id="text_4">
      <!-- 1500 -->
      <g transform="translate(826.928087 527.238438) scale(0.1 -0.1)">
       <use xlink:href="#DejaVuSans-31"/>
       <use xlink:href="#DejaVuSans-35" x="63.623047"/>
       <use xlink:href="#DejaVuSans-30" x="127.246094"/>
       <use xlink:href="#DejaVuSans-30" x="190.869141"/>
      </g>
     </g>
    </g>
    <g id="xtick_5">
     <g id="line2d_5">
      <g>
       <use xlink:href="#m29936f143d" x="1042.95926" y="512.64" style="stroke: #000000; stroke-width: 0.8"/>
      </g>
     </g>
     <g id="text_5">
      <!-- 2000 -->
      <g transform="translate(1030.23426 527.238438) scale(0.1 -0.1)">
       <defs>
        <path id="DejaVuSans-32" d="M 1228 531 
L 3431 531 
L 3431 0 
L 469 0 
L 469 531 
Q 828 903 1448 1529 
Q 2069 2156 2228 2338 
Q 2531 2678 2651 2914 
Q 2772 3150 2772 3378 
Q 2772 3750 2511 3984 
Q 2250 4219 1831 4219 
Q 1534 4219 1204 4116 
Q 875 4013 500 3803 
L 500 4441 
Q 881 4594 1212 4672 
Q 1544 4750 1819 4750 
Q 2544 4750 2975 4387 
Q 3406 4025 3406 3419 
Q 3406 3131 3298 2873 
Q 3191 2616 2906 2266 
Q 2828 2175 2409 1742 
Q 1991 1309 1228 531 
z
" transform="scale(0.015625)"/>
       </defs>
       <use xlink:href="#DejaVuSans-32"/>
       <use xlink:href="#DejaVuSans-30" x="63.623047"/>
       <use xlink:href="#DejaVuSans-30" x="127.246094"/>
       <use xlink:href="#DejaVuSans-30" x="190.869141"/>
      </g>
     </g>
    </g>
    <g id="xtick_6">
     <g id="line2d_6">
      <g>
       <use xlink:href="#m29936f143d" x="1246.265433" y="512.64" style="stroke: #000000; stroke-width: 0.8"/>
      </g>
     </g>
     <g id="text_6">
      <!-- 2500 -->
      <g transform="translate(1233.540433 527.238438) scale(0.1 -0.1)">
       <use xlink:href="#DejaVuSans-32"/>
       <use xlink:href="#DejaVuSans-35" x="63.623047"/>
       <use xlink:href="#DejaVuSans-30" x="127.246094"/>
       <use xlink:href="#DejaVuSans-30" x="190.869141"/>
      </g>
     </g>
    </g>
   </g>
   <g id="matplotlib.axis_2">
    <g id="ytick_1">
     <g id="line2d_7">
      <defs>
       <path id="m5e42754241" d="M 0 0 
L -3.5 0 
" style="stroke: #000000; stroke-width: 0.8"/>
      </defs>
      <g>
       <use xlink:href="#m5e42754241" x="180" y="433.371289" style="stroke: #000000; stroke-width: 0.8"/>
      </g>
     </g>
     <g id="text_7">
      <!-- −4 -->
      <g transform="translate(158.257812 437.170508) scale(0.1 -0.1)">
       <defs>
        <path id="DejaVuSans-2212" d="M 678 2272 
L 4684 2272 
L 4684 1741 
L 678 1741 
L 678 2272 
z
" transform="scale(0.015625)"/>
        <path id="DejaVuSans-34" d="M 2419 4116 
L 825 1625 
L 2419 1625 
L 2419 4116 
z
M 2253 4666 
L 3047 4666 
L 3047 1625 
L 3713 1625 
L 3713 1100 
L 3047 1100 
L 3047 0 
L 2419 0 
L 2419 1100 
L 313 1100 
L 313 1709 
L 2253 4666 
z
" transform="scale(0.015625)"/>
       </defs>
       <use xlink:href="#DejaVuSans-2212"/>
       <use xlink:href="#DejaVuSans-34" x="83.789062"/>
      </g>
     </g>
    </g>
    <g id="ytick_2">
     <g id="line2d_8">
      <g>
       <use xlink:href="#m5e42754241" x="180" y="349.094063" style="stroke: #000000; stroke-width: 0.8"/>
      </g>
     </g>
     <g id="text_8">
      <!-- −2 -->
      <g transform="translate(158.257812 352.893282) scale(0.1 -0.1)">
       <use xlink:href="#DejaVuSans-2212"/>
       <use xlink:href="#DejaVuSans-32" x="83.789062"/>
      </g>
     </g>
    </g>
    <g id="ytick_3">
     <g id="line2d_9">
      <g>
       <use xlink:href="#m5e42754241" x="180" y="264.816837" style="stroke: #000000; stroke-width: 0.8"/>
      </g>
     </g>
     <g id="text_9">
      <!-- 0 -->
      <g transform="translate(166.6375 268.616056) scale(0.1 -0.1)">
       <use xlink:href="#DejaVuSans-30"/>
      </g>
     </g>
    </g>
    <g id="ytick_4">
     <g id="line2d_10">
      <g>
       <use xlink:href="#m5e42754241" x="180" y="180.539611" style="stroke: #000000; stroke-width: 0.8"/>
      </g>
     </g>
     <g id="text_10">
      <!-- 2 -->
      <g transform="translate(166.6375 184.338829) scale(0.1 -0.1)">
       <use xlink:href="#DejaVuSans-32"/>
      </g>
     </g>
    </g>
    <g id="ytick_5">
     <g id="line2d_11">
      <g>
       <use xlink:href="#m5e42754241" x="180" y="96.262384" style="stroke: #000000; stroke-width: 0.8"/>
      </g>
     </g>
     <g id="text_11">
      <!-- 4 -->
      <g transform="translate(166.6375 100.061603) scale(0.1 -0.1)">
       <use xlink:href="#DejaVuSans-34"/>
      </g>
     </g>
    </g>
   </g>
   <g id="line2d_12">
    <path d="M 230.727273 199.80019 
L 232.712685 199.049112 
L 235.690802 196.789509 
L 238.66892 194.33503 
L 241.647038 192.082024 
L 242.639744 191.467596 
L 243.63245 191.096531 
L 244.625156 191.357942 
L 245.617862 192.385139 
L 246.610568 193.180273 
L 247.603273 189.677518 
L 248.595979 177.807587 
L 249.588685 162.471377 
L 250.581391 149.925363 
L 251.574097 141.726277 
L 252.566803 136.989124 
L 253.559509 134.405954 
L 254.552215 133.011081 
L 255.544921 132.277872 
L 256.537627 131.880678 
L 260.50845 130.926854 
L 261.501156 130.485993 
L 262.493862 129.906573 
L 264.479274 128.305372 
L 266.464686 126.274275 
L 269.442804 123.092504 
L 270.43551 122.180969 
L 271.428216 121.42843 
L 272.420922 120.876633 
L 273.413627 120.546452 
L 274.406333 120.492032 
L 275.399039 120.747187 
L 276.391745 121.330977 
L 277.384451 122.246955 
L 279.369863 124.801245 
L 280.362569 125.491185 
L 281.355275 124.476056 
L 282.347981 121.270045 
L 283.340687 116.373827 
L 286.318804 99.860827 
L 287.31151 95.478731 
L 288.304216 92.199008 
L 289.296922 90.149779 
L 290.289628 89.28 
L 291.282334 89.419165 
L 292.27504 90.392799 
L 293.267746 92.041585 
L 294.260452 94.203955 
L 296.245864 99.57104 
L 298.231276 105.900255 
L 300.216687 112.954084 
L 303.194805 124.388062 
L 306.172923 135.804378 
L 307.165629 139.165495 
L 308.158335 142.119472 
L 309.151041 144.650819 
L 310.143747 146.724681 
L 311.136453 148.422822 
L 313.121864 151.170391 
L 315.107276 153.953076 
L 316.099982 155.669454 
L 317.092688 157.66469 
L 318.085394 160.081145 
L 319.0781 162.888825 
L 320.070806 166.160352 
L 322.056218 173.961934 
L 324.04163 182.306848 
L 325.034336 185.481589 
L 326.027041 187.034857 
L 327.019747 186.479141 
L 328.012453 183.997804 
L 329.005159 180.329541 
L 331.983277 168.24253 
L 332.975983 164.870328 
L 333.968689 162.001394 
L 334.961395 159.594563 
L 335.954101 157.683587 
L 336.946807 156.205728 
L 337.939513 155.160702 
L 338.932218 154.491199 
L 339.924924 154.205965 
L 340.91763 154.258044 
L 341.910336 154.604757 
L 342.903042 155.235645 
L 344.888454 157.169244 
L 348.859278 161.996709 
L 349.851984 162.82602 
L 350.84469 163.421078 
L 351.837395 163.671598 
L 352.830101 163.643843 
L 353.822807 163.30811 
L 355.808219 161.977217 
L 357.793631 160.463412 
L 358.786337 159.83356 
L 359.779043 159.362005 
L 360.771749 159.121081 
L 361.764455 159.145945 
L 362.757161 159.450258 
L 363.749867 160.085416 
L 364.742572 161.085789 
L 365.735278 162.433773 
L 366.727984 164.195256 
L 367.72069 166.407201 
L 368.713396 169.096768 
L 369.706102 172.316524 
L 370.698808 176.117381 
L 371.691514 180.597036 
L 372.68422 185.818909 
L 373.676926 191.857428 
L 375.662338 206.562594 
L 376.655044 214.448058 
L 377.64775 221.017525 
L 378.640455 223.280256 
L 379.633161 220.562605 
L 381.618573 207.823514 
L 382.611279 201.619036 
L 383.603985 196.243593 
L 384.596691 191.715244 
L 385.589397 188.003238 
L 386.582103 184.953671 
L 387.574809 182.496718 
L 388.567515 180.602846 
L 389.560221 179.125129 
L 390.552927 178.062788 
L 391.545632 177.336742 
L 392.538338 176.924937 
L 393.531044 176.769211 
L 394.52375 176.838012 
L 396.509162 177.389367 
L 403.458104 180.47822 
L 408.421633 182.15218 
L 409.414339 182.666493 
L 411.399751 184.118966 
L 413.385163 186.268454 
L 415.370575 189.282573 
L 417.355986 193.140211 
L 419.341398 197.972521 
L 421.32681 203.756804 
L 423.312222 210.35078 
L 428.275752 227.733273 
L 429.268458 230.628685 
L 430.261163 232.898364 
L 431.253869 234.445676 
L 432.246575 235.256672 
L 433.239281 235.221979 
L 434.231987 234.473602 
L 435.224693 233.104831 
L 436.217399 231.142538 
L 438.202811 226.124319 
L 444.159046 209.49011 
L 446.144458 204.953897 
L 448.12987 201.173082 
L 449.122576 199.674334 
L 450.115282 198.410386 
L 451.107988 197.376469 
L 452.100694 196.588175 
L 453.0934 195.98882 
L 454.086106 195.677988 
L 455.078812 195.616375 
L 456.071518 195.741062 
L 457.064223 196.163515 
L 458.056929 196.787829 
L 459.049635 197.647706 
L 460.042341 198.784259 
L 461.035047 200.130686 
L 462.027753 201.71938 
L 464.013165 205.606072 
L 465.005871 207.903508 
L 466.991283 213.448754 
L 467.983989 216.562622 
L 469.9694 223.968687 
L 470.962106 228.286852 
L 471.954812 233.154411 
L 473.940224 245.084174 
L 474.93293 252.573206 
L 475.925636 261.475964 
L 476.918342 272.304713 
L 478.903754 295.895208 
L 479.89646 295.91554 
L 480.889166 285.032376 
L 481.881872 272.247509 
L 482.874577 261.262317 
L 483.867283 252.429595 
L 484.859989 244.948373 
L 485.852695 238.728462 
L 486.845401 233.420913 
L 487.838107 228.947513 
L 488.830813 225.169595 
L 489.823519 221.836123 
L 490.816225 219.075348 
L 491.808931 216.846705 
L 492.801637 215.003983 
L 493.794343 213.582519 
L 494.787049 212.501956 
L 495.779754 211.833626 
L 496.77246 211.505874 
L 497.765166 211.546553 
L 498.757872 211.837231 
L 500.743284 213.774033 
L 501.73599 215.261436 
L 502.728696 217.157257 
L 503.721402 219.375319 
L 504.714108 221.955514 
L 506.69952 228.619346 
L 508.684932 236.960111 
L 512.655755 255.698376 
L 513.648461 258.714107 
L 514.641167 259.984211 
L 515.633873 259.504325 
L 516.626579 257.635928 
L 517.619285 255.067473 
L 519.604697 249.388975 
L 520.597403 246.762975 
L 521.590109 244.456599 
L 522.582814 242.436869 
L 523.57552 240.884967 
L 524.568226 239.795692 
L 526.553638 238.032444 
L 527.546344 237.484146 
L 530.524462 236.333888 
L 531.517168 236.285924 
L 533.50258 235.947002 
L 535.487991 236.125221 
L 536.480697 236.343783 
L 537.473403 236.744195 
L 538.466109 237.454391 
L 539.458815 238.309828 
L 540.451521 239.630675 
L 541.444227 241.358926 
L 542.436933 243.499684 
L 543.429639 246.392497 
L 544.422345 249.887392 
L 545.415051 254.299412 
L 546.407757 259.795137 
L 547.400463 266.722784 
L 548.393168 275.3229 
L 549.385874 285.668576 
L 550.37858 297.192638 
L 551.371286 301.632743 
L 552.363992 293.63198 
L 554.349404 269.127482 
L 555.34211 259.422707 
L 556.334816 251.348474 
L 557.327522 244.566867 
L 558.320228 238.940777 
L 559.312934 234.256081 
L 560.30564 230.199072 
L 561.298345 226.749531 
L 563.283757 221.545305 
L 564.276463 219.743591 
L 565.269169 218.272251 
L 566.261875 217.203053 
L 567.254581 216.554686 
L 568.247287 216.276775 
L 569.239993 216.306956 
L 570.232699 216.652466 
L 571.225405 217.380661 
L 572.218111 218.475909 
L 573.210817 219.875799 
L 574.203523 221.660646 
L 575.196228 223.748711 
L 576.188934 226.256524 
L 577.18164 229.098353 
L 578.174346 232.396331 
L 579.167052 236.103061 
L 581.152464 244.887107 
L 583.137876 255.850717 
L 585.123288 269.516389 
L 586.115994 277.520944 
L 588.101405 296.85568 
L 590.086817 322.565705 
L 591.079523 336.694913 
L 592.072229 344.041156 
L 593.064935 340.956811 
L 594.057641 332.422525 
L 595.050347 322.062448 
L 596.043053 313.756239 
L 599.021171 292.289378 
L 601.006582 280.548606 
L 602.991994 270.361363 
L 603.9847 265.872548 
L 605.970112 258.325574 
L 607.955524 252.462298 
L 608.94823 250.083065 
L 609.940936 248.046743 
L 610.933642 246.496418 
L 611.926348 245.195898 
L 612.919054 244.213776 
L 613.911759 243.609427 
L 614.904465 243.434025 
L 615.897171 243.436658 
L 616.889877 243.943655 
L 617.882583 244.700202 
L 619.867995 247.329739 
L 620.860701 249.229237 
L 621.853407 251.45306 
L 622.846113 254.015257 
L 623.838819 257.082275 
L 624.831525 260.575115 
L 625.824231 264.580741 
L 626.816936 269.096655 
L 628.802348 279.799902 
L 629.795054 286.440846 
L 630.78776 293.849239 
L 631.780466 302.138042 
L 632.773172 311.891593 
L 634.758584 335.399425 
L 635.75129 347.578468 
L 636.743996 355.26851 
L 637.736702 353.597181 
L 640.714819 334.949648 
L 641.707525 330.316831 
L 642.700231 327.007053 
L 643.692937 324.260037 
L 646.671055 317.474374 
L 648.656467 312.694831 
L 651.634585 304.131952 
L 654.612702 297.024345 
L 656.598114 293.82743 
L 657.59082 292.805534 
L 658.583526 292.043636 
L 659.576232 291.532084 
L 660.568938 291.550047 
L 661.561644 291.992507 
L 662.55435 292.576242 
L 664.539762 294.870404 
L 666.525173 298.588187 
L 667.517879 300.985055 
L 669.503291 305.047459 
L 671.488703 308.226071 
L 672.481409 308.841391 
L 673.474115 308.666061 
L 674.466821 308.175772 
L 675.459527 306.983745 
L 680.423056 298.789441 
L 681.415762 297.557889 
L 683.401174 296.430395 
L 684.39388 296.273573 
L 685.386586 296.418767 
L 686.379292 296.941425 
L 687.371998 297.937314 
L 688.364704 299.293022 
L 689.35741 301.119935 
L 690.350116 303.452544 
L 691.342822 306.220827 
L 692.335527 309.440923 
L 694.320939 317.425599 
L 697.299057 334.447501 
L 698.291763 341.064983 
L 699.284469 346.750883 
L 700.277175 350.570705 
L 701.269881 351.077968 
L 702.262587 347.473043 
L 703.255293 342.908546 
L 705.240705 332.31959 
L 706.23341 327.877137 
L 708.218822 320.93353 
L 709.211528 318.384169 
L 710.204234 316.551778 
L 711.19694 315.093567 
L 712.189646 314.304136 
L 713.182352 314.079078 
L 714.175058 314.242808 
L 715.167764 314.807249 
L 716.16047 316.231231 
L 717.153176 318.132336 
L 718.145882 320.887598 
L 719.138587 324.263545 
L 720.131293 328.862371 
L 721.123999 334.692358 
L 722.116705 341.921752 
L 723.109411 351.039175 
L 724.102117 361.639069 
L 725.094823 373.99195 
L 726.087529 378.353862 
L 727.080235 369.777431 
L 729.065647 344.501563 
L 730.058353 335.399777 
L 731.051059 327.481665 
L 732.043764 320.835879 
L 733.03647 315.546746 
L 734.029176 311.027584 
L 735.021882 307.578205 
L 736.014588 304.596404 
L 737.007294 302.348288 
L 738 300.564597 
L 738.992706 299.417781 
L 739.985412 298.642506 
L 740.978118 298.572583 
L 741.970824 298.811 
L 743.956236 300.817551 
L 744.948941 302.828711 
L 745.941647 305.296594 
L 746.934353 308.450762 
L 747.927059 312.055823 
L 748.919765 316.754076 
L 750.905177 327.864663 
L 751.897883 334.187515 
L 752.890589 339.671519 
L 753.883295 342.738814 
L 754.876001 341.782652 
L 755.868707 337.54606 
L 757.854118 325.452753 
L 758.846824 319.577252 
L 759.83953 314.598043 
L 760.832236 310.48571 
L 761.824942 307.014858 
L 762.817648 304.145031 
L 763.810354 301.980045 
L 764.80306 300.291587 
L 765.795766 299.262636 
L 766.788472 298.52231 
L 767.781178 298.560378 
L 768.773884 298.855456 
L 769.76659 299.725644 
L 770.759295 300.970812 
L 771.752001 302.869518 
L 772.744707 305.202132 
L 773.737413 308.012413 
L 775.722825 314.667844 
L 777.708237 322.256652 
L 778.700943 325.247792 
L 779.693649 327.616047 
L 780.686355 328.552397 
L 781.679061 328.018833 
L 783.664473 323.521128 
L 785.649884 317.423275 
L 787.635296 312.732169 
L 788.628002 311.071784 
L 789.620708 309.89691 
L 790.613414 309.356326 
L 791.60612 309.174449 
L 792.598826 309.53661 
L 793.591532 310.444848 
L 794.584238 312.151927 
L 795.576944 314.289872 
L 797.562355 320.565843 
L 799.547767 329.308426 
L 801.533179 339.031547 
L 802.525885 342.084731 
L 803.518591 342.37363 
L 804.511297 339.835948 
L 805.504003 334.895894 
L 807.489415 323.785186 
L 809.474827 314.331933 
L 810.467532 310.584126 
L 811.460238 307.412542 
L 812.452944 304.926838 
L 813.44565 302.757836 
L 814.438356 301.3425 
L 815.431062 300.359832 
L 816.423768 299.801595 
L 817.416474 299.662995 
L 818.40918 299.947854 
L 819.401886 300.924166 
L 820.394592 302.285418 
L 821.387298 304.172997 
L 822.380004 306.669779 
L 823.372709 309.684533 
L 824.365415 313.304496 
L 826.350827 322.554376 
L 828.336239 334.208465 
L 829.328945 340.535424 
L 830.321651 345.472586 
L 831.314357 347.313843 
L 832.307063 345.48443 
L 833.299769 340.765798 
L 835.285181 329.183011 
L 837.270592 319.493108 
L 838.263298 315.775979 
L 839.256004 312.59993 
L 840.24871 310.170763 
L 841.241416 308.182694 
L 842.234122 306.624485 
L 843.226828 305.653339 
L 844.219534 305.073093 
L 845.21224 304.848836 
L 846.204946 305.238054 
L 847.197652 305.910057 
L 848.190358 306.900758 
L 849.183064 308.481861 
L 850.175769 310.309832 
L 851.168475 312.614127 
L 853.153887 318.045129 
L 855.139299 324.797179 
L 857.124711 332.013045 
L 859.110123 337.867971 
L 860.102829 339.704637 
L 861.095535 340.327704 
L 862.088241 339.802719 
L 863.080946 338.889864 
L 865.066358 335.300226 
L 866.059064 333.328725 
L 868.044476 330.021949 
L 869.037182 328.841041 
L 870.029888 327.451943 
L 871.022594 326.561161 
L 872.0153 325.498318 
L 874.993418 323.309525 
L 878.964241 320.678786 
L 879.956947 319.954287 
L 880.949653 319.391144 
L 882.935065 317.764724 
L 884.920477 316.85515 
L 885.913183 316.64095 
L 887.898595 316.773592 
L 889.884006 318.445078 
L 890.876712 319.797211 
L 891.869418 321.420845 
L 892.862124 323.860328 
L 893.85483 326.602461 
L 894.847536 329.971569 
L 895.840242 334.301621 
L 896.832948 339.189981 
L 897.825654 344.738572 
L 898.81836 351.400443 
L 899.811066 357.101904 
L 900.803772 361.424322 
L 901.796477 361.070243 
L 902.789183 357.04719 
L 904.774595 344.092637 
L 905.767301 336.976598 
L 907.752713 325.802533 
L 908.745419 321.314372 
L 909.738125 317.647369 
L 910.730831 314.570194 
L 911.723537 311.86805 
L 912.716243 309.764897 
L 913.708949 308.314654 
L 914.701655 307.227849 
L 915.69436 306.547193 
L 916.687066 306.420924 
L 917.679772 306.71691 
L 918.672478 307.456022 
L 919.665184 308.615194 
L 920.65789 310.484403 
L 921.650596 312.899238 
L 922.643302 315.810529 
L 923.636008 319.741622 
L 924.628714 324.267532 
L 925.62142 329.818591 
L 926.614126 337.090052 
L 927.606832 346.063185 
L 928.599537 357.59122 
L 929.592243 372.962462 
L 930.584949 390.87851 
L 931.577655 392.171112 
L 933.563067 361.022555 
L 934.555773 349.11215 
L 935.548479 339.881265 
L 936.541185 332.603452 
L 937.533891 326.890531 
L 938.526597 322.283987 
L 939.519303 318.58847 
L 940.512009 315.874967 
L 941.504714 313.592917 
L 942.49742 312.101944 
L 943.490126 311.038899 
L 944.482832 310.51241 
L 945.475538 310.539627 
L 946.468244 310.967308 
L 947.46095 312.002344 
L 948.453656 313.510512 
L 949.446362 315.534926 
L 950.439068 318.252239 
L 951.431774 321.501606 
L 952.42448 325.535903 
L 953.417186 330.39407 
L 954.409891 336.073089 
L 955.402597 342.793182 
L 956.395303 350.56541 
L 958.380715 368.661036 
L 959.373421 374.988281 
L 960.366127 373.312195 
L 961.358833 365.943359 
L 962.351539 357.447882 
L 963.344245 349.909951 
L 964.336951 343.40128 
L 965.329657 338.12377 
L 966.322363 333.699097 
L 967.315068 330.401025 
L 968.307774 327.975851 
L 969.30048 326.009724 
L 970.293186 324.579114 
L 971.285892 323.643325 
L 972.278598 323.244667 
L 973.271304 323.718158 
L 974.26401 324.397973 
L 975.256716 325.595031 
L 976.249422 327.18623 
L 978.234834 331.584757 
L 980.220246 337.026776 
L 981.212951 340.283953 
L 982.205657 343.127241 
L 983.198363 345.535847 
L 984.191069 347.443043 
L 985.183775 347.834028 
L 986.176481 347.323916 
L 987.169187 346.149105 
L 990.147305 339.410651 
L 992.132717 335.565242 
L 994.118128 333.201142 
L 995.110834 332.970614 
L 996.10354 332.971933 
L 997.096246 333.489973 
L 998.088952 334.572127 
L 999.081658 336.040463 
L 1000.074364 337.925652 
L 1002.059776 343.45132 
L 1003.052482 347.301266 
L 1004.045188 350.703045 
L 1006.0306 358.629087 
L 1007.023305 361.009874 
L 1008.016011 362.727173 
L 1009.008717 360.594949 
L 1010.001423 357.50368 
L 1010.994129 353.950839 
L 1012.979541 345.300491 
L 1013.972247 341.261405 
L 1014.964953 337.880505 
L 1015.957659 334.983061 
L 1016.950365 332.443781 
L 1017.943071 330.506672 
L 1018.935777 329.098925 
L 1019.928482 328.036432 
L 1020.921188 327.810442 
L 1021.913894 327.822899 
L 1022.9066 328.332589 
L 1023.899306 329.241878 
L 1024.892012 330.818461 
L 1025.884718 332.792251 
L 1026.877424 335.204568 
L 1028.862836 342.515195 
L 1029.855542 347.392759 
L 1031.840954 360.05657 
L 1034.819071 383.345213 
L 1035.811777 385.099156 
L 1036.804483 380.8102 
L 1038.789895 366.317141 
L 1040.775307 353.566649 
L 1041.768013 348.57675 
L 1042.760719 344.709924 
L 1043.753425 341.361103 
L 1045.738837 336.402506 
L 1046.731542 335.053995 
L 1047.724248 334.136024 
L 1048.716954 333.613788 
L 1049.70966 333.436161 
L 1051.695072 334.706143 
L 1052.687778 336.385963 
L 1053.680484 337.779773 
L 1055.665896 342.274547 
L 1058.644014 351.395016 
L 1059.636719 355.29234 
L 1061.622131 361.755308 
L 1062.614837 364.662142 
L 1063.607543 366.595584 
L 1064.600249 367.592725 
L 1065.592955 368.369267 
L 1066.585661 367.212422 
L 1067.578367 366.381493 
L 1068.571073 364.543226 
L 1069.563779 363.598105 
L 1070.556485 361.799136 
L 1071.549191 360.770944 
L 1072.541896 360.516799 
L 1073.534602 359.356356 
L 1074.527308 358.653027 
L 1075.520014 359.245949 
L 1076.51272 358.800809 
L 1079.490838 358.062338 
L 1080.483544 357.001962 
L 1081.47625 356.371636 
L 1082.468956 354.917831 
L 1083.461662 353.67074 
L 1084.454368 351.482941 
L 1085.447073 350.80663 
L 1086.439779 348.849525 
L 1088.425191 345.829772 
L 1089.417897 345.058428 
L 1090.410603 343.829063 
L 1091.403309 343.376514 
L 1092.396015 343.256866 
L 1093.388721 343.337604 
L 1094.381427 344.091715 
L 1095.374133 345.562737 
L 1096.366839 347.331136 
L 1097.359545 349.497331 
L 1098.35225 352.63721 
L 1099.344956 356.577562 
L 1100.337662 361.868501 
L 1101.330368 367.923959 
L 1102.323074 376.342126 
L 1103.31578 388.152943 
L 1104.308486 404.523572 
L 1105.301192 435.576278 
L 1106.293898 470.271441 
L 1107.286604 422.374376 
L 1108.27931 397.196954 
L 1109.272016 381.832522 
L 1110.264722 370.253876 
L 1112.250133 355.172532 
L 1113.242839 349.648225 
L 1114.235545 345.208473 
L 1115.228251 341.500985 
L 1116.220957 338.494313 
L 1117.213663 335.89012 
L 1118.206369 334.533186 
L 1119.199075 333.410549 
L 1120.191781 332.587804 
L 1121.184487 332.565401 
L 1122.177193 332.74395 
L 1123.169899 333.5702 
L 1124.162605 334.800367 
L 1125.15531 336.582893 
L 1126.148016 338.882386 
L 1127.140722 342.174895 
L 1128.133428 345.870553 
L 1129.126134 350.135199 
L 1131.111546 362.289465 
L 1134.089664 386.689183 
L 1135.08237 391.413879 
L 1136.075076 388.028753 
L 1137.067782 380.632569 
L 1139.053193 364.612332 
L 1140.045899 357.580624 
L 1142.031311 347.74173 
L 1143.024017 343.796597 
L 1145.009429 338.534485 
L 1146.002135 336.863569 
L 1146.994841 335.591333 
L 1147.987547 334.671728 
L 1149.972959 334.980954 
L 1150.965664 335.561117 
L 1151.95837 336.694007 
L 1152.951076 338.335447 
L 1153.943782 340.483356 
L 1155.929194 346.804277 
L 1156.9219 350.848131 
L 1157.914606 355.749514 
L 1158.907312 361.844376 
L 1160.892724 376.558958 
L 1162.878136 392.366091 
L 1163.870841 395.810261 
L 1164.863547 395.347679 
L 1165.856253 389.23372 
L 1166.848959 381.822034 
L 1168.834371 369.078788 
L 1170.819783 360.785787 
L 1171.812489 357.684177 
L 1172.805195 355.581479 
L 1173.797901 353.904931 
L 1174.790607 352.476056 
L 1175.783313 351.986707 
L 1176.776019 352.049475 
L 1177.768724 352.774537 
L 1178.76143 354.001036 
L 1179.754136 355.834882 
L 1180.746842 358.058234 
L 1181.739548 361.217301 
L 1182.732254 364.820431 
L 1183.72496 368.917441 
L 1185.710372 381.18206 
L 1186.703078 389.22323 
L 1187.695784 399.07987 
L 1188.68849 411.566003 
L 1189.681196 430.570731 
L 1190.673901 465.19799 
L 1191.666607 492.48 
L 1192.659313 455.287271 
L 1193.652019 432.470014 
L 1194.644725 417.83203 
L 1195.637431 406.741705 
L 1196.630137 401.104273 
L 1197.622843 396.46969 
L 1198.615549 393.622661 
L 1199.608255 391.360136 
L 1200.600961 390.226424 
L 1201.593667 390.682464 
L 1202.586373 392.939797 
L 1203.579078 394.005273 
L 1204.571784 396.888202 
L 1205.56449 401.758613 
L 1206.557196 405.868779 
L 1209.535314 427.087752 
L 1210.52802 431.242749 
L 1211.520726 431.731235 
L 1214.498844 408.499963 
L 1215.49155 402.36826 
L 1216.484255 397.249675 
L 1218.469667 389.204142 
L 1219.462373 386.666816 
L 1220.455079 386.075166 
L 1221.447785 384.04275 
L 1222.440491 384.318675 
L 1223.433197 384.082577 
L 1225.418609 386.739198 
L 1226.411315 389.498392 
L 1227.404021 392.872129 
L 1228.396727 397.228645 
L 1229.389432 402.53134 
L 1230.382138 406.952873 
L 1231.374844 414.957261 
L 1232.36755 418.229911 
L 1233.360256 419.904916 
L 1234.352962 417.512724 
L 1235.345668 412.453521 
L 1236.338374 405.47638 
L 1237.33108 400.993232 
L 1238.323786 393.69752 
L 1239.316492 390.328666 
L 1240.309198 385.451175 
L 1241.301904 381.407766 
L 1242.29461 379.050618 
L 1243.287315 377.051157 
L 1244.280021 375.549153 
L 1245.272727 374.335163 
L 1245.272727 374.335163 
" clip-path="url(#p1c6c2a7c12)" style="fill: none; stroke: #1f77b4; stroke-width: 1.5; stroke-linecap: square"/>
   </g>
   <g id="patch_3">
    <path d="M 180 512.64 
L 180 69.12 
" style="fill: none; stroke: #000000; stroke-width: 0.8; stroke-linejoin: miter; stroke-linecap: square"/>
   </g>
   <g id="patch_4">
    <path d="M 1296 512.64 
L 1296 69.12 
" style="fill: none; stroke: #000000; stroke-width: 0.8; stroke-linejoin: miter; stroke-linecap: square"/>
   </g>
   <g id="patch_5">
    <path d="M 180 512.64 
L 1296 512.64 
" style="fill: none; stroke: #000000; stroke-width: 0.8; stroke-linejoin: miter; stroke-linecap: square"/>
   </g>
   <g id="patch_6">
    <path d="M 180 69.12 
L 1296 69.12 
" style="fill: none; stroke: #000000; stroke-width: 0.8; stroke-linejoin: miter; stroke-linecap: square"/>
   </g>
   <g id="text_12">
    <!-- source19-receiver19 -->
    <g transform="translate(532.175 60.80125) scale(0.4 -0.4)">
     <defs>
      <path id="DejaVuSans-73" d="M 2834 3397 
L 2834 2853 
Q 2591 2978 2328 3040 
Q 2066 3103 1784 3103 
Q 1356 3103 1142 2972 
Q 928 2841 928 2578 
Q 928 2378 1081 2264 
Q 1234 2150 1697 2047 
L 1894 2003 
Q 2506 1872 2764 1633 
Q 3022 1394 3022 966 
Q 3022 478 2636 193 
Q 2250 -91 1575 -91 
Q 1294 -91 989 -36 
Q 684 19 347 128 
L 347 722 
Q 666 556 975 473 
Q 1284 391 1588 391 
Q 1994 391 2212 530 
Q 2431 669 2431 922 
Q 2431 1156 2273 1281 
Q 2116 1406 1581 1522 
L 1381 1569 
Q 847 1681 609 1914 
Q 372 2147 372 2553 
Q 372 3047 722 3315 
Q 1072 3584 1716 3584 
Q 2034 3584 2315 3537 
Q 2597 3491 2834 3397 
z
" transform="scale(0.015625)"/>
      <path id="DejaVuSans-6f" d="M 1959 3097 
Q 1497 3097 1228 2736 
Q 959 2375 959 1747 
Q 959 1119 1226 758 
Q 1494 397 1959 397 
Q 2419 397 2687 759 
Q 2956 1122 2956 1747 
Q 2956 2369 2687 2733 
Q 2419 3097 1959 3097 
z
M 1959 3584 
Q 2709 3584 3137 3096 
Q 3566 2609 3566 1747 
Q 3566 888 3137 398 
Q 2709 -91 1959 -91 
Q 1206 -91 779 398 
Q 353 888 353 1747 
Q 353 2609 779 3096 
Q 1206 3584 1959 3584 
z
" transform="scale(0.015625)"/>
      <path id="DejaVuSans-75" d="M 544 1381 
L 544 3500 
L 1119 3500 
L 1119 1403 
Q 1119 906 1312 657 
Q 1506 409 1894 409 
Q 2359 409 2629 706 
Q 2900 1003 2900 1516 
L 2900 3500 
L 3475 3500 
L 3475 0 
L 2900 0 
L 2900 538 
Q 2691 219 2414 64 
Q 2138 -91 1772 -91 
Q 1169 -91 856 284 
Q 544 659 544 1381 
z
M 1991 3584 
L 1991 3584 
z
" transform="scale(0.015625)"/>
      <path id="DejaVuSans-72" d="M 2631 2963 
Q 2534 3019 2420 3045 
Q 2306 3072 2169 3072 
Q 1681 3072 1420 2755 
Q 1159 2438 1159 1844 
L 1159 0 
L 581 0 
L 581 3500 
L 1159 3500 
L 1159 2956 
Q 1341 3275 1631 3429 
Q 1922 3584 2338 3584 
Q 2397 3584 2469 3576 
Q 2541 3569 2628 3553 
L 2631 2963 
z
" transform="scale(0.015625)"/>
      <path id="DejaVuSans-63" d="M 3122 3366 
L 3122 2828 
Q 2878 2963 2633 3030 
Q 2388 3097 2138 3097 
Q 1578 3097 1268 2742 
Q 959 2388 959 1747 
Q 959 1106 1268 751 
Q 1578 397 2138 397 
Q 2388 397 2633 464 
Q 2878 531 3122 666 
L 3122 134 
Q 2881 22 2623 -34 
Q 2366 -91 2075 -91 
Q 1284 -91 818 406 
Q 353 903 353 1747 
Q 353 2603 823 3093 
Q 1294 3584 2113 3584 
Q 2378 3584 2631 3529 
Q 2884 3475 3122 3366 
z
" transform="scale(0.015625)"/>
      <path id="DejaVuSans-65" d="M 3597 1894 
L 3597 1613 
L 953 1613 
Q 991 1019 1311 708 
Q 1631 397 2203 397 
Q 2534 397 2845 478 
Q 3156 559 3463 722 
L 3463 178 
Q 3153 47 2828 -22 
Q 2503 -91 2169 -91 
Q 1331 -91 842 396 
Q 353 884 353 1716 
Q 353 2575 817 3079 
Q 1281 3584 2069 3584 
Q 2775 3584 3186 3129 
Q 3597 2675 3597 1894 
z
M 3022 2063 
Q 3016 2534 2758 2815 
Q 2500 3097 2075 3097 
Q 1594 3097 1305 2825 
Q 1016 2553 972 2059 
L 3022 2063 
z
" transform="scale(0.015625)"/>
      <path id="DejaVuSans-39" d="M 703 97 
L 703 672 
Q 941 559 1184 500 
Q 1428 441 1663 441 
Q 2288 441 2617 861 
Q 2947 1281 2994 2138 
Q 2813 1869 2534 1725 
Q 2256 1581 1919 1581 
Q 1219 1581 811 2004 
Q 403 2428 403 3163 
Q 403 3881 828 4315 
Q 1253 4750 1959 4750 
Q 2769 4750 3195 4129 
Q 3622 3509 3622 2328 
Q 3622 1225 3098 567 
Q 2575 -91 1691 -91 
Q 1453 -91 1209 -44 
Q 966 3 703 97 
z
M 1959 2075 
Q 2384 2075 2632 2365 
Q 2881 2656 2881 3163 
Q 2881 3666 2632 3958 
Q 2384 4250 1959 4250 
Q 1534 4250 1286 3958 
Q 1038 3666 1038 3163 
Q 1038 2656 1286 2365 
Q 1534 2075 1959 2075 
z
" transform="scale(0.015625)"/>
      <path id="DejaVuSans-2d" d="M 313 2009 
L 1997 2009 
L 1997 1497 
L 313 1497 
L 313 2009 
z
" transform="scale(0.015625)"/>
      <path id="DejaVuSans-69" d="M 603 3500 
L 1178 3500 
L 1178 0 
L 603 0 
L 603 3500 
z
M 603 4863 
L 1178 4863 
L 1178 4134 
L 603 4134 
L 603 4863 
z
" transform="scale(0.015625)"/>
      <path id="DejaVuSans-76" d="M 191 3500 
L 800 3500 
L 1894 563 
L 2988 3500 
L 3597 3500 
L 2284 0 
L 1503 0 
L 191 3500 
z
" transform="scale(0.015625)"/>
     </defs>
     <use xlink:href="#DejaVuSans-73"/>
     <use xlink:href="#DejaVuSans-6f" x="52.099609"/>
     <use xlink:href="#DejaVuSans-75" x="113.28125"/>
     <use xlink:href="#DejaVuSans-72" x="176.660156"/>
     <use xlink:href="#DejaVuSans-63" x="215.523438"/>
     <use xlink:href="#DejaVuSans-65" x="270.503906"/>
     <use xlink:href="#DejaVuSans-31" x="332.027344"/>
     <use xlink:href="#DejaVuSans-39" x="395.650391"/>
     <use xlink:href="#DejaVuSans-2d" x="459.273438"/>
     <use xlink:href="#DejaVuSans-72" x="495.357422"/>
     <use xlink:href="#DejaVuSans-65" x="534.220703"/>
     <use xlink:href="#DejaVuSans-63" x="595.744141"/>
     <use xlink:href="#DejaVuSans-65" x="650.724609"/>
     <use xlink:href="#DejaVuSans-69" x="712.248047"/>
     <use xlink:href="#DejaVuSans-76" x="740.03125"/>
     <use xlink:href="#DejaVuSans-65" x="799.210938"/>
     <use xlink:href="#DejaVuSans-72" x="860.734375"/>
     <use xlink:href="#DejaVuSans-31" x="901.847656"/>
     <use xlink:href="#DejaVuSans-39" x="965.470703"/>
    </g>
   </g>
  </g>
 </g>
 <defs>
  <clipPath id="p1c6c2a7c12">
   <rect x="180" y="69.12" width="1116" height="443.52"/>
  </clipPath>
 </defs>
</svg>
