<?xml version="1.0" encoding="utf-8" standalone="no"?>
<!DOCTYPE svg PUBLIC "-//W3C//DTD SVG 1.1//EN"
  "http://www.w3.org/Graphics/SVG/1.1/DTD/svg11.dtd">
<svg xmlns:xlink="http://www.w3.org/1999/xlink" width="1440pt" height="576pt" viewBox="0 0 1440 576" xmlns="http://www.w3.org/2000/svg" version="1.1">
 <metadata>
  <rdf:RDF xmlns:dc="http://purl.org/dc/elements/1.1/" xmlns:cc="http://creativecommons.org/ns#" xmlns:rdf="http://www.w3.org/1999/02/22-rdf-syntax-ns#">
   <cc:Work>
    <dc:type rdf:resource="http://purl.org/dc/dcmitype/StillImage"/>
    <dc:date>2024-05-22T04:50:16.929315</dc:date>
    <dc:format>image/svg+xml</dc:format>
    <dc:creator>
     <cc:Agent>
      <dc:title>Matplotlib v3.8.3, https://matplotlib.org/</dc:title>
     </cc:Agent>
    </dc:creator>
   </cc:Work>
  </rdf:RDF>
 </metadata>
 <defs>
  <style type="text/css">*{stroke-linejoin: round; stroke-linecap: butt}</style>
 </defs>
 <g id="figure_1">
  <g id="patch_1">
   <path d="M 0 576 
L 1440 576 
L 1440 0 
L 0 0 
z
" style="fill: #ffffff"/>
  </g>
  <g id="axes_1">
   <g id="patch_2">
    <path d="M 180 512.64 
L 1296 512.64 
L 1296 69.12 
L 180 69.12 
z
" style="fill: #ffffff"/>
   </g>
   <g id="matplotlib.axis_1">
    <g id="xtick_1">
     <g id="line2d_1">
      <defs>
       <path id="me517784667" d="M 0 0 
L 0 3.5 
" style="stroke: #000000; stroke-width: 0.8"/>
      </defs>
      <g>
       <use xlink:href="#me517784667" x="229.734567" y="512.64" style="stroke: #000000; stroke-width: 0.8"/>
      </g>
     </g>
     <g id="text_1">
      <!-- 0 -->
      <g transform="translate(226.553317 527.238438) scale(0.1 -0.1)">
       <defs>
        <path id="DejaVuSans-30" d="M 2034 4250 
Q 1547 4250 1301 3770 
Q 1056 3291 1056 2328 
Q 1056 1369 1301 889 
Q 1547 409 2034 409 
Q 2525 409 2770 889 
Q 3016 1369 3016 2328 
Q 3016 3291 2770 3770 
Q 2525 4250 2034 4250 
z
M 2034 4750 
Q 2819 4750 3233 4129 
Q 3647 3509 3647 2328 
Q 3647 1150 3233 529 
Q 2819 -91 2034 -91 
Q 1250 -91 836 529 
Q 422 1150 422 2328 
Q 422 3509 836 4129 
Q 1250 4750 2034 4750 
z
" transform="scale(0.015625)"/>
       </defs>
       <use xlink:href="#DejaVuSans-30"/>
      </g>
     </g>
    </g>
    <g id="xtick_2">
     <g id="line2d_2">
      <g>
       <use xlink:href="#me517784667" x="433.04074" y="512.64" style="stroke: #000000; stroke-width: 0.8"/>
      </g>
     </g>
     <g id="text_2">
      <!-- 500 -->
      <g transform="translate(423.49699 527.238438) scale(0.1 -0.1)">
       <defs>
        <path id="DejaVuSans-35" d="M 691 4666 
L 3169 4666 
L 3169 4134 
L 1269 4134 
L 1269 2991 
Q 1406 3038 1543 3061 
Q 1681 3084 1819 3084 
Q 2600 3084 3056 2656 
Q 3513 2228 3513 1497 
Q 3513 744 3044 326 
Q 2575 -91 1722 -91 
Q 1428 -91 1123 -41 
Q 819 9 494 109 
L 494 744 
Q 775 591 1075 516 
Q 1375 441 1709 441 
Q 2250 441 2565 725 
Q 2881 1009 2881 1497 
Q 2881 1984 2565 2268 
Q 2250 2553 1709 2553 
Q 1456 2553 1204 2497 
Q 953 2441 691 2322 
L 691 4666 
z
" transform="scale(0.015625)"/>
       </defs>
       <use xlink:href="#DejaVuSans-35"/>
       <use xlink:href="#DejaVuSans-30" x="63.623047"/>
       <use xlink:href="#DejaVuSans-30" x="127.246094"/>
      </g>
     </g>
    </g>
    <g id="xtick_3">
     <g id="line2d_3">
      <g>
       <use xlink:href="#me517784667" x="636.346913" y="512.64" style="stroke: #000000; stroke-width: 0.8"/>
      </g>
     </g>
     <g id="text_3">
      <!-- 1000 -->
      <g transform="translate(623.621913 527.238438) scale(0.1 -0.1)">
       <defs>
        <path id="DejaVuSans-31" d="M 794 531 
L 1825 531 
L 1825 4091 
L 703 3866 
L 703 4441 
L 1819 4666 
L 2450 4666 
L 2450 531 
L 3481 531 
L 3481 0 
L 794 0 
L 794 531 
z
" transform="scale(0.015625)"/>
       </defs>
       <use xlink:href="#DejaVuSans-31"/>
       <use xlink:href="#DejaVuSans-30" x="63.623047"/>
       <use xlink:href="#DejaVuSans-30" x="127.246094"/>
       <use xlink:href="#DejaVuSans-30" x="190.869141"/>
      </g>
     </g>
    </g>
    <g id="xtick_4">
     <g id="line2d_4">
      <g>
       <use xlink:href="#me517784667" x="839.653087" y="512.64" style="stroke: #000000; stroke-width: 0.8"/>
      </g>
     </g>
     <g id="text_4">
      <!-- 1500 -->
      <g transform="translate(826.928087 527.238438) scale(0.1 -0.1)">
       <use xlink:href="#DejaVuSans-31"/>
       <use xlink:href="#DejaVuSans-35" x="63.623047"/>
       <use xlink:href="#DejaVuSans-30" x="127.246094"/>
       <use xlink:href="#DejaVuSans-30" x="190.869141"/>
      </g>
     </g>
    </g>
    <g id="xtick_5">
     <g id="line2d_5">
      <g>
       <use xlink:href="#me517784667" x="1042.95926" y="512.64" style="stroke: #000000; stroke-width: 0.8"/>
      </g>
     </g>
     <g id="text_5">
      <!-- 2000 -->
      <g transform="translate(1030.23426 527.238438) scale(0.1 -0.1)">
       <defs>
        <path id="DejaVuSans-32" d="M 1228 531 
L 3431 531 
L 3431 0 
L 469 0 
L 469 531 
Q 828 903 1448 1529 
Q 2069 2156 2228 2338 
Q 2531 2678 2651 2914 
Q 2772 3150 2772 3378 
Q 2772 3750 2511 3984 
Q 2250 4219 1831 4219 
Q 1534 4219 1204 4116 
Q 875 4013 500 3803 
L 500 4441 
Q 881 4594 1212 4672 
Q 1544 4750 1819 4750 
Q 2544 4750 2975 4387 
Q 3406 4025 3406 3419 
Q 3406 3131 3298 2873 
Q 3191 2616 2906 2266 
Q 2828 2175 2409 1742 
Q 1991 1309 1228 531 
z
" transform="scale(0.015625)"/>
       </defs>
       <use xlink:href="#DejaVuSans-32"/>
       <use xlink:href="#DejaVuSans-30" x="63.623047"/>
       <use xlink:href="#DejaVuSans-30" x="127.246094"/>
       <use xlink:href="#DejaVuSans-30" x="190.869141"/>
      </g>
     </g>
    </g>
    <g id="xtick_6">
     <g id="line2d_6">
      <g>
       <use xlink:href="#me517784667" x="1246.265433" y="512.64" style="stroke: #000000; stroke-width: 0.8"/>
      </g>
     </g>
     <g id="text_6">
      <!-- 2500 -->
      <g transform="translate(1233.540433 527.238438) scale(0.1 -0.1)">
       <use xlink:href="#DejaVuSans-32"/>
       <use xlink:href="#DejaVuSans-35" x="63.623047"/>
       <use xlink:href="#DejaVuSans-30" x="127.246094"/>
       <use xlink:href="#DejaVuSans-30" x="190.869141"/>
      </g>
     </g>
    </g>
   </g>
   <g id="matplotlib.axis_2">
    <g id="ytick_1">
     <g id="line2d_7">
      <defs>
       <path id="md603b5e4cf" d="M 0 0 
L -3.5 0 
" style="stroke: #000000; stroke-width: 0.8"/>
      </defs>
      <g>
       <use xlink:href="#md603b5e4cf" x="180" y="459.751435" style="stroke: #000000; stroke-width: 0.8"/>
      </g>
     </g>
     <g id="text_7">
      <!-- −2 -->
      <g transform="translate(158.257812 463.550653) scale(0.1 -0.1)">
       <defs>
        <path id="DejaVuSans-2212" d="M 678 2272 
L 4684 2272 
L 4684 1741 
L 678 1741 
L 678 2272 
z
" transform="scale(0.015625)"/>
       </defs>
       <use xlink:href="#DejaVuSans-2212"/>
       <use xlink:href="#DejaVuSans-32" x="83.789062"/>
      </g>
     </g>
    </g>
    <g id="ytick_2">
     <g id="line2d_8">
      <g>
       <use xlink:href="#md603b5e4cf" x="180" y="393.942367" style="stroke: #000000; stroke-width: 0.8"/>
      </g>
     </g>
     <g id="text_8">
      <!-- −1 -->
      <g transform="translate(158.257812 397.741586) scale(0.1 -0.1)">
       <use xlink:href="#DejaVuSans-2212"/>
       <use xlink:href="#DejaVuSans-31" x="83.789062"/>
      </g>
     </g>
    </g>
    <g id="ytick_3">
     <g id="line2d_9">
      <g>
       <use xlink:href="#md603b5e4cf" x="180" y="328.1333" style="stroke: #000000; stroke-width: 0.8"/>
      </g>
     </g>
     <g id="text_9">
      <!-- 0 -->
      <g transform="translate(166.6375 331.932519) scale(0.1 -0.1)">
       <use xlink:href="#DejaVuSans-30"/>
      </g>
     </g>
    </g>
    <g id="ytick_4">
     <g id="line2d_10">
      <g>
       <use xlink:href="#md603b5e4cf" x="180" y="262.324233" style="stroke: #000000; stroke-width: 0.8"/>
      </g>
     </g>
     <g id="text_10">
      <!-- 1 -->
      <g transform="translate(166.6375 266.123451) scale(0.1 -0.1)">
       <use xlink:href="#DejaVuSans-31"/>
      </g>
     </g>
    </g>
    <g id="ytick_5">
     <g id="line2d_11">
      <g>
       <use xlink:href="#md603b5e4cf" x="180" y="196.515165" style="stroke: #000000; stroke-width: 0.8"/>
      </g>
     </g>
     <g id="text_11">
      <!-- 2 -->
      <g transform="translate(166.6375 200.314384) scale(0.1 -0.1)">
       <use xlink:href="#DejaVuSans-32"/>
      </g>
     </g>
    </g>
    <g id="ytick_6">
     <g id="line2d_12">
      <g>
       <use xlink:href="#md603b5e4cf" x="180" y="130.706098" style="stroke: #000000; stroke-width: 0.8"/>
      </g>
     </g>
     <g id="text_12">
      <!-- 3 -->
      <g transform="translate(166.6375 134.505317) scale(0.1 -0.1)">
       <defs>
        <path id="DejaVuSans-33" d="M 2597 2516 
Q 3050 2419 3304 2112 
Q 3559 1806 3559 1356 
Q 3559 666 3084 287 
Q 2609 -91 1734 -91 
Q 1441 -91 1130 -33 
Q 819 25 488 141 
L 488 750 
Q 750 597 1062 519 
Q 1375 441 1716 441 
Q 2309 441 2620 675 
Q 2931 909 2931 1356 
Q 2931 1769 2642 2001 
Q 2353 2234 1838 2234 
L 1294 2234 
L 1294 2753 
L 1863 2753 
Q 2328 2753 2575 2939 
Q 2822 3125 2822 3475 
Q 2822 3834 2567 4026 
Q 2313 4219 1838 4219 
Q 1578 4219 1281 4162 
Q 984 4106 628 3988 
L 628 4550 
Q 988 4650 1302 4700 
Q 1616 4750 1894 4750 
Q 2613 4750 3031 4423 
Q 3450 4097 3450 3541 
Q 3450 3153 3228 2886 
Q 3006 2619 2597 2516 
z
" transform="scale(0.015625)"/>
       </defs>
       <use xlink:href="#DejaVuSans-33"/>
      </g>
     </g>
    </g>
   </g>
   <g id="line2d_13">
    <path d="M 230.727273 434.618232 
L 231.719979 431.404337 
L 232.712685 427.11739 
L 236.683508 400.760603 
L 241.647038 364.099903 
L 243.63245 347.795522 
L 244.625156 338.12824 
L 245.617862 326.624848 
L 246.610568 311.791191 
L 248.595979 278.921532 
L 249.588685 265.063002 
L 250.581391 258.984094 
L 251.574097 258.974725 
L 252.566803 266.405357 
L 253.559509 267.423608 
L 254.552215 246.888578 
L 255.544921 230.558068 
L 256.537627 221.140905 
L 257.530333 222.510533 
L 258.523039 233.304607 
L 259.515745 240.403638 
L 260.50845 230.88806 
L 261.501156 219.432194 
L 264.479274 202.340731 
L 265.47198 203.31385 
L 266.464686 218.250759 
L 268.450098 311.767096 
L 269.442804 249.125025 
L 270.43551 244.136977 
L 271.428216 292.081521 
L 272.420922 283.266112 
L 273.413627 226.612756 
L 274.406333 220.802739 
L 275.399039 246.928394 
L 277.384451 140.659951 
L 278.377157 110.971763 
L 279.369863 95.01995 
L 280.362569 89.28 
L 281.355275 92.509493 
L 282.347981 103.844367 
L 283.340687 121.062344 
L 284.333393 125.924633 
L 285.326099 112.254272 
L 286.318804 101.312186 
L 287.31151 100.425167 
L 288.304216 111.724812 
L 289.296922 138.421701 
L 290.289628 182.443258 
L 291.282334 196.080958 
L 292.27504 181.483564 
L 293.267746 188.976384 
L 294.260452 235.390668 
L 295.253158 337.360965 
L 296.245864 229.876236 
L 297.23857 217.117958 
L 298.231276 236.959132 
L 299.223981 306.800252 
L 300.216687 317.284636 
L 301.209393 272.176971 
L 302.202099 279.0621 
L 303.194805 314.404372 
L 304.187511 313.263077 
L 305.180217 297.555871 
L 306.172923 307.035519 
L 307.165629 328.884698 
L 308.158335 321.109309 
L 309.151041 315.120803 
L 310.143747 319.190776 
L 311.136453 326.993733 
L 312.129159 333.101748 
L 313.121864 323.36231 
L 314.11457 327.122777 
L 315.107276 333.292301 
L 316.099982 333.282055 
L 317.092688 330.638768 
L 318.085394 339.631229 
L 319.0781 337.872114 
L 320.070806 335.344501 
L 322.056218 342.256875 
L 323.048924 342.668477 
L 324.04163 344.547987 
L 325.034336 345.539479 
L 326.027041 349.455342 
L 327.019747 351.112231 
L 328.012453 346.770272 
L 329.005159 349.496713 
L 329.997865 352.601009 
L 330.990571 353.084526 
L 331.983277 354.811936 
L 332.975983 349.716519 
L 333.968689 354.395871 
L 334.961395 356.419118 
L 335.954101 361.083653 
L 336.946807 360.351024 
L 337.939513 355.658248 
L 338.932218 356.03591 
L 339.924924 360.811496 
L 340.91763 361.453048 
L 341.910336 358.25002 
L 342.903042 365.313171 
L 343.895748 362.229315 
L 344.888454 365.881732 
L 345.88116 364.690899 
L 346.873866 363.275728 
L 347.866572 364.466405 
L 348.859278 361.895526 
L 349.851984 366.578108 
L 350.84469 366.944588 
L 351.837395 368.446081 
L 352.830101 377.906937 
L 353.822807 368.003985 
L 354.815513 368.15489 
L 355.808219 374.430219 
L 356.800925 368.817348 
L 357.793631 370.032518 
L 358.786337 373.230054 
L 359.779043 380.543618 
L 360.771749 377.406742 
L 361.764455 373.205755 
L 362.757161 371.614376 
L 363.749867 380.10231 
L 364.742572 376.951565 
L 365.735278 384.819573 
L 366.727984 378.502673 
L 367.72069 380.333981 
L 368.713396 388.315205 
L 369.706102 382.463323 
L 370.698808 380.888985 
L 371.691514 377.989479 
L 372.68422 386.308413 
L 373.676926 383.790903 
L 374.669632 391.421494 
L 375.662338 379.266158 
L 376.655044 386.495665 
L 377.64775 388.170017 
L 378.640455 379.18307 
L 379.633161 383.968806 
L 380.625867 387.627117 
L 381.618573 389.494419 
L 382.611279 387.48948 
L 383.603985 391.111957 
L 384.596691 402.410349 
L 385.589397 386.581963 
L 386.582103 393.276022 
L 387.574809 390.249686 
L 388.567515 385.140443 
L 389.560221 390.264516 
L 390.552927 390.277291 
L 391.545632 396.655676 
L 392.538338 396.634089 
L 393.531044 386.782665 
L 394.52375 387.731016 
L 395.516456 391.588004 
L 396.509162 396.620293 
L 397.501868 393.484692 
L 398.494574 385.722931 
L 399.48728 395.500369 
L 400.479986 403.434919 
L 401.472692 393.239623 
L 402.465398 402.354434 
L 403.458104 397.735469 
L 404.450809 401.215976 
L 405.443515 389.260031 
L 406.436221 408.981601 
L 407.428927 406.696386 
L 408.421633 396.173564 
L 409.414339 399.198342 
L 410.407045 399.44519 
L 411.399751 395.572544 
L 412.392457 405.971803 
L 413.385163 404.241911 
L 414.377869 409.467698 
L 415.370575 401.845581 
L 416.363281 401.064789 
L 417.355986 398.836378 
L 418.348692 407.644515 
L 419.341398 403.791117 
L 420.334104 407.310604 
L 421.32681 402.865643 
L 422.319516 403.850118 
L 423.312222 406.591966 
L 425.297634 403.645214 
L 426.29034 418.783225 
L 427.283046 408.021385 
L 428.275752 407.428932 
L 429.268458 413.117972 
L 430.261163 407.705278 
L 431.253869 401.400489 
L 432.246575 409.030268 
L 433.239281 418.110852 
L 434.231987 422.587685 
L 435.224693 407.23425 
L 436.217399 413.646497 
L 437.210105 409.990051 
L 438.202811 409.476674 
L 439.195517 408.325097 
L 440.188223 409.405406 
L 441.180929 413.789228 
L 442.173635 425.555049 
L 443.166341 410.439598 
L 444.159046 419.430781 
L 445.151752 407.524171 
L 446.144458 410.384071 
L 447.137164 414.639134 
L 448.12987 408.526659 
L 449.122576 420.661291 
L 450.115282 420.763746 
L 451.107988 414.545123 
L 452.100694 416.593303 
L 453.0934 414.53341 
L 454.086106 411.325348 
L 455.078812 422.100133 
L 456.071518 424.895876 
L 457.064223 425.298706 
L 458.056929 418.50359 
L 459.049635 415.21593 
L 460.042341 422.821418 
L 461.035047 415.865716 
L 462.027753 418.583135 
L 463.020459 423.193744 
L 464.013165 421.29021 
L 465.005871 418.086227 
L 465.998577 427.55044 
L 466.991283 407.974265 
L 467.983989 425.224665 
L 468.976695 418.845602 
L 469.9694 420.244693 
L 470.962106 433.24308 
L 471.954812 429.779615 
L 472.947518 436.111436 
L 473.940224 423.360955 
L 474.93293 417.344123 
L 475.925636 418.191939 
L 476.918342 419.363503 
L 477.911048 424.700672 
L 478.903754 420.138269 
L 479.89646 429.953327 
L 480.889166 425.368067 
L 481.881872 419.810851 
L 483.867283 436.134153 
L 484.859989 426.661712 
L 485.852695 428.379787 
L 486.845401 423.473809 
L 487.838107 435.389916 
L 488.830813 421.856041 
L 489.823519 424.325155 
L 490.816225 444.878144 
L 491.808931 426.823237 
L 492.801637 433.818252 
L 493.794343 426.999378 
L 494.787049 425.4788 
L 495.779754 418.861523 
L 496.77246 413.877625 
L 497.765166 430.199447 
L 499.750578 425.157273 
L 500.743284 438.364501 
L 501.73599 441.713909 
L 502.728696 435.64094 
L 503.721402 440.63243 
L 504.714108 429.179258 
L 505.706814 432.562331 
L 506.69952 424.745595 
L 507.692226 429.915525 
L 508.684932 439.208094 
L 509.677637 426.873015 
L 510.670343 420.305104 
L 511.663049 429.78389 
L 512.655755 435.719994 
L 513.648461 425.642919 
L 514.641167 433.591841 
L 515.633873 443.24724 
L 516.626579 430.818334 
L 517.619285 439.815265 
L 518.611991 427.089365 
L 519.604697 437.786323 
L 520.597403 440.447845 
L 521.590109 434.712406 
L 522.582814 439.920604 
L 523.57552 440.254834 
L 524.568226 439.846679 
L 525.560932 437.975428 
L 526.553638 430.693777 
L 527.546344 433.628396 
L 528.53905 442.491179 
L 529.531756 435.704671 
L 530.524462 427.553363 
L 531.517168 425.116102 
L 533.50258 433.488079 
L 534.495286 441.157277 
L 535.487991 426.506233 
L 536.480697 435.438111 
L 537.473403 443.337253 
L 538.466109 450.229017 
L 540.451521 441.355407 
L 541.444227 427.626984 
L 542.436933 448.415111 
L 543.429639 444.944289 
L 544.422345 438.955394 
L 545.415051 436.587142 
L 546.407757 453.846965 
L 547.400463 427.86623 
L 548.393168 439.84594 
L 549.385874 428.981608 
L 550.37858 445.165569 
L 551.371286 446.161693 
L 552.363992 452.785823 
L 553.356698 432.119617 
L 554.349404 431.368582 
L 555.34211 435.688379 
L 556.334816 441.054255 
L 557.327522 440.013586 
L 558.320228 436.760673 
L 559.312934 438.929294 
L 560.30564 441.748214 
L 561.298345 449.947585 
L 562.291051 441.502959 
L 563.283757 449.314234 
L 564.276463 452.374621 
L 566.261875 428.505537 
L 567.254581 443.085788 
L 568.247287 445.685882 
L 569.239993 444.767315 
L 570.232699 432.274333 
L 571.225405 443.271106 
L 572.218111 452.648788 
L 573.210817 446.224298 
L 574.203523 437.271209 
L 575.196228 436.27698 
L 576.188934 452.359995 
L 577.18164 445.680673 
L 578.174346 447.541542 
L 580.159758 452.990459 
L 581.152464 432.349573 
L 582.14517 445.589397 
L 583.137876 449.265583 
L 584.130582 462.099785 
L 585.123288 456.064974 
L 586.115994 437.120553 
L 587.1087 443.735861 
L 588.101405 442.517279 
L 589.094111 452.553391 
L 590.086817 441.547402 
L 591.079523 444.269972 
L 592.072229 452.925761 
L 593.064935 438.910011 
L 594.057641 448.758116 
L 595.050347 447.680555 
L 596.043053 450.593741 
L 597.035759 442.483616 
L 598.028465 448.770082 
L 599.021171 462.149377 
L 600.013877 449.25333 
L 601.006582 449.149858 
L 601.999288 444.768904 
L 602.991994 453.163852 
L 603.9847 444.626519 
L 604.977406 442.472464 
L 605.970112 460.074827 
L 606.962818 453.818567 
L 607.955524 443.496637 
L 608.94823 458.635887 
L 609.940936 453.949056 
L 610.933642 446.644291 
L 611.926348 450.324968 
L 612.919054 445.417261 
L 613.911759 449.598736 
L 614.904465 452.016383 
L 615.897171 449.056338 
L 616.889877 455.818606 
L 617.882583 452.991884 
L 618.875289 447.330054 
L 619.867995 453.787747 
L 620.860701 458.857226 
L 621.853407 453.80832 
L 622.846113 459.503928 
L 623.838819 457.675146 
L 624.831525 446.169795 
L 625.824231 455.915161 
L 626.816936 457.538832 
L 627.809642 454.941942 
L 628.802348 464.122405 
L 630.78776 448.004845 
L 631.780466 457.129754 
L 632.773172 458.994874 
L 633.765878 457.907169 
L 634.758584 462.857915 
L 635.75129 449.184761 
L 636.743996 453.025421 
L 637.736702 451.009137 
L 638.729408 458.219261 
L 639.722114 458.504556 
L 640.714819 455.963231 
L 641.707525 455.857417 
L 642.700231 453.193305 
L 643.692937 458.052988 
L 644.685643 460.204431 
L 645.678349 459.728726 
L 646.671055 452.871017 
L 647.663761 460.374027 
L 648.656467 459.409015 
L 649.649173 456.400608 
L 650.641879 455.733677 
L 651.634585 452.809737 
L 652.627291 458.197556 
L 653.619996 457.164739 
L 654.612702 457.47729 
L 655.605408 461.088063 
L 656.598114 462.203359 
L 657.59082 460.142331 
L 658.583526 453.796529 
L 659.576232 461.549025 
L 660.568938 455.83842 
L 661.561644 459.123886 
L 662.55435 460.155681 
L 663.547056 461.780066 
L 664.539762 457.515701 
L 665.532468 462.655323 
L 666.525173 459.548551 
L 667.517879 458.730501 
L 668.510585 459.150462 
L 669.503291 463.065786 
L 670.495997 460.063641 
L 671.488703 456.024846 
L 672.481409 459.213049 
L 673.474115 461.245733 
L 674.466821 460.952882 
L 675.459527 461.075057 
L 676.452233 460.894947 
L 677.444939 461.072438 
L 678.437645 462.089624 
L 679.43035 462.782167 
L 680.423056 461.077656 
L 681.415762 460.427701 
L 682.408468 460.927775 
L 683.401174 463.515443 
L 684.39388 463.040845 
L 685.386586 461.571092 
L 686.379292 463.366547 
L 687.371998 464.060951 
L 688.364704 462.277943 
L 689.35741 462.261205 
L 690.350116 463.33984 
L 691.342822 463.22009 
L 692.335527 462.967368 
L 693.328233 463.030366 
L 694.320939 464.851229 
L 695.313645 462.617941 
L 696.306351 462.916878 
L 697.299057 463.373268 
L 698.291763 462.895231 
L 699.284469 463.479267 
L 700.277175 462.879954 
L 701.269881 465.234734 
L 702.262587 464.277541 
L 703.255293 463.026503 
L 704.247999 463.560332 
L 705.240705 463.569465 
L 706.23341 464.183807 
L 707.226116 465.8244 
L 708.218822 466.229162 
L 709.211528 465.823385 
L 710.204234 465.16127 
L 711.19694 465.975811 
L 712.189646 465.215142 
L 713.182352 466.143486 
L 714.175058 464.124615 
L 715.167764 466.278259 
L 716.16047 464.391495 
L 717.153176 465.920932 
L 718.145882 465.775723 
L 719.138587 466.061279 
L 720.131293 466.114586 
L 721.123999 466.330212 
L 722.116705 466.893382 
L 723.109411 466.271394 
L 724.102117 465.971268 
L 725.094823 467.434233 
L 726.087529 465.450491 
L 728.072941 467.418262 
L 729.065647 466.727523 
L 730.058353 466.987147 
L 731.051059 467.81508 
L 732.043764 467.780277 
L 733.03647 467.568073 
L 734.029176 467.519201 
L 735.021882 469.129109 
L 737.007294 468.150185 
L 738 468.181204 
L 738.992706 467.60114 
L 739.985412 468.847486 
L 740.978118 468.332749 
L 741.970824 468.113596 
L 742.96353 469.714906 
L 743.956236 468.241842 
L 744.948941 468.814486 
L 745.941647 468.664562 
L 746.934353 468.75226 
L 747.927059 468.350949 
L 748.919765 469.315295 
L 749.912471 469.392574 
L 750.905177 469.098928 
L 751.897883 469.798434 
L 752.890589 469.438674 
L 753.883295 469.809044 
L 754.876001 471.523589 
L 755.868707 469.402035 
L 756.861413 469.90948 
L 757.854118 471.084428 
L 758.846824 468.72854 
L 759.83953 470.088097 
L 760.832236 470.19673 
L 761.824942 470.90552 
L 762.817648 470.327798 
L 764.80306 471.509457 
L 765.795766 470.804806 
L 766.788472 471.58677 
L 767.781178 470.802795 
L 768.773884 470.918487 
L 769.76659 471.739152 
L 770.759295 471.38289 
L 771.752001 470.177414 
L 772.744707 470.963119 
L 773.737413 471.203338 
L 774.730119 472.203731 
L 775.722825 470.529113 
L 776.715531 472.301277 
L 779.693649 472.073635 
L 780.686355 471.674288 
L 781.679061 471.979261 
L 782.671767 472.861896 
L 784.657178 472.943248 
L 785.649884 472.347415 
L 786.64259 472.742951 
L 787.635296 472.652214 
L 788.628002 473.079063 
L 789.620708 473.633077 
L 790.613414 473.81403 
L 791.60612 473.661485 
L 792.598826 473.190835 
L 793.591532 472.464555 
L 794.584238 473.951938 
L 795.576944 472.87235 
L 796.56965 472.682847 
L 798.555061 473.733849 
L 800.540473 474.197584 
L 801.533179 474.00348 
L 802.525885 473.201426 
L 803.518591 475.004916 
L 804.511297 474.581058 
L 805.504003 473.766749 
L 806.496709 474.926652 
L 807.489415 474.692608 
L 808.482121 473.917166 
L 809.474827 473.36813 
L 810.467532 473.590519 
L 811.460238 475.154109 
L 812.452944 475.835978 
L 813.44565 474.285948 
L 814.438356 475.243389 
L 815.431062 475.370857 
L 816.423768 475.072162 
L 817.416474 475.87491 
L 818.40918 475.765858 
L 819.401886 474.472465 
L 820.394592 476.433991 
L 821.387298 475.903248 
L 822.380004 476.027383 
L 823.372709 475.38216 
L 824.365415 476.588203 
L 825.358121 476.231521 
L 826.350827 476.874771 
L 827.343533 475.868268 
L 828.336239 475.389568 
L 829.328945 476.341315 
L 830.321651 475.85082 
L 831.314357 476.117448 
L 832.307063 477.123842 
L 833.299769 477.042462 
L 834.292475 476.219964 
L 835.285181 476.900893 
L 836.277886 476.345458 
L 837.270592 477.334928 
L 838.263298 476.926708 
L 839.256004 476.933771 
L 840.24871 477.417269 
L 841.241416 477.331364 
L 842.234122 478.094249 
L 843.226828 476.134182 
L 844.219534 477.221185 
L 845.21224 477.687879 
L 846.204946 477.772451 
L 847.197652 477.167705 
L 848.190358 477.87962 
L 849.183064 477.499572 
L 850.175769 477.911 
L 851.168475 478.962049 
L 852.161181 478.093626 
L 853.153887 477.462544 
L 854.146593 479.11153 
L 856.132005 477.591261 
L 857.124711 477.543161 
L 858.117417 478.357646 
L 859.110123 478.404451 
L 860.102829 478.965686 
L 861.095535 478.781893 
L 862.088241 477.933562 
L 863.080946 478.9048 
L 864.073652 478.909757 
L 865.066358 478.450255 
L 866.059064 479.353399 
L 867.05177 478.734272 
L 868.044476 479.515614 
L 869.037182 479.75959 
L 870.029888 478.002317 
L 871.022594 478.113917 
L 872.0153 479.146887 
L 873.008006 478.730684 
L 874.000712 479.062889 
L 874.993418 479.722591 
L 875.986123 480.026319 
L 876.978829 479.457602 
L 877.971535 479.307344 
L 878.964241 479.696317 
L 879.956947 478.866237 
L 880.949653 480.515537 
L 881.942359 480.922139 
L 882.935065 480.738444 
L 883.927771 479.897594 
L 884.920477 479.894633 
L 885.913183 480.046712 
L 886.905889 481.54511 
L 887.898595 480.886066 
L 889.884006 481.365973 
L 890.876712 480.855924 
L 891.869418 480.540091 
L 892.862124 480.72768 
L 893.85483 481.54861 
L 894.847536 480.407027 
L 895.840242 480.933431 
L 896.832948 479.280764 
L 897.825654 481.683638 
L 898.81836 481.868705 
L 899.811066 482.341541 
L 900.803772 481.879454 
L 901.796477 481.046634 
L 902.789183 482.290757 
L 903.781889 481.031833 
L 904.774595 481.70199 
L 905.767301 480.6393 
L 906.760007 482.008372 
L 907.752713 482.294817 
L 908.745419 482.121902 
L 909.738125 481.571019 
L 910.730831 481.899683 
L 911.723537 481.383163 
L 912.716243 483.004679 
L 913.708949 482.132924 
L 914.701655 481.601184 
L 915.69436 482.251747 
L 916.687066 483.67887 
L 917.679772 481.901059 
L 918.672478 481.234685 
L 919.665184 481.404013 
L 920.65789 483.307252 
L 922.643302 482.793475 
L 923.636008 483.075357 
L 924.628714 482.918341 
L 925.62142 483.576511 
L 926.614126 482.760924 
L 927.606832 482.600798 
L 928.599537 482.113669 
L 929.592243 483.578858 
L 930.584949 482.832829 
L 931.577655 484.114776 
L 932.570361 483.217146 
L 933.563067 482.508847 
L 934.555773 482.653953 
L 935.548479 483.03444 
L 936.541185 483.094398 
L 937.533891 484.604009 
L 938.526597 484.341199 
L 939.519303 483.271191 
L 940.512009 482.987827 
L 941.504714 483.334408 
L 942.49742 482.891716 
L 943.490126 484.05481 
L 944.482832 483.72821 
L 945.475538 484.623946 
L 946.468244 484.303396 
L 947.46095 484.214528 
L 948.453656 483.428364 
L 949.446362 484.449705 
L 950.439068 484.70621 
L 951.431774 483.627064 
L 952.42448 484.046134 
L 953.417186 483.439934 
L 954.409891 483.363552 
L 955.402597 484.828779 
L 957.388009 483.88899 
L 959.373421 484.727161 
L 960.366127 484.013615 
L 962.351539 484.742674 
L 963.344245 485.624685 
L 964.336951 485.275898 
L 965.329657 484.168703 
L 966.322363 484.926195 
L 967.315068 486.326785 
L 968.307774 485.344745 
L 969.30048 484.999181 
L 970.293186 485.022761 
L 972.278598 484.834758 
L 973.271304 485.820645 
L 974.26401 485.426419 
L 976.249422 485.345774 
L 977.242128 485.886494 
L 978.234834 485.771867 
L 980.220246 485.155034 
L 981.212951 486.067597 
L 982.205657 484.575611 
L 984.191069 485.405829 
L 985.183775 485.376492 
L 986.176481 484.956013 
L 987.169187 486.031499 
L 988.161893 485.722292 
L 989.154599 484.996585 
L 990.147305 486.330158 
L 992.132717 485.409953 
L 993.125423 486.513001 
L 994.118128 486.741258 
L 995.110834 486.797202 
L 996.10354 485.016015 
L 997.096246 485.910067 
L 998.088952 485.519304 
L 999.081658 486.013332 
L 1000.074364 486.345312 
L 1001.06707 488.110572 
L 1002.059776 485.949899 
L 1003.052482 487.117357 
L 1005.037894 486.170399 
L 1006.0306 485.056494 
L 1007.023305 486.25822 
L 1008.016011 486.791594 
L 1009.008717 487.002309 
L 1010.001423 486.677284 
L 1010.994129 486.775767 
L 1011.986835 486.345623 
L 1013.972247 486.51201 
L 1014.964953 486.218507 
L 1015.957659 487.37385 
L 1016.950365 486.530724 
L 1017.943071 487.348042 
L 1018.935777 486.722554 
L 1019.928482 487.272286 
L 1020.921188 488.205266 
L 1021.913894 487.639935 
L 1022.9066 486.879394 
L 1023.899306 487.149371 
L 1024.892012 486.942345 
L 1025.884718 488.549468 
L 1026.877424 487.866181 
L 1027.87013 487.457729 
L 1028.862836 488.180154 
L 1029.855542 487.78854 
L 1030.848248 486.941806 
L 1031.840954 487.947736 
L 1032.833659 487.277095 
L 1033.826365 488.347161 
L 1034.819071 487.61401 
L 1035.811777 487.175252 
L 1036.804483 488.08247 
L 1037.797189 487.59192 
L 1038.789895 489.35033 
L 1039.782601 487.810313 
L 1040.775307 488.681005 
L 1041.768013 487.825691 
L 1043.753425 488.521089 
L 1044.746131 487.988881 
L 1045.738837 486.979076 
L 1046.731542 487.636948 
L 1047.724248 488.846806 
L 1048.716954 488.025668 
L 1049.70966 488.631596 
L 1050.702366 488.081127 
L 1051.695072 488.703879 
L 1052.687778 488.080753 
L 1053.680484 489.075257 
L 1054.67319 488.840642 
L 1055.665896 488.240625 
L 1057.651308 488.068857 
L 1058.644014 488.912138 
L 1059.636719 488.572683 
L 1060.629425 489.970261 
L 1061.622131 487.478212 
L 1062.614837 488.792167 
L 1063.607543 489.213937 
L 1064.600249 487.70612 
L 1065.592955 488.733463 
L 1066.585661 488.237711 
L 1068.571073 488.616726 
L 1069.563779 489.07916 
L 1070.556485 489.318536 
L 1071.549191 488.421054 
L 1072.541896 489.279228 
L 1073.534602 489.939613 
L 1074.527308 489.152089 
L 1075.520014 489.681006 
L 1076.51272 488.571147 
L 1077.505426 488.070472 
L 1078.498132 489.172037 
L 1079.490838 488.997044 
L 1080.483544 488.6931 
L 1082.468956 488.629994 
L 1083.461662 490.369481 
L 1084.454368 487.715699 
L 1085.447073 488.515483 
L 1086.439779 489.748544 
L 1087.432485 489.204202 
L 1088.425191 489.184223 
L 1089.417897 488.292856 
L 1090.410603 488.869548 
L 1091.403309 489.843757 
L 1092.396015 490.103477 
L 1093.388721 489.547327 
L 1094.381427 491.014132 
L 1095.374133 491.003023 
L 1096.366839 488.698881 
L 1097.359545 490.626867 
L 1098.35225 489.801492 
L 1100.337662 489.39751 
L 1101.330368 488.837815 
L 1102.323074 489.610201 
L 1103.31578 488.974957 
L 1104.308486 488.916145 
L 1105.301192 489.549769 
L 1106.293898 489.823059 
L 1107.286604 489.950324 
L 1108.27931 490.42971 
L 1109.272016 489.659318 
L 1110.264722 490.233185 
L 1111.257428 489.039634 
L 1112.250133 490.299814 
L 1113.242839 490.483255 
L 1114.235545 490.32282 
L 1115.228251 489.35371 
L 1116.220957 491.041419 
L 1117.213663 489.251304 
L 1118.206369 490.50716 
L 1119.199075 490.135076 
L 1120.191781 489.497629 
L 1121.184487 489.853633 
L 1122.177193 489.737254 
L 1124.162605 490.546124 
L 1125.15531 488.655349 
L 1126.148016 490.770281 
L 1127.140722 489.663305 
L 1128.133428 489.923973 
L 1129.126134 488.767041 
L 1130.11884 490.103478 
L 1131.111546 490.591254 
L 1132.104252 490.40293 
L 1133.096958 490.014643 
L 1134.089664 491.718956 
L 1135.08237 490.111296 
L 1136.075076 489.526149 
L 1137.067782 490.390892 
L 1138.060487 490.549452 
L 1139.053193 489.82087 
L 1140.045899 490.037193 
L 1141.038605 490.12052 
L 1142.031311 489.795316 
L 1143.024017 490.678168 
L 1145.009429 489.957692 
L 1146.002135 490.414084 
L 1146.994841 490.215978 
L 1147.987547 490.68517 
L 1148.980253 489.728688 
L 1149.972959 489.474024 
L 1150.965664 490.771388 
L 1151.95837 491.166553 
L 1152.951076 491.145416 
L 1153.943782 490.827326 
L 1154.936488 491.718932 
L 1155.929194 491.067015 
L 1156.9219 489.796039 
L 1157.914606 491.226332 
L 1158.907312 490.845714 
L 1159.900018 489.858102 
L 1160.892724 489.895167 
L 1161.88543 490.737552 
L 1162.878136 490.264084 
L 1163.870841 491.174693 
L 1164.863547 490.661504 
L 1165.856253 491.58968 
L 1166.848959 490.220538 
L 1167.841665 490.902071 
L 1169.827077 490.808067 
L 1170.819783 490.520423 
L 1172.805195 491.202625 
L 1173.797901 490.366511 
L 1174.790607 490.622542 
L 1175.783313 491.371697 
L 1176.776019 491.428391 
L 1177.768724 490.47614 
L 1178.76143 490.946758 
L 1179.754136 491.223836 
L 1180.746842 490.731173 
L 1181.739548 490.566466 
L 1182.732254 490.883791 
L 1183.72496 490.403922 
L 1184.717666 491.517082 
L 1185.710372 491.550622 
L 1186.703078 489.698583 
L 1187.695784 491.950715 
L 1188.68849 492.439197 
L 1189.681196 490.79063 
L 1190.673901 490.659793 
L 1191.666607 490.832584 
L 1192.659313 491.377557 
L 1193.652019 491.209166 
L 1194.644725 490.728475 
L 1195.637431 490.474682 
L 1196.630137 490.996559 
L 1197.622843 491.243725 
L 1198.615549 491.295764 
L 1199.608255 490.556296 
L 1200.600961 490.946595 
L 1201.593667 490.859551 
L 1202.586373 491.654036 
L 1203.579078 490.915012 
L 1204.571784 490.653706 
L 1205.56449 491.745924 
L 1207.549902 491.329099 
L 1208.542608 491.568015 
L 1209.535314 491.422774 
L 1210.52802 491.519725 
L 1211.520726 491.359761 
L 1212.513432 492.139325 
L 1213.506138 490.903638 
L 1214.498844 491.826094 
L 1215.49155 490.647506 
L 1217.476961 491.947894 
L 1218.469667 491.523817 
L 1220.455079 491.541839 
L 1221.447785 491.378519 
L 1222.440491 490.738978 
L 1223.433197 491.448516 
L 1224.425903 491.02093 
L 1225.418609 491.297139 
L 1226.411315 491.950259 
L 1227.404021 491.397791 
L 1228.396727 491.315641 
L 1229.389432 490.705111 
L 1230.382138 491.938527 
L 1231.374844 491.38957 
L 1232.36755 491.80954 
L 1234.352962 491.051351 
L 1235.345668 491.770713 
L 1236.338374 490.852675 
L 1237.33108 492.48 
L 1238.323786 491.160918 
L 1240.309198 490.555329 
L 1241.301904 491.173944 
L 1242.29461 492.126576 
L 1243.287315 491.62092 
L 1244.280021 490.886992 
L 1245.272727 491.166064 
L 1245.272727 491.166064 
" clip-path="url(#p84d03facee)" style="fill: none; stroke: #1f77b4; stroke-width: 1.5; stroke-linecap: square"/>
   </g>
   <g id="patch_3">
    <path d="M 180 512.64 
L 180 69.12 
" style="fill: none; stroke: #000000; stroke-width: 0.8; stroke-linejoin: miter; stroke-linecap: square"/>
   </g>
   <g id="patch_4">
    <path d="M 1296 512.64 
L 1296 69.12 
" style="fill: none; stroke: #000000; stroke-width: 0.8; stroke-linejoin: miter; stroke-linecap: square"/>
   </g>
   <g id="patch_5">
    <path d="M 180 512.64 
L 1296 512.64 
" style="fill: none; stroke: #000000; stroke-width: 0.8; stroke-linejoin: miter; stroke-linecap: square"/>
   </g>
   <g id="patch_6">
    <path d="M 180 69.12 
L 1296 69.12 
" style="fill: none; stroke: #000000; stroke-width: 0.8; stroke-linejoin: miter; stroke-linecap: square"/>
   </g>
   <g id="text_13">
    <!-- source19-receiver23 -->
    <g transform="translate(532.175 60.80125) scale(0.4 -0.4)">
     <defs>
      <path id="DejaVuSans-73" d="M 2834 3397 
L 2834 2853 
Q 2591 2978 2328 3040 
Q 2066 3103 1784 3103 
Q 1356 3103 1142 2972 
Q 928 2841 928 2578 
Q 928 2378 1081 2264 
Q 1234 2150 1697 2047 
L 1894 2003 
Q 2506 1872 2764 1633 
Q 3022 1394 3022 966 
Q 3022 478 2636 193 
Q 2250 -91 1575 -91 
Q 1294 -91 989 -36 
Q 684 19 347 128 
L 347 722 
Q 666 556 975 473 
Q 1284 391 1588 391 
Q 1994 391 2212 530 
Q 2431 669 2431 922 
Q 2431 1156 2273 1281 
Q 2116 1406 1581 1522 
L 1381 1569 
Q 847 1681 609 1914 
Q 372 2147 372 2553 
Q 372 3047 722 3315 
Q 1072 3584 1716 3584 
Q 2034 3584 2315 3537 
Q 2597 3491 2834 3397 
z
" transform="scale(0.015625)"/>
      <path id="DejaVuSans-6f" d="M 1959 3097 
Q 1497 3097 1228 2736 
Q 959 2375 959 1747 
Q 959 1119 1226 758 
Q 1494 397 1959 397 
Q 2419 397 2687 759 
Q 2956 1122 2956 1747 
Q 2956 2369 2687 2733 
Q 2419 3097 1959 3097 
z
M 1959 3584 
Q 2709 3584 3137 3096 
Q 3566 2609 3566 1747 
Q 3566 888 3137 398 
Q 2709 -91 1959 -91 
Q 1206 -91 779 398 
Q 353 888 353 1747 
Q 353 2609 779 3096 
Q 1206 3584 1959 3584 
z
" transform="scale(0.015625)"/>
      <path id="DejaVuSans-75" d="M 544 1381 
L 544 3500 
L 1119 3500 
L 1119 1403 
Q 1119 906 1312 657 
Q 1506 409 1894 409 
Q 2359 409 2629 706 
Q 2900 1003 2900 1516 
L 2900 3500 
L 3475 3500 
L 3475 0 
L 2900 0 
L 2900 538 
Q 2691 219 2414 64 
Q 2138 -91 1772 -91 
Q 1169 -91 856 284 
Q 544 659 544 1381 
z
M 1991 3584 
L 1991 3584 
z
" transform="scale(0.015625)"/>
      <path id="DejaVuSans-72" d="M 2631 2963 
Q 2534 3019 2420 3045 
Q 2306 3072 2169 3072 
Q 1681 3072 1420 2755 
Q 1159 2438 1159 1844 
L 1159 0 
L 581 0 
L 581 3500 
L 1159 3500 
L 1159 2956 
Q 1341 3275 1631 3429 
Q 1922 3584 2338 3584 
Q 2397 3584 2469 3576 
Q 2541 3569 2628 3553 
L 2631 2963 
z
" transform="scale(0.015625)"/>
      <path id="DejaVuSans-63" d="M 3122 3366 
L 3122 2828 
Q 2878 2963 2633 3030 
Q 2388 3097 2138 3097 
Q 1578 3097 1268 2742 
Q 959 2388 959 1747 
Q 959 1106 1268 751 
Q 1578 397 2138 397 
Q 2388 397 2633 464 
Q 2878 531 3122 666 
L 3122 134 
Q 2881 22 2623 -34 
Q 2366 -91 2075 -91 
Q 1284 -91 818 406 
Q 353 903 353 1747 
Q 353 2603 823 3093 
Q 1294 3584 2113 3584 
Q 2378 3584 2631 3529 
Q 2884 3475 3122 3366 
z
" transform="scale(0.015625)"/>
      <path id="DejaVuSans-65" d="M 3597 1894 
L 3597 1613 
L 953 1613 
Q 991 1019 1311 708 
Q 1631 397 2203 397 
Q 2534 397 2845 478 
Q 3156 559 3463 722 
L 3463 178 
Q 3153 47 2828 -22 
Q 2503 -91 2169 -91 
Q 1331 -91 842 396 
Q 353 884 353 1716 
Q 353 2575 817 3079 
Q 1281 3584 2069 3584 
Q 2775 3584 3186 3129 
Q 3597 2675 3597 1894 
z
M 3022 2063 
Q 3016 2534 2758 2815 
Q 2500 3097 2075 3097 
Q 1594 3097 1305 2825 
Q 1016 2553 972 2059 
L 3022 2063 
z
" transform="scale(0.015625)"/>
      <path id="DejaVuSans-39" d="M 703 97 
L 703 672 
Q 941 559 1184 500 
Q 1428 441 1663 441 
Q 2288 441 2617 861 
Q 2947 1281 2994 2138 
Q 2813 1869 2534 1725 
Q 2256 1581 1919 1581 
Q 1219 1581 811 2004 
Q 403 2428 403 3163 
Q 403 3881 828 4315 
Q 1253 4750 1959 4750 
Q 2769 4750 3195 4129 
Q 3622 3509 3622 2328 
Q 3622 1225 3098 567 
Q 2575 -91 1691 -91 
Q 1453 -91 1209 -44 
Q 966 3 703 97 
z
M 1959 2075 
Q 2384 2075 2632 2365 
Q 2881 2656 2881 3163 
Q 2881 3666 2632 3958 
Q 2384 4250 1959 4250 
Q 1534 4250 1286 3958 
Q 1038 3666 1038 3163 
Q 1038 2656 1286 2365 
Q 1534 2075 1959 2075 
z
" transform="scale(0.015625)"/>
      <path id="DejaVuSans-2d" d="M 313 2009 
L 1997 2009 
L 1997 1497 
L 313 1497 
L 313 2009 
z
" transform="scale(0.015625)"/>
      <path id="DejaVuSans-69" d="M 603 3500 
L 1178 3500 
L 1178 0 
L 603 0 
L 603 3500 
z
M 603 4863 
L 1178 4863 
L 1178 4134 
L 603 4134 
L 603 4863 
z
" transform="scale(0.015625)"/>
      <path id="DejaVuSans-76" d="M 191 3500 
L 800 3500 
L 1894 563 
L 2988 3500 
L 3597 3500 
L 2284 0 
L 1503 0 
L 191 3500 
z
" transform="scale(0.015625)"/>
     </defs>
     <use xlink:href="#DejaVuSans-73"/>
     <use xlink:href="#DejaVuSans-6f" x="52.099609"/>
     <use xlink:href="#DejaVuSans-75" x="113.28125"/>
     <use xlink:href="#DejaVuSans-72" x="176.660156"/>
     <use xlink:href="#DejaVuSans-63" x="215.523438"/>
     <use xlink:href="#DejaVuSans-65" x="270.503906"/>
     <use xlink:href="#DejaVuSans-31" x="332.027344"/>
     <use xlink:href="#DejaVuSans-39" x="395.650391"/>
     <use xlink:href="#DejaVuSans-2d" x="459.273438"/>
     <use xlink:href="#DejaVuSans-72" x="495.357422"/>
     <use xlink:href="#DejaVuSans-65" x="534.220703"/>
     <use xlink:href="#DejaVuSans-63" x="595.744141"/>
     <use xlink:href="#DejaVuSans-65" x="650.724609"/>
     <use xlink:href="#DejaVuSans-69" x="712.248047"/>
     <use xlink:href="#DejaVuSans-76" x="740.03125"/>
     <use xlink:href="#DejaVuSans-65" x="799.210938"/>
     <use xlink:href="#DejaVuSans-72" x="860.734375"/>
     <use xlink:href="#DejaVuSans-32" x="901.847656"/>
     <use xlink:href="#DejaVuSans-33" x="965.470703"/>
    </g>
   </g>
  </g>
 </g>
 <defs>
  <clipPath id="p84d03facee">
   <rect x="180" y="69.12" width="1116" height="443.52"/>
  </clipPath>
 </defs>
</svg>
