<?xml version="1.0" encoding="utf-8" standalone="no"?>
<!DOCTYPE svg PUBLIC "-//W3C//DTD SVG 1.1//EN"
  "http://www.w3.org/Graphics/SVG/1.1/DTD/svg11.dtd">
<svg xmlns:xlink="http://www.w3.org/1999/xlink" width="1440pt" height="576pt" viewBox="0 0 1440 576" xmlns="http://www.w3.org/2000/svg" version="1.1">
 <metadata>
  <rdf:RDF xmlns:dc="http://purl.org/dc/elements/1.1/" xmlns:cc="http://creativecommons.org/ns#" xmlns:rdf="http://www.w3.org/1999/02/22-rdf-syntax-ns#">
   <cc:Work>
    <dc:type rdf:resource="http://purl.org/dc/dcmitype/StillImage"/>
    <dc:date>2024-05-22T04:50:16.693488</dc:date>
    <dc:format>image/svg+xml</dc:format>
    <dc:creator>
     <cc:Agent>
      <dc:title>Matplotlib v3.8.3, https://matplotlib.org/</dc:title>
     </cc:Agent>
    </dc:creator>
   </cc:Work>
  </rdf:RDF>
 </metadata>
 <defs>
  <style type="text/css">*{stroke-linejoin: round; stroke-linecap: butt}</style>
 </defs>
 <g id="figure_1">
  <g id="patch_1">
   <path d="M 0 576 
L 1440 576 
L 1440 0 
L 0 0 
z
" style="fill: #ffffff"/>
  </g>
  <g id="axes_1">
   <g id="patch_2">
    <path d="M 180 512.64 
L 1296 512.64 
L 1296 69.12 
L 180 69.12 
z
" style="fill: #ffffff"/>
   </g>
   <g id="matplotlib.axis_1">
    <g id="xtick_1">
     <g id="line2d_1">
      <defs>
       <path id="mbccdb93653" d="M 0 0 
L 0 3.5 
" style="stroke: #000000; stroke-width: 0.8"/>
      </defs>
      <g>
       <use xlink:href="#mbccdb93653" x="229.734567" y="512.64" style="stroke: #000000; stroke-width: 0.8"/>
      </g>
     </g>
     <g id="text_1">
      <!-- 0 -->
      <g transform="translate(226.553317 527.238438) scale(0.1 -0.1)">
       <defs>
        <path id="DejaVuSans-30" d="M 2034 4250 
Q 1547 4250 1301 3770 
Q 1056 3291 1056 2328 
Q 1056 1369 1301 889 
Q 1547 409 2034 409 
Q 2525 409 2770 889 
Q 3016 1369 3016 2328 
Q 3016 3291 2770 3770 
Q 2525 4250 2034 4250 
z
M 2034 4750 
Q 2819 4750 3233 4129 
Q 3647 3509 3647 2328 
Q 3647 1150 3233 529 
Q 2819 -91 2034 -91 
Q 1250 -91 836 529 
Q 422 1150 422 2328 
Q 422 3509 836 4129 
Q 1250 4750 2034 4750 
z
" transform="scale(0.015625)"/>
       </defs>
       <use xlink:href="#DejaVuSans-30"/>
      </g>
     </g>
    </g>
    <g id="xtick_2">
     <g id="line2d_2">
      <g>
       <use xlink:href="#mbccdb93653" x="433.04074" y="512.64" style="stroke: #000000; stroke-width: 0.8"/>
      </g>
     </g>
     <g id="text_2">
      <!-- 500 -->
      <g transform="translate(423.49699 527.238438) scale(0.1 -0.1)">
       <defs>
        <path id="DejaVuSans-35" d="M 691 4666 
L 3169 4666 
L 3169 4134 
L 1269 4134 
L 1269 2991 
Q 1406 3038 1543 3061 
Q 1681 3084 1819 3084 
Q 2600 3084 3056 2656 
Q 3513 2228 3513 1497 
Q 3513 744 3044 326 
Q 2575 -91 1722 -91 
Q 1428 -91 1123 -41 
Q 819 9 494 109 
L 494 744 
Q 775 591 1075 516 
Q 1375 441 1709 441 
Q 2250 441 2565 725 
Q 2881 1009 2881 1497 
Q 2881 1984 2565 2268 
Q 2250 2553 1709 2553 
Q 1456 2553 1204 2497 
Q 953 2441 691 2322 
L 691 4666 
z
" transform="scale(0.015625)"/>
       </defs>
       <use xlink:href="#DejaVuSans-35"/>
       <use xlink:href="#DejaVuSans-30" x="63.623047"/>
       <use xlink:href="#DejaVuSans-30" x="127.246094"/>
      </g>
     </g>
    </g>
    <g id="xtick_3">
     <g id="line2d_3">
      <g>
       <use xlink:href="#mbccdb93653" x="636.346913" y="512.64" style="stroke: #000000; stroke-width: 0.8"/>
      </g>
     </g>
     <g id="text_3">
      <!-- 1000 -->
      <g transform="translate(623.621913 527.238438) scale(0.1 -0.1)">
       <defs>
        <path id="DejaVuSans-31" d="M 794 531 
L 1825 531 
L 1825 4091 
L 703 3866 
L 703 4441 
L 1819 4666 
L 2450 4666 
L 2450 531 
L 3481 531 
L 3481 0 
L 794 0 
L 794 531 
z
" transform="scale(0.015625)"/>
       </defs>
       <use xlink:href="#DejaVuSans-31"/>
       <use xlink:href="#DejaVuSans-30" x="63.623047"/>
       <use xlink:href="#DejaVuSans-30" x="127.246094"/>
       <use xlink:href="#DejaVuSans-30" x="190.869141"/>
      </g>
     </g>
    </g>
    <g id="xtick_4">
     <g id="line2d_4">
      <g>
       <use xlink:href="#mbccdb93653" x="839.653087" y="512.64" style="stroke: #000000; stroke-width: 0.8"/>
      </g>
     </g>
     <g id="text_4">
      <!-- 1500 -->
      <g transform="translate(826.928087 527.238438) scale(0.1 -0.1)">
       <use xlink:href="#DejaVuSans-31"/>
       <use xlink:href="#DejaVuSans-35" x="63.623047"/>
       <use xlink:href="#DejaVuSans-30" x="127.246094"/>
       <use xlink:href="#DejaVuSans-30" x="190.869141"/>
      </g>
     </g>
    </g>
    <g id="xtick_5">
     <g id="line2d_5">
      <g>
       <use xlink:href="#mbccdb93653" x="1042.95926" y="512.64" style="stroke: #000000; stroke-width: 0.8"/>
      </g>
     </g>
     <g id="text_5">
      <!-- 2000 -->
      <g transform="translate(1030.23426 527.238438) scale(0.1 -0.1)">
       <defs>
        <path id="DejaVuSans-32" d="M 1228 531 
L 3431 531 
L 3431 0 
L 469 0 
L 469 531 
Q 828 903 1448 1529 
Q 2069 2156 2228 2338 
Q 2531 2678 2651 2914 
Q 2772 3150 2772 3378 
Q 2772 3750 2511 3984 
Q 2250 4219 1831 4219 
Q 1534 4219 1204 4116 
Q 875 4013 500 3803 
L 500 4441 
Q 881 4594 1212 4672 
Q 1544 4750 1819 4750 
Q 2544 4750 2975 4387 
Q 3406 4025 3406 3419 
Q 3406 3131 3298 2873 
Q 3191 2616 2906 2266 
Q 2828 2175 2409 1742 
Q 1991 1309 1228 531 
z
" transform="scale(0.015625)"/>
       </defs>
       <use xlink:href="#DejaVuSans-32"/>
       <use xlink:href="#DejaVuSans-30" x="63.623047"/>
       <use xlink:href="#DejaVuSans-30" x="127.246094"/>
       <use xlink:href="#DejaVuSans-30" x="190.869141"/>
      </g>
     </g>
    </g>
    <g id="xtick_6">
     <g id="line2d_6">
      <g>
       <use xlink:href="#mbccdb93653" x="1246.265433" y="512.64" style="stroke: #000000; stroke-width: 0.8"/>
      </g>
     </g>
     <g id="text_6">
      <!-- 2500 -->
      <g transform="translate(1233.540433 527.238438) scale(0.1 -0.1)">
       <use xlink:href="#DejaVuSans-32"/>
       <use xlink:href="#DejaVuSans-35" x="63.623047"/>
       <use xlink:href="#DejaVuSans-30" x="127.246094"/>
       <use xlink:href="#DejaVuSans-30" x="190.869141"/>
      </g>
     </g>
    </g>
   </g>
   <g id="matplotlib.axis_2">
    <g id="ytick_1">
     <g id="line2d_7">
      <defs>
       <path id="m8dfb9ca72a" d="M 0 0 
L -3.5 0 
" style="stroke: #000000; stroke-width: 0.8"/>
      </defs>
      <g>
       <use xlink:href="#m8dfb9ca72a" x="180" y="473.416321" style="stroke: #000000; stroke-width: 0.8"/>
      </g>
     </g>
     <g id="text_7">
      <!-- −6 -->
      <g transform="translate(158.257812 477.21554) scale(0.1 -0.1)">
       <defs>
        <path id="DejaVuSans-2212" d="M 678 2272 
L 4684 2272 
L 4684 1741 
L 678 1741 
L 678 2272 
z
" transform="scale(0.015625)"/>
        <path id="DejaVuSans-36" d="M 2113 2584 
Q 1688 2584 1439 2293 
Q 1191 2003 1191 1497 
Q 1191 994 1439 701 
Q 1688 409 2113 409 
Q 2538 409 2786 701 
Q 3034 994 3034 1497 
Q 3034 2003 2786 2293 
Q 2538 2584 2113 2584 
z
M 3366 4563 
L 3366 3988 
Q 3128 4100 2886 4159 
Q 2644 4219 2406 4219 
Q 1781 4219 1451 3797 
Q 1122 3375 1075 2522 
Q 1259 2794 1537 2939 
Q 1816 3084 2150 3084 
Q 2853 3084 3261 2657 
Q 3669 2231 3669 1497 
Q 3669 778 3244 343 
Q 2819 -91 2113 -91 
Q 1303 -91 875 529 
Q 447 1150 447 2328 
Q 447 3434 972 4092 
Q 1497 4750 2381 4750 
Q 2619 4750 2861 4703 
Q 3103 4656 3366 4563 
z
" transform="scale(0.015625)"/>
       </defs>
       <use xlink:href="#DejaVuSans-2212"/>
       <use xlink:href="#DejaVuSans-36" x="83.789062"/>
      </g>
     </g>
    </g>
    <g id="ytick_2">
     <g id="line2d_8">
      <g>
       <use xlink:href="#m8dfb9ca72a" x="180" y="407.120898" style="stroke: #000000; stroke-width: 0.8"/>
      </g>
     </g>
     <g id="text_8">
      <!-- −4 -->
      <g transform="translate(158.257812 410.920117) scale(0.1 -0.1)">
       <defs>
        <path id="DejaVuSans-34" d="M 2419 4116 
L 825 1625 
L 2419 1625 
L 2419 4116 
z
M 2253 4666 
L 3047 4666 
L 3047 1625 
L 3713 1625 
L 3713 1100 
L 3047 1100 
L 3047 0 
L 2419 0 
L 2419 1100 
L 313 1100 
L 313 1709 
L 2253 4666 
z
" transform="scale(0.015625)"/>
       </defs>
       <use xlink:href="#DejaVuSans-2212"/>
       <use xlink:href="#DejaVuSans-34" x="83.789062"/>
      </g>
     </g>
    </g>
    <g id="ytick_3">
     <g id="line2d_9">
      <g>
       <use xlink:href="#m8dfb9ca72a" x="180" y="340.825476" style="stroke: #000000; stroke-width: 0.8"/>
      </g>
     </g>
     <g id="text_9">
      <!-- −2 -->
      <g transform="translate(158.257812 344.624695) scale(0.1 -0.1)">
       <use xlink:href="#DejaVuSans-2212"/>
       <use xlink:href="#DejaVuSans-32" x="83.789062"/>
      </g>
     </g>
    </g>
    <g id="ytick_4">
     <g id="line2d_10">
      <g>
       <use xlink:href="#m8dfb9ca72a" x="180" y="274.530053" style="stroke: #000000; stroke-width: 0.8"/>
      </g>
     </g>
     <g id="text_10">
      <!-- 0 -->
      <g transform="translate(166.6375 278.329272) scale(0.1 -0.1)">
       <use xlink:href="#DejaVuSans-30"/>
      </g>
     </g>
    </g>
    <g id="ytick_5">
     <g id="line2d_11">
      <g>
       <use xlink:href="#m8dfb9ca72a" x="180" y="208.234631" style="stroke: #000000; stroke-width: 0.8"/>
      </g>
     </g>
     <g id="text_11">
      <!-- 2 -->
      <g transform="translate(166.6375 212.033849) scale(0.1 -0.1)">
       <use xlink:href="#DejaVuSans-32"/>
      </g>
     </g>
    </g>
    <g id="ytick_6">
     <g id="line2d_12">
      <g>
       <use xlink:href="#m8dfb9ca72a" x="180" y="141.939208" style="stroke: #000000; stroke-width: 0.8"/>
      </g>
     </g>
     <g id="text_12">
      <!-- 4 -->
      <g transform="translate(166.6375 145.738427) scale(0.1 -0.1)">
       <use xlink:href="#DejaVuSans-34"/>
      </g>
     </g>
    </g>
    <g id="ytick_7">
     <g id="line2d_13">
      <g>
       <use xlink:href="#m8dfb9ca72a" x="180" y="75.643785" style="stroke: #000000; stroke-width: 0.8"/>
      </g>
     </g>
     <g id="text_13">
      <!-- 6 -->
      <g transform="translate(166.6375 79.443004) scale(0.1 -0.1)">
       <use xlink:href="#DejaVuSans-36"/>
      </g>
     </g>
    </g>
   </g>
   <g id="line2d_14">
    <path d="M 230.727273 246.596144 
L 231.719979 267.162878 
L 232.712685 259.807629 
L 233.70539 272.31765 
L 234.698096 256.446662 
L 235.690802 259.94966 
L 236.683508 259.872533 
L 237.676214 248.577232 
L 238.66892 277.762232 
L 239.661626 237.088901 
L 240.654332 274.089423 
L 241.647038 252.792733 
L 242.639744 260.053475 
L 243.63245 244.908974 
L 244.625156 275.039403 
L 245.617862 236.477124 
L 246.610568 253.276718 
L 247.603273 225.820909 
L 248.595979 217.307604 
L 249.588685 226.421947 
L 250.581391 178.04149 
L 251.574097 171.530311 
L 252.566803 182.579572 
L 253.559509 189.503812 
L 254.552215 189.049894 
L 255.544921 227.14443 
L 256.537627 161.395895 
L 257.530333 140.128245 
L 258.523039 138.733278 
L 259.515745 158.255056 
L 260.50845 157.732398 
L 261.501156 150.849957 
L 262.493862 140.422806 
L 263.486568 140.910394 
L 264.479274 165.04046 
L 265.47198 156.771805 
L 266.464686 142.956896 
L 267.457392 153.299403 
L 268.450098 151.190565 
L 269.442804 141.110916 
L 270.43551 146.528677 
L 271.428216 138.774039 
L 272.420922 139.410363 
L 273.413627 151.682482 
L 274.406333 152.415831 
L 275.399039 118.203529 
L 276.391745 121.909316 
L 277.384451 128.926517 
L 278.377157 115.373242 
L 280.362569 102.396941 
L 281.355275 94.512994 
L 282.347981 98.994236 
L 283.340687 107.446132 
L 284.333393 93.707135 
L 285.326099 89.28 
L 286.318804 112.058347 
L 287.31151 125.968369 
L 288.304216 108.314051 
L 289.296922 112.68955 
L 290.289628 118.398084 
L 291.282334 138.678401 
L 292.27504 163.713959 
L 294.260452 200.870707 
L 295.253158 237.909791 
L 296.245864 185.606916 
L 297.23857 182.193385 
L 298.231276 185.376109 
L 299.223981 196.277526 
L 300.216687 201.965617 
L 301.209393 191.973402 
L 302.202099 185.648536 
L 303.194805 184.452605 
L 304.187511 188.984964 
L 305.180217 191.607315 
L 306.172923 198.903204 
L 307.165629 209.812415 
L 308.158335 224.965698 
L 309.151041 262.127675 
L 310.143747 250.933699 
L 311.136453 235.046251 
L 312.129159 236.205646 
L 313.121864 245.509341 
L 314.11457 247.582961 
L 315.107276 265.180292 
L 316.099982 266.896298 
L 317.092688 328.66999 
L 318.085394 291.787881 
L 319.0781 309.202274 
L 320.070806 286.407225 
L 321.063512 295.831191 
L 322.056218 266.083813 
L 323.048924 248.543979 
L 324.04163 250.407813 
L 325.034336 242.143586 
L 326.027041 252.461859 
L 327.019747 261.262413 
L 328.012453 271.382313 
L 329.005159 283.028955 
L 329.997865 272.047354 
L 330.990571 266.404158 
L 331.983277 247.896656 
L 332.975983 245.650419 
L 333.968689 234.892019 
L 334.961395 238.707235 
L 335.954101 241.882015 
L 336.946807 254.633258 
L 337.939513 273.586353 
L 338.932218 266.520707 
L 339.924924 266.343129 
L 340.91763 261.284339 
L 341.910336 279.981165 
L 342.903042 268.170212 
L 343.895748 269.505421 
L 344.888454 262.686126 
L 345.88116 253.952305 
L 346.873866 267.007338 
L 347.866572 254.913857 
L 348.859278 249.993175 
L 349.851984 234.770484 
L 350.84469 234.92782 
L 351.837395 232.849668 
L 352.830101 236.08587 
L 354.815513 247.26656 
L 355.808219 272.583832 
L 356.800925 265.338985 
L 357.793631 240.418367 
L 358.786337 223.573814 
L 359.779043 215.94777 
L 360.771749 209.722911 
L 361.764455 208.859661 
L 362.757161 211.722633 
L 363.749867 216.753259 
L 364.742572 227.348346 
L 365.735278 231.024025 
L 366.727984 219.83258 
L 367.72069 211.327977 
L 368.713396 207.376191 
L 369.706102 205.388156 
L 370.698808 208.902682 
L 371.691514 214.462216 
L 372.68422 218.952709 
L 373.676926 224.755208 
L 374.669632 225.390112 
L 375.662338 223.111246 
L 376.655044 223.714876 
L 377.64775 222.935278 
L 378.640455 221.805636 
L 379.633161 221.723223 
L 380.625867 215.651227 
L 381.618573 208.578558 
L 382.611279 206.368123 
L 383.603985 205.421663 
L 384.596691 209.371431 
L 385.589397 222.255264 
L 386.582103 246.337588 
L 387.574809 263.365517 
L 388.567515 230.461499 
L 389.560221 219.017916 
L 390.552927 214.570271 
L 391.545632 219.468678 
L 392.538338 223.46638 
L 393.531044 224.401438 
L 394.52375 219.823467 
L 395.516456 218.087401 
L 397.501868 221.186501 
L 398.494574 223.627264 
L 399.48728 219.726364 
L 400.479986 219.60327 
L 401.472692 218.358186 
L 402.465398 222.094343 
L 403.458104 221.984931 
L 404.450809 222.48447 
L 405.443515 218.317463 
L 406.436221 215.585 
L 407.428927 214.911179 
L 408.421633 216.236361 
L 410.407045 231.598298 
L 411.399751 237.991477 
L 412.392457 229.844213 
L 414.377869 223.472657 
L 417.355986 231.72317 
L 418.348692 237.487648 
L 419.341398 239.770148 
L 420.334104 244.513879 
L 421.32681 241.401394 
L 422.319516 247.477118 
L 423.312222 249.057201 
L 424.304928 260.183855 
L 425.297634 258.955046 
L 426.29034 254.121517 
L 427.283046 248.294905 
L 428.275752 249.837014 
L 429.268458 261.9596 
L 430.261163 270.050541 
L 431.253869 296.128267 
L 432.246575 291.735343 
L 433.239281 302.6122 
L 434.231987 286.413911 
L 435.224693 287.371829 
L 436.217399 283.782756 
L 437.210105 283.132657 
L 438.202811 302.957085 
L 439.195517 305.085902 
L 440.188223 356.253821 
L 441.180929 295.046667 
L 442.173635 296.825274 
L 443.166341 288.200763 
L 444.159046 292.416101 
L 445.151752 324.436604 
L 446.144458 316.594397 
L 447.137164 298.266297 
L 448.12987 289.762312 
L 449.122576 272.87036 
L 450.115282 263.091383 
L 451.107988 267.931059 
L 452.100694 268.795213 
L 453.0934 267.787389 
L 454.086106 268.014052 
L 456.071518 257.243661 
L 457.064223 261.997715 
L 458.056929 261.708338 
L 459.049635 263.096442 
L 460.042341 267.486374 
L 461.035047 271.161598 
L 462.027753 283.5469 
L 463.020459 269.684621 
L 464.013165 249.01602 
L 465.005871 239.257332 
L 465.998577 234.736181 
L 466.991283 232.056401 
L 467.983989 237.434008 
L 468.976695 248.060074 
L 469.9694 263.185188 
L 470.962106 268.255139 
L 471.954812 253.796467 
L 472.947518 243.935215 
L 473.940224 244.160238 
L 474.93293 252.405731 
L 475.925636 259.354089 
L 476.918342 265.060099 
L 477.911048 255.634081 
L 478.903754 256.840403 
L 479.89646 263.505655 
L 480.889166 289.644671 
L 481.881872 301.418267 
L 482.874577 275.52399 
L 483.867283 258.837308 
L 484.859989 254.726975 
L 485.852695 258.612406 
L 486.845401 259.917331 
L 487.838107 271.225021 
L 488.830813 271.740812 
L 489.823519 277.778077 
L 490.816225 275.040847 
L 491.808931 280.448616 
L 492.801637 301.041573 
L 493.794343 334.823953 
L 494.787049 283.458994 
L 495.779754 266.256216 
L 496.77246 260.05055 
L 497.765166 256.286315 
L 499.750578 277.468429 
L 500.743284 299.811761 
L 501.73599 308.683129 
L 502.728696 301.385386 
L 503.721402 284.328887 
L 504.714108 274.735075 
L 505.706814 274.231059 
L 506.69952 273.909489 
L 507.692226 296.940289 
L 508.684932 309.600471 
L 509.677637 284.407089 
L 510.670343 264.123107 
L 511.663049 263.519719 
L 512.655755 266.527648 
L 513.648461 278.78526 
L 514.641167 320.627668 
L 515.633873 293.546927 
L 516.626579 279.987394 
L 517.619285 269.859839 
L 518.611991 273.752211 
L 519.604697 269.749469 
L 520.597403 278.076424 
L 521.590109 275.87958 
L 522.582814 278.634312 
L 523.57552 273.959164 
L 524.568226 272.68744 
L 526.553638 283.356338 
L 527.546344 279.302839 
L 528.53905 265.805655 
L 529.531756 265.325114 
L 530.524462 269.4514 
L 531.517168 292.318438 
L 532.509874 300.932538 
L 533.50258 281.189087 
L 534.495286 265.208226 
L 535.487991 264.076871 
L 536.480697 268.574023 
L 537.473403 276.546132 
L 538.466109 286.295633 
L 539.458815 288.192487 
L 540.451521 310.123952 
L 541.444227 305.284353 
L 542.436933 303.339995 
L 543.429639 283.222455 
L 544.422345 279.643051 
L 546.407757 279.73174 
L 547.400463 292.066745 
L 548.393168 290.999125 
L 549.385874 313.053057 
L 550.37858 319.509214 
L 551.371286 337.864913 
L 552.363992 303.345359 
L 553.356698 301.397949 
L 554.349404 313.328949 
L 555.34211 313.235549 
L 556.334816 315.147747 
L 557.327522 285.369941 
L 558.320228 284.170412 
L 559.312934 279.339632 
L 560.30564 287.009394 
L 561.298345 325.384373 
L 562.291051 313.100632 
L 563.283757 283.346487 
L 564.276463 274.599704 
L 565.269169 277.42556 
L 566.261875 279.311743 
L 567.254581 294.21766 
L 568.247287 323.306273 
L 569.239993 346.699257 
L 570.232699 318.022199 
L 571.225405 314.714747 
L 572.218111 298.578396 
L 573.210817 296.056414 
L 574.203523 303.633291 
L 575.196228 300.964585 
L 576.188934 309.956837 
L 577.18164 301.934693 
L 578.174346 301.266062 
L 579.167052 302.447487 
L 580.159758 291.977666 
L 581.152464 288.394071 
L 582.14517 297.881167 
L 583.137876 301.303504 
L 584.130582 309.65067 
L 585.123288 316.640829 
L 586.115994 313.081989 
L 587.1087 296.017711 
L 588.101405 303.461961 
L 589.094111 300.465278 
L 590.086817 308.240476 
L 591.079523 338.714795 
L 592.072229 317.217372 
L 593.064935 288.410347 
L 594.057641 278.465984 
L 595.050347 282.283672 
L 596.043053 288.10668 
L 597.035759 319.861933 
L 598.028465 322.313649 
L 599.021171 298.638438 
L 600.013877 283.45272 
L 601.006582 286.974865 
L 601.999288 287.958925 
L 602.991994 294.214977 
L 603.9847 309.000237 
L 604.977406 308.569853 
L 605.970112 312.006326 
L 606.962818 303.134303 
L 607.955524 327.439332 
L 608.94823 337.697893 
L 609.940936 317.799006 
L 610.933642 292.70148 
L 611.926348 293.493844 
L 612.919054 291.38468 
L 613.911759 311.174869 
L 614.904465 350.390049 
L 615.897171 315.134383 
L 616.889877 297.262923 
L 617.882583 297.750163 
L 618.875289 325.603729 
L 619.867995 313.012329 
L 620.860701 287.743361 
L 621.853407 283.473109 
L 622.846113 285.826878 
L 623.838819 287.771189 
L 624.831525 309.403226 
L 625.824231 339.05722 
L 626.816936 335.981867 
L 627.809642 306.764393 
L 628.802348 305.733864 
L 629.795054 292.93627 
L 630.78776 299.078928 
L 631.780466 295.650006 
L 632.773172 294.869119 
L 633.765878 297.661465 
L 634.758584 297.909285 
L 635.75129 329.410553 
L 636.743996 354.697007 
L 637.736702 305.361942 
L 638.729408 292.550913 
L 639.722114 298.427097 
L 640.714819 301.625422 
L 641.707525 328.866458 
L 642.700231 320.446607 
L 643.692937 315.720298 
L 644.685643 320.801559 
L 645.678349 322.047103 
L 646.671055 351.642993 
L 647.663761 355.127058 
L 648.656467 342.873795 
L 649.649173 334.619152 
L 650.641879 387.021887 
L 651.634585 363.960484 
L 652.627291 373.693578 
L 653.619996 374.097018 
L 654.612702 343.926734 
L 655.605408 346.893348 
L 656.598114 348.941852 
L 657.59082 335.091974 
L 658.583526 326.953119 
L 659.576232 307.260909 
L 660.568938 319.840314 
L 661.561644 313.686194 
L 662.55435 333.581398 
L 663.547056 310.720777 
L 664.539762 312.391908 
L 665.532468 314.737955 
L 666.525173 324.743396 
L 667.517879 317.722175 
L 668.510585 301.998789 
L 669.503291 299.871812 
L 670.495997 296.109212 
L 671.488703 312.929029 
L 672.481409 303.894824 
L 673.474115 308.317062 
L 674.466821 300.779343 
L 675.459527 312.184849 
L 676.452233 310.186267 
L 678.437645 296.403768 
L 679.43035 294.584611 
L 680.423056 315.675027 
L 681.415762 318.966747 
L 682.408468 316.695214 
L 683.401174 295.208184 
L 684.39388 297.889485 
L 685.386586 293.837044 
L 686.379292 302.283205 
L 687.371998 308.408337 
L 688.364704 313.759301 
L 689.35741 328.288986 
L 690.350116 319.488835 
L 691.342822 319.018399 
L 692.335527 308.407599 
L 693.328233 320.150367 
L 694.320939 304.707094 
L 695.313645 304.136371 
L 696.306351 292.102262 
L 697.299057 295.263365 
L 699.284469 325.601789 
L 700.277175 318.241701 
L 701.269881 305.938081 
L 702.262587 301.738404 
L 703.255293 299.452486 
L 704.247999 325.840674 
L 705.240705 343.630115 
L 706.23341 335.924127 
L 707.226116 306.327052 
L 708.218822 306.899983 
L 709.211528 315.186492 
L 710.204234 316.769915 
L 711.19694 348.881963 
L 712.189646 371.240171 
L 713.182352 324.865322 
L 714.175058 310.444763 
L 715.167764 316.446347 
L 716.16047 310.52283 
L 717.153176 324.808406 
L 718.145882 354.758843 
L 719.138587 345.049434 
L 721.123999 319.439843 
L 722.116705 338.379123 
L 723.109411 354.376532 
L 724.102117 323.833892 
L 725.094823 310.975557 
L 726.087529 318.640101 
L 727.080235 318.259993 
L 728.072941 327.914399 
L 729.065647 387.746239 
L 730.058353 374.842504 
L 731.051059 348.398325 
L 732.043764 335.203183 
L 733.03647 384.212952 
L 734.029176 362.665968 
L 735.021882 386.755827 
L 736.014588 360.514051 
L 737.007294 386.355489 
L 738 360.295331 
L 738.992706 378.767255 
L 739.985412 371.206397 
L 740.978118 398.690035 
L 741.970824 348.021605 
L 742.96353 335.188762 
L 743.956236 344.357103 
L 744.948941 323.978074 
L 745.941647 315.000837 
L 746.934353 323.163278 
L 747.927059 318.675875 
L 748.919765 319.667105 
L 749.912471 349.585407 
L 750.905177 346.189716 
L 751.897883 351.243908 
L 752.890589 382.354054 
L 753.883295 330.632338 
L 754.876001 319.789713 
L 755.868707 319.97721 
L 756.861413 308.024534 
L 757.854118 316.129296 
L 758.846824 328.576896 
L 759.83953 330.950241 
L 760.832236 395.321742 
L 761.824942 398.061382 
L 762.817648 337.100055 
L 763.810354 324.659979 
L 764.80306 320.077964 
L 765.795766 308.672223 
L 766.788472 323.317586 
L 767.781178 330.289096 
L 768.773884 355.197142 
L 769.76659 333.920831 
L 770.759295 332.205516 
L 771.752001 332.640436 
L 772.744707 328.582406 
L 773.737413 336.438635 
L 774.730119 321.996788 
L 775.722825 344.404414 
L 776.715531 330.949969 
L 777.708237 344.807439 
L 778.700943 315.915947 
L 779.693649 320.383002 
L 780.686355 318.284072 
L 781.679061 323.927507 
L 782.671767 331.234487 
L 783.664473 321.852851 
L 784.657178 338.592924 
L 785.649884 334.460286 
L 786.64259 356.847981 
L 787.635296 318.608628 
L 788.628002 319.857411 
L 789.620708 311.355645 
L 790.613414 324.980843 
L 791.60612 341.671573 
L 792.598826 335.885079 
L 793.591532 318.777666 
L 794.584238 310.809266 
L 795.576944 324.578091 
L 796.56965 325.00973 
L 797.562355 373.886372 
L 798.555061 347.948635 
L 799.547767 340.024049 
L 800.540473 312.758047 
L 801.533179 313.986931 
L 802.525885 310.365743 
L 803.518591 312.749257 
L 804.511297 338.067411 
L 805.504003 337.107534 
L 806.496709 365.321195 
L 807.489415 334.474029 
L 808.482121 381.33689 
L 809.474827 352.938299 
L 810.467532 333.484071 
L 811.460238 306.402861 
L 812.452944 304.822919 
L 813.44565 306.398893 
L 814.438356 308.35869 
L 815.431062 335.267552 
L 816.423768 372.877316 
L 817.416474 333.158119 
L 818.40918 318.522104 
L 819.401886 325.307772 
L 820.394592 316.092868 
L 821.387298 328.140925 
L 822.380004 347.768156 
L 823.372709 364.126243 
L 824.365415 344.710769 
L 825.358121 333.940226 
L 826.350827 331.38584 
L 827.343533 323.591761 
L 828.336239 351.702576 
L 829.328945 337.858179 
L 830.321651 361.59196 
L 831.314357 348.099606 
L 832.307063 367.761668 
L 833.299769 347.744791 
L 834.292475 343.503366 
L 835.285181 319.688086 
L 836.277886 317.171898 
L 837.270592 332.403996 
L 838.263298 330.888245 
L 839.256004 367.965133 
L 840.24871 376.472582 
L 841.241416 392.868942 
L 842.234122 351.695226 
L 843.226828 382.37897 
L 844.219534 337.060015 
L 845.21224 350.843723 
L 846.204946 340.733435 
L 847.197652 341.534381 
L 848.190358 353.845821 
L 849.183064 336.218105 
L 850.175769 359.514341 
L 851.168475 369.663791 
L 852.161181 338.848785 
L 853.153887 335.889746 
L 854.146593 346.751943 
L 855.139299 332.716732 
L 856.132005 354.572921 
L 857.124711 359.043714 
L 858.117417 354.324944 
L 859.110123 432.933213 
L 860.102829 362.486484 
L 861.095535 345.377771 
L 862.088241 364.831507 
L 863.080946 349.847912 
L 864.073652 348.714159 
L 865.066358 440.272575 
L 866.059064 376.459862 
L 867.05177 374.576006 
L 868.044476 371.569428 
L 869.037182 379.308311 
L 870.029888 351.763927 
L 871.022594 384.842181 
L 872.0153 405.786698 
L 873.008006 351.581083 
L 874.000712 335.524866 
L 874.993418 345.446722 
L 875.986123 331.580874 
L 876.978829 337.718376 
L 877.971535 387.373678 
L 879.956947 349.949752 
L 880.949653 370.963343 
L 881.942359 348.939032 
L 882.935065 344.633139 
L 883.927771 352.920011 
L 884.920477 336.981784 
L 885.913183 372.448417 
L 886.905889 362.594144 
L 887.898595 387.386511 
L 888.8913 357.598035 
L 889.884006 391.410128 
L 890.876712 343.553044 
L 891.869418 358.897734 
L 892.862124 359.108685 
L 893.85483 374.501829 
L 894.847536 349.288868 
L 895.840242 338.523984 
L 896.832948 336.345809 
L 897.825654 325.023867 
L 898.81836 344.590108 
L 899.811066 368.280364 
L 900.803772 338.513906 
L 901.796477 325.980821 
L 902.789183 333.919343 
L 903.781889 324.349668 
L 904.774595 336.462389 
L 905.767301 351.406647 
L 906.760007 349.872729 
L 907.752713 403.620982 
L 908.745419 379.070845 
L 909.738125 358.612096 
L 910.730831 352.269355 
L 911.723537 343.858868 
L 912.716243 328.324022 
L 913.708949 342.359865 
L 914.701655 331.494609 
L 915.69436 346.84138 
L 916.687066 492.48 
L 917.679772 371.599918 
L 918.672478 331.086146 
L 919.665184 334.333285 
L 920.65789 336.874834 
L 921.650596 336.591992 
L 922.643302 373.555386 
L 923.636008 386.112632 
L 924.628714 341.378991 
L 925.62142 329.129128 
L 926.614126 341.438497 
L 927.606832 329.226598 
L 928.599537 341.915353 
L 929.592243 367.342394 
L 930.584949 352.85325 
L 931.577655 341.064014 
L 932.570361 348.548028 
L 933.563067 329.798315 
L 934.555773 331.58963 
L 935.548479 351.48844 
L 936.541185 342.284651 
L 937.533891 383.663288 
L 938.526597 377.152123 
L 939.519303 374.747825 
L 940.512009 361.042422 
L 941.504714 380.241256 
L 942.49742 344.562113 
L 943.490126 368.151018 
L 944.482832 358.046926 
L 945.475538 366.238122 
L 946.468244 369.765063 
L 947.46095 358.403387 
L 948.453656 405.969033 
L 949.446362 361.196751 
L 950.439068 386.978657 
L 951.431774 393.836689 
L 952.42448 367.546016 
L 953.417186 353.407097 
L 954.409891 371.308226 
L 955.402597 340.608379 
L 956.395303 346.492206 
L 957.388009 371.832345 
L 958.380715 352.663005 
L 959.373421 368.883832 
L 960.366127 400.788705 
L 961.358833 386.876064 
L 962.351539 369.553883 
L 963.344245 384.515236 
L 964.336951 372.001364 
L 965.329657 431.778184 
L 966.322363 358.29801 
L 967.315068 357.36913 
L 968.307774 392.035325 
L 969.30048 357.438005 
L 970.293186 432.717638 
L 971.285892 358.394572 
L 972.278598 385.661042 
L 973.271304 359.155816 
L 974.26401 361.770949 
L 975.256716 403.624483 
L 976.249422 399.961267 
L 977.242128 352.996241 
L 978.234834 346.797754 
L 979.22754 346.32776 
L 980.220246 331.759821 
L 981.212951 356.202532 
L 982.205657 347.675611 
L 983.198363 377.596226 
L 984.191069 355.557543 
L 985.183775 370.547824 
L 986.176481 359.506381 
L 987.169187 367.997173 
L 988.161893 342.446927 
L 989.154599 333.688059 
L 990.147305 337.45058 
L 991.140011 328.355326 
L 992.132717 356.292627 
L 993.125423 344.479313 
L 994.118128 371.217475 
L 995.110834 339.332634 
L 996.10354 353.772623 
L 997.096246 343.993025 
L 998.088952 352.182044 
L 999.081658 337.097577 
L 1000.074364 330.337031 
L 1001.06707 332.941241 
L 1002.059776 325.476011 
L 1003.052482 350.837929 
L 1004.045188 342.092451 
L 1005.037894 367.472504 
L 1006.0306 331.231239 
L 1007.023305 339.503843 
L 1008.016011 331.301976 
L 1009.008717 343.332949 
L 1010.001423 349.024639 
L 1010.994129 342.55097 
L 1011.986835 331.659478 
L 1012.979541 322.808645 
L 1013.972247 336.236508 
L 1014.964953 330.254053 
L 1015.957659 363.88035 
L 1016.950365 341.351464 
L 1017.943071 357.964469 
L 1018.935777 336.523804 
L 1019.928482 348.897074 
L 1020.921188 339.330529 
L 1021.913894 340.85328 
L 1022.9066 336.933692 
L 1023.899306 330.234432 
L 1024.892012 342.962367 
L 1025.884718 332.035914 
L 1026.877424 361.069799 
L 1027.87013 351.638469 
L 1028.862836 424.527083 
L 1029.855542 347.947346 
L 1030.848248 356.088143 
L 1031.840954 330.376703 
L 1032.833659 332.345152 
L 1033.826365 337.458837 
L 1034.819071 334.214918 
L 1035.811777 378.664811 
L 1036.804483 379.562981 
L 1037.797189 369.52712 
L 1038.789895 341.506549 
L 1039.782601 357.382486 
L 1040.775307 341.214433 
L 1041.768013 356.726006 
L 1042.760719 387.73895 
L 1043.753425 402.159363 
L 1044.746131 354.311235 
L 1045.738837 349.059879 
L 1046.731542 372.616968 
L 1047.724248 351.465702 
L 1048.716954 396.679577 
L 1049.70966 368.773072 
L 1050.702366 385.72743 
L 1053.680484 368.54973 
L 1054.67319 395.374753 
L 1055.665896 354.538002 
L 1056.658602 345.827054 
L 1057.651308 372.36285 
L 1058.644014 351.186518 
L 1059.636719 358.894771 
L 1060.629425 465.498035 
L 1061.622131 379.170232 
L 1062.614837 374.575035 
L 1063.607543 384.41668 
L 1064.600249 384.374416 
L 1065.592955 392.264917 
L 1066.585661 371.62534 
L 1067.578367 355.98259 
L 1068.571073 387.460109 
L 1069.563779 353.404333 
L 1070.556485 356.584999 
L 1071.549191 426.439974 
L 1072.541896 374.826621 
L 1073.534602 363.056814 
L 1074.527308 378.504577 
L 1075.520014 404.806202 
L 1076.51272 378.27589 
L 1077.505426 366.240942 
L 1078.498132 373.859168 
L 1079.490838 388.384355 
L 1080.483544 356.920752 
L 1081.47625 372.964735 
L 1082.468956 410.104896 
L 1083.461662 364.723305 
L 1084.454368 370.951624 
L 1085.447073 396.178824 
L 1086.439779 360.139127 
L 1087.432485 404.027479 
L 1088.425191 361.718935 
L 1089.417897 365.372474 
L 1090.410603 416.331946 
L 1091.403309 375.789847 
L 1092.396015 363.317756 
L 1093.388721 382.965836 
L 1094.381427 360.160548 
L 1095.374133 350.47037 
L 1096.366839 396.555881 
L 1097.359545 363.062516 
L 1098.35225 397.050708 
L 1099.344956 365.491892 
L 1100.337662 414.752415 
L 1101.330368 355.848988 
L 1102.323074 370.829472 
L 1103.31578 368.575796 
L 1104.308486 363.292425 
L 1105.301192 401.179228 
L 1106.293898 371.611296 
L 1107.286604 375.801253 
L 1108.27931 360.853179 
L 1109.272016 358.265686 
L 1110.264722 334.142145 
L 1111.257428 347.024777 
L 1112.250133 348.19122 
L 1113.242839 347.07739 
L 1114.235545 371.943754 
L 1115.228251 385.858192 
L 1116.220957 344.249609 
L 1117.213663 345.161231 
L 1118.206369 354.410124 
L 1119.199075 340.027207 
L 1120.191781 368.284426 
L 1121.184487 363.5696 
L 1122.177193 370.997607 
L 1123.169899 384.531824 
L 1124.162605 412.541254 
L 1125.15531 363.946207 
L 1126.148016 372.681089 
L 1127.140722 375.291066 
L 1128.133428 356.817852 
L 1129.126134 429.376833 
L 1130.11884 369.505223 
L 1131.111546 404.819993 
L 1132.104252 363.227481 
L 1133.096958 373.104629 
L 1134.089664 375.928781 
L 1135.08237 358.507598 
L 1136.075076 388.052442 
L 1137.067782 394.236411 
L 1138.060487 380.478044 
L 1139.053193 348.276537 
L 1140.045899 365.756989 
L 1141.038605 364.967173 
L 1142.031311 363.387368 
L 1143.024017 375.098692 
L 1144.016723 377.4514 
L 1145.009429 356.996266 
L 1146.002135 341.012614 
L 1146.994841 367.72661 
L 1147.987547 353.407388 
L 1148.980253 382.674201 
L 1149.972959 364.920617 
L 1150.965664 380.542456 
L 1151.95837 351.228451 
L 1152.951076 352.899445 
L 1153.943782 386.18041 
L 1154.936488 369.913698 
L 1155.929194 361.665129 
L 1156.9219 338.548722 
L 1157.914606 352.060695 
L 1158.907312 337.903289 
L 1159.900018 357.123291 
L 1160.892724 373.879992 
L 1161.88543 397.711098 
L 1162.878136 353.816769 
L 1163.870841 358.032301 
L 1164.863547 354.523735 
L 1165.856253 344.574506 
L 1166.848959 352.209383 
L 1167.841665 334.207385 
L 1168.834371 354.328302 
L 1169.827077 350.597994 
L 1170.819783 374.453822 
L 1171.812489 363.30484 
L 1172.805195 370.193635 
L 1173.797901 337.3941 
L 1174.790607 337.472516 
L 1175.783313 349.124089 
L 1176.776019 342.883228 
L 1177.768724 411.499634 
L 1178.76143 366.785137 
L 1179.754136 384.856877 
L 1180.746842 343.041459 
L 1181.739548 360.829651 
L 1182.732254 352.530702 
L 1183.72496 361.763088 
L 1184.717666 366.373127 
L 1185.710372 356.003975 
L 1186.703078 375.095395 
L 1187.695784 353.147627 
L 1188.68849 414.995021 
L 1189.681196 354.954481 
L 1190.673901 385.755458 
L 1191.666607 350.022145 
L 1192.659313 365.808604 
L 1193.652019 359.92648 
L 1194.644725 358.734257 
L 1195.637431 370.152234 
L 1196.630137 352.243314 
L 1197.622843 402.38544 
L 1198.615549 358.692336 
L 1199.608255 435.412233 
L 1200.600961 352.95879 
L 1201.593667 379.276228 
L 1202.586373 347.746393 
L 1203.579078 353.899365 
L 1204.571784 351.637978 
L 1205.56449 343.916104 
L 1206.557196 378.345365 
L 1207.549902 358.019664 
L 1208.542608 402.80973 
L 1209.535314 361.786652 
L 1210.52802 368.16248 
L 1211.520726 335.29446 
L 1212.513432 343.438619 
L 1213.506138 336.671658 
L 1214.498844 338.607172 
L 1215.49155 385.548584 
L 1216.484255 386.135198 
L 1217.476961 353.823391 
L 1218.469667 341.294807 
L 1219.462373 345.607994 
L 1220.455079 332.231625 
L 1221.447785 354.821721 
L 1222.440491 352.446432 
L 1223.433197 373.675754 
L 1224.425903 367.818867 
L 1225.418609 388.775641 
L 1226.411315 349.121157 
L 1227.404021 347.2643 
L 1228.396727 346.537178 
L 1229.389432 337.399014 
L 1230.382138 372.430651 
L 1231.374844 365.358013 
L 1232.36755 385.826958 
L 1233.360256 349.67467 
L 1234.352962 361.872142 
L 1235.345668 338.142038 
L 1237.33108 368.745538 
L 1238.323786 379.657233 
L 1239.316492 359.598553 
L 1240.309198 355.947732 
L 1241.301904 360.22441 
L 1242.29461 351.134316 
L 1243.287315 422.254935 
L 1244.280021 365.638354 
L 1245.272727 368.266731 
L 1245.272727 368.266731 
" clip-path="url(#p2c530bfd3f)" style="fill: none; stroke: #1f77b4; stroke-width: 1.5; stroke-linecap: square"/>
   </g>
   <g id="patch_3">
    <path d="M 180 512.64 
L 180 69.12 
" style="fill: none; stroke: #000000; stroke-width: 0.8; stroke-linejoin: miter; stroke-linecap: square"/>
   </g>
   <g id="patch_4">
    <path d="M 1296 512.64 
L 1296 69.12 
" style="fill: none; stroke: #000000; stroke-width: 0.8; stroke-linejoin: miter; stroke-linecap: square"/>
   </g>
   <g id="patch_5">
    <path d="M 180 512.64 
L 1296 512.64 
" style="fill: none; stroke: #000000; stroke-width: 0.8; stroke-linejoin: miter; stroke-linecap: square"/>
   </g>
   <g id="patch_6">
    <path d="M 180 69.12 
L 1296 69.12 
" style="fill: none; stroke: #000000; stroke-width: 0.8; stroke-linejoin: miter; stroke-linecap: square"/>
   </g>
   <g id="text_14">
    <!-- source19-receiver20 -->
    <g transform="translate(532.175 60.80125) scale(0.4 -0.4)">
     <defs>
      <path id="DejaVuSans-73" d="M 2834 3397 
L 2834 2853 
Q 2591 2978 2328 3040 
Q 2066 3103 1784 3103 
Q 1356 3103 1142 2972 
Q 928 2841 928 2578 
Q 928 2378 1081 2264 
Q 1234 2150 1697 2047 
L 1894 2003 
Q 2506 1872 2764 1633 
Q 3022 1394 3022 966 
Q 3022 478 2636 193 
Q 2250 -91 1575 -91 
Q 1294 -91 989 -36 
Q 684 19 347 128 
L 347 722 
Q 666 556 975 473 
Q 1284 391 1588 391 
Q 1994 391 2212 530 
Q 2431 669 2431 922 
Q 2431 1156 2273 1281 
Q 2116 1406 1581 1522 
L 1381 1569 
Q 847 1681 609 1914 
Q 372 2147 372 2553 
Q 372 3047 722 3315 
Q 1072 3584 1716 3584 
Q 2034 3584 2315 3537 
Q 2597 3491 2834 3397 
z
" transform="scale(0.015625)"/>
      <path id="DejaVuSans-6f" d="M 1959 3097 
Q 1497 3097 1228 2736 
Q 959 2375 959 1747 
Q 959 1119 1226 758 
Q 1494 397 1959 397 
Q 2419 397 2687 759 
Q 2956 1122 2956 1747 
Q 2956 2369 2687 2733 
Q 2419 3097 1959 3097 
z
M 1959 3584 
Q 2709 3584 3137 3096 
Q 3566 2609 3566 1747 
Q 3566 888 3137 398 
Q 2709 -91 1959 -91 
Q 1206 -91 779 398 
Q 353 888 353 1747 
Q 353 2609 779 3096 
Q 1206 3584 1959 3584 
z
" transform="scale(0.015625)"/>
      <path id="DejaVuSans-75" d="M 544 1381 
L 544 3500 
L 1119 3500 
L 1119 1403 
Q 1119 906 1312 657 
Q 1506 409 1894 409 
Q 2359 409 2629 706 
Q 2900 1003 2900 1516 
L 2900 3500 
L 3475 3500 
L 3475 0 
L 2900 0 
L 2900 538 
Q 2691 219 2414 64 
Q 2138 -91 1772 -91 
Q 1169 -91 856 284 
Q 544 659 544 1381 
z
M 1991 3584 
L 1991 3584 
z
" transform="scale(0.015625)"/>
      <path id="DejaVuSans-72" d="M 2631 2963 
Q 2534 3019 2420 3045 
Q 2306 3072 2169 3072 
Q 1681 3072 1420 2755 
Q 1159 2438 1159 1844 
L 1159 0 
L 581 0 
L 581 3500 
L 1159 3500 
L 1159 2956 
Q 1341 3275 1631 3429 
Q 1922 3584 2338 3584 
Q 2397 3584 2469 3576 
Q 2541 3569 2628 3553 
L 2631 2963 
z
" transform="scale(0.015625)"/>
      <path id="DejaVuSans-63" d="M 3122 3366 
L 3122 2828 
Q 2878 2963 2633 3030 
Q 2388 3097 2138 3097 
Q 1578 3097 1268 2742 
Q 959 2388 959 1747 
Q 959 1106 1268 751 
Q 1578 397 2138 397 
Q 2388 397 2633 464 
Q 2878 531 3122 666 
L 3122 134 
Q 2881 22 2623 -34 
Q 2366 -91 2075 -91 
Q 1284 -91 818 406 
Q 353 903 353 1747 
Q 353 2603 823 3093 
Q 1294 3584 2113 3584 
Q 2378 3584 2631 3529 
Q 2884 3475 3122 3366 
z
" transform="scale(0.015625)"/>
      <path id="DejaVuSans-65" d="M 3597 1894 
L 3597 1613 
L 953 1613 
Q 991 1019 1311 708 
Q 1631 397 2203 397 
Q 2534 397 2845 478 
Q 3156 559 3463 722 
L 3463 178 
Q 3153 47 2828 -22 
Q 2503 -91 2169 -91 
Q 1331 -91 842 396 
Q 353 884 353 1716 
Q 353 2575 817 3079 
Q 1281 3584 2069 3584 
Q 2775 3584 3186 3129 
Q 3597 2675 3597 1894 
z
M 3022 2063 
Q 3016 2534 2758 2815 
Q 2500 3097 2075 3097 
Q 1594 3097 1305 2825 
Q 1016 2553 972 2059 
L 3022 2063 
z
" transform="scale(0.015625)"/>
      <path id="DejaVuSans-39" d="M 703 97 
L 703 672 
Q 941 559 1184 500 
Q 1428 441 1663 441 
Q 2288 441 2617 861 
Q 2947 1281 2994 2138 
Q 2813 1869 2534 1725 
Q 2256 1581 1919 1581 
Q 1219 1581 811 2004 
Q 403 2428 403 3163 
Q 403 3881 828 4315 
Q 1253 4750 1959 4750 
Q 2769 4750 3195 4129 
Q 3622 3509 3622 2328 
Q 3622 1225 3098 567 
Q 2575 -91 1691 -91 
Q 1453 -91 1209 -44 
Q 966 3 703 97 
z
M 1959 2075 
Q 2384 2075 2632 2365 
Q 2881 2656 2881 3163 
Q 2881 3666 2632 3958 
Q 2384 4250 1959 4250 
Q 1534 4250 1286 3958 
Q 1038 3666 1038 3163 
Q 1038 2656 1286 2365 
Q 1534 2075 1959 2075 
z
" transform="scale(0.015625)"/>
      <path id="DejaVuSans-2d" d="M 313 2009 
L 1997 2009 
L 1997 1497 
L 313 1497 
L 313 2009 
z
" transform="scale(0.015625)"/>
      <path id="DejaVuSans-69" d="M 603 3500 
L 1178 3500 
L 1178 0 
L 603 0 
L 603 3500 
z
M 603 4863 
L 1178 4863 
L 1178 4134 
L 603 4134 
L 603 4863 
z
" transform="scale(0.015625)"/>
      <path id="DejaVuSans-76" d="M 191 3500 
L 800 3500 
L 1894 563 
L 2988 3500 
L 3597 3500 
L 2284 0 
L 1503 0 
L 191 3500 
z
" transform="scale(0.015625)"/>
     </defs>
     <use xlink:href="#DejaVuSans-73"/>
     <use xlink:href="#DejaVuSans-6f" x="52.099609"/>
     <use xlink:href="#DejaVuSans-75" x="113.28125"/>
     <use xlink:href="#DejaVuSans-72" x="176.660156"/>
     <use xlink:href="#DejaVuSans-63" x="215.523438"/>
     <use xlink:href="#DejaVuSans-65" x="270.503906"/>
     <use xlink:href="#DejaVuSans-31" x="332.027344"/>
     <use xlink:href="#DejaVuSans-39" x="395.650391"/>
     <use xlink:href="#DejaVuSans-2d" x="459.273438"/>
     <use xlink:href="#DejaVuSans-72" x="495.357422"/>
     <use xlink:href="#DejaVuSans-65" x="534.220703"/>
     <use xlink:href="#DejaVuSans-63" x="595.744141"/>
     <use xlink:href="#DejaVuSans-65" x="650.724609"/>
     <use xlink:href="#DejaVuSans-69" x="712.248047"/>
     <use xlink:href="#DejaVuSans-76" x="740.03125"/>
     <use xlink:href="#DejaVuSans-65" x="799.210938"/>
     <use xlink:href="#DejaVuSans-72" x="860.734375"/>
     <use xlink:href="#DejaVuSans-32" x="901.847656"/>
     <use xlink:href="#DejaVuSans-30" x="965.470703"/>
    </g>
   </g>
  </g>
 </g>
 <defs>
  <clipPath id="p2c530bfd3f">
   <rect x="180" y="69.12" width="1116" height="443.52"/>
  </clipPath>
 </defs>
</svg>
