<?xml version="1.0" encoding="utf-8" standalone="no"?>
<!DOCTYPE svg PUBLIC "-//W3C//DTD SVG 1.1//EN"
  "http://www.w3.org/Graphics/SVG/1.1/DTD/svg11.dtd">
<svg xmlns:xlink="http://www.w3.org/1999/xlink" width="1440pt" height="576pt" viewBox="0 0 1440 576" xmlns="http://www.w3.org/2000/svg" version="1.1">
 <metadata>
  <rdf:RDF xmlns:dc="http://purl.org/dc/elements/1.1/" xmlns:cc="http://creativecommons.org/ns#" xmlns:rdf="http://www.w3.org/1999/02/22-rdf-syntax-ns#">
   <cc:Work>
    <dc:type rdf:resource="http://purl.org/dc/dcmitype/StillImage"/>
    <dc:date>2024-05-22T04:50:16.854719</dc:date>
    <dc:format>image/svg+xml</dc:format>
    <dc:creator>
     <cc:Agent>
      <dc:title>Matplotlib v3.8.3, https://matplotlib.org/</dc:title>
     </cc:Agent>
    </dc:creator>
   </cc:Work>
  </rdf:RDF>
 </metadata>
 <defs>
  <style type="text/css">*{stroke-linejoin: round; stroke-linecap: butt}</style>
 </defs>
 <g id="figure_1">
  <g id="patch_1">
   <path d="M 0 576 
L 1440 576 
L 1440 0 
L 0 0 
z
" style="fill: #ffffff"/>
  </g>
  <g id="axes_1">
   <g id="patch_2">
    <path d="M 180 512.64 
L 1296 512.64 
L 1296 69.12 
L 180 69.12 
z
" style="fill: #ffffff"/>
   </g>
   <g id="matplotlib.axis_1">
    <g id="xtick_1">
     <g id="line2d_1">
      <defs>
       <path id="m467919e683" d="M 0 0 
L 0 3.5 
" style="stroke: #000000; stroke-width: 0.8"/>
      </defs>
      <g>
       <use xlink:href="#m467919e683" x="229.734567" y="512.64" style="stroke: #000000; stroke-width: 0.8"/>
      </g>
     </g>
     <g id="text_1">
      <!-- 0 -->
      <g transform="translate(226.553317 527.238438) scale(0.1 -0.1)">
       <defs>
        <path id="DejaVuSans-30" d="M 2034 4250 
Q 1547 4250 1301 3770 
Q 1056 3291 1056 2328 
Q 1056 1369 1301 889 
Q 1547 409 2034 409 
Q 2525 409 2770 889 
Q 3016 1369 3016 2328 
Q 3016 3291 2770 3770 
Q 2525 4250 2034 4250 
z
M 2034 4750 
Q 2819 4750 3233 4129 
Q 3647 3509 3647 2328 
Q 3647 1150 3233 529 
Q 2819 -91 2034 -91 
Q 1250 -91 836 529 
Q 422 1150 422 2328 
Q 422 3509 836 4129 
Q 1250 4750 2034 4750 
z
" transform="scale(0.015625)"/>
       </defs>
       <use xlink:href="#DejaVuSans-30"/>
      </g>
     </g>
    </g>
    <g id="xtick_2">
     <g id="line2d_2">
      <g>
       <use xlink:href="#m467919e683" x="433.04074" y="512.64" style="stroke: #000000; stroke-width: 0.8"/>
      </g>
     </g>
     <g id="text_2">
      <!-- 500 -->
      <g transform="translate(423.49699 527.238438) scale(0.1 -0.1)">
       <defs>
        <path id="DejaVuSans-35" d="M 691 4666 
L 3169 4666 
L 3169 4134 
L 1269 4134 
L 1269 2991 
Q 1406 3038 1543 3061 
Q 1681 3084 1819 3084 
Q 2600 3084 3056 2656 
Q 3513 2228 3513 1497 
Q 3513 744 3044 326 
Q 2575 -91 1722 -91 
Q 1428 -91 1123 -41 
Q 819 9 494 109 
L 494 744 
Q 775 591 1075 516 
Q 1375 441 1709 441 
Q 2250 441 2565 725 
Q 2881 1009 2881 1497 
Q 2881 1984 2565 2268 
Q 2250 2553 1709 2553 
Q 1456 2553 1204 2497 
Q 953 2441 691 2322 
L 691 4666 
z
" transform="scale(0.015625)"/>
       </defs>
       <use xlink:href="#DejaVuSans-35"/>
       <use xlink:href="#DejaVuSans-30" x="63.623047"/>
       <use xlink:href="#DejaVuSans-30" x="127.246094"/>
      </g>
     </g>
    </g>
    <g id="xtick_3">
     <g id="line2d_3">
      <g>
       <use xlink:href="#m467919e683" x="636.346913" y="512.64" style="stroke: #000000; stroke-width: 0.8"/>
      </g>
     </g>
     <g id="text_3">
      <!-- 1000 -->
      <g transform="translate(623.621913 527.238438) scale(0.1 -0.1)">
       <defs>
        <path id="DejaVuSans-31" d="M 794 531 
L 1825 531 
L 1825 4091 
L 703 3866 
L 703 4441 
L 1819 4666 
L 2450 4666 
L 2450 531 
L 3481 531 
L 3481 0 
L 794 0 
L 794 531 
z
" transform="scale(0.015625)"/>
       </defs>
       <use xlink:href="#DejaVuSans-31"/>
       <use xlink:href="#DejaVuSans-30" x="63.623047"/>
       <use xlink:href="#DejaVuSans-30" x="127.246094"/>
       <use xlink:href="#DejaVuSans-30" x="190.869141"/>
      </g>
     </g>
    </g>
    <g id="xtick_4">
     <g id="line2d_4">
      <g>
       <use xlink:href="#m467919e683" x="839.653087" y="512.64" style="stroke: #000000; stroke-width: 0.8"/>
      </g>
     </g>
     <g id="text_4">
      <!-- 1500 -->
      <g transform="translate(826.928087 527.238438) scale(0.1 -0.1)">
       <use xlink:href="#DejaVuSans-31"/>
       <use xlink:href="#DejaVuSans-35" x="63.623047"/>
       <use xlink:href="#DejaVuSans-30" x="127.246094"/>
       <use xlink:href="#DejaVuSans-30" x="190.869141"/>
      </g>
     </g>
    </g>
    <g id="xtick_5">
     <g id="line2d_5">
      <g>
       <use xlink:href="#m467919e683" x="1042.95926" y="512.64" style="stroke: #000000; stroke-width: 0.8"/>
      </g>
     </g>
     <g id="text_5">
      <!-- 2000 -->
      <g transform="translate(1030.23426 527.238438) scale(0.1 -0.1)">
       <defs>
        <path id="DejaVuSans-32" d="M 1228 531 
L 3431 531 
L 3431 0 
L 469 0 
L 469 531 
Q 828 903 1448 1529 
Q 2069 2156 2228 2338 
Q 2531 2678 2651 2914 
Q 2772 3150 2772 3378 
Q 2772 3750 2511 3984 
Q 2250 4219 1831 4219 
Q 1534 4219 1204 4116 
Q 875 4013 500 3803 
L 500 4441 
Q 881 4594 1212 4672 
Q 1544 4750 1819 4750 
Q 2544 4750 2975 4387 
Q 3406 4025 3406 3419 
Q 3406 3131 3298 2873 
Q 3191 2616 2906 2266 
Q 2828 2175 2409 1742 
Q 1991 1309 1228 531 
z
" transform="scale(0.015625)"/>
       </defs>
       <use xlink:href="#DejaVuSans-32"/>
       <use xlink:href="#DejaVuSans-30" x="63.623047"/>
       <use xlink:href="#DejaVuSans-30" x="127.246094"/>
       <use xlink:href="#DejaVuSans-30" x="190.869141"/>
      </g>
     </g>
    </g>
    <g id="xtick_6">
     <g id="line2d_6">
      <g>
       <use xlink:href="#m467919e683" x="1246.265433" y="512.64" style="stroke: #000000; stroke-width: 0.8"/>
      </g>
     </g>
     <g id="text_6">
      <!-- 2500 -->
      <g transform="translate(1233.540433 527.238438) scale(0.1 -0.1)">
       <use xlink:href="#DejaVuSans-32"/>
       <use xlink:href="#DejaVuSans-35" x="63.623047"/>
       <use xlink:href="#DejaVuSans-30" x="127.246094"/>
       <use xlink:href="#DejaVuSans-30" x="190.869141"/>
      </g>
     </g>
    </g>
   </g>
   <g id="matplotlib.axis_2">
    <g id="ytick_1">
     <g id="line2d_7">
      <defs>
       <path id="md23df1a322" d="M 0 0 
L -3.5 0 
" style="stroke: #000000; stroke-width: 0.8"/>
      </defs>
      <g>
       <use xlink:href="#md23df1a322" x="180" y="457.257858" style="stroke: #000000; stroke-width: 0.8"/>
      </g>
     </g>
     <g id="text_7">
      <!-- −8 -->
      <g transform="translate(158.257812 461.057076) scale(0.1 -0.1)">
       <defs>
        <path id="DejaVuSans-2212" d="M 678 2272 
L 4684 2272 
L 4684 1741 
L 678 1741 
L 678 2272 
z
" transform="scale(0.015625)"/>
        <path id="DejaVuSans-38" d="M 2034 2216 
Q 1584 2216 1326 1975 
Q 1069 1734 1069 1313 
Q 1069 891 1326 650 
Q 1584 409 2034 409 
Q 2484 409 2743 651 
Q 3003 894 3003 1313 
Q 3003 1734 2745 1975 
Q 2488 2216 2034 2216 
z
M 1403 2484 
Q 997 2584 770 2862 
Q 544 3141 544 3541 
Q 544 4100 942 4425 
Q 1341 4750 2034 4750 
Q 2731 4750 3128 4425 
Q 3525 4100 3525 3541 
Q 3525 3141 3298 2862 
Q 3072 2584 2669 2484 
Q 3125 2378 3379 2068 
Q 3634 1759 3634 1313 
Q 3634 634 3220 271 
Q 2806 -91 2034 -91 
Q 1263 -91 848 271 
Q 434 634 434 1313 
Q 434 1759 690 2068 
Q 947 2378 1403 2484 
z
M 1172 3481 
Q 1172 3119 1398 2916 
Q 1625 2713 2034 2713 
Q 2441 2713 2670 2916 
Q 2900 3119 2900 3481 
Q 2900 3844 2670 4047 
Q 2441 4250 2034 4250 
Q 1625 4250 1398 4047 
Q 1172 3844 1172 3481 
z
" transform="scale(0.015625)"/>
       </defs>
       <use xlink:href="#DejaVuSans-2212"/>
       <use xlink:href="#DejaVuSans-38" x="83.789062"/>
      </g>
     </g>
    </g>
    <g id="ytick_2">
     <g id="line2d_8">
      <g>
       <use xlink:href="#md23df1a322" x="180" y="385.014987" style="stroke: #000000; stroke-width: 0.8"/>
      </g>
     </g>
     <g id="text_8">
      <!-- −6 -->
      <g transform="translate(158.257812 388.814206) scale(0.1 -0.1)">
       <defs>
        <path id="DejaVuSans-36" d="M 2113 2584 
Q 1688 2584 1439 2293 
Q 1191 2003 1191 1497 
Q 1191 994 1439 701 
Q 1688 409 2113 409 
Q 2538 409 2786 701 
Q 3034 994 3034 1497 
Q 3034 2003 2786 2293 
Q 2538 2584 2113 2584 
z
M 3366 4563 
L 3366 3988 
Q 3128 4100 2886 4159 
Q 2644 4219 2406 4219 
Q 1781 4219 1451 3797 
Q 1122 3375 1075 2522 
Q 1259 2794 1537 2939 
Q 1816 3084 2150 3084 
Q 2853 3084 3261 2657 
Q 3669 2231 3669 1497 
Q 3669 778 3244 343 
Q 2819 -91 2113 -91 
Q 1303 -91 875 529 
Q 447 1150 447 2328 
Q 447 3434 972 4092 
Q 1497 4750 2381 4750 
Q 2619 4750 2861 4703 
Q 3103 4656 3366 4563 
z
" transform="scale(0.015625)"/>
       </defs>
       <use xlink:href="#DejaVuSans-2212"/>
       <use xlink:href="#DejaVuSans-36" x="83.789062"/>
      </g>
     </g>
    </g>
    <g id="ytick_3">
     <g id="line2d_9">
      <g>
       <use xlink:href="#md23df1a322" x="180" y="312.772116" style="stroke: #000000; stroke-width: 0.8"/>
      </g>
     </g>
     <g id="text_9">
      <!-- −4 -->
      <g transform="translate(158.257812 316.571335) scale(0.1 -0.1)">
       <defs>
        <path id="DejaVuSans-34" d="M 2419 4116 
L 825 1625 
L 2419 1625 
L 2419 4116 
z
M 2253 4666 
L 3047 4666 
L 3047 1625 
L 3713 1625 
L 3713 1100 
L 3047 1100 
L 3047 0 
L 2419 0 
L 2419 1100 
L 313 1100 
L 313 1709 
L 2253 4666 
z
" transform="scale(0.015625)"/>
       </defs>
       <use xlink:href="#DejaVuSans-2212"/>
       <use xlink:href="#DejaVuSans-34" x="83.789062"/>
      </g>
     </g>
    </g>
    <g id="ytick_4">
     <g id="line2d_10">
      <g>
       <use xlink:href="#md23df1a322" x="180" y="240.529246" style="stroke: #000000; stroke-width: 0.8"/>
      </g>
     </g>
     <g id="text_10">
      <!-- −2 -->
      <g transform="translate(158.257812 244.328465) scale(0.1 -0.1)">
       <use xlink:href="#DejaVuSans-2212"/>
       <use xlink:href="#DejaVuSans-32" x="83.789062"/>
      </g>
     </g>
    </g>
    <g id="ytick_5">
     <g id="line2d_11">
      <g>
       <use xlink:href="#md23df1a322" x="180" y="168.286375" style="stroke: #000000; stroke-width: 0.8"/>
      </g>
     </g>
     <g id="text_11">
      <!-- 0 -->
      <g transform="translate(166.6375 172.085594) scale(0.1 -0.1)">
       <use xlink:href="#DejaVuSans-30"/>
      </g>
     </g>
    </g>
    <g id="ytick_6">
     <g id="line2d_12">
      <g>
       <use xlink:href="#md23df1a322" x="180" y="96.043505" style="stroke: #000000; stroke-width: 0.8"/>
      </g>
     </g>
     <g id="text_12">
      <!-- 2 -->
      <g transform="translate(166.6375 99.842724) scale(0.1 -0.1)">
       <use xlink:href="#DejaVuSans-32"/>
      </g>
     </g>
    </g>
   </g>
   <g id="line2d_13">
    <path d="M 230.727273 296.402013 
L 231.719979 296.432103 
L 232.712685 295.476822 
L 233.70539 297.79826 
L 234.698096 297.026622 
L 235.690802 296.743059 
L 236.683508 292.968261 
L 237.676214 296.617849 
L 238.66892 290.148004 
L 239.661626 290.865466 
L 241.647038 286.896393 
L 242.639744 286.56391 
L 243.63245 284.959095 
L 244.625156 279.443593 
L 245.617862 273.114819 
L 246.610568 256.682043 
L 247.603273 242.496591 
L 248.595979 231.024836 
L 249.588685 230.420986 
L 250.581391 235.740063 
L 251.574097 265.649434 
L 252.566803 216.20838 
L 254.552215 179.589022 
L 255.544921 172.309686 
L 256.537627 177.468385 
L 257.530333 173.660901 
L 258.523039 165.519447 
L 259.515745 153.943646 
L 260.50845 144.984968 
L 261.501156 141.357506 
L 262.493862 145.94443 
L 263.486568 152.090337 
L 264.479274 159.420552 
L 265.47198 162.843735 
L 267.457392 158.737579 
L 268.450098 160.01199 
L 269.442804 155.105814 
L 270.43551 145.353079 
L 271.428216 137.213303 
L 272.420922 135.560318 
L 273.413627 138.424714 
L 274.406333 132.024229 
L 275.399039 117.430466 
L 276.391745 107.289094 
L 277.384451 103.617629 
L 278.377157 108.250707 
L 279.369863 122.758867 
L 280.362569 172.303694 
L 282.347981 108.235288 
L 283.340687 94.870746 
L 284.333393 89.28 
L 285.326099 90.054938 
L 286.318804 96.287648 
L 287.31151 109.065572 
L 288.304216 134.587714 
L 289.296922 192.970736 
L 290.289628 156.033519 
L 291.282334 141.587306 
L 292.27504 145.00241 
L 293.267746 158.368828 
L 294.260452 179.013095 
L 295.253158 206.067283 
L 296.245864 244.243049 
L 297.23857 253.129945 
L 298.231276 242.364734 
L 299.223981 216.085149 
L 300.216687 214.246922 
L 302.202099 223.847507 
L 304.187511 218.209429 
L 305.180217 213.507018 
L 306.172923 220.065963 
L 307.165629 239.887162 
L 309.151041 301.361256 
L 310.143747 255.050224 
L 311.136453 264.265027 
L 312.129159 259.273973 
L 313.121864 261.044291 
L 314.11457 257.408504 
L 315.107276 280.017304 
L 316.099982 272.180142 
L 317.092688 299.386204 
L 318.085394 292.556974 
L 319.0781 288.644311 
L 320.070806 294.816641 
L 321.063512 279.503241 
L 322.056218 326.401447 
L 323.048924 272.71924 
L 324.04163 262.696152 
L 325.034336 303.33509 
L 326.027041 277.969431 
L 327.019747 314.744313 
L 328.012453 342.418123 
L 329.005159 301.223182 
L 329.997865 324.257231 
L 330.990571 272.908648 
L 331.983277 310.364326 
L 332.975983 282.638462 
L 333.968689 295.126292 
L 334.961395 273.581473 
L 335.954101 326.267827 
L 336.946807 268.489124 
L 337.939513 268.071152 
L 338.932218 280.419227 
L 339.924924 258.478328 
L 340.91763 294.591673 
L 341.910336 323.335389 
L 342.903042 355.522571 
L 343.895748 290.713153 
L 344.888454 342.614153 
L 345.88116 292.903591 
L 346.873866 269.460565 
L 347.866572 359.545634 
L 348.859278 283.22166 
L 349.851984 300.039116 
L 350.84469 262.578293 
L 351.837395 314.023248 
L 352.830101 279.569012 
L 353.822807 326.018007 
L 354.815513 303.715496 
L 355.808219 290.614828 
L 356.800925 284.945736 
L 357.793631 274.193835 
L 358.786337 302.568119 
L 359.779043 282.176599 
L 360.771749 303.825009 
L 361.764455 272.622645 
L 362.757161 286.58507 
L 363.749867 285.522358 
L 364.742572 289.803337 
L 365.735278 285.181937 
L 366.727984 279.265305 
L 367.72069 280.387465 
L 368.713396 282.261125 
L 369.706102 282.705011 
L 370.698808 280.805732 
L 371.691514 351.163017 
L 372.68422 317.57852 
L 373.676926 308.711405 
L 374.669632 290.23599 
L 375.662338 277.985614 
L 376.655044 277.541147 
L 378.640455 350.813183 
L 379.633161 300.791495 
L 380.625867 279.35416 
L 381.618573 261.425271 
L 382.611279 314.706156 
L 383.603985 318.23046 
L 384.596691 300.057581 
L 385.589397 316.993867 
L 386.582103 253.582836 
L 387.574809 287.134016 
L 388.567515 286.243957 
L 389.560221 283.10249 
L 390.552927 277.341011 
L 391.545632 276.316685 
L 392.538338 266.423183 
L 393.531044 298.879682 
L 394.52375 275.170581 
L 395.516456 303.331616 
L 396.509162 263.980556 
L 397.501868 291.736783 
L 398.494574 287.329089 
L 399.48728 277.461232 
L 400.479986 323.878017 
L 401.472692 279.731678 
L 402.465398 284.421139 
L 403.458104 282.241033 
L 404.450809 259.781851 
L 405.443515 271.289496 
L 406.436221 312.525581 
L 407.428927 275.914967 
L 408.421633 284.092327 
L 409.414339 326.187031 
L 410.407045 279.565183 
L 411.399751 281.353994 
L 412.392457 298.437775 
L 413.385163 321.304545 
L 414.377869 278.295946 
L 415.370575 287.062062 
L 416.363281 277.263697 
L 417.355986 324.612021 
L 418.348692 307.416421 
L 419.341398 320.133271 
L 420.334104 298.366084 
L 421.32681 292.471382 
L 422.319516 343.613913 
L 423.312222 284.949222 
L 424.304928 283.218893 
L 425.297634 272.716409 
L 426.29034 320.762617 
L 427.283046 299.03989 
L 428.275752 290.309724 
L 429.268458 270.443471 
L 430.261163 298.146972 
L 431.253869 287.535331 
L 432.246575 283.631922 
L 433.239281 264.881517 
L 434.231987 280.559857 
L 435.224693 336.570032 
L 436.217399 349.858057 
L 437.210105 282.694897 
L 438.202811 307.509579 
L 439.195517 297.585089 
L 440.188223 337.772685 
L 441.180929 294.532308 
L 442.173635 297.884787 
L 443.166341 284.662804 
L 444.159046 313.734938 
L 445.151752 301.073454 
L 446.144458 323.378647 
L 447.137164 280.66575 
L 448.12987 311.933063 
L 449.122576 300.320382 
L 451.107988 326.53064 
L 452.100694 268.571599 
L 453.0934 324.366626 
L 454.086106 295.985033 
L 455.078812 289.373629 
L 456.071518 262.319278 
L 457.064223 368.967861 
L 458.056929 266.892097 
L 459.049635 314.711764 
L 460.042341 296.779911 
L 461.035047 375.29373 
L 462.027753 318.309024 
L 463.020459 301.065623 
L 464.013165 327.46818 
L 465.005871 317.609662 
L 465.998577 313.410745 
L 466.991283 339.156629 
L 467.983989 343.202581 
L 468.976695 280.420578 
L 469.9694 265.348798 
L 470.962106 347.50483 
L 471.954812 301.89349 
L 472.947518 314.011565 
L 473.940224 279.830772 
L 474.93293 271.279589 
L 475.925636 307.144022 
L 476.918342 313.082595 
L 477.911048 300.49522 
L 478.903754 296.078398 
L 479.89646 294.70592 
L 480.889166 288.630508 
L 481.881872 291.224209 
L 483.867283 277.248023 
L 484.859989 294.87741 
L 485.852695 293.853711 
L 486.845401 271.470438 
L 487.838107 289.735949 
L 488.830813 314.569006 
L 489.823519 342.642985 
L 490.816225 292.581031 
L 491.808931 305.3131 
L 492.801637 308.426947 
L 493.794343 282.125673 
L 494.787049 327.467928 
L 495.779754 316.653438 
L 496.77246 293.84091 
L 497.765166 343.670295 
L 498.757872 346.994191 
L 499.750578 269.11497 
L 500.743284 276.941704 
L 501.73599 280.842787 
L 502.728696 361.624235 
L 503.721402 285.964556 
L 504.714108 277.289314 
L 505.706814 325.182848 
L 506.69952 283.819162 
L 507.692226 289.276296 
L 508.684932 319.343926 
L 509.677637 277.152309 
L 510.670343 330.12877 
L 511.663049 298.947547 
L 512.655755 271.6668 
L 513.648461 284.549616 
L 514.641167 272.799678 
L 515.633873 275.574313 
L 516.626579 315.5959 
L 517.619285 266.93388 
L 518.611991 302.839535 
L 520.597403 294.06217 
L 521.590109 307.093493 
L 522.582814 294.177209 
L 523.57552 279.1379 
L 524.568226 293.076842 
L 525.560932 297.623123 
L 526.553638 280.128442 
L 527.546344 287.342807 
L 528.53905 313.897814 
L 529.531756 310.264169 
L 530.524462 274.957663 
L 531.517168 280.119115 
L 532.509874 263.057598 
L 533.50258 292.359465 
L 534.495286 277.880335 
L 535.487991 300.86647 
L 536.480697 293.340842 
L 537.473403 326.590306 
L 538.466109 302.978388 
L 539.458815 292.592556 
L 540.451521 283.909157 
L 541.444227 308.225695 
L 542.436933 271.846793 
L 543.429639 301.280166 
L 544.422345 266.059086 
L 545.415051 307.101088 
L 546.407757 292.882336 
L 547.400463 276.876781 
L 548.393168 299.33626 
L 549.385874 347.919259 
L 550.37858 266.390863 
L 551.371286 361.600575 
L 552.363992 268.083945 
L 553.356698 283.375354 
L 554.349404 331.754442 
L 555.34211 286.24678 
L 556.334816 278.043718 
L 557.327522 303.831098 
L 558.320228 305.421226 
L 559.312934 321.599108 
L 560.30564 268.865449 
L 561.298345 300.838843 
L 562.291051 288.767632 
L 563.283757 313.232112 
L 564.276463 300.08863 
L 565.269169 290.381326 
L 566.261875 318.892116 
L 567.254581 316.863974 
L 568.247287 321.49842 
L 569.239993 310.611787 
L 570.232699 306.020906 
L 571.225405 302.271392 
L 572.218111 299.457551 
L 573.210817 317.040327 
L 574.203523 287.126497 
L 575.196228 331.029574 
L 576.188934 282.922949 
L 577.18164 317.627348 
L 578.174346 291.599819 
L 580.159758 346.856392 
L 581.152464 278.923167 
L 582.14517 310.881933 
L 583.137876 317.613335 
L 584.130582 292.972062 
L 585.123288 315.454544 
L 586.115994 286.697 
L 587.1087 297.047396 
L 588.101405 331.688151 
L 589.094111 287.879006 
L 590.086817 292.874576 
L 591.079523 318.239369 
L 592.072229 295.764243 
L 593.064935 334.760889 
L 594.057641 297.210929 
L 595.050347 330.956612 
L 596.043053 307.632065 
L 597.035759 318.051948 
L 598.028465 323.706403 
L 599.021171 318.390974 
L 600.013877 314.817714 
L 601.006582 274.633125 
L 601.999288 289.638736 
L 602.991994 321.825766 
L 603.9847 305.226462 
L 604.977406 331.583016 
L 605.970112 343.319949 
L 606.962818 310.781557 
L 607.955524 312.554101 
L 608.94823 299.757548 
L 609.940936 300.739042 
L 610.933642 343.660883 
L 611.926348 322.986749 
L 612.919054 338.380026 
L 613.911759 318.252135 
L 614.904465 304.404549 
L 615.897171 317.090035 
L 616.889877 311.680274 
L 617.882583 323.961784 
L 618.875289 384.197961 
L 619.867995 358.041907 
L 620.860701 311.794848 
L 621.853407 314.682487 
L 622.846113 320.380321 
L 623.838819 318.339922 
L 624.831525 309.195133 
L 625.824231 333.174149 
L 626.816936 334.635661 
L 627.809642 384.033813 
L 628.802348 316.190557 
L 629.795054 330.61467 
L 630.78776 330.956155 
L 631.780466 317.839492 
L 632.773172 351.004403 
L 633.765878 307.353187 
L 634.758584 350.15495 
L 635.75129 336.213759 
L 636.743996 409.268446 
L 637.736702 340.728468 
L 638.729408 318.157023 
L 639.722114 321.780226 
L 640.714819 357.774658 
L 641.707525 328.473193 
L 642.700231 323.487956 
L 643.692937 338.383585 
L 644.685643 357.382264 
L 645.678349 337.353692 
L 646.671055 355.503256 
L 647.663761 359.307438 
L 648.656467 325.743462 
L 649.649173 355.284595 
L 650.641879 333.652814 
L 651.634585 341.813296 
L 652.627291 349.018108 
L 653.619996 355.143615 
L 654.612702 366.596309 
L 655.605408 397.13727 
L 656.598114 344.080602 
L 657.59082 442.809976 
L 658.583526 346.522279 
L 659.576232 342.882759 
L 660.568938 341.994458 
L 661.561644 357.943342 
L 662.55435 391.4248 
L 663.547056 372.90433 
L 664.539762 386.900127 
L 665.532468 353.587958 
L 666.525173 369.127564 
L 667.517879 364.494987 
L 668.510585 364.628711 
L 669.503291 364.032567 
L 670.495997 349.642469 
L 671.488703 406.692399 
L 672.481409 366.182082 
L 673.474115 377.012269 
L 674.466821 379.151276 
L 675.459527 359.674739 
L 676.452233 355.361099 
L 677.444939 388.762858 
L 678.437645 380.020434 
L 679.43035 414.641557 
L 680.423056 365.320342 
L 681.415762 361.127481 
L 682.408468 383.880936 
L 683.401174 364.948631 
L 684.39388 405.454773 
L 685.386586 420.237869 
L 686.379292 368.999912 
L 687.371998 464.147891 
L 688.364704 364.975324 
L 689.35741 382.771639 
L 690.350116 374.293865 
L 691.342822 383.221593 
L 692.335527 385.230132 
L 693.328233 399.639349 
L 694.320939 385.815357 
L 695.313645 354.864994 
L 696.306351 405.125989 
L 697.299057 388.363668 
L 698.291763 350.383996 
L 699.284469 402.573357 
L 700.277175 391.613405 
L 701.269881 426.543911 
L 702.262587 375.94181 
L 703.255293 404.323826 
L 704.247999 375.794198 
L 705.240705 435.96703 
L 706.23341 373.41584 
L 707.226116 393.466298 
L 708.218822 425.322329 
L 709.211528 349.877896 
L 710.204234 402.781433 
L 711.19694 394.081749 
L 712.189646 376.992986 
L 713.182352 446.876451 
L 714.175058 399.207863 
L 715.167764 418.631436 
L 716.16047 385.563639 
L 717.153176 417.251341 
L 718.145882 370.794093 
L 719.138587 424.042041 
L 720.131293 384.006358 
L 721.123999 396.889706 
L 722.116705 385.23866 
L 723.109411 363.369726 
L 724.102117 400.977505 
L 725.094823 404.229649 
L 726.087529 406.938153 
L 728.072941 379.090061 
L 729.065647 429.444214 
L 730.058353 385.004998 
L 731.051059 386.068924 
L 732.043764 480.366243 
L 733.03647 383.842894 
L 734.029176 370.891065 
L 736.014588 397.04342 
L 737.007294 410.0353 
L 738 424.741804 
L 738.992706 415.278033 
L 739.985412 385.568434 
L 740.978118 424.946413 
L 741.970824 390.938914 
L 742.96353 387.312494 
L 743.956236 376.047166 
L 744.948941 397.366758 
L 745.941647 433.231389 
L 746.934353 375.298481 
L 747.927059 410.502667 
L 748.919765 386.229962 
L 749.912471 425.110406 
L 750.905177 378.832116 
L 751.897883 435.054941 
L 752.890589 399.184495 
L 753.883295 390.152678 
L 754.876001 386.197085 
L 755.868707 406.584924 
L 756.861413 385.086879 
L 757.854118 423.198586 
L 758.846824 417.862166 
L 759.83953 393.567052 
L 760.832236 394.377859 
L 761.824942 386.565551 
L 762.817648 427.074667 
L 763.810354 414.505205 
L 764.80306 462.730814 
L 765.795766 422.998103 
L 766.788472 414.949146 
L 767.781178 423.048322 
L 768.773884 401.195049 
L 769.76659 435.061611 
L 770.759295 411.740252 
L 771.752001 398.975671 
L 772.744707 394.015196 
L 774.730119 372.299924 
L 775.722825 402.206747 
L 776.715531 397.818203 
L 777.708237 378.879783 
L 778.700943 413.20343 
L 779.693649 405.043271 
L 780.686355 424.159039 
L 781.679061 411.742462 
L 782.671767 403.093493 
L 783.664473 405.904965 
L 784.657178 405.292334 
L 785.649884 401.212074 
L 786.64259 386.260586 
L 787.635296 404.495155 
L 788.628002 396.560655 
L 789.620708 422.739203 
L 790.613414 387.480442 
L 791.60612 380.530847 
L 792.598826 389.005113 
L 793.591532 401.218863 
L 794.584238 370.886332 
L 795.576944 384.271578 
L 796.56965 411.447959 
L 797.562355 381.518832 
L 798.555061 398.061813 
L 799.547767 405.404316 
L 800.540473 409.01207 
L 801.533179 403.052928 
L 802.525885 411.168556 
L 803.518591 435.805688 
L 804.511297 426.621168 
L 805.504003 436.396334 
L 806.496709 397.089553 
L 807.489415 408.010679 
L 808.482121 382.218911 
L 809.474827 395.000262 
L 810.467532 394.564586 
L 811.460238 431.125533 
L 812.452944 420.31273 
L 813.44565 472.179931 
L 814.438356 402.645476 
L 815.431062 397.839058 
L 816.423768 411.27921 
L 817.416474 378.643866 
L 818.40918 381.059839 
L 819.401886 390.811429 
L 821.387298 420.755747 
L 822.380004 434.497635 
L 823.372709 403.633754 
L 824.365415 380.997005 
L 825.358121 426.297976 
L 826.350827 383.091181 
L 827.343533 420.622519 
L 828.336239 386.11088 
L 829.328945 417.723252 
L 830.321651 417.719404 
L 831.314357 388.936708 
L 832.307063 393.134675 
L 833.299769 442.769901 
L 834.292475 386.002096 
L 835.285181 402.240719 
L 836.277886 403.567104 
L 837.270592 408.001083 
L 838.263298 389.849757 
L 839.256004 418.900746 
L 840.24871 429.580866 
L 841.241416 410.228293 
L 842.234122 479.575311 
L 843.226828 439.848876 
L 844.219534 405.440779 
L 845.21224 376.079953 
L 846.204946 409.967203 
L 847.197652 385.374286 
L 848.190358 420.546397 
L 849.183064 397.204544 
L 850.175769 379.453068 
L 851.168475 432.848333 
L 852.161181 399.500674 
L 853.153887 437.133129 
L 854.146593 399.857746 
L 855.139299 407.57444 
L 856.132005 389.472251 
L 857.124711 401.14688 
L 858.117417 402.822371 
L 859.110123 387.523209 
L 860.102829 399.513867 
L 861.095535 435.049105 
L 862.088241 387.463918 
L 863.080946 398.681622 
L 864.073652 397.366225 
L 865.066358 420.303798 
L 867.05177 398.993107 
L 868.044476 430.667581 
L 869.037182 449.536329 
L 870.029888 374.991119 
L 871.022594 391.107448 
L 872.0153 411.971324 
L 873.008006 405.670358 
L 874.000712 409.029608 
L 874.993418 385.245347 
L 875.986123 395.090065 
L 876.978829 375.944921 
L 877.971535 414.359505 
L 879.956947 383.599261 
L 880.949653 406.494198 
L 881.942359 453.059722 
L 882.935065 411.652342 
L 883.927771 409.21132 
L 884.920477 430.9706 
L 885.913183 390.666597 
L 886.905889 407.579705 
L 887.898595 403.906538 
L 888.8913 414.170012 
L 889.884006 394.055957 
L 890.876712 405.468516 
L 891.869418 387.611868 
L 892.862124 388.150172 
L 893.85483 387.19001 
L 894.847536 395.497433 
L 895.840242 420.243605 
L 896.832948 393.196394 
L 897.825654 431.097126 
L 899.811066 391.080763 
L 900.803772 423.959372 
L 901.796477 383.811789 
L 902.789183 424.822283 
L 903.781889 441.468263 
L 904.774595 407.612992 
L 905.767301 409.224525 
L 906.760007 383.419336 
L 907.752713 423.25883 
L 908.745419 392.191464 
L 909.738125 431.253021 
L 910.730831 417.398318 
L 911.723537 417.003955 
L 912.716243 417.822242 
L 913.708949 416.869368 
L 914.701655 447.443709 
L 915.69436 401.863888 
L 916.687066 391.388422 
L 917.679772 394.46443 
L 918.672478 410.323215 
L 919.665184 390.917962 
L 920.65789 424.247783 
L 921.650596 430.494178 
L 922.643302 403.223601 
L 923.636008 397.389214 
L 924.628714 390.854995 
L 925.62142 392.063265 
L 926.614126 489.158414 
L 927.606832 404.233568 
L 928.599537 404.848482 
L 929.592243 413.258844 
L 930.584949 384.538224 
L 931.577655 412.979511 
L 932.570361 415.590541 
L 933.563067 388.102101 
L 934.555773 412.188272 
L 935.548479 423.909155 
L 936.541185 403.810649 
L 937.533891 412.683053 
L 938.526597 410.981442 
L 940.512009 433.517209 
L 941.504714 408.139875 
L 942.49742 396.743262 
L 943.490126 475.731322 
L 944.482832 409.559727 
L 945.475538 393.475895 
L 946.468244 448.1015 
L 947.46095 383.374727 
L 948.453656 392.957932 
L 949.446362 418.97237 
L 950.439068 397.620641 
L 951.431774 400.587198 
L 952.42448 381.628136 
L 953.417186 411.545579 
L 954.409891 406.379581 
L 955.402597 436.233564 
L 956.395303 427.616069 
L 957.388009 396.272075 
L 958.380715 390.135855 
L 959.373421 450.357332 
L 960.366127 404.203423 
L 961.358833 427.123022 
L 962.351539 400.899149 
L 963.344245 429.653515 
L 964.336951 386.721104 
L 965.329657 445.277715 
L 966.322363 416.077654 
L 967.315068 418.14697 
L 968.307774 402.139204 
L 969.30048 418.395445 
L 970.293186 402.714128 
L 971.285892 409.796441 
L 972.278598 389.043616 
L 973.271304 407.043181 
L 974.26401 405.424113 
L 975.256716 408.962813 
L 976.249422 390.492536 
L 977.242128 431.423314 
L 978.234834 399.063659 
L 979.22754 384.503294 
L 980.220246 421.582234 
L 981.212951 403.484398 
L 982.205657 432.206184 
L 983.198363 412.551228 
L 984.191069 401.352766 
L 985.183775 436.061704 
L 986.176481 387.690896 
L 987.169187 399.799608 
L 988.161893 415.653363 
L 989.154599 441.279672 
L 990.147305 396.073825 
L 991.140011 415.387851 
L 992.132717 420.435372 
L 993.125423 443.663142 
L 994.118128 403.894001 
L 995.110834 384.053414 
L 996.10354 424.126381 
L 997.096246 385.433501 
L 998.088952 386.190025 
L 1000.074364 431.029974 
L 1001.06707 388.382206 
L 1002.059776 422.919826 
L 1003.052482 427.204408 
L 1004.045188 412.630263 
L 1005.037894 404.787094 
L 1006.0306 438.745573 
L 1007.023305 398.933539 
L 1008.016011 398.178783 
L 1009.008717 388.953202 
L 1010.001423 438.353623 
L 1010.994129 420.354585 
L 1011.986835 436.394839 
L 1012.979541 447.448509 
L 1013.972247 409.961835 
L 1014.964953 412.155973 
L 1015.957659 392.599472 
L 1016.950365 428.265586 
L 1017.943071 433.224902 
L 1018.935777 381.114154 
L 1019.928482 401.326367 
L 1020.921188 409.403638 
L 1021.913894 382.085644 
L 1022.9066 403.598118 
L 1023.899306 410.091246 
L 1024.892012 398.520113 
L 1026.877424 413.905207 
L 1027.87013 420.18378 
L 1028.862836 397.123217 
L 1029.855542 405.481306 
L 1030.848248 393.435863 
L 1031.840954 408.103755 
L 1032.833659 403.023438 
L 1033.826365 415.504197 
L 1034.819071 399.45045 
L 1035.811777 393.193375 
L 1036.804483 407.322859 
L 1037.797189 426.879919 
L 1038.789895 423.692451 
L 1039.782601 456.421268 
L 1040.775307 397.734649 
L 1041.768013 398.322517 
L 1042.760719 400.313179 
L 1043.753425 400.472157 
L 1044.746131 409.414935 
L 1045.738837 408.432503 
L 1046.731542 444.706951 
L 1047.724248 403.205483 
L 1048.716954 408.066606 
L 1049.70966 417.867246 
L 1050.702366 406.605389 
L 1051.695072 403.024209 
L 1052.687778 418.454348 
L 1053.680484 406.940717 
L 1054.67319 407.653105 
L 1055.665896 448.824278 
L 1056.658602 397.940861 
L 1057.651308 430.554614 
L 1058.644014 412.220072 
L 1059.636719 391.015109 
L 1060.629425 385.853663 
L 1061.622131 384.406 
L 1062.614837 383.182558 
L 1063.607543 396.884977 
L 1064.600249 393.204141 
L 1065.592955 399.35487 
L 1066.585661 452.612204 
L 1067.578367 410.151921 
L 1068.571073 420.461004 
L 1069.563779 394.727811 
L 1070.556485 396.185614 
L 1071.549191 470.937584 
L 1072.541896 426.996169 
L 1073.534602 445.439582 
L 1074.527308 378.088125 
L 1075.520014 429.380701 
L 1076.51272 396.266075 
L 1078.498132 435.393722 
L 1079.490838 433.02989 
L 1080.483544 417.465225 
L 1081.47625 415.793169 
L 1082.468956 441.506399 
L 1083.461662 402.745064 
L 1084.454368 403.903359 
L 1085.447073 391.408584 
L 1086.439779 438.265025 
L 1087.432485 400.906082 
L 1088.425191 408.778668 
L 1089.417897 391.186038 
L 1090.410603 403.050898 
L 1091.403309 411.763066 
L 1092.396015 414.461107 
L 1093.388721 419.869873 
L 1094.381427 387.492097 
L 1095.374133 399.655165 
L 1096.366839 399.974023 
L 1097.359545 391.062712 
L 1098.35225 412.896521 
L 1099.344956 417.738557 
L 1100.337662 410.218404 
L 1101.330368 411.277217 
L 1102.323074 402.451187 
L 1103.31578 414.607161 
L 1104.308486 385.278636 
L 1105.301192 422.097596 
L 1106.293898 399.787731 
L 1107.286604 405.035113 
L 1108.27931 394.852895 
L 1109.272016 395.433504 
L 1110.264722 387.482175 
L 1111.257428 410.172364 
L 1112.250133 425.478542 
L 1113.242839 429.196406 
L 1115.228251 383.600884 
L 1116.220957 394.667461 
L 1117.213663 427.10436 
L 1118.206369 406.344771 
L 1119.199075 408.030849 
L 1120.191781 395.584997 
L 1121.184487 379.543053 
L 1122.177193 392.825918 
L 1123.169899 420.707734 
L 1124.162605 415.706645 
L 1125.15531 431.471714 
L 1126.148016 423.467861 
L 1127.140722 409.885177 
L 1128.133428 402.713501 
L 1129.126134 423.098686 
L 1130.11884 390.78391 
L 1131.111546 413.420232 
L 1132.104252 393.185371 
L 1133.096958 401.737823 
L 1134.089664 412.061496 
L 1135.08237 407.638388 
L 1136.075076 386.50891 
L 1137.067782 412.399324 
L 1138.060487 409.928513 
L 1139.053193 402.773018 
L 1140.045899 432.189157 
L 1141.038605 392.424188 
L 1142.031311 450.082916 
L 1143.024017 406.102366 
L 1144.016723 385.519594 
L 1145.009429 368.274957 
L 1146.002135 395.601183 
L 1146.994841 391.489462 
L 1147.987547 422.511501 
L 1148.980253 412.258399 
L 1149.972959 424.513097 
L 1150.965664 418.510569 
L 1151.95837 390.989678 
L 1152.951076 400.125582 
L 1153.943782 411.355596 
L 1154.936488 401.524869 
L 1155.929194 400.18585 
L 1156.9219 406.439839 
L 1157.914606 409.770052 
L 1158.907312 389.684589 
L 1159.900018 399.363429 
L 1160.892724 403.26714 
L 1161.88543 434.215261 
L 1162.878136 412.911933 
L 1163.870841 394.260762 
L 1164.863547 428.596897 
L 1165.856253 487.545581 
L 1166.848959 408.385281 
L 1167.841665 394.912887 
L 1168.834371 391.316159 
L 1169.827077 441.71389 
L 1170.819783 428.974595 
L 1171.812489 418.167864 
L 1172.805195 416.780847 
L 1173.797901 436.648659 
L 1174.790607 438.952888 
L 1175.783313 420.156111 
L 1176.776019 419.155113 
L 1177.768724 430.624594 
L 1178.76143 383.099051 
L 1179.754136 492.48 
L 1180.746842 423.842968 
L 1181.739548 479.362676 
L 1182.732254 424.011004 
L 1183.72496 428.863895 
L 1184.717666 410.050071 
L 1185.710372 428.819123 
L 1186.703078 405.203868 
L 1187.695784 403.77325 
L 1188.68849 387.507423 
L 1190.673901 404.226897 
L 1191.666607 404.809234 
L 1192.659313 384.777831 
L 1193.652019 449.042594 
L 1194.644725 408.012914 
L 1195.637431 424.708134 
L 1196.630137 383.473506 
L 1197.622843 410.145694 
L 1198.615549 431.022284 
L 1199.608255 395.297158 
L 1200.600961 450.207675 
L 1201.593667 417.397541 
L 1202.586373 459.931209 
L 1203.579078 393.969151 
L 1204.571784 410.698268 
L 1205.56449 421.154005 
L 1206.557196 406.757482 
L 1207.549902 383.339333 
L 1208.542608 464.841574 
L 1209.535314 392.438595 
L 1210.52802 401.273102 
L 1211.520726 413.537118 
L 1212.513432 435.029952 
L 1213.506138 416.680403 
L 1214.498844 389.547598 
L 1215.49155 387.54609 
L 1216.484255 405.682808 
L 1217.476961 431.12578 
L 1218.469667 412.147783 
L 1219.462373 419.868683 
L 1220.455079 399.484091 
L 1221.447785 421.575651 
L 1222.440491 426.639021 
L 1223.433197 473.808453 
L 1224.425903 402.04704 
L 1225.418609 399.76309 
L 1226.411315 404.146722 
L 1227.404021 414.289257 
L 1228.396727 381.333195 
L 1229.389432 408.569213 
L 1230.382138 441.292307 
L 1231.374844 409.954477 
L 1232.36755 458.883901 
L 1233.360256 401.319586 
L 1234.352962 409.538585 
L 1235.345668 400.732232 
L 1236.338374 422.418189 
L 1237.33108 432.693927 
L 1238.323786 399.708729 
L 1239.316492 399.494107 
L 1241.301904 410.429617 
L 1242.29461 395.761729 
L 1243.287315 393.204673 
L 1244.280021 391.593371 
L 1245.272727 397.704659 
L 1245.272727 397.704659 
" clip-path="url(#p942c2edcaa)" style="fill: none; stroke: #1f77b4; stroke-width: 1.5; stroke-linecap: square"/>
   </g>
   <g id="patch_3">
    <path d="M 180 512.64 
L 180 69.12 
" style="fill: none; stroke: #000000; stroke-width: 0.8; stroke-linejoin: miter; stroke-linecap: square"/>
   </g>
   <g id="patch_4">
    <path d="M 1296 512.64 
L 1296 69.12 
" style="fill: none; stroke: #000000; stroke-width: 0.8; stroke-linejoin: miter; stroke-linecap: square"/>
   </g>
   <g id="patch_5">
    <path d="M 180 512.64 
L 1296 512.64 
" style="fill: none; stroke: #000000; stroke-width: 0.8; stroke-linejoin: miter; stroke-linecap: square"/>
   </g>
   <g id="patch_6">
    <path d="M 180 69.12 
L 1296 69.12 
" style="fill: none; stroke: #000000; stroke-width: 0.8; stroke-linejoin: miter; stroke-linecap: square"/>
   </g>
   <g id="text_13">
    <!-- source19-receiver22 -->
    <g transform="translate(532.175 60.80125) scale(0.4 -0.4)">
     <defs>
      <path id="DejaVuSans-73" d="M 2834 3397 
L 2834 2853 
Q 2591 2978 2328 3040 
Q 2066 3103 1784 3103 
Q 1356 3103 1142 2972 
Q 928 2841 928 2578 
Q 928 2378 1081 2264 
Q 1234 2150 1697 2047 
L 1894 2003 
Q 2506 1872 2764 1633 
Q 3022 1394 3022 966 
Q 3022 478 2636 193 
Q 2250 -91 1575 -91 
Q 1294 -91 989 -36 
Q 684 19 347 128 
L 347 722 
Q 666 556 975 473 
Q 1284 391 1588 391 
Q 1994 391 2212 530 
Q 2431 669 2431 922 
Q 2431 1156 2273 1281 
Q 2116 1406 1581 1522 
L 1381 1569 
Q 847 1681 609 1914 
Q 372 2147 372 2553 
Q 372 3047 722 3315 
Q 1072 3584 1716 3584 
Q 2034 3584 2315 3537 
Q 2597 3491 2834 3397 
z
" transform="scale(0.015625)"/>
      <path id="DejaVuSans-6f" d="M 1959 3097 
Q 1497 3097 1228 2736 
Q 959 2375 959 1747 
Q 959 1119 1226 758 
Q 1494 397 1959 397 
Q 2419 397 2687 759 
Q 2956 1122 2956 1747 
Q 2956 2369 2687 2733 
Q 2419 3097 1959 3097 
z
M 1959 3584 
Q 2709 3584 3137 3096 
Q 3566 2609 3566 1747 
Q 3566 888 3137 398 
Q 2709 -91 1959 -91 
Q 1206 -91 779 398 
Q 353 888 353 1747 
Q 353 2609 779 3096 
Q 1206 3584 1959 3584 
z
" transform="scale(0.015625)"/>
      <path id="DejaVuSans-75" d="M 544 1381 
L 544 3500 
L 1119 3500 
L 1119 1403 
Q 1119 906 1312 657 
Q 1506 409 1894 409 
Q 2359 409 2629 706 
Q 2900 1003 2900 1516 
L 2900 3500 
L 3475 3500 
L 3475 0 
L 2900 0 
L 2900 538 
Q 2691 219 2414 64 
Q 2138 -91 1772 -91 
Q 1169 -91 856 284 
Q 544 659 544 1381 
z
M 1991 3584 
L 1991 3584 
z
" transform="scale(0.015625)"/>
      <path id="DejaVuSans-72" d="M 2631 2963 
Q 2534 3019 2420 3045 
Q 2306 3072 2169 3072 
Q 1681 3072 1420 2755 
Q 1159 2438 1159 1844 
L 1159 0 
L 581 0 
L 581 3500 
L 1159 3500 
L 1159 2956 
Q 1341 3275 1631 3429 
Q 1922 3584 2338 3584 
Q 2397 3584 2469 3576 
Q 2541 3569 2628 3553 
L 2631 2963 
z
" transform="scale(0.015625)"/>
      <path id="DejaVuSans-63" d="M 3122 3366 
L 3122 2828 
Q 2878 2963 2633 3030 
Q 2388 3097 2138 3097 
Q 1578 3097 1268 2742 
Q 959 2388 959 1747 
Q 959 1106 1268 751 
Q 1578 397 2138 397 
Q 2388 397 2633 464 
Q 2878 531 3122 666 
L 3122 134 
Q 2881 22 2623 -34 
Q 2366 -91 2075 -91 
Q 1284 -91 818 406 
Q 353 903 353 1747 
Q 353 2603 823 3093 
Q 1294 3584 2113 3584 
Q 2378 3584 2631 3529 
Q 2884 3475 3122 3366 
z
" transform="scale(0.015625)"/>
      <path id="DejaVuSans-65" d="M 3597 1894 
L 3597 1613 
L 953 1613 
Q 991 1019 1311 708 
Q 1631 397 2203 397 
Q 2534 397 2845 478 
Q 3156 559 3463 722 
L 3463 178 
Q 3153 47 2828 -22 
Q 2503 -91 2169 -91 
Q 1331 -91 842 396 
Q 353 884 353 1716 
Q 353 2575 817 3079 
Q 1281 3584 2069 3584 
Q 2775 3584 3186 3129 
Q 3597 2675 3597 1894 
z
M 3022 2063 
Q 3016 2534 2758 2815 
Q 2500 3097 2075 3097 
Q 1594 3097 1305 2825 
Q 1016 2553 972 2059 
L 3022 2063 
z
" transform="scale(0.015625)"/>
      <path id="DejaVuSans-39" d="M 703 97 
L 703 672 
Q 941 559 1184 500 
Q 1428 441 1663 441 
Q 2288 441 2617 861 
Q 2947 1281 2994 2138 
Q 2813 1869 2534 1725 
Q 2256 1581 1919 1581 
Q 1219 1581 811 2004 
Q 403 2428 403 3163 
Q 403 3881 828 4315 
Q 1253 4750 1959 4750 
Q 2769 4750 3195 4129 
Q 3622 3509 3622 2328 
Q 3622 1225 3098 567 
Q 2575 -91 1691 -91 
Q 1453 -91 1209 -44 
Q 966 3 703 97 
z
M 1959 2075 
Q 2384 2075 2632 2365 
Q 2881 2656 2881 3163 
Q 2881 3666 2632 3958 
Q 2384 4250 1959 4250 
Q 1534 4250 1286 3958 
Q 1038 3666 1038 3163 
Q 1038 2656 1286 2365 
Q 1534 2075 1959 2075 
z
" transform="scale(0.015625)"/>
      <path id="DejaVuSans-2d" d="M 313 2009 
L 1997 2009 
L 1997 1497 
L 313 1497 
L 313 2009 
z
" transform="scale(0.015625)"/>
      <path id="DejaVuSans-69" d="M 603 3500 
L 1178 3500 
L 1178 0 
L 603 0 
L 603 3500 
z
M 603 4863 
L 1178 4863 
L 1178 4134 
L 603 4134 
L 603 4863 
z
" transform="scale(0.015625)"/>
      <path id="DejaVuSans-76" d="M 191 3500 
L 800 3500 
L 1894 563 
L 2988 3500 
L 3597 3500 
L 2284 0 
L 1503 0 
L 191 3500 
z
" transform="scale(0.015625)"/>
     </defs>
     <use xlink:href="#DejaVuSans-73"/>
     <use xlink:href="#DejaVuSans-6f" x="52.099609"/>
     <use xlink:href="#DejaVuSans-75" x="113.28125"/>
     <use xlink:href="#DejaVuSans-72" x="176.660156"/>
     <use xlink:href="#DejaVuSans-63" x="215.523438"/>
     <use xlink:href="#DejaVuSans-65" x="270.503906"/>
     <use xlink:href="#DejaVuSans-31" x="332.027344"/>
     <use xlink:href="#DejaVuSans-39" x="395.650391"/>
     <use xlink:href="#DejaVuSans-2d" x="459.273438"/>
     <use xlink:href="#DejaVuSans-72" x="495.357422"/>
     <use xlink:href="#DejaVuSans-65" x="534.220703"/>
     <use xlink:href="#DejaVuSans-63" x="595.744141"/>
     <use xlink:href="#DejaVuSans-65" x="650.724609"/>
     <use xlink:href="#DejaVuSans-69" x="712.248047"/>
     <use xlink:href="#DejaVuSans-76" x="740.03125"/>
     <use xlink:href="#DejaVuSans-65" x="799.210938"/>
     <use xlink:href="#DejaVuSans-72" x="860.734375"/>
     <use xlink:href="#DejaVuSans-32" x="901.847656"/>
     <use xlink:href="#DejaVuSans-32" x="965.470703"/>
    </g>
   </g>
  </g>
 </g>
 <defs>
  <clipPath id="p942c2edcaa">
   <rect x="180" y="69.12" width="1116" height="443.52"/>
  </clipPath>
 </defs>
</svg>
