<?xml version="1.0" encoding="utf-8" standalone="no"?>
<!DOCTYPE svg PUBLIC "-//W3C//DTD SVG 1.1//EN"
  "http://www.w3.org/Graphics/SVG/1.1/DTD/svg11.dtd">
<svg xmlns:xlink="http://www.w3.org/1999/xlink" width="1440pt" height="576pt" viewBox="0 0 1440 576" xmlns="http://www.w3.org/2000/svg" version="1.1">
 <metadata>
  <rdf:RDF xmlns:dc="http://purl.org/dc/elements/1.1/" xmlns:cc="http://creativecommons.org/ns#" xmlns:rdf="http://www.w3.org/1999/02/22-rdf-syntax-ns#">
   <cc:Work>
    <dc:type rdf:resource="http://purl.org/dc/dcmitype/StillImage"/>
    <dc:date>2024-05-22T04:50:16.775097</dc:date>
    <dc:format>image/svg+xml</dc:format>
    <dc:creator>
     <cc:Agent>
      <dc:title>Matplotlib v3.8.3, https://matplotlib.org/</dc:title>
     </cc:Agent>
    </dc:creator>
   </cc:Work>
  </rdf:RDF>
 </metadata>
 <defs>
  <style type="text/css">*{stroke-linejoin: round; stroke-linecap: butt}</style>
 </defs>
 <g id="figure_1">
  <g id="patch_1">
   <path d="M 0 576 
L 1440 576 
L 1440 0 
L 0 0 
z
" style="fill: #ffffff"/>
  </g>
  <g id="axes_1">
   <g id="patch_2">
    <path d="M 180 512.64 
L 1296 512.64 
L 1296 69.12 
L 180 69.12 
z
" style="fill: #ffffff"/>
   </g>
   <g id="matplotlib.axis_1">
    <g id="xtick_1">
     <g id="line2d_1">
      <defs>
       <path id="m156b665995" d="M 0 0 
L 0 3.5 
" style="stroke: #000000; stroke-width: 0.8"/>
      </defs>
      <g>
       <use xlink:href="#m156b665995" x="229.734567" y="512.64" style="stroke: #000000; stroke-width: 0.8"/>
      </g>
     </g>
     <g id="text_1">
      <!-- 0 -->
      <g transform="translate(226.553317 527.238438) scale(0.1 -0.1)">
       <defs>
        <path id="DejaVuSans-30" d="M 2034 4250 
Q 1547 4250 1301 3770 
Q 1056 3291 1056 2328 
Q 1056 1369 1301 889 
Q 1547 409 2034 409 
Q 2525 409 2770 889 
Q 3016 1369 3016 2328 
Q 3016 3291 2770 3770 
Q 2525 4250 2034 4250 
z
M 2034 4750 
Q 2819 4750 3233 4129 
Q 3647 3509 3647 2328 
Q 3647 1150 3233 529 
Q 2819 -91 2034 -91 
Q 1250 -91 836 529 
Q 422 1150 422 2328 
Q 422 3509 836 4129 
Q 1250 4750 2034 4750 
z
" transform="scale(0.015625)"/>
       </defs>
       <use xlink:href="#DejaVuSans-30"/>
      </g>
     </g>
    </g>
    <g id="xtick_2">
     <g id="line2d_2">
      <g>
       <use xlink:href="#m156b665995" x="433.04074" y="512.64" style="stroke: #000000; stroke-width: 0.8"/>
      </g>
     </g>
     <g id="text_2">
      <!-- 500 -->
      <g transform="translate(423.49699 527.238438) scale(0.1 -0.1)">
       <defs>
        <path id="DejaVuSans-35" d="M 691 4666 
L 3169 4666 
L 3169 4134 
L 1269 4134 
L 1269 2991 
Q 1406 3038 1543 3061 
Q 1681 3084 1819 3084 
Q 2600 3084 3056 2656 
Q 3513 2228 3513 1497 
Q 3513 744 3044 326 
Q 2575 -91 1722 -91 
Q 1428 -91 1123 -41 
Q 819 9 494 109 
L 494 744 
Q 775 591 1075 516 
Q 1375 441 1709 441 
Q 2250 441 2565 725 
Q 2881 1009 2881 1497 
Q 2881 1984 2565 2268 
Q 2250 2553 1709 2553 
Q 1456 2553 1204 2497 
Q 953 2441 691 2322 
L 691 4666 
z
" transform="scale(0.015625)"/>
       </defs>
       <use xlink:href="#DejaVuSans-35"/>
       <use xlink:href="#DejaVuSans-30" x="63.623047"/>
       <use xlink:href="#DejaVuSans-30" x="127.246094"/>
      </g>
     </g>
    </g>
    <g id="xtick_3">
     <g id="line2d_3">
      <g>
       <use xlink:href="#m156b665995" x="636.346913" y="512.64" style="stroke: #000000; stroke-width: 0.8"/>
      </g>
     </g>
     <g id="text_3">
      <!-- 1000 -->
      <g transform="translate(623.621913 527.238438) scale(0.1 -0.1)">
       <defs>
        <path id="DejaVuSans-31" d="M 794 531 
L 1825 531 
L 1825 4091 
L 703 3866 
L 703 4441 
L 1819 4666 
L 2450 4666 
L 2450 531 
L 3481 531 
L 3481 0 
L 794 0 
L 794 531 
z
" transform="scale(0.015625)"/>
       </defs>
       <use xlink:href="#DejaVuSans-31"/>
       <use xlink:href="#DejaVuSans-30" x="63.623047"/>
       <use xlink:href="#DejaVuSans-30" x="127.246094"/>
       <use xlink:href="#DejaVuSans-30" x="190.869141"/>
      </g>
     </g>
    </g>
    <g id="xtick_4">
     <g id="line2d_4">
      <g>
       <use xlink:href="#m156b665995" x="839.653087" y="512.64" style="stroke: #000000; stroke-width: 0.8"/>
      </g>
     </g>
     <g id="text_4">
      <!-- 1500 -->
      <g transform="translate(826.928087 527.238438) scale(0.1 -0.1)">
       <use xlink:href="#DejaVuSans-31"/>
       <use xlink:href="#DejaVuSans-35" x="63.623047"/>
       <use xlink:href="#DejaVuSans-30" x="127.246094"/>
       <use xlink:href="#DejaVuSans-30" x="190.869141"/>
      </g>
     </g>
    </g>
    <g id="xtick_5">
     <g id="line2d_5">
      <g>
       <use xlink:href="#m156b665995" x="1042.95926" y="512.64" style="stroke: #000000; stroke-width: 0.8"/>
      </g>
     </g>
     <g id="text_5">
      <!-- 2000 -->
      <g transform="translate(1030.23426 527.238438) scale(0.1 -0.1)">
       <defs>
        <path id="DejaVuSans-32" d="M 1228 531 
L 3431 531 
L 3431 0 
L 469 0 
L 469 531 
Q 828 903 1448 1529 
Q 2069 2156 2228 2338 
Q 2531 2678 2651 2914 
Q 2772 3150 2772 3378 
Q 2772 3750 2511 3984 
Q 2250 4219 1831 4219 
Q 1534 4219 1204 4116 
Q 875 4013 500 3803 
L 500 4441 
Q 881 4594 1212 4672 
Q 1544 4750 1819 4750 
Q 2544 4750 2975 4387 
Q 3406 4025 3406 3419 
Q 3406 3131 3298 2873 
Q 3191 2616 2906 2266 
Q 2828 2175 2409 1742 
Q 1991 1309 1228 531 
z
" transform="scale(0.015625)"/>
       </defs>
       <use xlink:href="#DejaVuSans-32"/>
       <use xlink:href="#DejaVuSans-30" x="63.623047"/>
       <use xlink:href="#DejaVuSans-30" x="127.246094"/>
       <use xlink:href="#DejaVuSans-30" x="190.869141"/>
      </g>
     </g>
    </g>
    <g id="xtick_6">
     <g id="line2d_6">
      <g>
       <use xlink:href="#m156b665995" x="1246.265433" y="512.64" style="stroke: #000000; stroke-width: 0.8"/>
      </g>
     </g>
     <g id="text_6">
      <!-- 2500 -->
      <g transform="translate(1233.540433 527.238438) scale(0.1 -0.1)">
       <use xlink:href="#DejaVuSans-32"/>
       <use xlink:href="#DejaVuSans-35" x="63.623047"/>
       <use xlink:href="#DejaVuSans-30" x="127.246094"/>
       <use xlink:href="#DejaVuSans-30" x="190.869141"/>
      </g>
     </g>
    </g>
   </g>
   <g id="matplotlib.axis_2">
    <g id="ytick_1">
     <g id="line2d_7">
      <defs>
       <path id="mdf08f108c9" d="M 0 0 
L -3.5 0 
" style="stroke: #000000; stroke-width: 0.8"/>
      </defs>
      <g>
       <use xlink:href="#mdf08f108c9" x="180" y="494.478502" style="stroke: #000000; stroke-width: 0.8"/>
      </g>
     </g>
     <g id="text_7">
      <!-- −3 -->
      <g transform="translate(158.257812 498.277721) scale(0.1 -0.1)">
       <defs>
        <path id="DejaVuSans-2212" d="M 678 2272 
L 4684 2272 
L 4684 1741 
L 678 1741 
L 678 2272 
z
" transform="scale(0.015625)"/>
        <path id="DejaVuSans-33" d="M 2597 2516 
Q 3050 2419 3304 2112 
Q 3559 1806 3559 1356 
Q 3559 666 3084 287 
Q 2609 -91 1734 -91 
Q 1441 -91 1130 -33 
Q 819 25 488 141 
L 488 750 
Q 750 597 1062 519 
Q 1375 441 1716 441 
Q 2309 441 2620 675 
Q 2931 909 2931 1356 
Q 2931 1769 2642 2001 
Q 2353 2234 1838 2234 
L 1294 2234 
L 1294 2753 
L 1863 2753 
Q 2328 2753 2575 2939 
Q 2822 3125 2822 3475 
Q 2822 3834 2567 4026 
Q 2313 4219 1838 4219 
Q 1578 4219 1281 4162 
Q 984 4106 628 3988 
L 628 4550 
Q 988 4650 1302 4700 
Q 1616 4750 1894 4750 
Q 2613 4750 3031 4423 
Q 3450 4097 3450 3541 
Q 3450 3153 3228 2886 
Q 3006 2619 2597 2516 
z
" transform="scale(0.015625)"/>
       </defs>
       <use xlink:href="#DejaVuSans-2212"/>
       <use xlink:href="#DejaVuSans-33" x="83.789062"/>
      </g>
     </g>
    </g>
    <g id="ytick_2">
     <g id="line2d_8">
      <g>
       <use xlink:href="#mdf08f108c9" x="180" y="431.394448" style="stroke: #000000; stroke-width: 0.8"/>
      </g>
     </g>
     <g id="text_8">
      <!-- −2 -->
      <g transform="translate(158.257812 435.193666) scale(0.1 -0.1)">
       <use xlink:href="#DejaVuSans-2212"/>
       <use xlink:href="#DejaVuSans-32" x="83.789062"/>
      </g>
     </g>
    </g>
    <g id="ytick_3">
     <g id="line2d_9">
      <g>
       <use xlink:href="#mdf08f108c9" x="180" y="368.310393" style="stroke: #000000; stroke-width: 0.8"/>
      </g>
     </g>
     <g id="text_9">
      <!-- −1 -->
      <g transform="translate(158.257812 372.109612) scale(0.1 -0.1)">
       <use xlink:href="#DejaVuSans-2212"/>
       <use xlink:href="#DejaVuSans-31" x="83.789062"/>
      </g>
     </g>
    </g>
    <g id="ytick_4">
     <g id="line2d_10">
      <g>
       <use xlink:href="#mdf08f108c9" x="180" y="305.226339" style="stroke: #000000; stroke-width: 0.8"/>
      </g>
     </g>
     <g id="text_10">
      <!-- 0 -->
      <g transform="translate(166.6375 309.025558) scale(0.1 -0.1)">
       <use xlink:href="#DejaVuSans-30"/>
      </g>
     </g>
    </g>
    <g id="ytick_5">
     <g id="line2d_11">
      <g>
       <use xlink:href="#mdf08f108c9" x="180" y="242.142285" style="stroke: #000000; stroke-width: 0.8"/>
      </g>
     </g>
     <g id="text_11">
      <!-- 1 -->
      <g transform="translate(166.6375 245.941504) scale(0.1 -0.1)">
       <use xlink:href="#DejaVuSans-31"/>
      </g>
     </g>
    </g>
    <g id="ytick_6">
     <g id="line2d_12">
      <g>
       <use xlink:href="#mdf08f108c9" x="180" y="179.05823" style="stroke: #000000; stroke-width: 0.8"/>
      </g>
     </g>
     <g id="text_12">
      <!-- 2 -->
      <g transform="translate(166.6375 182.857449) scale(0.1 -0.1)">
       <use xlink:href="#DejaVuSans-32"/>
      </g>
     </g>
    </g>
    <g id="ytick_7">
     <g id="line2d_13">
      <g>
       <use xlink:href="#mdf08f108c9" x="180" y="115.974176" style="stroke: #000000; stroke-width: 0.8"/>
      </g>
     </g>
     <g id="text_13">
      <!-- 3 -->
      <g transform="translate(166.6375 119.773395) scale(0.1 -0.1)">
       <use xlink:href="#DejaVuSans-33"/>
      </g>
     </g>
    </g>
   </g>
   <g id="line2d_14">
    <path d="M 230.727273 363.22289 
L 231.719979 362.049471 
L 232.712685 359.817124 
L 233.70539 358.686128 
L 235.690802 352.899775 
L 236.683508 349.576033 
L 237.676214 345.678265 
L 240.654332 331.47261 
L 241.647038 325.922897 
L 243.63245 312.848241 
L 244.625156 304.846183 
L 245.617862 294.616144 
L 246.610568 279.819986 
L 248.595979 237.546271 
L 249.588685 215.778677 
L 250.581391 197.599731 
L 251.574097 185.571682 
L 252.566803 176.946598 
L 253.559509 177.043337 
L 254.552215 183.41945 
L 255.544921 196.130709 
L 256.537627 205.344834 
L 257.530333 200.612492 
L 258.523039 189.421222 
L 259.515745 189.232353 
L 260.50845 201.04067 
L 261.501156 232.541998 
L 262.493862 255.547971 
L 263.486568 223.220061 
L 264.479274 209.827458 
L 265.47198 218.005744 
L 266.464686 259.452617 
L 267.457392 316.871461 
L 268.450098 244.365459 
L 269.442804 226.387361 
L 270.43551 238.95015 
L 271.428216 285.840416 
L 272.420922 267.220848 
L 273.413627 229.782887 
L 274.406333 216.701441 
L 275.399039 209.647947 
L 276.391745 188.185503 
L 277.384451 163.742949 
L 278.377157 143.528141 
L 279.369863 128.062025 
L 281.355275 106.968479 
L 282.347981 98.323162 
L 283.340687 92.253496 
L 284.333393 89.28 
L 285.326099 90.844116 
L 286.318804 98.683513 
L 287.31151 115.154177 
L 288.304216 141.843544 
L 289.296922 184.665465 
L 290.289628 197.979207 
L 291.282334 180.7188 
L 292.27504 176.620001 
L 293.267746 192.480275 
L 294.260452 228.972503 
L 295.253158 290.117265 
L 296.245864 285.46382 
L 297.23857 283.778761 
L 298.231276 322.309876 
L 299.223981 311.977672 
L 300.216687 280.971974 
L 301.209393 273.947355 
L 302.202099 284.966801 
L 303.194805 297.514551 
L 304.187511 295.957608 
L 305.180217 296.607669 
L 306.172923 309.202873 
L 307.165629 332.852948 
L 308.158335 332.0333 
L 309.151041 329.297592 
L 310.143747 325.965166 
L 311.136453 329.436944 
L 313.121864 325.994393 
L 314.11457 339.31691 
L 315.107276 341.111142 
L 316.099982 337.703533 
L 317.092688 338.567498 
L 318.085394 341.517376 
L 319.0781 349.153848 
L 320.070806 339.693842 
L 321.063512 344.204751 
L 322.056218 344.777782 
L 323.048924 345.047159 
L 324.04163 352.382983 
L 325.034336 347.264083 
L 326.027041 340.881962 
L 327.019747 348.982371 
L 328.012453 353.320274 
L 329.005159 348.899288 
L 329.997865 355.993652 
L 330.990571 353.317556 
L 331.983277 356.038552 
L 332.975983 360.183705 
L 333.968689 355.547039 
L 334.961395 364.938632 
L 335.954101 352.031768 
L 337.939513 364.04868 
L 338.932218 360.944549 
L 339.924924 358.786316 
L 340.91763 370.424396 
L 341.910336 366.375546 
L 342.903042 363.232555 
L 343.895748 366.884098 
L 344.888454 374.672881 
L 345.88116 365.464893 
L 346.873866 367.552795 
L 347.866572 366.675012 
L 348.859278 386.869021 
L 349.851984 363.704568 
L 350.84469 368.21468 
L 351.837395 363.070321 
L 352.830101 367.525612 
L 353.822807 370.446966 
L 354.815513 371.537814 
L 355.808219 392.778897 
L 356.800925 381.328818 
L 357.793631 378.566911 
L 358.786337 370.014019 
L 360.771749 390.25299 
L 361.764455 369.582207 
L 362.757161 373.207112 
L 363.749867 387.046801 
L 364.742572 394.864669 
L 365.735278 370.261525 
L 366.727984 377.551486 
L 367.72069 391.680189 
L 368.713396 409.708112 
L 369.706102 377.358391 
L 370.698808 387.477459 
L 371.691514 381.723828 
L 372.68422 385.363138 
L 373.676926 392.583022 
L 374.669632 403.022805 
L 375.662338 386.901788 
L 376.655044 390.993742 
L 377.64775 381.413389 
L 378.640455 390.058924 
L 379.633161 386.326088 
L 380.625867 388.450305 
L 381.618573 372.031639 
L 382.611279 400.852999 
L 383.603985 398.098325 
L 384.596691 396.999535 
L 385.589397 394.705944 
L 386.582103 410.536259 
L 387.574809 391.747316 
L 388.567515 388.935284 
L 389.560221 391.997037 
L 390.552927 408.917791 
L 391.545632 398.509314 
L 392.538338 404.318171 
L 393.531044 388.109874 
L 394.52375 412.704675 
L 395.516456 404.174222 
L 396.509162 391.558363 
L 397.501868 391.985096 
L 398.494574 404.955208 
L 399.48728 397.570939 
L 400.479986 401.271662 
L 401.472692 387.381205 
L 402.465398 392.513357 
L 403.458104 406.156179 
L 404.450809 394.942339 
L 405.443515 392.027315 
L 406.436221 410.583403 
L 407.428927 418.615135 
L 408.421633 385.535448 
L 409.414339 398.682924 
L 410.407045 391.901514 
L 411.399751 391.994324 
L 412.392457 394.86169 
L 413.385163 391.842408 
L 414.377869 401.746027 
L 415.370575 414.055039 
L 416.363281 406.484236 
L 418.348692 421.742694 
L 419.341398 409.419268 
L 420.334104 395.124806 
L 421.32681 405.199245 
L 422.319516 406.655243 
L 423.312222 395.913635 
L 424.304928 411.440576 
L 425.297634 399.091784 
L 426.29034 401.183062 
L 427.283046 410.967761 
L 428.275752 427.126651 
L 429.268458 415.048214 
L 430.261163 411.468699 
L 431.253869 398.951399 
L 432.246575 421.870226 
L 433.239281 411.422661 
L 434.231987 412.566598 
L 435.224693 402.551463 
L 436.217399 419.705314 
L 437.210105 408.461318 
L 438.202811 411.681343 
L 439.195517 403.373525 
L 440.188223 428.631831 
L 441.180929 416.535046 
L 442.173635 422.977948 
L 443.166341 425.432703 
L 444.159046 427.058336 
L 445.151752 429.716554 
L 446.144458 416.843001 
L 447.137164 432.637309 
L 448.12987 397.426285 
L 449.122576 413.793928 
L 450.115282 422.489579 
L 451.107988 411.572967 
L 452.100694 403.766879 
L 453.0934 440.897235 
L 454.086106 416.087988 
L 455.078812 418.042121 
L 456.071518 424.199669 
L 457.064223 442.569254 
L 458.056929 414.088295 
L 459.049635 414.79467 
L 460.042341 419.107487 
L 461.035047 429.067265 
L 462.027753 428.727102 
L 463.020459 412.774719 
L 464.013165 403.209491 
L 465.005871 417.194621 
L 465.998577 423.014923 
L 466.991283 412.817771 
L 467.983989 441.961056 
L 468.976695 435.998477 
L 469.9694 431.686071 
L 470.962106 414.030829 
L 471.954812 423.957804 
L 472.947518 423.648968 
L 473.940224 428.375313 
L 474.93293 410.405377 
L 475.925636 428.661972 
L 476.918342 433.373056 
L 477.911048 429.555603 
L 478.903754 440.437929 
L 479.89646 419.798009 
L 480.889166 422.670259 
L 481.881872 434.023208 
L 482.874577 429.490907 
L 483.867283 420.135586 
L 484.859989 425.293441 
L 485.852695 425.673006 
L 486.845401 426.878881 
L 487.838107 422.696764 
L 488.830813 434.31481 
L 489.823519 412.198162 
L 490.816225 438.820934 
L 491.808931 445.009598 
L 492.801637 426.340485 
L 493.794343 440.085377 
L 494.787049 429.928823 
L 495.779754 439.890957 
L 496.77246 445.586255 
L 497.765166 423.087791 
L 498.757872 434.957837 
L 499.750578 443.975117 
L 500.743284 429.233617 
L 501.73599 435.821169 
L 502.728696 420.458461 
L 503.721402 440.954504 
L 504.714108 421.510246 
L 505.706814 430.963868 
L 506.69952 418.440825 
L 507.692226 431.378096 
L 508.684932 437.926803 
L 509.677637 428.691706 
L 510.670343 426.989573 
L 511.663049 443.359946 
L 512.655755 428.623385 
L 513.648461 444.295061 
L 514.641167 447.96893 
L 515.633873 442.723285 
L 516.626579 443.205961 
L 517.619285 466.546791 
L 518.611991 459.114321 
L 519.604697 422.960906 
L 520.597403 430.026494 
L 521.590109 432.964127 
L 522.582814 447.871939 
L 523.57552 434.737496 
L 524.568226 454.376556 
L 525.560932 437.200282 
L 526.553638 445.014816 
L 527.546344 437.975627 
L 528.53905 424.550507 
L 529.531756 425.074573 
L 530.524462 452.058556 
L 531.517168 436.827574 
L 533.50258 422.703155 
L 534.495286 447.054213 
L 535.487991 433.980462 
L 536.480697 418.554504 
L 537.473403 446.551508 
L 538.466109 436.50979 
L 539.458815 444.785969 
L 540.451521 443.834145 
L 541.444227 442.148078 
L 542.436933 446.281872 
L 543.429639 440.470842 
L 544.422345 484.331719 
L 545.415051 447.403297 
L 546.407757 444.303255 
L 547.400463 455.370351 
L 549.385874 437.063002 
L 550.37858 437.371487 
L 551.371286 448.578865 
L 552.363992 461.898518 
L 553.356698 439.825613 
L 554.349404 441.327606 
L 555.34211 417.21899 
L 556.334816 458.528365 
L 557.327522 453.963432 
L 559.312934 426.616527 
L 560.30564 429.655124 
L 561.298345 433.286688 
L 562.291051 431.958695 
L 563.283757 448.446594 
L 564.276463 460.072475 
L 565.269169 443.154987 
L 566.261875 451.040492 
L 567.254581 443.742141 
L 568.247287 448.638716 
L 569.239993 429.973191 
L 570.232699 438.13311 
L 571.225405 456.79466 
L 572.218111 443.186378 
L 573.210817 440.180693 
L 574.203523 476.874914 
L 575.196228 439.87596 
L 576.188934 436.807695 
L 577.18164 452.056312 
L 578.174346 436.08223 
L 579.167052 435.760196 
L 580.159758 451.175985 
L 581.152464 447.774441 
L 582.14517 462.802864 
L 583.137876 447.289698 
L 584.130582 454.983384 
L 585.123288 464.335194 
L 586.115994 437.698973 
L 587.1087 439.539405 
L 588.101405 456.536368 
L 589.094111 456.865962 
L 590.086817 450.381754 
L 591.079523 451.352944 
L 592.072229 447.280907 
L 593.064935 455.641363 
L 594.057641 451.234356 
L 595.050347 444.035446 
L 596.043053 452.101265 
L 597.035759 452.948461 
L 598.028465 448.848408 
L 599.021171 442.315314 
L 600.013877 444.168469 
L 601.006582 451.188899 
L 601.999288 444.491182 
L 602.991994 443.609713 
L 603.9847 449.617737 
L 604.977406 452.256755 
L 605.970112 445.058707 
L 606.962818 449.261912 
L 607.955524 448.533044 
L 608.94823 457.343077 
L 609.940936 444.192344 
L 610.933642 435.194175 
L 611.926348 451.393757 
L 612.919054 442.553872 
L 613.911759 456.063693 
L 614.904465 461.063953 
L 615.897171 451.421477 
L 616.889877 454.290242 
L 617.882583 445.561451 
L 618.875289 463.270674 
L 619.867995 462.148983 
L 620.860701 447.570721 
L 621.853407 453.773045 
L 622.846113 453.428272 
L 623.838819 460.107611 
L 624.831525 464.693781 
L 625.824231 450.368821 
L 626.816936 449.069781 
L 627.809642 461.561023 
L 628.802348 452.794077 
L 629.795054 451.643742 
L 630.78776 465.122067 
L 631.780466 459.852868 
L 632.773172 469.861766 
L 633.765878 455.097787 
L 634.758584 457.05101 
L 635.75129 461.388349 
L 636.743996 456.064038 
L 638.729408 451.094918 
L 639.722114 462.078655 
L 640.714819 451.78748 
L 641.707525 457.901332 
L 642.700231 460.548082 
L 643.692937 457.933861 
L 644.685643 454.478876 
L 645.678349 460.394618 
L 646.671055 460.666737 
L 647.663761 455.26268 
L 648.656467 466.838819 
L 649.649173 462.604564 
L 650.641879 459.761997 
L 651.634585 456.344763 
L 652.627291 458.231943 
L 653.619996 456.137942 
L 654.612702 463.020954 
L 655.605408 450.806481 
L 656.598114 455.999981 
L 657.59082 457.450878 
L 658.583526 459.142622 
L 659.576232 455.684254 
L 660.568938 458.871584 
L 661.561644 460.538922 
L 662.55435 460.86757 
L 663.547056 456.276109 
L 664.539762 458.137422 
L 665.532468 460.629555 
L 666.525173 465.921835 
L 667.517879 463.015676 
L 668.510585 458.604355 
L 669.503291 459.049913 
L 670.495997 462.865851 
L 671.488703 458.958641 
L 672.481409 457.904847 
L 673.474115 461.702382 
L 674.466821 461.456383 
L 675.459527 460.667481 
L 676.452233 460.758822 
L 677.444939 457.424436 
L 678.437645 462.891267 
L 679.43035 458.058012 
L 680.423056 464.834003 
L 681.415762 455.303946 
L 682.408468 460.122824 
L 683.401174 460.359801 
L 684.39388 461.986681 
L 685.386586 459.832941 
L 686.379292 460.16889 
L 687.371998 465.275127 
L 688.364704 462.507824 
L 689.35741 464.161623 
L 690.350116 462.048362 
L 692.335527 465.419579 
L 693.328233 464.433696 
L 694.320939 464.94395 
L 695.313645 462.362419 
L 696.306351 461.786535 
L 697.299057 465.502794 
L 698.291763 461.582209 
L 699.284469 466.46212 
L 700.277175 463.083298 
L 701.269881 465.036332 
L 702.262587 463.633663 
L 703.255293 463.089427 
L 704.247999 467.425558 
L 705.240705 464.187698 
L 706.23341 465.313935 
L 707.226116 464.200989 
L 708.218822 464.538152 
L 709.211528 465.933823 
L 710.204234 465.778054 
L 711.19694 465.278352 
L 712.189646 463.5793 
L 713.182352 466.340789 
L 714.175058 466.411444 
L 715.167764 464.058984 
L 716.16047 464.949003 
L 717.153176 465.573259 
L 718.145882 465.817616 
L 719.138587 465.271253 
L 720.131293 465.056917 
L 721.123999 466.019619 
L 722.116705 465.672682 
L 723.109411 465.860225 
L 724.102117 466.68359 
L 725.094823 469.703422 
L 726.087529 467.961716 
L 727.080235 468.13279 
L 728.072941 465.304213 
L 729.065647 468.122194 
L 730.058353 466.514155 
L 731.051059 466.861929 
L 732.043764 467.454392 
L 733.03647 467.70479 
L 735.021882 467.367557 
L 736.014588 467.308773 
L 737.007294 468.024681 
L 738 466.871456 
L 738.992706 468.91873 
L 739.985412 467.670802 
L 740.978118 468.292412 
L 741.970824 468.620732 
L 742.96353 467.67975 
L 743.956236 467.500564 
L 744.948941 467.864059 
L 745.941647 469.652482 
L 746.934353 468.207578 
L 747.927059 469.954318 
L 748.919765 468.319891 
L 749.912471 469.124386 
L 751.897883 468.809202 
L 752.890589 469.507017 
L 753.883295 469.600441 
L 754.876001 469.333501 
L 755.868707 469.450986 
L 756.861413 468.469325 
L 757.854118 469.693956 
L 758.846824 469.195096 
L 759.83953 471.103593 
L 760.832236 470.028663 
L 761.824942 470.280468 
L 762.817648 472.004822 
L 764.80306 470.980949 
L 765.795766 471.166676 
L 766.788472 469.696363 
L 767.781178 473.397359 
L 768.773884 471.661532 
L 769.76659 471.750191 
L 770.759295 470.546072 
L 771.752001 470.502173 
L 772.744707 472.207928 
L 773.737413 470.990931 
L 774.730119 472.144047 
L 775.722825 471.809922 
L 777.708237 471.741796 
L 778.700943 471.154679 
L 779.693649 470.902997 
L 780.686355 471.694812 
L 781.679061 471.531909 
L 782.671767 472.583077 
L 783.664473 472.822394 
L 784.657178 472.201963 
L 785.649884 473.525146 
L 786.64259 471.730347 
L 787.635296 470.946342 
L 788.628002 471.431626 
L 789.620708 472.463732 
L 790.613414 472.97481 
L 791.60612 472.54708 
L 792.598826 474.357768 
L 793.591532 471.933878 
L 794.584238 473.128494 
L 795.576944 473.935454 
L 796.56965 474.036118 
L 797.562355 474.328001 
L 798.555061 473.624821 
L 799.547767 474.750727 
L 800.540473 472.366256 
L 801.533179 475.128311 
L 802.525885 473.327888 
L 803.518591 473.194074 
L 804.511297 474.021201 
L 805.504003 473.92767 
L 806.496709 473.952104 
L 807.489415 474.519901 
L 808.482121 474.910732 
L 809.474827 473.364837 
L 810.467532 473.702402 
L 811.460238 476.75456 
L 813.44565 473.970229 
L 814.438356 474.17128 
L 815.431062 475.506649 
L 816.423768 474.08161 
L 817.416474 475.433443 
L 818.40918 475.331136 
L 819.401886 473.620705 
L 820.394592 474.342441 
L 823.372709 475.860877 
L 824.365415 476.695775 
L 825.358121 475.588657 
L 826.350827 475.557989 
L 827.343533 476.052559 
L 828.336239 477.407271 
L 829.328945 475.160474 
L 830.321651 474.432631 
L 831.314357 476.235588 
L 832.307063 475.69056 
L 833.299769 476.005676 
L 835.285181 475.337078 
L 836.277886 475.540273 
L 837.270592 476.239511 
L 838.263298 476.36584 
L 839.256004 477.125098 
L 840.24871 476.460047 
L 841.241416 476.717995 
L 842.234122 475.884963 
L 843.226828 476.481236 
L 844.219534 476.580198 
L 846.204946 474.783411 
L 847.197652 476.163869 
L 848.190358 479.068639 
L 849.183064 475.942074 
L 851.168475 477.110011 
L 852.161181 476.451488 
L 853.153887 476.939501 
L 854.146593 477.880016 
L 855.139299 475.979092 
L 856.132005 476.085742 
L 857.124711 477.845708 
L 858.117417 478.013293 
L 859.110123 476.195547 
L 860.102829 478.729491 
L 861.095535 479.071751 
L 862.088241 478.66991 
L 863.080946 477.616323 
L 864.073652 477.641787 
L 866.059064 478.365072 
L 867.05177 476.787739 
L 869.037182 479.158722 
L 870.029888 479.741196 
L 871.022594 476.598039 
L 872.0153 478.806402 
L 873.008006 478.839063 
L 874.000712 478.402269 
L 874.993418 479.736756 
L 875.986123 480.167976 
L 876.978829 479.134432 
L 877.971535 479.687663 
L 878.964241 479.88217 
L 879.956947 478.681678 
L 880.949653 480.228702 
L 882.935065 479.182175 
L 883.927771 478.088406 
L 884.920477 480.104613 
L 885.913183 479.648608 
L 886.905889 478.830238 
L 887.898595 478.936761 
L 888.8913 480.166054 
L 889.884006 479.968966 
L 890.876712 480.562427 
L 891.869418 479.843808 
L 892.862124 480.522666 
L 893.85483 479.92132 
L 894.847536 480.438233 
L 895.840242 479.623356 
L 896.832948 479.292043 
L 897.825654 480.012412 
L 898.81836 479.472701 
L 899.811066 480.826419 
L 900.803772 480.675172 
L 901.796477 481.511881 
L 902.789183 479.82897 
L 903.781889 479.73202 
L 904.774595 482.790502 
L 905.767301 482.118108 
L 906.760007 480.329389 
L 907.752713 479.099393 
L 908.745419 482.006282 
L 909.738125 480.090808 
L 910.730831 481.033314 
L 911.723537 479.809704 
L 912.716243 481.263155 
L 913.708949 481.531067 
L 914.701655 482.147136 
L 915.69436 481.231006 
L 916.687066 480.910667 
L 917.679772 482.668028 
L 918.672478 482.224558 
L 919.665184 480.998824 
L 920.65789 482.561681 
L 921.650596 480.230732 
L 922.643302 480.865685 
L 923.636008 482.054288 
L 924.628714 481.444724 
L 925.62142 481.648563 
L 926.614126 480.430447 
L 927.606832 482.795735 
L 928.599537 480.502921 
L 929.592243 481.62856 
L 931.577655 481.777295 
L 932.570361 481.261272 
L 933.563067 481.710076 
L 934.555773 481.395508 
L 935.548479 482.624821 
L 936.541185 481.342692 
L 937.533891 481.834071 
L 938.526597 482.161774 
L 939.519303 482.936643 
L 940.512009 483.139436 
L 941.504714 482.330749 
L 942.49742 482.61613 
L 943.490126 484.911699 
L 944.482832 480.752516 
L 945.475538 481.017505 
L 947.46095 483.785266 
L 948.453656 483.367556 
L 949.446362 483.400628 
L 950.439068 483.731323 
L 951.431774 482.575084 
L 952.42448 483.274075 
L 953.417186 484.603819 
L 954.409891 484.996902 
L 955.402597 483.079028 
L 956.395303 484.007228 
L 957.388009 483.036999 
L 958.380715 483.898437 
L 959.373421 482.653086 
L 960.366127 481.945607 
L 961.358833 485.257917 
L 962.351539 483.316523 
L 963.344245 485.249244 
L 964.336951 484.289883 
L 965.329657 482.701098 
L 966.322363 486.021553 
L 967.315068 484.597514 
L 968.307774 482.80061 
L 969.30048 483.622807 
L 970.293186 485.222583 
L 971.285892 482.519213 
L 972.278598 484.796948 
L 973.271304 484.344548 
L 974.26401 483.097737 
L 975.256716 484.850775 
L 976.249422 484.149581 
L 977.242128 485.177233 
L 978.234834 485.404187 
L 979.22754 483.447456 
L 980.220246 485.945686 
L 981.212951 485.837024 
L 982.205657 485.082654 
L 983.198363 484.658733 
L 984.191069 486.359715 
L 985.183775 484.590149 
L 986.176481 486.508408 
L 987.169187 484.589062 
L 988.161893 484.691073 
L 990.147305 484.172878 
L 991.140011 485.237711 
L 992.132717 484.956098 
L 993.125423 482.344178 
L 994.118128 484.502454 
L 995.110834 485.054198 
L 996.10354 484.237303 
L 997.096246 485.839347 
L 998.088952 486.441667 
L 999.081658 484.301859 
L 1000.074364 485.292008 
L 1001.06707 485.181253 
L 1002.059776 485.666756 
L 1003.052482 485.985271 
L 1004.045188 484.237216 
L 1005.037894 485.911139 
L 1006.0306 484.78006 
L 1007.023305 486.740049 
L 1009.008717 484.86893 
L 1010.001423 484.106676 
L 1010.994129 484.189601 
L 1011.986835 486.018454 
L 1012.979541 485.554675 
L 1013.972247 486.09262 
L 1014.964953 486.496335 
L 1015.957659 485.063135 
L 1016.950365 486.980303 
L 1017.943071 487.270637 
L 1018.935777 486.529805 
L 1019.928482 487.792873 
L 1020.921188 485.85143 
L 1021.913894 486.570541 
L 1022.9066 485.21436 
L 1023.899306 486.256017 
L 1025.884718 485.979476 
L 1026.877424 485.70512 
L 1027.87013 485.939534 
L 1028.862836 486.90705 
L 1029.855542 486.744579 
L 1030.848248 487.433654 
L 1031.840954 487.458597 
L 1032.833659 487.238012 
L 1033.826365 486.382295 
L 1034.819071 485.134901 
L 1035.811777 484.510018 
L 1036.804483 485.532582 
L 1037.797189 487.878044 
L 1038.789895 487.995098 
L 1039.782601 487.831867 
L 1040.775307 486.331002 
L 1041.768013 488.135544 
L 1042.760719 485.757301 
L 1043.753425 487.064984 
L 1044.746131 487.661902 
L 1045.738837 486.857754 
L 1046.731542 486.66508 
L 1047.724248 487.112365 
L 1048.716954 485.963119 
L 1049.70966 485.27723 
L 1050.702366 487.273906 
L 1051.695072 487.599247 
L 1052.687778 485.966064 
L 1053.680484 487.156371 
L 1054.67319 485.335034 
L 1055.665896 487.035671 
L 1056.658602 486.624835 
L 1057.651308 488.36153 
L 1058.644014 488.005871 
L 1059.636719 488.308711 
L 1060.629425 486.640374 
L 1061.622131 487.42132 
L 1062.614837 486.420128 
L 1063.607543 486.715949 
L 1064.600249 486.894864 
L 1066.585661 486.149571 
L 1067.578367 488.620659 
L 1069.563779 486.297541 
L 1070.556485 486.925087 
L 1071.549191 486.820454 
L 1072.541896 488.320768 
L 1073.534602 487.559789 
L 1074.527308 487.993748 
L 1075.520014 487.357568 
L 1077.505426 488.182545 
L 1078.498132 489.089083 
L 1079.490838 487.449861 
L 1080.483544 488.751901 
L 1081.47625 486.901698 
L 1082.468956 488.404526 
L 1083.461662 485.884528 
L 1084.454368 488.577304 
L 1085.447073 488.729121 
L 1086.439779 488.23443 
L 1087.432485 489.994901 
L 1088.425191 489.375371 
L 1089.417897 487.569588 
L 1090.410603 488.581401 
L 1091.403309 488.296841 
L 1092.396015 489.083915 
L 1093.388721 490.039108 
L 1094.381427 488.693218 
L 1095.374133 487.798293 
L 1096.366839 487.794611 
L 1097.359545 488.14549 
L 1098.35225 488.874902 
L 1100.337662 488.068116 
L 1101.330368 489.230278 
L 1102.323074 487.685064 
L 1103.31578 488.575515 
L 1104.308486 487.951814 
L 1105.301192 488.096046 
L 1106.293898 488.909589 
L 1108.27931 486.178076 
L 1109.272016 488.917658 
L 1110.264722 488.471048 
L 1111.257428 488.869091 
L 1112.250133 488.250163 
L 1113.242839 487.765902 
L 1114.235545 487.833531 
L 1115.228251 488.38581 
L 1116.220957 488.453547 
L 1117.213663 488.832152 
L 1118.206369 489.38182 
L 1119.199075 489.519409 
L 1120.191781 488.862487 
L 1121.184487 487.115471 
L 1122.177193 488.349125 
L 1123.169899 488.471798 
L 1124.162605 489.553535 
L 1125.15531 488.233041 
L 1126.148016 491.058514 
L 1127.140722 489.35726 
L 1128.133428 490.022591 
L 1129.126134 489.072944 
L 1130.11884 487.430311 
L 1131.111546 488.768622 
L 1132.104252 490.658709 
L 1133.096958 490.564118 
L 1134.089664 487.098213 
L 1135.08237 491.674551 
L 1136.075076 491.78475 
L 1137.067782 489.502012 
L 1138.060487 488.321588 
L 1139.053193 488.830187 
L 1140.045899 489.68578 
L 1141.038605 488.280232 
L 1142.031311 489.102682 
L 1143.024017 489.111388 
L 1144.016723 488.375347 
L 1145.009429 489.749196 
L 1146.002135 488.491969 
L 1146.994841 490.008108 
L 1147.987547 488.398786 
L 1148.980253 489.662283 
L 1149.972959 490.562964 
L 1150.965664 490.032798 
L 1151.95837 488.949661 
L 1152.951076 489.579963 
L 1153.943782 489.488584 
L 1154.936488 489.140224 
L 1155.929194 490.345773 
L 1156.9219 489.778529 
L 1157.914606 488.128646 
L 1158.907312 489.900811 
L 1159.900018 490.495981 
L 1160.892724 489.995083 
L 1161.88543 490.903052 
L 1162.878136 490.109836 
L 1163.870841 488.824073 
L 1164.863547 490.772895 
L 1165.856253 488.518323 
L 1166.848959 490.2211 
L 1167.841665 488.165383 
L 1168.834371 491.667919 
L 1169.827077 491.131535 
L 1170.819783 489.840281 
L 1171.812489 488.909285 
L 1172.805195 488.851312 
L 1173.797901 489.587026 
L 1174.790607 490.094607 
L 1175.783313 489.990421 
L 1176.776019 488.214158 
L 1177.768724 489.995351 
L 1178.76143 489.843812 
L 1179.754136 490.346824 
L 1180.746842 487.974009 
L 1181.739548 491.019414 
L 1182.732254 490.278319 
L 1183.72496 490.304595 
L 1184.717666 489.593539 
L 1185.710372 489.849647 
L 1186.703078 489.354427 
L 1187.695784 490.719493 
L 1188.68849 490.818319 
L 1189.681196 489.869762 
L 1190.673901 489.741366 
L 1191.666607 490.772135 
L 1192.659313 490.637104 
L 1193.652019 489.679671 
L 1194.644725 488.539863 
L 1195.637431 488.501295 
L 1196.630137 490.706495 
L 1197.622843 490.594461 
L 1198.615549 489.051501 
L 1199.608255 489.848454 
L 1200.600961 489.225635 
L 1201.593667 490.046894 
L 1202.586373 489.511129 
L 1203.579078 490.247259 
L 1204.571784 489.928365 
L 1205.56449 490.316562 
L 1206.557196 488.834179 
L 1207.549902 489.995416 
L 1208.542608 490.412475 
L 1209.535314 490.620863 
L 1210.52802 489.049974 
L 1211.520726 490.288474 
L 1212.513432 490.639251 
L 1213.506138 489.459291 
L 1214.498844 487.418145 
L 1215.49155 488.685984 
L 1216.484255 490.490431 
L 1217.476961 491.215601 
L 1218.469667 489.564459 
L 1219.462373 490.43155 
L 1220.455079 489.903405 
L 1221.447785 489.857548 
L 1222.440491 488.955519 
L 1223.433197 490.383605 
L 1224.425903 489.051661 
L 1225.418609 488.599047 
L 1226.411315 488.671983 
L 1227.404021 489.191272 
L 1228.396727 490.047131 
L 1229.389432 488.957691 
L 1230.382138 489.243466 
L 1231.374844 490.423095 
L 1232.36755 490.316262 
L 1233.360256 489.260635 
L 1234.352962 489.769539 
L 1235.345668 490.101708 
L 1236.338374 489.021505 
L 1237.33108 492.48 
L 1238.323786 490.299586 
L 1239.316492 489.415323 
L 1240.309198 489.490162 
L 1241.301904 490.928249 
L 1242.29461 489.041693 
L 1244.280021 489.342668 
L 1245.272727 491.03671 
L 1245.272727 491.03671 
" clip-path="url(#p4960fcece0)" style="fill: none; stroke: #1f77b4; stroke-width: 1.5; stroke-linecap: square"/>
   </g>
   <g id="patch_3">
    <path d="M 180 512.64 
L 180 69.12 
" style="fill: none; stroke: #000000; stroke-width: 0.8; stroke-linejoin: miter; stroke-linecap: square"/>
   </g>
   <g id="patch_4">
    <path d="M 1296 512.64 
L 1296 69.12 
" style="fill: none; stroke: #000000; stroke-width: 0.8; stroke-linejoin: miter; stroke-linecap: square"/>
   </g>
   <g id="patch_5">
    <path d="M 180 512.64 
L 1296 512.64 
" style="fill: none; stroke: #000000; stroke-width: 0.8; stroke-linejoin: miter; stroke-linecap: square"/>
   </g>
   <g id="patch_6">
    <path d="M 180 69.12 
L 1296 69.12 
" style="fill: none; stroke: #000000; stroke-width: 0.8; stroke-linejoin: miter; stroke-linecap: square"/>
   </g>
   <g id="text_14">
    <!-- source19-receiver21 -->
    <g transform="translate(532.175 60.80125) scale(0.4 -0.4)">
     <defs>
      <path id="DejaVuSans-73" d="M 2834 3397 
L 2834 2853 
Q 2591 2978 2328 3040 
Q 2066 3103 1784 3103 
Q 1356 3103 1142 2972 
Q 928 2841 928 2578 
Q 928 2378 1081 2264 
Q 1234 2150 1697 2047 
L 1894 2003 
Q 2506 1872 2764 1633 
Q 3022 1394 3022 966 
Q 3022 478 2636 193 
Q 2250 -91 1575 -91 
Q 1294 -91 989 -36 
Q 684 19 347 128 
L 347 722 
Q 666 556 975 473 
Q 1284 391 1588 391 
Q 1994 391 2212 530 
Q 2431 669 2431 922 
Q 2431 1156 2273 1281 
Q 2116 1406 1581 1522 
L 1381 1569 
Q 847 1681 609 1914 
Q 372 2147 372 2553 
Q 372 3047 722 3315 
Q 1072 3584 1716 3584 
Q 2034 3584 2315 3537 
Q 2597 3491 2834 3397 
z
" transform="scale(0.015625)"/>
      <path id="DejaVuSans-6f" d="M 1959 3097 
Q 1497 3097 1228 2736 
Q 959 2375 959 1747 
Q 959 1119 1226 758 
Q 1494 397 1959 397 
Q 2419 397 2687 759 
Q 2956 1122 2956 1747 
Q 2956 2369 2687 2733 
Q 2419 3097 1959 3097 
z
M 1959 3584 
Q 2709 3584 3137 3096 
Q 3566 2609 3566 1747 
Q 3566 888 3137 398 
Q 2709 -91 1959 -91 
Q 1206 -91 779 398 
Q 353 888 353 1747 
Q 353 2609 779 3096 
Q 1206 3584 1959 3584 
z
" transform="scale(0.015625)"/>
      <path id="DejaVuSans-75" d="M 544 1381 
L 544 3500 
L 1119 3500 
L 1119 1403 
Q 1119 906 1312 657 
Q 1506 409 1894 409 
Q 2359 409 2629 706 
Q 2900 1003 2900 1516 
L 2900 3500 
L 3475 3500 
L 3475 0 
L 2900 0 
L 2900 538 
Q 2691 219 2414 64 
Q 2138 -91 1772 -91 
Q 1169 -91 856 284 
Q 544 659 544 1381 
z
M 1991 3584 
L 1991 3584 
z
" transform="scale(0.015625)"/>
      <path id="DejaVuSans-72" d="M 2631 2963 
Q 2534 3019 2420 3045 
Q 2306 3072 2169 3072 
Q 1681 3072 1420 2755 
Q 1159 2438 1159 1844 
L 1159 0 
L 581 0 
L 581 3500 
L 1159 3500 
L 1159 2956 
Q 1341 3275 1631 3429 
Q 1922 3584 2338 3584 
Q 2397 3584 2469 3576 
Q 2541 3569 2628 3553 
L 2631 2963 
z
" transform="scale(0.015625)"/>
      <path id="DejaVuSans-63" d="M 3122 3366 
L 3122 2828 
Q 2878 2963 2633 3030 
Q 2388 3097 2138 3097 
Q 1578 3097 1268 2742 
Q 959 2388 959 1747 
Q 959 1106 1268 751 
Q 1578 397 2138 397 
Q 2388 397 2633 464 
Q 2878 531 3122 666 
L 3122 134 
Q 2881 22 2623 -34 
Q 2366 -91 2075 -91 
Q 1284 -91 818 406 
Q 353 903 353 1747 
Q 353 2603 823 3093 
Q 1294 3584 2113 3584 
Q 2378 3584 2631 3529 
Q 2884 3475 3122 3366 
z
" transform="scale(0.015625)"/>
      <path id="DejaVuSans-65" d="M 3597 1894 
L 3597 1613 
L 953 1613 
Q 991 1019 1311 708 
Q 1631 397 2203 397 
Q 2534 397 2845 478 
Q 3156 559 3463 722 
L 3463 178 
Q 3153 47 2828 -22 
Q 2503 -91 2169 -91 
Q 1331 -91 842 396 
Q 353 884 353 1716 
Q 353 2575 817 3079 
Q 1281 3584 2069 3584 
Q 2775 3584 3186 3129 
Q 3597 2675 3597 1894 
z
M 3022 2063 
Q 3016 2534 2758 2815 
Q 2500 3097 2075 3097 
Q 1594 3097 1305 2825 
Q 1016 2553 972 2059 
L 3022 2063 
z
" transform="scale(0.015625)"/>
      <path id="DejaVuSans-39" d="M 703 97 
L 703 672 
Q 941 559 1184 500 
Q 1428 441 1663 441 
Q 2288 441 2617 861 
Q 2947 1281 2994 2138 
Q 2813 1869 2534 1725 
Q 2256 1581 1919 1581 
Q 1219 1581 811 2004 
Q 403 2428 403 3163 
Q 403 3881 828 4315 
Q 1253 4750 1959 4750 
Q 2769 4750 3195 4129 
Q 3622 3509 3622 2328 
Q 3622 1225 3098 567 
Q 2575 -91 1691 -91 
Q 1453 -91 1209 -44 
Q 966 3 703 97 
z
M 1959 2075 
Q 2384 2075 2632 2365 
Q 2881 2656 2881 3163 
Q 2881 3666 2632 3958 
Q 2384 4250 1959 4250 
Q 1534 4250 1286 3958 
Q 1038 3666 1038 3163 
Q 1038 2656 1286 2365 
Q 1534 2075 1959 2075 
z
" transform="scale(0.015625)"/>
      <path id="DejaVuSans-2d" d="M 313 2009 
L 1997 2009 
L 1997 1497 
L 313 1497 
L 313 2009 
z
" transform="scale(0.015625)"/>
      <path id="DejaVuSans-69" d="M 603 3500 
L 1178 3500 
L 1178 0 
L 603 0 
L 603 3500 
z
M 603 4863 
L 1178 4863 
L 1178 4134 
L 603 4134 
L 603 4863 
z
" transform="scale(0.015625)"/>
      <path id="DejaVuSans-76" d="M 191 3500 
L 800 3500 
L 1894 563 
L 2988 3500 
L 3597 3500 
L 2284 0 
L 1503 0 
L 191 3500 
z
" transform="scale(0.015625)"/>
     </defs>
     <use xlink:href="#DejaVuSans-73"/>
     <use xlink:href="#DejaVuSans-6f" x="52.099609"/>
     <use xlink:href="#DejaVuSans-75" x="113.28125"/>
     <use xlink:href="#DejaVuSans-72" x="176.660156"/>
     <use xlink:href="#DejaVuSans-63" x="215.523438"/>
     <use xlink:href="#DejaVuSans-65" x="270.503906"/>
     <use xlink:href="#DejaVuSans-31" x="332.027344"/>
     <use xlink:href="#DejaVuSans-39" x="395.650391"/>
     <use xlink:href="#DejaVuSans-2d" x="459.273438"/>
     <use xlink:href="#DejaVuSans-72" x="495.357422"/>
     <use xlink:href="#DejaVuSans-65" x="534.220703"/>
     <use xlink:href="#DejaVuSans-63" x="595.744141"/>
     <use xlink:href="#DejaVuSans-65" x="650.724609"/>
     <use xlink:href="#DejaVuSans-69" x="712.248047"/>
     <use xlink:href="#DejaVuSans-76" x="740.03125"/>
     <use xlink:href="#DejaVuSans-65" x="799.210938"/>
     <use xlink:href="#DejaVuSans-72" x="860.734375"/>
     <use xlink:href="#DejaVuSans-32" x="901.847656"/>
     <use xlink:href="#DejaVuSans-31" x="965.470703"/>
    </g>
   </g>
  </g>
 </g>
 <defs>
  <clipPath id="p4960fcece0">
   <rect x="180" y="69.12" width="1116" height="443.52"/>
  </clipPath>
 </defs>
</svg>
