<?xml version="1.0" encoding="utf-8" standalone="no"?>
<!DOCTYPE svg PUBLIC "-//W3C//DTD SVG 1.1//EN"
  "http://www.w3.org/Graphics/SVG/1.1/DTD/svg11.dtd">
<svg xmlns:xlink="http://www.w3.org/1999/xlink" width="1440pt" height="576pt" viewBox="0 0 1440 576" xmlns="http://www.w3.org/2000/svg" version="1.1">
 <metadata>
  <rdf:RDF xmlns:dc="http://purl.org/dc/elements/1.1/" xmlns:cc="http://creativecommons.org/ns#" xmlns:rdf="http://www.w3.org/1999/02/22-rdf-syntax-ns#">
   <cc:Work>
    <dc:type rdf:resource="http://purl.org/dc/dcmitype/StillImage"/>
    <dc:date>2024-05-22T04:50:15.211368</dc:date>
    <dc:format>image/svg+xml</dc:format>
    <dc:creator>
     <cc:Agent>
      <dc:title>Matplotlib v3.8.3, https://matplotlib.org/</dc:title>
     </cc:Agent>
    </dc:creator>
   </cc:Work>
  </rdf:RDF>
 </metadata>
 <defs>
  <style type="text/css">*{stroke-linejoin: round; stroke-linecap: butt}</style>
 </defs>
 <g id="figure_1">
  <g id="patch_1">
   <path d="M 0 576 
L 1440 576 
L 1440 0 
L 0 0 
z
" style="fill: #ffffff"/>
  </g>
  <g id="axes_1">
   <g id="patch_2">
    <path d="M 180 512.64 
L 1296 512.64 
L 1296 69.12 
L 180 69.12 
z
" style="fill: #ffffff"/>
   </g>
   <g id="matplotlib.axis_1">
    <g id="xtick_1">
     <g id="line2d_1">
      <defs>
       <path id="m586904b68e" d="M 0 0 
L 0 3.5 
" style="stroke: #000000; stroke-width: 0.8"/>
      </defs>
      <g>
       <use xlink:href="#m586904b68e" x="229.734567" y="512.64" style="stroke: #000000; stroke-width: 0.8"/>
      </g>
     </g>
     <g id="text_1">
      <!-- 0 -->
      <g transform="translate(226.553317 527.238438) scale(0.1 -0.1)">
       <defs>
        <path id="DejaVuSans-30" d="M 2034 4250 
Q 1547 4250 1301 3770 
Q 1056 3291 1056 2328 
Q 1056 1369 1301 889 
Q 1547 409 2034 409 
Q 2525 409 2770 889 
Q 3016 1369 3016 2328 
Q 3016 3291 2770 3770 
Q 2525 4250 2034 4250 
z
M 2034 4750 
Q 2819 4750 3233 4129 
Q 3647 3509 3647 2328 
Q 3647 1150 3233 529 
Q 2819 -91 2034 -91 
Q 1250 -91 836 529 
Q 422 1150 422 2328 
Q 422 3509 836 4129 
Q 1250 4750 2034 4750 
z
" transform="scale(0.015625)"/>
       </defs>
       <use xlink:href="#DejaVuSans-30"/>
      </g>
     </g>
    </g>
    <g id="xtick_2">
     <g id="line2d_2">
      <g>
       <use xlink:href="#m586904b68e" x="433.04074" y="512.64" style="stroke: #000000; stroke-width: 0.8"/>
      </g>
     </g>
     <g id="text_2">
      <!-- 500 -->
      <g transform="translate(423.49699 527.238438) scale(0.1 -0.1)">
       <defs>
        <path id="DejaVuSans-35" d="M 691 4666 
L 3169 4666 
L 3169 4134 
L 1269 4134 
L 1269 2991 
Q 1406 3038 1543 3061 
Q 1681 3084 1819 3084 
Q 2600 3084 3056 2656 
Q 3513 2228 3513 1497 
Q 3513 744 3044 326 
Q 2575 -91 1722 -91 
Q 1428 -91 1123 -41 
Q 819 9 494 109 
L 494 744 
Q 775 591 1075 516 
Q 1375 441 1709 441 
Q 2250 441 2565 725 
Q 2881 1009 2881 1497 
Q 2881 1984 2565 2268 
Q 2250 2553 1709 2553 
Q 1456 2553 1204 2497 
Q 953 2441 691 2322 
L 691 4666 
z
" transform="scale(0.015625)"/>
       </defs>
       <use xlink:href="#DejaVuSans-35"/>
       <use xlink:href="#DejaVuSans-30" x="63.623047"/>
       <use xlink:href="#DejaVuSans-30" x="127.246094"/>
      </g>
     </g>
    </g>
    <g id="xtick_3">
     <g id="line2d_3">
      <g>
       <use xlink:href="#m586904b68e" x="636.346913" y="512.64" style="stroke: #000000; stroke-width: 0.8"/>
      </g>
     </g>
     <g id="text_3">
      <!-- 1000 -->
      <g transform="translate(623.621913 527.238438) scale(0.1 -0.1)">
       <defs>
        <path id="DejaVuSans-31" d="M 794 531 
L 1825 531 
L 1825 4091 
L 703 3866 
L 703 4441 
L 1819 4666 
L 2450 4666 
L 2450 531 
L 3481 531 
L 3481 0 
L 794 0 
L 794 531 
z
" transform="scale(0.015625)"/>
       </defs>
       <use xlink:href="#DejaVuSans-31"/>
       <use xlink:href="#DejaVuSans-30" x="63.623047"/>
       <use xlink:href="#DejaVuSans-30" x="127.246094"/>
       <use xlink:href="#DejaVuSans-30" x="190.869141"/>
      </g>
     </g>
    </g>
    <g id="xtick_4">
     <g id="line2d_4">
      <g>
       <use xlink:href="#m586904b68e" x="839.653087" y="512.64" style="stroke: #000000; stroke-width: 0.8"/>
      </g>
     </g>
     <g id="text_4">
      <!-- 1500 -->
      <g transform="translate(826.928087 527.238438) scale(0.1 -0.1)">
       <use xlink:href="#DejaVuSans-31"/>
       <use xlink:href="#DejaVuSans-35" x="63.623047"/>
       <use xlink:href="#DejaVuSans-30" x="127.246094"/>
       <use xlink:href="#DejaVuSans-30" x="190.869141"/>
      </g>
     </g>
    </g>
    <g id="xtick_5">
     <g id="line2d_5">
      <g>
       <use xlink:href="#m586904b68e" x="1042.95926" y="512.64" style="stroke: #000000; stroke-width: 0.8"/>
      </g>
     </g>
     <g id="text_5">
      <!-- 2000 -->
      <g transform="translate(1030.23426 527.238438) scale(0.1 -0.1)">
       <defs>
        <path id="DejaVuSans-32" d="M 1228 531 
L 3431 531 
L 3431 0 
L 469 0 
L 469 531 
Q 828 903 1448 1529 
Q 2069 2156 2228 2338 
Q 2531 2678 2651 2914 
Q 2772 3150 2772 3378 
Q 2772 3750 2511 3984 
Q 2250 4219 1831 4219 
Q 1534 4219 1204 4116 
Q 875 4013 500 3803 
L 500 4441 
Q 881 4594 1212 4672 
Q 1544 4750 1819 4750 
Q 2544 4750 2975 4387 
Q 3406 4025 3406 3419 
Q 3406 3131 3298 2873 
Q 3191 2616 2906 2266 
Q 2828 2175 2409 1742 
Q 1991 1309 1228 531 
z
" transform="scale(0.015625)"/>
       </defs>
       <use xlink:href="#DejaVuSans-32"/>
       <use xlink:href="#DejaVuSans-30" x="63.623047"/>
       <use xlink:href="#DejaVuSans-30" x="127.246094"/>
       <use xlink:href="#DejaVuSans-30" x="190.869141"/>
      </g>
     </g>
    </g>
    <g id="xtick_6">
     <g id="line2d_6">
      <g>
       <use xlink:href="#m586904b68e" x="1246.265433" y="512.64" style="stroke: #000000; stroke-width: 0.8"/>
      </g>
     </g>
     <g id="text_6">
      <!-- 2500 -->
      <g transform="translate(1233.540433 527.238438) scale(0.1 -0.1)">
       <use xlink:href="#DejaVuSans-32"/>
       <use xlink:href="#DejaVuSans-35" x="63.623047"/>
       <use xlink:href="#DejaVuSans-30" x="127.246094"/>
       <use xlink:href="#DejaVuSans-30" x="190.869141"/>
      </g>
     </g>
    </g>
   </g>
   <g id="matplotlib.axis_2">
    <g id="ytick_1">
     <g id="line2d_7">
      <defs>
       <path id="m893f379413" d="M 0 0 
L -3.5 0 
" style="stroke: #000000; stroke-width: 0.8"/>
      </defs>
      <g>
       <use xlink:href="#m893f379413" x="180" y="508.006507" style="stroke: #000000; stroke-width: 0.8"/>
      </g>
     </g>
     <g id="text_7">
      <!-- −3 -->
      <g transform="translate(158.257812 511.805726) scale(0.1 -0.1)">
       <defs>
        <path id="DejaVuSans-2212" d="M 678 2272 
L 4684 2272 
L 4684 1741 
L 678 1741 
L 678 2272 
z
" transform="scale(0.015625)"/>
        <path id="DejaVuSans-33" d="M 2597 2516 
Q 3050 2419 3304 2112 
Q 3559 1806 3559 1356 
Q 3559 666 3084 287 
Q 2609 -91 1734 -91 
Q 1441 -91 1130 -33 
Q 819 25 488 141 
L 488 750 
Q 750 597 1062 519 
Q 1375 441 1716 441 
Q 2309 441 2620 675 
Q 2931 909 2931 1356 
Q 2931 1769 2642 2001 
Q 2353 2234 1838 2234 
L 1294 2234 
L 1294 2753 
L 1863 2753 
Q 2328 2753 2575 2939 
Q 2822 3125 2822 3475 
Q 2822 3834 2567 4026 
Q 2313 4219 1838 4219 
Q 1578 4219 1281 4162 
Q 984 4106 628 3988 
L 628 4550 
Q 988 4650 1302 4700 
Q 1616 4750 1894 4750 
Q 2613 4750 3031 4423 
Q 3450 4097 3450 3541 
Q 3450 3153 3228 2886 
Q 3006 2619 2597 2516 
z
" transform="scale(0.015625)"/>
       </defs>
       <use xlink:href="#DejaVuSans-2212"/>
       <use xlink:href="#DejaVuSans-33" x="83.789062"/>
      </g>
     </g>
    </g>
    <g id="ytick_2">
     <g id="line2d_8">
      <g>
       <use xlink:href="#m893f379413" x="180" y="449.088995" style="stroke: #000000; stroke-width: 0.8"/>
      </g>
     </g>
     <g id="text_8">
      <!-- −2 -->
      <g transform="translate(158.257812 452.888213) scale(0.1 -0.1)">
       <use xlink:href="#DejaVuSans-2212"/>
       <use xlink:href="#DejaVuSans-32" x="83.789062"/>
      </g>
     </g>
    </g>
    <g id="ytick_3">
     <g id="line2d_9">
      <g>
       <use xlink:href="#m893f379413" x="180" y="390.171482" style="stroke: #000000; stroke-width: 0.8"/>
      </g>
     </g>
     <g id="text_9">
      <!-- −1 -->
      <g transform="translate(158.257812 393.970701) scale(0.1 -0.1)">
       <use xlink:href="#DejaVuSans-2212"/>
       <use xlink:href="#DejaVuSans-31" x="83.789062"/>
      </g>
     </g>
    </g>
    <g id="ytick_4">
     <g id="line2d_10">
      <g>
       <use xlink:href="#m893f379413" x="180" y="331.25397" style="stroke: #000000; stroke-width: 0.8"/>
      </g>
     </g>
     <g id="text_10">
      <!-- 0 -->
      <g transform="translate(166.6375 335.053189) scale(0.1 -0.1)">
       <use xlink:href="#DejaVuSans-30"/>
      </g>
     </g>
    </g>
    <g id="ytick_5">
     <g id="line2d_11">
      <g>
       <use xlink:href="#m893f379413" x="180" y="272.336458" style="stroke: #000000; stroke-width: 0.8"/>
      </g>
     </g>
     <g id="text_11">
      <!-- 1 -->
      <g transform="translate(166.6375 276.135677) scale(0.1 -0.1)">
       <use xlink:href="#DejaVuSans-31"/>
      </g>
     </g>
    </g>
    <g id="ytick_6">
     <g id="line2d_12">
      <g>
       <use xlink:href="#m893f379413" x="180" y="213.418946" style="stroke: #000000; stroke-width: 0.8"/>
      </g>
     </g>
     <g id="text_12">
      <!-- 2 -->
      <g transform="translate(166.6375 217.218165) scale(0.1 -0.1)">
       <use xlink:href="#DejaVuSans-32"/>
      </g>
     </g>
    </g>
    <g id="ytick_7">
     <g id="line2d_13">
      <g>
       <use xlink:href="#m893f379413" x="180" y="154.501434" style="stroke: #000000; stroke-width: 0.8"/>
      </g>
     </g>
     <g id="text_13">
      <!-- 3 -->
      <g transform="translate(166.6375 158.300652) scale(0.1 -0.1)">
       <use xlink:href="#DejaVuSans-33"/>
      </g>
     </g>
    </g>
    <g id="ytick_8">
     <g id="line2d_14">
      <g>
       <use xlink:href="#m893f379413" x="180" y="95.583921" style="stroke: #000000; stroke-width: 0.8"/>
      </g>
     </g>
     <g id="text_14">
      <!-- 4 -->
      <g transform="translate(166.6375 99.38314) scale(0.1 -0.1)">
       <defs>
        <path id="DejaVuSans-34" d="M 2419 4116 
L 825 1625 
L 2419 1625 
L 2419 4116 
z
M 2253 4666 
L 3047 4666 
L 3047 1625 
L 3713 1625 
L 3713 1100 
L 3047 1100 
L 3047 0 
L 2419 0 
L 2419 1100 
L 313 1100 
L 313 1709 
L 2253 4666 
z
" transform="scale(0.015625)"/>
       </defs>
       <use xlink:href="#DejaVuSans-34"/>
      </g>
     </g>
    </g>
   </g>
   <g id="line2d_15">
    <path d="M 230.727273 390.541063 
L 231.719979 389.545588 
L 232.712685 388.717248 
L 233.70539 386.97002 
L 234.698096 385.54241 
L 236.683508 380.905297 
L 239.661626 370.640575 
L 241.647038 361.917472 
L 243.63245 351.324894 
L 244.625156 344.668698 
L 247.603273 307.730377 
L 248.595979 268.059356 
L 249.588685 234.137268 
L 250.581391 226.090946 
L 251.574097 264.514221 
L 252.566803 266.340948 
L 253.559509 201.675376 
L 254.552215 191.028437 
L 255.544921 207.995597 
L 256.537627 208.709663 
L 257.530333 190.173033 
L 259.515745 159.416114 
L 260.50845 159.62563 
L 261.501156 184.023534 
L 262.493862 197.026411 
L 263.486568 198.682828 
L 264.479274 264.339571 
L 265.47198 227.295066 
L 266.464686 220.848074 
L 267.457392 273.484209 
L 268.450098 207.280556 
L 269.442804 199.977997 
L 270.43551 197.210958 
L 271.428216 175.71802 
L 272.420922 162.148551 
L 273.413627 163.300279 
L 274.406333 185.92058 
L 275.399039 230.383369 
L 276.391745 213.877538 
L 277.384451 142.990017 
L 278.377157 112.625543 
L 279.369863 108.262825 
L 280.362569 113.53337 
L 281.355275 103.342369 
L 282.347981 91.225776 
L 283.340687 89.28 
L 284.333393 98.597318 
L 285.326099 134.383464 
L 286.318804 184.202147 
L 287.31151 111.53437 
L 288.304216 102.181681 
L 289.296922 129.859824 
L 290.289628 221.338621 
L 291.282334 210.305984 
L 292.27504 190.722304 
L 293.267746 184.777648 
L 294.260452 212.457365 
L 295.253158 314.76893 
L 296.245864 337.11109 
L 297.23857 258.179372 
L 298.231276 233.76857 
L 299.223981 289.609283 
L 300.216687 258.013149 
L 301.209393 273.713803 
L 302.202099 282.821621 
L 303.194805 239.52544 
L 305.180217 314.690941 
L 306.172923 297.268946 
L 307.165629 408.161248 
L 308.158335 300.260231 
L 309.151041 332.372328 
L 310.143747 333.940394 
L 311.136453 323.079873 
L 312.129159 342.693052 
L 313.121864 337.865517 
L 314.11457 339.945842 
L 315.107276 333.951089 
L 316.099982 342.152161 
L 317.092688 338.615486 
L 318.085394 348.58559 
L 319.0781 343.598723 
L 320.070806 348.465753 
L 321.063512 344.266059 
L 322.056218 346.200465 
L 323.048924 354.785195 
L 324.04163 351.545929 
L 325.034336 353.796741 
L 326.027041 354.644344 
L 327.019747 357.012707 
L 328.012453 357.273904 
L 329.005159 362.037396 
L 329.997865 361.156135 
L 330.990571 360.970047 
L 331.983277 361.172439 
L 332.975983 361.825336 
L 333.968689 363.014456 
L 334.961395 369.071142 
L 335.954101 366.200441 
L 336.946807 365.768045 
L 337.939513 366.255176 
L 338.932218 362.565934 
L 339.924924 370.699674 
L 340.91763 371.225931 
L 341.910336 374.483271 
L 342.903042 371.515378 
L 343.895748 370.033012 
L 344.888454 374.673596 
L 345.88116 373.09027 
L 346.873866 374.653154 
L 347.866572 378.834081 
L 348.859278 372.480237 
L 349.851984 383.440433 
L 350.84469 377.370708 
L 351.837395 374.048507 
L 352.830101 379.048876 
L 353.822807 371.617594 
L 354.815513 381.08039 
L 355.808219 382.671414 
L 356.800925 374.738947 
L 357.793631 384.020632 
L 358.786337 381.460626 
L 359.779043 388.894511 
L 360.771749 390.188395 
L 361.764455 387.937195 
L 362.757161 398.792297 
L 363.749867 390.500689 
L 364.742572 391.45948 
L 365.735278 389.838109 
L 366.727984 397.501395 
L 367.72069 383.198107 
L 368.713396 390.446373 
L 369.706102 388.682227 
L 370.698808 391.977461 
L 371.691514 386.169289 
L 372.68422 384.063035 
L 373.676926 401.32165 
L 374.669632 394.969279 
L 375.662338 396.265423 
L 376.655044 400.249855 
L 377.64775 401.638772 
L 378.640455 406.044416 
L 379.633161 396.517633 
L 380.625867 394.744371 
L 381.618573 404.103885 
L 382.611279 390.514476 
L 383.603985 393.751506 
L 384.596691 401.061734 
L 385.589397 404.960114 
L 386.582103 392.284141 
L 387.574809 399.133247 
L 388.567515 396.64429 
L 389.560221 395.639147 
L 390.552927 396.160265 
L 391.545632 397.005454 
L 392.538338 398.78929 
L 393.531044 407.103644 
L 394.52375 403.01149 
L 395.516456 407.165781 
L 396.509162 406.224109 
L 397.501868 407.514409 
L 398.494574 407.922138 
L 399.48728 400.315358 
L 400.479986 396.003625 
L 401.472692 405.339296 
L 402.465398 413.479016 
L 403.458104 408.749593 
L 404.450809 404.847445 
L 405.443515 407.439705 
L 406.436221 414.256746 
L 407.428927 408.296552 
L 408.421633 418.818532 
L 409.414339 413.726664 
L 410.407045 401.879103 
L 411.399751 405.679234 
L 412.392457 401.442404 
L 413.385163 419.895777 
L 414.377869 401.69396 
L 415.370575 407.637944 
L 416.363281 408.0542 
L 417.355986 415.48388 
L 418.348692 413.118371 
L 419.341398 416.634842 
L 420.334104 414.844879 
L 421.32681 422.50646 
L 422.319516 413.831339 
L 423.312222 411.767687 
L 424.304928 411.080633 
L 425.297634 409.835438 
L 426.29034 411.665013 
L 427.283046 414.201087 
L 428.275752 410.279959 
L 429.268458 413.077512 
L 430.261163 422.833893 
L 431.253869 414.093287 
L 432.246575 411.871389 
L 433.239281 410.082105 
L 434.231987 418.385384 
L 435.224693 416.829016 
L 436.217399 423.52361 
L 437.210105 420.694587 
L 438.202811 420.678371 
L 439.195517 420.529395 
L 440.188223 419.706975 
L 441.180929 418.122575 
L 442.173635 421.000933 
L 443.166341 409.130391 
L 444.159046 419.83452 
L 445.151752 416.882229 
L 446.144458 417.050476 
L 447.137164 418.976822 
L 448.12987 420.350207 
L 449.122576 416.454199 
L 450.115282 425.268366 
L 451.107988 424.734778 
L 452.100694 423.354673 
L 453.0934 435.600734 
L 454.086106 422.55517 
L 455.078812 428.644954 
L 456.071518 439.436449 
L 457.064223 423.790524 
L 458.056929 414.571385 
L 459.049635 434.119888 
L 460.042341 421.959099 
L 461.035047 433.959842 
L 462.027753 442.855397 
L 463.020459 434.526056 
L 464.013165 445.941144 
L 465.005871 418.496946 
L 465.998577 427.597386 
L 466.991283 418.068785 
L 467.983989 421.800283 
L 468.976695 418.457037 
L 469.9694 417.389632 
L 470.962106 433.776486 
L 471.954812 429.64757 
L 472.947518 422.396225 
L 473.940224 430.105009 
L 474.93293 427.462057 
L 475.925636 430.281585 
L 476.918342 419.256354 
L 477.911048 442.898715 
L 478.903754 434.602294 
L 479.89646 440.482288 
L 480.889166 443.166392 
L 481.881872 428.256734 
L 482.874577 430.67173 
L 483.867283 426.398329 
L 484.859989 421.197075 
L 485.852695 435.070981 
L 486.845401 429.693562 
L 487.838107 425.227603 
L 488.830813 440.211695 
L 489.823519 447.279475 
L 490.816225 443.241716 
L 491.808931 421.784439 
L 493.794343 432.230274 
L 494.787049 424.09981 
L 495.779754 433.788004 
L 496.77246 432.111253 
L 497.765166 436.898457 
L 498.757872 421.047978 
L 499.750578 422.307678 
L 500.743284 434.692027 
L 501.73599 431.983228 
L 502.728696 438.094671 
L 503.721402 433.851182 
L 504.714108 423.639367 
L 505.706814 441.148173 
L 506.69952 445.32677 
L 508.684932 433.471145 
L 509.677637 440.14007 
L 510.670343 451.281516 
L 511.663049 424.836786 
L 512.655755 429.136483 
L 513.648461 440.574766 
L 514.641167 441.203243 
L 515.633873 429.458988 
L 516.626579 439.962578 
L 517.619285 439.232644 
L 518.611991 440.541289 
L 519.604697 447.593213 
L 520.597403 416.096965 
L 521.590109 434.621817 
L 522.582814 437.334404 
L 523.57552 454.427106 
L 524.568226 445.393695 
L 525.560932 442.458228 
L 526.553638 448.557637 
L 527.546344 436.322691 
L 528.53905 444.276219 
L 529.531756 433.817662 
L 530.524462 433.88248 
L 531.517168 444.965114 
L 532.509874 464.711907 
L 533.50258 446.634322 
L 534.495286 437.409527 
L 535.487991 431.412458 
L 536.480697 444.938146 
L 537.473403 435.628571 
L 538.466109 437.684869 
L 539.458815 441.963595 
L 540.451521 447.706074 
L 541.444227 440.631989 
L 542.436933 442.290462 
L 543.429639 443.632807 
L 544.422345 435.320477 
L 545.415051 463.789821 
L 546.407757 443.924086 
L 547.400463 439.498499 
L 548.393168 452.50075 
L 549.385874 480.020893 
L 550.37858 428.369093 
L 551.371286 439.080277 
L 552.363992 445.445841 
L 553.356698 449.266926 
L 554.349404 426.816737 
L 555.34211 449.363025 
L 556.334816 433.895751 
L 557.327522 436.222631 
L 558.320228 449.903309 
L 559.312934 446.329673 
L 560.30564 463.704915 
L 561.298345 458.447157 
L 562.291051 459.633298 
L 563.283757 433.243418 
L 564.276463 452.635265 
L 565.269169 446.121066 
L 566.261875 447.377522 
L 567.254581 447.30942 
L 568.247287 445.298088 
L 569.239993 444.946881 
L 570.232699 462.040435 
L 571.225405 451.451168 
L 572.218111 455.517237 
L 573.210817 441.419911 
L 574.203523 437.696555 
L 575.196228 444.881371 
L 576.188934 470.45816 
L 577.18164 440.616061 
L 578.174346 440.858825 
L 579.167052 464.83842 
L 580.159758 433.816581 
L 581.152464 451.200784 
L 582.14517 448.605882 
L 583.137876 444.594059 
L 584.130582 446.707394 
L 585.123288 439.866901 
L 586.115994 436.464237 
L 587.1087 460.721276 
L 589.094111 444.643749 
L 590.086817 450.857258 
L 591.079523 438.617272 
L 592.072229 440.017964 
L 593.064935 453.331485 
L 594.057641 455.991187 
L 595.050347 445.899588 
L 596.043053 444.551371 
L 597.035759 456.113443 
L 598.028465 458.18196 
L 599.021171 457.905996 
L 600.013877 455.482559 
L 601.006582 464.931618 
L 601.999288 453.106317 
L 602.991994 462.148241 
L 603.9847 450.190986 
L 604.977406 439.806234 
L 605.970112 464.657599 
L 606.962818 458.489911 
L 607.955524 462.479802 
L 608.94823 458.101208 
L 609.940936 458.413005 
L 610.933642 451.260327 
L 611.926348 447.363546 
L 612.919054 457.861164 
L 614.904465 446.196603 
L 615.897171 442.946368 
L 616.889877 448.706235 
L 617.882583 452.362177 
L 618.875289 472.536216 
L 619.867995 460.024769 
L 620.860701 457.591251 
L 621.853407 457.821072 
L 622.846113 452.957215 
L 623.838819 452.855822 
L 624.831525 456.161244 
L 625.824231 462.12349 
L 626.816936 457.467348 
L 627.809642 467.226772 
L 628.802348 456.000101 
L 629.795054 462.372702 
L 630.78776 458.215479 
L 631.780466 455.306988 
L 632.773172 460.933293 
L 633.765878 459.597589 
L 634.758584 457.109154 
L 635.75129 452.785834 
L 636.743996 463.130462 
L 637.736702 462.274982 
L 638.729408 463.802848 
L 639.722114 460.463181 
L 640.714819 464.587415 
L 641.707525 464.553222 
L 642.700231 463.464604 
L 643.692937 456.959117 
L 644.685643 454.463546 
L 645.678349 454.597193 
L 646.671055 461.336563 
L 647.663761 457.188345 
L 648.656467 454.293552 
L 649.649173 462.658957 
L 650.641879 457.637689 
L 651.634585 457.859046 
L 652.627291 456.927446 
L 653.619996 463.423698 
L 654.612702 462.788499 
L 655.605408 462.513995 
L 656.598114 467.472603 
L 657.59082 466.860748 
L 658.583526 462.919618 
L 659.576232 461.928172 
L 660.568938 458.879731 
L 661.561644 461.038125 
L 662.55435 462.415564 
L 663.547056 467.111643 
L 664.539762 459.913552 
L 665.532468 466.342389 
L 666.525173 463.233207 
L 667.517879 462.233486 
L 668.510585 462.995166 
L 670.495997 464.007388 
L 671.488703 460.362464 
L 672.481409 460.648594 
L 673.474115 465.13513 
L 674.466821 463.804415 
L 675.459527 464.4015 
L 676.452233 463.644394 
L 677.444939 463.569334 
L 678.437645 462.369805 
L 679.43035 461.733157 
L 680.423056 465.732275 
L 681.415762 463.011572 
L 682.408468 464.269922 
L 685.386586 464.916928 
L 686.379292 466.689779 
L 687.371998 462.885165 
L 688.364704 464.323983 
L 689.35741 463.362659 
L 690.350116 464.949925 
L 692.335527 465.06005 
L 693.328233 464.241599 
L 694.320939 465.781033 
L 695.313645 465.372411 
L 696.306351 465.910902 
L 697.299057 464.997124 
L 698.291763 466.168226 
L 699.284469 464.743272 
L 700.277175 466.228355 
L 701.269881 466.236083 
L 702.262587 467.870659 
L 703.255293 467.051576 
L 704.247999 464.329016 
L 705.240705 466.473547 
L 706.23341 466.767634 
L 707.226116 467.903412 
L 708.218822 466.948721 
L 709.211528 469.073958 
L 710.204234 467.361583 
L 711.19694 467.467511 
L 712.189646 466.870114 
L 713.182352 467.08539 
L 714.175058 466.900568 
L 715.167764 467.983371 
L 716.16047 468.002981 
L 717.153176 467.460487 
L 718.145882 468.396503 
L 719.138587 468.135114 
L 720.131293 468.153774 
L 722.116705 469.186998 
L 724.102117 467.521248 
L 725.094823 469.586702 
L 726.087529 468.702301 
L 727.080235 469.453459 
L 728.072941 468.930597 
L 730.058353 469.624509 
L 731.051059 468.877238 
L 732.043764 468.699808 
L 733.03647 469.015966 
L 734.029176 470.232362 
L 735.021882 469.136015 
L 736.014588 468.774035 
L 737.007294 469.882274 
L 738 469.629567 
L 738.992706 470.020865 
L 739.985412 470.031081 
L 740.978118 469.443938 
L 741.970824 469.677043 
L 742.96353 469.529268 
L 743.956236 470.695666 
L 744.948941 469.960846 
L 746.934353 470.678769 
L 747.927059 470.741752 
L 748.919765 471.415933 
L 749.912471 471.728909 
L 750.905177 472.228251 
L 751.897883 470.486818 
L 752.890589 471.569296 
L 753.883295 470.946638 
L 754.876001 471.356889 
L 755.868707 470.991062 
L 756.861413 471.807066 
L 757.854118 471.548879 
L 758.846824 471.002404 
L 759.83953 471.77164 
L 760.832236 472.740828 
L 761.824942 471.699776 
L 762.817648 472.479485 
L 763.810354 474.06017 
L 764.80306 472.191673 
L 765.795766 472.954846 
L 766.788472 471.600357 
L 767.781178 472.933502 
L 768.773884 472.470092 
L 769.76659 472.545604 
L 770.759295 473.47667 
L 771.752001 473.120195 
L 772.744707 473.254789 
L 773.737413 473.863889 
L 775.722825 472.863547 
L 776.715531 472.733111 
L 777.708237 472.863278 
L 778.700943 474.493832 
L 779.693649 475.065914 
L 780.686355 473.249808 
L 781.679061 473.119072 
L 782.671767 473.982484 
L 783.664473 473.586649 
L 785.649884 474.351473 
L 786.64259 473.870179 
L 787.635296 474.190509 
L 788.628002 473.759945 
L 789.620708 474.547231 
L 790.613414 473.905433 
L 792.598826 474.906956 
L 793.591532 474.912744 
L 794.584238 473.995495 
L 795.576944 474.480552 
L 796.56965 475.209456 
L 798.555061 475.510455 
L 799.547767 474.751049 
L 801.533179 475.404681 
L 802.525885 474.883386 
L 804.511297 475.232435 
L 805.504003 474.543506 
L 806.496709 475.419468 
L 807.489415 476.512691 
L 808.482121 475.473955 
L 809.474827 476.611489 
L 810.467532 476.906203 
L 811.460238 476.15876 
L 812.452944 476.946772 
L 813.44565 475.931246 
L 814.438356 475.787627 
L 815.431062 476.333587 
L 816.423768 476.116093 
L 817.416474 476.850968 
L 818.40918 476.559497 
L 819.401886 476.590898 
L 820.394592 476.397531 
L 821.387298 476.898713 
L 822.380004 476.614271 
L 823.372709 476.902163 
L 824.365415 476.689969 
L 825.358121 477.210789 
L 826.350827 476.444572 
L 827.343533 477.772604 
L 828.336239 477.420426 
L 829.328945 477.215445 
L 830.321651 477.185711 
L 831.314357 477.533921 
L 832.307063 476.765898 
L 833.299769 477.749087 
L 834.292475 478.31652 
L 835.285181 478.146825 
L 836.277886 477.195157 
L 837.270592 478.067075 
L 838.263298 477.596536 
L 839.256004 478.351535 
L 840.24871 478.596567 
L 841.241416 478.248001 
L 842.234122 478.08809 
L 843.226828 477.521907 
L 844.219534 477.890429 
L 845.21224 478.551041 
L 846.204946 477.293293 
L 847.197652 478.541895 
L 848.190358 478.101536 
L 849.183064 479.431037 
L 850.175769 477.489664 
L 851.168475 478.051612 
L 852.161181 479.515046 
L 853.153887 479.829215 
L 854.146593 479.084575 
L 855.139299 478.487941 
L 856.132005 479.878517 
L 857.124711 479.136225 
L 858.117417 478.66836 
L 859.110123 479.734638 
L 860.102829 479.367751 
L 861.095535 480.463112 
L 862.088241 478.016894 
L 863.080946 479.575632 
L 864.073652 479.688882 
L 865.066358 479.59305 
L 866.059064 479.669327 
L 867.05177 479.364157 
L 868.044476 479.798682 
L 869.037182 479.217728 
L 870.029888 479.984712 
L 873.008006 480.627886 
L 874.000712 480.481814 
L 874.993418 481.017637 
L 875.986123 480.428858 
L 876.978829 480.671583 
L 877.971535 479.879533 
L 878.964241 480.98079 
L 879.956947 480.65783 
L 880.949653 479.745746 
L 881.942359 480.857143 
L 882.935065 481.125877 
L 883.927771 480.951377 
L 884.920477 481.443155 
L 885.913183 481.675305 
L 886.905889 480.793451 
L 887.898595 480.36579 
L 888.8913 480.21503 
L 889.884006 481.320374 
L 891.869418 481.155026 
L 892.862124 480.947145 
L 893.85483 481.029382 
L 894.847536 482.34369 
L 895.840242 481.076471 
L 896.832948 482.580008 
L 897.825654 481.113199 
L 898.81836 481.525864 
L 899.811066 481.363876 
L 900.803772 482.448555 
L 901.796477 481.466945 
L 902.789183 481.876509 
L 903.781889 482.142107 
L 905.767301 481.580849 
L 906.760007 481.676852 
L 907.752713 482.32516 
L 908.745419 482.085284 
L 909.738125 481.375361 
L 910.730831 482.722348 
L 911.723537 481.928328 
L 912.716243 482.399448 
L 913.708949 481.281265 
L 915.69436 483.315349 
L 916.687066 482.35665 
L 918.672478 482.177471 
L 920.65789 482.997244 
L 921.650596 483.136513 
L 922.643302 482.248278 
L 923.636008 483.726593 
L 924.628714 483.597364 
L 925.62142 482.692315 
L 926.614126 482.439085 
L 928.599537 483.825057 
L 929.592243 483.170976 
L 930.584949 482.763668 
L 931.577655 483.988887 
L 932.570361 483.937395 
L 933.563067 481.865584 
L 934.555773 483.13684 
L 935.548479 483.199759 
L 936.541185 483.819531 
L 937.533891 484.048703 
L 938.526597 482.401467 
L 939.519303 483.748644 
L 940.512009 484.369478 
L 941.504714 484.278778 
L 943.490126 482.805453 
L 944.482832 483.783017 
L 945.475538 484.542536 
L 946.468244 484.418097 
L 947.46095 484.905462 
L 948.453656 483.788349 
L 949.446362 483.121217 
L 950.439068 484.42161 
L 951.431774 484.28577 
L 952.42448 482.955845 
L 953.417186 484.839455 
L 954.409891 485.313558 
L 955.402597 484.623869 
L 956.395303 485.033751 
L 957.388009 484.352689 
L 959.373421 484.230962 
L 960.366127 485.664102 
L 961.358833 484.70572 
L 962.351539 485.210186 
L 963.344245 484.938357 
L 964.336951 485.545475 
L 965.329657 484.643002 
L 966.322363 483.040878 
L 967.315068 485.503003 
L 968.307774 486.17041 
L 969.30048 485.562039 
L 970.293186 484.727236 
L 971.285892 485.202461 
L 972.278598 484.796892 
L 973.271304 484.578932 
L 974.26401 485.197974 
L 975.256716 486.175624 
L 976.249422 486.177147 
L 977.242128 486.484558 
L 978.234834 486.461048 
L 979.22754 485.967368 
L 981.212951 486.599823 
L 982.205657 484.652803 
L 983.198363 485.501235 
L 984.191069 485.678723 
L 985.183775 485.684776 
L 986.176481 484.934164 
L 987.169187 486.296032 
L 988.161893 485.245979 
L 990.147305 486.726669 
L 991.140011 486.649025 
L 992.132717 485.272803 
L 993.125423 486.166251 
L 994.118128 486.186111 
L 995.110834 486.409005 
L 997.096246 485.615279 
L 998.088952 485.692841 
L 999.081658 487.035148 
L 1000.074364 486.174257 
L 1001.06707 487.273437 
L 1002.059776 486.107061 
L 1003.052482 487.372813 
L 1004.045188 487.52029 
L 1005.037894 486.894026 
L 1007.023305 487.04403 
L 1008.016011 486.672415 
L 1009.008717 485.605153 
L 1010.001423 486.277996 
L 1010.994129 486.389745 
L 1011.986835 486.131835 
L 1012.979541 486.067296 
L 1013.972247 487.888097 
L 1014.964953 486.955812 
L 1015.957659 487.072762 
L 1016.950365 487.572451 
L 1017.943071 487.901087 
L 1018.935777 485.7254 
L 1019.928482 486.82517 
L 1020.921188 486.878204 
L 1021.913894 485.904326 
L 1022.9066 487.528291 
L 1023.899306 487.565133 
L 1024.892012 487.136039 
L 1025.884718 487.872573 
L 1026.877424 487.69176 
L 1027.87013 487.993884 
L 1028.862836 487.028677 
L 1029.855542 487.472632 
L 1030.848248 486.643721 
L 1031.840954 487.307906 
L 1032.833659 487.493003 
L 1033.826365 487.560759 
L 1034.819071 487.744379 
L 1035.811777 486.448177 
L 1036.804483 486.761422 
L 1037.797189 487.315195 
L 1038.789895 487.028136 
L 1039.782601 488.530709 
L 1040.775307 486.983191 
L 1041.768013 488.465573 
L 1042.760719 488.110598 
L 1043.753425 486.626419 
L 1044.746131 487.400604 
L 1045.738837 487.948063 
L 1046.731542 488.232696 
L 1047.724248 487.689223 
L 1049.70966 488.247162 
L 1050.702366 488.009333 
L 1051.695072 487.323644 
L 1052.687778 488.536156 
L 1053.680484 487.698377 
L 1054.67319 487.880217 
L 1055.665896 489.036376 
L 1056.658602 489.485969 
L 1057.651308 488.373981 
L 1059.636719 489.629026 
L 1060.629425 487.571389 
L 1061.622131 487.967445 
L 1062.614837 489.501065 
L 1063.607543 489.654417 
L 1065.592955 488.184324 
L 1066.585661 488.133286 
L 1068.571073 488.586042 
L 1070.556485 489.397054 
L 1071.549191 489.504837 
L 1073.534602 487.881847 
L 1074.527308 489.897091 
L 1075.520014 487.465313 
L 1076.51272 487.659846 
L 1077.505426 488.675298 
L 1079.490838 488.471624 
L 1080.483544 489.148803 
L 1081.47625 487.891748 
L 1082.468956 488.790609 
L 1083.461662 488.390776 
L 1084.454368 489.100244 
L 1085.447073 489.162014 
L 1086.439779 487.179078 
L 1087.432485 488.802438 
L 1088.425191 489.174712 
L 1089.417897 488.120546 
L 1090.410603 489.431623 
L 1091.403309 490.398126 
L 1092.396015 489.601913 
L 1093.388721 489.046287 
L 1094.381427 489.209213 
L 1095.374133 488.222889 
L 1096.366839 490.335162 
L 1098.35225 489.18531 
L 1099.344956 489.145711 
L 1100.337662 488.586359 
L 1101.330368 488.277256 
L 1102.323074 488.806048 
L 1103.31578 489.189083 
L 1104.308486 488.457703 
L 1105.301192 488.781343 
L 1106.293898 489.549469 
L 1107.286604 490.0171 
L 1108.27931 490.326116 
L 1109.272016 488.721599 
L 1110.264722 490.297304 
L 1111.257428 488.624729 
L 1113.242839 489.464965 
L 1114.235545 489.563313 
L 1115.228251 488.94525 
L 1116.220957 488.637382 
L 1117.213663 489.171726 
L 1118.206369 488.971443 
L 1119.199075 489.190848 
L 1120.191781 489.127913 
L 1121.184487 489.854079 
L 1122.177193 489.983378 
L 1123.169899 489.345149 
L 1124.162605 489.557191 
L 1125.15531 489.567803 
L 1126.148016 490.591571 
L 1127.140722 489.432263 
L 1128.133428 489.578077 
L 1129.126134 489.867171 
L 1130.11884 489.397601 
L 1131.111546 490.497084 
L 1132.104252 489.666718 
L 1133.096958 489.113925 
L 1135.08237 489.955174 
L 1136.075076 490.33736 
L 1137.067782 489.36022 
L 1138.060487 490.205353 
L 1139.053193 489.915633 
L 1140.045899 488.486515 
L 1141.038605 489.547257 
L 1142.031311 488.791075 
L 1143.024017 490.233961 
L 1144.016723 489.297388 
L 1145.009429 489.821489 
L 1146.002135 491.237286 
L 1146.994841 489.408383 
L 1147.987547 490.820942 
L 1148.980253 489.279102 
L 1149.972959 490.920427 
L 1152.951076 488.868053 
L 1153.943782 490.686693 
L 1154.936488 489.503831 
L 1155.929194 490.480452 
L 1156.9219 489.23963 
L 1157.914606 490.26231 
L 1158.907312 490.472677 
L 1159.900018 490.997627 
L 1160.892724 490.263731 
L 1161.88543 490.041862 
L 1162.878136 489.140493 
L 1163.870841 490.262598 
L 1164.863547 490.757192 
L 1165.856253 489.796793 
L 1166.848959 490.316036 
L 1168.834371 490.913948 
L 1169.827077 490.331479 
L 1170.819783 490.877794 
L 1172.805195 491.568809 
L 1173.797901 490.686049 
L 1174.790607 491.04855 
L 1175.783313 490.779046 
L 1177.768724 489.132234 
L 1178.76143 491.102722 
L 1179.754136 489.576418 
L 1180.746842 489.260394 
L 1181.739548 490.386437 
L 1182.732254 490.493063 
L 1183.72496 491.092907 
L 1184.717666 490.550816 
L 1185.710372 490.520273 
L 1186.703078 488.718054 
L 1187.695784 491.010783 
L 1188.68849 490.403604 
L 1189.681196 490.03569 
L 1190.673901 490.755582 
L 1191.666607 489.469399 
L 1192.659313 490.44236 
L 1193.652019 490.490207 
L 1194.644725 489.843034 
L 1195.637431 491.594094 
L 1196.630137 491.088681 
L 1197.622843 491.005913 
L 1198.615549 490.452079 
L 1199.608255 491.141761 
L 1200.600961 491.595605 
L 1201.593667 490.284735 
L 1202.586373 490.82695 
L 1203.579078 490.048136 
L 1204.571784 490.858095 
L 1205.56449 490.353878 
L 1206.557196 490.94835 
L 1207.549902 490.223629 
L 1208.542608 490.222474 
L 1209.535314 491.298049 
L 1210.52802 490.893021 
L 1211.520726 491.271402 
L 1212.513432 491.530469 
L 1213.506138 490.439307 
L 1214.498844 490.192079 
L 1215.49155 490.97337 
L 1216.484255 491.274512 
L 1217.476961 490.676379 
L 1218.469667 491.516634 
L 1219.462373 491.623435 
L 1220.455079 490.696944 
L 1221.447785 491.788579 
L 1222.440491 489.973792 
L 1223.433197 490.086494 
L 1224.425903 490.861878 
L 1225.418609 489.815559 
L 1226.411315 490.497421 
L 1227.404021 491.513472 
L 1228.396727 491.238307 
L 1229.389432 490.452906 
L 1230.382138 489.237917 
L 1231.374844 490.598213 
L 1232.36755 490.003877 
L 1233.360256 490.901676 
L 1234.352962 489.960761 
L 1235.345668 489.989708 
L 1236.338374 489.676625 
L 1237.33108 491.493622 
L 1238.323786 491.51976 
L 1239.316492 490.952541 
L 1240.309198 491.189367 
L 1241.301904 490.304108 
L 1242.29461 489.905342 
L 1243.287315 490.810491 
L 1244.280021 490.187045 
L 1245.272727 492.48 
L 1245.272727 492.48 
" clip-path="url(#p9735eb5c5d)" style="fill: none; stroke: #1f77b4; stroke-width: 1.5; stroke-linecap: square"/>
   </g>
   <g id="patch_3">
    <path d="M 180 512.64 
L 180 69.12 
" style="fill: none; stroke: #000000; stroke-width: 0.8; stroke-linejoin: miter; stroke-linecap: square"/>
   </g>
   <g id="patch_4">
    <path d="M 1296 512.64 
L 1296 69.12 
" style="fill: none; stroke: #000000; stroke-width: 0.8; stroke-linejoin: miter; stroke-linecap: square"/>
   </g>
   <g id="patch_5">
    <path d="M 180 512.64 
L 1296 512.64 
" style="fill: none; stroke: #000000; stroke-width: 0.8; stroke-linejoin: miter; stroke-linecap: square"/>
   </g>
   <g id="patch_6">
    <path d="M 180 69.12 
L 1296 69.12 
" style="fill: none; stroke: #000000; stroke-width: 0.8; stroke-linejoin: miter; stroke-linecap: square"/>
   </g>
   <g id="text_15">
    <!-- source19-receiver2 -->
    <g transform="translate(544.9 60.80125) scale(0.4 -0.4)">
     <defs>
      <path id="DejaVuSans-73" d="M 2834 3397 
L 2834 2853 
Q 2591 2978 2328 3040 
Q 2066 3103 1784 3103 
Q 1356 3103 1142 2972 
Q 928 2841 928 2578 
Q 928 2378 1081 2264 
Q 1234 2150 1697 2047 
L 1894 2003 
Q 2506 1872 2764 1633 
Q 3022 1394 3022 966 
Q 3022 478 2636 193 
Q 2250 -91 1575 -91 
Q 1294 -91 989 -36 
Q 684 19 347 128 
L 347 722 
Q 666 556 975 473 
Q 1284 391 1588 391 
Q 1994 391 2212 530 
Q 2431 669 2431 922 
Q 2431 1156 2273 1281 
Q 2116 1406 1581 1522 
L 1381 1569 
Q 847 1681 609 1914 
Q 372 2147 372 2553 
Q 372 3047 722 3315 
Q 1072 3584 1716 3584 
Q 2034 3584 2315 3537 
Q 2597 3491 2834 3397 
z
" transform="scale(0.015625)"/>
      <path id="DejaVuSans-6f" d="M 1959 3097 
Q 1497 3097 1228 2736 
Q 959 2375 959 1747 
Q 959 1119 1226 758 
Q 1494 397 1959 397 
Q 2419 397 2687 759 
Q 2956 1122 2956 1747 
Q 2956 2369 2687 2733 
Q 2419 3097 1959 3097 
z
M 1959 3584 
Q 2709 3584 3137 3096 
Q 3566 2609 3566 1747 
Q 3566 888 3137 398 
Q 2709 -91 1959 -91 
Q 1206 -91 779 398 
Q 353 888 353 1747 
Q 353 2609 779 3096 
Q 1206 3584 1959 3584 
z
" transform="scale(0.015625)"/>
      <path id="DejaVuSans-75" d="M 544 1381 
L 544 3500 
L 1119 3500 
L 1119 1403 
Q 1119 906 1312 657 
Q 1506 409 1894 409 
Q 2359 409 2629 706 
Q 2900 1003 2900 1516 
L 2900 3500 
L 3475 3500 
L 3475 0 
L 2900 0 
L 2900 538 
Q 2691 219 2414 64 
Q 2138 -91 1772 -91 
Q 1169 -91 856 284 
Q 544 659 544 1381 
z
M 1991 3584 
L 1991 3584 
z
" transform="scale(0.015625)"/>
      <path id="DejaVuSans-72" d="M 2631 2963 
Q 2534 3019 2420 3045 
Q 2306 3072 2169 3072 
Q 1681 3072 1420 2755 
Q 1159 2438 1159 1844 
L 1159 0 
L 581 0 
L 581 3500 
L 1159 3500 
L 1159 2956 
Q 1341 3275 1631 3429 
Q 1922 3584 2338 3584 
Q 2397 3584 2469 3576 
Q 2541 3569 2628 3553 
L 2631 2963 
z
" transform="scale(0.015625)"/>
      <path id="DejaVuSans-63" d="M 3122 3366 
L 3122 2828 
Q 2878 2963 2633 3030 
Q 2388 3097 2138 3097 
Q 1578 3097 1268 2742 
Q 959 2388 959 1747 
Q 959 1106 1268 751 
Q 1578 397 2138 397 
Q 2388 397 2633 464 
Q 2878 531 3122 666 
L 3122 134 
Q 2881 22 2623 -34 
Q 2366 -91 2075 -91 
Q 1284 -91 818 406 
Q 353 903 353 1747 
Q 353 2603 823 3093 
Q 1294 3584 2113 3584 
Q 2378 3584 2631 3529 
Q 2884 3475 3122 3366 
z
" transform="scale(0.015625)"/>
      <path id="DejaVuSans-65" d="M 3597 1894 
L 3597 1613 
L 953 1613 
Q 991 1019 1311 708 
Q 1631 397 2203 397 
Q 2534 397 2845 478 
Q 3156 559 3463 722 
L 3463 178 
Q 3153 47 2828 -22 
Q 2503 -91 2169 -91 
Q 1331 -91 842 396 
Q 353 884 353 1716 
Q 353 2575 817 3079 
Q 1281 3584 2069 3584 
Q 2775 3584 3186 3129 
Q 3597 2675 3597 1894 
z
M 3022 2063 
Q 3016 2534 2758 2815 
Q 2500 3097 2075 3097 
Q 1594 3097 1305 2825 
Q 1016 2553 972 2059 
L 3022 2063 
z
" transform="scale(0.015625)"/>
      <path id="DejaVuSans-39" d="M 703 97 
L 703 672 
Q 941 559 1184 500 
Q 1428 441 1663 441 
Q 2288 441 2617 861 
Q 2947 1281 2994 2138 
Q 2813 1869 2534 1725 
Q 2256 1581 1919 1581 
Q 1219 1581 811 2004 
Q 403 2428 403 3163 
Q 403 3881 828 4315 
Q 1253 4750 1959 4750 
Q 2769 4750 3195 4129 
Q 3622 3509 3622 2328 
Q 3622 1225 3098 567 
Q 2575 -91 1691 -91 
Q 1453 -91 1209 -44 
Q 966 3 703 97 
z
M 1959 2075 
Q 2384 2075 2632 2365 
Q 2881 2656 2881 3163 
Q 2881 3666 2632 3958 
Q 2384 4250 1959 4250 
Q 1534 4250 1286 3958 
Q 1038 3666 1038 3163 
Q 1038 2656 1286 2365 
Q 1534 2075 1959 2075 
z
" transform="scale(0.015625)"/>
      <path id="DejaVuSans-2d" d="M 313 2009 
L 1997 2009 
L 1997 1497 
L 313 1497 
L 313 2009 
z
" transform="scale(0.015625)"/>
      <path id="DejaVuSans-69" d="M 603 3500 
L 1178 3500 
L 1178 0 
L 603 0 
L 603 3500 
z
M 603 4863 
L 1178 4863 
L 1178 4134 
L 603 4134 
L 603 4863 
z
" transform="scale(0.015625)"/>
      <path id="DejaVuSans-76" d="M 191 3500 
L 800 3500 
L 1894 563 
L 2988 3500 
L 3597 3500 
L 2284 0 
L 1503 0 
L 191 3500 
z
" transform="scale(0.015625)"/>
     </defs>
     <use xlink:href="#DejaVuSans-73"/>
     <use xlink:href="#DejaVuSans-6f" x="52.099609"/>
     <use xlink:href="#DejaVuSans-75" x="113.28125"/>
     <use xlink:href="#DejaVuSans-72" x="176.660156"/>
     <use xlink:href="#DejaVuSans-63" x="215.523438"/>
     <use xlink:href="#DejaVuSans-65" x="270.503906"/>
     <use xlink:href="#DejaVuSans-31" x="332.027344"/>
     <use xlink:href="#DejaVuSans-39" x="395.650391"/>
     <use xlink:href="#DejaVuSans-2d" x="459.273438"/>
     <use xlink:href="#DejaVuSans-72" x="495.357422"/>
     <use xlink:href="#DejaVuSans-65" x="534.220703"/>
     <use xlink:href="#DejaVuSans-63" x="595.744141"/>
     <use xlink:href="#DejaVuSans-65" x="650.724609"/>
     <use xlink:href="#DejaVuSans-69" x="712.248047"/>
     <use xlink:href="#DejaVuSans-76" x="740.03125"/>
     <use xlink:href="#DejaVuSans-65" x="799.210938"/>
     <use xlink:href="#DejaVuSans-72" x="860.734375"/>
     <use xlink:href="#DejaVuSans-32" x="901.847656"/>
    </g>
   </g>
  </g>
 </g>
 <defs>
  <clipPath id="p9735eb5c5d">
   <rect x="180" y="69.12" width="1116" height="443.52"/>
  </clipPath>
 </defs>
</svg>
