<?xml version="1.0" encoding="utf-8" standalone="no"?>
<!DOCTYPE svg PUBLIC "-//W3C//DTD SVG 1.1//EN"
  "http://www.w3.org/Graphics/SVG/1.1/DTD/svg11.dtd">
<svg xmlns:xlink="http://www.w3.org/1999/xlink" width="1440pt" height="576pt" viewBox="0 0 1440 576" xmlns="http://www.w3.org/2000/svg" version="1.1">
 <metadata>
  <rdf:RDF xmlns:dc="http://purl.org/dc/elements/1.1/" xmlns:cc="http://creativecommons.org/ns#" xmlns:rdf="http://www.w3.org/1999/02/22-rdf-syntax-ns#">
   <cc:Work>
    <dc:type rdf:resource="http://purl.org/dc/dcmitype/StillImage"/>
    <dc:date>2024-05-22T04:50:15.361902</dc:date>
    <dc:format>image/svg+xml</dc:format>
    <dc:creator>
     <cc:Agent>
      <dc:title>Matplotlib v3.8.3, https://matplotlib.org/</dc:title>
     </cc:Agent>
    </dc:creator>
   </cc:Work>
  </rdf:RDF>
 </metadata>
 <defs>
  <style type="text/css">*{stroke-linejoin: round; stroke-linecap: butt}</style>
 </defs>
 <g id="figure_1">
  <g id="patch_1">
   <path d="M 0 576 
L 1440 576 
L 1440 0 
L 0 0 
z
" style="fill: #ffffff"/>
  </g>
  <g id="axes_1">
   <g id="patch_2">
    <path d="M 180 512.64 
L 1296 512.64 
L 1296 69.12 
L 180 69.12 
z
" style="fill: #ffffff"/>
   </g>
   <g id="matplotlib.axis_1">
    <g id="xtick_1">
     <g id="line2d_1">
      <defs>
       <path id="m73157efdc4" d="M 0 0 
L 0 3.5 
" style="stroke: #000000; stroke-width: 0.8"/>
      </defs>
      <g>
       <use xlink:href="#m73157efdc4" x="229.734567" y="512.64" style="stroke: #000000; stroke-width: 0.8"/>
      </g>
     </g>
     <g id="text_1">
      <!-- 0 -->
      <g transform="translate(226.553317 527.238438) scale(0.1 -0.1)">
       <defs>
        <path id="DejaVuSans-30" d="M 2034 4250 
Q 1547 4250 1301 3770 
Q 1056 3291 1056 2328 
Q 1056 1369 1301 889 
Q 1547 409 2034 409 
Q 2525 409 2770 889 
Q 3016 1369 3016 2328 
Q 3016 3291 2770 3770 
Q 2525 4250 2034 4250 
z
M 2034 4750 
Q 2819 4750 3233 4129 
Q 3647 3509 3647 2328 
Q 3647 1150 3233 529 
Q 2819 -91 2034 -91 
Q 1250 -91 836 529 
Q 422 1150 422 2328 
Q 422 3509 836 4129 
Q 1250 4750 2034 4750 
z
" transform="scale(0.015625)"/>
       </defs>
       <use xlink:href="#DejaVuSans-30"/>
      </g>
     </g>
    </g>
    <g id="xtick_2">
     <g id="line2d_2">
      <g>
       <use xlink:href="#m73157efdc4" x="433.04074" y="512.64" style="stroke: #000000; stroke-width: 0.8"/>
      </g>
     </g>
     <g id="text_2">
      <!-- 500 -->
      <g transform="translate(423.49699 527.238438) scale(0.1 -0.1)">
       <defs>
        <path id="DejaVuSans-35" d="M 691 4666 
L 3169 4666 
L 3169 4134 
L 1269 4134 
L 1269 2991 
Q 1406 3038 1543 3061 
Q 1681 3084 1819 3084 
Q 2600 3084 3056 2656 
Q 3513 2228 3513 1497 
Q 3513 744 3044 326 
Q 2575 -91 1722 -91 
Q 1428 -91 1123 -41 
Q 819 9 494 109 
L 494 744 
Q 775 591 1075 516 
Q 1375 441 1709 441 
Q 2250 441 2565 725 
Q 2881 1009 2881 1497 
Q 2881 1984 2565 2268 
Q 2250 2553 1709 2553 
Q 1456 2553 1204 2497 
Q 953 2441 691 2322 
L 691 4666 
z
" transform="scale(0.015625)"/>
       </defs>
       <use xlink:href="#DejaVuSans-35"/>
       <use xlink:href="#DejaVuSans-30" x="63.623047"/>
       <use xlink:href="#DejaVuSans-30" x="127.246094"/>
      </g>
     </g>
    </g>
    <g id="xtick_3">
     <g id="line2d_3">
      <g>
       <use xlink:href="#m73157efdc4" x="636.346913" y="512.64" style="stroke: #000000; stroke-width: 0.8"/>
      </g>
     </g>
     <g id="text_3">
      <!-- 1000 -->
      <g transform="translate(623.621913 527.238438) scale(0.1 -0.1)">
       <defs>
        <path id="DejaVuSans-31" d="M 794 531 
L 1825 531 
L 1825 4091 
L 703 3866 
L 703 4441 
L 1819 4666 
L 2450 4666 
L 2450 531 
L 3481 531 
L 3481 0 
L 794 0 
L 794 531 
z
" transform="scale(0.015625)"/>
       </defs>
       <use xlink:href="#DejaVuSans-31"/>
       <use xlink:href="#DejaVuSans-30" x="63.623047"/>
       <use xlink:href="#DejaVuSans-30" x="127.246094"/>
       <use xlink:href="#DejaVuSans-30" x="190.869141"/>
      </g>
     </g>
    </g>
    <g id="xtick_4">
     <g id="line2d_4">
      <g>
       <use xlink:href="#m73157efdc4" x="839.653087" y="512.64" style="stroke: #000000; stroke-width: 0.8"/>
      </g>
     </g>
     <g id="text_4">
      <!-- 1500 -->
      <g transform="translate(826.928087 527.238438) scale(0.1 -0.1)">
       <use xlink:href="#DejaVuSans-31"/>
       <use xlink:href="#DejaVuSans-35" x="63.623047"/>
       <use xlink:href="#DejaVuSans-30" x="127.246094"/>
       <use xlink:href="#DejaVuSans-30" x="190.869141"/>
      </g>
     </g>
    </g>
    <g id="xtick_5">
     <g id="line2d_5">
      <g>
       <use xlink:href="#m73157efdc4" x="1042.95926" y="512.64" style="stroke: #000000; stroke-width: 0.8"/>
      </g>
     </g>
     <g id="text_5">
      <!-- 2000 -->
      <g transform="translate(1030.23426 527.238438) scale(0.1 -0.1)">
       <defs>
        <path id="DejaVuSans-32" d="M 1228 531 
L 3431 531 
L 3431 0 
L 469 0 
L 469 531 
Q 828 903 1448 1529 
Q 2069 2156 2228 2338 
Q 2531 2678 2651 2914 
Q 2772 3150 2772 3378 
Q 2772 3750 2511 3984 
Q 2250 4219 1831 4219 
Q 1534 4219 1204 4116 
Q 875 4013 500 3803 
L 500 4441 
Q 881 4594 1212 4672 
Q 1544 4750 1819 4750 
Q 2544 4750 2975 4387 
Q 3406 4025 3406 3419 
Q 3406 3131 3298 2873 
Q 3191 2616 2906 2266 
Q 2828 2175 2409 1742 
Q 1991 1309 1228 531 
z
" transform="scale(0.015625)"/>
       </defs>
       <use xlink:href="#DejaVuSans-32"/>
       <use xlink:href="#DejaVuSans-30" x="63.623047"/>
       <use xlink:href="#DejaVuSans-30" x="127.246094"/>
       <use xlink:href="#DejaVuSans-30" x="190.869141"/>
      </g>
     </g>
    </g>
    <g id="xtick_6">
     <g id="line2d_6">
      <g>
       <use xlink:href="#m73157efdc4" x="1246.265433" y="512.64" style="stroke: #000000; stroke-width: 0.8"/>
      </g>
     </g>
     <g id="text_6">
      <!-- 2500 -->
      <g transform="translate(1233.540433 527.238438) scale(0.1 -0.1)">
       <use xlink:href="#DejaVuSans-32"/>
       <use xlink:href="#DejaVuSans-35" x="63.623047"/>
       <use xlink:href="#DejaVuSans-30" x="127.246094"/>
       <use xlink:href="#DejaVuSans-30" x="190.869141"/>
      </g>
     </g>
    </g>
   </g>
   <g id="matplotlib.axis_2">
    <g id="ytick_1">
     <g id="line2d_7">
      <defs>
       <path id="m3f305f0534" d="M 0 0 
L -3.5 0 
" style="stroke: #000000; stroke-width: 0.8"/>
      </defs>
      <g>
       <use xlink:href="#m3f305f0534" x="180" y="465.810739" style="stroke: #000000; stroke-width: 0.8"/>
      </g>
     </g>
     <g id="text_7">
      <!-- −2 -->
      <g transform="translate(158.257812 469.609958) scale(0.1 -0.1)">
       <defs>
        <path id="DejaVuSans-2212" d="M 678 2272 
L 4684 2272 
L 4684 1741 
L 678 1741 
L 678 2272 
z
" transform="scale(0.015625)"/>
       </defs>
       <use xlink:href="#DejaVuSans-2212"/>
       <use xlink:href="#DejaVuSans-32" x="83.789062"/>
      </g>
     </g>
    </g>
    <g id="ytick_2">
     <g id="line2d_8">
      <g>
       <use xlink:href="#m3f305f0534" x="180" y="399.377485" style="stroke: #000000; stroke-width: 0.8"/>
      </g>
     </g>
     <g id="text_8">
      <!-- −1 -->
      <g transform="translate(158.257812 403.176704) scale(0.1 -0.1)">
       <use xlink:href="#DejaVuSans-2212"/>
       <use xlink:href="#DejaVuSans-31" x="83.789062"/>
      </g>
     </g>
    </g>
    <g id="ytick_3">
     <g id="line2d_9">
      <g>
       <use xlink:href="#m3f305f0534" x="180" y="332.944231" style="stroke: #000000; stroke-width: 0.8"/>
      </g>
     </g>
     <g id="text_9">
      <!-- 0 -->
      <g transform="translate(166.6375 336.74345) scale(0.1 -0.1)">
       <use xlink:href="#DejaVuSans-30"/>
      </g>
     </g>
    </g>
    <g id="ytick_4">
     <g id="line2d_10">
      <g>
       <use xlink:href="#m3f305f0534" x="180" y="266.510977" style="stroke: #000000; stroke-width: 0.8"/>
      </g>
     </g>
     <g id="text_10">
      <!-- 1 -->
      <g transform="translate(166.6375 270.310195) scale(0.1 -0.1)">
       <use xlink:href="#DejaVuSans-31"/>
      </g>
     </g>
    </g>
    <g id="ytick_5">
     <g id="line2d_11">
      <g>
       <use xlink:href="#m3f305f0534" x="180" y="200.077722" style="stroke: #000000; stroke-width: 0.8"/>
      </g>
     </g>
     <g id="text_11">
      <!-- 2 -->
      <g transform="translate(166.6375 203.876941) scale(0.1 -0.1)">
       <use xlink:href="#DejaVuSans-32"/>
      </g>
     </g>
    </g>
    <g id="ytick_6">
     <g id="line2d_12">
      <g>
       <use xlink:href="#m3f305f0534" x="180" y="133.644468" style="stroke: #000000; stroke-width: 0.8"/>
      </g>
     </g>
     <g id="text_12">
      <!-- 3 -->
      <g transform="translate(166.6375 137.443687) scale(0.1 -0.1)">
       <defs>
        <path id="DejaVuSans-33" d="M 2597 2516 
Q 3050 2419 3304 2112 
Q 3559 1806 3559 1356 
Q 3559 666 3084 287 
Q 2609 -91 1734 -91 
Q 1441 -91 1130 -33 
Q 819 25 488 141 
L 488 750 
Q 750 597 1062 519 
Q 1375 441 1716 441 
Q 2309 441 2620 675 
Q 2931 909 2931 1356 
Q 2931 1769 2642 2001 
Q 2353 2234 1838 2234 
L 1294 2234 
L 1294 2753 
L 1863 2753 
Q 2328 2753 2575 2939 
Q 2822 3125 2822 3475 
Q 2822 3834 2567 4026 
Q 2313 4219 1838 4219 
Q 1578 4219 1281 4162 
Q 984 4106 628 3988 
L 628 4550 
Q 988 4650 1302 4700 
Q 1616 4750 1894 4750 
Q 2613 4750 3031 4423 
Q 3450 4097 3450 3541 
Q 3450 3153 3228 2886 
Q 3006 2619 2597 2516 
z
" transform="scale(0.015625)"/>
       </defs>
       <use xlink:href="#DejaVuSans-33"/>
      </g>
     </g>
    </g>
   </g>
   <g id="line2d_13">
    <path d="M 230.727273 461.489166 
L 231.719979 454.117434 
L 232.712685 444.89825 
L 234.698096 424.809584 
L 236.683508 406.894149 
L 237.676214 398.288449 
L 240.654332 376.426186 
L 243.63245 357.870456 
L 244.625156 350.055052 
L 245.617862 343.38514 
L 247.603273 376.352196 
L 248.595979 278.675431 
L 249.588685 241.4934 
L 250.581391 239.177232 
L 251.574097 297.699535 
L 252.566803 247.378416 
L 253.559509 205.406893 
L 254.552215 212.628894 
L 255.544921 251.518079 
L 256.537627 209.20025 
L 257.530333 196.179864 
L 258.523039 220.368301 
L 259.515745 221.123144 
L 260.50845 212.114531 
L 261.501156 235.921113 
L 262.493862 227.259435 
L 263.486568 214.375769 
L 264.479274 237.872973 
L 265.47198 272.999649 
L 266.464686 265.713153 
L 267.457392 235.580075 
L 268.450098 197.298628 
L 269.442804 174.813049 
L 270.43551 175.975501 
L 271.428216 216.394432 
L 272.420922 212.111328 
L 273.413627 158.136931 
L 274.406333 152.784605 
L 275.399039 210.770673 
L 276.391745 188.338044 
L 277.384451 133.149907 
L 278.377157 134.969381 
L 279.369863 146.293048 
L 280.362569 105.779194 
L 281.355275 90.50531 
L 282.347981 114.825365 
L 283.340687 202.821076 
L 284.333393 106.36557 
L 285.326099 89.28 
L 286.318804 117.386313 
L 287.31151 302.987814 
L 288.304216 150.897511 
L 289.296922 145.088406 
L 290.289628 186.380825 
L 291.282334 232.477148 
L 292.27504 350.524932 
L 293.267746 231.897068 
L 294.260452 216.186378 
L 295.253158 258.261149 
L 296.245864 245.823247 
L 297.23857 258.37302 
L 298.231276 275.17366 
L 299.223981 256.660396 
L 300.216687 314.266457 
L 301.209393 317.882447 
L 302.202099 308.663387 
L 303.194805 377.756845 
L 304.187511 297.430439 
L 305.180217 300.162665 
L 306.172923 311.142048 
L 307.165629 316.135776 
L 308.158335 318.659658 
L 309.151041 331.755388 
L 310.143747 325.686318 
L 311.136453 311.404353 
L 312.129159 336.006217 
L 313.121864 334.436996 
L 314.11457 327.675864 
L 315.107276 341.691856 
L 316.099982 332.318696 
L 317.092688 335.616028 
L 318.085394 335.078466 
L 319.0781 340.336592 
L 320.070806 341.710374 
L 321.063512 336.043432 
L 322.056218 340.987129 
L 323.048924 342.782885 
L 324.04163 344.134926 
L 325.034336 346.657864 
L 326.027041 350.835168 
L 327.019747 349.004096 
L 328.012453 350.050289 
L 329.005159 349.222525 
L 329.997865 352.393956 
L 330.990571 354.275171 
L 331.983277 352.346339 
L 332.975983 354.620937 
L 333.968689 360.533023 
L 334.961395 359.61729 
L 335.954101 358.068837 
L 336.946807 359.713892 
L 337.939513 363.048559 
L 338.932218 358.588144 
L 339.924924 357.92777 
L 340.91763 365.854396 
L 341.910336 363.533332 
L 342.903042 368.000184 
L 343.895748 365.612786 
L 344.888454 364.106054 
L 345.88116 366.948429 
L 346.873866 365.421587 
L 347.866572 366.479359 
L 348.859278 368.7743 
L 349.851984 369.37499 
L 350.84469 366.111044 
L 351.837395 369.326468 
L 352.830101 371.198166 
L 353.822807 368.402841 
L 354.815513 373.869362 
L 355.808219 369.713654 
L 356.800925 371.105435 
L 357.793631 371.899184 
L 358.786337 373.487966 
L 359.779043 373.957382 
L 360.771749 368.010703 
L 362.757161 381.74566 
L 363.749867 381.440925 
L 364.742572 376.918915 
L 365.735278 377.77066 
L 366.727984 378.177886 
L 367.72069 375.325308 
L 368.713396 381.936198 
L 369.706102 386.210793 
L 370.698808 377.793176 
L 371.691514 380.395855 
L 372.68422 386.621327 
L 373.676926 381.255625 
L 374.669632 383.593013 
L 375.662338 386.871635 
L 376.655044 379.589118 
L 377.64775 381.538755 
L 378.640455 386.543564 
L 379.633161 390.253229 
L 380.625867 386.289853 
L 381.618573 385.229437 
L 382.611279 390.378191 
L 383.603985 389.478401 
L 384.596691 393.693434 
L 385.589397 392.527533 
L 386.582103 400.768736 
L 387.574809 387.177567 
L 388.567515 394.811828 
L 389.560221 395.230785 
L 390.552927 401.297841 
L 391.545632 396.589522 
L 392.538338 400.004852 
L 393.531044 396.640143 
L 394.52375 395.283095 
L 396.509162 389.590514 
L 397.501868 394.7738 
L 398.494574 395.614151 
L 399.48728 389.986515 
L 400.479986 397.40692 
L 401.472692 394.54703 
L 402.465398 399.443858 
L 403.458104 398.268005 
L 404.450809 398.649486 
L 405.443515 395.672835 
L 406.436221 395.747051 
L 407.428927 395.601589 
L 408.421633 392.603358 
L 409.414339 400.219032 
L 410.407045 401.04895 
L 411.399751 394.28938 
L 412.392457 403.821549 
L 413.385163 396.052211 
L 414.377869 396.555281 
L 415.370575 408.180691 
L 416.363281 402.748419 
L 417.355986 410.350354 
L 419.341398 408.030568 
L 420.334104 408.156602 
L 421.32681 410.61822 
L 422.319516 401.17629 
L 423.312222 420.486885 
L 424.304928 403.833848 
L 425.297634 410.302269 
L 426.29034 411.846513 
L 427.283046 403.652203 
L 428.275752 407.666469 
L 429.268458 406.582608 
L 430.261163 408.962709 
L 431.253869 408.273246 
L 432.246575 411.404273 
L 433.239281 413.987732 
L 434.231987 406.467978 
L 435.224693 408.475809 
L 436.217399 410.886699 
L 437.210105 416.138042 
L 438.202811 409.889143 
L 439.195517 422.609745 
L 440.188223 408.359902 
L 441.180929 413.193455 
L 442.173635 408.307131 
L 443.166341 418.257332 
L 444.159046 413.587961 
L 445.151752 419.151168 
L 446.144458 407.737664 
L 447.137164 415.905108 
L 448.12987 420.442375 
L 449.122576 409.721115 
L 450.115282 418.720715 
L 451.107988 418.359626 
L 452.100694 411.307875 
L 453.0934 416.325821 
L 454.086106 419.10848 
L 455.078812 414.033539 
L 456.071518 425.990679 
L 457.064223 422.047125 
L 458.056929 418.648813 
L 459.049635 429.169221 
L 460.042341 425.258652 
L 461.035047 425.906653 
L 462.027753 418.217772 
L 463.020459 420.396259 
L 464.013165 417.749952 
L 465.005871 422.67931 
L 465.998577 413.004443 
L 466.991283 425.291909 
L 467.983989 422.10558 
L 468.976695 433.730422 
L 469.9694 417.721801 
L 470.962106 428.027616 
L 471.954812 426.065402 
L 472.947518 426.086108 
L 473.940224 414.825743 
L 474.93293 432.070557 
L 476.918342 420.205005 
L 477.911048 424.075638 
L 478.903754 434.663807 
L 479.89646 425.863113 
L 480.889166 422.438037 
L 481.881872 419.467636 
L 482.874577 415.899547 
L 483.867283 417.382109 
L 484.859989 431.523311 
L 485.852695 431.998724 
L 486.845401 426.268658 
L 487.838107 419.566267 
L 488.830813 428.052411 
L 489.823519 438.111579 
L 490.816225 425.070601 
L 491.808931 432.617706 
L 492.801637 435.226857 
L 493.794343 424.6953 
L 494.787049 429.619564 
L 495.779754 432.028446 
L 496.77246 429.596815 
L 497.765166 430.942087 
L 498.757872 426.510343 
L 499.750578 423.075035 
L 500.743284 429.442067 
L 501.73599 437.913281 
L 502.728696 424.703564 
L 503.721402 430.414404 
L 504.714108 430.332048 
L 505.706814 435.471485 
L 506.69952 429.575976 
L 507.692226 435.687814 
L 508.684932 427.124327 
L 509.677637 444.406294 
L 510.670343 425.171442 
L 511.663049 422.888819 
L 512.655755 435.883776 
L 513.648461 432.351033 
L 514.641167 435.393048 
L 515.633873 437.837048 
L 516.626579 423.514889 
L 517.619285 431.47764 
L 519.604697 426.929857 
L 520.597403 422.606734 
L 521.590109 434.020876 
L 522.582814 437.985823 
L 523.57552 424.539818 
L 524.568226 447.918107 
L 525.560932 444.447318 
L 526.553638 443.43697 
L 527.546344 449.457143 
L 528.53905 448.238215 
L 529.531756 426.109695 
L 530.524462 441.078867 
L 531.517168 447.973692 
L 532.509874 447.200893 
L 533.50258 433.962435 
L 534.495286 440.121245 
L 535.487991 435.091917 
L 536.480697 434.821179 
L 537.473403 434.852376 
L 538.466109 436.400021 
L 539.458815 431.326703 
L 540.451521 432.459204 
L 541.444227 441.277876 
L 542.436933 441.094526 
L 543.429639 437.686756 
L 544.422345 435.752691 
L 545.415051 438.922242 
L 546.407757 443.883394 
L 547.400463 440.251454 
L 548.393168 437.492723 
L 549.385874 439.656515 
L 550.37858 449.15349 
L 551.371286 433.899371 
L 552.363992 431.889984 
L 553.356698 434.396127 
L 554.349404 435.24982 
L 555.34211 453.061969 
L 556.334816 437.114928 
L 557.327522 446.278483 
L 558.320228 440.351264 
L 559.312934 431.174939 
L 560.30564 451.197991 
L 561.298345 443.224669 
L 562.291051 446.069617 
L 563.283757 446.885418 
L 564.276463 453.371239 
L 565.269169 435.012509 
L 566.261875 453.020614 
L 567.254581 443.603589 
L 568.247287 446.034303 
L 569.239993 441.796562 
L 570.232699 448.418755 
L 571.225405 441.109641 
L 572.218111 431.417509 
L 573.210817 444.096682 
L 574.203523 450.481117 
L 575.196228 451.90376 
L 576.188934 440.565949 
L 577.18164 449.348265 
L 578.174346 445.949178 
L 579.167052 437.743246 
L 580.159758 445.947934 
L 581.152464 445.396655 
L 582.14517 442.829696 
L 583.137876 447.129976 
L 584.130582 439.054212 
L 585.123288 454.227667 
L 586.115994 440.33969 
L 587.1087 460.247652 
L 588.101405 441.365648 
L 589.094111 447.089968 
L 590.086817 455.530516 
L 591.079523 449.455095 
L 592.072229 439.782173 
L 593.064935 457.590606 
L 594.057641 464.432269 
L 595.050347 453.172488 
L 596.043053 448.659883 
L 597.035759 435.520198 
L 598.028465 443.444711 
L 599.021171 447.02178 
L 600.013877 447.723618 
L 601.006582 449.654366 
L 601.999288 448.190564 
L 602.991994 445.992707 
L 604.977406 446.618553 
L 605.970112 448.585118 
L 607.955524 453.627169 
L 608.94823 449.996994 
L 609.940936 454.360798 
L 610.933642 452.001834 
L 611.926348 446.632752 
L 612.919054 447.182885 
L 613.911759 458.766046 
L 614.904465 444.055402 
L 615.897171 460.728432 
L 616.889877 453.980806 
L 617.882583 450.410098 
L 618.875289 449.120199 
L 619.867995 455.132605 
L 620.860701 454.689186 
L 621.853407 451.984268 
L 622.846113 452.378454 
L 623.838819 447.5734 
L 624.831525 453.777455 
L 626.816936 448.865154 
L 627.809642 458.797978 
L 628.802348 454.168102 
L 629.795054 453.748486 
L 630.78776 455.675145 
L 631.780466 460.503108 
L 632.773172 455.898039 
L 633.765878 455.841204 
L 634.758584 450.688528 
L 635.75129 452.667437 
L 636.743996 452.07654 
L 637.736702 456.583042 
L 638.729408 456.86893 
L 639.722114 454.46547 
L 640.714819 457.963554 
L 641.707525 453.691996 
L 642.700231 454.439973 
L 643.692937 463.430852 
L 644.685643 454.20513 
L 645.678349 457.8476 
L 646.671055 453.09241 
L 647.663761 460.06614 
L 648.656467 455.730918 
L 649.649173 459.18985 
L 650.641879 455.809443 
L 651.634585 460.653652 
L 652.627291 456.938741 
L 653.619996 459.572124 
L 654.612702 456.011783 
L 655.605408 456.050524 
L 656.598114 458.626418 
L 657.59082 452.795275 
L 658.583526 458.477334 
L 659.576232 459.3293 
L 660.568938 458.284467 
L 661.561644 458.66769 
L 662.55435 458.572195 
L 663.547056 460.648162 
L 664.539762 459.729195 
L 665.532468 460.29852 
L 666.525173 458.130314 
L 667.517879 458.024094 
L 668.510585 461.598588 
L 669.503291 458.623316 
L 670.495997 462.851913 
L 671.488703 460.510124 
L 672.481409 460.629046 
L 673.474115 461.436227 
L 674.466821 457.498199 
L 675.459527 461.718352 
L 676.452233 460.598536 
L 677.444939 457.88401 
L 678.437645 461.379371 
L 679.43035 461.448223 
L 680.423056 463.592385 
L 681.415762 460.395034 
L 682.408468 462.973218 
L 683.401174 463.126194 
L 684.39388 462.427449 
L 685.386586 463.083575 
L 686.379292 465.577346 
L 687.371998 463.638557 
L 688.364704 463.685606 
L 689.35741 462.477715 
L 690.350116 462.436388 
L 691.342822 463.359038 
L 692.335527 462.907635 
L 693.328233 461.568055 
L 694.320939 461.656072 
L 695.313645 463.246112 
L 696.306351 464.611285 
L 697.299057 463.278465 
L 698.291763 464.14258 
L 699.284469 464.004182 
L 700.277175 465.101192 
L 701.269881 463.882689 
L 702.262587 464.230675 
L 703.255293 464.218309 
L 704.247999 464.010872 
L 705.240705 464.801739 
L 706.23341 464.161558 
L 707.226116 463.819683 
L 708.218822 464.49542 
L 709.211528 465.761043 
L 710.204234 465.456615 
L 711.19694 465.002267 
L 712.189646 465.471143 
L 713.182352 464.843724 
L 714.175058 465.93627 
L 715.167764 465.180668 
L 716.16047 465.360139 
L 717.153176 465.285283 
L 718.145882 466.170855 
L 719.138587 466.156156 
L 720.131293 465.939115 
L 721.123999 466.571894 
L 722.116705 466.374042 
L 723.109411 466.349145 
L 724.102117 466.762302 
L 725.094823 465.145768 
L 726.087529 465.573498 
L 727.080235 466.93167 
L 728.072941 466.825171 
L 729.065647 465.619093 
L 730.058353 467.016468 
L 731.051059 467.784111 
L 732.043764 467.350683 
L 733.03647 467.247808 
L 734.029176 467.294574 
L 735.021882 466.610304 
L 736.014588 466.662811 
L 737.007294 467.756804 
L 738 467.840017 
L 738.992706 467.651302 
L 739.985412 468.670603 
L 740.978118 467.826072 
L 741.970824 468.990129 
L 742.96353 469.177175 
L 743.956236 468.682019 
L 744.948941 469.933947 
L 745.941647 468.137725 
L 746.934353 469.896452 
L 747.927059 469.440402 
L 749.912471 469.209969 
L 750.905177 470.05621 
L 751.897883 467.722001 
L 752.890589 469.527959 
L 753.883295 469.160678 
L 754.876001 469.095765 
L 755.868707 469.617154 
L 756.861413 469.230843 
L 757.854118 470.170317 
L 758.846824 470.311475 
L 760.832236 470.069128 
L 761.824942 470.256478 
L 762.817648 469.838766 
L 763.810354 470.263258 
L 764.80306 469.488275 
L 765.795766 470.677061 
L 766.788472 471.132758 
L 767.781178 470.278311 
L 768.773884 471.394832 
L 769.76659 471.203729 
L 770.759295 471.527569 
L 771.752001 471.064007 
L 772.744707 471.827818 
L 773.737413 471.507328 
L 774.730119 471.773481 
L 776.715531 470.715293 
L 778.700943 472.313096 
L 779.693649 472.159186 
L 780.686355 471.793442 
L 782.671767 471.9873 
L 783.664473 472.310233 
L 784.657178 472.132789 
L 785.649884 472.562578 
L 786.64259 472.201021 
L 789.620708 473.200254 
L 790.613414 472.839186 
L 791.60612 473.300091 
L 792.598826 472.905791 
L 793.591532 473.574247 
L 794.584238 472.917719 
L 795.576944 473.715544 
L 796.56965 472.455249 
L 797.562355 473.610275 
L 799.547767 474.416711 
L 800.540473 473.814472 
L 801.533179 473.755063 
L 802.525885 473.301263 
L 803.518591 474.133853 
L 804.511297 473.893758 
L 805.504003 474.505064 
L 806.496709 474.572278 
L 807.489415 474.202577 
L 808.482121 473.622297 
L 809.474827 474.496646 
L 810.467532 475.211286 
L 811.460238 475.425426 
L 812.452944 475.12126 
L 813.44565 475.265306 
L 814.438356 474.935088 
L 815.431062 475.197957 
L 816.423768 475.625981 
L 817.416474 475.673139 
L 818.40918 475.187504 
L 819.401886 474.274328 
L 820.394592 475.747092 
L 821.387298 475.767614 
L 822.380004 475.352033 
L 823.372709 475.772154 
L 824.365415 475.943967 
L 825.358121 476.524892 
L 826.350827 474.209395 
L 827.343533 476.415874 
L 828.336239 476.348616 
L 829.328945 475.962564 
L 830.321651 476.061613 
L 831.314357 477.262975 
L 832.307063 476.742885 
L 833.299769 475.759388 
L 834.292475 475.483131 
L 835.285181 476.505364 
L 836.277886 477.087326 
L 837.270592 476.875466 
L 838.263298 477.385284 
L 839.256004 477.575634 
L 840.24871 476.167783 
L 841.241416 477.967256 
L 842.234122 477.29964 
L 843.226828 477.422224 
L 844.219534 477.384201 
L 845.21224 477.642626 
L 846.204946 478.080316 
L 848.190358 476.607385 
L 849.183064 477.56528 
L 850.175769 477.605871 
L 851.168475 478.424602 
L 852.161181 477.587427 
L 853.153887 478.896712 
L 854.146593 478.40483 
L 855.139299 478.063533 
L 856.132005 478.216461 
L 857.124711 477.85139 
L 858.117417 478.194991 
L 859.110123 479.114779 
L 860.102829 478.4654 
L 861.095535 478.407956 
L 862.088241 479.656182 
L 863.080946 477.239867 
L 864.073652 479.352123 
L 865.066358 479.891063 
L 866.059064 478.471794 
L 867.05177 479.227483 
L 868.044476 479.652779 
L 869.037182 479.071022 
L 871.022594 479.32034 
L 872.0153 478.969767 
L 873.008006 479.273653 
L 874.000712 480.445405 
L 874.993418 480.113588 
L 875.986123 479.613993 
L 876.978829 479.876132 
L 877.971535 480.320044 
L 878.964241 480.344476 
L 879.956947 479.92491 
L 880.949653 481.065572 
L 882.935065 480.330019 
L 883.927771 478.755686 
L 884.920477 480.540856 
L 885.913183 480.593469 
L 886.905889 480.180499 
L 887.898595 481.088876 
L 888.8913 480.605444 
L 889.884006 480.372315 
L 890.876712 480.68762 
L 892.862124 480.222533 
L 893.85483 480.269879 
L 894.847536 480.534565 
L 895.840242 480.003855 
L 896.832948 481.765936 
L 897.825654 480.03219 
L 898.81836 480.657864 
L 899.811066 481.904064 
L 900.803772 481.626519 
L 902.789183 481.367553 
L 903.781889 482.142678 
L 904.774595 481.031408 
L 905.767301 481.268272 
L 906.760007 481.076663 
L 907.752713 480.383942 
L 908.745419 481.474667 
L 909.738125 481.005477 
L 910.730831 482.333006 
L 911.723537 481.186622 
L 912.716243 482.111023 
L 913.708949 481.598868 
L 914.701655 482.188047 
L 915.69436 482.143589 
L 916.687066 481.889413 
L 917.679772 482.807367 
L 919.665184 482.619742 
L 920.65789 482.796033 
L 921.650596 481.863753 
L 922.643302 482.056046 
L 923.636008 481.836606 
L 924.628714 483.739061 
L 925.62142 481.868617 
L 926.614126 483.49427 
L 927.606832 483.198471 
L 928.599537 482.011697 
L 929.592243 482.567361 
L 930.584949 483.776785 
L 931.577655 483.010524 
L 932.570361 483.916276 
L 933.563067 484.237535 
L 934.555773 481.61955 
L 935.548479 483.478639 
L 936.541185 483.860433 
L 937.533891 482.907784 
L 938.526597 482.980153 
L 939.519303 484.243841 
L 940.512009 483.51123 
L 941.504714 483.369527 
L 942.49742 483.697018 
L 943.490126 483.244311 
L 944.482832 484.056055 
L 945.475538 484.34134 
L 946.468244 482.576293 
L 947.46095 484.684265 
L 948.453656 483.508134 
L 950.439068 483.720021 
L 951.431774 484.818992 
L 952.42448 483.069293 
L 953.417186 483.680244 
L 954.409891 484.129643 
L 955.402597 484.436731 
L 956.395303 485.083008 
L 957.388009 484.471701 
L 958.380715 484.031475 
L 959.373421 484.657373 
L 960.366127 484.740864 
L 961.358833 484.167198 
L 963.344245 485.221406 
L 964.336951 484.338679 
L 965.329657 483.2653 
L 966.322363 484.28689 
L 967.315068 484.336885 
L 968.307774 485.756063 
L 969.30048 485.583813 
L 970.293186 485.641289 
L 971.285892 484.365814 
L 972.278598 485.505904 
L 973.271304 484.838494 
L 974.26401 484.926637 
L 976.249422 485.559009 
L 977.242128 484.900375 
L 978.234834 486.206031 
L 979.22754 485.974775 
L 980.220246 484.635254 
L 981.212951 485.565819 
L 982.205657 485.863351 
L 983.198363 485.197289 
L 984.191069 484.857523 
L 985.183775 486.401079 
L 986.176481 485.727307 
L 987.169187 485.974493 
L 988.161893 485.205527 
L 989.154599 485.345391 
L 990.147305 484.946423 
L 992.132717 486.070095 
L 993.125423 485.703194 
L 994.118128 486.073255 
L 995.110834 485.914502 
L 996.10354 485.370472 
L 997.096246 486.243675 
L 998.088952 485.60048 
L 999.081658 487.399901 
L 1000.074364 487.13742 
L 1001.06707 485.662765 
L 1002.059776 487.209268 
L 1003.052482 486.656724 
L 1005.037894 487.730269 
L 1006.0306 487.292484 
L 1007.023305 485.42116 
L 1008.016011 487.149184 
L 1009.008717 487.302174 
L 1010.001423 485.667841 
L 1010.994129 486.795941 
L 1011.986835 486.897133 
L 1012.979541 486.677631 
L 1013.972247 487.367892 
L 1015.957659 485.9925 
L 1016.950365 486.532737 
L 1018.935777 485.686171 
L 1019.928482 488.343778 
L 1020.921188 487.005899 
L 1021.913894 487.069467 
L 1022.9066 487.291101 
L 1023.899306 487.701238 
L 1024.892012 487.390673 
L 1026.877424 487.542842 
L 1027.87013 486.954341 
L 1028.862836 486.125041 
L 1029.855542 487.03885 
L 1030.848248 488.131556 
L 1031.840954 486.703104 
L 1032.833659 487.964306 
L 1033.826365 487.99883 
L 1035.811777 487.680389 
L 1036.804483 488.461374 
L 1037.797189 487.359635 
L 1038.789895 487.79535 
L 1039.782601 488.354921 
L 1040.775307 488.215717 
L 1041.768013 487.579889 
L 1042.760719 487.827318 
L 1043.753425 487.789033 
L 1044.746131 488.224153 
L 1045.738837 487.467105 
L 1046.731542 488.625392 
L 1047.724248 487.780516 
L 1048.716954 487.212603 
L 1049.70966 488.985301 
L 1050.702366 487.41173 
L 1052.687778 489.096819 
L 1053.680484 488.812334 
L 1054.67319 487.412218 
L 1055.665896 488.923275 
L 1056.658602 488.067921 
L 1057.651308 489.638086 
L 1058.644014 488.654333 
L 1060.629425 488.162759 
L 1061.622131 488.96318 
L 1062.614837 489.013945 
L 1063.607543 487.8982 
L 1065.592955 487.894265 
L 1066.585661 488.508811 
L 1067.578367 488.832329 
L 1068.571073 488.600198 
L 1069.563779 489.12934 
L 1070.556485 489.418585 
L 1071.549191 488.539002 
L 1072.541896 488.466367 
L 1074.527308 489.123192 
L 1075.520014 489.775798 
L 1076.51272 488.515601 
L 1077.505426 488.548488 
L 1078.498132 489.254473 
L 1079.490838 488.732812 
L 1080.483544 487.464612 
L 1081.47625 488.257843 
L 1082.468956 488.731205 
L 1083.461662 490.310384 
L 1084.454368 489.375002 
L 1085.447073 488.967513 
L 1086.439779 488.863371 
L 1087.432485 488.885661 
L 1088.425191 489.116409 
L 1089.417897 488.973799 
L 1090.410603 489.538198 
L 1092.396015 490.077257 
L 1093.388721 489.636846 
L 1094.381427 488.392013 
L 1095.374133 490.240124 
L 1096.366839 489.090168 
L 1098.35225 490.459741 
L 1100.337662 489.329466 
L 1101.330368 489.588918 
L 1102.323074 489.658844 
L 1103.31578 490.792045 
L 1104.308486 489.315958 
L 1105.301192 488.779515 
L 1106.293898 489.742541 
L 1107.286604 489.781995 
L 1108.27931 489.417747 
L 1109.272016 489.473203 
L 1110.264722 490.301345 
L 1111.257428 490.122123 
L 1112.250133 489.479411 
L 1113.242839 490.170998 
L 1114.235545 490.038723 
L 1115.228251 490.975501 
L 1116.220957 489.978471 
L 1117.213663 490.551655 
L 1118.206369 489.750366 
L 1119.199075 489.922292 
L 1120.191781 490.23507 
L 1121.184487 490.163593 
L 1122.177193 490.352425 
L 1123.169899 490.190935 
L 1124.162605 489.42554 
L 1125.15531 489.563947 
L 1126.148016 488.782056 
L 1127.140722 490.460799 
L 1128.133428 489.928186 
L 1129.126134 490.207946 
L 1130.11884 490.935893 
L 1131.111546 489.415314 
L 1132.104252 490.688056 
L 1133.096958 489.480266 
L 1135.08237 489.800656 
L 1136.075076 490.216429 
L 1138.060487 490.141859 
L 1139.053193 490.619917 
L 1140.045899 489.627079 
L 1141.038605 491.066848 
L 1142.031311 490.504442 
L 1143.024017 491.229803 
L 1144.016723 490.420725 
L 1145.009429 490.673252 
L 1146.002135 490.015896 
L 1146.994841 491.225083 
L 1147.987547 489.99285 
L 1148.980253 491.610919 
L 1149.972959 491.225123 
L 1150.965664 489.546664 
L 1151.95837 490.988624 
L 1152.951076 490.409065 
L 1153.943782 489.98733 
L 1154.936488 490.435031 
L 1155.929194 490.723542 
L 1156.9219 490.730889 
L 1157.914606 490.582378 
L 1158.907312 491.093346 
L 1159.900018 490.236743 
L 1160.892724 489.636525 
L 1162.878136 490.564755 
L 1163.870841 490.823146 
L 1164.863547 491.450276 
L 1165.856253 491.062047 
L 1166.848959 491.239684 
L 1167.841665 490.710879 
L 1168.834371 491.826552 
L 1169.827077 490.551694 
L 1171.812489 490.125806 
L 1173.797901 490.937427 
L 1174.790607 490.953001 
L 1175.783313 490.467599 
L 1176.776019 491.464602 
L 1177.768724 490.268158 
L 1178.76143 490.820527 
L 1179.754136 490.67027 
L 1180.746842 490.652257 
L 1181.739548 491.129624 
L 1182.732254 490.693098 
L 1183.72496 491.247425 
L 1184.717666 491.198678 
L 1185.710372 490.900863 
L 1186.703078 490.747092 
L 1187.695784 490.424179 
L 1188.68849 491.324256 
L 1189.681196 490.409691 
L 1190.673901 490.865069 
L 1191.666607 492.293836 
L 1192.659313 491.322279 
L 1193.652019 490.655092 
L 1194.644725 491.235785 
L 1195.637431 490.86307 
L 1196.630137 490.701004 
L 1197.622843 491.008017 
L 1198.615549 491.058729 
L 1199.608255 490.990425 
L 1200.600961 491.068462 
L 1201.593667 491.787735 
L 1203.579078 491.301663 
L 1204.571784 490.676442 
L 1205.56449 491.626408 
L 1206.557196 490.520028 
L 1207.549902 491.610351 
L 1208.542608 490.168857 
L 1209.535314 490.504524 
L 1210.52802 491.714897 
L 1211.520726 490.927578 
L 1212.513432 490.580611 
L 1213.506138 491.181646 
L 1214.498844 490.675588 
L 1215.49155 491.815697 
L 1216.484255 492.305229 
L 1217.476961 491.849643 
L 1218.469667 491.630014 
L 1219.462373 490.943225 
L 1220.455079 491.726193 
L 1221.447785 491.913696 
L 1222.440491 491.121603 
L 1223.433197 490.777989 
L 1224.425903 491.12649 
L 1225.418609 490.873086 
L 1226.411315 491.138004 
L 1227.404021 491.94083 
L 1228.396727 491.796259 
L 1229.389432 491.866344 
L 1230.382138 491.551566 
L 1231.374844 492.185657 
L 1232.36755 491.685713 
L 1233.360256 491.698677 
L 1234.352962 491.197657 
L 1235.345668 490.476191 
L 1236.338374 489.91305 
L 1237.33108 491.190231 
L 1238.323786 491.392097 
L 1240.309198 491.231099 
L 1241.301904 490.921191 
L 1242.29461 491.43071 
L 1243.287315 490.413225 
L 1244.280021 492.48 
L 1245.272727 491.527353 
L 1245.272727 491.527353 
" clip-path="url(#p5df8c041f8)" style="fill: none; stroke: #1f77b4; stroke-width: 1.5; stroke-linecap: square"/>
   </g>
   <g id="patch_3">
    <path d="M 180 512.64 
L 180 69.12 
" style="fill: none; stroke: #000000; stroke-width: 0.8; stroke-linejoin: miter; stroke-linecap: square"/>
   </g>
   <g id="patch_4">
    <path d="M 1296 512.64 
L 1296 69.12 
" style="fill: none; stroke: #000000; stroke-width: 0.8; stroke-linejoin: miter; stroke-linecap: square"/>
   </g>
   <g id="patch_5">
    <path d="M 180 512.64 
L 1296 512.64 
" style="fill: none; stroke: #000000; stroke-width: 0.8; stroke-linejoin: miter; stroke-linecap: square"/>
   </g>
   <g id="patch_6">
    <path d="M 180 69.12 
L 1296 69.12 
" style="fill: none; stroke: #000000; stroke-width: 0.8; stroke-linejoin: miter; stroke-linecap: square"/>
   </g>
   <g id="text_13">
    <!-- source19-receiver4 -->
    <g transform="translate(544.9 60.80125) scale(0.4 -0.4)">
     <defs>
      <path id="DejaVuSans-73" d="M 2834 3397 
L 2834 2853 
Q 2591 2978 2328 3040 
Q 2066 3103 1784 3103 
Q 1356 3103 1142 2972 
Q 928 2841 928 2578 
Q 928 2378 1081 2264 
Q 1234 2150 1697 2047 
L 1894 2003 
Q 2506 1872 2764 1633 
Q 3022 1394 3022 966 
Q 3022 478 2636 193 
Q 2250 -91 1575 -91 
Q 1294 -91 989 -36 
Q 684 19 347 128 
L 347 722 
Q 666 556 975 473 
Q 1284 391 1588 391 
Q 1994 391 2212 530 
Q 2431 669 2431 922 
Q 2431 1156 2273 1281 
Q 2116 1406 1581 1522 
L 1381 1569 
Q 847 1681 609 1914 
Q 372 2147 372 2553 
Q 372 3047 722 3315 
Q 1072 3584 1716 3584 
Q 2034 3584 2315 3537 
Q 2597 3491 2834 3397 
z
" transform="scale(0.015625)"/>
      <path id="DejaVuSans-6f" d="M 1959 3097 
Q 1497 3097 1228 2736 
Q 959 2375 959 1747 
Q 959 1119 1226 758 
Q 1494 397 1959 397 
Q 2419 397 2687 759 
Q 2956 1122 2956 1747 
Q 2956 2369 2687 2733 
Q 2419 3097 1959 3097 
z
M 1959 3584 
Q 2709 3584 3137 3096 
Q 3566 2609 3566 1747 
Q 3566 888 3137 398 
Q 2709 -91 1959 -91 
Q 1206 -91 779 398 
Q 353 888 353 1747 
Q 353 2609 779 3096 
Q 1206 3584 1959 3584 
z
" transform="scale(0.015625)"/>
      <path id="DejaVuSans-75" d="M 544 1381 
L 544 3500 
L 1119 3500 
L 1119 1403 
Q 1119 906 1312 657 
Q 1506 409 1894 409 
Q 2359 409 2629 706 
Q 2900 1003 2900 1516 
L 2900 3500 
L 3475 3500 
L 3475 0 
L 2900 0 
L 2900 538 
Q 2691 219 2414 64 
Q 2138 -91 1772 -91 
Q 1169 -91 856 284 
Q 544 659 544 1381 
z
M 1991 3584 
L 1991 3584 
z
" transform="scale(0.015625)"/>
      <path id="DejaVuSans-72" d="M 2631 2963 
Q 2534 3019 2420 3045 
Q 2306 3072 2169 3072 
Q 1681 3072 1420 2755 
Q 1159 2438 1159 1844 
L 1159 0 
L 581 0 
L 581 3500 
L 1159 3500 
L 1159 2956 
Q 1341 3275 1631 3429 
Q 1922 3584 2338 3584 
Q 2397 3584 2469 3576 
Q 2541 3569 2628 3553 
L 2631 2963 
z
" transform="scale(0.015625)"/>
      <path id="DejaVuSans-63" d="M 3122 3366 
L 3122 2828 
Q 2878 2963 2633 3030 
Q 2388 3097 2138 3097 
Q 1578 3097 1268 2742 
Q 959 2388 959 1747 
Q 959 1106 1268 751 
Q 1578 397 2138 397 
Q 2388 397 2633 464 
Q 2878 531 3122 666 
L 3122 134 
Q 2881 22 2623 -34 
Q 2366 -91 2075 -91 
Q 1284 -91 818 406 
Q 353 903 353 1747 
Q 353 2603 823 3093 
Q 1294 3584 2113 3584 
Q 2378 3584 2631 3529 
Q 2884 3475 3122 3366 
z
" transform="scale(0.015625)"/>
      <path id="DejaVuSans-65" d="M 3597 1894 
L 3597 1613 
L 953 1613 
Q 991 1019 1311 708 
Q 1631 397 2203 397 
Q 2534 397 2845 478 
Q 3156 559 3463 722 
L 3463 178 
Q 3153 47 2828 -22 
Q 2503 -91 2169 -91 
Q 1331 -91 842 396 
Q 353 884 353 1716 
Q 353 2575 817 3079 
Q 1281 3584 2069 3584 
Q 2775 3584 3186 3129 
Q 3597 2675 3597 1894 
z
M 3022 2063 
Q 3016 2534 2758 2815 
Q 2500 3097 2075 3097 
Q 1594 3097 1305 2825 
Q 1016 2553 972 2059 
L 3022 2063 
z
" transform="scale(0.015625)"/>
      <path id="DejaVuSans-39" d="M 703 97 
L 703 672 
Q 941 559 1184 500 
Q 1428 441 1663 441 
Q 2288 441 2617 861 
Q 2947 1281 2994 2138 
Q 2813 1869 2534 1725 
Q 2256 1581 1919 1581 
Q 1219 1581 811 2004 
Q 403 2428 403 3163 
Q 403 3881 828 4315 
Q 1253 4750 1959 4750 
Q 2769 4750 3195 4129 
Q 3622 3509 3622 2328 
Q 3622 1225 3098 567 
Q 2575 -91 1691 -91 
Q 1453 -91 1209 -44 
Q 966 3 703 97 
z
M 1959 2075 
Q 2384 2075 2632 2365 
Q 2881 2656 2881 3163 
Q 2881 3666 2632 3958 
Q 2384 4250 1959 4250 
Q 1534 4250 1286 3958 
Q 1038 3666 1038 3163 
Q 1038 2656 1286 2365 
Q 1534 2075 1959 2075 
z
" transform="scale(0.015625)"/>
      <path id="DejaVuSans-2d" d="M 313 2009 
L 1997 2009 
L 1997 1497 
L 313 1497 
L 313 2009 
z
" transform="scale(0.015625)"/>
      <path id="DejaVuSans-69" d="M 603 3500 
L 1178 3500 
L 1178 0 
L 603 0 
L 603 3500 
z
M 603 4863 
L 1178 4863 
L 1178 4134 
L 603 4134 
L 603 4863 
z
" transform="scale(0.015625)"/>
      <path id="DejaVuSans-76" d="M 191 3500 
L 800 3500 
L 1894 563 
L 2988 3500 
L 3597 3500 
L 2284 0 
L 1503 0 
L 191 3500 
z
" transform="scale(0.015625)"/>
      <path id="DejaVuSans-34" d="M 2419 4116 
L 825 1625 
L 2419 1625 
L 2419 4116 
z
M 2253 4666 
L 3047 4666 
L 3047 1625 
L 3713 1625 
L 3713 1100 
L 3047 1100 
L 3047 0 
L 2419 0 
L 2419 1100 
L 313 1100 
L 313 1709 
L 2253 4666 
z
" transform="scale(0.015625)"/>
     </defs>
     <use xlink:href="#DejaVuSans-73"/>
     <use xlink:href="#DejaVuSans-6f" x="52.099609"/>
     <use xlink:href="#DejaVuSans-75" x="113.28125"/>
     <use xlink:href="#DejaVuSans-72" x="176.660156"/>
     <use xlink:href="#DejaVuSans-63" x="215.523438"/>
     <use xlink:href="#DejaVuSans-65" x="270.503906"/>
     <use xlink:href="#DejaVuSans-31" x="332.027344"/>
     <use xlink:href="#DejaVuSans-39" x="395.650391"/>
     <use xlink:href="#DejaVuSans-2d" x="459.273438"/>
     <use xlink:href="#DejaVuSans-72" x="495.357422"/>
     <use xlink:href="#DejaVuSans-65" x="534.220703"/>
     <use xlink:href="#DejaVuSans-63" x="595.744141"/>
     <use xlink:href="#DejaVuSans-65" x="650.724609"/>
     <use xlink:href="#DejaVuSans-69" x="712.248047"/>
     <use xlink:href="#DejaVuSans-76" x="740.03125"/>
     <use xlink:href="#DejaVuSans-65" x="799.210938"/>
     <use xlink:href="#DejaVuSans-72" x="860.734375"/>
     <use xlink:href="#DejaVuSans-34" x="901.847656"/>
    </g>
   </g>
  </g>
 </g>
 <defs>
  <clipPath id="p5df8c041f8">
   <rect x="180" y="69.12" width="1116" height="443.52"/>
  </clipPath>
 </defs>
</svg>
