<?xml version="1.0" encoding="utf-8" standalone="no"?>
<!DOCTYPE svg PUBLIC "-//W3C//DTD SVG 1.1//EN"
  "http://www.w3.org/Graphics/SVG/1.1/DTD/svg11.dtd">
<svg xmlns:xlink="http://www.w3.org/1999/xlink" width="1440pt" height="576pt" viewBox="0 0 1440 576" xmlns="http://www.w3.org/2000/svg" version="1.1">
 <metadata>
  <rdf:RDF xmlns:dc="http://purl.org/dc/elements/1.1/" xmlns:cc="http://creativecommons.org/ns#" xmlns:rdf="http://www.w3.org/1999/02/22-rdf-syntax-ns#">
   <cc:Work>
    <dc:type rdf:resource="http://purl.org/dc/dcmitype/StillImage"/>
    <dc:date>2024-05-22T04:49:54.873217</dc:date>
    <dc:format>image/svg+xml</dc:format>
    <dc:creator>
     <cc:Agent>
      <dc:title>Matplotlib v3.8.3, https://matplotlib.org/</dc:title>
     </cc:Agent>
    </dc:creator>
   </cc:Work>
  </rdf:RDF>
 </metadata>
 <defs>
  <style type="text/css">*{stroke-linejoin: round; stroke-linecap: butt}</style>
 </defs>
 <g id="figure_1">
  <g id="patch_1">
   <path d="M 0 576 
L 1440 576 
L 1440 0 
L 0 0 
z
" style="fill: #ffffff"/>
  </g>
  <g id="axes_1">
   <g id="patch_2">
    <path d="M 180 512.64 
L 1296 512.64 
L 1296 69.12 
L 180 69.12 
z
" style="fill: #ffffff"/>
   </g>
   <g id="matplotlib.axis_1">
    <g id="xtick_1">
     <g id="line2d_1">
      <defs>
       <path id="m77a17814fe" d="M 0 0 
L 0 3.5 
" style="stroke: #000000; stroke-width: 0.8"/>
      </defs>
      <g>
       <use xlink:href="#m77a17814fe" x="229.734567" y="512.64" style="stroke: #000000; stroke-width: 0.8"/>
      </g>
     </g>
     <g id="text_1">
      <!-- 0 -->
      <g transform="translate(226.553317 527.238438) scale(0.1 -0.1)">
       <defs>
        <path id="DejaVuSans-30" d="M 2034 4250 
Q 1547 4250 1301 3770 
Q 1056 3291 1056 2328 
Q 1056 1369 1301 889 
Q 1547 409 2034 409 
Q 2525 409 2770 889 
Q 3016 1369 3016 2328 
Q 3016 3291 2770 3770 
Q 2525 4250 2034 4250 
z
M 2034 4750 
Q 2819 4750 3233 4129 
Q 3647 3509 3647 2328 
Q 3647 1150 3233 529 
Q 2819 -91 2034 -91 
Q 1250 -91 836 529 
Q 422 1150 422 2328 
Q 422 3509 836 4129 
Q 1250 4750 2034 4750 
z
" transform="scale(0.015625)"/>
       </defs>
       <use xlink:href="#DejaVuSans-30"/>
      </g>
     </g>
    </g>
    <g id="xtick_2">
     <g id="line2d_2">
      <g>
       <use xlink:href="#m77a17814fe" x="433.04074" y="512.64" style="stroke: #000000; stroke-width: 0.8"/>
      </g>
     </g>
     <g id="text_2">
      <!-- 500 -->
      <g transform="translate(423.49699 527.238438) scale(0.1 -0.1)">
       <defs>
        <path id="DejaVuSans-35" d="M 691 4666 
L 3169 4666 
L 3169 4134 
L 1269 4134 
L 1269 2991 
Q 1406 3038 1543 3061 
Q 1681 3084 1819 3084 
Q 2600 3084 3056 2656 
Q 3513 2228 3513 1497 
Q 3513 744 3044 326 
Q 2575 -91 1722 -91 
Q 1428 -91 1123 -41 
Q 819 9 494 109 
L 494 744 
Q 775 591 1075 516 
Q 1375 441 1709 441 
Q 2250 441 2565 725 
Q 2881 1009 2881 1497 
Q 2881 1984 2565 2268 
Q 2250 2553 1709 2553 
Q 1456 2553 1204 2497 
Q 953 2441 691 2322 
L 691 4666 
z
" transform="scale(0.015625)"/>
       </defs>
       <use xlink:href="#DejaVuSans-35"/>
       <use xlink:href="#DejaVuSans-30" x="63.623047"/>
       <use xlink:href="#DejaVuSans-30" x="127.246094"/>
      </g>
     </g>
    </g>
    <g id="xtick_3">
     <g id="line2d_3">
      <g>
       <use xlink:href="#m77a17814fe" x="636.346913" y="512.64" style="stroke: #000000; stroke-width: 0.8"/>
      </g>
     </g>
     <g id="text_3">
      <!-- 1000 -->
      <g transform="translate(623.621913 527.238438) scale(0.1 -0.1)">
       <defs>
        <path id="DejaVuSans-31" d="M 794 531 
L 1825 531 
L 1825 4091 
L 703 3866 
L 703 4441 
L 1819 4666 
L 2450 4666 
L 2450 531 
L 3481 531 
L 3481 0 
L 794 0 
L 794 531 
z
" transform="scale(0.015625)"/>
       </defs>
       <use xlink:href="#DejaVuSans-31"/>
       <use xlink:href="#DejaVuSans-30" x="63.623047"/>
       <use xlink:href="#DejaVuSans-30" x="127.246094"/>
       <use xlink:href="#DejaVuSans-30" x="190.869141"/>
      </g>
     </g>
    </g>
    <g id="xtick_4">
     <g id="line2d_4">
      <g>
       <use xlink:href="#m77a17814fe" x="839.653087" y="512.64" style="stroke: #000000; stroke-width: 0.8"/>
      </g>
     </g>
     <g id="text_4">
      <!-- 1500 -->
      <g transform="translate(826.928087 527.238438) scale(0.1 -0.1)">
       <use xlink:href="#DejaVuSans-31"/>
       <use xlink:href="#DejaVuSans-35" x="63.623047"/>
       <use xlink:href="#DejaVuSans-30" x="127.246094"/>
       <use xlink:href="#DejaVuSans-30" x="190.869141"/>
      </g>
     </g>
    </g>
    <g id="xtick_5">
     <g id="line2d_5">
      <g>
       <use xlink:href="#m77a17814fe" x="1042.95926" y="512.64" style="stroke: #000000; stroke-width: 0.8"/>
      </g>
     </g>
     <g id="text_5">
      <!-- 2000 -->
      <g transform="translate(1030.23426 527.238438) scale(0.1 -0.1)">
       <defs>
        <path id="DejaVuSans-32" d="M 1228 531 
L 3431 531 
L 3431 0 
L 469 0 
L 469 531 
Q 828 903 1448 1529 
Q 2069 2156 2228 2338 
Q 2531 2678 2651 2914 
Q 2772 3150 2772 3378 
Q 2772 3750 2511 3984 
Q 2250 4219 1831 4219 
Q 1534 4219 1204 4116 
Q 875 4013 500 3803 
L 500 4441 
Q 881 4594 1212 4672 
Q 1544 4750 1819 4750 
Q 2544 4750 2975 4387 
Q 3406 4025 3406 3419 
Q 3406 3131 3298 2873 
Q 3191 2616 2906 2266 
Q 2828 2175 2409 1742 
Q 1991 1309 1228 531 
z
" transform="scale(0.015625)"/>
       </defs>
       <use xlink:href="#DejaVuSans-32"/>
       <use xlink:href="#DejaVuSans-30" x="63.623047"/>
       <use xlink:href="#DejaVuSans-30" x="127.246094"/>
       <use xlink:href="#DejaVuSans-30" x="190.869141"/>
      </g>
     </g>
    </g>
    <g id="xtick_6">
     <g id="line2d_6">
      <g>
       <use xlink:href="#m77a17814fe" x="1246.265433" y="512.64" style="stroke: #000000; stroke-width: 0.8"/>
      </g>
     </g>
     <g id="text_6">
      <!-- 2500 -->
      <g transform="translate(1233.540433 527.238438) scale(0.1 -0.1)">
       <use xlink:href="#DejaVuSans-32"/>
       <use xlink:href="#DejaVuSans-35" x="63.623047"/>
       <use xlink:href="#DejaVuSans-30" x="127.246094"/>
       <use xlink:href="#DejaVuSans-30" x="190.869141"/>
      </g>
     </g>
    </g>
   </g>
   <g id="matplotlib.axis_2">
    <g id="ytick_1">
     <g id="line2d_7">
      <defs>
       <path id="m83552ea69d" d="M 0 0 
L -3.5 0 
" style="stroke: #000000; stroke-width: 0.8"/>
      </defs>
      <g>
       <use xlink:href="#m83552ea69d" x="180" y="457.346216" style="stroke: #000000; stroke-width: 0.8"/>
      </g>
     </g>
     <g id="text_7">
      <!-- −4 -->
      <g transform="translate(158.257812 461.145435) scale(0.1 -0.1)">
       <defs>
        <path id="DejaVuSans-2212" d="M 678 2272 
L 4684 2272 
L 4684 1741 
L 678 1741 
L 678 2272 
z
" transform="scale(0.015625)"/>
        <path id="DejaVuSans-34" d="M 2419 4116 
L 825 1625 
L 2419 1625 
L 2419 4116 
z
M 2253 4666 
L 3047 4666 
L 3047 1625 
L 3713 1625 
L 3713 1100 
L 3047 1100 
L 3047 0 
L 2419 0 
L 2419 1100 
L 313 1100 
L 313 1709 
L 2253 4666 
z
" transform="scale(0.015625)"/>
       </defs>
       <use xlink:href="#DejaVuSans-2212"/>
       <use xlink:href="#DejaVuSans-34" x="83.789062"/>
      </g>
     </g>
    </g>
    <g id="ytick_2">
     <g id="line2d_8">
      <g>
       <use xlink:href="#m83552ea69d" x="180" y="380.456053" style="stroke: #000000; stroke-width: 0.8"/>
      </g>
     </g>
     <g id="text_8">
      <!-- −2 -->
      <g transform="translate(158.257812 384.255271) scale(0.1 -0.1)">
       <use xlink:href="#DejaVuSans-2212"/>
       <use xlink:href="#DejaVuSans-32" x="83.789062"/>
      </g>
     </g>
    </g>
    <g id="ytick_3">
     <g id="line2d_9">
      <g>
       <use xlink:href="#m83552ea69d" x="180" y="303.565889" style="stroke: #000000; stroke-width: 0.8"/>
      </g>
     </g>
     <g id="text_9">
      <!-- 0 -->
      <g transform="translate(166.6375 307.365108) scale(0.1 -0.1)">
       <use xlink:href="#DejaVuSans-30"/>
      </g>
     </g>
    </g>
    <g id="ytick_4">
     <g id="line2d_10">
      <g>
       <use xlink:href="#m83552ea69d" x="180" y="226.675725" style="stroke: #000000; stroke-width: 0.8"/>
      </g>
     </g>
     <g id="text_10">
      <!-- 2 -->
      <g transform="translate(166.6375 230.474944) scale(0.1 -0.1)">
       <use xlink:href="#DejaVuSans-32"/>
      </g>
     </g>
    </g>
    <g id="ytick_5">
     <g id="line2d_11">
      <g>
       <use xlink:href="#m83552ea69d" x="180" y="149.785562" style="stroke: #000000; stroke-width: 0.8"/>
      </g>
     </g>
     <g id="text_11">
      <!-- 4 -->
      <g transform="translate(166.6375 153.584781) scale(0.1 -0.1)">
       <use xlink:href="#DejaVuSans-34"/>
      </g>
     </g>
    </g>
    <g id="ytick_6">
     <g id="line2d_12">
      <g>
       <use xlink:href="#m83552ea69d" x="180" y="72.895398" style="stroke: #000000; stroke-width: 0.8"/>
      </g>
     </g>
     <g id="text_12">
      <!-- 6 -->
      <g transform="translate(166.6375 76.694617) scale(0.1 -0.1)">
       <defs>
        <path id="DejaVuSans-36" d="M 2113 2584 
Q 1688 2584 1439 2293 
Q 1191 2003 1191 1497 
Q 1191 994 1439 701 
Q 1688 409 2113 409 
Q 2538 409 2786 701 
Q 3034 994 3034 1497 
Q 3034 2003 2786 2293 
Q 2538 2584 2113 2584 
z
M 3366 4563 
L 3366 3988 
Q 3128 4100 2886 4159 
Q 2644 4219 2406 4219 
Q 1781 4219 1451 3797 
Q 1122 3375 1075 2522 
Q 1259 2794 1537 2939 
Q 1816 3084 2150 3084 
Q 2853 3084 3261 2657 
Q 3669 2231 3669 1497 
Q 3669 778 3244 343 
Q 2819 -91 2113 -91 
Q 1303 -91 875 529 
Q 447 1150 447 2328 
Q 447 3434 972 4092 
Q 1497 4750 2381 4750 
Q 2619 4750 2861 4703 
Q 3103 4656 3366 4563 
z
" transform="scale(0.015625)"/>
       </defs>
       <use xlink:href="#DejaVuSans-36"/>
      </g>
     </g>
    </g>
   </g>
   <g id="line2d_13">
    <path d="M 230.727273 268.288795 
L 231.719979 266.287039 
L 232.712685 274.508349 
L 233.70539 271.479066 
L 234.698096 263.447473 
L 235.690802 268.337346 
L 236.683508 273.90863 
L 237.676214 262.525511 
L 238.66892 261.491844 
L 239.661626 275.388593 
L 240.654332 266.167112 
L 241.647038 252.99352 
L 242.639744 259.280495 
L 243.63245 275.990767 
L 244.625156 255.203566 
L 245.617862 244.933685 
L 246.610568 247.415414 
L 247.603273 246.29499 
L 248.595979 242.721915 
L 249.588685 242.493317 
L 250.581391 226.951862 
L 251.574097 214.233213 
L 252.566803 219.596567 
L 253.559509 257.550474 
L 254.552215 224.038461 
L 255.544921 203.483411 
L 256.537627 204.631495 
L 257.530333 207.127174 
L 258.523039 194.282679 
L 259.515745 193.253115 
L 260.50845 214.513703 
L 261.501156 203.384799 
L 262.493862 183.320149 
L 263.486568 187.368757 
L 264.479274 221.183996 
L 265.47198 195.67126 
L 266.464686 177.846763 
L 267.457392 179.443065 
L 268.450098 188.783118 
L 269.442804 199.607075 
L 270.43551 193.036136 
L 271.428216 165.7826 
L 272.420922 153.967475 
L 273.413627 158.891438 
L 274.406333 185.691576 
L 275.399039 240.342402 
L 276.391745 179.155304 
L 277.384451 138.814355 
L 278.377157 113.029317 
L 279.369863 98.028303 
L 280.362569 90.725927 
L 281.355275 89.28 
L 282.347981 93.139007 
L 283.340687 102.466018 
L 284.333393 115.957005 
L 285.326099 124.78277 
L 286.318804 123.8769 
L 287.31151 121.928437 
L 288.304216 122.134728 
L 289.296922 127.202879 
L 290.289628 140.330438 
L 291.282334 149.492236 
L 292.27504 140.660817 
L 293.267746 139.644283 
L 294.260452 149.473363 
L 295.253158 155.815275 
L 296.245864 154.508292 
L 297.23857 160.353387 
L 298.231276 165.309218 
L 299.223981 161.765333 
L 300.216687 165.449264 
L 301.209393 175.510135 
L 302.202099 176.034141 
L 303.194805 177.467748 
L 304.187511 186.820199 
L 305.180217 188.116057 
L 306.172923 188.298522 
L 307.165629 202.335299 
L 308.158335 213.112175 
L 309.151041 206.683267 
L 310.143747 214.771296 
L 311.136453 230.292854 
L 312.129159 223.584091 
L 313.121864 228.473645 
L 314.11457 258.579528 
L 315.107276 252.358193 
L 316.099982 239.84301 
L 317.092688 254.563778 
L 318.085394 280.50137 
L 319.0781 252.083007 
L 320.070806 252.197086 
L 321.063512 290.021573 
L 322.056218 267.61155 
L 323.048924 253.244737 
L 324.04163 273.853129 
L 325.034336 274.91351 
L 326.027041 251.784803 
L 327.019747 261.564519 
L 328.012453 287.971961 
L 329.005159 255.917441 
L 329.997865 254.825916 
L 330.990571 279.897296 
L 332.975983 254.755356 
L 333.968689 269.293004 
L 334.961395 316.467272 
L 335.954101 275.256922 
L 336.946807 272.453098 
L 337.939513 313.808185 
L 338.932218 298.570947 
L 339.924924 279.897373 
L 341.910336 320.092823 
L 342.903042 283.934771 
L 343.895748 305.419953 
L 344.888454 310.106377 
L 345.88116 271.775209 
L 346.873866 275.946938 
L 347.866572 302.058624 
L 348.859278 270.423887 
L 349.851984 266.984769 
L 350.84469 287.153056 
L 351.837395 281.623816 
L 352.830101 267.137057 
L 353.822807 283.387969 
L 354.815513 326.1358 
L 355.808219 276.851006 
L 356.800925 275.86332 
L 357.793631 263.257853 
L 358.786337 240.283173 
L 359.779043 232.488621 
L 360.771749 233.837215 
L 361.764455 234.519277 
L 362.757161 230.047212 
L 363.749867 232.599386 
L 364.742572 243.58497 
L 365.735278 241.223671 
L 366.727984 230.871007 
L 367.72069 229.200713 
L 368.713396 228.236665 
L 369.706102 224.436029 
L 370.698808 225.247134 
L 371.691514 239.017595 
L 372.68422 272.615137 
L 373.676926 286.836381 
L 374.669632 245.971904 
L 375.662338 221.622028 
L 376.655044 208.096457 
L 377.64775 203.185825 
L 378.640455 202.766735 
L 381.618573 205.096008 
L 382.611279 202.131557 
L 383.603985 196.701185 
L 385.589397 181.230767 
L 386.582103 175.027711 
L 387.574809 171.798578 
L 388.567515 171.404551 
L 389.560221 171.714722 
L 390.552927 172.568306 
L 391.545632 175.511605 
L 393.531044 186.887107 
L 394.52375 191.198308 
L 395.516456 196.630217 
L 396.509162 203.553876 
L 397.501868 207.021882 
L 398.494574 208.628616 
L 399.48728 214.211794 
L 400.479986 220.995443 
L 401.472692 223.002111 
L 402.465398 226.76137 
L 403.458104 235.436337 
L 404.450809 240.775701 
L 405.443515 239.673157 
L 406.436221 246.012207 
L 407.428927 256.064477 
L 408.421633 252.428191 
L 409.414339 252.856008 
L 410.407045 262.70432 
L 411.399751 260.086952 
L 412.392457 253.548661 
L 413.385163 261.234474 
L 414.377869 276.493468 
L 415.370575 274.611709 
L 416.363281 280.252618 
L 417.355986 321.760232 
L 418.348692 301.076988 
L 419.341398 288.180668 
L 420.334104 296.366166 
L 421.32681 280.002582 
L 422.319516 267.84613 
L 423.312222 275.309004 
L 424.304928 287.326525 
L 425.297634 274.782034 
L 426.29034 274.040831 
L 427.283046 287.136912 
L 428.275752 279.497215 
L 429.268458 270.56441 
L 430.261163 275.34969 
L 431.253869 291.738159 
L 432.246575 279.289068 
L 433.239281 281.303733 
L 434.231987 302.321441 
L 435.224693 294.795319 
L 436.217399 283.642143 
L 437.210105 294.193815 
L 438.202811 301.084195 
L 439.195517 286.036806 
L 440.188223 286.916185 
L 441.180929 309.974188 
L 442.173635 294.364032 
L 443.166341 283.69942 
L 444.159046 292.817454 
L 445.151752 303.04426 
L 446.144458 289.538904 
L 447.137164 292.881889 
L 448.12987 331.608691 
L 449.122576 309.494817 
L 450.115282 292.977492 
L 451.107988 300.150782 
L 452.100694 295.397168 
L 453.0934 281.682898 
L 454.086106 283.060813 
L 455.078812 304.359593 
L 456.071518 355.339167 
L 457.064223 354.298405 
L 458.056929 371.977918 
L 459.049635 304.259442 
L 460.042341 286.856166 
L 461.035047 290.332909 
L 462.027753 312.294943 
L 463.020459 307.80383 
L 464.013165 310.505079 
L 465.005871 335.300526 
L 465.998577 288.799164 
L 466.991283 266.520823 
L 467.983989 260.274077 
L 468.976695 258.335825 
L 469.9694 251.678244 
L 470.962106 246.592535 
L 471.954812 248.213558 
L 473.940224 261.447473 
L 474.93293 263.471811 
L 475.925636 270.54667 
L 476.918342 286.468267 
L 477.911048 305.232776 
L 478.903754 307.954637 
L 480.889166 267.905816 
L 481.881872 258.069092 
L 482.874577 255.303838 
L 483.867283 253.331337 
L 484.859989 247.266731 
L 485.852695 241.910296 
L 486.845401 240.688148 
L 487.838107 242.62524 
L 488.830813 242.274183 
L 490.816225 234.185591 
L 491.808931 232.784619 
L 492.801637 232.432492 
L 493.794343 230.514996 
L 494.787049 227.113801 
L 495.779754 226.160414 
L 496.77246 228.717977 
L 497.765166 230.783294 
L 498.757872 230.027197 
L 499.750578 230.686127 
L 500.743284 234.697188 
L 501.73599 237.068908 
L 502.728696 235.684698 
L 503.721402 236.650137 
L 504.714108 241.525909 
L 505.706814 244.136706 
L 506.69952 243.353754 
L 507.692226 246.959368 
L 508.684932 254.621452 
L 509.677637 256.581575 
L 510.670343 256.572887 
L 511.663049 264.996201 
L 512.655755 277.012928 
L 513.648461 276.462531 
L 514.641167 278.737176 
L 515.633873 291.665136 
L 516.626579 283.036607 
L 517.619285 272.576902 
L 518.611991 275.504469 
L 519.604697 280.402582 
L 520.597403 273.654007 
L 521.590109 273.465224 
L 522.582814 282.597749 
L 523.57552 293.607837 
L 524.568226 286.263665 
L 525.560932 288.611005 
L 526.553638 305.408513 
L 527.546344 319.765439 
L 528.53905 309.161673 
L 529.531756 311.721602 
L 530.524462 327.445679 
L 531.517168 382.691998 
L 532.509874 346.998466 
L 533.50258 322.230342 
L 534.495286 334.458325 
L 535.487991 386.166067 
L 536.480697 327.154891 
L 537.473403 315.891304 
L 538.466109 329.918803 
L 539.458815 365.315984 
L 540.451521 333.394994 
L 541.444227 333.477068 
L 542.436933 377.28304 
L 543.429639 331.423087 
L 544.422345 314.8427 
L 545.415051 329.663811 
L 546.407757 320.614272 
L 547.400463 306.801785 
L 548.393168 306.313043 
L 549.385874 336.467103 
L 550.37858 324.01061 
L 551.371286 313.776786 
L 552.363992 324.311009 
L 553.356698 311.981088 
L 554.349404 294.327526 
L 555.34211 290.37899 
L 556.334816 301.650221 
L 557.327522 303.112337 
L 558.320228 298.331717 
L 559.312934 310.365815 
L 560.30564 345.262266 
L 561.298345 318.502315 
L 562.291051 313.45625 
L 563.283757 324.317405 
L 564.276463 313.404241 
L 565.269169 300.934581 
L 566.261875 304.903069 
L 567.254581 332.179652 
L 568.247287 367.101168 
L 569.239993 362.757171 
L 570.232699 324.319617 
L 571.225405 297.075109 
L 572.218111 285.830535 
L 573.210817 285.788658 
L 574.203523 280.0837 
L 575.196228 272.269683 
L 576.188934 270.188555 
L 577.18164 276.091 
L 578.174346 285.973689 
L 579.167052 289.625128 
L 581.152464 293.751269 
L 582.14517 300.678161 
L 583.137876 308.590041 
L 584.130582 305.743976 
L 585.123288 294.559399 
L 586.115994 285.800909 
L 587.1087 285.693398 
L 588.101405 289.879357 
L 589.094111 287.652868 
L 590.086817 276.582326 
L 591.079523 270.969912 
L 592.072229 269.696207 
L 593.064935 267.523535 
L 595.050347 253.1535 
L 596.043053 249.750052 
L 597.035759 249.696419 
L 598.028465 247.639463 
L 599.021171 244.024518 
L 600.013877 242.070296 
L 601.006582 243.75324 
L 601.999288 246.484562 
L 602.991994 246.524424 
L 603.9847 246.093262 
L 604.977406 249.22338 
L 605.970112 254.245893 
L 606.962818 255.126645 
L 607.955524 253.094814 
L 608.94823 254.779411 
L 609.940936 258.17572 
L 610.933642 256.936983 
L 611.926348 254.146184 
L 612.919054 256.602701 
L 613.911759 261.245309 
L 614.904465 260.905842 
L 615.897171 260.207961 
L 616.889877 264.841807 
L 617.882583 271.087802 
L 618.875289 270.014896 
L 619.867995 271.826323 
L 621.853407 292.656198 
L 622.846113 292.219478 
L 623.838819 299.240344 
L 624.831525 315.388262 
L 625.824231 300.45621 
L 626.816936 292.000212 
L 627.809642 297.848595 
L 628.802348 296.624563 
L 629.795054 286.877182 
L 630.78776 288.491018 
L 631.780466 296.80425 
L 632.773172 291.417009 
L 633.765878 284.905983 
L 634.758584 288.934996 
L 635.75129 296.000362 
L 636.743996 290.233352 
L 637.736702 289.708056 
L 638.729408 301.525854 
L 639.722114 317.695317 
L 640.714819 314.246058 
L 641.707525 320.949538 
L 642.700231 370.922465 
L 643.692937 347.911564 
L 644.685643 333.331618 
L 645.678349 356.796492 
L 646.671055 334.74398 
L 647.663761 316.4903 
L 648.656467 322.301103 
L 649.649173 347.951167 
L 650.641879 332.968885 
L 651.634585 325.000868 
L 653.619996 364.571653 
L 654.612702 329.522179 
L 655.605408 325.265783 
L 656.598114 345.330652 
L 657.59082 352.008298 
L 658.583526 329.806405 
L 659.576232 325.042114 
L 660.568938 337.329333 
L 661.561644 374.941605 
L 662.55435 372.466623 
L 663.547056 348.441967 
L 664.539762 353.411757 
L 665.532468 383.637855 
L 666.525173 345.444593 
L 667.517879 332.325195 
L 668.510585 339.52622 
L 669.503291 342.39617 
L 670.495997 319.850134 
L 671.488703 310.275604 
L 672.481409 314.324027 
L 673.474115 328.927565 
L 674.466821 332.581666 
L 675.459527 318.485216 
L 676.452233 308.748326 
L 677.444939 307.042173 
L 678.437645 311.604876 
L 679.43035 306.333448 
L 680.423056 292.925091 
L 681.415762 286.461363 
L 682.408468 287.968252 
L 683.401174 289.084377 
L 684.39388 282.877502 
L 685.386586 278.832165 
L 686.379292 282.79542 
L 687.371998 291.31875 
L 688.364704 294.096112 
L 689.35741 294.778876 
L 690.350116 305.2542 
L 691.342822 334.907352 
L 692.335527 395.477564 
L 693.328233 413.867158 
L 694.320939 349.130644 
L 695.313645 316.592823 
L 696.306351 307.647607 
L 697.299057 308.878183 
L 698.291763 299.360312 
L 699.284469 285.054253 
L 700.277175 278.446414 
L 701.269881 277.220394 
L 702.262587 273.435688 
L 703.255293 265.84694 
L 704.247999 260.919178 
L 705.240705 260.170811 
L 706.23341 260.295397 
L 707.226116 257.550891 
L 708.218822 254.185411 
L 709.211528 253.975511 
L 710.204234 256.58292 
L 711.19694 257.661742 
L 712.189646 256.215608 
L 713.182352 256.835379 
L 714.175058 261.267461 
L 715.167764 264.602454 
L 716.16047 263.429083 
L 717.153176 264.037163 
L 718.145882 269.186139 
L 719.138587 272.277798 
L 720.131293 269.999283 
L 721.123999 271.073413 
L 722.116705 277.321856 
L 723.109411 279.523576 
L 724.102117 276.737919 
L 725.094823 279.623205 
L 726.087529 288.648228 
L 727.080235 291.749202 
L 728.072941 290.98673 
L 729.065647 300.453762 
L 730.058353 319.751631 
L 731.051059 315.514171 
L 732.043764 312.448557 
L 733.03647 325.073699 
L 734.029176 317.636746 
L 735.021882 304.781706 
L 736.014588 307.96208 
L 737.007294 319.758685 
L 738 312.933886 
L 738.992706 307.784777 
L 740.978118 328.940997 
L 741.970824 315.31904 
L 742.96353 312.677522 
L 743.956236 326.762046 
L 744.948941 337.140086 
L 745.941647 324.48702 
L 746.934353 325.480512 
L 747.927059 348.188375 
L 748.919765 377.192555 
L 749.912471 346.123191 
L 750.905177 341.9341 
L 751.897883 357.067879 
L 752.890589 423.66208 
L 753.883295 363.011409 
L 754.876001 342.842124 
L 755.868707 345.966453 
L 756.861413 377.535521 
L 757.854118 394.036228 
L 758.846824 360.097142 
L 759.83953 363.514576 
L 760.832236 375.835299 
L 761.824942 364.625792 
L 762.817648 370.08571 
L 763.810354 403.56097 
L 764.80306 368.091732 
L 765.795766 362.988288 
L 766.788472 400.096604 
L 767.781178 363.491171 
L 768.773884 345.097901 
L 769.76659 357.329935 
L 770.759295 386.957243 
L 771.752001 343.054359 
L 772.744707 336.317957 
L 773.737413 359.47967 
L 774.730119 359.018841 
L 775.722825 330.511181 
L 776.715531 329.247764 
L 777.708237 345.42779 
L 778.700943 337.004854 
L 779.693649 321.881031 
L 780.686355 322.359289 
L 782.671767 350.636014 
L 784.657178 319.68048 
L 785.649884 314.648963 
L 786.64259 317.747621 
L 787.635296 315.924901 
L 788.628002 302.811075 
L 789.620708 295.722497 
L 790.613414 298.445347 
L 791.60612 303.691307 
L 792.598826 299.421756 
L 793.591532 296.438 
L 794.584238 304.024881 
L 795.576944 319.422762 
L 796.56965 320.032446 
L 797.562355 320.127454 
L 799.547767 367.074368 
L 800.540473 335.252178 
L 801.533179 340.228944 
L 802.525885 338.319051 
L 803.518591 312.879673 
L 804.511297 304.008 
L 805.504003 305.488162 
L 806.496709 301.744688 
L 807.489415 291.325231 
L 808.482121 287.136945 
L 810.467532 292.324362 
L 812.452944 284.546987 
L 813.44565 286.304436 
L 814.438356 291.188557 
L 815.431062 290.775349 
L 816.423768 285.581693 
L 817.416474 284.475687 
L 818.40918 288.87349 
L 819.401886 290.756782 
L 820.394592 285.534451 
L 821.387298 283.371725 
L 822.380004 287.730497 
L 823.372709 290.196009 
L 824.365415 285.732863 
L 825.358121 284.852669 
L 826.350827 291.078624 
L 827.343533 295.217028 
L 828.336239 291.270684 
L 829.328945 292.314851 
L 830.321651 301.504808 
L 831.314357 305.459271 
L 832.307063 301.12491 
L 833.299769 305.911847 
L 834.292475 323.389973 
L 835.285181 328.914789 
L 836.277886 324.578016 
L 837.270592 342.056847 
L 838.263298 350.836008 
L 839.256004 322.942404 
L 840.24871 319.577534 
L 841.241416 327.662776 
L 842.234122 319.362378 
L 843.226828 309.522516 
L 844.219534 313.159944 
L 845.21224 326.222795 
L 846.204946 322.596239 
L 847.197652 314.744268 
L 848.190358 320.36985 
L 849.183064 335.886693 
L 850.175769 329.715232 
L 851.168475 319.774027 
L 852.161181 323.865913 
L 853.153887 340.853577 
L 854.146593 341.38248 
L 855.139299 328.127962 
L 856.132005 329.856383 
L 857.124711 350.733186 
L 858.117417 362.288644 
L 859.110123 340.108543 
L 860.102829 341.527429 
L 861.095535 373.682332 
L 862.088241 371.443159 
L 863.080946 348.408621 
L 864.073652 358.969923 
L 865.066358 431.184308 
L 866.059064 364.424313 
L 867.05177 363.316227 
L 868.044476 419.87529 
L 869.037182 351.203206 
L 870.029888 335.760976 
L 871.022594 345.662192 
L 872.0153 366.968966 
L 873.008006 341.87201 
L 874.000712 337.296239 
L 874.993418 362.91385 
L 875.986123 362.98509 
L 876.978829 336.346083 
L 877.971535 340.09587 
L 878.964241 356.923909 
L 879.956947 334.212588 
L 880.949653 324.4786 
L 881.942359 334.512394 
L 882.935065 349.187874 
L 883.927771 331.397365 
L 884.920477 327.31888 
L 885.913183 343.532955 
L 886.905889 352.677444 
L 887.898595 334.037828 
L 888.8913 333.355668 
L 889.884006 353.025521 
L 890.876712 390.595243 
L 891.869418 366.247557 
L 892.862124 347.634396 
L 893.85483 337.604717 
L 894.847536 339.356832 
L 895.840242 351.220915 
L 897.825654 323.91363 
L 898.81836 327.655573 
L 899.811066 349.515667 
L 900.803772 348.197179 
L 901.796477 336.406862 
L 902.789183 350.219195 
L 903.781889 389.13193 
L 904.774595 346.703499 
L 905.767301 345.078629 
L 906.760007 377.590707 
L 907.752713 345.288382 
L 908.745419 328.063858 
L 909.738125 331.573451 
L 910.730831 329.801993 
L 911.723537 312.242489 
L 912.716243 304.685798 
L 913.708949 307.616064 
L 914.701655 311.269718 
L 915.69436 305.567176 
L 916.687066 301.873654 
L 917.679772 306.809501 
L 918.672478 318.229198 
L 919.665184 322.234673 
L 920.65789 316.366211 
L 921.650596 315.525347 
L 922.643302 324.363934 
L 923.636008 338.550576 
L 925.62142 322.812083 
L 926.614126 329.5745 
L 927.606832 343.419484 
L 928.599537 326.676802 
L 929.592243 316.741466 
L 931.577655 325.850889 
L 932.570361 314.081936 
L 933.563067 308.856944 
L 935.548479 323.234099 
L 936.541185 315.915017 
L 937.533891 313.561473 
L 938.526597 324.574721 
L 939.519303 342.774911 
L 940.512009 337.975555 
L 941.504714 337.069152 
L 942.49742 353.003343 
L 943.490126 378.844518 
L 944.482832 398.425584 
L 945.475538 388.361405 
L 946.468244 345.017702 
L 947.46095 331.608113 
L 948.453656 336.549476 
L 949.446362 349.551952 
L 950.439068 334.998195 
L 951.431774 324.626585 
L 952.42448 329.821937 
L 953.417186 345.240536 
L 954.409891 335.824726 
L 955.402597 323.935359 
L 956.395303 326.228044 
L 957.388009 339.339854 
L 958.380715 336.483643 
L 959.373421 323.392501 
L 960.366127 322.230552 
L 961.358833 334.138608 
L 962.351539 343.474473 
L 963.344245 331.54107 
L 964.336951 329.210623 
L 965.329657 345.662136 
L 966.322363 377.430343 
L 967.315068 353.3675 
L 968.307774 351.989114 
L 969.30048 389.336739 
L 970.293186 383.27833 
L 971.285892 358.694214 
L 972.278598 374.606981 
L 973.271304 410.880824 
L 974.26401 362.081953 
L 975.256716 365.551468 
L 976.249422 418.328076 
L 977.242128 354.12337 
L 978.234834 340.454971 
L 979.22754 352.502347 
L 980.220246 373.306104 
L 981.212951 345.977256 
L 982.205657 342.592996 
L 983.198363 370.225135 
L 984.191069 365.376033 
L 985.183775 340.260994 
L 986.176481 343.909657 
L 987.169187 362.796358 
L 988.161893 341.357658 
L 989.154599 330.877982 
L 990.147305 340.467233 
L 991.140011 365.974525 
L 992.132717 350.485331 
L 993.125423 343.382404 
L 994.118128 359.237436 
L 995.110834 420.543628 
L 997.096246 379.337384 
L 998.088952 354.68023 
L 999.081658 344.618084 
L 1000.074364 352.499195 
L 1001.06707 351.16826 
L 1002.059776 328.968117 
L 1003.052482 321.609798 
L 1004.045188 328.883523 
L 1005.037894 340.599374 
L 1006.0306 332.558109 
L 1007.023305 328.372877 
L 1008.016011 341.008487 
L 1009.008717 379.806365 
L 1010.001423 376.201265 
L 1010.994129 362.495062 
L 1012.979541 366.237962 
L 1013.972247 388.045907 
L 1014.964953 371.606224 
L 1015.957659 337.423179 
L 1016.950365 327.566996 
L 1017.943071 331.50739 
L 1018.935777 332.484175 
L 1019.928482 318.968292 
L 1020.921188 311.803944 
L 1021.913894 315.011003 
L 1022.9066 324.084826 
L 1023.899306 323.240822 
L 1024.892012 315.688193 
L 1025.884718 314.014361 
L 1026.877424 320.371917 
L 1027.87013 328.822994 
L 1028.862836 323.444869 
L 1029.855542 315.392414 
L 1030.848248 316.931737 
L 1031.840954 329.141047 
L 1032.833659 333.040274 
L 1033.826365 323.830868 
L 1034.819071 326.102167 
L 1035.811777 344.878245 
L 1036.804483 343.224038 
L 1037.797189 328.133869 
L 1038.789895 331.119764 
L 1039.782601 342.175741 
L 1040.775307 328.489543 
L 1041.768013 318.279213 
L 1042.760719 322.204772 
L 1043.753425 332.853808 
L 1044.746131 327.538828 
L 1045.738837 320.534151 
L 1046.731542 326.171639 
L 1047.724248 344.912877 
L 1048.716954 352.151516 
L 1049.70966 340.77755 
L 1050.702366 341.776413 
L 1051.695072 359.791069 
L 1052.687778 409.175177 
L 1053.680484 372.998 
L 1054.67319 355.509368 
L 1055.665896 358.14398 
L 1057.651308 409.54261 
L 1058.644014 363.129651 
L 1059.636719 353.264121 
L 1060.629425 360.615888 
L 1061.622131 393.228691 
L 1062.614837 372.567267 
L 1063.607543 345.045449 
L 1064.600249 338.357938 
L 1065.592955 347.470585 
L 1066.585661 355.408322 
L 1067.578367 335.478493 
L 1068.571073 326.30064 
L 1069.563779 332.117889 
L 1070.556485 346.871327 
L 1072.541896 330.331021 
L 1073.534602 339.192107 
L 1074.527308 370.783417 
L 1075.520014 364.188257 
L 1076.51272 352.537969 
L 1077.505426 372.345714 
L 1078.498132 420.081159 
L 1079.490838 365.778982 
L 1080.483544 368.170779 
L 1081.47625 427.606058 
L 1082.468956 378.135496 
L 1083.461662 366.489774 
L 1084.454368 394.869532 
L 1085.447073 390.29547 
L 1086.439779 362.859274 
L 1087.432485 371.554922 
L 1088.425191 492.48 
L 1089.417897 368.277735 
L 1090.410603 359.810281 
L 1091.403309 391.415326 
L 1092.396015 381.682827 
L 1093.388721 350.018846 
L 1094.381427 350.94878 
L 1095.374133 377.060112 
L 1097.359545 340.349631 
L 1098.35225 342.044682 
L 1099.344956 362.85148 
L 1100.337662 366.014069 
L 1101.330368 344.13998 
L 1102.323074 337.601724 
L 1103.31578 343.497034 
L 1104.308486 356.501698 
L 1105.301192 343.655694 
L 1106.293898 326.46225 
L 1107.286604 322.120057 
L 1108.27931 328.542437 
L 1109.272016 332.30154 
L 1110.264722 321.55492 
L 1111.257428 317.099966 
L 1112.250133 324.697147 
L 1113.242839 339.342472 
L 1114.235545 334.88465 
L 1115.228251 329.591677 
L 1116.220957 339.887627 
L 1117.213663 369.984753 
L 1118.206369 364.285235 
L 1119.199075 351.196104 
L 1120.191781 356.716614 
L 1121.184487 372.479927 
L 1122.177193 400.080379 
L 1123.169899 385.145248 
L 1124.162605 346.59758 
L 1125.15531 332.309383 
L 1126.148016 332.300938 
L 1127.140722 339.581039 
L 1128.133428 331.4903 
L 1129.126134 318.859746 
L 1130.11884 316.31224 
L 1131.111546 323.297833 
L 1132.104252 328.087458 
L 1133.096958 319.182093 
L 1134.089664 313.825566 
L 1135.08237 318.710632 
L 1136.075076 328.201603 
L 1137.067782 323.000244 
L 1138.060487 315.548212 
L 1139.053193 318.979926 
L 1140.045899 330.862668 
L 1141.038605 329.285673 
L 1142.031311 320.956487 
L 1143.024017 324.958545 
L 1144.016723 339.76233 
L 1145.009429 332.888435 
L 1146.002135 321.549509 
L 1146.994841 324.258984 
L 1147.987547 332.94166 
L 1149.972959 316.140449 
L 1150.965664 319.503782 
L 1151.95837 332.105304 
L 1152.951076 333.561568 
L 1153.943782 326.763092 
L 1154.936488 332.160011 
L 1155.929194 357.209344 
L 1156.9219 377.00102 
L 1157.914606 356.453396 
L 1158.907312 364.196666 
L 1159.900018 446.373849 
L 1160.892724 371.855818 
L 1161.88543 358.075995 
L 1162.878136 375.924913 
L 1163.870841 421.603539 
L 1164.863547 363.112338 
L 1165.856253 358.179853 
L 1166.848959 389.6085 
L 1167.841665 377.569754 
L 1168.834371 347.337268 
L 1169.827077 346.118642 
L 1170.819783 365.486374 
L 1171.812489 355.946369 
L 1172.805195 336.64049 
L 1173.797901 337.006917 
L 1174.790607 354.866142 
L 1175.783313 353.504609 
L 1176.776019 336.697863 
L 1177.768724 338.024032 
L 1178.76143 359.188271 
L 1179.754136 362.491866 
L 1180.746842 344.520489 
L 1181.739548 347.669649 
L 1182.732254 380.062851 
L 1183.72496 394.567372 
L 1184.717666 366.284386 
L 1185.710372 376.50629 
L 1186.703078 401.218794 
L 1187.695784 373.42233 
L 1188.68849 373.647017 
L 1189.681196 428.460747 
L 1190.673901 381.691035 
L 1191.666607 362.96939 
L 1192.659313 373.207915 
L 1193.652019 436.101255 
L 1194.644725 378.589218 
L 1195.637431 369.629545 
L 1196.630137 394.341693 
L 1197.622843 394.432315 
L 1198.615549 367.875078 
L 1199.608255 373.830576 
L 1200.600961 478.384836 
L 1201.593667 371.18648 
L 1202.586373 354.178928 
L 1203.579078 363.705068 
L 1204.571784 399.450622 
L 1205.56449 357.331744 
L 1206.557196 341.831441 
L 1207.549902 346.803706 
L 1208.542608 362.480919 
L 1209.535314 343.63205 
L 1210.52802 328.836183 
L 1211.520726 329.081913 
L 1212.513432 339.490125 
L 1213.506138 335.698943 
L 1214.498844 323.320685 
L 1215.49155 321.884954 
L 1216.484255 332.719159 
L 1217.476961 341.278546 
L 1218.469667 330.817491 
L 1219.462373 328.309634 
L 1220.455079 341.57062 
L 1221.447785 361.07774 
L 1222.440491 344.722367 
L 1223.433197 339.573995 
L 1224.425903 355.255659 
L 1225.418609 395.364201 
L 1226.411315 369.022439 
L 1227.404021 365.152645 
L 1228.396727 377.799222 
L 1229.389432 365.254645 
L 1230.382138 359.206582 
L 1231.374844 370.976708 
L 1233.360256 328.522622 
L 1234.352962 323.751933 
L 1235.345668 330.712653 
L 1236.338374 333.619559 
L 1237.33108 322.380978 
L 1238.323786 318.303415 
L 1239.316492 326.442897 
L 1240.309198 336.051475 
L 1241.301904 325.910542 
L 1242.29461 320.125167 
L 1243.287315 326.911516 
L 1244.280021 335.534901 
L 1245.272727 324.88898 
L 1245.272727 324.88898 
" clip-path="url(#pd2d2c67827)" style="fill: none; stroke: #1f77b4; stroke-width: 1.5; stroke-linecap: square"/>
   </g>
   <g id="patch_3">
    <path d="M 180 512.64 
L 180 69.12 
" style="fill: none; stroke: #000000; stroke-width: 0.8; stroke-linejoin: miter; stroke-linecap: square"/>
   </g>
   <g id="patch_4">
    <path d="M 1296 512.64 
L 1296 69.12 
" style="fill: none; stroke: #000000; stroke-width: 0.8; stroke-linejoin: miter; stroke-linecap: square"/>
   </g>
   <g id="patch_5">
    <path d="M 180 512.64 
L 1296 512.64 
" style="fill: none; stroke: #000000; stroke-width: 0.8; stroke-linejoin: miter; stroke-linecap: square"/>
   </g>
   <g id="patch_6">
    <path d="M 180 69.12 
L 1296 69.12 
" style="fill: none; stroke: #000000; stroke-width: 0.8; stroke-linejoin: miter; stroke-linecap: square"/>
   </g>
   <g id="text_13">
    <!-- source9-receiver1 -->
    <g transform="translate(557.625 60.80125) scale(0.4 -0.4)">
     <defs>
      <path id="DejaVuSans-73" d="M 2834 3397 
L 2834 2853 
Q 2591 2978 2328 3040 
Q 2066 3103 1784 3103 
Q 1356 3103 1142 2972 
Q 928 2841 928 2578 
Q 928 2378 1081 2264 
Q 1234 2150 1697 2047 
L 1894 2003 
Q 2506 1872 2764 1633 
Q 3022 1394 3022 966 
Q 3022 478 2636 193 
Q 2250 -91 1575 -91 
Q 1294 -91 989 -36 
Q 684 19 347 128 
L 347 722 
Q 666 556 975 473 
Q 1284 391 1588 391 
Q 1994 391 2212 530 
Q 2431 669 2431 922 
Q 2431 1156 2273 1281 
Q 2116 1406 1581 1522 
L 1381 1569 
Q 847 1681 609 1914 
Q 372 2147 372 2553 
Q 372 3047 722 3315 
Q 1072 3584 1716 3584 
Q 2034 3584 2315 3537 
Q 2597 3491 2834 3397 
z
" transform="scale(0.015625)"/>
      <path id="DejaVuSans-6f" d="M 1959 3097 
Q 1497 3097 1228 2736 
Q 959 2375 959 1747 
Q 959 1119 1226 758 
Q 1494 397 1959 397 
Q 2419 397 2687 759 
Q 2956 1122 2956 1747 
Q 2956 2369 2687 2733 
Q 2419 3097 1959 3097 
z
M 1959 3584 
Q 2709 3584 3137 3096 
Q 3566 2609 3566 1747 
Q 3566 888 3137 398 
Q 2709 -91 1959 -91 
Q 1206 -91 779 398 
Q 353 888 353 1747 
Q 353 2609 779 3096 
Q 1206 3584 1959 3584 
z
" transform="scale(0.015625)"/>
      <path id="DejaVuSans-75" d="M 544 1381 
L 544 3500 
L 1119 3500 
L 1119 1403 
Q 1119 906 1312 657 
Q 1506 409 1894 409 
Q 2359 409 2629 706 
Q 2900 1003 2900 1516 
L 2900 3500 
L 3475 3500 
L 3475 0 
L 2900 0 
L 2900 538 
Q 2691 219 2414 64 
Q 2138 -91 1772 -91 
Q 1169 -91 856 284 
Q 544 659 544 1381 
z
M 1991 3584 
L 1991 3584 
z
" transform="scale(0.015625)"/>
      <path id="DejaVuSans-72" d="M 2631 2963 
Q 2534 3019 2420 3045 
Q 2306 3072 2169 3072 
Q 1681 3072 1420 2755 
Q 1159 2438 1159 1844 
L 1159 0 
L 581 0 
L 581 3500 
L 1159 3500 
L 1159 2956 
Q 1341 3275 1631 3429 
Q 1922 3584 2338 3584 
Q 2397 3584 2469 3576 
Q 2541 3569 2628 3553 
L 2631 2963 
z
" transform="scale(0.015625)"/>
      <path id="DejaVuSans-63" d="M 3122 3366 
L 3122 2828 
Q 2878 2963 2633 3030 
Q 2388 3097 2138 3097 
Q 1578 3097 1268 2742 
Q 959 2388 959 1747 
Q 959 1106 1268 751 
Q 1578 397 2138 397 
Q 2388 397 2633 464 
Q 2878 531 3122 666 
L 3122 134 
Q 2881 22 2623 -34 
Q 2366 -91 2075 -91 
Q 1284 -91 818 406 
Q 353 903 353 1747 
Q 353 2603 823 3093 
Q 1294 3584 2113 3584 
Q 2378 3584 2631 3529 
Q 2884 3475 3122 3366 
z
" transform="scale(0.015625)"/>
      <path id="DejaVuSans-65" d="M 3597 1894 
L 3597 1613 
L 953 1613 
Q 991 1019 1311 708 
Q 1631 397 2203 397 
Q 2534 397 2845 478 
Q 3156 559 3463 722 
L 3463 178 
Q 3153 47 2828 -22 
Q 2503 -91 2169 -91 
Q 1331 -91 842 396 
Q 353 884 353 1716 
Q 353 2575 817 3079 
Q 1281 3584 2069 3584 
Q 2775 3584 3186 3129 
Q 3597 2675 3597 1894 
z
M 3022 2063 
Q 3016 2534 2758 2815 
Q 2500 3097 2075 3097 
Q 1594 3097 1305 2825 
Q 1016 2553 972 2059 
L 3022 2063 
z
" transform="scale(0.015625)"/>
      <path id="DejaVuSans-39" d="M 703 97 
L 703 672 
Q 941 559 1184 500 
Q 1428 441 1663 441 
Q 2288 441 2617 861 
Q 2947 1281 2994 2138 
Q 2813 1869 2534 1725 
Q 2256 1581 1919 1581 
Q 1219 1581 811 2004 
Q 403 2428 403 3163 
Q 403 3881 828 4315 
Q 1253 4750 1959 4750 
Q 2769 4750 3195 4129 
Q 3622 3509 3622 2328 
Q 3622 1225 3098 567 
Q 2575 -91 1691 -91 
Q 1453 -91 1209 -44 
Q 966 3 703 97 
z
M 1959 2075 
Q 2384 2075 2632 2365 
Q 2881 2656 2881 3163 
Q 2881 3666 2632 3958 
Q 2384 4250 1959 4250 
Q 1534 4250 1286 3958 
Q 1038 3666 1038 3163 
Q 1038 2656 1286 2365 
Q 1534 2075 1959 2075 
z
" transform="scale(0.015625)"/>
      <path id="DejaVuSans-2d" d="M 313 2009 
L 1997 2009 
L 1997 1497 
L 313 1497 
L 313 2009 
z
" transform="scale(0.015625)"/>
      <path id="DejaVuSans-69" d="M 603 3500 
L 1178 3500 
L 1178 0 
L 603 0 
L 603 3500 
z
M 603 4863 
L 1178 4863 
L 1178 4134 
L 603 4134 
L 603 4863 
z
" transform="scale(0.015625)"/>
      <path id="DejaVuSans-76" d="M 191 3500 
L 800 3500 
L 1894 563 
L 2988 3500 
L 3597 3500 
L 2284 0 
L 1503 0 
L 191 3500 
z
" transform="scale(0.015625)"/>
     </defs>
     <use xlink:href="#DejaVuSans-73"/>
     <use xlink:href="#DejaVuSans-6f" x="52.099609"/>
     <use xlink:href="#DejaVuSans-75" x="113.28125"/>
     <use xlink:href="#DejaVuSans-72" x="176.660156"/>
     <use xlink:href="#DejaVuSans-63" x="215.523438"/>
     <use xlink:href="#DejaVuSans-65" x="270.503906"/>
     <use xlink:href="#DejaVuSans-39" x="332.027344"/>
     <use xlink:href="#DejaVuSans-2d" x="395.650391"/>
     <use xlink:href="#DejaVuSans-72" x="431.734375"/>
     <use xlink:href="#DejaVuSans-65" x="470.597656"/>
     <use xlink:href="#DejaVuSans-63" x="532.121094"/>
     <use xlink:href="#DejaVuSans-65" x="587.101562"/>
     <use xlink:href="#DejaVuSans-69" x="648.625"/>
     <use xlink:href="#DejaVuSans-76" x="676.408203"/>
     <use xlink:href="#DejaVuSans-65" x="735.587891"/>
     <use xlink:href="#DejaVuSans-72" x="797.111328"/>
     <use xlink:href="#DejaVuSans-31" x="838.224609"/>
    </g>
   </g>
  </g>
 </g>
 <defs>
  <clipPath id="pd2d2c67827">
   <rect x="180" y="69.12" width="1116" height="443.52"/>
  </clipPath>
 </defs>
</svg>
