<?xml version="1.0" encoding="utf-8" standalone="no"?>
<!DOCTYPE svg PUBLIC "-//W3C//DTD SVG 1.1//EN"
  "http://www.w3.org/Graphics/SVG/1.1/DTD/svg11.dtd">
<svg xmlns:xlink="http://www.w3.org/1999/xlink" width="1440pt" height="576pt" viewBox="0 0 1440 576" xmlns="http://www.w3.org/2000/svg" version="1.1">
 <metadata>
  <rdf:RDF xmlns:dc="http://purl.org/dc/elements/1.1/" xmlns:cc="http://creativecommons.org/ns#" xmlns:rdf="http://www.w3.org/1999/02/22-rdf-syntax-ns#">
   <cc:Work>
    <dc:type rdf:resource="http://purl.org/dc/dcmitype/StillImage"/>
    <dc:date>2024-05-22T04:49:56.462447</dc:date>
    <dc:format>image/svg+xml</dc:format>
    <dc:creator>
     <cc:Agent>
      <dc:title>Matplotlib v3.8.3, https://matplotlib.org/</dc:title>
     </cc:Agent>
    </dc:creator>
   </cc:Work>
  </rdf:RDF>
 </metadata>
 <defs>
  <style type="text/css">*{stroke-linejoin: round; stroke-linecap: butt}</style>
 </defs>
 <g id="figure_1">
  <g id="patch_1">
   <path d="M 0 576 
L 1440 576 
L 1440 0 
L 0 0 
z
" style="fill: #ffffff"/>
  </g>
  <g id="axes_1">
   <g id="patch_2">
    <path d="M 180 512.64 
L 1296 512.64 
L 1296 69.12 
L 180 69.12 
z
" style="fill: #ffffff"/>
   </g>
   <g id="matplotlib.axis_1">
    <g id="xtick_1">
     <g id="line2d_1">
      <defs>
       <path id="m4a30004da8" d="M 0 0 
L 0 3.5 
" style="stroke: #000000; stroke-width: 0.8"/>
      </defs>
      <g>
       <use xlink:href="#m4a30004da8" x="229.734567" y="512.64" style="stroke: #000000; stroke-width: 0.8"/>
      </g>
     </g>
     <g id="text_1">
      <!-- 0 -->
      <g transform="translate(226.553317 527.238438) scale(0.1 -0.1)">
       <defs>
        <path id="DejaVuSans-30" d="M 2034 4250 
Q 1547 4250 1301 3770 
Q 1056 3291 1056 2328 
Q 1056 1369 1301 889 
Q 1547 409 2034 409 
Q 2525 409 2770 889 
Q 3016 1369 3016 2328 
Q 3016 3291 2770 3770 
Q 2525 4250 2034 4250 
z
M 2034 4750 
Q 2819 4750 3233 4129 
Q 3647 3509 3647 2328 
Q 3647 1150 3233 529 
Q 2819 -91 2034 -91 
Q 1250 -91 836 529 
Q 422 1150 422 2328 
Q 422 3509 836 4129 
Q 1250 4750 2034 4750 
z
" transform="scale(0.015625)"/>
       </defs>
       <use xlink:href="#DejaVuSans-30"/>
      </g>
     </g>
    </g>
    <g id="xtick_2">
     <g id="line2d_2">
      <g>
       <use xlink:href="#m4a30004da8" x="433.04074" y="512.64" style="stroke: #000000; stroke-width: 0.8"/>
      </g>
     </g>
     <g id="text_2">
      <!-- 500 -->
      <g transform="translate(423.49699 527.238438) scale(0.1 -0.1)">
       <defs>
        <path id="DejaVuSans-35" d="M 691 4666 
L 3169 4666 
L 3169 4134 
L 1269 4134 
L 1269 2991 
Q 1406 3038 1543 3061 
Q 1681 3084 1819 3084 
Q 2600 3084 3056 2656 
Q 3513 2228 3513 1497 
Q 3513 744 3044 326 
Q 2575 -91 1722 -91 
Q 1428 -91 1123 -41 
Q 819 9 494 109 
L 494 744 
Q 775 591 1075 516 
Q 1375 441 1709 441 
Q 2250 441 2565 725 
Q 2881 1009 2881 1497 
Q 2881 1984 2565 2268 
Q 2250 2553 1709 2553 
Q 1456 2553 1204 2497 
Q 953 2441 691 2322 
L 691 4666 
z
" transform="scale(0.015625)"/>
       </defs>
       <use xlink:href="#DejaVuSans-35"/>
       <use xlink:href="#DejaVuSans-30" x="63.623047"/>
       <use xlink:href="#DejaVuSans-30" x="127.246094"/>
      </g>
     </g>
    </g>
    <g id="xtick_3">
     <g id="line2d_3">
      <g>
       <use xlink:href="#m4a30004da8" x="636.346913" y="512.64" style="stroke: #000000; stroke-width: 0.8"/>
      </g>
     </g>
     <g id="text_3">
      <!-- 1000 -->
      <g transform="translate(623.621913 527.238438) scale(0.1 -0.1)">
       <defs>
        <path id="DejaVuSans-31" d="M 794 531 
L 1825 531 
L 1825 4091 
L 703 3866 
L 703 4441 
L 1819 4666 
L 2450 4666 
L 2450 531 
L 3481 531 
L 3481 0 
L 794 0 
L 794 531 
z
" transform="scale(0.015625)"/>
       </defs>
       <use xlink:href="#DejaVuSans-31"/>
       <use xlink:href="#DejaVuSans-30" x="63.623047"/>
       <use xlink:href="#DejaVuSans-30" x="127.246094"/>
       <use xlink:href="#DejaVuSans-30" x="190.869141"/>
      </g>
     </g>
    </g>
    <g id="xtick_4">
     <g id="line2d_4">
      <g>
       <use xlink:href="#m4a30004da8" x="839.653087" y="512.64" style="stroke: #000000; stroke-width: 0.8"/>
      </g>
     </g>
     <g id="text_4">
      <!-- 1500 -->
      <g transform="translate(826.928087 527.238438) scale(0.1 -0.1)">
       <use xlink:href="#DejaVuSans-31"/>
       <use xlink:href="#DejaVuSans-35" x="63.623047"/>
       <use xlink:href="#DejaVuSans-30" x="127.246094"/>
       <use xlink:href="#DejaVuSans-30" x="190.869141"/>
      </g>
     </g>
    </g>
    <g id="xtick_5">
     <g id="line2d_5">
      <g>
       <use xlink:href="#m4a30004da8" x="1042.95926" y="512.64" style="stroke: #000000; stroke-width: 0.8"/>
      </g>
     </g>
     <g id="text_5">
      <!-- 2000 -->
      <g transform="translate(1030.23426 527.238438) scale(0.1 -0.1)">
       <defs>
        <path id="DejaVuSans-32" d="M 1228 531 
L 3431 531 
L 3431 0 
L 469 0 
L 469 531 
Q 828 903 1448 1529 
Q 2069 2156 2228 2338 
Q 2531 2678 2651 2914 
Q 2772 3150 2772 3378 
Q 2772 3750 2511 3984 
Q 2250 4219 1831 4219 
Q 1534 4219 1204 4116 
Q 875 4013 500 3803 
L 500 4441 
Q 881 4594 1212 4672 
Q 1544 4750 1819 4750 
Q 2544 4750 2975 4387 
Q 3406 4025 3406 3419 
Q 3406 3131 3298 2873 
Q 3191 2616 2906 2266 
Q 2828 2175 2409 1742 
Q 1991 1309 1228 531 
z
" transform="scale(0.015625)"/>
       </defs>
       <use xlink:href="#DejaVuSans-32"/>
       <use xlink:href="#DejaVuSans-30" x="63.623047"/>
       <use xlink:href="#DejaVuSans-30" x="127.246094"/>
       <use xlink:href="#DejaVuSans-30" x="190.869141"/>
      </g>
     </g>
    </g>
    <g id="xtick_6">
     <g id="line2d_6">
      <g>
       <use xlink:href="#m4a30004da8" x="1246.265433" y="512.64" style="stroke: #000000; stroke-width: 0.8"/>
      </g>
     </g>
     <g id="text_6">
      <!-- 2500 -->
      <g transform="translate(1233.540433 527.238438) scale(0.1 -0.1)">
       <use xlink:href="#DejaVuSans-32"/>
       <use xlink:href="#DejaVuSans-35" x="63.623047"/>
       <use xlink:href="#DejaVuSans-30" x="127.246094"/>
       <use xlink:href="#DejaVuSans-30" x="190.869141"/>
      </g>
     </g>
    </g>
   </g>
   <g id="matplotlib.axis_2">
    <g id="ytick_1">
     <g id="line2d_7">
      <defs>
       <path id="m02b494eb86" d="M 0 0 
L -3.5 0 
" style="stroke: #000000; stroke-width: 0.8"/>
      </defs>
      <g>
       <use xlink:href="#m02b494eb86" x="180" y="481.562448" style="stroke: #000000; stroke-width: 0.8"/>
      </g>
     </g>
     <g id="text_7">
      <!-- −3 -->
      <g transform="translate(158.257812 485.361667) scale(0.1 -0.1)">
       <defs>
        <path id="DejaVuSans-2212" d="M 678 2272 
L 4684 2272 
L 4684 1741 
L 678 1741 
L 678 2272 
z
" transform="scale(0.015625)"/>
        <path id="DejaVuSans-33" d="M 2597 2516 
Q 3050 2419 3304 2112 
Q 3559 1806 3559 1356 
Q 3559 666 3084 287 
Q 2609 -91 1734 -91 
Q 1441 -91 1130 -33 
Q 819 25 488 141 
L 488 750 
Q 750 597 1062 519 
Q 1375 441 1716 441 
Q 2309 441 2620 675 
Q 2931 909 2931 1356 
Q 2931 1769 2642 2001 
Q 2353 2234 1838 2234 
L 1294 2234 
L 1294 2753 
L 1863 2753 
Q 2328 2753 2575 2939 
Q 2822 3125 2822 3475 
Q 2822 3834 2567 4026 
Q 2313 4219 1838 4219 
Q 1578 4219 1281 4162 
Q 984 4106 628 3988 
L 628 4550 
Q 988 4650 1302 4700 
Q 1616 4750 1894 4750 
Q 2613 4750 3031 4423 
Q 3450 4097 3450 3541 
Q 3450 3153 3228 2886 
Q 3006 2619 2597 2516 
z
" transform="scale(0.015625)"/>
       </defs>
       <use xlink:href="#DejaVuSans-2212"/>
       <use xlink:href="#DejaVuSans-33" x="83.789062"/>
      </g>
     </g>
    </g>
    <g id="ytick_2">
     <g id="line2d_8">
      <g>
       <use xlink:href="#m02b494eb86" x="180" y="416.93017" style="stroke: #000000; stroke-width: 0.8"/>
      </g>
     </g>
     <g id="text_8">
      <!-- −2 -->
      <g transform="translate(158.257812 420.729389) scale(0.1 -0.1)">
       <use xlink:href="#DejaVuSans-2212"/>
       <use xlink:href="#DejaVuSans-32" x="83.789062"/>
      </g>
     </g>
    </g>
    <g id="ytick_3">
     <g id="line2d_9">
      <g>
       <use xlink:href="#m02b494eb86" x="180" y="352.297892" style="stroke: #000000; stroke-width: 0.8"/>
      </g>
     </g>
     <g id="text_9">
      <!-- −1 -->
      <g transform="translate(158.257812 356.097111) scale(0.1 -0.1)">
       <use xlink:href="#DejaVuSans-2212"/>
       <use xlink:href="#DejaVuSans-31" x="83.789062"/>
      </g>
     </g>
    </g>
    <g id="ytick_4">
     <g id="line2d_10">
      <g>
       <use xlink:href="#m02b494eb86" x="180" y="287.665614" style="stroke: #000000; stroke-width: 0.8"/>
      </g>
     </g>
     <g id="text_10">
      <!-- 0 -->
      <g transform="translate(166.6375 291.464832) scale(0.1 -0.1)">
       <use xlink:href="#DejaVuSans-30"/>
      </g>
     </g>
    </g>
    <g id="ytick_5">
     <g id="line2d_11">
      <g>
       <use xlink:href="#m02b494eb86" x="180" y="223.033336" style="stroke: #000000; stroke-width: 0.8"/>
      </g>
     </g>
     <g id="text_11">
      <!-- 1 -->
      <g transform="translate(166.6375 226.832554) scale(0.1 -0.1)">
       <use xlink:href="#DejaVuSans-31"/>
      </g>
     </g>
    </g>
    <g id="ytick_6">
     <g id="line2d_12">
      <g>
       <use xlink:href="#m02b494eb86" x="180" y="158.401057" style="stroke: #000000; stroke-width: 0.8"/>
      </g>
     </g>
     <g id="text_12">
      <!-- 2 -->
      <g transform="translate(166.6375 162.200276) scale(0.1 -0.1)">
       <use xlink:href="#DejaVuSans-32"/>
      </g>
     </g>
    </g>
    <g id="ytick_7">
     <g id="line2d_13">
      <g>
       <use xlink:href="#m02b494eb86" x="180" y="93.768779" style="stroke: #000000; stroke-width: 0.8"/>
      </g>
     </g>
     <g id="text_13">
      <!-- 3 -->
      <g transform="translate(166.6375 97.567998) scale(0.1 -0.1)">
       <use xlink:href="#DejaVuSans-33"/>
      </g>
     </g>
    </g>
   </g>
   <g id="line2d_14">
    <path d="M 230.727273 492.48 
L 231.719979 466.231868 
L 232.712685 447.093642 
L 233.70539 431.27839 
L 235.690802 405.506803 
L 238.66892 379.335906 
L 240.654332 365.585819 
L 243.63245 345.370489 
L 244.625156 339.056048 
L 245.617862 326.841625 
L 246.610568 301.589137 
L 249.588685 194.804508 
L 250.581391 164.851074 
L 251.574097 143.302588 
L 252.566803 131.717364 
L 253.559509 131.13019 
L 254.552215 146.776302 
L 255.544921 180.944856 
L 256.537627 177.379428 
L 257.530333 152.39866 
L 258.523039 156.377638 
L 259.515745 206.882912 
L 260.50845 194.914792 
L 261.501156 144.69929 
L 262.493862 137.323636 
L 264.479274 180.234567 
L 265.47198 162.869065 
L 266.464686 162.274482 
L 267.457392 171.753533 
L 268.450098 159.993128 
L 269.442804 163.666826 
L 270.43551 238.167428 
L 271.428216 180.796569 
L 272.420922 136.934511 
L 273.413627 138.667693 
L 274.406333 162.858143 
L 275.399039 132.888748 
L 276.391745 108.030228 
L 277.384451 111.330941 
L 278.377157 137.893796 
L 279.369863 133.113351 
L 280.362569 106.080928 
L 281.355275 102.789932 
L 282.347981 131.416887 
L 283.340687 174.306909 
L 284.333393 114.503612 
L 285.326099 93.565861 
L 286.318804 103.489866 
L 287.31151 133.234893 
L 288.304216 116.016813 
L 289.296922 90.681282 
L 290.289628 89.28 
L 291.282334 107.718814 
L 292.27504 135.179725 
L 293.267746 146.299726 
L 294.260452 160.548046 
L 295.253158 211.946377 
L 296.245864 377.521461 
L 297.23857 281.363279 
L 298.231276 321.046195 
L 299.223981 217.208607 
L 300.216687 202.499992 
L 301.209393 218.386719 
L 302.202099 213.344244 
L 303.194805 197.852203 
L 304.187511 208.366856 
L 305.180217 235.385202 
L 306.172923 235.520312 
L 307.165629 238.491757 
L 308.158335 262.548284 
L 309.151041 257.31833 
L 310.143747 243.879798 
L 311.136453 246.75357 
L 312.129159 250.227828 
L 313.121864 252.381516 
L 314.11457 258.424373 
L 315.107276 261.644877 
L 316.099982 262.165855 
L 317.092688 261.677942 
L 318.085394 265.446278 
L 319.0781 262.774693 
L 320.070806 270.783937 
L 321.063512 269.417393 
L 322.056218 264.962591 
L 323.048924 272.144976 
L 324.04163 274.526655 
L 325.034336 273.372543 
L 326.027041 274.98531 
L 327.019747 280.402134 
L 328.012453 279.266206 
L 329.005159 279.733141 
L 329.997865 280.509028 
L 330.990571 282.238383 
L 331.983277 280.734698 
L 332.975983 282.37708 
L 333.968689 285.441365 
L 334.961395 286.445256 
L 335.954101 293.469671 
L 336.946807 288.708163 
L 337.939513 289.205409 
L 338.932218 290.503247 
L 339.924924 295.586836 
L 340.91763 293.063835 
L 341.910336 291.487946 
L 342.903042 291.9518 
L 343.895748 297.333546 
L 344.888454 296.525314 
L 345.88116 295.408143 
L 346.873866 299.69672 
L 347.866572 297.811616 
L 348.859278 298.118416 
L 349.851984 301.428722 
L 350.84469 300.834773 
L 351.837395 301.582411 
L 352.830101 305.753944 
L 353.822807 302.607006 
L 354.815513 305.816172 
L 355.808219 304.52335 
L 356.800925 302.287112 
L 357.793631 305.677916 
L 358.786337 305.388567 
L 359.779043 309.095247 
L 360.771749 310.619616 
L 361.764455 303.972721 
L 362.757161 311.242353 
L 363.749867 308.44129 
L 364.742572 310.621185 
L 365.735278 316.436105 
L 366.727984 316.171905 
L 367.72069 319.446338 
L 368.713396 314.634984 
L 369.706102 314.656551 
L 370.698808 315.503477 
L 371.691514 312.982483 
L 372.68422 319.952805 
L 373.676926 311.271524 
L 374.669632 309.882808 
L 375.662338 313.665426 
L 376.655044 314.1048 
L 377.64775 319.91151 
L 378.640455 322.167195 
L 379.633161 325.574702 
L 380.625867 324.37445 
L 381.618573 331.5091 
L 382.611279 313.444638 
L 383.603985 326.223477 
L 384.596691 322.984952 
L 385.589397 324.225758 
L 386.582103 323.648457 
L 387.574809 325.49705 
L 388.567515 326.294959 
L 389.560221 325.784679 
L 390.552927 324.752064 
L 391.545632 317.297744 
L 392.538338 329.190233 
L 393.531044 327.274807 
L 394.52375 330.900373 
L 395.516456 325.964395 
L 396.509162 337.069669 
L 397.501868 331.55766 
L 398.494574 328.534053 
L 399.48728 322.912398 
L 400.479986 330.936548 
L 401.472692 324.396623 
L 402.465398 338.890155 
L 403.458104 334.101663 
L 404.450809 333.797945 
L 405.443515 326.794699 
L 406.436221 326.603293 
L 407.428927 338.168303 
L 408.421633 335.208161 
L 409.414339 333.205848 
L 410.407045 332.615814 
L 411.399751 336.793927 
L 412.392457 332.978449 
L 413.385163 330.750085 
L 414.377869 332.669645 
L 415.370575 339.336534 
L 416.363281 336.870849 
L 417.355986 336.833214 
L 418.348692 336.318197 
L 419.341398 341.649085 
L 420.334104 336.183362 
L 421.32681 340.121887 
L 422.319516 334.202578 
L 423.312222 338.378238 
L 424.304928 335.276839 
L 425.297634 346.263608 
L 426.29034 344.108283 
L 427.283046 330.82574 
L 428.275752 346.244107 
L 429.268458 345.282351 
L 430.261163 338.110335 
L 431.253869 343.856062 
L 432.246575 345.639973 
L 433.239281 348.550826 
L 434.231987 345.504648 
L 435.224693 352.792279 
L 436.217399 342.017636 
L 437.210105 344.442758 
L 438.202811 349.233476 
L 439.195517 348.623687 
L 440.188223 349.216829 
L 441.180929 348.914876 
L 442.173635 351.799781 
L 443.166341 348.107967 
L 444.159046 349.851941 
L 445.151752 344.329587 
L 446.144458 353.905893 
L 447.137164 346.456586 
L 448.12987 347.03857 
L 449.122576 349.555814 
L 450.115282 347.33783 
L 451.107988 349.652009 
L 452.100694 347.882315 
L 453.0934 357.913535 
L 454.086106 358.508053 
L 455.078812 356.206351 
L 456.071518 353.367148 
L 457.064223 342.427425 
L 458.056929 353.080915 
L 459.049635 349.042428 
L 460.042341 350.772542 
L 461.035047 351.68985 
L 462.027753 345.877834 
L 463.020459 358.368064 
L 464.013165 353.38711 
L 465.005871 352.23173 
L 465.998577 362.225017 
L 466.991283 352.598009 
L 467.983989 361.266305 
L 468.976695 363.823028 
L 469.9694 357.878237 
L 470.962106 355.764554 
L 471.954812 358.929966 
L 472.947518 359.737552 
L 473.940224 360.807958 
L 474.93293 353.289236 
L 475.925636 369.450163 
L 476.918342 356.668457 
L 477.911048 360.776749 
L 478.903754 359.465663 
L 479.89646 355.356234 
L 480.889166 356.756459 
L 481.881872 356.620221 
L 482.874577 363.116136 
L 483.867283 364.892803 
L 484.859989 361.648714 
L 485.852695 352.046344 
L 486.845401 361.534262 
L 487.838107 355.588183 
L 488.830813 355.394966 
L 489.823519 358.030662 
L 490.816225 357.475699 
L 491.808931 358.311553 
L 492.801637 361.298672 
L 493.794343 359.896887 
L 494.787049 360.780426 
L 495.779754 368.614756 
L 496.77246 364.326894 
L 497.765166 362.256606 
L 498.757872 366.769555 
L 499.750578 356.952558 
L 500.743284 358.451926 
L 501.73599 376.391441 
L 502.728696 366.433777 
L 503.721402 363.507114 
L 504.714108 367.279961 
L 505.706814 359.484152 
L 506.69952 365.479859 
L 507.692226 364.21262 
L 508.684932 358.782847 
L 509.677637 375.032048 
L 510.670343 357.956266 
L 511.663049 369.873305 
L 512.655755 365.111625 
L 513.648461 372.98409 
L 514.641167 369.153801 
L 515.633873 369.131173 
L 516.626579 377.418553 
L 517.619285 366.857392 
L 518.611991 364.205472 
L 519.604697 372.175108 
L 520.597403 384.979254 
L 521.590109 368.059157 
L 522.582814 362.067548 
L 523.57552 363.40482 
L 524.568226 377.7937 
L 525.560932 379.39296 
L 526.553638 369.685768 
L 527.546344 374.58968 
L 528.53905 368.939235 
L 529.531756 369.013106 
L 530.524462 374.100167 
L 532.509874 364.27895 
L 533.50258 370.098703 
L 534.495286 374.178301 
L 535.487991 364.454259 
L 537.473403 380.10434 
L 538.466109 375.574521 
L 539.458815 369.406049 
L 540.451521 382.492224 
L 541.444227 379.736314 
L 542.436933 366.855604 
L 543.429639 371.556889 
L 544.422345 374.985983 
L 545.415051 368.354694 
L 546.407757 371.129113 
L 547.400463 388.659584 
L 548.393168 373.198407 
L 549.385874 374.849455 
L 550.37858 383.20916 
L 551.371286 370.953017 
L 552.363992 365.080863 
L 553.356698 370.15207 
L 554.349404 377.285944 
L 555.34211 361.402775 
L 556.334816 379.534873 
L 557.327522 377.247744 
L 558.320228 391.646501 
L 559.312934 369.628364 
L 560.30564 374.137586 
L 561.298345 385.02592 
L 562.291051 367.297704 
L 563.283757 382.729687 
L 564.276463 371.394223 
L 565.269169 383.964301 
L 566.261875 373.969054 
L 567.254581 379.586681 
L 568.247287 370.988863 
L 569.239993 379.758134 
L 570.232699 374.32089 
L 571.225405 378.522852 
L 572.218111 384.334541 
L 573.210817 386.145612 
L 574.203523 376.448922 
L 575.196228 371.925 
L 576.188934 370.691765 
L 577.18164 379.400935 
L 578.174346 385.848646 
L 579.167052 384.030328 
L 580.159758 375.930549 
L 581.152464 373.246394 
L 582.14517 380.415935 
L 583.137876 381.514757 
L 584.130582 371.778582 
L 585.123288 386.844938 
L 586.115994 372.115476 
L 589.094111 380.823545 
L 590.086817 374.413592 
L 591.079523 386.727821 
L 592.072229 380.965353 
L 593.064935 377.727346 
L 594.057641 376.978892 
L 595.050347 386.494168 
L 596.043053 384.168242 
L 597.035759 382.450631 
L 598.028465 385.179821 
L 599.021171 376.441792 
L 600.013877 377.849147 
L 601.006582 389.957246 
L 601.999288 383.465109 
L 602.991994 379.737236 
L 603.9847 383.957642 
L 604.977406 385.609838 
L 605.970112 379.983221 
L 606.962818 387.516796 
L 607.955524 379.934302 
L 608.94823 385.525822 
L 609.940936 384.108699 
L 610.933642 379.713282 
L 611.926348 381.791589 
L 612.919054 383.605282 
L 613.911759 387.720105 
L 614.904465 387.529468 
L 615.897171 387.008086 
L 616.889877 387.121892 
L 617.882583 386.28301 
L 618.875289 385.109577 
L 619.867995 386.404279 
L 620.860701 387.051492 
L 621.853407 386.709652 
L 622.846113 389.188304 
L 623.838819 393.583486 
L 624.831525 384.164711 
L 625.824231 380.707395 
L 626.816936 384.117653 
L 627.809642 391.438651 
L 628.802348 385.047342 
L 629.795054 387.048399 
L 630.78776 391.55457 
L 631.780466 391.802874 
L 632.773172 386.632228 
L 633.765878 385.497771 
L 634.758584 393.959596 
L 635.75129 388.164184 
L 636.743996 384.40018 
L 637.736702 389.27036 
L 638.729408 387.290411 
L 639.722114 386.674912 
L 640.714819 388.188355 
L 641.707525 388.591602 
L 642.700231 390.475755 
L 643.692937 386.169743 
L 644.685643 389.663666 
L 645.678349 389.232081 
L 646.671055 389.283202 
L 647.663761 391.580516 
L 648.656467 391.888399 
L 649.649173 390.481136 
L 651.634585 391.776601 
L 652.627291 387.309465 
L 654.612702 391.472973 
L 655.605408 388.912284 
L 656.598114 390.06147 
L 657.59082 392.781906 
L 658.583526 388.809986 
L 659.576232 392.412497 
L 660.568938 391.806394 
L 661.561644 393.522969 
L 662.55435 392.658244 
L 663.547056 394.601842 
L 664.539762 392.543234 
L 665.532468 393.068757 
L 666.525173 394.94076 
L 667.517879 393.722669 
L 668.510585 394.741252 
L 669.503291 394.769835 
L 670.495997 393.35077 
L 671.488703 394.499128 
L 672.481409 395.469598 
L 673.474115 392.690562 
L 674.466821 394.482513 
L 675.459527 394.816225 
L 676.452233 393.837515 
L 677.444939 392.087633 
L 678.437645 394.985995 
L 679.43035 396.866817 
L 680.423056 394.097264 
L 681.415762 394.396813 
L 682.408468 395.738337 
L 683.401174 395.223494 
L 684.39388 394.014355 
L 685.386586 393.962161 
L 686.379292 395.632582 
L 687.371998 394.597591 
L 688.364704 396.137477 
L 689.35741 395.330661 
L 692.335527 396.2428 
L 693.328233 395.313327 
L 694.320939 395.551726 
L 695.313645 396.849857 
L 696.306351 397.1182 
L 697.299057 397.809662 
L 698.291763 395.85592 
L 699.284469 396.393923 
L 700.277175 398.369135 
L 701.269881 397.45208 
L 702.262587 398.548614 
L 703.255293 396.284166 
L 705.240705 398.177887 
L 706.23341 398.622133 
L 707.226116 397.638973 
L 708.218822 398.725735 
L 709.211528 397.326649 
L 710.204234 398.571832 
L 711.19694 398.165342 
L 712.189646 399.210316 
L 713.182352 399.382326 
L 714.175058 398.400417 
L 715.167764 398.146373 
L 717.153176 399.476012 
L 719.138587 399.554922 
L 720.131293 399.21419 
L 721.123999 400.022438 
L 722.116705 399.502654 
L 723.109411 399.765665 
L 724.102117 400.984441 
L 725.094823 399.167495 
L 726.087529 400.068115 
L 727.080235 400.393635 
L 728.072941 400.396199 
L 729.065647 400.527696 
L 730.058353 401.227406 
L 731.051059 400.428266 
L 734.029176 400.864882 
L 735.021882 402.093814 
L 736.014588 401.647236 
L 737.007294 401.925608 
L 738.992706 401.614516 
L 739.985412 401.692759 
L 740.978118 401.964137 
L 741.970824 401.523735 
L 742.96353 401.568895 
L 743.956236 402.259542 
L 744.948941 401.608146 
L 745.941647 402.486107 
L 746.934353 402.263282 
L 747.927059 401.918553 
L 748.919765 402.496153 
L 749.912471 402.855983 
L 750.905177 402.765568 
L 751.897883 403.254923 
L 752.890589 403.466534 
L 753.883295 404.106182 
L 755.868707 403.22818 
L 756.861413 403.428223 
L 757.854118 402.580965 
L 758.846824 403.791305 
L 759.83953 403.695706 
L 760.832236 403.817237 
L 761.824942 404.139855 
L 762.817648 403.573699 
L 763.810354 403.656331 
L 766.788472 404.3018 
L 767.781178 404.13894 
L 770.759295 404.702617 
L 771.752001 404.696323 
L 772.744707 405.175395 
L 773.737413 405.044708 
L 774.730119 405.953287 
L 775.722825 404.833621 
L 776.715531 404.941437 
L 777.708237 404.648766 
L 778.700943 405.589275 
L 780.686355 405.076471 
L 781.679061 406.307066 
L 782.671767 405.69415 
L 783.664473 406.352389 
L 784.657178 406.493544 
L 785.649884 405.735716 
L 786.64259 405.639374 
L 787.635296 406.342122 
L 789.620708 405.955569 
L 790.613414 406.749645 
L 791.60612 406.308485 
L 792.598826 406.261334 
L 793.591532 406.844165 
L 794.584238 406.242284 
L 795.576944 406.232867 
L 796.56965 406.97643 
L 797.562355 406.319978 
L 798.555061 406.662683 
L 800.540473 407.092632 
L 801.533179 407.705367 
L 802.525885 407.680932 
L 803.518591 407.087446 
L 804.511297 407.425303 
L 805.504003 407.388539 
L 806.496709 408.246385 
L 807.489415 407.777948 
L 808.482121 408.507349 
L 809.474827 408.703573 
L 810.467532 407.706219 
L 811.460238 407.957262 
L 812.452944 408.062936 
L 813.44565 408.305083 
L 814.438356 408.269351 
L 815.431062 408.935425 
L 816.423768 407.749644 
L 817.416474 408.593975 
L 818.40918 408.505203 
L 819.401886 408.760152 
L 820.394592 408.67534 
L 821.387298 409.085138 
L 823.372709 409.023641 
L 824.365415 409.335927 
L 825.358121 409.230334 
L 826.350827 409.858064 
L 827.343533 409.548174 
L 828.336239 409.873927 
L 829.328945 409.56273 
L 830.321651 409.79507 
L 831.314357 409.364916 
L 832.307063 409.135163 
L 833.299769 410.38077 
L 834.292475 409.363255 
L 836.277886 410.722173 
L 837.270592 410.377263 
L 838.263298 409.226818 
L 839.256004 411.335772 
L 840.24871 410.524587 
L 841.241416 409.973391 
L 842.234122 410.070521 
L 843.226828 410.379598 
L 844.219534 410.436947 
L 845.21224 411.045566 
L 846.204946 410.579269 
L 847.197652 410.769515 
L 848.190358 411.402225 
L 851.168475 411.333151 
L 852.161181 410.884003 
L 853.153887 411.296927 
L 854.146593 411.323891 
L 855.139299 412.078349 
L 856.132005 412.548214 
L 857.124711 411.669663 
L 858.117417 411.619136 
L 859.110123 411.752456 
L 860.102829 412.035159 
L 861.095535 412.739918 
L 862.088241 411.55834 
L 863.080946 412.071207 
L 864.073652 412.214957 
L 865.066358 411.974027 
L 866.059064 413.147577 
L 867.05177 412.450087 
L 868.044476 411.953444 
L 869.037182 413.158759 
L 870.029888 412.175701 
L 871.022594 412.255684 
L 872.0153 413.746821 
L 873.008006 412.694464 
L 874.000712 412.863136 
L 875.986123 412.417794 
L 876.978829 412.528049 
L 877.971535 412.764247 
L 878.964241 412.775016 
L 879.956947 413.51587 
L 880.949653 413.155994 
L 882.935065 413.119909 
L 883.927771 413.394159 
L 884.920477 412.994077 
L 885.913183 413.018051 
L 886.905889 414.040715 
L 887.898595 413.508853 
L 888.8913 413.626073 
L 890.876712 414.186874 
L 891.869418 414.107069 
L 893.85483 414.163628 
L 894.847536 414.029251 
L 895.840242 414.925463 
L 896.832948 414.662135 
L 897.825654 414.027377 
L 898.81836 414.610827 
L 899.811066 414.101088 
L 900.803772 414.242728 
L 901.796477 414.184605 
L 902.789183 415.162681 
L 903.781889 414.17055 
L 904.774595 414.187489 
L 905.767301 415.18401 
L 906.760007 414.961991 
L 907.752713 415.404638 
L 908.745419 414.542916 
L 909.738125 415.070585 
L 910.730831 414.691133 
L 911.723537 415.414144 
L 912.716243 414.887695 
L 913.708949 414.66078 
L 914.701655 415.433161 
L 915.69436 415.010326 
L 916.687066 415.233601 
L 917.679772 415.591249 
L 919.665184 415.500884 
L 920.65789 415.639159 
L 921.650596 415.285632 
L 922.643302 415.473985 
L 923.636008 416.048915 
L 924.628714 415.529578 
L 925.62142 416.260644 
L 926.614126 415.839063 
L 927.606832 416.225763 
L 928.599537 415.957843 
L 929.592243 416.119134 
L 930.584949 415.718783 
L 931.577655 416.103658 
L 932.570361 416.301823 
L 933.563067 416.613853 
L 934.555773 417.121068 
L 936.541185 416.358567 
L 937.533891 416.456056 
L 938.526597 417.289347 
L 939.519303 416.5895 
L 940.512009 416.403379 
L 942.49742 416.64943 
L 943.490126 416.958206 
L 944.482832 416.994172 
L 945.475538 416.369858 
L 946.468244 416.982534 
L 950.439068 417.227585 
L 951.431774 417.538483 
L 952.42448 417.23999 
L 953.417186 416.693957 
L 954.409891 416.919535 
L 955.402597 418.029127 
L 956.395303 417.691228 
L 958.380715 417.800826 
L 959.373421 417.544687 
L 960.366127 417.739559 
L 961.358833 418.355006 
L 962.351539 418.277785 
L 963.344245 417.749121 
L 964.336951 417.61369 
L 966.322363 418.329957 
L 967.315068 418.455967 
L 968.307774 418.009387 
L 969.30048 418.278828 
L 970.293186 417.948739 
L 971.285892 418.361675 
L 972.278598 418.011703 
L 973.271304 418.720296 
L 974.26401 417.911002 
L 975.256716 418.214343 
L 976.249422 418.054193 
L 977.242128 418.95094 
L 978.234834 419.148925 
L 979.22754 418.410916 
L 980.220246 418.390615 
L 981.212951 418.052365 
L 982.205657 418.822918 
L 983.198363 419.138844 
L 984.191069 419.237446 
L 986.176481 418.626159 
L 987.169187 418.606261 
L 988.161893 419.420759 
L 989.154599 419.610052 
L 990.147305 419.018583 
L 991.140011 419.878162 
L 992.132717 419.305892 
L 993.125423 419.223057 
L 994.118128 419.810494 
L 996.10354 419.351075 
L 997.096246 419.686639 
L 998.088952 419.17182 
L 999.081658 419.65079 
L 1000.074364 418.456391 
L 1001.06707 419.53919 
L 1002.059776 420.092397 
L 1003.052482 419.509503 
L 1005.037894 420.183133 
L 1006.0306 419.471052 
L 1007.023305 420.035099 
L 1009.008717 419.659947 
L 1010.001423 420.394933 
L 1010.994129 419.898745 
L 1011.986835 419.621981 
L 1012.979541 420.230883 
L 1014.964953 420.238835 
L 1015.957659 419.517638 
L 1016.950365 420.0886 
L 1017.943071 419.576516 
L 1018.935777 419.992088 
L 1019.928482 419.716079 
L 1020.921188 420.025428 
L 1021.913894 420.849569 
L 1022.9066 420.589417 
L 1023.899306 420.541689 
L 1024.892012 420.882027 
L 1025.884718 420.252653 
L 1026.877424 419.847852 
L 1027.87013 420.616806 
L 1028.862836 420.530097 
L 1029.855542 420.808784 
L 1030.848248 419.831638 
L 1031.840954 420.448347 
L 1032.833659 420.236688 
L 1033.826365 421.40767 
L 1034.819071 420.764451 
L 1035.811777 420.65692 
L 1036.804483 420.345425 
L 1037.797189 421.09443 
L 1038.789895 420.751811 
L 1039.782601 420.983467 
L 1040.775307 421.426423 
L 1041.768013 420.521863 
L 1042.760719 421.163711 
L 1045.738837 420.514123 
L 1046.731542 421.576081 
L 1047.724248 421.098115 
L 1048.716954 421.464429 
L 1049.70966 422.012206 
L 1050.702366 421.032728 
L 1051.695072 421.765981 
L 1052.687778 421.681581 
L 1053.680484 421.970026 
L 1054.67319 421.28427 
L 1055.665896 421.754191 
L 1058.644014 421.672143 
L 1061.622131 421.596086 
L 1062.614837 422.356371 
L 1063.607543 421.742351 
L 1064.600249 421.579154 
L 1065.592955 421.638579 
L 1066.585661 422.062955 
L 1067.578367 421.558556 
L 1068.571073 421.676381 
L 1069.563779 422.322507 
L 1070.556485 422.146285 
L 1071.549191 422.104371 
L 1072.541896 421.817282 
L 1073.534602 422.385164 
L 1074.527308 421.72976 
L 1075.520014 422.019859 
L 1076.51272 422.895642 
L 1077.505426 421.810204 
L 1078.498132 422.766827 
L 1079.490838 422.560235 
L 1080.483544 421.937776 
L 1081.47625 422.574556 
L 1083.461662 422.311347 
L 1084.454368 422.448646 
L 1085.447073 422.425308 
L 1086.439779 422.615723 
L 1089.417897 422.057702 
L 1090.410603 423.200099 
L 1091.403309 421.818021 
L 1092.396015 422.690501 
L 1093.388721 422.363473 
L 1094.381427 422.883168 
L 1095.374133 422.236441 
L 1096.366839 422.163563 
L 1097.359545 422.637529 
L 1098.35225 422.924499 
L 1099.344956 422.532565 
L 1100.337662 422.397142 
L 1101.330368 422.969656 
L 1103.31578 423.034047 
L 1105.301192 422.650791 
L 1106.293898 422.998654 
L 1107.286604 422.768427 
L 1108.27931 422.687385 
L 1109.272016 423.20581 
L 1110.264722 423.213153 
L 1111.257428 422.930365 
L 1112.250133 422.765475 
L 1113.242839 423.834205 
L 1114.235545 423.339006 
L 1115.228251 423.161124 
L 1116.220957 422.76952 
L 1117.213663 422.660688 
L 1118.206369 423.119911 
L 1119.199075 422.635413 
L 1120.191781 423.326426 
L 1121.184487 422.909158 
L 1122.177193 423.389203 
L 1123.169899 423.71367 
L 1124.162605 422.356509 
L 1125.15531 422.818549 
L 1127.140722 424.24802 
L 1128.133428 422.923804 
L 1129.126134 423.131591 
L 1130.11884 424.333858 
L 1131.111546 423.004612 
L 1132.104252 423.720778 
L 1133.096958 423.732078 
L 1134.089664 423.552239 
L 1135.08237 423.080922 
L 1136.075076 423.405818 
L 1137.067782 422.97912 
L 1138.060487 423.75438 
L 1139.053193 423.950951 
L 1140.045899 423.5017 
L 1141.038605 423.797636 
L 1142.031311 424.274762 
L 1143.024017 424.620452 
L 1144.016723 423.631252 
L 1145.009429 423.936701 
L 1146.002135 423.949005 
L 1147.987547 422.757021 
L 1148.980253 424.690465 
L 1149.972959 423.393365 
L 1150.965664 423.342136 
L 1151.95837 423.476006 
L 1152.951076 423.283056 
L 1153.943782 423.929607 
L 1154.936488 423.154358 
L 1155.929194 423.327574 
L 1156.9219 423.828557 
L 1157.914606 423.630112 
L 1158.907312 423.982917 
L 1159.900018 423.218205 
L 1160.892724 423.330768 
L 1161.88543 423.320133 
L 1162.878136 423.746137 
L 1163.870841 423.587273 
L 1164.863547 424.158447 
L 1165.856253 423.814347 
L 1166.848959 423.593224 
L 1167.841665 422.66256 
L 1168.834371 423.85707 
L 1169.827077 424.059859 
L 1170.819783 423.550947 
L 1172.805195 424.105561 
L 1173.797901 423.914385 
L 1174.790607 424.050004 
L 1175.783313 423.770485 
L 1177.768724 424.638629 
L 1178.76143 424.029216 
L 1179.754136 424.283114 
L 1180.746842 424.409092 
L 1181.739548 423.528594 
L 1182.732254 424.608889 
L 1183.72496 424.297147 
L 1184.717666 424.239438 
L 1185.710372 424.480099 
L 1186.703078 424.00366 
L 1187.695784 423.677194 
L 1188.68849 424.32111 
L 1189.681196 424.069515 
L 1190.673901 424.564004 
L 1191.666607 424.054011 
L 1192.659313 423.934824 
L 1193.652019 424.135286 
L 1194.644725 424.749269 
L 1195.637431 423.352897 
L 1196.630137 424.762282 
L 1197.622843 424.459727 
L 1198.615549 425.077049 
L 1199.608255 424.411016 
L 1200.600961 423.905243 
L 1201.593667 424.163161 
L 1202.586373 423.8723 
L 1203.579078 423.791611 
L 1204.571784 424.8091 
L 1205.56449 424.107184 
L 1206.557196 424.042146 
L 1208.542608 424.403734 
L 1209.535314 424.354893 
L 1210.52802 424.735661 
L 1211.520726 423.806776 
L 1212.513432 423.728131 
L 1213.506138 424.462299 
L 1214.498844 423.776027 
L 1215.49155 424.649343 
L 1216.484255 423.944314 
L 1217.476961 424.374072 
L 1219.462373 423.891201 
L 1220.455079 424.147598 
L 1222.440491 424.102418 
L 1223.433197 424.250626 
L 1224.425903 424.183099 
L 1225.418609 423.374522 
L 1226.411315 424.384266 
L 1227.404021 424.209454 
L 1228.396727 424.289445 
L 1229.389432 424.257142 
L 1230.382138 424.378206 
L 1231.374844 423.602971 
L 1232.36755 424.349505 
L 1233.360256 424.551225 
L 1234.352962 424.023862 
L 1235.345668 424.916572 
L 1236.338374 424.460861 
L 1237.33108 424.260517 
L 1238.323786 424.201634 
L 1239.316492 424.937308 
L 1240.309198 424.311264 
L 1242.29461 424.450649 
L 1243.287315 423.861807 
L 1244.280021 424.744757 
L 1245.272727 424.241203 
L 1245.272727 424.241203 
" clip-path="url(#pfb85d50b28)" style="fill: none; stroke: #1f77b4; stroke-width: 1.5; stroke-linecap: square"/>
   </g>
   <g id="patch_3">
    <path d="M 180 512.64 
L 180 69.12 
" style="fill: none; stroke: #000000; stroke-width: 0.8; stroke-linejoin: miter; stroke-linecap: square"/>
   </g>
   <g id="patch_4">
    <path d="M 1296 512.64 
L 1296 69.12 
" style="fill: none; stroke: #000000; stroke-width: 0.8; stroke-linejoin: miter; stroke-linecap: square"/>
   </g>
   <g id="patch_5">
    <path d="M 180 512.64 
L 1296 512.64 
" style="fill: none; stroke: #000000; stroke-width: 0.8; stroke-linejoin: miter; stroke-linecap: square"/>
   </g>
   <g id="patch_6">
    <path d="M 180 69.12 
L 1296 69.12 
" style="fill: none; stroke: #000000; stroke-width: 0.8; stroke-linejoin: miter; stroke-linecap: square"/>
   </g>
   <g id="text_14">
    <!-- source9-receiver20 -->
    <g transform="translate(544.9 60.80125) scale(0.4 -0.4)">
     <defs>
      <path id="DejaVuSans-73" d="M 2834 3397 
L 2834 2853 
Q 2591 2978 2328 3040 
Q 2066 3103 1784 3103 
Q 1356 3103 1142 2972 
Q 928 2841 928 2578 
Q 928 2378 1081 2264 
Q 1234 2150 1697 2047 
L 1894 2003 
Q 2506 1872 2764 1633 
Q 3022 1394 3022 966 
Q 3022 478 2636 193 
Q 2250 -91 1575 -91 
Q 1294 -91 989 -36 
Q 684 19 347 128 
L 347 722 
Q 666 556 975 473 
Q 1284 391 1588 391 
Q 1994 391 2212 530 
Q 2431 669 2431 922 
Q 2431 1156 2273 1281 
Q 2116 1406 1581 1522 
L 1381 1569 
Q 847 1681 609 1914 
Q 372 2147 372 2553 
Q 372 3047 722 3315 
Q 1072 3584 1716 3584 
Q 2034 3584 2315 3537 
Q 2597 3491 2834 3397 
z
" transform="scale(0.015625)"/>
      <path id="DejaVuSans-6f" d="M 1959 3097 
Q 1497 3097 1228 2736 
Q 959 2375 959 1747 
Q 959 1119 1226 758 
Q 1494 397 1959 397 
Q 2419 397 2687 759 
Q 2956 1122 2956 1747 
Q 2956 2369 2687 2733 
Q 2419 3097 1959 3097 
z
M 1959 3584 
Q 2709 3584 3137 3096 
Q 3566 2609 3566 1747 
Q 3566 888 3137 398 
Q 2709 -91 1959 -91 
Q 1206 -91 779 398 
Q 353 888 353 1747 
Q 353 2609 779 3096 
Q 1206 3584 1959 3584 
z
" transform="scale(0.015625)"/>
      <path id="DejaVuSans-75" d="M 544 1381 
L 544 3500 
L 1119 3500 
L 1119 1403 
Q 1119 906 1312 657 
Q 1506 409 1894 409 
Q 2359 409 2629 706 
Q 2900 1003 2900 1516 
L 2900 3500 
L 3475 3500 
L 3475 0 
L 2900 0 
L 2900 538 
Q 2691 219 2414 64 
Q 2138 -91 1772 -91 
Q 1169 -91 856 284 
Q 544 659 544 1381 
z
M 1991 3584 
L 1991 3584 
z
" transform="scale(0.015625)"/>
      <path id="DejaVuSans-72" d="M 2631 2963 
Q 2534 3019 2420 3045 
Q 2306 3072 2169 3072 
Q 1681 3072 1420 2755 
Q 1159 2438 1159 1844 
L 1159 0 
L 581 0 
L 581 3500 
L 1159 3500 
L 1159 2956 
Q 1341 3275 1631 3429 
Q 1922 3584 2338 3584 
Q 2397 3584 2469 3576 
Q 2541 3569 2628 3553 
L 2631 2963 
z
" transform="scale(0.015625)"/>
      <path id="DejaVuSans-63" d="M 3122 3366 
L 3122 2828 
Q 2878 2963 2633 3030 
Q 2388 3097 2138 3097 
Q 1578 3097 1268 2742 
Q 959 2388 959 1747 
Q 959 1106 1268 751 
Q 1578 397 2138 397 
Q 2388 397 2633 464 
Q 2878 531 3122 666 
L 3122 134 
Q 2881 22 2623 -34 
Q 2366 -91 2075 -91 
Q 1284 -91 818 406 
Q 353 903 353 1747 
Q 353 2603 823 3093 
Q 1294 3584 2113 3584 
Q 2378 3584 2631 3529 
Q 2884 3475 3122 3366 
z
" transform="scale(0.015625)"/>
      <path id="DejaVuSans-65" d="M 3597 1894 
L 3597 1613 
L 953 1613 
Q 991 1019 1311 708 
Q 1631 397 2203 397 
Q 2534 397 2845 478 
Q 3156 559 3463 722 
L 3463 178 
Q 3153 47 2828 -22 
Q 2503 -91 2169 -91 
Q 1331 -91 842 396 
Q 353 884 353 1716 
Q 353 2575 817 3079 
Q 1281 3584 2069 3584 
Q 2775 3584 3186 3129 
Q 3597 2675 3597 1894 
z
M 3022 2063 
Q 3016 2534 2758 2815 
Q 2500 3097 2075 3097 
Q 1594 3097 1305 2825 
Q 1016 2553 972 2059 
L 3022 2063 
z
" transform="scale(0.015625)"/>
      <path id="DejaVuSans-39" d="M 703 97 
L 703 672 
Q 941 559 1184 500 
Q 1428 441 1663 441 
Q 2288 441 2617 861 
Q 2947 1281 2994 2138 
Q 2813 1869 2534 1725 
Q 2256 1581 1919 1581 
Q 1219 1581 811 2004 
Q 403 2428 403 3163 
Q 403 3881 828 4315 
Q 1253 4750 1959 4750 
Q 2769 4750 3195 4129 
Q 3622 3509 3622 2328 
Q 3622 1225 3098 567 
Q 2575 -91 1691 -91 
Q 1453 -91 1209 -44 
Q 966 3 703 97 
z
M 1959 2075 
Q 2384 2075 2632 2365 
Q 2881 2656 2881 3163 
Q 2881 3666 2632 3958 
Q 2384 4250 1959 4250 
Q 1534 4250 1286 3958 
Q 1038 3666 1038 3163 
Q 1038 2656 1286 2365 
Q 1534 2075 1959 2075 
z
" transform="scale(0.015625)"/>
      <path id="DejaVuSans-2d" d="M 313 2009 
L 1997 2009 
L 1997 1497 
L 313 1497 
L 313 2009 
z
" transform="scale(0.015625)"/>
      <path id="DejaVuSans-69" d="M 603 3500 
L 1178 3500 
L 1178 0 
L 603 0 
L 603 3500 
z
M 603 4863 
L 1178 4863 
L 1178 4134 
L 603 4134 
L 603 4863 
z
" transform="scale(0.015625)"/>
      <path id="DejaVuSans-76" d="M 191 3500 
L 800 3500 
L 1894 563 
L 2988 3500 
L 3597 3500 
L 2284 0 
L 1503 0 
L 191 3500 
z
" transform="scale(0.015625)"/>
     </defs>
     <use xlink:href="#DejaVuSans-73"/>
     <use xlink:href="#DejaVuSans-6f" x="52.099609"/>
     <use xlink:href="#DejaVuSans-75" x="113.28125"/>
     <use xlink:href="#DejaVuSans-72" x="176.660156"/>
     <use xlink:href="#DejaVuSans-63" x="215.523438"/>
     <use xlink:href="#DejaVuSans-65" x="270.503906"/>
     <use xlink:href="#DejaVuSans-39" x="332.027344"/>
     <use xlink:href="#DejaVuSans-2d" x="395.650391"/>
     <use xlink:href="#DejaVuSans-72" x="431.734375"/>
     <use xlink:href="#DejaVuSans-65" x="470.597656"/>
     <use xlink:href="#DejaVuSans-63" x="532.121094"/>
     <use xlink:href="#DejaVuSans-65" x="587.101562"/>
     <use xlink:href="#DejaVuSans-69" x="648.625"/>
     <use xlink:href="#DejaVuSans-76" x="676.408203"/>
     <use xlink:href="#DejaVuSans-65" x="735.587891"/>
     <use xlink:href="#DejaVuSans-72" x="797.111328"/>
     <use xlink:href="#DejaVuSans-32" x="838.224609"/>
     <use xlink:href="#DejaVuSans-30" x="901.847656"/>
    </g>
   </g>
  </g>
 </g>
 <defs>
  <clipPath id="pfb85d50b28">
   <rect x="180" y="69.12" width="1116" height="443.52"/>
  </clipPath>
 </defs>
</svg>
