<?xml version="1.0" encoding="utf-8" standalone="no"?>
<!DOCTYPE svg PUBLIC "-//W3C//DTD SVG 1.1//EN"
  "http://www.w3.org/Graphics/SVG/1.1/DTD/svg11.dtd">
<svg xmlns:xlink="http://www.w3.org/1999/xlink" width="1440pt" height="576pt" viewBox="0 0 1440 576" xmlns="http://www.w3.org/2000/svg" version="1.1">
 <metadata>
  <rdf:RDF xmlns:dc="http://purl.org/dc/elements/1.1/" xmlns:cc="http://creativecommons.org/ns#" xmlns:rdf="http://www.w3.org/1999/02/22-rdf-syntax-ns#">
   <cc:Work>
    <dc:type rdf:resource="http://purl.org/dc/dcmitype/StillImage"/>
    <dc:date>2024-05-22T04:49:56.543588</dc:date>
    <dc:format>image/svg+xml</dc:format>
    <dc:creator>
     <cc:Agent>
      <dc:title>Matplotlib v3.8.3, https://matplotlib.org/</dc:title>
     </cc:Agent>
    </dc:creator>
   </cc:Work>
  </rdf:RDF>
 </metadata>
 <defs>
  <style type="text/css">*{stroke-linejoin: round; stroke-linecap: butt}</style>
 </defs>
 <g id="figure_1">
  <g id="patch_1">
   <path d="M 0 576 
L 1440 576 
L 1440 0 
L 0 0 
z
" style="fill: #ffffff"/>
  </g>
  <g id="axes_1">
   <g id="patch_2">
    <path d="M 180 512.64 
L 1296 512.64 
L 1296 69.12 
L 180 69.12 
z
" style="fill: #ffffff"/>
   </g>
   <g id="matplotlib.axis_1">
    <g id="xtick_1">
     <g id="line2d_1">
      <defs>
       <path id="m6ca07ff9c3" d="M 0 0 
L 0 3.5 
" style="stroke: #000000; stroke-width: 0.8"/>
      </defs>
      <g>
       <use xlink:href="#m6ca07ff9c3" x="229.734567" y="512.64" style="stroke: #000000; stroke-width: 0.8"/>
      </g>
     </g>
     <g id="text_1">
      <!-- 0 -->
      <g transform="translate(226.553317 527.238438) scale(0.1 -0.1)">
       <defs>
        <path id="DejaVuSans-30" d="M 2034 4250 
Q 1547 4250 1301 3770 
Q 1056 3291 1056 2328 
Q 1056 1369 1301 889 
Q 1547 409 2034 409 
Q 2525 409 2770 889 
Q 3016 1369 3016 2328 
Q 3016 3291 2770 3770 
Q 2525 4250 2034 4250 
z
M 2034 4750 
Q 2819 4750 3233 4129 
Q 3647 3509 3647 2328 
Q 3647 1150 3233 529 
Q 2819 -91 2034 -91 
Q 1250 -91 836 529 
Q 422 1150 422 2328 
Q 422 3509 836 4129 
Q 1250 4750 2034 4750 
z
" transform="scale(0.015625)"/>
       </defs>
       <use xlink:href="#DejaVuSans-30"/>
      </g>
     </g>
    </g>
    <g id="xtick_2">
     <g id="line2d_2">
      <g>
       <use xlink:href="#m6ca07ff9c3" x="433.04074" y="512.64" style="stroke: #000000; stroke-width: 0.8"/>
      </g>
     </g>
     <g id="text_2">
      <!-- 500 -->
      <g transform="translate(423.49699 527.238438) scale(0.1 -0.1)">
       <defs>
        <path id="DejaVuSans-35" d="M 691 4666 
L 3169 4666 
L 3169 4134 
L 1269 4134 
L 1269 2991 
Q 1406 3038 1543 3061 
Q 1681 3084 1819 3084 
Q 2600 3084 3056 2656 
Q 3513 2228 3513 1497 
Q 3513 744 3044 326 
Q 2575 -91 1722 -91 
Q 1428 -91 1123 -41 
Q 819 9 494 109 
L 494 744 
Q 775 591 1075 516 
Q 1375 441 1709 441 
Q 2250 441 2565 725 
Q 2881 1009 2881 1497 
Q 2881 1984 2565 2268 
Q 2250 2553 1709 2553 
Q 1456 2553 1204 2497 
Q 953 2441 691 2322 
L 691 4666 
z
" transform="scale(0.015625)"/>
       </defs>
       <use xlink:href="#DejaVuSans-35"/>
       <use xlink:href="#DejaVuSans-30" x="63.623047"/>
       <use xlink:href="#DejaVuSans-30" x="127.246094"/>
      </g>
     </g>
    </g>
    <g id="xtick_3">
     <g id="line2d_3">
      <g>
       <use xlink:href="#m6ca07ff9c3" x="636.346913" y="512.64" style="stroke: #000000; stroke-width: 0.8"/>
      </g>
     </g>
     <g id="text_3">
      <!-- 1000 -->
      <g transform="translate(623.621913 527.238438) scale(0.1 -0.1)">
       <defs>
        <path id="DejaVuSans-31" d="M 794 531 
L 1825 531 
L 1825 4091 
L 703 3866 
L 703 4441 
L 1819 4666 
L 2450 4666 
L 2450 531 
L 3481 531 
L 3481 0 
L 794 0 
L 794 531 
z
" transform="scale(0.015625)"/>
       </defs>
       <use xlink:href="#DejaVuSans-31"/>
       <use xlink:href="#DejaVuSans-30" x="63.623047"/>
       <use xlink:href="#DejaVuSans-30" x="127.246094"/>
       <use xlink:href="#DejaVuSans-30" x="190.869141"/>
      </g>
     </g>
    </g>
    <g id="xtick_4">
     <g id="line2d_4">
      <g>
       <use xlink:href="#m6ca07ff9c3" x="839.653087" y="512.64" style="stroke: #000000; stroke-width: 0.8"/>
      </g>
     </g>
     <g id="text_4">
      <!-- 1500 -->
      <g transform="translate(826.928087 527.238438) scale(0.1 -0.1)">
       <use xlink:href="#DejaVuSans-31"/>
       <use xlink:href="#DejaVuSans-35" x="63.623047"/>
       <use xlink:href="#DejaVuSans-30" x="127.246094"/>
       <use xlink:href="#DejaVuSans-30" x="190.869141"/>
      </g>
     </g>
    </g>
    <g id="xtick_5">
     <g id="line2d_5">
      <g>
       <use xlink:href="#m6ca07ff9c3" x="1042.95926" y="512.64" style="stroke: #000000; stroke-width: 0.8"/>
      </g>
     </g>
     <g id="text_5">
      <!-- 2000 -->
      <g transform="translate(1030.23426 527.238438) scale(0.1 -0.1)">
       <defs>
        <path id="DejaVuSans-32" d="M 1228 531 
L 3431 531 
L 3431 0 
L 469 0 
L 469 531 
Q 828 903 1448 1529 
Q 2069 2156 2228 2338 
Q 2531 2678 2651 2914 
Q 2772 3150 2772 3378 
Q 2772 3750 2511 3984 
Q 2250 4219 1831 4219 
Q 1534 4219 1204 4116 
Q 875 4013 500 3803 
L 500 4441 
Q 881 4594 1212 4672 
Q 1544 4750 1819 4750 
Q 2544 4750 2975 4387 
Q 3406 4025 3406 3419 
Q 3406 3131 3298 2873 
Q 3191 2616 2906 2266 
Q 2828 2175 2409 1742 
Q 1991 1309 1228 531 
z
" transform="scale(0.015625)"/>
       </defs>
       <use xlink:href="#DejaVuSans-32"/>
       <use xlink:href="#DejaVuSans-30" x="63.623047"/>
       <use xlink:href="#DejaVuSans-30" x="127.246094"/>
       <use xlink:href="#DejaVuSans-30" x="190.869141"/>
      </g>
     </g>
    </g>
    <g id="xtick_6">
     <g id="line2d_6">
      <g>
       <use xlink:href="#m6ca07ff9c3" x="1246.265433" y="512.64" style="stroke: #000000; stroke-width: 0.8"/>
      </g>
     </g>
     <g id="text_6">
      <!-- 2500 -->
      <g transform="translate(1233.540433 527.238438) scale(0.1 -0.1)">
       <use xlink:href="#DejaVuSans-32"/>
       <use xlink:href="#DejaVuSans-35" x="63.623047"/>
       <use xlink:href="#DejaVuSans-30" x="127.246094"/>
       <use xlink:href="#DejaVuSans-30" x="190.869141"/>
      </g>
     </g>
    </g>
   </g>
   <g id="matplotlib.axis_2">
    <g id="ytick_1">
     <g id="line2d_7">
      <defs>
       <path id="mea02a9d28a" d="M 0 0 
L -3.5 0 
" style="stroke: #000000; stroke-width: 0.8"/>
      </defs>
      <g>
       <use xlink:href="#mea02a9d28a" x="180" y="508.087921" style="stroke: #000000; stroke-width: 0.8"/>
      </g>
     </g>
     <g id="text_7">
      <!-- −3 -->
      <g transform="translate(158.257812 511.88714) scale(0.1 -0.1)">
       <defs>
        <path id="DejaVuSans-2212" d="M 678 2272 
L 4684 2272 
L 4684 1741 
L 678 1741 
L 678 2272 
z
" transform="scale(0.015625)"/>
        <path id="DejaVuSans-33" d="M 2597 2516 
Q 3050 2419 3304 2112 
Q 3559 1806 3559 1356 
Q 3559 666 3084 287 
Q 2609 -91 1734 -91 
Q 1441 -91 1130 -33 
Q 819 25 488 141 
L 488 750 
Q 750 597 1062 519 
Q 1375 441 1716 441 
Q 2309 441 2620 675 
Q 2931 909 2931 1356 
Q 2931 1769 2642 2001 
Q 2353 2234 1838 2234 
L 1294 2234 
L 1294 2753 
L 1863 2753 
Q 2328 2753 2575 2939 
Q 2822 3125 2822 3475 
Q 2822 3834 2567 4026 
Q 2313 4219 1838 4219 
Q 1578 4219 1281 4162 
Q 984 4106 628 3988 
L 628 4550 
Q 988 4650 1302 4700 
Q 1616 4750 1894 4750 
Q 2613 4750 3031 4423 
Q 3450 4097 3450 3541 
Q 3450 3153 3228 2886 
Q 3006 2619 2597 2516 
z
" transform="scale(0.015625)"/>
       </defs>
       <use xlink:href="#DejaVuSans-2212"/>
       <use xlink:href="#DejaVuSans-33" x="83.789062"/>
      </g>
     </g>
    </g>
    <g id="ytick_2">
     <g id="line2d_8">
      <g>
       <use xlink:href="#mea02a9d28a" x="180" y="454.838798" style="stroke: #000000; stroke-width: 0.8"/>
      </g>
     </g>
     <g id="text_8">
      <!-- −2 -->
      <g transform="translate(158.257812 458.638017) scale(0.1 -0.1)">
       <use xlink:href="#DejaVuSans-2212"/>
       <use xlink:href="#DejaVuSans-32" x="83.789062"/>
      </g>
     </g>
    </g>
    <g id="ytick_3">
     <g id="line2d_9">
      <g>
       <use xlink:href="#mea02a9d28a" x="180" y="401.589674" style="stroke: #000000; stroke-width: 0.8"/>
      </g>
     </g>
     <g id="text_9">
      <!-- −1 -->
      <g transform="translate(158.257812 405.388893) scale(0.1 -0.1)">
       <use xlink:href="#DejaVuSans-2212"/>
       <use xlink:href="#DejaVuSans-31" x="83.789062"/>
      </g>
     </g>
    </g>
    <g id="ytick_4">
     <g id="line2d_10">
      <g>
       <use xlink:href="#mea02a9d28a" x="180" y="348.340551" style="stroke: #000000; stroke-width: 0.8"/>
      </g>
     </g>
     <g id="text_10">
      <!-- 0 -->
      <g transform="translate(166.6375 352.139769) scale(0.1 -0.1)">
       <use xlink:href="#DejaVuSans-30"/>
      </g>
     </g>
    </g>
    <g id="ytick_5">
     <g id="line2d_11">
      <g>
       <use xlink:href="#mea02a9d28a" x="180" y="295.091427" style="stroke: #000000; stroke-width: 0.8"/>
      </g>
     </g>
     <g id="text_11">
      <!-- 1 -->
      <g transform="translate(166.6375 298.890646) scale(0.1 -0.1)">
       <use xlink:href="#DejaVuSans-31"/>
      </g>
     </g>
    </g>
    <g id="ytick_6">
     <g id="line2d_12">
      <g>
       <use xlink:href="#mea02a9d28a" x="180" y="241.842303" style="stroke: #000000; stroke-width: 0.8"/>
      </g>
     </g>
     <g id="text_12">
      <!-- 2 -->
      <g transform="translate(166.6375 245.641522) scale(0.1 -0.1)">
       <use xlink:href="#DejaVuSans-32"/>
      </g>
     </g>
    </g>
    <g id="ytick_7">
     <g id="line2d_13">
      <g>
       <use xlink:href="#mea02a9d28a" x="180" y="188.59318" style="stroke: #000000; stroke-width: 0.8"/>
      </g>
     </g>
     <g id="text_13">
      <!-- 3 -->
      <g transform="translate(166.6375 192.392399) scale(0.1 -0.1)">
       <use xlink:href="#DejaVuSans-33"/>
      </g>
     </g>
    </g>
    <g id="ytick_8">
     <g id="line2d_14">
      <g>
       <use xlink:href="#mea02a9d28a" x="180" y="135.344056" style="stroke: #000000; stroke-width: 0.8"/>
      </g>
     </g>
     <g id="text_14">
      <!-- 4 -->
      <g transform="translate(166.6375 139.143275) scale(0.1 -0.1)">
       <defs>
        <path id="DejaVuSans-34" d="M 2419 4116 
L 825 1625 
L 2419 1625 
L 2419 4116 
z
M 2253 4666 
L 3047 4666 
L 3047 1625 
L 3713 1625 
L 3713 1100 
L 3047 1100 
L 3047 0 
L 2419 0 
L 2419 1100 
L 313 1100 
L 313 1709 
L 2253 4666 
z
" transform="scale(0.015625)"/>
       </defs>
       <use xlink:href="#DejaVuSans-34"/>
      </g>
     </g>
    </g>
    <g id="ytick_9">
     <g id="line2d_15">
      <g>
       <use xlink:href="#mea02a9d28a" x="180" y="82.094933" style="stroke: #000000; stroke-width: 0.8"/>
      </g>
     </g>
     <g id="text_15">
      <!-- 5 -->
      <g transform="translate(166.6375 85.894151) scale(0.1 -0.1)">
       <use xlink:href="#DejaVuSans-35"/>
      </g>
     </g>
    </g>
   </g>
   <g id="line2d_16">
    <path d="M 230.727273 322.734544 
L 232.712685 322.136763 
L 233.70539 321.722422 
L 234.698096 321.072108 
L 235.690802 320.238384 
L 237.676214 318.115706 
L 239.661626 314.994711 
L 240.654332 313.008262 
L 241.647038 310.744356 
L 242.639744 307.974867 
L 243.63245 304.648982 
L 244.625156 299.660965 
L 245.617862 291.906694 
L 246.610568 287.758755 
L 247.603273 286.493694 
L 249.588685 227.695193 
L 250.581391 223.436158 
L 251.574097 254.610587 
L 252.566803 279.258854 
L 253.559509 219.131475 
L 254.552215 205.541285 
L 255.544921 212.008051 
L 256.537627 227.961547 
L 257.530333 205.688299 
L 258.523039 190.564331 
L 259.515745 198.623083 
L 260.50845 210.022866 
L 261.501156 208.834381 
L 262.493862 214.781011 
L 263.486568 224.178573 
L 264.479274 332.360852 
L 265.47198 209.125255 
L 266.464686 188.965264 
L 267.457392 221.693895 
L 268.450098 242.208773 
L 269.442804 206.586913 
L 270.43551 214.469767 
L 271.428216 201.157804 
L 272.420922 185.862693 
L 273.413627 196.28291 
L 274.406333 223.855778 
L 275.399039 203.984912 
L 276.391745 254.570857 
L 277.384451 194.557333 
L 278.377157 167.907828 
L 279.369863 217.53782 
L 280.362569 133.929163 
L 281.355275 99.105942 
L 282.347981 92.09319 
L 283.340687 96.910242 
L 285.326099 89.28 
L 286.318804 100.8154 
L 287.31151 124.683869 
L 288.304216 127.562453 
L 289.296922 120.340256 
L 290.289628 127.545634 
L 291.282334 153.521942 
L 292.27504 172.65965 
L 293.267746 168.053488 
L 294.260452 185.082061 
L 295.253158 212.515532 
L 296.245864 272.304774 
L 297.23857 241.01196 
L 298.231276 221.592902 
L 299.223981 277.18425 
L 300.216687 266.298732 
L 301.209393 260.231293 
L 302.202099 263.141449 
L 303.194805 265.652696 
L 304.187511 365.880221 
L 305.180217 296.694314 
L 306.172923 316.427404 
L 307.165629 342.699796 
L 308.158335 320.193216 
L 309.151041 365.19866 
L 310.143747 343.695439 
L 311.136453 341.312264 
L 312.129159 376.655449 
L 313.121864 350.030351 
L 314.11457 366.369125 
L 315.107276 355.217667 
L 316.099982 352.170868 
L 317.092688 374.750898 
L 318.085394 351.494579 
L 319.0781 372.250062 
L 320.070806 358.989803 
L 321.063512 367.327833 
L 322.056218 365.806571 
L 323.048924 364.520836 
L 324.04163 373.630835 
L 325.034336 366.335052 
L 326.027041 369.849726 
L 327.019747 367.58226 
L 328.012453 383.334449 
L 329.005159 369.267303 
L 329.997865 386.545022 
L 330.990571 369.719527 
L 332.975983 387.16139 
L 333.968689 379.273952 
L 334.961395 373.798139 
L 335.954101 385.269776 
L 336.946807 379.194176 
L 337.939513 371.181689 
L 338.932218 394.839583 
L 339.924924 377.204743 
L 340.91763 384.945569 
L 342.903042 383.512972 
L 343.895748 379.795171 
L 344.888454 397.488514 
L 345.88116 386.585227 
L 346.873866 379.283208 
L 347.866572 401.509334 
L 348.859278 378.649958 
L 349.851984 386.448829 
L 350.84469 388.626548 
L 351.837395 391.227114 
L 352.830101 392.759679 
L 353.822807 390.193415 
L 354.815513 397.798688 
L 355.808219 382.603015 
L 356.800925 395.682985 
L 357.793631 401.343346 
L 358.786337 389.447319 
L 359.779043 399.0594 
L 360.771749 386.786936 
L 361.764455 398.325428 
L 362.757161 387.729239 
L 363.749867 395.88452 
L 364.742572 397.662259 
L 365.735278 395.001385 
L 366.727984 395.623979 
L 367.72069 397.171003 
L 368.713396 399.843691 
L 369.706102 405.831896 
L 370.698808 391.438352 
L 371.691514 396.128549 
L 372.68422 389.252621 
L 373.676926 401.806613 
L 374.669632 411.483715 
L 376.655044 399.952855 
L 377.64775 401.438708 
L 378.640455 398.666833 
L 379.633161 397.86685 
L 380.625867 410.331755 
L 381.618573 402.170753 
L 382.611279 408.551802 
L 383.603985 409.395096 
L 384.596691 418.32713 
L 385.589397 407.757678 
L 386.582103 410.956184 
L 387.574809 423.828218 
L 388.567515 402.814662 
L 389.560221 411.648711 
L 390.552927 408.774154 
L 391.545632 414.342643 
L 392.538338 412.490714 
L 393.531044 411.50781 
L 394.52375 405.159807 
L 395.516456 413.649513 
L 396.509162 409.07189 
L 397.501868 410.199063 
L 398.494574 415.387023 
L 399.48728 423.483571 
L 400.479986 415.455722 
L 401.472692 422.10857 
L 402.465398 407.719747 
L 403.458104 403.946916 
L 404.450809 416.46848 
L 405.443515 419.964202 
L 406.436221 429.302228 
L 407.428927 415.254086 
L 408.421633 415.831531 
L 409.414339 418.626928 
L 410.407045 418.265383 
L 411.399751 416.66599 
L 412.392457 421.921632 
L 413.385163 430.676533 
L 414.377869 415.434913 
L 415.370575 422.853561 
L 416.363281 418.649174 
L 417.355986 412.406074 
L 418.348692 432.020893 
L 419.341398 418.153554 
L 420.334104 430.292596 
L 421.32681 416.797983 
L 422.319516 419.997027 
L 423.312222 424.452214 
L 424.304928 439.017163 
L 425.297634 412.570908 
L 426.29034 415.885659 
L 427.283046 450.526545 
L 428.275752 412.435953 
L 429.268458 415.357949 
L 430.261163 441.013781 
L 431.253869 445.097142 
L 432.246575 421.386482 
L 433.239281 413.622942 
L 434.231987 422.706299 
L 435.224693 422.894531 
L 436.217399 422.586157 
L 437.210105 412.652318 
L 438.202811 432.315014 
L 439.195517 420.726966 
L 440.188223 423.576913 
L 441.180929 420.942367 
L 442.173635 426.801158 
L 443.166341 424.401887 
L 444.159046 435.022176 
L 445.151752 437.643319 
L 446.144458 435.60234 
L 447.137164 423.479711 
L 448.12987 422.555685 
L 449.122576 437.908804 
L 450.115282 431.247043 
L 451.107988 423.710302 
L 452.100694 429.70356 
L 453.0934 429.229532 
L 454.086106 429.398285 
L 455.078812 432.541856 
L 456.071518 425.548334 
L 457.064223 445.142642 
L 458.056929 429.206161 
L 459.049635 425.231859 
L 460.042341 432.733374 
L 461.035047 427.377005 
L 462.027753 430.524846 
L 463.020459 445.397197 
L 464.013165 427.307543 
L 465.005871 438.332959 
L 465.998577 433.784651 
L 466.991283 432.89401 
L 467.983989 434.092203 
L 468.976695 433.527894 
L 469.9694 429.193998 
L 470.962106 434.788921 
L 471.954812 434.54953 
L 472.947518 436.810387 
L 473.940224 433.966759 
L 474.93293 444.565191 
L 475.925636 438.995501 
L 476.918342 434.815193 
L 477.911048 438.345854 
L 478.903754 434.390443 
L 479.89646 434.289544 
L 480.889166 442.593924 
L 481.881872 430.481783 
L 482.874577 428.73733 
L 483.867283 436.485435 
L 484.859989 439.598049 
L 485.852695 434.919343 
L 486.845401 441.348551 
L 487.838107 423.270408 
L 488.830813 433.645342 
L 489.823519 429.990865 
L 490.816225 431.335427 
L 492.801637 437.151312 
L 493.794343 427.9979 
L 494.787049 433.164761 
L 495.779754 442.516041 
L 496.77246 446.168721 
L 497.765166 438.327297 
L 498.757872 451.333138 
L 499.750578 446.71553 
L 500.743284 458.687782 
L 501.73599 446.123461 
L 502.728696 447.654603 
L 503.721402 441.875228 
L 504.714108 439.380937 
L 505.706814 439.485041 
L 506.69952 432.964308 
L 507.692226 434.810144 
L 508.684932 451.311509 
L 509.677637 429.964128 
L 510.670343 445.981149 
L 511.663049 433.919776 
L 512.655755 443.137697 
L 513.648461 436.952957 
L 514.641167 437.819321 
L 515.633873 433.631223 
L 516.626579 446.368919 
L 517.619285 449.215895 
L 518.611991 433.574346 
L 519.604697 454.316972 
L 520.597403 442.709918 
L 521.590109 446.779365 
L 522.582814 455.517309 
L 523.57552 469.055779 
L 524.568226 432.745511 
L 525.560932 428.735762 
L 526.553638 449.706355 
L 527.546344 438.825815 
L 528.53905 456.467755 
L 529.531756 457.037787 
L 530.524462 440.840731 
L 531.517168 456.875202 
L 532.509874 437.90072 
L 533.50258 472.38505 
L 535.487991 444.164484 
L 536.480697 442.749551 
L 537.473403 439.383362 
L 538.466109 444.6338 
L 539.458815 475.846232 
L 540.451521 435.692351 
L 541.444227 442.375531 
L 542.436933 457.944639 
L 543.429639 449.857253 
L 544.422345 448.402828 
L 545.415051 438.93931 
L 546.407757 448.941238 
L 547.400463 444.278801 
L 548.393168 461.904719 
L 549.385874 464.682959 
L 550.37858 450.306862 
L 551.371286 445.694976 
L 552.363992 455.032229 
L 553.356698 461.527826 
L 554.349404 439.956305 
L 555.34211 478.596226 
L 556.334816 453.655435 
L 557.327522 449.158902 
L 558.320228 447.210353 
L 559.312934 483.432991 
L 560.30564 437.498007 
L 561.298345 450.083293 
L 562.291051 458.715611 
L 563.283757 444.721352 
L 564.276463 442.257479 
L 565.269169 454.661148 
L 566.261875 455.965854 
L 567.254581 438.775434 
L 568.247287 463.553316 
L 570.232699 446.851877 
L 571.225405 447.408501 
L 572.218111 437.155205 
L 573.210817 441.671577 
L 574.203523 461.63164 
L 575.196228 447.542405 
L 576.188934 443.003718 
L 577.18164 446.864908 
L 578.174346 465.581156 
L 579.167052 442.219212 
L 580.159758 445.714108 
L 581.152464 456.8697 
L 582.14517 445.654883 
L 583.137876 453.330026 
L 584.130582 456.993823 
L 585.123288 450.595169 
L 586.115994 447.214959 
L 587.1087 453.075867 
L 588.101405 447.549078 
L 589.094111 458.433428 
L 590.086817 464.520524 
L 591.079523 456.819206 
L 592.072229 457.595318 
L 593.064935 461.525625 
L 594.057641 454.676894 
L 595.050347 455.229404 
L 596.043053 460.268867 
L 597.035759 457.999169 
L 598.028465 457.607325 
L 599.021171 467.014024 
L 600.013877 473.940866 
L 601.006582 453.002261 
L 601.999288 464.670476 
L 602.991994 466.042039 
L 603.9847 452.55299 
L 604.977406 448.412604 
L 605.970112 451.387776 
L 606.962818 462.841277 
L 607.955524 444.89294 
L 609.940936 458.223315 
L 610.933642 462.622672 
L 611.926348 456.915117 
L 612.919054 457.132467 
L 613.911759 458.801592 
L 614.904465 459.525578 
L 615.897171 463.099235 
L 616.889877 457.057432 
L 617.882583 456.985871 
L 618.875289 458.452366 
L 619.867995 456.348487 
L 620.860701 467.616054 
L 621.853407 461.360469 
L 622.846113 461.059207 
L 623.838819 462.644982 
L 624.831525 452.769823 
L 625.824231 463.931669 
L 626.816936 452.915922 
L 627.809642 459.190619 
L 628.802348 457.400851 
L 629.795054 462.632331 
L 630.78776 460.30928 
L 631.780466 466.313396 
L 632.773172 460.87835 
L 633.765878 460.904575 
L 634.758584 463.334031 
L 635.75129 468.222354 
L 636.743996 456.448948 
L 637.736702 474.349104 
L 638.729408 461.156969 
L 639.722114 461.976745 
L 640.714819 459.200615 
L 641.707525 464.01742 
L 642.700231 460.619097 
L 643.692937 459.981753 
L 644.685643 463.150679 
L 645.678349 463.66756 
L 646.671055 461.991032 
L 647.663761 459.193608 
L 648.656467 463.767754 
L 649.649173 462.009447 
L 650.641879 462.622993 
L 651.634585 463.640688 
L 652.627291 462.822429 
L 653.619996 459.093353 
L 654.612702 459.339044 
L 655.605408 466.131192 
L 656.598114 465.408077 
L 657.59082 460.995289 
L 658.583526 461.36758 
L 659.576232 463.430571 
L 660.568938 464.568242 
L 661.561644 464.134398 
L 662.55435 466.082812 
L 663.547056 463.975379 
L 664.539762 465.302005 
L 665.532468 464.505026 
L 666.525173 465.09422 
L 667.517879 464.105227 
L 668.510585 466.517821 
L 669.503291 465.265201 
L 670.495997 463.584578 
L 671.488703 467.541389 
L 672.481409 465.126801 
L 673.474115 464.534384 
L 674.466821 465.788294 
L 675.459527 465.130833 
L 677.444939 465.229207 
L 678.437645 465.41821 
L 679.43035 467.780609 
L 680.423056 463.854684 
L 681.415762 466.512934 
L 682.408468 464.503099 
L 683.401174 465.870091 
L 684.39388 467.041891 
L 685.386586 466.430718 
L 686.379292 466.476871 
L 687.371998 467.483531 
L 688.364704 467.384175 
L 689.35741 466.035544 
L 690.350116 467.980218 
L 691.342822 469.295536 
L 692.335527 468.16732 
L 693.328233 469.485473 
L 694.320939 467.576281 
L 695.313645 468.632849 
L 696.306351 467.634423 
L 697.299057 467.973737 
L 698.291763 469.922333 
L 699.284469 468.272328 
L 700.277175 468.626826 
L 701.269881 469.602856 
L 702.262587 467.994055 
L 703.255293 468.694445 
L 704.247999 468.99195 
L 706.23341 469.913153 
L 707.226116 467.845928 
L 708.218822 469.238912 
L 709.211528 469.498092 
L 710.204234 468.968015 
L 711.19694 469.686653 
L 712.189646 469.93593 
L 713.182352 471.481176 
L 714.175058 469.761967 
L 715.167764 469.996771 
L 716.16047 469.11031 
L 717.153176 470.007443 
L 718.145882 471.512661 
L 719.138587 470.362404 
L 720.131293 470.014739 
L 721.123999 470.222124 
L 722.116705 469.924237 
L 723.109411 470.497996 
L 726.087529 471.785381 
L 727.080235 470.387011 
L 728.072941 472.110078 
L 729.065647 470.861945 
L 731.051059 471.804411 
L 732.043764 471.831706 
L 733.03647 471.637296 
L 734.029176 472.632653 
L 735.021882 470.567751 
L 736.014588 472.008262 
L 737.007294 472.350825 
L 738 471.256062 
L 738.992706 471.562182 
L 739.985412 471.555965 
L 740.978118 473.3396 
L 741.970824 473.411657 
L 742.96353 471.663864 
L 744.948941 472.454654 
L 745.941647 471.914235 
L 746.934353 472.896403 
L 747.927059 472.058996 
L 748.919765 473.116507 
L 749.912471 473.313874 
L 750.905177 472.123403 
L 751.897883 474.312325 
L 753.883295 473.063367 
L 754.876001 474.072801 
L 755.868707 474.822387 
L 756.861413 473.771273 
L 757.854118 475.033727 
L 758.846824 473.204794 
L 759.83953 474.61811 
L 760.832236 473.200442 
L 761.824942 473.178045 
L 762.817648 475.014806 
L 763.810354 473.771677 
L 764.80306 473.607051 
L 765.795766 474.318815 
L 766.788472 473.927995 
L 767.781178 474.574811 
L 768.773884 474.730163 
L 769.76659 474.454553 
L 770.759295 474.044285 
L 771.752001 475.604645 
L 772.744707 475.522574 
L 773.737413 474.277724 
L 774.730119 475.203613 
L 775.722825 473.935864 
L 776.715531 475.565511 
L 777.708237 474.201646 
L 778.700943 474.467295 
L 779.693649 475.489641 
L 780.686355 475.282991 
L 781.679061 475.592055 
L 782.671767 474.876232 
L 783.664473 475.488506 
L 784.657178 476.308432 
L 785.649884 474.81662 
L 786.64259 476.036063 
L 787.635296 475.553544 
L 788.628002 475.969371 
L 789.620708 475.843948 
L 790.613414 476.242186 
L 791.60612 476.38746 
L 792.598826 475.734588 
L 793.591532 476.931055 
L 794.584238 477.240227 
L 795.576944 477.29601 
L 796.56965 475.346612 
L 797.562355 477.031717 
L 798.555061 477.851919 
L 799.547767 476.436417 
L 800.540473 476.596776 
L 801.533179 476.642814 
L 802.525885 477.178557 
L 803.518591 476.03519 
L 805.504003 476.754567 
L 806.496709 477.947573 
L 808.482121 477.344454 
L 809.474827 478.480779 
L 810.467532 478.359729 
L 811.460238 477.017423 
L 812.452944 477.879013 
L 813.44565 477.501342 
L 814.438356 478.849938 
L 815.431062 478.480322 
L 816.423768 477.255 
L 817.416474 476.855421 
L 818.40918 477.438273 
L 819.401886 476.939739 
L 820.394592 478.403928 
L 821.387298 478.633878 
L 822.380004 479.738032 
L 823.372709 478.564696 
L 824.365415 477.937918 
L 825.358121 478.609961 
L 826.350827 478.055708 
L 827.343533 478.791253 
L 828.336239 478.752281 
L 829.328945 478.19501 
L 830.321651 479.163172 
L 831.314357 479.1038 
L 832.307063 480.385865 
L 833.299769 480.124573 
L 834.292475 479.240155 
L 835.285181 480.047637 
L 836.277886 480.452589 
L 837.270592 478.763361 
L 839.256004 479.685985 
L 840.24871 478.78153 
L 841.241416 480.562343 
L 842.234122 479.725213 
L 843.226828 480.466643 
L 844.219534 479.586812 
L 845.21224 479.615712 
L 846.204946 478.77618 
L 847.197652 479.925268 
L 848.190358 479.631293 
L 849.183064 480.966879 
L 850.175769 480.437578 
L 851.168475 481.419606 
L 852.161181 480.138479 
L 853.153887 479.857841 
L 854.146593 479.415658 
L 855.139299 480.529022 
L 856.132005 479.394319 
L 857.124711 479.97824 
L 859.110123 480.030581 
L 860.102829 482.225786 
L 861.095535 480.315502 
L 862.088241 480.709164 
L 864.073652 480.790692 
L 865.066358 481.177663 
L 866.059064 480.557875 
L 867.05177 480.450481 
L 868.044476 480.195122 
L 869.037182 480.448492 
L 870.029888 480.861563 
L 871.022594 480.401687 
L 872.0153 481.037891 
L 874.000712 480.767569 
L 874.993418 481.803661 
L 875.986123 481.312527 
L 876.978829 481.39633 
L 877.971535 482.020869 
L 878.964241 481.549992 
L 879.956947 481.941547 
L 880.949653 481.226921 
L 881.942359 481.495105 
L 882.935065 482.321885 
L 883.927771 482.48746 
L 884.920477 482.954181 
L 886.905889 482.740924 
L 887.898595 482.265 
L 888.8913 481.185774 
L 889.884006 482.67076 
L 890.876712 482.458131 
L 891.869418 481.800594 
L 892.862124 483.026656 
L 893.85483 482.399291 
L 894.847536 482.564158 
L 895.840242 482.237715 
L 896.832948 482.049794 
L 897.825654 483.106345 
L 898.81836 482.361899 
L 899.811066 483.308682 
L 900.803772 483.039231 
L 901.796477 483.564398 
L 902.789183 482.767402 
L 903.781889 482.548504 
L 904.774595 483.251912 
L 905.767301 483.467215 
L 906.760007 483.52115 
L 907.752713 483.170394 
L 908.745419 482.124983 
L 909.738125 482.385256 
L 910.730831 483.473182 
L 911.723537 483.96426 
L 912.716243 482.966062 
L 913.708949 484.277219 
L 914.701655 484.263708 
L 915.69436 483.852196 
L 916.687066 483.773516 
L 917.679772 484.654103 
L 918.672478 484.510374 
L 919.665184 483.570366 
L 920.65789 484.27689 
L 921.650596 483.265693 
L 922.643302 482.63772 
L 923.636008 484.564748 
L 924.628714 484.070894 
L 925.62142 483.927822 
L 926.614126 482.778707 
L 927.606832 485.138745 
L 928.599537 484.171639 
L 929.592243 483.706689 
L 930.584949 484.314793 
L 931.577655 484.136562 
L 932.570361 484.306549 
L 933.563067 483.993399 
L 934.555773 485.162167 
L 935.548479 483.898387 
L 936.541185 483.547627 
L 937.533891 482.649629 
L 938.526597 484.749648 
L 939.519303 485.165885 
L 940.512009 484.493429 
L 941.504714 484.034522 
L 942.49742 484.945032 
L 943.490126 484.988494 
L 944.482832 484.883846 
L 945.475538 484.58672 
L 948.453656 485.136471 
L 949.446362 485.149851 
L 950.439068 484.578057 
L 951.431774 485.088147 
L 952.42448 485.869488 
L 953.417186 485.14812 
L 954.409891 486.055183 
L 955.402597 484.569532 
L 956.395303 484.851666 
L 957.388009 485.782289 
L 958.380715 484.791035 
L 959.373421 485.676959 
L 960.366127 485.002126 
L 961.358833 485.183554 
L 962.351539 484.859083 
L 963.344245 486.211113 
L 964.336951 485.227207 
L 965.329657 485.788346 
L 966.322363 485.406103 
L 967.315068 484.445618 
L 968.307774 485.431495 
L 969.30048 485.481787 
L 970.293186 485.294212 
L 971.285892 486.133575 
L 973.271304 486.001041 
L 974.26401 486.606396 
L 975.256716 486.346702 
L 976.249422 484.440383 
L 977.242128 486.839484 
L 978.234834 485.755046 
L 979.22754 486.365725 
L 980.220246 486.21515 
L 981.212951 484.574666 
L 982.205657 485.249988 
L 983.198363 484.963968 
L 984.191069 486.468153 
L 985.183775 486.322936 
L 986.176481 486.497771 
L 987.169187 486.88271 
L 988.161893 486.302677 
L 989.154599 486.335557 
L 990.147305 486.775553 
L 991.140011 487.449157 
L 992.132717 486.098614 
L 993.125423 486.827844 
L 994.118128 488.021362 
L 995.110834 487.059635 
L 996.10354 486.544606 
L 997.096246 486.854905 
L 998.088952 486.037787 
L 999.081658 485.777258 
L 1000.074364 487.075181 
L 1001.06707 486.199112 
L 1002.059776 486.904497 
L 1003.052482 487.448685 
L 1004.045188 486.593352 
L 1005.037894 486.872724 
L 1006.0306 487.66167 
L 1007.023305 487.553317 
L 1008.016011 486.713116 
L 1009.008717 487.339767 
L 1010.001423 487.702462 
L 1010.994129 487.353696 
L 1011.986835 487.750506 
L 1012.979541 488.518835 
L 1013.972247 487.477526 
L 1014.964953 487.188118 
L 1015.957659 487.694896 
L 1016.950365 487.774357 
L 1018.935777 487.278699 
L 1019.928482 486.844904 
L 1020.921188 487.916933 
L 1021.913894 487.73623 
L 1022.9066 486.717449 
L 1023.899306 488.213933 
L 1025.884718 487.568506 
L 1026.877424 486.906589 
L 1027.87013 489.102323 
L 1028.862836 488.257453 
L 1029.855542 488.258713 
L 1030.848248 489.189462 
L 1031.840954 486.037571 
L 1032.833659 487.922031 
L 1033.826365 487.299125 
L 1034.819071 487.316089 
L 1035.811777 487.597671 
L 1036.804483 489.070226 
L 1037.797189 488.44419 
L 1038.789895 488.261528 
L 1039.782601 487.487322 
L 1040.775307 488.796803 
L 1041.768013 488.63146 
L 1042.760719 488.317226 
L 1043.753425 486.869801 
L 1044.746131 486.905405 
L 1045.738837 487.859959 
L 1046.731542 488.20914 
L 1047.724248 487.789465 
L 1048.716954 488.753565 
L 1049.70966 488.432727 
L 1050.702366 489.30529 
L 1051.695072 488.286006 
L 1052.687778 488.250442 
L 1053.680484 488.619381 
L 1054.67319 488.693246 
L 1055.665896 489.901105 
L 1057.651308 487.98457 
L 1058.644014 487.894244 
L 1059.636719 488.752444 
L 1060.629425 489.270411 
L 1061.622131 489.599774 
L 1063.607543 488.403719 
L 1064.600249 490.459375 
L 1065.592955 488.747185 
L 1066.585661 488.537377 
L 1067.578367 489.05406 
L 1068.571073 489.27354 
L 1069.563779 487.959945 
L 1070.556485 488.443099 
L 1071.549191 489.400479 
L 1072.541896 488.286616 
L 1073.534602 489.126649 
L 1074.527308 489.14066 
L 1075.520014 488.915223 
L 1076.51272 488.203188 
L 1077.505426 489.980886 
L 1078.498132 490.382588 
L 1079.490838 489.932018 
L 1080.483544 488.771829 
L 1081.47625 489.054996 
L 1082.468956 488.19872 
L 1083.461662 489.658189 
L 1084.454368 489.951993 
L 1085.447073 488.703744 
L 1087.432485 489.965664 
L 1088.425191 489.77464 
L 1089.417897 488.962684 
L 1090.410603 489.496348 
L 1091.403309 488.526232 
L 1092.396015 489.545402 
L 1093.388721 489.574925 
L 1094.381427 489.240259 
L 1095.374133 489.507923 
L 1096.366839 490.403796 
L 1097.359545 489.068871 
L 1098.35225 489.545888 
L 1099.344956 489.119597 
L 1100.337662 490.073399 
L 1101.330368 490.127144 
L 1102.323074 489.44443 
L 1103.31578 489.212473 
L 1104.308486 489.931672 
L 1105.301192 489.368328 
L 1106.293898 490.10573 
L 1107.286604 489.419154 
L 1108.27931 489.456499 
L 1109.272016 490.242662 
L 1110.264722 490.205639 
L 1111.257428 489.746657 
L 1112.250133 490.369838 
L 1113.242839 490.606365 
L 1114.235545 490.155252 
L 1115.228251 490.689519 
L 1116.220957 489.878185 
L 1117.213663 490.329103 
L 1118.206369 489.143546 
L 1119.199075 488.949214 
L 1120.191781 489.383283 
L 1122.177193 489.046011 
L 1123.169899 489.872335 
L 1124.162605 489.075986 
L 1125.15531 489.739067 
L 1126.148016 490.199257 
L 1127.140722 490.446053 
L 1128.133428 490.37592 
L 1129.126134 489.510252 
L 1130.11884 489.443148 
L 1131.111546 490.369364 
L 1132.104252 491.018165 
L 1133.096958 490.051526 
L 1134.089664 489.860284 
L 1135.08237 489.24935 
L 1136.075076 490.164075 
L 1137.067782 490.311398 
L 1138.060487 491.167175 
L 1139.053193 491.042947 
L 1140.045899 489.701292 
L 1141.038605 490.370358 
L 1142.031311 490.020137 
L 1143.024017 489.899942 
L 1144.016723 490.449148 
L 1145.009429 489.434988 
L 1146.002135 489.70153 
L 1146.994841 491.390003 
L 1147.987547 488.942031 
L 1148.980253 490.826869 
L 1149.972959 490.73003 
L 1150.965664 489.546133 
L 1151.95837 489.603504 
L 1153.943782 490.805404 
L 1154.936488 490.860169 
L 1155.929194 489.959043 
L 1156.9219 489.968958 
L 1157.914606 490.718844 
L 1158.907312 489.389212 
L 1159.900018 489.7511 
L 1160.892724 490.958795 
L 1161.88543 490.156902 
L 1162.878136 489.742757 
L 1163.870841 489.724508 
L 1164.863547 490.486056 
L 1165.856253 491.029578 
L 1166.848959 490.370075 
L 1167.841665 489.938832 
L 1168.834371 491.428719 
L 1169.827077 490.411623 
L 1170.819783 490.168257 
L 1171.812489 491.345656 
L 1172.805195 491.440349 
L 1173.797901 491.353121 
L 1174.790607 490.288145 
L 1175.783313 490.267088 
L 1176.776019 490.088856 
L 1177.768724 491.25914 
L 1178.76143 490.311875 
L 1179.754136 490.66511 
L 1180.746842 490.857444 
L 1181.739548 490.274253 
L 1182.732254 490.594697 
L 1183.72496 490.292289 
L 1184.717666 491.136996 
L 1185.710372 490.502895 
L 1187.695784 490.372327 
L 1188.68849 489.336016 
L 1191.666607 490.812823 
L 1192.659313 490.133297 
L 1193.652019 490.746394 
L 1194.644725 489.748448 
L 1196.630137 490.61967 
L 1197.622843 490.334873 
L 1198.615549 491.150122 
L 1199.608255 490.93416 
L 1200.600961 491.034496 
L 1201.593667 490.81242 
L 1202.586373 491.314587 
L 1203.579078 490.751135 
L 1204.571784 490.826141 
L 1205.56449 491.632165 
L 1206.557196 492.105608 
L 1208.542608 489.850886 
L 1209.535314 490.810609 
L 1210.52802 492.48 
L 1211.520726 490.365049 
L 1212.513432 492.369133 
L 1213.506138 491.27454 
L 1215.49155 490.093425 
L 1217.476961 490.956501 
L 1218.469667 490.056123 
L 1219.462373 491.479603 
L 1220.455079 492.433991 
L 1221.447785 491.125224 
L 1222.440491 491.21388 
L 1223.433197 491.048768 
L 1224.425903 491.603573 
L 1227.404021 489.946008 
L 1228.396727 490.945009 
L 1229.389432 490.145388 
L 1230.382138 492.023028 
L 1231.374844 491.049064 
L 1232.36755 490.594797 
L 1233.360256 491.222471 
L 1234.352962 490.158669 
L 1235.345668 491.229045 
L 1236.338374 491.931202 
L 1237.33108 490.065826 
L 1238.323786 491.309272 
L 1239.316492 491.871757 
L 1240.309198 492.211617 
L 1241.301904 491.127268 
L 1242.29461 491.67366 
L 1243.287315 490.517536 
L 1244.280021 491.389516 
L 1245.272727 490.239998 
L 1245.272727 490.239998 
" clip-path="url(#p8f4fc05f64)" style="fill: none; stroke: #1f77b4; stroke-width: 1.5; stroke-linecap: square"/>
   </g>
   <g id="patch_3">
    <path d="M 180 512.64 
L 180 69.12 
" style="fill: none; stroke: #000000; stroke-width: 0.8; stroke-linejoin: miter; stroke-linecap: square"/>
   </g>
   <g id="patch_4">
    <path d="M 1296 512.64 
L 1296 69.12 
" style="fill: none; stroke: #000000; stroke-width: 0.8; stroke-linejoin: miter; stroke-linecap: square"/>
   </g>
   <g id="patch_5">
    <path d="M 180 512.64 
L 1296 512.64 
" style="fill: none; stroke: #000000; stroke-width: 0.8; stroke-linejoin: miter; stroke-linecap: square"/>
   </g>
   <g id="patch_6">
    <path d="M 180 69.12 
L 1296 69.12 
" style="fill: none; stroke: #000000; stroke-width: 0.8; stroke-linejoin: miter; stroke-linecap: square"/>
   </g>
   <g id="text_16">
    <!-- source9-receiver21 -->
    <g transform="translate(544.9 60.80125) scale(0.4 -0.4)">
     <defs>
      <path id="DejaVuSans-73" d="M 2834 3397 
L 2834 2853 
Q 2591 2978 2328 3040 
Q 2066 3103 1784 3103 
Q 1356 3103 1142 2972 
Q 928 2841 928 2578 
Q 928 2378 1081 2264 
Q 1234 2150 1697 2047 
L 1894 2003 
Q 2506 1872 2764 1633 
Q 3022 1394 3022 966 
Q 3022 478 2636 193 
Q 2250 -91 1575 -91 
Q 1294 -91 989 -36 
Q 684 19 347 128 
L 347 722 
Q 666 556 975 473 
Q 1284 391 1588 391 
Q 1994 391 2212 530 
Q 2431 669 2431 922 
Q 2431 1156 2273 1281 
Q 2116 1406 1581 1522 
L 1381 1569 
Q 847 1681 609 1914 
Q 372 2147 372 2553 
Q 372 3047 722 3315 
Q 1072 3584 1716 3584 
Q 2034 3584 2315 3537 
Q 2597 3491 2834 3397 
z
" transform="scale(0.015625)"/>
      <path id="DejaVuSans-6f" d="M 1959 3097 
Q 1497 3097 1228 2736 
Q 959 2375 959 1747 
Q 959 1119 1226 758 
Q 1494 397 1959 397 
Q 2419 397 2687 759 
Q 2956 1122 2956 1747 
Q 2956 2369 2687 2733 
Q 2419 3097 1959 3097 
z
M 1959 3584 
Q 2709 3584 3137 3096 
Q 3566 2609 3566 1747 
Q 3566 888 3137 398 
Q 2709 -91 1959 -91 
Q 1206 -91 779 398 
Q 353 888 353 1747 
Q 353 2609 779 3096 
Q 1206 3584 1959 3584 
z
" transform="scale(0.015625)"/>
      <path id="DejaVuSans-75" d="M 544 1381 
L 544 3500 
L 1119 3500 
L 1119 1403 
Q 1119 906 1312 657 
Q 1506 409 1894 409 
Q 2359 409 2629 706 
Q 2900 1003 2900 1516 
L 2900 3500 
L 3475 3500 
L 3475 0 
L 2900 0 
L 2900 538 
Q 2691 219 2414 64 
Q 2138 -91 1772 -91 
Q 1169 -91 856 284 
Q 544 659 544 1381 
z
M 1991 3584 
L 1991 3584 
z
" transform="scale(0.015625)"/>
      <path id="DejaVuSans-72" d="M 2631 2963 
Q 2534 3019 2420 3045 
Q 2306 3072 2169 3072 
Q 1681 3072 1420 2755 
Q 1159 2438 1159 1844 
L 1159 0 
L 581 0 
L 581 3500 
L 1159 3500 
L 1159 2956 
Q 1341 3275 1631 3429 
Q 1922 3584 2338 3584 
Q 2397 3584 2469 3576 
Q 2541 3569 2628 3553 
L 2631 2963 
z
" transform="scale(0.015625)"/>
      <path id="DejaVuSans-63" d="M 3122 3366 
L 3122 2828 
Q 2878 2963 2633 3030 
Q 2388 3097 2138 3097 
Q 1578 3097 1268 2742 
Q 959 2388 959 1747 
Q 959 1106 1268 751 
Q 1578 397 2138 397 
Q 2388 397 2633 464 
Q 2878 531 3122 666 
L 3122 134 
Q 2881 22 2623 -34 
Q 2366 -91 2075 -91 
Q 1284 -91 818 406 
Q 353 903 353 1747 
Q 353 2603 823 3093 
Q 1294 3584 2113 3584 
Q 2378 3584 2631 3529 
Q 2884 3475 3122 3366 
z
" transform="scale(0.015625)"/>
      <path id="DejaVuSans-65" d="M 3597 1894 
L 3597 1613 
L 953 1613 
Q 991 1019 1311 708 
Q 1631 397 2203 397 
Q 2534 397 2845 478 
Q 3156 559 3463 722 
L 3463 178 
Q 3153 47 2828 -22 
Q 2503 -91 2169 -91 
Q 1331 -91 842 396 
Q 353 884 353 1716 
Q 353 2575 817 3079 
Q 1281 3584 2069 3584 
Q 2775 3584 3186 3129 
Q 3597 2675 3597 1894 
z
M 3022 2063 
Q 3016 2534 2758 2815 
Q 2500 3097 2075 3097 
Q 1594 3097 1305 2825 
Q 1016 2553 972 2059 
L 3022 2063 
z
" transform="scale(0.015625)"/>
      <path id="DejaVuSans-39" d="M 703 97 
L 703 672 
Q 941 559 1184 500 
Q 1428 441 1663 441 
Q 2288 441 2617 861 
Q 2947 1281 2994 2138 
Q 2813 1869 2534 1725 
Q 2256 1581 1919 1581 
Q 1219 1581 811 2004 
Q 403 2428 403 3163 
Q 403 3881 828 4315 
Q 1253 4750 1959 4750 
Q 2769 4750 3195 4129 
Q 3622 3509 3622 2328 
Q 3622 1225 3098 567 
Q 2575 -91 1691 -91 
Q 1453 -91 1209 -44 
Q 966 3 703 97 
z
M 1959 2075 
Q 2384 2075 2632 2365 
Q 2881 2656 2881 3163 
Q 2881 3666 2632 3958 
Q 2384 4250 1959 4250 
Q 1534 4250 1286 3958 
Q 1038 3666 1038 3163 
Q 1038 2656 1286 2365 
Q 1534 2075 1959 2075 
z
" transform="scale(0.015625)"/>
      <path id="DejaVuSans-2d" d="M 313 2009 
L 1997 2009 
L 1997 1497 
L 313 1497 
L 313 2009 
z
" transform="scale(0.015625)"/>
      <path id="DejaVuSans-69" d="M 603 3500 
L 1178 3500 
L 1178 0 
L 603 0 
L 603 3500 
z
M 603 4863 
L 1178 4863 
L 1178 4134 
L 603 4134 
L 603 4863 
z
" transform="scale(0.015625)"/>
      <path id="DejaVuSans-76" d="M 191 3500 
L 800 3500 
L 1894 563 
L 2988 3500 
L 3597 3500 
L 2284 0 
L 1503 0 
L 191 3500 
z
" transform="scale(0.015625)"/>
     </defs>
     <use xlink:href="#DejaVuSans-73"/>
     <use xlink:href="#DejaVuSans-6f" x="52.099609"/>
     <use xlink:href="#DejaVuSans-75" x="113.28125"/>
     <use xlink:href="#DejaVuSans-72" x="176.660156"/>
     <use xlink:href="#DejaVuSans-63" x="215.523438"/>
     <use xlink:href="#DejaVuSans-65" x="270.503906"/>
     <use xlink:href="#DejaVuSans-39" x="332.027344"/>
     <use xlink:href="#DejaVuSans-2d" x="395.650391"/>
     <use xlink:href="#DejaVuSans-72" x="431.734375"/>
     <use xlink:href="#DejaVuSans-65" x="470.597656"/>
     <use xlink:href="#DejaVuSans-63" x="532.121094"/>
     <use xlink:href="#DejaVuSans-65" x="587.101562"/>
     <use xlink:href="#DejaVuSans-69" x="648.625"/>
     <use xlink:href="#DejaVuSans-76" x="676.408203"/>
     <use xlink:href="#DejaVuSans-65" x="735.587891"/>
     <use xlink:href="#DejaVuSans-72" x="797.111328"/>
     <use xlink:href="#DejaVuSans-32" x="838.224609"/>
     <use xlink:href="#DejaVuSans-31" x="901.847656"/>
    </g>
   </g>
  </g>
 </g>
 <defs>
  <clipPath id="p8f4fc05f64">
   <rect x="180" y="69.12" width="1116" height="443.52"/>
  </clipPath>
 </defs>
</svg>
