<?xml version="1.0" encoding="utf-8" standalone="no"?>
<!DOCTYPE svg PUBLIC "-//W3C//DTD SVG 1.1//EN"
  "http://www.w3.org/Graphics/SVG/1.1/DTD/svg11.dtd">
<svg xmlns:xlink="http://www.w3.org/1999/xlink" width="1440pt" height="576pt" viewBox="0 0 1440 576" xmlns="http://www.w3.org/2000/svg" version="1.1">
 <metadata>
  <rdf:RDF xmlns:dc="http://purl.org/dc/elements/1.1/" xmlns:cc="http://creativecommons.org/ns#" xmlns:rdf="http://www.w3.org/1999/02/22-rdf-syntax-ns#">
   <cc:Work>
    <dc:type rdf:resource="http://purl.org/dc/dcmitype/StillImage"/>
    <dc:date>2024-05-22T04:49:56.628018</dc:date>
    <dc:format>image/svg+xml</dc:format>
    <dc:creator>
     <cc:Agent>
      <dc:title>Matplotlib v3.8.3, https://matplotlib.org/</dc:title>
     </cc:Agent>
    </dc:creator>
   </cc:Work>
  </rdf:RDF>
 </metadata>
 <defs>
  <style type="text/css">*{stroke-linejoin: round; stroke-linecap: butt}</style>
 </defs>
 <g id="figure_1">
  <g id="patch_1">
   <path d="M 0 576 
L 1440 576 
L 1440 0 
L 0 0 
z
" style="fill: #ffffff"/>
  </g>
  <g id="axes_1">
   <g id="patch_2">
    <path d="M 180 512.64 
L 1296 512.64 
L 1296 69.12 
L 180 69.12 
z
" style="fill: #ffffff"/>
   </g>
   <g id="matplotlib.axis_1">
    <g id="xtick_1">
     <g id="line2d_1">
      <defs>
       <path id="m4688885271" d="M 0 0 
L 0 3.5 
" style="stroke: #000000; stroke-width: 0.8"/>
      </defs>
      <g>
       <use xlink:href="#m4688885271" x="229.734567" y="512.64" style="stroke: #000000; stroke-width: 0.8"/>
      </g>
     </g>
     <g id="text_1">
      <!-- 0 -->
      <g transform="translate(226.553317 527.238438) scale(0.1 -0.1)">
       <defs>
        <path id="DejaVuSans-30" d="M 2034 4250 
Q 1547 4250 1301 3770 
Q 1056 3291 1056 2328 
Q 1056 1369 1301 889 
Q 1547 409 2034 409 
Q 2525 409 2770 889 
Q 3016 1369 3016 2328 
Q 3016 3291 2770 3770 
Q 2525 4250 2034 4250 
z
M 2034 4750 
Q 2819 4750 3233 4129 
Q 3647 3509 3647 2328 
Q 3647 1150 3233 529 
Q 2819 -91 2034 -91 
Q 1250 -91 836 529 
Q 422 1150 422 2328 
Q 422 3509 836 4129 
Q 1250 4750 2034 4750 
z
" transform="scale(0.015625)"/>
       </defs>
       <use xlink:href="#DejaVuSans-30"/>
      </g>
     </g>
    </g>
    <g id="xtick_2">
     <g id="line2d_2">
      <g>
       <use xlink:href="#m4688885271" x="433.04074" y="512.64" style="stroke: #000000; stroke-width: 0.8"/>
      </g>
     </g>
     <g id="text_2">
      <!-- 500 -->
      <g transform="translate(423.49699 527.238438) scale(0.1 -0.1)">
       <defs>
        <path id="DejaVuSans-35" d="M 691 4666 
L 3169 4666 
L 3169 4134 
L 1269 4134 
L 1269 2991 
Q 1406 3038 1543 3061 
Q 1681 3084 1819 3084 
Q 2600 3084 3056 2656 
Q 3513 2228 3513 1497 
Q 3513 744 3044 326 
Q 2575 -91 1722 -91 
Q 1428 -91 1123 -41 
Q 819 9 494 109 
L 494 744 
Q 775 591 1075 516 
Q 1375 441 1709 441 
Q 2250 441 2565 725 
Q 2881 1009 2881 1497 
Q 2881 1984 2565 2268 
Q 2250 2553 1709 2553 
Q 1456 2553 1204 2497 
Q 953 2441 691 2322 
L 691 4666 
z
" transform="scale(0.015625)"/>
       </defs>
       <use xlink:href="#DejaVuSans-35"/>
       <use xlink:href="#DejaVuSans-30" x="63.623047"/>
       <use xlink:href="#DejaVuSans-30" x="127.246094"/>
      </g>
     </g>
    </g>
    <g id="xtick_3">
     <g id="line2d_3">
      <g>
       <use xlink:href="#m4688885271" x="636.346913" y="512.64" style="stroke: #000000; stroke-width: 0.8"/>
      </g>
     </g>
     <g id="text_3">
      <!-- 1000 -->
      <g transform="translate(623.621913 527.238438) scale(0.1 -0.1)">
       <defs>
        <path id="DejaVuSans-31" d="M 794 531 
L 1825 531 
L 1825 4091 
L 703 3866 
L 703 4441 
L 1819 4666 
L 2450 4666 
L 2450 531 
L 3481 531 
L 3481 0 
L 794 0 
L 794 531 
z
" transform="scale(0.015625)"/>
       </defs>
       <use xlink:href="#DejaVuSans-31"/>
       <use xlink:href="#DejaVuSans-30" x="63.623047"/>
       <use xlink:href="#DejaVuSans-30" x="127.246094"/>
       <use xlink:href="#DejaVuSans-30" x="190.869141"/>
      </g>
     </g>
    </g>
    <g id="xtick_4">
     <g id="line2d_4">
      <g>
       <use xlink:href="#m4688885271" x="839.653087" y="512.64" style="stroke: #000000; stroke-width: 0.8"/>
      </g>
     </g>
     <g id="text_4">
      <!-- 1500 -->
      <g transform="translate(826.928087 527.238438) scale(0.1 -0.1)">
       <use xlink:href="#DejaVuSans-31"/>
       <use xlink:href="#DejaVuSans-35" x="63.623047"/>
       <use xlink:href="#DejaVuSans-30" x="127.246094"/>
       <use xlink:href="#DejaVuSans-30" x="190.869141"/>
      </g>
     </g>
    </g>
    <g id="xtick_5">
     <g id="line2d_5">
      <g>
       <use xlink:href="#m4688885271" x="1042.95926" y="512.64" style="stroke: #000000; stroke-width: 0.8"/>
      </g>
     </g>
     <g id="text_5">
      <!-- 2000 -->
      <g transform="translate(1030.23426 527.238438) scale(0.1 -0.1)">
       <defs>
        <path id="DejaVuSans-32" d="M 1228 531 
L 3431 531 
L 3431 0 
L 469 0 
L 469 531 
Q 828 903 1448 1529 
Q 2069 2156 2228 2338 
Q 2531 2678 2651 2914 
Q 2772 3150 2772 3378 
Q 2772 3750 2511 3984 
Q 2250 4219 1831 4219 
Q 1534 4219 1204 4116 
Q 875 4013 500 3803 
L 500 4441 
Q 881 4594 1212 4672 
Q 1544 4750 1819 4750 
Q 2544 4750 2975 4387 
Q 3406 4025 3406 3419 
Q 3406 3131 3298 2873 
Q 3191 2616 2906 2266 
Q 2828 2175 2409 1742 
Q 1991 1309 1228 531 
z
" transform="scale(0.015625)"/>
       </defs>
       <use xlink:href="#DejaVuSans-32"/>
       <use xlink:href="#DejaVuSans-30" x="63.623047"/>
       <use xlink:href="#DejaVuSans-30" x="127.246094"/>
       <use xlink:href="#DejaVuSans-30" x="190.869141"/>
      </g>
     </g>
    </g>
    <g id="xtick_6">
     <g id="line2d_6">
      <g>
       <use xlink:href="#m4688885271" x="1246.265433" y="512.64" style="stroke: #000000; stroke-width: 0.8"/>
      </g>
     </g>
     <g id="text_6">
      <!-- 2500 -->
      <g transform="translate(1233.540433 527.238438) scale(0.1 -0.1)">
       <use xlink:href="#DejaVuSans-32"/>
       <use xlink:href="#DejaVuSans-35" x="63.623047"/>
       <use xlink:href="#DejaVuSans-30" x="127.246094"/>
       <use xlink:href="#DejaVuSans-30" x="190.869141"/>
      </g>
     </g>
    </g>
   </g>
   <g id="matplotlib.axis_2">
    <g id="ytick_1">
     <g id="line2d_7">
      <defs>
       <path id="m4695fc9410" d="M 0 0 
L -3.5 0 
" style="stroke: #000000; stroke-width: 0.8"/>
      </defs>
      <g>
       <use xlink:href="#m4695fc9410" x="180" y="511.404097" style="stroke: #000000; stroke-width: 0.8"/>
      </g>
     </g>
     <g id="text_7">
      <!-- −2 -->
      <g transform="translate(158.257812 515.203316) scale(0.1 -0.1)">
       <defs>
        <path id="DejaVuSans-2212" d="M 678 2272 
L 4684 2272 
L 4684 1741 
L 678 1741 
L 678 2272 
z
" transform="scale(0.015625)"/>
       </defs>
       <use xlink:href="#DejaVuSans-2212"/>
       <use xlink:href="#DejaVuSans-32" x="83.789062"/>
      </g>
     </g>
    </g>
    <g id="ytick_2">
     <g id="line2d_8">
      <g>
       <use xlink:href="#m4695fc9410" x="180" y="453.939605" style="stroke: #000000; stroke-width: 0.8"/>
      </g>
     </g>
     <g id="text_8">
      <!-- −1 -->
      <g transform="translate(158.257812 457.738824) scale(0.1 -0.1)">
       <use xlink:href="#DejaVuSans-2212"/>
       <use xlink:href="#DejaVuSans-31" x="83.789062"/>
      </g>
     </g>
    </g>
    <g id="ytick_3">
     <g id="line2d_9">
      <g>
       <use xlink:href="#m4695fc9410" x="180" y="396.475114" style="stroke: #000000; stroke-width: 0.8"/>
      </g>
     </g>
     <g id="text_9">
      <!-- 0 -->
      <g transform="translate(166.6375 400.274332) scale(0.1 -0.1)">
       <use xlink:href="#DejaVuSans-30"/>
      </g>
     </g>
    </g>
    <g id="ytick_4">
     <g id="line2d_10">
      <g>
       <use xlink:href="#m4695fc9410" x="180" y="339.010622" style="stroke: #000000; stroke-width: 0.8"/>
      </g>
     </g>
     <g id="text_10">
      <!-- 1 -->
      <g transform="translate(166.6375 342.809841) scale(0.1 -0.1)">
       <use xlink:href="#DejaVuSans-31"/>
      </g>
     </g>
    </g>
    <g id="ytick_5">
     <g id="line2d_11">
      <g>
       <use xlink:href="#m4695fc9410" x="180" y="281.54613" style="stroke: #000000; stroke-width: 0.8"/>
      </g>
     </g>
     <g id="text_11">
      <!-- 2 -->
      <g transform="translate(166.6375 285.345349) scale(0.1 -0.1)">
       <use xlink:href="#DejaVuSans-32"/>
      </g>
     </g>
    </g>
    <g id="ytick_6">
     <g id="line2d_12">
      <g>
       <use xlink:href="#m4695fc9410" x="180" y="224.081638" style="stroke: #000000; stroke-width: 0.8"/>
      </g>
     </g>
     <g id="text_12">
      <!-- 3 -->
      <g transform="translate(166.6375 227.880857) scale(0.1 -0.1)">
       <defs>
        <path id="DejaVuSans-33" d="M 2597 2516 
Q 3050 2419 3304 2112 
Q 3559 1806 3559 1356 
Q 3559 666 3084 287 
Q 2609 -91 1734 -91 
Q 1441 -91 1130 -33 
Q 819 25 488 141 
L 488 750 
Q 750 597 1062 519 
Q 1375 441 1716 441 
Q 2309 441 2620 675 
Q 2931 909 2931 1356 
Q 2931 1769 2642 2001 
Q 2353 2234 1838 2234 
L 1294 2234 
L 1294 2753 
L 1863 2753 
Q 2328 2753 2575 2939 
Q 2822 3125 2822 3475 
Q 2822 3834 2567 4026 
Q 2313 4219 1838 4219 
Q 1578 4219 1281 4162 
Q 984 4106 628 3988 
L 628 4550 
Q 988 4650 1302 4700 
Q 1616 4750 1894 4750 
Q 2613 4750 3031 4423 
Q 3450 4097 3450 3541 
Q 3450 3153 3228 2886 
Q 3006 2619 2597 2516 
z
" transform="scale(0.015625)"/>
       </defs>
       <use xlink:href="#DejaVuSans-33"/>
      </g>
     </g>
    </g>
    <g id="ytick_7">
     <g id="line2d_13">
      <g>
       <use xlink:href="#m4695fc9410" x="180" y="166.617147" style="stroke: #000000; stroke-width: 0.8"/>
      </g>
     </g>
     <g id="text_13">
      <!-- 4 -->
      <g transform="translate(166.6375 170.416365) scale(0.1 -0.1)">
       <defs>
        <path id="DejaVuSans-34" d="M 2419 4116 
L 825 1625 
L 2419 1625 
L 2419 4116 
z
M 2253 4666 
L 3047 4666 
L 3047 1625 
L 3713 1625 
L 3713 1100 
L 3047 1100 
L 3047 0 
L 2419 0 
L 2419 1100 
L 313 1100 
L 313 1709 
L 2253 4666 
z
" transform="scale(0.015625)"/>
       </defs>
       <use xlink:href="#DejaVuSans-34"/>
      </g>
     </g>
    </g>
    <g id="ytick_8">
     <g id="line2d_14">
      <g>
       <use xlink:href="#m4695fc9410" x="180" y="109.152655" style="stroke: #000000; stroke-width: 0.8"/>
      </g>
     </g>
     <g id="text_14">
      <!-- 5 -->
      <g transform="translate(166.6375 112.951874) scale(0.1 -0.1)">
       <use xlink:href="#DejaVuSans-35"/>
      </g>
     </g>
    </g>
   </g>
   <g id="line2d_15">
    <path d="M 230.727273 372.193144 
L 231.719979 371.912185 
L 232.712685 371.433448 
L 233.70539 370.696608 
L 235.690802 368.690022 
L 236.683508 367.379809 
L 237.676214 365.808728 
L 239.661626 362.056294 
L 241.647038 357.182345 
L 242.639744 354.388352 
L 243.63245 350.855836 
L 244.625156 346.213342 
L 245.617862 340.462201 
L 246.610568 339.419595 
L 247.603273 353.199174 
L 248.595979 335.896103 
L 249.588685 309.858422 
L 250.581391 319.738358 
L 251.574097 292.748808 
L 252.566803 258.829804 
L 253.559509 259.335591 
L 254.552215 294.675491 
L 255.544921 336.781596 
L 256.537627 262.334717 
L 257.530333 237.556963 
L 258.523039 239.410402 
L 259.515745 253.728978 
L 261.501156 274.482531 
L 262.493862 273.819852 
L 263.486568 271.269853 
L 264.479274 303.745504 
L 265.47198 307.955464 
L 266.464686 258.867472 
L 267.457392 236.940338 
L 268.450098 238.836117 
L 269.442804 244.411639 
L 270.43551 228.858867 
L 271.428216 216.05776 
L 272.420922 239.914226 
L 273.413627 193.059483 
L 274.406333 170.858614 
L 275.399039 179.804359 
L 276.391745 176.45535 
L 277.384451 152.033823 
L 278.377157 107.445283 
L 279.369863 89.28 
L 280.362569 95.834405 
L 281.355275 106.955157 
L 282.347981 109.479996 
L 283.340687 136.987975 
L 284.333393 146.930506 
L 285.326099 127.273459 
L 286.318804 151.765075 
L 287.31151 205.793618 
L 288.304216 169.37167 
L 289.296922 159.183464 
L 290.289628 182.199432 
L 291.282334 315.684724 
L 292.27504 249.556721 
L 293.267746 299.023188 
L 294.260452 248.377407 
L 295.253158 312.127834 
L 296.245864 278.814239 
L 297.23857 287.162621 
L 298.231276 428.542207 
L 299.223981 292.968146 
L 300.216687 264.111897 
L 301.209393 299.986478 
L 302.202099 319.760946 
L 303.194805 321.710281 
L 304.187511 316.332865 
L 305.180217 334.938364 
L 306.172923 308.177557 
L 307.165629 349.618611 
L 308.158335 322.963459 
L 309.151041 328.421152 
L 310.143747 361.227825 
L 311.136453 330.24457 
L 312.129159 351.606671 
L 313.121864 336.125441 
L 314.11457 345.270169 
L 315.107276 346.458424 
L 316.099982 353.266197 
L 317.092688 349.246133 
L 318.085394 350.471866 
L 319.0781 355.060489 
L 320.070806 357.71336 
L 321.063512 358.716042 
L 322.056218 358.332432 
L 323.048924 356.749479 
L 324.04163 358.474403 
L 326.027041 364.362045 
L 327.019747 366.273658 
L 328.012453 359.645444 
L 329.005159 364.889085 
L 329.997865 367.373688 
L 330.990571 372.306752 
L 331.983277 368.309068 
L 332.975983 366.161463 
L 333.968689 371.430441 
L 334.961395 371.271731 
L 335.954101 370.359352 
L 336.946807 372.266885 
L 337.939513 371.458814 
L 338.932218 377.75934 
L 339.924924 377.2264 
L 340.91763 376.18735 
L 341.910336 378.908205 
L 342.903042 375.929146 
L 343.895748 380.68759 
L 344.888454 379.519317 
L 345.88116 383.079722 
L 346.873866 381.246864 
L 347.866572 381.522466 
L 348.859278 381.154573 
L 349.851984 385.365486 
L 350.84469 384.236515 
L 351.837395 381.599544 
L 352.830101 387.008451 
L 353.822807 385.216265 
L 354.815513 389.48773 
L 355.808219 386.89577 
L 356.800925 391.080253 
L 357.793631 387.481179 
L 358.786337 390.895954 
L 359.779043 390.488312 
L 360.771749 389.130642 
L 361.764455 388.711464 
L 362.757161 394.247394 
L 363.749867 392.441637 
L 364.742572 395.58129 
L 365.735278 395.680592 
L 366.727984 393.395449 
L 367.72069 393.50233 
L 368.713396 393.823656 
L 369.706102 393.111459 
L 370.698808 396.519729 
L 371.691514 398.308793 
L 372.68422 397.536097 
L 373.676926 396.103284 
L 374.669632 397.894093 
L 375.662338 393.94316 
L 376.655044 394.804487 
L 377.64775 400.389791 
L 379.633161 404.702804 
L 380.625867 397.166342 
L 381.618573 407.309295 
L 382.611279 401.089955 
L 383.603985 404.693128 
L 384.596691 406.226817 
L 385.589397 404.909027 
L 386.582103 405.355262 
L 387.574809 405.22404 
L 388.567515 405.861911 
L 389.560221 401.518876 
L 390.552927 409.81469 
L 391.545632 401.255362 
L 392.538338 408.426837 
L 394.52375 405.576309 
L 395.516456 407.101557 
L 396.509162 411.955538 
L 397.501868 406.984695 
L 398.494574 403.399942 
L 399.48728 405.386679 
L 400.479986 408.974722 
L 401.472692 403.559088 
L 402.465398 412.271648 
L 403.458104 412.987039 
L 404.450809 409.925997 
L 405.443515 414.458422 
L 406.436221 410.516792 
L 407.428927 412.822705 
L 408.421633 412.101415 
L 409.414339 408.116084 
L 410.407045 412.433817 
L 411.399751 411.941725 
L 412.392457 408.73596 
L 413.385163 413.023588 
L 414.377869 410.123111 
L 415.370575 414.05927 
L 416.363281 413.120831 
L 417.355986 414.193057 
L 418.348692 416.472907 
L 419.341398 414.69725 
L 420.334104 417.14854 
L 421.32681 417.672008 
L 422.319516 415.157753 
L 423.312222 419.184372 
L 424.304928 413.623122 
L 425.297634 420.679289 
L 426.29034 420.778716 
L 427.283046 414.141975 
L 428.275752 420.395221 
L 429.268458 424.454256 
L 430.261163 419.512003 
L 431.253869 419.893193 
L 433.239281 422.80448 
L 434.231987 418.839322 
L 435.224693 419.60954 
L 436.217399 421.409852 
L 437.210105 421.110479 
L 438.202811 421.280912 
L 439.195517 422.165626 
L 440.188223 424.77249 
L 441.180929 424.208336 
L 442.173635 425.865864 
L 443.166341 425.810566 
L 444.159046 422.097006 
L 446.144458 428.96696 
L 447.137164 425.331798 
L 448.12987 423.989174 
L 449.122576 423.716993 
L 450.115282 428.627364 
L 451.107988 427.025768 
L 452.100694 424.699365 
L 453.0934 426.404219 
L 454.086106 431.239978 
L 455.078812 432.529121 
L 456.071518 427.40266 
L 457.064223 425.711434 
L 458.056929 429.997275 
L 459.049635 430.533414 
L 460.042341 426.169348 
L 461.035047 426.484651 
L 462.027753 425.099319 
L 463.020459 424.136962 
L 464.013165 430.238064 
L 465.005871 427.111305 
L 465.998577 428.581751 
L 466.991283 429.022481 
L 467.983989 429.963847 
L 468.976695 428.216808 
L 469.9694 429.845184 
L 470.962106 433.333375 
L 471.954812 432.909405 
L 472.947518 433.937964 
L 473.940224 430.583515 
L 474.93293 434.902024 
L 475.925636 433.454249 
L 476.918342 429.690361 
L 477.911048 435.662277 
L 478.903754 430.937098 
L 479.89646 433.810562 
L 480.889166 433.824281 
L 481.881872 432.342883 
L 482.874577 436.224118 
L 483.867283 432.900335 
L 484.859989 435.142624 
L 485.852695 433.077277 
L 486.845401 432.412295 
L 487.838107 435.164483 
L 488.830813 436.573285 
L 489.823519 441.241007 
L 490.816225 434.005514 
L 491.808931 440.08486 
L 492.801637 436.536233 
L 493.794343 436.584161 
L 494.787049 438.898161 
L 495.779754 436.570234 
L 496.77246 436.483153 
L 497.765166 437.650062 
L 498.757872 438.116762 
L 499.750578 441.719128 
L 500.743284 437.486689 
L 501.73599 436.993613 
L 502.728696 436.04208 
L 503.721402 433.287096 
L 504.714108 435.366382 
L 505.706814 439.102574 
L 506.69952 434.133025 
L 507.692226 438.757694 
L 508.684932 434.320538 
L 509.677637 447.218307 
L 510.670343 441.685653 
L 511.663049 432.843612 
L 512.655755 441.404341 
L 513.648461 438.791621 
L 514.641167 441.102112 
L 515.633873 440.074641 
L 516.626579 445.456485 
L 517.619285 438.570599 
L 518.611991 442.871236 
L 519.604697 437.448604 
L 520.597403 442.814019 
L 521.590109 443.445761 
L 522.582814 449.402541 
L 523.57552 442.704929 
L 524.568226 445.21137 
L 525.560932 443.438311 
L 526.553638 439.918811 
L 527.546344 444.468952 
L 528.53905 442.098562 
L 529.531756 446.02645 
L 530.524462 441.461758 
L 531.517168 443.41269 
L 532.509874 438.916123 
L 533.50258 442.947734 
L 534.495286 446.049417 
L 535.487991 441.899511 
L 536.480697 449.3672 
L 537.473403 446.116194 
L 538.466109 452.019353 
L 539.458815 442.290536 
L 540.451521 447.495323 
L 542.436933 443.610402 
L 543.429639 455.135151 
L 544.422345 445.290848 
L 545.415051 442.197924 
L 546.407757 447.251609 
L 547.400463 455.588873 
L 548.393168 437.267671 
L 549.385874 443.82378 
L 550.37858 454.229758 
L 551.371286 443.796578 
L 552.363992 443.84647 
L 553.356698 449.836632 
L 554.349404 449.638478 
L 555.34211 445.783271 
L 556.334816 454.036423 
L 557.327522 448.962081 
L 559.312934 449.473405 
L 560.30564 449.265007 
L 561.298345 455.459641 
L 562.291051 448.505135 
L 563.283757 448.845009 
L 564.276463 442.195407 
L 565.269169 450.343817 
L 566.261875 444.355829 
L 567.254581 448.407936 
L 568.247287 447.473723 
L 569.239993 451.878174 
L 570.232699 455.049606 
L 571.225405 451.533853 
L 572.218111 449.763578 
L 573.210817 455.621094 
L 574.203523 451.259208 
L 575.196228 456.644231 
L 576.188934 449.140355 
L 577.18164 451.957577 
L 578.174346 447.950854 
L 579.167052 451.888669 
L 580.159758 460.711238 
L 581.152464 446.530079 
L 582.14517 451.021765 
L 583.137876 448.900602 
L 584.130582 455.535607 
L 585.123288 458.28631 
L 586.115994 452.464694 
L 587.1087 455.660034 
L 588.101405 457.251729 
L 589.094111 455.712918 
L 590.086817 450.873819 
L 591.079523 463.079472 
L 592.072229 448.105897 
L 593.064935 456.660821 
L 594.057641 451.529279 
L 595.050347 459.292955 
L 596.043053 453.845991 
L 597.035759 456.361958 
L 598.028465 460.997973 
L 599.021171 456.948425 
L 600.013877 456.70316 
L 601.006582 458.533649 
L 601.999288 459.974427 
L 602.991994 452.726485 
L 603.9847 456.282993 
L 604.977406 454.237732 
L 605.970112 454.121231 
L 606.962818 456.552373 
L 607.955524 462.677983 
L 608.94823 452.446545 
L 609.940936 459.636125 
L 610.933642 455.778701 
L 611.926348 460.68554 
L 612.919054 456.65482 
L 613.911759 458.238865 
L 614.904465 457.934387 
L 615.897171 455.271962 
L 616.889877 455.130885 
L 617.882583 460.746416 
L 618.875289 456.442698 
L 619.867995 461.251274 
L 620.860701 459.249933 
L 621.853407 460.218261 
L 622.846113 456.171509 
L 623.838819 460.644192 
L 624.831525 459.205859 
L 625.824231 461.230123 
L 626.816936 460.045586 
L 627.809642 459.444092 
L 628.802348 460.258296 
L 629.795054 458.858254 
L 630.78776 458.623835 
L 631.780466 462.047599 
L 632.773172 460.094644 
L 633.765878 463.012505 
L 634.758584 458.102001 
L 635.75129 462.505312 
L 636.743996 458.306014 
L 637.736702 460.347978 
L 638.729408 459.619358 
L 639.722114 462.582392 
L 640.714819 460.223315 
L 641.707525 461.187786 
L 642.700231 460.307077 
L 643.692937 461.812963 
L 644.685643 462.389826 
L 645.678349 463.673196 
L 646.671055 461.248946 
L 647.663761 463.804718 
L 648.656467 461.972861 
L 649.649173 460.890094 
L 650.641879 464.834025 
L 651.634585 463.414423 
L 652.627291 462.765016 
L 653.619996 462.843158 
L 654.612702 462.783429 
L 655.605408 462.951409 
L 656.598114 463.005131 
L 657.59082 464.166119 
L 658.583526 463.110963 
L 659.576232 466.643497 
L 660.568938 463.943659 
L 661.561644 463.795376 
L 662.55435 464.183581 
L 663.547056 463.681087 
L 664.539762 465.42834 
L 665.532468 465.445648 
L 666.525173 463.858673 
L 667.517879 465.649941 
L 668.510585 463.947093 
L 669.503291 464.139239 
L 670.495997 464.853387 
L 671.488703 465.162198 
L 672.481409 464.308852 
L 673.474115 464.653802 
L 674.466821 465.50112 
L 675.459527 465.94554 
L 676.452233 465.290853 
L 677.444939 465.624111 
L 678.437645 465.630034 
L 679.43035 466.553086 
L 680.423056 465.499288 
L 681.415762 465.754816 
L 682.408468 466.236761 
L 683.401174 466.235643 
L 684.39388 467.467903 
L 685.386586 466.48191 
L 686.379292 466.088678 
L 687.371998 466.140403 
L 688.364704 466.542122 
L 689.35741 466.485127 
L 690.350116 467.069921 
L 691.342822 466.935549 
L 692.335527 466.59988 
L 693.328233 467.512427 
L 694.320939 467.71396 
L 695.313645 466.813241 
L 696.306351 467.415818 
L 698.291763 468.154406 
L 699.284469 468.07601 
L 700.277175 468.296176 
L 701.269881 468.311988 
L 702.262587 467.936061 
L 703.255293 468.405263 
L 705.240705 468.60034 
L 706.23341 469.009608 
L 707.226116 468.728996 
L 708.218822 469.015573 
L 709.211528 468.64461 
L 710.204234 468.918144 
L 711.19694 469.458885 
L 712.189646 469.09072 
L 713.182352 469.053498 
L 714.175058 469.991771 
L 715.167764 469.374413 
L 716.16047 469.765403 
L 717.153176 469.993295 
L 718.145882 470.048146 
L 719.138587 469.488206 
L 720.131293 469.597725 
L 721.123999 470.143083 
L 722.116705 470.103931 
L 723.109411 470.49407 
L 724.102117 470.067026 
L 725.094823 470.844504 
L 726.087529 470.896035 
L 727.080235 471.13779 
L 728.072941 470.67214 
L 729.065647 470.747042 
L 730.058353 471.008037 
L 731.051059 470.905125 
L 732.043764 471.232747 
L 733.03647 471.011652 
L 734.029176 471.631582 
L 735.021882 471.642466 
L 736.014588 471.766232 
L 738 471.747403 
L 738.992706 471.512589 
L 739.985412 471.676771 
L 740.978118 471.72717 
L 741.970824 472.221644 
L 742.96353 472.148035 
L 743.956236 472.510818 
L 744.948941 472.569784 
L 745.941647 472.394794 
L 746.934353 472.694727 
L 747.927059 472.434641 
L 749.912471 472.752099 
L 751.897883 473.172894 
L 752.890589 472.866898 
L 754.876001 473.170707 
L 755.868707 473.345753 
L 756.861413 473.987248 
L 758.846824 473.348899 
L 759.83953 473.736048 
L 760.832236 473.458771 
L 761.824942 474.185397 
L 762.817648 473.611937 
L 763.810354 474.384192 
L 764.80306 473.73758 
L 765.795766 473.94582 
L 766.788472 474.290598 
L 767.781178 474.151459 
L 768.773884 473.812225 
L 769.76659 474.752047 
L 770.759295 474.575438 
L 772.744707 474.785334 
L 773.737413 475.156589 
L 774.730119 474.786875 
L 775.722825 475.290184 
L 776.715531 474.782059 
L 777.708237 475.238102 
L 778.700943 475.09605 
L 779.693649 475.395945 
L 780.686355 475.100849 
L 781.679061 475.47287 
L 782.671767 475.691719 
L 783.664473 475.106683 
L 785.649884 475.886528 
L 786.64259 475.821014 
L 788.628002 476.256001 
L 789.620708 475.580128 
L 790.613414 475.820689 
L 791.60612 476.256328 
L 792.598826 476.037839 
L 793.591532 476.19169 
L 794.584238 476.476832 
L 795.576944 476.362542 
L 796.56965 476.451178 
L 797.562355 476.785161 
L 799.547767 476.780977 
L 800.540473 477.124978 
L 801.533179 476.75318 
L 802.525885 476.783299 
L 804.511297 477.345565 
L 805.504003 477.083383 
L 806.496709 477.467688 
L 807.489415 477.240791 
L 810.467532 477.228164 
L 811.460238 477.649586 
L 813.44565 477.43699 
L 814.438356 478.03869 
L 815.431062 477.837831 
L 816.423768 478.241514 
L 818.40918 477.995369 
L 819.401886 478.463927 
L 820.394592 478.2353 
L 821.387298 478.412548 
L 824.365415 478.22415 
L 825.358121 479.065616 
L 826.350827 478.676677 
L 827.343533 478.647973 
L 829.328945 479.435514 
L 830.321651 478.789533 
L 831.314357 478.883618 
L 832.307063 479.262094 
L 833.299769 479.411063 
L 834.292475 479.217579 
L 836.277886 479.240339 
L 837.270592 479.647909 
L 838.263298 479.797594 
L 839.256004 479.034627 
L 840.24871 479.487624 
L 841.241416 479.258878 
L 842.234122 480.162625 
L 843.226828 479.716678 
L 844.219534 479.577966 
L 845.21224 479.880515 
L 846.204946 479.837945 
L 850.175769 480.090037 
L 851.168475 480.042255 
L 852.161181 480.421161 
L 853.153887 480.319927 
L 855.139299 480.794597 
L 856.132005 480.796918 
L 857.124711 481.074788 
L 859.110123 481.144453 
L 860.102829 481.094635 
L 861.095535 481.285384 
L 862.088241 480.589752 
L 863.080946 481.542716 
L 864.073652 481.288707 
L 865.066358 480.821562 
L 866.059064 481.525174 
L 867.05177 481.132829 
L 868.044476 481.880692 
L 869.037182 481.389521 
L 870.029888 481.765562 
L 871.022594 481.975541 
L 872.0153 481.699138 
L 873.008006 481.231676 
L 874.000712 481.796788 
L 874.993418 481.748641 
L 875.986123 482.012631 
L 876.978829 481.689985 
L 877.971535 482.120075 
L 878.964241 481.708781 
L 879.956947 481.85418 
L 881.942359 482.534151 
L 882.935065 481.995541 
L 883.927771 482.323324 
L 884.920477 481.83412 
L 885.913183 482.647467 
L 886.905889 482.678427 
L 888.8913 482.552392 
L 889.884006 482.904408 
L 890.876712 482.903312 
L 891.869418 482.406151 
L 892.862124 482.47893 
L 893.85483 482.860952 
L 894.847536 482.959803 
L 895.840242 482.925112 
L 897.825654 483.179331 
L 898.81836 483.205708 
L 899.811066 483.418064 
L 900.803772 483.124295 
L 901.796477 483.584949 
L 902.789183 483.297611 
L 903.781889 483.403253 
L 904.774595 483.717292 
L 905.767301 483.555998 
L 906.760007 484.051039 
L 907.752713 483.331267 
L 909.738125 483.985767 
L 910.730831 483.84668 
L 912.716243 483.767949 
L 913.708949 484.517368 
L 915.69436 483.732191 
L 916.687066 483.775714 
L 918.672478 484.42282 
L 919.665184 484.455916 
L 920.65789 484.239135 
L 921.650596 484.251616 
L 922.643302 484.624516 
L 923.636008 484.771598 
L 924.628714 484.493827 
L 925.62142 484.462718 
L 926.614126 484.797389 
L 927.606832 484.464032 
L 928.599537 484.637513 
L 929.592243 484.590393 
L 930.584949 484.666613 
L 931.577655 484.491183 
L 932.570361 484.965499 
L 933.563067 484.765996 
L 934.555773 484.760668 
L 936.541185 485.075899 
L 937.533891 484.925236 
L 940.512009 485.160204 
L 941.504714 485.026888 
L 942.49742 485.107328 
L 943.490126 485.395175 
L 944.482832 485.468964 
L 945.475538 485.301144 
L 948.453656 486.025792 
L 950.439068 485.354138 
L 951.431774 485.36494 
L 952.42448 485.688729 
L 953.417186 485.591156 
L 955.402597 485.753753 
L 956.395303 485.985634 
L 957.388009 485.875838 
L 958.380715 485.638815 
L 959.373421 486.222807 
L 960.366127 486.111588 
L 961.358833 486.260276 
L 962.351539 486.624064 
L 965.329657 485.97003 
L 966.322363 486.33403 
L 967.315068 485.839802 
L 968.307774 486.745236 
L 969.30048 486.213756 
L 970.293186 486.264419 
L 971.285892 486.719276 
L 972.278598 486.639692 
L 973.271304 486.284818 
L 974.26401 486.51845 
L 975.256716 486.218111 
L 976.249422 486.862634 
L 978.234834 486.60117 
L 979.22754 486.953334 
L 980.220246 486.699448 
L 981.212951 487.012291 
L 982.205657 486.910482 
L 983.198363 486.386137 
L 984.191069 487.023311 
L 985.183775 487.260812 
L 986.176481 487.64604 
L 987.169187 487.212196 
L 988.161893 487.642942 
L 990.147305 487.247404 
L 991.140011 487.498228 
L 992.132717 487.186011 
L 994.118128 487.42767 
L 995.110834 487.367442 
L 996.10354 487.501812 
L 997.096246 487.940849 
L 998.088952 487.449986 
L 1000.074364 487.228216 
L 1001.06707 487.798819 
L 1002.059776 487.604913 
L 1003.052482 487.628492 
L 1004.045188 487.888036 
L 1005.037894 487.619835 
L 1006.0306 487.746206 
L 1007.023305 488.06882 
L 1009.008717 487.899507 
L 1010.001423 488.08181 
L 1010.994129 487.780183 
L 1011.986835 488.04023 
L 1012.979541 488.058158 
L 1014.964953 488.480707 
L 1015.957659 487.946714 
L 1016.950365 488.709414 
L 1017.943071 487.936782 
L 1018.935777 488.173451 
L 1019.928482 488.001712 
L 1020.921188 488.446277 
L 1021.913894 488.357892 
L 1022.9066 488.58963 
L 1023.899306 489.439966 
L 1024.892012 488.796065 
L 1025.884718 489.068712 
L 1026.877424 488.70622 
L 1027.87013 488.711729 
L 1028.862836 488.478773 
L 1029.855542 488.635875 
L 1030.848248 488.536314 
L 1032.833659 489.556246 
L 1033.826365 488.491984 
L 1034.819071 488.722973 
L 1035.811777 488.157038 
L 1036.804483 489.009829 
L 1037.797189 489.003718 
L 1038.789895 488.731096 
L 1039.782601 488.816112 
L 1040.775307 489.153946 
L 1041.768013 489.214956 
L 1045.738837 488.874517 
L 1047.724248 489.444627 
L 1048.716954 489.102899 
L 1049.70966 489.31949 
L 1050.702366 489.039255 
L 1051.695072 489.562926 
L 1052.687778 489.370521 
L 1053.680484 489.44047 
L 1054.67319 489.742011 
L 1055.665896 488.917018 
L 1056.658602 489.661397 
L 1057.651308 489.969371 
L 1058.644014 489.671181 
L 1059.636719 489.821826 
L 1060.629425 489.354056 
L 1061.622131 489.555078 
L 1062.614837 489.420221 
L 1063.607543 489.912028 
L 1064.600249 489.400539 
L 1065.592955 489.563933 
L 1066.585661 489.935777 
L 1067.578367 489.935974 
L 1068.571073 489.656726 
L 1069.563779 489.245248 
L 1070.556485 489.508545 
L 1071.549191 489.376731 
L 1072.541896 489.366992 
L 1075.520014 490.157655 
L 1076.51272 489.90392 
L 1077.505426 490.350923 
L 1078.498132 490.073783 
L 1079.490838 490.285564 
L 1080.483544 489.719046 
L 1081.47625 489.817795 
L 1083.461662 490.485439 
L 1084.454368 489.772401 
L 1085.447073 490.589966 
L 1086.439779 490.231977 
L 1087.432485 490.183377 
L 1088.425191 490.363018 
L 1089.417897 489.970486 
L 1090.410603 490.567668 
L 1091.403309 490.042568 
L 1093.388721 490.486138 
L 1094.381427 490.275341 
L 1095.374133 490.224005 
L 1096.366839 490.74908 
L 1097.359545 490.188992 
L 1098.35225 490.060536 
L 1099.344956 490.4386 
L 1100.337662 490.604967 
L 1102.323074 490.416944 
L 1103.31578 490.763283 
L 1104.308486 490.769216 
L 1105.301192 490.571278 
L 1106.293898 490.046607 
L 1108.27931 490.88484 
L 1109.272016 490.626889 
L 1110.264722 490.829168 
L 1111.257428 490.624464 
L 1112.250133 490.847966 
L 1113.242839 491.186986 
L 1114.235545 490.605679 
L 1115.228251 490.784803 
L 1116.220957 490.741258 
L 1117.213663 490.887085 
L 1118.206369 490.70509 
L 1120.191781 490.727058 
L 1121.184487 491.170644 
L 1122.177193 491.187842 
L 1123.169899 490.842426 
L 1124.162605 491.024746 
L 1126.148016 490.687011 
L 1127.140722 490.935385 
L 1128.133428 491.353256 
L 1129.126134 491.003371 
L 1130.11884 490.992391 
L 1131.111546 491.43822 
L 1132.104252 490.823267 
L 1133.096958 490.683042 
L 1134.089664 490.962611 
L 1135.08237 490.805732 
L 1136.075076 491.320563 
L 1137.067782 491.326623 
L 1138.060487 491.091181 
L 1139.053193 491.133317 
L 1140.045899 490.860568 
L 1141.038605 491.396392 
L 1142.031311 490.96318 
L 1145.009429 491.174124 
L 1146.002135 491.594677 
L 1146.994841 491.467323 
L 1147.987547 491.105149 
L 1150.965664 491.90092 
L 1152.951076 491.662577 
L 1153.943782 491.228346 
L 1154.936488 491.44175 
L 1155.929194 491.348949 
L 1156.9219 491.721609 
L 1157.914606 491.295977 
L 1159.900018 491.469038 
L 1160.892724 491.049358 
L 1161.88543 491.393808 
L 1162.878136 491.156171 
L 1163.870841 491.263752 
L 1164.863547 490.896083 
L 1165.856253 491.758245 
L 1166.848959 491.390449 
L 1167.841665 491.938486 
L 1168.834371 491.180007 
L 1169.827077 490.899914 
L 1170.819783 491.407795 
L 1171.812489 491.393639 
L 1172.805195 491.795141 
L 1173.797901 491.856167 
L 1174.790607 491.499647 
L 1175.783313 491.791556 
L 1176.776019 491.541343 
L 1178.76143 491.764039 
L 1181.739548 491.266248 
L 1183.72496 492.029734 
L 1184.717666 491.610277 
L 1185.710372 491.776391 
L 1187.695784 491.652403 
L 1189.681196 492.060901 
L 1190.673901 491.345792 
L 1191.666607 491.606151 
L 1192.659313 491.227625 
L 1193.652019 492.099096 
L 1194.644725 491.667512 
L 1195.637431 491.718622 
L 1196.630137 491.883628 
L 1197.622843 491.810517 
L 1198.615549 491.364205 
L 1200.600961 491.440045 
L 1202.586373 492.099905 
L 1203.579078 491.642666 
L 1204.571784 492.48 
L 1205.56449 492.249281 
L 1206.557196 491.743947 
L 1207.549902 492.222716 
L 1210.52802 491.829805 
L 1212.513432 492.218806 
L 1213.506138 491.760719 
L 1214.498844 492.16712 
L 1215.49155 491.617197 
L 1217.476961 491.977468 
L 1219.462373 491.859709 
L 1220.455079 491.883142 
L 1221.447785 492.048379 
L 1223.433197 491.501788 
L 1224.425903 492.107941 
L 1226.411315 492.169061 
L 1227.404021 491.943532 
L 1230.382138 492.038704 
L 1231.374844 491.707754 
L 1232.36755 491.84962 
L 1233.360256 491.741259 
L 1234.352962 491.516841 
L 1235.345668 491.839959 
L 1236.338374 491.883707 
L 1237.33108 492.125609 
L 1238.323786 491.724698 
L 1239.316492 492.293302 
L 1240.309198 492.010208 
L 1241.301904 491.899067 
L 1242.29461 492.447912 
L 1243.287315 491.73845 
L 1244.280021 491.741445 
L 1245.272727 492.475266 
L 1245.272727 492.475266 
" clip-path="url(#p4517471ad9)" style="fill: none; stroke: #1f77b4; stroke-width: 1.5; stroke-linecap: square"/>
   </g>
   <g id="patch_3">
    <path d="M 180 512.64 
L 180 69.12 
" style="fill: none; stroke: #000000; stroke-width: 0.8; stroke-linejoin: miter; stroke-linecap: square"/>
   </g>
   <g id="patch_4">
    <path d="M 1296 512.64 
L 1296 69.12 
" style="fill: none; stroke: #000000; stroke-width: 0.8; stroke-linejoin: miter; stroke-linecap: square"/>
   </g>
   <g id="patch_5">
    <path d="M 180 512.64 
L 1296 512.64 
" style="fill: none; stroke: #000000; stroke-width: 0.8; stroke-linejoin: miter; stroke-linecap: square"/>
   </g>
   <g id="patch_6">
    <path d="M 180 69.12 
L 1296 69.12 
" style="fill: none; stroke: #000000; stroke-width: 0.8; stroke-linejoin: miter; stroke-linecap: square"/>
   </g>
   <g id="text_15">
    <!-- source9-receiver22 -->
    <g transform="translate(544.9 60.80125) scale(0.4 -0.4)">
     <defs>
      <path id="DejaVuSans-73" d="M 2834 3397 
L 2834 2853 
Q 2591 2978 2328 3040 
Q 2066 3103 1784 3103 
Q 1356 3103 1142 2972 
Q 928 2841 928 2578 
Q 928 2378 1081 2264 
Q 1234 2150 1697 2047 
L 1894 2003 
Q 2506 1872 2764 1633 
Q 3022 1394 3022 966 
Q 3022 478 2636 193 
Q 2250 -91 1575 -91 
Q 1294 -91 989 -36 
Q 684 19 347 128 
L 347 722 
Q 666 556 975 473 
Q 1284 391 1588 391 
Q 1994 391 2212 530 
Q 2431 669 2431 922 
Q 2431 1156 2273 1281 
Q 2116 1406 1581 1522 
L 1381 1569 
Q 847 1681 609 1914 
Q 372 2147 372 2553 
Q 372 3047 722 3315 
Q 1072 3584 1716 3584 
Q 2034 3584 2315 3537 
Q 2597 3491 2834 3397 
z
" transform="scale(0.015625)"/>
      <path id="DejaVuSans-6f" d="M 1959 3097 
Q 1497 3097 1228 2736 
Q 959 2375 959 1747 
Q 959 1119 1226 758 
Q 1494 397 1959 397 
Q 2419 397 2687 759 
Q 2956 1122 2956 1747 
Q 2956 2369 2687 2733 
Q 2419 3097 1959 3097 
z
M 1959 3584 
Q 2709 3584 3137 3096 
Q 3566 2609 3566 1747 
Q 3566 888 3137 398 
Q 2709 -91 1959 -91 
Q 1206 -91 779 398 
Q 353 888 353 1747 
Q 353 2609 779 3096 
Q 1206 3584 1959 3584 
z
" transform="scale(0.015625)"/>
      <path id="DejaVuSans-75" d="M 544 1381 
L 544 3500 
L 1119 3500 
L 1119 1403 
Q 1119 906 1312 657 
Q 1506 409 1894 409 
Q 2359 409 2629 706 
Q 2900 1003 2900 1516 
L 2900 3500 
L 3475 3500 
L 3475 0 
L 2900 0 
L 2900 538 
Q 2691 219 2414 64 
Q 2138 -91 1772 -91 
Q 1169 -91 856 284 
Q 544 659 544 1381 
z
M 1991 3584 
L 1991 3584 
z
" transform="scale(0.015625)"/>
      <path id="DejaVuSans-72" d="M 2631 2963 
Q 2534 3019 2420 3045 
Q 2306 3072 2169 3072 
Q 1681 3072 1420 2755 
Q 1159 2438 1159 1844 
L 1159 0 
L 581 0 
L 581 3500 
L 1159 3500 
L 1159 2956 
Q 1341 3275 1631 3429 
Q 1922 3584 2338 3584 
Q 2397 3584 2469 3576 
Q 2541 3569 2628 3553 
L 2631 2963 
z
" transform="scale(0.015625)"/>
      <path id="DejaVuSans-63" d="M 3122 3366 
L 3122 2828 
Q 2878 2963 2633 3030 
Q 2388 3097 2138 3097 
Q 1578 3097 1268 2742 
Q 959 2388 959 1747 
Q 959 1106 1268 751 
Q 1578 397 2138 397 
Q 2388 397 2633 464 
Q 2878 531 3122 666 
L 3122 134 
Q 2881 22 2623 -34 
Q 2366 -91 2075 -91 
Q 1284 -91 818 406 
Q 353 903 353 1747 
Q 353 2603 823 3093 
Q 1294 3584 2113 3584 
Q 2378 3584 2631 3529 
Q 2884 3475 3122 3366 
z
" transform="scale(0.015625)"/>
      <path id="DejaVuSans-65" d="M 3597 1894 
L 3597 1613 
L 953 1613 
Q 991 1019 1311 708 
Q 1631 397 2203 397 
Q 2534 397 2845 478 
Q 3156 559 3463 722 
L 3463 178 
Q 3153 47 2828 -22 
Q 2503 -91 2169 -91 
Q 1331 -91 842 396 
Q 353 884 353 1716 
Q 353 2575 817 3079 
Q 1281 3584 2069 3584 
Q 2775 3584 3186 3129 
Q 3597 2675 3597 1894 
z
M 3022 2063 
Q 3016 2534 2758 2815 
Q 2500 3097 2075 3097 
Q 1594 3097 1305 2825 
Q 1016 2553 972 2059 
L 3022 2063 
z
" transform="scale(0.015625)"/>
      <path id="DejaVuSans-39" d="M 703 97 
L 703 672 
Q 941 559 1184 500 
Q 1428 441 1663 441 
Q 2288 441 2617 861 
Q 2947 1281 2994 2138 
Q 2813 1869 2534 1725 
Q 2256 1581 1919 1581 
Q 1219 1581 811 2004 
Q 403 2428 403 3163 
Q 403 3881 828 4315 
Q 1253 4750 1959 4750 
Q 2769 4750 3195 4129 
Q 3622 3509 3622 2328 
Q 3622 1225 3098 567 
Q 2575 -91 1691 -91 
Q 1453 -91 1209 -44 
Q 966 3 703 97 
z
M 1959 2075 
Q 2384 2075 2632 2365 
Q 2881 2656 2881 3163 
Q 2881 3666 2632 3958 
Q 2384 4250 1959 4250 
Q 1534 4250 1286 3958 
Q 1038 3666 1038 3163 
Q 1038 2656 1286 2365 
Q 1534 2075 1959 2075 
z
" transform="scale(0.015625)"/>
      <path id="DejaVuSans-2d" d="M 313 2009 
L 1997 2009 
L 1997 1497 
L 313 1497 
L 313 2009 
z
" transform="scale(0.015625)"/>
      <path id="DejaVuSans-69" d="M 603 3500 
L 1178 3500 
L 1178 0 
L 603 0 
L 603 3500 
z
M 603 4863 
L 1178 4863 
L 1178 4134 
L 603 4134 
L 603 4863 
z
" transform="scale(0.015625)"/>
      <path id="DejaVuSans-76" d="M 191 3500 
L 800 3500 
L 1894 563 
L 2988 3500 
L 3597 3500 
L 2284 0 
L 1503 0 
L 191 3500 
z
" transform="scale(0.015625)"/>
     </defs>
     <use xlink:href="#DejaVuSans-73"/>
     <use xlink:href="#DejaVuSans-6f" x="52.099609"/>
     <use xlink:href="#DejaVuSans-75" x="113.28125"/>
     <use xlink:href="#DejaVuSans-72" x="176.660156"/>
     <use xlink:href="#DejaVuSans-63" x="215.523438"/>
     <use xlink:href="#DejaVuSans-65" x="270.503906"/>
     <use xlink:href="#DejaVuSans-39" x="332.027344"/>
     <use xlink:href="#DejaVuSans-2d" x="395.650391"/>
     <use xlink:href="#DejaVuSans-72" x="431.734375"/>
     <use xlink:href="#DejaVuSans-65" x="470.597656"/>
     <use xlink:href="#DejaVuSans-63" x="532.121094"/>
     <use xlink:href="#DejaVuSans-65" x="587.101562"/>
     <use xlink:href="#DejaVuSans-69" x="648.625"/>
     <use xlink:href="#DejaVuSans-76" x="676.408203"/>
     <use xlink:href="#DejaVuSans-65" x="735.587891"/>
     <use xlink:href="#DejaVuSans-72" x="797.111328"/>
     <use xlink:href="#DejaVuSans-32" x="838.224609"/>
     <use xlink:href="#DejaVuSans-32" x="901.847656"/>
    </g>
   </g>
  </g>
 </g>
 <defs>
  <clipPath id="p4517471ad9">
   <rect x="180" y="69.12" width="1116" height="443.52"/>
  </clipPath>
 </defs>
</svg>
