<?xml version="1.0" encoding="utf-8" standalone="no"?>
<!DOCTYPE svg PUBLIC "-//W3C//DTD SVG 1.1//EN"
  "http://www.w3.org/Graphics/SVG/1.1/DTD/svg11.dtd">
<svg xmlns:xlink="http://www.w3.org/1999/xlink" width="1440pt" height="576pt" viewBox="0 0 1440 576" xmlns="http://www.w3.org/2000/svg" version="1.1">
 <metadata>
  <rdf:RDF xmlns:dc="http://purl.org/dc/elements/1.1/" xmlns:cc="http://creativecommons.org/ns#" xmlns:rdf="http://www.w3.org/1999/02/22-rdf-syntax-ns#">
   <cc:Work>
    <dc:type rdf:resource="http://purl.org/dc/dcmitype/StillImage"/>
    <dc:date>2024-05-22T04:49:55.422067</dc:date>
    <dc:format>image/svg+xml</dc:format>
    <dc:creator>
     <cc:Agent>
      <dc:title>Matplotlib v3.8.3, https://matplotlib.org/</dc:title>
     </cc:Agent>
    </dc:creator>
   </cc:Work>
  </rdf:RDF>
 </metadata>
 <defs>
  <style type="text/css">*{stroke-linejoin: round; stroke-linecap: butt}</style>
 </defs>
 <g id="figure_1">
  <g id="patch_1">
   <path d="M 0 576 
L 1440 576 
L 1440 0 
L 0 0 
z
" style="fill: #ffffff"/>
  </g>
  <g id="axes_1">
   <g id="patch_2">
    <path d="M 180 512.64 
L 1296 512.64 
L 1296 69.12 
L 180 69.12 
z
" style="fill: #ffffff"/>
   </g>
   <g id="matplotlib.axis_1">
    <g id="xtick_1">
     <g id="line2d_1">
      <defs>
       <path id="m9a4578ca34" d="M 0 0 
L 0 3.5 
" style="stroke: #000000; stroke-width: 0.8"/>
      </defs>
      <g>
       <use xlink:href="#m9a4578ca34" x="229.734567" y="512.64" style="stroke: #000000; stroke-width: 0.8"/>
      </g>
     </g>
     <g id="text_1">
      <!-- 0 -->
      <g transform="translate(226.553317 527.238438) scale(0.1 -0.1)">
       <defs>
        <path id="DejaVuSans-30" d="M 2034 4250 
Q 1547 4250 1301 3770 
Q 1056 3291 1056 2328 
Q 1056 1369 1301 889 
Q 1547 409 2034 409 
Q 2525 409 2770 889 
Q 3016 1369 3016 2328 
Q 3016 3291 2770 3770 
Q 2525 4250 2034 4250 
z
M 2034 4750 
Q 2819 4750 3233 4129 
Q 3647 3509 3647 2328 
Q 3647 1150 3233 529 
Q 2819 -91 2034 -91 
Q 1250 -91 836 529 
Q 422 1150 422 2328 
Q 422 3509 836 4129 
Q 1250 4750 2034 4750 
z
" transform="scale(0.015625)"/>
       </defs>
       <use xlink:href="#DejaVuSans-30"/>
      </g>
     </g>
    </g>
    <g id="xtick_2">
     <g id="line2d_2">
      <g>
       <use xlink:href="#m9a4578ca34" x="433.04074" y="512.64" style="stroke: #000000; stroke-width: 0.8"/>
      </g>
     </g>
     <g id="text_2">
      <!-- 500 -->
      <g transform="translate(423.49699 527.238438) scale(0.1 -0.1)">
       <defs>
        <path id="DejaVuSans-35" d="M 691 4666 
L 3169 4666 
L 3169 4134 
L 1269 4134 
L 1269 2991 
Q 1406 3038 1543 3061 
Q 1681 3084 1819 3084 
Q 2600 3084 3056 2656 
Q 3513 2228 3513 1497 
Q 3513 744 3044 326 
Q 2575 -91 1722 -91 
Q 1428 -91 1123 -41 
Q 819 9 494 109 
L 494 744 
Q 775 591 1075 516 
Q 1375 441 1709 441 
Q 2250 441 2565 725 
Q 2881 1009 2881 1497 
Q 2881 1984 2565 2268 
Q 2250 2553 1709 2553 
Q 1456 2553 1204 2497 
Q 953 2441 691 2322 
L 691 4666 
z
" transform="scale(0.015625)"/>
       </defs>
       <use xlink:href="#DejaVuSans-35"/>
       <use xlink:href="#DejaVuSans-30" x="63.623047"/>
       <use xlink:href="#DejaVuSans-30" x="127.246094"/>
      </g>
     </g>
    </g>
    <g id="xtick_3">
     <g id="line2d_3">
      <g>
       <use xlink:href="#m9a4578ca34" x="636.346913" y="512.64" style="stroke: #000000; stroke-width: 0.8"/>
      </g>
     </g>
     <g id="text_3">
      <!-- 1000 -->
      <g transform="translate(623.621913 527.238438) scale(0.1 -0.1)">
       <defs>
        <path id="DejaVuSans-31" d="M 794 531 
L 1825 531 
L 1825 4091 
L 703 3866 
L 703 4441 
L 1819 4666 
L 2450 4666 
L 2450 531 
L 3481 531 
L 3481 0 
L 794 0 
L 794 531 
z
" transform="scale(0.015625)"/>
       </defs>
       <use xlink:href="#DejaVuSans-31"/>
       <use xlink:href="#DejaVuSans-30" x="63.623047"/>
       <use xlink:href="#DejaVuSans-30" x="127.246094"/>
       <use xlink:href="#DejaVuSans-30" x="190.869141"/>
      </g>
     </g>
    </g>
    <g id="xtick_4">
     <g id="line2d_4">
      <g>
       <use xlink:href="#m9a4578ca34" x="839.653087" y="512.64" style="stroke: #000000; stroke-width: 0.8"/>
      </g>
     </g>
     <g id="text_4">
      <!-- 1500 -->
      <g transform="translate(826.928087 527.238438) scale(0.1 -0.1)">
       <use xlink:href="#DejaVuSans-31"/>
       <use xlink:href="#DejaVuSans-35" x="63.623047"/>
       <use xlink:href="#DejaVuSans-30" x="127.246094"/>
       <use xlink:href="#DejaVuSans-30" x="190.869141"/>
      </g>
     </g>
    </g>
    <g id="xtick_5">
     <g id="line2d_5">
      <g>
       <use xlink:href="#m9a4578ca34" x="1042.95926" y="512.64" style="stroke: #000000; stroke-width: 0.8"/>
      </g>
     </g>
     <g id="text_5">
      <!-- 2000 -->
      <g transform="translate(1030.23426 527.238438) scale(0.1 -0.1)">
       <defs>
        <path id="DejaVuSans-32" d="M 1228 531 
L 3431 531 
L 3431 0 
L 469 0 
L 469 531 
Q 828 903 1448 1529 
Q 2069 2156 2228 2338 
Q 2531 2678 2651 2914 
Q 2772 3150 2772 3378 
Q 2772 3750 2511 3984 
Q 2250 4219 1831 4219 
Q 1534 4219 1204 4116 
Q 875 4013 500 3803 
L 500 4441 
Q 881 4594 1212 4672 
Q 1544 4750 1819 4750 
Q 2544 4750 2975 4387 
Q 3406 4025 3406 3419 
Q 3406 3131 3298 2873 
Q 3191 2616 2906 2266 
Q 2828 2175 2409 1742 
Q 1991 1309 1228 531 
z
" transform="scale(0.015625)"/>
       </defs>
       <use xlink:href="#DejaVuSans-32"/>
       <use xlink:href="#DejaVuSans-30" x="63.623047"/>
       <use xlink:href="#DejaVuSans-30" x="127.246094"/>
       <use xlink:href="#DejaVuSans-30" x="190.869141"/>
      </g>
     </g>
    </g>
    <g id="xtick_6">
     <g id="line2d_6">
      <g>
       <use xlink:href="#m9a4578ca34" x="1246.265433" y="512.64" style="stroke: #000000; stroke-width: 0.8"/>
      </g>
     </g>
     <g id="text_6">
      <!-- 2500 -->
      <g transform="translate(1233.540433 527.238438) scale(0.1 -0.1)">
       <use xlink:href="#DejaVuSans-32"/>
       <use xlink:href="#DejaVuSans-35" x="63.623047"/>
       <use xlink:href="#DejaVuSans-30" x="127.246094"/>
       <use xlink:href="#DejaVuSans-30" x="190.869141"/>
      </g>
     </g>
    </g>
   </g>
   <g id="matplotlib.axis_2">
    <g id="ytick_1">
     <g id="line2d_7">
      <defs>
       <path id="m4ef0a5c987" d="M 0 0 
L -3.5 0 
" style="stroke: #000000; stroke-width: 0.8"/>
      </defs>
      <g>
       <use xlink:href="#m4ef0a5c987" x="180" y="479.865659" style="stroke: #000000; stroke-width: 0.8"/>
      </g>
     </g>
     <g id="text_7">
      <!-- −4 -->
      <g transform="translate(158.257812 483.664878) scale(0.1 -0.1)">
       <defs>
        <path id="DejaVuSans-2212" d="M 678 2272 
L 4684 2272 
L 4684 1741 
L 678 1741 
L 678 2272 
z
" transform="scale(0.015625)"/>
        <path id="DejaVuSans-34" d="M 2419 4116 
L 825 1625 
L 2419 1625 
L 2419 4116 
z
M 2253 4666 
L 3047 4666 
L 3047 1625 
L 3713 1625 
L 3713 1100 
L 3047 1100 
L 3047 0 
L 2419 0 
L 2419 1100 
L 313 1100 
L 313 1709 
L 2253 4666 
z
" transform="scale(0.015625)"/>
       </defs>
       <use xlink:href="#DejaVuSans-2212"/>
       <use xlink:href="#DejaVuSans-34" x="83.789062"/>
      </g>
     </g>
    </g>
    <g id="ytick_2">
     <g id="line2d_8">
      <g>
       <use xlink:href="#m4ef0a5c987" x="180" y="400.783376" style="stroke: #000000; stroke-width: 0.8"/>
      </g>
     </g>
     <g id="text_8">
      <!-- −2 -->
      <g transform="translate(158.257812 404.582595) scale(0.1 -0.1)">
       <use xlink:href="#DejaVuSans-2212"/>
       <use xlink:href="#DejaVuSans-32" x="83.789062"/>
      </g>
     </g>
    </g>
    <g id="ytick_3">
     <g id="line2d_9">
      <g>
       <use xlink:href="#m4ef0a5c987" x="180" y="321.701092" style="stroke: #000000; stroke-width: 0.8"/>
      </g>
     </g>
     <g id="text_9">
      <!-- 0 -->
      <g transform="translate(166.6375 325.500311) scale(0.1 -0.1)">
       <use xlink:href="#DejaVuSans-30"/>
      </g>
     </g>
    </g>
    <g id="ytick_4">
     <g id="line2d_10">
      <g>
       <use xlink:href="#m4ef0a5c987" x="180" y="242.618809" style="stroke: #000000; stroke-width: 0.8"/>
      </g>
     </g>
     <g id="text_10">
      <!-- 2 -->
      <g transform="translate(166.6375 246.418028) scale(0.1 -0.1)">
       <use xlink:href="#DejaVuSans-32"/>
      </g>
     </g>
    </g>
    <g id="ytick_5">
     <g id="line2d_11">
      <g>
       <use xlink:href="#m4ef0a5c987" x="180" y="163.536525" style="stroke: #000000; stroke-width: 0.8"/>
      </g>
     </g>
     <g id="text_11">
      <!-- 4 -->
      <g transform="translate(166.6375 167.335744) scale(0.1 -0.1)">
       <use xlink:href="#DejaVuSans-34"/>
      </g>
     </g>
    </g>
    <g id="ytick_6">
     <g id="line2d_12">
      <g>
       <use xlink:href="#m4ef0a5c987" x="180" y="84.454242" style="stroke: #000000; stroke-width: 0.8"/>
      </g>
     </g>
     <g id="text_12">
      <!-- 6 -->
      <g transform="translate(166.6375 88.253461) scale(0.1 -0.1)">
       <defs>
        <path id="DejaVuSans-36" d="M 2113 2584 
Q 1688 2584 1439 2293 
Q 1191 2003 1191 1497 
Q 1191 994 1439 701 
Q 1688 409 2113 409 
Q 2538 409 2786 701 
Q 3034 994 3034 1497 
Q 3034 2003 2786 2293 
Q 2538 2584 2113 2584 
z
M 3366 4563 
L 3366 3988 
Q 3128 4100 2886 4159 
Q 2644 4219 2406 4219 
Q 1781 4219 1451 3797 
Q 1122 3375 1075 2522 
Q 1259 2794 1537 2939 
Q 1816 3084 2150 3084 
Q 2853 3084 3261 2657 
Q 3669 2231 3669 1497 
Q 3669 778 3244 343 
Q 2819 -91 2113 -91 
Q 1303 -91 875 529 
Q 447 1150 447 2328 
Q 447 3434 972 4092 
Q 1497 4750 2381 4750 
Q 2619 4750 2861 4703 
Q 3103 4656 3366 4563 
z
" transform="scale(0.015625)"/>
       </defs>
       <use xlink:href="#DejaVuSans-36"/>
      </g>
     </g>
    </g>
   </g>
   <g id="line2d_13">
    <path d="M 230.727273 240.300292 
L 231.719979 259.449969 
L 232.712685 257.896095 
L 233.70539 279.829177 
L 234.698096 268.643988 
L 235.690802 290.001246 
L 236.683508 271.112247 
L 237.676214 287.732956 
L 238.66892 292.39297 
L 239.661626 303.337718 
L 240.654332 320.297741 
L 241.647038 359.188102 
L 242.639744 280.374781 
L 243.63245 305.186981 
L 244.625156 290.854735 
L 245.617862 284.341721 
L 246.610568 313.118104 
L 247.603273 294.548012 
L 248.595979 266.940572 
L 249.588685 249.867774 
L 250.581391 229.265325 
L 251.574097 224.252916 
L 252.566803 252.116525 
L 253.559509 285.890727 
L 254.552215 241.088616 
L 255.544921 218.963443 
L 256.537627 201.441884 
L 257.530333 189.221759 
L 258.523039 223.818354 
L 259.515745 248.263888 
L 260.50845 218.487793 
L 261.501156 182.870665 
L 262.493862 180.653675 
L 263.486568 171.490071 
L 264.479274 216.175679 
L 265.47198 211.551134 
L 267.457392 162.81472 
L 268.450098 187.629475 
L 269.442804 166.826111 
L 270.43551 199.584426 
L 271.428216 196.602544 
L 272.420922 162.651748 
L 273.413627 166.997613 
L 274.406333 184.226066 
L 275.399039 184.929887 
L 276.391745 164.539782 
L 277.384451 147.15591 
L 278.377157 108.713914 
L 279.369863 107.024704 
L 280.362569 92.247606 
L 281.355275 89.28 
L 282.347981 116.600538 
L 283.340687 107.619396 
L 284.333393 92.386724 
L 285.326099 96.379176 
L 286.318804 110.598979 
L 287.31151 134.109796 
L 288.304216 148.486199 
L 289.296922 158.096613 
L 290.289628 120.391922 
L 291.282334 118.326119 
L 293.267746 148.750379 
L 294.260452 180.109103 
L 295.253158 168.1532 
L 296.245864 142.037047 
L 297.23857 141.357333 
L 298.231276 155.272653 
L 299.223981 171.329552 
L 300.216687 207.238447 
L 301.209393 188.512144 
L 302.202099 162.488483 
L 303.194805 169.967706 
L 304.187511 188.17527 
L 305.180217 213.53402 
L 306.172923 245.881969 
L 307.165629 203.565497 
L 308.158335 193.641325 
L 310.143747 219.458821 
L 311.136453 241.965747 
L 312.129159 255.945548 
L 314.11457 225.021153 
L 315.107276 228.203017 
L 316.099982 228.012879 
L 317.092688 222.908795 
L 318.085394 225.813496 
L 319.0781 254.478642 
L 320.070806 233.438663 
L 321.063512 215.35862 
L 322.056218 215.933185 
L 323.048924 217.089239 
L 324.04163 237.798314 
L 325.034336 251.780076 
L 326.027041 228.157134 
L 327.019747 216.711531 
L 328.012453 216.166562 
L 329.997865 224.896162 
L 330.990571 223.394974 
L 331.983277 214.820485 
L 332.975983 215.060659 
L 333.968689 217.385159 
L 334.961395 223.989262 
L 335.954101 234.836939 
L 336.946807 243.998485 
L 337.939513 267.770247 
L 338.932218 278.736935 
L 339.924924 285.161966 
L 340.91763 263.436665 
L 341.910336 257.38575 
L 342.903042 247.469481 
L 343.895748 253.943019 
L 344.888454 263.304166 
L 345.88116 317.110204 
L 346.873866 287.971233 
L 347.866572 271.587937 
L 348.859278 264.22878 
L 349.851984 272.736806 
L 350.84469 264.363617 
L 351.837395 278.299004 
L 352.830101 299.372487 
L 353.822807 289.040886 
L 354.815513 271.194452 
L 355.808219 262.048992 
L 356.800925 261.555782 
L 357.793631 262.192316 
L 358.786337 268.262311 
L 359.779043 312.069972 
L 361.764455 243.49033 
L 362.757161 240.943441 
L 363.749867 254.629846 
L 364.742572 299.843704 
L 365.735278 250.144366 
L 366.727984 231.713512 
L 367.72069 219.923841 
L 368.713396 221.215151 
L 369.706102 236.032634 
L 370.698808 275.4476 
L 372.68422 236.950505 
L 373.676926 221.901062 
L 374.669632 215.725106 
L 375.662338 229.592753 
L 376.655044 239.969662 
L 377.64775 238.349114 
L 378.640455 239.43876 
L 379.633161 198.819076 
L 380.625867 187.381245 
L 381.618573 203.430191 
L 382.611279 257.050684 
L 383.603985 183.435736 
L 384.596691 164.27008 
L 385.589397 156.591517 
L 386.582103 157.435613 
L 387.574809 174.034039 
L 388.567515 234.477478 
L 389.560221 184.189702 
L 390.552927 167.426739 
L 391.545632 170.081365 
L 392.538338 181.86042 
L 393.531044 210.151383 
L 394.52375 242.511257 
L 395.516456 187.6534 
L 396.509162 176.987546 
L 397.501868 185.432524 
L 398.494574 207.458962 
L 399.48728 246.173415 
L 400.479986 264.030487 
L 401.472692 218.207572 
L 402.465398 211.475747 
L 403.458104 223.466019 
L 404.450809 245.881492 
L 405.443515 254.956454 
L 406.436221 244.990357 
L 407.428927 237.200279 
L 408.421633 246.643274 
L 409.414339 274.040842 
L 410.407045 272.28641 
L 411.399751 300.362027 
L 412.392457 248.286259 
L 413.385163 235.574674 
L 414.377869 250.583226 
L 415.370575 274.960102 
L 416.363281 266.919956 
L 417.355986 290.408261 
L 418.348692 273.720106 
L 419.341398 252.878032 
L 421.32681 241.862433 
L 422.319516 261.669434 
L 423.312222 310.563223 
L 424.304928 244.483201 
L 425.297634 237.070032 
L 426.29034 243.508428 
L 427.283046 256.373802 
L 428.275752 277.558045 
L 429.268458 282.211667 
L 430.261163 252.359124 
L 431.253869 251.540751 
L 432.246575 258.471833 
L 433.239281 270.979144 
L 434.231987 271.935968 
L 435.224693 265.983072 
L 436.217399 264.461402 
L 437.210105 266.611666 
L 438.202811 271.574718 
L 439.195517 261.537296 
L 440.188223 258.704961 
L 442.173635 250.830425 
L 443.166341 242.980356 
L 444.159046 243.356483 
L 445.151752 245.999546 
L 446.144458 253.047435 
L 447.137164 254.409114 
L 448.12987 257.225979 
L 449.122576 258.431554 
L 450.115282 260.655143 
L 451.107988 254.107287 
L 452.100694 262.607908 
L 453.0934 295.858417 
L 454.086106 305.558935 
L 455.078812 286.098563 
L 456.071518 279.448868 
L 457.064223 274.434974 
L 458.056929 278.070372 
L 459.049635 342.507925 
L 460.042341 296.735504 
L 461.035047 290.71424 
L 462.027753 332.482519 
L 463.020459 299.451252 
L 464.013165 285.782455 
L 465.005871 288.290182 
L 465.998577 305.443714 
L 466.991283 330.366498 
L 467.983989 336.218138 
L 468.976695 298.06449 
L 469.9694 303.873107 
L 470.962106 308.010944 
L 471.954812 276.667936 
L 472.947518 266.996861 
L 473.940224 270.146319 
L 474.93293 279.75568 
L 475.925636 293.689942 
L 476.918342 273.569012 
L 477.911048 262.162725 
L 478.903754 258.177736 
L 479.89646 249.69348 
L 480.889166 242.836467 
L 481.881872 253.316143 
L 482.874577 286.829385 
L 483.867283 230.949876 
L 484.859989 214.642969 
L 485.852695 217.104725 
L 486.845401 237.967173 
L 487.838107 298.850009 
L 488.830813 265.945869 
L 489.823519 228.628292 
L 490.816225 207.558667 
L 491.808931 201.202148 
L 492.801637 207.054826 
L 493.794343 224.521244 
L 494.787049 239.264497 
L 495.779754 228.263679 
L 496.77246 220.324184 
L 497.765166 224.196908 
L 498.757872 249.921543 
L 499.750578 302.983303 
L 500.743284 235.644633 
L 501.73599 224.448268 
L 502.728696 226.725986 
L 503.721402 239.839684 
L 504.714108 261.080087 
L 505.706814 273.356981 
L 506.69952 264.51209 
L 507.692226 259.416753 
L 508.684932 261.909606 
L 509.677637 270.591427 
L 510.670343 266.293992 
L 511.663049 264.779516 
L 512.655755 268.248489 
L 513.648461 274.455177 
L 514.641167 276.541223 
L 515.633873 296.684414 
L 516.626579 299.614724 
L 517.619285 263.175006 
L 518.611991 253.008953 
L 519.604697 260.378814 
L 520.597403 269.680124 
L 521.590109 288.747387 
L 522.582814 330.824359 
L 523.57552 288.439356 
L 524.568226 276.677754 
L 525.560932 278.845639 
L 527.546344 288.162728 
L 528.53905 325.982647 
L 529.531756 302.142454 
L 530.524462 282.852827 
L 531.517168 274.2966 
L 532.509874 273.252901 
L 533.50258 275.166721 
L 534.495286 277.451136 
L 535.487991 272.030385 
L 536.480697 270.342909 
L 537.473403 278.323452 
L 538.466109 288.378323 
L 539.458815 296.530082 
L 540.451521 296.769954 
L 541.444227 279.28272 
L 542.436933 270.536112 
L 544.422345 256.3375 
L 545.415051 256.907399 
L 546.407757 265.412014 
L 547.400463 275.175674 
L 548.393168 270.336062 
L 549.385874 269.226232 
L 551.371286 276.109455 
L 552.363992 273.508451 
L 553.356698 278.417462 
L 554.349404 298.400123 
L 555.34211 328.823696 
L 556.334816 281.407889 
L 557.327522 267.784199 
L 558.320228 270.144595 
L 559.312934 290.141308 
L 560.30564 313.135432 
L 561.298345 341.98806 
L 562.291051 367.453847 
L 563.283757 306.883573 
L 564.276463 284.96738 
L 565.269169 276.041902 
L 566.261875 277.889935 
L 567.254581 296.020795 
L 568.247287 329.755031 
L 569.239993 305.779978 
L 570.232699 287.271013 
L 571.225405 288.898923 
L 572.218111 318.703268 
L 573.210817 327.008266 
L 574.203523 288.104767 
L 575.196228 277.1009 
L 576.188934 278.262035 
L 577.18164 276.27483 
L 578.174346 283.065082 
L 579.167052 306.466443 
L 580.159758 319.680318 
L 581.152464 302.385451 
L 582.14517 314.500685 
L 583.137876 272.074654 
L 584.130582 248.663784 
L 585.123288 244.177699 
L 586.115994 252.117576 
L 587.1087 271.34878 
L 588.101405 293.265674 
L 589.094111 256.542193 
L 590.086817 237.064932 
L 591.079523 229.002301 
L 592.072229 233.004936 
L 593.064935 249.971337 
L 594.057641 282.745313 
L 595.050347 263.610523 
L 596.043053 241.013688 
L 597.035759 231.757639 
L 598.028465 230.647129 
L 599.021171 241.236948 
L 600.013877 271.403987 
L 601.006582 326.966308 
L 601.999288 265.380604 
L 602.991994 256.981396 
L 603.9847 260.054446 
L 604.977406 280.439849 
L 605.970112 341.334858 
L 606.962818 264.82531 
L 607.955524 242.838304 
L 608.94823 239.350321 
L 609.940936 247.171731 
L 610.933642 271.249409 
L 611.926348 327.886656 
L 612.919054 285.862574 
L 613.911759 259.214288 
L 614.904465 249.403243 
L 615.897171 249.797057 
L 616.889877 259.928674 
L 617.882583 260.892705 
L 618.875289 263.503213 
L 619.867995 275.572651 
L 620.860701 299.556749 
L 621.853407 290.48624 
L 622.846113 263.570679 
L 623.838819 247.283936 
L 624.831525 245.670482 
L 625.824231 259.778661 
L 626.816936 304.974388 
L 627.809642 342.894507 
L 628.802348 295.268286 
L 629.795054 275.197818 
L 630.78776 264.070096 
L 631.780466 267.872536 
L 632.773172 278.145663 
L 633.765878 299.353372 
L 634.758584 283.923601 
L 635.75129 262.669291 
L 636.743996 260.349347 
L 637.736702 267.818003 
L 638.729408 276.380933 
L 639.722114 278.900246 
L 640.714819 289.582718 
L 641.707525 305.942723 
L 642.700231 308.738316 
L 643.692937 299.699599 
L 644.685643 288.536005 
L 645.678349 282.535727 
L 646.671055 265.856567 
L 647.663761 256.842286 
L 648.656467 252.337119 
L 649.649173 251.837956 
L 650.641879 251.635116 
L 651.634585 258.844201 
L 652.627291 272.979068 
L 653.619996 290.374793 
L 654.612702 303.05986 
L 655.605408 319.127066 
L 656.598114 328.971614 
L 657.59082 295.470489 
L 658.583526 276.103763 
L 659.576232 268.412644 
L 660.568938 268.422211 
L 661.561644 269.435704 
L 662.55435 277.028307 
L 663.547056 282.908501 
L 664.539762 281.05649 
L 665.532468 282.318123 
L 666.525173 295.596654 
L 668.510585 267.863649 
L 669.503291 268.068658 
L 670.495997 274.227618 
L 671.488703 275.349682 
L 672.481409 274.958413 
L 673.474115 282.78446 
L 674.466821 291.64422 
L 675.459527 298.517533 
L 676.452233 302.557014 
L 677.444939 314.048996 
L 678.437645 300.760319 
L 679.43035 289.222116 
L 680.423056 281.180992 
L 681.415762 279.620622 
L 682.408468 272.993202 
L 683.401174 272.034361 
L 684.39388 274.707553 
L 685.386586 283.518933 
L 687.371998 314.039298 
L 688.364704 309.961053 
L 689.35741 288.809357 
L 690.350116 279.218274 
L 691.342822 271.030293 
L 692.335527 266.036881 
L 693.328233 267.441204 
L 695.313645 284.812248 
L 696.306351 264.187417 
L 697.299057 251.556219 
L 698.291763 247.648651 
L 699.284469 254.348182 
L 700.277175 278.758825 
L 701.269881 370.10539 
L 702.262587 272.021456 
L 703.255293 256.101077 
L 704.247999 258.156595 
L 705.240705 270.718061 
L 706.23341 285.20868 
L 707.226116 279.028407 
L 708.218822 269.835731 
L 709.211528 267.218649 
L 710.204234 268.991861 
L 711.19694 273.554279 
L 712.189646 294.00706 
L 713.182352 385.789747 
L 714.175058 291.903226 
L 715.167764 273.323041 
L 716.16047 277.316989 
L 718.145882 329.692111 
L 719.138587 276.510705 
L 720.131293 262.091685 
L 721.123999 260.29487 
L 722.116705 271.11593 
L 723.109411 288.09069 
L 724.102117 300.531606 
L 725.094823 294.349888 
L 726.087529 295.716961 
L 727.080235 302.402975 
L 728.072941 302.147553 
L 730.058353 278.3956 
L 731.051059 274.150865 
L 732.043764 277.175738 
L 733.03647 284.301523 
L 735.021882 315.093528 
L 736.014588 314.399258 
L 737.007294 309.668897 
L 738 295.883135 
L 739.985412 274.842081 
L 740.978118 272.451576 
L 741.970824 277.710429 
L 742.96353 285.4387 
L 743.956236 290.598001 
L 744.948941 285.565648 
L 745.941647 281.539759 
L 747.927059 275.831806 
L 748.919765 271.686767 
L 749.912471 268.550412 
L 750.905177 268.645655 
L 752.890589 269.394837 
L 753.883295 272.319871 
L 755.868707 288.222697 
L 756.861413 298.576214 
L 758.846824 303.570503 
L 759.83953 299.560198 
L 760.832236 297.574552 
L 761.824942 301.554975 
L 762.817648 306.536361 
L 763.810354 284.624217 
L 764.80306 273.128184 
L 765.795766 271.519202 
L 766.788472 277.792195 
L 767.781178 281.946638 
L 768.773884 290.277344 
L 769.76659 300.590499 
L 770.759295 302.125042 
L 771.752001 294.534857 
L 772.744707 293.619219 
L 773.737413 283.299102 
L 774.730119 278.866202 
L 775.722825 277.492303 
L 777.708237 285.765302 
L 778.700943 302.559984 
L 780.686355 369.344929 
L 781.679061 335.424775 
L 782.671767 325.529463 
L 783.664473 312.299165 
L 785.649884 304.387975 
L 786.64259 299.62856 
L 787.635296 289.440025 
L 788.628002 286.564226 
L 789.620708 284.543096 
L 790.613414 289.924875 
L 791.60612 298.877307 
L 792.598826 325.430941 
L 793.591532 367.210122 
L 794.584238 351.780777 
L 796.56965 293.725322 
L 797.562355 281.602305 
L 798.555061 276.090903 
L 799.547767 280.864633 
L 800.540473 297.100011 
L 801.533179 317.231163 
L 802.525885 301.430675 
L 803.518591 283.385443 
L 804.511297 277.496186 
L 805.504003 280.145124 
L 806.496709 300.98343 
L 807.489415 338.010245 
L 808.482121 301.480789 
L 809.474827 289.005589 
L 810.467532 294.588277 
L 812.452944 326.068921 
L 813.44565 323.037268 
L 814.438356 301.9772 
L 815.431062 284.626982 
L 816.423768 279.382219 
L 817.416474 288.358533 
L 818.40918 313.127212 
L 819.401886 348.338315 
L 820.394592 322.388543 
L 821.387298 318.250186 
L 822.380004 334.248242 
L 823.372709 363.282604 
L 824.365415 318.719766 
L 825.358121 294.560444 
L 826.350827 291.816258 
L 827.343533 300.062292 
L 828.336239 320.764335 
L 829.328945 370.207567 
L 830.321651 368.121142 
L 831.314357 322.375747 
L 832.307063 308.775226 
L 833.299769 303.587016 
L 834.292475 313.992255 
L 835.285181 312.617549 
L 836.277886 300.442337 
L 837.270592 293.999058 
L 838.263298 301.771296 
L 839.256004 325.120777 
L 840.24871 388.834847 
L 841.241416 316.136456 
L 842.234122 297.160096 
L 843.226828 291.113476 
L 844.219534 296.71416 
L 845.21224 296.842672 
L 846.204946 300.486641 
L 847.197652 305.768118 
L 848.190358 317.072884 
L 849.183064 315.055993 
L 850.175769 304.106991 
L 851.168475 301.868348 
L 852.161181 300.556581 
L 853.153887 304.035297 
L 854.146593 296.550624 
L 855.139299 294.179608 
L 856.132005 290.672371 
L 857.124711 289.891816 
L 858.117417 286.833117 
L 859.110123 293.121809 
L 860.102829 301.548773 
L 861.095535 311.151622 
L 862.088241 311.41676 
L 863.080946 317.035154 
L 866.059064 357.964866 
L 867.05177 344.867738 
L 868.044476 345.95873 
L 869.037182 317.881029 
L 870.029888 298.90595 
L 871.022594 290.532061 
L 872.0153 297.695478 
L 873.008006 312.593323 
L 874.000712 339.291769 
L 874.993418 337.574628 
L 875.986123 344.021828 
L 876.978829 331.981088 
L 877.971535 314.154146 
L 878.964241 302.04907 
L 879.956947 298.658733 
L 880.949653 299.860288 
L 881.942359 303.930774 
L 882.935065 301.208375 
L 883.927771 305.509185 
L 884.920477 318.763159 
L 885.913183 373.119909 
L 886.905889 338.724979 
L 887.898595 318.075147 
L 888.8913 311.641644 
L 889.884006 306.884512 
L 890.876712 307.786548 
L 891.869418 306.540906 
L 892.862124 296.588392 
L 893.85483 287.769103 
L 894.847536 289.83615 
L 895.840242 301.842191 
L 896.832948 325.4683 
L 897.825654 404.431605 
L 898.81836 335.529782 
L 899.811066 318.470402 
L 900.803772 331.229195 
L 901.796477 318.967722 
L 902.789183 297.526011 
L 903.781889 289.359263 
L 904.774595 298.368343 
L 905.767301 318.359085 
L 906.760007 362.411553 
L 907.752713 384.518967 
L 908.745419 333.025987 
L 909.738125 308.001932 
L 910.730831 302.209693 
L 911.723537 320.307605 
L 912.716243 367.4013 
L 913.708949 315.737559 
L 914.701655 300.135149 
L 915.69436 304.18445 
L 916.687066 321.946325 
L 917.679772 383.781407 
L 918.672478 338.016017 
L 919.665184 316.793736 
L 920.65789 312.951366 
L 921.650596 319.588674 
L 922.643302 316.545903 
L 923.636008 312.793908 
L 924.628714 320.447472 
L 925.62142 334.250315 
L 927.606832 412.606851 
L 928.599537 375.344955 
L 929.592243 399.766028 
L 930.584949 372.923428 
L 931.577655 338.843518 
L 932.570361 319.408007 
L 933.563067 323.523763 
L 934.555773 338.465879 
L 935.548479 439.788814 
L 936.541185 333.648319 
L 937.533891 307.698218 
L 938.526597 297.829101 
L 939.519303 305.608573 
L 940.512009 324.913482 
L 941.504714 342.008318 
L 942.49742 327.584877 
L 943.490126 341.923121 
L 944.482832 367.299693 
L 945.475538 323.664485 
L 946.468244 309.691775 
L 947.46095 305.594002 
L 948.453656 314.60258 
L 950.439068 359.879589 
L 951.431774 355.693724 
L 952.42448 347.132583 
L 953.417186 335.425342 
L 954.409891 320.459994 
L 955.402597 320.341259 
L 956.395303 325.740569 
L 957.388009 330.372088 
L 959.373421 317.031869 
L 960.366127 315.650615 
L 961.358833 320.868177 
L 962.351539 324.838324 
L 963.344245 318.616705 
L 964.336951 317.720559 
L 965.329657 320.320385 
L 966.322363 333.975305 
L 967.315068 333.702191 
L 968.307774 335.67828 
L 969.30048 333.440477 
L 970.293186 347.199335 
L 971.285892 350.868667 
L 973.271304 337.105552 
L 974.26401 338.057657 
L 975.256716 318.697865 
L 976.249422 311.285616 
L 977.242128 310.863645 
L 978.234834 322.829641 
L 979.22754 351.144773 
L 980.220246 353.298925 
L 981.212951 340.447699 
L 982.205657 344.749612 
L 983.198363 340.45205 
L 984.191069 334.802157 
L 985.183775 317.316162 
L 986.176481 310.437446 
L 987.169187 309.101306 
L 988.161893 314.145878 
L 989.154599 324.551193 
L 990.147305 333.418593 
L 991.140011 367.040745 
L 992.132717 369.411851 
L 993.125423 329.777452 
L 995.110834 304.110847 
L 996.10354 303.644329 
L 997.096246 309.20349 
L 998.088952 322.196514 
L 999.081658 316.678825 
L 1000.074364 317.497882 
L 1001.06707 318.950934 
L 1003.052482 342.612606 
L 1004.045188 347.989942 
L 1005.037894 343.149141 
L 1006.0306 346.960225 
L 1007.023305 398.114863 
L 1008.016011 333.397754 
L 1009.008717 317.539798 
L 1010.001423 313.459016 
L 1010.994129 319.442985 
L 1011.986835 337.971899 
L 1012.979541 367.201974 
L 1014.964953 319.513368 
L 1015.957659 321.975875 
L 1016.950365 348.844057 
L 1017.943071 354.704933 
L 1018.935777 315.122482 
L 1019.928482 308.311285 
L 1020.921188 311.314428 
L 1021.913894 333.160179 
L 1022.9066 381.223537 
L 1023.899306 360.362072 
L 1024.892012 332.293034 
L 1025.884718 336.248985 
L 1026.877424 344.816333 
L 1028.862836 329.780965 
L 1029.855542 329.002462 
L 1030.848248 335.231653 
L 1031.840954 353.163933 
L 1032.833659 359.443368 
L 1033.826365 363.801459 
L 1034.819071 375.217009 
L 1035.811777 363.26934 
L 1036.804483 349.033746 
L 1037.797189 359.680548 
L 1038.789895 354.71097 
L 1039.782601 358.170494 
L 1040.775307 363.295377 
L 1041.768013 381.046031 
L 1042.760719 339.557893 
L 1043.753425 330.628764 
L 1044.746131 330.203764 
L 1045.738837 335.724435 
L 1046.731542 349.429188 
L 1047.724248 352.82503 
L 1048.716954 357.669804 
L 1049.70966 377.922904 
L 1050.702366 362.023924 
L 1052.687778 319.035033 
L 1053.680484 314.153596 
L 1054.67319 314.385674 
L 1055.665896 328.703188 
L 1056.658602 366.387365 
L 1057.651308 492.48 
L 1058.644014 372.965765 
L 1059.636719 354.972989 
L 1060.629425 343.646949 
L 1061.622131 330.915849 
L 1062.614837 339.125981 
L 1063.607543 390.634062 
L 1065.592955 319.243311 
L 1066.585661 313.452299 
L 1067.578367 313.393619 
L 1068.571073 317.865363 
L 1069.563779 318.090288 
L 1070.556485 322.422824 
L 1071.549191 335.047035 
L 1072.541896 342.146542 
L 1073.534602 340.140662 
L 1074.527308 337.505461 
L 1075.520014 348.004784 
L 1076.51272 345.512254 
L 1077.505426 346.525181 
L 1078.498132 350.232351 
L 1079.490838 368.319078 
L 1080.483544 356.152905 
L 1081.47625 358.26985 
L 1082.468956 358.321706 
L 1083.461662 371.38489 
L 1084.454368 362.736509 
L 1085.447073 350.506788 
L 1086.439779 352.175116 
L 1088.425191 329.767217 
L 1089.417897 332.001329 
L 1090.410603 327.956259 
L 1091.403309 323.006225 
L 1092.396015 313.493715 
L 1094.381427 322.446901 
L 1095.374133 342.849581 
L 1096.366839 393.942427 
L 1097.359545 353.385933 
L 1098.35225 328.851524 
L 1100.337662 313.392112 
L 1101.330368 310.737401 
L 1102.323074 312.793871 
L 1103.31578 329.164885 
L 1104.308486 336.361608 
L 1105.301192 335.978968 
L 1106.293898 327.467798 
L 1107.286604 328.676065 
L 1108.27931 315.140111 
L 1109.272016 310.459664 
L 1110.264722 313.589373 
L 1111.257428 340.603091 
L 1112.250133 343.044238 
L 1113.242839 328.008587 
L 1114.235545 329.747419 
L 1115.228251 364.551872 
L 1116.220957 342.322424 
L 1117.213663 323.047143 
L 1118.206369 328.752454 
L 1119.199075 408.854704 
L 1120.191781 339.820278 
L 1121.184487 317.653609 
L 1122.177193 329.426956 
L 1123.169899 377.622827 
L 1124.162605 326.67931 
L 1125.15531 307.445868 
L 1126.148016 312.15597 
L 1127.140722 332.125003 
L 1128.133428 381.618396 
L 1129.126134 340.182867 
L 1130.11884 325.63264 
L 1131.111546 326.484613 
L 1132.104252 354.540956 
L 1133.096958 347.052596 
L 1134.089664 324.49888 
L 1135.08237 321.218284 
L 1136.075076 334.886152 
L 1137.067782 345.957272 
L 1138.060487 352.548624 
L 1139.053193 363.070783 
L 1140.045899 363.086281 
L 1141.038605 357.097288 
L 1142.031311 352.011397 
L 1143.024017 347.755759 
L 1144.016723 355.660142 
L 1145.009429 371.135516 
L 1146.002135 370.37861 
L 1146.994841 404.943027 
L 1148.980253 348.588735 
L 1149.972959 327.273564 
L 1150.965664 323.131509 
L 1151.95837 323.960949 
L 1152.951076 326.691331 
L 1153.943782 335.477173 
L 1154.936488 337.634953 
L 1155.929194 344.187586 
L 1156.9219 352.741157 
L 1157.914606 342.329316 
L 1158.907312 328.509404 
L 1159.900018 323.36911 
L 1160.892724 338.682624 
L 1161.88543 362.116131 
L 1162.878136 351.996433 
L 1163.870841 347.774087 
L 1164.863547 359.556023 
L 1165.856253 389.024306 
L 1166.848959 348.390422 
L 1167.841665 337.346834 
L 1168.834371 337.731779 
L 1169.827077 352.749305 
L 1170.819783 327.70013 
L 1171.812489 315.816651 
L 1172.805195 309.994884 
L 1173.797901 313.557789 
L 1174.790607 311.396673 
L 1176.776019 323.392533 
L 1177.768724 333.321489 
L 1178.76143 324.020855 
L 1179.754136 327.471715 
L 1180.746842 334.407231 
L 1181.739548 352.368293 
L 1182.732254 352.749626 
L 1183.72496 367.428101 
L 1184.717666 391.984962 
L 1185.710372 413.248107 
L 1186.703078 382.260212 
L 1187.695784 366.978217 
L 1188.68849 383.595157 
L 1189.681196 385.698869 
L 1190.673901 363.596788 
L 1191.666607 349.597505 
L 1192.659313 327.741944 
L 1193.652019 321.094391 
L 1194.644725 318.082881 
L 1195.637431 326.031359 
L 1197.622843 354.0138 
L 1198.615549 367.819488 
L 1199.608255 375.813063 
L 1200.600961 385.840763 
L 1201.593667 354.523761 
L 1202.586373 339.891849 
L 1203.579078 341.228326 
L 1204.571784 338.462885 
L 1205.56449 342.356653 
L 1206.557196 332.233699 
L 1207.549902 326.034787 
L 1208.542608 327.42867 
L 1209.535314 330.127265 
L 1210.52802 317.398946 
L 1211.520726 307.281032 
L 1212.513432 305.480669 
L 1213.506138 306.036864 
L 1214.498844 305.077075 
L 1215.49155 308.592698 
L 1216.484255 324.254555 
L 1217.476961 332.429964 
L 1218.469667 324.290138 
L 1219.462373 331.90875 
L 1220.455079 377.360858 
L 1221.447785 356.178897 
L 1222.440491 327.898376 
L 1223.433197 334.633429 
L 1224.425903 364.967696 
L 1225.418609 355.931626 
L 1226.411315 330.59143 
L 1227.404021 329.933761 
L 1228.396727 342.388791 
L 1229.389432 367.144404 
L 1230.382138 341.639861 
L 1231.374844 336.011011 
L 1232.36755 340.356625 
L 1233.360256 355.89701 
L 1235.345668 323.482506 
L 1236.338374 327.734719 
L 1237.33108 345.810455 
L 1238.323786 383.270923 
L 1239.316492 359.565117 
L 1240.309198 351.262486 
L 1241.301904 344.329266 
L 1242.29461 341.678931 
L 1243.287315 344.3498 
L 1244.280021 342.337503 
L 1245.272727 358.138692 
L 1245.272727 358.138692 
" clip-path="url(#pb16f231318)" style="fill: none; stroke: #1f77b4; stroke-width: 1.5; stroke-linecap: square"/>
   </g>
   <g id="patch_3">
    <path d="M 180 512.64 
L 180 69.12 
" style="fill: none; stroke: #000000; stroke-width: 0.8; stroke-linejoin: miter; stroke-linecap: square"/>
   </g>
   <g id="patch_4">
    <path d="M 1296 512.64 
L 1296 69.12 
" style="fill: none; stroke: #000000; stroke-width: 0.8; stroke-linejoin: miter; stroke-linecap: square"/>
   </g>
   <g id="patch_5">
    <path d="M 180 512.64 
L 1296 512.64 
" style="fill: none; stroke: #000000; stroke-width: 0.8; stroke-linejoin: miter; stroke-linecap: square"/>
   </g>
   <g id="patch_6">
    <path d="M 180 69.12 
L 1296 69.12 
" style="fill: none; stroke: #000000; stroke-width: 0.8; stroke-linejoin: miter; stroke-linecap: square"/>
   </g>
   <g id="text_13">
    <!-- source9-receiver7 -->
    <g transform="translate(557.625 60.80125) scale(0.4 -0.4)">
     <defs>
      <path id="DejaVuSans-73" d="M 2834 3397 
L 2834 2853 
Q 2591 2978 2328 3040 
Q 2066 3103 1784 3103 
Q 1356 3103 1142 2972 
Q 928 2841 928 2578 
Q 928 2378 1081 2264 
Q 1234 2150 1697 2047 
L 1894 2003 
Q 2506 1872 2764 1633 
Q 3022 1394 3022 966 
Q 3022 478 2636 193 
Q 2250 -91 1575 -91 
Q 1294 -91 989 -36 
Q 684 19 347 128 
L 347 722 
Q 666 556 975 473 
Q 1284 391 1588 391 
Q 1994 391 2212 530 
Q 2431 669 2431 922 
Q 2431 1156 2273 1281 
Q 2116 1406 1581 1522 
L 1381 1569 
Q 847 1681 609 1914 
Q 372 2147 372 2553 
Q 372 3047 722 3315 
Q 1072 3584 1716 3584 
Q 2034 3584 2315 3537 
Q 2597 3491 2834 3397 
z
" transform="scale(0.015625)"/>
      <path id="DejaVuSans-6f" d="M 1959 3097 
Q 1497 3097 1228 2736 
Q 959 2375 959 1747 
Q 959 1119 1226 758 
Q 1494 397 1959 397 
Q 2419 397 2687 759 
Q 2956 1122 2956 1747 
Q 2956 2369 2687 2733 
Q 2419 3097 1959 3097 
z
M 1959 3584 
Q 2709 3584 3137 3096 
Q 3566 2609 3566 1747 
Q 3566 888 3137 398 
Q 2709 -91 1959 -91 
Q 1206 -91 779 398 
Q 353 888 353 1747 
Q 353 2609 779 3096 
Q 1206 3584 1959 3584 
z
" transform="scale(0.015625)"/>
      <path id="DejaVuSans-75" d="M 544 1381 
L 544 3500 
L 1119 3500 
L 1119 1403 
Q 1119 906 1312 657 
Q 1506 409 1894 409 
Q 2359 409 2629 706 
Q 2900 1003 2900 1516 
L 2900 3500 
L 3475 3500 
L 3475 0 
L 2900 0 
L 2900 538 
Q 2691 219 2414 64 
Q 2138 -91 1772 -91 
Q 1169 -91 856 284 
Q 544 659 544 1381 
z
M 1991 3584 
L 1991 3584 
z
" transform="scale(0.015625)"/>
      <path id="DejaVuSans-72" d="M 2631 2963 
Q 2534 3019 2420 3045 
Q 2306 3072 2169 3072 
Q 1681 3072 1420 2755 
Q 1159 2438 1159 1844 
L 1159 0 
L 581 0 
L 581 3500 
L 1159 3500 
L 1159 2956 
Q 1341 3275 1631 3429 
Q 1922 3584 2338 3584 
Q 2397 3584 2469 3576 
Q 2541 3569 2628 3553 
L 2631 2963 
z
" transform="scale(0.015625)"/>
      <path id="DejaVuSans-63" d="M 3122 3366 
L 3122 2828 
Q 2878 2963 2633 3030 
Q 2388 3097 2138 3097 
Q 1578 3097 1268 2742 
Q 959 2388 959 1747 
Q 959 1106 1268 751 
Q 1578 397 2138 397 
Q 2388 397 2633 464 
Q 2878 531 3122 666 
L 3122 134 
Q 2881 22 2623 -34 
Q 2366 -91 2075 -91 
Q 1284 -91 818 406 
Q 353 903 353 1747 
Q 353 2603 823 3093 
Q 1294 3584 2113 3584 
Q 2378 3584 2631 3529 
Q 2884 3475 3122 3366 
z
" transform="scale(0.015625)"/>
      <path id="DejaVuSans-65" d="M 3597 1894 
L 3597 1613 
L 953 1613 
Q 991 1019 1311 708 
Q 1631 397 2203 397 
Q 2534 397 2845 478 
Q 3156 559 3463 722 
L 3463 178 
Q 3153 47 2828 -22 
Q 2503 -91 2169 -91 
Q 1331 -91 842 396 
Q 353 884 353 1716 
Q 353 2575 817 3079 
Q 1281 3584 2069 3584 
Q 2775 3584 3186 3129 
Q 3597 2675 3597 1894 
z
M 3022 2063 
Q 3016 2534 2758 2815 
Q 2500 3097 2075 3097 
Q 1594 3097 1305 2825 
Q 1016 2553 972 2059 
L 3022 2063 
z
" transform="scale(0.015625)"/>
      <path id="DejaVuSans-39" d="M 703 97 
L 703 672 
Q 941 559 1184 500 
Q 1428 441 1663 441 
Q 2288 441 2617 861 
Q 2947 1281 2994 2138 
Q 2813 1869 2534 1725 
Q 2256 1581 1919 1581 
Q 1219 1581 811 2004 
Q 403 2428 403 3163 
Q 403 3881 828 4315 
Q 1253 4750 1959 4750 
Q 2769 4750 3195 4129 
Q 3622 3509 3622 2328 
Q 3622 1225 3098 567 
Q 2575 -91 1691 -91 
Q 1453 -91 1209 -44 
Q 966 3 703 97 
z
M 1959 2075 
Q 2384 2075 2632 2365 
Q 2881 2656 2881 3163 
Q 2881 3666 2632 3958 
Q 2384 4250 1959 4250 
Q 1534 4250 1286 3958 
Q 1038 3666 1038 3163 
Q 1038 2656 1286 2365 
Q 1534 2075 1959 2075 
z
" transform="scale(0.015625)"/>
      <path id="DejaVuSans-2d" d="M 313 2009 
L 1997 2009 
L 1997 1497 
L 313 1497 
L 313 2009 
z
" transform="scale(0.015625)"/>
      <path id="DejaVuSans-69" d="M 603 3500 
L 1178 3500 
L 1178 0 
L 603 0 
L 603 3500 
z
M 603 4863 
L 1178 4863 
L 1178 4134 
L 603 4134 
L 603 4863 
z
" transform="scale(0.015625)"/>
      <path id="DejaVuSans-76" d="M 191 3500 
L 800 3500 
L 1894 563 
L 2988 3500 
L 3597 3500 
L 2284 0 
L 1503 0 
L 191 3500 
z
" transform="scale(0.015625)"/>
      <path id="DejaVuSans-37" d="M 525 4666 
L 3525 4666 
L 3525 4397 
L 1831 0 
L 1172 0 
L 2766 4134 
L 525 4134 
L 525 4666 
z
" transform="scale(0.015625)"/>
     </defs>
     <use xlink:href="#DejaVuSans-73"/>
     <use xlink:href="#DejaVuSans-6f" x="52.099609"/>
     <use xlink:href="#DejaVuSans-75" x="113.28125"/>
     <use xlink:href="#DejaVuSans-72" x="176.660156"/>
     <use xlink:href="#DejaVuSans-63" x="215.523438"/>
     <use xlink:href="#DejaVuSans-65" x="270.503906"/>
     <use xlink:href="#DejaVuSans-39" x="332.027344"/>
     <use xlink:href="#DejaVuSans-2d" x="395.650391"/>
     <use xlink:href="#DejaVuSans-72" x="431.734375"/>
     <use xlink:href="#DejaVuSans-65" x="470.597656"/>
     <use xlink:href="#DejaVuSans-63" x="532.121094"/>
     <use xlink:href="#DejaVuSans-65" x="587.101562"/>
     <use xlink:href="#DejaVuSans-69" x="648.625"/>
     <use xlink:href="#DejaVuSans-76" x="676.408203"/>
     <use xlink:href="#DejaVuSans-65" x="735.587891"/>
     <use xlink:href="#DejaVuSans-72" x="797.111328"/>
     <use xlink:href="#DejaVuSans-37" x="838.224609"/>
    </g>
   </g>
  </g>
 </g>
 <defs>
  <clipPath id="pb16f231318">
   <rect x="180" y="69.12" width="1116" height="443.52"/>
  </clipPath>
 </defs>
</svg>
