<?xml version="1.0" encoding="utf-8" standalone="no"?>
<!DOCTYPE svg PUBLIC "-//W3C//DTD SVG 1.1//EN"
  "http://www.w3.org/Graphics/SVG/1.1/DTD/svg11.dtd">
<svg xmlns:xlink="http://www.w3.org/1999/xlink" width="1440pt" height="576pt" viewBox="0 0 1440 576" xmlns="http://www.w3.org/2000/svg" version="1.1">
 <metadata>
  <rdf:RDF xmlns:dc="http://purl.org/dc/elements/1.1/" xmlns:cc="http://creativecommons.org/ns#" xmlns:rdf="http://www.w3.org/1999/02/22-rdf-syntax-ns#">
   <cc:Work>
    <dc:type rdf:resource="http://purl.org/dc/dcmitype/StillImage"/>
    <dc:date>2024-05-22T04:49:55.581264</dc:date>
    <dc:format>image/svg+xml</dc:format>
    <dc:creator>
     <cc:Agent>
      <dc:title>Matplotlib v3.8.3, https://matplotlib.org/</dc:title>
     </cc:Agent>
    </dc:creator>
   </cc:Work>
  </rdf:RDF>
 </metadata>
 <defs>
  <style type="text/css">*{stroke-linejoin: round; stroke-linecap: butt}</style>
 </defs>
 <g id="figure_1">
  <g id="patch_1">
   <path d="M 0 576 
L 1440 576 
L 1440 0 
L 0 0 
z
" style="fill: #ffffff"/>
  </g>
  <g id="axes_1">
   <g id="patch_2">
    <path d="M 180 512.64 
L 1296 512.64 
L 1296 69.12 
L 180 69.12 
z
" style="fill: #ffffff"/>
   </g>
   <g id="matplotlib.axis_1">
    <g id="xtick_1">
     <g id="line2d_1">
      <defs>
       <path id="m065475a3ff" d="M 0 0 
L 0 3.5 
" style="stroke: #000000; stroke-width: 0.8"/>
      </defs>
      <g>
       <use xlink:href="#m065475a3ff" x="229.734567" y="512.64" style="stroke: #000000; stroke-width: 0.8"/>
      </g>
     </g>
     <g id="text_1">
      <!-- 0 -->
      <g transform="translate(226.553317 527.238438) scale(0.1 -0.1)">
       <defs>
        <path id="DejaVuSans-30" d="M 2034 4250 
Q 1547 4250 1301 3770 
Q 1056 3291 1056 2328 
Q 1056 1369 1301 889 
Q 1547 409 2034 409 
Q 2525 409 2770 889 
Q 3016 1369 3016 2328 
Q 3016 3291 2770 3770 
Q 2525 4250 2034 4250 
z
M 2034 4750 
Q 2819 4750 3233 4129 
Q 3647 3509 3647 2328 
Q 3647 1150 3233 529 
Q 2819 -91 2034 -91 
Q 1250 -91 836 529 
Q 422 1150 422 2328 
Q 422 3509 836 4129 
Q 1250 4750 2034 4750 
z
" transform="scale(0.015625)"/>
       </defs>
       <use xlink:href="#DejaVuSans-30"/>
      </g>
     </g>
    </g>
    <g id="xtick_2">
     <g id="line2d_2">
      <g>
       <use xlink:href="#m065475a3ff" x="433.04074" y="512.64" style="stroke: #000000; stroke-width: 0.8"/>
      </g>
     </g>
     <g id="text_2">
      <!-- 500 -->
      <g transform="translate(423.49699 527.238438) scale(0.1 -0.1)">
       <defs>
        <path id="DejaVuSans-35" d="M 691 4666 
L 3169 4666 
L 3169 4134 
L 1269 4134 
L 1269 2991 
Q 1406 3038 1543 3061 
Q 1681 3084 1819 3084 
Q 2600 3084 3056 2656 
Q 3513 2228 3513 1497 
Q 3513 744 3044 326 
Q 2575 -91 1722 -91 
Q 1428 -91 1123 -41 
Q 819 9 494 109 
L 494 744 
Q 775 591 1075 516 
Q 1375 441 1709 441 
Q 2250 441 2565 725 
Q 2881 1009 2881 1497 
Q 2881 1984 2565 2268 
Q 2250 2553 1709 2553 
Q 1456 2553 1204 2497 
Q 953 2441 691 2322 
L 691 4666 
z
" transform="scale(0.015625)"/>
       </defs>
       <use xlink:href="#DejaVuSans-35"/>
       <use xlink:href="#DejaVuSans-30" x="63.623047"/>
       <use xlink:href="#DejaVuSans-30" x="127.246094"/>
      </g>
     </g>
    </g>
    <g id="xtick_3">
     <g id="line2d_3">
      <g>
       <use xlink:href="#m065475a3ff" x="636.346913" y="512.64" style="stroke: #000000; stroke-width: 0.8"/>
      </g>
     </g>
     <g id="text_3">
      <!-- 1000 -->
      <g transform="translate(623.621913 527.238438) scale(0.1 -0.1)">
       <defs>
        <path id="DejaVuSans-31" d="M 794 531 
L 1825 531 
L 1825 4091 
L 703 3866 
L 703 4441 
L 1819 4666 
L 2450 4666 
L 2450 531 
L 3481 531 
L 3481 0 
L 794 0 
L 794 531 
z
" transform="scale(0.015625)"/>
       </defs>
       <use xlink:href="#DejaVuSans-31"/>
       <use xlink:href="#DejaVuSans-30" x="63.623047"/>
       <use xlink:href="#DejaVuSans-30" x="127.246094"/>
       <use xlink:href="#DejaVuSans-30" x="190.869141"/>
      </g>
     </g>
    </g>
    <g id="xtick_4">
     <g id="line2d_4">
      <g>
       <use xlink:href="#m065475a3ff" x="839.653087" y="512.64" style="stroke: #000000; stroke-width: 0.8"/>
      </g>
     </g>
     <g id="text_4">
      <!-- 1500 -->
      <g transform="translate(826.928087 527.238438) scale(0.1 -0.1)">
       <use xlink:href="#DejaVuSans-31"/>
       <use xlink:href="#DejaVuSans-35" x="63.623047"/>
       <use xlink:href="#DejaVuSans-30" x="127.246094"/>
       <use xlink:href="#DejaVuSans-30" x="190.869141"/>
      </g>
     </g>
    </g>
    <g id="xtick_5">
     <g id="line2d_5">
      <g>
       <use xlink:href="#m065475a3ff" x="1042.95926" y="512.64" style="stroke: #000000; stroke-width: 0.8"/>
      </g>
     </g>
     <g id="text_5">
      <!-- 2000 -->
      <g transform="translate(1030.23426 527.238438) scale(0.1 -0.1)">
       <defs>
        <path id="DejaVuSans-32" d="M 1228 531 
L 3431 531 
L 3431 0 
L 469 0 
L 469 531 
Q 828 903 1448 1529 
Q 2069 2156 2228 2338 
Q 2531 2678 2651 2914 
Q 2772 3150 2772 3378 
Q 2772 3750 2511 3984 
Q 2250 4219 1831 4219 
Q 1534 4219 1204 4116 
Q 875 4013 500 3803 
L 500 4441 
Q 881 4594 1212 4672 
Q 1544 4750 1819 4750 
Q 2544 4750 2975 4387 
Q 3406 4025 3406 3419 
Q 3406 3131 3298 2873 
Q 3191 2616 2906 2266 
Q 2828 2175 2409 1742 
Q 1991 1309 1228 531 
z
" transform="scale(0.015625)"/>
       </defs>
       <use xlink:href="#DejaVuSans-32"/>
       <use xlink:href="#DejaVuSans-30" x="63.623047"/>
       <use xlink:href="#DejaVuSans-30" x="127.246094"/>
       <use xlink:href="#DejaVuSans-30" x="190.869141"/>
      </g>
     </g>
    </g>
    <g id="xtick_6">
     <g id="line2d_6">
      <g>
       <use xlink:href="#m065475a3ff" x="1246.265433" y="512.64" style="stroke: #000000; stroke-width: 0.8"/>
      </g>
     </g>
     <g id="text_6">
      <!-- 2500 -->
      <g transform="translate(1233.540433 527.238438) scale(0.1 -0.1)">
       <use xlink:href="#DejaVuSans-32"/>
       <use xlink:href="#DejaVuSans-35" x="63.623047"/>
       <use xlink:href="#DejaVuSans-30" x="127.246094"/>
       <use xlink:href="#DejaVuSans-30" x="190.869141"/>
      </g>
     </g>
    </g>
   </g>
   <g id="matplotlib.axis_2">
    <g id="ytick_1">
     <g id="line2d_7">
      <defs>
       <path id="m6a16b11276" d="M 0 0 
L -3.5 0 
" style="stroke: #000000; stroke-width: 0.8"/>
      </defs>
      <g>
       <use xlink:href="#m6a16b11276" x="180" y="457.16194" style="stroke: #000000; stroke-width: 0.8"/>
      </g>
     </g>
     <g id="text_7">
      <!-- −6 -->
      <g transform="translate(158.257812 460.961159) scale(0.1 -0.1)">
       <defs>
        <path id="DejaVuSans-2212" d="M 678 2272 
L 4684 2272 
L 4684 1741 
L 678 1741 
L 678 2272 
z
" transform="scale(0.015625)"/>
        <path id="DejaVuSans-36" d="M 2113 2584 
Q 1688 2584 1439 2293 
Q 1191 2003 1191 1497 
Q 1191 994 1439 701 
Q 1688 409 2113 409 
Q 2538 409 2786 701 
Q 3034 994 3034 1497 
Q 3034 2003 2786 2293 
Q 2538 2584 2113 2584 
z
M 3366 4563 
L 3366 3988 
Q 3128 4100 2886 4159 
Q 2644 4219 2406 4219 
Q 1781 4219 1451 3797 
Q 1122 3375 1075 2522 
Q 1259 2794 1537 2939 
Q 1816 3084 2150 3084 
Q 2853 3084 3261 2657 
Q 3669 2231 3669 1497 
Q 3669 778 3244 343 
Q 2819 -91 2113 -91 
Q 1303 -91 875 529 
Q 447 1150 447 2328 
Q 447 3434 972 4092 
Q 1497 4750 2381 4750 
Q 2619 4750 2861 4703 
Q 3103 4656 3366 4563 
z
" transform="scale(0.015625)"/>
       </defs>
       <use xlink:href="#DejaVuSans-2212"/>
       <use xlink:href="#DejaVuSans-36" x="83.789062"/>
      </g>
     </g>
    </g>
    <g id="ytick_2">
     <g id="line2d_8">
      <g>
       <use xlink:href="#m6a16b11276" x="180" y="384.869179" style="stroke: #000000; stroke-width: 0.8"/>
      </g>
     </g>
     <g id="text_8">
      <!-- −4 -->
      <g transform="translate(158.257812 388.668397) scale(0.1 -0.1)">
       <defs>
        <path id="DejaVuSans-34" d="M 2419 4116 
L 825 1625 
L 2419 1625 
L 2419 4116 
z
M 2253 4666 
L 3047 4666 
L 3047 1625 
L 3713 1625 
L 3713 1100 
L 3047 1100 
L 3047 0 
L 2419 0 
L 2419 1100 
L 313 1100 
L 313 1709 
L 2253 4666 
z
" transform="scale(0.015625)"/>
       </defs>
       <use xlink:href="#DejaVuSans-2212"/>
       <use xlink:href="#DejaVuSans-34" x="83.789062"/>
      </g>
     </g>
    </g>
    <g id="ytick_3">
     <g id="line2d_9">
      <g>
       <use xlink:href="#m6a16b11276" x="180" y="312.576417" style="stroke: #000000; stroke-width: 0.8"/>
      </g>
     </g>
     <g id="text_9">
      <!-- −2 -->
      <g transform="translate(158.257812 316.375636) scale(0.1 -0.1)">
       <use xlink:href="#DejaVuSans-2212"/>
       <use xlink:href="#DejaVuSans-32" x="83.789062"/>
      </g>
     </g>
    </g>
    <g id="ytick_4">
     <g id="line2d_10">
      <g>
       <use xlink:href="#m6a16b11276" x="180" y="240.283656" style="stroke: #000000; stroke-width: 0.8"/>
      </g>
     </g>
     <g id="text_10">
      <!-- 0 -->
      <g transform="translate(166.6375 244.082875) scale(0.1 -0.1)">
       <use xlink:href="#DejaVuSans-30"/>
      </g>
     </g>
    </g>
    <g id="ytick_5">
     <g id="line2d_11">
      <g>
       <use xlink:href="#m6a16b11276" x="180" y="167.990895" style="stroke: #000000; stroke-width: 0.8"/>
      </g>
     </g>
     <g id="text_11">
      <!-- 2 -->
      <g transform="translate(166.6375 171.790113) scale(0.1 -0.1)">
       <use xlink:href="#DejaVuSans-32"/>
      </g>
     </g>
    </g>
    <g id="ytick_6">
     <g id="line2d_12">
      <g>
       <use xlink:href="#m6a16b11276" x="180" y="95.698133" style="stroke: #000000; stroke-width: 0.8"/>
      </g>
     </g>
     <g id="text_12">
      <!-- 4 -->
      <g transform="translate(166.6375 99.497352) scale(0.1 -0.1)">
       <use xlink:href="#DejaVuSans-34"/>
      </g>
     </g>
    </g>
   </g>
   <g id="line2d_13">
    <path d="M 230.727273 185.033481 
L 231.719979 184.751688 
L 232.712685 184.283375 
L 234.698096 182.910645 
L 240.654332 178.476479 
L 242.639744 177.268234 
L 243.63245 176.991424 
L 244.625156 177.270269 
L 246.610568 179.115443 
L 247.603273 176.190345 
L 248.595979 165.861229 
L 249.588685 152.518507 
L 250.581391 141.675538 
L 251.574097 134.637719 
L 252.566803 130.604835 
L 253.559509 128.421363 
L 254.552215 127.270781 
L 255.544921 126.671469 
L 256.537627 126.380474 
L 260.50845 125.691737 
L 261.501156 125.329987 
L 262.493862 124.838846 
L 264.479274 123.449526 
L 266.464686 121.664002 
L 269.442804 118.858616 
L 271.428216 117.362933 
L 272.420922 116.851331 
L 273.413627 116.540401 
L 274.406333 116.49547 
L 275.399039 116.742752 
L 276.391745 117.372391 
L 277.384451 118.553044 
L 278.377157 120.605223 
L 279.369863 123.462784 
L 280.362569 124.502265 
L 281.355275 121.605602 
L 283.340687 112.38774 
L 285.326099 102.5955 
L 286.318804 98.164777 
L 287.31151 94.45285 
L 288.304216 91.686796 
L 289.296922 89.972113 
L 290.289628 89.28 
L 291.282334 89.479872 
L 292.27504 90.411201 
L 293.267746 91.932796 
L 294.260452 93.894376 
L 296.245864 98.616428 
L 298.231276 104.110632 
L 300.216687 110.226639 
L 304.187511 123.539483 
L 306.172923 129.964315 
L 307.165629 132.834784 
L 308.158335 135.35811 
L 309.151041 137.495363 
L 310.143747 139.275436 
L 311.136453 140.730905 
L 316.099982 147.002363 
L 317.092688 148.712559 
L 318.085394 150.778124 
L 319.0781 153.18982 
L 320.070806 155.993791 
L 322.056218 162.698159 
L 324.04163 169.835894 
L 325.034336 172.518145 
L 326.027041 173.804785 
L 327.019747 173.302137 
L 328.012453 171.184315 
L 329.005159 168.001671 
L 331.983277 157.653091 
L 332.975983 154.771786 
L 333.968689 152.297365 
L 334.961395 150.260179 
L 335.954101 148.60319 
L 336.946807 147.353302 
L 337.939513 146.4433 
L 338.932218 145.866244 
L 339.924924 145.61107 
L 340.91763 145.648089 
L 341.910336 145.961112 
L 342.903042 146.505962 
L 344.888454 148.127092 
L 348.859278 152.170437 
L 349.851984 152.962604 
L 350.84469 153.466541 
L 351.837395 153.630665 
L 352.830101 153.646118 
L 353.822807 153.346317 
L 355.808219 152.267387 
L 357.793631 151.025086 
L 358.786337 150.507832 
L 359.779043 150.123821 
L 360.771749 149.936762 
L 361.764455 149.968487 
L 362.757161 150.252505 
L 363.749867 150.801395 
L 364.742572 151.655281 
L 365.735278 152.833634 
L 366.727984 154.355371 
L 367.72069 156.27502 
L 368.713396 158.594637 
L 369.706102 161.36689 
L 370.698808 164.64041 
L 371.691514 168.487884 
L 372.68422 172.947044 
L 373.676926 178.111175 
L 375.662338 190.515356 
L 376.655044 197.067879 
L 377.64775 202.25071 
L 378.640455 203.989113 
L 379.633161 201.58181 
L 380.625867 196.63575 
L 382.611279 185.90654 
L 383.603985 181.432888 
L 384.596691 177.649464 
L 385.589397 174.485039 
L 386.582103 171.920571 
L 387.574809 169.869863 
L 388.567515 168.220026 
L 389.560221 166.984158 
L 390.552927 166.081465 
L 391.545632 165.455717 
L 392.538338 165.120373 
L 393.531044 164.953337 
L 394.52375 164.970178 
L 396.509162 165.380017 
L 399.48728 166.42346 
L 402.465398 167.395114 
L 407.428927 168.735893 
L 409.414339 169.654299 
L 410.407045 170.235233 
L 411.399751 170.997417 
L 413.385163 172.957788 
L 414.377869 174.165432 
L 415.370575 175.580672 
L 417.355986 179.014202 
L 419.341398 183.265068 
L 421.32681 188.321399 
L 423.312222 194.13348 
L 428.275752 209.290456 
L 429.268458 211.802904 
L 430.261163 213.710031 
L 431.253869 214.948463 
L 432.246575 215.616373 
L 433.239281 215.515115 
L 434.231987 214.739295 
L 435.224693 213.42202 
L 436.217399 211.626358 
L 437.210105 209.540556 
L 440.188223 202.197679 
L 443.166341 194.917729 
L 445.151752 190.716122 
L 447.137164 187.142098 
L 449.122576 184.375015 
L 450.115282 183.289718 
L 451.107988 182.407077 
L 452.100694 181.740471 
L 453.0934 181.233017 
L 454.086106 180.979894 
L 455.078812 180.918194 
L 456.071518 181.042202 
L 457.064223 181.409247 
L 458.056929 181.931548 
L 459.049635 182.657051 
L 461.035047 184.757649 
L 462.027753 186.085711 
L 463.020459 187.629518 
L 465.005871 191.348952 
L 466.991283 195.870623 
L 468.976695 201.558513 
L 469.9694 204.81077 
L 470.962106 208.479331 
L 471.954812 212.683738 
L 472.947518 217.394365 
L 473.940224 222.748646 
L 474.93293 229.099744 
L 475.925636 236.64875 
L 476.918342 245.621496 
L 478.903754 266.838819 
L 479.89646 268.051038 
L 480.889166 258.512226 
L 481.881872 247.135936 
L 482.874577 237.667286 
L 483.867283 229.745259 
L 484.859989 223.285072 
L 485.852695 217.914636 
L 486.845401 213.381108 
L 487.838107 209.457497 
L 488.830813 206.172696 
L 489.823519 203.397788 
L 490.816225 201.023449 
L 491.808931 199.060152 
L 492.801637 197.513875 
L 493.794343 196.271024 
L 494.787049 195.364887 
L 495.779754 194.779141 
L 496.77246 194.546951 
L 497.765166 194.587745 
L 498.757872 194.894108 
L 499.750578 195.592561 
L 500.743284 196.500437 
L 501.73599 197.852192 
L 502.728696 199.412262 
L 503.721402 201.403765 
L 505.706814 206.28187 
L 506.69952 209.363434 
L 508.684932 216.525738 
L 512.655755 232.218945 
L 513.648461 234.849606 
L 514.641167 235.912718 
L 515.633873 235.369278 
L 516.626579 233.752421 
L 517.619285 231.633809 
L 519.604697 226.860718 
L 520.597403 224.562692 
L 522.582814 221.093485 
L 523.57552 219.742925 
L 525.560932 217.792891 
L 526.553638 217.127373 
L 528.53905 216.197597 
L 531.517168 215.524846 
L 533.50258 215.29757 
L 534.495286 215.344871 
L 536.480697 215.738897 
L 537.473403 216.11372 
L 538.466109 216.743777 
L 539.458815 217.536675 
L 540.451521 218.651165 
L 541.444227 220.269173 
L 542.436933 222.128235 
L 543.429639 224.482544 
L 544.422345 227.597121 
L 545.415051 231.47209 
L 546.407757 236.160294 
L 547.400463 242.111525 
L 548.393168 249.315213 
L 550.37858 267.39323 
L 551.371286 271.28929 
L 552.363992 264.775735 
L 554.349404 244.321203 
L 555.34211 235.954714 
L 556.334816 229.178196 
L 557.327522 223.556595 
L 558.320228 218.700734 
L 559.312934 214.534617 
L 560.30564 211.150748 
L 561.298345 208.320648 
L 562.291051 205.85124 
L 563.283757 203.835277 
L 564.276463 202.23237 
L 565.269169 200.991931 
L 566.261875 200.109691 
L 567.254581 199.537128 
L 568.247287 199.249749 
L 569.239993 199.291046 
L 570.232699 199.577007 
L 571.225405 200.188998 
L 572.218111 201.062216 
L 573.210817 202.220005 
L 574.203523 203.647814 
L 576.188934 207.486359 
L 578.174346 212.503363 
L 579.167052 215.571497 
L 581.152464 222.707472 
L 582.14517 226.913101 
L 584.130582 236.745215 
L 585.123288 242.465751 
L 587.1087 255.674386 
L 589.094111 272.073636 
L 591.079523 289.426361 
L 592.072229 295.413835 
L 593.064935 294.590615 
L 594.057641 290.88488 
L 598.028465 266.31706 
L 601.006582 252.076695 
L 602.991994 244.228513 
L 603.9847 240.761819 
L 605.970112 234.947054 
L 606.962818 232.435378 
L 607.955524 230.324138 
L 608.94823 228.570311 
L 610.933642 225.751349 
L 612.919054 224.292573 
L 613.911759 223.957801 
L 614.904465 223.890344 
L 615.897171 224.065816 
L 616.889877 224.536645 
L 617.882583 225.343783 
L 618.875289 226.395264 
L 619.867995 227.769013 
L 620.860701 229.426953 
L 621.853407 231.394246 
L 622.846113 233.724559 
L 623.838819 236.368602 
L 624.831525 239.366965 
L 625.824231 242.735802 
L 627.809642 250.847584 
L 629.795054 261.074822 
L 630.78776 267.189171 
L 631.780466 274.113059 
L 633.765878 290.621559 
L 636.743996 322.103858 
L 637.736702 326.639635 
L 638.729408 324.734847 
L 639.722114 318.350218 
L 641.707525 307.370196 
L 643.692937 298.816943 
L 645.678349 291.421864 
L 648.656467 281.515233 
L 650.641879 275.764882 
L 652.627291 270.871923 
L 653.619996 268.781703 
L 655.605408 265.875596 
L 656.598114 264.811408 
L 658.583526 263.943752 
L 659.576232 263.965904 
L 660.568938 264.426689 
L 661.561644 265.027505 
L 662.55435 266.082869 
L 664.539762 269.179905 
L 666.525173 273.022755 
L 668.510585 277.730228 
L 669.503291 279.95838 
L 670.495997 281.386341 
L 671.488703 282.554717 
L 672.481409 283.175679 
L 673.474115 282.819407 
L 674.466821 281.630227 
L 678.437645 275.13479 
L 679.43035 273.91367 
L 681.415762 271.783015 
L 682.408468 271.35064 
L 683.401174 271.130138 
L 684.39388 271.212481 
L 685.386586 271.686209 
L 686.379292 272.567445 
L 687.371998 273.783192 
L 688.364704 275.327902 
L 689.35741 277.19404 
L 691.342822 282.201871 
L 692.335527 285.529898 
L 693.328233 289.276318 
L 695.313645 298.269281 
L 697.299057 309.734038 
L 698.291763 315.854116 
L 699.284469 320.773805 
L 700.277175 323.726513 
L 701.269881 322.655754 
L 702.262587 320.154999 
L 705.240705 306.358847 
L 707.226116 299.775655 
L 708.218822 297.121382 
L 709.211528 295.268158 
L 710.204234 293.79555 
L 712.189646 292.247894 
L 713.182352 292.141815 
L 714.175058 292.45124 
L 715.167764 293.090728 
L 716.16047 294.198543 
L 717.153176 295.520494 
L 718.145882 297.536981 
L 719.138587 299.946279 
L 721.123999 306.514497 
L 723.109411 314.651716 
L 724.102117 317.329853 
L 725.094823 319.397093 
L 726.087529 317.755481 
L 727.080235 314.265338 
L 728.072941 309.781374 
L 730.058353 299.88584 
L 732.043764 291.493704 
L 734.029176 285.103318 
L 735.021882 282.637709 
L 736.014588 280.605864 
L 737.007294 279.101049 
L 738 277.968856 
L 738.992706 277.164823 
L 739.985412 276.86289 
L 740.978118 276.887592 
L 741.970824 277.366341 
L 742.96353 278.302341 
L 743.956236 279.532508 
L 744.948941 281.504316 
L 745.941647 283.909424 
L 746.934353 286.962257 
L 747.927059 290.60929 
L 748.919765 294.724367 
L 750.905177 306.474554 
L 752.890589 319.127038 
L 753.883295 322.300494 
L 754.876001 320.490503 
L 755.868707 314.575452 
L 757.854118 301.336246 
L 759.83953 291.403236 
L 760.832236 287.557162 
L 761.824942 284.490966 
L 762.817648 282.147684 
L 763.810354 280.27873 
L 764.80306 278.667427 
L 766.788472 277.24876 
L 767.781178 277.244804 
L 768.773884 277.571609 
L 769.76659 278.159141 
L 770.759295 279.378452 
L 771.752001 280.798915 
L 773.737413 284.879182 
L 774.730119 287.349843 
L 775.722825 290.379109 
L 776.715531 292.982531 
L 777.708237 296.174821 
L 778.700943 298.795158 
L 779.693649 300.929046 
L 780.686355 302.205296 
L 781.679061 302.249306 
L 782.671767 301.574857 
L 783.664473 300.392794 
L 785.649884 296.953045 
L 786.64259 295.343715 
L 787.635296 294.142546 
L 788.628002 293.206005 
L 789.620708 292.825463 
L 791.60612 293.153409 
L 792.598826 294.27312 
L 794.584238 297.642482 
L 795.576944 300.23928 
L 797.562355 306.625921 
L 799.547767 313.756058 
L 800.540473 316.454022 
L 801.533179 317.080805 
L 802.525885 315.215965 
L 803.518591 311.942118 
L 805.504003 302.738308 
L 806.496709 298.199948 
L 808.482121 291.285911 
L 809.474827 288.380863 
L 811.460238 284.264461 
L 812.452944 282.796178 
L 813.44565 281.847939 
L 814.438356 281.375793 
L 815.431062 281.244418 
L 816.423768 281.506388 
L 817.416474 282.010517 
L 818.40918 283.279838 
L 819.401886 284.919982 
L 820.394592 287.035514 
L 821.387298 289.688296 
L 822.380004 292.755476 
L 823.372709 296.530239 
L 824.365415 300.946745 
L 825.358121 305.992211 
L 828.336239 323.394619 
L 829.328945 325.619076 
L 830.321651 324.103603 
L 832.307063 313.700977 
L 834.292475 303.334336 
L 835.285181 299.23641 
L 836.277886 295.643533 
L 837.270592 292.848353 
L 838.263298 290.524564 
L 839.256004 288.63824 
L 841.241416 286.576078 
L 842.234122 286.166951 
L 843.226828 285.932362 
L 845.21224 286.813678 
L 846.204946 287.946382 
L 848.190358 290.898659 
L 849.183064 293.033015 
L 851.168475 298.380483 
L 852.161181 301.351457 
L 854.146593 308.66166 
L 857.124711 320.102915 
L 858.117417 322.354205 
L 859.110123 323.432821 
L 860.102829 323.726645 
L 862.088241 320.911596 
L 863.080946 319.117492 
L 864.073652 316.803852 
L 866.059064 313.353569 
L 868.044476 310.431105 
L 869.037182 309.957878 
L 870.029888 308.96147 
L 872.0153 307.520123 
L 873.008006 307.213837 
L 874.000712 306.701244 
L 874.993418 305.892558 
L 876.978829 304.635563 
L 877.971535 303.465431 
L 879.956947 301.990915 
L 881.942359 300.56515 
L 882.935065 299.743011 
L 884.920477 299.051964 
L 885.913183 299.126645 
L 886.905889 299.395743 
L 887.898595 300.073446 
L 888.8913 301.194976 
L 889.884006 302.551495 
L 890.876712 304.20731 
L 892.862124 309.972557 
L 894.847536 318.638907 
L 895.840242 324.817772 
L 896.832948 332.968625 
L 897.825654 342.303666 
L 898.81836 354.611344 
L 899.811066 362.713975 
L 900.803772 357.629359 
L 902.789183 333.25875 
L 903.781889 324.518792 
L 904.774595 317.341788 
L 905.767301 311.31591 
L 906.760007 306.381263 
L 907.752713 302.334839 
L 908.745419 298.861836 
L 909.738125 296.23468 
L 910.730831 294.048891 
L 912.716243 291.10738 
L 913.708949 290.221937 
L 914.701655 289.965321 
L 915.69436 289.881963 
L 916.687066 290.263636 
L 917.679772 290.956458 
L 918.672478 292.112507 
L 919.665184 293.831096 
L 920.65789 295.957493 
L 921.650596 298.584532 
L 922.643302 301.977524 
L 923.636008 306.286925 
L 924.628714 311.510152 
L 925.62142 317.714445 
L 926.614126 325.897905 
L 927.606832 337.039673 
L 928.599537 353.912239 
L 930.584949 418.108527 
L 931.577655 364.65028 
L 932.570361 344.474806 
L 933.563067 331.464081 
L 934.555773 323.030779 
L 935.548479 316.140379 
L 936.541185 311.189346 
L 937.533891 307.348506 
L 938.526597 304.015952 
L 939.519303 301.67396 
L 940.512009 299.726518 
L 941.504714 298.430069 
L 942.49742 297.602229 
L 943.490126 296.965268 
L 944.482832 297.03557 
L 946.468244 298.178933 
L 947.46095 299.700499 
L 948.453656 301.611492 
L 949.446362 303.863459 
L 951.431774 309.831519 
L 952.42448 313.96483 
L 953.417186 318.804654 
L 954.409891 324.60239 
L 956.395303 339.841068 
L 957.388009 349.214032 
L 958.380715 360.248339 
L 959.373421 366.550641 
L 960.366127 362.169815 
L 962.351539 344.969198 
L 963.344245 338.086479 
L 964.336951 331.992595 
L 965.329657 327.651186 
L 967.315068 321.995694 
L 968.307774 319.741404 
L 969.30048 318.453931 
L 972.278598 317.480993 
L 973.271304 317.964617 
L 974.26401 318.229448 
L 975.256716 318.912691 
L 976.249422 319.819037 
L 977.242128 321.088594 
L 978.234834 322.021378 
L 980.220246 323.678052 
L 981.212951 324.707282 
L 982.205657 324.634916 
L 983.198363 324.727386 
L 984.191069 324.648611 
L 987.169187 322.859178 
L 988.161893 322.815638 
L 989.154599 322.54738 
L 990.147305 322.495529 
L 991.140011 322.697512 
L 992.132717 323.576901 
L 993.125423 325.316222 
L 994.118128 326.413086 
L 996.10354 331.248499 
L 998.088952 339.066505 
L 999.081658 344.317727 
L 1000.074364 350.675941 
L 1001.06707 358.022492 
L 1002.059776 364.340094 
L 1003.052482 368.917815 
L 1004.045188 367.074141 
L 1005.037894 361.281533 
L 1006.0306 352.150185 
L 1007.023305 344.908146 
L 1008.016011 338.647929 
L 1009.008717 333.414979 
L 1010.001423 329.000338 
L 1011.986835 322.222732 
L 1012.979541 319.743741 
L 1013.972247 318.039507 
L 1014.964953 316.583865 
L 1016.950365 315.013556 
L 1017.943071 315.125197 
L 1018.935777 315.061631 
L 1019.928482 316.279239 
L 1020.921188 317.232736 
L 1021.913894 318.603697 
L 1022.9066 320.815033 
L 1023.899306 323.471249 
L 1024.892012 326.760237 
L 1025.884718 330.991384 
L 1026.877424 335.811464 
L 1027.87013 342.006775 
L 1028.862836 349.315943 
L 1029.855542 359.30991 
L 1030.848248 372.785576 
L 1031.840954 395.249296 
L 1032.833659 422.106201 
L 1033.826365 396.474503 
L 1034.819071 376.859015 
L 1035.811777 363.486837 
L 1036.804483 353.254389 
L 1037.797189 346.714609 
L 1038.789895 341.157153 
L 1039.782601 337.260045 
L 1040.775307 333.961847 
L 1041.768013 331.442001 
L 1042.760719 329.829384 
L 1043.753425 328.490964 
L 1044.746131 327.736299 
L 1045.738837 327.25246 
L 1046.731542 327.490081 
L 1047.724248 328.749658 
L 1048.716954 329.374736 
L 1051.695072 333.998693 
L 1052.687778 335.687871 
L 1053.680484 338.422216 
L 1054.67319 340.545713 
L 1055.665896 343.992598 
L 1056.658602 346.167258 
L 1057.651308 348.841602 
L 1058.644014 350.384025 
L 1059.636719 351.394024 
L 1060.629425 353.54106 
L 1061.622131 354.116037 
L 1062.614837 354.215194 
L 1063.607543 354.096026 
L 1064.600249 353.265995 
L 1065.592955 354.056317 
L 1066.585661 353.880876 
L 1068.571073 357.820796 
L 1069.563779 358.965763 
L 1070.556485 363.186366 
L 1071.549191 367.988498 
L 1072.541896 370.870266 
L 1073.534602 376.091704 
L 1074.527308 378.532753 
L 1075.520014 379.579991 
L 1076.51272 377.651499 
L 1077.505426 373.138404 
L 1078.498132 365.631844 
L 1080.483544 353.685791 
L 1081.47625 348.760526 
L 1083.461662 340.736552 
L 1084.454368 337.577101 
L 1086.439779 332.527508 
L 1087.432485 331.139377 
L 1088.425191 329.55678 
L 1089.417897 328.347772 
L 1090.410603 327.906233 
L 1091.403309 328.147844 
L 1092.396015 328.154737 
L 1093.388721 329.197119 
L 1094.381427 330.508472 
L 1095.374133 331.499421 
L 1096.366839 333.426923 
L 1098.35225 338.831043 
L 1100.337662 346.827224 
L 1101.330368 353.211853 
L 1102.323074 358.455448 
L 1103.31578 362.591968 
L 1104.308486 366.135738 
L 1105.301192 367.323135 
L 1106.293898 364.629684 
L 1108.27931 353.410709 
L 1110.264722 343.929927 
L 1112.250133 336.583974 
L 1114.235545 331.178648 
L 1115.228251 329.484002 
L 1117.213663 327.072114 
L 1118.206369 326.376507 
L 1119.199075 326.156639 
L 1120.191781 326.455846 
L 1122.177193 327.707363 
L 1124.162605 330.889405 
L 1125.15531 332.727688 
L 1126.148016 335.29392 
L 1129.126134 345.678637 
L 1130.11884 349.836811 
L 1132.104252 360.673668 
L 1133.096958 367.266295 
L 1134.089664 372.514453 
L 1135.08237 376.878475 
L 1136.075076 376.3224 
L 1137.067782 373.197001 
L 1140.045899 359.002609 
L 1141.038605 357.085887 
L 1142.031311 354.783891 
L 1143.024017 351.613376 
L 1144.016723 349.591439 
L 1146.002135 347.687683 
L 1146.994841 347.761973 
L 1147.987547 347.23497 
L 1148.980253 348.188404 
L 1149.972959 348.153518 
L 1150.965664 350.132618 
L 1151.95837 350.896562 
L 1152.951076 352.182157 
L 1153.943782 355.637128 
L 1155.929194 359.552406 
L 1156.9219 363.575376 
L 1157.914606 366.212336 
L 1158.907312 369.230181 
L 1159.900018 371.853055 
L 1160.892724 374.019456 
L 1161.88543 375.722304 
L 1162.878136 378.640276 
L 1163.870841 378.94035 
L 1165.856253 380.758346 
L 1166.848959 382.582972 
L 1167.841665 386.090053 
L 1168.834371 387.533818 
L 1170.819783 397.963764 
L 1171.812489 399.187634 
L 1173.797901 417.899742 
L 1174.790607 428.268341 
L 1175.783313 433.071555 
L 1176.776019 429.372954 
L 1177.768724 411.526942 
L 1178.76143 398.852343 
L 1179.754136 389.481923 
L 1180.746842 381.585606 
L 1181.739548 375.89618 
L 1182.732254 371.122571 
L 1183.72496 364.209973 
L 1184.717666 362.475745 
L 1186.703078 355.15685 
L 1189.681196 349.414013 
L 1190.673901 348.698012 
L 1191.666607 348.241189 
L 1192.659313 347.328408 
L 1193.652019 347.966092 
L 1194.644725 348.223398 
L 1195.637431 348.331284 
L 1197.622843 350.123258 
L 1198.615549 352.113031 
L 1199.608255 353.359844 
L 1200.600961 356.607397 
L 1201.593667 359.458538 
L 1202.586373 360.841438 
L 1204.571784 365.658224 
L 1205.56449 367.323509 
L 1206.557196 369.342422 
L 1207.549902 370.350429 
L 1208.542608 368.317652 
L 1209.535314 369.168296 
L 1212.513432 362.191325 
L 1213.506138 361.452865 
L 1214.498844 359.349861 
L 1215.49155 357.861208 
L 1216.484255 357.493926 
L 1217.476961 355.441368 
L 1218.469667 355.132952 
L 1220.455079 353.493169 
L 1221.447785 354.71762 
L 1222.440491 354.927757 
L 1223.433197 355.954465 
L 1224.425903 357.785324 
L 1225.418609 358.686099 
L 1226.411315 360.6009 
L 1227.404021 362.227392 
L 1228.396727 366.09469 
L 1229.389432 368.213653 
L 1231.374844 377.386089 
L 1232.36755 385.623885 
L 1233.360256 391.245183 
L 1235.345668 411.878445 
L 1236.338374 425.608318 
L 1237.33108 454.533564 
L 1238.323786 492.48 
L 1239.316492 448.211681 
L 1240.309198 433.006339 
L 1242.29461 409.161115 
L 1244.280021 401.988369 
L 1245.272727 402.910786 
L 1245.272727 402.910786 
" clip-path="url(#p948f1b7df1)" style="fill: none; stroke: #1f77b4; stroke-width: 1.5; stroke-linecap: square"/>
   </g>
   <g id="patch_3">
    <path d="M 180 512.64 
L 180 69.12 
" style="fill: none; stroke: #000000; stroke-width: 0.8; stroke-linejoin: miter; stroke-linecap: square"/>
   </g>
   <g id="patch_4">
    <path d="M 1296 512.64 
L 1296 69.12 
" style="fill: none; stroke: #000000; stroke-width: 0.8; stroke-linejoin: miter; stroke-linecap: square"/>
   </g>
   <g id="patch_5">
    <path d="M 180 512.64 
L 1296 512.64 
" style="fill: none; stroke: #000000; stroke-width: 0.8; stroke-linejoin: miter; stroke-linecap: square"/>
   </g>
   <g id="patch_6">
    <path d="M 180 69.12 
L 1296 69.12 
" style="fill: none; stroke: #000000; stroke-width: 0.8; stroke-linejoin: miter; stroke-linecap: square"/>
   </g>
   <g id="text_13">
    <!-- source9-receiver9 -->
    <g transform="translate(557.625 60.80125) scale(0.4 -0.4)">
     <defs>
      <path id="DejaVuSans-73" d="M 2834 3397 
L 2834 2853 
Q 2591 2978 2328 3040 
Q 2066 3103 1784 3103 
Q 1356 3103 1142 2972 
Q 928 2841 928 2578 
Q 928 2378 1081 2264 
Q 1234 2150 1697 2047 
L 1894 2003 
Q 2506 1872 2764 1633 
Q 3022 1394 3022 966 
Q 3022 478 2636 193 
Q 2250 -91 1575 -91 
Q 1294 -91 989 -36 
Q 684 19 347 128 
L 347 722 
Q 666 556 975 473 
Q 1284 391 1588 391 
Q 1994 391 2212 530 
Q 2431 669 2431 922 
Q 2431 1156 2273 1281 
Q 2116 1406 1581 1522 
L 1381 1569 
Q 847 1681 609 1914 
Q 372 2147 372 2553 
Q 372 3047 722 3315 
Q 1072 3584 1716 3584 
Q 2034 3584 2315 3537 
Q 2597 3491 2834 3397 
z
" transform="scale(0.015625)"/>
      <path id="DejaVuSans-6f" d="M 1959 3097 
Q 1497 3097 1228 2736 
Q 959 2375 959 1747 
Q 959 1119 1226 758 
Q 1494 397 1959 397 
Q 2419 397 2687 759 
Q 2956 1122 2956 1747 
Q 2956 2369 2687 2733 
Q 2419 3097 1959 3097 
z
M 1959 3584 
Q 2709 3584 3137 3096 
Q 3566 2609 3566 1747 
Q 3566 888 3137 398 
Q 2709 -91 1959 -91 
Q 1206 -91 779 398 
Q 353 888 353 1747 
Q 353 2609 779 3096 
Q 1206 3584 1959 3584 
z
" transform="scale(0.015625)"/>
      <path id="DejaVuSans-75" d="M 544 1381 
L 544 3500 
L 1119 3500 
L 1119 1403 
Q 1119 906 1312 657 
Q 1506 409 1894 409 
Q 2359 409 2629 706 
Q 2900 1003 2900 1516 
L 2900 3500 
L 3475 3500 
L 3475 0 
L 2900 0 
L 2900 538 
Q 2691 219 2414 64 
Q 2138 -91 1772 -91 
Q 1169 -91 856 284 
Q 544 659 544 1381 
z
M 1991 3584 
L 1991 3584 
z
" transform="scale(0.015625)"/>
      <path id="DejaVuSans-72" d="M 2631 2963 
Q 2534 3019 2420 3045 
Q 2306 3072 2169 3072 
Q 1681 3072 1420 2755 
Q 1159 2438 1159 1844 
L 1159 0 
L 581 0 
L 581 3500 
L 1159 3500 
L 1159 2956 
Q 1341 3275 1631 3429 
Q 1922 3584 2338 3584 
Q 2397 3584 2469 3576 
Q 2541 3569 2628 3553 
L 2631 2963 
z
" transform="scale(0.015625)"/>
      <path id="DejaVuSans-63" d="M 3122 3366 
L 3122 2828 
Q 2878 2963 2633 3030 
Q 2388 3097 2138 3097 
Q 1578 3097 1268 2742 
Q 959 2388 959 1747 
Q 959 1106 1268 751 
Q 1578 397 2138 397 
Q 2388 397 2633 464 
Q 2878 531 3122 666 
L 3122 134 
Q 2881 22 2623 -34 
Q 2366 -91 2075 -91 
Q 1284 -91 818 406 
Q 353 903 353 1747 
Q 353 2603 823 3093 
Q 1294 3584 2113 3584 
Q 2378 3584 2631 3529 
Q 2884 3475 3122 3366 
z
" transform="scale(0.015625)"/>
      <path id="DejaVuSans-65" d="M 3597 1894 
L 3597 1613 
L 953 1613 
Q 991 1019 1311 708 
Q 1631 397 2203 397 
Q 2534 397 2845 478 
Q 3156 559 3463 722 
L 3463 178 
Q 3153 47 2828 -22 
Q 2503 -91 2169 -91 
Q 1331 -91 842 396 
Q 353 884 353 1716 
Q 353 2575 817 3079 
Q 1281 3584 2069 3584 
Q 2775 3584 3186 3129 
Q 3597 2675 3597 1894 
z
M 3022 2063 
Q 3016 2534 2758 2815 
Q 2500 3097 2075 3097 
Q 1594 3097 1305 2825 
Q 1016 2553 972 2059 
L 3022 2063 
z
" transform="scale(0.015625)"/>
      <path id="DejaVuSans-39" d="M 703 97 
L 703 672 
Q 941 559 1184 500 
Q 1428 441 1663 441 
Q 2288 441 2617 861 
Q 2947 1281 2994 2138 
Q 2813 1869 2534 1725 
Q 2256 1581 1919 1581 
Q 1219 1581 811 2004 
Q 403 2428 403 3163 
Q 403 3881 828 4315 
Q 1253 4750 1959 4750 
Q 2769 4750 3195 4129 
Q 3622 3509 3622 2328 
Q 3622 1225 3098 567 
Q 2575 -91 1691 -91 
Q 1453 -91 1209 -44 
Q 966 3 703 97 
z
M 1959 2075 
Q 2384 2075 2632 2365 
Q 2881 2656 2881 3163 
Q 2881 3666 2632 3958 
Q 2384 4250 1959 4250 
Q 1534 4250 1286 3958 
Q 1038 3666 1038 3163 
Q 1038 2656 1286 2365 
Q 1534 2075 1959 2075 
z
" transform="scale(0.015625)"/>
      <path id="DejaVuSans-2d" d="M 313 2009 
L 1997 2009 
L 1997 1497 
L 313 1497 
L 313 2009 
z
" transform="scale(0.015625)"/>
      <path id="DejaVuSans-69" d="M 603 3500 
L 1178 3500 
L 1178 0 
L 603 0 
L 603 3500 
z
M 603 4863 
L 1178 4863 
L 1178 4134 
L 603 4134 
L 603 4863 
z
" transform="scale(0.015625)"/>
      <path id="DejaVuSans-76" d="M 191 3500 
L 800 3500 
L 1894 563 
L 2988 3500 
L 3597 3500 
L 2284 0 
L 1503 0 
L 191 3500 
z
" transform="scale(0.015625)"/>
     </defs>
     <use xlink:href="#DejaVuSans-73"/>
     <use xlink:href="#DejaVuSans-6f" x="52.099609"/>
     <use xlink:href="#DejaVuSans-75" x="113.28125"/>
     <use xlink:href="#DejaVuSans-72" x="176.660156"/>
     <use xlink:href="#DejaVuSans-63" x="215.523438"/>
     <use xlink:href="#DejaVuSans-65" x="270.503906"/>
     <use xlink:href="#DejaVuSans-39" x="332.027344"/>
     <use xlink:href="#DejaVuSans-2d" x="395.650391"/>
     <use xlink:href="#DejaVuSans-72" x="431.734375"/>
     <use xlink:href="#DejaVuSans-65" x="470.597656"/>
     <use xlink:href="#DejaVuSans-63" x="532.121094"/>
     <use xlink:href="#DejaVuSans-65" x="587.101562"/>
     <use xlink:href="#DejaVuSans-69" x="648.625"/>
     <use xlink:href="#DejaVuSans-76" x="676.408203"/>
     <use xlink:href="#DejaVuSans-65" x="735.587891"/>
     <use xlink:href="#DejaVuSans-72" x="797.111328"/>
     <use xlink:href="#DejaVuSans-39" x="838.224609"/>
    </g>
   </g>
  </g>
 </g>
 <defs>
  <clipPath id="p948f1b7df1">
   <rect x="180" y="69.12" width="1116" height="443.52"/>
  </clipPath>
 </defs>
</svg>
