<?xml version="1.0" encoding="utf-8" standalone="no"?>
<!DOCTYPE svg PUBLIC "-//W3C//DTD SVG 1.1//EN"
  "http://www.w3.org/Graphics/SVG/1.1/DTD/svg11.dtd">
<svg xmlns:xlink="http://www.w3.org/1999/xlink" width="1440pt" height="576pt" viewBox="0 0 1440 576" xmlns="http://www.w3.org/2000/svg" version="1.1">
 <metadata>
  <rdf:RDF xmlns:dc="http://purl.org/dc/elements/1.1/" xmlns:cc="http://creativecommons.org/ns#" xmlns:rdf="http://www.w3.org/1999/02/22-rdf-syntax-ns#">
   <cc:Work>
    <dc:type rdf:resource="http://purl.org/dc/dcmitype/StillImage"/>
    <dc:date>2024-05-22T04:49:49.789561</dc:date>
    <dc:format>image/svg+xml</dc:format>
    <dc:creator>
     <cc:Agent>
      <dc:title>Matplotlib v3.8.3, https://matplotlib.org/</dc:title>
     </cc:Agent>
    </dc:creator>
   </cc:Work>
  </rdf:RDF>
 </metadata>
 <defs>
  <style type="text/css">*{stroke-linejoin: round; stroke-linecap: butt}</style>
 </defs>
 <g id="figure_1">
  <g id="patch_1">
   <path d="M 0 576 
L 1440 576 
L 1440 0 
L 0 0 
z
" style="fill: #ffffff"/>
  </g>
  <g id="axes_1">
   <g id="patch_2">
    <path d="M 180 512.64 
L 1296 512.64 
L 1296 69.12 
L 180 69.12 
z
" style="fill: #ffffff"/>
   </g>
   <g id="matplotlib.axis_1">
    <g id="xtick_1">
     <g id="line2d_1">
      <defs>
       <path id="md6f08cbf05" d="M 0 0 
L 0 3.5 
" style="stroke: #000000; stroke-width: 0.8"/>
      </defs>
      <g>
       <use xlink:href="#md6f08cbf05" x="229.734567" y="512.64" style="stroke: #000000; stroke-width: 0.8"/>
      </g>
     </g>
     <g id="text_1">
      <!-- 0 -->
      <g transform="translate(226.553317 527.238438) scale(0.1 -0.1)">
       <defs>
        <path id="DejaVuSans-30" d="M 2034 4250 
Q 1547 4250 1301 3770 
Q 1056 3291 1056 2328 
Q 1056 1369 1301 889 
Q 1547 409 2034 409 
Q 2525 409 2770 889 
Q 3016 1369 3016 2328 
Q 3016 3291 2770 3770 
Q 2525 4250 2034 4250 
z
M 2034 4750 
Q 2819 4750 3233 4129 
Q 3647 3509 3647 2328 
Q 3647 1150 3233 529 
Q 2819 -91 2034 -91 
Q 1250 -91 836 529 
Q 422 1150 422 2328 
Q 422 3509 836 4129 
Q 1250 4750 2034 4750 
z
" transform="scale(0.015625)"/>
       </defs>
       <use xlink:href="#DejaVuSans-30"/>
      </g>
     </g>
    </g>
    <g id="xtick_2">
     <g id="line2d_2">
      <g>
       <use xlink:href="#md6f08cbf05" x="433.04074" y="512.64" style="stroke: #000000; stroke-width: 0.8"/>
      </g>
     </g>
     <g id="text_2">
      <!-- 500 -->
      <g transform="translate(423.49699 527.238438) scale(0.1 -0.1)">
       <defs>
        <path id="DejaVuSans-35" d="M 691 4666 
L 3169 4666 
L 3169 4134 
L 1269 4134 
L 1269 2991 
Q 1406 3038 1543 3061 
Q 1681 3084 1819 3084 
Q 2600 3084 3056 2656 
Q 3513 2228 3513 1497 
Q 3513 744 3044 326 
Q 2575 -91 1722 -91 
Q 1428 -91 1123 -41 
Q 819 9 494 109 
L 494 744 
Q 775 591 1075 516 
Q 1375 441 1709 441 
Q 2250 441 2565 725 
Q 2881 1009 2881 1497 
Q 2881 1984 2565 2268 
Q 2250 2553 1709 2553 
Q 1456 2553 1204 2497 
Q 953 2441 691 2322 
L 691 4666 
z
" transform="scale(0.015625)"/>
       </defs>
       <use xlink:href="#DejaVuSans-35"/>
       <use xlink:href="#DejaVuSans-30" x="63.623047"/>
       <use xlink:href="#DejaVuSans-30" x="127.246094"/>
      </g>
     </g>
    </g>
    <g id="xtick_3">
     <g id="line2d_3">
      <g>
       <use xlink:href="#md6f08cbf05" x="636.346913" y="512.64" style="stroke: #000000; stroke-width: 0.8"/>
      </g>
     </g>
     <g id="text_3">
      <!-- 1000 -->
      <g transform="translate(623.621913 527.238438) scale(0.1 -0.1)">
       <defs>
        <path id="DejaVuSans-31" d="M 794 531 
L 1825 531 
L 1825 4091 
L 703 3866 
L 703 4441 
L 1819 4666 
L 2450 4666 
L 2450 531 
L 3481 531 
L 3481 0 
L 794 0 
L 794 531 
z
" transform="scale(0.015625)"/>
       </defs>
       <use xlink:href="#DejaVuSans-31"/>
       <use xlink:href="#DejaVuSans-30" x="63.623047"/>
       <use xlink:href="#DejaVuSans-30" x="127.246094"/>
       <use xlink:href="#DejaVuSans-30" x="190.869141"/>
      </g>
     </g>
    </g>
    <g id="xtick_4">
     <g id="line2d_4">
      <g>
       <use xlink:href="#md6f08cbf05" x="839.653087" y="512.64" style="stroke: #000000; stroke-width: 0.8"/>
      </g>
     </g>
     <g id="text_4">
      <!-- 1500 -->
      <g transform="translate(826.928087 527.238438) scale(0.1 -0.1)">
       <use xlink:href="#DejaVuSans-31"/>
       <use xlink:href="#DejaVuSans-35" x="63.623047"/>
       <use xlink:href="#DejaVuSans-30" x="127.246094"/>
       <use xlink:href="#DejaVuSans-30" x="190.869141"/>
      </g>
     </g>
    </g>
    <g id="xtick_5">
     <g id="line2d_5">
      <g>
       <use xlink:href="#md6f08cbf05" x="1042.95926" y="512.64" style="stroke: #000000; stroke-width: 0.8"/>
      </g>
     </g>
     <g id="text_5">
      <!-- 2000 -->
      <g transform="translate(1030.23426 527.238438) scale(0.1 -0.1)">
       <defs>
        <path id="DejaVuSans-32" d="M 1228 531 
L 3431 531 
L 3431 0 
L 469 0 
L 469 531 
Q 828 903 1448 1529 
Q 2069 2156 2228 2338 
Q 2531 2678 2651 2914 
Q 2772 3150 2772 3378 
Q 2772 3750 2511 3984 
Q 2250 4219 1831 4219 
Q 1534 4219 1204 4116 
Q 875 4013 500 3803 
L 500 4441 
Q 881 4594 1212 4672 
Q 1544 4750 1819 4750 
Q 2544 4750 2975 4387 
Q 3406 4025 3406 3419 
Q 3406 3131 3298 2873 
Q 3191 2616 2906 2266 
Q 2828 2175 2409 1742 
Q 1991 1309 1228 531 
z
" transform="scale(0.015625)"/>
       </defs>
       <use xlink:href="#DejaVuSans-32"/>
       <use xlink:href="#DejaVuSans-30" x="63.623047"/>
       <use xlink:href="#DejaVuSans-30" x="127.246094"/>
       <use xlink:href="#DejaVuSans-30" x="190.869141"/>
      </g>
     </g>
    </g>
    <g id="xtick_6">
     <g id="line2d_6">
      <g>
       <use xlink:href="#md6f08cbf05" x="1246.265433" y="512.64" style="stroke: #000000; stroke-width: 0.8"/>
      </g>
     </g>
     <g id="text_6">
      <!-- 2500 -->
      <g transform="translate(1233.540433 527.238438) scale(0.1 -0.1)">
       <use xlink:href="#DejaVuSans-32"/>
       <use xlink:href="#DejaVuSans-35" x="63.623047"/>
       <use xlink:href="#DejaVuSans-30" x="127.246094"/>
       <use xlink:href="#DejaVuSans-30" x="190.869141"/>
      </g>
     </g>
    </g>
   </g>
   <g id="matplotlib.axis_2">
    <g id="ytick_1">
     <g id="line2d_7">
      <defs>
       <path id="m5783f1fbd9" d="M 0 0 
L -3.5 0 
" style="stroke: #000000; stroke-width: 0.8"/>
      </defs>
      <g>
       <use xlink:href="#m5783f1fbd9" x="180" y="448.458542" style="stroke: #000000; stroke-width: 0.8"/>
      </g>
     </g>
     <g id="text_7">
      <!-- −6 -->
      <g transform="translate(158.257812 452.257761) scale(0.1 -0.1)">
       <defs>
        <path id="DejaVuSans-2212" d="M 678 2272 
L 4684 2272 
L 4684 1741 
L 678 1741 
L 678 2272 
z
" transform="scale(0.015625)"/>
        <path id="DejaVuSans-36" d="M 2113 2584 
Q 1688 2584 1439 2293 
Q 1191 2003 1191 1497 
Q 1191 994 1439 701 
Q 1688 409 2113 409 
Q 2538 409 2786 701 
Q 3034 994 3034 1497 
Q 3034 2003 2786 2293 
Q 2538 2584 2113 2584 
z
M 3366 4563 
L 3366 3988 
Q 3128 4100 2886 4159 
Q 2644 4219 2406 4219 
Q 1781 4219 1451 3797 
Q 1122 3375 1075 2522 
Q 1259 2794 1537 2939 
Q 1816 3084 2150 3084 
Q 2853 3084 3261 2657 
Q 3669 2231 3669 1497 
Q 3669 778 3244 343 
Q 2819 -91 2113 -91 
Q 1303 -91 875 529 
Q 447 1150 447 2328 
Q 447 3434 972 4092 
Q 1497 4750 2381 4750 
Q 2619 4750 2861 4703 
Q 3103 4656 3366 4563 
z
" transform="scale(0.015625)"/>
       </defs>
       <use xlink:href="#DejaVuSans-2212"/>
       <use xlink:href="#DejaVuSans-36" x="83.789062"/>
      </g>
     </g>
    </g>
    <g id="ytick_2">
     <g id="line2d_8">
      <g>
       <use xlink:href="#m5783f1fbd9" x="180" y="379.712735" style="stroke: #000000; stroke-width: 0.8"/>
      </g>
     </g>
     <g id="text_8">
      <!-- −4 -->
      <g transform="translate(158.257812 383.511954) scale(0.1 -0.1)">
       <defs>
        <path id="DejaVuSans-34" d="M 2419 4116 
L 825 1625 
L 2419 1625 
L 2419 4116 
z
M 2253 4666 
L 3047 4666 
L 3047 1625 
L 3713 1625 
L 3713 1100 
L 3047 1100 
L 3047 0 
L 2419 0 
L 2419 1100 
L 313 1100 
L 313 1709 
L 2253 4666 
z
" transform="scale(0.015625)"/>
       </defs>
       <use xlink:href="#DejaVuSans-2212"/>
       <use xlink:href="#DejaVuSans-34" x="83.789062"/>
      </g>
     </g>
    </g>
    <g id="ytick_3">
     <g id="line2d_9">
      <g>
       <use xlink:href="#m5783f1fbd9" x="180" y="310.966928" style="stroke: #000000; stroke-width: 0.8"/>
      </g>
     </g>
     <g id="text_9">
      <!-- −2 -->
      <g transform="translate(158.257812 314.766147) scale(0.1 -0.1)">
       <use xlink:href="#DejaVuSans-2212"/>
       <use xlink:href="#DejaVuSans-32" x="83.789062"/>
      </g>
     </g>
    </g>
    <g id="ytick_4">
     <g id="line2d_10">
      <g>
       <use xlink:href="#m5783f1fbd9" x="180" y="242.221121" style="stroke: #000000; stroke-width: 0.8"/>
      </g>
     </g>
     <g id="text_10">
      <!-- 0 -->
      <g transform="translate(166.6375 246.02034) scale(0.1 -0.1)">
       <use xlink:href="#DejaVuSans-30"/>
      </g>
     </g>
    </g>
    <g id="ytick_5">
     <g id="line2d_11">
      <g>
       <use xlink:href="#m5783f1fbd9" x="180" y="173.475314" style="stroke: #000000; stroke-width: 0.8"/>
      </g>
     </g>
     <g id="text_11">
      <!-- 2 -->
      <g transform="translate(166.6375 177.274533) scale(0.1 -0.1)">
       <use xlink:href="#DejaVuSans-32"/>
      </g>
     </g>
    </g>
    <g id="ytick_6">
     <g id="line2d_12">
      <g>
       <use xlink:href="#m5783f1fbd9" x="180" y="104.729507" style="stroke: #000000; stroke-width: 0.8"/>
      </g>
     </g>
     <g id="text_12">
      <!-- 4 -->
      <g transform="translate(166.6375 108.528726) scale(0.1 -0.1)">
       <use xlink:href="#DejaVuSans-34"/>
      </g>
     </g>
    </g>
   </g>
   <g id="line2d_13">
    <path d="M 230.727273 259.162834 
L 233.70539 258.893786 
L 235.690802 258.284454 
L 236.683508 258.051696 
L 240.654332 256.428542 
L 241.647038 255.732733 
L 242.639744 255.287451 
L 243.63245 255.246685 
L 244.625156 254.405563 
L 245.617862 251.087279 
L 246.610568 248.740385 
L 247.603273 262.28801 
L 248.595979 264.417638 
L 249.588685 205.70596 
L 250.581391 177.014841 
L 251.574097 159.006466 
L 252.566803 148.134619 
L 253.559509 143.493745 
L 254.552215 144.118143 
L 255.544921 147.999303 
L 256.537627 149.074826 
L 257.530333 144.99175 
L 258.523039 141.551026 
L 259.515745 141.312406 
L 260.50845 142.234123 
L 261.501156 143.547528 
L 262.493862 147.753988 
L 264.479274 169.899416 
L 265.47198 162.32312 
L 266.464686 156.798575 
L 267.457392 162.050281 
L 268.450098 181.046695 
L 269.442804 187.148134 
L 270.43551 163.307544 
L 271.428216 148.9741 
L 272.420922 142.281452 
L 273.413627 141.249212 
L 274.406333 144.245352 
L 275.399039 140.821564 
L 277.384451 114.810444 
L 278.377157 106.508872 
L 279.369863 100.895571 
L 280.362569 96.555481 
L 281.355275 92.833975 
L 282.347981 90.068971 
L 283.340687 89.28 
L 284.333393 91.193044 
L 285.326099 96.111984 
L 286.318804 102.62445 
L 287.31151 107.995775 
L 288.304216 111.544092 
L 289.296922 116.430655 
L 290.289628 125.36524 
L 292.27504 150.213174 
L 293.267746 161.487124 
L 294.260452 183.204295 
L 295.253158 228.323942 
L 296.245864 200.366406 
L 297.23857 195.613671 
L 298.231276 208.279915 
L 299.223981 223.179848 
L 300.216687 235.715034 
L 301.209393 239.101207 
L 302.202099 222.0996 
L 303.194805 223.372765 
L 304.187511 250.592926 
L 305.180217 256.663945 
L 306.172923 237.995659 
L 307.165629 248.334986 
L 308.158335 272.136743 
L 309.151041 255.411691 
L 310.143747 257.120833 
L 311.136453 283.840265 
L 312.129159 287.761821 
L 313.121864 281.168619 
L 314.11457 289.827239 
L 315.107276 289.875619 
L 316.099982 297.553134 
L 317.092688 286.445702 
L 318.085394 284.41243 
L 319.0781 287.698654 
L 320.070806 310.723451 
L 321.063512 286.298073 
L 322.056218 287.721689 
L 323.048924 300.493095 
L 324.04163 304.567714 
L 325.034336 292.135459 
L 326.027041 298.205616 
L 327.019747 298.46921 
L 328.012453 322.123393 
L 329.005159 309.532201 
L 329.997865 310.182088 
L 330.990571 309.019502 
L 331.983277 320.4912 
L 332.975983 301.462784 
L 333.968689 303.743481 
L 334.961395 325.589592 
L 335.954101 307.063142 
L 336.946807 296.153533 
L 337.939513 312.414681 
L 338.932218 317.075065 
L 339.924924 319.803597 
L 340.91763 312.151568 
L 341.910336 301.678857 
L 342.903042 315.278824 
L 343.895748 335.719847 
L 344.888454 328.350708 
L 345.88116 324.077463 
L 346.873866 331.502278 
L 347.866572 321.044117 
L 348.859278 313.863905 
L 349.851984 332.591905 
L 350.84469 307.104246 
L 351.837395 310.265796 
L 352.830101 334.977235 
L 353.822807 319.146625 
L 354.815513 305.550976 
L 355.808219 325.18224 
L 356.800925 348.05276 
L 357.793631 310.342588 
L 358.786337 328.393631 
L 359.779043 323.725178 
L 360.771749 327.805629 
L 361.764455 316.600196 
L 362.757161 322.845443 
L 363.749867 335.629426 
L 364.742572 327.165164 
L 365.735278 337.760963 
L 366.727984 344.374694 
L 367.72069 329.820331 
L 368.713396 337.952149 
L 369.706102 332.744836 
L 370.698808 321.205563 
L 371.691514 317.46884 
L 372.68422 337.396147 
L 373.676926 329.896951 
L 374.669632 367.460906 
L 375.662338 318.980767 
L 376.655044 319.456992 
L 377.64775 335.975163 
L 378.640455 322.401084 
L 379.633161 336.817936 
L 380.625867 330.143269 
L 381.618573 340.500497 
L 382.611279 313.46744 
L 383.603985 326.243804 
L 384.596691 378.795174 
L 385.589397 354.017549 
L 386.582103 365.120692 
L 387.574809 328.792156 
L 388.567515 324.791975 
L 389.560221 355.904936 
L 390.552927 328.787682 
L 391.545632 345.007062 
L 392.538338 322.694015 
L 393.531044 342.524863 
L 394.52375 343.916753 
L 395.516456 363.636134 
L 396.509162 351.945416 
L 397.501868 358.488601 
L 398.494574 343.49038 
L 399.48728 341.544958 
L 400.479986 326.312235 
L 401.472692 348.000049 
L 402.465398 320.294471 
L 403.458104 323.106013 
L 404.450809 346.399748 
L 405.443515 387.925656 
L 406.436221 335.514279 
L 407.428927 326.949252 
L 408.421633 358.285629 
L 409.414339 328.755475 
L 410.407045 360.972609 
L 411.399751 329.61231 
L 412.392457 325.137391 
L 413.385163 348.829571 
L 415.370575 339.614719 
L 416.363281 320.783625 
L 417.355986 371.25356 
L 418.348692 358.743716 
L 419.341398 338.846114 
L 420.334104 345.470358 
L 421.32681 419.148241 
L 422.319516 398.285125 
L 423.312222 337.061389 
L 424.304928 362.11757 
L 425.297634 358.846054 
L 426.29034 333.461166 
L 428.275752 350.432412 
L 429.268458 397.187599 
L 430.261163 346.494973 
L 431.253869 363.204429 
L 432.246575 348.778781 
L 433.239281 317.957626 
L 434.231987 347.420452 
L 435.224693 333.718454 
L 436.217399 353.872057 
L 437.210105 363.887637 
L 438.202811 380.93805 
L 439.195517 338.660596 
L 440.188223 361.710659 
L 441.180929 365.862009 
L 442.173635 372.132682 
L 443.166341 353.799923 
L 444.159046 347.028565 
L 445.151752 369.931882 
L 446.144458 388.605509 
L 447.137164 364.985115 
L 448.12987 397.322627 
L 449.122576 332.667018 
L 450.115282 354.687046 
L 451.107988 360.277539 
L 452.100694 359.060422 
L 453.0934 347.276847 
L 454.086106 359.043399 
L 455.078812 374.635189 
L 456.071518 339.903897 
L 457.064223 348.173144 
L 458.056929 364.580914 
L 459.049635 347.487566 
L 460.042341 354.311142 
L 461.035047 342.744718 
L 462.027753 336.637744 
L 463.020459 376.371062 
L 464.013165 371.75142 
L 465.005871 387.487049 
L 465.998577 453.217172 
L 466.991283 376.142958 
L 467.983989 336.509972 
L 468.976695 344.725362 
L 469.9694 382.137442 
L 470.962106 414.588907 
L 471.954812 345.225318 
L 472.947518 338.761719 
L 473.940224 367.95459 
L 474.93293 359.616015 
L 475.925636 349.707893 
L 476.918342 395.421455 
L 477.911048 344.617191 
L 478.903754 389.841403 
L 479.89646 338.205395 
L 480.889166 374.529545 
L 481.881872 363.626207 
L 482.874577 342.057585 
L 483.867283 332.219101 
L 484.859989 335.020111 
L 485.852695 365.456022 
L 486.845401 357.737736 
L 487.838107 353.560235 
L 488.830813 340.267218 
L 489.823519 319.300202 
L 490.816225 348.848945 
L 491.808931 341.994643 
L 492.801637 347.361541 
L 493.794343 381.745418 
L 494.787049 360.460099 
L 495.779754 345.131214 
L 496.77246 344.246246 
L 497.765166 345.381595 
L 498.757872 346.193434 
L 499.750578 356.733086 
L 500.743284 339.487613 
L 501.73599 342.371591 
L 502.728696 358.964406 
L 503.721402 350.718734 
L 504.714108 375.009422 
L 505.706814 346.818857 
L 506.69952 337.160321 
L 507.692226 357.847111 
L 508.684932 353.419696 
L 509.677637 376.782513 
L 510.670343 348.125091 
L 511.663049 335.514459 
L 512.655755 340.662423 
L 513.648461 369.235654 
L 514.641167 428.953736 
L 515.633873 341.734288 
L 516.626579 492.48 
L 517.619285 366.005278 
L 518.611991 341.736558 
L 519.604697 373.296058 
L 520.597403 355.783494 
L 521.590109 321.615597 
L 522.582814 348.635872 
L 523.57552 378.730665 
L 524.568226 332.441746 
L 526.553638 357.222675 
L 527.546344 399.419755 
L 528.53905 412.321804 
L 529.531756 348.00217 
L 530.524462 380.416506 
L 531.517168 348.691011 
L 532.509874 350.952611 
L 533.50258 342.92152 
L 534.495286 344.989253 
L 535.487991 372.030265 
L 536.480697 404.679893 
L 537.473403 382.078519 
L 538.466109 317.618384 
L 539.458815 372.412619 
L 540.451521 362.447212 
L 541.444227 370.072851 
L 542.436933 394.286982 
L 543.429639 335.829947 
L 544.422345 352.621845 
L 545.415051 417.260937 
L 546.407757 347.777968 
L 547.400463 356.8148 
L 548.393168 364.049774 
L 549.385874 345.110173 
L 550.37858 351.276705 
L 551.371286 372.735986 
L 552.363992 370.596927 
L 553.356698 347.492626 
L 554.349404 336.41266 
L 555.34211 364.080687 
L 556.334816 342.026386 
L 557.327522 367.027718 
L 558.320228 361.551969 
L 559.312934 346.594824 
L 560.30564 347.409086 
L 561.298345 335.09872 
L 562.291051 349.385919 
L 563.283757 368.570815 
L 564.276463 345.034307 
L 565.269169 378.922968 
L 566.261875 371.656336 
L 567.254581 372.830904 
L 568.247287 364.698396 
L 569.239993 390.007501 
L 570.232699 365.306573 
L 571.225405 448.466617 
L 572.218111 382.486201 
L 573.210817 357.573128 
L 574.203523 373.89708 
L 575.196228 355.266384 
L 576.188934 387.315972 
L 577.18164 356.91221 
L 578.174346 357.173215 
L 579.167052 377.736291 
L 580.159758 384.918815 
L 581.152464 350.370048 
L 582.14517 359.041409 
L 583.137876 351.513029 
L 584.130582 380.926921 
L 585.123288 362.393162 
L 586.115994 375.99493 
L 587.1087 397.478575 
L 588.101405 350.16203 
L 589.094111 368.210319 
L 590.086817 377.749593 
L 591.079523 348.370177 
L 592.072229 349.939424 
L 593.064935 410.463999 
L 594.057641 390.272183 
L 595.050347 393.777136 
L 596.043053 400.819661 
L 597.035759 362.385129 
L 598.028465 346.806947 
L 599.021171 368.918726 
L 600.013877 364.430186 
L 601.006582 360.540285 
L 601.999288 360.684092 
L 602.991994 382.399369 
L 603.9847 370.253621 
L 604.977406 399.325545 
L 606.962818 363.559375 
L 607.955524 370.065146 
L 608.94823 436.205574 
L 610.933642 351.452816 
L 611.926348 411.559602 
L 612.919054 360.545568 
L 613.911759 371.392778 
L 614.904465 394.770849 
L 615.897171 387.856486 
L 616.889877 416.014199 
L 617.882583 432.596442 
L 618.875289 373.539753 
L 619.867995 394.631992 
L 620.860701 362.746031 
L 622.846113 409.07212 
L 623.838819 391.528315 
L 624.831525 408.913367 
L 625.824231 391.886163 
L 626.816936 483.678519 
L 627.809642 391.54566 
L 628.802348 426.450713 
L 629.795054 392.899819 
L 630.78776 394.222116 
L 631.780466 422.811194 
L 632.773172 376.530236 
L 633.765878 381.83884 
L 634.758584 377.820041 
L 635.75129 416.604577 
L 636.743996 387.308373 
L 637.736702 393.180688 
L 638.729408 382.274989 
L 639.722114 368.548226 
L 640.714819 368.832182 
L 641.707525 422.572555 
L 642.700231 426.277653 
L 643.692937 379.927064 
L 644.685643 384.579643 
L 645.678349 383.976152 
L 646.671055 374.126412 
L 647.663761 393.624358 
L 648.656467 417.80504 
L 649.649173 370.415749 
L 650.641879 385.41138 
L 651.634585 458.048593 
L 653.619996 394.67544 
L 654.612702 392.797931 
L 655.605408 390.489056 
L 656.598114 400.808944 
L 658.583526 418.353659 
L 659.576232 383.43768 
L 660.568938 426.444842 
L 661.561644 408.231883 
L 662.55435 396.366445 
L 663.547056 404.872095 
L 664.539762 417.28422 
L 665.532468 392.640972 
L 666.525173 402.611583 
L 667.517879 404.936365 
L 668.510585 402.36889 
L 669.503291 432.194957 
L 670.495997 403.331716 
L 671.488703 414.875711 
L 672.481409 401.205512 
L 673.474115 389.92937 
L 674.466821 397.960545 
L 675.459527 393.668368 
L 676.452233 385.967028 
L 677.444939 404.400417 
L 678.437645 401.908758 
L 679.43035 393.865071 
L 680.423056 415.176318 
L 681.415762 398.052165 
L 682.408468 411.619892 
L 683.401174 414.673842 
L 684.39388 394.169471 
L 685.386586 422.473028 
L 686.379292 417.874877 
L 687.371998 411.494961 
L 688.364704 396.533783 
L 689.35741 418.537341 
L 690.350116 391.002593 
L 691.342822 404.795998 
L 692.335527 400.18278 
L 693.328233 419.364931 
L 694.320939 411.055531 
L 695.313645 399.195321 
L 696.306351 409.777266 
L 697.299057 391.47677 
L 698.291763 413.588455 
L 699.284469 402.992091 
L 700.277175 411.026131 
L 701.269881 414.670417 
L 702.262587 402.503818 
L 703.255293 408.104612 
L 704.247999 403.041402 
L 705.240705 404.98966 
L 706.23341 404.316077 
L 707.226116 418.002559 
L 708.218822 402.159016 
L 709.211528 413.221941 
L 710.204234 403.160501 
L 711.19694 409.357345 
L 712.189646 403.847483 
L 713.182352 404.037578 
L 714.175058 407.736249 
L 715.167764 409.964453 
L 717.153176 407.627566 
L 718.145882 403.074057 
L 719.138587 416.424634 
L 720.131293 402.090069 
L 721.123999 411.252777 
L 722.116705 402.949607 
L 723.109411 415.510511 
L 724.102117 410.106559 
L 725.094823 408.369443 
L 726.087529 401.23129 
L 727.080235 403.446517 
L 728.072941 408.717454 
L 729.065647 403.802844 
L 730.058353 417.074218 
L 731.051059 412.101738 
L 732.043764 396.65645 
L 733.03647 413.194723 
L 734.029176 402.551235 
L 735.021882 402.263273 
L 737.007294 411.83573 
L 738 408.928196 
L 738.992706 411.28423 
L 739.985412 403.34173 
L 740.978118 407.066226 
L 741.970824 404.368403 
L 742.96353 419.308786 
L 743.956236 408.778155 
L 744.948941 422.489162 
L 745.941647 425.800696 
L 746.934353 414.414234 
L 747.927059 404.675132 
L 748.919765 421.617524 
L 749.912471 418.589796 
L 750.905177 406.854443 
L 751.897883 408.311761 
L 752.890589 413.565264 
L 753.883295 420.193127 
L 754.876001 408.946131 
L 755.868707 411.525898 
L 756.861413 410.739429 
L 757.854118 419.630701 
L 758.846824 417.149185 
L 759.83953 416.511827 
L 760.832236 406.074576 
L 761.824942 417.111958 
L 762.817648 417.147158 
L 763.810354 413.349384 
L 764.80306 410.445445 
L 765.795766 410.423872 
L 766.788472 416.471116 
L 767.781178 408.490316 
L 768.773884 419.151994 
L 769.76659 414.063416 
L 770.759295 419.700523 
L 771.752001 416.195607 
L 772.744707 409.343814 
L 773.737413 414.302789 
L 774.730119 415.700514 
L 775.722825 409.782877 
L 776.715531 416.281977 
L 777.708237 409.684867 
L 778.700943 407.328504 
L 779.693649 414.380643 
L 780.686355 418.774803 
L 781.679061 415.230997 
L 782.671767 418.594094 
L 783.664473 411.864373 
L 784.657178 408.189489 
L 786.64259 409.606658 
L 787.635296 417.33735 
L 788.628002 417.353422 
L 789.620708 418.575237 
L 790.613414 415.570083 
L 791.60612 412.158471 
L 792.598826 415.85002 
L 793.591532 417.283117 
L 794.584238 412.001989 
L 795.576944 407.965253 
L 796.56965 405.224549 
L 797.562355 416.593322 
L 798.555061 423.630229 
L 799.547767 407.536298 
L 800.540473 416.031581 
L 801.533179 413.555989 
L 802.525885 413.109062 
L 803.518591 413.895488 
L 804.511297 413.332272 
L 805.504003 415.645975 
L 806.496709 414.525172 
L 807.489415 415.279496 
L 808.482121 414.637055 
L 809.474827 415.172497 
L 810.467532 408.708169 
L 811.460238 415.681838 
L 812.452944 415.166252 
L 813.44565 407.699689 
L 814.438356 414.720154 
L 815.431062 411.08134 
L 816.423768 412.612646 
L 817.416474 420.213084 
L 818.40918 407.555947 
L 819.401886 410.957035 
L 820.394592 416.822547 
L 821.387298 416.726798 
L 822.380004 411.288399 
L 823.372709 411.761681 
L 824.365415 418.238102 
L 825.358121 411.724219 
L 826.350827 412.695127 
L 827.343533 412.387227 
L 828.336239 418.191532 
L 829.328945 413.771877 
L 830.321651 414.002874 
L 831.314357 418.245214 
L 832.307063 416.672954 
L 833.299769 413.805472 
L 834.292475 416.814647 
L 835.285181 412.274771 
L 836.277886 422.530517 
L 837.270592 419.20247 
L 838.263298 422.193241 
L 839.256004 418.194236 
L 840.24871 415.679959 
L 841.241416 411.818171 
L 842.234122 415.378944 
L 843.226828 414.351918 
L 844.219534 419.033291 
L 845.21224 413.953203 
L 846.204946 416.864631 
L 847.197652 416.103623 
L 848.190358 414.573753 
L 849.183064 409.564932 
L 850.175769 413.057386 
L 851.168475 420.555592 
L 852.161181 412.514344 
L 853.153887 411.365307 
L 854.146593 420.720874 
L 855.139299 428.236855 
L 856.132005 417.737657 
L 857.124711 416.778306 
L 858.117417 413.948041 
L 859.110123 420.971618 
L 860.102829 415.708423 
L 861.095535 412.758676 
L 862.088241 411.286568 
L 863.080946 414.548181 
L 864.073652 421.552902 
L 865.066358 422.010644 
L 866.059064 419.221534 
L 867.05177 411.777863 
L 868.044476 418.300035 
L 869.037182 412.079273 
L 870.029888 418.710744 
L 871.022594 419.729418 
L 872.0153 423.407702 
L 873.008006 417.469407 
L 874.000712 414.518146 
L 874.993418 421.168484 
L 875.986123 412.763367 
L 876.978829 410.909392 
L 877.971535 413.194613 
L 878.964241 416.659213 
L 879.956947 429.671094 
L 880.949653 418.145964 
L 881.942359 416.041219 
L 882.935065 426.391413 
L 883.927771 418.242484 
L 884.920477 416.501215 
L 885.913183 410.804612 
L 886.905889 422.722637 
L 887.898595 419.398024 
L 889.884006 418.545402 
L 890.876712 409.292974 
L 891.869418 415.6921 
L 892.862124 416.522036 
L 893.85483 428.913531 
L 894.847536 427.173329 
L 895.840242 408.755707 
L 896.832948 418.496335 
L 897.825654 423.997791 
L 898.81836 431.551929 
L 899.811066 409.794686 
L 900.803772 426.710375 
L 901.796477 424.724356 
L 902.789183 418.385218 
L 903.781889 415.224325 
L 904.774595 417.348974 
L 905.767301 420.934909 
L 906.760007 413.704692 
L 907.752713 416.972473 
L 908.745419 425.809531 
L 909.738125 414.590182 
L 910.730831 424.932379 
L 911.723537 428.356065 
L 912.716243 426.842371 
L 913.708949 422.590883 
L 914.701655 421.048906 
L 915.69436 422.610395 
L 916.687066 421.875738 
L 917.679772 417.675579 
L 918.672478 419.97839 
L 919.665184 415.574778 
L 920.65789 422.968122 
L 921.650596 415.195083 
L 922.643302 428.371042 
L 923.636008 424.214718 
L 924.628714 413.252201 
L 925.62142 426.283299 
L 926.614126 415.546343 
L 927.606832 417.916664 
L 928.599537 424.376766 
L 929.592243 419.696963 
L 930.584949 412.018079 
L 931.577655 421.998123 
L 932.570361 416.87701 
L 933.563067 413.921883 
L 934.555773 420.248129 
L 935.548479 415.550357 
L 936.541185 424.635127 
L 937.533891 413.101005 
L 938.526597 424.206299 
L 939.519303 421.658252 
L 940.512009 423.09641 
L 941.504714 418.515272 
L 942.49742 423.491619 
L 943.490126 423.24186 
L 944.482832 418.212891 
L 945.475538 426.970549 
L 946.468244 422.251173 
L 947.46095 428.765957 
L 948.453656 423.098091 
L 949.446362 421.465451 
L 950.439068 423.62932 
L 951.431774 415.64839 
L 952.42448 430.68781 
L 953.417186 413.800903 
L 954.409891 414.607073 
L 955.402597 413.639229 
L 956.395303 419.543009 
L 957.388009 420.999793 
L 958.380715 424.987993 
L 959.373421 421.919381 
L 960.366127 408.586333 
L 961.358833 418.441539 
L 962.351539 418.471871 
L 963.344245 424.759531 
L 964.336951 409.085828 
L 965.329657 422.028814 
L 966.322363 417.452364 
L 967.315068 414.62055 
L 968.307774 413.400468 
L 969.30048 425.811994 
L 970.293186 432.076026 
L 971.285892 417.489288 
L 972.278598 422.789413 
L 973.271304 416.47002 
L 974.26401 429.91559 
L 975.256716 421.272345 
L 976.249422 422.423122 
L 977.242128 424.572398 
L 978.234834 407.224994 
L 979.22754 422.387145 
L 980.220246 421.191165 
L 981.212951 419.156208 
L 982.205657 425.369214 
L 983.198363 422.999342 
L 984.191069 422.669199 
L 985.183775 418.027522 
L 986.176481 418.94804 
L 987.169187 419.147832 
L 988.161893 418.087471 
L 989.154599 423.518442 
L 990.147305 425.046077 
L 991.140011 421.918398 
L 992.132717 422.6132 
L 993.125423 425.168459 
L 994.118128 427.084462 
L 995.110834 418.888515 
L 996.10354 421.362141 
L 997.096246 437.869751 
L 998.088952 416.782389 
L 999.081658 425.37322 
L 1000.074364 417.83391 
L 1001.06707 427.633628 
L 1002.059776 419.2294 
L 1003.052482 418.446707 
L 1004.045188 417.329662 
L 1006.0306 426.542159 
L 1007.023305 428.175931 
L 1008.016011 425.642552 
L 1009.008717 421.159315 
L 1010.001423 419.372993 
L 1010.994129 422.32768 
L 1011.986835 417.385964 
L 1012.979541 423.842385 
L 1014.964953 421.022065 
L 1015.957659 424.220431 
L 1016.950365 430.355224 
L 1017.943071 418.350049 
L 1018.935777 419.920149 
L 1019.928482 432.469034 
L 1020.921188 427.89777 
L 1021.913894 427.484138 
L 1022.9066 425.184405 
L 1023.899306 424.798043 
L 1024.892012 428.055513 
L 1025.884718 430.113152 
L 1026.877424 415.415261 
L 1027.87013 423.323583 
L 1028.862836 415.929284 
L 1029.855542 424.525406 
L 1030.848248 424.082697 
L 1031.840954 431.980567 
L 1032.833659 429.446071 
L 1033.826365 424.53032 
L 1034.819071 426.385842 
L 1035.811777 426.738598 
L 1036.804483 428.837433 
L 1037.797189 431.887278 
L 1038.789895 421.565801 
L 1039.782601 426.35037 
L 1040.775307 428.05926 
L 1041.768013 417.349229 
L 1042.760719 414.13835 
L 1043.753425 417.76439 
L 1044.746131 418.594948 
L 1045.738837 426.134036 
L 1046.731542 422.177963 
L 1047.724248 429.771916 
L 1048.716954 424.776778 
L 1049.70966 424.563995 
L 1050.702366 431.750368 
L 1052.687778 415.101992 
L 1053.680484 424.654717 
L 1054.67319 423.594101 
L 1055.665896 427.921178 
L 1056.658602 427.713603 
L 1057.651308 421.201877 
L 1059.636719 428.101346 
L 1060.629425 415.066196 
L 1061.622131 420.810489 
L 1062.614837 414.617515 
L 1063.607543 424.502894 
L 1064.600249 424.372412 
L 1065.592955 419.399131 
L 1066.585661 428.927957 
L 1067.578367 414.649694 
L 1068.571073 423.659742 
L 1069.563779 421.64226 
L 1070.556485 418.991555 
L 1071.549191 429.83563 
L 1072.541896 422.053785 
L 1073.534602 423.351673 
L 1074.527308 423.305325 
L 1075.520014 427.247358 
L 1076.51272 425.185598 
L 1077.505426 422.276722 
L 1078.498132 425.46355 
L 1079.490838 427.802279 
L 1080.483544 423.023539 
L 1081.47625 425.075073 
L 1082.468956 421.740366 
L 1083.461662 434.741634 
L 1084.454368 417.633743 
L 1085.447073 424.530532 
L 1086.439779 416.505183 
L 1087.432485 434.921103 
L 1088.425191 424.351626 
L 1089.417897 426.350377 
L 1090.410603 418.438747 
L 1091.403309 419.234933 
L 1092.396015 429.245275 
L 1093.388721 425.225502 
L 1094.381427 433.219759 
L 1095.374133 430.207434 
L 1096.366839 425.952955 
L 1097.359545 422.705364 
L 1098.35225 427.398879 
L 1099.344956 424.166757 
L 1100.337662 425.382055 
L 1101.330368 431.672136 
L 1102.323074 423.740706 
L 1103.31578 428.120885 
L 1104.308486 421.591804 
L 1105.301192 413.517392 
L 1106.293898 424.228644 
L 1107.286604 428.213827 
L 1108.27931 417.236357 
L 1110.264722 430.681745 
L 1111.257428 436.793723 
L 1112.250133 423.167531 
L 1113.242839 423.08593 
L 1114.235545 421.214131 
L 1115.228251 442.221205 
L 1116.220957 431.871729 
L 1117.213663 429.96454 
L 1118.206369 435.196597 
L 1119.199075 426.112411 
L 1120.191781 426.023264 
L 1121.184487 410.524572 
L 1122.177193 426.83455 
L 1123.169899 426.504876 
L 1125.15531 423.749883 
L 1126.148016 428.50899 
L 1127.140722 427.144539 
L 1128.133428 417.686828 
L 1129.126134 427.918563 
L 1131.111546 422.550772 
L 1132.104252 423.353036 
L 1133.096958 430.493443 
L 1134.089664 423.477836 
L 1135.08237 419.867041 
L 1136.075076 426.736474 
L 1137.067782 419.6168 
L 1138.060487 436.88336 
L 1139.053193 424.254024 
L 1140.045899 427.046783 
L 1141.038605 427.470098 
L 1142.031311 418.400696 
L 1143.024017 432.674818 
L 1144.016723 426.423779 
L 1145.009429 420.898639 
L 1146.002135 416.798821 
L 1146.994841 426.36334 
L 1147.987547 421.793827 
L 1148.980253 426.829431 
L 1149.972959 421.122209 
L 1150.965664 429.824247 
L 1151.95837 421.015226 
L 1152.951076 428.976179 
L 1153.943782 426.953027 
L 1154.936488 433.100852 
L 1155.929194 418.683298 
L 1156.9219 427.682578 
L 1157.914606 426.840116 
L 1158.907312 427.615282 
L 1159.900018 425.251035 
L 1160.892724 428.984276 
L 1161.88543 442.273718 
L 1162.878136 419.381761 
L 1163.870841 421.649975 
L 1164.863547 440.350967 
L 1165.856253 440.456818 
L 1166.848959 420.418893 
L 1167.841665 433.869013 
L 1168.834371 421.697208 
L 1169.827077 430.914731 
L 1170.819783 409.348029 
L 1171.812489 427.551618 
L 1172.805195 426.030028 
L 1173.797901 434.856231 
L 1174.790607 425.337518 
L 1175.783313 426.131151 
L 1176.776019 419.944922 
L 1177.768724 427.014007 
L 1178.76143 429.690875 
L 1179.754136 422.071755 
L 1180.746842 424.788212 
L 1181.739548 419.124497 
L 1182.732254 430.792738 
L 1183.72496 426.811008 
L 1184.717666 424.470868 
L 1185.710372 431.642636 
L 1186.703078 425.933391 
L 1187.695784 423.521998 
L 1188.68849 420.727255 
L 1189.681196 426.234883 
L 1190.673901 422.502802 
L 1191.666607 417.99675 
L 1192.659313 422.164265 
L 1193.652019 423.945074 
L 1194.644725 417.668793 
L 1195.637431 419.729492 
L 1196.630137 413.227395 
L 1197.622843 418.937642 
L 1198.615549 420.890505 
L 1199.608255 440.478434 
L 1200.600961 450.105572 
L 1201.593667 421.132046 
L 1202.586373 421.392026 
L 1203.579078 419.687575 
L 1204.571784 420.365393 
L 1205.56449 435.678934 
L 1206.557196 426.093754 
L 1207.549902 430.725668 
L 1208.542608 436.668052 
L 1209.535314 437.659343 
L 1210.52802 418.974933 
L 1211.520726 425.519093 
L 1212.513432 426.621506 
L 1213.506138 420.101081 
L 1214.498844 423.869686 
L 1215.49155 425.172415 
L 1216.484255 423.739091 
L 1217.476961 417.524587 
L 1218.469667 421.792295 
L 1219.462373 428.007244 
L 1220.455079 412.521224 
L 1221.447785 434.583271 
L 1222.440491 430.474688 
L 1223.433197 427.863093 
L 1224.425903 418.96043 
L 1225.418609 424.376615 
L 1226.411315 422.822239 
L 1227.404021 429.922328 
L 1228.396727 422.623998 
L 1229.389432 414.369494 
L 1230.382138 425.325399 
L 1231.374844 419.217104 
L 1232.36755 435.238583 
L 1233.360256 419.765356 
L 1234.352962 422.821108 
L 1235.345668 439.756989 
L 1236.338374 433.915202 
L 1237.33108 417.090195 
L 1238.323786 431.431622 
L 1239.316492 429.995542 
L 1240.309198 429.684882 
L 1241.301904 426.398887 
L 1242.29461 431.040224 
L 1243.287315 423.808916 
L 1244.280021 431.002346 
L 1245.272727 422.614085 
L 1245.272727 422.614085 
" clip-path="url(#p6f056b81b8)" style="fill: none; stroke: #1f77b4; stroke-width: 1.5; stroke-linecap: square"/>
   </g>
   <g id="patch_3">
    <path d="M 180 512.64 
L 180 69.12 
" style="fill: none; stroke: #000000; stroke-width: 0.8; stroke-linejoin: miter; stroke-linecap: square"/>
   </g>
   <g id="patch_4">
    <path d="M 1296 512.64 
L 1296 69.12 
" style="fill: none; stroke: #000000; stroke-width: 0.8; stroke-linejoin: miter; stroke-linecap: square"/>
   </g>
   <g id="patch_5">
    <path d="M 180 512.64 
L 1296 512.64 
" style="fill: none; stroke: #000000; stroke-width: 0.8; stroke-linejoin: miter; stroke-linecap: square"/>
   </g>
   <g id="patch_6">
    <path d="M 180 69.12 
L 1296 69.12 
" style="fill: none; stroke: #000000; stroke-width: 0.8; stroke-linejoin: miter; stroke-linecap: square"/>
   </g>
   <g id="text_13">
    <!-- source6-receiver14 -->
    <g transform="translate(544.9 60.80125) scale(0.4 -0.4)">
     <defs>
      <path id="DejaVuSans-73" d="M 2834 3397 
L 2834 2853 
Q 2591 2978 2328 3040 
Q 2066 3103 1784 3103 
Q 1356 3103 1142 2972 
Q 928 2841 928 2578 
Q 928 2378 1081 2264 
Q 1234 2150 1697 2047 
L 1894 2003 
Q 2506 1872 2764 1633 
Q 3022 1394 3022 966 
Q 3022 478 2636 193 
Q 2250 -91 1575 -91 
Q 1294 -91 989 -36 
Q 684 19 347 128 
L 347 722 
Q 666 556 975 473 
Q 1284 391 1588 391 
Q 1994 391 2212 530 
Q 2431 669 2431 922 
Q 2431 1156 2273 1281 
Q 2116 1406 1581 1522 
L 1381 1569 
Q 847 1681 609 1914 
Q 372 2147 372 2553 
Q 372 3047 722 3315 
Q 1072 3584 1716 3584 
Q 2034 3584 2315 3537 
Q 2597 3491 2834 3397 
z
" transform="scale(0.015625)"/>
      <path id="DejaVuSans-6f" d="M 1959 3097 
Q 1497 3097 1228 2736 
Q 959 2375 959 1747 
Q 959 1119 1226 758 
Q 1494 397 1959 397 
Q 2419 397 2687 759 
Q 2956 1122 2956 1747 
Q 2956 2369 2687 2733 
Q 2419 3097 1959 3097 
z
M 1959 3584 
Q 2709 3584 3137 3096 
Q 3566 2609 3566 1747 
Q 3566 888 3137 398 
Q 2709 -91 1959 -91 
Q 1206 -91 779 398 
Q 353 888 353 1747 
Q 353 2609 779 3096 
Q 1206 3584 1959 3584 
z
" transform="scale(0.015625)"/>
      <path id="DejaVuSans-75" d="M 544 1381 
L 544 3500 
L 1119 3500 
L 1119 1403 
Q 1119 906 1312 657 
Q 1506 409 1894 409 
Q 2359 409 2629 706 
Q 2900 1003 2900 1516 
L 2900 3500 
L 3475 3500 
L 3475 0 
L 2900 0 
L 2900 538 
Q 2691 219 2414 64 
Q 2138 -91 1772 -91 
Q 1169 -91 856 284 
Q 544 659 544 1381 
z
M 1991 3584 
L 1991 3584 
z
" transform="scale(0.015625)"/>
      <path id="DejaVuSans-72" d="M 2631 2963 
Q 2534 3019 2420 3045 
Q 2306 3072 2169 3072 
Q 1681 3072 1420 2755 
Q 1159 2438 1159 1844 
L 1159 0 
L 581 0 
L 581 3500 
L 1159 3500 
L 1159 2956 
Q 1341 3275 1631 3429 
Q 1922 3584 2338 3584 
Q 2397 3584 2469 3576 
Q 2541 3569 2628 3553 
L 2631 2963 
z
" transform="scale(0.015625)"/>
      <path id="DejaVuSans-63" d="M 3122 3366 
L 3122 2828 
Q 2878 2963 2633 3030 
Q 2388 3097 2138 3097 
Q 1578 3097 1268 2742 
Q 959 2388 959 1747 
Q 959 1106 1268 751 
Q 1578 397 2138 397 
Q 2388 397 2633 464 
Q 2878 531 3122 666 
L 3122 134 
Q 2881 22 2623 -34 
Q 2366 -91 2075 -91 
Q 1284 -91 818 406 
Q 353 903 353 1747 
Q 353 2603 823 3093 
Q 1294 3584 2113 3584 
Q 2378 3584 2631 3529 
Q 2884 3475 3122 3366 
z
" transform="scale(0.015625)"/>
      <path id="DejaVuSans-65" d="M 3597 1894 
L 3597 1613 
L 953 1613 
Q 991 1019 1311 708 
Q 1631 397 2203 397 
Q 2534 397 2845 478 
Q 3156 559 3463 722 
L 3463 178 
Q 3153 47 2828 -22 
Q 2503 -91 2169 -91 
Q 1331 -91 842 396 
Q 353 884 353 1716 
Q 353 2575 817 3079 
Q 1281 3584 2069 3584 
Q 2775 3584 3186 3129 
Q 3597 2675 3597 1894 
z
M 3022 2063 
Q 3016 2534 2758 2815 
Q 2500 3097 2075 3097 
Q 1594 3097 1305 2825 
Q 1016 2553 972 2059 
L 3022 2063 
z
" transform="scale(0.015625)"/>
      <path id="DejaVuSans-2d" d="M 313 2009 
L 1997 2009 
L 1997 1497 
L 313 1497 
L 313 2009 
z
" transform="scale(0.015625)"/>
      <path id="DejaVuSans-69" d="M 603 3500 
L 1178 3500 
L 1178 0 
L 603 0 
L 603 3500 
z
M 603 4863 
L 1178 4863 
L 1178 4134 
L 603 4134 
L 603 4863 
z
" transform="scale(0.015625)"/>
      <path id="DejaVuSans-76" d="M 191 3500 
L 800 3500 
L 1894 563 
L 2988 3500 
L 3597 3500 
L 2284 0 
L 1503 0 
L 191 3500 
z
" transform="scale(0.015625)"/>
     </defs>
     <use xlink:href="#DejaVuSans-73"/>
     <use xlink:href="#DejaVuSans-6f" x="52.099609"/>
     <use xlink:href="#DejaVuSans-75" x="113.28125"/>
     <use xlink:href="#DejaVuSans-72" x="176.660156"/>
     <use xlink:href="#DejaVuSans-63" x="215.523438"/>
     <use xlink:href="#DejaVuSans-65" x="270.503906"/>
     <use xlink:href="#DejaVuSans-36" x="332.027344"/>
     <use xlink:href="#DejaVuSans-2d" x="395.650391"/>
     <use xlink:href="#DejaVuSans-72" x="431.734375"/>
     <use xlink:href="#DejaVuSans-65" x="470.597656"/>
     <use xlink:href="#DejaVuSans-63" x="532.121094"/>
     <use xlink:href="#DejaVuSans-65" x="587.101562"/>
     <use xlink:href="#DejaVuSans-69" x="648.625"/>
     <use xlink:href="#DejaVuSans-76" x="676.408203"/>
     <use xlink:href="#DejaVuSans-65" x="735.587891"/>
     <use xlink:href="#DejaVuSans-72" x="797.111328"/>
     <use xlink:href="#DejaVuSans-31" x="838.224609"/>
     <use xlink:href="#DejaVuSans-34" x="901.847656"/>
    </g>
   </g>
  </g>
 </g>
 <defs>
  <clipPath id="p6f056b81b8">
   <rect x="180" y="69.12" width="1116" height="443.52"/>
  </clipPath>
 </defs>
</svg>
