<?xml version="1.0" encoding="utf-8" standalone="no"?>
<!DOCTYPE svg PUBLIC "-//W3C//DTD SVG 1.1//EN"
  "http://www.w3.org/Graphics/SVG/1.1/DTD/svg11.dtd">
<svg xmlns:xlink="http://www.w3.org/1999/xlink" width="1440pt" height="576pt" viewBox="0 0 1440 576" xmlns="http://www.w3.org/2000/svg" version="1.1">
 <metadata>
  <rdf:RDF xmlns:dc="http://purl.org/dc/elements/1.1/" xmlns:cc="http://creativecommons.org/ns#" xmlns:rdf="http://www.w3.org/1999/02/22-rdf-syntax-ns#">
   <cc:Work>
    <dc:type rdf:resource="http://purl.org/dc/dcmitype/StillImage"/>
    <dc:date>2024-05-22T04:49:49.873237</dc:date>
    <dc:format>image/svg+xml</dc:format>
    <dc:creator>
     <cc:Agent>
      <dc:title>Matplotlib v3.8.3, https://matplotlib.org/</dc:title>
     </cc:Agent>
    </dc:creator>
   </cc:Work>
  </rdf:RDF>
 </metadata>
 <defs>
  <style type="text/css">*{stroke-linejoin: round; stroke-linecap: butt}</style>
 </defs>
 <g id="figure_1">
  <g id="patch_1">
   <path d="M 0 576 
L 1440 576 
L 1440 0 
L 0 0 
z
" style="fill: #ffffff"/>
  </g>
  <g id="axes_1">
   <g id="patch_2">
    <path d="M 180 512.64 
L 1296 512.64 
L 1296 69.12 
L 180 69.12 
z
" style="fill: #ffffff"/>
   </g>
   <g id="matplotlib.axis_1">
    <g id="xtick_1">
     <g id="line2d_1">
      <defs>
       <path id="ma1b928c6b4" d="M 0 0 
L 0 3.5 
" style="stroke: #000000; stroke-width: 0.8"/>
      </defs>
      <g>
       <use xlink:href="#ma1b928c6b4" x="229.734567" y="512.64" style="stroke: #000000; stroke-width: 0.8"/>
      </g>
     </g>
     <g id="text_1">
      <!-- 0 -->
      <g transform="translate(226.553317 527.238438) scale(0.1 -0.1)">
       <defs>
        <path id="DejaVuSans-30" d="M 2034 4250 
Q 1547 4250 1301 3770 
Q 1056 3291 1056 2328 
Q 1056 1369 1301 889 
Q 1547 409 2034 409 
Q 2525 409 2770 889 
Q 3016 1369 3016 2328 
Q 3016 3291 2770 3770 
Q 2525 4250 2034 4250 
z
M 2034 4750 
Q 2819 4750 3233 4129 
Q 3647 3509 3647 2328 
Q 3647 1150 3233 529 
Q 2819 -91 2034 -91 
Q 1250 -91 836 529 
Q 422 1150 422 2328 
Q 422 3509 836 4129 
Q 1250 4750 2034 4750 
z
" transform="scale(0.015625)"/>
       </defs>
       <use xlink:href="#DejaVuSans-30"/>
      </g>
     </g>
    </g>
    <g id="xtick_2">
     <g id="line2d_2">
      <g>
       <use xlink:href="#ma1b928c6b4" x="433.04074" y="512.64" style="stroke: #000000; stroke-width: 0.8"/>
      </g>
     </g>
     <g id="text_2">
      <!-- 500 -->
      <g transform="translate(423.49699 527.238438) scale(0.1 -0.1)">
       <defs>
        <path id="DejaVuSans-35" d="M 691 4666 
L 3169 4666 
L 3169 4134 
L 1269 4134 
L 1269 2991 
Q 1406 3038 1543 3061 
Q 1681 3084 1819 3084 
Q 2600 3084 3056 2656 
Q 3513 2228 3513 1497 
Q 3513 744 3044 326 
Q 2575 -91 1722 -91 
Q 1428 -91 1123 -41 
Q 819 9 494 109 
L 494 744 
Q 775 591 1075 516 
Q 1375 441 1709 441 
Q 2250 441 2565 725 
Q 2881 1009 2881 1497 
Q 2881 1984 2565 2268 
Q 2250 2553 1709 2553 
Q 1456 2553 1204 2497 
Q 953 2441 691 2322 
L 691 4666 
z
" transform="scale(0.015625)"/>
       </defs>
       <use xlink:href="#DejaVuSans-35"/>
       <use xlink:href="#DejaVuSans-30" x="63.623047"/>
       <use xlink:href="#DejaVuSans-30" x="127.246094"/>
      </g>
     </g>
    </g>
    <g id="xtick_3">
     <g id="line2d_3">
      <g>
       <use xlink:href="#ma1b928c6b4" x="636.346913" y="512.64" style="stroke: #000000; stroke-width: 0.8"/>
      </g>
     </g>
     <g id="text_3">
      <!-- 1000 -->
      <g transform="translate(623.621913 527.238438) scale(0.1 -0.1)">
       <defs>
        <path id="DejaVuSans-31" d="M 794 531 
L 1825 531 
L 1825 4091 
L 703 3866 
L 703 4441 
L 1819 4666 
L 2450 4666 
L 2450 531 
L 3481 531 
L 3481 0 
L 794 0 
L 794 531 
z
" transform="scale(0.015625)"/>
       </defs>
       <use xlink:href="#DejaVuSans-31"/>
       <use xlink:href="#DejaVuSans-30" x="63.623047"/>
       <use xlink:href="#DejaVuSans-30" x="127.246094"/>
       <use xlink:href="#DejaVuSans-30" x="190.869141"/>
      </g>
     </g>
    </g>
    <g id="xtick_4">
     <g id="line2d_4">
      <g>
       <use xlink:href="#ma1b928c6b4" x="839.653087" y="512.64" style="stroke: #000000; stroke-width: 0.8"/>
      </g>
     </g>
     <g id="text_4">
      <!-- 1500 -->
      <g transform="translate(826.928087 527.238438) scale(0.1 -0.1)">
       <use xlink:href="#DejaVuSans-31"/>
       <use xlink:href="#DejaVuSans-35" x="63.623047"/>
       <use xlink:href="#DejaVuSans-30" x="127.246094"/>
       <use xlink:href="#DejaVuSans-30" x="190.869141"/>
      </g>
     </g>
    </g>
    <g id="xtick_5">
     <g id="line2d_5">
      <g>
       <use xlink:href="#ma1b928c6b4" x="1042.95926" y="512.64" style="stroke: #000000; stroke-width: 0.8"/>
      </g>
     </g>
     <g id="text_5">
      <!-- 2000 -->
      <g transform="translate(1030.23426 527.238438) scale(0.1 -0.1)">
       <defs>
        <path id="DejaVuSans-32" d="M 1228 531 
L 3431 531 
L 3431 0 
L 469 0 
L 469 531 
Q 828 903 1448 1529 
Q 2069 2156 2228 2338 
Q 2531 2678 2651 2914 
Q 2772 3150 2772 3378 
Q 2772 3750 2511 3984 
Q 2250 4219 1831 4219 
Q 1534 4219 1204 4116 
Q 875 4013 500 3803 
L 500 4441 
Q 881 4594 1212 4672 
Q 1544 4750 1819 4750 
Q 2544 4750 2975 4387 
Q 3406 4025 3406 3419 
Q 3406 3131 3298 2873 
Q 3191 2616 2906 2266 
Q 2828 2175 2409 1742 
Q 1991 1309 1228 531 
z
" transform="scale(0.015625)"/>
       </defs>
       <use xlink:href="#DejaVuSans-32"/>
       <use xlink:href="#DejaVuSans-30" x="63.623047"/>
       <use xlink:href="#DejaVuSans-30" x="127.246094"/>
       <use xlink:href="#DejaVuSans-30" x="190.869141"/>
      </g>
     </g>
    </g>
    <g id="xtick_6">
     <g id="line2d_6">
      <g>
       <use xlink:href="#ma1b928c6b4" x="1246.265433" y="512.64" style="stroke: #000000; stroke-width: 0.8"/>
      </g>
     </g>
     <g id="text_6">
      <!-- 2500 -->
      <g transform="translate(1233.540433 527.238438) scale(0.1 -0.1)">
       <use xlink:href="#DejaVuSans-32"/>
       <use xlink:href="#DejaVuSans-35" x="63.623047"/>
       <use xlink:href="#DejaVuSans-30" x="127.246094"/>
       <use xlink:href="#DejaVuSans-30" x="190.869141"/>
      </g>
     </g>
    </g>
   </g>
   <g id="matplotlib.axis_2">
    <g id="ytick_1">
     <g id="line2d_7">
      <defs>
       <path id="m5e33239a52" d="M 0 0 
L -3.5 0 
" style="stroke: #000000; stroke-width: 0.8"/>
      </defs>
      <g>
       <use xlink:href="#m5e33239a52" x="180" y="438.33843" style="stroke: #000000; stroke-width: 0.8"/>
      </g>
     </g>
     <g id="text_7">
      <!-- −4 -->
      <g transform="translate(158.257812 442.137649) scale(0.1 -0.1)">
       <defs>
        <path id="DejaVuSans-2212" d="M 678 2272 
L 4684 2272 
L 4684 1741 
L 678 1741 
L 678 2272 
z
" transform="scale(0.015625)"/>
        <path id="DejaVuSans-34" d="M 2419 4116 
L 825 1625 
L 2419 1625 
L 2419 4116 
z
M 2253 4666 
L 3047 4666 
L 3047 1625 
L 3713 1625 
L 3713 1100 
L 3047 1100 
L 3047 0 
L 2419 0 
L 2419 1100 
L 313 1100 
L 313 1709 
L 2253 4666 
z
" transform="scale(0.015625)"/>
       </defs>
       <use xlink:href="#DejaVuSans-2212"/>
       <use xlink:href="#DejaVuSans-34" x="83.789062"/>
      </g>
     </g>
    </g>
    <g id="ytick_2">
     <g id="line2d_8">
      <g>
       <use xlink:href="#m5e33239a52" x="180" y="349.446589" style="stroke: #000000; stroke-width: 0.8"/>
      </g>
     </g>
     <g id="text_8">
      <!-- −2 -->
      <g transform="translate(158.257812 353.245808) scale(0.1 -0.1)">
       <use xlink:href="#DejaVuSans-2212"/>
       <use xlink:href="#DejaVuSans-32" x="83.789062"/>
      </g>
     </g>
    </g>
    <g id="ytick_3">
     <g id="line2d_9">
      <g>
       <use xlink:href="#m5e33239a52" x="180" y="260.554749" style="stroke: #000000; stroke-width: 0.8"/>
      </g>
     </g>
     <g id="text_9">
      <!-- 0 -->
      <g transform="translate(166.6375 264.353968) scale(0.1 -0.1)">
       <use xlink:href="#DejaVuSans-30"/>
      </g>
     </g>
    </g>
    <g id="ytick_4">
     <g id="line2d_10">
      <g>
       <use xlink:href="#m5e33239a52" x="180" y="171.662909" style="stroke: #000000; stroke-width: 0.8"/>
      </g>
     </g>
     <g id="text_10">
      <!-- 2 -->
      <g transform="translate(166.6375 175.462127) scale(0.1 -0.1)">
       <use xlink:href="#DejaVuSans-32"/>
      </g>
     </g>
    </g>
    <g id="ytick_5">
     <g id="line2d_11">
      <g>
       <use xlink:href="#m5e33239a52" x="180" y="82.771068" style="stroke: #000000; stroke-width: 0.8"/>
      </g>
     </g>
     <g id="text_11">
      <!-- 4 -->
      <g transform="translate(166.6375 86.570287) scale(0.1 -0.1)">
       <use xlink:href="#DejaVuSans-34"/>
      </g>
     </g>
    </g>
   </g>
   <g id="line2d_12">
    <path d="M 230.727273 313.189459 
L 231.719979 312.768616 
L 232.712685 311.764958 
L 234.698096 309.311022 
L 235.690802 307.610306 
L 236.683508 305.301021 
L 237.676214 302.527768 
L 238.66892 300.130946 
L 239.661626 296.83941 
L 241.647038 289.126735 
L 242.639744 284.574484 
L 243.63245 278.80292 
L 244.625156 271.878806 
L 245.617862 266.24922 
L 246.610568 262.842999 
L 247.603273 247.792819 
L 249.588685 184.402383 
L 250.581391 162.326858 
L 251.574097 147.005848 
L 252.566803 136.259722 
L 255.544921 107.528668 
L 256.537627 101.636944 
L 257.530333 101.10397 
L 258.523039 106.411013 
L 259.515745 113.306608 
L 260.50845 113.586646 
L 261.501156 111.363965 
L 262.493862 116.809535 
L 263.486568 137.222244 
L 264.479274 175.79312 
L 265.47198 152.758907 
L 266.464686 141.426985 
L 267.457392 152.721886 
L 268.450098 192.961751 
L 269.442804 189.74264 
L 270.43551 166.346453 
L 271.428216 157.004346 
L 273.413627 133.396379 
L 274.406333 124.768164 
L 275.399039 117.685271 
L 276.391745 113.990672 
L 277.384451 118.166684 
L 278.377157 137.913296 
L 279.369863 223.958817 
L 280.362569 140.78105 
L 281.355275 109.341655 
L 282.347981 95.07088 
L 283.340687 89.28 
L 284.333393 90.408515 
L 285.326099 99.419104 
L 287.31151 137.441617 
L 288.304216 113.23337 
L 289.296922 97.68297 
L 290.289628 93.85421 
L 291.282334 99.61208 
L 293.267746 123.22379 
L 294.260452 129.883488 
L 295.253158 139.352913 
L 296.245864 157.324066 
L 297.23857 180.50473 
L 298.231276 196.069439 
L 299.223981 214.606752 
L 300.216687 228.440059 
L 301.209393 223.943886 
L 302.202099 229.10222 
L 303.194805 225.992312 
L 304.187511 218.293926 
L 305.180217 223.608278 
L 306.172923 221.939457 
L 307.165629 213.715321 
L 308.158335 213.39027 
L 309.151041 227.723694 
L 310.143747 244.431209 
L 311.136453 236.66336 
L 312.129159 241.118346 
L 313.121864 269.425644 
L 314.11457 352.867984 
L 315.107276 310.078256 
L 316.099982 319.704459 
L 317.092688 333.075436 
L 318.085394 324.309608 
L 319.0781 329.432486 
L 320.070806 348.80267 
L 321.063512 339.136392 
L 322.056218 342.171291 
L 323.048924 316.754364 
L 324.04163 337.592884 
L 325.034336 346.779979 
L 326.027041 342.816005 
L 327.019747 331.19547 
L 328.012453 333.494657 
L 329.005159 348.211733 
L 329.997865 334.375368 
L 331.983277 332.145067 
L 333.968689 343.546322 
L 334.961395 340.502368 
L 337.939513 358.659293 
L 338.932218 339.38293 
L 339.924924 343.591075 
L 340.91763 334.233673 
L 341.910336 344.454895 
L 342.903042 332.972104 
L 343.895748 350.794088 
L 344.888454 370.878801 
L 345.88116 339.864493 
L 346.873866 346.7001 
L 347.866572 349.058444 
L 348.859278 366.600103 
L 349.851984 364.405812 
L 350.84469 360.623213 
L 351.837395 422.771775 
L 352.830101 344.225023 
L 353.822807 364.456427 
L 354.815513 339.319566 
L 355.808219 326.668179 
L 356.800925 335.785337 
L 357.793631 376.061632 
L 358.786337 359.393902 
L 359.779043 352.569158 
L 360.771749 336.818476 
L 361.764455 355.352184 
L 362.757161 351.50819 
L 363.749867 378.611098 
L 364.742572 355.718514 
L 365.735278 356.529613 
L 366.727984 355.349748 
L 367.72069 343.643243 
L 368.713396 365.152476 
L 369.706102 365.219868 
L 370.698808 369.369996 
L 371.691514 364.185749 
L 372.68422 376.725592 
L 373.676926 365.313851 
L 374.669632 385.803653 
L 375.662338 367.320251 
L 376.655044 353.981349 
L 377.64775 356.829031 
L 378.640455 353.116573 
L 379.633161 368.392951 
L 380.625867 363.879101 
L 381.618573 365.616266 
L 382.611279 391.772597 
L 383.603985 409.14259 
L 384.596691 349.190772 
L 385.589397 366.703668 
L 386.582103 367.894206 
L 387.574809 363.75617 
L 388.567515 368.016698 
L 389.560221 378.913071 
L 390.552927 347.19123 
L 391.545632 381.201083 
L 392.538338 356.285376 
L 393.531044 354.271256 
L 394.52375 363.600655 
L 395.516456 366.179584 
L 396.509162 350.049425 
L 397.501868 362.990359 
L 398.494574 367.858174 
L 399.48728 392.819599 
L 400.479986 373.338254 
L 401.472692 382.452563 
L 402.465398 367.046379 
L 403.458104 385.106196 
L 404.450809 378.562524 
L 405.443515 370.958062 
L 406.436221 394.278122 
L 407.428927 410.79059 
L 408.421633 366.261771 
L 409.414339 431.605061 
L 410.407045 377.286547 
L 411.399751 382.11698 
L 412.392457 368.562254 
L 413.385163 368.028931 
L 414.377869 357.250228 
L 415.370575 369.062497 
L 416.363281 352.816936 
L 418.348692 334.178435 
L 419.341398 378.833587 
L 420.334104 393.093594 
L 421.32681 353.702533 
L 422.319516 369.452008 
L 423.312222 351.741156 
L 424.304928 345.422536 
L 425.297634 355.447621 
L 426.29034 352.053181 
L 427.283046 380.792019 
L 428.275752 415.050425 
L 429.268458 354.318194 
L 430.261163 358.475135 
L 432.246575 391.398457 
L 433.239281 348.541189 
L 434.231987 446.823682 
L 435.224693 449.555214 
L 436.217399 443.191896 
L 437.210105 350.401627 
L 438.202811 431.030766 
L 439.195517 366.382733 
L 440.188223 381.879642 
L 441.180929 376.583007 
L 442.173635 361.277526 
L 443.166341 390.617989 
L 444.159046 398.489861 
L 445.151752 355.573828 
L 446.144458 359.786068 
L 447.137164 373.658809 
L 448.12987 371.274072 
L 450.115282 352.055501 
L 451.107988 368.941477 
L 452.100694 396.096524 
L 453.0934 375.765488 
L 454.086106 382.389794 
L 455.078812 400.505449 
L 456.071518 383.52676 
L 457.064223 408.100469 
L 458.056929 420.187259 
L 459.049635 372.310413 
L 460.042341 396.365099 
L 461.035047 412.547258 
L 462.027753 410.315245 
L 463.020459 375.833851 
L 464.013165 373.717349 
L 465.998577 397.728948 
L 466.991283 437.810254 
L 467.983989 374.992119 
L 468.976695 380.002653 
L 469.9694 423.376973 
L 470.962106 363.301 
L 471.954812 369.943484 
L 472.947518 396.119443 
L 473.940224 364.610742 
L 474.93293 383.389603 
L 475.925636 418.347813 
L 476.918342 365.818271 
L 477.911048 387.819964 
L 478.903754 368.921898 
L 479.89646 460.947385 
L 480.889166 380.488975 
L 481.881872 396.542531 
L 482.874577 386.437407 
L 483.867283 352.955479 
L 484.859989 390.332415 
L 485.852695 359.069259 
L 486.845401 363.485175 
L 487.838107 405.332685 
L 488.830813 362.595788 
L 489.823519 375.721026 
L 490.816225 413.60786 
L 491.808931 404.8084 
L 492.801637 364.02981 
L 493.794343 360.140117 
L 494.787049 371.903248 
L 495.779754 414.066078 
L 496.77246 409.588747 
L 497.765166 379.6716 
L 498.757872 378.587599 
L 499.750578 379.018393 
L 500.743284 378.176689 
L 501.73599 351.699408 
L 502.728696 398.239139 
L 503.721402 400.137965 
L 504.714108 394.866784 
L 505.706814 369.966437 
L 506.69952 392.571212 
L 507.692226 420.535037 
L 508.684932 365.305363 
L 509.677637 492.48 
L 510.670343 341.407489 
L 511.663049 347.826294 
L 512.655755 393.326643 
L 513.648461 400.742112 
L 514.641167 381.612614 
L 515.633873 367.385296 
L 516.626579 372.428434 
L 517.619285 388.406688 
L 518.611991 367.632931 
L 519.604697 370.879196 
L 520.597403 384.748096 
L 521.590109 348.173527 
L 522.582814 350.583093 
L 523.57552 387.936882 
L 524.568226 399.728326 
L 525.560932 360.392988 
L 526.553638 392.185165 
L 527.546344 373.660506 
L 528.53905 361.222762 
L 529.531756 391.030431 
L 530.524462 348.617523 
L 531.517168 395.919984 
L 532.509874 374.463924 
L 533.50258 385.610269 
L 534.495286 365.426515 
L 535.487991 377.441214 
L 537.473403 404.819506 
L 538.466109 369.146676 
L 539.458815 399.526234 
L 540.451521 405.057268 
L 541.444227 347.934525 
L 542.436933 351.008173 
L 543.429639 346.100782 
L 544.422345 421.052931 
L 545.415051 386.355435 
L 546.407757 377.912946 
L 547.400463 362.060307 
L 548.393168 422.57304 
L 549.385874 400.95256 
L 550.37858 408.799901 
L 551.371286 386.636788 
L 552.363992 370.404405 
L 553.356698 396.079053 
L 554.349404 358.371892 
L 555.34211 374.278105 
L 556.334816 426.776002 
L 557.327522 405.911886 
L 558.320228 354.338646 
L 559.312934 380.886862 
L 560.30564 373.82118 
L 561.298345 385.562044 
L 562.291051 409.395398 
L 563.283757 364.740391 
L 565.269169 385.836613 
L 566.261875 391.246235 
L 567.254581 379.232747 
L 568.247287 404.751431 
L 569.239993 400.559222 
L 570.232699 410.010371 
L 571.225405 393.972128 
L 572.218111 428.642533 
L 573.210817 427.492213 
L 574.203523 390.952523 
L 575.196228 431.918872 
L 576.188934 447.397165 
L 577.18164 476.99442 
L 578.174346 367.117758 
L 579.167052 426.766773 
L 580.159758 410.336053 
L 581.152464 409.550092 
L 582.14517 407.87731 
L 583.137876 433.229384 
L 584.130582 366.099834 
L 585.123288 445.524023 
L 586.115994 397.100003 
L 587.1087 390.037837 
L 588.101405 409.805547 
L 589.094111 387.948563 
L 590.086817 380.369208 
L 591.079523 431.731059 
L 592.072229 457.498669 
L 593.064935 397.12862 
L 594.057641 418.077811 
L 595.050347 434.734961 
L 596.043053 406.847866 
L 597.035759 424.897134 
L 599.021171 384.480815 
L 600.013877 418.733167 
L 601.999288 397.871716 
L 602.991994 395.239619 
L 603.9847 440.920932 
L 604.977406 380.837629 
L 605.970112 402.162812 
L 606.962818 414.190779 
L 607.955524 395.992409 
L 608.94823 402.337993 
L 609.940936 407.894053 
L 610.933642 406.994854 
L 611.926348 391.805419 
L 612.919054 425.136232 
L 613.911759 424.387636 
L 614.904465 419.263114 
L 615.897171 385.820959 
L 616.889877 392.690858 
L 617.882583 388.571198 
L 618.875289 399.764238 
L 619.867995 430.274204 
L 620.860701 404.793684 
L 621.853407 404.954489 
L 622.846113 453.055141 
L 623.838819 403.965733 
L 624.831525 436.17078 
L 625.824231 385.882289 
L 626.816936 407.07398 
L 627.809642 413.995322 
L 628.802348 407.742233 
L 629.795054 440.648436 
L 630.78776 416.51548 
L 631.780466 418.54658 
L 632.773172 402.548385 
L 633.765878 403.305477 
L 634.758584 411.235818 
L 635.75129 405.524255 
L 636.743996 410.679207 
L 637.736702 397.670414 
L 638.729408 406.078635 
L 639.722114 401.840738 
L 640.714819 407.935881 
L 641.707525 399.576414 
L 642.700231 412.360578 
L 643.692937 405.21423 
L 644.685643 416.180403 
L 645.678349 412.390848 
L 646.671055 413.051052 
L 647.663761 401.500549 
L 648.656467 417.001892 
L 649.649173 406.440177 
L 650.641879 405.013379 
L 651.634585 414.510782 
L 652.627291 415.08524 
L 653.619996 421.019685 
L 654.612702 415.265582 
L 655.605408 416.98462 
L 656.598114 410.394688 
L 657.59082 410.239601 
L 658.583526 408.65955 
L 659.576232 409.629303 
L 660.568938 426.444947 
L 661.561644 403.189363 
L 662.55435 408.901037 
L 663.547056 409.344255 
L 664.539762 411.286103 
L 665.532468 406.961385 
L 666.525173 407.165826 
L 667.517879 416.035461 
L 668.510585 415.001812 
L 669.503291 411.893231 
L 670.495997 412.297481 
L 671.488703 406.959419 
L 672.481409 414.115676 
L 673.474115 414.971978 
L 674.466821 414.726121 
L 675.459527 412.595951 
L 676.452233 416.671588 
L 677.444939 417.549245 
L 678.437645 412.273176 
L 679.43035 414.635972 
L 680.423056 413.44464 
L 681.415762 416.445267 
L 682.408468 413.52791 
L 683.401174 417.206246 
L 684.39388 413.377684 
L 685.386586 413.778801 
L 686.379292 406.659498 
L 687.371998 409.245652 
L 688.364704 414.15498 
L 689.35741 411.508755 
L 690.350116 411.381462 
L 691.342822 414.091683 
L 693.328233 418.113217 
L 695.313645 412.004169 
L 696.306351 419.182666 
L 697.299057 410.256837 
L 698.291763 414.293256 
L 699.284469 415.648754 
L 700.277175 415.82714 
L 701.269881 415.556721 
L 702.262587 411.602291 
L 703.255293 416.831631 
L 704.247999 415.791434 
L 705.240705 419.349644 
L 706.23341 412.506328 
L 707.226116 419.753582 
L 708.218822 416.771519 
L 709.211528 414.16041 
L 710.204234 413.472498 
L 711.19694 416.705452 
L 712.189646 418.013953 
L 713.182352 416.626788 
L 714.175058 416.573601 
L 715.167764 415.502308 
L 716.16047 417.593511 
L 717.153176 417.777843 
L 718.145882 413.903223 
L 719.138587 412.970318 
L 720.131293 418.575098 
L 721.123999 416.880138 
L 722.116705 415.756945 
L 723.109411 414.406675 
L 724.102117 412.094238 
L 725.094823 418.869788 
L 726.087529 418.418757 
L 727.080235 417.377102 
L 728.072941 417.067877 
L 729.065647 413.59 
L 730.058353 418.697679 
L 731.051059 416.950768 
L 732.043764 420.760983 
L 733.03647 417.069109 
L 734.029176 417.77048 
L 735.021882 418.910715 
L 736.014588 417.000114 
L 737.007294 416.352053 
L 738 416.155566 
L 738.992706 418.638285 
L 739.985412 418.622637 
L 740.978118 416.379226 
L 741.970824 416.749015 
L 742.96353 418.870074 
L 743.956236 418.179341 
L 744.948941 418.863543 
L 745.941647 418.439234 
L 746.934353 417.736799 
L 747.927059 415.872657 
L 748.919765 418.608335 
L 749.912471 420.247848 
L 750.905177 419.626852 
L 751.897883 418.474997 
L 752.890589 417.692402 
L 753.883295 420.189228 
L 755.868707 420.630936 
L 756.861413 422.953357 
L 757.854118 419.415109 
L 758.846824 417.963531 
L 759.83953 422.099311 
L 760.832236 420.348872 
L 761.824942 417.893698 
L 762.817648 419.279723 
L 763.810354 419.935877 
L 764.80306 418.029829 
L 765.795766 416.771673 
L 766.788472 421.347859 
L 768.773884 417.997316 
L 769.76659 420.969034 
L 771.752001 420.730889 
L 772.744707 419.139041 
L 773.737413 419.754795 
L 774.730119 420.808864 
L 775.722825 419.969921 
L 776.715531 421.565938 
L 777.708237 420.820836 
L 778.700943 420.468978 
L 779.693649 421.054241 
L 780.686355 419.115984 
L 781.679061 420.59315 
L 783.664473 421.962397 
L 784.657178 420.857874 
L 785.649884 420.305969 
L 786.64259 421.938134 
L 787.635296 422.071626 
L 788.628002 422.072487 
L 789.620708 421.484467 
L 790.613414 419.93167 
L 791.60612 421.263196 
L 793.591532 421.710057 
L 794.584238 422.216514 
L 795.576944 423.053116 
L 796.56965 422.31412 
L 797.562355 421.921459 
L 798.555061 422.463034 
L 799.547767 425.211835 
L 800.540473 425.510463 
L 801.533179 422.329393 
L 802.525885 422.029679 
L 803.518591 423.677144 
L 804.511297 421.805549 
L 805.504003 416.997908 
L 806.496709 424.716978 
L 807.489415 423.037948 
L 808.482121 422.236287 
L 809.474827 422.376093 
L 810.467532 423.680541 
L 811.460238 422.529134 
L 812.452944 422.773291 
L 813.44565 422.148848 
L 815.431062 421.215039 
L 816.423768 421.388437 
L 817.416474 420.024161 
L 818.40918 423.789691 
L 819.401886 422.080859 
L 820.394592 421.497356 
L 821.387298 421.077954 
L 822.380004 423.566849 
L 823.372709 422.52304 
L 824.365415 422.438648 
L 825.358121 423.800596 
L 826.350827 425.489385 
L 827.343533 422.608811 
L 828.336239 424.043945 
L 829.328945 423.377743 
L 830.321651 424.685464 
L 831.314357 424.612815 
L 833.299769 423.476538 
L 834.292475 423.278807 
L 835.285181 424.563418 
L 836.277886 421.75166 
L 837.270592 422.539257 
L 838.263298 424.287841 
L 839.256004 425.102036 
L 840.24871 422.413028 
L 841.241416 423.536966 
L 842.234122 425.927656 
L 843.226828 424.408912 
L 844.219534 424.488101 
L 845.21224 424.201878 
L 846.204946 423.799585 
L 847.197652 425.010205 
L 848.190358 421.908631 
L 849.183064 422.997142 
L 850.175769 425.528192 
L 851.168475 422.584635 
L 852.161181 424.389559 
L 853.153887 424.490459 
L 854.146593 422.941883 
L 855.139299 425.981036 
L 856.132005 427.921515 
L 857.124711 426.001944 
L 858.117417 425.64697 
L 859.110123 427.994547 
L 860.102829 424.389375 
L 861.095535 425.574491 
L 862.088241 425.550725 
L 863.080946 423.551883 
L 864.073652 424.468036 
L 865.066358 424.537654 
L 866.059064 427.175688 
L 867.05177 424.874292 
L 868.044476 425.221844 
L 869.037182 425.820777 
L 870.029888 424.727834 
L 871.022594 424.683716 
L 872.0153 425.856352 
L 873.008006 428.942467 
L 874.000712 425.745551 
L 874.993418 426.244641 
L 875.986123 424.112523 
L 876.978829 426.915452 
L 877.971535 427.896161 
L 878.964241 427.271978 
L 879.956947 427.342719 
L 880.949653 425.505171 
L 881.942359 428.593218 
L 882.935065 428.325274 
L 883.927771 426.506887 
L 884.920477 426.902471 
L 885.913183 428.194437 
L 886.905889 430.809796 
L 887.898595 426.533535 
L 889.884006 425.888117 
L 890.876712 427.928919 
L 891.869418 426.488245 
L 892.862124 426.665064 
L 893.85483 427.696914 
L 894.847536 428.525287 
L 895.840242 425.109257 
L 896.832948 425.288751 
L 897.825654 427.335979 
L 898.81836 427.496484 
L 899.811066 427.065065 
L 900.803772 426.967228 
L 901.796477 427.596132 
L 902.789183 428.735004 
L 903.781889 428.474807 
L 904.774595 425.765558 
L 905.767301 425.321665 
L 906.760007 427.321996 
L 907.752713 428.413089 
L 908.745419 426.352967 
L 909.738125 427.711307 
L 910.730831 428.833869 
L 911.723537 429.341495 
L 912.716243 426.145827 
L 913.708949 427.615621 
L 914.701655 428.122018 
L 915.69436 424.629431 
L 916.687066 426.983775 
L 917.679772 428.828427 
L 918.672478 426.960328 
L 919.665184 426.498544 
L 920.65789 427.660863 
L 921.650596 428.630336 
L 922.643302 431.01755 
L 923.636008 427.488839 
L 924.628714 431.066535 
L 925.62142 428.434295 
L 927.606832 426.881192 
L 929.592243 429.946622 
L 930.584949 428.542818 
L 931.577655 428.341776 
L 932.570361 427.194654 
L 933.563067 430.355349 
L 934.555773 428.92535 
L 935.548479 428.469762 
L 936.541185 429.822796 
L 937.533891 428.871024 
L 938.526597 429.388028 
L 939.519303 428.559559 
L 940.512009 429.76569 
L 941.504714 427.43092 
L 942.49742 429.122265 
L 943.490126 427.648485 
L 944.482832 426.386747 
L 945.475538 430.40099 
L 946.468244 428.388799 
L 947.46095 430.958909 
L 948.453656 428.452164 
L 949.446362 431.359048 
L 950.439068 429.324342 
L 951.431774 429.478579 
L 952.42448 429.894982 
L 953.417186 430.001225 
L 954.409891 429.401884 
L 955.402597 428.473393 
L 956.395303 431.038801 
L 957.388009 428.588699 
L 958.380715 431.066189 
L 959.373421 430.133874 
L 960.366127 427.751053 
L 961.358833 428.967454 
L 962.351539 429.112773 
L 963.344245 431.212512 
L 964.336951 429.244291 
L 965.329657 428.466583 
L 966.322363 429.368976 
L 967.315068 429.161144 
L 968.307774 429.209436 
L 969.30048 429.125379 
L 970.293186 429.480985 
L 971.285892 430.024038 
L 972.278598 429.469407 
L 973.271304 429.429841 
L 974.26401 431.283731 
L 975.256716 427.028218 
L 976.249422 430.913614 
L 977.242128 431.965775 
L 978.234834 429.035571 
L 979.22754 431.2601 
L 980.220246 431.383764 
L 981.212951 432.398691 
L 982.205657 429.815391 
L 983.198363 426.264152 
L 984.191069 429.48793 
L 985.183775 428.857092 
L 986.176481 428.984272 
L 987.169187 431.671227 
L 988.161893 430.116228 
L 989.154599 428.278332 
L 990.147305 431.867657 
L 991.140011 430.474659 
L 992.132717 430.626786 
L 994.118128 430.633315 
L 995.110834 428.026433 
L 996.10354 429.89543 
L 997.096246 429.289366 
L 999.081658 431.742138 
L 1000.074364 430.153973 
L 1001.06707 431.828002 
L 1002.059776 429.435232 
L 1003.052482 431.602624 
L 1004.045188 430.251319 
L 1005.037894 429.908711 
L 1006.0306 429.920062 
L 1007.023305 426.184276 
L 1008.016011 430.810602 
L 1009.008717 433.646594 
L 1010.001423 429.784047 
L 1010.994129 430.215876 
L 1011.986835 433.321061 
L 1012.979541 431.085091 
L 1013.972247 431.987125 
L 1014.964953 431.006566 
L 1015.957659 431.68842 
L 1016.950365 430.633566 
L 1017.943071 430.980648 
L 1018.935777 432.7391 
L 1019.928482 428.940154 
L 1021.913894 434.035263 
L 1022.9066 431.915385 
L 1023.899306 431.083945 
L 1024.892012 429.845189 
L 1025.884718 431.088046 
L 1026.877424 432.906394 
L 1027.87013 432.195657 
L 1028.862836 430.711073 
L 1029.855542 430.867697 
L 1030.848248 434.172769 
L 1031.840954 432.128577 
L 1032.833659 434.143214 
L 1033.826365 433.356338 
L 1034.819071 436.307566 
L 1035.811777 435.191468 
L 1036.804483 432.724151 
L 1037.797189 430.900735 
L 1038.789895 430.121377 
L 1039.782601 433.944347 
L 1040.775307 429.061725 
L 1041.768013 430.272932 
L 1042.760719 430.196263 
L 1043.753425 431.971421 
L 1044.746131 431.11852 
L 1045.738837 429.385984 
L 1046.731542 432.438907 
L 1047.724248 429.074501 
L 1048.716954 433.418745 
L 1049.70966 432.419841 
L 1050.702366 433.102565 
L 1051.695072 430.020635 
L 1052.687778 431.142103 
L 1053.680484 433.459154 
L 1054.67319 431.056733 
L 1055.665896 433.710726 
L 1056.658602 430.405914 
L 1057.651308 430.97113 
L 1058.644014 431.735412 
L 1059.636719 431.091113 
L 1060.629425 432.521624 
L 1061.622131 434.587083 
L 1062.614837 433.840738 
L 1063.607543 431.594704 
L 1064.600249 431.514613 
L 1065.592955 429.904401 
L 1066.585661 429.902394 
L 1067.578367 431.628295 
L 1069.563779 433.632133 
L 1070.556485 432.46649 
L 1071.549191 435.246207 
L 1072.541896 432.860952 
L 1073.534602 430.8819 
L 1074.527308 433.902158 
L 1075.520014 431.503693 
L 1076.51272 432.232886 
L 1077.505426 434.577826 
L 1078.498132 432.972234 
L 1079.490838 431.03832 
L 1080.483544 432.039299 
L 1081.47625 433.760681 
L 1082.468956 433.829461 
L 1083.461662 433.195101 
L 1084.454368 433.421709 
L 1085.447073 433.043677 
L 1086.439779 431.590815 
L 1087.432485 432.559627 
L 1088.425191 434.658724 
L 1089.417897 431.783959 
L 1090.410603 433.074534 
L 1091.403309 434.772486 
L 1092.396015 434.31049 
L 1093.388721 433.121197 
L 1094.381427 432.897898 
L 1095.374133 434.660087 
L 1096.366839 431.619932 
L 1097.359545 435.975161 
L 1098.35225 431.75163 
L 1099.344956 433.471684 
L 1100.337662 432.5238 
L 1101.330368 430.769471 
L 1102.323074 434.19585 
L 1103.31578 433.142654 
L 1104.308486 434.471649 
L 1105.301192 432.609613 
L 1106.293898 433.204755 
L 1107.286604 433.279788 
L 1108.27931 430.006249 
L 1109.272016 433.858532 
L 1110.264722 433.587524 
L 1111.257428 434.517279 
L 1112.250133 434.026064 
L 1113.242839 434.508813 
L 1114.235545 435.261376 
L 1115.228251 430.0279 
L 1116.220957 432.534778 
L 1117.213663 433.742442 
L 1118.206369 431.778181 
L 1119.199075 433.51743 
L 1120.191781 432.177798 
L 1121.184487 433.234539 
L 1122.177193 432.170436 
L 1123.169899 431.878873 
L 1124.162605 429.22436 
L 1125.15531 429.078273 
L 1127.140722 433.928505 
L 1128.133428 432.076459 
L 1129.126134 433.156722 
L 1130.11884 431.164371 
L 1131.111546 433.464233 
L 1132.104252 432.160902 
L 1133.096958 433.02235 
L 1134.089664 433.562878 
L 1135.08237 431.147767 
L 1136.075076 435.932708 
L 1137.067782 431.277415 
L 1139.053193 433.298861 
L 1140.045899 431.575195 
L 1141.038605 433.349522 
L 1142.031311 431.667487 
L 1143.024017 435.19544 
L 1144.016723 431.339301 
L 1145.009429 431.403317 
L 1146.002135 433.279094 
L 1146.994841 436.607169 
L 1147.987547 434.681183 
L 1148.980253 435.586062 
L 1149.972959 431.952861 
L 1150.965664 432.102377 
L 1151.95837 431.568897 
L 1152.951076 432.039282 
L 1153.943782 436.974435 
L 1154.936488 433.605047 
L 1155.929194 434.558765 
L 1156.9219 433.78064 
L 1157.914606 432.150104 
L 1158.907312 434.325713 
L 1159.900018 430.778066 
L 1160.892724 432.844035 
L 1161.88543 428.786716 
L 1162.878136 435.41699 
L 1163.870841 436.459989 
L 1164.863547 430.951984 
L 1165.856253 432.650436 
L 1166.848959 433.532473 
L 1167.841665 432.679489 
L 1168.834371 433.266831 
L 1169.827077 432.635182 
L 1170.819783 433.779701 
L 1171.812489 435.5116 
L 1172.805195 433.877493 
L 1173.797901 435.551536 
L 1174.790607 432.602616 
L 1175.783313 432.301053 
L 1176.776019 432.175542 
L 1177.768724 435.460814 
L 1178.76143 433.836505 
L 1179.754136 433.641121 
L 1180.746842 432.517471 
L 1181.739548 433.770174 
L 1182.732254 434.602657 
L 1183.72496 435.057249 
L 1184.717666 434.999259 
L 1185.710372 432.759647 
L 1186.703078 436.658595 
L 1187.695784 432.34982 
L 1188.68849 433.493482 
L 1189.681196 431.271461 
L 1190.673901 435.601202 
L 1191.666607 432.530518 
L 1192.659313 433.272924 
L 1193.652019 432.249343 
L 1194.644725 432.563644 
L 1195.637431 433.859967 
L 1196.630137 432.002931 
L 1198.615549 434.458177 
L 1199.608255 436.66615 
L 1200.600961 433.6983 
L 1201.593667 432.655631 
L 1202.586373 435.827887 
L 1203.579078 432.299959 
L 1204.571784 433.464802 
L 1205.56449 432.54798 
L 1206.557196 433.383569 
L 1207.549902 431.903279 
L 1209.535314 436.566383 
L 1210.52802 432.912934 
L 1211.520726 432.806277 
L 1212.513432 432.876672 
L 1213.506138 434.422442 
L 1214.498844 433.480353 
L 1215.49155 434.021847 
L 1217.476961 436.740118 
L 1218.469667 432.332155 
L 1219.462373 433.980412 
L 1220.455079 433.484028 
L 1221.447785 438.952541 
L 1222.440491 438.579628 
L 1224.425903 432.587588 
L 1225.418609 433.743463 
L 1226.411315 434.296057 
L 1227.404021 434.339808 
L 1228.396727 431.914745 
L 1229.389432 433.264326 
L 1230.382138 432.504862 
L 1231.374844 439.253566 
L 1232.36755 434.912512 
L 1233.360256 433.609628 
L 1234.352962 433.772897 
L 1235.345668 434.802853 
L 1236.338374 434.689832 
L 1238.323786 432.763446 
L 1239.316492 435.241788 
L 1240.309198 435.066195 
L 1241.301904 433.729203 
L 1242.29461 434.504373 
L 1243.287315 433.218726 
L 1244.280021 434.128408 
L 1245.272727 435.87802 
L 1245.272727 435.87802 
" clip-path="url(#pff9d0dca1d)" style="fill: none; stroke: #1f77b4; stroke-width: 1.5; stroke-linecap: square"/>
   </g>
   <g id="patch_3">
    <path d="M 180 512.64 
L 180 69.12 
" style="fill: none; stroke: #000000; stroke-width: 0.8; stroke-linejoin: miter; stroke-linecap: square"/>
   </g>
   <g id="patch_4">
    <path d="M 1296 512.64 
L 1296 69.12 
" style="fill: none; stroke: #000000; stroke-width: 0.8; stroke-linejoin: miter; stroke-linecap: square"/>
   </g>
   <g id="patch_5">
    <path d="M 180 512.64 
L 1296 512.64 
" style="fill: none; stroke: #000000; stroke-width: 0.8; stroke-linejoin: miter; stroke-linecap: square"/>
   </g>
   <g id="patch_6">
    <path d="M 180 69.12 
L 1296 69.12 
" style="fill: none; stroke: #000000; stroke-width: 0.8; stroke-linejoin: miter; stroke-linecap: square"/>
   </g>
   <g id="text_12">
    <!-- source6-receiver15 -->
    <g transform="translate(544.9 60.80125) scale(0.4 -0.4)">
     <defs>
      <path id="DejaVuSans-73" d="M 2834 3397 
L 2834 2853 
Q 2591 2978 2328 3040 
Q 2066 3103 1784 3103 
Q 1356 3103 1142 2972 
Q 928 2841 928 2578 
Q 928 2378 1081 2264 
Q 1234 2150 1697 2047 
L 1894 2003 
Q 2506 1872 2764 1633 
Q 3022 1394 3022 966 
Q 3022 478 2636 193 
Q 2250 -91 1575 -91 
Q 1294 -91 989 -36 
Q 684 19 347 128 
L 347 722 
Q 666 556 975 473 
Q 1284 391 1588 391 
Q 1994 391 2212 530 
Q 2431 669 2431 922 
Q 2431 1156 2273 1281 
Q 2116 1406 1581 1522 
L 1381 1569 
Q 847 1681 609 1914 
Q 372 2147 372 2553 
Q 372 3047 722 3315 
Q 1072 3584 1716 3584 
Q 2034 3584 2315 3537 
Q 2597 3491 2834 3397 
z
" transform="scale(0.015625)"/>
      <path id="DejaVuSans-6f" d="M 1959 3097 
Q 1497 3097 1228 2736 
Q 959 2375 959 1747 
Q 959 1119 1226 758 
Q 1494 397 1959 397 
Q 2419 397 2687 759 
Q 2956 1122 2956 1747 
Q 2956 2369 2687 2733 
Q 2419 3097 1959 3097 
z
M 1959 3584 
Q 2709 3584 3137 3096 
Q 3566 2609 3566 1747 
Q 3566 888 3137 398 
Q 2709 -91 1959 -91 
Q 1206 -91 779 398 
Q 353 888 353 1747 
Q 353 2609 779 3096 
Q 1206 3584 1959 3584 
z
" transform="scale(0.015625)"/>
      <path id="DejaVuSans-75" d="M 544 1381 
L 544 3500 
L 1119 3500 
L 1119 1403 
Q 1119 906 1312 657 
Q 1506 409 1894 409 
Q 2359 409 2629 706 
Q 2900 1003 2900 1516 
L 2900 3500 
L 3475 3500 
L 3475 0 
L 2900 0 
L 2900 538 
Q 2691 219 2414 64 
Q 2138 -91 1772 -91 
Q 1169 -91 856 284 
Q 544 659 544 1381 
z
M 1991 3584 
L 1991 3584 
z
" transform="scale(0.015625)"/>
      <path id="DejaVuSans-72" d="M 2631 2963 
Q 2534 3019 2420 3045 
Q 2306 3072 2169 3072 
Q 1681 3072 1420 2755 
Q 1159 2438 1159 1844 
L 1159 0 
L 581 0 
L 581 3500 
L 1159 3500 
L 1159 2956 
Q 1341 3275 1631 3429 
Q 1922 3584 2338 3584 
Q 2397 3584 2469 3576 
Q 2541 3569 2628 3553 
L 2631 2963 
z
" transform="scale(0.015625)"/>
      <path id="DejaVuSans-63" d="M 3122 3366 
L 3122 2828 
Q 2878 2963 2633 3030 
Q 2388 3097 2138 3097 
Q 1578 3097 1268 2742 
Q 959 2388 959 1747 
Q 959 1106 1268 751 
Q 1578 397 2138 397 
Q 2388 397 2633 464 
Q 2878 531 3122 666 
L 3122 134 
Q 2881 22 2623 -34 
Q 2366 -91 2075 -91 
Q 1284 -91 818 406 
Q 353 903 353 1747 
Q 353 2603 823 3093 
Q 1294 3584 2113 3584 
Q 2378 3584 2631 3529 
Q 2884 3475 3122 3366 
z
" transform="scale(0.015625)"/>
      <path id="DejaVuSans-65" d="M 3597 1894 
L 3597 1613 
L 953 1613 
Q 991 1019 1311 708 
Q 1631 397 2203 397 
Q 2534 397 2845 478 
Q 3156 559 3463 722 
L 3463 178 
Q 3153 47 2828 -22 
Q 2503 -91 2169 -91 
Q 1331 -91 842 396 
Q 353 884 353 1716 
Q 353 2575 817 3079 
Q 1281 3584 2069 3584 
Q 2775 3584 3186 3129 
Q 3597 2675 3597 1894 
z
M 3022 2063 
Q 3016 2534 2758 2815 
Q 2500 3097 2075 3097 
Q 1594 3097 1305 2825 
Q 1016 2553 972 2059 
L 3022 2063 
z
" transform="scale(0.015625)"/>
      <path id="DejaVuSans-36" d="M 2113 2584 
Q 1688 2584 1439 2293 
Q 1191 2003 1191 1497 
Q 1191 994 1439 701 
Q 1688 409 2113 409 
Q 2538 409 2786 701 
Q 3034 994 3034 1497 
Q 3034 2003 2786 2293 
Q 2538 2584 2113 2584 
z
M 3366 4563 
L 3366 3988 
Q 3128 4100 2886 4159 
Q 2644 4219 2406 4219 
Q 1781 4219 1451 3797 
Q 1122 3375 1075 2522 
Q 1259 2794 1537 2939 
Q 1816 3084 2150 3084 
Q 2853 3084 3261 2657 
Q 3669 2231 3669 1497 
Q 3669 778 3244 343 
Q 2819 -91 2113 -91 
Q 1303 -91 875 529 
Q 447 1150 447 2328 
Q 447 3434 972 4092 
Q 1497 4750 2381 4750 
Q 2619 4750 2861 4703 
Q 3103 4656 3366 4563 
z
" transform="scale(0.015625)"/>
      <path id="DejaVuSans-2d" d="M 313 2009 
L 1997 2009 
L 1997 1497 
L 313 1497 
L 313 2009 
z
" transform="scale(0.015625)"/>
      <path id="DejaVuSans-69" d="M 603 3500 
L 1178 3500 
L 1178 0 
L 603 0 
L 603 3500 
z
M 603 4863 
L 1178 4863 
L 1178 4134 
L 603 4134 
L 603 4863 
z
" transform="scale(0.015625)"/>
      <path id="DejaVuSans-76" d="M 191 3500 
L 800 3500 
L 1894 563 
L 2988 3500 
L 3597 3500 
L 2284 0 
L 1503 0 
L 191 3500 
z
" transform="scale(0.015625)"/>
     </defs>
     <use xlink:href="#DejaVuSans-73"/>
     <use xlink:href="#DejaVuSans-6f" x="52.099609"/>
     <use xlink:href="#DejaVuSans-75" x="113.28125"/>
     <use xlink:href="#DejaVuSans-72" x="176.660156"/>
     <use xlink:href="#DejaVuSans-63" x="215.523438"/>
     <use xlink:href="#DejaVuSans-65" x="270.503906"/>
     <use xlink:href="#DejaVuSans-36" x="332.027344"/>
     <use xlink:href="#DejaVuSans-2d" x="395.650391"/>
     <use xlink:href="#DejaVuSans-72" x="431.734375"/>
     <use xlink:href="#DejaVuSans-65" x="470.597656"/>
     <use xlink:href="#DejaVuSans-63" x="532.121094"/>
     <use xlink:href="#DejaVuSans-65" x="587.101562"/>
     <use xlink:href="#DejaVuSans-69" x="648.625"/>
     <use xlink:href="#DejaVuSans-76" x="676.408203"/>
     <use xlink:href="#DejaVuSans-65" x="735.587891"/>
     <use xlink:href="#DejaVuSans-72" x="797.111328"/>
     <use xlink:href="#DejaVuSans-31" x="838.224609"/>
     <use xlink:href="#DejaVuSans-35" x="901.847656"/>
    </g>
   </g>
  </g>
 </g>
 <defs>
  <clipPath id="pff9d0dca1d">
   <rect x="180" y="69.12" width="1116" height="443.52"/>
  </clipPath>
 </defs>
</svg>
