<?xml version="1.0" encoding="utf-8" standalone="no"?>
<!DOCTYPE svg PUBLIC "-//W3C//DTD SVG 1.1//EN"
  "http://www.w3.org/Graphics/SVG/1.1/DTD/svg11.dtd">
<svg xmlns:xlink="http://www.w3.org/1999/xlink" width="1440pt" height="576pt" viewBox="0 0 1440 576" xmlns="http://www.w3.org/2000/svg" version="1.1">
 <metadata>
  <rdf:RDF xmlns:dc="http://purl.org/dc/elements/1.1/" xmlns:cc="http://creativecommons.org/ns#" xmlns:rdf="http://www.w3.org/1999/02/22-rdf-syntax-ns#">
   <cc:Work>
    <dc:type rdf:resource="http://purl.org/dc/dcmitype/StillImage"/>
    <dc:date>2024-05-22T04:49:50.204110</dc:date>
    <dc:format>image/svg+xml</dc:format>
    <dc:creator>
     <cc:Agent>
      <dc:title>Matplotlib v3.8.3, https://matplotlib.org/</dc:title>
     </cc:Agent>
    </dc:creator>
   </cc:Work>
  </rdf:RDF>
 </metadata>
 <defs>
  <style type="text/css">*{stroke-linejoin: round; stroke-linecap: butt}</style>
 </defs>
 <g id="figure_1">
  <g id="patch_1">
   <path d="M 0 576 
L 1440 576 
L 1440 0 
L 0 0 
z
" style="fill: #ffffff"/>
  </g>
  <g id="axes_1">
   <g id="patch_2">
    <path d="M 180 512.64 
L 1296 512.64 
L 1296 69.12 
L 180 69.12 
z
" style="fill: #ffffff"/>
   </g>
   <g id="matplotlib.axis_1">
    <g id="xtick_1">
     <g id="line2d_1">
      <defs>
       <path id="m027089bec9" d="M 0 0 
L 0 3.5 
" style="stroke: #000000; stroke-width: 0.8"/>
      </defs>
      <g>
       <use xlink:href="#m027089bec9" x="229.734567" y="512.64" style="stroke: #000000; stroke-width: 0.8"/>
      </g>
     </g>
     <g id="text_1">
      <!-- 0 -->
      <g transform="translate(226.553317 527.238438) scale(0.1 -0.1)">
       <defs>
        <path id="DejaVuSans-30" d="M 2034 4250 
Q 1547 4250 1301 3770 
Q 1056 3291 1056 2328 
Q 1056 1369 1301 889 
Q 1547 409 2034 409 
Q 2525 409 2770 889 
Q 3016 1369 3016 2328 
Q 3016 3291 2770 3770 
Q 2525 4250 2034 4250 
z
M 2034 4750 
Q 2819 4750 3233 4129 
Q 3647 3509 3647 2328 
Q 3647 1150 3233 529 
Q 2819 -91 2034 -91 
Q 1250 -91 836 529 
Q 422 1150 422 2328 
Q 422 3509 836 4129 
Q 1250 4750 2034 4750 
z
" transform="scale(0.015625)"/>
       </defs>
       <use xlink:href="#DejaVuSans-30"/>
      </g>
     </g>
    </g>
    <g id="xtick_2">
     <g id="line2d_2">
      <g>
       <use xlink:href="#m027089bec9" x="433.04074" y="512.64" style="stroke: #000000; stroke-width: 0.8"/>
      </g>
     </g>
     <g id="text_2">
      <!-- 500 -->
      <g transform="translate(423.49699 527.238438) scale(0.1 -0.1)">
       <defs>
        <path id="DejaVuSans-35" d="M 691 4666 
L 3169 4666 
L 3169 4134 
L 1269 4134 
L 1269 2991 
Q 1406 3038 1543 3061 
Q 1681 3084 1819 3084 
Q 2600 3084 3056 2656 
Q 3513 2228 3513 1497 
Q 3513 744 3044 326 
Q 2575 -91 1722 -91 
Q 1428 -91 1123 -41 
Q 819 9 494 109 
L 494 744 
Q 775 591 1075 516 
Q 1375 441 1709 441 
Q 2250 441 2565 725 
Q 2881 1009 2881 1497 
Q 2881 1984 2565 2268 
Q 2250 2553 1709 2553 
Q 1456 2553 1204 2497 
Q 953 2441 691 2322 
L 691 4666 
z
" transform="scale(0.015625)"/>
       </defs>
       <use xlink:href="#DejaVuSans-35"/>
       <use xlink:href="#DejaVuSans-30" x="63.623047"/>
       <use xlink:href="#DejaVuSans-30" x="127.246094"/>
      </g>
     </g>
    </g>
    <g id="xtick_3">
     <g id="line2d_3">
      <g>
       <use xlink:href="#m027089bec9" x="636.346913" y="512.64" style="stroke: #000000; stroke-width: 0.8"/>
      </g>
     </g>
     <g id="text_3">
      <!-- 1000 -->
      <g transform="translate(623.621913 527.238438) scale(0.1 -0.1)">
       <defs>
        <path id="DejaVuSans-31" d="M 794 531 
L 1825 531 
L 1825 4091 
L 703 3866 
L 703 4441 
L 1819 4666 
L 2450 4666 
L 2450 531 
L 3481 531 
L 3481 0 
L 794 0 
L 794 531 
z
" transform="scale(0.015625)"/>
       </defs>
       <use xlink:href="#DejaVuSans-31"/>
       <use xlink:href="#DejaVuSans-30" x="63.623047"/>
       <use xlink:href="#DejaVuSans-30" x="127.246094"/>
       <use xlink:href="#DejaVuSans-30" x="190.869141"/>
      </g>
     </g>
    </g>
    <g id="xtick_4">
     <g id="line2d_4">
      <g>
       <use xlink:href="#m027089bec9" x="839.653087" y="512.64" style="stroke: #000000; stroke-width: 0.8"/>
      </g>
     </g>
     <g id="text_4">
      <!-- 1500 -->
      <g transform="translate(826.928087 527.238438) scale(0.1 -0.1)">
       <use xlink:href="#DejaVuSans-31"/>
       <use xlink:href="#DejaVuSans-35" x="63.623047"/>
       <use xlink:href="#DejaVuSans-30" x="127.246094"/>
       <use xlink:href="#DejaVuSans-30" x="190.869141"/>
      </g>
     </g>
    </g>
    <g id="xtick_5">
     <g id="line2d_5">
      <g>
       <use xlink:href="#m027089bec9" x="1042.95926" y="512.64" style="stroke: #000000; stroke-width: 0.8"/>
      </g>
     </g>
     <g id="text_5">
      <!-- 2000 -->
      <g transform="translate(1030.23426 527.238438) scale(0.1 -0.1)">
       <defs>
        <path id="DejaVuSans-32" d="M 1228 531 
L 3431 531 
L 3431 0 
L 469 0 
L 469 531 
Q 828 903 1448 1529 
Q 2069 2156 2228 2338 
Q 2531 2678 2651 2914 
Q 2772 3150 2772 3378 
Q 2772 3750 2511 3984 
Q 2250 4219 1831 4219 
Q 1534 4219 1204 4116 
Q 875 4013 500 3803 
L 500 4441 
Q 881 4594 1212 4672 
Q 1544 4750 1819 4750 
Q 2544 4750 2975 4387 
Q 3406 4025 3406 3419 
Q 3406 3131 3298 2873 
Q 3191 2616 2906 2266 
Q 2828 2175 2409 1742 
Q 1991 1309 1228 531 
z
" transform="scale(0.015625)"/>
       </defs>
       <use xlink:href="#DejaVuSans-32"/>
       <use xlink:href="#DejaVuSans-30" x="63.623047"/>
       <use xlink:href="#DejaVuSans-30" x="127.246094"/>
       <use xlink:href="#DejaVuSans-30" x="190.869141"/>
      </g>
     </g>
    </g>
    <g id="xtick_6">
     <g id="line2d_6">
      <g>
       <use xlink:href="#m027089bec9" x="1246.265433" y="512.64" style="stroke: #000000; stroke-width: 0.8"/>
      </g>
     </g>
     <g id="text_6">
      <!-- 2500 -->
      <g transform="translate(1233.540433 527.238438) scale(0.1 -0.1)">
       <use xlink:href="#DejaVuSans-32"/>
       <use xlink:href="#DejaVuSans-35" x="63.623047"/>
       <use xlink:href="#DejaVuSans-30" x="127.246094"/>
       <use xlink:href="#DejaVuSans-30" x="190.869141"/>
      </g>
     </g>
    </g>
   </g>
   <g id="matplotlib.axis_2">
    <g id="ytick_1">
     <g id="line2d_7">
      <defs>
       <path id="mf05e053467" d="M 0 0 
L -3.5 0 
" style="stroke: #000000; stroke-width: 0.8"/>
      </defs>
      <g>
       <use xlink:href="#mf05e053467" x="180" y="450.377127" style="stroke: #000000; stroke-width: 0.8"/>
      </g>
     </g>
     <g id="text_7">
      <!-- −4 -->
      <g transform="translate(158.257812 454.176346) scale(0.1 -0.1)">
       <defs>
        <path id="DejaVuSans-2212" d="M 678 2272 
L 4684 2272 
L 4684 1741 
L 678 1741 
L 678 2272 
z
" transform="scale(0.015625)"/>
        <path id="DejaVuSans-34" d="M 2419 4116 
L 825 1625 
L 2419 1625 
L 2419 4116 
z
M 2253 4666 
L 3047 4666 
L 3047 1625 
L 3713 1625 
L 3713 1100 
L 3047 1100 
L 3047 0 
L 2419 0 
L 2419 1100 
L 313 1100 
L 313 1709 
L 2253 4666 
z
" transform="scale(0.015625)"/>
       </defs>
       <use xlink:href="#DejaVuSans-2212"/>
       <use xlink:href="#DejaVuSans-34" x="83.789062"/>
      </g>
     </g>
    </g>
    <g id="ytick_2">
     <g id="line2d_8">
      <g>
       <use xlink:href="#mf05e053467" x="180" y="367.177575" style="stroke: #000000; stroke-width: 0.8"/>
      </g>
     </g>
     <g id="text_8">
      <!-- −2 -->
      <g transform="translate(158.257812 370.976794) scale(0.1 -0.1)">
       <use xlink:href="#DejaVuSans-2212"/>
       <use xlink:href="#DejaVuSans-32" x="83.789062"/>
      </g>
     </g>
    </g>
    <g id="ytick_3">
     <g id="line2d_9">
      <g>
       <use xlink:href="#mf05e053467" x="180" y="283.978024" style="stroke: #000000; stroke-width: 0.8"/>
      </g>
     </g>
     <g id="text_9">
      <!-- 0 -->
      <g transform="translate(166.6375 287.777243) scale(0.1 -0.1)">
       <use xlink:href="#DejaVuSans-30"/>
      </g>
     </g>
    </g>
    <g id="ytick_4">
     <g id="line2d_10">
      <g>
       <use xlink:href="#mf05e053467" x="180" y="200.778472" style="stroke: #000000; stroke-width: 0.8"/>
      </g>
     </g>
     <g id="text_10">
      <!-- 2 -->
      <g transform="translate(166.6375 204.577691) scale(0.1 -0.1)">
       <use xlink:href="#DejaVuSans-32"/>
      </g>
     </g>
    </g>
    <g id="ytick_5">
     <g id="line2d_11">
      <g>
       <use xlink:href="#mf05e053467" x="180" y="117.578921" style="stroke: #000000; stroke-width: 0.8"/>
      </g>
     </g>
     <g id="text_11">
      <!-- 4 -->
      <g transform="translate(166.6375 121.37814) scale(0.1 -0.1)">
       <use xlink:href="#DejaVuSans-34"/>
      </g>
     </g>
    </g>
   </g>
   <g id="line2d_12">
    <path d="M 230.727273 351.020173 
L 231.719979 350.049164 
L 232.712685 349.440782 
L 233.70539 347.843328 
L 234.698096 345.887889 
L 235.690802 343.551417 
L 237.676214 337.323536 
L 239.661626 329.023354 
L 241.647038 318.866469 
L 242.639744 312.899564 
L 243.63245 305.946696 
L 244.625156 298.20139 
L 245.617862 293.255645 
L 246.610568 286.755286 
L 247.603273 267.017315 
L 248.595979 253.468877 
L 249.588685 267.906884 
L 250.581391 244.195329 
L 251.574097 203.608294 
L 252.566803 190.849025 
L 253.559509 208.382492 
L 254.552215 228.498762 
L 255.544921 179.008914 
L 256.537627 173.910454 
L 257.530333 208.395548 
L 258.523039 200.748464 
L 259.515745 178.02159 
L 260.50845 194.600123 
L 261.501156 246.451324 
L 262.493862 221.633604 
L 263.486568 170.031826 
L 264.479274 153.00902 
L 265.47198 171.333667 
L 266.464686 199.145359 
L 267.457392 150.456861 
L 268.450098 156.129707 
L 269.442804 206.098662 
L 270.43551 171.15475 
L 271.428216 189.997908 
L 272.420922 197.066858 
L 273.413627 161.667126 
L 274.406333 161.580922 
L 275.399039 156.461471 
L 276.391745 162.434297 
L 277.384451 143.011891 
L 278.377157 121.327183 
L 280.362569 124.357596 
L 281.355275 104.012082 
L 282.347981 97.943344 
L 283.340687 108.038585 
L 284.333393 103.917412 
L 285.326099 89.28 
L 286.318804 89.357205 
L 287.31151 100.250637 
L 289.296922 109.671612 
L 291.282334 147.125877 
L 292.27504 153.426778 
L 293.267746 166.559404 
L 294.260452 169.071637 
L 295.253158 192.151952 
L 296.245864 206.72713 
L 297.23857 188.471743 
L 298.231276 218.160644 
L 299.223981 221.703425 
L 300.216687 218.099026 
L 301.209393 260.160004 
L 302.202099 245.47556 
L 303.194805 252.707166 
L 304.187511 232.559389 
L 305.180217 243.068777 
L 306.172923 327.721492 
L 307.165629 270.619009 
L 308.158335 333.801134 
L 309.151041 279.612256 
L 310.143747 292.766122 
L 311.136453 321.653278 
L 312.129159 287.33017 
L 313.121864 310.955384 
L 314.11457 307.589723 
L 315.107276 314.002449 
L 316.099982 311.764413 
L 317.092688 319.327582 
L 318.085394 318.307506 
L 319.0781 319.020141 
L 320.070806 327.230035 
L 321.063512 319.283472 
L 322.056218 321.194219 
L 323.048924 325.435424 
L 324.04163 321.7073 
L 325.034336 327.787607 
L 326.027041 321.484359 
L 328.012453 332.710297 
L 329.005159 336.561011 
L 329.997865 334.504584 
L 330.990571 330.374598 
L 331.983277 336.306355 
L 332.975983 332.204006 
L 333.968689 327.346389 
L 334.961395 346.551522 
L 335.954101 331.422764 
L 336.946807 335.612633 
L 337.939513 364.559236 
L 338.932218 331.387549 
L 339.924924 334.054587 
L 340.91763 352.260262 
L 341.910336 339.831175 
L 342.903042 344.193647 
L 343.895748 352.655476 
L 344.888454 342.944168 
L 345.88116 339.697944 
L 346.873866 352.979348 
L 347.866572 349.269253 
L 348.859278 348.223489 
L 349.851984 350.422988 
L 350.84469 355.310703 
L 351.837395 351.91212 
L 352.830101 352.425563 
L 353.822807 359.52763 
L 354.815513 346.884185 
L 355.808219 345.475541 
L 356.800925 359.680866 
L 357.793631 349.836545 
L 358.786337 392.744372 
L 359.779043 359.04051 
L 360.771749 351.474851 
L 361.764455 366.976292 
L 362.757161 373.832326 
L 363.749867 357.443456 
L 364.742572 354.423764 
L 365.735278 359.472788 
L 366.727984 376.175001 
L 367.72069 352.881269 
L 368.713396 368.137923 
L 369.706102 375.747677 
L 370.698808 369.047434 
L 371.691514 355.631693 
L 372.68422 365.797193 
L 373.676926 352.75107 
L 374.669632 357.879554 
L 375.662338 353.395544 
L 376.655044 360.391467 
L 377.64775 385.523658 
L 378.640455 363.441395 
L 379.633161 363.739414 
L 380.625867 387.728111 
L 381.618573 359.325743 
L 382.611279 363.570499 
L 383.603985 363.309201 
L 384.596691 406.998748 
L 385.589397 360.69121 
L 386.582103 365.118218 
L 387.574809 370.982175 
L 388.567515 368.263024 
L 389.560221 418.780409 
L 390.552927 355.139045 
L 391.545632 363.212363 
L 392.538338 363.162873 
L 393.531044 376.168801 
L 394.52375 369.974406 
L 395.516456 362.996688 
L 396.509162 368.218353 
L 397.501868 379.46386 
L 398.494574 377.899134 
L 399.48728 374.154771 
L 400.479986 374.493708 
L 401.472692 388.435558 
L 402.465398 393.775061 
L 403.458104 396.690006 
L 404.450809 360.67651 
L 405.443515 364.651644 
L 406.436221 409.9959 
L 407.428927 396.851916 
L 408.421633 364.065086 
L 409.414339 393.49444 
L 410.407045 386.160072 
L 411.399751 382.192515 
L 412.392457 426.045511 
L 413.385163 376.223637 
L 414.377869 369.241583 
L 415.370575 368.798003 
L 416.363281 369.214102 
L 418.348692 446.680214 
L 419.341398 365.731276 
L 420.334104 376.164156 
L 421.32681 428.612208 
L 422.319516 395.417674 
L 423.312222 385.092712 
L 425.297634 375.842499 
L 426.29034 361.460071 
L 427.283046 384.193971 
L 428.275752 378.35026 
L 429.268458 392.579601 
L 430.261163 395.431735 
L 431.253869 370.411278 
L 432.246575 358.639552 
L 433.239281 384.277485 
L 434.231987 388.628299 
L 435.224693 378.581911 
L 436.217399 379.608948 
L 437.210105 393.258753 
L 438.202811 382.151593 
L 439.195517 366.780084 
L 440.188223 391.633101 
L 441.180929 448.616348 
L 442.173635 461.002234 
L 443.166341 400.595427 
L 444.159046 403.07396 
L 446.144458 391.658094 
L 447.137164 368.933925 
L 448.12987 410.642033 
L 449.122576 408.6865 
L 450.115282 398.145221 
L 452.100694 385.483172 
L 453.0934 398.518302 
L 454.086106 382.515369 
L 455.078812 375.256833 
L 456.071518 388.549549 
L 457.064223 411.985701 
L 458.056929 382.362669 
L 459.049635 400.204183 
L 460.042341 397.787879 
L 461.035047 427.569561 
L 462.027753 396.292905 
L 463.020459 391.998417 
L 464.013165 414.523361 
L 465.005871 388.352743 
L 465.998577 388.248886 
L 466.991283 397.880205 
L 467.983989 413.156425 
L 468.976695 443.89474 
L 469.9694 391.528167 
L 470.962106 440.276752 
L 471.954812 393.461769 
L 472.947518 406.409914 
L 473.940224 414.38728 
L 474.93293 388.375413 
L 475.925636 374.137083 
L 476.918342 403.012652 
L 477.911048 392.978625 
L 478.903754 404.75213 
L 479.89646 370.700945 
L 480.889166 414.405137 
L 481.881872 388.012272 
L 482.874577 384.748574 
L 483.867283 416.73854 
L 484.859989 389.731985 
L 485.852695 396.8776 
L 487.838107 423.686137 
L 488.830813 439.828593 
L 489.823519 391.427366 
L 490.816225 386.887227 
L 491.808931 393.496925 
L 492.801637 406.322736 
L 493.794343 409.750748 
L 494.787049 437.376611 
L 495.779754 388.358873 
L 496.77246 375.413955 
L 497.765166 393.828449 
L 498.757872 420.243095 
L 499.750578 389.775125 
L 500.743284 388.559444 
L 501.73599 388.822759 
L 502.728696 434.455824 
L 503.721402 381.176581 
L 504.714108 376.735319 
L 505.706814 383.41634 
L 506.69952 391.965401 
L 507.692226 406.154645 
L 508.684932 379.126032 
L 509.677637 393.332569 
L 510.670343 376.417856 
L 511.663049 425.47028 
L 512.655755 399.150622 
L 513.648461 413.573432 
L 514.641167 399.459946 
L 515.633873 473.529479 
L 516.626579 401.227885 
L 517.619285 388.942856 
L 518.611991 391.940081 
L 519.604697 401.151212 
L 520.597403 413.688036 
L 521.590109 374.097198 
L 522.582814 401.138038 
L 523.57552 384.809735 
L 524.568226 397.605931 
L 525.560932 403.988926 
L 526.553638 413.085072 
L 527.546344 408.39217 
L 528.53905 374.317248 
L 529.531756 464.053812 
L 530.524462 476.569868 
L 531.517168 406.114393 
L 532.509874 393.633961 
L 533.50258 403.006767 
L 534.495286 410.752054 
L 535.487991 391.895189 
L 536.480697 392.264488 
L 537.473403 391.443957 
L 538.466109 407.504775 
L 539.458815 399.762173 
L 540.451521 436.960204 
L 541.444227 410.902246 
L 542.436933 435.652732 
L 543.429639 388.424009 
L 544.422345 390.044615 
L 545.415051 409.980824 
L 546.407757 387.857964 
L 547.400463 492.48 
L 548.393168 431.267113 
L 549.385874 418.157924 
L 550.37858 389.885976 
L 551.371286 465.050966 
L 552.363992 404.958812 
L 553.356698 405.687523 
L 554.349404 403.978895 
L 555.34211 408.263709 
L 556.334816 414.125748 
L 557.327522 408.832437 
L 558.320228 412.171527 
L 559.312934 421.228455 
L 560.30564 418.003518 
L 561.298345 395.33709 
L 562.291051 394.28999 
L 563.283757 444.364049 
L 564.276463 405.368865 
L 565.269169 413.583169 
L 566.261875 416.415611 
L 567.254581 386.323619 
L 568.247287 416.135853 
L 569.239993 406.618648 
L 570.232699 401.279097 
L 571.225405 483.748331 
L 572.218111 423.156052 
L 573.210817 422.351683 
L 574.203523 385.30492 
L 575.196228 393.254951 
L 576.188934 396.317311 
L 577.18164 393.968006 
L 578.174346 437.25136 
L 579.167052 389.771228 
L 580.159758 385.731644 
L 581.152464 403.327596 
L 582.14517 405.008709 
L 583.137876 430.568789 
L 585.123288 390.692573 
L 586.115994 463.361423 
L 587.1087 412.218893 
L 588.101405 381.962657 
L 589.094111 400.147107 
L 590.086817 421.67007 
L 591.079523 405.355001 
L 593.064935 413.487109 
L 594.057641 414.975396 
L 595.050347 445.958178 
L 597.035759 419.230983 
L 598.028465 433.100081 
L 599.021171 410.692204 
L 600.013877 417.591171 
L 601.006582 398.593264 
L 601.999288 436.375603 
L 602.991994 412.690696 
L 603.9847 406.843107 
L 604.977406 407.867886 
L 605.970112 428.312938 
L 606.962818 419.124135 
L 607.955524 429.291914 
L 608.94823 424.65119 
L 609.940936 409.27302 
L 610.933642 423.744933 
L 611.926348 414.794079 
L 612.919054 413.848795 
L 613.911759 403.88146 
L 614.904465 430.301521 
L 615.897171 418.72465 
L 616.889877 414.222373 
L 617.882583 412.808635 
L 618.875289 424.460605 
L 619.867995 428.809008 
L 620.860701 454.367926 
L 621.853407 434.470992 
L 622.846113 411.298775 
L 623.838819 427.819486 
L 624.831525 420.213345 
L 625.824231 419.291838 
L 626.816936 422.565754 
L 627.809642 426.390444 
L 628.802348 420.883445 
L 629.795054 429.171232 
L 630.78776 427.662527 
L 631.780466 428.21058 
L 632.773172 436.350857 
L 633.765878 431.157132 
L 634.758584 426.666797 
L 635.75129 438.178068 
L 636.743996 425.757377 
L 637.736702 434.959802 
L 638.729408 416.861074 
L 639.722114 429.890684 
L 640.714819 427.733733 
L 641.707525 433.886754 
L 642.700231 419.117097 
L 643.692937 425.760223 
L 644.685643 415.09165 
L 645.678349 417.938722 
L 646.671055 428.366576 
L 647.663761 417.421733 
L 648.656467 426.300995 
L 649.649173 427.943442 
L 650.641879 427.411906 
L 651.634585 425.817624 
L 652.627291 422.827174 
L 653.619996 433.817477 
L 654.612702 440.327214 
L 655.605408 426.469578 
L 656.598114 427.577723 
L 657.59082 420.500426 
L 658.583526 424.452672 
L 659.576232 437.910425 
L 660.568938 429.347441 
L 661.561644 434.130314 
L 662.55435 414.782971 
L 663.547056 430.722912 
L 664.539762 427.570363 
L 665.532468 428.586459 
L 666.525173 425.119961 
L 667.517879 423.452702 
L 668.510585 436.032687 
L 669.503291 426.966136 
L 670.495997 432.586998 
L 671.488703 424.398859 
L 672.481409 421.784294 
L 673.474115 419.718882 
L 674.466821 429.723082 
L 675.459527 431.561341 
L 676.452233 426.031925 
L 677.444939 436.294723 
L 678.437645 426.356589 
L 679.43035 431.814746 
L 680.423056 425.770822 
L 681.415762 428.599442 
L 682.408468 428.076979 
L 683.401174 431.817274 
L 684.39388 434.53757 
L 685.386586 425.511813 
L 686.379292 432.979893 
L 687.371998 429.602496 
L 688.364704 428.573818 
L 689.35741 428.499322 
L 690.350116 431.492471 
L 691.342822 431.263838 
L 692.335527 433.349765 
L 693.328233 430.217019 
L 694.320939 430.64425 
L 695.313645 429.605702 
L 696.306351 425.900824 
L 697.299057 431.166245 
L 698.291763 427.863408 
L 700.277175 431.785886 
L 701.269881 429.673184 
L 702.262587 431.397929 
L 703.255293 430.698807 
L 704.247999 434.208988 
L 705.240705 431.968907 
L 706.23341 433.360862 
L 707.226116 430.798422 
L 708.218822 433.465641 
L 709.211528 432.118083 
L 710.204234 430.217918 
L 711.19694 428.015691 
L 712.189646 433.064833 
L 713.182352 429.539864 
L 714.175058 429.309635 
L 715.167764 432.944517 
L 716.16047 433.974722 
L 717.153176 429.480697 
L 718.145882 433.746823 
L 719.138587 434.361903 
L 720.131293 430.090094 
L 721.123999 434.627297 
L 722.116705 432.652465 
L 723.109411 432.270447 
L 724.102117 434.289064 
L 725.094823 434.072523 
L 726.087529 433.300597 
L 727.080235 431.631456 
L 728.072941 432.511089 
L 729.065647 430.535603 
L 731.051059 434.721455 
L 732.043764 430.56884 
L 733.03647 431.539947 
L 734.029176 431.38382 
L 735.021882 433.916663 
L 736.014588 432.406567 
L 737.007294 437.689283 
L 738 431.734439 
L 738.992706 432.513643 
L 739.985412 433.900668 
L 740.978118 432.609504 
L 741.970824 433.373347 
L 742.96353 432.763313 
L 743.956236 435.676689 
L 744.948941 435.115889 
L 745.941647 434.158567 
L 746.934353 436.082733 
L 747.927059 434.983656 
L 748.919765 431.141988 
L 749.912471 433.032612 
L 750.905177 433.974535 
L 751.897883 436.159314 
L 752.890589 433.86593 
L 753.883295 435.379023 
L 754.876001 435.605983 
L 755.868707 433.997394 
L 756.861413 435.266081 
L 757.854118 434.656116 
L 758.846824 436.684303 
L 759.83953 433.928414 
L 760.832236 434.603261 
L 761.824942 437.037341 
L 762.817648 434.256346 
L 763.810354 433.045393 
L 764.80306 435.867025 
L 765.795766 434.569037 
L 766.788472 435.278254 
L 767.781178 437.055091 
L 768.773884 435.661612 
L 769.76659 436.608251 
L 770.759295 435.196033 
L 771.752001 436.35939 
L 772.744707 435.601157 
L 773.737413 435.545495 
L 774.730119 436.27512 
L 775.722825 435.596467 
L 776.715531 436.209906 
L 777.708237 433.724193 
L 778.700943 434.781259 
L 779.693649 438.184861 
L 780.686355 438.467233 
L 781.679061 433.625531 
L 782.671767 434.752886 
L 783.664473 438.051739 
L 784.657178 435.287208 
L 785.649884 436.073816 
L 786.64259 434.692863 
L 787.635296 437.583238 
L 788.628002 435.572718 
L 789.620708 434.549024 
L 790.613414 435.88173 
L 791.60612 435.999617 
L 792.598826 436.350614 
L 793.591532 436.088037 
L 794.584238 437.036977 
L 795.576944 437.541515 
L 796.56965 438.266382 
L 797.562355 437.882127 
L 798.555061 433.840814 
L 799.547767 436.760211 
L 800.540473 438.059677 
L 801.533179 434.88529 
L 802.525885 438.002686 
L 803.518591 438.10581 
L 804.511297 437.455632 
L 805.504003 438.507581 
L 806.496709 437.502817 
L 807.489415 434.826797 
L 808.482121 438.523139 
L 810.467532 438.743772 
L 811.460238 439.669487 
L 813.44565 438.736155 
L 814.438356 438.746173 
L 815.431062 439.372356 
L 816.423768 440.288541 
L 817.416474 437.174721 
L 818.40918 437.998672 
L 819.401886 440.196346 
L 820.394592 438.370726 
L 821.387298 441.169154 
L 822.380004 441.778131 
L 823.372709 437.133232 
L 824.365415 440.180581 
L 826.350827 436.912957 
L 827.343533 439.331239 
L 828.336239 439.876052 
L 829.328945 436.660336 
L 830.321651 439.419454 
L 831.314357 438.973032 
L 832.307063 440.236694 
L 833.299769 440.117726 
L 834.292475 440.203121 
L 835.285181 441.068808 
L 836.277886 438.39886 
L 837.270592 441.766505 
L 838.263298 440.095962 
L 839.256004 440.38972 
L 840.24871 438.389838 
L 841.241416 439.6051 
L 842.234122 438.307118 
L 843.226828 439.249251 
L 844.219534 439.26701 
L 845.21224 441.102953 
L 846.204946 438.217063 
L 847.197652 440.313224 
L 848.190358 441.930884 
L 849.183064 438.162436 
L 850.175769 439.24953 
L 851.168475 444.40101 
L 852.161181 440.735906 
L 853.153887 441.506458 
L 854.146593 438.319786 
L 855.139299 439.67824 
L 856.132005 438.217291 
L 857.124711 440.210825 
L 858.117417 438.507807 
L 859.110123 442.998172 
L 861.095535 440.445132 
L 862.088241 440.319945 
L 863.080946 443.415811 
L 864.073652 439.866413 
L 865.066358 441.468549 
L 866.059064 439.598943 
L 867.05177 439.657769 
L 868.044476 438.932277 
L 869.037182 441.422688 
L 870.029888 443.170209 
L 871.022594 439.591776 
L 872.0153 442.626945 
L 873.008006 444.454687 
L 874.000712 440.006286 
L 874.993418 442.075355 
L 875.986123 441.931378 
L 877.971535 441.871843 
L 878.964241 441.638387 
L 879.956947 442.635567 
L 880.949653 443.2523 
L 881.942359 439.802017 
L 882.935065 442.640915 
L 883.927771 441.636613 
L 884.920477 443.251155 
L 885.913183 441.772955 
L 886.905889 440.780886 
L 887.898595 441.200106 
L 888.8913 441.480325 
L 889.884006 440.617483 
L 890.876712 442.821766 
L 891.869418 445.32963 
L 892.862124 442.689151 
L 893.85483 444.052626 
L 894.847536 439.572733 
L 895.840242 441.907082 
L 896.832948 443.462409 
L 897.825654 442.143197 
L 899.811066 443.716317 
L 900.803772 441.684427 
L 901.796477 443.613144 
L 902.789183 444.037802 
L 903.781889 442.74276 
L 904.774595 443.321472 
L 905.767301 441.686766 
L 906.760007 445.149339 
L 907.752713 445.491282 
L 909.738125 441.518164 
L 910.730831 444.65048 
L 911.723537 443.561121 
L 912.716243 441.162568 
L 913.708949 442.120067 
L 914.701655 442.344249 
L 915.69436 441.349064 
L 916.687066 444.031461 
L 917.679772 441.639263 
L 918.672478 443.231731 
L 919.665184 443.244638 
L 920.65789 442.352137 
L 921.650596 443.60891 
L 922.643302 443.662174 
L 923.636008 444.50371 
L 924.628714 441.43543 
L 925.62142 442.515621 
L 926.614126 446.447386 
L 927.606832 442.71252 
L 928.599537 444.893851 
L 929.592243 444.33402 
L 930.584949 444.361518 
L 931.577655 444.243444 
L 932.570361 442.954307 
L 933.563067 444.393314 
L 934.555773 441.505102 
L 935.548479 443.830585 
L 936.541185 443.291674 
L 937.533891 445.069642 
L 938.526597 445.278065 
L 939.519303 441.470093 
L 940.512009 443.659077 
L 941.504714 442.907347 
L 942.49742 444.081312 
L 943.490126 447.228151 
L 944.482832 442.818046 
L 945.475538 444.447321 
L 946.468244 444.663028 
L 947.46095 444.149732 
L 948.453656 441.821678 
L 949.446362 447.196403 
L 950.439068 445.556066 
L 951.431774 444.508671 
L 952.42448 444.028843 
L 953.417186 446.661523 
L 954.409891 442.333945 
L 955.402597 445.982359 
L 956.395303 445.574317 
L 957.388009 444.260046 
L 958.380715 445.675848 
L 960.366127 444.100044 
L 961.358833 445.49803 
L 962.351539 444.412449 
L 963.344245 445.649385 
L 964.336951 443.587164 
L 966.322363 445.991091 
L 967.315068 444.953378 
L 968.307774 443.350083 
L 969.30048 445.378389 
L 970.293186 444.41384 
L 971.285892 444.16461 
L 972.278598 446.051321 
L 973.271304 446.595444 
L 974.26401 445.334557 
L 975.256716 445.574045 
L 976.249422 445.605972 
L 977.242128 446.09499 
L 978.234834 446.367153 
L 979.22754 444.428063 
L 980.220246 443.948372 
L 981.212951 445.610272 
L 982.205657 445.262034 
L 983.198363 444.681354 
L 984.191069 446.154285 
L 985.183775 446.537783 
L 986.176481 447.398913 
L 987.169187 445.103394 
L 988.161893 445.170803 
L 989.154599 443.55682 
L 990.147305 445.146635 
L 991.140011 447.63703 
L 992.132717 445.783906 
L 993.125423 448.176869 
L 994.118128 444.526023 
L 995.110834 445.399617 
L 996.10354 446.623393 
L 997.096246 446.817084 
L 998.088952 443.691172 
L 999.081658 446.390905 
L 1000.074364 447.278151 
L 1001.06707 444.76516 
L 1002.059776 444.166913 
L 1003.052482 445.402533 
L 1004.045188 444.873246 
L 1005.037894 446.836958 
L 1006.0306 446.678151 
L 1007.023305 445.763969 
L 1008.016011 443.591565 
L 1009.008717 444.666625 
L 1010.001423 446.780954 
L 1010.994129 444.348281 
L 1011.986835 445.549445 
L 1012.979541 445.807839 
L 1014.964953 443.121792 
L 1015.957659 447.080229 
L 1016.950365 446.121823 
L 1017.943071 445.431603 
L 1018.935777 446.795872 
L 1019.928482 446.266673 
L 1020.921188 443.177166 
L 1021.913894 448.054647 
L 1022.9066 445.623364 
L 1023.899306 445.870963 
L 1024.892012 444.645116 
L 1025.884718 447.322504 
L 1026.877424 449.083691 
L 1027.87013 449.144004 
L 1028.862836 445.166692 
L 1029.855542 450.02378 
L 1030.848248 448.083567 
L 1031.840954 444.785522 
L 1032.833659 448.953067 
L 1033.826365 447.828596 
L 1035.811777 446.966729 
L 1036.804483 445.2269 
L 1037.797189 447.663248 
L 1038.789895 445.710885 
L 1039.782601 447.298231 
L 1040.775307 446.203947 
L 1041.768013 446.15726 
L 1042.760719 445.065734 
L 1043.753425 448.211344 
L 1044.746131 446.154854 
L 1045.738837 446.813217 
L 1046.731542 444.713345 
L 1047.724248 448.238122 
L 1048.716954 449.738849 
L 1049.70966 444.82473 
L 1050.702366 449.193589 
L 1051.695072 451.147189 
L 1052.687778 446.071833 
L 1053.680484 445.353501 
L 1054.67319 448.781286 
L 1055.665896 448.897308 
L 1056.658602 447.961566 
L 1057.651308 445.494303 
L 1058.644014 448.589306 
L 1059.636719 445.988416 
L 1061.622131 447.509537 
L 1062.614837 450.006668 
L 1063.607543 445.917235 
L 1064.600249 445.704308 
L 1065.592955 446.85727 
L 1066.585661 444.495549 
L 1067.578367 447.739677 
L 1068.571073 447.92554 
L 1069.563779 447.076235 
L 1070.556485 448.028119 
L 1071.549191 448.491026 
L 1072.541896 447.363785 
L 1073.534602 444.8089 
L 1074.527308 443.624328 
L 1075.520014 447.586571 
L 1076.51272 448.53866 
L 1077.505426 447.42463 
L 1078.498132 447.503607 
L 1079.490838 445.264834 
L 1080.483544 447.412441 
L 1081.47625 445.396939 
L 1082.468956 445.92798 
L 1083.461662 445.854245 
L 1084.454368 448.590347 
L 1085.447073 451.901858 
L 1087.432485 447.276481 
L 1088.425191 446.695764 
L 1089.417897 447.746348 
L 1090.410603 444.854094 
L 1091.403309 445.373696 
L 1092.396015 447.766396 
L 1093.388721 446.898271 
L 1094.381427 450.952652 
L 1095.374133 445.655557 
L 1096.366839 449.09813 
L 1097.359545 447.498857 
L 1098.35225 448.033932 
L 1099.344956 447.090613 
L 1100.337662 445.816369 
L 1101.330368 448.353534 
L 1102.323074 448.597603 
L 1103.31578 448.484695 
L 1104.308486 448.972345 
L 1106.293898 448.407857 
L 1107.286604 450.24813 
L 1108.27931 449.367895 
L 1109.272016 449.483898 
L 1110.264722 450.400894 
L 1111.257428 449.007371 
L 1112.250133 446.740895 
L 1113.242839 449.144571 
L 1114.235545 448.281976 
L 1115.228251 446.715368 
L 1116.220957 450.946267 
L 1117.213663 449.448266 
L 1118.206369 449.52385 
L 1119.199075 449.192693 
L 1120.191781 446.890411 
L 1121.184487 450.225488 
L 1122.177193 446.287183 
L 1123.169899 446.06897 
L 1124.162605 449.194624 
L 1125.15531 448.098363 
L 1126.148016 447.443531 
L 1127.140722 449.300416 
L 1128.133428 446.836255 
L 1130.11884 447.305701 
L 1131.111546 447.78848 
L 1132.104252 449.633546 
L 1133.096958 447.447704 
L 1134.089664 448.518293 
L 1135.08237 451.159096 
L 1136.075076 449.694207 
L 1137.067782 447.970226 
L 1138.060487 450.662697 
L 1139.053193 447.073515 
L 1140.045899 449.230432 
L 1141.038605 447.633683 
L 1142.031311 447.858653 
L 1143.024017 449.172825 
L 1144.016723 447.193823 
L 1145.009429 447.675322 
L 1146.002135 450.346287 
L 1146.994841 447.226546 
L 1147.987547 448.712417 
L 1148.980253 447.275765 
L 1149.972959 448.943972 
L 1150.965664 450.201453 
L 1151.95837 447.892499 
L 1152.951076 448.535549 
L 1153.943782 444.635311 
L 1154.936488 447.830621 
L 1155.929194 448.34161 
L 1156.9219 449.871806 
L 1157.914606 448.123397 
L 1158.907312 449.427245 
L 1159.900018 449.087887 
L 1160.892724 448.502059 
L 1161.88543 449.127966 
L 1162.878136 451.252201 
L 1163.870841 451.004581 
L 1164.863547 450.221091 
L 1165.856253 450.094128 
L 1166.848959 451.033363 
L 1167.841665 449.492619 
L 1168.834371 444.346195 
L 1169.827077 447.45525 
L 1170.819783 446.560445 
L 1171.812489 446.809726 
L 1172.805195 451.906882 
L 1173.797901 449.084493 
L 1174.790607 447.479959 
L 1175.783313 450.845916 
L 1176.776019 446.88628 
L 1177.768724 449.561055 
L 1178.76143 448.747385 
L 1179.754136 449.494533 
L 1180.746842 449.723671 
L 1181.739548 449.643599 
L 1182.732254 449.437191 
L 1184.717666 449.364226 
L 1185.710372 446.849187 
L 1186.703078 448.23822 
L 1187.695784 446.242058 
L 1188.68849 450.840132 
L 1189.681196 449.008489 
L 1190.673901 450.418768 
L 1191.666607 448.801227 
L 1192.659313 448.835447 
L 1193.652019 446.362064 
L 1194.644725 449.649641 
L 1195.637431 446.954201 
L 1196.630137 448.877765 
L 1197.622843 447.640437 
L 1198.615549 447.843621 
L 1199.608255 448.726306 
L 1200.600961 446.840673 
L 1201.593667 445.947182 
L 1202.586373 451.335425 
L 1203.579078 452.053777 
L 1204.571784 450.230452 
L 1205.56449 448.708008 
L 1206.557196 446.524452 
L 1207.549902 450.202478 
L 1208.542608 449.624203 
L 1209.535314 450.061602 
L 1210.52802 449.510943 
L 1211.520726 450.293728 
L 1212.513432 448.695428 
L 1213.506138 447.778209 
L 1214.498844 446.515953 
L 1215.49155 452.699953 
L 1216.484255 452.096857 
L 1217.476961 449.977736 
L 1218.469667 450.993675 
L 1219.462373 452.205914 
L 1220.455079 444.779703 
L 1221.447785 452.549135 
L 1222.440491 451.081213 
L 1223.433197 447.61933 
L 1224.425903 447.25599 
L 1225.418609 448.403777 
L 1226.411315 449.063957 
L 1227.404021 448.503184 
L 1228.396727 445.17128 
L 1230.382138 451.695373 
L 1231.374844 445.116869 
L 1232.36755 447.925869 
L 1233.360256 449.815256 
L 1234.352962 448.431678 
L 1235.345668 449.910665 
L 1236.338374 448.36666 
L 1237.33108 448.481161 
L 1238.323786 446.64678 
L 1239.316492 449.713431 
L 1240.309198 448.045679 
L 1241.301904 447.485627 
L 1242.29461 448.396135 
L 1243.287315 447.267153 
L 1244.280021 449.111391 
L 1245.272727 451.942123 
L 1245.272727 451.942123 
" clip-path="url(#pf7ad780f7b)" style="fill: none; stroke: #1f77b4; stroke-width: 1.5; stroke-linecap: square"/>
   </g>
   <g id="patch_3">
    <path d="M 180 512.64 
L 180 69.12 
" style="fill: none; stroke: #000000; stroke-width: 0.8; stroke-linejoin: miter; stroke-linecap: square"/>
   </g>
   <g id="patch_4">
    <path d="M 1296 512.64 
L 1296 69.12 
" style="fill: none; stroke: #000000; stroke-width: 0.8; stroke-linejoin: miter; stroke-linecap: square"/>
   </g>
   <g id="patch_5">
    <path d="M 180 512.64 
L 1296 512.64 
" style="fill: none; stroke: #000000; stroke-width: 0.8; stroke-linejoin: miter; stroke-linecap: square"/>
   </g>
   <g id="patch_6">
    <path d="M 180 69.12 
L 1296 69.12 
" style="fill: none; stroke: #000000; stroke-width: 0.8; stroke-linejoin: miter; stroke-linecap: square"/>
   </g>
   <g id="text_12">
    <!-- source6-receiver19 -->
    <g transform="translate(544.9 60.80125) scale(0.4 -0.4)">
     <defs>
      <path id="DejaVuSans-73" d="M 2834 3397 
L 2834 2853 
Q 2591 2978 2328 3040 
Q 2066 3103 1784 3103 
Q 1356 3103 1142 2972 
Q 928 2841 928 2578 
Q 928 2378 1081 2264 
Q 1234 2150 1697 2047 
L 1894 2003 
Q 2506 1872 2764 1633 
Q 3022 1394 3022 966 
Q 3022 478 2636 193 
Q 2250 -91 1575 -91 
Q 1294 -91 989 -36 
Q 684 19 347 128 
L 347 722 
Q 666 556 975 473 
Q 1284 391 1588 391 
Q 1994 391 2212 530 
Q 2431 669 2431 922 
Q 2431 1156 2273 1281 
Q 2116 1406 1581 1522 
L 1381 1569 
Q 847 1681 609 1914 
Q 372 2147 372 2553 
Q 372 3047 722 3315 
Q 1072 3584 1716 3584 
Q 2034 3584 2315 3537 
Q 2597 3491 2834 3397 
z
" transform="scale(0.015625)"/>
      <path id="DejaVuSans-6f" d="M 1959 3097 
Q 1497 3097 1228 2736 
Q 959 2375 959 1747 
Q 959 1119 1226 758 
Q 1494 397 1959 397 
Q 2419 397 2687 759 
Q 2956 1122 2956 1747 
Q 2956 2369 2687 2733 
Q 2419 3097 1959 3097 
z
M 1959 3584 
Q 2709 3584 3137 3096 
Q 3566 2609 3566 1747 
Q 3566 888 3137 398 
Q 2709 -91 1959 -91 
Q 1206 -91 779 398 
Q 353 888 353 1747 
Q 353 2609 779 3096 
Q 1206 3584 1959 3584 
z
" transform="scale(0.015625)"/>
      <path id="DejaVuSans-75" d="M 544 1381 
L 544 3500 
L 1119 3500 
L 1119 1403 
Q 1119 906 1312 657 
Q 1506 409 1894 409 
Q 2359 409 2629 706 
Q 2900 1003 2900 1516 
L 2900 3500 
L 3475 3500 
L 3475 0 
L 2900 0 
L 2900 538 
Q 2691 219 2414 64 
Q 2138 -91 1772 -91 
Q 1169 -91 856 284 
Q 544 659 544 1381 
z
M 1991 3584 
L 1991 3584 
z
" transform="scale(0.015625)"/>
      <path id="DejaVuSans-72" d="M 2631 2963 
Q 2534 3019 2420 3045 
Q 2306 3072 2169 3072 
Q 1681 3072 1420 2755 
Q 1159 2438 1159 1844 
L 1159 0 
L 581 0 
L 581 3500 
L 1159 3500 
L 1159 2956 
Q 1341 3275 1631 3429 
Q 1922 3584 2338 3584 
Q 2397 3584 2469 3576 
Q 2541 3569 2628 3553 
L 2631 2963 
z
" transform="scale(0.015625)"/>
      <path id="DejaVuSans-63" d="M 3122 3366 
L 3122 2828 
Q 2878 2963 2633 3030 
Q 2388 3097 2138 3097 
Q 1578 3097 1268 2742 
Q 959 2388 959 1747 
Q 959 1106 1268 751 
Q 1578 397 2138 397 
Q 2388 397 2633 464 
Q 2878 531 3122 666 
L 3122 134 
Q 2881 22 2623 -34 
Q 2366 -91 2075 -91 
Q 1284 -91 818 406 
Q 353 903 353 1747 
Q 353 2603 823 3093 
Q 1294 3584 2113 3584 
Q 2378 3584 2631 3529 
Q 2884 3475 3122 3366 
z
" transform="scale(0.015625)"/>
      <path id="DejaVuSans-65" d="M 3597 1894 
L 3597 1613 
L 953 1613 
Q 991 1019 1311 708 
Q 1631 397 2203 397 
Q 2534 397 2845 478 
Q 3156 559 3463 722 
L 3463 178 
Q 3153 47 2828 -22 
Q 2503 -91 2169 -91 
Q 1331 -91 842 396 
Q 353 884 353 1716 
Q 353 2575 817 3079 
Q 1281 3584 2069 3584 
Q 2775 3584 3186 3129 
Q 3597 2675 3597 1894 
z
M 3022 2063 
Q 3016 2534 2758 2815 
Q 2500 3097 2075 3097 
Q 1594 3097 1305 2825 
Q 1016 2553 972 2059 
L 3022 2063 
z
" transform="scale(0.015625)"/>
      <path id="DejaVuSans-36" d="M 2113 2584 
Q 1688 2584 1439 2293 
Q 1191 2003 1191 1497 
Q 1191 994 1439 701 
Q 1688 409 2113 409 
Q 2538 409 2786 701 
Q 3034 994 3034 1497 
Q 3034 2003 2786 2293 
Q 2538 2584 2113 2584 
z
M 3366 4563 
L 3366 3988 
Q 3128 4100 2886 4159 
Q 2644 4219 2406 4219 
Q 1781 4219 1451 3797 
Q 1122 3375 1075 2522 
Q 1259 2794 1537 2939 
Q 1816 3084 2150 3084 
Q 2853 3084 3261 2657 
Q 3669 2231 3669 1497 
Q 3669 778 3244 343 
Q 2819 -91 2113 -91 
Q 1303 -91 875 529 
Q 447 1150 447 2328 
Q 447 3434 972 4092 
Q 1497 4750 2381 4750 
Q 2619 4750 2861 4703 
Q 3103 4656 3366 4563 
z
" transform="scale(0.015625)"/>
      <path id="DejaVuSans-2d" d="M 313 2009 
L 1997 2009 
L 1997 1497 
L 313 1497 
L 313 2009 
z
" transform="scale(0.015625)"/>
      <path id="DejaVuSans-69" d="M 603 3500 
L 1178 3500 
L 1178 0 
L 603 0 
L 603 3500 
z
M 603 4863 
L 1178 4863 
L 1178 4134 
L 603 4134 
L 603 4863 
z
" transform="scale(0.015625)"/>
      <path id="DejaVuSans-76" d="M 191 3500 
L 800 3500 
L 1894 563 
L 2988 3500 
L 3597 3500 
L 2284 0 
L 1503 0 
L 191 3500 
z
" transform="scale(0.015625)"/>
      <path id="DejaVuSans-39" d="M 703 97 
L 703 672 
Q 941 559 1184 500 
Q 1428 441 1663 441 
Q 2288 441 2617 861 
Q 2947 1281 2994 2138 
Q 2813 1869 2534 1725 
Q 2256 1581 1919 1581 
Q 1219 1581 811 2004 
Q 403 2428 403 3163 
Q 403 3881 828 4315 
Q 1253 4750 1959 4750 
Q 2769 4750 3195 4129 
Q 3622 3509 3622 2328 
Q 3622 1225 3098 567 
Q 2575 -91 1691 -91 
Q 1453 -91 1209 -44 
Q 966 3 703 97 
z
M 1959 2075 
Q 2384 2075 2632 2365 
Q 2881 2656 2881 3163 
Q 2881 3666 2632 3958 
Q 2384 4250 1959 4250 
Q 1534 4250 1286 3958 
Q 1038 3666 1038 3163 
Q 1038 2656 1286 2365 
Q 1534 2075 1959 2075 
z
" transform="scale(0.015625)"/>
     </defs>
     <use xlink:href="#DejaVuSans-73"/>
     <use xlink:href="#DejaVuSans-6f" x="52.099609"/>
     <use xlink:href="#DejaVuSans-75" x="113.28125"/>
     <use xlink:href="#DejaVuSans-72" x="176.660156"/>
     <use xlink:href="#DejaVuSans-63" x="215.523438"/>
     <use xlink:href="#DejaVuSans-65" x="270.503906"/>
     <use xlink:href="#DejaVuSans-36" x="332.027344"/>
     <use xlink:href="#DejaVuSans-2d" x="395.650391"/>
     <use xlink:href="#DejaVuSans-72" x="431.734375"/>
     <use xlink:href="#DejaVuSans-65" x="470.597656"/>
     <use xlink:href="#DejaVuSans-63" x="532.121094"/>
     <use xlink:href="#DejaVuSans-65" x="587.101562"/>
     <use xlink:href="#DejaVuSans-69" x="648.625"/>
     <use xlink:href="#DejaVuSans-76" x="676.408203"/>
     <use xlink:href="#DejaVuSans-65" x="735.587891"/>
     <use xlink:href="#DejaVuSans-72" x="797.111328"/>
     <use xlink:href="#DejaVuSans-31" x="838.224609"/>
     <use xlink:href="#DejaVuSans-39" x="901.847656"/>
    </g>
   </g>
  </g>
 </g>
 <defs>
  <clipPath id="pf7ad780f7b">
   <rect x="180" y="69.12" width="1116" height="443.52"/>
  </clipPath>
 </defs>
</svg>
