<?xml version="1.0" encoding="utf-8" standalone="no"?>
<!DOCTYPE svg PUBLIC "-//W3C//DTD SVG 1.1//EN"
  "http://www.w3.org/Graphics/SVG/1.1/DTD/svg11.dtd">
<svg xmlns:xlink="http://www.w3.org/1999/xlink" width="1440pt" height="576pt" viewBox="0 0 1440 576" xmlns="http://www.w3.org/2000/svg" version="1.1">
 <metadata>
  <rdf:RDF xmlns:dc="http://purl.org/dc/elements/1.1/" xmlns:cc="http://creativecommons.org/ns#" xmlns:rdf="http://www.w3.org/1999/02/22-rdf-syntax-ns#">
   <cc:Work>
    <dc:type rdf:resource="http://purl.org/dc/dcmitype/StillImage"/>
    <dc:date>2024-05-22T04:49:50.557655</dc:date>
    <dc:format>image/svg+xml</dc:format>
    <dc:creator>
     <cc:Agent>
      <dc:title>Matplotlib v3.8.3, https://matplotlib.org/</dc:title>
     </cc:Agent>
    </dc:creator>
   </cc:Work>
  </rdf:RDF>
 </metadata>
 <defs>
  <style type="text/css">*{stroke-linejoin: round; stroke-linecap: butt}</style>
 </defs>
 <g id="figure_1">
  <g id="patch_1">
   <path d="M 0 576 
L 1440 576 
L 1440 0 
L 0 0 
z
" style="fill: #ffffff"/>
  </g>
  <g id="axes_1">
   <g id="patch_2">
    <path d="M 180 512.64 
L 1296 512.64 
L 1296 69.12 
L 180 69.12 
z
" style="fill: #ffffff"/>
   </g>
   <g id="matplotlib.axis_1">
    <g id="xtick_1">
     <g id="line2d_1">
      <defs>
       <path id="mcef5e458ec" d="M 0 0 
L 0 3.5 
" style="stroke: #000000; stroke-width: 0.8"/>
      </defs>
      <g>
       <use xlink:href="#mcef5e458ec" x="229.734567" y="512.64" style="stroke: #000000; stroke-width: 0.8"/>
      </g>
     </g>
     <g id="text_1">
      <!-- 0 -->
      <g transform="translate(226.553317 527.238438) scale(0.1 -0.1)">
       <defs>
        <path id="DejaVuSans-30" d="M 2034 4250 
Q 1547 4250 1301 3770 
Q 1056 3291 1056 2328 
Q 1056 1369 1301 889 
Q 1547 409 2034 409 
Q 2525 409 2770 889 
Q 3016 1369 3016 2328 
Q 3016 3291 2770 3770 
Q 2525 4250 2034 4250 
z
M 2034 4750 
Q 2819 4750 3233 4129 
Q 3647 3509 3647 2328 
Q 3647 1150 3233 529 
Q 2819 -91 2034 -91 
Q 1250 -91 836 529 
Q 422 1150 422 2328 
Q 422 3509 836 4129 
Q 1250 4750 2034 4750 
z
" transform="scale(0.015625)"/>
       </defs>
       <use xlink:href="#DejaVuSans-30"/>
      </g>
     </g>
    </g>
    <g id="xtick_2">
     <g id="line2d_2">
      <g>
       <use xlink:href="#mcef5e458ec" x="433.04074" y="512.64" style="stroke: #000000; stroke-width: 0.8"/>
      </g>
     </g>
     <g id="text_2">
      <!-- 500 -->
      <g transform="translate(423.49699 527.238438) scale(0.1 -0.1)">
       <defs>
        <path id="DejaVuSans-35" d="M 691 4666 
L 3169 4666 
L 3169 4134 
L 1269 4134 
L 1269 2991 
Q 1406 3038 1543 3061 
Q 1681 3084 1819 3084 
Q 2600 3084 3056 2656 
Q 3513 2228 3513 1497 
Q 3513 744 3044 326 
Q 2575 -91 1722 -91 
Q 1428 -91 1123 -41 
Q 819 9 494 109 
L 494 744 
Q 775 591 1075 516 
Q 1375 441 1709 441 
Q 2250 441 2565 725 
Q 2881 1009 2881 1497 
Q 2881 1984 2565 2268 
Q 2250 2553 1709 2553 
Q 1456 2553 1204 2497 
Q 953 2441 691 2322 
L 691 4666 
z
" transform="scale(0.015625)"/>
       </defs>
       <use xlink:href="#DejaVuSans-35"/>
       <use xlink:href="#DejaVuSans-30" x="63.623047"/>
       <use xlink:href="#DejaVuSans-30" x="127.246094"/>
      </g>
     </g>
    </g>
    <g id="xtick_3">
     <g id="line2d_3">
      <g>
       <use xlink:href="#mcef5e458ec" x="636.346913" y="512.64" style="stroke: #000000; stroke-width: 0.8"/>
      </g>
     </g>
     <g id="text_3">
      <!-- 1000 -->
      <g transform="translate(623.621913 527.238438) scale(0.1 -0.1)">
       <defs>
        <path id="DejaVuSans-31" d="M 794 531 
L 1825 531 
L 1825 4091 
L 703 3866 
L 703 4441 
L 1819 4666 
L 2450 4666 
L 2450 531 
L 3481 531 
L 3481 0 
L 794 0 
L 794 531 
z
" transform="scale(0.015625)"/>
       </defs>
       <use xlink:href="#DejaVuSans-31"/>
       <use xlink:href="#DejaVuSans-30" x="63.623047"/>
       <use xlink:href="#DejaVuSans-30" x="127.246094"/>
       <use xlink:href="#DejaVuSans-30" x="190.869141"/>
      </g>
     </g>
    </g>
    <g id="xtick_4">
     <g id="line2d_4">
      <g>
       <use xlink:href="#mcef5e458ec" x="839.653087" y="512.64" style="stroke: #000000; stroke-width: 0.8"/>
      </g>
     </g>
     <g id="text_4">
      <!-- 1500 -->
      <g transform="translate(826.928087 527.238438) scale(0.1 -0.1)">
       <use xlink:href="#DejaVuSans-31"/>
       <use xlink:href="#DejaVuSans-35" x="63.623047"/>
       <use xlink:href="#DejaVuSans-30" x="127.246094"/>
       <use xlink:href="#DejaVuSans-30" x="190.869141"/>
      </g>
     </g>
    </g>
    <g id="xtick_5">
     <g id="line2d_5">
      <g>
       <use xlink:href="#mcef5e458ec" x="1042.95926" y="512.64" style="stroke: #000000; stroke-width: 0.8"/>
      </g>
     </g>
     <g id="text_5">
      <!-- 2000 -->
      <g transform="translate(1030.23426 527.238438) scale(0.1 -0.1)">
       <defs>
        <path id="DejaVuSans-32" d="M 1228 531 
L 3431 531 
L 3431 0 
L 469 0 
L 469 531 
Q 828 903 1448 1529 
Q 2069 2156 2228 2338 
Q 2531 2678 2651 2914 
Q 2772 3150 2772 3378 
Q 2772 3750 2511 3984 
Q 2250 4219 1831 4219 
Q 1534 4219 1204 4116 
Q 875 4013 500 3803 
L 500 4441 
Q 881 4594 1212 4672 
Q 1544 4750 1819 4750 
Q 2544 4750 2975 4387 
Q 3406 4025 3406 3419 
Q 3406 3131 3298 2873 
Q 3191 2616 2906 2266 
Q 2828 2175 2409 1742 
Q 1991 1309 1228 531 
z
" transform="scale(0.015625)"/>
       </defs>
       <use xlink:href="#DejaVuSans-32"/>
       <use xlink:href="#DejaVuSans-30" x="63.623047"/>
       <use xlink:href="#DejaVuSans-30" x="127.246094"/>
       <use xlink:href="#DejaVuSans-30" x="190.869141"/>
      </g>
     </g>
    </g>
    <g id="xtick_6">
     <g id="line2d_6">
      <g>
       <use xlink:href="#mcef5e458ec" x="1246.265433" y="512.64" style="stroke: #000000; stroke-width: 0.8"/>
      </g>
     </g>
     <g id="text_6">
      <!-- 2500 -->
      <g transform="translate(1233.540433 527.238438) scale(0.1 -0.1)">
       <use xlink:href="#DejaVuSans-32"/>
       <use xlink:href="#DejaVuSans-35" x="63.623047"/>
       <use xlink:href="#DejaVuSans-30" x="127.246094"/>
       <use xlink:href="#DejaVuSans-30" x="190.869141"/>
      </g>
     </g>
    </g>
   </g>
   <g id="matplotlib.axis_2">
    <g id="ytick_1">
     <g id="line2d_7">
      <defs>
       <path id="m5b1fdab2df" d="M 0 0 
L -3.5 0 
" style="stroke: #000000; stroke-width: 0.8"/>
      </defs>
      <g>
       <use xlink:href="#m5b1fdab2df" x="180" y="493.461426" style="stroke: #000000; stroke-width: 0.8"/>
      </g>
     </g>
     <g id="text_7">
      <!-- −3 -->
      <g transform="translate(158.257812 497.260644) scale(0.1 -0.1)">
       <defs>
        <path id="DejaVuSans-2212" d="M 678 2272 
L 4684 2272 
L 4684 1741 
L 678 1741 
L 678 2272 
z
" transform="scale(0.015625)"/>
        <path id="DejaVuSans-33" d="M 2597 2516 
Q 3050 2419 3304 2112 
Q 3559 1806 3559 1356 
Q 3559 666 3084 287 
Q 2609 -91 1734 -91 
Q 1441 -91 1130 -33 
Q 819 25 488 141 
L 488 750 
Q 750 597 1062 519 
Q 1375 441 1716 441 
Q 2309 441 2620 675 
Q 2931 909 2931 1356 
Q 2931 1769 2642 2001 
Q 2353 2234 1838 2234 
L 1294 2234 
L 1294 2753 
L 1863 2753 
Q 2328 2753 2575 2939 
Q 2822 3125 2822 3475 
Q 2822 3834 2567 4026 
Q 2313 4219 1838 4219 
Q 1578 4219 1281 4162 
Q 984 4106 628 3988 
L 628 4550 
Q 988 4650 1302 4700 
Q 1616 4750 1894 4750 
Q 2613 4750 3031 4423 
Q 3450 4097 3450 3541 
Q 3450 3153 3228 2886 
Q 3006 2619 2597 2516 
z
" transform="scale(0.015625)"/>
       </defs>
       <use xlink:href="#DejaVuSans-2212"/>
       <use xlink:href="#DejaVuSans-33" x="83.789062"/>
      </g>
     </g>
    </g>
    <g id="ytick_2">
     <g id="line2d_8">
      <g>
       <use xlink:href="#m5b1fdab2df" x="180" y="437.651335" style="stroke: #000000; stroke-width: 0.8"/>
      </g>
     </g>
     <g id="text_8">
      <!-- −2 -->
      <g transform="translate(158.257812 441.450554) scale(0.1 -0.1)">
       <use xlink:href="#DejaVuSans-2212"/>
       <use xlink:href="#DejaVuSans-32" x="83.789062"/>
      </g>
     </g>
    </g>
    <g id="ytick_3">
     <g id="line2d_9">
      <g>
       <use xlink:href="#m5b1fdab2df" x="180" y="381.841245" style="stroke: #000000; stroke-width: 0.8"/>
      </g>
     </g>
     <g id="text_9">
      <!-- −1 -->
      <g transform="translate(158.257812 385.640464) scale(0.1 -0.1)">
       <use xlink:href="#DejaVuSans-2212"/>
       <use xlink:href="#DejaVuSans-31" x="83.789062"/>
      </g>
     </g>
    </g>
    <g id="ytick_4">
     <g id="line2d_10">
      <g>
       <use xlink:href="#m5b1fdab2df" x="180" y="326.031154" style="stroke: #000000; stroke-width: 0.8"/>
      </g>
     </g>
     <g id="text_10">
      <!-- 0 -->
      <g transform="translate(166.6375 329.830373) scale(0.1 -0.1)">
       <use xlink:href="#DejaVuSans-30"/>
      </g>
     </g>
    </g>
    <g id="ytick_5">
     <g id="line2d_11">
      <g>
       <use xlink:href="#m5b1fdab2df" x="180" y="270.221064" style="stroke: #000000; stroke-width: 0.8"/>
      </g>
     </g>
     <g id="text_11">
      <!-- 1 -->
      <g transform="translate(166.6375 274.020283) scale(0.1 -0.1)">
       <use xlink:href="#DejaVuSans-31"/>
      </g>
     </g>
    </g>
    <g id="ytick_6">
     <g id="line2d_12">
      <g>
       <use xlink:href="#m5b1fdab2df" x="180" y="214.410974" style="stroke: #000000; stroke-width: 0.8"/>
      </g>
     </g>
     <g id="text_12">
      <!-- 2 -->
      <g transform="translate(166.6375 218.210192) scale(0.1 -0.1)">
       <use xlink:href="#DejaVuSans-32"/>
      </g>
     </g>
    </g>
    <g id="ytick_7">
     <g id="line2d_13">
      <g>
       <use xlink:href="#m5b1fdab2df" x="180" y="158.600883" style="stroke: #000000; stroke-width: 0.8"/>
      </g>
     </g>
     <g id="text_13">
      <!-- 3 -->
      <g transform="translate(166.6375 162.400102) scale(0.1 -0.1)">
       <use xlink:href="#DejaVuSans-33"/>
      </g>
     </g>
    </g>
    <g id="ytick_8">
     <g id="line2d_14">
      <g>
       <use xlink:href="#m5b1fdab2df" x="180" y="102.790793" style="stroke: #000000; stroke-width: 0.8"/>
      </g>
     </g>
     <g id="text_14">
      <!-- 4 -->
      <g transform="translate(166.6375 106.590011) scale(0.1 -0.1)">
       <defs>
        <path id="DejaVuSans-34" d="M 2419 4116 
L 825 1625 
L 2419 1625 
L 2419 4116 
z
M 2253 4666 
L 3047 4666 
L 3047 1625 
L 3713 1625 
L 3713 1100 
L 3047 1100 
L 3047 0 
L 2419 0 
L 2419 1100 
L 313 1100 
L 313 1709 
L 2253 4666 
z
" transform="scale(0.015625)"/>
       </defs>
       <use xlink:href="#DejaVuSans-34"/>
      </g>
     </g>
    </g>
   </g>
   <g id="line2d_15">
    <path d="M 230.727273 439.925781 
L 231.719979 437.708846 
L 232.712685 433.976843 
L 233.70539 429.566878 
L 239.661626 394.572377 
L 243.63245 368.745224 
L 244.625156 362.72933 
L 245.617862 352.610062 
L 246.610568 327.957388 
L 247.603273 298.873261 
L 248.595979 276.886627 
L 249.588685 263.388931 
L 250.581391 252.567752 
L 252.566803 223.169636 
L 253.559509 217.378965 
L 254.552215 224.379353 
L 255.544921 246.257377 
L 256.537627 264.100869 
L 257.530333 277.758227 
L 258.523039 270.97285 
L 259.515745 216.526092 
L 260.50845 193.204384 
L 261.501156 195.236334 
L 262.493862 222.865326 
L 263.486568 205.948252 
L 264.479274 178.131641 
L 265.47198 176.744377 
L 266.464686 203.033262 
L 267.457392 267.662127 
L 268.450098 237.405212 
L 269.442804 228.579226 
L 271.428216 178.303205 
L 272.420922 171.062927 
L 273.413627 178.389834 
L 274.406333 193.762527 
L 275.399039 198.864094 
L 277.384451 179.148029 
L 278.377157 165.674436 
L 280.362569 112.497134 
L 281.355275 95.772481 
L 282.347981 89.28 
L 283.340687 93.098823 
L 284.333393 106.730078 
L 285.326099 124.291755 
L 286.318804 130.135553 
L 287.31151 131.825635 
L 288.304216 147.920803 
L 289.296922 191.286455 
L 290.289628 249.707121 
L 291.282334 213.517541 
L 292.27504 214.095096 
L 294.260452 195.318724 
L 295.253158 206.350229 
L 296.245864 237.152864 
L 297.23857 249.434977 
L 298.231276 250.831755 
L 299.223981 261.036031 
L 300.216687 265.431276 
L 301.209393 274.012461 
L 302.202099 294.058897 
L 303.194805 283.6684 
L 304.187511 284.598874 
L 305.180217 308.46933 
L 306.172923 320.206938 
L 307.165629 320.5719 
L 308.158335 341.279327 
L 309.151041 396.631491 
L 310.143747 369.15572 
L 311.136453 361.632168 
L 312.129159 356.036686 
L 313.121864 360.271951 
L 314.11457 362.920524 
L 315.107276 369.157477 
L 316.099982 374.03888 
L 317.092688 364.716248 
L 318.085394 369.391623 
L 319.0781 372.049176 
L 320.070806 375.948274 
L 321.063512 377.789812 
L 322.056218 375.724195 
L 324.04163 373.122131 
L 325.034336 375.652472 
L 326.027041 379.883287 
L 327.019747 378.598227 
L 328.012453 373.638462 
L 329.005159 380.26827 
L 329.997865 375.956607 
L 330.990571 376.7999 
L 331.983277 379.248462 
L 332.975983 376.184003 
L 333.968689 374.96926 
L 334.961395 385.001911 
L 335.954101 384.85742 
L 336.946807 380.520696 
L 337.939513 379.551854 
L 338.932218 391.623289 
L 339.924924 385.311815 
L 340.91763 388.068067 
L 341.910336 389.053406 
L 342.903042 388.698793 
L 343.895748 394.64504 
L 344.888454 396.340974 
L 345.88116 389.204092 
L 346.873866 386.304608 
L 347.866572 396.843251 
L 349.851984 385.221904 
L 350.84469 394.926977 
L 351.837395 389.956164 
L 352.830101 390.736526 
L 353.822807 389.395781 
L 354.815513 394.856525 
L 355.808219 394.127086 
L 356.800925 389.989752 
L 357.793631 401.762697 
L 358.786337 393.877067 
L 359.779043 384.450441 
L 360.771749 406.290643 
L 361.764455 399.775025 
L 362.757161 399.106594 
L 363.749867 410.156074 
L 364.742572 386.699306 
L 365.735278 403.316869 
L 366.727984 397.132526 
L 367.72069 397.57988 
L 368.713396 403.716936 
L 369.706102 395.686988 
L 370.698808 396.657728 
L 371.691514 393.701091 
L 372.68422 395.582882 
L 373.676926 400.378376 
L 374.669632 402.393781 
L 375.662338 406.523722 
L 376.655044 397.252718 
L 377.64775 398.334934 
L 378.640455 403.256359 
L 379.633161 404.598307 
L 380.625867 400.491097 
L 381.618573 399.534838 
L 382.611279 408.604407 
L 383.603985 420.39599 
L 384.596691 410.902382 
L 386.582103 415.769523 
L 387.574809 407.910073 
L 388.567515 407.857317 
L 389.560221 404.29242 
L 390.552927 408.598515 
L 391.545632 413.405029 
L 392.538338 403.04539 
L 393.531044 417.072963 
L 394.52375 411.555311 
L 395.516456 420.270839 
L 396.509162 421.546682 
L 397.501868 405.037804 
L 398.494574 407.646127 
L 399.48728 419.77269 
L 400.479986 425.041578 
L 401.472692 422.657959 
L 402.465398 429.000125 
L 403.458104 425.995921 
L 404.450809 437.293454 
L 405.443515 426.697782 
L 406.436221 409.37395 
L 407.428927 417.878909 
L 408.421633 415.482646 
L 409.414339 417.804115 
L 410.407045 414.95368 
L 411.399751 415.162809 
L 412.392457 414.478029 
L 413.385163 414.482683 
L 414.377869 408.052619 
L 415.370575 423.481637 
L 416.363281 409.41739 
L 417.355986 411.27643 
L 418.348692 404.155808 
L 419.341398 424.07128 
L 420.334104 419.066279 
L 421.32681 393.160163 
L 422.319516 403.171511 
L 423.312222 418.282834 
L 424.304928 419.099256 
L 425.297634 408.777937 
L 426.29034 417.715106 
L 427.283046 423.811545 
L 428.275752 424.463496 
L 429.268458 418.755042 
L 430.261163 424.149926 
L 431.253869 420.085725 
L 432.246575 431.453099 
L 433.239281 413.883422 
L 434.231987 435.797855 
L 435.224693 422.612019 
L 436.217399 431.956252 
L 437.210105 415.907655 
L 438.202811 447.832484 
L 439.195517 448.627674 
L 440.188223 415.370119 
L 441.180929 429.473503 
L 442.173635 414.108496 
L 443.166341 417.403727 
L 444.159046 430.363246 
L 445.151752 437.470239 
L 446.144458 424.306212 
L 447.137164 425.848603 
L 448.12987 416.587314 
L 450.115282 413.970856 
L 451.107988 427.168842 
L 452.100694 428.401763 
L 453.0934 422.755594 
L 454.086106 417.900386 
L 455.078812 424.243356 
L 456.071518 425.06613 
L 457.064223 431.837936 
L 458.056929 427.8707 
L 459.049635 427.514534 
L 460.042341 429.289345 
L 461.035047 430.144317 
L 462.027753 428.520543 
L 463.020459 430.296918 
L 464.013165 425.934413 
L 465.005871 448.895984 
L 465.998577 428.872203 
L 466.991283 418.532611 
L 467.983989 431.272699 
L 468.976695 423.331295 
L 469.9694 456.326496 
L 470.962106 423.418059 
L 471.954812 424.28254 
L 472.947518 440.370253 
L 473.940224 439.747827 
L 474.93293 427.480258 
L 475.925636 456.580551 
L 476.918342 417.089342 
L 477.911048 438.563273 
L 478.903754 434.867959 
L 479.89646 458.998296 
L 480.889166 426.448676 
L 481.881872 416.861023 
L 482.874577 450.638772 
L 483.867283 423.296295 
L 484.859989 461.317459 
L 485.852695 451.997217 
L 486.845401 426.140671 
L 487.838107 440.764293 
L 488.830813 425.46894 
L 489.823519 456.148615 
L 490.816225 429.685779 
L 491.808931 436.828394 
L 492.801637 421.661549 
L 493.794343 429.199792 
L 494.787049 414.068605 
L 495.779754 435.432121 
L 496.77246 436.065914 
L 497.765166 443.794682 
L 498.757872 432.672978 
L 499.750578 450.630463 
L 500.743284 428.718795 
L 501.73599 421.475601 
L 502.728696 435.156205 
L 503.721402 461.830958 
L 504.714108 447.581229 
L 505.706814 437.092994 
L 506.69952 445.477146 
L 507.692226 462.284869 
L 508.684932 444.605762 
L 509.677637 445.837522 
L 510.670343 422.076713 
L 511.663049 415.810759 
L 512.655755 446.483123 
L 513.648461 441.454725 
L 514.641167 425.102273 
L 515.633873 433.324994 
L 516.626579 428.505122 
L 517.619285 450.18926 
L 518.611991 433.934816 
L 519.604697 422.531754 
L 520.597403 436.272341 
L 521.590109 475.144835 
L 522.582814 443.311785 
L 523.57552 448.959941 
L 524.568226 435.58105 
L 525.560932 441.734686 
L 526.553638 435.840446 
L 527.546344 451.714064 
L 528.53905 441.654372 
L 529.531756 428.615272 
L 530.524462 419.1398 
L 532.509874 470.264494 
L 533.50258 442.085237 
L 534.495286 428.765926 
L 535.487991 434.152693 
L 536.480697 448.574142 
L 537.473403 457.808355 
L 538.466109 453.722865 
L 539.458815 429.96546 
L 540.451521 444.996679 
L 541.444227 440.445365 
L 542.436933 423.189221 
L 543.429639 474.928895 
L 544.422345 438.624453 
L 545.415051 441.689323 
L 546.407757 471.000911 
L 547.400463 441.319157 
L 548.393168 464.19107 
L 549.385874 457.309904 
L 550.37858 453.162836 
L 551.371286 440.746711 
L 552.363992 440.38306 
L 553.356698 454.003939 
L 554.349404 450.623026 
L 555.34211 440.587526 
L 556.334816 461.148736 
L 557.327522 448.810596 
L 558.320228 439.731801 
L 559.312934 434.437776 
L 560.30564 451.594454 
L 561.298345 436.143453 
L 562.291051 429.564554 
L 563.283757 438.947438 
L 564.276463 483.618657 
L 565.269169 444.051689 
L 566.261875 432.464218 
L 567.254581 442.487556 
L 568.247287 459.776319 
L 569.239993 439.436237 
L 570.232699 451.868629 
L 571.225405 434.432805 
L 572.218111 450.213246 
L 573.210817 476.269219 
L 575.196228 439.699126 
L 576.188934 448.859245 
L 577.18164 465.883901 
L 578.174346 455.342507 
L 579.167052 451.530371 
L 580.159758 444.278519 
L 581.152464 449.021379 
L 582.14517 444.338645 
L 583.137876 454.020421 
L 584.130582 441.480541 
L 585.123288 460.427943 
L 586.115994 448.568418 
L 587.1087 442.864526 
L 588.101405 459.769698 
L 589.094111 450.87441 
L 590.086817 445.967915 
L 591.079523 454.865517 
L 592.072229 454.238398 
L 593.064935 456.19312 
L 594.057641 451.966651 
L 595.050347 442.646423 
L 596.043053 451.411397 
L 597.035759 453.070161 
L 598.028465 447.016883 
L 600.013877 457.663575 
L 601.006582 456.337722 
L 601.999288 451.906152 
L 602.991994 466.215167 
L 604.977406 479.561465 
L 605.970112 459.982821 
L 606.962818 481.003037 
L 607.955524 459.326286 
L 608.94823 461.688238 
L 609.940936 453.918568 
L 610.933642 440.686002 
L 611.926348 447.092923 
L 612.919054 460.976571 
L 613.911759 453.283015 
L 614.904465 463.612558 
L 615.897171 450.644791 
L 616.889877 460.335128 
L 617.882583 455.921725 
L 618.875289 460.883252 
L 619.867995 461.274893 
L 620.860701 462.894388 
L 621.853407 464.807724 
L 622.846113 457.264329 
L 623.838819 455.558393 
L 624.831525 455.770588 
L 625.824231 463.443831 
L 626.816936 465.586941 
L 627.809642 453.710759 
L 628.802348 456.100513 
L 629.795054 456.411518 
L 630.78776 455.245904 
L 631.780466 464.880443 
L 632.773172 454.701822 
L 633.765878 463.72486 
L 634.758584 459.176617 
L 635.75129 450.097621 
L 636.743996 456.7658 
L 637.736702 450.962166 
L 638.729408 465.52912 
L 639.722114 454.088719 
L 640.714819 455.166188 
L 641.707525 467.233517 
L 642.700231 459.486147 
L 643.692937 463.733387 
L 644.685643 457.798027 
L 645.678349 465.327297 
L 646.671055 462.426776 
L 647.663761 464.186119 
L 648.656467 467.59841 
L 649.649173 454.824982 
L 650.641879 461.9237 
L 651.634585 461.865694 
L 652.627291 463.21963 
L 653.619996 463.427726 
L 654.612702 460.082372 
L 655.605408 463.828701 
L 656.598114 463.45684 
L 657.59082 472.268878 
L 658.583526 462.753238 
L 659.576232 463.070726 
L 660.568938 459.952128 
L 661.561644 462.306088 
L 662.55435 466.410674 
L 663.547056 461.272273 
L 664.539762 460.543881 
L 665.532468 461.746717 
L 666.525173 466.933661 
L 667.517879 462.786518 
L 668.510585 462.32405 
L 669.503291 468.099364 
L 670.495997 463.588717 
L 671.488703 460.38305 
L 672.481409 466.504682 
L 673.474115 463.843221 
L 674.466821 467.218046 
L 675.459527 464.112036 
L 676.452233 467.922829 
L 677.444939 466.839572 
L 678.437645 468.142931 
L 679.43035 466.92837 
L 680.423056 466.210498 
L 681.415762 466.701672 
L 682.408468 466.016085 
L 684.39388 467.845917 
L 685.386586 462.348248 
L 686.379292 465.703514 
L 687.371998 464.822608 
L 688.364704 464.644599 
L 689.35741 465.428448 
L 690.350116 467.294926 
L 691.342822 464.008211 
L 692.335527 467.524011 
L 693.328233 465.54467 
L 694.320939 464.524235 
L 695.313645 466.82785 
L 696.306351 466.652541 
L 697.299057 464.251917 
L 698.291763 467.534721 
L 699.284469 463.64827 
L 700.277175 466.975129 
L 701.269881 469.038021 
L 702.262587 466.732594 
L 703.255293 465.664557 
L 704.247999 468.24095 
L 705.240705 467.344764 
L 706.23341 468.002616 
L 707.226116 468.388533 
L 708.218822 467.49827 
L 709.211528 467.425492 
L 710.204234 469.430382 
L 711.19694 469.40034 
L 712.189646 468.477402 
L 713.182352 468.48368 
L 714.175058 468.368493 
L 715.167764 469.057225 
L 716.16047 467.783478 
L 717.153176 468.151789 
L 718.145882 469.19804 
L 719.138587 468.188423 
L 720.131293 470.154463 
L 721.123999 468.919459 
L 722.116705 468.70737 
L 723.109411 470.72698 
L 724.102117 469.04325 
L 725.094823 468.654008 
L 726.087529 470.116283 
L 727.080235 468.184163 
L 728.072941 469.203301 
L 729.065647 470.924773 
L 730.058353 470.545875 
L 731.051059 469.377973 
L 732.043764 469.131174 
L 733.03647 470.45825 
L 734.029176 469.787434 
L 735.021882 469.81257 
L 736.014588 470.16028 
L 737.007294 469.888699 
L 738 470.04894 
L 738.992706 471.230871 
L 739.985412 471.956096 
L 740.978118 470.437152 
L 741.970824 471.521477 
L 742.96353 471.156357 
L 743.956236 470.084515 
L 744.948941 472.293368 
L 745.941647 471.643237 
L 746.934353 472.26415 
L 747.927059 471.587947 
L 748.919765 471.918552 
L 749.912471 471.385903 
L 750.905177 471.659259 
L 751.897883 470.710799 
L 752.890589 470.722429 
L 753.883295 473.05843 
L 754.876001 471.05057 
L 755.868707 472.91936 
L 756.861413 471.751403 
L 757.854118 470.822416 
L 758.846824 472.549677 
L 759.83953 471.487079 
L 760.832236 472.071786 
L 761.824942 473.105955 
L 762.817648 473.043931 
L 763.810354 472.382126 
L 764.80306 471.876688 
L 765.795766 473.419698 
L 766.788472 473.687798 
L 767.781178 473.083702 
L 768.773884 472.196462 
L 769.76659 473.534199 
L 770.759295 473.521859 
L 771.752001 472.901578 
L 772.744707 472.760675 
L 773.737413 472.205549 
L 774.730119 472.491898 
L 775.722825 473.029601 
L 776.715531 472.338883 
L 777.708237 473.574579 
L 778.700943 474.352155 
L 779.693649 473.097278 
L 780.686355 473.15516 
L 781.679061 475.500406 
L 782.671767 475.269729 
L 783.664473 474.336747 
L 784.657178 473.569053 
L 785.649884 475.069667 
L 786.64259 474.391218 
L 787.635296 473.895258 
L 788.628002 474.538109 
L 789.620708 473.616549 
L 790.613414 474.962388 
L 791.60612 474.482065 
L 792.598826 475.507643 
L 793.591532 475.537933 
L 794.584238 475.260836 
L 795.576944 474.644899 
L 796.56965 473.835441 
L 797.562355 474.995937 
L 798.555061 476.492155 
L 799.547767 474.608607 
L 800.540473 474.403131 
L 801.533179 477.623116 
L 802.525885 476.396378 
L 803.518591 475.456783 
L 804.511297 475.081369 
L 805.504003 475.976362 
L 806.496709 476.688503 
L 807.489415 474.470126 
L 808.482121 475.681198 
L 809.474827 475.918716 
L 810.467532 476.283212 
L 811.460238 477.302048 
L 812.452944 475.976564 
L 813.44565 476.989354 
L 816.423768 476.315964 
L 818.40918 476.426706 
L 819.401886 477.66216 
L 822.380004 476.967421 
L 823.372709 476.745485 
L 824.365415 477.541954 
L 825.358121 477.513046 
L 826.350827 476.18966 
L 827.343533 477.329517 
L 828.336239 477.019442 
L 829.328945 477.558018 
L 830.321651 476.7573 
L 831.314357 477.169566 
L 832.307063 477.387455 
L 833.299769 477.013433 
L 834.292475 477.62257 
L 835.285181 476.916467 
L 836.277886 477.256804 
L 837.270592 478.289089 
L 838.263298 478.407285 
L 839.256004 477.434584 
L 840.24871 476.907423 
L 841.241416 478.258686 
L 842.234122 478.761972 
L 843.226828 478.687416 
L 844.219534 477.225642 
L 845.21224 478.305829 
L 846.204946 478.048483 
L 847.197652 478.285399 
L 848.190358 479.324773 
L 849.183064 478.876039 
L 850.175769 478.84724 
L 851.168475 479.425736 
L 852.161181 479.07371 
L 853.153887 478.480097 
L 855.139299 478.54447 
L 856.132005 479.295743 
L 857.124711 480.878913 
L 858.117417 478.288661 
L 859.110123 480.388679 
L 860.102829 479.058812 
L 861.095535 480.075796 
L 862.088241 478.822751 
L 863.080946 478.951674 
L 864.073652 478.941119 
L 865.066358 479.868313 
L 867.05177 479.919567 
L 868.044476 479.545339 
L 869.037182 479.519793 
L 870.029888 479.65144 
L 871.022594 479.602767 
L 872.0153 478.223669 
L 873.008006 479.799841 
L 874.000712 480.197959 
L 875.986123 479.759791 
L 876.978829 479.3731 
L 877.971535 480.929428 
L 878.964241 480.789306 
L 879.956947 480.351584 
L 880.949653 481.26107 
L 881.942359 480.706704 
L 882.935065 480.875306 
L 883.927771 479.979983 
L 884.920477 480.674897 
L 885.913183 480.05019 
L 886.905889 480.752278 
L 887.898595 479.84366 
L 888.8913 481.705191 
L 889.884006 480.53833 
L 890.876712 481.491896 
L 891.869418 481.884654 
L 892.862124 481.153471 
L 894.847536 481.479141 
L 895.840242 480.011941 
L 896.832948 481.092993 
L 897.825654 480.695302 
L 898.81836 481.158732 
L 899.811066 481.917835 
L 900.803772 480.364725 
L 901.796477 480.433243 
L 902.789183 482.892745 
L 903.781889 481.221866 
L 904.774595 481.678236 
L 905.767301 482.626653 
L 906.760007 481.406613 
L 907.752713 481.177687 
L 908.745419 482.058821 
L 909.738125 483.549398 
L 910.730831 482.914314 
L 911.723537 481.202424 
L 912.716243 482.056889 
L 913.708949 483.370608 
L 914.701655 482.964248 
L 915.69436 481.275582 
L 916.687066 482.486449 
L 917.679772 482.061904 
L 918.672478 482.424996 
L 919.665184 483.022521 
L 920.65789 482.97266 
L 922.643302 482.030573 
L 923.636008 481.370064 
L 924.628714 481.757853 
L 925.62142 481.553929 
L 927.606832 483.123409 
L 928.599537 483.103231 
L 929.592243 481.114522 
L 930.584949 482.349971 
L 931.577655 482.950362 
L 932.570361 482.377802 
L 933.563067 483.214993 
L 934.555773 482.838709 
L 935.548479 482.920087 
L 936.541185 483.45181 
L 937.533891 483.15827 
L 938.526597 483.828343 
L 939.519303 483.534175 
L 940.512009 482.513637 
L 942.49742 485.187093 
L 943.490126 484.75286 
L 944.482832 484.081511 
L 945.475538 482.9803 
L 946.468244 483.18626 
L 947.46095 484.232271 
L 948.453656 483.594395 
L 949.446362 483.576337 
L 950.439068 484.318923 
L 951.431774 483.604455 
L 952.42448 483.736024 
L 953.417186 484.899265 
L 954.409891 483.527797 
L 955.402597 483.631577 
L 956.395303 484.119562 
L 957.388009 485.58992 
L 958.380715 483.181195 
L 960.366127 484.501347 
L 961.358833 484.490972 
L 962.351539 482.909844 
L 963.344245 485.138837 
L 964.336951 484.67487 
L 965.329657 483.51449 
L 966.322363 484.318824 
L 967.315068 484.007408 
L 968.307774 485.604484 
L 969.30048 485.042446 
L 970.293186 484.924101 
L 971.285892 484.942107 
L 972.278598 484.006312 
L 973.271304 485.163618 
L 974.26401 485.373412 
L 975.256716 485.860547 
L 976.249422 485.535128 
L 977.242128 485.381346 
L 978.234834 484.580015 
L 979.22754 483.524734 
L 980.220246 485.426225 
L 981.212951 485.252222 
L 982.205657 485.508139 
L 983.198363 483.671403 
L 984.191069 485.848579 
L 985.183775 485.89738 
L 986.176481 484.829126 
L 987.169187 484.888216 
L 988.161893 485.954602 
L 989.154599 486.018556 
L 990.147305 485.515908 
L 992.132717 485.329948 
L 993.125423 486.343392 
L 995.110834 486.582213 
L 996.10354 484.558242 
L 997.096246 486.817129 
L 998.088952 486.098652 
L 999.081658 484.130662 
L 1000.074364 485.660856 
L 1001.06707 485.618807 
L 1002.059776 486.459937 
L 1004.045188 485.921762 
L 1005.037894 486.434949 
L 1006.0306 487.2596 
L 1007.023305 485.974475 
L 1008.016011 485.468782 
L 1009.008717 486.477723 
L 1010.001423 486.402227 
L 1010.994129 487.255499 
L 1011.986835 486.086106 
L 1012.979541 484.423758 
L 1013.972247 486.382623 
L 1014.964953 485.479551 
L 1015.957659 486.655963 
L 1016.950365 487.051178 
L 1017.943071 486.743648 
L 1018.935777 487.142189 
L 1019.928482 487.856289 
L 1020.921188 487.113453 
L 1021.913894 486.954394 
L 1022.9066 486.465548 
L 1023.899306 486.942638 
L 1024.892012 486.589408 
L 1025.884718 486.922532 
L 1026.877424 486.782892 
L 1027.87013 486.872487 
L 1028.862836 486.023452 
L 1029.855542 487.002861 
L 1030.848248 486.531819 
L 1031.840954 485.481001 
L 1032.833659 487.490991 
L 1033.826365 487.265858 
L 1034.819071 486.379839 
L 1035.811777 487.150052 
L 1037.797189 486.522831 
L 1038.789895 485.995013 
L 1039.782601 488.514367 
L 1040.775307 486.561858 
L 1041.768013 486.354937 
L 1043.753425 488.088018 
L 1044.746131 485.440683 
L 1045.738837 487.805155 
L 1046.731542 487.324211 
L 1047.724248 486.314812 
L 1048.716954 487.722865 
L 1049.70966 487.33885 
L 1050.702366 488.229152 
L 1051.695072 487.077582 
L 1052.687778 486.886591 
L 1053.680484 486.858538 
L 1054.67319 490.196972 
L 1055.665896 487.716058 
L 1056.658602 488.262862 
L 1057.651308 486.591193 
L 1058.644014 486.910534 
L 1059.636719 486.69348 
L 1060.629425 486.899079 
L 1061.622131 487.701272 
L 1062.614837 488.314295 
L 1063.607543 487.315474 
L 1064.600249 488.088338 
L 1065.592955 487.211621 
L 1067.578367 486.943312 
L 1068.571073 488.473242 
L 1069.563779 487.083833 
L 1070.556485 486.587605 
L 1071.549191 487.272532 
L 1072.541896 487.779468 
L 1073.534602 489.591819 
L 1074.527308 487.517205 
L 1075.520014 488.704445 
L 1076.51272 488.523736 
L 1077.505426 485.933316 
L 1078.498132 488.109841 
L 1079.490838 489.22583 
L 1080.483544 487.682608 
L 1081.47625 487.751174 
L 1082.468956 488.755052 
L 1083.461662 487.893014 
L 1084.454368 486.762797 
L 1085.447073 487.597295 
L 1086.439779 486.502162 
L 1087.432485 489.246969 
L 1088.425191 489.279295 
L 1089.417897 487.207962 
L 1090.410603 489.730503 
L 1091.403309 489.154932 
L 1092.396015 490.174927 
L 1093.388721 488.89243 
L 1094.381427 486.853163 
L 1095.374133 488.198397 
L 1096.366839 488.868087 
L 1097.359545 488.729451 
L 1098.35225 488.952899 
L 1099.344956 488.951225 
L 1100.337662 487.98423 
L 1101.330368 490.703312 
L 1102.323074 488.509687 
L 1103.31578 488.247614 
L 1104.308486 488.49706 
L 1105.301192 488.625848 
L 1106.293898 490.029193 
L 1107.286604 488.310346 
L 1108.27931 488.496225 
L 1109.272016 489.000776 
L 1110.264722 489.944302 
L 1111.257428 488.984505 
L 1112.250133 489.720205 
L 1113.242839 488.96401 
L 1114.235545 490.993766 
L 1115.228251 487.905785 
L 1117.213663 487.953521 
L 1118.206369 488.335777 
L 1119.199075 489.473992 
L 1120.191781 488.84814 
L 1121.184487 487.967134 
L 1122.177193 489.125501 
L 1123.169899 487.679949 
L 1124.162605 488.604069 
L 1125.15531 490.210975 
L 1126.148016 489.029257 
L 1127.140722 489.144016 
L 1128.133428 489.896634 
L 1129.126134 488.792622 
L 1130.11884 490.15985 
L 1131.111546 489.29575 
L 1132.104252 489.701447 
L 1134.089664 489.075073 
L 1135.08237 489.559603 
L 1136.075076 487.556925 
L 1137.067782 486.883909 
L 1138.060487 489.99438 
L 1139.053193 489.674668 
L 1140.045899 487.110972 
L 1141.038605 488.095227 
L 1142.031311 488.820056 
L 1143.024017 489.821321 
L 1144.016723 489.960008 
L 1145.009429 489.521887 
L 1146.002135 490.379619 
L 1146.994841 489.977182 
L 1147.987547 490.19432 
L 1148.980253 488.281629 
L 1149.972959 490.628019 
L 1150.965664 489.613885 
L 1151.95837 488.927554 
L 1152.951076 489.398811 
L 1153.943782 489.389741 
L 1154.936488 489.180875 
L 1155.929194 489.776535 
L 1156.9219 488.938021 
L 1158.907312 489.419305 
L 1159.900018 490.273574 
L 1160.892724 489.669273 
L 1161.88543 490.732323 
L 1162.878136 488.067508 
L 1163.870841 488.940541 
L 1164.863547 488.77302 
L 1165.856253 490.072708 
L 1166.848959 492.48 
L 1167.841665 490.597991 
L 1168.834371 491.09051 
L 1169.827077 490.070681 
L 1170.819783 488.862765 
L 1171.812489 490.273277 
L 1172.805195 490.930452 
L 1173.797901 489.875584 
L 1174.790607 489.33403 
L 1175.783313 489.41834 
L 1176.776019 488.627468 
L 1177.768724 490.387279 
L 1178.76143 489.626322 
L 1179.754136 489.580173 
L 1180.746842 489.152721 
L 1181.739548 489.322297 
L 1182.732254 491.21102 
L 1183.72496 489.023421 
L 1184.717666 487.896974 
L 1185.710372 488.399884 
L 1186.703078 489.26784 
L 1187.695784 487.790677 
L 1188.68849 488.106536 
L 1189.681196 488.72849 
L 1190.673901 489.508195 
L 1191.666607 490.457963 
L 1192.659313 488.908224 
L 1193.652019 489.491541 
L 1194.644725 489.054776 
L 1195.637431 489.682207 
L 1196.630137 489.924487 
L 1198.615549 490.972983 
L 1199.608255 489.341229 
L 1200.600961 490.367562 
L 1202.586373 488.859461 
L 1203.579078 488.816474 
L 1204.571784 489.743121 
L 1205.56449 489.737337 
L 1206.557196 490.856536 
L 1207.549902 489.375942 
L 1208.542608 488.584077 
L 1209.535314 490.461553 
L 1210.52802 491.432124 
L 1211.520726 490.725266 
L 1212.513432 489.673497 
L 1213.506138 489.804131 
L 1214.498844 489.773998 
L 1215.49155 489.345254 
L 1216.484255 490.475225 
L 1217.476961 490.727922 
L 1218.469667 487.489171 
L 1219.462373 490.351994 
L 1220.455079 490.146045 
L 1221.447785 489.796956 
L 1222.440491 488.12456 
L 1223.433197 490.335363 
L 1224.425903 491.150442 
L 1225.418609 490.872639 
L 1226.411315 489.320693 
L 1227.404021 489.738744 
L 1228.396727 490.908202 
L 1229.389432 490.179541 
L 1230.382138 490.269671 
L 1231.374844 490.792393 
L 1232.36755 490.005151 
L 1233.360256 491.116711 
L 1234.352962 489.384091 
L 1235.345668 489.833043 
L 1236.338374 491.014811 
L 1237.33108 489.519459 
L 1238.323786 489.557055 
L 1239.316492 490.335059 
L 1240.309198 488.968033 
L 1241.301904 490.696317 
L 1242.29461 490.223537 
L 1243.287315 491.654689 
L 1244.280021 489.786967 
L 1245.272727 490.109089 
L 1245.272727 490.109089 
" clip-path="url(#pdca95399f5)" style="fill: none; stroke: #1f77b4; stroke-width: 1.5; stroke-linecap: square"/>
   </g>
   <g id="patch_3">
    <path d="M 180 512.64 
L 180 69.12 
" style="fill: none; stroke: #000000; stroke-width: 0.8; stroke-linejoin: miter; stroke-linecap: square"/>
   </g>
   <g id="patch_4">
    <path d="M 1296 512.64 
L 1296 69.12 
" style="fill: none; stroke: #000000; stroke-width: 0.8; stroke-linejoin: miter; stroke-linecap: square"/>
   </g>
   <g id="patch_5">
    <path d="M 180 512.64 
L 1296 512.64 
" style="fill: none; stroke: #000000; stroke-width: 0.8; stroke-linejoin: miter; stroke-linecap: square"/>
   </g>
   <g id="patch_6">
    <path d="M 180 69.12 
L 1296 69.12 
" style="fill: none; stroke: #000000; stroke-width: 0.8; stroke-linejoin: miter; stroke-linecap: square"/>
   </g>
   <g id="text_15">
    <!-- source6-receiver23 -->
    <g transform="translate(544.9 60.80125) scale(0.4 -0.4)">
     <defs>
      <path id="DejaVuSans-73" d="M 2834 3397 
L 2834 2853 
Q 2591 2978 2328 3040 
Q 2066 3103 1784 3103 
Q 1356 3103 1142 2972 
Q 928 2841 928 2578 
Q 928 2378 1081 2264 
Q 1234 2150 1697 2047 
L 1894 2003 
Q 2506 1872 2764 1633 
Q 3022 1394 3022 966 
Q 3022 478 2636 193 
Q 2250 -91 1575 -91 
Q 1294 -91 989 -36 
Q 684 19 347 128 
L 347 722 
Q 666 556 975 473 
Q 1284 391 1588 391 
Q 1994 391 2212 530 
Q 2431 669 2431 922 
Q 2431 1156 2273 1281 
Q 2116 1406 1581 1522 
L 1381 1569 
Q 847 1681 609 1914 
Q 372 2147 372 2553 
Q 372 3047 722 3315 
Q 1072 3584 1716 3584 
Q 2034 3584 2315 3537 
Q 2597 3491 2834 3397 
z
" transform="scale(0.015625)"/>
      <path id="DejaVuSans-6f" d="M 1959 3097 
Q 1497 3097 1228 2736 
Q 959 2375 959 1747 
Q 959 1119 1226 758 
Q 1494 397 1959 397 
Q 2419 397 2687 759 
Q 2956 1122 2956 1747 
Q 2956 2369 2687 2733 
Q 2419 3097 1959 3097 
z
M 1959 3584 
Q 2709 3584 3137 3096 
Q 3566 2609 3566 1747 
Q 3566 888 3137 398 
Q 2709 -91 1959 -91 
Q 1206 -91 779 398 
Q 353 888 353 1747 
Q 353 2609 779 3096 
Q 1206 3584 1959 3584 
z
" transform="scale(0.015625)"/>
      <path id="DejaVuSans-75" d="M 544 1381 
L 544 3500 
L 1119 3500 
L 1119 1403 
Q 1119 906 1312 657 
Q 1506 409 1894 409 
Q 2359 409 2629 706 
Q 2900 1003 2900 1516 
L 2900 3500 
L 3475 3500 
L 3475 0 
L 2900 0 
L 2900 538 
Q 2691 219 2414 64 
Q 2138 -91 1772 -91 
Q 1169 -91 856 284 
Q 544 659 544 1381 
z
M 1991 3584 
L 1991 3584 
z
" transform="scale(0.015625)"/>
      <path id="DejaVuSans-72" d="M 2631 2963 
Q 2534 3019 2420 3045 
Q 2306 3072 2169 3072 
Q 1681 3072 1420 2755 
Q 1159 2438 1159 1844 
L 1159 0 
L 581 0 
L 581 3500 
L 1159 3500 
L 1159 2956 
Q 1341 3275 1631 3429 
Q 1922 3584 2338 3584 
Q 2397 3584 2469 3576 
Q 2541 3569 2628 3553 
L 2631 2963 
z
" transform="scale(0.015625)"/>
      <path id="DejaVuSans-63" d="M 3122 3366 
L 3122 2828 
Q 2878 2963 2633 3030 
Q 2388 3097 2138 3097 
Q 1578 3097 1268 2742 
Q 959 2388 959 1747 
Q 959 1106 1268 751 
Q 1578 397 2138 397 
Q 2388 397 2633 464 
Q 2878 531 3122 666 
L 3122 134 
Q 2881 22 2623 -34 
Q 2366 -91 2075 -91 
Q 1284 -91 818 406 
Q 353 903 353 1747 
Q 353 2603 823 3093 
Q 1294 3584 2113 3584 
Q 2378 3584 2631 3529 
Q 2884 3475 3122 3366 
z
" transform="scale(0.015625)"/>
      <path id="DejaVuSans-65" d="M 3597 1894 
L 3597 1613 
L 953 1613 
Q 991 1019 1311 708 
Q 1631 397 2203 397 
Q 2534 397 2845 478 
Q 3156 559 3463 722 
L 3463 178 
Q 3153 47 2828 -22 
Q 2503 -91 2169 -91 
Q 1331 -91 842 396 
Q 353 884 353 1716 
Q 353 2575 817 3079 
Q 1281 3584 2069 3584 
Q 2775 3584 3186 3129 
Q 3597 2675 3597 1894 
z
M 3022 2063 
Q 3016 2534 2758 2815 
Q 2500 3097 2075 3097 
Q 1594 3097 1305 2825 
Q 1016 2553 972 2059 
L 3022 2063 
z
" transform="scale(0.015625)"/>
      <path id="DejaVuSans-36" d="M 2113 2584 
Q 1688 2584 1439 2293 
Q 1191 2003 1191 1497 
Q 1191 994 1439 701 
Q 1688 409 2113 409 
Q 2538 409 2786 701 
Q 3034 994 3034 1497 
Q 3034 2003 2786 2293 
Q 2538 2584 2113 2584 
z
M 3366 4563 
L 3366 3988 
Q 3128 4100 2886 4159 
Q 2644 4219 2406 4219 
Q 1781 4219 1451 3797 
Q 1122 3375 1075 2522 
Q 1259 2794 1537 2939 
Q 1816 3084 2150 3084 
Q 2853 3084 3261 2657 
Q 3669 2231 3669 1497 
Q 3669 778 3244 343 
Q 2819 -91 2113 -91 
Q 1303 -91 875 529 
Q 447 1150 447 2328 
Q 447 3434 972 4092 
Q 1497 4750 2381 4750 
Q 2619 4750 2861 4703 
Q 3103 4656 3366 4563 
z
" transform="scale(0.015625)"/>
      <path id="DejaVuSans-2d" d="M 313 2009 
L 1997 2009 
L 1997 1497 
L 313 1497 
L 313 2009 
z
" transform="scale(0.015625)"/>
      <path id="DejaVuSans-69" d="M 603 3500 
L 1178 3500 
L 1178 0 
L 603 0 
L 603 3500 
z
M 603 4863 
L 1178 4863 
L 1178 4134 
L 603 4134 
L 603 4863 
z
" transform="scale(0.015625)"/>
      <path id="DejaVuSans-76" d="M 191 3500 
L 800 3500 
L 1894 563 
L 2988 3500 
L 3597 3500 
L 2284 0 
L 1503 0 
L 191 3500 
z
" transform="scale(0.015625)"/>
     </defs>
     <use xlink:href="#DejaVuSans-73"/>
     <use xlink:href="#DejaVuSans-6f" x="52.099609"/>
     <use xlink:href="#DejaVuSans-75" x="113.28125"/>
     <use xlink:href="#DejaVuSans-72" x="176.660156"/>
     <use xlink:href="#DejaVuSans-63" x="215.523438"/>
     <use xlink:href="#DejaVuSans-65" x="270.503906"/>
     <use xlink:href="#DejaVuSans-36" x="332.027344"/>
     <use xlink:href="#DejaVuSans-2d" x="395.650391"/>
     <use xlink:href="#DejaVuSans-72" x="431.734375"/>
     <use xlink:href="#DejaVuSans-65" x="470.597656"/>
     <use xlink:href="#DejaVuSans-63" x="532.121094"/>
     <use xlink:href="#DejaVuSans-65" x="587.101562"/>
     <use xlink:href="#DejaVuSans-69" x="648.625"/>
     <use xlink:href="#DejaVuSans-76" x="676.408203"/>
     <use xlink:href="#DejaVuSans-65" x="735.587891"/>
     <use xlink:href="#DejaVuSans-72" x="797.111328"/>
     <use xlink:href="#DejaVuSans-32" x="838.224609"/>
     <use xlink:href="#DejaVuSans-33" x="901.847656"/>
    </g>
   </g>
  </g>
 </g>
 <defs>
  <clipPath id="pdca95399f5">
   <rect x="180" y="69.12" width="1116" height="443.52"/>
  </clipPath>
 </defs>
</svg>
