<?xml version="1.0" encoding="utf-8" standalone="no"?>
<!DOCTYPE svg PUBLIC "-//W3C//DTD SVG 1.1//EN"
  "http://www.w3.org/Graphics/SVG/1.1/DTD/svg11.dtd">
<svg xmlns:xlink="http://www.w3.org/1999/xlink" width="1440pt" height="576pt" viewBox="0 0 1440 576" xmlns="http://www.w3.org/2000/svg" version="1.1">
 <metadata>
  <rdf:RDF xmlns:dc="http://purl.org/dc/elements/1.1/" xmlns:cc="http://creativecommons.org/ns#" xmlns:rdf="http://www.w3.org/1999/02/22-rdf-syntax-ns#">
   <cc:Work>
    <dc:type rdf:resource="http://purl.org/dc/dcmitype/StillImage"/>
    <dc:date>2024-05-22T04:49:50.644454</dc:date>
    <dc:format>image/svg+xml</dc:format>
    <dc:creator>
     <cc:Agent>
      <dc:title>Matplotlib v3.8.3, https://matplotlib.org/</dc:title>
     </cc:Agent>
    </dc:creator>
   </cc:Work>
  </rdf:RDF>
 </metadata>
 <defs>
  <style type="text/css">*{stroke-linejoin: round; stroke-linecap: butt}</style>
 </defs>
 <g id="figure_1">
  <g id="patch_1">
   <path d="M 0 576 
L 1440 576 
L 1440 0 
L 0 0 
z
" style="fill: #ffffff"/>
  </g>
  <g id="axes_1">
   <g id="patch_2">
    <path d="M 180 512.64 
L 1296 512.64 
L 1296 69.12 
L 180 69.12 
z
" style="fill: #ffffff"/>
   </g>
   <g id="matplotlib.axis_1">
    <g id="xtick_1">
     <g id="line2d_1">
      <defs>
       <path id="m14b4f65066" d="M 0 0 
L 0 3.5 
" style="stroke: #000000; stroke-width: 0.8"/>
      </defs>
      <g>
       <use xlink:href="#m14b4f65066" x="229.734567" y="512.64" style="stroke: #000000; stroke-width: 0.8"/>
      </g>
     </g>
     <g id="text_1">
      <!-- 0 -->
      <g transform="translate(226.553317 527.238438) scale(0.1 -0.1)">
       <defs>
        <path id="DejaVuSans-30" d="M 2034 4250 
Q 1547 4250 1301 3770 
Q 1056 3291 1056 2328 
Q 1056 1369 1301 889 
Q 1547 409 2034 409 
Q 2525 409 2770 889 
Q 3016 1369 3016 2328 
Q 3016 3291 2770 3770 
Q 2525 4250 2034 4250 
z
M 2034 4750 
Q 2819 4750 3233 4129 
Q 3647 3509 3647 2328 
Q 3647 1150 3233 529 
Q 2819 -91 2034 -91 
Q 1250 -91 836 529 
Q 422 1150 422 2328 
Q 422 3509 836 4129 
Q 1250 4750 2034 4750 
z
" transform="scale(0.015625)"/>
       </defs>
       <use xlink:href="#DejaVuSans-30"/>
      </g>
     </g>
    </g>
    <g id="xtick_2">
     <g id="line2d_2">
      <g>
       <use xlink:href="#m14b4f65066" x="433.04074" y="512.64" style="stroke: #000000; stroke-width: 0.8"/>
      </g>
     </g>
     <g id="text_2">
      <!-- 500 -->
      <g transform="translate(423.49699 527.238438) scale(0.1 -0.1)">
       <defs>
        <path id="DejaVuSans-35" d="M 691 4666 
L 3169 4666 
L 3169 4134 
L 1269 4134 
L 1269 2991 
Q 1406 3038 1543 3061 
Q 1681 3084 1819 3084 
Q 2600 3084 3056 2656 
Q 3513 2228 3513 1497 
Q 3513 744 3044 326 
Q 2575 -91 1722 -91 
Q 1428 -91 1123 -41 
Q 819 9 494 109 
L 494 744 
Q 775 591 1075 516 
Q 1375 441 1709 441 
Q 2250 441 2565 725 
Q 2881 1009 2881 1497 
Q 2881 1984 2565 2268 
Q 2250 2553 1709 2553 
Q 1456 2553 1204 2497 
Q 953 2441 691 2322 
L 691 4666 
z
" transform="scale(0.015625)"/>
       </defs>
       <use xlink:href="#DejaVuSans-35"/>
       <use xlink:href="#DejaVuSans-30" x="63.623047"/>
       <use xlink:href="#DejaVuSans-30" x="127.246094"/>
      </g>
     </g>
    </g>
    <g id="xtick_3">
     <g id="line2d_3">
      <g>
       <use xlink:href="#m14b4f65066" x="636.346913" y="512.64" style="stroke: #000000; stroke-width: 0.8"/>
      </g>
     </g>
     <g id="text_3">
      <!-- 1000 -->
      <g transform="translate(623.621913 527.238438) scale(0.1 -0.1)">
       <defs>
        <path id="DejaVuSans-31" d="M 794 531 
L 1825 531 
L 1825 4091 
L 703 3866 
L 703 4441 
L 1819 4666 
L 2450 4666 
L 2450 531 
L 3481 531 
L 3481 0 
L 794 0 
L 794 531 
z
" transform="scale(0.015625)"/>
       </defs>
       <use xlink:href="#DejaVuSans-31"/>
       <use xlink:href="#DejaVuSans-30" x="63.623047"/>
       <use xlink:href="#DejaVuSans-30" x="127.246094"/>
       <use xlink:href="#DejaVuSans-30" x="190.869141"/>
      </g>
     </g>
    </g>
    <g id="xtick_4">
     <g id="line2d_4">
      <g>
       <use xlink:href="#m14b4f65066" x="839.653087" y="512.64" style="stroke: #000000; stroke-width: 0.8"/>
      </g>
     </g>
     <g id="text_4">
      <!-- 1500 -->
      <g transform="translate(826.928087 527.238438) scale(0.1 -0.1)">
       <use xlink:href="#DejaVuSans-31"/>
       <use xlink:href="#DejaVuSans-35" x="63.623047"/>
       <use xlink:href="#DejaVuSans-30" x="127.246094"/>
       <use xlink:href="#DejaVuSans-30" x="190.869141"/>
      </g>
     </g>
    </g>
    <g id="xtick_5">
     <g id="line2d_5">
      <g>
       <use xlink:href="#m14b4f65066" x="1042.95926" y="512.64" style="stroke: #000000; stroke-width: 0.8"/>
      </g>
     </g>
     <g id="text_5">
      <!-- 2000 -->
      <g transform="translate(1030.23426 527.238438) scale(0.1 -0.1)">
       <defs>
        <path id="DejaVuSans-32" d="M 1228 531 
L 3431 531 
L 3431 0 
L 469 0 
L 469 531 
Q 828 903 1448 1529 
Q 2069 2156 2228 2338 
Q 2531 2678 2651 2914 
Q 2772 3150 2772 3378 
Q 2772 3750 2511 3984 
Q 2250 4219 1831 4219 
Q 1534 4219 1204 4116 
Q 875 4013 500 3803 
L 500 4441 
Q 881 4594 1212 4672 
Q 1544 4750 1819 4750 
Q 2544 4750 2975 4387 
Q 3406 4025 3406 3419 
Q 3406 3131 3298 2873 
Q 3191 2616 2906 2266 
Q 2828 2175 2409 1742 
Q 1991 1309 1228 531 
z
" transform="scale(0.015625)"/>
       </defs>
       <use xlink:href="#DejaVuSans-32"/>
       <use xlink:href="#DejaVuSans-30" x="63.623047"/>
       <use xlink:href="#DejaVuSans-30" x="127.246094"/>
       <use xlink:href="#DejaVuSans-30" x="190.869141"/>
      </g>
     </g>
    </g>
    <g id="xtick_6">
     <g id="line2d_6">
      <g>
       <use xlink:href="#m14b4f65066" x="1246.265433" y="512.64" style="stroke: #000000; stroke-width: 0.8"/>
      </g>
     </g>
     <g id="text_6">
      <!-- 2500 -->
      <g transform="translate(1233.540433 527.238438) scale(0.1 -0.1)">
       <use xlink:href="#DejaVuSans-32"/>
       <use xlink:href="#DejaVuSans-35" x="63.623047"/>
       <use xlink:href="#DejaVuSans-30" x="127.246094"/>
       <use xlink:href="#DejaVuSans-30" x="190.869141"/>
      </g>
     </g>
    </g>
   </g>
   <g id="matplotlib.axis_2">
    <g id="ytick_1">
     <g id="line2d_7">
      <defs>
       <path id="m20520c6c1c" d="M 0 0 
L -3.5 0 
" style="stroke: #000000; stroke-width: 0.8"/>
      </defs>
      <g>
       <use xlink:href="#m20520c6c1c" x="180" y="511.36494" style="stroke: #000000; stroke-width: 0.8"/>
      </g>
     </g>
     <g id="text_7">
      <!-- −5 -->
      <g transform="translate(158.257812 515.164159) scale(0.1 -0.1)">
       <defs>
        <path id="DejaVuSans-2212" d="M 678 2272 
L 4684 2272 
L 4684 1741 
L 678 1741 
L 678 2272 
z
" transform="scale(0.015625)"/>
       </defs>
       <use xlink:href="#DejaVuSans-2212"/>
       <use xlink:href="#DejaVuSans-35" x="83.789062"/>
      </g>
     </g>
    </g>
    <g id="ytick_2">
     <g id="line2d_8">
      <g>
       <use xlink:href="#m20520c6c1c" x="180" y="458.795923" style="stroke: #000000; stroke-width: 0.8"/>
      </g>
     </g>
     <g id="text_8">
      <!-- −4 -->
      <g transform="translate(158.257812 462.595142) scale(0.1 -0.1)">
       <defs>
        <path id="DejaVuSans-34" d="M 2419 4116 
L 825 1625 
L 2419 1625 
L 2419 4116 
z
M 2253 4666 
L 3047 4666 
L 3047 1625 
L 3713 1625 
L 3713 1100 
L 3047 1100 
L 3047 0 
L 2419 0 
L 2419 1100 
L 313 1100 
L 313 1709 
L 2253 4666 
z
" transform="scale(0.015625)"/>
       </defs>
       <use xlink:href="#DejaVuSans-2212"/>
       <use xlink:href="#DejaVuSans-34" x="83.789062"/>
      </g>
     </g>
    </g>
    <g id="ytick_3">
     <g id="line2d_9">
      <g>
       <use xlink:href="#m20520c6c1c" x="180" y="406.226906" style="stroke: #000000; stroke-width: 0.8"/>
      </g>
     </g>
     <g id="text_9">
      <!-- −3 -->
      <g transform="translate(158.257812 410.026125) scale(0.1 -0.1)">
       <defs>
        <path id="DejaVuSans-33" d="M 2597 2516 
Q 3050 2419 3304 2112 
Q 3559 1806 3559 1356 
Q 3559 666 3084 287 
Q 2609 -91 1734 -91 
Q 1441 -91 1130 -33 
Q 819 25 488 141 
L 488 750 
Q 750 597 1062 519 
Q 1375 441 1716 441 
Q 2309 441 2620 675 
Q 2931 909 2931 1356 
Q 2931 1769 2642 2001 
Q 2353 2234 1838 2234 
L 1294 2234 
L 1294 2753 
L 1863 2753 
Q 2328 2753 2575 2939 
Q 2822 3125 2822 3475 
Q 2822 3834 2567 4026 
Q 2313 4219 1838 4219 
Q 1578 4219 1281 4162 
Q 984 4106 628 3988 
L 628 4550 
Q 988 4650 1302 4700 
Q 1616 4750 1894 4750 
Q 2613 4750 3031 4423 
Q 3450 4097 3450 3541 
Q 3450 3153 3228 2886 
Q 3006 2619 2597 2516 
z
" transform="scale(0.015625)"/>
       </defs>
       <use xlink:href="#DejaVuSans-2212"/>
       <use xlink:href="#DejaVuSans-33" x="83.789062"/>
      </g>
     </g>
    </g>
    <g id="ytick_4">
     <g id="line2d_10">
      <g>
       <use xlink:href="#m20520c6c1c" x="180" y="353.657889" style="stroke: #000000; stroke-width: 0.8"/>
      </g>
     </g>
     <g id="text_10">
      <!-- −2 -->
      <g transform="translate(158.257812 357.457108) scale(0.1 -0.1)">
       <use xlink:href="#DejaVuSans-2212"/>
       <use xlink:href="#DejaVuSans-32" x="83.789062"/>
      </g>
     </g>
    </g>
    <g id="ytick_5">
     <g id="line2d_11">
      <g>
       <use xlink:href="#m20520c6c1c" x="180" y="301.088872" style="stroke: #000000; stroke-width: 0.8"/>
      </g>
     </g>
     <g id="text_11">
      <!-- −1 -->
      <g transform="translate(158.257812 304.888091) scale(0.1 -0.1)">
       <use xlink:href="#DejaVuSans-2212"/>
       <use xlink:href="#DejaVuSans-31" x="83.789062"/>
      </g>
     </g>
    </g>
    <g id="ytick_6">
     <g id="line2d_12">
      <g>
       <use xlink:href="#m20520c6c1c" x="180" y="248.519856" style="stroke: #000000; stroke-width: 0.8"/>
      </g>
     </g>
     <g id="text_12">
      <!-- 0 -->
      <g transform="translate(166.6375 252.319074) scale(0.1 -0.1)">
       <use xlink:href="#DejaVuSans-30"/>
      </g>
     </g>
    </g>
    <g id="ytick_7">
     <g id="line2d_13">
      <g>
       <use xlink:href="#m20520c6c1c" x="180" y="195.950839" style="stroke: #000000; stroke-width: 0.8"/>
      </g>
     </g>
     <g id="text_13">
      <!-- 1 -->
      <g transform="translate(166.6375 199.750057) scale(0.1 -0.1)">
       <use xlink:href="#DejaVuSans-31"/>
      </g>
     </g>
    </g>
    <g id="ytick_8">
     <g id="line2d_14">
      <g>
       <use xlink:href="#m20520c6c1c" x="180" y="143.381822" style="stroke: #000000; stroke-width: 0.8"/>
      </g>
     </g>
     <g id="text_14">
      <!-- 2 -->
      <g transform="translate(166.6375 147.18104) scale(0.1 -0.1)">
       <use xlink:href="#DejaVuSans-32"/>
      </g>
     </g>
    </g>
    <g id="ytick_9">
     <g id="line2d_15">
      <g>
       <use xlink:href="#m20520c6c1c" x="180" y="90.812805" style="stroke: #000000; stroke-width: 0.8"/>
      </g>
     </g>
     <g id="text_15">
      <!-- 3 -->
      <g transform="translate(166.6375 94.612024) scale(0.1 -0.1)">
       <use xlink:href="#DejaVuSans-33"/>
      </g>
     </g>
    </g>
   </g>
   <g id="line2d_16">
    <path d="M 230.727273 481.083458 
L 231.719979 454.120404 
L 232.712685 431.096614 
L 233.70539 414.328499 
L 234.698096 403.960794 
L 235.690802 391.770565 
L 239.661626 354.825968 
L 240.654332 347.8442 
L 244.625156 312.061181 
L 245.617862 309.25155 
L 246.610568 309.843643 
L 248.595979 238.828155 
L 249.588685 224.314483 
L 250.581391 236.160128 
L 251.574097 264.82355 
L 252.566803 196.310613 
L 253.559509 175.712977 
L 254.552215 177.319101 
L 255.544921 177.344913 
L 256.537627 158.496601 
L 257.530333 157.403918 
L 258.523039 162.140444 
L 259.515745 140.981999 
L 260.50845 137.62689 
L 261.501156 156.761685 
L 262.493862 129.094132 
L 263.486568 111.383412 
L 264.479274 132.472168 
L 265.47198 169.334398 
L 266.464686 108.409646 
L 267.457392 98.211614 
L 268.450098 100.659265 
L 269.442804 91.37926 
L 270.43551 89.28 
L 271.428216 100.828547 
L 272.420922 99.709989 
L 273.413627 95.675057 
L 275.399039 129.72539 
L 276.391745 122.703784 
L 277.384451 140.071083 
L 278.377157 155.361008 
L 279.369863 136.877779 
L 280.362569 155.45002 
L 281.355275 131.219663 
L 282.347981 96.582788 
L 283.340687 91.783937 
L 284.333393 113.056668 
L 285.326099 153.525949 
L 286.318804 126.901267 
L 287.31151 125.353166 
L 288.304216 150.141771 
L 289.296922 160.718109 
L 290.289628 174.96393 
L 291.282334 274.06559 
L 292.27504 185.117064 
L 293.267746 189.047646 
L 294.260452 269.768044 
L 295.253158 208.601711 
L 296.245864 211.954604 
L 297.23857 260.673687 
L 298.231276 262.286712 
L 300.216687 214.082909 
L 301.209393 228.756898 
L 302.202099 285.904937 
L 303.194805 230.128607 
L 304.187511 238.552987 
L 305.180217 311.140565 
L 306.172923 245.778472 
L 307.165629 254.542572 
L 308.158335 299.9647 
L 309.151041 282.287414 
L 310.143747 291.057925 
L 311.136453 318.883043 
L 312.129159 285.728188 
L 313.121864 284.239903 
L 314.11457 297.571183 
L 315.107276 303.399551 
L 316.099982 302.075301 
L 317.092688 315.076629 
L 318.085394 294.9476 
L 319.0781 311.305083 
L 320.070806 319.729123 
L 321.063512 310.973918 
L 322.056218 325.535281 
L 323.048924 308.861331 
L 324.04163 317.695193 
L 325.034336 320.826576 
L 326.027041 322.687767 
L 327.019747 315.882324 
L 328.012453 336.02359 
L 329.005159 314.366312 
L 329.997865 331.073363 
L 331.983277 322.863317 
L 332.975983 313.602924 
L 333.968689 326.880791 
L 334.961395 328.865284 
L 335.954101 326.926998 
L 336.946807 333.461128 
L 337.939513 337.289391 
L 338.932218 326.441206 
L 339.924924 336.50047 
L 340.91763 332.389216 
L 341.910336 333.642515 
L 342.903042 341.25028 
L 343.895748 327.161676 
L 344.888454 349.781436 
L 345.88116 349.158813 
L 346.873866 341.611159 
L 347.866572 339.683156 
L 348.859278 339.708129 
L 349.851984 357.888641 
L 350.84469 356.538998 
L 351.837395 339.362398 
L 352.830101 339.798144 
L 353.822807 348.963393 
L 354.815513 344.081295 
L 355.808219 341.284434 
L 356.800925 343.205369 
L 357.793631 346.645368 
L 358.786337 348.58005 
L 359.779043 347.046688 
L 360.771749 342.661731 
L 361.764455 353.179336 
L 362.757161 349.228574 
L 363.749867 359.589563 
L 364.742572 355.079244 
L 365.735278 367.371307 
L 366.727984 343.728101 
L 367.72069 369.084351 
L 368.713396 353.498338 
L 369.706102 380.926466 
L 370.698808 373.27204 
L 371.691514 364.607786 
L 372.68422 347.508907 
L 373.676926 371.268655 
L 374.669632 369.944806 
L 375.662338 385.363275 
L 376.655044 373.642389 
L 377.64775 357.243915 
L 378.640455 351.941041 
L 379.633161 383.308485 
L 380.625867 355.496778 
L 381.618573 362.797711 
L 382.611279 375.842215 
L 383.603985 367.216305 
L 384.596691 362.228013 
L 385.589397 353.128443 
L 386.582103 375.217917 
L 387.574809 362.343156 
L 388.567515 360.52473 
L 390.552927 369.808329 
L 391.545632 355.919728 
L 392.538338 385.578833 
L 393.531044 357.953345 
L 394.52375 387.69996 
L 395.516456 403.526799 
L 396.509162 492.48 
L 397.501868 378.956487 
L 398.494574 393.658648 
L 399.48728 358.970209 
L 400.479986 429.679936 
L 401.472692 370.244596 
L 402.465398 393.515124 
L 403.458104 363.653941 
L 404.450809 356.181388 
L 405.443515 373.922719 
L 406.436221 377.559558 
L 408.421633 393.121535 
L 409.414339 414.824451 
L 411.399751 377.460937 
L 412.392457 363.123908 
L 413.385163 437.276047 
L 414.377869 387.855891 
L 415.370575 373.418924 
L 416.363281 365.944891 
L 417.355986 365.9863 
L 418.348692 349.211914 
L 419.341398 395.224189 
L 420.334104 364.024605 
L 421.32681 347.481365 
L 422.319516 390.858628 
L 423.312222 367.656027 
L 424.304928 364.740128 
L 425.297634 366.886717 
L 426.29034 383.40087 
L 427.283046 381.537944 
L 428.275752 392.001846 
L 429.268458 360.924709 
L 430.261163 399.311332 
L 431.253869 416.536565 
L 432.246575 385.519652 
L 433.239281 375.69753 
L 434.231987 394.727027 
L 435.224693 400.995322 
L 436.217399 380.394075 
L 437.210105 348.606143 
L 438.202811 360.90647 
L 439.195517 384.250155 
L 440.188223 378.067052 
L 441.180929 370.593002 
L 442.173635 343.853793 
L 443.166341 398.636691 
L 444.159046 358.829905 
L 445.151752 442.984882 
L 446.144458 376.018219 
L 447.137164 400.458859 
L 448.12987 372.145308 
L 449.122576 392.176819 
L 450.115282 387.414401 
L 451.107988 413.886076 
L 452.100694 383.176038 
L 453.0934 369.680792 
L 454.086106 401.213142 
L 455.078812 424.153838 
L 456.071518 387.528317 
L 457.064223 433.734363 
L 458.056929 373.917383 
L 459.049635 375.976939 
L 461.035047 416.788836 
L 463.020459 387.633042 
L 464.013165 424.792303 
L 465.005871 395.47591 
L 465.998577 382.706595 
L 466.991283 479.169018 
L 467.983989 410.398104 
L 468.976695 365.374609 
L 469.9694 374.484684 
L 470.962106 404.657462 
L 471.954812 406.48191 
L 472.947518 388.207964 
L 473.940224 401.643852 
L 474.93293 388.722238 
L 475.925636 422.684129 
L 476.918342 374.074895 
L 477.911048 419.056305 
L 478.903754 398.198408 
L 479.89646 468.298387 
L 480.889166 429.139789 
L 481.881872 379.848078 
L 482.874577 372.854572 
L 483.867283 370.920772 
L 484.859989 403.534835 
L 485.852695 398.162681 
L 486.845401 395.992972 
L 487.838107 383.395596 
L 488.830813 390.508699 
L 489.823519 411.21556 
L 490.816225 417.673068 
L 491.808931 469.752677 
L 492.801637 378.410588 
L 493.794343 374.808817 
L 494.787049 372.04217 
L 495.779754 414.282371 
L 496.77246 430.193001 
L 497.765166 490.866056 
L 498.757872 413.33097 
L 499.750578 437.78386 
L 500.743284 377.66054 
L 501.73599 390.771873 
L 502.728696 387.96581 
L 503.721402 442.036275 
L 504.714108 401.553681 
L 505.706814 409.193931 
L 506.69952 414.872192 
L 507.692226 401.838814 
L 508.684932 405.433784 
L 509.677637 451.151133 
L 510.670343 366.525425 
L 511.663049 363.904245 
L 512.655755 403.377014 
L 513.648461 363.640066 
L 514.641167 413.140131 
L 515.633873 416.757961 
L 516.626579 385.446235 
L 517.619285 428.513245 
L 518.611991 375.196491 
L 519.604697 416.982231 
L 520.597403 403.724148 
L 521.590109 386.659658 
L 522.582814 440.7716 
L 523.57552 401.314193 
L 524.568226 412.983843 
L 525.560932 372.973969 
L 526.553638 405.103291 
L 527.546344 424.073481 
L 528.53905 366.376652 
L 529.531756 410.394548 
L 530.524462 373.020095 
L 531.517168 412.609923 
L 532.509874 421.608722 
L 534.495286 381.616581 
L 535.487991 381.886085 
L 536.480697 375.57691 
L 537.473403 439.302032 
L 538.466109 387.485517 
L 539.458815 382.951719 
L 540.451521 427.443991 
L 541.444227 362.036329 
L 542.436933 361.127058 
L 543.429639 374.808615 
L 544.422345 447.996179 
L 545.415051 424.808253 
L 546.407757 442.479147 
L 547.400463 384.005106 
L 548.393168 374.968777 
L 549.385874 392.930747 
L 550.37858 406.52374 
L 551.371286 370.16025 
L 552.363992 373.041465 
L 553.356698 388.631424 
L 554.349404 401.945273 
L 555.34211 369.560003 
L 556.334816 415.578 
L 557.327522 473.158264 
L 558.320228 381.794717 
L 559.312934 373.627216 
L 560.30564 397.388217 
L 561.298345 393.003952 
L 562.291051 391.596571 
L 563.283757 404.897401 
L 564.276463 405.006326 
L 565.269169 385.219105 
L 566.261875 396.75826 
L 567.254581 418.863826 
L 568.247287 415.810522 
L 569.239993 473.062928 
L 570.232699 425.945099 
L 571.225405 397.988583 
L 572.218111 399.009234 
L 573.210817 390.046428 
L 574.203523 412.828868 
L 575.196228 376.856183 
L 576.188934 410.778012 
L 577.18164 460.020179 
L 578.174346 407.018679 
L 579.167052 397.223762 
L 580.159758 420.703966 
L 581.152464 448.692345 
L 582.14517 411.097078 
L 583.137876 401.413359 
L 584.130582 423.895743 
L 585.123288 441.91714 
L 586.115994 446.839331 
L 587.1087 404.032384 
L 588.101405 427.191087 
L 589.094111 467.258908 
L 590.086817 398.75893 
L 591.079523 457.744872 
L 592.072229 476.48539 
L 593.064935 430.791279 
L 594.057641 461.590398 
L 595.050347 414.362241 
L 596.043053 409.500563 
L 597.035759 405.615108 
L 598.028465 436.64928 
L 599.021171 429.008515 
L 600.013877 406.124195 
L 601.006582 430.889049 
L 601.999288 419.485468 
L 602.991994 459.268011 
L 603.9847 449.070661 
L 604.977406 427.776555 
L 605.970112 454.717571 
L 606.962818 428.163057 
L 607.955524 388.226008 
L 608.94823 433.498446 
L 609.940936 433.957435 
L 610.933642 404.711484 
L 611.926348 415.879008 
L 612.919054 408.045485 
L 613.911759 415.977321 
L 614.904465 413.34752 
L 615.897171 399.761844 
L 616.889877 410.073825 
L 617.882583 423.396502 
L 618.875289 426.602058 
L 619.867995 409.612677 
L 620.860701 405.167792 
L 621.853407 426.834806 
L 623.838819 419.568771 
L 624.831525 409.059527 
L 625.824231 442.120131 
L 626.816936 421.406623 
L 627.809642 428.068113 
L 628.802348 433.762412 
L 630.78776 477.533504 
L 631.780466 414.676897 
L 632.773172 409.036735 
L 633.765878 423.180875 
L 634.758584 447.7486 
L 635.75129 414.623987 
L 636.743996 405.077389 
L 637.736702 414.475827 
L 638.729408 431.112903 
L 639.722114 427.298813 
L 640.714819 475.415626 
L 641.707525 425.334325 
L 642.700231 422.716492 
L 643.692937 449.724435 
L 644.685643 420.638758 
L 645.678349 421.255182 
L 646.671055 423.120287 
L 647.663761 431.930109 
L 648.656467 435.358357 
L 649.649173 422.50849 
L 650.641879 442.358023 
L 651.634585 437.455004 
L 653.619996 420.156269 
L 654.612702 426.288987 
L 655.605408 430.077452 
L 656.598114 420.74346 
L 658.583526 435.797575 
L 659.576232 437.903656 
L 660.568938 440.981224 
L 661.561644 435.882384 
L 662.55435 432.298051 
L 663.547056 417.771099 
L 664.539762 437.225751 
L 665.532468 444.340864 
L 666.525173 431.69351 
L 667.517879 428.504021 
L 668.510585 433.449566 
L 669.503291 428.536067 
L 670.495997 439.334218 
L 671.488703 439.833026 
L 672.481409 436.538691 
L 673.474115 439.652092 
L 674.466821 436.090727 
L 675.459527 431.480323 
L 676.452233 434.017809 
L 677.444939 428.206177 
L 678.437645 441.683815 
L 679.43035 434.265686 
L 680.423056 433.655047 
L 681.415762 442.381638 
L 682.408468 438.481792 
L 683.401174 428.590512 
L 684.39388 433.053965 
L 685.386586 435.357188 
L 686.379292 431.354225 
L 687.371998 434.674708 
L 688.364704 441.578274 
L 689.35741 433.507926 
L 690.350116 434.844498 
L 691.342822 434.927585 
L 692.335527 437.667115 
L 693.328233 438.577575 
L 694.320939 431.944572 
L 695.313645 439.984164 
L 696.306351 435.479154 
L 697.299057 431.899809 
L 698.291763 442.763179 
L 699.284469 433.612012 
L 700.277175 438.11973 
L 701.269881 440.515628 
L 702.262587 441.355149 
L 703.255293 433.906509 
L 704.247999 435.012779 
L 705.240705 435.764804 
L 706.23341 435.276278 
L 707.226116 440.192095 
L 708.218822 435.07562 
L 709.211528 435.146296 
L 710.204234 437.77826 
L 711.19694 437.219302 
L 712.189646 433.892464 
L 713.182352 434.711363 
L 714.175058 443.322611 
L 715.167764 439.156089 
L 716.16047 438.156312 
L 717.153176 436.33801 
L 718.145882 439.432229 
L 719.138587 441.081797 
L 720.131293 438.80964 
L 721.123999 439.828117 
L 722.116705 437.206986 
L 723.109411 436.698968 
L 724.102117 442.488627 
L 726.087529 437.05058 
L 727.080235 440.907625 
L 728.072941 439.344717 
L 729.065647 436.473981 
L 730.058353 438.730096 
L 731.051059 442.253144 
L 732.043764 437.926581 
L 733.03647 440.305745 
L 734.029176 439.993847 
L 735.021882 438.189691 
L 736.014588 441.463919 
L 737.007294 443.529849 
L 738 444.157032 
L 738.992706 438.629071 
L 739.985412 437.903442 
L 740.978118 444.159448 
L 741.970824 441.784921 
L 742.96353 440.55484 
L 743.956236 442.511565 
L 744.948941 443.607369 
L 745.941647 442.018675 
L 746.934353 439.266369 
L 747.927059 441.609255 
L 748.919765 436.768486 
L 749.912471 440.854144 
L 750.905177 443.296005 
L 752.890589 442.734338 
L 753.883295 439.93026 
L 754.876001 441.910894 
L 755.868707 444.563529 
L 756.861413 442.510028 
L 757.854118 442.910579 
L 758.846824 440.204128 
L 759.83953 447.151256 
L 760.832236 441.29035 
L 761.824942 446.569757 
L 762.817648 442.011305 
L 763.810354 448.127787 
L 764.80306 441.644686 
L 765.795766 441.398828 
L 766.788472 444.584778 
L 767.781178 442.141158 
L 768.773884 444.993456 
L 769.76659 439.039918 
L 770.759295 442.923296 
L 771.752001 442.256887 
L 772.744707 441.859174 
L 773.737413 447.344094 
L 774.730119 443.008081 
L 775.722825 445.254224 
L 776.715531 444.601446 
L 777.708237 447.366632 
L 778.700943 440.641871 
L 780.686355 446.594941 
L 781.679061 446.646955 
L 782.671767 442.491941 
L 783.664473 445.565583 
L 784.657178 444.252745 
L 785.649884 442.405794 
L 786.64259 447.207985 
L 787.635296 444.240544 
L 788.628002 446.884751 
L 789.620708 442.719932 
L 790.613414 445.502346 
L 791.60612 444.293733 
L 792.598826 445.920305 
L 793.591532 445.631977 
L 794.584238 444.885782 
L 795.576944 440.924321 
L 796.56965 444.688961 
L 797.562355 443.754955 
L 798.555061 443.74171 
L 799.547767 442.626548 
L 800.540473 448.312736 
L 801.533179 443.189898 
L 802.525885 447.809295 
L 803.518591 447.217358 
L 804.511297 445.322462 
L 805.504003 446.959901 
L 806.496709 447.072657 
L 807.489415 445.720771 
L 808.482121 445.470956 
L 809.474827 448.897001 
L 810.467532 446.523324 
L 811.460238 447.250009 
L 812.452944 448.183853 
L 813.44565 445.032181 
L 814.438356 448.867675 
L 815.431062 445.161497 
L 816.423768 447.776062 
L 817.416474 448.140498 
L 818.40918 443.432292 
L 819.401886 449.773256 
L 820.394592 443.800484 
L 821.387298 448.712571 
L 822.380004 450.326212 
L 823.372709 444.806702 
L 824.365415 445.660379 
L 825.358121 450.461522 
L 826.350827 446.897137 
L 827.343533 447.963531 
L 828.336239 451.592652 
L 829.328945 447.076701 
L 830.321651 448.768396 
L 831.314357 448.908805 
L 832.307063 448.063232 
L 833.299769 450.024092 
L 834.292475 446.524913 
L 835.285181 449.960998 
L 836.277886 452.611483 
L 838.263298 446.851945 
L 839.256004 448.398744 
L 840.24871 447.417832 
L 841.241416 452.447129 
L 842.234122 449.660084 
L 843.226828 448.965673 
L 844.219534 449.229379 
L 845.21224 447.086052 
L 846.204946 450.052488 
L 847.197652 445.75132 
L 848.190358 449.392314 
L 849.183064 448.340814 
L 850.175769 448.262572 
L 851.168475 447.285828 
L 852.161181 451.040741 
L 853.153887 448.040085 
L 854.146593 449.307028 
L 855.139299 444.836759 
L 856.132005 449.673896 
L 857.124711 446.837175 
L 858.117417 447.209617 
L 859.110123 446.844554 
L 860.102829 449.020004 
L 861.095535 450.026455 
L 862.088241 449.284088 
L 863.080946 451.869448 
L 864.073652 447.846042 
L 865.066358 451.451093 
L 866.059064 450.883568 
L 867.05177 448.151506 
L 868.044476 449.241377 
L 869.037182 449.51555 
L 870.029888 446.697234 
L 871.022594 450.779775 
L 872.0153 455.89086 
L 873.008006 450.984059 
L 874.000712 450.554396 
L 874.993418 448.333886 
L 875.986123 451.973146 
L 876.978829 452.851193 
L 877.971535 449.513775 
L 878.964241 448.786467 
L 879.956947 450.055054 
L 880.949653 452.659002 
L 881.942359 449.672742 
L 882.935065 452.701927 
L 883.927771 450.477843 
L 884.920477 452.398335 
L 885.913183 449.353342 
L 886.905889 447.242147 
L 887.898595 453.045371 
L 888.8913 452.716321 
L 889.884006 450.947633 
L 891.869418 452.147175 
L 892.862124 451.559919 
L 893.85483 448.406564 
L 894.847536 453.281586 
L 895.840242 449.986559 
L 896.832948 454.846383 
L 897.825654 451.975417 
L 898.81836 450.359993 
L 899.811066 447.935922 
L 900.803772 452.146244 
L 901.796477 454.162759 
L 902.789183 449.205869 
L 903.781889 450.332827 
L 904.774595 452.152957 
L 905.767301 452.937999 
L 906.760007 454.639041 
L 907.752713 451.400868 
L 908.745419 453.119622 
L 909.738125 449.743085 
L 910.730831 451.757031 
L 912.716243 452.257932 
L 913.708949 453.102949 
L 914.701655 453.661556 
L 915.69436 451.956031 
L 916.687066 449.540383 
L 917.679772 456.366604 
L 918.672478 454.251926 
L 919.665184 450.852245 
L 920.65789 451.411222 
L 921.650596 453.827028 
L 922.643302 451.17484 
L 923.636008 454.154945 
L 924.628714 453.59724 
L 926.614126 456.832748 
L 927.606832 456.546739 
L 928.599537 453.113521 
L 929.592243 455.297467 
L 930.584949 452.544737 
L 931.577655 452.957501 
L 932.570361 452.513962 
L 933.563067 455.32701 
L 934.555773 456.161836 
L 935.548479 454.547101 
L 936.541185 456.780704 
L 937.533891 450.622957 
L 938.526597 455.422654 
L 939.519303 450.680882 
L 940.512009 449.353627 
L 941.504714 452.519505 
L 942.49742 450.683305 
L 943.490126 454.885928 
L 944.482832 456.007915 
L 945.475538 455.129507 
L 946.468244 454.922584 
L 947.46095 456.957782 
L 948.453656 450.061697 
L 949.446362 452.451736 
L 950.439068 453.141307 
L 951.431774 455.05564 
L 952.42448 458.152719 
L 953.417186 455.194063 
L 954.409891 454.08815 
L 955.402597 449.464641 
L 956.395303 449.537209 
L 957.388009 454.979151 
L 958.380715 454.126719 
L 959.373421 456.635903 
L 960.366127 455.351989 
L 961.358833 458.210518 
L 962.351539 454.917527 
L 963.344245 453.359518 
L 964.336951 453.563275 
L 965.329657 451.45173 
L 966.322363 453.655438 
L 968.307774 456.69545 
L 969.30048 457.182194 
L 970.293186 451.328538 
L 971.285892 453.182384 
L 972.278598 457.080899 
L 973.271304 451.588972 
L 974.26401 452.915525 
L 975.256716 458.917032 
L 976.249422 456.257531 
L 977.242128 456.767188 
L 978.234834 456.363227 
L 980.220246 453.165294 
L 981.212951 453.827525 
L 982.205657 455.053218 
L 983.198363 456.819778 
L 984.191069 452.537519 
L 985.183775 455.845694 
L 986.176481 458.085781 
L 987.169187 457.239555 
L 988.161893 450.62438 
L 989.154599 455.201465 
L 990.147305 452.133346 
L 991.140011 456.677527 
L 992.132717 453.405762 
L 993.125423 458.128542 
L 994.118128 455.226031 
L 995.110834 456.434803 
L 996.10354 454.000791 
L 997.096246 457.341895 
L 998.088952 455.963689 
L 999.081658 457.27514 
L 1000.074364 462.532111 
L 1001.06707 455.985048 
L 1002.059776 455.791122 
L 1003.052482 458.221253 
L 1004.045188 455.447629 
L 1005.037894 456.044692 
L 1006.0306 456.028796 
L 1007.023305 456.771633 
L 1008.016011 455.565152 
L 1009.008717 452.564878 
L 1010.001423 458.787438 
L 1010.994129 455.093161 
L 1011.986835 453.996076 
L 1012.979541 453.339963 
L 1013.972247 454.161895 
L 1015.957659 454.246688 
L 1016.950365 459.254192 
L 1017.943071 460.156458 
L 1019.928482 454.200555 
L 1020.921188 454.388909 
L 1021.913894 456.685096 
L 1022.9066 454.893127 
L 1023.899306 454.210097 
L 1024.892012 458.555403 
L 1025.884718 457.998224 
L 1026.877424 454.806826 
L 1027.87013 458.829828 
L 1028.862836 455.897067 
L 1029.855542 454.758759 
L 1030.848248 455.413418 
L 1031.840954 457.557413 
L 1032.833659 458.139201 
L 1033.826365 453.446847 
L 1034.819071 459.864523 
L 1035.811777 458.016625 
L 1036.804483 458.535825 
L 1037.797189 455.52438 
L 1038.789895 457.801168 
L 1039.782601 459.519877 
L 1040.775307 457.292421 
L 1041.768013 457.30959 
L 1042.760719 453.391454 
L 1043.753425 459.644054 
L 1044.746131 456.557543 
L 1045.738837 458.613968 
L 1046.731542 455.683733 
L 1047.724248 460.410363 
L 1048.716954 454.414297 
L 1049.70966 457.532127 
L 1050.702366 459.053971 
L 1051.695072 458.601617 
L 1052.687778 456.461577 
L 1053.680484 456.668042 
L 1054.67319 465.042618 
L 1055.665896 455.75403 
L 1056.658602 457.621413 
L 1057.651308 455.936318 
L 1058.644014 457.093288 
L 1059.636719 457.857804 
L 1060.629425 456.580494 
L 1061.622131 458.857676 
L 1062.614837 460.316545 
L 1063.607543 456.820884 
L 1064.600249 455.822948 
L 1065.592955 455.912348 
L 1066.585661 456.172619 
L 1067.578367 458.028608 
L 1068.571073 455.431867 
L 1069.563779 458.751332 
L 1070.556485 458.795852 
L 1071.549191 458.536044 
L 1072.541896 457.420216 
L 1073.534602 454.972259 
L 1074.527308 457.753029 
L 1075.520014 458.196378 
L 1076.51272 457.965465 
L 1077.505426 460.49193 
L 1078.498132 460.851895 
L 1079.490838 457.137006 
L 1080.483544 456.565338 
L 1081.47625 455.102694 
L 1082.468956 454.576669 
L 1083.461662 463.491728 
L 1084.454368 456.927095 
L 1085.447073 458.598492 
L 1086.439779 461.704059 
L 1087.432485 460.565367 
L 1088.425191 457.798419 
L 1089.417897 460.741671 
L 1090.410603 458.206911 
L 1091.403309 457.792876 
L 1092.396015 457.106581 
L 1093.388721 458.785572 
L 1094.381427 459.30526 
L 1095.374133 457.632959 
L 1096.366839 459.301876 
L 1097.359545 462.511139 
L 1098.35225 459.725644 
L 1099.344956 458.542842 
L 1100.337662 458.89143 
L 1101.330368 456.055393 
L 1102.323074 454.861224 
L 1103.31578 457.438857 
L 1104.308486 457.321142 
L 1105.301192 460.060089 
L 1106.293898 458.810706 
L 1107.286604 458.597046 
L 1108.27931 457.624599 
L 1109.272016 455.161211 
L 1110.264722 457.892972 
L 1111.257428 458.328541 
L 1112.250133 459.167145 
L 1113.242839 458.77979 
L 1114.235545 457.490883 
L 1115.228251 457.436648 
L 1116.220957 465.940454 
L 1117.213663 455.410465 
L 1118.206369 459.471613 
L 1119.199075 455.396296 
L 1120.191781 462.158392 
L 1121.184487 459.63682 
L 1122.177193 461.044089 
L 1123.169899 461.741175 
L 1124.162605 456.908327 
L 1125.15531 456.734812 
L 1126.148016 459.152115 
L 1127.140722 456.502652 
L 1128.133428 458.985132 
L 1129.126134 458.130374 
L 1130.11884 463.651901 
L 1132.104252 457.116869 
L 1133.096958 459.665603 
L 1134.089664 459.380805 
L 1136.075076 454.615646 
L 1137.067782 456.621473 
L 1138.060487 462.606548 
L 1139.053193 460.91056 
L 1140.045899 461.696 
L 1141.038605 459.874984 
L 1142.031311 462.008486 
L 1144.016723 461.403889 
L 1145.009429 458.998998 
L 1146.002135 456.931299 
L 1146.994841 459.272261 
L 1147.987547 457.461513 
L 1148.980253 459.021435 
L 1149.972959 458.392965 
L 1150.965664 460.947231 
L 1151.95837 460.9428 
L 1152.951076 461.298029 
L 1153.943782 456.347696 
L 1154.936488 457.09846 
L 1155.929194 456.194734 
L 1156.9219 456.774903 
L 1157.914606 458.935754 
L 1158.907312 462.120164 
L 1159.900018 459.022796 
L 1160.892724 461.827995 
L 1161.88543 458.419717 
L 1162.878136 463.260701 
L 1163.870841 454.58282 
L 1164.863547 459.910949 
L 1165.856253 462.018207 
L 1166.848959 457.97793 
L 1167.841665 458.063059 
L 1168.834371 458.672028 
L 1169.827077 460.57406 
L 1170.819783 456.111698 
L 1171.812489 458.583172 
L 1172.805195 455.748491 
L 1173.797901 460.172762 
L 1174.790607 461.150485 
L 1175.783313 459.898363 
L 1176.776019 461.170497 
L 1177.768724 458.13892 
L 1178.76143 462.342335 
L 1179.754136 464.667336 
L 1180.746842 459.763675 
L 1181.739548 459.276583 
L 1182.732254 459.491498 
L 1183.72496 462.603213 
L 1184.717666 460.819949 
L 1185.710372 457.877418 
L 1187.695784 458.705941 
L 1188.68849 456.662849 
L 1189.681196 457.110761 
L 1190.673901 456.215952 
L 1191.666607 463.796571 
L 1192.659313 459.843547 
L 1194.644725 459.973512 
L 1195.637431 460.980501 
L 1196.630137 461.73308 
L 1198.615549 459.929256 
L 1199.608255 455.22176 
L 1200.600961 460.826417 
L 1201.593667 462.83714 
L 1202.586373 460.341398 
L 1203.579078 462.405548 
L 1204.571784 462.930604 
L 1205.56449 462.02822 
L 1206.557196 457.143414 
L 1207.549902 463.626853 
L 1208.542608 458.642244 
L 1209.535314 462.137486 
L 1210.52802 463.115389 
L 1211.520726 460.396969 
L 1212.513432 464.555854 
L 1213.506138 460.735347 
L 1214.498844 462.558689 
L 1215.49155 465.648517 
L 1216.484255 457.901204 
L 1217.476961 456.441446 
L 1218.469667 460.875839 
L 1219.462373 459.431461 
L 1220.455079 458.88428 
L 1221.447785 456.358929 
L 1222.440491 463.086755 
L 1223.433197 461.787979 
L 1224.425903 464.609345 
L 1225.418609 459.466945 
L 1226.411315 464.653496 
L 1227.404021 460.241754 
L 1228.396727 457.683453 
L 1229.389432 460.986775 
L 1230.382138 463.116616 
L 1231.374844 459.11979 
L 1232.36755 455.74246 
L 1233.360256 457.303805 
L 1234.352962 459.433507 
L 1235.345668 458.532848 
L 1236.338374 461.316322 
L 1237.33108 461.930516 
L 1238.323786 461.214708 
L 1239.316492 459.252092 
L 1240.309198 461.385202 
L 1241.301904 465.331637 
L 1242.29461 457.804984 
L 1243.287315 460.571024 
L 1244.280021 462.996627 
L 1245.272727 460.027554 
L 1245.272727 460.027554 
" clip-path="url(#pee592e6ad9)" style="fill: none; stroke: #1f77b4; stroke-width: 1.5; stroke-linecap: square"/>
   </g>
   <g id="patch_3">
    <path d="M 180 512.64 
L 180 69.12 
" style="fill: none; stroke: #000000; stroke-width: 0.8; stroke-linejoin: miter; stroke-linecap: square"/>
   </g>
   <g id="patch_4">
    <path d="M 1296 512.64 
L 1296 69.12 
" style="fill: none; stroke: #000000; stroke-width: 0.8; stroke-linejoin: miter; stroke-linecap: square"/>
   </g>
   <g id="patch_5">
    <path d="M 180 512.64 
L 1296 512.64 
" style="fill: none; stroke: #000000; stroke-width: 0.8; stroke-linejoin: miter; stroke-linecap: square"/>
   </g>
   <g id="patch_6">
    <path d="M 180 69.12 
L 1296 69.12 
" style="fill: none; stroke: #000000; stroke-width: 0.8; stroke-linejoin: miter; stroke-linecap: square"/>
   </g>
   <g id="text_16">
    <!-- source6-receiver24 -->
    <g transform="translate(544.9 60.80125) scale(0.4 -0.4)">
     <defs>
      <path id="DejaVuSans-73" d="M 2834 3397 
L 2834 2853 
Q 2591 2978 2328 3040 
Q 2066 3103 1784 3103 
Q 1356 3103 1142 2972 
Q 928 2841 928 2578 
Q 928 2378 1081 2264 
Q 1234 2150 1697 2047 
L 1894 2003 
Q 2506 1872 2764 1633 
Q 3022 1394 3022 966 
Q 3022 478 2636 193 
Q 2250 -91 1575 -91 
Q 1294 -91 989 -36 
Q 684 19 347 128 
L 347 722 
Q 666 556 975 473 
Q 1284 391 1588 391 
Q 1994 391 2212 530 
Q 2431 669 2431 922 
Q 2431 1156 2273 1281 
Q 2116 1406 1581 1522 
L 1381 1569 
Q 847 1681 609 1914 
Q 372 2147 372 2553 
Q 372 3047 722 3315 
Q 1072 3584 1716 3584 
Q 2034 3584 2315 3537 
Q 2597 3491 2834 3397 
z
" transform="scale(0.015625)"/>
      <path id="DejaVuSans-6f" d="M 1959 3097 
Q 1497 3097 1228 2736 
Q 959 2375 959 1747 
Q 959 1119 1226 758 
Q 1494 397 1959 397 
Q 2419 397 2687 759 
Q 2956 1122 2956 1747 
Q 2956 2369 2687 2733 
Q 2419 3097 1959 3097 
z
M 1959 3584 
Q 2709 3584 3137 3096 
Q 3566 2609 3566 1747 
Q 3566 888 3137 398 
Q 2709 -91 1959 -91 
Q 1206 -91 779 398 
Q 353 888 353 1747 
Q 353 2609 779 3096 
Q 1206 3584 1959 3584 
z
" transform="scale(0.015625)"/>
      <path id="DejaVuSans-75" d="M 544 1381 
L 544 3500 
L 1119 3500 
L 1119 1403 
Q 1119 906 1312 657 
Q 1506 409 1894 409 
Q 2359 409 2629 706 
Q 2900 1003 2900 1516 
L 2900 3500 
L 3475 3500 
L 3475 0 
L 2900 0 
L 2900 538 
Q 2691 219 2414 64 
Q 2138 -91 1772 -91 
Q 1169 -91 856 284 
Q 544 659 544 1381 
z
M 1991 3584 
L 1991 3584 
z
" transform="scale(0.015625)"/>
      <path id="DejaVuSans-72" d="M 2631 2963 
Q 2534 3019 2420 3045 
Q 2306 3072 2169 3072 
Q 1681 3072 1420 2755 
Q 1159 2438 1159 1844 
L 1159 0 
L 581 0 
L 581 3500 
L 1159 3500 
L 1159 2956 
Q 1341 3275 1631 3429 
Q 1922 3584 2338 3584 
Q 2397 3584 2469 3576 
Q 2541 3569 2628 3553 
L 2631 2963 
z
" transform="scale(0.015625)"/>
      <path id="DejaVuSans-63" d="M 3122 3366 
L 3122 2828 
Q 2878 2963 2633 3030 
Q 2388 3097 2138 3097 
Q 1578 3097 1268 2742 
Q 959 2388 959 1747 
Q 959 1106 1268 751 
Q 1578 397 2138 397 
Q 2388 397 2633 464 
Q 2878 531 3122 666 
L 3122 134 
Q 2881 22 2623 -34 
Q 2366 -91 2075 -91 
Q 1284 -91 818 406 
Q 353 903 353 1747 
Q 353 2603 823 3093 
Q 1294 3584 2113 3584 
Q 2378 3584 2631 3529 
Q 2884 3475 3122 3366 
z
" transform="scale(0.015625)"/>
      <path id="DejaVuSans-65" d="M 3597 1894 
L 3597 1613 
L 953 1613 
Q 991 1019 1311 708 
Q 1631 397 2203 397 
Q 2534 397 2845 478 
Q 3156 559 3463 722 
L 3463 178 
Q 3153 47 2828 -22 
Q 2503 -91 2169 -91 
Q 1331 -91 842 396 
Q 353 884 353 1716 
Q 353 2575 817 3079 
Q 1281 3584 2069 3584 
Q 2775 3584 3186 3129 
Q 3597 2675 3597 1894 
z
M 3022 2063 
Q 3016 2534 2758 2815 
Q 2500 3097 2075 3097 
Q 1594 3097 1305 2825 
Q 1016 2553 972 2059 
L 3022 2063 
z
" transform="scale(0.015625)"/>
      <path id="DejaVuSans-36" d="M 2113 2584 
Q 1688 2584 1439 2293 
Q 1191 2003 1191 1497 
Q 1191 994 1439 701 
Q 1688 409 2113 409 
Q 2538 409 2786 701 
Q 3034 994 3034 1497 
Q 3034 2003 2786 2293 
Q 2538 2584 2113 2584 
z
M 3366 4563 
L 3366 3988 
Q 3128 4100 2886 4159 
Q 2644 4219 2406 4219 
Q 1781 4219 1451 3797 
Q 1122 3375 1075 2522 
Q 1259 2794 1537 2939 
Q 1816 3084 2150 3084 
Q 2853 3084 3261 2657 
Q 3669 2231 3669 1497 
Q 3669 778 3244 343 
Q 2819 -91 2113 -91 
Q 1303 -91 875 529 
Q 447 1150 447 2328 
Q 447 3434 972 4092 
Q 1497 4750 2381 4750 
Q 2619 4750 2861 4703 
Q 3103 4656 3366 4563 
z
" transform="scale(0.015625)"/>
      <path id="DejaVuSans-2d" d="M 313 2009 
L 1997 2009 
L 1997 1497 
L 313 1497 
L 313 2009 
z
" transform="scale(0.015625)"/>
      <path id="DejaVuSans-69" d="M 603 3500 
L 1178 3500 
L 1178 0 
L 603 0 
L 603 3500 
z
M 603 4863 
L 1178 4863 
L 1178 4134 
L 603 4134 
L 603 4863 
z
" transform="scale(0.015625)"/>
      <path id="DejaVuSans-76" d="M 191 3500 
L 800 3500 
L 1894 563 
L 2988 3500 
L 3597 3500 
L 2284 0 
L 1503 0 
L 191 3500 
z
" transform="scale(0.015625)"/>
     </defs>
     <use xlink:href="#DejaVuSans-73"/>
     <use xlink:href="#DejaVuSans-6f" x="52.099609"/>
     <use xlink:href="#DejaVuSans-75" x="113.28125"/>
     <use xlink:href="#DejaVuSans-72" x="176.660156"/>
     <use xlink:href="#DejaVuSans-63" x="215.523438"/>
     <use xlink:href="#DejaVuSans-65" x="270.503906"/>
     <use xlink:href="#DejaVuSans-36" x="332.027344"/>
     <use xlink:href="#DejaVuSans-2d" x="395.650391"/>
     <use xlink:href="#DejaVuSans-72" x="431.734375"/>
     <use xlink:href="#DejaVuSans-65" x="470.597656"/>
     <use xlink:href="#DejaVuSans-63" x="532.121094"/>
     <use xlink:href="#DejaVuSans-65" x="587.101562"/>
     <use xlink:href="#DejaVuSans-69" x="648.625"/>
     <use xlink:href="#DejaVuSans-76" x="676.408203"/>
     <use xlink:href="#DejaVuSans-65" x="735.587891"/>
     <use xlink:href="#DejaVuSans-72" x="797.111328"/>
     <use xlink:href="#DejaVuSans-32" x="838.224609"/>
     <use xlink:href="#DejaVuSans-34" x="901.847656"/>
    </g>
   </g>
  </g>
 </g>
 <defs>
  <clipPath id="pee592e6ad9">
   <rect x="180" y="69.12" width="1116" height="443.52"/>
  </clipPath>
 </defs>
</svg>
