<?xml version="1.0" encoding="utf-8" standalone="no"?>
<!DOCTYPE svg PUBLIC "-//W3C//DTD SVG 1.1//EN"
  "http://www.w3.org/Graphics/SVG/1.1/DTD/svg11.dtd">
<svg xmlns:xlink="http://www.w3.org/1999/xlink" width="1440pt" height="576pt" viewBox="0 0 1440 576" xmlns="http://www.w3.org/2000/svg" version="1.1">
 <metadata>
  <rdf:RDF xmlns:dc="http://purl.org/dc/elements/1.1/" xmlns:cc="http://creativecommons.org/ns#" xmlns:rdf="http://www.w3.org/1999/02/22-rdf-syntax-ns#">
   <cc:Work>
    <dc:type rdf:resource="http://purl.org/dc/dcmitype/StillImage"/>
    <dc:date>2024-05-22T04:49:48.880856</dc:date>
    <dc:format>image/svg+xml</dc:format>
    <dc:creator>
     <cc:Agent>
      <dc:title>Matplotlib v3.8.3, https://matplotlib.org/</dc:title>
     </cc:Agent>
    </dc:creator>
   </cc:Work>
  </rdf:RDF>
 </metadata>
 <defs>
  <style type="text/css">*{stroke-linejoin: round; stroke-linecap: butt}</style>
 </defs>
 <g id="figure_1">
  <g id="patch_1">
   <path d="M 0 576 
L 1440 576 
L 1440 0 
L 0 0 
z
" style="fill: #ffffff"/>
  </g>
  <g id="axes_1">
   <g id="patch_2">
    <path d="M 180 512.64 
L 1296 512.64 
L 1296 69.12 
L 180 69.12 
z
" style="fill: #ffffff"/>
   </g>
   <g id="matplotlib.axis_1">
    <g id="xtick_1">
     <g id="line2d_1">
      <defs>
       <path id="me34dfa28d1" d="M 0 0 
L 0 3.5 
" style="stroke: #000000; stroke-width: 0.8"/>
      </defs>
      <g>
       <use xlink:href="#me34dfa28d1" x="229.734567" y="512.64" style="stroke: #000000; stroke-width: 0.8"/>
      </g>
     </g>
     <g id="text_1">
      <!-- 0 -->
      <g transform="translate(226.553317 527.238438) scale(0.1 -0.1)">
       <defs>
        <path id="DejaVuSans-30" d="M 2034 4250 
Q 1547 4250 1301 3770 
Q 1056 3291 1056 2328 
Q 1056 1369 1301 889 
Q 1547 409 2034 409 
Q 2525 409 2770 889 
Q 3016 1369 3016 2328 
Q 3016 3291 2770 3770 
Q 2525 4250 2034 4250 
z
M 2034 4750 
Q 2819 4750 3233 4129 
Q 3647 3509 3647 2328 
Q 3647 1150 3233 529 
Q 2819 -91 2034 -91 
Q 1250 -91 836 529 
Q 422 1150 422 2328 
Q 422 3509 836 4129 
Q 1250 4750 2034 4750 
z
" transform="scale(0.015625)"/>
       </defs>
       <use xlink:href="#DejaVuSans-30"/>
      </g>
     </g>
    </g>
    <g id="xtick_2">
     <g id="line2d_2">
      <g>
       <use xlink:href="#me34dfa28d1" x="433.04074" y="512.64" style="stroke: #000000; stroke-width: 0.8"/>
      </g>
     </g>
     <g id="text_2">
      <!-- 500 -->
      <g transform="translate(423.49699 527.238438) scale(0.1 -0.1)">
       <defs>
        <path id="DejaVuSans-35" d="M 691 4666 
L 3169 4666 
L 3169 4134 
L 1269 4134 
L 1269 2991 
Q 1406 3038 1543 3061 
Q 1681 3084 1819 3084 
Q 2600 3084 3056 2656 
Q 3513 2228 3513 1497 
Q 3513 744 3044 326 
Q 2575 -91 1722 -91 
Q 1428 -91 1123 -41 
Q 819 9 494 109 
L 494 744 
Q 775 591 1075 516 
Q 1375 441 1709 441 
Q 2250 441 2565 725 
Q 2881 1009 2881 1497 
Q 2881 1984 2565 2268 
Q 2250 2553 1709 2553 
Q 1456 2553 1204 2497 
Q 953 2441 691 2322 
L 691 4666 
z
" transform="scale(0.015625)"/>
       </defs>
       <use xlink:href="#DejaVuSans-35"/>
       <use xlink:href="#DejaVuSans-30" x="63.623047"/>
       <use xlink:href="#DejaVuSans-30" x="127.246094"/>
      </g>
     </g>
    </g>
    <g id="xtick_3">
     <g id="line2d_3">
      <g>
       <use xlink:href="#me34dfa28d1" x="636.346913" y="512.64" style="stroke: #000000; stroke-width: 0.8"/>
      </g>
     </g>
     <g id="text_3">
      <!-- 1000 -->
      <g transform="translate(623.621913 527.238438) scale(0.1 -0.1)">
       <defs>
        <path id="DejaVuSans-31" d="M 794 531 
L 1825 531 
L 1825 4091 
L 703 3866 
L 703 4441 
L 1819 4666 
L 2450 4666 
L 2450 531 
L 3481 531 
L 3481 0 
L 794 0 
L 794 531 
z
" transform="scale(0.015625)"/>
       </defs>
       <use xlink:href="#DejaVuSans-31"/>
       <use xlink:href="#DejaVuSans-30" x="63.623047"/>
       <use xlink:href="#DejaVuSans-30" x="127.246094"/>
       <use xlink:href="#DejaVuSans-30" x="190.869141"/>
      </g>
     </g>
    </g>
    <g id="xtick_4">
     <g id="line2d_4">
      <g>
       <use xlink:href="#me34dfa28d1" x="839.653087" y="512.64" style="stroke: #000000; stroke-width: 0.8"/>
      </g>
     </g>
     <g id="text_4">
      <!-- 1500 -->
      <g transform="translate(826.928087 527.238438) scale(0.1 -0.1)">
       <use xlink:href="#DejaVuSans-31"/>
       <use xlink:href="#DejaVuSans-35" x="63.623047"/>
       <use xlink:href="#DejaVuSans-30" x="127.246094"/>
       <use xlink:href="#DejaVuSans-30" x="190.869141"/>
      </g>
     </g>
    </g>
    <g id="xtick_5">
     <g id="line2d_5">
      <g>
       <use xlink:href="#me34dfa28d1" x="1042.95926" y="512.64" style="stroke: #000000; stroke-width: 0.8"/>
      </g>
     </g>
     <g id="text_5">
      <!-- 2000 -->
      <g transform="translate(1030.23426 527.238438) scale(0.1 -0.1)">
       <defs>
        <path id="DejaVuSans-32" d="M 1228 531 
L 3431 531 
L 3431 0 
L 469 0 
L 469 531 
Q 828 903 1448 1529 
Q 2069 2156 2228 2338 
Q 2531 2678 2651 2914 
Q 2772 3150 2772 3378 
Q 2772 3750 2511 3984 
Q 2250 4219 1831 4219 
Q 1534 4219 1204 4116 
Q 875 4013 500 3803 
L 500 4441 
Q 881 4594 1212 4672 
Q 1544 4750 1819 4750 
Q 2544 4750 2975 4387 
Q 3406 4025 3406 3419 
Q 3406 3131 3298 2873 
Q 3191 2616 2906 2266 
Q 2828 2175 2409 1742 
Q 1991 1309 1228 531 
z
" transform="scale(0.015625)"/>
       </defs>
       <use xlink:href="#DejaVuSans-32"/>
       <use xlink:href="#DejaVuSans-30" x="63.623047"/>
       <use xlink:href="#DejaVuSans-30" x="127.246094"/>
       <use xlink:href="#DejaVuSans-30" x="190.869141"/>
      </g>
     </g>
    </g>
    <g id="xtick_6">
     <g id="line2d_6">
      <g>
       <use xlink:href="#me34dfa28d1" x="1246.265433" y="512.64" style="stroke: #000000; stroke-width: 0.8"/>
      </g>
     </g>
     <g id="text_6">
      <!-- 2500 -->
      <g transform="translate(1233.540433 527.238438) scale(0.1 -0.1)">
       <use xlink:href="#DejaVuSans-32"/>
       <use xlink:href="#DejaVuSans-35" x="63.623047"/>
       <use xlink:href="#DejaVuSans-30" x="127.246094"/>
       <use xlink:href="#DejaVuSans-30" x="190.869141"/>
      </g>
     </g>
    </g>
   </g>
   <g id="matplotlib.axis_2">
    <g id="ytick_1">
     <g id="line2d_7">
      <defs>
       <path id="ma2436270c5" d="M 0 0 
L -3.5 0 
" style="stroke: #000000; stroke-width: 0.8"/>
      </defs>
      <g>
       <use xlink:href="#ma2436270c5" x="180" y="502.978388" style="stroke: #000000; stroke-width: 0.8"/>
      </g>
     </g>
     <g id="text_7">
      <!-- −10 -->
      <g transform="translate(151.895312 506.777607) scale(0.1 -0.1)">
       <defs>
        <path id="DejaVuSans-2212" d="M 678 2272 
L 4684 2272 
L 4684 1741 
L 678 1741 
L 678 2272 
z
" transform="scale(0.015625)"/>
       </defs>
       <use xlink:href="#DejaVuSans-2212"/>
       <use xlink:href="#DejaVuSans-31" x="83.789062"/>
       <use xlink:href="#DejaVuSans-30" x="147.412109"/>
      </g>
     </g>
    </g>
    <g id="ytick_2">
     <g id="line2d_8">
      <g>
       <use xlink:href="#ma2436270c5" x="180" y="444.800611" style="stroke: #000000; stroke-width: 0.8"/>
      </g>
     </g>
     <g id="text_8">
      <!-- −8 -->
      <g transform="translate(158.257812 448.59983) scale(0.1 -0.1)">
       <defs>
        <path id="DejaVuSans-38" d="M 2034 2216 
Q 1584 2216 1326 1975 
Q 1069 1734 1069 1313 
Q 1069 891 1326 650 
Q 1584 409 2034 409 
Q 2484 409 2743 651 
Q 3003 894 3003 1313 
Q 3003 1734 2745 1975 
Q 2488 2216 2034 2216 
z
M 1403 2484 
Q 997 2584 770 2862 
Q 544 3141 544 3541 
Q 544 4100 942 4425 
Q 1341 4750 2034 4750 
Q 2731 4750 3128 4425 
Q 3525 4100 3525 3541 
Q 3525 3141 3298 2862 
Q 3072 2584 2669 2484 
Q 3125 2378 3379 2068 
Q 3634 1759 3634 1313 
Q 3634 634 3220 271 
Q 2806 -91 2034 -91 
Q 1263 -91 848 271 
Q 434 634 434 1313 
Q 434 1759 690 2068 
Q 947 2378 1403 2484 
z
M 1172 3481 
Q 1172 3119 1398 2916 
Q 1625 2713 2034 2713 
Q 2441 2713 2670 2916 
Q 2900 3119 2900 3481 
Q 2900 3844 2670 4047 
Q 2441 4250 2034 4250 
Q 1625 4250 1398 4047 
Q 1172 3844 1172 3481 
z
" transform="scale(0.015625)"/>
       </defs>
       <use xlink:href="#DejaVuSans-2212"/>
       <use xlink:href="#DejaVuSans-38" x="83.789062"/>
      </g>
     </g>
    </g>
    <g id="ytick_3">
     <g id="line2d_9">
      <g>
       <use xlink:href="#ma2436270c5" x="180" y="386.622835" style="stroke: #000000; stroke-width: 0.8"/>
      </g>
     </g>
     <g id="text_9">
      <!-- −6 -->
      <g transform="translate(158.257812 390.422054) scale(0.1 -0.1)">
       <defs>
        <path id="DejaVuSans-36" d="M 2113 2584 
Q 1688 2584 1439 2293 
Q 1191 2003 1191 1497 
Q 1191 994 1439 701 
Q 1688 409 2113 409 
Q 2538 409 2786 701 
Q 3034 994 3034 1497 
Q 3034 2003 2786 2293 
Q 2538 2584 2113 2584 
z
M 3366 4563 
L 3366 3988 
Q 3128 4100 2886 4159 
Q 2644 4219 2406 4219 
Q 1781 4219 1451 3797 
Q 1122 3375 1075 2522 
Q 1259 2794 1537 2939 
Q 1816 3084 2150 3084 
Q 2853 3084 3261 2657 
Q 3669 2231 3669 1497 
Q 3669 778 3244 343 
Q 2819 -91 2113 -91 
Q 1303 -91 875 529 
Q 447 1150 447 2328 
Q 447 3434 972 4092 
Q 1497 4750 2381 4750 
Q 2619 4750 2861 4703 
Q 3103 4656 3366 4563 
z
" transform="scale(0.015625)"/>
       </defs>
       <use xlink:href="#DejaVuSans-2212"/>
       <use xlink:href="#DejaVuSans-36" x="83.789062"/>
      </g>
     </g>
    </g>
    <g id="ytick_4">
     <g id="line2d_10">
      <g>
       <use xlink:href="#ma2436270c5" x="180" y="328.445059" style="stroke: #000000; stroke-width: 0.8"/>
      </g>
     </g>
     <g id="text_10">
      <!-- −4 -->
      <g transform="translate(158.257812 332.244278) scale(0.1 -0.1)">
       <defs>
        <path id="DejaVuSans-34" d="M 2419 4116 
L 825 1625 
L 2419 1625 
L 2419 4116 
z
M 2253 4666 
L 3047 4666 
L 3047 1625 
L 3713 1625 
L 3713 1100 
L 3047 1100 
L 3047 0 
L 2419 0 
L 2419 1100 
L 313 1100 
L 313 1709 
L 2253 4666 
z
" transform="scale(0.015625)"/>
       </defs>
       <use xlink:href="#DejaVuSans-2212"/>
       <use xlink:href="#DejaVuSans-34" x="83.789062"/>
      </g>
     </g>
    </g>
    <g id="ytick_5">
     <g id="line2d_11">
      <g>
       <use xlink:href="#ma2436270c5" x="180" y="270.267282" style="stroke: #000000; stroke-width: 0.8"/>
      </g>
     </g>
     <g id="text_11">
      <!-- −2 -->
      <g transform="translate(158.257812 274.066501) scale(0.1 -0.1)">
       <use xlink:href="#DejaVuSans-2212"/>
       <use xlink:href="#DejaVuSans-32" x="83.789062"/>
      </g>
     </g>
    </g>
    <g id="ytick_6">
     <g id="line2d_12">
      <g>
       <use xlink:href="#ma2436270c5" x="180" y="212.089506" style="stroke: #000000; stroke-width: 0.8"/>
      </g>
     </g>
     <g id="text_12">
      <!-- 0 -->
      <g transform="translate(166.6375 215.888725) scale(0.1 -0.1)">
       <use xlink:href="#DejaVuSans-30"/>
      </g>
     </g>
    </g>
    <g id="ytick_7">
     <g id="line2d_13">
      <g>
       <use xlink:href="#ma2436270c5" x="180" y="153.91173" style="stroke: #000000; stroke-width: 0.8"/>
      </g>
     </g>
     <g id="text_13">
      <!-- 2 -->
      <g transform="translate(166.6375 157.710949) scale(0.1 -0.1)">
       <use xlink:href="#DejaVuSans-32"/>
      </g>
     </g>
    </g>
    <g id="ytick_8">
     <g id="line2d_14">
      <g>
       <use xlink:href="#ma2436270c5" x="180" y="95.733953" style="stroke: #000000; stroke-width: 0.8"/>
      </g>
     </g>
     <g id="text_14">
      <!-- 4 -->
      <g transform="translate(166.6375 99.533172) scale(0.1 -0.1)">
       <use xlink:href="#DejaVuSans-34"/>
      </g>
     </g>
    </g>
   </g>
   <g id="line2d_15">
    <path d="M 230.727273 270.6927 
L 231.719979 270.298459 
L 232.712685 270.50079 
L 234.698096 270.401485 
L 235.690802 269.589062 
L 236.683508 269.47315 
L 237.676214 268.822397 
L 238.66892 268.357733 
L 239.661626 267.205457 
L 240.654332 266.395528 
L 241.647038 264.940019 
L 242.639744 263.791797 
L 243.63245 262.432623 
L 244.625156 261.564408 
L 245.617862 255.527058 
L 246.610568 256.209235 
L 247.603273 237.785742 
L 248.595979 225.545205 
L 249.588685 237.021692 
L 250.581391 250.445932 
L 251.574097 249.324358 
L 252.566803 200.555389 
L 253.559509 181.587091 
L 254.552215 187.835155 
L 255.544921 209.877081 
L 256.537627 191.196895 
L 257.530333 218.022509 
L 258.523039 194.279079 
L 259.515745 178.715579 
L 260.50845 185.848738 
L 261.501156 217.084194 
L 263.486568 158.640351 
L 264.479274 151.942028 
L 265.47198 177.325007 
L 266.464686 180.59272 
L 267.457392 189.198458 
L 268.450098 148.590294 
L 269.442804 138.21456 
L 270.43551 154.58777 
L 271.428216 148.518878 
L 272.420922 132.987061 
L 273.413627 135.731726 
L 274.406333 170.857235 
L 275.399039 133.208618 
L 276.391745 126.085355 
L 277.384451 123.880401 
L 278.377157 124.737658 
L 279.369863 164.658962 
L 280.362569 111.668638 
L 281.355275 94.004276 
L 282.347981 89.28 
L 283.340687 94.191761 
L 284.333393 112.380153 
L 285.326099 114.911979 
L 286.318804 100.69344 
L 287.31151 101.441147 
L 288.304216 111.930073 
L 289.296922 118.503729 
L 290.289628 120.282856 
L 291.282334 136.388458 
L 292.27504 160.361012 
L 293.267746 143.325518 
L 294.260452 135.882443 
L 295.253158 138.030115 
L 297.23857 181.922899 
L 298.231276 151.815345 
L 299.223981 145.118088 
L 300.216687 148.710521 
L 301.209393 163.658396 
L 302.202099 170.163259 
L 303.194805 172.34814 
L 305.180217 205.158822 
L 306.172923 206.072238 
L 308.158335 241.894611 
L 310.143747 217.053658 
L 311.136453 217.52452 
L 312.129159 240.464488 
L 313.121864 283.524366 
L 314.11457 250.414133 
L 315.107276 260.236396 
L 316.099982 310.39328 
L 318.085394 296.914147 
L 319.0781 277.243638 
L 320.070806 324.424623 
L 321.063512 290.16872 
L 322.056218 293.432098 
L 323.048924 302.872284 
L 324.04163 324.404265 
L 325.034336 293.166866 
L 326.027041 329.179307 
L 327.019747 294.601798 
L 328.012453 294.04064 
L 329.005159 288.750224 
L 329.997865 288.79284 
L 330.990571 322.377892 
L 331.983277 283.857237 
L 332.975983 270.801523 
L 333.968689 283.213089 
L 334.961395 273.622436 
L 335.954101 288.166608 
L 336.946807 270.539961 
L 337.939513 322.045071 
L 338.932218 287.016943 
L 339.924924 301.873994 
L 340.91763 268.161396 
L 341.910336 259.188976 
L 342.903042 263.839727 
L 343.895748 281.039389 
L 344.888454 283.573936 
L 345.88116 281.765077 
L 346.873866 270.523762 
L 347.866572 263.675824 
L 348.859278 262.278309 
L 349.851984 259.851531 
L 350.84469 254.223583 
L 351.837395 252.402167 
L 352.830101 250.311204 
L 353.822807 269.124715 
L 354.815513 265.171308 
L 355.808219 256.055031 
L 356.800925 255.892541 
L 357.793631 265.642362 
L 359.779043 319.384113 
L 360.771749 283.091097 
L 361.764455 281.825537 
L 362.757161 259.379109 
L 363.749867 275.532624 
L 364.742572 273.940637 
L 365.735278 265.096302 
L 366.727984 293.355285 
L 367.72069 287.281406 
L 368.713396 301.147179 
L 369.706102 280.790508 
L 370.698808 281.249403 
L 371.691514 276.549257 
L 372.68422 280.291693 
L 373.676926 288.68835 
L 374.669632 305.04952 
L 376.655044 296.647542 
L 377.64775 316.253111 
L 378.640455 312.372124 
L 379.633161 297.831964 
L 380.625867 314.460566 
L 381.618573 320.112391 
L 382.611279 304.763381 
L 383.603985 333.908186 
L 384.596691 285.760444 
L 385.589397 296.701015 
L 386.582103 306.028101 
L 387.574809 330.885083 
L 388.567515 315.163396 
L 389.560221 344.982644 
L 390.552927 289.919952 
L 391.545632 332.515447 
L 392.538338 340.27833 
L 394.52375 298.867858 
L 395.516456 312.508193 
L 396.509162 291.699726 
L 397.501868 310.46672 
L 398.494574 288.831232 
L 399.48728 311.753602 
L 400.479986 298.068944 
L 401.472692 325.029754 
L 402.465398 305.498173 
L 403.458104 329.848779 
L 404.450809 294.49077 
L 405.443515 300.856578 
L 406.436221 308.323534 
L 407.428927 308.319081 
L 408.421633 317.73728 
L 409.414339 305.84098 
L 410.407045 330.00847 
L 411.399751 378.938026 
L 412.392457 301.54276 
L 413.385163 303.297741 
L 414.377869 288.754698 
L 415.370575 316.596859 
L 416.363281 302.490415 
L 417.355986 328.056921 
L 418.348692 308.890728 
L 419.341398 295.100399 
L 420.334104 314.189379 
L 421.32681 291.458365 
L 422.319516 308.266084 
L 423.312222 306.264121 
L 424.304928 306.662291 
L 425.297634 301.974619 
L 426.29034 305.044965 
L 427.283046 330.609173 
L 428.275752 289.318869 
L 429.268458 294.184416 
L 430.261163 295.207996 
L 431.253869 310.206397 
L 432.246575 314.450664 
L 433.239281 287.245607 
L 434.231987 313.929857 
L 435.224693 300.392755 
L 436.217399 299.884312 
L 437.210105 318.215955 
L 438.202811 327.589733 
L 439.195517 293.196665 
L 440.188223 303.399461 
L 441.180929 323.16723 
L 442.173635 302.977551 
L 443.166341 319.254148 
L 444.159046 355.536615 
L 445.151752 309.697059 
L 446.144458 366.331401 
L 447.137164 327.266413 
L 448.12987 331.100454 
L 449.122576 312.790458 
L 450.115282 321.001204 
L 451.107988 323.952533 
L 452.100694 367.575204 
L 454.086106 301.550989 
L 455.078812 303.781482 
L 456.071518 321.986589 
L 457.064223 314.962344 
L 458.056929 318.543782 
L 459.049635 333.445999 
L 460.042341 288.999876 
L 461.035047 303.615483 
L 462.027753 354.342911 
L 463.020459 342.265638 
L 464.013165 316.556958 
L 465.005871 300.668681 
L 465.998577 303.200263 
L 466.991283 307.017326 
L 467.983989 312.1567 
L 468.976695 336.235173 
L 469.9694 310.119404 
L 470.962106 311.132703 
L 471.954812 326.735296 
L 472.947518 296.943963 
L 473.940224 302.194122 
L 474.93293 329.201788 
L 475.925636 315.657511 
L 476.918342 313.827031 
L 477.911048 364.64269 
L 478.903754 329.605126 
L 479.89646 308.043016 
L 480.889166 336.974171 
L 481.881872 314.754807 
L 482.874577 328.128391 
L 483.867283 336.443339 
L 484.859989 309.649994 
L 485.852695 293.777953 
L 486.845401 297.160102 
L 487.838107 290.27235 
L 488.830813 284.704398 
L 489.823519 294.655478 
L 490.816225 321.803004 
L 491.808931 329.850556 
L 492.801637 318.195873 
L 493.794343 301.496532 
L 494.787049 318.128046 
L 495.779754 313.098421 
L 496.77246 334.77397 
L 497.765166 312.450016 
L 498.757872 295.947124 
L 499.750578 325.556815 
L 500.743284 302.872434 
L 501.73599 288.591275 
L 502.728696 314.570321 
L 503.721402 301.850755 
L 504.714108 296.506942 
L 505.706814 337.009197 
L 506.69952 316.394986 
L 507.692226 311.322704 
L 508.684932 297.537887 
L 509.677637 293.77706 
L 510.670343 317.996306 
L 511.663049 283.189953 
L 512.655755 315.401216 
L 513.648461 320.31235 
L 514.641167 298.963909 
L 515.633873 314.51269 
L 516.626579 300.483445 
L 517.619285 290.234453 
L 518.611991 324.798268 
L 519.604697 332.187774 
L 520.597403 298.814508 
L 521.590109 309.703968 
L 522.582814 298.339747 
L 523.57552 320.242705 
L 524.568226 321.603454 
L 525.560932 304.245969 
L 526.553638 303.181651 
L 527.546344 295.586777 
L 528.53905 295.970002 
L 530.524462 324.395783 
L 531.517168 290.737892 
L 532.509874 305.497023 
L 533.50258 312.817653 
L 534.495286 296.626322 
L 535.487991 311.417838 
L 536.480697 314.591202 
L 537.473403 306.335696 
L 538.466109 282.902292 
L 539.458815 323.191601 
L 540.451521 346.677536 
L 541.444227 289.183435 
L 542.436933 280.425024 
L 543.429639 287.380322 
L 544.422345 308.169105 
L 545.415051 339.838918 
L 546.407757 327.665294 
L 547.400463 293.050244 
L 548.393168 304.900463 
L 549.385874 314.450871 
L 550.37858 309.309724 
L 551.371286 340.686339 
L 552.363992 306.616541 
L 553.356698 337.640959 
L 554.349404 314.948704 
L 555.34211 306.476219 
L 556.334816 325.540366 
L 557.327522 305.720148 
L 558.320228 303.694365 
L 559.312934 285.715959 
L 560.30564 307.855218 
L 561.298345 292.555188 
L 563.283757 316.66548 
L 564.276463 305.289717 
L 565.269169 333.267547 
L 566.261875 319.495555 
L 567.254581 331.607074 
L 568.247287 325.180687 
L 569.239993 338.754594 
L 570.232699 346.568142 
L 571.225405 350.258882 
L 572.218111 347.54993 
L 573.210817 300.702859 
L 574.203523 328.73521 
L 575.196228 299.983514 
L 576.188934 323.305741 
L 577.18164 295.461595 
L 578.174346 324.790501 
L 579.167052 318.337598 
L 581.152464 311.454466 
L 582.14517 295.599165 
L 583.137876 297.221266 
L 584.130582 325.744829 
L 585.123288 301.269812 
L 586.115994 330.530279 
L 587.1087 312.552365 
L 588.101405 336.945599 
L 589.094111 304.632426 
L 590.086817 327.487441 
L 591.079523 304.323239 
L 592.072229 344.608961 
L 593.064935 362.330269 
L 594.057641 347.604792 
L 595.050347 326.779922 
L 596.043053 317.912248 
L 597.035759 313.704651 
L 598.028465 338.043379 
L 599.021171 301.129629 
L 600.013877 296.053712 
L 601.006582 364.641657 
L 601.999288 322.867478 
L 602.991994 342.746328 
L 603.9847 356.457312 
L 604.977406 316.224305 
L 605.970112 298.222461 
L 606.962818 306.45548 
L 607.955524 370.439721 
L 608.94823 366.388445 
L 609.940936 340.938271 
L 610.933642 354.133025 
L 611.926348 407.551243 
L 612.919054 346.173651 
L 613.911759 318.661632 
L 614.904465 314.491394 
L 615.897171 323.385486 
L 616.889877 336.28224 
L 617.882583 354.123129 
L 618.875289 330.487956 
L 619.867995 364.521389 
L 620.860701 325.836773 
L 621.853407 358.936983 
L 622.846113 349.356988 
L 623.838819 336.233119 
L 624.831525 333.228643 
L 625.824231 369.596821 
L 626.816936 389.432946 
L 627.809642 339.661321 
L 628.802348 352.383115 
L 629.795054 362.157712 
L 630.78776 342.195934 
L 631.780466 364.725875 
L 632.773172 339.788167 
L 633.765878 354.262859 
L 634.758584 361.006275 
L 635.75129 375.298349 
L 636.743996 359.965593 
L 637.736702 328.283118 
L 638.729408 341.988861 
L 639.722114 390.221238 
L 640.714819 349.590924 
L 641.707525 342.771599 
L 642.700231 354.978634 
L 643.692937 332.292209 
L 644.685643 328.663017 
L 645.678349 354.791847 
L 646.671055 363.512914 
L 647.663761 380.557984 
L 648.656467 332.736647 
L 649.649173 375.561654 
L 650.641879 344.856047 
L 651.634585 346.826001 
L 652.627291 339.630515 
L 653.619996 357.714179 
L 654.612702 362.766918 
L 655.605408 403.895524 
L 656.598114 333.563556 
L 657.59082 347.487397 
L 658.583526 366.784193 
L 659.576232 396.818895 
L 660.568938 365.469406 
L 661.561644 358.4439 
L 662.55435 371.77114 
L 663.547056 351.625518 
L 665.532468 391.055778 
L 666.525173 384.227108 
L 667.517879 367.560819 
L 668.510585 388.195654 
L 669.503291 363.369783 
L 670.495997 371.97351 
L 671.488703 400.076546 
L 672.481409 382.164387 
L 673.474115 359.292315 
L 674.466821 391.710033 
L 675.459527 418.143136 
L 676.452233 353.152812 
L 677.444939 382.258637 
L 678.437645 379.518187 
L 679.43035 384.870435 
L 680.423056 384.956733 
L 681.415762 386.564994 
L 682.408468 385.82398 
L 683.401174 387.749044 
L 684.39388 413.659919 
L 685.386586 399.832882 
L 686.379292 372.563332 
L 687.371998 362.095732 
L 688.364704 397.158375 
L 689.35741 424.362738 
L 690.350116 357.681165 
L 691.342822 383.433684 
L 692.335527 377.615237 
L 693.328233 434.973165 
L 694.320939 384.552329 
L 695.313645 378.512901 
L 696.306351 406.49646 
L 697.299057 366.895204 
L 698.291763 375.438633 
L 699.284469 371.44302 
L 700.277175 382.712954 
L 701.269881 396.687182 
L 702.262587 371.936753 
L 703.255293 411.37411 
L 704.247999 456.113572 
L 705.240705 412.604259 
L 706.23341 417.690671 
L 707.226116 379.136794 
L 708.218822 388.528215 
L 709.211528 388.346004 
L 710.204234 382.243857 
L 711.19694 413.276606 
L 712.189646 384.417529 
L 713.182352 417.607412 
L 714.175058 399.566178 
L 715.167764 385.542892 
L 716.16047 379.296236 
L 717.153176 404.358933 
L 718.145882 401.015845 
L 719.138587 411.740589 
L 720.131293 392.978966 
L 721.123999 401.103045 
L 722.116705 379.134959 
L 723.109411 388.373097 
L 724.102117 367.456578 
L 725.094823 386.46025 
L 726.087529 373.819339 
L 727.080235 382.539629 
L 728.072941 383.988366 
L 729.065647 377.476414 
L 730.058353 392.544692 
L 731.051059 399.962321 
L 732.043764 382.981555 
L 733.03647 461.234744 
L 734.029176 393.907332 
L 735.021882 388.596198 
L 736.014588 388.833928 
L 737.007294 409.832884 
L 738 385.538979 
L 738.992706 373.321507 
L 739.985412 424.647963 
L 740.978118 383.188713 
L 741.970824 388.224022 
L 742.96353 373.582947 
L 743.956236 401.421027 
L 744.948941 383.560508 
L 745.941647 385.89384 
L 746.934353 405.549931 
L 747.927059 387.845661 
L 748.919765 374.885294 
L 749.912471 394.874618 
L 750.905177 404.202169 
L 751.897883 383.548448 
L 752.890589 387.444391 
L 753.883295 409.692484 
L 754.876001 405.354189 
L 755.868707 396.526629 
L 756.861413 395.084794 
L 757.854118 420.743408 
L 758.846824 387.512722 
L 759.83953 396.087633 
L 760.832236 401.272065 
L 761.824942 397.601756 
L 762.817648 384.86472 
L 763.810354 397.434196 
L 764.80306 412.823547 
L 765.795766 402.973925 
L 766.788472 396.66056 
L 767.781178 405.92299 
L 768.773884 392.714011 
L 769.76659 382.85442 
L 770.759295 410.323959 
L 771.752001 385.490854 
L 772.744707 411.347779 
L 773.737413 388.144501 
L 774.730119 397.00727 
L 775.722825 398.993348 
L 776.715531 437.095655 
L 777.708237 398.6738 
L 778.700943 399.35694 
L 779.693649 395.185812 
L 780.686355 404.444114 
L 781.679061 395.420134 
L 782.671767 384.2377 
L 783.664473 385.622003 
L 784.657178 420.702639 
L 785.649884 392.506521 
L 786.64259 401.50408 
L 787.635296 382.731224 
L 788.628002 391.598371 
L 789.620708 375.98184 
L 790.613414 409.990503 
L 791.60612 395.212806 
L 792.598826 411.063083 
L 793.591532 396.792665 
L 794.584238 384.620883 
L 795.576944 394.591696 
L 796.56965 422.493338 
L 797.562355 440.071798 
L 798.555061 438.400357 
L 799.547767 415.742527 
L 800.540473 412.693133 
L 801.533179 410.483425 
L 802.525885 398.8908 
L 803.518591 403.348632 
L 804.511297 408.712083 
L 805.504003 393.663028 
L 806.496709 401.66889 
L 808.482121 419.752263 
L 809.474827 412.558905 
L 810.467532 390.907233 
L 811.460238 425.413366 
L 812.452944 379.56001 
L 813.44565 420.260084 
L 814.438356 384.540769 
L 815.431062 390.127589 
L 816.423768 394.65846 
L 817.416474 418.659032 
L 818.40918 396.552744 
L 819.401886 396.817956 
L 820.394592 406.795059 
L 821.387298 403.091061 
L 822.380004 389.064891 
L 823.372709 398.544273 
L 824.365415 399.705867 
L 825.358121 396.531632 
L 826.350827 401.318269 
L 827.343533 412.654815 
L 828.336239 417.022988 
L 829.328945 397.054592 
L 830.321651 388.72181 
L 831.314357 406.473113 
L 832.307063 392.124205 
L 833.299769 395.646755 
L 834.292475 420.399504 
L 835.285181 401.233687 
L 836.277886 407.402509 
L 837.270592 396.356867 
L 838.263298 413.272264 
L 839.256004 393.722745 
L 840.24871 397.327027 
L 841.241416 407.605361 
L 842.234122 392.890773 
L 843.226828 438.3325 
L 844.219534 390.460863 
L 845.21224 391.744603 
L 846.204946 396.345415 
L 847.197652 404.261612 
L 848.190358 387.769488 
L 849.183064 400.139712 
L 850.175769 392.908993 
L 852.161181 386.790183 
L 853.153887 435.678452 
L 854.146593 394.19269 
L 855.139299 392.841624 
L 856.132005 412.055618 
L 857.124711 392.074176 
L 858.117417 406.337543 
L 860.102829 388.366275 
L 861.095535 386.601857 
L 862.088241 436.317847 
L 863.080946 399.59434 
L 864.073652 414.891161 
L 865.066358 391.405998 
L 866.059064 418.361556 
L 867.05177 387.418006 
L 868.044476 458.654495 
L 869.037182 387.772694 
L 870.029888 450.211365 
L 871.022594 422.21981 
L 872.0153 405.254373 
L 873.008006 452.273528 
L 874.000712 410.01879 
L 874.993418 399.423424 
L 875.986123 406.189677 
L 876.978829 403.798671 
L 877.971535 419.564669 
L 878.964241 409.010991 
L 879.956947 408.256266 
L 880.949653 405.579686 
L 881.942359 419.650114 
L 882.935065 424.790374 
L 883.927771 396.548466 
L 884.920477 391.935424 
L 885.913183 435.858274 
L 886.905889 390.938917 
L 887.898595 425.794491 
L 888.8913 402.800075 
L 889.884006 404.287748 
L 890.876712 392.162785 
L 891.869418 416.286687 
L 892.862124 420.879779 
L 893.85483 412.176462 
L 894.847536 393.018061 
L 895.840242 401.300623 
L 896.832948 387.194827 
L 897.825654 395.143574 
L 898.81836 409.841859 
L 899.811066 412.160566 
L 900.803772 394.392106 
L 901.796477 395.150046 
L 902.789183 399.917243 
L 903.781889 401.913607 
L 904.774595 404.405318 
L 905.767301 435.084048 
L 906.760007 407.845208 
L 907.752713 448.240331 
L 908.745419 410.952386 
L 909.738125 426.792864 
L 910.730831 438.897913 
L 911.723537 408.462981 
L 912.716243 409.23031 
L 913.708949 416.835831 
L 914.701655 391.945343 
L 915.69436 391.740461 
L 916.687066 390.15103 
L 917.679772 399.090052 
L 918.672478 403.297606 
L 919.665184 417.801726 
L 920.65789 386.213629 
L 921.650596 427.089663 
L 922.643302 409.319837 
L 923.636008 384.633284 
L 924.628714 440.967406 
L 925.62142 393.711039 
L 926.614126 418.318822 
L 927.606832 408.101191 
L 928.599537 403.869002 
L 929.592243 411.861543 
L 930.584949 399.697598 
L 931.577655 392.306751 
L 932.570361 390.140457 
L 933.563067 403.091447 
L 934.555773 390.08033 
L 935.548479 400.569056 
L 936.541185 405.859978 
L 937.533891 416.533212 
L 938.526597 390.448848 
L 939.519303 409.872989 
L 940.512009 379.423327 
L 941.504714 420.884342 
L 942.49742 447.985757 
L 943.490126 414.795787 
L 945.475538 397.432848 
L 946.468244 396.478044 
L 947.46095 400.422522 
L 948.453656 411.221842 
L 949.446362 418.670449 
L 950.439068 392.092904 
L 951.431774 395.454919 
L 952.42448 391.200016 
L 953.417186 393.762299 
L 954.409891 429.21941 
L 955.402597 397.065581 
L 956.395303 412.570318 
L 957.388009 404.174737 
L 958.380715 403.10528 
L 959.373421 394.238564 
L 960.366127 443.325976 
L 961.358833 385.524438 
L 962.351539 391.611249 
L 963.344245 414.075997 
L 964.336951 419.96738 
L 965.329657 413.596176 
L 966.322363 404.869142 
L 967.315068 465.89321 
L 968.307774 405.320884 
L 969.30048 442.322294 
L 970.293186 396.933905 
L 971.285892 405.806035 
L 972.278598 413.135412 
L 973.271304 464.226607 
L 974.26401 386.673665 
L 975.256716 398.388578 
L 976.249422 408.457716 
L 977.242128 408.291392 
L 978.234834 430.857654 
L 979.22754 398.932236 
L 980.220246 436.633275 
L 981.212951 404.01845 
L 982.205657 411.143777 
L 983.198363 409.414255 
L 984.191069 396.974496 
L 985.183775 431.756599 
L 986.176481 407.101759 
L 987.169187 406.345004 
L 988.161893 399.446453 
L 989.154599 415.240291 
L 990.147305 400.880329 
L 991.140011 401.680524 
L 992.132717 402.174578 
L 993.125423 403.968595 
L 994.118128 405.251165 
L 995.110834 440.014075 
L 996.10354 401.511172 
L 997.096246 395.027712 
L 998.088952 394.837783 
L 999.081658 432.147294 
L 1000.074364 395.539114 
L 1001.06707 389.824836 
L 1002.059776 425.989637 
L 1003.052482 391.199044 
L 1004.045188 389.923543 
L 1005.037894 391.01093 
L 1006.0306 410.280742 
L 1007.023305 404.21917 
L 1008.016011 389.356023 
L 1009.008717 411.997774 
L 1010.001423 411.289807 
L 1010.994129 409.757965 
L 1011.986835 411.249326 
L 1012.979541 475.44291 
L 1013.972247 391.628499 
L 1014.964953 411.188083 
L 1015.957659 406.130705 
L 1016.950365 391.71623 
L 1017.943071 419.732155 
L 1018.935777 400.471561 
L 1019.928482 390.996374 
L 1020.921188 409.693098 
L 1021.913894 436.387671 
L 1022.9066 386.964218 
L 1023.899306 392.223643 
L 1024.892012 402.397821 
L 1025.884718 407.339031 
L 1026.877424 383.63999 
L 1027.87013 402.640814 
L 1028.862836 424.975401 
L 1029.855542 392.88212 
L 1030.848248 492.48 
L 1031.840954 410.617164 
L 1032.833659 401.072546 
L 1033.826365 405.642524 
L 1034.819071 400.805818 
L 1035.811777 394.041648 
L 1036.804483 422.350428 
L 1037.797189 407.034243 
L 1038.789895 432.848906 
L 1039.782601 387.92682 
L 1040.775307 404.667132 
L 1041.768013 404.273665 
L 1042.760719 410.093505 
L 1043.753425 411.362331 
L 1044.746131 392.839341 
L 1045.738837 421.19481 
L 1046.731542 407.565737 
L 1047.724248 399.454576 
L 1048.716954 404.647509 
L 1049.70966 388.176777 
L 1050.702366 404.012655 
L 1051.695072 397.414763 
L 1052.687778 432.890357 
L 1053.680484 395.717285 
L 1054.67319 420.573829 
L 1055.665896 415.995727 
L 1056.658602 398.487843 
L 1057.651308 401.511286 
L 1058.644014 406.58925 
L 1059.636719 417.04974 
L 1060.629425 416.2036 
L 1061.622131 428.726664 
L 1062.614837 403.963734 
L 1063.607543 406.401963 
L 1064.600249 433.647682 
L 1065.592955 433.747917 
L 1066.585661 387.55592 
L 1067.578367 407.725846 
L 1068.571073 410.723753 
L 1069.563779 389.917927 
L 1070.556485 445.140766 
L 1071.549191 469.186454 
L 1072.541896 433.558369 
L 1073.534602 416.438045 
L 1074.527308 422.144143 
L 1075.520014 389.585224 
L 1076.51272 415.946053 
L 1077.505426 391.6672 
L 1078.498132 409.57252 
L 1079.490838 417.530704 
L 1080.483544 395.270968 
L 1081.47625 387.340793 
L 1082.468956 408.634658 
L 1083.461662 425.79599 
L 1084.454368 388.413141 
L 1085.447073 423.932924 
L 1086.439779 395.334208 
L 1087.432485 395.83997 
L 1088.425191 405.054935 
L 1090.410603 408.273639 
L 1091.403309 398.087031 
L 1092.396015 385.980731 
L 1093.388721 400.49018 
L 1094.381427 401.774998 
L 1095.374133 416.698021 
L 1096.366839 406.864695 
L 1097.359545 429.093096 
L 1098.35225 408.550028 
L 1099.344956 394.312793 
L 1100.337662 428.211426 
L 1101.330368 418.632736 
L 1102.323074 407.441543 
L 1103.31578 418.241764 
L 1104.308486 396.447808 
L 1105.301192 409.937096 
L 1106.293898 402.246992 
L 1107.286604 411.042633 
L 1108.27931 414.779693 
L 1109.272016 411.800493 
L 1110.264722 393.462559 
L 1111.257428 425.055888 
L 1112.250133 415.495963 
L 1113.242839 383.236513 
L 1114.235545 415.840769 
L 1115.228251 423.584163 
L 1116.220957 462.060609 
L 1117.213663 407.742392 
L 1118.206369 398.675354 
L 1119.199075 399.504812 
L 1120.191781 425.194984 
L 1121.184487 419.258476 
L 1123.169899 386.604042 
L 1124.162605 400.518399 
L 1125.15531 406.513861 
L 1126.148016 422.971011 
L 1127.140722 452.953235 
L 1128.133428 396.784218 
L 1129.126134 405.260663 
L 1130.11884 387.974842 
L 1131.111546 400.104035 
L 1132.104252 407.705026 
L 1133.096958 385.396996 
L 1134.089664 424.176376 
L 1135.08237 414.631691 
L 1136.075076 412.236141 
L 1137.067782 411.400737 
L 1138.060487 414.272376 
L 1139.053193 400.568153 
L 1140.045899 405.467617 
L 1141.038605 429.866801 
L 1142.031311 401.493627 
L 1143.024017 424.132674 
L 1144.016723 402.238585 
L 1145.009429 411.957057 
L 1146.002135 401.05627 
L 1146.994841 405.530664 
L 1147.987547 398.185628 
L 1148.980253 417.533304 
L 1149.972959 405.65376 
L 1150.965664 389.295549 
L 1151.95837 411.530747 
L 1152.951076 429.943048 
L 1153.943782 416.132006 
L 1154.936488 397.669357 
L 1155.929194 418.497055 
L 1156.9219 418.980602 
L 1157.914606 387.478208 
L 1158.907312 401.545059 
L 1159.900018 430.679974 
L 1160.892724 412.157346 
L 1161.88543 387.384858 
L 1162.878136 400.634857 
L 1163.870841 419.649991 
L 1164.863547 410.578564 
L 1165.856253 399.175625 
L 1166.848959 403.356468 
L 1167.841665 412.381783 
L 1168.834371 411.971508 
L 1169.827077 395.236888 
L 1170.819783 416.215711 
L 1171.812489 385.032869 
L 1172.805195 435.334549 
L 1173.797901 396.376668 
L 1174.790607 425.034158 
L 1175.783313 408.34491 
L 1176.776019 415.342429 
L 1177.768724 406.218332 
L 1178.76143 399.34466 
L 1179.754136 407.494243 
L 1180.746842 393.736153 
L 1181.739548 413.528948 
L 1182.732254 429.910592 
L 1183.72496 414.933909 
L 1184.717666 426.225818 
L 1185.710372 417.778556 
L 1186.703078 436.287297 
L 1187.695784 391.134003 
L 1188.68849 378.972985 
L 1189.681196 446.650337 
L 1190.673901 412.563724 
L 1191.666607 415.404794 
L 1192.659313 396.478282 
L 1193.652019 442.870243 
L 1194.644725 383.816838 
L 1195.637431 418.563686 
L 1196.630137 410.322433 
L 1197.622843 414.409539 
L 1198.615549 388.831707 
L 1199.608255 408.392355 
L 1200.600961 396.400882 
L 1201.593667 423.046558 
L 1202.586373 392.158982 
L 1203.579078 394.410445 
L 1204.571784 420.060157 
L 1205.56449 422.474893 
L 1206.557196 451.659521 
L 1207.549902 405.363347 
L 1208.542608 384.549802 
L 1209.535314 398.070834 
L 1210.52802 425.631494 
L 1211.520726 427.496445 
L 1212.513432 400.177357 
L 1213.506138 439.700426 
L 1214.498844 395.334587 
L 1215.49155 416.965207 
L 1216.484255 407.936066 
L 1217.476961 395.374946 
L 1218.469667 398.885372 
L 1219.462373 410.493549 
L 1220.455079 441.74381 
L 1221.447785 402.100816 
L 1222.440491 393.467161 
L 1223.433197 413.461307 
L 1224.425903 397.544765 
L 1225.418609 413.156658 
L 1226.411315 418.448687 
L 1227.404021 420.490541 
L 1228.396727 390.174836 
L 1229.389432 399.931936 
L 1230.382138 411.96502 
L 1231.374844 442.140559 
L 1232.36755 401.295664 
L 1233.360256 401.206328 
L 1234.352962 387.461868 
L 1235.345668 404.853997 
L 1236.338374 432.180563 
L 1237.33108 385.951767 
L 1238.323786 412.059393 
L 1239.316492 395.293744 
L 1240.309198 432.094164 
L 1241.301904 425.578804 
L 1242.29461 402.532522 
L 1243.287315 439.536196 
L 1244.280021 413.727076 
L 1245.272727 439.555429 
L 1245.272727 439.555429 
" clip-path="url(#p79bfea697f)" style="fill: none; stroke: #1f77b4; stroke-width: 1.5; stroke-linecap: square"/>
   </g>
   <g id="patch_3">
    <path d="M 180 512.64 
L 180 69.12 
" style="fill: none; stroke: #000000; stroke-width: 0.8; stroke-linejoin: miter; stroke-linecap: square"/>
   </g>
   <g id="patch_4">
    <path d="M 1296 512.64 
L 1296 69.12 
" style="fill: none; stroke: #000000; stroke-width: 0.8; stroke-linejoin: miter; stroke-linecap: square"/>
   </g>
   <g id="patch_5">
    <path d="M 180 512.64 
L 1296 512.64 
" style="fill: none; stroke: #000000; stroke-width: 0.8; stroke-linejoin: miter; stroke-linecap: square"/>
   </g>
   <g id="patch_6">
    <path d="M 180 69.12 
L 1296 69.12 
" style="fill: none; stroke: #000000; stroke-width: 0.8; stroke-linejoin: miter; stroke-linecap: square"/>
   </g>
   <g id="text_15">
    <!-- source6-receiver3 -->
    <g transform="translate(557.625 60.80125) scale(0.4 -0.4)">
     <defs>
      <path id="DejaVuSans-73" d="M 2834 3397 
L 2834 2853 
Q 2591 2978 2328 3040 
Q 2066 3103 1784 3103 
Q 1356 3103 1142 2972 
Q 928 2841 928 2578 
Q 928 2378 1081 2264 
Q 1234 2150 1697 2047 
L 1894 2003 
Q 2506 1872 2764 1633 
Q 3022 1394 3022 966 
Q 3022 478 2636 193 
Q 2250 -91 1575 -91 
Q 1294 -91 989 -36 
Q 684 19 347 128 
L 347 722 
Q 666 556 975 473 
Q 1284 391 1588 391 
Q 1994 391 2212 530 
Q 2431 669 2431 922 
Q 2431 1156 2273 1281 
Q 2116 1406 1581 1522 
L 1381 1569 
Q 847 1681 609 1914 
Q 372 2147 372 2553 
Q 372 3047 722 3315 
Q 1072 3584 1716 3584 
Q 2034 3584 2315 3537 
Q 2597 3491 2834 3397 
z
" transform="scale(0.015625)"/>
      <path id="DejaVuSans-6f" d="M 1959 3097 
Q 1497 3097 1228 2736 
Q 959 2375 959 1747 
Q 959 1119 1226 758 
Q 1494 397 1959 397 
Q 2419 397 2687 759 
Q 2956 1122 2956 1747 
Q 2956 2369 2687 2733 
Q 2419 3097 1959 3097 
z
M 1959 3584 
Q 2709 3584 3137 3096 
Q 3566 2609 3566 1747 
Q 3566 888 3137 398 
Q 2709 -91 1959 -91 
Q 1206 -91 779 398 
Q 353 888 353 1747 
Q 353 2609 779 3096 
Q 1206 3584 1959 3584 
z
" transform="scale(0.015625)"/>
      <path id="DejaVuSans-75" d="M 544 1381 
L 544 3500 
L 1119 3500 
L 1119 1403 
Q 1119 906 1312 657 
Q 1506 409 1894 409 
Q 2359 409 2629 706 
Q 2900 1003 2900 1516 
L 2900 3500 
L 3475 3500 
L 3475 0 
L 2900 0 
L 2900 538 
Q 2691 219 2414 64 
Q 2138 -91 1772 -91 
Q 1169 -91 856 284 
Q 544 659 544 1381 
z
M 1991 3584 
L 1991 3584 
z
" transform="scale(0.015625)"/>
      <path id="DejaVuSans-72" d="M 2631 2963 
Q 2534 3019 2420 3045 
Q 2306 3072 2169 3072 
Q 1681 3072 1420 2755 
Q 1159 2438 1159 1844 
L 1159 0 
L 581 0 
L 581 3500 
L 1159 3500 
L 1159 2956 
Q 1341 3275 1631 3429 
Q 1922 3584 2338 3584 
Q 2397 3584 2469 3576 
Q 2541 3569 2628 3553 
L 2631 2963 
z
" transform="scale(0.015625)"/>
      <path id="DejaVuSans-63" d="M 3122 3366 
L 3122 2828 
Q 2878 2963 2633 3030 
Q 2388 3097 2138 3097 
Q 1578 3097 1268 2742 
Q 959 2388 959 1747 
Q 959 1106 1268 751 
Q 1578 397 2138 397 
Q 2388 397 2633 464 
Q 2878 531 3122 666 
L 3122 134 
Q 2881 22 2623 -34 
Q 2366 -91 2075 -91 
Q 1284 -91 818 406 
Q 353 903 353 1747 
Q 353 2603 823 3093 
Q 1294 3584 2113 3584 
Q 2378 3584 2631 3529 
Q 2884 3475 3122 3366 
z
" transform="scale(0.015625)"/>
      <path id="DejaVuSans-65" d="M 3597 1894 
L 3597 1613 
L 953 1613 
Q 991 1019 1311 708 
Q 1631 397 2203 397 
Q 2534 397 2845 478 
Q 3156 559 3463 722 
L 3463 178 
Q 3153 47 2828 -22 
Q 2503 -91 2169 -91 
Q 1331 -91 842 396 
Q 353 884 353 1716 
Q 353 2575 817 3079 
Q 1281 3584 2069 3584 
Q 2775 3584 3186 3129 
Q 3597 2675 3597 1894 
z
M 3022 2063 
Q 3016 2534 2758 2815 
Q 2500 3097 2075 3097 
Q 1594 3097 1305 2825 
Q 1016 2553 972 2059 
L 3022 2063 
z
" transform="scale(0.015625)"/>
      <path id="DejaVuSans-2d" d="M 313 2009 
L 1997 2009 
L 1997 1497 
L 313 1497 
L 313 2009 
z
" transform="scale(0.015625)"/>
      <path id="DejaVuSans-69" d="M 603 3500 
L 1178 3500 
L 1178 0 
L 603 0 
L 603 3500 
z
M 603 4863 
L 1178 4863 
L 1178 4134 
L 603 4134 
L 603 4863 
z
" transform="scale(0.015625)"/>
      <path id="DejaVuSans-76" d="M 191 3500 
L 800 3500 
L 1894 563 
L 2988 3500 
L 3597 3500 
L 2284 0 
L 1503 0 
L 191 3500 
z
" transform="scale(0.015625)"/>
      <path id="DejaVuSans-33" d="M 2597 2516 
Q 3050 2419 3304 2112 
Q 3559 1806 3559 1356 
Q 3559 666 3084 287 
Q 2609 -91 1734 -91 
Q 1441 -91 1130 -33 
Q 819 25 488 141 
L 488 750 
Q 750 597 1062 519 
Q 1375 441 1716 441 
Q 2309 441 2620 675 
Q 2931 909 2931 1356 
Q 2931 1769 2642 2001 
Q 2353 2234 1838 2234 
L 1294 2234 
L 1294 2753 
L 1863 2753 
Q 2328 2753 2575 2939 
Q 2822 3125 2822 3475 
Q 2822 3834 2567 4026 
Q 2313 4219 1838 4219 
Q 1578 4219 1281 4162 
Q 984 4106 628 3988 
L 628 4550 
Q 988 4650 1302 4700 
Q 1616 4750 1894 4750 
Q 2613 4750 3031 4423 
Q 3450 4097 3450 3541 
Q 3450 3153 3228 2886 
Q 3006 2619 2597 2516 
z
" transform="scale(0.015625)"/>
     </defs>
     <use xlink:href="#DejaVuSans-73"/>
     <use xlink:href="#DejaVuSans-6f" x="52.099609"/>
     <use xlink:href="#DejaVuSans-75" x="113.28125"/>
     <use xlink:href="#DejaVuSans-72" x="176.660156"/>
     <use xlink:href="#DejaVuSans-63" x="215.523438"/>
     <use xlink:href="#DejaVuSans-65" x="270.503906"/>
     <use xlink:href="#DejaVuSans-36" x="332.027344"/>
     <use xlink:href="#DejaVuSans-2d" x="395.650391"/>
     <use xlink:href="#DejaVuSans-72" x="431.734375"/>
     <use xlink:href="#DejaVuSans-65" x="470.597656"/>
     <use xlink:href="#DejaVuSans-63" x="532.121094"/>
     <use xlink:href="#DejaVuSans-65" x="587.101562"/>
     <use xlink:href="#DejaVuSans-69" x="648.625"/>
     <use xlink:href="#DejaVuSans-76" x="676.408203"/>
     <use xlink:href="#DejaVuSans-65" x="735.587891"/>
     <use xlink:href="#DejaVuSans-72" x="797.111328"/>
     <use xlink:href="#DejaVuSans-33" x="838.224609"/>
    </g>
   </g>
  </g>
 </g>
 <defs>
  <clipPath id="p79bfea697f">
   <rect x="180" y="69.12" width="1116" height="443.52"/>
  </clipPath>
 </defs>
</svg>
