<?xml version="1.0" encoding="utf-8" standalone="no"?>
<!DOCTYPE svg PUBLIC "-//W3C//DTD SVG 1.1//EN"
  "http://www.w3.org/Graphics/SVG/1.1/DTD/svg11.dtd">
<svg xmlns:xlink="http://www.w3.org/1999/xlink" width="1440pt" height="576pt" viewBox="0 0 1440 576" xmlns="http://www.w3.org/2000/svg" version="1.1">
 <metadata>
  <rdf:RDF xmlns:dc="http://purl.org/dc/elements/1.1/" xmlns:cc="http://creativecommons.org/ns#" xmlns:rdf="http://www.w3.org/1999/02/22-rdf-syntax-ns#">
   <cc:Work>
    <dc:type rdf:resource="http://purl.org/dc/dcmitype/StillImage"/>
    <dc:date>2024-05-22T04:49:48.965124</dc:date>
    <dc:format>image/svg+xml</dc:format>
    <dc:creator>
     <cc:Agent>
      <dc:title>Matplotlib v3.8.3, https://matplotlib.org/</dc:title>
     </cc:Agent>
    </dc:creator>
   </cc:Work>
  </rdf:RDF>
 </metadata>
 <defs>
  <style type="text/css">*{stroke-linejoin: round; stroke-linecap: butt}</style>
 </defs>
 <g id="figure_1">
  <g id="patch_1">
   <path d="M 0 576 
L 1440 576 
L 1440 0 
L 0 0 
z
" style="fill: #ffffff"/>
  </g>
  <g id="axes_1">
   <g id="patch_2">
    <path d="M 180 512.64 
L 1296 512.64 
L 1296 69.12 
L 180 69.12 
z
" style="fill: #ffffff"/>
   </g>
   <g id="matplotlib.axis_1">
    <g id="xtick_1">
     <g id="line2d_1">
      <defs>
       <path id="mbd5c33c0ad" d="M 0 0 
L 0 3.5 
" style="stroke: #000000; stroke-width: 0.8"/>
      </defs>
      <g>
       <use xlink:href="#mbd5c33c0ad" x="229.734567" y="512.64" style="stroke: #000000; stroke-width: 0.8"/>
      </g>
     </g>
     <g id="text_1">
      <!-- 0 -->
      <g transform="translate(226.553317 527.238438) scale(0.1 -0.1)">
       <defs>
        <path id="DejaVuSans-30" d="M 2034 4250 
Q 1547 4250 1301 3770 
Q 1056 3291 1056 2328 
Q 1056 1369 1301 889 
Q 1547 409 2034 409 
Q 2525 409 2770 889 
Q 3016 1369 3016 2328 
Q 3016 3291 2770 3770 
Q 2525 4250 2034 4250 
z
M 2034 4750 
Q 2819 4750 3233 4129 
Q 3647 3509 3647 2328 
Q 3647 1150 3233 529 
Q 2819 -91 2034 -91 
Q 1250 -91 836 529 
Q 422 1150 422 2328 
Q 422 3509 836 4129 
Q 1250 4750 2034 4750 
z
" transform="scale(0.015625)"/>
       </defs>
       <use xlink:href="#DejaVuSans-30"/>
      </g>
     </g>
    </g>
    <g id="xtick_2">
     <g id="line2d_2">
      <g>
       <use xlink:href="#mbd5c33c0ad" x="433.04074" y="512.64" style="stroke: #000000; stroke-width: 0.8"/>
      </g>
     </g>
     <g id="text_2">
      <!-- 500 -->
      <g transform="translate(423.49699 527.238438) scale(0.1 -0.1)">
       <defs>
        <path id="DejaVuSans-35" d="M 691 4666 
L 3169 4666 
L 3169 4134 
L 1269 4134 
L 1269 2991 
Q 1406 3038 1543 3061 
Q 1681 3084 1819 3084 
Q 2600 3084 3056 2656 
Q 3513 2228 3513 1497 
Q 3513 744 3044 326 
Q 2575 -91 1722 -91 
Q 1428 -91 1123 -41 
Q 819 9 494 109 
L 494 744 
Q 775 591 1075 516 
Q 1375 441 1709 441 
Q 2250 441 2565 725 
Q 2881 1009 2881 1497 
Q 2881 1984 2565 2268 
Q 2250 2553 1709 2553 
Q 1456 2553 1204 2497 
Q 953 2441 691 2322 
L 691 4666 
z
" transform="scale(0.015625)"/>
       </defs>
       <use xlink:href="#DejaVuSans-35"/>
       <use xlink:href="#DejaVuSans-30" x="63.623047"/>
       <use xlink:href="#DejaVuSans-30" x="127.246094"/>
      </g>
     </g>
    </g>
    <g id="xtick_3">
     <g id="line2d_3">
      <g>
       <use xlink:href="#mbd5c33c0ad" x="636.346913" y="512.64" style="stroke: #000000; stroke-width: 0.8"/>
      </g>
     </g>
     <g id="text_3">
      <!-- 1000 -->
      <g transform="translate(623.621913 527.238438) scale(0.1 -0.1)">
       <defs>
        <path id="DejaVuSans-31" d="M 794 531 
L 1825 531 
L 1825 4091 
L 703 3866 
L 703 4441 
L 1819 4666 
L 2450 4666 
L 2450 531 
L 3481 531 
L 3481 0 
L 794 0 
L 794 531 
z
" transform="scale(0.015625)"/>
       </defs>
       <use xlink:href="#DejaVuSans-31"/>
       <use xlink:href="#DejaVuSans-30" x="63.623047"/>
       <use xlink:href="#DejaVuSans-30" x="127.246094"/>
       <use xlink:href="#DejaVuSans-30" x="190.869141"/>
      </g>
     </g>
    </g>
    <g id="xtick_4">
     <g id="line2d_4">
      <g>
       <use xlink:href="#mbd5c33c0ad" x="839.653087" y="512.64" style="stroke: #000000; stroke-width: 0.8"/>
      </g>
     </g>
     <g id="text_4">
      <!-- 1500 -->
      <g transform="translate(826.928087 527.238438) scale(0.1 -0.1)">
       <use xlink:href="#DejaVuSans-31"/>
       <use xlink:href="#DejaVuSans-35" x="63.623047"/>
       <use xlink:href="#DejaVuSans-30" x="127.246094"/>
       <use xlink:href="#DejaVuSans-30" x="190.869141"/>
      </g>
     </g>
    </g>
    <g id="xtick_5">
     <g id="line2d_5">
      <g>
       <use xlink:href="#mbd5c33c0ad" x="1042.95926" y="512.64" style="stroke: #000000; stroke-width: 0.8"/>
      </g>
     </g>
     <g id="text_5">
      <!-- 2000 -->
      <g transform="translate(1030.23426 527.238438) scale(0.1 -0.1)">
       <defs>
        <path id="DejaVuSans-32" d="M 1228 531 
L 3431 531 
L 3431 0 
L 469 0 
L 469 531 
Q 828 903 1448 1529 
Q 2069 2156 2228 2338 
Q 2531 2678 2651 2914 
Q 2772 3150 2772 3378 
Q 2772 3750 2511 3984 
Q 2250 4219 1831 4219 
Q 1534 4219 1204 4116 
Q 875 4013 500 3803 
L 500 4441 
Q 881 4594 1212 4672 
Q 1544 4750 1819 4750 
Q 2544 4750 2975 4387 
Q 3406 4025 3406 3419 
Q 3406 3131 3298 2873 
Q 3191 2616 2906 2266 
Q 2828 2175 2409 1742 
Q 1991 1309 1228 531 
z
" transform="scale(0.015625)"/>
       </defs>
       <use xlink:href="#DejaVuSans-32"/>
       <use xlink:href="#DejaVuSans-30" x="63.623047"/>
       <use xlink:href="#DejaVuSans-30" x="127.246094"/>
       <use xlink:href="#DejaVuSans-30" x="190.869141"/>
      </g>
     </g>
    </g>
    <g id="xtick_6">
     <g id="line2d_6">
      <g>
       <use xlink:href="#mbd5c33c0ad" x="1246.265433" y="512.64" style="stroke: #000000; stroke-width: 0.8"/>
      </g>
     </g>
     <g id="text_6">
      <!-- 2500 -->
      <g transform="translate(1233.540433 527.238438) scale(0.1 -0.1)">
       <use xlink:href="#DejaVuSans-32"/>
       <use xlink:href="#DejaVuSans-35" x="63.623047"/>
       <use xlink:href="#DejaVuSans-30" x="127.246094"/>
       <use xlink:href="#DejaVuSans-30" x="190.869141"/>
      </g>
     </g>
    </g>
   </g>
   <g id="matplotlib.axis_2">
    <g id="ytick_1">
     <g id="line2d_7">
      <defs>
       <path id="m1dd88dd93f" d="M 0 0 
L -3.5 0 
" style="stroke: #000000; stroke-width: 0.8"/>
      </defs>
      <g>
       <use xlink:href="#m1dd88dd93f" x="180" y="502.617006" style="stroke: #000000; stroke-width: 0.8"/>
      </g>
     </g>
     <g id="text_7">
      <!-- −4 -->
      <g transform="translate(158.257812 506.416224) scale(0.1 -0.1)">
       <defs>
        <path id="DejaVuSans-2212" d="M 678 2272 
L 4684 2272 
L 4684 1741 
L 678 1741 
L 678 2272 
z
" transform="scale(0.015625)"/>
        <path id="DejaVuSans-34" d="M 2419 4116 
L 825 1625 
L 2419 1625 
L 2419 4116 
z
M 2253 4666 
L 3047 4666 
L 3047 1625 
L 3713 1625 
L 3713 1100 
L 3047 1100 
L 3047 0 
L 2419 0 
L 2419 1100 
L 313 1100 
L 313 1709 
L 2253 4666 
z
" transform="scale(0.015625)"/>
       </defs>
       <use xlink:href="#DejaVuSans-2212"/>
       <use xlink:href="#DejaVuSans-34" x="83.789062"/>
      </g>
     </g>
    </g>
    <g id="ytick_2">
     <g id="line2d_8">
      <g>
       <use xlink:href="#m1dd88dd93f" x="180" y="420.078746" style="stroke: #000000; stroke-width: 0.8"/>
      </g>
     </g>
     <g id="text_8">
      <!-- −2 -->
      <g transform="translate(158.257812 423.877965) scale(0.1 -0.1)">
       <use xlink:href="#DejaVuSans-2212"/>
       <use xlink:href="#DejaVuSans-32" x="83.789062"/>
      </g>
     </g>
    </g>
    <g id="ytick_3">
     <g id="line2d_9">
      <g>
       <use xlink:href="#m1dd88dd93f" x="180" y="337.540487" style="stroke: #000000; stroke-width: 0.8"/>
      </g>
     </g>
     <g id="text_9">
      <!-- 0 -->
      <g transform="translate(166.6375 341.339705) scale(0.1 -0.1)">
       <use xlink:href="#DejaVuSans-30"/>
      </g>
     </g>
    </g>
    <g id="ytick_4">
     <g id="line2d_10">
      <g>
       <use xlink:href="#m1dd88dd93f" x="180" y="255.002227" style="stroke: #000000; stroke-width: 0.8"/>
      </g>
     </g>
     <g id="text_10">
      <!-- 2 -->
      <g transform="translate(166.6375 258.801446) scale(0.1 -0.1)">
       <use xlink:href="#DejaVuSans-32"/>
      </g>
     </g>
    </g>
    <g id="ytick_5">
     <g id="line2d_11">
      <g>
       <use xlink:href="#m1dd88dd93f" x="180" y="172.463967" style="stroke: #000000; stroke-width: 0.8"/>
      </g>
     </g>
     <g id="text_11">
      <!-- 4 -->
      <g transform="translate(166.6375 176.263186) scale(0.1 -0.1)">
       <use xlink:href="#DejaVuSans-34"/>
      </g>
     </g>
    </g>
    <g id="ytick_6">
     <g id="line2d_12">
      <g>
       <use xlink:href="#m1dd88dd93f" x="180" y="89.925708" style="stroke: #000000; stroke-width: 0.8"/>
      </g>
     </g>
     <g id="text_12">
      <!-- 6 -->
      <g transform="translate(166.6375 93.724927) scale(0.1 -0.1)">
       <defs>
        <path id="DejaVuSans-36" d="M 2113 2584 
Q 1688 2584 1439 2293 
Q 1191 2003 1191 1497 
Q 1191 994 1439 701 
Q 1688 409 2113 409 
Q 2538 409 2786 701 
Q 3034 994 3034 1497 
Q 3034 2003 2786 2293 
Q 2538 2584 2113 2584 
z
M 3366 4563 
L 3366 3988 
Q 3128 4100 2886 4159 
Q 2644 4219 2406 4219 
Q 1781 4219 1451 3797 
Q 1122 3375 1075 2522 
Q 1259 2794 1537 2939 
Q 1816 3084 2150 3084 
Q 2853 3084 3261 2657 
Q 3669 2231 3669 1497 
Q 3669 778 3244 343 
Q 2819 -91 2113 -91 
Q 1303 -91 875 529 
Q 447 1150 447 2328 
Q 447 3434 972 4092 
Q 1497 4750 2381 4750 
Q 2619 4750 2861 4703 
Q 3103 4656 3366 4563 
z
" transform="scale(0.015625)"/>
       </defs>
       <use xlink:href="#DejaVuSans-36"/>
      </g>
     </g>
    </g>
   </g>
   <g id="line2d_13">
    <path d="M 230.727273 289.109992 
L 231.719979 273.807435 
L 232.712685 281.033296 
L 233.70539 334.919143 
L 234.698096 304.824851 
L 235.690802 270.694463 
L 236.683508 265.099875 
L 237.676214 267.809799 
L 238.66892 291.185554 
L 239.661626 346.936133 
L 240.654332 290.046427 
L 241.647038 273.570065 
L 242.639744 285.871823 
L 243.63245 301.969887 
L 244.625156 309.051599 
L 245.617862 308.462038 
L 246.610568 314.527382 
L 247.603273 278.728867 
L 248.595979 262.936759 
L 249.588685 238.92513 
L 250.581391 222.262616 
L 251.574097 236.977637 
L 252.566803 246.743098 
L 253.559509 271.468272 
L 254.552215 240.00707 
L 255.544921 202.575924 
L 256.537627 191.422733 
L 257.530333 204.868255 
L 258.523039 212.965307 
L 259.515745 250.576811 
L 260.50845 199.883539 
L 261.501156 188.82246 
L 262.493862 193.396053 
L 263.486568 257.126529 
L 264.479274 198.509301 
L 266.464686 167.794997 
L 267.457392 195.914414 
L 268.450098 262.130903 
L 269.442804 185.318813 
L 270.43551 167.132539 
L 271.428216 159.551173 
L 272.420922 165.65067 
L 273.413627 200.839601 
L 274.406333 188.718993 
L 275.399039 148.565311 
L 276.391745 146.443828 
L 277.384451 178.927544 
L 278.377157 171.875719 
L 279.369863 129.208153 
L 280.362569 123.907785 
L 281.355275 135.032334 
L 282.347981 177.002783 
L 284.333393 100.304052 
L 285.326099 89.28 
L 286.318804 95.732778 
L 287.31151 121.532781 
L 288.304216 161.293699 
L 289.296922 244.491269 
L 290.289628 157.716807 
L 291.282334 142.264382 
L 292.27504 139.400176 
L 293.267746 159.716585 
L 294.260452 187.198065 
L 295.253158 182.642361 
L 296.245864 176.624092 
L 297.23857 191.590512 
L 299.223981 174.61807 
L 300.216687 176.607331 
L 301.209393 183.004455 
L 302.202099 204.731657 
L 303.194805 220.049501 
L 304.187511 185.762385 
L 305.180217 175.047317 
L 306.172923 182.575491 
L 308.158335 241.739699 
L 309.151041 214.823942 
L 310.143747 209.225051 
L 311.136453 228.599997 
L 312.129159 240.302788 
L 313.121864 231.545427 
L 314.11457 227.345178 
L 315.107276 241.166832 
L 316.099982 258.276183 
L 317.092688 326.899928 
L 318.085394 296.456275 
L 319.0781 252.729513 
L 320.070806 239.916083 
L 321.063512 234.045123 
L 322.056218 241.014562 
L 323.048924 264.39502 
L 324.04163 315.9856 
L 325.034336 260.004048 
L 326.027041 250.248797 
L 327.019747 245.788064 
L 328.012453 254.730251 
L 329.005159 253.804088 
L 329.997865 259.739059 
L 330.990571 260.877445 
L 331.983277 263.538295 
L 332.975983 263.764126 
L 333.968689 268.089505 
L 334.961395 275.559789 
L 335.954101 277.797384 
L 336.946807 297.519792 
L 337.939513 341.776734 
L 339.924924 283.652323 
L 340.91763 281.80667 
L 341.910336 280.612655 
L 342.903042 291.908839 
L 343.895748 300.055349 
L 344.888454 301.128516 
L 345.88116 288.574946 
L 346.873866 280.432039 
L 347.866572 289.000077 
L 348.859278 324.461105 
L 349.851984 353.293821 
L 350.84469 296.210985 
L 351.837395 290.454727 
L 352.830101 276.935604 
L 353.822807 278.798191 
L 354.815513 279.253608 
L 355.808219 330.719517 
L 357.793631 247.677202 
L 358.786337 232.348272 
L 359.779043 234.186989 
L 360.771749 253.527393 
L 361.764455 325.032242 
L 362.757161 245.581241 
L 363.749867 229.840093 
L 364.742572 236.372067 
L 365.735278 274.763752 
L 366.727984 281.25543 
L 367.72069 253.352432 
L 368.713396 271.112848 
L 369.706102 286.856109 
L 370.698808 243.795127 
L 371.691514 229.796898 
L 372.68422 235.466637 
L 373.676926 246.671935 
L 375.662338 272.249203 
L 376.655044 308.313539 
L 377.64775 256.214029 
L 378.640455 240.550609 
L 379.633161 244.66085 
L 380.625867 298.266774 
L 381.618573 257.22826 
L 382.611279 228.501242 
L 384.596691 212.048925 
L 385.589397 193.379649 
L 386.582103 179.534864 
L 387.574809 176.408706 
L 388.567515 183.207123 
L 389.560221 197.202482 
L 390.552927 196.255011 
L 391.545632 187.653267 
L 392.538338 187.751641 
L 394.52375 207.327597 
L 395.516456 209.628394 
L 396.509162 216.473195 
L 397.501868 239.198588 
L 398.494574 251.276356 
L 399.48728 224.255737 
L 400.479986 213.385842 
L 401.472692 213.631154 
L 402.465398 219.570867 
L 403.458104 230.004764 
L 404.450809 232.268207 
L 405.443515 227.501536 
L 406.436221 228.659385 
L 407.428927 236.793698 
L 408.421633 257.739035 
L 409.414339 294.496714 
L 410.407045 299.214611 
L 411.399751 276.92495 
L 412.392457 265.397223 
L 413.385163 262.973209 
L 415.370575 273.044963 
L 416.363281 282.879594 
L 417.355986 290.279536 
L 418.348692 317.585917 
L 419.341398 328.212351 
L 420.334104 291.86534 
L 421.32681 275.577381 
L 422.319516 262.646593 
L 423.312222 260.91253 
L 424.304928 267.98185 
L 425.297634 283.230325 
L 426.29034 321.86996 
L 427.283046 381.778205 
L 428.275752 335.002014 
L 429.268458 305.44308 
L 430.261163 281.084887 
L 431.253869 277.347582 
L 432.246575 277.659278 
L 433.239281 291.13227 
L 434.231987 298.930801 
L 435.224693 290.009805 
L 436.217399 287.689597 
L 437.210105 291.105294 
L 438.202811 324.901455 
L 439.195517 374.253281 
L 440.188223 314.277878 
L 441.180929 302.447193 
L 442.173635 301.003868 
L 443.166341 297.593981 
L 444.159046 305.690146 
L 445.151752 324.449745 
L 446.144458 401.377175 
L 448.12987 305.354631 
L 449.122576 285.348902 
L 450.115282 277.015169 
L 451.107988 293.705153 
L 452.100694 340.284361 
L 453.0934 314.319714 
L 454.086106 295.14623 
L 455.078812 302.043125 
L 456.071518 306.684963 
L 457.064223 291.364706 
L 458.056929 289.979978 
L 459.049635 319.724007 
L 460.042341 332.216031 
L 461.035047 288.368101 
L 462.027753 284.177394 
L 463.020459 298.936946 
L 464.013165 405.145824 
L 465.005871 296.724306 
L 465.998577 280.252441 
L 466.991283 273.084358 
L 467.983989 272.842158 
L 468.976695 270.79624 
L 469.9694 274.813053 
L 471.954812 261.007876 
L 472.947518 261.635084 
L 473.940224 282.499116 
L 474.93293 308.037781 
L 475.925636 277.128021 
L 476.918342 266.999355 
L 477.911048 261.408591 
L 478.903754 258.358228 
L 479.89646 257.698334 
L 481.881872 284.805507 
L 482.874577 269.309021 
L 483.867283 256.562566 
L 484.859989 260.346805 
L 485.852695 270.154622 
L 486.845401 281.742358 
L 487.838107 284.874112 
L 489.823519 331.865496 
L 490.816225 285.118012 
L 491.808931 266.112212 
L 492.801637 255.131076 
L 493.794343 251.714057 
L 496.77246 225.336455 
L 497.765166 223.316469 
L 498.757872 227.540488 
L 499.750578 238.973841 
L 500.743284 256.481701 
L 501.73599 266.156205 
L 502.728696 268.83422 
L 503.721402 280.255008 
L 504.714108 310.533984 
L 505.706814 305.408541 
L 506.69952 289.253839 
L 507.692226 296.274327 
L 508.684932 317.284666 
L 509.677637 317.818816 
L 510.670343 297.576056 
L 511.663049 292.12336 
L 512.655755 282.886187 
L 513.648461 275.660804 
L 514.641167 270.822375 
L 515.633873 269.20421 
L 516.626579 276.728038 
L 517.619285 286.358255 
L 518.611991 286.650621 
L 519.604697 282.381079 
L 520.597403 277.366338 
L 521.590109 279.322681 
L 523.57552 296.230832 
L 524.568226 315.001062 
L 525.560932 324.745687 
L 526.553638 315.214236 
L 527.546344 314.815478 
L 528.53905 307.221039 
L 529.531756 304.693548 
L 530.524462 301.508928 
L 531.517168 308.665336 
L 532.509874 333.224545 
L 533.50258 344.004641 
L 534.495286 335.429039 
L 535.487991 340.605261 
L 536.480697 324.003481 
L 537.473403 294.526674 
L 538.466109 281.568727 
L 539.458815 283.702791 
L 540.451521 293.907778 
L 541.444227 313.83451 
L 542.436933 339.907886 
L 543.429639 336.590347 
L 544.422345 335.461203 
L 545.415051 322.191358 
L 546.407757 323.46851 
L 547.400463 326.828859 
L 548.393168 332.966025 
L 549.385874 341.417035 
L 550.37858 322.234603 
L 551.371286 308.344565 
L 552.363992 307.257017 
L 553.356698 304.919858 
L 555.34211 316.15958 
L 556.334816 316.034839 
L 558.320228 303.902684 
L 559.312934 316.959325 
L 560.30564 337.104251 
L 561.298345 348.022292 
L 563.283757 304.433609 
L 564.276463 298.818085 
L 565.269169 298.786411 
L 566.261875 311.72766 
L 567.254581 338.531673 
L 568.247287 319.674657 
L 569.239993 308.252203 
L 571.225405 328.137924 
L 572.218111 319.699535 
L 573.210817 304.119527 
L 574.203523 301.904173 
L 575.196228 305.053137 
L 576.188934 317.216307 
L 577.18164 322.862532 
L 578.174346 342.126242 
L 579.167052 349.882428 
L 580.159758 412.307808 
L 581.152464 352.5617 
L 582.14517 320.793341 
L 583.137876 311.403973 
L 584.130582 306.942717 
L 585.123288 309.808101 
L 586.115994 324.129798 
L 587.1087 351.685807 
L 588.101405 309.853154 
L 589.094111 289.746768 
L 590.086817 280.631963 
L 591.079523 287.804529 
L 592.072229 305.783058 
L 593.064935 309.236853 
L 594.057641 290.817459 
L 595.050347 288.697174 
L 596.043053 296.346177 
L 597.035759 305.423645 
L 598.028465 304.86852 
L 599.021171 285.567849 
L 600.013877 269.049727 
L 601.006582 256.35766 
L 601.999288 251.202309 
L 602.991994 251.675895 
L 603.9847 252.734246 
L 604.977406 250.393028 
L 605.970112 245.990032 
L 606.962818 246.831153 
L 607.955524 251.632768 
L 609.940936 275.290255 
L 610.933642 294.691003 
L 611.926348 328.223658 
L 612.919054 328.411256 
L 613.911759 293.567751 
L 614.904465 278.0707 
L 615.897171 271.876085 
L 616.889877 273.000566 
L 617.882583 275.826594 
L 618.875289 288.01335 
L 619.867995 306.9544 
L 620.860701 342.165861 
L 621.853407 314.715098 
L 622.846113 303.886695 
L 623.838819 302.426519 
L 624.831525 315.956081 
L 625.824231 316.43189 
L 626.816936 320.344709 
L 627.809642 328.193136 
L 628.802348 347.868463 
L 630.78776 314.879182 
L 631.780466 315.25013 
L 633.765878 354.075213 
L 634.758584 367.203756 
L 635.75129 392.899233 
L 636.743996 369.164812 
L 637.736702 360.010865 
L 638.729408 345.475548 
L 639.722114 335.973509 
L 640.714819 349.285306 
L 641.707525 365.419259 
L 642.700231 374.997208 
L 643.692937 360.407648 
L 644.685643 352.765385 
L 645.678349 348.697019 
L 646.671055 341.160268 
L 647.663761 331.12598 
L 648.656467 336.022882 
L 649.649173 338.272834 
L 650.641879 353.798112 
L 651.634585 346.070481 
L 652.627291 342.113079 
L 653.619996 331.277706 
L 654.612702 324.149924 
L 655.605408 326.611265 
L 656.598114 324.499187 
L 657.59082 330.469082 
L 658.583526 328.670894 
L 659.576232 344.439531 
L 660.568938 358.024035 
L 661.561644 393.81172 
L 662.55435 352.700975 
L 664.539762 333.961407 
L 665.532468 346.143154 
L 666.525173 349.855601 
L 667.517879 367.197165 
L 668.510585 357.576496 
L 669.503291 380.699457 
L 670.495997 433.459438 
L 671.488703 371.456488 
L 672.481409 347.445948 
L 673.474115 346.363112 
L 674.466821 351.263689 
L 675.459527 390.623534 
L 676.452233 402.287231 
L 677.444939 380.920415 
L 678.437645 355.921039 
L 679.43035 322.760934 
L 680.423056 312.569512 
L 681.415762 306.611124 
L 682.408468 312.145769 
L 684.39388 324.917222 
L 685.386586 328.916205 
L 686.379292 337.792555 
L 687.371998 353.868141 
L 688.364704 338.669906 
L 689.35741 330.430374 
L 690.350116 332.044481 
L 691.342822 329.239554 
L 692.335527 325.716713 
L 693.328233 317.88199 
L 694.320939 323.00945 
L 695.313645 326.095482 
L 696.306351 327.114029 
L 697.299057 314.909395 
L 698.291763 312.908555 
L 699.284469 311.161714 
L 700.277175 312.482868 
L 701.269881 303.77566 
L 702.262587 302.108653 
L 703.255293 301.09986 
L 704.247999 308.171803 
L 705.240705 307.833205 
L 706.23341 300.573691 
L 708.218822 273.838586 
L 709.211528 266.393428 
L 710.204234 261.260528 
L 711.19694 260.255567 
L 712.189646 258.00708 
L 713.182352 258.186059 
L 714.175058 259.833974 
L 715.167764 267.592875 
L 716.16047 280.076387 
L 718.145882 319.866596 
L 719.138587 333.848625 
L 720.131293 322.285566 
L 721.123999 314.296244 
L 722.116705 304.120183 
L 723.109411 303.587135 
L 724.102117 299.728233 
L 725.094823 299.826329 
L 726.087529 296.036667 
L 727.080235 297.581734 
L 728.072941 296.818324 
L 729.065647 300.455537 
L 730.058353 305.117831 
L 731.051059 316.750542 
L 732.043764 339.28965 
L 733.03647 346.476809 
L 734.029176 340.394995 
L 735.021882 341.331942 
L 736.014588 337.233433 
L 737.007294 342.770449 
L 738 343.051251 
L 738.992706 339.125781 
L 739.985412 340.500662 
L 740.978118 345.759646 
L 741.970824 391.748713 
L 742.96353 380.434469 
L 743.956236 343.234215 
L 744.948941 339.146006 
L 745.941647 349.894571 
L 746.934353 378.042856 
L 748.919765 358.689901 
L 749.912471 350.249557 
L 750.905177 366.451071 
L 751.897883 375.69976 
L 752.890589 382.880945 
L 753.883295 349.158468 
L 754.876001 340.422199 
L 755.868707 327.538904 
L 756.861413 328.068359 
L 757.854118 327.530335 
L 758.846824 332.785413 
L 759.83953 335.018968 
L 760.832236 337.870012 
L 761.824942 344.471008 
L 762.817648 352.479283 
L 763.810354 368.055307 
L 764.80306 366.576512 
L 765.795766 373.339062 
L 766.788472 356.137731 
L 767.781178 356.945426 
L 768.773884 369.359232 
L 769.76659 377.876673 
L 770.759295 352.126208 
L 771.752001 347.311977 
L 772.744707 343.121439 
L 773.737413 345.24061 
L 774.730119 336.277887 
L 775.722825 341.723068 
L 776.715531 349.39919 
L 777.708237 364.619279 
L 778.700943 351.951013 
L 779.693649 365.338745 
L 780.686355 397.699782 
L 781.679061 384.259599 
L 782.671767 351.970904 
L 783.664473 349.570717 
L 784.657178 358.850981 
L 785.649884 382.216715 
L 786.64259 350.283865 
L 787.635296 325.305534 
L 788.628002 315.128818 
L 789.620708 311.592804 
L 790.613414 312.873244 
L 791.60612 319.928412 
L 792.598826 323.271407 
L 794.584238 341.195637 
L 795.576944 386.322542 
L 796.56965 389.828684 
L 797.562355 353.15095 
L 798.555061 355.768951 
L 799.547767 339.982194 
L 801.533179 318.192474 
L 802.525885 325.621071 
L 803.518591 339.347309 
L 804.511297 359.30342 
L 805.504003 332.391256 
L 807.489415 309.772455 
L 808.482121 307.690228 
L 809.474827 304.357422 
L 810.467532 308.266697 
L 811.460238 310.318405 
L 812.452944 312.725175 
L 813.44565 311.343315 
L 814.438356 304.500423 
L 815.431062 301.496878 
L 816.423768 297.063433 
L 817.416474 298.344723 
L 818.40918 296.216409 
L 819.401886 295.150769 
L 820.394592 292.770041 
L 821.387298 294.958515 
L 822.380004 298.147739 
L 824.365415 306.627433 
L 825.358121 316.393712 
L 826.350827 339.505989 
L 827.343533 385.225997 
L 828.336239 351.803763 
L 829.328945 333.860486 
L 830.321651 318.552603 
L 832.307063 312.210343 
L 833.299769 317.035991 
L 837.270592 341.102576 
L 839.256004 380.671855 
L 840.24871 385.316522 
L 842.234122 364.360683 
L 843.226828 359.276459 
L 844.219534 345.713128 
L 845.21224 344.017127 
L 846.204946 344.629864 
L 847.197652 348.165794 
L 848.190358 354.870054 
L 849.183064 358.60242 
L 851.168475 416.505726 
L 852.161181 391.689633 
L 853.153887 371.600894 
L 854.146593 367.515451 
L 855.139299 365.546712 
L 856.132005 359.667467 
L 857.124711 358.019649 
L 858.117417 371.315483 
L 859.110123 373.599215 
L 860.102829 340.840812 
L 861.095535 332.032854 
L 862.088241 328.764835 
L 863.080946 337.396416 
L 865.066358 340.272732 
L 866.059064 337.729786 
L 867.05177 348.37456 
L 868.044476 366.105422 
L 869.037182 392.940728 
L 870.029888 404.863 
L 871.022594 381.824334 
L 872.0153 383.417213 
L 873.008006 395.376924 
L 874.000712 419.92351 
L 875.986123 369.896352 
L 876.978829 341.906002 
L 877.971535 339.10933 
L 878.964241 339.303318 
L 879.956947 357.450533 
L 880.949653 373.065206 
L 881.942359 370.529016 
L 882.935065 356.435842 
L 883.927771 364.123615 
L 884.920477 381.28906 
L 885.913183 393.436491 
L 886.905889 373.74311 
L 887.898595 386.428362 
L 888.8913 406.959922 
L 889.884006 414.497178 
L 890.876712 382.988101 
L 891.869418 389.221283 
L 892.862124 354.481346 
L 893.85483 333.623487 
L 894.847536 322.085298 
L 895.840242 322.221031 
L 896.832948 324.241964 
L 897.825654 334.531794 
L 898.81836 337.566681 
L 899.811066 342.728122 
L 900.803772 342.822645 
L 901.796477 358.117282 
L 902.789183 381.908402 
L 903.781889 383.72967 
L 904.774595 364.639931 
L 905.767301 347.716615 
L 906.760007 348.179683 
L 907.752713 343.773753 
L 908.745419 351.991771 
L 909.738125 365.638835 
L 910.730831 414.424393 
L 911.723537 372.409189 
L 913.708949 338.464732 
L 914.701655 339.090225 
L 915.69436 337.301543 
L 916.687066 345.954667 
L 917.679772 352.69828 
L 918.672478 357.520586 
L 919.665184 354.033705 
L 920.65789 341.944047 
L 921.650596 335.325322 
L 922.643302 323.407926 
L 923.636008 321.135915 
L 924.628714 317.829703 
L 925.62142 315.24616 
L 926.614126 311.314226 
L 927.606832 310.068157 
L 928.599537 317.270934 
L 929.592243 328.325708 
L 930.584949 356.151218 
L 931.577655 377.786362 
L 932.570361 435.719006 
L 933.563067 423.331454 
L 934.555773 379.993595 
L 935.548479 368.46025 
L 936.541185 361.562903 
L 937.533891 357.224447 
L 938.526597 355.814211 
L 939.519303 348.337213 
L 940.512009 355.504099 
L 941.504714 357.576292 
L 942.49742 370.632868 
L 943.490126 353.222792 
L 944.482832 353.701121 
L 945.475538 354.982276 
L 946.468244 387.5971 
L 947.46095 424.543948 
L 948.453656 374.607346 
L 949.446362 360.076086 
L 950.439068 372.676676 
L 951.431774 365.115482 
L 952.42448 363.351861 
L 953.417186 356.950055 
L 954.409891 370.581645 
L 955.402597 356.871736 
L 956.395303 348.420446 
L 957.388009 342.899265 
L 958.380715 358.822689 
L 959.373421 372.857928 
L 960.366127 403.168178 
L 961.358833 395.491655 
L 962.351539 363.698022 
L 963.344245 348.908413 
L 964.336951 341.24093 
L 965.329657 349.904161 
L 966.322363 374.249112 
L 967.315068 377.685561 
L 968.307774 350.778527 
L 969.30048 347.914771 
L 970.293186 349.170876 
L 972.278598 366.960281 
L 973.271304 377.687403 
L 974.26401 423.727501 
L 975.256716 420.718247 
L 976.249422 379.689465 
L 977.242128 378.178203 
L 978.234834 369.615207 
L 979.22754 393.373203 
L 980.220246 391.888979 
L 981.212951 399.85723 
L 982.205657 381.780048 
L 983.198363 408.295364 
L 984.191069 415.762824 
L 985.183775 373.362526 
L 986.176481 358.336148 
L 987.169187 347.604037 
L 988.161893 345.673254 
L 989.154599 343.402245 
L 990.147305 346.721375 
L 991.140011 360.248371 
L 992.132717 389.226446 
L 993.125423 392.483659 
L 994.118128 385.212681 
L 995.110834 375.230861 
L 996.10354 395.525919 
L 997.096246 371.308264 
L 998.088952 371.683733 
L 999.081658 366.360333 
L 1000.074364 376.25998 
L 1001.06707 356.885851 
L 1003.052482 342.232021 
L 1004.045188 349.825141 
L 1005.037894 349.45374 
L 1006.0306 358.894699 
L 1007.023305 356.98558 
L 1008.016011 380.857216 
L 1009.008717 423.667287 
L 1010.001423 382.02273 
L 1010.994129 359.339937 
L 1011.986835 346.732145 
L 1012.979541 342.886658 
L 1014.964953 343.735774 
L 1016.950365 363.177379 
L 1017.943071 393.383972 
L 1018.935777 407.77731 
L 1019.928482 386.708414 
L 1020.921188 380.247314 
L 1021.913894 364.390481 
L 1022.9066 365.142818 
L 1023.899306 367.376894 
L 1024.892012 364.952259 
L 1025.884718 366.984581 
L 1026.877424 348.478791 
L 1027.87013 339.70571 
L 1028.862836 326.759973 
L 1029.855542 323.15909 
L 1030.848248 322.492117 
L 1031.840954 323.472283 
L 1032.833659 326.009912 
L 1033.826365 322.879512 
L 1034.819071 325.408193 
L 1035.811777 325.752599 
L 1036.804483 337.036415 
L 1037.797189 345.460786 
L 1038.789895 361.420648 
L 1039.782601 370.393383 
L 1041.768013 433.06392 
L 1042.760719 378.683717 
L 1043.753425 356.359624 
L 1044.746131 351.833052 
L 1045.738837 340.952649 
L 1046.731542 340.945958 
L 1047.724248 336.286244 
L 1048.716954 343.930488 
L 1049.70966 348.807686 
L 1050.702366 356.071623 
L 1051.695072 348.542367 
L 1052.687778 351.463176 
L 1053.680484 356.299049 
L 1054.67319 370.219101 
L 1055.665896 364.399272 
L 1056.658602 374.000239 
L 1057.651308 375.2696 
L 1058.644014 368.034511 
L 1059.636719 343.051911 
L 1060.629425 341.079167 
L 1061.622131 340.965134 
L 1062.614837 359.002457 
L 1063.607543 370.703498 
L 1064.600249 401.606952 
L 1065.592955 412.41396 
L 1066.585661 418.487647 
L 1067.578367 385.699872 
L 1068.571073 387.202216 
L 1069.563779 389.721079 
L 1070.556485 417.444492 
L 1071.549191 394.663285 
L 1072.541896 376.921905 
L 1073.534602 367.295087 
L 1074.527308 361.452317 
L 1075.520014 353.82446 
L 1076.51272 357.725615 
L 1077.505426 359.884247 
L 1078.498132 389.557526 
L 1079.490838 406.867458 
L 1080.483544 445.972808 
L 1081.47625 409.578831 
L 1082.468956 418.567651 
L 1083.461662 389.044203 
L 1084.454368 370.892945 
L 1085.447073 364.516546 
L 1086.439779 352.810495 
L 1087.432485 357.297304 
L 1088.425191 358.598085 
L 1089.417897 391.301255 
L 1090.410603 418.979786 
L 1091.403309 386.295953 
L 1092.396015 366.188359 
L 1093.388721 357.960516 
L 1094.381427 354.237234 
L 1095.374133 360.585843 
L 1096.366839 364.737854 
L 1097.359545 375.984214 
L 1098.35225 372.239651 
L 1099.344956 382.660462 
L 1100.337662 387.302866 
L 1101.330368 443.813545 
L 1102.323074 423.464046 
L 1103.31578 381.947564 
L 1104.308486 380.670966 
L 1105.301192 364.741795 
L 1106.293898 370.82529 
L 1107.286604 371.276141 
L 1108.27931 386.282126 
L 1109.272016 365.445186 
L 1110.264722 359.907419 
L 1111.257428 351.445729 
L 1112.250133 359.448824 
L 1113.242839 361.678074 
L 1114.235545 366.213152 
L 1115.228251 367.571795 
L 1116.220957 371.998038 
L 1117.213663 387.162772 
L 1118.206369 375.830071 
L 1119.199075 373.993982 
L 1120.191781 376.707092 
L 1121.184487 364.528602 
L 1122.177193 359.3166 
L 1123.169899 351.259241 
L 1124.162605 363.296272 
L 1125.15531 372.40525 
L 1126.148016 420.45435 
L 1127.140722 420.809623 
L 1128.133428 406.711484 
L 1129.126134 378.952433 
L 1130.11884 373.155516 
L 1131.111546 357.912279 
L 1132.104252 357.641397 
L 1133.096958 345.033919 
L 1134.089664 340.727799 
L 1135.08237 330.362261 
L 1136.075076 327.491745 
L 1137.067782 326.637423 
L 1138.060487 327.676 
L 1139.053193 333.101528 
L 1140.045899 331.480375 
L 1141.038605 334.80921 
L 1142.031311 332.48936 
L 1143.024017 339.427101 
L 1144.016723 345.567577 
L 1145.009429 355.936352 
L 1146.002135 361.772749 
L 1146.994841 362.695277 
L 1147.987547 371.663226 
L 1148.980253 384.512816 
L 1149.972959 492.48 
L 1150.965664 400.039701 
L 1151.95837 360.334301 
L 1152.951076 352.962268 
L 1153.943782 342.714917 
L 1154.936488 345.232194 
L 1155.929194 343.217215 
L 1156.9219 347.021905 
L 1157.914606 347.681129 
L 1158.907312 357.594623 
L 1159.900018 375.216063 
L 1160.892724 401.570129 
L 1161.88543 371.148131 
L 1162.878136 361.683267 
L 1163.870841 347.544708 
L 1164.863547 347.280316 
L 1165.856253 342.649252 
L 1167.841665 351.358988 
L 1168.834371 362.889525 
L 1170.819783 370.926831 
L 1171.812489 362.496942 
L 1172.805195 367.839299 
L 1173.797901 375.112789 
L 1174.790607 402.065851 
L 1175.783313 432.296756 
L 1176.776019 385.611445 
L 1177.768724 368.018778 
L 1178.76143 368.784981 
L 1179.754136 362.888836 
L 1180.746842 371.731377 
L 1181.739548 367.245754 
L 1182.732254 374.99953 
L 1183.72496 363.586746 
L 1184.717666 366.675587 
L 1185.710372 357.953014 
L 1186.703078 364.965481 
L 1187.695784 362.673005 
L 1188.68849 368.664825 
L 1189.681196 368.760525 
L 1190.673901 372.647221 
L 1191.666607 378.485637 
L 1192.659313 378.351061 
L 1193.652019 376.540171 
L 1194.644725 370.517334 
L 1195.637431 374.790119 
L 1196.630137 369.953875 
L 1197.622843 374.859625 
L 1198.615549 365.666886 
L 1199.608255 373.768027 
L 1200.600961 367.708425 
L 1201.593667 372.729893 
L 1202.586373 359.666884 
L 1203.579078 365.468136 
L 1204.571784 364.548164 
L 1205.56449 384.068768 
L 1206.557196 378.296814 
L 1207.549902 397.480081 
L 1208.542608 401.510355 
L 1209.535314 472.236947 
L 1210.52802 428.933473 
L 1211.520726 391.577867 
L 1212.513432 385.366192 
L 1213.506138 364.574891 
L 1214.498844 360.823759 
L 1215.49155 354.42958 
L 1216.484255 353.074581 
L 1217.476961 349.50096 
L 1218.469667 348.71866 
L 1220.455079 367.666939 
L 1221.447785 381.209728 
L 1222.440491 368.060933 
L 1223.433197 369.137833 
L 1224.425903 372.306568 
L 1225.418609 402.426411 
L 1226.411315 394.015899 
L 1227.404021 397.60283 
L 1228.396727 410.744151 
L 1229.389432 406.645246 
L 1230.382138 382.155474 
L 1231.374844 363.237813 
L 1232.36755 365.734357 
L 1233.360256 379.148308 
L 1234.352962 399.416387 
L 1235.345668 455.500834 
L 1236.338374 405.212 
L 1237.33108 369.062695 
L 1238.323786 364.120175 
L 1239.316492 350.420574 
L 1240.309198 348.630192 
L 1241.301904 340.376673 
L 1242.29461 337.417396 
L 1243.287315 336.957787 
L 1244.280021 336.663545 
L 1245.272727 343.930107 
L 1245.272727 343.930107 
" clip-path="url(#pf5633a20c5)" style="fill: none; stroke: #1f77b4; stroke-width: 1.5; stroke-linecap: square"/>
   </g>
   <g id="patch_3">
    <path d="M 180 512.64 
L 180 69.12 
" style="fill: none; stroke: #000000; stroke-width: 0.8; stroke-linejoin: miter; stroke-linecap: square"/>
   </g>
   <g id="patch_4">
    <path d="M 1296 512.64 
L 1296 69.12 
" style="fill: none; stroke: #000000; stroke-width: 0.8; stroke-linejoin: miter; stroke-linecap: square"/>
   </g>
   <g id="patch_5">
    <path d="M 180 512.64 
L 1296 512.64 
" style="fill: none; stroke: #000000; stroke-width: 0.8; stroke-linejoin: miter; stroke-linecap: square"/>
   </g>
   <g id="patch_6">
    <path d="M 180 69.12 
L 1296 69.12 
" style="fill: none; stroke: #000000; stroke-width: 0.8; stroke-linejoin: miter; stroke-linecap: square"/>
   </g>
   <g id="text_13">
    <!-- source6-receiver4 -->
    <g transform="translate(557.625 60.80125) scale(0.4 -0.4)">
     <defs>
      <path id="DejaVuSans-73" d="M 2834 3397 
L 2834 2853 
Q 2591 2978 2328 3040 
Q 2066 3103 1784 3103 
Q 1356 3103 1142 2972 
Q 928 2841 928 2578 
Q 928 2378 1081 2264 
Q 1234 2150 1697 2047 
L 1894 2003 
Q 2506 1872 2764 1633 
Q 3022 1394 3022 966 
Q 3022 478 2636 193 
Q 2250 -91 1575 -91 
Q 1294 -91 989 -36 
Q 684 19 347 128 
L 347 722 
Q 666 556 975 473 
Q 1284 391 1588 391 
Q 1994 391 2212 530 
Q 2431 669 2431 922 
Q 2431 1156 2273 1281 
Q 2116 1406 1581 1522 
L 1381 1569 
Q 847 1681 609 1914 
Q 372 2147 372 2553 
Q 372 3047 722 3315 
Q 1072 3584 1716 3584 
Q 2034 3584 2315 3537 
Q 2597 3491 2834 3397 
z
" transform="scale(0.015625)"/>
      <path id="DejaVuSans-6f" d="M 1959 3097 
Q 1497 3097 1228 2736 
Q 959 2375 959 1747 
Q 959 1119 1226 758 
Q 1494 397 1959 397 
Q 2419 397 2687 759 
Q 2956 1122 2956 1747 
Q 2956 2369 2687 2733 
Q 2419 3097 1959 3097 
z
M 1959 3584 
Q 2709 3584 3137 3096 
Q 3566 2609 3566 1747 
Q 3566 888 3137 398 
Q 2709 -91 1959 -91 
Q 1206 -91 779 398 
Q 353 888 353 1747 
Q 353 2609 779 3096 
Q 1206 3584 1959 3584 
z
" transform="scale(0.015625)"/>
      <path id="DejaVuSans-75" d="M 544 1381 
L 544 3500 
L 1119 3500 
L 1119 1403 
Q 1119 906 1312 657 
Q 1506 409 1894 409 
Q 2359 409 2629 706 
Q 2900 1003 2900 1516 
L 2900 3500 
L 3475 3500 
L 3475 0 
L 2900 0 
L 2900 538 
Q 2691 219 2414 64 
Q 2138 -91 1772 -91 
Q 1169 -91 856 284 
Q 544 659 544 1381 
z
M 1991 3584 
L 1991 3584 
z
" transform="scale(0.015625)"/>
      <path id="DejaVuSans-72" d="M 2631 2963 
Q 2534 3019 2420 3045 
Q 2306 3072 2169 3072 
Q 1681 3072 1420 2755 
Q 1159 2438 1159 1844 
L 1159 0 
L 581 0 
L 581 3500 
L 1159 3500 
L 1159 2956 
Q 1341 3275 1631 3429 
Q 1922 3584 2338 3584 
Q 2397 3584 2469 3576 
Q 2541 3569 2628 3553 
L 2631 2963 
z
" transform="scale(0.015625)"/>
      <path id="DejaVuSans-63" d="M 3122 3366 
L 3122 2828 
Q 2878 2963 2633 3030 
Q 2388 3097 2138 3097 
Q 1578 3097 1268 2742 
Q 959 2388 959 1747 
Q 959 1106 1268 751 
Q 1578 397 2138 397 
Q 2388 397 2633 464 
Q 2878 531 3122 666 
L 3122 134 
Q 2881 22 2623 -34 
Q 2366 -91 2075 -91 
Q 1284 -91 818 406 
Q 353 903 353 1747 
Q 353 2603 823 3093 
Q 1294 3584 2113 3584 
Q 2378 3584 2631 3529 
Q 2884 3475 3122 3366 
z
" transform="scale(0.015625)"/>
      <path id="DejaVuSans-65" d="M 3597 1894 
L 3597 1613 
L 953 1613 
Q 991 1019 1311 708 
Q 1631 397 2203 397 
Q 2534 397 2845 478 
Q 3156 559 3463 722 
L 3463 178 
Q 3153 47 2828 -22 
Q 2503 -91 2169 -91 
Q 1331 -91 842 396 
Q 353 884 353 1716 
Q 353 2575 817 3079 
Q 1281 3584 2069 3584 
Q 2775 3584 3186 3129 
Q 3597 2675 3597 1894 
z
M 3022 2063 
Q 3016 2534 2758 2815 
Q 2500 3097 2075 3097 
Q 1594 3097 1305 2825 
Q 1016 2553 972 2059 
L 3022 2063 
z
" transform="scale(0.015625)"/>
      <path id="DejaVuSans-2d" d="M 313 2009 
L 1997 2009 
L 1997 1497 
L 313 1497 
L 313 2009 
z
" transform="scale(0.015625)"/>
      <path id="DejaVuSans-69" d="M 603 3500 
L 1178 3500 
L 1178 0 
L 603 0 
L 603 3500 
z
M 603 4863 
L 1178 4863 
L 1178 4134 
L 603 4134 
L 603 4863 
z
" transform="scale(0.015625)"/>
      <path id="DejaVuSans-76" d="M 191 3500 
L 800 3500 
L 1894 563 
L 2988 3500 
L 3597 3500 
L 2284 0 
L 1503 0 
L 191 3500 
z
" transform="scale(0.015625)"/>
     </defs>
     <use xlink:href="#DejaVuSans-73"/>
     <use xlink:href="#DejaVuSans-6f" x="52.099609"/>
     <use xlink:href="#DejaVuSans-75" x="113.28125"/>
     <use xlink:href="#DejaVuSans-72" x="176.660156"/>
     <use xlink:href="#DejaVuSans-63" x="215.523438"/>
     <use xlink:href="#DejaVuSans-65" x="270.503906"/>
     <use xlink:href="#DejaVuSans-36" x="332.027344"/>
     <use xlink:href="#DejaVuSans-2d" x="395.650391"/>
     <use xlink:href="#DejaVuSans-72" x="431.734375"/>
     <use xlink:href="#DejaVuSans-65" x="470.597656"/>
     <use xlink:href="#DejaVuSans-63" x="532.121094"/>
     <use xlink:href="#DejaVuSans-65" x="587.101562"/>
     <use xlink:href="#DejaVuSans-69" x="648.625"/>
     <use xlink:href="#DejaVuSans-76" x="676.408203"/>
     <use xlink:href="#DejaVuSans-65" x="735.587891"/>
     <use xlink:href="#DejaVuSans-72" x="797.111328"/>
     <use xlink:href="#DejaVuSans-34" x="838.224609"/>
    </g>
   </g>
  </g>
 </g>
 <defs>
  <clipPath id="pf5633a20c5">
   <rect x="180" y="69.12" width="1116" height="443.52"/>
  </clipPath>
 </defs>
</svg>
