<?xml version="1.0" encoding="utf-8" standalone="no"?>
<!DOCTYPE svg PUBLIC "-//W3C//DTD SVG 1.1//EN"
  "http://www.w3.org/Graphics/SVG/1.1/DTD/svg11.dtd">
<svg xmlns:xlink="http://www.w3.org/1999/xlink" width="1440pt" height="576pt" viewBox="0 0 1440 576" xmlns="http://www.w3.org/2000/svg" version="1.1">
 <metadata>
  <rdf:RDF xmlns:dc="http://purl.org/dc/elements/1.1/" xmlns:cc="http://creativecommons.org/ns#" xmlns:rdf="http://www.w3.org/1999/02/22-rdf-syntax-ns#">
   <cc:Work>
    <dc:type rdf:resource="http://purl.org/dc/dcmitype/StillImage"/>
    <dc:date>2024-05-22T04:49:49.123770</dc:date>
    <dc:format>image/svg+xml</dc:format>
    <dc:creator>
     <cc:Agent>
      <dc:title>Matplotlib v3.8.3, https://matplotlib.org/</dc:title>
     </cc:Agent>
    </dc:creator>
   </cc:Work>
  </rdf:RDF>
 </metadata>
 <defs>
  <style type="text/css">*{stroke-linejoin: round; stroke-linecap: butt}</style>
 </defs>
 <g id="figure_1">
  <g id="patch_1">
   <path d="M 0 576 
L 1440 576 
L 1440 0 
L 0 0 
z
" style="fill: #ffffff"/>
  </g>
  <g id="axes_1">
   <g id="patch_2">
    <path d="M 180 512.64 
L 1296 512.64 
L 1296 69.12 
L 180 69.12 
z
" style="fill: #ffffff"/>
   </g>
   <g id="matplotlib.axis_1">
    <g id="xtick_1">
     <g id="line2d_1">
      <defs>
       <path id="m6aae4ed54d" d="M 0 0 
L 0 3.5 
" style="stroke: #000000; stroke-width: 0.8"/>
      </defs>
      <g>
       <use xlink:href="#m6aae4ed54d" x="229.734567" y="512.64" style="stroke: #000000; stroke-width: 0.8"/>
      </g>
     </g>
     <g id="text_1">
      <!-- 0 -->
      <g transform="translate(226.553317 527.238438) scale(0.1 -0.1)">
       <defs>
        <path id="DejaVuSans-30" d="M 2034 4250 
Q 1547 4250 1301 3770 
Q 1056 3291 1056 2328 
Q 1056 1369 1301 889 
Q 1547 409 2034 409 
Q 2525 409 2770 889 
Q 3016 1369 3016 2328 
Q 3016 3291 2770 3770 
Q 2525 4250 2034 4250 
z
M 2034 4750 
Q 2819 4750 3233 4129 
Q 3647 3509 3647 2328 
Q 3647 1150 3233 529 
Q 2819 -91 2034 -91 
Q 1250 -91 836 529 
Q 422 1150 422 2328 
Q 422 3509 836 4129 
Q 1250 4750 2034 4750 
z
" transform="scale(0.015625)"/>
       </defs>
       <use xlink:href="#DejaVuSans-30"/>
      </g>
     </g>
    </g>
    <g id="xtick_2">
     <g id="line2d_2">
      <g>
       <use xlink:href="#m6aae4ed54d" x="433.04074" y="512.64" style="stroke: #000000; stroke-width: 0.8"/>
      </g>
     </g>
     <g id="text_2">
      <!-- 500 -->
      <g transform="translate(423.49699 527.238438) scale(0.1 -0.1)">
       <defs>
        <path id="DejaVuSans-35" d="M 691 4666 
L 3169 4666 
L 3169 4134 
L 1269 4134 
L 1269 2991 
Q 1406 3038 1543 3061 
Q 1681 3084 1819 3084 
Q 2600 3084 3056 2656 
Q 3513 2228 3513 1497 
Q 3513 744 3044 326 
Q 2575 -91 1722 -91 
Q 1428 -91 1123 -41 
Q 819 9 494 109 
L 494 744 
Q 775 591 1075 516 
Q 1375 441 1709 441 
Q 2250 441 2565 725 
Q 2881 1009 2881 1497 
Q 2881 1984 2565 2268 
Q 2250 2553 1709 2553 
Q 1456 2553 1204 2497 
Q 953 2441 691 2322 
L 691 4666 
z
" transform="scale(0.015625)"/>
       </defs>
       <use xlink:href="#DejaVuSans-35"/>
       <use xlink:href="#DejaVuSans-30" x="63.623047"/>
       <use xlink:href="#DejaVuSans-30" x="127.246094"/>
      </g>
     </g>
    </g>
    <g id="xtick_3">
     <g id="line2d_3">
      <g>
       <use xlink:href="#m6aae4ed54d" x="636.346913" y="512.64" style="stroke: #000000; stroke-width: 0.8"/>
      </g>
     </g>
     <g id="text_3">
      <!-- 1000 -->
      <g transform="translate(623.621913 527.238438) scale(0.1 -0.1)">
       <defs>
        <path id="DejaVuSans-31" d="M 794 531 
L 1825 531 
L 1825 4091 
L 703 3866 
L 703 4441 
L 1819 4666 
L 2450 4666 
L 2450 531 
L 3481 531 
L 3481 0 
L 794 0 
L 794 531 
z
" transform="scale(0.015625)"/>
       </defs>
       <use xlink:href="#DejaVuSans-31"/>
       <use xlink:href="#DejaVuSans-30" x="63.623047"/>
       <use xlink:href="#DejaVuSans-30" x="127.246094"/>
       <use xlink:href="#DejaVuSans-30" x="190.869141"/>
      </g>
     </g>
    </g>
    <g id="xtick_4">
     <g id="line2d_4">
      <g>
       <use xlink:href="#m6aae4ed54d" x="839.653087" y="512.64" style="stroke: #000000; stroke-width: 0.8"/>
      </g>
     </g>
     <g id="text_4">
      <!-- 1500 -->
      <g transform="translate(826.928087 527.238438) scale(0.1 -0.1)">
       <use xlink:href="#DejaVuSans-31"/>
       <use xlink:href="#DejaVuSans-35" x="63.623047"/>
       <use xlink:href="#DejaVuSans-30" x="127.246094"/>
       <use xlink:href="#DejaVuSans-30" x="190.869141"/>
      </g>
     </g>
    </g>
    <g id="xtick_5">
     <g id="line2d_5">
      <g>
       <use xlink:href="#m6aae4ed54d" x="1042.95926" y="512.64" style="stroke: #000000; stroke-width: 0.8"/>
      </g>
     </g>
     <g id="text_5">
      <!-- 2000 -->
      <g transform="translate(1030.23426 527.238438) scale(0.1 -0.1)">
       <defs>
        <path id="DejaVuSans-32" d="M 1228 531 
L 3431 531 
L 3431 0 
L 469 0 
L 469 531 
Q 828 903 1448 1529 
Q 2069 2156 2228 2338 
Q 2531 2678 2651 2914 
Q 2772 3150 2772 3378 
Q 2772 3750 2511 3984 
Q 2250 4219 1831 4219 
Q 1534 4219 1204 4116 
Q 875 4013 500 3803 
L 500 4441 
Q 881 4594 1212 4672 
Q 1544 4750 1819 4750 
Q 2544 4750 2975 4387 
Q 3406 4025 3406 3419 
Q 3406 3131 3298 2873 
Q 3191 2616 2906 2266 
Q 2828 2175 2409 1742 
Q 1991 1309 1228 531 
z
" transform="scale(0.015625)"/>
       </defs>
       <use xlink:href="#DejaVuSans-32"/>
       <use xlink:href="#DejaVuSans-30" x="63.623047"/>
       <use xlink:href="#DejaVuSans-30" x="127.246094"/>
       <use xlink:href="#DejaVuSans-30" x="190.869141"/>
      </g>
     </g>
    </g>
    <g id="xtick_6">
     <g id="line2d_6">
      <g>
       <use xlink:href="#m6aae4ed54d" x="1246.265433" y="512.64" style="stroke: #000000; stroke-width: 0.8"/>
      </g>
     </g>
     <g id="text_6">
      <!-- 2500 -->
      <g transform="translate(1233.540433 527.238438) scale(0.1 -0.1)">
       <use xlink:href="#DejaVuSans-32"/>
       <use xlink:href="#DejaVuSans-35" x="63.623047"/>
       <use xlink:href="#DejaVuSans-30" x="127.246094"/>
       <use xlink:href="#DejaVuSans-30" x="190.869141"/>
      </g>
     </g>
    </g>
   </g>
   <g id="matplotlib.axis_2">
    <g id="ytick_1">
     <g id="line2d_7">
      <defs>
       <path id="m9ee1138810" d="M 0 0 
L -3.5 0 
" style="stroke: #000000; stroke-width: 0.8"/>
      </defs>
      <g>
       <use xlink:href="#m9ee1138810" x="180" y="493.607465" style="stroke: #000000; stroke-width: 0.8"/>
      </g>
     </g>
     <g id="text_7">
      <!-- −8 -->
      <g transform="translate(158.257812 497.406684) scale(0.1 -0.1)">
       <defs>
        <path id="DejaVuSans-2212" d="M 678 2272 
L 4684 2272 
L 4684 1741 
L 678 1741 
L 678 2272 
z
" transform="scale(0.015625)"/>
        <path id="DejaVuSans-38" d="M 2034 2216 
Q 1584 2216 1326 1975 
Q 1069 1734 1069 1313 
Q 1069 891 1326 650 
Q 1584 409 2034 409 
Q 2484 409 2743 651 
Q 3003 894 3003 1313 
Q 3003 1734 2745 1975 
Q 2488 2216 2034 2216 
z
M 1403 2484 
Q 997 2584 770 2862 
Q 544 3141 544 3541 
Q 544 4100 942 4425 
Q 1341 4750 2034 4750 
Q 2731 4750 3128 4425 
Q 3525 4100 3525 3541 
Q 3525 3141 3298 2862 
Q 3072 2584 2669 2484 
Q 3125 2378 3379 2068 
Q 3634 1759 3634 1313 
Q 3634 634 3220 271 
Q 2806 -91 2034 -91 
Q 1263 -91 848 271 
Q 434 634 434 1313 
Q 434 1759 690 2068 
Q 947 2378 1403 2484 
z
M 1172 3481 
Q 1172 3119 1398 2916 
Q 1625 2713 2034 2713 
Q 2441 2713 2670 2916 
Q 2900 3119 2900 3481 
Q 2900 3844 2670 4047 
Q 2441 4250 2034 4250 
Q 1625 4250 1398 4047 
Q 1172 3844 1172 3481 
z
" transform="scale(0.015625)"/>
       </defs>
       <use xlink:href="#DejaVuSans-2212"/>
       <use xlink:href="#DejaVuSans-38" x="83.789062"/>
      </g>
     </g>
    </g>
    <g id="ytick_2">
     <g id="line2d_8">
      <g>
       <use xlink:href="#m9ee1138810" x="180" y="427.151961" style="stroke: #000000; stroke-width: 0.8"/>
      </g>
     </g>
     <g id="text_8">
      <!-- −6 -->
      <g transform="translate(158.257812 430.95118) scale(0.1 -0.1)">
       <defs>
        <path id="DejaVuSans-36" d="M 2113 2584 
Q 1688 2584 1439 2293 
Q 1191 2003 1191 1497 
Q 1191 994 1439 701 
Q 1688 409 2113 409 
Q 2538 409 2786 701 
Q 3034 994 3034 1497 
Q 3034 2003 2786 2293 
Q 2538 2584 2113 2584 
z
M 3366 4563 
L 3366 3988 
Q 3128 4100 2886 4159 
Q 2644 4219 2406 4219 
Q 1781 4219 1451 3797 
Q 1122 3375 1075 2522 
Q 1259 2794 1537 2939 
Q 1816 3084 2150 3084 
Q 2853 3084 3261 2657 
Q 3669 2231 3669 1497 
Q 3669 778 3244 343 
Q 2819 -91 2113 -91 
Q 1303 -91 875 529 
Q 447 1150 447 2328 
Q 447 3434 972 4092 
Q 1497 4750 2381 4750 
Q 2619 4750 2861 4703 
Q 3103 4656 3366 4563 
z
" transform="scale(0.015625)"/>
       </defs>
       <use xlink:href="#DejaVuSans-2212"/>
       <use xlink:href="#DejaVuSans-36" x="83.789062"/>
      </g>
     </g>
    </g>
    <g id="ytick_3">
     <g id="line2d_9">
      <g>
       <use xlink:href="#m9ee1138810" x="180" y="360.696457" style="stroke: #000000; stroke-width: 0.8"/>
      </g>
     </g>
     <g id="text_9">
      <!-- −4 -->
      <g transform="translate(158.257812 364.495676) scale(0.1 -0.1)">
       <defs>
        <path id="DejaVuSans-34" d="M 2419 4116 
L 825 1625 
L 2419 1625 
L 2419 4116 
z
M 2253 4666 
L 3047 4666 
L 3047 1625 
L 3713 1625 
L 3713 1100 
L 3047 1100 
L 3047 0 
L 2419 0 
L 2419 1100 
L 313 1100 
L 313 1709 
L 2253 4666 
z
" transform="scale(0.015625)"/>
       </defs>
       <use xlink:href="#DejaVuSans-2212"/>
       <use xlink:href="#DejaVuSans-34" x="83.789062"/>
      </g>
     </g>
    </g>
    <g id="ytick_4">
     <g id="line2d_10">
      <g>
       <use xlink:href="#m9ee1138810" x="180" y="294.240953" style="stroke: #000000; stroke-width: 0.8"/>
      </g>
     </g>
     <g id="text_10">
      <!-- −2 -->
      <g transform="translate(158.257812 298.040172) scale(0.1 -0.1)">
       <use xlink:href="#DejaVuSans-2212"/>
       <use xlink:href="#DejaVuSans-32" x="83.789062"/>
      </g>
     </g>
    </g>
    <g id="ytick_5">
     <g id="line2d_11">
      <g>
       <use xlink:href="#m9ee1138810" x="180" y="227.785449" style="stroke: #000000; stroke-width: 0.8"/>
      </g>
     </g>
     <g id="text_11">
      <!-- 0 -->
      <g transform="translate(166.6375 231.584668) scale(0.1 -0.1)">
       <use xlink:href="#DejaVuSans-30"/>
      </g>
     </g>
    </g>
    <g id="ytick_6">
     <g id="line2d_12">
      <g>
       <use xlink:href="#m9ee1138810" x="180" y="161.329945" style="stroke: #000000; stroke-width: 0.8"/>
      </g>
     </g>
     <g id="text_12">
      <!-- 2 -->
      <g transform="translate(166.6375 165.129164) scale(0.1 -0.1)">
       <use xlink:href="#DejaVuSans-32"/>
      </g>
     </g>
    </g>
    <g id="ytick_7">
     <g id="line2d_13">
      <g>
       <use xlink:href="#m9ee1138810" x="180" y="94.874441" style="stroke: #000000; stroke-width: 0.8"/>
      </g>
     </g>
     <g id="text_13">
      <!-- 4 -->
      <g transform="translate(166.6375 98.67366) scale(0.1 -0.1)">
       <use xlink:href="#DejaVuSans-34"/>
      </g>
     </g>
    </g>
   </g>
   <g id="line2d_14">
    <path d="M 230.727273 176.937157 
L 231.719979 176.64103 
L 232.712685 176.217337 
L 235.690802 174.232352 
L 237.676214 172.754266 
L 241.647038 170.199322 
L 242.639744 169.709514 
L 243.63245 169.43783 
L 244.625156 169.664022 
L 246.610568 171.348358 
L 247.603273 168.783152 
L 248.595979 159.476651 
L 249.588685 147.315463 
L 250.581391 137.339824 
L 251.574097 130.821057 
L 252.566803 127.067232 
L 253.559509 125.033821 
L 254.552215 123.940216 
L 255.544921 123.368163 
L 256.537627 123.0637 
L 260.50845 122.383155 
L 261.501156 122.059457 
L 262.493862 121.609963 
L 264.479274 120.357695 
L 266.464686 118.755821 
L 269.442804 116.242486 
L 271.428216 114.942526 
L 272.420922 114.528112 
L 273.413627 114.316251 
L 274.406333 114.352017 
L 275.399039 114.676136 
L 276.391745 115.305816 
L 278.377157 117.406652 
L 279.369863 118.013026 
L 280.362569 117.505594 
L 281.355275 115.86552 
L 282.347981 113.221516 
L 283.340687 109.712757 
L 286.318804 97.49362 
L 287.31151 94.1229 
L 288.304216 91.573962 
L 289.296922 89.965232 
L 290.289628 89.28 
L 291.282334 89.405782 
L 292.27504 90.189805 
L 293.267746 91.479707 
L 294.260452 93.151095 
L 296.245864 97.313501 
L 298.231276 102.301942 
L 300.216687 107.944844 
L 303.194805 117.251223 
L 305.180217 123.4621 
L 307.165629 128.939933 
L 308.158335 131.239647 
L 309.151041 133.193252 
L 310.143747 134.80673 
L 311.136453 136.138033 
L 316.099982 141.852556 
L 317.092688 143.464503 
L 318.085394 145.373716 
L 319.0781 147.575615 
L 320.070806 150.17664 
L 322.056218 156.493187 
L 324.04163 163.37886 
L 325.034336 166.033546 
L 326.027041 167.349011 
L 327.019747 166.936958 
L 328.012453 164.911296 
L 329.997865 158.498806 
L 331.983277 152.059998 
L 332.975983 149.344806 
L 333.968689 147.010893 
L 334.961395 145.071084 
L 335.954101 143.530117 
L 336.946807 142.334321 
L 337.939513 141.474351 
L 338.932218 140.940564 
L 339.924924 140.694904 
L 340.91763 140.730741 
L 341.910336 141.011086 
L 342.903042 141.514576 
L 343.895748 142.205298 
L 345.88116 144.001315 
L 348.859278 146.827181 
L 349.851984 147.52804 
L 350.84469 148.011112 
L 351.837395 148.171645 
L 352.830101 148.17071 
L 353.822807 147.992454 
L 355.808219 146.905854 
L 358.786337 145.192879 
L 359.779043 144.796087 
L 360.771749 144.552206 
L 361.764455 144.484549 
L 362.757161 144.680749 
L 363.749867 145.154481 
L 364.742572 145.905379 
L 365.735278 146.954619 
L 366.727984 148.335224 
L 367.72069 150.063988 
L 368.713396 152.174112 
L 369.706102 154.746705 
L 370.698808 157.733363 
L 371.691514 161.258825 
L 372.68422 165.371503 
L 373.676926 170.11586 
L 374.669632 175.520878 
L 376.655044 187.740551 
L 377.64775 192.793352 
L 378.640455 194.674878 
L 379.633161 192.554574 
L 380.625867 187.940164 
L 382.611279 177.976597 
L 383.603985 173.764581 
L 384.596691 170.232318 
L 385.589397 167.291757 
L 386.582103 164.913088 
L 387.574809 162.98404 
L 388.567515 161.486612 
L 389.560221 160.31827 
L 390.552927 159.512537 
L 391.545632 158.931342 
L 392.538338 158.605863 
L 393.531044 158.492694 
L 394.52375 158.529501 
L 395.516456 158.691647 
L 397.501868 159.321892 
L 403.458104 161.452008 
L 407.428927 162.523661 
L 409.414339 163.280181 
L 410.407045 163.783236 
L 412.392457 165.183909 
L 413.385163 166.078648 
L 415.370575 168.388648 
L 417.355986 171.372663 
L 419.341398 175.116069 
L 421.32681 179.604731 
L 424.304928 187.49825 
L 427.283046 195.838652 
L 428.275752 198.419975 
L 429.268458 200.670561 
L 430.261163 202.424286 
L 431.253869 203.657249 
L 432.246575 204.289093 
L 433.239281 204.296128 
L 434.231987 203.732097 
L 435.224693 202.567844 
L 436.217399 201.074188 
L 438.202811 197.169245 
L 441.180929 190.528497 
L 443.166341 186.233166 
L 445.151752 182.418001 
L 447.137164 179.167182 
L 449.122576 176.647209 
L 450.115282 175.649103 
L 451.107988 174.844062 
L 452.100694 174.203718 
L 453.0934 173.75891 
L 454.086106 173.490623 
L 455.078812 173.451921 
L 456.071518 173.550635 
L 457.064223 173.81782 
L 458.056929 174.295445 
L 459.049635 174.961451 
L 460.042341 175.781149 
L 461.035047 176.789811 
L 463.020459 179.379086 
L 465.005871 182.700767 
L 466.991283 186.881419 
L 468.976695 191.92024 
L 470.962106 198.1287 
L 472.947518 206.000898 
L 474.93293 216.392691 
L 475.925636 223.145005 
L 476.918342 231.243001 
L 478.903754 249.112943 
L 479.89646 251.111557 
L 480.889166 243.981648 
L 481.881872 234.220756 
L 482.874577 225.655001 
L 483.867283 218.425801 
L 484.859989 212.5437 
L 485.852695 207.515941 
L 486.845401 203.241635 
L 487.838107 199.700033 
L 488.830813 196.624105 
L 489.823519 194.070763 
L 490.816225 191.839921 
L 491.808931 190.041105 
L 492.801637 188.59783 
L 493.794343 187.430026 
L 494.787049 186.545784 
L 495.779754 186.038162 
L 496.77246 185.832022 
L 497.765166 185.808377 
L 498.757872 186.100652 
L 499.750578 186.692671 
L 500.743284 187.566458 
L 501.73599 188.693503 
L 502.728696 190.135359 
L 503.721402 191.956057 
L 504.714108 194.038164 
L 505.706814 196.416762 
L 507.692226 202.241703 
L 509.677637 209.229537 
L 511.663049 216.620488 
L 512.655755 219.736 
L 513.648461 222.072666 
L 514.641167 223.256907 
L 515.633873 223.005671 
L 516.626579 221.81737 
L 517.619285 220.014308 
L 520.597403 213.910951 
L 521.590109 212.252137 
L 522.582814 210.851304 
L 524.568226 208.760807 
L 525.560932 207.988912 
L 526.553638 207.396445 
L 529.531756 206.356703 
L 532.509874 205.897941 
L 535.487991 205.793273 
L 537.473403 206.206345 
L 538.466109 206.71983 
L 539.458815 207.367273 
L 540.451521 208.303369 
L 541.444227 209.658773 
L 542.436933 211.364654 
L 543.429639 213.481847 
L 544.422345 216.210432 
L 545.415051 219.59545 
L 546.407757 223.869629 
L 547.400463 229.414705 
L 548.393168 236.068073 
L 550.37858 253.726893 
L 551.371286 258.926491 
L 552.363992 253.24379 
L 554.349404 233.099002 
L 555.34211 225.132054 
L 556.334816 218.421099 
L 557.327522 212.971319 
L 558.320228 208.44428 
L 559.312934 204.613163 
L 560.30564 201.358635 
L 561.298345 198.651352 
L 562.291051 196.372903 
L 563.283757 194.495756 
L 564.276463 192.987791 
L 565.269169 191.789903 
L 566.261875 190.933743 
L 567.254581 190.343855 
L 568.247287 190.065009 
L 569.239993 190.010217 
L 570.232699 190.293096 
L 571.225405 190.780882 
L 572.218111 191.568274 
L 573.210817 192.660607 
L 574.203523 193.918316 
L 575.196228 195.513258 
L 576.188934 197.348399 
L 577.18164 199.471756 
L 579.167052 204.62928 
L 581.152464 211.198858 
L 582.14517 214.985338 
L 584.130582 224.037365 
L 585.123288 229.157865 
L 587.1087 241.583276 
L 589.094111 256.489375 
L 590.086817 265.057412 
L 591.079523 272.304904 
L 592.072229 276.67814 
L 593.064935 276.316867 
L 594.057641 272.362883 
L 596.043053 260.848201 
L 598.028465 251.135954 
L 600.013877 242.078436 
L 601.999288 234.605564 
L 603.9847 228.169403 
L 605.970112 222.96444 
L 606.962818 220.690145 
L 608.94823 217.044578 
L 610.933642 214.508252 
L 611.926348 213.677549 
L 613.911759 212.767197 
L 614.904465 212.665569 
L 615.897171 212.82851 
L 616.889877 213.2763 
L 617.882583 213.96496 
L 618.875289 214.819614 
L 619.867995 216.030736 
L 621.853407 219.333279 
L 623.838819 223.697608 
L 624.831525 226.354851 
L 626.816936 232.887282 
L 627.809642 236.672599 
L 629.795054 245.727663 
L 630.78776 250.789286 
L 632.773172 263.61704 
L 633.765878 271.029646 
L 635.75129 289.513963 
L 636.743996 298.906054 
L 637.736702 305.564409 
L 638.729408 306.448667 
L 639.722114 302.215761 
L 640.714819 296.499213 
L 642.700231 286.781357 
L 645.678349 274.916059 
L 647.663761 268.21575 
L 649.649173 261.908939 
L 651.634585 257.045465 
L 652.627291 254.788478 
L 653.619996 252.969474 
L 654.612702 251.475192 
L 655.605408 250.278691 
L 656.598114 249.343856 
L 657.59082 248.680532 
L 658.583526 248.270707 
L 659.576232 248.297081 
L 660.568938 248.516787 
L 661.561644 249.142503 
L 662.55435 249.949594 
L 663.547056 251.079085 
L 664.539762 252.565342 
L 667.517879 258.048151 
L 668.510585 260.104649 
L 670.495997 263.300685 
L 671.488703 264.345026 
L 672.481409 264.922203 
L 673.474115 264.666379 
L 674.466821 263.835261 
L 676.452233 261.391771 
L 677.444939 259.997671 
L 680.423056 256.503 
L 682.408468 255.486345 
L 683.401174 255.351268 
L 684.39388 255.412195 
L 685.386586 256.061666 
L 686.379292 256.882952 
L 687.371998 257.958232 
L 688.364704 259.397099 
L 689.35741 261.087673 
L 690.350116 263.287886 
L 691.342822 266.072739 
L 692.335527 269.249998 
L 693.328233 272.953279 
L 695.313645 281.595206 
L 698.291763 298.034234 
L 699.284469 302.317023 
L 700.277175 303.784882 
L 701.269881 302.58093 
L 702.262587 298.76773 
L 704.247999 289.851808 
L 706.23341 283.062398 
L 708.218822 278.458469 
L 709.211528 277.110345 
L 711.19694 275.275278 
L 712.189646 275.002031 
L 713.182352 275.221442 
L 714.175058 275.601644 
L 715.167764 276.715837 
L 716.16047 278.113097 
L 717.153176 279.856109 
L 718.145882 281.96261 
L 720.131293 287.695351 
L 721.123999 291.815456 
L 722.116705 295.240131 
L 723.109411 299.151672 
L 724.102117 300.844129 
L 725.094823 300.930164 
L 726.087529 297.979111 
L 727.080235 293.71748 
L 730.058353 279.753092 
L 731.051059 275.741802 
L 732.043764 272.293041 
L 733.03647 269.251316 
L 734.029176 266.796322 
L 735.021882 264.685636 
L 736.014588 262.952226 
L 738 260.796377 
L 738.992706 260.101566 
L 739.985412 259.999794 
L 740.978118 260.142768 
L 741.970824 260.698329 
L 742.96353 261.590337 
L 743.956236 262.913545 
L 744.948941 264.730191 
L 745.941647 266.784118 
L 746.934353 269.756626 
L 747.927059 273.172292 
L 748.919765 277.001639 
L 749.912471 282.017173 
L 751.897883 294.086744 
L 752.890589 299.923086 
L 753.883295 303.510661 
L 754.876001 301.771774 
L 755.868707 296.424579 
L 757.854118 284.615506 
L 758.846824 279.362893 
L 759.83953 275.088364 
L 760.832236 271.586019 
L 762.817648 266.244364 
L 763.810354 264.5753 
L 764.80306 263.215396 
L 765.795766 262.262268 
L 766.788472 261.822149 
L 767.781178 261.715281 
L 768.773884 261.93549 
L 769.76659 262.566991 
L 770.759295 263.500314 
L 771.752001 264.845712 
L 772.744707 266.564227 
L 774.730119 270.79534 
L 778.700943 280.922925 
L 779.693649 282.915862 
L 780.686355 283.901025 
L 781.679061 284.350558 
L 782.671767 283.766329 
L 783.664473 282.919984 
L 786.64259 278.580206 
L 788.628002 276.855208 
L 789.620708 276.558022 
L 791.60612 277.122497 
L 792.598826 277.912599 
L 793.591532 279.097481 
L 794.584238 280.99262 
L 795.576944 283.146165 
L 796.56965 285.848357 
L 798.555061 291.83286 
L 799.547767 294.277433 
L 800.540473 296.081294 
L 801.533179 295.694854 
L 802.525885 293.731726 
L 803.518591 290.695358 
L 806.496709 279.383394 
L 807.489415 276.121693 
L 809.474827 270.865194 
L 810.467532 268.920252 
L 811.460238 267.240135 
L 813.44565 265.268523 
L 814.438356 264.891262 
L 815.431062 264.913941 
L 816.423768 265.210508 
L 817.416474 265.876146 
L 818.40918 267.084397 
L 819.401886 268.609164 
L 820.394592 270.583906 
L 821.387298 272.831166 
L 823.372709 279.176181 
L 824.365415 283.166876 
L 826.350827 292.945642 
L 827.343533 297.783947 
L 828.336239 301.875339 
L 829.328945 303.317648 
L 830.321651 301.691242 
L 831.314357 297.902982 
L 833.299769 288.667998 
L 835.285181 280.610367 
L 837.270592 275.307438 
L 839.256004 271.787201 
L 840.24871 270.636369 
L 841.241416 269.909053 
L 842.234122 269.468244 
L 843.226828 269.347006 
L 844.219534 269.654704 
L 845.21224 270.286126 
L 846.204946 271.170441 
L 847.197652 272.374997 
L 849.183064 275.859335 
L 851.168475 280.60896 
L 853.153887 286.477873 
L 857.124711 298.935168 
L 858.117417 301.041094 
L 859.110123 302.093894 
L 860.102829 302.428475 
L 861.095535 301.828244 
L 862.088241 300.790041 
L 863.080946 299.419334 
L 866.059064 294.507338 
L 867.05177 293.559392 
L 868.044476 292.225141 
L 869.037182 291.421323 
L 870.029888 290.405371 
L 871.022594 290.012135 
L 872.0153 288.945111 
L 874.993418 286.916333 
L 876.978829 285.125427 
L 877.971535 283.962338 
L 880.949653 281.511516 
L 883.927771 279.90372 
L 884.920477 279.891094 
L 886.905889 280.458545 
L 887.898595 281.266324 
L 888.8913 282.303024 
L 889.884006 283.530694 
L 890.876712 285.525022 
L 891.869418 288.08428 
L 892.862124 291.214397 
L 893.85483 295.013077 
L 894.847536 299.64955 
L 895.840242 305.832219 
L 896.832948 313.834152 
L 898.81836 335.475521 
L 899.811066 342.80027 
L 900.803772 332.8647 
L 901.796477 320.241508 
L 902.789183 310.216955 
L 903.781889 301.995602 
L 905.767301 290.235874 
L 907.752713 282.582351 
L 908.745419 279.762175 
L 909.738125 277.342124 
L 910.730831 275.447392 
L 911.723537 273.884614 
L 912.716243 272.937402 
L 913.708949 272.221717 
L 914.701655 271.896042 
L 915.69436 272.013228 
L 916.687066 272.430057 
L 917.679772 273.244479 
L 918.672478 274.369737 
L 919.665184 275.798459 
L 920.65789 277.9724 
L 922.643302 283.584737 
L 923.636008 287.715542 
L 924.628714 292.450844 
L 925.62142 298.375056 
L 926.614126 306.529435 
L 927.606832 316.797883 
L 928.599537 333.022532 
L 929.592243 362.522667 
L 930.584949 376.480291 
L 931.577655 337.272183 
L 932.570361 320.533548 
L 933.563067 310.014791 
L 934.555773 302.111408 
L 935.548479 295.753845 
L 936.541185 291.317006 
L 937.533891 287.531917 
L 938.526597 284.826128 
L 939.519303 282.725998 
L 940.512009 281.120887 
L 941.504714 279.810311 
L 942.49742 278.936813 
L 943.490126 278.712502 
L 944.482832 278.796391 
L 945.475538 279.144688 
L 946.468244 279.951729 
L 947.46095 281.007722 
L 948.453656 282.802628 
L 950.439068 287.198359 
L 952.42448 293.747721 
L 954.409891 303.037986 
L 955.402597 309.312908 
L 956.395303 316.526328 
L 958.380715 334.274619 
L 959.373421 341.655377 
L 960.366127 340.358721 
L 961.358833 333.325112 
L 963.344245 318.363437 
L 964.336951 312.930246 
L 965.329657 308.576805 
L 966.322363 305.241456 
L 967.315068 302.750807 
L 968.307774 300.641276 
L 970.293186 297.885351 
L 971.285892 297.153851 
L 972.278598 297.162726 
L 973.271304 296.868569 
L 974.26401 297.010052 
L 975.256716 297.399717 
L 982.205657 301.352892 
L 983.198363 301.645191 
L 984.191069 301.480199 
L 985.183775 301.542492 
L 986.176481 301.961465 
L 987.169187 301.972315 
L 989.154599 302.586025 
L 990.147305 302.988236 
L 992.132717 305.229577 
L 993.125423 306.664121 
L 995.110834 310.907775 
L 997.096246 318.285167 
L 998.088952 322.558372 
L 999.081658 327.507649 
L 1001.06707 339.358742 
L 1002.059776 340.753638 
L 1003.052482 339.528528 
L 1005.037894 328.364064 
L 1006.0306 322.216085 
L 1008.016011 312.25822 
L 1010.001423 305.400313 
L 1010.994129 302.320064 
L 1011.986835 300.334102 
L 1012.979541 298.625517 
L 1013.972247 297.143142 
L 1014.964953 296.287624 
L 1015.957659 295.774407 
L 1016.950365 295.398958 
L 1018.935777 296.226645 
L 1019.928482 297.184593 
L 1020.921188 298.360467 
L 1021.913894 300.183193 
L 1022.9066 302.467196 
L 1024.892012 308.058037 
L 1025.884718 312.391725 
L 1027.87013 322.565404 
L 1028.862836 331.3995 
L 1029.855542 341.245753 
L 1030.848248 354.920487 
L 1031.840954 373.848952 
L 1032.833659 375.59113 
L 1033.826365 357.125843 
L 1034.819071 344.459717 
L 1035.811777 334.943406 
L 1036.804483 327.681901 
L 1037.797189 322.697066 
L 1038.789895 318.687786 
L 1039.782601 315.3719 
L 1040.775307 312.573085 
L 1041.768013 310.465131 
L 1044.746131 307.09963 
L 1045.738837 306.812847 
L 1046.731542 307.367206 
L 1047.724248 307.592388 
L 1048.716954 308.303561 
L 1050.702366 310.627629 
L 1053.680484 315.318723 
L 1054.67319 317.613517 
L 1055.665896 319.165049 
L 1056.658602 321.424204 
L 1060.629425 326.956066 
L 1061.622131 327.993302 
L 1062.614837 328.273711 
L 1063.607543 329.659169 
L 1064.600249 330.659701 
L 1065.592955 331.932662 
L 1067.578367 336.317172 
L 1068.571073 339.167032 
L 1070.556485 347.463453 
L 1071.549191 350.397375 
L 1072.541896 356.498881 
L 1073.534602 359.034722 
L 1074.527308 357.783371 
L 1075.520014 352.736225 
L 1076.51272 346.700976 
L 1077.505426 339.631398 
L 1078.498132 333.474041 
L 1079.490838 328.863624 
L 1080.483544 323.399065 
L 1081.47625 319.973432 
L 1084.454368 311.212713 
L 1085.447073 309.380418 
L 1086.439779 308.184587 
L 1087.432485 306.675056 
L 1088.425191 306.268707 
L 1089.417897 305.361989 
L 1091.403309 305.332946 
L 1093.388721 307.011093 
L 1094.381427 308.243664 
L 1096.366839 312.072504 
L 1098.35225 318.099754 
L 1099.344956 321.728252 
L 1102.323074 335.142008 
L 1103.31578 338.504839 
L 1104.308486 339.316135 
L 1105.301192 338.465461 
L 1106.293898 335.46499 
L 1109.272016 321.496368 
L 1110.264722 317.865543 
L 1112.250133 312.110033 
L 1113.242839 309.47655 
L 1115.228251 306.289143 
L 1116.220957 304.881039 
L 1117.213663 303.869407 
L 1119.199075 303.347675 
L 1120.191781 303.943106 
L 1121.184487 304.362826 
L 1122.177193 305.308697 
L 1124.162605 308.135026 
L 1126.148016 311.976945 
L 1128.133428 317.615112 
L 1129.126134 321.83736 
L 1130.11884 325.133994 
L 1132.104252 333.903653 
L 1133.096958 339.041567 
L 1134.089664 341.914247 
L 1135.08237 343.980936 
L 1136.075076 343.739749 
L 1137.067782 342.276203 
L 1138.060487 340.114434 
L 1139.053193 336.060945 
L 1142.031311 327.723369 
L 1144.016723 324.098997 
L 1145.009429 322.53625 
L 1146.002135 322.206265 
L 1146.994841 320.810112 
L 1147.987547 320.573491 
L 1148.980253 320.831034 
L 1149.972959 320.949267 
L 1151.95837 321.772404 
L 1152.951076 322.64799 
L 1154.936488 325.241221 
L 1155.929194 326.643411 
L 1157.914606 330.54519 
L 1158.907312 333.091216 
L 1159.900018 334.371271 
L 1160.892724 337.448627 
L 1161.88543 339.705601 
L 1162.878136 342.610281 
L 1163.870841 345.928244 
L 1164.863547 350.978813 
L 1165.856253 353.634688 
L 1166.848959 358.824928 
L 1167.841665 360.839763 
L 1168.834371 367.113809 
L 1169.827077 370.57335 
L 1170.819783 375.51835 
L 1172.805195 372.233636 
L 1174.790607 361.307984 
L 1177.768724 346.848143 
L 1179.754136 340.596575 
L 1180.746842 336.92467 
L 1182.732254 331.044112 
L 1183.72496 329.273423 
L 1184.717666 327.035382 
L 1186.703078 325.127844 
L 1187.695784 323.927332 
L 1188.68849 323.72129 
L 1189.681196 324.290814 
L 1190.673901 323.451814 
L 1191.666607 323.760147 
L 1192.659313 324.238509 
L 1193.652019 325.111378 
L 1194.644725 325.569965 
L 1195.637431 326.371925 
L 1196.630137 327.495454 
L 1197.622843 329.166443 
L 1198.615549 330.503776 
L 1200.600961 333.907994 
L 1202.586373 336.919396 
L 1203.579078 338.82935 
L 1204.571784 339.887834 
L 1205.56449 340.736155 
L 1206.557196 340.315705 
L 1208.542608 338.361595 
L 1209.535314 338.179782 
L 1211.520726 336.539303 
L 1212.513432 334.457759 
L 1214.498844 332.067095 
L 1215.49155 331.434483 
L 1216.484255 331.552405 
L 1218.469667 330.610591 
L 1219.462373 330.9533 
L 1220.455079 331.125984 
L 1221.447785 332.395877 
L 1222.440491 332.723296 
L 1223.433197 333.883263 
L 1224.425903 335.79224 
L 1226.411315 338.919753 
L 1227.404021 341.11967 
L 1228.396727 342.747937 
L 1229.389432 345.378337 
L 1230.382138 349.353135 
L 1231.374844 352.35675 
L 1232.36755 356.74314 
L 1233.360256 362.290494 
L 1234.352962 365.805005 
L 1235.345668 371.910614 
L 1236.338374 379.613772 
L 1238.323786 401.284037 
L 1239.316492 407.884215 
L 1240.309198 412.384622 
L 1241.301904 436.603173 
L 1242.29461 492.48 
L 1243.287315 442.661873 
L 1244.280021 430.62046 
L 1245.272727 432.202756 
L 1245.272727 432.202756 
" clip-path="url(#pfa190dd569)" style="fill: none; stroke: #1f77b4; stroke-width: 1.5; stroke-linecap: square"/>
   </g>
   <g id="patch_3">
    <path d="M 180 512.64 
L 180 69.12 
" style="fill: none; stroke: #000000; stroke-width: 0.8; stroke-linejoin: miter; stroke-linecap: square"/>
   </g>
   <g id="patch_4">
    <path d="M 1296 512.64 
L 1296 69.12 
" style="fill: none; stroke: #000000; stroke-width: 0.8; stroke-linejoin: miter; stroke-linecap: square"/>
   </g>
   <g id="patch_5">
    <path d="M 180 512.64 
L 1296 512.64 
" style="fill: none; stroke: #000000; stroke-width: 0.8; stroke-linejoin: miter; stroke-linecap: square"/>
   </g>
   <g id="patch_6">
    <path d="M 180 69.12 
L 1296 69.12 
" style="fill: none; stroke: #000000; stroke-width: 0.8; stroke-linejoin: miter; stroke-linecap: square"/>
   </g>
   <g id="text_14">
    <!-- source6-receiver6 -->
    <g transform="translate(557.625 60.80125) scale(0.4 -0.4)">
     <defs>
      <path id="DejaVuSans-73" d="M 2834 3397 
L 2834 2853 
Q 2591 2978 2328 3040 
Q 2066 3103 1784 3103 
Q 1356 3103 1142 2972 
Q 928 2841 928 2578 
Q 928 2378 1081 2264 
Q 1234 2150 1697 2047 
L 1894 2003 
Q 2506 1872 2764 1633 
Q 3022 1394 3022 966 
Q 3022 478 2636 193 
Q 2250 -91 1575 -91 
Q 1294 -91 989 -36 
Q 684 19 347 128 
L 347 722 
Q 666 556 975 473 
Q 1284 391 1588 391 
Q 1994 391 2212 530 
Q 2431 669 2431 922 
Q 2431 1156 2273 1281 
Q 2116 1406 1581 1522 
L 1381 1569 
Q 847 1681 609 1914 
Q 372 2147 372 2553 
Q 372 3047 722 3315 
Q 1072 3584 1716 3584 
Q 2034 3584 2315 3537 
Q 2597 3491 2834 3397 
z
" transform="scale(0.015625)"/>
      <path id="DejaVuSans-6f" d="M 1959 3097 
Q 1497 3097 1228 2736 
Q 959 2375 959 1747 
Q 959 1119 1226 758 
Q 1494 397 1959 397 
Q 2419 397 2687 759 
Q 2956 1122 2956 1747 
Q 2956 2369 2687 2733 
Q 2419 3097 1959 3097 
z
M 1959 3584 
Q 2709 3584 3137 3096 
Q 3566 2609 3566 1747 
Q 3566 888 3137 398 
Q 2709 -91 1959 -91 
Q 1206 -91 779 398 
Q 353 888 353 1747 
Q 353 2609 779 3096 
Q 1206 3584 1959 3584 
z
" transform="scale(0.015625)"/>
      <path id="DejaVuSans-75" d="M 544 1381 
L 544 3500 
L 1119 3500 
L 1119 1403 
Q 1119 906 1312 657 
Q 1506 409 1894 409 
Q 2359 409 2629 706 
Q 2900 1003 2900 1516 
L 2900 3500 
L 3475 3500 
L 3475 0 
L 2900 0 
L 2900 538 
Q 2691 219 2414 64 
Q 2138 -91 1772 -91 
Q 1169 -91 856 284 
Q 544 659 544 1381 
z
M 1991 3584 
L 1991 3584 
z
" transform="scale(0.015625)"/>
      <path id="DejaVuSans-72" d="M 2631 2963 
Q 2534 3019 2420 3045 
Q 2306 3072 2169 3072 
Q 1681 3072 1420 2755 
Q 1159 2438 1159 1844 
L 1159 0 
L 581 0 
L 581 3500 
L 1159 3500 
L 1159 2956 
Q 1341 3275 1631 3429 
Q 1922 3584 2338 3584 
Q 2397 3584 2469 3576 
Q 2541 3569 2628 3553 
L 2631 2963 
z
" transform="scale(0.015625)"/>
      <path id="DejaVuSans-63" d="M 3122 3366 
L 3122 2828 
Q 2878 2963 2633 3030 
Q 2388 3097 2138 3097 
Q 1578 3097 1268 2742 
Q 959 2388 959 1747 
Q 959 1106 1268 751 
Q 1578 397 2138 397 
Q 2388 397 2633 464 
Q 2878 531 3122 666 
L 3122 134 
Q 2881 22 2623 -34 
Q 2366 -91 2075 -91 
Q 1284 -91 818 406 
Q 353 903 353 1747 
Q 353 2603 823 3093 
Q 1294 3584 2113 3584 
Q 2378 3584 2631 3529 
Q 2884 3475 3122 3366 
z
" transform="scale(0.015625)"/>
      <path id="DejaVuSans-65" d="M 3597 1894 
L 3597 1613 
L 953 1613 
Q 991 1019 1311 708 
Q 1631 397 2203 397 
Q 2534 397 2845 478 
Q 3156 559 3463 722 
L 3463 178 
Q 3153 47 2828 -22 
Q 2503 -91 2169 -91 
Q 1331 -91 842 396 
Q 353 884 353 1716 
Q 353 2575 817 3079 
Q 1281 3584 2069 3584 
Q 2775 3584 3186 3129 
Q 3597 2675 3597 1894 
z
M 3022 2063 
Q 3016 2534 2758 2815 
Q 2500 3097 2075 3097 
Q 1594 3097 1305 2825 
Q 1016 2553 972 2059 
L 3022 2063 
z
" transform="scale(0.015625)"/>
      <path id="DejaVuSans-2d" d="M 313 2009 
L 1997 2009 
L 1997 1497 
L 313 1497 
L 313 2009 
z
" transform="scale(0.015625)"/>
      <path id="DejaVuSans-69" d="M 603 3500 
L 1178 3500 
L 1178 0 
L 603 0 
L 603 3500 
z
M 603 4863 
L 1178 4863 
L 1178 4134 
L 603 4134 
L 603 4863 
z
" transform="scale(0.015625)"/>
      <path id="DejaVuSans-76" d="M 191 3500 
L 800 3500 
L 1894 563 
L 2988 3500 
L 3597 3500 
L 2284 0 
L 1503 0 
L 191 3500 
z
" transform="scale(0.015625)"/>
     </defs>
     <use xlink:href="#DejaVuSans-73"/>
     <use xlink:href="#DejaVuSans-6f" x="52.099609"/>
     <use xlink:href="#DejaVuSans-75" x="113.28125"/>
     <use xlink:href="#DejaVuSans-72" x="176.660156"/>
     <use xlink:href="#DejaVuSans-63" x="215.523438"/>
     <use xlink:href="#DejaVuSans-65" x="270.503906"/>
     <use xlink:href="#DejaVuSans-36" x="332.027344"/>
     <use xlink:href="#DejaVuSans-2d" x="395.650391"/>
     <use xlink:href="#DejaVuSans-72" x="431.734375"/>
     <use xlink:href="#DejaVuSans-65" x="470.597656"/>
     <use xlink:href="#DejaVuSans-63" x="532.121094"/>
     <use xlink:href="#DejaVuSans-65" x="587.101562"/>
     <use xlink:href="#DejaVuSans-69" x="648.625"/>
     <use xlink:href="#DejaVuSans-76" x="676.408203"/>
     <use xlink:href="#DejaVuSans-65" x="735.587891"/>
     <use xlink:href="#DejaVuSans-72" x="797.111328"/>
     <use xlink:href="#DejaVuSans-36" x="838.224609"/>
    </g>
   </g>
  </g>
 </g>
 <defs>
  <clipPath id="pfa190dd569">
   <rect x="180" y="69.12" width="1116" height="443.52"/>
  </clipPath>
 </defs>
</svg>
