<?xml version="1.0" encoding="utf-8" standalone="no"?>
<!DOCTYPE svg PUBLIC "-//W3C//DTD SVG 1.1//EN"
  "http://www.w3.org/Graphics/SVG/1.1/DTD/svg11.dtd">
<svg xmlns:xlink="http://www.w3.org/1999/xlink" width="1440pt" height="576pt" viewBox="0 0 1440 576" xmlns="http://www.w3.org/2000/svg" version="1.1">
 <metadata>
  <rdf:RDF xmlns:dc="http://purl.org/dc/elements/1.1/" xmlns:cc="http://creativecommons.org/ns#" xmlns:rdf="http://www.w3.org/1999/02/22-rdf-syntax-ns#">
   <cc:Work>
    <dc:type rdf:resource="http://purl.org/dc/dcmitype/StillImage"/>
    <dc:date>2024-05-22T04:50:12.512824</dc:date>
    <dc:format>image/svg+xml</dc:format>
    <dc:creator>
     <cc:Agent>
      <dc:title>Matplotlib v3.8.3, https://matplotlib.org/</dc:title>
     </cc:Agent>
    </dc:creator>
   </cc:Work>
  </rdf:RDF>
 </metadata>
 <defs>
  <style type="text/css">*{stroke-linejoin: round; stroke-linecap: butt}</style>
 </defs>
 <g id="figure_1">
  <g id="patch_1">
   <path d="M 0 576 
L 1440 576 
L 1440 0 
L 0 0 
z
" style="fill: #ffffff"/>
  </g>
  <g id="axes_1">
   <g id="patch_2">
    <path d="M 180 512.64 
L 1296 512.64 
L 1296 69.12 
L 180 69.12 
z
" style="fill: #ffffff"/>
   </g>
   <g id="matplotlib.axis_1">
    <g id="xtick_1">
     <g id="line2d_1">
      <defs>
       <path id="m52d468dc45" d="M 0 0 
L 0 3.5 
" style="stroke: #000000; stroke-width: 0.8"/>
      </defs>
      <g>
       <use xlink:href="#m52d468dc45" x="229.734567" y="512.64" style="stroke: #000000; stroke-width: 0.8"/>
      </g>
     </g>
     <g id="text_1">
      <!-- 0 -->
      <g transform="translate(226.553317 527.238438) scale(0.1 -0.1)">
       <defs>
        <path id="DejaVuSans-30" d="M 2034 4250 
Q 1547 4250 1301 3770 
Q 1056 3291 1056 2328 
Q 1056 1369 1301 889 
Q 1547 409 2034 409 
Q 2525 409 2770 889 
Q 3016 1369 3016 2328 
Q 3016 3291 2770 3770 
Q 2525 4250 2034 4250 
z
M 2034 4750 
Q 2819 4750 3233 4129 
Q 3647 3509 3647 2328 
Q 3647 1150 3233 529 
Q 2819 -91 2034 -91 
Q 1250 -91 836 529 
Q 422 1150 422 2328 
Q 422 3509 836 4129 
Q 1250 4750 2034 4750 
z
" transform="scale(0.015625)"/>
       </defs>
       <use xlink:href="#DejaVuSans-30"/>
      </g>
     </g>
    </g>
    <g id="xtick_2">
     <g id="line2d_2">
      <g>
       <use xlink:href="#m52d468dc45" x="433.04074" y="512.64" style="stroke: #000000; stroke-width: 0.8"/>
      </g>
     </g>
     <g id="text_2">
      <!-- 500 -->
      <g transform="translate(423.49699 527.238438) scale(0.1 -0.1)">
       <defs>
        <path id="DejaVuSans-35" d="M 691 4666 
L 3169 4666 
L 3169 4134 
L 1269 4134 
L 1269 2991 
Q 1406 3038 1543 3061 
Q 1681 3084 1819 3084 
Q 2600 3084 3056 2656 
Q 3513 2228 3513 1497 
Q 3513 744 3044 326 
Q 2575 -91 1722 -91 
Q 1428 -91 1123 -41 
Q 819 9 494 109 
L 494 744 
Q 775 591 1075 516 
Q 1375 441 1709 441 
Q 2250 441 2565 725 
Q 2881 1009 2881 1497 
Q 2881 1984 2565 2268 
Q 2250 2553 1709 2553 
Q 1456 2553 1204 2497 
Q 953 2441 691 2322 
L 691 4666 
z
" transform="scale(0.015625)"/>
       </defs>
       <use xlink:href="#DejaVuSans-35"/>
       <use xlink:href="#DejaVuSans-30" x="63.623047"/>
       <use xlink:href="#DejaVuSans-30" x="127.246094"/>
      </g>
     </g>
    </g>
    <g id="xtick_3">
     <g id="line2d_3">
      <g>
       <use xlink:href="#m52d468dc45" x="636.346913" y="512.64" style="stroke: #000000; stroke-width: 0.8"/>
      </g>
     </g>
     <g id="text_3">
      <!-- 1000 -->
      <g transform="translate(623.621913 527.238438) scale(0.1 -0.1)">
       <defs>
        <path id="DejaVuSans-31" d="M 794 531 
L 1825 531 
L 1825 4091 
L 703 3866 
L 703 4441 
L 1819 4666 
L 2450 4666 
L 2450 531 
L 3481 531 
L 3481 0 
L 794 0 
L 794 531 
z
" transform="scale(0.015625)"/>
       </defs>
       <use xlink:href="#DejaVuSans-31"/>
       <use xlink:href="#DejaVuSans-30" x="63.623047"/>
       <use xlink:href="#DejaVuSans-30" x="127.246094"/>
       <use xlink:href="#DejaVuSans-30" x="190.869141"/>
      </g>
     </g>
    </g>
    <g id="xtick_4">
     <g id="line2d_4">
      <g>
       <use xlink:href="#m52d468dc45" x="839.653087" y="512.64" style="stroke: #000000; stroke-width: 0.8"/>
      </g>
     </g>
     <g id="text_4">
      <!-- 1500 -->
      <g transform="translate(826.928087 527.238438) scale(0.1 -0.1)">
       <use xlink:href="#DejaVuSans-31"/>
       <use xlink:href="#DejaVuSans-35" x="63.623047"/>
       <use xlink:href="#DejaVuSans-30" x="127.246094"/>
       <use xlink:href="#DejaVuSans-30" x="190.869141"/>
      </g>
     </g>
    </g>
    <g id="xtick_5">
     <g id="line2d_5">
      <g>
       <use xlink:href="#m52d468dc45" x="1042.95926" y="512.64" style="stroke: #000000; stroke-width: 0.8"/>
      </g>
     </g>
     <g id="text_5">
      <!-- 2000 -->
      <g transform="translate(1030.23426 527.238438) scale(0.1 -0.1)">
       <defs>
        <path id="DejaVuSans-32" d="M 1228 531 
L 3431 531 
L 3431 0 
L 469 0 
L 469 531 
Q 828 903 1448 1529 
Q 2069 2156 2228 2338 
Q 2531 2678 2651 2914 
Q 2772 3150 2772 3378 
Q 2772 3750 2511 3984 
Q 2250 4219 1831 4219 
Q 1534 4219 1204 4116 
Q 875 4013 500 3803 
L 500 4441 
Q 881 4594 1212 4672 
Q 1544 4750 1819 4750 
Q 2544 4750 2975 4387 
Q 3406 4025 3406 3419 
Q 3406 3131 3298 2873 
Q 3191 2616 2906 2266 
Q 2828 2175 2409 1742 
Q 1991 1309 1228 531 
z
" transform="scale(0.015625)"/>
       </defs>
       <use xlink:href="#DejaVuSans-32"/>
       <use xlink:href="#DejaVuSans-30" x="63.623047"/>
       <use xlink:href="#DejaVuSans-30" x="127.246094"/>
       <use xlink:href="#DejaVuSans-30" x="190.869141"/>
      </g>
     </g>
    </g>
    <g id="xtick_6">
     <g id="line2d_6">
      <g>
       <use xlink:href="#m52d468dc45" x="1246.265433" y="512.64" style="stroke: #000000; stroke-width: 0.8"/>
      </g>
     </g>
     <g id="text_6">
      <!-- 2500 -->
      <g transform="translate(1233.540433 527.238438) scale(0.1 -0.1)">
       <use xlink:href="#DejaVuSans-32"/>
       <use xlink:href="#DejaVuSans-35" x="63.623047"/>
       <use xlink:href="#DejaVuSans-30" x="127.246094"/>
       <use xlink:href="#DejaVuSans-30" x="190.869141"/>
      </g>
     </g>
    </g>
   </g>
   <g id="matplotlib.axis_2">
    <g id="ytick_1">
     <g id="line2d_7">
      <defs>
       <path id="m124ddf4ea3" d="M 0 0 
L -3.5 0 
" style="stroke: #000000; stroke-width: 0.8"/>
      </defs>
      <g>
       <use xlink:href="#m124ddf4ea3" x="180" y="444.668154" style="stroke: #000000; stroke-width: 0.8"/>
      </g>
     </g>
     <g id="text_7">
      <!-- −4 -->
      <g transform="translate(158.257812 448.467373) scale(0.1 -0.1)">
       <defs>
        <path id="DejaVuSans-2212" d="M 678 2272 
L 4684 2272 
L 4684 1741 
L 678 1741 
L 678 2272 
z
" transform="scale(0.015625)"/>
        <path id="DejaVuSans-34" d="M 2419 4116 
L 825 1625 
L 2419 1625 
L 2419 4116 
z
M 2253 4666 
L 3047 4666 
L 3047 1625 
L 3713 1625 
L 3713 1100 
L 3047 1100 
L 3047 0 
L 2419 0 
L 2419 1100 
L 313 1100 
L 313 1709 
L 2253 4666 
z
" transform="scale(0.015625)"/>
       </defs>
       <use xlink:href="#DejaVuSans-2212"/>
       <use xlink:href="#DejaVuSans-34" x="83.789062"/>
      </g>
     </g>
    </g>
    <g id="ytick_2">
     <g id="line2d_8">
      <g>
       <use xlink:href="#m124ddf4ea3" x="180" y="357.758865" style="stroke: #000000; stroke-width: 0.8"/>
      </g>
     </g>
     <g id="text_8">
      <!-- −2 -->
      <g transform="translate(158.257812 361.558083) scale(0.1 -0.1)">
       <use xlink:href="#DejaVuSans-2212"/>
       <use xlink:href="#DejaVuSans-32" x="83.789062"/>
      </g>
     </g>
    </g>
    <g id="ytick_3">
     <g id="line2d_9">
      <g>
       <use xlink:href="#m124ddf4ea3" x="180" y="270.849575" style="stroke: #000000; stroke-width: 0.8"/>
      </g>
     </g>
     <g id="text_9">
      <!-- 0 -->
      <g transform="translate(166.6375 274.648794) scale(0.1 -0.1)">
       <use xlink:href="#DejaVuSans-30"/>
      </g>
     </g>
    </g>
    <g id="ytick_4">
     <g id="line2d_10">
      <g>
       <use xlink:href="#m124ddf4ea3" x="180" y="183.940286" style="stroke: #000000; stroke-width: 0.8"/>
      </g>
     </g>
     <g id="text_10">
      <!-- 2 -->
      <g transform="translate(166.6375 187.739505) scale(0.1 -0.1)">
       <use xlink:href="#DejaVuSans-32"/>
      </g>
     </g>
    </g>
    <g id="ytick_5">
     <g id="line2d_11">
      <g>
       <use xlink:href="#m124ddf4ea3" x="180" y="97.030997" style="stroke: #000000; stroke-width: 0.8"/>
      </g>
     </g>
     <g id="text_11">
      <!-- 4 -->
      <g transform="translate(166.6375 100.830216) scale(0.1 -0.1)">
       <use xlink:href="#DejaVuSans-34"/>
      </g>
     </g>
    </g>
   </g>
   <g id="line2d_12">
    <path d="M 230.727273 203.604755 
L 231.719979 203.356762 
L 232.712685 202.877885 
L 235.690802 200.518514 
L 237.676214 198.76204 
L 242.639744 194.963182 
L 243.63245 194.605306 
L 244.625156 194.858006 
L 245.617862 195.90529 
L 246.610568 196.728228 
L 247.603273 193.214906 
L 248.595979 181.048916 
L 249.588685 165.229565 
L 250.581391 152.289345 
L 251.574097 143.858238 
L 252.566803 138.979156 
L 253.559509 136.32638 
L 254.552215 134.885591 
L 255.544921 134.132265 
L 256.537627 133.733736 
L 260.50845 132.773445 
L 261.501156 132.32808 
L 262.493862 131.72836 
L 263.486568 130.969443 
L 265.47198 129.05207 
L 269.442804 124.669018 
L 270.43551 123.742937 
L 271.428216 123.013314 
L 272.420922 122.529177 
L 273.413627 122.338758 
L 274.406333 122.502879 
L 275.399039 123.140115 
L 276.391745 124.447858 
L 277.384451 126.753465 
L 278.377157 129.40812 
L 279.369863 129.356288 
L 280.362569 126.59956 
L 281.355275 123.178522 
L 282.347981 119.254854 
L 283.340687 114.629776 
L 286.318804 99.257291 
L 287.31151 95.077119 
L 288.304216 91.955051 
L 289.296922 90.030664 
L 290.289628 89.28 
L 291.282334 89.571585 
L 292.27504 90.724112 
L 293.267746 92.53736 
L 294.260452 94.815773 
L 296.245864 100.335955 
L 298.231276 106.857983 
L 300.216687 114.217547 
L 307.165629 141.294027 
L 308.158335 144.245427 
L 309.151041 146.726206 
L 310.143747 148.759147 
L 311.136453 150.431307 
L 315.107276 156.129901 
L 316.099982 157.897972 
L 317.092688 160.049299 
L 318.085394 162.565977 
L 319.0781 165.529787 
L 320.070806 168.943736 
L 322.056218 177.179671 
L 324.04163 185.963815 
L 325.034336 189.382125 
L 326.027041 191.032117 
L 327.019747 190.532092 
L 328.012453 187.889325 
L 329.005159 184.065583 
L 330.990571 175.361553 
L 331.983277 171.376204 
L 332.975983 167.85469 
L 333.968689 164.875268 
L 334.961395 162.382991 
L 335.954101 160.368159 
L 336.946807 158.841562 
L 337.939513 157.738129 
L 338.932218 157.055131 
L 339.924924 156.758229 
L 340.91763 156.827305 
L 341.910336 157.22751 
L 342.903042 157.913958 
L 343.895748 158.849391 
L 345.88116 161.207445 
L 347.866572 163.785473 
L 348.859278 164.964004 
L 349.851984 165.913958 
L 350.84469 166.589006 
L 351.837395 166.91438 
L 352.830101 166.930164 
L 353.822807 166.558974 
L 354.815513 165.973994 
L 358.786337 162.8921 
L 359.779043 162.385918 
L 360.771749 162.109468 
L 361.764455 162.110663 
L 362.757161 162.371453 
L 363.749867 163.021494 
L 364.742572 163.983527 
L 365.735278 165.386057 
L 366.727984 167.193987 
L 367.72069 169.485433 
L 368.713396 172.266597 
L 369.706102 175.630933 
L 370.698808 179.615815 
L 371.691514 184.256799 
L 372.68422 189.724011 
L 373.676926 196.022123 
L 375.662338 211.180124 
L 376.655044 219.157611 
L 377.64775 225.272988 
L 378.640455 226.967844 
L 379.633161 223.581534 
L 383.603985 198.928315 
L 384.596691 194.431964 
L 385.589397 190.684952 
L 386.582103 187.608587 
L 387.574809 185.171964 
L 388.567515 183.307968 
L 389.560221 181.829397 
L 390.552927 180.804876 
L 391.545632 180.135511 
L 392.538338 179.746161 
L 393.531044 179.624662 
L 394.52375 179.725616 
L 395.516456 179.987483 
L 397.501868 180.839607 
L 402.465398 183.465399 
L 408.421633 185.887095 
L 410.407045 187.11279 
L 412.392457 188.930782 
L 414.377869 191.564353 
L 415.370575 193.18589 
L 416.363281 195.029122 
L 418.348692 199.478909 
L 420.334104 204.912861 
L 422.319516 211.270744 
L 424.304928 218.360166 
L 427.283046 229.319325 
L 428.275752 232.62728 
L 429.268458 235.504981 
L 430.261163 237.861024 
L 431.253869 239.597693 
L 432.246575 240.434746 
L 433.239281 240.417147 
L 434.231987 239.628328 
L 435.224693 238.277662 
L 437.210105 233.860159 
L 439.195517 228.212276 
L 442.173635 219.411203 
L 444.159046 214.002222 
L 446.144458 209.361406 
L 448.12987 205.548431 
L 449.122576 204.008697 
L 450.115282 202.69293 
L 451.107988 201.60162 
L 452.100694 200.798649 
L 453.0934 200.25593 
L 454.086106 199.903573 
L 455.078812 199.843214 
L 456.071518 200.006677 
L 457.064223 200.406016 
L 458.056929 201.053575 
L 459.049635 201.961389 
L 460.042341 203.051098 
L 461.035047 204.423618 
L 462.027753 206.015264 
L 464.013165 209.910163 
L 465.998577 214.810274 
L 467.983989 220.988176 
L 469.9694 228.431561 
L 471.954812 237.716464 
L 472.947518 243.262623 
L 473.940224 249.721688 
L 474.93293 257.211404 
L 475.925636 266.141957 
L 476.918342 277.170102 
L 478.903754 300.815772 
L 479.89646 302.340827 
L 480.889166 291.529947 
L 481.881872 278.398772 
L 482.874577 267.192766 
L 483.867283 257.952631 
L 484.859989 250.397694 
L 485.852695 243.800095 
L 486.845401 238.396442 
L 487.838107 233.775705 
L 488.830813 229.735541 
L 489.823519 226.412281 
L 490.816225 223.613629 
L 491.808931 221.278165 
L 492.801637 219.34096 
L 493.794343 217.935996 
L 494.787049 216.857002 
L 495.779754 216.213554 
L 496.77246 215.832933 
L 497.765166 215.899191 
L 498.757872 216.361456 
L 499.750578 217.17254 
L 500.743284 218.400137 
L 501.73599 219.993795 
L 502.728696 221.912615 
L 503.721402 224.271258 
L 505.706814 230.392561 
L 506.69952 234.052957 
L 508.684932 242.730231 
L 511.663049 257.412086 
L 512.655755 261.519628 
L 513.648461 264.37547 
L 514.641167 265.336652 
L 515.633873 264.614352 
L 516.626579 262.71319 
L 520.597403 251.657452 
L 521.590109 249.336022 
L 523.57552 246.117476 
L 524.568226 244.850861 
L 525.560932 243.871492 
L 527.546344 242.721634 
L 529.531756 242.04173 
L 531.517168 241.600285 
L 535.487991 241.535711 
L 537.473403 242.165588 
L 538.466109 242.842835 
L 539.458815 243.818663 
L 540.451521 245.195301 
L 541.444227 246.965195 
L 542.436933 249.322443 
L 543.429639 252.176824 
L 544.422345 255.826862 
L 545.415051 260.407344 
L 546.407757 266.260554 
L 547.400463 273.544419 
L 548.393168 282.460488 
L 550.37858 305.867126 
L 551.371286 310.495513 
L 552.363992 301.040983 
L 554.349404 275.278522 
L 555.34211 265.198891 
L 556.334816 256.879816 
L 557.327522 250.004781 
L 558.320228 244.121372 
L 559.312934 239.310399 
L 560.30564 235.16067 
L 561.298345 231.65271 
L 562.291051 228.77259 
L 563.283757 226.352095 
L 564.276463 224.440909 
L 565.269169 222.990943 
L 566.261875 221.926155 
L 567.254581 221.3382 
L 568.247287 220.954742 
L 569.239993 221.085985 
L 570.232699 221.514737 
L 571.225405 222.302801 
L 572.218111 223.413034 
L 573.210817 224.860066 
L 574.203523 226.724324 
L 576.188934 231.495267 
L 578.174346 237.934427 
L 579.167052 241.744642 
L 581.152464 250.870011 
L 582.14517 256.231888 
L 584.130582 268.939774 
L 586.115994 284.652549 
L 588.101405 304.98288 
L 589.094111 317.472501 
L 591.079523 346.97788 
L 592.072229 356.749122 
L 593.064935 353.393425 
L 596.043053 322.216657 
L 598.028465 306.764867 
L 599.021171 299.41846 
L 601.006582 287.119436 
L 602.991994 276.418113 
L 604.977406 267.753046 
L 606.962818 260.864648 
L 608.94823 255.581481 
L 609.940936 253.577313 
L 610.933642 251.933158 
L 611.926348 250.716581 
L 612.919054 249.821252 
L 613.911759 249.266126 
L 614.904465 248.976401 
L 615.897171 249.202717 
L 616.889877 249.749077 
L 617.882583 250.450052 
L 619.867995 253.258118 
L 620.860701 255.276922 
L 621.853407 257.556231 
L 622.846113 260.256365 
L 624.831525 267.021716 
L 626.816936 275.881911 
L 627.809642 281.099779 
L 628.802348 286.944207 
L 629.795054 293.618686 
L 631.780466 309.644082 
L 633.765878 329.808641 
L 635.75129 352.959563 
L 636.743996 359.045492 
L 637.736702 357.885203 
L 638.729408 353.665248 
L 639.722114 347.850726 
L 640.714819 343.120111 
L 641.707525 339.734618 
L 642.700231 335.76503 
L 643.692937 333.264119 
L 644.685643 330.33496 
L 645.678349 328.085865 
L 647.663761 322.688982 
L 649.649173 317.299826 
L 650.641879 314.108561 
L 653.619996 306.263298 
L 654.612702 303.983772 
L 655.605408 302.128894 
L 657.59082 299.700329 
L 658.583526 298.879427 
L 659.576232 298.637202 
L 660.568938 298.663766 
L 661.561644 299.154009 
L 662.55435 300.02541 
L 663.547056 301.131442 
L 665.532468 304.427087 
L 669.503291 312.541 
L 670.495997 314.275383 
L 671.488703 315.246378 
L 672.481409 315.929081 
L 673.474115 315.65553 
L 675.459527 313.162864 
L 676.452233 311.532046 
L 677.444939 309.496225 
L 678.437645 307.85157 
L 681.415762 303.799508 
L 683.401174 302.913085 
L 684.39388 303.024617 
L 685.386586 303.262111 
L 686.379292 304.131247 
L 687.371998 305.285298 
L 688.364704 306.788846 
L 689.35741 308.844494 
L 690.350116 311.428482 
L 691.342822 314.563807 
L 692.335527 318.177607 
L 693.328233 322.405817 
L 694.320939 327.177818 
L 695.313645 332.605543 
L 697.299057 345.932338 
L 698.291763 352.560809 
L 699.284469 358.266636 
L 700.277175 361.519058 
L 701.269881 359.981795 
L 702.262587 355.95467 
L 704.247999 344.088832 
L 706.23341 334.421701 
L 707.226116 330.523354 
L 708.218822 327.5754 
L 709.211528 325.125345 
L 710.204234 323.105806 
L 711.19694 321.908147 
L 712.189646 321.309326 
L 713.182352 320.981855 
L 714.175058 321.257838 
L 715.167764 322.307232 
L 716.16047 323.743202 
L 717.153176 325.97178 
L 718.145882 328.664864 
L 719.138587 332.652455 
L 720.131293 337.193777 
L 721.123999 343.140469 
L 722.116705 350.667533 
L 723.109411 359.691155 
L 725.094823 381.224915 
L 726.087529 385.264942 
L 727.080235 376.195339 
L 729.065647 352.081065 
L 730.058353 342.556441 
L 731.051059 334.897179 
L 732.043764 328.312395 
L 733.03647 323.058075 
L 734.029176 318.665738 
L 735.021882 315.180216 
L 736.014588 312.143273 
L 737.007294 309.931882 
L 738 308.166136 
L 738.992706 306.91608 
L 739.985412 306.393814 
L 740.978118 306.248979 
L 741.970824 306.635049 
L 742.96353 307.483197 
L 743.956236 308.901958 
L 744.948941 310.880564 
L 745.941647 313.50298 
L 746.934353 316.768345 
L 747.927059 320.786506 
L 749.912471 331.009361 
L 751.897883 343.677449 
L 752.890589 348.859881 
L 753.883295 351.558587 
L 754.876001 350.288462 
L 755.868707 345.208782 
L 759.83953 322.493026 
L 760.832236 318.351822 
L 761.824942 314.714971 
L 762.817648 311.975377 
L 763.810354 309.897015 
L 764.80306 308.226921 
L 765.795766 307.036275 
L 766.788472 306.540751 
L 767.781178 306.358623 
L 768.773884 306.992646 
L 769.76659 307.898194 
L 770.759295 309.326968 
L 771.752001 311.137914 
L 772.744707 313.547 
L 773.737413 316.264712 
L 774.730119 319.41328 
L 777.708237 330.181052 
L 778.700943 333.048559 
L 779.693649 334.795516 
L 780.686355 335.248959 
L 781.679061 334.531581 
L 782.671767 332.569342 
L 783.664473 330.220958 
L 785.649884 324.751125 
L 786.64259 322.376716 
L 787.635296 320.368489 
L 788.628002 318.970006 
L 789.620708 317.952149 
L 790.613414 317.588067 
L 791.60612 317.748616 
L 792.598826 318.379837 
L 793.591532 319.646915 
L 794.584238 321.44073 
L 795.576944 323.933714 
L 796.56965 327.150271 
L 797.562355 330.93331 
L 799.547767 340.491347 
L 801.533179 349.782713 
L 802.525885 352.008698 
L 803.518591 350.880652 
L 804.511297 347.114454 
L 806.496709 336.333274 
L 808.482121 325.509489 
L 809.474827 321.201236 
L 811.460238 314.494526 
L 812.452944 311.892596 
L 813.44565 309.982685 
L 814.438356 308.599334 
L 815.431062 307.641021 
L 816.423768 307.212478 
L 817.416474 307.335649 
L 818.40918 307.836072 
L 819.401886 308.950816 
L 820.394592 310.545822 
L 822.380004 315.103467 
L 824.365415 322.483918 
L 825.358121 327.044532 
L 826.350827 332.409585 
L 829.328945 350.917674 
L 830.321651 355.106157 
L 831.314357 356.26126 
L 832.307063 353.91563 
L 833.299769 348.518385 
L 835.285181 336.848558 
L 836.277886 331.687786 
L 837.270592 327.210487 
L 838.263298 323.502246 
L 839.256004 320.407085 
L 840.24871 317.860974 
L 841.241416 315.96641 
L 842.234122 314.503426 
L 843.226828 313.595345 
L 844.219534 313.023428 
L 845.21224 312.948768 
L 846.204946 313.375721 
L 847.197652 314.040435 
L 848.190358 315.28863 
L 849.183064 316.885614 
L 850.175769 318.809252 
L 851.168475 321.019153 
L 852.161181 323.757826 
L 855.139299 333.542881 
L 856.132005 337.522102 
L 858.117417 344.351563 
L 859.110123 346.909853 
L 860.102829 348.666175 
L 861.095535 349.550624 
L 862.088241 349.664906 
L 863.080946 348.577414 
L 864.073652 346.959993 
L 868.044476 339.813394 
L 870.029888 336.959412 
L 873.008006 333.802387 
L 874.993418 332.287505 
L 875.986123 331.301405 
L 876.978829 330.552544 
L 879.956947 327.756115 
L 881.942359 326.093372 
L 883.927771 324.874327 
L 884.920477 324.566995 
L 885.913183 324.445108 
L 887.898595 324.831406 
L 888.8913 325.478785 
L 889.884006 326.654241 
L 890.876712 328.056099 
L 891.869418 330.183328 
L 892.862124 332.843747 
L 893.85483 336.061738 
L 894.847536 339.784067 
L 895.840242 344.612121 
L 896.832948 350.000071 
L 897.825654 356.386433 
L 899.811066 370.467651 
L 900.803772 374.603708 
L 901.796477 373.33449 
L 902.789183 367.924289 
L 904.774595 352.389491 
L 906.760007 338.908957 
L 907.752713 333.445322 
L 908.745419 328.998135 
L 909.738125 325.187429 
L 910.730831 321.926541 
L 911.723537 319.443867 
L 912.716243 317.310296 
L 913.708949 315.90708 
L 914.701655 314.736159 
L 915.69436 314.207171 
L 916.687066 314.114524 
L 917.679772 314.601192 
L 918.672478 315.508489 
L 919.665184 317.013487 
L 920.65789 318.725567 
L 921.650596 321.383858 
L 922.643302 324.721601 
L 923.636008 328.650776 
L 924.628714 333.499076 
L 925.62142 339.701118 
L 926.614126 347.158387 
L 927.606832 356.657922 
L 928.599537 369.140711 
L 929.592243 386.213119 
L 930.584949 405.200192 
L 931.577655 404.953837 
L 932.570361 385.799203 
L 933.563067 370.172146 
L 934.555773 357.777399 
L 935.548479 348.361618 
L 936.541185 341.249032 
L 937.533891 335.279034 
L 938.526597 330.826852 
L 939.519303 327.202695 
L 940.512009 324.21634 
L 941.504714 322.102197 
L 942.49742 320.361563 
L 943.490126 319.549091 
L 944.482832 318.924563 
L 945.475538 319.021923 
L 946.468244 319.627188 
L 948.453656 322.040868 
L 950.439068 326.799911 
L 951.431774 330.319118 
L 952.42448 334.5278 
L 953.417186 339.380584 
L 954.409891 345.441757 
L 955.402597 352.441161 
L 956.395303 360.453851 
L 958.380715 379.138569 
L 959.373421 384.722349 
L 960.366127 384.025332 
L 964.336951 353.205094 
L 965.329657 348.090338 
L 966.322363 343.830313 
L 968.307774 337.779224 
L 969.30048 335.780533 
L 970.293186 334.425162 
L 971.285892 333.445986 
L 972.278598 333.406427 
L 973.271304 333.706879 
L 974.26401 334.267949 
L 975.256716 335.334304 
L 977.242128 339.024172 
L 979.22754 344.193293 
L 981.212951 349.530077 
L 982.205657 351.950391 
L 983.198363 354.014235 
L 984.191069 355.606711 
L 985.183775 355.917633 
L 987.169187 353.964155 
L 988.161893 352.293964 
L 991.140011 346.647054 
L 992.132717 345.091452 
L 993.125423 344.033304 
L 994.118128 343.224942 
L 995.110834 343.060548 
L 996.10354 343.212074 
L 997.096246 343.926217 
L 998.088952 345.370816 
L 999.081658 347.183335 
L 1000.074364 349.364067 
L 1001.06707 352.268311 
L 1003.052482 359.247691 
L 1004.045188 362.985262 
L 1005.037894 367.431074 
L 1006.0306 370.731938 
L 1007.023305 372.703089 
L 1008.016011 372.258895 
L 1009.008717 370.158621 
L 1010.994129 361.87842 
L 1012.979541 353.01671 
L 1014.964953 346.04992 
L 1016.950365 341.05274 
L 1017.943071 339.202882 
L 1018.935777 337.775016 
L 1019.928482 337.013142 
L 1020.921188 336.847644 
L 1021.913894 336.875518 
L 1022.9066 337.623276 
L 1023.899306 338.61654 
L 1024.892012 340.440235 
L 1025.884718 342.650505 
L 1027.87013 348.988014 
L 1028.862836 353.171165 
L 1029.855542 358.501657 
L 1031.840954 371.893358 
L 1032.833659 379.624869 
L 1033.826365 388.779565 
L 1034.819071 395.751431 
L 1035.811777 395.997941 
L 1036.804483 391.889028 
L 1037.797189 384.292037 
L 1038.789895 375.812422 
L 1040.775307 363.168255 
L 1042.760719 354.011663 
L 1043.753425 350.576243 
L 1044.746131 348.126121 
L 1045.738837 346.127244 
L 1046.731542 344.402186 
L 1047.724248 343.309855 
L 1049.70966 342.956753 
L 1050.702366 343.53919 
L 1051.695072 344.39935 
L 1053.680484 347.501555 
L 1055.665896 351.663477 
L 1056.658602 355.039211 
L 1057.651308 357.905725 
L 1058.644014 361.378082 
L 1059.636719 365.528639 
L 1062.614837 375.238493 
L 1063.607543 376.963858 
L 1064.600249 378.333859 
L 1065.592955 379.185136 
L 1066.585661 378.723477 
L 1067.578367 377.905106 
L 1068.571073 376.892138 
L 1069.563779 375.268595 
L 1070.556485 374.242428 
L 1071.549191 372.786302 
L 1072.541896 372.226812 
L 1073.534602 371.534576 
L 1074.527308 371.013933 
L 1075.520014 369.835007 
L 1076.51272 369.79325 
L 1077.505426 369.369205 
L 1078.498132 368.815966 
L 1079.490838 367.744356 
L 1080.483544 367.016274 
L 1081.47625 365.919524 
L 1083.461662 362.909531 
L 1084.454368 360.888824 
L 1087.432485 356.020428 
L 1088.425191 354.724291 
L 1089.417897 353.702829 
L 1090.410603 352.953299 
L 1091.403309 352.707239 
L 1092.396015 352.689034 
L 1093.388721 352.903039 
L 1095.374133 355.180178 
L 1096.366839 357.174449 
L 1097.359545 359.700054 
L 1098.35225 363.149489 
L 1099.344956 367.928264 
L 1100.337662 373.408155 
L 1101.330368 380.674771 
L 1102.323074 390.590991 
L 1103.31578 402.558272 
L 1104.308486 422.485597 
L 1105.301192 459.312779 
L 1106.293898 485.029636 
L 1107.286604 427.869807 
L 1108.27931 404.981737 
L 1109.272016 390.913167 
L 1110.264722 378.807008 
L 1111.257428 370.47872 
L 1112.250133 364.014955 
L 1113.242839 358.436363 
L 1114.235545 353.885857 
L 1115.228251 350.526943 
L 1116.220957 347.826327 
L 1117.213663 345.485726 
L 1118.206369 343.648824 
L 1119.199075 342.497078 
L 1120.191781 341.902905 
L 1121.184487 341.849426 
L 1122.177193 341.978114 
L 1123.169899 342.926797 
L 1124.162605 344.488864 
L 1125.15531 346.351969 
L 1126.148016 348.831718 
L 1127.140722 352.088387 
L 1128.133428 356.006281 
L 1129.126134 360.465325 
L 1130.11884 366.124779 
L 1131.111546 373.384866 
L 1134.089664 397.900496 
L 1135.08237 401.545186 
L 1136.075076 397.226926 
L 1137.067782 390.430209 
L 1139.053193 374.323101 
L 1140.045899 367.479343 
L 1141.038605 362.095192 
L 1142.031311 357.461267 
L 1143.024017 353.728841 
L 1144.016723 350.652018 
L 1145.009429 348.079812 
L 1146.002135 346.535639 
L 1147.987547 344.57847 
L 1148.980253 344.54175 
L 1149.972959 344.690509 
L 1150.965664 345.540809 
L 1151.95837 346.734502 
L 1152.951076 348.608033 
L 1153.943782 350.754007 
L 1155.929194 357.32032 
L 1156.9219 361.356828 
L 1157.914606 366.346257 
L 1158.907312 372.271963 
L 1160.892724 387.306139 
L 1162.878136 404.708474 
L 1163.870841 408.985223 
L 1164.863547 407.570581 
L 1165.856253 401.630029 
L 1166.848959 394.056256 
L 1168.834371 381.124472 
L 1170.819783 371.857725 
L 1172.805195 366.101333 
L 1173.797901 365.011147 
L 1174.790607 363.576399 
L 1175.783313 362.867281 
L 1176.776019 363.340336 
L 1177.768724 364.171811 
L 1178.76143 365.198671 
L 1179.754136 366.809488 
L 1181.739548 372.152413 
L 1182.732254 375.798506 
L 1183.72496 379.893007 
L 1184.717666 385.476594 
L 1185.710372 392.189074 
L 1186.703078 400.18226 
L 1187.695784 409.877546 
L 1188.68849 421.96061 
L 1189.681196 439.815579 
L 1190.673901 468.576731 
L 1191.666607 492.48 
L 1192.659313 470.549818 
L 1193.652019 443.353212 
L 1194.644725 430.770445 
L 1195.637431 422.800806 
L 1196.630137 416.282558 
L 1197.622843 411.799046 
L 1198.615549 408.149468 
L 1199.608255 407.443189 
L 1200.600961 405.654646 
L 1201.593667 406.068643 
L 1203.579078 408.956664 
L 1204.571784 411.199334 
L 1205.56449 415.767761 
L 1206.557196 421.253218 
L 1207.549902 425.163338 
L 1208.542608 430.986976 
L 1209.535314 435.5448 
L 1210.52802 439.155083 
L 1211.520726 435.268999 
L 1212.513432 430.193962 
L 1214.498844 417.165855 
L 1215.49155 412.474559 
L 1217.476961 402.090863 
L 1218.469667 399.512218 
L 1219.462373 397.670382 
L 1221.447785 394.792069 
L 1222.440491 395.662557 
L 1224.425903 396.224432 
L 1225.418609 398.435533 
L 1226.411315 401.488692 
L 1227.404021 405.047833 
L 1228.396727 409.410592 
L 1229.389432 415.309804 
L 1230.382138 420.154173 
L 1231.374844 426.945804 
L 1232.36755 430.26895 
L 1233.360256 432.428992 
L 1234.352962 429.256346 
L 1235.345668 424.646056 
L 1236.338374 417.392092 
L 1240.309198 395.460923 
L 1241.301904 392.85501 
L 1242.29461 389.403022 
L 1243.287315 387.169725 
L 1245.272727 384.587262 
L 1245.272727 384.587262 
" clip-path="url(#p54caad37c1)" style="fill: none; stroke: #1f77b4; stroke-width: 1.5; stroke-linecap: square"/>
   </g>
   <g id="patch_3">
    <path d="M 180 512.64 
L 180 69.12 
" style="fill: none; stroke: #000000; stroke-width: 0.8; stroke-linejoin: miter; stroke-linecap: square"/>
   </g>
   <g id="patch_4">
    <path d="M 1296 512.64 
L 1296 69.12 
" style="fill: none; stroke: #000000; stroke-width: 0.8; stroke-linejoin: miter; stroke-linecap: square"/>
   </g>
   <g id="patch_5">
    <path d="M 180 512.64 
L 1296 512.64 
" style="fill: none; stroke: #000000; stroke-width: 0.8; stroke-linejoin: miter; stroke-linecap: square"/>
   </g>
   <g id="patch_6">
    <path d="M 180 69.12 
L 1296 69.12 
" style="fill: none; stroke: #000000; stroke-width: 0.8; stroke-linejoin: miter; stroke-linecap: square"/>
   </g>
   <g id="text_12">
    <!-- source17-receiver17 -->
    <g transform="translate(532.175 60.80125) scale(0.4 -0.4)">
     <defs>
      <path id="DejaVuSans-73" d="M 2834 3397 
L 2834 2853 
Q 2591 2978 2328 3040 
Q 2066 3103 1784 3103 
Q 1356 3103 1142 2972 
Q 928 2841 928 2578 
Q 928 2378 1081 2264 
Q 1234 2150 1697 2047 
L 1894 2003 
Q 2506 1872 2764 1633 
Q 3022 1394 3022 966 
Q 3022 478 2636 193 
Q 2250 -91 1575 -91 
Q 1294 -91 989 -36 
Q 684 19 347 128 
L 347 722 
Q 666 556 975 473 
Q 1284 391 1588 391 
Q 1994 391 2212 530 
Q 2431 669 2431 922 
Q 2431 1156 2273 1281 
Q 2116 1406 1581 1522 
L 1381 1569 
Q 847 1681 609 1914 
Q 372 2147 372 2553 
Q 372 3047 722 3315 
Q 1072 3584 1716 3584 
Q 2034 3584 2315 3537 
Q 2597 3491 2834 3397 
z
" transform="scale(0.015625)"/>
      <path id="DejaVuSans-6f" d="M 1959 3097 
Q 1497 3097 1228 2736 
Q 959 2375 959 1747 
Q 959 1119 1226 758 
Q 1494 397 1959 397 
Q 2419 397 2687 759 
Q 2956 1122 2956 1747 
Q 2956 2369 2687 2733 
Q 2419 3097 1959 3097 
z
M 1959 3584 
Q 2709 3584 3137 3096 
Q 3566 2609 3566 1747 
Q 3566 888 3137 398 
Q 2709 -91 1959 -91 
Q 1206 -91 779 398 
Q 353 888 353 1747 
Q 353 2609 779 3096 
Q 1206 3584 1959 3584 
z
" transform="scale(0.015625)"/>
      <path id="DejaVuSans-75" d="M 544 1381 
L 544 3500 
L 1119 3500 
L 1119 1403 
Q 1119 906 1312 657 
Q 1506 409 1894 409 
Q 2359 409 2629 706 
Q 2900 1003 2900 1516 
L 2900 3500 
L 3475 3500 
L 3475 0 
L 2900 0 
L 2900 538 
Q 2691 219 2414 64 
Q 2138 -91 1772 -91 
Q 1169 -91 856 284 
Q 544 659 544 1381 
z
M 1991 3584 
L 1991 3584 
z
" transform="scale(0.015625)"/>
      <path id="DejaVuSans-72" d="M 2631 2963 
Q 2534 3019 2420 3045 
Q 2306 3072 2169 3072 
Q 1681 3072 1420 2755 
Q 1159 2438 1159 1844 
L 1159 0 
L 581 0 
L 581 3500 
L 1159 3500 
L 1159 2956 
Q 1341 3275 1631 3429 
Q 1922 3584 2338 3584 
Q 2397 3584 2469 3576 
Q 2541 3569 2628 3553 
L 2631 2963 
z
" transform="scale(0.015625)"/>
      <path id="DejaVuSans-63" d="M 3122 3366 
L 3122 2828 
Q 2878 2963 2633 3030 
Q 2388 3097 2138 3097 
Q 1578 3097 1268 2742 
Q 959 2388 959 1747 
Q 959 1106 1268 751 
Q 1578 397 2138 397 
Q 2388 397 2633 464 
Q 2878 531 3122 666 
L 3122 134 
Q 2881 22 2623 -34 
Q 2366 -91 2075 -91 
Q 1284 -91 818 406 
Q 353 903 353 1747 
Q 353 2603 823 3093 
Q 1294 3584 2113 3584 
Q 2378 3584 2631 3529 
Q 2884 3475 3122 3366 
z
" transform="scale(0.015625)"/>
      <path id="DejaVuSans-65" d="M 3597 1894 
L 3597 1613 
L 953 1613 
Q 991 1019 1311 708 
Q 1631 397 2203 397 
Q 2534 397 2845 478 
Q 3156 559 3463 722 
L 3463 178 
Q 3153 47 2828 -22 
Q 2503 -91 2169 -91 
Q 1331 -91 842 396 
Q 353 884 353 1716 
Q 353 2575 817 3079 
Q 1281 3584 2069 3584 
Q 2775 3584 3186 3129 
Q 3597 2675 3597 1894 
z
M 3022 2063 
Q 3016 2534 2758 2815 
Q 2500 3097 2075 3097 
Q 1594 3097 1305 2825 
Q 1016 2553 972 2059 
L 3022 2063 
z
" transform="scale(0.015625)"/>
      <path id="DejaVuSans-37" d="M 525 4666 
L 3525 4666 
L 3525 4397 
L 1831 0 
L 1172 0 
L 2766 4134 
L 525 4134 
L 525 4666 
z
" transform="scale(0.015625)"/>
      <path id="DejaVuSans-2d" d="M 313 2009 
L 1997 2009 
L 1997 1497 
L 313 1497 
L 313 2009 
z
" transform="scale(0.015625)"/>
      <path id="DejaVuSans-69" d="M 603 3500 
L 1178 3500 
L 1178 0 
L 603 0 
L 603 3500 
z
M 603 4863 
L 1178 4863 
L 1178 4134 
L 603 4134 
L 603 4863 
z
" transform="scale(0.015625)"/>
      <path id="DejaVuSans-76" d="M 191 3500 
L 800 3500 
L 1894 563 
L 2988 3500 
L 3597 3500 
L 2284 0 
L 1503 0 
L 191 3500 
z
" transform="scale(0.015625)"/>
     </defs>
     <use xlink:href="#DejaVuSans-73"/>
     <use xlink:href="#DejaVuSans-6f" x="52.099609"/>
     <use xlink:href="#DejaVuSans-75" x="113.28125"/>
     <use xlink:href="#DejaVuSans-72" x="176.660156"/>
     <use xlink:href="#DejaVuSans-63" x="215.523438"/>
     <use xlink:href="#DejaVuSans-65" x="270.503906"/>
     <use xlink:href="#DejaVuSans-31" x="332.027344"/>
     <use xlink:href="#DejaVuSans-37" x="395.650391"/>
     <use xlink:href="#DejaVuSans-2d" x="459.273438"/>
     <use xlink:href="#DejaVuSans-72" x="495.357422"/>
     <use xlink:href="#DejaVuSans-65" x="534.220703"/>
     <use xlink:href="#DejaVuSans-63" x="595.744141"/>
     <use xlink:href="#DejaVuSans-65" x="650.724609"/>
     <use xlink:href="#DejaVuSans-69" x="712.248047"/>
     <use xlink:href="#DejaVuSans-76" x="740.03125"/>
     <use xlink:href="#DejaVuSans-65" x="799.210938"/>
     <use xlink:href="#DejaVuSans-72" x="860.734375"/>
     <use xlink:href="#DejaVuSans-31" x="901.847656"/>
     <use xlink:href="#DejaVuSans-37" x="965.470703"/>
    </g>
   </g>
  </g>
 </g>
 <defs>
  <clipPath id="p54caad37c1">
   <rect x="180" y="69.12" width="1116" height="443.52"/>
  </clipPath>
 </defs>
</svg>
