<?xml version="1.0" encoding="utf-8" standalone="no"?>
<!DOCTYPE svg PUBLIC "-//W3C//DTD SVG 1.1//EN"
  "http://www.w3.org/Graphics/SVG/1.1/DTD/svg11.dtd">
<svg xmlns:xlink="http://www.w3.org/1999/xlink" width="1440pt" height="576pt" viewBox="0 0 1440 576" xmlns="http://www.w3.org/2000/svg" version="1.1">
 <metadata>
  <rdf:RDF xmlns:dc="http://purl.org/dc/elements/1.1/" xmlns:cc="http://creativecommons.org/ns#" xmlns:rdf="http://www.w3.org/1999/02/22-rdf-syntax-ns#">
   <cc:Work>
    <dc:type rdf:resource="http://purl.org/dc/dcmitype/StillImage"/>
    <dc:date>2024-05-22T04:50:12.673622</dc:date>
    <dc:format>image/svg+xml</dc:format>
    <dc:creator>
     <cc:Agent>
      <dc:title>Matplotlib v3.8.3, https://matplotlib.org/</dc:title>
     </cc:Agent>
    </dc:creator>
   </cc:Work>
  </rdf:RDF>
 </metadata>
 <defs>
  <style type="text/css">*{stroke-linejoin: round; stroke-linecap: butt}</style>
 </defs>
 <g id="figure_1">
  <g id="patch_1">
   <path d="M 0 576 
L 1440 576 
L 1440 0 
L 0 0 
z
" style="fill: #ffffff"/>
  </g>
  <g id="axes_1">
   <g id="patch_2">
    <path d="M 180 512.64 
L 1296 512.64 
L 1296 69.12 
L 180 69.12 
z
" style="fill: #ffffff"/>
   </g>
   <g id="matplotlib.axis_1">
    <g id="xtick_1">
     <g id="line2d_1">
      <defs>
       <path id="m7fd09e6c32" d="M 0 0 
L 0 3.5 
" style="stroke: #000000; stroke-width: 0.8"/>
      </defs>
      <g>
       <use xlink:href="#m7fd09e6c32" x="229.734567" y="512.64" style="stroke: #000000; stroke-width: 0.8"/>
      </g>
     </g>
     <g id="text_1">
      <!-- 0 -->
      <g transform="translate(226.553317 527.238438) scale(0.1 -0.1)">
       <defs>
        <path id="DejaVuSans-30" d="M 2034 4250 
Q 1547 4250 1301 3770 
Q 1056 3291 1056 2328 
Q 1056 1369 1301 889 
Q 1547 409 2034 409 
Q 2525 409 2770 889 
Q 3016 1369 3016 2328 
Q 3016 3291 2770 3770 
Q 2525 4250 2034 4250 
z
M 2034 4750 
Q 2819 4750 3233 4129 
Q 3647 3509 3647 2328 
Q 3647 1150 3233 529 
Q 2819 -91 2034 -91 
Q 1250 -91 836 529 
Q 422 1150 422 2328 
Q 422 3509 836 4129 
Q 1250 4750 2034 4750 
z
" transform="scale(0.015625)"/>
       </defs>
       <use xlink:href="#DejaVuSans-30"/>
      </g>
     </g>
    </g>
    <g id="xtick_2">
     <g id="line2d_2">
      <g>
       <use xlink:href="#m7fd09e6c32" x="433.04074" y="512.64" style="stroke: #000000; stroke-width: 0.8"/>
      </g>
     </g>
     <g id="text_2">
      <!-- 500 -->
      <g transform="translate(423.49699 527.238438) scale(0.1 -0.1)">
       <defs>
        <path id="DejaVuSans-35" d="M 691 4666 
L 3169 4666 
L 3169 4134 
L 1269 4134 
L 1269 2991 
Q 1406 3038 1543 3061 
Q 1681 3084 1819 3084 
Q 2600 3084 3056 2656 
Q 3513 2228 3513 1497 
Q 3513 744 3044 326 
Q 2575 -91 1722 -91 
Q 1428 -91 1123 -41 
Q 819 9 494 109 
L 494 744 
Q 775 591 1075 516 
Q 1375 441 1709 441 
Q 2250 441 2565 725 
Q 2881 1009 2881 1497 
Q 2881 1984 2565 2268 
Q 2250 2553 1709 2553 
Q 1456 2553 1204 2497 
Q 953 2441 691 2322 
L 691 4666 
z
" transform="scale(0.015625)"/>
       </defs>
       <use xlink:href="#DejaVuSans-35"/>
       <use xlink:href="#DejaVuSans-30" x="63.623047"/>
       <use xlink:href="#DejaVuSans-30" x="127.246094"/>
      </g>
     </g>
    </g>
    <g id="xtick_3">
     <g id="line2d_3">
      <g>
       <use xlink:href="#m7fd09e6c32" x="636.346913" y="512.64" style="stroke: #000000; stroke-width: 0.8"/>
      </g>
     </g>
     <g id="text_3">
      <!-- 1000 -->
      <g transform="translate(623.621913 527.238438) scale(0.1 -0.1)">
       <defs>
        <path id="DejaVuSans-31" d="M 794 531 
L 1825 531 
L 1825 4091 
L 703 3866 
L 703 4441 
L 1819 4666 
L 2450 4666 
L 2450 531 
L 3481 531 
L 3481 0 
L 794 0 
L 794 531 
z
" transform="scale(0.015625)"/>
       </defs>
       <use xlink:href="#DejaVuSans-31"/>
       <use xlink:href="#DejaVuSans-30" x="63.623047"/>
       <use xlink:href="#DejaVuSans-30" x="127.246094"/>
       <use xlink:href="#DejaVuSans-30" x="190.869141"/>
      </g>
     </g>
    </g>
    <g id="xtick_4">
     <g id="line2d_4">
      <g>
       <use xlink:href="#m7fd09e6c32" x="839.653087" y="512.64" style="stroke: #000000; stroke-width: 0.8"/>
      </g>
     </g>
     <g id="text_4">
      <!-- 1500 -->
      <g transform="translate(826.928087 527.238438) scale(0.1 -0.1)">
       <use xlink:href="#DejaVuSans-31"/>
       <use xlink:href="#DejaVuSans-35" x="63.623047"/>
       <use xlink:href="#DejaVuSans-30" x="127.246094"/>
       <use xlink:href="#DejaVuSans-30" x="190.869141"/>
      </g>
     </g>
    </g>
    <g id="xtick_5">
     <g id="line2d_5">
      <g>
       <use xlink:href="#m7fd09e6c32" x="1042.95926" y="512.64" style="stroke: #000000; stroke-width: 0.8"/>
      </g>
     </g>
     <g id="text_5">
      <!-- 2000 -->
      <g transform="translate(1030.23426 527.238438) scale(0.1 -0.1)">
       <defs>
        <path id="DejaVuSans-32" d="M 1228 531 
L 3431 531 
L 3431 0 
L 469 0 
L 469 531 
Q 828 903 1448 1529 
Q 2069 2156 2228 2338 
Q 2531 2678 2651 2914 
Q 2772 3150 2772 3378 
Q 2772 3750 2511 3984 
Q 2250 4219 1831 4219 
Q 1534 4219 1204 4116 
Q 875 4013 500 3803 
L 500 4441 
Q 881 4594 1212 4672 
Q 1544 4750 1819 4750 
Q 2544 4750 2975 4387 
Q 3406 4025 3406 3419 
Q 3406 3131 3298 2873 
Q 3191 2616 2906 2266 
Q 2828 2175 2409 1742 
Q 1991 1309 1228 531 
z
" transform="scale(0.015625)"/>
       </defs>
       <use xlink:href="#DejaVuSans-32"/>
       <use xlink:href="#DejaVuSans-30" x="63.623047"/>
       <use xlink:href="#DejaVuSans-30" x="127.246094"/>
       <use xlink:href="#DejaVuSans-30" x="190.869141"/>
      </g>
     </g>
    </g>
    <g id="xtick_6">
     <g id="line2d_6">
      <g>
       <use xlink:href="#m7fd09e6c32" x="1246.265433" y="512.64" style="stroke: #000000; stroke-width: 0.8"/>
      </g>
     </g>
     <g id="text_6">
      <!-- 2500 -->
      <g transform="translate(1233.540433 527.238438) scale(0.1 -0.1)">
       <use xlink:href="#DejaVuSans-32"/>
       <use xlink:href="#DejaVuSans-35" x="63.623047"/>
       <use xlink:href="#DejaVuSans-30" x="127.246094"/>
       <use xlink:href="#DejaVuSans-30" x="190.869141"/>
      </g>
     </g>
    </g>
   </g>
   <g id="matplotlib.axis_2">
    <g id="ytick_1">
     <g id="line2d_7">
      <defs>
       <path id="m41cd129186" d="M 0 0 
L -3.5 0 
" style="stroke: #000000; stroke-width: 0.8"/>
      </defs>
      <g>
       <use xlink:href="#m41cd129186" x="180" y="511.640349" style="stroke: #000000; stroke-width: 0.8"/>
      </g>
     </g>
     <g id="text_7">
      <!-- −6 -->
      <g transform="translate(158.257812 515.439568) scale(0.1 -0.1)">
       <defs>
        <path id="DejaVuSans-2212" d="M 678 2272 
L 4684 2272 
L 4684 1741 
L 678 1741 
L 678 2272 
z
" transform="scale(0.015625)"/>
        <path id="DejaVuSans-36" d="M 2113 2584 
Q 1688 2584 1439 2293 
Q 1191 2003 1191 1497 
Q 1191 994 1439 701 
Q 1688 409 2113 409 
Q 2538 409 2786 701 
Q 3034 994 3034 1497 
Q 3034 2003 2786 2293 
Q 2538 2584 2113 2584 
z
M 3366 4563 
L 3366 3988 
Q 3128 4100 2886 4159 
Q 2644 4219 2406 4219 
Q 1781 4219 1451 3797 
Q 1122 3375 1075 2522 
Q 1259 2794 1537 2939 
Q 1816 3084 2150 3084 
Q 2853 3084 3261 2657 
Q 3669 2231 3669 1497 
Q 3669 778 3244 343 
Q 2819 -91 2113 -91 
Q 1303 -91 875 529 
Q 447 1150 447 2328 
Q 447 3434 972 4092 
Q 1497 4750 2381 4750 
Q 2619 4750 2861 4703 
Q 3103 4656 3366 4563 
z
" transform="scale(0.015625)"/>
       </defs>
       <use xlink:href="#DejaVuSans-2212"/>
       <use xlink:href="#DejaVuSans-36" x="83.789062"/>
      </g>
     </g>
    </g>
    <g id="ytick_2">
     <g id="line2d_8">
      <g>
       <use xlink:href="#m41cd129186" x="180" y="440.636209" style="stroke: #000000; stroke-width: 0.8"/>
      </g>
     </g>
     <g id="text_8">
      <!-- −4 -->
      <g transform="translate(158.257812 444.435428) scale(0.1 -0.1)">
       <defs>
        <path id="DejaVuSans-34" d="M 2419 4116 
L 825 1625 
L 2419 1625 
L 2419 4116 
z
M 2253 4666 
L 3047 4666 
L 3047 1625 
L 3713 1625 
L 3713 1100 
L 3047 1100 
L 3047 0 
L 2419 0 
L 2419 1100 
L 313 1100 
L 313 1709 
L 2253 4666 
z
" transform="scale(0.015625)"/>
       </defs>
       <use xlink:href="#DejaVuSans-2212"/>
       <use xlink:href="#DejaVuSans-34" x="83.789062"/>
      </g>
     </g>
    </g>
    <g id="ytick_3">
     <g id="line2d_9">
      <g>
       <use xlink:href="#m41cd129186" x="180" y="369.632069" style="stroke: #000000; stroke-width: 0.8"/>
      </g>
     </g>
     <g id="text_9">
      <!-- −2 -->
      <g transform="translate(158.257812 373.431287) scale(0.1 -0.1)">
       <use xlink:href="#DejaVuSans-2212"/>
       <use xlink:href="#DejaVuSans-32" x="83.789062"/>
      </g>
     </g>
    </g>
    <g id="ytick_4">
     <g id="line2d_10">
      <g>
       <use xlink:href="#m41cd129186" x="180" y="298.627928" style="stroke: #000000; stroke-width: 0.8"/>
      </g>
     </g>
     <g id="text_10">
      <!-- 0 -->
      <g transform="translate(166.6375 302.427147) scale(0.1 -0.1)">
       <use xlink:href="#DejaVuSans-30"/>
      </g>
     </g>
    </g>
    <g id="ytick_5">
     <g id="line2d_11">
      <g>
       <use xlink:href="#m41cd129186" x="180" y="227.623788" style="stroke: #000000; stroke-width: 0.8"/>
      </g>
     </g>
     <g id="text_11">
      <!-- 2 -->
      <g transform="translate(166.6375 231.423007) scale(0.1 -0.1)">
       <use xlink:href="#DejaVuSans-32"/>
      </g>
     </g>
    </g>
    <g id="ytick_6">
     <g id="line2d_12">
      <g>
       <use xlink:href="#m41cd129186" x="180" y="156.619648" style="stroke: #000000; stroke-width: 0.8"/>
      </g>
     </g>
     <g id="text_12">
      <!-- 4 -->
      <g transform="translate(166.6375 160.418867) scale(0.1 -0.1)">
       <use xlink:href="#DejaVuSans-34"/>
      </g>
     </g>
    </g>
    <g id="ytick_7">
     <g id="line2d_13">
      <g>
       <use xlink:href="#m41cd129186" x="180" y="85.615508" style="stroke: #000000; stroke-width: 0.8"/>
      </g>
     </g>
     <g id="text_13">
      <!-- 6 -->
      <g transform="translate(166.6375 89.414727) scale(0.1 -0.1)">
       <use xlink:href="#DejaVuSans-36"/>
      </g>
     </g>
    </g>
   </g>
   <g id="line2d_14">
    <path d="M 230.727273 288.001314 
L 231.719979 308.206673 
L 232.712685 283.711759 
L 233.70539 274.947166 
L 234.698096 283.829636 
L 235.690802 262.94945 
L 236.683508 284.952617 
L 237.676214 267.647541 
L 238.66892 289.519585 
L 239.661626 283.516598 
L 240.654332 296.921262 
L 241.647038 287.558781 
L 242.639744 286.387471 
L 243.63245 298.431071 
L 244.625156 280.457746 
L 245.617862 310.922966 
L 246.610568 311.559867 
L 248.595979 274.503539 
L 249.588685 235.056898 
L 250.581391 228.410516 
L 251.574097 257.197484 
L 252.566803 206.229209 
L 253.559509 189.474231 
L 254.552215 193.358587 
L 255.544921 220.1254 
L 256.537627 193.630574 
L 257.530333 205.071162 
L 258.523039 231.958447 
L 259.515745 179.590803 
L 260.50845 186.360154 
L 261.501156 196.414375 
L 262.493862 177.059801 
L 263.486568 185.604824 
L 264.479274 188.303666 
L 265.47198 168.154148 
L 266.464686 178.959745 
L 267.457392 184.640685 
L 268.450098 160.017633 
L 269.442804 166.153523 
L 270.43551 150.323665 
L 271.428216 151.877443 
L 272.420922 138.955231 
L 273.413627 136.034588 
L 274.406333 137.552258 
L 275.399039 135.041187 
L 276.391745 132.992178 
L 277.384451 132.311217 
L 278.377157 160.302298 
L 279.369863 164.47918 
L 280.362569 171.193317 
L 281.355275 120.180776 
L 282.347981 99.313429 
L 283.340687 107.20677 
L 284.333393 96.146465 
L 285.326099 89.28 
L 286.318804 111.278531 
L 287.31151 121.2675 
L 288.304216 147.703595 
L 289.296922 126.214792 
L 290.289628 128.386567 
L 291.282334 154.790202 
L 292.27504 157.129456 
L 293.267746 163.291212 
L 294.260452 179.811798 
L 295.253158 209.865986 
L 296.245864 175.385364 
L 297.23857 169.443631 
L 298.231276 175.149042 
L 299.223981 194.113752 
L 300.216687 228.77109 
L 301.209393 220.559647 
L 302.202099 207.077572 
L 304.187511 227.098858 
L 305.180217 221.659502 
L 306.172923 249.819791 
L 307.165629 329.879997 
L 308.158335 271.904342 
L 309.151041 231.709616 
L 310.143747 236.352822 
L 311.136453 237.601777 
L 312.129159 239.302558 
L 313.121864 285.299914 
L 314.11457 276.486683 
L 315.107276 278.963559 
L 316.099982 256.361391 
L 317.092688 278.879845 
L 318.085394 258.999281 
L 319.0781 302.873042 
L 320.070806 283.887874 
L 321.063512 280.22921 
L 322.056218 344.702824 
L 323.048924 272.299177 
L 324.04163 286.655743 
L 325.034336 281.316172 
L 326.027041 269.731559 
L 327.019747 315.290942 
L 328.012453 280.412203 
L 329.005159 303.611399 
L 329.997865 316.251235 
L 330.990571 310.839101 
L 331.983277 320.486825 
L 332.975983 295.84354 
L 333.968689 340.949232 
L 334.961395 281.072142 
L 335.954101 289.729514 
L 336.946807 281.025191 
L 337.939513 275.583139 
L 338.932218 296.333062 
L 339.924924 278.383194 
L 340.91763 316.054736 
L 341.910336 296.901285 
L 342.903042 305.333352 
L 343.895748 335.214229 
L 344.888454 315.56306 
L 345.88116 317.352352 
L 346.873866 289.773527 
L 347.866572 291.838588 
L 348.859278 268.277256 
L 349.851984 277.301969 
L 350.84469 262.115278 
L 351.837395 273.939809 
L 352.830101 271.553621 
L 353.822807 281.141956 
L 354.815513 294.000114 
L 355.808219 279.608576 
L 356.800925 277.020839 
L 357.793631 256.336496 
L 358.786337 247.587718 
L 359.779043 246.864639 
L 360.771749 244.240925 
L 361.764455 260.717904 
L 362.757161 279.321944 
L 363.749867 274.65544 
L 364.742572 253.781151 
L 365.735278 236.749643 
L 366.727984 230.729808 
L 367.72069 229.363716 
L 368.713396 228.309713 
L 369.706102 231.238931 
L 370.698808 228.638887 
L 371.691514 231.185776 
L 372.68422 229.427603 
L 373.676926 231.393627 
L 374.669632 227.211412 
L 375.662338 220.207758 
L 376.655044 216.719536 
L 377.64775 210.670625 
L 378.640455 209.28538 
L 379.633161 205.843139 
L 381.618573 202.949664 
L 382.611279 202.513569 
L 383.603985 204.405663 
L 384.596691 204.810715 
L 385.589397 206.540977 
L 386.582103 205.066355 
L 388.567515 199.876159 
L 389.560221 197.981413 
L 390.552927 201.706096 
L 391.545632 207.052737 
L 392.538338 209.666972 
L 393.531044 204.927817 
L 394.52375 195.18037 
L 395.516456 188.104678 
L 396.509162 185.888803 
L 397.501868 186.086722 
L 398.494574 189.852275 
L 399.48728 195.454598 
L 400.479986 199.531673 
L 401.472692 205.683933 
L 402.465398 214.103921 
L 403.458104 225.467879 
L 404.450809 249.19213 
L 405.443515 263.73611 
L 406.436221 245.022542 
L 407.428927 237.936197 
L 409.414339 246.995115 
L 410.407045 249.457753 
L 411.399751 248.404384 
L 412.392457 243.559253 
L 413.385163 245.370874 
L 414.377869 255.37247 
L 415.370575 255.77549 
L 416.363281 254.411157 
L 417.355986 265.556966 
L 418.348692 272.381785 
L 419.341398 289.848637 
L 420.334104 297.118794 
L 422.319516 283.073706 
L 423.312222 289.982453 
L 424.304928 289.357408 
L 425.297634 267.184256 
L 426.29034 261.866786 
L 427.283046 268.115016 
L 428.275752 273.350351 
L 429.268458 296.212459 
L 430.261163 313.495721 
L 431.253869 288.123156 
L 432.246575 284.533103 
L 433.239281 294.29134 
L 434.231987 302.543785 
L 435.224693 341.551993 
L 436.217399 347.328041 
L 437.210105 309.884587 
L 438.202811 327.863306 
L 439.195517 311.361649 
L 440.188223 327.579125 
L 441.180929 302.932718 
L 442.173635 295.104397 
L 443.166341 289.605935 
L 444.159046 280.194359 
L 445.151752 284.875213 
L 446.144458 277.507297 
L 447.137164 283.760633 
L 448.12987 282.801326 
L 449.122576 282.548 
L 450.115282 288.559257 
L 451.107988 278.132143 
L 452.100694 279.462742 
L 453.0934 270.834779 
L 454.086106 265.378602 
L 455.078812 262.705749 
L 456.071518 259.438106 
L 457.064223 262.801165 
L 458.056929 263.489285 
L 459.049635 275.110206 
L 460.042341 282.690805 
L 462.027753 326.443836 
L 463.020459 296.959349 
L 464.013165 286.706994 
L 465.005871 283.165547 
L 465.998577 284.656162 
L 466.991283 305.647034 
L 467.983989 317.240406 
L 469.9694 292.771461 
L 470.962106 288.198805 
L 471.954812 294.216033 
L 472.947518 297.820259 
L 473.940224 295.87607 
L 474.93293 282.802366 
L 475.925636 282.06887 
L 476.918342 281.502662 
L 477.911048 285.657669 
L 479.89646 296.198754 
L 480.889166 302.763148 
L 483.867283 346.809477 
L 484.859989 322.007993 
L 485.852695 351.51863 
L 486.845401 333.39072 
L 487.838107 319.215149 
L 488.830813 294.106816 
L 489.823519 287.662744 
L 490.816225 275.452292 
L 491.808931 276.469633 
L 492.801637 274.389449 
L 494.787049 291.633927 
L 495.779754 288.974427 
L 496.77246 278.529785 
L 497.765166 265.251668 
L 498.757872 257.251283 
L 499.750578 253.06748 
L 501.73599 237.976393 
L 502.728696 232.787597 
L 503.721402 229.129955 
L 504.714108 230.228499 
L 505.706814 233.212337 
L 506.69952 237.295544 
L 507.692226 241.922511 
L 508.684932 241.820256 
L 509.677637 240.128805 
L 510.670343 243.153688 
L 511.663049 246.953626 
L 513.648461 259.107274 
L 514.641167 258.739154 
L 515.633873 260.640855 
L 516.626579 272.117273 
L 517.619285 295.144205 
L 518.611991 307.904833 
L 519.604697 281.979313 
L 520.597403 269.110529 
L 521.590109 267.52176 
L 522.582814 280.265892 
L 523.57552 285.130027 
L 524.568226 273.46969 
L 525.560932 268.154241 
L 526.553638 267.558787 
L 527.546344 272.646823 
L 528.53905 289.703572 
L 529.531756 291.617817 
L 530.524462 277.860066 
L 531.517168 281.591312 
L 532.509874 287.087576 
L 533.50258 289.95037 
L 534.495286 289.232901 
L 535.487991 287.692995 
L 536.480697 284.125566 
L 537.473403 293.277532 
L 538.466109 300.626631 
L 539.458815 284.353092 
L 540.451521 274.15793 
L 541.444227 272.095897 
L 542.436933 271.426891 
L 543.429639 281.780916 
L 545.415051 314.232762 
L 546.407757 350.35504 
L 547.400463 307.317186 
L 549.385874 276.281263 
L 550.37858 275.910866 
L 551.371286 278.844335 
L 552.363992 284.545821 
L 554.349404 317.090952 
L 555.34211 365.933741 
L 556.334816 332.191191 
L 557.327522 336.194511 
L 558.320228 323.467362 
L 559.312934 307.015672 
L 560.30564 312.349236 
L 561.298345 316.715813 
L 562.291051 333.396323 
L 563.283757 343.666093 
L 564.276463 356.827865 
L 565.269169 334.546243 
L 566.261875 339.081689 
L 567.254581 355.902381 
L 568.247287 332.757099 
L 569.239993 326.337171 
L 570.232699 345.936185 
L 571.225405 329.799151 
L 572.218111 329.158334 
L 573.210817 344.193284 
L 574.203523 326.248591 
L 575.196228 329.230829 
L 576.188934 346.663177 
L 577.18164 336.740348 
L 578.174346 359.756554 
L 579.167052 331.506265 
L 580.159758 332.748322 
L 581.152464 321.56241 
L 582.14517 316.362913 
L 583.137876 322.777097 
L 584.130582 325.457318 
L 585.123288 375.388599 
L 586.115994 361.728125 
L 587.1087 322.546668 
L 588.101405 318.061908 
L 589.094111 307.739205 
L 590.086817 308.399476 
L 592.072229 321.101736 
L 593.064935 353.52568 
L 594.057641 343.580435 
L 595.050347 334.932365 
L 596.043053 323.927137 
L 597.035759 304.643139 
L 598.028465 296.757771 
L 599.021171 284.447335 
L 600.013877 284.522211 
L 601.006582 284.876299 
L 601.999288 289.914357 
L 602.991994 304.864628 
L 603.9847 294.846501 
L 604.977406 283.675008 
L 606.962818 273.139081 
L 608.94823 275.547325 
L 609.940936 272.399742 
L 610.933642 269.880613 
L 611.926348 264.004964 
L 612.919054 260.60064 
L 613.911759 262.235345 
L 614.904465 262.42705 
L 615.897171 263.626698 
L 616.889877 263.155794 
L 617.882583 257.953017 
L 618.875289 255.859902 
L 619.867995 256.601434 
L 620.860701 258.419933 
L 623.838819 279.414083 
L 624.831525 292.779487 
L 625.824231 302.47948 
L 626.816936 323.403815 
L 627.809642 391.944771 
L 628.802348 353.327139 
L 629.795054 320.897642 
L 630.78776 322.27749 
L 631.780466 324.650325 
L 632.773172 322.146746 
L 633.765878 336.920242 
L 634.758584 328.790104 
L 635.75129 321.892223 
L 636.743996 327.795108 
L 637.736702 316.990987 
L 638.729408 319.548609 
L 639.722114 318.95562 
L 640.714819 309.000321 
L 643.692937 318.032076 
L 644.685643 336.42873 
L 645.678349 339.531448 
L 646.671055 320.018305 
L 647.663761 319.62998 
L 648.656467 325.99629 
L 649.649173 321.416155 
L 650.641879 319.497314 
L 651.634585 320.000801 
L 652.627291 311.523071 
L 653.619996 313.936105 
L 654.612702 325.868367 
L 655.605408 321.272689 
L 656.598114 315.223972 
L 657.59082 318.300436 
L 658.583526 316.335641 
L 659.576232 319.745275 
L 660.568938 331.827967 
L 661.561644 325.41973 
L 662.55435 308.461905 
L 663.547056 305.720416 
L 664.539762 305.299273 
L 665.532468 302.363047 
L 666.525173 309.632026 
L 667.517879 314.232459 
L 668.510585 314.15097 
L 669.503291 329.222666 
L 670.495997 350.333064 
L 671.488703 344.314718 
L 672.481409 322.564342 
L 673.474115 317.054285 
L 674.466821 307.892833 
L 675.459527 311.565024 
L 678.437645 361.371751 
L 679.43035 338.305335 
L 681.415762 320.616351 
L 682.408468 329.559714 
L 683.401174 328.07464 
L 684.39388 322.791067 
L 685.386586 335.692733 
L 686.379292 334.667458 
L 687.371998 356.491223 
L 688.364704 338.644821 
L 689.35741 339.932287 
L 690.350116 334.812209 
L 691.342822 348.145191 
L 692.335527 376.759627 
L 693.328233 364.60245 
L 694.320939 328.961215 
L 695.313645 324.558235 
L 696.306351 325.911896 
L 697.299057 321.096767 
L 698.291763 328.545049 
L 699.284469 323.049932 
L 700.277175 315.885099 
L 701.269881 321.116106 
L 702.262587 314.929957 
L 703.255293 323.222656 
L 704.247999 322.092168 
L 705.240705 327.605518 
L 706.23341 340.120319 
L 707.226116 336.741272 
L 708.218822 342.678718 
L 709.211528 332.573319 
L 710.204234 319.03256 
L 711.19694 322.404453 
L 712.189646 315.889624 
L 713.182352 320.983063 
L 714.175058 329.022693 
L 715.167764 320.582435 
L 716.16047 317.457252 
L 717.153176 310.4464 
L 718.145882 301.44017 
L 719.138587 303.715694 
L 720.131293 302.346665 
L 721.123999 301.417698 
L 722.116705 304.18819 
L 723.109411 298.206166 
L 724.102117 296.261314 
L 725.094823 299.831036 
L 726.087529 300.309687 
L 727.080235 312.0779 
L 728.072941 325.237767 
L 729.065647 329.748932 
L 730.058353 338.015293 
L 731.051059 337.978422 
L 732.043764 329.080316 
L 733.03647 340.317309 
L 734.029176 340.304256 
L 735.021882 330.208796 
L 736.014588 334.272722 
L 737.007294 325.939103 
L 738 327.344665 
L 738.992706 343.111402 
L 739.985412 349.045542 
L 740.978118 384.604476 
L 741.970824 363.019159 
L 742.96353 338.750601 
L 743.956236 327.049002 
L 744.948941 333.803708 
L 745.941647 326.805458 
L 746.934353 328.658995 
L 747.927059 334.797514 
L 748.919765 326.97069 
L 749.912471 338.763312 
L 750.905177 339.091773 
L 751.897883 346.206203 
L 752.890589 350.796507 
L 753.883295 347.034019 
L 754.876001 375.221834 
L 755.868707 364.624561 
L 756.861413 357.058753 
L 757.854118 363.111455 
L 758.846824 345.133525 
L 759.83953 348.18035 
L 760.832236 376.037436 
L 762.817648 342.303659 
L 763.810354 347.971424 
L 764.80306 338.640686 
L 765.795766 348.473877 
L 766.788472 387.396957 
L 768.773884 343.812036 
L 769.76659 349.93049 
L 770.759295 337.766186 
L 771.752001 351.258307 
L 773.737413 371.439055 
L 774.730119 435.133781 
L 775.722825 390.488456 
L 776.715531 360.436233 
L 777.708237 373.398151 
L 778.700943 350.752356 
L 779.693649 378.468163 
L 780.686355 373.664384 
L 781.679061 442.661795 
L 782.671767 374.176424 
L 783.664473 410.485862 
L 784.657178 371.907347 
L 785.649884 384.145346 
L 786.64259 350.140536 
L 787.635296 353.896168 
L 788.628002 337.860164 
L 789.620708 352.200264 
L 790.613414 360.969452 
L 791.60612 354.502279 
L 792.598826 359.860252 
L 793.591532 355.596856 
L 794.584238 349.211568 
L 795.576944 391.543559 
L 796.56965 411.552982 
L 797.562355 359.0277 
L 798.555061 353.265918 
L 799.547767 349.398054 
L 800.540473 342.459545 
L 801.533179 358.778772 
L 802.525885 345.69919 
L 803.518591 359.257938 
L 804.511297 348.57588 
L 805.504003 340.134611 
L 806.496709 344.404734 
L 807.489415 330.902633 
L 808.482121 337.202611 
L 809.474827 342.245491 
L 810.467532 345.356848 
L 811.460238 384.646284 
L 812.452944 383.501812 
L 813.44565 379.494931 
L 814.438356 399.045792 
L 815.431062 431.814455 
L 816.423768 372.262652 
L 817.416474 376.275912 
L 818.40918 365.113337 
L 819.401886 351.99916 
L 820.394592 356.134359 
L 821.387298 338.648872 
L 822.380004 347.49457 
L 823.372709 340.458098 
L 824.365415 337.106955 
L 825.358121 342.799091 
L 826.350827 329.957922 
L 827.343533 329.833 
L 828.336239 336.091265 
L 829.328945 332.988432 
L 830.321651 344.369501 
L 831.314357 344.778371 
L 832.307063 328.194616 
L 833.299769 327.137174 
L 834.292475 322.217381 
L 835.285181 319.311039 
L 836.277886 328.170983 
L 837.270592 325.940239 
L 838.263298 332.189614 
L 839.256004 339.644463 
L 840.24871 333.415732 
L 841.241416 348.011622 
L 842.234122 360.350112 
L 843.226828 396.569005 
L 844.219534 356.410954 
L 845.21224 344.745543 
L 846.204946 325.742873 
L 847.197652 321.262956 
L 848.190358 324.029451 
L 849.183064 321.402205 
L 850.175769 333.29283 
L 851.168475 337.127379 
L 852.161181 337.962541 
L 853.153887 354.627989 
L 854.146593 349.338261 
L 855.139299 368.36106 
L 856.132005 383.0259 
L 857.124711 401.130853 
L 858.117417 360.886184 
L 859.110123 362.325345 
L 860.102829 357.850194 
L 861.095535 359.862918 
L 862.088241 388.499348 
L 863.080946 392.418057 
L 864.073652 372.578625 
L 865.066358 364.558245 
L 866.059064 359.690347 
L 867.05177 352.823847 
L 868.044476 384.006756 
L 869.037182 373.622205 
L 870.029888 350.823515 
L 871.022594 353.022233 
L 872.0153 343.313843 
L 873.008006 347.726575 
L 874.000712 386.147174 
L 874.993418 370.724753 
L 875.986123 338.506712 
L 876.978829 335.400152 
L 877.971535 328.635175 
L 878.964241 330.028571 
L 879.956947 347.73943 
L 880.949653 344.514022 
L 881.942359 332.592216 
L 882.935065 333.269154 
L 883.927771 327.978559 
L 884.920477 333.810683 
L 885.913183 360.417564 
L 886.905889 362.86154 
L 887.898595 345.336589 
L 888.8913 346.987147 
L 890.876712 342.435808 
L 891.869418 348.082065 
L 892.862124 337.909415 
L 893.85483 324.577419 
L 894.847536 329.649797 
L 895.840242 331.800415 
L 896.832948 339.33768 
L 897.825654 365.208446 
L 898.81836 358.79427 
L 899.811066 339.033599 
L 900.803772 342.707078 
L 901.796477 344.673648 
L 902.789183 342.913561 
L 903.781889 360.017885 
L 904.774595 363.047241 
L 905.767301 354.839771 
L 906.760007 377.04605 
L 907.752713 405.487023 
L 908.745419 370.985963 
L 909.738125 353.537998 
L 910.730831 356.645265 
L 911.723537 341.407896 
L 912.716243 344.360565 
L 913.708949 358.035307 
L 914.701655 354.367191 
L 915.69436 373.991238 
L 916.687066 407.939003 
L 917.679772 374.985673 
L 918.672478 382.745154 
L 919.665184 435.889862 
L 920.65789 455.680912 
L 921.650596 362.127167 
L 922.643302 356.143636 
L 923.636008 354.92887 
L 924.628714 345.398725 
L 925.62142 363.810846 
L 926.614126 363.045005 
L 927.606832 358.130568 
L 928.599537 373.347032 
L 929.592243 354.277609 
L 930.584949 356.394582 
L 931.577655 356.029567 
L 932.570361 346.755133 
L 933.563067 359.723559 
L 934.555773 347.029156 
L 935.548479 339.212063 
L 936.541185 334.691293 
L 937.533891 319.057213 
L 938.526597 315.885715 
L 939.519303 314.806802 
L 940.512009 311.783186 
L 941.504714 318.702057 
L 942.49742 319.912744 
L 943.490126 319.107123 
L 944.482832 325.400889 
L 945.475538 324.030504 
L 946.468244 328.254917 
L 947.46095 343.686849 
L 948.453656 342.603145 
L 949.446362 338.661118 
L 950.439068 340.086433 
L 951.431774 329.326988 
L 952.42448 330.026699 
L 953.417186 338.367968 
L 954.409891 337.336241 
L 955.402597 355.202397 
L 956.395303 366.426065 
L 957.388009 356.26431 
L 958.380715 364.418057 
L 959.373421 365.483336 
L 960.366127 353.296455 
L 961.358833 363.242453 
L 962.351539 358.209474 
L 963.344245 342.363013 
L 964.336951 346.694998 
L 965.329657 338.749325 
L 966.322363 338.881311 
L 967.315068 353.398218 
L 968.307774 352.917564 
L 969.30048 387.647741 
L 970.293186 469.856148 
L 971.285892 378.047947 
L 972.278598 360.466561 
L 973.271304 376.94717 
L 974.26401 361.506681 
L 975.256716 363.387359 
L 976.249422 374.947418 
L 977.242128 352.634403 
L 978.234834 358.367054 
L 979.22754 359.751749 
L 980.220246 359.55193 
L 981.212951 383.356433 
L 982.205657 368.644038 
L 983.198363 394.721429 
L 984.191069 369.812043 
L 985.183775 416.96676 
L 986.176481 391.525332 
L 987.169187 387.27066 
L 988.161893 417.026318 
L 989.154599 370.940516 
L 990.147305 377.665307 
L 991.140011 374.349349 
L 992.132717 372.048625 
L 993.125423 394.114883 
L 994.118128 381.75025 
L 995.110834 419.310911 
L 996.10354 392.883515 
L 997.096246 428.66308 
L 998.088952 415.563482 
L 999.081658 384.882551 
L 1000.074364 394.724903 
L 1001.06707 365.262436 
L 1002.059776 358.604293 
L 1003.052482 369.365255 
L 1004.045188 353.432582 
L 1005.037894 356.795014 
L 1006.0306 357.638014 
L 1007.023305 341.817685 
L 1008.016011 346.981441 
L 1009.008717 347.828922 
L 1010.001423 346.175219 
L 1010.994129 371.500908 
L 1011.986835 376.443363 
L 1012.979541 386.746884 
L 1013.972247 391.351428 
L 1014.964953 414.737512 
L 1015.957659 373.322113 
L 1016.950365 362.62278 
L 1017.943071 370.740968 
L 1018.935777 352.859587 
L 1019.928482 347.264791 
L 1020.921188 359.366384 
L 1021.913894 352.792869 
L 1022.9066 351.606708 
L 1023.899306 357.869455 
L 1024.892012 343.929131 
L 1025.884718 338.015971 
L 1026.877424 348.049899 
L 1027.87013 344.67523 
L 1028.862836 350.40326 
L 1029.855542 365.987336 
L 1030.848248 354.411189 
L 1031.840954 359.501841 
L 1032.833659 384.360257 
L 1033.826365 379.516989 
L 1034.819071 389.369081 
L 1035.811777 359.05021 
L 1036.804483 367.327097 
L 1037.797189 351.075904 
L 1038.789895 346.237474 
L 1039.782601 348.807146 
L 1040.775307 335.162887 
L 1042.760719 340.806202 
L 1043.753425 340.039944 
L 1044.746131 357.624169 
L 1045.738837 350.617406 
L 1046.731542 359.329727 
L 1047.724248 357.422792 
L 1048.716954 343.671223 
L 1049.70966 348.701468 
L 1050.702366 339.982477 
L 1051.695072 339.08108 
L 1052.687778 348.653593 
L 1053.680484 339.914042 
L 1054.67319 337.187002 
L 1055.665896 340.636545 
L 1056.658602 332.763239 
L 1057.651308 338.111813 
L 1058.644014 349.41026 
L 1059.636719 346.350977 
L 1060.629425 354.01946 
L 1061.622131 363.660923 
L 1062.614837 351.737227 
L 1063.607543 354.358466 
L 1064.600249 362.58141 
L 1065.592955 347.204163 
L 1066.585661 348.288462 
L 1067.578367 354.613361 
L 1068.571073 348.435752 
L 1069.563779 370.286381 
L 1070.556485 374.332907 
L 1071.549191 379.452197 
L 1072.541896 446.724388 
L 1073.534602 397.612398 
L 1074.527308 393.613951 
L 1075.520014 464.913186 
L 1076.51272 396.24597 
L 1077.505426 380.578845 
L 1078.498132 394.981623 
L 1079.490838 360.143809 
L 1080.483544 362.560231 
L 1081.47625 359.758958 
L 1082.468956 351.526668 
L 1083.461662 367.50868 
L 1084.454368 357.060646 
L 1085.447073 358.364272 
L 1086.439779 371.758421 
L 1087.432485 356.810432 
L 1088.425191 368.258536 
L 1089.417897 376.320161 
L 1090.410603 369.342974 
L 1091.403309 403.981158 
L 1092.396015 398.989165 
L 1093.388721 380.02419 
L 1094.381427 401.205409 
L 1095.374133 388.370305 
L 1096.366839 373.263046 
L 1097.359545 401.36812 
L 1098.35225 375.492812 
L 1099.344956 371.968715 
L 1100.337662 387.249044 
L 1101.330368 361.633344 
L 1102.323074 366.116562 
L 1103.31578 369.182955 
L 1104.308486 356.801759 
L 1105.301192 371.985125 
L 1106.293898 370.06569 
L 1107.286604 354.45086 
L 1108.27931 359.365321 
L 1110.264722 344.764878 
L 1111.257428 359.158625 
L 1112.250133 355.954673 
L 1113.242839 359.328902 
L 1114.235545 381.927401 
L 1115.228251 371.595801 
L 1116.220957 373.455382 
L 1117.213663 403.024637 
L 1118.206369 390.545527 
L 1119.199075 358.238326 
L 1120.191781 361.856101 
L 1121.184487 361.916783 
L 1122.177193 359.42757 
L 1123.169899 394.896743 
L 1124.162605 408.834101 
L 1125.15531 372.628552 
L 1126.148016 369.098461 
L 1127.140722 377.908182 
L 1128.133428 358.104697 
L 1130.11884 365.88149 
L 1131.111546 352.049892 
L 1132.104252 366.072756 
L 1133.096958 365.015981 
L 1134.089664 368.209059 
L 1135.08237 403.000741 
L 1136.075076 376.439932 
L 1137.067782 386.147442 
L 1138.060487 388.874253 
L 1139.053193 365.967395 
L 1140.045899 383.161313 
L 1141.038605 367.237815 
L 1142.031311 362.532932 
L 1143.024017 375.846247 
L 1144.016723 356.184937 
L 1145.009429 364.760695 
L 1146.002135 364.149027 
L 1146.994841 359.211898 
L 1147.987547 378.083955 
L 1148.980253 359.810775 
L 1149.972959 366.37415 
L 1150.965664 364.107795 
L 1151.95837 349.212706 
L 1152.951076 358.587622 
L 1153.943782 352.322598 
L 1154.936488 355.540718 
L 1155.929194 379.170501 
L 1156.9219 365.254532 
L 1157.914606 358.48214 
L 1158.907312 369.723998 
L 1159.900018 357.297158 
L 1160.892724 378.788716 
L 1161.88543 390.548799 
L 1162.878136 419.022521 
L 1163.870841 393.251669 
L 1164.863547 462.185886 
L 1165.856253 391.872312 
L 1166.848959 492.48 
L 1167.841665 386.937338 
L 1168.834371 446.12269 
L 1169.827077 409.726199 
L 1171.812489 359.062315 
L 1172.805195 363.793318 
L 1173.797901 349.877271 
L 1175.783313 382.925569 
L 1176.776019 373.703934 
L 1177.768724 369.375792 
L 1178.76143 375.185209 
L 1179.754136 361.481711 
L 1180.746842 386.77607 
L 1181.739548 432.945461 
L 1182.732254 371.325025 
L 1183.72496 358.871381 
L 1184.717666 371.431342 
L 1185.710372 363.215158 
L 1186.703078 398.629019 
L 1187.695784 423.714765 
L 1188.68849 389.365307 
L 1189.681196 366.386756 
L 1190.673901 397.342242 
L 1191.666607 393.929591 
L 1192.659313 389.278078 
L 1193.652019 371.954642 
L 1194.644725 370.284244 
L 1195.637431 352.455908 
L 1196.630137 365.52447 
L 1197.622843 369.509638 
L 1198.615549 357.697562 
L 1199.608255 360.859993 
L 1201.593667 344.320761 
L 1202.586373 357.845169 
L 1203.579078 353.394794 
L 1204.571784 374.827242 
L 1205.56449 411.78747 
L 1206.557196 386.580023 
L 1207.549902 376.161893 
L 1208.542608 390.258468 
L 1209.535314 369.894918 
L 1210.52802 400.180728 
L 1211.520726 456.697675 
L 1212.513432 371.353862 
L 1213.506138 359.192327 
L 1214.498844 358.31348 
L 1215.49155 346.527889 
L 1216.484255 362.707335 
L 1217.476961 363.303034 
L 1218.469667 368.643398 
L 1219.462373 384.385907 
L 1220.455079 362.411109 
L 1221.447785 354.495722 
L 1222.440491 368.433287 
L 1223.433197 361.02215 
L 1225.418609 397.317719 
L 1226.411315 359.58373 
L 1227.404021 352.332873 
L 1228.396727 358.11555 
L 1229.389432 349.790627 
L 1230.382138 364.560477 
L 1231.374844 373.455658 
L 1232.36755 352.669055 
L 1233.360256 351.906401 
L 1234.352962 354.792833 
L 1235.345668 347.955885 
L 1236.338374 364.409779 
L 1237.33108 374.288938 
L 1238.323786 364.016893 
L 1239.316492 375.24556 
L 1240.309198 396.227349 
L 1241.301904 375.404375 
L 1242.29461 363.12276 
L 1243.287315 364.94318 
L 1244.280021 347.518056 
L 1245.272727 341.171978 
L 1245.272727 341.171978 
" clip-path="url(#pe7bff849c5)" style="fill: none; stroke: #1f77b4; stroke-width: 1.5; stroke-linecap: square"/>
   </g>
   <g id="patch_3">
    <path d="M 180 512.64 
L 180 69.12 
" style="fill: none; stroke: #000000; stroke-width: 0.8; stroke-linejoin: miter; stroke-linecap: square"/>
   </g>
   <g id="patch_4">
    <path d="M 1296 512.64 
L 1296 69.12 
" style="fill: none; stroke: #000000; stroke-width: 0.8; stroke-linejoin: miter; stroke-linecap: square"/>
   </g>
   <g id="patch_5">
    <path d="M 180 512.64 
L 1296 512.64 
" style="fill: none; stroke: #000000; stroke-width: 0.8; stroke-linejoin: miter; stroke-linecap: square"/>
   </g>
   <g id="patch_6">
    <path d="M 180 69.12 
L 1296 69.12 
" style="fill: none; stroke: #000000; stroke-width: 0.8; stroke-linejoin: miter; stroke-linecap: square"/>
   </g>
   <g id="text_14">
    <!-- source17-receiver19 -->
    <g transform="translate(532.175 60.80125) scale(0.4 -0.4)">
     <defs>
      <path id="DejaVuSans-73" d="M 2834 3397 
L 2834 2853 
Q 2591 2978 2328 3040 
Q 2066 3103 1784 3103 
Q 1356 3103 1142 2972 
Q 928 2841 928 2578 
Q 928 2378 1081 2264 
Q 1234 2150 1697 2047 
L 1894 2003 
Q 2506 1872 2764 1633 
Q 3022 1394 3022 966 
Q 3022 478 2636 193 
Q 2250 -91 1575 -91 
Q 1294 -91 989 -36 
Q 684 19 347 128 
L 347 722 
Q 666 556 975 473 
Q 1284 391 1588 391 
Q 1994 391 2212 530 
Q 2431 669 2431 922 
Q 2431 1156 2273 1281 
Q 2116 1406 1581 1522 
L 1381 1569 
Q 847 1681 609 1914 
Q 372 2147 372 2553 
Q 372 3047 722 3315 
Q 1072 3584 1716 3584 
Q 2034 3584 2315 3537 
Q 2597 3491 2834 3397 
z
" transform="scale(0.015625)"/>
      <path id="DejaVuSans-6f" d="M 1959 3097 
Q 1497 3097 1228 2736 
Q 959 2375 959 1747 
Q 959 1119 1226 758 
Q 1494 397 1959 397 
Q 2419 397 2687 759 
Q 2956 1122 2956 1747 
Q 2956 2369 2687 2733 
Q 2419 3097 1959 3097 
z
M 1959 3584 
Q 2709 3584 3137 3096 
Q 3566 2609 3566 1747 
Q 3566 888 3137 398 
Q 2709 -91 1959 -91 
Q 1206 -91 779 398 
Q 353 888 353 1747 
Q 353 2609 779 3096 
Q 1206 3584 1959 3584 
z
" transform="scale(0.015625)"/>
      <path id="DejaVuSans-75" d="M 544 1381 
L 544 3500 
L 1119 3500 
L 1119 1403 
Q 1119 906 1312 657 
Q 1506 409 1894 409 
Q 2359 409 2629 706 
Q 2900 1003 2900 1516 
L 2900 3500 
L 3475 3500 
L 3475 0 
L 2900 0 
L 2900 538 
Q 2691 219 2414 64 
Q 2138 -91 1772 -91 
Q 1169 -91 856 284 
Q 544 659 544 1381 
z
M 1991 3584 
L 1991 3584 
z
" transform="scale(0.015625)"/>
      <path id="DejaVuSans-72" d="M 2631 2963 
Q 2534 3019 2420 3045 
Q 2306 3072 2169 3072 
Q 1681 3072 1420 2755 
Q 1159 2438 1159 1844 
L 1159 0 
L 581 0 
L 581 3500 
L 1159 3500 
L 1159 2956 
Q 1341 3275 1631 3429 
Q 1922 3584 2338 3584 
Q 2397 3584 2469 3576 
Q 2541 3569 2628 3553 
L 2631 2963 
z
" transform="scale(0.015625)"/>
      <path id="DejaVuSans-63" d="M 3122 3366 
L 3122 2828 
Q 2878 2963 2633 3030 
Q 2388 3097 2138 3097 
Q 1578 3097 1268 2742 
Q 959 2388 959 1747 
Q 959 1106 1268 751 
Q 1578 397 2138 397 
Q 2388 397 2633 464 
Q 2878 531 3122 666 
L 3122 134 
Q 2881 22 2623 -34 
Q 2366 -91 2075 -91 
Q 1284 -91 818 406 
Q 353 903 353 1747 
Q 353 2603 823 3093 
Q 1294 3584 2113 3584 
Q 2378 3584 2631 3529 
Q 2884 3475 3122 3366 
z
" transform="scale(0.015625)"/>
      <path id="DejaVuSans-65" d="M 3597 1894 
L 3597 1613 
L 953 1613 
Q 991 1019 1311 708 
Q 1631 397 2203 397 
Q 2534 397 2845 478 
Q 3156 559 3463 722 
L 3463 178 
Q 3153 47 2828 -22 
Q 2503 -91 2169 -91 
Q 1331 -91 842 396 
Q 353 884 353 1716 
Q 353 2575 817 3079 
Q 1281 3584 2069 3584 
Q 2775 3584 3186 3129 
Q 3597 2675 3597 1894 
z
M 3022 2063 
Q 3016 2534 2758 2815 
Q 2500 3097 2075 3097 
Q 1594 3097 1305 2825 
Q 1016 2553 972 2059 
L 3022 2063 
z
" transform="scale(0.015625)"/>
      <path id="DejaVuSans-37" d="M 525 4666 
L 3525 4666 
L 3525 4397 
L 1831 0 
L 1172 0 
L 2766 4134 
L 525 4134 
L 525 4666 
z
" transform="scale(0.015625)"/>
      <path id="DejaVuSans-2d" d="M 313 2009 
L 1997 2009 
L 1997 1497 
L 313 1497 
L 313 2009 
z
" transform="scale(0.015625)"/>
      <path id="DejaVuSans-69" d="M 603 3500 
L 1178 3500 
L 1178 0 
L 603 0 
L 603 3500 
z
M 603 4863 
L 1178 4863 
L 1178 4134 
L 603 4134 
L 603 4863 
z
" transform="scale(0.015625)"/>
      <path id="DejaVuSans-76" d="M 191 3500 
L 800 3500 
L 1894 563 
L 2988 3500 
L 3597 3500 
L 2284 0 
L 1503 0 
L 191 3500 
z
" transform="scale(0.015625)"/>
      <path id="DejaVuSans-39" d="M 703 97 
L 703 672 
Q 941 559 1184 500 
Q 1428 441 1663 441 
Q 2288 441 2617 861 
Q 2947 1281 2994 2138 
Q 2813 1869 2534 1725 
Q 2256 1581 1919 1581 
Q 1219 1581 811 2004 
Q 403 2428 403 3163 
Q 403 3881 828 4315 
Q 1253 4750 1959 4750 
Q 2769 4750 3195 4129 
Q 3622 3509 3622 2328 
Q 3622 1225 3098 567 
Q 2575 -91 1691 -91 
Q 1453 -91 1209 -44 
Q 966 3 703 97 
z
M 1959 2075 
Q 2384 2075 2632 2365 
Q 2881 2656 2881 3163 
Q 2881 3666 2632 3958 
Q 2384 4250 1959 4250 
Q 1534 4250 1286 3958 
Q 1038 3666 1038 3163 
Q 1038 2656 1286 2365 
Q 1534 2075 1959 2075 
z
" transform="scale(0.015625)"/>
     </defs>
     <use xlink:href="#DejaVuSans-73"/>
     <use xlink:href="#DejaVuSans-6f" x="52.099609"/>
     <use xlink:href="#DejaVuSans-75" x="113.28125"/>
     <use xlink:href="#DejaVuSans-72" x="176.660156"/>
     <use xlink:href="#DejaVuSans-63" x="215.523438"/>
     <use xlink:href="#DejaVuSans-65" x="270.503906"/>
     <use xlink:href="#DejaVuSans-31" x="332.027344"/>
     <use xlink:href="#DejaVuSans-37" x="395.650391"/>
     <use xlink:href="#DejaVuSans-2d" x="459.273438"/>
     <use xlink:href="#DejaVuSans-72" x="495.357422"/>
     <use xlink:href="#DejaVuSans-65" x="534.220703"/>
     <use xlink:href="#DejaVuSans-63" x="595.744141"/>
     <use xlink:href="#DejaVuSans-65" x="650.724609"/>
     <use xlink:href="#DejaVuSans-69" x="712.248047"/>
     <use xlink:href="#DejaVuSans-76" x="740.03125"/>
     <use xlink:href="#DejaVuSans-65" x="799.210938"/>
     <use xlink:href="#DejaVuSans-72" x="860.734375"/>
     <use xlink:href="#DejaVuSans-31" x="901.847656"/>
     <use xlink:href="#DejaVuSans-39" x="965.470703"/>
    </g>
   </g>
  </g>
 </g>
 <defs>
  <clipPath id="pe7bff849c5">
   <rect x="180" y="69.12" width="1116" height="443.52"/>
  </clipPath>
 </defs>
</svg>
