<?xml version="1.0" encoding="utf-8" standalone="no"?>
<!DOCTYPE svg PUBLIC "-//W3C//DTD SVG 1.1//EN"
  "http://www.w3.org/Graphics/SVG/1.1/DTD/svg11.dtd">
<svg xmlns:xlink="http://www.w3.org/1999/xlink" width="1440pt" height="576pt" viewBox="0 0 1440 576" xmlns="http://www.w3.org/2000/svg" version="1.1">
 <metadata>
  <rdf:RDF xmlns:dc="http://purl.org/dc/elements/1.1/" xmlns:cc="http://creativecommons.org/ns#" xmlns:rdf="http://www.w3.org/1999/02/22-rdf-syntax-ns#">
   <cc:Work>
    <dc:type rdf:resource="http://purl.org/dc/dcmitype/StillImage"/>
    <dc:date>2024-05-22T04:50:12.832274</dc:date>
    <dc:format>image/svg+xml</dc:format>
    <dc:creator>
     <cc:Agent>
      <dc:title>Matplotlib v3.8.3, https://matplotlib.org/</dc:title>
     </cc:Agent>
    </dc:creator>
   </cc:Work>
  </rdf:RDF>
 </metadata>
 <defs>
  <style type="text/css">*{stroke-linejoin: round; stroke-linecap: butt}</style>
 </defs>
 <g id="figure_1">
  <g id="patch_1">
   <path d="M 0 576 
L 1440 576 
L 1440 0 
L 0 0 
z
" style="fill: #ffffff"/>
  </g>
  <g id="axes_1">
   <g id="patch_2">
    <path d="M 180 512.64 
L 1296 512.64 
L 1296 69.12 
L 180 69.12 
z
" style="fill: #ffffff"/>
   </g>
   <g id="matplotlib.axis_1">
    <g id="xtick_1">
     <g id="line2d_1">
      <defs>
       <path id="mda9294217c" d="M 0 0 
L 0 3.5 
" style="stroke: #000000; stroke-width: 0.8"/>
      </defs>
      <g>
       <use xlink:href="#mda9294217c" x="229.734567" y="512.64" style="stroke: #000000; stroke-width: 0.8"/>
      </g>
     </g>
     <g id="text_1">
      <!-- 0 -->
      <g transform="translate(226.553317 527.238438) scale(0.1 -0.1)">
       <defs>
        <path id="DejaVuSans-30" d="M 2034 4250 
Q 1547 4250 1301 3770 
Q 1056 3291 1056 2328 
Q 1056 1369 1301 889 
Q 1547 409 2034 409 
Q 2525 409 2770 889 
Q 3016 1369 3016 2328 
Q 3016 3291 2770 3770 
Q 2525 4250 2034 4250 
z
M 2034 4750 
Q 2819 4750 3233 4129 
Q 3647 3509 3647 2328 
Q 3647 1150 3233 529 
Q 2819 -91 2034 -91 
Q 1250 -91 836 529 
Q 422 1150 422 2328 
Q 422 3509 836 4129 
Q 1250 4750 2034 4750 
z
" transform="scale(0.015625)"/>
       </defs>
       <use xlink:href="#DejaVuSans-30"/>
      </g>
     </g>
    </g>
    <g id="xtick_2">
     <g id="line2d_2">
      <g>
       <use xlink:href="#mda9294217c" x="433.04074" y="512.64" style="stroke: #000000; stroke-width: 0.8"/>
      </g>
     </g>
     <g id="text_2">
      <!-- 500 -->
      <g transform="translate(423.49699 527.238438) scale(0.1 -0.1)">
       <defs>
        <path id="DejaVuSans-35" d="M 691 4666 
L 3169 4666 
L 3169 4134 
L 1269 4134 
L 1269 2991 
Q 1406 3038 1543 3061 
Q 1681 3084 1819 3084 
Q 2600 3084 3056 2656 
Q 3513 2228 3513 1497 
Q 3513 744 3044 326 
Q 2575 -91 1722 -91 
Q 1428 -91 1123 -41 
Q 819 9 494 109 
L 494 744 
Q 775 591 1075 516 
Q 1375 441 1709 441 
Q 2250 441 2565 725 
Q 2881 1009 2881 1497 
Q 2881 1984 2565 2268 
Q 2250 2553 1709 2553 
Q 1456 2553 1204 2497 
Q 953 2441 691 2322 
L 691 4666 
z
" transform="scale(0.015625)"/>
       </defs>
       <use xlink:href="#DejaVuSans-35"/>
       <use xlink:href="#DejaVuSans-30" x="63.623047"/>
       <use xlink:href="#DejaVuSans-30" x="127.246094"/>
      </g>
     </g>
    </g>
    <g id="xtick_3">
     <g id="line2d_3">
      <g>
       <use xlink:href="#mda9294217c" x="636.346913" y="512.64" style="stroke: #000000; stroke-width: 0.8"/>
      </g>
     </g>
     <g id="text_3">
      <!-- 1000 -->
      <g transform="translate(623.621913 527.238438) scale(0.1 -0.1)">
       <defs>
        <path id="DejaVuSans-31" d="M 794 531 
L 1825 531 
L 1825 4091 
L 703 3866 
L 703 4441 
L 1819 4666 
L 2450 4666 
L 2450 531 
L 3481 531 
L 3481 0 
L 794 0 
L 794 531 
z
" transform="scale(0.015625)"/>
       </defs>
       <use xlink:href="#DejaVuSans-31"/>
       <use xlink:href="#DejaVuSans-30" x="63.623047"/>
       <use xlink:href="#DejaVuSans-30" x="127.246094"/>
       <use xlink:href="#DejaVuSans-30" x="190.869141"/>
      </g>
     </g>
    </g>
    <g id="xtick_4">
     <g id="line2d_4">
      <g>
       <use xlink:href="#mda9294217c" x="839.653087" y="512.64" style="stroke: #000000; stroke-width: 0.8"/>
      </g>
     </g>
     <g id="text_4">
      <!-- 1500 -->
      <g transform="translate(826.928087 527.238438) scale(0.1 -0.1)">
       <use xlink:href="#DejaVuSans-31"/>
       <use xlink:href="#DejaVuSans-35" x="63.623047"/>
       <use xlink:href="#DejaVuSans-30" x="127.246094"/>
       <use xlink:href="#DejaVuSans-30" x="190.869141"/>
      </g>
     </g>
    </g>
    <g id="xtick_5">
     <g id="line2d_5">
      <g>
       <use xlink:href="#mda9294217c" x="1042.95926" y="512.64" style="stroke: #000000; stroke-width: 0.8"/>
      </g>
     </g>
     <g id="text_5">
      <!-- 2000 -->
      <g transform="translate(1030.23426 527.238438) scale(0.1 -0.1)">
       <defs>
        <path id="DejaVuSans-32" d="M 1228 531 
L 3431 531 
L 3431 0 
L 469 0 
L 469 531 
Q 828 903 1448 1529 
Q 2069 2156 2228 2338 
Q 2531 2678 2651 2914 
Q 2772 3150 2772 3378 
Q 2772 3750 2511 3984 
Q 2250 4219 1831 4219 
Q 1534 4219 1204 4116 
Q 875 4013 500 3803 
L 500 4441 
Q 881 4594 1212 4672 
Q 1544 4750 1819 4750 
Q 2544 4750 2975 4387 
Q 3406 4025 3406 3419 
Q 3406 3131 3298 2873 
Q 3191 2616 2906 2266 
Q 2828 2175 2409 1742 
Q 1991 1309 1228 531 
z
" transform="scale(0.015625)"/>
       </defs>
       <use xlink:href="#DejaVuSans-32"/>
       <use xlink:href="#DejaVuSans-30" x="63.623047"/>
       <use xlink:href="#DejaVuSans-30" x="127.246094"/>
       <use xlink:href="#DejaVuSans-30" x="190.869141"/>
      </g>
     </g>
    </g>
    <g id="xtick_6">
     <g id="line2d_6">
      <g>
       <use xlink:href="#mda9294217c" x="1246.265433" y="512.64" style="stroke: #000000; stroke-width: 0.8"/>
      </g>
     </g>
     <g id="text_6">
      <!-- 2500 -->
      <g transform="translate(1233.540433 527.238438) scale(0.1 -0.1)">
       <use xlink:href="#DejaVuSans-32"/>
       <use xlink:href="#DejaVuSans-35" x="63.623047"/>
       <use xlink:href="#DejaVuSans-30" x="127.246094"/>
       <use xlink:href="#DejaVuSans-30" x="190.869141"/>
      </g>
     </g>
    </g>
   </g>
   <g id="matplotlib.axis_2">
    <g id="ytick_1">
     <g id="line2d_7">
      <defs>
       <path id="m73ac2d9917" d="M 0 0 
L -3.5 0 
" style="stroke: #000000; stroke-width: 0.8"/>
      </defs>
      <g>
       <use xlink:href="#m73ac2d9917" x="180" y="481.652063" style="stroke: #000000; stroke-width: 0.8"/>
      </g>
     </g>
     <g id="text_7">
      <!-- −2 -->
      <g transform="translate(158.257812 485.451282) scale(0.1 -0.1)">
       <defs>
        <path id="DejaVuSans-2212" d="M 678 2272 
L 4684 2272 
L 4684 1741 
L 678 1741 
L 678 2272 
z
" transform="scale(0.015625)"/>
       </defs>
       <use xlink:href="#DejaVuSans-2212"/>
       <use xlink:href="#DejaVuSans-32" x="83.789062"/>
      </g>
     </g>
    </g>
    <g id="ytick_2">
     <g id="line2d_8">
      <g>
       <use xlink:href="#m73ac2d9917" x="180" y="424.255774" style="stroke: #000000; stroke-width: 0.8"/>
      </g>
     </g>
     <g id="text_8">
      <!-- −1 -->
      <g transform="translate(158.257812 428.054993) scale(0.1 -0.1)">
       <use xlink:href="#DejaVuSans-2212"/>
       <use xlink:href="#DejaVuSans-31" x="83.789062"/>
      </g>
     </g>
    </g>
    <g id="ytick_3">
     <g id="line2d_9">
      <g>
       <use xlink:href="#m73ac2d9917" x="180" y="366.859485" style="stroke: #000000; stroke-width: 0.8"/>
      </g>
     </g>
     <g id="text_9">
      <!-- 0 -->
      <g transform="translate(166.6375 370.658704) scale(0.1 -0.1)">
       <use xlink:href="#DejaVuSans-30"/>
      </g>
     </g>
    </g>
    <g id="ytick_4">
     <g id="line2d_10">
      <g>
       <use xlink:href="#m73ac2d9917" x="180" y="309.463196" style="stroke: #000000; stroke-width: 0.8"/>
      </g>
     </g>
     <g id="text_10">
      <!-- 1 -->
      <g transform="translate(166.6375 313.262415) scale(0.1 -0.1)">
       <use xlink:href="#DejaVuSans-31"/>
      </g>
     </g>
    </g>
    <g id="ytick_5">
     <g id="line2d_11">
      <g>
       <use xlink:href="#m73ac2d9917" x="180" y="252.066908" style="stroke: #000000; stroke-width: 0.8"/>
      </g>
     </g>
     <g id="text_11">
      <!-- 2 -->
      <g transform="translate(166.6375 255.866126) scale(0.1 -0.1)">
       <use xlink:href="#DejaVuSans-32"/>
      </g>
     </g>
    </g>
    <g id="ytick_6">
     <g id="line2d_12">
      <g>
       <use xlink:href="#m73ac2d9917" x="180" y="194.670619" style="stroke: #000000; stroke-width: 0.8"/>
      </g>
     </g>
     <g id="text_12">
      <!-- 3 -->
      <g transform="translate(166.6375 198.469837) scale(0.1 -0.1)">
       <defs>
        <path id="DejaVuSans-33" d="M 2597 2516 
Q 3050 2419 3304 2112 
Q 3559 1806 3559 1356 
Q 3559 666 3084 287 
Q 2609 -91 1734 -91 
Q 1441 -91 1130 -33 
Q 819 25 488 141 
L 488 750 
Q 750 597 1062 519 
Q 1375 441 1716 441 
Q 2309 441 2620 675 
Q 2931 909 2931 1356 
Q 2931 1769 2642 2001 
Q 2353 2234 1838 2234 
L 1294 2234 
L 1294 2753 
L 1863 2753 
Q 2328 2753 2575 2939 
Q 2822 3125 2822 3475 
Q 2822 3834 2567 4026 
Q 2313 4219 1838 4219 
Q 1578 4219 1281 4162 
Q 984 4106 628 3988 
L 628 4550 
Q 988 4650 1302 4700 
Q 1616 4750 1894 4750 
Q 2613 4750 3031 4423 
Q 3450 4097 3450 3541 
Q 3450 3153 3228 2886 
Q 3006 2619 2597 2516 
z
" transform="scale(0.015625)"/>
       </defs>
       <use xlink:href="#DejaVuSans-33"/>
      </g>
     </g>
    </g>
    <g id="ytick_7">
     <g id="line2d_13">
      <g>
       <use xlink:href="#m73ac2d9917" x="180" y="137.27433" style="stroke: #000000; stroke-width: 0.8"/>
      </g>
     </g>
     <g id="text_13">
      <!-- 4 -->
      <g transform="translate(166.6375 141.073548) scale(0.1 -0.1)">
       <defs>
        <path id="DejaVuSans-34" d="M 2419 4116 
L 825 1625 
L 2419 1625 
L 2419 4116 
z
M 2253 4666 
L 3047 4666 
L 3047 1625 
L 3713 1625 
L 3713 1100 
L 3047 1100 
L 3047 0 
L 2419 0 
L 2419 1100 
L 313 1100 
L 313 1709 
L 2253 4666 
z
" transform="scale(0.015625)"/>
       </defs>
       <use xlink:href="#DejaVuSans-34"/>
      </g>
     </g>
    </g>
    <g id="ytick_8">
     <g id="line2d_14">
      <g>
       <use xlink:href="#m73ac2d9917" x="180" y="79.878041" style="stroke: #000000; stroke-width: 0.8"/>
      </g>
     </g>
     <g id="text_14">
      <!-- 5 -->
      <g transform="translate(166.6375 83.67726) scale(0.1 -0.1)">
       <use xlink:href="#DejaVuSans-35"/>
      </g>
     </g>
    </g>
   </g>
   <g id="line2d_15">
    <path d="M 230.727273 375.062186 
L 231.719979 374.906808 
L 232.712685 374.575097 
L 233.70539 374.000789 
L 234.698096 373.194313 
L 235.690802 372.573877 
L 237.676214 370.153784 
L 238.66892 368.906912 
L 239.661626 367.331068 
L 241.647038 363.65312 
L 242.639744 361.410808 
L 243.63245 358.625227 
L 244.625156 354.874468 
L 246.610568 346.062397 
L 247.603273 347.046315 
L 248.595979 362.797462 
L 249.588685 425.198239 
L 250.581391 333.621443 
L 251.574097 281.677648 
L 252.566803 250.679174 
L 253.559509 228.515918 
L 254.552215 214.789389 
L 255.544921 205.468718 
L 256.537627 200.244236 
L 257.530333 199.053039 
L 258.523039 201.070722 
L 259.515745 206.094398 
L 260.50845 212.258018 
L 261.501156 211.840462 
L 262.493862 204.225413 
L 263.486568 199.04539 
L 264.479274 202.654969 
L 265.47198 218.058125 
L 266.464686 238.102058 
L 267.457392 231.741865 
L 268.450098 221.925742 
L 269.442804 230.844941 
L 270.43551 273.905737 
L 271.428216 303.031838 
L 272.420922 249.982445 
L 273.413627 246.682438 
L 274.406333 240.732079 
L 275.399039 201.020634 
L 276.391745 174.924573 
L 277.384451 165.495421 
L 278.377157 173.863408 
L 279.369863 217.59775 
L 280.362569 223.656592 
L 281.355275 151.695555 
L 282.347981 119.953299 
L 283.340687 102.021387 
L 284.333393 92.581895 
L 285.326099 89.28 
L 286.318804 90.534494 
L 287.31151 94.893694 
L 288.304216 100.76611 
L 289.296922 108.475913 
L 290.289628 120.181281 
L 291.282334 139.700991 
L 292.27504 172.260985 
L 293.267746 216.64033 
L 294.260452 215.213212 
L 295.253158 209.628101 
L 296.245864 228.128118 
L 297.23857 285.187433 
L 298.231276 316.928788 
L 299.223981 296.128758 
L 300.216687 383.5171 
L 301.209393 294.175962 
L 302.202099 257.408616 
L 303.194805 257.413856 
L 304.187511 288.328379 
L 305.180217 452.09047 
L 306.172923 313.005055 
L 307.165629 305.404699 
L 308.158335 348.330683 
L 309.151041 357.137672 
L 310.143747 312.998685 
L 311.136453 317.987882 
L 312.129159 357.225519 
L 313.121864 347.480162 
L 314.11457 330.210601 
L 315.107276 344.746405 
L 316.099982 369.912848 
L 317.092688 341.531072 
L 318.085394 333.795177 
L 319.0781 358.277389 
L 320.070806 369.118363 
L 321.063512 345.588698 
L 322.056218 344.292541 
L 323.048924 362.335462 
L 324.04163 362.86812 
L 325.034336 351.0111 
L 326.027041 359.469603 
L 327.019747 369.823386 
L 328.012453 357.229888 
L 329.005159 355.812989 
L 329.997865 370.397688 
L 330.990571 372.845087 
L 331.983277 359.198765 
L 332.975983 364.945404 
L 333.968689 376.36411 
L 334.961395 365.911709 
L 335.954101 357.799932 
L 336.946807 369.200631 
L 337.939513 385.064248 
L 338.932218 366.659173 
L 339.924924 359.313009 
L 341.910336 396.925036 
L 342.903042 372.309104 
L 343.895748 368.016371 
L 344.888454 374.830195 
L 345.88116 378.652299 
L 346.873866 374.458471 
L 347.866572 378.50808 
L 348.859278 394.325161 
L 350.84469 373.434654 
L 352.830101 396.083156 
L 353.822807 378.304108 
L 354.815513 374.994051 
L 355.808219 389.161567 
L 356.800925 397.624094 
L 358.786337 371.969436 
L 359.779043 380.346355 
L 360.771749 396.006597 
L 361.764455 395.099315 
L 362.757161 383.199193 
L 363.749867 397.221013 
L 364.742572 398.56993 
L 365.735278 395.701905 
L 366.727984 391.448959 
L 367.72069 392.671655 
L 368.713396 398.809325 
L 369.706102 394.544556 
L 370.698808 394.511577 
L 371.691514 405.851872 
L 372.68422 410.301208 
L 373.676926 407.963799 
L 374.669632 407.881892 
L 375.662338 397.566765 
L 376.655044 400.421498 
L 377.64775 396.427306 
L 378.640455 397.288366 
L 379.633161 396.614596 
L 380.625867 396.393853 
L 381.618573 401.867158 
L 382.611279 400.518007 
L 383.603985 398.343571 
L 384.596691 396.519644 
L 385.589397 408.226058 
L 386.582103 425.506601 
L 387.574809 447.253481 
L 388.567515 425.17867 
L 389.560221 411.04908 
L 390.552927 410.365352 
L 391.545632 405.20989 
L 392.538338 409.141807 
L 393.531044 425.095122 
L 394.52375 411.859133 
L 395.516456 415.290028 
L 396.509162 408.828393 
L 397.501868 413.404288 
L 398.494574 415.961124 
L 399.48728 409.860355 
L 400.479986 402.031021 
L 401.472692 403.039261 
L 402.465398 404.956919 
L 403.458104 410.755653 
L 404.450809 413.047189 
L 405.443515 413.431409 
L 406.436221 409.675806 
L 407.428927 408.931003 
L 408.421633 415.820709 
L 409.414339 415.09981 
L 410.407045 422.239174 
L 411.399751 428.401256 
L 412.392457 424.448747 
L 413.385163 408.977398 
L 414.377869 398.713076 
L 415.370575 397.615924 
L 416.363281 396.133048 
L 417.355986 401.400281 
L 418.348692 427.454736 
L 419.341398 402.316282 
L 420.334104 405.000491 
L 421.32681 417.660454 
L 422.319516 423.17936 
L 423.312222 415.599612 
L 424.304928 404.759054 
L 425.297634 398.835015 
L 426.29034 403.253238 
L 427.283046 406.174597 
L 428.275752 411.312374 
L 429.268458 422.865613 
L 430.261163 410.876366 
L 431.253869 420.394818 
L 432.246575 422.875261 
L 434.231987 417.866133 
L 435.224693 424.906725 
L 436.217399 438.039543 
L 437.210105 432.277399 
L 438.202811 432.411814 
L 439.195517 416.955865 
L 440.188223 411.148565 
L 441.180929 406.384188 
L 442.173635 409.777598 
L 444.159046 422.047207 
L 446.144458 419.252881 
L 447.137164 419.22022 
L 448.12987 427.973786 
L 449.122576 425.000714 
L 450.115282 414.492503 
L 451.107988 427.879378 
L 452.100694 418.549871 
L 453.0934 424.611099 
L 454.086106 420.497413 
L 455.078812 421.728524 
L 456.071518 417.3301 
L 457.064223 435.33729 
L 458.056929 423.39057 
L 459.049635 427.440162 
L 460.042341 430.333007 
L 461.035047 429.194589 
L 462.027753 439.208258 
L 463.020459 428.147582 
L 464.013165 431.592055 
L 465.005871 429.329141 
L 465.998577 420.743803 
L 466.991283 428.848657 
L 467.983989 426.221224 
L 468.976695 427.997374 
L 469.9694 424.715025 
L 470.962106 431.252174 
L 471.954812 429.393025 
L 472.947518 434.745212 
L 473.940224 430.634532 
L 474.93293 427.514967 
L 475.925636 422.452406 
L 476.918342 424.675301 
L 477.911048 427.956802 
L 478.903754 438.497185 
L 479.89646 438.95675 
L 480.889166 428.491058 
L 481.881872 434.22924 
L 482.874577 432.170266 
L 483.867283 433.593439 
L 484.859989 438.515574 
L 485.852695 433.814281 
L 486.845401 442.359044 
L 487.838107 427.93694 
L 488.830813 437.830206 
L 489.823519 427.256739 
L 490.816225 436.709177 
L 491.808931 436.303564 
L 492.801637 450.907103 
L 493.794343 449.106731 
L 494.787049 443.97343 
L 495.779754 442.413974 
L 496.77246 439.308966 
L 497.765166 438.773828 
L 498.757872 443.128979 
L 499.750578 439.199201 
L 500.743284 428.763454 
L 501.73599 446.464554 
L 502.728696 450.363079 
L 503.721402 449.977888 
L 505.706814 449.690001 
L 506.69952 431.646088 
L 507.692226 441.304965 
L 508.684932 442.565336 
L 509.677637 440.515237 
L 510.670343 443.412682 
L 511.663049 438.522486 
L 512.655755 436.119585 
L 513.648461 445.678284 
L 514.641167 439.10894 
L 515.633873 446.090179 
L 516.626579 454.183177 
L 517.619285 458.569329 
L 518.611991 486.685861 
L 519.604697 446.388358 
L 520.597403 451.090486 
L 521.590109 439.208278 
L 522.582814 430.738131 
L 523.57552 431.801212 
L 524.568226 434.864013 
L 525.560932 441.996597 
L 526.553638 441.139594 
L 527.546344 458.336086 
L 528.53905 448.198625 
L 529.531756 430.324767 
L 530.524462 428.030453 
L 531.517168 432.321097 
L 532.509874 434.727504 
L 533.50258 432.435117 
L 534.495286 432.507475 
L 535.487991 435.924839 
L 536.480697 436.975101 
L 537.473403 444.349431 
L 538.466109 444.721521 
L 539.458815 435.196965 
L 540.451521 457.555702 
L 541.444227 449.170322 
L 542.436933 488.848771 
L 543.429639 448.310973 
L 544.422345 426.191232 
L 545.415051 429.387318 
L 546.407757 419.070081 
L 547.400463 438.721449 
L 548.393168 438.652361 
L 549.385874 447.718299 
L 550.37858 428.683106 
L 551.371286 443.005756 
L 552.363992 445.467486 
L 553.356698 463.195139 
L 554.349404 440.646828 
L 555.34211 430.479523 
L 556.334816 431.977223 
L 557.327522 427.453355 
L 558.320228 437.595079 
L 559.312934 439.377951 
L 561.298345 454.652512 
L 562.291051 446.7721 
L 563.283757 447.648174 
L 564.276463 463.518008 
L 565.269169 457.418954 
L 566.261875 445.436158 
L 567.254581 449.04684 
L 568.247287 455.883057 
L 569.239993 442.805796 
L 570.232699 436.793131 
L 571.225405 440.290898 
L 572.218111 454.740276 
L 573.210817 450.302828 
L 574.203523 455.281248 
L 575.196228 445.084374 
L 576.188934 448.524549 
L 577.18164 456.798228 
L 578.174346 453.143028 
L 579.167052 450.157945 
L 580.159758 437.654872 
L 581.152464 429.731761 
L 582.14517 452.768395 
L 583.137876 458.835124 
L 584.130582 455.875151 
L 585.123288 457.042078 
L 586.115994 457.754735 
L 587.1087 466.517584 
L 588.101405 449.057324 
L 589.094111 462.688022 
L 590.086817 461.447595 
L 591.079523 450.708877 
L 592.072229 450.691234 
L 593.064935 448.90175 
L 594.057641 454.695101 
L 595.050347 450.152933 
L 596.043053 453.250653 
L 597.035759 458.207909 
L 598.028465 460.33656 
L 599.021171 455.225876 
L 600.013877 456.431656 
L 601.006582 454.661329 
L 601.999288 457.406306 
L 602.991994 452.26474 
L 603.9847 456.326672 
L 604.977406 461.974678 
L 605.970112 461.26441 
L 606.962818 456.162682 
L 607.955524 462.322784 
L 608.94823 452.957617 
L 609.940936 459.341499 
L 610.933642 453.826171 
L 611.926348 456.921338 
L 612.919054 452.835167 
L 613.911759 455.019915 
L 614.904465 458.722693 
L 615.897171 461.390471 
L 616.889877 460.712711 
L 617.882583 465.709998 
L 618.875289 452.63199 
L 619.867995 457.382039 
L 620.860701 460.862349 
L 621.853407 457.44528 
L 622.846113 460.42795 
L 623.838819 455.658666 
L 625.824231 463.433578 
L 626.816936 458.465277 
L 627.809642 458.165255 
L 628.802348 459.176837 
L 629.795054 457.245631 
L 630.78776 459.071935 
L 631.780466 456.160042 
L 632.773172 460.575958 
L 633.765878 457.159523 
L 634.758584 458.353926 
L 635.75129 456.178028 
L 636.743996 459.527676 
L 637.736702 460.430861 
L 638.729408 457.432973 
L 639.722114 461.735902 
L 640.714819 465.158906 
L 641.707525 460.235464 
L 642.700231 460.199605 
L 643.692937 456.982113 
L 644.685643 459.201694 
L 645.678349 462.914456 
L 646.671055 462.335705 
L 647.663761 463.799397 
L 648.656467 462.265799 
L 649.649173 458.934504 
L 650.641879 459.331559 
L 651.634585 461.737123 
L 652.627291 461.866113 
L 653.619996 459.875384 
L 654.612702 462.342619 
L 655.605408 461.125919 
L 656.598114 465.109659 
L 658.583526 462.335236 
L 659.576232 464.096194 
L 660.568938 463.181588 
L 661.561644 464.818337 
L 662.55435 463.301408 
L 663.547056 466.102648 
L 664.539762 465.525298 
L 665.532468 462.543871 
L 666.525173 465.563073 
L 667.517879 465.170303 
L 668.510585 465.348989 
L 669.503291 465.0895 
L 670.495997 466.102506 
L 671.488703 466.13167 
L 672.481409 462.018643 
L 673.474115 466.875481 
L 674.466821 465.641919 
L 675.459527 465.267877 
L 676.452233 464.719302 
L 679.43035 466.063706 
L 680.423056 465.498661 
L 681.415762 465.666726 
L 682.408468 463.889714 
L 683.401174 467.516091 
L 684.39388 465.948486 
L 685.386586 465.469624 
L 686.379292 465.95762 
L 687.371998 466.973639 
L 688.364704 467.278295 
L 689.35741 465.649509 
L 690.350116 466.544414 
L 691.342822 467.049237 
L 692.335527 467.314292 
L 693.328233 466.103524 
L 694.320939 467.998883 
L 695.313645 466.820862 
L 696.306351 466.679156 
L 697.299057 467.245279 
L 698.291763 467.295108 
L 699.284469 467.656529 
L 700.277175 467.336228 
L 701.269881 467.645847 
L 702.262587 467.768055 
L 703.255293 468.382348 
L 704.247999 467.601562 
L 705.240705 467.931682 
L 706.23341 468.559663 
L 707.226116 468.030206 
L 708.218822 468.389741 
L 709.211528 468.017954 
L 710.204234 470.232566 
L 711.19694 467.61272 
L 712.189646 469.403209 
L 713.182352 468.670351 
L 714.175058 469.664814 
L 715.167764 469.897951 
L 716.16047 469.46263 
L 717.153176 469.800159 
L 718.145882 469.420433 
L 719.138587 470.102995 
L 720.131293 468.798915 
L 721.123999 470.366383 
L 722.116705 470.426536 
L 723.109411 469.806255 
L 724.102117 470.459184 
L 725.094823 470.335117 
L 726.087529 470.535855 
L 727.080235 469.923854 
L 728.072941 469.985795 
L 729.065647 471.297225 
L 730.058353 470.621926 
L 731.051059 471.088454 
L 732.043764 470.445366 
L 733.03647 471.151011 
L 734.029176 471.384176 
L 735.021882 471.789449 
L 736.014588 471.42949 
L 737.007294 471.610456 
L 738 471.132327 
L 738.992706 471.280431 
L 739.985412 471.032796 
L 740.978118 471.371986 
L 741.970824 472.024943 
L 742.96353 472.098974 
L 743.956236 471.625786 
L 744.948941 471.354629 
L 745.941647 472.329921 
L 746.934353 472.190788 
L 747.927059 472.243888 
L 748.919765 471.90679 
L 749.912471 471.973565 
L 750.905177 472.532552 
L 751.897883 472.800378 
L 752.890589 472.474203 
L 753.883295 473.012362 
L 754.876001 472.793174 
L 755.868707 473.068872 
L 756.861413 472.482389 
L 757.854118 473.460139 
L 758.846824 473.201287 
L 759.83953 473.070894 
L 760.832236 473.494754 
L 761.824942 472.799672 
L 762.817648 473.439841 
L 763.810354 473.70989 
L 764.80306 473.818467 
L 765.795766 473.803624 
L 766.788472 474.292736 
L 767.781178 473.981858 
L 768.773884 474.214419 
L 769.76659 474.63778 
L 770.759295 474.390522 
L 771.752001 474.286047 
L 772.744707 474.44315 
L 773.737413 474.046154 
L 774.730119 474.342634 
L 775.722825 474.971131 
L 776.715531 474.396421 
L 777.708237 475.111685 
L 778.700943 475.349517 
L 779.693649 475.089854 
L 780.686355 475.473844 
L 781.679061 474.864265 
L 782.671767 475.238619 
L 783.664473 474.657792 
L 784.657178 475.463394 
L 785.649884 476.113987 
L 786.64259 475.461923 
L 787.635296 475.574599 
L 788.628002 475.088361 
L 789.620708 475.339098 
L 790.613414 476.413698 
L 791.60612 476.191235 
L 792.598826 475.729374 
L 793.591532 476.258756 
L 794.584238 476.343981 
L 795.576944 475.841221 
L 797.562355 476.575729 
L 798.555061 476.445429 
L 799.547767 476.764474 
L 800.540473 476.850963 
L 801.533179 476.113898 
L 802.525885 476.727222 
L 803.518591 477.472164 
L 804.511297 476.404407 
L 805.504003 477.554445 
L 806.496709 476.166384 
L 807.489415 477.05394 
L 808.482121 476.909442 
L 809.474827 476.642352 
L 810.467532 476.913822 
L 811.460238 477.55463 
L 812.452944 477.152074 
L 813.44565 477.420997 
L 814.438356 478.025553 
L 815.431062 477.351561 
L 816.423768 477.005962 
L 817.416474 478.157855 
L 818.40918 477.999869 
L 819.401886 478.187011 
L 820.394592 477.820218 
L 821.387298 477.813619 
L 822.380004 478.826349 
L 823.372709 478.157471 
L 824.365415 477.974892 
L 825.358121 478.876519 
L 826.350827 478.713543 
L 827.343533 479.052249 
L 828.336239 477.857282 
L 829.328945 478.463718 
L 830.321651 479.227794 
L 831.314357 478.536991 
L 832.307063 479.216693 
L 833.299769 478.772696 
L 834.292475 479.001766 
L 835.285181 478.475828 
L 836.277886 478.734137 
L 837.270592 479.539491 
L 838.263298 479.0319 
L 839.256004 479.827698 
L 840.24871 479.099638 
L 841.241416 479.741946 
L 842.234122 478.996749 
L 843.226828 479.954033 
L 844.219534 479.645814 
L 845.21224 480.04814 
L 846.204946 479.783312 
L 847.197652 479.756222 
L 849.183064 480.306393 
L 850.175769 479.54328 
L 852.161181 480.754137 
L 853.153887 480.261257 
L 854.146593 480.668289 
L 855.139299 480.062967 
L 857.124711 480.422269 
L 858.117417 480.158306 
L 859.110123 480.851892 
L 860.102829 481.093476 
L 861.095535 480.376012 
L 862.088241 480.89697 
L 863.080946 481.670317 
L 864.073652 480.695754 
L 865.066358 480.441544 
L 867.05177 481.691194 
L 868.044476 481.526583 
L 869.037182 480.97783 
L 870.029888 481.244753 
L 871.022594 481.847124 
L 872.0153 481.393438 
L 873.008006 481.18049 
L 874.000712 480.710373 
L 874.993418 481.589054 
L 875.986123 481.748215 
L 877.971535 482.256681 
L 878.964241 481.807031 
L 879.956947 481.185726 
L 880.949653 482.198536 
L 881.942359 482.268013 
L 882.935065 481.547944 
L 883.927771 481.960959 
L 885.913183 481.887072 
L 887.898595 482.552895 
L 888.8913 481.76306 
L 889.884006 482.03608 
L 890.876712 482.837677 
L 892.862124 482.244201 
L 893.85483 482.617233 
L 894.847536 483.388746 
L 895.840242 482.841905 
L 897.825654 483.139163 
L 898.81836 482.70049 
L 899.811066 482.63588 
L 900.803772 483.285844 
L 901.796477 482.73532 
L 902.789183 483.298332 
L 903.781889 483.059322 
L 904.774595 483.348347 
L 905.767301 483.006733 
L 906.760007 483.699718 
L 907.752713 483.36228 
L 908.745419 483.534667 
L 909.738125 484.604992 
L 910.730831 483.690681 
L 912.716243 483.339756 
L 913.708949 483.510204 
L 914.701655 483.408522 
L 915.69436 483.899933 
L 916.687066 483.960115 
L 917.679772 484.541282 
L 918.672478 483.871011 
L 919.665184 483.58 
L 920.65789 484.248189 
L 921.650596 484.303747 
L 922.643302 483.696853 
L 923.636008 483.972156 
L 924.628714 483.775174 
L 925.62142 484.700047 
L 926.614126 484.036674 
L 927.606832 484.591475 
L 928.599537 484.216375 
L 929.592243 484.768356 
L 930.584949 485.537798 
L 931.577655 484.697541 
L 932.570361 485.324542 
L 933.563067 483.987427 
L 934.555773 484.096676 
L 935.548479 485.298142 
L 936.541185 484.395442 
L 937.533891 485.580343 
L 938.526597 485.242071 
L 939.519303 484.703987 
L 940.512009 484.365456 
L 941.504714 485.3949 
L 942.49742 485.027496 
L 943.490126 485.079278 
L 944.482832 484.805122 
L 945.475538 484.685192 
L 946.468244 485.284493 
L 948.453656 485.563262 
L 949.446362 485.1407 
L 950.439068 485.923512 
L 951.431774 485.074915 
L 953.417186 486.293654 
L 954.409891 485.207437 
L 955.402597 484.962655 
L 956.395303 485.490978 
L 957.388009 485.511039 
L 958.380715 485.966859 
L 959.373421 486.115718 
L 960.366127 485.369331 
L 961.358833 485.713373 
L 962.351539 486.425851 
L 963.344245 486.256072 
L 964.336951 486.484897 
L 965.329657 485.659424 
L 966.322363 486.055903 
L 967.315068 485.46311 
L 968.307774 486.02228 
L 969.30048 486.085684 
L 970.293186 485.974672 
L 971.285892 486.727508 
L 972.278598 486.31786 
L 973.271304 487.289082 
L 976.249422 487.339625 
L 977.242128 487.066516 
L 978.234834 486.912756 
L 980.220246 487.227463 
L 981.212951 487.420711 
L 982.205657 486.819773 
L 983.198363 486.718485 
L 984.191069 486.393233 
L 986.176481 486.447036 
L 987.169187 487.210337 
L 988.161893 486.921599 
L 989.154599 486.803948 
L 990.147305 487.539549 
L 991.140011 487.460642 
L 992.132717 486.992586 
L 994.118128 486.837265 
L 995.110834 487.256778 
L 996.10354 488.222723 
L 997.096246 487.62031 
L 998.088952 488.790829 
L 999.081658 487.443364 
L 1000.074364 487.187437 
L 1001.06707 487.728122 
L 1002.059776 487.520596 
L 1003.052482 486.523017 
L 1004.045188 488.433338 
L 1005.037894 487.683191 
L 1006.0306 487.290404 
L 1007.023305 487.647194 
L 1008.016011 487.531312 
L 1010.001423 488.346351 
L 1010.994129 488.081767 
L 1011.986835 488.569827 
L 1013.972247 488.122549 
L 1014.964953 487.548396 
L 1015.957659 487.449128 
L 1016.950365 487.793847 
L 1017.943071 488.279494 
L 1018.935777 487.65803 
L 1019.928482 488.144953 
L 1020.921188 488.337752 
L 1021.913894 488.311412 
L 1022.9066 488.158586 
L 1023.899306 489.246064 
L 1024.892012 487.971535 
L 1025.884718 488.658414 
L 1026.877424 487.911613 
L 1027.87013 488.616161 
L 1028.862836 488.884691 
L 1029.855542 488.849288 
L 1030.848248 489.101386 
L 1031.840954 488.975228 
L 1032.833659 488.231822 
L 1033.826365 488.756849 
L 1034.819071 488.882325 
L 1035.811777 489.233575 
L 1036.804483 489.284859 
L 1037.797189 487.838502 
L 1038.789895 488.332421 
L 1039.782601 488.555293 
L 1041.768013 489.533708 
L 1042.760719 488.71762 
L 1043.753425 488.955091 
L 1044.746131 488.621013 
L 1045.738837 489.130081 
L 1046.731542 488.784086 
L 1047.724248 488.832152 
L 1048.716954 489.469249 
L 1049.70966 489.196961 
L 1050.702366 488.363833 
L 1051.695072 489.099725 
L 1052.687778 489.266562 
L 1053.680484 489.277977 
L 1054.67319 488.825107 
L 1055.665896 489.029575 
L 1056.658602 489.437367 
L 1057.651308 488.980146 
L 1058.644014 489.876018 
L 1059.636719 488.659111 
L 1060.629425 489.251336 
L 1062.614837 489.843096 
L 1063.607543 489.755987 
L 1064.600249 489.360766 
L 1065.592955 489.476757 
L 1066.585661 489.448002 
L 1067.578367 488.529503 
L 1068.571073 490.167165 
L 1069.563779 489.0367 
L 1070.556485 490.298686 
L 1071.549191 489.217665 
L 1072.541896 489.203019 
L 1073.534602 489.449127 
L 1074.527308 489.24741 
L 1075.520014 489.63856 
L 1076.51272 489.204088 
L 1077.505426 489.391613 
L 1078.498132 489.968339 
L 1079.490838 489.452252 
L 1080.483544 489.956988 
L 1081.47625 490.31488 
L 1082.468956 489.672036 
L 1083.461662 489.65131 
L 1084.454368 489.950952 
L 1085.447073 490.506307 
L 1086.439779 490.431871 
L 1087.432485 489.602375 
L 1088.425191 491.413116 
L 1089.417897 489.435356 
L 1090.410603 490.372481 
L 1092.396015 489.929998 
L 1093.388721 490.254499 
L 1094.381427 489.917075 
L 1095.374133 489.703675 
L 1096.366839 490.033064 
L 1099.344956 490.077451 
L 1100.337662 489.902092 
L 1101.330368 490.1501 
L 1102.323074 490.062743 
L 1103.31578 490.199027 
L 1104.308486 490.031221 
L 1105.301192 490.611548 
L 1106.293898 490.468925 
L 1108.27931 490.510326 
L 1109.272016 490.397114 
L 1110.264722 490.128262 
L 1111.257428 490.706462 
L 1112.250133 490.20732 
L 1113.242839 490.768906 
L 1115.228251 489.580093 
L 1116.220957 490.316716 
L 1117.213663 490.865116 
L 1118.206369 490.046837 
L 1119.199075 490.955276 
L 1120.191781 490.79989 
L 1121.184487 490.9718 
L 1122.177193 490.710089 
L 1123.169899 489.856422 
L 1124.162605 490.77677 
L 1125.15531 491.002686 
L 1127.140722 490.92411 
L 1128.133428 490.654877 
L 1129.126134 491.175376 
L 1130.11884 490.829713 
L 1131.111546 490.618729 
L 1132.104252 491.009235 
L 1133.096958 491.123627 
L 1134.089664 490.3218 
L 1135.08237 489.983832 
L 1136.075076 491.260978 
L 1137.067782 491.810564 
L 1138.060487 491.170263 
L 1139.053193 491.375856 
L 1142.031311 491.126751 
L 1143.024017 491.640228 
L 1144.016723 490.651775 
L 1145.009429 491.689046 
L 1146.002135 490.611511 
L 1147.987547 491.312976 
L 1148.980253 490.513165 
L 1149.972959 490.365361 
L 1150.965664 490.653334 
L 1151.95837 491.335404 
L 1152.951076 491.734645 
L 1153.943782 491.163402 
L 1154.936488 491.628188 
L 1155.929194 491.679658 
L 1156.9219 491.550661 
L 1157.914606 490.968848 
L 1158.907312 491.482443 
L 1159.900018 490.655248 
L 1161.88543 491.033629 
L 1162.878136 491.554658 
L 1163.870841 491.424411 
L 1165.856253 491.858132 
L 1166.848959 490.925891 
L 1167.841665 490.629954 
L 1168.834371 490.927446 
L 1170.819783 491.957482 
L 1171.812489 491.481565 
L 1172.805195 491.368183 
L 1174.790607 491.540213 
L 1176.776019 491.195071 
L 1177.768724 491.997156 
L 1178.76143 492.037195 
L 1179.754136 490.8347 
L 1180.746842 491.604341 
L 1181.739548 491.140964 
L 1183.72496 492.09395 
L 1184.717666 491.476326 
L 1185.710372 491.510993 
L 1186.703078 491.418923 
L 1188.68849 491.8785 
L 1189.681196 491.641698 
L 1190.673901 491.553339 
L 1191.666607 492.055635 
L 1192.659313 491.167635 
L 1193.652019 491.789934 
L 1194.644725 491.2995 
L 1195.637431 492.090411 
L 1197.622843 492.101343 
L 1198.615549 491.911085 
L 1199.608255 492.210234 
L 1200.600961 491.494633 
L 1201.593667 491.522823 
L 1202.586373 490.900038 
L 1203.579078 491.883888 
L 1204.571784 491.126869 
L 1205.56449 492.04404 
L 1206.557196 491.535031 
L 1207.549902 492.157002 
L 1208.542608 491.550426 
L 1209.535314 492.28476 
L 1210.52802 492.217569 
L 1211.520726 491.435903 
L 1212.513432 491.392439 
L 1213.506138 490.761633 
L 1214.498844 492.238108 
L 1215.49155 491.628626 
L 1218.469667 492.198977 
L 1219.462373 490.844509 
L 1220.455079 491.731391 
L 1221.447785 490.985087 
L 1222.440491 491.797541 
L 1223.433197 492.362416 
L 1224.425903 491.734547 
L 1225.418609 491.539782 
L 1226.411315 491.827712 
L 1227.404021 491.59179 
L 1228.396727 491.974012 
L 1229.389432 491.525456 
L 1230.382138 492.019186 
L 1231.374844 491.07685 
L 1232.36755 491.4355 
L 1233.360256 491.595963 
L 1234.352962 492.142966 
L 1235.345668 491.696457 
L 1236.338374 492.10555 
L 1237.33108 491.768393 
L 1238.323786 491.983055 
L 1239.316492 491.99984 
L 1240.309198 491.485807 
L 1241.301904 491.469179 
L 1242.29461 492.48 
L 1243.287315 491.591153 
L 1244.280021 491.47904 
L 1245.272727 491.951833 
L 1245.272727 491.951833 
" clip-path="url(#pba92b6f3dc)" style="fill: none; stroke: #1f77b4; stroke-width: 1.5; stroke-linecap: square"/>
   </g>
   <g id="patch_3">
    <path d="M 180 512.64 
L 180 69.12 
" style="fill: none; stroke: #000000; stroke-width: 0.8; stroke-linejoin: miter; stroke-linecap: square"/>
   </g>
   <g id="patch_4">
    <path d="M 1296 512.64 
L 1296 69.12 
" style="fill: none; stroke: #000000; stroke-width: 0.8; stroke-linejoin: miter; stroke-linecap: square"/>
   </g>
   <g id="patch_5">
    <path d="M 180 512.64 
L 1296 512.64 
" style="fill: none; stroke: #000000; stroke-width: 0.8; stroke-linejoin: miter; stroke-linecap: square"/>
   </g>
   <g id="patch_6">
    <path d="M 180 69.12 
L 1296 69.12 
" style="fill: none; stroke: #000000; stroke-width: 0.8; stroke-linejoin: miter; stroke-linecap: square"/>
   </g>
   <g id="text_15">
    <!-- source17-receiver21 -->
    <g transform="translate(532.175 60.80125) scale(0.4 -0.4)">
     <defs>
      <path id="DejaVuSans-73" d="M 2834 3397 
L 2834 2853 
Q 2591 2978 2328 3040 
Q 2066 3103 1784 3103 
Q 1356 3103 1142 2972 
Q 928 2841 928 2578 
Q 928 2378 1081 2264 
Q 1234 2150 1697 2047 
L 1894 2003 
Q 2506 1872 2764 1633 
Q 3022 1394 3022 966 
Q 3022 478 2636 193 
Q 2250 -91 1575 -91 
Q 1294 -91 989 -36 
Q 684 19 347 128 
L 347 722 
Q 666 556 975 473 
Q 1284 391 1588 391 
Q 1994 391 2212 530 
Q 2431 669 2431 922 
Q 2431 1156 2273 1281 
Q 2116 1406 1581 1522 
L 1381 1569 
Q 847 1681 609 1914 
Q 372 2147 372 2553 
Q 372 3047 722 3315 
Q 1072 3584 1716 3584 
Q 2034 3584 2315 3537 
Q 2597 3491 2834 3397 
z
" transform="scale(0.015625)"/>
      <path id="DejaVuSans-6f" d="M 1959 3097 
Q 1497 3097 1228 2736 
Q 959 2375 959 1747 
Q 959 1119 1226 758 
Q 1494 397 1959 397 
Q 2419 397 2687 759 
Q 2956 1122 2956 1747 
Q 2956 2369 2687 2733 
Q 2419 3097 1959 3097 
z
M 1959 3584 
Q 2709 3584 3137 3096 
Q 3566 2609 3566 1747 
Q 3566 888 3137 398 
Q 2709 -91 1959 -91 
Q 1206 -91 779 398 
Q 353 888 353 1747 
Q 353 2609 779 3096 
Q 1206 3584 1959 3584 
z
" transform="scale(0.015625)"/>
      <path id="DejaVuSans-75" d="M 544 1381 
L 544 3500 
L 1119 3500 
L 1119 1403 
Q 1119 906 1312 657 
Q 1506 409 1894 409 
Q 2359 409 2629 706 
Q 2900 1003 2900 1516 
L 2900 3500 
L 3475 3500 
L 3475 0 
L 2900 0 
L 2900 538 
Q 2691 219 2414 64 
Q 2138 -91 1772 -91 
Q 1169 -91 856 284 
Q 544 659 544 1381 
z
M 1991 3584 
L 1991 3584 
z
" transform="scale(0.015625)"/>
      <path id="DejaVuSans-72" d="M 2631 2963 
Q 2534 3019 2420 3045 
Q 2306 3072 2169 3072 
Q 1681 3072 1420 2755 
Q 1159 2438 1159 1844 
L 1159 0 
L 581 0 
L 581 3500 
L 1159 3500 
L 1159 2956 
Q 1341 3275 1631 3429 
Q 1922 3584 2338 3584 
Q 2397 3584 2469 3576 
Q 2541 3569 2628 3553 
L 2631 2963 
z
" transform="scale(0.015625)"/>
      <path id="DejaVuSans-63" d="M 3122 3366 
L 3122 2828 
Q 2878 2963 2633 3030 
Q 2388 3097 2138 3097 
Q 1578 3097 1268 2742 
Q 959 2388 959 1747 
Q 959 1106 1268 751 
Q 1578 397 2138 397 
Q 2388 397 2633 464 
Q 2878 531 3122 666 
L 3122 134 
Q 2881 22 2623 -34 
Q 2366 -91 2075 -91 
Q 1284 -91 818 406 
Q 353 903 353 1747 
Q 353 2603 823 3093 
Q 1294 3584 2113 3584 
Q 2378 3584 2631 3529 
Q 2884 3475 3122 3366 
z
" transform="scale(0.015625)"/>
      <path id="DejaVuSans-65" d="M 3597 1894 
L 3597 1613 
L 953 1613 
Q 991 1019 1311 708 
Q 1631 397 2203 397 
Q 2534 397 2845 478 
Q 3156 559 3463 722 
L 3463 178 
Q 3153 47 2828 -22 
Q 2503 -91 2169 -91 
Q 1331 -91 842 396 
Q 353 884 353 1716 
Q 353 2575 817 3079 
Q 1281 3584 2069 3584 
Q 2775 3584 3186 3129 
Q 3597 2675 3597 1894 
z
M 3022 2063 
Q 3016 2534 2758 2815 
Q 2500 3097 2075 3097 
Q 1594 3097 1305 2825 
Q 1016 2553 972 2059 
L 3022 2063 
z
" transform="scale(0.015625)"/>
      <path id="DejaVuSans-37" d="M 525 4666 
L 3525 4666 
L 3525 4397 
L 1831 0 
L 1172 0 
L 2766 4134 
L 525 4134 
L 525 4666 
z
" transform="scale(0.015625)"/>
      <path id="DejaVuSans-2d" d="M 313 2009 
L 1997 2009 
L 1997 1497 
L 313 1497 
L 313 2009 
z
" transform="scale(0.015625)"/>
      <path id="DejaVuSans-69" d="M 603 3500 
L 1178 3500 
L 1178 0 
L 603 0 
L 603 3500 
z
M 603 4863 
L 1178 4863 
L 1178 4134 
L 603 4134 
L 603 4863 
z
" transform="scale(0.015625)"/>
      <path id="DejaVuSans-76" d="M 191 3500 
L 800 3500 
L 1894 563 
L 2988 3500 
L 3597 3500 
L 2284 0 
L 1503 0 
L 191 3500 
z
" transform="scale(0.015625)"/>
     </defs>
     <use xlink:href="#DejaVuSans-73"/>
     <use xlink:href="#DejaVuSans-6f" x="52.099609"/>
     <use xlink:href="#DejaVuSans-75" x="113.28125"/>
     <use xlink:href="#DejaVuSans-72" x="176.660156"/>
     <use xlink:href="#DejaVuSans-63" x="215.523438"/>
     <use xlink:href="#DejaVuSans-65" x="270.503906"/>
     <use xlink:href="#DejaVuSans-31" x="332.027344"/>
     <use xlink:href="#DejaVuSans-37" x="395.650391"/>
     <use xlink:href="#DejaVuSans-2d" x="459.273438"/>
     <use xlink:href="#DejaVuSans-72" x="495.357422"/>
     <use xlink:href="#DejaVuSans-65" x="534.220703"/>
     <use xlink:href="#DejaVuSans-63" x="595.744141"/>
     <use xlink:href="#DejaVuSans-65" x="650.724609"/>
     <use xlink:href="#DejaVuSans-69" x="712.248047"/>
     <use xlink:href="#DejaVuSans-76" x="740.03125"/>
     <use xlink:href="#DejaVuSans-65" x="799.210938"/>
     <use xlink:href="#DejaVuSans-72" x="860.734375"/>
     <use xlink:href="#DejaVuSans-32" x="901.847656"/>
     <use xlink:href="#DejaVuSans-31" x="965.470703"/>
    </g>
   </g>
  </g>
 </g>
 <defs>
  <clipPath id="pba92b6f3dc">
   <rect x="180" y="69.12" width="1116" height="443.52"/>
  </clipPath>
 </defs>
</svg>
