<?xml version="1.0" encoding="utf-8" standalone="no"?>
<!DOCTYPE svg PUBLIC "-//W3C//DTD SVG 1.1//EN"
  "http://www.w3.org/Graphics/SVG/1.1/DTD/svg11.dtd">
<svg xmlns:xlink="http://www.w3.org/1999/xlink" width="1440pt" height="576pt" viewBox="0 0 1440 576" xmlns="http://www.w3.org/2000/svg" version="1.1">
 <metadata>
  <rdf:RDF xmlns:dc="http://purl.org/dc/elements/1.1/" xmlns:cc="http://creativecommons.org/ns#" xmlns:rdf="http://www.w3.org/1999/02/22-rdf-syntax-ns#">
   <cc:Work>
    <dc:type rdf:resource="http://purl.org/dc/dcmitype/StillImage"/>
    <dc:date>2024-05-22T04:50:12.994046</dc:date>
    <dc:format>image/svg+xml</dc:format>
    <dc:creator>
     <cc:Agent>
      <dc:title>Matplotlib v3.8.3, https://matplotlib.org/</dc:title>
     </cc:Agent>
    </dc:creator>
   </cc:Work>
  </rdf:RDF>
 </metadata>
 <defs>
  <style type="text/css">*{stroke-linejoin: round; stroke-linecap: butt}</style>
 </defs>
 <g id="figure_1">
  <g id="patch_1">
   <path d="M 0 576 
L 1440 576 
L 1440 0 
L 0 0 
z
" style="fill: #ffffff"/>
  </g>
  <g id="axes_1">
   <g id="patch_2">
    <path d="M 180 512.64 
L 1296 512.64 
L 1296 69.12 
L 180 69.12 
z
" style="fill: #ffffff"/>
   </g>
   <g id="matplotlib.axis_1">
    <g id="xtick_1">
     <g id="line2d_1">
      <defs>
       <path id="md5d1e44ccb" d="M 0 0 
L 0 3.5 
" style="stroke: #000000; stroke-width: 0.8"/>
      </defs>
      <g>
       <use xlink:href="#md5d1e44ccb" x="229.734567" y="512.64" style="stroke: #000000; stroke-width: 0.8"/>
      </g>
     </g>
     <g id="text_1">
      <!-- 0 -->
      <g transform="translate(226.553317 527.238438) scale(0.1 -0.1)">
       <defs>
        <path id="DejaVuSans-30" d="M 2034 4250 
Q 1547 4250 1301 3770 
Q 1056 3291 1056 2328 
Q 1056 1369 1301 889 
Q 1547 409 2034 409 
Q 2525 409 2770 889 
Q 3016 1369 3016 2328 
Q 3016 3291 2770 3770 
Q 2525 4250 2034 4250 
z
M 2034 4750 
Q 2819 4750 3233 4129 
Q 3647 3509 3647 2328 
Q 3647 1150 3233 529 
Q 2819 -91 2034 -91 
Q 1250 -91 836 529 
Q 422 1150 422 2328 
Q 422 3509 836 4129 
Q 1250 4750 2034 4750 
z
" transform="scale(0.015625)"/>
       </defs>
       <use xlink:href="#DejaVuSans-30"/>
      </g>
     </g>
    </g>
    <g id="xtick_2">
     <g id="line2d_2">
      <g>
       <use xlink:href="#md5d1e44ccb" x="433.04074" y="512.64" style="stroke: #000000; stroke-width: 0.8"/>
      </g>
     </g>
     <g id="text_2">
      <!-- 500 -->
      <g transform="translate(423.49699 527.238438) scale(0.1 -0.1)">
       <defs>
        <path id="DejaVuSans-35" d="M 691 4666 
L 3169 4666 
L 3169 4134 
L 1269 4134 
L 1269 2991 
Q 1406 3038 1543 3061 
Q 1681 3084 1819 3084 
Q 2600 3084 3056 2656 
Q 3513 2228 3513 1497 
Q 3513 744 3044 326 
Q 2575 -91 1722 -91 
Q 1428 -91 1123 -41 
Q 819 9 494 109 
L 494 744 
Q 775 591 1075 516 
Q 1375 441 1709 441 
Q 2250 441 2565 725 
Q 2881 1009 2881 1497 
Q 2881 1984 2565 2268 
Q 2250 2553 1709 2553 
Q 1456 2553 1204 2497 
Q 953 2441 691 2322 
L 691 4666 
z
" transform="scale(0.015625)"/>
       </defs>
       <use xlink:href="#DejaVuSans-35"/>
       <use xlink:href="#DejaVuSans-30" x="63.623047"/>
       <use xlink:href="#DejaVuSans-30" x="127.246094"/>
      </g>
     </g>
    </g>
    <g id="xtick_3">
     <g id="line2d_3">
      <g>
       <use xlink:href="#md5d1e44ccb" x="636.346913" y="512.64" style="stroke: #000000; stroke-width: 0.8"/>
      </g>
     </g>
     <g id="text_3">
      <!-- 1000 -->
      <g transform="translate(623.621913 527.238438) scale(0.1 -0.1)">
       <defs>
        <path id="DejaVuSans-31" d="M 794 531 
L 1825 531 
L 1825 4091 
L 703 3866 
L 703 4441 
L 1819 4666 
L 2450 4666 
L 2450 531 
L 3481 531 
L 3481 0 
L 794 0 
L 794 531 
z
" transform="scale(0.015625)"/>
       </defs>
       <use xlink:href="#DejaVuSans-31"/>
       <use xlink:href="#DejaVuSans-30" x="63.623047"/>
       <use xlink:href="#DejaVuSans-30" x="127.246094"/>
       <use xlink:href="#DejaVuSans-30" x="190.869141"/>
      </g>
     </g>
    </g>
    <g id="xtick_4">
     <g id="line2d_4">
      <g>
       <use xlink:href="#md5d1e44ccb" x="839.653087" y="512.64" style="stroke: #000000; stroke-width: 0.8"/>
      </g>
     </g>
     <g id="text_4">
      <!-- 1500 -->
      <g transform="translate(826.928087 527.238438) scale(0.1 -0.1)">
       <use xlink:href="#DejaVuSans-31"/>
       <use xlink:href="#DejaVuSans-35" x="63.623047"/>
       <use xlink:href="#DejaVuSans-30" x="127.246094"/>
       <use xlink:href="#DejaVuSans-30" x="190.869141"/>
      </g>
     </g>
    </g>
    <g id="xtick_5">
     <g id="line2d_5">
      <g>
       <use xlink:href="#md5d1e44ccb" x="1042.95926" y="512.64" style="stroke: #000000; stroke-width: 0.8"/>
      </g>
     </g>
     <g id="text_5">
      <!-- 2000 -->
      <g transform="translate(1030.23426 527.238438) scale(0.1 -0.1)">
       <defs>
        <path id="DejaVuSans-32" d="M 1228 531 
L 3431 531 
L 3431 0 
L 469 0 
L 469 531 
Q 828 903 1448 1529 
Q 2069 2156 2228 2338 
Q 2531 2678 2651 2914 
Q 2772 3150 2772 3378 
Q 2772 3750 2511 3984 
Q 2250 4219 1831 4219 
Q 1534 4219 1204 4116 
Q 875 4013 500 3803 
L 500 4441 
Q 881 4594 1212 4672 
Q 1544 4750 1819 4750 
Q 2544 4750 2975 4387 
Q 3406 4025 3406 3419 
Q 3406 3131 3298 2873 
Q 3191 2616 2906 2266 
Q 2828 2175 2409 1742 
Q 1991 1309 1228 531 
z
" transform="scale(0.015625)"/>
       </defs>
       <use xlink:href="#DejaVuSans-32"/>
       <use xlink:href="#DejaVuSans-30" x="63.623047"/>
       <use xlink:href="#DejaVuSans-30" x="127.246094"/>
       <use xlink:href="#DejaVuSans-30" x="190.869141"/>
      </g>
     </g>
    </g>
    <g id="xtick_6">
     <g id="line2d_6">
      <g>
       <use xlink:href="#md5d1e44ccb" x="1246.265433" y="512.64" style="stroke: #000000; stroke-width: 0.8"/>
      </g>
     </g>
     <g id="text_6">
      <!-- 2500 -->
      <g transform="translate(1233.540433 527.238438) scale(0.1 -0.1)">
       <use xlink:href="#DejaVuSans-32"/>
       <use xlink:href="#DejaVuSans-35" x="63.623047"/>
       <use xlink:href="#DejaVuSans-30" x="127.246094"/>
       <use xlink:href="#DejaVuSans-30" x="190.869141"/>
      </g>
     </g>
    </g>
   </g>
   <g id="matplotlib.axis_2">
    <g id="ytick_1">
     <g id="line2d_7">
      <defs>
       <path id="m54a8ed5df4" d="M 0 0 
L -3.5 0 
" style="stroke: #000000; stroke-width: 0.8"/>
      </defs>
      <g>
       <use xlink:href="#m54a8ed5df4" x="180" y="484.748761" style="stroke: #000000; stroke-width: 0.8"/>
      </g>
     </g>
     <g id="text_7">
      <!-- −3 -->
      <g transform="translate(158.257812 488.547979) scale(0.1 -0.1)">
       <defs>
        <path id="DejaVuSans-2212" d="M 678 2272 
L 4684 2272 
L 4684 1741 
L 678 1741 
L 678 2272 
z
" transform="scale(0.015625)"/>
        <path id="DejaVuSans-33" d="M 2597 2516 
Q 3050 2419 3304 2112 
Q 3559 1806 3559 1356 
Q 3559 666 3084 287 
Q 2609 -91 1734 -91 
Q 1441 -91 1130 -33 
Q 819 25 488 141 
L 488 750 
Q 750 597 1062 519 
Q 1375 441 1716 441 
Q 2309 441 2620 675 
Q 2931 909 2931 1356 
Q 2931 1769 2642 2001 
Q 2353 2234 1838 2234 
L 1294 2234 
L 1294 2753 
L 1863 2753 
Q 2328 2753 2575 2939 
Q 2822 3125 2822 3475 
Q 2822 3834 2567 4026 
Q 2313 4219 1838 4219 
Q 1578 4219 1281 4162 
Q 984 4106 628 3988 
L 628 4550 
Q 988 4650 1302 4700 
Q 1616 4750 1894 4750 
Q 2613 4750 3031 4423 
Q 3450 4097 3450 3541 
Q 3450 3153 3228 2886 
Q 3006 2619 2597 2516 
z
" transform="scale(0.015625)"/>
       </defs>
       <use xlink:href="#DejaVuSans-2212"/>
       <use xlink:href="#DejaVuSans-33" x="83.789062"/>
      </g>
     </g>
    </g>
    <g id="ytick_2">
     <g id="line2d_8">
      <g>
       <use xlink:href="#m54a8ed5df4" x="180" y="420.842733" style="stroke: #000000; stroke-width: 0.8"/>
      </g>
     </g>
     <g id="text_8">
      <!-- −2 -->
      <g transform="translate(158.257812 424.641952) scale(0.1 -0.1)">
       <use xlink:href="#DejaVuSans-2212"/>
       <use xlink:href="#DejaVuSans-32" x="83.789062"/>
      </g>
     </g>
    </g>
    <g id="ytick_3">
     <g id="line2d_9">
      <g>
       <use xlink:href="#m54a8ed5df4" x="180" y="356.936706" style="stroke: #000000; stroke-width: 0.8"/>
      </g>
     </g>
     <g id="text_9">
      <!-- −1 -->
      <g transform="translate(158.257812 360.735924) scale(0.1 -0.1)">
       <use xlink:href="#DejaVuSans-2212"/>
       <use xlink:href="#DejaVuSans-31" x="83.789062"/>
      </g>
     </g>
    </g>
    <g id="ytick_4">
     <g id="line2d_10">
      <g>
       <use xlink:href="#m54a8ed5df4" x="180" y="293.030678" style="stroke: #000000; stroke-width: 0.8"/>
      </g>
     </g>
     <g id="text_10">
      <!-- 0 -->
      <g transform="translate(166.6375 296.829897) scale(0.1 -0.1)">
       <use xlink:href="#DejaVuSans-30"/>
      </g>
     </g>
    </g>
    <g id="ytick_5">
     <g id="line2d_11">
      <g>
       <use xlink:href="#m54a8ed5df4" x="180" y="229.124651" style="stroke: #000000; stroke-width: 0.8"/>
      </g>
     </g>
     <g id="text_11">
      <!-- 1 -->
      <g transform="translate(166.6375 232.923869) scale(0.1 -0.1)">
       <use xlink:href="#DejaVuSans-31"/>
      </g>
     </g>
    </g>
    <g id="ytick_6">
     <g id="line2d_12">
      <g>
       <use xlink:href="#m54a8ed5df4" x="180" y="165.218623" style="stroke: #000000; stroke-width: 0.8"/>
      </g>
     </g>
     <g id="text_12">
      <!-- 2 -->
      <g transform="translate(166.6375 169.017842) scale(0.1 -0.1)">
       <use xlink:href="#DejaVuSans-32"/>
      </g>
     </g>
    </g>
    <g id="ytick_7">
     <g id="line2d_13">
      <g>
       <use xlink:href="#m54a8ed5df4" x="180" y="101.312596" style="stroke: #000000; stroke-width: 0.8"/>
      </g>
     </g>
     <g id="text_13">
      <!-- 3 -->
      <g transform="translate(166.6375 105.111814) scale(0.1 -0.1)">
       <use xlink:href="#DejaVuSans-33"/>
      </g>
     </g>
    </g>
   </g>
   <g id="line2d_14">
    <path d="M 230.727273 269.072235 
L 231.719979 268.78956 
L 232.712685 268.308082 
L 233.70539 267.700626 
L 234.698096 266.950331 
L 235.690802 265.894103 
L 236.683508 264.624621 
L 238.66892 261.308568 
L 239.661626 259.248602 
L 240.654332 256.86276 
L 241.647038 254.057449 
L 242.639744 250.902091 
L 243.63245 247.189208 
L 244.625156 242.816641 
L 245.617862 236.844338 
L 246.610568 227.90803 
L 247.603273 213.990423 
L 250.581391 159.354734 
L 251.574097 146.201146 
L 252.566803 138.340313 
L 253.559509 137.698475 
L 254.552215 145.385157 
L 256.537627 178.137319 
L 257.530333 157.892559 
L 258.523039 131.936539 
L 259.515745 115.867985 
L 260.50845 110.388546 
L 261.501156 114.345911 
L 262.493862 128.93452 
L 263.486568 157.093935 
L 264.479274 202.449657 
L 265.47198 209.546976 
L 266.464686 186.544267 
L 267.457392 177.833998 
L 268.450098 181.137455 
L 269.442804 194.032747 
L 270.43551 215.681274 
L 271.428216 250.508364 
L 272.420922 247.515477 
L 273.413627 217.964306 
L 274.406333 208.638643 
L 275.399039 226.664032 
L 276.391745 280.308251 
L 277.384451 192.544588 
L 278.377157 148.727872 
L 279.369863 124.929199 
L 280.362569 112.012204 
L 281.355275 108.032002 
L 282.347981 111.8375 
L 284.333393 129.90578 
L 285.326099 123.117161 
L 286.318804 106.469242 
L 287.31151 94.228854 
L 288.304216 89.28 
L 289.296922 94.148281 
L 290.289628 108.693334 
L 291.282334 136.51417 
L 293.267746 240.111759 
L 294.260452 203.832485 
L 295.253158 200.489887 
L 296.245864 232.205608 
L 297.23857 329.410881 
L 298.231276 241.16906 
L 299.223981 215.499806 
L 300.216687 218.085074 
L 301.209393 241.992986 
L 302.202099 308.34713 
L 303.194805 310.341733 
L 304.187511 270.884644 
L 305.180217 270.195438 
L 306.172923 283.336769 
L 307.165629 305.760657 
L 308.158335 308.777711 
L 309.151041 302.893117 
L 310.143747 302.52702 
L 311.136453 306.424715 
L 312.129159 311.513103 
L 313.121864 312.744737 
L 314.11457 311.263089 
L 315.107276 320.540265 
L 316.099982 319.213771 
L 317.092688 320.697047 
L 318.085394 314.906139 
L 320.070806 328.906775 
L 321.063512 327.439227 
L 322.056218 328.977475 
L 323.048924 328.159992 
L 325.034336 335.571995 
L 326.027041 334.030592 
L 327.019747 338.202259 
L 328.012453 333.877092 
L 329.005159 334.161388 
L 330.990571 346.935552 
L 331.983277 341.55753 
L 332.975983 340.848136 
L 333.968689 330.89244 
L 334.961395 334.958214 
L 335.954101 343.453009 
L 336.946807 349.210011 
L 337.939513 348.317167 
L 338.932218 355.912531 
L 339.924924 347.668853 
L 340.91763 347.071715 
L 341.910336 350.831071 
L 342.903042 347.424633 
L 343.895748 359.984945 
L 344.888454 346.231496 
L 345.88116 349.416182 
L 346.873866 358.678367 
L 347.866572 364.369781 
L 348.859278 363.499923 
L 349.851984 359.870223 
L 350.84469 361.038805 
L 351.837395 361.0878 
L 352.830101 355.622185 
L 353.822807 361.972239 
L 354.815513 359.484605 
L 355.808219 368.058519 
L 356.800925 355.303205 
L 357.793631 369.724768 
L 358.786337 357.601599 
L 359.779043 358.033255 
L 360.771749 371.956323 
L 361.764455 377.168557 
L 362.757161 383.984787 
L 363.749867 387.627203 
L 364.742572 375.675958 
L 365.735278 370.934349 
L 366.727984 380.190974 
L 367.72069 364.944815 
L 368.713396 369.114505 
L 369.706102 375.166998 
L 370.698808 384.678521 
L 371.691514 391.388291 
L 372.68422 379.140723 
L 373.676926 381.066353 
L 374.669632 381.424894 
L 375.662338 379.344472 
L 376.655044 375.281842 
L 377.64775 375.675767 
L 378.640455 376.668029 
L 379.633161 371.873172 
L 380.625867 366.407742 
L 381.618573 385.201516 
L 382.611279 365.801138 
L 383.603985 367.638491 
L 384.596691 391.546198 
L 385.589397 431.085178 
L 386.582103 450.252324 
L 387.574809 409.44135 
L 388.567515 386.121531 
L 389.560221 378.721145 
L 390.552927 377.816243 
L 391.545632 370.086012 
L 392.538338 373.094471 
L 393.531044 403.270345 
L 394.52375 380.849923 
L 395.516456 393.035765 
L 396.509162 398.853762 
L 397.501868 381.414038 
L 398.494574 390.941645 
L 399.48728 370.621283 
L 400.479986 369.138346 
L 401.472692 374.346124 
L 402.465398 383.270979 
L 403.458104 380.239121 
L 404.450809 379.607433 
L 405.443515 374.266116 
L 406.436221 379.667561 
L 407.428927 377.805084 
L 408.421633 383.137997 
L 409.414339 392.009002 
L 410.407045 423.278707 
L 411.399751 402.173618 
L 412.392457 376.744052 
L 413.385163 365.730817 
L 414.377869 361.290036 
L 415.370575 368.655687 
L 416.363281 371.498576 
L 417.355986 371.463545 
L 418.348692 388.242705 
L 419.341398 381.62535 
L 420.334104 378.925206 
L 421.32681 394.208775 
L 422.319516 406.344518 
L 423.312222 399.995815 
L 424.304928 371.282752 
L 425.297634 364.727233 
L 426.29034 365.04403 
L 427.283046 379.511926 
L 428.275752 384.166294 
L 430.261163 399.702031 
L 431.253869 409.42087 
L 432.246575 381.456146 
L 433.239281 393.245734 
L 434.231987 399.224834 
L 435.224693 410.114028 
L 436.217399 442.808525 
L 437.210105 420.148763 
L 438.202811 394.218453 
L 439.195517 381.650837 
L 440.188223 373.557685 
L 441.180929 374.065559 
L 442.173635 380.779927 
L 443.166341 412.244988 
L 444.159046 385.068996 
L 445.151752 389.436743 
L 446.144458 389.203309 
L 447.137164 405.085119 
L 448.12987 424.851028 
L 449.122576 409.459354 
L 450.115282 392.088613 
L 451.107988 392.314399 
L 452.100694 397.269171 
L 453.0934 388.030482 
L 454.086106 404.560476 
L 455.078812 405.828916 
L 456.071518 401.136264 
L 457.064223 415.123872 
L 458.056929 407.203112 
L 459.049635 402.931942 
L 460.042341 410.332388 
L 461.035047 398.534575 
L 462.027753 413.698612 
L 463.020459 397.351207 
L 464.013165 410.365509 
L 465.005871 392.168255 
L 465.998577 407.863381 
L 466.991283 395.374252 
L 467.983989 411.540532 
L 468.976695 417.816467 
L 469.9694 394.157062 
L 470.962106 440.122664 
L 471.954812 414.331499 
L 472.947518 396.403179 
L 473.940224 395.933132 
L 474.93293 430.084733 
L 475.925636 427.949738 
L 476.918342 409.675475 
L 477.911048 412.722664 
L 478.903754 422.800956 
L 479.89646 423.795884 
L 480.889166 415.840897 
L 481.881872 418.016318 
L 482.874577 418.665159 
L 483.867283 427.936222 
L 484.859989 413.870008 
L 485.852695 414.146046 
L 486.845401 429.210037 
L 487.838107 408.38444 
L 488.830813 415.409846 
L 489.823519 408.566083 
L 490.816225 429.004903 
L 491.808931 424.902375 
L 492.801637 434.626871 
L 493.794343 418.17407 
L 494.787049 416.869175 
L 495.779754 426.032859 
L 496.77246 410.032162 
L 497.765166 417.776066 
L 498.757872 428.321428 
L 499.750578 420.12253 
L 500.743284 422.995176 
L 501.73599 446.359343 
L 502.728696 456.739788 
L 503.721402 444.850578 
L 504.714108 435.879603 
L 505.706814 400.208248 
L 506.69952 422.185349 
L 507.692226 411.324299 
L 508.684932 427.748613 
L 509.677637 404.591042 
L 510.670343 411.871396 
L 511.663049 422.605513 
L 512.655755 414.988916 
L 513.648461 416.771354 
L 514.641167 437.381524 
L 515.633873 443.648193 
L 516.626579 458.498266 
L 517.619285 443.574318 
L 518.611991 455.833299 
L 519.604697 415.749247 
L 520.597403 422.145124 
L 521.590109 427.662281 
L 522.582814 400.055029 
L 523.57552 411.418826 
L 524.568226 401.959658 
L 525.560932 430.446138 
L 526.553638 418.196465 
L 527.546344 469.171923 
L 528.53905 461.574003 
L 529.531756 385.338216 
L 530.524462 375.017759 
L 531.517168 395.773681 
L 532.509874 406.357496 
L 533.50258 426.667018 
L 534.495286 422.866541 
L 535.487991 414.071577 
L 536.480697 408.29648 
L 537.473403 429.437191 
L 538.466109 422.964152 
L 539.458815 408.392479 
L 540.451521 492.48 
L 541.444227 451.37168 
L 542.436933 452.454561 
L 543.429639 409.527837 
L 544.422345 392.774862 
L 545.415051 396.280382 
L 546.407757 388.97935 
L 547.400463 428.27004 
L 548.393168 424.221504 
L 549.385874 434.720585 
L 550.37858 407.990525 
L 551.371286 437.115291 
L 552.363992 449.223212 
L 553.356698 418.673654 
L 554.349404 398.593249 
L 555.34211 399.10024 
L 556.334816 390.329074 
L 557.327522 403.56011 
L 558.320228 413.671443 
L 559.312934 428.23239 
L 560.30564 416.025771 
L 561.298345 455.111886 
L 562.291051 452.15239 
L 563.283757 423.421599 
L 564.276463 455.153239 
L 565.269169 431.706323 
L 566.261875 441.622339 
L 567.254581 437.13821 
L 568.247287 457.197631 
L 569.239993 405.643441 
L 570.232699 414.620814 
L 571.225405 433.060363 
L 572.218111 460.269022 
L 574.203523 443.832951 
L 575.196228 424.300747 
L 576.188934 436.058601 
L 577.18164 434.385094 
L 578.174346 447.658298 
L 579.167052 413.418653 
L 580.159758 405.324404 
L 581.152464 427.891317 
L 582.14517 463.182251 
L 583.137876 459.964275 
L 584.130582 460.655785 
L 585.123288 438.053862 
L 586.115994 443.07727 
L 587.1087 465.491471 
L 588.101405 432.391246 
L 589.094111 451.026146 
L 590.086817 427.877355 
L 591.079523 429.327243 
L 592.072229 452.069071 
L 593.064935 437.269934 
L 594.057641 434.534779 
L 595.050347 426.192547 
L 596.043053 442.935705 
L 597.035759 440.45139 
L 599.021171 467.002904 
L 600.013877 442.391373 
L 601.006582 441.220178 
L 601.999288 430.42651 
L 602.991994 441.106762 
L 603.9847 443.795844 
L 604.977406 460.698096 
L 605.970112 438.459216 
L 606.962818 461.621728 
L 607.955524 444.350448 
L 608.94823 439.267464 
L 609.940936 453.642914 
L 610.933642 443.319341 
L 611.926348 437.144178 
L 612.919054 446.199793 
L 613.911759 438.918228 
L 614.904465 424.256024 
L 615.897171 443.223049 
L 616.889877 448.205955 
L 617.882583 450.636394 
L 619.867995 441.567356 
L 620.860701 446.436006 
L 621.853407 439.796456 
L 622.846113 445.589997 
L 623.838819 436.159161 
L 624.831525 444.83863 
L 625.824231 441.834982 
L 626.816936 447.584131 
L 627.809642 441.428015 
L 628.802348 441.541373 
L 629.795054 444.844648 
L 630.78776 438.086637 
L 631.780466 447.434275 
L 632.773172 446.759106 
L 633.765878 440.603552 
L 634.758584 440.140903 
L 635.75129 444.207129 
L 636.743996 433.90619 
L 637.736702 443.24175 
L 638.729408 440.785729 
L 639.722114 450.174643 
L 640.714819 456.723685 
L 641.707525 448.740988 
L 642.700231 451.766086 
L 643.692937 448.648917 
L 644.685643 449.664898 
L 645.678349 446.848787 
L 646.671055 446.054743 
L 647.663761 443.554367 
L 648.656467 439.99283 
L 649.649173 446.147821 
L 650.641879 446.837606 
L 652.627291 450.85618 
L 653.619996 450.598642 
L 654.612702 454.065408 
L 655.605408 447.212778 
L 656.598114 449.342836 
L 657.59082 446.692211 
L 658.583526 447.730172 
L 659.576232 453.350572 
L 660.568938 450.595213 
L 661.561644 452.939789 
L 662.55435 445.382309 
L 663.547056 450.662289 
L 664.539762 451.019749 
L 665.532468 447.936312 
L 666.525173 451.383474 
L 667.517879 450.675597 
L 668.510585 452.063618 
L 669.503291 452.429339 
L 670.495997 448.773866 
L 671.488703 454.081103 
L 672.481409 450.120195 
L 673.474115 452.720877 
L 674.466821 453.189296 
L 675.459527 452.366641 
L 676.452233 450.140221 
L 677.444939 449.496431 
L 678.437645 452.60179 
L 679.43035 451.281989 
L 680.423056 451.264551 
L 681.415762 449.436803 
L 682.408468 454.460738 
L 683.401174 456.284914 
L 684.39388 453.772771 
L 685.386586 448.922664 
L 686.379292 452.404568 
L 687.371998 453.345533 
L 688.364704 453.066134 
L 689.35741 452.131165 
L 690.350116 451.597824 
L 691.342822 452.410369 
L 692.335527 454.319515 
L 693.328233 454.851416 
L 694.320939 453.763423 
L 695.313645 453.265186 
L 696.306351 450.870503 
L 697.299057 457.151917 
L 698.291763 456.095236 
L 699.284469 454.840762 
L 700.277175 453.911056 
L 701.269881 454.94967 
L 702.262587 452.781682 
L 703.255293 455.455238 
L 704.247999 455.065384 
L 705.240705 456.683257 
L 707.226116 453.973551 
L 708.218822 457.380463 
L 709.211528 454.31032 
L 710.204234 455.508198 
L 711.19694 454.705414 
L 712.189646 456.525407 
L 713.182352 455.255516 
L 714.175058 456.328347 
L 715.167764 456.653047 
L 716.16047 454.913742 
L 717.153176 457.602758 
L 718.145882 457.442423 
L 719.138587 458.464607 
L 720.131293 457.834391 
L 721.123999 458.375861 
L 722.116705 456.04149 
L 723.109411 456.952546 
L 724.102117 459.480098 
L 725.094823 456.955878 
L 726.087529 456.541799 
L 727.080235 457.183743 
L 728.072941 456.269158 
L 729.065647 457.040814 
L 730.058353 456.998955 
L 731.051059 459.524437 
L 732.043764 456.947466 
L 733.03647 457.364136 
L 734.029176 455.729109 
L 735.021882 458.021744 
L 736.014588 457.406853 
L 737.007294 456.151945 
L 738 459.327013 
L 738.992706 459.251934 
L 739.985412 458.142091 
L 740.978118 459.929822 
L 741.970824 460.626967 
L 742.96353 458.286314 
L 743.956236 460.090518 
L 744.948941 459.225568 
L 745.941647 461.468808 
L 747.927059 459.876092 
L 748.919765 459.224693 
L 749.912471 460.475581 
L 750.905177 459.046968 
L 751.897883 462.104533 
L 752.890589 460.003844 
L 753.883295 461.049264 
L 754.876001 461.719385 
L 755.868707 460.391904 
L 756.861413 461.202564 
L 757.854118 459.31751 
L 758.846824 460.812775 
L 759.83953 461.143506 
L 760.832236 462.60007 
L 761.824942 461.281684 
L 762.817648 461.022733 
L 763.810354 462.10964 
L 764.80306 461.411161 
L 765.795766 460.461375 
L 766.788472 460.600444 
L 767.781178 461.932075 
L 768.773884 462.448021 
L 769.76659 462.259601 
L 770.759295 461.787621 
L 771.752001 463.611628 
L 772.744707 462.42179 
L 773.737413 462.624817 
L 774.730119 461.814317 
L 775.722825 462.434644 
L 776.715531 463.892017 
L 777.708237 462.213683 
L 778.700943 461.977853 
L 779.693649 463.264354 
L 780.686355 462.859071 
L 781.679061 464.415814 
L 782.671767 463.692276 
L 783.664473 463.562009 
L 785.649884 464.77406 
L 786.64259 462.446839 
L 787.635296 462.925869 
L 788.628002 464.086623 
L 789.620708 462.196055 
L 790.613414 463.911783 
L 791.60612 463.950435 
L 792.598826 462.962167 
L 793.591532 463.114386 
L 794.584238 464.330678 
L 795.576944 466.152005 
L 796.56965 465.170037 
L 797.562355 464.933483 
L 798.555061 464.321431 
L 799.547767 465.275581 
L 800.540473 464.434667 
L 801.533179 464.658186 
L 802.525885 465.195792 
L 803.518591 464.642739 
L 804.511297 465.636282 
L 805.504003 465.822708 
L 806.496709 465.66313 
L 807.489415 464.790034 
L 809.474827 466.028192 
L 810.467532 465.973777 
L 811.460238 466.638343 
L 812.452944 466.189833 
L 813.44565 464.229888 
L 814.438356 465.28838 
L 815.431062 466.079773 
L 816.423768 466.139832 
L 817.416474 465.682307 
L 818.40918 468.667546 
L 819.401886 465.232286 
L 820.394592 466.468328 
L 821.387298 466.55599 
L 822.380004 466.999245 
L 823.372709 466.505987 
L 825.358121 467.41367 
L 826.350827 467.139667 
L 827.343533 466.146206 
L 828.336239 466.351389 
L 829.328945 466.819205 
L 830.321651 466.143569 
L 831.314357 468.558597 
L 832.307063 467.726559 
L 833.299769 469.303301 
L 834.292475 469.267507 
L 835.285181 466.607938 
L 837.270592 467.501387 
L 838.263298 467.470122 
L 839.256004 468.65266 
L 840.24871 469.008025 
L 841.241416 467.594346 
L 842.234122 468.691052 
L 843.226828 467.909725 
L 844.219534 468.102958 
L 845.21224 469.649177 
L 846.204946 468.329629 
L 847.197652 468.726266 
L 848.190358 467.387436 
L 849.183064 469.584028 
L 850.175769 468.595361 
L 851.168475 470.512088 
L 852.161181 469.475645 
L 853.153887 469.797128 
L 854.146593 469.960035 
L 855.139299 470.281498 
L 856.132005 468.037412 
L 857.124711 469.375711 
L 858.117417 468.723665 
L 859.110123 467.729131 
L 860.102829 469.021435 
L 861.095535 469.747337 
L 862.088241 469.789707 
L 863.080946 467.653574 
L 864.073652 468.573757 
L 865.066358 469.99022 
L 866.059064 469.534413 
L 867.05177 471.461574 
L 868.044476 472.109492 
L 869.037182 469.605839 
L 870.029888 468.948661 
L 871.022594 470.26442 
L 872.0153 468.438201 
L 873.008006 470.116745 
L 874.000712 470.300362 
L 874.993418 469.638843 
L 875.986123 472.752692 
L 876.978829 470.816438 
L 878.964241 471.031564 
L 879.956947 470.917809 
L 880.949653 472.105804 
L 881.942359 470.286479 
L 882.935065 471.322807 
L 883.927771 471.592629 
L 884.920477 471.687769 
L 885.913183 471.671014 
L 886.905889 471.286802 
L 887.898595 471.09311 
L 888.8913 468.709542 
L 889.884006 470.851199 
L 891.869418 472.742719 
L 892.862124 471.903244 
L 893.85483 470.910352 
L 894.847536 470.074636 
L 895.840242 470.770067 
L 896.832948 470.742726 
L 897.825654 472.114938 
L 898.81836 472.210581 
L 899.811066 472.60696 
L 900.803772 472.359001 
L 901.796477 471.453328 
L 902.789183 473.517171 
L 903.781889 473.26238 
L 904.774595 471.952175 
L 905.767301 472.774101 
L 906.760007 472.674642 
L 907.752713 472.7614 
L 909.738125 473.645442 
L 910.730831 471.648223 
L 911.723537 472.032557 
L 912.716243 471.421759 
L 913.708949 472.073836 
L 914.701655 470.963796 
L 915.69436 473.333048 
L 916.687066 473.844777 
L 917.679772 473.364498 
L 918.672478 471.201689 
L 919.665184 472.262205 
L 920.65789 472.341494 
L 921.650596 471.9989 
L 922.643302 472.502608 
L 923.636008 472.378278 
L 924.628714 474.034789 
L 925.62142 475.353827 
L 926.614126 473.444384 
L 927.606832 470.58663 
L 928.599537 472.870192 
L 929.592243 473.995385 
L 930.584949 472.677416 
L 931.577655 473.16238 
L 933.563067 473.278979 
L 934.555773 473.802193 
L 935.548479 475.169693 
L 936.541185 473.129061 
L 937.533891 474.758313 
L 938.526597 474.836737 
L 939.519303 473.366296 
L 940.512009 473.284518 
L 941.504714 474.977325 
L 942.49742 476.42011 
L 943.490126 474.359399 
L 944.482832 472.882014 
L 945.475538 473.504448 
L 946.468244 474.340796 
L 947.46095 474.373873 
L 948.453656 476.378503 
L 949.446362 475.093549 
L 950.439068 473.389491 
L 951.431774 475.013155 
L 952.42448 475.063807 
L 953.417186 474.266292 
L 954.409891 475.140913 
L 955.402597 475.476014 
L 956.395303 473.903166 
L 957.388009 475.015747 
L 958.380715 474.49491 
L 959.373421 476.066527 
L 960.366127 475.522714 
L 961.358833 475.208606 
L 962.351539 475.254501 
L 963.344245 474.8748 
L 964.336951 475.478635 
L 965.329657 474.695336 
L 966.322363 474.572268 
L 967.315068 475.621309 
L 968.307774 476.308109 
L 969.30048 476.147933 
L 970.293186 475.489213 
L 971.285892 475.46356 
L 972.278598 475.84353 
L 973.271304 476.924941 
L 974.26401 475.766177 
L 975.256716 475.064137 
L 976.249422 477.633795 
L 977.242128 474.342497 
L 978.234834 478.697447 
L 979.22754 476.943602 
L 980.220246 476.024276 
L 981.212951 475.846724 
L 982.205657 475.020832 
L 983.198363 476.697464 
L 984.191069 475.738258 
L 985.183775 475.117164 
L 986.176481 476.391982 
L 987.169187 475.505897 
L 988.161893 474.772168 
L 989.154599 475.409532 
L 990.147305 474.000254 
L 991.140011 476.216642 
L 992.132717 478.091203 
L 993.125423 478.286889 
L 994.118128 475.641428 
L 995.110834 476.503661 
L 997.096246 477.014085 
L 998.088952 477.443099 
L 999.081658 475.666208 
L 1000.074364 477.524058 
L 1001.06707 477.83392 
L 1002.059776 477.703514 
L 1003.052482 476.075613 
L 1004.045188 476.813685 
L 1005.037894 477.883188 
L 1006.0306 477.901804 
L 1007.023305 476.514547 
L 1008.016011 476.968359 
L 1009.008717 476.536741 
L 1010.001423 476.933422 
L 1010.994129 477.57321 
L 1011.986835 477.523531 
L 1012.979541 478.069629 
L 1013.972247 477.031329 
L 1014.964953 476.564479 
L 1015.957659 477.741838 
L 1016.950365 477.080899 
L 1017.943071 474.377669 
L 1018.935777 478.069113 
L 1019.928482 476.950467 
L 1020.921188 478.297299 
L 1021.913894 478.529125 
L 1022.9066 479.309024 
L 1023.899306 477.83798 
L 1024.892012 477.279407 
L 1025.884718 476.365388 
L 1026.877424 478.402613 
L 1027.87013 478.304699 
L 1028.862836 478.323097 
L 1029.855542 477.54452 
L 1030.848248 479.16568 
L 1031.840954 478.233855 
L 1032.833659 477.920638 
L 1033.826365 478.622947 
L 1034.819071 476.029515 
L 1035.811777 478.213943 
L 1036.804483 478.831859 
L 1037.797189 477.474067 
L 1038.789895 477.208131 
L 1039.782601 477.249157 
L 1040.775307 479.509205 
L 1041.768013 478.882208 
L 1042.760719 478.067044 
L 1043.753425 479.639307 
L 1044.746131 478.20429 
L 1045.738837 476.990441 
L 1046.731542 477.38069 
L 1047.724248 478.158815 
L 1048.716954 478.225235 
L 1050.702366 478.880431 
L 1051.695072 477.900375 
L 1052.687778 477.851295 
L 1053.680484 480.040304 
L 1054.67319 478.63313 
L 1055.665896 480.2864 
L 1056.658602 480.450554 
L 1057.651308 478.11583 
L 1058.644014 478.093634 
L 1059.636719 478.693643 
L 1060.629425 480.151158 
L 1061.622131 478.616198 
L 1062.614837 479.067291 
L 1063.607543 479.256893 
L 1064.600249 479.882044 
L 1065.592955 480.122135 
L 1066.585661 479.396118 
L 1067.578367 479.837651 
L 1068.571073 479.589474 
L 1069.563779 478.392276 
L 1070.556485 477.574579 
L 1072.541896 479.495526 
L 1073.534602 479.337856 
L 1074.527308 478.594919 
L 1075.520014 478.503899 
L 1076.51272 479.489065 
L 1077.505426 479.129228 
L 1078.498132 480.499799 
L 1079.490838 480.014025 
L 1080.483544 480.272294 
L 1081.47625 479.3973 
L 1082.468956 479.162141 
L 1083.461662 479.873802 
L 1084.454368 478.801508 
L 1085.447073 480.442658 
L 1086.439779 479.536732 
L 1087.432485 480.202056 
L 1088.425191 480.348342 
L 1089.417897 479.85066 
L 1090.410603 480.042932 
L 1091.403309 481.624328 
L 1092.396015 479.2446 
L 1093.388721 480.963809 
L 1094.381427 479.937397 
L 1095.374133 479.721185 
L 1096.366839 479.075559 
L 1097.359545 479.787483 
L 1098.35225 477.969616 
L 1099.344956 480.321957 
L 1100.337662 480.061581 
L 1101.330368 479.645151 
L 1102.323074 479.568099 
L 1103.31578 480.039055 
L 1104.308486 480.694404 
L 1105.301192 478.95802 
L 1106.293898 481.562047 
L 1107.286604 478.796836 
L 1108.27931 480.528407 
L 1109.272016 479.290813 
L 1110.264722 482.058822 
L 1111.257428 479.525023 
L 1112.250133 481.880258 
L 1113.242839 481.278682 
L 1114.235545 481.579118 
L 1115.228251 480.373521 
L 1116.220957 481.234558 
L 1117.213663 481.444086 
L 1118.206369 480.955941 
L 1121.184487 481.235714 
L 1122.177193 480.409697 
L 1123.169899 482.182587 
L 1124.162605 481.045099 
L 1125.15531 480.249043 
L 1126.148016 481.643626 
L 1127.140722 482.058443 
L 1128.133428 480.717227 
L 1129.126134 481.156228 
L 1130.11884 478.826176 
L 1131.111546 480.439037 
L 1132.104252 481.500614 
L 1133.096958 480.754655 
L 1135.08237 480.387997 
L 1136.075076 481.146116 
L 1137.067782 480.196846 
L 1138.060487 481.963183 
L 1139.053193 479.339028 
L 1140.045899 480.856969 
L 1141.038605 482.876483 
L 1142.031311 482.616949 
L 1143.024017 480.675666 
L 1144.016723 480.399608 
L 1145.009429 479.061798 
L 1146.002135 479.651702 
L 1146.994841 482.341 
L 1147.987547 480.899237 
L 1148.980253 482.673272 
L 1149.972959 481.234606 
L 1150.965664 482.393284 
L 1151.95837 480.181707 
L 1152.951076 480.690565 
L 1153.943782 480.722073 
L 1154.936488 480.179909 
L 1155.929194 480.055787 
L 1156.9219 482.985105 
L 1157.914606 481.862536 
L 1158.907312 481.228563 
L 1159.900018 481.139247 
L 1160.892724 479.859349 
L 1162.878136 480.37703 
L 1163.870841 480.977789 
L 1164.863547 480.748715 
L 1165.856253 480.853341 
L 1166.848959 481.753794 
L 1167.841665 481.491896 
L 1168.834371 479.794072 
L 1169.827077 479.188798 
L 1170.819783 480.415859 
L 1171.812489 480.905368 
L 1172.805195 480.136626 
L 1173.797901 480.393637 
L 1174.790607 479.636218 
L 1175.783313 480.363687 
L 1176.776019 479.921292 
L 1177.768724 481.272716 
L 1178.76143 480.723462 
L 1179.754136 481.528424 
L 1180.746842 481.141959 
L 1181.739548 480.88879 
L 1182.732254 482.492246 
L 1183.72496 481.625659 
L 1184.717666 483.278224 
L 1185.710372 480.636371 
L 1186.703078 482.346262 
L 1187.695784 480.54169 
L 1188.68849 481.187994 
L 1189.681196 482.614086 
L 1190.673901 482.50847 
L 1191.666607 482.783147 
L 1192.659313 482.463001 
L 1193.652019 482.673702 
L 1194.644725 480.855254 
L 1195.637431 483.192763 
L 1196.630137 481.99295 
L 1197.622843 480.336915 
L 1198.615549 480.46945 
L 1199.608255 484.196448 
L 1200.600961 479.563886 
L 1202.586373 482.222853 
L 1203.579078 480.813313 
L 1204.571784 482.777411 
L 1205.56449 481.559222 
L 1206.557196 481.969408 
L 1207.549902 481.84845 
L 1208.542608 480.824526 
L 1209.535314 480.427211 
L 1210.52802 482.707794 
L 1211.520726 481.871818 
L 1212.513432 481.636194 
L 1213.506138 480.350754 
L 1214.498844 479.516579 
L 1215.49155 481.519118 
L 1216.484255 480.913178 
L 1217.476961 482.961274 
L 1218.469667 480.35524 
L 1219.462373 482.55503 
L 1220.455079 482.888894 
L 1221.447785 481.694698 
L 1222.440491 481.703206 
L 1223.433197 482.422567 
L 1224.425903 481.295397 
L 1225.418609 482.155687 
L 1226.411315 481.970099 
L 1228.396727 482.982663 
L 1229.389432 483.077191 
L 1230.382138 482.107722 
L 1231.374844 481.923466 
L 1232.36755 482.330175 
L 1233.360256 482.471744 
L 1234.352962 481.766264 
L 1235.345668 482.206784 
L 1236.338374 483.941312 
L 1237.33108 483.572439 
L 1238.323786 481.164225 
L 1239.316492 482.927355 
L 1240.309198 482.679192 
L 1241.301904 480.259164 
L 1243.287315 483.025681 
L 1244.280021 481.655747 
L 1245.272727 481.56874 
L 1245.272727 481.56874 
" clip-path="url(#pfde9dbd091)" style="fill: none; stroke: #1f77b4; stroke-width: 1.5; stroke-linecap: square"/>
   </g>
   <g id="patch_3">
    <path d="M 180 512.64 
L 180 69.12 
" style="fill: none; stroke: #000000; stroke-width: 0.8; stroke-linejoin: miter; stroke-linecap: square"/>
   </g>
   <g id="patch_4">
    <path d="M 1296 512.64 
L 1296 69.12 
" style="fill: none; stroke: #000000; stroke-width: 0.8; stroke-linejoin: miter; stroke-linecap: square"/>
   </g>
   <g id="patch_5">
    <path d="M 180 512.64 
L 1296 512.64 
" style="fill: none; stroke: #000000; stroke-width: 0.8; stroke-linejoin: miter; stroke-linecap: square"/>
   </g>
   <g id="patch_6">
    <path d="M 180 69.12 
L 1296 69.12 
" style="fill: none; stroke: #000000; stroke-width: 0.8; stroke-linejoin: miter; stroke-linecap: square"/>
   </g>
   <g id="text_14">
    <!-- source17-receiver23 -->
    <g transform="translate(532.175 60.80125) scale(0.4 -0.4)">
     <defs>
      <path id="DejaVuSans-73" d="M 2834 3397 
L 2834 2853 
Q 2591 2978 2328 3040 
Q 2066 3103 1784 3103 
Q 1356 3103 1142 2972 
Q 928 2841 928 2578 
Q 928 2378 1081 2264 
Q 1234 2150 1697 2047 
L 1894 2003 
Q 2506 1872 2764 1633 
Q 3022 1394 3022 966 
Q 3022 478 2636 193 
Q 2250 -91 1575 -91 
Q 1294 -91 989 -36 
Q 684 19 347 128 
L 347 722 
Q 666 556 975 473 
Q 1284 391 1588 391 
Q 1994 391 2212 530 
Q 2431 669 2431 922 
Q 2431 1156 2273 1281 
Q 2116 1406 1581 1522 
L 1381 1569 
Q 847 1681 609 1914 
Q 372 2147 372 2553 
Q 372 3047 722 3315 
Q 1072 3584 1716 3584 
Q 2034 3584 2315 3537 
Q 2597 3491 2834 3397 
z
" transform="scale(0.015625)"/>
      <path id="DejaVuSans-6f" d="M 1959 3097 
Q 1497 3097 1228 2736 
Q 959 2375 959 1747 
Q 959 1119 1226 758 
Q 1494 397 1959 397 
Q 2419 397 2687 759 
Q 2956 1122 2956 1747 
Q 2956 2369 2687 2733 
Q 2419 3097 1959 3097 
z
M 1959 3584 
Q 2709 3584 3137 3096 
Q 3566 2609 3566 1747 
Q 3566 888 3137 398 
Q 2709 -91 1959 -91 
Q 1206 -91 779 398 
Q 353 888 353 1747 
Q 353 2609 779 3096 
Q 1206 3584 1959 3584 
z
" transform="scale(0.015625)"/>
      <path id="DejaVuSans-75" d="M 544 1381 
L 544 3500 
L 1119 3500 
L 1119 1403 
Q 1119 906 1312 657 
Q 1506 409 1894 409 
Q 2359 409 2629 706 
Q 2900 1003 2900 1516 
L 2900 3500 
L 3475 3500 
L 3475 0 
L 2900 0 
L 2900 538 
Q 2691 219 2414 64 
Q 2138 -91 1772 -91 
Q 1169 -91 856 284 
Q 544 659 544 1381 
z
M 1991 3584 
L 1991 3584 
z
" transform="scale(0.015625)"/>
      <path id="DejaVuSans-72" d="M 2631 2963 
Q 2534 3019 2420 3045 
Q 2306 3072 2169 3072 
Q 1681 3072 1420 2755 
Q 1159 2438 1159 1844 
L 1159 0 
L 581 0 
L 581 3500 
L 1159 3500 
L 1159 2956 
Q 1341 3275 1631 3429 
Q 1922 3584 2338 3584 
Q 2397 3584 2469 3576 
Q 2541 3569 2628 3553 
L 2631 2963 
z
" transform="scale(0.015625)"/>
      <path id="DejaVuSans-63" d="M 3122 3366 
L 3122 2828 
Q 2878 2963 2633 3030 
Q 2388 3097 2138 3097 
Q 1578 3097 1268 2742 
Q 959 2388 959 1747 
Q 959 1106 1268 751 
Q 1578 397 2138 397 
Q 2388 397 2633 464 
Q 2878 531 3122 666 
L 3122 134 
Q 2881 22 2623 -34 
Q 2366 -91 2075 -91 
Q 1284 -91 818 406 
Q 353 903 353 1747 
Q 353 2603 823 3093 
Q 1294 3584 2113 3584 
Q 2378 3584 2631 3529 
Q 2884 3475 3122 3366 
z
" transform="scale(0.015625)"/>
      <path id="DejaVuSans-65" d="M 3597 1894 
L 3597 1613 
L 953 1613 
Q 991 1019 1311 708 
Q 1631 397 2203 397 
Q 2534 397 2845 478 
Q 3156 559 3463 722 
L 3463 178 
Q 3153 47 2828 -22 
Q 2503 -91 2169 -91 
Q 1331 -91 842 396 
Q 353 884 353 1716 
Q 353 2575 817 3079 
Q 1281 3584 2069 3584 
Q 2775 3584 3186 3129 
Q 3597 2675 3597 1894 
z
M 3022 2063 
Q 3016 2534 2758 2815 
Q 2500 3097 2075 3097 
Q 1594 3097 1305 2825 
Q 1016 2553 972 2059 
L 3022 2063 
z
" transform="scale(0.015625)"/>
      <path id="DejaVuSans-37" d="M 525 4666 
L 3525 4666 
L 3525 4397 
L 1831 0 
L 1172 0 
L 2766 4134 
L 525 4134 
L 525 4666 
z
" transform="scale(0.015625)"/>
      <path id="DejaVuSans-2d" d="M 313 2009 
L 1997 2009 
L 1997 1497 
L 313 1497 
L 313 2009 
z
" transform="scale(0.015625)"/>
      <path id="DejaVuSans-69" d="M 603 3500 
L 1178 3500 
L 1178 0 
L 603 0 
L 603 3500 
z
M 603 4863 
L 1178 4863 
L 1178 4134 
L 603 4134 
L 603 4863 
z
" transform="scale(0.015625)"/>
      <path id="DejaVuSans-76" d="M 191 3500 
L 800 3500 
L 1894 563 
L 2988 3500 
L 3597 3500 
L 2284 0 
L 1503 0 
L 191 3500 
z
" transform="scale(0.015625)"/>
     </defs>
     <use xlink:href="#DejaVuSans-73"/>
     <use xlink:href="#DejaVuSans-6f" x="52.099609"/>
     <use xlink:href="#DejaVuSans-75" x="113.28125"/>
     <use xlink:href="#DejaVuSans-72" x="176.660156"/>
     <use xlink:href="#DejaVuSans-63" x="215.523438"/>
     <use xlink:href="#DejaVuSans-65" x="270.503906"/>
     <use xlink:href="#DejaVuSans-31" x="332.027344"/>
     <use xlink:href="#DejaVuSans-37" x="395.650391"/>
     <use xlink:href="#DejaVuSans-2d" x="459.273438"/>
     <use xlink:href="#DejaVuSans-72" x="495.357422"/>
     <use xlink:href="#DejaVuSans-65" x="534.220703"/>
     <use xlink:href="#DejaVuSans-63" x="595.744141"/>
     <use xlink:href="#DejaVuSans-65" x="650.724609"/>
     <use xlink:href="#DejaVuSans-69" x="712.248047"/>
     <use xlink:href="#DejaVuSans-76" x="740.03125"/>
     <use xlink:href="#DejaVuSans-65" x="799.210938"/>
     <use xlink:href="#DejaVuSans-72" x="860.734375"/>
     <use xlink:href="#DejaVuSans-32" x="901.847656"/>
     <use xlink:href="#DejaVuSans-33" x="965.470703"/>
    </g>
   </g>
  </g>
 </g>
 <defs>
  <clipPath id="pfde9dbd091">
   <rect x="180" y="69.12" width="1116" height="443.52"/>
  </clipPath>
 </defs>
</svg>
