<?xml version="1.0" encoding="utf-8" standalone="no"?>
<!DOCTYPE svg PUBLIC "-//W3C//DTD SVG 1.1//EN"
  "http://www.w3.org/Graphics/SVG/1.1/DTD/svg11.dtd">
<svg xmlns:xlink="http://www.w3.org/1999/xlink" width="1440pt" height="576pt" viewBox="0 0 1440 576" xmlns="http://www.w3.org/2000/svg" version="1.1">
 <metadata>
  <rdf:RDF xmlns:dc="http://purl.org/dc/elements/1.1/" xmlns:cc="http://creativecommons.org/ns#" xmlns:rdf="http://www.w3.org/1999/02/22-rdf-syntax-ns#">
   <cc:Work>
    <dc:type rdf:resource="http://purl.org/dc/dcmitype/StillImage"/>
    <dc:date>2024-05-22T04:50:11.355038</dc:date>
    <dc:format>image/svg+xml</dc:format>
    <dc:creator>
     <cc:Agent>
      <dc:title>Matplotlib v3.8.3, https://matplotlib.org/</dc:title>
     </cc:Agent>
    </dc:creator>
   </cc:Work>
  </rdf:RDF>
 </metadata>
 <defs>
  <style type="text/css">*{stroke-linejoin: round; stroke-linecap: butt}</style>
 </defs>
 <g id="figure_1">
  <g id="patch_1">
   <path d="M 0 576 
L 1440 576 
L 1440 0 
L 0 0 
z
" style="fill: #ffffff"/>
  </g>
  <g id="axes_1">
   <g id="patch_2">
    <path d="M 180 512.64 
L 1296 512.64 
L 1296 69.12 
L 180 69.12 
z
" style="fill: #ffffff"/>
   </g>
   <g id="matplotlib.axis_1">
    <g id="xtick_1">
     <g id="line2d_1">
      <defs>
       <path id="mcd7e4f149d" d="M 0 0 
L 0 3.5 
" style="stroke: #000000; stroke-width: 0.8"/>
      </defs>
      <g>
       <use xlink:href="#mcd7e4f149d" x="229.734567" y="512.64" style="stroke: #000000; stroke-width: 0.8"/>
      </g>
     </g>
     <g id="text_1">
      <!-- 0 -->
      <g transform="translate(226.553317 527.238438) scale(0.1 -0.1)">
       <defs>
        <path id="DejaVuSans-30" d="M 2034 4250 
Q 1547 4250 1301 3770 
Q 1056 3291 1056 2328 
Q 1056 1369 1301 889 
Q 1547 409 2034 409 
Q 2525 409 2770 889 
Q 3016 1369 3016 2328 
Q 3016 3291 2770 3770 
Q 2525 4250 2034 4250 
z
M 2034 4750 
Q 2819 4750 3233 4129 
Q 3647 3509 3647 2328 
Q 3647 1150 3233 529 
Q 2819 -91 2034 -91 
Q 1250 -91 836 529 
Q 422 1150 422 2328 
Q 422 3509 836 4129 
Q 1250 4750 2034 4750 
z
" transform="scale(0.015625)"/>
       </defs>
       <use xlink:href="#DejaVuSans-30"/>
      </g>
     </g>
    </g>
    <g id="xtick_2">
     <g id="line2d_2">
      <g>
       <use xlink:href="#mcd7e4f149d" x="433.04074" y="512.64" style="stroke: #000000; stroke-width: 0.8"/>
      </g>
     </g>
     <g id="text_2">
      <!-- 500 -->
      <g transform="translate(423.49699 527.238438) scale(0.1 -0.1)">
       <defs>
        <path id="DejaVuSans-35" d="M 691 4666 
L 3169 4666 
L 3169 4134 
L 1269 4134 
L 1269 2991 
Q 1406 3038 1543 3061 
Q 1681 3084 1819 3084 
Q 2600 3084 3056 2656 
Q 3513 2228 3513 1497 
Q 3513 744 3044 326 
Q 2575 -91 1722 -91 
Q 1428 -91 1123 -41 
Q 819 9 494 109 
L 494 744 
Q 775 591 1075 516 
Q 1375 441 1709 441 
Q 2250 441 2565 725 
Q 2881 1009 2881 1497 
Q 2881 1984 2565 2268 
Q 2250 2553 1709 2553 
Q 1456 2553 1204 2497 
Q 953 2441 691 2322 
L 691 4666 
z
" transform="scale(0.015625)"/>
       </defs>
       <use xlink:href="#DejaVuSans-35"/>
       <use xlink:href="#DejaVuSans-30" x="63.623047"/>
       <use xlink:href="#DejaVuSans-30" x="127.246094"/>
      </g>
     </g>
    </g>
    <g id="xtick_3">
     <g id="line2d_3">
      <g>
       <use xlink:href="#mcd7e4f149d" x="636.346913" y="512.64" style="stroke: #000000; stroke-width: 0.8"/>
      </g>
     </g>
     <g id="text_3">
      <!-- 1000 -->
      <g transform="translate(623.621913 527.238438) scale(0.1 -0.1)">
       <defs>
        <path id="DejaVuSans-31" d="M 794 531 
L 1825 531 
L 1825 4091 
L 703 3866 
L 703 4441 
L 1819 4666 
L 2450 4666 
L 2450 531 
L 3481 531 
L 3481 0 
L 794 0 
L 794 531 
z
" transform="scale(0.015625)"/>
       </defs>
       <use xlink:href="#DejaVuSans-31"/>
       <use xlink:href="#DejaVuSans-30" x="63.623047"/>
       <use xlink:href="#DejaVuSans-30" x="127.246094"/>
       <use xlink:href="#DejaVuSans-30" x="190.869141"/>
      </g>
     </g>
    </g>
    <g id="xtick_4">
     <g id="line2d_4">
      <g>
       <use xlink:href="#mcd7e4f149d" x="839.653087" y="512.64" style="stroke: #000000; stroke-width: 0.8"/>
      </g>
     </g>
     <g id="text_4">
      <!-- 1500 -->
      <g transform="translate(826.928087 527.238438) scale(0.1 -0.1)">
       <use xlink:href="#DejaVuSans-31"/>
       <use xlink:href="#DejaVuSans-35" x="63.623047"/>
       <use xlink:href="#DejaVuSans-30" x="127.246094"/>
       <use xlink:href="#DejaVuSans-30" x="190.869141"/>
      </g>
     </g>
    </g>
    <g id="xtick_5">
     <g id="line2d_5">
      <g>
       <use xlink:href="#mcd7e4f149d" x="1042.95926" y="512.64" style="stroke: #000000; stroke-width: 0.8"/>
      </g>
     </g>
     <g id="text_5">
      <!-- 2000 -->
      <g transform="translate(1030.23426 527.238438) scale(0.1 -0.1)">
       <defs>
        <path id="DejaVuSans-32" d="M 1228 531 
L 3431 531 
L 3431 0 
L 469 0 
L 469 531 
Q 828 903 1448 1529 
Q 2069 2156 2228 2338 
Q 2531 2678 2651 2914 
Q 2772 3150 2772 3378 
Q 2772 3750 2511 3984 
Q 2250 4219 1831 4219 
Q 1534 4219 1204 4116 
Q 875 4013 500 3803 
L 500 4441 
Q 881 4594 1212 4672 
Q 1544 4750 1819 4750 
Q 2544 4750 2975 4387 
Q 3406 4025 3406 3419 
Q 3406 3131 3298 2873 
Q 3191 2616 2906 2266 
Q 2828 2175 2409 1742 
Q 1991 1309 1228 531 
z
" transform="scale(0.015625)"/>
       </defs>
       <use xlink:href="#DejaVuSans-32"/>
       <use xlink:href="#DejaVuSans-30" x="63.623047"/>
       <use xlink:href="#DejaVuSans-30" x="127.246094"/>
       <use xlink:href="#DejaVuSans-30" x="190.869141"/>
      </g>
     </g>
    </g>
    <g id="xtick_6">
     <g id="line2d_6">
      <g>
       <use xlink:href="#mcd7e4f149d" x="1246.265433" y="512.64" style="stroke: #000000; stroke-width: 0.8"/>
      </g>
     </g>
     <g id="text_6">
      <!-- 2500 -->
      <g transform="translate(1233.540433 527.238438) scale(0.1 -0.1)">
       <use xlink:href="#DejaVuSans-32"/>
       <use xlink:href="#DejaVuSans-35" x="63.623047"/>
       <use xlink:href="#DejaVuSans-30" x="127.246094"/>
       <use xlink:href="#DejaVuSans-30" x="190.869141"/>
      </g>
     </g>
    </g>
   </g>
   <g id="matplotlib.axis_2">
    <g id="ytick_1">
     <g id="line2d_7">
      <defs>
       <path id="mf634e89f9c" d="M 0 0 
L -3.5 0 
" style="stroke: #000000; stroke-width: 0.8"/>
      </defs>
      <g>
       <use xlink:href="#mf634e89f9c" x="180" y="484.818785" style="stroke: #000000; stroke-width: 0.8"/>
      </g>
     </g>
     <g id="text_7">
      <!-- −8 -->
      <g transform="translate(158.257812 488.618004) scale(0.1 -0.1)">
       <defs>
        <path id="DejaVuSans-2212" d="M 678 2272 
L 4684 2272 
L 4684 1741 
L 678 1741 
L 678 2272 
z
" transform="scale(0.015625)"/>
        <path id="DejaVuSans-38" d="M 2034 2216 
Q 1584 2216 1326 1975 
Q 1069 1734 1069 1313 
Q 1069 891 1326 650 
Q 1584 409 2034 409 
Q 2484 409 2743 651 
Q 3003 894 3003 1313 
Q 3003 1734 2745 1975 
Q 2488 2216 2034 2216 
z
M 1403 2484 
Q 997 2584 770 2862 
Q 544 3141 544 3541 
Q 544 4100 942 4425 
Q 1341 4750 2034 4750 
Q 2731 4750 3128 4425 
Q 3525 4100 3525 3541 
Q 3525 3141 3298 2862 
Q 3072 2584 2669 2484 
Q 3125 2378 3379 2068 
Q 3634 1759 3634 1313 
Q 3634 634 3220 271 
Q 2806 -91 2034 -91 
Q 1263 -91 848 271 
Q 434 634 434 1313 
Q 434 1759 690 2068 
Q 947 2378 1403 2484 
z
M 1172 3481 
Q 1172 3119 1398 2916 
Q 1625 2713 2034 2713 
Q 2441 2713 2670 2916 
Q 2900 3119 2900 3481 
Q 2900 3844 2670 4047 
Q 2441 4250 2034 4250 
Q 1625 4250 1398 4047 
Q 1172 3844 1172 3481 
z
" transform="scale(0.015625)"/>
       </defs>
       <use xlink:href="#DejaVuSans-2212"/>
       <use xlink:href="#DejaVuSans-38" x="83.789062"/>
      </g>
     </g>
    </g>
    <g id="ytick_2">
     <g id="line2d_8">
      <g>
       <use xlink:href="#mf634e89f9c" x="180" y="412.620781" style="stroke: #000000; stroke-width: 0.8"/>
      </g>
     </g>
     <g id="text_8">
      <!-- −6 -->
      <g transform="translate(158.257812 416.42) scale(0.1 -0.1)">
       <defs>
        <path id="DejaVuSans-36" d="M 2113 2584 
Q 1688 2584 1439 2293 
Q 1191 2003 1191 1497 
Q 1191 994 1439 701 
Q 1688 409 2113 409 
Q 2538 409 2786 701 
Q 3034 994 3034 1497 
Q 3034 2003 2786 2293 
Q 2538 2584 2113 2584 
z
M 3366 4563 
L 3366 3988 
Q 3128 4100 2886 4159 
Q 2644 4219 2406 4219 
Q 1781 4219 1451 3797 
Q 1122 3375 1075 2522 
Q 1259 2794 1537 2939 
Q 1816 3084 2150 3084 
Q 2853 3084 3261 2657 
Q 3669 2231 3669 1497 
Q 3669 778 3244 343 
Q 2819 -91 2113 -91 
Q 1303 -91 875 529 
Q 447 1150 447 2328 
Q 447 3434 972 4092 
Q 1497 4750 2381 4750 
Q 2619 4750 2861 4703 
Q 3103 4656 3366 4563 
z
" transform="scale(0.015625)"/>
       </defs>
       <use xlink:href="#DejaVuSans-2212"/>
       <use xlink:href="#DejaVuSans-36" x="83.789062"/>
      </g>
     </g>
    </g>
    <g id="ytick_3">
     <g id="line2d_9">
      <g>
       <use xlink:href="#mf634e89f9c" x="180" y="340.422777" style="stroke: #000000; stroke-width: 0.8"/>
      </g>
     </g>
     <g id="text_9">
      <!-- −4 -->
      <g transform="translate(158.257812 344.221996) scale(0.1 -0.1)">
       <defs>
        <path id="DejaVuSans-34" d="M 2419 4116 
L 825 1625 
L 2419 1625 
L 2419 4116 
z
M 2253 4666 
L 3047 4666 
L 3047 1625 
L 3713 1625 
L 3713 1100 
L 3047 1100 
L 3047 0 
L 2419 0 
L 2419 1100 
L 313 1100 
L 313 1709 
L 2253 4666 
z
" transform="scale(0.015625)"/>
       </defs>
       <use xlink:href="#DejaVuSans-2212"/>
       <use xlink:href="#DejaVuSans-34" x="83.789062"/>
      </g>
     </g>
    </g>
    <g id="ytick_4">
     <g id="line2d_10">
      <g>
       <use xlink:href="#mf634e89f9c" x="180" y="268.224773" style="stroke: #000000; stroke-width: 0.8"/>
      </g>
     </g>
     <g id="text_10">
      <!-- −2 -->
      <g transform="translate(158.257812 272.023992) scale(0.1 -0.1)">
       <use xlink:href="#DejaVuSans-2212"/>
       <use xlink:href="#DejaVuSans-32" x="83.789062"/>
      </g>
     </g>
    </g>
    <g id="ytick_5">
     <g id="line2d_11">
      <g>
       <use xlink:href="#mf634e89f9c" x="180" y="196.026769" style="stroke: #000000; stroke-width: 0.8"/>
      </g>
     </g>
     <g id="text_11">
      <!-- 0 -->
      <g transform="translate(166.6375 199.825988) scale(0.1 -0.1)">
       <use xlink:href="#DejaVuSans-30"/>
      </g>
     </g>
    </g>
    <g id="ytick_6">
     <g id="line2d_12">
      <g>
       <use xlink:href="#mf634e89f9c" x="180" y="123.828765" style="stroke: #000000; stroke-width: 0.8"/>
      </g>
     </g>
     <g id="text_12">
      <!-- 2 -->
      <g transform="translate(166.6375 127.627984) scale(0.1 -0.1)">
       <use xlink:href="#DejaVuSans-32"/>
      </g>
     </g>
    </g>
   </g>
   <g id="line2d_13">
    <path d="M 230.727273 238.772798 
L 232.712685 239.087925 
L 234.698096 238.767002 
L 235.690802 238.406539 
L 236.683508 238.445205 
L 237.676214 238.058109 
L 238.66892 238.130313 
L 239.661626 237.933062 
L 241.647038 237.169629 
L 243.63245 236.642757 
L 245.617862 234.408231 
L 246.610568 234.966063 
L 247.603273 238.388423 
L 248.595979 234.273501 
L 249.588685 214.348328 
L 250.581391 203.789412 
L 251.574097 202.930646 
L 252.566803 197.450803 
L 254.552215 187.991552 
L 255.544921 187.035733 
L 256.537627 190.184063 
L 257.530333 185.354258 
L 258.523039 191.520335 
L 259.515745 228.693403 
L 260.50845 186.941362 
L 261.501156 170.314561 
L 262.493862 181.663373 
L 263.486568 204.198013 
L 264.479274 179.924899 
L 265.47198 178.409506 
L 266.464686 231.784444 
L 267.457392 183.209115 
L 268.450098 176.659387 
L 269.442804 215.951474 
L 270.43551 159.633301 
L 271.428216 144.682874 
L 272.420922 151.764109 
L 273.413627 139.454326 
L 274.406333 117.14928 
L 275.399039 109.614259 
L 276.391745 112.673643 
L 277.384451 112.142202 
L 278.377157 102.453707 
L 279.369863 97.926218 
L 281.355275 107.096097 
L 282.347981 97.263488 
L 283.340687 89.28 
L 284.333393 91.707361 
L 285.326099 107.523797 
L 286.318804 117.348499 
L 287.31151 100.310366 
L 288.304216 95.992997 
L 289.296922 105.032801 
L 290.289628 120.841249 
L 291.282334 117.865447 
L 292.27504 116.65593 
L 293.267746 127.111649 
L 294.260452 131.99155 
L 295.253158 125.738202 
L 296.245864 126.792281 
L 298.231276 136.167599 
L 299.223981 144.278504 
L 300.216687 157.45945 
L 301.209393 161.976352 
L 302.202099 161.977649 
L 303.194805 172.670016 
L 304.187511 194.934855 
L 305.180217 210.491102 
L 306.172923 219.521113 
L 307.165629 224.384125 
L 308.158335 238.357285 
L 309.151041 227.149765 
L 310.143747 210.728207 
L 311.136453 221.429267 
L 312.129159 282.411097 
L 313.121864 242.620828 
L 314.11457 242.611917 
L 315.107276 263.311511 
L 316.099982 246.835268 
L 317.092688 256.694106 
L 318.085394 271.075567 
L 319.0781 248.889311 
L 320.070806 254.175567 
L 321.063512 285.397794 
L 322.056218 260.285209 
L 324.04163 265.257593 
L 325.034336 267.579424 
L 326.027041 257.298145 
L 327.019747 263.789124 
L 328.012453 279.198611 
L 329.005159 289.673695 
L 329.997865 265.015741 
L 330.990571 269.559318 
L 331.983277 346.523228 
L 332.975983 263.588323 
L 333.968689 258.148749 
L 334.961395 295.023609 
L 335.954101 287.287764 
L 336.946807 281.42169 
L 337.939513 284.943395 
L 338.932218 316.230255 
L 339.924924 276.997881 
L 340.91763 261.731107 
L 341.910336 277.799929 
L 342.903042 318.182712 
L 343.895748 257.418809 
L 344.888454 258.893425 
L 345.88116 308.898241 
L 346.873866 283.303876 
L 347.866572 276.230304 
L 348.859278 368.158427 
L 349.851984 292.799369 
L 350.84469 263.50406 
L 351.837395 301.538781 
L 352.830101 266.996088 
L 353.822807 257.4576 
L 354.815513 290.174577 
L 355.808219 262.541182 
L 356.800925 251.753158 
L 357.793631 267.469403 
L 358.786337 286.140927 
L 359.779043 283.740197 
L 360.771749 271.914991 
L 361.764455 294.353695 
L 362.757161 262.093666 
L 363.749867 278.245217 
L 364.742572 325.735013 
L 365.735278 311.097957 
L 366.727984 293.307879 
L 367.72069 295.901747 
L 368.713396 318.124689 
L 369.706102 301.769157 
L 370.698808 313.067203 
L 371.691514 276.329723 
L 372.68422 283.37239 
L 373.676926 278.851996 
L 374.669632 298.475166 
L 375.662338 357.200375 
L 376.655044 285.105009 
L 377.64775 289.145213 
L 378.640455 279.656415 
L 379.633161 316.16014 
L 380.625867 303.999036 
L 381.618573 293.211 
L 382.611279 292.247693 
L 383.603985 310.42291 
L 384.596691 326.053157 
L 385.589397 264.391993 
L 386.582103 253.21862 
L 387.574809 260.148442 
L 388.567515 252.191759 
L 389.560221 269.217765 
L 390.552927 272.470976 
L 391.545632 287.955231 
L 392.538338 265.345559 
L 393.531044 267.149056 
L 394.52375 272.636269 
L 395.516456 275.753613 
L 396.509162 312.002765 
L 397.501868 268.48632 
L 398.494574 275.341537 
L 399.48728 267.835031 
L 400.479986 266.473382 
L 402.465398 316.947521 
L 403.458104 310.073658 
L 404.450809 290.851501 
L 405.443515 346.44482 
L 406.436221 320.952331 
L 407.428927 298.719261 
L 408.421633 305.188998 
L 409.414339 294.357516 
L 410.407045 294.792134 
L 411.399751 258.109912 
L 412.392457 257.782623 
L 413.385163 255.779661 
L 414.377869 258.692181 
L 415.370575 262.276233 
L 416.363281 274.630177 
L 417.355986 264.601088 
L 418.348692 272.291264 
L 419.341398 284.51104 
L 420.334104 289.866476 
L 421.32681 297.815591 
L 422.319516 289.304451 
L 423.312222 306.978067 
L 424.304928 274.706983 
L 425.297634 276.26604 
L 426.29034 285.319361 
L 427.283046 317.10719 
L 428.275752 306.147995 
L 429.268458 325.43881 
L 430.261163 290.555147 
L 431.253869 319.345879 
L 432.246575 319.28015 
L 433.239281 333.979152 
L 434.231987 319.732805 
L 435.224693 379.443176 
L 437.210105 282.497644 
L 438.202811 274.144204 
L 439.195517 270.499752 
L 440.188223 275.431367 
L 441.180929 276.76415 
L 442.173635 324.329185 
L 443.166341 291.761491 
L 444.159046 300.700746 
L 445.151752 345.793638 
L 446.144458 355.578061 
L 447.137164 345.47137 
L 448.12987 357.571164 
L 449.122576 393.930322 
L 450.115282 320.973278 
L 451.107988 374.448138 
L 452.100694 396.87107 
L 453.0934 305.030691 
L 454.086106 318.328914 
L 455.078812 352.633084 
L 456.071518 326.84728 
L 457.064223 334.707455 
L 458.056929 323.697289 
L 459.049635 345.173762 
L 460.042341 310.306286 
L 461.035047 300.398344 
L 462.027753 363.368237 
L 463.020459 354.92584 
L 464.013165 365.070008 
L 465.005871 334.009666 
L 465.998577 289.245272 
L 466.991283 308.065792 
L 467.983989 340.839578 
L 468.976695 402.197912 
L 469.9694 309.290777 
L 470.962106 343.804344 
L 471.954812 325.323057 
L 472.947518 355.921438 
L 473.940224 311.019214 
L 474.93293 320.167515 
L 475.925636 303.712554 
L 476.918342 364.284895 
L 477.911048 320.368064 
L 478.903754 306.013904 
L 479.89646 286.123821 
L 480.889166 292.82918 
L 481.881872 368.204584 
L 482.874577 318.719607 
L 483.867283 302.087413 
L 484.859989 345.22596 
L 485.852695 300.581606 
L 486.845401 308.930729 
L 487.838107 315.608277 
L 488.830813 306.324991 
L 489.823519 381.049796 
L 490.816225 318.040521 
L 491.808931 327.353247 
L 492.801637 331.539979 
L 493.794343 296.806096 
L 494.787049 297.605841 
L 496.77246 339.381669 
L 497.765166 402.607742 
L 498.757872 372.449928 
L 499.750578 306.334627 
L 500.743284 333.205009 
L 501.73599 298.719221 
L 502.728696 365.955148 
L 503.721402 283.738024 
L 504.714108 299.664907 
L 505.706814 270.445023 
L 506.69952 287.644901 
L 507.692226 334.146956 
L 508.684932 306.041693 
L 509.677637 320.489589 
L 510.670343 325.479463 
L 511.663049 303.686408 
L 512.655755 323.877443 
L 513.648461 320.924093 
L 514.641167 366.160172 
L 515.633873 313.709768 
L 516.626579 291.155392 
L 517.619285 287.496639 
L 518.611991 262.463126 
L 519.604697 264.067187 
L 520.597403 288.050736 
L 521.590109 324.279623 
L 522.582814 283.588814 
L 523.57552 296.702785 
L 524.568226 304.779292 
L 525.560932 305.540734 
L 526.553638 338.453236 
L 527.546344 302.42325 
L 528.53905 283.920038 
L 529.531756 283.557819 
L 530.524462 269.997385 
L 531.517168 293.373273 
L 532.509874 311.3012 
L 533.50258 306.817526 
L 534.495286 323.80454 
L 535.487991 297.333896 
L 536.480697 308.280308 
L 537.473403 324.147459 
L 538.466109 366.729083 
L 539.458815 324.119265 
L 540.451521 312.78421 
L 541.444227 318.223042 
L 542.436933 315.693333 
L 544.422345 272.363593 
L 546.407757 281.993278 
L 547.400463 357.807084 
L 548.393168 306.722167 
L 549.385874 360.945399 
L 550.37858 298.110148 
L 551.371286 308.423285 
L 552.363992 307.770152 
L 553.356698 303.401578 
L 554.349404 293.435275 
L 555.34211 264.214236 
L 556.334816 281.380925 
L 557.327522 286.395746 
L 558.320228 298.621211 
L 559.312934 303.192758 
L 560.30564 298.724918 
L 561.298345 332.406769 
L 562.291051 335.786435 
L 563.283757 304.104332 
L 564.276463 281.302972 
L 565.269169 296.12687 
L 566.261875 339.834867 
L 567.254581 340.649014 
L 568.247287 352.818744 
L 569.239993 319.760835 
L 570.232699 301.207174 
L 571.225405 308.565354 
L 572.218111 299.104755 
L 573.210817 324.715088 
L 574.203523 360.866474 
L 575.196228 317.273696 
L 576.188934 289.918221 
L 577.18164 314.251596 
L 578.174346 330.414999 
L 579.167052 323.876503 
L 580.159758 311.593194 
L 581.152464 286.752818 
L 582.14517 279.621261 
L 583.137876 295.833303 
L 584.130582 301.188988 
L 585.123288 330.159984 
L 586.115994 329.040892 
L 587.1087 341.348443 
L 588.101405 329.690657 
L 589.094111 310.996541 
L 590.086817 317.663407 
L 591.079523 353.538049 
L 592.072229 340.060167 
L 593.064935 333.928246 
L 594.057641 310.267844 
L 595.050347 331.420458 
L 596.043053 320.913657 
L 597.035759 330.389312 
L 598.028465 309.954842 
L 599.021171 342.832321 
L 600.013877 313.285515 
L 601.006582 336.46124 
L 601.999288 329.690128 
L 602.991994 335.491033 
L 603.9847 326.070133 
L 604.977406 369.924409 
L 605.970112 327.629853 
L 606.962818 334.644608 
L 607.955524 319.275587 
L 608.94823 331.677353 
L 609.940936 373.463138 
L 610.933642 336.018657 
L 611.926348 327.731188 
L 612.919054 327.398744 
L 613.911759 334.200656 
L 614.904465 374.541953 
L 615.897171 338.944051 
L 616.889877 391.792609 
L 617.882583 356.562604 
L 618.875289 342.302278 
L 619.867995 354.385943 
L 620.860701 343.207254 
L 621.853407 330.632071 
L 622.846113 326.802927 
L 623.838819 402.689283 
L 624.831525 381.239916 
L 625.824231 354.584171 
L 626.816936 410.568802 
L 627.809642 355.697883 
L 628.802348 353.017104 
L 629.795054 356.340689 
L 630.78776 359.1236 
L 631.780466 347.098703 
L 632.773172 348.008549 
L 633.765878 371.957315 
L 634.758584 355.827396 
L 635.75129 350.972641 
L 636.743996 334.351865 
L 637.736702 446.804476 
L 638.729408 343.733274 
L 639.722114 359.33169 
L 640.714819 364.83179 
L 641.707525 416.882357 
L 642.700231 370.878116 
L 643.692937 395.915042 
L 644.685643 392.454302 
L 645.678349 388.563321 
L 646.671055 388.419462 
L 647.663761 370.730701 
L 648.656467 396.285387 
L 649.649173 363.851031 
L 650.641879 344.269274 
L 651.634585 409.35246 
L 652.627291 356.853266 
L 653.619996 362.798696 
L 654.612702 396.551924 
L 655.605408 374.530509 
L 656.598114 405.430644 
L 657.59082 376.468319 
L 658.583526 419.976921 
L 659.576232 415.778847 
L 660.568938 364.38687 
L 661.561644 352.929376 
L 662.55435 400.153594 
L 663.547056 369.174555 
L 664.539762 359.004613 
L 665.532468 385.756752 
L 666.525173 366.535376 
L 667.517879 383.837426 
L 668.510585 380.204627 
L 669.503291 387.870748 
L 670.495997 377.686528 
L 671.488703 377.190901 
L 672.481409 391.245789 
L 673.474115 400.153028 
L 674.466821 365.154577 
L 675.459527 389.093055 
L 676.452233 364.069378 
L 677.444939 391.711183 
L 678.437645 391.587732 
L 679.43035 409.692473 
L 680.423056 376.712786 
L 681.415762 406.225158 
L 682.408468 408.93086 
L 683.401174 398.436793 
L 684.39388 369.268019 
L 685.386586 400.53547 
L 686.379292 441.479533 
L 687.371998 403.92138 
L 688.364704 411.469859 
L 689.35741 378.79243 
L 690.350116 423.636189 
L 691.342822 391.938148 
L 692.335527 412.947666 
L 693.328233 422.185426 
L 694.320939 390.966025 
L 695.313645 425.78096 
L 696.306351 387.598529 
L 697.299057 431.048287 
L 698.291763 382.747421 
L 699.284469 465.382393 
L 700.277175 379.136615 
L 701.269881 394.011649 
L 702.262587 395.813121 
L 703.255293 411.332825 
L 704.247999 401.74393 
L 705.240705 382.198721 
L 706.23341 412.169551 
L 707.226116 381.861603 
L 708.218822 408.238083 
L 709.211528 393.880612 
L 710.204234 398.23432 
L 711.19694 423.532684 
L 712.189646 403.301349 
L 713.182352 393.652172 
L 714.175058 425.438807 
L 715.167764 416.500645 
L 716.16047 399.652774 
L 717.153176 388.228121 
L 718.145882 414.390668 
L 719.138587 411.028244 
L 720.131293 392.334611 
L 721.123999 411.411305 
L 722.116705 437.932519 
L 723.109411 408.563128 
L 724.102117 392.329509 
L 725.094823 404.938676 
L 726.087529 409.358105 
L 727.080235 401.862572 
L 728.072941 410.451187 
L 729.065647 398.297504 
L 730.058353 426.506182 
L 731.051059 393.460346 
L 733.03647 416.604558 
L 734.029176 423.604112 
L 735.021882 415.568997 
L 736.014588 399.96102 
L 737.007294 433.205663 
L 738 393.171838 
L 738.992706 411.123046 
L 739.985412 409.854408 
L 740.978118 400.501167 
L 741.970824 409.595887 
L 742.96353 426.502335 
L 743.956236 411.262008 
L 744.948941 450.650082 
L 745.941647 409.07286 
L 746.934353 408.21223 
L 747.927059 427.839846 
L 748.919765 402.574917 
L 749.912471 411.161805 
L 750.905177 454.969642 
L 751.897883 403.763528 
L 752.890589 403.461823 
L 753.883295 422.894168 
L 754.876001 422.940193 
L 755.868707 417.173718 
L 756.861413 409.769437 
L 757.854118 416.138689 
L 758.846824 418.174505 
L 759.83953 397.81851 
L 760.832236 414.428478 
L 761.824942 402.392394 
L 762.817648 400.84648 
L 763.810354 440.451158 
L 764.80306 406.056335 
L 766.788472 432.433063 
L 767.781178 402.91846 
L 768.773884 404.680978 
L 769.76659 410.676908 
L 770.759295 400.681073 
L 771.752001 408.017204 
L 772.744707 422.006592 
L 773.737413 409.300703 
L 774.730119 412.478888 
L 775.722825 413.072847 
L 776.715531 416.008919 
L 777.708237 409.514589 
L 778.700943 445.268218 
L 779.693649 433.715503 
L 780.686355 420.323718 
L 781.679061 409.575952 
L 782.671767 434.793943 
L 783.664473 402.451041 
L 784.657178 415.488561 
L 785.649884 436.54107 
L 786.64259 405.309631 
L 787.635296 398.529082 
L 788.628002 423.584903 
L 789.620708 408.243695 
L 790.613414 404.077089 
L 791.60612 424.237797 
L 792.598826 401.170188 
L 793.591532 411.718807 
L 794.584238 413.89595 
L 795.576944 407.556335 
L 796.56965 403.777501 
L 797.562355 403.478722 
L 798.555061 415.537775 
L 799.547767 408.110301 
L 800.540473 424.328019 
L 801.533179 406.660412 
L 802.525885 446.29613 
L 803.518591 408.344595 
L 804.511297 400.86108 
L 806.496709 424.191086 
L 807.489415 424.376005 
L 808.482121 414.684685 
L 809.474827 423.865565 
L 810.467532 419.785455 
L 811.460238 434.3082 
L 812.452944 417.24057 
L 813.44565 412.862151 
L 814.438356 407.304886 
L 815.431062 426.353247 
L 816.423768 410.820029 
L 817.416474 414.076943 
L 818.40918 405.450899 
L 819.401886 418.794267 
L 820.394592 406.317202 
L 821.387298 415.251623 
L 822.380004 413.10253 
L 823.372709 408.952136 
L 824.365415 426.867648 
L 825.358121 425.039045 
L 826.350827 433.15006 
L 827.343533 431.58188 
L 828.336239 421.957484 
L 829.328945 409.556005 
L 830.321651 416.161856 
L 831.314357 413.653276 
L 832.307063 413.440182 
L 833.299769 422.132767 
L 834.292475 409.915713 
L 835.285181 406.510183 
L 836.277886 429.717764 
L 837.270592 423.821092 
L 838.263298 419.716128 
L 839.256004 435.951081 
L 840.24871 417.66758 
L 841.241416 409.921794 
L 842.234122 405.217486 
L 843.226828 437.45539 
L 844.219534 423.168028 
L 845.21224 407.067513 
L 846.204946 410.154075 
L 847.197652 411.405249 
L 848.190358 420.780224 
L 849.183064 413.783341 
L 850.175769 417.448435 
L 851.168475 423.248103 
L 852.161181 419.832895 
L 853.153887 445.062303 
L 854.146593 434.366323 
L 855.139299 415.402225 
L 856.132005 412.327472 
L 857.124711 472.635894 
L 858.117417 397.294098 
L 859.110123 411.764618 
L 860.102829 409.579302 
L 861.095535 431.042665 
L 862.088241 417.319499 
L 863.080946 416.669448 
L 864.073652 422.146219 
L 865.066358 415.818128 
L 866.059064 417.467983 
L 867.05177 423.515308 
L 869.037182 413.51259 
L 870.029888 429.403162 
L 871.022594 410.147644 
L 872.0153 404.170618 
L 873.008006 412.115796 
L 874.000712 414.917473 
L 874.993418 403.254065 
L 875.986123 415.957401 
L 876.978829 418.470602 
L 877.971535 423.5463 
L 879.956947 417.020705 
L 880.949653 417.481956 
L 881.942359 416.60271 
L 882.935065 428.634073 
L 883.927771 427.998824 
L 884.920477 412.303232 
L 885.913183 448.988443 
L 886.905889 425.995079 
L 887.898595 409.621842 
L 888.8913 428.090779 
L 889.884006 412.573557 
L 890.876712 428.479719 
L 891.869418 415.487815 
L 892.862124 433.536883 
L 893.85483 407.446945 
L 894.847536 423.031576 
L 895.840242 412.462935 
L 896.832948 430.056947 
L 897.825654 405.125742 
L 898.81836 425.529374 
L 899.811066 462.539826 
L 900.803772 407.320209 
L 901.796477 442.239322 
L 902.789183 427.895387 
L 903.781889 421.169395 
L 904.774595 445.017516 
L 905.767301 427.295465 
L 906.760007 426.846465 
L 907.752713 426.539502 
L 908.745419 440.313902 
L 909.738125 431.486385 
L 910.730831 417.406563 
L 911.723537 439.162472 
L 912.716243 416.982669 
L 913.708949 445.2483 
L 914.701655 469.396069 
L 915.69436 449.811692 
L 916.687066 425.393268 
L 917.679772 421.512042 
L 918.672478 416.491114 
L 919.665184 410.757213 
L 920.65789 439.505379 
L 921.650596 425.740125 
L 922.643302 407.732906 
L 923.636008 433.874919 
L 924.628714 418.104422 
L 925.62142 412.122276 
L 926.614126 431.278268 
L 927.606832 410.172335 
L 928.599537 411.72933 
L 929.592243 423.784309 
L 930.584949 469.466452 
L 931.577655 456.595387 
L 932.570361 452.805441 
L 933.563067 415.113875 
L 934.555773 451.449926 
L 935.548479 415.61746 
L 936.541185 430.337297 
L 937.533891 441.283102 
L 938.526597 408.724406 
L 940.512009 435.837303 
L 941.504714 403.501306 
L 942.49742 424.038475 
L 943.490126 436.958045 
L 944.482832 417.633519 
L 945.475538 436.25514 
L 946.468244 417.71341 
L 947.46095 419.962961 
L 948.453656 428.905279 
L 949.446362 448.047738 
L 950.439068 415.58514 
L 951.431774 424.591425 
L 952.42448 411.377723 
L 953.417186 465.080659 
L 954.409891 421.427583 
L 955.402597 427.329389 
L 956.395303 446.603746 
L 957.388009 432.093089 
L 958.380715 448.73186 
L 959.373421 450.591657 
L 960.366127 425.605147 
L 961.358833 438.690591 
L 962.351539 425.998328 
L 963.344245 430.08532 
L 964.336951 403.107988 
L 965.329657 415.689947 
L 966.322363 453.320487 
L 967.315068 412.67555 
L 968.307774 434.339805 
L 969.30048 423.350211 
L 970.293186 446.296989 
L 971.285892 417.308187 
L 972.278598 413.161901 
L 973.271304 427.803994 
L 974.26401 431.071605 
L 975.256716 429.304508 
L 976.249422 454.352659 
L 977.242128 410.734906 
L 978.234834 419.38781 
L 979.22754 416.223059 
L 980.220246 431.142782 
L 981.212951 433.443179 
L 982.205657 461.507886 
L 983.198363 463.257436 
L 984.191069 452.839055 
L 985.183775 431.235071 
L 986.176481 432.276396 
L 987.169187 417.180481 
L 988.161893 428.342351 
L 989.154599 423.422701 
L 990.147305 412.592618 
L 991.140011 426.912777 
L 992.132717 429.754566 
L 993.125423 414.060791 
L 994.118128 431.678567 
L 995.110834 413.273327 
L 996.10354 454.692692 
L 997.096246 451.285674 
L 998.088952 425.696146 
L 999.081658 447.62688 
L 1000.074364 438.781138 
L 1001.06707 442.848181 
L 1002.059776 413.932726 
L 1003.052482 419.520476 
L 1004.045188 441.57698 
L 1005.037894 432.006282 
L 1006.0306 414.222143 
L 1007.023305 419.918566 
L 1008.016011 430.301888 
L 1009.008717 417.544686 
L 1010.001423 423.433669 
L 1010.994129 422.536311 
L 1011.986835 489.369909 
L 1012.979541 436.885471 
L 1013.972247 468.762374 
L 1014.964953 449.406103 
L 1015.957659 449.415395 
L 1016.950365 484.162913 
L 1017.943071 412.840169 
L 1018.935777 433.211927 
L 1019.928482 413.584951 
L 1020.921188 433.182066 
L 1021.913894 410.261135 
L 1022.9066 431.324347 
L 1023.899306 434.155387 
L 1024.892012 470.225672 
L 1025.884718 433.637738 
L 1026.877424 467.514789 
L 1027.87013 448.922843 
L 1029.855542 429.944132 
L 1030.848248 430.972689 
L 1031.840954 441.15258 
L 1032.833659 449.026959 
L 1033.826365 471.299898 
L 1034.819071 415.254425 
L 1035.811777 430.535515 
L 1036.804483 432.676453 
L 1037.797189 422.387538 
L 1038.789895 441.641575 
L 1039.782601 423.800421 
L 1040.775307 450.111772 
L 1041.768013 451.535975 
L 1042.760719 438.433933 
L 1043.753425 461.078296 
L 1044.746131 448.555111 
L 1045.738837 444.742057 
L 1046.731542 420.370344 
L 1048.716954 456.253906 
L 1050.702366 413.83501 
L 1051.695072 437.606164 
L 1052.687778 431.75072 
L 1053.680484 424.827909 
L 1054.67319 442.384947 
L 1055.665896 438.405866 
L 1056.658602 433.231413 
L 1057.651308 492.48 
L 1058.644014 405.35941 
L 1059.636719 422.59577 
L 1060.629425 428.401442 
L 1061.622131 441.148362 
L 1062.614837 412.442152 
L 1063.607543 429.035109 
L 1064.600249 429.630696 
L 1065.592955 429.30075 
L 1066.585661 449.144463 
L 1067.578367 479.121394 
L 1068.571073 440.511256 
L 1069.563779 456.405526 
L 1070.556485 425.68087 
L 1071.549191 439.615548 
L 1072.541896 443.868716 
L 1073.534602 435.531346 
L 1074.527308 409.417078 
L 1075.520014 437.286733 
L 1076.51272 443.146125 
L 1077.505426 420.820607 
L 1078.498132 445.257765 
L 1079.490838 431.019244 
L 1080.483544 429.792835 
L 1081.47625 461.119287 
L 1082.468956 458.888719 
L 1083.461662 442.850879 
L 1084.454368 450.107904 
L 1085.447073 439.986776 
L 1086.439779 473.688763 
L 1087.432485 422.172738 
L 1088.425191 441.018905 
L 1089.417897 426.566019 
L 1090.410603 421.971683 
L 1091.403309 425.312207 
L 1092.396015 430.113361 
L 1093.388721 423.841014 
L 1094.381427 431.048767 
L 1095.374133 430.269306 
L 1096.366839 411.496003 
L 1097.359545 435.740737 
L 1098.35225 429.973715 
L 1099.344956 439.113693 
L 1100.337662 436.173471 
L 1101.330368 422.037418 
L 1102.323074 447.818599 
L 1103.31578 435.017278 
L 1104.308486 424.87425 
L 1105.301192 454.627362 
L 1106.293898 464.165674 
L 1107.286604 434.805954 
L 1108.27931 431.671844 
L 1109.272016 410.955797 
L 1110.264722 453.92177 
L 1111.257428 420.27307 
L 1112.250133 463.023177 
L 1114.235545 415.864418 
L 1115.228251 419.436632 
L 1116.220957 460.930791 
L 1117.213663 431.299508 
L 1118.206369 453.22479 
L 1119.199075 452.606992 
L 1120.191781 408.941849 
L 1121.184487 429.013932 
L 1122.177193 432.870673 
L 1123.169899 424.197105 
L 1124.162605 439.638202 
L 1125.15531 450.77239 
L 1126.148016 481.647555 
L 1127.140722 443.484373 
L 1128.133428 434.395944 
L 1129.126134 452.094568 
L 1130.11884 428.098734 
L 1131.111546 458.034156 
L 1132.104252 432.013109 
L 1133.096958 422.328611 
L 1134.089664 437.802345 
L 1135.08237 416.417195 
L 1136.075076 429.303512 
L 1137.067782 461.143116 
L 1138.060487 468.957694 
L 1139.053193 434.706491 
L 1140.045899 424.11127 
L 1141.038605 478.225806 
L 1142.031311 439.70394 
L 1143.024017 419.858615 
L 1144.016723 409.857806 
L 1145.009429 426.242314 
L 1146.002135 424.571016 
L 1146.994841 414.69326 
L 1147.987547 427.210144 
L 1148.980253 421.404307 
L 1149.972959 413.868634 
L 1150.965664 440.45643 
L 1151.95837 442.744736 
L 1152.951076 435.302915 
L 1153.943782 440.561084 
L 1154.936488 446.539674 
L 1155.929194 434.44345 
L 1156.9219 420.483834 
L 1157.914606 450.887156 
L 1158.907312 443.579512 
L 1159.900018 438.893108 
L 1160.892724 410.392943 
L 1161.88543 417.079538 
L 1162.878136 433.750643 
L 1163.870841 417.898912 
L 1164.863547 431.404013 
L 1165.856253 410.100612 
L 1166.848959 433.789101 
L 1167.841665 447.633039 
L 1168.834371 443.819377 
L 1169.827077 433.235494 
L 1170.819783 437.309613 
L 1171.812489 448.657177 
L 1172.805195 441.884887 
L 1173.797901 428.792794 
L 1174.790607 461.774741 
L 1175.783313 426.578645 
L 1176.776019 467.942697 
L 1177.768724 423.891436 
L 1178.76143 447.277271 
L 1179.754136 440.012012 
L 1180.746842 426.568369 
L 1181.739548 419.449438 
L 1182.732254 459.380937 
L 1183.72496 426.483588 
L 1184.717666 415.127276 
L 1185.710372 435.7128 
L 1186.703078 452.122431 
L 1187.695784 473.047481 
L 1189.681196 432.928965 
L 1190.673901 456.414088 
L 1191.666607 455.039157 
L 1192.659313 422.482404 
L 1193.652019 414.632216 
L 1194.644725 419.550186 
L 1195.637431 465.886562 
L 1196.630137 435.680199 
L 1197.622843 418.990066 
L 1198.615549 411.699023 
L 1199.608255 439.641869 
L 1200.600961 439.074579 
L 1201.593667 435.339458 
L 1202.586373 435.152723 
L 1203.579078 440.670536 
L 1204.571784 433.048256 
L 1205.56449 463.581005 
L 1206.557196 432.280349 
L 1207.549902 461.02704 
L 1209.535314 439.549794 
L 1210.52802 425.814001 
L 1211.520726 436.888326 
L 1212.513432 443.422208 
L 1213.506138 427.93433 
L 1214.498844 406.938204 
L 1215.49155 466.180371 
L 1216.484255 462.833423 
L 1217.476961 415.669066 
L 1218.469667 464.882709 
L 1219.462373 418.825704 
L 1220.455079 442.722701 
L 1221.447785 420.359474 
L 1222.440491 416.379786 
L 1223.433197 416.314279 
L 1225.418609 434.336756 
L 1226.411315 436.700085 
L 1227.404021 423.218722 
L 1228.396727 428.066618 
L 1229.389432 417.118473 
L 1230.382138 434.734556 
L 1231.374844 411.145705 
L 1232.36755 425.789771 
L 1233.360256 452.851688 
L 1234.352962 442.871904 
L 1235.345668 474.018832 
L 1236.338374 456.315782 
L 1237.33108 433.196525 
L 1238.323786 426.42872 
L 1239.316492 447.093754 
L 1240.309198 454.351191 
L 1241.301904 439.16321 
L 1242.29461 438.721128 
L 1243.287315 437.715725 
L 1244.280021 456.77445 
L 1245.272727 434.432115 
L 1245.272727 434.432115 
" clip-path="url(#p62a6d6c865)" style="fill: none; stroke: #1f77b4; stroke-width: 1.5; stroke-linecap: square"/>
   </g>
   <g id="patch_3">
    <path d="M 180 512.64 
L 180 69.12 
" style="fill: none; stroke: #000000; stroke-width: 0.8; stroke-linejoin: miter; stroke-linecap: square"/>
   </g>
   <g id="patch_4">
    <path d="M 1296 512.64 
L 1296 69.12 
" style="fill: none; stroke: #000000; stroke-width: 0.8; stroke-linejoin: miter; stroke-linecap: square"/>
   </g>
   <g id="patch_5">
    <path d="M 180 512.64 
L 1296 512.64 
" style="fill: none; stroke: #000000; stroke-width: 0.8; stroke-linejoin: miter; stroke-linecap: square"/>
   </g>
   <g id="patch_6">
    <path d="M 180 69.12 
L 1296 69.12 
" style="fill: none; stroke: #000000; stroke-width: 0.8; stroke-linejoin: miter; stroke-linecap: square"/>
   </g>
   <g id="text_13">
    <!-- source17-receiver3 -->
    <g transform="translate(544.9 60.80125) scale(0.4 -0.4)">
     <defs>
      <path id="DejaVuSans-73" d="M 2834 3397 
L 2834 2853 
Q 2591 2978 2328 3040 
Q 2066 3103 1784 3103 
Q 1356 3103 1142 2972 
Q 928 2841 928 2578 
Q 928 2378 1081 2264 
Q 1234 2150 1697 2047 
L 1894 2003 
Q 2506 1872 2764 1633 
Q 3022 1394 3022 966 
Q 3022 478 2636 193 
Q 2250 -91 1575 -91 
Q 1294 -91 989 -36 
Q 684 19 347 128 
L 347 722 
Q 666 556 975 473 
Q 1284 391 1588 391 
Q 1994 391 2212 530 
Q 2431 669 2431 922 
Q 2431 1156 2273 1281 
Q 2116 1406 1581 1522 
L 1381 1569 
Q 847 1681 609 1914 
Q 372 2147 372 2553 
Q 372 3047 722 3315 
Q 1072 3584 1716 3584 
Q 2034 3584 2315 3537 
Q 2597 3491 2834 3397 
z
" transform="scale(0.015625)"/>
      <path id="DejaVuSans-6f" d="M 1959 3097 
Q 1497 3097 1228 2736 
Q 959 2375 959 1747 
Q 959 1119 1226 758 
Q 1494 397 1959 397 
Q 2419 397 2687 759 
Q 2956 1122 2956 1747 
Q 2956 2369 2687 2733 
Q 2419 3097 1959 3097 
z
M 1959 3584 
Q 2709 3584 3137 3096 
Q 3566 2609 3566 1747 
Q 3566 888 3137 398 
Q 2709 -91 1959 -91 
Q 1206 -91 779 398 
Q 353 888 353 1747 
Q 353 2609 779 3096 
Q 1206 3584 1959 3584 
z
" transform="scale(0.015625)"/>
      <path id="DejaVuSans-75" d="M 544 1381 
L 544 3500 
L 1119 3500 
L 1119 1403 
Q 1119 906 1312 657 
Q 1506 409 1894 409 
Q 2359 409 2629 706 
Q 2900 1003 2900 1516 
L 2900 3500 
L 3475 3500 
L 3475 0 
L 2900 0 
L 2900 538 
Q 2691 219 2414 64 
Q 2138 -91 1772 -91 
Q 1169 -91 856 284 
Q 544 659 544 1381 
z
M 1991 3584 
L 1991 3584 
z
" transform="scale(0.015625)"/>
      <path id="DejaVuSans-72" d="M 2631 2963 
Q 2534 3019 2420 3045 
Q 2306 3072 2169 3072 
Q 1681 3072 1420 2755 
Q 1159 2438 1159 1844 
L 1159 0 
L 581 0 
L 581 3500 
L 1159 3500 
L 1159 2956 
Q 1341 3275 1631 3429 
Q 1922 3584 2338 3584 
Q 2397 3584 2469 3576 
Q 2541 3569 2628 3553 
L 2631 2963 
z
" transform="scale(0.015625)"/>
      <path id="DejaVuSans-63" d="M 3122 3366 
L 3122 2828 
Q 2878 2963 2633 3030 
Q 2388 3097 2138 3097 
Q 1578 3097 1268 2742 
Q 959 2388 959 1747 
Q 959 1106 1268 751 
Q 1578 397 2138 397 
Q 2388 397 2633 464 
Q 2878 531 3122 666 
L 3122 134 
Q 2881 22 2623 -34 
Q 2366 -91 2075 -91 
Q 1284 -91 818 406 
Q 353 903 353 1747 
Q 353 2603 823 3093 
Q 1294 3584 2113 3584 
Q 2378 3584 2631 3529 
Q 2884 3475 3122 3366 
z
" transform="scale(0.015625)"/>
      <path id="DejaVuSans-65" d="M 3597 1894 
L 3597 1613 
L 953 1613 
Q 991 1019 1311 708 
Q 1631 397 2203 397 
Q 2534 397 2845 478 
Q 3156 559 3463 722 
L 3463 178 
Q 3153 47 2828 -22 
Q 2503 -91 2169 -91 
Q 1331 -91 842 396 
Q 353 884 353 1716 
Q 353 2575 817 3079 
Q 1281 3584 2069 3584 
Q 2775 3584 3186 3129 
Q 3597 2675 3597 1894 
z
M 3022 2063 
Q 3016 2534 2758 2815 
Q 2500 3097 2075 3097 
Q 1594 3097 1305 2825 
Q 1016 2553 972 2059 
L 3022 2063 
z
" transform="scale(0.015625)"/>
      <path id="DejaVuSans-37" d="M 525 4666 
L 3525 4666 
L 3525 4397 
L 1831 0 
L 1172 0 
L 2766 4134 
L 525 4134 
L 525 4666 
z
" transform="scale(0.015625)"/>
      <path id="DejaVuSans-2d" d="M 313 2009 
L 1997 2009 
L 1997 1497 
L 313 1497 
L 313 2009 
z
" transform="scale(0.015625)"/>
      <path id="DejaVuSans-69" d="M 603 3500 
L 1178 3500 
L 1178 0 
L 603 0 
L 603 3500 
z
M 603 4863 
L 1178 4863 
L 1178 4134 
L 603 4134 
L 603 4863 
z
" transform="scale(0.015625)"/>
      <path id="DejaVuSans-76" d="M 191 3500 
L 800 3500 
L 1894 563 
L 2988 3500 
L 3597 3500 
L 2284 0 
L 1503 0 
L 191 3500 
z
" transform="scale(0.015625)"/>
      <path id="DejaVuSans-33" d="M 2597 2516 
Q 3050 2419 3304 2112 
Q 3559 1806 3559 1356 
Q 3559 666 3084 287 
Q 2609 -91 1734 -91 
Q 1441 -91 1130 -33 
Q 819 25 488 141 
L 488 750 
Q 750 597 1062 519 
Q 1375 441 1716 441 
Q 2309 441 2620 675 
Q 2931 909 2931 1356 
Q 2931 1769 2642 2001 
Q 2353 2234 1838 2234 
L 1294 2234 
L 1294 2753 
L 1863 2753 
Q 2328 2753 2575 2939 
Q 2822 3125 2822 3475 
Q 2822 3834 2567 4026 
Q 2313 4219 1838 4219 
Q 1578 4219 1281 4162 
Q 984 4106 628 3988 
L 628 4550 
Q 988 4650 1302 4700 
Q 1616 4750 1894 4750 
Q 2613 4750 3031 4423 
Q 3450 4097 3450 3541 
Q 3450 3153 3228 2886 
Q 3006 2619 2597 2516 
z
" transform="scale(0.015625)"/>
     </defs>
     <use xlink:href="#DejaVuSans-73"/>
     <use xlink:href="#DejaVuSans-6f" x="52.099609"/>
     <use xlink:href="#DejaVuSans-75" x="113.28125"/>
     <use xlink:href="#DejaVuSans-72" x="176.660156"/>
     <use xlink:href="#DejaVuSans-63" x="215.523438"/>
     <use xlink:href="#DejaVuSans-65" x="270.503906"/>
     <use xlink:href="#DejaVuSans-31" x="332.027344"/>
     <use xlink:href="#DejaVuSans-37" x="395.650391"/>
     <use xlink:href="#DejaVuSans-2d" x="459.273438"/>
     <use xlink:href="#DejaVuSans-72" x="495.357422"/>
     <use xlink:href="#DejaVuSans-65" x="534.220703"/>
     <use xlink:href="#DejaVuSans-63" x="595.744141"/>
     <use xlink:href="#DejaVuSans-65" x="650.724609"/>
     <use xlink:href="#DejaVuSans-69" x="712.248047"/>
     <use xlink:href="#DejaVuSans-76" x="740.03125"/>
     <use xlink:href="#DejaVuSans-65" x="799.210938"/>
     <use xlink:href="#DejaVuSans-72" x="860.734375"/>
     <use xlink:href="#DejaVuSans-33" x="901.847656"/>
    </g>
   </g>
  </g>
 </g>
 <defs>
  <clipPath id="p62a6d6c865">
   <rect x="180" y="69.12" width="1116" height="443.52"/>
  </clipPath>
 </defs>
</svg>
