<?xml version="1.0" encoding="utf-8" standalone="no"?>
<!DOCTYPE svg PUBLIC "-//W3C//DTD SVG 1.1//EN"
  "http://www.w3.org/Graphics/SVG/1.1/DTD/svg11.dtd">
<svg xmlns:xlink="http://www.w3.org/1999/xlink" width="1440pt" height="576pt" viewBox="0 0 1440 576" xmlns="http://www.w3.org/2000/svg" version="1.1">
 <metadata>
  <rdf:RDF xmlns:dc="http://purl.org/dc/elements/1.1/" xmlns:cc="http://creativecommons.org/ns#" xmlns:rdf="http://www.w3.org/1999/02/22-rdf-syntax-ns#">
   <cc:Work>
    <dc:type rdf:resource="http://purl.org/dc/dcmitype/StillImage"/>
    <dc:date>2024-05-22T04:50:11.767245</dc:date>
    <dc:format>image/svg+xml</dc:format>
    <dc:creator>
     <cc:Agent>
      <dc:title>Matplotlib v3.8.3, https://matplotlib.org/</dc:title>
     </cc:Agent>
    </dc:creator>
   </cc:Work>
  </rdf:RDF>
 </metadata>
 <defs>
  <style type="text/css">*{stroke-linejoin: round; stroke-linecap: butt}</style>
 </defs>
 <g id="figure_1">
  <g id="patch_1">
   <path d="M 0 576 
L 1440 576 
L 1440 0 
L 0 0 
z
" style="fill: #ffffff"/>
  </g>
  <g id="axes_1">
   <g id="patch_2">
    <path d="M 180 512.64 
L 1296 512.64 
L 1296 69.12 
L 180 69.12 
z
" style="fill: #ffffff"/>
   </g>
   <g id="matplotlib.axis_1">
    <g id="xtick_1">
     <g id="line2d_1">
      <defs>
       <path id="m016f294b42" d="M 0 0 
L 0 3.5 
" style="stroke: #000000; stroke-width: 0.8"/>
      </defs>
      <g>
       <use xlink:href="#m016f294b42" x="229.734567" y="512.64" style="stroke: #000000; stroke-width: 0.8"/>
      </g>
     </g>
     <g id="text_1">
      <!-- 0 -->
      <g transform="translate(226.553317 527.238438) scale(0.1 -0.1)">
       <defs>
        <path id="DejaVuSans-30" d="M 2034 4250 
Q 1547 4250 1301 3770 
Q 1056 3291 1056 2328 
Q 1056 1369 1301 889 
Q 1547 409 2034 409 
Q 2525 409 2770 889 
Q 3016 1369 3016 2328 
Q 3016 3291 2770 3770 
Q 2525 4250 2034 4250 
z
M 2034 4750 
Q 2819 4750 3233 4129 
Q 3647 3509 3647 2328 
Q 3647 1150 3233 529 
Q 2819 -91 2034 -91 
Q 1250 -91 836 529 
Q 422 1150 422 2328 
Q 422 3509 836 4129 
Q 1250 4750 2034 4750 
z
" transform="scale(0.015625)"/>
       </defs>
       <use xlink:href="#DejaVuSans-30"/>
      </g>
     </g>
    </g>
    <g id="xtick_2">
     <g id="line2d_2">
      <g>
       <use xlink:href="#m016f294b42" x="433.04074" y="512.64" style="stroke: #000000; stroke-width: 0.8"/>
      </g>
     </g>
     <g id="text_2">
      <!-- 500 -->
      <g transform="translate(423.49699 527.238438) scale(0.1 -0.1)">
       <defs>
        <path id="DejaVuSans-35" d="M 691 4666 
L 3169 4666 
L 3169 4134 
L 1269 4134 
L 1269 2991 
Q 1406 3038 1543 3061 
Q 1681 3084 1819 3084 
Q 2600 3084 3056 2656 
Q 3513 2228 3513 1497 
Q 3513 744 3044 326 
Q 2575 -91 1722 -91 
Q 1428 -91 1123 -41 
Q 819 9 494 109 
L 494 744 
Q 775 591 1075 516 
Q 1375 441 1709 441 
Q 2250 441 2565 725 
Q 2881 1009 2881 1497 
Q 2881 1984 2565 2268 
Q 2250 2553 1709 2553 
Q 1456 2553 1204 2497 
Q 953 2441 691 2322 
L 691 4666 
z
" transform="scale(0.015625)"/>
       </defs>
       <use xlink:href="#DejaVuSans-35"/>
       <use xlink:href="#DejaVuSans-30" x="63.623047"/>
       <use xlink:href="#DejaVuSans-30" x="127.246094"/>
      </g>
     </g>
    </g>
    <g id="xtick_3">
     <g id="line2d_3">
      <g>
       <use xlink:href="#m016f294b42" x="636.346913" y="512.64" style="stroke: #000000; stroke-width: 0.8"/>
      </g>
     </g>
     <g id="text_3">
      <!-- 1000 -->
      <g transform="translate(623.621913 527.238438) scale(0.1 -0.1)">
       <defs>
        <path id="DejaVuSans-31" d="M 794 531 
L 1825 531 
L 1825 4091 
L 703 3866 
L 703 4441 
L 1819 4666 
L 2450 4666 
L 2450 531 
L 3481 531 
L 3481 0 
L 794 0 
L 794 531 
z
" transform="scale(0.015625)"/>
       </defs>
       <use xlink:href="#DejaVuSans-31"/>
       <use xlink:href="#DejaVuSans-30" x="63.623047"/>
       <use xlink:href="#DejaVuSans-30" x="127.246094"/>
       <use xlink:href="#DejaVuSans-30" x="190.869141"/>
      </g>
     </g>
    </g>
    <g id="xtick_4">
     <g id="line2d_4">
      <g>
       <use xlink:href="#m016f294b42" x="839.653087" y="512.64" style="stroke: #000000; stroke-width: 0.8"/>
      </g>
     </g>
     <g id="text_4">
      <!-- 1500 -->
      <g transform="translate(826.928087 527.238438) scale(0.1 -0.1)">
       <use xlink:href="#DejaVuSans-31"/>
       <use xlink:href="#DejaVuSans-35" x="63.623047"/>
       <use xlink:href="#DejaVuSans-30" x="127.246094"/>
       <use xlink:href="#DejaVuSans-30" x="190.869141"/>
      </g>
     </g>
    </g>
    <g id="xtick_5">
     <g id="line2d_5">
      <g>
       <use xlink:href="#m016f294b42" x="1042.95926" y="512.64" style="stroke: #000000; stroke-width: 0.8"/>
      </g>
     </g>
     <g id="text_5">
      <!-- 2000 -->
      <g transform="translate(1030.23426 527.238438) scale(0.1 -0.1)">
       <defs>
        <path id="DejaVuSans-32" d="M 1228 531 
L 3431 531 
L 3431 0 
L 469 0 
L 469 531 
Q 828 903 1448 1529 
Q 2069 2156 2228 2338 
Q 2531 2678 2651 2914 
Q 2772 3150 2772 3378 
Q 2772 3750 2511 3984 
Q 2250 4219 1831 4219 
Q 1534 4219 1204 4116 
Q 875 4013 500 3803 
L 500 4441 
Q 881 4594 1212 4672 
Q 1544 4750 1819 4750 
Q 2544 4750 2975 4387 
Q 3406 4025 3406 3419 
Q 3406 3131 3298 2873 
Q 3191 2616 2906 2266 
Q 2828 2175 2409 1742 
Q 1991 1309 1228 531 
z
" transform="scale(0.015625)"/>
       </defs>
       <use xlink:href="#DejaVuSans-32"/>
       <use xlink:href="#DejaVuSans-30" x="63.623047"/>
       <use xlink:href="#DejaVuSans-30" x="127.246094"/>
       <use xlink:href="#DejaVuSans-30" x="190.869141"/>
      </g>
     </g>
    </g>
    <g id="xtick_6">
     <g id="line2d_6">
      <g>
       <use xlink:href="#m016f294b42" x="1246.265433" y="512.64" style="stroke: #000000; stroke-width: 0.8"/>
      </g>
     </g>
     <g id="text_6">
      <!-- 2500 -->
      <g transform="translate(1233.540433 527.238438) scale(0.1 -0.1)">
       <use xlink:href="#DejaVuSans-32"/>
       <use xlink:href="#DejaVuSans-35" x="63.623047"/>
       <use xlink:href="#DejaVuSans-30" x="127.246094"/>
       <use xlink:href="#DejaVuSans-30" x="190.869141"/>
      </g>
     </g>
    </g>
   </g>
   <g id="matplotlib.axis_2">
    <g id="ytick_1">
     <g id="line2d_7">
      <defs>
       <path id="mc7cd1293f2" d="M 0 0 
L -3.5 0 
" style="stroke: #000000; stroke-width: 0.8"/>
      </defs>
      <g>
       <use xlink:href="#mc7cd1293f2" x="180" y="512.503482" style="stroke: #000000; stroke-width: 0.8"/>
      </g>
     </g>
     <g id="text_7">
      <!-- −4 -->
      <g transform="translate(158.257812 516.302701) scale(0.1 -0.1)">
       <defs>
        <path id="DejaVuSans-2212" d="M 678 2272 
L 4684 2272 
L 4684 1741 
L 678 1741 
L 678 2272 
z
" transform="scale(0.015625)"/>
        <path id="DejaVuSans-34" d="M 2419 4116 
L 825 1625 
L 2419 1625 
L 2419 4116 
z
M 2253 4666 
L 3047 4666 
L 3047 1625 
L 3713 1625 
L 3713 1100 
L 3047 1100 
L 3047 0 
L 2419 0 
L 2419 1100 
L 313 1100 
L 313 1709 
L 2253 4666 
z
" transform="scale(0.015625)"/>
       </defs>
       <use xlink:href="#DejaVuSans-2212"/>
       <use xlink:href="#DejaVuSans-34" x="83.789062"/>
      </g>
     </g>
    </g>
    <g id="ytick_2">
     <g id="line2d_8">
      <g>
       <use xlink:href="#mc7cd1293f2" x="180" y="424.934596" style="stroke: #000000; stroke-width: 0.8"/>
      </g>
     </g>
     <g id="text_8">
      <!-- −2 -->
      <g transform="translate(158.257812 428.733815) scale(0.1 -0.1)">
       <use xlink:href="#DejaVuSans-2212"/>
       <use xlink:href="#DejaVuSans-32" x="83.789062"/>
      </g>
     </g>
    </g>
    <g id="ytick_3">
     <g id="line2d_9">
      <g>
       <use xlink:href="#mc7cd1293f2" x="180" y="337.365709" style="stroke: #000000; stroke-width: 0.8"/>
      </g>
     </g>
     <g id="text_9">
      <!-- 0 -->
      <g transform="translate(166.6375 341.164928) scale(0.1 -0.1)">
       <use xlink:href="#DejaVuSans-30"/>
      </g>
     </g>
    </g>
    <g id="ytick_4">
     <g id="line2d_10">
      <g>
       <use xlink:href="#mc7cd1293f2" x="180" y="249.796823" style="stroke: #000000; stroke-width: 0.8"/>
      </g>
     </g>
     <g id="text_10">
      <!-- 2 -->
      <g transform="translate(166.6375 253.596042) scale(0.1 -0.1)">
       <use xlink:href="#DejaVuSans-32"/>
      </g>
     </g>
    </g>
    <g id="ytick_5">
     <g id="line2d_11">
      <g>
       <use xlink:href="#mc7cd1293f2" x="180" y="162.227937" style="stroke: #000000; stroke-width: 0.8"/>
      </g>
     </g>
     <g id="text_11">
      <!-- 4 -->
      <g transform="translate(166.6375 166.027156) scale(0.1 -0.1)">
       <use xlink:href="#DejaVuSans-34"/>
      </g>
     </g>
    </g>
    <g id="ytick_6">
     <g id="line2d_12">
      <g>
       <use xlink:href="#mc7cd1293f2" x="180" y="74.659051" style="stroke: #000000; stroke-width: 0.8"/>
      </g>
     </g>
     <g id="text_12">
      <!-- 6 -->
      <g transform="translate(166.6375 78.458269) scale(0.1 -0.1)">
       <defs>
        <path id="DejaVuSans-36" d="M 2113 2584 
Q 1688 2584 1439 2293 
Q 1191 2003 1191 1497 
Q 1191 994 1439 701 
Q 1688 409 2113 409 
Q 2538 409 2786 701 
Q 3034 994 3034 1497 
Q 3034 2003 2786 2293 
Q 2538 2584 2113 2584 
z
M 3366 4563 
L 3366 3988 
Q 3128 4100 2886 4159 
Q 2644 4219 2406 4219 
Q 1781 4219 1451 3797 
Q 1122 3375 1075 2522 
Q 1259 2794 1537 2939 
Q 1816 3084 2150 3084 
Q 2853 3084 3261 2657 
Q 3669 2231 3669 1497 
Q 3669 778 3244 343 
Q 2819 -91 2113 -91 
Q 1303 -91 875 529 
Q 447 1150 447 2328 
Q 447 3434 972 4092 
Q 1497 4750 2381 4750 
Q 2619 4750 2861 4703 
Q 3103 4656 3366 4563 
z
" transform="scale(0.015625)"/>
       </defs>
       <use xlink:href="#DejaVuSans-36"/>
      </g>
     </g>
    </g>
   </g>
   <g id="line2d_13">
    <path d="M 230.727273 302.698167 
L 231.719979 267.345461 
L 232.712685 300.579148 
L 233.70539 313.885886 
L 234.698096 302.285029 
L 235.690802 285.514058 
L 236.683508 372.935464 
L 237.676214 289.156915 
L 238.66892 283.576117 
L 239.661626 345.463213 
L 240.654332 296.737449 
L 241.647038 275.144929 
L 242.639744 307.292572 
L 243.63245 286.53489 
L 244.625156 278.985373 
L 245.617862 297.715405 
L 246.610568 291.125174 
L 247.603273 236.545035 
L 248.595979 226.802669 
L 249.588685 222.291755 
L 250.581391 220.420822 
L 251.574097 195.284688 
L 252.566803 176.874351 
L 253.559509 171.930941 
L 254.552215 182.876396 
L 255.544921 219.150214 
L 256.537627 295.828861 
L 257.530333 204.094243 
L 258.523039 193.559271 
L 259.515745 201.347285 
L 260.50845 211.75145 
L 261.501156 209.357824 
L 262.493862 188.121015 
L 263.486568 173.394642 
L 264.479274 161.016285 
L 265.47198 168.811803 
L 266.464686 162.089768 
L 267.457392 154.529386 
L 268.450098 159.99468 
L 269.442804 184.509343 
L 270.43551 257.481384 
L 271.428216 235.005579 
L 272.420922 175.787625 
L 273.413627 136.06282 
L 274.406333 126.201306 
L 275.399039 142.638996 
L 276.391745 171.084221 
L 278.377157 107.465169 
L 279.369863 105.001732 
L 280.362569 110.880927 
L 281.355275 99.353606 
L 282.347981 122.790174 
L 283.340687 118.235834 
L 284.333393 89.28 
L 285.326099 105.794606 
L 286.318804 104.648254 
L 287.31151 90.839986 
L 288.304216 97.601461 
L 289.296922 135.159283 
L 290.289628 154.873086 
L 291.282334 134.224587 
L 292.27504 132.316564 
L 293.267746 145.404757 
L 294.260452 142.889292 
L 295.253158 152.854471 
L 296.245864 158.883877 
L 297.23857 171.30703 
L 298.231276 152.29405 
L 299.223981 155.883948 
L 300.216687 169.228042 
L 301.209393 187.015166 
L 302.202099 185.04883 
L 303.194805 178.431693 
L 304.187511 180.176789 
L 305.180217 188.645015 
L 306.172923 195.191051 
L 307.165629 224.967462 
L 308.158335 230.728572 
L 309.151041 199.655094 
L 310.143747 206.506704 
L 311.136453 218.422305 
L 312.129159 264.509191 
L 313.121864 281.581371 
L 314.11457 261.1069 
L 315.107276 252.798098 
L 316.099982 284.807497 
L 317.092688 284.412361 
L 318.085394 285.182941 
L 319.0781 273.008792 
L 320.070806 254.703779 
L 321.063512 239.558515 
L 322.056218 252.660262 
L 323.048924 260.658015 
L 324.04163 259.302362 
L 325.034336 230.737136 
L 326.027041 237.088523 
L 327.019747 240.836365 
L 328.012453 270.736808 
L 329.005159 246.139808 
L 329.997865 240.344578 
L 330.990571 236.460201 
L 331.983277 255.788568 
L 332.975983 264.698589 
L 333.968689 258.139555 
L 334.961395 253.752138 
L 335.954101 261.277028 
L 336.946807 275.400277 
L 337.939513 320.702766 
L 338.932218 285.153212 
L 339.924924 270.018466 
L 340.91763 259.927906 
L 341.910336 253.343889 
L 344.888454 315.579752 
L 345.88116 283.988039 
L 346.873866 276.986991 
L 347.866572 281.327413 
L 348.859278 329.452046 
L 349.851984 345.087902 
L 350.84469 319.775575 
L 351.837395 322.883971 
L 352.830101 277.374135 
L 353.822807 271.071225 
L 354.815513 267.704309 
L 355.808219 266.356548 
L 356.800925 274.783451 
L 357.793631 265.499051 
L 358.786337 249.885596 
L 359.779043 246.129835 
L 360.771749 241.087199 
L 361.764455 241.524228 
L 362.757161 264.274401 
L 363.749867 310.509624 
L 364.742572 281.883972 
L 365.735278 266.704576 
L 366.727984 276.421325 
L 367.72069 295.850721 
L 368.713396 264.845763 
L 369.706102 251.633999 
L 370.698808 251.730714 
L 371.691514 262.974561 
L 372.68422 285.217158 
L 374.669632 259.499654 
L 375.662338 254.231144 
L 376.655044 251.517922 
L 377.64775 248.376065 
L 378.640455 226.461081 
L 379.633161 207.560272 
L 380.625867 203.255285 
L 381.618573 209.078118 
L 382.611279 226.420658 
L 383.603985 236.407284 
L 384.596691 222.666612 
L 385.589397 218.382746 
L 386.582103 226.31284 
L 387.574809 225.650831 
L 388.567515 218.464003 
L 389.560221 226.457362 
L 390.552927 216.66671 
L 391.545632 187.536427 
L 392.538338 167.220999 
L 393.531044 159.34145 
L 394.52375 160.144844 
L 395.516456 171.077042 
L 396.509162 195.204007 
L 397.501868 243.485535 
L 398.494574 253.380987 
L 399.48728 242.367596 
L 400.479986 260.402543 
L 401.472692 263.981144 
L 402.465398 231.450794 
L 403.458104 225.691301 
L 404.450809 230.497958 
L 405.443515 249.282514 
L 407.428927 310.536182 
L 408.421633 328.318976 
L 409.414339 288.892081 
L 410.407045 274.615803 
L 412.392457 273.699707 
L 413.385163 267.491003 
L 414.377869 267.233902 
L 415.370575 273.256468 
L 416.363281 268.275512 
L 417.355986 259.594764 
L 418.348692 254.708252 
L 420.334104 281.569638 
L 421.32681 275.498528 
L 422.319516 254.899591 
L 423.312222 252.349562 
L 424.304928 250.44267 
L 425.297634 262.632554 
L 426.29034 268.315916 
L 427.283046 272.245922 
L 428.275752 260.156028 
L 429.268458 256.659209 
L 430.261163 257.012179 
L 431.253869 264.281204 
L 432.246575 268.836462 
L 433.239281 269.306214 
L 434.231987 273.641479 
L 435.224693 275.004444 
L 436.217399 274.587203 
L 437.210105 268.593824 
L 438.202811 278.42002 
L 439.195517 285.809058 
L 440.188223 300.983632 
L 441.180929 282.791193 
L 442.173635 285.189205 
L 443.166341 281.232329 
L 444.159046 282.217493 
L 445.151752 271.133037 
L 447.137164 275.834537 
L 448.12987 293.905173 
L 449.122576 288.757294 
L 450.115282 286.672457 
L 451.107988 281.85762 
L 452.100694 305.595714 
L 453.0934 351.432883 
L 455.078812 303.15362 
L 456.071518 312.664689 
L 457.064223 323.679961 
L 458.056929 301.352179 
L 459.049635 288.074308 
L 460.042341 294.207745 
L 461.035047 317.255802 
L 462.027753 324.96389 
L 463.020459 296.661435 
L 464.013165 285.413373 
L 465.005871 301.504049 
L 466.991283 381.305803 
L 467.983989 334.753463 
L 468.976695 352.396017 
L 469.9694 318.085311 
L 470.962106 295.094892 
L 471.954812 289.368569 
L 472.947518 303.552513 
L 473.940224 334.67388 
L 474.93293 330.460948 
L 475.925636 309.425722 
L 476.918342 294.120894 
L 477.911048 288.536751 
L 478.903754 274.489699 
L 479.89646 268.179668 
L 480.889166 270.214643 
L 481.881872 281.023462 
L 482.874577 321.222629 
L 483.867283 305.085346 
L 484.859989 269.721792 
L 485.852695 259.65475 
L 486.845401 259.200643 
L 487.838107 268.22869 
L 488.830813 297.574557 
L 489.823519 342.97664 
L 490.816225 331.011839 
L 491.808931 308.608379 
L 492.801637 300.144515 
L 493.794343 281.967354 
L 494.787049 275.43028 
L 495.779754 289.729969 
L 496.77246 319.699734 
L 497.765166 264.172281 
L 498.757872 235.094741 
L 499.750578 219.777066 
L 500.743284 212.550375 
L 501.73599 212.704207 
L 502.728696 217.456959 
L 504.714108 239.013607 
L 505.706814 250.287804 
L 506.69952 256.406718 
L 507.692226 266.320381 
L 508.684932 283.106356 
L 509.677637 291.257238 
L 511.663049 266.205937 
L 512.655755 258.615795 
L 513.648461 263.923157 
L 514.641167 274.005239 
L 515.633873 286.81063 
L 516.626579 280.411837 
L 517.619285 278.223475 
L 518.611991 281.17815 
L 519.604697 294.658966 
L 520.597403 284.136921 
L 521.590109 279.8537 
L 522.582814 279.102779 
L 523.57552 296.220084 
L 524.568226 292.293496 
L 525.560932 284.166274 
L 526.553638 280.101563 
L 527.546344 302.619199 
L 528.53905 392.258584 
L 529.531756 301.816047 
L 530.524462 282.138861 
L 531.517168 286.075692 
L 532.509874 305.210834 
L 533.50258 340.22738 
L 534.495286 307.177447 
L 535.487991 298.125499 
L 536.480697 315.580242 
L 537.473403 337.307021 
L 538.466109 306.907823 
L 539.458815 287.946575 
L 540.451521 296.203417 
L 541.444227 322.995276 
L 542.436933 371.195217 
L 543.429639 311.89829 
L 544.422345 302.511358 
L 545.415051 305.94273 
L 546.407757 354.780256 
L 547.400463 369.771738 
L 548.393168 317.500173 
L 549.385874 308.601682 
L 550.37858 304.63109 
L 551.371286 310.94213 
L 552.363992 320.578818 
L 553.356698 341.106369 
L 554.349404 358.56002 
L 555.34211 351.828253 
L 556.334816 350.875945 
L 557.327522 313.846507 
L 558.320228 302.334414 
L 559.312934 295.115379 
L 560.30564 299.342325 
L 561.298345 304.799414 
L 562.291051 305.721948 
L 563.283757 297.186881 
L 564.276463 305.752032 
L 565.269169 334.631588 
L 566.261875 343.227049 
L 567.254581 294.235151 
L 568.247287 280.789604 
L 569.239993 279.258833 
L 570.232699 297.574395 
L 571.225405 331.969129 
L 572.218111 352.638555 
L 573.210817 314.021371 
L 574.203523 315.229355 
L 575.196228 319.275796 
L 576.188934 319.079323 
L 577.18164 303.774951 
L 578.174346 303.368005 
L 579.167052 309.886583 
L 580.159758 347.126247 
L 581.152464 356.951891 
L 582.14517 318.289616 
L 583.137876 308.676677 
L 584.130582 308.117334 
L 585.123288 310.623613 
L 586.115994 319.579318 
L 587.1087 311.508405 
L 588.101405 306.093953 
L 589.094111 299.535982 
L 590.086817 299.377782 
L 591.079523 321.703423 
L 592.072229 370.63518 
L 593.064935 322.218827 
L 594.057641 297.387471 
L 595.050347 288.192244 
L 596.043053 283.950658 
L 597.035759 280.56378 
L 598.028465 272.963824 
L 599.021171 270.785363 
L 600.013877 272.938887 
L 601.006582 287.453615 
L 601.999288 305.786888 
L 602.991994 338.207628 
L 603.9847 421.060972 
L 604.977406 321.844624 
L 605.970112 280.764608 
L 606.962818 260.118281 
L 607.955524 246.953293 
L 608.94823 239.244802 
L 609.940936 236.366546 
L 610.933642 234.363325 
L 611.926348 235.369646 
L 612.919054 236.188882 
L 613.911759 240.57128 
L 614.904465 247.346101 
L 615.897171 260.817287 
L 617.882583 308.917435 
L 619.867995 275.638967 
L 620.860701 266.628736 
L 621.853407 267.006601 
L 622.846113 267.891513 
L 624.831525 278.671449 
L 625.824231 292.983825 
L 626.816936 312.49578 
L 627.809642 344.375033 
L 628.802348 330.6096 
L 629.795054 330.147561 
L 630.78776 328.018099 
L 631.780466 336.823195 
L 632.773172 322.083858 
L 633.765878 315.372425 
L 634.758584 302.284823 
L 635.75129 297.577844 
L 636.743996 299.010865 
L 637.736702 306.884275 
L 638.729408 327.9056 
L 639.722114 334.660384 
L 640.714819 326.574096 
L 641.707525 320.7586 
L 642.700231 308.150856 
L 643.692937 297.74349 
L 644.685643 289.634106 
L 645.678349 293.844796 
L 646.671055 306.287418 
L 647.663761 329.039062 
L 650.641879 291.989191 
L 652.627291 286.693392 
L 653.619996 295.78389 
L 655.605408 318.936725 
L 656.598114 305.347201 
L 657.59082 303.322721 
L 658.583526 310.29181 
L 659.576232 352.968258 
L 660.568938 378.21018 
L 661.561644 322.610832 
L 662.55435 313.38992 
L 663.547056 300.638163 
L 664.539762 292.380314 
L 665.532468 280.949179 
L 666.525173 279.233175 
L 667.517879 279.515061 
L 668.510585 287.069128 
L 669.503291 291.867174 
L 671.488703 309.694243 
L 673.474115 359.853558 
L 675.459527 308.707339 
L 676.452233 300.370292 
L 677.444939 293.980383 
L 678.437645 298.141307 
L 679.43035 302.967213 
L 680.423056 321.819749 
L 681.415762 354.123184 
L 682.408468 390.276663 
L 683.401174 339.739686 
L 684.39388 322.562384 
L 685.386586 309.764949 
L 686.379292 308.185913 
L 687.371998 302.764136 
L 688.364704 307.314601 
L 689.35741 313.389868 
L 690.350116 339.690557 
L 691.342822 395.575175 
L 692.335527 329.806681 
L 693.328233 305.765009 
L 694.320939 299.050668 
L 695.313645 296.027856 
L 696.306351 303.924158 
L 697.299057 310.552841 
L 699.284469 332.655594 
L 700.277175 336.816238 
L 701.269881 361.086658 
L 702.262587 407.803009 
L 703.255293 355.070447 
L 704.247999 319.378382 
L 705.240705 298.893465 
L 706.23341 286.051889 
L 707.226116 279.541067 
L 708.218822 274.47058 
L 709.211528 275.64529 
L 710.204234 278.317618 
L 711.19694 290.150765 
L 712.189646 305.284407 
L 713.182352 327.155508 
L 714.175058 316.674491 
L 716.16047 284.082622 
L 717.153176 272.67867 
L 718.145882 264.976884 
L 719.138587 258.971124 
L 720.131293 256.486968 
L 721.123999 253.122003 
L 722.116705 252.880993 
L 723.109411 253.561146 
L 724.102117 259.88891 
L 725.094823 271.832368 
L 726.087529 291.877662 
L 727.080235 317.117073 
L 728.072941 304.515881 
L 729.065647 289.039422 
L 730.058353 283.440907 
L 731.051059 278.637262 
L 732.043764 278.56668 
L 733.03647 277.031576 
L 734.029176 281.886103 
L 735.021882 289.634225 
L 737.007294 325.496701 
L 738 328.287074 
L 738.992706 313.004133 
L 739.985412 311.360545 
L 740.978118 306.505014 
L 741.970824 307.0471 
L 742.96353 301.57544 
L 743.956236 304.376288 
L 744.948941 306.548833 
L 746.934353 332.592141 
L 747.927059 371.639164 
L 748.919765 367.729628 
L 749.912471 336.637296 
L 750.905177 317.771838 
L 751.897883 315.807188 
L 752.890589 319.366668 
L 753.883295 344.918856 
L 754.876001 377.449233 
L 755.868707 372.162949 
L 756.861413 353.494127 
L 757.854118 343.395374 
L 758.846824 337.949629 
L 759.83953 329.638762 
L 760.832236 326.74742 
L 762.817648 340.303367 
L 763.810354 367.357555 
L 764.80306 384.183114 
L 765.795766 413.714981 
L 766.788472 357.382624 
L 768.773884 330.411314 
L 769.76659 330.561843 
L 770.759295 331.235285 
L 771.752001 331.146433 
L 772.744707 329.827053 
L 773.737413 325.073308 
L 774.730119 327.810068 
L 775.722825 325.050075 
L 776.715531 331.393739 
L 777.708237 326.064771 
L 778.700943 325.582082 
L 779.693649 317.998458 
L 780.686355 320.895413 
L 781.679061 326.664988 
L 782.671767 348.661203 
L 783.664473 401.585423 
L 784.657178 367.897449 
L 785.649884 328.35603 
L 786.64259 315.681809 
L 787.635296 305.674965 
L 788.628002 309.032442 
L 789.620708 315.055918 
L 790.613414 340.547213 
L 791.60612 361.245591 
L 792.598826 347.986944 
L 793.591532 326.45297 
L 795.576944 309.413253 
L 796.56965 307.82678 
L 797.562355 308.186437 
L 798.555061 324.244622 
L 799.547767 355.487681 
L 800.540473 373.513317 
L 801.533179 328.348742 
L 802.525885 310.938881 
L 803.518591 306.697933 
L 804.511297 312.191456 
L 805.504003 319.449404 
L 806.496709 337.706844 
L 807.489415 346.361992 
L 808.482121 366.951722 
L 809.474827 370.984366 
L 810.467532 392.928011 
L 811.460238 408.39625 
L 812.452944 381.186843 
L 813.44565 338.118998 
L 815.431062 305.655391 
L 816.423768 297.8952 
L 817.416474 294.30672 
L 818.40918 293.818581 
L 819.401886 300.744714 
L 820.394592 308.552505 
L 821.387298 326.065993 
L 822.380004 330.038128 
L 823.372709 328.768477 
L 824.365415 316.553461 
L 825.358121 313.895864 
L 826.350827 308.392799 
L 827.343533 306.231175 
L 828.336239 300.889869 
L 829.328945 293.119691 
L 831.314357 281.60198 
L 832.307063 283.213026 
L 833.299769 287.578012 
L 834.292475 301.869493 
L 836.277886 347.586179 
L 837.270592 340.568497 
L 838.263298 323.023095 
L 839.256004 310.932707 
L 841.241416 296.04378 
L 842.234122 297.266597 
L 843.226828 301.172646 
L 844.219534 318.192525 
L 845.21224 337.444448 
L 846.204946 354.422289 
L 847.197652 335.224802 
L 848.190358 330.801672 
L 849.183064 324.808371 
L 850.175769 327.452891 
L 851.168475 323.462744 
L 852.161181 329.294515 
L 853.153887 330.713243 
L 854.146593 345.054163 
L 855.139299 349.155208 
L 856.132005 370.781531 
L 857.124711 387.33197 
L 858.117417 408.661619 
L 859.110123 375.997794 
L 860.102829 352.409262 
L 861.095535 347.555938 
L 862.088241 358.530944 
L 863.080946 372.840153 
L 864.073652 415.211065 
L 865.066358 399.399008 
L 866.059064 380.121053 
L 867.05177 376.913853 
L 868.044476 355.089798 
L 869.037182 345.827881 
L 870.029888 338.870199 
L 871.022594 342.467987 
L 873.008006 373.294672 
L 874.000712 384.757548 
L 874.993418 382.959499 
L 876.978829 420.525624 
L 877.971535 408.924676 
L 878.964241 401.484084 
L 880.949653 363.008841 
L 881.942359 341.631382 
L 882.935065 334.536349 
L 883.927771 331.21022 
L 884.920477 341.417267 
L 885.913183 340.720694 
L 886.905889 335.716333 
L 887.898595 325.999202 
L 888.8913 329.398393 
L 889.884006 335.339895 
L 890.876712 359.720695 
L 891.869418 369.434697 
L 892.862124 363.231705 
L 894.847536 342.930255 
L 895.840242 338.9808 
L 896.832948 340.151189 
L 897.825654 350.586866 
L 899.811066 408.654829 
L 900.803772 362.330606 
L 901.796477 356.387923 
L 902.789183 346.575133 
L 903.781889 352.71077 
L 904.774595 351.792414 
L 905.767301 367.423445 
L 906.760007 395.35322 
L 907.752713 383.419189 
L 908.745419 361.129119 
L 909.738125 351.87725 
L 910.730831 346.37375 
L 911.723537 357.952503 
L 912.716243 357.142402 
L 913.708949 353.552559 
L 914.701655 355.195855 
L 915.69436 347.809948 
L 916.687066 353.133768 
L 917.679772 348.169699 
L 918.672478 363.791056 
L 919.665184 368.081946 
L 920.65789 364.684095 
L 921.650596 338.03342 
L 922.643302 327.910325 
L 923.636008 319.342402 
L 924.628714 323.188397 
L 925.62142 325.571587 
L 926.614126 336.588637 
L 927.606832 344.597753 
L 928.599537 346.329187 
L 929.592243 353.698382 
L 930.584949 348.302002 
L 931.577655 354.667467 
L 932.570361 347.013252 
L 933.563067 352.461947 
L 934.555773 347.524938 
L 935.548479 351.702029 
L 936.541185 339.2176 
L 937.533891 335.307845 
L 938.526597 327.985653 
L 939.519303 328.696893 
L 940.512009 332.742762 
L 941.504714 333.842373 
L 942.49742 343.769605 
L 943.490126 347.435209 
L 944.482832 356.960684 
L 945.475538 370.36515 
L 946.468244 363.443985 
L 947.46095 362.438847 
L 948.453656 345.44968 
L 949.446362 336.229015 
L 950.439068 332.688346 
L 951.431774 331.413929 
L 953.417186 357.011884 
L 954.409891 400.834598 
L 955.402597 398.109748 
L 956.395303 385.010346 
L 957.388009 363.935053 
L 959.373421 336.233535 
L 960.366127 333.498672 
L 961.358833 330.149459 
L 962.351539 339.091054 
L 963.344245 341.555089 
L 964.336951 353.959287 
L 965.329657 353.942797 
L 966.322363 372.010414 
L 967.315068 394.522949 
L 968.307774 403.433175 
L 969.30048 380.37024 
L 970.293186 366.911137 
L 971.285892 363.01385 
L 972.278598 382.653201 
L 973.271304 391.94931 
L 974.26401 433.130814 
L 975.256716 437.885863 
L 976.249422 386.929771 
L 977.242128 369.89904 
L 978.234834 349.656796 
L 979.22754 347.475997 
L 980.220246 350.351712 
L 981.212951 359.559712 
L 982.205657 378.727414 
L 983.198363 381.46698 
L 984.191069 394.042026 
L 985.183775 373.965894 
L 986.176481 372.979552 
L 987.169187 364.190021 
L 988.161893 366.756271 
L 989.154599 363.095266 
L 991.140011 348.322786 
L 992.132717 349.046033 
L 993.125423 359.933607 
L 994.118128 372.414196 
L 995.110834 371.32205 
L 996.10354 366.776706 
L 997.096246 367.692189 
L 998.088952 383.958921 
L 999.081658 404.831772 
L 1000.074364 409.953531 
L 1001.06707 383.373856 
L 1002.059776 396.068755 
L 1003.052482 387.3349 
L 1004.045188 397.936522 
L 1005.037894 384.962789 
L 1006.0306 383.379693 
L 1007.023305 385.647028 
L 1008.016011 369.321488 
L 1009.008717 375.08355 
L 1010.001423 376.854105 
L 1010.994129 375.692621 
L 1011.986835 381.951381 
L 1012.979541 364.600512 
L 1013.972247 357.494704 
L 1014.964953 354.365604 
L 1015.957659 349.918808 
L 1016.950365 361.860403 
L 1017.943071 367.030532 
L 1018.935777 386.182931 
L 1019.928482 382.828941 
L 1020.921188 357.358095 
L 1021.913894 352.463151 
L 1022.9066 343.9575 
L 1023.899306 344.636883 
L 1025.884718 355.227899 
L 1026.877424 378.832342 
L 1027.87013 388.761017 
L 1028.862836 393.041072 
L 1029.855542 391.138819 
L 1030.848248 367.028257 
L 1031.840954 351.314286 
L 1032.833659 345.046787 
L 1033.826365 334.203716 
L 1034.819071 334.577515 
L 1035.811777 330.546461 
L 1037.797189 339.540839 
L 1038.789895 347.622337 
L 1039.782601 363.071069 
L 1040.775307 364.211022 
L 1041.768013 374.661755 
L 1042.760719 372.743878 
L 1043.753425 382.373722 
L 1044.746131 376.739383 
L 1045.738837 365.506373 
L 1046.731542 345.990561 
L 1047.724248 339.351128 
L 1048.716954 336.66551 
L 1049.70966 340.765695 
L 1051.695072 373.417387 
L 1052.687778 414.690887 
L 1054.67319 355.228323 
L 1055.665896 346.189688 
L 1056.658602 333.80077 
L 1057.651308 335.300329 
L 1058.644014 336.09348 
L 1059.636719 345.332922 
L 1060.629425 360.224417 
L 1061.622131 368.707444 
L 1062.614837 392.558907 
L 1063.607543 386.667967 
L 1064.600249 399.768537 
L 1065.592955 401.271158 
L 1066.585661 393.540509 
L 1067.578367 390.120388 
L 1068.571073 365.737091 
L 1069.563779 353.423061 
L 1070.556485 350.659642 
L 1071.549191 344.293502 
L 1072.541896 347.570179 
L 1073.534602 341.142228 
L 1074.527308 346.47895 
L 1075.520014 346.827472 
L 1076.51272 364.303144 
L 1077.505426 388.439028 
L 1078.498132 427.869213 
L 1079.490838 403.609133 
L 1081.47625 373.126079 
L 1082.468956 379.440825 
L 1083.461662 371.524772 
L 1084.454368 392.615756 
L 1085.447073 405.872221 
L 1086.439779 416.498243 
L 1087.432485 381.408732 
L 1088.425191 352.810879 
L 1089.417897 343.100876 
L 1090.410603 336.974218 
L 1091.403309 334.218209 
L 1092.396015 335.083969 
L 1093.388721 334.542324 
L 1094.381427 339.860679 
L 1095.374133 341.657681 
L 1096.366839 352.013951 
L 1097.359545 356.303167 
L 1098.35225 379.914936 
L 1099.344956 395.233971 
L 1100.337662 448.61888 
L 1101.330368 446.069393 
L 1102.323074 411.152308 
L 1103.31578 424.836572 
L 1104.308486 380.73732 
L 1106.293898 354.001696 
L 1107.286604 360.393526 
L 1108.27931 360.008804 
L 1109.272016 373.827045 
L 1110.264722 371.474765 
L 1111.257428 402.409719 
L 1112.250133 442.308279 
L 1113.242839 374.971193 
L 1114.235545 353.004638 
L 1115.228251 339.291927 
L 1116.220957 338.744913 
L 1117.213663 349.070346 
L 1118.206369 366.461327 
L 1119.199075 432.348831 
L 1121.184487 358.902062 
L 1122.177193 354.553227 
L 1123.169899 346.019224 
L 1124.162605 351.636914 
L 1125.15531 356.453108 
L 1126.148016 366.778036 
L 1127.140722 387.560201 
L 1130.11884 357.17316 
L 1131.111546 343.00675 
L 1132.104252 341.100788 
L 1133.096958 334.458819 
L 1134.089664 337.045761 
L 1135.08237 343.413001 
L 1136.075076 355.673704 
L 1137.067782 387.84841 
L 1138.060487 392.030302 
L 1139.053193 361.908684 
L 1140.045899 349.83573 
L 1141.038605 341.046338 
L 1142.031311 337.384067 
L 1144.016723 335.910519 
L 1145.009429 344.425639 
L 1146.002135 347.145425 
L 1146.994841 356.03543 
L 1147.987547 353.764538 
L 1148.980253 348.818001 
L 1149.972959 357.48166 
L 1150.965664 361.209746 
L 1151.95837 381.515049 
L 1152.951076 367.325307 
L 1153.943782 362.866498 
L 1154.936488 350.305576 
L 1155.929194 355.043444 
L 1156.9219 351.671917 
L 1157.914606 362.437276 
L 1158.907312 364.12008 
L 1159.900018 375.547992 
L 1160.892724 382.469826 
L 1161.88543 364.442585 
L 1162.878136 357.621084 
L 1163.870841 347.006613 
L 1164.863547 341.901464 
L 1165.856253 345.134899 
L 1166.848959 343.405657 
L 1167.841665 353.257276 
L 1168.834371 353.947211 
L 1169.827077 361.740431 
L 1170.819783 363.302753 
L 1171.812489 366.583568 
L 1172.805195 379.917835 
L 1173.797901 389.892363 
L 1174.790607 464.278763 
L 1175.783313 427.562566 
L 1176.776019 385.070723 
L 1177.768724 375.573356 
L 1179.754136 366.339835 
L 1180.746842 364.153213 
L 1181.739548 354.554862 
L 1182.732254 354.250284 
L 1183.72496 349.787747 
L 1184.717666 362.030792 
L 1185.710372 367.937129 
L 1187.695784 439.973301 
L 1188.68849 424.314418 
L 1189.681196 411.618584 
L 1190.673901 394.090322 
L 1191.666607 389.758333 
L 1192.659313 397.417752 
L 1193.652019 401.353862 
L 1194.644725 492.48 
L 1196.630137 381.766158 
L 1197.622843 371.594431 
L 1198.615549 352.60664 
L 1199.608255 351.85816 
L 1200.600961 347.454524 
L 1201.593667 352.685808 
L 1203.579078 359.410065 
L 1204.571784 358.63256 
L 1205.56449 356.35314 
L 1206.557196 362.884386 
L 1207.549902 367.254896 
L 1208.542608 400.005738 
L 1209.535314 410.031671 
L 1210.52802 401.205446 
L 1211.520726 375.612944 
L 1212.513432 375.358782 
L 1213.506138 365.457371 
L 1214.498844 376.279115 
L 1215.49155 372.545229 
L 1216.484255 375.273887 
L 1217.476961 366.874248 
L 1218.469667 357.382501 
L 1219.462373 356.551346 
L 1220.455079 351.247258 
L 1221.447785 363.127511 
L 1222.440491 370.213758 
L 1223.433197 370.50848 
L 1224.425903 369.847202 
L 1225.418609 356.229468 
L 1226.411315 356.16546 
L 1227.404021 359.988568 
L 1228.396727 364.578742 
L 1229.389432 379.008605 
L 1231.374844 400.347889 
L 1232.36755 384.191676 
L 1233.360256 357.201469 
L 1234.352962 349.569933 
L 1235.345668 346.852604 
L 1236.338374 353.704268 
L 1237.33108 379.772341 
L 1238.323786 378.938681 
L 1239.316492 354.48652 
L 1240.309198 340.233318 
L 1241.301904 328.485563 
L 1242.29461 329.74462 
L 1243.287315 329.129089 
L 1244.280021 339.407693 
L 1245.272727 343.046548 
L 1245.272727 343.046548 
" clip-path="url(#pcda6086c87)" style="fill: none; stroke: #1f77b4; stroke-width: 1.5; stroke-linecap: square"/>
   </g>
   <g id="patch_3">
    <path d="M 180 512.64 
L 180 69.12 
" style="fill: none; stroke: #000000; stroke-width: 0.8; stroke-linejoin: miter; stroke-linecap: square"/>
   </g>
   <g id="patch_4">
    <path d="M 1296 512.64 
L 1296 69.12 
" style="fill: none; stroke: #000000; stroke-width: 0.8; stroke-linejoin: miter; stroke-linecap: square"/>
   </g>
   <g id="patch_5">
    <path d="M 180 512.64 
L 1296 512.64 
" style="fill: none; stroke: #000000; stroke-width: 0.8; stroke-linejoin: miter; stroke-linecap: square"/>
   </g>
   <g id="patch_6">
    <path d="M 180 69.12 
L 1296 69.12 
" style="fill: none; stroke: #000000; stroke-width: 0.8; stroke-linejoin: miter; stroke-linecap: square"/>
   </g>
   <g id="text_13">
    <!-- source17-receiver8 -->
    <g transform="translate(544.9 60.80125) scale(0.4 -0.4)">
     <defs>
      <path id="DejaVuSans-73" d="M 2834 3397 
L 2834 2853 
Q 2591 2978 2328 3040 
Q 2066 3103 1784 3103 
Q 1356 3103 1142 2972 
Q 928 2841 928 2578 
Q 928 2378 1081 2264 
Q 1234 2150 1697 2047 
L 1894 2003 
Q 2506 1872 2764 1633 
Q 3022 1394 3022 966 
Q 3022 478 2636 193 
Q 2250 -91 1575 -91 
Q 1294 -91 989 -36 
Q 684 19 347 128 
L 347 722 
Q 666 556 975 473 
Q 1284 391 1588 391 
Q 1994 391 2212 530 
Q 2431 669 2431 922 
Q 2431 1156 2273 1281 
Q 2116 1406 1581 1522 
L 1381 1569 
Q 847 1681 609 1914 
Q 372 2147 372 2553 
Q 372 3047 722 3315 
Q 1072 3584 1716 3584 
Q 2034 3584 2315 3537 
Q 2597 3491 2834 3397 
z
" transform="scale(0.015625)"/>
      <path id="DejaVuSans-6f" d="M 1959 3097 
Q 1497 3097 1228 2736 
Q 959 2375 959 1747 
Q 959 1119 1226 758 
Q 1494 397 1959 397 
Q 2419 397 2687 759 
Q 2956 1122 2956 1747 
Q 2956 2369 2687 2733 
Q 2419 3097 1959 3097 
z
M 1959 3584 
Q 2709 3584 3137 3096 
Q 3566 2609 3566 1747 
Q 3566 888 3137 398 
Q 2709 -91 1959 -91 
Q 1206 -91 779 398 
Q 353 888 353 1747 
Q 353 2609 779 3096 
Q 1206 3584 1959 3584 
z
" transform="scale(0.015625)"/>
      <path id="DejaVuSans-75" d="M 544 1381 
L 544 3500 
L 1119 3500 
L 1119 1403 
Q 1119 906 1312 657 
Q 1506 409 1894 409 
Q 2359 409 2629 706 
Q 2900 1003 2900 1516 
L 2900 3500 
L 3475 3500 
L 3475 0 
L 2900 0 
L 2900 538 
Q 2691 219 2414 64 
Q 2138 -91 1772 -91 
Q 1169 -91 856 284 
Q 544 659 544 1381 
z
M 1991 3584 
L 1991 3584 
z
" transform="scale(0.015625)"/>
      <path id="DejaVuSans-72" d="M 2631 2963 
Q 2534 3019 2420 3045 
Q 2306 3072 2169 3072 
Q 1681 3072 1420 2755 
Q 1159 2438 1159 1844 
L 1159 0 
L 581 0 
L 581 3500 
L 1159 3500 
L 1159 2956 
Q 1341 3275 1631 3429 
Q 1922 3584 2338 3584 
Q 2397 3584 2469 3576 
Q 2541 3569 2628 3553 
L 2631 2963 
z
" transform="scale(0.015625)"/>
      <path id="DejaVuSans-63" d="M 3122 3366 
L 3122 2828 
Q 2878 2963 2633 3030 
Q 2388 3097 2138 3097 
Q 1578 3097 1268 2742 
Q 959 2388 959 1747 
Q 959 1106 1268 751 
Q 1578 397 2138 397 
Q 2388 397 2633 464 
Q 2878 531 3122 666 
L 3122 134 
Q 2881 22 2623 -34 
Q 2366 -91 2075 -91 
Q 1284 -91 818 406 
Q 353 903 353 1747 
Q 353 2603 823 3093 
Q 1294 3584 2113 3584 
Q 2378 3584 2631 3529 
Q 2884 3475 3122 3366 
z
" transform="scale(0.015625)"/>
      <path id="DejaVuSans-65" d="M 3597 1894 
L 3597 1613 
L 953 1613 
Q 991 1019 1311 708 
Q 1631 397 2203 397 
Q 2534 397 2845 478 
Q 3156 559 3463 722 
L 3463 178 
Q 3153 47 2828 -22 
Q 2503 -91 2169 -91 
Q 1331 -91 842 396 
Q 353 884 353 1716 
Q 353 2575 817 3079 
Q 1281 3584 2069 3584 
Q 2775 3584 3186 3129 
Q 3597 2675 3597 1894 
z
M 3022 2063 
Q 3016 2534 2758 2815 
Q 2500 3097 2075 3097 
Q 1594 3097 1305 2825 
Q 1016 2553 972 2059 
L 3022 2063 
z
" transform="scale(0.015625)"/>
      <path id="DejaVuSans-37" d="M 525 4666 
L 3525 4666 
L 3525 4397 
L 1831 0 
L 1172 0 
L 2766 4134 
L 525 4134 
L 525 4666 
z
" transform="scale(0.015625)"/>
      <path id="DejaVuSans-2d" d="M 313 2009 
L 1997 2009 
L 1997 1497 
L 313 1497 
L 313 2009 
z
" transform="scale(0.015625)"/>
      <path id="DejaVuSans-69" d="M 603 3500 
L 1178 3500 
L 1178 0 
L 603 0 
L 603 3500 
z
M 603 4863 
L 1178 4863 
L 1178 4134 
L 603 4134 
L 603 4863 
z
" transform="scale(0.015625)"/>
      <path id="DejaVuSans-76" d="M 191 3500 
L 800 3500 
L 1894 563 
L 2988 3500 
L 3597 3500 
L 2284 0 
L 1503 0 
L 191 3500 
z
" transform="scale(0.015625)"/>
      <path id="DejaVuSans-38" d="M 2034 2216 
Q 1584 2216 1326 1975 
Q 1069 1734 1069 1313 
Q 1069 891 1326 650 
Q 1584 409 2034 409 
Q 2484 409 2743 651 
Q 3003 894 3003 1313 
Q 3003 1734 2745 1975 
Q 2488 2216 2034 2216 
z
M 1403 2484 
Q 997 2584 770 2862 
Q 544 3141 544 3541 
Q 544 4100 942 4425 
Q 1341 4750 2034 4750 
Q 2731 4750 3128 4425 
Q 3525 4100 3525 3541 
Q 3525 3141 3298 2862 
Q 3072 2584 2669 2484 
Q 3125 2378 3379 2068 
Q 3634 1759 3634 1313 
Q 3634 634 3220 271 
Q 2806 -91 2034 -91 
Q 1263 -91 848 271 
Q 434 634 434 1313 
Q 434 1759 690 2068 
Q 947 2378 1403 2484 
z
M 1172 3481 
Q 1172 3119 1398 2916 
Q 1625 2713 2034 2713 
Q 2441 2713 2670 2916 
Q 2900 3119 2900 3481 
Q 2900 3844 2670 4047 
Q 2441 4250 2034 4250 
Q 1625 4250 1398 4047 
Q 1172 3844 1172 3481 
z
" transform="scale(0.015625)"/>
     </defs>
     <use xlink:href="#DejaVuSans-73"/>
     <use xlink:href="#DejaVuSans-6f" x="52.099609"/>
     <use xlink:href="#DejaVuSans-75" x="113.28125"/>
     <use xlink:href="#DejaVuSans-72" x="176.660156"/>
     <use xlink:href="#DejaVuSans-63" x="215.523438"/>
     <use xlink:href="#DejaVuSans-65" x="270.503906"/>
     <use xlink:href="#DejaVuSans-31" x="332.027344"/>
     <use xlink:href="#DejaVuSans-37" x="395.650391"/>
     <use xlink:href="#DejaVuSans-2d" x="459.273438"/>
     <use xlink:href="#DejaVuSans-72" x="495.357422"/>
     <use xlink:href="#DejaVuSans-65" x="534.220703"/>
     <use xlink:href="#DejaVuSans-63" x="595.744141"/>
     <use xlink:href="#DejaVuSans-65" x="650.724609"/>
     <use xlink:href="#DejaVuSans-69" x="712.248047"/>
     <use xlink:href="#DejaVuSans-76" x="740.03125"/>
     <use xlink:href="#DejaVuSans-65" x="799.210938"/>
     <use xlink:href="#DejaVuSans-72" x="860.734375"/>
     <use xlink:href="#DejaVuSans-38" x="901.847656"/>
    </g>
   </g>
  </g>
 </g>
 <defs>
  <clipPath id="pcda6086c87">
   <rect x="180" y="69.12" width="1116" height="443.52"/>
  </clipPath>
 </defs>
</svg>
