<?xml version="1.0" encoding="utf-8" standalone="no"?>
<!DOCTYPE svg PUBLIC "-//W3C//DTD SVG 1.1//EN"
  "http://www.w3.org/Graphics/SVG/1.1/DTD/svg11.dtd">
<svg xmlns:xlink="http://www.w3.org/1999/xlink" width="1440pt" height="576pt" viewBox="0 0 1440 576" xmlns="http://www.w3.org/2000/svg" version="1.1">
 <metadata>
  <rdf:RDF xmlns:dc="http://purl.org/dc/elements/1.1/" xmlns:cc="http://creativecommons.org/ns#" xmlns:rdf="http://www.w3.org/1999/02/22-rdf-syntax-ns#">
   <cc:Work>
    <dc:type rdf:resource="http://purl.org/dc/dcmitype/StillImage"/>
    <dc:date>2024-05-22T04:50:00.455127</dc:date>
    <dc:format>image/svg+xml</dc:format>
    <dc:creator>
     <cc:Agent>
      <dc:title>Matplotlib v3.8.3, https://matplotlib.org/</dc:title>
     </cc:Agent>
    </dc:creator>
   </cc:Work>
  </rdf:RDF>
 </metadata>
 <defs>
  <style type="text/css">*{stroke-linejoin: round; stroke-linecap: butt}</style>
 </defs>
 <g id="figure_1">
  <g id="patch_1">
   <path d="M 0 576 
L 1440 576 
L 1440 0 
L 0 0 
z
" style="fill: #ffffff"/>
  </g>
  <g id="axes_1">
   <g id="patch_2">
    <path d="M 180 512.64 
L 1296 512.64 
L 1296 69.12 
L 180 69.12 
z
" style="fill: #ffffff"/>
   </g>
   <g id="matplotlib.axis_1">
    <g id="xtick_1">
     <g id="line2d_1">
      <defs>
       <path id="mb95c8f3130" d="M 0 0 
L 0 3.5 
" style="stroke: #000000; stroke-width: 0.8"/>
      </defs>
      <g>
       <use xlink:href="#mb95c8f3130" x="229.734567" y="512.64" style="stroke: #000000; stroke-width: 0.8"/>
      </g>
     </g>
     <g id="text_1">
      <!-- 0 -->
      <g transform="translate(226.553317 527.238438) scale(0.1 -0.1)">
       <defs>
        <path id="DejaVuSans-30" d="M 2034 4250 
Q 1547 4250 1301 3770 
Q 1056 3291 1056 2328 
Q 1056 1369 1301 889 
Q 1547 409 2034 409 
Q 2525 409 2770 889 
Q 3016 1369 3016 2328 
Q 3016 3291 2770 3770 
Q 2525 4250 2034 4250 
z
M 2034 4750 
Q 2819 4750 3233 4129 
Q 3647 3509 3647 2328 
Q 3647 1150 3233 529 
Q 2819 -91 2034 -91 
Q 1250 -91 836 529 
Q 422 1150 422 2328 
Q 422 3509 836 4129 
Q 1250 4750 2034 4750 
z
" transform="scale(0.015625)"/>
       </defs>
       <use xlink:href="#DejaVuSans-30"/>
      </g>
     </g>
    </g>
    <g id="xtick_2">
     <g id="line2d_2">
      <g>
       <use xlink:href="#mb95c8f3130" x="433.04074" y="512.64" style="stroke: #000000; stroke-width: 0.8"/>
      </g>
     </g>
     <g id="text_2">
      <!-- 500 -->
      <g transform="translate(423.49699 527.238438) scale(0.1 -0.1)">
       <defs>
        <path id="DejaVuSans-35" d="M 691 4666 
L 3169 4666 
L 3169 4134 
L 1269 4134 
L 1269 2991 
Q 1406 3038 1543 3061 
Q 1681 3084 1819 3084 
Q 2600 3084 3056 2656 
Q 3513 2228 3513 1497 
Q 3513 744 3044 326 
Q 2575 -91 1722 -91 
Q 1428 -91 1123 -41 
Q 819 9 494 109 
L 494 744 
Q 775 591 1075 516 
Q 1375 441 1709 441 
Q 2250 441 2565 725 
Q 2881 1009 2881 1497 
Q 2881 1984 2565 2268 
Q 2250 2553 1709 2553 
Q 1456 2553 1204 2497 
Q 953 2441 691 2322 
L 691 4666 
z
" transform="scale(0.015625)"/>
       </defs>
       <use xlink:href="#DejaVuSans-35"/>
       <use xlink:href="#DejaVuSans-30" x="63.623047"/>
       <use xlink:href="#DejaVuSans-30" x="127.246094"/>
      </g>
     </g>
    </g>
    <g id="xtick_3">
     <g id="line2d_3">
      <g>
       <use xlink:href="#mb95c8f3130" x="636.346913" y="512.64" style="stroke: #000000; stroke-width: 0.8"/>
      </g>
     </g>
     <g id="text_3">
      <!-- 1000 -->
      <g transform="translate(623.621913 527.238438) scale(0.1 -0.1)">
       <defs>
        <path id="DejaVuSans-31" d="M 794 531 
L 1825 531 
L 1825 4091 
L 703 3866 
L 703 4441 
L 1819 4666 
L 2450 4666 
L 2450 531 
L 3481 531 
L 3481 0 
L 794 0 
L 794 531 
z
" transform="scale(0.015625)"/>
       </defs>
       <use xlink:href="#DejaVuSans-31"/>
       <use xlink:href="#DejaVuSans-30" x="63.623047"/>
       <use xlink:href="#DejaVuSans-30" x="127.246094"/>
       <use xlink:href="#DejaVuSans-30" x="190.869141"/>
      </g>
     </g>
    </g>
    <g id="xtick_4">
     <g id="line2d_4">
      <g>
       <use xlink:href="#mb95c8f3130" x="839.653087" y="512.64" style="stroke: #000000; stroke-width: 0.8"/>
      </g>
     </g>
     <g id="text_4">
      <!-- 1500 -->
      <g transform="translate(826.928087 527.238438) scale(0.1 -0.1)">
       <use xlink:href="#DejaVuSans-31"/>
       <use xlink:href="#DejaVuSans-35" x="63.623047"/>
       <use xlink:href="#DejaVuSans-30" x="127.246094"/>
       <use xlink:href="#DejaVuSans-30" x="190.869141"/>
      </g>
     </g>
    </g>
    <g id="xtick_5">
     <g id="line2d_5">
      <g>
       <use xlink:href="#mb95c8f3130" x="1042.95926" y="512.64" style="stroke: #000000; stroke-width: 0.8"/>
      </g>
     </g>
     <g id="text_5">
      <!-- 2000 -->
      <g transform="translate(1030.23426 527.238438) scale(0.1 -0.1)">
       <defs>
        <path id="DejaVuSans-32" d="M 1228 531 
L 3431 531 
L 3431 0 
L 469 0 
L 469 531 
Q 828 903 1448 1529 
Q 2069 2156 2228 2338 
Q 2531 2678 2651 2914 
Q 2772 3150 2772 3378 
Q 2772 3750 2511 3984 
Q 2250 4219 1831 4219 
Q 1534 4219 1204 4116 
Q 875 4013 500 3803 
L 500 4441 
Q 881 4594 1212 4672 
Q 1544 4750 1819 4750 
Q 2544 4750 2975 4387 
Q 3406 4025 3406 3419 
Q 3406 3131 3298 2873 
Q 3191 2616 2906 2266 
Q 2828 2175 2409 1742 
Q 1991 1309 1228 531 
z
" transform="scale(0.015625)"/>
       </defs>
       <use xlink:href="#DejaVuSans-32"/>
       <use xlink:href="#DejaVuSans-30" x="63.623047"/>
       <use xlink:href="#DejaVuSans-30" x="127.246094"/>
       <use xlink:href="#DejaVuSans-30" x="190.869141"/>
      </g>
     </g>
    </g>
    <g id="xtick_6">
     <g id="line2d_6">
      <g>
       <use xlink:href="#mb95c8f3130" x="1246.265433" y="512.64" style="stroke: #000000; stroke-width: 0.8"/>
      </g>
     </g>
     <g id="text_6">
      <!-- 2500 -->
      <g transform="translate(1233.540433 527.238438) scale(0.1 -0.1)">
       <use xlink:href="#DejaVuSans-32"/>
       <use xlink:href="#DejaVuSans-35" x="63.623047"/>
       <use xlink:href="#DejaVuSans-30" x="127.246094"/>
       <use xlink:href="#DejaVuSans-30" x="190.869141"/>
      </g>
     </g>
    </g>
   </g>
   <g id="matplotlib.axis_2">
    <g id="ytick_1">
     <g id="line2d_7">
      <defs>
       <path id="m3346f04572" d="M 0 0 
L -3.5 0 
" style="stroke: #000000; stroke-width: 0.8"/>
      </defs>
      <g>
       <use xlink:href="#m3346f04572" x="180" y="498.683805" style="stroke: #000000; stroke-width: 0.8"/>
      </g>
     </g>
     <g id="text_7">
      <!-- −2 -->
      <g transform="translate(158.257812 502.483024) scale(0.1 -0.1)">
       <defs>
        <path id="DejaVuSans-2212" d="M 678 2272 
L 4684 2272 
L 4684 1741 
L 678 1741 
L 678 2272 
z
" transform="scale(0.015625)"/>
       </defs>
       <use xlink:href="#DejaVuSans-2212"/>
       <use xlink:href="#DejaVuSans-32" x="83.789062"/>
      </g>
     </g>
    </g>
    <g id="ytick_2">
     <g id="line2d_8">
      <g>
       <use xlink:href="#m3346f04572" x="180" y="433.184091" style="stroke: #000000; stroke-width: 0.8"/>
      </g>
     </g>
     <g id="text_8">
      <!-- −1 -->
      <g transform="translate(158.257812 436.98331) scale(0.1 -0.1)">
       <use xlink:href="#DejaVuSans-2212"/>
       <use xlink:href="#DejaVuSans-31" x="83.789062"/>
      </g>
     </g>
    </g>
    <g id="ytick_3">
     <g id="line2d_9">
      <g>
       <use xlink:href="#m3346f04572" x="180" y="367.684376" style="stroke: #000000; stroke-width: 0.8"/>
      </g>
     </g>
     <g id="text_9">
      <!-- 0 -->
      <g transform="translate(166.6375 371.483595) scale(0.1 -0.1)">
       <use xlink:href="#DejaVuSans-30"/>
      </g>
     </g>
    </g>
    <g id="ytick_4">
     <g id="line2d_10">
      <g>
       <use xlink:href="#m3346f04572" x="180" y="302.184662" style="stroke: #000000; stroke-width: 0.8"/>
      </g>
     </g>
     <g id="text_10">
      <!-- 1 -->
      <g transform="translate(166.6375 305.983881) scale(0.1 -0.1)">
       <use xlink:href="#DejaVuSans-31"/>
      </g>
     </g>
    </g>
    <g id="ytick_5">
     <g id="line2d_11">
      <g>
       <use xlink:href="#m3346f04572" x="180" y="236.684947" style="stroke: #000000; stroke-width: 0.8"/>
      </g>
     </g>
     <g id="text_11">
      <!-- 2 -->
      <g transform="translate(166.6375 240.484166) scale(0.1 -0.1)">
       <use xlink:href="#DejaVuSans-32"/>
      </g>
     </g>
    </g>
    <g id="ytick_6">
     <g id="line2d_12">
      <g>
       <use xlink:href="#m3346f04572" x="180" y="171.185233" style="stroke: #000000; stroke-width: 0.8"/>
      </g>
     </g>
     <g id="text_12">
      <!-- 3 -->
      <g transform="translate(166.6375 174.984452) scale(0.1 -0.1)">
       <defs>
        <path id="DejaVuSans-33" d="M 2597 2516 
Q 3050 2419 3304 2112 
Q 3559 1806 3559 1356 
Q 3559 666 3084 287 
Q 2609 -91 1734 -91 
Q 1441 -91 1130 -33 
Q 819 25 488 141 
L 488 750 
Q 750 597 1062 519 
Q 1375 441 1716 441 
Q 2309 441 2620 675 
Q 2931 909 2931 1356 
Q 2931 1769 2642 2001 
Q 2353 2234 1838 2234 
L 1294 2234 
L 1294 2753 
L 1863 2753 
Q 2328 2753 2575 2939 
Q 2822 3125 2822 3475 
Q 2822 3834 2567 4026 
Q 2313 4219 1838 4219 
Q 1578 4219 1281 4162 
Q 984 4106 628 3988 
L 628 4550 
Q 988 4650 1302 4700 
Q 1616 4750 1894 4750 
Q 2613 4750 3031 4423 
Q 3450 4097 3450 3541 
Q 3450 3153 3228 2886 
Q 3006 2619 2597 2516 
z
" transform="scale(0.015625)"/>
       </defs>
       <use xlink:href="#DejaVuSans-33"/>
      </g>
     </g>
    </g>
    <g id="ytick_7">
     <g id="line2d_13">
      <g>
       <use xlink:href="#m3346f04572" x="180" y="105.685518" style="stroke: #000000; stroke-width: 0.8"/>
      </g>
     </g>
     <g id="text_13">
      <!-- 4 -->
      <g transform="translate(166.6375 109.484737) scale(0.1 -0.1)">
       <defs>
        <path id="DejaVuSans-34" d="M 2419 4116 
L 825 1625 
L 2419 1625 
L 2419 4116 
z
M 2253 4666 
L 3047 4666 
L 3047 1625 
L 3713 1625 
L 3713 1100 
L 3047 1100 
L 3047 0 
L 2419 0 
L 2419 1100 
L 313 1100 
L 313 1709 
L 2253 4666 
z
" transform="scale(0.015625)"/>
       </defs>
       <use xlink:href="#DejaVuSans-34"/>
      </g>
     </g>
    </g>
   </g>
   <g id="line2d_14">
    <path d="M 230.727273 413.374643 
L 231.719979 412.15192 
L 232.712685 410.130558 
L 234.698096 403.667455 
L 235.690802 400.178508 
L 239.661626 381.648929 
L 241.647038 371.245945 
L 243.63245 359.480827 
L 244.625156 353.683276 
L 246.610568 346.728493 
L 247.603273 324.64659 
L 248.595979 285.743001 
L 249.588685 252.048565 
L 250.581391 229.872909 
L 251.574097 218.173945 
L 252.566803 216.663492 
L 253.559509 224.007271 
L 255.544921 246.973388 
L 256.537627 269.741445 
L 257.530333 300.310125 
L 258.523039 272.421862 
L 259.515745 252.911513 
L 260.50845 249.167577 
L 262.493862 208.123268 
L 263.486568 206.573645 
L 264.479274 223.732497 
L 265.47198 225.623251 
L 266.464686 212.317588 
L 267.457392 232.482284 
L 268.450098 270.974738 
L 269.442804 190.664944 
L 270.43551 161.703772 
L 271.428216 159.148608 
L 272.420922 176.827255 
L 273.413627 210.22666 
L 274.406333 211.206273 
L 275.399039 178.002898 
L 276.391745 159.219901 
L 277.384451 161.48809 
L 278.377157 183.178091 
L 279.369863 155.147055 
L 280.362569 113.563637 
L 281.355275 92.682696 
L 282.347981 89.28 
L 283.340687 103.121865 
L 284.333393 136.250657 
L 285.326099 143.201289 
L 286.318804 117.266951 
L 287.31151 113.15523 
L 288.304216 133.623334 
L 289.296922 170.965645 
L 290.289628 163.674395 
L 291.282334 157.819014 
L 292.27504 187.705738 
L 293.267746 247.697089 
L 294.260452 201.377382 
L 295.253158 200.024539 
L 296.245864 233.109229 
L 297.23857 227.175224 
L 298.231276 218.056577 
L 299.223981 256.365534 
L 300.216687 314.634093 
L 301.209393 253.142255 
L 302.202099 265.735966 
L 303.194805 304.77879 
L 304.187511 260.407462 
L 305.180217 259.992771 
L 306.172923 317.922772 
L 307.165629 323.328403 
L 308.158335 284.911964 
L 309.151041 303.761206 
L 310.143747 344.438922 
L 311.136453 319.2594 
L 312.129159 316.783057 
L 313.121864 326.356412 
L 315.107276 328.671258 
L 316.099982 334.347027 
L 317.092688 332.271072 
L 318.085394 334.443941 
L 319.0781 335.947988 
L 320.070806 339.067941 
L 321.063512 340.688495 
L 323.048924 341.682198 
L 324.04163 345.801183 
L 325.034336 343.045385 
L 326.027041 343.238505 
L 327.019747 351.161779 
L 328.012453 347.754675 
L 329.005159 346.369869 
L 329.997865 357.172331 
L 330.990571 351.183753 
L 331.983277 349.701802 
L 332.975983 356.988491 
L 333.968689 357.6915 
L 334.961395 351.012098 
L 336.946807 363.547193 
L 337.939513 354.955328 
L 338.932218 357.71348 
L 339.924924 364.637299 
L 341.910336 358.607024 
L 342.903042 366.527283 
L 343.895748 368.68502 
L 344.888454 362.938666 
L 345.88116 364.953139 
L 346.873866 371.420607 
L 347.866572 368.042513 
L 348.859278 365.596325 
L 349.851984 371.757449 
L 350.84469 373.667416 
L 351.837395 369.974083 
L 352.830101 373.36766 
L 353.822807 372.066113 
L 354.815513 368.5999 
L 355.808219 372.479658 
L 356.800925 379.971676 
L 357.793631 376.229086 
L 358.786337 369.942467 
L 359.779043 378.980281 
L 360.771749 377.330247 
L 361.764455 374.459788 
L 362.757161 378.622126 
L 363.749867 381.936189 
L 364.742572 377.318973 
L 365.735278 377.383625 
L 366.727984 388.230414 
L 367.72069 381.867307 
L 368.713396 383.133284 
L 369.706102 382.247645 
L 370.698808 382.332013 
L 371.691514 388.107887 
L 372.68422 389.13563 
L 373.676926 389.342026 
L 374.669632 387.013763 
L 375.662338 382.38967 
L 376.655044 386.984141 
L 377.64775 386.562941 
L 378.640455 386.68419 
L 379.633161 390.044042 
L 381.618573 385.881128 
L 382.611279 393.170228 
L 383.603985 391.245674 
L 384.596691 388.475603 
L 385.589397 391.216526 
L 386.582103 395.04215 
L 387.574809 395.15639 
L 388.567515 395.723407 
L 389.560221 385.770488 
L 391.545632 392.208741 
L 392.538338 396.311493 
L 393.531044 396.843811 
L 394.52375 397.62916 
L 395.516456 395.106199 
L 396.509162 396.170882 
L 397.501868 393.603198 
L 398.494574 402.881957 
L 399.48728 395.751327 
L 400.479986 396.837836 
L 401.472692 396.302821 
L 402.465398 393.578041 
L 403.458104 402.320862 
L 404.450809 403.23828 
L 405.443515 398.971941 
L 406.436221 404.0529 
L 407.428927 401.649494 
L 408.421633 404.465673 
L 409.414339 405.875024 
L 410.407045 405.684613 
L 411.399751 401.104924 
L 412.392457 402.935492 
L 413.385163 398.259072 
L 414.377869 401.76586 
L 415.370575 404.758094 
L 416.363281 413.192045 
L 417.355986 404.573071 
L 418.348692 404.867935 
L 419.341398 404.883536 
L 420.334104 406.017793 
L 421.32681 404.771747 
L 422.319516 408.356324 
L 423.312222 407.463882 
L 424.304928 413.568539 
L 425.297634 405.304972 
L 426.29034 412.17404 
L 427.283046 403.781844 
L 428.275752 408.878243 
L 429.268458 405.67788 
L 430.261163 406.796566 
L 431.253869 414.096653 
L 432.246575 416.596492 
L 433.239281 417.164852 
L 434.231987 410.43255 
L 435.224693 409.478411 
L 436.217399 412.398565 
L 437.210105 409.730792 
L 438.202811 418.725929 
L 439.195517 411.801958 
L 440.188223 413.510887 
L 441.180929 418.569158 
L 442.173635 408.346375 
L 443.166341 415.207258 
L 444.159046 418.217812 
L 445.151752 409.609744 
L 446.144458 419.007223 
L 447.137164 413.911199 
L 448.12987 415.6809 
L 449.122576 418.472243 
L 450.115282 414.562456 
L 451.107988 418.472338 
L 452.100694 414.61021 
L 453.0934 419.008546 
L 454.086106 420.809414 
L 455.078812 417.606259 
L 456.071518 421.739194 
L 457.064223 418.249647 
L 458.056929 417.704248 
L 459.049635 421.262738 
L 460.042341 425.390542 
L 461.035047 419.758859 
L 462.027753 418.880343 
L 463.020459 419.983331 
L 464.013165 421.527195 
L 465.005871 425.558346 
L 465.998577 416.99246 
L 466.991283 422.441555 
L 467.983989 425.093294 
L 468.976695 411.621244 
L 469.9694 425.692722 
L 471.954812 422.562488 
L 472.947518 421.952781 
L 473.940224 426.256963 
L 474.93293 422.09222 
L 475.925636 426.37578 
L 476.918342 423.590743 
L 477.911048 431.595963 
L 478.903754 428.825398 
L 479.89646 429.135349 
L 480.889166 431.621828 
L 481.881872 416.619421 
L 482.874577 424.359212 
L 483.867283 420.812015 
L 484.859989 422.993254 
L 485.852695 433.113461 
L 486.845401 428.225418 
L 487.838107 433.740684 
L 488.830813 432.042985 
L 489.823519 424.760572 
L 490.816225 428.310654 
L 491.808931 427.748648 
L 492.801637 428.163894 
L 493.794343 434.514988 
L 494.787049 430.670131 
L 495.779754 430.344196 
L 497.765166 435.651599 
L 498.757872 428.26761 
L 499.750578 424.78535 
L 500.743284 442.378671 
L 501.73599 420.589998 
L 502.728696 431.809914 
L 503.721402 445.137371 
L 504.714108 429.821683 
L 505.706814 427.064453 
L 506.69952 426.21615 
L 507.692226 431.326461 
L 508.684932 440.174989 
L 509.677637 433.98135 
L 510.670343 432.775681 
L 511.663049 431.878961 
L 512.655755 435.742003 
L 513.648461 421.202866 
L 514.641167 435.464597 
L 515.633873 429.419324 
L 516.626579 424.490349 
L 517.619285 444.690076 
L 518.611991 435.335466 
L 519.604697 440.734715 
L 520.597403 437.127557 
L 521.590109 440.793047 
L 522.582814 454.245514 
L 523.57552 437.27329 
L 524.568226 437.863296 
L 525.560932 444.799125 
L 526.553638 442.749079 
L 527.546344 448.734206 
L 528.53905 440.491027 
L 529.531756 443.291002 
L 530.524462 446.812924 
L 531.517168 431.992917 
L 532.509874 441.021055 
L 533.50258 439.536055 
L 534.495286 440.745091 
L 535.487991 442.802966 
L 536.480697 445.735632 
L 537.473403 432.222626 
L 538.466109 441.769465 
L 539.458815 435.214267 
L 540.451521 426.56313 
L 542.436933 450.562779 
L 543.429639 428.788585 
L 544.422345 449.462232 
L 545.415051 452.20792 
L 546.407757 448.637516 
L 547.400463 448.241797 
L 548.393168 432.731682 
L 549.385874 443.501243 
L 550.37858 436.021416 
L 551.371286 438.7866 
L 552.363992 450.096702 
L 553.356698 443.05514 
L 554.349404 442.559731 
L 555.34211 440.809297 
L 556.334816 439.980907 
L 557.327522 441.35692 
L 558.320228 442.074564 
L 559.312934 440.929815 
L 560.30564 449.656263 
L 561.298345 455.542768 
L 562.291051 444.681797 
L 563.283757 439.412509 
L 564.276463 437.413148 
L 565.269169 438.759949 
L 566.261875 447.751492 
L 567.254581 444.563012 
L 568.247287 440.815772 
L 569.239993 448.845303 
L 570.232699 451.325379 
L 571.225405 450.246145 
L 572.218111 453.404852 
L 573.210817 445.457634 
L 574.203523 443.753377 
L 575.196228 457.500225 
L 576.188934 447.308078 
L 577.18164 452.418373 
L 578.174346 445.545023 
L 579.167052 450.97266 
L 580.159758 449.900766 
L 581.152464 449.428722 
L 582.14517 450.54126 
L 583.137876 445.047105 
L 584.130582 447.891976 
L 585.123288 439.731831 
L 586.115994 446.131193 
L 587.1087 445.355543 
L 588.101405 447.139896 
L 589.094111 451.25988 
L 590.086817 440.410559 
L 591.079523 443.929106 
L 592.072229 437.593708 
L 593.064935 443.864838 
L 594.057641 451.556925 
L 595.050347 456.858499 
L 596.043053 449.020627 
L 597.035759 451.743779 
L 598.028465 441.289993 
L 599.021171 450.819569 
L 600.013877 452.731804 
L 601.006582 442.664233 
L 601.999288 449.890788 
L 602.991994 447.866153 
L 603.9847 455.627076 
L 604.977406 447.413524 
L 605.970112 455.094494 
L 606.962818 450.066573 
L 607.955524 450.791274 
L 608.94823 452.556418 
L 609.940936 450.402196 
L 610.933642 455.794558 
L 611.926348 455.340298 
L 612.919054 455.613637 
L 613.911759 448.259316 
L 614.904465 450.949389 
L 615.897171 454.285388 
L 616.889877 450.06234 
L 617.882583 454.094561 
L 618.875289 452.80764 
L 619.867995 449.026383 
L 620.860701 453.828901 
L 622.846113 457.135798 
L 623.838819 447.46749 
L 624.831525 458.065293 
L 625.824231 449.168282 
L 626.816936 450.589171 
L 627.809642 456.232946 
L 628.802348 453.780563 
L 629.795054 449.822625 
L 630.78776 453.622345 
L 631.780466 456.700812 
L 632.773172 453.067093 
L 633.765878 458.476894 
L 634.758584 454.828328 
L 635.75129 456.228588 
L 636.743996 458.023174 
L 637.736702 453.415459 
L 638.729408 457.956553 
L 639.722114 456.156402 
L 640.714819 461.639768 
L 641.707525 456.37405 
L 643.692937 460.761559 
L 644.685643 456.899885 
L 645.678349 456.180429 
L 646.671055 455.240977 
L 647.663761 459.828909 
L 648.656467 458.658564 
L 649.649173 458.866904 
L 650.641879 458.593247 
L 651.634585 460.187389 
L 652.627291 459.784966 
L 653.619996 457.478935 
L 654.612702 459.338823 
L 655.605408 459.67737 
L 656.598114 457.644717 
L 657.59082 458.549671 
L 658.583526 460.376778 
L 659.576232 459.925152 
L 660.568938 460.543688 
L 661.561644 459.774159 
L 662.55435 459.260205 
L 663.547056 457.355501 
L 664.539762 459.604869 
L 665.532468 459.894523 
L 666.525173 459.507682 
L 667.517879 458.886924 
L 668.510585 460.36459 
L 669.503291 460.952361 
L 670.495997 460.738403 
L 671.488703 460.880853 
L 672.481409 461.360385 
L 673.474115 460.888469 
L 674.466821 463.20502 
L 675.459527 460.183786 
L 676.452233 460.931291 
L 677.444939 461.316603 
L 678.437645 461.060942 
L 679.43035 463.300222 
L 680.423056 462.000637 
L 681.415762 460.983231 
L 682.408468 461.074476 
L 683.401174 462.298005 
L 684.39388 461.770326 
L 686.379292 462.19493 
L 687.371998 463.506691 
L 688.364704 463.597299 
L 689.35741 462.809513 
L 690.350116 463.371648 
L 692.335527 463.040527 
L 693.328233 463.187315 
L 694.320939 463.900016 
L 695.313645 464.038236 
L 696.306351 463.2774 
L 697.299057 464.190489 
L 698.291763 464.289637 
L 699.284469 465.140474 
L 701.269881 464.458258 
L 703.255293 464.597704 
L 704.247999 464.880583 
L 705.240705 464.813477 
L 706.23341 464.366874 
L 707.226116 465.201611 
L 708.218822 464.183103 
L 709.211528 466.176647 
L 710.204234 465.450931 
L 711.19694 465.423515 
L 712.189646 465.780714 
L 713.182352 466.285636 
L 714.175058 466.279407 
L 715.167764 466.482138 
L 716.16047 466.453247 
L 717.153176 466.539238 
L 718.145882 466.326257 
L 719.138587 466.803506 
L 720.131293 466.681678 
L 721.123999 466.95711 
L 722.116705 467.04031 
L 723.109411 466.441442 
L 725.094823 467.45051 
L 726.087529 466.934148 
L 727.080235 467.462635 
L 728.072941 467.453705 
L 729.065647 468.701175 
L 730.058353 468.170397 
L 731.051059 468.059057 
L 732.043764 467.827595 
L 733.03647 468.25171 
L 734.029176 467.842127 
L 735.021882 468.431016 
L 736.014588 468.208411 
L 737.007294 468.748709 
L 738 468.581731 
L 738.992706 469.365156 
L 739.985412 468.726979 
L 740.978118 468.847103 
L 741.970824 469.836678 
L 742.96353 468.624195 
L 743.956236 468.818792 
L 744.948941 469.136761 
L 745.941647 469.218979 
L 746.934353 469.590681 
L 747.927059 469.677459 
L 748.919765 469.634136 
L 749.912471 469.713841 
L 750.905177 470.268721 
L 751.897883 469.830001 
L 752.890589 470.381668 
L 753.883295 470.341899 
L 754.876001 470.675074 
L 755.868707 469.932468 
L 756.861413 471.16593 
L 757.854118 470.725099 
L 759.83953 470.807765 
L 760.832236 471.389371 
L 761.824942 470.922733 
L 762.817648 470.645284 
L 763.810354 471.160279 
L 766.788472 471.458566 
L 767.781178 471.597165 
L 768.773884 472.130344 
L 770.759295 471.930482 
L 771.752001 472.119373 
L 772.744707 471.808591 
L 773.737413 472.421716 
L 774.730119 472.336879 
L 775.722825 472.677796 
L 776.715531 472.480233 
L 777.708237 472.618648 
L 778.700943 472.297382 
L 779.693649 472.826149 
L 781.679061 472.863827 
L 782.671767 472.450668 
L 783.664473 473.285656 
L 784.657178 473.415779 
L 785.649884 472.966956 
L 786.64259 473.203657 
L 787.635296 473.748796 
L 788.628002 473.375924 
L 789.620708 473.898595 
L 790.613414 473.321298 
L 791.60612 473.991033 
L 792.598826 473.759362 
L 793.591532 473.897955 
L 794.584238 474.377524 
L 795.576944 473.95209 
L 796.56965 474.539412 
L 797.562355 474.670043 
L 798.555061 473.963331 
L 800.540473 474.671344 
L 801.533179 474.325485 
L 802.525885 474.948873 
L 803.518591 474.996544 
L 804.511297 474.505221 
L 806.496709 475.469063 
L 807.489415 474.557229 
L 808.482121 475.35497 
L 809.474827 475.119372 
L 810.467532 475.139651 
L 811.460238 475.715291 
L 812.452944 475.392339 
L 813.44565 475.864611 
L 814.438356 476.1548 
L 815.431062 476.253411 
L 816.423768 475.931737 
L 819.401886 476.558324 
L 820.394592 476.64381 
L 821.387298 476.185374 
L 822.380004 476.152872 
L 823.372709 476.469203 
L 825.358121 476.619906 
L 826.350827 477.310656 
L 827.343533 476.835461 
L 828.336239 477.118035 
L 829.328945 476.921828 
L 830.321651 477.387217 
L 831.314357 477.065273 
L 832.307063 477.231647 
L 833.299769 477.157707 
L 834.292475 476.956901 
L 835.285181 477.368721 
L 836.277886 477.067868 
L 837.270592 477.519711 
L 838.263298 477.759669 
L 839.256004 477.84288 
L 840.24871 477.776855 
L 841.241416 478.494648 
L 842.234122 477.603972 
L 844.219534 478.032148 
L 845.21224 478.081936 
L 846.204946 478.583726 
L 847.197652 478.159792 
L 848.190358 478.890923 
L 849.183064 478.268393 
L 850.175769 478.879732 
L 852.161181 478.801877 
L 853.153887 479.077239 
L 855.139299 478.71309 
L 856.132005 479.011864 
L 857.124711 478.489261 
L 858.117417 478.49619 
L 859.110123 479.141829 
L 860.102829 479.593274 
L 861.095535 479.371516 
L 862.088241 478.564468 
L 863.080946 479.765057 
L 866.059064 479.333607 
L 867.05177 479.674939 
L 868.044476 480.222626 
L 871.022594 479.574062 
L 872.0153 479.964225 
L 873.008006 480.63875 
L 874.993418 479.878657 
L 875.986123 479.942887 
L 876.978829 480.797398 
L 878.964241 480.405805 
L 880.949653 480.242521 
L 881.942359 481.040626 
L 882.935065 481.212532 
L 883.927771 480.857811 
L 884.920477 480.723886 
L 885.913183 480.238648 
L 886.905889 481.426025 
L 887.898595 480.947134 
L 888.8913 480.942981 
L 889.884006 481.130403 
L 890.876712 481.073061 
L 892.862124 481.375275 
L 893.85483 481.110204 
L 894.847536 481.095939 
L 895.840242 481.699722 
L 896.832948 481.728858 
L 897.825654 481.92048 
L 898.81836 481.729326 
L 900.803772 481.770473 
L 901.796477 481.450141 
L 902.789183 481.751572 
L 903.781889 482.488099 
L 904.774595 482.03688 
L 905.767301 482.482444 
L 906.760007 483.140665 
L 907.752713 481.612262 
L 908.745419 482.200242 
L 909.738125 482.480698 
L 910.730831 482.464774 
L 911.723537 482.13028 
L 912.716243 482.748601 
L 913.708949 482.567615 
L 914.701655 482.964088 
L 915.69436 482.205135 
L 916.687066 483.180932 
L 917.679772 482.841604 
L 918.672478 482.254173 
L 920.65789 483.513624 
L 921.650596 483.031099 
L 922.643302 483.429554 
L 923.636008 482.717411 
L 924.628714 482.991675 
L 925.62142 482.462558 
L 926.614126 483.03752 
L 928.599537 483.535949 
L 929.592243 483.605653 
L 930.584949 482.98978 
L 931.577655 483.423569 
L 932.570361 483.258368 
L 933.563067 483.614427 
L 934.555773 483.788436 
L 935.548479 483.341177 
L 936.541185 484.312114 
L 937.533891 484.043211 
L 938.526597 484.564031 
L 939.519303 483.598036 
L 940.512009 484.181339 
L 941.504714 484.22161 
L 942.49742 484.455618 
L 943.490126 484.108804 
L 944.482832 484.204631 
L 946.468244 484.773064 
L 948.453656 484.389146 
L 949.446362 484.776599 
L 950.439068 484.540828 
L 951.431774 484.695096 
L 952.42448 484.33702 
L 953.417186 484.504063 
L 954.409891 484.537564 
L 955.402597 485.324956 
L 956.395303 485.931975 
L 957.388009 484.756251 
L 958.380715 484.912056 
L 959.373421 485.495142 
L 961.358833 485.54719 
L 962.351539 485.075617 
L 963.344245 485.059416 
L 964.336951 485.737605 
L 965.329657 485.321797 
L 966.322363 485.695495 
L 967.315068 485.600826 
L 968.307774 485.778988 
L 969.30048 485.817441 
L 970.293186 485.386694 
L 971.285892 485.534654 
L 972.278598 485.918118 
L 973.271304 486.023971 
L 974.26401 485.944613 
L 976.249422 485.460483 
L 977.242128 486.129687 
L 978.234834 486.189748 
L 979.22754 485.214776 
L 980.220246 486.077746 
L 981.212951 485.771416 
L 982.205657 486.616155 
L 983.198363 486.422214 
L 984.191069 486.490555 
L 985.183775 485.650941 
L 986.176481 486.596758 
L 987.169187 486.495968 
L 988.161893 486.933019 
L 989.154599 486.621629 
L 991.140011 486.182802 
L 992.132717 486.824238 
L 993.125423 486.009218 
L 994.118128 486.857601 
L 995.110834 487.139584 
L 996.10354 486.399201 
L 997.096246 487.038846 
L 998.088952 487.464473 
L 999.081658 487.12608 
L 1000.074364 486.430736 
L 1002.059776 486.959254 
L 1003.052482 487.911453 
L 1004.045188 487.119406 
L 1005.037894 486.743047 
L 1006.0306 487.439759 
L 1007.023305 486.556323 
L 1008.016011 487.482044 
L 1009.008717 486.780301 
L 1010.001423 487.397521 
L 1010.994129 487.22734 
L 1011.986835 487.385047 
L 1013.972247 487.384907 
L 1014.964953 487.783125 
L 1015.957659 487.637548 
L 1016.950365 488.178004 
L 1018.935777 486.993202 
L 1019.928482 487.504913 
L 1020.921188 487.646037 
L 1021.913894 488.043169 
L 1022.9066 487.563285 
L 1023.899306 488.10097 
L 1024.892012 487.572337 
L 1025.884718 487.527375 
L 1026.877424 487.834533 
L 1027.87013 488.627267 
L 1028.862836 488.51466 
L 1029.855542 487.965162 
L 1030.848248 487.929313 
L 1031.840954 488.250998 
L 1033.826365 487.970609 
L 1034.819071 488.240368 
L 1035.811777 487.939342 
L 1037.797189 488.432113 
L 1038.789895 488.361621 
L 1039.782601 488.65828 
L 1040.775307 488.822859 
L 1041.768013 488.830731 
L 1042.760719 488.222363 
L 1043.753425 488.556831 
L 1044.746131 489.15308 
L 1045.738837 487.70385 
L 1046.731542 488.87555 
L 1048.716954 488.810054 
L 1049.70966 488.37203 
L 1050.702366 489.477896 
L 1051.695072 488.536916 
L 1052.687778 488.697904 
L 1054.67319 488.480081 
L 1055.665896 488.829893 
L 1057.651308 489.171435 
L 1058.644014 489.436869 
L 1059.636719 488.738056 
L 1060.629425 489.18402 
L 1061.622131 488.455846 
L 1062.614837 489.405695 
L 1063.607543 489.171346 
L 1065.592955 489.13864 
L 1066.585661 489.527974 
L 1067.578367 488.84912 
L 1069.563779 488.803581 
L 1070.556485 489.888489 
L 1071.549191 488.886022 
L 1072.541896 489.483016 
L 1073.534602 489.38161 
L 1074.527308 489.549335 
L 1075.520014 489.20754 
L 1076.51272 489.470334 
L 1077.505426 489.133234 
L 1078.498132 489.13838 
L 1079.490838 490.053643 
L 1080.483544 489.5244 
L 1081.47625 489.649659 
L 1082.468956 490.049789 
L 1083.461662 489.801967 
L 1084.454368 489.940602 
L 1085.447073 489.519805 
L 1086.439779 489.476888 
L 1087.432485 490.202772 
L 1088.425191 490.081312 
L 1089.417897 490.089799 
L 1090.410603 489.966275 
L 1091.403309 489.698269 
L 1092.396015 490.28079 
L 1093.388721 490.327875 
L 1094.381427 490.021324 
L 1095.374133 490.46206 
L 1096.366839 489.595253 
L 1099.344956 490.343674 
L 1100.337662 490.155245 
L 1101.330368 490.391405 
L 1102.323074 490.034302 
L 1103.31578 490.490661 
L 1105.301192 490.184385 
L 1106.293898 490.503106 
L 1107.286604 489.970831 
L 1108.27931 490.023682 
L 1109.272016 490.328681 
L 1110.264722 490.469025 
L 1111.257428 490.259541 
L 1113.242839 490.4543 
L 1114.235545 490.124122 
L 1115.228251 490.736847 
L 1116.220957 490.229113 
L 1118.206369 490.699499 
L 1119.199075 490.398811 
L 1121.184487 491.036262 
L 1122.177193 490.748834 
L 1123.169899 490.163449 
L 1124.162605 490.786423 
L 1125.15531 490.848293 
L 1126.148016 489.626306 
L 1127.140722 491.161292 
L 1128.133428 491.086509 
L 1129.126134 490.650534 
L 1130.11884 490.824114 
L 1131.111546 490.855007 
L 1132.104252 490.458173 
L 1133.096958 490.691429 
L 1134.089664 490.506657 
L 1135.08237 491.492823 
L 1136.075076 491.157889 
L 1137.067782 490.950714 
L 1138.060487 490.270906 
L 1139.053193 490.756621 
L 1140.045899 490.8421 
L 1142.031311 490.683014 
L 1143.024017 490.308812 
L 1144.016723 490.389136 
L 1145.009429 491.042063 
L 1146.994841 491.156276 
L 1147.987547 490.791744 
L 1148.980253 491.23391 
L 1149.972959 490.783222 
L 1150.965664 491.875993 
L 1151.95837 491.641475 
L 1152.951076 490.879797 
L 1153.943782 491.116859 
L 1155.929194 490.790269 
L 1156.9219 491.232428 
L 1157.914606 491.439368 
L 1158.907312 491.192896 
L 1159.900018 490.639563 
L 1160.892724 491.027079 
L 1161.88543 491.030663 
L 1163.870841 491.82151 
L 1165.856253 490.856616 
L 1166.848959 490.969743 
L 1167.841665 490.893223 
L 1169.827077 491.441637 
L 1170.819783 491.1006 
L 1171.812489 491.206448 
L 1172.805195 491.126491 
L 1173.797901 491.764153 
L 1174.790607 491.420674 
L 1175.783313 491.489464 
L 1176.776019 491.299379 
L 1177.768724 491.371254 
L 1179.754136 491.862537 
L 1180.746842 491.040958 
L 1181.739548 491.549459 
L 1182.732254 491.894023 
L 1183.72496 491.798886 
L 1184.717666 491.258935 
L 1185.710372 491.676714 
L 1186.703078 491.860231 
L 1187.695784 491.472826 
L 1188.68849 491.419309 
L 1190.673901 491.847981 
L 1191.666607 491.134731 
L 1192.659313 491.804029 
L 1193.652019 491.609454 
L 1194.644725 491.682313 
L 1195.637431 491.158034 
L 1196.630137 491.920157 
L 1198.615549 491.913829 
L 1199.608255 491.503477 
L 1200.600961 490.787695 
L 1201.593667 491.761589 
L 1202.586373 491.9414 
L 1203.579078 491.238928 
L 1204.571784 491.4996 
L 1205.56449 491.27254 
L 1206.557196 491.951785 
L 1207.549902 491.677944 
L 1208.542608 491.883583 
L 1209.535314 491.577215 
L 1210.52802 491.664536 
L 1212.513432 491.567289 
L 1213.506138 492.397688 
L 1214.498844 491.307048 
L 1215.49155 491.663633 
L 1217.476961 491.705719 
L 1218.469667 492.039018 
L 1219.462373 491.754578 
L 1220.455079 492.104278 
L 1221.447785 491.694756 
L 1222.440491 491.904536 
L 1223.433197 491.360912 
L 1224.425903 491.983564 
L 1225.418609 491.986889 
L 1226.411315 492.31165 
L 1227.404021 491.710487 
L 1228.396727 492.364014 
L 1230.382138 492.071337 
L 1231.374844 492.398587 
L 1232.36755 492.48 
L 1233.360256 491.731638 
L 1234.352962 491.937854 
L 1235.345668 492.295024 
L 1236.338374 492.447551 
L 1237.33108 491.464581 
L 1238.323786 492.418806 
L 1240.309198 491.970073 
L 1241.301904 492.427451 
L 1242.29461 491.952224 
L 1243.287315 492.440785 
L 1244.280021 491.458129 
L 1245.272727 491.830386 
L 1245.272727 491.830386 
" clip-path="url(#p3d8c815b75)" style="fill: none; stroke: #1f77b4; stroke-width: 1.5; stroke-linecap: square"/>
   </g>
   <g id="patch_3">
    <path d="M 180 512.64 
L 180 69.12 
" style="fill: none; stroke: #000000; stroke-width: 0.8; stroke-linejoin: miter; stroke-linecap: square"/>
   </g>
   <g id="patch_4">
    <path d="M 1296 512.64 
L 1296 69.12 
" style="fill: none; stroke: #000000; stroke-width: 0.8; stroke-linejoin: miter; stroke-linecap: square"/>
   </g>
   <g id="patch_5">
    <path d="M 180 512.64 
L 1296 512.64 
" style="fill: none; stroke: #000000; stroke-width: 0.8; stroke-linejoin: miter; stroke-linecap: square"/>
   </g>
   <g id="patch_6">
    <path d="M 180 69.12 
L 1296 69.12 
" style="fill: none; stroke: #000000; stroke-width: 0.8; stroke-linejoin: miter; stroke-linecap: square"/>
   </g>
   <g id="text_14">
    <!-- source11-receiver18 -->
    <g transform="translate(532.175 60.80125) scale(0.4 -0.4)">
     <defs>
      <path id="DejaVuSans-73" d="M 2834 3397 
L 2834 2853 
Q 2591 2978 2328 3040 
Q 2066 3103 1784 3103 
Q 1356 3103 1142 2972 
Q 928 2841 928 2578 
Q 928 2378 1081 2264 
Q 1234 2150 1697 2047 
L 1894 2003 
Q 2506 1872 2764 1633 
Q 3022 1394 3022 966 
Q 3022 478 2636 193 
Q 2250 -91 1575 -91 
Q 1294 -91 989 -36 
Q 684 19 347 128 
L 347 722 
Q 666 556 975 473 
Q 1284 391 1588 391 
Q 1994 391 2212 530 
Q 2431 669 2431 922 
Q 2431 1156 2273 1281 
Q 2116 1406 1581 1522 
L 1381 1569 
Q 847 1681 609 1914 
Q 372 2147 372 2553 
Q 372 3047 722 3315 
Q 1072 3584 1716 3584 
Q 2034 3584 2315 3537 
Q 2597 3491 2834 3397 
z
" transform="scale(0.015625)"/>
      <path id="DejaVuSans-6f" d="M 1959 3097 
Q 1497 3097 1228 2736 
Q 959 2375 959 1747 
Q 959 1119 1226 758 
Q 1494 397 1959 397 
Q 2419 397 2687 759 
Q 2956 1122 2956 1747 
Q 2956 2369 2687 2733 
Q 2419 3097 1959 3097 
z
M 1959 3584 
Q 2709 3584 3137 3096 
Q 3566 2609 3566 1747 
Q 3566 888 3137 398 
Q 2709 -91 1959 -91 
Q 1206 -91 779 398 
Q 353 888 353 1747 
Q 353 2609 779 3096 
Q 1206 3584 1959 3584 
z
" transform="scale(0.015625)"/>
      <path id="DejaVuSans-75" d="M 544 1381 
L 544 3500 
L 1119 3500 
L 1119 1403 
Q 1119 906 1312 657 
Q 1506 409 1894 409 
Q 2359 409 2629 706 
Q 2900 1003 2900 1516 
L 2900 3500 
L 3475 3500 
L 3475 0 
L 2900 0 
L 2900 538 
Q 2691 219 2414 64 
Q 2138 -91 1772 -91 
Q 1169 -91 856 284 
Q 544 659 544 1381 
z
M 1991 3584 
L 1991 3584 
z
" transform="scale(0.015625)"/>
      <path id="DejaVuSans-72" d="M 2631 2963 
Q 2534 3019 2420 3045 
Q 2306 3072 2169 3072 
Q 1681 3072 1420 2755 
Q 1159 2438 1159 1844 
L 1159 0 
L 581 0 
L 581 3500 
L 1159 3500 
L 1159 2956 
Q 1341 3275 1631 3429 
Q 1922 3584 2338 3584 
Q 2397 3584 2469 3576 
Q 2541 3569 2628 3553 
L 2631 2963 
z
" transform="scale(0.015625)"/>
      <path id="DejaVuSans-63" d="M 3122 3366 
L 3122 2828 
Q 2878 2963 2633 3030 
Q 2388 3097 2138 3097 
Q 1578 3097 1268 2742 
Q 959 2388 959 1747 
Q 959 1106 1268 751 
Q 1578 397 2138 397 
Q 2388 397 2633 464 
Q 2878 531 3122 666 
L 3122 134 
Q 2881 22 2623 -34 
Q 2366 -91 2075 -91 
Q 1284 -91 818 406 
Q 353 903 353 1747 
Q 353 2603 823 3093 
Q 1294 3584 2113 3584 
Q 2378 3584 2631 3529 
Q 2884 3475 3122 3366 
z
" transform="scale(0.015625)"/>
      <path id="DejaVuSans-65" d="M 3597 1894 
L 3597 1613 
L 953 1613 
Q 991 1019 1311 708 
Q 1631 397 2203 397 
Q 2534 397 2845 478 
Q 3156 559 3463 722 
L 3463 178 
Q 3153 47 2828 -22 
Q 2503 -91 2169 -91 
Q 1331 -91 842 396 
Q 353 884 353 1716 
Q 353 2575 817 3079 
Q 1281 3584 2069 3584 
Q 2775 3584 3186 3129 
Q 3597 2675 3597 1894 
z
M 3022 2063 
Q 3016 2534 2758 2815 
Q 2500 3097 2075 3097 
Q 1594 3097 1305 2825 
Q 1016 2553 972 2059 
L 3022 2063 
z
" transform="scale(0.015625)"/>
      <path id="DejaVuSans-2d" d="M 313 2009 
L 1997 2009 
L 1997 1497 
L 313 1497 
L 313 2009 
z
" transform="scale(0.015625)"/>
      <path id="DejaVuSans-69" d="M 603 3500 
L 1178 3500 
L 1178 0 
L 603 0 
L 603 3500 
z
M 603 4863 
L 1178 4863 
L 1178 4134 
L 603 4134 
L 603 4863 
z
" transform="scale(0.015625)"/>
      <path id="DejaVuSans-76" d="M 191 3500 
L 800 3500 
L 1894 563 
L 2988 3500 
L 3597 3500 
L 2284 0 
L 1503 0 
L 191 3500 
z
" transform="scale(0.015625)"/>
      <path id="DejaVuSans-38" d="M 2034 2216 
Q 1584 2216 1326 1975 
Q 1069 1734 1069 1313 
Q 1069 891 1326 650 
Q 1584 409 2034 409 
Q 2484 409 2743 651 
Q 3003 894 3003 1313 
Q 3003 1734 2745 1975 
Q 2488 2216 2034 2216 
z
M 1403 2484 
Q 997 2584 770 2862 
Q 544 3141 544 3541 
Q 544 4100 942 4425 
Q 1341 4750 2034 4750 
Q 2731 4750 3128 4425 
Q 3525 4100 3525 3541 
Q 3525 3141 3298 2862 
Q 3072 2584 2669 2484 
Q 3125 2378 3379 2068 
Q 3634 1759 3634 1313 
Q 3634 634 3220 271 
Q 2806 -91 2034 -91 
Q 1263 -91 848 271 
Q 434 634 434 1313 
Q 434 1759 690 2068 
Q 947 2378 1403 2484 
z
M 1172 3481 
Q 1172 3119 1398 2916 
Q 1625 2713 2034 2713 
Q 2441 2713 2670 2916 
Q 2900 3119 2900 3481 
Q 2900 3844 2670 4047 
Q 2441 4250 2034 4250 
Q 1625 4250 1398 4047 
Q 1172 3844 1172 3481 
z
" transform="scale(0.015625)"/>
     </defs>
     <use xlink:href="#DejaVuSans-73"/>
     <use xlink:href="#DejaVuSans-6f" x="52.099609"/>
     <use xlink:href="#DejaVuSans-75" x="113.28125"/>
     <use xlink:href="#DejaVuSans-72" x="176.660156"/>
     <use xlink:href="#DejaVuSans-63" x="215.523438"/>
     <use xlink:href="#DejaVuSans-65" x="270.503906"/>
     <use xlink:href="#DejaVuSans-31" x="332.027344"/>
     <use xlink:href="#DejaVuSans-31" x="395.650391"/>
     <use xlink:href="#DejaVuSans-2d" x="459.273438"/>
     <use xlink:href="#DejaVuSans-72" x="495.357422"/>
     <use xlink:href="#DejaVuSans-65" x="534.220703"/>
     <use xlink:href="#DejaVuSans-63" x="595.744141"/>
     <use xlink:href="#DejaVuSans-65" x="650.724609"/>
     <use xlink:href="#DejaVuSans-69" x="712.248047"/>
     <use xlink:href="#DejaVuSans-76" x="740.03125"/>
     <use xlink:href="#DejaVuSans-65" x="799.210938"/>
     <use xlink:href="#DejaVuSans-72" x="860.734375"/>
     <use xlink:href="#DejaVuSans-31" x="901.847656"/>
     <use xlink:href="#DejaVuSans-38" x="965.470703"/>
    </g>
   </g>
  </g>
 </g>
 <defs>
  <clipPath id="p3d8c815b75">
   <rect x="180" y="69.12" width="1116" height="443.52"/>
  </clipPath>
 </defs>
</svg>
