<?xml version="1.0" encoding="utf-8" standalone="no"?>
<!DOCTYPE svg PUBLIC "-//W3C//DTD SVG 1.1//EN"
  "http://www.w3.org/Graphics/SVG/1.1/DTD/svg11.dtd">
<svg xmlns:xlink="http://www.w3.org/1999/xlink" width="1440pt" height="576pt" viewBox="0 0 1440 576" xmlns="http://www.w3.org/2000/svg" version="1.1">
 <metadata>
  <rdf:RDF xmlns:dc="http://purl.org/dc/elements/1.1/" xmlns:cc="http://creativecommons.org/ns#" xmlns:rdf="http://www.w3.org/1999/02/22-rdf-syntax-ns#">
   <cc:Work>
    <dc:type rdf:resource="http://purl.org/dc/dcmitype/StillImage"/>
    <dc:date>2024-05-22T04:50:00.207647</dc:date>
    <dc:format>image/svg+xml</dc:format>
    <dc:creator>
     <cc:Agent>
      <dc:title>Matplotlib v3.8.3, https://matplotlib.org/</dc:title>
     </cc:Agent>
    </dc:creator>
   </cc:Work>
  </rdf:RDF>
 </metadata>
 <defs>
  <style type="text/css">*{stroke-linejoin: round; stroke-linecap: butt}</style>
 </defs>
 <g id="figure_1">
  <g id="patch_1">
   <path d="M 0 576 
L 1440 576 
L 1440 0 
L 0 0 
z
" style="fill: #ffffff"/>
  </g>
  <g id="axes_1">
   <g id="patch_2">
    <path d="M 180 512.64 
L 1296 512.64 
L 1296 69.12 
L 180 69.12 
z
" style="fill: #ffffff"/>
   </g>
   <g id="matplotlib.axis_1">
    <g id="xtick_1">
     <g id="line2d_1">
      <defs>
       <path id="mbe8657df27" d="M 0 0 
L 0 3.5 
" style="stroke: #000000; stroke-width: 0.8"/>
      </defs>
      <g>
       <use xlink:href="#mbe8657df27" x="229.734567" y="512.64" style="stroke: #000000; stroke-width: 0.8"/>
      </g>
     </g>
     <g id="text_1">
      <!-- 0 -->
      <g transform="translate(226.553317 527.238438) scale(0.1 -0.1)">
       <defs>
        <path id="DejaVuSans-30" d="M 2034 4250 
Q 1547 4250 1301 3770 
Q 1056 3291 1056 2328 
Q 1056 1369 1301 889 
Q 1547 409 2034 409 
Q 2525 409 2770 889 
Q 3016 1369 3016 2328 
Q 3016 3291 2770 3770 
Q 2525 4250 2034 4250 
z
M 2034 4750 
Q 2819 4750 3233 4129 
Q 3647 3509 3647 2328 
Q 3647 1150 3233 529 
Q 2819 -91 2034 -91 
Q 1250 -91 836 529 
Q 422 1150 422 2328 
Q 422 3509 836 4129 
Q 1250 4750 2034 4750 
z
" transform="scale(0.015625)"/>
       </defs>
       <use xlink:href="#DejaVuSans-30"/>
      </g>
     </g>
    </g>
    <g id="xtick_2">
     <g id="line2d_2">
      <g>
       <use xlink:href="#mbe8657df27" x="433.04074" y="512.64" style="stroke: #000000; stroke-width: 0.8"/>
      </g>
     </g>
     <g id="text_2">
      <!-- 500 -->
      <g transform="translate(423.49699 527.238438) scale(0.1 -0.1)">
       <defs>
        <path id="DejaVuSans-35" d="M 691 4666 
L 3169 4666 
L 3169 4134 
L 1269 4134 
L 1269 2991 
Q 1406 3038 1543 3061 
Q 1681 3084 1819 3084 
Q 2600 3084 3056 2656 
Q 3513 2228 3513 1497 
Q 3513 744 3044 326 
Q 2575 -91 1722 -91 
Q 1428 -91 1123 -41 
Q 819 9 494 109 
L 494 744 
Q 775 591 1075 516 
Q 1375 441 1709 441 
Q 2250 441 2565 725 
Q 2881 1009 2881 1497 
Q 2881 1984 2565 2268 
Q 2250 2553 1709 2553 
Q 1456 2553 1204 2497 
Q 953 2441 691 2322 
L 691 4666 
z
" transform="scale(0.015625)"/>
       </defs>
       <use xlink:href="#DejaVuSans-35"/>
       <use xlink:href="#DejaVuSans-30" x="63.623047"/>
       <use xlink:href="#DejaVuSans-30" x="127.246094"/>
      </g>
     </g>
    </g>
    <g id="xtick_3">
     <g id="line2d_3">
      <g>
       <use xlink:href="#mbe8657df27" x="636.346913" y="512.64" style="stroke: #000000; stroke-width: 0.8"/>
      </g>
     </g>
     <g id="text_3">
      <!-- 1000 -->
      <g transform="translate(623.621913 527.238438) scale(0.1 -0.1)">
       <defs>
        <path id="DejaVuSans-31" d="M 794 531 
L 1825 531 
L 1825 4091 
L 703 3866 
L 703 4441 
L 1819 4666 
L 2450 4666 
L 2450 531 
L 3481 531 
L 3481 0 
L 794 0 
L 794 531 
z
" transform="scale(0.015625)"/>
       </defs>
       <use xlink:href="#DejaVuSans-31"/>
       <use xlink:href="#DejaVuSans-30" x="63.623047"/>
       <use xlink:href="#DejaVuSans-30" x="127.246094"/>
       <use xlink:href="#DejaVuSans-30" x="190.869141"/>
      </g>
     </g>
    </g>
    <g id="xtick_4">
     <g id="line2d_4">
      <g>
       <use xlink:href="#mbe8657df27" x="839.653087" y="512.64" style="stroke: #000000; stroke-width: 0.8"/>
      </g>
     </g>
     <g id="text_4">
      <!-- 1500 -->
      <g transform="translate(826.928087 527.238438) scale(0.1 -0.1)">
       <use xlink:href="#DejaVuSans-31"/>
       <use xlink:href="#DejaVuSans-35" x="63.623047"/>
       <use xlink:href="#DejaVuSans-30" x="127.246094"/>
       <use xlink:href="#DejaVuSans-30" x="190.869141"/>
      </g>
     </g>
    </g>
    <g id="xtick_5">
     <g id="line2d_5">
      <g>
       <use xlink:href="#mbe8657df27" x="1042.95926" y="512.64" style="stroke: #000000; stroke-width: 0.8"/>
      </g>
     </g>
     <g id="text_5">
      <!-- 2000 -->
      <g transform="translate(1030.23426 527.238438) scale(0.1 -0.1)">
       <defs>
        <path id="DejaVuSans-32" d="M 1228 531 
L 3431 531 
L 3431 0 
L 469 0 
L 469 531 
Q 828 903 1448 1529 
Q 2069 2156 2228 2338 
Q 2531 2678 2651 2914 
Q 2772 3150 2772 3378 
Q 2772 3750 2511 3984 
Q 2250 4219 1831 4219 
Q 1534 4219 1204 4116 
Q 875 4013 500 3803 
L 500 4441 
Q 881 4594 1212 4672 
Q 1544 4750 1819 4750 
Q 2544 4750 2975 4387 
Q 3406 4025 3406 3419 
Q 3406 3131 3298 2873 
Q 3191 2616 2906 2266 
Q 2828 2175 2409 1742 
Q 1991 1309 1228 531 
z
" transform="scale(0.015625)"/>
       </defs>
       <use xlink:href="#DejaVuSans-32"/>
       <use xlink:href="#DejaVuSans-30" x="63.623047"/>
       <use xlink:href="#DejaVuSans-30" x="127.246094"/>
       <use xlink:href="#DejaVuSans-30" x="190.869141"/>
      </g>
     </g>
    </g>
    <g id="xtick_6">
     <g id="line2d_6">
      <g>
       <use xlink:href="#mbe8657df27" x="1246.265433" y="512.64" style="stroke: #000000; stroke-width: 0.8"/>
      </g>
     </g>
     <g id="text_6">
      <!-- 2500 -->
      <g transform="translate(1233.540433 527.238438) scale(0.1 -0.1)">
       <use xlink:href="#DejaVuSans-32"/>
       <use xlink:href="#DejaVuSans-35" x="63.623047"/>
       <use xlink:href="#DejaVuSans-30" x="127.246094"/>
       <use xlink:href="#DejaVuSans-30" x="190.869141"/>
      </g>
     </g>
    </g>
   </g>
   <g id="matplotlib.axis_2">
    <g id="ytick_1">
     <g id="line2d_7">
      <defs>
       <path id="m17e1fae3c5" d="M 0 0 
L -3.5 0 
" style="stroke: #000000; stroke-width: 0.8"/>
      </defs>
      <g>
       <use xlink:href="#m17e1fae3c5" x="180" y="459.516736" style="stroke: #000000; stroke-width: 0.8"/>
      </g>
     </g>
     <g id="text_7">
      <!-- −4 -->
      <g transform="translate(158.257812 463.315955) scale(0.1 -0.1)">
       <defs>
        <path id="DejaVuSans-2212" d="M 678 2272 
L 4684 2272 
L 4684 1741 
L 678 1741 
L 678 2272 
z
" transform="scale(0.015625)"/>
        <path id="DejaVuSans-34" d="M 2419 4116 
L 825 1625 
L 2419 1625 
L 2419 4116 
z
M 2253 4666 
L 3047 4666 
L 3047 1625 
L 3713 1625 
L 3713 1100 
L 3047 1100 
L 3047 0 
L 2419 0 
L 2419 1100 
L 313 1100 
L 313 1709 
L 2253 4666 
z
" transform="scale(0.015625)"/>
       </defs>
       <use xlink:href="#DejaVuSans-2212"/>
       <use xlink:href="#DejaVuSans-34" x="83.789062"/>
      </g>
     </g>
    </g>
    <g id="ytick_2">
     <g id="line2d_8">
      <g>
       <use xlink:href="#m17e1fae3c5" x="180" y="369.840093" style="stroke: #000000; stroke-width: 0.8"/>
      </g>
     </g>
     <g id="text_8">
      <!-- −2 -->
      <g transform="translate(158.257812 373.639312) scale(0.1 -0.1)">
       <use xlink:href="#DejaVuSans-2212"/>
       <use xlink:href="#DejaVuSans-32" x="83.789062"/>
      </g>
     </g>
    </g>
    <g id="ytick_3">
     <g id="line2d_9">
      <g>
       <use xlink:href="#m17e1fae3c5" x="180" y="280.163449" style="stroke: #000000; stroke-width: 0.8"/>
      </g>
     </g>
     <g id="text_9">
      <!-- 0 -->
      <g transform="translate(166.6375 283.962668) scale(0.1 -0.1)">
       <use xlink:href="#DejaVuSans-30"/>
      </g>
     </g>
    </g>
    <g id="ytick_4">
     <g id="line2d_10">
      <g>
       <use xlink:href="#m17e1fae3c5" x="180" y="190.486806" style="stroke: #000000; stroke-width: 0.8"/>
      </g>
     </g>
     <g id="text_10">
      <!-- 2 -->
      <g transform="translate(166.6375 194.286025) scale(0.1 -0.1)">
       <use xlink:href="#DejaVuSans-32"/>
      </g>
     </g>
    </g>
    <g id="ytick_5">
     <g id="line2d_11">
      <g>
       <use xlink:href="#m17e1fae3c5" x="180" y="100.810163" style="stroke: #000000; stroke-width: 0.8"/>
      </g>
     </g>
     <g id="text_11">
      <!-- 4 -->
      <g transform="translate(166.6375 104.609382) scale(0.1 -0.1)">
       <use xlink:href="#DejaVuSans-34"/>
      </g>
     </g>
    </g>
   </g>
   <g id="line2d_12">
    <path d="M 230.727273 308.186268 
L 232.712685 307.561505 
L 233.70539 306.972832 
L 235.690802 305.222953 
L 236.683508 304.01837 
L 237.676214 302.627785 
L 239.661626 298.593396 
L 240.654332 296.1503 
L 241.647038 293.403073 
L 242.639744 289.508732 
L 243.63245 284.40038 
L 244.625156 281.748807 
L 245.617862 281.114588 
L 247.603273 236.804338 
L 248.595979 244.759349 
L 249.588685 269.875648 
L 250.581391 190.107527 
L 251.574097 165.012923 
L 252.566803 163.738816 
L 253.559509 183.79033 
L 254.552215 171.181635 
L 255.544921 150.778054 
L 256.537627 149.829732 
L 257.530333 159.891723 
L 259.515745 192.914949 
L 260.50845 171.3103 
L 261.501156 166.773064 
L 262.493862 173.186418 
L 263.486568 168.189143 
L 264.479274 206.932927 
L 265.47198 166.875222 
L 266.464686 135.281147 
L 267.457392 139.919758 
L 268.450098 164.479396 
L 269.442804 150.495112 
L 270.43551 140.329766 
L 271.428216 133.744299 
L 272.420922 140.138675 
L 273.413627 156.276858 
L 274.406333 124.388675 
L 275.399039 117.58614 
L 276.391745 136.058378 
L 278.377157 93.906966 
L 279.369863 96.256739 
L 280.362569 131.31376 
L 281.355275 143.972167 
L 282.347981 95.858947 
L 283.340687 89.28 
L 284.333393 110.188985 
L 285.326099 148.779119 
L 286.318804 103.738552 
L 287.31151 100.046197 
L 288.304216 124.969041 
L 289.296922 126.849462 
L 290.289628 115.362184 
L 293.267746 148.611364 
L 294.260452 164.833688 
L 295.253158 151.039316 
L 296.245864 163.280614 
L 297.23857 243.045696 
L 298.231276 181.896143 
L 299.223981 186.939661 
L 300.216687 190.437248 
L 301.209393 190.586213 
L 302.202099 205.960916 
L 303.194805 192.945986 
L 304.187511 199.485434 
L 305.180217 215.910504 
L 306.172923 215.753555 
L 307.165629 231.502301 
L 308.158335 233.046792 
L 309.151041 243.761145 
L 310.143747 357.25865 
L 311.136453 283.325383 
L 312.129159 315.423973 
L 313.121864 300.679239 
L 314.11457 298.987542 
L 315.107276 311.657939 
L 316.099982 301.161858 
L 317.092688 313.428266 
L 318.085394 304.302828 
L 319.0781 319.724344 
L 320.070806 309.069653 
L 321.063512 323.021183 
L 322.056218 307.434441 
L 323.048924 318.367178 
L 324.04163 319.956836 
L 325.034336 314.347241 
L 326.027041 327.190479 
L 327.019747 318.821973 
L 328.012453 328.314582 
L 329.005159 324.781949 
L 329.997865 328.252754 
L 330.990571 337.58589 
L 331.983277 329.561322 
L 332.975983 337.180127 
L 333.968689 323.895897 
L 334.961395 333.719556 
L 335.954101 325.772219 
L 336.946807 332.181073 
L 337.939513 345.600117 
L 338.932218 328.312049 
L 339.924924 332.784424 
L 340.91763 350.652542 
L 341.910336 320.303449 
L 342.903042 357.534885 
L 343.895748 332.194077 
L 344.888454 332.17926 
L 345.88116 345.606817 
L 346.873866 335.154545 
L 347.866572 339.465781 
L 348.859278 355.286675 
L 349.851984 346.451637 
L 350.84469 339.721449 
L 351.837395 345.937572 
L 352.830101 340.98523 
L 353.822807 344.697723 
L 354.815513 351.013147 
L 355.808219 341.435859 
L 356.800925 341.196087 
L 357.793631 370.368396 
L 358.786337 349.042595 
L 359.779043 335.09877 
L 360.771749 348.998938 
L 361.764455 347.428068 
L 362.757161 359.533156 
L 363.749867 354.702589 
L 364.742572 355.551831 
L 365.735278 362.869571 
L 367.72069 347.46304 
L 368.713396 351.281682 
L 369.706102 350.757548 
L 370.698808 377.042182 
L 371.691514 357.701938 
L 372.68422 345.871915 
L 373.676926 347.749342 
L 374.669632 349.187654 
L 375.662338 352.810795 
L 376.655044 357.693072 
L 377.64775 358.382894 
L 378.640455 358.654039 
L 379.633161 351.430113 
L 381.618573 369.080999 
L 382.611279 359.814759 
L 383.603985 363.211604 
L 384.596691 368.622155 
L 385.589397 356.334334 
L 386.582103 350.822468 
L 387.574809 369.596475 
L 388.567515 353.948306 
L 389.560221 369.367424 
L 390.552927 392.911943 
L 391.545632 364.446735 
L 392.538338 364.366304 
L 393.531044 353.036787 
L 394.52375 354.178864 
L 395.516456 378.687466 
L 396.509162 364.293126 
L 397.501868 378.296341 
L 399.48728 362.604769 
L 400.479986 366.090794 
L 401.472692 377.918967 
L 402.465398 376.648461 
L 403.458104 355.676056 
L 404.450809 377.362464 
L 405.443515 364.941626 
L 406.436221 383.334514 
L 407.428927 363.099292 
L 408.421633 371.407109 
L 409.414339 357.05795 
L 410.407045 369.1413 
L 411.399751 371.363907 
L 412.392457 400.26813 
L 413.385163 412.62728 
L 414.377869 431.986175 
L 415.370575 357.800579 
L 416.363281 352.443509 
L 417.355986 368.09281 
L 418.348692 371.499065 
L 419.341398 352.355417 
L 420.334104 369.341219 
L 421.32681 378.528604 
L 422.319516 357.550677 
L 423.312222 365.02037 
L 424.304928 380.898978 
L 425.297634 389.109693 
L 426.29034 380.121338 
L 427.283046 398.289402 
L 428.275752 389.151669 
L 429.268458 376.021915 
L 430.261163 367.026615 
L 431.253869 364.268265 
L 432.246575 386.289547 
L 433.239281 357.280921 
L 434.231987 370.57567 
L 435.224693 359.695362 
L 436.217399 376.405697 
L 437.210105 387.430683 
L 438.202811 352.742936 
L 439.195517 353.508357 
L 440.188223 394.088294 
L 441.180929 363.344367 
L 442.173635 387.155115 
L 443.166341 390.52123 
L 444.159046 375.601969 
L 445.151752 375.552712 
L 446.144458 387.865837 
L 447.137164 387.140325 
L 448.12987 375.569611 
L 449.122576 384.15217 
L 450.115282 396.69532 
L 451.107988 378.464941 
L 452.100694 382.337344 
L 453.0934 388.536411 
L 455.078812 374.625031 
L 456.071518 370.459518 
L 457.064223 381.593313 
L 458.056929 389.338252 
L 459.049635 375.748838 
L 460.042341 378.376383 
L 461.035047 399.091822 
L 462.027753 379.964462 
L 463.020459 380.135982 
L 464.013165 377.142028 
L 465.005871 393.113411 
L 465.998577 381.736083 
L 466.991283 369.026638 
L 467.983989 377.83792 
L 468.976695 394.615919 
L 469.9694 402.077013 
L 470.962106 396.508111 
L 471.954812 398.168209 
L 472.947518 369.254826 
L 473.940224 392.452276 
L 474.93293 379.657911 
L 475.925636 392.548528 
L 476.918342 435.436437 
L 477.911048 365.729807 
L 478.903754 388.524362 
L 479.89646 396.193311 
L 480.889166 370.498387 
L 481.881872 403.011998 
L 482.874577 386.546532 
L 483.867283 399.778891 
L 484.859989 391.777582 
L 485.852695 368.028244 
L 487.838107 397.974133 
L 488.830813 395.114929 
L 489.823519 374.618289 
L 490.816225 404.353191 
L 491.808931 406.988637 
L 492.801637 368.846266 
L 493.794343 364.88149 
L 494.787049 371.132018 
L 495.779754 394.238455 
L 496.77246 388.077197 
L 497.765166 365.319025 
L 498.757872 389.733717 
L 499.750578 383.632928 
L 500.743284 379.952802 
L 501.73599 385.607394 
L 502.728696 401.565347 
L 503.721402 362.152832 
L 504.714108 372.993948 
L 505.706814 441.701957 
L 506.69952 397.428157 
L 507.692226 395.594468 
L 508.684932 404.700283 
L 509.677637 389.273725 
L 510.670343 400.902659 
L 511.663049 403.451039 
L 512.655755 392.114279 
L 513.648461 387.36447 
L 514.641167 387.162046 
L 515.633873 430.470931 
L 516.626579 418.281467 
L 517.619285 368.944198 
L 520.597403 385.403072 
L 521.590109 405.068226 
L 522.582814 340.475817 
L 523.57552 366.986536 
L 524.568226 363.127552 
L 525.560932 368.742053 
L 526.553638 368.260727 
L 527.546344 375.926649 
L 528.53905 374.838704 
L 529.531756 386.176233 
L 530.524462 353.464187 
L 531.517168 429.196937 
L 532.509874 377.45215 
L 533.50258 363.057894 
L 534.495286 396.296358 
L 535.487991 381.175425 
L 536.480697 406.533873 
L 538.466109 350.538346 
L 539.458815 383.823141 
L 540.451521 390.80036 
L 541.444227 368.279646 
L 542.436933 380.475559 
L 543.429639 376.550811 
L 544.422345 384.107298 
L 545.415051 360.084756 
L 546.407757 371.873228 
L 547.400463 367.343184 
L 548.393168 390.208746 
L 549.385874 371.679677 
L 550.37858 378.609665 
L 551.371286 386.975925 
L 552.363992 478.723641 
L 553.356698 385.662435 
L 554.349404 404.158125 
L 555.34211 384.639605 
L 556.334816 395.478717 
L 557.327522 371.416543 
L 558.320228 396.454101 
L 559.312934 402.113387 
L 560.30564 389.632636 
L 561.298345 375.44213 
L 562.291051 379.836108 
L 563.283757 394.024806 
L 564.276463 374.098582 
L 565.269169 375.720442 
L 566.261875 457.400734 
L 567.254581 411.474851 
L 568.247287 408.0695 
L 569.239993 398.113453 
L 570.232699 443.37898 
L 571.225405 451.792964 
L 572.218111 384.002177 
L 573.210817 418.633553 
L 574.203523 466.375407 
L 575.196228 394.991475 
L 576.188934 389.208858 
L 577.18164 406.578013 
L 578.174346 386.959092 
L 579.167052 390.892448 
L 580.159758 404.414831 
L 581.152464 385.30306 
L 582.14517 451.461522 
L 583.137876 397.305632 
L 584.130582 392.542854 
L 585.123288 417.624492 
L 586.115994 404.079087 
L 587.1087 423.034585 
L 588.101405 397.750675 
L 589.094111 408.537548 
L 590.086817 408.682823 
L 591.079523 492.48 
L 592.072229 463.031162 
L 593.064935 411.513226 
L 594.057641 401.509557 
L 595.050347 393.73849 
L 596.043053 413.788229 
L 597.035759 393.808562 
L 598.028465 413.638094 
L 599.021171 390.70936 
L 600.013877 423.701162 
L 601.006582 415.258412 
L 601.999288 404.708883 
L 602.991994 422.991383 
L 603.9847 396.19593 
L 604.977406 401.01092 
L 605.970112 389.593243 
L 606.962818 419.660847 
L 607.955524 414.501497 
L 608.94823 414.334426 
L 609.940936 397.537434 
L 610.933642 419.582446 
L 611.926348 408.461498 
L 612.919054 406.186374 
L 613.911759 422.562817 
L 614.904465 424.256769 
L 615.897171 437.614901 
L 616.889877 407.059966 
L 617.882583 398.768731 
L 618.875289 412.915012 
L 619.867995 405.999409 
L 620.860701 401.650055 
L 621.853407 412.072519 
L 622.846113 405.143961 
L 623.838819 436.553884 
L 624.831525 420.731043 
L 625.824231 408.609007 
L 626.816936 419.353538 
L 627.809642 413.306595 
L 628.802348 415.871482 
L 629.795054 411.204878 
L 630.78776 405.212862 
L 631.780466 409.710312 
L 632.773172 416.837761 
L 633.765878 417.295605 
L 634.758584 404.790582 
L 635.75129 410.565446 
L 636.743996 410.683549 
L 637.736702 416.732558 
L 639.722114 407.234151 
L 640.714819 416.570488 
L 641.707525 414.540996 
L 642.700231 422.537326 
L 643.692937 413.34256 
L 645.678349 408.616011 
L 646.671055 410.114217 
L 647.663761 416.729078 
L 648.656467 416.615363 
L 649.649173 415.009672 
L 650.641879 411.508348 
L 651.634585 416.384205 
L 652.627291 417.886133 
L 653.619996 411.536958 
L 654.612702 409.996391 
L 655.605408 411.352642 
L 656.598114 423.327604 
L 657.59082 410.072452 
L 658.583526 419.636671 
L 659.576232 407.081615 
L 660.568938 415.100237 
L 661.561644 416.612252 
L 662.55435 413.83394 
L 663.547056 417.115494 
L 664.539762 416.245253 
L 665.532468 419.175029 
L 666.525173 411.615038 
L 667.517879 414.179583 
L 668.510585 412.632609 
L 669.503291 419.922404 
L 670.495997 421.687518 
L 671.488703 422.825865 
L 673.474115 420.664147 
L 674.466821 417.938019 
L 675.459527 416.102901 
L 676.452233 419.652136 
L 677.444939 417.881324 
L 678.437645 413.031694 
L 679.43035 420.965038 
L 680.423056 419.832468 
L 681.415762 416.174094 
L 682.408468 420.97128 
L 683.401174 419.115436 
L 684.39388 418.126205 
L 685.386586 418.162359 
L 686.379292 420.793881 
L 687.371998 415.70063 
L 688.364704 418.28596 
L 689.35741 415.367671 
L 690.350116 422.610377 
L 691.342822 419.251073 
L 692.335527 420.325015 
L 693.328233 422.354863 
L 694.320939 420.660936 
L 695.313645 417.7529 
L 696.306351 419.652659 
L 697.299057 419.118296 
L 698.291763 420.880099 
L 699.284469 418.28948 
L 700.277175 420.428271 
L 701.269881 420.098751 
L 702.262587 423.609861 
L 703.255293 420.564239 
L 704.247999 420.71334 
L 705.240705 420.511546 
L 706.23341 420.73588 
L 707.226116 420.630357 
L 708.218822 422.438434 
L 709.211528 420.473237 
L 710.204234 417.652649 
L 711.19694 423.437007 
L 712.189646 419.30534 
L 713.182352 419.770991 
L 714.175058 419.486411 
L 715.167764 417.696897 
L 716.16047 421.355383 
L 717.153176 419.657184 
L 718.145882 419.971297 
L 719.138587 421.349899 
L 720.131293 421.340334 
L 721.123999 422.230892 
L 722.116705 420.186096 
L 723.109411 423.514369 
L 724.102117 420.729793 
L 725.094823 422.988365 
L 726.087529 422.140577 
L 727.080235 422.285919 
L 728.072941 422.62243 
L 729.065647 422.444693 
L 730.058353 419.975236 
L 731.051059 421.267 
L 732.043764 421.395091 
L 733.03647 421.009665 
L 734.029176 423.066896 
L 735.021882 421.588154 
L 736.014588 424.317787 
L 737.007294 422.44173 
L 738 423.818335 
L 738.992706 422.95258 
L 739.985412 423.053116 
L 740.978118 423.999645 
L 741.970824 420.177607 
L 742.96353 422.538067 
L 743.956236 421.972034 
L 744.948941 424.088324 
L 745.941647 422.469494 
L 746.934353 423.037756 
L 747.927059 424.247239 
L 748.919765 423.364866 
L 749.912471 423.833173 
L 750.905177 424.538949 
L 751.897883 422.785161 
L 752.890589 423.878525 
L 753.883295 422.68748 
L 754.876001 424.805252 
L 755.868707 422.499076 
L 756.861413 422.179555 
L 757.854118 423.052082 
L 758.846824 424.423271 
L 759.83953 424.549908 
L 760.832236 423.916748 
L 761.824942 423.520632 
L 762.817648 426.265744 
L 763.810354 424.576569 
L 764.80306 426.480864 
L 765.795766 426.2298 
L 766.788472 425.496078 
L 767.781178 423.75295 
L 768.773884 423.850567 
L 769.76659 424.63329 
L 770.759295 425.031275 
L 771.752001 423.55404 
L 772.744707 425.816456 
L 773.737413 424.777653 
L 774.730119 424.89311 
L 775.722825 424.362439 
L 776.715531 425.473628 
L 777.708237 426.084019 
L 779.693649 424.644187 
L 780.686355 424.606206 
L 781.679061 427.001496 
L 782.671767 423.234761 
L 783.664473 425.28174 
L 784.657178 426.154923 
L 785.649884 425.08143 
L 786.64259 424.842085 
L 787.635296 426.278307 
L 788.628002 427.327084 
L 789.620708 425.015103 
L 790.613414 427.022455 
L 791.60612 425.495479 
L 792.598826 424.198475 
L 793.591532 425.625205 
L 794.584238 426.774932 
L 795.576944 426.372754 
L 796.56965 425.358674 
L 797.562355 425.46623 
L 798.555061 427.104968 
L 799.547767 424.440097 
L 800.540473 426.714971 
L 801.533179 426.928065 
L 802.525885 425.564776 
L 803.518591 426.087657 
L 804.511297 426.298287 
L 805.504003 426.873627 
L 806.496709 427.194447 
L 807.489415 427.058774 
L 808.482121 425.107164 
L 809.474827 428.868603 
L 810.467532 426.280349 
L 811.460238 427.055253 
L 812.452944 427.643031 
L 813.44565 426.108935 
L 814.438356 426.658838 
L 815.431062 426.339815 
L 816.423768 428.442967 
L 817.416474 427.449409 
L 818.40918 429.293033 
L 819.401886 427.404616 
L 820.394592 428.609241 
L 821.387298 428.619783 
L 822.380004 426.785365 
L 823.372709 427.858922 
L 824.365415 427.561785 
L 825.358121 427.513073 
L 826.350827 428.312095 
L 827.343533 428.908606 
L 828.336239 429.068275 
L 829.328945 427.719258 
L 830.321651 427.161587 
L 831.314357 428.84352 
L 832.307063 429.328152 
L 833.299769 429.060105 
L 834.292475 427.960745 
L 835.285181 428.36902 
L 836.277886 430.315698 
L 837.270592 430.622927 
L 838.263298 427.452921 
L 839.256004 428.365289 
L 841.241416 428.814468 
L 842.234122 429.494204 
L 843.226828 428.489529 
L 844.219534 429.072053 
L 845.21224 429.801393 
L 846.204946 430.335217 
L 847.197652 428.020357 
L 848.190358 429.144507 
L 849.183064 429.573452 
L 850.175769 430.40032 
L 851.168475 428.317693 
L 852.161181 428.465085 
L 853.153887 428.228438 
L 854.146593 428.962759 
L 855.139299 429.91453 
L 856.132005 429.893028 
L 857.124711 428.718778 
L 860.102829 429.503508 
L 861.095535 429.47993 
L 862.088241 430.996132 
L 863.080946 427.873842 
L 864.073652 430.618488 
L 865.066358 428.673569 
L 866.059064 429.978321 
L 868.044476 428.518219 
L 869.037182 430.715856 
L 870.029888 430.820741 
L 871.022594 428.415355 
L 872.0153 431.246928 
L 873.008006 429.705344 
L 874.000712 428.838133 
L 874.993418 430.708402 
L 875.986123 431.715298 
L 876.978829 431.651695 
L 877.971535 429.764471 
L 878.964241 429.74639 
L 879.956947 429.572179 
L 880.949653 431.060011 
L 881.942359 431.67532 
L 882.935065 430.492731 
L 883.927771 430.448016 
L 884.920477 431.199504 
L 885.913183 429.669921 
L 886.905889 430.938782 
L 887.898595 431.543479 
L 888.8913 431.18571 
L 889.884006 430.262801 
L 890.876712 432.858486 
L 891.869418 431.639417 
L 892.862124 432.492823 
L 893.85483 429.891022 
L 894.847536 431.5037 
L 895.840242 429.678707 
L 896.832948 429.559752 
L 897.825654 432.092091 
L 898.81836 432.327997 
L 899.811066 431.789405 
L 900.803772 432.569902 
L 901.796477 431.164266 
L 902.789183 430.912328 
L 903.781889 431.531194 
L 904.774595 430.627508 
L 905.767301 430.991326 
L 906.760007 431.097567 
L 907.752713 432.087741 
L 908.745419 431.34223 
L 909.738125 430.002192 
L 910.730831 431.600934 
L 911.723537 431.536437 
L 912.716243 430.642203 
L 913.708949 432.102426 
L 914.701655 432.009763 
L 915.69436 433.391933 
L 916.687066 434.100276 
L 917.679772 432.142356 
L 918.672478 430.988173 
L 919.665184 432.395482 
L 920.65789 434.53322 
L 921.650596 432.825705 
L 922.643302 433.45651 
L 923.636008 432.625398 
L 924.628714 433.26028 
L 925.62142 432.657981 
L 926.614126 430.98433 
L 927.606832 431.664378 
L 928.599537 430.740764 
L 929.592243 432.614778 
L 930.584949 434.102915 
L 931.577655 432.804262 
L 932.570361 432.3459 
L 933.563067 433.348116 
L 934.555773 433.439465 
L 935.548479 433.151726 
L 936.541185 433.641137 
L 937.533891 433.571437 
L 938.526597 430.968122 
L 940.512009 433.191167 
L 941.504714 433.367199 
L 942.49742 432.343323 
L 943.490126 432.448137 
L 944.482832 433.269499 
L 945.475538 433.632751 
L 946.468244 435.181422 
L 947.46095 433.891329 
L 948.453656 433.433542 
L 949.446362 432.537991 
L 950.439068 430.652584 
L 951.431774 433.017698 
L 952.42448 433.738079 
L 953.417186 432.033406 
L 954.409891 434.740721 
L 955.402597 433.589656 
L 956.395303 432.208412 
L 957.388009 435.140683 
L 958.380715 436.65739 
L 960.366127 431.320682 
L 962.351539 434.203238 
L 963.344245 433.934887 
L 964.336951 432.128353 
L 965.329657 433.991207 
L 966.322363 433.817469 
L 967.315068 433.311835 
L 968.307774 434.437694 
L 969.30048 434.335455 
L 970.293186 435.049246 
L 971.285892 433.163723 
L 972.278598 431.763546 
L 973.271304 434.218638 
L 974.26401 434.656968 
L 975.256716 433.759519 
L 976.249422 433.559311 
L 977.242128 432.289993 
L 978.234834 433.914619 
L 979.22754 432.949262 
L 980.220246 434.883904 
L 981.212951 433.742741 
L 982.205657 434.325317 
L 983.198363 434.098161 
L 984.191069 433.157069 
L 985.183775 434.759689 
L 986.176481 434.227204 
L 987.169187 433.24803 
L 988.161893 435.665048 
L 989.154599 433.569533 
L 990.147305 435.652861 
L 991.140011 434.618873 
L 992.132717 434.546102 
L 993.125423 435.64972 
L 994.118128 435.190758 
L 995.110834 435.171813 
L 996.10354 434.14656 
L 997.096246 434.408937 
L 998.088952 437.061265 
L 999.081658 435.164209 
L 1000.074364 435.028199 
L 1001.06707 432.104213 
L 1002.059776 435.467793 
L 1003.052482 436.04904 
L 1004.045188 433.618029 
L 1006.0306 435.392989 
L 1007.023305 435.378246 
L 1008.016011 433.469353 
L 1009.008717 434.388992 
L 1010.001423 434.669211 
L 1011.986835 434.715382 
L 1012.979541 435.132658 
L 1013.972247 436.30419 
L 1014.964953 434.335044 
L 1015.957659 435.074021 
L 1016.950365 434.610018 
L 1017.943071 435.850532 
L 1018.935777 434.828497 
L 1019.928482 434.170868 
L 1020.921188 434.986615 
L 1021.913894 435.058841 
L 1022.9066 433.053498 
L 1023.899306 434.227719 
L 1024.892012 435.963625 
L 1025.884718 434.580541 
L 1026.877424 436.265355 
L 1027.87013 435.829256 
L 1028.862836 435.909859 
L 1029.855542 435.769453 
L 1030.848248 434.665567 
L 1031.840954 434.893159 
L 1032.833659 434.565632 
L 1033.826365 435.395881 
L 1034.819071 435.804156 
L 1035.811777 435.827666 
L 1036.804483 433.626694 
L 1037.797189 434.436326 
L 1038.789895 437.011835 
L 1039.782601 435.040434 
L 1040.775307 436.262757 
L 1041.768013 437.004524 
L 1042.760719 434.844796 
L 1043.753425 435.998694 
L 1044.746131 437.736906 
L 1045.738837 435.586739 
L 1046.731542 436.687406 
L 1047.724248 436.26426 
L 1048.716954 436.945112 
L 1049.70966 438.144657 
L 1050.702366 434.699868 
L 1051.695072 435.578052 
L 1052.687778 435.942936 
L 1053.680484 434.576029 
L 1054.67319 436.190369 
L 1055.665896 437.364417 
L 1056.658602 435.882592 
L 1057.651308 437.472325 
L 1058.644014 436.695503 
L 1059.636719 437.801 
L 1060.629425 436.203048 
L 1061.622131 436.519725 
L 1062.614837 436.013689 
L 1063.607543 436.481758 
L 1064.600249 438.738996 
L 1065.592955 436.249906 
L 1066.585661 435.366041 
L 1067.578367 437.70734 
L 1068.571073 438.843163 
L 1069.563779 435.788498 
L 1070.556485 437.382086 
L 1071.549191 437.097683 
L 1072.541896 436.454176 
L 1074.527308 434.327661 
L 1075.520014 436.509235 
L 1076.51272 436.319745 
L 1077.505426 437.467412 
L 1078.498132 435.811488 
L 1079.490838 437.100043 
L 1080.483544 437.848803 
L 1081.47625 436.198987 
L 1082.468956 436.399963 
L 1083.461662 435.154291 
L 1084.454368 436.80191 
L 1085.447073 435.616919 
L 1086.439779 437.077414 
L 1087.432485 437.351213 
L 1088.425191 435.81964 
L 1089.417897 438.065264 
L 1090.410603 439.019953 
L 1091.403309 436.954301 
L 1092.396015 438.961577 
L 1093.388721 438.018061 
L 1094.381427 434.436982 
L 1095.374133 437.263629 
L 1096.366839 438.193147 
L 1097.359545 436.828538 
L 1098.35225 438.126983 
L 1099.344956 435.939289 
L 1100.337662 435.201674 
L 1101.330368 436.704827 
L 1102.323074 437.138874 
L 1103.31578 435.862651 
L 1104.308486 437.329689 
L 1105.301192 437.569466 
L 1106.293898 436.659684 
L 1107.286604 436.912608 
L 1108.27931 438.019757 
L 1109.272016 436.377513 
L 1110.264722 435.724829 
L 1111.257428 438.679448 
L 1112.250133 437.201792 
L 1113.242839 436.375135 
L 1114.235545 438.594327 
L 1115.228251 436.705758 
L 1116.220957 435.751367 
L 1117.213663 436.269467 
L 1118.206369 438.242762 
L 1119.199075 437.069174 
L 1120.191781 436.073876 
L 1121.184487 439.539678 
L 1122.177193 437.957656 
L 1123.169899 436.893381 
L 1124.162605 439.323766 
L 1125.15531 438.596179 
L 1126.148016 435.779855 
L 1127.140722 436.861403 
L 1128.133428 436.647295 
L 1129.126134 436.958525 
L 1130.11884 436.800224 
L 1131.111546 437.503814 
L 1132.104252 437.961114 
L 1133.096958 437.953284 
L 1134.089664 438.213583 
L 1135.08237 437.210276 
L 1136.075076 437.464921 
L 1137.067782 438.345627 
L 1138.060487 436.619325 
L 1139.053193 439.258185 
L 1141.038605 437.02015 
L 1142.031311 439.762448 
L 1143.024017 438.076124 
L 1144.016723 437.746072 
L 1145.009429 437.200909 
L 1146.002135 438.283656 
L 1146.994841 437.133885 
L 1147.987547 438.090676 
L 1149.972959 436.243065 
L 1150.965664 438.591846 
L 1151.95837 438.388905 
L 1152.951076 439.925067 
L 1153.943782 437.630758 
L 1154.936488 435.029003 
L 1155.929194 437.982149 
L 1156.9219 438.545594 
L 1157.914606 437.944094 
L 1158.907312 437.720107 
L 1159.900018 436.756505 
L 1160.892724 439.40007 
L 1161.88543 437.78526 
L 1162.878136 437.611573 
L 1163.870841 439.571128 
L 1164.863547 438.27481 
L 1165.856253 437.487474 
L 1166.848959 438.995049 
L 1167.841665 437.864375 
L 1168.834371 439.259323 
L 1169.827077 439.227828 
L 1170.819783 436.72844 
L 1171.812489 436.509019 
L 1172.805195 437.500533 
L 1173.797901 436.737599 
L 1174.790607 437.50589 
L 1175.783313 438.506692 
L 1176.776019 438.262507 
L 1177.768724 438.817826 
L 1178.76143 435.241487 
L 1179.754136 438.704046 
L 1180.746842 436.416112 
L 1181.739548 436.964557 
L 1182.732254 438.18822 
L 1183.72496 437.351812 
L 1184.717666 436.812557 
L 1185.710372 439.24905 
L 1186.703078 438.560221 
L 1187.695784 437.104434 
L 1188.68849 437.768929 
L 1189.681196 439.105725 
L 1190.673901 439.059688 
L 1191.666607 437.234522 
L 1192.659313 436.620108 
L 1193.652019 438.844221 
L 1194.644725 438.669803 
L 1195.637431 436.895898 
L 1196.630137 437.56162 
L 1197.622843 436.862164 
L 1198.615549 437.272223 
L 1199.608255 439.04727 
L 1201.593667 439.658524 
L 1202.586373 439.064621 
L 1203.579078 439.527547 
L 1204.571784 439.312931 
L 1205.56449 437.663781 
L 1207.549902 437.805453 
L 1208.542608 437.438258 
L 1209.535314 437.289413 
L 1210.52802 439.48549 
L 1211.520726 438.251027 
L 1212.513432 440.06902 
L 1213.506138 437.856638 
L 1214.498844 436.844104 
L 1215.49155 438.840194 
L 1216.484255 437.725784 
L 1217.476961 439.755194 
L 1218.469667 437.381045 
L 1221.447785 440.468768 
L 1222.440491 439.026223 
L 1223.433197 438.190108 
L 1224.425903 439.656972 
L 1225.418609 437.629076 
L 1226.411315 436.161489 
L 1227.404021 438.405507 
L 1228.396727 437.755717 
L 1229.389432 437.804815 
L 1230.382138 436.805083 
L 1231.374844 439.597533 
L 1232.36755 440.480788 
L 1233.360256 439.020491 
L 1234.352962 441.082462 
L 1235.345668 439.283702 
L 1236.338374 438.932985 
L 1237.33108 439.100396 
L 1238.323786 438.607781 
L 1239.316492 436.871158 
L 1240.309198 438.724013 
L 1241.301904 441.353385 
L 1242.29461 436.632445 
L 1243.287315 439.397128 
L 1244.280021 440.777702 
L 1245.272727 438.499555 
L 1245.272727 438.499555 
" clip-path="url(#pb945517722)" style="fill: none; stroke: #1f77b4; stroke-width: 1.5; stroke-linecap: square"/>
   </g>
   <g id="patch_3">
    <path d="M 180 512.64 
L 180 69.12 
" style="fill: none; stroke: #000000; stroke-width: 0.8; stroke-linejoin: miter; stroke-linecap: square"/>
   </g>
   <g id="patch_4">
    <path d="M 1296 512.64 
L 1296 69.12 
" style="fill: none; stroke: #000000; stroke-width: 0.8; stroke-linejoin: miter; stroke-linecap: square"/>
   </g>
   <g id="patch_5">
    <path d="M 180 512.64 
L 1296 512.64 
" style="fill: none; stroke: #000000; stroke-width: 0.8; stroke-linejoin: miter; stroke-linecap: square"/>
   </g>
   <g id="patch_6">
    <path d="M 180 69.12 
L 1296 69.12 
" style="fill: none; stroke: #000000; stroke-width: 0.8; stroke-linejoin: miter; stroke-linecap: square"/>
   </g>
   <g id="text_12">
    <!-- source11-receiver15 -->
    <g transform="translate(532.175 60.80125) scale(0.4 -0.4)">
     <defs>
      <path id="DejaVuSans-73" d="M 2834 3397 
L 2834 2853 
Q 2591 2978 2328 3040 
Q 2066 3103 1784 3103 
Q 1356 3103 1142 2972 
Q 928 2841 928 2578 
Q 928 2378 1081 2264 
Q 1234 2150 1697 2047 
L 1894 2003 
Q 2506 1872 2764 1633 
Q 3022 1394 3022 966 
Q 3022 478 2636 193 
Q 2250 -91 1575 -91 
Q 1294 -91 989 -36 
Q 684 19 347 128 
L 347 722 
Q 666 556 975 473 
Q 1284 391 1588 391 
Q 1994 391 2212 530 
Q 2431 669 2431 922 
Q 2431 1156 2273 1281 
Q 2116 1406 1581 1522 
L 1381 1569 
Q 847 1681 609 1914 
Q 372 2147 372 2553 
Q 372 3047 722 3315 
Q 1072 3584 1716 3584 
Q 2034 3584 2315 3537 
Q 2597 3491 2834 3397 
z
" transform="scale(0.015625)"/>
      <path id="DejaVuSans-6f" d="M 1959 3097 
Q 1497 3097 1228 2736 
Q 959 2375 959 1747 
Q 959 1119 1226 758 
Q 1494 397 1959 397 
Q 2419 397 2687 759 
Q 2956 1122 2956 1747 
Q 2956 2369 2687 2733 
Q 2419 3097 1959 3097 
z
M 1959 3584 
Q 2709 3584 3137 3096 
Q 3566 2609 3566 1747 
Q 3566 888 3137 398 
Q 2709 -91 1959 -91 
Q 1206 -91 779 398 
Q 353 888 353 1747 
Q 353 2609 779 3096 
Q 1206 3584 1959 3584 
z
" transform="scale(0.015625)"/>
      <path id="DejaVuSans-75" d="M 544 1381 
L 544 3500 
L 1119 3500 
L 1119 1403 
Q 1119 906 1312 657 
Q 1506 409 1894 409 
Q 2359 409 2629 706 
Q 2900 1003 2900 1516 
L 2900 3500 
L 3475 3500 
L 3475 0 
L 2900 0 
L 2900 538 
Q 2691 219 2414 64 
Q 2138 -91 1772 -91 
Q 1169 -91 856 284 
Q 544 659 544 1381 
z
M 1991 3584 
L 1991 3584 
z
" transform="scale(0.015625)"/>
      <path id="DejaVuSans-72" d="M 2631 2963 
Q 2534 3019 2420 3045 
Q 2306 3072 2169 3072 
Q 1681 3072 1420 2755 
Q 1159 2438 1159 1844 
L 1159 0 
L 581 0 
L 581 3500 
L 1159 3500 
L 1159 2956 
Q 1341 3275 1631 3429 
Q 1922 3584 2338 3584 
Q 2397 3584 2469 3576 
Q 2541 3569 2628 3553 
L 2631 2963 
z
" transform="scale(0.015625)"/>
      <path id="DejaVuSans-63" d="M 3122 3366 
L 3122 2828 
Q 2878 2963 2633 3030 
Q 2388 3097 2138 3097 
Q 1578 3097 1268 2742 
Q 959 2388 959 1747 
Q 959 1106 1268 751 
Q 1578 397 2138 397 
Q 2388 397 2633 464 
Q 2878 531 3122 666 
L 3122 134 
Q 2881 22 2623 -34 
Q 2366 -91 2075 -91 
Q 1284 -91 818 406 
Q 353 903 353 1747 
Q 353 2603 823 3093 
Q 1294 3584 2113 3584 
Q 2378 3584 2631 3529 
Q 2884 3475 3122 3366 
z
" transform="scale(0.015625)"/>
      <path id="DejaVuSans-65" d="M 3597 1894 
L 3597 1613 
L 953 1613 
Q 991 1019 1311 708 
Q 1631 397 2203 397 
Q 2534 397 2845 478 
Q 3156 559 3463 722 
L 3463 178 
Q 3153 47 2828 -22 
Q 2503 -91 2169 -91 
Q 1331 -91 842 396 
Q 353 884 353 1716 
Q 353 2575 817 3079 
Q 1281 3584 2069 3584 
Q 2775 3584 3186 3129 
Q 3597 2675 3597 1894 
z
M 3022 2063 
Q 3016 2534 2758 2815 
Q 2500 3097 2075 3097 
Q 1594 3097 1305 2825 
Q 1016 2553 972 2059 
L 3022 2063 
z
" transform="scale(0.015625)"/>
      <path id="DejaVuSans-2d" d="M 313 2009 
L 1997 2009 
L 1997 1497 
L 313 1497 
L 313 2009 
z
" transform="scale(0.015625)"/>
      <path id="DejaVuSans-69" d="M 603 3500 
L 1178 3500 
L 1178 0 
L 603 0 
L 603 3500 
z
M 603 4863 
L 1178 4863 
L 1178 4134 
L 603 4134 
L 603 4863 
z
" transform="scale(0.015625)"/>
      <path id="DejaVuSans-76" d="M 191 3500 
L 800 3500 
L 1894 563 
L 2988 3500 
L 3597 3500 
L 2284 0 
L 1503 0 
L 191 3500 
z
" transform="scale(0.015625)"/>
     </defs>
     <use xlink:href="#DejaVuSans-73"/>
     <use xlink:href="#DejaVuSans-6f" x="52.099609"/>
     <use xlink:href="#DejaVuSans-75" x="113.28125"/>
     <use xlink:href="#DejaVuSans-72" x="176.660156"/>
     <use xlink:href="#DejaVuSans-63" x="215.523438"/>
     <use xlink:href="#DejaVuSans-65" x="270.503906"/>
     <use xlink:href="#DejaVuSans-31" x="332.027344"/>
     <use xlink:href="#DejaVuSans-31" x="395.650391"/>
     <use xlink:href="#DejaVuSans-2d" x="459.273438"/>
     <use xlink:href="#DejaVuSans-72" x="495.357422"/>
     <use xlink:href="#DejaVuSans-65" x="534.220703"/>
     <use xlink:href="#DejaVuSans-63" x="595.744141"/>
     <use xlink:href="#DejaVuSans-65" x="650.724609"/>
     <use xlink:href="#DejaVuSans-69" x="712.248047"/>
     <use xlink:href="#DejaVuSans-76" x="740.03125"/>
     <use xlink:href="#DejaVuSans-65" x="799.210938"/>
     <use xlink:href="#DejaVuSans-72" x="860.734375"/>
     <use xlink:href="#DejaVuSans-31" x="901.847656"/>
     <use xlink:href="#DejaVuSans-35" x="965.470703"/>
    </g>
   </g>
  </g>
 </g>
 <defs>
  <clipPath id="pb945517722">
   <rect x="180" y="69.12" width="1116" height="443.52"/>
  </clipPath>
 </defs>
</svg>
