<?xml version="1.0" encoding="utf-8" standalone="no"?>
<!DOCTYPE svg PUBLIC "-//W3C//DTD SVG 1.1//EN"
  "http://www.w3.org/Graphics/SVG/1.1/DTD/svg11.dtd">
<svg xmlns:xlink="http://www.w3.org/1999/xlink" width="1440pt" height="576pt" viewBox="0 0 1440 576" xmlns="http://www.w3.org/2000/svg" version="1.1">
 <metadata>
  <rdf:RDF xmlns:dc="http://purl.org/dc/elements/1.1/" xmlns:cc="http://creativecommons.org/ns#" xmlns:rdf="http://www.w3.org/1999/02/22-rdf-syntax-ns#">
   <cc:Work>
    <dc:type rdf:resource="http://purl.org/dc/dcmitype/StillImage"/>
    <dc:date>2024-05-22T04:49:59.886433</dc:date>
    <dc:format>image/svg+xml</dc:format>
    <dc:creator>
     <cc:Agent>
      <dc:title>Matplotlib v3.8.3, https://matplotlib.org/</dc:title>
     </cc:Agent>
    </dc:creator>
   </cc:Work>
  </rdf:RDF>
 </metadata>
 <defs>
  <style type="text/css">*{stroke-linejoin: round; stroke-linecap: butt}</style>
 </defs>
 <g id="figure_1">
  <g id="patch_1">
   <path d="M 0 576 
L 1440 576 
L 1440 0 
L 0 0 
z
" style="fill: #ffffff"/>
  </g>
  <g id="axes_1">
   <g id="patch_2">
    <path d="M 180 512.64 
L 1296 512.64 
L 1296 69.12 
L 180 69.12 
z
" style="fill: #ffffff"/>
   </g>
   <g id="matplotlib.axis_1">
    <g id="xtick_1">
     <g id="line2d_1">
      <defs>
       <path id="m58b66f107e" d="M 0 0 
L 0 3.5 
" style="stroke: #000000; stroke-width: 0.8"/>
      </defs>
      <g>
       <use xlink:href="#m58b66f107e" x="229.734567" y="512.64" style="stroke: #000000; stroke-width: 0.8"/>
      </g>
     </g>
     <g id="text_1">
      <!-- 0 -->
      <g transform="translate(226.553317 527.238438) scale(0.1 -0.1)">
       <defs>
        <path id="DejaVuSans-30" d="M 2034 4250 
Q 1547 4250 1301 3770 
Q 1056 3291 1056 2328 
Q 1056 1369 1301 889 
Q 1547 409 2034 409 
Q 2525 409 2770 889 
Q 3016 1369 3016 2328 
Q 3016 3291 2770 3770 
Q 2525 4250 2034 4250 
z
M 2034 4750 
Q 2819 4750 3233 4129 
Q 3647 3509 3647 2328 
Q 3647 1150 3233 529 
Q 2819 -91 2034 -91 
Q 1250 -91 836 529 
Q 422 1150 422 2328 
Q 422 3509 836 4129 
Q 1250 4750 2034 4750 
z
" transform="scale(0.015625)"/>
       </defs>
       <use xlink:href="#DejaVuSans-30"/>
      </g>
     </g>
    </g>
    <g id="xtick_2">
     <g id="line2d_2">
      <g>
       <use xlink:href="#m58b66f107e" x="433.04074" y="512.64" style="stroke: #000000; stroke-width: 0.8"/>
      </g>
     </g>
     <g id="text_2">
      <!-- 500 -->
      <g transform="translate(423.49699 527.238438) scale(0.1 -0.1)">
       <defs>
        <path id="DejaVuSans-35" d="M 691 4666 
L 3169 4666 
L 3169 4134 
L 1269 4134 
L 1269 2991 
Q 1406 3038 1543 3061 
Q 1681 3084 1819 3084 
Q 2600 3084 3056 2656 
Q 3513 2228 3513 1497 
Q 3513 744 3044 326 
Q 2575 -91 1722 -91 
Q 1428 -91 1123 -41 
Q 819 9 494 109 
L 494 744 
Q 775 591 1075 516 
Q 1375 441 1709 441 
Q 2250 441 2565 725 
Q 2881 1009 2881 1497 
Q 2881 1984 2565 2268 
Q 2250 2553 1709 2553 
Q 1456 2553 1204 2497 
Q 953 2441 691 2322 
L 691 4666 
z
" transform="scale(0.015625)"/>
       </defs>
       <use xlink:href="#DejaVuSans-35"/>
       <use xlink:href="#DejaVuSans-30" x="63.623047"/>
       <use xlink:href="#DejaVuSans-30" x="127.246094"/>
      </g>
     </g>
    </g>
    <g id="xtick_3">
     <g id="line2d_3">
      <g>
       <use xlink:href="#m58b66f107e" x="636.346913" y="512.64" style="stroke: #000000; stroke-width: 0.8"/>
      </g>
     </g>
     <g id="text_3">
      <!-- 1000 -->
      <g transform="translate(623.621913 527.238438) scale(0.1 -0.1)">
       <defs>
        <path id="DejaVuSans-31" d="M 794 531 
L 1825 531 
L 1825 4091 
L 703 3866 
L 703 4441 
L 1819 4666 
L 2450 4666 
L 2450 531 
L 3481 531 
L 3481 0 
L 794 0 
L 794 531 
z
" transform="scale(0.015625)"/>
       </defs>
       <use xlink:href="#DejaVuSans-31"/>
       <use xlink:href="#DejaVuSans-30" x="63.623047"/>
       <use xlink:href="#DejaVuSans-30" x="127.246094"/>
       <use xlink:href="#DejaVuSans-30" x="190.869141"/>
      </g>
     </g>
    </g>
    <g id="xtick_4">
     <g id="line2d_4">
      <g>
       <use xlink:href="#m58b66f107e" x="839.653087" y="512.64" style="stroke: #000000; stroke-width: 0.8"/>
      </g>
     </g>
     <g id="text_4">
      <!-- 1500 -->
      <g transform="translate(826.928087 527.238438) scale(0.1 -0.1)">
       <use xlink:href="#DejaVuSans-31"/>
       <use xlink:href="#DejaVuSans-35" x="63.623047"/>
       <use xlink:href="#DejaVuSans-30" x="127.246094"/>
       <use xlink:href="#DejaVuSans-30" x="190.869141"/>
      </g>
     </g>
    </g>
    <g id="xtick_5">
     <g id="line2d_5">
      <g>
       <use xlink:href="#m58b66f107e" x="1042.95926" y="512.64" style="stroke: #000000; stroke-width: 0.8"/>
      </g>
     </g>
     <g id="text_5">
      <!-- 2000 -->
      <g transform="translate(1030.23426 527.238438) scale(0.1 -0.1)">
       <defs>
        <path id="DejaVuSans-32" d="M 1228 531 
L 3431 531 
L 3431 0 
L 469 0 
L 469 531 
Q 828 903 1448 1529 
Q 2069 2156 2228 2338 
Q 2531 2678 2651 2914 
Q 2772 3150 2772 3378 
Q 2772 3750 2511 3984 
Q 2250 4219 1831 4219 
Q 1534 4219 1204 4116 
Q 875 4013 500 3803 
L 500 4441 
Q 881 4594 1212 4672 
Q 1544 4750 1819 4750 
Q 2544 4750 2975 4387 
Q 3406 4025 3406 3419 
Q 3406 3131 3298 2873 
Q 3191 2616 2906 2266 
Q 2828 2175 2409 1742 
Q 1991 1309 1228 531 
z
" transform="scale(0.015625)"/>
       </defs>
       <use xlink:href="#DejaVuSans-32"/>
       <use xlink:href="#DejaVuSans-30" x="63.623047"/>
       <use xlink:href="#DejaVuSans-30" x="127.246094"/>
       <use xlink:href="#DejaVuSans-30" x="190.869141"/>
      </g>
     </g>
    </g>
    <g id="xtick_6">
     <g id="line2d_6">
      <g>
       <use xlink:href="#m58b66f107e" x="1246.265433" y="512.64" style="stroke: #000000; stroke-width: 0.8"/>
      </g>
     </g>
     <g id="text_6">
      <!-- 2500 -->
      <g transform="translate(1233.540433 527.238438) scale(0.1 -0.1)">
       <use xlink:href="#DejaVuSans-32"/>
       <use xlink:href="#DejaVuSans-35" x="63.623047"/>
       <use xlink:href="#DejaVuSans-30" x="127.246094"/>
       <use xlink:href="#DejaVuSans-30" x="190.869141"/>
      </g>
     </g>
    </g>
   </g>
   <g id="matplotlib.axis_2">
    <g id="ytick_1">
     <g id="line2d_7">
      <defs>
       <path id="mcd5ce70ac2" d="M 0 0 
L -3.5 0 
" style="stroke: #000000; stroke-width: 0.8"/>
      </defs>
      <g>
       <use xlink:href="#mcd5ce70ac2" x="180" y="431.315088" style="stroke: #000000; stroke-width: 0.8"/>
      </g>
     </g>
     <g id="text_7">
      <!-- −4 -->
      <g transform="translate(158.257812 435.114306) scale(0.1 -0.1)">
       <defs>
        <path id="DejaVuSans-2212" d="M 678 2272 
L 4684 2272 
L 4684 1741 
L 678 1741 
L 678 2272 
z
" transform="scale(0.015625)"/>
        <path id="DejaVuSans-34" d="M 2419 4116 
L 825 1625 
L 2419 1625 
L 2419 4116 
z
M 2253 4666 
L 3047 4666 
L 3047 1625 
L 3713 1625 
L 3713 1100 
L 3047 1100 
L 3047 0 
L 2419 0 
L 2419 1100 
L 313 1100 
L 313 1709 
L 2253 4666 
z
" transform="scale(0.015625)"/>
       </defs>
       <use xlink:href="#DejaVuSans-2212"/>
       <use xlink:href="#DejaVuSans-34" x="83.789062"/>
      </g>
     </g>
    </g>
    <g id="ytick_2">
     <g id="line2d_8">
      <g>
       <use xlink:href="#mcd5ce70ac2" x="180" y="347.581798" style="stroke: #000000; stroke-width: 0.8"/>
      </g>
     </g>
     <g id="text_8">
      <!-- −2 -->
      <g transform="translate(158.257812 351.381017) scale(0.1 -0.1)">
       <use xlink:href="#DejaVuSans-2212"/>
       <use xlink:href="#DejaVuSans-32" x="83.789062"/>
      </g>
     </g>
    </g>
    <g id="ytick_3">
     <g id="line2d_9">
      <g>
       <use xlink:href="#mcd5ce70ac2" x="180" y="263.848508" style="stroke: #000000; stroke-width: 0.8"/>
      </g>
     </g>
     <g id="text_9">
      <!-- 0 -->
      <g transform="translate(166.6375 267.647727) scale(0.1 -0.1)">
       <use xlink:href="#DejaVuSans-30"/>
      </g>
     </g>
    </g>
    <g id="ytick_4">
     <g id="line2d_10">
      <g>
       <use xlink:href="#mcd5ce70ac2" x="180" y="180.115218" style="stroke: #000000; stroke-width: 0.8"/>
      </g>
     </g>
     <g id="text_10">
      <!-- 2 -->
      <g transform="translate(166.6375 183.914437) scale(0.1 -0.1)">
       <use xlink:href="#DejaVuSans-32"/>
      </g>
     </g>
    </g>
    <g id="ytick_5">
     <g id="line2d_11">
      <g>
       <use xlink:href="#mcd5ce70ac2" x="180" y="96.381928" style="stroke: #000000; stroke-width: 0.8"/>
      </g>
     </g>
     <g id="text_11">
      <!-- 4 -->
      <g transform="translate(166.6375 100.181147) scale(0.1 -0.1)">
       <use xlink:href="#DejaVuSans-34"/>
      </g>
     </g>
    </g>
   </g>
   <g id="line2d_12">
    <path d="M 230.727273 199.258363 
L 232.712685 198.351011 
L 234.698096 196.748751 
L 239.661626 192.395363 
L 241.647038 190.821676 
L 242.639744 190.157578 
L 243.63245 189.815607 
L 244.625156 190.093284 
L 246.610568 192.164656 
L 247.603273 188.974246 
L 248.595979 177.358748 
L 249.588685 162.125023 
L 250.581391 149.620933 
L 251.574097 141.432465 
L 252.566803 136.75097 
L 253.559509 134.23631 
L 254.552215 132.90972 
L 255.544921 132.230344 
L 256.537627 131.908348 
L 260.50845 131.239449 
L 261.501156 130.852207 
L 262.493862 130.310952 
L 263.486568 129.60138 
L 265.47198 127.759563 
L 270.43551 122.569174 
L 271.428216 121.796446 
L 272.420922 121.23476 
L 273.413627 120.890888 
L 274.406333 120.836507 
L 275.399039 121.095867 
L 276.391745 121.716602 
L 278.377157 123.641126 
L 279.369863 124.017837 
L 280.362569 123.315409 
L 281.355275 121.226547 
L 282.347981 117.892256 
L 283.340687 113.574826 
L 286.318804 98.814973 
L 287.31151 94.813425 
L 288.304216 91.831122 
L 289.296922 89.994709 
L 290.289628 89.28 
L 291.282334 89.529108 
L 292.27504 90.535516 
L 293.267746 92.162154 
L 294.260452 94.27427 
L 296.245864 99.545735 
L 298.231276 105.837413 
L 300.216687 112.959646 
L 303.194805 124.726389 
L 306.172923 136.285038 
L 307.165629 139.611057 
L 308.158335 142.485573 
L 309.151041 144.858528 
L 310.143747 146.769388 
L 311.136453 148.301813 
L 315.107276 153.391577 
L 316.099982 155.073277 
L 317.092688 157.110132 
L 318.085394 159.530012 
L 319.0781 162.390022 
L 320.070806 165.7109 
L 322.056218 173.714935 
L 324.04163 182.552108 
L 325.034336 186.175028 
L 326.027041 188.156761 
L 327.019747 187.902901 
L 328.012453 185.547516 
L 329.005159 181.775475 
L 331.983277 169.137051 
L 332.975983 165.619661 
L 333.968689 162.626193 
L 334.961395 160.124126 
L 335.954101 158.13627 
L 336.946807 156.589517 
L 337.939513 155.473961 
L 338.932218 154.764963 
L 339.924924 154.444643 
L 340.91763 154.464891 
L 341.910336 154.803836 
L 342.903042 155.415746 
L 343.895748 156.261908 
L 344.888454 157.296356 
L 348.859278 161.984416 
L 349.851984 162.870294 
L 350.84469 163.443616 
L 351.837395 163.69415 
L 352.830101 163.666336 
L 353.822807 163.227432 
L 354.815513 162.600827 
L 356.800925 160.8905 
L 358.786337 159.260363 
L 359.779043 158.716207 
L 360.771749 158.41725 
L 361.764455 158.429568 
L 362.757161 158.716928 
L 363.749867 159.376833 
L 364.742572 160.364417 
L 365.735278 161.735915 
L 366.727984 163.524476 
L 367.72069 165.768577 
L 368.713396 168.464889 
L 369.706102 171.706731 
L 370.698808 175.53127 
L 371.691514 180.007905 
L 372.68422 185.191885 
L 373.676926 191.191121 
L 375.662338 205.539234 
L 376.655044 213.129756 
L 377.64775 219.064192 
L 378.640455 220.961407 
L 379.633161 218.059219 
L 381.618573 205.965404 
L 382.611279 200.022341 
L 383.603985 194.910353 
L 384.596691 190.538396 
L 385.589397 186.929447 
L 386.582103 184.006593 
L 387.574809 181.650271 
L 388.567515 179.794554 
L 389.560221 178.382501 
L 390.552927 177.355713 
L 391.545632 176.688583 
L 392.538338 176.299753 
L 393.531044 176.151808 
L 394.52375 176.206972 
L 395.516456 176.441485 
L 397.501868 177.24302 
L 402.465398 179.660929 
L 408.421633 181.948554 
L 409.414339 182.510202 
L 411.399751 184.042187 
L 412.392457 185.015071 
L 413.385163 186.23042 
L 415.370575 189.212295 
L 416.363281 191.036648 
L 418.348692 195.421269 
L 420.334104 200.755126 
L 422.319516 206.948282 
L 425.297634 217.551514 
L 428.275752 227.922239 
L 429.268458 230.654872 
L 430.261163 232.895449 
L 431.253869 234.452079 
L 432.246575 235.206618 
L 433.239281 235.098654 
L 434.231987 234.282024 
L 435.224693 232.810783 
L 436.217399 230.750539 
L 438.202811 225.67353 
L 444.159046 209.066026 
L 446.144458 204.541578 
L 447.137164 202.559445 
L 448.12987 200.83276 
L 450.115282 198.092365 
L 451.107988 197.032628 
L 452.100694 196.266135 
L 453.0934 195.703325 
L 454.086106 195.362228 
L 455.078812 195.267725 
L 456.071518 195.366689 
L 457.064223 195.726022 
L 458.056929 196.290749 
L 459.049635 197.107449 
L 460.042341 198.119105 
L 461.035047 199.361847 
L 463.020459 202.488586 
L 465.005871 206.57533 
L 466.991283 211.596195 
L 468.976695 217.784281 
L 470.962106 225.352766 
L 471.954812 229.860545 
L 472.947518 234.923096 
L 473.940224 240.684777 
L 474.93293 247.457602 
L 475.925636 255.409598 
L 476.918342 264.785768 
L 478.903754 286.153624 
L 479.89646 289.385096 
L 480.889166 282.331333 
L 482.874577 260.399127 
L 483.867283 251.513109 
L 484.859989 243.996306 
L 485.852695 237.670904 
L 486.845401 232.268417 
L 487.838107 227.770908 
L 488.830813 223.866069 
L 489.823519 220.571553 
L 490.816225 217.825182 
L 491.808931 215.531953 
L 492.801637 213.700577 
L 493.794343 212.245319 
L 494.787049 211.193806 
L 495.779754 210.549397 
L 496.77246 210.207164 
L 497.765166 210.279337 
L 498.757872 210.661971 
L 499.750578 211.412611 
L 500.743284 212.545702 
L 501.73599 214.047509 
L 502.728696 215.86734 
L 503.721402 218.169921 
L 504.714108 220.798756 
L 506.69952 227.283572 
L 508.684932 235.511663 
L 512.655755 253.792493 
L 513.648461 256.901417 
L 514.641167 258.330924 
L 515.633873 258.231689 
L 516.626579 256.64536 
L 517.619285 254.374402 
L 519.604697 249.108167 
L 520.597403 246.609448 
L 521.590109 244.507567 
L 523.57552 241.286941 
L 525.560932 239.00444 
L 528.53905 237.293145 
L 529.531756 236.843671 
L 532.509874 236.074745 
L 533.50258 235.795051 
L 535.487991 235.705816 
L 536.480697 235.767745 
L 537.473403 236.173837 
L 538.466109 236.732548 
L 539.458815 237.570645 
L 540.451521 238.784377 
L 541.444227 240.464887 
L 542.436933 242.584854 
L 543.429639 245.46535 
L 544.422345 248.849802 
L 545.415051 253.058679 
L 546.407757 258.651859 
L 547.400463 265.420757 
L 548.393168 273.813319 
L 550.37858 295.414103 
L 551.371286 300.471503 
L 552.363992 293.527012 
L 554.349404 269.019132 
L 555.34211 259.381152 
L 556.334816 251.329046 
L 557.327522 244.576258 
L 558.320228 238.855276 
L 559.312934 234.193028 
L 560.30564 230.096189 
L 561.298345 226.785483 
L 562.291051 224.029428 
L 563.283757 221.693325 
L 564.276463 219.816135 
L 565.269169 218.400631 
L 566.261875 217.407779 
L 567.254581 216.720035 
L 568.247287 216.376842 
L 569.239993 216.442956 
L 570.232699 216.821873 
L 571.225405 217.590717 
L 572.218111 218.618739 
L 573.210817 220.014246 
L 574.203523 221.702022 
L 575.196228 223.752844 
L 576.188934 226.139524 
L 577.18164 228.911046 
L 578.174346 232.072068 
L 580.159758 239.527547 
L 582.14517 248.88166 
L 584.130582 260.271721 
L 585.123288 266.940341 
L 587.1087 282.654421 
L 588.101405 291.729911 
L 590.086817 312.861883 
L 591.079523 323.793411 
L 592.072229 331.168049 
L 593.064935 332.102512 
L 594.057641 325.989653 
L 595.050347 318.505019 
L 597.035759 302.124352 
L 599.021171 289.048985 
L 601.006582 277.667612 
L 602.991994 268.272511 
L 604.977406 260.570316 
L 605.970112 257.314211 
L 607.955524 251.927505 
L 608.94823 249.843134 
L 609.940936 248.047373 
L 610.933642 246.581604 
L 611.926348 245.531979 
L 612.919054 244.860943 
L 613.911759 244.372633 
L 614.904465 244.279363 
L 615.897171 244.528308 
L 616.889877 245.079273 
L 617.882583 245.923496 
L 618.875289 247.12997 
L 619.867995 248.637587 
L 621.853407 252.602252 
L 622.846113 255.245008 
L 624.831525 261.560848 
L 626.816936 269.688443 
L 627.809642 274.404494 
L 629.795054 285.624791 
L 630.78776 291.867051 
L 632.773172 307.788362 
L 634.758584 327.531968 
L 635.75129 339.983519 
L 637.736702 368.312526 
L 638.729408 374.110009 
L 639.722114 367.444492 
L 640.714819 357.123998 
L 642.700231 340.105645 
L 644.685643 327.688618 
L 645.678349 321.87368 
L 648.656467 308.46228 
L 649.649173 304.63326 
L 651.634585 298.459765 
L 652.627291 295.760429 
L 653.619996 293.607214 
L 654.612702 291.966076 
L 656.598114 289.712657 
L 657.59082 289.17697 
L 658.583526 288.878013 
L 660.568938 289.772056 
L 661.561644 290.837038 
L 662.55435 292.383729 
L 663.547056 294.137492 
L 664.539762 296.213862 
L 669.503291 309.405278 
L 670.495997 311.31177 
L 671.488703 312.488878 
L 672.481409 312.723976 
L 673.474115 311.621399 
L 674.466821 310.108905 
L 678.437645 302.008594 
L 679.43035 300.26825 
L 680.423056 299.022093 
L 681.415762 298.096369 
L 682.408468 297.506057 
L 683.401174 297.35047 
L 684.39388 297.602274 
L 685.386586 298.223944 
L 686.379292 299.248241 
L 687.371998 300.907788 
L 688.364704 302.853861 
L 690.350116 307.964354 
L 692.335527 315.635764 
L 694.320939 325.798905 
L 696.306351 339.115262 
L 698.291763 354.950305 
L 699.284469 360.697405 
L 700.277175 363.463143 
L 701.269881 360.727747 
L 702.262587 355.274168 
L 704.247999 343.528186 
L 705.240705 338.425186 
L 706.23341 334.288688 
L 707.226116 331.076964 
L 708.218822 328.270195 
L 709.211528 326.490215 
L 711.19694 323.711674 
L 712.189646 323.538152 
L 713.182352 323.504749 
L 714.175058 324.10899 
L 715.167764 325.301695 
L 716.16047 327.243928 
L 717.153176 329.522931 
L 718.145882 332.096677 
L 719.138587 335.458386 
L 720.131293 339.404511 
L 723.109411 353.264376 
L 724.102117 355.895705 
L 725.094823 355.320716 
L 726.087529 352.178195 
L 731.051059 324.07902 
L 733.03647 316.298849 
L 734.029176 313.244813 
L 735.021882 310.593286 
L 737.007294 306.878357 
L 738 305.924417 
L 738.992706 305.46325 
L 739.985412 305.274678 
L 740.978118 305.459006 
L 741.970824 306.361834 
L 742.96353 307.628523 
L 743.956236 309.51939 
L 744.948941 312.016493 
L 745.941647 315.240132 
L 746.934353 319.166691 
L 747.927059 323.883816 
L 748.919765 329.647841 
L 749.912471 336.328854 
L 751.897883 352.298983 
L 752.890589 358.925396 
L 753.883295 359.759398 
L 754.876001 354.485478 
L 757.854118 331.416763 
L 758.846824 325.491933 
L 759.83953 320.252262 
L 760.832236 316.386726 
L 761.824942 313.081538 
L 762.817648 310.354814 
L 763.810354 308.341312 
L 764.80306 307.077341 
L 765.795766 306.050798 
L 766.788472 305.834498 
L 767.781178 305.741817 
L 768.773884 306.364053 
L 769.76659 307.270513 
L 770.759295 308.963525 
L 771.752001 310.93832 
L 772.744707 313.352338 
L 774.730119 319.512227 
L 776.715531 326.448192 
L 778.700943 333.443367 
L 779.693649 335.558747 
L 780.686355 336.687665 
L 781.679061 336.530149 
L 782.671767 335.339299 
L 786.64259 326.997412 
L 787.635296 325.639972 
L 788.628002 324.565127 
L 789.620708 324.000395 
L 790.613414 324.11843 
L 791.60612 324.436016 
L 793.591532 327.58041 
L 794.584238 330.117045 
L 795.576944 332.970198 
L 796.56965 336.218855 
L 798.555061 344.039767 
L 799.547767 347.714401 
L 800.540473 350.199398 
L 801.533179 349.86781 
L 802.525885 347.382818 
L 803.518591 343.473942 
L 806.496709 329.203517 
L 808.482121 321.576846 
L 809.474827 318.555478 
L 810.467532 316.075273 
L 811.460238 314.161296 
L 812.452944 312.890853 
L 813.44565 311.950147 
L 814.438356 311.560916 
L 815.431062 311.613899 
L 816.423768 312.066699 
L 817.416474 313.098764 
L 818.40918 314.700126 
L 819.401886 316.833638 
L 820.394592 319.451399 
L 821.387298 322.546707 
L 823.372709 330.876424 
L 824.365415 335.962116 
L 827.343533 353.817341 
L 828.336239 356.911973 
L 829.328945 356.903369 
L 830.321651 353.361016 
L 833.299769 337.481614 
L 835.285181 328.893834 
L 836.277886 325.432704 
L 837.270592 322.774121 
L 838.263298 320.699541 
L 839.256004 319.129332 
L 840.24871 317.990825 
L 841.241416 317.15303 
L 842.234122 317.158431 
L 843.226828 317.385432 
L 844.219534 318.105165 
L 845.21224 319.025437 
L 846.204946 320.574078 
L 848.190358 324.93987 
L 850.175769 330.45365 
L 855.139299 349.547692 
L 856.132005 353.035897 
L 857.124711 354.769715 
L 858.117417 355.870204 
L 859.110123 355.399817 
L 860.102829 354.715512 
L 862.088241 351.099866 
L 863.080946 349.064765 
L 865.066358 346.030168 
L 866.059064 345.084221 
L 867.05177 344.556164 
L 868.044476 343.701275 
L 869.037182 343.197262 
L 870.029888 342.987146 
L 871.022594 343.053395 
L 873.008006 342.492498 
L 874.000712 342.020254 
L 874.993418 341.392444 
L 875.986123 340.509449 
L 876.978829 339.261359 
L 878.964241 336.478161 
L 881.942359 333.141963 
L 882.935065 331.94618 
L 883.927771 331.090628 
L 884.920477 330.933642 
L 885.913183 330.657981 
L 886.905889 330.776257 
L 887.898595 331.594812 
L 888.8913 332.721004 
L 889.884006 334.555495 
L 890.876712 336.633794 
L 891.869418 339.599653 
L 892.862124 343.450809 
L 893.85483 348.138891 
L 894.847536 354.046562 
L 895.840242 361.287488 
L 896.832948 370.914863 
L 897.825654 382.662433 
L 898.81836 398.360163 
L 899.811066 407.472656 
L 900.803772 397.184782 
L 901.796477 380.949645 
L 902.789183 368.436603 
L 903.781889 357.882488 
L 904.774595 350.076605 
L 905.767301 343.312591 
L 906.760007 337.986015 
L 907.752713 333.373501 
L 908.745419 329.794965 
L 909.738125 326.826025 
L 910.730831 324.448151 
L 911.723537 322.460226 
L 912.716243 321.365615 
L 913.708949 320.504906 
L 914.701655 320.199529 
L 916.687066 321.072897 
L 917.679772 322.080013 
L 918.672478 323.84858 
L 919.665184 326.132292 
L 920.65789 328.760307 
L 921.650596 332.215368 
L 922.643302 336.584399 
L 923.636008 341.802049 
L 924.628714 348.899579 
L 925.62142 357.080842 
L 926.614126 368.535984 
L 927.606832 384.032113 
L 928.599537 409.533163 
L 929.592243 478.990966 
L 930.584949 424.3829 
L 931.577655 392.142019 
L 932.570361 373.844412 
L 933.563067 362.952508 
L 934.555773 354.160401 
L 935.548479 347.411647 
L 936.541185 342.250185 
L 937.533891 337.967311 
L 938.526597 334.832927 
L 939.519303 332.384711 
L 940.512009 330.521155 
L 941.504714 329.397357 
L 942.49742 328.719871 
L 943.490126 328.552438 
L 944.482832 328.920332 
L 945.475538 329.855706 
L 946.468244 331.116081 
L 947.46095 333.143706 
L 949.446362 338.526791 
L 950.439068 342.074132 
L 951.431774 346.476774 
L 953.417186 358.744043 
L 954.409891 366.691488 
L 955.402597 376.170158 
L 957.388009 400.241071 
L 958.380715 409.605358 
L 959.373421 406.64271 
L 961.358833 386.224073 
L 962.351539 376.836656 
L 963.344245 370.031484 
L 964.336951 364.701465 
L 965.329657 360.640742 
L 966.322363 357.393848 
L 968.307774 353.139858 
L 969.30048 351.734709 
L 971.285892 351.296076 
L 972.278598 351.492743 
L 973.271304 352.041861 
L 975.256716 354.301129 
L 978.234834 358.470454 
L 979.22754 359.494897 
L 980.220246 360.257989 
L 981.212951 361.198423 
L 982.205657 361.686454 
L 983.198363 361.602479 
L 984.191069 361.117856 
L 985.183775 360.276086 
L 986.176481 359.763238 
L 987.169187 358.766785 
L 988.161893 358.996768 
L 989.154599 359.468791 
L 990.147305 359.242611 
L 991.140011 359.810732 
L 992.132717 360.769128 
L 993.125423 362.79962 
L 994.118128 365.318746 
L 995.110834 368.356893 
L 996.10354 371.81537 
L 997.096246 375.797685 
L 998.088952 381.755843 
L 1001.06707 402.606653 
L 1002.059776 406.65253 
L 1003.052482 404.627668 
L 1004.045188 399.892581 
L 1005.037894 391.016789 
L 1007.023305 376.347349 
L 1009.008717 365.751543 
L 1010.994129 358.625973 
L 1012.979541 353.426537 
L 1013.972247 351.862892 
L 1015.957659 350.200808 
L 1016.950365 350.164157 
L 1017.943071 350.675607 
L 1018.935777 352.316479 
L 1019.928482 353.644997 
L 1020.921188 355.272977 
L 1021.913894 358.076908 
L 1023.899306 364.751896 
L 1025.884718 376.505903 
L 1026.877424 384.565045 
L 1027.87013 394.624521 
L 1028.862836 407.106473 
L 1029.855542 425.240092 
L 1030.848248 449.257163 
L 1031.840954 449.185006 
L 1033.826365 409.028893 
L 1034.819071 396.097837 
L 1036.804483 380.955887 
L 1037.797189 376.160677 
L 1038.789895 372.573739 
L 1040.775307 367.01522 
L 1041.768013 365.501798 
L 1042.760719 364.804506 
L 1043.753425 364.519585 
L 1044.746131 364.708889 
L 1046.731542 366.196468 
L 1047.724248 367.782397 
L 1048.716954 369.775263 
L 1051.695072 378.347637 
L 1053.680484 386.777729 
L 1055.665896 394.147378 
L 1056.658602 396.662201 
L 1057.651308 397.660763 
L 1058.644014 397.009345 
L 1059.636719 395.644893 
L 1060.629425 393.623317 
L 1061.622131 392.188175 
L 1062.614837 389.680357 
L 1063.607543 388.006657 
L 1066.585661 387.898295 
L 1067.578367 388.465753 
L 1068.571073 390.480908 
L 1069.563779 393.4565 
L 1070.556485 396.955743 
L 1071.549191 400.867793 
L 1075.520014 430.208767 
L 1076.51272 430.49105 
L 1078.498132 415.797516 
L 1079.490838 405.163771 
L 1081.47625 390.249221 
L 1082.468956 384.149191 
L 1084.454368 375.200453 
L 1085.447073 371.903439 
L 1086.439779 369.226664 
L 1088.425191 365.283841 
L 1089.417897 364.54446 
L 1090.410603 364.076924 
L 1091.403309 363.862748 
L 1092.396015 364.788746 
L 1093.388721 365.312664 
L 1095.374133 369.237507 
L 1096.366839 371.956664 
L 1097.359545 375.208006 
L 1099.344956 384.131091 
L 1101.330368 395.750386 
L 1102.323074 401.883636 
L 1104.308486 410.11235 
L 1105.301192 407.662356 
L 1106.293898 402.291921 
L 1108.27931 389.656451 
L 1109.272016 384.096301 
L 1112.250133 371.762481 
L 1113.242839 368.567658 
L 1114.235545 366.705107 
L 1115.228251 365.341902 
L 1116.220957 363.512417 
L 1117.213663 362.697549 
L 1119.199075 362.509028 
L 1121.184487 364.220639 
L 1122.177193 365.618754 
L 1123.169899 367.934711 
L 1124.162605 369.842888 
L 1126.148016 375.82393 
L 1128.133428 384.999568 
L 1130.11884 396.097404 
L 1131.111546 403.007774 
L 1132.104252 408.904978 
L 1133.096958 413.513912 
L 1134.089664 415.858517 
L 1135.08237 417.122767 
L 1136.075076 414.094 
L 1137.067782 408.95443 
L 1138.060487 403.098876 
L 1141.038605 391.886814 
L 1143.024017 387.623784 
L 1144.016723 387.062235 
L 1145.009429 385.870253 
L 1146.002135 385.326214 
L 1146.994841 386.614304 
L 1147.987547 387.135077 
L 1148.980253 388.63125 
L 1149.972959 390.478927 
L 1150.965664 393.434216 
L 1151.95837 395.876592 
L 1153.943782 401.387866 
L 1154.936488 406.608438 
L 1155.929194 409.819475 
L 1156.9219 414.105548 
L 1157.914606 420.936821 
L 1158.907312 423.739995 
L 1159.900018 427.892077 
L 1160.892724 428.557565 
L 1161.88543 431.835978 
L 1162.878136 433.395654 
L 1163.870841 433.335174 
L 1164.863547 433.71654 
L 1165.856253 436.886286 
L 1166.848959 437.709182 
L 1167.841665 437.554431 
L 1168.834371 441.917422 
L 1169.827077 445.269244 
L 1170.819783 450.421276 
L 1171.812489 458.166061 
L 1172.805195 469.664323 
L 1173.797901 489.332203 
L 1174.790607 492.48 
L 1175.783313 477.948831 
L 1176.776019 458.575249 
L 1178.76143 436.097721 
L 1179.754136 427.106768 
L 1180.746842 419.676475 
L 1182.732254 408.830572 
L 1185.710372 397.63284 
L 1186.703078 395.66157 
L 1187.695784 392.511851 
L 1188.68849 392.138155 
L 1189.681196 390.808247 
L 1190.673901 389.69193 
L 1191.666607 389.693603 
L 1192.659313 389.524351 
L 1193.652019 389.499257 
L 1195.637431 390.992309 
L 1196.630137 392.465195 
L 1197.622843 394.331309 
L 1199.608255 398.806771 
L 1200.600961 401.581094 
L 1201.593667 403.256285 
L 1202.586373 406.166206 
L 1203.579078 407.085934 
L 1205.56449 408.031306 
L 1206.557196 407.941558 
L 1207.549902 407.442377 
L 1208.542608 405.356581 
L 1209.535314 404.57256 
L 1210.52802 402.324485 
L 1211.520726 401.089143 
L 1212.513432 398.847643 
L 1213.506138 398.748441 
L 1214.498844 396.546176 
L 1215.49155 395.830409 
L 1216.484255 394.629899 
L 1217.476961 394.710351 
L 1218.469667 394.094688 
L 1219.462373 393.774959 
L 1220.455079 394.440611 
L 1221.447785 394.964454 
L 1222.440491 396.834783 
L 1223.433197 397.149908 
L 1224.425903 401.428748 
L 1225.418609 402.779933 
L 1226.411315 405.538366 
L 1227.404021 409.258239 
L 1228.396727 414.881899 
L 1230.382138 423.410479 
L 1231.374844 426.804569 
L 1232.36755 433.137343 
L 1233.360256 437.336051 
L 1235.345668 447.616759 
L 1236.338374 447.751613 
L 1237.33108 447.435573 
L 1238.323786 444.345642 
L 1239.316492 437.962378 
L 1240.309198 437.27008 
L 1241.301904 432.365264 
L 1242.29461 431.177391 
L 1243.287315 428.238041 
L 1244.280021 424.799397 
L 1245.272727 424.555693 
L 1245.272727 424.555693 
" clip-path="url(#pa847cad647)" style="fill: none; stroke: #1f77b4; stroke-width: 1.5; stroke-linecap: square"/>
   </g>
   <g id="patch_3">
    <path d="M 180 512.64 
L 180 69.12 
" style="fill: none; stroke: #000000; stroke-width: 0.8; stroke-linejoin: miter; stroke-linecap: square"/>
   </g>
   <g id="patch_4">
    <path d="M 1296 512.64 
L 1296 69.12 
" style="fill: none; stroke: #000000; stroke-width: 0.8; stroke-linejoin: miter; stroke-linecap: square"/>
   </g>
   <g id="patch_5">
    <path d="M 180 512.64 
L 1296 512.64 
" style="fill: none; stroke: #000000; stroke-width: 0.8; stroke-linejoin: miter; stroke-linecap: square"/>
   </g>
   <g id="patch_6">
    <path d="M 180 69.12 
L 1296 69.12 
" style="fill: none; stroke: #000000; stroke-width: 0.8; stroke-linejoin: miter; stroke-linecap: square"/>
   </g>
   <g id="text_12">
    <!-- source11-receiver11 -->
    <g transform="translate(532.175 60.80125) scale(0.4 -0.4)">
     <defs>
      <path id="DejaVuSans-73" d="M 2834 3397 
L 2834 2853 
Q 2591 2978 2328 3040 
Q 2066 3103 1784 3103 
Q 1356 3103 1142 2972 
Q 928 2841 928 2578 
Q 928 2378 1081 2264 
Q 1234 2150 1697 2047 
L 1894 2003 
Q 2506 1872 2764 1633 
Q 3022 1394 3022 966 
Q 3022 478 2636 193 
Q 2250 -91 1575 -91 
Q 1294 -91 989 -36 
Q 684 19 347 128 
L 347 722 
Q 666 556 975 473 
Q 1284 391 1588 391 
Q 1994 391 2212 530 
Q 2431 669 2431 922 
Q 2431 1156 2273 1281 
Q 2116 1406 1581 1522 
L 1381 1569 
Q 847 1681 609 1914 
Q 372 2147 372 2553 
Q 372 3047 722 3315 
Q 1072 3584 1716 3584 
Q 2034 3584 2315 3537 
Q 2597 3491 2834 3397 
z
" transform="scale(0.015625)"/>
      <path id="DejaVuSans-6f" d="M 1959 3097 
Q 1497 3097 1228 2736 
Q 959 2375 959 1747 
Q 959 1119 1226 758 
Q 1494 397 1959 397 
Q 2419 397 2687 759 
Q 2956 1122 2956 1747 
Q 2956 2369 2687 2733 
Q 2419 3097 1959 3097 
z
M 1959 3584 
Q 2709 3584 3137 3096 
Q 3566 2609 3566 1747 
Q 3566 888 3137 398 
Q 2709 -91 1959 -91 
Q 1206 -91 779 398 
Q 353 888 353 1747 
Q 353 2609 779 3096 
Q 1206 3584 1959 3584 
z
" transform="scale(0.015625)"/>
      <path id="DejaVuSans-75" d="M 544 1381 
L 544 3500 
L 1119 3500 
L 1119 1403 
Q 1119 906 1312 657 
Q 1506 409 1894 409 
Q 2359 409 2629 706 
Q 2900 1003 2900 1516 
L 2900 3500 
L 3475 3500 
L 3475 0 
L 2900 0 
L 2900 538 
Q 2691 219 2414 64 
Q 2138 -91 1772 -91 
Q 1169 -91 856 284 
Q 544 659 544 1381 
z
M 1991 3584 
L 1991 3584 
z
" transform="scale(0.015625)"/>
      <path id="DejaVuSans-72" d="M 2631 2963 
Q 2534 3019 2420 3045 
Q 2306 3072 2169 3072 
Q 1681 3072 1420 2755 
Q 1159 2438 1159 1844 
L 1159 0 
L 581 0 
L 581 3500 
L 1159 3500 
L 1159 2956 
Q 1341 3275 1631 3429 
Q 1922 3584 2338 3584 
Q 2397 3584 2469 3576 
Q 2541 3569 2628 3553 
L 2631 2963 
z
" transform="scale(0.015625)"/>
      <path id="DejaVuSans-63" d="M 3122 3366 
L 3122 2828 
Q 2878 2963 2633 3030 
Q 2388 3097 2138 3097 
Q 1578 3097 1268 2742 
Q 959 2388 959 1747 
Q 959 1106 1268 751 
Q 1578 397 2138 397 
Q 2388 397 2633 464 
Q 2878 531 3122 666 
L 3122 134 
Q 2881 22 2623 -34 
Q 2366 -91 2075 -91 
Q 1284 -91 818 406 
Q 353 903 353 1747 
Q 353 2603 823 3093 
Q 1294 3584 2113 3584 
Q 2378 3584 2631 3529 
Q 2884 3475 3122 3366 
z
" transform="scale(0.015625)"/>
      <path id="DejaVuSans-65" d="M 3597 1894 
L 3597 1613 
L 953 1613 
Q 991 1019 1311 708 
Q 1631 397 2203 397 
Q 2534 397 2845 478 
Q 3156 559 3463 722 
L 3463 178 
Q 3153 47 2828 -22 
Q 2503 -91 2169 -91 
Q 1331 -91 842 396 
Q 353 884 353 1716 
Q 353 2575 817 3079 
Q 1281 3584 2069 3584 
Q 2775 3584 3186 3129 
Q 3597 2675 3597 1894 
z
M 3022 2063 
Q 3016 2534 2758 2815 
Q 2500 3097 2075 3097 
Q 1594 3097 1305 2825 
Q 1016 2553 972 2059 
L 3022 2063 
z
" transform="scale(0.015625)"/>
      <path id="DejaVuSans-2d" d="M 313 2009 
L 1997 2009 
L 1997 1497 
L 313 1497 
L 313 2009 
z
" transform="scale(0.015625)"/>
      <path id="DejaVuSans-69" d="M 603 3500 
L 1178 3500 
L 1178 0 
L 603 0 
L 603 3500 
z
M 603 4863 
L 1178 4863 
L 1178 4134 
L 603 4134 
L 603 4863 
z
" transform="scale(0.015625)"/>
      <path id="DejaVuSans-76" d="M 191 3500 
L 800 3500 
L 1894 563 
L 2988 3500 
L 3597 3500 
L 2284 0 
L 1503 0 
L 191 3500 
z
" transform="scale(0.015625)"/>
     </defs>
     <use xlink:href="#DejaVuSans-73"/>
     <use xlink:href="#DejaVuSans-6f" x="52.099609"/>
     <use xlink:href="#DejaVuSans-75" x="113.28125"/>
     <use xlink:href="#DejaVuSans-72" x="176.660156"/>
     <use xlink:href="#DejaVuSans-63" x="215.523438"/>
     <use xlink:href="#DejaVuSans-65" x="270.503906"/>
     <use xlink:href="#DejaVuSans-31" x="332.027344"/>
     <use xlink:href="#DejaVuSans-31" x="395.650391"/>
     <use xlink:href="#DejaVuSans-2d" x="459.273438"/>
     <use xlink:href="#DejaVuSans-72" x="495.357422"/>
     <use xlink:href="#DejaVuSans-65" x="534.220703"/>
     <use xlink:href="#DejaVuSans-63" x="595.744141"/>
     <use xlink:href="#DejaVuSans-65" x="650.724609"/>
     <use xlink:href="#DejaVuSans-69" x="712.248047"/>
     <use xlink:href="#DejaVuSans-76" x="740.03125"/>
     <use xlink:href="#DejaVuSans-65" x="799.210938"/>
     <use xlink:href="#DejaVuSans-72" x="860.734375"/>
     <use xlink:href="#DejaVuSans-31" x="901.847656"/>
     <use xlink:href="#DejaVuSans-31" x="965.470703"/>
    </g>
   </g>
  </g>
 </g>
 <defs>
  <clipPath id="pa847cad647">
   <rect x="180" y="69.12" width="1116" height="443.52"/>
  </clipPath>
 </defs>
</svg>
