<?xml version="1.0" encoding="utf-8" standalone="no"?>
<!DOCTYPE svg PUBLIC "-//W3C//DTD SVG 1.1//EN"
  "http://www.w3.org/Graphics/SVG/1.1/DTD/svg11.dtd">
<svg xmlns:xlink="http://www.w3.org/1999/xlink" width="1440pt" height="576pt" viewBox="0 0 1440 576" xmlns="http://www.w3.org/2000/svg" version="1.1">
 <metadata>
  <rdf:RDF xmlns:dc="http://purl.org/dc/elements/1.1/" xmlns:cc="http://creativecommons.org/ns#" xmlns:rdf="http://www.w3.org/1999/02/22-rdf-syntax-ns#">
   <cc:Work>
    <dc:type rdf:resource="http://purl.org/dc/dcmitype/StillImage"/>
    <dc:date>2024-05-22T04:50:00.534550</dc:date>
    <dc:format>image/svg+xml</dc:format>
    <dc:creator>
     <cc:Agent>
      <dc:title>Matplotlib v3.8.3, https://matplotlib.org/</dc:title>
     </cc:Agent>
    </dc:creator>
   </cc:Work>
  </rdf:RDF>
 </metadata>
 <defs>
  <style type="text/css">*{stroke-linejoin: round; stroke-linecap: butt}</style>
 </defs>
 <g id="figure_1">
  <g id="patch_1">
   <path d="M 0 576 
L 1440 576 
L 1440 0 
L 0 0 
z
" style="fill: #ffffff"/>
  </g>
  <g id="axes_1">
   <g id="patch_2">
    <path d="M 180 512.64 
L 1296 512.64 
L 1296 69.12 
L 180 69.12 
z
" style="fill: #ffffff"/>
   </g>
   <g id="matplotlib.axis_1">
    <g id="xtick_1">
     <g id="line2d_1">
      <defs>
       <path id="m592d300200" d="M 0 0 
L 0 3.5 
" style="stroke: #000000; stroke-width: 0.8"/>
      </defs>
      <g>
       <use xlink:href="#m592d300200" x="229.734567" y="512.64" style="stroke: #000000; stroke-width: 0.8"/>
      </g>
     </g>
     <g id="text_1">
      <!-- 0 -->
      <g transform="translate(226.553317 527.238438) scale(0.1 -0.1)">
       <defs>
        <path id="DejaVuSans-30" d="M 2034 4250 
Q 1547 4250 1301 3770 
Q 1056 3291 1056 2328 
Q 1056 1369 1301 889 
Q 1547 409 2034 409 
Q 2525 409 2770 889 
Q 3016 1369 3016 2328 
Q 3016 3291 2770 3770 
Q 2525 4250 2034 4250 
z
M 2034 4750 
Q 2819 4750 3233 4129 
Q 3647 3509 3647 2328 
Q 3647 1150 3233 529 
Q 2819 -91 2034 -91 
Q 1250 -91 836 529 
Q 422 1150 422 2328 
Q 422 3509 836 4129 
Q 1250 4750 2034 4750 
z
" transform="scale(0.015625)"/>
       </defs>
       <use xlink:href="#DejaVuSans-30"/>
      </g>
     </g>
    </g>
    <g id="xtick_2">
     <g id="line2d_2">
      <g>
       <use xlink:href="#m592d300200" x="433.04074" y="512.64" style="stroke: #000000; stroke-width: 0.8"/>
      </g>
     </g>
     <g id="text_2">
      <!-- 500 -->
      <g transform="translate(423.49699 527.238438) scale(0.1 -0.1)">
       <defs>
        <path id="DejaVuSans-35" d="M 691 4666 
L 3169 4666 
L 3169 4134 
L 1269 4134 
L 1269 2991 
Q 1406 3038 1543 3061 
Q 1681 3084 1819 3084 
Q 2600 3084 3056 2656 
Q 3513 2228 3513 1497 
Q 3513 744 3044 326 
Q 2575 -91 1722 -91 
Q 1428 -91 1123 -41 
Q 819 9 494 109 
L 494 744 
Q 775 591 1075 516 
Q 1375 441 1709 441 
Q 2250 441 2565 725 
Q 2881 1009 2881 1497 
Q 2881 1984 2565 2268 
Q 2250 2553 1709 2553 
Q 1456 2553 1204 2497 
Q 953 2441 691 2322 
L 691 4666 
z
" transform="scale(0.015625)"/>
       </defs>
       <use xlink:href="#DejaVuSans-35"/>
       <use xlink:href="#DejaVuSans-30" x="63.623047"/>
       <use xlink:href="#DejaVuSans-30" x="127.246094"/>
      </g>
     </g>
    </g>
    <g id="xtick_3">
     <g id="line2d_3">
      <g>
       <use xlink:href="#m592d300200" x="636.346913" y="512.64" style="stroke: #000000; stroke-width: 0.8"/>
      </g>
     </g>
     <g id="text_3">
      <!-- 1000 -->
      <g transform="translate(623.621913 527.238438) scale(0.1 -0.1)">
       <defs>
        <path id="DejaVuSans-31" d="M 794 531 
L 1825 531 
L 1825 4091 
L 703 3866 
L 703 4441 
L 1819 4666 
L 2450 4666 
L 2450 531 
L 3481 531 
L 3481 0 
L 794 0 
L 794 531 
z
" transform="scale(0.015625)"/>
       </defs>
       <use xlink:href="#DejaVuSans-31"/>
       <use xlink:href="#DejaVuSans-30" x="63.623047"/>
       <use xlink:href="#DejaVuSans-30" x="127.246094"/>
       <use xlink:href="#DejaVuSans-30" x="190.869141"/>
      </g>
     </g>
    </g>
    <g id="xtick_4">
     <g id="line2d_4">
      <g>
       <use xlink:href="#m592d300200" x="839.653087" y="512.64" style="stroke: #000000; stroke-width: 0.8"/>
      </g>
     </g>
     <g id="text_4">
      <!-- 1500 -->
      <g transform="translate(826.928087 527.238438) scale(0.1 -0.1)">
       <use xlink:href="#DejaVuSans-31"/>
       <use xlink:href="#DejaVuSans-35" x="63.623047"/>
       <use xlink:href="#DejaVuSans-30" x="127.246094"/>
       <use xlink:href="#DejaVuSans-30" x="190.869141"/>
      </g>
     </g>
    </g>
    <g id="xtick_5">
     <g id="line2d_5">
      <g>
       <use xlink:href="#m592d300200" x="1042.95926" y="512.64" style="stroke: #000000; stroke-width: 0.8"/>
      </g>
     </g>
     <g id="text_5">
      <!-- 2000 -->
      <g transform="translate(1030.23426 527.238438) scale(0.1 -0.1)">
       <defs>
        <path id="DejaVuSans-32" d="M 1228 531 
L 3431 531 
L 3431 0 
L 469 0 
L 469 531 
Q 828 903 1448 1529 
Q 2069 2156 2228 2338 
Q 2531 2678 2651 2914 
Q 2772 3150 2772 3378 
Q 2772 3750 2511 3984 
Q 2250 4219 1831 4219 
Q 1534 4219 1204 4116 
Q 875 4013 500 3803 
L 500 4441 
Q 881 4594 1212 4672 
Q 1544 4750 1819 4750 
Q 2544 4750 2975 4387 
Q 3406 4025 3406 3419 
Q 3406 3131 3298 2873 
Q 3191 2616 2906 2266 
Q 2828 2175 2409 1742 
Q 1991 1309 1228 531 
z
" transform="scale(0.015625)"/>
       </defs>
       <use xlink:href="#DejaVuSans-32"/>
       <use xlink:href="#DejaVuSans-30" x="63.623047"/>
       <use xlink:href="#DejaVuSans-30" x="127.246094"/>
       <use xlink:href="#DejaVuSans-30" x="190.869141"/>
      </g>
     </g>
    </g>
    <g id="xtick_6">
     <g id="line2d_6">
      <g>
       <use xlink:href="#m592d300200" x="1246.265433" y="512.64" style="stroke: #000000; stroke-width: 0.8"/>
      </g>
     </g>
     <g id="text_6">
      <!-- 2500 -->
      <g transform="translate(1233.540433 527.238438) scale(0.1 -0.1)">
       <use xlink:href="#DejaVuSans-32"/>
       <use xlink:href="#DejaVuSans-35" x="63.623047"/>
       <use xlink:href="#DejaVuSans-30" x="127.246094"/>
       <use xlink:href="#DejaVuSans-30" x="190.869141"/>
      </g>
     </g>
    </g>
   </g>
   <g id="matplotlib.axis_2">
    <g id="ytick_1">
     <g id="line2d_7">
      <defs>
       <path id="mc4a4106863" d="M 0 0 
L -3.5 0 
" style="stroke: #000000; stroke-width: 0.8"/>
      </defs>
      <g>
       <use xlink:href="#mc4a4106863" x="180" y="490.461662" style="stroke: #000000; stroke-width: 0.8"/>
      </g>
     </g>
     <g id="text_7">
      <!-- −4 -->
      <g transform="translate(158.257812 494.260881) scale(0.1 -0.1)">
       <defs>
        <path id="DejaVuSans-2212" d="M 678 2272 
L 4684 2272 
L 4684 1741 
L 678 1741 
L 678 2272 
z
" transform="scale(0.015625)"/>
        <path id="DejaVuSans-34" d="M 2419 4116 
L 825 1625 
L 2419 1625 
L 2419 4116 
z
M 2253 4666 
L 3047 4666 
L 3047 1625 
L 3713 1625 
L 3713 1100 
L 3047 1100 
L 3047 0 
L 2419 0 
L 2419 1100 
L 313 1100 
L 313 1709 
L 2253 4666 
z
" transform="scale(0.015625)"/>
       </defs>
       <use xlink:href="#DejaVuSans-2212"/>
       <use xlink:href="#DejaVuSans-34" x="83.789062"/>
      </g>
     </g>
    </g>
    <g id="ytick_2">
     <g id="line2d_8">
      <g>
       <use xlink:href="#mc4a4106863" x="180" y="405.238658" style="stroke: #000000; stroke-width: 0.8"/>
      </g>
     </g>
     <g id="text_8">
      <!-- −2 -->
      <g transform="translate(158.257812 409.037877) scale(0.1 -0.1)">
       <use xlink:href="#DejaVuSans-2212"/>
       <use xlink:href="#DejaVuSans-32" x="83.789062"/>
      </g>
     </g>
    </g>
    <g id="ytick_3">
     <g id="line2d_9">
      <g>
       <use xlink:href="#mc4a4106863" x="180" y="320.015654" style="stroke: #000000; stroke-width: 0.8"/>
      </g>
     </g>
     <g id="text_9">
      <!-- 0 -->
      <g transform="translate(166.6375 323.814873) scale(0.1 -0.1)">
       <use xlink:href="#DejaVuSans-30"/>
      </g>
     </g>
    </g>
    <g id="ytick_4">
     <g id="line2d_10">
      <g>
       <use xlink:href="#mc4a4106863" x="180" y="234.79265" style="stroke: #000000; stroke-width: 0.8"/>
      </g>
     </g>
     <g id="text_10">
      <!-- 2 -->
      <g transform="translate(166.6375 238.591868) scale(0.1 -0.1)">
       <use xlink:href="#DejaVuSans-32"/>
      </g>
     </g>
    </g>
    <g id="ytick_5">
     <g id="line2d_11">
      <g>
       <use xlink:href="#mc4a4106863" x="180" y="149.569645" style="stroke: #000000; stroke-width: 0.8"/>
      </g>
     </g>
     <g id="text_11">
      <!-- 4 -->
      <g transform="translate(166.6375 153.368864) scale(0.1 -0.1)">
       <use xlink:href="#DejaVuSans-34"/>
      </g>
     </g>
    </g>
   </g>
   <g id="line2d_12">
    <path d="M 230.727273 301.308074 
L 231.719979 309.685558 
L 232.712685 307.301551 
L 233.70539 291.863833 
L 235.690802 319.681962 
L 236.683508 287.163608 
L 237.676214 295.830098 
L 238.66892 335.520868 
L 239.661626 289.256633 
L 240.654332 291.808396 
L 241.647038 325.525642 
L 242.639744 300.697628 
L 243.63245 298.334139 
L 244.625156 303.529744 
L 245.617862 307.924909 
L 246.610568 315.134633 
L 247.603273 308.755787 
L 248.595979 323.703879 
L 249.588685 266.997708 
L 250.581391 236.131843 
L 251.574097 219.147299 
L 252.566803 212.600428 
L 253.559509 201.692135 
L 254.552215 184.435832 
L 255.544921 179.523438 
L 256.537627 192.05411 
L 257.530333 186.81589 
L 258.523039 171.866492 
L 259.515745 181.619186 
L 260.50845 246.292217 
L 261.501156 218.031671 
L 262.493862 213.185055 
L 263.486568 270.320793 
L 265.47198 195.992576 
L 266.464686 189.748093 
L 267.457392 200.72062 
L 268.450098 174.424318 
L 269.442804 163.635561 
L 270.43551 172.012679 
L 271.428216 186.063392 
L 272.420922 230.907509 
L 273.413627 212.29538 
L 274.406333 217.11657 
L 276.391745 139.900134 
L 277.384451 137.226042 
L 278.377157 140.856273 
L 279.369863 117.293874 
L 280.362569 112.740344 
L 281.355275 145.933965 
L 282.347981 126.237256 
L 283.340687 93.386155 
L 284.333393 89.28 
L 285.326099 97.737683 
L 286.318804 94.153146 
L 287.31151 92.098589 
L 288.304216 111.20149 
L 289.296922 140.268988 
L 290.289628 128.905346 
L 291.282334 152.001068 
L 292.27504 195.208924 
L 293.267746 161.557497 
L 294.260452 172.100461 
L 295.253158 152.961521 
L 296.245864 155.224896 
L 297.23857 167.560808 
L 298.231276 166.394561 
L 299.223981 183.760098 
L 300.216687 189.195613 
L 301.209393 189.205321 
L 302.202099 187.970348 
L 303.194805 181.255309 
L 304.187511 191.091646 
L 305.180217 188.957537 
L 306.172923 195.820273 
L 307.165629 214.350428 
L 308.158335 205.806416 
L 309.151041 221.95681 
L 310.143747 235.746172 
L 311.136453 239.510177 
L 312.129159 263.910252 
L 313.121864 237.77342 
L 314.11457 257.099399 
L 315.107276 265.82289 
L 316.099982 252.331227 
L 317.092688 288.098053 
L 318.085394 287.438217 
L 319.0781 271.130425 
L 320.070806 314.370236 
L 321.063512 300.107535 
L 322.056218 294.945912 
L 323.048924 325.425843 
L 324.04163 278.531335 
L 325.034336 311.744291 
L 326.027041 290.3375 
L 327.019747 279.134075 
L 328.012453 364.419206 
L 329.005159 286.877441 
L 329.997865 302.854387 
L 330.990571 325.954614 
L 331.983277 301.267269 
L 332.975983 368.884239 
L 333.968689 301.319646 
L 334.961395 311.394765 
L 335.954101 351.081682 
L 336.946807 314.669585 
L 337.939513 299.40497 
L 338.932218 333.162095 
L 339.924924 312.220826 
L 340.91763 287.2201 
L 341.910336 324.028206 
L 342.903042 303.261798 
L 343.895748 291.454214 
L 344.888454 370.636242 
L 345.88116 300.771541 
L 346.873866 307.52924 
L 347.866572 338.636119 
L 348.859278 296.438665 
L 349.851984 332.025391 
L 350.84469 308.26142 
L 351.837395 296.056042 
L 352.830101 388.072822 
L 353.822807 301.319493 
L 354.815513 312.525317 
L 355.808219 302.806357 
L 356.800925 281.283253 
L 357.793631 295.979613 
L 358.786337 273.391879 
L 359.779043 264.041024 
L 360.771749 278.326654 
L 361.764455 271.075933 
L 362.757161 266.391438 
L 363.749867 285.564723 
L 364.742572 284.584097 
L 365.735278 279.739532 
L 366.727984 303.182458 
L 367.72069 335.859128 
L 368.713396 299.333716 
L 369.706102 285.101073 
L 370.698808 287.791179 
L 371.691514 279.094243 
L 372.68422 258.684041 
L 373.676926 259.008638 
L 374.669632 258.685845 
L 375.662338 249.030476 
L 376.655044 254.003658 
L 377.64775 264.778245 
L 378.640455 264.635986 
L 379.633161 289.033897 
L 380.625867 329.168438 
L 381.618573 300.774224 
L 382.611279 267.724597 
L 383.603985 240.967171 
L 384.596691 231.436232 
L 386.582103 209.57762 
L 387.574809 205.385778 
L 389.560221 194.721045 
L 390.552927 193.599916 
L 391.545632 191.848703 
L 392.538338 189.825772 
L 393.531044 191.440637 
L 394.52375 192.632617 
L 395.516456 193.128014 
L 397.501868 201.695188 
L 398.494574 204.55115 
L 400.479986 220.359611 
L 401.472692 226.113029 
L 402.465398 239.014398 
L 403.458104 255.021382 
L 404.450809 263.946963 
L 405.443515 284.969727 
L 406.436221 330.20217 
L 407.428927 330.654259 
L 408.421633 303.999621 
L 409.414339 302.564785 
L 410.407045 321.978515 
L 411.399751 301.782128 
L 412.392457 308.949751 
L 413.385163 355.337248 
L 414.377869 338.642186 
L 415.370575 343.923913 
L 416.363281 339.677254 
L 417.355986 363.870768 
L 418.348692 352.497393 
L 419.341398 321.061045 
L 420.334104 346.864759 
L 421.32681 354.175396 
L 422.319516 332.00485 
L 423.312222 398.858993 
L 424.304928 335.416772 
L 425.297634 360.518083 
L 426.29034 334.374109 
L 427.283046 311.368977 
L 428.275752 330.478731 
L 429.268458 313.587436 
L 430.261163 303.632447 
L 431.253869 331.648865 
L 432.246575 321.151036 
L 433.239281 315.363996 
L 434.231987 368.936462 
L 435.224693 360.694512 
L 436.217399 369.788507 
L 437.210105 345.161349 
L 438.202811 337.716384 
L 439.195517 372.364879 
L 440.188223 320.624923 
L 441.180929 321.191205 
L 442.173635 350.186824 
L 443.166341 319.806172 
L 444.159046 333.273434 
L 445.151752 396.36667 
L 446.144458 346.313011 
L 447.137164 370.962461 
L 448.12987 359.639633 
L 449.122576 365.428171 
L 450.115282 365.785045 
L 451.107988 330.885768 
L 452.100694 349.806386 
L 453.0934 360.437132 
L 454.086106 332.321838 
L 455.078812 348.051568 
L 456.071518 492.342776 
L 457.064223 357.205229 
L 458.056929 331.197537 
L 459.049635 340.576845 
L 460.042341 340.883022 
L 461.035047 310.299805 
L 462.027753 316.783117 
L 463.020459 327.751381 
L 464.013165 308.68595 
L 465.005871 315.702308 
L 465.998577 338.391174 
L 466.991283 319.210056 
L 467.983989 341.871349 
L 468.976695 390.353428 
L 469.9694 358.003868 
L 470.962106 398.536268 
L 471.954812 335.315535 
L 472.947518 346.302692 
L 473.940224 333.957993 
L 474.93293 310.282604 
L 475.925636 325.479298 
L 476.918342 320.240851 
L 477.911048 307.347466 
L 478.903754 328.020446 
L 479.89646 329.397153 
L 480.889166 319.570222 
L 481.881872 360.245904 
L 482.874577 364.77812 
L 483.867283 367.702885 
L 484.859989 369.397588 
L 485.852695 341.292729 
L 486.845401 359.963621 
L 487.838107 320.292477 
L 488.830813 310.169677 
L 489.823519 318.269459 
L 490.816225 299.01531 
L 491.808931 290.890893 
L 492.801637 294.912376 
L 493.794343 282.628608 
L 494.787049 275.799286 
L 495.779754 276.612211 
L 496.77246 270.055185 
L 497.765166 262.327263 
L 498.757872 263.154342 
L 499.750578 258.008423 
L 500.743284 252.102867 
L 501.73599 252.389542 
L 502.728696 250.038544 
L 503.721402 245.995276 
L 504.714108 248.951447 
L 505.706814 248.623485 
L 506.69952 246.910248 
L 507.692226 251.878587 
L 508.684932 254.509907 
L 509.677637 255.227763 
L 510.670343 262.721857 
L 511.663049 269.327411 
L 512.655755 272.345603 
L 514.641167 300.984319 
L 515.633873 308.32455 
L 516.626579 352.173677 
L 517.619285 352.197796 
L 518.611991 398.750398 
L 519.604697 335.467474 
L 520.597403 320.968616 
L 521.590109 337.302758 
L 522.582814 314.151202 
L 523.57552 315.716513 
L 524.568226 346.757021 
L 525.560932 325.238547 
L 526.553638 341.018591 
L 527.546344 361.772931 
L 528.53905 332.861571 
L 529.531756 365.54064 
L 530.524462 334.805623 
L 531.517168 326.739887 
L 532.509874 352.919721 
L 533.50258 327.795233 
L 534.495286 335.030236 
L 535.487991 367.221255 
L 536.480697 341.499889 
L 537.473403 364.911634 
L 538.466109 376.982452 
L 539.458815 376.72174 
L 540.451521 381.807872 
L 541.444227 340.803247 
L 542.436933 351.672926 
L 543.429639 342.313863 
L 544.422345 325.936747 
L 545.415051 349.610651 
L 547.400463 330.376488 
L 548.393168 367.208225 
L 549.385874 354.237402 
L 550.37858 363.473606 
L 551.371286 422.640635 
L 552.363992 363.750951 
L 553.356698 425.435178 
L 554.349404 350.556246 
L 555.34211 345.644573 
L 556.334816 382.227888 
L 557.327522 335.488639 
L 558.320228 346.855838 
L 559.312934 353.303348 
L 560.30564 332.363738 
L 561.298345 350.227115 
L 562.291051 340.382213 
L 563.283757 323.246828 
L 564.276463 341.328043 
L 565.269169 331.668441 
L 566.261875 326.100622 
L 567.254581 343.033607 
L 568.247287 335.291724 
L 569.239993 339.241585 
L 570.232699 389.587049 
L 571.225405 358.021522 
L 572.218111 373.582021 
L 573.210817 384.736708 
L 574.203523 375.798661 
L 575.196228 384.79879 
L 576.188934 334.456738 
L 577.18164 337.581705 
L 578.174346 344.207217 
L 579.167052 321.040362 
L 580.159758 323.561727 
L 581.152464 336.571044 
L 582.14517 320.827919 
L 583.137876 320.920339 
L 584.130582 338.711189 
L 585.123288 330.724956 
L 586.115994 327.337118 
L 587.1087 351.754707 
L 589.094111 339.937165 
L 590.086817 373.423317 
L 591.079523 396.487815 
L 592.072229 377.720639 
L 593.064935 381.439049 
L 594.057641 369.747089 
L 595.050347 384.63338 
L 596.043053 340.257924 
L 597.035759 324.833077 
L 598.028465 331.889474 
L 599.021171 314.265706 
L 600.013877 305.033559 
L 601.006582 309.625624 
L 601.999288 300.191694 
L 602.991994 294.188019 
L 603.9847 299.077224 
L 604.977406 293.230016 
L 605.970112 288.626698 
L 606.962818 294.220712 
L 608.94823 286.004271 
L 609.940936 291.909656 
L 611.926348 284.399924 
L 612.919054 290.014413 
L 613.911759 287.552444 
L 614.904465 283.692716 
L 615.897171 288.249197 
L 616.889877 286.685445 
L 617.882583 282.753753 
L 618.875289 287.354042 
L 619.867995 287.395411 
L 620.860701 283.452865 
L 621.853407 288.931784 
L 622.846113 291.39135 
L 623.838819 287.153025 
L 624.831525 294.69176 
L 625.824231 300.69237 
L 626.816936 297.131022 
L 627.809642 306.520257 
L 628.802348 317.936141 
L 629.795054 314.223677 
L 630.78776 326.031304 
L 631.780466 353.255845 
L 632.773172 348.3715 
L 633.765878 358.859585 
L 634.758584 394.326935 
L 635.75129 462.891088 
L 636.743996 367.693867 
L 637.736702 348.526339 
L 638.729408 366.859003 
L 639.722114 356.622554 
L 640.714819 338.849724 
L 641.707525 354.03241 
L 642.700231 361.983541 
L 643.692937 342.10032 
L 644.685643 358.014068 
L 645.678349 390.216023 
L 646.671055 359.215827 
L 647.663761 366.94919 
L 648.656467 436.876195 
L 649.649173 396.255167 
L 650.641879 373.26524 
L 651.634585 375.392582 
L 652.627291 442.354553 
L 653.619996 375.034221 
L 654.612702 359.245919 
L 655.605408 388.612294 
L 656.598114 377.471509 
L 657.59082 355.279035 
L 658.583526 377.703731 
L 659.576232 393.591047 
L 660.568938 364.37306 
L 661.561644 383.639662 
L 662.55435 441.299802 
L 663.547056 391.081138 
L 664.539762 392.47496 
L 665.532468 386.751364 
L 666.525173 443.376198 
L 667.517879 380.043021 
L 668.510585 361.525034 
L 669.503291 390.263965 
L 671.488703 352.206094 
L 672.481409 379.219303 
L 673.474115 371.355942 
L 674.466821 354.800969 
L 675.459527 385.849445 
L 676.452233 386.683371 
L 677.444939 368.688954 
L 678.437645 407.191565 
L 679.43035 406.755129 
L 680.423056 396.818466 
L 681.415762 394.808673 
L 682.408468 389.209145 
L 683.401174 467.818675 
L 684.39388 377.91948 
L 685.386586 379.254305 
L 686.379292 447.600927 
L 687.371998 370.941914 
L 688.364704 385.779601 
L 689.35741 405.246285 
L 690.350116 366.1614 
L 691.342822 399.60462 
L 692.335527 372.939753 
L 693.328233 355.70576 
L 694.320939 382.090563 
L 695.313645 351.042036 
L 696.306351 343.104989 
L 697.299057 359.839767 
L 698.291763 338.034342 
L 699.284469 334.407733 
L 700.277175 348.17385 
L 701.269881 331.688452 
L 702.262587 330.861483 
L 703.255293 344.702254 
L 704.247999 330.829245 
L 705.240705 331.98033 
L 706.23341 347.808972 
L 707.226116 333.998449 
L 708.218822 337.294977 
L 709.211528 356.645399 
L 710.204234 339.75699 
L 711.19694 345.738623 
L 712.189646 365.981891 
L 713.182352 344.410377 
L 714.175058 352.578989 
L 715.167764 367.756188 
L 716.16047 343.807894 
L 718.145882 361.285374 
L 719.138587 339.806654 
L 720.131293 346.439744 
L 721.123999 354.220674 
L 722.116705 334.578954 
L 723.109411 338.074095 
L 724.102117 346.654867 
L 725.094823 329.729723 
L 726.087529 330.508433 
L 727.080235 340.345557 
L 728.072941 326.68836 
L 729.065647 325.834725 
L 730.058353 337.363611 
L 731.051059 327.036492 
L 732.043764 325.615579 
L 733.03647 339.85781 
L 734.029176 332.659445 
L 735.021882 330.716314 
L 736.014588 350.135619 
L 738 342.653264 
L 738.992706 370.539153 
L 739.985412 374.434008 
L 740.978118 363.555358 
L 741.970824 389.821097 
L 742.96353 483.896116 
L 743.956236 392.065911 
L 744.948941 373.970001 
L 745.941647 392.825707 
L 746.934353 399.521316 
L 747.927059 362.76347 
L 748.919765 373.975521 
L 749.912471 396.685374 
L 750.905177 361.547988 
L 751.897883 373.484865 
L 752.890589 410.09042 
L 753.883295 369.344247 
L 754.876001 383.958959 
L 755.868707 442.086865 
L 756.861413 384.454289 
L 757.854118 402.90492 
L 758.846824 415.708292 
L 759.83953 403.762942 
L 760.832236 414.540604 
L 761.824942 390.933238 
L 762.817648 421.481707 
L 763.810354 401.103254 
L 764.80306 377.993577 
L 765.795766 421.069069 
L 766.788472 387.273243 
L 767.781178 370.044339 
L 768.773884 410.19293 
L 769.76659 378.629932 
L 770.759295 365.288935 
L 771.752001 403.347533 
L 772.744707 375.173753 
L 773.737413 364.093625 
L 774.730119 402.823805 
L 775.722825 377.894175 
L 776.715531 367.46672 
L 777.708237 413.506056 
L 778.700943 386.3387 
L 779.693649 376.30521 
L 780.686355 437.388149 
L 781.679061 396.940247 
L 782.671767 390.827619 
L 783.664473 433.633051 
L 784.657178 398.84069 
L 785.649884 412.804162 
L 786.64259 409.879317 
L 787.635296 392.486115 
L 788.628002 435.500946 
L 789.620708 399.730718 
L 790.613414 389.662277 
L 791.60612 446.27237 
L 792.598826 398.289544 
L 793.591532 394.644035 
L 794.584238 434.187486 
L 795.576944 400.705654 
L 796.56965 408.559279 
L 797.562355 413.103909 
L 798.555061 399.763904 
L 799.547767 432.284365 
L 800.540473 396.879881 
L 801.533179 395.975409 
L 802.525885 460.003247 
L 803.518591 385.741342 
L 804.511297 394.001211 
L 805.504003 434.825012 
L 806.496709 377.431241 
L 807.489415 392.035264 
L 808.482121 408.918412 
L 809.474827 368.896183 
L 810.467532 385.596049 
L 811.460238 390.874494 
L 812.452944 361.14405 
L 813.44565 376.357083 
L 814.438356 380.886377 
L 815.431062 355.775362 
L 816.423768 368.702788 
L 817.416474 376.686372 
L 818.40918 353.247285 
L 820.394592 377.501975 
L 821.387298 354.193778 
L 822.380004 364.222968 
L 823.372709 383.264966 
L 824.365415 357.639759 
L 825.358121 367.139208 
L 826.350827 393.416592 
L 827.343533 362.921598 
L 828.336239 371.964757 
L 829.328945 403.330867 
L 830.321651 366.696252 
L 831.314357 375.393819 
L 832.307063 405.634855 
L 833.299769 366.358328 
L 834.292475 373.836778 
L 835.285181 401.314915 
L 836.277886 363.971917 
L 837.270592 367.521008 
L 838.263298 394.473108 
L 839.256004 362.153602 
L 840.24871 360.952941 
L 841.241416 387.401707 
L 842.234122 362.533836 
L 843.226828 355.752502 
L 844.219534 379.405744 
L 846.204946 353.808593 
L 847.197652 372.598617 
L 848.190358 373.950212 
L 849.183064 355.280849 
L 850.175769 367.859363 
L 851.168475 386.267371 
L 852.161181 360.75963 
L 853.153887 366.13322 
L 854.146593 401.006401 
L 855.139299 371.447025 
L 856.132005 367.998716 
L 857.124711 407.364465 
L 858.117417 389.947785 
L 859.110123 374.637062 
L 860.102829 403.10239 
L 861.095535 427.789712 
L 862.088241 388.856878 
L 863.080946 398.163266 
L 864.073652 439.122773 
L 865.066358 418.44917 
L 866.059064 395.400607 
L 867.05177 398.743911 
L 868.044476 487.575364 
L 869.037182 394.956238 
L 870.029888 384.644119 
L 871.022594 432.573974 
L 872.0153 401.585909 
L 873.008006 383.683959 
L 874.000712 418.037716 
L 874.993418 418.373907 
L 875.986123 394.705943 
L 876.978829 417.411945 
L 877.971535 413.937869 
L 878.964241 423.901311 
L 879.956947 409.394421 
L 880.949653 388.129318 
L 881.942359 424.56475 
L 882.935065 396.548133 
L 883.927771 372.209501 
L 884.920477 396.008999 
L 885.913183 389.879985 
L 886.905889 366.134026 
L 887.898595 385.701274 
L 888.8913 394.885882 
L 889.884006 368.643443 
L 890.876712 387.136916 
L 891.869418 418.974741 
L 892.862124 381.187826 
L 893.85483 396.955038 
L 894.847536 460.375545 
L 895.840242 409.349332 
L 896.832948 403.235842 
L 897.825654 400.9254 
L 898.81836 467.381011 
L 899.811066 394.22378 
L 900.803772 379.262837 
L 901.796477 418.525104 
L 902.789183 385.693166 
L 903.781889 370.875649 
L 904.774595 405.438181 
L 905.767301 382.660153 
L 906.760007 370.580437 
L 907.752713 410.664392 
L 908.745419 381.858796 
L 909.738125 374.156278 
L 910.730831 424.970927 
L 911.723537 378.561177 
L 912.716243 377.47602 
L 913.708949 419.751074 
L 914.701655 372.154736 
L 915.69436 377.508322 
L 916.687066 405.57756 
L 917.679772 368.050042 
L 918.672478 377.349922 
L 919.665184 400.391328 
L 920.65789 367.509165 
L 921.650596 380.530706 
L 922.643302 401.215585 
L 923.636008 369.720706 
L 924.628714 387.53745 
L 925.62142 403.331158 
L 926.614126 372.445917 
L 927.606832 395.332421 
L 928.599537 398.820787 
L 929.592243 372.56051 
L 930.584949 397.826234 
L 931.577655 391.456947 
L 932.570361 368.803176 
L 933.563067 391.76817 
L 934.555773 385.302637 
L 935.548479 363.619206 
L 936.541185 381.733056 
L 937.533891 379.454174 
L 938.526597 358.315132 
L 939.519303 371.778414 
L 940.512009 373.335879 
L 941.504714 353.136374 
L 942.49742 363.274286 
L 943.490126 368.220467 
L 944.482832 349.064535 
L 946.468244 364.724255 
L 947.46095 347.068645 
L 948.453656 353.85262 
L 949.446362 364.537735 
L 950.439068 347.467468 
L 951.431774 353.535759 
L 952.42448 368.510726 
L 953.417186 351.439881 
L 954.409891 356.340053 
L 955.402597 378.20468 
L 956.395303 359.799082 
L 957.388009 361.875426 
L 958.380715 393.85183 
L 959.373421 374.367494 
L 960.366127 368.729347 
L 961.358833 400.487559 
L 962.351539 397.231314 
L 963.344245 374.335747 
L 964.336951 388.409765 
L 965.329657 423.663574 
L 966.322363 378.261241 
L 967.315068 379.247532 
L 968.307774 428.485642 
L 969.30048 385.943765 
L 970.293186 378.95578 
L 971.285892 424.814929 
L 972.278598 405.578862 
L 973.271304 388.699989 
L 974.26401 413.173604 
L 975.256716 450.775525 
L 976.249422 410.078121 
L 977.242128 394.180819 
L 978.234834 410.907784 
L 979.22754 432.14526 
L 980.220246 380.5539 
L 981.212951 386.000735 
L 982.205657 422.304773 
L 983.198363 375.636879 
L 984.191069 377.893025 
L 985.183775 420.966157 
L 986.176481 379.652081 
L 987.169187 380.134802 
L 988.161893 444.390819 
L 989.154599 393.934561 
L 990.147305 391.926333 
L 991.140011 441.147608 
L 992.132717 421.604533 
L 994.118128 404.307546 
L 995.110834 422.625785 
L 996.10354 427.151456 
L 997.096246 387.462692 
L 998.088952 404.263785 
L 999.081658 426.528682 
L 1000.074364 383.70562 
L 1001.06707 401.384554 
L 1002.059776 431.724788 
L 1003.052482 389.155588 
L 1004.045188 414.092313 
L 1005.037894 425.107566 
L 1006.0306 402.645899 
L 1007.023305 447.628388 
L 1008.016011 398.413005 
L 1009.008717 407.731473 
L 1010.001423 425.971207 
L 1010.994129 379.602242 
L 1011.986835 394.733101 
L 1012.979541 399.079139 
L 1013.972247 368.74381 
L 1014.964953 384.364654 
L 1015.957659 387.050499 
L 1016.950365 363.577752 
L 1017.943071 380.192681 
L 1018.935777 382.258569 
L 1019.928482 362.15491 
L 1020.921188 380.942366 
L 1021.913894 381.311439 
L 1022.9066 363.008939 
L 1023.899306 384.254866 
L 1024.892012 381.029871 
L 1025.884718 364.419032 
L 1026.877424 388.466107 
L 1027.87013 381.282862 
L 1028.862836 365.79805 
L 1029.855542 391.46544 
L 1030.848248 381.894174 
L 1031.840954 366.783902 
L 1032.833659 393.50075 
L 1033.826365 383.752434 
L 1034.819071 368.399993 
L 1035.811777 395.367328 
L 1036.804483 386.908584 
L 1037.797189 370.074457 
L 1038.789895 397.538004 
L 1039.782601 389.821919 
L 1040.775307 372.256704 
L 1041.768013 402.234086 
L 1042.760719 391.026063 
L 1043.753425 373.884863 
L 1044.746131 407.838483 
L 1045.738837 387.29697 
L 1046.731542 373.560956 
L 1047.724248 408.47565 
L 1048.716954 379.122766 
L 1049.70966 369.616143 
L 1050.702366 398.231333 
L 1051.695072 370.585187 
L 1052.687778 363.932292 
L 1053.680484 387.662895 
L 1054.67319 365.510977 
L 1055.665896 360.017775 
L 1056.658602 383.071672 
L 1057.651308 365.329954 
L 1058.644014 359.836476 
L 1059.636719 385.235319 
L 1060.629425 371.813233 
L 1061.622131 364.545098 
L 1062.614837 393.583466 
L 1063.607543 388.792205 
L 1064.600249 374.063115 
L 1065.592955 398.039735 
L 1066.585661 427.612987 
L 1067.578367 386.270974 
L 1068.571073 387.61182 
L 1069.563779 434.008432 
L 1070.556485 393.616807 
L 1071.549191 375.589283 
L 1072.541896 398.55315 
L 1073.534602 396.918082 
L 1074.527308 371.572094 
L 1076.51272 406.176287 
L 1077.505426 375.790372 
L 1078.498132 390.487355 
L 1079.490838 439.410962 
L 1080.483544 390.863676 
L 1081.47625 400.790651 
L 1082.468956 450.173403 
L 1083.461662 426.625752 
L 1084.454368 407.78325 
L 1085.447073 398.711233 
L 1086.439779 446.486177 
L 1087.432485 399.61565 
L 1088.425191 379.7275 
L 1089.417897 407.936413 
L 1090.410603 393.015859 
L 1091.403309 372.777636 
L 1092.396015 396.497454 
L 1093.388721 395.127837 
L 1094.381427 373.560289 
L 1095.374133 396.800301 
L 1096.366839 406.998382 
L 1097.359545 380.448327 
L 1098.35225 403.811242 
L 1099.344956 431.152467 
L 1100.337662 392.518753 
L 1101.330368 409.134131 
L 1102.323074 454.102179 
L 1103.31578 407.968412 
L 1104.308486 406.823585 
L 1105.301192 436.439705 
L 1106.293898 421.759132 
L 1107.286604 399.287844 
L 1108.27931 424.28048 
L 1109.272016 423.835232 
L 1110.264722 391.789836 
L 1111.257428 418.75696 
L 1112.250133 415.507277 
L 1113.242839 385.187819 
L 1114.235545 414.52224 
L 1115.228251 406.353981 
L 1116.220957 381.131746 
L 1117.213663 411.978672 
L 1118.206369 400.61266 
L 1119.199075 379.745159 
L 1120.191781 415.242552 
L 1122.177193 381.604548 
L 1123.169899 426.565717 
L 1124.162605 395.911549 
L 1125.15531 384.639769 
L 1126.148016 444.687147 
L 1127.140722 391.12324 
L 1128.133428 386.185113 
L 1129.126134 444.890617 
L 1130.11884 384.758227 
L 1131.111546 384.651747 
L 1132.104252 428.743946 
L 1133.096958 379.542492 
L 1134.089664 381.42646 
L 1135.08237 418.336163 
L 1136.075076 376.810136 
L 1137.067782 377.970067 
L 1138.060487 414.139501 
L 1139.053193 376.495092 
L 1140.045899 376.142181 
L 1141.038605 412.400829 
L 1142.031311 377.72457 
L 1143.024017 375.385375 
L 1144.016723 414.040785 
L 1145.009429 380.392142 
L 1146.002135 376.414774 
L 1146.994841 418.125072 
L 1147.987547 383.922479 
L 1148.980253 378.905435 
L 1149.972959 426.262598 
L 1150.965664 387.332703 
L 1151.95837 383.293724 
L 1152.951076 442.585371 
L 1153.943782 389.857068 
L 1154.936488 388.270342 
L 1155.929194 466.618233 
L 1156.9219 390.92893 
L 1157.914606 394.642596 
L 1158.907312 465.236387 
L 1159.900018 389.910394 
L 1160.892724 399.307029 
L 1161.88543 448.440701 
L 1162.878136 389.223828 
L 1163.870841 402.142526 
L 1164.863547 446.81605 
L 1165.856253 391.179249 
L 1166.848959 404.397212 
L 1167.841665 463.839307 
L 1168.834371 399.163763 
L 1169.827077 406.117733 
L 1170.819783 458.654314 
L 1171.812489 415.778353 
L 1172.805195 402.281753 
L 1173.797901 418.478641 
L 1174.790607 452.521005 
L 1175.783313 393.918066 
L 1176.776019 395.411464 
L 1177.768724 457.453001 
L 1178.76143 386.593145 
L 1179.754136 383.013055 
L 1180.746842 426.949571 
L 1181.739548 383.783698 
L 1182.732254 378.250819 
L 1183.72496 419.080751 
L 1184.717666 388.488639 
L 1185.710372 379.955631 
L 1186.703078 423.943427 
L 1187.695784 402.330682 
L 1188.68849 389.630209 
L 1189.681196 429.327769 
L 1190.673901 430.134438 
L 1191.666607 410.319818 
L 1192.659313 411.274935 
L 1193.652019 421.222396 
L 1194.644725 450.956919 
L 1195.637431 394.128321 
L 1196.630137 395.611645 
L 1197.622843 452.611777 
L 1198.615549 385.313086 
L 1199.608255 382.779956 
L 1200.600961 426.637851 
L 1201.593667 384.054265 
L 1202.586373 378.600891 
L 1203.579078 420.282637 
L 1204.571784 390.009723 
L 1205.56449 380.425575 
L 1206.557196 421.785729 
L 1208.542608 386.628709 
L 1209.535314 418.459663 
L 1210.52802 429.418504 
L 1211.520726 395.998991 
L 1212.513432 411.518617 
L 1213.506138 459.976786 
L 1214.498844 405.366792 
L 1215.49155 406.598639 
L 1216.484255 453.915567 
L 1217.476961 411.350741 
L 1218.469667 405.704259 
L 1219.462373 453.648013 
L 1220.455079 408.402007 
L 1221.447785 405.390702 
L 1222.440491 476.69278 
L 1223.433197 400.035454 
L 1224.425903 400.769448 
L 1225.418609 492.48 
L 1226.411315 391.559701 
L 1227.404021 392.607124 
L 1228.396727 452.87758 
L 1229.389432 386.216797 
L 1230.382138 385.625657 
L 1231.374844 435.87661 
L 1232.36755 384.924133 
L 1233.360256 382.278566 
L 1234.352962 431.186533 
L 1235.345668 388.178167 
L 1236.338374 382.623956 
L 1237.33108 434.399815 
L 1238.323786 395.861659 
L 1239.316492 387.148838 
L 1240.309198 441.318911 
L 1241.301904 407.428363 
L 1242.29461 395.508524 
L 1243.287315 449.461135 
L 1244.280021 412.94566 
L 1245.272727 406.24504 
L 1245.272727 406.24504 
" clip-path="url(#p33a92420d4)" style="fill: none; stroke: #1f77b4; stroke-width: 1.5; stroke-linecap: square"/>
   </g>
   <g id="patch_3">
    <path d="M 180 512.64 
L 180 69.12 
" style="fill: none; stroke: #000000; stroke-width: 0.8; stroke-linejoin: miter; stroke-linecap: square"/>
   </g>
   <g id="patch_4">
    <path d="M 1296 512.64 
L 1296 69.12 
" style="fill: none; stroke: #000000; stroke-width: 0.8; stroke-linejoin: miter; stroke-linecap: square"/>
   </g>
   <g id="patch_5">
    <path d="M 180 512.64 
L 1296 512.64 
" style="fill: none; stroke: #000000; stroke-width: 0.8; stroke-linejoin: miter; stroke-linecap: square"/>
   </g>
   <g id="patch_6">
    <path d="M 180 69.12 
L 1296 69.12 
" style="fill: none; stroke: #000000; stroke-width: 0.8; stroke-linejoin: miter; stroke-linecap: square"/>
   </g>
   <g id="text_12">
    <!-- source11-receiver19 -->
    <g transform="translate(532.175 60.80125) scale(0.4 -0.4)">
     <defs>
      <path id="DejaVuSans-73" d="M 2834 3397 
L 2834 2853 
Q 2591 2978 2328 3040 
Q 2066 3103 1784 3103 
Q 1356 3103 1142 2972 
Q 928 2841 928 2578 
Q 928 2378 1081 2264 
Q 1234 2150 1697 2047 
L 1894 2003 
Q 2506 1872 2764 1633 
Q 3022 1394 3022 966 
Q 3022 478 2636 193 
Q 2250 -91 1575 -91 
Q 1294 -91 989 -36 
Q 684 19 347 128 
L 347 722 
Q 666 556 975 473 
Q 1284 391 1588 391 
Q 1994 391 2212 530 
Q 2431 669 2431 922 
Q 2431 1156 2273 1281 
Q 2116 1406 1581 1522 
L 1381 1569 
Q 847 1681 609 1914 
Q 372 2147 372 2553 
Q 372 3047 722 3315 
Q 1072 3584 1716 3584 
Q 2034 3584 2315 3537 
Q 2597 3491 2834 3397 
z
" transform="scale(0.015625)"/>
      <path id="DejaVuSans-6f" d="M 1959 3097 
Q 1497 3097 1228 2736 
Q 959 2375 959 1747 
Q 959 1119 1226 758 
Q 1494 397 1959 397 
Q 2419 397 2687 759 
Q 2956 1122 2956 1747 
Q 2956 2369 2687 2733 
Q 2419 3097 1959 3097 
z
M 1959 3584 
Q 2709 3584 3137 3096 
Q 3566 2609 3566 1747 
Q 3566 888 3137 398 
Q 2709 -91 1959 -91 
Q 1206 -91 779 398 
Q 353 888 353 1747 
Q 353 2609 779 3096 
Q 1206 3584 1959 3584 
z
" transform="scale(0.015625)"/>
      <path id="DejaVuSans-75" d="M 544 1381 
L 544 3500 
L 1119 3500 
L 1119 1403 
Q 1119 906 1312 657 
Q 1506 409 1894 409 
Q 2359 409 2629 706 
Q 2900 1003 2900 1516 
L 2900 3500 
L 3475 3500 
L 3475 0 
L 2900 0 
L 2900 538 
Q 2691 219 2414 64 
Q 2138 -91 1772 -91 
Q 1169 -91 856 284 
Q 544 659 544 1381 
z
M 1991 3584 
L 1991 3584 
z
" transform="scale(0.015625)"/>
      <path id="DejaVuSans-72" d="M 2631 2963 
Q 2534 3019 2420 3045 
Q 2306 3072 2169 3072 
Q 1681 3072 1420 2755 
Q 1159 2438 1159 1844 
L 1159 0 
L 581 0 
L 581 3500 
L 1159 3500 
L 1159 2956 
Q 1341 3275 1631 3429 
Q 1922 3584 2338 3584 
Q 2397 3584 2469 3576 
Q 2541 3569 2628 3553 
L 2631 2963 
z
" transform="scale(0.015625)"/>
      <path id="DejaVuSans-63" d="M 3122 3366 
L 3122 2828 
Q 2878 2963 2633 3030 
Q 2388 3097 2138 3097 
Q 1578 3097 1268 2742 
Q 959 2388 959 1747 
Q 959 1106 1268 751 
Q 1578 397 2138 397 
Q 2388 397 2633 464 
Q 2878 531 3122 666 
L 3122 134 
Q 2881 22 2623 -34 
Q 2366 -91 2075 -91 
Q 1284 -91 818 406 
Q 353 903 353 1747 
Q 353 2603 823 3093 
Q 1294 3584 2113 3584 
Q 2378 3584 2631 3529 
Q 2884 3475 3122 3366 
z
" transform="scale(0.015625)"/>
      <path id="DejaVuSans-65" d="M 3597 1894 
L 3597 1613 
L 953 1613 
Q 991 1019 1311 708 
Q 1631 397 2203 397 
Q 2534 397 2845 478 
Q 3156 559 3463 722 
L 3463 178 
Q 3153 47 2828 -22 
Q 2503 -91 2169 -91 
Q 1331 -91 842 396 
Q 353 884 353 1716 
Q 353 2575 817 3079 
Q 1281 3584 2069 3584 
Q 2775 3584 3186 3129 
Q 3597 2675 3597 1894 
z
M 3022 2063 
Q 3016 2534 2758 2815 
Q 2500 3097 2075 3097 
Q 1594 3097 1305 2825 
Q 1016 2553 972 2059 
L 3022 2063 
z
" transform="scale(0.015625)"/>
      <path id="DejaVuSans-2d" d="M 313 2009 
L 1997 2009 
L 1997 1497 
L 313 1497 
L 313 2009 
z
" transform="scale(0.015625)"/>
      <path id="DejaVuSans-69" d="M 603 3500 
L 1178 3500 
L 1178 0 
L 603 0 
L 603 3500 
z
M 603 4863 
L 1178 4863 
L 1178 4134 
L 603 4134 
L 603 4863 
z
" transform="scale(0.015625)"/>
      <path id="DejaVuSans-76" d="M 191 3500 
L 800 3500 
L 1894 563 
L 2988 3500 
L 3597 3500 
L 2284 0 
L 1503 0 
L 191 3500 
z
" transform="scale(0.015625)"/>
      <path id="DejaVuSans-39" d="M 703 97 
L 703 672 
Q 941 559 1184 500 
Q 1428 441 1663 441 
Q 2288 441 2617 861 
Q 2947 1281 2994 2138 
Q 2813 1869 2534 1725 
Q 2256 1581 1919 1581 
Q 1219 1581 811 2004 
Q 403 2428 403 3163 
Q 403 3881 828 4315 
Q 1253 4750 1959 4750 
Q 2769 4750 3195 4129 
Q 3622 3509 3622 2328 
Q 3622 1225 3098 567 
Q 2575 -91 1691 -91 
Q 1453 -91 1209 -44 
Q 966 3 703 97 
z
M 1959 2075 
Q 2384 2075 2632 2365 
Q 2881 2656 2881 3163 
Q 2881 3666 2632 3958 
Q 2384 4250 1959 4250 
Q 1534 4250 1286 3958 
Q 1038 3666 1038 3163 
Q 1038 2656 1286 2365 
Q 1534 2075 1959 2075 
z
" transform="scale(0.015625)"/>
     </defs>
     <use xlink:href="#DejaVuSans-73"/>
     <use xlink:href="#DejaVuSans-6f" x="52.099609"/>
     <use xlink:href="#DejaVuSans-75" x="113.28125"/>
     <use xlink:href="#DejaVuSans-72" x="176.660156"/>
     <use xlink:href="#DejaVuSans-63" x="215.523438"/>
     <use xlink:href="#DejaVuSans-65" x="270.503906"/>
     <use xlink:href="#DejaVuSans-31" x="332.027344"/>
     <use xlink:href="#DejaVuSans-31" x="395.650391"/>
     <use xlink:href="#DejaVuSans-2d" x="459.273438"/>
     <use xlink:href="#DejaVuSans-72" x="495.357422"/>
     <use xlink:href="#DejaVuSans-65" x="534.220703"/>
     <use xlink:href="#DejaVuSans-63" x="595.744141"/>
     <use xlink:href="#DejaVuSans-65" x="650.724609"/>
     <use xlink:href="#DejaVuSans-69" x="712.248047"/>
     <use xlink:href="#DejaVuSans-76" x="740.03125"/>
     <use xlink:href="#DejaVuSans-65" x="799.210938"/>
     <use xlink:href="#DejaVuSans-72" x="860.734375"/>
     <use xlink:href="#DejaVuSans-31" x="901.847656"/>
     <use xlink:href="#DejaVuSans-39" x="965.470703"/>
    </g>
   </g>
  </g>
 </g>
 <defs>
  <clipPath id="p33a92420d4">
   <rect x="180" y="69.12" width="1116" height="443.52"/>
  </clipPath>
 </defs>
</svg>
