<?xml version="1.0" encoding="utf-8" standalone="no"?>
<!DOCTYPE svg PUBLIC "-//W3C//DTD SVG 1.1//EN"
  "http://www.w3.org/Graphics/SVG/1.1/DTD/svg11.dtd">
<svg xmlns:xlink="http://www.w3.org/1999/xlink" width="1440pt" height="576pt" viewBox="0 0 1440 576" xmlns="http://www.w3.org/2000/svg" version="1.1">
 <metadata>
  <rdf:RDF xmlns:dc="http://purl.org/dc/elements/1.1/" xmlns:cc="http://creativecommons.org/ns#" xmlns:rdf="http://www.w3.org/1999/02/22-rdf-syntax-ns#">
   <cc:Work>
    <dc:type rdf:resource="http://purl.org/dc/dcmitype/StillImage"/>
    <dc:date>2024-05-22T04:50:00.948655</dc:date>
    <dc:format>image/svg+xml</dc:format>
    <dc:creator>
     <cc:Agent>
      <dc:title>Matplotlib v3.8.3, https://matplotlib.org/</dc:title>
     </cc:Agent>
    </dc:creator>
   </cc:Work>
  </rdf:RDF>
 </metadata>
 <defs>
  <style type="text/css">*{stroke-linejoin: round; stroke-linecap: butt}</style>
 </defs>
 <g id="figure_1">
  <g id="patch_1">
   <path d="M 0 576 
L 1440 576 
L 1440 0 
L 0 0 
z
" style="fill: #ffffff"/>
  </g>
  <g id="axes_1">
   <g id="patch_2">
    <path d="M 180 512.64 
L 1296 512.64 
L 1296 69.12 
L 180 69.12 
z
" style="fill: #ffffff"/>
   </g>
   <g id="matplotlib.axis_1">
    <g id="xtick_1">
     <g id="line2d_1">
      <defs>
       <path id="mcaabdc0525" d="M 0 0 
L 0 3.5 
" style="stroke: #000000; stroke-width: 0.8"/>
      </defs>
      <g>
       <use xlink:href="#mcaabdc0525" x="229.734567" y="512.64" style="stroke: #000000; stroke-width: 0.8"/>
      </g>
     </g>
     <g id="text_1">
      <!-- 0 -->
      <g transform="translate(226.553317 527.238438) scale(0.1 -0.1)">
       <defs>
        <path id="DejaVuSans-30" d="M 2034 4250 
Q 1547 4250 1301 3770 
Q 1056 3291 1056 2328 
Q 1056 1369 1301 889 
Q 1547 409 2034 409 
Q 2525 409 2770 889 
Q 3016 1369 3016 2328 
Q 3016 3291 2770 3770 
Q 2525 4250 2034 4250 
z
M 2034 4750 
Q 2819 4750 3233 4129 
Q 3647 3509 3647 2328 
Q 3647 1150 3233 529 
Q 2819 -91 2034 -91 
Q 1250 -91 836 529 
Q 422 1150 422 2328 
Q 422 3509 836 4129 
Q 1250 4750 2034 4750 
z
" transform="scale(0.015625)"/>
       </defs>
       <use xlink:href="#DejaVuSans-30"/>
      </g>
     </g>
    </g>
    <g id="xtick_2">
     <g id="line2d_2">
      <g>
       <use xlink:href="#mcaabdc0525" x="433.04074" y="512.64" style="stroke: #000000; stroke-width: 0.8"/>
      </g>
     </g>
     <g id="text_2">
      <!-- 500 -->
      <g transform="translate(423.49699 527.238438) scale(0.1 -0.1)">
       <defs>
        <path id="DejaVuSans-35" d="M 691 4666 
L 3169 4666 
L 3169 4134 
L 1269 4134 
L 1269 2991 
Q 1406 3038 1543 3061 
Q 1681 3084 1819 3084 
Q 2600 3084 3056 2656 
Q 3513 2228 3513 1497 
Q 3513 744 3044 326 
Q 2575 -91 1722 -91 
Q 1428 -91 1123 -41 
Q 819 9 494 109 
L 494 744 
Q 775 591 1075 516 
Q 1375 441 1709 441 
Q 2250 441 2565 725 
Q 2881 1009 2881 1497 
Q 2881 1984 2565 2268 
Q 2250 2553 1709 2553 
Q 1456 2553 1204 2497 
Q 953 2441 691 2322 
L 691 4666 
z
" transform="scale(0.015625)"/>
       </defs>
       <use xlink:href="#DejaVuSans-35"/>
       <use xlink:href="#DejaVuSans-30" x="63.623047"/>
       <use xlink:href="#DejaVuSans-30" x="127.246094"/>
      </g>
     </g>
    </g>
    <g id="xtick_3">
     <g id="line2d_3">
      <g>
       <use xlink:href="#mcaabdc0525" x="636.346913" y="512.64" style="stroke: #000000; stroke-width: 0.8"/>
      </g>
     </g>
     <g id="text_3">
      <!-- 1000 -->
      <g transform="translate(623.621913 527.238438) scale(0.1 -0.1)">
       <defs>
        <path id="DejaVuSans-31" d="M 794 531 
L 1825 531 
L 1825 4091 
L 703 3866 
L 703 4441 
L 1819 4666 
L 2450 4666 
L 2450 531 
L 3481 531 
L 3481 0 
L 794 0 
L 794 531 
z
" transform="scale(0.015625)"/>
       </defs>
       <use xlink:href="#DejaVuSans-31"/>
       <use xlink:href="#DejaVuSans-30" x="63.623047"/>
       <use xlink:href="#DejaVuSans-30" x="127.246094"/>
       <use xlink:href="#DejaVuSans-30" x="190.869141"/>
      </g>
     </g>
    </g>
    <g id="xtick_4">
     <g id="line2d_4">
      <g>
       <use xlink:href="#mcaabdc0525" x="839.653087" y="512.64" style="stroke: #000000; stroke-width: 0.8"/>
      </g>
     </g>
     <g id="text_4">
      <!-- 1500 -->
      <g transform="translate(826.928087 527.238438) scale(0.1 -0.1)">
       <use xlink:href="#DejaVuSans-31"/>
       <use xlink:href="#DejaVuSans-35" x="63.623047"/>
       <use xlink:href="#DejaVuSans-30" x="127.246094"/>
       <use xlink:href="#DejaVuSans-30" x="190.869141"/>
      </g>
     </g>
    </g>
    <g id="xtick_5">
     <g id="line2d_5">
      <g>
       <use xlink:href="#mcaabdc0525" x="1042.95926" y="512.64" style="stroke: #000000; stroke-width: 0.8"/>
      </g>
     </g>
     <g id="text_5">
      <!-- 2000 -->
      <g transform="translate(1030.23426 527.238438) scale(0.1 -0.1)">
       <defs>
        <path id="DejaVuSans-32" d="M 1228 531 
L 3431 531 
L 3431 0 
L 469 0 
L 469 531 
Q 828 903 1448 1529 
Q 2069 2156 2228 2338 
Q 2531 2678 2651 2914 
Q 2772 3150 2772 3378 
Q 2772 3750 2511 3984 
Q 2250 4219 1831 4219 
Q 1534 4219 1204 4116 
Q 875 4013 500 3803 
L 500 4441 
Q 881 4594 1212 4672 
Q 1544 4750 1819 4750 
Q 2544 4750 2975 4387 
Q 3406 4025 3406 3419 
Q 3406 3131 3298 2873 
Q 3191 2616 2906 2266 
Q 2828 2175 2409 1742 
Q 1991 1309 1228 531 
z
" transform="scale(0.015625)"/>
       </defs>
       <use xlink:href="#DejaVuSans-32"/>
       <use xlink:href="#DejaVuSans-30" x="63.623047"/>
       <use xlink:href="#DejaVuSans-30" x="127.246094"/>
       <use xlink:href="#DejaVuSans-30" x="190.869141"/>
      </g>
     </g>
    </g>
    <g id="xtick_6">
     <g id="line2d_6">
      <g>
       <use xlink:href="#mcaabdc0525" x="1246.265433" y="512.64" style="stroke: #000000; stroke-width: 0.8"/>
      </g>
     </g>
     <g id="text_6">
      <!-- 2500 -->
      <g transform="translate(1233.540433 527.238438) scale(0.1 -0.1)">
       <use xlink:href="#DejaVuSans-32"/>
       <use xlink:href="#DejaVuSans-35" x="63.623047"/>
       <use xlink:href="#DejaVuSans-30" x="127.246094"/>
       <use xlink:href="#DejaVuSans-30" x="190.869141"/>
      </g>
     </g>
    </g>
   </g>
   <g id="matplotlib.axis_2">
    <g id="ytick_1">
     <g id="line2d_7">
      <defs>
       <path id="ma7aa6e5acd" d="M 0 0 
L -3.5 0 
" style="stroke: #000000; stroke-width: 0.8"/>
      </defs>
      <g>
       <use xlink:href="#ma7aa6e5acd" x="180" y="465.080251" style="stroke: #000000; stroke-width: 0.8"/>
      </g>
     </g>
     <g id="text_7">
      <!-- −1 -->
      <g transform="translate(158.257812 468.87947) scale(0.1 -0.1)">
       <defs>
        <path id="DejaVuSans-2212" d="M 678 2272 
L 4684 2272 
L 4684 1741 
L 678 1741 
L 678 2272 
z
" transform="scale(0.015625)"/>
       </defs>
       <use xlink:href="#DejaVuSans-2212"/>
       <use xlink:href="#DejaVuSans-31" x="83.789062"/>
      </g>
     </g>
    </g>
    <g id="ytick_2">
     <g id="line2d_8">
      <g>
       <use xlink:href="#ma7aa6e5acd" x="180" y="403.374407" style="stroke: #000000; stroke-width: 0.8"/>
      </g>
     </g>
     <g id="text_8">
      <!-- 0 -->
      <g transform="translate(166.6375 407.173626) scale(0.1 -0.1)">
       <use xlink:href="#DejaVuSans-30"/>
      </g>
     </g>
    </g>
    <g id="ytick_3">
     <g id="line2d_9">
      <g>
       <use xlink:href="#ma7aa6e5acd" x="180" y="341.668563" style="stroke: #000000; stroke-width: 0.8"/>
      </g>
     </g>
     <g id="text_9">
      <!-- 1 -->
      <g transform="translate(166.6375 345.467782) scale(0.1 -0.1)">
       <use xlink:href="#DejaVuSans-31"/>
      </g>
     </g>
    </g>
    <g id="ytick_4">
     <g id="line2d_10">
      <g>
       <use xlink:href="#ma7aa6e5acd" x="180" y="279.962719" style="stroke: #000000; stroke-width: 0.8"/>
      </g>
     </g>
     <g id="text_10">
      <!-- 2 -->
      <g transform="translate(166.6375 283.761938) scale(0.1 -0.1)">
       <use xlink:href="#DejaVuSans-32"/>
      </g>
     </g>
    </g>
    <g id="ytick_5">
     <g id="line2d_11">
      <g>
       <use xlink:href="#ma7aa6e5acd" x="180" y="218.256875" style="stroke: #000000; stroke-width: 0.8"/>
      </g>
     </g>
     <g id="text_11">
      <!-- 3 -->
      <g transform="translate(166.6375 222.056093) scale(0.1 -0.1)">
       <defs>
        <path id="DejaVuSans-33" d="M 2597 2516 
Q 3050 2419 3304 2112 
Q 3559 1806 3559 1356 
Q 3559 666 3084 287 
Q 2609 -91 1734 -91 
Q 1441 -91 1130 -33 
Q 819 25 488 141 
L 488 750 
Q 750 597 1062 519 
Q 1375 441 1716 441 
Q 2309 441 2620 675 
Q 2931 909 2931 1356 
Q 2931 1769 2642 2001 
Q 2353 2234 1838 2234 
L 1294 2234 
L 1294 2753 
L 1863 2753 
Q 2328 2753 2575 2939 
Q 2822 3125 2822 3475 
Q 2822 3834 2567 4026 
Q 2313 4219 1838 4219 
Q 1578 4219 1281 4162 
Q 984 4106 628 3988 
L 628 4550 
Q 988 4650 1302 4700 
Q 1616 4750 1894 4750 
Q 2613 4750 3031 4423 
Q 3450 4097 3450 3541 
Q 3450 3153 3228 2886 
Q 3006 2619 2597 2516 
z
" transform="scale(0.015625)"/>
       </defs>
       <use xlink:href="#DejaVuSans-33"/>
      </g>
     </g>
    </g>
    <g id="ytick_6">
     <g id="line2d_12">
      <g>
       <use xlink:href="#ma7aa6e5acd" x="180" y="156.55103" style="stroke: #000000; stroke-width: 0.8"/>
      </g>
     </g>
     <g id="text_12">
      <!-- 4 -->
      <g transform="translate(166.6375 160.350249) scale(0.1 -0.1)">
       <defs>
        <path id="DejaVuSans-34" d="M 2419 4116 
L 825 1625 
L 2419 1625 
L 2419 4116 
z
M 2253 4666 
L 3047 4666 
L 3047 1625 
L 3713 1625 
L 3713 1100 
L 3047 1100 
L 3047 0 
L 2419 0 
L 2419 1100 
L 313 1100 
L 313 1709 
L 2253 4666 
z
" transform="scale(0.015625)"/>
       </defs>
       <use xlink:href="#DejaVuSans-34"/>
      </g>
     </g>
    </g>
    <g id="ytick_7">
     <g id="line2d_13">
      <g>
       <use xlink:href="#ma7aa6e5acd" x="180" y="94.845186" style="stroke: #000000; stroke-width: 0.8"/>
      </g>
     </g>
     <g id="text_13">
      <!-- 5 -->
      <g transform="translate(166.6375 98.644405) scale(0.1 -0.1)">
       <use xlink:href="#DejaVuSans-35"/>
      </g>
     </g>
    </g>
   </g>
   <g id="line2d_14">
    <path d="M 230.727273 449.511497 
L 231.719979 449.348891 
L 232.712685 448.184998 
L 235.690802 444.263564 
L 236.683508 441.958924 
L 237.676214 440.553857 
L 238.66892 438.386122 
L 239.661626 437.055441 
L 240.654332 435.395853 
L 241.647038 434.203053 
L 242.639744 433.303902 
L 243.63245 433.258283 
L 244.625156 430.773764 
L 245.617862 429.659632 
L 246.610568 444.414118 
L 247.603273 447.689447 
L 249.588685 345.680146 
L 250.581391 327.504495 
L 251.574097 299.235129 
L 252.566803 264.185526 
L 253.559509 248.546667 
L 254.552215 237.779748 
L 255.544921 238.029958 
L 256.537627 262.583562 
L 257.530333 241.162015 
L 258.523039 216.117691 
L 259.515745 198.117698 
L 260.50845 197.790829 
L 261.501156 228.825821 
L 262.493862 290.986758 
L 263.486568 311.036736 
L 264.479274 225.443996 
L 265.47198 195.722694 
L 266.464686 193.573124 
L 267.457392 224.909496 
L 268.450098 209.535258 
L 269.442804 217.150607 
L 270.43551 201.496126 
L 271.428216 212.341137 
L 272.420922 277.702518 
L 273.413627 207.568621 
L 274.406333 189.598979 
L 275.399039 168.793414 
L 276.391745 162.805885 
L 277.384451 140.770491 
L 278.377157 140.030393 
L 279.369863 100.287077 
L 280.362569 89.28 
L 281.355275 142.852164 
L 282.347981 138.19448 
L 283.340687 111.773549 
L 284.333393 140.743486 
L 285.326099 94.65988 
L 286.318804 93.975302 
L 287.31151 154.276981 
L 288.304216 194.593684 
L 289.296922 171.01865 
L 290.289628 152.413293 
L 291.282334 169.591794 
L 292.27504 209.687389 
L 293.267746 235.496586 
L 294.260452 257.656637 
L 295.253158 273.064953 
L 296.245864 226.921751 
L 297.23857 207.502144 
L 298.231276 284.922646 
L 299.223981 269.775779 
L 300.216687 326.368462 
L 301.209393 306.271392 
L 302.202099 293.747314 
L 303.194805 290.895757 
L 304.187511 356.141147 
L 305.180217 271.214324 
L 306.172923 307.668158 
L 307.165629 329.583773 
L 308.158335 312.019961 
L 309.151041 325.928924 
L 310.143747 317.085076 
L 311.136453 326.354449 
L 312.129159 356.347605 
L 313.121864 316.055163 
L 314.11457 339.047495 
L 315.107276 341.819334 
L 316.099982 331.228481 
L 317.092688 343.984142 
L 318.085394 338.00417 
L 319.0781 345.340925 
L 320.070806 342.603114 
L 321.063512 343.608156 
L 322.056218 347.004481 
L 323.048924 347.795482 
L 324.04163 349.072647 
L 325.034336 351.745471 
L 326.027041 350.919952 
L 327.019747 353.564362 
L 328.012453 353.339558 
L 329.005159 355.859463 
L 329.997865 356.070546 
L 330.990571 356.841038 
L 331.983277 357.181622 
L 332.975983 358.985379 
L 333.968689 362.426942 
L 334.961395 361.07054 
L 335.954101 361.876127 
L 336.946807 366.889335 
L 337.939513 364.057159 
L 338.932218 367.27189 
L 339.924924 363.028927 
L 340.91763 367.123667 
L 341.910336 368.7638 
L 343.895748 369.627396 
L 344.888454 371.323648 
L 345.88116 372.164199 
L 346.873866 372.643282 
L 347.866572 367.795907 
L 348.859278 375.767851 
L 349.851984 371.116136 
L 350.84469 383.83007 
L 351.837395 362.752032 
L 352.830101 395.368593 
L 353.822807 359.285881 
L 354.815513 392.63596 
L 355.808219 361.927603 
L 356.800925 377.341721 
L 357.793631 374.160441 
L 358.786337 363.488999 
L 359.779043 393.991871 
L 360.771749 358.778579 
L 361.764455 416.827536 
L 362.757161 364.488447 
L 363.749867 415.911064 
L 364.742572 366.267819 
L 365.735278 397.589832 
L 366.727984 373.187435 
L 367.72069 393.981395 
L 368.713396 383.891052 
L 369.706102 393.704147 
L 370.698808 385.264443 
L 371.691514 390.269366 
L 372.68422 387.983333 
L 373.676926 392.901953 
L 374.669632 390.117426 
L 375.662338 389.977824 
L 376.655044 391.224556 
L 377.64775 392.656347 
L 378.640455 393.474914 
L 379.633161 393.239291 
L 380.625867 391.52105 
L 381.618573 393.297508 
L 382.611279 397.43485 
L 383.603985 396.442452 
L 384.596691 393.502124 
L 385.589397 396.60859 
L 386.582103 396.253457 
L 387.574809 397.73436 
L 388.567515 397.903022 
L 389.560221 394.915828 
L 390.552927 395.896854 
L 391.545632 397.512422 
L 392.538338 400.881271 
L 393.531044 400.249326 
L 394.52375 402.063409 
L 395.516456 401.680939 
L 397.501868 399.828536 
L 399.48728 402.10691 
L 400.479986 404.148076 
L 401.472692 403.320901 
L 402.465398 402.943714 
L 403.458104 405.718447 
L 404.450809 403.831191 
L 405.443515 406.36378 
L 406.436221 405.199055 
L 407.428927 404.888646 
L 408.421633 408.903156 
L 409.414339 405.840455 
L 410.407045 413.107771 
L 411.399751 407.005193 
L 412.392457 406.233356 
L 413.385163 407.502601 
L 414.377869 406.850639 
L 415.370575 408.139513 
L 416.363281 413.504645 
L 417.355986 410.687985 
L 418.348692 409.502782 
L 419.341398 410.925997 
L 420.334104 411.968537 
L 421.32681 409.120847 
L 422.319516 411.300899 
L 423.312222 410.462347 
L 424.304928 411.373072 
L 425.297634 411.848804 
L 426.29034 410.527951 
L 427.283046 413.373581 
L 428.275752 409.428171 
L 429.268458 411.348583 
L 430.261163 412.182489 
L 431.253869 414.817056 
L 432.246575 412.565762 
L 433.239281 419.258564 
L 434.231987 418.265402 
L 435.224693 417.521906 
L 436.217399 415.904123 
L 437.210105 411.856163 
L 438.202811 421.803368 
L 439.195517 422.804845 
L 440.188223 410.962955 
L 441.180929 423.127293 
L 442.173635 415.35236 
L 443.166341 420.393718 
L 444.159046 419.852893 
L 445.151752 422.396224 
L 447.137164 420.37961 
L 448.12987 420.124722 
L 449.122576 418.976244 
L 450.115282 420.268548 
L 451.107988 419.978212 
L 452.100694 420.408978 
L 453.0934 419.059302 
L 455.078812 423.395627 
L 456.071518 423.469202 
L 457.064223 423.846961 
L 458.056929 425.373247 
L 459.049635 425.875084 
L 460.042341 420.593808 
L 461.035047 426.227855 
L 462.027753 424.186286 
L 463.020459 427.565186 
L 464.013165 422.78715 
L 465.005871 425.219965 
L 465.998577 424.305746 
L 466.991283 422.776169 
L 467.983989 427.58931 
L 468.976695 424.800105 
L 469.9694 424.559602 
L 470.962106 423.964348 
L 471.954812 427.799077 
L 472.947518 425.947118 
L 473.940224 425.607242 
L 474.93293 426.76673 
L 475.925636 429.068786 
L 476.918342 422.514266 
L 477.911048 431.171475 
L 478.903754 432.193579 
L 479.89646 424.136233 
L 480.889166 432.902056 
L 481.881872 427.601056 
L 482.874577 433.716946 
L 483.867283 426.795835 
L 484.859989 431.097547 
L 485.852695 430.573893 
L 486.845401 432.076646 
L 487.838107 431.716739 
L 488.830813 432.8556 
L 490.816225 432.03512 
L 491.808931 430.110583 
L 492.801637 433.602262 
L 493.794343 428.790228 
L 494.787049 435.454404 
L 495.779754 434.441664 
L 496.77246 431.873682 
L 497.765166 443.576967 
L 498.757872 432.601998 
L 499.750578 436.358823 
L 500.743284 433.724813 
L 501.73599 429.858904 
L 502.728696 434.820217 
L 503.721402 438.932668 
L 504.714108 438.918202 
L 505.706814 429.032853 
L 506.69952 438.736453 
L 507.692226 437.03216 
L 508.684932 439.524687 
L 509.677637 440.724769 
L 510.670343 434.081655 
L 511.663049 435.067934 
L 512.655755 440.849498 
L 513.648461 433.476181 
L 514.641167 434.039094 
L 515.633873 438.686123 
L 516.626579 427.866477 
L 517.619285 438.517978 
L 518.611991 440.420869 
L 519.604697 435.702832 
L 520.597403 447.786975 
L 521.590109 437.292632 
L 522.582814 455.537452 
L 523.57552 445.176931 
L 524.568226 444.345032 
L 525.560932 444.377375 
L 526.553638 438.562231 
L 527.546344 449.025854 
L 528.53905 445.638558 
L 529.531756 439.808392 
L 530.524462 446.691999 
L 531.517168 438.908322 
L 532.509874 444.331966 
L 533.50258 446.591356 
L 535.487991 439.867657 
L 536.480697 443.155785 
L 537.473403 437.668985 
L 538.466109 447.911438 
L 539.458815 434.481234 
L 540.451521 432.742682 
L 541.444227 437.181004 
L 542.436933 447.977108 
L 543.429639 434.327844 
L 544.422345 444.95053 
L 545.415051 448.186967 
L 546.407757 453.61927 
L 547.400463 450.77454 
L 548.393168 445.930197 
L 549.385874 445.838719 
L 550.37858 447.919812 
L 551.371286 446.911974 
L 552.363992 440.949621 
L 553.356698 449.133171 
L 554.349404 450.087604 
L 555.34211 451.858823 
L 556.334816 443.311417 
L 557.327522 450.441805 
L 558.320228 444.312329 
L 559.312934 440.718403 
L 560.30564 447.331603 
L 561.298345 450.870048 
L 562.291051 445.269319 
L 563.283757 448.468077 
L 564.276463 447.122856 
L 565.269169 443.994991 
L 566.261875 439.969473 
L 567.254581 445.328486 
L 568.247287 447.469245 
L 569.239993 447.900113 
L 570.232699 446.178358 
L 571.225405 445.999841 
L 572.218111 448.881012 
L 573.210817 442.856223 
L 574.203523 446.469944 
L 575.196228 447.767888 
L 576.188934 451.771044 
L 577.18164 453.734192 
L 578.174346 447.640544 
L 579.167052 453.962456 
L 580.159758 451.943098 
L 581.152464 453.494348 
L 582.14517 448.443252 
L 583.137876 447.536609 
L 584.130582 452.013212 
L 585.123288 448.930117 
L 586.115994 449.912792 
L 587.1087 451.194262 
L 588.101405 446.090015 
L 589.094111 446.241354 
L 590.086817 452.013786 
L 591.079523 443.996591 
L 592.072229 445.19475 
L 593.064935 450.814597 
L 594.057641 453.451958 
L 595.050347 455.221835 
L 596.043053 448.176627 
L 597.035759 451.356867 
L 598.028465 452.041167 
L 599.021171 450.750609 
L 600.013877 453.795927 
L 601.006582 449.436661 
L 601.999288 454.282333 
L 602.991994 453.173094 
L 603.9847 450.472029 
L 604.977406 453.912835 
L 605.970112 456.618621 
L 606.962818 454.212375 
L 607.955524 454.384918 
L 608.94823 453.639089 
L 609.940936 456.937696 
L 610.933642 455.780161 
L 611.926348 456.754941 
L 612.919054 456.418245 
L 613.911759 453.440483 
L 614.904465 452.5001 
L 615.897171 457.659255 
L 616.889877 454.716304 
L 617.882583 457.854157 
L 618.875289 455.496162 
L 619.867995 454.987132 
L 620.860701 455.96237 
L 621.853407 455.054953 
L 622.846113 455.220875 
L 623.838819 454.365025 
L 624.831525 458.578871 
L 625.824231 456.010629 
L 626.816936 456.930679 
L 627.809642 457.585228 
L 629.795054 457.436569 
L 630.78776 456.74595 
L 631.780466 456.645886 
L 632.773172 457.229984 
L 633.765878 459.974511 
L 634.758584 459.185152 
L 635.75129 461.220881 
L 636.743996 457.500495 
L 637.736702 458.47404 
L 638.729408 458.424067 
L 640.714819 458.688621 
L 641.707525 458.475844 
L 642.700231 461.688328 
L 643.692937 459.383979 
L 644.685643 459.051429 
L 646.671055 459.269675 
L 647.663761 457.674914 
L 648.656467 460.060802 
L 649.649173 462.0268 
L 650.641879 459.309639 
L 651.634585 460.148297 
L 653.619996 459.824298 
L 654.612702 461.639769 
L 655.605408 459.003208 
L 656.598114 460.658876 
L 659.576232 460.730051 
L 660.568938 461.214462 
L 661.561644 460.453558 
L 662.55435 462.253488 
L 663.547056 462.061718 
L 664.539762 462.141904 
L 665.532468 463.066856 
L 666.525173 461.930963 
L 668.510585 462.081716 
L 669.503291 462.39153 
L 670.495997 461.723269 
L 671.488703 462.247661 
L 672.481409 463.0991 
L 673.474115 462.537061 
L 674.466821 462.546657 
L 675.459527 463.333123 
L 676.452233 463.765414 
L 677.444939 463.061439 
L 678.437645 462.889935 
L 679.43035 464.072783 
L 680.423056 464.142704 
L 681.415762 463.382537 
L 682.408468 463.807025 
L 683.401174 464.732465 
L 684.39388 464.027814 
L 685.386586 464.617776 
L 686.379292 464.466654 
L 687.371998 465.031961 
L 688.364704 465.226606 
L 689.35741 465.040439 
L 692.335527 465.315992 
L 693.328233 464.979482 
L 694.320939 465.559104 
L 695.313645 465.083951 
L 696.306351 465.290648 
L 697.299057 465.339065 
L 698.291763 466.228976 
L 699.284469 466.303584 
L 700.277175 466.207682 
L 701.269881 465.978543 
L 702.262587 465.522116 
L 703.255293 466.640946 
L 704.247999 466.391743 
L 705.240705 466.892322 
L 706.23341 466.774897 
L 707.226116 466.405256 
L 708.218822 466.437493 
L 709.211528 467.144632 
L 710.204234 467.207453 
L 711.19694 467.528495 
L 712.189646 467.35519 
L 713.182352 467.51512 
L 714.175058 467.857481 
L 715.167764 467.70809 
L 717.153176 467.948804 
L 718.145882 468.027807 
L 721.123999 468.538214 
L 722.116705 468.259473 
L 723.109411 468.23544 
L 724.102117 468.563436 
L 725.094823 468.41079 
L 726.087529 468.924428 
L 727.080235 468.848094 
L 728.072941 469.343921 
L 729.065647 468.997588 
L 730.058353 469.267443 
L 731.051059 469.199462 
L 732.043764 469.712629 
L 733.03647 469.473358 
L 734.029176 469.688218 
L 735.021882 469.596156 
L 736.014588 470.229888 
L 737.007294 469.676741 
L 738 469.763869 
L 738.992706 470.436984 
L 739.985412 470.017884 
L 740.978118 470.556997 
L 742.96353 470.478969 
L 743.956236 470.608521 
L 744.948941 470.255174 
L 745.941647 470.782739 
L 746.934353 470.795036 
L 747.927059 471.152815 
L 748.919765 471.377969 
L 749.912471 471.193129 
L 750.905177 471.524906 
L 751.897883 471.353684 
L 752.890589 471.527932 
L 753.883295 471.423019 
L 755.868707 471.947501 
L 756.861413 472.164107 
L 757.854118 471.663227 
L 758.846824 472.222892 
L 759.83953 472.235091 
L 761.824942 472.07803 
L 762.817648 472.397041 
L 764.80306 472.645167 
L 765.795766 472.553873 
L 766.788472 472.910257 
L 767.781178 472.708229 
L 768.773884 473.14794 
L 769.76659 473.016589 
L 770.759295 473.335697 
L 771.752001 473.364778 
L 772.744707 473.036987 
L 773.737413 473.401005 
L 774.730119 473.326577 
L 775.722825 473.837319 
L 776.715531 473.576226 
L 778.700943 473.51147 
L 779.693649 474.208316 
L 780.686355 473.729172 
L 781.679061 474.039647 
L 783.664473 474.039927 
L 785.649884 474.282152 
L 787.635296 474.291397 
L 788.628002 474.662186 
L 790.613414 474.693717 
L 791.60612 475.116798 
L 792.598826 475.086325 
L 793.591532 474.922479 
L 794.584238 475.472253 
L 795.576944 475.024943 
L 796.56965 475.362214 
L 797.562355 475.513206 
L 798.555061 475.070741 
L 799.547767 475.605487 
L 800.540473 475.405064 
L 801.533179 475.706109 
L 802.525885 475.714786 
L 803.518591 476.117049 
L 804.511297 475.765795 
L 805.504003 475.871243 
L 806.496709 476.509365 
L 807.489415 476.14005 
L 808.482121 476.360958 
L 809.474827 476.119427 
L 811.460238 476.580802 
L 813.44565 476.423933 
L 814.438356 476.517539 
L 815.431062 476.458294 
L 816.423768 477.111753 
L 817.416474 477.04731 
L 818.40918 477.195327 
L 819.401886 477.11208 
L 820.394592 477.344287 
L 821.387298 477.051709 
L 822.380004 477.563976 
L 823.372709 477.514222 
L 824.365415 477.716152 
L 825.358121 478.073685 
L 826.350827 478.096691 
L 827.343533 477.587043 
L 828.336239 477.805008 
L 829.328945 478.252479 
L 830.321651 477.825797 
L 831.314357 478.200207 
L 832.307063 477.976215 
L 833.299769 478.062478 
L 834.292475 478.430859 
L 835.285181 478.608241 
L 836.277886 478.362451 
L 837.270592 478.415506 
L 838.263298 478.327058 
L 839.256004 478.414529 
L 840.24871 478.773141 
L 841.241416 478.306249 
L 842.234122 478.944055 
L 843.226828 478.696215 
L 844.219534 479.001515 
L 845.21224 478.843636 
L 846.204946 479.31213 
L 847.197652 479.12332 
L 849.183064 479.435114 
L 851.168475 479.547485 
L 852.161181 479.641704 
L 853.153887 479.59728 
L 854.146593 479.94632 
L 855.139299 479.349984 
L 856.132005 479.477113 
L 857.124711 480.004163 
L 858.117417 479.870301 
L 859.110123 479.987643 
L 860.102829 479.839087 
L 861.095535 480.427297 
L 862.088241 479.967071 
L 863.080946 479.852895 
L 864.073652 480.331852 
L 865.066358 480.415783 
L 866.059064 480.049225 
L 867.05177 480.667374 
L 868.044476 480.39572 
L 869.037182 480.965492 
L 871.022594 480.738137 
L 873.008006 480.689513 
L 874.000712 480.977127 
L 874.993418 480.690028 
L 875.986123 480.909807 
L 876.978829 481.334071 
L 877.971535 481.532421 
L 878.964241 481.190817 
L 879.956947 481.125912 
L 880.949653 481.421748 
L 881.942359 481.563646 
L 882.935065 481.354533 
L 883.927771 481.30751 
L 884.920477 481.805659 
L 885.913183 482.070839 
L 886.905889 481.732827 
L 888.8913 481.744635 
L 889.884006 482.06302 
L 890.876712 481.85023 
L 891.869418 482.060998 
L 892.862124 481.827774 
L 893.85483 482.04805 
L 894.847536 482.024384 
L 896.832948 482.390848 
L 897.825654 482.857662 
L 900.803772 482.561226 
L 903.781889 482.697929 
L 904.774595 482.546331 
L 905.767301 482.834807 
L 906.760007 483.305912 
L 907.752713 482.661851 
L 908.745419 483.142091 
L 909.738125 482.890373 
L 910.730831 483.203403 
L 911.723537 483.016202 
L 912.716243 483.215949 
L 913.708949 483.649575 
L 914.701655 483.156308 
L 915.69436 483.141835 
L 916.687066 483.709682 
L 917.679772 483.048381 
L 918.672478 483.624589 
L 919.665184 483.444076 
L 920.65789 483.858549 
L 921.650596 483.908059 
L 922.643302 483.75575 
L 923.636008 484.051097 
L 924.628714 483.681743 
L 925.62142 484.070571 
L 926.614126 484.015052 
L 927.606832 484.306701 
L 928.599537 483.565446 
L 929.592243 484.130872 
L 930.584949 484.070602 
L 931.577655 484.280993 
L 932.570361 484.253483 
L 933.563067 484.412646 
L 935.548479 484.329177 
L 936.541185 484.401193 
L 937.533891 484.162891 
L 938.526597 484.894277 
L 939.519303 484.359026 
L 940.512009 484.756881 
L 942.49742 484.729563 
L 943.490126 485.180402 
L 944.482832 484.61191 
L 945.475538 484.899708 
L 946.468244 485.045861 
L 947.46095 484.883505 
L 948.453656 484.902634 
L 949.446362 485.290186 
L 950.439068 485.042402 
L 951.431774 485.367156 
L 952.42448 484.997958 
L 954.409891 485.611635 
L 957.388009 485.214064 
L 958.380715 485.203814 
L 959.373421 485.077265 
L 960.366127 485.623882 
L 961.358833 485.689442 
L 962.351539 486.106251 
L 963.344245 486.02714 
L 964.336951 485.444429 
L 965.329657 485.882101 
L 966.322363 485.781783 
L 967.315068 486.083033 
L 968.307774 485.975358 
L 969.30048 486.481897 
L 970.293186 486.121511 
L 971.285892 485.939264 
L 972.278598 486.55549 
L 973.271304 486.38741 
L 974.26401 486.406353 
L 975.256716 486.112884 
L 977.242128 486.519819 
L 979.22754 486.450027 
L 980.220246 486.610036 
L 981.212951 486.634164 
L 982.205657 486.909787 
L 983.198363 486.408594 
L 984.191069 486.941775 
L 985.183775 486.489567 
L 986.176481 486.625862 
L 988.161893 486.372783 
L 989.154599 486.81105 
L 991.140011 486.78364 
L 992.132717 487.096598 
L 993.125423 487.036896 
L 994.118128 486.753263 
L 996.10354 487.168944 
L 998.088952 486.96676 
L 1000.074364 487.311767 
L 1001.06707 486.886325 
L 1002.059776 487.189835 
L 1003.052482 487.319607 
L 1005.037894 486.952205 
L 1007.023305 487.67471 
L 1009.008717 487.948089 
L 1010.001423 487.422483 
L 1010.994129 487.705042 
L 1011.986835 488.12091 
L 1012.979541 488.084668 
L 1013.972247 487.861026 
L 1014.964953 487.814561 
L 1015.957659 487.651568 
L 1016.950365 487.963554 
L 1017.943071 487.783847 
L 1018.935777 487.911977 
L 1019.928482 487.878145 
L 1020.921188 488.210988 
L 1021.913894 488.012277 
L 1022.9066 487.675418 
L 1023.899306 487.820759 
L 1024.892012 488.285134 
L 1025.884718 488.313053 
L 1026.877424 488.072088 
L 1028.862836 488.277834 
L 1029.855542 488.523351 
L 1030.848248 488.080234 
L 1031.840954 488.315841 
L 1032.833659 488.420985 
L 1033.826365 488.920513 
L 1034.819071 488.511648 
L 1036.804483 488.561354 
L 1037.797189 488.277339 
L 1038.789895 488.819333 
L 1039.782601 488.657668 
L 1040.775307 488.939346 
L 1041.768013 488.515096 
L 1042.760719 488.750648 
L 1043.753425 488.534075 
L 1044.746131 488.774542 
L 1045.738837 488.715639 
L 1046.731542 488.891207 
L 1047.724248 488.796527 
L 1048.716954 489.370485 
L 1049.70966 489.251652 
L 1050.702366 489.284784 
L 1051.695072 488.832586 
L 1054.67319 489.431499 
L 1055.665896 489.391744 
L 1056.658602 489.177183 
L 1057.651308 489.368668 
L 1058.644014 488.951009 
L 1059.636719 489.315753 
L 1062.614837 489.48089 
L 1063.607543 490.084957 
L 1064.600249 489.474555 
L 1067.578367 489.786564 
L 1068.571073 489.432995 
L 1069.563779 489.801555 
L 1070.556485 489.508671 
L 1072.541896 489.753939 
L 1073.534602 489.583646 
L 1074.527308 489.755087 
L 1075.520014 490.149762 
L 1076.51272 489.679303 
L 1077.505426 489.42963 
L 1078.498132 489.962575 
L 1079.490838 489.776037 
L 1080.483544 489.924536 
L 1081.47625 489.441421 
L 1082.468956 490.239686 
L 1083.461662 489.587515 
L 1084.454368 490.101619 
L 1085.447073 490.165853 
L 1087.432485 489.901682 
L 1088.425191 490.287705 
L 1090.410603 490.389548 
L 1092.396015 490.413981 
L 1093.388721 490.138563 
L 1094.381427 490.249084 
L 1095.374133 490.221333 
L 1096.366839 490.079575 
L 1097.359545 490.436067 
L 1098.35225 490.458599 
L 1099.344956 490.687905 
L 1100.337662 490.1922 
L 1101.330368 490.542226 
L 1102.323074 490.321618 
L 1103.31578 490.435072 
L 1104.308486 490.422888 
L 1107.286604 490.790138 
L 1108.27931 490.700446 
L 1110.264722 490.251348 
L 1112.250133 490.813143 
L 1113.242839 490.596992 
L 1114.235545 490.600391 
L 1115.228251 490.792919 
L 1116.220957 490.686668 
L 1119.199075 490.832339 
L 1120.191781 490.689535 
L 1121.184487 490.965751 
L 1122.177193 490.388047 
L 1123.169899 491.191005 
L 1124.162605 490.855408 
L 1125.15531 490.642331 
L 1126.148016 491.059903 
L 1128.133428 491.453575 
L 1129.126134 490.551812 
L 1130.11884 490.74039 
L 1131.111546 490.575506 
L 1132.104252 490.829221 
L 1133.096958 490.753683 
L 1134.089664 491.530961 
L 1135.08237 491.090059 
L 1137.067782 491.181727 
L 1138.060487 491.00512 
L 1139.053193 491.202237 
L 1140.045899 491.007058 
L 1142.031311 491.307216 
L 1143.024017 491.129873 
L 1144.016723 491.069473 
L 1145.009429 491.397893 
L 1146.002135 491.289834 
L 1146.994841 491.406311 
L 1147.987547 491.139781 
L 1148.980253 491.289033 
L 1149.972959 491.21296 
L 1151.95837 491.896683 
L 1152.951076 491.051754 
L 1153.943782 491.576478 
L 1154.936488 491.411103 
L 1155.929194 491.630879 
L 1156.9219 491.285536 
L 1157.914606 491.291195 
L 1158.907312 491.411599 
L 1159.900018 491.336134 
L 1160.892724 491.660899 
L 1161.88543 491.413748 
L 1162.878136 491.515167 
L 1164.863547 491.387392 
L 1165.856253 491.542524 
L 1166.848959 491.912277 
L 1167.841665 491.858746 
L 1168.834371 491.599572 
L 1169.827077 491.543206 
L 1170.819783 491.326784 
L 1171.812489 491.474559 
L 1172.805195 491.815152 
L 1173.797901 491.371884 
L 1174.790607 491.963719 
L 1175.783313 491.33123 
L 1176.776019 491.702465 
L 1177.768724 491.57379 
L 1178.76143 491.980315 
L 1179.754136 491.622001 
L 1180.746842 491.684086 
L 1181.739548 492.127256 
L 1182.732254 491.511762 
L 1183.72496 491.650374 
L 1184.717666 491.518204 
L 1185.710372 491.585745 
L 1186.703078 491.364586 
L 1188.68849 491.768864 
L 1191.666607 491.88117 
L 1192.659313 491.60238 
L 1193.652019 491.66109 
L 1194.644725 491.530161 
L 1195.637431 492.365373 
L 1196.630137 491.99011 
L 1197.622843 491.991914 
L 1198.615549 491.692159 
L 1199.608255 491.545094 
L 1200.600961 492.15843 
L 1201.593667 491.800952 
L 1203.579078 492.00875 
L 1204.571784 491.773464 
L 1205.56449 491.832884 
L 1206.557196 492.116796 
L 1207.549902 491.568351 
L 1208.542608 492.085507 
L 1210.52802 491.907582 
L 1212.513432 491.695457 
L 1213.506138 492.280393 
L 1215.49155 491.681261 
L 1217.476961 492.004929 
L 1218.469667 492.021742 
L 1219.462373 492.178804 
L 1220.455079 491.68326 
L 1221.447785 492.187821 
L 1222.440491 491.950873 
L 1223.433197 492.138447 
L 1225.418609 491.741021 
L 1227.404021 491.669601 
L 1228.396727 492.48 
L 1229.389432 492.011996 
L 1230.382138 491.932177 
L 1231.374844 492.323 
L 1232.36755 491.854518 
L 1233.360256 491.991459 
L 1234.352962 491.69329 
L 1235.345668 491.847484 
L 1236.338374 492.412123 
L 1238.323786 491.940652 
L 1239.316492 492.01925 
L 1240.309198 491.634902 
L 1241.301904 491.71503 
L 1242.29461 492.025247 
L 1243.287315 491.407609 
L 1244.280021 492.228336 
L 1245.272727 491.672864 
L 1245.272727 491.672864 
" clip-path="url(#pe56569ca7f)" style="fill: none; stroke: #1f77b4; stroke-width: 1.5; stroke-linecap: square"/>
   </g>
   <g id="patch_3">
    <path d="M 180 512.64 
L 180 69.12 
" style="fill: none; stroke: #000000; stroke-width: 0.8; stroke-linejoin: miter; stroke-linecap: square"/>
   </g>
   <g id="patch_4">
    <path d="M 1296 512.64 
L 1296 69.12 
" style="fill: none; stroke: #000000; stroke-width: 0.8; stroke-linejoin: miter; stroke-linecap: square"/>
   </g>
   <g id="patch_5">
    <path d="M 180 512.64 
L 1296 512.64 
" style="fill: none; stroke: #000000; stroke-width: 0.8; stroke-linejoin: miter; stroke-linecap: square"/>
   </g>
   <g id="patch_6">
    <path d="M 180 69.12 
L 1296 69.12 
" style="fill: none; stroke: #000000; stroke-width: 0.8; stroke-linejoin: miter; stroke-linecap: square"/>
   </g>
   <g id="text_14">
    <!-- source11-receiver24 -->
    <g transform="translate(532.175 60.80125) scale(0.4 -0.4)">
     <defs>
      <path id="DejaVuSans-73" d="M 2834 3397 
L 2834 2853 
Q 2591 2978 2328 3040 
Q 2066 3103 1784 3103 
Q 1356 3103 1142 2972 
Q 928 2841 928 2578 
Q 928 2378 1081 2264 
Q 1234 2150 1697 2047 
L 1894 2003 
Q 2506 1872 2764 1633 
Q 3022 1394 3022 966 
Q 3022 478 2636 193 
Q 2250 -91 1575 -91 
Q 1294 -91 989 -36 
Q 684 19 347 128 
L 347 722 
Q 666 556 975 473 
Q 1284 391 1588 391 
Q 1994 391 2212 530 
Q 2431 669 2431 922 
Q 2431 1156 2273 1281 
Q 2116 1406 1581 1522 
L 1381 1569 
Q 847 1681 609 1914 
Q 372 2147 372 2553 
Q 372 3047 722 3315 
Q 1072 3584 1716 3584 
Q 2034 3584 2315 3537 
Q 2597 3491 2834 3397 
z
" transform="scale(0.015625)"/>
      <path id="DejaVuSans-6f" d="M 1959 3097 
Q 1497 3097 1228 2736 
Q 959 2375 959 1747 
Q 959 1119 1226 758 
Q 1494 397 1959 397 
Q 2419 397 2687 759 
Q 2956 1122 2956 1747 
Q 2956 2369 2687 2733 
Q 2419 3097 1959 3097 
z
M 1959 3584 
Q 2709 3584 3137 3096 
Q 3566 2609 3566 1747 
Q 3566 888 3137 398 
Q 2709 -91 1959 -91 
Q 1206 -91 779 398 
Q 353 888 353 1747 
Q 353 2609 779 3096 
Q 1206 3584 1959 3584 
z
" transform="scale(0.015625)"/>
      <path id="DejaVuSans-75" d="M 544 1381 
L 544 3500 
L 1119 3500 
L 1119 1403 
Q 1119 906 1312 657 
Q 1506 409 1894 409 
Q 2359 409 2629 706 
Q 2900 1003 2900 1516 
L 2900 3500 
L 3475 3500 
L 3475 0 
L 2900 0 
L 2900 538 
Q 2691 219 2414 64 
Q 2138 -91 1772 -91 
Q 1169 -91 856 284 
Q 544 659 544 1381 
z
M 1991 3584 
L 1991 3584 
z
" transform="scale(0.015625)"/>
      <path id="DejaVuSans-72" d="M 2631 2963 
Q 2534 3019 2420 3045 
Q 2306 3072 2169 3072 
Q 1681 3072 1420 2755 
Q 1159 2438 1159 1844 
L 1159 0 
L 581 0 
L 581 3500 
L 1159 3500 
L 1159 2956 
Q 1341 3275 1631 3429 
Q 1922 3584 2338 3584 
Q 2397 3584 2469 3576 
Q 2541 3569 2628 3553 
L 2631 2963 
z
" transform="scale(0.015625)"/>
      <path id="DejaVuSans-63" d="M 3122 3366 
L 3122 2828 
Q 2878 2963 2633 3030 
Q 2388 3097 2138 3097 
Q 1578 3097 1268 2742 
Q 959 2388 959 1747 
Q 959 1106 1268 751 
Q 1578 397 2138 397 
Q 2388 397 2633 464 
Q 2878 531 3122 666 
L 3122 134 
Q 2881 22 2623 -34 
Q 2366 -91 2075 -91 
Q 1284 -91 818 406 
Q 353 903 353 1747 
Q 353 2603 823 3093 
Q 1294 3584 2113 3584 
Q 2378 3584 2631 3529 
Q 2884 3475 3122 3366 
z
" transform="scale(0.015625)"/>
      <path id="DejaVuSans-65" d="M 3597 1894 
L 3597 1613 
L 953 1613 
Q 991 1019 1311 708 
Q 1631 397 2203 397 
Q 2534 397 2845 478 
Q 3156 559 3463 722 
L 3463 178 
Q 3153 47 2828 -22 
Q 2503 -91 2169 -91 
Q 1331 -91 842 396 
Q 353 884 353 1716 
Q 353 2575 817 3079 
Q 1281 3584 2069 3584 
Q 2775 3584 3186 3129 
Q 3597 2675 3597 1894 
z
M 3022 2063 
Q 3016 2534 2758 2815 
Q 2500 3097 2075 3097 
Q 1594 3097 1305 2825 
Q 1016 2553 972 2059 
L 3022 2063 
z
" transform="scale(0.015625)"/>
      <path id="DejaVuSans-2d" d="M 313 2009 
L 1997 2009 
L 1997 1497 
L 313 1497 
L 313 2009 
z
" transform="scale(0.015625)"/>
      <path id="DejaVuSans-69" d="M 603 3500 
L 1178 3500 
L 1178 0 
L 603 0 
L 603 3500 
z
M 603 4863 
L 1178 4863 
L 1178 4134 
L 603 4134 
L 603 4863 
z
" transform="scale(0.015625)"/>
      <path id="DejaVuSans-76" d="M 191 3500 
L 800 3500 
L 1894 563 
L 2988 3500 
L 3597 3500 
L 2284 0 
L 1503 0 
L 191 3500 
z
" transform="scale(0.015625)"/>
     </defs>
     <use xlink:href="#DejaVuSans-73"/>
     <use xlink:href="#DejaVuSans-6f" x="52.099609"/>
     <use xlink:href="#DejaVuSans-75" x="113.28125"/>
     <use xlink:href="#DejaVuSans-72" x="176.660156"/>
     <use xlink:href="#DejaVuSans-63" x="215.523438"/>
     <use xlink:href="#DejaVuSans-65" x="270.503906"/>
     <use xlink:href="#DejaVuSans-31" x="332.027344"/>
     <use xlink:href="#DejaVuSans-31" x="395.650391"/>
     <use xlink:href="#DejaVuSans-2d" x="459.273438"/>
     <use xlink:href="#DejaVuSans-72" x="495.357422"/>
     <use xlink:href="#DejaVuSans-65" x="534.220703"/>
     <use xlink:href="#DejaVuSans-63" x="595.744141"/>
     <use xlink:href="#DejaVuSans-65" x="650.724609"/>
     <use xlink:href="#DejaVuSans-69" x="712.248047"/>
     <use xlink:href="#DejaVuSans-76" x="740.03125"/>
     <use xlink:href="#DejaVuSans-65" x="799.210938"/>
     <use xlink:href="#DejaVuSans-72" x="860.734375"/>
     <use xlink:href="#DejaVuSans-32" x="901.847656"/>
     <use xlink:href="#DejaVuSans-34" x="965.470703"/>
    </g>
   </g>
  </g>
 </g>
 <defs>
  <clipPath id="pe56569ca7f">
   <rect x="180" y="69.12" width="1116" height="443.52"/>
  </clipPath>
 </defs>
</svg>
