<?xml version="1.0" encoding="utf-8" standalone="no"?>
<!DOCTYPE svg PUBLIC "-//W3C//DTD SVG 1.1//EN"
  "http://www.w3.org/Graphics/SVG/1.1/DTD/svg11.dtd">
<svg xmlns:xlink="http://www.w3.org/1999/xlink" width="1440pt" height="576pt" viewBox="0 0 1440 576" xmlns="http://www.w3.org/2000/svg" version="1.1">
 <metadata>
  <rdf:RDF xmlns:dc="http://purl.org/dc/elements/1.1/" xmlns:cc="http://creativecommons.org/ns#" xmlns:rdf="http://www.w3.org/1999/02/22-rdf-syntax-ns#">
   <cc:Work>
    <dc:type rdf:resource="http://purl.org/dc/dcmitype/StillImage"/>
    <dc:date>2024-05-22T04:49:59.038771</dc:date>
    <dc:format>image/svg+xml</dc:format>
    <dc:creator>
     <cc:Agent>
      <dc:title>Matplotlib v3.8.3, https://matplotlib.org/</dc:title>
     </cc:Agent>
    </dc:creator>
   </cc:Work>
  </rdf:RDF>
 </metadata>
 <defs>
  <style type="text/css">*{stroke-linejoin: round; stroke-linecap: butt}</style>
 </defs>
 <g id="figure_1">
  <g id="patch_1">
   <path d="M 0 576 
L 1440 576 
L 1440 0 
L 0 0 
z
" style="fill: #ffffff"/>
  </g>
  <g id="axes_1">
   <g id="patch_2">
    <path d="M 180 512.64 
L 1296 512.64 
L 1296 69.12 
L 180 69.12 
z
" style="fill: #ffffff"/>
   </g>
   <g id="matplotlib.axis_1">
    <g id="xtick_1">
     <g id="line2d_1">
      <defs>
       <path id="m6231775fd3" d="M 0 0 
L 0 3.5 
" style="stroke: #000000; stroke-width: 0.8"/>
      </defs>
      <g>
       <use xlink:href="#m6231775fd3" x="229.734567" y="512.64" style="stroke: #000000; stroke-width: 0.8"/>
      </g>
     </g>
     <g id="text_1">
      <!-- 0 -->
      <g transform="translate(226.553317 527.238438) scale(0.1 -0.1)">
       <defs>
        <path id="DejaVuSans-30" d="M 2034 4250 
Q 1547 4250 1301 3770 
Q 1056 3291 1056 2328 
Q 1056 1369 1301 889 
Q 1547 409 2034 409 
Q 2525 409 2770 889 
Q 3016 1369 3016 2328 
Q 3016 3291 2770 3770 
Q 2525 4250 2034 4250 
z
M 2034 4750 
Q 2819 4750 3233 4129 
Q 3647 3509 3647 2328 
Q 3647 1150 3233 529 
Q 2819 -91 2034 -91 
Q 1250 -91 836 529 
Q 422 1150 422 2328 
Q 422 3509 836 4129 
Q 1250 4750 2034 4750 
z
" transform="scale(0.015625)"/>
       </defs>
       <use xlink:href="#DejaVuSans-30"/>
      </g>
     </g>
    </g>
    <g id="xtick_2">
     <g id="line2d_2">
      <g>
       <use xlink:href="#m6231775fd3" x="433.04074" y="512.64" style="stroke: #000000; stroke-width: 0.8"/>
      </g>
     </g>
     <g id="text_2">
      <!-- 500 -->
      <g transform="translate(423.49699 527.238438) scale(0.1 -0.1)">
       <defs>
        <path id="DejaVuSans-35" d="M 691 4666 
L 3169 4666 
L 3169 4134 
L 1269 4134 
L 1269 2991 
Q 1406 3038 1543 3061 
Q 1681 3084 1819 3084 
Q 2600 3084 3056 2656 
Q 3513 2228 3513 1497 
Q 3513 744 3044 326 
Q 2575 -91 1722 -91 
Q 1428 -91 1123 -41 
Q 819 9 494 109 
L 494 744 
Q 775 591 1075 516 
Q 1375 441 1709 441 
Q 2250 441 2565 725 
Q 2881 1009 2881 1497 
Q 2881 1984 2565 2268 
Q 2250 2553 1709 2553 
Q 1456 2553 1204 2497 
Q 953 2441 691 2322 
L 691 4666 
z
" transform="scale(0.015625)"/>
       </defs>
       <use xlink:href="#DejaVuSans-35"/>
       <use xlink:href="#DejaVuSans-30" x="63.623047"/>
       <use xlink:href="#DejaVuSans-30" x="127.246094"/>
      </g>
     </g>
    </g>
    <g id="xtick_3">
     <g id="line2d_3">
      <g>
       <use xlink:href="#m6231775fd3" x="636.346913" y="512.64" style="stroke: #000000; stroke-width: 0.8"/>
      </g>
     </g>
     <g id="text_3">
      <!-- 1000 -->
      <g transform="translate(623.621913 527.238438) scale(0.1 -0.1)">
       <defs>
        <path id="DejaVuSans-31" d="M 794 531 
L 1825 531 
L 1825 4091 
L 703 3866 
L 703 4441 
L 1819 4666 
L 2450 4666 
L 2450 531 
L 3481 531 
L 3481 0 
L 794 0 
L 794 531 
z
" transform="scale(0.015625)"/>
       </defs>
       <use xlink:href="#DejaVuSans-31"/>
       <use xlink:href="#DejaVuSans-30" x="63.623047"/>
       <use xlink:href="#DejaVuSans-30" x="127.246094"/>
       <use xlink:href="#DejaVuSans-30" x="190.869141"/>
      </g>
     </g>
    </g>
    <g id="xtick_4">
     <g id="line2d_4">
      <g>
       <use xlink:href="#m6231775fd3" x="839.653087" y="512.64" style="stroke: #000000; stroke-width: 0.8"/>
      </g>
     </g>
     <g id="text_4">
      <!-- 1500 -->
      <g transform="translate(826.928087 527.238438) scale(0.1 -0.1)">
       <use xlink:href="#DejaVuSans-31"/>
       <use xlink:href="#DejaVuSans-35" x="63.623047"/>
       <use xlink:href="#DejaVuSans-30" x="127.246094"/>
       <use xlink:href="#DejaVuSans-30" x="190.869141"/>
      </g>
     </g>
    </g>
    <g id="xtick_5">
     <g id="line2d_5">
      <g>
       <use xlink:href="#m6231775fd3" x="1042.95926" y="512.64" style="stroke: #000000; stroke-width: 0.8"/>
      </g>
     </g>
     <g id="text_5">
      <!-- 2000 -->
      <g transform="translate(1030.23426 527.238438) scale(0.1 -0.1)">
       <defs>
        <path id="DejaVuSans-32" d="M 1228 531 
L 3431 531 
L 3431 0 
L 469 0 
L 469 531 
Q 828 903 1448 1529 
Q 2069 2156 2228 2338 
Q 2531 2678 2651 2914 
Q 2772 3150 2772 3378 
Q 2772 3750 2511 3984 
Q 2250 4219 1831 4219 
Q 1534 4219 1204 4116 
Q 875 4013 500 3803 
L 500 4441 
Q 881 4594 1212 4672 
Q 1544 4750 1819 4750 
Q 2544 4750 2975 4387 
Q 3406 4025 3406 3419 
Q 3406 3131 3298 2873 
Q 3191 2616 2906 2266 
Q 2828 2175 2409 1742 
Q 1991 1309 1228 531 
z
" transform="scale(0.015625)"/>
       </defs>
       <use xlink:href="#DejaVuSans-32"/>
       <use xlink:href="#DejaVuSans-30" x="63.623047"/>
       <use xlink:href="#DejaVuSans-30" x="127.246094"/>
       <use xlink:href="#DejaVuSans-30" x="190.869141"/>
      </g>
     </g>
    </g>
    <g id="xtick_6">
     <g id="line2d_6">
      <g>
       <use xlink:href="#m6231775fd3" x="1246.265433" y="512.64" style="stroke: #000000; stroke-width: 0.8"/>
      </g>
     </g>
     <g id="text_6">
      <!-- 2500 -->
      <g transform="translate(1233.540433 527.238438) scale(0.1 -0.1)">
       <use xlink:href="#DejaVuSans-32"/>
       <use xlink:href="#DejaVuSans-35" x="63.623047"/>
       <use xlink:href="#DejaVuSans-30" x="127.246094"/>
       <use xlink:href="#DejaVuSans-30" x="190.869141"/>
      </g>
     </g>
    </g>
   </g>
   <g id="matplotlib.axis_2">
    <g id="ytick_1">
     <g id="line2d_7">
      <defs>
       <path id="mf5639c2acd" d="M 0 0 
L -3.5 0 
" style="stroke: #000000; stroke-width: 0.8"/>
      </defs>
      <g>
       <use xlink:href="#mf5639c2acd" x="180" y="450.934771" style="stroke: #000000; stroke-width: 0.8"/>
      </g>
     </g>
     <g id="text_7">
      <!-- −4 -->
      <g transform="translate(158.257812 454.73399) scale(0.1 -0.1)">
       <defs>
        <path id="DejaVuSans-2212" d="M 678 2272 
L 4684 2272 
L 4684 1741 
L 678 1741 
L 678 2272 
z
" transform="scale(0.015625)"/>
        <path id="DejaVuSans-34" d="M 2419 4116 
L 825 1625 
L 2419 1625 
L 2419 4116 
z
M 2253 4666 
L 3047 4666 
L 3047 1625 
L 3713 1625 
L 3713 1100 
L 3047 1100 
L 3047 0 
L 2419 0 
L 2419 1100 
L 313 1100 
L 313 1709 
L 2253 4666 
z
" transform="scale(0.015625)"/>
       </defs>
       <use xlink:href="#DejaVuSans-2212"/>
       <use xlink:href="#DejaVuSans-34" x="83.789062"/>
      </g>
     </g>
    </g>
    <g id="ytick_2">
     <g id="line2d_8">
      <g>
       <use xlink:href="#mf5639c2acd" x="180" y="373.07427" style="stroke: #000000; stroke-width: 0.8"/>
      </g>
     </g>
     <g id="text_8">
      <!-- −2 -->
      <g transform="translate(158.257812 376.873488) scale(0.1 -0.1)">
       <use xlink:href="#DejaVuSans-2212"/>
       <use xlink:href="#DejaVuSans-32" x="83.789062"/>
      </g>
     </g>
    </g>
    <g id="ytick_3">
     <g id="line2d_9">
      <g>
       <use xlink:href="#mf5639c2acd" x="180" y="295.213768" style="stroke: #000000; stroke-width: 0.8"/>
      </g>
     </g>
     <g id="text_9">
      <!-- 0 -->
      <g transform="translate(166.6375 299.012987) scale(0.1 -0.1)">
       <use xlink:href="#DejaVuSans-30"/>
      </g>
     </g>
    </g>
    <g id="ytick_4">
     <g id="line2d_10">
      <g>
       <use xlink:href="#mf5639c2acd" x="180" y="217.353267" style="stroke: #000000; stroke-width: 0.8"/>
      </g>
     </g>
     <g id="text_10">
      <!-- 2 -->
      <g transform="translate(166.6375 221.152486) scale(0.1 -0.1)">
       <use xlink:href="#DejaVuSans-32"/>
      </g>
     </g>
    </g>
    <g id="ytick_5">
     <g id="line2d_11">
      <g>
       <use xlink:href="#mf5639c2acd" x="180" y="139.492766" style="stroke: #000000; stroke-width: 0.8"/>
      </g>
     </g>
     <g id="text_11">
      <!-- 4 -->
      <g transform="translate(166.6375 143.291985) scale(0.1 -0.1)">
       <use xlink:href="#DejaVuSans-34"/>
      </g>
     </g>
    </g>
   </g>
   <g id="line2d_12">
    <path d="M 230.727273 282.543368 
L 231.719979 323.417658 
L 233.70539 273.858654 
L 234.698096 274.82394 
L 235.690802 304.677764 
L 236.683508 305.316294 
L 237.676214 275.03605 
L 238.66892 276.419499 
L 239.661626 310.4388 
L 241.647038 270.507952 
L 242.639744 279.128664 
L 243.63245 327.236749 
L 244.625156 278.103794 
L 245.617862 264.608868 
L 246.610568 273.888555 
L 247.603273 286.219351 
L 248.595979 277.916961 
L 249.588685 291.24203 
L 250.581391 274.424966 
L 251.574097 243.203422 
L 252.566803 232.699563 
L 253.559509 230.037589 
L 254.552215 224.711308 
L 255.544921 217.616168 
L 256.537627 209.470711 
L 257.530333 197.876487 
L 258.523039 191.345625 
L 259.515745 195.894636 
L 260.50845 196.481488 
L 261.501156 177.164775 
L 262.493862 166.878125 
L 263.486568 171.679578 
L 264.479274 197.718219 
L 265.47198 201.069539 
L 266.464686 182.052651 
L 267.457392 188.198769 
L 268.450098 197.872889 
L 269.442804 178.750545 
L 270.43551 176.849509 
L 271.428216 203.800809 
L 272.420922 208.130023 
L 273.413627 184.175356 
L 274.406333 197.526127 
L 275.399039 221.66621 
L 276.391745 174.559085 
L 279.369863 112.726732 
L 280.362569 99.036419 
L 281.355275 91.577206 
L 282.347981 89.28 
L 283.340687 90.744422 
L 285.326099 97.146031 
L 286.318804 101.585256 
L 287.31151 110.990633 
L 288.304216 126.29795 
L 289.296922 133.835749 
L 290.289628 129.818361 
L 291.282334 131.286657 
L 292.27504 137.21634 
L 293.267746 139.278283 
L 294.260452 140.600796 
L 295.253158 144.951795 
L 297.23857 149.194867 
L 299.223981 167.19117 
L 300.216687 165.820004 
L 301.209393 168.306648 
L 302.202099 178.677177 
L 303.194805 183.682819 
L 304.187511 186.240403 
L 305.180217 200.9151 
L 306.172923 210.780931 
L 307.165629 203.356863 
L 308.158335 210.762865 
L 309.151041 221.690793 
L 310.143747 211.137521 
L 311.136453 211.547192 
L 312.129159 225.175108 
L 313.121864 226.090812 
L 314.11457 221.924541 
L 315.107276 233.276755 
L 316.099982 259.820637 
L 317.092688 246.455671 
L 318.085394 243.153599 
L 319.0781 265.75664 
L 320.070806 267.236744 
L 321.063512 247.779863 
L 322.056218 253.846084 
L 323.048924 289.446623 
L 324.04163 269.36139 
L 325.034336 261.667836 
L 326.027041 285.69555 
L 327.019747 313.101688 
L 328.012453 274.538512 
L 329.005159 284.679191 
L 329.997865 391.316952 
L 330.990571 286.866289 
L 331.983277 281.691944 
L 332.975983 318.009429 
L 333.968689 313.264327 
L 334.961395 286.154436 
L 335.954101 294.798808 
L 336.946807 353.997174 
L 337.939513 303.592961 
L 338.932218 294.384257 
L 339.924924 307.515123 
L 340.91763 329.434708 
L 341.910336 329.456136 
L 342.903042 304.993271 
L 343.895748 291.951628 
L 344.888454 297.043721 
L 345.88116 349.787305 
L 346.873866 293.585182 
L 347.866572 280.770742 
L 348.859278 295.299631 
L 349.851984 356.74418 
L 350.84469 291.966506 
L 351.837395 293.636437 
L 352.830101 363.537636 
L 353.822807 301.326969 
L 354.815513 286.70631 
L 355.808219 306.13384 
L 356.800925 356.106677 
L 357.793631 314.050082 
L 358.786337 352.691963 
L 359.779043 284.02225 
L 360.771749 256.784988 
L 361.764455 247.791751 
L 362.757161 243.808451 
L 364.742572 222.091351 
L 365.735278 219.205988 
L 366.727984 219.690281 
L 367.72069 217.336964 
L 368.713396 214.393715 
L 369.706102 216.982666 
L 370.698808 222.515948 
L 371.691514 223.547385 
L 372.68422 221.809473 
L 373.676926 224.278853 
L 374.669632 222.755656 
L 375.662338 215.243397 
L 376.655044 211.284032 
L 377.64775 211.338349 
L 378.640455 210.645855 
L 379.633161 208.835085 
L 380.625867 209.384841 
L 381.618573 213.787454 
L 382.611279 217.43694 
L 383.603985 215.848176 
L 384.596691 209.185769 
L 385.589397 201.693547 
L 389.560221 180.292318 
L 390.552927 178.288146 
L 391.545632 177.751723 
L 392.538338 177.452122 
L 393.531044 177.427954 
L 394.52375 179.668953 
L 397.501868 191.78463 
L 398.494574 197.694203 
L 399.48728 205.198089 
L 400.479986 209.530336 
L 401.472692 211.511591 
L 402.465398 215.116846 
L 403.458104 217.076811 
L 404.450809 214.777013 
L 405.443515 215.08365 
L 406.436221 218.577801 
L 407.428927 219.833398 
L 408.421633 219.804418 
L 409.414339 223.178351 
L 410.407045 229.208901 
L 412.392457 230.833343 
L 414.377869 241.934096 
L 415.370575 242.881742 
L 416.363281 244.903667 
L 418.348692 267.202793 
L 419.341398 272.443808 
L 420.334104 276.343925 
L 421.32681 297.867271 
L 422.319516 328.508263 
L 423.312222 319.795468 
L 424.304928 294.94159 
L 425.297634 282.606855 
L 426.29034 285.69033 
L 427.283046 292.37936 
L 428.275752 279.0357 
L 429.268458 275.517348 
L 430.261163 284.559726 
L 431.253869 284.463207 
L 432.246575 273.164829 
L 433.239281 274.272112 
L 434.231987 284.422166 
L 435.224693 277.712959 
L 436.217399 271.997273 
L 437.210105 279.289245 
L 438.202811 285.304039 
L 439.195517 276.507247 
L 440.188223 278.360532 
L 441.180929 287.776485 
L 442.173635 278.182784 
L 443.166341 270.350779 
L 444.159046 275.00318 
L 445.151752 275.19683 
L 446.144458 266.280996 
L 447.137164 265.449063 
L 448.12987 273.520691 
L 449.122576 274.758648 
L 450.115282 270.211445 
L 451.107988 275.333573 
L 452.100694 285.418621 
L 453.0934 277.911782 
L 454.086106 272.606457 
L 455.078812 279.202092 
L 456.071518 281.754774 
L 457.064223 273.240158 
L 458.056929 275.707716 
L 459.049635 291.132819 
L 460.042341 299.812744 
L 461.035047 298.757194 
L 462.027753 320.182022 
L 463.020459 383.153639 
L 464.013165 314.975262 
L 465.005871 316.192661 
L 465.998577 311.180835 
L 466.991283 292.547787 
L 467.983989 288.756454 
L 468.976695 304.014868 
L 469.9694 303.640112 
L 470.962106 293.656397 
L 471.954812 294.436662 
L 472.947518 295.899952 
L 473.940224 275.674833 
L 474.93293 266.01224 
L 475.925636 265.249696 
L 476.918342 260.889562 
L 477.911048 253.472486 
L 478.903754 249.671081 
L 479.89646 251.566322 
L 480.889166 254.673523 
L 481.881872 251.802889 
L 482.874577 251.314806 
L 483.867283 255.965917 
L 484.859989 262.066256 
L 485.852695 264.212545 
L 486.845401 263.07206 
L 487.838107 265.230468 
L 488.830813 272.28885 
L 489.823519 274.096979 
L 490.816225 266.741836 
L 491.808931 263.907831 
L 492.801637 262.865655 
L 493.794343 263.437565 
L 494.787049 258.023077 
L 495.779754 251.045845 
L 496.77246 248.225302 
L 497.765166 249.093942 
L 498.757872 246.421627 
L 499.750578 242.749687 
L 500.743284 240.664065 
L 501.73599 243.174353 
L 502.728696 246.031149 
L 503.721402 245.860394 
L 504.714108 246.487889 
L 505.706814 253.386149 
L 506.69952 259.040136 
L 507.692226 258.796242 
L 508.684932 261.811304 
L 509.677637 268.030238 
L 510.670343 267.395914 
L 511.663049 261.369871 
L 512.655755 259.802234 
L 513.648461 262.327173 
L 515.633873 256.989113 
L 516.626579 259.678725 
L 517.619285 264.66776 
L 518.611991 261.210476 
L 519.604697 260.89786 
L 520.597403 264.858245 
L 521.590109 265.450517 
L 522.582814 260.122248 
L 523.57552 259.642152 
L 524.568226 265.193893 
L 525.560932 264.676532 
L 526.553638 260.271811 
L 527.546344 263.318843 
L 528.53905 270.16965 
L 529.531756 274.64008 
L 530.524462 272.954526 
L 531.517168 279.300292 
L 532.509874 292.091891 
L 533.50258 288.195907 
L 534.495286 285.780479 
L 535.487991 293.322322 
L 536.480697 303.088125 
L 537.473403 300.231649 
L 538.466109 293.669924 
L 540.451521 320.023061 
L 541.444227 312.114395 
L 542.436933 315.024642 
L 543.429639 345.036862 
L 544.422345 360.844827 
L 545.415051 324.297591 
L 546.407757 327.59217 
L 547.400463 356.834641 
L 548.393168 332.723387 
L 549.385874 316.250459 
L 550.37858 323.202817 
L 551.371286 342.023354 
L 552.363992 336.684208 
L 553.356698 324.645731 
L 554.349404 339.596008 
L 555.34211 376.610366 
L 556.334816 338.229133 
L 557.327522 322.935436 
L 558.320228 344.187799 
L 559.312934 322.268566 
L 560.30564 307.874953 
L 561.298345 310.274582 
L 562.291051 327.248669 
L 563.283757 321.972526 
L 564.276463 315.622805 
L 565.269169 322.900007 
L 566.261875 362.344752 
L 567.254581 364.979767 
L 568.247287 360.964471 
L 569.239993 399.949863 
L 570.232699 343.070431 
L 571.225405 330.996502 
L 572.218111 346.354143 
L 573.210817 351.55702 
L 574.203523 325.316801 
L 575.196228 327.688324 
L 576.188934 366.495322 
L 577.18164 343.307487 
L 578.174346 329.967238 
L 579.167052 335.764181 
L 580.159758 337.140016 
L 581.152464 309.848769 
L 582.14517 303.483515 
L 583.137876 303.797327 
L 584.130582 299.100005 
L 585.123288 287.621481 
L 586.115994 282.124696 
L 587.1087 284.883463 
L 588.101405 283.373803 
L 590.086817 274.251019 
L 591.079523 276.653369 
L 592.072229 281.108037 
L 593.064935 279.294654 
L 594.057641 275.504909 
L 595.050347 278.629058 
L 596.043053 286.759465 
L 597.035759 289.849423 
L 598.028465 288.643011 
L 599.021171 294.296528 
L 600.013877 307.951078 
L 601.006582 308.001329 
L 601.999288 298.133494 
L 602.991994 298.598163 
L 603.9847 299.510289 
L 605.970112 282.187442 
L 606.962818 281.355261 
L 607.955524 282.504132 
L 608.94823 280.094367 
L 609.940936 274.122694 
L 610.933642 272.993211 
L 611.926348 276.594831 
L 612.919054 278.740659 
L 613.911759 275.843548 
L 614.904465 274.921814 
L 615.897171 279.248852 
L 616.889877 286.959851 
L 617.882583 289.365861 
L 618.875289 288.061082 
L 619.867995 297.184627 
L 620.860701 308.16227 
L 621.853407 298.280457 
L 622.846113 292.102084 
L 623.838819 294.270314 
L 624.831525 290.21529 
L 625.824231 281.191178 
L 626.816936 279.122135 
L 627.809642 282.856992 
L 628.802348 282.675281 
L 629.795054 278.270856 
L 630.78776 281.385459 
L 631.780466 287.286932 
L 632.773172 283.480178 
L 633.765878 279.134405 
L 634.758584 282.229242 
L 635.75129 283.979122 
L 636.743996 278.18672 
L 637.736702 276.470477 
L 638.729408 281.667546 
L 639.722114 285.539996 
L 640.714819 283.463644 
L 641.707525 286.074542 
L 642.700231 296.392576 
L 643.692937 303.031024 
L 644.685643 299.786504 
L 645.678349 304.757571 
L 646.671055 317.198893 
L 647.663761 310.168511 
L 648.656467 304.18593 
L 649.649173 311.892822 
L 650.641879 320.853905 
L 651.634585 312.379563 
L 652.627291 310.969727 
L 653.619996 326.231853 
L 654.612702 336.359699 
L 655.605408 325.03374 
L 656.598114 327.413165 
L 657.59082 352.239439 
L 658.583526 353.764858 
L 659.576232 335.180171 
L 660.568938 339.55536 
L 661.561644 373.044271 
L 662.55435 364.031502 
L 663.547056 340.474367 
L 664.539762 341.951366 
L 665.532468 364.521995 
L 666.525173 367.36495 
L 667.517879 338.362942 
L 668.510585 334.403314 
L 669.503291 350.913059 
L 670.495997 352.413708 
L 671.488703 329.955281 
L 672.481409 327.151871 
L 673.474115 343.825749 
L 674.466821 352.155009 
L 675.459527 333.580477 
L 676.452233 335.899951 
L 677.444939 368.093606 
L 678.437645 358.953369 
L 679.43035 338.428462 
L 680.423056 346.724095 
L 681.415762 357.233231 
L 682.408468 329.296379 
L 683.401174 318.996095 
L 684.39388 324.528218 
L 685.386586 331.007559 
L 686.379292 318.491431 
L 687.371998 310.349997 
L 688.364704 314.02497 
L 689.35741 323.110611 
L 690.350116 318.997596 
L 691.342822 309.629453 
L 692.335527 310.122563 
L 693.328233 319.771277 
L 694.320939 321.190103 
L 695.313645 310.860604 
L 696.306351 309.555918 
L 697.299057 318.992695 
L 698.291763 320.906018 
L 699.284469 310.814374 
L 700.277175 309.869607 
L 701.269881 320.396834 
L 702.262587 323.418206 
L 703.255293 314.336555 
L 704.247999 316.568735 
L 705.240705 331.82342 
L 706.23341 329.593758 
L 707.226116 317.906489 
L 708.218822 320.966729 
L 709.211528 329.009188 
L 710.204234 316.214457 
L 711.19694 307.259656 
L 712.189646 310.070507 
L 713.182352 317.036889 
L 714.175058 312.100423 
L 715.167764 306.239367 
L 716.16047 309.33062 
L 717.153176 319.615212 
L 718.145882 324.761283 
L 719.138587 317.241127 
L 720.131293 311.558255 
L 721.123999 313.28023 
L 722.116705 320.929899 
L 723.109411 320.152677 
L 724.102117 311.123295 
L 725.094823 309.28347 
L 726.087529 318.581027 
L 727.080235 330.735477 
L 728.072941 325.320441 
L 729.065647 324.71876 
L 730.058353 344.597523 
L 731.051059 366.750441 
L 732.043764 339.700373 
L 733.03647 340.741763 
L 734.029176 357.467619 
L 735.021882 335.581786 
L 736.014588 323.034478 
L 737.007294 328.745888 
L 738 338.647177 
L 738.992706 324.506442 
L 739.985412 318.237808 
L 740.978118 326.713862 
L 741.970824 331.879397 
L 742.96353 318.15061 
L 743.956236 314.046297 
L 744.948941 322.340614 
L 745.941647 324.678389 
L 746.934353 314.110098 
L 747.927059 312.964331 
L 748.919765 323.605775 
L 749.912471 329.152189 
L 750.905177 319.802681 
L 751.897883 320.910971 
L 752.890589 336.771518 
L 753.883295 340.877088 
L 754.876001 327.673242 
L 755.868707 330.402271 
L 756.861413 349.731061 
L 757.854118 343.59847 
L 758.846824 330.701516 
L 759.83953 336.74262 
L 760.832236 361.419911 
L 762.817648 339.000888 
L 763.810354 352.61463 
L 764.80306 381.911584 
L 765.795766 346.905968 
L 766.788472 340.238312 
L 767.781178 357.120741 
L 768.773884 356.999236 
L 769.76659 335.404389 
L 770.759295 334.700433 
L 771.752001 354.085372 
L 772.744707 355.262671 
L 773.737413 338.604263 
L 774.730119 344.410806 
L 775.722825 377.711066 
L 776.715531 352.435426 
L 777.708237 338.406352 
L 778.700943 348.272311 
L 779.693649 355.382436 
L 780.686355 333.010411 
L 781.679061 327.438181 
L 782.671767 339.529856 
L 783.664473 347.906904 
L 784.657178 333.462267 
L 785.649884 334.09044 
L 786.64259 357.699249 
L 787.635296 360.146088 
L 788.628002 339.643863 
L 789.620708 344.501785 
L 790.613414 358.898091 
L 791.60612 335.313726 
L 792.598826 324.837044 
L 793.591532 330.520685 
L 794.584238 340.278055 
L 795.576944 329.830178 
L 796.56965 323.54645 
L 797.562355 331.622438 
L 798.555061 351.630849 
L 799.547767 351.534789 
L 800.540473 341.334885 
L 801.533179 344.388398 
L 802.525885 362.855662 
L 803.518591 400.978478 
L 804.511297 366.825857 
L 805.504003 350.054395 
L 806.496709 354.630339 
L 807.489415 390.416369 
L 809.474827 346.324321 
L 810.467532 351.985072 
L 811.460238 374.151262 
L 812.452944 346.657178 
L 813.44565 333.878744 
L 814.438356 340.420766 
L 815.431062 353.077892 
L 816.423768 336.64411 
L 817.416474 329.012591 
L 818.40918 338.92082 
L 819.401886 357.48238 
L 820.394592 344.453358 
L 821.387298 339.805981 
L 822.380004 357.591661 
L 823.372709 418.314891 
L 824.365415 372.578568 
L 825.358121 376.973543 
L 826.350827 410.901404 
L 827.343533 362.901317 
L 828.336239 356.327589 
L 829.328945 378.801708 
L 830.321651 364.296346 
L 831.314357 341.67707 
L 832.307063 342.276355 
L 833.299769 363.834074 
L 834.292475 363.841594 
L 835.285181 346.503973 
L 836.277886 351.740474 
L 837.270592 392.79655 
L 838.263298 387.06002 
L 839.256004 366.202021 
L 840.24871 387.327113 
L 841.241416 404.745551 
L 842.234122 364.395771 
L 843.226828 365.951521 
L 844.219534 417.650244 
L 845.21224 377.350145 
L 846.204946 357.842286 
L 847.197652 370.692085 
L 848.190358 423.98498 
L 849.183064 360.646973 
L 850.175769 350.80356 
L 851.168475 366.722854 
L 852.161181 371.041754 
L 853.153887 343.072887 
L 854.146593 336.591176 
L 855.139299 347.513568 
L 856.132005 355.200569 
L 857.124711 337.628909 
L 858.117417 332.25186 
L 859.110123 343.450468 
L 860.102829 359.316636 
L 861.095535 343.744939 
L 862.088241 338.363165 
L 864.073652 370.238067 
L 865.066358 345.233132 
L 866.059064 341.340119 
L 867.05177 358.033167 
L 868.044476 355.634826 
L 869.037182 336.778396 
L 870.029888 337.00529 
L 871.022594 354.612315 
L 872.0153 352.667152 
L 873.008006 338.442609 
L 874.000712 343.740206 
L 874.993418 371.36148 
L 875.986123 356.630037 
L 876.978829 343.642477 
L 877.971535 355.212778 
L 878.964241 371.855027 
L 879.956947 345.855608 
L 880.949653 340.156019 
L 881.942359 356.533249 
L 882.935065 369.608961 
L 883.927771 348.820604 
L 884.920477 350.763476 
L 885.913183 387.351886 
L 886.905889 383.928171 
L 887.898595 361.001327 
L 888.8913 378.573881 
L 889.884006 393.344178 
L 890.876712 353.053599 
L 891.869418 349.36718 
L 892.862124 371.917399 
L 893.85483 373.378908 
L 894.847536 351.693188 
L 895.840242 357.43904 
L 896.832948 408.188528 
L 897.825654 380.668435 
L 898.81836 365.059892 
L 899.811066 394.299716 
L 900.803772 382.97874 
L 901.796477 351.970263 
L 902.789183 353.018856 
L 903.781889 379.698666 
L 904.774595 368.848355 
L 905.767301 352.502811 
L 906.760007 363.083692 
L 907.752713 453.026601 
L 908.745419 378.361476 
L 909.738125 374.501887 
L 910.730831 419.822382 
L 911.723537 357.958327 
L 912.716243 341.086818 
L 913.708949 346.132422 
L 914.701655 357.055826 
L 915.69436 340.931342 
L 916.687066 332.889202 
L 917.679772 342.422846 
L 918.672478 364.054863 
L 919.665184 352.047817 
L 920.65789 347.43431 
L 921.650596 372.133488 
L 922.643302 379.98761 
L 923.636008 348.212646 
L 924.628714 347.472195 
L 925.62142 360.384949 
L 926.614126 343.825598 
L 927.606832 330.199014 
L 928.599537 331.852169 
L 929.592243 344.049869 
L 930.584949 343.385272 
L 931.577655 333.014975 
L 932.570361 332.888602 
L 933.563067 344.404095 
L 934.555773 360.988439 
L 935.548479 352.089547 
L 936.541185 339.529496 
L 937.533891 337.1246 
L 938.526597 346.182534 
L 939.519303 357.038039 
L 940.512009 344.786047 
L 941.504714 335.139918 
L 942.49742 339.149213 
L 943.490126 358.115278 
L 944.482832 366.354162 
L 945.475538 351.849612 
L 946.468244 352.804725 
L 947.46095 374.76977 
L 948.453656 460.472167 
L 949.446362 399.225973 
L 951.431774 386.009297 
L 952.42448 374.858955 
L 953.417186 381.954233 
L 954.409891 441.114475 
L 955.402597 390.674717 
L 956.395303 370.908124 
L 957.388009 380.545645 
L 958.380715 441.618836 
L 959.373421 380.121705 
L 960.366127 366.198085 
L 962.351539 401.335718 
L 963.344245 357.419788 
L 964.336951 347.424944 
L 966.322363 368.630796 
L 967.315068 346.480034 
L 968.307774 338.513984 
L 969.30048 348.285071 
L 970.293186 364.08772 
L 971.285892 347.332433 
L 972.278598 340.764681 
L 974.26401 369.4891 
L 975.256716 346.674281 
L 976.249422 342.870931 
L 977.242128 359.375151 
L 978.234834 354.931355 
L 979.22754 337.409404 
L 980.220246 338.141416 
L 981.212951 353.030137 
L 982.205657 344.83368 
L 983.198363 333.12856 
L 984.191069 338.668983 
L 985.183775 354.369663 
L 986.176481 342.186124 
L 987.169187 334.045728 
L 988.161893 343.688031 
L 989.154599 354.85697 
L 990.147305 338.336612 
L 991.140011 334.192566 
L 992.132717 347.050918 
L 993.125423 351.447435 
L 994.118128 336.72082 
L 995.110834 337.140594 
L 996.10354 355.16345 
L 997.096246 356.130777 
L 998.088952 342.604314 
L 999.081658 348.852563 
L 1000.074364 378.464944 
L 1001.06707 362.230746 
L 1002.059776 350.387581 
L 1003.052482 366.203257 
L 1004.045188 387.772336 
L 1005.037894 355.589474 
L 1006.0306 351.615025 
L 1007.023305 373.242721 
L 1008.016011 374.861147 
L 1009.008717 351.43082 
L 1010.001423 351.719755 
L 1010.994129 375.041019 
L 1011.986835 379.433547 
L 1012.979541 355.60977 
L 1013.972247 353.364707 
L 1014.964953 370.335424 
L 1015.957659 394.666784 
L 1016.950365 362.932716 
L 1017.943071 349.021213 
L 1018.935777 352.394626 
L 1019.928482 369.870654 
L 1020.921188 358.242151 
L 1021.913894 340.762699 
L 1022.9066 339.794473 
L 1023.899306 353.400087 
L 1024.892012 354.535672 
L 1025.884718 339.392795 
L 1026.877424 339.555446 
L 1027.87013 358.230642 
L 1028.862836 363.877267 
L 1029.855542 346.842026 
L 1030.848248 350.624807 
L 1031.840954 376.120039 
L 1032.833659 356.601355 
L 1033.826365 340.908672 
L 1034.819071 344.945126 
L 1035.811777 354.75906 
L 1036.804483 339.188307 
L 1037.797189 329.413995 
L 1038.789895 333.336812 
L 1039.782601 344.012471 
L 1040.775307 338.446134 
L 1041.768013 330.252979 
L 1042.760719 333.491495 
L 1043.753425 348.67744 
L 1044.746131 356.118937 
L 1045.738837 345.43424 
L 1046.731542 345.05588 
L 1047.724248 360.709556 
L 1048.716954 401.639692 
L 1050.702366 372.804121 
L 1051.695072 376.805634 
L 1052.687778 382.677953 
L 1053.680484 390.994546 
L 1054.67319 444.344614 
L 1055.665896 393.084914 
L 1056.658602 364.104549 
L 1057.651308 360.701421 
L 1058.644014 381.184016 
L 1059.636719 398.684888 
L 1060.629425 364.317478 
L 1061.622131 358.618917 
L 1062.614837 378.380065 
L 1063.607543 423.687995 
L 1064.600249 373.174734 
L 1065.592955 367.79384 
L 1066.585661 390.976887 
L 1067.578367 433.558608 
L 1068.571073 382.665244 
L 1069.563779 378.50641 
L 1071.549191 413.453165 
L 1072.541896 403.559315 
L 1073.534602 388.02799 
L 1074.527308 378.194133 
L 1075.520014 386.24954 
L 1076.51272 492.48 
L 1077.505426 381.895986 
L 1078.498132 363.790396 
L 1079.490838 373.349935 
L 1080.483544 419.132936 
L 1081.47625 371.024455 
L 1082.468956 357.886376 
L 1083.461662 372.477712 
L 1084.454368 408.866008 
L 1085.447073 366.095093 
L 1086.439779 360.291209 
L 1087.432485 389.278054 
L 1088.425191 387.581089 
L 1089.417897 358.685021 
L 1090.410603 363.630045 
L 1091.403309 392.110115 
L 1092.396015 359.209366 
L 1093.388721 346.552322 
L 1094.381427 356.495917 
L 1095.374133 369.294666 
L 1096.366839 348.150573 
L 1097.359545 342.82017 
L 1098.35225 358.064653 
L 1099.344956 365.724948 
L 1100.337662 346.069404 
L 1101.330368 346.24015 
L 1102.323074 365.587846 
L 1103.31578 355.658819 
L 1104.308486 340.338908 
L 1105.301192 344.641578 
L 1106.293898 360.190339 
L 1107.286604 347.785583 
L 1108.27931 339.040067 
L 1109.272016 348.849649 
L 1110.264722 373.38248 
L 1111.257428 359.023074 
L 1112.250133 354.47073 
L 1113.242839 381.294099 
L 1114.235545 390.344187 
L 1115.228251 357.604709 
L 1116.220957 360.263448 
L 1117.213663 377.066852 
L 1118.206369 351.593898 
L 1119.199075 338.822285 
L 1120.191781 343.621332 
L 1121.184487 356.680716 
L 1123.169899 337.451752 
L 1124.162605 342.369453 
L 1125.15531 361.533903 
L 1126.148016 364.150446 
L 1127.140722 350.347095 
L 1128.133428 351.287301 
L 1129.126134 369.876889 
L 1130.11884 403.912774 
L 1131.111546 372.797996 
L 1132.104252 362.733594 
L 1133.096958 373.573395 
L 1134.089664 438.625788 
L 1135.08237 389.233118 
L 1136.075076 371.514054 
L 1137.067782 385.864228 
L 1138.060487 457.425665 
L 1139.053193 374.359588 
L 1140.045899 363.428099 
L 1142.031311 397.446178 
L 1143.024017 360.693873 
L 1144.016723 352.426268 
L 1145.009429 365.221026 
L 1146.002135 385.893369 
L 1146.994841 359.764361 
L 1147.987547 350.636902 
L 1148.980253 361.174316 
L 1149.972959 392.624663 
L 1150.965664 370.211286 
L 1151.95837 357.421878 
L 1152.951076 367.581232 
L 1153.943782 418.815792 
L 1154.936488 383.676471 
L 1155.929194 367.226844 
L 1156.9219 381.540947 
L 1157.914606 448.428283 
L 1158.907312 372.571973 
L 1159.900018 363.347665 
L 1160.892724 383.291376 
L 1161.88543 394.564436 
L 1162.878136 359.816506 
L 1163.870841 355.413817 
L 1164.863547 376.114995 
L 1165.856253 377.896508 
L 1166.848959 352.977773 
L 1167.841665 352.64984 
L 1168.834371 374.639498 
L 1169.827077 365.85124 
L 1170.819783 347.086163 
L 1171.812489 350.153474 
L 1172.805195 370.602484 
L 1173.797901 359.128963 
L 1174.790607 345.975603 
L 1175.783313 353.498467 
L 1176.776019 382.772746 
L 1177.768724 367.073024 
L 1178.76143 356.962367 
L 1179.754136 376.06223 
L 1180.746842 416.754284 
L 1181.739548 367.974965 
L 1182.732254 368.273006 
L 1183.72496 410.428171 
L 1184.717666 374.298532 
L 1185.710372 357.216332 
L 1186.703078 369.270932 
L 1187.695784 403.028931 
L 1188.68849 365.08472 
L 1189.681196 359.215608 
L 1190.673901 385.913439 
L 1191.666607 384.065048 
L 1192.659313 356.83063 
L 1193.652019 360.100976 
L 1194.644725 388.289725 
L 1195.637431 366.169105 
L 1196.630137 352.298288 
L 1197.622843 363.635321 
L 1198.615549 402.346299 
L 1199.608255 369.474517 
L 1200.600961 363.5369 
L 1201.593667 395.675522 
L 1202.586373 389.291693 
L 1203.579078 360.389327 
L 1204.571784 365.925642 
L 1205.56449 393.365373 
L 1206.557196 362.518472 
L 1207.549902 351.109754 
L 1208.542608 362.653553 
L 1209.535314 393.200545 
L 1210.52802 365.880697 
L 1211.520726 360.041581 
L 1212.513432 387.68287 
L 1213.506138 398.828248 
L 1214.498844 364.208394 
L 1215.49155 367.313051 
L 1216.484255 403.456734 
L 1217.476961 371.74751 
L 1218.469667 355.558712 
L 1219.462373 363.8055 
L 1220.455079 404.346252 
L 1221.447785 386.627327 
L 1222.440491 371.560234 
L 1223.433197 381.56747 
L 1224.425903 394.328711 
L 1225.418609 390.186445 
L 1226.411315 418.878009 
L 1227.404021 399.079946 
L 1228.396727 363.06185 
L 1229.389432 356.203571 
L 1230.382138 369.777652 
L 1231.374844 389.107154 
L 1232.36755 363.065614 
L 1233.360256 353.022271 
L 1234.352962 360.837863 
L 1235.345668 390.847218 
L 1236.338374 392.160676 
L 1237.33108 367.20631 
L 1238.323786 363.947638 
L 1239.316492 377.975302 
L 1240.309198 433.728696 
L 1241.301904 402.665664 
L 1242.29461 378.294442 
L 1243.287315 378.544586 
L 1244.280021 393.887822 
L 1245.272727 407.413491 
L 1245.272727 407.413491 
" clip-path="url(#pd3c5105b25)" style="fill: none; stroke: #1f77b4; stroke-width: 1.5; stroke-linecap: square"/>
   </g>
   <g id="patch_3">
    <path d="M 180 512.64 
L 180 69.12 
" style="fill: none; stroke: #000000; stroke-width: 0.8; stroke-linejoin: miter; stroke-linecap: square"/>
   </g>
   <g id="patch_4">
    <path d="M 1296 512.64 
L 1296 69.12 
" style="fill: none; stroke: #000000; stroke-width: 0.8; stroke-linejoin: miter; stroke-linecap: square"/>
   </g>
   <g id="patch_5">
    <path d="M 180 512.64 
L 1296 512.64 
" style="fill: none; stroke: #000000; stroke-width: 0.8; stroke-linejoin: miter; stroke-linecap: square"/>
   </g>
   <g id="patch_6">
    <path d="M 180 69.12 
L 1296 69.12 
" style="fill: none; stroke: #000000; stroke-width: 0.8; stroke-linejoin: miter; stroke-linecap: square"/>
   </g>
   <g id="text_12">
    <!-- source11-receiver2 -->
    <g transform="translate(544.9 60.80125) scale(0.4 -0.4)">
     <defs>
      <path id="DejaVuSans-73" d="M 2834 3397 
L 2834 2853 
Q 2591 2978 2328 3040 
Q 2066 3103 1784 3103 
Q 1356 3103 1142 2972 
Q 928 2841 928 2578 
Q 928 2378 1081 2264 
Q 1234 2150 1697 2047 
L 1894 2003 
Q 2506 1872 2764 1633 
Q 3022 1394 3022 966 
Q 3022 478 2636 193 
Q 2250 -91 1575 -91 
Q 1294 -91 989 -36 
Q 684 19 347 128 
L 347 722 
Q 666 556 975 473 
Q 1284 391 1588 391 
Q 1994 391 2212 530 
Q 2431 669 2431 922 
Q 2431 1156 2273 1281 
Q 2116 1406 1581 1522 
L 1381 1569 
Q 847 1681 609 1914 
Q 372 2147 372 2553 
Q 372 3047 722 3315 
Q 1072 3584 1716 3584 
Q 2034 3584 2315 3537 
Q 2597 3491 2834 3397 
z
" transform="scale(0.015625)"/>
      <path id="DejaVuSans-6f" d="M 1959 3097 
Q 1497 3097 1228 2736 
Q 959 2375 959 1747 
Q 959 1119 1226 758 
Q 1494 397 1959 397 
Q 2419 397 2687 759 
Q 2956 1122 2956 1747 
Q 2956 2369 2687 2733 
Q 2419 3097 1959 3097 
z
M 1959 3584 
Q 2709 3584 3137 3096 
Q 3566 2609 3566 1747 
Q 3566 888 3137 398 
Q 2709 -91 1959 -91 
Q 1206 -91 779 398 
Q 353 888 353 1747 
Q 353 2609 779 3096 
Q 1206 3584 1959 3584 
z
" transform="scale(0.015625)"/>
      <path id="DejaVuSans-75" d="M 544 1381 
L 544 3500 
L 1119 3500 
L 1119 1403 
Q 1119 906 1312 657 
Q 1506 409 1894 409 
Q 2359 409 2629 706 
Q 2900 1003 2900 1516 
L 2900 3500 
L 3475 3500 
L 3475 0 
L 2900 0 
L 2900 538 
Q 2691 219 2414 64 
Q 2138 -91 1772 -91 
Q 1169 -91 856 284 
Q 544 659 544 1381 
z
M 1991 3584 
L 1991 3584 
z
" transform="scale(0.015625)"/>
      <path id="DejaVuSans-72" d="M 2631 2963 
Q 2534 3019 2420 3045 
Q 2306 3072 2169 3072 
Q 1681 3072 1420 2755 
Q 1159 2438 1159 1844 
L 1159 0 
L 581 0 
L 581 3500 
L 1159 3500 
L 1159 2956 
Q 1341 3275 1631 3429 
Q 1922 3584 2338 3584 
Q 2397 3584 2469 3576 
Q 2541 3569 2628 3553 
L 2631 2963 
z
" transform="scale(0.015625)"/>
      <path id="DejaVuSans-63" d="M 3122 3366 
L 3122 2828 
Q 2878 2963 2633 3030 
Q 2388 3097 2138 3097 
Q 1578 3097 1268 2742 
Q 959 2388 959 1747 
Q 959 1106 1268 751 
Q 1578 397 2138 397 
Q 2388 397 2633 464 
Q 2878 531 3122 666 
L 3122 134 
Q 2881 22 2623 -34 
Q 2366 -91 2075 -91 
Q 1284 -91 818 406 
Q 353 903 353 1747 
Q 353 2603 823 3093 
Q 1294 3584 2113 3584 
Q 2378 3584 2631 3529 
Q 2884 3475 3122 3366 
z
" transform="scale(0.015625)"/>
      <path id="DejaVuSans-65" d="M 3597 1894 
L 3597 1613 
L 953 1613 
Q 991 1019 1311 708 
Q 1631 397 2203 397 
Q 2534 397 2845 478 
Q 3156 559 3463 722 
L 3463 178 
Q 3153 47 2828 -22 
Q 2503 -91 2169 -91 
Q 1331 -91 842 396 
Q 353 884 353 1716 
Q 353 2575 817 3079 
Q 1281 3584 2069 3584 
Q 2775 3584 3186 3129 
Q 3597 2675 3597 1894 
z
M 3022 2063 
Q 3016 2534 2758 2815 
Q 2500 3097 2075 3097 
Q 1594 3097 1305 2825 
Q 1016 2553 972 2059 
L 3022 2063 
z
" transform="scale(0.015625)"/>
      <path id="DejaVuSans-2d" d="M 313 2009 
L 1997 2009 
L 1997 1497 
L 313 1497 
L 313 2009 
z
" transform="scale(0.015625)"/>
      <path id="DejaVuSans-69" d="M 603 3500 
L 1178 3500 
L 1178 0 
L 603 0 
L 603 3500 
z
M 603 4863 
L 1178 4863 
L 1178 4134 
L 603 4134 
L 603 4863 
z
" transform="scale(0.015625)"/>
      <path id="DejaVuSans-76" d="M 191 3500 
L 800 3500 
L 1894 563 
L 2988 3500 
L 3597 3500 
L 2284 0 
L 1503 0 
L 191 3500 
z
" transform="scale(0.015625)"/>
     </defs>
     <use xlink:href="#DejaVuSans-73"/>
     <use xlink:href="#DejaVuSans-6f" x="52.099609"/>
     <use xlink:href="#DejaVuSans-75" x="113.28125"/>
     <use xlink:href="#DejaVuSans-72" x="176.660156"/>
     <use xlink:href="#DejaVuSans-63" x="215.523438"/>
     <use xlink:href="#DejaVuSans-65" x="270.503906"/>
     <use xlink:href="#DejaVuSans-31" x="332.027344"/>
     <use xlink:href="#DejaVuSans-31" x="395.650391"/>
     <use xlink:href="#DejaVuSans-2d" x="459.273438"/>
     <use xlink:href="#DejaVuSans-72" x="495.357422"/>
     <use xlink:href="#DejaVuSans-65" x="534.220703"/>
     <use xlink:href="#DejaVuSans-63" x="595.744141"/>
     <use xlink:href="#DejaVuSans-65" x="650.724609"/>
     <use xlink:href="#DejaVuSans-69" x="712.248047"/>
     <use xlink:href="#DejaVuSans-76" x="740.03125"/>
     <use xlink:href="#DejaVuSans-65" x="799.210938"/>
     <use xlink:href="#DejaVuSans-72" x="860.734375"/>
     <use xlink:href="#DejaVuSans-32" x="901.847656"/>
    </g>
   </g>
  </g>
 </g>
 <defs>
  <clipPath id="pd3c5105b25">
   <rect x="180" y="69.12" width="1116" height="443.52"/>
  </clipPath>
 </defs>
</svg>
