<?xml version="1.0" encoding="utf-8" standalone="no"?>
<!DOCTYPE svg PUBLIC "-//W3C//DTD SVG 1.1//EN"
  "http://www.w3.org/Graphics/SVG/1.1/DTD/svg11.dtd">
<svg xmlns:xlink="http://www.w3.org/1999/xlink" width="1440pt" height="576pt" viewBox="0 0 1440 576" xmlns="http://www.w3.org/2000/svg" version="1.1">
 <metadata>
  <rdf:RDF xmlns:dc="http://purl.org/dc/elements/1.1/" xmlns:cc="http://creativecommons.org/ns#" xmlns:rdf="http://www.w3.org/1999/02/22-rdf-syntax-ns#">
   <cc:Work>
    <dc:type rdf:resource="http://purl.org/dc/dcmitype/StillImage"/>
    <dc:date>2024-05-22T04:49:59.123376</dc:date>
    <dc:format>image/svg+xml</dc:format>
    <dc:creator>
     <cc:Agent>
      <dc:title>Matplotlib v3.8.3, https://matplotlib.org/</dc:title>
     </cc:Agent>
    </dc:creator>
   </cc:Work>
  </rdf:RDF>
 </metadata>
 <defs>
  <style type="text/css">*{stroke-linejoin: round; stroke-linecap: butt}</style>
 </defs>
 <g id="figure_1">
  <g id="patch_1">
   <path d="M 0 576 
L 1440 576 
L 1440 0 
L 0 0 
z
" style="fill: #ffffff"/>
  </g>
  <g id="axes_1">
   <g id="patch_2">
    <path d="M 180 512.64 
L 1296 512.64 
L 1296 69.12 
L 180 69.12 
z
" style="fill: #ffffff"/>
   </g>
   <g id="matplotlib.axis_1">
    <g id="xtick_1">
     <g id="line2d_1">
      <defs>
       <path id="me00227aa03" d="M 0 0 
L 0 3.5 
" style="stroke: #000000; stroke-width: 0.8"/>
      </defs>
      <g>
       <use xlink:href="#me00227aa03" x="229.734567" y="512.64" style="stroke: #000000; stroke-width: 0.8"/>
      </g>
     </g>
     <g id="text_1">
      <!-- 0 -->
      <g transform="translate(226.553317 527.238438) scale(0.1 -0.1)">
       <defs>
        <path id="DejaVuSans-30" d="M 2034 4250 
Q 1547 4250 1301 3770 
Q 1056 3291 1056 2328 
Q 1056 1369 1301 889 
Q 1547 409 2034 409 
Q 2525 409 2770 889 
Q 3016 1369 3016 2328 
Q 3016 3291 2770 3770 
Q 2525 4250 2034 4250 
z
M 2034 4750 
Q 2819 4750 3233 4129 
Q 3647 3509 3647 2328 
Q 3647 1150 3233 529 
Q 2819 -91 2034 -91 
Q 1250 -91 836 529 
Q 422 1150 422 2328 
Q 422 3509 836 4129 
Q 1250 4750 2034 4750 
z
" transform="scale(0.015625)"/>
       </defs>
       <use xlink:href="#DejaVuSans-30"/>
      </g>
     </g>
    </g>
    <g id="xtick_2">
     <g id="line2d_2">
      <g>
       <use xlink:href="#me00227aa03" x="433.04074" y="512.64" style="stroke: #000000; stroke-width: 0.8"/>
      </g>
     </g>
     <g id="text_2">
      <!-- 500 -->
      <g transform="translate(423.49699 527.238438) scale(0.1 -0.1)">
       <defs>
        <path id="DejaVuSans-35" d="M 691 4666 
L 3169 4666 
L 3169 4134 
L 1269 4134 
L 1269 2991 
Q 1406 3038 1543 3061 
Q 1681 3084 1819 3084 
Q 2600 3084 3056 2656 
Q 3513 2228 3513 1497 
Q 3513 744 3044 326 
Q 2575 -91 1722 -91 
Q 1428 -91 1123 -41 
Q 819 9 494 109 
L 494 744 
Q 775 591 1075 516 
Q 1375 441 1709 441 
Q 2250 441 2565 725 
Q 2881 1009 2881 1497 
Q 2881 1984 2565 2268 
Q 2250 2553 1709 2553 
Q 1456 2553 1204 2497 
Q 953 2441 691 2322 
L 691 4666 
z
" transform="scale(0.015625)"/>
       </defs>
       <use xlink:href="#DejaVuSans-35"/>
       <use xlink:href="#DejaVuSans-30" x="63.623047"/>
       <use xlink:href="#DejaVuSans-30" x="127.246094"/>
      </g>
     </g>
    </g>
    <g id="xtick_3">
     <g id="line2d_3">
      <g>
       <use xlink:href="#me00227aa03" x="636.346913" y="512.64" style="stroke: #000000; stroke-width: 0.8"/>
      </g>
     </g>
     <g id="text_3">
      <!-- 1000 -->
      <g transform="translate(623.621913 527.238438) scale(0.1 -0.1)">
       <defs>
        <path id="DejaVuSans-31" d="M 794 531 
L 1825 531 
L 1825 4091 
L 703 3866 
L 703 4441 
L 1819 4666 
L 2450 4666 
L 2450 531 
L 3481 531 
L 3481 0 
L 794 0 
L 794 531 
z
" transform="scale(0.015625)"/>
       </defs>
       <use xlink:href="#DejaVuSans-31"/>
       <use xlink:href="#DejaVuSans-30" x="63.623047"/>
       <use xlink:href="#DejaVuSans-30" x="127.246094"/>
       <use xlink:href="#DejaVuSans-30" x="190.869141"/>
      </g>
     </g>
    </g>
    <g id="xtick_4">
     <g id="line2d_4">
      <g>
       <use xlink:href="#me00227aa03" x="839.653087" y="512.64" style="stroke: #000000; stroke-width: 0.8"/>
      </g>
     </g>
     <g id="text_4">
      <!-- 1500 -->
      <g transform="translate(826.928087 527.238438) scale(0.1 -0.1)">
       <use xlink:href="#DejaVuSans-31"/>
       <use xlink:href="#DejaVuSans-35" x="63.623047"/>
       <use xlink:href="#DejaVuSans-30" x="127.246094"/>
       <use xlink:href="#DejaVuSans-30" x="190.869141"/>
      </g>
     </g>
    </g>
    <g id="xtick_5">
     <g id="line2d_5">
      <g>
       <use xlink:href="#me00227aa03" x="1042.95926" y="512.64" style="stroke: #000000; stroke-width: 0.8"/>
      </g>
     </g>
     <g id="text_5">
      <!-- 2000 -->
      <g transform="translate(1030.23426 527.238438) scale(0.1 -0.1)">
       <defs>
        <path id="DejaVuSans-32" d="M 1228 531 
L 3431 531 
L 3431 0 
L 469 0 
L 469 531 
Q 828 903 1448 1529 
Q 2069 2156 2228 2338 
Q 2531 2678 2651 2914 
Q 2772 3150 2772 3378 
Q 2772 3750 2511 3984 
Q 2250 4219 1831 4219 
Q 1534 4219 1204 4116 
Q 875 4013 500 3803 
L 500 4441 
Q 881 4594 1212 4672 
Q 1544 4750 1819 4750 
Q 2544 4750 2975 4387 
Q 3406 4025 3406 3419 
Q 3406 3131 3298 2873 
Q 3191 2616 2906 2266 
Q 2828 2175 2409 1742 
Q 1991 1309 1228 531 
z
" transform="scale(0.015625)"/>
       </defs>
       <use xlink:href="#DejaVuSans-32"/>
       <use xlink:href="#DejaVuSans-30" x="63.623047"/>
       <use xlink:href="#DejaVuSans-30" x="127.246094"/>
       <use xlink:href="#DejaVuSans-30" x="190.869141"/>
      </g>
     </g>
    </g>
    <g id="xtick_6">
     <g id="line2d_6">
      <g>
       <use xlink:href="#me00227aa03" x="1246.265433" y="512.64" style="stroke: #000000; stroke-width: 0.8"/>
      </g>
     </g>
     <g id="text_6">
      <!-- 2500 -->
      <g transform="translate(1233.540433 527.238438) scale(0.1 -0.1)">
       <use xlink:href="#DejaVuSans-32"/>
       <use xlink:href="#DejaVuSans-35" x="63.623047"/>
       <use xlink:href="#DejaVuSans-30" x="127.246094"/>
       <use xlink:href="#DejaVuSans-30" x="190.869141"/>
      </g>
     </g>
    </g>
   </g>
   <g id="matplotlib.axis_2">
    <g id="ytick_1">
     <g id="line2d_7">
      <defs>
       <path id="m2db98206cc" d="M 0 0 
L -3.5 0 
" style="stroke: #000000; stroke-width: 0.8"/>
      </defs>
      <g>
       <use xlink:href="#m2db98206cc" x="180" y="466.507317" style="stroke: #000000; stroke-width: 0.8"/>
      </g>
     </g>
     <g id="text_7">
      <!-- −6 -->
      <g transform="translate(158.257812 470.306536) scale(0.1 -0.1)">
       <defs>
        <path id="DejaVuSans-2212" d="M 678 2272 
L 4684 2272 
L 4684 1741 
L 678 1741 
L 678 2272 
z
" transform="scale(0.015625)"/>
        <path id="DejaVuSans-36" d="M 2113 2584 
Q 1688 2584 1439 2293 
Q 1191 2003 1191 1497 
Q 1191 994 1439 701 
Q 1688 409 2113 409 
Q 2538 409 2786 701 
Q 3034 994 3034 1497 
Q 3034 2003 2786 2293 
Q 2538 2584 2113 2584 
z
M 3366 4563 
L 3366 3988 
Q 3128 4100 2886 4159 
Q 2644 4219 2406 4219 
Q 1781 4219 1451 3797 
Q 1122 3375 1075 2522 
Q 1259 2794 1537 2939 
Q 1816 3084 2150 3084 
Q 2853 3084 3261 2657 
Q 3669 2231 3669 1497 
Q 3669 778 3244 343 
Q 2819 -91 2113 -91 
Q 1303 -91 875 529 
Q 447 1150 447 2328 
Q 447 3434 972 4092 
Q 1497 4750 2381 4750 
Q 2619 4750 2861 4703 
Q 3103 4656 3366 4563 
z
" transform="scale(0.015625)"/>
       </defs>
       <use xlink:href="#DejaVuSans-2212"/>
       <use xlink:href="#DejaVuSans-36" x="83.789062"/>
      </g>
     </g>
    </g>
    <g id="ytick_2">
     <g id="line2d_8">
      <g>
       <use xlink:href="#m2db98206cc" x="180" y="387.734154" style="stroke: #000000; stroke-width: 0.8"/>
      </g>
     </g>
     <g id="text_8">
      <!-- −4 -->
      <g transform="translate(158.257812 391.533373) scale(0.1 -0.1)">
       <defs>
        <path id="DejaVuSans-34" d="M 2419 4116 
L 825 1625 
L 2419 1625 
L 2419 4116 
z
M 2253 4666 
L 3047 4666 
L 3047 1625 
L 3713 1625 
L 3713 1100 
L 3047 1100 
L 3047 0 
L 2419 0 
L 2419 1100 
L 313 1100 
L 313 1709 
L 2253 4666 
z
" transform="scale(0.015625)"/>
       </defs>
       <use xlink:href="#DejaVuSans-2212"/>
       <use xlink:href="#DejaVuSans-34" x="83.789062"/>
      </g>
     </g>
    </g>
    <g id="ytick_3">
     <g id="line2d_9">
      <g>
       <use xlink:href="#m2db98206cc" x="180" y="308.960992" style="stroke: #000000; stroke-width: 0.8"/>
      </g>
     </g>
     <g id="text_9">
      <!-- −2 -->
      <g transform="translate(158.257812 312.76021) scale(0.1 -0.1)">
       <use xlink:href="#DejaVuSans-2212"/>
       <use xlink:href="#DejaVuSans-32" x="83.789062"/>
      </g>
     </g>
    </g>
    <g id="ytick_4">
     <g id="line2d_10">
      <g>
       <use xlink:href="#m2db98206cc" x="180" y="230.187829" style="stroke: #000000; stroke-width: 0.8"/>
      </g>
     </g>
     <g id="text_10">
      <!-- 0 -->
      <g transform="translate(166.6375 233.987048) scale(0.1 -0.1)">
       <use xlink:href="#DejaVuSans-30"/>
      </g>
     </g>
    </g>
    <g id="ytick_5">
     <g id="line2d_11">
      <g>
       <use xlink:href="#m2db98206cc" x="180" y="151.414667" style="stroke: #000000; stroke-width: 0.8"/>
      </g>
     </g>
     <g id="text_11">
      <!-- 2 -->
      <g transform="translate(166.6375 155.213885) scale(0.1 -0.1)">
       <use xlink:href="#DejaVuSans-32"/>
      </g>
     </g>
    </g>
    <g id="ytick_6">
     <g id="line2d_12">
      <g>
       <use xlink:href="#m2db98206cc" x="180" y="72.641504" style="stroke: #000000; stroke-width: 0.8"/>
      </g>
     </g>
     <g id="text_12">
      <!-- 4 -->
      <g transform="translate(166.6375 76.440723) scale(0.1 -0.1)">
       <use xlink:href="#DejaVuSans-34"/>
      </g>
     </g>
    </g>
   </g>
   <g id="line2d_13">
    <path d="M 230.727273 305.090435 
L 231.719979 305.60432 
L 232.712685 305.011433 
L 234.698096 304.525263 
L 235.690802 304.047452 
L 236.683508 303.717168 
L 237.676214 302.598214 
L 238.66892 302.218336 
L 239.661626 301.135003 
L 240.654332 299.784661 
L 241.647038 298.986373 
L 242.639744 296.919805 
L 243.63245 295.130662 
L 244.625156 293.726046 
L 245.617862 293.187872 
L 246.610568 285.169426 
L 248.595979 250.705442 
L 249.588685 240.300511 
L 250.581391 239.025763 
L 251.574097 238.055953 
L 252.566803 227.964061 
L 253.559509 211.517858 
L 254.552215 198.141201 
L 255.544921 189.326564 
L 256.537627 181.703996 
L 257.530333 182.768687 
L 258.523039 192.014185 
L 259.515745 211.838073 
L 260.50845 241.715248 
L 261.501156 281.344414 
L 262.493862 296.104713 
L 263.486568 240.302188 
L 264.479274 226.697143 
L 265.47198 221.13808 
L 266.464686 220.382698 
L 267.457392 244.508141 
L 268.450098 221.291997 
L 269.442804 181.366098 
L 270.43551 165.42314 
L 271.428216 167.162215 
L 272.420922 184.340795 
L 273.413627 166.718252 
L 274.406333 136.848071 
L 275.399039 120.975327 
L 276.391745 112.908762 
L 278.377157 105.702426 
L 279.369863 99.69101 
L 280.362569 92.977374 
L 281.355275 89.28 
L 282.347981 90.171585 
L 283.340687 97.615824 
L 284.333393 113.528376 
L 286.318804 176.7628 
L 287.31151 152.798122 
L 288.304216 148.699868 
L 289.296922 154.026498 
L 290.289628 158.722891 
L 291.282334 162.744092 
L 292.27504 172.287675 
L 294.260452 188.592697 
L 296.245864 219.001574 
L 297.23857 201.164037 
L 298.231276 191.1416 
L 299.223981 182.807497 
L 300.216687 181.027538 
L 301.209393 185.565749 
L 302.202099 188.129392 
L 303.194805 188.234151 
L 304.187511 194.536107 
L 305.180217 210.790505 
L 306.172923 220.138654 
L 307.165629 221.589548 
L 308.158335 230.462455 
L 309.151041 251.675181 
L 310.143747 243.329496 
L 311.136453 251.313215 
L 312.129159 266.826134 
L 313.121864 274.568065 
L 314.11457 287.798118 
L 315.107276 318.083264 
L 316.099982 340.22126 
L 317.092688 333.100664 
L 318.085394 331.81653 
L 319.0781 318.31306 
L 320.070806 351.867453 
L 321.063512 349.500302 
L 322.056218 332.139286 
L 323.048924 350.808673 
L 324.04163 334.738834 
L 325.034336 338.625363 
L 326.027041 319.502049 
L 327.019747 339.428536 
L 328.012453 331.407569 
L 329.005159 367.282003 
L 329.997865 349.854136 
L 330.990571 343.337204 
L 331.983277 397.808753 
L 332.975983 327.924887 
L 333.968689 345.727289 
L 334.961395 407.53305 
L 335.954101 334.296972 
L 336.946807 375.688585 
L 337.939513 355.155845 
L 338.932218 380.486081 
L 339.924924 369.476722 
L 340.91763 344.942556 
L 341.910336 359.900071 
L 342.903042 362.286057 
L 343.895748 332.741591 
L 344.888454 434.552277 
L 345.88116 368.660762 
L 346.873866 394.717205 
L 347.866572 332.133813 
L 348.859278 359.473956 
L 349.851984 319.920554 
L 350.84469 349.305804 
L 351.837395 353.393077 
L 352.830101 337.860039 
L 353.822807 341.490182 
L 354.815513 363.602917 
L 355.808219 365.995119 
L 356.800925 346.979571 
L 357.793631 336.140127 
L 358.786337 354.931269 
L 359.779043 363.500496 
L 360.771749 340.612951 
L 361.764455 362.595554 
L 362.757161 342.411626 
L 363.749867 367.497921 
L 364.742572 329.232288 
L 365.735278 358.086788 
L 366.727984 344.377005 
L 367.72069 368.571561 
L 368.713396 332.796925 
L 369.706102 333.148021 
L 370.698808 353.038295 
L 371.691514 356.021947 
L 372.68422 341.433708 
L 373.676926 358.560787 
L 374.669632 365.529385 
L 375.662338 386.338405 
L 376.655044 362.566129 
L 377.64775 378.723438 
L 378.640455 388.359621 
L 379.633161 341.669621 
L 380.625867 336.903431 
L 381.618573 343.107914 
L 382.611279 347.781147 
L 383.603985 345.21659 
L 384.596691 359.886014 
L 385.589397 340.596113 
L 386.582103 358.344848 
L 387.574809 357.136413 
L 388.567515 366.931409 
L 389.560221 363.435988 
L 390.552927 391.294867 
L 391.545632 345.918576 
L 392.538338 378.889833 
L 393.531044 381.9315 
L 394.52375 336.671468 
L 395.516456 340.50626 
L 396.509162 369.495571 
L 397.501868 348.369477 
L 398.494574 392.477892 
L 399.48728 395.033588 
L 400.479986 413.923611 
L 401.472692 428.979965 
L 402.465398 344.085046 
L 403.458104 371.48673 
L 404.450809 369.234431 
L 405.443515 381.00291 
L 406.436221 358.532853 
L 407.428927 325.630344 
L 408.421633 349.129701 
L 409.414339 362.614958 
L 410.407045 350.09373 
L 411.399751 359.306384 
L 413.385163 441.330402 
L 414.377869 385.868583 
L 415.370575 317.488302 
L 416.363281 367.141117 
L 417.355986 340.605737 
L 418.348692 368.352452 
L 419.341398 332.921748 
L 420.334104 389.1122 
L 421.32681 348.276361 
L 422.319516 380.056857 
L 423.312222 360.135767 
L 424.304928 378.490141 
L 425.297634 347.327332 
L 426.29034 383.626146 
L 427.283046 367.068524 
L 428.275752 375.440344 
L 429.268458 371.161845 
L 430.261163 356.514956 
L 431.253869 363.650963 
L 432.246575 380.570602 
L 433.239281 335.339826 
L 434.231987 363.062956 
L 435.224693 363.883216 
L 436.217399 356.079208 
L 437.210105 386.111848 
L 438.202811 335.460598 
L 439.195517 363.180971 
L 440.188223 357.071575 
L 441.180929 343.205295 
L 442.173635 386.323613 
L 443.166341 385.020995 
L 444.159046 356.218882 
L 445.151752 360.930457 
L 446.144458 427.4424 
L 448.12987 349.323025 
L 449.122576 419.259985 
L 450.115282 367.441314 
L 451.107988 380.59858 
L 452.100694 369.339678 
L 453.0934 366.353182 
L 454.086106 427.586392 
L 455.078812 396.574883 
L 456.071518 332.095936 
L 457.064223 357.49124 
L 458.056929 393.571346 
L 459.049635 346.926471 
L 460.042341 430.680309 
L 461.035047 356.689232 
L 462.027753 359.877972 
L 463.020459 348.70098 
L 464.013165 377.913934 
L 465.005871 349.85536 
L 465.998577 350.419874 
L 466.991283 463.47297 
L 467.983989 367.222741 
L 468.976695 362.78635 
L 469.9694 408.613795 
L 470.962106 396.703398 
L 471.954812 351.917223 
L 472.947518 354.111983 
L 473.940224 352.064878 
L 474.93293 434.354115 
L 475.925636 381.16245 
L 476.918342 341.918424 
L 477.911048 360.490026 
L 478.903754 347.419421 
L 479.89646 356.275357 
L 480.889166 341.146544 
L 481.881872 358.935879 
L 482.874577 342.496975 
L 483.867283 351.729991 
L 484.859989 344.170519 
L 485.852695 323.15411 
L 486.845401 353.798703 
L 487.838107 345.398627 
L 488.830813 374.603614 
L 489.823519 371.062709 
L 490.816225 381.969186 
L 491.808931 354.248337 
L 492.801637 365.94191 
L 493.794343 371.715986 
L 494.787049 324.341527 
L 495.779754 352.057869 
L 496.77246 356.370347 
L 497.765166 336.252585 
L 498.757872 357.005054 
L 499.750578 476.950155 
L 500.743284 356.041295 
L 501.73599 332.931605 
L 502.728696 352.091466 
L 503.721402 323.016198 
L 504.714108 337.929022 
L 505.706814 370.326336 
L 506.69952 356.409855 
L 507.692226 486.035264 
L 508.684932 355.742411 
L 509.677637 329.849056 
L 510.670343 391.651752 
L 512.655755 367.509632 
L 513.648461 359.896839 
L 514.641167 367.601649 
L 515.633873 371.568981 
L 516.626579 359.059784 
L 518.611991 328.558008 
L 519.604697 350.021826 
L 520.597403 357.912569 
L 521.590109 350.476417 
L 522.582814 317.511154 
L 523.57552 339.458751 
L 524.568226 321.742537 
L 525.560932 341.124453 
L 526.553638 400.492954 
L 528.53905 325.864714 
L 529.531756 365.878533 
L 530.524462 322.659615 
L 531.517168 368.358747 
L 532.509874 398.126831 
L 533.50258 337.459449 
L 534.495286 405.283297 
L 535.487991 346.474474 
L 536.480697 332.022215 
L 537.473403 336.21215 
L 538.466109 338.081155 
L 539.458815 338.824835 
L 540.451521 340.209791 
L 541.444227 336.270586 
L 542.436933 352.07118 
L 543.429639 309.066659 
L 544.422345 328.235642 
L 545.415051 344.507544 
L 547.400463 356.415644 
L 549.385874 370.213733 
L 550.37858 386.260223 
L 551.371286 327.559376 
L 552.363992 454.719547 
L 553.356698 346.87 
L 554.349404 339.765625 
L 555.34211 356.460862 
L 556.334816 444.29648 
L 557.327522 347.439339 
L 558.320228 354.787133 
L 559.312934 419.66755 
L 560.30564 350.708747 
L 561.298345 355.049479 
L 562.291051 349.51307 
L 563.283757 491.18446 
L 564.276463 346.902414 
L 565.269169 332.440017 
L 566.261875 367.709299 
L 567.254581 359.278332 
L 568.247287 345.238891 
L 569.239993 423.025084 
L 570.232699 371.337228 
L 571.225405 356.297517 
L 572.218111 354.357232 
L 573.210817 359.930591 
L 574.203523 376.53534 
L 575.196228 408.166064 
L 576.188934 422.520851 
L 577.18164 328.128335 
L 578.174346 378.292075 
L 579.167052 379.277938 
L 581.152464 337.400642 
L 582.14517 346.681913 
L 583.137876 397.971056 
L 584.130582 406.80423 
L 586.115994 349.398935 
L 587.1087 361.816659 
L 588.101405 323.132692 
L 589.094111 403.090557 
L 590.086817 386.53246 
L 591.079523 374.790533 
L 592.072229 373.029277 
L 593.064935 369.097444 
L 594.057641 371.191542 
L 595.050347 345.575885 
L 596.043053 387.244917 
L 597.035759 403.715736 
L 599.021171 349.017113 
L 600.013877 371.221781 
L 601.006582 372.326451 
L 601.999288 424.986209 
L 602.991994 362.322976 
L 603.9847 364.550612 
L 605.970112 383.792495 
L 606.962818 405.601198 
L 607.955524 395.032681 
L 608.94823 388.562343 
L 609.940936 403.066527 
L 610.933642 414.832768 
L 611.926348 398.266036 
L 612.919054 367.542135 
L 613.911759 421.582513 
L 614.904465 377.106642 
L 615.897171 429.282879 
L 616.889877 401.394082 
L 617.882583 425.8563 
L 618.875289 365.472758 
L 619.867995 386.22711 
L 620.860701 432.953834 
L 621.853407 453.240527 
L 622.846113 402.109181 
L 623.838819 426.178526 
L 624.831525 402.637375 
L 625.824231 391.553424 
L 626.816936 397.943852 
L 627.809642 466.777814 
L 628.802348 387.949933 
L 629.795054 368.939696 
L 630.78776 379.891814 
L 631.780466 434.597914 
L 632.773172 446.778997 
L 633.765878 424.163191 
L 634.758584 407.916816 
L 635.75129 464.28008 
L 636.743996 396.046513 
L 637.736702 492.48 
L 638.729408 407.218627 
L 639.722114 368.137592 
L 640.714819 470.500997 
L 641.707525 448.292842 
L 642.700231 415.194921 
L 643.692937 403.553081 
L 644.685643 393.726476 
L 645.678349 387.650667 
L 646.671055 451.873643 
L 647.663761 410.664953 
L 648.656467 440.125009 
L 649.649173 438.502306 
L 650.641879 389.11846 
L 651.634585 406.944797 
L 652.627291 413.794807 
L 653.619996 410.01532 
L 654.612702 447.022799 
L 655.605408 435.319809 
L 656.598114 440.233748 
L 657.59082 397.465976 
L 658.583526 414.677282 
L 659.576232 415.626722 
L 660.568938 426.845195 
L 661.561644 459.545327 
L 662.55435 486.293446 
L 663.547056 441.535538 
L 664.539762 442.750582 
L 665.532468 405.82541 
L 666.525173 417.163054 
L 667.517879 431.723781 
L 668.510585 429.01676 
L 669.503291 405.493283 
L 670.495997 433.146872 
L 671.488703 432.93463 
L 672.481409 406.844165 
L 673.474115 427.549514 
L 674.466821 419.309862 
L 675.459527 438.821893 
L 676.452233 434.092518 
L 677.444939 415.437808 
L 678.437645 436.949282 
L 679.43035 414.461986 
L 680.423056 430.925018 
L 681.415762 428.700409 
L 682.408468 417.25852 
L 683.401174 431.84818 
L 684.39388 414.9231 
L 686.379292 458.747255 
L 687.371998 435.980207 
L 688.364704 436.6076 
L 689.35741 427.272967 
L 690.350116 435.860839 
L 691.342822 417.214875 
L 692.335527 427.025905 
L 693.328233 457.947687 
L 694.320939 444.108237 
L 695.313645 436.034044 
L 696.306351 458.900801 
L 697.299057 431.999695 
L 698.291763 427.850291 
L 699.284469 418.420468 
L 700.277175 434.577886 
L 701.269881 447.823323 
L 702.262587 473.949043 
L 703.255293 425.320684 
L 704.247999 435.823954 
L 705.240705 425.15492 
L 706.23341 438.299319 
L 707.226116 426.222466 
L 708.218822 429.604339 
L 709.211528 442.158459 
L 710.204234 432.534215 
L 711.19694 445.387844 
L 712.189646 441.189674 
L 713.182352 426.898629 
L 714.175058 422.524064 
L 715.167764 422.60651 
L 716.16047 419.005926 
L 717.153176 441.412053 
L 718.145882 436.854273 
L 719.138587 431.757298 
L 720.131293 416.171261 
L 721.123999 424.977035 
L 723.109411 437.953781 
L 724.102117 433.99865 
L 725.094823 428.247724 
L 726.087529 437.543392 
L 727.080235 432.542856 
L 728.072941 448.064587 
L 729.065647 434.909769 
L 730.058353 438.135272 
L 731.051059 438.744982 
L 732.043764 438.16496 
L 733.03647 423.410016 
L 734.029176 429.485299 
L 735.021882 439.045673 
L 736.014588 428.625941 
L 738 441.692419 
L 738.992706 446.170697 
L 739.985412 426.591666 
L 740.978118 444.4408 
L 741.970824 448.552255 
L 742.96353 435.169276 
L 743.956236 442.705751 
L 744.948941 437.12154 
L 745.941647 428.47513 
L 746.934353 430.955315 
L 747.927059 429.596684 
L 748.919765 438.581639 
L 749.912471 437.242218 
L 750.905177 437.448084 
L 751.897883 440.118194 
L 752.890589 440.577015 
L 753.883295 431.521285 
L 754.876001 435.226995 
L 755.868707 434.679108 
L 756.861413 431.662814 
L 757.854118 443.799404 
L 758.846824 446.417734 
L 759.83953 433.754798 
L 760.832236 433.680205 
L 761.824942 445.943934 
L 762.817648 443.914959 
L 763.810354 420.642622 
L 764.80306 433.83932 
L 765.795766 436.219876 
L 766.788472 433.449539 
L 767.781178 439.358961 
L 768.773884 433.441655 
L 769.76659 436.471175 
L 770.759295 426.26093 
L 771.752001 437.041372 
L 772.744707 438.189386 
L 773.737413 437.286644 
L 774.730119 442.560009 
L 775.722825 438.753427 
L 776.715531 425.988985 
L 777.708237 433.101964 
L 778.700943 437.33042 
L 779.693649 425.706288 
L 780.686355 430.741939 
L 781.679061 434.563762 
L 782.671767 437.788527 
L 783.664473 436.471184 
L 784.657178 438.10957 
L 785.649884 439.284272 
L 787.635296 432.775452 
L 788.628002 446.800075 
L 789.620708 437.968852 
L 790.613414 433.131862 
L 791.60612 430.109281 
L 792.598826 433.260733 
L 793.591532 440.79382 
L 794.584238 428.133646 
L 795.576944 440.68747 
L 796.56965 433.544154 
L 797.562355 449.381617 
L 798.555061 435.649653 
L 799.547767 426.700169 
L 800.540473 435.755154 
L 801.533179 436.161167 
L 802.525885 442.084828 
L 803.518591 442.170681 
L 804.511297 435.603227 
L 805.504003 446.625203 
L 806.496709 438.281357 
L 807.489415 436.590148 
L 808.482121 426.804417 
L 810.467532 438.444197 
L 811.460238 432.53746 
L 812.452944 428.906185 
L 813.44565 427.52409 
L 814.438356 439.434818 
L 815.431062 440.257868 
L 816.423768 433.310487 
L 817.416474 452.031288 
L 818.40918 434.705576 
L 819.401886 426.789463 
L 820.394592 429.268653 
L 821.387298 439.027451 
L 822.380004 438.501396 
L 823.372709 432.886429 
L 824.365415 442.589852 
L 825.358121 434.720235 
L 826.350827 445.009689 
L 827.343533 442.300032 
L 828.336239 431.442891 
L 829.328945 444.898347 
L 830.321651 441.625758 
L 831.314357 443.305168 
L 832.307063 435.529945 
L 833.299769 437.547203 
L 834.292475 445.156303 
L 835.285181 434.536212 
L 836.277886 439.353383 
L 837.270592 437.464498 
L 838.263298 443.862041 
L 839.256004 438.918702 
L 840.24871 436.113391 
L 841.241416 437.31767 
L 842.234122 442.552559 
L 843.226828 444.190278 
L 844.219534 433.883238 
L 845.21224 431.731576 
L 846.204946 438.412795 
L 847.197652 436.773867 
L 848.190358 425.26792 
L 849.183064 433.39054 
L 850.175769 437.401219 
L 851.168475 431.926166 
L 852.161181 435.81733 
L 853.153887 435.158079 
L 854.146593 442.796092 
L 855.139299 438.89412 
L 856.132005 442.414154 
L 857.124711 442.095351 
L 858.117417 447.553978 
L 859.110123 437.127822 
L 860.102829 444.334333 
L 861.095535 444.965861 
L 862.088241 429.321624 
L 863.080946 433.52512 
L 864.073652 440.024837 
L 865.066358 425.697258 
L 866.059064 437.64403 
L 867.05177 427.085579 
L 868.044476 439.005247 
L 869.037182 437.332472 
L 870.029888 441.722931 
L 871.022594 443.389114 
L 872.0153 436.364949 
L 873.008006 436.344663 
L 874.000712 446.969247 
L 874.993418 442.991206 
L 875.986123 449.399377 
L 876.978829 437.355834 
L 877.971535 448.108516 
L 878.964241 449.599316 
L 879.956947 437.791475 
L 880.949653 436.569267 
L 881.942359 428.245388 
L 882.935065 436.74873 
L 883.927771 435.310638 
L 884.920477 438.374627 
L 885.913183 442.626329 
L 886.905889 442.637032 
L 887.898595 440.438301 
L 888.8913 436.85176 
L 889.884006 446.510162 
L 890.876712 447.445503 
L 891.869418 433.672184 
L 892.862124 430.796767 
L 893.85483 448.920174 
L 894.847536 445.457422 
L 895.840242 438.478844 
L 896.832948 447.27515 
L 897.825654 434.46839 
L 898.81836 446.953797 
L 899.811066 449.303352 
L 900.803772 443.204214 
L 901.796477 446.437858 
L 902.789183 438.101302 
L 903.781889 438.475201 
L 904.774595 447.061047 
L 905.767301 442.419789 
L 906.760007 439.747799 
L 907.752713 437.742838 
L 908.745419 440.232385 
L 909.738125 437.153491 
L 910.730831 434.650807 
L 911.723537 440.846202 
L 912.716243 432.192959 
L 913.708949 437.425362 
L 914.701655 434.164634 
L 915.69436 454.977421 
L 916.687066 447.553834 
L 917.679772 444.002103 
L 918.672478 446.588097 
L 919.665184 440.762307 
L 920.65789 440.134669 
L 921.650596 439.023124 
L 922.643302 438.393267 
L 923.636008 434.700479 
L 924.628714 442.442873 
L 925.62142 452.092432 
L 926.614126 439.347381 
L 927.606832 434.899768 
L 928.599537 438.896962 
L 929.592243 440.428674 
L 930.584949 435.206762 
L 931.577655 448.243391 
L 932.570361 435.568776 
L 933.563067 438.23479 
L 934.555773 444.750859 
L 935.548479 442.256957 
L 936.541185 435.050647 
L 937.533891 443.405771 
L 938.526597 441.548664 
L 939.519303 437.661328 
L 940.512009 440.448837 
L 941.504714 451.970082 
L 942.49742 431.93989 
L 943.490126 443.683123 
L 944.482832 439.25358 
L 945.475538 444.141588 
L 946.468244 440.601623 
L 947.46095 445.613787 
L 948.453656 442.65608 
L 949.446362 446.202268 
L 950.439068 446.2746 
L 951.431774 441.977943 
L 952.42448 443.726461 
L 953.417186 440.916173 
L 954.409891 437.363916 
L 955.402597 440.907898 
L 956.395303 442.211193 
L 957.388009 453.086621 
L 958.380715 438.390728 
L 959.373421 437.798878 
L 960.366127 438.189896 
L 961.358833 439.224728 
L 962.351539 444.112502 
L 963.344245 440.578025 
L 964.336951 440.833314 
L 965.329657 451.127364 
L 966.322363 441.540407 
L 967.315068 440.293394 
L 968.307774 440.735816 
L 969.30048 444.250772 
L 970.293186 450.081799 
L 971.285892 434.732821 
L 972.278598 450.09918 
L 973.271304 451.225106 
L 974.26401 437.500717 
L 975.256716 468.602142 
L 976.249422 444.467937 
L 977.242128 438.156539 
L 978.234834 437.022577 
L 979.22754 455.660001 
L 980.220246 444.723765 
L 981.212951 440.809917 
L 982.205657 438.808611 
L 983.198363 432.068511 
L 984.191069 441.981258 
L 985.183775 431.596615 
L 986.176481 457.614899 
L 987.169187 436.218376 
L 988.161893 433.831556 
L 990.147305 444.871176 
L 991.140011 449.44938 
L 992.132717 447.198774 
L 993.125423 458.603328 
L 994.118128 450.2452 
L 995.110834 445.405836 
L 996.10354 446.910891 
L 997.096246 447.300127 
L 998.088952 432.340608 
L 999.081658 440.425735 
L 1000.074364 445.000609 
L 1001.06707 445.651331 
L 1002.059776 447.191248 
L 1003.052482 452.621385 
L 1004.045188 451.629685 
L 1005.037894 455.331315 
L 1006.0306 454.437222 
L 1007.023305 443.84162 
L 1009.008717 451.772668 
L 1010.001423 445.044982 
L 1010.994129 453.39898 
L 1011.986835 447.870615 
L 1012.979541 443.851178 
L 1013.972247 443.073615 
L 1014.964953 445.650755 
L 1015.957659 437.12585 
L 1016.950365 445.198311 
L 1017.943071 441.431145 
L 1018.935777 455.354288 
L 1019.928482 444.397667 
L 1020.921188 435.496721 
L 1021.913894 459.394471 
L 1022.9066 435.942877 
L 1023.899306 439.521714 
L 1024.892012 431.934914 
L 1025.884718 445.342017 
L 1026.877424 436.276762 
L 1027.87013 448.240218 
L 1028.862836 453.651024 
L 1029.855542 444.778056 
L 1030.848248 442.278799 
L 1031.840954 438.92029 
L 1032.833659 449.749114 
L 1033.826365 440.652407 
L 1034.819071 443.195914 
L 1035.811777 454.531223 
L 1036.804483 450.592379 
L 1037.797189 443.623542 
L 1038.789895 438.356912 
L 1039.782601 441.649518 
L 1040.775307 451.210616 
L 1041.768013 442.434037 
L 1042.760719 444.871412 
L 1043.753425 432.27645 
L 1044.746131 440.124204 
L 1045.738837 437.479198 
L 1047.724248 441.010038 
L 1048.716954 450.052306 
L 1049.70966 444.22698 
L 1050.702366 443.779923 
L 1051.695072 447.596158 
L 1052.687778 444.504061 
L 1053.680484 436.693121 
L 1054.67319 444.950401 
L 1055.665896 443.399196 
L 1056.658602 440.79217 
L 1057.651308 440.706363 
L 1058.644014 448.847728 
L 1059.636719 437.442565 
L 1060.629425 441.279688 
L 1061.622131 437.914793 
L 1062.614837 441.137471 
L 1063.607543 442.175086 
L 1064.600249 454.649971 
L 1065.592955 444.626111 
L 1066.585661 445.112068 
L 1067.578367 438.480067 
L 1068.571073 435.794297 
L 1069.563779 444.493251 
L 1070.556485 437.841181 
L 1071.549191 453.061428 
L 1072.541896 443.541453 
L 1073.534602 444.224168 
L 1074.527308 441.069644 
L 1075.520014 441.736925 
L 1076.51272 441.081527 
L 1077.505426 476.365565 
L 1078.498132 441.462245 
L 1079.490838 436.029378 
L 1080.483544 446.916352 
L 1081.47625 452.021118 
L 1082.468956 449.955356 
L 1083.461662 442.028732 
L 1084.454368 447.378128 
L 1085.447073 450.403452 
L 1086.439779 443.771689 
L 1087.432485 448.081699 
L 1088.425191 444.482944 
L 1089.417897 446.80719 
L 1090.410603 454.84515 
L 1091.403309 459.113703 
L 1092.396015 439.123367 
L 1093.388721 444.05537 
L 1094.381427 446.785787 
L 1095.374133 451.083275 
L 1097.359545 439.135399 
L 1098.35225 437.822836 
L 1099.344956 443.082727 
L 1100.337662 473.651905 
L 1101.330368 441.708486 
L 1102.323074 446.897236 
L 1103.31578 450.554767 
L 1104.308486 450.014199 
L 1105.301192 436.872842 
L 1106.293898 448.815567 
L 1107.286604 436.997192 
L 1108.27931 437.246552 
L 1109.272016 442.215171 
L 1110.264722 456.173185 
L 1111.257428 446.922586 
L 1112.250133 439.785129 
L 1113.242839 439.552443 
L 1114.235545 441.435724 
L 1115.228251 447.972045 
L 1116.220957 444.636845 
L 1117.213663 448.082624 
L 1118.206369 452.628394 
L 1119.199075 439.307363 
L 1120.191781 448.501877 
L 1121.184487 445.486094 
L 1122.177193 439.656675 
L 1123.169899 447.823286 
L 1124.162605 445.904069 
L 1125.15531 457.728016 
L 1126.148016 445.882868 
L 1127.140722 452.444076 
L 1128.133428 433.222553 
L 1129.126134 436.36454 
L 1130.11884 436.495067 
L 1131.111546 446.825564 
L 1132.104252 443.761521 
L 1133.096958 454.406559 
L 1134.089664 441.274613 
L 1135.08237 443.172499 
L 1136.075076 450.484375 
L 1137.067782 435.734767 
L 1138.060487 448.102118 
L 1139.053193 442.804864 
L 1140.045899 444.409376 
L 1141.038605 452.778815 
L 1142.031311 442.553081 
L 1143.024017 446.123134 
L 1144.016723 438.0377 
L 1145.009429 444.106717 
L 1146.002135 439.479363 
L 1146.994841 446.003095 
L 1147.987547 440.114907 
L 1148.980253 449.423582 
L 1149.972959 433.914445 
L 1150.965664 437.48955 
L 1152.951076 455.327731 
L 1154.936488 435.484454 
L 1155.929194 438.810924 
L 1156.9219 434.870775 
L 1157.914606 442.913163 
L 1158.907312 455.481917 
L 1159.900018 439.641149 
L 1160.892724 453.684182 
L 1161.88543 447.609958 
L 1162.878136 451.713683 
L 1163.870841 442.747323 
L 1164.863547 438.074293 
L 1165.856253 455.265715 
L 1166.848959 448.293442 
L 1167.841665 443.234571 
L 1168.834371 434.645183 
L 1169.827077 444.610299 
L 1170.819783 443.023655 
L 1171.812489 447.683063 
L 1172.805195 450.531738 
L 1173.797901 446.375461 
L 1174.790607 443.94089 
L 1175.783313 447.3079 
L 1176.776019 446.054929 
L 1177.768724 440.705999 
L 1178.76143 455.252473 
L 1179.754136 446.030989 
L 1180.746842 441.718881 
L 1181.739548 440.781378 
L 1182.732254 443.526351 
L 1183.72496 441.208555 
L 1184.717666 449.750569 
L 1185.710372 449.539697 
L 1186.703078 466.889496 
L 1187.695784 446.818303 
L 1188.68849 450.230641 
L 1189.681196 445.132027 
L 1190.673901 445.567688 
L 1191.666607 436.502072 
L 1192.659313 446.467192 
L 1193.652019 436.636483 
L 1194.644725 451.477023 
L 1195.637431 451.737317 
L 1196.630137 462.054731 
L 1197.622843 449.007669 
L 1198.615549 439.053193 
L 1199.608255 441.333043 
L 1200.600961 450.733455 
L 1201.593667 450.955044 
L 1202.586373 441.626742 
L 1203.579078 447.263434 
L 1204.571784 443.944202 
L 1205.56449 448.875591 
L 1206.557196 443.799909 
L 1207.549902 436.384166 
L 1208.542608 440.658812 
L 1209.535314 453.100287 
L 1210.52802 441.700138 
L 1211.520726 445.528767 
L 1212.513432 450.224023 
L 1213.506138 445.18177 
L 1214.498844 446.373186 
L 1215.49155 446.891532 
L 1216.484255 458.566597 
L 1217.476961 456.800613 
L 1218.469667 443.395226 
L 1219.462373 442.692636 
L 1220.455079 433.232196 
L 1221.447785 445.049702 
L 1222.440491 446.862422 
L 1223.433197 458.228892 
L 1224.425903 447.253824 
L 1225.418609 453.575833 
L 1227.404021 445.142593 
L 1228.396727 448.616439 
L 1229.389432 446.772374 
L 1230.382138 443.957181 
L 1231.374844 449.897271 
L 1232.36755 445.407806 
L 1233.360256 446.373899 
L 1234.352962 450.070247 
L 1236.338374 445.228536 
L 1237.33108 446.691599 
L 1238.323786 441.717389 
L 1239.316492 446.161799 
L 1240.309198 447.162878 
L 1241.301904 449.429607 
L 1242.29461 439.870277 
L 1243.287315 442.897499 
L 1244.280021 463.455251 
L 1245.272727 445.642544 
L 1245.272727 445.642544 
" clip-path="url(#pb5771a8755)" style="fill: none; stroke: #1f77b4; stroke-width: 1.5; stroke-linecap: square"/>
   </g>
   <g id="patch_3">
    <path d="M 180 512.64 
L 180 69.12 
" style="fill: none; stroke: #000000; stroke-width: 0.8; stroke-linejoin: miter; stroke-linecap: square"/>
   </g>
   <g id="patch_4">
    <path d="M 1296 512.64 
L 1296 69.12 
" style="fill: none; stroke: #000000; stroke-width: 0.8; stroke-linejoin: miter; stroke-linecap: square"/>
   </g>
   <g id="patch_5">
    <path d="M 180 512.64 
L 1296 512.64 
" style="fill: none; stroke: #000000; stroke-width: 0.8; stroke-linejoin: miter; stroke-linecap: square"/>
   </g>
   <g id="patch_6">
    <path d="M 180 69.12 
L 1296 69.12 
" style="fill: none; stroke: #000000; stroke-width: 0.8; stroke-linejoin: miter; stroke-linecap: square"/>
   </g>
   <g id="text_13">
    <!-- source11-receiver3 -->
    <g transform="translate(544.9 60.80125) scale(0.4 -0.4)">
     <defs>
      <path id="DejaVuSans-73" d="M 2834 3397 
L 2834 2853 
Q 2591 2978 2328 3040 
Q 2066 3103 1784 3103 
Q 1356 3103 1142 2972 
Q 928 2841 928 2578 
Q 928 2378 1081 2264 
Q 1234 2150 1697 2047 
L 1894 2003 
Q 2506 1872 2764 1633 
Q 3022 1394 3022 966 
Q 3022 478 2636 193 
Q 2250 -91 1575 -91 
Q 1294 -91 989 -36 
Q 684 19 347 128 
L 347 722 
Q 666 556 975 473 
Q 1284 391 1588 391 
Q 1994 391 2212 530 
Q 2431 669 2431 922 
Q 2431 1156 2273 1281 
Q 2116 1406 1581 1522 
L 1381 1569 
Q 847 1681 609 1914 
Q 372 2147 372 2553 
Q 372 3047 722 3315 
Q 1072 3584 1716 3584 
Q 2034 3584 2315 3537 
Q 2597 3491 2834 3397 
z
" transform="scale(0.015625)"/>
      <path id="DejaVuSans-6f" d="M 1959 3097 
Q 1497 3097 1228 2736 
Q 959 2375 959 1747 
Q 959 1119 1226 758 
Q 1494 397 1959 397 
Q 2419 397 2687 759 
Q 2956 1122 2956 1747 
Q 2956 2369 2687 2733 
Q 2419 3097 1959 3097 
z
M 1959 3584 
Q 2709 3584 3137 3096 
Q 3566 2609 3566 1747 
Q 3566 888 3137 398 
Q 2709 -91 1959 -91 
Q 1206 -91 779 398 
Q 353 888 353 1747 
Q 353 2609 779 3096 
Q 1206 3584 1959 3584 
z
" transform="scale(0.015625)"/>
      <path id="DejaVuSans-75" d="M 544 1381 
L 544 3500 
L 1119 3500 
L 1119 1403 
Q 1119 906 1312 657 
Q 1506 409 1894 409 
Q 2359 409 2629 706 
Q 2900 1003 2900 1516 
L 2900 3500 
L 3475 3500 
L 3475 0 
L 2900 0 
L 2900 538 
Q 2691 219 2414 64 
Q 2138 -91 1772 -91 
Q 1169 -91 856 284 
Q 544 659 544 1381 
z
M 1991 3584 
L 1991 3584 
z
" transform="scale(0.015625)"/>
      <path id="DejaVuSans-72" d="M 2631 2963 
Q 2534 3019 2420 3045 
Q 2306 3072 2169 3072 
Q 1681 3072 1420 2755 
Q 1159 2438 1159 1844 
L 1159 0 
L 581 0 
L 581 3500 
L 1159 3500 
L 1159 2956 
Q 1341 3275 1631 3429 
Q 1922 3584 2338 3584 
Q 2397 3584 2469 3576 
Q 2541 3569 2628 3553 
L 2631 2963 
z
" transform="scale(0.015625)"/>
      <path id="DejaVuSans-63" d="M 3122 3366 
L 3122 2828 
Q 2878 2963 2633 3030 
Q 2388 3097 2138 3097 
Q 1578 3097 1268 2742 
Q 959 2388 959 1747 
Q 959 1106 1268 751 
Q 1578 397 2138 397 
Q 2388 397 2633 464 
Q 2878 531 3122 666 
L 3122 134 
Q 2881 22 2623 -34 
Q 2366 -91 2075 -91 
Q 1284 -91 818 406 
Q 353 903 353 1747 
Q 353 2603 823 3093 
Q 1294 3584 2113 3584 
Q 2378 3584 2631 3529 
Q 2884 3475 3122 3366 
z
" transform="scale(0.015625)"/>
      <path id="DejaVuSans-65" d="M 3597 1894 
L 3597 1613 
L 953 1613 
Q 991 1019 1311 708 
Q 1631 397 2203 397 
Q 2534 397 2845 478 
Q 3156 559 3463 722 
L 3463 178 
Q 3153 47 2828 -22 
Q 2503 -91 2169 -91 
Q 1331 -91 842 396 
Q 353 884 353 1716 
Q 353 2575 817 3079 
Q 1281 3584 2069 3584 
Q 2775 3584 3186 3129 
Q 3597 2675 3597 1894 
z
M 3022 2063 
Q 3016 2534 2758 2815 
Q 2500 3097 2075 3097 
Q 1594 3097 1305 2825 
Q 1016 2553 972 2059 
L 3022 2063 
z
" transform="scale(0.015625)"/>
      <path id="DejaVuSans-2d" d="M 313 2009 
L 1997 2009 
L 1997 1497 
L 313 1497 
L 313 2009 
z
" transform="scale(0.015625)"/>
      <path id="DejaVuSans-69" d="M 603 3500 
L 1178 3500 
L 1178 0 
L 603 0 
L 603 3500 
z
M 603 4863 
L 1178 4863 
L 1178 4134 
L 603 4134 
L 603 4863 
z
" transform="scale(0.015625)"/>
      <path id="DejaVuSans-76" d="M 191 3500 
L 800 3500 
L 1894 563 
L 2988 3500 
L 3597 3500 
L 2284 0 
L 1503 0 
L 191 3500 
z
" transform="scale(0.015625)"/>
      <path id="DejaVuSans-33" d="M 2597 2516 
Q 3050 2419 3304 2112 
Q 3559 1806 3559 1356 
Q 3559 666 3084 287 
Q 2609 -91 1734 -91 
Q 1441 -91 1130 -33 
Q 819 25 488 141 
L 488 750 
Q 750 597 1062 519 
Q 1375 441 1716 441 
Q 2309 441 2620 675 
Q 2931 909 2931 1356 
Q 2931 1769 2642 2001 
Q 2353 2234 1838 2234 
L 1294 2234 
L 1294 2753 
L 1863 2753 
Q 2328 2753 2575 2939 
Q 2822 3125 2822 3475 
Q 2822 3834 2567 4026 
Q 2313 4219 1838 4219 
Q 1578 4219 1281 4162 
Q 984 4106 628 3988 
L 628 4550 
Q 988 4650 1302 4700 
Q 1616 4750 1894 4750 
Q 2613 4750 3031 4423 
Q 3450 4097 3450 3541 
Q 3450 3153 3228 2886 
Q 3006 2619 2597 2516 
z
" transform="scale(0.015625)"/>
     </defs>
     <use xlink:href="#DejaVuSans-73"/>
     <use xlink:href="#DejaVuSans-6f" x="52.099609"/>
     <use xlink:href="#DejaVuSans-75" x="113.28125"/>
     <use xlink:href="#DejaVuSans-72" x="176.660156"/>
     <use xlink:href="#DejaVuSans-63" x="215.523438"/>
     <use xlink:href="#DejaVuSans-65" x="270.503906"/>
     <use xlink:href="#DejaVuSans-31" x="332.027344"/>
     <use xlink:href="#DejaVuSans-31" x="395.650391"/>
     <use xlink:href="#DejaVuSans-2d" x="459.273438"/>
     <use xlink:href="#DejaVuSans-72" x="495.357422"/>
     <use xlink:href="#DejaVuSans-65" x="534.220703"/>
     <use xlink:href="#DejaVuSans-63" x="595.744141"/>
     <use xlink:href="#DejaVuSans-65" x="650.724609"/>
     <use xlink:href="#DejaVuSans-69" x="712.248047"/>
     <use xlink:href="#DejaVuSans-76" x="740.03125"/>
     <use xlink:href="#DejaVuSans-65" x="799.210938"/>
     <use xlink:href="#DejaVuSans-72" x="860.734375"/>
     <use xlink:href="#DejaVuSans-33" x="901.847656"/>
    </g>
   </g>
  </g>
 </g>
 <defs>
  <clipPath id="pb5771a8755">
   <rect x="180" y="69.12" width="1116" height="443.52"/>
  </clipPath>
 </defs>
</svg>
