<?xml version="1.0" encoding="utf-8" standalone="no"?>
<!DOCTYPE svg PUBLIC "-//W3C//DTD SVG 1.1//EN"
  "http://www.w3.org/Graphics/SVG/1.1/DTD/svg11.dtd">
<svg xmlns:xlink="http://www.w3.org/1999/xlink" width="1440pt" height="576pt" viewBox="0 0 1440 576" xmlns="http://www.w3.org/2000/svg" version="1.1">
 <metadata>
  <rdf:RDF xmlns:dc="http://purl.org/dc/elements/1.1/" xmlns:cc="http://creativecommons.org/ns#" xmlns:rdf="http://www.w3.org/1999/02/22-rdf-syntax-ns#">
   <cc:Work>
    <dc:type rdf:resource="http://purl.org/dc/dcmitype/StillImage"/>
    <dc:date>2024-05-22T04:50:22.617180</dc:date>
    <dc:format>image/svg+xml</dc:format>
    <dc:creator>
     <cc:Agent>
      <dc:title>Matplotlib v3.8.3, https://matplotlib.org/</dc:title>
     </cc:Agent>
    </dc:creator>
   </cc:Work>
  </rdf:RDF>
 </metadata>
 <defs>
  <style type="text/css">*{stroke-linejoin: round; stroke-linecap: butt}</style>
 </defs>
 <g id="figure_1">
  <g id="patch_1">
   <path d="M 0 576 
L 1440 576 
L 1440 0 
L 0 0 
z
" style="fill: #ffffff"/>
  </g>
  <g id="axes_1">
   <g id="patch_2">
    <path d="M 180 512.64 
L 1296 512.64 
L 1296 69.12 
L 180 69.12 
z
" style="fill: #ffffff"/>
   </g>
   <g id="matplotlib.axis_1">
    <g id="xtick_1">
     <g id="line2d_1">
      <defs>
       <path id="m6a06472999" d="M 0 0 
L 0 3.5 
" style="stroke: #000000; stroke-width: 0.8"/>
      </defs>
      <g>
       <use xlink:href="#m6a06472999" x="229.734567" y="512.64" style="stroke: #000000; stroke-width: 0.8"/>
      </g>
     </g>
     <g id="text_1">
      <!-- 0 -->
      <g transform="translate(226.553317 527.238438) scale(0.1 -0.1)">
       <defs>
        <path id="DejaVuSans-30" d="M 2034 4250 
Q 1547 4250 1301 3770 
Q 1056 3291 1056 2328 
Q 1056 1369 1301 889 
Q 1547 409 2034 409 
Q 2525 409 2770 889 
Q 3016 1369 3016 2328 
Q 3016 3291 2770 3770 
Q 2525 4250 2034 4250 
z
M 2034 4750 
Q 2819 4750 3233 4129 
Q 3647 3509 3647 2328 
Q 3647 1150 3233 529 
Q 2819 -91 2034 -91 
Q 1250 -91 836 529 
Q 422 1150 422 2328 
Q 422 3509 836 4129 
Q 1250 4750 2034 4750 
z
" transform="scale(0.015625)"/>
       </defs>
       <use xlink:href="#DejaVuSans-30"/>
      </g>
     </g>
    </g>
    <g id="xtick_2">
     <g id="line2d_2">
      <g>
       <use xlink:href="#m6a06472999" x="433.04074" y="512.64" style="stroke: #000000; stroke-width: 0.8"/>
      </g>
     </g>
     <g id="text_2">
      <!-- 500 -->
      <g transform="translate(423.49699 527.238438) scale(0.1 -0.1)">
       <defs>
        <path id="DejaVuSans-35" d="M 691 4666 
L 3169 4666 
L 3169 4134 
L 1269 4134 
L 1269 2991 
Q 1406 3038 1543 3061 
Q 1681 3084 1819 3084 
Q 2600 3084 3056 2656 
Q 3513 2228 3513 1497 
Q 3513 744 3044 326 
Q 2575 -91 1722 -91 
Q 1428 -91 1123 -41 
Q 819 9 494 109 
L 494 744 
Q 775 591 1075 516 
Q 1375 441 1709 441 
Q 2250 441 2565 725 
Q 2881 1009 2881 1497 
Q 2881 1984 2565 2268 
Q 2250 2553 1709 2553 
Q 1456 2553 1204 2497 
Q 953 2441 691 2322 
L 691 4666 
z
" transform="scale(0.015625)"/>
       </defs>
       <use xlink:href="#DejaVuSans-35"/>
       <use xlink:href="#DejaVuSans-30" x="63.623047"/>
       <use xlink:href="#DejaVuSans-30" x="127.246094"/>
      </g>
     </g>
    </g>
    <g id="xtick_3">
     <g id="line2d_3">
      <g>
       <use xlink:href="#m6a06472999" x="636.346913" y="512.64" style="stroke: #000000; stroke-width: 0.8"/>
      </g>
     </g>
     <g id="text_3">
      <!-- 1000 -->
      <g transform="translate(623.621913 527.238438) scale(0.1 -0.1)">
       <defs>
        <path id="DejaVuSans-31" d="M 794 531 
L 1825 531 
L 1825 4091 
L 703 3866 
L 703 4441 
L 1819 4666 
L 2450 4666 
L 2450 531 
L 3481 531 
L 3481 0 
L 794 0 
L 794 531 
z
" transform="scale(0.015625)"/>
       </defs>
       <use xlink:href="#DejaVuSans-31"/>
       <use xlink:href="#DejaVuSans-30" x="63.623047"/>
       <use xlink:href="#DejaVuSans-30" x="127.246094"/>
       <use xlink:href="#DejaVuSans-30" x="190.869141"/>
      </g>
     </g>
    </g>
    <g id="xtick_4">
     <g id="line2d_4">
      <g>
       <use xlink:href="#m6a06472999" x="839.653087" y="512.64" style="stroke: #000000; stroke-width: 0.8"/>
      </g>
     </g>
     <g id="text_4">
      <!-- 1500 -->
      <g transform="translate(826.928087 527.238438) scale(0.1 -0.1)">
       <use xlink:href="#DejaVuSans-31"/>
       <use xlink:href="#DejaVuSans-35" x="63.623047"/>
       <use xlink:href="#DejaVuSans-30" x="127.246094"/>
       <use xlink:href="#DejaVuSans-30" x="190.869141"/>
      </g>
     </g>
    </g>
    <g id="xtick_5">
     <g id="line2d_5">
      <g>
       <use xlink:href="#m6a06472999" x="1042.95926" y="512.64" style="stroke: #000000; stroke-width: 0.8"/>
      </g>
     </g>
     <g id="text_5">
      <!-- 2000 -->
      <g transform="translate(1030.23426 527.238438) scale(0.1 -0.1)">
       <defs>
        <path id="DejaVuSans-32" d="M 1228 531 
L 3431 531 
L 3431 0 
L 469 0 
L 469 531 
Q 828 903 1448 1529 
Q 2069 2156 2228 2338 
Q 2531 2678 2651 2914 
Q 2772 3150 2772 3378 
Q 2772 3750 2511 3984 
Q 2250 4219 1831 4219 
Q 1534 4219 1204 4116 
Q 875 4013 500 3803 
L 500 4441 
Q 881 4594 1212 4672 
Q 1544 4750 1819 4750 
Q 2544 4750 2975 4387 
Q 3406 4025 3406 3419 
Q 3406 3131 3298 2873 
Q 3191 2616 2906 2266 
Q 2828 2175 2409 1742 
Q 1991 1309 1228 531 
z
" transform="scale(0.015625)"/>
       </defs>
       <use xlink:href="#DejaVuSans-32"/>
       <use xlink:href="#DejaVuSans-30" x="63.623047"/>
       <use xlink:href="#DejaVuSans-30" x="127.246094"/>
       <use xlink:href="#DejaVuSans-30" x="190.869141"/>
      </g>
     </g>
    </g>
    <g id="xtick_6">
     <g id="line2d_6">
      <g>
       <use xlink:href="#m6a06472999" x="1246.265433" y="512.64" style="stroke: #000000; stroke-width: 0.8"/>
      </g>
     </g>
     <g id="text_6">
      <!-- 2500 -->
      <g transform="translate(1233.540433 527.238438) scale(0.1 -0.1)">
       <use xlink:href="#DejaVuSans-32"/>
       <use xlink:href="#DejaVuSans-35" x="63.623047"/>
       <use xlink:href="#DejaVuSans-30" x="127.246094"/>
       <use xlink:href="#DejaVuSans-30" x="190.869141"/>
      </g>
     </g>
    </g>
   </g>
   <g id="matplotlib.axis_2">
    <g id="ytick_1">
     <g id="line2d_7">
      <defs>
       <path id="mf45095c82d" d="M 0 0 
L -3.5 0 
" style="stroke: #000000; stroke-width: 0.8"/>
      </defs>
      <g>
       <use xlink:href="#mf45095c82d" x="180" y="454.944598" style="stroke: #000000; stroke-width: 0.8"/>
      </g>
     </g>
     <g id="text_7">
      <!-- −6 -->
      <g transform="translate(158.257812 458.743817) scale(0.1 -0.1)">
       <defs>
        <path id="DejaVuSans-2212" d="M 678 2272 
L 4684 2272 
L 4684 1741 
L 678 1741 
L 678 2272 
z
" transform="scale(0.015625)"/>
        <path id="DejaVuSans-36" d="M 2113 2584 
Q 1688 2584 1439 2293 
Q 1191 2003 1191 1497 
Q 1191 994 1439 701 
Q 1688 409 2113 409 
Q 2538 409 2786 701 
Q 3034 994 3034 1497 
Q 3034 2003 2786 2293 
Q 2538 2584 2113 2584 
z
M 3366 4563 
L 3366 3988 
Q 3128 4100 2886 4159 
Q 2644 4219 2406 4219 
Q 1781 4219 1451 3797 
Q 1122 3375 1075 2522 
Q 1259 2794 1537 2939 
Q 1816 3084 2150 3084 
Q 2853 3084 3261 2657 
Q 3669 2231 3669 1497 
Q 3669 778 3244 343 
Q 2819 -91 2113 -91 
Q 1303 -91 875 529 
Q 447 1150 447 2328 
Q 447 3434 972 4092 
Q 1497 4750 2381 4750 
Q 2619 4750 2861 4703 
Q 3103 4656 3366 4563 
z
" transform="scale(0.015625)"/>
       </defs>
       <use xlink:href="#DejaVuSans-2212"/>
       <use xlink:href="#DejaVuSans-36" x="83.789062"/>
      </g>
     </g>
    </g>
    <g id="ytick_2">
     <g id="line2d_8">
      <g>
       <use xlink:href="#mf45095c82d" x="180" y="367.66379" style="stroke: #000000; stroke-width: 0.8"/>
      </g>
     </g>
     <g id="text_8">
      <!-- −4 -->
      <g transform="translate(158.257812 371.463009) scale(0.1 -0.1)">
       <defs>
        <path id="DejaVuSans-34" d="M 2419 4116 
L 825 1625 
L 2419 1625 
L 2419 4116 
z
M 2253 4666 
L 3047 4666 
L 3047 1625 
L 3713 1625 
L 3713 1100 
L 3047 1100 
L 3047 0 
L 2419 0 
L 2419 1100 
L 313 1100 
L 313 1709 
L 2253 4666 
z
" transform="scale(0.015625)"/>
       </defs>
       <use xlink:href="#DejaVuSans-2212"/>
       <use xlink:href="#DejaVuSans-34" x="83.789062"/>
      </g>
     </g>
    </g>
    <g id="ytick_3">
     <g id="line2d_9">
      <g>
       <use xlink:href="#mf45095c82d" x="180" y="280.382982" style="stroke: #000000; stroke-width: 0.8"/>
      </g>
     </g>
     <g id="text_9">
      <!-- −2 -->
      <g transform="translate(158.257812 284.1822) scale(0.1 -0.1)">
       <use xlink:href="#DejaVuSans-2212"/>
       <use xlink:href="#DejaVuSans-32" x="83.789062"/>
      </g>
     </g>
    </g>
    <g id="ytick_4">
     <g id="line2d_10">
      <g>
       <use xlink:href="#mf45095c82d" x="180" y="193.102173" style="stroke: #000000; stroke-width: 0.8"/>
      </g>
     </g>
     <g id="text_10">
      <!-- 0 -->
      <g transform="translate(166.6375 196.901392) scale(0.1 -0.1)">
       <use xlink:href="#DejaVuSans-30"/>
      </g>
     </g>
    </g>
    <g id="ytick_5">
     <g id="line2d_11">
      <g>
       <use xlink:href="#mf45095c82d" x="180" y="105.821365" style="stroke: #000000; stroke-width: 0.8"/>
      </g>
     </g>
     <g id="text_11">
      <!-- 2 -->
      <g transform="translate(166.6375 109.620584) scale(0.1 -0.1)">
       <use xlink:href="#DejaVuSans-32"/>
      </g>
     </g>
    </g>
   </g>
   <g id="line2d_12">
    <path d="M 230.727273 331.745685 
L 231.719979 326.065519 
L 237.676214 285.216073 
L 238.66892 279.98598 
L 240.654332 270.53237 
L 243.63245 255.45386 
L 244.625156 250.53507 
L 247.603273 232.444356 
L 248.595979 227.17624 
L 249.588685 226.564578 
L 250.581391 230.041238 
L 251.574097 213.339308 
L 253.559509 190.978747 
L 254.552215 188.305109 
L 255.544921 192.654251 
L 256.537627 205.453248 
L 257.530333 239.351877 
L 258.523039 191.876372 
L 259.515745 173.274712 
L 260.50845 160.380977 
L 261.501156 155.833232 
L 262.493862 156.140975 
L 263.486568 160.658234 
L 264.479274 166.215753 
L 265.47198 174.897613 
L 266.464686 178.103426 
L 267.457392 170.816445 
L 268.450098 165.382921 
L 269.442804 158.597524 
L 272.420922 134.856368 
L 273.413627 135.455498 
L 274.406333 143.668108 
L 275.399039 149.621658 
L 276.391745 130.582444 
L 277.384451 109.331673 
L 278.377157 96.897841 
L 279.369863 90.690107 
L 280.362569 89.28 
L 281.355275 92.424045 
L 282.347981 101.664172 
L 283.340687 115.772057 
L 284.333393 134.675112 
L 285.326099 143.109254 
L 286.318804 132.864851 
L 287.31151 128.079998 
L 288.304216 132.548926 
L 289.296922 146.519294 
L 290.289628 167.12465 
L 291.282334 181.927427 
L 292.27504 177.199143 
L 293.267746 175.34782 
L 294.260452 189.209258 
L 295.253158 219.956443 
L 296.245864 287.206011 
L 297.23857 268.564362 
L 298.231276 286.035384 
L 299.223981 274.027911 
L 300.216687 240.397862 
L 302.202099 218.393917 
L 303.194805 221.508042 
L 304.187511 219.632515 
L 305.180217 218.818262 
L 307.165629 224.583888 
L 308.158335 237.137451 
L 309.151041 246.012446 
L 310.143747 241.738427 
L 311.136453 243.817063 
L 312.129159 240.754297 
L 313.121864 244.569374 
L 314.11457 243.108918 
L 315.107276 249.383104 
L 316.099982 250.203312 
L 317.092688 243.874069 
L 318.085394 248.624274 
L 319.0781 247.107806 
L 320.070806 249.354883 
L 321.063512 244.687544 
L 322.056218 246.251947 
L 323.048924 255.623581 
L 324.04163 247.912116 
L 325.034336 256.497805 
L 326.027041 257.753279 
L 327.019747 249.398419 
L 328.012453 255.552453 
L 329.005159 253.221601 
L 329.997865 258.237748 
L 330.990571 256.409604 
L 331.983277 252.807209 
L 332.975983 260.09285 
L 333.968689 252.630063 
L 334.961395 263.565229 
L 335.954101 286.322216 
L 336.946807 250.16893 
L 337.939513 262.617607 
L 338.932218 272.186021 
L 339.924924 257.317171 
L 340.91763 255.707091 
L 341.910336 271.750646 
L 342.903042 269.858329 
L 343.895748 261.619838 
L 344.888454 262.714759 
L 345.88116 267.245043 
L 346.873866 263.985061 
L 347.866572 273.647122 
L 348.859278 295.168735 
L 349.851984 269.77289 
L 350.84469 263.340458 
L 351.837395 279.511931 
L 352.830101 261.00517 
L 353.822807 265.16714 
L 354.815513 263.252494 
L 355.808219 263.234517 
L 356.800925 272.953937 
L 357.793631 266.079093 
L 358.786337 266.471014 
L 359.779043 269.172681 
L 360.771749 267.90078 
L 361.764455 273.195118 
L 362.757161 282.512881 
L 364.742572 258.793265 
L 365.735278 319.660082 
L 366.727984 261.459688 
L 367.72069 261.094554 
L 368.713396 289.690826 
L 369.706102 295.150826 
L 370.698808 271.795441 
L 371.691514 259.687768 
L 372.68422 276.465469 
L 373.676926 279.809776 
L 374.669632 289.510823 
L 375.662338 269.527953 
L 376.655044 263.935145 
L 377.64775 294.797438 
L 378.640455 301.138924 
L 379.633161 263.805089 
L 380.625867 299.405077 
L 381.618573 271.457051 
L 382.611279 278.421526 
L 383.603985 271.386168 
L 384.596691 296.618564 
L 385.589397 285.492945 
L 386.582103 284.024647 
L 387.574809 297.230329 
L 388.567515 293.826497 
L 389.560221 273.663666 
L 390.552927 306.459645 
L 391.545632 239.591267 
L 392.538338 302.644965 
L 393.531044 256.246949 
L 394.52375 241.106881 
L 395.516456 294.676835 
L 396.509162 289.33625 
L 397.501868 264.270591 
L 398.494574 266.064874 
L 399.48728 285.14174 
L 400.479986 276.668608 
L 401.472692 293.256713 
L 402.465398 273.691144 
L 403.458104 297.115788 
L 404.450809 279.760983 
L 405.443515 332.979861 
L 406.436221 280.056628 
L 407.428927 325.179262 
L 408.421633 279.949394 
L 409.414339 296.217353 
L 410.407045 292.500809 
L 411.399751 310.492099 
L 412.392457 293.764043 
L 414.377869 285.796852 
L 415.370575 274.690642 
L 416.363281 293.071554 
L 417.355986 409.408098 
L 418.348692 249.302221 
L 419.341398 252.602931 
L 420.334104 266.359591 
L 421.32681 238.058963 
L 422.319516 279.776093 
L 423.312222 299.447731 
L 424.304928 284.35384 
L 425.297634 260.740104 
L 426.29034 277.529546 
L 427.283046 303.533889 
L 428.275752 321.906264 
L 429.268458 269.648012 
L 430.261163 307.560722 
L 431.253869 267.878784 
L 432.246575 312.231985 
L 433.239281 308.992865 
L 434.231987 286.688025 
L 435.224693 304.207226 
L 436.217399 282.568769 
L 437.210105 316.434537 
L 438.202811 291.10841 
L 439.195517 288.845754 
L 440.188223 294.595886 
L 441.180929 302.331097 
L 442.173635 293.725973 
L 443.166341 294.999801 
L 444.159046 279.301967 
L 445.151752 352.760544 
L 446.144458 262.635893 
L 447.137164 275.275428 
L 448.12987 294.998481 
L 449.122576 283.251432 
L 450.115282 276.579179 
L 451.107988 322.417528 
L 452.100694 285.317334 
L 453.0934 312.057767 
L 454.086106 285.515161 
L 455.078812 314.067021 
L 456.071518 320.062379 
L 457.064223 295.023588 
L 458.056929 303.221584 
L 459.049635 302.201454 
L 460.042341 304.623509 
L 461.035047 316.511391 
L 462.027753 301.17559 
L 463.020459 309.581761 
L 464.013165 357.685118 
L 465.005871 307.015834 
L 465.998577 295.850994 
L 466.991283 292.474846 
L 467.983989 288.657573 
L 468.976695 303.059872 
L 469.9694 290.939004 
L 470.962106 291.587206 
L 471.954812 303.149954 
L 472.947518 295.187361 
L 473.940224 284.365196 
L 474.93293 332.368056 
L 475.925636 300.148276 
L 476.918342 291.411111 
L 478.903754 302.084517 
L 479.89646 307.007866 
L 480.889166 316.274982 
L 481.881872 303.178307 
L 482.874577 303.891248 
L 483.867283 290.432557 
L 484.859989 317.176539 
L 485.852695 289.123806 
L 486.845401 321.801161 
L 487.838107 315.84966 
L 488.830813 312.490916 
L 489.823519 299.506122 
L 490.816225 325.655707 
L 491.808931 337.667096 
L 492.801637 326.953027 
L 493.794343 338.750855 
L 494.787049 321.391021 
L 495.779754 316.643493 
L 496.77246 295.141791 
L 497.765166 342.454479 
L 498.757872 306.783169 
L 499.750578 308.509883 
L 500.743284 268.814183 
L 502.728696 326.453117 
L 503.721402 278.454764 
L 504.714108 326.456412 
L 506.69952 297.777794 
L 507.692226 334.80904 
L 508.684932 296.662868 
L 509.677637 337.973941 
L 510.670343 300.603138 
L 511.663049 310.631003 
L 512.655755 280.614865 
L 513.648461 295.877704 
L 514.641167 346.784086 
L 515.633873 306.464262 
L 516.626579 322.644873 
L 517.619285 283.840992 
L 518.611991 310.757515 
L 519.604697 299.155156 
L 520.597403 361.915371 
L 521.590109 301.090602 
L 522.582814 297.803212 
L 523.57552 300.91017 
L 524.568226 310.630665 
L 525.560932 281.091583 
L 526.553638 317.395416 
L 527.546344 270.160465 
L 528.53905 273.028813 
L 529.531756 309.93223 
L 530.524462 263.915082 
L 531.517168 289.983876 
L 532.509874 343.763843 
L 533.50258 309.573706 
L 534.495286 294.071966 
L 535.487991 289.151822 
L 536.480697 380.427587 
L 537.473403 323.660781 
L 538.466109 288.649385 
L 539.458815 492.48 
L 540.451521 280.631021 
L 541.444227 305.657104 
L 542.436933 289.799178 
L 543.429639 342.28432 
L 544.422345 304.240281 
L 545.415051 294.752684 
L 546.407757 350.792949 
L 547.400463 285.29111 
L 548.393168 302.018922 
L 549.385874 283.356425 
L 550.37858 333.933161 
L 551.371286 363.597427 
L 552.363992 278.083154 
L 553.356698 327.386162 
L 554.349404 283.584337 
L 555.34211 259.208432 
L 556.334816 289.508166 
L 557.327522 282.699562 
L 558.320228 273.643449 
L 559.312934 325.701383 
L 560.30564 406.645122 
L 561.298345 303.229278 
L 562.291051 299.274953 
L 563.283757 313.961567 
L 564.276463 321.684033 
L 565.269169 298.845638 
L 566.261875 315.199147 
L 567.254581 345.782821 
L 568.247287 285.57287 
L 569.239993 383.505062 
L 570.232699 301.785639 
L 571.225405 299.693649 
L 572.218111 303.993536 
L 573.210817 294.789819 
L 574.203523 315.423547 
L 575.196228 296.909872 
L 576.188934 311.131136 
L 577.18164 274.995397 
L 578.174346 369.758968 
L 579.167052 320.265595 
L 580.159758 308.523395 
L 581.152464 374.233455 
L 582.14517 288.081812 
L 583.137876 297.131175 
L 584.130582 350.119657 
L 585.123288 303.877836 
L 586.115994 302.096761 
L 587.1087 328.846501 
L 588.101405 314.933888 
L 589.094111 319.358838 
L 590.086817 312.818099 
L 591.079523 309.960832 
L 592.072229 322.102796 
L 593.064935 324.476199 
L 594.057641 333.043727 
L 595.050347 339.17909 
L 596.043053 386.70705 
L 597.035759 306.316413 
L 598.028465 319.956777 
L 599.021171 314.7585 
L 600.013877 330.313027 
L 601.006582 322.428521 
L 601.999288 308.680134 
L 602.991994 339.701974 
L 603.9847 324.711665 
L 604.977406 323.93374 
L 605.970112 312.066112 
L 606.962818 312.326807 
L 607.955524 317.380917 
L 608.94823 317.23287 
L 609.940936 305.00437 
L 610.933642 323.202783 
L 611.926348 350.701478 
L 612.919054 312.326933 
L 614.904465 333.569607 
L 615.897171 322.625895 
L 616.889877 325.456913 
L 617.882583 315.595168 
L 618.875289 353.072749 
L 619.867995 339.036024 
L 620.860701 331.635204 
L 621.853407 327.215395 
L 622.846113 339.012086 
L 623.838819 316.652022 
L 624.831525 322.771933 
L 625.824231 320.769833 
L 626.816936 322.253252 
L 627.809642 316.839808 
L 628.802348 315.53386 
L 629.795054 316.040565 
L 630.78776 309.736439 
L 631.780466 317.763934 
L 632.773172 329.047351 
L 633.765878 334.187159 
L 634.758584 317.228396 
L 635.75129 335.129615 
L 636.743996 319.098812 
L 637.736702 331.187311 
L 638.729408 324.988372 
L 639.722114 323.151445 
L 640.714819 323.202257 
L 641.707525 314.352851 
L 642.700231 329.886529 
L 643.692937 332.614235 
L 644.685643 318.589813 
L 645.678349 338.343732 
L 646.671055 319.919487 
L 647.663761 323.182308 
L 648.656467 322.729387 
L 649.649173 329.294431 
L 650.641879 328.055437 
L 651.634585 322.732652 
L 652.627291 323.287454 
L 653.619996 324.137585 
L 654.612702 324.049765 
L 655.605408 327.516536 
L 656.598114 335.370473 
L 657.59082 321.547413 
L 658.583526 324.782112 
L 659.576232 324.081408 
L 660.568938 329.908532 
L 661.561644 326.299907 
L 662.55435 325.980561 
L 663.547056 332.734235 
L 664.539762 322.676348 
L 665.532468 324.073481 
L 666.525173 331.584875 
L 667.517879 326.224288 
L 668.510585 329.125214 
L 669.503291 326.826781 
L 670.495997 325.577571 
L 671.488703 325.33934 
L 672.481409 325.95531 
L 673.474115 325.945836 
L 674.466821 325.720759 
L 675.459527 329.45139 
L 676.452233 330.122031 
L 677.444939 332.711944 
L 678.437645 331.535036 
L 679.43035 333.197971 
L 680.423056 326.235346 
L 681.415762 329.532161 
L 682.408468 331.060054 
L 683.401174 325.20648 
L 684.39388 329.396217 
L 685.386586 330.683193 
L 686.379292 332.283072 
L 687.371998 330.362006 
L 688.364704 329.515585 
L 689.35741 327.246765 
L 690.350116 329.468659 
L 691.342822 327.700053 
L 692.335527 330.630356 
L 693.328233 327.618588 
L 694.320939 330.38436 
L 695.313645 329.559983 
L 696.306351 331.146484 
L 698.291763 329.421807 
L 699.284469 329.717849 
L 700.277175 329.048794 
L 701.269881 331.866994 
L 702.262587 330.868365 
L 703.255293 331.637301 
L 704.247999 329.801286 
L 705.240705 331.337135 
L 706.23341 331.235251 
L 707.226116 329.970123 
L 708.218822 331.519855 
L 709.211528 329.844704 
L 710.204234 327.514014 
L 711.19694 330.630556 
L 712.189646 330.306638 
L 713.182352 330.680266 
L 714.175058 331.820304 
L 715.167764 330.446241 
L 717.153176 331.498301 
L 718.145882 331.299703 
L 719.138587 331.829701 
L 720.131293 332.928935 
L 721.123999 330.635446 
L 722.116705 332.482771 
L 723.109411 333.608496 
L 725.094823 332.156607 
L 726.087529 331.280556 
L 727.080235 334.150172 
L 728.072941 333.446975 
L 729.065647 335.550021 
L 730.058353 332.284485 
L 731.051059 332.690556 
L 732.043764 333.942034 
L 733.03647 332.0422 
L 734.029176 333.286809 
L 735.021882 332.030094 
L 736.014588 332.480725 
L 737.007294 332.539954 
L 738 333.540368 
L 738.992706 335.2565 
L 739.985412 334.186281 
L 740.978118 333.580677 
L 741.970824 334.139324 
L 742.96353 332.600085 
L 743.956236 333.486542 
L 744.948941 335.014336 
L 745.941647 332.837406 
L 746.934353 334.530788 
L 747.927059 334.540213 
L 748.919765 333.055041 
L 749.912471 335.048967 
L 750.905177 333.765981 
L 751.897883 335.968686 
L 752.890589 333.950125 
L 753.883295 336.326413 
L 754.876001 333.544519 
L 755.868707 334.852503 
L 756.861413 335.213419 
L 757.854118 334.591508 
L 758.846824 333.837401 
L 759.83953 335.61576 
L 760.832236 334.64394 
L 761.824942 334.344752 
L 762.817648 334.189639 
L 763.810354 335.428174 
L 764.80306 336.090935 
L 765.795766 334.033996 
L 766.788472 335.645255 
L 767.781178 335.708229 
L 768.773884 334.595305 
L 769.76659 334.884556 
L 770.759295 334.518397 
L 771.752001 336.859438 
L 772.744707 335.006519 
L 773.737413 336.085593 
L 774.730119 334.987858 
L 775.722825 336.449008 
L 776.715531 337.502066 
L 777.708237 337.144031 
L 778.700943 334.846085 
L 779.693649 336.908761 
L 780.686355 335.357599 
L 781.679061 337.054845 
L 782.671767 335.732427 
L 783.664473 335.671605 
L 784.657178 335.785155 
L 785.649884 335.64931 
L 786.64259 337.823432 
L 787.635296 335.907852 
L 789.620708 337.00044 
L 790.613414 335.676894 
L 791.60612 336.183253 
L 792.598826 338.844839 
L 793.591532 336.770486 
L 794.584238 336.388546 
L 795.576944 336.854901 
L 796.56965 335.902248 
L 797.562355 337.934248 
L 798.555061 337.8888 
L 799.547767 337.205002 
L 800.540473 338.444781 
L 801.533179 337.257067 
L 803.518591 337.437431 
L 805.504003 335.770595 
L 806.496709 335.303397 
L 807.489415 337.619744 
L 808.482121 337.995378 
L 809.474827 338.139229 
L 810.467532 338.667579 
L 811.460238 336.308492 
L 812.452944 337.372688 
L 813.44565 336.563749 
L 814.438356 337.404859 
L 815.431062 339.129936 
L 816.423768 337.722691 
L 818.40918 337.440817 
L 819.401886 338.863208 
L 820.394592 338.310052 
L 821.387298 338.524297 
L 822.380004 338.551408 
L 823.372709 339.814077 
L 825.358121 337.69575 
L 826.350827 338.060809 
L 827.343533 339.47275 
L 828.336239 338.999 
L 829.328945 338.857869 
L 830.321651 339.215445 
L 831.314357 339.021596 
L 832.307063 338.528046 
L 833.299769 339.172373 
L 834.292475 339.507369 
L 835.285181 338.260893 
L 837.270592 339.527355 
L 838.263298 339.242437 
L 839.256004 338.451441 
L 840.24871 339.990353 
L 841.241416 338.728336 
L 842.234122 338.564746 
L 843.226828 340.043138 
L 844.219534 340.237737 
L 845.21224 340.650891 
L 846.204946 341.470869 
L 847.197652 339.781639 
L 848.190358 340.584944 
L 849.183064 339.379364 
L 850.175769 339.944623 
L 851.168475 337.814903 
L 852.161181 340.384299 
L 853.153887 339.888963 
L 854.146593 341.862532 
L 855.139299 340.513756 
L 856.132005 340.098491 
L 857.124711 341.333752 
L 858.117417 340.017217 
L 859.110123 339.193516 
L 860.102829 340.808636 
L 861.095535 340.547098 
L 862.088241 339.883 
L 863.080946 339.973813 
L 864.073652 340.786511 
L 865.066358 339.554928 
L 866.059064 340.585472 
L 867.05177 339.886453 
L 868.044476 341.799856 
L 869.037182 339.276954 
L 871.022594 340.33628 
L 872.0153 340.16498 
L 873.008006 341.129647 
L 874.000712 340.577496 
L 874.993418 342.504857 
L 875.986123 340.569294 
L 876.978829 341.123682 
L 877.971535 340.044819 
L 878.964241 342.241107 
L 879.956947 342.062438 
L 880.949653 341.224845 
L 882.935065 341.221207 
L 883.927771 341.447774 
L 884.920477 340.739942 
L 885.913183 342.04073 
L 886.905889 342.453892 
L 887.898595 341.253767 
L 888.8913 341.493287 
L 889.884006 340.981266 
L 890.876712 339.62875 
L 891.869418 341.188949 
L 892.862124 341.320815 
L 893.85483 342.62678 
L 894.847536 342.859932 
L 895.840242 343.267226 
L 896.832948 342.012947 
L 897.825654 342.236756 
L 898.81836 341.742732 
L 899.811066 343.237893 
L 900.803772 342.307907 
L 901.796477 341.881922 
L 902.789183 342.075145 
L 903.781889 342.746393 
L 904.774595 341.537424 
L 905.767301 342.051254 
L 906.760007 342.887374 
L 907.752713 342.637997 
L 908.745419 344.153458 
L 910.730831 342.457382 
L 911.723537 342.892696 
L 912.716243 343.651855 
L 914.701655 340.67836 
L 915.69436 341.991477 
L 916.687066 342.055675 
L 917.679772 341.789442 
L 918.672478 340.7302 
L 919.665184 342.274838 
L 920.65789 342.130482 
L 921.650596 343.970349 
L 922.643302 343.418498 
L 923.636008 343.700187 
L 924.628714 342.366796 
L 925.62142 342.859027 
L 926.614126 341.785002 
L 928.599537 342.637887 
L 929.592243 344.295617 
L 930.584949 342.839874 
L 931.577655 343.657944 
L 932.570361 342.914172 
L 933.563067 343.691379 
L 934.555773 342.852728 
L 935.548479 342.353619 
L 936.541185 344.622942 
L 937.533891 343.147333 
L 938.526597 344.009095 
L 939.519303 342.790494 
L 940.512009 344.518341 
L 941.504714 345.789059 
L 942.49742 342.664868 
L 943.490126 343.7766 
L 944.482832 343.468102 
L 946.468244 341.728577 
L 947.46095 343.747853 
L 948.453656 344.433225 
L 949.446362 343.092181 
L 950.439068 343.266771 
L 951.431774 343.301422 
L 952.42448 345.567349 
L 953.417186 344.114285 
L 956.395303 344.126308 
L 957.388009 343.094867 
L 958.380715 344.935201 
L 959.373421 345.912146 
L 960.366127 342.217578 
L 961.358833 344.559666 
L 962.351539 343.93154 
L 963.344245 345.889986 
L 964.336951 344.491905 
L 965.329657 343.7133 
L 966.322363 344.31805 
L 967.315068 344.212207 
L 968.307774 344.979168 
L 969.30048 343.689225 
L 970.293186 344.539368 
L 971.285892 344.567633 
L 972.278598 344.371599 
L 973.271304 345.370651 
L 974.26401 344.359446 
L 976.249422 344.194056 
L 977.242128 344.794298 
L 978.234834 346.224574 
L 979.22754 343.062347 
L 980.220246 343.195546 
L 981.212951 343.951881 
L 982.205657 345.973187 
L 983.198363 344.026571 
L 984.191069 344.338646 
L 985.183775 343.461737 
L 986.176481 343.079711 
L 987.169187 344.761329 
L 988.161893 344.134137 
L 989.154599 345.984345 
L 990.147305 344.916251 
L 991.140011 347.106314 
L 992.132717 345.643524 
L 993.125423 345.554363 
L 994.118128 344.51367 
L 995.110834 343.120428 
L 996.10354 345.808197 
L 997.096246 344.766331 
L 998.088952 347.022227 
L 999.081658 345.390387 
L 1000.074364 345.353186 
L 1001.06707 344.903555 
L 1003.052482 347.128411 
L 1004.045188 345.071651 
L 1005.037894 344.758893 
L 1006.0306 346.03862 
L 1007.023305 344.735216 
L 1008.016011 345.517636 
L 1009.008717 345.037021 
L 1010.001423 345.493805 
L 1010.994129 347.178549 
L 1011.986835 347.189189 
L 1012.979541 346.316467 
L 1013.972247 344.651027 
L 1014.964953 345.688244 
L 1015.957659 343.777532 
L 1016.950365 344.187093 
L 1017.943071 346.626487 
L 1018.935777 345.483042 
L 1019.928482 345.10128 
L 1020.921188 345.556417 
L 1021.913894 344.918663 
L 1022.9066 345.598526 
L 1023.899306 346.030928 
L 1024.892012 346.041633 
L 1025.884718 344.787232 
L 1026.877424 346.247821 
L 1027.87013 344.218594 
L 1028.862836 345.674115 
L 1029.855542 345.826117 
L 1030.848248 347.362563 
L 1031.840954 345.298452 
L 1032.833659 345.200057 
L 1033.826365 346.11766 
L 1034.819071 345.735843 
L 1035.811777 346.085662 
L 1036.804483 346.062577 
L 1037.797189 345.045392 
L 1038.789895 346.327161 
L 1040.775307 347.42315 
L 1041.768013 346.512741 
L 1042.760719 346.891301 
L 1043.753425 345.419342 
L 1044.746131 345.092313 
L 1045.738837 346.602468 
L 1046.731542 347.501401 
L 1047.724248 346.429034 
L 1048.716954 344.460142 
L 1049.70966 344.892373 
L 1050.702366 344.974213 
L 1051.695072 347.275443 
L 1052.687778 346.548387 
L 1053.680484 348.045303 
L 1054.67319 346.193649 
L 1055.665896 346.711565 
L 1056.658602 348.13471 
L 1057.651308 345.487734 
L 1058.644014 348.108875 
L 1059.636719 347.082625 
L 1060.629425 345.552033 
L 1061.622131 346.097011 
L 1062.614837 345.489683 
L 1063.607543 345.048015 
L 1064.600249 347.069976 
L 1065.592955 345.710594 
L 1066.585661 346.056045 
L 1067.578367 346.625251 
L 1068.571073 345.665533 
L 1069.563779 346.281809 
L 1070.556485 347.037188 
L 1071.549191 348.121816 
L 1072.541896 347.531922 
L 1073.534602 348.350362 
L 1074.527308 347.461985 
L 1075.520014 347.082374 
L 1076.51272 348.9415 
L 1077.505426 345.402474 
L 1078.498132 347.707447 
L 1080.483544 347.317815 
L 1081.47625 348.336975 
L 1082.468956 345.483444 
L 1083.461662 347.137676 
L 1084.454368 346.164129 
L 1085.447073 347.099935 
L 1086.439779 348.670284 
L 1087.432485 348.049522 
L 1088.425191 348.349495 
L 1089.417897 348.402263 
L 1090.410603 348.922609 
L 1091.403309 345.733393 
L 1092.396015 347.149349 
L 1093.388721 344.995714 
L 1095.374133 349.429977 
L 1096.366839 346.494961 
L 1097.359545 347.583719 
L 1098.35225 347.455829 
L 1099.344956 345.371259 
L 1101.330368 349.350814 
L 1102.323074 346.189781 
L 1103.31578 348.35524 
L 1104.308486 347.980005 
L 1105.301192 348.171294 
L 1106.293898 347.577721 
L 1107.286604 347.52785 
L 1108.27931 350.260717 
L 1109.272016 348.501311 
L 1111.257428 347.525806 
L 1112.250133 346.498993 
L 1114.235545 348.08382 
L 1115.228251 347.166348 
L 1116.220957 347.920162 
L 1117.213663 347.216145 
L 1118.206369 347.185311 
L 1119.199075 346.000099 
L 1120.191781 347.535861 
L 1121.184487 349.320162 
L 1122.177193 348.107336 
L 1123.169899 348.142895 
L 1124.162605 346.877897 
L 1125.15531 347.144268 
L 1126.148016 347.164223 
L 1127.140722 345.640079 
L 1128.133428 349.98726 
L 1129.126134 347.087396 
L 1130.11884 347.983429 
L 1131.111546 348.544832 
L 1133.096958 347.128237 
L 1134.089664 348.956636 
L 1135.08237 346.482923 
L 1136.075076 345.748078 
L 1137.067782 345.450204 
L 1138.060487 347.865134 
L 1139.053193 347.362222 
L 1140.045899 347.175072 
L 1141.038605 348.535423 
L 1142.031311 348.477984 
L 1143.024017 348.693259 
L 1144.016723 347.537484 
L 1145.009429 347.666791 
L 1146.002135 347.435708 
L 1146.994841 349.823451 
L 1147.987547 349.053352 
L 1148.980253 349.145979 
L 1149.972959 347.117654 
L 1150.965664 346.983565 
L 1151.95837 347.519253 
L 1152.951076 346.715085 
L 1153.943782 348.823539 
L 1154.936488 349.226183 
L 1155.929194 348.753323 
L 1156.9219 348.428486 
L 1157.914606 348.578727 
L 1158.907312 348.313507 
L 1159.900018 347.130723 
L 1160.892724 346.359366 
L 1161.88543 350.252029 
L 1162.878136 347.579031 
L 1163.870841 348.047233 
L 1164.863547 349.114706 
L 1165.856253 349.078824 
L 1166.848959 348.200584 
L 1167.841665 349.304532 
L 1168.834371 348.439509 
L 1169.827077 347.889269 
L 1171.812489 348.159891 
L 1172.805195 348.678549 
L 1173.797901 348.717007 
L 1174.790607 347.354924 
L 1175.783313 348.987447 
L 1176.776019 347.261867 
L 1177.768724 347.981214 
L 1178.76143 347.432255 
L 1179.754136 347.970481 
L 1180.746842 346.961955 
L 1181.739548 347.982265 
L 1182.732254 348.619439 
L 1183.72496 350.365792 
L 1184.717666 347.744173 
L 1185.710372 348.39033 
L 1186.703078 348.625896 
L 1187.695784 346.831008 
L 1188.68849 346.903877 
L 1189.681196 350.945104 
L 1190.673901 348.343791 
L 1191.666607 347.620168 
L 1192.659313 349.573827 
L 1193.652019 349.19911 
L 1194.644725 347.678469 
L 1195.637431 348.428753 
L 1196.630137 348.22993 
L 1197.622843 348.489152 
L 1198.615549 349.087388 
L 1199.608255 350.335151 
L 1200.600961 348.595647 
L 1201.593667 347.646316 
L 1202.586373 347.822576 
L 1204.571784 349.40886 
L 1205.56449 349.921411 
L 1206.557196 350.294612 
L 1207.549902 348.099003 
L 1208.542608 346.992678 
L 1209.535314 347.44052 
L 1210.52802 348.636407 
L 1211.520726 347.144314 
L 1212.513432 347.238409 
L 1213.506138 347.600411 
L 1214.498844 349.630123 
L 1215.49155 348.199411 
L 1216.484255 347.924234 
L 1217.476961 346.517304 
L 1218.469667 348.772374 
L 1219.462373 348.99743 
L 1220.455079 346.884506 
L 1221.447785 347.83288 
L 1222.440491 346.471283 
L 1223.433197 347.852651 
L 1224.425903 347.972616 
L 1225.418609 347.875479 
L 1226.411315 349.230388 
L 1227.404021 348.991524 
L 1228.396727 347.913388 
L 1229.389432 349.301294 
L 1231.374844 348.074026 
L 1232.36755 348.494617 
L 1233.360256 346.565517 
L 1234.352962 349.087737 
L 1235.345668 347.945274 
L 1236.338374 348.398767 
L 1237.33108 350.304138 
L 1238.323786 350.129855 
L 1239.316492 348.510984 
L 1240.309198 349.53287 
L 1241.301904 348.567142 
L 1242.29461 347.820439 
L 1243.287315 349.697703 
L 1244.280021 349.508983 
L 1245.272727 348.728829 
L 1245.272727 348.728829 
" clip-path="url(#paddeaa9012)" style="fill: none; stroke: #1f77b4; stroke-width: 1.5; stroke-linecap: square"/>
   </g>
   <g id="patch_3">
    <path d="M 180 512.64 
L 180 69.12 
" style="fill: none; stroke: #000000; stroke-width: 0.8; stroke-linejoin: miter; stroke-linecap: square"/>
   </g>
   <g id="patch_4">
    <path d="M 1296 512.64 
L 1296 69.12 
" style="fill: none; stroke: #000000; stroke-width: 0.8; stroke-linejoin: miter; stroke-linecap: square"/>
   </g>
   <g id="patch_5">
    <path d="M 180 512.64 
L 1296 512.64 
" style="fill: none; stroke: #000000; stroke-width: 0.8; stroke-linejoin: miter; stroke-linecap: square"/>
   </g>
   <g id="patch_6">
    <path d="M 180 69.12 
L 1296 69.12 
" style="fill: none; stroke: #000000; stroke-width: 0.8; stroke-linejoin: miter; stroke-linecap: square"/>
   </g>
   <g id="text_12">
    <!-- source22-receiver17 -->
    <g transform="translate(532.175 60.80125) scale(0.4 -0.4)">
     <defs>
      <path id="DejaVuSans-73" d="M 2834 3397 
L 2834 2853 
Q 2591 2978 2328 3040 
Q 2066 3103 1784 3103 
Q 1356 3103 1142 2972 
Q 928 2841 928 2578 
Q 928 2378 1081 2264 
Q 1234 2150 1697 2047 
L 1894 2003 
Q 2506 1872 2764 1633 
Q 3022 1394 3022 966 
Q 3022 478 2636 193 
Q 2250 -91 1575 -91 
Q 1294 -91 989 -36 
Q 684 19 347 128 
L 347 722 
Q 666 556 975 473 
Q 1284 391 1588 391 
Q 1994 391 2212 530 
Q 2431 669 2431 922 
Q 2431 1156 2273 1281 
Q 2116 1406 1581 1522 
L 1381 1569 
Q 847 1681 609 1914 
Q 372 2147 372 2553 
Q 372 3047 722 3315 
Q 1072 3584 1716 3584 
Q 2034 3584 2315 3537 
Q 2597 3491 2834 3397 
z
" transform="scale(0.015625)"/>
      <path id="DejaVuSans-6f" d="M 1959 3097 
Q 1497 3097 1228 2736 
Q 959 2375 959 1747 
Q 959 1119 1226 758 
Q 1494 397 1959 397 
Q 2419 397 2687 759 
Q 2956 1122 2956 1747 
Q 2956 2369 2687 2733 
Q 2419 3097 1959 3097 
z
M 1959 3584 
Q 2709 3584 3137 3096 
Q 3566 2609 3566 1747 
Q 3566 888 3137 398 
Q 2709 -91 1959 -91 
Q 1206 -91 779 398 
Q 353 888 353 1747 
Q 353 2609 779 3096 
Q 1206 3584 1959 3584 
z
" transform="scale(0.015625)"/>
      <path id="DejaVuSans-75" d="M 544 1381 
L 544 3500 
L 1119 3500 
L 1119 1403 
Q 1119 906 1312 657 
Q 1506 409 1894 409 
Q 2359 409 2629 706 
Q 2900 1003 2900 1516 
L 2900 3500 
L 3475 3500 
L 3475 0 
L 2900 0 
L 2900 538 
Q 2691 219 2414 64 
Q 2138 -91 1772 -91 
Q 1169 -91 856 284 
Q 544 659 544 1381 
z
M 1991 3584 
L 1991 3584 
z
" transform="scale(0.015625)"/>
      <path id="DejaVuSans-72" d="M 2631 2963 
Q 2534 3019 2420 3045 
Q 2306 3072 2169 3072 
Q 1681 3072 1420 2755 
Q 1159 2438 1159 1844 
L 1159 0 
L 581 0 
L 581 3500 
L 1159 3500 
L 1159 2956 
Q 1341 3275 1631 3429 
Q 1922 3584 2338 3584 
Q 2397 3584 2469 3576 
Q 2541 3569 2628 3553 
L 2631 2963 
z
" transform="scale(0.015625)"/>
      <path id="DejaVuSans-63" d="M 3122 3366 
L 3122 2828 
Q 2878 2963 2633 3030 
Q 2388 3097 2138 3097 
Q 1578 3097 1268 2742 
Q 959 2388 959 1747 
Q 959 1106 1268 751 
Q 1578 397 2138 397 
Q 2388 397 2633 464 
Q 2878 531 3122 666 
L 3122 134 
Q 2881 22 2623 -34 
Q 2366 -91 2075 -91 
Q 1284 -91 818 406 
Q 353 903 353 1747 
Q 353 2603 823 3093 
Q 1294 3584 2113 3584 
Q 2378 3584 2631 3529 
Q 2884 3475 3122 3366 
z
" transform="scale(0.015625)"/>
      <path id="DejaVuSans-65" d="M 3597 1894 
L 3597 1613 
L 953 1613 
Q 991 1019 1311 708 
Q 1631 397 2203 397 
Q 2534 397 2845 478 
Q 3156 559 3463 722 
L 3463 178 
Q 3153 47 2828 -22 
Q 2503 -91 2169 -91 
Q 1331 -91 842 396 
Q 353 884 353 1716 
Q 353 2575 817 3079 
Q 1281 3584 2069 3584 
Q 2775 3584 3186 3129 
Q 3597 2675 3597 1894 
z
M 3022 2063 
Q 3016 2534 2758 2815 
Q 2500 3097 2075 3097 
Q 1594 3097 1305 2825 
Q 1016 2553 972 2059 
L 3022 2063 
z
" transform="scale(0.015625)"/>
      <path id="DejaVuSans-2d" d="M 313 2009 
L 1997 2009 
L 1997 1497 
L 313 1497 
L 313 2009 
z
" transform="scale(0.015625)"/>
      <path id="DejaVuSans-69" d="M 603 3500 
L 1178 3500 
L 1178 0 
L 603 0 
L 603 3500 
z
M 603 4863 
L 1178 4863 
L 1178 4134 
L 603 4134 
L 603 4863 
z
" transform="scale(0.015625)"/>
      <path id="DejaVuSans-76" d="M 191 3500 
L 800 3500 
L 1894 563 
L 2988 3500 
L 3597 3500 
L 2284 0 
L 1503 0 
L 191 3500 
z
" transform="scale(0.015625)"/>
      <path id="DejaVuSans-37" d="M 525 4666 
L 3525 4666 
L 3525 4397 
L 1831 0 
L 1172 0 
L 2766 4134 
L 525 4134 
L 525 4666 
z
" transform="scale(0.015625)"/>
     </defs>
     <use xlink:href="#DejaVuSans-73"/>
     <use xlink:href="#DejaVuSans-6f" x="52.099609"/>
     <use xlink:href="#DejaVuSans-75" x="113.28125"/>
     <use xlink:href="#DejaVuSans-72" x="176.660156"/>
     <use xlink:href="#DejaVuSans-63" x="215.523438"/>
     <use xlink:href="#DejaVuSans-65" x="270.503906"/>
     <use xlink:href="#DejaVuSans-32" x="332.027344"/>
     <use xlink:href="#DejaVuSans-32" x="395.650391"/>
     <use xlink:href="#DejaVuSans-2d" x="459.273438"/>
     <use xlink:href="#DejaVuSans-72" x="495.357422"/>
     <use xlink:href="#DejaVuSans-65" x="534.220703"/>
     <use xlink:href="#DejaVuSans-63" x="595.744141"/>
     <use xlink:href="#DejaVuSans-65" x="650.724609"/>
     <use xlink:href="#DejaVuSans-69" x="712.248047"/>
     <use xlink:href="#DejaVuSans-76" x="740.03125"/>
     <use xlink:href="#DejaVuSans-65" x="799.210938"/>
     <use xlink:href="#DejaVuSans-72" x="860.734375"/>
     <use xlink:href="#DejaVuSans-31" x="901.847656"/>
     <use xlink:href="#DejaVuSans-37" x="965.470703"/>
    </g>
   </g>
  </g>
 </g>
 <defs>
  <clipPath id="paddeaa9012">
   <rect x="180" y="69.12" width="1116" height="443.52"/>
  </clipPath>
 </defs>
</svg>
