<?xml version="1.0" encoding="utf-8" standalone="no"?>
<!DOCTYPE svg PUBLIC "-//W3C//DTD SVG 1.1//EN"
  "http://www.w3.org/Graphics/SVG/1.1/DTD/svg11.dtd">
<svg xmlns:xlink="http://www.w3.org/1999/xlink" width="1440pt" height="576pt" viewBox="0 0 1440 576" xmlns="http://www.w3.org/2000/svg" version="1.1">
 <metadata>
  <rdf:RDF xmlns:dc="http://purl.org/dc/elements/1.1/" xmlns:cc="http://creativecommons.org/ns#" xmlns:rdf="http://www.w3.org/1999/02/22-rdf-syntax-ns#">
   <cc:Work>
    <dc:type rdf:resource="http://purl.org/dc/dcmitype/StillImage"/>
    <dc:date>2024-05-22T04:50:22.532934</dc:date>
    <dc:format>image/svg+xml</dc:format>
    <dc:creator>
     <cc:Agent>
      <dc:title>Matplotlib v3.8.3, https://matplotlib.org/</dc:title>
     </cc:Agent>
    </dc:creator>
   </cc:Work>
  </rdf:RDF>
 </metadata>
 <defs>
  <style type="text/css">*{stroke-linejoin: round; stroke-linecap: butt}</style>
 </defs>
 <g id="figure_1">
  <g id="patch_1">
   <path d="M 0 576 
L 1440 576 
L 1440 0 
L 0 0 
z
" style="fill: #ffffff"/>
  </g>
  <g id="axes_1">
   <g id="patch_2">
    <path d="M 180 512.64 
L 1296 512.64 
L 1296 69.12 
L 180 69.12 
z
" style="fill: #ffffff"/>
   </g>
   <g id="matplotlib.axis_1">
    <g id="xtick_1">
     <g id="line2d_1">
      <defs>
       <path id="m23b2dbb3cc" d="M 0 0 
L 0 3.5 
" style="stroke: #000000; stroke-width: 0.8"/>
      </defs>
      <g>
       <use xlink:href="#m23b2dbb3cc" x="229.734567" y="512.64" style="stroke: #000000; stroke-width: 0.8"/>
      </g>
     </g>
     <g id="text_1">
      <!-- 0 -->
      <g transform="translate(226.553317 527.238438) scale(0.1 -0.1)">
       <defs>
        <path id="DejaVuSans-30" d="M 2034 4250 
Q 1547 4250 1301 3770 
Q 1056 3291 1056 2328 
Q 1056 1369 1301 889 
Q 1547 409 2034 409 
Q 2525 409 2770 889 
Q 3016 1369 3016 2328 
Q 3016 3291 2770 3770 
Q 2525 4250 2034 4250 
z
M 2034 4750 
Q 2819 4750 3233 4129 
Q 3647 3509 3647 2328 
Q 3647 1150 3233 529 
Q 2819 -91 2034 -91 
Q 1250 -91 836 529 
Q 422 1150 422 2328 
Q 422 3509 836 4129 
Q 1250 4750 2034 4750 
z
" transform="scale(0.015625)"/>
       </defs>
       <use xlink:href="#DejaVuSans-30"/>
      </g>
     </g>
    </g>
    <g id="xtick_2">
     <g id="line2d_2">
      <g>
       <use xlink:href="#m23b2dbb3cc" x="433.04074" y="512.64" style="stroke: #000000; stroke-width: 0.8"/>
      </g>
     </g>
     <g id="text_2">
      <!-- 500 -->
      <g transform="translate(423.49699 527.238438) scale(0.1 -0.1)">
       <defs>
        <path id="DejaVuSans-35" d="M 691 4666 
L 3169 4666 
L 3169 4134 
L 1269 4134 
L 1269 2991 
Q 1406 3038 1543 3061 
Q 1681 3084 1819 3084 
Q 2600 3084 3056 2656 
Q 3513 2228 3513 1497 
Q 3513 744 3044 326 
Q 2575 -91 1722 -91 
Q 1428 -91 1123 -41 
Q 819 9 494 109 
L 494 744 
Q 775 591 1075 516 
Q 1375 441 1709 441 
Q 2250 441 2565 725 
Q 2881 1009 2881 1497 
Q 2881 1984 2565 2268 
Q 2250 2553 1709 2553 
Q 1456 2553 1204 2497 
Q 953 2441 691 2322 
L 691 4666 
z
" transform="scale(0.015625)"/>
       </defs>
       <use xlink:href="#DejaVuSans-35"/>
       <use xlink:href="#DejaVuSans-30" x="63.623047"/>
       <use xlink:href="#DejaVuSans-30" x="127.246094"/>
      </g>
     </g>
    </g>
    <g id="xtick_3">
     <g id="line2d_3">
      <g>
       <use xlink:href="#m23b2dbb3cc" x="636.346913" y="512.64" style="stroke: #000000; stroke-width: 0.8"/>
      </g>
     </g>
     <g id="text_3">
      <!-- 1000 -->
      <g transform="translate(623.621913 527.238438) scale(0.1 -0.1)">
       <defs>
        <path id="DejaVuSans-31" d="M 794 531 
L 1825 531 
L 1825 4091 
L 703 3866 
L 703 4441 
L 1819 4666 
L 2450 4666 
L 2450 531 
L 3481 531 
L 3481 0 
L 794 0 
L 794 531 
z
" transform="scale(0.015625)"/>
       </defs>
       <use xlink:href="#DejaVuSans-31"/>
       <use xlink:href="#DejaVuSans-30" x="63.623047"/>
       <use xlink:href="#DejaVuSans-30" x="127.246094"/>
       <use xlink:href="#DejaVuSans-30" x="190.869141"/>
      </g>
     </g>
    </g>
    <g id="xtick_4">
     <g id="line2d_4">
      <g>
       <use xlink:href="#m23b2dbb3cc" x="839.653087" y="512.64" style="stroke: #000000; stroke-width: 0.8"/>
      </g>
     </g>
     <g id="text_4">
      <!-- 1500 -->
      <g transform="translate(826.928087 527.238438) scale(0.1 -0.1)">
       <use xlink:href="#DejaVuSans-31"/>
       <use xlink:href="#DejaVuSans-35" x="63.623047"/>
       <use xlink:href="#DejaVuSans-30" x="127.246094"/>
       <use xlink:href="#DejaVuSans-30" x="190.869141"/>
      </g>
     </g>
    </g>
    <g id="xtick_5">
     <g id="line2d_5">
      <g>
       <use xlink:href="#m23b2dbb3cc" x="1042.95926" y="512.64" style="stroke: #000000; stroke-width: 0.8"/>
      </g>
     </g>
     <g id="text_5">
      <!-- 2000 -->
      <g transform="translate(1030.23426 527.238438) scale(0.1 -0.1)">
       <defs>
        <path id="DejaVuSans-32" d="M 1228 531 
L 3431 531 
L 3431 0 
L 469 0 
L 469 531 
Q 828 903 1448 1529 
Q 2069 2156 2228 2338 
Q 2531 2678 2651 2914 
Q 2772 3150 2772 3378 
Q 2772 3750 2511 3984 
Q 2250 4219 1831 4219 
Q 1534 4219 1204 4116 
Q 875 4013 500 3803 
L 500 4441 
Q 881 4594 1212 4672 
Q 1544 4750 1819 4750 
Q 2544 4750 2975 4387 
Q 3406 4025 3406 3419 
Q 3406 3131 3298 2873 
Q 3191 2616 2906 2266 
Q 2828 2175 2409 1742 
Q 1991 1309 1228 531 
z
" transform="scale(0.015625)"/>
       </defs>
       <use xlink:href="#DejaVuSans-32"/>
       <use xlink:href="#DejaVuSans-30" x="63.623047"/>
       <use xlink:href="#DejaVuSans-30" x="127.246094"/>
       <use xlink:href="#DejaVuSans-30" x="190.869141"/>
      </g>
     </g>
    </g>
    <g id="xtick_6">
     <g id="line2d_6">
      <g>
       <use xlink:href="#m23b2dbb3cc" x="1246.265433" y="512.64" style="stroke: #000000; stroke-width: 0.8"/>
      </g>
     </g>
     <g id="text_6">
      <!-- 2500 -->
      <g transform="translate(1233.540433 527.238438) scale(0.1 -0.1)">
       <use xlink:href="#DejaVuSans-32"/>
       <use xlink:href="#DejaVuSans-35" x="63.623047"/>
       <use xlink:href="#DejaVuSans-30" x="127.246094"/>
       <use xlink:href="#DejaVuSans-30" x="190.869141"/>
      </g>
     </g>
    </g>
   </g>
   <g id="matplotlib.axis_2">
    <g id="ytick_1">
     <g id="line2d_7">
      <defs>
       <path id="md698dc5aa3" d="M 0 0 
L -3.5 0 
" style="stroke: #000000; stroke-width: 0.8"/>
      </defs>
      <g>
       <use xlink:href="#md698dc5aa3" x="180" y="460.095441" style="stroke: #000000; stroke-width: 0.8"/>
      </g>
     </g>
     <g id="text_7">
      <!-- −7 -->
      <g transform="translate(158.257812 463.89466) scale(0.1 -0.1)">
       <defs>
        <path id="DejaVuSans-2212" d="M 678 2272 
L 4684 2272 
L 4684 1741 
L 678 1741 
L 678 2272 
z
" transform="scale(0.015625)"/>
        <path id="DejaVuSans-37" d="M 525 4666 
L 3525 4666 
L 3525 4397 
L 1831 0 
L 1172 0 
L 2766 4134 
L 525 4134 
L 525 4666 
z
" transform="scale(0.015625)"/>
       </defs>
       <use xlink:href="#DejaVuSans-2212"/>
       <use xlink:href="#DejaVuSans-37" x="83.789062"/>
      </g>
     </g>
    </g>
    <g id="ytick_2">
     <g id="line2d_8">
      <g>
       <use xlink:href="#md698dc5aa3" x="180" y="407.234816" style="stroke: #000000; stroke-width: 0.8"/>
      </g>
     </g>
     <g id="text_8">
      <!-- −6 -->
      <g transform="translate(158.257812 411.034035) scale(0.1 -0.1)">
       <defs>
        <path id="DejaVuSans-36" d="M 2113 2584 
Q 1688 2584 1439 2293 
Q 1191 2003 1191 1497 
Q 1191 994 1439 701 
Q 1688 409 2113 409 
Q 2538 409 2786 701 
Q 3034 994 3034 1497 
Q 3034 2003 2786 2293 
Q 2538 2584 2113 2584 
z
M 3366 4563 
L 3366 3988 
Q 3128 4100 2886 4159 
Q 2644 4219 2406 4219 
Q 1781 4219 1451 3797 
Q 1122 3375 1075 2522 
Q 1259 2794 1537 2939 
Q 1816 3084 2150 3084 
Q 2853 3084 3261 2657 
Q 3669 2231 3669 1497 
Q 3669 778 3244 343 
Q 2819 -91 2113 -91 
Q 1303 -91 875 529 
Q 447 1150 447 2328 
Q 447 3434 972 4092 
Q 1497 4750 2381 4750 
Q 2619 4750 2861 4703 
Q 3103 4656 3366 4563 
z
" transform="scale(0.015625)"/>
       </defs>
       <use xlink:href="#DejaVuSans-2212"/>
       <use xlink:href="#DejaVuSans-36" x="83.789062"/>
      </g>
     </g>
    </g>
    <g id="ytick_3">
     <g id="line2d_9">
      <g>
       <use xlink:href="#md698dc5aa3" x="180" y="354.374192" style="stroke: #000000; stroke-width: 0.8"/>
      </g>
     </g>
     <g id="text_9">
      <!-- −5 -->
      <g transform="translate(158.257812 358.173411) scale(0.1 -0.1)">
       <use xlink:href="#DejaVuSans-2212"/>
       <use xlink:href="#DejaVuSans-35" x="83.789062"/>
      </g>
     </g>
    </g>
    <g id="ytick_4">
     <g id="line2d_10">
      <g>
       <use xlink:href="#md698dc5aa3" x="180" y="301.513568" style="stroke: #000000; stroke-width: 0.8"/>
      </g>
     </g>
     <g id="text_10">
      <!-- −4 -->
      <g transform="translate(158.257812 305.312786) scale(0.1 -0.1)">
       <defs>
        <path id="DejaVuSans-34" d="M 2419 4116 
L 825 1625 
L 2419 1625 
L 2419 4116 
z
M 2253 4666 
L 3047 4666 
L 3047 1625 
L 3713 1625 
L 3713 1100 
L 3047 1100 
L 3047 0 
L 2419 0 
L 2419 1100 
L 313 1100 
L 313 1709 
L 2253 4666 
z
" transform="scale(0.015625)"/>
       </defs>
       <use xlink:href="#DejaVuSans-2212"/>
       <use xlink:href="#DejaVuSans-34" x="83.789062"/>
      </g>
     </g>
    </g>
    <g id="ytick_5">
     <g id="line2d_11">
      <g>
       <use xlink:href="#md698dc5aa3" x="180" y="248.652943" style="stroke: #000000; stroke-width: 0.8"/>
      </g>
     </g>
     <g id="text_11">
      <!-- −3 -->
      <g transform="translate(158.257812 252.452162) scale(0.1 -0.1)">
       <defs>
        <path id="DejaVuSans-33" d="M 2597 2516 
Q 3050 2419 3304 2112 
Q 3559 1806 3559 1356 
Q 3559 666 3084 287 
Q 2609 -91 1734 -91 
Q 1441 -91 1130 -33 
Q 819 25 488 141 
L 488 750 
Q 750 597 1062 519 
Q 1375 441 1716 441 
Q 2309 441 2620 675 
Q 2931 909 2931 1356 
Q 2931 1769 2642 2001 
Q 2353 2234 1838 2234 
L 1294 2234 
L 1294 2753 
L 1863 2753 
Q 2328 2753 2575 2939 
Q 2822 3125 2822 3475 
Q 2822 3834 2567 4026 
Q 2313 4219 1838 4219 
Q 1578 4219 1281 4162 
Q 984 4106 628 3988 
L 628 4550 
Q 988 4650 1302 4700 
Q 1616 4750 1894 4750 
Q 2613 4750 3031 4423 
Q 3450 4097 3450 3541 
Q 3450 3153 3228 2886 
Q 3006 2619 2597 2516 
z
" transform="scale(0.015625)"/>
       </defs>
       <use xlink:href="#DejaVuSans-2212"/>
       <use xlink:href="#DejaVuSans-33" x="83.789062"/>
      </g>
     </g>
    </g>
    <g id="ytick_6">
     <g id="line2d_12">
      <g>
       <use xlink:href="#md698dc5aa3" x="180" y="195.792319" style="stroke: #000000; stroke-width: 0.8"/>
      </g>
     </g>
     <g id="text_12">
      <!-- −2 -->
      <g transform="translate(158.257812 199.591538) scale(0.1 -0.1)">
       <use xlink:href="#DejaVuSans-2212"/>
       <use xlink:href="#DejaVuSans-32" x="83.789062"/>
      </g>
     </g>
    </g>
    <g id="ytick_7">
     <g id="line2d_13">
      <g>
       <use xlink:href="#md698dc5aa3" x="180" y="142.931695" style="stroke: #000000; stroke-width: 0.8"/>
      </g>
     </g>
     <g id="text_13">
      <!-- −1 -->
      <g transform="translate(158.257812 146.730913) scale(0.1 -0.1)">
       <use xlink:href="#DejaVuSans-2212"/>
       <use xlink:href="#DejaVuSans-31" x="83.789062"/>
      </g>
     </g>
    </g>
    <g id="ytick_8">
     <g id="line2d_14">
      <g>
       <use xlink:href="#md698dc5aa3" x="180" y="90.07107" style="stroke: #000000; stroke-width: 0.8"/>
      </g>
     </g>
     <g id="text_14">
      <!-- 0 -->
      <g transform="translate(166.6375 93.870289) scale(0.1 -0.1)">
       <use xlink:href="#DejaVuSans-30"/>
      </g>
     </g>
    </g>
   </g>
   <g id="line2d_15">
    <path d="M 230.727273 329.409429 
L 231.719979 328.614483 
L 232.712685 326.308917 
L 233.70539 324.50291 
L 234.698096 326.540223 
L 235.690802 327.839956 
L 236.683508 321.197567 
L 237.676214 327.924876 
L 238.66892 320.400018 
L 239.661626 319.863902 
L 240.654332 320.835975 
L 241.647038 320.864719 
L 242.639744 319.515797 
L 243.63245 319.329873 
L 244.625156 332.768781 
L 245.617862 332.253923 
L 246.610568 371.857928 
L 247.603273 286.563111 
L 248.595979 311.179023 
L 249.588685 257.248779 
L 250.581391 262.599213 
L 251.574097 227.909376 
L 252.566803 238.440265 
L 253.559509 190.616857 
L 254.552215 204.75831 
L 255.544921 237.03526 
L 256.537627 162.242216 
L 257.530333 243.5744 
L 258.523039 161.433858 
L 259.515745 176.71642 
L 260.50845 171.262127 
L 261.501156 160.915267 
L 262.493862 191.260983 
L 263.486568 189.036902 
L 264.479274 233.335657 
L 265.47198 226.152624 
L 266.464686 209.366777 
L 267.457392 201.201208 
L 268.450098 175.201742 
L 269.442804 176.381485 
L 270.43551 167.601954 
L 271.428216 178.576224 
L 272.420922 197.422524 
L 273.413627 198.331403 
L 274.406333 147.302194 
L 275.399039 139.666969 
L 276.391745 144.932248 
L 277.384451 162.082516 
L 278.377157 139.330657 
L 279.369863 113.829142 
L 280.362569 103.330056 
L 281.355275 107.234879 
L 282.347981 144.649173 
L 284.333393 99.270916 
L 285.326099 91.228512 
L 286.318804 89.28 
L 288.304216 118.186872 
L 289.296922 123.319344 
L 290.289628 140.303292 
L 291.282334 147.903915 
L 292.27504 206.085935 
L 293.267746 233.678067 
L 294.260452 200.485582 
L 295.253158 221.557844 
L 296.245864 227.440136 
L 297.23857 225.149029 
L 298.231276 262.165637 
L 299.223981 267.165221 
L 300.216687 215.499348 
L 301.209393 222.105705 
L 302.202099 232.496453 
L 303.194805 296.317547 
L 304.187511 318.093524 
L 305.180217 252.949863 
L 306.172923 207.104912 
L 308.158335 247.415355 
L 309.151041 288.419026 
L 310.143747 236.953475 
L 311.136453 264.132842 
L 312.129159 257.053529 
L 313.121864 256.703132 
L 314.11457 266.969397 
L 315.107276 212.208579 
L 316.099982 222.617388 
L 317.092688 215.794162 
L 318.085394 290.837005 
L 319.0781 349.649457 
L 320.070806 240.665454 
L 321.063512 265.73961 
L 322.056218 253.46386 
L 323.048924 214.105941 
L 324.04163 301.002062 
L 325.034336 325.005869 
L 326.027041 287.755882 
L 327.019747 352.098519 
L 328.012453 303.742579 
L 329.005159 332.751943 
L 329.997865 240.748194 
L 330.990571 321.618775 
L 331.983277 269.412381 
L 332.975983 275.07798 
L 333.968689 265.88259 
L 334.961395 275.316676 
L 335.954101 336.495668 
L 336.946807 192.409619 
L 337.939513 255.053739 
L 338.932218 245.910199 
L 339.924924 225.841104 
L 340.91763 209.933557 
L 341.910336 278.954096 
L 342.903042 249.867177 
L 343.895748 268.383425 
L 344.888454 257.648419 
L 345.88116 340.620732 
L 346.873866 284.975553 
L 347.866572 322.68652 
L 348.859278 244.47029 
L 349.851984 258.601949 
L 350.84469 237.224491 
L 351.837395 283.570614 
L 352.830101 319.832735 
L 353.822807 234.052828 
L 354.815513 256.716937 
L 355.808219 307.134089 
L 356.800925 323.910586 
L 357.793631 276.236318 
L 358.786337 234.340917 
L 359.779043 217.959521 
L 360.771749 284.493697 
L 361.764455 259.060029 
L 362.757161 258.456724 
L 363.749867 249.932184 
L 364.742572 206.62174 
L 365.735278 194.89452 
L 366.727984 209.659823 
L 367.72069 210.351287 
L 368.713396 264.224539 
L 370.698808 211.557915 
L 371.691514 229.030071 
L 372.68422 232.469582 
L 373.676926 320.158006 
L 374.669632 289.95108 
L 375.662338 401.813658 
L 376.655044 212.014661 
L 377.64775 238.702155 
L 378.640455 218.538759 
L 379.633161 251.557697 
L 380.625867 243.252053 
L 381.618573 262.198282 
L 382.611279 219.01646 
L 383.603985 256.969686 
L 384.596691 315.115668 
L 385.589397 269.601941 
L 386.582103 204.136778 
L 387.574809 272.257996 
L 388.567515 251.189991 
L 389.560221 218.172263 
L 390.552927 195.228373 
L 391.545632 163.132188 
L 392.538338 176.867023 
L 393.531044 173.574343 
L 394.52375 164.608169 
L 395.516456 196.163807 
L 396.509162 262.600663 
L 397.501868 223.36193 
L 398.494574 215.917924 
L 399.48728 274.75182 
L 400.479986 262.602781 
L 401.472692 237.240135 
L 402.465398 222.59479 
L 403.458104 266.093805 
L 405.443515 213.400034 
L 406.436221 225.9927 
L 407.428927 248.445411 
L 408.421633 288.632657 
L 409.414339 268.020879 
L 410.407045 221.723423 
L 411.399751 256.803043 
L 412.392457 243.897893 
L 413.385163 204.834071 
L 414.377869 279.710553 
L 415.370575 216.070845 
L 416.363281 261.037389 
L 417.355986 192.952488 
L 418.348692 148.440582 
L 419.341398 159.026705 
L 420.334104 150.64268 
L 421.32681 149.876481 
L 422.319516 180.62504 
L 423.312222 173.648424 
L 424.304928 202.150962 
L 425.297634 202.831489 
L 426.29034 201.289937 
L 427.283046 220.99129 
L 428.275752 208.743903 
L 429.268458 214.966083 
L 430.261163 300.296531 
L 431.253869 205.512414 
L 432.246575 207.714635 
L 433.239281 225.879297 
L 434.231987 263.882615 
L 435.224693 235.16098 
L 436.217399 237.184313 
L 437.210105 225.084263 
L 438.202811 248.597159 
L 439.195517 228.846735 
L 440.188223 302.760429 
L 441.180929 227.303546 
L 442.173635 254.643585 
L 443.166341 244.246858 
L 444.159046 226.844196 
L 445.151752 200.191269 
L 446.144458 197.444032 
L 447.137164 196.627065 
L 448.12987 222.874164 
L 449.122576 217.414592 
L 450.115282 245.885305 
L 451.107988 281.797717 
L 452.100694 260.193403 
L 453.0934 304.273051 
L 454.086106 307.844249 
L 455.078812 314.493776 
L 456.071518 261.037902 
L 458.056929 282.176257 
L 459.049635 258.742892 
L 460.042341 310.059741 
L 461.035047 311.372676 
L 462.027753 306.779664 
L 463.020459 281.134973 
L 464.013165 331.579921 
L 465.005871 284.577177 
L 465.998577 281.508031 
L 466.991283 278.021043 
L 467.983989 229.031292 
L 468.976695 291.566202 
L 469.9694 278.898096 
L 470.962106 262.844004 
L 471.954812 357.964585 
L 472.947518 298.162627 
L 473.940224 225.461919 
L 474.93293 303.695764 
L 475.925636 254.819269 
L 476.918342 240.251059 
L 477.911048 347.514349 
L 478.903754 303.554344 
L 479.89646 312.401685 
L 480.889166 302.352805 
L 481.881872 279.017628 
L 482.874577 266.907434 
L 483.867283 228.725666 
L 484.859989 310.604249 
L 485.852695 238.935394 
L 486.845401 227.242558 
L 487.838107 242.51027 
L 488.830813 244.234297 
L 489.823519 305.06756 
L 491.808931 246.125589 
L 492.801637 372.685797 
L 493.794343 312.555334 
L 494.787049 260.610065 
L 495.779754 269.984106 
L 496.77246 283.096275 
L 497.765166 267.837545 
L 498.757872 257.961287 
L 499.750578 224.507834 
L 500.743284 217.930463 
L 501.73599 208.080159 
L 502.728696 239.26712 
L 503.721402 201.959592 
L 504.714108 230.087675 
L 505.706814 222.95602 
L 506.69952 250.585893 
L 507.692226 227.553731 
L 508.684932 331.415275 
L 509.677637 258.134074 
L 510.670343 231.223257 
L 511.663049 282.161205 
L 512.655755 272.186661 
L 513.648461 231.145326 
L 514.641167 227.344426 
L 515.633873 206.255061 
L 516.626579 264.348641 
L 517.619285 222.93623 
L 518.611991 272.073184 
L 519.604697 343.818013 
L 520.597403 256.585562 
L 521.590109 270.728435 
L 522.582814 260.584442 
L 523.57552 295.631223 
L 525.560932 223.906758 
L 526.553638 208.87656 
L 527.546344 190.064386 
L 528.53905 181.148064 
L 529.531756 194.111976 
L 530.524462 173.786921 
L 531.517168 214.880261 
L 532.509874 212.867876 
L 533.50258 250.991938 
L 534.495286 233.578528 
L 535.487991 262.96814 
L 536.480697 239.262287 
L 537.473403 286.241451 
L 538.466109 234.041999 
L 539.458815 211.744039 
L 540.451521 224.430773 
L 541.444227 211.480834 
L 542.436933 196.445025 
L 543.429639 282.263844 
L 544.422345 216.817311 
L 545.415051 231.758283 
L 546.407757 251.995647 
L 547.400463 236.888063 
L 548.393168 217.592352 
L 549.385874 228.8655 
L 550.37858 209.065033 
L 551.371286 216.483086 
L 552.363992 219.103992 
L 553.356698 199.929261 
L 555.34211 170.578043 
L 556.334816 170.589688 
L 557.327522 176.613731 
L 558.320228 186.324334 
L 559.312934 243.270065 
L 560.30564 224.960025 
L 561.298345 257.501201 
L 562.291051 236.011726 
L 563.283757 228.917152 
L 564.276463 305.680428 
L 565.269169 238.908084 
L 566.261875 236.78987 
L 567.254581 232.129432 
L 568.247287 229.542632 
L 569.239993 338.923117 
L 570.232699 223.088544 
L 571.225405 255.171047 
L 572.218111 317.080486 
L 573.210817 307.570276 
L 574.203523 345.432493 
L 575.196228 241.849273 
L 576.188934 280.465442 
L 577.18164 406.961006 
L 578.174346 318.665202 
L 579.167052 240.655061 
L 580.159758 258.774922 
L 581.152464 233.903522 
L 582.14517 231.813466 
L 583.137876 221.117089 
L 584.130582 225.923499 
L 585.123288 233.158929 
L 586.115994 305.881385 
L 587.1087 275.163313 
L 588.101405 281.524329 
L 589.094111 245.212159 
L 590.086817 281.607501 
L 592.072229 319.876494 
L 593.064935 298.545012 
L 594.057641 279.94822 
L 595.050347 298.411862 
L 596.043053 302.498239 
L 597.035759 298.55798 
L 598.028465 288.34833 
L 599.021171 250.685577 
L 600.013877 291.512334 
L 601.006582 392.595735 
L 601.999288 303.334078 
L 602.991994 266.016597 
L 603.9847 294.637736 
L 604.977406 273.894143 
L 605.970112 314.507011 
L 606.962818 319.448572 
L 607.955524 396.564001 
L 608.94823 318.801654 
L 609.940936 272.681051 
L 610.933642 253.406168 
L 611.926348 371.239443 
L 612.919054 309.149042 
L 613.911759 330.761465 
L 614.904465 328.876952 
L 615.897171 283.208118 
L 616.889877 289.354768 
L 617.882583 371.71281 
L 618.875289 333.971121 
L 619.867995 313.451594 
L 620.860701 307.328844 
L 621.853407 293.627765 
L 622.846113 338.692927 
L 623.838819 321.163338 
L 624.831525 314.640161 
L 625.824231 339.535225 
L 626.816936 343.894316 
L 627.809642 315.555438 
L 628.802348 309.885536 
L 629.795054 316.798002 
L 630.78776 332.959741 
L 631.780466 319.515777 
L 632.773172 375.858465 
L 633.765878 299.100082 
L 634.758584 319.723767 
L 635.75129 318.321208 
L 636.743996 341.202077 
L 637.736702 338.074492 
L 638.729408 312.334019 
L 639.722114 382.566186 
L 641.707525 349.219932 
L 642.700231 288.081795 
L 643.692937 352.061073 
L 644.685643 393.370003 
L 646.671055 318.122328 
L 647.663761 469.768211 
L 648.656467 317.541681 
L 649.649173 416.201935 
L 650.641879 404.322625 
L 651.634585 363.740871 
L 652.627291 340.6916 
L 653.619996 352.684505 
L 654.612702 375.642788 
L 655.605408 417.958613 
L 656.598114 349.485885 
L 657.59082 369.771315 
L 658.583526 338.454426 
L 659.576232 342.230695 
L 660.568938 428.36953 
L 661.561644 369.438533 
L 662.55435 325.092173 
L 663.547056 337.465178 
L 664.539762 355.006769 
L 665.532468 351.755636 
L 666.525173 430.443673 
L 667.517879 386.532223 
L 668.510585 422.822141 
L 669.503291 383.157104 
L 670.495997 357.229774 
L 671.488703 364.572755 
L 672.481409 379.283712 
L 673.474115 438.803929 
L 674.466821 374.306324 
L 675.459527 371.076261 
L 676.452233 405.441791 
L 677.444939 403.562699 
L 678.437645 421.747271 
L 679.43035 424.45778 
L 680.423056 408.985244 
L 681.415762 353.199262 
L 682.408468 339.003413 
L 683.401174 417.92775 
L 684.39388 381.397933 
L 685.386586 361.530541 
L 686.379292 387.442993 
L 687.371998 374.769325 
L 688.364704 384.364093 
L 689.35741 404.282995 
L 690.350116 392.932438 
L 691.342822 372.94877 
L 692.335527 360.042471 
L 693.328233 398.913904 
L 694.320939 381.945979 
L 695.313645 435.910299 
L 696.306351 385.664059 
L 697.299057 364.099523 
L 698.291763 359.658927 
L 699.284469 377.1022 
L 700.277175 417.340448 
L 701.269881 386.629106 
L 702.262587 359.647278 
L 704.247999 388.594795 
L 705.240705 373.90274 
L 706.23341 371.139321 
L 707.226116 393.793247 
L 708.218822 395.601631 
L 709.211528 377.169216 
L 710.204234 365.492256 
L 711.19694 392.325902 
L 712.189646 410.150954 
L 713.182352 374.175051 
L 714.175058 379.628175 
L 715.167764 409.012518 
L 716.16047 378.754298 
L 717.153176 399.097544 
L 718.145882 407.409625 
L 719.138587 409.281888 
L 720.131293 434.947773 
L 721.123999 391.352794 
L 722.116705 380.26998 
L 723.109411 376.796233 
L 724.102117 418.136844 
L 725.094823 371.073607 
L 726.087529 393.048629 
L 727.080235 393.476953 
L 728.072941 410.63515 
L 729.065647 383.115801 
L 730.058353 452.232202 
L 731.051059 403.917577 
L 732.043764 365.06548 
L 733.03647 395.629226 
L 734.029176 403.831279 
L 735.021882 395.404138 
L 736.014588 376.316073 
L 737.007294 399.390811 
L 738 401.035868 
L 738.992706 408.993907 
L 739.985412 391.435911 
L 740.978118 371.588833 
L 741.970824 382.631346 
L 742.96353 390.761475 
L 743.956236 383.07641 
L 744.948941 377.84835 
L 745.941647 388.101469 
L 746.934353 404.658781 
L 747.927059 415.446022 
L 748.919765 407.704992 
L 749.912471 384.138787 
L 750.905177 401.651309 
L 751.897883 391.724215 
L 752.890589 374.790998 
L 753.883295 391.847656 
L 754.876001 389.457679 
L 755.868707 409.9545 
L 756.861413 375.522558 
L 757.854118 390.643488 
L 758.846824 396.843045 
L 759.83953 401.62676 
L 760.832236 433.186816 
L 761.824942 409.646189 
L 762.817648 417.973401 
L 763.810354 398.193299 
L 764.80306 410.546761 
L 765.795766 382.80695 
L 766.788472 379.945182 
L 768.773884 394.25091 
L 769.76659 410.16443 
L 770.759295 402.001217 
L 771.752001 395.950888 
L 772.744707 424.843429 
L 773.737413 391.941036 
L 774.730119 393.692786 
L 775.722825 430.866327 
L 776.715531 412.048287 
L 778.700943 379.982702 
L 779.693649 391.688241 
L 780.686355 387.042893 
L 781.679061 425.950973 
L 782.671767 405.387391 
L 784.657178 384.235637 
L 785.649884 393.466855 
L 786.64259 417.274658 
L 787.635296 400.326313 
L 788.628002 405.522949 
L 789.620708 406.858955 
L 790.613414 388.713651 
L 791.60612 396.451119 
L 792.598826 382.816737 
L 793.591532 395.671268 
L 794.584238 392.63772 
L 795.576944 394.207098 
L 796.56965 391.915624 
L 797.562355 393.232104 
L 798.555061 411.783477 
L 799.547767 416.753618 
L 800.540473 395.434436 
L 801.533179 414.255026 
L 802.525885 388.097066 
L 803.518591 432.54549 
L 804.511297 385.154644 
L 805.504003 402.38724 
L 806.496709 394.71744 
L 807.489415 391.301744 
L 808.482121 395.284803 
L 809.474827 417.980806 
L 810.467532 399.972328 
L 811.460238 455.290772 
L 812.452944 398.534438 
L 813.44565 396.647786 
L 814.438356 443.741603 
L 815.431062 387.248498 
L 816.423768 394.509031 
L 817.416474 402.668637 
L 818.40918 389.408469 
L 819.401886 405.172559 
L 820.394592 390.625601 
L 821.387298 405.109094 
L 822.380004 422.127723 
L 823.372709 408.592616 
L 824.365415 391.793516 
L 825.358121 398.990258 
L 826.350827 403.168578 
L 827.343533 397.067628 
L 828.336239 412.400575 
L 829.328945 389.065316 
L 830.321651 407.751712 
L 831.314357 408.617284 
L 832.307063 403.199303 
L 833.299769 384.639475 
L 834.292475 404.954849 
L 835.285181 422.565419 
L 836.277886 390.451986 
L 837.270592 405.97136 
L 838.263298 416.860456 
L 839.256004 400.604717 
L 840.24871 391.914559 
L 841.241416 420.861346 
L 842.234122 395.15385 
L 843.226828 424.558947 
L 844.219534 388.936645 
L 845.21224 399.446975 
L 846.204946 397.549522 
L 847.197652 399.49894 
L 848.190358 387.20544 
L 849.183064 408.670458 
L 850.175769 409.925358 
L 851.168475 417.665088 
L 852.161181 430.70476 
L 853.153887 401.517279 
L 854.146593 404.456124 
L 855.139299 400.934594 
L 856.132005 401.918341 
L 857.124711 399.502447 
L 858.117417 417.325138 
L 859.110123 412.350604 
L 860.102829 428.399874 
L 861.095535 395.09396 
L 862.088241 416.957381 
L 863.080946 400.932188 
L 864.073652 408.59614 
L 865.066358 409.769824 
L 866.059064 386.624765 
L 867.05177 389.267398 
L 868.044476 402.743155 
L 869.037182 400.282872 
L 870.029888 449.020352 
L 871.022594 407.809919 
L 872.0153 410.262365 
L 873.008006 406.300516 
L 874.000712 413.233928 
L 874.993418 416.851464 
L 875.986123 400.172715 
L 876.978829 414.97863 
L 877.971535 398.482304 
L 878.964241 409.331581 
L 879.956947 388.387083 
L 880.949653 393.411323 
L 881.942359 452.898496 
L 882.935065 383.618056 
L 883.927771 399.150382 
L 884.920477 390.739093 
L 885.913183 427.983733 
L 886.905889 414.211681 
L 887.898595 392.496803 
L 888.8913 412.777833 
L 889.884006 412.531004 
L 890.876712 436.029369 
L 891.869418 423.068992 
L 892.862124 393.316192 
L 893.85483 413.378023 
L 894.847536 402.904438 
L 895.840242 403.347301 
L 896.832948 411.656004 
L 897.825654 407.355738 
L 898.81836 440.968504 
L 899.811066 391.664952 
L 900.803772 438.196648 
L 901.796477 426.207324 
L 902.789183 393.164025 
L 903.781889 434.550901 
L 904.774595 404.624931 
L 905.767301 410.756931 
L 906.760007 409.00655 
L 907.752713 387.550839 
L 908.745419 419.516099 
L 909.738125 393.514559 
L 910.730831 384.826926 
L 911.723537 416.362885 
L 912.716243 406.263821 
L 913.708949 398.913603 
L 914.701655 437.444281 
L 915.69436 404.676313 
L 916.687066 432.398248 
L 917.679772 415.020012 
L 918.672478 412.143007 
L 919.665184 411.393086 
L 920.65789 410.32389 
L 921.650596 416.1283 
L 922.643302 420.80775 
L 923.636008 438.250578 
L 924.628714 405.005008 
L 925.62142 427.928078 
L 926.614126 398.187697 
L 927.606832 390.601035 
L 928.599537 399.876739 
L 929.592243 406.277368 
L 930.584949 404.052362 
L 931.577655 396.89108 
L 932.570361 422.794153 
L 933.563067 406.438368 
L 934.555773 446.242776 
L 935.548479 392.880851 
L 936.541185 428.659054 
L 937.533891 416.995846 
L 938.526597 408.426973 
L 939.519303 416.732005 
L 940.512009 416.057447 
L 941.504714 426.757007 
L 942.49742 398.618225 
L 943.490126 407.482188 
L 944.482832 421.93655 
L 945.475538 395.127998 
L 946.468244 410.455067 
L 947.46095 410.025233 
L 948.453656 413.22236 
L 949.446362 412.36703 
L 950.439068 427.589665 
L 951.431774 399.04105 
L 952.42448 405.721847 
L 953.417186 394.225195 
L 954.409891 429.161958 
L 955.402597 424.826487 
L 956.395303 416.091381 
L 958.380715 390.528278 
L 959.373421 415.247437 
L 960.366127 403.965673 
L 961.358833 412.653562 
L 962.351539 407.290186 
L 963.344245 392.609588 
L 964.336951 414.029405 
L 966.322363 389.97158 
L 967.315068 413.200195 
L 968.307774 422.727786 
L 969.30048 426.044034 
L 970.293186 400.44253 
L 971.285892 439.127751 
L 972.278598 436.560178 
L 973.271304 396.361359 
L 974.26401 431.946256 
L 975.256716 400.213771 
L 976.249422 391.278576 
L 977.242128 411.32363 
L 978.234834 436.415471 
L 979.22754 396.846478 
L 980.220246 444.658575 
L 981.212951 453.121895 
L 982.205657 400.776579 
L 983.198363 404.05957 
L 984.191069 416.413147 
L 985.183775 416.115642 
L 986.176481 425.706631 
L 987.169187 425.832764 
L 988.161893 417.498921 
L 989.154599 411.987895 
L 990.147305 421.836699 
L 991.140011 401.52897 
L 992.132717 427.060532 
L 993.125423 412.970874 
L 994.118128 444.230769 
L 995.110834 418.869581 
L 996.10354 403.130583 
L 997.096246 427.845868 
L 998.088952 413.115988 
L 999.081658 390.695923 
L 1000.074364 402.131823 
L 1001.06707 397.859203 
L 1002.059776 415.386853 
L 1003.052482 424.63424 
L 1004.045188 404.038749 
L 1005.037894 439.68607 
L 1006.0306 417.672911 
L 1007.023305 427.389919 
L 1008.016011 419.610503 
L 1009.008717 428.555446 
L 1010.001423 405.519666 
L 1010.994129 409.000782 
L 1011.986835 415.283393 
L 1012.979541 400.344216 
L 1013.972247 418.044569 
L 1014.964953 405.876235 
L 1015.957659 387.64621 
L 1016.950365 395.38749 
L 1017.943071 433.803496 
L 1018.935777 405.428916 
L 1019.928482 399.857644 
L 1020.921188 418.930233 
L 1021.913894 425.587815 
L 1023.899306 406.563194 
L 1024.892012 423.803936 
L 1025.884718 391.475142 
L 1026.877424 402.826944 
L 1027.87013 401.615538 
L 1028.862836 410.185379 
L 1029.855542 423.222384 
L 1030.848248 453.871624 
L 1031.840954 401.479148 
L 1032.833659 436.487336 
L 1033.826365 404.709284 
L 1034.819071 425.599908 
L 1035.811777 394.239033 
L 1036.804483 424.380105 
L 1037.797189 408.422869 
L 1038.789895 452.201881 
L 1039.782601 418.630771 
L 1040.775307 433.571618 
L 1041.768013 407.153277 
L 1042.760719 428.299005 
L 1043.753425 394.074749 
L 1044.746131 429.223355 
L 1045.738837 403.369573 
L 1046.731542 392.720281 
L 1047.724248 451.408446 
L 1048.716954 411.54931 
L 1049.70966 395.240197 
L 1050.702366 405.484684 
L 1051.695072 423.033812 
L 1052.687778 411.131412 
L 1053.680484 440.020381 
L 1054.67319 419.716263 
L 1055.665896 419.715185 
L 1056.658602 400.335286 
L 1057.651308 421.963869 
L 1058.644014 399.163531 
L 1059.636719 417.693814 
L 1060.629425 402.045623 
L 1061.622131 415.546308 
L 1062.614837 425.333398 
L 1063.607543 418.756105 
L 1064.600249 422.601056 
L 1065.592955 395.557685 
L 1066.585661 439.642935 
L 1067.578367 401.9452 
L 1068.571073 415.195996 
L 1069.563779 449.863712 
L 1070.556485 410.935217 
L 1071.549191 391.332246 
L 1072.541896 429.948656 
L 1073.534602 406.50975 
L 1074.527308 422.50207 
L 1075.520014 417.624723 
L 1076.51272 431.567881 
L 1077.505426 412.998471 
L 1078.498132 454.022896 
L 1079.490838 422.688901 
L 1080.483544 412.382224 
L 1081.47625 399.867719 
L 1082.468956 410.842602 
L 1083.461662 435.703519 
L 1084.454368 419.739878 
L 1085.447073 409.879223 
L 1086.439779 416.653175 
L 1087.432485 426.368489 
L 1088.425191 415.822156 
L 1089.417897 399.381577 
L 1090.410603 418.892902 
L 1091.403309 401.010195 
L 1092.396015 406.698953 
L 1093.388721 413.782735 
L 1094.381427 436.774312 
L 1095.374133 394.563362 
L 1096.366839 417.094746 
L 1097.359545 380.106462 
L 1098.35225 405.717426 
L 1099.344956 408.742813 
L 1100.337662 419.333109 
L 1101.330368 426.794343 
L 1102.323074 429.841122 
L 1103.31578 399.824303 
L 1104.308486 395.997966 
L 1105.301192 422.052818 
L 1106.293898 419.22304 
L 1107.286604 405.715266 
L 1108.27931 431.695862 
L 1109.272016 402.82015 
L 1110.264722 410.902819 
L 1111.257428 448.126468 
L 1112.250133 439.978032 
L 1113.242839 397.740098 
L 1114.235545 415.626861 
L 1115.228251 449.397789 
L 1117.213663 420.80405 
L 1118.206369 415.919895 
L 1119.199075 428.306009 
L 1120.191781 398.01596 
L 1121.184487 445.286866 
L 1122.177193 395.199539 
L 1123.169899 437.646681 
L 1124.162605 415.137764 
L 1125.15531 413.253374 
L 1126.148016 412.458177 
L 1127.140722 405.680013 
L 1128.133428 410.659425 
L 1129.126134 409.69659 
L 1130.11884 427.67098 
L 1132.104252 406.792798 
L 1133.096958 422.03382 
L 1134.089664 421.129085 
L 1135.08237 422.16399 
L 1136.075076 418.026216 
L 1137.067782 424.933917 
L 1138.060487 422.770411 
L 1139.053193 410.028839 
L 1140.045899 427.064993 
L 1141.038605 424.257817 
L 1142.031311 406.340052 
L 1143.024017 396.3218 
L 1144.016723 433.697118 
L 1145.009429 432.938426 
L 1146.002135 410.079702 
L 1146.994841 402.57751 
L 1147.987547 431.631847 
L 1148.980253 492.48 
L 1149.972959 406.626319 
L 1150.965664 393.246109 
L 1151.95837 403.809243 
L 1152.951076 405.486195 
L 1153.943782 419.982839 
L 1154.936488 414.212951 
L 1155.929194 442.592005 
L 1156.9219 418.21523 
L 1157.914606 403.658749 
L 1158.907312 414.842582 
L 1159.900018 424.351954 
L 1160.892724 395.607329 
L 1161.88543 420.186869 
L 1162.878136 403.421834 
L 1163.870841 407.950334 
L 1164.863547 395.378494 
L 1165.856253 425.919954 
L 1166.848959 435.97739 
L 1167.841665 414.15533 
L 1168.834371 426.283074 
L 1169.827077 415.187538 
L 1170.819783 445.368345 
L 1171.812489 410.71144 
L 1172.805195 457.276134 
L 1173.797901 416.903068 
L 1174.790607 408.330481 
L 1175.783313 407.586811 
L 1176.776019 411.015195 
L 1177.768724 419.130839 
L 1178.76143 411.245371 
L 1179.754136 404.566923 
L 1180.746842 406.609087 
L 1181.739548 402.0981 
L 1182.732254 427.950356 
L 1183.72496 407.865818 
L 1184.717666 435.671124 
L 1185.710372 405.801831 
L 1186.703078 425.40322 
L 1187.695784 423.0521 
L 1188.68849 437.055739 
L 1189.681196 405.403543 
L 1190.673901 426.20476 
L 1191.666607 421.987523 
L 1192.659313 428.150429 
L 1193.652019 403.170508 
L 1194.644725 453.994197 
L 1195.637431 410.224299 
L 1196.630137 415.148347 
L 1197.622843 425.046594 
L 1198.615549 421.933883 
L 1199.608255 414.496655 
L 1200.600961 412.730735 
L 1201.593667 418.869397 
L 1202.586373 436.575 
L 1203.579078 393.474802 
L 1204.571784 403.724862 
L 1205.56449 404.188241 
L 1206.557196 427.779727 
L 1207.549902 415.390289 
L 1208.542608 413.748194 
L 1209.535314 443.495132 
L 1210.52802 405.746699 
L 1211.520726 428.848528 
L 1212.513432 417.202282 
L 1213.506138 430.323735 
L 1214.498844 422.34674 
L 1215.49155 411.358039 
L 1216.484255 414.965585 
L 1217.476961 395.859015 
L 1218.469667 403.787844 
L 1219.462373 434.890572 
L 1220.455079 407.981994 
L 1221.447785 422.394269 
L 1222.440491 419.990646 
L 1223.433197 414.415745 
L 1224.425903 430.818123 
L 1225.418609 431.640041 
L 1226.411315 416.86474 
L 1227.404021 408.962203 
L 1228.396727 392.232918 
L 1229.389432 416.722986 
L 1230.382138 427.1998 
L 1231.374844 409.953262 
L 1232.36755 410.439684 
L 1233.360256 431.489168 
L 1234.352962 403.065708 
L 1235.345668 420.447795 
L 1236.338374 401.401783 
L 1237.33108 418.57243 
L 1238.323786 419.376183 
L 1239.316492 413.665475 
L 1240.309198 450.670867 
L 1241.301904 392.66987 
L 1242.29461 434.814782 
L 1243.287315 455.533279 
L 1244.280021 417.042785 
L 1245.272727 419.989594 
L 1245.272727 419.989594 
" clip-path="url(#p0aca68f72f)" style="fill: none; stroke: #1f77b4; stroke-width: 1.5; stroke-linecap: square"/>
   </g>
   <g id="patch_3">
    <path d="M 180 512.64 
L 180 69.12 
" style="fill: none; stroke: #000000; stroke-width: 0.8; stroke-linejoin: miter; stroke-linecap: square"/>
   </g>
   <g id="patch_4">
    <path d="M 1296 512.64 
L 1296 69.12 
" style="fill: none; stroke: #000000; stroke-width: 0.8; stroke-linejoin: miter; stroke-linecap: square"/>
   </g>
   <g id="patch_5">
    <path d="M 180 512.64 
L 1296 512.64 
" style="fill: none; stroke: #000000; stroke-width: 0.8; stroke-linejoin: miter; stroke-linecap: square"/>
   </g>
   <g id="patch_6">
    <path d="M 180 69.12 
L 1296 69.12 
" style="fill: none; stroke: #000000; stroke-width: 0.8; stroke-linejoin: miter; stroke-linecap: square"/>
   </g>
   <g id="text_15">
    <!-- source22-receiver16 -->
    <g transform="translate(532.175 60.80125) scale(0.4 -0.4)">
     <defs>
      <path id="DejaVuSans-73" d="M 2834 3397 
L 2834 2853 
Q 2591 2978 2328 3040 
Q 2066 3103 1784 3103 
Q 1356 3103 1142 2972 
Q 928 2841 928 2578 
Q 928 2378 1081 2264 
Q 1234 2150 1697 2047 
L 1894 2003 
Q 2506 1872 2764 1633 
Q 3022 1394 3022 966 
Q 3022 478 2636 193 
Q 2250 -91 1575 -91 
Q 1294 -91 989 -36 
Q 684 19 347 128 
L 347 722 
Q 666 556 975 473 
Q 1284 391 1588 391 
Q 1994 391 2212 530 
Q 2431 669 2431 922 
Q 2431 1156 2273 1281 
Q 2116 1406 1581 1522 
L 1381 1569 
Q 847 1681 609 1914 
Q 372 2147 372 2553 
Q 372 3047 722 3315 
Q 1072 3584 1716 3584 
Q 2034 3584 2315 3537 
Q 2597 3491 2834 3397 
z
" transform="scale(0.015625)"/>
      <path id="DejaVuSans-6f" d="M 1959 3097 
Q 1497 3097 1228 2736 
Q 959 2375 959 1747 
Q 959 1119 1226 758 
Q 1494 397 1959 397 
Q 2419 397 2687 759 
Q 2956 1122 2956 1747 
Q 2956 2369 2687 2733 
Q 2419 3097 1959 3097 
z
M 1959 3584 
Q 2709 3584 3137 3096 
Q 3566 2609 3566 1747 
Q 3566 888 3137 398 
Q 2709 -91 1959 -91 
Q 1206 -91 779 398 
Q 353 888 353 1747 
Q 353 2609 779 3096 
Q 1206 3584 1959 3584 
z
" transform="scale(0.015625)"/>
      <path id="DejaVuSans-75" d="M 544 1381 
L 544 3500 
L 1119 3500 
L 1119 1403 
Q 1119 906 1312 657 
Q 1506 409 1894 409 
Q 2359 409 2629 706 
Q 2900 1003 2900 1516 
L 2900 3500 
L 3475 3500 
L 3475 0 
L 2900 0 
L 2900 538 
Q 2691 219 2414 64 
Q 2138 -91 1772 -91 
Q 1169 -91 856 284 
Q 544 659 544 1381 
z
M 1991 3584 
L 1991 3584 
z
" transform="scale(0.015625)"/>
      <path id="DejaVuSans-72" d="M 2631 2963 
Q 2534 3019 2420 3045 
Q 2306 3072 2169 3072 
Q 1681 3072 1420 2755 
Q 1159 2438 1159 1844 
L 1159 0 
L 581 0 
L 581 3500 
L 1159 3500 
L 1159 2956 
Q 1341 3275 1631 3429 
Q 1922 3584 2338 3584 
Q 2397 3584 2469 3576 
Q 2541 3569 2628 3553 
L 2631 2963 
z
" transform="scale(0.015625)"/>
      <path id="DejaVuSans-63" d="M 3122 3366 
L 3122 2828 
Q 2878 2963 2633 3030 
Q 2388 3097 2138 3097 
Q 1578 3097 1268 2742 
Q 959 2388 959 1747 
Q 959 1106 1268 751 
Q 1578 397 2138 397 
Q 2388 397 2633 464 
Q 2878 531 3122 666 
L 3122 134 
Q 2881 22 2623 -34 
Q 2366 -91 2075 -91 
Q 1284 -91 818 406 
Q 353 903 353 1747 
Q 353 2603 823 3093 
Q 1294 3584 2113 3584 
Q 2378 3584 2631 3529 
Q 2884 3475 3122 3366 
z
" transform="scale(0.015625)"/>
      <path id="DejaVuSans-65" d="M 3597 1894 
L 3597 1613 
L 953 1613 
Q 991 1019 1311 708 
Q 1631 397 2203 397 
Q 2534 397 2845 478 
Q 3156 559 3463 722 
L 3463 178 
Q 3153 47 2828 -22 
Q 2503 -91 2169 -91 
Q 1331 -91 842 396 
Q 353 884 353 1716 
Q 353 2575 817 3079 
Q 1281 3584 2069 3584 
Q 2775 3584 3186 3129 
Q 3597 2675 3597 1894 
z
M 3022 2063 
Q 3016 2534 2758 2815 
Q 2500 3097 2075 3097 
Q 1594 3097 1305 2825 
Q 1016 2553 972 2059 
L 3022 2063 
z
" transform="scale(0.015625)"/>
      <path id="DejaVuSans-2d" d="M 313 2009 
L 1997 2009 
L 1997 1497 
L 313 1497 
L 313 2009 
z
" transform="scale(0.015625)"/>
      <path id="DejaVuSans-69" d="M 603 3500 
L 1178 3500 
L 1178 0 
L 603 0 
L 603 3500 
z
M 603 4863 
L 1178 4863 
L 1178 4134 
L 603 4134 
L 603 4863 
z
" transform="scale(0.015625)"/>
      <path id="DejaVuSans-76" d="M 191 3500 
L 800 3500 
L 1894 563 
L 2988 3500 
L 3597 3500 
L 2284 0 
L 1503 0 
L 191 3500 
z
" transform="scale(0.015625)"/>
     </defs>
     <use xlink:href="#DejaVuSans-73"/>
     <use xlink:href="#DejaVuSans-6f" x="52.099609"/>
     <use xlink:href="#DejaVuSans-75" x="113.28125"/>
     <use xlink:href="#DejaVuSans-72" x="176.660156"/>
     <use xlink:href="#DejaVuSans-63" x="215.523438"/>
     <use xlink:href="#DejaVuSans-65" x="270.503906"/>
     <use xlink:href="#DejaVuSans-32" x="332.027344"/>
     <use xlink:href="#DejaVuSans-32" x="395.650391"/>
     <use xlink:href="#DejaVuSans-2d" x="459.273438"/>
     <use xlink:href="#DejaVuSans-72" x="495.357422"/>
     <use xlink:href="#DejaVuSans-65" x="534.220703"/>
     <use xlink:href="#DejaVuSans-63" x="595.744141"/>
     <use xlink:href="#DejaVuSans-65" x="650.724609"/>
     <use xlink:href="#DejaVuSans-69" x="712.248047"/>
     <use xlink:href="#DejaVuSans-76" x="740.03125"/>
     <use xlink:href="#DejaVuSans-65" x="799.210938"/>
     <use xlink:href="#DejaVuSans-72" x="860.734375"/>
     <use xlink:href="#DejaVuSans-31" x="901.847656"/>
     <use xlink:href="#DejaVuSans-36" x="965.470703"/>
    </g>
   </g>
  </g>
 </g>
 <defs>
  <clipPath id="p0aca68f72f">
   <rect x="180" y="69.12" width="1116" height="443.52"/>
  </clipPath>
 </defs>
</svg>
