<?xml version="1.0" encoding="utf-8" standalone="no"?>
<!DOCTYPE svg PUBLIC "-//W3C//DTD SVG 1.1//EN"
  "http://www.w3.org/Graphics/SVG/1.1/DTD/svg11.dtd">
<svg xmlns:xlink="http://www.w3.org/1999/xlink" width="1440pt" height="576pt" viewBox="0 0 1440 576" xmlns="http://www.w3.org/2000/svg" version="1.1">
 <metadata>
  <rdf:RDF xmlns:dc="http://purl.org/dc/elements/1.1/" xmlns:cc="http://creativecommons.org/ns#" xmlns:rdf="http://www.w3.org/1999/02/22-rdf-syntax-ns#">
   <cc:Work>
    <dc:type rdf:resource="http://purl.org/dc/dcmitype/StillImage"/>
    <dc:date>2024-05-22T04:50:21.282412</dc:date>
    <dc:format>image/svg+xml</dc:format>
    <dc:creator>
     <cc:Agent>
      <dc:title>Matplotlib v3.8.3, https://matplotlib.org/</dc:title>
     </cc:Agent>
    </dc:creator>
   </cc:Work>
  </rdf:RDF>
 </metadata>
 <defs>
  <style type="text/css">*{stroke-linejoin: round; stroke-linecap: butt}</style>
 </defs>
 <g id="figure_1">
  <g id="patch_1">
   <path d="M 0 576 
L 1440 576 
L 1440 0 
L 0 0 
z
" style="fill: #ffffff"/>
  </g>
  <g id="axes_1">
   <g id="patch_2">
    <path d="M 180 512.64 
L 1296 512.64 
L 1296 69.12 
L 180 69.12 
z
" style="fill: #ffffff"/>
   </g>
   <g id="matplotlib.axis_1">
    <g id="xtick_1">
     <g id="line2d_1">
      <defs>
       <path id="mdc8c67c911" d="M 0 0 
L 0 3.5 
" style="stroke: #000000; stroke-width: 0.8"/>
      </defs>
      <g>
       <use xlink:href="#mdc8c67c911" x="229.734567" y="512.64" style="stroke: #000000; stroke-width: 0.8"/>
      </g>
     </g>
     <g id="text_1">
      <!-- 0 -->
      <g transform="translate(226.553317 527.238438) scale(0.1 -0.1)">
       <defs>
        <path id="DejaVuSans-30" d="M 2034 4250 
Q 1547 4250 1301 3770 
Q 1056 3291 1056 2328 
Q 1056 1369 1301 889 
Q 1547 409 2034 409 
Q 2525 409 2770 889 
Q 3016 1369 3016 2328 
Q 3016 3291 2770 3770 
Q 2525 4250 2034 4250 
z
M 2034 4750 
Q 2819 4750 3233 4129 
Q 3647 3509 3647 2328 
Q 3647 1150 3233 529 
Q 2819 -91 2034 -91 
Q 1250 -91 836 529 
Q 422 1150 422 2328 
Q 422 3509 836 4129 
Q 1250 4750 2034 4750 
z
" transform="scale(0.015625)"/>
       </defs>
       <use xlink:href="#DejaVuSans-30"/>
      </g>
     </g>
    </g>
    <g id="xtick_2">
     <g id="line2d_2">
      <g>
       <use xlink:href="#mdc8c67c911" x="433.04074" y="512.64" style="stroke: #000000; stroke-width: 0.8"/>
      </g>
     </g>
     <g id="text_2">
      <!-- 500 -->
      <g transform="translate(423.49699 527.238438) scale(0.1 -0.1)">
       <defs>
        <path id="DejaVuSans-35" d="M 691 4666 
L 3169 4666 
L 3169 4134 
L 1269 4134 
L 1269 2991 
Q 1406 3038 1543 3061 
Q 1681 3084 1819 3084 
Q 2600 3084 3056 2656 
Q 3513 2228 3513 1497 
Q 3513 744 3044 326 
Q 2575 -91 1722 -91 
Q 1428 -91 1123 -41 
Q 819 9 494 109 
L 494 744 
Q 775 591 1075 516 
Q 1375 441 1709 441 
Q 2250 441 2565 725 
Q 2881 1009 2881 1497 
Q 2881 1984 2565 2268 
Q 2250 2553 1709 2553 
Q 1456 2553 1204 2497 
Q 953 2441 691 2322 
L 691 4666 
z
" transform="scale(0.015625)"/>
       </defs>
       <use xlink:href="#DejaVuSans-35"/>
       <use xlink:href="#DejaVuSans-30" x="63.623047"/>
       <use xlink:href="#DejaVuSans-30" x="127.246094"/>
      </g>
     </g>
    </g>
    <g id="xtick_3">
     <g id="line2d_3">
      <g>
       <use xlink:href="#mdc8c67c911" x="636.346913" y="512.64" style="stroke: #000000; stroke-width: 0.8"/>
      </g>
     </g>
     <g id="text_3">
      <!-- 1000 -->
      <g transform="translate(623.621913 527.238438) scale(0.1 -0.1)">
       <defs>
        <path id="DejaVuSans-31" d="M 794 531 
L 1825 531 
L 1825 4091 
L 703 3866 
L 703 4441 
L 1819 4666 
L 2450 4666 
L 2450 531 
L 3481 531 
L 3481 0 
L 794 0 
L 794 531 
z
" transform="scale(0.015625)"/>
       </defs>
       <use xlink:href="#DejaVuSans-31"/>
       <use xlink:href="#DejaVuSans-30" x="63.623047"/>
       <use xlink:href="#DejaVuSans-30" x="127.246094"/>
       <use xlink:href="#DejaVuSans-30" x="190.869141"/>
      </g>
     </g>
    </g>
    <g id="xtick_4">
     <g id="line2d_4">
      <g>
       <use xlink:href="#mdc8c67c911" x="839.653087" y="512.64" style="stroke: #000000; stroke-width: 0.8"/>
      </g>
     </g>
     <g id="text_4">
      <!-- 1500 -->
      <g transform="translate(826.928087 527.238438) scale(0.1 -0.1)">
       <use xlink:href="#DejaVuSans-31"/>
       <use xlink:href="#DejaVuSans-35" x="63.623047"/>
       <use xlink:href="#DejaVuSans-30" x="127.246094"/>
       <use xlink:href="#DejaVuSans-30" x="190.869141"/>
      </g>
     </g>
    </g>
    <g id="xtick_5">
     <g id="line2d_5">
      <g>
       <use xlink:href="#mdc8c67c911" x="1042.95926" y="512.64" style="stroke: #000000; stroke-width: 0.8"/>
      </g>
     </g>
     <g id="text_5">
      <!-- 2000 -->
      <g transform="translate(1030.23426 527.238438) scale(0.1 -0.1)">
       <defs>
        <path id="DejaVuSans-32" d="M 1228 531 
L 3431 531 
L 3431 0 
L 469 0 
L 469 531 
Q 828 903 1448 1529 
Q 2069 2156 2228 2338 
Q 2531 2678 2651 2914 
Q 2772 3150 2772 3378 
Q 2772 3750 2511 3984 
Q 2250 4219 1831 4219 
Q 1534 4219 1204 4116 
Q 875 4013 500 3803 
L 500 4441 
Q 881 4594 1212 4672 
Q 1544 4750 1819 4750 
Q 2544 4750 2975 4387 
Q 3406 4025 3406 3419 
Q 3406 3131 3298 2873 
Q 3191 2616 2906 2266 
Q 2828 2175 2409 1742 
Q 1991 1309 1228 531 
z
" transform="scale(0.015625)"/>
       </defs>
       <use xlink:href="#DejaVuSans-32"/>
       <use xlink:href="#DejaVuSans-30" x="63.623047"/>
       <use xlink:href="#DejaVuSans-30" x="127.246094"/>
       <use xlink:href="#DejaVuSans-30" x="190.869141"/>
      </g>
     </g>
    </g>
    <g id="xtick_6">
     <g id="line2d_6">
      <g>
       <use xlink:href="#mdc8c67c911" x="1246.265433" y="512.64" style="stroke: #000000; stroke-width: 0.8"/>
      </g>
     </g>
     <g id="text_6">
      <!-- 2500 -->
      <g transform="translate(1233.540433 527.238438) scale(0.1 -0.1)">
       <use xlink:href="#DejaVuSans-32"/>
       <use xlink:href="#DejaVuSans-35" x="63.623047"/>
       <use xlink:href="#DejaVuSans-30" x="127.246094"/>
       <use xlink:href="#DejaVuSans-30" x="190.869141"/>
      </g>
     </g>
    </g>
   </g>
   <g id="matplotlib.axis_2">
    <g id="ytick_1">
     <g id="line2d_7">
      <defs>
       <path id="mefd2e12ab3" d="M 0 0 
L -3.5 0 
" style="stroke: #000000; stroke-width: 0.8"/>
      </defs>
      <g>
       <use xlink:href="#mefd2e12ab3" x="180" y="466.137393" style="stroke: #000000; stroke-width: 0.8"/>
      </g>
     </g>
     <g id="text_7">
      <!-- −4 -->
      <g transform="translate(158.257812 469.936612) scale(0.1 -0.1)">
       <defs>
        <path id="DejaVuSans-2212" d="M 678 2272 
L 4684 2272 
L 4684 1741 
L 678 1741 
L 678 2272 
z
" transform="scale(0.015625)"/>
        <path id="DejaVuSans-34" d="M 2419 4116 
L 825 1625 
L 2419 1625 
L 2419 4116 
z
M 2253 4666 
L 3047 4666 
L 3047 1625 
L 3713 1625 
L 3713 1100 
L 3047 1100 
L 3047 0 
L 2419 0 
L 2419 1100 
L 313 1100 
L 313 1709 
L 2253 4666 
z
" transform="scale(0.015625)"/>
       </defs>
       <use xlink:href="#DejaVuSans-2212"/>
       <use xlink:href="#DejaVuSans-34" x="83.789062"/>
      </g>
     </g>
    </g>
    <g id="ytick_2">
     <g id="line2d_8">
      <g>
       <use xlink:href="#mefd2e12ab3" x="180" y="412.286423" style="stroke: #000000; stroke-width: 0.8"/>
      </g>
     </g>
     <g id="text_8">
      <!-- −3 -->
      <g transform="translate(158.257812 416.085642) scale(0.1 -0.1)">
       <defs>
        <path id="DejaVuSans-33" d="M 2597 2516 
Q 3050 2419 3304 2112 
Q 3559 1806 3559 1356 
Q 3559 666 3084 287 
Q 2609 -91 1734 -91 
Q 1441 -91 1130 -33 
Q 819 25 488 141 
L 488 750 
Q 750 597 1062 519 
Q 1375 441 1716 441 
Q 2309 441 2620 675 
Q 2931 909 2931 1356 
Q 2931 1769 2642 2001 
Q 2353 2234 1838 2234 
L 1294 2234 
L 1294 2753 
L 1863 2753 
Q 2328 2753 2575 2939 
Q 2822 3125 2822 3475 
Q 2822 3834 2567 4026 
Q 2313 4219 1838 4219 
Q 1578 4219 1281 4162 
Q 984 4106 628 3988 
L 628 4550 
Q 988 4650 1302 4700 
Q 1616 4750 1894 4750 
Q 2613 4750 3031 4423 
Q 3450 4097 3450 3541 
Q 3450 3153 3228 2886 
Q 3006 2619 2597 2516 
z
" transform="scale(0.015625)"/>
       </defs>
       <use xlink:href="#DejaVuSans-2212"/>
       <use xlink:href="#DejaVuSans-33" x="83.789062"/>
      </g>
     </g>
    </g>
    <g id="ytick_3">
     <g id="line2d_9">
      <g>
       <use xlink:href="#mefd2e12ab3" x="180" y="358.435453" style="stroke: #000000; stroke-width: 0.8"/>
      </g>
     </g>
     <g id="text_9">
      <!-- −2 -->
      <g transform="translate(158.257812 362.234671) scale(0.1 -0.1)">
       <use xlink:href="#DejaVuSans-2212"/>
       <use xlink:href="#DejaVuSans-32" x="83.789062"/>
      </g>
     </g>
    </g>
    <g id="ytick_4">
     <g id="line2d_10">
      <g>
       <use xlink:href="#mefd2e12ab3" x="180" y="304.584483" style="stroke: #000000; stroke-width: 0.8"/>
      </g>
     </g>
     <g id="text_10">
      <!-- −1 -->
      <g transform="translate(158.257812 308.383701) scale(0.1 -0.1)">
       <use xlink:href="#DejaVuSans-2212"/>
       <use xlink:href="#DejaVuSans-31" x="83.789062"/>
      </g>
     </g>
    </g>
    <g id="ytick_5">
     <g id="line2d_11">
      <g>
       <use xlink:href="#mefd2e12ab3" x="180" y="250.733512" style="stroke: #000000; stroke-width: 0.8"/>
      </g>
     </g>
     <g id="text_11">
      <!-- 0 -->
      <g transform="translate(166.6375 254.532731) scale(0.1 -0.1)">
       <use xlink:href="#DejaVuSans-30"/>
      </g>
     </g>
    </g>
    <g id="ytick_6">
     <g id="line2d_12">
      <g>
       <use xlink:href="#mefd2e12ab3" x="180" y="196.882542" style="stroke: #000000; stroke-width: 0.8"/>
      </g>
     </g>
     <g id="text_12">
      <!-- 1 -->
      <g transform="translate(166.6375 200.681761) scale(0.1 -0.1)">
       <use xlink:href="#DejaVuSans-31"/>
      </g>
     </g>
    </g>
    <g id="ytick_7">
     <g id="line2d_13">
      <g>
       <use xlink:href="#mefd2e12ab3" x="180" y="143.031572" style="stroke: #000000; stroke-width: 0.8"/>
      </g>
     </g>
     <g id="text_13">
      <!-- 2 -->
      <g transform="translate(166.6375 146.830791) scale(0.1 -0.1)">
       <use xlink:href="#DejaVuSans-32"/>
      </g>
     </g>
    </g>
    <g id="ytick_8">
     <g id="line2d_14">
      <g>
       <use xlink:href="#mefd2e12ab3" x="180" y="89.180602" style="stroke: #000000; stroke-width: 0.8"/>
      </g>
     </g>
     <g id="text_14">
      <!-- 3 -->
      <g transform="translate(166.6375 92.979821) scale(0.1 -0.1)">
       <use xlink:href="#DejaVuSans-33"/>
      </g>
     </g>
    </g>
   </g>
   <g id="line2d_15">
    <path d="M 230.727273 339.523781 
L 231.719979 339.815719 
L 232.712685 339.864985 
L 233.70539 339.137047 
L 234.698096 338.181218 
L 235.690802 337.738647 
L 236.683508 336.705509 
L 237.676214 334.464676 
L 238.66892 333.40553 
L 239.661626 331.726756 
L 240.654332 329.764151 
L 242.639744 323.256179 
L 243.63245 318.779303 
L 244.625156 312.982357 
L 245.617862 303.829043 
L 246.610568 292.331777 
L 247.603273 277.15553 
L 249.588685 237.260512 
L 250.581391 227.318951 
L 251.574097 222.736803 
L 252.566803 219.692424 
L 253.559509 205.918175 
L 255.544921 167.859945 
L 256.537627 161.630611 
L 257.530333 179.885078 
L 258.523039 224.822287 
L 259.515745 159.542619 
L 260.50845 142.610865 
L 261.501156 154.583885 
L 262.493862 164.586639 
L 263.486568 159.12242 
L 264.479274 178.000072 
L 265.47198 191.633336 
L 266.464686 184.245701 
L 267.457392 208.455792 
L 268.450098 183.545515 
L 269.442804 181.203484 
L 270.43551 201.426039 
L 271.428216 199.580051 
L 272.420922 253.751802 
L 273.413627 179.225596 
L 274.406333 145.36229 
L 275.399039 140.283607 
L 276.391745 133.97885 
L 277.384451 117.128771 
L 278.377157 105.165494 
L 279.369863 96.688661 
L 280.362569 89.28 
L 281.355275 92.242173 
L 282.347981 114.97219 
L 283.340687 186.819821 
L 284.333393 181.593298 
L 285.326099 172.859296 
L 286.318804 171.349724 
L 287.31151 154.140584 
L 288.304216 177.525141 
L 289.296922 231.917046 
L 290.289628 177.522755 
L 291.282334 200.294136 
L 292.27504 260.164643 
L 293.267746 193.604311 
L 294.260452 179.50055 
L 295.253158 189.26727 
L 296.245864 224.289248 
L 297.23857 287.795559 
L 298.231276 248.260262 
L 299.223981 231.522847 
L 300.216687 265.009763 
L 301.209393 270.840179 
L 302.202099 240.893073 
L 303.194805 260.487451 
L 304.187511 256.390911 
L 305.180217 257.740119 
L 306.172923 307.032905 
L 307.165629 256.861641 
L 308.158335 242.91263 
L 309.151041 281.390042 
L 310.143747 349.242315 
L 311.136453 290.442084 
L 312.129159 317.813504 
L 313.121864 336.372946 
L 314.11457 335.240942 
L 315.107276 324.327194 
L 316.099982 321.961509 
L 317.092688 333.475634 
L 318.085394 323.44153 
L 319.0781 333.843213 
L 320.070806 333.420751 
L 321.063512 333.533505 
L 322.056218 335.90398 
L 323.048924 342.305703 
L 324.04163 322.188003 
L 325.034336 330.886167 
L 326.027041 345.883726 
L 327.019747 337.475153 
L 328.012453 331.761606 
L 329.005159 336.534777 
L 329.997865 330.615885 
L 330.990571 344.040933 
L 331.983277 352.149224 
L 332.975983 344.68174 
L 333.968689 351.951287 
L 334.961395 360.762824 
L 335.954101 437.50017 
L 336.946807 321.301752 
L 337.939513 328.976958 
L 338.932218 398.659137 
L 339.924924 349.952167 
L 340.91763 331.539411 
L 341.910336 403.107447 
L 342.903042 352.718759 
L 343.895748 339.031656 
L 344.888454 335.763401 
L 345.88116 358.424941 
L 346.873866 344.499935 
L 347.866572 337.871491 
L 348.859278 369.901784 
L 349.851984 342.36679 
L 350.84469 344.120914 
L 351.837395 339.61912 
L 352.830101 369.978353 
L 353.822807 353.965779 
L 354.815513 347.778347 
L 355.808219 344.959453 
L 356.800925 383.50338 
L 357.793631 365.101141 
L 358.786337 362.816529 
L 359.779043 346.860385 
L 360.771749 360.986582 
L 361.764455 361.056845 
L 362.757161 430.364021 
L 363.749867 350.572501 
L 364.742572 329.030779 
L 365.735278 374.436037 
L 366.727984 321.180264 
L 367.72069 326.11358 
L 368.713396 398.77134 
L 369.706102 372.299273 
L 370.698808 338.358475 
L 371.691514 329.999769 
L 372.68422 388.419662 
L 373.676926 334.204594 
L 374.669632 359.51174 
L 375.662338 364.874697 
L 376.655044 351.308629 
L 377.64775 344.668339 
L 378.640455 432.573368 
L 379.633161 335.252374 
L 380.625867 383.765191 
L 381.618573 375.289943 
L 382.611279 372.218863 
L 383.603985 366.037803 
L 384.596691 371.143912 
L 385.589397 399.168832 
L 386.582103 316.384826 
L 387.574809 359.914722 
L 388.567515 355.677982 
L 389.560221 337.705455 
L 390.552927 347.34039 
L 391.545632 287.316473 
L 392.538338 315.120647 
L 393.531044 316.302886 
L 394.52375 297.323663 
L 395.516456 325.44529 
L 396.509162 427.278125 
L 397.501868 334.829086 
L 398.494574 339.495445 
L 399.48728 383.646431 
L 400.479986 394.337437 
L 401.472692 383.102185 
L 402.465398 352.057605 
L 403.458104 407.009791 
L 404.450809 349.558449 
L 405.443515 366.589163 
L 406.436221 360.007902 
L 407.428927 371.673666 
L 408.421633 394.061808 
L 409.414339 352.088763 
L 410.407045 349.460631 
L 411.399751 369.792238 
L 412.392457 378.67166 
L 413.385163 331.599018 
L 414.377869 372.994305 
L 415.370575 398.49641 
L 416.363281 381.436645 
L 417.355986 336.863091 
L 418.348692 287.059295 
L 419.341398 282.484997 
L 420.334104 295.334825 
L 421.32681 281.497867 
L 422.319516 311.096078 
L 423.312222 313.057716 
L 424.304928 366.927302 
L 425.297634 321.831521 
L 426.29034 347.108078 
L 427.283046 364.308283 
L 428.275752 349.735789 
L 429.268458 339.315979 
L 430.261163 387.817677 
L 431.253869 342.055706 
L 432.246575 334.747651 
L 433.239281 363.927441 
L 434.231987 364.901391 
L 435.224693 408.834121 
L 436.217399 364.569377 
L 437.210105 404.391626 
L 438.202811 417.166249 
L 439.195517 354.960956 
L 440.188223 382.375273 
L 441.180929 357.618007 
L 442.173635 447.346187 
L 443.166341 456.718304 
L 444.159046 365.273938 
L 445.151752 358.064393 
L 446.144458 322.555229 
L 447.137164 322.655972 
L 448.12987 364.046551 
L 449.122576 341.198852 
L 450.115282 350.509781 
L 451.107988 387.221726 
L 452.100694 412.023207 
L 453.0934 394.508104 
L 454.086106 417.328433 
L 455.078812 384.240871 
L 456.071518 421.719032 
L 457.064223 380.66984 
L 458.056929 434.245105 
L 459.049635 378.86359 
L 460.042341 371.750173 
L 461.035047 372.679761 
L 462.027753 386.870602 
L 463.020459 404.572875 
L 464.013165 405.107249 
L 465.005871 414.731662 
L 465.998577 387.394077 
L 466.991283 420.291852 
L 467.983989 492.48 
L 468.976695 425.749421 
L 469.9694 450.05882 
L 470.962106 403.315866 
L 471.954812 382.543076 
L 472.947518 396.835593 
L 473.940224 382.973535 
L 474.93293 406.562495 
L 475.925636 370.961308 
L 476.918342 380.984106 
L 477.911048 421.554822 
L 478.903754 398.18579 
L 479.89646 392.826847 
L 480.889166 394.469286 
L 481.881872 391.283678 
L 482.874577 428.050489 
L 483.867283 380.952709 
L 484.859989 404.617277 
L 485.852695 381.360177 
L 486.845401 377.985004 
L 487.838107 405.496618 
L 488.830813 427.965355 
L 489.823519 364.887348 
L 490.816225 413.143514 
L 491.808931 452.740022 
L 492.801637 403.970661 
L 493.794343 379.666799 
L 494.787049 415.713061 
L 495.779754 371.366716 
L 496.77246 405.377631 
L 497.765166 395.462081 
L 498.757872 454.712692 
L 500.743284 347.993304 
L 501.73599 327.172354 
L 502.728696 392.445631 
L 503.721402 348.070624 
L 504.714108 374.851302 
L 505.706814 393.678426 
L 506.69952 374.728263 
L 507.692226 384.791206 
L 508.684932 436.737831 
L 510.670343 368.47323 
L 511.663049 380.800088 
L 512.655755 399.608526 
L 513.648461 367.628381 
L 514.641167 387.49703 
L 515.633873 380.350591 
L 516.626579 403.024396 
L 517.619285 359.463239 
L 518.611991 388.505438 
L 519.604697 385.712973 
L 520.597403 406.1091 
L 521.590109 452.854414 
L 522.582814 394.317147 
L 523.57552 388.588022 
L 524.568226 400.551441 
L 525.560932 374.959587 
L 526.553638 383.227954 
L 527.546344 332.590809 
L 528.53905 320.42772 
L 529.531756 340.299588 
L 530.524462 315.462549 
L 531.517168 353.958842 
L 532.509874 366.858202 
L 533.50258 434.482803 
L 534.495286 353.073962 
L 535.487991 362.3586 
L 537.473403 413.502537 
L 538.466109 391.441931 
L 539.458815 391.357573 
L 540.451521 363.205912 
L 541.444227 369.240788 
L 542.436933 372.072875 
L 543.429639 426.204742 
L 544.422345 366.368941 
L 546.407757 433.73734 
L 547.400463 357.524945 
L 548.393168 375.100037 
L 549.385874 390.504944 
L 550.37858 382.189792 
L 551.371286 435.403457 
L 552.363992 343.437256 
L 553.356698 387.457667 
L 554.349404 342.932798 
L 555.34211 309.144194 
L 556.334816 318.00231 
L 557.327522 340.199072 
L 558.320228 332.632767 
L 559.312934 353.131348 
L 560.30564 381.11911 
L 561.298345 421.464488 
L 562.291051 395.041614 
L 563.283757 401.411052 
L 564.276463 421.8345 
L 565.269169 360.926741 
L 566.261875 435.268645 
L 567.254581 420.015674 
L 568.247287 362.68224 
L 569.239993 484.315291 
L 570.232699 399.576855 
L 571.225405 394.454964 
L 572.218111 391.718038 
L 573.210817 406.345565 
L 574.203523 430.963261 
L 575.196228 388.487346 
L 576.188934 423.187352 
L 577.18164 388.025304 
L 578.174346 456.793639 
L 579.167052 395.009552 
L 580.159758 402.594037 
L 581.152464 417.805962 
L 582.14517 377.370682 
L 583.137876 355.966473 
L 584.130582 411.763309 
L 585.123288 369.030639 
L 586.115994 386.720296 
L 587.1087 436.651308 
L 588.101405 450.150165 
L 589.094111 394.888946 
L 591.079523 433.369692 
L 592.072229 416.802082 
L 593.064935 385.191888 
L 594.057641 450.818847 
L 595.050347 408.157716 
L 596.043053 464.922141 
L 597.035759 450.957324 
L 598.028465 401.026803 
L 599.021171 454.590143 
L 600.013877 417.066084 
L 601.006582 437.946134 
L 601.999288 400.433818 
L 602.991994 478.303599 
L 603.9847 462.478849 
L 604.977406 397.442507 
L 605.970112 431.929236 
L 606.962818 422.36749 
L 607.955524 425.537025 
L 608.94823 434.32315 
L 609.940936 389.187101 
L 610.933642 424.175893 
L 611.926348 444.515451 
L 612.919054 410.889922 
L 613.911759 401.817294 
L 614.904465 467.391486 
L 615.897171 444.218959 
L 616.889877 417.847543 
L 617.882583 416.855594 
L 618.875289 434.01204 
L 619.867995 442.122198 
L 620.860701 408.004593 
L 621.853407 420.106108 
L 622.846113 430.298807 
L 623.838819 419.364006 
L 624.831525 420.226649 
L 625.824231 452.333461 
L 626.816936 418.709188 
L 627.809642 418.144267 
L 628.802348 424.003322 
L 629.795054 470.38458 
L 630.78776 423.836978 
L 631.780466 432.538968 
L 632.773172 423.87395 
L 633.765878 430.369688 
L 634.758584 435.778681 
L 635.75129 452.141214 
L 636.743996 410.206793 
L 637.736702 440.694676 
L 638.729408 415.055348 
L 639.722114 413.498088 
L 640.714819 436.557217 
L 641.707525 429.571047 
L 642.700231 427.291801 
L 643.692937 427.866598 
L 644.685643 430.890059 
L 645.678349 427.740462 
L 646.671055 418.835469 
L 647.663761 433.083233 
L 648.656467 429.438513 
L 649.649173 430.196795 
L 650.641879 421.499994 
L 651.634585 439.921665 
L 652.627291 444.195437 
L 653.619996 430.747367 
L 654.612702 434.299184 
L 655.605408 431.630038 
L 656.598114 432.110793 
L 657.59082 424.014176 
L 658.583526 427.552106 
L 659.576232 437.617255 
L 660.568938 424.116497 
L 661.561644 427.339688 
L 662.55435 425.263532 
L 663.547056 433.516315 
L 664.539762 433.99702 
L 665.532468 430.400939 
L 666.525173 430.990812 
L 667.517879 430.076313 
L 668.510585 439.046762 
L 669.503291 430.13085 
L 670.495997 438.308087 
L 671.488703 428.54945 
L 672.481409 429.957668 
L 673.474115 436.225111 
L 674.466821 431.932881 
L 675.459527 431.407421 
L 676.452233 430.318361 
L 677.444939 438.933664 
L 678.437645 430.420575 
L 679.43035 425.366133 
L 680.423056 432.03278 
L 681.415762 437.32181 
L 682.408468 430.647705 
L 683.401174 426.603228 
L 684.39388 439.663596 
L 685.386586 427.182617 
L 686.379292 437.482861 
L 687.371998 445.215443 
L 688.364704 432.008034 
L 689.35741 446.646976 
L 690.350116 432.061768 
L 691.342822 434.714846 
L 692.335527 434.831473 
L 693.328233 443.980113 
L 694.320939 432.385455 
L 695.313645 437.04947 
L 696.306351 433.456079 
L 697.299057 438.604973 
L 698.291763 432.777005 
L 699.284469 441.273731 
L 700.277175 438.832666 
L 701.269881 432.320601 
L 702.262587 435.261401 
L 703.255293 439.879026 
L 704.247999 441.624673 
L 705.240705 434.553106 
L 706.23341 441.016189 
L 707.226116 438.628828 
L 708.218822 439.859424 
L 710.204234 435.762848 
L 711.19694 438.30471 
L 712.189646 435.553536 
L 713.182352 440.791945 
L 714.175058 437.278298 
L 715.167764 435.798289 
L 716.16047 442.763716 
L 717.153176 436.065428 
L 718.145882 437.560096 
L 719.138587 441.667569 
L 720.131293 441.839875 
L 721.123999 439.415704 
L 722.116705 436.491328 
L 723.109411 439.820753 
L 724.102117 438.994633 
L 725.094823 440.575967 
L 726.087529 437.960142 
L 727.080235 439.770558 
L 728.072941 438.980952 
L 729.065647 441.268656 
L 730.058353 437.793601 
L 731.051059 437.669159 
L 732.043764 441.114965 
L 733.03647 441.439155 
L 734.029176 440.507253 
L 735.021882 438.217069 
L 736.014588 440.654487 
L 737.007294 439.882501 
L 738 437.512592 
L 738.992706 440.665862 
L 739.985412 440.775262 
L 740.978118 442.647995 
L 741.970824 441.779313 
L 742.96353 437.432732 
L 743.956236 440.819001 
L 744.948941 441.198683 
L 745.941647 439.813249 
L 746.934353 442.843751 
L 747.927059 439.934482 
L 749.912471 443.792319 
L 750.905177 440.30807 
L 751.897883 439.542587 
L 752.890589 442.978693 
L 753.883295 445.485887 
L 754.876001 437.73203 
L 755.868707 442.022052 
L 756.861413 442.948925 
L 758.846824 439.787672 
L 759.83953 442.22679 
L 760.832236 441.913932 
L 761.824942 439.29166 
L 762.817648 444.763247 
L 763.810354 441.584665 
L 764.80306 441.848585 
L 765.795766 439.84822 
L 766.788472 442.293404 
L 767.781178 442.393963 
L 768.773884 444.591786 
L 769.76659 443.431349 
L 770.759295 444.282258 
L 771.752001 446.366868 
L 772.744707 441.573136 
L 773.737413 445.746814 
L 774.730119 446.540554 
L 775.722825 440.639593 
L 776.715531 442.486758 
L 777.708237 447.331196 
L 778.700943 444.44983 
L 779.693649 442.196713 
L 780.686355 442.279571 
L 781.679061 441.969926 
L 782.671767 443.302604 
L 783.664473 441.282119 
L 784.657178 443.031838 
L 785.649884 444.200706 
L 786.64259 443.288424 
L 787.635296 445.482058 
L 788.628002 443.005813 
L 789.620708 444.290304 
L 790.613414 443.774871 
L 791.60612 443.552628 
L 792.598826 445.205131 
L 793.591532 444.929689 
L 794.584238 447.320406 
L 795.576944 444.985402 
L 796.56965 443.80934 
L 797.562355 446.318546 
L 798.555061 444.831085 
L 799.547767 449.259505 
L 800.540473 444.892801 
L 801.533179 449.188336 
L 802.525885 442.754051 
L 803.518591 445.215696 
L 804.511297 443.740482 
L 806.496709 444.37827 
L 807.489415 446.311798 
L 808.482121 446.793149 
L 809.474827 446.728338 
L 810.467532 447.179139 
L 811.460238 445.778811 
L 812.452944 449.683749 
L 813.44565 442.874243 
L 814.438356 444.984196 
L 815.431062 446.76581 
L 816.423768 443.581812 
L 817.416474 445.364828 
L 818.40918 443.794653 
L 819.401886 447.725044 
L 820.394592 446.453658 
L 821.387298 447.210478 
L 822.380004 446.724515 
L 823.372709 446.794477 
L 824.365415 446.186716 
L 825.358121 446.698364 
L 826.350827 445.109174 
L 827.343533 447.50216 
L 828.336239 448.206532 
L 829.328945 446.897902 
L 830.321651 444.695961 
L 831.314357 447.085665 
L 832.307063 446.194682 
L 833.299769 446.398217 
L 834.292475 446.25048 
L 835.285181 447.380639 
L 837.270592 447.697177 
L 838.263298 451.600572 
L 839.256004 451.241596 
L 840.24871 446.018311 
L 841.241416 450.223346 
L 842.234122 444.416717 
L 843.226828 442.467249 
L 844.219534 451.777113 
L 845.21224 450.202649 
L 846.204946 448.186421 
L 847.197652 448.27971 
L 848.190358 449.11005 
L 849.183064 448.19975 
L 850.175769 443.926831 
L 851.168475 448.710597 
L 852.161181 446.706668 
L 853.153887 447.149739 
L 854.146593 446.234251 
L 855.139299 448.12679 
L 856.132005 449.353454 
L 857.124711 447.65675 
L 858.117417 446.688919 
L 859.110123 447.904328 
L 860.102829 449.534779 
L 861.095535 447.505499 
L 862.088241 453.030311 
L 863.080946 446.52534 
L 864.073652 446.286472 
L 865.066358 450.139712 
L 866.059064 450.344737 
L 867.05177 447.380124 
L 868.044476 451.982721 
L 870.029888 448.291733 
L 871.022594 451.329202 
L 872.0153 450.685919 
L 873.008006 451.93338 
L 874.000712 449.193443 
L 874.993418 448.268 
L 875.986123 449.323438 
L 876.978829 451.177684 
L 877.971535 452.090877 
L 878.964241 449.254657 
L 879.956947 447.185297 
L 880.949653 452.110109 
L 881.942359 451.74894 
L 882.935065 451.606934 
L 883.927771 448.962018 
L 884.920477 450.249413 
L 886.905889 453.891934 
L 887.898595 450.944233 
L 888.8913 453.405665 
L 889.884006 450.87429 
L 890.876712 451.91039 
L 891.869418 450.408619 
L 892.862124 448.443228 
L 893.85483 451.352972 
L 894.847536 450.392857 
L 895.840242 448.000277 
L 896.832948 449.377475 
L 897.825654 452.355882 
L 898.81836 452.590996 
L 899.811066 450.673306 
L 900.803772 448.431768 
L 901.796477 453.268981 
L 902.789183 449.873881 
L 903.781889 453.173878 
L 904.774595 450.674496 
L 905.767301 452.823762 
L 906.760007 451.28008 
L 907.752713 450.731911 
L 908.745419 452.404084 
L 909.738125 450.485336 
L 910.730831 450.413374 
L 911.723537 451.489855 
L 912.716243 458.237718 
L 913.708949 453.952067 
L 914.701655 448.779915 
L 915.69436 449.838804 
L 916.687066 453.56111 
L 917.679772 454.518478 
L 918.672478 451.375304 
L 919.665184 455.482949 
L 920.65789 450.361439 
L 921.650596 454.369689 
L 922.643302 451.65684 
L 923.636008 450.44529 
L 924.628714 451.514076 
L 925.62142 455.40719 
L 927.606832 451.906091 
L 928.599537 453.76409 
L 929.592243 451.249035 
L 930.584949 451.539888 
L 931.577655 455.062804 
L 932.570361 453.273303 
L 933.563067 453.577237 
L 934.555773 456.139381 
L 935.548479 454.292774 
L 936.541185 455.309007 
L 937.533891 453.496694 
L 938.526597 453.619829 
L 939.519303 455.683406 
L 940.512009 453.396208 
L 941.504714 452.131932 
L 942.49742 452.704701 
L 943.490126 457.133044 
L 944.482832 455.405965 
L 945.475538 452.860581 
L 946.468244 455.32922 
L 947.46095 453.374674 
L 948.453656 454.395468 
L 949.446362 452.412753 
L 950.439068 455.579532 
L 952.42448 452.416125 
L 953.417186 454.412633 
L 954.409891 453.094933 
L 955.402597 454.259562 
L 956.395303 453.376276 
L 957.388009 457.229084 
L 958.380715 452.912667 
L 959.373421 451.488197 
L 960.366127 455.193436 
L 961.358833 453.550239 
L 963.344245 457.95616 
L 964.336951 451.202287 
L 965.329657 455.192051 
L 966.322363 458.077114 
L 967.315068 454.375444 
L 968.307774 453.407027 
L 969.30048 456.693611 
L 970.293186 451.756237 
L 971.285892 454.543227 
L 972.278598 455.704304 
L 973.271304 455.094389 
L 974.26401 459.692293 
L 975.256716 455.17659 
L 976.249422 452.891571 
L 977.242128 451.558456 
L 978.234834 456.356815 
L 979.22754 459.012306 
L 980.220246 453.781429 
L 981.212951 454.516673 
L 982.205657 452.828653 
L 983.198363 456.736539 
L 984.191069 452.439931 
L 985.183775 451.194662 
L 986.176481 453.252947 
L 987.169187 456.694253 
L 988.161893 454.348693 
L 989.154599 457.209028 
L 990.147305 454.628943 
L 991.140011 454.519144 
L 992.132717 454.080523 
L 993.125423 452.901851 
L 994.118128 454.725793 
L 995.110834 454.507741 
L 996.10354 457.001753 
L 997.096246 451.187881 
L 998.088952 455.558058 
L 999.081658 456.32958 
L 1000.074364 460.170323 
L 1001.06707 456.695711 
L 1002.059776 458.252667 
L 1003.052482 454.889441 
L 1004.045188 452.184152 
L 1005.037894 452.88721 
L 1006.0306 457.505813 
L 1007.023305 453.947725 
L 1008.016011 454.426756 
L 1009.008717 458.60878 
L 1010.001423 454.617548 
L 1010.994129 456.405824 
L 1011.986835 456.759162 
L 1012.979541 452.466301 
L 1013.972247 455.061809 
L 1014.964953 453.466642 
L 1015.957659 456.353597 
L 1016.950365 451.384543 
L 1017.943071 459.55701 
L 1018.935777 456.003431 
L 1019.928482 457.02097 
L 1020.921188 455.023941 
L 1021.913894 454.816575 
L 1022.9066 457.597713 
L 1023.899306 455.525672 
L 1025.884718 454.759638 
L 1026.877424 452.274042 
L 1027.87013 457.838233 
L 1028.862836 460.057399 
L 1029.855542 453.523569 
L 1030.848248 458.310514 
L 1031.840954 458.910208 
L 1033.826365 455.545983 
L 1034.819071 460.673739 
L 1035.811777 455.285877 
L 1036.804483 455.242905 
L 1037.797189 456.072651 
L 1038.789895 457.718238 
L 1039.782601 456.165662 
L 1040.775307 458.233175 
L 1041.768013 457.47855 
L 1042.760719 454.212682 
L 1043.753425 455.880085 
L 1044.746131 460.388673 
L 1045.738837 458.051561 
L 1046.731542 460.317198 
L 1047.724248 458.609454 
L 1048.716954 456.678906 
L 1049.70966 456.9792 
L 1050.702366 453.620559 
L 1051.695072 458.173223 
L 1052.687778 457.371786 
L 1053.680484 453.699099 
L 1054.67319 458.510134 
L 1055.665896 461.93747 
L 1056.658602 457.132103 
L 1057.651308 458.373683 
L 1058.644014 455.345223 
L 1059.636719 455.104755 
L 1060.629425 455.507247 
L 1061.622131 456.291387 
L 1062.614837 456.605719 
L 1063.607543 459.713385 
L 1064.600249 461.29029 
L 1065.592955 456.025939 
L 1066.585661 457.086631 
L 1067.578367 456.00207 
L 1068.571073 458.117133 
L 1069.563779 459.06827 
L 1070.556485 456.253805 
L 1071.549191 458.538331 
L 1072.541896 456.138822 
L 1073.534602 458.112561 
L 1074.527308 457.459119 
L 1075.520014 457.033015 
L 1076.51272 460.356237 
L 1077.505426 454.567397 
L 1078.498132 456.639037 
L 1079.490838 460.332232 
L 1080.483544 459.009469 
L 1081.47625 460.008139 
L 1082.468956 457.042209 
L 1083.461662 461.691647 
L 1084.454368 456.091863 
L 1085.447073 459.094209 
L 1086.439779 457.493301 
L 1087.432485 457.24764 
L 1088.425191 460.253869 
L 1089.417897 456.439497 
L 1090.410603 457.473921 
L 1091.403309 456.525916 
L 1092.396015 455.243905 
L 1093.388721 459.275351 
L 1094.381427 459.998384 
L 1095.374133 457.787248 
L 1096.366839 456.625195 
L 1097.359545 457.726449 
L 1098.35225 462.397112 
L 1099.344956 460.529904 
L 1100.337662 457.959757 
L 1101.330368 458.505653 
L 1102.323074 460.073861 
L 1103.31578 458.964701 
L 1104.308486 456.79535 
L 1105.301192 458.81641 
L 1106.293898 457.737887 
L 1107.286604 457.185471 
L 1108.27931 457.99 
L 1109.272016 456.52564 
L 1110.264722 457.549278 
L 1111.257428 462.790707 
L 1112.250133 459.734458 
L 1113.242839 454.861119 
L 1114.235545 457.468634 
L 1115.228251 457.755126 
L 1116.220957 460.33451 
L 1117.213663 459.385602 
L 1118.206369 460.163673 
L 1119.199075 457.171503 
L 1120.191781 458.875282 
L 1121.184487 458.956315 
L 1122.177193 455.541598 
L 1123.169899 454.466676 
L 1124.162605 457.880452 
L 1125.15531 456.906334 
L 1126.148016 459.342282 
L 1127.140722 457.196002 
L 1128.133428 460.493939 
L 1129.126134 459.274221 
L 1130.11884 454.677795 
L 1131.111546 457.598278 
L 1132.104252 459.839091 
L 1133.096958 454.515487 
L 1134.089664 460.389375 
L 1135.08237 453.965433 
L 1136.075076 457.753168 
L 1137.067782 462.346861 
L 1138.060487 457.693739 
L 1139.053193 459.80769 
L 1140.045899 458.142088 
L 1141.038605 459.513922 
L 1142.031311 456.827792 
L 1143.024017 458.03519 
L 1144.016723 455.675145 
L 1145.009429 457.650827 
L 1146.002135 460.475498 
L 1146.994841 456.625189 
L 1147.987547 458.762515 
L 1148.980253 462.157772 
L 1149.972959 463.478741 
L 1150.965664 455.329031 
L 1151.95837 458.865057 
L 1152.951076 459.436432 
L 1153.943782 456.722717 
L 1154.936488 455.028348 
L 1155.929194 458.911785 
L 1156.9219 457.745311 
L 1157.914606 458.526453 
L 1158.907312 456.990283 
L 1159.900018 458.491082 
L 1160.892724 461.737385 
L 1161.88543 458.673183 
L 1162.878136 459.931587 
L 1163.870841 459.117857 
L 1164.863547 457.74428 
L 1165.856253 459.341759 
L 1166.848959 463.594594 
L 1167.841665 455.963603 
L 1168.834371 459.02398 
L 1169.827077 461.650945 
L 1170.819783 456.605611 
L 1171.812489 459.790871 
L 1172.805195 456.834713 
L 1173.797901 458.077151 
L 1174.790607 458.350692 
L 1175.783313 458.948053 
L 1176.776019 462.864964 
L 1177.768724 459.133413 
L 1178.76143 459.597016 
L 1179.754136 462.060019 
L 1180.746842 457.31909 
L 1181.739548 462.260154 
L 1182.732254 461.599186 
L 1183.72496 463.726091 
L 1184.717666 459.052464 
L 1185.710372 459.550827 
L 1186.703078 456.781228 
L 1187.695784 464.452082 
L 1188.68849 459.37725 
L 1189.681196 455.933115 
L 1190.673901 459.405934 
L 1191.666607 460.78964 
L 1192.659313 458.873795 
L 1193.652019 463.510356 
L 1194.644725 460.56354 
L 1195.637431 459.609079 
L 1196.630137 458.323353 
L 1197.622843 456.446117 
L 1198.615549 460.091761 
L 1199.608255 461.303249 
L 1200.600961 458.153403 
L 1201.593667 458.087845 
L 1202.586373 459.972966 
L 1203.579078 459.721919 
L 1204.571784 458.1439 
L 1205.56449 459.506907 
L 1206.557196 456.968118 
L 1207.549902 461.623053 
L 1208.542608 456.094663 
L 1209.535314 455.989697 
L 1210.52802 459.643091 
L 1211.520726 461.092542 
L 1212.513432 457.225792 
L 1213.506138 461.057629 
L 1214.498844 462.910451 
L 1215.49155 459.673042 
L 1216.484255 457.565878 
L 1217.476961 458.399839 
L 1218.469667 458.467057 
L 1219.462373 462.17333 
L 1220.455079 460.094456 
L 1221.447785 457.158967 
L 1222.440491 460.04583 
L 1223.433197 458.628965 
L 1224.425903 460.205586 
L 1225.418609 459.911888 
L 1226.411315 455.682427 
L 1227.404021 461.322001 
L 1228.396727 456.845421 
L 1229.389432 456.791457 
L 1230.382138 462.611443 
L 1231.374844 460.278009 
L 1232.36755 458.552119 
L 1233.360256 461.308376 
L 1234.352962 458.524723 
L 1235.345668 460.420885 
L 1236.338374 459.712757 
L 1237.33108 457.774889 
L 1238.323786 461.393513 
L 1239.316492 458.178824 
L 1240.309198 457.93783 
L 1241.301904 460.236034 
L 1242.29461 458.892602 
L 1243.287315 461.317129 
L 1244.280021 457.905284 
L 1245.272727 459.129908 
L 1245.272727 459.129908 
" clip-path="url(#pabeeb1a445)" style="fill: none; stroke: #1f77b4; stroke-width: 1.5; stroke-linecap: square"/>
   </g>
   <g id="patch_3">
    <path d="M 180 512.64 
L 180 69.12 
" style="fill: none; stroke: #000000; stroke-width: 0.8; stroke-linejoin: miter; stroke-linecap: square"/>
   </g>
   <g id="patch_4">
    <path d="M 1296 512.64 
L 1296 69.12 
" style="fill: none; stroke: #000000; stroke-width: 0.8; stroke-linejoin: miter; stroke-linecap: square"/>
   </g>
   <g id="patch_5">
    <path d="M 180 512.64 
L 1296 512.64 
" style="fill: none; stroke: #000000; stroke-width: 0.8; stroke-linejoin: miter; stroke-linecap: square"/>
   </g>
   <g id="patch_6">
    <path d="M 180 69.12 
L 1296 69.12 
" style="fill: none; stroke: #000000; stroke-width: 0.8; stroke-linejoin: miter; stroke-linecap: square"/>
   </g>
   <g id="text_15">
    <!-- source22-receiver1 -->
    <g transform="translate(544.9 60.80125) scale(0.4 -0.4)">
     <defs>
      <path id="DejaVuSans-73" d="M 2834 3397 
L 2834 2853 
Q 2591 2978 2328 3040 
Q 2066 3103 1784 3103 
Q 1356 3103 1142 2972 
Q 928 2841 928 2578 
Q 928 2378 1081 2264 
Q 1234 2150 1697 2047 
L 1894 2003 
Q 2506 1872 2764 1633 
Q 3022 1394 3022 966 
Q 3022 478 2636 193 
Q 2250 -91 1575 -91 
Q 1294 -91 989 -36 
Q 684 19 347 128 
L 347 722 
Q 666 556 975 473 
Q 1284 391 1588 391 
Q 1994 391 2212 530 
Q 2431 669 2431 922 
Q 2431 1156 2273 1281 
Q 2116 1406 1581 1522 
L 1381 1569 
Q 847 1681 609 1914 
Q 372 2147 372 2553 
Q 372 3047 722 3315 
Q 1072 3584 1716 3584 
Q 2034 3584 2315 3537 
Q 2597 3491 2834 3397 
z
" transform="scale(0.015625)"/>
      <path id="DejaVuSans-6f" d="M 1959 3097 
Q 1497 3097 1228 2736 
Q 959 2375 959 1747 
Q 959 1119 1226 758 
Q 1494 397 1959 397 
Q 2419 397 2687 759 
Q 2956 1122 2956 1747 
Q 2956 2369 2687 2733 
Q 2419 3097 1959 3097 
z
M 1959 3584 
Q 2709 3584 3137 3096 
Q 3566 2609 3566 1747 
Q 3566 888 3137 398 
Q 2709 -91 1959 -91 
Q 1206 -91 779 398 
Q 353 888 353 1747 
Q 353 2609 779 3096 
Q 1206 3584 1959 3584 
z
" transform="scale(0.015625)"/>
      <path id="DejaVuSans-75" d="M 544 1381 
L 544 3500 
L 1119 3500 
L 1119 1403 
Q 1119 906 1312 657 
Q 1506 409 1894 409 
Q 2359 409 2629 706 
Q 2900 1003 2900 1516 
L 2900 3500 
L 3475 3500 
L 3475 0 
L 2900 0 
L 2900 538 
Q 2691 219 2414 64 
Q 2138 -91 1772 -91 
Q 1169 -91 856 284 
Q 544 659 544 1381 
z
M 1991 3584 
L 1991 3584 
z
" transform="scale(0.015625)"/>
      <path id="DejaVuSans-72" d="M 2631 2963 
Q 2534 3019 2420 3045 
Q 2306 3072 2169 3072 
Q 1681 3072 1420 2755 
Q 1159 2438 1159 1844 
L 1159 0 
L 581 0 
L 581 3500 
L 1159 3500 
L 1159 2956 
Q 1341 3275 1631 3429 
Q 1922 3584 2338 3584 
Q 2397 3584 2469 3576 
Q 2541 3569 2628 3553 
L 2631 2963 
z
" transform="scale(0.015625)"/>
      <path id="DejaVuSans-63" d="M 3122 3366 
L 3122 2828 
Q 2878 2963 2633 3030 
Q 2388 3097 2138 3097 
Q 1578 3097 1268 2742 
Q 959 2388 959 1747 
Q 959 1106 1268 751 
Q 1578 397 2138 397 
Q 2388 397 2633 464 
Q 2878 531 3122 666 
L 3122 134 
Q 2881 22 2623 -34 
Q 2366 -91 2075 -91 
Q 1284 -91 818 406 
Q 353 903 353 1747 
Q 353 2603 823 3093 
Q 1294 3584 2113 3584 
Q 2378 3584 2631 3529 
Q 2884 3475 3122 3366 
z
" transform="scale(0.015625)"/>
      <path id="DejaVuSans-65" d="M 3597 1894 
L 3597 1613 
L 953 1613 
Q 991 1019 1311 708 
Q 1631 397 2203 397 
Q 2534 397 2845 478 
Q 3156 559 3463 722 
L 3463 178 
Q 3153 47 2828 -22 
Q 2503 -91 2169 -91 
Q 1331 -91 842 396 
Q 353 884 353 1716 
Q 353 2575 817 3079 
Q 1281 3584 2069 3584 
Q 2775 3584 3186 3129 
Q 3597 2675 3597 1894 
z
M 3022 2063 
Q 3016 2534 2758 2815 
Q 2500 3097 2075 3097 
Q 1594 3097 1305 2825 
Q 1016 2553 972 2059 
L 3022 2063 
z
" transform="scale(0.015625)"/>
      <path id="DejaVuSans-2d" d="M 313 2009 
L 1997 2009 
L 1997 1497 
L 313 1497 
L 313 2009 
z
" transform="scale(0.015625)"/>
      <path id="DejaVuSans-69" d="M 603 3500 
L 1178 3500 
L 1178 0 
L 603 0 
L 603 3500 
z
M 603 4863 
L 1178 4863 
L 1178 4134 
L 603 4134 
L 603 4863 
z
" transform="scale(0.015625)"/>
      <path id="DejaVuSans-76" d="M 191 3500 
L 800 3500 
L 1894 563 
L 2988 3500 
L 3597 3500 
L 2284 0 
L 1503 0 
L 191 3500 
z
" transform="scale(0.015625)"/>
     </defs>
     <use xlink:href="#DejaVuSans-73"/>
     <use xlink:href="#DejaVuSans-6f" x="52.099609"/>
     <use xlink:href="#DejaVuSans-75" x="113.28125"/>
     <use xlink:href="#DejaVuSans-72" x="176.660156"/>
     <use xlink:href="#DejaVuSans-63" x="215.523438"/>
     <use xlink:href="#DejaVuSans-65" x="270.503906"/>
     <use xlink:href="#DejaVuSans-32" x="332.027344"/>
     <use xlink:href="#DejaVuSans-32" x="395.650391"/>
     <use xlink:href="#DejaVuSans-2d" x="459.273438"/>
     <use xlink:href="#DejaVuSans-72" x="495.357422"/>
     <use xlink:href="#DejaVuSans-65" x="534.220703"/>
     <use xlink:href="#DejaVuSans-63" x="595.744141"/>
     <use xlink:href="#DejaVuSans-65" x="650.724609"/>
     <use xlink:href="#DejaVuSans-69" x="712.248047"/>
     <use xlink:href="#DejaVuSans-76" x="740.03125"/>
     <use xlink:href="#DejaVuSans-65" x="799.210938"/>
     <use xlink:href="#DejaVuSans-72" x="860.734375"/>
     <use xlink:href="#DejaVuSans-31" x="901.847656"/>
    </g>
   </g>
  </g>
 </g>
 <defs>
  <clipPath id="pabeeb1a445">
   <rect x="180" y="69.12" width="1116" height="443.52"/>
  </clipPath>
 </defs>
</svg>
