<?xml version="1.0" encoding="utf-8" standalone="no"?>
<!DOCTYPE svg PUBLIC "-//W3C//DTD SVG 1.1//EN"
  "http://www.w3.org/Graphics/SVG/1.1/DTD/svg11.dtd">
<svg xmlns:xlink="http://www.w3.org/1999/xlink" width="1440pt" height="576pt" viewBox="0 0 1440 576" xmlns="http://www.w3.org/2000/svg" version="1.1">
 <metadata>
  <rdf:RDF xmlns:dc="http://purl.org/dc/elements/1.1/" xmlns:cc="http://creativecommons.org/ns#" xmlns:rdf="http://www.w3.org/1999/02/22-rdf-syntax-ns#">
   <cc:Work>
    <dc:type rdf:resource="http://purl.org/dc/dcmitype/StillImage"/>
    <dc:date>2024-05-22T04:50:23.109347</dc:date>
    <dc:format>image/svg+xml</dc:format>
    <dc:creator>
     <cc:Agent>
      <dc:title>Matplotlib v3.8.3, https://matplotlib.org/</dc:title>
     </cc:Agent>
    </dc:creator>
   </cc:Work>
  </rdf:RDF>
 </metadata>
 <defs>
  <style type="text/css">*{stroke-linejoin: round; stroke-linecap: butt}</style>
 </defs>
 <g id="figure_1">
  <g id="patch_1">
   <path d="M 0 576 
L 1440 576 
L 1440 0 
L 0 0 
z
" style="fill: #ffffff"/>
  </g>
  <g id="axes_1">
   <g id="patch_2">
    <path d="M 180 512.64 
L 1296 512.64 
L 1296 69.12 
L 180 69.12 
z
" style="fill: #ffffff"/>
   </g>
   <g id="matplotlib.axis_1">
    <g id="xtick_1">
     <g id="line2d_1">
      <defs>
       <path id="ma36f5ab404" d="M 0 0 
L 0 3.5 
" style="stroke: #000000; stroke-width: 0.8"/>
      </defs>
      <g>
       <use xlink:href="#ma36f5ab404" x="229.734567" y="512.64" style="stroke: #000000; stroke-width: 0.8"/>
      </g>
     </g>
     <g id="text_1">
      <!-- 0 -->
      <g transform="translate(226.553317 527.238438) scale(0.1 -0.1)">
       <defs>
        <path id="DejaVuSans-30" d="M 2034 4250 
Q 1547 4250 1301 3770 
Q 1056 3291 1056 2328 
Q 1056 1369 1301 889 
Q 1547 409 2034 409 
Q 2525 409 2770 889 
Q 3016 1369 3016 2328 
Q 3016 3291 2770 3770 
Q 2525 4250 2034 4250 
z
M 2034 4750 
Q 2819 4750 3233 4129 
Q 3647 3509 3647 2328 
Q 3647 1150 3233 529 
Q 2819 -91 2034 -91 
Q 1250 -91 836 529 
Q 422 1150 422 2328 
Q 422 3509 836 4129 
Q 1250 4750 2034 4750 
z
" transform="scale(0.015625)"/>
       </defs>
       <use xlink:href="#DejaVuSans-30"/>
      </g>
     </g>
    </g>
    <g id="xtick_2">
     <g id="line2d_2">
      <g>
       <use xlink:href="#ma36f5ab404" x="433.04074" y="512.64" style="stroke: #000000; stroke-width: 0.8"/>
      </g>
     </g>
     <g id="text_2">
      <!-- 500 -->
      <g transform="translate(423.49699 527.238438) scale(0.1 -0.1)">
       <defs>
        <path id="DejaVuSans-35" d="M 691 4666 
L 3169 4666 
L 3169 4134 
L 1269 4134 
L 1269 2991 
Q 1406 3038 1543 3061 
Q 1681 3084 1819 3084 
Q 2600 3084 3056 2656 
Q 3513 2228 3513 1497 
Q 3513 744 3044 326 
Q 2575 -91 1722 -91 
Q 1428 -91 1123 -41 
Q 819 9 494 109 
L 494 744 
Q 775 591 1075 516 
Q 1375 441 1709 441 
Q 2250 441 2565 725 
Q 2881 1009 2881 1497 
Q 2881 1984 2565 2268 
Q 2250 2553 1709 2553 
Q 1456 2553 1204 2497 
Q 953 2441 691 2322 
L 691 4666 
z
" transform="scale(0.015625)"/>
       </defs>
       <use xlink:href="#DejaVuSans-35"/>
       <use xlink:href="#DejaVuSans-30" x="63.623047"/>
       <use xlink:href="#DejaVuSans-30" x="127.246094"/>
      </g>
     </g>
    </g>
    <g id="xtick_3">
     <g id="line2d_3">
      <g>
       <use xlink:href="#ma36f5ab404" x="636.346913" y="512.64" style="stroke: #000000; stroke-width: 0.8"/>
      </g>
     </g>
     <g id="text_3">
      <!-- 1000 -->
      <g transform="translate(623.621913 527.238438) scale(0.1 -0.1)">
       <defs>
        <path id="DejaVuSans-31" d="M 794 531 
L 1825 531 
L 1825 4091 
L 703 3866 
L 703 4441 
L 1819 4666 
L 2450 4666 
L 2450 531 
L 3481 531 
L 3481 0 
L 794 0 
L 794 531 
z
" transform="scale(0.015625)"/>
       </defs>
       <use xlink:href="#DejaVuSans-31"/>
       <use xlink:href="#DejaVuSans-30" x="63.623047"/>
       <use xlink:href="#DejaVuSans-30" x="127.246094"/>
       <use xlink:href="#DejaVuSans-30" x="190.869141"/>
      </g>
     </g>
    </g>
    <g id="xtick_4">
     <g id="line2d_4">
      <g>
       <use xlink:href="#ma36f5ab404" x="839.653087" y="512.64" style="stroke: #000000; stroke-width: 0.8"/>
      </g>
     </g>
     <g id="text_4">
      <!-- 1500 -->
      <g transform="translate(826.928087 527.238438) scale(0.1 -0.1)">
       <use xlink:href="#DejaVuSans-31"/>
       <use xlink:href="#DejaVuSans-35" x="63.623047"/>
       <use xlink:href="#DejaVuSans-30" x="127.246094"/>
       <use xlink:href="#DejaVuSans-30" x="190.869141"/>
      </g>
     </g>
    </g>
    <g id="xtick_5">
     <g id="line2d_5">
      <g>
       <use xlink:href="#ma36f5ab404" x="1042.95926" y="512.64" style="stroke: #000000; stroke-width: 0.8"/>
      </g>
     </g>
     <g id="text_5">
      <!-- 2000 -->
      <g transform="translate(1030.23426 527.238438) scale(0.1 -0.1)">
       <defs>
        <path id="DejaVuSans-32" d="M 1228 531 
L 3431 531 
L 3431 0 
L 469 0 
L 469 531 
Q 828 903 1448 1529 
Q 2069 2156 2228 2338 
Q 2531 2678 2651 2914 
Q 2772 3150 2772 3378 
Q 2772 3750 2511 3984 
Q 2250 4219 1831 4219 
Q 1534 4219 1204 4116 
Q 875 4013 500 3803 
L 500 4441 
Q 881 4594 1212 4672 
Q 1544 4750 1819 4750 
Q 2544 4750 2975 4387 
Q 3406 4025 3406 3419 
Q 3406 3131 3298 2873 
Q 3191 2616 2906 2266 
Q 2828 2175 2409 1742 
Q 1991 1309 1228 531 
z
" transform="scale(0.015625)"/>
       </defs>
       <use xlink:href="#DejaVuSans-32"/>
       <use xlink:href="#DejaVuSans-30" x="63.623047"/>
       <use xlink:href="#DejaVuSans-30" x="127.246094"/>
       <use xlink:href="#DejaVuSans-30" x="190.869141"/>
      </g>
     </g>
    </g>
    <g id="xtick_6">
     <g id="line2d_6">
      <g>
       <use xlink:href="#ma36f5ab404" x="1246.265433" y="512.64" style="stroke: #000000; stroke-width: 0.8"/>
      </g>
     </g>
     <g id="text_6">
      <!-- 2500 -->
      <g transform="translate(1233.540433 527.238438) scale(0.1 -0.1)">
       <use xlink:href="#DejaVuSans-32"/>
       <use xlink:href="#DejaVuSans-35" x="63.623047"/>
       <use xlink:href="#DejaVuSans-30" x="127.246094"/>
       <use xlink:href="#DejaVuSans-30" x="190.869141"/>
      </g>
     </g>
    </g>
   </g>
   <g id="matplotlib.axis_2">
    <g id="ytick_1">
     <g id="line2d_7">
      <defs>
       <path id="m05074749d5" d="M 0 0 
L -3.5 0 
" style="stroke: #000000; stroke-width: 0.8"/>
      </defs>
      <g>
       <use xlink:href="#m05074749d5" x="180" y="512.139824" style="stroke: #000000; stroke-width: 0.8"/>
      </g>
     </g>
     <g id="text_7">
      <!-- −6 -->
      <g transform="translate(158.257812 515.939043) scale(0.1 -0.1)">
       <defs>
        <path id="DejaVuSans-2212" d="M 678 2272 
L 4684 2272 
L 4684 1741 
L 678 1741 
L 678 2272 
z
" transform="scale(0.015625)"/>
        <path id="DejaVuSans-36" d="M 2113 2584 
Q 1688 2584 1439 2293 
Q 1191 2003 1191 1497 
Q 1191 994 1439 701 
Q 1688 409 2113 409 
Q 2538 409 2786 701 
Q 3034 994 3034 1497 
Q 3034 2003 2786 2293 
Q 2538 2584 2113 2584 
z
M 3366 4563 
L 3366 3988 
Q 3128 4100 2886 4159 
Q 2644 4219 2406 4219 
Q 1781 4219 1451 3797 
Q 1122 3375 1075 2522 
Q 1259 2794 1537 2939 
Q 1816 3084 2150 3084 
Q 2853 3084 3261 2657 
Q 3669 2231 3669 1497 
Q 3669 778 3244 343 
Q 2819 -91 2113 -91 
Q 1303 -91 875 529 
Q 447 1150 447 2328 
Q 447 3434 972 4092 
Q 1497 4750 2381 4750 
Q 2619 4750 2861 4703 
Q 3103 4656 3366 4563 
z
" transform="scale(0.015625)"/>
       </defs>
       <use xlink:href="#DejaVuSans-2212"/>
       <use xlink:href="#DejaVuSans-36" x="83.789062"/>
      </g>
     </g>
    </g>
    <g id="ytick_2">
     <g id="line2d_8">
      <g>
       <use xlink:href="#m05074749d5" x="180" y="423.033131" style="stroke: #000000; stroke-width: 0.8"/>
      </g>
     </g>
     <g id="text_8">
      <!-- −4 -->
      <g transform="translate(158.257812 426.83235) scale(0.1 -0.1)">
       <defs>
        <path id="DejaVuSans-34" d="M 2419 4116 
L 825 1625 
L 2419 1625 
L 2419 4116 
z
M 2253 4666 
L 3047 4666 
L 3047 1625 
L 3713 1625 
L 3713 1100 
L 3047 1100 
L 3047 0 
L 2419 0 
L 2419 1100 
L 313 1100 
L 313 1709 
L 2253 4666 
z
" transform="scale(0.015625)"/>
       </defs>
       <use xlink:href="#DejaVuSans-2212"/>
       <use xlink:href="#DejaVuSans-34" x="83.789062"/>
      </g>
     </g>
    </g>
    <g id="ytick_3">
     <g id="line2d_9">
      <g>
       <use xlink:href="#m05074749d5" x="180" y="333.926439" style="stroke: #000000; stroke-width: 0.8"/>
      </g>
     </g>
     <g id="text_9">
      <!-- −2 -->
      <g transform="translate(158.257812 337.725658) scale(0.1 -0.1)">
       <use xlink:href="#DejaVuSans-2212"/>
       <use xlink:href="#DejaVuSans-32" x="83.789062"/>
      </g>
     </g>
    </g>
    <g id="ytick_4">
     <g id="line2d_10">
      <g>
       <use xlink:href="#m05074749d5" x="180" y="244.819747" style="stroke: #000000; stroke-width: 0.8"/>
      </g>
     </g>
     <g id="text_10">
      <!-- 0 -->
      <g transform="translate(166.6375 248.618965) scale(0.1 -0.1)">
       <use xlink:href="#DejaVuSans-30"/>
      </g>
     </g>
    </g>
    <g id="ytick_5">
     <g id="line2d_11">
      <g>
       <use xlink:href="#m05074749d5" x="180" y="155.713054" style="stroke: #000000; stroke-width: 0.8"/>
      </g>
     </g>
     <g id="text_11">
      <!-- 2 -->
      <g transform="translate(166.6375 159.512273) scale(0.1 -0.1)">
       <use xlink:href="#DejaVuSans-32"/>
      </g>
     </g>
    </g>
   </g>
   <g id="line2d_12">
    <path d="M 230.727273 314.914297 
L 231.719979 314.565889 
L 232.712685 315.470299 
L 233.70539 314.186525 
L 234.698096 313.843648 
L 235.690802 313.013675 
L 236.683508 311.854154 
L 237.676214 310.945095 
L 238.66892 309.473484 
L 239.661626 308.433741 
L 240.654332 306.080888 
L 241.647038 304.448398 
L 242.639744 301.95772 
L 243.63245 297.74019 
L 244.625156 292.993735 
L 245.617862 306.575216 
L 246.610568 275.598941 
L 247.603273 262.988583 
L 248.595979 275.658208 
L 249.588685 180.638426 
L 250.581391 157.742543 
L 251.574097 159.518 
L 252.566803 185.414413 
L 253.559509 258.934663 
L 254.552215 191.903823 
L 255.544921 172.286583 
L 256.537627 166.68553 
L 257.530333 156.871464 
L 258.523039 160.852857 
L 259.515745 224.403594 
L 260.50845 158.947377 
L 262.493862 187.709742 
L 263.486568 147.076389 
L 264.479274 136.41766 
L 265.47198 130.158443 
L 266.464686 129.177015 
L 267.457392 123.782526 
L 268.450098 126.346212 
L 269.442804 156.079151 
L 270.43551 140.808931 
L 271.428216 120.677751 
L 272.420922 128.738441 
L 273.413627 139.194817 
L 274.406333 140.705789 
L 275.399039 175.195123 
L 277.384451 101.6532 
L 278.377157 107.778297 
L 279.369863 133.641443 
L 280.362569 116.525321 
L 281.355275 130.878237 
L 282.347981 147.526009 
L 283.340687 108.079026 
L 284.333393 101.35083 
L 285.326099 108.935702 
L 286.318804 129.202611 
L 287.31151 113.17398 
L 288.304216 89.28 
L 289.296922 94.460407 
L 290.289628 122.546471 
L 291.282334 132.022742 
L 292.27504 156.531968 
L 293.267746 227.144106 
L 294.260452 207.022402 
L 295.253158 171.192799 
L 296.245864 161.950209 
L 298.231276 202.522977 
L 299.223981 168.672466 
L 300.216687 161.220522 
L 301.209393 187.823572 
L 302.202099 206.003769 
L 303.194805 182.025818 
L 304.187511 174.114509 
L 305.180217 173.102403 
L 306.172923 183.560271 
L 308.158335 241.568624 
L 309.151041 221.506349 
L 310.143747 235.770899 
L 311.136453 246.519319 
L 312.129159 250.707554 
L 313.121864 268.737512 
L 314.11457 270.810631 
L 315.107276 291.985023 
L 316.099982 372.061272 
L 317.092688 324.40146 
L 318.085394 305.425667 
L 320.070806 343.10689 
L 321.063512 315.034416 
L 322.056218 375.620114 
L 323.048924 328.752568 
L 324.04163 346.929624 
L 325.034336 330.140499 
L 326.027041 326.608519 
L 327.019747 345.673074 
L 328.012453 339.579612 
L 329.005159 336.366172 
L 329.997865 339.346296 
L 330.990571 321.919328 
L 331.983277 415.55457 
L 332.975983 365.095372 
L 333.968689 332.447924 
L 334.961395 361.280988 
L 335.954101 322.9284 
L 336.946807 335.121693 
L 337.939513 367.664646 
L 338.932218 320.371057 
L 339.924924 382.76881 
L 340.91763 413.06055 
L 341.910336 336.54819 
L 342.903042 337.998172 
L 343.895748 345.132583 
L 344.888454 342.580106 
L 345.88116 352.023917 
L 346.873866 366.702642 
L 347.866572 386.800658 
L 348.859278 392.441587 
L 349.851984 317.842218 
L 350.84469 362.409608 
L 351.837395 348.913866 
L 352.830101 371.546487 
L 353.822807 363.735566 
L 354.815513 340.594036 
L 355.808219 363.742571 
L 357.793631 329.36204 
L 358.786337 331.516514 
L 359.779043 378.202811 
L 360.771749 371.519322 
L 361.764455 334.771771 
L 362.757161 319.553441 
L 363.749867 346.17614 
L 364.742572 337.368402 
L 365.735278 291.660587 
L 366.727984 392.19114 
L 367.72069 358.241064 
L 368.713396 317.871851 
L 369.706102 329.076053 
L 370.698808 398.147204 
L 371.691514 398.695246 
L 372.68422 359.053787 
L 373.676926 357.108208 
L 374.669632 367.777883 
L 375.662338 443.478786 
L 376.655044 347.60802 
L 377.64775 333.622609 
L 378.640455 330.830925 
L 379.633161 434.906568 
L 380.625867 369.161822 
L 381.618573 406.737987 
L 382.611279 360.699766 
L 383.603985 390.702145 
L 384.596691 357.52234 
L 385.589397 352.18869 
L 386.582103 394.174014 
L 387.574809 388.661977 
L 388.567515 375.68368 
L 390.552927 318.926036 
L 391.545632 305.542305 
L 392.538338 308.207554 
L 393.531044 315.619646 
L 394.52375 331.135328 
L 395.516456 315.949349 
L 396.509162 344.435902 
L 397.501868 357.970019 
L 398.494574 374.505885 
L 399.48728 339.658211 
L 400.479986 362.844429 
L 401.472692 331.558444 
L 402.465398 405.726201 
L 403.458104 345.522606 
L 404.450809 407.535888 
L 405.443515 323.252069 
L 406.436221 342.692522 
L 407.428927 345.201023 
L 408.421633 401.255245 
L 409.414339 375.497547 
L 410.407045 373.248226 
L 411.399751 365.768328 
L 412.392457 344.711796 
L 414.377869 389.409244 
L 415.370575 358.909736 
L 416.363281 375.068528 
L 417.355986 314.946598 
L 418.348692 305.438323 
L 419.341398 294.721326 
L 420.334104 293.035381 
L 421.32681 301.800489 
L 422.319516 327.540227 
L 423.312222 301.665233 
L 424.304928 343.829105 
L 425.297634 375.660105 
L 426.29034 424.02701 
L 427.283046 400.083568 
L 428.275752 354.510026 
L 429.268458 430.799411 
L 430.261163 365.643574 
L 432.246575 341.53508 
L 433.239281 339.436188 
L 434.231987 411.847118 
L 435.224693 333.560704 
L 436.217399 406.660629 
L 437.210105 343.162187 
L 438.202811 356.614253 
L 439.195517 334.290691 
L 440.188223 371.292093 
L 441.180929 440.644445 
L 442.173635 369.065467 
L 443.166341 372.446336 
L 444.159046 351.081108 
L 445.151752 336.002424 
L 446.144458 345.054576 
L 447.137164 337.132197 
L 448.12987 327.80914 
L 449.122576 370.90979 
L 450.115282 368.562377 
L 451.107988 347.593115 
L 452.100694 348.871238 
L 453.0934 381.053643 
L 454.086106 359.465333 
L 455.078812 390.549781 
L 456.071518 374.386076 
L 457.064223 396.217095 
L 458.056929 367.341086 
L 459.049635 396.18571 
L 460.042341 385.193183 
L 461.035047 367.72064 
L 462.027753 384.561292 
L 463.020459 365.844443 
L 464.013165 387.335358 
L 465.005871 384.335874 
L 465.998577 411.316059 
L 466.991283 364.717461 
L 467.983989 369.762732 
L 468.976695 394.926025 
L 469.9694 368.842985 
L 470.962106 360.531591 
L 471.954812 344.155053 
L 472.947518 447.389785 
L 474.93293 357.536926 
L 475.925636 356.245959 
L 476.918342 418.627791 
L 477.911048 451.166459 
L 478.903754 395.555019 
L 479.89646 404.657722 
L 480.889166 377.212211 
L 481.881872 383.738191 
L 482.874577 372.429053 
L 483.867283 374.710047 
L 484.859989 379.670452 
L 485.852695 418.008045 
L 486.845401 371.945393 
L 487.838107 369.700792 
L 488.830813 400.686976 
L 489.823519 407.585188 
L 490.816225 399.215725 
L 491.808931 366.305366 
L 492.801637 402.773824 
L 493.794343 379.575138 
L 494.787049 378.797457 
L 495.779754 454.933788 
L 496.77246 383.60806 
L 497.765166 473.270794 
L 498.757872 374.410667 
L 499.750578 350.040652 
L 500.743284 377.917476 
L 501.73599 339.437564 
L 502.728696 340.136269 
L 503.721402 354.6019 
L 504.714108 361.231933 
L 506.69952 365.512156 
L 507.692226 368.097447 
L 508.684932 393.759019 
L 509.677637 357.832052 
L 510.670343 413.486495 
L 511.663049 394.796985 
L 512.655755 398.822215 
L 513.648461 441.95192 
L 514.641167 345.566505 
L 515.633873 365.012512 
L 516.626579 355.89705 
L 517.619285 409.554369 
L 518.611991 401.802823 
L 519.604697 397.050573 
L 520.597403 365.693711 
L 521.590109 362.502973 
L 522.582814 385.531934 
L 523.57552 414.952837 
L 524.568226 407.802277 
L 525.560932 404.299001 
L 526.553638 323.797282 
L 527.546344 334.164435 
L 528.53905 335.865964 
L 529.531756 313.455965 
L 530.524462 323.223815 
L 531.517168 402.495191 
L 532.509874 328.167386 
L 533.50258 363.058823 
L 534.495286 367.067327 
L 535.487991 378.351751 
L 536.480697 377.10065 
L 537.473403 360.301477 
L 538.466109 381.074102 
L 539.458815 360.696689 
L 540.451521 372.135344 
L 541.444227 368.916052 
L 542.436933 346.640226 
L 543.429639 373.790604 
L 544.422345 367.914039 
L 545.415051 385.280062 
L 546.407757 384.108233 
L 547.400463 365.884358 
L 548.393168 352.131186 
L 549.385874 413.610197 
L 550.37858 407.787105 
L 551.371286 369.167283 
L 554.349404 326.430394 
L 555.34211 337.18341 
L 556.334816 323.513212 
L 558.320228 343.486383 
L 559.312934 353.658274 
L 560.30564 345.212594 
L 561.298345 357.291824 
L 562.291051 414.58456 
L 563.283757 409.95949 
L 564.276463 374.477228 
L 565.269169 371.172352 
L 566.261875 374.150717 
L 567.254581 411.092297 
L 568.247287 390.842112 
L 569.239993 340.632329 
L 570.232699 357.037914 
L 571.225405 404.200584 
L 572.218111 402.578376 
L 573.210817 480.518497 
L 574.203523 407.350422 
L 575.196228 381.702353 
L 576.188934 369.001645 
L 577.18164 379.502359 
L 578.174346 492.48 
L 579.167052 395.840938 
L 580.159758 397.167804 
L 581.152464 362.366957 
L 582.14517 408.123106 
L 583.137876 359.748235 
L 584.130582 395.60533 
L 585.123288 382.236239 
L 586.115994 387.080695 
L 587.1087 376.031743 
L 588.101405 381.528803 
L 589.094111 397.292378 
L 590.086817 386.498845 
L 591.079523 433.889492 
L 592.072229 416.274102 
L 593.064935 372.673628 
L 594.057641 356.854909 
L 595.050347 383.708408 
L 596.043053 414.110024 
L 597.035759 383.067541 
L 598.028465 435.607045 
L 599.021171 462.788701 
L 600.013877 399.943736 
L 601.006582 455.112707 
L 601.999288 434.821582 
L 602.991994 362.022701 
L 603.9847 395.40748 
L 604.977406 402.382652 
L 605.970112 442.181348 
L 606.962818 397.223777 
L 607.955524 385.468381 
L 608.94823 446.332377 
L 609.940936 422.353328 
L 610.933642 393.134401 
L 611.926348 390.794733 
L 612.919054 444.983466 
L 613.911759 394.345061 
L 614.904465 381.933358 
L 615.897171 420.996045 
L 616.889877 414.865749 
L 617.882583 399.906341 
L 618.875289 404.13203 
L 619.867995 421.035605 
L 620.860701 421.936981 
L 621.853407 452.197853 
L 622.846113 403.981722 
L 623.838819 410.678916 
L 624.831525 385.03972 
L 625.824231 404.995978 
L 626.816936 447.76549 
L 627.809642 446.817877 
L 628.802348 429.503809 
L 629.795054 464.464915 
L 630.78776 410.188057 
L 631.780466 438.216055 
L 632.773172 408.385487 
L 633.765878 429.934979 
L 634.758584 391.109565 
L 635.75129 440.860526 
L 636.743996 425.620399 
L 637.736702 415.083527 
L 638.729408 420.332 
L 639.722114 462.96418 
L 640.714819 431.632669 
L 641.707525 425.210525 
L 642.700231 409.43063 
L 643.692937 470.259626 
L 644.685643 423.926272 
L 645.678349 421.962942 
L 646.671055 418.045347 
L 647.663761 431.540194 
L 648.656467 409.416706 
L 649.649173 427.74998 
L 650.641879 430.412192 
L 651.634585 438.60315 
L 652.627291 414.949885 
L 653.619996 426.373594 
L 654.612702 425.584204 
L 655.605408 414.170437 
L 656.598114 411.666164 
L 657.59082 417.57895 
L 658.583526 402.766611 
L 659.576232 433.533761 
L 660.568938 423.384256 
L 661.561644 430.210307 
L 662.55435 434.915251 
L 663.547056 429.638547 
L 664.539762 409.823024 
L 665.532468 419.054219 
L 666.525173 418.282322 
L 667.517879 422.749256 
L 668.510585 425.343442 
L 669.503291 416.571837 
L 670.495997 414.063181 
L 671.488703 415.751907 
L 672.481409 449.395815 
L 673.474115 420.337669 
L 674.466821 428.824981 
L 675.459527 431.981686 
L 676.452233 413.991781 
L 677.444939 424.249157 
L 678.437645 427.655884 
L 679.43035 429.691164 
L 680.423056 428.894084 
L 681.415762 423.881984 
L 682.408468 428.858969 
L 683.401174 418.772285 
L 684.39388 429.96289 
L 685.386586 428.65393 
L 686.379292 424.285923 
L 687.371998 423.058331 
L 688.364704 426.425464 
L 689.35741 427.120447 
L 690.350116 428.240553 
L 691.342822 432.057172 
L 692.335527 424.743941 
L 693.328233 424.863312 
L 694.320939 419.863241 
L 695.313645 427.003309 
L 696.306351 418.059807 
L 697.299057 420.708053 
L 698.291763 427.721306 
L 699.284469 430.883147 
L 700.277175 425.941253 
L 701.269881 419.872837 
L 702.262587 422.251271 
L 703.255293 431.671114 
L 704.247999 434.875373 
L 705.240705 418.143922 
L 706.23341 437.795346 
L 707.226116 421.745613 
L 708.218822 431.884451 
L 709.211528 425.629861 
L 710.204234 425.584112 
L 711.19694 427.145423 
L 712.189646 431.830205 
L 713.182352 424.126395 
L 714.175058 431.405719 
L 715.167764 428.035548 
L 716.16047 427.245615 
L 717.153176 425.288069 
L 718.145882 425.585368 
L 719.138587 432.843094 
L 720.131293 424.760818 
L 721.123999 432.12819 
L 722.116705 430.487004 
L 723.109411 424.212751 
L 724.102117 428.021707 
L 725.094823 423.220873 
L 726.087529 427.870914 
L 727.080235 426.875905 
L 728.072941 430.189053 
L 729.065647 429.579717 
L 730.058353 431.860831 
L 731.051059 426.422035 
L 732.043764 430.016131 
L 733.03647 426.746471 
L 734.029176 420.569191 
L 735.021882 426.437781 
L 736.014588 424.624779 
L 737.007294 430.088309 
L 738 426.324679 
L 738.992706 428.301483 
L 739.985412 427.147332 
L 740.978118 429.787187 
L 741.970824 429.490768 
L 742.96353 426.422528 
L 744.948941 427.530622 
L 745.941647 424.906109 
L 747.927059 432.479005 
L 748.919765 428.170289 
L 749.912471 425.607762 
L 750.905177 429.07966 
L 751.897883 430.612043 
L 752.890589 428.900462 
L 753.883295 433.60864 
L 754.876001 429.536214 
L 755.868707 428.393429 
L 756.861413 424.730266 
L 757.854118 429.275476 
L 758.846824 429.19554 
L 759.83953 431.658541 
L 760.832236 428.988166 
L 761.824942 430.550825 
L 762.817648 429.101416 
L 763.810354 428.349873 
L 764.80306 430.732544 
L 765.795766 428.611565 
L 766.788472 430.446767 
L 767.781178 429.630199 
L 768.773884 429.424928 
L 769.76659 436.324073 
L 770.759295 428.952746 
L 771.752001 430.419228 
L 772.744707 428.587447 
L 773.737413 432.71317 
L 774.730119 430.315018 
L 775.722825 429.045267 
L 776.715531 431.367555 
L 778.700943 432.466349 
L 779.693649 432.525173 
L 780.686355 433.653677 
L 781.679061 433.413199 
L 782.671767 428.833457 
L 783.664473 431.714077 
L 784.657178 430.849275 
L 785.649884 432.867283 
L 786.64259 433.391782 
L 787.635296 434.198208 
L 788.628002 432.619611 
L 789.620708 435.198489 
L 790.613414 430.919662 
L 791.60612 438.24074 
L 792.598826 435.021299 
L 793.591532 433.887187 
L 795.576944 435.598455 
L 796.56965 434.255638 
L 797.562355 431.519315 
L 798.555061 432.335806 
L 799.547767 439.094574 
L 800.540473 431.534986 
L 801.533179 431.49562 
L 802.525885 432.096553 
L 803.518591 438.59882 
L 804.511297 430.502906 
L 805.504003 430.759553 
L 806.496709 429.717955 
L 807.489415 430.747888 
L 808.482121 429.148075 
L 809.474827 436.572235 
L 810.467532 434.880484 
L 811.460238 437.228174 
L 812.452944 436.624968 
L 813.44565 431.891408 
L 814.438356 435.656848 
L 815.431062 436.090384 
L 816.423768 432.184169 
L 817.416474 431.186664 
L 818.40918 434.580493 
L 819.401886 434.35588 
L 820.394592 430.839641 
L 821.387298 431.365668 
L 822.380004 436.099816 
L 823.372709 435.051429 
L 824.365415 431.726683 
L 825.358121 435.383248 
L 826.350827 431.291326 
L 827.343533 437.521597 
L 828.336239 438.230801 
L 829.328945 435.552258 
L 830.321651 435.933559 
L 831.314357 434.355319 
L 832.307063 431.455238 
L 834.292475 439.231882 
L 835.285181 440.373869 
L 836.277886 440.783813 
L 837.270592 436.613189 
L 838.263298 434.538177 
L 839.256004 435.380111 
L 840.24871 435.579613 
L 841.241416 430.252187 
L 842.234122 435.383975 
L 843.226828 434.780092 
L 844.219534 433.661213 
L 845.21224 437.554274 
L 846.204946 435.332595 
L 847.197652 433.388738 
L 848.190358 434.351499 
L 849.183064 433.547066 
L 850.175769 435.007827 
L 851.168475 433.357642 
L 852.161181 431.052319 
L 853.153887 437.064025 
L 854.146593 435.668674 
L 855.139299 442.165533 
L 856.132005 432.06788 
L 858.117417 437.733322 
L 859.110123 438.205355 
L 860.102829 439.966804 
L 861.095535 434.411562 
L 862.088241 434.862706 
L 863.080946 435.95754 
L 864.073652 439.122906 
L 865.066358 434.133838 
L 866.059064 439.103164 
L 867.05177 440.279517 
L 868.044476 440.608033 
L 869.037182 437.264749 
L 870.029888 435.573229 
L 871.022594 437.382183 
L 872.0153 436.87892 
L 873.008006 440.740632 
L 874.000712 435.634587 
L 874.993418 438.197155 
L 875.986123 447.792475 
L 876.978829 432.061272 
L 877.971535 438.687719 
L 878.964241 440.346509 
L 879.956947 437.907788 
L 880.949653 435.896046 
L 881.942359 433.357444 
L 882.935065 437.526087 
L 883.927771 435.441208 
L 884.920477 436.424288 
L 885.913183 436.574986 
L 886.905889 435.142196 
L 887.898595 437.710934 
L 888.8913 434.97601 
L 889.884006 439.278652 
L 890.876712 436.811191 
L 891.869418 440.022942 
L 892.862124 436.967845 
L 893.85483 439.661454 
L 894.847536 435.673539 
L 895.840242 438.386641 
L 896.832948 436.092252 
L 897.825654 439.420318 
L 898.81836 434.516453 
L 899.811066 442.870908 
L 900.803772 439.663038 
L 901.796477 443.941287 
L 902.789183 437.652454 
L 903.781889 436.961199 
L 904.774595 437.595787 
L 905.767301 436.695094 
L 906.760007 440.519794 
L 907.752713 445.77481 
L 908.745419 435.652611 
L 909.738125 437.246294 
L 910.730831 435.223527 
L 911.723537 435.901919 
L 912.716243 442.343561 
L 913.708949 439.594348 
L 914.701655 438.668334 
L 915.69436 441.398102 
L 916.687066 436.149891 
L 917.679772 439.090295 
L 918.672478 441.646935 
L 919.665184 438.826843 
L 920.65789 435.120548 
L 921.650596 438.015123 
L 922.643302 433.076431 
L 923.636008 441.054763 
L 924.628714 435.144613 
L 925.62142 438.293536 
L 926.614126 434.927892 
L 927.606832 445.86315 
L 928.599537 441.681782 
L 929.592243 439.09334 
L 930.584949 441.285547 
L 931.577655 438.510181 
L 932.570361 445.636536 
L 933.563067 440.163832 
L 934.555773 442.300586 
L 935.548479 443.263593 
L 936.541185 439.4973 
L 937.533891 439.897318 
L 938.526597 437.346954 
L 939.519303 438.887174 
L 940.512009 439.816058 
L 941.504714 438.801145 
L 942.49742 436.068267 
L 943.490126 438.257793 
L 944.482832 438.511684 
L 945.475538 435.061606 
L 946.468244 441.711246 
L 947.46095 440.723808 
L 948.453656 439.352319 
L 949.446362 436.324525 
L 950.439068 443.229529 
L 951.431774 442.513832 
L 952.42448 443.097057 
L 953.417186 438.513997 
L 954.409891 438.972544 
L 955.402597 443.297512 
L 956.395303 445.640926 
L 957.388009 444.422057 
L 958.380715 438.070932 
L 959.373421 437.319557 
L 960.366127 441.310235 
L 961.358833 437.479555 
L 962.351539 442.662042 
L 963.344245 437.1777 
L 964.336951 435.337149 
L 965.329657 443.819179 
L 966.322363 442.058045 
L 967.315068 438.918311 
L 968.307774 434.880262 
L 969.30048 435.433448 
L 970.293186 444.102217 
L 971.285892 441.351993 
L 972.278598 439.429657 
L 973.271304 440.813036 
L 974.26401 439.14474 
L 975.256716 437.115882 
L 976.249422 439.782691 
L 977.242128 437.477179 
L 978.234834 446.453426 
L 979.22754 445.442374 
L 980.220246 442.35854 
L 981.212951 442.582226 
L 982.205657 439.201358 
L 983.198363 438.291046 
L 984.191069 444.291029 
L 985.183775 442.466049 
L 986.176481 446.527864 
L 987.169187 440.401608 
L 988.161893 440.950094 
L 989.154599 440.095809 
L 990.147305 441.012935 
L 991.140011 444.54734 
L 992.132717 438.601255 
L 993.125423 445.227547 
L 994.118128 443.323402 
L 995.110834 440.191123 
L 996.10354 439.852566 
L 997.096246 438.340634 
L 998.088952 444.82862 
L 999.081658 441.735107 
L 1000.074364 443.987185 
L 1001.06707 441.611622 
L 1002.059776 441.852905 
L 1003.052482 437.737264 
L 1004.045188 438.265278 
L 1006.0306 445.667329 
L 1007.023305 439.038107 
L 1008.016011 446.254719 
L 1009.008717 434.795483 
L 1010.001423 444.59217 
L 1010.994129 444.724193 
L 1011.986835 438.202849 
L 1012.979541 440.020746 
L 1013.972247 444.600764 
L 1014.964953 441.133312 
L 1015.957659 441.771131 
L 1016.950365 441.905792 
L 1017.943071 449.912217 
L 1018.935777 442.093502 
L 1019.928482 442.733259 
L 1020.921188 440.8572 
L 1021.913894 442.065066 
L 1022.9066 444.644107 
L 1023.899306 442.750933 
L 1024.892012 441.734506 
L 1025.884718 439.498565 
L 1026.877424 438.886283 
L 1027.87013 439.802893 
L 1028.862836 442.633727 
L 1029.855542 443.921449 
L 1030.848248 441.341776 
L 1032.833659 445.338215 
L 1033.826365 446.208213 
L 1034.819071 442.235503 
L 1035.811777 444.873001 
L 1036.804483 444.435016 
L 1037.797189 441.60993 
L 1038.789895 440.844575 
L 1039.782601 440.284794 
L 1040.775307 446.742939 
L 1041.768013 439.985301 
L 1042.760719 440.824623 
L 1043.753425 443.834123 
L 1044.746131 440.446145 
L 1045.738837 447.643345 
L 1046.731542 445.747332 
L 1047.724248 446.540485 
L 1048.716954 438.387511 
L 1049.70966 439.966574 
L 1050.702366 448.213175 
L 1051.695072 447.863945 
L 1052.687778 442.949573 
L 1053.680484 440.693173 
L 1054.67319 444.983166 
L 1055.665896 442.183172 
L 1056.658602 443.463326 
L 1057.651308 441.801754 
L 1058.644014 444.63682 
L 1059.636719 443.056424 
L 1060.629425 445.183293 
L 1061.622131 444.579148 
L 1062.614837 441.088227 
L 1063.607543 439.20362 
L 1064.600249 441.221992 
L 1065.592955 441.856522 
L 1066.585661 442.063901 
L 1067.578367 444.412517 
L 1068.571073 442.016961 
L 1069.563779 445.561262 
L 1070.556485 445.307846 
L 1071.549191 443.839835 
L 1072.541896 438.950624 
L 1074.527308 435.397885 
L 1075.520014 446.482536 
L 1076.51272 443.505761 
L 1077.505426 441.529139 
L 1078.498132 438.399548 
L 1079.490838 443.501393 
L 1080.483544 445.851171 
L 1081.47625 446.921091 
L 1082.468956 442.175007 
L 1083.461662 440.062952 
L 1084.454368 446.138538 
L 1085.447073 446.778897 
L 1086.439779 452.71736 
L 1087.432485 444.898372 
L 1088.425191 448.778409 
L 1089.417897 443.480437 
L 1090.410603 439.256281 
L 1091.403309 439.951855 
L 1092.396015 439.548289 
L 1093.388721 442.085118 
L 1094.381427 448.821702 
L 1095.374133 444.938779 
L 1096.366839 444.137027 
L 1097.359545 436.668672 
L 1098.35225 442.09893 
L 1099.344956 444.189518 
L 1100.337662 446.711471 
L 1101.330368 444.210529 
L 1102.323074 441.30193 
L 1103.31578 444.579079 
L 1104.308486 437.315493 
L 1105.301192 442.515326 
L 1106.293898 437.14032 
L 1107.286604 447.770318 
L 1108.27931 445.491387 
L 1109.272016 438.452527 
L 1110.264722 441.929633 
L 1111.257428 440.820588 
L 1112.250133 440.44324 
L 1113.242839 448.792977 
L 1114.235545 440.828956 
L 1115.228251 447.468989 
L 1116.220957 449.254573 
L 1117.213663 444.612382 
L 1118.206369 449.017644 
L 1119.199075 441.265376 
L 1120.191781 453.200159 
L 1121.184487 442.46098 
L 1122.177193 441.455063 
L 1123.169899 453.42663 
L 1124.162605 442.708504 
L 1125.15531 443.391055 
L 1126.148016 442.939689 
L 1127.140722 443.71325 
L 1128.133428 444.205743 
L 1129.126134 446.308126 
L 1130.11884 442.595131 
L 1131.111546 441.800512 
L 1132.104252 445.28777 
L 1133.096958 444.143783 
L 1134.089664 442.166601 
L 1135.08237 438.911987 
L 1136.075076 444.610874 
L 1137.067782 440.950463 
L 1138.060487 447.383689 
L 1139.053193 443.743217 
L 1140.045899 443.540696 
L 1141.038605 447.095298 
L 1142.031311 444.797878 
L 1143.024017 446.649284 
L 1144.016723 443.151453 
L 1146.002135 450.808461 
L 1146.994841 442.965197 
L 1147.987547 442.551061 
L 1148.980253 446.673382 
L 1149.972959 443.133577 
L 1150.965664 442.483388 
L 1151.95837 442.362701 
L 1152.951076 443.595015 
L 1153.943782 448.53785 
L 1154.936488 444.506846 
L 1155.929194 445.419571 
L 1156.9219 443.621488 
L 1157.914606 446.946227 
L 1158.907312 440.621926 
L 1159.900018 445.472127 
L 1160.892724 445.821001 
L 1161.88543 445.545729 
L 1162.878136 444.868209 
L 1163.870841 442.275203 
L 1164.863547 444.05146 
L 1165.856253 439.687841 
L 1166.848959 440.788656 
L 1167.841665 442.794476 
L 1168.834371 440.24939 
L 1169.827077 441.76507 
L 1170.819783 441.639497 
L 1172.805195 445.82939 
L 1173.797901 449.112315 
L 1174.790607 448.053397 
L 1175.783313 444.4832 
L 1176.776019 441.855811 
L 1177.768724 451.088682 
L 1178.76143 444.19131 
L 1179.754136 441.192192 
L 1180.746842 445.484995 
L 1181.739548 446.66016 
L 1182.732254 439.392713 
L 1183.72496 443.567434 
L 1184.717666 443.039877 
L 1185.710372 444.176227 
L 1186.703078 442.887061 
L 1187.695784 445.227596 
L 1188.68849 438.669159 
L 1189.681196 447.122351 
L 1190.673901 449.084154 
L 1191.666607 441.53288 
L 1192.659313 450.07179 
L 1193.652019 441.801334 
L 1194.644725 450.447076 
L 1195.637431 443.998554 
L 1196.630137 446.39936 
L 1197.622843 441.033747 
L 1198.615549 444.998995 
L 1199.608255 446.977545 
L 1200.600961 447.501418 
L 1201.593667 443.823503 
L 1203.579078 442.667328 
L 1204.571784 449.292347 
L 1205.56449 444.551232 
L 1206.557196 443.461837 
L 1207.549902 445.530446 
L 1208.542608 447.972063 
L 1209.535314 442.266303 
L 1210.52802 442.239453 
L 1211.520726 438.032639 
L 1212.513432 443.804222 
L 1213.506138 440.495657 
L 1214.498844 445.773573 
L 1215.49155 443.502473 
L 1216.484255 449.083219 
L 1217.476961 445.509425 
L 1218.469667 444.200209 
L 1219.462373 444.762147 
L 1220.455079 447.423377 
L 1221.447785 449.072892 
L 1222.440491 443.947838 
L 1223.433197 444.917489 
L 1224.425903 441.96553 
L 1225.418609 440.760596 
L 1226.411315 445.327185 
L 1227.404021 448.765938 
L 1228.396727 446.933482 
L 1229.389432 446.870784 
L 1230.382138 445.373033 
L 1231.374844 446.903855 
L 1232.36755 450.24545 
L 1233.360256 444.423579 
L 1234.352962 442.11837 
L 1235.345668 441.717541 
L 1236.338374 447.926179 
L 1237.33108 442.865711 
L 1238.323786 449.571378 
L 1239.316492 443.053979 
L 1240.309198 439.13587 
L 1241.301904 445.596719 
L 1242.29461 447.281264 
L 1243.287315 446.230084 
L 1244.280021 447.454487 
L 1245.272727 441.736673 
L 1245.272727 441.736673 
" clip-path="url(#pa2aa3fd33b)" style="fill: none; stroke: #1f77b4; stroke-width: 1.5; stroke-linecap: square"/>
   </g>
   <g id="patch_3">
    <path d="M 180 512.64 
L 180 69.12 
" style="fill: none; stroke: #000000; stroke-width: 0.8; stroke-linejoin: miter; stroke-linecap: square"/>
   </g>
   <g id="patch_4">
    <path d="M 1296 512.64 
L 1296 69.12 
" style="fill: none; stroke: #000000; stroke-width: 0.8; stroke-linejoin: miter; stroke-linecap: square"/>
   </g>
   <g id="patch_5">
    <path d="M 180 512.64 
L 1296 512.64 
" style="fill: none; stroke: #000000; stroke-width: 0.8; stroke-linejoin: miter; stroke-linecap: square"/>
   </g>
   <g id="patch_6">
    <path d="M 180 69.12 
L 1296 69.12 
" style="fill: none; stroke: #000000; stroke-width: 0.8; stroke-linejoin: miter; stroke-linecap: square"/>
   </g>
   <g id="text_12">
    <!-- source22-receiver23 -->
    <g transform="translate(532.175 60.80125) scale(0.4 -0.4)">
     <defs>
      <path id="DejaVuSans-73" d="M 2834 3397 
L 2834 2853 
Q 2591 2978 2328 3040 
Q 2066 3103 1784 3103 
Q 1356 3103 1142 2972 
Q 928 2841 928 2578 
Q 928 2378 1081 2264 
Q 1234 2150 1697 2047 
L 1894 2003 
Q 2506 1872 2764 1633 
Q 3022 1394 3022 966 
Q 3022 478 2636 193 
Q 2250 -91 1575 -91 
Q 1294 -91 989 -36 
Q 684 19 347 128 
L 347 722 
Q 666 556 975 473 
Q 1284 391 1588 391 
Q 1994 391 2212 530 
Q 2431 669 2431 922 
Q 2431 1156 2273 1281 
Q 2116 1406 1581 1522 
L 1381 1569 
Q 847 1681 609 1914 
Q 372 2147 372 2553 
Q 372 3047 722 3315 
Q 1072 3584 1716 3584 
Q 2034 3584 2315 3537 
Q 2597 3491 2834 3397 
z
" transform="scale(0.015625)"/>
      <path id="DejaVuSans-6f" d="M 1959 3097 
Q 1497 3097 1228 2736 
Q 959 2375 959 1747 
Q 959 1119 1226 758 
Q 1494 397 1959 397 
Q 2419 397 2687 759 
Q 2956 1122 2956 1747 
Q 2956 2369 2687 2733 
Q 2419 3097 1959 3097 
z
M 1959 3584 
Q 2709 3584 3137 3096 
Q 3566 2609 3566 1747 
Q 3566 888 3137 398 
Q 2709 -91 1959 -91 
Q 1206 -91 779 398 
Q 353 888 353 1747 
Q 353 2609 779 3096 
Q 1206 3584 1959 3584 
z
" transform="scale(0.015625)"/>
      <path id="DejaVuSans-75" d="M 544 1381 
L 544 3500 
L 1119 3500 
L 1119 1403 
Q 1119 906 1312 657 
Q 1506 409 1894 409 
Q 2359 409 2629 706 
Q 2900 1003 2900 1516 
L 2900 3500 
L 3475 3500 
L 3475 0 
L 2900 0 
L 2900 538 
Q 2691 219 2414 64 
Q 2138 -91 1772 -91 
Q 1169 -91 856 284 
Q 544 659 544 1381 
z
M 1991 3584 
L 1991 3584 
z
" transform="scale(0.015625)"/>
      <path id="DejaVuSans-72" d="M 2631 2963 
Q 2534 3019 2420 3045 
Q 2306 3072 2169 3072 
Q 1681 3072 1420 2755 
Q 1159 2438 1159 1844 
L 1159 0 
L 581 0 
L 581 3500 
L 1159 3500 
L 1159 2956 
Q 1341 3275 1631 3429 
Q 1922 3584 2338 3584 
Q 2397 3584 2469 3576 
Q 2541 3569 2628 3553 
L 2631 2963 
z
" transform="scale(0.015625)"/>
      <path id="DejaVuSans-63" d="M 3122 3366 
L 3122 2828 
Q 2878 2963 2633 3030 
Q 2388 3097 2138 3097 
Q 1578 3097 1268 2742 
Q 959 2388 959 1747 
Q 959 1106 1268 751 
Q 1578 397 2138 397 
Q 2388 397 2633 464 
Q 2878 531 3122 666 
L 3122 134 
Q 2881 22 2623 -34 
Q 2366 -91 2075 -91 
Q 1284 -91 818 406 
Q 353 903 353 1747 
Q 353 2603 823 3093 
Q 1294 3584 2113 3584 
Q 2378 3584 2631 3529 
Q 2884 3475 3122 3366 
z
" transform="scale(0.015625)"/>
      <path id="DejaVuSans-65" d="M 3597 1894 
L 3597 1613 
L 953 1613 
Q 991 1019 1311 708 
Q 1631 397 2203 397 
Q 2534 397 2845 478 
Q 3156 559 3463 722 
L 3463 178 
Q 3153 47 2828 -22 
Q 2503 -91 2169 -91 
Q 1331 -91 842 396 
Q 353 884 353 1716 
Q 353 2575 817 3079 
Q 1281 3584 2069 3584 
Q 2775 3584 3186 3129 
Q 3597 2675 3597 1894 
z
M 3022 2063 
Q 3016 2534 2758 2815 
Q 2500 3097 2075 3097 
Q 1594 3097 1305 2825 
Q 1016 2553 972 2059 
L 3022 2063 
z
" transform="scale(0.015625)"/>
      <path id="DejaVuSans-2d" d="M 313 2009 
L 1997 2009 
L 1997 1497 
L 313 1497 
L 313 2009 
z
" transform="scale(0.015625)"/>
      <path id="DejaVuSans-69" d="M 603 3500 
L 1178 3500 
L 1178 0 
L 603 0 
L 603 3500 
z
M 603 4863 
L 1178 4863 
L 1178 4134 
L 603 4134 
L 603 4863 
z
" transform="scale(0.015625)"/>
      <path id="DejaVuSans-76" d="M 191 3500 
L 800 3500 
L 1894 563 
L 2988 3500 
L 3597 3500 
L 2284 0 
L 1503 0 
L 191 3500 
z
" transform="scale(0.015625)"/>
      <path id="DejaVuSans-33" d="M 2597 2516 
Q 3050 2419 3304 2112 
Q 3559 1806 3559 1356 
Q 3559 666 3084 287 
Q 2609 -91 1734 -91 
Q 1441 -91 1130 -33 
Q 819 25 488 141 
L 488 750 
Q 750 597 1062 519 
Q 1375 441 1716 441 
Q 2309 441 2620 675 
Q 2931 909 2931 1356 
Q 2931 1769 2642 2001 
Q 2353 2234 1838 2234 
L 1294 2234 
L 1294 2753 
L 1863 2753 
Q 2328 2753 2575 2939 
Q 2822 3125 2822 3475 
Q 2822 3834 2567 4026 
Q 2313 4219 1838 4219 
Q 1578 4219 1281 4162 
Q 984 4106 628 3988 
L 628 4550 
Q 988 4650 1302 4700 
Q 1616 4750 1894 4750 
Q 2613 4750 3031 4423 
Q 3450 4097 3450 3541 
Q 3450 3153 3228 2886 
Q 3006 2619 2597 2516 
z
" transform="scale(0.015625)"/>
     </defs>
     <use xlink:href="#DejaVuSans-73"/>
     <use xlink:href="#DejaVuSans-6f" x="52.099609"/>
     <use xlink:href="#DejaVuSans-75" x="113.28125"/>
     <use xlink:href="#DejaVuSans-72" x="176.660156"/>
     <use xlink:href="#DejaVuSans-63" x="215.523438"/>
     <use xlink:href="#DejaVuSans-65" x="270.503906"/>
     <use xlink:href="#DejaVuSans-32" x="332.027344"/>
     <use xlink:href="#DejaVuSans-32" x="395.650391"/>
     <use xlink:href="#DejaVuSans-2d" x="459.273438"/>
     <use xlink:href="#DejaVuSans-72" x="495.357422"/>
     <use xlink:href="#DejaVuSans-65" x="534.220703"/>
     <use xlink:href="#DejaVuSans-63" x="595.744141"/>
     <use xlink:href="#DejaVuSans-65" x="650.724609"/>
     <use xlink:href="#DejaVuSans-69" x="712.248047"/>
     <use xlink:href="#DejaVuSans-76" x="740.03125"/>
     <use xlink:href="#DejaVuSans-65" x="799.210938"/>
     <use xlink:href="#DejaVuSans-72" x="860.734375"/>
     <use xlink:href="#DejaVuSans-32" x="901.847656"/>
     <use xlink:href="#DejaVuSans-33" x="965.470703"/>
    </g>
   </g>
  </g>
 </g>
 <defs>
  <clipPath id="pa2aa3fd33b">
   <rect x="180" y="69.12" width="1116" height="443.52"/>
  </clipPath>
 </defs>
</svg>
