<?xml version="1.0" encoding="utf-8" standalone="no"?>
<!DOCTYPE svg PUBLIC "-//W3C//DTD SVG 1.1//EN"
  "http://www.w3.org/Graphics/SVG/1.1/DTD/svg11.dtd">
<svg xmlns:xlink="http://www.w3.org/1999/xlink" width="1440pt" height="576pt" viewBox="0 0 1440 576" xmlns="http://www.w3.org/2000/svg" version="1.1">
 <metadata>
  <rdf:RDF xmlns:dc="http://purl.org/dc/elements/1.1/" xmlns:cc="http://creativecommons.org/ns#" xmlns:rdf="http://www.w3.org/1999/02/22-rdf-syntax-ns#">
   <cc:Work>
    <dc:type rdf:resource="http://purl.org/dc/dcmitype/StillImage"/>
    <dc:date>2024-05-22T04:50:23.032026</dc:date>
    <dc:format>image/svg+xml</dc:format>
    <dc:creator>
     <cc:Agent>
      <dc:title>Matplotlib v3.8.3, https://matplotlib.org/</dc:title>
     </cc:Agent>
    </dc:creator>
   </cc:Work>
  </rdf:RDF>
 </metadata>
 <defs>
  <style type="text/css">*{stroke-linejoin: round; stroke-linecap: butt}</style>
 </defs>
 <g id="figure_1">
  <g id="patch_1">
   <path d="M 0 576 
L 1440 576 
L 1440 0 
L 0 0 
z
" style="fill: #ffffff"/>
  </g>
  <g id="axes_1">
   <g id="patch_2">
    <path d="M 180 512.64 
L 1296 512.64 
L 1296 69.12 
L 180 69.12 
z
" style="fill: #ffffff"/>
   </g>
   <g id="matplotlib.axis_1">
    <g id="xtick_1">
     <g id="line2d_1">
      <defs>
       <path id="m58d9743b57" d="M 0 0 
L 0 3.5 
" style="stroke: #000000; stroke-width: 0.8"/>
      </defs>
      <g>
       <use xlink:href="#m58d9743b57" x="229.734567" y="512.64" style="stroke: #000000; stroke-width: 0.8"/>
      </g>
     </g>
     <g id="text_1">
      <!-- 0 -->
      <g transform="translate(226.553317 527.238438) scale(0.1 -0.1)">
       <defs>
        <path id="DejaVuSans-30" d="M 2034 4250 
Q 1547 4250 1301 3770 
Q 1056 3291 1056 2328 
Q 1056 1369 1301 889 
Q 1547 409 2034 409 
Q 2525 409 2770 889 
Q 3016 1369 3016 2328 
Q 3016 3291 2770 3770 
Q 2525 4250 2034 4250 
z
M 2034 4750 
Q 2819 4750 3233 4129 
Q 3647 3509 3647 2328 
Q 3647 1150 3233 529 
Q 2819 -91 2034 -91 
Q 1250 -91 836 529 
Q 422 1150 422 2328 
Q 422 3509 836 4129 
Q 1250 4750 2034 4750 
z
" transform="scale(0.015625)"/>
       </defs>
       <use xlink:href="#DejaVuSans-30"/>
      </g>
     </g>
    </g>
    <g id="xtick_2">
     <g id="line2d_2">
      <g>
       <use xlink:href="#m58d9743b57" x="433.04074" y="512.64" style="stroke: #000000; stroke-width: 0.8"/>
      </g>
     </g>
     <g id="text_2">
      <!-- 500 -->
      <g transform="translate(423.49699 527.238438) scale(0.1 -0.1)">
       <defs>
        <path id="DejaVuSans-35" d="M 691 4666 
L 3169 4666 
L 3169 4134 
L 1269 4134 
L 1269 2991 
Q 1406 3038 1543 3061 
Q 1681 3084 1819 3084 
Q 2600 3084 3056 2656 
Q 3513 2228 3513 1497 
Q 3513 744 3044 326 
Q 2575 -91 1722 -91 
Q 1428 -91 1123 -41 
Q 819 9 494 109 
L 494 744 
Q 775 591 1075 516 
Q 1375 441 1709 441 
Q 2250 441 2565 725 
Q 2881 1009 2881 1497 
Q 2881 1984 2565 2268 
Q 2250 2553 1709 2553 
Q 1456 2553 1204 2497 
Q 953 2441 691 2322 
L 691 4666 
z
" transform="scale(0.015625)"/>
       </defs>
       <use xlink:href="#DejaVuSans-35"/>
       <use xlink:href="#DejaVuSans-30" x="63.623047"/>
       <use xlink:href="#DejaVuSans-30" x="127.246094"/>
      </g>
     </g>
    </g>
    <g id="xtick_3">
     <g id="line2d_3">
      <g>
       <use xlink:href="#m58d9743b57" x="636.346913" y="512.64" style="stroke: #000000; stroke-width: 0.8"/>
      </g>
     </g>
     <g id="text_3">
      <!-- 1000 -->
      <g transform="translate(623.621913 527.238438) scale(0.1 -0.1)">
       <defs>
        <path id="DejaVuSans-31" d="M 794 531 
L 1825 531 
L 1825 4091 
L 703 3866 
L 703 4441 
L 1819 4666 
L 2450 4666 
L 2450 531 
L 3481 531 
L 3481 0 
L 794 0 
L 794 531 
z
" transform="scale(0.015625)"/>
       </defs>
       <use xlink:href="#DejaVuSans-31"/>
       <use xlink:href="#DejaVuSans-30" x="63.623047"/>
       <use xlink:href="#DejaVuSans-30" x="127.246094"/>
       <use xlink:href="#DejaVuSans-30" x="190.869141"/>
      </g>
     </g>
    </g>
    <g id="xtick_4">
     <g id="line2d_4">
      <g>
       <use xlink:href="#m58d9743b57" x="839.653087" y="512.64" style="stroke: #000000; stroke-width: 0.8"/>
      </g>
     </g>
     <g id="text_4">
      <!-- 1500 -->
      <g transform="translate(826.928087 527.238438) scale(0.1 -0.1)">
       <use xlink:href="#DejaVuSans-31"/>
       <use xlink:href="#DejaVuSans-35" x="63.623047"/>
       <use xlink:href="#DejaVuSans-30" x="127.246094"/>
       <use xlink:href="#DejaVuSans-30" x="190.869141"/>
      </g>
     </g>
    </g>
    <g id="xtick_5">
     <g id="line2d_5">
      <g>
       <use xlink:href="#m58d9743b57" x="1042.95926" y="512.64" style="stroke: #000000; stroke-width: 0.8"/>
      </g>
     </g>
     <g id="text_5">
      <!-- 2000 -->
      <g transform="translate(1030.23426 527.238438) scale(0.1 -0.1)">
       <defs>
        <path id="DejaVuSans-32" d="M 1228 531 
L 3431 531 
L 3431 0 
L 469 0 
L 469 531 
Q 828 903 1448 1529 
Q 2069 2156 2228 2338 
Q 2531 2678 2651 2914 
Q 2772 3150 2772 3378 
Q 2772 3750 2511 3984 
Q 2250 4219 1831 4219 
Q 1534 4219 1204 4116 
Q 875 4013 500 3803 
L 500 4441 
Q 881 4594 1212 4672 
Q 1544 4750 1819 4750 
Q 2544 4750 2975 4387 
Q 3406 4025 3406 3419 
Q 3406 3131 3298 2873 
Q 3191 2616 2906 2266 
Q 2828 2175 2409 1742 
Q 1991 1309 1228 531 
z
" transform="scale(0.015625)"/>
       </defs>
       <use xlink:href="#DejaVuSans-32"/>
       <use xlink:href="#DejaVuSans-30" x="63.623047"/>
       <use xlink:href="#DejaVuSans-30" x="127.246094"/>
       <use xlink:href="#DejaVuSans-30" x="190.869141"/>
      </g>
     </g>
    </g>
    <g id="xtick_6">
     <g id="line2d_6">
      <g>
       <use xlink:href="#m58d9743b57" x="1246.265433" y="512.64" style="stroke: #000000; stroke-width: 0.8"/>
      </g>
     </g>
     <g id="text_6">
      <!-- 2500 -->
      <g transform="translate(1233.540433 527.238438) scale(0.1 -0.1)">
       <use xlink:href="#DejaVuSans-32"/>
       <use xlink:href="#DejaVuSans-35" x="63.623047"/>
       <use xlink:href="#DejaVuSans-30" x="127.246094"/>
       <use xlink:href="#DejaVuSans-30" x="190.869141"/>
      </g>
     </g>
    </g>
   </g>
   <g id="matplotlib.axis_2">
    <g id="ytick_1">
     <g id="line2d_7">
      <defs>
       <path id="m8df0ad5ce6" d="M 0 0 
L -3.5 0 
" style="stroke: #000000; stroke-width: 0.8"/>
      </defs>
      <g>
       <use xlink:href="#m8df0ad5ce6" x="180" y="430.537104" style="stroke: #000000; stroke-width: 0.8"/>
      </g>
     </g>
     <g id="text_7">
      <!-- −4 -->
      <g transform="translate(158.257812 434.336323) scale(0.1 -0.1)">
       <defs>
        <path id="DejaVuSans-2212" d="M 678 2272 
L 4684 2272 
L 4684 1741 
L 678 1741 
L 678 2272 
z
" transform="scale(0.015625)"/>
        <path id="DejaVuSans-34" d="M 2419 4116 
L 825 1625 
L 2419 1625 
L 2419 4116 
z
M 2253 4666 
L 3047 4666 
L 3047 1625 
L 3713 1625 
L 3713 1100 
L 3047 1100 
L 3047 0 
L 2419 0 
L 2419 1100 
L 313 1100 
L 313 1709 
L 2253 4666 
z
" transform="scale(0.015625)"/>
       </defs>
       <use xlink:href="#DejaVuSans-2212"/>
       <use xlink:href="#DejaVuSans-34" x="83.789062"/>
      </g>
     </g>
    </g>
    <g id="ytick_2">
     <g id="line2d_8">
      <g>
       <use xlink:href="#m8df0ad5ce6" x="180" y="347.003962" style="stroke: #000000; stroke-width: 0.8"/>
      </g>
     </g>
     <g id="text_8">
      <!-- −2 -->
      <g transform="translate(158.257812 350.80318) scale(0.1 -0.1)">
       <use xlink:href="#DejaVuSans-2212"/>
       <use xlink:href="#DejaVuSans-32" x="83.789062"/>
      </g>
     </g>
    </g>
    <g id="ytick_3">
     <g id="line2d_9">
      <g>
       <use xlink:href="#m8df0ad5ce6" x="180" y="263.470819" style="stroke: #000000; stroke-width: 0.8"/>
      </g>
     </g>
     <g id="text_9">
      <!-- 0 -->
      <g transform="translate(166.6375 267.270038) scale(0.1 -0.1)">
       <use xlink:href="#DejaVuSans-30"/>
      </g>
     </g>
    </g>
    <g id="ytick_4">
     <g id="line2d_10">
      <g>
       <use xlink:href="#m8df0ad5ce6" x="180" y="179.937677" style="stroke: #000000; stroke-width: 0.8"/>
      </g>
     </g>
     <g id="text_10">
      <!-- 2 -->
      <g transform="translate(166.6375 183.736896) scale(0.1 -0.1)">
       <use xlink:href="#DejaVuSans-32"/>
      </g>
     </g>
    </g>
    <g id="ytick_5">
     <g id="line2d_11">
      <g>
       <use xlink:href="#m8df0ad5ce6" x="180" y="96.404535" style="stroke: #000000; stroke-width: 0.8"/>
      </g>
     </g>
     <g id="text_11">
      <!-- 4 -->
      <g transform="translate(166.6375 100.203754) scale(0.1 -0.1)">
       <use xlink:href="#DejaVuSans-34"/>
      </g>
     </g>
    </g>
   </g>
   <g id="line2d_12">
    <path d="M 230.727273 199.376025 
L 232.712685 198.570633 
L 235.690802 196.291115 
L 238.66892 193.801212 
L 242.639744 190.876838 
L 243.63245 190.527409 
L 244.625156 190.730181 
L 245.617862 191.696485 
L 246.610568 192.430125 
L 247.603273 188.938256 
L 248.595979 177.259727 
L 249.588685 162.124936 
L 250.581391 149.7018 
L 251.574097 141.560967 
L 252.566803 136.851877 
L 253.559509 134.285484 
L 254.552215 132.908155 
L 255.544921 132.158834 
L 256.537627 131.752942 
L 260.50845 130.796429 
L 261.501156 130.362425 
L 262.493862 129.788427 
L 264.479274 128.196302 
L 266.464686 126.188705 
L 269.442804 123.060631 
L 270.43551 122.192125 
L 271.428216 121.518062 
L 272.420922 121.064816 
L 273.413627 120.88448 
L 274.406333 121.041477 
L 275.399039 121.591416 
L 276.391745 122.528894 
L 277.384451 123.628596 
L 278.377157 124.385263 
L 279.369863 124.415107 
L 280.362569 123.614975 
L 281.355275 121.817187 
L 282.347981 118.770745 
L 283.340687 114.568062 
L 286.318804 99.564564 
L 287.31151 95.37216 
L 288.304216 92.187491 
L 289.296922 90.164277 
L 290.289628 89.28 
L 291.282334 89.429857 
L 292.27504 90.45303 
L 293.267746 92.161132 
L 294.260452 94.371716 
L 296.245864 99.728654 
L 298.231276 105.942158 
L 300.216687 112.912343 
L 303.194805 124.338756 
L 306.172923 135.584243 
L 307.165629 138.855562 
L 308.158335 141.742024 
L 309.151041 144.191604 
L 310.143747 146.225192 
L 311.136453 147.901437 
L 313.121864 150.628238 
L 315.107276 153.39771 
L 316.099982 155.091906 
L 317.092688 157.095204 
L 318.085394 159.482355 
L 319.0781 162.299531 
L 320.070806 165.569835 
L 322.056218 173.412826 
L 324.04163 181.892032 
L 325.034336 185.174254 
L 326.027041 186.801665 
L 327.019747 186.301172 
L 328.012453 183.855382 
L 329.005159 180.145872 
L 330.990571 171.773755 
L 332.975983 164.586686 
L 333.968689 161.690337 
L 334.961395 159.275041 
L 335.954101 157.35582 
L 336.946807 155.876378 
L 337.939513 154.817479 
L 338.932218 154.163981 
L 339.924924 153.863821 
L 340.91763 153.900331 
L 341.910336 154.25047 
L 342.903042 154.878747 
L 343.895748 155.759521 
L 345.88116 157.971091 
L 347.866572 160.466942 
L 348.859278 161.518329 
L 349.851984 162.399619 
L 350.84469 163.089101 
L 351.837395 163.206983 
L 352.830101 163.199606 
L 353.822807 162.883799 
L 354.815513 162.280179 
L 358.786337 159.333673 
L 359.779043 158.84781 
L 360.771749 158.614799 
L 361.764455 158.627852 
L 362.757161 158.912775 
L 363.749867 159.530847 
L 364.742572 160.502083 
L 365.735278 161.829573 
L 366.727984 163.553194 
L 367.72069 165.698513 
L 368.713396 168.295325 
L 369.706102 171.444094 
L 370.698808 175.159368 
L 371.691514 179.532322 
L 372.68422 184.652933 
L 373.676926 190.556745 
L 374.669632 197.292022 
L 376.655044 212.419485 
L 377.64775 218.625489 
L 378.640455 221.041374 
L 379.633161 218.43794 
L 380.625867 212.764186 
L 382.611279 200.333298 
L 383.603985 195.107427 
L 384.596691 190.714872 
L 385.589397 187.030875 
L 386.582103 184.012231 
L 387.574809 181.638602 
L 388.567515 179.763721 
L 389.560221 178.3214 
L 390.552927 177.250016 
L 391.545632 176.57784 
L 392.538338 176.180853 
L 393.531044 176.04474 
L 394.52375 176.109634 
L 395.516456 176.34428 
L 397.501868 177.171036 
L 401.472692 179.143865 
L 403.458104 179.924225 
L 408.421633 181.754323 
L 409.414339 182.270711 
L 410.407045 182.931725 
L 411.399751 183.738072 
L 412.392457 184.704337 
L 413.385163 185.836029 
L 414.377869 187.187005 
L 416.363281 190.521233 
L 418.348692 194.782979 
L 420.334104 199.980298 
L 422.319516 206.045139 
L 425.297634 216.316376 
L 427.283046 223.279513 
L 429.268458 229.303096 
L 430.261163 231.575296 
L 431.253869 233.232941 
L 432.246575 234.029539 
L 433.239281 234.181738 
L 434.231987 233.462123 
L 435.224693 232.113429 
L 436.217399 230.137834 
L 438.202811 225.331429 
L 445.151752 206.671438 
L 447.137164 202.521933 
L 449.122576 199.28773 
L 450.115282 198.033018 
L 451.107988 196.982894 
L 452.100694 196.191412 
L 453.0934 195.622253 
L 454.086106 195.284984 
L 455.078812 195.209037 
L 456.071518 195.370905 
L 457.064223 195.689085 
L 458.056929 196.318898 
L 459.049635 197.167932 
L 460.042341 198.201367 
L 461.035047 199.510714 
L 462.027753 201.0344 
L 464.013165 204.780763 
L 465.998577 209.524362 
L 467.983989 215.312538 
L 469.9694 222.415375 
L 470.962106 226.555584 
L 472.947518 236.614253 
L 473.940224 242.698259 
L 474.93293 249.566272 
L 475.925636 257.840122 
L 477.911048 279.243677 
L 478.903754 289.840578 
L 479.89646 291.574688 
L 480.889166 282.464302 
L 481.881872 270.540324 
L 482.874577 260.103402 
L 483.867283 251.169395 
L 484.859989 243.717114 
L 485.852695 237.454265 
L 486.845401 232.167215 
L 487.838107 227.710549 
L 488.830813 223.81571 
L 489.823519 220.548107 
L 490.816225 217.742557 
L 491.808931 215.50451 
L 492.801637 213.583602 
L 493.794343 212.143392 
L 494.787049 211.059664 
L 495.779754 210.341664 
L 496.77246 210.011339 
L 497.765166 210.061995 
L 498.757872 210.426775 
L 499.750578 211.11719 
L 500.743284 212.228713 
L 501.73599 213.707672 
L 502.728696 215.518178 
L 503.721402 217.745203 
L 505.706814 223.397384 
L 507.692226 230.837723 
L 509.677637 239.834315 
L 511.663049 249.34906 
L 512.655755 253.590897 
L 513.648461 256.566706 
L 514.641167 258.179424 
L 515.633873 257.863917 
L 516.626579 256.001854 
L 518.611991 250.772907 
L 520.597403 245.466147 
L 522.582814 241.41708 
L 523.57552 239.968791 
L 524.568226 238.731307 
L 525.560932 237.883758 
L 527.546344 236.551222 
L 531.517168 235.561755 
L 532.509874 235.405863 
L 536.480697 235.625094 
L 537.473403 236.000274 
L 538.466109 236.552023 
L 539.458815 237.44011 
L 540.451521 238.591223 
L 541.444227 240.236372 
L 542.436933 242.342918 
L 543.429639 244.968539 
L 544.422345 248.366846 
L 545.415051 252.636148 
L 546.407757 257.984149 
L 547.400463 264.571604 
L 548.393168 272.980103 
L 550.37858 295.422838 
L 551.371286 302.321022 
L 552.363992 295.71442 
L 554.349404 270.191738 
L 555.34211 260.163257 
L 556.334816 251.729137 
L 557.327522 244.712933 
L 558.320228 238.93014 
L 559.312934 234.097119 
L 560.30564 229.998819 
L 561.298345 226.603016 
L 562.291051 223.692315 
L 563.283757 221.309611 
L 564.276463 219.396566 
L 565.269169 217.890042 
L 566.261875 216.827762 
L 567.254581 216.100093 
L 568.247287 215.767936 
L 569.239993 215.799094 
L 570.232699 216.09527 
L 571.225405 216.815288 
L 572.218111 217.844519 
L 573.210817 219.199448 
L 574.203523 220.947588 
L 575.196228 222.990941 
L 576.188934 225.345399 
L 577.18164 228.13036 
L 578.174346 231.379164 
L 580.159758 239.029715 
L 582.14517 248.615794 
L 584.130582 260.571594 
L 586.115994 275.34321 
L 588.101405 294.24108 
L 589.094111 305.343154 
L 591.079523 330.149711 
L 592.072229 336.825888 
L 593.064935 335.085674 
L 596.043053 309.977155 
L 598.028465 295.764107 
L 600.013877 283.520068 
L 601.999288 272.894535 
L 603.9847 263.858316 
L 605.970112 256.665179 
L 606.962818 253.539155 
L 608.94823 248.634093 
L 609.940936 246.721484 
L 610.933642 245.127591 
L 611.926348 243.989852 
L 612.919054 243.107648 
L 613.911759 242.584242 
L 614.904465 242.311275 
L 615.897171 242.524698 
L 616.889877 242.931561 
L 617.882583 243.718645 
L 618.875289 244.889413 
L 619.867995 246.400125 
L 620.860701 248.241957 
L 621.853407 250.489031 
L 622.846113 253.09097 
L 623.838819 256.126924 
L 625.824231 263.568066 
L 627.809642 273.108746 
L 628.802348 278.85624 
L 629.795054 285.278428 
L 630.78776 292.517072 
L 631.780466 300.717176 
L 632.773172 309.85205 
L 635.75129 342.866784 
L 636.743996 349.423398 
L 637.736702 349.790311 
L 640.714819 333.628735 
L 641.707525 329.451856 
L 643.692937 323.37678 
L 645.678349 318.603476 
L 647.663761 312.851053 
L 649.649173 307.026266 
L 650.641879 303.815647 
L 653.619996 295.695906 
L 654.612702 293.529918 
L 655.605408 291.675818 
L 656.598114 290.253946 
L 657.59082 289.192355 
L 658.583526 288.396701 
L 660.568938 288.064536 
L 661.561644 288.498148 
L 662.55435 289.38276 
L 663.547056 290.519661 
L 664.539762 292.036937 
L 665.532468 293.790492 
L 666.525173 295.869353 
L 668.510585 300.895768 
L 670.495997 305.375989 
L 671.488703 307.066819 
L 672.481409 308.106434 
L 673.474115 308.104376 
L 674.466821 307.662601 
L 675.459527 306.434475 
L 679.43035 298.714295 
L 680.423056 297.14105 
L 681.415762 295.949903 
L 682.408468 295.016555 
L 683.401174 294.364084 
L 684.39388 294.133648 
L 685.386586 294.229572 
L 686.379292 294.684702 
L 687.371998 295.686733 
L 688.364704 296.853997 
L 690.350116 300.729235 
L 691.342822 303.437133 
L 693.328233 310.278813 
L 695.313645 319.410372 
L 696.306351 324.918145 
L 699.284469 344.035005 
L 700.277175 348.21303 
L 701.269881 349.920135 
L 702.262587 347.484844 
L 703.255293 342.735002 
L 705.240705 331.99826 
L 707.226116 323.157467 
L 709.211528 317.159254 
L 710.204234 315.111394 
L 711.19694 313.406627 
L 712.189646 312.608331 
L 713.182352 312.279715 
L 714.175058 312.562586 
L 715.167764 313.056008 
L 716.16047 314.546673 
L 717.153176 316.375524 
L 718.145882 319.022567 
L 719.138587 322.508961 
L 720.131293 326.587904 
L 721.123999 332.102284 
L 722.116705 338.848008 
L 723.109411 348.072604 
L 725.094823 370.366471 
L 726.087529 376.489336 
L 727.080235 368.305293 
L 729.065647 343.690932 
L 730.058353 333.789041 
L 731.051059 326.072877 
L 732.043764 319.620806 
L 733.03647 314.352909 
L 734.029176 309.81469 
L 735.021882 306.15034 
L 736.014588 303.13109 
L 737.007294 300.941965 
L 738 299.199427 
L 738.992706 297.929175 
L 739.985412 297.327032 
L 740.978118 297.03698 
L 741.970824 297.268941 
L 742.96353 297.976516 
L 743.956236 299.330052 
L 744.948941 301.310389 
L 745.941647 303.669595 
L 746.934353 306.805917 
L 747.927059 310.647574 
L 748.919765 315.015539 
L 750.905177 326.135292 
L 751.897883 332.617859 
L 752.890589 338.149801 
L 753.883295 341.879107 
L 754.876001 340.935621 
L 755.868707 336.714673 
L 758.846824 318.70379 
L 759.83953 313.460025 
L 760.832236 308.980886 
L 761.824942 305.688868 
L 762.817648 302.85576 
L 763.810354 300.639074 
L 764.80306 298.938973 
L 765.795766 297.870759 
L 766.788472 297.219261 
L 767.781178 297.157288 
L 768.773884 297.459281 
L 769.76659 298.359885 
L 770.759295 299.779708 
L 771.752001 301.61078 
L 772.744707 303.905034 
L 773.737413 306.630861 
L 775.722825 313.255998 
L 777.708237 320.640456 
L 778.700943 323.722377 
L 779.693649 326.264296 
L 780.686355 327.328401 
L 781.679061 326.569591 
L 782.671767 324.697113 
L 786.64259 313.520561 
L 788.628002 309.716115 
L 789.620708 308.620507 
L 790.613414 307.950604 
L 791.60612 307.865632 
L 792.598826 308.453291 
L 793.591532 309.410716 
L 794.584238 311.072333 
L 795.576944 313.272777 
L 796.56965 316.120061 
L 797.562355 319.840319 
L 799.547767 328.745937 
L 801.533179 338.367308 
L 802.525885 341.608614 
L 803.518591 341.412798 
L 804.511297 338.437126 
L 808.482121 317.237531 
L 809.474827 312.865004 
L 810.467532 309.095812 
L 811.460238 305.976214 
L 812.452944 303.412897 
L 814.438356 299.981658 
L 815.431062 299.04814 
L 816.423768 298.639508 
L 817.416474 298.614251 
L 818.40918 299.072298 
L 819.401886 299.963509 
L 820.394592 301.426515 
L 821.387298 303.392654 
L 822.380004 305.902569 
L 823.372709 309.010529 
L 824.365415 312.814014 
L 825.358121 317.264932 
L 827.343533 328.174555 
L 829.328945 340.941954 
L 830.321651 345.370367 
L 831.314357 346.625512 
L 832.307063 343.84427 
L 834.292475 332.627757 
L 835.285181 326.77243 
L 836.277886 321.711206 
L 838.263298 313.664573 
L 839.256004 310.680436 
L 840.24871 308.276106 
L 841.241416 306.453668 
L 842.234122 305.165671 
L 843.226828 304.232881 
L 844.219534 303.801058 
L 845.21224 303.74337 
L 846.204946 304.136142 
L 847.197652 304.942016 
L 848.190358 306.132686 
L 849.183064 307.855469 
L 851.168475 312.359866 
L 853.153887 318.168144 
L 855.139299 325.428693 
L 858.117417 336.357438 
L 859.110123 338.737441 
L 860.102829 339.677389 
L 861.095535 339.973554 
L 862.088241 338.822558 
L 863.080946 337.399049 
L 865.066358 333.389187 
L 866.059064 331.303006 
L 868.044476 327.977382 
L 869.037182 326.51071 
L 871.022594 324.762489 
L 873.008006 323.901516 
L 874.993418 322.889405 
L 875.986123 322.541272 
L 876.978829 322.060557 
L 877.971535 321.445272 
L 878.964241 321.010875 
L 881.942359 318.724269 
L 882.935065 317.941134 
L 884.920477 316.801272 
L 886.905889 316.058249 
L 888.8913 316.713572 
L 889.884006 317.407745 
L 890.876712 318.67884 
L 891.869418 320.184762 
L 892.862124 322.405678 
L 893.85483 325.007209 
L 895.840242 332.071368 
L 896.832948 336.731332 
L 897.825654 341.966102 
L 899.811066 354.787267 
L 900.803772 359.470567 
L 901.796477 361.572107 
L 902.789183 358.350047 
L 904.774595 345.086121 
L 905.767301 337.968284 
L 907.752713 326.077892 
L 908.745419 321.483229 
L 909.738125 317.502411 
L 910.730831 314.308668 
L 911.723537 311.608377 
L 912.716243 309.256698 
L 913.708949 307.682643 
L 914.701655 306.553346 
L 915.69436 305.704692 
L 916.687066 305.58274 
L 917.679772 305.844376 
L 918.672478 306.520556 
L 919.665184 307.541515 
L 920.65789 309.422106 
L 921.650596 311.729663 
L 922.643302 314.567144 
L 923.636008 318.285868 
L 924.628714 322.762016 
L 925.62142 328.151266 
L 926.614126 335.239836 
L 927.606832 343.98834 
L 928.599537 355.639476 
L 929.592243 370.60696 
L 930.584949 389.546776 
L 931.577655 396.375957 
L 932.570361 377.798048 
L 933.563067 361.556398 
L 934.555773 349.153713 
L 935.548479 339.724239 
L 936.541185 332.417882 
L 937.533891 326.59458 
L 938.526597 321.842043 
L 939.519303 318.144933 
L 940.512009 315.25211 
L 941.504714 312.946109 
L 942.49742 311.31797 
L 943.490126 310.218155 
L 944.482832 309.648079 
L 945.475538 309.553433 
L 946.468244 310.06581 
L 947.46095 310.919345 
L 948.453656 312.579024 
L 949.446362 314.594263 
L 950.439068 317.204969 
L 951.431774 320.332425 
L 952.42448 324.46419 
L 954.409891 335.264668 
L 955.402597 341.98742 
L 956.395303 350.129199 
L 958.380715 369.190619 
L 959.373421 374.963711 
L 960.366127 373.47879 
L 961.358833 365.942592 
L 963.344245 349.466097 
L 964.336951 342.981069 
L 965.329657 337.501623 
L 966.322363 333.218455 
L 967.315068 329.816883 
L 968.307774 327.087733 
L 969.30048 325.208246 
L 970.293186 323.863211 
L 971.285892 323.146338 
L 972.278598 322.911872 
L 973.271304 323.217873 
L 974.26401 323.896569 
L 975.256716 325.114907 
L 976.249422 326.825844 
L 977.242128 328.902219 
L 978.234834 331.276103 
L 980.220246 337.213681 
L 981.212951 340.556047 
L 982.205657 343.243119 
L 983.198363 345.555666 
L 984.191069 347.076446 
L 985.183775 347.710529 
L 986.176481 346.656139 
L 987.169187 345.3995 
L 989.154599 340.456802 
L 991.140011 336.027724 
L 992.132717 334.334788 
L 993.125423 333.192291 
L 994.118128 332.367814 
L 995.110834 331.85748 
L 996.10354 331.892001 
L 997.096246 332.608561 
L 998.088952 333.702811 
L 999.081658 335.326827 
L 1000.074364 337.442073 
L 1002.059776 343.847317 
L 1003.052482 347.55406 
L 1006.0306 360.669332 
L 1007.023305 363.136081 
L 1008.016011 363.970889 
L 1009.008717 361.794788 
L 1010.001423 358.35415 
L 1013.972247 339.813967 
L 1014.964953 335.959449 
L 1015.957659 333.152396 
L 1016.950365 330.941021 
L 1017.943071 329.05165 
L 1018.935777 327.693795 
L 1019.928482 326.817157 
L 1020.921188 326.418542 
L 1021.913894 326.418448 
L 1022.9066 327.106391 
L 1023.899306 328.197009 
L 1024.892012 329.805029 
L 1025.884718 331.892146 
L 1026.877424 334.767871 
L 1027.87013 338.126003 
L 1028.862836 342.449867 
L 1029.855542 347.580473 
L 1030.848248 354.018556 
L 1031.840954 361.712888 
L 1034.819071 387.576919 
L 1035.811777 388.253974 
L 1036.804483 382.439982 
L 1037.797189 373.001411 
L 1039.782601 357.427575 
L 1040.775307 351.420894 
L 1041.768013 346.218383 
L 1042.760719 342.162272 
L 1043.753425 338.908623 
L 1044.746131 336.39728 
L 1045.738837 334.679422 
L 1046.731542 333.316843 
L 1047.724248 332.517783 
L 1048.716954 332.217834 
L 1049.70966 332.539931 
L 1050.702366 333.000286 
L 1051.695072 333.946459 
L 1052.687778 335.453598 
L 1053.680484 337.500249 
L 1054.67319 339.841587 
L 1055.665896 342.688454 
L 1057.651308 349.617082 
L 1060.629425 361.278714 
L 1061.622131 365.292695 
L 1062.614837 368.167207 
L 1063.607543 369.799584 
L 1064.600249 369.79995 
L 1065.592955 368.656604 
L 1066.585661 367.212538 
L 1068.571073 362.467564 
L 1069.563779 360.36929 
L 1070.556485 358.535584 
L 1071.549191 357.118274 
L 1073.534602 356.178158 
L 1074.527308 356.178238 
L 1075.520014 356.672863 
L 1076.51272 356.676921 
L 1077.505426 356.909346 
L 1079.490838 358.207314 
L 1080.483544 358.29316 
L 1081.47625 357.650806 
L 1082.468956 356.754963 
L 1083.461662 355.309743 
L 1084.454368 354.093833 
L 1085.447073 352.432844 
L 1086.439779 350.229558 
L 1090.410603 344.860456 
L 1092.396015 343.534198 
L 1093.388721 343.305815 
L 1094.381427 343.70702 
L 1096.366839 346.082128 
L 1097.359545 348.160189 
L 1098.35225 350.697213 
L 1099.344956 354.597675 
L 1100.337662 359.065255 
L 1101.330368 364.865955 
L 1102.323074 372.374996 
L 1103.31578 382.980784 
L 1104.308486 397.474674 
L 1105.301192 422.117156 
L 1106.293898 475.609113 
L 1107.286604 433.57338 
L 1108.27931 403.230743 
L 1109.272016 386.194353 
L 1110.264722 373.130221 
L 1111.257428 363.723599 
L 1112.250133 356.242578 
L 1113.242839 350.599308 
L 1114.235545 345.896976 
L 1116.220957 338.68074 
L 1117.213663 336.315105 
L 1118.206369 334.332205 
L 1119.199075 332.931988 
L 1120.191781 332.24753 
L 1121.184487 331.983025 
L 1122.177193 332.344932 
L 1123.169899 332.937316 
L 1124.162605 334.096678 
L 1125.15531 335.827251 
L 1126.148016 338.032371 
L 1127.140722 340.83859 
L 1128.133428 344.223388 
L 1129.126134 348.619971 
L 1131.111546 360.102472 
L 1133.096958 375.79638 
L 1134.089664 383.688739 
L 1135.08237 388.271656 
L 1136.075076 385.881043 
L 1140.045899 357.256962 
L 1142.031311 346.791662 
L 1144.016723 340.298678 
L 1145.009429 337.799718 
L 1146.002135 336.116918 
L 1146.994841 334.985842 
L 1147.987547 334.119873 
L 1148.980253 334.058893 
L 1150.965664 335.082141 
L 1151.95837 336.506548 
L 1152.951076 338.233047 
L 1153.943782 340.320066 
L 1154.936488 342.781306 
L 1155.929194 346.324628 
L 1156.9219 350.489933 
L 1157.914606 355.312904 
L 1158.907312 360.972427 
L 1159.900018 367.836547 
L 1160.892724 375.602758 
L 1161.88543 384.337632 
L 1162.878136 390.893302 
L 1163.870841 394.708097 
L 1164.863547 392.400769 
L 1165.856253 386.554625 
L 1166.848959 379.616852 
L 1168.834371 367.416327 
L 1170.819783 359.254379 
L 1171.812489 357.019984 
L 1172.805195 354.439673 
L 1173.797901 352.804404 
L 1175.783313 351.972361 
L 1176.776019 352.151685 
L 1177.768724 352.935518 
L 1178.76143 354.045816 
L 1179.754136 355.952758 
L 1180.746842 358.658147 
L 1181.739548 361.862878 
L 1182.732254 365.833365 
L 1183.72496 370.479685 
L 1184.717666 376.586711 
L 1185.710372 383.493346 
L 1186.703078 392.05818 
L 1187.695784 403.370032 
L 1188.68849 419.608204 
L 1189.681196 446.310378 
L 1190.673901 492.48 
L 1191.666607 465.94414 
L 1192.659313 433.692281 
L 1193.652019 417.811291 
L 1194.644725 406.290993 
L 1195.637431 398.1732 
L 1196.630137 394.548936 
L 1197.622843 391.630017 
L 1198.615549 389.950184 
L 1199.608255 388.570132 
L 1200.600961 388.396681 
L 1201.593667 388.915334 
L 1202.586373 389.801467 
L 1203.579078 392.488907 
L 1205.56449 401.363903 
L 1206.557196 408.852203 
L 1207.549902 418.706019 
L 1209.535314 441.983377 
L 1210.52802 450.065503 
L 1211.520726 439.237806 
L 1212.513432 425.642458 
L 1214.498844 403.653285 
L 1215.49155 397.02259 
L 1217.476961 386.945919 
L 1218.469667 383.527548 
L 1219.462373 381.887413 
L 1220.455079 379.70353 
L 1221.447785 378.851658 
L 1222.440491 378.316086 
L 1223.433197 378.550368 
L 1225.418609 381.250649 
L 1226.411315 383.651788 
L 1227.404021 387.138303 
L 1228.396727 389.978862 
L 1229.389432 394.486919 
L 1230.382138 399.699909 
L 1231.374844 403.957493 
L 1232.36755 406.888956 
L 1233.360256 407.409203 
L 1234.352962 407.353233 
L 1236.338374 398.806694 
L 1237.33108 392.953245 
L 1238.323786 388.640803 
L 1239.316492 383.679898 
L 1241.301904 376.145823 
L 1242.29461 374.194287 
L 1244.280021 370.996565 
L 1245.272727 370.232347 
L 1245.272727 370.232347 
" clip-path="url(#p0173bf7893)" style="fill: none; stroke: #1f77b4; stroke-width: 1.5; stroke-linecap: square"/>
   </g>
   <g id="patch_3">
    <path d="M 180 512.64 
L 180 69.12 
" style="fill: none; stroke: #000000; stroke-width: 0.8; stroke-linejoin: miter; stroke-linecap: square"/>
   </g>
   <g id="patch_4">
    <path d="M 1296 512.64 
L 1296 69.12 
" style="fill: none; stroke: #000000; stroke-width: 0.8; stroke-linejoin: miter; stroke-linecap: square"/>
   </g>
   <g id="patch_5">
    <path d="M 180 512.64 
L 1296 512.64 
" style="fill: none; stroke: #000000; stroke-width: 0.8; stroke-linejoin: miter; stroke-linecap: square"/>
   </g>
   <g id="patch_6">
    <path d="M 180 69.12 
L 1296 69.12 
" style="fill: none; stroke: #000000; stroke-width: 0.8; stroke-linejoin: miter; stroke-linecap: square"/>
   </g>
   <g id="text_12">
    <!-- source22-receiver22 -->
    <g transform="translate(532.175 60.80125) scale(0.4 -0.4)">
     <defs>
      <path id="DejaVuSans-73" d="M 2834 3397 
L 2834 2853 
Q 2591 2978 2328 3040 
Q 2066 3103 1784 3103 
Q 1356 3103 1142 2972 
Q 928 2841 928 2578 
Q 928 2378 1081 2264 
Q 1234 2150 1697 2047 
L 1894 2003 
Q 2506 1872 2764 1633 
Q 3022 1394 3022 966 
Q 3022 478 2636 193 
Q 2250 -91 1575 -91 
Q 1294 -91 989 -36 
Q 684 19 347 128 
L 347 722 
Q 666 556 975 473 
Q 1284 391 1588 391 
Q 1994 391 2212 530 
Q 2431 669 2431 922 
Q 2431 1156 2273 1281 
Q 2116 1406 1581 1522 
L 1381 1569 
Q 847 1681 609 1914 
Q 372 2147 372 2553 
Q 372 3047 722 3315 
Q 1072 3584 1716 3584 
Q 2034 3584 2315 3537 
Q 2597 3491 2834 3397 
z
" transform="scale(0.015625)"/>
      <path id="DejaVuSans-6f" d="M 1959 3097 
Q 1497 3097 1228 2736 
Q 959 2375 959 1747 
Q 959 1119 1226 758 
Q 1494 397 1959 397 
Q 2419 397 2687 759 
Q 2956 1122 2956 1747 
Q 2956 2369 2687 2733 
Q 2419 3097 1959 3097 
z
M 1959 3584 
Q 2709 3584 3137 3096 
Q 3566 2609 3566 1747 
Q 3566 888 3137 398 
Q 2709 -91 1959 -91 
Q 1206 -91 779 398 
Q 353 888 353 1747 
Q 353 2609 779 3096 
Q 1206 3584 1959 3584 
z
" transform="scale(0.015625)"/>
      <path id="DejaVuSans-75" d="M 544 1381 
L 544 3500 
L 1119 3500 
L 1119 1403 
Q 1119 906 1312 657 
Q 1506 409 1894 409 
Q 2359 409 2629 706 
Q 2900 1003 2900 1516 
L 2900 3500 
L 3475 3500 
L 3475 0 
L 2900 0 
L 2900 538 
Q 2691 219 2414 64 
Q 2138 -91 1772 -91 
Q 1169 -91 856 284 
Q 544 659 544 1381 
z
M 1991 3584 
L 1991 3584 
z
" transform="scale(0.015625)"/>
      <path id="DejaVuSans-72" d="M 2631 2963 
Q 2534 3019 2420 3045 
Q 2306 3072 2169 3072 
Q 1681 3072 1420 2755 
Q 1159 2438 1159 1844 
L 1159 0 
L 581 0 
L 581 3500 
L 1159 3500 
L 1159 2956 
Q 1341 3275 1631 3429 
Q 1922 3584 2338 3584 
Q 2397 3584 2469 3576 
Q 2541 3569 2628 3553 
L 2631 2963 
z
" transform="scale(0.015625)"/>
      <path id="DejaVuSans-63" d="M 3122 3366 
L 3122 2828 
Q 2878 2963 2633 3030 
Q 2388 3097 2138 3097 
Q 1578 3097 1268 2742 
Q 959 2388 959 1747 
Q 959 1106 1268 751 
Q 1578 397 2138 397 
Q 2388 397 2633 464 
Q 2878 531 3122 666 
L 3122 134 
Q 2881 22 2623 -34 
Q 2366 -91 2075 -91 
Q 1284 -91 818 406 
Q 353 903 353 1747 
Q 353 2603 823 3093 
Q 1294 3584 2113 3584 
Q 2378 3584 2631 3529 
Q 2884 3475 3122 3366 
z
" transform="scale(0.015625)"/>
      <path id="DejaVuSans-65" d="M 3597 1894 
L 3597 1613 
L 953 1613 
Q 991 1019 1311 708 
Q 1631 397 2203 397 
Q 2534 397 2845 478 
Q 3156 559 3463 722 
L 3463 178 
Q 3153 47 2828 -22 
Q 2503 -91 2169 -91 
Q 1331 -91 842 396 
Q 353 884 353 1716 
Q 353 2575 817 3079 
Q 1281 3584 2069 3584 
Q 2775 3584 3186 3129 
Q 3597 2675 3597 1894 
z
M 3022 2063 
Q 3016 2534 2758 2815 
Q 2500 3097 2075 3097 
Q 1594 3097 1305 2825 
Q 1016 2553 972 2059 
L 3022 2063 
z
" transform="scale(0.015625)"/>
      <path id="DejaVuSans-2d" d="M 313 2009 
L 1997 2009 
L 1997 1497 
L 313 1497 
L 313 2009 
z
" transform="scale(0.015625)"/>
      <path id="DejaVuSans-69" d="M 603 3500 
L 1178 3500 
L 1178 0 
L 603 0 
L 603 3500 
z
M 603 4863 
L 1178 4863 
L 1178 4134 
L 603 4134 
L 603 4863 
z
" transform="scale(0.015625)"/>
      <path id="DejaVuSans-76" d="M 191 3500 
L 800 3500 
L 1894 563 
L 2988 3500 
L 3597 3500 
L 2284 0 
L 1503 0 
L 191 3500 
z
" transform="scale(0.015625)"/>
     </defs>
     <use xlink:href="#DejaVuSans-73"/>
     <use xlink:href="#DejaVuSans-6f" x="52.099609"/>
     <use xlink:href="#DejaVuSans-75" x="113.28125"/>
     <use xlink:href="#DejaVuSans-72" x="176.660156"/>
     <use xlink:href="#DejaVuSans-63" x="215.523438"/>
     <use xlink:href="#DejaVuSans-65" x="270.503906"/>
     <use xlink:href="#DejaVuSans-32" x="332.027344"/>
     <use xlink:href="#DejaVuSans-32" x="395.650391"/>
     <use xlink:href="#DejaVuSans-2d" x="459.273438"/>
     <use xlink:href="#DejaVuSans-72" x="495.357422"/>
     <use xlink:href="#DejaVuSans-65" x="534.220703"/>
     <use xlink:href="#DejaVuSans-63" x="595.744141"/>
     <use xlink:href="#DejaVuSans-65" x="650.724609"/>
     <use xlink:href="#DejaVuSans-69" x="712.248047"/>
     <use xlink:href="#DejaVuSans-76" x="740.03125"/>
     <use xlink:href="#DejaVuSans-65" x="799.210938"/>
     <use xlink:href="#DejaVuSans-72" x="860.734375"/>
     <use xlink:href="#DejaVuSans-32" x="901.847656"/>
     <use xlink:href="#DejaVuSans-32" x="965.470703"/>
    </g>
   </g>
  </g>
 </g>
 <defs>
  <clipPath id="p0173bf7893">
   <rect x="180" y="69.12" width="1116" height="443.52"/>
  </clipPath>
 </defs>
</svg>
