<?xml version="1.0" encoding="utf-8" standalone="no"?>
<!DOCTYPE svg PUBLIC "-//W3C//DTD SVG 1.1//EN"
  "http://www.w3.org/Graphics/SVG/1.1/DTD/svg11.dtd">
<svg xmlns:xlink="http://www.w3.org/1999/xlink" width="1440pt" height="576pt" viewBox="0 0 1440 576" xmlns="http://www.w3.org/2000/svg" version="1.1">
 <metadata>
  <rdf:RDF xmlns:dc="http://purl.org/dc/elements/1.1/" xmlns:cc="http://creativecommons.org/ns#" xmlns:rdf="http://www.w3.org/1999/02/22-rdf-syntax-ns#">
   <cc:Work>
    <dc:type rdf:resource="http://purl.org/dc/dcmitype/StillImage"/>
    <dc:date>2024-05-22T04:50:22.867754</dc:date>
    <dc:format>image/svg+xml</dc:format>
    <dc:creator>
     <cc:Agent>
      <dc:title>Matplotlib v3.8.3, https://matplotlib.org/</dc:title>
     </cc:Agent>
    </dc:creator>
   </cc:Work>
  </rdf:RDF>
 </metadata>
 <defs>
  <style type="text/css">*{stroke-linejoin: round; stroke-linecap: butt}</style>
 </defs>
 <g id="figure_1">
  <g id="patch_1">
   <path d="M 0 576 
L 1440 576 
L 1440 0 
L 0 0 
z
" style="fill: #ffffff"/>
  </g>
  <g id="axes_1">
   <g id="patch_2">
    <path d="M 180 512.64 
L 1296 512.64 
L 1296 69.12 
L 180 69.12 
z
" style="fill: #ffffff"/>
   </g>
   <g id="matplotlib.axis_1">
    <g id="xtick_1">
     <g id="line2d_1">
      <defs>
       <path id="m3f7c582046" d="M 0 0 
L 0 3.5 
" style="stroke: #000000; stroke-width: 0.8"/>
      </defs>
      <g>
       <use xlink:href="#m3f7c582046" x="229.734567" y="512.64" style="stroke: #000000; stroke-width: 0.8"/>
      </g>
     </g>
     <g id="text_1">
      <!-- 0 -->
      <g transform="translate(226.553317 527.238438) scale(0.1 -0.1)">
       <defs>
        <path id="DejaVuSans-30" d="M 2034 4250 
Q 1547 4250 1301 3770 
Q 1056 3291 1056 2328 
Q 1056 1369 1301 889 
Q 1547 409 2034 409 
Q 2525 409 2770 889 
Q 3016 1369 3016 2328 
Q 3016 3291 2770 3770 
Q 2525 4250 2034 4250 
z
M 2034 4750 
Q 2819 4750 3233 4129 
Q 3647 3509 3647 2328 
Q 3647 1150 3233 529 
Q 2819 -91 2034 -91 
Q 1250 -91 836 529 
Q 422 1150 422 2328 
Q 422 3509 836 4129 
Q 1250 4750 2034 4750 
z
" transform="scale(0.015625)"/>
       </defs>
       <use xlink:href="#DejaVuSans-30"/>
      </g>
     </g>
    </g>
    <g id="xtick_2">
     <g id="line2d_2">
      <g>
       <use xlink:href="#m3f7c582046" x="433.04074" y="512.64" style="stroke: #000000; stroke-width: 0.8"/>
      </g>
     </g>
     <g id="text_2">
      <!-- 500 -->
      <g transform="translate(423.49699 527.238438) scale(0.1 -0.1)">
       <defs>
        <path id="DejaVuSans-35" d="M 691 4666 
L 3169 4666 
L 3169 4134 
L 1269 4134 
L 1269 2991 
Q 1406 3038 1543 3061 
Q 1681 3084 1819 3084 
Q 2600 3084 3056 2656 
Q 3513 2228 3513 1497 
Q 3513 744 3044 326 
Q 2575 -91 1722 -91 
Q 1428 -91 1123 -41 
Q 819 9 494 109 
L 494 744 
Q 775 591 1075 516 
Q 1375 441 1709 441 
Q 2250 441 2565 725 
Q 2881 1009 2881 1497 
Q 2881 1984 2565 2268 
Q 2250 2553 1709 2553 
Q 1456 2553 1204 2497 
Q 953 2441 691 2322 
L 691 4666 
z
" transform="scale(0.015625)"/>
       </defs>
       <use xlink:href="#DejaVuSans-35"/>
       <use xlink:href="#DejaVuSans-30" x="63.623047"/>
       <use xlink:href="#DejaVuSans-30" x="127.246094"/>
      </g>
     </g>
    </g>
    <g id="xtick_3">
     <g id="line2d_3">
      <g>
       <use xlink:href="#m3f7c582046" x="636.346913" y="512.64" style="stroke: #000000; stroke-width: 0.8"/>
      </g>
     </g>
     <g id="text_3">
      <!-- 1000 -->
      <g transform="translate(623.621913 527.238438) scale(0.1 -0.1)">
       <defs>
        <path id="DejaVuSans-31" d="M 794 531 
L 1825 531 
L 1825 4091 
L 703 3866 
L 703 4441 
L 1819 4666 
L 2450 4666 
L 2450 531 
L 3481 531 
L 3481 0 
L 794 0 
L 794 531 
z
" transform="scale(0.015625)"/>
       </defs>
       <use xlink:href="#DejaVuSans-31"/>
       <use xlink:href="#DejaVuSans-30" x="63.623047"/>
       <use xlink:href="#DejaVuSans-30" x="127.246094"/>
       <use xlink:href="#DejaVuSans-30" x="190.869141"/>
      </g>
     </g>
    </g>
    <g id="xtick_4">
     <g id="line2d_4">
      <g>
       <use xlink:href="#m3f7c582046" x="839.653087" y="512.64" style="stroke: #000000; stroke-width: 0.8"/>
      </g>
     </g>
     <g id="text_4">
      <!-- 1500 -->
      <g transform="translate(826.928087 527.238438) scale(0.1 -0.1)">
       <use xlink:href="#DejaVuSans-31"/>
       <use xlink:href="#DejaVuSans-35" x="63.623047"/>
       <use xlink:href="#DejaVuSans-30" x="127.246094"/>
       <use xlink:href="#DejaVuSans-30" x="190.869141"/>
      </g>
     </g>
    </g>
    <g id="xtick_5">
     <g id="line2d_5">
      <g>
       <use xlink:href="#m3f7c582046" x="1042.95926" y="512.64" style="stroke: #000000; stroke-width: 0.8"/>
      </g>
     </g>
     <g id="text_5">
      <!-- 2000 -->
      <g transform="translate(1030.23426 527.238438) scale(0.1 -0.1)">
       <defs>
        <path id="DejaVuSans-32" d="M 1228 531 
L 3431 531 
L 3431 0 
L 469 0 
L 469 531 
Q 828 903 1448 1529 
Q 2069 2156 2228 2338 
Q 2531 2678 2651 2914 
Q 2772 3150 2772 3378 
Q 2772 3750 2511 3984 
Q 2250 4219 1831 4219 
Q 1534 4219 1204 4116 
Q 875 4013 500 3803 
L 500 4441 
Q 881 4594 1212 4672 
Q 1544 4750 1819 4750 
Q 2544 4750 2975 4387 
Q 3406 4025 3406 3419 
Q 3406 3131 3298 2873 
Q 3191 2616 2906 2266 
Q 2828 2175 2409 1742 
Q 1991 1309 1228 531 
z
" transform="scale(0.015625)"/>
       </defs>
       <use xlink:href="#DejaVuSans-32"/>
       <use xlink:href="#DejaVuSans-30" x="63.623047"/>
       <use xlink:href="#DejaVuSans-30" x="127.246094"/>
       <use xlink:href="#DejaVuSans-30" x="190.869141"/>
      </g>
     </g>
    </g>
    <g id="xtick_6">
     <g id="line2d_6">
      <g>
       <use xlink:href="#m3f7c582046" x="1246.265433" y="512.64" style="stroke: #000000; stroke-width: 0.8"/>
      </g>
     </g>
     <g id="text_6">
      <!-- 2500 -->
      <g transform="translate(1233.540433 527.238438) scale(0.1 -0.1)">
       <use xlink:href="#DejaVuSans-32"/>
       <use xlink:href="#DejaVuSans-35" x="63.623047"/>
       <use xlink:href="#DejaVuSans-30" x="127.246094"/>
       <use xlink:href="#DejaVuSans-30" x="190.869141"/>
      </g>
     </g>
    </g>
   </g>
   <g id="matplotlib.axis_2">
    <g id="ytick_1">
     <g id="line2d_7">
      <defs>
       <path id="m142ec8a263" d="M 0 0 
L -3.5 0 
" style="stroke: #000000; stroke-width: 0.8"/>
      </defs>
      <g>
       <use xlink:href="#m142ec8a263" x="180" y="468.243192" style="stroke: #000000; stroke-width: 0.8"/>
      </g>
     </g>
     <g id="text_7">
      <!-- −6 -->
      <g transform="translate(158.257812 472.042411) scale(0.1 -0.1)">
       <defs>
        <path id="DejaVuSans-2212" d="M 678 2272 
L 4684 2272 
L 4684 1741 
L 678 1741 
L 678 2272 
z
" transform="scale(0.015625)"/>
        <path id="DejaVuSans-36" d="M 2113 2584 
Q 1688 2584 1439 2293 
Q 1191 2003 1191 1497 
Q 1191 994 1439 701 
Q 1688 409 2113 409 
Q 2538 409 2786 701 
Q 3034 994 3034 1497 
Q 3034 2003 2786 2293 
Q 2538 2584 2113 2584 
z
M 3366 4563 
L 3366 3988 
Q 3128 4100 2886 4159 
Q 2644 4219 2406 4219 
Q 1781 4219 1451 3797 
Q 1122 3375 1075 2522 
Q 1259 2794 1537 2939 
Q 1816 3084 2150 3084 
Q 2853 3084 3261 2657 
Q 3669 2231 3669 1497 
Q 3669 778 3244 343 
Q 2819 -91 2113 -91 
Q 1303 -91 875 529 
Q 447 1150 447 2328 
Q 447 3434 972 4092 
Q 1497 4750 2381 4750 
Q 2619 4750 2861 4703 
Q 3103 4656 3366 4563 
z
" transform="scale(0.015625)"/>
       </defs>
       <use xlink:href="#DejaVuSans-2212"/>
       <use xlink:href="#DejaVuSans-36" x="83.789062"/>
      </g>
     </g>
    </g>
    <g id="ytick_2">
     <g id="line2d_8">
      <g>
       <use xlink:href="#m142ec8a263" x="180" y="410.76632" style="stroke: #000000; stroke-width: 0.8"/>
      </g>
     </g>
     <g id="text_8">
      <!-- −5 -->
      <g transform="translate(158.257812 414.565539) scale(0.1 -0.1)">
       <use xlink:href="#DejaVuSans-2212"/>
       <use xlink:href="#DejaVuSans-35" x="83.789062"/>
      </g>
     </g>
    </g>
    <g id="ytick_3">
     <g id="line2d_9">
      <g>
       <use xlink:href="#m142ec8a263" x="180" y="353.289448" style="stroke: #000000; stroke-width: 0.8"/>
      </g>
     </g>
     <g id="text_9">
      <!-- −4 -->
      <g transform="translate(158.257812 357.088667) scale(0.1 -0.1)">
       <defs>
        <path id="DejaVuSans-34" d="M 2419 4116 
L 825 1625 
L 2419 1625 
L 2419 4116 
z
M 2253 4666 
L 3047 4666 
L 3047 1625 
L 3713 1625 
L 3713 1100 
L 3047 1100 
L 3047 0 
L 2419 0 
L 2419 1100 
L 313 1100 
L 313 1709 
L 2253 4666 
z
" transform="scale(0.015625)"/>
       </defs>
       <use xlink:href="#DejaVuSans-2212"/>
       <use xlink:href="#DejaVuSans-34" x="83.789062"/>
      </g>
     </g>
    </g>
    <g id="ytick_4">
     <g id="line2d_10">
      <g>
       <use xlink:href="#m142ec8a263" x="180" y="295.812576" style="stroke: #000000; stroke-width: 0.8"/>
      </g>
     </g>
     <g id="text_10">
      <!-- −3 -->
      <g transform="translate(158.257812 299.611795) scale(0.1 -0.1)">
       <defs>
        <path id="DejaVuSans-33" d="M 2597 2516 
Q 3050 2419 3304 2112 
Q 3559 1806 3559 1356 
Q 3559 666 3084 287 
Q 2609 -91 1734 -91 
Q 1441 -91 1130 -33 
Q 819 25 488 141 
L 488 750 
Q 750 597 1062 519 
Q 1375 441 1716 441 
Q 2309 441 2620 675 
Q 2931 909 2931 1356 
Q 2931 1769 2642 2001 
Q 2353 2234 1838 2234 
L 1294 2234 
L 1294 2753 
L 1863 2753 
Q 2328 2753 2575 2939 
Q 2822 3125 2822 3475 
Q 2822 3834 2567 4026 
Q 2313 4219 1838 4219 
Q 1578 4219 1281 4162 
Q 984 4106 628 3988 
L 628 4550 
Q 988 4650 1302 4700 
Q 1616 4750 1894 4750 
Q 2613 4750 3031 4423 
Q 3450 4097 3450 3541 
Q 3450 3153 3228 2886 
Q 3006 2619 2597 2516 
z
" transform="scale(0.015625)"/>
       </defs>
       <use xlink:href="#DejaVuSans-2212"/>
       <use xlink:href="#DejaVuSans-33" x="83.789062"/>
      </g>
     </g>
    </g>
    <g id="ytick_5">
     <g id="line2d_11">
      <g>
       <use xlink:href="#m142ec8a263" x="180" y="238.335704" style="stroke: #000000; stroke-width: 0.8"/>
      </g>
     </g>
     <g id="text_11">
      <!-- −2 -->
      <g transform="translate(158.257812 242.134923) scale(0.1 -0.1)">
       <use xlink:href="#DejaVuSans-2212"/>
       <use xlink:href="#DejaVuSans-32" x="83.789062"/>
      </g>
     </g>
    </g>
    <g id="ytick_6">
     <g id="line2d_12">
      <g>
       <use xlink:href="#m142ec8a263" x="180" y="180.858832" style="stroke: #000000; stroke-width: 0.8"/>
      </g>
     </g>
     <g id="text_12">
      <!-- −1 -->
      <g transform="translate(158.257812 184.658051) scale(0.1 -0.1)">
       <use xlink:href="#DejaVuSans-2212"/>
       <use xlink:href="#DejaVuSans-31" x="83.789062"/>
      </g>
     </g>
    </g>
    <g id="ytick_7">
     <g id="line2d_13">
      <g>
       <use xlink:href="#m142ec8a263" x="180" y="123.38196" style="stroke: #000000; stroke-width: 0.8"/>
      </g>
     </g>
     <g id="text_13">
      <!-- 0 -->
      <g transform="translate(166.6375 127.181179) scale(0.1 -0.1)">
       <use xlink:href="#DejaVuSans-30"/>
      </g>
     </g>
    </g>
   </g>
   <g id="line2d_14">
    <path d="M 230.727273 302.81349 
L 231.719979 307.201412 
L 232.712685 300.748039 
L 233.70539 303.162585 
L 234.698096 299.408503 
L 235.690802 292.556113 
L 236.683508 287.756352 
L 237.676214 285.616888 
L 238.66892 281.76566 
L 239.661626 276.718894 
L 240.654332 273.64124 
L 242.639744 263.680219 
L 243.63245 261.100535 
L 244.625156 254.599237 
L 245.617862 250.917441 
L 246.610568 245.491942 
L 247.603273 228.034371 
L 248.595979 224.04061 
L 249.588685 213.367473 
L 250.581391 192.949157 
L 251.574097 196.921904 
L 252.566803 179.063144 
L 253.559509 185.912186 
L 254.552215 191.237376 
L 255.544921 158.538646 
L 256.537627 142.721109 
L 257.530333 139.945057 
L 258.523039 144.155618 
L 259.515745 146.37096 
L 260.50845 157.906542 
L 261.501156 156.57799 
L 262.493862 163.299348 
L 263.486568 148.521283 
L 264.479274 146.944277 
L 265.47198 131.786051 
L 266.464686 146.190493 
L 267.457392 168.36466 
L 268.450098 151.420555 
L 270.43551 107.791933 
L 271.428216 97.795111 
L 272.420922 91.043753 
L 273.413627 90.496745 
L 274.406333 97.155246 
L 275.399039 106.6773 
L 276.391745 125.272541 
L 277.384451 128.348734 
L 278.377157 118.220009 
L 279.369863 96.9138 
L 280.362569 89.28 
L 281.355275 96.053055 
L 282.347981 97.96191 
L 283.340687 111.386969 
L 284.333393 131.317533 
L 285.326099 130.819537 
L 286.318804 143.37245 
L 288.304216 132.455059 
L 289.296922 160.061852 
L 290.289628 163.671344 
L 291.282334 175.985235 
L 292.27504 172.535896 
L 293.267746 168.588055 
L 294.260452 178.352437 
L 295.253158 183.398537 
L 296.245864 196.69479 
L 298.231276 274.982458 
L 299.223981 226.440416 
L 300.216687 226.013901 
L 301.209393 236.842054 
L 302.202099 232.135076 
L 303.194805 245.401811 
L 304.187511 239.607215 
L 305.180217 260.721758 
L 306.172923 254.572862 
L 307.165629 278.611097 
L 308.158335 246.703511 
L 309.151041 253.171353 
L 310.143747 228.135056 
L 312.129159 278.61685 
L 313.121864 245.686356 
L 314.11457 221.792341 
L 316.099982 283.263673 
L 317.092688 251.990877 
L 318.085394 245.353754 
L 319.0781 260.462214 
L 320.070806 262.421781 
L 321.063512 301.531689 
L 322.056218 269.918529 
L 323.048924 278.504884 
L 324.04163 331.375158 
L 325.034336 290.848069 
L 326.027041 243.2478 
L 327.019747 258.745421 
L 328.012453 305.3436 
L 329.005159 245.023287 
L 329.997865 284.366649 
L 330.990571 289.061723 
L 331.983277 256.396153 
L 332.975983 237.563714 
L 333.968689 243.642276 
L 334.961395 250.662546 
L 335.954101 228.473044 
L 336.946807 298.975944 
L 337.939513 251.496254 
L 338.932218 255.264114 
L 339.924924 304.817792 
L 340.91763 273.936111 
L 341.910336 263.469448 
L 342.903042 305.54491 
L 343.895748 295.18616 
L 344.888454 297.050257 
L 345.88116 248.498266 
L 346.873866 268.19451 
L 347.866572 300.432299 
L 348.859278 305.769985 
L 349.851984 276.50054 
L 350.84469 231.051886 
L 351.837395 276.366008 
L 352.830101 278.827059 
L 353.822807 274.090802 
L 354.815513 259.043713 
L 355.808219 269.708771 
L 356.800925 286.920303 
L 357.793631 261.839376 
L 358.786337 256.393777 
L 359.779043 343.09454 
L 360.771749 287.254732 
L 361.764455 263.919601 
L 362.757161 226.253052 
L 363.749867 330.494389 
L 364.742572 229.026484 
L 365.735278 228.171705 
L 366.727984 273.18096 
L 367.72069 252.89595 
L 368.713396 240.846602 
L 369.706102 278.920017 
L 370.698808 344.354734 
L 371.691514 330.395265 
L 372.68422 286.319428 
L 373.676926 281.612803 
L 374.669632 280.821958 
L 375.662338 350.968515 
L 376.655044 370.473833 
L 377.64775 247.943522 
L 378.640455 251.686311 
L 379.633161 322.304831 
L 380.625867 277.825395 
L 381.618573 312.473628 
L 382.611279 281.003264 
L 383.603985 327.417337 
L 384.596691 265.4794 
L 385.589397 279.312569 
L 386.582103 289.202814 
L 387.574809 281.022336 
L 388.567515 282.305813 
L 389.560221 248.135204 
L 390.552927 223.391504 
L 391.545632 210.980647 
L 392.538338 196.232806 
L 393.531044 208.436777 
L 394.52375 224.545217 
L 395.516456 235.085689 
L 396.509162 275.17584 
L 397.501868 276.645585 
L 398.494574 311.438489 
L 399.48728 289.891026 
L 400.479986 271.238583 
L 401.472692 231.252881 
L 402.465398 269.449285 
L 403.458104 262.855942 
L 404.450809 312.226294 
L 405.443515 241.47222 
L 406.436221 321.852206 
L 407.428927 254.681613 
L 408.421633 278.414889 
L 409.414339 337.886283 
L 410.407045 263.142828 
L 411.399751 280.148745 
L 412.392457 257.504487 
L 413.385163 296.297956 
L 414.377869 326.608191 
L 415.370575 260.023778 
L 416.363281 413.845071 
L 417.355986 213.777206 
L 418.348692 193.978548 
L 419.341398 195.404262 
L 420.334104 177.342478 
L 421.32681 186.261983 
L 422.319516 227.706049 
L 423.312222 199.097315 
L 424.304928 237.884154 
L 426.29034 290.464149 
L 427.283046 309.993101 
L 428.275752 244.662787 
L 429.268458 326.369462 
L 430.261163 294.561994 
L 431.253869 252.24671 
L 432.246575 223.478622 
L 433.239281 256.239132 
L 434.231987 370.221899 
L 435.224693 241.774401 
L 436.217399 289.371853 
L 437.210105 292.317411 
L 438.202811 274.795643 
L 439.195517 241.728001 
L 441.180929 348.753554 
L 442.173635 310.680018 
L 443.166341 278.23481 
L 444.159046 277.643589 
L 445.151752 229.538596 
L 446.144458 241.744672 
L 447.137164 243.013989 
L 448.12987 235.726771 
L 449.122576 345.241338 
L 450.115282 311.216919 
L 451.107988 305.72869 
L 452.100694 332.727652 
L 453.0934 328.049775 
L 454.086106 292.376158 
L 455.078812 268.164152 
L 456.071518 270.63066 
L 457.064223 366.684927 
L 458.056929 312.953583 
L 459.049635 342.458322 
L 460.042341 282.033801 
L 461.035047 324.947067 
L 462.027753 283.90205 
L 463.020459 294.451896 
L 464.013165 290.418266 
L 465.005871 273.849533 
L 465.998577 308.489653 
L 466.991283 293.934095 
L 467.983989 319.969518 
L 468.976695 325.112515 
L 469.9694 284.768845 
L 470.962106 275.864671 
L 471.954812 279.540431 
L 472.947518 273.872686 
L 473.940224 326.412297 
L 474.93293 326.855069 
L 475.925636 295.342177 
L 476.918342 292.215029 
L 477.911048 311.363363 
L 478.903754 319.246653 
L 479.89646 350.620871 
L 480.889166 289.260735 
L 481.881872 335.891537 
L 482.874577 283.243762 
L 483.867283 345.641065 
L 484.859989 389.999664 
L 485.852695 307.520337 
L 486.845401 289.486019 
L 487.838107 349.644354 
L 488.830813 300.666406 
L 489.823519 289.018308 
L 490.816225 306.258583 
L 491.808931 272.241481 
L 492.801637 302.44916 
L 493.794343 284.208267 
L 494.787049 278.845506 
L 496.77246 298.6262 
L 497.765166 363.548976 
L 498.757872 263.739211 
L 499.750578 245.316165 
L 500.743284 300.551218 
L 501.73599 225.483099 
L 502.728696 234.594207 
L 503.721402 270.660851 
L 504.714108 277.734755 
L 505.706814 271.712419 
L 506.69952 326.121059 
L 507.692226 287.814304 
L 508.684932 308.965042 
L 509.677637 282.814835 
L 510.670343 375.926782 
L 511.663049 339.240581 
L 512.655755 276.901099 
L 513.648461 278.19772 
L 514.641167 289.810278 
L 515.633873 272.608244 
L 516.626579 270.621216 
L 517.619285 356.699506 
L 518.611991 302.580515 
L 519.604697 354.510494 
L 520.597403 336.947412 
L 521.590109 264.101278 
L 522.582814 292.186374 
L 523.57552 267.391815 
L 524.568226 305.809953 
L 525.560932 318.669537 
L 526.553638 239.612731 
L 527.546344 230.226687 
L 528.53905 223.083967 
L 529.531756 225.351049 
L 530.524462 238.749654 
L 531.517168 301.467075 
L 532.509874 246.216415 
L 533.50258 303.969605 
L 534.495286 286.627392 
L 535.487991 305.13678 
L 536.480697 276.772831 
L 537.473403 258.681922 
L 538.466109 333.339093 
L 539.458815 288.375881 
L 540.451521 294.37237 
L 541.444227 255.751023 
L 542.436933 253.651653 
L 543.429639 296.438455 
L 544.422345 267.748717 
L 545.415051 312.022875 
L 546.407757 298.093363 
L 547.400463 294.919611 
L 548.393168 232.454049 
L 549.385874 271.652785 
L 550.37858 356.015406 
L 551.371286 239.645515 
L 552.363992 272.656932 
L 553.356698 266.048629 
L 554.349404 222.953052 
L 555.34211 213.579578 
L 556.334816 215.250776 
L 557.327522 221.683348 
L 559.312934 267.68704 
L 560.30564 255.753945 
L 561.298345 261.028175 
L 562.291051 316.130996 
L 563.283757 323.150104 
L 564.276463 264.415845 
L 565.269169 293.688031 
L 566.261875 272.84758 
L 567.254581 284.173069 
L 568.247287 293.703607 
L 569.239993 284.698985 
L 570.232699 284.288031 
L 571.225405 282.142313 
L 572.218111 439.335708 
L 573.210817 368.604437 
L 574.203523 313.224158 
L 575.196228 356.443552 
L 576.188934 315.16824 
L 577.18164 304.708587 
L 578.174346 385.262201 
L 579.167052 333.778379 
L 580.159758 352.992417 
L 581.152464 279.743081 
L 582.14517 312.991452 
L 583.137876 285.681334 
L 584.130582 268.699515 
L 585.123288 347.466997 
L 586.115994 290.088211 
L 587.1087 482.093614 
L 588.101405 321.200379 
L 589.094111 334.75847 
L 590.086817 362.662316 
L 591.079523 320.748737 
L 592.072229 336.702815 
L 593.064935 492.48 
L 594.057641 303.258602 
L 595.050347 330.63403 
L 596.043053 334.10302 
L 597.035759 419.002526 
L 598.028465 373.512182 
L 599.021171 313.076523 
L 600.013877 336.623691 
L 601.006582 368.707027 
L 601.999288 405.235725 
L 602.991994 314.368444 
L 603.9847 312.53169 
L 604.977406 329.664777 
L 605.970112 337.602786 
L 606.962818 420.969281 
L 607.955524 319.657402 
L 608.94823 301.171079 
L 609.940936 328.111758 
L 610.933642 319.593193 
L 611.926348 327.720203 
L 612.919054 463.057912 
L 613.911759 309.514372 
L 614.904465 343.383093 
L 615.897171 299.975284 
L 616.889877 384.17251 
L 617.882583 332.836101 
L 618.875289 354.821937 
L 619.867995 397.719665 
L 620.860701 356.055873 
L 621.853407 371.119913 
L 622.846113 326.055814 
L 623.838819 312.734275 
L 624.831525 363.369356 
L 625.824231 329.468718 
L 626.816936 361.462601 
L 627.809642 329.201291 
L 628.802348 329.359923 
L 629.795054 377.313523 
L 630.78776 389.331628 
L 631.780466 336.798311 
L 632.773172 348.329192 
L 634.758584 331.85612 
L 635.75129 364.691092 
L 636.743996 354.777461 
L 637.736702 335.035229 
L 638.729408 370.032501 
L 639.722114 349.89749 
L 640.714819 336.128081 
L 641.707525 328.889608 
L 642.700231 336.089903 
L 643.692937 332.394707 
L 644.685643 349.475621 
L 645.678349 402.425943 
L 646.671055 344.142992 
L 647.663761 340.96867 
L 648.656467 354.489151 
L 649.649173 377.326226 
L 650.641879 332.7741 
L 651.634585 375.65706 
L 652.627291 359.653271 
L 653.619996 367.508373 
L 654.612702 366.088118 
L 655.605408 343.543462 
L 656.598114 344.831354 
L 657.59082 375.431515 
L 658.583526 366.725724 
L 659.576232 367.202992 
L 660.568938 336.83585 
L 661.561644 346.162613 
L 662.55435 357.326453 
L 663.547056 355.23932 
L 664.539762 355.417417 
L 665.532468 369.541671 
L 666.525173 339.630618 
L 667.517879 366.240177 
L 668.510585 377.1215 
L 669.503291 359.655009 
L 670.495997 361.882333 
L 671.488703 353.158634 
L 672.481409 404.747163 
L 673.474115 358.87827 
L 674.466821 356.64338 
L 675.459527 356.298088 
L 677.444939 361.796324 
L 678.437645 366.819341 
L 679.43035 346.273085 
L 680.423056 369.602973 
L 681.415762 362.638147 
L 682.408468 358.782419 
L 683.401174 366.927587 
L 684.39388 362.077385 
L 685.386586 360.35116 
L 686.379292 369.475068 
L 687.371998 357.245886 
L 688.364704 367.335978 
L 689.35741 358.749513 
L 690.350116 371.843846 
L 691.342822 371.371116 
L 692.335527 373.651526 
L 693.328233 353.727434 
L 694.320939 372.669374 
L 695.313645 357.448379 
L 696.306351 367.040778 
L 697.299057 359.727225 
L 698.291763 364.694087 
L 699.284469 355.859144 
L 700.277175 361.503403 
L 701.269881 359.41302 
L 702.262587 361.356442 
L 703.255293 366.354636 
L 704.247999 368.80431 
L 705.240705 365.927212 
L 706.23341 360.278455 
L 707.226116 360.771873 
L 708.218822 356.728084 
L 709.211528 359.789441 
L 710.204234 355.725738 
L 711.19694 373.743055 
L 712.189646 367.084222 
L 713.182352 371.38542 
L 714.175058 362.512602 
L 715.167764 366.476363 
L 716.16047 363.432897 
L 717.153176 369.684761 
L 718.145882 359.91504 
L 719.138587 363.634877 
L 720.131293 361.354768 
L 721.123999 367.824578 
L 722.116705 356.89386 
L 723.109411 367.003299 
L 724.102117 367.09214 
L 725.094823 377.573562 
L 726.087529 364.393389 
L 727.080235 365.075736 
L 728.072941 370.725159 
L 729.065647 370.663129 
L 730.058353 362.118005 
L 731.051059 366.944157 
L 732.043764 368.457471 
L 733.03647 374.034245 
L 734.029176 359.6572 
L 735.021882 371.529542 
L 736.014588 370.42607 
L 737.007294 357.125006 
L 738 368.16209 
L 738.992706 365.88045 
L 739.985412 361.928515 
L 740.978118 367.950192 
L 741.970824 367.391374 
L 742.96353 371.651558 
L 743.956236 371.557066 
L 744.948941 369.741235 
L 745.941647 365.587165 
L 746.934353 366.502057 
L 747.927059 376.661989 
L 748.919765 371.660233 
L 749.912471 376.15481 
L 750.905177 366.133621 
L 751.897883 363.453965 
L 752.890589 365.952013 
L 753.883295 372.758843 
L 754.876001 370.9337 
L 755.868707 363.888619 
L 756.861413 372.286453 
L 757.854118 373.963319 
L 758.846824 376.401536 
L 759.83953 373.071648 
L 760.832236 370.341052 
L 761.824942 370.479347 
L 762.817648 374.706681 
L 763.810354 368.131338 
L 764.80306 365.237884 
L 765.795766 368.350475 
L 766.788472 366.918037 
L 767.781178 372.28159 
L 768.773884 372.637959 
L 769.76659 366.959978 
L 770.759295 365.217601 
L 771.752001 366.151394 
L 772.744707 366.008319 
L 773.737413 367.39846 
L 774.730119 369.840643 
L 775.722825 378.211026 
L 776.715531 365.294341 
L 777.708237 375.310424 
L 778.700943 365.940279 
L 779.693649 374.142757 
L 780.686355 374.316007 
L 781.679061 368.566226 
L 782.671767 361.88168 
L 783.664473 365.987117 
L 784.657178 372.518407 
L 785.649884 372.239789 
L 786.64259 367.471539 
L 787.635296 373.477066 
L 788.628002 370.279366 
L 789.620708 375.312488 
L 790.613414 368.066 
L 791.60612 377.768937 
L 792.598826 369.033814 
L 793.591532 364.712981 
L 794.584238 375.378131 
L 795.576944 369.399324 
L 796.56965 376.975535 
L 797.562355 361.021156 
L 798.555061 372.572367 
L 799.547767 370.325753 
L 800.540473 383.622659 
L 801.533179 378.022783 
L 802.525885 364.548389 
L 803.518591 373.69249 
L 804.511297 376.823473 
L 805.504003 365.9934 
L 806.496709 374.109266 
L 807.489415 368.51798 
L 808.482121 365.002994 
L 809.474827 367.925321 
L 810.467532 380.811495 
L 811.460238 371.494607 
L 812.452944 375.210124 
L 813.44565 375.832297 
L 814.438356 370.760806 
L 815.431062 369.879479 
L 816.423768 381.403699 
L 817.416474 373.745787 
L 818.40918 376.298104 
L 819.401886 369.603502 
L 820.394592 373.292796 
L 821.387298 371.197247 
L 822.380004 378.459414 
L 823.372709 372.484153 
L 824.365415 383.372011 
L 825.358121 368.530471 
L 826.350827 376.814882 
L 827.343533 375.027428 
L 828.336239 368.090085 
L 829.328945 375.914986 
L 830.321651 372.181662 
L 831.314357 376.638942 
L 832.307063 378.354361 
L 833.299769 372.143345 
L 834.292475 374.810724 
L 835.285181 369.646716 
L 836.277886 367.914783 
L 837.270592 376.0036 
L 838.263298 367.06066 
L 839.256004 380.513316 
L 840.24871 378.115746 
L 841.241416 374.958473 
L 842.234122 383.220998 
L 843.226828 373.137111 
L 844.219534 374.099043 
L 845.21224 371.813263 
L 846.204946 381.275217 
L 847.197652 377.87159 
L 848.190358 377.2915 
L 849.183064 371.601656 
L 850.175769 376.698751 
L 851.168475 370.447452 
L 852.161181 381.198138 
L 853.153887 373.452881 
L 854.146593 378.288813 
L 855.139299 380.037735 
L 856.132005 382.383214 
L 857.124711 375.615589 
L 858.117417 373.229831 
L 859.110123 378.31401 
L 860.102829 379.070912 
L 861.095535 382.837368 
L 862.088241 378.936564 
L 863.080946 373.811284 
L 864.073652 375.338863 
L 865.066358 378.331534 
L 866.059064 381.968187 
L 867.05177 374.388082 
L 868.044476 381.048733 
L 869.037182 372.657229 
L 870.029888 383.490901 
L 871.022594 375.345786 
L 872.0153 377.032171 
L 873.008006 373.457918 
L 874.000712 384.886018 
L 874.993418 376.382756 
L 875.986123 380.823285 
L 876.978829 373.73941 
L 877.971535 378.042681 
L 878.964241 372.587776 
L 879.956947 384.67534 
L 880.949653 376.058074 
L 881.942359 370.781099 
L 882.935065 381.265971 
L 883.927771 381.750667 
L 884.920477 376.736659 
L 885.913183 381.399799 
L 886.905889 371.463081 
L 887.898595 382.803661 
L 888.8913 381.497227 
L 889.884006 376.266749 
L 890.876712 379.124875 
L 891.869418 373.725128 
L 892.862124 394.742596 
L 893.85483 372.192981 
L 894.847536 382.438825 
L 895.840242 381.661179 
L 896.832948 386.544644 
L 897.825654 374.340487 
L 898.81836 379.40746 
L 899.811066 385.457826 
L 900.803772 382.958286 
L 901.796477 379.575367 
L 902.789183 381.472747 
L 903.781889 374.140599 
L 904.774595 380.436653 
L 905.767301 383.777627 
L 906.760007 378.568397 
L 907.752713 382.401059 
L 908.745419 374.495595 
L 909.738125 377.581595 
L 910.730831 376.390815 
L 911.723537 371.100633 
L 912.716243 373.270923 
L 913.708949 382.220833 
L 914.701655 383.159297 
L 915.69436 373.59051 
L 916.687066 374.38186 
L 917.679772 385.781604 
L 918.672478 385.976567 
L 919.665184 382.235432 
L 920.65789 380.184833 
L 921.650596 379.155937 
L 922.643302 374.22103 
L 923.636008 386.912965 
L 924.628714 378.910337 
L 925.62142 377.925572 
L 926.614126 382.2392 
L 927.606832 377.18579 
L 928.599537 378.896771 
L 929.592243 373.319239 
L 930.584949 379.309193 
L 931.577655 377.818398 
L 932.570361 379.566804 
L 933.563067 376.848157 
L 934.555773 379.595473 
L 935.548479 386.011811 
L 936.541185 367.800589 
L 937.533891 386.300738 
L 938.526597 383.123037 
L 939.519303 384.460538 
L 940.512009 380.534861 
L 941.504714 388.625553 
L 942.49742 378.605946 
L 943.490126 388.005436 
L 945.475538 380.806838 
L 946.468244 381.047281 
L 947.46095 383.230993 
L 948.453656 377.255109 
L 949.446362 385.055604 
L 950.439068 380.618553 
L 951.431774 391.254587 
L 952.42448 379.50516 
L 953.417186 376.969224 
L 954.409891 382.009554 
L 955.402597 383.538902 
L 956.395303 376.687201 
L 957.388009 378.066111 
L 958.380715 386.701716 
L 959.373421 382.681447 
L 961.358833 385.363522 
L 962.351539 382.745778 
L 963.344245 394.388919 
L 964.336951 379.294121 
L 965.329657 377.245113 
L 966.322363 388.788918 
L 967.315068 382.517435 
L 968.307774 382.780155 
L 969.30048 381.637249 
L 970.293186 387.173391 
L 971.285892 377.825036 
L 972.278598 379.442909 
L 973.271304 385.117185 
L 974.26401 382.743591 
L 975.256716 385.974159 
L 976.249422 384.816116 
L 977.242128 374.948262 
L 978.234834 382.927005 
L 979.22754 381.795922 
L 980.220246 382.370641 
L 981.212951 377.516065 
L 982.205657 378.232152 
L 983.198363 387.807528 
L 984.191069 380.838689 
L 985.183775 382.139681 
L 986.176481 380.826733 
L 987.169187 383.10263 
L 988.161893 388.535449 
L 989.154599 381.661274 
L 990.147305 391.919148 
L 991.140011 383.794391 
L 992.132717 393.861494 
L 993.125423 379.180682 
L 994.118128 380.381779 
L 995.110834 378.733504 
L 996.10354 379.333008 
L 997.096246 384.761431 
L 998.088952 380.434504 
L 999.081658 387.062334 
L 1000.074364 376.79224 
L 1001.06707 379.0744 
L 1002.059776 385.714194 
L 1003.052482 386.002452 
L 1004.045188 375.169161 
L 1005.037894 397.914008 
L 1006.0306 393.752869 
L 1007.023305 383.796521 
L 1008.016011 380.318887 
L 1009.008717 388.054213 
L 1010.001423 388.178604 
L 1010.994129 386.699959 
L 1011.986835 375.442196 
L 1012.979541 379.34955 
L 1013.972247 384.512574 
L 1014.964953 382.057458 
L 1015.957659 381.900445 
L 1016.950365 393.857828 
L 1017.943071 377.903053 
L 1018.935777 394.987692 
L 1019.928482 388.028021 
L 1021.913894 378.757929 
L 1022.9066 378.681349 
L 1023.899306 392.77548 
L 1024.892012 388.047641 
L 1025.884718 385.184472 
L 1026.877424 384.174072 
L 1027.87013 385.479516 
L 1028.862836 380.162413 
L 1029.855542 386.735751 
L 1030.848248 378.325881 
L 1031.840954 386.116361 
L 1032.833659 384.73488 
L 1033.826365 394.174741 
L 1034.819071 388.333466 
L 1035.811777 389.05039 
L 1036.804483 379.331463 
L 1037.797189 380.225558 
L 1038.789895 382.837783 
L 1039.782601 380.680708 
L 1040.775307 386.401165 
L 1041.768013 390.139267 
L 1042.760719 387.047017 
L 1044.746131 383.464932 
L 1045.738837 385.22315 
L 1046.731542 382.050214 
L 1047.724248 386.162897 
L 1048.716954 384.749733 
L 1049.70966 382.887041 
L 1050.702366 387.577494 
L 1051.695072 384.242595 
L 1052.687778 379.9649 
L 1053.680484 388.498693 
L 1054.67319 379.046765 
L 1055.665896 385.442504 
L 1056.658602 383.298549 
L 1057.651308 386.203487 
L 1058.644014 385.909643 
L 1059.636719 389.330621 
L 1060.629425 384.397146 
L 1061.622131 394.997943 
L 1062.614837 378.611806 
L 1063.607543 388.315751 
L 1064.600249 390.026561 
L 1065.592955 385.22193 
L 1066.585661 386.570686 
L 1067.578367 382.77558 
L 1068.571073 383.790921 
L 1069.563779 392.481767 
L 1070.556485 382.791201 
L 1071.549191 390.103891 
L 1072.541896 390.679928 
L 1073.534602 387.657951 
L 1074.527308 386.193694 
L 1075.520014 379.651252 
L 1076.51272 388.176876 
L 1077.505426 383.797591 
L 1078.498132 382.011167 
L 1079.490838 383.753359 
L 1081.47625 395.811553 
L 1082.468956 385.65564 
L 1083.461662 387.958371 
L 1084.454368 388.12993 
L 1085.447073 392.068116 
L 1086.439779 391.091883 
L 1087.432485 387.609519 
L 1088.425191 392.675048 
L 1089.417897 386.326626 
L 1090.410603 393.435618 
L 1091.403309 386.751833 
L 1092.396015 381.727483 
L 1093.388721 388.407652 
L 1094.381427 389.531131 
L 1095.374133 385.097791 
L 1096.366839 386.703295 
L 1097.359545 392.351425 
L 1098.35225 385.188681 
L 1099.344956 388.840413 
L 1100.337662 385.402008 
L 1101.330368 386.501297 
L 1102.323074 387.434415 
L 1104.308486 383.271674 
L 1105.301192 385.617596 
L 1106.293898 384.496605 
L 1107.286604 390.507394 
L 1108.27931 387.549006 
L 1109.272016 383.110441 
L 1110.264722 392.394476 
L 1111.257428 383.212938 
L 1112.250133 389.744998 
L 1113.242839 384.625802 
L 1114.235545 388.010631 
L 1115.228251 388.983603 
L 1116.220957 390.249057 
L 1117.213663 389.515466 
L 1118.206369 389.723376 
L 1119.199075 388.381375 
L 1120.191781 387.837664 
L 1121.184487 382.015835 
L 1122.177193 392.112008 
L 1123.169899 385.682056 
L 1124.162605 389.687008 
L 1125.15531 383.983135 
L 1126.148016 391.226975 
L 1127.140722 389.187164 
L 1128.133428 377.757578 
L 1129.126134 386.86029 
L 1130.11884 385.250998 
L 1131.111546 386.654774 
L 1132.104252 391.922903 
L 1133.096958 394.592409 
L 1134.089664 385.942742 
L 1135.08237 394.441193 
L 1136.075076 387.788744 
L 1137.067782 383.564742 
L 1138.060487 384.270512 
L 1139.053193 389.596039 
L 1140.045899 381.236418 
L 1141.038605 378.81527 
L 1142.031311 387.332964 
L 1143.024017 389.77077 
L 1144.016723 389.943049 
L 1145.009429 389.822707 
L 1146.002135 389.580851 
L 1146.994841 381.154884 
L 1147.987547 387.00912 
L 1148.980253 394.080336 
L 1149.972959 393.324748 
L 1151.95837 384.412804 
L 1152.951076 384.072422 
L 1153.943782 383.231936 
L 1154.936488 388.060113 
L 1155.929194 389.249126 
L 1156.9219 392.985512 
L 1157.914606 382.567783 
L 1158.907312 390.990481 
L 1159.900018 387.679753 
L 1160.892724 387.708487 
L 1161.88543 388.810807 
L 1162.878136 386.682808 
L 1163.870841 389.453336 
L 1164.863547 387.420299 
L 1165.856253 382.541353 
L 1166.848959 386.974829 
L 1167.841665 389.556759 
L 1168.834371 388.992404 
L 1169.827077 383.334862 
L 1170.819783 383.603537 
L 1171.812489 390.653955 
L 1172.805195 389.690933 
L 1173.797901 390.083744 
L 1174.790607 386.587627 
L 1175.783313 384.091097 
L 1176.776019 384.471974 
L 1177.768724 388.420244 
L 1178.76143 388.757546 
L 1179.754136 386.187054 
L 1180.746842 389.776091 
L 1181.739548 391.380788 
L 1182.732254 384.010292 
L 1183.72496 388.994428 
L 1184.717666 390.395732 
L 1185.710372 396.714769 
L 1186.703078 387.420989 
L 1187.695784 385.374835 
L 1188.68849 390.945484 
L 1189.681196 385.967222 
L 1190.673901 394.834804 
L 1191.666607 388.969937 
L 1192.659313 384.766439 
L 1193.652019 390.810192 
L 1194.644725 387.992728 
L 1195.637431 389.513774 
L 1196.630137 395.123564 
L 1197.622843 394.774844 
L 1198.615549 394.800276 
L 1199.608255 385.945475 
L 1200.600961 392.556971 
L 1201.593667 385.077722 
L 1202.586373 389.130907 
L 1203.579078 392.094418 
L 1204.571784 376.516185 
L 1205.56449 386.966598 
L 1206.557196 385.229037 
L 1207.549902 395.583983 
L 1208.542608 387.825043 
L 1209.535314 387.349287 
L 1210.52802 387.409925 
L 1211.520726 384.538364 
L 1212.513432 379.894207 
L 1213.506138 388.813291 
L 1214.498844 379.775679 
L 1215.49155 395.562585 
L 1216.484255 393.723942 
L 1217.476961 390.726713 
L 1218.469667 380.065944 
L 1219.462373 383.924116 
L 1220.455079 388.58779 
L 1221.447785 388.674188 
L 1222.440491 389.064256 
L 1223.433197 387.705173 
L 1224.425903 385.374249 
L 1225.418609 385.801896 
L 1226.411315 395.699706 
L 1227.404021 391.727183 
L 1228.396727 378.916088 
L 1230.382138 387.707841 
L 1231.374844 390.328685 
L 1232.36755 387.564444 
L 1233.360256 387.363949 
L 1234.352962 386.728339 
L 1235.345668 401.359489 
L 1236.338374 383.437949 
L 1237.33108 387.917669 
L 1238.323786 389.37944 
L 1239.316492 394.223706 
L 1240.309198 390.664805 
L 1241.301904 382.558873 
L 1242.29461 389.54797 
L 1243.287315 377.999649 
L 1244.280021 383.089731 
L 1245.272727 391.169371 
L 1245.272727 391.169371 
" clip-path="url(#p1e5e795842)" style="fill: none; stroke: #1f77b4; stroke-width: 1.5; stroke-linecap: square"/>
   </g>
   <g id="patch_3">
    <path d="M 180 512.64 
L 180 69.12 
" style="fill: none; stroke: #000000; stroke-width: 0.8; stroke-linejoin: miter; stroke-linecap: square"/>
   </g>
   <g id="patch_4">
    <path d="M 1296 512.64 
L 1296 69.12 
" style="fill: none; stroke: #000000; stroke-width: 0.8; stroke-linejoin: miter; stroke-linecap: square"/>
   </g>
   <g id="patch_5">
    <path d="M 180 512.64 
L 1296 512.64 
" style="fill: none; stroke: #000000; stroke-width: 0.8; stroke-linejoin: miter; stroke-linecap: square"/>
   </g>
   <g id="patch_6">
    <path d="M 180 69.12 
L 1296 69.12 
" style="fill: none; stroke: #000000; stroke-width: 0.8; stroke-linejoin: miter; stroke-linecap: square"/>
   </g>
   <g id="text_14">
    <!-- source22-receiver20 -->
    <g transform="translate(532.175 60.80125) scale(0.4 -0.4)">
     <defs>
      <path id="DejaVuSans-73" d="M 2834 3397 
L 2834 2853 
Q 2591 2978 2328 3040 
Q 2066 3103 1784 3103 
Q 1356 3103 1142 2972 
Q 928 2841 928 2578 
Q 928 2378 1081 2264 
Q 1234 2150 1697 2047 
L 1894 2003 
Q 2506 1872 2764 1633 
Q 3022 1394 3022 966 
Q 3022 478 2636 193 
Q 2250 -91 1575 -91 
Q 1294 -91 989 -36 
Q 684 19 347 128 
L 347 722 
Q 666 556 975 473 
Q 1284 391 1588 391 
Q 1994 391 2212 530 
Q 2431 669 2431 922 
Q 2431 1156 2273 1281 
Q 2116 1406 1581 1522 
L 1381 1569 
Q 847 1681 609 1914 
Q 372 2147 372 2553 
Q 372 3047 722 3315 
Q 1072 3584 1716 3584 
Q 2034 3584 2315 3537 
Q 2597 3491 2834 3397 
z
" transform="scale(0.015625)"/>
      <path id="DejaVuSans-6f" d="M 1959 3097 
Q 1497 3097 1228 2736 
Q 959 2375 959 1747 
Q 959 1119 1226 758 
Q 1494 397 1959 397 
Q 2419 397 2687 759 
Q 2956 1122 2956 1747 
Q 2956 2369 2687 2733 
Q 2419 3097 1959 3097 
z
M 1959 3584 
Q 2709 3584 3137 3096 
Q 3566 2609 3566 1747 
Q 3566 888 3137 398 
Q 2709 -91 1959 -91 
Q 1206 -91 779 398 
Q 353 888 353 1747 
Q 353 2609 779 3096 
Q 1206 3584 1959 3584 
z
" transform="scale(0.015625)"/>
      <path id="DejaVuSans-75" d="M 544 1381 
L 544 3500 
L 1119 3500 
L 1119 1403 
Q 1119 906 1312 657 
Q 1506 409 1894 409 
Q 2359 409 2629 706 
Q 2900 1003 2900 1516 
L 2900 3500 
L 3475 3500 
L 3475 0 
L 2900 0 
L 2900 538 
Q 2691 219 2414 64 
Q 2138 -91 1772 -91 
Q 1169 -91 856 284 
Q 544 659 544 1381 
z
M 1991 3584 
L 1991 3584 
z
" transform="scale(0.015625)"/>
      <path id="DejaVuSans-72" d="M 2631 2963 
Q 2534 3019 2420 3045 
Q 2306 3072 2169 3072 
Q 1681 3072 1420 2755 
Q 1159 2438 1159 1844 
L 1159 0 
L 581 0 
L 581 3500 
L 1159 3500 
L 1159 2956 
Q 1341 3275 1631 3429 
Q 1922 3584 2338 3584 
Q 2397 3584 2469 3576 
Q 2541 3569 2628 3553 
L 2631 2963 
z
" transform="scale(0.015625)"/>
      <path id="DejaVuSans-63" d="M 3122 3366 
L 3122 2828 
Q 2878 2963 2633 3030 
Q 2388 3097 2138 3097 
Q 1578 3097 1268 2742 
Q 959 2388 959 1747 
Q 959 1106 1268 751 
Q 1578 397 2138 397 
Q 2388 397 2633 464 
Q 2878 531 3122 666 
L 3122 134 
Q 2881 22 2623 -34 
Q 2366 -91 2075 -91 
Q 1284 -91 818 406 
Q 353 903 353 1747 
Q 353 2603 823 3093 
Q 1294 3584 2113 3584 
Q 2378 3584 2631 3529 
Q 2884 3475 3122 3366 
z
" transform="scale(0.015625)"/>
      <path id="DejaVuSans-65" d="M 3597 1894 
L 3597 1613 
L 953 1613 
Q 991 1019 1311 708 
Q 1631 397 2203 397 
Q 2534 397 2845 478 
Q 3156 559 3463 722 
L 3463 178 
Q 3153 47 2828 -22 
Q 2503 -91 2169 -91 
Q 1331 -91 842 396 
Q 353 884 353 1716 
Q 353 2575 817 3079 
Q 1281 3584 2069 3584 
Q 2775 3584 3186 3129 
Q 3597 2675 3597 1894 
z
M 3022 2063 
Q 3016 2534 2758 2815 
Q 2500 3097 2075 3097 
Q 1594 3097 1305 2825 
Q 1016 2553 972 2059 
L 3022 2063 
z
" transform="scale(0.015625)"/>
      <path id="DejaVuSans-2d" d="M 313 2009 
L 1997 2009 
L 1997 1497 
L 313 1497 
L 313 2009 
z
" transform="scale(0.015625)"/>
      <path id="DejaVuSans-69" d="M 603 3500 
L 1178 3500 
L 1178 0 
L 603 0 
L 603 3500 
z
M 603 4863 
L 1178 4863 
L 1178 4134 
L 603 4134 
L 603 4863 
z
" transform="scale(0.015625)"/>
      <path id="DejaVuSans-76" d="M 191 3500 
L 800 3500 
L 1894 563 
L 2988 3500 
L 3597 3500 
L 2284 0 
L 1503 0 
L 191 3500 
z
" transform="scale(0.015625)"/>
     </defs>
     <use xlink:href="#DejaVuSans-73"/>
     <use xlink:href="#DejaVuSans-6f" x="52.099609"/>
     <use xlink:href="#DejaVuSans-75" x="113.28125"/>
     <use xlink:href="#DejaVuSans-72" x="176.660156"/>
     <use xlink:href="#DejaVuSans-63" x="215.523438"/>
     <use xlink:href="#DejaVuSans-65" x="270.503906"/>
     <use xlink:href="#DejaVuSans-32" x="332.027344"/>
     <use xlink:href="#DejaVuSans-32" x="395.650391"/>
     <use xlink:href="#DejaVuSans-2d" x="459.273438"/>
     <use xlink:href="#DejaVuSans-72" x="495.357422"/>
     <use xlink:href="#DejaVuSans-65" x="534.220703"/>
     <use xlink:href="#DejaVuSans-63" x="595.744141"/>
     <use xlink:href="#DejaVuSans-65" x="650.724609"/>
     <use xlink:href="#DejaVuSans-69" x="712.248047"/>
     <use xlink:href="#DejaVuSans-76" x="740.03125"/>
     <use xlink:href="#DejaVuSans-65" x="799.210938"/>
     <use xlink:href="#DejaVuSans-72" x="860.734375"/>
     <use xlink:href="#DejaVuSans-32" x="901.847656"/>
     <use xlink:href="#DejaVuSans-30" x="965.470703"/>
    </g>
   </g>
  </g>
 </g>
 <defs>
  <clipPath id="p1e5e795842">
   <rect x="180" y="69.12" width="1116" height="443.52"/>
  </clipPath>
 </defs>
</svg>
