<?xml version="1.0" encoding="utf-8" standalone="no"?>
<!DOCTYPE svg PUBLIC "-//W3C//DTD SVG 1.1//EN"
  "http://www.w3.org/Graphics/SVG/1.1/DTD/svg11.dtd">
<svg xmlns:xlink="http://www.w3.org/1999/xlink" width="1440pt" height="576pt" viewBox="0 0 1440 576" xmlns="http://www.w3.org/2000/svg" version="1.1">
 <metadata>
  <rdf:RDF xmlns:dc="http://purl.org/dc/elements/1.1/" xmlns:cc="http://creativecommons.org/ns#" xmlns:rdf="http://www.w3.org/1999/02/22-rdf-syntax-ns#">
   <cc:Work>
    <dc:type rdf:resource="http://purl.org/dc/dcmitype/StillImage"/>
    <dc:date>2024-05-22T04:50:21.466815</dc:date>
    <dc:format>image/svg+xml</dc:format>
    <dc:creator>
     <cc:Agent>
      <dc:title>Matplotlib v3.8.3, https://matplotlib.org/</dc:title>
     </cc:Agent>
    </dc:creator>
   </cc:Work>
  </rdf:RDF>
 </metadata>
 <defs>
  <style type="text/css">*{stroke-linejoin: round; stroke-linecap: butt}</style>
 </defs>
 <g id="figure_1">
  <g id="patch_1">
   <path d="M 0 576 
L 1440 576 
L 1440 0 
L 0 0 
z
" style="fill: #ffffff"/>
  </g>
  <g id="axes_1">
   <g id="patch_2">
    <path d="M 180 512.64 
L 1296 512.64 
L 1296 69.12 
L 180 69.12 
z
" style="fill: #ffffff"/>
   </g>
   <g id="matplotlib.axis_1">
    <g id="xtick_1">
     <g id="line2d_1">
      <defs>
       <path id="m74bb1b31f7" d="M 0 0 
L 0 3.5 
" style="stroke: #000000; stroke-width: 0.8"/>
      </defs>
      <g>
       <use xlink:href="#m74bb1b31f7" x="229.734567" y="512.64" style="stroke: #000000; stroke-width: 0.8"/>
      </g>
     </g>
     <g id="text_1">
      <!-- 0 -->
      <g transform="translate(226.553317 527.238438) scale(0.1 -0.1)">
       <defs>
        <path id="DejaVuSans-30" d="M 2034 4250 
Q 1547 4250 1301 3770 
Q 1056 3291 1056 2328 
Q 1056 1369 1301 889 
Q 1547 409 2034 409 
Q 2525 409 2770 889 
Q 3016 1369 3016 2328 
Q 3016 3291 2770 3770 
Q 2525 4250 2034 4250 
z
M 2034 4750 
Q 2819 4750 3233 4129 
Q 3647 3509 3647 2328 
Q 3647 1150 3233 529 
Q 2819 -91 2034 -91 
Q 1250 -91 836 529 
Q 422 1150 422 2328 
Q 422 3509 836 4129 
Q 1250 4750 2034 4750 
z
" transform="scale(0.015625)"/>
       </defs>
       <use xlink:href="#DejaVuSans-30"/>
      </g>
     </g>
    </g>
    <g id="xtick_2">
     <g id="line2d_2">
      <g>
       <use xlink:href="#m74bb1b31f7" x="433.04074" y="512.64" style="stroke: #000000; stroke-width: 0.8"/>
      </g>
     </g>
     <g id="text_2">
      <!-- 500 -->
      <g transform="translate(423.49699 527.238438) scale(0.1 -0.1)">
       <defs>
        <path id="DejaVuSans-35" d="M 691 4666 
L 3169 4666 
L 3169 4134 
L 1269 4134 
L 1269 2991 
Q 1406 3038 1543 3061 
Q 1681 3084 1819 3084 
Q 2600 3084 3056 2656 
Q 3513 2228 3513 1497 
Q 3513 744 3044 326 
Q 2575 -91 1722 -91 
Q 1428 -91 1123 -41 
Q 819 9 494 109 
L 494 744 
Q 775 591 1075 516 
Q 1375 441 1709 441 
Q 2250 441 2565 725 
Q 2881 1009 2881 1497 
Q 2881 1984 2565 2268 
Q 2250 2553 1709 2553 
Q 1456 2553 1204 2497 
Q 953 2441 691 2322 
L 691 4666 
z
" transform="scale(0.015625)"/>
       </defs>
       <use xlink:href="#DejaVuSans-35"/>
       <use xlink:href="#DejaVuSans-30" x="63.623047"/>
       <use xlink:href="#DejaVuSans-30" x="127.246094"/>
      </g>
     </g>
    </g>
    <g id="xtick_3">
     <g id="line2d_3">
      <g>
       <use xlink:href="#m74bb1b31f7" x="636.346913" y="512.64" style="stroke: #000000; stroke-width: 0.8"/>
      </g>
     </g>
     <g id="text_3">
      <!-- 1000 -->
      <g transform="translate(623.621913 527.238438) scale(0.1 -0.1)">
       <defs>
        <path id="DejaVuSans-31" d="M 794 531 
L 1825 531 
L 1825 4091 
L 703 3866 
L 703 4441 
L 1819 4666 
L 2450 4666 
L 2450 531 
L 3481 531 
L 3481 0 
L 794 0 
L 794 531 
z
" transform="scale(0.015625)"/>
       </defs>
       <use xlink:href="#DejaVuSans-31"/>
       <use xlink:href="#DejaVuSans-30" x="63.623047"/>
       <use xlink:href="#DejaVuSans-30" x="127.246094"/>
       <use xlink:href="#DejaVuSans-30" x="190.869141"/>
      </g>
     </g>
    </g>
    <g id="xtick_4">
     <g id="line2d_4">
      <g>
       <use xlink:href="#m74bb1b31f7" x="839.653087" y="512.64" style="stroke: #000000; stroke-width: 0.8"/>
      </g>
     </g>
     <g id="text_4">
      <!-- 1500 -->
      <g transform="translate(826.928087 527.238438) scale(0.1 -0.1)">
       <use xlink:href="#DejaVuSans-31"/>
       <use xlink:href="#DejaVuSans-35" x="63.623047"/>
       <use xlink:href="#DejaVuSans-30" x="127.246094"/>
       <use xlink:href="#DejaVuSans-30" x="190.869141"/>
      </g>
     </g>
    </g>
    <g id="xtick_5">
     <g id="line2d_5">
      <g>
       <use xlink:href="#m74bb1b31f7" x="1042.95926" y="512.64" style="stroke: #000000; stroke-width: 0.8"/>
      </g>
     </g>
     <g id="text_5">
      <!-- 2000 -->
      <g transform="translate(1030.23426 527.238438) scale(0.1 -0.1)">
       <defs>
        <path id="DejaVuSans-32" d="M 1228 531 
L 3431 531 
L 3431 0 
L 469 0 
L 469 531 
Q 828 903 1448 1529 
Q 2069 2156 2228 2338 
Q 2531 2678 2651 2914 
Q 2772 3150 2772 3378 
Q 2772 3750 2511 3984 
Q 2250 4219 1831 4219 
Q 1534 4219 1204 4116 
Q 875 4013 500 3803 
L 500 4441 
Q 881 4594 1212 4672 
Q 1544 4750 1819 4750 
Q 2544 4750 2975 4387 
Q 3406 4025 3406 3419 
Q 3406 3131 3298 2873 
Q 3191 2616 2906 2266 
Q 2828 2175 2409 1742 
Q 1991 1309 1228 531 
z
" transform="scale(0.015625)"/>
       </defs>
       <use xlink:href="#DejaVuSans-32"/>
       <use xlink:href="#DejaVuSans-30" x="63.623047"/>
       <use xlink:href="#DejaVuSans-30" x="127.246094"/>
       <use xlink:href="#DejaVuSans-30" x="190.869141"/>
      </g>
     </g>
    </g>
    <g id="xtick_6">
     <g id="line2d_6">
      <g>
       <use xlink:href="#m74bb1b31f7" x="1246.265433" y="512.64" style="stroke: #000000; stroke-width: 0.8"/>
      </g>
     </g>
     <g id="text_6">
      <!-- 2500 -->
      <g transform="translate(1233.540433 527.238438) scale(0.1 -0.1)">
       <use xlink:href="#DejaVuSans-32"/>
       <use xlink:href="#DejaVuSans-35" x="63.623047"/>
       <use xlink:href="#DejaVuSans-30" x="127.246094"/>
       <use xlink:href="#DejaVuSans-30" x="190.869141"/>
      </g>
     </g>
    </g>
   </g>
   <g id="matplotlib.axis_2">
    <g id="ytick_1">
     <g id="line2d_7">
      <defs>
       <path id="mc27ee5ebe0" d="M 0 0 
L -3.5 0 
" style="stroke: #000000; stroke-width: 0.8"/>
      </defs>
      <g>
       <use xlink:href="#mc27ee5ebe0" x="180" y="450.369374" style="stroke: #000000; stroke-width: 0.8"/>
      </g>
     </g>
     <g id="text_7">
      <!-- −8 -->
      <g transform="translate(158.257812 454.168593) scale(0.1 -0.1)">
       <defs>
        <path id="DejaVuSans-2212" d="M 678 2272 
L 4684 2272 
L 4684 1741 
L 678 1741 
L 678 2272 
z
" transform="scale(0.015625)"/>
        <path id="DejaVuSans-38" d="M 2034 2216 
Q 1584 2216 1326 1975 
Q 1069 1734 1069 1313 
Q 1069 891 1326 650 
Q 1584 409 2034 409 
Q 2484 409 2743 651 
Q 3003 894 3003 1313 
Q 3003 1734 2745 1975 
Q 2488 2216 2034 2216 
z
M 1403 2484 
Q 997 2584 770 2862 
Q 544 3141 544 3541 
Q 544 4100 942 4425 
Q 1341 4750 2034 4750 
Q 2731 4750 3128 4425 
Q 3525 4100 3525 3541 
Q 3525 3141 3298 2862 
Q 3072 2584 2669 2484 
Q 3125 2378 3379 2068 
Q 3634 1759 3634 1313 
Q 3634 634 3220 271 
Q 2806 -91 2034 -91 
Q 1263 -91 848 271 
Q 434 634 434 1313 
Q 434 1759 690 2068 
Q 947 2378 1403 2484 
z
M 1172 3481 
Q 1172 3119 1398 2916 
Q 1625 2713 2034 2713 
Q 2441 2713 2670 2916 
Q 2900 3119 2900 3481 
Q 2900 3844 2670 4047 
Q 2441 4250 2034 4250 
Q 1625 4250 1398 4047 
Q 1172 3844 1172 3481 
z
" transform="scale(0.015625)"/>
       </defs>
       <use xlink:href="#DejaVuSans-2212"/>
       <use xlink:href="#DejaVuSans-38" x="83.789062"/>
      </g>
     </g>
    </g>
    <g id="ytick_2">
     <g id="line2d_8">
      <g>
       <use xlink:href="#mc27ee5ebe0" x="180" y="364.878775" style="stroke: #000000; stroke-width: 0.8"/>
      </g>
     </g>
     <g id="text_8">
      <!-- −6 -->
      <g transform="translate(158.257812 368.677994) scale(0.1 -0.1)">
       <defs>
        <path id="DejaVuSans-36" d="M 2113 2584 
Q 1688 2584 1439 2293 
Q 1191 2003 1191 1497 
Q 1191 994 1439 701 
Q 1688 409 2113 409 
Q 2538 409 2786 701 
Q 3034 994 3034 1497 
Q 3034 2003 2786 2293 
Q 2538 2584 2113 2584 
z
M 3366 4563 
L 3366 3988 
Q 3128 4100 2886 4159 
Q 2644 4219 2406 4219 
Q 1781 4219 1451 3797 
Q 1122 3375 1075 2522 
Q 1259 2794 1537 2939 
Q 1816 3084 2150 3084 
Q 2853 3084 3261 2657 
Q 3669 2231 3669 1497 
Q 3669 778 3244 343 
Q 2819 -91 2113 -91 
Q 1303 -91 875 529 
Q 447 1150 447 2328 
Q 447 3434 972 4092 
Q 1497 4750 2381 4750 
Q 2619 4750 2861 4703 
Q 3103 4656 3366 4563 
z
" transform="scale(0.015625)"/>
       </defs>
       <use xlink:href="#DejaVuSans-2212"/>
       <use xlink:href="#DejaVuSans-36" x="83.789062"/>
      </g>
     </g>
    </g>
    <g id="ytick_3">
     <g id="line2d_9">
      <g>
       <use xlink:href="#mc27ee5ebe0" x="180" y="279.388176" style="stroke: #000000; stroke-width: 0.8"/>
      </g>
     </g>
     <g id="text_9">
      <!-- −4 -->
      <g transform="translate(158.257812 283.187395) scale(0.1 -0.1)">
       <defs>
        <path id="DejaVuSans-34" d="M 2419 4116 
L 825 1625 
L 2419 1625 
L 2419 4116 
z
M 2253 4666 
L 3047 4666 
L 3047 1625 
L 3713 1625 
L 3713 1100 
L 3047 1100 
L 3047 0 
L 2419 0 
L 2419 1100 
L 313 1100 
L 313 1709 
L 2253 4666 
z
" transform="scale(0.015625)"/>
       </defs>
       <use xlink:href="#DejaVuSans-2212"/>
       <use xlink:href="#DejaVuSans-34" x="83.789062"/>
      </g>
     </g>
    </g>
    <g id="ytick_4">
     <g id="line2d_10">
      <g>
       <use xlink:href="#mc27ee5ebe0" x="180" y="193.897577" style="stroke: #000000; stroke-width: 0.8"/>
      </g>
     </g>
     <g id="text_10">
      <!-- −2 -->
      <g transform="translate(158.257812 197.696796) scale(0.1 -0.1)">
       <use xlink:href="#DejaVuSans-2212"/>
       <use xlink:href="#DejaVuSans-32" x="83.789062"/>
      </g>
     </g>
    </g>
    <g id="ytick_5">
     <g id="line2d_11">
      <g>
       <use xlink:href="#mc27ee5ebe0" x="180" y="108.406978" style="stroke: #000000; stroke-width: 0.8"/>
      </g>
     </g>
     <g id="text_11">
      <!-- 0 -->
      <g transform="translate(166.6375 112.206197) scale(0.1 -0.1)">
       <use xlink:href="#DejaVuSans-30"/>
      </g>
     </g>
    </g>
   </g>
   <g id="line2d_12">
    <path d="M 230.727273 267.516711 
L 231.719979 261.055601 
L 232.712685 265.825376 
L 233.70539 260.823344 
L 234.698096 262.677906 
L 235.690802 260.707765 
L 236.683508 262.619353 
L 237.676214 259.826198 
L 238.66892 260.501501 
L 239.661626 260.455744 
L 240.654332 260.777787 
L 241.647038 262.452484 
L 242.639744 259.678992 
L 243.63245 259.90862 
L 244.625156 258.328564 
L 245.617862 255.974573 
L 247.603273 251.734554 
L 248.595979 239.420244 
L 249.588685 231.016002 
L 250.581391 237.163344 
L 251.574097 265.723418 
L 252.566803 203.650342 
L 253.559509 204.41431 
L 254.552215 191.229274 
L 255.544921 181.722897 
L 256.537627 181.639943 
L 257.530333 165.006394 
L 258.523039 190.730591 
L 259.515745 182.267733 
L 260.50845 197.560215 
L 261.501156 175.78219 
L 262.493862 150.641286 
L 263.486568 145.664043 
L 264.479274 154.972231 
L 265.47198 142.276236 
L 266.464686 134.320008 
L 267.457392 122.963284 
L 268.450098 131.316303 
L 269.442804 136.323406 
L 270.43551 153.181821 
L 272.420922 217.041777 
L 273.413627 208.280938 
L 274.406333 208.327435 
L 275.399039 140.950837 
L 276.391745 105.489656 
L 277.384451 92.050131 
L 278.377157 89.28 
L 280.362569 120.524779 
L 281.355275 110.993184 
L 282.347981 115.727652 
L 283.340687 128.426088 
L 284.333393 169.629917 
L 285.326099 151.529644 
L 286.318804 142.954464 
L 287.31151 152.152993 
L 288.304216 190.26477 
L 289.296922 211.994644 
L 290.289628 171.834765 
L 291.282334 185.27528 
L 292.27504 235.573495 
L 293.267746 220.678423 
L 294.260452 180.95075 
L 295.253158 164.411986 
L 296.245864 165.030646 
L 297.23857 188.371029 
L 298.231276 162.520086 
L 299.223981 148.022798 
L 300.216687 182.443972 
L 301.209393 183.166528 
L 302.202099 200.408207 
L 303.194805 241.546103 
L 304.187511 189.675596 
L 305.180217 195.972015 
L 306.172923 317.051014 
L 307.165629 180.860056 
L 308.158335 187.484875 
L 309.151041 241.495703 
L 310.143747 243.126991 
L 311.136453 257.470048 
L 312.129159 238.362264 
L 313.121864 260.255179 
L 314.11457 257.061505 
L 315.107276 253.350441 
L 316.099982 251.973524 
L 317.092688 247.962519 
L 318.085394 251.132826 
L 319.0781 284.959217 
L 320.070806 233.800154 
L 321.063512 250.609954 
L 322.056218 277.4377 
L 323.048924 325.395413 
L 324.04163 252.713009 
L 325.034336 242.464882 
L 326.027041 234.56193 
L 327.019747 258.238217 
L 328.012453 247.723014 
L 329.005159 274.557243 
L 329.997865 240.940747 
L 330.990571 270.955199 
L 331.983277 255.628017 
L 332.975983 379.919519 
L 333.968689 251.551499 
L 334.961395 230.452814 
L 335.954101 236.820859 
L 336.946807 214.523722 
L 337.939513 217.597497 
L 338.932218 229.316637 
L 339.924924 354.16509 
L 340.91763 204.279743 
L 341.910336 266.857285 
L 342.903042 235.9306 
L 343.895748 228.907731 
L 344.888454 293.079874 
L 345.88116 228.135044 
L 346.873866 246.42287 
L 347.866572 247.55361 
L 348.859278 245.661268 
L 349.851984 233.163976 
L 350.84469 256.054039 
L 351.837395 270.550915 
L 352.830101 238.823536 
L 353.822807 344.936064 
L 354.815513 251.886813 
L 356.800925 223.318998 
L 357.793631 242.630558 
L 358.786337 251.470439 
L 359.779043 272.0799 
L 360.771749 288.023621 
L 361.764455 250.350327 
L 363.749867 195.11493 
L 364.742572 209.189751 
L 365.735278 197.577473 
L 366.727984 235.753726 
L 367.72069 208.979355 
L 368.713396 238.587535 
L 369.706102 258.762329 
L 370.698808 268.201874 
L 371.691514 241.111652 
L 372.68422 224.705648 
L 373.676926 308.578053 
L 374.669632 214.367749 
L 375.662338 334.541162 
L 376.655044 216.610811 
L 377.64775 243.973496 
L 378.640455 210.509141 
L 379.633161 217.950454 
L 380.625867 271.244989 
L 381.618573 205.730209 
L 382.611279 248.537836 
L 383.603985 230.796671 
L 384.596691 271.970453 
L 385.589397 258.516667 
L 386.582103 217.759439 
L 387.574809 240.098923 
L 388.567515 249.674916 
L 389.560221 202.547574 
L 390.552927 185.067973 
L 391.545632 170.868624 
L 392.538338 177.220074 
L 393.531044 179.939861 
L 394.52375 181.328813 
L 395.516456 208.350151 
L 396.509162 230.763049 
L 397.501868 234.930581 
L 398.494574 218.013984 
L 399.48728 247.291056 
L 400.479986 327.153452 
L 401.472692 214.706495 
L 402.465398 301.292972 
L 403.458104 241.686779 
L 404.450809 276.295057 
L 405.443515 201.84517 
L 406.436221 225.544115 
L 407.428927 219.402843 
L 408.421633 298.818735 
L 409.414339 262.630999 
L 410.407045 210.341107 
L 411.399751 284.16562 
L 412.392457 218.338403 
L 413.385163 302.229344 
L 414.377869 236.020723 
L 415.370575 245.864361 
L 416.363281 251.089165 
L 417.355986 188.339993 
L 418.348692 164.444991 
L 419.341398 158.009145 
L 420.334104 154.547022 
L 421.32681 159.793786 
L 422.319516 188.892501 
L 423.312222 172.681072 
L 424.304928 203.489931 
L 425.297634 206.014813 
L 427.283046 258.079546 
L 428.275752 206.778404 
L 429.268458 207.038848 
L 430.261163 300.347655 
L 431.253869 207.80755 
L 432.246575 200.548964 
L 433.239281 197.923819 
L 434.231987 305.124152 
L 435.224693 236.354925 
L 436.217399 227.855755 
L 437.210105 230.982868 
L 438.202811 265.85299 
L 439.195517 194.680196 
L 440.188223 268.065138 
L 441.180929 233.524492 
L 442.173635 246.117888 
L 443.166341 246.162465 
L 444.159046 220.438245 
L 445.151752 202.70068 
L 446.144458 205.57812 
L 447.137164 191.212713 
L 448.12987 191.562927 
L 449.122576 201.56262 
L 450.115282 269.36732 
L 451.107988 265.995953 
L 452.100694 325.773706 
L 453.0934 219.491196 
L 454.086106 249.006118 
L 455.078812 264.712749 
L 456.071518 350.144255 
L 457.064223 257.645026 
L 458.056929 240.044114 
L 459.049635 256.244098 
L 460.042341 251.056991 
L 461.035047 243.591571 
L 462.027753 252.337702 
L 463.020459 248.792536 
L 464.013165 249.235635 
L 465.005871 236.083003 
L 465.998577 249.279405 
L 466.991283 247.241339 
L 467.983989 259.607312 
L 468.976695 306.575497 
L 469.9694 249.03416 
L 470.962106 231.316587 
L 471.954812 300.186998 
L 472.947518 259.830049 
L 473.940224 265.854741 
L 474.93293 248.615881 
L 475.925636 216.259096 
L 476.918342 269.126678 
L 477.911048 266.896002 
L 478.903754 259.617279 
L 479.89646 262.062372 
L 480.889166 280.679102 
L 481.881872 398.914981 
L 482.874577 232.504659 
L 483.867283 243.844881 
L 484.859989 322.928011 
L 485.852695 244.436481 
L 486.845401 258.588606 
L 487.838107 316.023379 
L 488.830813 252.727811 
L 489.823519 281.680173 
L 490.816225 291.371735 
L 491.808931 241.201428 
L 492.801637 277.262988 
L 493.794343 250.179737 
L 494.787049 230.644514 
L 495.779754 273.924066 
L 496.77246 260.653956 
L 497.765166 231.326555 
L 498.757872 244.930967 
L 499.750578 214.14466 
L 500.743284 198.471183 
L 501.73599 204.364648 
L 502.728696 211.802251 
L 503.721402 213.289945 
L 504.714108 229.58851 
L 505.706814 217.964761 
L 506.69952 218.978468 
L 507.692226 246.526279 
L 508.684932 262.408601 
L 509.677637 285.184286 
L 510.670343 363.807652 
L 511.663049 250.712086 
L 512.655755 246.75503 
L 513.648461 213.66062 
L 514.641167 246.335517 
L 515.633873 217.625882 
L 516.626579 240.700208 
L 517.619285 295.942525 
L 518.611991 277.856418 
L 519.604697 311.503112 
L 520.597403 288.933783 
L 521.590109 217.862517 
L 522.582814 291.17663 
L 523.57552 250.761202 
L 524.568226 272.276386 
L 525.560932 336.02933 
L 526.553638 201.454524 
L 527.546344 194.82185 
L 528.53905 185.577411 
L 529.531756 190.929912 
L 530.524462 181.585919 
L 531.517168 213.496724 
L 532.509874 215.600651 
L 533.50258 256.630624 
L 534.495286 201.199166 
L 535.487991 261.28531 
L 536.480697 244.424222 
L 537.473403 245.881359 
L 538.466109 250.539503 
L 539.458815 226.239007 
L 540.451521 229.006949 
L 541.444227 218.073233 
L 542.436933 211.819118 
L 543.429639 246.566271 
L 544.422345 211.751482 
L 545.415051 237.325276 
L 546.407757 247.747466 
L 547.400463 278.927634 
L 548.393168 204.278189 
L 549.385874 254.338467 
L 550.37858 275.71417 
L 551.371286 226.808006 
L 552.363992 223.512788 
L 553.356698 239.95332 
L 554.349404 184.052872 
L 555.34211 185.343552 
L 556.334816 183.794551 
L 557.327522 193.575833 
L 558.320228 194.279869 
L 559.312934 225.450439 
L 560.30564 219.708309 
L 562.291051 324.025667 
L 563.283757 256.671836 
L 564.276463 294.021973 
L 565.269169 239.145768 
L 566.261875 288.686301 
L 567.254581 324.803745 
L 568.247287 233.755884 
L 569.239993 313.447173 
L 570.232699 245.586742 
L 571.225405 262.014742 
L 572.218111 303.206854 
L 573.210817 248.831056 
L 574.203523 286.308164 
L 575.196228 283.078673 
L 576.188934 262.447895 
L 577.18164 246.79 
L 578.174346 307.098601 
L 579.167052 292.061104 
L 580.159758 259.561969 
L 581.152464 237.518726 
L 582.14517 259.317988 
L 583.137876 246.625221 
L 584.130582 253.332314 
L 585.123288 231.393782 
L 586.115994 263.509957 
L 587.1087 259.816071 
L 588.101405 314.693695 
L 589.094111 244.311577 
L 590.086817 277.115677 
L 591.079523 276.150778 
L 592.072229 259.322545 
L 593.064935 270.666365 
L 594.057641 361.748189 
L 595.050347 249.414391 
L 596.043053 257.583612 
L 597.035759 269.772825 
L 598.028465 270.730225 
L 599.021171 294.006289 
L 600.013877 287.609651 
L 601.006582 273.425876 
L 601.999288 252.380434 
L 602.991994 290.970922 
L 603.9847 278.409712 
L 604.977406 277.653875 
L 605.970112 251.837143 
L 606.962818 262.113965 
L 607.955524 277.224652 
L 608.94823 265.354487 
L 609.940936 291.350331 
L 610.933642 302.172247 
L 611.926348 258.484597 
L 613.911759 294.318721 
L 614.904465 257.74276 
L 615.897171 258.700175 
L 616.889877 392.194761 
L 617.882583 314.771868 
L 618.875289 279.961625 
L 619.867995 277.153133 
L 620.860701 282.619672 
L 621.853407 303.72666 
L 622.846113 285.003445 
L 623.838819 258.959671 
L 624.831525 311.654871 
L 625.824231 288.144258 
L 626.816936 293.047465 
L 627.809642 281.435619 
L 628.802348 285.181058 
L 629.795054 294.600854 
L 630.78776 279.329836 
L 631.780466 316.97827 
L 632.773172 308.242996 
L 633.765878 327.859415 
L 634.758584 332.175009 
L 635.75129 299.878918 
L 636.743996 309.840554 
L 637.736702 369.668737 
L 638.729408 316.227856 
L 639.722114 317.83673 
L 640.714819 278.781624 
L 641.707525 375.79917 
L 642.700231 306.856543 
L 643.692937 339.616237 
L 644.685643 295.192965 
L 645.678349 294.946967 
L 646.671055 321.556023 
L 647.663761 318.567804 
L 648.656467 339.185007 
L 649.649173 308.136807 
L 650.641879 328.405657 
L 651.634585 329.222373 
L 652.627291 318.957394 
L 653.619996 342.371261 
L 654.612702 312.040638 
L 655.605408 341.05722 
L 656.598114 335.690402 
L 657.59082 324.376914 
L 658.583526 357.557308 
L 659.576232 357.660206 
L 660.568938 333.413373 
L 661.561644 361.225686 
L 662.55435 324.067032 
L 663.547056 387.230284 
L 664.539762 360.333969 
L 665.532468 321.695141 
L 666.525173 312.27711 
L 667.517879 337.490194 
L 668.510585 351.794762 
L 669.503291 380.924502 
L 670.495997 344.553409 
L 671.488703 351.92727 
L 672.481409 376.647911 
L 673.474115 325.309209 
L 674.466821 314.995151 
L 675.459527 358.874639 
L 676.452233 396.268127 
L 677.444939 309.818093 
L 678.437645 348.730984 
L 679.43035 312.022341 
L 680.423056 319.748132 
L 681.415762 323.146095 
L 682.408468 347.017557 
L 683.401174 397.319971 
L 684.39388 335.168501 
L 685.386586 340.970573 
L 686.379292 327.713059 
L 687.371998 336.213135 
L 688.364704 358.37116 
L 689.35741 350.011366 
L 690.350116 359.256251 
L 691.342822 342.298441 
L 692.335527 393.247951 
L 693.328233 335.132894 
L 694.320939 340.477352 
L 695.313645 337.747445 
L 696.306351 358.43045 
L 697.299057 342.653108 
L 698.291763 352.552267 
L 699.284469 347.744461 
L 700.277175 345.317838 
L 701.269881 363.727532 
L 702.262587 373.370123 
L 703.255293 359.312662 
L 704.247999 391.078743 
L 705.240705 361.115381 
L 706.23341 375.486691 
L 708.218822 343.269222 
L 709.211528 365.528995 
L 710.204234 358.481493 
L 711.19694 367.863754 
L 712.189646 395.892639 
L 713.182352 429.803179 
L 714.175058 402.628585 
L 715.167764 382.799461 
L 716.16047 386.324176 
L 717.153176 350.421203 
L 718.145882 371.816146 
L 719.138587 350.30725 
L 720.131293 412.291649 
L 721.123999 428.077145 
L 722.116705 351.22313 
L 723.109411 366.581577 
L 724.102117 365.55599 
L 725.094823 361.065972 
L 726.087529 347.288769 
L 727.080235 371.557122 
L 728.072941 361.912073 
L 729.065647 355.030765 
L 730.058353 386.327869 
L 731.051059 362.216929 
L 732.043764 359.586914 
L 734.029176 396.795532 
L 735.021882 438.274313 
L 736.014588 355.236923 
L 737.007294 409.144414 
L 738 373.315677 
L 738.992706 377.261083 
L 739.985412 369.755678 
L 740.978118 383.188021 
L 742.96353 375.393775 
L 743.956236 399.765438 
L 744.948941 366.798862 
L 745.941647 431.40168 
L 746.934353 374.120751 
L 747.927059 358.947348 
L 748.919765 380.21295 
L 749.912471 376.474605 
L 750.905177 366.607188 
L 751.897883 359.389808 
L 752.890589 377.23304 
L 753.883295 382.672541 
L 754.876001 382.640599 
L 755.868707 407.230472 
L 756.861413 366.432724 
L 757.854118 354.728079 
L 758.846824 363.808937 
L 759.83953 382.730383 
L 760.832236 353.046862 
L 761.824942 356.236895 
L 762.817648 349.375669 
L 763.810354 381.927578 
L 764.80306 390.16899 
L 765.795766 379.986272 
L 766.788472 381.466281 
L 767.781178 434.85419 
L 768.773884 382.073545 
L 769.76659 375.850399 
L 770.759295 374.385347 
L 771.752001 371.37221 
L 772.744707 374.73575 
L 773.737413 369.669748 
L 774.730119 357.63426 
L 775.722825 371.86859 
L 776.715531 374.50755 
L 777.708237 377.865462 
L 778.700943 384.53328 
L 779.693649 367.251321 
L 780.686355 377.569934 
L 781.679061 361.540752 
L 782.671767 395.037631 
L 783.664473 409.922474 
L 784.657178 363.552624 
L 785.649884 357.449271 
L 786.64259 402.046974 
L 787.635296 359.358339 
L 788.628002 375.992134 
L 789.620708 406.222017 
L 790.613414 403.141633 
L 791.60612 361.205769 
L 792.598826 383.093451 
L 793.591532 359.070426 
L 794.584238 378.32763 
L 795.576944 369.273183 
L 796.56965 352.723767 
L 797.562355 381.568071 
L 798.555061 358.094075 
L 799.547767 389.650907 
L 800.540473 401.867322 
L 801.533179 368.359453 
L 803.518591 387.301895 
L 804.511297 419.621841 
L 805.504003 399.457914 
L 806.496709 376.47029 
L 807.489415 382.47137 
L 808.482121 390.430928 
L 809.474827 395.183947 
L 810.467532 447.910397 
L 811.460238 381.041758 
L 812.452944 388.151211 
L 813.44565 383.358774 
L 814.438356 384.199106 
L 815.431062 378.524153 
L 816.423768 371.940143 
L 817.416474 385.166262 
L 818.40918 389.120588 
L 819.401886 373.807193 
L 820.394592 368.688025 
L 821.387298 369.578846 
L 822.380004 383.9947 
L 823.372709 392.166348 
L 824.365415 392.334 
L 825.358121 368.312981 
L 826.350827 380.793029 
L 827.343533 381.058396 
L 828.336239 393.630201 
L 829.328945 369.526443 
L 830.321651 361.06019 
L 831.314357 386.572897 
L 832.307063 390.792613 
L 833.299769 476.803062 
L 834.292475 364.59964 
L 835.285181 355.781034 
L 836.277886 388.712619 
L 837.270592 388.874128 
L 838.263298 428.857858 
L 839.256004 370.197779 
L 840.24871 375.691673 
L 841.241416 365.972434 
L 842.234122 370.893286 
L 843.226828 360.254371 
L 844.219534 385.363876 
L 845.21224 384.680577 
L 846.204946 376.809051 
L 847.197652 410.348669 
L 848.190358 380.111645 
L 849.183064 378.359352 
L 850.175769 374.582059 
L 851.168475 391.412119 
L 852.161181 416.401888 
L 853.153887 397.291326 
L 854.146593 399.159886 
L 855.139299 363.810569 
L 856.132005 373.084917 
L 857.124711 369.018802 
L 858.117417 401.854411 
L 859.110123 363.639389 
L 860.102829 394.727429 
L 861.095535 382.720316 
L 862.088241 352.212764 
L 863.080946 382.793358 
L 864.073652 377.770387 
L 865.066358 383.060013 
L 866.059064 373.310809 
L 867.05177 381.41902 
L 868.044476 372.870301 
L 869.037182 415.009708 
L 870.029888 375.207675 
L 871.022594 379.144255 
L 872.0153 385.796506 
L 873.008006 388.01632 
L 874.000712 383.685779 
L 874.993418 409.404886 
L 875.986123 389.0959 
L 876.978829 377.668368 
L 877.971535 374.631005 
L 878.964241 363.453064 
L 879.956947 372.394846 
L 880.949653 383.489315 
L 881.942359 379.710883 
L 882.935065 369.927673 
L 883.927771 373.78122 
L 884.920477 410.7586 
L 885.913183 402.949272 
L 886.905889 374.840875 
L 888.8913 391.773319 
L 889.884006 385.724589 
L 890.876712 422.212275 
L 891.869418 379.458858 
L 892.862124 394.267983 
L 893.85483 371.896938 
L 894.847536 391.863027 
L 896.832948 376.855134 
L 897.825654 381.262301 
L 898.81836 400.89045 
L 899.811066 414.218566 
L 900.803772 386.114697 
L 901.796477 366.601622 
L 902.789183 372.910597 
L 903.781889 373.252523 
L 904.774595 378.13337 
L 905.767301 392.548434 
L 906.760007 385.479267 
L 907.752713 376.910361 
L 908.745419 375.356231 
L 909.738125 390.459283 
L 910.730831 426.146588 
L 911.723537 356.876612 
L 912.716243 383.250336 
L 913.708949 390.628974 
L 914.701655 378.540305 
L 915.69436 380.251569 
L 916.687066 362.95665 
L 917.679772 376.867238 
L 918.672478 369.538669 
L 919.665184 377.554174 
L 920.65789 368.212466 
L 921.650596 381.850535 
L 922.643302 400.161606 
L 923.636008 378.500589 
L 924.628714 399.582077 
L 925.62142 408.989839 
L 926.614126 372.114402 
L 927.606832 401.917109 
L 928.599537 379.682116 
L 929.592243 383.672103 
L 930.584949 382.444513 
L 931.577655 429.324231 
L 933.563067 375.111073 
L 934.555773 381.175277 
L 935.548479 373.993634 
L 936.541185 383.478776 
L 937.533891 418.119258 
L 938.526597 379.917787 
L 939.519303 405.437255 
L 940.512009 385.296408 
L 941.504714 435.006969 
L 942.49742 386.372593 
L 943.490126 368.427758 
L 944.482832 422.792813 
L 945.475538 373.087531 
L 946.468244 390.526305 
L 947.46095 378.531415 
L 948.453656 401.309096 
L 949.446362 414.229697 
L 950.439068 389.332939 
L 951.431774 412.662673 
L 952.42448 373.606968 
L 953.417186 388.07007 
L 954.409891 400.33614 
L 955.402597 369.31709 
L 956.395303 404.958123 
L 957.388009 369.901287 
L 958.380715 379.938798 
L 959.373421 382.494111 
L 960.366127 415.283693 
L 961.358833 377.683064 
L 962.351539 378.719542 
L 963.344245 382.536304 
L 964.336951 435.725207 
L 965.329657 396.13733 
L 966.322363 365.034379 
L 967.315068 397.338461 
L 968.307774 381.154539 
L 969.30048 430.491046 
L 970.293186 397.53432 
L 971.285892 394.030747 
L 972.278598 406.210582 
L 973.271304 377.129562 
L 974.26401 370.211438 
L 975.256716 398.140798 
L 976.249422 411.164899 
L 977.242128 386.142414 
L 978.234834 365.220348 
L 979.22754 384.939311 
L 980.220246 371.764829 
L 981.212951 411.886636 
L 982.205657 369.03787 
L 983.198363 409.087949 
L 984.191069 386.061516 
L 985.183775 379.763068 
L 986.176481 406.384786 
L 987.169187 361.445033 
L 988.161893 451.072785 
L 989.154599 389.058764 
L 990.147305 389.063069 
L 991.140011 388.875706 
L 992.132717 381.928833 
L 993.125423 403.644323 
L 994.118128 391.336095 
L 995.110834 373.839938 
L 996.10354 394.66197 
L 997.096246 376.568001 
L 998.088952 480.99824 
L 999.081658 373.013786 
L 1001.06707 408.106969 
L 1002.059776 382.803707 
L 1003.052482 364.574465 
L 1004.045188 396.047176 
L 1005.037894 385.023454 
L 1006.0306 379.311092 
L 1007.023305 390.419747 
L 1008.016011 381.304693 
L 1009.008717 412.274506 
L 1010.001423 394.625778 
L 1010.994129 362.639228 
L 1011.986835 374.86863 
L 1012.979541 418.424852 
L 1013.972247 394.527584 
L 1014.964953 380.682249 
L 1015.957659 400.512438 
L 1016.950365 386.635045 
L 1017.943071 387.325986 
L 1018.935777 397.81599 
L 1019.928482 382.050044 
L 1020.921188 375.58054 
L 1021.913894 403.829867 
L 1022.9066 404.312032 
L 1023.899306 373.272647 
L 1024.892012 398.569612 
L 1025.884718 389.699182 
L 1026.877424 365.573328 
L 1027.87013 385.615823 
L 1028.862836 369.703309 
L 1029.855542 380.678187 
L 1030.848248 386.303003 
L 1031.840954 364.097013 
L 1032.833659 387.805634 
L 1033.826365 391.454234 
L 1034.819071 396.278974 
L 1035.811777 399.364678 
L 1036.804483 375.195228 
L 1037.797189 392.385685 
L 1038.789895 384.305418 
L 1039.782601 385.064192 
L 1040.775307 468.740112 
L 1041.768013 376.210402 
L 1042.760719 370.400137 
L 1043.753425 404.663444 
L 1044.746131 394.960364 
L 1045.738837 414.170588 
L 1046.731542 369.448401 
L 1047.724248 374.199787 
L 1048.716954 375.611376 
L 1049.70966 380.121937 
L 1050.702366 420.470918 
L 1051.695072 381.629715 
L 1052.687778 412.47542 
L 1053.680484 391.135114 
L 1054.67319 410.060079 
L 1055.665896 386.060709 
L 1056.658602 388.219021 
L 1057.651308 389.815509 
L 1058.644014 383.04708 
L 1060.629425 377.314914 
L 1061.622131 402.501703 
L 1062.614837 386.967982 
L 1064.600249 450.805918 
L 1065.592955 414.77234 
L 1066.585661 398.131851 
L 1067.578367 389.868746 
L 1068.571073 390.382996 
L 1069.563779 398.453196 
L 1070.556485 390.726555 
L 1071.549191 414.458588 
L 1072.541896 425.219194 
L 1073.534602 411.043672 
L 1074.527308 440.781759 
L 1075.520014 389.14151 
L 1076.51272 386.849158 
L 1077.505426 402.818403 
L 1078.498132 426.327891 
L 1079.490838 381.962126 
L 1080.483544 444.522067 
L 1081.47625 371.348515 
L 1082.468956 431.569204 
L 1083.461662 388.435222 
L 1084.454368 373.104 
L 1085.447073 436.312822 
L 1086.439779 370.725544 
L 1087.432485 413.795933 
L 1088.425191 399.804847 
L 1089.417897 397.907034 
L 1090.410603 391.62992 
L 1091.403309 364.98289 
L 1092.396015 412.031086 
L 1093.388721 386.184294 
L 1094.381427 391.157153 
L 1095.374133 390.40526 
L 1096.366839 398.604775 
L 1097.359545 392.248585 
L 1098.35225 372.009027 
L 1099.344956 399.950151 
L 1100.337662 415.30358 
L 1101.330368 446.065107 
L 1102.323074 406.650954 
L 1103.31578 401.897501 
L 1104.308486 481.211185 
L 1105.301192 373.981493 
L 1106.293898 439.74565 
L 1107.286604 416.269936 
L 1109.272016 386.619921 
L 1110.264722 384.179365 
L 1111.257428 387.192067 
L 1112.250133 409.047274 
L 1113.242839 492.005791 
L 1114.235545 372.300857 
L 1115.228251 383.40147 
L 1116.220957 390.026364 
L 1117.213663 399.477782 
L 1118.206369 372.955326 
L 1119.199075 364.808662 
L 1120.191781 405.715899 
L 1121.184487 409.194328 
L 1122.177193 408.904958 
L 1123.169899 403.32859 
L 1124.162605 377.151169 
L 1125.15531 395.722874 
L 1126.148016 399.992481 
L 1127.140722 388.071443 
L 1128.133428 421.355325 
L 1129.126134 401.376971 
L 1130.11884 364.144347 
L 1131.111546 375.180167 
L 1132.104252 380.133647 
L 1133.096958 378.893869 
L 1134.089664 375.14976 
L 1135.08237 385.286872 
L 1136.075076 390.674167 
L 1137.067782 360.740648 
L 1138.060487 391.905807 
L 1139.053193 395.352208 
L 1140.045899 364.582596 
L 1141.038605 375.86804 
L 1142.031311 420.987771 
L 1143.024017 373.886811 
L 1144.016723 376.939886 
L 1145.009429 403.851274 
L 1146.002135 375.943903 
L 1146.994841 379.334837 
L 1147.987547 445.208816 
L 1148.980253 373.066361 
L 1149.972959 376.43133 
L 1150.965664 395.828384 
L 1151.95837 382.166199 
L 1152.951076 375.91614 
L 1153.943782 378.557628 
L 1154.936488 406.129667 
L 1155.929194 380.889769 
L 1156.9219 376.580459 
L 1157.914606 401.645965 
L 1158.907312 378.91209 
L 1159.900018 388.298386 
L 1160.892724 399.323389 
L 1161.88543 384.980747 
L 1162.878136 375.067532 
L 1163.870841 402.211953 
L 1164.863547 395.894791 
L 1165.856253 400.764113 
L 1166.848959 392.882576 
L 1167.841665 425.219169 
L 1168.834371 399.330121 
L 1169.827077 432.356193 
L 1170.819783 383.542173 
L 1171.812489 363.396539 
L 1172.805195 394.135985 
L 1173.797901 379.032786 
L 1174.790607 380.565879 
L 1175.783313 413.817479 
L 1176.776019 389.260678 
L 1177.768724 397.273221 
L 1178.76143 385.703946 
L 1179.754136 385.612937 
L 1180.746842 399.837262 
L 1181.739548 384.795392 
L 1182.732254 374.292112 
L 1183.72496 389.172866 
L 1184.717666 400.43303 
L 1185.710372 409.020968 
L 1186.703078 396.560925 
L 1187.695784 410.979638 
L 1188.68849 386.367064 
L 1189.681196 397.421886 
L 1190.673901 395.689933 
L 1191.666607 363.716241 
L 1192.659313 411.173906 
L 1193.652019 403.333687 
L 1194.644725 400.085094 
L 1195.637431 406.24853 
L 1196.630137 389.33467 
L 1197.622843 376.6932 
L 1198.615549 399.414455 
L 1199.608255 367.855049 
L 1200.600961 403.186861 
L 1201.593667 492.48 
L 1202.586373 394.208586 
L 1203.579078 402.409096 
L 1204.571784 415.216604 
L 1205.56449 378.267796 
L 1206.557196 446.894696 
L 1207.549902 377.97517 
L 1208.542608 378.424974 
L 1209.535314 403.616335 
L 1210.52802 366.850799 
L 1211.520726 434.006176 
L 1212.513432 389.024886 
L 1213.506138 388.811619 
L 1214.498844 412.080107 
L 1215.49155 375.94079 
L 1216.484255 371.797015 
L 1217.476961 401.638393 
L 1218.469667 394.92179 
L 1219.462373 405.051018 
L 1220.455079 363.203837 
L 1221.447785 375.433126 
L 1222.440491 432.47677 
L 1223.433197 379.278164 
L 1224.425903 378.024594 
L 1225.418609 384.128934 
L 1226.411315 393.5414 
L 1227.404021 399.161411 
L 1228.396727 381.332038 
L 1229.389432 408.069821 
L 1230.382138 402.622179 
L 1231.374844 389.187329 
L 1232.36755 389.943074 
L 1233.360256 377.541169 
L 1234.352962 367.780184 
L 1235.345668 387.658006 
L 1237.33108 372.541314 
L 1238.323786 383.071342 
L 1239.316492 406.042359 
L 1240.309198 395.083391 
L 1241.301904 370.347829 
L 1242.29461 380.673489 
L 1243.287315 369.829984 
L 1244.280021 399.150525 
L 1245.272727 382.160907 
L 1245.272727 382.160907 
" clip-path="url(#p7041f0291b)" style="fill: none; stroke: #1f77b4; stroke-width: 1.5; stroke-linecap: square"/>
   </g>
   <g id="patch_3">
    <path d="M 180 512.64 
L 180 69.12 
" style="fill: none; stroke: #000000; stroke-width: 0.8; stroke-linejoin: miter; stroke-linecap: square"/>
   </g>
   <g id="patch_4">
    <path d="M 1296 512.64 
L 1296 69.12 
" style="fill: none; stroke: #000000; stroke-width: 0.8; stroke-linejoin: miter; stroke-linecap: square"/>
   </g>
   <g id="patch_5">
    <path d="M 180 512.64 
L 1296 512.64 
" style="fill: none; stroke: #000000; stroke-width: 0.8; stroke-linejoin: miter; stroke-linecap: square"/>
   </g>
   <g id="patch_6">
    <path d="M 180 69.12 
L 1296 69.12 
" style="fill: none; stroke: #000000; stroke-width: 0.8; stroke-linejoin: miter; stroke-linecap: square"/>
   </g>
   <g id="text_12">
    <!-- source22-receiver3 -->
    <g transform="translate(544.9 60.80125) scale(0.4 -0.4)">
     <defs>
      <path id="DejaVuSans-73" d="M 2834 3397 
L 2834 2853 
Q 2591 2978 2328 3040 
Q 2066 3103 1784 3103 
Q 1356 3103 1142 2972 
Q 928 2841 928 2578 
Q 928 2378 1081 2264 
Q 1234 2150 1697 2047 
L 1894 2003 
Q 2506 1872 2764 1633 
Q 3022 1394 3022 966 
Q 3022 478 2636 193 
Q 2250 -91 1575 -91 
Q 1294 -91 989 -36 
Q 684 19 347 128 
L 347 722 
Q 666 556 975 473 
Q 1284 391 1588 391 
Q 1994 391 2212 530 
Q 2431 669 2431 922 
Q 2431 1156 2273 1281 
Q 2116 1406 1581 1522 
L 1381 1569 
Q 847 1681 609 1914 
Q 372 2147 372 2553 
Q 372 3047 722 3315 
Q 1072 3584 1716 3584 
Q 2034 3584 2315 3537 
Q 2597 3491 2834 3397 
z
" transform="scale(0.015625)"/>
      <path id="DejaVuSans-6f" d="M 1959 3097 
Q 1497 3097 1228 2736 
Q 959 2375 959 1747 
Q 959 1119 1226 758 
Q 1494 397 1959 397 
Q 2419 397 2687 759 
Q 2956 1122 2956 1747 
Q 2956 2369 2687 2733 
Q 2419 3097 1959 3097 
z
M 1959 3584 
Q 2709 3584 3137 3096 
Q 3566 2609 3566 1747 
Q 3566 888 3137 398 
Q 2709 -91 1959 -91 
Q 1206 -91 779 398 
Q 353 888 353 1747 
Q 353 2609 779 3096 
Q 1206 3584 1959 3584 
z
" transform="scale(0.015625)"/>
      <path id="DejaVuSans-75" d="M 544 1381 
L 544 3500 
L 1119 3500 
L 1119 1403 
Q 1119 906 1312 657 
Q 1506 409 1894 409 
Q 2359 409 2629 706 
Q 2900 1003 2900 1516 
L 2900 3500 
L 3475 3500 
L 3475 0 
L 2900 0 
L 2900 538 
Q 2691 219 2414 64 
Q 2138 -91 1772 -91 
Q 1169 -91 856 284 
Q 544 659 544 1381 
z
M 1991 3584 
L 1991 3584 
z
" transform="scale(0.015625)"/>
      <path id="DejaVuSans-72" d="M 2631 2963 
Q 2534 3019 2420 3045 
Q 2306 3072 2169 3072 
Q 1681 3072 1420 2755 
Q 1159 2438 1159 1844 
L 1159 0 
L 581 0 
L 581 3500 
L 1159 3500 
L 1159 2956 
Q 1341 3275 1631 3429 
Q 1922 3584 2338 3584 
Q 2397 3584 2469 3576 
Q 2541 3569 2628 3553 
L 2631 2963 
z
" transform="scale(0.015625)"/>
      <path id="DejaVuSans-63" d="M 3122 3366 
L 3122 2828 
Q 2878 2963 2633 3030 
Q 2388 3097 2138 3097 
Q 1578 3097 1268 2742 
Q 959 2388 959 1747 
Q 959 1106 1268 751 
Q 1578 397 2138 397 
Q 2388 397 2633 464 
Q 2878 531 3122 666 
L 3122 134 
Q 2881 22 2623 -34 
Q 2366 -91 2075 -91 
Q 1284 -91 818 406 
Q 353 903 353 1747 
Q 353 2603 823 3093 
Q 1294 3584 2113 3584 
Q 2378 3584 2631 3529 
Q 2884 3475 3122 3366 
z
" transform="scale(0.015625)"/>
      <path id="DejaVuSans-65" d="M 3597 1894 
L 3597 1613 
L 953 1613 
Q 991 1019 1311 708 
Q 1631 397 2203 397 
Q 2534 397 2845 478 
Q 3156 559 3463 722 
L 3463 178 
Q 3153 47 2828 -22 
Q 2503 -91 2169 -91 
Q 1331 -91 842 396 
Q 353 884 353 1716 
Q 353 2575 817 3079 
Q 1281 3584 2069 3584 
Q 2775 3584 3186 3129 
Q 3597 2675 3597 1894 
z
M 3022 2063 
Q 3016 2534 2758 2815 
Q 2500 3097 2075 3097 
Q 1594 3097 1305 2825 
Q 1016 2553 972 2059 
L 3022 2063 
z
" transform="scale(0.015625)"/>
      <path id="DejaVuSans-2d" d="M 313 2009 
L 1997 2009 
L 1997 1497 
L 313 1497 
L 313 2009 
z
" transform="scale(0.015625)"/>
      <path id="DejaVuSans-69" d="M 603 3500 
L 1178 3500 
L 1178 0 
L 603 0 
L 603 3500 
z
M 603 4863 
L 1178 4863 
L 1178 4134 
L 603 4134 
L 603 4863 
z
" transform="scale(0.015625)"/>
      <path id="DejaVuSans-76" d="M 191 3500 
L 800 3500 
L 1894 563 
L 2988 3500 
L 3597 3500 
L 2284 0 
L 1503 0 
L 191 3500 
z
" transform="scale(0.015625)"/>
      <path id="DejaVuSans-33" d="M 2597 2516 
Q 3050 2419 3304 2112 
Q 3559 1806 3559 1356 
Q 3559 666 3084 287 
Q 2609 -91 1734 -91 
Q 1441 -91 1130 -33 
Q 819 25 488 141 
L 488 750 
Q 750 597 1062 519 
Q 1375 441 1716 441 
Q 2309 441 2620 675 
Q 2931 909 2931 1356 
Q 2931 1769 2642 2001 
Q 2353 2234 1838 2234 
L 1294 2234 
L 1294 2753 
L 1863 2753 
Q 2328 2753 2575 2939 
Q 2822 3125 2822 3475 
Q 2822 3834 2567 4026 
Q 2313 4219 1838 4219 
Q 1578 4219 1281 4162 
Q 984 4106 628 3988 
L 628 4550 
Q 988 4650 1302 4700 
Q 1616 4750 1894 4750 
Q 2613 4750 3031 4423 
Q 3450 4097 3450 3541 
Q 3450 3153 3228 2886 
Q 3006 2619 2597 2516 
z
" transform="scale(0.015625)"/>
     </defs>
     <use xlink:href="#DejaVuSans-73"/>
     <use xlink:href="#DejaVuSans-6f" x="52.099609"/>
     <use xlink:href="#DejaVuSans-75" x="113.28125"/>
     <use xlink:href="#DejaVuSans-72" x="176.660156"/>
     <use xlink:href="#DejaVuSans-63" x="215.523438"/>
     <use xlink:href="#DejaVuSans-65" x="270.503906"/>
     <use xlink:href="#DejaVuSans-32" x="332.027344"/>
     <use xlink:href="#DejaVuSans-32" x="395.650391"/>
     <use xlink:href="#DejaVuSans-2d" x="459.273438"/>
     <use xlink:href="#DejaVuSans-72" x="495.357422"/>
     <use xlink:href="#DejaVuSans-65" x="534.220703"/>
     <use xlink:href="#DejaVuSans-63" x="595.744141"/>
     <use xlink:href="#DejaVuSans-65" x="650.724609"/>
     <use xlink:href="#DejaVuSans-69" x="712.248047"/>
     <use xlink:href="#DejaVuSans-76" x="740.03125"/>
     <use xlink:href="#DejaVuSans-65" x="799.210938"/>
     <use xlink:href="#DejaVuSans-72" x="860.734375"/>
     <use xlink:href="#DejaVuSans-33" x="901.847656"/>
    </g>
   </g>
  </g>
 </g>
 <defs>
  <clipPath id="p7041f0291b">
   <rect x="180" y="69.12" width="1116" height="443.52"/>
  </clipPath>
 </defs>
</svg>
