<?xml version="1.0" encoding="utf-8" standalone="no"?>
<!DOCTYPE svg PUBLIC "-//W3C//DTD SVG 1.1//EN"
  "http://www.w3.org/Graphics/SVG/1.1/DTD/svg11.dtd">
<svg xmlns:xlink="http://www.w3.org/1999/xlink" width="1440pt" height="576pt" viewBox="0 0 1440 576" xmlns="http://www.w3.org/2000/svg" version="1.1">
 <metadata>
  <rdf:RDF xmlns:dc="http://purl.org/dc/elements/1.1/" xmlns:cc="http://creativecommons.org/ns#" xmlns:rdf="http://www.w3.org/1999/02/22-rdf-syntax-ns#">
   <cc:Work>
    <dc:type rdf:resource="http://purl.org/dc/dcmitype/StillImage"/>
    <dc:date>2024-05-22T04:50:21.878439</dc:date>
    <dc:format>image/svg+xml</dc:format>
    <dc:creator>
     <cc:Agent>
      <dc:title>Matplotlib v3.8.3, https://matplotlib.org/</dc:title>
     </cc:Agent>
    </dc:creator>
   </cc:Work>
  </rdf:RDF>
 </metadata>
 <defs>
  <style type="text/css">*{stroke-linejoin: round; stroke-linecap: butt}</style>
 </defs>
 <g id="figure_1">
  <g id="patch_1">
   <path d="M 0 576 
L 1440 576 
L 1440 0 
L 0 0 
z
" style="fill: #ffffff"/>
  </g>
  <g id="axes_1">
   <g id="patch_2">
    <path d="M 180 512.64 
L 1296 512.64 
L 1296 69.12 
L 180 69.12 
z
" style="fill: #ffffff"/>
   </g>
   <g id="matplotlib.axis_1">
    <g id="xtick_1">
     <g id="line2d_1">
      <defs>
       <path id="m00f03d9fa3" d="M 0 0 
L 0 3.5 
" style="stroke: #000000; stroke-width: 0.8"/>
      </defs>
      <g>
       <use xlink:href="#m00f03d9fa3" x="229.734567" y="512.64" style="stroke: #000000; stroke-width: 0.8"/>
      </g>
     </g>
     <g id="text_1">
      <!-- 0 -->
      <g transform="translate(226.553317 527.238438) scale(0.1 -0.1)">
       <defs>
        <path id="DejaVuSans-30" d="M 2034 4250 
Q 1547 4250 1301 3770 
Q 1056 3291 1056 2328 
Q 1056 1369 1301 889 
Q 1547 409 2034 409 
Q 2525 409 2770 889 
Q 3016 1369 3016 2328 
Q 3016 3291 2770 3770 
Q 2525 4250 2034 4250 
z
M 2034 4750 
Q 2819 4750 3233 4129 
Q 3647 3509 3647 2328 
Q 3647 1150 3233 529 
Q 2819 -91 2034 -91 
Q 1250 -91 836 529 
Q 422 1150 422 2328 
Q 422 3509 836 4129 
Q 1250 4750 2034 4750 
z
" transform="scale(0.015625)"/>
       </defs>
       <use xlink:href="#DejaVuSans-30"/>
      </g>
     </g>
    </g>
    <g id="xtick_2">
     <g id="line2d_2">
      <g>
       <use xlink:href="#m00f03d9fa3" x="433.04074" y="512.64" style="stroke: #000000; stroke-width: 0.8"/>
      </g>
     </g>
     <g id="text_2">
      <!-- 500 -->
      <g transform="translate(423.49699 527.238438) scale(0.1 -0.1)">
       <defs>
        <path id="DejaVuSans-35" d="M 691 4666 
L 3169 4666 
L 3169 4134 
L 1269 4134 
L 1269 2991 
Q 1406 3038 1543 3061 
Q 1681 3084 1819 3084 
Q 2600 3084 3056 2656 
Q 3513 2228 3513 1497 
Q 3513 744 3044 326 
Q 2575 -91 1722 -91 
Q 1428 -91 1123 -41 
Q 819 9 494 109 
L 494 744 
Q 775 591 1075 516 
Q 1375 441 1709 441 
Q 2250 441 2565 725 
Q 2881 1009 2881 1497 
Q 2881 1984 2565 2268 
Q 2250 2553 1709 2553 
Q 1456 2553 1204 2497 
Q 953 2441 691 2322 
L 691 4666 
z
" transform="scale(0.015625)"/>
       </defs>
       <use xlink:href="#DejaVuSans-35"/>
       <use xlink:href="#DejaVuSans-30" x="63.623047"/>
       <use xlink:href="#DejaVuSans-30" x="127.246094"/>
      </g>
     </g>
    </g>
    <g id="xtick_3">
     <g id="line2d_3">
      <g>
       <use xlink:href="#m00f03d9fa3" x="636.346913" y="512.64" style="stroke: #000000; stroke-width: 0.8"/>
      </g>
     </g>
     <g id="text_3">
      <!-- 1000 -->
      <g transform="translate(623.621913 527.238438) scale(0.1 -0.1)">
       <defs>
        <path id="DejaVuSans-31" d="M 794 531 
L 1825 531 
L 1825 4091 
L 703 3866 
L 703 4441 
L 1819 4666 
L 2450 4666 
L 2450 531 
L 3481 531 
L 3481 0 
L 794 0 
L 794 531 
z
" transform="scale(0.015625)"/>
       </defs>
       <use xlink:href="#DejaVuSans-31"/>
       <use xlink:href="#DejaVuSans-30" x="63.623047"/>
       <use xlink:href="#DejaVuSans-30" x="127.246094"/>
       <use xlink:href="#DejaVuSans-30" x="190.869141"/>
      </g>
     </g>
    </g>
    <g id="xtick_4">
     <g id="line2d_4">
      <g>
       <use xlink:href="#m00f03d9fa3" x="839.653087" y="512.64" style="stroke: #000000; stroke-width: 0.8"/>
      </g>
     </g>
     <g id="text_4">
      <!-- 1500 -->
      <g transform="translate(826.928087 527.238438) scale(0.1 -0.1)">
       <use xlink:href="#DejaVuSans-31"/>
       <use xlink:href="#DejaVuSans-35" x="63.623047"/>
       <use xlink:href="#DejaVuSans-30" x="127.246094"/>
       <use xlink:href="#DejaVuSans-30" x="190.869141"/>
      </g>
     </g>
    </g>
    <g id="xtick_5">
     <g id="line2d_5">
      <g>
       <use xlink:href="#m00f03d9fa3" x="1042.95926" y="512.64" style="stroke: #000000; stroke-width: 0.8"/>
      </g>
     </g>
     <g id="text_5">
      <!-- 2000 -->
      <g transform="translate(1030.23426 527.238438) scale(0.1 -0.1)">
       <defs>
        <path id="DejaVuSans-32" d="M 1228 531 
L 3431 531 
L 3431 0 
L 469 0 
L 469 531 
Q 828 903 1448 1529 
Q 2069 2156 2228 2338 
Q 2531 2678 2651 2914 
Q 2772 3150 2772 3378 
Q 2772 3750 2511 3984 
Q 2250 4219 1831 4219 
Q 1534 4219 1204 4116 
Q 875 4013 500 3803 
L 500 4441 
Q 881 4594 1212 4672 
Q 1544 4750 1819 4750 
Q 2544 4750 2975 4387 
Q 3406 4025 3406 3419 
Q 3406 3131 3298 2873 
Q 3191 2616 2906 2266 
Q 2828 2175 2409 1742 
Q 1991 1309 1228 531 
z
" transform="scale(0.015625)"/>
       </defs>
       <use xlink:href="#DejaVuSans-32"/>
       <use xlink:href="#DejaVuSans-30" x="63.623047"/>
       <use xlink:href="#DejaVuSans-30" x="127.246094"/>
       <use xlink:href="#DejaVuSans-30" x="190.869141"/>
      </g>
     </g>
    </g>
    <g id="xtick_6">
     <g id="line2d_6">
      <g>
       <use xlink:href="#m00f03d9fa3" x="1246.265433" y="512.64" style="stroke: #000000; stroke-width: 0.8"/>
      </g>
     </g>
     <g id="text_6">
      <!-- 2500 -->
      <g transform="translate(1233.540433 527.238438) scale(0.1 -0.1)">
       <use xlink:href="#DejaVuSans-32"/>
       <use xlink:href="#DejaVuSans-35" x="63.623047"/>
       <use xlink:href="#DejaVuSans-30" x="127.246094"/>
       <use xlink:href="#DejaVuSans-30" x="190.869141"/>
      </g>
     </g>
    </g>
   </g>
   <g id="matplotlib.axis_2">
    <g id="ytick_1">
     <g id="line2d_7">
      <defs>
       <path id="m0e00d27a3d" d="M 0 0 
L -3.5 0 
" style="stroke: #000000; stroke-width: 0.8"/>
      </defs>
      <g>
       <use xlink:href="#m0e00d27a3d" x="180" y="500.181951" style="stroke: #000000; stroke-width: 0.8"/>
      </g>
     </g>
     <g id="text_7">
      <!-- −5 -->
      <g transform="translate(158.257812 503.98117) scale(0.1 -0.1)">
       <defs>
        <path id="DejaVuSans-2212" d="M 678 2272 
L 4684 2272 
L 4684 1741 
L 678 1741 
L 678 2272 
z
" transform="scale(0.015625)"/>
       </defs>
       <use xlink:href="#DejaVuSans-2212"/>
       <use xlink:href="#DejaVuSans-35" x="83.789062"/>
      </g>
     </g>
    </g>
    <g id="ytick_2">
     <g id="line2d_8">
      <g>
       <use xlink:href="#m0e00d27a3d" x="180" y="441.751361" style="stroke: #000000; stroke-width: 0.8"/>
      </g>
     </g>
     <g id="text_8">
      <!-- −4 -->
      <g transform="translate(158.257812 445.55058) scale(0.1 -0.1)">
       <defs>
        <path id="DejaVuSans-34" d="M 2419 4116 
L 825 1625 
L 2419 1625 
L 2419 4116 
z
M 2253 4666 
L 3047 4666 
L 3047 1625 
L 3713 1625 
L 3713 1100 
L 3047 1100 
L 3047 0 
L 2419 0 
L 2419 1100 
L 313 1100 
L 313 1709 
L 2253 4666 
z
" transform="scale(0.015625)"/>
       </defs>
       <use xlink:href="#DejaVuSans-2212"/>
       <use xlink:href="#DejaVuSans-34" x="83.789062"/>
      </g>
     </g>
    </g>
    <g id="ytick_3">
     <g id="line2d_9">
      <g>
       <use xlink:href="#m0e00d27a3d" x="180" y="383.320771" style="stroke: #000000; stroke-width: 0.8"/>
      </g>
     </g>
     <g id="text_9">
      <!-- −3 -->
      <g transform="translate(158.257812 387.11999) scale(0.1 -0.1)">
       <defs>
        <path id="DejaVuSans-33" d="M 2597 2516 
Q 3050 2419 3304 2112 
Q 3559 1806 3559 1356 
Q 3559 666 3084 287 
Q 2609 -91 1734 -91 
Q 1441 -91 1130 -33 
Q 819 25 488 141 
L 488 750 
Q 750 597 1062 519 
Q 1375 441 1716 441 
Q 2309 441 2620 675 
Q 2931 909 2931 1356 
Q 2931 1769 2642 2001 
Q 2353 2234 1838 2234 
L 1294 2234 
L 1294 2753 
L 1863 2753 
Q 2328 2753 2575 2939 
Q 2822 3125 2822 3475 
Q 2822 3834 2567 4026 
Q 2313 4219 1838 4219 
Q 1578 4219 1281 4162 
Q 984 4106 628 3988 
L 628 4550 
Q 988 4650 1302 4700 
Q 1616 4750 1894 4750 
Q 2613 4750 3031 4423 
Q 3450 4097 3450 3541 
Q 3450 3153 3228 2886 
Q 3006 2619 2597 2516 
z
" transform="scale(0.015625)"/>
       </defs>
       <use xlink:href="#DejaVuSans-2212"/>
       <use xlink:href="#DejaVuSans-33" x="83.789062"/>
      </g>
     </g>
    </g>
    <g id="ytick_4">
     <g id="line2d_10">
      <g>
       <use xlink:href="#m0e00d27a3d" x="180" y="324.890181" style="stroke: #000000; stroke-width: 0.8"/>
      </g>
     </g>
     <g id="text_10">
      <!-- −2 -->
      <g transform="translate(158.257812 328.6894) scale(0.1 -0.1)">
       <use xlink:href="#DejaVuSans-2212"/>
       <use xlink:href="#DejaVuSans-32" x="83.789062"/>
      </g>
     </g>
    </g>
    <g id="ytick_5">
     <g id="line2d_11">
      <g>
       <use xlink:href="#m0e00d27a3d" x="180" y="266.459591" style="stroke: #000000; stroke-width: 0.8"/>
      </g>
     </g>
     <g id="text_11">
      <!-- −1 -->
      <g transform="translate(158.257812 270.25881) scale(0.1 -0.1)">
       <use xlink:href="#DejaVuSans-2212"/>
       <use xlink:href="#DejaVuSans-31" x="83.789062"/>
      </g>
     </g>
    </g>
    <g id="ytick_6">
     <g id="line2d_12">
      <g>
       <use xlink:href="#m0e00d27a3d" x="180" y="208.029001" style="stroke: #000000; stroke-width: 0.8"/>
      </g>
     </g>
     <g id="text_12">
      <!-- 0 -->
      <g transform="translate(166.6375 211.82822) scale(0.1 -0.1)">
       <use xlink:href="#DejaVuSans-30"/>
      </g>
     </g>
    </g>
    <g id="ytick_7">
     <g id="line2d_13">
      <g>
       <use xlink:href="#m0e00d27a3d" x="180" y="149.598411" style="stroke: #000000; stroke-width: 0.8"/>
      </g>
     </g>
     <g id="text_13">
      <!-- 1 -->
      <g transform="translate(166.6375 153.39763) scale(0.1 -0.1)">
       <use xlink:href="#DejaVuSans-31"/>
      </g>
     </g>
    </g>
    <g id="ytick_8">
     <g id="line2d_14">
      <g>
       <use xlink:href="#m0e00d27a3d" x="180" y="91.167821" style="stroke: #000000; stroke-width: 0.8"/>
      </g>
     </g>
     <g id="text_14">
      <!-- 2 -->
      <g transform="translate(166.6375 94.96704) scale(0.1 -0.1)">
       <use xlink:href="#DejaVuSans-32"/>
      </g>
     </g>
    </g>
   </g>
   <g id="line2d_15">
    <path d="M 230.727273 273.422414 
L 231.719979 272.838842 
L 232.712685 273.36055 
L 234.698096 272.503295 
L 236.683508 272.230725 
L 237.676214 272.704741 
L 239.661626 271.766356 
L 240.654332 270.994598 
L 241.647038 271.365227 
L 242.639744 271.130045 
L 243.63245 271.50281 
L 244.625156 272.746201 
L 245.617862 274.912626 
L 246.610568 276.534989 
L 247.603273 272.074553 
L 248.595979 269.890607 
L 249.588685 277.361943 
L 250.581391 349.911227 
L 251.574097 278.925588 
L 252.566803 230.707426 
L 253.559509 213.830755 
L 255.544921 197.335527 
L 256.537627 207.720863 
L 257.530333 205.842544 
L 258.523039 162.434812 
L 259.515745 135.459603 
L 260.50845 129.999708 
L 261.501156 145.896507 
L 262.493862 219.867228 
L 263.486568 184.849722 
L 264.479274 145.890604 
L 265.47198 149.075399 
L 266.464686 174.497468 
L 267.457392 185.694798 
L 268.450098 186.428067 
L 269.442804 191.605209 
L 270.43551 164.68336 
L 271.428216 148.442159 
L 272.420922 153.770016 
L 273.413627 147.561973 
L 274.406333 120.734869 
L 275.399039 110.521887 
L 276.391745 121.208571 
L 277.384451 163.741087 
L 278.377157 213.927618 
L 279.369863 154.665813 
L 280.362569 143.716074 
L 281.355275 151.163486 
L 282.347981 148.807105 
L 283.340687 122.051557 
L 284.333393 101.941592 
L 285.326099 90.118625 
L 286.318804 89.28 
L 287.31151 98.283827 
L 288.304216 116.391259 
L 289.296922 120.998072 
L 290.289628 112.140777 
L 291.282334 115.147333 
L 292.27504 137.126199 
L 293.267746 199.495839 
L 294.260452 184.144991 
L 295.253158 165.02233 
L 296.245864 182.624805 
L 297.23857 238.943069 
L 299.223981 209.18195 
L 300.216687 232.291065 
L 301.209393 317.721711 
L 302.202099 258.595663 
L 303.194805 241.950667 
L 304.187511 245.04175 
L 305.180217 255.537453 
L 306.172923 273.408529 
L 307.165629 322.91676 
L 308.158335 273.492544 
L 309.151041 245.31364 
L 310.143747 261.477336 
L 311.136453 283.957063 
L 312.129159 290.292357 
L 313.121864 283.811197 
L 314.11457 279.178976 
L 315.107276 276.708362 
L 316.099982 282.464457 
L 317.092688 277.349276 
L 318.085394 294.44652 
L 319.0781 279.981909 
L 320.070806 301.98442 
L 321.063512 297.04189 
L 322.056218 283.384387 
L 323.048924 304.796744 
L 324.04163 293.412655 
L 325.034336 302.185611 
L 326.027041 284.087254 
L 327.019747 295.667975 
L 328.012453 309.540787 
L 329.005159 296.459758 
L 329.997865 298.765958 
L 330.990571 302.17826 
L 331.983277 331.625917 
L 332.975983 309.128271 
L 333.968689 307.565932 
L 334.961395 320.91037 
L 335.954101 297.767192 
L 336.946807 304.936908 
L 337.939513 310.984383 
L 338.932218 307.237739 
L 339.924924 316.729465 
L 340.91763 320.560455 
L 341.910336 304.863712 
L 342.903042 319.695312 
L 343.895748 336.473396 
L 344.888454 310.280131 
L 345.88116 323.049577 
L 346.873866 319.259857 
L 347.866572 320.215338 
L 348.859278 323.95369 
L 349.851984 331.909354 
L 350.84469 319.482823 
L 351.837395 332.491021 
L 352.830101 330.990287 
L 353.822807 323.345624 
L 354.815513 349.67386 
L 355.808219 321.105252 
L 356.800925 344.245095 
L 357.793631 308.164719 
L 358.786337 314.74229 
L 359.779043 348.735336 
L 360.771749 326.720743 
L 361.764455 342.894904 
L 362.757161 322.674321 
L 363.749867 423.229429 
L 364.742572 352.182649 
L 365.735278 304.501195 
L 367.72069 363.622898 
L 368.713396 304.316117 
L 369.706102 321.376065 
L 370.698808 343.891252 
L 371.691514 378.030573 
L 372.68422 331.813691 
L 373.676926 358.106674 
L 374.669632 332.234127 
L 375.662338 360.503101 
L 376.655044 352.767714 
L 377.64775 351.770204 
L 378.640455 317.88343 
L 379.633161 413.69263 
L 380.625867 318.911661 
L 381.618573 360.104032 
L 382.611279 347.605292 
L 383.603985 343.655592 
L 384.596691 335.06597 
L 385.589397 336.147757 
L 386.582103 360.196586 
L 387.574809 356.025698 
L 388.567515 353.74703 
L 389.560221 343.801034 
L 390.552927 296.934538 
L 391.545632 320.980592 
L 392.538338 300.547719 
L 393.531044 299.783773 
L 394.52375 470.512474 
L 395.516456 342.500237 
L 396.509162 331.558441 
L 397.501868 367.734682 
L 398.494574 386.989213 
L 399.48728 361.444601 
L 400.479986 322.58041 
L 401.472692 335.204572 
L 402.465398 416.981457 
L 403.458104 333.059929 
L 404.450809 353.008626 
L 405.443515 326.866306 
L 406.436221 405.85232 
L 407.428927 314.38697 
L 408.421633 368.339151 
L 409.414339 368.423385 
L 410.407045 349.267845 
L 411.399751 361.507538 
L 412.392457 352.228401 
L 413.385163 472.779226 
L 414.377869 364.451119 
L 415.370575 341.651218 
L 416.363281 371.586874 
L 417.355986 301.883646 
L 418.348692 326.657941 
L 419.341398 303.603998 
L 420.334104 284.525625 
L 421.32681 304.504334 
L 422.319516 318.370704 
L 423.312222 300.737497 
L 424.304928 337.128525 
L 425.297634 443.585802 
L 426.29034 378.948926 
L 427.283046 366.389418 
L 428.275752 327.482576 
L 429.268458 429.208156 
L 430.261163 377.229353 
L 431.253869 408.010886 
L 432.246575 350.023813 
L 433.239281 327.765583 
L 434.231987 408.608047 
L 435.224693 345.883257 
L 436.217399 356.66109 
L 437.210105 438.162891 
L 438.202811 413.580169 
L 439.195517 322.246792 
L 440.188223 379.497225 
L 441.180929 379.921281 
L 442.173635 343.594437 
L 443.166341 369.895163 
L 444.159046 369.448974 
L 445.151752 315.654547 
L 446.144458 349.069687 
L 447.137164 327.658643 
L 448.12987 339.976931 
L 449.122576 345.698047 
L 450.115282 365.18847 
L 451.107988 353.293135 
L 452.100694 361.820769 
L 453.0934 356.086551 
L 454.086106 351.878499 
L 455.078812 369.415607 
L 456.071518 359.592035 
L 457.064223 364.45486 
L 458.056929 349.222098 
L 459.049635 408.847751 
L 460.042341 384.565273 
L 461.035047 366.836475 
L 462.027753 378.680245 
L 463.020459 340.922233 
L 464.013165 354.330029 
L 465.005871 379.674937 
L 465.998577 365.52584 
L 466.991283 389.417192 
L 467.983989 373.857231 
L 468.976695 394.937205 
L 469.9694 380.929911 
L 470.962106 379.084101 
L 471.954812 358.659524 
L 472.947518 359.354652 
L 473.940224 405.035196 
L 474.93293 380.880743 
L 475.925636 351.184806 
L 476.918342 346.557787 
L 477.911048 383.600089 
L 478.903754 383.030824 
L 479.89646 390.019277 
L 480.889166 381.45613 
L 481.881872 366.703789 
L 482.874577 367.678605 
L 483.867283 355.67035 
L 484.859989 350.583751 
L 485.852695 361.997609 
L 486.845401 441.814187 
L 487.838107 347.633286 
L 488.830813 492.48 
L 489.823519 363.360966 
L 490.816225 397.874234 
L 491.808931 372.34845 
L 492.801637 371.530047 
L 493.794343 381.348931 
L 494.787049 351.107949 
L 495.779754 427.66192 
L 496.77246 366.262401 
L 497.765166 397.903023 
L 498.757872 370.290848 
L 499.750578 335.662869 
L 500.743284 415.6788 
L 501.73599 335.071724 
L 502.728696 361.454381 
L 503.721402 374.972032 
L 504.714108 378.690559 
L 505.706814 343.777635 
L 506.69952 431.927148 
L 507.692226 424.500504 
L 508.684932 418.580944 
L 509.677637 370.253474 
L 510.670343 384.301774 
L 511.663049 410.869401 
L 512.655755 361.696148 
L 513.648461 408.126695 
L 514.641167 335.613508 
L 515.633873 402.680239 
L 516.626579 357.216185 
L 517.619285 375.502223 
L 518.611991 479.504394 
L 519.604697 375.350962 
L 520.597403 405.595356 
L 521.590109 370.543388 
L 522.582814 376.974801 
L 523.57552 368.517455 
L 524.568226 388.016379 
L 525.560932 425.176916 
L 526.553638 336.925185 
L 527.546344 376.508579 
L 528.53905 325.196306 
L 529.531756 313.091048 
L 530.524462 329.717204 
L 531.517168 380.789379 
L 532.509874 323.017139 
L 533.50258 373.229024 
L 534.495286 411.068675 
L 535.487991 458.992498 
L 536.480697 471.044429 
L 537.473403 343.514753 
L 538.466109 442.613258 
L 539.458815 354.922399 
L 540.451521 406.971777 
L 541.444227 368.903441 
L 542.436933 350.589233 
L 543.429639 389.717081 
L 544.422345 385.879723 
L 545.415051 381.405395 
L 546.407757 395.539313 
L 547.400463 473.346801 
L 548.393168 334.47667 
L 549.385874 369.279885 
L 550.37858 415.611183 
L 551.371286 368.826945 
L 552.363992 400.795579 
L 553.356698 338.462046 
L 554.349404 311.872202 
L 555.34211 364.93723 
L 556.334816 324.974995 
L 557.327522 324.48252 
L 558.320228 360.485097 
L 559.312934 354.415613 
L 560.30564 347.520406 
L 561.298345 371.824516 
L 562.291051 375.132875 
L 563.283757 352.28741 
L 564.276463 359.959916 
L 565.269169 483.282892 
L 566.261875 347.869351 
L 567.254581 401.789129 
L 568.247287 423.005997 
L 569.239993 417.706428 
L 570.232699 380.540676 
L 571.225405 374.692881 
L 572.218111 416.915713 
L 573.210817 359.299203 
L 574.203523 363.688079 
L 575.196228 433.937747 
L 576.188934 366.336978 
L 577.18164 397.269562 
L 578.174346 372.1025 
L 579.167052 364.158881 
L 580.159758 398.93128 
L 581.152464 343.304309 
L 582.14517 429.030479 
L 583.137876 375.080909 
L 584.130582 355.308141 
L 585.123288 478.732755 
L 586.115994 450.906614 
L 587.1087 386.388734 
L 588.101405 359.411091 
L 589.094111 373.76098 
L 590.086817 378.350225 
L 591.079523 404.420813 
L 592.072229 439.357346 
L 593.064935 420.097764 
L 594.057641 405.64252 
L 595.050347 386.456308 
L 596.043053 350.552311 
L 597.035759 408.614139 
L 598.028465 382.273149 
L 599.021171 411.614588 
L 600.013877 473.524086 
L 601.006582 411.279103 
L 601.999288 398.868926 
L 602.991994 397.944617 
L 603.9847 397.644686 
L 604.977406 414.249137 
L 605.970112 393.972512 
L 606.962818 422.022198 
L 607.955524 409.235672 
L 608.94823 371.008814 
L 609.940936 378.583328 
L 610.933642 384.360098 
L 612.919054 432.532028 
L 613.911759 390.03962 
L 614.904465 378.889001 
L 615.897171 392.623013 
L 616.889877 394.652704 
L 617.882583 429.89318 
L 618.875289 422.031918 
L 619.867995 407.918583 
L 620.860701 405.136738 
L 621.853407 386.586109 
L 622.846113 404.739887 
L 623.838819 397.289244 
L 624.831525 404.703429 
L 625.824231 393.598597 
L 626.816936 400.829969 
L 627.809642 409.433535 
L 628.802348 411.851631 
L 629.795054 420.284452 
L 630.78776 412.076809 
L 631.780466 428.906252 
L 632.773172 425.771864 
L 633.765878 393.1177 
L 634.758584 413.294188 
L 635.75129 403.016604 
L 636.743996 394.041081 
L 637.736702 420.806923 
L 638.729408 410.046891 
L 639.722114 421.331358 
L 640.714819 407.141211 
L 641.707525 420.444523 
L 642.700231 423.606582 
L 643.692937 412.499749 
L 644.685643 398.786789 
L 645.678349 415.572187 
L 646.671055 410.012602 
L 647.663761 413.47787 
L 648.656467 394.915067 
L 650.641879 409.352476 
L 651.634585 407.853526 
L 652.627291 414.420822 
L 653.619996 405.001259 
L 654.612702 400.954999 
L 655.605408 412.739119 
L 656.598114 411.603233 
L 657.59082 425.539346 
L 658.583526 415.289148 
L 659.576232 397.661306 
L 660.568938 418.567487 
L 661.561644 401.40204 
L 662.55435 410.573341 
L 663.547056 404.467681 
L 664.539762 418.726576 
L 665.532468 412.210823 
L 666.525173 407.00017 
L 667.517879 406.823598 
L 668.510585 408.941772 
L 669.503291 410.6728 
L 670.495997 408.646148 
L 671.488703 405.089758 
L 672.481409 410.51022 
L 673.474115 419.385016 
L 674.466821 405.918851 
L 675.459527 415.091988 
L 676.452233 413.533707 
L 677.444939 418.399184 
L 678.437645 401.805767 
L 679.43035 408.680852 
L 680.423056 418.239108 
L 681.415762 416.810684 
L 682.408468 407.783171 
L 683.401174 415.586712 
L 685.386586 408.646869 
L 686.379292 421.409054 
L 687.371998 422.513949 
L 688.364704 413.107753 
L 689.35741 419.650044 
L 690.350116 417.291634 
L 691.342822 412.163469 
L 692.335527 414.497387 
L 693.328233 414.688791 
L 694.320939 415.003234 
L 695.313645 410.702752 
L 696.306351 418.369001 
L 697.299057 411.870689 
L 698.291763 423.515329 
L 699.284469 423.860582 
L 700.277175 416.22441 
L 701.269881 413.381922 
L 702.262587 414.537071 
L 703.255293 415.282651 
L 704.247999 419.949275 
L 705.240705 414.538595 
L 706.23341 417.409285 
L 707.226116 418.404229 
L 708.218822 415.096287 
L 709.211528 418.607776 
L 710.204234 416.844435 
L 711.19694 419.19077 
L 712.189646 417.934721 
L 713.182352 419.871053 
L 714.175058 414.51918 
L 715.167764 412.722663 
L 716.16047 420.678023 
L 718.145882 424.091578 
L 720.131293 411.793606 
L 721.123999 419.691964 
L 722.116705 418.48577 
L 723.109411 414.853263 
L 724.102117 414.562843 
L 725.094823 414.913192 
L 726.087529 412.42316 
L 727.080235 415.089131 
L 728.072941 418.242273 
L 729.065647 421.875314 
L 730.058353 416.966916 
L 731.051059 419.582568 
L 732.043764 416.964013 
L 733.03647 422.068138 
L 734.029176 418.572212 
L 735.021882 418.713868 
L 736.014588 423.815877 
L 737.007294 416.589464 
L 738 424.190989 
L 738.992706 418.701192 
L 739.985412 417.899371 
L 740.978118 425.72713 
L 741.970824 419.913582 
L 742.96353 422.703713 
L 743.956236 421.205128 
L 744.948941 421.48972 
L 745.941647 419.744478 
L 746.934353 420.171337 
L 747.927059 418.406069 
L 748.919765 420.711438 
L 749.912471 424.477492 
L 750.905177 424.854394 
L 751.897883 419.299513 
L 752.890589 421.530504 
L 753.883295 422.6437 
L 754.876001 423.02229 
L 755.868707 424.794738 
L 756.861413 421.988267 
L 758.846824 422.639054 
L 759.83953 426.527622 
L 760.832236 422.036438 
L 761.824942 422.979228 
L 762.817648 421.939548 
L 763.810354 424.314732 
L 764.80306 419.541134 
L 765.795766 421.518826 
L 766.788472 424.317916 
L 767.781178 422.626532 
L 768.773884 419.747224 
L 769.76659 420.889634 
L 770.759295 423.06751 
L 771.752001 420.750215 
L 772.744707 421.224814 
L 773.737413 422.732465 
L 774.730119 423.293025 
L 775.722825 424.194062 
L 776.715531 424.553394 
L 777.708237 423.604187 
L 778.700943 425.505939 
L 779.693649 423.2804 
L 780.686355 423.478559 
L 781.679061 426.782511 
L 782.671767 422.43779 
L 783.664473 424.520968 
L 784.657178 427.267823 
L 785.649884 421.768775 
L 786.64259 425.317168 
L 787.635296 426.141908 
L 788.628002 423.177739 
L 789.620708 423.944651 
L 790.613414 428.657521 
L 791.60612 419.645657 
L 792.598826 421.080777 
L 793.591532 429.144836 
L 794.584238 420.580553 
L 795.576944 421.3193 
L 796.56965 426.30436 
L 797.562355 428.954585 
L 798.555061 422.072686 
L 799.547767 428.931386 
L 800.540473 427.484689 
L 801.533179 428.422355 
L 802.525885 426.513079 
L 803.518591 425.609932 
L 804.511297 422.565386 
L 805.504003 427.427217 
L 806.496709 424.789607 
L 807.489415 424.528043 
L 808.482121 424.7159 
L 809.474827 423.34674 
L 810.467532 427.337032 
L 811.460238 428.931226 
L 812.452944 428.094744 
L 813.44565 427.040522 
L 814.438356 429.537086 
L 815.431062 425.058984 
L 816.423768 425.971594 
L 817.416474 422.939314 
L 818.40918 427.003157 
L 819.401886 428.877501 
L 820.394592 427.141491 
L 821.387298 429.63677 
L 822.380004 426.252111 
L 823.372709 426.347839 
L 824.365415 426.610467 
L 825.358121 429.284952 
L 826.350827 427.262533 
L 827.343533 424.45034 
L 828.336239 426.689674 
L 829.328945 425.015923 
L 830.321651 429.924619 
L 831.314357 425.972345 
L 832.307063 428.866505 
L 833.299769 428.207783 
L 834.292475 432.917318 
L 835.285181 427.759702 
L 836.277886 424.515226 
L 837.270592 430.259995 
L 838.263298 430.886923 
L 839.256004 430.416669 
L 840.24871 425.044347 
L 841.241416 425.99676 
L 842.234122 427.129099 
L 843.226828 428.631094 
L 844.219534 430.980493 
L 845.21224 430.677415 
L 846.204946 430.657243 
L 847.197652 428.333425 
L 848.190358 428.484239 
L 849.183064 430.797355 
L 850.175769 427.44375 
L 851.168475 428.641654 
L 852.161181 427.076133 
L 853.153887 426.965089 
L 854.146593 426.094507 
L 855.139299 427.450116 
L 856.132005 433.121891 
L 857.124711 427.882791 
L 858.117417 432.251302 
L 859.110123 430.779175 
L 860.102829 430.659392 
L 861.095535 427.063795 
L 862.088241 428.569169 
L 863.080946 429.338869 
L 864.073652 422.902766 
L 865.066358 431.462801 
L 866.059064 427.189263 
L 867.05177 429.330203 
L 868.044476 431.744677 
L 869.037182 432.103925 
L 870.029888 430.434197 
L 871.022594 429.768571 
L 872.0153 432.871047 
L 873.008006 430.262165 
L 874.000712 431.666542 
L 874.993418 431.580019 
L 875.986123 434.322844 
L 876.978829 430.821541 
L 877.971535 431.761038 
L 878.964241 428.86216 
L 879.956947 431.915537 
L 881.942359 431.305483 
L 882.935065 432.239233 
L 883.927771 431.859341 
L 884.920477 430.171059 
L 885.913183 435.345599 
L 886.905889 426.25323 
L 887.898595 433.495225 
L 888.8913 433.827545 
L 889.884006 428.929214 
L 890.876712 430.0687 
L 891.869418 425.886132 
L 892.862124 432.991384 
L 893.85483 435.039812 
L 894.847536 432.51264 
L 895.840242 432.244994 
L 896.832948 433.543073 
L 897.825654 430.568515 
L 898.81836 434.984896 
L 899.811066 436.296192 
L 900.803772 431.595459 
L 901.796477 431.717746 
L 902.789183 433.963708 
L 903.781889 428.943098 
L 904.774595 432.835682 
L 905.767301 431.507348 
L 906.760007 434.489052 
L 907.752713 432.787938 
L 908.745419 428.654279 
L 909.738125 434.274823 
L 910.730831 434.210608 
L 911.723537 432.134109 
L 912.716243 435.844154 
L 913.708949 433.281512 
L 914.701655 438.272525 
L 915.69436 436.565921 
L 916.687066 433.190116 
L 917.679772 434.084037 
L 918.672478 432.263386 
L 919.665184 433.377955 
L 920.65789 431.526077 
L 921.650596 433.785282 
L 922.643302 431.873493 
L 923.636008 432.350373 
L 924.628714 434.62513 
L 925.62142 433.613586 
L 926.614126 432.069078 
L 927.606832 433.31115 
L 928.599537 437.055174 
L 929.592243 433.193546 
L 930.584949 436.297894 
L 931.577655 433.732146 
L 932.570361 435.415819 
L 933.563067 433.521826 
L 934.555773 435.931869 
L 935.548479 433.830055 
L 936.541185 436.09728 
L 937.533891 436.960798 
L 938.526597 433.927088 
L 939.519303 434.322829 
L 940.512009 432.884703 
L 941.504714 434.444522 
L 942.49742 434.552003 
L 943.490126 437.262887 
L 944.482832 437.096662 
L 945.475538 435.168031 
L 946.468244 437.526621 
L 947.46095 436.65845 
L 948.453656 432.739352 
L 949.446362 433.074459 
L 950.439068 432.35821 
L 952.42448 434.431977 
L 953.417186 436.149624 
L 954.409891 433.674551 
L 955.402597 434.014794 
L 956.395303 434.489835 
L 957.388009 436.793979 
L 959.373421 433.394842 
L 960.366127 437.679625 
L 961.358833 433.929441 
L 962.351539 435.751141 
L 963.344245 435.197139 
L 964.336951 433.032882 
L 965.329657 433.850807 
L 966.322363 437.008363 
L 967.315068 435.28297 
L 968.307774 435.143485 
L 969.30048 434.164458 
L 970.293186 430.853037 
L 971.285892 437.316875 
L 972.278598 436.982204 
L 973.271304 436.773236 
L 974.26401 431.663686 
L 975.256716 439.475606 
L 976.249422 430.996748 
L 977.242128 433.895559 
L 978.234834 437.686631 
L 979.22754 435.506476 
L 980.220246 436.761342 
L 981.212951 434.408274 
L 982.205657 435.683739 
L 983.198363 438.385201 
L 984.191069 438.241412 
L 985.183775 435.041568 
L 986.176481 433.881395 
L 987.169187 436.758509 
L 988.161893 437.621303 
L 989.154599 435.23593 
L 990.147305 436.542423 
L 991.140011 434.986248 
L 992.132717 433.161613 
L 993.125423 437.956616 
L 994.118128 439.944828 
L 995.110834 439.157267 
L 996.10354 435.890517 
L 997.096246 436.983216 
L 998.088952 432.223062 
L 999.081658 438.750805 
L 1000.074364 434.222777 
L 1001.06707 436.316964 
L 1002.059776 441.918361 
L 1003.052482 436.453065 
L 1004.045188 436.243797 
L 1005.037894 438.509601 
L 1006.0306 439.634705 
L 1007.023305 439.28512 
L 1008.016011 440.358077 
L 1009.008717 435.066049 
L 1010.001423 433.981483 
L 1010.994129 440.619167 
L 1011.986835 440.453702 
L 1012.979541 431.823167 
L 1013.972247 439.208074 
L 1014.964953 437.286428 
L 1015.957659 440.350531 
L 1016.950365 437.752276 
L 1017.943071 440.246298 
L 1018.935777 435.304104 
L 1019.928482 437.748017 
L 1020.921188 436.298875 
L 1021.913894 438.021153 
L 1022.9066 438.077581 
L 1023.899306 437.767159 
L 1024.892012 436.714849 
L 1025.884718 436.009304 
L 1026.877424 437.433799 
L 1027.87013 439.122033 
L 1028.862836 438.695416 
L 1029.855542 435.943345 
L 1030.848248 438.400152 
L 1031.840954 437.347953 
L 1032.833659 438.293163 
L 1033.826365 440.994535 
L 1034.819071 438.982303 
L 1035.811777 435.913653 
L 1036.804483 439.518118 
L 1037.797189 434.57511 
L 1038.789895 441.296217 
L 1039.782601 438.740624 
L 1040.775307 439.299263 
L 1041.768013 440.828443 
L 1042.760719 438.631731 
L 1043.753425 435.559478 
L 1044.746131 440.268929 
L 1045.738837 438.554214 
L 1046.731542 440.177005 
L 1047.724248 437.161903 
L 1048.716954 437.368814 
L 1049.70966 435.160759 
L 1050.702366 442.291232 
L 1051.695072 440.134411 
L 1053.680484 435.033786 
L 1054.67319 442.203658 
L 1055.665896 443.80923 
L 1056.658602 439.724486 
L 1058.644014 438.120214 
L 1059.636719 439.593492 
L 1060.629425 438.468911 
L 1061.622131 439.539152 
L 1062.614837 437.708458 
L 1063.607543 444.313895 
L 1064.600249 442.014218 
L 1065.592955 442.525654 
L 1066.585661 436.288559 
L 1067.578367 438.318212 
L 1068.571073 438.813362 
L 1069.563779 441.194212 
L 1070.556485 440.610042 
L 1071.549191 443.325368 
L 1072.541896 446.971856 
L 1073.534602 438.577148 
L 1074.527308 439.93796 
L 1075.520014 441.827397 
L 1076.51272 436.940279 
L 1077.505426 436.555229 
L 1078.498132 443.179479 
L 1079.490838 434.969207 
L 1080.483544 439.950709 
L 1081.47625 441.505097 
L 1082.468956 437.758251 
L 1083.461662 441.238407 
L 1084.454368 436.759969 
L 1085.447073 439.993542 
L 1086.439779 437.761708 
L 1087.432485 436.675041 
L 1088.425191 439.88657 
L 1089.417897 438.599358 
L 1090.410603 439.822658 
L 1091.403309 437.530334 
L 1092.396015 441.378006 
L 1093.388721 443.200625 
L 1094.381427 437.961339 
L 1095.374133 440.230251 
L 1096.366839 441.838792 
L 1097.359545 441.179719 
L 1098.35225 437.000187 
L 1099.344956 436.763862 
L 1100.337662 439.153498 
L 1101.330368 440.067982 
L 1102.323074 440.822402 
L 1103.31578 445.50788 
L 1104.308486 445.019633 
L 1105.301192 439.890198 
L 1106.293898 442.98798 
L 1107.286604 441.789545 
L 1108.27931 439.265973 
L 1109.272016 437.969835 
L 1110.264722 437.844238 
L 1111.257428 438.446611 
L 1112.250133 442.741012 
L 1113.242839 440.277616 
L 1114.235545 438.487924 
L 1115.228251 441.986055 
L 1116.220957 442.527368 
L 1117.213663 446.092531 
L 1118.206369 442.608905 
L 1119.199075 440.446523 
L 1120.191781 436.837897 
L 1121.184487 445.348926 
L 1122.177193 439.158807 
L 1123.169899 438.938992 
L 1124.162605 445.329391 
L 1125.15531 441.389719 
L 1126.148016 442.056607 
L 1127.140722 442.022857 
L 1128.133428 441.38856 
L 1129.126134 436.412638 
L 1130.11884 440.656551 
L 1131.111546 436.831324 
L 1132.104252 437.249976 
L 1133.096958 438.870249 
L 1134.089664 442.499352 
L 1135.08237 440.756956 
L 1136.075076 438.390272 
L 1137.067782 437.763798 
L 1138.060487 438.006428 
L 1139.053193 444.912228 
L 1140.045899 438.276583 
L 1141.038605 440.597306 
L 1142.031311 436.292506 
L 1143.024017 439.999358 
L 1144.016723 444.956027 
L 1145.009429 441.556405 
L 1146.002135 445.215379 
L 1146.994841 439.734692 
L 1147.987547 437.871186 
L 1148.980253 440.601326 
L 1149.972959 440.599122 
L 1150.965664 439.314355 
L 1151.95837 442.080989 
L 1152.951076 441.893427 
L 1153.943782 443.518764 
L 1154.936488 438.324063 
L 1155.929194 441.668376 
L 1156.9219 441.585998 
L 1157.914606 438.329478 
L 1158.907312 438.029717 
L 1159.900018 442.301525 
L 1160.892724 437.831646 
L 1161.88543 444.540773 
L 1162.878136 439.079747 
L 1163.870841 443.992459 
L 1164.863547 440.391968 
L 1165.856253 439.311062 
L 1166.848959 436.182934 
L 1167.841665 440.002272 
L 1168.834371 445.779202 
L 1169.827077 442.794727 
L 1170.819783 443.455783 
L 1171.812489 440.146837 
L 1172.805195 443.368021 
L 1173.797901 439.65501 
L 1174.790607 443.929788 
L 1175.783313 440.652489 
L 1176.776019 440.333411 
L 1177.768724 438.662078 
L 1178.76143 443.066616 
L 1179.754136 442.464981 
L 1180.746842 440.401705 
L 1181.739548 441.233971 
L 1182.732254 437.213877 
L 1183.72496 444.608239 
L 1184.717666 438.60736 
L 1185.710372 444.359582 
L 1186.703078 443.238877 
L 1188.68849 438.720165 
L 1189.681196 438.78074 
L 1190.673901 440.572914 
L 1191.666607 438.646427 
L 1192.659313 438.62088 
L 1193.652019 438.351011 
L 1194.644725 444.619017 
L 1195.637431 442.438945 
L 1196.630137 442.192913 
L 1197.622843 437.605135 
L 1198.615549 441.374581 
L 1199.608255 437.657253 
L 1200.600961 439.613036 
L 1201.593667 444.939434 
L 1202.586373 442.582852 
L 1203.579078 443.061803 
L 1204.571784 440.429325 
L 1205.56449 440.025936 
L 1206.557196 441.853874 
L 1207.549902 438.763443 
L 1208.542608 441.973564 
L 1209.535314 441.40991 
L 1210.52802 441.334379 
L 1211.520726 440.395588 
L 1212.513432 444.493516 
L 1213.506138 443.947972 
L 1214.498844 443.670518 
L 1215.49155 442.65238 
L 1216.484255 445.024913 
L 1217.476961 448.200717 
L 1218.469667 439.581132 
L 1219.462373 441.478437 
L 1220.455079 438.119962 
L 1221.447785 442.707348 
L 1222.440491 437.287235 
L 1223.433197 442.534616 
L 1224.425903 440.182225 
L 1225.418609 441.669211 
L 1226.411315 440.094107 
L 1227.404021 441.183254 
L 1228.396727 447.048695 
L 1229.389432 442.408055 
L 1230.382138 439.407398 
L 1231.374844 440.264163 
L 1232.36755 437.379487 
L 1233.360256 444.51628 
L 1234.352962 442.090907 
L 1235.345668 442.720422 
L 1236.338374 441.040506 
L 1237.33108 437.039396 
L 1238.323786 439.479667 
L 1239.316492 439.344441 
L 1240.309198 444.09459 
L 1241.301904 442.089312 
L 1242.29461 440.361063 
L 1243.287315 440.939013 
L 1244.280021 439.877566 
L 1245.272727 442.021236 
L 1245.272727 442.021236 
" clip-path="url(#p72900946d0)" style="fill: none; stroke: #1f77b4; stroke-width: 1.5; stroke-linecap: square"/>
   </g>
   <g id="patch_3">
    <path d="M 180 512.64 
L 180 69.12 
" style="fill: none; stroke: #000000; stroke-width: 0.8; stroke-linejoin: miter; stroke-linecap: square"/>
   </g>
   <g id="patch_4">
    <path d="M 1296 512.64 
L 1296 69.12 
" style="fill: none; stroke: #000000; stroke-width: 0.8; stroke-linejoin: miter; stroke-linecap: square"/>
   </g>
   <g id="patch_5">
    <path d="M 180 512.64 
L 1296 512.64 
" style="fill: none; stroke: #000000; stroke-width: 0.8; stroke-linejoin: miter; stroke-linecap: square"/>
   </g>
   <g id="patch_6">
    <path d="M 180 69.12 
L 1296 69.12 
" style="fill: none; stroke: #000000; stroke-width: 0.8; stroke-linejoin: miter; stroke-linecap: square"/>
   </g>
   <g id="text_15">
    <!-- source22-receiver8 -->
    <g transform="translate(544.9 60.80125) scale(0.4 -0.4)">
     <defs>
      <path id="DejaVuSans-73" d="M 2834 3397 
L 2834 2853 
Q 2591 2978 2328 3040 
Q 2066 3103 1784 3103 
Q 1356 3103 1142 2972 
Q 928 2841 928 2578 
Q 928 2378 1081 2264 
Q 1234 2150 1697 2047 
L 1894 2003 
Q 2506 1872 2764 1633 
Q 3022 1394 3022 966 
Q 3022 478 2636 193 
Q 2250 -91 1575 -91 
Q 1294 -91 989 -36 
Q 684 19 347 128 
L 347 722 
Q 666 556 975 473 
Q 1284 391 1588 391 
Q 1994 391 2212 530 
Q 2431 669 2431 922 
Q 2431 1156 2273 1281 
Q 2116 1406 1581 1522 
L 1381 1569 
Q 847 1681 609 1914 
Q 372 2147 372 2553 
Q 372 3047 722 3315 
Q 1072 3584 1716 3584 
Q 2034 3584 2315 3537 
Q 2597 3491 2834 3397 
z
" transform="scale(0.015625)"/>
      <path id="DejaVuSans-6f" d="M 1959 3097 
Q 1497 3097 1228 2736 
Q 959 2375 959 1747 
Q 959 1119 1226 758 
Q 1494 397 1959 397 
Q 2419 397 2687 759 
Q 2956 1122 2956 1747 
Q 2956 2369 2687 2733 
Q 2419 3097 1959 3097 
z
M 1959 3584 
Q 2709 3584 3137 3096 
Q 3566 2609 3566 1747 
Q 3566 888 3137 398 
Q 2709 -91 1959 -91 
Q 1206 -91 779 398 
Q 353 888 353 1747 
Q 353 2609 779 3096 
Q 1206 3584 1959 3584 
z
" transform="scale(0.015625)"/>
      <path id="DejaVuSans-75" d="M 544 1381 
L 544 3500 
L 1119 3500 
L 1119 1403 
Q 1119 906 1312 657 
Q 1506 409 1894 409 
Q 2359 409 2629 706 
Q 2900 1003 2900 1516 
L 2900 3500 
L 3475 3500 
L 3475 0 
L 2900 0 
L 2900 538 
Q 2691 219 2414 64 
Q 2138 -91 1772 -91 
Q 1169 -91 856 284 
Q 544 659 544 1381 
z
M 1991 3584 
L 1991 3584 
z
" transform="scale(0.015625)"/>
      <path id="DejaVuSans-72" d="M 2631 2963 
Q 2534 3019 2420 3045 
Q 2306 3072 2169 3072 
Q 1681 3072 1420 2755 
Q 1159 2438 1159 1844 
L 1159 0 
L 581 0 
L 581 3500 
L 1159 3500 
L 1159 2956 
Q 1341 3275 1631 3429 
Q 1922 3584 2338 3584 
Q 2397 3584 2469 3576 
Q 2541 3569 2628 3553 
L 2631 2963 
z
" transform="scale(0.015625)"/>
      <path id="DejaVuSans-63" d="M 3122 3366 
L 3122 2828 
Q 2878 2963 2633 3030 
Q 2388 3097 2138 3097 
Q 1578 3097 1268 2742 
Q 959 2388 959 1747 
Q 959 1106 1268 751 
Q 1578 397 2138 397 
Q 2388 397 2633 464 
Q 2878 531 3122 666 
L 3122 134 
Q 2881 22 2623 -34 
Q 2366 -91 2075 -91 
Q 1284 -91 818 406 
Q 353 903 353 1747 
Q 353 2603 823 3093 
Q 1294 3584 2113 3584 
Q 2378 3584 2631 3529 
Q 2884 3475 3122 3366 
z
" transform="scale(0.015625)"/>
      <path id="DejaVuSans-65" d="M 3597 1894 
L 3597 1613 
L 953 1613 
Q 991 1019 1311 708 
Q 1631 397 2203 397 
Q 2534 397 2845 478 
Q 3156 559 3463 722 
L 3463 178 
Q 3153 47 2828 -22 
Q 2503 -91 2169 -91 
Q 1331 -91 842 396 
Q 353 884 353 1716 
Q 353 2575 817 3079 
Q 1281 3584 2069 3584 
Q 2775 3584 3186 3129 
Q 3597 2675 3597 1894 
z
M 3022 2063 
Q 3016 2534 2758 2815 
Q 2500 3097 2075 3097 
Q 1594 3097 1305 2825 
Q 1016 2553 972 2059 
L 3022 2063 
z
" transform="scale(0.015625)"/>
      <path id="DejaVuSans-2d" d="M 313 2009 
L 1997 2009 
L 1997 1497 
L 313 1497 
L 313 2009 
z
" transform="scale(0.015625)"/>
      <path id="DejaVuSans-69" d="M 603 3500 
L 1178 3500 
L 1178 0 
L 603 0 
L 603 3500 
z
M 603 4863 
L 1178 4863 
L 1178 4134 
L 603 4134 
L 603 4863 
z
" transform="scale(0.015625)"/>
      <path id="DejaVuSans-76" d="M 191 3500 
L 800 3500 
L 1894 563 
L 2988 3500 
L 3597 3500 
L 2284 0 
L 1503 0 
L 191 3500 
z
" transform="scale(0.015625)"/>
      <path id="DejaVuSans-38" d="M 2034 2216 
Q 1584 2216 1326 1975 
Q 1069 1734 1069 1313 
Q 1069 891 1326 650 
Q 1584 409 2034 409 
Q 2484 409 2743 651 
Q 3003 894 3003 1313 
Q 3003 1734 2745 1975 
Q 2488 2216 2034 2216 
z
M 1403 2484 
Q 997 2584 770 2862 
Q 544 3141 544 3541 
Q 544 4100 942 4425 
Q 1341 4750 2034 4750 
Q 2731 4750 3128 4425 
Q 3525 4100 3525 3541 
Q 3525 3141 3298 2862 
Q 3072 2584 2669 2484 
Q 3125 2378 3379 2068 
Q 3634 1759 3634 1313 
Q 3634 634 3220 271 
Q 2806 -91 2034 -91 
Q 1263 -91 848 271 
Q 434 634 434 1313 
Q 434 1759 690 2068 
Q 947 2378 1403 2484 
z
M 1172 3481 
Q 1172 3119 1398 2916 
Q 1625 2713 2034 2713 
Q 2441 2713 2670 2916 
Q 2900 3119 2900 3481 
Q 2900 3844 2670 4047 
Q 2441 4250 2034 4250 
Q 1625 4250 1398 4047 
Q 1172 3844 1172 3481 
z
" transform="scale(0.015625)"/>
     </defs>
     <use xlink:href="#DejaVuSans-73"/>
     <use xlink:href="#DejaVuSans-6f" x="52.099609"/>
     <use xlink:href="#DejaVuSans-75" x="113.28125"/>
     <use xlink:href="#DejaVuSans-72" x="176.660156"/>
     <use xlink:href="#DejaVuSans-63" x="215.523438"/>
     <use xlink:href="#DejaVuSans-65" x="270.503906"/>
     <use xlink:href="#DejaVuSans-32" x="332.027344"/>
     <use xlink:href="#DejaVuSans-32" x="395.650391"/>
     <use xlink:href="#DejaVuSans-2d" x="459.273438"/>
     <use xlink:href="#DejaVuSans-72" x="495.357422"/>
     <use xlink:href="#DejaVuSans-65" x="534.220703"/>
     <use xlink:href="#DejaVuSans-63" x="595.744141"/>
     <use xlink:href="#DejaVuSans-65" x="650.724609"/>
     <use xlink:href="#DejaVuSans-69" x="712.248047"/>
     <use xlink:href="#DejaVuSans-76" x="740.03125"/>
     <use xlink:href="#DejaVuSans-65" x="799.210938"/>
     <use xlink:href="#DejaVuSans-72" x="860.734375"/>
     <use xlink:href="#DejaVuSans-38" x="901.847656"/>
    </g>
   </g>
  </g>
 </g>
 <defs>
  <clipPath id="p72900946d0">
   <rect x="180" y="69.12" width="1116" height="443.52"/>
  </clipPath>
 </defs>
</svg>
