<?xml version="1.0" encoding="utf-8" standalone="no"?>
<!DOCTYPE svg PUBLIC "-//W3C//DTD SVG 1.1//EN"
  "http://www.w3.org/Graphics/SVG/1.1/DTD/svg11.dtd">
<svg xmlns:xlink="http://www.w3.org/1999/xlink" width="1440pt" height="576pt" viewBox="0 0 1440 576" xmlns="http://www.w3.org/2000/svg" version="1.1">
 <metadata>
  <rdf:RDF xmlns:dc="http://purl.org/dc/elements/1.1/" xmlns:cc="http://creativecommons.org/ns#" xmlns:rdf="http://www.w3.org/1999/02/22-rdf-syntax-ns#">
   <cc:Work>
    <dc:type rdf:resource="http://purl.org/dc/dcmitype/StillImage"/>
    <dc:date>2024-05-22T04:50:21.959631</dc:date>
    <dc:format>image/svg+xml</dc:format>
    <dc:creator>
     <cc:Agent>
      <dc:title>Matplotlib v3.8.3, https://matplotlib.org/</dc:title>
     </cc:Agent>
    </dc:creator>
   </cc:Work>
  </rdf:RDF>
 </metadata>
 <defs>
  <style type="text/css">*{stroke-linejoin: round; stroke-linecap: butt}</style>
 </defs>
 <g id="figure_1">
  <g id="patch_1">
   <path d="M 0 576 
L 1440 576 
L 1440 0 
L 0 0 
z
" style="fill: #ffffff"/>
  </g>
  <g id="axes_1">
   <g id="patch_2">
    <path d="M 180 512.64 
L 1296 512.64 
L 1296 69.12 
L 180 69.12 
z
" style="fill: #ffffff"/>
   </g>
   <g id="matplotlib.axis_1">
    <g id="xtick_1">
     <g id="line2d_1">
      <defs>
       <path id="m6f6f19d936" d="M 0 0 
L 0 3.5 
" style="stroke: #000000; stroke-width: 0.8"/>
      </defs>
      <g>
       <use xlink:href="#m6f6f19d936" x="229.734567" y="512.64" style="stroke: #000000; stroke-width: 0.8"/>
      </g>
     </g>
     <g id="text_1">
      <!-- 0 -->
      <g transform="translate(226.553317 527.238438) scale(0.1 -0.1)">
       <defs>
        <path id="DejaVuSans-30" d="M 2034 4250 
Q 1547 4250 1301 3770 
Q 1056 3291 1056 2328 
Q 1056 1369 1301 889 
Q 1547 409 2034 409 
Q 2525 409 2770 889 
Q 3016 1369 3016 2328 
Q 3016 3291 2770 3770 
Q 2525 4250 2034 4250 
z
M 2034 4750 
Q 2819 4750 3233 4129 
Q 3647 3509 3647 2328 
Q 3647 1150 3233 529 
Q 2819 -91 2034 -91 
Q 1250 -91 836 529 
Q 422 1150 422 2328 
Q 422 3509 836 4129 
Q 1250 4750 2034 4750 
z
" transform="scale(0.015625)"/>
       </defs>
       <use xlink:href="#DejaVuSans-30"/>
      </g>
     </g>
    </g>
    <g id="xtick_2">
     <g id="line2d_2">
      <g>
       <use xlink:href="#m6f6f19d936" x="433.04074" y="512.64" style="stroke: #000000; stroke-width: 0.8"/>
      </g>
     </g>
     <g id="text_2">
      <!-- 500 -->
      <g transform="translate(423.49699 527.238438) scale(0.1 -0.1)">
       <defs>
        <path id="DejaVuSans-35" d="M 691 4666 
L 3169 4666 
L 3169 4134 
L 1269 4134 
L 1269 2991 
Q 1406 3038 1543 3061 
Q 1681 3084 1819 3084 
Q 2600 3084 3056 2656 
Q 3513 2228 3513 1497 
Q 3513 744 3044 326 
Q 2575 -91 1722 -91 
Q 1428 -91 1123 -41 
Q 819 9 494 109 
L 494 744 
Q 775 591 1075 516 
Q 1375 441 1709 441 
Q 2250 441 2565 725 
Q 2881 1009 2881 1497 
Q 2881 1984 2565 2268 
Q 2250 2553 1709 2553 
Q 1456 2553 1204 2497 
Q 953 2441 691 2322 
L 691 4666 
z
" transform="scale(0.015625)"/>
       </defs>
       <use xlink:href="#DejaVuSans-35"/>
       <use xlink:href="#DejaVuSans-30" x="63.623047"/>
       <use xlink:href="#DejaVuSans-30" x="127.246094"/>
      </g>
     </g>
    </g>
    <g id="xtick_3">
     <g id="line2d_3">
      <g>
       <use xlink:href="#m6f6f19d936" x="636.346913" y="512.64" style="stroke: #000000; stroke-width: 0.8"/>
      </g>
     </g>
     <g id="text_3">
      <!-- 1000 -->
      <g transform="translate(623.621913 527.238438) scale(0.1 -0.1)">
       <defs>
        <path id="DejaVuSans-31" d="M 794 531 
L 1825 531 
L 1825 4091 
L 703 3866 
L 703 4441 
L 1819 4666 
L 2450 4666 
L 2450 531 
L 3481 531 
L 3481 0 
L 794 0 
L 794 531 
z
" transform="scale(0.015625)"/>
       </defs>
       <use xlink:href="#DejaVuSans-31"/>
       <use xlink:href="#DejaVuSans-30" x="63.623047"/>
       <use xlink:href="#DejaVuSans-30" x="127.246094"/>
       <use xlink:href="#DejaVuSans-30" x="190.869141"/>
      </g>
     </g>
    </g>
    <g id="xtick_4">
     <g id="line2d_4">
      <g>
       <use xlink:href="#m6f6f19d936" x="839.653087" y="512.64" style="stroke: #000000; stroke-width: 0.8"/>
      </g>
     </g>
     <g id="text_4">
      <!-- 1500 -->
      <g transform="translate(826.928087 527.238438) scale(0.1 -0.1)">
       <use xlink:href="#DejaVuSans-31"/>
       <use xlink:href="#DejaVuSans-35" x="63.623047"/>
       <use xlink:href="#DejaVuSans-30" x="127.246094"/>
       <use xlink:href="#DejaVuSans-30" x="190.869141"/>
      </g>
     </g>
    </g>
    <g id="xtick_5">
     <g id="line2d_5">
      <g>
       <use xlink:href="#m6f6f19d936" x="1042.95926" y="512.64" style="stroke: #000000; stroke-width: 0.8"/>
      </g>
     </g>
     <g id="text_5">
      <!-- 2000 -->
      <g transform="translate(1030.23426 527.238438) scale(0.1 -0.1)">
       <defs>
        <path id="DejaVuSans-32" d="M 1228 531 
L 3431 531 
L 3431 0 
L 469 0 
L 469 531 
Q 828 903 1448 1529 
Q 2069 2156 2228 2338 
Q 2531 2678 2651 2914 
Q 2772 3150 2772 3378 
Q 2772 3750 2511 3984 
Q 2250 4219 1831 4219 
Q 1534 4219 1204 4116 
Q 875 4013 500 3803 
L 500 4441 
Q 881 4594 1212 4672 
Q 1544 4750 1819 4750 
Q 2544 4750 2975 4387 
Q 3406 4025 3406 3419 
Q 3406 3131 3298 2873 
Q 3191 2616 2906 2266 
Q 2828 2175 2409 1742 
Q 1991 1309 1228 531 
z
" transform="scale(0.015625)"/>
       </defs>
       <use xlink:href="#DejaVuSans-32"/>
       <use xlink:href="#DejaVuSans-30" x="63.623047"/>
       <use xlink:href="#DejaVuSans-30" x="127.246094"/>
       <use xlink:href="#DejaVuSans-30" x="190.869141"/>
      </g>
     </g>
    </g>
    <g id="xtick_6">
     <g id="line2d_6">
      <g>
       <use xlink:href="#m6f6f19d936" x="1246.265433" y="512.64" style="stroke: #000000; stroke-width: 0.8"/>
      </g>
     </g>
     <g id="text_6">
      <!-- 2500 -->
      <g transform="translate(1233.540433 527.238438) scale(0.1 -0.1)">
       <use xlink:href="#DejaVuSans-32"/>
       <use xlink:href="#DejaVuSans-35" x="63.623047"/>
       <use xlink:href="#DejaVuSans-30" x="127.246094"/>
       <use xlink:href="#DejaVuSans-30" x="190.869141"/>
      </g>
     </g>
    </g>
   </g>
   <g id="matplotlib.axis_2">
    <g id="ytick_1">
     <g id="line2d_7">
      <defs>
       <path id="m9bd89d3d8a" d="M 0 0 
L -3.5 0 
" style="stroke: #000000; stroke-width: 0.8"/>
      </defs>
      <g>
       <use xlink:href="#m9bd89d3d8a" x="180" y="464.899603" style="stroke: #000000; stroke-width: 0.8"/>
      </g>
     </g>
     <g id="text_7">
      <!-- −2 -->
      <g transform="translate(158.257812 468.698822) scale(0.1 -0.1)">
       <defs>
        <path id="DejaVuSans-2212" d="M 678 2272 
L 4684 2272 
L 4684 1741 
L 678 1741 
L 678 2272 
z
" transform="scale(0.015625)"/>
       </defs>
       <use xlink:href="#DejaVuSans-2212"/>
       <use xlink:href="#DejaVuSans-32" x="83.789062"/>
      </g>
     </g>
    </g>
    <g id="ytick_2">
     <g id="line2d_8">
      <g>
       <use xlink:href="#m9bd89d3d8a" x="180" y="410.377891" style="stroke: #000000; stroke-width: 0.8"/>
      </g>
     </g>
     <g id="text_8">
      <!-- −1 -->
      <g transform="translate(158.257812 414.17711) scale(0.1 -0.1)">
       <use xlink:href="#DejaVuSans-2212"/>
       <use xlink:href="#DejaVuSans-31" x="83.789062"/>
      </g>
     </g>
    </g>
    <g id="ytick_3">
     <g id="line2d_9">
      <g>
       <use xlink:href="#m9bd89d3d8a" x="180" y="355.856179" style="stroke: #000000; stroke-width: 0.8"/>
      </g>
     </g>
     <g id="text_9">
      <!-- 0 -->
      <g transform="translate(166.6375 359.655398) scale(0.1 -0.1)">
       <use xlink:href="#DejaVuSans-30"/>
      </g>
     </g>
    </g>
    <g id="ytick_4">
     <g id="line2d_10">
      <g>
       <use xlink:href="#m9bd89d3d8a" x="180" y="301.334467" style="stroke: #000000; stroke-width: 0.8"/>
      </g>
     </g>
     <g id="text_10">
      <!-- 1 -->
      <g transform="translate(166.6375 305.133686) scale(0.1 -0.1)">
       <use xlink:href="#DejaVuSans-31"/>
      </g>
     </g>
    </g>
    <g id="ytick_5">
     <g id="line2d_11">
      <g>
       <use xlink:href="#m9bd89d3d8a" x="180" y="246.812755" style="stroke: #000000; stroke-width: 0.8"/>
      </g>
     </g>
     <g id="text_11">
      <!-- 2 -->
      <g transform="translate(166.6375 250.611974) scale(0.1 -0.1)">
       <use xlink:href="#DejaVuSans-32"/>
      </g>
     </g>
    </g>
    <g id="ytick_6">
     <g id="line2d_12">
      <g>
       <use xlink:href="#m9bd89d3d8a" x="180" y="192.291043" style="stroke: #000000; stroke-width: 0.8"/>
      </g>
     </g>
     <g id="text_12">
      <!-- 3 -->
      <g transform="translate(166.6375 196.090262) scale(0.1 -0.1)">
       <defs>
        <path id="DejaVuSans-33" d="M 2597 2516 
Q 3050 2419 3304 2112 
Q 3559 1806 3559 1356 
Q 3559 666 3084 287 
Q 2609 -91 1734 -91 
Q 1441 -91 1130 -33 
Q 819 25 488 141 
L 488 750 
Q 750 597 1062 519 
Q 1375 441 1716 441 
Q 2309 441 2620 675 
Q 2931 909 2931 1356 
Q 2931 1769 2642 2001 
Q 2353 2234 1838 2234 
L 1294 2234 
L 1294 2753 
L 1863 2753 
Q 2328 2753 2575 2939 
Q 2822 3125 2822 3475 
Q 2822 3834 2567 4026 
Q 2313 4219 1838 4219 
Q 1578 4219 1281 4162 
Q 984 4106 628 3988 
L 628 4550 
Q 988 4650 1302 4700 
Q 1616 4750 1894 4750 
Q 2613 4750 3031 4423 
Q 3450 4097 3450 3541 
Q 3450 3153 3228 2886 
Q 3006 2619 2597 2516 
z
" transform="scale(0.015625)"/>
       </defs>
       <use xlink:href="#DejaVuSans-33"/>
      </g>
     </g>
    </g>
    <g id="ytick_7">
     <g id="line2d_13">
      <g>
       <use xlink:href="#m9bd89d3d8a" x="180" y="137.769331" style="stroke: #000000; stroke-width: 0.8"/>
      </g>
     </g>
     <g id="text_13">
      <!-- 4 -->
      <g transform="translate(166.6375 141.56855) scale(0.1 -0.1)">
       <defs>
        <path id="DejaVuSans-34" d="M 2419 4116 
L 825 1625 
L 2419 1625 
L 2419 4116 
z
M 2253 4666 
L 3047 4666 
L 3047 1625 
L 3713 1625 
L 3713 1100 
L 3047 1100 
L 3047 0 
L 2419 0 
L 2419 1100 
L 313 1100 
L 313 1709 
L 2253 4666 
z
" transform="scale(0.015625)"/>
       </defs>
       <use xlink:href="#DejaVuSans-34"/>
      </g>
     </g>
    </g>
    <g id="ytick_8">
     <g id="line2d_14">
      <g>
       <use xlink:href="#m9bd89d3d8a" x="180" y="83.247619" style="stroke: #000000; stroke-width: 0.8"/>
      </g>
     </g>
     <g id="text_14">
      <!-- 5 -->
      <g transform="translate(166.6375 87.046837) scale(0.1 -0.1)">
       <use xlink:href="#DejaVuSans-35"/>
      </g>
     </g>
    </g>
   </g>
   <g id="line2d_15">
    <path d="M 230.727273 437.881272 
L 231.719979 432.571993 
L 233.70539 418.213473 
L 235.690802 402.775515 
L 237.676214 388.60586 
L 241.647038 361.793454 
L 243.63245 348.186119 
L 244.625156 339.729036 
L 245.617862 328.905915 
L 246.610568 321.965798 
L 247.603273 336.950419 
L 248.595979 325.246528 
L 249.588685 284.714071 
L 250.581391 289.102126 
L 251.574097 271.6051 
L 252.566803 228.174581 
L 253.559509 219.366985 
L 254.552215 240.957518 
L 255.544921 290.85941 
L 256.537627 224.171729 
L 257.530333 195.42715 
L 258.523039 196.14312 
L 259.515745 213.137698 
L 260.50845 232.191207 
L 261.501156 233.474166 
L 262.493862 229.337136 
L 263.486568 247.638682 
L 264.479274 253.412087 
L 265.47198 241.102267 
L 266.464686 202.898095 
L 267.457392 202.680902 
L 268.450098 224.461233 
L 269.442804 217.081006 
L 270.43551 190.609855 
L 271.428216 193.484891 
L 272.420922 234.18625 
L 273.413627 179.701438 
L 274.406333 156.028341 
L 275.399039 153.464611 
L 276.391745 166.776533 
L 277.384451 157.003065 
L 278.377157 119.48496 
L 279.369863 102.86066 
L 280.362569 106.292799 
L 281.355275 110.936484 
L 282.347981 106.416843 
L 283.340687 117.432077 
L 284.333393 107.938981 
L 285.326099 89.28 
L 286.318804 101.745428 
L 287.31151 170.419951 
L 288.304216 138.185961 
L 289.296922 126.857497 
L 290.289628 157.408332 
L 291.282334 226.316235 
L 292.27504 253.473588 
L 293.267746 239.829704 
L 294.260452 236.472013 
L 295.253158 303.108889 
L 296.245864 252.334599 
L 297.23857 262.106918 
L 298.231276 296.885459 
L 299.223981 272.557968 
L 300.216687 258.822616 
L 301.209393 297.689913 
L 302.202099 312.679955 
L 303.194805 354.654353 
L 304.187511 322.90644 
L 305.180217 341.182042 
L 306.172923 309.226283 
L 307.165629 336.096061 
L 308.158335 328.339176 
L 309.151041 319.597171 
L 310.143747 398.03918 
L 311.136453 339.484009 
L 312.129159 385.336899 
L 313.121864 342.261445 
L 314.11457 360.518069 
L 315.107276 353.353632 
L 316.099982 375.468602 
L 317.092688 359.240124 
L 318.085394 360.674651 
L 319.0781 371.037359 
L 320.070806 371.647224 
L 322.056218 372.094845 
L 323.048924 366.18015 
L 324.04163 368.618028 
L 325.034336 371.5624 
L 326.027041 372.648322 
L 327.019747 381.522294 
L 328.012453 370.772733 
L 329.005159 375.105989 
L 329.997865 385.196348 
L 330.990571 380.616335 
L 331.983277 375.097969 
L 332.975983 373.340889 
L 333.968689 382.848688 
L 335.954101 368.083728 
L 336.946807 393.1373 
L 337.939513 378.189054 
L 338.932218 379.562705 
L 339.924924 386.895064 
L 340.91763 383.900723 
L 341.910336 379.98719 
L 342.903042 379.847489 
L 343.895748 389.726946 
L 344.888454 381.594086 
L 345.88116 388.770099 
L 346.873866 394.328688 
L 347.866572 383.948678 
L 348.859278 391.248384 
L 349.851984 386.720775 
L 350.84469 385.767612 
L 351.837395 382.731425 
L 354.815513 393.458223 
L 355.808219 388.649474 
L 356.800925 396.597046 
L 357.793631 390.737709 
L 359.779043 395.565939 
L 360.771749 396.948358 
L 362.757161 383.668255 
L 363.749867 408.664805 
L 365.735278 380.9993 
L 366.727984 418.915644 
L 367.72069 399.478396 
L 368.713396 383.984298 
L 369.706102 397.982526 
L 370.698808 401.630052 
L 371.691514 412.735453 
L 372.68422 395.133781 
L 373.676926 407.471762 
L 374.669632 401.972391 
L 375.662338 403.020378 
L 376.655044 412.276287 
L 377.64775 390.409319 
L 378.640455 391.595484 
L 379.633161 411.005909 
L 380.625867 396.097111 
L 381.618573 407.858663 
L 382.611279 407.543976 
L 383.603985 403.661328 
L 384.596691 395.378381 
L 385.589397 404.796396 
L 386.582103 410.189558 
L 387.574809 405.219001 
L 388.567515 408.325387 
L 390.552927 386.205389 
L 391.545632 468.316973 
L 392.538338 374.463886 
L 393.531044 390.710915 
L 394.52375 492.318953 
L 395.516456 396.71031 
L 396.509162 398.802744 
L 397.501868 417.055067 
L 398.494574 432.501518 
L 399.48728 405.705117 
L 400.479986 404.660785 
L 401.472692 397.037073 
L 402.465398 421.220201 
L 403.458104 405.781965 
L 404.450809 418.001316 
L 405.443515 388.858064 
L 406.436221 423.845826 
L 407.428927 400.219825 
L 408.421633 415.376572 
L 409.414339 428.802703 
L 410.407045 414.192676 
L 411.399751 412.273481 
L 412.392457 402.082113 
L 413.385163 423.664472 
L 414.377869 406.164265 
L 415.370575 407.108375 
L 416.363281 417.080118 
L 417.355986 380.141411 
L 418.348692 433.735546 
L 419.341398 381.324373 
L 420.334104 367.138766 
L 421.32681 410.728245 
L 422.319516 403.305915 
L 423.312222 376.943323 
L 424.304928 412.742557 
L 425.297634 472.788715 
L 426.29034 423.471023 
L 427.283046 419.159579 
L 428.275752 396.102712 
L 429.268458 433.434298 
L 430.261163 421.442649 
L 431.253869 432.582904 
L 432.246575 405.716157 
L 433.239281 403.611446 
L 434.231987 430.858726 
L 435.224693 412.341307 
L 436.217399 435.472726 
L 437.210105 418.833631 
L 438.202811 416.300426 
L 439.195517 400.745355 
L 440.188223 427.411291 
L 441.180929 435.611793 
L 442.173635 427.314573 
L 443.166341 412.176643 
L 444.159046 432.861906 
L 445.151752 395.222374 
L 446.144458 448.77765 
L 447.137164 409.695366 
L 448.12987 404.546482 
L 449.122576 425.194829 
L 450.115282 423.740888 
L 451.107988 426.759032 
L 452.100694 425.857856 
L 453.0934 421.496574 
L 454.086106 425.777375 
L 455.078812 428.643203 
L 456.071518 418.7813 
L 457.064223 430.32064 
L 458.056929 417.422889 
L 459.049635 426.995465 
L 460.042341 430.640979 
L 461.035047 423.016173 
L 462.027753 437.329714 
L 463.020459 421.565643 
L 464.013165 428.709178 
L 465.005871 428.706486 
L 465.998577 435.097169 
L 466.991283 419.13922 
L 467.983989 431.614942 
L 468.976695 439.405657 
L 469.9694 422.623967 
L 470.962106 427.9878 
L 471.954812 426.837132 
L 472.947518 427.326494 
L 473.940224 444.966341 
L 474.93293 420.647836 
L 475.925636 436.132139 
L 476.918342 427.96844 
L 477.911048 432.917247 
L 478.903754 427.9207 
L 479.89646 432.716012 
L 480.889166 438.205502 
L 482.874577 424.884894 
L 483.867283 444.128878 
L 484.859989 426.467585 
L 485.852695 433.654919 
L 486.845401 438.195686 
L 487.838107 425.095679 
L 488.830813 440.448265 
L 489.823519 437.667994 
L 490.816225 448.043612 
L 491.808931 429.094257 
L 492.801637 427.483964 
L 493.794343 426.183744 
L 494.787049 432.693516 
L 495.779754 444.254498 
L 496.77246 432.186354 
L 497.765166 430.496756 
L 498.757872 427.581531 
L 499.750578 416.154119 
L 500.743284 479.137687 
L 501.73599 412.423301 
L 502.728696 416.181068 
L 503.721402 459.637185 
L 504.714108 433.219951 
L 506.69952 424.800462 
L 507.692226 442.749382 
L 508.684932 430.241664 
L 509.677637 423.718413 
L 510.670343 448.902887 
L 511.663049 442.787035 
L 512.655755 441.311216 
L 513.648461 474.326173 
L 514.641167 422.123129 
L 515.633873 433.863955 
L 516.626579 428.804558 
L 517.619285 448.299942 
L 518.611991 452.536805 
L 519.604697 448.08874 
L 520.597403 429.043113 
L 521.590109 425.783837 
L 522.582814 448.800407 
L 523.57552 438.937916 
L 524.568226 449.20684 
L 525.560932 481.162762 
L 526.553638 406.914232 
L 527.546344 444.389228 
L 528.53905 412.312782 
L 529.531756 401.448046 
L 530.524462 433.906415 
L 531.517168 448.401917 
L 532.509874 413.802372 
L 533.50258 432.016965 
L 534.495286 492.48 
L 536.480697 436.676183 
L 537.473403 427.979186 
L 538.466109 451.172961 
L 539.458815 420.855998 
L 540.451521 486.933735 
L 541.444227 431.410028 
L 542.436933 420.192636 
L 543.429639 434.574028 
L 544.422345 432.686965 
L 545.415051 438.766134 
L 546.407757 448.373441 
L 547.400463 469.771169 
L 548.393168 435.839601 
L 549.385874 455.907588 
L 550.37858 452.019297 
L 551.371286 432.765585 
L 552.363992 473.633526 
L 553.356698 424.804512 
L 554.349404 408.502098 
L 555.34211 467.203938 
L 556.334816 400.950114 
L 557.327522 402.993537 
L 558.320228 470.445111 
L 559.312934 427.294824 
L 560.30564 421.062159 
L 561.298345 447.212318 
L 562.291051 449.063782 
L 564.276463 434.927466 
L 565.269169 460.272879 
L 566.261875 432.883696 
L 567.254581 443.036142 
L 568.247287 467.980214 
L 569.239993 445.244331 
L 570.232699 442.869816 
L 571.225405 447.029297 
L 572.218111 460.079949 
L 573.210817 451.940894 
L 574.203523 448.695462 
L 575.196228 450.24553 
L 576.188934 439.445819 
L 577.18164 449.419427 
L 578.174346 438.386778 
L 579.167052 444.55981 
L 580.159758 467.266793 
L 581.152464 428.282093 
L 582.14517 470.913068 
L 583.137876 443.821361 
L 584.130582 427.50846 
L 585.123288 458.237829 
L 586.115994 461.484352 
L 587.1087 445.10647 
L 588.101405 443.661867 
L 589.094111 456.072873 
L 590.086817 454.223179 
L 591.079523 448.951438 
L 592.072229 450.28921 
L 593.064935 456.372525 
L 594.057641 440.707512 
L 595.050347 457.079064 
L 596.043053 453.895321 
L 597.035759 443.031773 
L 598.028465 457.337155 
L 599.021171 448.188117 
L 600.013877 449.832975 
L 601.006582 453.639549 
L 601.999288 459.636699 
L 602.991994 442.800311 
L 603.9847 458.159037 
L 604.977406 455.090638 
L 605.970112 447.958633 
L 606.962818 453.929894 
L 607.955524 455.815608 
L 608.94823 452.128029 
L 609.940936 455.976785 
L 610.933642 455.303359 
L 611.926348 458.335317 
L 612.919054 448.864687 
L 613.911759 449.514889 
L 614.904465 450.324267 
L 615.897171 453.73575 
L 616.889877 451.403673 
L 617.882583 453.611858 
L 618.875289 457.455652 
L 619.867995 455.732225 
L 620.860701 452.903576 
L 621.853407 451.046166 
L 622.846113 452.321628 
L 623.838819 458.074925 
L 624.831525 458.159611 
L 625.824231 454.634605 
L 626.816936 456.192442 
L 627.809642 461.991558 
L 628.802348 450.576937 
L 629.795054 459.088378 
L 630.78776 458.04192 
L 631.780466 457.850953 
L 632.773172 459.783266 
L 633.765878 455.368717 
L 634.758584 457.572752 
L 635.75129 454.664938 
L 636.743996 457.008488 
L 637.736702 457.685925 
L 638.729408 460.981805 
L 639.722114 460.601455 
L 640.714819 458.20682 
L 641.707525 457.568796 
L 642.700231 454.626327 
L 643.692937 461.458478 
L 644.685643 457.194232 
L 645.678349 462.326196 
L 646.671055 461.747084 
L 647.663761 458.168454 
L 648.656467 461.314457 
L 649.649173 458.826062 
L 650.641879 459.535933 
L 651.634585 461.531118 
L 652.627291 460.050081 
L 653.619996 460.825842 
L 654.612702 457.022802 
L 655.605408 459.814975 
L 657.59082 459.624234 
L 658.583526 460.079959 
L 659.576232 460.316038 
L 660.568938 459.949886 
L 661.561644 457.934607 
L 662.55435 459.333869 
L 663.547056 463.299045 
L 664.539762 457.47313 
L 665.532468 458.623452 
L 666.525173 458.158949 
L 667.517879 458.762924 
L 668.510585 460.668471 
L 669.503291 459.358161 
L 670.495997 459.611614 
L 671.488703 458.835454 
L 672.481409 460.94121 
L 673.474115 464.684521 
L 674.466821 461.103511 
L 675.459527 460.397983 
L 676.452233 460.628908 
L 677.444939 461.771713 
L 678.437645 459.915835 
L 679.43035 462.120852 
L 680.423056 460.778588 
L 681.415762 463.905249 
L 682.408468 462.578077 
L 683.401174 462.110299 
L 684.39388 462.441429 
L 685.386586 464.003213 
L 686.379292 463.798686 
L 687.371998 463.895418 
L 688.364704 465.171525 
L 689.35741 462.102487 
L 690.350116 463.120529 
L 691.342822 461.061148 
L 692.335527 464.229997 
L 693.328233 463.7434 
L 694.320939 462.939328 
L 695.313645 464.225516 
L 696.306351 462.191805 
L 697.299057 463.440822 
L 698.291763 462.434271 
L 699.284469 464.244447 
L 700.277175 465.049384 
L 701.269881 463.43647 
L 702.262587 464.580506 
L 703.255293 464.636774 
L 704.247999 465.060591 
L 706.23341 463.79895 
L 707.226116 465.019231 
L 708.218822 464.553395 
L 709.211528 464.434793 
L 710.204234 465.384904 
L 711.19694 465.02718 
L 712.189646 465.519905 
L 713.182352 464.778487 
L 715.167764 464.484022 
L 716.16047 465.291953 
L 717.153176 464.921301 
L 718.145882 466.338725 
L 719.138587 465.239165 
L 720.131293 465.652069 
L 721.123999 464.817406 
L 722.116705 465.43937 
L 723.109411 465.524339 
L 724.102117 465.065967 
L 725.094823 467.048382 
L 726.087529 465.999898 
L 727.080235 467.536135 
L 728.072941 467.457805 
L 729.065647 466.69477 
L 730.058353 467.227942 
L 731.051059 466.361086 
L 732.043764 466.232755 
L 734.029176 467.041389 
L 735.021882 467.232472 
L 736.014588 467.238704 
L 737.007294 467.904787 
L 738 467.115176 
L 738.992706 467.970246 
L 739.985412 468.055249 
L 740.978118 467.454762 
L 742.96353 467.783174 
L 743.956236 467.356084 
L 744.948941 468.736789 
L 745.941647 467.635557 
L 746.934353 468.131544 
L 747.927059 468.324668 
L 748.919765 466.924711 
L 749.912471 468.851322 
L 750.905177 468.562702 
L 751.897883 468.430521 
L 752.890589 468.453541 
L 753.883295 469.356469 
L 754.876001 468.377228 
L 755.868707 468.963822 
L 756.861413 468.580652 
L 757.854118 468.705986 
L 758.846824 469.06568 
L 760.832236 468.80282 
L 761.824942 469.656463 
L 762.817648 469.034804 
L 763.810354 469.902892 
L 764.80306 469.113949 
L 765.795766 469.547442 
L 766.788472 469.34958 
L 767.781178 469.917004 
L 768.773884 470.192565 
L 769.76659 470.666268 
L 771.752001 469.90525 
L 772.744707 469.457998 
L 773.737413 470.109314 
L 774.730119 470.93948 
L 775.722825 469.637758 
L 776.715531 470.239646 
L 777.708237 471.125501 
L 778.700943 470.033055 
L 779.693649 470.717743 
L 780.686355 472.224021 
L 781.679061 471.104749 
L 782.671767 470.678713 
L 783.664473 470.950489 
L 784.657178 471.391775 
L 785.649884 471.683747 
L 786.64259 470.676469 
L 787.635296 471.001733 
L 788.628002 471.863672 
L 789.620708 471.322514 
L 790.613414 472.120199 
L 791.60612 471.592361 
L 793.591532 472.329238 
L 794.584238 472.38857 
L 796.56965 471.422734 
L 797.562355 471.870902 
L 798.555061 471.332234 
L 799.547767 472.596885 
L 800.540473 471.808672 
L 801.533179 472.329078 
L 802.525885 471.951086 
L 803.518591 471.766638 
L 804.511297 472.711853 
L 805.504003 472.256369 
L 806.496709 472.067805 
L 807.489415 472.06902 
L 808.482121 473.643934 
L 809.474827 471.864033 
L 810.467532 472.627314 
L 811.460238 473.551161 
L 812.452944 473.007863 
L 813.44565 473.113698 
L 814.438356 472.90057 
L 815.431062 473.39734 
L 816.423768 473.394833 
L 818.40918 474.166242 
L 819.401886 473.549845 
L 822.380004 473.436034 
L 823.372709 473.454852 
L 824.365415 474.014134 
L 825.358121 473.425493 
L 826.350827 473.602753 
L 827.343533 474.182654 
L 828.336239 474.064204 
L 829.328945 474.577469 
L 830.321651 473.245093 
L 831.314357 473.426222 
L 832.307063 474.133203 
L 833.299769 473.840519 
L 834.292475 473.729822 
L 835.285181 474.461592 
L 836.277886 474.999588 
L 837.270592 473.758986 
L 838.263298 474.906019 
L 839.256004 474.675097 
L 840.24871 474.773156 
L 841.241416 475.800352 
L 842.234122 474.328888 
L 843.226828 474.291897 
L 844.219534 474.868804 
L 845.21224 475.145827 
L 846.204946 474.561843 
L 847.197652 475.245191 
L 849.183064 475.904798 
L 850.175769 475.387 
L 851.168475 475.849356 
L 852.161181 474.723489 
L 853.153887 475.648788 
L 855.139299 475.816799 
L 856.132005 476.29246 
L 857.124711 475.847499 
L 858.117417 476.222609 
L 859.110123 475.749702 
L 860.102829 475.821376 
L 861.095535 476.054614 
L 862.088241 476.463488 
L 863.080946 476.711217 
L 864.073652 477.146446 
L 865.066358 476.318601 
L 866.059064 476.469239 
L 867.05177 476.05137 
L 868.044476 476.18635 
L 869.037182 476.881015 
L 870.029888 477.929033 
L 871.022594 476.430125 
L 873.008006 476.703189 
L 874.000712 476.193706 
L 874.993418 477.480161 
L 875.986123 476.456759 
L 876.978829 478.590416 
L 877.971535 476.389858 
L 878.964241 476.046857 
L 879.956947 477.102809 
L 880.949653 477.080418 
L 881.942359 476.259309 
L 882.935065 477.152295 
L 883.927771 477.795838 
L 884.920477 477.134829 
L 885.913183 477.602627 
L 886.905889 477.755267 
L 887.898595 476.82621 
L 888.8913 477.525913 
L 889.884006 477.801177 
L 890.876712 478.297998 
L 891.869418 477.808693 
L 892.862124 478.127088 
L 893.85483 477.658811 
L 895.840242 478.393746 
L 896.832948 477.671799 
L 897.825654 478.495749 
L 898.81836 477.444072 
L 899.811066 479.454217 
L 900.803772 478.283226 
L 901.796477 477.468372 
L 903.781889 477.981652 
L 904.774595 477.790898 
L 905.767301 478.127212 
L 906.760007 479.701513 
L 907.752713 477.974663 
L 908.745419 478.263034 
L 910.730831 479.152819 
L 911.723537 479.304814 
L 912.716243 478.267276 
L 913.708949 478.990008 
L 917.679772 479.016725 
L 918.672478 478.859891 
L 919.665184 478.983614 
L 920.65789 478.720531 
L 922.643302 479.31986 
L 923.636008 479.24969 
L 924.628714 478.469799 
L 926.614126 479.428272 
L 928.599537 479.142867 
L 929.592243 479.23028 
L 930.584949 479.706458 
L 931.577655 479.790634 
L 932.570361 480.086656 
L 933.563067 479.645247 
L 934.555773 479.650153 
L 935.548479 480.077537 
L 936.541185 478.990884 
L 937.533891 478.891312 
L 938.526597 479.2395 
L 939.519303 480.081184 
L 940.512009 479.874219 
L 941.504714 480.411003 
L 942.49742 479.997371 
L 943.490126 480.535373 
L 944.482832 480.394215 
L 945.475538 481.010425 
L 947.46095 480.47461 
L 948.453656 481.155868 
L 949.446362 480.721905 
L 950.439068 480.737626 
L 951.431774 480.426607 
L 952.42448 480.818726 
L 954.409891 481.263916 
L 955.402597 480.434865 
L 956.395303 480.806196 
L 957.388009 481.64055 
L 958.380715 480.480271 
L 959.373421 481.212461 
L 960.366127 480.640348 
L 961.358833 481.330393 
L 962.351539 480.514199 
L 963.344245 480.664636 
L 964.336951 480.974318 
L 965.329657 481.918599 
L 966.322363 481.357765 
L 967.315068 480.412921 
L 969.30048 482.10335 
L 970.293186 481.973311 
L 971.285892 481.138529 
L 972.278598 480.586846 
L 973.271304 480.574321 
L 974.26401 481.460379 
L 975.256716 481.402015 
L 976.249422 482.140213 
L 977.242128 481.641355 
L 978.234834 481.640364 
L 979.22754 481.29118 
L 980.220246 481.714653 
L 981.212951 481.299635 
L 986.176481 481.746123 
L 987.169187 481.502113 
L 988.161893 482.223007 
L 989.154599 482.419645 
L 990.147305 481.367672 
L 991.140011 481.867065 
L 992.132717 481.233715 
L 993.125423 482.479161 
L 994.118128 483.104667 
L 995.110834 482.423943 
L 996.10354 481.606748 
L 997.096246 482.207533 
L 998.088952 481.736191 
L 999.081658 482.944113 
L 1000.074364 482.096445 
L 1001.06707 481.875006 
L 1003.052482 482.616013 
L 1004.045188 482.167946 
L 1005.037894 482.434695 
L 1006.0306 482.062676 
L 1007.023305 482.546693 
L 1008.016011 482.573344 
L 1009.008717 481.955804 
L 1010.001423 483.711956 
L 1010.994129 482.424955 
L 1012.979541 483.103266 
L 1013.972247 481.86025 
L 1014.964953 482.082173 
L 1015.957659 482.862264 
L 1016.950365 483.221838 
L 1017.943071 482.828308 
L 1018.935777 483.084295 
L 1019.928482 482.300007 
L 1020.921188 484.090775 
L 1021.913894 483.403484 
L 1022.9066 483.225393 
L 1023.899306 482.68826 
L 1024.892012 482.600767 
L 1025.884718 483.31657 
L 1026.877424 483.30872 
L 1027.87013 483.737795 
L 1028.862836 483.612483 
L 1029.855542 482.938108 
L 1030.848248 483.309622 
L 1031.840954 483.344784 
L 1032.833659 483.996608 
L 1033.826365 482.870227 
L 1034.819071 483.748427 
L 1036.804483 483.447141 
L 1037.797189 482.984565 
L 1038.789895 483.756355 
L 1039.782601 484.279076 
L 1040.775307 483.03438 
L 1041.768013 483.533239 
L 1042.760719 484.44652 
L 1044.746131 483.579702 
L 1045.738837 483.866689 
L 1046.731542 483.923825 
L 1047.724248 484.391803 
L 1048.716954 484.488968 
L 1049.70966 483.665818 
L 1050.702366 484.197715 
L 1051.695072 484.042488 
L 1052.687778 483.575486 
L 1053.680484 484.366245 
L 1054.67319 484.02295 
L 1055.665896 483.903797 
L 1056.658602 484.646872 
L 1057.651308 484.033969 
L 1058.644014 484.256308 
L 1059.636719 484.773568 
L 1060.629425 483.411134 
L 1061.622131 483.977641 
L 1062.614837 484.285519 
L 1063.607543 483.729002 
L 1064.600249 484.635442 
L 1065.592955 484.226054 
L 1066.585661 483.48761 
L 1067.578367 483.762609 
L 1068.571073 484.80412 
L 1069.563779 484.554626 
L 1070.556485 484.852754 
L 1071.549191 483.806667 
L 1072.541896 484.637089 
L 1074.527308 484.941508 
L 1075.520014 484.461609 
L 1076.51272 485.148413 
L 1077.505426 484.931427 
L 1078.498132 484.338169 
L 1079.490838 484.678801 
L 1080.483544 484.167664 
L 1081.47625 484.060136 
L 1082.468956 484.912542 
L 1083.461662 484.437199 
L 1084.454368 485.083508 
L 1085.447073 485.212141 
L 1086.439779 484.49776 
L 1087.432485 484.092385 
L 1088.425191 485.124354 
L 1089.417897 484.669638 
L 1090.410603 485.098115 
L 1091.403309 484.996503 
L 1092.396015 484.346741 
L 1093.388721 484.417111 
L 1094.381427 484.812429 
L 1095.374133 483.580285 
L 1096.366839 484.617657 
L 1097.359545 485.242707 
L 1099.344956 484.062839 
L 1100.337662 485.852775 
L 1101.330368 485.630728 
L 1102.323074 484.965618 
L 1103.31578 485.453523 
L 1104.308486 485.203666 
L 1105.301192 485.088255 
L 1106.293898 485.267459 
L 1107.286604 485.748087 
L 1108.27931 484.407293 
L 1109.272016 484.59929 
L 1110.264722 485.160084 
L 1111.257428 485.243512 
L 1112.250133 484.841225 
L 1113.242839 484.713957 
L 1114.235545 485.253741 
L 1116.220957 484.85889 
L 1117.213663 485.674996 
L 1118.206369 485.743583 
L 1119.199075 485.450576 
L 1120.191781 486.171476 
L 1121.184487 485.512597 
L 1122.177193 485.30236 
L 1123.169899 486.143104 
L 1124.162605 485.790437 
L 1125.15531 486.091944 
L 1126.148016 485.460112 
L 1127.140722 485.559106 
L 1129.126134 484.540678 
L 1130.11884 485.388055 
L 1131.111546 485.605136 
L 1132.104252 485.046052 
L 1133.096958 485.082651 
L 1134.089664 485.563545 
L 1135.08237 486.234396 
L 1136.075076 485.753687 
L 1137.067782 487.406401 
L 1138.060487 486.112294 
L 1139.053193 486.652693 
L 1141.038605 485.71944 
L 1142.031311 485.365587 
L 1143.024017 486.129659 
L 1146.002135 486.030041 
L 1146.994841 486.264148 
L 1147.987547 485.316575 
L 1148.980253 486.21048 
L 1149.972959 485.005683 
L 1150.965664 485.959245 
L 1151.95837 485.981677 
L 1152.951076 485.844231 
L 1153.943782 486.643866 
L 1154.936488 485.290874 
L 1155.929194 486.612137 
L 1157.914606 486.312058 
L 1158.907312 485.829131 
L 1159.900018 486.319507 
L 1160.892724 486.013723 
L 1161.88543 486.159596 
L 1163.870841 485.988208 
L 1164.863547 486.52132 
L 1165.856253 485.49027 
L 1166.848959 485.852569 
L 1167.841665 486.994577 
L 1168.834371 485.585291 
L 1169.827077 485.754825 
L 1170.819783 486.186206 
L 1171.812489 486.897356 
L 1172.805195 486.151529 
L 1173.797901 486.171531 
L 1174.790607 486.843329 
L 1175.783313 485.296139 
L 1178.76143 486.187136 
L 1179.754136 486.942441 
L 1180.746842 487.024651 
L 1181.739548 486.265419 
L 1182.732254 486.677125 
L 1183.72496 486.645336 
L 1184.717666 485.873701 
L 1185.710372 485.812305 
L 1186.703078 486.089594 
L 1187.695784 485.720256 
L 1188.68849 486.64324 
L 1190.673901 486.05768 
L 1191.666607 486.952738 
L 1192.659313 486.789096 
L 1193.652019 486.083431 
L 1194.644725 486.028267 
L 1195.637431 487.127096 
L 1196.630137 486.738129 
L 1197.622843 486.807154 
L 1198.615549 486.537401 
L 1199.608255 486.761348 
L 1200.600961 487.250921 
L 1201.593667 486.901915 
L 1202.586373 486.779465 
L 1203.579078 486.297582 
L 1204.571784 486.144763 
L 1205.56449 486.422895 
L 1206.557196 486.333714 
L 1207.549902 486.639754 
L 1208.542608 486.135291 
L 1209.535314 486.042523 
L 1210.52802 486.371162 
L 1211.520726 486.067326 
L 1212.513432 486.178453 
L 1213.506138 486.014645 
L 1214.498844 485.603232 
L 1215.49155 486.394959 
L 1217.476961 486.590604 
L 1219.462373 486.281683 
L 1220.455079 486.572339 
L 1221.447785 486.298965 
L 1222.440491 485.873544 
L 1223.433197 486.076512 
L 1224.425903 486.853259 
L 1225.418609 485.519716 
L 1226.411315 486.847713 
L 1227.404021 486.70498 
L 1229.389432 485.998523 
L 1230.382138 486.0882 
L 1231.374844 486.93057 
L 1232.36755 486.265714 
L 1233.360256 485.917144 
L 1234.352962 485.940919 
L 1235.345668 485.756916 
L 1236.338374 487.035021 
L 1237.33108 487.475204 
L 1238.323786 485.622118 
L 1239.316492 485.938769 
L 1240.309198 486.651567 
L 1241.301904 485.661601 
L 1242.29461 486.85488 
L 1244.280021 486.527811 
L 1245.272727 485.958947 
L 1245.272727 485.958947 
" clip-path="url(#p60ace76610)" style="fill: none; stroke: #1f77b4; stroke-width: 1.5; stroke-linecap: square"/>
   </g>
   <g id="patch_3">
    <path d="M 180 512.64 
L 180 69.12 
" style="fill: none; stroke: #000000; stroke-width: 0.8; stroke-linejoin: miter; stroke-linecap: square"/>
   </g>
   <g id="patch_4">
    <path d="M 1296 512.64 
L 1296 69.12 
" style="fill: none; stroke: #000000; stroke-width: 0.8; stroke-linejoin: miter; stroke-linecap: square"/>
   </g>
   <g id="patch_5">
    <path d="M 180 512.64 
L 1296 512.64 
" style="fill: none; stroke: #000000; stroke-width: 0.8; stroke-linejoin: miter; stroke-linecap: square"/>
   </g>
   <g id="patch_6">
    <path d="M 180 69.12 
L 1296 69.12 
" style="fill: none; stroke: #000000; stroke-width: 0.8; stroke-linejoin: miter; stroke-linecap: square"/>
   </g>
   <g id="text_15">
    <!-- source22-receiver9 -->
    <g transform="translate(544.9 60.80125) scale(0.4 -0.4)">
     <defs>
      <path id="DejaVuSans-73" d="M 2834 3397 
L 2834 2853 
Q 2591 2978 2328 3040 
Q 2066 3103 1784 3103 
Q 1356 3103 1142 2972 
Q 928 2841 928 2578 
Q 928 2378 1081 2264 
Q 1234 2150 1697 2047 
L 1894 2003 
Q 2506 1872 2764 1633 
Q 3022 1394 3022 966 
Q 3022 478 2636 193 
Q 2250 -91 1575 -91 
Q 1294 -91 989 -36 
Q 684 19 347 128 
L 347 722 
Q 666 556 975 473 
Q 1284 391 1588 391 
Q 1994 391 2212 530 
Q 2431 669 2431 922 
Q 2431 1156 2273 1281 
Q 2116 1406 1581 1522 
L 1381 1569 
Q 847 1681 609 1914 
Q 372 2147 372 2553 
Q 372 3047 722 3315 
Q 1072 3584 1716 3584 
Q 2034 3584 2315 3537 
Q 2597 3491 2834 3397 
z
" transform="scale(0.015625)"/>
      <path id="DejaVuSans-6f" d="M 1959 3097 
Q 1497 3097 1228 2736 
Q 959 2375 959 1747 
Q 959 1119 1226 758 
Q 1494 397 1959 397 
Q 2419 397 2687 759 
Q 2956 1122 2956 1747 
Q 2956 2369 2687 2733 
Q 2419 3097 1959 3097 
z
M 1959 3584 
Q 2709 3584 3137 3096 
Q 3566 2609 3566 1747 
Q 3566 888 3137 398 
Q 2709 -91 1959 -91 
Q 1206 -91 779 398 
Q 353 888 353 1747 
Q 353 2609 779 3096 
Q 1206 3584 1959 3584 
z
" transform="scale(0.015625)"/>
      <path id="DejaVuSans-75" d="M 544 1381 
L 544 3500 
L 1119 3500 
L 1119 1403 
Q 1119 906 1312 657 
Q 1506 409 1894 409 
Q 2359 409 2629 706 
Q 2900 1003 2900 1516 
L 2900 3500 
L 3475 3500 
L 3475 0 
L 2900 0 
L 2900 538 
Q 2691 219 2414 64 
Q 2138 -91 1772 -91 
Q 1169 -91 856 284 
Q 544 659 544 1381 
z
M 1991 3584 
L 1991 3584 
z
" transform="scale(0.015625)"/>
      <path id="DejaVuSans-72" d="M 2631 2963 
Q 2534 3019 2420 3045 
Q 2306 3072 2169 3072 
Q 1681 3072 1420 2755 
Q 1159 2438 1159 1844 
L 1159 0 
L 581 0 
L 581 3500 
L 1159 3500 
L 1159 2956 
Q 1341 3275 1631 3429 
Q 1922 3584 2338 3584 
Q 2397 3584 2469 3576 
Q 2541 3569 2628 3553 
L 2631 2963 
z
" transform="scale(0.015625)"/>
      <path id="DejaVuSans-63" d="M 3122 3366 
L 3122 2828 
Q 2878 2963 2633 3030 
Q 2388 3097 2138 3097 
Q 1578 3097 1268 2742 
Q 959 2388 959 1747 
Q 959 1106 1268 751 
Q 1578 397 2138 397 
Q 2388 397 2633 464 
Q 2878 531 3122 666 
L 3122 134 
Q 2881 22 2623 -34 
Q 2366 -91 2075 -91 
Q 1284 -91 818 406 
Q 353 903 353 1747 
Q 353 2603 823 3093 
Q 1294 3584 2113 3584 
Q 2378 3584 2631 3529 
Q 2884 3475 3122 3366 
z
" transform="scale(0.015625)"/>
      <path id="DejaVuSans-65" d="M 3597 1894 
L 3597 1613 
L 953 1613 
Q 991 1019 1311 708 
Q 1631 397 2203 397 
Q 2534 397 2845 478 
Q 3156 559 3463 722 
L 3463 178 
Q 3153 47 2828 -22 
Q 2503 -91 2169 -91 
Q 1331 -91 842 396 
Q 353 884 353 1716 
Q 353 2575 817 3079 
Q 1281 3584 2069 3584 
Q 2775 3584 3186 3129 
Q 3597 2675 3597 1894 
z
M 3022 2063 
Q 3016 2534 2758 2815 
Q 2500 3097 2075 3097 
Q 1594 3097 1305 2825 
Q 1016 2553 972 2059 
L 3022 2063 
z
" transform="scale(0.015625)"/>
      <path id="DejaVuSans-2d" d="M 313 2009 
L 1997 2009 
L 1997 1497 
L 313 1497 
L 313 2009 
z
" transform="scale(0.015625)"/>
      <path id="DejaVuSans-69" d="M 603 3500 
L 1178 3500 
L 1178 0 
L 603 0 
L 603 3500 
z
M 603 4863 
L 1178 4863 
L 1178 4134 
L 603 4134 
L 603 4863 
z
" transform="scale(0.015625)"/>
      <path id="DejaVuSans-76" d="M 191 3500 
L 800 3500 
L 1894 563 
L 2988 3500 
L 3597 3500 
L 2284 0 
L 1503 0 
L 191 3500 
z
" transform="scale(0.015625)"/>
      <path id="DejaVuSans-39" d="M 703 97 
L 703 672 
Q 941 559 1184 500 
Q 1428 441 1663 441 
Q 2288 441 2617 861 
Q 2947 1281 2994 2138 
Q 2813 1869 2534 1725 
Q 2256 1581 1919 1581 
Q 1219 1581 811 2004 
Q 403 2428 403 3163 
Q 403 3881 828 4315 
Q 1253 4750 1959 4750 
Q 2769 4750 3195 4129 
Q 3622 3509 3622 2328 
Q 3622 1225 3098 567 
Q 2575 -91 1691 -91 
Q 1453 -91 1209 -44 
Q 966 3 703 97 
z
M 1959 2075 
Q 2384 2075 2632 2365 
Q 2881 2656 2881 3163 
Q 2881 3666 2632 3958 
Q 2384 4250 1959 4250 
Q 1534 4250 1286 3958 
Q 1038 3666 1038 3163 
Q 1038 2656 1286 2365 
Q 1534 2075 1959 2075 
z
" transform="scale(0.015625)"/>
     </defs>
     <use xlink:href="#DejaVuSans-73"/>
     <use xlink:href="#DejaVuSans-6f" x="52.099609"/>
     <use xlink:href="#DejaVuSans-75" x="113.28125"/>
     <use xlink:href="#DejaVuSans-72" x="176.660156"/>
     <use xlink:href="#DejaVuSans-63" x="215.523438"/>
     <use xlink:href="#DejaVuSans-65" x="270.503906"/>
     <use xlink:href="#DejaVuSans-32" x="332.027344"/>
     <use xlink:href="#DejaVuSans-32" x="395.650391"/>
     <use xlink:href="#DejaVuSans-2d" x="459.273438"/>
     <use xlink:href="#DejaVuSans-72" x="495.357422"/>
     <use xlink:href="#DejaVuSans-65" x="534.220703"/>
     <use xlink:href="#DejaVuSans-63" x="595.744141"/>
     <use xlink:href="#DejaVuSans-65" x="650.724609"/>
     <use xlink:href="#DejaVuSans-69" x="712.248047"/>
     <use xlink:href="#DejaVuSans-76" x="740.03125"/>
     <use xlink:href="#DejaVuSans-65" x="799.210938"/>
     <use xlink:href="#DejaVuSans-72" x="860.734375"/>
     <use xlink:href="#DejaVuSans-39" x="901.847656"/>
    </g>
   </g>
  </g>
 </g>
 <defs>
  <clipPath id="p60ace76610">
   <rect x="180" y="69.12" width="1116" height="443.52"/>
  </clipPath>
 </defs>
</svg>
