<?xml version="1.0" encoding="utf-8" standalone="no"?>
<!DOCTYPE svg PUBLIC "-//W3C//DTD SVG 1.1//EN"
  "http://www.w3.org/Graphics/SVG/1.1/DTD/svg11.dtd">
<svg xmlns:xlink="http://www.w3.org/1999/xlink" width="1440pt" height="576pt" viewBox="0 0 1440 576" xmlns="http://www.w3.org/2000/svg" version="1.1">
 <metadata>
  <rdf:RDF xmlns:dc="http://purl.org/dc/elements/1.1/" xmlns:cc="http://creativecommons.org/ns#" xmlns:rdf="http://www.w3.org/1999/02/22-rdf-syntax-ns#">
   <cc:Work>
    <dc:type rdf:resource="http://purl.org/dc/dcmitype/StillImage"/>
    <dc:date>2024-05-22T04:50:25.287981</dc:date>
    <dc:format>image/svg+xml</dc:format>
    <dc:creator>
     <cc:Agent>
      <dc:title>Matplotlib v3.8.3, https://matplotlib.org/</dc:title>
     </cc:Agent>
    </dc:creator>
   </cc:Work>
  </rdf:RDF>
 </metadata>
 <defs>
  <style type="text/css">*{stroke-linejoin: round; stroke-linecap: butt}</style>
 </defs>
 <g id="figure_1">
  <g id="patch_1">
   <path d="M 0 576 
L 1440 576 
L 1440 0 
L 0 0 
z
" style="fill: #ffffff"/>
  </g>
  <g id="axes_1">
   <g id="patch_2">
    <path d="M 180 512.64 
L 1296 512.64 
L 1296 69.12 
L 180 69.12 
z
" style="fill: #ffffff"/>
   </g>
   <g id="matplotlib.axis_1">
    <g id="xtick_1">
     <g id="line2d_1">
      <defs>
       <path id="mbb6b68e714" d="M 0 0 
L 0 3.5 
" style="stroke: #000000; stroke-width: 0.8"/>
      </defs>
      <g>
       <use xlink:href="#mbb6b68e714" x="229.734567" y="512.64" style="stroke: #000000; stroke-width: 0.8"/>
      </g>
     </g>
     <g id="text_1">
      <!-- 0 -->
      <g transform="translate(226.553317 527.238438) scale(0.1 -0.1)">
       <defs>
        <path id="DejaVuSans-30" d="M 2034 4250 
Q 1547 4250 1301 3770 
Q 1056 3291 1056 2328 
Q 1056 1369 1301 889 
Q 1547 409 2034 409 
Q 2525 409 2770 889 
Q 3016 1369 3016 2328 
Q 3016 3291 2770 3770 
Q 2525 4250 2034 4250 
z
M 2034 4750 
Q 2819 4750 3233 4129 
Q 3647 3509 3647 2328 
Q 3647 1150 3233 529 
Q 2819 -91 2034 -91 
Q 1250 -91 836 529 
Q 422 1150 422 2328 
Q 422 3509 836 4129 
Q 1250 4750 2034 4750 
z
" transform="scale(0.015625)"/>
       </defs>
       <use xlink:href="#DejaVuSans-30"/>
      </g>
     </g>
    </g>
    <g id="xtick_2">
     <g id="line2d_2">
      <g>
       <use xlink:href="#mbb6b68e714" x="433.04074" y="512.64" style="stroke: #000000; stroke-width: 0.8"/>
      </g>
     </g>
     <g id="text_2">
      <!-- 500 -->
      <g transform="translate(423.49699 527.238438) scale(0.1 -0.1)">
       <defs>
        <path id="DejaVuSans-35" d="M 691 4666 
L 3169 4666 
L 3169 4134 
L 1269 4134 
L 1269 2991 
Q 1406 3038 1543 3061 
Q 1681 3084 1819 3084 
Q 2600 3084 3056 2656 
Q 3513 2228 3513 1497 
Q 3513 744 3044 326 
Q 2575 -91 1722 -91 
Q 1428 -91 1123 -41 
Q 819 9 494 109 
L 494 744 
Q 775 591 1075 516 
Q 1375 441 1709 441 
Q 2250 441 2565 725 
Q 2881 1009 2881 1497 
Q 2881 1984 2565 2268 
Q 2250 2553 1709 2553 
Q 1456 2553 1204 2497 
Q 953 2441 691 2322 
L 691 4666 
z
" transform="scale(0.015625)"/>
       </defs>
       <use xlink:href="#DejaVuSans-35"/>
       <use xlink:href="#DejaVuSans-30" x="63.623047"/>
       <use xlink:href="#DejaVuSans-30" x="127.246094"/>
      </g>
     </g>
    </g>
    <g id="xtick_3">
     <g id="line2d_3">
      <g>
       <use xlink:href="#mbb6b68e714" x="636.346913" y="512.64" style="stroke: #000000; stroke-width: 0.8"/>
      </g>
     </g>
     <g id="text_3">
      <!-- 1000 -->
      <g transform="translate(623.621913 527.238438) scale(0.1 -0.1)">
       <defs>
        <path id="DejaVuSans-31" d="M 794 531 
L 1825 531 
L 1825 4091 
L 703 3866 
L 703 4441 
L 1819 4666 
L 2450 4666 
L 2450 531 
L 3481 531 
L 3481 0 
L 794 0 
L 794 531 
z
" transform="scale(0.015625)"/>
       </defs>
       <use xlink:href="#DejaVuSans-31"/>
       <use xlink:href="#DejaVuSans-30" x="63.623047"/>
       <use xlink:href="#DejaVuSans-30" x="127.246094"/>
       <use xlink:href="#DejaVuSans-30" x="190.869141"/>
      </g>
     </g>
    </g>
    <g id="xtick_4">
     <g id="line2d_4">
      <g>
       <use xlink:href="#mbb6b68e714" x="839.653087" y="512.64" style="stroke: #000000; stroke-width: 0.8"/>
      </g>
     </g>
     <g id="text_4">
      <!-- 1500 -->
      <g transform="translate(826.928087 527.238438) scale(0.1 -0.1)">
       <use xlink:href="#DejaVuSans-31"/>
       <use xlink:href="#DejaVuSans-35" x="63.623047"/>
       <use xlink:href="#DejaVuSans-30" x="127.246094"/>
       <use xlink:href="#DejaVuSans-30" x="190.869141"/>
      </g>
     </g>
    </g>
    <g id="xtick_5">
     <g id="line2d_5">
      <g>
       <use xlink:href="#mbb6b68e714" x="1042.95926" y="512.64" style="stroke: #000000; stroke-width: 0.8"/>
      </g>
     </g>
     <g id="text_5">
      <!-- 2000 -->
      <g transform="translate(1030.23426 527.238438) scale(0.1 -0.1)">
       <defs>
        <path id="DejaVuSans-32" d="M 1228 531 
L 3431 531 
L 3431 0 
L 469 0 
L 469 531 
Q 828 903 1448 1529 
Q 2069 2156 2228 2338 
Q 2531 2678 2651 2914 
Q 2772 3150 2772 3378 
Q 2772 3750 2511 3984 
Q 2250 4219 1831 4219 
Q 1534 4219 1204 4116 
Q 875 4013 500 3803 
L 500 4441 
Q 881 4594 1212 4672 
Q 1544 4750 1819 4750 
Q 2544 4750 2975 4387 
Q 3406 4025 3406 3419 
Q 3406 3131 3298 2873 
Q 3191 2616 2906 2266 
Q 2828 2175 2409 1742 
Q 1991 1309 1228 531 
z
" transform="scale(0.015625)"/>
       </defs>
       <use xlink:href="#DejaVuSans-32"/>
       <use xlink:href="#DejaVuSans-30" x="63.623047"/>
       <use xlink:href="#DejaVuSans-30" x="127.246094"/>
       <use xlink:href="#DejaVuSans-30" x="190.869141"/>
      </g>
     </g>
    </g>
    <g id="xtick_6">
     <g id="line2d_6">
      <g>
       <use xlink:href="#mbb6b68e714" x="1246.265433" y="512.64" style="stroke: #000000; stroke-width: 0.8"/>
      </g>
     </g>
     <g id="text_6">
      <!-- 2500 -->
      <g transform="translate(1233.540433 527.238438) scale(0.1 -0.1)">
       <use xlink:href="#DejaVuSans-32"/>
       <use xlink:href="#DejaVuSans-35" x="63.623047"/>
       <use xlink:href="#DejaVuSans-30" x="127.246094"/>
       <use xlink:href="#DejaVuSans-30" x="190.869141"/>
      </g>
     </g>
    </g>
   </g>
   <g id="matplotlib.axis_2">
    <g id="ytick_1">
     <g id="line2d_7">
      <defs>
       <path id="m9d981bc4aa" d="M 0 0 
L -3.5 0 
" style="stroke: #000000; stroke-width: 0.8"/>
      </defs>
      <g>
       <use xlink:href="#m9d981bc4aa" x="180" y="504.581602" style="stroke: #000000; stroke-width: 0.8"/>
      </g>
     </g>
     <g id="text_7">
      <!-- −4 -->
      <g transform="translate(158.257812 508.380821) scale(0.1 -0.1)">
       <defs>
        <path id="DejaVuSans-2212" d="M 678 2272 
L 4684 2272 
L 4684 1741 
L 678 1741 
L 678 2272 
z
" transform="scale(0.015625)"/>
        <path id="DejaVuSans-34" d="M 2419 4116 
L 825 1625 
L 2419 1625 
L 2419 4116 
z
M 2253 4666 
L 3047 4666 
L 3047 1625 
L 3713 1625 
L 3713 1100 
L 3047 1100 
L 3047 0 
L 2419 0 
L 2419 1100 
L 313 1100 
L 313 1709 
L 2253 4666 
z
" transform="scale(0.015625)"/>
       </defs>
       <use xlink:href="#DejaVuSans-2212"/>
       <use xlink:href="#DejaVuSans-34" x="83.789062"/>
      </g>
     </g>
    </g>
    <g id="ytick_2">
     <g id="line2d_8">
      <g>
       <use xlink:href="#m9d981bc4aa" x="180" y="446.201128" style="stroke: #000000; stroke-width: 0.8"/>
      </g>
     </g>
     <g id="text_8">
      <!-- −3 -->
      <g transform="translate(158.257812 450.000347) scale(0.1 -0.1)">
       <defs>
        <path id="DejaVuSans-33" d="M 2597 2516 
Q 3050 2419 3304 2112 
Q 3559 1806 3559 1356 
Q 3559 666 3084 287 
Q 2609 -91 1734 -91 
Q 1441 -91 1130 -33 
Q 819 25 488 141 
L 488 750 
Q 750 597 1062 519 
Q 1375 441 1716 441 
Q 2309 441 2620 675 
Q 2931 909 2931 1356 
Q 2931 1769 2642 2001 
Q 2353 2234 1838 2234 
L 1294 2234 
L 1294 2753 
L 1863 2753 
Q 2328 2753 2575 2939 
Q 2822 3125 2822 3475 
Q 2822 3834 2567 4026 
Q 2313 4219 1838 4219 
Q 1578 4219 1281 4162 
Q 984 4106 628 3988 
L 628 4550 
Q 988 4650 1302 4700 
Q 1616 4750 1894 4750 
Q 2613 4750 3031 4423 
Q 3450 4097 3450 3541 
Q 3450 3153 3228 2886 
Q 3006 2619 2597 2516 
z
" transform="scale(0.015625)"/>
       </defs>
       <use xlink:href="#DejaVuSans-2212"/>
       <use xlink:href="#DejaVuSans-33" x="83.789062"/>
      </g>
     </g>
    </g>
    <g id="ytick_3">
     <g id="line2d_9">
      <g>
       <use xlink:href="#m9d981bc4aa" x="180" y="387.820654" style="stroke: #000000; stroke-width: 0.8"/>
      </g>
     </g>
     <g id="text_9">
      <!-- −2 -->
      <g transform="translate(158.257812 391.619873) scale(0.1 -0.1)">
       <use xlink:href="#DejaVuSans-2212"/>
       <use xlink:href="#DejaVuSans-32" x="83.789062"/>
      </g>
     </g>
    </g>
    <g id="ytick_4">
     <g id="line2d_10">
      <g>
       <use xlink:href="#m9d981bc4aa" x="180" y="329.44018" style="stroke: #000000; stroke-width: 0.8"/>
      </g>
     </g>
     <g id="text_10">
      <!-- −1 -->
      <g transform="translate(158.257812 333.239399) scale(0.1 -0.1)">
       <use xlink:href="#DejaVuSans-2212"/>
       <use xlink:href="#DejaVuSans-31" x="83.789062"/>
      </g>
     </g>
    </g>
    <g id="ytick_5">
     <g id="line2d_11">
      <g>
       <use xlink:href="#m9d981bc4aa" x="180" y="271.059706" style="stroke: #000000; stroke-width: 0.8"/>
      </g>
     </g>
     <g id="text_11">
      <!-- 0 -->
      <g transform="translate(166.6375 274.858925) scale(0.1 -0.1)">
       <use xlink:href="#DejaVuSans-30"/>
      </g>
     </g>
    </g>
    <g id="ytick_6">
     <g id="line2d_12">
      <g>
       <use xlink:href="#m9d981bc4aa" x="180" y="212.679232" style="stroke: #000000; stroke-width: 0.8"/>
      </g>
     </g>
     <g id="text_12">
      <!-- 1 -->
      <g transform="translate(166.6375 216.478451) scale(0.1 -0.1)">
       <use xlink:href="#DejaVuSans-31"/>
      </g>
     </g>
    </g>
    <g id="ytick_7">
     <g id="line2d_13">
      <g>
       <use xlink:href="#m9d981bc4aa" x="180" y="154.298758" style="stroke: #000000; stroke-width: 0.8"/>
      </g>
     </g>
     <g id="text_13">
      <!-- 2 -->
      <g transform="translate(166.6375 158.097977) scale(0.1 -0.1)">
       <use xlink:href="#DejaVuSans-32"/>
      </g>
     </g>
    </g>
    <g id="ytick_8">
     <g id="line2d_14">
      <g>
       <use xlink:href="#m9d981bc4aa" x="180" y="95.918284" style="stroke: #000000; stroke-width: 0.8"/>
      </g>
     </g>
     <g id="text_14">
      <!-- 3 -->
      <g transform="translate(166.6375 99.717503) scale(0.1 -0.1)">
       <use xlink:href="#DejaVuSans-33"/>
      </g>
     </g>
    </g>
   </g>
   <g id="line2d_15">
    <path d="M 230.727273 330.18619 
L 231.719979 330.751744 
L 233.70539 330.549877 
L 234.698096 330.572307 
L 235.690802 330.3528 
L 237.676214 330.62639 
L 238.66892 330.29449 
L 239.661626 330.725321 
L 241.647038 331.220242 
L 242.639744 332.014674 
L 243.63245 333.527085 
L 244.625156 333.431139 
L 245.617862 333.934369 
L 246.610568 356.240532 
L 247.603273 367.36272 
L 248.595979 288.852269 
L 249.588685 277.130796 
L 250.581391 287.429119 
L 251.574097 220.072272 
L 252.566803 186.987101 
L 253.559509 185.075195 
L 254.552215 189.017549 
L 255.544921 171.650852 
L 256.537627 174.626368 
L 257.530333 233.83323 
L 258.523039 164.527127 
L 259.515745 148.750531 
L 260.50845 204.883704 
L 262.493862 128.107544 
L 263.486568 138.523365 
L 264.479274 178.170456 
L 265.47198 154.918077 
L 266.464686 158.683914 
L 267.457392 195.294696 
L 268.450098 190.059677 
L 269.442804 214.598817 
L 270.43551 191.781748 
L 271.428216 157.883359 
L 272.420922 161.599004 
L 273.413627 190.38023 
L 274.406333 202.796166 
L 275.399039 162.198247 
L 276.391745 135.525051 
L 277.384451 118.746386 
L 278.377157 104.53549 
L 279.369863 93.908543 
L 280.362569 89.28 
L 281.355275 91.174522 
L 282.347981 98.483842 
L 284.333393 118.621097 
L 285.326099 127.965398 
L 286.318804 133.922131 
L 288.304216 150.282054 
L 289.296922 153.197356 
L 290.289628 167.80786 
L 291.282334 186.64708 
L 292.27504 176.729792 
L 293.267746 187.786252 
L 294.260452 215.628394 
L 295.253158 213.064843 
L 296.245864 233.194133 
L 297.23857 211.694409 
L 298.231276 193.422966 
L 299.223981 180.149522 
L 300.216687 173.375798 
L 301.209393 197.192473 
L 302.202099 277.639101 
L 303.194805 224.555249 
L 304.187511 239.096051 
L 305.180217 271.058924 
L 306.172923 249.372416 
L 307.165629 282.791287 
L 308.158335 337.80641 
L 309.151041 316.012632 
L 310.143747 305.368228 
L 311.136453 308.149045 
L 312.129159 338.559218 
L 313.121864 311.843409 
L 314.11457 314.799955 
L 315.107276 322.294059 
L 316.099982 310.53305 
L 317.092688 324.158978 
L 318.085394 335.894244 
L 319.0781 324.639758 
L 320.070806 324.534251 
L 321.063512 323.871301 
L 322.056218 325.898532 
L 323.048924 335.660628 
L 324.04163 334.8762 
L 325.034336 342.498375 
L 326.027041 333.021016 
L 327.019747 349.184933 
L 328.012453 351.762831 
L 329.005159 345.476795 
L 329.997865 341.598633 
L 330.990571 336.566648 
L 331.983277 339.905913 
L 332.975983 353.907219 
L 333.968689 356.540362 
L 334.961395 347.330476 
L 335.954101 358.541719 
L 336.946807 350.8713 
L 337.939513 336.102069 
L 338.932218 360.631846 
L 339.924924 346.668187 
L 340.91763 347.120057 
L 341.910336 356.965611 
L 342.903042 351.496937 
L 343.895748 367.957999 
L 344.888454 367.351775 
L 345.88116 348.656934 
L 346.873866 349.12195 
L 347.866572 347.294917 
L 348.859278 367.619763 
L 349.851984 356.839547 
L 350.84469 357.03624 
L 351.837395 363.584279 
L 352.830101 361.740189 
L 353.822807 376.739174 
L 354.815513 363.79616 
L 355.808219 367.788805 
L 357.793631 359.943005 
L 358.786337 408.384691 
L 359.779043 369.547263 
L 360.771749 357.172679 
L 361.764455 385.9732 
L 362.757161 352.227562 
L 363.749867 362.269855 
L 364.742572 374.247904 
L 365.735278 363.622502 
L 366.727984 376.939189 
L 367.72069 365.325473 
L 368.713396 387.449758 
L 369.706102 366.915059 
L 370.698808 360.432575 
L 371.691514 378.256257 
L 372.68422 400.704902 
L 373.676926 389.286285 
L 374.669632 386.487507 
L 375.662338 358.371165 
L 376.655044 379.867011 
L 377.64775 392.838847 
L 378.640455 380.005463 
L 379.633161 374.822337 
L 380.625867 398.744805 
L 381.618573 371.620099 
L 382.611279 384.447878 
L 383.603985 399.107255 
L 384.596691 383.618095 
L 385.589397 384.332691 
L 386.582103 381.306191 
L 387.574809 411.323653 
L 388.567515 384.18541 
L 389.560221 388.947749 
L 390.552927 379.273408 
L 391.545632 379.819283 
L 392.538338 393.438935 
L 393.531044 378.449483 
L 394.52375 405.128021 
L 395.516456 388.530896 
L 396.509162 381.591451 
L 397.501868 405.459043 
L 398.494574 387.89724 
L 399.48728 384.969568 
L 400.479986 412.46494 
L 401.472692 390.667886 
L 402.465398 413.509846 
L 403.458104 400.914888 
L 404.450809 405.765832 
L 405.443515 392.848195 
L 406.436221 388.006229 
L 407.428927 415.392275 
L 408.421633 417.326629 
L 409.414339 400.90115 
L 410.407045 396.930549 
L 411.399751 398.974699 
L 412.392457 395.122481 
L 413.385163 399.087396 
L 414.377869 399.400248 
L 415.370575 397.991626 
L 416.363281 390.143908 
L 417.355986 398.795036 
L 418.348692 390.842777 
L 419.341398 409.169341 
L 420.334104 400.275157 
L 421.32681 388.602732 
L 422.319516 411.220689 
L 423.312222 412.587587 
L 424.304928 406.094401 
L 425.297634 397.082401 
L 426.29034 396.536355 
L 427.283046 408.177935 
L 428.275752 413.036302 
L 429.268458 404.812688 
L 430.261163 404.732002 
L 431.253869 392.129554 
L 432.246575 426.16398 
L 433.239281 438.835701 
L 434.231987 400.021674 
L 435.224693 414.346689 
L 436.217399 396.10892 
L 437.210105 400.188827 
L 438.202811 397.067681 
L 439.195517 390.014511 
L 440.188223 411.312017 
L 441.180929 405.385315 
L 442.173635 387.205739 
L 443.166341 403.142057 
L 444.159046 414.342379 
L 445.151752 435.155543 
L 446.144458 411.923175 
L 447.137164 412.330598 
L 448.12987 380.734546 
L 449.122576 397.775625 
L 450.115282 416.780732 
L 451.107988 413.457193 
L 452.100694 394.513818 
L 453.0934 433.377972 
L 454.086106 402.867584 
L 455.078812 392.986698 
L 456.071518 411.538046 
L 457.064223 399.573833 
L 458.056929 416.792326 
L 459.049635 407.935353 
L 460.042341 403.760542 
L 461.035047 426.730264 
L 462.027753 397.760167 
L 463.020459 395.648691 
L 464.013165 408.024006 
L 465.005871 409.903669 
L 465.998577 415.593299 
L 466.991283 414.663276 
L 467.983989 418.924526 
L 468.976695 407.21575 
L 469.9694 418.881391 
L 470.962106 396.307636 
L 471.954812 463.406944 
L 472.947518 450.045999 
L 473.940224 402.234486 
L 474.93293 411.935207 
L 475.925636 413.654063 
L 476.918342 399.614904 
L 477.911048 408.505797 
L 478.903754 406.872792 
L 479.89646 462.49114 
L 480.889166 420.021795 
L 481.881872 406.076787 
L 482.874577 417.296589 
L 483.867283 388.826171 
L 484.859989 404.579299 
L 485.852695 412.977384 
L 486.845401 416.607465 
L 487.838107 404.54735 
L 488.830813 409.434889 
L 489.823519 385.911404 
L 490.816225 440.340184 
L 491.808931 415.628869 
L 492.801637 418.789899 
L 494.787049 408.0054 
L 495.779754 404.16546 
L 496.77246 422.013234 
L 497.765166 396.921934 
L 498.757872 447.272652 
L 499.750578 442.845195 
L 500.743284 429.907563 
L 501.73599 451.890723 
L 502.728696 411.106629 
L 503.721402 402.64014 
L 505.706814 435.404254 
L 506.69952 419.559267 
L 507.692226 401.409619 
L 508.684932 428.320408 
L 509.677637 428.698332 
L 510.670343 447.871082 
L 511.663049 473.783055 
L 512.655755 437.989643 
L 513.648461 451.47734 
L 514.641167 426.981715 
L 515.633873 407.642302 
L 516.626579 425.672698 
L 517.619285 446.158445 
L 518.611991 389.692791 
L 519.604697 417.369798 
L 520.597403 439.960758 
L 521.590109 413.485725 
L 523.57552 391.631348 
L 524.568226 431.821958 
L 525.560932 412.793376 
L 526.553638 456.093172 
L 527.546344 399.721924 
L 528.53905 397.762272 
L 529.531756 412.805802 
L 530.524462 420.222762 
L 531.517168 418.820293 
L 532.509874 444.466252 
L 533.50258 413.983971 
L 534.495286 448.512917 
L 535.487991 449.722638 
L 536.480697 419.817243 
L 537.473403 471.245311 
L 538.466109 464.194618 
L 539.458815 415.023282 
L 540.451521 415.360635 
L 541.444227 421.119477 
L 542.436933 420.735213 
L 543.429639 443.280948 
L 544.422345 418.503838 
L 545.415051 436.510687 
L 546.407757 463.320791 
L 547.400463 423.417304 
L 548.393168 476.769858 
L 549.385874 444.820404 
L 550.37858 419.122199 
L 551.371286 423.989821 
L 552.363992 475.54746 
L 553.356698 412.207758 
L 554.349404 403.661411 
L 555.34211 450.312377 
L 556.334816 423.34422 
L 557.327522 446.252716 
L 558.320228 419.866595 
L 559.312934 430.087089 
L 560.30564 436.886306 
L 561.298345 462.07016 
L 562.291051 437.514258 
L 563.283757 480.040657 
L 564.276463 456.46303 
L 565.269169 447.016213 
L 566.261875 403.009914 
L 567.254581 409.539188 
L 568.247287 430.136028 
L 569.239993 428.123037 
L 570.232699 452.049413 
L 571.225405 411.213318 
L 572.218111 424.585523 
L 573.210817 425.306905 
L 574.203523 414.211934 
L 575.196228 438.094928 
L 576.188934 429.227977 
L 577.18164 439.815287 
L 578.174346 428.063243 
L 579.167052 448.634561 
L 580.159758 476.943136 
L 581.152464 441.559878 
L 582.14517 489.712221 
L 583.137876 467.320967 
L 584.130582 422.352642 
L 585.123288 412.57201 
L 586.115994 466.886563 
L 587.1087 478.004172 
L 588.101405 432.696957 
L 589.094111 446.940333 
L 590.086817 445.077024 
L 591.079523 400.379624 
L 592.072229 436.558267 
L 593.064935 431.738513 
L 594.057641 461.103351 
L 595.050347 423.253836 
L 596.043053 444.363268 
L 597.035759 457.600562 
L 598.028465 443.084881 
L 599.021171 443.884427 
L 600.013877 477.304861 
L 601.006582 425.902777 
L 601.999288 444.725477 
L 602.991994 476.633133 
L 603.9847 426.846643 
L 604.977406 428.283258 
L 605.970112 492.48 
L 606.962818 436.294261 
L 607.955524 446.823265 
L 608.94823 428.348565 
L 609.940936 443.731054 
L 610.933642 466.49112 
L 611.926348 435.25923 
L 612.919054 440.673018 
L 613.911759 454.095717 
L 614.904465 450.312066 
L 615.897171 441.069348 
L 616.889877 467.770625 
L 617.882583 456.965927 
L 618.875289 414.834081 
L 619.867995 438.241527 
L 620.860701 444.350312 
L 621.853407 469.974487 
L 622.846113 435.229514 
L 623.838819 444.745643 
L 624.831525 432.959802 
L 625.824231 435.511264 
L 626.816936 481.506095 
L 627.809642 442.379076 
L 628.802348 428.038529 
L 629.795054 455.733414 
L 630.78776 446.523544 
L 631.780466 444.079569 
L 632.773172 452.453683 
L 633.765878 438.491979 
L 634.758584 459.80901 
L 635.75129 471.171484 
L 636.743996 446.96029 
L 637.736702 444.588755 
L 638.729408 440.695314 
L 639.722114 439.94225 
L 640.714819 450.443455 
L 641.707525 442.616908 
L 642.700231 447.249202 
L 643.692937 444.467668 
L 644.685643 443.807732 
L 645.678349 455.297615 
L 646.671055 460.075218 
L 647.663761 455.7091 
L 648.656467 441.602436 
L 649.649173 455.409336 
L 650.641879 447.51298 
L 651.634585 448.808419 
L 652.627291 446.793797 
L 653.619996 445.91969 
L 654.612702 447.334676 
L 655.605408 451.599228 
L 656.598114 451.760544 
L 657.59082 463.333676 
L 658.583526 454.643698 
L 659.576232 444.168018 
L 660.568938 448.825386 
L 661.561644 444.845762 
L 662.55435 440.341332 
L 663.547056 451.147648 
L 664.539762 444.176878 
L 665.532468 447.783649 
L 666.525173 446.684586 
L 667.517879 449.713824 
L 668.510585 451.041555 
L 669.503291 456.586544 
L 670.495997 471.540767 
L 672.481409 445.623069 
L 673.474115 450.785349 
L 674.466821 451.981242 
L 675.459527 448.690035 
L 676.452233 456.072053 
L 677.444939 452.757943 
L 678.437645 446.734809 
L 679.43035 449.392085 
L 680.423056 461.066411 
L 681.415762 455.395974 
L 682.408468 451.914218 
L 683.401174 453.76886 
L 684.39388 454.860254 
L 685.386586 452.703979 
L 686.379292 454.658215 
L 687.371998 455.063009 
L 688.364704 448.094213 
L 689.35741 452.61544 
L 690.350116 458.849897 
L 691.342822 455.72517 
L 692.335527 455.913275 
L 693.328233 451.90872 
L 694.320939 450.586274 
L 695.313645 452.505444 
L 696.306351 454.875878 
L 697.299057 457.632364 
L 698.291763 450.082007 
L 699.284469 458.237872 
L 700.277175 452.599806 
L 701.269881 455.03345 
L 702.262587 455.182721 
L 703.255293 455.131465 
L 704.247999 455.669652 
L 705.240705 457.068482 
L 706.23341 454.637314 
L 707.226116 456.025776 
L 708.218822 451.021318 
L 709.211528 456.865227 
L 710.204234 452.090933 
L 711.19694 455.629835 
L 712.189646 452.852373 
L 713.182352 454.827053 
L 714.175058 455.218889 
L 715.167764 458.74414 
L 716.16047 457.00697 
L 717.153176 454.284186 
L 718.145882 457.028929 
L 719.138587 455.761078 
L 720.131293 455.699084 
L 721.123999 454.872707 
L 722.116705 454.825035 
L 723.109411 458.405147 
L 724.102117 458.674214 
L 725.094823 457.587742 
L 726.087529 459.180093 
L 727.080235 458.565891 
L 728.072941 456.173693 
L 729.065647 458.450708 
L 730.058353 460.326094 
L 731.051059 457.14872 
L 732.043764 457.377071 
L 733.03647 453.95416 
L 734.029176 456.690375 
L 735.021882 458.940553 
L 736.014588 462.562199 
L 737.007294 460.287577 
L 738 459.696322 
L 738.992706 458.347282 
L 739.985412 459.370419 
L 740.978118 460.930579 
L 741.970824 459.138759 
L 742.96353 457.914761 
L 743.956236 457.107033 
L 744.948941 459.111863 
L 745.941647 460.086621 
L 746.934353 458.306176 
L 747.927059 456.034021 
L 750.905177 457.999432 
L 751.897883 459.803671 
L 752.890589 459.195323 
L 753.883295 459.435859 
L 754.876001 460.190254 
L 755.868707 459.608569 
L 756.861413 462.131818 
L 757.854118 459.27576 
L 758.846824 461.63191 
L 759.83953 458.874054 
L 760.832236 459.280086 
L 762.817648 460.970672 
L 763.810354 458.02368 
L 764.80306 460.7422 
L 765.795766 460.068289 
L 766.788472 460.800447 
L 767.781178 459.028503 
L 769.76659 465.457179 
L 770.759295 461.538716 
L 771.752001 458.637684 
L 772.744707 463.725169 
L 773.737413 462.484186 
L 774.730119 460.189333 
L 775.722825 462.804578 
L 776.715531 460.24276 
L 777.708237 461.097713 
L 778.700943 460.976256 
L 779.693649 463.10285 
L 780.686355 459.096824 
L 782.671767 462.291759 
L 783.664473 461.176071 
L 784.657178 464.019119 
L 785.649884 460.12719 
L 786.64259 462.449162 
L 787.635296 463.423726 
L 788.628002 463.311073 
L 789.620708 461.534113 
L 790.613414 465.120539 
L 791.60612 462.027482 
L 792.598826 464.39571 
L 793.591532 461.538125 
L 794.584238 460.929275 
L 795.576944 463.488223 
L 796.56965 462.742698 
L 797.562355 462.334228 
L 798.555061 463.307264 
L 799.547767 462.392885 
L 800.540473 463.360176 
L 801.533179 463.047528 
L 802.525885 464.203948 
L 803.518591 464.537169 
L 804.511297 464.37072 
L 805.504003 464.862614 
L 806.496709 463.087094 
L 807.489415 464.126648 
L 808.482121 464.005654 
L 809.474827 464.352657 
L 810.467532 461.615544 
L 811.460238 463.647622 
L 812.452944 464.925966 
L 813.44565 464.052526 
L 814.438356 465.290987 
L 815.431062 464.974384 
L 816.423768 467.235345 
L 817.416474 466.496116 
L 818.40918 466.894784 
L 819.401886 463.225575 
L 820.394592 466.57794 
L 821.387298 464.698669 
L 822.380004 464.8708 
L 823.372709 467.160892 
L 824.365415 467.347374 
L 825.358121 467.098921 
L 826.350827 466.082986 
L 827.343533 464.374592 
L 828.336239 466.618128 
L 829.328945 464.66938 
L 830.321651 465.471816 
L 831.314357 467.23031 
L 832.307063 464.949023 
L 833.299769 465.381756 
L 835.285181 463.873824 
L 836.277886 464.648182 
L 837.270592 464.11386 
L 838.263298 466.871666 
L 839.256004 465.768223 
L 840.24871 465.417735 
L 841.241416 465.86508 
L 842.234122 469.629833 
L 843.226828 468.228564 
L 844.219534 464.562578 
L 845.21224 467.262319 
L 846.204946 469.277421 
L 848.190358 464.530167 
L 849.183064 465.971046 
L 850.175769 467.788967 
L 851.168475 467.07064 
L 852.161181 467.397092 
L 853.153887 467.469114 
L 854.146593 466.001538 
L 855.139299 467.548977 
L 856.132005 466.958481 
L 857.124711 469.292778 
L 858.117417 470.352214 
L 859.110123 464.294496 
L 860.102829 466.793074 
L 861.095535 468.20122 
L 862.088241 468.615761 
L 863.080946 466.228618 
L 864.073652 466.361639 
L 865.066358 468.447511 
L 866.059064 467.508145 
L 867.05177 468.062079 
L 868.044476 467.816231 
L 869.037182 471.609986 
L 870.029888 470.255736 
L 871.022594 467.769085 
L 872.0153 469.511723 
L 873.008006 467.29631 
L 874.000712 465.691939 
L 874.993418 466.953798 
L 875.986123 471.479029 
L 876.978829 470.564258 
L 877.971535 470.423059 
L 878.964241 468.40119 
L 879.956947 468.654324 
L 880.949653 467.890241 
L 881.942359 467.679019 
L 882.935065 471.710762 
L 883.927771 468.594772 
L 884.920477 468.768478 
L 885.913183 466.327088 
L 886.905889 466.709319 
L 887.898595 471.735072 
L 888.8913 470.323078 
L 889.884006 470.591368 
L 890.876712 470.223224 
L 892.862124 471.913098 
L 893.85483 468.914908 
L 894.847536 470.481743 
L 895.840242 470.322501 
L 896.832948 470.756903 
L 897.825654 473.150597 
L 898.81836 468.70823 
L 899.811066 472.081313 
L 900.803772 468.5392 
L 901.796477 469.584267 
L 902.789183 469.167106 
L 903.781889 469.329457 
L 904.774595 469.713561 
L 905.767301 470.553947 
L 906.760007 471.792842 
L 907.752713 469.372083 
L 908.745419 473.065394 
L 909.738125 470.672138 
L 910.730831 469.659612 
L 911.723537 470.854005 
L 912.716243 473.084461 
L 913.708949 468.814401 
L 914.701655 469.313403 
L 915.69436 471.281101 
L 916.687066 471.605047 
L 917.679772 471.663378 
L 918.672478 470.47266 
L 919.665184 470.902169 
L 920.65789 471.951552 
L 921.650596 469.958386 
L 922.643302 469.942843 
L 923.636008 471.457306 
L 924.628714 474.138917 
L 925.62142 472.119579 
L 926.614126 472.228979 
L 927.606832 469.28885 
L 928.599537 472.595038 
L 929.592243 471.963988 
L 930.584949 470.143033 
L 931.577655 470.800702 
L 933.563067 472.530424 
L 934.555773 472.081806 
L 935.548479 469.834217 
L 936.541185 470.502295 
L 937.533891 474.481438 
L 938.526597 470.129721 
L 939.519303 470.896539 
L 940.512009 469.824963 
L 941.504714 472.264212 
L 943.490126 471.677581 
L 944.482832 472.026377 
L 945.475538 473.96443 
L 946.468244 472.8445 
L 947.46095 471.894773 
L 948.453656 470.057666 
L 949.446362 471.769332 
L 950.439068 474.126169 
L 951.431774 473.867252 
L 952.42448 472.695386 
L 953.417186 472.41562 
L 954.409891 472.989996 
L 955.402597 472.035921 
L 956.395303 472.104716 
L 957.388009 472.854762 
L 958.380715 474.62383 
L 959.373421 474.135096 
L 960.366127 475.057658 
L 961.358833 472.273664 
L 962.351539 470.882245 
L 963.344245 472.347314 
L 964.336951 474.681868 
L 965.329657 470.77126 
L 967.315068 475.210516 
L 968.307774 472.721799 
L 969.30048 473.285851 
L 970.293186 472.462421 
L 971.285892 473.335367 
L 972.278598 471.130233 
L 973.271304 474.250472 
L 974.26401 470.949715 
L 975.256716 470.837282 
L 976.249422 472.663953 
L 977.242128 475.105464 
L 978.234834 473.010489 
L 979.22754 471.509351 
L 980.220246 475.307947 
L 981.212951 475.869145 
L 982.205657 469.771893 
L 983.198363 471.666885 
L 984.191069 471.942728 
L 985.183775 476.278874 
L 986.176481 477.364462 
L 987.169187 472.871204 
L 989.154599 476.030238 
L 990.147305 474.140993 
L 991.140011 474.010637 
L 992.132717 474.349023 
L 993.125423 476.919535 
L 994.118128 473.812171 
L 995.110834 474.88401 
L 996.10354 475.324061 
L 997.096246 473.712858 
L 998.088952 474.552455 
L 999.081658 472.986128 
L 1000.074364 474.002265 
L 1001.06707 473.830985 
L 1002.059776 476.126053 
L 1003.052482 472.382168 
L 1004.045188 473.879578 
L 1005.037894 473.3604 
L 1006.0306 476.136866 
L 1007.023305 475.468283 
L 1008.016011 472.033667 
L 1009.008717 472.045482 
L 1010.001423 474.224148 
L 1010.994129 470.100479 
L 1011.986835 471.624822 
L 1012.979541 472.358091 
L 1014.964953 477.091343 
L 1015.957659 477.184411 
L 1016.950365 474.257564 
L 1017.943071 476.686993 
L 1018.935777 476.465517 
L 1019.928482 474.219357 
L 1020.921188 473.675551 
L 1021.913894 471.138015 
L 1022.9066 473.182336 
L 1023.899306 474.453633 
L 1024.892012 474.727774 
L 1025.884718 473.741559 
L 1026.877424 474.951167 
L 1027.87013 475.205821 
L 1028.862836 474.470076 
L 1029.855542 475.026641 
L 1030.848248 476.663739 
L 1031.840954 473.275537 
L 1032.833659 476.798989 
L 1033.826365 475.519978 
L 1034.819071 476.474531 
L 1035.811777 477.237365 
L 1036.804483 474.083076 
L 1037.797189 475.877499 
L 1038.789895 474.861612 
L 1039.782601 474.377807 
L 1040.775307 480.952807 
L 1041.768013 474.641702 
L 1043.753425 475.580869 
L 1044.746131 474.656687 
L 1045.738837 475.9357 
L 1046.731542 474.921316 
L 1047.724248 476.24767 
L 1048.716954 475.825014 
L 1049.70966 474.061633 
L 1050.702366 477.828289 
L 1051.695072 477.989527 
L 1052.687778 476.993904 
L 1053.680484 475.38374 
L 1054.67319 476.19957 
L 1055.665896 476.642731 
L 1056.658602 479.375532 
L 1057.651308 475.373333 
L 1058.644014 474.608557 
L 1059.636719 474.791941 
L 1060.629425 477.352669 
L 1061.622131 474.482234 
L 1062.614837 475.141428 
L 1063.607543 478.188386 
L 1064.600249 474.590767 
L 1065.592955 478.573856 
L 1066.585661 477.066573 
L 1067.578367 477.673283 
L 1068.571073 479.856311 
L 1069.563779 476.523831 
L 1071.549191 477.414407 
L 1072.541896 479.854668 
L 1073.534602 474.272661 
L 1074.527308 477.566497 
L 1075.520014 476.432933 
L 1076.51272 477.281643 
L 1077.505426 476.002614 
L 1078.498132 475.109573 
L 1079.490838 479.168679 
L 1080.483544 474.274655 
L 1081.47625 479.134565 
L 1082.468956 477.023754 
L 1083.461662 476.55504 
L 1084.454368 477.166689 
L 1085.447073 479.827622 
L 1086.439779 477.784598 
L 1087.432485 478.372796 
L 1088.425191 477.736626 
L 1089.417897 478.847096 
L 1090.410603 477.717545 
L 1091.403309 473.869226 
L 1092.396015 477.746884 
L 1093.388721 476.559197 
L 1094.381427 478.616045 
L 1095.374133 477.998029 
L 1096.366839 477.001354 
L 1097.359545 475.02633 
L 1098.35225 478.08075 
L 1099.344956 477.076804 
L 1100.337662 478.169683 
L 1101.330368 478.71917 
L 1102.323074 476.436937 
L 1103.31578 479.532681 
L 1104.308486 479.313664 
L 1105.301192 477.48442 
L 1106.293898 476.904636 
L 1107.286604 479.086013 
L 1108.27931 479.078357 
L 1109.272016 477.189704 
L 1110.264722 476.472194 
L 1111.257428 476.595204 
L 1112.250133 479.88912 
L 1113.242839 476.984833 
L 1114.235545 477.621918 
L 1115.228251 479.18743 
L 1116.220957 480.328146 
L 1117.213663 480.39474 
L 1118.206369 476.846804 
L 1119.199075 482.821683 
L 1120.191781 477.181339 
L 1121.184487 476.976339 
L 1123.169899 475.546497 
L 1124.162605 480.465334 
L 1125.15531 478.880272 
L 1126.148016 478.237073 
L 1127.140722 479.952921 
L 1128.133428 477.278545 
L 1129.126134 475.158582 
L 1130.11884 476.52455 
L 1131.111546 476.889525 
L 1132.104252 476.313815 
L 1133.096958 477.002531 
L 1134.089664 477.5008 
L 1135.08237 476.891626 
L 1136.075076 477.871047 
L 1137.067782 477.696446 
L 1138.060487 476.863795 
L 1139.053193 476.576856 
L 1140.045899 478.983356 
L 1141.038605 478.94177 
L 1142.031311 476.584086 
L 1143.024017 478.389903 
L 1144.016723 476.178212 
L 1145.009429 479.820328 
L 1146.002135 477.426708 
L 1146.994841 478.929991 
L 1147.987547 476.214063 
L 1148.980253 478.4896 
L 1149.972959 480.438894 
L 1150.965664 478.778695 
L 1151.95837 480.38588 
L 1153.943782 477.541071 
L 1154.936488 477.702664 
L 1155.929194 477.986422 
L 1156.9219 478.121601 
L 1157.914606 479.718203 
L 1158.907312 476.562191 
L 1159.900018 477.915966 
L 1160.892724 481.181589 
L 1161.88543 480.968781 
L 1162.878136 476.566335 
L 1163.870841 480.412265 
L 1164.863547 479.00431 
L 1165.856253 478.789594 
L 1166.848959 477.105715 
L 1167.841665 477.066131 
L 1168.834371 480.259142 
L 1169.827077 478.321753 
L 1170.819783 478.255522 
L 1171.812489 478.969418 
L 1172.805195 479.309285 
L 1173.797901 477.750404 
L 1174.790607 479.46059 
L 1175.783313 478.499186 
L 1176.776019 477.152114 
L 1177.768724 480.610733 
L 1178.76143 479.13649 
L 1179.754136 475.513776 
L 1180.746842 480.277735 
L 1181.739548 480.423767 
L 1182.732254 479.183944 
L 1183.72496 479.369222 
L 1184.717666 479.108125 
L 1185.710372 478.43205 
L 1186.703078 478.847069 
L 1187.695784 476.677608 
L 1188.68849 477.11428 
L 1189.681196 480.855743 
L 1190.673901 479.401143 
L 1193.652019 476.075093 
L 1194.644725 480.052606 
L 1195.637431 479.998131 
L 1196.630137 478.548644 
L 1197.622843 480.515203 
L 1199.608255 479.725699 
L 1200.600961 481.3036 
L 1201.593667 480.36028 
L 1202.586373 478.875974 
L 1203.579078 477.99038 
L 1204.571784 480.445869 
L 1205.56449 477.817396 
L 1206.557196 478.664576 
L 1207.549902 478.977229 
L 1208.542608 477.94316 
L 1209.535314 481.108405 
L 1210.52802 479.25357 
L 1211.520726 477.656921 
L 1212.513432 477.044741 
L 1213.506138 478.535898 
L 1214.498844 478.095068 
L 1215.49155 479.428842 
L 1216.484255 478.806413 
L 1217.476961 476.923303 
L 1218.469667 478.442788 
L 1219.462373 477.930176 
L 1220.455079 481.028276 
L 1221.447785 478.455347 
L 1222.440491 478.04116 
L 1223.433197 479.757409 
L 1224.425903 477.980155 
L 1225.418609 477.329046 
L 1226.411315 481.408801 
L 1227.404021 477.13271 
L 1228.396727 476.813162 
L 1229.389432 477.533697 
L 1230.382138 479.374511 
L 1231.374844 476.298033 
L 1232.36755 479.411004 
L 1233.360256 477.004992 
L 1234.352962 477.271532 
L 1235.345668 478.841323 
L 1236.338374 477.483616 
L 1237.33108 478.013203 
L 1238.323786 479.826716 
L 1239.316492 478.173878 
L 1240.309198 475.439061 
L 1241.301904 476.596567 
L 1242.29461 479.525429 
L 1243.287315 483.043978 
L 1245.272727 477.251925 
L 1245.272727 477.251925 
" clip-path="url(#pd8144c35f3)" style="fill: none; stroke: #1f77b4; stroke-width: 1.5; stroke-linecap: square"/>
   </g>
   <g id="patch_3">
    <path d="M 180 512.64 
L 180 69.12 
" style="fill: none; stroke: #000000; stroke-width: 0.8; stroke-linejoin: miter; stroke-linecap: square"/>
   </g>
   <g id="patch_4">
    <path d="M 1296 512.64 
L 1296 69.12 
" style="fill: none; stroke: #000000; stroke-width: 0.8; stroke-linejoin: miter; stroke-linecap: square"/>
   </g>
   <g id="patch_5">
    <path d="M 180 512.64 
L 1296 512.64 
" style="fill: none; stroke: #000000; stroke-width: 0.8; stroke-linejoin: miter; stroke-linecap: square"/>
   </g>
   <g id="patch_6">
    <path d="M 180 69.12 
L 1296 69.12 
" style="fill: none; stroke: #000000; stroke-width: 0.8; stroke-linejoin: miter; stroke-linecap: square"/>
   </g>
   <g id="text_15">
    <!-- source24-receiver1 -->
    <g transform="translate(544.9 60.80125) scale(0.4 -0.4)">
     <defs>
      <path id="DejaVuSans-73" d="M 2834 3397 
L 2834 2853 
Q 2591 2978 2328 3040 
Q 2066 3103 1784 3103 
Q 1356 3103 1142 2972 
Q 928 2841 928 2578 
Q 928 2378 1081 2264 
Q 1234 2150 1697 2047 
L 1894 2003 
Q 2506 1872 2764 1633 
Q 3022 1394 3022 966 
Q 3022 478 2636 193 
Q 2250 -91 1575 -91 
Q 1294 -91 989 -36 
Q 684 19 347 128 
L 347 722 
Q 666 556 975 473 
Q 1284 391 1588 391 
Q 1994 391 2212 530 
Q 2431 669 2431 922 
Q 2431 1156 2273 1281 
Q 2116 1406 1581 1522 
L 1381 1569 
Q 847 1681 609 1914 
Q 372 2147 372 2553 
Q 372 3047 722 3315 
Q 1072 3584 1716 3584 
Q 2034 3584 2315 3537 
Q 2597 3491 2834 3397 
z
" transform="scale(0.015625)"/>
      <path id="DejaVuSans-6f" d="M 1959 3097 
Q 1497 3097 1228 2736 
Q 959 2375 959 1747 
Q 959 1119 1226 758 
Q 1494 397 1959 397 
Q 2419 397 2687 759 
Q 2956 1122 2956 1747 
Q 2956 2369 2687 2733 
Q 2419 3097 1959 3097 
z
M 1959 3584 
Q 2709 3584 3137 3096 
Q 3566 2609 3566 1747 
Q 3566 888 3137 398 
Q 2709 -91 1959 -91 
Q 1206 -91 779 398 
Q 353 888 353 1747 
Q 353 2609 779 3096 
Q 1206 3584 1959 3584 
z
" transform="scale(0.015625)"/>
      <path id="DejaVuSans-75" d="M 544 1381 
L 544 3500 
L 1119 3500 
L 1119 1403 
Q 1119 906 1312 657 
Q 1506 409 1894 409 
Q 2359 409 2629 706 
Q 2900 1003 2900 1516 
L 2900 3500 
L 3475 3500 
L 3475 0 
L 2900 0 
L 2900 538 
Q 2691 219 2414 64 
Q 2138 -91 1772 -91 
Q 1169 -91 856 284 
Q 544 659 544 1381 
z
M 1991 3584 
L 1991 3584 
z
" transform="scale(0.015625)"/>
      <path id="DejaVuSans-72" d="M 2631 2963 
Q 2534 3019 2420 3045 
Q 2306 3072 2169 3072 
Q 1681 3072 1420 2755 
Q 1159 2438 1159 1844 
L 1159 0 
L 581 0 
L 581 3500 
L 1159 3500 
L 1159 2956 
Q 1341 3275 1631 3429 
Q 1922 3584 2338 3584 
Q 2397 3584 2469 3576 
Q 2541 3569 2628 3553 
L 2631 2963 
z
" transform="scale(0.015625)"/>
      <path id="DejaVuSans-63" d="M 3122 3366 
L 3122 2828 
Q 2878 2963 2633 3030 
Q 2388 3097 2138 3097 
Q 1578 3097 1268 2742 
Q 959 2388 959 1747 
Q 959 1106 1268 751 
Q 1578 397 2138 397 
Q 2388 397 2633 464 
Q 2878 531 3122 666 
L 3122 134 
Q 2881 22 2623 -34 
Q 2366 -91 2075 -91 
Q 1284 -91 818 406 
Q 353 903 353 1747 
Q 353 2603 823 3093 
Q 1294 3584 2113 3584 
Q 2378 3584 2631 3529 
Q 2884 3475 3122 3366 
z
" transform="scale(0.015625)"/>
      <path id="DejaVuSans-65" d="M 3597 1894 
L 3597 1613 
L 953 1613 
Q 991 1019 1311 708 
Q 1631 397 2203 397 
Q 2534 397 2845 478 
Q 3156 559 3463 722 
L 3463 178 
Q 3153 47 2828 -22 
Q 2503 -91 2169 -91 
Q 1331 -91 842 396 
Q 353 884 353 1716 
Q 353 2575 817 3079 
Q 1281 3584 2069 3584 
Q 2775 3584 3186 3129 
Q 3597 2675 3597 1894 
z
M 3022 2063 
Q 3016 2534 2758 2815 
Q 2500 3097 2075 3097 
Q 1594 3097 1305 2825 
Q 1016 2553 972 2059 
L 3022 2063 
z
" transform="scale(0.015625)"/>
      <path id="DejaVuSans-2d" d="M 313 2009 
L 1997 2009 
L 1997 1497 
L 313 1497 
L 313 2009 
z
" transform="scale(0.015625)"/>
      <path id="DejaVuSans-69" d="M 603 3500 
L 1178 3500 
L 1178 0 
L 603 0 
L 603 3500 
z
M 603 4863 
L 1178 4863 
L 1178 4134 
L 603 4134 
L 603 4863 
z
" transform="scale(0.015625)"/>
      <path id="DejaVuSans-76" d="M 191 3500 
L 800 3500 
L 1894 563 
L 2988 3500 
L 3597 3500 
L 2284 0 
L 1503 0 
L 191 3500 
z
" transform="scale(0.015625)"/>
     </defs>
     <use xlink:href="#DejaVuSans-73"/>
     <use xlink:href="#DejaVuSans-6f" x="52.099609"/>
     <use xlink:href="#DejaVuSans-75" x="113.28125"/>
     <use xlink:href="#DejaVuSans-72" x="176.660156"/>
     <use xlink:href="#DejaVuSans-63" x="215.523438"/>
     <use xlink:href="#DejaVuSans-65" x="270.503906"/>
     <use xlink:href="#DejaVuSans-32" x="332.027344"/>
     <use xlink:href="#DejaVuSans-34" x="395.650391"/>
     <use xlink:href="#DejaVuSans-2d" x="459.273438"/>
     <use xlink:href="#DejaVuSans-72" x="495.357422"/>
     <use xlink:href="#DejaVuSans-65" x="534.220703"/>
     <use xlink:href="#DejaVuSans-63" x="595.744141"/>
     <use xlink:href="#DejaVuSans-65" x="650.724609"/>
     <use xlink:href="#DejaVuSans-69" x="712.248047"/>
     <use xlink:href="#DejaVuSans-76" x="740.03125"/>
     <use xlink:href="#DejaVuSans-65" x="799.210938"/>
     <use xlink:href="#DejaVuSans-72" x="860.734375"/>
     <use xlink:href="#DejaVuSans-31" x="901.847656"/>
    </g>
   </g>
  </g>
 </g>
 <defs>
  <clipPath id="pd8144c35f3">
   <rect x="180" y="69.12" width="1116" height="443.52"/>
  </clipPath>
 </defs>
</svg>
