<?xml version="1.0" encoding="utf-8" standalone="no"?>
<!DOCTYPE svg PUBLIC "-//W3C//DTD SVG 1.1//EN"
  "http://www.w3.org/Graphics/SVG/1.1/DTD/svg11.dtd">
<svg xmlns:xlink="http://www.w3.org/1999/xlink" width="1440pt" height="576pt" viewBox="0 0 1440 576" xmlns="http://www.w3.org/2000/svg" version="1.1">
 <metadata>
  <rdf:RDF xmlns:dc="http://purl.org/dc/elements/1.1/" xmlns:cc="http://creativecommons.org/ns#" xmlns:rdf="http://www.w3.org/1999/02/22-rdf-syntax-ns#">
   <cc:Work>
    <dc:type rdf:resource="http://purl.org/dc/dcmitype/StillImage"/>
    <dc:date>2024-05-22T04:50:26.093711</dc:date>
    <dc:format>image/svg+xml</dc:format>
    <dc:creator>
     <cc:Agent>
      <dc:title>Matplotlib v3.8.3, https://matplotlib.org/</dc:title>
     </cc:Agent>
    </dc:creator>
   </cc:Work>
  </rdf:RDF>
 </metadata>
 <defs>
  <style type="text/css">*{stroke-linejoin: round; stroke-linecap: butt}</style>
 </defs>
 <g id="figure_1">
  <g id="patch_1">
   <path d="M 0 576 
L 1440 576 
L 1440 0 
L 0 0 
z
" style="fill: #ffffff"/>
  </g>
  <g id="axes_1">
   <g id="patch_2">
    <path d="M 180 512.64 
L 1296 512.64 
L 1296 69.12 
L 180 69.12 
z
" style="fill: #ffffff"/>
   </g>
   <g id="matplotlib.axis_1">
    <g id="xtick_1">
     <g id="line2d_1">
      <defs>
       <path id="m05b3cb71e7" d="M 0 0 
L 0 3.5 
" style="stroke: #000000; stroke-width: 0.8"/>
      </defs>
      <g>
       <use xlink:href="#m05b3cb71e7" x="229.734567" y="512.64" style="stroke: #000000; stroke-width: 0.8"/>
      </g>
     </g>
     <g id="text_1">
      <!-- 0 -->
      <g transform="translate(226.553317 527.238438) scale(0.1 -0.1)">
       <defs>
        <path id="DejaVuSans-30" d="M 2034 4250 
Q 1547 4250 1301 3770 
Q 1056 3291 1056 2328 
Q 1056 1369 1301 889 
Q 1547 409 2034 409 
Q 2525 409 2770 889 
Q 3016 1369 3016 2328 
Q 3016 3291 2770 3770 
Q 2525 4250 2034 4250 
z
M 2034 4750 
Q 2819 4750 3233 4129 
Q 3647 3509 3647 2328 
Q 3647 1150 3233 529 
Q 2819 -91 2034 -91 
Q 1250 -91 836 529 
Q 422 1150 422 2328 
Q 422 3509 836 4129 
Q 1250 4750 2034 4750 
z
" transform="scale(0.015625)"/>
       </defs>
       <use xlink:href="#DejaVuSans-30"/>
      </g>
     </g>
    </g>
    <g id="xtick_2">
     <g id="line2d_2">
      <g>
       <use xlink:href="#m05b3cb71e7" x="433.04074" y="512.64" style="stroke: #000000; stroke-width: 0.8"/>
      </g>
     </g>
     <g id="text_2">
      <!-- 500 -->
      <g transform="translate(423.49699 527.238438) scale(0.1 -0.1)">
       <defs>
        <path id="DejaVuSans-35" d="M 691 4666 
L 3169 4666 
L 3169 4134 
L 1269 4134 
L 1269 2991 
Q 1406 3038 1543 3061 
Q 1681 3084 1819 3084 
Q 2600 3084 3056 2656 
Q 3513 2228 3513 1497 
Q 3513 744 3044 326 
Q 2575 -91 1722 -91 
Q 1428 -91 1123 -41 
Q 819 9 494 109 
L 494 744 
Q 775 591 1075 516 
Q 1375 441 1709 441 
Q 2250 441 2565 725 
Q 2881 1009 2881 1497 
Q 2881 1984 2565 2268 
Q 2250 2553 1709 2553 
Q 1456 2553 1204 2497 
Q 953 2441 691 2322 
L 691 4666 
z
" transform="scale(0.015625)"/>
       </defs>
       <use xlink:href="#DejaVuSans-35"/>
       <use xlink:href="#DejaVuSans-30" x="63.623047"/>
       <use xlink:href="#DejaVuSans-30" x="127.246094"/>
      </g>
     </g>
    </g>
    <g id="xtick_3">
     <g id="line2d_3">
      <g>
       <use xlink:href="#m05b3cb71e7" x="636.346913" y="512.64" style="stroke: #000000; stroke-width: 0.8"/>
      </g>
     </g>
     <g id="text_3">
      <!-- 1000 -->
      <g transform="translate(623.621913 527.238438) scale(0.1 -0.1)">
       <defs>
        <path id="DejaVuSans-31" d="M 794 531 
L 1825 531 
L 1825 4091 
L 703 3866 
L 703 4441 
L 1819 4666 
L 2450 4666 
L 2450 531 
L 3481 531 
L 3481 0 
L 794 0 
L 794 531 
z
" transform="scale(0.015625)"/>
       </defs>
       <use xlink:href="#DejaVuSans-31"/>
       <use xlink:href="#DejaVuSans-30" x="63.623047"/>
       <use xlink:href="#DejaVuSans-30" x="127.246094"/>
       <use xlink:href="#DejaVuSans-30" x="190.869141"/>
      </g>
     </g>
    </g>
    <g id="xtick_4">
     <g id="line2d_4">
      <g>
       <use xlink:href="#m05b3cb71e7" x="839.653087" y="512.64" style="stroke: #000000; stroke-width: 0.8"/>
      </g>
     </g>
     <g id="text_4">
      <!-- 1500 -->
      <g transform="translate(826.928087 527.238438) scale(0.1 -0.1)">
       <use xlink:href="#DejaVuSans-31"/>
       <use xlink:href="#DejaVuSans-35" x="63.623047"/>
       <use xlink:href="#DejaVuSans-30" x="127.246094"/>
       <use xlink:href="#DejaVuSans-30" x="190.869141"/>
      </g>
     </g>
    </g>
    <g id="xtick_5">
     <g id="line2d_5">
      <g>
       <use xlink:href="#m05b3cb71e7" x="1042.95926" y="512.64" style="stroke: #000000; stroke-width: 0.8"/>
      </g>
     </g>
     <g id="text_5">
      <!-- 2000 -->
      <g transform="translate(1030.23426 527.238438) scale(0.1 -0.1)">
       <defs>
        <path id="DejaVuSans-32" d="M 1228 531 
L 3431 531 
L 3431 0 
L 469 0 
L 469 531 
Q 828 903 1448 1529 
Q 2069 2156 2228 2338 
Q 2531 2678 2651 2914 
Q 2772 3150 2772 3378 
Q 2772 3750 2511 3984 
Q 2250 4219 1831 4219 
Q 1534 4219 1204 4116 
Q 875 4013 500 3803 
L 500 4441 
Q 881 4594 1212 4672 
Q 1544 4750 1819 4750 
Q 2544 4750 2975 4387 
Q 3406 4025 3406 3419 
Q 3406 3131 3298 2873 
Q 3191 2616 2906 2266 
Q 2828 2175 2409 1742 
Q 1991 1309 1228 531 
z
" transform="scale(0.015625)"/>
       </defs>
       <use xlink:href="#DejaVuSans-32"/>
       <use xlink:href="#DejaVuSans-30" x="63.623047"/>
       <use xlink:href="#DejaVuSans-30" x="127.246094"/>
       <use xlink:href="#DejaVuSans-30" x="190.869141"/>
      </g>
     </g>
    </g>
    <g id="xtick_6">
     <g id="line2d_6">
      <g>
       <use xlink:href="#m05b3cb71e7" x="1246.265433" y="512.64" style="stroke: #000000; stroke-width: 0.8"/>
      </g>
     </g>
     <g id="text_6">
      <!-- 2500 -->
      <g transform="translate(1233.540433 527.238438) scale(0.1 -0.1)">
       <use xlink:href="#DejaVuSans-32"/>
       <use xlink:href="#DejaVuSans-35" x="63.623047"/>
       <use xlink:href="#DejaVuSans-30" x="127.246094"/>
       <use xlink:href="#DejaVuSans-30" x="190.869141"/>
      </g>
     </g>
    </g>
   </g>
   <g id="matplotlib.axis_2">
    <g id="ytick_1">
     <g id="line2d_7">
      <defs>
       <path id="m607f00d688" d="M 0 0 
L -3.5 0 
" style="stroke: #000000; stroke-width: 0.8"/>
      </defs>
      <g>
       <use xlink:href="#m607f00d688" x="180" y="511.628523" style="stroke: #000000; stroke-width: 0.8"/>
      </g>
     </g>
     <g id="text_7">
      <!-- −2 -->
      <g transform="translate(158.257812 515.427742) scale(0.1 -0.1)">
       <defs>
        <path id="DejaVuSans-2212" d="M 678 2272 
L 4684 2272 
L 4684 1741 
L 678 1741 
L 678 2272 
z
" transform="scale(0.015625)"/>
       </defs>
       <use xlink:href="#DejaVuSans-2212"/>
       <use xlink:href="#DejaVuSans-32" x="83.789062"/>
      </g>
     </g>
    </g>
    <g id="ytick_2">
     <g id="line2d_8">
      <g>
       <use xlink:href="#m607f00d688" x="180" y="453.849088" style="stroke: #000000; stroke-width: 0.8"/>
      </g>
     </g>
     <g id="text_8">
      <!-- −1 -->
      <g transform="translate(158.257812 457.648307) scale(0.1 -0.1)">
       <use xlink:href="#DejaVuSans-2212"/>
       <use xlink:href="#DejaVuSans-31" x="83.789062"/>
      </g>
     </g>
    </g>
    <g id="ytick_3">
     <g id="line2d_9">
      <g>
       <use xlink:href="#m607f00d688" x="180" y="396.069653" style="stroke: #000000; stroke-width: 0.8"/>
      </g>
     </g>
     <g id="text_9">
      <!-- 0 -->
      <g transform="translate(166.6375 399.868872) scale(0.1 -0.1)">
       <use xlink:href="#DejaVuSans-30"/>
      </g>
     </g>
    </g>
    <g id="ytick_4">
     <g id="line2d_10">
      <g>
       <use xlink:href="#m607f00d688" x="180" y="338.290218" style="stroke: #000000; stroke-width: 0.8"/>
      </g>
     </g>
     <g id="text_10">
      <!-- 1 -->
      <g transform="translate(166.6375 342.089436) scale(0.1 -0.1)">
       <use xlink:href="#DejaVuSans-31"/>
      </g>
     </g>
    </g>
    <g id="ytick_5">
     <g id="line2d_11">
      <g>
       <use xlink:href="#m607f00d688" x="180" y="280.510782" style="stroke: #000000; stroke-width: 0.8"/>
      </g>
     </g>
     <g id="text_11">
      <!-- 2 -->
      <g transform="translate(166.6375 284.310001) scale(0.1 -0.1)">
       <use xlink:href="#DejaVuSans-32"/>
      </g>
     </g>
    </g>
    <g id="ytick_6">
     <g id="line2d_12">
      <g>
       <use xlink:href="#m607f00d688" x="180" y="222.731347" style="stroke: #000000; stroke-width: 0.8"/>
      </g>
     </g>
     <g id="text_12">
      <!-- 3 -->
      <g transform="translate(166.6375 226.530566) scale(0.1 -0.1)">
       <defs>
        <path id="DejaVuSans-33" d="M 2597 2516 
Q 3050 2419 3304 2112 
Q 3559 1806 3559 1356 
Q 3559 666 3084 287 
Q 2609 -91 1734 -91 
Q 1441 -91 1130 -33 
Q 819 25 488 141 
L 488 750 
Q 750 597 1062 519 
Q 1375 441 1716 441 
Q 2309 441 2620 675 
Q 2931 909 2931 1356 
Q 2931 1769 2642 2001 
Q 2353 2234 1838 2234 
L 1294 2234 
L 1294 2753 
L 1863 2753 
Q 2328 2753 2575 2939 
Q 2822 3125 2822 3475 
Q 2822 3834 2567 4026 
Q 2313 4219 1838 4219 
Q 1578 4219 1281 4162 
Q 984 4106 628 3988 
L 628 4550 
Q 988 4650 1302 4700 
Q 1616 4750 1894 4750 
Q 2613 4750 3031 4423 
Q 3450 4097 3450 3541 
Q 3450 3153 3228 2886 
Q 3006 2619 2597 2516 
z
" transform="scale(0.015625)"/>
       </defs>
       <use xlink:href="#DejaVuSans-33"/>
      </g>
     </g>
    </g>
    <g id="ytick_7">
     <g id="line2d_13">
      <g>
       <use xlink:href="#m607f00d688" x="180" y="164.951912" style="stroke: #000000; stroke-width: 0.8"/>
      </g>
     </g>
     <g id="text_13">
      <!-- 4 -->
      <g transform="translate(166.6375 168.751131) scale(0.1 -0.1)">
       <defs>
        <path id="DejaVuSans-34" d="M 2419 4116 
L 825 1625 
L 2419 1625 
L 2419 4116 
z
M 2253 4666 
L 3047 4666 
L 3047 1625 
L 3713 1625 
L 3713 1100 
L 3047 1100 
L 3047 0 
L 2419 0 
L 2419 1100 
L 313 1100 
L 313 1709 
L 2253 4666 
z
" transform="scale(0.015625)"/>
       </defs>
       <use xlink:href="#DejaVuSans-34"/>
      </g>
     </g>
    </g>
    <g id="ytick_8">
     <g id="line2d_14">
      <g>
       <use xlink:href="#m607f00d688" x="180" y="107.172476" style="stroke: #000000; stroke-width: 0.8"/>
      </g>
     </g>
     <g id="text_14">
      <!-- 5 -->
      <g transform="translate(166.6375 110.971695) scale(0.1 -0.1)">
       <use xlink:href="#DejaVuSans-35"/>
      </g>
     </g>
    </g>
   </g>
   <g id="line2d_15">
    <path d="M 230.727273 361.243308 
L 239.661626 360.787502 
L 240.654332 360.80368 
L 242.639744 361.446217 
L 243.63245 362.343586 
L 244.625156 362.873615 
L 245.617862 367.664414 
L 246.610568 379.234165 
L 247.603273 397.28629 
L 248.595979 380.005387 
L 249.588685 316.205153 
L 250.581391 310.175418 
L 251.574097 324.099453 
L 252.566803 265.510462 
L 253.559509 244.01216 
L 254.552215 233.719371 
L 255.544921 238.28353 
L 256.537627 269.788041 
L 257.530333 237.543712 
L 258.523039 215.330628 
L 259.515745 203.016445 
L 260.50845 208.650296 
L 261.501156 239.219749 
L 263.486568 309.085625 
L 264.479274 220.985882 
L 265.47198 194.167141 
L 266.464686 197.75822 
L 267.457392 228.407914 
L 268.450098 209.423395 
L 269.442804 229.238889 
L 270.43551 203.858694 
L 271.428216 219.619396 
L 272.420922 262.614179 
L 273.413627 210.827461 
L 274.406333 171.093786 
L 275.399039 158.95909 
L 276.391745 157.342962 
L 277.384451 134.138116 
L 278.377157 120.763041 
L 279.369863 93.347973 
L 280.362569 89.28 
L 281.355275 135.628496 
L 282.347981 157.238496 
L 283.340687 132.406135 
L 284.333393 164.385324 
L 285.326099 111.392978 
L 286.318804 113.699249 
L 287.31151 176.90046 
L 288.304216 221.377958 
L 289.296922 183.18775 
L 290.289628 161.476548 
L 291.282334 181.958132 
L 292.27504 208.062496 
L 293.267746 239.80741 
L 294.260452 254.203314 
L 295.253158 287.498873 
L 296.245864 224.103607 
L 297.23857 214.075738 
L 298.231276 289.402757 
L 299.223981 268.843965 
L 300.216687 324.884924 
L 301.209393 314.866997 
L 302.202099 290.383756 
L 303.194805 298.705732 
L 304.187511 326.427003 
L 305.180217 274.035217 
L 306.172923 318.84837 
L 307.165629 325.017129 
L 308.158335 317.885662 
L 309.151041 328.209516 
L 310.143747 323.037396 
L 311.136453 333.496188 
L 312.129159 357.566181 
L 313.121864 316.231347 
L 314.11457 347.463134 
L 315.107276 342.581137 
L 316.099982 335.105658 
L 317.092688 348.280662 
L 318.085394 342.865331 
L 319.0781 348.204365 
L 320.070806 346.495001 
L 321.063512 348.370649 
L 322.056218 350.852348 
L 324.04163 353.497617 
L 325.034336 352.758289 
L 326.027041 356.238544 
L 327.019747 356.433066 
L 328.012453 354.305493 
L 329.005159 357.020706 
L 329.997865 362.356315 
L 330.990571 361.16235 
L 331.983277 359.2118 
L 332.975983 362.409216 
L 334.961395 366.507896 
L 335.954101 361.225295 
L 336.946807 368.519836 
L 337.939513 366.730649 
L 338.932218 371.800369 
L 339.924924 367.268766 
L 340.91763 366.900695 
L 341.910336 375.275932 
L 342.903042 372.46598 
L 343.895748 373.075045 
L 344.888454 373.444064 
L 345.88116 375.446439 
L 346.873866 378.196176 
L 347.866572 371.757879 
L 348.859278 380.686092 
L 349.851984 373.345555 
L 350.84469 392.180831 
L 351.837395 365.459645 
L 352.830101 405.572083 
L 353.822807 360.959408 
L 354.815513 406.113636 
L 355.808219 358.813464 
L 356.800925 380.863755 
L 357.793631 372.050088 
L 358.786337 361.293574 
L 359.779043 397.101331 
L 360.771749 352.273596 
L 361.764455 443.830549 
L 362.757161 362.022222 
L 363.749867 425.004443 
L 364.742572 373.157244 
L 365.735278 402.981997 
L 366.727984 381.454723 
L 367.72069 393.164217 
L 368.713396 387.541399 
L 369.706102 394.426097 
L 370.698808 388.826935 
L 371.691514 395.888949 
L 372.68422 394.424734 
L 373.676926 394.803998 
L 374.669632 395.329005 
L 375.662338 393.684834 
L 376.655044 396.980572 
L 377.64775 396.506327 
L 378.640455 397.328513 
L 379.633161 393.585289 
L 380.625867 399.195876 
L 381.618573 399.322982 
L 382.611279 396.509195 
L 383.603985 397.470912 
L 384.596691 398.914894 
L 385.589397 399.908524 
L 386.582103 401.340024 
L 387.574809 401.718826 
L 388.567515 403.292298 
L 389.560221 404.419062 
L 390.552927 403.862889 
L 391.545632 399.133639 
L 392.538338 401.97989 
L 393.531044 402.413866 
L 394.52375 401.609023 
L 395.516456 404.975217 
L 396.509162 406.044882 
L 397.501868 405.993363 
L 399.48728 406.39865 
L 400.479986 404.664626 
L 401.472692 408.607933 
L 402.465398 405.639734 
L 403.458104 406.485557 
L 404.450809 409.766425 
L 405.443515 411.348297 
L 406.436221 409.136151 
L 407.428927 407.867064 
L 408.421633 410.600252 
L 409.414339 412.555965 
L 410.407045 409.30502 
L 411.399751 411.417494 
L 412.392457 413.126677 
L 413.385163 412.255027 
L 414.377869 412.702141 
L 415.370575 413.980714 
L 416.363281 413.824133 
L 417.355986 412.301137 
L 418.348692 415.57613 
L 419.341398 414.358533 
L 420.334104 414.749838 
L 421.32681 417.331166 
L 422.319516 415.363518 
L 423.312222 416.210192 
L 424.304928 416.001231 
L 425.297634 417.0264 
L 426.29034 416.138998 
L 427.283046 415.970168 
L 428.275752 418.417512 
L 429.268458 412.768199 
L 430.261163 419.916283 
L 431.253869 420.931709 
L 432.246575 418.417093 
L 433.239281 416.816731 
L 434.231987 416.374304 
L 435.224693 423.828756 
L 436.217399 417.194549 
L 437.210105 419.726543 
L 438.202811 421.156878 
L 439.195517 419.259628 
L 440.188223 423.899066 
L 441.180929 422.112141 
L 442.173635 423.158787 
L 443.166341 421.669826 
L 444.159046 422.486105 
L 445.151752 420.869466 
L 446.144458 424.796957 
L 447.137164 424.901797 
L 448.12987 425.991348 
L 449.122576 426.310778 
L 450.115282 421.515707 
L 451.107988 425.182587 
L 452.100694 423.665622 
L 453.0934 424.944434 
L 454.086106 430.251957 
L 455.078812 424.004433 
L 456.071518 424.83677 
L 457.064223 420.749964 
L 458.056929 429.551863 
L 459.049635 424.832281 
L 460.042341 427.341324 
L 461.035047 425.843099 
L 462.027753 429.635961 
L 463.020459 427.750504 
L 464.013165 428.317569 
L 465.005871 423.142618 
L 465.998577 428.417648 
L 466.991283 428.789305 
L 468.976695 428.505029 
L 469.9694 428.870733 
L 470.962106 426.300417 
L 471.954812 429.838278 
L 472.947518 434.716161 
L 473.940224 429.169185 
L 474.93293 433.480025 
L 475.925636 433.812035 
L 476.918342 429.052203 
L 477.911048 433.175185 
L 478.903754 435.865562 
L 479.89646 428.553608 
L 480.889166 433.804626 
L 481.881872 432.902245 
L 482.874577 436.466518 
L 483.867283 429.588877 
L 484.859989 436.29749 
L 485.852695 435.202895 
L 486.845401 429.946995 
L 487.838107 430.748961 
L 488.830813 433.072335 
L 489.823519 431.817714 
L 490.816225 437.519275 
L 491.808931 435.181844 
L 492.801637 429.775055 
L 493.794343 436.252484 
L 494.787049 437.559691 
L 495.779754 435.22048 
L 496.77246 435.572544 
L 497.765166 438.663397 
L 498.757872 434.014625 
L 499.750578 432.113621 
L 500.743284 438.18693 
L 501.73599 434.785976 
L 502.728696 437.71018 
L 503.721402 434.44041 
L 504.714108 442.568236 
L 505.706814 439.725774 
L 506.69952 440.888893 
L 507.692226 437.033081 
L 508.684932 441.028006 
L 509.677637 435.623268 
L 510.670343 438.266419 
L 511.663049 441.315323 
L 512.655755 435.363508 
L 513.648461 439.434947 
L 514.641167 436.340016 
L 515.633873 435.425387 
L 516.626579 441.716509 
L 517.619285 438.837188 
L 518.611991 441.516895 
L 519.604697 440.950975 
L 520.597403 439.998636 
L 521.590109 446.702826 
L 522.582814 436.544239 
L 523.57552 434.765024 
L 524.568226 446.439382 
L 525.560932 449.120909 
L 526.553638 443.7931 
L 527.546344 443.470218 
L 528.53905 442.354811 
L 529.531756 442.072261 
L 530.524462 443.954021 
L 532.509874 448.419453 
L 533.50258 441.84091 
L 534.495286 448.221383 
L 535.487991 443.829675 
L 536.480697 441.457595 
L 537.473403 440.008628 
L 538.466109 442.250351 
L 539.458815 449.468052 
L 540.451521 450.081731 
L 541.444227 443.856273 
L 542.436933 440.514704 
L 543.429639 445.383004 
L 544.422345 444.705666 
L 545.415051 444.839624 
L 546.407757 440.363149 
L 547.400463 440.409679 
L 548.393168 452.712479 
L 549.385874 445.8589 
L 550.37858 445.327265 
L 551.371286 447.056457 
L 552.363992 449.025378 
L 553.356698 441.681365 
L 554.349404 446.922214 
L 555.34211 449.968696 
L 556.334816 451.056124 
L 557.327522 452.734849 
L 558.320228 448.639676 
L 559.312934 442.829468 
L 560.30564 447.002252 
L 561.298345 452.872588 
L 562.291051 448.318528 
L 563.283757 449.434946 
L 564.276463 452.912791 
L 565.269169 450.397027 
L 566.261875 449.615544 
L 567.254581 451.6839 
L 568.247287 451.694235 
L 569.239993 447.303343 
L 570.232699 451.87604 
L 571.225405 447.60706 
L 572.218111 451.991429 
L 573.210817 449.346739 
L 574.203523 452.549041 
L 575.196228 452.534509 
L 576.188934 459.402034 
L 577.18164 447.3597 
L 578.174346 449.405529 
L 579.167052 453.749257 
L 580.159758 449.889776 
L 581.152464 452.081524 
L 582.14517 445.770923 
L 583.137876 446.92983 
L 584.130582 450.9198 
L 585.123288 456.05434 
L 586.115994 450.415945 
L 588.101405 455.323666 
L 589.094111 455.552873 
L 590.086817 454.833841 
L 591.079523 456.201021 
L 592.072229 454.806751 
L 593.064935 458.104775 
L 594.057641 451.862216 
L 595.050347 455.504893 
L 596.043053 454.987543 
L 597.035759 456.954332 
L 598.028465 452.035891 
L 599.021171 454.690347 
L 600.013877 452.094826 
L 601.006582 456.80268 
L 601.999288 453.679054 
L 602.991994 459.728801 
L 603.9847 454.778289 
L 604.977406 456.574944 
L 605.970112 456.698761 
L 606.962818 456.090677 
L 607.955524 458.05106 
L 608.94823 462.146971 
L 609.940936 452.854287 
L 610.933642 456.345576 
L 611.926348 457.557043 
L 612.919054 458.955491 
L 613.911759 456.040504 
L 614.904465 458.778161 
L 615.897171 458.231328 
L 616.889877 458.144744 
L 617.882583 460.307203 
L 618.875289 461.19015 
L 619.867995 454.969816 
L 620.860701 460.147881 
L 621.853407 459.122802 
L 622.846113 462.739865 
L 623.838819 460.246946 
L 624.831525 458.841782 
L 625.824231 460.953072 
L 626.816936 456.670794 
L 627.809642 459.843393 
L 628.802348 462.263765 
L 629.795054 458.396236 
L 630.78776 460.643246 
L 631.780466 458.914784 
L 632.773172 458.951838 
L 633.765878 459.162408 
L 634.758584 460.369564 
L 635.75129 460.026434 
L 636.743996 461.326458 
L 637.736702 462.024938 
L 638.729408 459.63041 
L 639.722114 459.698665 
L 640.714819 462.94367 
L 641.707525 459.742037 
L 642.700231 462.516745 
L 643.692937 461.58925 
L 645.678349 460.872245 
L 646.671055 461.018619 
L 647.663761 459.211613 
L 648.656467 460.31439 
L 649.649173 460.424999 
L 650.641879 462.00153 
L 651.634585 461.155814 
L 652.627291 462.107898 
L 653.619996 461.895875 
L 654.612702 463.577266 
L 655.605408 464.387105 
L 656.598114 463.206782 
L 657.59082 463.501585 
L 658.583526 461.936916 
L 659.576232 462.776916 
L 660.568938 463.115558 
L 661.561644 463.277768 
L 662.55435 462.893033 
L 663.547056 464.616572 
L 664.539762 463.305585 
L 665.532468 463.811922 
L 666.525173 462.804287 
L 667.517879 463.897936 
L 668.510585 462.881009 
L 669.503291 465.270213 
L 670.495997 464.818301 
L 671.488703 464.684921 
L 672.481409 465.344163 
L 673.474115 464.703308 
L 674.466821 464.444948 
L 675.459527 465.883418 
L 676.452233 464.836468 
L 677.444939 464.711178 
L 678.437645 464.796277 
L 679.43035 465.711163 
L 680.423056 465.416364 
L 682.408468 465.591763 
L 683.401174 465.871137 
L 684.39388 465.811177 
L 686.379292 466.061055 
L 687.371998 466.489936 
L 688.364704 466.657071 
L 689.35741 466.40845 
L 691.342822 466.724455 
L 692.335527 466.690631 
L 693.328233 467.047371 
L 694.320939 466.975376 
L 695.313645 466.60781 
L 696.306351 468.259829 
L 698.291763 467.395922 
L 699.284469 467.156784 
L 700.277175 467.956566 
L 701.269881 467.463563 
L 702.262587 467.652802 
L 703.255293 468.039755 
L 704.247999 468.133017 
L 705.240705 468.937068 
L 706.23341 467.426872 
L 707.226116 468.124933 
L 709.211528 468.739751 
L 711.19694 468.764729 
L 712.189646 468.992771 
L 713.182352 469.067207 
L 714.175058 468.834158 
L 716.16047 469.283335 
L 717.153176 469.165471 
L 718.145882 469.420826 
L 719.138587 470.019545 
L 720.131293 469.301774 
L 722.116705 470.136833 
L 723.109411 470.006749 
L 724.102117 470.541567 
L 725.094823 470.515723 
L 726.087529 470.369133 
L 727.080235 470.472288 
L 728.072941 470.770716 
L 729.065647 470.421801 
L 731.051059 471.355027 
L 733.03647 470.752711 
L 734.029176 471.035266 
L 735.021882 470.958696 
L 736.014588 471.75195 
L 737.007294 471.193244 
L 738 471.735499 
L 740.978118 471.992224 
L 741.970824 471.552087 
L 742.96353 472.117742 
L 743.956236 472.117711 
L 744.948941 471.844424 
L 745.941647 472.113668 
L 746.934353 472.127766 
L 747.927059 472.004374 
L 748.919765 472.687972 
L 749.912471 472.878367 
L 750.905177 472.336219 
L 751.897883 472.624455 
L 752.890589 472.787521 
L 753.883295 472.588226 
L 754.876001 473.279163 
L 755.868707 473.054014 
L 756.861413 473.509703 
L 757.854118 472.921126 
L 759.83953 473.801034 
L 760.832236 473.437908 
L 762.817648 474.088465 
L 764.80306 473.794412 
L 767.781178 474.285133 
L 768.773884 474.218771 
L 769.76659 474.298494 
L 770.759295 474.533872 
L 771.752001 474.272032 
L 772.744707 474.26438 
L 773.737413 474.544305 
L 774.730119 474.495384 
L 775.722825 474.639169 
L 776.715531 475.06785 
L 777.708237 474.852253 
L 778.700943 474.819129 
L 779.693649 474.938207 
L 780.686355 475.191614 
L 783.664473 475.365363 
L 784.657178 475.206227 
L 785.649884 475.583357 
L 787.635296 475.675303 
L 788.628002 475.504223 
L 789.620708 476.187715 
L 790.613414 476.085471 
L 791.60612 475.807755 
L 792.598826 476.194235 
L 793.591532 476.177649 
L 794.584238 476.354646 
L 795.576944 476.274859 
L 796.56965 476.448464 
L 797.562355 476.429557 
L 798.555061 476.859823 
L 799.547767 476.233084 
L 801.533179 476.994905 
L 802.525885 476.560711 
L 803.518591 476.726262 
L 804.511297 477.174851 
L 805.504003 477.23033 
L 806.496709 477.567878 
L 807.489415 476.914795 
L 808.482121 477.197788 
L 809.474827 477.091389 
L 810.467532 477.874407 
L 811.460238 477.712051 
L 812.452944 477.751277 
L 813.44565 477.671878 
L 814.438356 478.044292 
L 815.431062 477.811367 
L 816.423768 478.396351 
L 817.416474 477.905362 
L 819.401886 478.397141 
L 820.394592 478.199579 
L 821.387298 478.430368 
L 822.380004 478.312578 
L 823.372709 478.562453 
L 824.365415 478.561 
L 825.358121 478.40558 
L 826.350827 478.618979 
L 827.343533 478.569689 
L 828.336239 478.63367 
L 829.328945 479.102065 
L 830.321651 479.44151 
L 831.314357 478.967252 
L 832.307063 478.91357 
L 833.299769 479.374694 
L 835.285181 479.075749 
L 836.277886 479.762247 
L 837.270592 479.302939 
L 838.263298 479.33997 
L 839.256004 479.148586 
L 840.24871 479.671977 
L 841.241416 479.555336 
L 842.234122 480.115621 
L 843.226828 479.571555 
L 844.219534 479.955566 
L 845.21224 480.007273 
L 847.197652 479.672819 
L 848.190358 479.900278 
L 849.183064 480.280929 
L 850.175769 480.066302 
L 851.168475 480.212914 
L 852.161181 479.887034 
L 854.146593 480.724937 
L 855.139299 480.562731 
L 856.132005 480.540171 
L 857.124711 480.363429 
L 860.102829 480.802648 
L 861.095535 480.790104 
L 862.088241 481.054592 
L 863.080946 480.714548 
L 864.073652 481.303453 
L 865.066358 481.221398 
L 866.059064 481.273377 
L 867.05177 481.094343 
L 868.044476 481.166536 
L 869.037182 481.756344 
L 870.029888 481.73972 
L 871.022594 481.378836 
L 872.0153 481.874177 
L 873.008006 481.667449 
L 874.000712 481.777881 
L 874.993418 481.469011 
L 875.986123 481.38873 
L 876.978829 481.667001 
L 877.971535 481.785023 
L 878.964241 482.040728 
L 880.949653 482.131612 
L 881.942359 481.850083 
L 882.935065 482.037942 
L 883.927771 482.693211 
L 884.920477 482.450876 
L 885.913183 482.728725 
L 886.905889 482.39648 
L 887.898595 482.786787 
L 888.8913 482.359897 
L 889.884006 482.879867 
L 891.869418 482.437842 
L 892.862124 482.706658 
L 895.840242 483.12788 
L 896.832948 482.921807 
L 897.825654 482.928061 
L 898.81836 483.062303 
L 899.811066 482.944228 
L 900.803772 483.432873 
L 901.796477 483.702125 
L 902.789183 483.325829 
L 903.781889 483.154589 
L 904.774595 483.623372 
L 905.767301 483.32375 
L 906.760007 483.534922 
L 907.752713 483.568231 
L 908.745419 483.179634 
L 909.738125 483.408576 
L 910.730831 483.830178 
L 911.723537 483.857321 
L 912.716243 483.710311 
L 913.708949 483.861448 
L 915.69436 484.449263 
L 916.687066 484.063242 
L 918.672478 484.458938 
L 919.665184 483.759072 
L 920.65789 484.502282 
L 922.643302 484.339221 
L 923.636008 484.179138 
L 924.628714 484.636062 
L 925.62142 484.524021 
L 927.606832 484.983485 
L 928.599537 484.620025 
L 929.592243 484.911834 
L 930.584949 484.717267 
L 931.577655 485.110639 
L 932.570361 484.644578 
L 933.563067 484.761961 
L 934.555773 484.392257 
L 935.548479 485.265586 
L 936.541185 485.245069 
L 937.533891 484.879442 
L 938.526597 484.980341 
L 939.519303 485.326278 
L 940.512009 484.938919 
L 942.49742 485.326402 
L 943.490126 485.463639 
L 944.482832 485.286243 
L 946.468244 485.264934 
L 948.453656 485.303522 
L 949.446362 485.657704 
L 950.439068 485.55662 
L 951.431774 485.882416 
L 952.42448 485.76003 
L 953.417186 485.807673 
L 954.409891 485.690604 
L 955.402597 486.071002 
L 957.388009 485.768831 
L 959.373421 485.996083 
L 960.366127 485.902504 
L 962.351539 486.138176 
L 963.344245 485.996271 
L 964.336951 486.28978 
L 965.329657 485.978896 
L 966.322363 485.999088 
L 967.315068 486.733368 
L 968.307774 485.93837 
L 970.293186 486.597943 
L 971.285892 486.422555 
L 972.278598 486.095344 
L 973.271304 486.354294 
L 974.26401 486.783868 
L 975.256716 486.622683 
L 976.249422 486.762247 
L 977.242128 486.361636 
L 978.234834 486.501269 
L 979.22754 487.379192 
L 980.220246 486.880032 
L 981.212951 486.677495 
L 982.205657 487.224061 
L 983.198363 487.245496 
L 984.191069 486.972775 
L 986.176481 486.944056 
L 988.161893 487.395846 
L 989.154599 487.295038 
L 990.147305 487.00262 
L 991.140011 487.248544 
L 992.132717 487.247632 
L 993.125423 487.071434 
L 994.118128 487.292775 
L 995.110834 487.213151 
L 996.10354 487.429842 
L 997.096246 487.960488 
L 1000.074364 487.54942 
L 1001.06707 487.680598 
L 1002.059776 488.111618 
L 1003.052482 487.900103 
L 1004.045188 487.929735 
L 1006.0306 487.703091 
L 1007.023305 488.190544 
L 1008.016011 487.806258 
L 1009.008717 487.750937 
L 1010.001423 488.159444 
L 1010.994129 487.683936 
L 1011.986835 488.102417 
L 1012.979541 488.145156 
L 1013.972247 488.833057 
L 1014.964953 488.285376 
L 1016.950365 487.98413 
L 1017.943071 488.439723 
L 1018.935777 488.756779 
L 1019.928482 488.220412 
L 1020.921188 488.540208 
L 1021.913894 488.55827 
L 1022.9066 488.105462 
L 1023.899306 488.313109 
L 1024.892012 488.679733 
L 1025.884718 488.369758 
L 1026.877424 488.355968 
L 1027.87013 488.078832 
L 1028.862836 488.537048 
L 1029.855542 488.465812 
L 1030.848248 488.780006 
L 1031.840954 488.881027 
L 1032.833659 488.409347 
L 1033.826365 488.691061 
L 1034.819071 488.747638 
L 1035.811777 488.4864 
L 1036.804483 489.44992 
L 1037.797189 489.076227 
L 1038.789895 489.227567 
L 1040.775307 488.83076 
L 1041.768013 489.345125 
L 1042.760719 489.185383 
L 1043.753425 489.221712 
L 1044.746131 488.791387 
L 1045.738837 489.246083 
L 1046.731542 489.183987 
L 1047.724248 489.372641 
L 1048.716954 488.935385 
L 1049.70966 489.281455 
L 1050.702366 488.878733 
L 1051.695072 489.412772 
L 1052.687778 489.335054 
L 1053.680484 489.529245 
L 1054.67319 489.261092 
L 1055.665896 489.302582 
L 1056.658602 489.789055 
L 1057.651308 489.526459 
L 1058.644014 489.574123 
L 1059.636719 489.243327 
L 1060.629425 489.556325 
L 1064.600249 489.771815 
L 1065.592955 489.613889 
L 1066.585661 489.969167 
L 1067.578367 489.951154 
L 1068.571073 489.718166 
L 1069.563779 489.802913 
L 1070.556485 489.501967 
L 1071.549191 490.242853 
L 1072.541896 489.553561 
L 1073.534602 490.199416 
L 1074.527308 489.767564 
L 1075.520014 489.9496 
L 1076.51272 489.952814 
L 1077.505426 490.170441 
L 1078.498132 490.239935 
L 1079.490838 490.078623 
L 1084.454368 490.429906 
L 1085.447073 490.602809 
L 1086.439779 490.154761 
L 1087.432485 489.949001 
L 1088.425191 490.148129 
L 1089.417897 490.544837 
L 1090.410603 490.092749 
L 1091.403309 489.96353 
L 1092.396015 490.476528 
L 1093.388721 490.456029 
L 1094.381427 490.713824 
L 1095.374133 490.706914 
L 1096.366839 490.226794 
L 1097.359545 490.237125 
L 1098.35225 490.424174 
L 1099.344956 490.341792 
L 1100.337662 490.610947 
L 1101.330368 490.680307 
L 1102.323074 490.553738 
L 1103.31578 490.033189 
L 1104.308486 490.97133 
L 1105.301192 490.706064 
L 1107.286604 490.767584 
L 1108.27931 490.526818 
L 1109.272016 490.720704 
L 1110.264722 490.607888 
L 1112.250133 490.865327 
L 1113.242839 490.711707 
L 1114.235545 490.864784 
L 1115.228251 491.180685 
L 1116.220957 490.952636 
L 1117.213663 491.32559 
L 1118.206369 490.996492 
L 1119.199075 491.236517 
L 1121.184487 490.661626 
L 1124.162605 491.284551 
L 1125.15531 490.786245 
L 1126.148016 490.986466 
L 1127.140722 491.363514 
L 1128.133428 490.879825 
L 1129.126134 490.972632 
L 1130.11884 490.724914 
L 1131.111546 491.022514 
L 1133.096958 491.314392 
L 1134.089664 491.275552 
L 1137.067782 490.89055 
L 1138.060487 490.905755 
L 1139.053193 491.596769 
L 1140.045899 491.154939 
L 1141.038605 491.299638 
L 1143.024017 491.015204 
L 1144.016723 490.928546 
L 1145.009429 491.428487 
L 1146.002135 491.392036 
L 1146.994841 490.985816 
L 1148.980253 491.426345 
L 1149.972959 491.277165 
L 1150.965664 491.737987 
L 1151.95837 491.334168 
L 1152.951076 491.231018 
L 1153.943782 491.506783 
L 1154.936488 491.65336 
L 1155.929194 491.65829 
L 1156.9219 491.435219 
L 1157.914606 491.55586 
L 1158.907312 491.839917 
L 1159.900018 491.370222 
L 1160.892724 491.107264 
L 1161.88543 491.619176 
L 1162.878136 491.725677 
L 1163.870841 491.3967 
L 1164.863547 491.883961 
L 1165.856253 491.698433 
L 1166.848959 491.888063 
L 1167.841665 491.39804 
L 1169.827077 491.548447 
L 1170.819783 491.907328 
L 1171.812489 491.841567 
L 1172.805195 491.355627 
L 1173.797901 491.85346 
L 1174.790607 491.598443 
L 1175.783313 491.9106 
L 1176.776019 491.483471 
L 1177.768724 492.10684 
L 1179.754136 491.630531 
L 1180.746842 491.505147 
L 1181.739548 491.988675 
L 1182.732254 491.396015 
L 1183.72496 491.996672 
L 1184.717666 491.829347 
L 1185.710372 492.151891 
L 1186.703078 491.668542 
L 1187.695784 491.667844 
L 1188.68849 491.516412 
L 1189.681196 491.103608 
L 1190.673901 491.790066 
L 1191.666607 491.461677 
L 1192.659313 491.917495 
L 1194.644725 491.643884 
L 1195.637431 492.194111 
L 1196.630137 492.21062 
L 1197.622843 491.721196 
L 1198.615549 491.896082 
L 1199.608255 491.857365 
L 1200.600961 491.548637 
L 1201.593667 492.008921 
L 1202.586373 492.066835 
L 1203.579078 491.91466 
L 1204.571784 492.032512 
L 1205.56449 492.29028 
L 1206.557196 491.957989 
L 1207.549902 491.896651 
L 1210.52802 491.989513 
L 1211.520726 491.819636 
L 1212.513432 492.362678 
L 1213.506138 492.026017 
L 1214.498844 491.947414 
L 1215.49155 492.363053 
L 1216.484255 491.862231 
L 1217.476961 492.114636 
L 1219.462373 492.071365 
L 1220.455079 491.672383 
L 1221.447785 492.185658 
L 1222.440491 492.30208 
L 1224.425903 491.700345 
L 1225.418609 492.48 
L 1226.411315 491.963355 
L 1227.404021 492.001587 
L 1228.396727 492.233737 
L 1229.389432 491.871092 
L 1230.382138 492.39618 
L 1231.374844 492.235328 
L 1232.36755 492.378391 
L 1234.352962 491.473133 
L 1235.345668 492.045377 
L 1236.338374 491.701581 
L 1237.33108 491.905941 
L 1238.323786 491.933685 
L 1239.316492 491.577255 
L 1240.309198 491.741713 
L 1241.301904 492.079638 
L 1242.29461 491.819118 
L 1243.287315 492.178808 
L 1244.280021 491.978103 
L 1245.272727 492.270898 
L 1245.272727 492.270898 
" clip-path="url(#p016f35d610)" style="fill: none; stroke: #1f77b4; stroke-width: 1.5; stroke-linecap: square"/>
   </g>
   <g id="patch_3">
    <path d="M 180 512.64 
L 180 69.12 
" style="fill: none; stroke: #000000; stroke-width: 0.8; stroke-linejoin: miter; stroke-linecap: square"/>
   </g>
   <g id="patch_4">
    <path d="M 1296 512.64 
L 1296 69.12 
" style="fill: none; stroke: #000000; stroke-width: 0.8; stroke-linejoin: miter; stroke-linecap: square"/>
   </g>
   <g id="patch_5">
    <path d="M 180 512.64 
L 1296 512.64 
" style="fill: none; stroke: #000000; stroke-width: 0.8; stroke-linejoin: miter; stroke-linecap: square"/>
   </g>
   <g id="patch_6">
    <path d="M 180 69.12 
L 1296 69.12 
" style="fill: none; stroke: #000000; stroke-width: 0.8; stroke-linejoin: miter; stroke-linecap: square"/>
   </g>
   <g id="text_15">
    <!-- source24-receiver11 -->
    <g transform="translate(532.175 60.80125) scale(0.4 -0.4)">
     <defs>
      <path id="DejaVuSans-73" d="M 2834 3397 
L 2834 2853 
Q 2591 2978 2328 3040 
Q 2066 3103 1784 3103 
Q 1356 3103 1142 2972 
Q 928 2841 928 2578 
Q 928 2378 1081 2264 
Q 1234 2150 1697 2047 
L 1894 2003 
Q 2506 1872 2764 1633 
Q 3022 1394 3022 966 
Q 3022 478 2636 193 
Q 2250 -91 1575 -91 
Q 1294 -91 989 -36 
Q 684 19 347 128 
L 347 722 
Q 666 556 975 473 
Q 1284 391 1588 391 
Q 1994 391 2212 530 
Q 2431 669 2431 922 
Q 2431 1156 2273 1281 
Q 2116 1406 1581 1522 
L 1381 1569 
Q 847 1681 609 1914 
Q 372 2147 372 2553 
Q 372 3047 722 3315 
Q 1072 3584 1716 3584 
Q 2034 3584 2315 3537 
Q 2597 3491 2834 3397 
z
" transform="scale(0.015625)"/>
      <path id="DejaVuSans-6f" d="M 1959 3097 
Q 1497 3097 1228 2736 
Q 959 2375 959 1747 
Q 959 1119 1226 758 
Q 1494 397 1959 397 
Q 2419 397 2687 759 
Q 2956 1122 2956 1747 
Q 2956 2369 2687 2733 
Q 2419 3097 1959 3097 
z
M 1959 3584 
Q 2709 3584 3137 3096 
Q 3566 2609 3566 1747 
Q 3566 888 3137 398 
Q 2709 -91 1959 -91 
Q 1206 -91 779 398 
Q 353 888 353 1747 
Q 353 2609 779 3096 
Q 1206 3584 1959 3584 
z
" transform="scale(0.015625)"/>
      <path id="DejaVuSans-75" d="M 544 1381 
L 544 3500 
L 1119 3500 
L 1119 1403 
Q 1119 906 1312 657 
Q 1506 409 1894 409 
Q 2359 409 2629 706 
Q 2900 1003 2900 1516 
L 2900 3500 
L 3475 3500 
L 3475 0 
L 2900 0 
L 2900 538 
Q 2691 219 2414 64 
Q 2138 -91 1772 -91 
Q 1169 -91 856 284 
Q 544 659 544 1381 
z
M 1991 3584 
L 1991 3584 
z
" transform="scale(0.015625)"/>
      <path id="DejaVuSans-72" d="M 2631 2963 
Q 2534 3019 2420 3045 
Q 2306 3072 2169 3072 
Q 1681 3072 1420 2755 
Q 1159 2438 1159 1844 
L 1159 0 
L 581 0 
L 581 3500 
L 1159 3500 
L 1159 2956 
Q 1341 3275 1631 3429 
Q 1922 3584 2338 3584 
Q 2397 3584 2469 3576 
Q 2541 3569 2628 3553 
L 2631 2963 
z
" transform="scale(0.015625)"/>
      <path id="DejaVuSans-63" d="M 3122 3366 
L 3122 2828 
Q 2878 2963 2633 3030 
Q 2388 3097 2138 3097 
Q 1578 3097 1268 2742 
Q 959 2388 959 1747 
Q 959 1106 1268 751 
Q 1578 397 2138 397 
Q 2388 397 2633 464 
Q 2878 531 3122 666 
L 3122 134 
Q 2881 22 2623 -34 
Q 2366 -91 2075 -91 
Q 1284 -91 818 406 
Q 353 903 353 1747 
Q 353 2603 823 3093 
Q 1294 3584 2113 3584 
Q 2378 3584 2631 3529 
Q 2884 3475 3122 3366 
z
" transform="scale(0.015625)"/>
      <path id="DejaVuSans-65" d="M 3597 1894 
L 3597 1613 
L 953 1613 
Q 991 1019 1311 708 
Q 1631 397 2203 397 
Q 2534 397 2845 478 
Q 3156 559 3463 722 
L 3463 178 
Q 3153 47 2828 -22 
Q 2503 -91 2169 -91 
Q 1331 -91 842 396 
Q 353 884 353 1716 
Q 353 2575 817 3079 
Q 1281 3584 2069 3584 
Q 2775 3584 3186 3129 
Q 3597 2675 3597 1894 
z
M 3022 2063 
Q 3016 2534 2758 2815 
Q 2500 3097 2075 3097 
Q 1594 3097 1305 2825 
Q 1016 2553 972 2059 
L 3022 2063 
z
" transform="scale(0.015625)"/>
      <path id="DejaVuSans-2d" d="M 313 2009 
L 1997 2009 
L 1997 1497 
L 313 1497 
L 313 2009 
z
" transform="scale(0.015625)"/>
      <path id="DejaVuSans-69" d="M 603 3500 
L 1178 3500 
L 1178 0 
L 603 0 
L 603 3500 
z
M 603 4863 
L 1178 4863 
L 1178 4134 
L 603 4134 
L 603 4863 
z
" transform="scale(0.015625)"/>
      <path id="DejaVuSans-76" d="M 191 3500 
L 800 3500 
L 1894 563 
L 2988 3500 
L 3597 3500 
L 2284 0 
L 1503 0 
L 191 3500 
z
" transform="scale(0.015625)"/>
     </defs>
     <use xlink:href="#DejaVuSans-73"/>
     <use xlink:href="#DejaVuSans-6f" x="52.099609"/>
     <use xlink:href="#DejaVuSans-75" x="113.28125"/>
     <use xlink:href="#DejaVuSans-72" x="176.660156"/>
     <use xlink:href="#DejaVuSans-63" x="215.523438"/>
     <use xlink:href="#DejaVuSans-65" x="270.503906"/>
     <use xlink:href="#DejaVuSans-32" x="332.027344"/>
     <use xlink:href="#DejaVuSans-34" x="395.650391"/>
     <use xlink:href="#DejaVuSans-2d" x="459.273438"/>
     <use xlink:href="#DejaVuSans-72" x="495.357422"/>
     <use xlink:href="#DejaVuSans-65" x="534.220703"/>
     <use xlink:href="#DejaVuSans-63" x="595.744141"/>
     <use xlink:href="#DejaVuSans-65" x="650.724609"/>
     <use xlink:href="#DejaVuSans-69" x="712.248047"/>
     <use xlink:href="#DejaVuSans-76" x="740.03125"/>
     <use xlink:href="#DejaVuSans-65" x="799.210938"/>
     <use xlink:href="#DejaVuSans-72" x="860.734375"/>
     <use xlink:href="#DejaVuSans-31" x="901.847656"/>
     <use xlink:href="#DejaVuSans-31" x="965.470703"/>
    </g>
   </g>
  </g>
 </g>
 <defs>
  <clipPath id="p016f35d610">
   <rect x="180" y="69.12" width="1116" height="443.52"/>
  </clipPath>
 </defs>
</svg>
