<?xml version="1.0" encoding="utf-8" standalone="no"?>
<!DOCTYPE svg PUBLIC "-//W3C//DTD SVG 1.1//EN"
  "http://www.w3.org/Graphics/SVG/1.1/DTD/svg11.dtd">
<svg xmlns:xlink="http://www.w3.org/1999/xlink" width="1440pt" height="576pt" viewBox="0 0 1440 576" xmlns="http://www.w3.org/2000/svg" version="1.1">
 <metadata>
  <rdf:RDF xmlns:dc="http://purl.org/dc/elements/1.1/" xmlns:cc="http://creativecommons.org/ns#" xmlns:rdf="http://www.w3.org/1999/02/22-rdf-syntax-ns#">
   <cc:Work>
    <dc:type rdf:resource="http://purl.org/dc/dcmitype/StillImage"/>
    <dc:date>2024-05-22T04:50:26.329259</dc:date>
    <dc:format>image/svg+xml</dc:format>
    <dc:creator>
     <cc:Agent>
      <dc:title>Matplotlib v3.8.3, https://matplotlib.org/</dc:title>
     </cc:Agent>
    </dc:creator>
   </cc:Work>
  </rdf:RDF>
 </metadata>
 <defs>
  <style type="text/css">*{stroke-linejoin: round; stroke-linecap: butt}</style>
 </defs>
 <g id="figure_1">
  <g id="patch_1">
   <path d="M 0 576 
L 1440 576 
L 1440 0 
L 0 0 
z
" style="fill: #ffffff"/>
  </g>
  <g id="axes_1">
   <g id="patch_2">
    <path d="M 180 512.64 
L 1296 512.64 
L 1296 69.12 
L 180 69.12 
z
" style="fill: #ffffff"/>
   </g>
   <g id="matplotlib.axis_1">
    <g id="xtick_1">
     <g id="line2d_1">
      <defs>
       <path id="m01e9a519f3" d="M 0 0 
L 0 3.5 
" style="stroke: #000000; stroke-width: 0.8"/>
      </defs>
      <g>
       <use xlink:href="#m01e9a519f3" x="229.734567" y="512.64" style="stroke: #000000; stroke-width: 0.8"/>
      </g>
     </g>
     <g id="text_1">
      <!-- 0 -->
      <g transform="translate(226.553317 527.238438) scale(0.1 -0.1)">
       <defs>
        <path id="DejaVuSans-30" d="M 2034 4250 
Q 1547 4250 1301 3770 
Q 1056 3291 1056 2328 
Q 1056 1369 1301 889 
Q 1547 409 2034 409 
Q 2525 409 2770 889 
Q 3016 1369 3016 2328 
Q 3016 3291 2770 3770 
Q 2525 4250 2034 4250 
z
M 2034 4750 
Q 2819 4750 3233 4129 
Q 3647 3509 3647 2328 
Q 3647 1150 3233 529 
Q 2819 -91 2034 -91 
Q 1250 -91 836 529 
Q 422 1150 422 2328 
Q 422 3509 836 4129 
Q 1250 4750 2034 4750 
z
" transform="scale(0.015625)"/>
       </defs>
       <use xlink:href="#DejaVuSans-30"/>
      </g>
     </g>
    </g>
    <g id="xtick_2">
     <g id="line2d_2">
      <g>
       <use xlink:href="#m01e9a519f3" x="433.04074" y="512.64" style="stroke: #000000; stroke-width: 0.8"/>
      </g>
     </g>
     <g id="text_2">
      <!-- 500 -->
      <g transform="translate(423.49699 527.238438) scale(0.1 -0.1)">
       <defs>
        <path id="DejaVuSans-35" d="M 691 4666 
L 3169 4666 
L 3169 4134 
L 1269 4134 
L 1269 2991 
Q 1406 3038 1543 3061 
Q 1681 3084 1819 3084 
Q 2600 3084 3056 2656 
Q 3513 2228 3513 1497 
Q 3513 744 3044 326 
Q 2575 -91 1722 -91 
Q 1428 -91 1123 -41 
Q 819 9 494 109 
L 494 744 
Q 775 591 1075 516 
Q 1375 441 1709 441 
Q 2250 441 2565 725 
Q 2881 1009 2881 1497 
Q 2881 1984 2565 2268 
Q 2250 2553 1709 2553 
Q 1456 2553 1204 2497 
Q 953 2441 691 2322 
L 691 4666 
z
" transform="scale(0.015625)"/>
       </defs>
       <use xlink:href="#DejaVuSans-35"/>
       <use xlink:href="#DejaVuSans-30" x="63.623047"/>
       <use xlink:href="#DejaVuSans-30" x="127.246094"/>
      </g>
     </g>
    </g>
    <g id="xtick_3">
     <g id="line2d_3">
      <g>
       <use xlink:href="#m01e9a519f3" x="636.346913" y="512.64" style="stroke: #000000; stroke-width: 0.8"/>
      </g>
     </g>
     <g id="text_3">
      <!-- 1000 -->
      <g transform="translate(623.621913 527.238438) scale(0.1 -0.1)">
       <defs>
        <path id="DejaVuSans-31" d="M 794 531 
L 1825 531 
L 1825 4091 
L 703 3866 
L 703 4441 
L 1819 4666 
L 2450 4666 
L 2450 531 
L 3481 531 
L 3481 0 
L 794 0 
L 794 531 
z
" transform="scale(0.015625)"/>
       </defs>
       <use xlink:href="#DejaVuSans-31"/>
       <use xlink:href="#DejaVuSans-30" x="63.623047"/>
       <use xlink:href="#DejaVuSans-30" x="127.246094"/>
       <use xlink:href="#DejaVuSans-30" x="190.869141"/>
      </g>
     </g>
    </g>
    <g id="xtick_4">
     <g id="line2d_4">
      <g>
       <use xlink:href="#m01e9a519f3" x="839.653087" y="512.64" style="stroke: #000000; stroke-width: 0.8"/>
      </g>
     </g>
     <g id="text_4">
      <!-- 1500 -->
      <g transform="translate(826.928087 527.238438) scale(0.1 -0.1)">
       <use xlink:href="#DejaVuSans-31"/>
       <use xlink:href="#DejaVuSans-35" x="63.623047"/>
       <use xlink:href="#DejaVuSans-30" x="127.246094"/>
       <use xlink:href="#DejaVuSans-30" x="190.869141"/>
      </g>
     </g>
    </g>
    <g id="xtick_5">
     <g id="line2d_5">
      <g>
       <use xlink:href="#m01e9a519f3" x="1042.95926" y="512.64" style="stroke: #000000; stroke-width: 0.8"/>
      </g>
     </g>
     <g id="text_5">
      <!-- 2000 -->
      <g transform="translate(1030.23426 527.238438) scale(0.1 -0.1)">
       <defs>
        <path id="DejaVuSans-32" d="M 1228 531 
L 3431 531 
L 3431 0 
L 469 0 
L 469 531 
Q 828 903 1448 1529 
Q 2069 2156 2228 2338 
Q 2531 2678 2651 2914 
Q 2772 3150 2772 3378 
Q 2772 3750 2511 3984 
Q 2250 4219 1831 4219 
Q 1534 4219 1204 4116 
Q 875 4013 500 3803 
L 500 4441 
Q 881 4594 1212 4672 
Q 1544 4750 1819 4750 
Q 2544 4750 2975 4387 
Q 3406 4025 3406 3419 
Q 3406 3131 3298 2873 
Q 3191 2616 2906 2266 
Q 2828 2175 2409 1742 
Q 1991 1309 1228 531 
z
" transform="scale(0.015625)"/>
       </defs>
       <use xlink:href="#DejaVuSans-32"/>
       <use xlink:href="#DejaVuSans-30" x="63.623047"/>
       <use xlink:href="#DejaVuSans-30" x="127.246094"/>
       <use xlink:href="#DejaVuSans-30" x="190.869141"/>
      </g>
     </g>
    </g>
    <g id="xtick_6">
     <g id="line2d_6">
      <g>
       <use xlink:href="#m01e9a519f3" x="1246.265433" y="512.64" style="stroke: #000000; stroke-width: 0.8"/>
      </g>
     </g>
     <g id="text_6">
      <!-- 2500 -->
      <g transform="translate(1233.540433 527.238438) scale(0.1 -0.1)">
       <use xlink:href="#DejaVuSans-32"/>
       <use xlink:href="#DejaVuSans-35" x="63.623047"/>
       <use xlink:href="#DejaVuSans-30" x="127.246094"/>
       <use xlink:href="#DejaVuSans-30" x="190.869141"/>
      </g>
     </g>
    </g>
   </g>
   <g id="matplotlib.axis_2">
    <g id="ytick_1">
     <g id="line2d_7">
      <defs>
       <path id="ma845d51179" d="M 0 0 
L -3.5 0 
" style="stroke: #000000; stroke-width: 0.8"/>
      </defs>
      <g>
       <use xlink:href="#ma845d51179" x="180" y="509.201474" style="stroke: #000000; stroke-width: 0.8"/>
      </g>
     </g>
     <g id="text_7">
      <!-- −5 -->
      <g transform="translate(158.257812 513.000693) scale(0.1 -0.1)">
       <defs>
        <path id="DejaVuSans-2212" d="M 678 2272 
L 4684 2272 
L 4684 1741 
L 678 1741 
L 678 2272 
z
" transform="scale(0.015625)"/>
       </defs>
       <use xlink:href="#DejaVuSans-2212"/>
       <use xlink:href="#DejaVuSans-35" x="83.789062"/>
      </g>
     </g>
    </g>
    <g id="ytick_2">
     <g id="line2d_8">
      <g>
       <use xlink:href="#ma845d51179" x="180" y="458.282005" style="stroke: #000000; stroke-width: 0.8"/>
      </g>
     </g>
     <g id="text_8">
      <!-- −4 -->
      <g transform="translate(158.257812 462.081224) scale(0.1 -0.1)">
       <defs>
        <path id="DejaVuSans-34" d="M 2419 4116 
L 825 1625 
L 2419 1625 
L 2419 4116 
z
M 2253 4666 
L 3047 4666 
L 3047 1625 
L 3713 1625 
L 3713 1100 
L 3047 1100 
L 3047 0 
L 2419 0 
L 2419 1100 
L 313 1100 
L 313 1709 
L 2253 4666 
z
" transform="scale(0.015625)"/>
       </defs>
       <use xlink:href="#DejaVuSans-2212"/>
       <use xlink:href="#DejaVuSans-34" x="83.789062"/>
      </g>
     </g>
    </g>
    <g id="ytick_3">
     <g id="line2d_9">
      <g>
       <use xlink:href="#ma845d51179" x="180" y="407.362535" style="stroke: #000000; stroke-width: 0.8"/>
      </g>
     </g>
     <g id="text_9">
      <!-- −3 -->
      <g transform="translate(158.257812 411.161754) scale(0.1 -0.1)">
       <defs>
        <path id="DejaVuSans-33" d="M 2597 2516 
Q 3050 2419 3304 2112 
Q 3559 1806 3559 1356 
Q 3559 666 3084 287 
Q 2609 -91 1734 -91 
Q 1441 -91 1130 -33 
Q 819 25 488 141 
L 488 750 
Q 750 597 1062 519 
Q 1375 441 1716 441 
Q 2309 441 2620 675 
Q 2931 909 2931 1356 
Q 2931 1769 2642 2001 
Q 2353 2234 1838 2234 
L 1294 2234 
L 1294 2753 
L 1863 2753 
Q 2328 2753 2575 2939 
Q 2822 3125 2822 3475 
Q 2822 3834 2567 4026 
Q 2313 4219 1838 4219 
Q 1578 4219 1281 4162 
Q 984 4106 628 3988 
L 628 4550 
Q 988 4650 1302 4700 
Q 1616 4750 1894 4750 
Q 2613 4750 3031 4423 
Q 3450 4097 3450 3541 
Q 3450 3153 3228 2886 
Q 3006 2619 2597 2516 
z
" transform="scale(0.015625)"/>
       </defs>
       <use xlink:href="#DejaVuSans-2212"/>
       <use xlink:href="#DejaVuSans-33" x="83.789062"/>
      </g>
     </g>
    </g>
    <g id="ytick_4">
     <g id="line2d_10">
      <g>
       <use xlink:href="#ma845d51179" x="180" y="356.443066" style="stroke: #000000; stroke-width: 0.8"/>
      </g>
     </g>
     <g id="text_10">
      <!-- −2 -->
      <g transform="translate(158.257812 360.242285) scale(0.1 -0.1)">
       <use xlink:href="#DejaVuSans-2212"/>
       <use xlink:href="#DejaVuSans-32" x="83.789062"/>
      </g>
     </g>
    </g>
    <g id="ytick_5">
     <g id="line2d_11">
      <g>
       <use xlink:href="#ma845d51179" x="180" y="305.523596" style="stroke: #000000; stroke-width: 0.8"/>
      </g>
     </g>
     <g id="text_11">
      <!-- −1 -->
      <g transform="translate(158.257812 309.322815) scale(0.1 -0.1)">
       <use xlink:href="#DejaVuSans-2212"/>
       <use xlink:href="#DejaVuSans-31" x="83.789062"/>
      </g>
     </g>
    </g>
    <g id="ytick_6">
     <g id="line2d_12">
      <g>
       <use xlink:href="#ma845d51179" x="180" y="254.604127" style="stroke: #000000; stroke-width: 0.8"/>
      </g>
     </g>
     <g id="text_12">
      <!-- 0 -->
      <g transform="translate(166.6375 258.403346) scale(0.1 -0.1)">
       <use xlink:href="#DejaVuSans-30"/>
      </g>
     </g>
    </g>
    <g id="ytick_7">
     <g id="line2d_13">
      <g>
       <use xlink:href="#ma845d51179" x="180" y="203.684657" style="stroke: #000000; stroke-width: 0.8"/>
      </g>
     </g>
     <g id="text_13">
      <!-- 1 -->
      <g transform="translate(166.6375 207.483876) scale(0.1 -0.1)">
       <use xlink:href="#DejaVuSans-31"/>
      </g>
     </g>
    </g>
    <g id="ytick_8">
     <g id="line2d_14">
      <g>
       <use xlink:href="#ma845d51179" x="180" y="152.765188" style="stroke: #000000; stroke-width: 0.8"/>
      </g>
     </g>
     <g id="text_14">
      <!-- 2 -->
      <g transform="translate(166.6375 156.564407) scale(0.1 -0.1)">
       <use xlink:href="#DejaVuSans-32"/>
      </g>
     </g>
    </g>
    <g id="ytick_9">
     <g id="line2d_15">
      <g>
       <use xlink:href="#ma845d51179" x="180" y="101.845718" style="stroke: #000000; stroke-width: 0.8"/>
      </g>
     </g>
     <g id="text_15">
      <!-- 3 -->
      <g transform="translate(166.6375 105.644937) scale(0.1 -0.1)">
       <use xlink:href="#DejaVuSans-33"/>
      </g>
     </g>
    </g>
   </g>
   <g id="line2d_16">
    <path d="M 230.727273 492.48 
L 231.719979 468.874621 
L 232.712685 473.369539 
L 233.70539 454.698363 
L 234.698096 447.021646 
L 235.690802 438.376864 
L 236.683508 425.82992 
L 237.676214 425.793062 
L 239.661626 409.835787 
L 240.654332 404.386652 
L 241.647038 397.723214 
L 243.63245 382.372116 
L 244.625156 372.846096 
L 245.617862 365.293284 
L 246.610568 380.00635 
L 247.603273 416.212075 
L 248.595979 324.167945 
L 249.588685 278.172551 
L 250.581391 254.360056 
L 251.574097 246.246815 
L 252.566803 248.947933 
L 253.559509 258.26877 
L 254.552215 258.833746 
L 255.544921 236.638097 
L 256.537627 240.707484 
L 257.530333 252.904585 
L 259.515745 207.004849 
L 260.50845 208.159782 
L 261.501156 242.663766 
L 262.493862 218.933468 
L 263.486568 189.313308 
L 264.479274 186.731803 
L 265.47198 198.195233 
L 267.457392 153.367492 
L 268.450098 148.023845 
L 269.442804 162.041092 
L 270.43551 204.35434 
L 271.428216 226.057961 
L 272.420922 204.150246 
L 273.413627 248.633546 
L 275.399039 145.576318 
L 276.391745 119.339967 
L 277.384451 102.402354 
L 278.377157 92.410252 
L 279.369863 89.28 
L 280.362569 93.856309 
L 281.355275 106.713896 
L 282.347981 122.597022 
L 283.340687 119.326589 
L 284.333393 106.21594 
L 285.326099 101.181589 
L 286.318804 106.999071 
L 287.31151 122.566746 
L 289.296922 167.2722 
L 290.289628 188.983725 
L 291.282334 228.892991 
L 292.27504 230.879724 
L 293.267746 215.004422 
L 295.253158 276.419921 
L 296.245864 225.837843 
L 297.23857 225.811388 
L 298.231276 277.836221 
L 299.223981 276.321343 
L 300.216687 249.940748 
L 301.209393 271.778363 
L 302.202099 329.340393 
L 303.194805 267.402419 
L 304.187511 266.734667 
L 305.180217 297.300491 
L 306.172923 303.501542 
L 307.165629 293.990268 
L 308.158335 302.810431 
L 309.151041 314.643565 
L 310.143747 304.436392 
L 311.136453 299.968516 
L 312.129159 305.557683 
L 313.121864 303.51484 
L 314.11457 303.000864 
L 315.107276 311.005516 
L 316.099982 314.347836 
L 317.092688 314.029461 
L 318.085394 305.759025 
L 319.0781 314.139207 
L 320.070806 318.526508 
L 321.063512 321.192723 
L 322.056218 311.058279 
L 323.048924 327.882986 
L 324.04163 328.723498 
L 325.034336 324.104487 
L 326.027041 332.017069 
L 327.019747 329.093395 
L 328.012453 324.491741 
L 329.005159 328.579581 
L 329.997865 327.812881 
L 330.990571 319.051512 
L 331.983277 320.428027 
L 332.975983 328.70647 
L 333.968689 335.701602 
L 334.961395 349.022399 
L 335.954101 337.984631 
L 336.946807 324.874759 
L 338.932218 343.11668 
L 339.924924 335.828894 
L 340.91763 337.487386 
L 341.910336 336.35947 
L 342.903042 343.990142 
L 343.895748 345.925046 
L 344.888454 342.002191 
L 345.88116 342.610531 
L 346.873866 342.875527 
L 347.866572 343.793179 
L 348.859278 354.418709 
L 349.851984 335.706523 
L 350.84469 341.584585 
L 351.837395 369.108655 
L 352.830101 334.743433 
L 353.822807 343.360809 
L 354.815513 363.291565 
L 355.808219 367.039861 
L 356.800925 354.005395 
L 357.793631 353.068053 
L 358.786337 342.878654 
L 359.779043 359.024462 
L 360.771749 367.462826 
L 361.764455 353.095596 
L 362.757161 342.324546 
L 363.749867 344.219771 
L 364.742572 347.339196 
L 365.735278 361.925211 
L 366.727984 362.933737 
L 367.72069 354.493237 
L 368.713396 355.004767 
L 369.706102 352.853 
L 370.698808 355.143608 
L 371.691514 354.49623 
L 372.68422 360.968679 
L 373.676926 355.910001 
L 374.669632 357.085243 
L 375.662338 360.786781 
L 376.655044 358.020573 
L 377.64775 364.705305 
L 378.640455 352.707418 
L 379.633161 346.595049 
L 380.625867 353.559258 
L 381.618573 368.235869 
L 382.611279 348.027723 
L 383.603985 372.418043 
L 384.596691 358.332352 
L 385.589397 368.640226 
L 386.582103 368.026632 
L 387.574809 355.316388 
L 388.567515 351.314232 
L 389.560221 356.688939 
L 390.552927 358.667552 
L 391.545632 389.091333 
L 392.538338 366.047294 
L 393.531044 368.986906 
L 394.52375 353.302142 
L 395.516456 366.952346 
L 396.509162 374.673469 
L 397.501868 383.327006 
L 398.494574 366.779134 
L 399.48728 371.65023 
L 400.479986 371.35468 
L 401.472692 364.592737 
L 402.465398 373.350565 
L 403.458104 362.454166 
L 404.450809 373.200913 
L 405.443515 395.23875 
L 406.436221 352.151614 
L 407.428927 356.848546 
L 408.421633 381.648475 
L 409.414339 358.892203 
L 410.407045 366.239294 
L 411.399751 372.609391 
L 412.392457 363.367445 
L 413.385163 380.191834 
L 414.377869 374.497197 
L 415.370575 370.79044 
L 416.363281 381.481422 
L 417.355986 363.27339 
L 418.348692 368.142394 
L 419.341398 353.03208 
L 420.334104 379.20315 
L 421.32681 369.8151 
L 422.319516 379.971533 
L 423.312222 370.345127 
L 424.304928 373.543602 
L 425.297634 382.242072 
L 426.29034 402.731325 
L 427.283046 389.784186 
L 428.275752 386.421351 
L 429.268458 366.708202 
L 430.261163 375.763652 
L 431.253869 372.306194 
L 432.246575 416.382069 
L 433.239281 389.225827 
L 434.231987 375.140183 
L 435.224693 366.504784 
L 436.217399 396.233156 
L 437.210105 393.604544 
L 438.202811 372.24931 
L 439.195517 383.513944 
L 440.188223 374.708238 
L 441.180929 397.476272 
L 442.173635 377.19318 
L 443.166341 394.279767 
L 444.159046 365.347372 
L 446.144458 389.656732 
L 447.137164 382.20033 
L 448.12987 401.141707 
L 449.122576 389.551937 
L 450.115282 429.071034 
L 451.107988 375.994965 
L 452.100694 401.396013 
L 453.0934 390.62048 
L 454.086106 377.150089 
L 455.078812 444.978778 
L 456.071518 378.25917 
L 457.064223 365.591098 
L 458.056929 360.922322 
L 459.049635 374.211476 
L 460.042341 377.438009 
L 462.027753 401.95033 
L 463.020459 373.220623 
L 464.013165 385.307468 
L 465.005871 378.548815 
L 465.998577 401.398705 
L 466.991283 403.102062 
L 467.983989 419.615729 
L 468.976695 378.730685 
L 469.9694 391.715646 
L 470.962106 390.213891 
L 471.954812 393.52349 
L 472.947518 376.823817 
L 473.940224 378.778578 
L 474.93293 383.93568 
L 475.925636 371.381528 
L 476.918342 400.335824 
L 477.911048 409.454472 
L 478.903754 369.969858 
L 479.89646 384.928452 
L 480.889166 380.553813 
L 481.881872 374.498474 
L 482.874577 387.109379 
L 483.867283 401.416679 
L 484.859989 390.534668 
L 485.852695 386.214382 
L 486.845401 380.971119 
L 487.838107 376.820904 
L 488.830813 365.412683 
L 489.823519 377.542192 
L 490.816225 380.003499 
L 491.808931 367.144492 
L 492.801637 391.114156 
L 493.794343 406.278094 
L 494.787049 400.787148 
L 495.779754 414.866296 
L 496.77246 380.655209 
L 497.765166 434.497464 
L 498.757872 386.975952 
L 499.750578 401.835639 
L 500.743284 385.90228 
L 501.73599 409.995657 
L 502.728696 375.101166 
L 503.721402 392.145879 
L 504.714108 386.893154 
L 505.706814 412.250784 
L 506.69952 375.453878 
L 507.692226 424.962837 
L 508.684932 403.4796 
L 509.677637 417.76108 
L 510.670343 394.113748 
L 511.663049 367.732478 
L 512.655755 360.456507 
L 513.648461 411.833855 
L 514.641167 428.216263 
L 515.633873 396.244581 
L 516.626579 408.324188 
L 517.619285 388.546185 
L 518.611991 389.155886 
L 519.604697 389.243089 
L 520.597403 407.137882 
L 521.590109 383.975307 
L 522.582814 381.588578 
L 523.57552 405.72202 
L 524.568226 426.971604 
L 525.560932 426.723293 
L 527.546344 388.199417 
L 528.53905 384.668326 
L 529.531756 373.541253 
L 530.524462 390.742542 
L 531.517168 423.457099 
L 532.509874 391.513958 
L 533.50258 384.010184 
L 534.495286 388.003339 
L 535.487991 418.316934 
L 536.480697 394.783745 
L 537.473403 444.359995 
L 538.466109 392.87326 
L 539.458815 401.835319 
L 540.451521 460.311633 
L 541.444227 399.6417 
L 542.436933 396.474883 
L 543.429639 414.5461 
L 544.422345 389.276005 
L 545.415051 386.441053 
L 546.407757 388.916542 
L 547.400463 416.448836 
L 548.393168 397.007402 
L 549.385874 429.836315 
L 550.37858 384.289997 
L 551.371286 393.008916 
L 552.363992 481.283962 
L 553.356698 385.387039 
L 554.349404 410.214366 
L 555.34211 404.025161 
L 556.334816 418.985711 
L 557.327522 402.578056 
L 558.320228 427.371999 
L 559.312934 398.141919 
L 560.30564 401.977603 
L 561.298345 418.493513 
L 562.291051 407.771654 
L 563.283757 475.465945 
L 564.276463 387.012362 
L 565.269169 406.685122 
L 566.261875 405.192097 
L 567.254581 378.268809 
L 568.247287 388.18978 
L 569.239993 386.077544 
L 570.232699 410.594176 
L 571.225405 413.669359 
L 572.218111 386.225918 
L 573.210817 374.691778 
L 575.196228 419.458212 
L 576.188934 397.542109 
L 577.18164 386.232146 
L 578.174346 386.566172 
L 579.167052 405.336463 
L 580.159758 440.474445 
L 581.152464 404.092538 
L 582.14517 395.060662 
L 583.137876 434.912077 
L 584.130582 409.596302 
L 585.123288 391.861456 
L 586.115994 405.410795 
L 587.1087 389.729578 
L 588.101405 419.701095 
L 589.094111 408.004447 
L 590.086817 438.579307 
L 591.079523 433.069365 
L 592.072229 422.276665 
L 593.064935 389.471579 
L 594.057641 397.284354 
L 595.050347 430.18625 
L 596.043053 418.266386 
L 597.035759 441.012214 
L 598.028465 396.738796 
L 599.021171 431.173499 
L 600.013877 408.276358 
L 601.006582 430.736217 
L 601.999288 405.065815 
L 602.991994 384.428801 
L 603.9847 400.483306 
L 605.970112 419.287361 
L 606.962818 417.97293 
L 607.955524 382.463442 
L 608.94823 427.072726 
L 609.940936 403.835189 
L 610.933642 394.898564 
L 611.926348 415.937571 
L 612.919054 416.197633 
L 613.911759 405.178012 
L 614.904465 416.384898 
L 615.897171 405.028233 
L 616.889877 406.41264 
L 617.882583 418.08157 
L 618.875289 414.516 
L 619.867995 422.421538 
L 620.860701 419.181682 
L 621.853407 424.771736 
L 622.846113 417.58542 
L 623.838819 396.729305 
L 624.831525 418.785218 
L 625.824231 411.003049 
L 626.816936 407.453353 
L 627.809642 417.383709 
L 628.802348 421.706131 
L 629.795054 437.434397 
L 630.78776 417.13533 
L 631.780466 405.052048 
L 632.773172 423.126142 
L 633.765878 407.885818 
L 634.758584 409.254985 
L 635.75129 425.364369 
L 636.743996 418.938479 
L 637.736702 407.458356 
L 638.729408 410.489112 
L 639.722114 409.01416 
L 640.714819 419.866243 
L 641.707525 410.475851 
L 642.700231 406.563223 
L 643.692937 407.059535 
L 644.685643 407.942283 
L 645.678349 426.969405 
L 646.671055 432.720069 
L 647.663761 417.838962 
L 648.656467 427.139291 
L 649.649173 415.852272 
L 650.641879 414.834035 
L 651.634585 412.290125 
L 652.627291 417.90369 
L 653.619996 410.365524 
L 654.612702 415.723417 
L 655.605408 415.430874 
L 656.598114 409.794605 
L 657.59082 415.006492 
L 658.583526 408.498245 
L 659.576232 410.361512 
L 660.568938 421.912226 
L 661.561644 420.532924 
L 662.55435 413.644635 
L 663.547056 419.439727 
L 664.539762 418.52462 
L 665.532468 416.418515 
L 667.517879 416.150034 
L 668.510585 413.696571 
L 669.503291 422.681887 
L 670.495997 416.206465 
L 671.488703 417.450476 
L 672.481409 417.103615 
L 673.474115 422.009833 
L 674.466821 422.838229 
L 675.459527 416.686418 
L 676.452233 415.227854 
L 677.444939 419.183493 
L 678.437645 422.65446 
L 679.43035 428.586914 
L 680.423056 423.62114 
L 681.415762 420.002236 
L 682.408468 417.753632 
L 683.401174 422.137352 
L 684.39388 422.123382 
L 685.386586 418.327112 
L 686.379292 417.707978 
L 687.371998 422.666906 
L 688.364704 420.781841 
L 689.35741 426.946405 
L 690.350116 420.921018 
L 691.342822 423.41735 
L 692.335527 421.869935 
L 693.328233 424.82697 
L 694.320939 420.667067 
L 695.313645 423.196573 
L 696.306351 423.753113 
L 697.299057 423.587952 
L 698.291763 419.064963 
L 700.277175 421.497471 
L 701.269881 424.510875 
L 702.262587 420.00705 
L 703.255293 424.054815 
L 704.247999 423.442105 
L 705.240705 421.965272 
L 706.23341 426.642255 
L 707.226116 425.159164 
L 708.218822 422.84807 
L 709.211528 422.008509 
L 710.204234 422.623084 
L 711.19694 423.916902 
L 712.189646 423.463248 
L 713.182352 422.739352 
L 714.175058 423.374083 
L 715.167764 425.395715 
L 716.16047 421.293224 
L 717.153176 421.514824 
L 718.145882 420.840835 
L 719.138587 424.970027 
L 720.131293 419.628037 
L 721.123999 427.009878 
L 722.116705 423.347579 
L 723.109411 423.444208 
L 724.102117 424.582069 
L 725.094823 424.642038 
L 726.087529 425.583413 
L 727.080235 424.238042 
L 728.072941 423.622908 
L 729.065647 422.700708 
L 730.058353 425.143869 
L 731.051059 424.353144 
L 732.043764 427.552921 
L 733.03647 424.88326 
L 734.029176 422.780128 
L 735.021882 423.862444 
L 736.014588 424.608063 
L 737.007294 422.596361 
L 738 427.079103 
L 738.992706 426.364407 
L 739.985412 427.011426 
L 740.978118 424.60373 
L 741.970824 426.953005 
L 742.96353 424.351789 
L 743.956236 427.539755 
L 744.948941 424.774695 
L 745.941647 423.205464 
L 746.934353 426.364181 
L 747.927059 426.890252 
L 748.919765 424.331931 
L 749.912471 426.979246 
L 750.905177 426.531814 
L 751.897883 427.100801 
L 752.890589 424.518079 
L 753.883295 426.783821 
L 754.876001 428.139438 
L 755.868707 425.725669 
L 756.861413 428.94036 
L 757.854118 427.414803 
L 758.846824 426.893152 
L 760.832236 426.935671 
L 761.824942 429.237852 
L 762.817648 425.400545 
L 763.810354 429.165374 
L 764.80306 428.009431 
L 765.795766 427.889605 
L 766.788472 427.636419 
L 767.781178 425.642212 
L 768.773884 426.864054 
L 769.76659 431.100144 
L 770.759295 428.029096 
L 771.752001 428.529335 
L 772.744707 429.752788 
L 773.737413 427.221753 
L 774.730119 426.978101 
L 775.722825 426.95065 
L 776.715531 427.257941 
L 777.708237 429.942026 
L 778.700943 429.715785 
L 779.693649 427.713969 
L 780.686355 428.068793 
L 781.679061 427.707005 
L 782.671767 431.188808 
L 783.664473 429.275422 
L 784.657178 428.052759 
L 785.649884 427.3255 
L 787.635296 429.775927 
L 788.628002 432.768024 
L 789.620708 431.619944 
L 790.613414 429.385122 
L 791.60612 426.662784 
L 792.598826 429.68747 
L 793.591532 430.670643 
L 794.584238 428.187358 
L 795.576944 429.234717 
L 796.56965 427.160942 
L 797.562355 430.562814 
L 798.555061 429.958852 
L 799.547767 432.939209 
L 800.540473 431.601562 
L 801.533179 429.660468 
L 802.525885 430.869965 
L 803.518591 430.877715 
L 804.511297 429.156584 
L 805.504003 432.50465 
L 806.496709 429.498472 
L 808.482121 433.687809 
L 809.474827 432.474641 
L 810.467532 429.502686 
L 811.460238 432.126229 
L 812.452944 431.603674 
L 813.44565 431.710377 
L 814.438356 431.372999 
L 816.423768 427.716237 
L 817.416474 430.143945 
L 818.40918 429.371527 
L 819.401886 430.370597 
L 820.394592 430.302888 
L 821.387298 430.547011 
L 822.380004 431.255689 
L 823.372709 435.133935 
L 824.365415 430.373422 
L 825.358121 431.149924 
L 826.350827 431.620872 
L 827.343533 435.802636 
L 828.336239 430.788047 
L 829.328945 433.788406 
L 830.321651 432.869819 
L 831.314357 433.59313 
L 832.307063 433.236709 
L 833.299769 431.548315 
L 834.292475 429.265528 
L 835.285181 434.51541 
L 836.277886 434.181654 
L 837.270592 432.701061 
L 838.263298 430.102984 
L 839.256004 432.242923 
L 840.24871 432.979839 
L 841.241416 432.711036 
L 842.234122 430.745547 
L 843.226828 431.523729 
L 844.219534 431.55441 
L 845.21224 432.432522 
L 846.204946 431.419657 
L 847.197652 433.02609 
L 848.190358 432.051799 
L 849.183064 431.358976 
L 850.175769 433.336829 
L 851.168475 432.756543 
L 852.161181 433.542764 
L 853.153887 432.036178 
L 854.146593 435.239392 
L 855.139299 431.748404 
L 856.132005 431.362917 
L 857.124711 435.199951 
L 858.117417 435.14377 
L 859.110123 431.716402 
L 860.102829 430.863164 
L 861.095535 435.004629 
L 862.088241 432.129219 
L 863.080946 436.133253 
L 864.073652 433.751556 
L 865.066358 436.317535 
L 866.059064 434.412029 
L 867.05177 435.822961 
L 868.044476 436.596803 
L 869.037182 436.791892 
L 870.029888 432.553234 
L 871.022594 432.275509 
L 872.0153 434.93418 
L 873.008006 431.793313 
L 874.993418 435.270208 
L 875.986123 435.586429 
L 876.978829 434.924947 
L 877.971535 436.668378 
L 878.964241 432.851 
L 879.956947 438.409185 
L 880.949653 435.662794 
L 881.942359 436.700892 
L 882.935065 434.643347 
L 883.927771 434.253654 
L 884.920477 432.465549 
L 885.913183 433.718719 
L 886.905889 437.227968 
L 887.898595 434.200805 
L 888.8913 434.888847 
L 889.884006 432.819594 
L 891.869418 438.712141 
L 892.862124 436.847466 
L 893.85483 434.457823 
L 894.847536 436.862981 
L 895.840242 434.92075 
L 896.832948 433.471889 
L 897.825654 437.073006 
L 898.81836 436.136541 
L 899.811066 432.17165 
L 900.803772 436.687377 
L 901.796477 433.866118 
L 902.789183 437.255823 
L 903.781889 434.785357 
L 905.767301 435.439574 
L 906.760007 436.401854 
L 907.752713 435.857907 
L 908.745419 436.396309 
L 909.738125 436.058487 
L 910.730831 437.329745 
L 911.723537 437.096377 
L 912.716243 436.648482 
L 913.708949 433.557996 
L 914.701655 437.193634 
L 915.69436 438.320135 
L 916.687066 438.01141 
L 917.679772 435.194834 
L 918.672478 437.362602 
L 919.665184 434.930648 
L 920.65789 434.309254 
L 921.650596 435.500912 
L 922.643302 436.049834 
L 923.636008 435.122609 
L 924.628714 434.766725 
L 925.62142 437.342907 
L 926.614126 435.58354 
L 927.606832 436.674355 
L 928.599537 435.799823 
L 929.592243 436.076112 
L 930.584949 437.265337 
L 931.577655 434.764548 
L 932.570361 435.461177 
L 933.563067 437.828868 
L 934.555773 438.108187 
L 935.548479 433.813263 
L 936.541185 438.544568 
L 937.533891 436.282026 
L 938.526597 436.968955 
L 939.519303 438.607628 
L 940.512009 439.746487 
L 941.504714 435.73226 
L 942.49742 441.419666 
L 943.490126 438.426632 
L 944.482832 437.091394 
L 945.475538 438.797102 
L 946.468244 437.774499 
L 947.46095 437.342972 
L 948.453656 437.38249 
L 949.446362 436.587608 
L 950.439068 438.772209 
L 951.431774 440.480012 
L 952.42448 439.345048 
L 953.417186 439.87199 
L 955.402597 440.565278 
L 956.395303 438.685933 
L 957.388009 437.840018 
L 958.380715 436.517467 
L 959.373421 440.031799 
L 960.366127 438.595895 
L 961.358833 441.327784 
L 962.351539 439.681919 
L 963.344245 437.023462 
L 964.336951 441.448398 
L 965.329657 437.315576 
L 966.322363 439.125809 
L 967.315068 438.521863 
L 968.307774 438.629119 
L 969.30048 437.949665 
L 970.293186 435.034536 
L 971.285892 439.440415 
L 972.278598 440.644913 
L 973.271304 438.02143 
L 974.26401 440.653264 
L 975.256716 439.236556 
L 976.249422 439.132094 
L 977.242128 439.586244 
L 978.234834 438.75403 
L 979.22754 435.388113 
L 980.220246 438.604761 
L 981.212951 436.51579 
L 982.205657 439.081177 
L 983.198363 436.740534 
L 984.191069 440.725673 
L 985.183775 439.834107 
L 987.169187 437.55797 
L 988.161893 439.424802 
L 989.154599 437.257449 
L 990.147305 440.448668 
L 991.140011 438.502435 
L 993.125423 438.945425 
L 995.110834 440.390795 
L 996.10354 437.401074 
L 997.096246 439.206555 
L 998.088952 440.288792 
L 999.081658 441.048543 
L 1000.074364 440.792853 
L 1001.06707 439.429438 
L 1002.059776 441.14219 
L 1004.045188 439.264494 
L 1005.037894 442.383079 
L 1006.0306 440.396573 
L 1007.023305 441.64289 
L 1008.016011 440.640645 
L 1009.008717 441.139207 
L 1010.001423 443.22314 
L 1010.994129 439.667926 
L 1011.986835 442.595714 
L 1012.979541 440.273002 
L 1013.972247 439.5176 
L 1014.964953 436.766725 
L 1015.957659 438.60467 
L 1017.943071 441.611927 
L 1019.928482 439.80182 
L 1020.921188 442.592042 
L 1021.913894 441.091047 
L 1022.9066 441.48376 
L 1023.899306 438.762548 
L 1024.892012 438.934751 
L 1025.884718 439.227642 
L 1026.877424 438.36088 
L 1027.87013 441.021961 
L 1028.862836 443.178367 
L 1029.855542 439.660917 
L 1030.848248 440.38682 
L 1031.840954 440.091481 
L 1032.833659 440.666545 
L 1033.826365 440.589626 
L 1034.819071 442.778736 
L 1035.811777 441.177285 
L 1036.804483 441.824203 
L 1037.797189 442.291179 
L 1038.789895 440.760012 
L 1039.782601 440.952559 
L 1040.775307 440.98648 
L 1041.768013 440.313083 
L 1042.760719 441.26318 
L 1043.753425 440.873307 
L 1044.746131 442.129305 
L 1045.738837 440.692133 
L 1046.731542 445.695475 
L 1047.724248 441.137806 
L 1048.716954 439.197277 
L 1049.70966 441.898764 
L 1050.702366 441.003952 
L 1052.687778 442.950133 
L 1053.680484 442.572197 
L 1054.67319 442.349624 
L 1055.665896 438.505373 
L 1056.658602 441.020288 
L 1057.651308 438.938158 
L 1058.644014 440.89851 
L 1059.636719 440.333988 
L 1060.629425 443.291005 
L 1061.622131 441.105033 
L 1062.614837 441.415534 
L 1063.607543 442.805646 
L 1064.600249 443.84252 
L 1065.592955 440.755613 
L 1066.585661 440.343484 
L 1067.578367 444.153623 
L 1068.571073 444.561805 
L 1069.563779 442.240372 
L 1070.556485 441.086642 
L 1071.549191 445.965305 
L 1072.541896 442.072319 
L 1073.534602 441.889072 
L 1074.527308 441.876627 
L 1075.520014 443.19756 
L 1076.51272 440.786646 
L 1077.505426 440.479448 
L 1078.498132 444.280334 
L 1079.490838 443.011595 
L 1080.483544 442.407638 
L 1081.47625 442.965488 
L 1082.468956 447.517043 
L 1083.461662 442.832562 
L 1084.454368 440.568083 
L 1085.447073 442.321508 
L 1086.439779 442.053627 
L 1087.432485 441.612539 
L 1088.425191 442.218175 
L 1089.417897 437.90936 
L 1090.410603 442.702481 
L 1091.403309 440.265282 
L 1092.396015 444.055591 
L 1093.388721 441.909514 
L 1094.381427 442.035837 
L 1095.374133 443.859729 
L 1096.366839 444.745761 
L 1097.359545 442.802163 
L 1098.35225 442.511736 
L 1099.344956 441.464025 
L 1100.337662 442.806934 
L 1101.330368 440.313202 
L 1102.323074 440.470848 
L 1104.308486 442.246513 
L 1105.301192 440.382558 
L 1106.293898 443.341057 
L 1107.286604 444.880378 
L 1108.27931 445.583013 
L 1109.272016 443.476891 
L 1110.264722 444.251079 
L 1111.257428 439.767387 
L 1112.250133 440.291555 
L 1113.242839 442.309257 
L 1114.235545 439.761985 
L 1115.228251 444.73596 
L 1116.220957 442.984084 
L 1117.213663 440.643205 
L 1118.206369 443.168152 
L 1119.199075 442.977782 
L 1120.191781 443.014507 
L 1121.184487 439.982548 
L 1122.177193 441.087691 
L 1123.169899 441.020002 
L 1124.162605 440.393822 
L 1125.15531 441.364038 
L 1126.148016 441.036433 
L 1127.140722 443.587574 
L 1128.133428 442.190379 
L 1129.126134 441.832846 
L 1130.11884 442.960652 
L 1131.111546 444.481383 
L 1132.104252 443.611543 
L 1134.089664 442.776861 
L 1135.08237 443.245401 
L 1136.075076 447.10563 
L 1137.067782 442.742134 
L 1138.060487 442.755222 
L 1139.053193 441.63902 
L 1140.045899 445.375391 
L 1141.038605 444.738093 
L 1142.031311 444.787145 
L 1143.024017 445.152932 
L 1144.016723 445.756171 
L 1145.009429 443.650612 
L 1146.002135 440.639758 
L 1146.994841 443.189143 
L 1147.987547 442.734032 
L 1148.980253 442.747426 
L 1149.972959 442.363867 
L 1150.965664 442.362083 
L 1151.95837 442.119757 
L 1152.951076 441.182495 
L 1153.943782 443.920986 
L 1154.936488 440.668995 
L 1155.929194 441.490435 
L 1156.9219 442.522745 
L 1157.914606 444.584371 
L 1158.907312 440.894807 
L 1159.900018 441.87898 
L 1160.892724 442.279366 
L 1161.88543 439.392837 
L 1162.878136 444.200561 
L 1163.870841 444.960545 
L 1164.863547 443.97027 
L 1165.856253 442.445951 
L 1166.848959 443.371832 
L 1167.841665 446.408239 
L 1168.834371 441.622196 
L 1169.827077 440.503312 
L 1170.819783 444.717564 
L 1171.812489 444.566029 
L 1172.805195 441.55356 
L 1173.797901 442.522527 
L 1174.790607 439.212006 
L 1175.783313 440.048778 
L 1176.776019 441.84329 
L 1177.768724 441.744659 
L 1178.76143 445.679421 
L 1179.754136 443.401716 
L 1180.746842 443.295322 
L 1181.739548 442.940524 
L 1182.732254 441.184159 
L 1183.72496 444.937208 
L 1184.717666 444.684244 
L 1185.710372 441.391161 
L 1186.703078 440.175639 
L 1187.695784 442.005881 
L 1188.68849 443.316664 
L 1189.681196 443.697693 
L 1190.673901 445.371177 
L 1191.666607 446.556114 
L 1192.659313 441.808146 
L 1193.652019 444.431848 
L 1194.644725 444.145607 
L 1195.637431 441.709062 
L 1196.630137 444.49709 
L 1197.622843 445.187624 
L 1198.615549 444.30026 
L 1199.608255 441.481407 
L 1201.593667 445.098431 
L 1202.586373 440.360671 
L 1203.579078 444.840123 
L 1204.571784 442.931763 
L 1205.56449 442.820032 
L 1206.557196 446.81149 
L 1207.549902 443.928574 
L 1208.542608 445.886214 
L 1209.535314 441.36288 
L 1210.52802 444.560827 
L 1211.520726 443.678407 
L 1212.513432 441.772426 
L 1213.506138 442.951601 
L 1214.498844 445.3605 
L 1215.49155 444.637316 
L 1216.484255 438.795807 
L 1217.476961 444.851807 
L 1218.469667 443.124049 
L 1219.462373 442.06398 
L 1220.455079 442.387899 
L 1221.447785 440.350582 
L 1222.440491 443.961966 
L 1223.433197 445.32522 
L 1224.425903 444.409716 
L 1226.411315 443.655054 
L 1227.404021 447.036179 
L 1228.396727 442.69334 
L 1229.389432 446.48944 
L 1230.382138 443.135099 
L 1231.374844 442.137769 
L 1232.36755 442.707093 
L 1233.360256 442.780018 
L 1234.352962 441.59818 
L 1235.345668 442.660895 
L 1236.338374 441.914722 
L 1237.33108 443.566344 
L 1238.323786 441.962976 
L 1239.316492 445.088937 
L 1240.309198 442.388745 
L 1241.301904 443.0042 
L 1242.29461 442.383561 
L 1243.287315 444.653702 
L 1244.280021 439.423592 
L 1245.272727 444.377967 
L 1245.272727 444.377967 
" clip-path="url(#p09eea9ca42)" style="fill: none; stroke: #1f77b4; stroke-width: 1.5; stroke-linecap: square"/>
   </g>
   <g id="patch_3">
    <path d="M 180 512.64 
L 180 69.12 
" style="fill: none; stroke: #000000; stroke-width: 0.8; stroke-linejoin: miter; stroke-linecap: square"/>
   </g>
   <g id="patch_4">
    <path d="M 1296 512.64 
L 1296 69.12 
" style="fill: none; stroke: #000000; stroke-width: 0.8; stroke-linejoin: miter; stroke-linecap: square"/>
   </g>
   <g id="patch_5">
    <path d="M 180 512.64 
L 1296 512.64 
" style="fill: none; stroke: #000000; stroke-width: 0.8; stroke-linejoin: miter; stroke-linecap: square"/>
   </g>
   <g id="patch_6">
    <path d="M 180 69.12 
L 1296 69.12 
" style="fill: none; stroke: #000000; stroke-width: 0.8; stroke-linejoin: miter; stroke-linecap: square"/>
   </g>
   <g id="text_16">
    <!-- source24-receiver14 -->
    <g transform="translate(532.175 60.80125) scale(0.4 -0.4)">
     <defs>
      <path id="DejaVuSans-73" d="M 2834 3397 
L 2834 2853 
Q 2591 2978 2328 3040 
Q 2066 3103 1784 3103 
Q 1356 3103 1142 2972 
Q 928 2841 928 2578 
Q 928 2378 1081 2264 
Q 1234 2150 1697 2047 
L 1894 2003 
Q 2506 1872 2764 1633 
Q 3022 1394 3022 966 
Q 3022 478 2636 193 
Q 2250 -91 1575 -91 
Q 1294 -91 989 -36 
Q 684 19 347 128 
L 347 722 
Q 666 556 975 473 
Q 1284 391 1588 391 
Q 1994 391 2212 530 
Q 2431 669 2431 922 
Q 2431 1156 2273 1281 
Q 2116 1406 1581 1522 
L 1381 1569 
Q 847 1681 609 1914 
Q 372 2147 372 2553 
Q 372 3047 722 3315 
Q 1072 3584 1716 3584 
Q 2034 3584 2315 3537 
Q 2597 3491 2834 3397 
z
" transform="scale(0.015625)"/>
      <path id="DejaVuSans-6f" d="M 1959 3097 
Q 1497 3097 1228 2736 
Q 959 2375 959 1747 
Q 959 1119 1226 758 
Q 1494 397 1959 397 
Q 2419 397 2687 759 
Q 2956 1122 2956 1747 
Q 2956 2369 2687 2733 
Q 2419 3097 1959 3097 
z
M 1959 3584 
Q 2709 3584 3137 3096 
Q 3566 2609 3566 1747 
Q 3566 888 3137 398 
Q 2709 -91 1959 -91 
Q 1206 -91 779 398 
Q 353 888 353 1747 
Q 353 2609 779 3096 
Q 1206 3584 1959 3584 
z
" transform="scale(0.015625)"/>
      <path id="DejaVuSans-75" d="M 544 1381 
L 544 3500 
L 1119 3500 
L 1119 1403 
Q 1119 906 1312 657 
Q 1506 409 1894 409 
Q 2359 409 2629 706 
Q 2900 1003 2900 1516 
L 2900 3500 
L 3475 3500 
L 3475 0 
L 2900 0 
L 2900 538 
Q 2691 219 2414 64 
Q 2138 -91 1772 -91 
Q 1169 -91 856 284 
Q 544 659 544 1381 
z
M 1991 3584 
L 1991 3584 
z
" transform="scale(0.015625)"/>
      <path id="DejaVuSans-72" d="M 2631 2963 
Q 2534 3019 2420 3045 
Q 2306 3072 2169 3072 
Q 1681 3072 1420 2755 
Q 1159 2438 1159 1844 
L 1159 0 
L 581 0 
L 581 3500 
L 1159 3500 
L 1159 2956 
Q 1341 3275 1631 3429 
Q 1922 3584 2338 3584 
Q 2397 3584 2469 3576 
Q 2541 3569 2628 3553 
L 2631 2963 
z
" transform="scale(0.015625)"/>
      <path id="DejaVuSans-63" d="M 3122 3366 
L 3122 2828 
Q 2878 2963 2633 3030 
Q 2388 3097 2138 3097 
Q 1578 3097 1268 2742 
Q 959 2388 959 1747 
Q 959 1106 1268 751 
Q 1578 397 2138 397 
Q 2388 397 2633 464 
Q 2878 531 3122 666 
L 3122 134 
Q 2881 22 2623 -34 
Q 2366 -91 2075 -91 
Q 1284 -91 818 406 
Q 353 903 353 1747 
Q 353 2603 823 3093 
Q 1294 3584 2113 3584 
Q 2378 3584 2631 3529 
Q 2884 3475 3122 3366 
z
" transform="scale(0.015625)"/>
      <path id="DejaVuSans-65" d="M 3597 1894 
L 3597 1613 
L 953 1613 
Q 991 1019 1311 708 
Q 1631 397 2203 397 
Q 2534 397 2845 478 
Q 3156 559 3463 722 
L 3463 178 
Q 3153 47 2828 -22 
Q 2503 -91 2169 -91 
Q 1331 -91 842 396 
Q 353 884 353 1716 
Q 353 2575 817 3079 
Q 1281 3584 2069 3584 
Q 2775 3584 3186 3129 
Q 3597 2675 3597 1894 
z
M 3022 2063 
Q 3016 2534 2758 2815 
Q 2500 3097 2075 3097 
Q 1594 3097 1305 2825 
Q 1016 2553 972 2059 
L 3022 2063 
z
" transform="scale(0.015625)"/>
      <path id="DejaVuSans-2d" d="M 313 2009 
L 1997 2009 
L 1997 1497 
L 313 1497 
L 313 2009 
z
" transform="scale(0.015625)"/>
      <path id="DejaVuSans-69" d="M 603 3500 
L 1178 3500 
L 1178 0 
L 603 0 
L 603 3500 
z
M 603 4863 
L 1178 4863 
L 1178 4134 
L 603 4134 
L 603 4863 
z
" transform="scale(0.015625)"/>
      <path id="DejaVuSans-76" d="M 191 3500 
L 800 3500 
L 1894 563 
L 2988 3500 
L 3597 3500 
L 2284 0 
L 1503 0 
L 191 3500 
z
" transform="scale(0.015625)"/>
     </defs>
     <use xlink:href="#DejaVuSans-73"/>
     <use xlink:href="#DejaVuSans-6f" x="52.099609"/>
     <use xlink:href="#DejaVuSans-75" x="113.28125"/>
     <use xlink:href="#DejaVuSans-72" x="176.660156"/>
     <use xlink:href="#DejaVuSans-63" x="215.523438"/>
     <use xlink:href="#DejaVuSans-65" x="270.503906"/>
     <use xlink:href="#DejaVuSans-32" x="332.027344"/>
     <use xlink:href="#DejaVuSans-34" x="395.650391"/>
     <use xlink:href="#DejaVuSans-2d" x="459.273438"/>
     <use xlink:href="#DejaVuSans-72" x="495.357422"/>
     <use xlink:href="#DejaVuSans-65" x="534.220703"/>
     <use xlink:href="#DejaVuSans-63" x="595.744141"/>
     <use xlink:href="#DejaVuSans-65" x="650.724609"/>
     <use xlink:href="#DejaVuSans-69" x="712.248047"/>
     <use xlink:href="#DejaVuSans-76" x="740.03125"/>
     <use xlink:href="#DejaVuSans-65" x="799.210938"/>
     <use xlink:href="#DejaVuSans-72" x="860.734375"/>
     <use xlink:href="#DejaVuSans-31" x="901.847656"/>
     <use xlink:href="#DejaVuSans-34" x="965.470703"/>
    </g>
   </g>
  </g>
 </g>
 <defs>
  <clipPath id="p09eea9ca42">
   <rect x="180" y="69.12" width="1116" height="443.52"/>
  </clipPath>
 </defs>
</svg>
