<?xml version="1.0" encoding="utf-8" standalone="no"?>
<!DOCTYPE svg PUBLIC "-//W3C//DTD SVG 1.1//EN"
  "http://www.w3.org/Graphics/SVG/1.1/DTD/svg11.dtd">
<svg xmlns:xlink="http://www.w3.org/1999/xlink" width="1440pt" height="576pt" viewBox="0 0 1440 576" xmlns="http://www.w3.org/2000/svg" version="1.1">
 <metadata>
  <rdf:RDF xmlns:dc="http://purl.org/dc/elements/1.1/" xmlns:cc="http://creativecommons.org/ns#" xmlns:rdf="http://www.w3.org/1999/02/22-rdf-syntax-ns#">
   <cc:Work>
    <dc:type rdf:resource="http://purl.org/dc/dcmitype/StillImage"/>
    <dc:date>2024-05-22T04:50:26.587761</dc:date>
    <dc:format>image/svg+xml</dc:format>
    <dc:creator>
     <cc:Agent>
      <dc:title>Matplotlib v3.8.3, https://matplotlib.org/</dc:title>
     </cc:Agent>
    </dc:creator>
   </cc:Work>
  </rdf:RDF>
 </metadata>
 <defs>
  <style type="text/css">*{stroke-linejoin: round; stroke-linecap: butt}</style>
 </defs>
 <g id="figure_1">
  <g id="patch_1">
   <path d="M 0 576 
L 1440 576 
L 1440 0 
L 0 0 
z
" style="fill: #ffffff"/>
  </g>
  <g id="axes_1">
   <g id="patch_2">
    <path d="M 180 512.64 
L 1296 512.64 
L 1296 69.12 
L 180 69.12 
z
" style="fill: #ffffff"/>
   </g>
   <g id="matplotlib.axis_1">
    <g id="xtick_1">
     <g id="line2d_1">
      <defs>
       <path id="mbf31482f9b" d="M 0 0 
L 0 3.5 
" style="stroke: #000000; stroke-width: 0.8"/>
      </defs>
      <g>
       <use xlink:href="#mbf31482f9b" x="229.734567" y="512.64" style="stroke: #000000; stroke-width: 0.8"/>
      </g>
     </g>
     <g id="text_1">
      <!-- 0 -->
      <g transform="translate(226.553317 527.238438) scale(0.1 -0.1)">
       <defs>
        <path id="DejaVuSans-30" d="M 2034 4250 
Q 1547 4250 1301 3770 
Q 1056 3291 1056 2328 
Q 1056 1369 1301 889 
Q 1547 409 2034 409 
Q 2525 409 2770 889 
Q 3016 1369 3016 2328 
Q 3016 3291 2770 3770 
Q 2525 4250 2034 4250 
z
M 2034 4750 
Q 2819 4750 3233 4129 
Q 3647 3509 3647 2328 
Q 3647 1150 3233 529 
Q 2819 -91 2034 -91 
Q 1250 -91 836 529 
Q 422 1150 422 2328 
Q 422 3509 836 4129 
Q 1250 4750 2034 4750 
z
" transform="scale(0.015625)"/>
       </defs>
       <use xlink:href="#DejaVuSans-30"/>
      </g>
     </g>
    </g>
    <g id="xtick_2">
     <g id="line2d_2">
      <g>
       <use xlink:href="#mbf31482f9b" x="433.04074" y="512.64" style="stroke: #000000; stroke-width: 0.8"/>
      </g>
     </g>
     <g id="text_2">
      <!-- 500 -->
      <g transform="translate(423.49699 527.238438) scale(0.1 -0.1)">
       <defs>
        <path id="DejaVuSans-35" d="M 691 4666 
L 3169 4666 
L 3169 4134 
L 1269 4134 
L 1269 2991 
Q 1406 3038 1543 3061 
Q 1681 3084 1819 3084 
Q 2600 3084 3056 2656 
Q 3513 2228 3513 1497 
Q 3513 744 3044 326 
Q 2575 -91 1722 -91 
Q 1428 -91 1123 -41 
Q 819 9 494 109 
L 494 744 
Q 775 591 1075 516 
Q 1375 441 1709 441 
Q 2250 441 2565 725 
Q 2881 1009 2881 1497 
Q 2881 1984 2565 2268 
Q 2250 2553 1709 2553 
Q 1456 2553 1204 2497 
Q 953 2441 691 2322 
L 691 4666 
z
" transform="scale(0.015625)"/>
       </defs>
       <use xlink:href="#DejaVuSans-35"/>
       <use xlink:href="#DejaVuSans-30" x="63.623047"/>
       <use xlink:href="#DejaVuSans-30" x="127.246094"/>
      </g>
     </g>
    </g>
    <g id="xtick_3">
     <g id="line2d_3">
      <g>
       <use xlink:href="#mbf31482f9b" x="636.346913" y="512.64" style="stroke: #000000; stroke-width: 0.8"/>
      </g>
     </g>
     <g id="text_3">
      <!-- 1000 -->
      <g transform="translate(623.621913 527.238438) scale(0.1 -0.1)">
       <defs>
        <path id="DejaVuSans-31" d="M 794 531 
L 1825 531 
L 1825 4091 
L 703 3866 
L 703 4441 
L 1819 4666 
L 2450 4666 
L 2450 531 
L 3481 531 
L 3481 0 
L 794 0 
L 794 531 
z
" transform="scale(0.015625)"/>
       </defs>
       <use xlink:href="#DejaVuSans-31"/>
       <use xlink:href="#DejaVuSans-30" x="63.623047"/>
       <use xlink:href="#DejaVuSans-30" x="127.246094"/>
       <use xlink:href="#DejaVuSans-30" x="190.869141"/>
      </g>
     </g>
    </g>
    <g id="xtick_4">
     <g id="line2d_4">
      <g>
       <use xlink:href="#mbf31482f9b" x="839.653087" y="512.64" style="stroke: #000000; stroke-width: 0.8"/>
      </g>
     </g>
     <g id="text_4">
      <!-- 1500 -->
      <g transform="translate(826.928087 527.238438) scale(0.1 -0.1)">
       <use xlink:href="#DejaVuSans-31"/>
       <use xlink:href="#DejaVuSans-35" x="63.623047"/>
       <use xlink:href="#DejaVuSans-30" x="127.246094"/>
       <use xlink:href="#DejaVuSans-30" x="190.869141"/>
      </g>
     </g>
    </g>
    <g id="xtick_5">
     <g id="line2d_5">
      <g>
       <use xlink:href="#mbf31482f9b" x="1042.95926" y="512.64" style="stroke: #000000; stroke-width: 0.8"/>
      </g>
     </g>
     <g id="text_5">
      <!-- 2000 -->
      <g transform="translate(1030.23426 527.238438) scale(0.1 -0.1)">
       <defs>
        <path id="DejaVuSans-32" d="M 1228 531 
L 3431 531 
L 3431 0 
L 469 0 
L 469 531 
Q 828 903 1448 1529 
Q 2069 2156 2228 2338 
Q 2531 2678 2651 2914 
Q 2772 3150 2772 3378 
Q 2772 3750 2511 3984 
Q 2250 4219 1831 4219 
Q 1534 4219 1204 4116 
Q 875 4013 500 3803 
L 500 4441 
Q 881 4594 1212 4672 
Q 1544 4750 1819 4750 
Q 2544 4750 2975 4387 
Q 3406 4025 3406 3419 
Q 3406 3131 3298 2873 
Q 3191 2616 2906 2266 
Q 2828 2175 2409 1742 
Q 1991 1309 1228 531 
z
" transform="scale(0.015625)"/>
       </defs>
       <use xlink:href="#DejaVuSans-32"/>
       <use xlink:href="#DejaVuSans-30" x="63.623047"/>
       <use xlink:href="#DejaVuSans-30" x="127.246094"/>
       <use xlink:href="#DejaVuSans-30" x="190.869141"/>
      </g>
     </g>
    </g>
    <g id="xtick_6">
     <g id="line2d_6">
      <g>
       <use xlink:href="#mbf31482f9b" x="1246.265433" y="512.64" style="stroke: #000000; stroke-width: 0.8"/>
      </g>
     </g>
     <g id="text_6">
      <!-- 2500 -->
      <g transform="translate(1233.540433 527.238438) scale(0.1 -0.1)">
       <use xlink:href="#DejaVuSans-32"/>
       <use xlink:href="#DejaVuSans-35" x="63.623047"/>
       <use xlink:href="#DejaVuSans-30" x="127.246094"/>
       <use xlink:href="#DejaVuSans-30" x="190.869141"/>
      </g>
     </g>
    </g>
   </g>
   <g id="matplotlib.axis_2">
    <g id="ytick_1">
     <g id="line2d_7">
      <defs>
       <path id="m52afb67bb9" d="M 0 0 
L -3.5 0 
" style="stroke: #000000; stroke-width: 0.8"/>
      </defs>
      <g>
       <use xlink:href="#m52afb67bb9" x="180" y="473.869788" style="stroke: #000000; stroke-width: 0.8"/>
      </g>
     </g>
     <g id="text_7">
      <!-- −2 -->
      <g transform="translate(158.257812 477.669007) scale(0.1 -0.1)">
       <defs>
        <path id="DejaVuSans-2212" d="M 678 2272 
L 4684 2272 
L 4684 1741 
L 678 1741 
L 678 2272 
z
" transform="scale(0.015625)"/>
       </defs>
       <use xlink:href="#DejaVuSans-2212"/>
       <use xlink:href="#DejaVuSans-32" x="83.789062"/>
      </g>
     </g>
    </g>
    <g id="ytick_2">
     <g id="line2d_8">
      <g>
       <use xlink:href="#m52afb67bb9" x="180" y="415.601834" style="stroke: #000000; stroke-width: 0.8"/>
      </g>
     </g>
     <g id="text_8">
      <!-- −1 -->
      <g transform="translate(158.257812 419.401053) scale(0.1 -0.1)">
       <use xlink:href="#DejaVuSans-2212"/>
       <use xlink:href="#DejaVuSans-31" x="83.789062"/>
      </g>
     </g>
    </g>
    <g id="ytick_3">
     <g id="line2d_9">
      <g>
       <use xlink:href="#m52afb67bb9" x="180" y="357.33388" style="stroke: #000000; stroke-width: 0.8"/>
      </g>
     </g>
     <g id="text_9">
      <!-- 0 -->
      <g transform="translate(166.6375 361.133098) scale(0.1 -0.1)">
       <use xlink:href="#DejaVuSans-30"/>
      </g>
     </g>
    </g>
    <g id="ytick_4">
     <g id="line2d_10">
      <g>
       <use xlink:href="#m52afb67bb9" x="180" y="299.065925" style="stroke: #000000; stroke-width: 0.8"/>
      </g>
     </g>
     <g id="text_10">
      <!-- 1 -->
      <g transform="translate(166.6375 302.865144) scale(0.1 -0.1)">
       <use xlink:href="#DejaVuSans-31"/>
      </g>
     </g>
    </g>
    <g id="ytick_5">
     <g id="line2d_11">
      <g>
       <use xlink:href="#m52afb67bb9" x="180" y="240.797971" style="stroke: #000000; stroke-width: 0.8"/>
      </g>
     </g>
     <g id="text_11">
      <!-- 2 -->
      <g transform="translate(166.6375 244.59719) scale(0.1 -0.1)">
       <use xlink:href="#DejaVuSans-32"/>
      </g>
     </g>
    </g>
    <g id="ytick_6">
     <g id="line2d_12">
      <g>
       <use xlink:href="#m52afb67bb9" x="180" y="182.530017" style="stroke: #000000; stroke-width: 0.8"/>
      </g>
     </g>
     <g id="text_12">
      <!-- 3 -->
      <g transform="translate(166.6375 186.329236) scale(0.1 -0.1)">
       <defs>
        <path id="DejaVuSans-33" d="M 2597 2516 
Q 3050 2419 3304 2112 
Q 3559 1806 3559 1356 
Q 3559 666 3084 287 
Q 2609 -91 1734 -91 
Q 1441 -91 1130 -33 
Q 819 25 488 141 
L 488 750 
Q 750 597 1062 519 
Q 1375 441 1716 441 
Q 2309 441 2620 675 
Q 2931 909 2931 1356 
Q 2931 1769 2642 2001 
Q 2353 2234 1838 2234 
L 1294 2234 
L 1294 2753 
L 1863 2753 
Q 2328 2753 2575 2939 
Q 2822 3125 2822 3475 
Q 2822 3834 2567 4026 
Q 2313 4219 1838 4219 
Q 1578 4219 1281 4162 
Q 984 4106 628 3988 
L 628 4550 
Q 988 4650 1302 4700 
Q 1616 4750 1894 4750 
Q 2613 4750 3031 4423 
Q 3450 4097 3450 3541 
Q 3450 3153 3228 2886 
Q 3006 2619 2597 2516 
z
" transform="scale(0.015625)"/>
       </defs>
       <use xlink:href="#DejaVuSans-33"/>
      </g>
     </g>
    </g>
    <g id="ytick_7">
     <g id="line2d_13">
      <g>
       <use xlink:href="#m52afb67bb9" x="180" y="124.262063" style="stroke: #000000; stroke-width: 0.8"/>
      </g>
     </g>
     <g id="text_13">
      <!-- 4 -->
      <g transform="translate(166.6375 128.061282) scale(0.1 -0.1)">
       <defs>
        <path id="DejaVuSans-34" d="M 2419 4116 
L 825 1625 
L 2419 1625 
L 2419 4116 
z
M 2253 4666 
L 3047 4666 
L 3047 1625 
L 3713 1625 
L 3713 1100 
L 3047 1100 
L 3047 0 
L 2419 0 
L 2419 1100 
L 313 1100 
L 313 1709 
L 2253 4666 
z
" transform="scale(0.015625)"/>
       </defs>
       <use xlink:href="#DejaVuSans-34"/>
      </g>
     </g>
    </g>
   </g>
   <g id="line2d_14">
    <path d="M 230.727273 364.223362 
L 232.712685 363.886718 
L 234.698096 363.374903 
L 238.66892 361.597229 
L 243.63245 358.393345 
L 244.625156 358.637129 
L 245.617862 360.511321 
L 246.610568 361.100545 
L 247.603273 348.705115 
L 248.595979 321.930699 
L 249.588685 298.544293 
L 250.581391 285.142138 
L 251.574097 284.129057 
L 252.566803 286.304978 
L 253.559509 264.196877 
L 254.552215 234.981826 
L 255.544921 215.884825 
L 256.537627 209.292549 
L 257.530333 212.408029 
L 258.523039 217.6677 
L 259.515745 208.718433 
L 260.50845 196.919498 
L 261.501156 194.102128 
L 262.493862 204.194143 
L 263.486568 218.15192 
L 264.479274 215.952627 
L 265.47198 216.880011 
L 266.464686 250.743053 
L 267.457392 258.560373 
L 268.450098 200.307178 
L 269.442804 183.999808 
L 270.43551 195.890059 
L 271.428216 243.654096 
L 272.420922 202.483076 
L 273.413627 173.327994 
L 274.406333 174.880465 
L 275.399039 188.886839 
L 276.391745 149.47742 
L 277.384451 114.796254 
L 278.377157 96.239952 
L 279.369863 89.28 
L 280.362569 92.163616 
L 281.355275 104.209674 
L 282.347981 125.109591 
L 283.340687 141.272624 
L 284.333393 132.26689 
L 285.326099 119.990194 
L 286.318804 114.971611 
L 287.31151 114.88198 
L 288.304216 115.849608 
L 289.296922 118.825761 
L 290.289628 127.317897 
L 291.282334 146.363434 
L 292.27504 180.224239 
L 293.267746 223.38307 
L 294.260452 232.8145 
L 295.253158 251.260598 
L 296.245864 280.013351 
L 297.23857 237.695175 
L 298.231276 226.492874 
L 299.223981 244.645188 
L 300.216687 305.240028 
L 301.209393 301.654145 
L 302.202099 287.55026 
L 303.194805 336.473508 
L 304.187511 318.103253 
L 305.180217 280.146709 
L 306.172923 287.265839 
L 307.165629 340.179532 
L 308.158335 330.698197 
L 309.151041 301.336917 
L 310.143747 309.774013 
L 311.136453 349.495455 
L 312.129159 340.639181 
L 313.121864 327.35446 
L 314.11457 337.769729 
L 315.107276 342.824216 
L 316.099982 343.159177 
L 317.092688 343.270784 
L 318.085394 344.081057 
L 319.0781 346.16834 
L 320.070806 352.512112 
L 321.063512 352.738297 
L 322.056218 348.104606 
L 323.048924 351.870457 
L 324.04163 356.08063 
L 325.034336 351.985126 
L 326.027041 351.551289 
L 327.019747 360.380657 
L 328.012453 359.106536 
L 329.005159 358.133455 
L 329.997865 362.104351 
L 330.990571 364.325995 
L 331.983277 359.453338 
L 332.975983 363.100224 
L 333.968689 367.782872 
L 334.961395 361.802669 
L 335.954101 360.500808 
L 336.946807 369.080333 
L 337.939513 374.947276 
L 338.932218 372.305061 
L 339.924924 367.744372 
L 340.91763 370.127533 
L 341.910336 371.240218 
L 342.903042 374.335273 
L 343.895748 375.153563 
L 344.888454 375.243718 
L 345.88116 370.176325 
L 346.873866 382.049099 
L 347.866572 382.758255 
L 348.859278 371.01967 
L 349.851984 374.901632 
L 350.84469 388.454101 
L 351.837395 383.250479 
L 352.830101 376.112578 
L 353.822807 387.934643 
L 354.815513 386.317546 
L 355.808219 375.761929 
L 356.800925 379.800502 
L 357.793631 399.962853 
L 358.786337 385.435115 
L 359.779043 373.911898 
L 360.771749 375.666305 
L 361.764455 406.028013 
L 362.757161 389.655615 
L 363.749867 380.442468 
L 364.742572 381.482256 
L 365.735278 396.33197 
L 366.727984 394.874647 
L 367.72069 380.411487 
L 368.713396 392.840838 
L 369.706102 394.266397 
L 370.698808 389.751038 
L 371.691514 396.065972 
L 372.68422 389.391536 
L 373.676926 393.808991 
L 374.669632 393.813782 
L 375.662338 399.129228 
L 376.655044 401.009276 
L 377.64775 394.634811 
L 378.640455 394.942326 
L 379.633161 401.415159 
L 380.625867 388.610643 
L 381.618573 394.656331 
L 382.611279 395.151696 
L 383.603985 395.275947 
L 384.596691 401.393304 
L 385.589397 399.764086 
L 386.582103 401.063059 
L 387.574809 400.748334 
L 388.567515 396.350334 
L 389.560221 405.376012 
L 390.552927 405.008125 
L 391.545632 402.754867 
L 392.538338 403.184898 
L 393.531044 407.928272 
L 394.52375 403.329127 
L 395.516456 407.125568 
L 396.509162 407.188348 
L 397.501868 404.040636 
L 398.494574 405.610391 
L 399.48728 408.392519 
L 400.479986 405.853878 
L 401.472692 411.492182 
L 402.465398 405.900739 
L 403.458104 410.057665 
L 404.450809 406.981118 
L 405.443515 402.597413 
L 406.436221 412.576238 
L 407.428927 407.767574 
L 408.421633 406.898868 
L 409.414339 416.150452 
L 410.407045 410.734653 
L 411.399751 409.980634 
L 412.392457 418.007437 
L 413.385163 409.537404 
L 414.377869 417.646255 
L 415.370575 412.277893 
L 416.363281 412.911107 
L 417.355986 406.746161 
L 418.348692 412.348061 
L 419.341398 411.982339 
L 420.334104 416.957102 
L 421.32681 415.159007 
L 422.319516 415.91378 
L 423.312222 413.299233 
L 424.304928 417.336633 
L 425.297634 415.210742 
L 426.29034 414.19689 
L 427.283046 413.830501 
L 428.275752 418.829292 
L 429.268458 429.791175 
L 430.261163 414.111706 
L 431.253869 418.254725 
L 432.246575 411.45712 
L 433.239281 422.776318 
L 434.231987 417.187187 
L 435.224693 414.215268 
L 437.210105 421.602491 
L 438.202811 416.969577 
L 439.195517 418.952957 
L 440.188223 429.145484 
L 441.180929 420.916658 
L 442.173635 422.590774 
L 443.166341 420.355328 
L 444.159046 423.251944 
L 445.151752 426.746673 
L 446.144458 427.580766 
L 447.137164 426.324084 
L 448.12987 421.102718 
L 449.122576 420.466303 
L 450.115282 427.968099 
L 451.107988 419.486245 
L 452.100694 423.049048 
L 453.0934 420.43035 
L 454.086106 419.990038 
L 455.078812 424.935395 
L 456.071518 421.85798 
L 457.064223 421.824581 
L 458.056929 431.133322 
L 459.049635 427.436966 
L 460.042341 418.017631 
L 461.035047 423.737381 
L 462.027753 433.347036 
L 463.020459 423.970498 
L 464.013165 438.027599 
L 465.005871 428.649671 
L 465.998577 428.753583 
L 466.991283 430.667956 
L 467.983989 431.816606 
L 468.976695 427.503174 
L 469.9694 436.610247 
L 470.962106 435.281882 
L 471.954812 429.424869 
L 472.947518 428.470084 
L 473.940224 434.144799 
L 474.93293 428.400505 
L 475.925636 426.77312 
L 476.918342 425.679764 
L 477.911048 431.899361 
L 478.903754 430.919774 
L 479.89646 434.010834 
L 480.889166 432.279775 
L 481.881872 429.925959 
L 482.874577 435.853132 
L 483.867283 437.3121 
L 484.859989 441.998553 
L 485.852695 439.303523 
L 486.845401 427.455057 
L 488.830813 438.917264 
L 489.823519 443.281318 
L 490.816225 436.213155 
L 491.808931 433.361478 
L 492.801637 440.289553 
L 493.794343 441.109592 
L 494.787049 433.928556 
L 495.779754 427.987669 
L 496.77246 433.312613 
L 497.765166 429.740556 
L 498.757872 432.813885 
L 499.750578 449.000709 
L 500.743284 436.799594 
L 501.73599 432.401603 
L 502.728696 435.267434 
L 503.721402 438.742126 
L 504.714108 439.149536 
L 505.706814 432.326794 
L 506.69952 443.400567 
L 507.692226 434.524246 
L 508.684932 436.35489 
L 509.677637 440.378053 
L 510.670343 447.020129 
L 511.663049 439.469801 
L 512.655755 449.440352 
L 513.648461 439.281083 
L 514.641167 445.291162 
L 515.633873 439.043036 
L 516.626579 441.156381 
L 517.619285 436.88081 
L 518.611991 451.297449 
L 519.604697 445.030543 
L 520.597403 446.937152 
L 521.590109 438.291062 
L 522.582814 444.412902 
L 523.57552 440.765748 
L 524.568226 441.93198 
L 525.560932 444.374346 
L 526.553638 443.941086 
L 527.546344 436.844478 
L 529.531756 445.753029 
L 530.524462 443.817198 
L 531.517168 443.144281 
L 532.509874 440.84344 
L 533.50258 442.278765 
L 534.495286 436.414741 
L 535.487991 442.492045 
L 536.480697 441.849747 
L 537.473403 439.987783 
L 538.466109 459.073959 
L 539.458815 444.485388 
L 540.451521 436.874495 
L 541.444227 453.023413 
L 542.436933 442.030536 
L 543.429639 442.360003 
L 544.422345 454.377696 
L 545.415051 447.20219 
L 546.407757 448.681788 
L 547.400463 451.728495 
L 548.393168 446.213853 
L 549.385874 445.705686 
L 550.37858 449.219099 
L 551.371286 445.949541 
L 552.363992 446.123268 
L 553.356698 447.064019 
L 554.349404 437.454254 
L 555.34211 444.853536 
L 556.334816 439.690556 
L 557.327522 439.515274 
L 558.320228 444.425943 
L 559.312934 451.846565 
L 560.30564 451.37941 
L 561.298345 456.324063 
L 562.291051 453.617913 
L 563.283757 450.117125 
L 564.276463 445.334509 
L 565.269169 446.982994 
L 566.261875 441.16895 
L 568.247287 452.159771 
L 569.239993 436.537649 
L 571.225405 454.458787 
L 572.218111 449.308505 
L 573.210817 448.891625 
L 574.203523 444.921213 
L 575.196228 450.883466 
L 576.188934 447.757432 
L 577.18164 453.486677 
L 578.174346 451.760587 
L 579.167052 462.848197 
L 580.159758 451.576223 
L 581.152464 450.437371 
L 582.14517 455.555048 
L 583.137876 456.985213 
L 584.130582 454.34702 
L 585.123288 456.364037 
L 586.115994 451.565912 
L 587.1087 466.747875 
L 588.101405 456.257879 
L 589.094111 447.231604 
L 590.086817 446.455986 
L 591.079523 453.504939 
L 592.072229 456.006424 
L 593.064935 453.244354 
L 594.057641 453.349456 
L 595.050347 455.579918 
L 596.043053 452.044585 
L 597.035759 452.865596 
L 598.028465 455.182813 
L 599.021171 453.975892 
L 600.013877 454.668128 
L 601.006582 456.306879 
L 601.999288 455.778209 
L 602.991994 457.044385 
L 603.9847 450.9322 
L 604.977406 451.730504 
L 605.970112 451.737569 
L 606.962818 458.416624 
L 607.955524 453.025865 
L 608.94823 453.978291 
L 609.940936 452.542973 
L 610.933642 455.210193 
L 611.926348 448.194269 
L 612.919054 452.167898 
L 613.911759 457.251544 
L 614.904465 454.418485 
L 615.897171 463.252878 
L 616.889877 450.256942 
L 617.882583 457.184882 
L 618.875289 454.000989 
L 619.867995 455.586992 
L 620.860701 458.269332 
L 621.853407 457.732701 
L 622.846113 463.682246 
L 623.838819 457.874 
L 624.831525 449.968274 
L 625.824231 454.3219 
L 626.816936 458.051778 
L 627.809642 454.441979 
L 628.802348 459.845846 
L 629.795054 453.768624 
L 630.78776 461.997132 
L 631.780466 453.540784 
L 632.773172 458.275342 
L 633.765878 458.525348 
L 634.758584 459.789789 
L 635.75129 455.545374 
L 636.743996 460.93577 
L 637.736702 463.24892 
L 638.729408 455.639221 
L 639.722114 462.901488 
L 640.714819 455.889786 
L 642.700231 461.921703 
L 643.692937 465.434818 
L 644.685643 459.91961 
L 646.671055 462.938277 
L 647.663761 466.75731 
L 648.656467 461.706037 
L 649.649173 458.645327 
L 650.641879 462.463182 
L 651.634585 461.120848 
L 652.627291 461.305287 
L 653.619996 463.855032 
L 654.612702 461.278919 
L 655.605408 460.830853 
L 656.598114 463.504192 
L 657.59082 460.262335 
L 658.583526 462.311413 
L 659.576232 463.221895 
L 660.568938 461.36785 
L 661.561644 463.254532 
L 662.55435 462.037237 
L 663.547056 460.508702 
L 664.539762 464.283471 
L 665.532468 463.303575 
L 666.525173 463.114131 
L 667.517879 465.508579 
L 668.510585 465.094284 
L 669.503291 463.388376 
L 670.495997 465.190875 
L 671.488703 465.273506 
L 672.481409 462.323408 
L 673.474115 465.314758 
L 674.466821 463.76724 
L 675.459527 465.632975 
L 676.452233 465.029578 
L 677.444939 465.181747 
L 678.437645 464.699985 
L 681.415762 465.55302 
L 682.408468 464.27048 
L 683.401174 464.8417 
L 684.39388 465.972364 
L 685.386586 466.305372 
L 686.379292 465.555774 
L 687.371998 465.144918 
L 688.364704 466.739111 
L 689.35741 465.396057 
L 690.350116 465.473282 
L 691.342822 466.275912 
L 692.335527 466.221623 
L 693.328233 466.719684 
L 694.320939 466.908138 
L 695.313645 466.445524 
L 696.306351 466.495161 
L 697.299057 468.197316 
L 699.284469 466.571959 
L 701.269881 466.901815 
L 702.262587 467.462815 
L 703.255293 467.730334 
L 704.247999 466.48983 
L 705.240705 467.912281 
L 706.23341 467.547604 
L 707.226116 468.391463 
L 708.218822 467.043172 
L 711.19694 468.05291 
L 712.189646 469.201542 
L 713.182352 468.492208 
L 714.175058 468.025324 
L 715.167764 470.043026 
L 716.16047 468.906166 
L 717.153176 468.693943 
L 718.145882 468.674226 
L 719.138587 468.790976 
L 720.131293 469.639014 
L 721.123999 468.961755 
L 722.116705 468.503851 
L 723.109411 469.90218 
L 725.094823 468.84452 
L 726.087529 469.993484 
L 727.080235 469.346904 
L 728.072941 470.061372 
L 729.065647 469.715019 
L 730.058353 470.367713 
L 731.051059 469.862598 
L 732.043764 470.942372 
L 733.03647 470.183909 
L 734.029176 469.659304 
L 735.021882 470.288479 
L 736.014588 470.024749 
L 737.007294 470.836036 
L 738 471.134931 
L 738.992706 470.744391 
L 739.985412 471.122791 
L 740.978118 471.228902 
L 741.970824 471.526922 
L 742.96353 470.74764 
L 743.956236 471.400184 
L 744.948941 471.657303 
L 745.941647 470.901418 
L 746.934353 471.309047 
L 747.927059 471.576253 
L 750.905177 471.607117 
L 751.897883 472.627007 
L 752.890589 472.041802 
L 753.883295 472.508549 
L 755.868707 472.209784 
L 757.854118 473.174641 
L 760.832236 472.710095 
L 761.824942 473.253354 
L 762.817648 473.195317 
L 763.810354 473.340127 
L 764.80306 472.883776 
L 765.795766 473.04879 
L 766.788472 472.82951 
L 767.781178 473.719743 
L 768.773884 473.152902 
L 769.76659 473.75501 
L 770.759295 473.873497 
L 771.752001 474.171012 
L 772.744707 474.151412 
L 773.737413 474.244446 
L 774.730119 474.780701 
L 775.722825 473.88967 
L 776.715531 474.304766 
L 777.708237 473.943816 
L 778.700943 475.049532 
L 779.693649 474.249764 
L 780.686355 474.128109 
L 781.679061 474.319659 
L 782.671767 475.373768 
L 784.657178 475.425986 
L 785.649884 475.326467 
L 786.64259 475.020537 
L 787.635296 475.004041 
L 788.628002 474.680025 
L 790.613414 475.228136 
L 791.60612 475.481628 
L 792.598826 475.526702 
L 793.591532 476.009754 
L 794.584238 475.421124 
L 795.576944 475.375484 
L 796.56965 475.996755 
L 797.562355 475.61971 
L 798.555061 475.573372 
L 799.547767 475.976044 
L 800.540473 476.852677 
L 801.533179 477.167208 
L 803.518591 476.013294 
L 804.511297 476.706179 
L 806.496709 476.18484 
L 808.482121 476.877942 
L 809.474827 476.020596 
L 810.467532 477.03198 
L 811.460238 476.667081 
L 812.452944 476.856158 
L 813.44565 478.000027 
L 814.438356 477.830322 
L 815.431062 477.399465 
L 816.423768 477.383513 
L 819.401886 477.984847 
L 820.394592 477.19468 
L 821.387298 477.982993 
L 822.380004 477.658308 
L 823.372709 477.561139 
L 824.365415 478.066681 
L 825.358121 477.855007 
L 826.350827 478.133284 
L 827.343533 477.853771 
L 828.336239 478.188263 
L 829.328945 478.244218 
L 830.321651 478.611466 
L 831.314357 478.705043 
L 832.307063 478.139451 
L 833.299769 478.720268 
L 834.292475 479.051268 
L 835.285181 478.572028 
L 836.277886 478.68516 
L 837.270592 479.628386 
L 840.24871 479.019711 
L 841.241416 478.920312 
L 842.234122 478.359138 
L 843.226828 479.330353 
L 844.219534 479.404027 
L 845.21224 478.740899 
L 847.197652 479.297714 
L 848.190358 479.330571 
L 849.183064 479.818735 
L 850.175769 478.952651 
L 851.168475 480.135473 
L 852.161181 479.516513 
L 853.153887 479.696243 
L 854.146593 480.301552 
L 855.139299 480.685439 
L 856.132005 480.117994 
L 857.124711 480.302212 
L 858.117417 479.822124 
L 859.110123 479.935548 
L 860.102829 480.427833 
L 861.095535 480.770224 
L 862.088241 479.892752 
L 863.080946 480.428381 
L 864.073652 480.583926 
L 865.066358 481.24514 
L 866.059064 480.384165 
L 867.05177 480.241727 
L 868.044476 480.449088 
L 869.037182 480.471665 
L 871.022594 481.674874 
L 872.0153 480.463071 
L 873.008006 481.449639 
L 874.000712 481.033801 
L 874.993418 481.322068 
L 875.986123 480.882782 
L 876.978829 481.400551 
L 877.971535 480.973332 
L 878.964241 481.465549 
L 879.956947 481.381725 
L 881.942359 481.92716 
L 882.935065 481.840545 
L 883.927771 480.838465 
L 884.920477 481.98962 
L 885.913183 481.782138 
L 888.8913 481.638953 
L 889.884006 482.484096 
L 890.876712 482.488335 
L 891.869418 482.161231 
L 893.85483 482.214675 
L 894.847536 482.746227 
L 895.840242 482.449063 
L 898.81836 483.167907 
L 899.811066 482.953094 
L 900.803772 483.352239 
L 901.796477 482.844358 
L 903.781889 482.998749 
L 904.774595 482.541965 
L 906.760007 483.038755 
L 907.752713 483.29568 
L 908.745419 483.124143 
L 909.738125 483.131034 
L 910.730831 483.99618 
L 911.723537 483.656008 
L 912.716243 483.562653 
L 913.708949 483.177991 
L 914.701655 483.151202 
L 915.69436 483.699845 
L 916.687066 483.600046 
L 918.672478 483.553432 
L 919.665184 483.39036 
L 920.65789 483.634296 
L 921.650596 484.013586 
L 922.643302 484.085524 
L 923.636008 483.865293 
L 924.628714 483.436219 
L 925.62142 483.997725 
L 926.614126 483.50812 
L 927.606832 483.891748 
L 929.592243 484.336468 
L 930.584949 483.803455 
L 931.577655 484.149713 
L 932.570361 483.283896 
L 933.563067 484.081014 
L 934.555773 484.61199 
L 935.548479 484.96742 
L 936.541185 484.578796 
L 939.519303 484.691158 
L 941.504714 484.507793 
L 942.49742 485.02148 
L 943.490126 485.066711 
L 944.482832 485.69337 
L 945.475538 484.446267 
L 946.468244 485.297604 
L 948.453656 485.137894 
L 949.446362 485.329329 
L 950.439068 485.129957 
L 951.431774 486.120416 
L 952.42448 485.242156 
L 953.417186 484.923444 
L 954.409891 485.401873 
L 955.402597 485.524698 
L 956.395303 485.927329 
L 957.388009 484.704142 
L 958.380715 485.460963 
L 959.373421 485.35844 
L 960.366127 485.387219 
L 961.358833 485.635384 
L 962.351539 485.704899 
L 963.344245 485.213199 
L 964.336951 485.564739 
L 965.329657 485.797266 
L 966.322363 485.424696 
L 967.315068 485.919381 
L 968.307774 485.64409 
L 969.30048 486.329272 
L 970.293186 485.458863 
L 971.285892 486.730074 
L 972.278598 486.24221 
L 973.271304 485.921476 
L 974.26401 485.210446 
L 975.256716 486.335391 
L 976.249422 486.3295 
L 977.242128 486.939513 
L 978.234834 486.237362 
L 979.22754 487.115064 
L 980.220246 486.818651 
L 981.212951 486.300028 
L 982.205657 486.343495 
L 983.198363 486.709691 
L 985.183775 486.241166 
L 986.176481 486.875584 
L 987.169187 486.626919 
L 988.161893 486.75944 
L 989.154599 486.494094 
L 990.147305 486.938153 
L 991.140011 485.84592 
L 992.132717 486.720714 
L 993.125423 487.078036 
L 994.118128 486.686228 
L 995.110834 486.780158 
L 996.10354 487.090135 
L 997.096246 487.76135 
L 998.088952 488.257757 
L 999.081658 487.596871 
L 1000.074364 487.531809 
L 1001.06707 487.713648 
L 1002.059776 487.672906 
L 1003.052482 487.430601 
L 1004.045188 487.566701 
L 1005.037894 487.370034 
L 1006.0306 487.71575 
L 1008.016011 488.006716 
L 1009.008717 487.835658 
L 1010.001423 487.489062 
L 1010.994129 487.627981 
L 1011.986835 487.436078 
L 1012.979541 487.788977 
L 1013.972247 487.09169 
L 1014.964953 487.93216 
L 1016.950365 487.751827 
L 1017.943071 487.964824 
L 1018.935777 487.491242 
L 1019.928482 487.860549 
L 1020.921188 488.665817 
L 1021.913894 488.819418 
L 1022.9066 488.48942 
L 1023.899306 488.501705 
L 1024.892012 487.23487 
L 1025.884718 488.26012 
L 1026.877424 488.860455 
L 1027.87013 488.185851 
L 1028.862836 488.153047 
L 1029.855542 488.521477 
L 1031.840954 488.263079 
L 1032.833659 488.655606 
L 1034.819071 488.713367 
L 1035.811777 488.832438 
L 1036.804483 488.392398 
L 1037.797189 489.067073 
L 1038.789895 487.603604 
L 1039.782601 488.755622 
L 1040.775307 489.163236 
L 1041.768013 488.343311 
L 1042.760719 488.577318 
L 1043.753425 488.073301 
L 1044.746131 488.42114 
L 1045.738837 489.026453 
L 1048.716954 488.604461 
L 1049.70966 488.9531 
L 1050.702366 489.113112 
L 1052.687778 488.635884 
L 1053.680484 488.917872 
L 1054.67319 489.548374 
L 1055.665896 488.617294 
L 1056.658602 489.094231 
L 1057.651308 489.407029 
L 1058.644014 488.996331 
L 1059.636719 489.009738 
L 1061.622131 489.464174 
L 1062.614837 488.413186 
L 1063.607543 488.289721 
L 1064.600249 488.713346 
L 1065.592955 489.262474 
L 1066.585661 489.396437 
L 1067.578367 489.64776 
L 1069.563779 489.90554 
L 1070.556485 489.628817 
L 1072.541896 489.61021 
L 1073.534602 489.431327 
L 1074.527308 489.571413 
L 1075.520014 490.286397 
L 1076.51272 489.507465 
L 1078.498132 489.771782 
L 1079.490838 489.349026 
L 1081.47625 489.58529 
L 1082.468956 489.244693 
L 1083.461662 490.134583 
L 1084.454368 490.186242 
L 1085.447073 489.662335 
L 1086.439779 489.500298 
L 1088.425191 490.029979 
L 1089.417897 489.609174 
L 1090.410603 490.179509 
L 1091.403309 490.130338 
L 1092.396015 489.530427 
L 1093.388721 489.914925 
L 1094.381427 490.166724 
L 1095.374133 490.059054 
L 1096.366839 490.475401 
L 1098.35225 490.266371 
L 1099.344956 489.781202 
L 1100.337662 490.095343 
L 1101.330368 489.718628 
L 1102.323074 490.718749 
L 1103.31578 490.092075 
L 1104.308486 489.838866 
L 1105.301192 490.359077 
L 1106.293898 490.455387 
L 1107.286604 491.129826 
L 1108.27931 490.980157 
L 1109.272016 490.080417 
L 1110.264722 490.138307 
L 1111.257428 490.458089 
L 1112.250133 490.535928 
L 1113.242839 489.666273 
L 1114.235545 489.553678 
L 1115.228251 489.964649 
L 1117.213663 491.182417 
L 1118.206369 490.998618 
L 1119.199075 490.454992 
L 1120.191781 490.527011 
L 1121.184487 490.85986 
L 1122.177193 490.890594 
L 1123.169899 490.394552 
L 1124.162605 490.785818 
L 1125.15531 490.484112 
L 1126.148016 490.023951 
L 1127.140722 490.805087 
L 1128.133428 491.756904 
L 1130.11884 490.44002 
L 1131.111546 490.74448 
L 1132.104252 490.010958 
L 1133.096958 489.950852 
L 1134.089664 490.570752 
L 1135.08237 490.650978 
L 1136.075076 490.05297 
L 1137.067782 490.261346 
L 1138.060487 491.049924 
L 1139.053193 491.431458 
L 1140.045899 490.857552 
L 1142.031311 491.079788 
L 1143.024017 490.451992 
L 1144.016723 490.756585 
L 1145.009429 490.348669 
L 1146.002135 490.460743 
L 1146.994841 490.302309 
L 1148.980253 490.953948 
L 1149.972959 490.963618 
L 1150.965664 491.091277 
L 1151.95837 491.620981 
L 1152.951076 491.180031 
L 1154.936488 491.144908 
L 1155.929194 490.881869 
L 1156.9219 491.160941 
L 1157.914606 490.896423 
L 1158.907312 491.762679 
L 1159.900018 490.735424 
L 1160.892724 490.728483 
L 1161.88543 490.522408 
L 1162.878136 491.192726 
L 1163.870841 491.392277 
L 1164.863547 490.65194 
L 1165.856253 491.337391 
L 1166.848959 491.433817 
L 1167.841665 490.80011 
L 1168.834371 491.541078 
L 1169.827077 491.771384 
L 1170.819783 490.75568 
L 1171.812489 490.385201 
L 1172.805195 491.210411 
L 1173.797901 491.288879 
L 1174.790607 492.48 
L 1175.783313 490.92171 
L 1176.776019 491.019841 
L 1177.768724 491.431146 
L 1178.76143 491.99824 
L 1179.754136 491.899791 
L 1180.746842 491.054636 
L 1181.739548 491.820209 
L 1182.732254 490.861562 
L 1183.72496 491.159842 
L 1184.717666 490.982515 
L 1185.710372 492.124898 
L 1186.703078 491.401014 
L 1187.695784 491.576593 
L 1188.68849 491.285959 
L 1189.681196 490.687543 
L 1190.673901 490.662607 
L 1191.666607 491.253016 
L 1192.659313 491.385835 
L 1193.652019 490.618456 
L 1194.644725 490.935465 
L 1195.637431 491.503463 
L 1198.615549 491.221105 
L 1199.608255 491.475487 
L 1200.600961 491.359795 
L 1201.593667 490.849306 
L 1202.586373 491.712195 
L 1203.579078 491.591597 
L 1204.571784 492.162817 
L 1205.56449 491.884641 
L 1206.557196 491.333495 
L 1207.549902 491.159451 
L 1208.542608 491.933913 
L 1209.535314 491.798588 
L 1210.52802 492.015842 
L 1211.520726 491.509943 
L 1212.513432 492.013413 
L 1213.506138 491.391884 
L 1214.498844 491.825742 
L 1215.49155 492.032417 
L 1216.484255 491.255982 
L 1217.476961 491.789518 
L 1218.469667 491.281555 
L 1219.462373 491.33595 
L 1220.455079 491.677502 
L 1221.447785 491.153106 
L 1222.440491 491.499331 
L 1223.433197 491.667803 
L 1224.425903 490.930634 
L 1225.418609 491.78235 
L 1226.411315 490.963429 
L 1227.404021 492.090861 
L 1228.396727 490.961841 
L 1229.389432 491.89461 
L 1230.382138 491.450436 
L 1231.374844 492.134043 
L 1232.36755 490.274794 
L 1233.360256 491.423868 
L 1234.352962 491.444725 
L 1235.345668 491.955187 
L 1236.338374 491.81897 
L 1237.33108 492.093535 
L 1238.323786 491.343448 
L 1239.316492 492.422677 
L 1240.309198 491.219152 
L 1241.301904 491.530199 
L 1242.29461 491.531927 
L 1244.280021 491.983599 
L 1245.272727 491.32679 
L 1245.272727 491.32679 
" clip-path="url(#p5622db6fdd)" style="fill: none; stroke: #1f77b4; stroke-width: 1.5; stroke-linecap: square"/>
   </g>
   <g id="patch_3">
    <path d="M 180 512.64 
L 180 69.12 
" style="fill: none; stroke: #000000; stroke-width: 0.8; stroke-linejoin: miter; stroke-linecap: square"/>
   </g>
   <g id="patch_4">
    <path d="M 1296 512.64 
L 1296 69.12 
" style="fill: none; stroke: #000000; stroke-width: 0.8; stroke-linejoin: miter; stroke-linecap: square"/>
   </g>
   <g id="patch_5">
    <path d="M 180 512.64 
L 1296 512.64 
" style="fill: none; stroke: #000000; stroke-width: 0.8; stroke-linejoin: miter; stroke-linecap: square"/>
   </g>
   <g id="patch_6">
    <path d="M 180 69.12 
L 1296 69.12 
" style="fill: none; stroke: #000000; stroke-width: 0.8; stroke-linejoin: miter; stroke-linecap: square"/>
   </g>
   <g id="text_14">
    <!-- source24-receiver17 -->
    <g transform="translate(532.175 60.80125) scale(0.4 -0.4)">
     <defs>
      <path id="DejaVuSans-73" d="M 2834 3397 
L 2834 2853 
Q 2591 2978 2328 3040 
Q 2066 3103 1784 3103 
Q 1356 3103 1142 2972 
Q 928 2841 928 2578 
Q 928 2378 1081 2264 
Q 1234 2150 1697 2047 
L 1894 2003 
Q 2506 1872 2764 1633 
Q 3022 1394 3022 966 
Q 3022 478 2636 193 
Q 2250 -91 1575 -91 
Q 1294 -91 989 -36 
Q 684 19 347 128 
L 347 722 
Q 666 556 975 473 
Q 1284 391 1588 391 
Q 1994 391 2212 530 
Q 2431 669 2431 922 
Q 2431 1156 2273 1281 
Q 2116 1406 1581 1522 
L 1381 1569 
Q 847 1681 609 1914 
Q 372 2147 372 2553 
Q 372 3047 722 3315 
Q 1072 3584 1716 3584 
Q 2034 3584 2315 3537 
Q 2597 3491 2834 3397 
z
" transform="scale(0.015625)"/>
      <path id="DejaVuSans-6f" d="M 1959 3097 
Q 1497 3097 1228 2736 
Q 959 2375 959 1747 
Q 959 1119 1226 758 
Q 1494 397 1959 397 
Q 2419 397 2687 759 
Q 2956 1122 2956 1747 
Q 2956 2369 2687 2733 
Q 2419 3097 1959 3097 
z
M 1959 3584 
Q 2709 3584 3137 3096 
Q 3566 2609 3566 1747 
Q 3566 888 3137 398 
Q 2709 -91 1959 -91 
Q 1206 -91 779 398 
Q 353 888 353 1747 
Q 353 2609 779 3096 
Q 1206 3584 1959 3584 
z
" transform="scale(0.015625)"/>
      <path id="DejaVuSans-75" d="M 544 1381 
L 544 3500 
L 1119 3500 
L 1119 1403 
Q 1119 906 1312 657 
Q 1506 409 1894 409 
Q 2359 409 2629 706 
Q 2900 1003 2900 1516 
L 2900 3500 
L 3475 3500 
L 3475 0 
L 2900 0 
L 2900 538 
Q 2691 219 2414 64 
Q 2138 -91 1772 -91 
Q 1169 -91 856 284 
Q 544 659 544 1381 
z
M 1991 3584 
L 1991 3584 
z
" transform="scale(0.015625)"/>
      <path id="DejaVuSans-72" d="M 2631 2963 
Q 2534 3019 2420 3045 
Q 2306 3072 2169 3072 
Q 1681 3072 1420 2755 
Q 1159 2438 1159 1844 
L 1159 0 
L 581 0 
L 581 3500 
L 1159 3500 
L 1159 2956 
Q 1341 3275 1631 3429 
Q 1922 3584 2338 3584 
Q 2397 3584 2469 3576 
Q 2541 3569 2628 3553 
L 2631 2963 
z
" transform="scale(0.015625)"/>
      <path id="DejaVuSans-63" d="M 3122 3366 
L 3122 2828 
Q 2878 2963 2633 3030 
Q 2388 3097 2138 3097 
Q 1578 3097 1268 2742 
Q 959 2388 959 1747 
Q 959 1106 1268 751 
Q 1578 397 2138 397 
Q 2388 397 2633 464 
Q 2878 531 3122 666 
L 3122 134 
Q 2881 22 2623 -34 
Q 2366 -91 2075 -91 
Q 1284 -91 818 406 
Q 353 903 353 1747 
Q 353 2603 823 3093 
Q 1294 3584 2113 3584 
Q 2378 3584 2631 3529 
Q 2884 3475 3122 3366 
z
" transform="scale(0.015625)"/>
      <path id="DejaVuSans-65" d="M 3597 1894 
L 3597 1613 
L 953 1613 
Q 991 1019 1311 708 
Q 1631 397 2203 397 
Q 2534 397 2845 478 
Q 3156 559 3463 722 
L 3463 178 
Q 3153 47 2828 -22 
Q 2503 -91 2169 -91 
Q 1331 -91 842 396 
Q 353 884 353 1716 
Q 353 2575 817 3079 
Q 1281 3584 2069 3584 
Q 2775 3584 3186 3129 
Q 3597 2675 3597 1894 
z
M 3022 2063 
Q 3016 2534 2758 2815 
Q 2500 3097 2075 3097 
Q 1594 3097 1305 2825 
Q 1016 2553 972 2059 
L 3022 2063 
z
" transform="scale(0.015625)"/>
      <path id="DejaVuSans-2d" d="M 313 2009 
L 1997 2009 
L 1997 1497 
L 313 1497 
L 313 2009 
z
" transform="scale(0.015625)"/>
      <path id="DejaVuSans-69" d="M 603 3500 
L 1178 3500 
L 1178 0 
L 603 0 
L 603 3500 
z
M 603 4863 
L 1178 4863 
L 1178 4134 
L 603 4134 
L 603 4863 
z
" transform="scale(0.015625)"/>
      <path id="DejaVuSans-76" d="M 191 3500 
L 800 3500 
L 1894 563 
L 2988 3500 
L 3597 3500 
L 2284 0 
L 1503 0 
L 191 3500 
z
" transform="scale(0.015625)"/>
      <path id="DejaVuSans-37" d="M 525 4666 
L 3525 4666 
L 3525 4397 
L 1831 0 
L 1172 0 
L 2766 4134 
L 525 4134 
L 525 4666 
z
" transform="scale(0.015625)"/>
     </defs>
     <use xlink:href="#DejaVuSans-73"/>
     <use xlink:href="#DejaVuSans-6f" x="52.099609"/>
     <use xlink:href="#DejaVuSans-75" x="113.28125"/>
     <use xlink:href="#DejaVuSans-72" x="176.660156"/>
     <use xlink:href="#DejaVuSans-63" x="215.523438"/>
     <use xlink:href="#DejaVuSans-65" x="270.503906"/>
     <use xlink:href="#DejaVuSans-32" x="332.027344"/>
     <use xlink:href="#DejaVuSans-34" x="395.650391"/>
     <use xlink:href="#DejaVuSans-2d" x="459.273438"/>
     <use xlink:href="#DejaVuSans-72" x="495.357422"/>
     <use xlink:href="#DejaVuSans-65" x="534.220703"/>
     <use xlink:href="#DejaVuSans-63" x="595.744141"/>
     <use xlink:href="#DejaVuSans-65" x="650.724609"/>
     <use xlink:href="#DejaVuSans-69" x="712.248047"/>
     <use xlink:href="#DejaVuSans-76" x="740.03125"/>
     <use xlink:href="#DejaVuSans-65" x="799.210938"/>
     <use xlink:href="#DejaVuSans-72" x="860.734375"/>
     <use xlink:href="#DejaVuSans-31" x="901.847656"/>
     <use xlink:href="#DejaVuSans-37" x="965.470703"/>
    </g>
   </g>
  </g>
 </g>
 <defs>
  <clipPath id="p5622db6fdd">
   <rect x="180" y="69.12" width="1116" height="443.52"/>
  </clipPath>
 </defs>
</svg>
