<?xml version="1.0" encoding="utf-8" standalone="no"?>
<!DOCTYPE svg PUBLIC "-//W3C//DTD SVG 1.1//EN"
  "http://www.w3.org/Graphics/SVG/1.1/DTD/svg11.dtd">
<svg xmlns:xlink="http://www.w3.org/1999/xlink" width="1440pt" height="576pt" viewBox="0 0 1440 576" xmlns="http://www.w3.org/2000/svg" version="1.1">
 <metadata>
  <rdf:RDF xmlns:dc="http://purl.org/dc/elements/1.1/" xmlns:cc="http://creativecommons.org/ns#" xmlns:rdf="http://www.w3.org/1999/02/22-rdf-syntax-ns#">
   <cc:Work>
    <dc:type rdf:resource="http://purl.org/dc/dcmitype/StillImage"/>
    <dc:date>2024-05-22T04:50:26.739933</dc:date>
    <dc:format>image/svg+xml</dc:format>
    <dc:creator>
     <cc:Agent>
      <dc:title>Matplotlib v3.8.3, https://matplotlib.org/</dc:title>
     </cc:Agent>
    </dc:creator>
   </cc:Work>
  </rdf:RDF>
 </metadata>
 <defs>
  <style type="text/css">*{stroke-linejoin: round; stroke-linecap: butt}</style>
 </defs>
 <g id="figure_1">
  <g id="patch_1">
   <path d="M 0 576 
L 1440 576 
L 1440 0 
L 0 0 
z
" style="fill: #ffffff"/>
  </g>
  <g id="axes_1">
   <g id="patch_2">
    <path d="M 180 512.64 
L 1296 512.64 
L 1296 69.12 
L 180 69.12 
z
" style="fill: #ffffff"/>
   </g>
   <g id="matplotlib.axis_1">
    <g id="xtick_1">
     <g id="line2d_1">
      <defs>
       <path id="m24671ca014" d="M 0 0 
L 0 3.5 
" style="stroke: #000000; stroke-width: 0.8"/>
      </defs>
      <g>
       <use xlink:href="#m24671ca014" x="229.734567" y="512.64" style="stroke: #000000; stroke-width: 0.8"/>
      </g>
     </g>
     <g id="text_1">
      <!-- 0 -->
      <g transform="translate(226.553317 527.238438) scale(0.1 -0.1)">
       <defs>
        <path id="DejaVuSans-30" d="M 2034 4250 
Q 1547 4250 1301 3770 
Q 1056 3291 1056 2328 
Q 1056 1369 1301 889 
Q 1547 409 2034 409 
Q 2525 409 2770 889 
Q 3016 1369 3016 2328 
Q 3016 3291 2770 3770 
Q 2525 4250 2034 4250 
z
M 2034 4750 
Q 2819 4750 3233 4129 
Q 3647 3509 3647 2328 
Q 3647 1150 3233 529 
Q 2819 -91 2034 -91 
Q 1250 -91 836 529 
Q 422 1150 422 2328 
Q 422 3509 836 4129 
Q 1250 4750 2034 4750 
z
" transform="scale(0.015625)"/>
       </defs>
       <use xlink:href="#DejaVuSans-30"/>
      </g>
     </g>
    </g>
    <g id="xtick_2">
     <g id="line2d_2">
      <g>
       <use xlink:href="#m24671ca014" x="433.04074" y="512.64" style="stroke: #000000; stroke-width: 0.8"/>
      </g>
     </g>
     <g id="text_2">
      <!-- 500 -->
      <g transform="translate(423.49699 527.238438) scale(0.1 -0.1)">
       <defs>
        <path id="DejaVuSans-35" d="M 691 4666 
L 3169 4666 
L 3169 4134 
L 1269 4134 
L 1269 2991 
Q 1406 3038 1543 3061 
Q 1681 3084 1819 3084 
Q 2600 3084 3056 2656 
Q 3513 2228 3513 1497 
Q 3513 744 3044 326 
Q 2575 -91 1722 -91 
Q 1428 -91 1123 -41 
Q 819 9 494 109 
L 494 744 
Q 775 591 1075 516 
Q 1375 441 1709 441 
Q 2250 441 2565 725 
Q 2881 1009 2881 1497 
Q 2881 1984 2565 2268 
Q 2250 2553 1709 2553 
Q 1456 2553 1204 2497 
Q 953 2441 691 2322 
L 691 4666 
z
" transform="scale(0.015625)"/>
       </defs>
       <use xlink:href="#DejaVuSans-35"/>
       <use xlink:href="#DejaVuSans-30" x="63.623047"/>
       <use xlink:href="#DejaVuSans-30" x="127.246094"/>
      </g>
     </g>
    </g>
    <g id="xtick_3">
     <g id="line2d_3">
      <g>
       <use xlink:href="#m24671ca014" x="636.346913" y="512.64" style="stroke: #000000; stroke-width: 0.8"/>
      </g>
     </g>
     <g id="text_3">
      <!-- 1000 -->
      <g transform="translate(623.621913 527.238438) scale(0.1 -0.1)">
       <defs>
        <path id="DejaVuSans-31" d="M 794 531 
L 1825 531 
L 1825 4091 
L 703 3866 
L 703 4441 
L 1819 4666 
L 2450 4666 
L 2450 531 
L 3481 531 
L 3481 0 
L 794 0 
L 794 531 
z
" transform="scale(0.015625)"/>
       </defs>
       <use xlink:href="#DejaVuSans-31"/>
       <use xlink:href="#DejaVuSans-30" x="63.623047"/>
       <use xlink:href="#DejaVuSans-30" x="127.246094"/>
       <use xlink:href="#DejaVuSans-30" x="190.869141"/>
      </g>
     </g>
    </g>
    <g id="xtick_4">
     <g id="line2d_4">
      <g>
       <use xlink:href="#m24671ca014" x="839.653087" y="512.64" style="stroke: #000000; stroke-width: 0.8"/>
      </g>
     </g>
     <g id="text_4">
      <!-- 1500 -->
      <g transform="translate(826.928087 527.238438) scale(0.1 -0.1)">
       <use xlink:href="#DejaVuSans-31"/>
       <use xlink:href="#DejaVuSans-35" x="63.623047"/>
       <use xlink:href="#DejaVuSans-30" x="127.246094"/>
       <use xlink:href="#DejaVuSans-30" x="190.869141"/>
      </g>
     </g>
    </g>
    <g id="xtick_5">
     <g id="line2d_5">
      <g>
       <use xlink:href="#m24671ca014" x="1042.95926" y="512.64" style="stroke: #000000; stroke-width: 0.8"/>
      </g>
     </g>
     <g id="text_5">
      <!-- 2000 -->
      <g transform="translate(1030.23426 527.238438) scale(0.1 -0.1)">
       <defs>
        <path id="DejaVuSans-32" d="M 1228 531 
L 3431 531 
L 3431 0 
L 469 0 
L 469 531 
Q 828 903 1448 1529 
Q 2069 2156 2228 2338 
Q 2531 2678 2651 2914 
Q 2772 3150 2772 3378 
Q 2772 3750 2511 3984 
Q 2250 4219 1831 4219 
Q 1534 4219 1204 4116 
Q 875 4013 500 3803 
L 500 4441 
Q 881 4594 1212 4672 
Q 1544 4750 1819 4750 
Q 2544 4750 2975 4387 
Q 3406 4025 3406 3419 
Q 3406 3131 3298 2873 
Q 3191 2616 2906 2266 
Q 2828 2175 2409 1742 
Q 1991 1309 1228 531 
z
" transform="scale(0.015625)"/>
       </defs>
       <use xlink:href="#DejaVuSans-32"/>
       <use xlink:href="#DejaVuSans-30" x="63.623047"/>
       <use xlink:href="#DejaVuSans-30" x="127.246094"/>
       <use xlink:href="#DejaVuSans-30" x="190.869141"/>
      </g>
     </g>
    </g>
    <g id="xtick_6">
     <g id="line2d_6">
      <g>
       <use xlink:href="#m24671ca014" x="1246.265433" y="512.64" style="stroke: #000000; stroke-width: 0.8"/>
      </g>
     </g>
     <g id="text_6">
      <!-- 2500 -->
      <g transform="translate(1233.540433 527.238438) scale(0.1 -0.1)">
       <use xlink:href="#DejaVuSans-32"/>
       <use xlink:href="#DejaVuSans-35" x="63.623047"/>
       <use xlink:href="#DejaVuSans-30" x="127.246094"/>
       <use xlink:href="#DejaVuSans-30" x="190.869141"/>
      </g>
     </g>
    </g>
   </g>
   <g id="matplotlib.axis_2">
    <g id="ytick_1">
     <g id="line2d_7">
      <defs>
       <path id="md7a479f8c6" d="M 0 0 
L -3.5 0 
" style="stroke: #000000; stroke-width: 0.8"/>
      </defs>
      <g>
       <use xlink:href="#md7a479f8c6" x="180" y="470.665968" style="stroke: #000000; stroke-width: 0.8"/>
      </g>
     </g>
     <g id="text_7">
      <!-- −3 -->
      <g transform="translate(158.257812 474.465186) scale(0.1 -0.1)">
       <defs>
        <path id="DejaVuSans-2212" d="M 678 2272 
L 4684 2272 
L 4684 1741 
L 678 1741 
L 678 2272 
z
" transform="scale(0.015625)"/>
        <path id="DejaVuSans-33" d="M 2597 2516 
Q 3050 2419 3304 2112 
Q 3559 1806 3559 1356 
Q 3559 666 3084 287 
Q 2609 -91 1734 -91 
Q 1441 -91 1130 -33 
Q 819 25 488 141 
L 488 750 
Q 750 597 1062 519 
Q 1375 441 1716 441 
Q 2309 441 2620 675 
Q 2931 909 2931 1356 
Q 2931 1769 2642 2001 
Q 2353 2234 1838 2234 
L 1294 2234 
L 1294 2753 
L 1863 2753 
Q 2328 2753 2575 2939 
Q 2822 3125 2822 3475 
Q 2822 3834 2567 4026 
Q 2313 4219 1838 4219 
Q 1578 4219 1281 4162 
Q 984 4106 628 3988 
L 628 4550 
Q 988 4650 1302 4700 
Q 1616 4750 1894 4750 
Q 2613 4750 3031 4423 
Q 3450 4097 3450 3541 
Q 3450 3153 3228 2886 
Q 3006 2619 2597 2516 
z
" transform="scale(0.015625)"/>
       </defs>
       <use xlink:href="#DejaVuSans-2212"/>
       <use xlink:href="#DejaVuSans-33" x="83.789062"/>
      </g>
     </g>
    </g>
    <g id="ytick_2">
     <g id="line2d_8">
      <g>
       <use xlink:href="#md7a479f8c6" x="180" y="411.576953" style="stroke: #000000; stroke-width: 0.8"/>
      </g>
     </g>
     <g id="text_8">
      <!-- −2 -->
      <g transform="translate(158.257812 415.376171) scale(0.1 -0.1)">
       <use xlink:href="#DejaVuSans-2212"/>
       <use xlink:href="#DejaVuSans-32" x="83.789062"/>
      </g>
     </g>
    </g>
    <g id="ytick_3">
     <g id="line2d_9">
      <g>
       <use xlink:href="#md7a479f8c6" x="180" y="352.487938" style="stroke: #000000; stroke-width: 0.8"/>
      </g>
     </g>
     <g id="text_9">
      <!-- −1 -->
      <g transform="translate(158.257812 356.287156) scale(0.1 -0.1)">
       <use xlink:href="#DejaVuSans-2212"/>
       <use xlink:href="#DejaVuSans-31" x="83.789062"/>
      </g>
     </g>
    </g>
    <g id="ytick_4">
     <g id="line2d_10">
      <g>
       <use xlink:href="#md7a479f8c6" x="180" y="293.398923" style="stroke: #000000; stroke-width: 0.8"/>
      </g>
     </g>
     <g id="text_10">
      <!-- 0 -->
      <g transform="translate(166.6375 297.198141) scale(0.1 -0.1)">
       <use xlink:href="#DejaVuSans-30"/>
      </g>
     </g>
    </g>
    <g id="ytick_5">
     <g id="line2d_11">
      <g>
       <use xlink:href="#md7a479f8c6" x="180" y="234.309908" style="stroke: #000000; stroke-width: 0.8"/>
      </g>
     </g>
     <g id="text_11">
      <!-- 1 -->
      <g transform="translate(166.6375 238.109126) scale(0.1 -0.1)">
       <use xlink:href="#DejaVuSans-31"/>
      </g>
     </g>
    </g>
    <g id="ytick_6">
     <g id="line2d_12">
      <g>
       <use xlink:href="#md7a479f8c6" x="180" y="175.220893" style="stroke: #000000; stroke-width: 0.8"/>
      </g>
     </g>
     <g id="text_12">
      <!-- 2 -->
      <g transform="translate(166.6375 179.020111) scale(0.1 -0.1)">
       <use xlink:href="#DejaVuSans-32"/>
      </g>
     </g>
    </g>
    <g id="ytick_7">
     <g id="line2d_13">
      <g>
       <use xlink:href="#md7a479f8c6" x="180" y="116.131878" style="stroke: #000000; stroke-width: 0.8"/>
      </g>
     </g>
     <g id="text_13">
      <!-- 3 -->
      <g transform="translate(166.6375 119.931096) scale(0.1 -0.1)">
       <use xlink:href="#DejaVuSans-33"/>
      </g>
     </g>
    </g>
   </g>
   <g id="line2d_14">
    <path d="M 230.727273 282.224854 
L 231.719979 282.114905 
L 234.698096 281.277065 
L 236.683508 280.340845 
L 237.676214 279.792662 
L 239.661626 278.303705 
L 240.654332 277.297562 
L 242.639744 274.886369 
L 243.63245 273.27931 
L 244.625156 271.016265 
L 245.617862 269.03928 
L 246.610568 268.557972 
L 247.603273 271.323762 
L 248.595979 273.046169 
L 249.588685 251.794942 
L 250.581391 216.952902 
L 251.574097 189.15164 
L 252.566803 170.557348 
L 253.559509 160.101957 
L 254.552215 159.612526 
L 255.544921 170.370026 
L 256.537627 190.518322 
L 257.530333 194.292915 
L 258.523039 179.232744 
L 259.515745 173.409753 
L 260.50845 186.947364 
L 261.501156 236.845522 
L 262.493862 204.552489 
L 263.486568 165.36817 
L 264.479274 152.372235 
L 265.47198 155.908411 
L 266.464686 175.718391 
L 267.457392 209.526069 
L 268.450098 223.990239 
L 270.43551 175.612922 
L 271.428216 156.621454 
L 272.420922 148.826691 
L 273.413627 157.070852 
L 275.399039 228.802436 
L 276.391745 166.39416 
L 277.384451 145.876676 
L 278.377157 148.742372 
L 279.369863 175.835216 
L 280.362569 182.228275 
L 281.355275 133.15417 
L 282.347981 105.641463 
L 283.340687 92.307327 
L 284.333393 89.28 
L 285.326099 96.411163 
L 286.318804 115.817456 
L 287.31151 154.793858 
L 288.304216 225.548625 
L 289.296922 186.701804 
L 290.289628 175.208747 
L 291.282334 191.634915 
L 292.27504 217.215358 
L 293.267746 204.34131 
L 294.260452 196.923117 
L 295.253158 218.384943 
L 296.245864 323.607676 
L 297.23857 238.998243 
L 298.231276 211.477785 
L 299.223981 216.850787 
L 301.209393 274.641401 
L 302.202099 249.038962 
L 303.194805 245.71613 
L 305.180217 280.545298 
L 306.172923 272.471094 
L 307.165629 273.354523 
L 308.158335 287.00794 
L 309.151041 298.779691 
L 310.143747 285.908951 
L 311.136453 287.987655 
L 312.129159 294.908765 
L 313.121864 303.611505 
L 314.11457 302.631649 
L 315.107276 309.774671 
L 316.099982 306.573123 
L 317.092688 308.916493 
L 318.085394 309.076949 
L 319.0781 311.584653 
L 320.070806 312.756164 
L 322.056218 311.392329 
L 323.048924 323.393126 
L 324.04163 319.684434 
L 325.034336 323.075148 
L 326.027041 323.122959 
L 327.019747 326.545704 
L 328.012453 324.306895 
L 329.005159 329.152183 
L 329.997865 330.409373 
L 330.990571 329.489363 
L 331.983277 337.761129 
L 332.975983 338.400674 
L 333.968689 331.486786 
L 334.961395 337.877234 
L 335.954101 343.009334 
L 336.946807 337.830028 
L 337.939513 340.389799 
L 338.932218 345.319952 
L 339.924924 345.213069 
L 340.91763 342.912171 
L 342.903042 340.407826 
L 343.895748 348.051172 
L 344.888454 349.500562 
L 345.88116 345.256213 
L 346.873866 354.714759 
L 347.866572 352.577033 
L 348.859278 351.00023 
L 349.851984 355.990231 
L 350.84469 355.194914 
L 351.837395 354.183942 
L 352.830101 357.959182 
L 353.822807 350.170493 
L 354.815513 359.554818 
L 355.808219 365.631336 
L 356.800925 361.606422 
L 357.793631 366.770214 
L 358.786337 354.528859 
L 359.779043 362.727556 
L 360.771749 360.904105 
L 361.764455 368.83866 
L 362.757161 371.055888 
L 363.749867 368.301713 
L 364.742572 373.781569 
L 365.735278 369.389418 
L 366.727984 367.570789 
L 367.72069 369.850818 
L 368.713396 369.955334 
L 369.706102 372.073149 
L 370.698808 375.301836 
L 371.691514 375.083307 
L 372.68422 368.484399 
L 373.676926 382.338956 
L 374.669632 377.384931 
L 375.662338 381.014466 
L 376.655044 371.589493 
L 377.64775 381.27728 
L 378.640455 376.321394 
L 379.633161 376.451957 
L 380.625867 388.357903 
L 381.618573 386.427205 
L 382.611279 379.796347 
L 383.603985 386.588637 
L 384.596691 375.480357 
L 385.589397 377.113164 
L 386.582103 389.582352 
L 387.574809 384.017447 
L 388.567515 395.590996 
L 389.560221 390.68087 
L 390.552927 379.043966 
L 391.545632 382.064451 
L 392.538338 374.16341 
L 393.531044 394.098083 
L 394.52375 389.757009 
L 395.516456 377.551101 
L 396.509162 401.368165 
L 397.501868 379.969802 
L 398.494574 391.570355 
L 399.48728 392.567285 
L 400.479986 383.510452 
L 401.472692 390.204242 
L 402.465398 393.66411 
L 403.458104 381.435051 
L 404.450809 396.639217 
L 405.443515 392.148514 
L 406.436221 411.562388 
L 407.428927 379.735986 
L 408.421633 389.250112 
L 409.414339 393.186432 
L 410.407045 392.300607 
L 411.399751 396.172144 
L 412.392457 404.11594 
L 413.385163 392.96264 
L 414.377869 390.362598 
L 415.370575 392.351762 
L 416.363281 397.57164 
L 417.355986 405.595024 
L 418.348692 404.392031 
L 419.341398 392.811361 
L 420.334104 401.255954 
L 421.32681 397.445372 
L 422.319516 395.17522 
L 423.312222 392.620637 
L 424.304928 408.835742 
L 425.297634 397.787917 
L 426.29034 417.137591 
L 427.283046 396.514125 
L 428.275752 398.429372 
L 429.268458 414.176162 
L 430.261163 409.00325 
L 431.253869 412.136879 
L 432.246575 402.697379 
L 433.239281 404.411499 
L 434.231987 414.305481 
L 435.224693 403.194766 
L 436.217399 402.0602 
L 437.210105 435.945833 
L 438.202811 413.997123 
L 439.195517 401.720014 
L 440.188223 403.944549 
L 441.180929 397.686012 
L 442.173635 396.205942 
L 443.166341 411.676201 
L 444.159046 399.971293 
L 445.151752 415.360122 
L 446.144458 408.308928 
L 447.137164 417.558244 
L 448.12987 397.030523 
L 449.122576 412.894629 
L 450.115282 403.494262 
L 451.107988 395.157297 
L 452.100694 427.725365 
L 453.0934 416.064072 
L 454.086106 398.531951 
L 455.078812 393.996622 
L 456.071518 417.168106 
L 457.064223 408.255141 
L 458.056929 417.757704 
L 459.049635 418.531753 
L 460.042341 414.052563 
L 462.027753 429.860919 
L 463.020459 421.799048 
L 464.013165 404.79014 
L 465.005871 438.925285 
L 465.998577 409.855062 
L 466.991283 418.496438 
L 467.983989 420.359499 
L 468.976695 415.90672 
L 469.9694 423.454066 
L 470.962106 426.351247 
L 471.954812 406.664208 
L 472.947518 423.935714 
L 473.940224 433.8992 
L 474.93293 404.628091 
L 475.925636 405.759368 
L 476.918342 429.126559 
L 477.911048 428.666798 
L 478.903754 417.180927 
L 479.89646 424.512327 
L 480.889166 408.768804 
L 481.881872 453.119367 
L 482.874577 412.36345 
L 483.867283 435.526858 
L 484.859989 430.793352 
L 485.852695 415.894821 
L 486.845401 415.056345 
L 487.838107 447.285298 
L 488.830813 423.611371 
L 489.823519 430.609654 
L 490.816225 419.907215 
L 491.808931 431.294462 
L 492.801637 420.292878 
L 493.794343 403.984345 
L 494.787049 419.497396 
L 495.779754 433.078596 
L 496.77246 432.666776 
L 497.765166 446.396449 
L 498.757872 414.633024 
L 499.750578 418.257329 
L 500.743284 425.407006 
L 501.73599 426.815598 
L 502.728696 426.410514 
L 503.721402 429.913671 
L 504.714108 445.273722 
L 505.706814 411.227164 
L 506.69952 446.990271 
L 507.692226 422.979199 
L 508.684932 413.522146 
L 509.677637 450.126708 
L 510.670343 449.576728 
L 511.663049 419.720797 
L 512.655755 436.772048 
L 513.648461 425.948869 
L 514.641167 419.268555 
L 515.633873 462.64099 
L 516.626579 427.586631 
L 517.619285 436.482903 
L 518.611991 428.65442 
L 519.604697 416.340516 
L 520.597403 444.601514 
L 521.590109 410.998005 
L 522.582814 459.235919 
L 523.57552 423.915831 
L 524.568226 419.126368 
L 525.560932 445.066659 
L 526.553638 415.241601 
L 527.546344 440.082356 
L 528.53905 434.703827 
L 529.531756 431.69868 
L 530.524462 435.680041 
L 531.517168 447.237697 
L 532.509874 440.192269 
L 533.50258 437.561616 
L 534.495286 414.361282 
L 535.487991 436.512307 
L 536.480697 429.19591 
L 537.473403 431.648975 
L 538.466109 437.422245 
L 539.458815 407.46129 
L 540.451521 405.867981 
L 541.444227 467.210465 
L 542.436933 450.361832 
L 543.429639 482.620725 
L 544.422345 442.987136 
L 545.415051 439.926342 
L 546.407757 470.630847 
L 547.400463 432.133413 
L 548.393168 428.239025 
L 549.385874 414.893787 
L 550.37858 421.80748 
L 551.371286 435.356123 
L 552.363992 441.444159 
L 553.356698 443.687273 
L 554.349404 433.958867 
L 555.34211 445.91203 
L 556.334816 436.674413 
L 557.327522 449.062081 
L 558.320228 422.902118 
L 560.30564 465.589713 
L 561.298345 427.865809 
L 562.291051 417.737957 
L 564.276463 446.828446 
L 565.269169 469.901993 
L 566.261875 413.726299 
L 567.254581 441.063873 
L 568.247287 429.29097 
L 569.239993 435.267687 
L 570.232699 436.351317 
L 571.225405 433.781147 
L 572.218111 445.609265 
L 573.210817 449.143941 
L 574.203523 445.370681 
L 575.196228 420.407482 
L 576.188934 424.460451 
L 577.18164 448.276434 
L 578.174346 489.959073 
L 579.167052 451.258523 
L 580.159758 444.977517 
L 581.152464 435.460854 
L 582.14517 462.393779 
L 583.137876 439.245255 
L 584.130582 435.50035 
L 585.123288 440.946306 
L 586.115994 456.467502 
L 587.1087 476.670025 
L 588.101405 437.098017 
L 589.094111 431.650383 
L 590.086817 461.557532 
L 591.079523 449.309127 
L 592.072229 470.850729 
L 593.064935 436.257894 
L 594.057641 439.842129 
L 595.050347 441.339019 
L 596.043053 434.867875 
L 597.035759 477.277349 
L 598.028465 463.285788 
L 599.021171 443.867814 
L 600.013877 460.616978 
L 601.006582 432.413036 
L 601.999288 438.859184 
L 603.9847 446.646618 
L 604.977406 434.089618 
L 605.970112 457.241347 
L 606.962818 464.188907 
L 607.955524 476.864704 
L 609.940936 443.376985 
L 610.933642 452.509122 
L 611.926348 448.325574 
L 612.919054 442.43396 
L 614.904465 461.746019 
L 615.897171 439.060926 
L 616.889877 447.020964 
L 617.882583 464.293552 
L 618.875289 474.716787 
L 619.867995 444.738634 
L 620.860701 455.228957 
L 621.853407 440.272964 
L 622.846113 437.008098 
L 623.838819 447.518918 
L 624.831525 460.268854 
L 625.824231 459.556686 
L 626.816936 452.98255 
L 627.809642 454.471023 
L 628.802348 443.343627 
L 629.795054 443.980322 
L 630.78776 454.315432 
L 631.780466 448.671907 
L 632.773172 452.683527 
L 633.765878 455.617079 
L 634.758584 453.870013 
L 635.75129 460.737756 
L 636.743996 455.178629 
L 637.736702 447.102042 
L 638.729408 465.514708 
L 639.722114 448.634207 
L 640.714819 468.322501 
L 641.707525 453.527612 
L 642.700231 451.395452 
L 643.692937 455.887639 
L 644.685643 450.577148 
L 645.678349 465.300935 
L 646.671055 455.641698 
L 647.663761 452.561254 
L 648.656467 454.408887 
L 649.649173 454.535257 
L 650.641879 455.600567 
L 651.634585 454.762879 
L 652.627291 451.825807 
L 653.619996 451.318589 
L 654.612702 455.922195 
L 655.605408 459.139821 
L 656.598114 459.21473 
L 657.59082 459.899656 
L 658.583526 457.164522 
L 659.576232 454.984457 
L 660.568938 448.406953 
L 661.561644 456.131926 
L 662.55435 458.401422 
L 663.547056 453.595284 
L 664.539762 454.124478 
L 665.532468 458.772116 
L 666.525173 458.756612 
L 667.517879 455.627865 
L 668.510585 453.85583 
L 669.503291 463.223782 
L 670.495997 457.608182 
L 671.488703 456.663066 
L 672.481409 459.84033 
L 673.474115 455.504522 
L 674.466821 459.521784 
L 675.459527 455.840374 
L 676.452233 460.866752 
L 677.444939 461.587479 
L 678.437645 460.695999 
L 679.43035 458.630372 
L 680.423056 459.380763 
L 681.415762 460.484334 
L 682.408468 461.21008 
L 683.401174 457.022931 
L 684.39388 459.530099 
L 685.386586 461.514621 
L 686.379292 457.622325 
L 687.371998 458.57741 
L 688.364704 457.708505 
L 689.35741 462.05998 
L 690.350116 461.690995 
L 691.342822 462.889787 
L 692.335527 461.972889 
L 693.328233 462.132365 
L 694.320939 462.005832 
L 695.313645 459.415561 
L 696.306351 463.599537 
L 697.299057 462.187627 
L 698.291763 462.486637 
L 699.284469 460.846713 
L 700.277175 461.864971 
L 701.269881 463.525775 
L 702.262587 460.800796 
L 703.255293 459.705792 
L 704.247999 460.030219 
L 705.240705 460.214891 
L 706.23341 461.461437 
L 707.226116 460.637467 
L 708.218822 464.203401 
L 709.211528 463.688885 
L 710.204234 463.680572 
L 712.189646 461.775578 
L 713.182352 461.473362 
L 714.175058 464.426724 
L 715.167764 462.355959 
L 716.16047 464.220975 
L 717.153176 463.829138 
L 718.145882 464.22616 
L 719.138587 463.893724 
L 720.131293 462.579284 
L 721.123999 466.121284 
L 722.116705 464.687563 
L 724.102117 467.15981 
L 725.094823 465.269871 
L 726.087529 464.342498 
L 728.072941 465.851449 
L 729.065647 464.094023 
L 730.058353 467.538309 
L 731.051059 465.499521 
L 732.043764 466.95863 
L 734.029176 464.396011 
L 735.021882 465.00911 
L 736.014588 466.122564 
L 737.007294 466.046075 
L 738 469.972558 
L 738.992706 465.863837 
L 739.985412 467.977262 
L 740.978118 467.059949 
L 741.970824 464.923941 
L 742.96353 466.443189 
L 744.948941 467.437332 
L 745.941647 466.152756 
L 746.934353 466.145502 
L 747.927059 465.809543 
L 748.919765 466.906109 
L 750.905177 469.739197 
L 751.897883 468.570179 
L 752.890589 467.050386 
L 753.883295 467.831538 
L 754.876001 466.356139 
L 755.868707 469.150428 
L 756.861413 468.195531 
L 757.854118 468.590724 
L 758.846824 468.60712 
L 759.83953 467.860738 
L 760.832236 468.815173 
L 761.824942 468.497616 
L 762.817648 466.724296 
L 763.810354 466.273461 
L 764.80306 469.172575 
L 765.795766 467.994242 
L 766.788472 467.400328 
L 767.781178 469.214921 
L 769.76659 469.676213 
L 770.759295 468.311634 
L 771.752001 470.277078 
L 772.744707 469.108603 
L 773.737413 469.114494 
L 774.730119 467.696863 
L 775.722825 468.806779 
L 776.715531 470.618687 
L 777.708237 470.445055 
L 778.700943 469.903956 
L 779.693649 469.67273 
L 780.686355 470.823414 
L 781.679061 470.484931 
L 782.671767 469.234101 
L 783.664473 468.375785 
L 784.657178 470.388071 
L 785.649884 470.788909 
L 786.64259 469.902385 
L 787.635296 469.958662 
L 788.628002 470.135405 
L 789.620708 471.401402 
L 790.613414 469.681758 
L 791.60612 469.122366 
L 792.598826 471.750241 
L 793.591532 470.268991 
L 795.576944 470.526896 
L 796.56965 472.573855 
L 797.562355 471.653306 
L 798.555061 473.507347 
L 799.547767 471.757697 
L 800.540473 472.355118 
L 801.533179 473.498129 
L 802.525885 474.214436 
L 803.518591 471.11431 
L 804.511297 472.065615 
L 805.504003 471.450332 
L 806.496709 473.092159 
L 807.489415 472.848899 
L 808.482121 471.272766 
L 809.474827 471.106107 
L 810.467532 471.604613 
L 811.460238 472.564942 
L 812.452944 474.198525 
L 813.44565 472.43696 
L 814.438356 472.316298 
L 815.431062 473.346332 
L 816.423768 473.99567 
L 817.416474 473.473915 
L 818.40918 472.169361 
L 819.401886 473.271739 
L 820.394592 473.107614 
L 821.387298 472.535126 
L 822.380004 473.531281 
L 823.372709 471.846919 
L 824.365415 473.953702 
L 825.358121 473.315206 
L 826.350827 474.8592 
L 827.343533 473.655817 
L 828.336239 475.346607 
L 829.328945 474.47131 
L 830.321651 475.166551 
L 831.314357 474.126538 
L 833.299769 474.20823 
L 834.292475 475.085298 
L 835.285181 472.643111 
L 836.277886 473.257122 
L 837.270592 474.504363 
L 838.263298 476.500171 
L 840.24871 473.626227 
L 841.241416 475.016114 
L 842.234122 474.805514 
L 843.226828 475.454419 
L 844.219534 473.810485 
L 845.21224 476.476697 
L 846.204946 474.559305 
L 847.197652 475.984602 
L 848.190358 474.713789 
L 849.183064 475.213748 
L 850.175769 475.068558 
L 851.168475 474.561647 
L 852.161181 477.756267 
L 853.153887 475.732169 
L 854.146593 476.035801 
L 855.139299 474.516479 
L 856.132005 477.108326 
L 857.124711 476.615636 
L 858.117417 475.371802 
L 859.110123 476.701436 
L 860.102829 475.325371 
L 861.095535 476.78991 
L 862.088241 474.965629 
L 863.080946 476.120544 
L 864.073652 476.473612 
L 865.066358 477.363944 
L 866.059064 475.523205 
L 867.05177 476.529656 
L 868.044476 475.366193 
L 869.037182 476.471511 
L 870.029888 477.324964 
L 871.022594 476.746158 
L 872.0153 476.565757 
L 873.008006 477.086521 
L 874.000712 476.483296 
L 874.993418 478.071561 
L 875.986123 477.266739 
L 876.978829 478.940156 
L 877.971535 477.250285 
L 878.964241 479.017854 
L 879.956947 477.065259 
L 880.949653 478.78257 
L 881.942359 478.896871 
L 882.935065 476.273324 
L 883.927771 477.077201 
L 884.920477 475.444968 
L 885.913183 477.771518 
L 886.905889 476.601889 
L 887.898595 477.756219 
L 888.8913 475.59586 
L 889.884006 477.157827 
L 890.876712 479.776431 
L 891.869418 477.562011 
L 892.862124 480.819425 
L 893.85483 477.700641 
L 894.847536 476.695244 
L 895.840242 478.046458 
L 896.832948 476.767832 
L 897.825654 477.271307 
L 898.81836 479.58091 
L 899.811066 476.627913 
L 900.803772 479.256336 
L 901.796477 478.106936 
L 902.789183 480.671967 
L 903.781889 477.674838 
L 904.774595 478.78871 
L 905.767301 478.448035 
L 906.760007 478.726761 
L 907.752713 478.344757 
L 908.745419 477.498917 
L 909.738125 478.688271 
L 910.730831 479.402916 
L 911.723537 479.638027 
L 912.716243 477.84334 
L 913.708949 479.150673 
L 914.701655 479.730842 
L 915.69436 479.875407 
L 916.687066 478.486753 
L 917.679772 479.647158 
L 918.672478 481.042238 
L 919.665184 478.589185 
L 920.65789 479.493906 
L 921.650596 479.068798 
L 922.643302 479.92003 
L 923.636008 480.118612 
L 924.628714 481.463945 
L 925.62142 479.545969 
L 926.614126 479.903433 
L 927.606832 480.891925 
L 928.599537 478.822852 
L 929.592243 478.790654 
L 931.577655 481.277391 
L 932.570361 479.529233 
L 933.563067 481.574292 
L 934.555773 480.668001 
L 935.548479 480.514971 
L 936.541185 481.580646 
L 937.533891 481.486224 
L 938.526597 480.50812 
L 939.519303 483.556597 
L 940.512009 480.372425 
L 941.504714 483.179822 
L 942.49742 479.738255 
L 943.490126 480.900394 
L 944.482832 481.046156 
L 945.475538 481.50289 
L 946.468244 479.977438 
L 947.46095 482.89209 
L 948.453656 481.500264 
L 949.446362 481.541837 
L 950.439068 480.457163 
L 951.431774 479.9086 
L 952.42448 480.989431 
L 953.417186 479.074198 
L 954.409891 481.32545 
L 955.402597 481.054185 
L 956.395303 481.574202 
L 957.388009 481.653254 
L 958.380715 480.747741 
L 959.373421 481.722497 
L 960.366127 480.72958 
L 961.358833 481.201958 
L 962.351539 482.516621 
L 963.344245 482.138197 
L 964.336951 481.225761 
L 965.329657 483.128194 
L 966.322363 481.242244 
L 967.315068 482.039444 
L 968.307774 480.189962 
L 969.30048 481.578826 
L 970.293186 481.824582 
L 971.285892 481.676301 
L 972.278598 481.847094 
L 973.271304 481.862601 
L 974.26401 482.164134 
L 975.256716 481.370058 
L 976.249422 482.444015 
L 977.242128 483.103776 
L 978.234834 482.692326 
L 979.22754 482.999399 
L 980.220246 482.506797 
L 981.212951 483.145353 
L 982.205657 482.534998 
L 983.198363 482.18539 
L 984.191069 482.613475 
L 985.183775 482.916994 
L 986.176481 481.616957 
L 987.169187 482.077657 
L 988.161893 483.575311 
L 989.154599 484.176688 
L 990.147305 486.16493 
L 991.140011 482.475011 
L 992.132717 483.098974 
L 993.125423 484.499218 
L 995.110834 483.394932 
L 996.10354 483.416398 
L 997.096246 482.383451 
L 998.088952 480.772114 
L 1000.074364 484.98881 
L 1001.06707 483.830639 
L 1002.059776 482.935544 
L 1003.052482 484.067032 
L 1004.045188 483.995277 
L 1005.037894 481.323088 
L 1006.0306 483.238752 
L 1007.023305 482.585112 
L 1008.016011 483.212849 
L 1009.008717 484.639368 
L 1010.001423 484.094885 
L 1010.994129 483.322623 
L 1011.986835 483.673352 
L 1012.979541 484.895296 
L 1013.972247 486.552775 
L 1014.964953 484.360908 
L 1015.957659 484.813753 
L 1016.950365 481.943579 
L 1017.943071 483.644508 
L 1018.935777 483.775586 
L 1019.928482 483.159713 
L 1020.921188 485.42351 
L 1021.913894 485.465428 
L 1022.9066 484.907023 
L 1023.899306 481.694433 
L 1024.892012 482.703092 
L 1025.884718 484.068576 
L 1026.877424 485.05801 
L 1027.87013 482.332424 
L 1028.862836 485.816357 
L 1029.855542 484.835521 
L 1031.840954 486.837254 
L 1032.833659 484.115434 
L 1033.826365 484.491325 
L 1034.819071 483.775737 
L 1035.811777 484.485738 
L 1037.797189 482.953297 
L 1038.789895 484.207731 
L 1039.782601 484.826207 
L 1040.775307 484.796179 
L 1041.768013 485.534987 
L 1042.760719 485.087616 
L 1043.753425 483.692825 
L 1044.746131 485.448369 
L 1045.738837 484.139561 
L 1047.724248 484.865466 
L 1048.716954 486.079271 
L 1049.70966 485.53892 
L 1050.702366 485.324264 
L 1051.695072 485.328711 
L 1052.687778 485.82763 
L 1053.680484 485.530458 
L 1054.67319 486.240719 
L 1055.665896 484.859784 
L 1056.658602 485.062082 
L 1057.651308 486.061465 
L 1058.644014 486.392664 
L 1059.636719 484.337861 
L 1060.629425 484.283017 
L 1061.622131 486.155442 
L 1062.614837 487.010414 
L 1063.607543 487.050656 
L 1064.600249 484.898395 
L 1065.592955 485.518507 
L 1066.585661 484.823558 
L 1067.578367 486.193434 
L 1068.571073 484.043714 
L 1070.556485 485.937195 
L 1071.549191 485.992731 
L 1072.541896 488.088113 
L 1073.534602 486.895093 
L 1074.527308 484.782688 
L 1075.520014 484.114721 
L 1076.51272 486.853941 
L 1077.505426 487.201799 
L 1079.490838 485.492711 
L 1080.483544 485.252512 
L 1081.47625 486.320531 
L 1082.468956 486.061332 
L 1083.461662 486.724514 
L 1084.454368 485.451819 
L 1085.447073 486.455304 
L 1086.439779 485.729882 
L 1087.432485 487.442844 
L 1088.425191 486.700498 
L 1089.417897 485.291192 
L 1090.410603 485.58307 
L 1091.403309 487.124339 
L 1092.396015 486.388783 
L 1093.388721 486.949926 
L 1094.381427 485.959602 
L 1095.374133 484.356976 
L 1096.366839 487.357189 
L 1097.359545 486.693242 
L 1098.35225 485.844474 
L 1099.344956 484.42673 
L 1100.337662 485.864544 
L 1101.330368 487.667612 
L 1102.323074 485.34831 
L 1103.31578 486.626595 
L 1104.308486 486.533914 
L 1105.301192 487.592154 
L 1106.293898 487.473516 
L 1107.286604 486.762272 
L 1108.27931 485.839368 
L 1109.272016 486.979577 
L 1110.264722 486.93919 
L 1111.257428 486.550883 
L 1112.250133 486.814912 
L 1113.242839 485.903946 
L 1114.235545 487.397412 
L 1115.228251 486.088457 
L 1116.220957 487.8668 
L 1117.213663 487.723333 
L 1118.206369 488.589779 
L 1119.199075 486.55395 
L 1120.191781 485.196639 
L 1121.184487 487.103478 
L 1122.177193 486.720042 
L 1123.169899 485.96807 
L 1124.162605 488.288197 
L 1125.15531 487.826809 
L 1126.148016 486.564837 
L 1127.140722 484.852702 
L 1128.133428 486.343957 
L 1129.126134 487.056387 
L 1130.11884 488.03551 
L 1131.111546 487.531394 
L 1132.104252 489.096765 
L 1133.096958 486.147836 
L 1134.089664 485.750744 
L 1135.08237 486.015158 
L 1136.075076 487.021183 
L 1137.067782 488.992739 
L 1138.060487 487.176258 
L 1139.053193 488.189582 
L 1140.045899 486.521878 
L 1141.038605 486.696443 
L 1142.031311 485.937286 
L 1143.024017 487.927185 
L 1144.016723 486.329043 
L 1145.009429 486.98644 
L 1146.002135 486.827076 
L 1146.994841 487.600908 
L 1147.987547 488.651762 
L 1148.980253 488.484601 
L 1149.972959 487.549856 
L 1150.965664 487.109196 
L 1151.95837 486.806481 
L 1152.951076 488.760841 
L 1153.943782 488.186706 
L 1154.936488 488.837134 
L 1155.929194 486.084684 
L 1156.9219 488.589086 
L 1158.907312 487.203135 
L 1159.900018 486.047159 
L 1160.892724 487.582737 
L 1161.88543 486.876731 
L 1162.878136 490.263703 
L 1163.870841 489.008027 
L 1164.863547 486.745001 
L 1165.856253 486.664183 
L 1166.848959 487.828786 
L 1167.841665 488.56516 
L 1168.834371 487.964616 
L 1169.827077 488.047477 
L 1170.819783 487.604089 
L 1171.812489 485.873392 
L 1172.805195 486.383633 
L 1173.797901 487.922556 
L 1174.790607 487.287387 
L 1175.783313 488.039467 
L 1176.776019 487.565053 
L 1177.768724 485.195546 
L 1178.76143 488.39476 
L 1179.754136 490.452427 
L 1180.746842 486.573536 
L 1181.739548 486.434688 
L 1182.732254 485.332662 
L 1183.72496 489.396107 
L 1185.710372 488.276951 
L 1187.695784 486.333547 
L 1188.68849 486.792566 
L 1189.681196 488.374522 
L 1190.673901 487.945031 
L 1192.659313 489.694094 
L 1193.652019 488.834432 
L 1194.644725 487.579987 
L 1195.637431 487.701256 
L 1196.630137 486.082936 
L 1197.622843 488.283889 
L 1198.615549 487.17878 
L 1199.608255 487.117009 
L 1200.600961 489.225084 
L 1201.593667 488.192629 
L 1202.586373 488.220274 
L 1203.579078 487.690924 
L 1204.571784 489.340085 
L 1205.56449 487.204225 
L 1206.557196 486.07331 
L 1207.549902 487.885449 
L 1208.542608 489.442373 
L 1209.535314 492.48 
L 1210.52802 487.184158 
L 1211.520726 485.119256 
L 1212.513432 487.909941 
L 1213.506138 488.755278 
L 1214.498844 489.98146 
L 1215.49155 486.846767 
L 1216.484255 488.684804 
L 1217.476961 487.469982 
L 1218.469667 487.515516 
L 1219.462373 488.240255 
L 1220.455079 488.710892 
L 1221.447785 489.976458 
L 1222.440491 487.057531 
L 1223.433197 488.443682 
L 1224.425903 486.422439 
L 1225.418609 488.472854 
L 1226.411315 487.917175 
L 1227.404021 489.553323 
L 1228.396727 487.862112 
L 1229.389432 488.164471 
L 1230.382138 488.91103 
L 1231.374844 487.118211 
L 1232.36755 486.955751 
L 1233.360256 491.192943 
L 1235.345668 488.320914 
L 1237.33108 488.492216 
L 1238.323786 488.411747 
L 1239.316492 489.561587 
L 1240.309198 488.57593 
L 1241.301904 486.847166 
L 1242.29461 487.234169 
L 1243.287315 488.752837 
L 1244.280021 488.084288 
L 1245.272727 486.427206 
L 1245.272727 486.427206 
" clip-path="url(#p2c00580d9d)" style="fill: none; stroke: #1f77b4; stroke-width: 1.5; stroke-linecap: square"/>
   </g>
   <g id="patch_3">
    <path d="M 180 512.64 
L 180 69.12 
" style="fill: none; stroke: #000000; stroke-width: 0.8; stroke-linejoin: miter; stroke-linecap: square"/>
   </g>
   <g id="patch_4">
    <path d="M 1296 512.64 
L 1296 69.12 
" style="fill: none; stroke: #000000; stroke-width: 0.8; stroke-linejoin: miter; stroke-linecap: square"/>
   </g>
   <g id="patch_5">
    <path d="M 180 512.64 
L 1296 512.64 
" style="fill: none; stroke: #000000; stroke-width: 0.8; stroke-linejoin: miter; stroke-linecap: square"/>
   </g>
   <g id="patch_6">
    <path d="M 180 69.12 
L 1296 69.12 
" style="fill: none; stroke: #000000; stroke-width: 0.8; stroke-linejoin: miter; stroke-linecap: square"/>
   </g>
   <g id="text_14">
    <!-- source24-receiver19 -->
    <g transform="translate(532.175 60.80125) scale(0.4 -0.4)">
     <defs>
      <path id="DejaVuSans-73" d="M 2834 3397 
L 2834 2853 
Q 2591 2978 2328 3040 
Q 2066 3103 1784 3103 
Q 1356 3103 1142 2972 
Q 928 2841 928 2578 
Q 928 2378 1081 2264 
Q 1234 2150 1697 2047 
L 1894 2003 
Q 2506 1872 2764 1633 
Q 3022 1394 3022 966 
Q 3022 478 2636 193 
Q 2250 -91 1575 -91 
Q 1294 -91 989 -36 
Q 684 19 347 128 
L 347 722 
Q 666 556 975 473 
Q 1284 391 1588 391 
Q 1994 391 2212 530 
Q 2431 669 2431 922 
Q 2431 1156 2273 1281 
Q 2116 1406 1581 1522 
L 1381 1569 
Q 847 1681 609 1914 
Q 372 2147 372 2553 
Q 372 3047 722 3315 
Q 1072 3584 1716 3584 
Q 2034 3584 2315 3537 
Q 2597 3491 2834 3397 
z
" transform="scale(0.015625)"/>
      <path id="DejaVuSans-6f" d="M 1959 3097 
Q 1497 3097 1228 2736 
Q 959 2375 959 1747 
Q 959 1119 1226 758 
Q 1494 397 1959 397 
Q 2419 397 2687 759 
Q 2956 1122 2956 1747 
Q 2956 2369 2687 2733 
Q 2419 3097 1959 3097 
z
M 1959 3584 
Q 2709 3584 3137 3096 
Q 3566 2609 3566 1747 
Q 3566 888 3137 398 
Q 2709 -91 1959 -91 
Q 1206 -91 779 398 
Q 353 888 353 1747 
Q 353 2609 779 3096 
Q 1206 3584 1959 3584 
z
" transform="scale(0.015625)"/>
      <path id="DejaVuSans-75" d="M 544 1381 
L 544 3500 
L 1119 3500 
L 1119 1403 
Q 1119 906 1312 657 
Q 1506 409 1894 409 
Q 2359 409 2629 706 
Q 2900 1003 2900 1516 
L 2900 3500 
L 3475 3500 
L 3475 0 
L 2900 0 
L 2900 538 
Q 2691 219 2414 64 
Q 2138 -91 1772 -91 
Q 1169 -91 856 284 
Q 544 659 544 1381 
z
M 1991 3584 
L 1991 3584 
z
" transform="scale(0.015625)"/>
      <path id="DejaVuSans-72" d="M 2631 2963 
Q 2534 3019 2420 3045 
Q 2306 3072 2169 3072 
Q 1681 3072 1420 2755 
Q 1159 2438 1159 1844 
L 1159 0 
L 581 0 
L 581 3500 
L 1159 3500 
L 1159 2956 
Q 1341 3275 1631 3429 
Q 1922 3584 2338 3584 
Q 2397 3584 2469 3576 
Q 2541 3569 2628 3553 
L 2631 2963 
z
" transform="scale(0.015625)"/>
      <path id="DejaVuSans-63" d="M 3122 3366 
L 3122 2828 
Q 2878 2963 2633 3030 
Q 2388 3097 2138 3097 
Q 1578 3097 1268 2742 
Q 959 2388 959 1747 
Q 959 1106 1268 751 
Q 1578 397 2138 397 
Q 2388 397 2633 464 
Q 2878 531 3122 666 
L 3122 134 
Q 2881 22 2623 -34 
Q 2366 -91 2075 -91 
Q 1284 -91 818 406 
Q 353 903 353 1747 
Q 353 2603 823 3093 
Q 1294 3584 2113 3584 
Q 2378 3584 2631 3529 
Q 2884 3475 3122 3366 
z
" transform="scale(0.015625)"/>
      <path id="DejaVuSans-65" d="M 3597 1894 
L 3597 1613 
L 953 1613 
Q 991 1019 1311 708 
Q 1631 397 2203 397 
Q 2534 397 2845 478 
Q 3156 559 3463 722 
L 3463 178 
Q 3153 47 2828 -22 
Q 2503 -91 2169 -91 
Q 1331 -91 842 396 
Q 353 884 353 1716 
Q 353 2575 817 3079 
Q 1281 3584 2069 3584 
Q 2775 3584 3186 3129 
Q 3597 2675 3597 1894 
z
M 3022 2063 
Q 3016 2534 2758 2815 
Q 2500 3097 2075 3097 
Q 1594 3097 1305 2825 
Q 1016 2553 972 2059 
L 3022 2063 
z
" transform="scale(0.015625)"/>
      <path id="DejaVuSans-34" d="M 2419 4116 
L 825 1625 
L 2419 1625 
L 2419 4116 
z
M 2253 4666 
L 3047 4666 
L 3047 1625 
L 3713 1625 
L 3713 1100 
L 3047 1100 
L 3047 0 
L 2419 0 
L 2419 1100 
L 313 1100 
L 313 1709 
L 2253 4666 
z
" transform="scale(0.015625)"/>
      <path id="DejaVuSans-2d" d="M 313 2009 
L 1997 2009 
L 1997 1497 
L 313 1497 
L 313 2009 
z
" transform="scale(0.015625)"/>
      <path id="DejaVuSans-69" d="M 603 3500 
L 1178 3500 
L 1178 0 
L 603 0 
L 603 3500 
z
M 603 4863 
L 1178 4863 
L 1178 4134 
L 603 4134 
L 603 4863 
z
" transform="scale(0.015625)"/>
      <path id="DejaVuSans-76" d="M 191 3500 
L 800 3500 
L 1894 563 
L 2988 3500 
L 3597 3500 
L 2284 0 
L 1503 0 
L 191 3500 
z
" transform="scale(0.015625)"/>
      <path id="DejaVuSans-39" d="M 703 97 
L 703 672 
Q 941 559 1184 500 
Q 1428 441 1663 441 
Q 2288 441 2617 861 
Q 2947 1281 2994 2138 
Q 2813 1869 2534 1725 
Q 2256 1581 1919 1581 
Q 1219 1581 811 2004 
Q 403 2428 403 3163 
Q 403 3881 828 4315 
Q 1253 4750 1959 4750 
Q 2769 4750 3195 4129 
Q 3622 3509 3622 2328 
Q 3622 1225 3098 567 
Q 2575 -91 1691 -91 
Q 1453 -91 1209 -44 
Q 966 3 703 97 
z
M 1959 2075 
Q 2384 2075 2632 2365 
Q 2881 2656 2881 3163 
Q 2881 3666 2632 3958 
Q 2384 4250 1959 4250 
Q 1534 4250 1286 3958 
Q 1038 3666 1038 3163 
Q 1038 2656 1286 2365 
Q 1534 2075 1959 2075 
z
" transform="scale(0.015625)"/>
     </defs>
     <use xlink:href="#DejaVuSans-73"/>
     <use xlink:href="#DejaVuSans-6f" x="52.099609"/>
     <use xlink:href="#DejaVuSans-75" x="113.28125"/>
     <use xlink:href="#DejaVuSans-72" x="176.660156"/>
     <use xlink:href="#DejaVuSans-63" x="215.523438"/>
     <use xlink:href="#DejaVuSans-65" x="270.503906"/>
     <use xlink:href="#DejaVuSans-32" x="332.027344"/>
     <use xlink:href="#DejaVuSans-34" x="395.650391"/>
     <use xlink:href="#DejaVuSans-2d" x="459.273438"/>
     <use xlink:href="#DejaVuSans-72" x="495.357422"/>
     <use xlink:href="#DejaVuSans-65" x="534.220703"/>
     <use xlink:href="#DejaVuSans-63" x="595.744141"/>
     <use xlink:href="#DejaVuSans-65" x="650.724609"/>
     <use xlink:href="#DejaVuSans-69" x="712.248047"/>
     <use xlink:href="#DejaVuSans-76" x="740.03125"/>
     <use xlink:href="#DejaVuSans-65" x="799.210938"/>
     <use xlink:href="#DejaVuSans-72" x="860.734375"/>
     <use xlink:href="#DejaVuSans-31" x="901.847656"/>
     <use xlink:href="#DejaVuSans-39" x="965.470703"/>
    </g>
   </g>
  </g>
 </g>
 <defs>
  <clipPath id="p2c00580d9d">
   <rect x="180" y="69.12" width="1116" height="443.52"/>
  </clipPath>
 </defs>
</svg>
