<?xml version="1.0" encoding="utf-8" standalone="no"?>
<!DOCTYPE svg PUBLIC "-//W3C//DTD SVG 1.1//EN"
  "http://www.w3.org/Graphics/SVG/1.1/DTD/svg11.dtd">
<svg xmlns:xlink="http://www.w3.org/1999/xlink" width="1440pt" height="576pt" viewBox="0 0 1440 576" xmlns="http://www.w3.org/2000/svg" version="1.1">
 <metadata>
  <rdf:RDF xmlns:dc="http://purl.org/dc/elements/1.1/" xmlns:cc="http://creativecommons.org/ns#" xmlns:rdf="http://www.w3.org/1999/02/22-rdf-syntax-ns#">
   <cc:Work>
    <dc:type rdf:resource="http://purl.org/dc/dcmitype/StillImage"/>
    <dc:date>2024-05-22T04:50:26.511357</dc:date>
    <dc:format>image/svg+xml</dc:format>
    <dc:creator>
     <cc:Agent>
      <dc:title>Matplotlib v3.8.3, https://matplotlib.org/</dc:title>
     </cc:Agent>
    </dc:creator>
   </cc:Work>
  </rdf:RDF>
 </metadata>
 <defs>
  <style type="text/css">*{stroke-linejoin: round; stroke-linecap: butt}</style>
 </defs>
 <g id="figure_1">
  <g id="patch_1">
   <path d="M 0 576 
L 1440 576 
L 1440 0 
L 0 0 
z
" style="fill: #ffffff"/>
  </g>
  <g id="axes_1">
   <g id="patch_2">
    <path d="M 180 512.64 
L 1296 512.64 
L 1296 69.12 
L 180 69.12 
z
" style="fill: #ffffff"/>
   </g>
   <g id="matplotlib.axis_1">
    <g id="xtick_1">
     <g id="line2d_1">
      <defs>
       <path id="m9328db3ce8" d="M 0 0 
L 0 3.5 
" style="stroke: #000000; stroke-width: 0.8"/>
      </defs>
      <g>
       <use xlink:href="#m9328db3ce8" x="229.734567" y="512.64" style="stroke: #000000; stroke-width: 0.8"/>
      </g>
     </g>
     <g id="text_1">
      <!-- 0 -->
      <g transform="translate(226.553317 527.238438) scale(0.1 -0.1)">
       <defs>
        <path id="DejaVuSans-30" d="M 2034 4250 
Q 1547 4250 1301 3770 
Q 1056 3291 1056 2328 
Q 1056 1369 1301 889 
Q 1547 409 2034 409 
Q 2525 409 2770 889 
Q 3016 1369 3016 2328 
Q 3016 3291 2770 3770 
Q 2525 4250 2034 4250 
z
M 2034 4750 
Q 2819 4750 3233 4129 
Q 3647 3509 3647 2328 
Q 3647 1150 3233 529 
Q 2819 -91 2034 -91 
Q 1250 -91 836 529 
Q 422 1150 422 2328 
Q 422 3509 836 4129 
Q 1250 4750 2034 4750 
z
" transform="scale(0.015625)"/>
       </defs>
       <use xlink:href="#DejaVuSans-30"/>
      </g>
     </g>
    </g>
    <g id="xtick_2">
     <g id="line2d_2">
      <g>
       <use xlink:href="#m9328db3ce8" x="433.04074" y="512.64" style="stroke: #000000; stroke-width: 0.8"/>
      </g>
     </g>
     <g id="text_2">
      <!-- 500 -->
      <g transform="translate(423.49699 527.238438) scale(0.1 -0.1)">
       <defs>
        <path id="DejaVuSans-35" d="M 691 4666 
L 3169 4666 
L 3169 4134 
L 1269 4134 
L 1269 2991 
Q 1406 3038 1543 3061 
Q 1681 3084 1819 3084 
Q 2600 3084 3056 2656 
Q 3513 2228 3513 1497 
Q 3513 744 3044 326 
Q 2575 -91 1722 -91 
Q 1428 -91 1123 -41 
Q 819 9 494 109 
L 494 744 
Q 775 591 1075 516 
Q 1375 441 1709 441 
Q 2250 441 2565 725 
Q 2881 1009 2881 1497 
Q 2881 1984 2565 2268 
Q 2250 2553 1709 2553 
Q 1456 2553 1204 2497 
Q 953 2441 691 2322 
L 691 4666 
z
" transform="scale(0.015625)"/>
       </defs>
       <use xlink:href="#DejaVuSans-35"/>
       <use xlink:href="#DejaVuSans-30" x="63.623047"/>
       <use xlink:href="#DejaVuSans-30" x="127.246094"/>
      </g>
     </g>
    </g>
    <g id="xtick_3">
     <g id="line2d_3">
      <g>
       <use xlink:href="#m9328db3ce8" x="636.346913" y="512.64" style="stroke: #000000; stroke-width: 0.8"/>
      </g>
     </g>
     <g id="text_3">
      <!-- 1000 -->
      <g transform="translate(623.621913 527.238438) scale(0.1 -0.1)">
       <defs>
        <path id="DejaVuSans-31" d="M 794 531 
L 1825 531 
L 1825 4091 
L 703 3866 
L 703 4441 
L 1819 4666 
L 2450 4666 
L 2450 531 
L 3481 531 
L 3481 0 
L 794 0 
L 794 531 
z
" transform="scale(0.015625)"/>
       </defs>
       <use xlink:href="#DejaVuSans-31"/>
       <use xlink:href="#DejaVuSans-30" x="63.623047"/>
       <use xlink:href="#DejaVuSans-30" x="127.246094"/>
       <use xlink:href="#DejaVuSans-30" x="190.869141"/>
      </g>
     </g>
    </g>
    <g id="xtick_4">
     <g id="line2d_4">
      <g>
       <use xlink:href="#m9328db3ce8" x="839.653087" y="512.64" style="stroke: #000000; stroke-width: 0.8"/>
      </g>
     </g>
     <g id="text_4">
      <!-- 1500 -->
      <g transform="translate(826.928087 527.238438) scale(0.1 -0.1)">
       <use xlink:href="#DejaVuSans-31"/>
       <use xlink:href="#DejaVuSans-35" x="63.623047"/>
       <use xlink:href="#DejaVuSans-30" x="127.246094"/>
       <use xlink:href="#DejaVuSans-30" x="190.869141"/>
      </g>
     </g>
    </g>
    <g id="xtick_5">
     <g id="line2d_5">
      <g>
       <use xlink:href="#m9328db3ce8" x="1042.95926" y="512.64" style="stroke: #000000; stroke-width: 0.8"/>
      </g>
     </g>
     <g id="text_5">
      <!-- 2000 -->
      <g transform="translate(1030.23426 527.238438) scale(0.1 -0.1)">
       <defs>
        <path id="DejaVuSans-32" d="M 1228 531 
L 3431 531 
L 3431 0 
L 469 0 
L 469 531 
Q 828 903 1448 1529 
Q 2069 2156 2228 2338 
Q 2531 2678 2651 2914 
Q 2772 3150 2772 3378 
Q 2772 3750 2511 3984 
Q 2250 4219 1831 4219 
Q 1534 4219 1204 4116 
Q 875 4013 500 3803 
L 500 4441 
Q 881 4594 1212 4672 
Q 1544 4750 1819 4750 
Q 2544 4750 2975 4387 
Q 3406 4025 3406 3419 
Q 3406 3131 3298 2873 
Q 3191 2616 2906 2266 
Q 2828 2175 2409 1742 
Q 1991 1309 1228 531 
z
" transform="scale(0.015625)"/>
       </defs>
       <use xlink:href="#DejaVuSans-32"/>
       <use xlink:href="#DejaVuSans-30" x="63.623047"/>
       <use xlink:href="#DejaVuSans-30" x="127.246094"/>
       <use xlink:href="#DejaVuSans-30" x="190.869141"/>
      </g>
     </g>
    </g>
    <g id="xtick_6">
     <g id="line2d_6">
      <g>
       <use xlink:href="#m9328db3ce8" x="1246.265433" y="512.64" style="stroke: #000000; stroke-width: 0.8"/>
      </g>
     </g>
     <g id="text_6">
      <!-- 2500 -->
      <g transform="translate(1233.540433 527.238438) scale(0.1 -0.1)">
       <use xlink:href="#DejaVuSans-32"/>
       <use xlink:href="#DejaVuSans-35" x="63.623047"/>
       <use xlink:href="#DejaVuSans-30" x="127.246094"/>
       <use xlink:href="#DejaVuSans-30" x="190.869141"/>
      </g>
     </g>
    </g>
   </g>
   <g id="matplotlib.axis_2">
    <g id="ytick_1">
     <g id="line2d_7">
      <defs>
       <path id="m347001604c" d="M 0 0 
L -3.5 0 
" style="stroke: #000000; stroke-width: 0.8"/>
      </defs>
      <g>
       <use xlink:href="#m347001604c" x="180" y="463.738058" style="stroke: #000000; stroke-width: 0.8"/>
      </g>
     </g>
     <g id="text_7">
      <!-- −8 -->
      <g transform="translate(158.257812 467.537277) scale(0.1 -0.1)">
       <defs>
        <path id="DejaVuSans-2212" d="M 678 2272 
L 4684 2272 
L 4684 1741 
L 678 1741 
L 678 2272 
z
" transform="scale(0.015625)"/>
        <path id="DejaVuSans-38" d="M 2034 2216 
Q 1584 2216 1326 1975 
Q 1069 1734 1069 1313 
Q 1069 891 1326 650 
Q 1584 409 2034 409 
Q 2484 409 2743 651 
Q 3003 894 3003 1313 
Q 3003 1734 2745 1975 
Q 2488 2216 2034 2216 
z
M 1403 2484 
Q 997 2584 770 2862 
Q 544 3141 544 3541 
Q 544 4100 942 4425 
Q 1341 4750 2034 4750 
Q 2731 4750 3128 4425 
Q 3525 4100 3525 3541 
Q 3525 3141 3298 2862 
Q 3072 2584 2669 2484 
Q 3125 2378 3379 2068 
Q 3634 1759 3634 1313 
Q 3634 634 3220 271 
Q 2806 -91 2034 -91 
Q 1263 -91 848 271 
Q 434 634 434 1313 
Q 434 1759 690 2068 
Q 947 2378 1403 2484 
z
M 1172 3481 
Q 1172 3119 1398 2916 
Q 1625 2713 2034 2713 
Q 2441 2713 2670 2916 
Q 2900 3119 2900 3481 
Q 2900 3844 2670 4047 
Q 2441 4250 2034 4250 
Q 1625 4250 1398 4047 
Q 1172 3844 1172 3481 
z
" transform="scale(0.015625)"/>
       </defs>
       <use xlink:href="#DejaVuSans-2212"/>
       <use xlink:href="#DejaVuSans-38" x="83.789062"/>
      </g>
     </g>
    </g>
    <g id="ytick_2">
     <g id="line2d_8">
      <g>
       <use xlink:href="#m347001604c" x="180" y="381.132924" style="stroke: #000000; stroke-width: 0.8"/>
      </g>
     </g>
     <g id="text_8">
      <!-- −6 -->
      <g transform="translate(158.257812 384.932142) scale(0.1 -0.1)">
       <defs>
        <path id="DejaVuSans-36" d="M 2113 2584 
Q 1688 2584 1439 2293 
Q 1191 2003 1191 1497 
Q 1191 994 1439 701 
Q 1688 409 2113 409 
Q 2538 409 2786 701 
Q 3034 994 3034 1497 
Q 3034 2003 2786 2293 
Q 2538 2584 2113 2584 
z
M 3366 4563 
L 3366 3988 
Q 3128 4100 2886 4159 
Q 2644 4219 2406 4219 
Q 1781 4219 1451 3797 
Q 1122 3375 1075 2522 
Q 1259 2794 1537 2939 
Q 1816 3084 2150 3084 
Q 2853 3084 3261 2657 
Q 3669 2231 3669 1497 
Q 3669 778 3244 343 
Q 2819 -91 2113 -91 
Q 1303 -91 875 529 
Q 447 1150 447 2328 
Q 447 3434 972 4092 
Q 1497 4750 2381 4750 
Q 2619 4750 2861 4703 
Q 3103 4656 3366 4563 
z
" transform="scale(0.015625)"/>
       </defs>
       <use xlink:href="#DejaVuSans-2212"/>
       <use xlink:href="#DejaVuSans-36" x="83.789062"/>
      </g>
     </g>
    </g>
    <g id="ytick_3">
     <g id="line2d_9">
      <g>
       <use xlink:href="#m347001604c" x="180" y="298.527789" style="stroke: #000000; stroke-width: 0.8"/>
      </g>
     </g>
     <g id="text_9">
      <!-- −4 -->
      <g transform="translate(158.257812 302.327008) scale(0.1 -0.1)">
       <defs>
        <path id="DejaVuSans-34" d="M 2419 4116 
L 825 1625 
L 2419 1625 
L 2419 4116 
z
M 2253 4666 
L 3047 4666 
L 3047 1625 
L 3713 1625 
L 3713 1100 
L 3047 1100 
L 3047 0 
L 2419 0 
L 2419 1100 
L 313 1100 
L 313 1709 
L 2253 4666 
z
" transform="scale(0.015625)"/>
       </defs>
       <use xlink:href="#DejaVuSans-2212"/>
       <use xlink:href="#DejaVuSans-34" x="83.789062"/>
      </g>
     </g>
    </g>
    <g id="ytick_4">
     <g id="line2d_10">
      <g>
       <use xlink:href="#m347001604c" x="180" y="215.922654" style="stroke: #000000; stroke-width: 0.8"/>
      </g>
     </g>
     <g id="text_10">
      <!-- −2 -->
      <g transform="translate(158.257812 219.721873) scale(0.1 -0.1)">
       <use xlink:href="#DejaVuSans-2212"/>
       <use xlink:href="#DejaVuSans-32" x="83.789062"/>
      </g>
     </g>
    </g>
    <g id="ytick_5">
     <g id="line2d_11">
      <g>
       <use xlink:href="#m347001604c" x="180" y="133.31752" style="stroke: #000000; stroke-width: 0.8"/>
      </g>
     </g>
     <g id="text_11">
      <!-- 0 -->
      <g transform="translate(166.6375 137.116739) scale(0.1 -0.1)">
       <use xlink:href="#DejaVuSans-30"/>
      </g>
     </g>
    </g>
   </g>
   <g id="line2d_12">
    <path d="M 230.727273 284.254071 
L 231.719979 280.158848 
L 232.712685 279.317388 
L 233.70539 281.658593 
L 234.698096 279.345087 
L 235.690802 280.74555 
L 236.683508 281.894563 
L 237.676214 283.272993 
L 238.66892 278.298365 
L 239.661626 280.967709 
L 240.654332 280.840151 
L 241.647038 278.464344 
L 242.639744 278.850511 
L 243.63245 279.935917 
L 244.625156 275.299658 
L 245.617862 268.938071 
L 246.610568 257.774293 
L 247.603273 251.449087 
L 248.595979 257.960754 
L 249.588685 227.246799 
L 250.581391 210.253165 
L 251.574097 171.581867 
L 252.566803 154.903996 
L 253.559509 146.417132 
L 254.552215 144.192195 
L 255.544921 149.94627 
L 256.537627 192.956696 
L 257.530333 184.30442 
L 258.523039 146.674156 
L 259.515745 133.517951 
L 260.50845 128.478974 
L 261.501156 139.82772 
L 262.493862 176.755941 
L 263.486568 169.660888 
L 264.479274 145.116873 
L 265.47198 133.405476 
L 266.464686 136.34679 
L 267.457392 152.752144 
L 268.450098 178.785009 
L 269.442804 229.938714 
L 270.43551 193.852599 
L 271.428216 192.199791 
L 272.420922 179.364909 
L 273.413627 194.296649 
L 274.406333 199.314315 
L 275.399039 181.636222 
L 276.391745 172.646642 
L 277.384451 175.130106 
L 278.377157 172.326256 
L 279.369863 139.821415 
L 280.362569 114.726652 
L 281.355275 97.705046 
L 282.347981 91.160527 
L 283.340687 89.28 
L 284.333393 91.003975 
L 285.326099 102.400573 
L 286.318804 124.790981 
L 287.31151 174.021442 
L 288.304216 193.672896 
L 289.296922 175.174588 
L 290.289628 173.339608 
L 291.282334 206.47548 
L 292.27504 203.276582 
L 293.267746 185.960151 
L 294.260452 190.450347 
L 295.253158 247.779226 
L 296.245864 213.841491 
L 297.23857 214.852067 
L 298.231276 233.456267 
L 299.223981 238.186231 
L 300.216687 198.264669 
L 301.209393 190.076776 
L 302.202099 202.06208 
L 303.194805 266.80568 
L 304.187511 216.830735 
L 305.180217 249.566207 
L 306.172923 242.696102 
L 307.165629 246.735218 
L 308.158335 241.911162 
L 309.151041 232.627984 
L 310.143747 258.166 
L 311.136453 289.87855 
L 312.129159 249.038345 
L 313.121864 265.318361 
L 314.11457 264.874226 
L 315.107276 269.391929 
L 316.099982 258.530072 
L 317.092688 322.088656 
L 318.085394 290.981492 
L 319.0781 278.878095 
L 320.070806 255.958711 
L 321.063512 237.457877 
L 322.056218 238.866508 
L 323.048924 290.67315 
L 324.04163 277.613286 
L 325.034336 258.434165 
L 326.027041 268.242312 
L 327.019747 341.11976 
L 328.012453 255.477095 
L 329.005159 252.60695 
L 329.997865 258.142526 
L 330.990571 258.478906 
L 331.983277 276.839171 
L 332.975983 276.387883 
L 333.968689 272.941615 
L 334.961395 265.312545 
L 335.954101 259.445535 
L 336.946807 275.627715 
L 337.939513 300.250153 
L 338.932218 242.625221 
L 340.91763 266.490118 
L 341.910336 280.725762 
L 342.903042 263.423989 
L 343.895748 265.233888 
L 344.888454 341.069128 
L 345.88116 351.168565 
L 346.873866 256.811043 
L 347.866572 276.889972 
L 348.859278 276.15667 
L 349.851984 334.717882 
L 350.84469 271.56068 
L 351.837395 277.752004 
L 352.830101 249.062634 
L 353.822807 320.247899 
L 354.815513 290.191712 
L 355.808219 275.404261 
L 356.800925 268.994588 
L 357.793631 310.895953 
L 358.786337 246.858154 
L 359.779043 298.559658 
L 360.771749 314.359699 
L 361.764455 260.637878 
L 362.757161 269.284215 
L 363.749867 249.349405 
L 364.742572 271.611058 
L 365.735278 254.060476 
L 366.727984 397.995886 
L 367.72069 269.244313 
L 368.713396 263.814386 
L 369.706102 273.980838 
L 370.698808 275.017468 
L 371.691514 318.337151 
L 372.68422 330.467587 
L 373.676926 255.905061 
L 374.669632 280.844163 
L 375.662338 274.940102 
L 376.655044 268.15825 
L 377.64775 258.453005 
L 378.640455 290.703555 
L 379.633161 240.351405 
L 380.625867 368.922525 
L 382.611279 297.204967 
L 383.603985 300.881786 
L 384.596691 313.464958 
L 385.589397 294.189941 
L 386.582103 298.986071 
L 387.574809 271.078187 
L 388.567515 306.8803 
L 389.560221 302.618493 
L 390.552927 323.236347 
L 391.545632 245.34081 
L 392.538338 326.007395 
L 393.531044 292.527088 
L 394.52375 269.603713 
L 395.516456 286.239297 
L 396.509162 263.691713 
L 397.501868 303.829644 
L 398.494574 281.845591 
L 399.48728 278.145882 
L 400.479986 306.896543 
L 401.472692 303.596023 
L 402.465398 292.968117 
L 403.458104 280.461885 
L 404.450809 269.552702 
L 405.443515 269.81027 
L 406.436221 262.696912 
L 407.428927 286.850032 
L 408.421633 284.18736 
L 409.414339 272.893195 
L 410.407045 329.405605 
L 411.399751 306.429016 
L 412.392457 277.283479 
L 413.385163 350.829134 
L 414.377869 261.190964 
L 415.370575 296.254103 
L 416.363281 241.468859 
L 417.355986 289.291834 
L 418.348692 287.849185 
L 419.341398 264.002397 
L 420.334104 302.379894 
L 421.32681 264.233576 
L 422.319516 265.917856 
L 423.312222 305.262828 
L 424.304928 277.774824 
L 425.297634 295.636033 
L 426.29034 272.179934 
L 427.283046 279.611322 
L 428.275752 265.685157 
L 429.268458 351.69725 
L 430.261163 289.263017 
L 431.253869 297.957239 
L 432.246575 309.195445 
L 433.239281 288.518196 
L 434.231987 341.15651 
L 435.224693 326.381888 
L 437.210105 260.002587 
L 438.202811 271.815076 
L 439.195517 336.813018 
L 440.188223 341.095819 
L 441.180929 291.314387 
L 442.173635 259.100237 
L 443.166341 264.64127 
L 444.159046 244.454951 
L 446.144458 276.970296 
L 447.137164 286.640527 
L 448.12987 254.724182 
L 449.122576 265.446281 
L 450.115282 299.708461 
L 451.107988 275.911101 
L 452.100694 336.446734 
L 453.0934 284.588635 
L 454.086106 244.478289 
L 455.078812 249.503596 
L 456.071518 279.730881 
L 457.064223 313.682907 
L 458.056929 272.381632 
L 459.049635 268.836362 
L 460.042341 278.867755 
L 461.035047 281.083811 
L 462.027753 274.143099 
L 463.020459 265.727493 
L 464.013165 284.030738 
L 465.005871 283.858114 
L 465.998577 277.936674 
L 466.991283 287.943381 
L 467.983989 267.481711 
L 468.976695 287.100705 
L 469.9694 259.185256 
L 470.962106 242.84784 
L 471.954812 273.543873 
L 472.947518 282.510117 
L 473.940224 300.383458 
L 474.93293 311.390619 
L 475.925636 273.260103 
L 476.918342 301.403962 
L 477.911048 291.478786 
L 478.903754 294.996582 
L 479.89646 289.867145 
L 480.889166 292.365221 
L 481.881872 275.229009 
L 482.874577 291.198533 
L 483.867283 287.085476 
L 484.859989 292.591518 
L 485.852695 278.393511 
L 486.845401 296.682181 
L 487.838107 278.096569 
L 488.830813 324.684146 
L 489.823519 290.207988 
L 490.816225 266.302072 
L 491.808931 310.340316 
L 492.801637 244.326598 
L 493.794343 297.626582 
L 494.787049 259.893775 
L 495.779754 284.78001 
L 496.77246 272.379828 
L 497.765166 336.319776 
L 498.757872 362.366704 
L 499.750578 298.60858 
L 500.743284 275.667574 
L 501.73599 363.266471 
L 502.728696 284.389193 
L 503.721402 292.358932 
L 504.714108 287.66034 
L 505.706814 295.495164 
L 506.69952 298.993831 
L 507.692226 287.193712 
L 508.684932 283.371581 
L 509.677637 234.577386 
L 510.670343 244.502423 
L 511.663049 285.926485 
L 512.655755 277.128987 
L 513.648461 310.064425 
L 514.641167 249.677018 
L 515.633873 267.08981 
L 516.626579 263.901629 
L 517.619285 256.223688 
L 518.611991 283.815535 
L 519.604697 295.073305 
L 520.597403 317.060995 
L 521.590109 271.757921 
L 522.582814 266.466483 
L 523.57552 278.344208 
L 524.568226 267.238899 
L 525.560932 257.659663 
L 526.553638 278.063279 
L 527.546344 252.506612 
L 528.53905 308.553204 
L 529.531756 265.723132 
L 530.524462 288.420905 
L 531.517168 339.377257 
L 532.509874 330.683343 
L 533.50258 281.2465 
L 534.495286 347.505181 
L 535.487991 284.348887 
L 536.480697 279.108615 
L 537.473403 263.568634 
L 538.466109 304.550831 
L 539.458815 317.767717 
L 540.451521 255.538111 
L 541.444227 281.104381 
L 542.436933 353.698516 
L 543.429639 280.367857 
L 544.422345 334.761447 
L 545.415051 270.049087 
L 546.407757 285.374981 
L 547.400463 263.965067 
L 548.393168 306.52458 
L 549.385874 310.664403 
L 550.37858 276.075154 
L 551.371286 301.582319 
L 552.363992 361.647971 
L 553.356698 269.471421 
L 554.349404 332.625713 
L 555.34211 312.044104 
L 557.327522 253.697949 
L 558.320228 253.42752 
L 559.312934 309.322985 
L 560.30564 252.911095 
L 561.298345 274.886555 
L 562.291051 282.763982 
L 563.283757 276.308476 
L 564.276463 263.427821 
L 565.269169 284.037066 
L 566.261875 280.726464 
L 567.254581 310.907705 
L 568.247287 279.274931 
L 569.239993 256.558824 
L 570.232699 276.211728 
L 571.225405 284.511409 
L 572.218111 317.928694 
L 573.210817 257.935833 
L 574.203523 310.002035 
L 576.188934 350.282766 
L 577.18164 312.341345 
L 578.174346 301.463863 
L 579.167052 270.391747 
L 580.159758 302.206754 
L 581.152464 288.683386 
L 582.14517 255.933794 
L 583.137876 385.9847 
L 584.130582 274.548968 
L 585.123288 311.647342 
L 586.115994 273.708045 
L 587.1087 288.417244 
L 588.101405 282.43479 
L 589.094111 265.407116 
L 590.086817 307.029117 
L 591.079523 311.515354 
L 592.072229 274.908311 
L 593.064935 260.248106 
L 594.057641 257.147816 
L 595.050347 320.36943 
L 596.043053 346.342298 
L 597.035759 349.372535 
L 598.028465 300.854289 
L 599.021171 268.420082 
L 600.013877 289.739829 
L 601.006582 284.296794 
L 601.999288 285.055643 
L 602.991994 297.198623 
L 603.9847 285.468132 
L 604.977406 342.69393 
L 605.970112 389.678786 
L 606.962818 323.979731 
L 607.955524 290.778482 
L 608.94823 280.448589 
L 609.940936 311.468431 
L 610.933642 304.69876 
L 611.926348 324.524621 
L 612.919054 295.584035 
L 613.911759 303.000869 
L 614.904465 332.832315 
L 615.897171 340.828081 
L 616.889877 326.3827 
L 617.882583 334.037087 
L 618.875289 282.174449 
L 619.867995 315.88445 
L 620.860701 298.765731 
L 621.853407 315.283627 
L 622.846113 338.559044 
L 623.838819 300.219172 
L 624.831525 306.453055 
L 625.824231 297.922156 
L 626.816936 311.995444 
L 627.809642 293.110638 
L 628.802348 312.357799 
L 629.795054 300.557068 
L 630.78776 344.835274 
L 631.780466 382.381964 
L 632.773172 325.705849 
L 633.765878 339.515397 
L 634.758584 320.637301 
L 635.75129 330.468221 
L 636.743996 401.647573 
L 637.736702 317.229788 
L 638.729408 315.590071 
L 639.722114 322.002505 
L 640.714819 297.489722 
L 641.707525 371.948814 
L 642.700231 342.636529 
L 643.692937 306.860775 
L 644.685643 347.347559 
L 645.678349 316.435102 
L 646.671055 351.595448 
L 647.663761 334.712294 
L 648.656467 342.920909 
L 649.649173 347.461756 
L 650.641879 317.594011 
L 651.634585 370.338542 
L 652.627291 322.898066 
L 653.619996 348.203436 
L 654.612702 325.676709 
L 655.605408 349.584283 
L 656.598114 345.789429 
L 657.59082 387.609271 
L 658.583526 364.635107 
L 661.561644 408.717494 
L 662.55435 341.311524 
L 663.547056 356.313028 
L 664.539762 329.365583 
L 665.532468 366.268999 
L 666.525173 398.776029 
L 667.517879 338.738538 
L 668.510585 349.678184 
L 669.503291 387.070852 
L 670.495997 361.166923 
L 671.488703 356.674794 
L 672.481409 400.566323 
L 673.474115 344.063271 
L 674.466821 350.279983 
L 675.459527 343.742472 
L 676.452233 367.424372 
L 677.444939 371.280212 
L 678.437645 349.685296 
L 679.43035 360.020898 
L 680.423056 356.079386 
L 681.415762 413.125634 
L 682.408468 366.918124 
L 683.401174 352.846805 
L 684.39388 378.390347 
L 685.386586 334.116984 
L 686.379292 394.28607 
L 687.371998 419.566754 
L 688.364704 363.808365 
L 689.35741 376.80568 
L 690.350116 421.218901 
L 691.342822 347.870114 
L 692.335527 394.287153 
L 693.328233 372.920025 
L 694.320939 339.994252 
L 695.313645 365.513047 
L 696.306351 404.515731 
L 697.299057 364.326741 
L 698.291763 370.473612 
L 699.284469 379.962587 
L 700.277175 378.650008 
L 701.269881 382.059045 
L 702.262587 492.48 
L 703.255293 416.333119 
L 705.240705 365.875024 
L 706.23341 385.55116 
L 707.226116 392.080842 
L 708.218822 456.728266 
L 709.211528 383.960739 
L 710.204234 362.97135 
L 711.19694 372.58255 
L 712.189646 384.07137 
L 713.182352 363.982583 
L 714.175058 384.736513 
L 715.167764 396.166819 
L 716.16047 416.933597 
L 717.153176 372.891974 
L 718.145882 424.108434 
L 719.138587 387.723253 
L 720.131293 379.337039 
L 721.123999 394.059169 
L 722.116705 383.587502 
L 723.109411 367.813889 
L 724.102117 362.832753 
L 725.094823 372.764559 
L 726.087529 391.483957 
L 727.080235 382.325997 
L 729.065647 419.283416 
L 730.058353 383.537193 
L 731.051059 380.646602 
L 732.043764 379.914277 
L 733.03647 415.515992 
L 734.029176 400.712111 
L 735.021882 382.148255 
L 736.014588 365.917375 
L 737.007294 373.339937 
L 738 362.227979 
L 738.992706 433.989166 
L 739.985412 389.490031 
L 740.978118 393.508408 
L 741.970824 375.9569 
L 742.96353 393.071759 
L 743.956236 394.662051 
L 744.948941 408.349772 
L 745.941647 401.363692 
L 746.934353 395.577621 
L 747.927059 396.27798 
L 748.919765 385.355282 
L 749.912471 407.229381 
L 751.897883 384.848884 
L 752.890589 404.047437 
L 753.883295 364.136191 
L 755.868707 419.109062 
L 756.861413 379.959561 
L 757.854118 380.125233 
L 758.846824 393.664649 
L 759.83953 383.664177 
L 760.832236 393.282448 
L 761.824942 389.28841 
L 762.817648 415.483661 
L 763.810354 395.270624 
L 764.80306 410.157466 
L 765.795766 376.645015 
L 766.788472 394.187917 
L 767.781178 403.41008 
L 768.773884 386.590791 
L 769.76659 401.529237 
L 770.759295 374.85615 
L 771.752001 384.438519 
L 772.744707 420.488549 
L 773.737413 387.582391 
L 774.730119 380.43548 
L 775.722825 382.712371 
L 776.715531 424.275482 
L 777.708237 383.580821 
L 778.700943 391.317794 
L 779.693649 392.009368 
L 780.686355 392.139838 
L 781.679061 399.344595 
L 782.671767 412.464192 
L 783.664473 414.292412 
L 785.649884 388.842173 
L 786.64259 382.904921 
L 787.635296 408.326886 
L 788.628002 401.591199 
L 789.620708 375.697232 
L 790.613414 382.443477 
L 791.60612 415.855531 
L 792.598826 376.603128 
L 793.591532 373.307105 
L 794.584238 401.846901 
L 795.576944 418.053203 
L 796.56965 379.39741 
L 798.555061 419.945515 
L 799.547767 411.733122 
L 800.540473 393.885002 
L 801.533179 386.508156 
L 802.525885 396.199454 
L 803.518591 377.710327 
L 804.511297 392.790347 
L 805.504003 377.62473 
L 806.496709 433.258233 
L 807.489415 415.120447 
L 808.482121 424.200283 
L 809.474827 408.876664 
L 810.467532 397.092112 
L 811.460238 413.651994 
L 812.452944 406.011136 
L 813.44565 386.975222 
L 814.438356 418.310145 
L 815.431062 383.527367 
L 816.423768 385.488321 
L 817.416474 393.125194 
L 818.40918 393.992295 
L 819.401886 392.035875 
L 820.394592 401.549286 
L 821.387298 394.20836 
L 822.380004 377.893684 
L 823.372709 402.296665 
L 824.365415 441.511228 
L 825.358121 403.669883 
L 826.350827 389.007546 
L 827.343533 408.330846 
L 828.336239 443.514938 
L 829.328945 426.863132 
L 830.321651 387.967234 
L 831.314357 421.149217 
L 832.307063 423.248919 
L 833.299769 378.690451 
L 834.292475 392.492766 
L 835.285181 433.214101 
L 836.277886 384.747853 
L 837.270592 446.958187 
L 838.263298 387.969161 
L 839.256004 388.374933 
L 840.24871 400.264095 
L 841.241416 397.118554 
L 842.234122 423.035571 
L 843.226828 420.344684 
L 844.219534 434.979957 
L 845.21224 398.604371 
L 846.204946 378.010174 
L 847.197652 388.907655 
L 848.190358 414.346017 
L 849.183064 384.927439 
L 850.175769 401.497791 
L 851.168475 415.559629 
L 852.161181 404.169849 
L 853.153887 400.609752 
L 854.146593 413.252099 
L 855.139299 394.045068 
L 856.132005 405.909961 
L 857.124711 389.808141 
L 858.117417 381.561315 
L 859.110123 382.961053 
L 860.102829 425.723078 
L 861.095535 402.196941 
L 862.088241 384.108138 
L 863.080946 381.219553 
L 864.073652 402.142767 
L 865.066358 400.212736 
L 866.059064 414.744587 
L 867.05177 416.309929 
L 868.044476 409.559622 
L 869.037182 391.337123 
L 870.029888 412.233459 
L 871.022594 418.850356 
L 872.0153 367.948882 
L 873.008006 416.736855 
L 874.000712 403.790385 
L 874.993418 402.497459 
L 875.986123 387.395435 
L 876.978829 388.99957 
L 877.971535 388.434983 
L 878.964241 422.0963 
L 879.956947 400.960781 
L 880.949653 434.918758 
L 881.942359 396.444418 
L 882.935065 386.428585 
L 883.927771 386.993653 
L 884.920477 378.532401 
L 885.913183 396.249635 
L 886.905889 398.985402 
L 887.898595 438.000647 
L 888.8913 411.461413 
L 889.884006 407.213767 
L 890.876712 397.334678 
L 891.869418 396.128335 
L 892.862124 435.475174 
L 893.85483 400.944994 
L 894.847536 373.610496 
L 895.840242 393.87856 
L 896.832948 454.696999 
L 897.825654 397.069675 
L 898.81836 382.313 
L 899.811066 393.585943 
L 900.803772 385.415171 
L 901.796477 383.272933 
L 902.789183 421.54231 
L 903.781889 374.33951 
L 904.774595 381.501638 
L 905.767301 414.653982 
L 906.760007 408.16784 
L 907.752713 397.421234 
L 908.745419 415.500098 
L 909.738125 400.963552 
L 910.730831 390.785878 
L 911.723537 421.076108 
L 912.716243 378.117449 
L 913.708949 389.515746 
L 914.701655 394.494995 
L 915.69436 406.977968 
L 916.687066 481.758979 
L 917.679772 374.813237 
L 918.672478 393.212103 
L 919.665184 374.161703 
L 920.65789 449.205604 
L 921.650596 395.397973 
L 922.643302 388.221609 
L 923.636008 390.754369 
L 924.628714 416.772298 
L 925.62142 418.739042 
L 926.614126 404.437089 
L 927.606832 376.408734 
L 928.599537 386.184566 
L 929.592243 413.923936 
L 930.584949 417.397577 
L 932.570361 401.70014 
L 933.563067 400.491732 
L 934.555773 427.688738 
L 935.548479 388.24923 
L 936.541185 408.850251 
L 937.533891 436.978913 
L 938.526597 390.33677 
L 939.519303 424.545042 
L 940.512009 399.648601 
L 941.504714 408.165665 
L 942.49742 398.832688 
L 943.490126 393.094585 
L 944.482832 424.150782 
L 945.475538 387.168511 
L 946.468244 413.469845 
L 947.46095 396.838811 
L 948.453656 454.978495 
L 949.446362 410.11079 
L 950.439068 388.798426 
L 951.431774 404.21481 
L 952.42448 399.998405 
L 953.417186 386.86113 
L 954.409891 421.086859 
L 955.402597 434.539643 
L 956.395303 418.651594 
L 957.388009 381.32397 
L 958.380715 403.038086 
L 959.373421 390.113292 
L 960.366127 374.673363 
L 961.358833 393.153962 
L 962.351539 416.267805 
L 963.344245 399.464677 
L 964.336951 400.865524 
L 965.329657 421.789069 
L 966.322363 392.625236 
L 967.315068 408.589605 
L 968.307774 403.234873 
L 969.30048 432.199404 
L 970.293186 405.841689 
L 971.285892 403.342225 
L 972.278598 419.905838 
L 973.271304 433.58434 
L 974.26401 407.031838 
L 975.256716 388.461584 
L 976.249422 400.784855 
L 977.242128 396.859724 
L 978.234834 410.978659 
L 979.22754 387.260371 
L 980.220246 392.62265 
L 981.212951 406.574198 
L 982.205657 433.892252 
L 983.198363 421.881913 
L 984.191069 419.367755 
L 985.183775 401.008974 
L 986.176481 417.395174 
L 987.169187 395.254755 
L 988.161893 431.221116 
L 989.154599 413.073477 
L 990.147305 417.328284 
L 991.140011 381.843791 
L 992.132717 404.738093 
L 993.125423 411.728361 
L 994.118128 408.444526 
L 995.110834 411.964596 
L 996.10354 404.223405 
L 997.096246 408.523247 
L 998.088952 414.383113 
L 999.081658 399.380998 
L 1000.074364 387.840531 
L 1001.06707 405.546601 
L 1002.059776 413.555106 
L 1003.052482 400.694962 
L 1004.045188 395.771568 
L 1005.037894 408.733008 
L 1006.0306 406.971814 
L 1007.023305 444.224203 
L 1008.016011 390.8746 
L 1009.008717 422.281561 
L 1010.001423 404.189417 
L 1010.994129 391.192158 
L 1011.986835 411.100479 
L 1012.979541 438.220537 
L 1013.972247 384.384595 
L 1014.964953 399.138993 
L 1015.957659 403.923612 
L 1016.950365 395.091072 
L 1017.943071 413.800533 
L 1018.935777 413.227339 
L 1019.928482 392.380801 
L 1020.921188 445.714579 
L 1021.913894 391.787175 
L 1022.9066 397.184985 
L 1023.899306 397.194011 
L 1024.892012 401.389602 
L 1025.884718 391.482059 
L 1026.877424 398.256551 
L 1027.87013 386.371508 
L 1028.862836 425.558794 
L 1029.855542 382.996498 
L 1030.848248 403.569916 
L 1031.840954 393.626696 
L 1032.833659 417.640295 
L 1033.826365 404.336702 
L 1034.819071 444.742159 
L 1035.811777 380.995909 
L 1036.804483 411.46092 
L 1037.797189 378.973353 
L 1038.789895 408.844174 
L 1039.782601 401.314185 
L 1040.775307 381.993602 
L 1041.768013 432.233814 
L 1042.760719 414.306431 
L 1043.753425 456.735884 
L 1044.746131 400.869357 
L 1045.738837 384.022852 
L 1046.731542 423.003482 
L 1047.724248 401.82111 
L 1048.716954 388.078844 
L 1049.70966 395.621499 
L 1050.702366 422.954336 
L 1051.695072 439.33423 
L 1052.687778 395.899472 
L 1053.680484 455.668776 
L 1054.67319 388.506441 
L 1055.665896 416.589834 
L 1056.658602 410.337743 
L 1057.651308 407.439549 
L 1058.644014 393.77511 
L 1059.636719 405.638046 
L 1060.629425 381.688566 
L 1061.622131 417.376726 
L 1062.614837 399.487928 
L 1063.607543 386.790417 
L 1064.600249 405.75186 
L 1065.592955 417.344067 
L 1066.585661 463.812797 
L 1067.578367 412.463643 
L 1068.571073 430.627505 
L 1070.556485 390.19096 
L 1071.549191 389.254811 
L 1072.541896 435.830302 
L 1073.534602 377.736198 
L 1074.527308 394.484641 
L 1075.520014 398.426219 
L 1076.51272 382.296526 
L 1077.505426 404.89103 
L 1078.498132 432.726874 
L 1079.490838 404.081784 
L 1080.483544 404.767248 
L 1081.47625 399.850764 
L 1082.468956 435.679317 
L 1083.461662 415.808493 
L 1084.454368 385.633536 
L 1086.439779 447.11295 
L 1087.432485 398.536421 
L 1088.425191 437.57676 
L 1089.417897 412.023989 
L 1090.410603 396.008358 
L 1091.403309 438.956597 
L 1092.396015 382.677117 
L 1093.388721 388.245385 
L 1094.381427 417.153261 
L 1095.374133 385.141346 
L 1096.366839 398.565433 
L 1097.359545 401.844761 
L 1098.35225 426.272459 
L 1099.344956 421.944983 
L 1100.337662 400.857 
L 1101.330368 389.230319 
L 1102.323074 405.282798 
L 1103.31578 404.057703 
L 1104.308486 416.750812 
L 1105.301192 389.647164 
L 1106.293898 417.483432 
L 1107.286604 394.851706 
L 1108.27931 413.281043 
L 1109.272016 389.165736 
L 1110.264722 393.550937 
L 1111.257428 394.474213 
L 1113.242839 412.876782 
L 1114.235545 413.686271 
L 1115.228251 409.326668 
L 1116.220957 421.063613 
L 1117.213663 400.562343 
L 1118.206369 452.549173 
L 1119.199075 404.51668 
L 1120.191781 426.913474 
L 1121.184487 445.157968 
L 1122.177193 399.648949 
L 1123.169899 375.914226 
L 1124.162605 454.527408 
L 1125.15531 386.632338 
L 1126.148016 412.36236 
L 1127.140722 386.851344 
L 1128.133428 391.257133 
L 1129.126134 405.588171 
L 1130.11884 396.191948 
L 1131.111546 405.519875 
L 1132.104252 406.113013 
L 1133.096958 387.789603 
L 1134.089664 440.055229 
L 1135.08237 381.015848 
L 1136.075076 385.559333 
L 1137.067782 410.510394 
L 1138.060487 395.867367 
L 1139.053193 449.35735 
L 1140.045899 438.230881 
L 1141.038605 396.60074 
L 1142.031311 419.083415 
L 1143.024017 402.631342 
L 1144.016723 434.30833 
L 1145.009429 391.951217 
L 1146.002135 418.025603 
L 1146.994841 393.104287 
L 1147.987547 423.445573 
L 1148.980253 420.772987 
L 1149.972959 399.589409 
L 1150.965664 419.409942 
L 1151.95837 416.517273 
L 1152.951076 402.610013 
L 1153.943782 390.671473 
L 1154.936488 390.36432 
L 1155.929194 404.623388 
L 1156.9219 402.695815 
L 1157.914606 419.411056 
L 1158.907312 397.225597 
L 1159.900018 407.374895 
L 1160.892724 377.205355 
L 1161.88543 434.387069 
L 1162.878136 378.91212 
L 1164.863547 424.617613 
L 1165.856253 434.982154 
L 1166.848959 431.666286 
L 1167.841665 401.193069 
L 1168.834371 437.656307 
L 1169.827077 393.170112 
L 1170.819783 437.883988 
L 1171.812489 392.483643 
L 1172.805195 405.329439 
L 1173.797901 404.187886 
L 1174.790607 410.441447 
L 1175.783313 415.049961 
L 1176.776019 387.721503 
L 1177.768724 415.224088 
L 1178.76143 417.628863 
L 1179.754136 392.1794 
L 1180.746842 419.750514 
L 1181.739548 386.074016 
L 1182.732254 378.462363 
L 1183.72496 412.184007 
L 1184.717666 429.818539 
L 1185.710372 449.883201 
L 1186.703078 406.548197 
L 1187.695784 384.030952 
L 1188.68849 415.785781 
L 1189.681196 443.497633 
L 1190.673901 380.695039 
L 1191.666607 385.659507 
L 1192.659313 406.377962 
L 1193.652019 412.139963 
L 1194.644725 399.073122 
L 1195.637431 426.836933 
L 1196.630137 388.731569 
L 1197.622843 407.315865 
L 1198.615549 398.57763 
L 1199.608255 476.769166 
L 1200.600961 385.620143 
L 1201.593667 417.313782 
L 1202.586373 382.248328 
L 1203.579078 401.339208 
L 1204.571784 391.113798 
L 1205.56449 448.421806 
L 1206.557196 444.78897 
L 1207.549902 424.238956 
L 1208.542608 441.490696 
L 1209.535314 422.335938 
L 1210.52802 424.237487 
L 1211.520726 390.852803 
L 1212.513432 400.955327 
L 1213.506138 399.35657 
L 1214.498844 416.127517 
L 1215.49155 397.085828 
L 1216.484255 410.59807 
L 1217.476961 426.596337 
L 1218.469667 417.33721 
L 1219.462373 406.320515 
L 1220.455079 428.46925 
L 1221.447785 409.456192 
L 1222.440491 379.795776 
L 1223.433197 423.258151 
L 1224.425903 392.293853 
L 1225.418609 423.738945 
L 1226.411315 405.477618 
L 1227.404021 419.226211 
L 1228.396727 437.858242 
L 1229.389432 407.203272 
L 1230.382138 430.806729 
L 1231.374844 391.690576 
L 1232.36755 411.949307 
L 1233.360256 411.260891 
L 1234.352962 385.235507 
L 1235.345668 408.775172 
L 1236.338374 456.154465 
L 1237.33108 383.558207 
L 1238.323786 404.969038 
L 1239.316492 388.44104 
L 1240.309198 395.371727 
L 1241.301904 407.146574 
L 1242.29461 390.649059 
L 1243.287315 405.435462 
L 1244.280021 393.5425 
L 1245.272727 388.765138 
L 1245.272727 388.765138 
" clip-path="url(#p167d597e86)" style="fill: none; stroke: #1f77b4; stroke-width: 1.5; stroke-linecap: square"/>
   </g>
   <g id="patch_3">
    <path d="M 180 512.64 
L 180 69.12 
" style="fill: none; stroke: #000000; stroke-width: 0.8; stroke-linejoin: miter; stroke-linecap: square"/>
   </g>
   <g id="patch_4">
    <path d="M 1296 512.64 
L 1296 69.12 
" style="fill: none; stroke: #000000; stroke-width: 0.8; stroke-linejoin: miter; stroke-linecap: square"/>
   </g>
   <g id="patch_5">
    <path d="M 180 512.64 
L 1296 512.64 
" style="fill: none; stroke: #000000; stroke-width: 0.8; stroke-linejoin: miter; stroke-linecap: square"/>
   </g>
   <g id="patch_6">
    <path d="M 180 69.12 
L 1296 69.12 
" style="fill: none; stroke: #000000; stroke-width: 0.8; stroke-linejoin: miter; stroke-linecap: square"/>
   </g>
   <g id="text_12">
    <!-- source24-receiver16 -->
    <g transform="translate(532.175 60.80125) scale(0.4 -0.4)">
     <defs>
      <path id="DejaVuSans-73" d="M 2834 3397 
L 2834 2853 
Q 2591 2978 2328 3040 
Q 2066 3103 1784 3103 
Q 1356 3103 1142 2972 
Q 928 2841 928 2578 
Q 928 2378 1081 2264 
Q 1234 2150 1697 2047 
L 1894 2003 
Q 2506 1872 2764 1633 
Q 3022 1394 3022 966 
Q 3022 478 2636 193 
Q 2250 -91 1575 -91 
Q 1294 -91 989 -36 
Q 684 19 347 128 
L 347 722 
Q 666 556 975 473 
Q 1284 391 1588 391 
Q 1994 391 2212 530 
Q 2431 669 2431 922 
Q 2431 1156 2273 1281 
Q 2116 1406 1581 1522 
L 1381 1569 
Q 847 1681 609 1914 
Q 372 2147 372 2553 
Q 372 3047 722 3315 
Q 1072 3584 1716 3584 
Q 2034 3584 2315 3537 
Q 2597 3491 2834 3397 
z
" transform="scale(0.015625)"/>
      <path id="DejaVuSans-6f" d="M 1959 3097 
Q 1497 3097 1228 2736 
Q 959 2375 959 1747 
Q 959 1119 1226 758 
Q 1494 397 1959 397 
Q 2419 397 2687 759 
Q 2956 1122 2956 1747 
Q 2956 2369 2687 2733 
Q 2419 3097 1959 3097 
z
M 1959 3584 
Q 2709 3584 3137 3096 
Q 3566 2609 3566 1747 
Q 3566 888 3137 398 
Q 2709 -91 1959 -91 
Q 1206 -91 779 398 
Q 353 888 353 1747 
Q 353 2609 779 3096 
Q 1206 3584 1959 3584 
z
" transform="scale(0.015625)"/>
      <path id="DejaVuSans-75" d="M 544 1381 
L 544 3500 
L 1119 3500 
L 1119 1403 
Q 1119 906 1312 657 
Q 1506 409 1894 409 
Q 2359 409 2629 706 
Q 2900 1003 2900 1516 
L 2900 3500 
L 3475 3500 
L 3475 0 
L 2900 0 
L 2900 538 
Q 2691 219 2414 64 
Q 2138 -91 1772 -91 
Q 1169 -91 856 284 
Q 544 659 544 1381 
z
M 1991 3584 
L 1991 3584 
z
" transform="scale(0.015625)"/>
      <path id="DejaVuSans-72" d="M 2631 2963 
Q 2534 3019 2420 3045 
Q 2306 3072 2169 3072 
Q 1681 3072 1420 2755 
Q 1159 2438 1159 1844 
L 1159 0 
L 581 0 
L 581 3500 
L 1159 3500 
L 1159 2956 
Q 1341 3275 1631 3429 
Q 1922 3584 2338 3584 
Q 2397 3584 2469 3576 
Q 2541 3569 2628 3553 
L 2631 2963 
z
" transform="scale(0.015625)"/>
      <path id="DejaVuSans-63" d="M 3122 3366 
L 3122 2828 
Q 2878 2963 2633 3030 
Q 2388 3097 2138 3097 
Q 1578 3097 1268 2742 
Q 959 2388 959 1747 
Q 959 1106 1268 751 
Q 1578 397 2138 397 
Q 2388 397 2633 464 
Q 2878 531 3122 666 
L 3122 134 
Q 2881 22 2623 -34 
Q 2366 -91 2075 -91 
Q 1284 -91 818 406 
Q 353 903 353 1747 
Q 353 2603 823 3093 
Q 1294 3584 2113 3584 
Q 2378 3584 2631 3529 
Q 2884 3475 3122 3366 
z
" transform="scale(0.015625)"/>
      <path id="DejaVuSans-65" d="M 3597 1894 
L 3597 1613 
L 953 1613 
Q 991 1019 1311 708 
Q 1631 397 2203 397 
Q 2534 397 2845 478 
Q 3156 559 3463 722 
L 3463 178 
Q 3153 47 2828 -22 
Q 2503 -91 2169 -91 
Q 1331 -91 842 396 
Q 353 884 353 1716 
Q 353 2575 817 3079 
Q 1281 3584 2069 3584 
Q 2775 3584 3186 3129 
Q 3597 2675 3597 1894 
z
M 3022 2063 
Q 3016 2534 2758 2815 
Q 2500 3097 2075 3097 
Q 1594 3097 1305 2825 
Q 1016 2553 972 2059 
L 3022 2063 
z
" transform="scale(0.015625)"/>
      <path id="DejaVuSans-2d" d="M 313 2009 
L 1997 2009 
L 1997 1497 
L 313 1497 
L 313 2009 
z
" transform="scale(0.015625)"/>
      <path id="DejaVuSans-69" d="M 603 3500 
L 1178 3500 
L 1178 0 
L 603 0 
L 603 3500 
z
M 603 4863 
L 1178 4863 
L 1178 4134 
L 603 4134 
L 603 4863 
z
" transform="scale(0.015625)"/>
      <path id="DejaVuSans-76" d="M 191 3500 
L 800 3500 
L 1894 563 
L 2988 3500 
L 3597 3500 
L 2284 0 
L 1503 0 
L 191 3500 
z
" transform="scale(0.015625)"/>
     </defs>
     <use xlink:href="#DejaVuSans-73"/>
     <use xlink:href="#DejaVuSans-6f" x="52.099609"/>
     <use xlink:href="#DejaVuSans-75" x="113.28125"/>
     <use xlink:href="#DejaVuSans-72" x="176.660156"/>
     <use xlink:href="#DejaVuSans-63" x="215.523438"/>
     <use xlink:href="#DejaVuSans-65" x="270.503906"/>
     <use xlink:href="#DejaVuSans-32" x="332.027344"/>
     <use xlink:href="#DejaVuSans-34" x="395.650391"/>
     <use xlink:href="#DejaVuSans-2d" x="459.273438"/>
     <use xlink:href="#DejaVuSans-72" x="495.357422"/>
     <use xlink:href="#DejaVuSans-65" x="534.220703"/>
     <use xlink:href="#DejaVuSans-63" x="595.744141"/>
     <use xlink:href="#DejaVuSans-65" x="650.724609"/>
     <use xlink:href="#DejaVuSans-69" x="712.248047"/>
     <use xlink:href="#DejaVuSans-76" x="740.03125"/>
     <use xlink:href="#DejaVuSans-65" x="799.210938"/>
     <use xlink:href="#DejaVuSans-72" x="860.734375"/>
     <use xlink:href="#DejaVuSans-31" x="901.847656"/>
     <use xlink:href="#DejaVuSans-36" x="965.470703"/>
    </g>
   </g>
  </g>
 </g>
 <defs>
  <clipPath id="p167d597e86">
   <rect x="180" y="69.12" width="1116" height="443.52"/>
  </clipPath>
 </defs>
</svg>
