<?xml version="1.0" encoding="utf-8" standalone="no"?>
<!DOCTYPE svg PUBLIC "-//W3C//DTD SVG 1.1//EN"
  "http://www.w3.org/Graphics/SVG/1.1/DTD/svg11.dtd">
<svg xmlns:xlink="http://www.w3.org/1999/xlink" width="1440pt" height="576pt" viewBox="0 0 1440 576" xmlns="http://www.w3.org/2000/svg" version="1.1">
 <metadata>
  <rdf:RDF xmlns:dc="http://purl.org/dc/elements/1.1/" xmlns:cc="http://creativecommons.org/ns#" xmlns:rdf="http://www.w3.org/1999/02/22-rdf-syntax-ns#">
   <cc:Work>
    <dc:type rdf:resource="http://purl.org/dc/dcmitype/StillImage"/>
    <dc:date>2024-05-22T04:50:26.977002</dc:date>
    <dc:format>image/svg+xml</dc:format>
    <dc:creator>
     <cc:Agent>
      <dc:title>Matplotlib v3.8.3, https://matplotlib.org/</dc:title>
     </cc:Agent>
    </dc:creator>
   </cc:Work>
  </rdf:RDF>
 </metadata>
 <defs>
  <style type="text/css">*{stroke-linejoin: round; stroke-linecap: butt}</style>
 </defs>
 <g id="figure_1">
  <g id="patch_1">
   <path d="M 0 576 
L 1440 576 
L 1440 0 
L 0 0 
z
" style="fill: #ffffff"/>
  </g>
  <g id="axes_1">
   <g id="patch_2">
    <path d="M 180 512.64 
L 1296 512.64 
L 1296 69.12 
L 180 69.12 
z
" style="fill: #ffffff"/>
   </g>
   <g id="matplotlib.axis_1">
    <g id="xtick_1">
     <g id="line2d_1">
      <defs>
       <path id="m1ba68c5324" d="M 0 0 
L 0 3.5 
" style="stroke: #000000; stroke-width: 0.8"/>
      </defs>
      <g>
       <use xlink:href="#m1ba68c5324" x="229.734567" y="512.64" style="stroke: #000000; stroke-width: 0.8"/>
      </g>
     </g>
     <g id="text_1">
      <!-- 0 -->
      <g transform="translate(226.553317 527.238438) scale(0.1 -0.1)">
       <defs>
        <path id="DejaVuSans-30" d="M 2034 4250 
Q 1547 4250 1301 3770 
Q 1056 3291 1056 2328 
Q 1056 1369 1301 889 
Q 1547 409 2034 409 
Q 2525 409 2770 889 
Q 3016 1369 3016 2328 
Q 3016 3291 2770 3770 
Q 2525 4250 2034 4250 
z
M 2034 4750 
Q 2819 4750 3233 4129 
Q 3647 3509 3647 2328 
Q 3647 1150 3233 529 
Q 2819 -91 2034 -91 
Q 1250 -91 836 529 
Q 422 1150 422 2328 
Q 422 3509 836 4129 
Q 1250 4750 2034 4750 
z
" transform="scale(0.015625)"/>
       </defs>
       <use xlink:href="#DejaVuSans-30"/>
      </g>
     </g>
    </g>
    <g id="xtick_2">
     <g id="line2d_2">
      <g>
       <use xlink:href="#m1ba68c5324" x="433.04074" y="512.64" style="stroke: #000000; stroke-width: 0.8"/>
      </g>
     </g>
     <g id="text_2">
      <!-- 500 -->
      <g transform="translate(423.49699 527.238438) scale(0.1 -0.1)">
       <defs>
        <path id="DejaVuSans-35" d="M 691 4666 
L 3169 4666 
L 3169 4134 
L 1269 4134 
L 1269 2991 
Q 1406 3038 1543 3061 
Q 1681 3084 1819 3084 
Q 2600 3084 3056 2656 
Q 3513 2228 3513 1497 
Q 3513 744 3044 326 
Q 2575 -91 1722 -91 
Q 1428 -91 1123 -41 
Q 819 9 494 109 
L 494 744 
Q 775 591 1075 516 
Q 1375 441 1709 441 
Q 2250 441 2565 725 
Q 2881 1009 2881 1497 
Q 2881 1984 2565 2268 
Q 2250 2553 1709 2553 
Q 1456 2553 1204 2497 
Q 953 2441 691 2322 
L 691 4666 
z
" transform="scale(0.015625)"/>
       </defs>
       <use xlink:href="#DejaVuSans-35"/>
       <use xlink:href="#DejaVuSans-30" x="63.623047"/>
       <use xlink:href="#DejaVuSans-30" x="127.246094"/>
      </g>
     </g>
    </g>
    <g id="xtick_3">
     <g id="line2d_3">
      <g>
       <use xlink:href="#m1ba68c5324" x="636.346913" y="512.64" style="stroke: #000000; stroke-width: 0.8"/>
      </g>
     </g>
     <g id="text_3">
      <!-- 1000 -->
      <g transform="translate(623.621913 527.238438) scale(0.1 -0.1)">
       <defs>
        <path id="DejaVuSans-31" d="M 794 531 
L 1825 531 
L 1825 4091 
L 703 3866 
L 703 4441 
L 1819 4666 
L 2450 4666 
L 2450 531 
L 3481 531 
L 3481 0 
L 794 0 
L 794 531 
z
" transform="scale(0.015625)"/>
       </defs>
       <use xlink:href="#DejaVuSans-31"/>
       <use xlink:href="#DejaVuSans-30" x="63.623047"/>
       <use xlink:href="#DejaVuSans-30" x="127.246094"/>
       <use xlink:href="#DejaVuSans-30" x="190.869141"/>
      </g>
     </g>
    </g>
    <g id="xtick_4">
     <g id="line2d_4">
      <g>
       <use xlink:href="#m1ba68c5324" x="839.653087" y="512.64" style="stroke: #000000; stroke-width: 0.8"/>
      </g>
     </g>
     <g id="text_4">
      <!-- 1500 -->
      <g transform="translate(826.928087 527.238438) scale(0.1 -0.1)">
       <use xlink:href="#DejaVuSans-31"/>
       <use xlink:href="#DejaVuSans-35" x="63.623047"/>
       <use xlink:href="#DejaVuSans-30" x="127.246094"/>
       <use xlink:href="#DejaVuSans-30" x="190.869141"/>
      </g>
     </g>
    </g>
    <g id="xtick_5">
     <g id="line2d_5">
      <g>
       <use xlink:href="#m1ba68c5324" x="1042.95926" y="512.64" style="stroke: #000000; stroke-width: 0.8"/>
      </g>
     </g>
     <g id="text_5">
      <!-- 2000 -->
      <g transform="translate(1030.23426 527.238438) scale(0.1 -0.1)">
       <defs>
        <path id="DejaVuSans-32" d="M 1228 531 
L 3431 531 
L 3431 0 
L 469 0 
L 469 531 
Q 828 903 1448 1529 
Q 2069 2156 2228 2338 
Q 2531 2678 2651 2914 
Q 2772 3150 2772 3378 
Q 2772 3750 2511 3984 
Q 2250 4219 1831 4219 
Q 1534 4219 1204 4116 
Q 875 4013 500 3803 
L 500 4441 
Q 881 4594 1212 4672 
Q 1544 4750 1819 4750 
Q 2544 4750 2975 4387 
Q 3406 4025 3406 3419 
Q 3406 3131 3298 2873 
Q 3191 2616 2906 2266 
Q 2828 2175 2409 1742 
Q 1991 1309 1228 531 
z
" transform="scale(0.015625)"/>
       </defs>
       <use xlink:href="#DejaVuSans-32"/>
       <use xlink:href="#DejaVuSans-30" x="63.623047"/>
       <use xlink:href="#DejaVuSans-30" x="127.246094"/>
       <use xlink:href="#DejaVuSans-30" x="190.869141"/>
      </g>
     </g>
    </g>
    <g id="xtick_6">
     <g id="line2d_6">
      <g>
       <use xlink:href="#m1ba68c5324" x="1246.265433" y="512.64" style="stroke: #000000; stroke-width: 0.8"/>
      </g>
     </g>
     <g id="text_6">
      <!-- 2500 -->
      <g transform="translate(1233.540433 527.238438) scale(0.1 -0.1)">
       <use xlink:href="#DejaVuSans-32"/>
       <use xlink:href="#DejaVuSans-35" x="63.623047"/>
       <use xlink:href="#DejaVuSans-30" x="127.246094"/>
       <use xlink:href="#DejaVuSans-30" x="190.869141"/>
      </g>
     </g>
    </g>
   </g>
   <g id="matplotlib.axis_2">
    <g id="ytick_1">
     <g id="line2d_7">
      <defs>
       <path id="me9fb41c0f4" d="M 0 0 
L -3.5 0 
" style="stroke: #000000; stroke-width: 0.8"/>
      </defs>
      <g>
       <use xlink:href="#me9fb41c0f4" x="180" y="480.83839" style="stroke: #000000; stroke-width: 0.8"/>
      </g>
     </g>
     <g id="text_7">
      <!-- −4 -->
      <g transform="translate(158.257812 484.637609) scale(0.1 -0.1)">
       <defs>
        <path id="DejaVuSans-2212" d="M 678 2272 
L 4684 2272 
L 4684 1741 
L 678 1741 
L 678 2272 
z
" transform="scale(0.015625)"/>
        <path id="DejaVuSans-34" d="M 2419 4116 
L 825 1625 
L 2419 1625 
L 2419 4116 
z
M 2253 4666 
L 3047 4666 
L 3047 1625 
L 3713 1625 
L 3713 1100 
L 3047 1100 
L 3047 0 
L 2419 0 
L 2419 1100 
L 313 1100 
L 313 1709 
L 2253 4666 
z
" transform="scale(0.015625)"/>
       </defs>
       <use xlink:href="#DejaVuSans-2212"/>
       <use xlink:href="#DejaVuSans-34" x="83.789062"/>
      </g>
     </g>
    </g>
    <g id="ytick_2">
     <g id="line2d_8">
      <g>
       <use xlink:href="#me9fb41c0f4" x="180" y="399.96009" style="stroke: #000000; stroke-width: 0.8"/>
      </g>
     </g>
     <g id="text_8">
      <!-- −2 -->
      <g transform="translate(158.257812 403.759309) scale(0.1 -0.1)">
       <use xlink:href="#DejaVuSans-2212"/>
       <use xlink:href="#DejaVuSans-32" x="83.789062"/>
      </g>
     </g>
    </g>
    <g id="ytick_3">
     <g id="line2d_9">
      <g>
       <use xlink:href="#me9fb41c0f4" x="180" y="319.08179" style="stroke: #000000; stroke-width: 0.8"/>
      </g>
     </g>
     <g id="text_9">
      <!-- 0 -->
      <g transform="translate(166.6375 322.881009) scale(0.1 -0.1)">
       <use xlink:href="#DejaVuSans-30"/>
      </g>
     </g>
    </g>
    <g id="ytick_4">
     <g id="line2d_10">
      <g>
       <use xlink:href="#me9fb41c0f4" x="180" y="238.203491" style="stroke: #000000; stroke-width: 0.8"/>
      </g>
     </g>
     <g id="text_10">
      <!-- 2 -->
      <g transform="translate(166.6375 242.002709) scale(0.1 -0.1)">
       <use xlink:href="#DejaVuSans-32"/>
      </g>
     </g>
    </g>
    <g id="ytick_5">
     <g id="line2d_11">
      <g>
       <use xlink:href="#me9fb41c0f4" x="180" y="157.325191" style="stroke: #000000; stroke-width: 0.8"/>
      </g>
     </g>
     <g id="text_11">
      <!-- 4 -->
      <g transform="translate(166.6375 161.124409) scale(0.1 -0.1)">
       <use xlink:href="#DejaVuSans-34"/>
      </g>
     </g>
    </g>
    <g id="ytick_6">
     <g id="line2d_12">
      <g>
       <use xlink:href="#me9fb41c0f4" x="180" y="76.446891" style="stroke: #000000; stroke-width: 0.8"/>
      </g>
     </g>
     <g id="text_12">
      <!-- 6 -->
      <g transform="translate(166.6375 80.24611) scale(0.1 -0.1)">
       <defs>
        <path id="DejaVuSans-36" d="M 2113 2584 
Q 1688 2584 1439 2293 
Q 1191 2003 1191 1497 
Q 1191 994 1439 701 
Q 1688 409 2113 409 
Q 2538 409 2786 701 
Q 3034 994 3034 1497 
Q 3034 2003 2786 2293 
Q 2538 2584 2113 2584 
z
M 3366 4563 
L 3366 3988 
Q 3128 4100 2886 4159 
Q 2644 4219 2406 4219 
Q 1781 4219 1451 3797 
Q 1122 3375 1075 2522 
Q 1259 2794 1537 2939 
Q 1816 3084 2150 3084 
Q 2853 3084 3261 2657 
Q 3669 2231 3669 1497 
Q 3669 778 3244 343 
Q 2819 -91 2113 -91 
Q 1303 -91 875 529 
Q 447 1150 447 2328 
Q 447 3434 972 4092 
Q 1497 4750 2381 4750 
Q 2619 4750 2861 4703 
Q 3103 4656 3366 4563 
z
" transform="scale(0.015625)"/>
       </defs>
       <use xlink:href="#DejaVuSans-36"/>
      </g>
     </g>
    </g>
   </g>
   <g id="line2d_13">
    <path d="M 230.727273 268.098341 
L 231.719979 268.428757 
L 232.712685 270.608195 
L 233.70539 267.918074 
L 234.698096 268.751545 
L 235.690802 269.058174 
L 236.683508 268.142802 
L 237.676214 268.70617 
L 238.66892 266.756899 
L 239.661626 268.722659 
L 240.654332 268.12485 
L 241.647038 264.134116 
L 242.639744 269.550925 
L 243.63245 267.023594 
L 244.625156 262.321016 
L 245.617862 270.400538 
L 246.610568 267.529079 
L 247.603273 270.416807 
L 248.595979 271.145505 
L 249.588685 261.013874 
L 250.581391 267.336927 
L 251.574097 235.875056 
L 252.566803 225.029273 
L 253.559509 246.676484 
L 254.552215 247.251411 
L 255.544921 247.133159 
L 256.537627 241.547575 
L 257.530333 198.473779 
L 258.523039 191.519618 
L 259.515745 266.49505 
L 260.50845 194.6387 
L 261.501156 204.606588 
L 262.493862 218.437834 
L 263.486568 188.663138 
L 264.479274 198.655414 
L 265.47198 203.389648 
L 266.464686 194.75347 
L 267.457392 188.50948 
L 268.450098 175.30045 
L 269.442804 225.446621 
L 270.43551 145.25477 
L 271.428216 147.981085 
L 272.420922 141.870812 
L 273.413627 123.751961 
L 274.406333 125.840372 
L 275.399039 142.2397 
L 276.391745 172.274515 
L 277.384451 122.667097 
L 278.377157 128.488736 
L 279.369863 148.982278 
L 280.362569 128.108677 
L 281.355275 102.335938 
L 282.347981 89.28 
L 283.340687 96.258466 
L 284.333393 124.872221 
L 285.326099 141.706214 
L 286.318804 127.004347 
L 287.31151 127.85407 
L 288.304216 160.512538 
L 289.296922 172.144692 
L 290.289628 175.117654 
L 291.282334 252.603934 
L 292.27504 243.997648 
L 293.267746 221.449062 
L 294.260452 216.352049 
L 295.253158 242.319937 
L 296.245864 235.106766 
L 297.23857 228.778109 
L 298.231276 215.187508 
L 299.223981 252.30852 
L 300.216687 200.979072 
L 301.209393 218.138208 
L 302.202099 211.144301 
L 303.194805 225.322713 
L 304.187511 268.890832 
L 305.180217 261.234966 
L 306.172923 258.103774 
L 307.165629 244.615211 
L 308.158335 314.024702 
L 309.151041 265.927142 
L 310.143747 259.647388 
L 311.136453 322.931633 
L 312.129159 265.76395 
L 313.121864 265.441944 
L 314.11457 302.386817 
L 315.107276 273.288539 
L 316.099982 283.946424 
L 317.092688 282.154476 
L 318.085394 297.087224 
L 319.0781 281.719802 
L 320.070806 290.285233 
L 321.063512 292.946795 
L 322.056218 292.668151 
L 323.048924 286.080836 
L 324.04163 291.292279 
L 325.034336 299.896796 
L 326.027041 287.814948 
L 327.019747 299.199465 
L 328.012453 300.340539 
L 329.005159 292.905409 
L 329.997865 295.454693 
L 330.990571 306.532512 
L 331.983277 293.555083 
L 333.968689 306.960506 
L 334.961395 301.59742 
L 335.954101 299.854134 
L 337.939513 306.813896 
L 338.932218 305.638804 
L 339.924924 298.516621 
L 340.91763 315.697982 
L 341.910336 307.075148 
L 342.903042 294.530573 
L 343.895748 324.700587 
L 344.888454 308.403817 
L 345.88116 300.930829 
L 346.873866 314.722362 
L 347.866572 318.278716 
L 348.859278 293.568086 
L 349.851984 328.440508 
L 350.84469 309.283228 
L 351.837395 295.066547 
L 352.830101 342.332523 
L 353.822807 304.16519 
L 354.815513 302.193387 
L 355.808219 343.916174 
L 356.800925 307.547482 
L 357.793631 296.683204 
L 358.786337 398.075134 
L 359.779043 297.913826 
L 360.771749 299.15308 
L 361.764455 383.679152 
L 362.757161 288.786372 
L 363.749867 289.084453 
L 364.742572 330.362853 
L 365.735278 281.865131 
L 366.727984 283.116672 
L 367.72069 302.633969 
L 368.713396 270.12419 
L 369.706102 272.185294 
L 370.698808 284.918103 
L 371.691514 262.312521 
L 372.68422 265.240717 
L 373.676926 274.14632 
L 374.669632 255.758649 
L 375.662338 258.044221 
L 376.655044 263.825207 
L 377.64775 249.285785 
L 378.640455 251.895734 
L 379.633161 257.106559 
L 380.625867 245.409076 
L 381.618573 247.96692 
L 382.611279 253.04517 
L 383.603985 243.003198 
L 384.596691 246.426422 
L 385.589397 251.545266 
L 386.582103 243.151293 
L 387.574809 246.837495 
L 388.567515 253.107901 
L 389.560221 244.960176 
L 390.552927 249.965981 
L 391.545632 256.658728 
L 392.538338 248.832029 
L 393.531044 254.917087 
L 394.52375 263.778928 
L 395.516456 255.579813 
L 396.509162 262.795853 
L 397.501868 274.64496 
L 398.494574 264.51536 
L 399.48728 274.05632 
L 400.479986 291.305585 
L 401.472692 277.826465 
L 402.465398 286.811106 
L 403.458104 317.462538 
L 404.450809 294.120749 
L 405.443515 300.463952 
L 406.436221 366.004658 
L 407.428927 317.940426 
L 408.421633 304.528627 
L 409.414339 332.663209 
L 410.407045 337.544953 
L 411.399751 303.779182 
L 412.392457 313.611155 
L 413.385163 345.794788 
L 414.377869 300.824593 
L 415.370575 306.960786 
L 416.363281 340.786595 
L 417.355986 300.710038 
L 418.348692 308.133227 
L 419.341398 345.773692 
L 420.334104 304.424424 
L 421.32681 312.003584 
L 422.319516 368.239356 
L 423.312222 312.69673 
L 424.304928 316.565415 
L 425.297634 438.126526 
L 426.29034 323.229892 
L 427.283046 325.219703 
L 428.275752 369.516473 
L 429.268458 339.91968 
L 430.261163 328.721538 
L 431.253869 347.516062 
L 432.246575 357.468595 
L 433.239281 327.943632 
L 434.231987 338.004939 
L 435.224693 384.019026 
L 436.217399 327.614628 
L 437.210105 332.421365 
L 438.202811 385.530442 
L 439.195517 329.535525 
L 440.188223 337.185284 
L 441.180929 375.180953 
L 442.173635 336.890869 
L 443.166341 341.426715 
L 444.159046 358.396681 
L 445.151752 343.609739 
L 446.144458 354.927037 
L 447.137164 342.56531 
L 448.12987 351.848583 
L 449.122576 354.342709 
L 450.115282 328.893461 
L 451.107988 364.487038 
L 453.0934 320.889691 
L 454.086106 359.846423 
L 455.078812 334.383477 
L 456.071518 314.835998 
L 457.064223 352.467664 
L 458.056929 328.038637 
L 459.049635 313.333327 
L 460.042341 348.996762 
L 461.035047 321.104338 
L 462.027753 312.745687 
L 463.020459 355.383485 
L 464.013165 322.570419 
L 465.005871 314.886436 
L 465.998577 360.05789 
L 466.991283 322.436287 
L 467.983989 316.762055 
L 468.976695 373.111018 
L 469.9694 322.626319 
L 470.962106 324.153675 
L 471.954812 391.198709 
L 472.947518 322.922525 
L 473.940224 331.123794 
L 474.93293 374.767442 
L 475.925636 323.334033 
L 476.918342 336.122923 
L 477.911048 367.417949 
L 478.903754 324.027342 
L 479.89646 340.934731 
L 480.889166 355.330671 
L 481.881872 323.488584 
L 482.874577 346.590304 
L 483.867283 348.365224 
L 484.859989 322.179462 
L 485.852695 350.724009 
L 486.845401 341.465016 
L 487.838107 321.752176 
L 488.830813 359.883307 
L 489.823519 335.485629 
L 490.816225 322.522542 
L 491.808931 373.391373 
L 492.801637 332.460957 
L 493.794343 322.716925 
L 494.787049 384.30959 
L 495.779754 326.090547 
L 496.77246 326.018097 
L 497.765166 374.166811 
L 498.757872 322.333554 
L 499.750578 326.277169 
L 500.743284 353.463388 
L 501.73599 316.251341 
L 502.728696 327.75061 
L 503.721402 346.019435 
L 504.714108 313.977009 
L 505.706814 327.681522 
L 506.69952 334.458318 
L 507.692226 311.450706 
L 508.684932 329.458959 
L 509.677637 333.516679 
L 510.670343 311.715291 
L 511.663049 334.866334 
L 512.655755 329.709778 
L 513.648461 318.043275 
L 514.641167 348.578729 
L 515.633873 335.51702 
L 516.626579 324.66879 
L 517.619285 370.454832 
L 518.611991 338.988441 
L 519.604697 333.09818 
L 520.597403 450.387256 
L 521.590109 339.119555 
L 522.582814 347.601441 
L 523.57552 395.4294 
L 524.568226 341.668097 
L 525.560932 366.87615 
L 526.553638 361.650031 
L 527.546344 339.038283 
L 528.53905 388.321521 
L 529.531756 352.468266 
L 530.524462 344.939526 
L 531.517168 416.424024 
L 532.509874 345.060831 
L 533.50258 347.933204 
L 534.495286 395.008472 
L 535.487991 345.959048 
L 536.480697 357.389917 
L 537.473403 377.058786 
L 538.466109 344.406146 
L 539.458815 386.705578 
L 540.451521 356.69675 
L 541.444227 347.333693 
L 542.436933 423.787255 
L 543.429639 341.516445 
L 544.422345 349.750137 
L 545.415051 387.376134 
L 546.407757 335.114638 
L 547.400463 357.408706 
L 548.393168 367.249877 
L 549.385874 335.857681 
L 550.37858 363.354519 
L 551.371286 357.767207 
L 552.363992 333.869964 
L 553.356698 373.471112 
L 554.349404 355.275389 
L 555.34211 339.56848 
L 556.334816 408.859959 
L 557.327522 350.306103 
L 558.320228 347.112094 
L 559.312934 415.380003 
L 560.30564 349.098324 
L 561.298345 359.324055 
L 562.291051 378.686892 
L 563.283757 341.560518 
L 564.276463 370.477405 
L 565.269169 358.955238 
L 566.261875 342.138512 
L 567.254581 376.206873 
L 568.247287 357.034093 
L 569.239993 343.562955 
L 570.232699 406.556464 
L 571.225405 356.552776 
L 572.218111 348.960628 
L 573.210817 402.674094 
L 574.203523 362.792177 
L 575.196228 360.698134 
L 576.188934 377.27358 
L 577.18164 373.468071 
L 578.174346 373.254379 
L 579.167052 352.645508 
L 580.159758 380.396573 
L 581.152464 364.740743 
L 582.14517 340.885643 
L 583.137876 380.149796 
L 584.130582 344.745359 
L 585.123288 328.206927 
L 586.115994 358.185787 
L 587.1087 334.928702 
L 588.101405 322.547323 
L 589.094111 344.944069 
L 590.086817 328.311976 
L 591.079523 319.555061 
L 592.072229 342.860762 
L 593.064935 324.510043 
L 594.057641 315.993301 
L 595.050347 338.474988 
L 596.043053 323.688668 
L 597.035759 316.525245 
L 598.028465 340.180483 
L 599.021171 326.786893 
L 600.013877 317.950601 
L 601.006582 341.241238 
L 601.999288 330.163725 
L 602.991994 321.15003 
L 603.9847 347.181428 
L 604.977406 336.601593 
L 605.970112 324.339636 
L 606.962818 350.417583 
L 607.955524 343.48222 
L 608.94823 329.481573 
L 609.940936 349.874476 
L 610.933642 356.981972 
L 611.926348 330.980836 
L 612.919054 349.360192 
L 613.911759 369.952478 
L 614.904465 335.064861 
L 615.897171 345.125725 
L 616.889877 389.073506 
L 617.882583 340.356596 
L 618.875289 343.490355 
L 619.867995 410.64155 
L 620.860701 347.96867 
L 621.853407 345.677923 
L 622.846113 401.556549 
L 623.838819 358.208928 
L 624.831525 345.524521 
L 625.824231 390.05369 
L 626.816936 372.825459 
L 627.809642 347.279279 
L 629.795054 389.389106 
L 630.78776 348.8237 
L 631.780466 360.743803 
L 632.773172 415.608316 
L 633.765878 351.249828 
L 634.758584 353.794745 
L 635.75129 451.395735 
L 636.743996 352.188642 
L 637.736702 352.858508 
L 638.729408 464.963693 
L 639.722114 357.697783 
L 640.714819 355.924832 
L 641.707525 418.473032 
L 642.700231 369.667849 
L 643.692937 361.01598 
L 644.685643 391.858787 
L 645.678349 382.540498 
L 646.671055 368.092012 
L 647.663761 374.10688 
L 648.656467 394.045198 
L 649.649173 372.788282 
L 650.641879 362.398645 
L 651.634585 393.264865 
L 653.619996 356.24542 
L 654.612702 390.466923 
L 655.605408 374.637622 
L 656.598114 354.692083 
L 657.59082 392.742362 
L 659.576232 357.325657 
L 660.568938 397.851345 
L 661.561644 374.838932 
L 662.55435 364.793566 
L 663.547056 396.857193 
L 664.539762 373.374932 
L 665.532468 379.669193 
L 666.525173 380.192104 
L 667.517879 369.299137 
L 668.510585 404.680256 
L 669.503291 366.27943 
L 670.495997 362.292641 
L 671.488703 455.846175 
L 672.481409 355.041081 
L 673.474115 357.914094 
L 674.466821 417.12515 
L 675.459527 348.324814 
L 676.452233 355.190668 
L 677.444939 393.89086 
L 678.437645 344.30745 
L 679.43035 355.923948 
L 680.423056 384.483791 
L 681.415762 343.939911 
L 682.408468 359.875265 
L 683.401174 382.217734 
L 684.39388 345.642472 
L 685.386586 367.182202 
L 686.379292 382.233994 
L 687.371998 350.413618 
L 688.364704 377.894381 
L 689.35741 382.600975 
L 690.350116 357.380906 
L 691.342822 388.126793 
L 692.335527 383.187753 
L 693.328233 367.308039 
L 694.320939 392.488351 
L 695.313645 380.00998 
L 696.306351 378.713439 
L 697.299057 384.210745 
L 698.291763 376.076655 
L 699.284469 391.072921 
L 700.277175 378.267677 
L 701.269881 373.018857 
L 702.262587 400.323304 
L 703.255293 373.977882 
L 704.247999 372.551949 
L 705.240705 401.230562 
L 706.23341 374.94791 
L 707.226116 372.202736 
L 708.218822 397.64147 
L 709.211528 380.300878 
L 710.204234 374.013463 
L 711.19694 387.469218 
L 712.189646 389.991359 
L 713.182352 373.924719 
L 714.175058 377.621406 
L 715.167764 402.345755 
L 716.16047 373.767864 
L 717.153176 370.415339 
L 718.145882 412.921967 
L 719.138587 373.005669 
L 720.131293 365.5828 
L 721.123999 414.225123 
L 722.116705 373.635969 
L 723.109411 363.562644 
L 724.102117 409.262741 
L 725.094823 376.979647 
L 726.087529 364.151003 
L 727.080235 401.008898 
L 728.072941 383.110844 
L 729.065647 367.510005 
L 730.058353 392.315385 
L 731.051059 389.790865 
L 732.043764 373.873108 
L 733.03647 382.9101 
L 734.029176 394.007662 
L 735.021882 382.235859 
L 736.014588 374.458976 
L 737.007294 389.746392 
L 738 393.369648 
L 738.992706 367.877706 
L 739.985412 381.773953 
L 740.978118 405.461487 
L 741.970824 364.050868 
L 742.96353 375.030834 
L 743.956236 417.906464 
L 744.948941 363.110544 
L 745.941647 370.946975 
L 746.934353 433.962598 
L 747.927059 364.760356 
L 748.919765 369.044521 
L 749.912471 443.781249 
L 750.905177 369.02854 
L 751.897883 368.091684 
L 752.890589 426.816983 
L 753.883295 375.219225 
L 754.876001 368.481686 
L 755.868707 407.925795 
L 756.861413 381.7481 
L 757.854118 369.291787 
L 758.846824 398.22269 
L 759.83953 387.990561 
L 760.832236 371.71728 
L 761.824942 393.517041 
L 762.817648 389.427746 
L 763.810354 376.373888 
L 764.80306 392.074777 
L 765.795766 385.063238 
L 766.788472 385.688631 
L 767.781178 390.454122 
L 768.773884 376.603135 
L 769.76659 397.934276 
L 770.759295 384.294325 
L 771.752001 367.804924 
L 772.744707 411.691621 
L 773.737413 375.44637 
L 774.730119 360.270116 
L 775.722825 413.220102 
L 776.715531 367.850156 
L 777.708237 355.697932 
L 778.700943 408.927839 
L 779.693649 362.515658 
L 780.686355 353.332528 
L 781.679061 406.373298 
L 782.671767 359.772247 
L 783.664473 353.313981 
L 784.657178 409.737061 
L 785.649884 359.050888 
L 786.64259 355.001459 
L 787.635296 419.284246 
L 788.628002 360.140796 
L 789.620708 358.242358 
L 790.613414 440.373293 
L 791.60612 362.799167 
L 792.598826 362.465451 
L 793.591532 492.48 
L 794.584238 366.948963 
L 795.576944 367.355566 
L 796.56965 453.368776 
L 797.562355 372.561132 
L 798.555061 371.275229 
L 799.547767 422.434646 
L 800.540473 379.948933 
L 801.533179 374.779892 
L 802.525885 404.209162 
L 803.518591 388.741649 
L 804.511297 376.036642 
L 805.504003 392.803894 
L 806.496709 398.82149 
L 807.489415 377.051936 
L 808.482121 384.049514 
L 809.474827 409.751276 
L 810.467532 377.271586 
L 811.460238 377.453976 
L 812.452944 420.265102 
L 813.44565 378.079979 
L 814.438356 372.940478 
L 815.431062 421.051303 
L 816.423768 379.057199 
L 817.416474 370.326544 
L 818.40918 418.561136 
L 819.401886 380.592289 
L 820.394592 369.410491 
L 821.387298 414.337992 
L 822.380004 382.573712 
L 823.372709 370.521531 
L 824.365415 410.186709 
L 825.358121 385.258737 
L 826.350827 373.048676 
L 827.343533 405.832858 
L 828.336239 387.795617 
L 829.328945 376.679821 
L 830.321651 401.164725 
L 831.314357 389.655078 
L 832.307063 380.902725 
L 833.299769 397.019738 
L 834.292475 390.9728 
L 835.285181 383.282719 
L 836.277886 394.288328 
L 837.270592 393.253016 
L 838.263298 383.984506 
L 839.256004 393.526766 
L 840.24871 394.807108 
L 841.241416 381.878159 
L 842.234122 393.272808 
L 843.226828 397.007309 
L 844.219534 377.858865 
L 845.21224 394.419068 
L 846.204946 398.396448 
L 847.197652 373.897319 
L 848.190358 394.000726 
L 849.183064 399.293358 
L 850.175769 370.802911 
L 851.168475 392.528215 
L 852.161181 399.52996 
L 853.153887 368.866976 
L 854.146593 390.888422 
L 855.139299 401.823936 
L 856.132005 368.472265 
L 857.124711 388.898373 
L 858.117417 404.267357 
L 859.110123 369.867818 
L 861.095535 406.662496 
L 862.088241 371.737929 
L 864.073652 405.485751 
L 865.066358 375.217417 
L 866.059064 392.578219 
L 867.05177 399.944848 
L 868.044476 379.411628 
L 869.037182 398.81918 
L 870.029888 392.05431 
L 871.022594 383.485322 
L 872.0153 406.08663 
L 873.008006 383.140715 
L 874.000712 385.363933 
L 874.993418 413.0307 
L 875.986123 376.234035 
L 876.978829 385.667496 
L 877.971535 415.945614 
L 878.964241 370.975586 
L 879.956947 384.61075 
L 880.949653 413.529185 
L 881.942359 367.976745 
L 882.935065 383.570869 
L 883.927771 410.924351 
L 884.920477 367.067583 
L 885.913183 383.868035 
L 886.905889 409.911958 
L 887.898595 368.123209 
L 888.8913 385.463398 
L 889.884006 410.853238 
L 890.876712 370.481296 
L 891.869418 387.317414 
L 892.862124 411.134801 
L 893.85483 372.653489 
L 894.847536 389.564977 
L 895.840242 409.376643 
L 896.832948 375.092125 
L 898.81836 406.933353 
L 899.811066 376.612681 
L 900.803772 393.132352 
L 901.796477 404.723345 
L 902.789183 378.112023 
L 903.781889 394.351503 
L 904.774595 403.329225 
L 905.767301 379.143289 
L 906.760007 395.25147 
L 907.752713 401.340311 
L 908.745419 381.573017 
L 909.738125 394.561672 
L 910.730831 402.12044 
L 911.723537 385.719615 
L 912.716243 390.981589 
L 913.708949 402.629385 
L 914.701655 391.565987 
L 915.69436 384.807952 
L 916.687066 400.537593 
L 917.679772 399.226509 
L 918.672478 377.937957 
L 919.665184 396.728385 
L 920.65789 404.198693 
L 921.650596 372.191354 
L 922.643302 392.046992 
L 923.636008 403.749148 
L 924.628714 368.236196 
L 925.62142 389.249596 
L 926.614126 402.840171 
L 927.606832 366.881785 
L 928.599537 388.266587 
L 929.592243 402.981053 
L 930.584949 367.963101 
L 931.577655 390.348866 
L 932.570361 405.637194 
L 933.563067 371.916362 
L 934.555773 392.162106 
L 935.548479 409.292019 
L 936.541185 378.179275 
L 937.533891 392.012282 
L 938.526597 409.203264 
L 939.519303 385.311519 
L 940.512009 388.756083 
L 941.504714 406.462395 
L 942.49742 392.570459 
L 943.490126 383.763838 
L 944.482832 403.470765 
L 945.475538 396.959987 
L 946.468244 380.402994 
L 947.46095 402.900145 
L 948.453656 397.95228 
L 949.446362 378.176072 
L 950.439068 405.333462 
L 951.431774 395.592018 
L 952.42448 377.248853 
L 953.417186 409.253647 
L 955.402597 377.499648 
L 956.395303 414.414286 
L 957.388009 389.737649 
L 958.380715 378.31049 
L 959.373421 419.774538 
L 960.366127 387.576032 
L 961.358833 380.333933 
L 962.351539 421.429632 
L 963.344245 386.808491 
L 964.336951 382.113696 
L 965.329657 419.206477 
L 966.322363 386.594324 
L 967.315068 385.127465 
L 968.307774 414.623271 
L 969.30048 387.543377 
L 970.293186 389.075819 
L 971.285892 409.396242 
L 972.278598 388.151689 
L 973.271304 393.492405 
L 974.26401 403.136849 
L 975.256716 388.522918 
L 976.249422 398.846953 
L 977.242128 397.308006 
L 978.234834 388.225218 
L 979.22754 403.53918 
L 980.220246 394.363109 
L 981.212951 387.718824 
L 982.205657 406.493986 
L 983.198363 392.49894 
L 984.191069 387.30111 
L 985.183775 406.816943 
L 986.176481 393.549519 
L 987.169187 387.991261 
L 988.161893 404.918712 
L 990.147305 388.032973 
L 991.140011 400.584059 
L 992.132717 400.029504 
L 993.125423 388.479927 
L 995.110834 404.092546 
L 996.10354 388.809153 
L 997.096246 393.712 
L 998.088952 405.322363 
L 999.081658 390.304309 
L 1000.074364 392.954734 
L 1001.06707 403.646895 
L 1002.059776 393.608945 
L 1003.052482 393.220237 
L 1004.045188 398.446433 
L 1005.037894 398.719804 
L 1006.0306 394.388249 
L 1007.023305 391.754776 
L 1008.016011 405.841635 
L 1009.008717 393.474953 
L 1010.001423 386.076249 
L 1010.994129 413.488619 
L 1011.986835 391.225463 
L 1012.979541 382.366702 
L 1013.972247 419.19774 
L 1014.964953 389.284442 
L 1015.957659 382.394965 
L 1016.950365 423.818971 
L 1017.943071 387.020046 
L 1018.935777 385.190447 
L 1019.928482 421.028095 
L 1020.921188 386.048714 
L 1021.913894 391.751457 
L 1022.9066 409.983319 
L 1023.899306 384.682428 
L 1024.892012 402.516156 
L 1025.884718 397.65118 
L 1026.877424 383.793451 
L 1027.87013 417.792897 
L 1028.862836 388.360014 
L 1029.855542 383.097094 
L 1030.848248 432.358578 
L 1031.840954 383.028527 
L 1032.833659 384.005959 
L 1033.826365 434.025892 
L 1034.819071 381.618634 
L 1035.811777 386.215605 
L 1036.804483 425.877835 
L 1037.797189 383.506463 
L 1038.789895 390.265382 
L 1039.782601 414.637305 
L 1040.775307 388.391131 
L 1041.768013 393.656665 
L 1042.760719 403.673886 
L 1043.753425 396.504191 
L 1044.746131 394.553345 
L 1045.738837 395.121107 
L 1046.731542 406.567319 
L 1047.724248 392.773438 
L 1048.716954 389.008708 
L 1049.70966 416.058418 
L 1050.702366 389.846157 
L 1051.695072 385.325257 
L 1052.687778 423.133285 
L 1053.680484 387.88678 
L 1054.67319 384.725179 
L 1055.665896 426.431224 
L 1056.658602 387.937331 
L 1057.651308 385.796222 
L 1058.644014 421.597481 
L 1059.636719 388.658865 
L 1060.629425 388.030243 
L 1061.622131 416.586106 
L 1062.614837 389.723185 
L 1063.607543 391.237329 
L 1064.600249 410.057664 
L 1065.592955 391.909418 
L 1066.585661 394.691408 
L 1067.578367 404.159325 
L 1068.571073 393.390974 
L 1069.563779 398.381404 
L 1070.556485 400.088738 
L 1071.549191 395.183591 
L 1072.541896 399.999731 
L 1073.534602 396.713403 
L 1074.527308 396.817781 
L 1075.520014 400.959187 
L 1076.51272 394.488189 
L 1077.505426 398.393342 
L 1078.498132 400.909493 
L 1079.490838 393.273593 
L 1080.483544 400.527672 
L 1081.47625 399.466754 
L 1082.468956 393.522814 
L 1083.461662 402.112101 
L 1084.454368 397.641991 
L 1085.447073 394.919097 
L 1086.439779 402.226396 
L 1087.432485 395.334726 
L 1089.417897 400.078359 
L 1090.410603 394.071421 
L 1091.403309 402.527001 
L 1092.396015 396.694095 
L 1093.388721 393.760553 
L 1094.381427 407.15672 
L 1095.374133 392.20268 
L 1096.366839 393.635477 
L 1097.359545 411.810015 
L 1098.35225 389.261339 
L 1099.344956 393.245569 
L 1100.337662 414.324292 
L 1101.330368 388.196179 
L 1102.323074 392.989533 
L 1103.31578 415.071483 
L 1104.308486 389.288074 
L 1105.301192 391.417509 
L 1106.293898 415.282512 
L 1107.286604 392.317793 
L 1108.27931 388.731101 
L 1109.272016 412.354684 
L 1110.264722 396.998653 
L 1111.257428 384.084926 
L 1112.250133 408.506805 
L 1113.242839 400.592644 
L 1114.235545 379.203136 
L 1115.228251 404.882913 
L 1116.220957 402.250671 
L 1117.213663 375.383002 
L 1118.206369 402.178373 
L 1119.199075 400.665924 
L 1120.191781 373.669575 
L 1121.184487 402.497584 
L 1122.177193 399.174737 
L 1123.169899 374.304538 
L 1124.162605 406.188076 
L 1125.15531 398.396648 
L 1126.148016 377.495356 
L 1127.140722 410.927543 
L 1128.133428 397.880349 
L 1129.126134 382.718838 
L 1130.11884 411.848717 
L 1131.111546 397.129333 
L 1132.104252 389.6741 
L 1133.096958 407.248555 
L 1134.089664 395.946009 
L 1136.075076 400.170202 
L 1137.067782 395.877778 
L 1138.060487 404.25001 
L 1139.053193 394.499129 
L 1140.045899 396.213968 
L 1141.038605 406.536828 
L 1142.031311 391.940938 
L 1144.016723 405.8889 
L 1145.009429 391.268454 
L 1146.002135 401.726994 
L 1146.994841 401.456244 
L 1147.987547 392.041426 
L 1148.980253 405.094528 
L 1149.972959 397.870695 
L 1150.965664 393.304193 
L 1151.95837 407.249458 
L 1152.951076 395.226833 
L 1153.943782 394.00643 
L 1154.936488 408.674363 
L 1155.929194 393.681862 
L 1156.9219 393.972468 
L 1157.914606 409.315995 
L 1158.907312 393.60176 
L 1159.900018 393.833544 
L 1160.892724 410.036823 
L 1161.88543 394.514037 
L 1162.878136 392.544029 
L 1163.870841 409.570002 
L 1164.863547 395.715916 
L 1165.856253 391.661625 
L 1166.848959 407.921555 
L 1167.841665 397.639485 
L 1168.834371 391.293467 
L 1169.827077 406.714739 
L 1170.819783 399.889629 
L 1171.812489 391.17462 
L 1172.805195 404.505331 
L 1173.797901 402.0178 
L 1174.790607 391.476165 
L 1175.783313 401.05408 
L 1176.776019 404.688851 
L 1177.768724 391.346861 
L 1178.76143 398.747675 
L 1179.754136 407.287262 
L 1180.746842 391.215969 
L 1181.739548 397.675038 
L 1182.732254 408.032931 
L 1183.72496 391.319114 
L 1184.717666 398.392186 
L 1185.710372 407.313819 
L 1186.703078 391.123557 
L 1187.695784 400.104977 
L 1188.68849 404.854813 
L 1189.681196 391.823805 
L 1190.673901 403.38665 
L 1191.666607 399.980729 
L 1192.659313 393.13381 
L 1193.652019 406.855886 
L 1194.644725 395.68424 
L 1195.637431 394.946582 
L 1196.630137 409.068894 
L 1197.622843 391.978052 
L 1198.615549 397.693823 
L 1199.608255 408.998765 
L 1200.600961 389.309175 
L 1201.593667 400.393879 
L 1202.586373 408.070664 
L 1203.579078 388.056609 
L 1204.571784 401.982319 
L 1205.56449 406.756425 
L 1206.557196 387.703537 
L 1207.549902 400.992598 
L 1208.542608 408.37708 
L 1209.535314 388.364562 
L 1210.52802 398.463514 
L 1211.520726 411.765988 
L 1212.513432 389.140751 
L 1213.506138 394.14045 
L 1214.498844 417.393333 
L 1215.49155 388.01115 
L 1216.484255 390.494577 
L 1217.476961 424.545879 
L 1218.469667 386.756 
L 1219.462373 388.020296 
L 1220.455079 433.162517 
L 1221.447785 385.02459 
L 1222.440491 386.15327 
L 1223.433197 437.375234 
L 1224.425903 384.129021 
L 1225.418609 386.366932 
L 1226.411315 435.14631 
L 1227.404021 384.686457 
L 1228.396727 388.221964 
L 1229.389432 430.281329 
L 1230.382138 386.249901 
L 1231.374844 389.864652 
L 1232.36755 421.898708 
L 1233.360256 389.045699 
L 1234.352962 391.786834 
L 1235.345668 415.60029 
L 1236.338374 392.846137 
L 1237.33108 392.481697 
L 1238.323786 410.909226 
L 1239.316492 396.396517 
L 1240.309198 392.50964 
L 1241.301904 407.359118 
L 1243.287315 391.850546 
L 1244.280021 404.222794 
L 1245.272727 402.445803 
L 1245.272727 402.445803 
" clip-path="url(#p073bebedb2)" style="fill: none; stroke: #1f77b4; stroke-width: 1.5; stroke-linecap: square"/>
   </g>
   <g id="patch_3">
    <path d="M 180 512.64 
L 180 69.12 
" style="fill: none; stroke: #000000; stroke-width: 0.8; stroke-linejoin: miter; stroke-linecap: square"/>
   </g>
   <g id="patch_4">
    <path d="M 1296 512.64 
L 1296 69.12 
" style="fill: none; stroke: #000000; stroke-width: 0.8; stroke-linejoin: miter; stroke-linecap: square"/>
   </g>
   <g id="patch_5">
    <path d="M 180 512.64 
L 1296 512.64 
" style="fill: none; stroke: #000000; stroke-width: 0.8; stroke-linejoin: miter; stroke-linecap: square"/>
   </g>
   <g id="patch_6">
    <path d="M 180 69.12 
L 1296 69.12 
" style="fill: none; stroke: #000000; stroke-width: 0.8; stroke-linejoin: miter; stroke-linecap: square"/>
   </g>
   <g id="text_13">
    <!-- source24-receiver22 -->
    <g transform="translate(532.175 60.80125) scale(0.4 -0.4)">
     <defs>
      <path id="DejaVuSans-73" d="M 2834 3397 
L 2834 2853 
Q 2591 2978 2328 3040 
Q 2066 3103 1784 3103 
Q 1356 3103 1142 2972 
Q 928 2841 928 2578 
Q 928 2378 1081 2264 
Q 1234 2150 1697 2047 
L 1894 2003 
Q 2506 1872 2764 1633 
Q 3022 1394 3022 966 
Q 3022 478 2636 193 
Q 2250 -91 1575 -91 
Q 1294 -91 989 -36 
Q 684 19 347 128 
L 347 722 
Q 666 556 975 473 
Q 1284 391 1588 391 
Q 1994 391 2212 530 
Q 2431 669 2431 922 
Q 2431 1156 2273 1281 
Q 2116 1406 1581 1522 
L 1381 1569 
Q 847 1681 609 1914 
Q 372 2147 372 2553 
Q 372 3047 722 3315 
Q 1072 3584 1716 3584 
Q 2034 3584 2315 3537 
Q 2597 3491 2834 3397 
z
" transform="scale(0.015625)"/>
      <path id="DejaVuSans-6f" d="M 1959 3097 
Q 1497 3097 1228 2736 
Q 959 2375 959 1747 
Q 959 1119 1226 758 
Q 1494 397 1959 397 
Q 2419 397 2687 759 
Q 2956 1122 2956 1747 
Q 2956 2369 2687 2733 
Q 2419 3097 1959 3097 
z
M 1959 3584 
Q 2709 3584 3137 3096 
Q 3566 2609 3566 1747 
Q 3566 888 3137 398 
Q 2709 -91 1959 -91 
Q 1206 -91 779 398 
Q 353 888 353 1747 
Q 353 2609 779 3096 
Q 1206 3584 1959 3584 
z
" transform="scale(0.015625)"/>
      <path id="DejaVuSans-75" d="M 544 1381 
L 544 3500 
L 1119 3500 
L 1119 1403 
Q 1119 906 1312 657 
Q 1506 409 1894 409 
Q 2359 409 2629 706 
Q 2900 1003 2900 1516 
L 2900 3500 
L 3475 3500 
L 3475 0 
L 2900 0 
L 2900 538 
Q 2691 219 2414 64 
Q 2138 -91 1772 -91 
Q 1169 -91 856 284 
Q 544 659 544 1381 
z
M 1991 3584 
L 1991 3584 
z
" transform="scale(0.015625)"/>
      <path id="DejaVuSans-72" d="M 2631 2963 
Q 2534 3019 2420 3045 
Q 2306 3072 2169 3072 
Q 1681 3072 1420 2755 
Q 1159 2438 1159 1844 
L 1159 0 
L 581 0 
L 581 3500 
L 1159 3500 
L 1159 2956 
Q 1341 3275 1631 3429 
Q 1922 3584 2338 3584 
Q 2397 3584 2469 3576 
Q 2541 3569 2628 3553 
L 2631 2963 
z
" transform="scale(0.015625)"/>
      <path id="DejaVuSans-63" d="M 3122 3366 
L 3122 2828 
Q 2878 2963 2633 3030 
Q 2388 3097 2138 3097 
Q 1578 3097 1268 2742 
Q 959 2388 959 1747 
Q 959 1106 1268 751 
Q 1578 397 2138 397 
Q 2388 397 2633 464 
Q 2878 531 3122 666 
L 3122 134 
Q 2881 22 2623 -34 
Q 2366 -91 2075 -91 
Q 1284 -91 818 406 
Q 353 903 353 1747 
Q 353 2603 823 3093 
Q 1294 3584 2113 3584 
Q 2378 3584 2631 3529 
Q 2884 3475 3122 3366 
z
" transform="scale(0.015625)"/>
      <path id="DejaVuSans-65" d="M 3597 1894 
L 3597 1613 
L 953 1613 
Q 991 1019 1311 708 
Q 1631 397 2203 397 
Q 2534 397 2845 478 
Q 3156 559 3463 722 
L 3463 178 
Q 3153 47 2828 -22 
Q 2503 -91 2169 -91 
Q 1331 -91 842 396 
Q 353 884 353 1716 
Q 353 2575 817 3079 
Q 1281 3584 2069 3584 
Q 2775 3584 3186 3129 
Q 3597 2675 3597 1894 
z
M 3022 2063 
Q 3016 2534 2758 2815 
Q 2500 3097 2075 3097 
Q 1594 3097 1305 2825 
Q 1016 2553 972 2059 
L 3022 2063 
z
" transform="scale(0.015625)"/>
      <path id="DejaVuSans-2d" d="M 313 2009 
L 1997 2009 
L 1997 1497 
L 313 1497 
L 313 2009 
z
" transform="scale(0.015625)"/>
      <path id="DejaVuSans-69" d="M 603 3500 
L 1178 3500 
L 1178 0 
L 603 0 
L 603 3500 
z
M 603 4863 
L 1178 4863 
L 1178 4134 
L 603 4134 
L 603 4863 
z
" transform="scale(0.015625)"/>
      <path id="DejaVuSans-76" d="M 191 3500 
L 800 3500 
L 1894 563 
L 2988 3500 
L 3597 3500 
L 2284 0 
L 1503 0 
L 191 3500 
z
" transform="scale(0.015625)"/>
     </defs>
     <use xlink:href="#DejaVuSans-73"/>
     <use xlink:href="#DejaVuSans-6f" x="52.099609"/>
     <use xlink:href="#DejaVuSans-75" x="113.28125"/>
     <use xlink:href="#DejaVuSans-72" x="176.660156"/>
     <use xlink:href="#DejaVuSans-63" x="215.523438"/>
     <use xlink:href="#DejaVuSans-65" x="270.503906"/>
     <use xlink:href="#DejaVuSans-32" x="332.027344"/>
     <use xlink:href="#DejaVuSans-34" x="395.650391"/>
     <use xlink:href="#DejaVuSans-2d" x="459.273438"/>
     <use xlink:href="#DejaVuSans-72" x="495.357422"/>
     <use xlink:href="#DejaVuSans-65" x="534.220703"/>
     <use xlink:href="#DejaVuSans-63" x="595.744141"/>
     <use xlink:href="#DejaVuSans-65" x="650.724609"/>
     <use xlink:href="#DejaVuSans-69" x="712.248047"/>
     <use xlink:href="#DejaVuSans-76" x="740.03125"/>
     <use xlink:href="#DejaVuSans-65" x="799.210938"/>
     <use xlink:href="#DejaVuSans-72" x="860.734375"/>
     <use xlink:href="#DejaVuSans-32" x="901.847656"/>
     <use xlink:href="#DejaVuSans-32" x="965.470703"/>
    </g>
   </g>
  </g>
 </g>
 <defs>
  <clipPath id="p073bebedb2">
   <rect x="180" y="69.12" width="1116" height="443.52"/>
  </clipPath>
 </defs>
</svg>
