<?xml version="1.0" encoding="utf-8" standalone="no"?>
<!DOCTYPE svg PUBLIC "-//W3C//DTD SVG 1.1//EN"
  "http://www.w3.org/Graphics/SVG/1.1/DTD/svg11.dtd">
<svg xmlns:xlink="http://www.w3.org/1999/xlink" width="1440pt" height="576pt" viewBox="0 0 1440 576" xmlns="http://www.w3.org/2000/svg" version="1.1">
 <metadata>
  <rdf:RDF xmlns:dc="http://purl.org/dc/elements/1.1/" xmlns:cc="http://creativecommons.org/ns#" xmlns:rdf="http://www.w3.org/1999/02/22-rdf-syntax-ns#">
   <cc:Work>
    <dc:type rdf:resource="http://purl.org/dc/dcmitype/StillImage"/>
    <dc:date>2024-05-22T04:50:27.139894</dc:date>
    <dc:format>image/svg+xml</dc:format>
    <dc:creator>
     <cc:Agent>
      <dc:title>Matplotlib v3.8.3, https://matplotlib.org/</dc:title>
     </cc:Agent>
    </dc:creator>
   </cc:Work>
  </rdf:RDF>
 </metadata>
 <defs>
  <style type="text/css">*{stroke-linejoin: round; stroke-linecap: butt}</style>
 </defs>
 <g id="figure_1">
  <g id="patch_1">
   <path d="M 0 576 
L 1440 576 
L 1440 0 
L 0 0 
z
" style="fill: #ffffff"/>
  </g>
  <g id="axes_1">
   <g id="patch_2">
    <path d="M 180 512.64 
L 1296 512.64 
L 1296 69.12 
L 180 69.12 
z
" style="fill: #ffffff"/>
   </g>
   <g id="matplotlib.axis_1">
    <g id="xtick_1">
     <g id="line2d_1">
      <defs>
       <path id="m9516414849" d="M 0 0 
L 0 3.5 
" style="stroke: #000000; stroke-width: 0.8"/>
      </defs>
      <g>
       <use xlink:href="#m9516414849" x="229.734567" y="512.64" style="stroke: #000000; stroke-width: 0.8"/>
      </g>
     </g>
     <g id="text_1">
      <!-- 0 -->
      <g transform="translate(226.553317 527.238438) scale(0.1 -0.1)">
       <defs>
        <path id="DejaVuSans-30" d="M 2034 4250 
Q 1547 4250 1301 3770 
Q 1056 3291 1056 2328 
Q 1056 1369 1301 889 
Q 1547 409 2034 409 
Q 2525 409 2770 889 
Q 3016 1369 3016 2328 
Q 3016 3291 2770 3770 
Q 2525 4250 2034 4250 
z
M 2034 4750 
Q 2819 4750 3233 4129 
Q 3647 3509 3647 2328 
Q 3647 1150 3233 529 
Q 2819 -91 2034 -91 
Q 1250 -91 836 529 
Q 422 1150 422 2328 
Q 422 3509 836 4129 
Q 1250 4750 2034 4750 
z
" transform="scale(0.015625)"/>
       </defs>
       <use xlink:href="#DejaVuSans-30"/>
      </g>
     </g>
    </g>
    <g id="xtick_2">
     <g id="line2d_2">
      <g>
       <use xlink:href="#m9516414849" x="433.04074" y="512.64" style="stroke: #000000; stroke-width: 0.8"/>
      </g>
     </g>
     <g id="text_2">
      <!-- 500 -->
      <g transform="translate(423.49699 527.238438) scale(0.1 -0.1)">
       <defs>
        <path id="DejaVuSans-35" d="M 691 4666 
L 3169 4666 
L 3169 4134 
L 1269 4134 
L 1269 2991 
Q 1406 3038 1543 3061 
Q 1681 3084 1819 3084 
Q 2600 3084 3056 2656 
Q 3513 2228 3513 1497 
Q 3513 744 3044 326 
Q 2575 -91 1722 -91 
Q 1428 -91 1123 -41 
Q 819 9 494 109 
L 494 744 
Q 775 591 1075 516 
Q 1375 441 1709 441 
Q 2250 441 2565 725 
Q 2881 1009 2881 1497 
Q 2881 1984 2565 2268 
Q 2250 2553 1709 2553 
Q 1456 2553 1204 2497 
Q 953 2441 691 2322 
L 691 4666 
z
" transform="scale(0.015625)"/>
       </defs>
       <use xlink:href="#DejaVuSans-35"/>
       <use xlink:href="#DejaVuSans-30" x="63.623047"/>
       <use xlink:href="#DejaVuSans-30" x="127.246094"/>
      </g>
     </g>
    </g>
    <g id="xtick_3">
     <g id="line2d_3">
      <g>
       <use xlink:href="#m9516414849" x="636.346913" y="512.64" style="stroke: #000000; stroke-width: 0.8"/>
      </g>
     </g>
     <g id="text_3">
      <!-- 1000 -->
      <g transform="translate(623.621913 527.238438) scale(0.1 -0.1)">
       <defs>
        <path id="DejaVuSans-31" d="M 794 531 
L 1825 531 
L 1825 4091 
L 703 3866 
L 703 4441 
L 1819 4666 
L 2450 4666 
L 2450 531 
L 3481 531 
L 3481 0 
L 794 0 
L 794 531 
z
" transform="scale(0.015625)"/>
       </defs>
       <use xlink:href="#DejaVuSans-31"/>
       <use xlink:href="#DejaVuSans-30" x="63.623047"/>
       <use xlink:href="#DejaVuSans-30" x="127.246094"/>
       <use xlink:href="#DejaVuSans-30" x="190.869141"/>
      </g>
     </g>
    </g>
    <g id="xtick_4">
     <g id="line2d_4">
      <g>
       <use xlink:href="#m9516414849" x="839.653087" y="512.64" style="stroke: #000000; stroke-width: 0.8"/>
      </g>
     </g>
     <g id="text_4">
      <!-- 1500 -->
      <g transform="translate(826.928087 527.238438) scale(0.1 -0.1)">
       <use xlink:href="#DejaVuSans-31"/>
       <use xlink:href="#DejaVuSans-35" x="63.623047"/>
       <use xlink:href="#DejaVuSans-30" x="127.246094"/>
       <use xlink:href="#DejaVuSans-30" x="190.869141"/>
      </g>
     </g>
    </g>
    <g id="xtick_5">
     <g id="line2d_5">
      <g>
       <use xlink:href="#m9516414849" x="1042.95926" y="512.64" style="stroke: #000000; stroke-width: 0.8"/>
      </g>
     </g>
     <g id="text_5">
      <!-- 2000 -->
      <g transform="translate(1030.23426 527.238438) scale(0.1 -0.1)">
       <defs>
        <path id="DejaVuSans-32" d="M 1228 531 
L 3431 531 
L 3431 0 
L 469 0 
L 469 531 
Q 828 903 1448 1529 
Q 2069 2156 2228 2338 
Q 2531 2678 2651 2914 
Q 2772 3150 2772 3378 
Q 2772 3750 2511 3984 
Q 2250 4219 1831 4219 
Q 1534 4219 1204 4116 
Q 875 4013 500 3803 
L 500 4441 
Q 881 4594 1212 4672 
Q 1544 4750 1819 4750 
Q 2544 4750 2975 4387 
Q 3406 4025 3406 3419 
Q 3406 3131 3298 2873 
Q 3191 2616 2906 2266 
Q 2828 2175 2409 1742 
Q 1991 1309 1228 531 
z
" transform="scale(0.015625)"/>
       </defs>
       <use xlink:href="#DejaVuSans-32"/>
       <use xlink:href="#DejaVuSans-30" x="63.623047"/>
       <use xlink:href="#DejaVuSans-30" x="127.246094"/>
       <use xlink:href="#DejaVuSans-30" x="190.869141"/>
      </g>
     </g>
    </g>
    <g id="xtick_6">
     <g id="line2d_6">
      <g>
       <use xlink:href="#m9516414849" x="1246.265433" y="512.64" style="stroke: #000000; stroke-width: 0.8"/>
      </g>
     </g>
     <g id="text_6">
      <!-- 2500 -->
      <g transform="translate(1233.540433 527.238438) scale(0.1 -0.1)">
       <use xlink:href="#DejaVuSans-32"/>
       <use xlink:href="#DejaVuSans-35" x="63.623047"/>
       <use xlink:href="#DejaVuSans-30" x="127.246094"/>
       <use xlink:href="#DejaVuSans-30" x="190.869141"/>
      </g>
     </g>
    </g>
   </g>
   <g id="matplotlib.axis_2">
    <g id="ytick_1">
     <g id="line2d_7">
      <defs>
       <path id="m91221bec86" d="M 0 0 
L -3.5 0 
" style="stroke: #000000; stroke-width: 0.8"/>
      </defs>
      <g>
       <use xlink:href="#m91221bec86" x="180" y="484.236072" style="stroke: #000000; stroke-width: 0.8"/>
      </g>
     </g>
     <g id="text_7">
      <!-- −6 -->
      <g transform="translate(158.257812 488.035291) scale(0.1 -0.1)">
       <defs>
        <path id="DejaVuSans-2212" d="M 678 2272 
L 4684 2272 
L 4684 1741 
L 678 1741 
L 678 2272 
z
" transform="scale(0.015625)"/>
        <path id="DejaVuSans-36" d="M 2113 2584 
Q 1688 2584 1439 2293 
Q 1191 2003 1191 1497 
Q 1191 994 1439 701 
Q 1688 409 2113 409 
Q 2538 409 2786 701 
Q 3034 994 3034 1497 
Q 3034 2003 2786 2293 
Q 2538 2584 2113 2584 
z
M 3366 4563 
L 3366 3988 
Q 3128 4100 2886 4159 
Q 2644 4219 2406 4219 
Q 1781 4219 1451 3797 
Q 1122 3375 1075 2522 
Q 1259 2794 1537 2939 
Q 1816 3084 2150 3084 
Q 2853 3084 3261 2657 
Q 3669 2231 3669 1497 
Q 3669 778 3244 343 
Q 2819 -91 2113 -91 
Q 1303 -91 875 529 
Q 447 1150 447 2328 
Q 447 3434 972 4092 
Q 1497 4750 2381 4750 
Q 2619 4750 2861 4703 
Q 3103 4656 3366 4563 
z
" transform="scale(0.015625)"/>
       </defs>
       <use xlink:href="#DejaVuSans-2212"/>
       <use xlink:href="#DejaVuSans-36" x="83.789062"/>
      </g>
     </g>
    </g>
    <g id="ytick_2">
     <g id="line2d_8">
      <g>
       <use xlink:href="#m91221bec86" x="180" y="406.612899" style="stroke: #000000; stroke-width: 0.8"/>
      </g>
     </g>
     <g id="text_8">
      <!-- −4 -->
      <g transform="translate(158.257812 410.412118) scale(0.1 -0.1)">
       <defs>
        <path id="DejaVuSans-34" d="M 2419 4116 
L 825 1625 
L 2419 1625 
L 2419 4116 
z
M 2253 4666 
L 3047 4666 
L 3047 1625 
L 3713 1625 
L 3713 1100 
L 3047 1100 
L 3047 0 
L 2419 0 
L 2419 1100 
L 313 1100 
L 313 1709 
L 2253 4666 
z
" transform="scale(0.015625)"/>
       </defs>
       <use xlink:href="#DejaVuSans-2212"/>
       <use xlink:href="#DejaVuSans-34" x="83.789062"/>
      </g>
     </g>
    </g>
    <g id="ytick_3">
     <g id="line2d_9">
      <g>
       <use xlink:href="#m91221bec86" x="180" y="328.989726" style="stroke: #000000; stroke-width: 0.8"/>
      </g>
     </g>
     <g id="text_9">
      <!-- −2 -->
      <g transform="translate(158.257812 332.788944) scale(0.1 -0.1)">
       <use xlink:href="#DejaVuSans-2212"/>
       <use xlink:href="#DejaVuSans-32" x="83.789062"/>
      </g>
     </g>
    </g>
    <g id="ytick_4">
     <g id="line2d_10">
      <g>
       <use xlink:href="#m91221bec86" x="180" y="251.366552" style="stroke: #000000; stroke-width: 0.8"/>
      </g>
     </g>
     <g id="text_10">
      <!-- 0 -->
      <g transform="translate(166.6375 255.165771) scale(0.1 -0.1)">
       <use xlink:href="#DejaVuSans-30"/>
      </g>
     </g>
    </g>
    <g id="ytick_5">
     <g id="line2d_11">
      <g>
       <use xlink:href="#m91221bec86" x="180" y="173.743379" style="stroke: #000000; stroke-width: 0.8"/>
      </g>
     </g>
     <g id="text_11">
      <!-- 2 -->
      <g transform="translate(166.6375 177.542598) scale(0.1 -0.1)">
       <use xlink:href="#DejaVuSans-32"/>
      </g>
     </g>
    </g>
    <g id="ytick_6">
     <g id="line2d_12">
      <g>
       <use xlink:href="#m91221bec86" x="180" y="96.120206" style="stroke: #000000; stroke-width: 0.8"/>
      </g>
     </g>
     <g id="text_12">
      <!-- 4 -->
      <g transform="translate(166.6375 99.919425) scale(0.1 -0.1)">
       <use xlink:href="#DejaVuSans-34"/>
      </g>
     </g>
    </g>
   </g>
   <g id="line2d_13">
    <path d="M 230.727273 191.650083 
L 232.712685 190.925876 
L 234.698096 189.619915 
L 236.683508 188.160394 
L 238.66892 186.692786 
L 242.639744 184.069299 
L 243.63245 183.756408 
L 244.625156 183.992325 
L 245.617862 184.902166 
L 246.610568 185.556478 
L 247.603273 182.173768 
L 248.595979 171.129589 
L 249.588685 157.01498 
L 250.581391 145.497672 
L 251.574097 137.985888 
L 252.566803 133.649125 
L 253.559509 131.291663 
L 254.552215 130.02454 
L 255.544921 129.362521 
L 256.537627 129.00614 
L 260.50845 128.126326 
L 261.501156 127.72266 
L 262.493862 127.170382 
L 264.479274 125.658634 
L 266.464686 123.752485 
L 269.442804 120.783316 
L 270.43551 119.942836 
L 271.428216 119.254001 
L 272.420922 118.770996 
L 273.413627 118.532897 
L 274.406333 118.597705 
L 275.399039 119.076065 
L 276.391745 120.108141 
L 277.384451 121.923619 
L 278.377157 124.264919 
L 279.369863 125.474884 
L 280.362569 124.047168 
L 281.355275 120.900887 
L 282.347981 117.033646 
L 284.333393 107.738257 
L 286.318804 98.293799 
L 287.31151 94.491529 
L 288.304216 91.680123 
L 289.296922 89.961288 
L 290.289628 89.28 
L 291.282334 89.517153 
L 292.27504 90.523019 
L 293.267746 92.164913 
L 294.260452 94.26965 
L 296.245864 99.343272 
L 298.231276 105.15322 
L 300.216687 111.640123 
L 304.187511 125.845811 
L 306.172923 132.647773 
L 307.165629 135.678467 
L 308.158335 138.350441 
L 309.151041 140.638949 
L 310.143747 142.52335 
L 311.136453 144.075296 
L 313.121864 146.586645 
L 315.107276 149.160674 
L 316.099982 150.752275 
L 317.092688 152.641922 
L 318.085394 154.878983 
L 319.0781 157.498221 
L 320.070806 160.527885 
L 322.056218 167.806944 
L 324.04163 175.478876 
L 325.034336 178.341908 
L 326.027041 179.715656 
L 327.019747 179.130143 
L 328.012453 176.823951 
L 329.997865 169.607985 
L 331.983277 162.369987 
L 332.975983 159.292713 
L 333.968689 156.669625 
L 334.961395 154.493936 
L 335.954101 152.741529 
L 336.946807 151.398842 
L 337.939513 150.448086 
L 338.932218 149.836089 
L 339.924924 149.57987 
L 340.91763 149.65045 
L 341.910336 149.984899 
L 342.903042 150.596721 
L 343.895748 151.417054 
L 345.88116 153.510647 
L 347.866572 155.780787 
L 349.851984 157.634151 
L 350.84469 158.185763 
L 351.837395 158.445828 
L 352.830101 158.407589 
L 353.822807 158.138944 
L 354.815513 157.632175 
L 358.786337 155.105233 
L 359.779043 154.695428 
L 360.771749 154.47255 
L 361.764455 154.484311 
L 362.757161 154.728268 
L 363.749867 155.281064 
L 364.742572 156.156767 
L 365.735278 157.370939 
L 366.727984 158.977058 
L 367.72069 160.994146 
L 368.713396 163.459379 
L 369.706102 166.43172 
L 370.698808 169.939482 
L 371.691514 174.067143 
L 372.68422 178.888445 
L 373.676926 184.447425 
L 375.662338 197.750469 
L 376.655044 204.732736 
L 377.64775 210.12417 
L 378.640455 211.774198 
L 379.633161 208.913796 
L 381.618573 197.637134 
L 382.611279 192.104085 
L 383.603985 187.376483 
L 384.596691 183.336904 
L 385.589397 180.013295 
L 386.582103 177.298896 
L 387.574809 175.123945 
L 388.567515 173.404648 
L 389.560221 172.125716 
L 390.552927 171.19348 
L 391.545632 170.568795 
L 392.538338 170.18213 
L 393.531044 170.057771 
L 395.516456 170.310322 
L 397.501868 171.01148 
L 401.472692 172.628582 
L 407.428927 174.749145 
L 409.414339 175.79472 
L 411.399751 177.284604 
L 413.385163 179.335252 
L 415.370575 182.126947 
L 417.355986 185.790716 
L 419.341398 190.305636 
L 421.32681 195.678768 
L 423.312222 201.785492 
L 428.275752 217.828998 
L 429.268458 220.383253 
L 430.261163 222.496251 
L 431.253869 223.894654 
L 432.246575 224.47792 
L 433.239281 224.49038 
L 434.231987 223.717051 
L 435.224693 222.226695 
L 436.217399 220.361936 
L 438.202811 215.70623 
L 443.166341 202.598785 
L 445.151752 198.108004 
L 447.137164 194.366623 
L 449.122576 191.386634 
L 450.115282 190.260195 
L 451.107988 189.313192 
L 452.100694 188.630182 
L 453.0934 188.162818 
L 454.086106 187.885107 
L 455.078812 187.819174 
L 456.071518 187.983554 
L 457.064223 188.3928 
L 458.056929 189.018223 
L 459.049635 189.79846 
L 460.042341 190.845821 
L 461.035047 192.126424 
L 463.020459 195.215841 
L 465.005871 199.249479 
L 465.998577 201.571746 
L 466.991283 204.192877 
L 468.976695 210.375587 
L 469.9694 213.95772 
L 470.962106 217.967411 
L 471.954812 222.462611 
L 472.947518 227.489169 
L 473.940224 233.312892 
L 474.93293 240.339475 
L 475.925636 248.961568 
L 476.918342 258.615364 
L 478.903754 281.214117 
L 479.89646 281.109475 
L 480.889166 270.345542 
L 481.881872 258.017676 
L 482.874577 247.987551 
L 483.867283 239.606896 
L 484.859989 232.934353 
L 485.852695 227.104115 
L 486.845401 222.197312 
L 487.838107 218.093983 
L 488.830813 214.616765 
L 489.823519 211.599039 
L 490.816225 209.137046 
L 491.808931 207.058581 
L 492.801637 205.40292 
L 493.794343 204.13745 
L 494.787049 203.128588 
L 495.779754 202.546179 
L 496.77246 202.306737 
L 497.765166 202.349342 
L 498.757872 202.743389 
L 499.750578 203.481965 
L 500.743284 204.536339 
L 501.73599 205.989554 
L 502.728696 207.711193 
L 503.721402 209.857383 
L 504.714108 212.329207 
L 505.706814 215.245297 
L 507.692226 222.188281 
L 509.677637 230.440534 
L 511.663049 239.174191 
L 512.655755 242.687208 
L 513.648461 245.192862 
L 514.641167 246.050902 
L 515.633873 245.49161 
L 516.626579 243.757627 
L 520.597403 234.061362 
L 521.590109 232.030868 
L 522.582814 230.36753 
L 523.57552 229.044727 
L 524.568226 227.91135 
L 525.560932 227.074618 
L 526.553638 226.405832 
L 528.53905 225.463188 
L 531.517168 224.661932 
L 534.495286 224.497874 
L 536.480697 224.761923 
L 538.466109 225.867716 
L 539.458815 226.758746 
L 540.451521 227.940563 
L 541.444227 229.57374 
L 542.436933 231.704971 
L 543.429639 234.331551 
L 544.422345 237.652322 
L 545.415051 241.803298 
L 546.407757 246.971306 
L 547.400463 253.386564 
L 548.393168 261.375671 
L 550.37858 281.063347 
L 551.371286 283.998243 
L 552.363992 276.19768 
L 554.349404 254.24423 
L 555.34211 245.417284 
L 556.334816 238.160938 
L 557.327522 232.122199 
L 558.320228 227.105771 
L 559.312934 222.796335 
L 560.30564 219.128307 
L 561.298345 216.162404 
L 562.291051 213.598307 
L 563.283757 211.41272 
L 564.276463 209.850232 
L 565.269169 208.556338 
L 566.261875 207.669013 
L 567.254581 207.131956 
L 568.247287 206.835634 
L 569.239993 206.947197 
L 570.232699 207.3898 
L 571.225405 208.07632 
L 572.218111 209.114337 
L 573.210817 210.490658 
L 574.203523 212.150028 
L 575.196228 214.124384 
L 576.188934 216.42815 
L 577.18164 219.114857 
L 578.174346 222.150212 
L 580.159758 229.57403 
L 582.14517 238.585883 
L 583.137876 243.94601 
L 585.123288 256.644583 
L 586.115994 264.135385 
L 588.101405 282.142354 
L 590.086817 305.789104 
L 591.079523 318.721401 
L 592.072229 325.742378 
L 593.064935 323.372693 
L 596.043053 297.312422 
L 597.035759 289.847645 
L 599.021171 277.377931 
L 600.013877 271.182796 
L 601.006582 265.754 
L 602.991994 256.609555 
L 604.977406 248.729032 
L 606.962818 242.627884 
L 607.955524 240.15557 
L 608.94823 237.982209 
L 609.940936 236.154085 
L 610.933642 234.725482 
L 611.926348 233.666678 
L 612.919054 232.810417 
L 613.911759 232.411407 
L 614.904465 232.216295 
L 615.897171 232.348168 
L 616.889877 232.795321 
L 617.882583 233.549589 
L 618.875289 234.63785 
L 619.867995 236.126613 
L 620.860701 237.8896 
L 621.853407 239.978611 
L 623.838819 245.370184 
L 625.824231 252.300338 
L 627.809642 261.300981 
L 628.802348 266.675024 
L 630.78776 279.870531 
L 631.780466 287.548355 
L 632.773172 296.611591 
L 635.75129 328.745979 
L 636.743996 335.198928 
L 637.736702 333.073284 
L 639.722114 320.537971 
L 640.714819 315.762277 
L 642.700231 308.54994 
L 644.685643 304.189314 
L 645.678349 301.744406 
L 647.663761 297.468679 
L 652.627291 285.314852 
L 654.612702 281.458274 
L 656.598114 278.840955 
L 658.583526 277.187873 
L 660.568938 277.107903 
L 661.561644 277.707511 
L 662.55435 278.47958 
L 664.539762 280.908401 
L 665.532468 282.652775 
L 667.517879 286.580538 
L 669.503291 290.175092 
L 670.495997 291.714725 
L 671.488703 292.680468 
L 672.481409 292.895356 
L 673.474115 292.671696 
L 674.466821 291.700634 
L 676.452233 288.823573 
L 679.43035 284.160482 
L 680.423056 282.839825 
L 681.415762 282.071672 
L 682.408468 281.480107 
L 683.401174 281.031871 
L 684.39388 281.045044 
L 685.386586 281.388411 
L 686.379292 282.214849 
L 687.371998 283.222023 
L 688.364704 284.628959 
L 690.350116 288.688106 
L 691.342822 291.267189 
L 692.335527 294.426262 
L 693.328233 298.00605 
L 695.313645 306.95329 
L 697.299057 317.618619 
L 698.291763 323.347077 
L 699.284469 327.692343 
L 700.277175 330.116853 
L 701.269881 329.115379 
L 703.255293 321.775816 
L 706.23341 309.26162 
L 707.226116 305.899123 
L 708.218822 303.115523 
L 709.211528 301.113956 
L 711.19694 298.310926 
L 712.189646 297.768525 
L 713.182352 297.652391 
L 714.175058 298.001665 
L 715.167764 298.643116 
L 716.16047 299.972586 
L 717.153176 301.969896 
L 718.145882 304.555223 
L 719.138587 308.064616 
L 720.131293 312.280445 
L 721.123999 317.53319 
L 722.116705 324.116038 
L 724.102117 342.225889 
L 725.094823 352.562182 
L 726.087529 353.651331 
L 727.080235 344.747034 
L 729.065647 324.010169 
L 730.058353 315.771893 
L 731.051059 308.724323 
L 732.043764 303.185772 
L 733.03647 298.46802 
L 734.029176 294.588668 
L 735.021882 291.539536 
L 736.014588 288.994886 
L 737.007294 287.019009 
L 738 285.527222 
L 738.992706 284.456149 
L 739.985412 283.993855 
L 740.978118 283.896312 
L 741.970824 284.223423 
L 743.956236 286.457564 
L 744.948941 288.419207 
L 745.941647 290.851231 
L 746.934353 293.787603 
L 747.927059 297.628669 
L 748.919765 302.018238 
L 749.912471 307.088153 
L 751.897883 318.323623 
L 752.890589 322.916015 
L 753.883295 324.418151 
L 754.876001 322.30569 
L 755.868707 317.494717 
L 757.854118 305.999735 
L 758.846824 300.877272 
L 759.83953 296.612612 
L 760.832236 292.914934 
L 761.824942 289.894996 
L 762.817648 287.450688 
L 763.810354 285.6218 
L 764.80306 284.150208 
L 765.795766 283.181186 
L 766.788472 282.962332 
L 767.781178 282.905678 
L 768.773884 283.360211 
L 769.76659 284.323777 
L 770.759295 285.605599 
L 771.752001 287.301069 
L 772.744707 289.521118 
L 774.730119 295.184347 
L 778.700943 308.173776 
L 779.693649 310.219823 
L 780.686355 310.641067 
L 781.679061 310.011799 
L 783.664473 305.459471 
L 785.649884 300.18279 
L 787.635296 295.920158 
L 788.628002 294.475314 
L 789.620708 293.630387 
L 790.613414 292.960961 
L 791.60612 292.986848 
L 792.598826 293.471369 
L 793.591532 294.561799 
L 794.584238 296.023309 
L 795.576944 298.042471 
L 796.56965 300.802997 
L 797.562355 304.300253 
L 799.547767 312.498139 
L 801.533179 320.944381 
L 802.525885 323.389737 
L 803.518591 323.412115 
L 804.511297 320.693759 
L 805.504003 316.135187 
L 807.489415 306.091326 
L 808.482121 301.494293 
L 809.474827 297.454731 
L 810.467532 294.168093 
L 811.460238 291.321068 
L 812.452944 289.009553 
L 813.44565 287.337704 
L 814.438356 285.922619 
L 815.431062 285.045136 
L 816.423768 284.678552 
L 817.416474 284.659357 
L 818.40918 284.999046 
L 819.401886 285.862501 
L 820.394592 287.302358 
L 821.387298 288.963254 
L 822.380004 291.312071 
L 823.372709 294.042596 
L 824.365415 297.363734 
L 825.358121 301.400279 
L 827.343533 310.891237 
L 829.328945 321.695711 
L 830.321651 325.911275 
L 831.314357 326.815098 
L 832.307063 324.971149 
L 833.299769 320.938858 
L 835.285181 311.038679 
L 836.277886 306.381366 
L 837.270592 302.456457 
L 839.256004 296.243013 
L 840.24871 294.052813 
L 841.241416 292.292147 
L 842.234122 291.021845 
L 843.226828 289.992609 
L 844.219534 289.49572 
L 845.21224 289.463932 
L 846.204946 289.79841 
L 847.197652 290.370645 
L 848.190358 291.325586 
L 849.183064 292.658502 
L 850.175769 294.291949 
L 852.161181 298.537761 
L 854.146593 303.951638 
L 858.117417 316.44193 
L 859.110123 318.942049 
L 860.102829 320.602172 
L 861.095535 321.648432 
L 862.088241 321.747625 
L 864.073652 319.773455 
L 865.066358 318.593931 
L 866.059064 316.65999 
L 867.05177 315.139384 
L 868.044476 313.380918 
L 870.029888 310.705655 
L 871.022594 309.420982 
L 874.000712 306.564404 
L 874.993418 305.819661 
L 876.978829 303.977988 
L 881.942359 300.274278 
L 882.935065 299.744702 
L 884.920477 299.153304 
L 885.913183 299.165101 
L 887.898595 299.820887 
L 888.8913 300.607024 
L 889.884006 301.822965 
L 890.876712 303.266269 
L 891.869418 305.253074 
L 892.862124 307.782989 
L 893.85483 310.8373 
L 894.847536 314.467703 
L 895.840242 318.680371 
L 896.832948 323.516306 
L 898.81836 335.165399 
L 899.811066 340.443871 
L 900.803772 342.81779 
L 901.796477 340.997815 
L 902.789183 335.314796 
L 904.774595 322.070846 
L 905.767301 316.026612 
L 906.760007 310.70453 
L 907.752713 306.278738 
L 908.745419 302.549192 
L 909.738125 299.294635 
L 910.730831 296.679833 
L 911.723537 294.450718 
L 912.716243 292.763076 
L 913.708949 291.4498 
L 914.701655 290.637714 
L 915.69436 290.206264 
L 916.687066 290.349318 
L 917.679772 290.671428 
L 918.672478 291.68629 
L 920.65789 294.851358 
L 921.650596 297.334435 
L 922.643302 300.340606 
L 923.636008 304.089045 
L 924.628714 308.661284 
L 925.62142 314.209647 
L 926.614126 321.182371 
L 927.606832 330.498175 
L 928.599537 341.930377 
L 930.584949 372.466498 
L 931.577655 365.674225 
L 932.570361 349.832545 
L 933.563067 336.556263 
L 934.555773 326.590961 
L 935.548479 318.87866 
L 936.541185 312.738584 
L 937.533891 307.893071 
L 938.526597 303.888221 
L 939.519303 300.836729 
L 940.512009 298.291175 
L 941.504714 296.574476 
L 942.49742 295.27096 
L 943.490126 294.347342 
L 944.482832 294.076147 
L 945.475538 294.120588 
L 946.468244 294.725208 
L 947.46095 295.745341 
L 948.453656 297.268061 
L 949.446362 299.19008 
L 950.439068 301.803857 
L 951.431774 304.834756 
L 952.42448 308.828533 
L 953.417186 313.294482 
L 954.409891 318.761846 
L 955.402597 325.411527 
L 957.388009 341.62895 
L 958.380715 349.895594 
L 959.373421 353.964665 
L 960.366127 351.774291 
L 961.358833 345.126791 
L 963.344245 329.948728 
L 964.336951 324.290122 
L 965.329657 319.330947 
L 967.315068 312.539183 
L 968.307774 310.119177 
L 969.30048 308.339236 
L 970.293186 307.19214 
L 971.285892 306.460532 
L 972.278598 306.165808 
L 973.271304 306.423428 
L 974.26401 306.991812 
L 975.256716 308.069399 
L 976.249422 309.444668 
L 977.242128 311.126583 
L 978.234834 313.351214 
L 982.205657 323.892317 
L 983.198363 325.941888 
L 984.191069 327.488721 
L 985.183775 328.169034 
L 986.176481 328.039169 
L 987.169187 327.102885 
L 988.161893 325.706498 
L 989.154599 323.557676 
L 991.140011 320.028252 
L 993.125423 317.403804 
L 994.118128 316.734285 
L 996.10354 316.013468 
L 997.096246 316.510533 
L 998.088952 317.517054 
L 1000.074364 320.410883 
L 1001.06707 322.375867 
L 1003.052482 328.129069 
L 1004.045188 331.630536 
L 1006.0306 337.435207 
L 1007.023305 339.421087 
L 1008.016011 339.87446 
L 1009.008717 337.961086 
L 1010.001423 335.761686 
L 1014.964953 319.582145 
L 1015.957659 317.301492 
L 1017.943071 313.607804 
L 1018.935777 312.376802 
L 1020.921188 311.358302 
L 1021.913894 311.158035 
L 1022.9066 311.898331 
L 1023.899306 312.81998 
L 1024.892012 314.042193 
L 1025.884718 315.899368 
L 1026.877424 318.440725 
L 1027.87013 321.437077 
L 1028.862836 324.853388 
L 1029.855542 329.039057 
L 1031.840954 339.866621 
L 1032.833659 345.835206 
L 1033.826365 352.754771 
L 1034.819071 357.730786 
L 1035.811777 359.473166 
L 1036.804483 357.362452 
L 1037.797189 352.27646 
L 1039.782601 339.735301 
L 1040.775307 334.80731 
L 1042.760719 326.697246 
L 1043.753425 323.70414 
L 1044.746131 321.376501 
L 1045.738837 319.356777 
L 1046.731542 317.967235 
L 1047.724248 317.227331 
L 1048.716954 316.681852 
L 1049.70966 316.479303 
L 1050.702366 316.615649 
L 1051.695072 316.919248 
L 1053.680484 319.351503 
L 1054.67319 321.131844 
L 1056.658602 325.359228 
L 1060.629425 336.170978 
L 1061.622131 339.255545 
L 1063.607543 344.414465 
L 1064.600249 346.117114 
L 1065.592955 347.172136 
L 1066.585661 347.872994 
L 1067.578367 347.960733 
L 1068.571073 347.217646 
L 1069.563779 346.755488 
L 1070.556485 345.464549 
L 1074.527308 341.568641 
L 1075.520014 340.679299 
L 1076.51272 340.410338 
L 1077.505426 339.561232 
L 1079.490838 337.166031 
L 1082.468956 332.750849 
L 1083.461662 330.921077 
L 1087.432485 325.682995 
L 1088.425191 324.708933 
L 1089.417897 324.007445 
L 1090.410603 323.520669 
L 1091.403309 323.449061 
L 1092.396015 323.752352 
L 1093.388721 324.335365 
L 1094.381427 325.276137 
L 1095.374133 326.888569 
L 1096.366839 329.026993 
L 1097.359545 331.561226 
L 1098.35225 334.856219 
L 1099.344956 339.221777 
L 1100.337662 344.856341 
L 1101.330368 351.433007 
L 1102.323074 360.610859 
L 1103.31578 374.008849 
L 1104.308486 394.676171 
L 1105.301192 445.214143 
L 1106.293898 416.684517 
L 1107.286604 384.266162 
L 1108.27931 366.10417 
L 1109.272016 354.040615 
L 1110.264722 345.239941 
L 1111.257428 338.073828 
L 1112.250133 332.624775 
L 1113.242839 328.003699 
L 1114.235545 324.174681 
L 1115.228251 321.035165 
L 1117.213663 316.799457 
L 1119.199075 314.381887 
L 1121.184487 314.001437 
L 1122.177193 314.475023 
L 1123.169899 315.21083 
L 1124.162605 316.550603 
L 1125.15531 318.224833 
L 1126.148016 320.550768 
L 1128.133428 326.927672 
L 1129.126134 331.248486 
L 1131.111546 342.03833 
L 1134.089664 362.969413 
L 1135.08237 365.682316 
L 1136.075076 362.841912 
L 1137.067782 357.037966 
L 1138.060487 349.526986 
L 1140.045899 336.666969 
L 1141.038605 331.939741 
L 1142.031311 327.782321 
L 1143.024017 324.444185 
L 1145.009429 319.436264 
L 1146.002135 317.91893 
L 1146.994841 316.753369 
L 1147.987547 316.172005 
L 1148.980253 315.99786 
L 1149.972959 316.338801 
L 1150.965664 316.797717 
L 1151.95837 317.791031 
L 1153.943782 321.207124 
L 1155.929194 326.775492 
L 1156.9219 330.140829 
L 1157.914606 334.494531 
L 1158.907312 339.645872 
L 1160.892724 351.750551 
L 1161.88543 358.908626 
L 1162.878136 365.22777 
L 1163.870841 369.597571 
L 1164.863547 369.918308 
L 1165.856253 366.143018 
L 1167.841665 354.527121 
L 1168.834371 349.279799 
L 1169.827077 345.045603 
L 1170.819783 341.364415 
L 1171.812489 338.500225 
L 1172.805195 336.006958 
L 1173.797901 334.341143 
L 1174.790607 333.091699 
L 1175.783313 332.346533 
L 1176.776019 332.399866 
L 1177.768724 332.828956 
L 1178.76143 333.422481 
L 1179.754136 334.857056 
L 1181.739548 338.626668 
L 1182.732254 341.769569 
L 1184.717666 349.3923 
L 1185.710372 354.564843 
L 1186.703078 360.592252 
L 1187.695784 367.918003 
L 1188.68849 377.034841 
L 1189.681196 388.158734 
L 1190.673901 404.929493 
L 1191.666607 432.22447 
L 1192.659313 492.48 
L 1193.652019 433.670178 
L 1194.644725 412.446224 
L 1195.637431 398.188407 
L 1196.630137 388.129816 
L 1197.622843 383.024629 
L 1199.608255 375.935574 
L 1200.600961 374.221276 
L 1201.593667 372.959329 
L 1203.579078 373.835247 
L 1204.571784 375.472931 
L 1205.56449 377.670795 
L 1206.557196 380.434447 
L 1208.542608 387.783569 
L 1210.52802 391.140089 
L 1211.520726 393.883382 
L 1212.513432 391.402414 
L 1213.506138 388.437896 
L 1214.498844 384.648425 
L 1215.49155 381.365671 
L 1216.484255 377.547321 
L 1218.469667 370.984025 
L 1220.455079 368.143337 
L 1221.447785 367.110166 
L 1222.440491 367.328568 
L 1223.433197 368.334102 
L 1224.425903 368.795851 
L 1225.418609 371.0404 
L 1227.404021 376.11489 
L 1228.396727 380.448697 
L 1229.389432 384.274617 
L 1230.382138 390.555407 
L 1231.374844 395.784833 
L 1232.36755 398.885773 
L 1233.360256 400.801935 
L 1234.352962 398.552936 
L 1235.345668 393.733283 
L 1237.33108 380.085887 
L 1238.323786 375.186698 
L 1239.316492 371.18652 
L 1240.309198 366.612512 
L 1241.301904 363.712431 
L 1242.29461 361.273955 
L 1244.280021 357.78139 
L 1245.272727 357.148437 
L 1245.272727 357.148437 
" clip-path="url(#p9f96b38ec7)" style="fill: none; stroke: #1f77b4; stroke-width: 1.5; stroke-linecap: square"/>
   </g>
   <g id="patch_3">
    <path d="M 180 512.64 
L 180 69.12 
" style="fill: none; stroke: #000000; stroke-width: 0.8; stroke-linejoin: miter; stroke-linecap: square"/>
   </g>
   <g id="patch_4">
    <path d="M 1296 512.64 
L 1296 69.12 
" style="fill: none; stroke: #000000; stroke-width: 0.8; stroke-linejoin: miter; stroke-linecap: square"/>
   </g>
   <g id="patch_5">
    <path d="M 180 512.64 
L 1296 512.64 
" style="fill: none; stroke: #000000; stroke-width: 0.8; stroke-linejoin: miter; stroke-linecap: square"/>
   </g>
   <g id="patch_6">
    <path d="M 180 69.12 
L 1296 69.12 
" style="fill: none; stroke: #000000; stroke-width: 0.8; stroke-linejoin: miter; stroke-linecap: square"/>
   </g>
   <g id="text_13">
    <!-- source24-receiver24 -->
    <g transform="translate(532.175 60.80125) scale(0.4 -0.4)">
     <defs>
      <path id="DejaVuSans-73" d="M 2834 3397 
L 2834 2853 
Q 2591 2978 2328 3040 
Q 2066 3103 1784 3103 
Q 1356 3103 1142 2972 
Q 928 2841 928 2578 
Q 928 2378 1081 2264 
Q 1234 2150 1697 2047 
L 1894 2003 
Q 2506 1872 2764 1633 
Q 3022 1394 3022 966 
Q 3022 478 2636 193 
Q 2250 -91 1575 -91 
Q 1294 -91 989 -36 
Q 684 19 347 128 
L 347 722 
Q 666 556 975 473 
Q 1284 391 1588 391 
Q 1994 391 2212 530 
Q 2431 669 2431 922 
Q 2431 1156 2273 1281 
Q 2116 1406 1581 1522 
L 1381 1569 
Q 847 1681 609 1914 
Q 372 2147 372 2553 
Q 372 3047 722 3315 
Q 1072 3584 1716 3584 
Q 2034 3584 2315 3537 
Q 2597 3491 2834 3397 
z
" transform="scale(0.015625)"/>
      <path id="DejaVuSans-6f" d="M 1959 3097 
Q 1497 3097 1228 2736 
Q 959 2375 959 1747 
Q 959 1119 1226 758 
Q 1494 397 1959 397 
Q 2419 397 2687 759 
Q 2956 1122 2956 1747 
Q 2956 2369 2687 2733 
Q 2419 3097 1959 3097 
z
M 1959 3584 
Q 2709 3584 3137 3096 
Q 3566 2609 3566 1747 
Q 3566 888 3137 398 
Q 2709 -91 1959 -91 
Q 1206 -91 779 398 
Q 353 888 353 1747 
Q 353 2609 779 3096 
Q 1206 3584 1959 3584 
z
" transform="scale(0.015625)"/>
      <path id="DejaVuSans-75" d="M 544 1381 
L 544 3500 
L 1119 3500 
L 1119 1403 
Q 1119 906 1312 657 
Q 1506 409 1894 409 
Q 2359 409 2629 706 
Q 2900 1003 2900 1516 
L 2900 3500 
L 3475 3500 
L 3475 0 
L 2900 0 
L 2900 538 
Q 2691 219 2414 64 
Q 2138 -91 1772 -91 
Q 1169 -91 856 284 
Q 544 659 544 1381 
z
M 1991 3584 
L 1991 3584 
z
" transform="scale(0.015625)"/>
      <path id="DejaVuSans-72" d="M 2631 2963 
Q 2534 3019 2420 3045 
Q 2306 3072 2169 3072 
Q 1681 3072 1420 2755 
Q 1159 2438 1159 1844 
L 1159 0 
L 581 0 
L 581 3500 
L 1159 3500 
L 1159 2956 
Q 1341 3275 1631 3429 
Q 1922 3584 2338 3584 
Q 2397 3584 2469 3576 
Q 2541 3569 2628 3553 
L 2631 2963 
z
" transform="scale(0.015625)"/>
      <path id="DejaVuSans-63" d="M 3122 3366 
L 3122 2828 
Q 2878 2963 2633 3030 
Q 2388 3097 2138 3097 
Q 1578 3097 1268 2742 
Q 959 2388 959 1747 
Q 959 1106 1268 751 
Q 1578 397 2138 397 
Q 2388 397 2633 464 
Q 2878 531 3122 666 
L 3122 134 
Q 2881 22 2623 -34 
Q 2366 -91 2075 -91 
Q 1284 -91 818 406 
Q 353 903 353 1747 
Q 353 2603 823 3093 
Q 1294 3584 2113 3584 
Q 2378 3584 2631 3529 
Q 2884 3475 3122 3366 
z
" transform="scale(0.015625)"/>
      <path id="DejaVuSans-65" d="M 3597 1894 
L 3597 1613 
L 953 1613 
Q 991 1019 1311 708 
Q 1631 397 2203 397 
Q 2534 397 2845 478 
Q 3156 559 3463 722 
L 3463 178 
Q 3153 47 2828 -22 
Q 2503 -91 2169 -91 
Q 1331 -91 842 396 
Q 353 884 353 1716 
Q 353 2575 817 3079 
Q 1281 3584 2069 3584 
Q 2775 3584 3186 3129 
Q 3597 2675 3597 1894 
z
M 3022 2063 
Q 3016 2534 2758 2815 
Q 2500 3097 2075 3097 
Q 1594 3097 1305 2825 
Q 1016 2553 972 2059 
L 3022 2063 
z
" transform="scale(0.015625)"/>
      <path id="DejaVuSans-2d" d="M 313 2009 
L 1997 2009 
L 1997 1497 
L 313 1497 
L 313 2009 
z
" transform="scale(0.015625)"/>
      <path id="DejaVuSans-69" d="M 603 3500 
L 1178 3500 
L 1178 0 
L 603 0 
L 603 3500 
z
M 603 4863 
L 1178 4863 
L 1178 4134 
L 603 4134 
L 603 4863 
z
" transform="scale(0.015625)"/>
      <path id="DejaVuSans-76" d="M 191 3500 
L 800 3500 
L 1894 563 
L 2988 3500 
L 3597 3500 
L 2284 0 
L 1503 0 
L 191 3500 
z
" transform="scale(0.015625)"/>
     </defs>
     <use xlink:href="#DejaVuSans-73"/>
     <use xlink:href="#DejaVuSans-6f" x="52.099609"/>
     <use xlink:href="#DejaVuSans-75" x="113.28125"/>
     <use xlink:href="#DejaVuSans-72" x="176.660156"/>
     <use xlink:href="#DejaVuSans-63" x="215.523438"/>
     <use xlink:href="#DejaVuSans-65" x="270.503906"/>
     <use xlink:href="#DejaVuSans-32" x="332.027344"/>
     <use xlink:href="#DejaVuSans-34" x="395.650391"/>
     <use xlink:href="#DejaVuSans-2d" x="459.273438"/>
     <use xlink:href="#DejaVuSans-72" x="495.357422"/>
     <use xlink:href="#DejaVuSans-65" x="534.220703"/>
     <use xlink:href="#DejaVuSans-63" x="595.744141"/>
     <use xlink:href="#DejaVuSans-65" x="650.724609"/>
     <use xlink:href="#DejaVuSans-69" x="712.248047"/>
     <use xlink:href="#DejaVuSans-76" x="740.03125"/>
     <use xlink:href="#DejaVuSans-65" x="799.210938"/>
     <use xlink:href="#DejaVuSans-72" x="860.734375"/>
     <use xlink:href="#DejaVuSans-32" x="901.847656"/>
     <use xlink:href="#DejaVuSans-34" x="965.470703"/>
    </g>
   </g>
  </g>
 </g>
 <defs>
  <clipPath id="p9f96b38ec7">
   <rect x="180" y="69.12" width="1116" height="443.52"/>
  </clipPath>
 </defs>
</svg>
