<?xml version="1.0" encoding="utf-8" standalone="no"?>
<!DOCTYPE svg PUBLIC "-//W3C//DTD SVG 1.1//EN"
  "http://www.w3.org/Graphics/SVG/1.1/DTD/svg11.dtd">
<svg xmlns:xlink="http://www.w3.org/1999/xlink" width="1440pt" height="576pt" viewBox="0 0 1440 576" xmlns="http://www.w3.org/2000/svg" version="1.1">
 <metadata>
  <rdf:RDF xmlns:dc="http://purl.org/dc/elements/1.1/" xmlns:cc="http://creativecommons.org/ns#" xmlns:rdf="http://www.w3.org/1999/02/22-rdf-syntax-ns#">
   <cc:Work>
    <dc:type rdf:resource="http://purl.org/dc/dcmitype/StillImage"/>
    <dc:date>2024-05-22T04:50:25.448763</dc:date>
    <dc:format>image/svg+xml</dc:format>
    <dc:creator>
     <cc:Agent>
      <dc:title>Matplotlib v3.8.3, https://matplotlib.org/</dc:title>
     </cc:Agent>
    </dc:creator>
   </cc:Work>
  </rdf:RDF>
 </metadata>
 <defs>
  <style type="text/css">*{stroke-linejoin: round; stroke-linecap: butt}</style>
 </defs>
 <g id="figure_1">
  <g id="patch_1">
   <path d="M 0 576 
L 1440 576 
L 1440 0 
L 0 0 
z
" style="fill: #ffffff"/>
  </g>
  <g id="axes_1">
   <g id="patch_2">
    <path d="M 180 512.64 
L 1296 512.64 
L 1296 69.12 
L 180 69.12 
z
" style="fill: #ffffff"/>
   </g>
   <g id="matplotlib.axis_1">
    <g id="xtick_1">
     <g id="line2d_1">
      <defs>
       <path id="me9aacb0dd0" d="M 0 0 
L 0 3.5 
" style="stroke: #000000; stroke-width: 0.8"/>
      </defs>
      <g>
       <use xlink:href="#me9aacb0dd0" x="229.734567" y="512.64" style="stroke: #000000; stroke-width: 0.8"/>
      </g>
     </g>
     <g id="text_1">
      <!-- 0 -->
      <g transform="translate(226.553317 527.238438) scale(0.1 -0.1)">
       <defs>
        <path id="DejaVuSans-30" d="M 2034 4250 
Q 1547 4250 1301 3770 
Q 1056 3291 1056 2328 
Q 1056 1369 1301 889 
Q 1547 409 2034 409 
Q 2525 409 2770 889 
Q 3016 1369 3016 2328 
Q 3016 3291 2770 3770 
Q 2525 4250 2034 4250 
z
M 2034 4750 
Q 2819 4750 3233 4129 
Q 3647 3509 3647 2328 
Q 3647 1150 3233 529 
Q 2819 -91 2034 -91 
Q 1250 -91 836 529 
Q 422 1150 422 2328 
Q 422 3509 836 4129 
Q 1250 4750 2034 4750 
z
" transform="scale(0.015625)"/>
       </defs>
       <use xlink:href="#DejaVuSans-30"/>
      </g>
     </g>
    </g>
    <g id="xtick_2">
     <g id="line2d_2">
      <g>
       <use xlink:href="#me9aacb0dd0" x="433.04074" y="512.64" style="stroke: #000000; stroke-width: 0.8"/>
      </g>
     </g>
     <g id="text_2">
      <!-- 500 -->
      <g transform="translate(423.49699 527.238438) scale(0.1 -0.1)">
       <defs>
        <path id="DejaVuSans-35" d="M 691 4666 
L 3169 4666 
L 3169 4134 
L 1269 4134 
L 1269 2991 
Q 1406 3038 1543 3061 
Q 1681 3084 1819 3084 
Q 2600 3084 3056 2656 
Q 3513 2228 3513 1497 
Q 3513 744 3044 326 
Q 2575 -91 1722 -91 
Q 1428 -91 1123 -41 
Q 819 9 494 109 
L 494 744 
Q 775 591 1075 516 
Q 1375 441 1709 441 
Q 2250 441 2565 725 
Q 2881 1009 2881 1497 
Q 2881 1984 2565 2268 
Q 2250 2553 1709 2553 
Q 1456 2553 1204 2497 
Q 953 2441 691 2322 
L 691 4666 
z
" transform="scale(0.015625)"/>
       </defs>
       <use xlink:href="#DejaVuSans-35"/>
       <use xlink:href="#DejaVuSans-30" x="63.623047"/>
       <use xlink:href="#DejaVuSans-30" x="127.246094"/>
      </g>
     </g>
    </g>
    <g id="xtick_3">
     <g id="line2d_3">
      <g>
       <use xlink:href="#me9aacb0dd0" x="636.346913" y="512.64" style="stroke: #000000; stroke-width: 0.8"/>
      </g>
     </g>
     <g id="text_3">
      <!-- 1000 -->
      <g transform="translate(623.621913 527.238438) scale(0.1 -0.1)">
       <defs>
        <path id="DejaVuSans-31" d="M 794 531 
L 1825 531 
L 1825 4091 
L 703 3866 
L 703 4441 
L 1819 4666 
L 2450 4666 
L 2450 531 
L 3481 531 
L 3481 0 
L 794 0 
L 794 531 
z
" transform="scale(0.015625)"/>
       </defs>
       <use xlink:href="#DejaVuSans-31"/>
       <use xlink:href="#DejaVuSans-30" x="63.623047"/>
       <use xlink:href="#DejaVuSans-30" x="127.246094"/>
       <use xlink:href="#DejaVuSans-30" x="190.869141"/>
      </g>
     </g>
    </g>
    <g id="xtick_4">
     <g id="line2d_4">
      <g>
       <use xlink:href="#me9aacb0dd0" x="839.653087" y="512.64" style="stroke: #000000; stroke-width: 0.8"/>
      </g>
     </g>
     <g id="text_4">
      <!-- 1500 -->
      <g transform="translate(826.928087 527.238438) scale(0.1 -0.1)">
       <use xlink:href="#DejaVuSans-31"/>
       <use xlink:href="#DejaVuSans-35" x="63.623047"/>
       <use xlink:href="#DejaVuSans-30" x="127.246094"/>
       <use xlink:href="#DejaVuSans-30" x="190.869141"/>
      </g>
     </g>
    </g>
    <g id="xtick_5">
     <g id="line2d_5">
      <g>
       <use xlink:href="#me9aacb0dd0" x="1042.95926" y="512.64" style="stroke: #000000; stroke-width: 0.8"/>
      </g>
     </g>
     <g id="text_5">
      <!-- 2000 -->
      <g transform="translate(1030.23426 527.238438) scale(0.1 -0.1)">
       <defs>
        <path id="DejaVuSans-32" d="M 1228 531 
L 3431 531 
L 3431 0 
L 469 0 
L 469 531 
Q 828 903 1448 1529 
Q 2069 2156 2228 2338 
Q 2531 2678 2651 2914 
Q 2772 3150 2772 3378 
Q 2772 3750 2511 3984 
Q 2250 4219 1831 4219 
Q 1534 4219 1204 4116 
Q 875 4013 500 3803 
L 500 4441 
Q 881 4594 1212 4672 
Q 1544 4750 1819 4750 
Q 2544 4750 2975 4387 
Q 3406 4025 3406 3419 
Q 3406 3131 3298 2873 
Q 3191 2616 2906 2266 
Q 2828 2175 2409 1742 
Q 1991 1309 1228 531 
z
" transform="scale(0.015625)"/>
       </defs>
       <use xlink:href="#DejaVuSans-32"/>
       <use xlink:href="#DejaVuSans-30" x="63.623047"/>
       <use xlink:href="#DejaVuSans-30" x="127.246094"/>
       <use xlink:href="#DejaVuSans-30" x="190.869141"/>
      </g>
     </g>
    </g>
    <g id="xtick_6">
     <g id="line2d_6">
      <g>
       <use xlink:href="#me9aacb0dd0" x="1246.265433" y="512.64" style="stroke: #000000; stroke-width: 0.8"/>
      </g>
     </g>
     <g id="text_6">
      <!-- 2500 -->
      <g transform="translate(1233.540433 527.238438) scale(0.1 -0.1)">
       <use xlink:href="#DejaVuSans-32"/>
       <use xlink:href="#DejaVuSans-35" x="63.623047"/>
       <use xlink:href="#DejaVuSans-30" x="127.246094"/>
       <use xlink:href="#DejaVuSans-30" x="190.869141"/>
      </g>
     </g>
    </g>
   </g>
   <g id="matplotlib.axis_2">
    <g id="ytick_1">
     <g id="line2d_7">
      <defs>
       <path id="m5056002438" d="M 0 0 
L -3.5 0 
" style="stroke: #000000; stroke-width: 0.8"/>
      </defs>
      <g>
       <use xlink:href="#m5056002438" x="180" y="507.443998" style="stroke: #000000; stroke-width: 0.8"/>
      </g>
     </g>
     <g id="text_7">
      <!-- −8 -->
      <g transform="translate(158.257812 511.243217) scale(0.1 -0.1)">
       <defs>
        <path id="DejaVuSans-2212" d="M 678 2272 
L 4684 2272 
L 4684 1741 
L 678 1741 
L 678 2272 
z
" transform="scale(0.015625)"/>
        <path id="DejaVuSans-38" d="M 2034 2216 
Q 1584 2216 1326 1975 
Q 1069 1734 1069 1313 
Q 1069 891 1326 650 
Q 1584 409 2034 409 
Q 2484 409 2743 651 
Q 3003 894 3003 1313 
Q 3003 1734 2745 1975 
Q 2488 2216 2034 2216 
z
M 1403 2484 
Q 997 2584 770 2862 
Q 544 3141 544 3541 
Q 544 4100 942 4425 
Q 1341 4750 2034 4750 
Q 2731 4750 3128 4425 
Q 3525 4100 3525 3541 
Q 3525 3141 3298 2862 
Q 3072 2584 2669 2484 
Q 3125 2378 3379 2068 
Q 3634 1759 3634 1313 
Q 3634 634 3220 271 
Q 2806 -91 2034 -91 
Q 1263 -91 848 271 
Q 434 634 434 1313 
Q 434 1759 690 2068 
Q 947 2378 1403 2484 
z
M 1172 3481 
Q 1172 3119 1398 2916 
Q 1625 2713 2034 2713 
Q 2441 2713 2670 2916 
Q 2900 3119 2900 3481 
Q 2900 3844 2670 4047 
Q 2441 4250 2034 4250 
Q 1625 4250 1398 4047 
Q 1172 3844 1172 3481 
z
" transform="scale(0.015625)"/>
       </defs>
       <use xlink:href="#DejaVuSans-2212"/>
       <use xlink:href="#DejaVuSans-38" x="83.789062"/>
      </g>
     </g>
    </g>
    <g id="ytick_2">
     <g id="line2d_8">
      <g>
       <use xlink:href="#m5056002438" x="180" y="432.83407" style="stroke: #000000; stroke-width: 0.8"/>
      </g>
     </g>
     <g id="text_8">
      <!-- −6 -->
      <g transform="translate(158.257812 436.633289) scale(0.1 -0.1)">
       <defs>
        <path id="DejaVuSans-36" d="M 2113 2584 
Q 1688 2584 1439 2293 
Q 1191 2003 1191 1497 
Q 1191 994 1439 701 
Q 1688 409 2113 409 
Q 2538 409 2786 701 
Q 3034 994 3034 1497 
Q 3034 2003 2786 2293 
Q 2538 2584 2113 2584 
z
M 3366 4563 
L 3366 3988 
Q 3128 4100 2886 4159 
Q 2644 4219 2406 4219 
Q 1781 4219 1451 3797 
Q 1122 3375 1075 2522 
Q 1259 2794 1537 2939 
Q 1816 3084 2150 3084 
Q 2853 3084 3261 2657 
Q 3669 2231 3669 1497 
Q 3669 778 3244 343 
Q 2819 -91 2113 -91 
Q 1303 -91 875 529 
Q 447 1150 447 2328 
Q 447 3434 972 4092 
Q 1497 4750 2381 4750 
Q 2619 4750 2861 4703 
Q 3103 4656 3366 4563 
z
" transform="scale(0.015625)"/>
       </defs>
       <use xlink:href="#DejaVuSans-2212"/>
       <use xlink:href="#DejaVuSans-36" x="83.789062"/>
      </g>
     </g>
    </g>
    <g id="ytick_3">
     <g id="line2d_9">
      <g>
       <use xlink:href="#m5056002438" x="180" y="358.224142" style="stroke: #000000; stroke-width: 0.8"/>
      </g>
     </g>
     <g id="text_9">
      <!-- −4 -->
      <g transform="translate(158.257812 362.02336) scale(0.1 -0.1)">
       <defs>
        <path id="DejaVuSans-34" d="M 2419 4116 
L 825 1625 
L 2419 1625 
L 2419 4116 
z
M 2253 4666 
L 3047 4666 
L 3047 1625 
L 3713 1625 
L 3713 1100 
L 3047 1100 
L 3047 0 
L 2419 0 
L 2419 1100 
L 313 1100 
L 313 1709 
L 2253 4666 
z
" transform="scale(0.015625)"/>
       </defs>
       <use xlink:href="#DejaVuSans-2212"/>
       <use xlink:href="#DejaVuSans-34" x="83.789062"/>
      </g>
     </g>
    </g>
    <g id="ytick_4">
     <g id="line2d_10">
      <g>
       <use xlink:href="#m5056002438" x="180" y="283.614213" style="stroke: #000000; stroke-width: 0.8"/>
      </g>
     </g>
     <g id="text_10">
      <!-- −2 -->
      <g transform="translate(158.257812 287.413432) scale(0.1 -0.1)">
       <use xlink:href="#DejaVuSans-2212"/>
       <use xlink:href="#DejaVuSans-32" x="83.789062"/>
      </g>
     </g>
    </g>
    <g id="ytick_5">
     <g id="line2d_11">
      <g>
       <use xlink:href="#m5056002438" x="180" y="209.004285" style="stroke: #000000; stroke-width: 0.8"/>
      </g>
     </g>
     <g id="text_11">
      <!-- 0 -->
      <g transform="translate(166.6375 212.803504) scale(0.1 -0.1)">
       <use xlink:href="#DejaVuSans-30"/>
      </g>
     </g>
    </g>
    <g id="ytick_6">
     <g id="line2d_12">
      <g>
       <use xlink:href="#m5056002438" x="180" y="134.394356" style="stroke: #000000; stroke-width: 0.8"/>
      </g>
     </g>
     <g id="text_12">
      <!-- 2 -->
      <g transform="translate(166.6375 138.193575) scale(0.1 -0.1)">
       <use xlink:href="#DejaVuSans-32"/>
      </g>
     </g>
    </g>
   </g>
   <g id="line2d_13">
    <path d="M 230.727273 271.244491 
L 231.719979 270.704715 
L 232.712685 270.824573 
L 235.690802 270.489996 
L 236.683508 269.905697 
L 237.676214 270.298554 
L 238.66892 270.474023 
L 239.661626 270.048739 
L 240.654332 269.918541 
L 242.639744 270.481913 
L 243.63245 270.410196 
L 244.625156 272.550902 
L 245.617862 273.34604 
L 246.610568 272.298013 
L 247.603273 260.152869 
L 248.595979 241.403811 
L 249.588685 239.424605 
L 250.581391 226.38634 
L 251.574097 194.775973 
L 252.566803 183.07838 
L 253.559509 191.635338 
L 254.552215 239.294006 
L 255.544921 182.529248 
L 256.537627 170.540469 
L 257.530333 176.948906 
L 258.523039 185.846915 
L 259.515745 218.714319 
L 260.50845 194.901674 
L 261.501156 176.672347 
L 262.493862 191.57092 
L 263.486568 219.945088 
L 264.479274 189.706018 
L 265.47198 189.365807 
L 266.464686 175.85582 
L 267.457392 174.831113 
L 268.450098 177.582124 
L 269.442804 169.212064 
L 270.43551 190.115627 
L 271.428216 179.869775 
L 272.420922 155.910032 
L 273.413627 157.123858 
L 274.406333 129.265163 
L 275.399039 114.871499 
L 276.391745 127.440139 
L 277.384451 164.962386 
L 278.377157 104.534624 
L 279.369863 89.765751 
L 280.362569 89.28 
L 281.355275 97.796924 
L 282.347981 111.847048 
L 283.340687 141.763996 
L 284.333393 160.398752 
L 285.326099 120.394726 
L 286.318804 114.919749 
L 287.31151 126.352349 
L 288.304216 156.495839 
L 289.296922 206.404109 
L 290.289628 219.814422 
L 291.282334 181.60485 
L 292.27504 182.930083 
L 294.260452 219.715404 
L 295.253158 219.639497 
L 296.245864 220.889827 
L 297.23857 190.871557 
L 298.231276 172.177518 
L 299.223981 173.730507 
L 300.216687 186.644659 
L 301.209393 176.23693 
L 302.202099 176.580844 
L 303.194805 200.006366 
L 304.187511 204.097073 
L 305.180217 214.535498 
L 306.172923 249.905147 
L 307.165629 242.634973 
L 308.158335 281.999446 
L 309.151041 258.406981 
L 310.143747 255.26127 
L 311.136453 249.448568 
L 312.129159 257.246307 
L 313.121864 284.726847 
L 314.11457 270.829303 
L 315.107276 270.889155 
L 316.099982 264.86518 
L 317.092688 273.425703 
L 318.085394 268.437605 
L 319.0781 278.089993 
L 320.070806 274.504247 
L 321.063512 268.44835 
L 322.056218 277.478685 
L 323.048924 276.96057 
L 324.04163 279.216498 
L 326.027041 289.192687 
L 327.019747 286.537643 
L 328.012453 285.378444 
L 329.005159 283.162494 
L 329.997865 287.095753 
L 330.990571 287.756717 
L 331.983277 285.14625 
L 332.975983 281.56116 
L 333.968689 284.287955 
L 334.961395 287.788733 
L 335.954101 329.794608 
L 336.946807 285.456673 
L 337.939513 287.204429 
L 338.932218 289.449675 
L 339.924924 294.557877 
L 340.91763 287.215619 
L 341.910336 288.366648 
L 342.903042 300.021931 
L 343.895748 301.554265 
L 344.888454 306.168607 
L 345.88116 300.030377 
L 346.873866 302.388052 
L 347.866572 300.022462 
L 348.859278 297.214648 
L 349.851984 286.181838 
L 350.84469 296.974673 
L 351.837395 290.719197 
L 352.830101 302.051865 
L 353.822807 293.024853 
L 355.808219 310.501002 
L 356.800925 283.813761 
L 357.793631 283.609385 
L 358.786337 302.37439 
L 359.779043 275.620122 
L 360.771749 319.794582 
L 361.764455 319.554169 
L 362.757161 308.374995 
L 363.749867 313.801307 
L 364.742572 289.925592 
L 365.735278 286.686147 
L 366.727984 311.5694 
L 367.72069 300.387135 
L 368.713396 296.081142 
L 369.706102 322.085616 
L 370.698808 310.102259 
L 371.691514 311.950261 
L 372.68422 345.65536 
L 373.676926 305.118666 
L 374.669632 325.241337 
L 375.662338 294.657089 
L 376.655044 289.703685 
L 377.64775 329.844672 
L 378.640455 304.199001 
L 379.633161 304.946102 
L 380.625867 292.099475 
L 381.618573 321.325847 
L 382.611279 297.687666 
L 383.603985 285.983624 
L 384.596691 294.504445 
L 385.589397 313.358098 
L 386.582103 338.037034 
L 387.574809 306.455139 
L 388.567515 290.892005 
L 389.560221 307.91325 
L 390.552927 316.631838 
L 391.545632 307.133637 
L 392.538338 295.465858 
L 394.52375 325.907311 
L 395.516456 345.412582 
L 396.509162 299.939222 
L 397.501868 331.452106 
L 398.494574 327.287404 
L 399.48728 313.668252 
L 400.479986 316.140183 
L 401.472692 302.188145 
L 402.465398 299.654775 
L 403.458104 301.061443 
L 404.450809 328.202896 
L 405.443515 325.61652 
L 406.436221 313.282134 
L 407.428927 331.215775 
L 408.421633 323.939062 
L 409.414339 343.683219 
L 410.407045 305.435845 
L 411.399751 297.308426 
L 412.392457 309.781976 
L 413.385163 308.215358 
L 414.377869 341.500011 
L 415.370575 336.543859 
L 416.363281 308.66145 
L 417.355986 331.879175 
L 418.348692 322.448282 
L 419.341398 315.887206 
L 420.334104 343.426972 
L 421.32681 327.883057 
L 422.319516 329.821464 
L 423.312222 342.929173 
L 424.304928 336.300491 
L 425.297634 315.705671 
L 426.29034 327.006108 
L 427.283046 297.558747 
L 428.275752 306.372266 
L 429.268458 311.424594 
L 430.261163 309.071142 
L 431.253869 332.059537 
L 432.246575 317.136701 
L 433.239281 307.54756 
L 434.231987 329.631428 
L 435.224693 334.460442 
L 436.217399 350.913674 
L 437.210105 305.641023 
L 438.202811 384.319111 
L 439.195517 305.109929 
L 440.188223 331.27702 
L 441.180929 325.917004 
L 442.173635 341.013414 
L 443.166341 329.059732 
L 444.159046 336.097064 
L 445.151752 315.556216 
L 446.144458 328.185651 
L 447.137164 307.296892 
L 448.12987 342.880367 
L 449.122576 326.672482 
L 450.115282 323.147439 
L 451.107988 349.063845 
L 452.100694 313.600898 
L 453.0934 308.649483 
L 454.086106 305.12898 
L 455.078812 307.033591 
L 456.071518 332.552867 
L 457.064223 371.687616 
L 458.056929 309.872376 
L 459.049635 362.445472 
L 460.042341 313.454701 
L 461.035047 310.008571 
L 462.027753 347.381232 
L 463.020459 344.442487 
L 464.013165 305.476128 
L 465.005871 313.143643 
L 465.998577 325.754034 
L 466.991283 314.837332 
L 467.983989 322.767973 
L 468.976695 314.144749 
L 469.9694 320.852725 
L 470.962106 334.972652 
L 471.954812 324.313255 
L 472.947518 307.985613 
L 473.940224 320.942399 
L 474.93293 337.812621 
L 475.925636 321.349189 
L 476.918342 309.177212 
L 477.911048 304.159036 
L 478.903754 324.876745 
L 479.89646 310.895483 
L 480.889166 324.960674 
L 481.881872 335.046399 
L 482.874577 317.403595 
L 483.867283 354.000587 
L 484.859989 306.81542 
L 485.852695 321.571139 
L 486.845401 330.559441 
L 487.838107 334.508496 
L 488.830813 327.541459 
L 489.823519 347.394212 
L 490.816225 371.611791 
L 491.808931 316.871808 
L 492.801637 363.631804 
L 493.794343 326.765734 
L 494.787049 339.373764 
L 495.779754 338.254795 
L 496.77246 350.018918 
L 497.765166 351.958326 
L 498.757872 334.262234 
L 499.750578 303.625002 
L 500.743284 339.933535 
L 501.73599 358.816142 
L 502.728696 313.452907 
L 503.721402 354.901128 
L 504.714108 312.713699 
L 505.706814 330.666503 
L 506.69952 298.19892 
L 507.692226 335.886816 
L 508.684932 383.035861 
L 509.677637 307.076348 
L 510.670343 308.656524 
L 511.663049 312.250008 
L 512.655755 345.999255 
L 513.648461 323.342683 
L 514.641167 321.920728 
L 515.633873 341.128642 
L 516.626579 343.443768 
L 517.619285 341.936611 
L 518.611991 313.529823 
L 519.604697 334.435688 
L 520.597403 332.903063 
L 521.590109 310.170842 
L 522.582814 367.112974 
L 524.568226 306.102322 
L 525.560932 356.309483 
L 526.553638 330.613551 
L 527.546344 396.742418 
L 528.53905 313.850206 
L 529.531756 334.271812 
L 530.524462 312.789379 
L 531.517168 330.910422 
L 532.509874 331.126941 
L 533.50258 343.72463 
L 534.495286 326.744769 
L 535.487991 355.745642 
L 536.480697 358.342216 
L 537.473403 337.806197 
L 538.466109 335.133721 
L 539.458815 324.475421 
L 540.451521 357.216827 
L 541.444227 313.627744 
L 542.436933 329.905762 
L 543.429639 349.871468 
L 544.422345 338.382472 
L 545.415051 298.713324 
L 546.407757 327.939578 
L 547.400463 341.746452 
L 548.393168 338.966532 
L 549.385874 401.098138 
L 550.37858 332.362575 
L 551.371286 331.034184 
L 552.363992 346.449915 
L 553.356698 333.870448 
L 554.349404 327.212868 
L 555.34211 319.683494 
L 556.334816 363.252937 
L 557.327522 350.936732 
L 558.320228 321.580866 
L 559.312934 336.885062 
L 560.30564 335.007927 
L 561.298345 346.690401 
L 562.291051 340.712357 
L 563.283757 338.220257 
L 564.276463 327.49961 
L 565.269169 298.992027 
L 566.261875 333.201865 
L 567.254581 332.339304 
L 568.247287 342.222723 
L 569.239993 312.264292 
L 570.232699 313.898215 
L 571.225405 369.012212 
L 572.218111 320.734885 
L 573.210817 354.941669 
L 574.203523 377.2807 
L 575.196228 319.45995 
L 576.188934 340.911385 
L 577.18164 357.414786 
L 578.174346 322.229686 
L 579.167052 353.687098 
L 580.159758 316.032344 
L 581.152464 346.060529 
L 582.14517 326.253031 
L 583.137876 339.634108 
L 584.130582 332.14834 
L 585.123288 305.85735 
L 586.115994 348.492099 
L 587.1087 315.924651 
L 588.101405 341.396324 
L 589.094111 381.428036 
L 590.086817 326.847713 
L 591.079523 319.133787 
L 592.072229 330.764867 
L 593.064935 324.102131 
L 594.057641 330.227631 
L 595.050347 329.447382 
L 596.043053 352.635089 
L 597.035759 323.839887 
L 598.028465 448.073878 
L 599.021171 357.982689 
L 600.013877 321.314629 
L 601.006582 320.009776 
L 601.999288 336.367652 
L 602.991994 328.829393 
L 603.9847 337.536958 
L 604.977406 349.472883 
L 605.970112 338.318817 
L 606.962818 349.843016 
L 607.955524 334.128165 
L 608.94823 331.85333 
L 609.940936 337.842719 
L 610.933642 410.631327 
L 611.926348 337.840977 
L 612.919054 318.357805 
L 613.911759 335.326915 
L 614.904465 325.125378 
L 615.897171 340.125225 
L 616.889877 342.83556 
L 617.882583 347.305065 
L 618.875289 492.48 
L 619.867995 348.826417 
L 620.860701 337.329246 
L 621.853407 370.403208 
L 622.846113 382.849019 
L 623.838819 360.196056 
L 624.831525 371.160692 
L 625.824231 338.37338 
L 626.816936 359.411586 
L 627.809642 370.805413 
L 628.802348 336.601289 
L 629.795054 356.972747 
L 630.78776 361.40135 
L 631.780466 342.260648 
L 632.773172 330.328098 
L 633.765878 345.094148 
L 634.758584 345.753217 
L 635.75129 346.987955 
L 636.743996 356.562599 
L 637.736702 359.530137 
L 638.729408 349.464504 
L 639.722114 359.078222 
L 640.714819 365.98881 
L 641.707525 343.901422 
L 642.700231 348.265754 
L 643.692937 362.124708 
L 644.685643 354.654018 
L 645.678349 375.403453 
L 646.671055 347.755537 
L 647.663761 342.155253 
L 648.656467 373.960505 
L 649.649173 347.26209 
L 650.641879 343.149035 
L 651.634585 341.972555 
L 652.627291 350.391741 
L 653.619996 346.552269 
L 654.612702 346.46034 
L 655.605408 388.402279 
L 656.598114 351.083968 
L 657.59082 348.97581 
L 658.583526 355.34955 
L 659.576232 352.572068 
L 660.568938 345.798881 
L 661.561644 349.82928 
L 662.55435 355.701384 
L 663.547056 375.60414 
L 664.539762 366.794669 
L 665.532468 352.327579 
L 666.525173 355.703483 
L 667.517879 355.181722 
L 668.510585 349.193348 
L 669.503291 358.078961 
L 670.495997 354.816121 
L 671.488703 350.646133 
L 672.481409 359.564339 
L 673.474115 350.064853 
L 675.459527 359.726697 
L 676.452233 359.1265 
L 677.444939 350.143262 
L 678.437645 353.574625 
L 679.43035 350.772384 
L 680.423056 351.398359 
L 681.415762 348.651984 
L 682.408468 354.022388 
L 683.401174 360.489896 
L 684.39388 354.969247 
L 685.386586 347.112874 
L 686.379292 363.089547 
L 687.371998 358.759878 
L 688.364704 352.781203 
L 689.35741 359.025896 
L 690.350116 358.66724 
L 691.342822 355.214102 
L 692.335527 361.520825 
L 693.328233 354.620309 
L 694.320939 356.190172 
L 695.313645 358.156219 
L 696.306351 356.088611 
L 697.299057 352.54797 
L 698.291763 352.04551 
L 699.284469 355.741263 
L 700.277175 353.286582 
L 701.269881 351.561172 
L 702.262587 353.958965 
L 703.255293 354.81062 
L 704.247999 355.140163 
L 705.240705 352.190584 
L 706.23341 354.483145 
L 707.226116 358.814715 
L 708.218822 358.713015 
L 709.211528 357.806269 
L 711.19694 353.976186 
L 712.189646 358.967982 
L 713.182352 358.696062 
L 714.175058 360.50419 
L 715.167764 358.041334 
L 716.16047 354.975597 
L 718.145882 361.636731 
L 719.138587 358.287005 
L 720.131293 364.284977 
L 721.123999 356.115795 
L 722.116705 356.547359 
L 723.109411 358.841595 
L 724.102117 357.989392 
L 725.094823 354.552471 
L 726.087529 361.25699 
L 727.080235 359.011006 
L 728.072941 362.953358 
L 729.065647 356.348287 
L 730.058353 358.811544 
L 731.051059 358.928016 
L 732.043764 359.988581 
L 733.03647 361.984454 
L 734.029176 358.502008 
L 735.021882 359.406919 
L 736.014588 363.329577 
L 737.007294 362.402524 
L 738 364.827781 
L 738.992706 356.744 
L 739.985412 361.459696 
L 740.978118 357.641847 
L 741.970824 358.248486 
L 742.96353 362.456232 
L 743.956236 360.723567 
L 745.941647 358.541676 
L 746.934353 362.313316 
L 747.927059 361.682144 
L 748.919765 356.859447 
L 749.912471 359.336599 
L 750.905177 360.931252 
L 751.897883 358.684576 
L 752.890589 360.055538 
L 753.883295 361.818911 
L 754.876001 360.051073 
L 755.868707 360.76594 
L 756.861413 358.933798 
L 757.854118 364.884437 
L 758.846824 360.270608 
L 759.83953 363.260793 
L 760.832236 363.476952 
L 761.824942 359.063734 
L 762.817648 357.543235 
L 763.810354 358.232022 
L 764.80306 360.728738 
L 765.795766 360.484508 
L 766.788472 360.651009 
L 767.781178 361.355604 
L 768.773884 361.107588 
L 769.76659 359.648532 
L 770.759295 361.989945 
L 771.752001 361.245989 
L 772.744707 357.625336 
L 773.737413 359.54671 
L 774.730119 362.791441 
L 775.722825 359.181273 
L 776.715531 365.177166 
L 777.708237 362.766904 
L 778.700943 360.896958 
L 779.693649 360.53459 
L 780.686355 361.282211 
L 781.679061 364.112593 
L 782.671767 361.769178 
L 783.664473 358.673066 
L 784.657178 363.052941 
L 785.649884 361.858012 
L 786.64259 361.817721 
L 787.635296 362.863288 
L 788.628002 361.515777 
L 789.620708 364.326711 
L 790.613414 363.536546 
L 791.60612 364.700529 
L 792.598826 363.194326 
L 793.591532 362.926301 
L 794.584238 362.875755 
L 795.576944 364.430498 
L 796.56965 361.596913 
L 797.562355 361.090594 
L 798.555061 363.914327 
L 799.547767 362.428013 
L 800.540473 362.872572 
L 801.533179 362.228976 
L 802.525885 364.196042 
L 803.518591 364.136593 
L 804.511297 363.084673 
L 805.504003 363.512816 
L 806.496709 360.557529 
L 807.489415 362.682985 
L 808.482121 365.764875 
L 809.474827 360.68869 
L 810.467532 361.757561 
L 811.460238 363.397629 
L 812.452944 364.633592 
L 813.44565 361.853241 
L 814.438356 361.088362 
L 815.431062 364.000933 
L 816.423768 361.591974 
L 817.416474 363.759398 
L 818.40918 362.314894 
L 819.401886 364.323483 
L 820.394592 363.852759 
L 821.387298 364.470849 
L 822.380004 362.646777 
L 823.372709 363.276782 
L 824.365415 364.975849 
L 825.358121 359.492542 
L 826.350827 364.044693 
L 827.343533 364.810533 
L 828.336239 360.27245 
L 829.328945 365.536316 
L 830.321651 362.506047 
L 831.314357 366.665476 
L 832.307063 363.037327 
L 833.299769 363.220762 
L 834.292475 360.144356 
L 835.285181 363.981319 
L 836.277886 364.586214 
L 837.270592 367.071399 
L 838.263298 365.626811 
L 839.256004 364.452888 
L 840.24871 364.490543 
L 841.241416 366.450688 
L 843.226828 365.866878 
L 844.219534 366.419329 
L 845.21224 369.060215 
L 846.204946 365.369173 
L 847.197652 364.758483 
L 848.190358 366.421001 
L 849.183064 365.584797 
L 850.175769 363.425906 
L 851.168475 362.732459 
L 852.161181 364.446694 
L 853.153887 365.487043 
L 854.146593 364.553811 
L 855.139299 364.377309 
L 856.132005 364.522786 
L 857.124711 364.211665 
L 858.117417 364.873816 
L 859.110123 365.186281 
L 860.102829 366.894752 
L 861.095535 368.027367 
L 862.088241 366.553296 
L 863.080946 365.287102 
L 864.073652 365.974227 
L 865.066358 368.982822 
L 866.059064 366.828307 
L 867.05177 365.789563 
L 868.044476 367.49179 
L 869.037182 366.784298 
L 871.022594 371.173326 
L 872.0153 364.632307 
L 873.008006 362.475346 
L 874.000712 362.972986 
L 874.993418 360.652052 
L 875.986123 364.609373 
L 876.978829 366.293673 
L 877.971535 365.756654 
L 878.964241 364.798213 
L 879.956947 368.187838 
L 880.949653 367.178339 
L 881.942359 367.28601 
L 882.935065 368.368421 
L 883.927771 366.327729 
L 884.920477 369.723816 
L 885.913183 365.95166 
L 886.905889 366.122863 
L 887.898595 368.887644 
L 888.8913 366.174521 
L 889.884006 369.724866 
L 890.876712 369.170939 
L 891.869418 370.358928 
L 892.862124 366.56937 
L 893.85483 366.105902 
L 894.847536 368.919942 
L 895.840242 369.64257 
L 896.832948 367.724541 
L 897.825654 366.769345 
L 898.81836 369.116314 
L 899.811066 366.935563 
L 900.803772 368.659609 
L 901.796477 367.893927 
L 902.789183 365.031861 
L 903.781889 367.853833 
L 904.774595 371.79419 
L 905.767301 366.458351 
L 906.760007 365.309086 
L 907.752713 363.812291 
L 908.745419 365.28412 
L 909.738125 367.019705 
L 910.730831 366.992083 
L 911.723537 367.265495 
L 912.716243 365.715921 
L 913.708949 369.42735 
L 914.701655 366.889445 
L 915.69436 367.216025 
L 916.687066 372.083059 
L 917.679772 365.331571 
L 918.672478 367.360198 
L 919.665184 367.338968 
L 920.65789 369.632944 
L 921.650596 367.28896 
L 922.643302 369.39025 
L 923.636008 369.142284 
L 924.628714 369.587726 
L 925.62142 368.982944 
L 926.614126 367.919519 
L 928.599537 369.052938 
L 929.592243 367.61401 
L 930.584949 369.369154 
L 931.577655 367.694665 
L 932.570361 370.178415 
L 934.555773 370.500455 
L 935.548479 366.650862 
L 936.541185 371.479801 
L 937.533891 366.381646 
L 938.526597 368.350972 
L 939.519303 369.2235 
L 940.512009 372.666193 
L 941.504714 371.942899 
L 942.49742 367.347498 
L 943.490126 372.324332 
L 944.482832 370.396065 
L 945.475538 372.325423 
L 946.468244 373.098356 
L 947.46095 369.241204 
L 948.453656 368.310639 
L 949.446362 369.774551 
L 950.439068 368.038009 
L 951.431774 368.855942 
L 952.42448 369.211466 
L 953.417186 367.197631 
L 954.409891 366.227894 
L 955.402597 370.305063 
L 956.395303 370.399986 
L 957.388009 371.887318 
L 959.373421 365.225913 
L 961.358833 370.520883 
L 962.351539 368.470572 
L 963.344245 370.565897 
L 964.336951 370.875548 
L 965.329657 366.645457 
L 966.322363 366.556937 
L 967.315068 369.640252 
L 968.307774 369.415577 
L 969.30048 368.248736 
L 970.293186 369.007099 
L 971.285892 368.072322 
L 972.278598 370.036687 
L 973.271304 368.534231 
L 974.26401 367.71455 
L 975.256716 368.538068 
L 976.249422 368.124837 
L 977.242128 368.935038 
L 978.234834 369.414254 
L 979.22754 366.228911 
L 980.220246 370.312958 
L 981.212951 368.353761 
L 982.205657 367.240586 
L 984.191069 370.010534 
L 985.183775 369.580814 
L 986.176481 367.630169 
L 987.169187 372.417658 
L 988.161893 371.168836 
L 989.154599 368.635009 
L 990.147305 367.741432 
L 991.140011 369.875208 
L 992.132717 370.349923 
L 993.125423 370.69096 
L 994.118128 367.942876 
L 995.110834 371.689063 
L 996.10354 370.714151 
L 997.096246 370.463606 
L 998.088952 368.74977 
L 999.081658 370.562207 
L 1000.074364 370.056733 
L 1001.06707 370.334289 
L 1002.059776 367.591226 
L 1003.052482 370.500472 
L 1004.045188 370.448909 
L 1005.037894 367.734867 
L 1006.0306 377.284471 
L 1007.023305 371.444774 
L 1008.016011 368.273422 
L 1009.008717 369.388266 
L 1010.001423 369.03339 
L 1010.994129 371.588183 
L 1011.986835 372.305594 
L 1012.979541 378.666663 
L 1013.972247 373.534012 
L 1014.964953 373.410577 
L 1015.957659 370.817351 
L 1016.950365 369.360214 
L 1017.943071 370.49933 
L 1018.935777 370.482818 
L 1019.928482 369.344559 
L 1020.921188 369.935914 
L 1021.913894 371.258606 
L 1022.9066 370.411668 
L 1023.899306 367.086536 
L 1024.892012 367.530821 
L 1025.884718 374.862991 
L 1026.877424 371.719522 
L 1027.87013 375.582915 
L 1028.862836 373.301353 
L 1029.855542 371.593709 
L 1030.848248 372.317077 
L 1031.840954 367.583504 
L 1032.833659 367.436942 
L 1033.826365 367.422726 
L 1034.819071 373.021834 
L 1035.811777 373.818222 
L 1036.804483 372.503228 
L 1037.797189 370.153229 
L 1038.789895 374.414791 
L 1039.782601 369.8749 
L 1040.775307 372.091376 
L 1041.768013 370.596411 
L 1042.760719 375.085489 
L 1043.753425 372.27537 
L 1044.746131 374.238884 
L 1045.738837 372.078987 
L 1046.731542 371.774713 
L 1047.724248 374.799488 
L 1048.716954 371.375712 
L 1049.70966 373.503927 
L 1050.702366 369.105025 
L 1051.695072 371.156774 
L 1052.687778 375.561688 
L 1053.680484 371.583014 
L 1054.67319 370.398345 
L 1055.665896 369.796534 
L 1056.658602 371.414974 
L 1057.651308 369.936322 
L 1058.644014 374.203503 
L 1059.636719 373.920865 
L 1060.629425 368.808095 
L 1061.622131 369.945095 
L 1062.614837 372.666898 
L 1063.607543 376.563085 
L 1064.600249 368.514546 
L 1065.592955 371.698251 
L 1066.585661 371.586358 
L 1067.578367 372.072149 
L 1068.571073 369.979873 
L 1069.563779 371.007651 
L 1070.556485 366.847224 
L 1071.549191 373.233282 
L 1072.541896 372.434272 
L 1073.534602 370.425956 
L 1074.527308 372.700752 
L 1075.520014 370.607267 
L 1076.51272 373.339343 
L 1077.505426 369.167239 
L 1078.498132 371.571406 
L 1079.490838 374.509217 
L 1080.483544 373.879069 
L 1081.47625 370.287532 
L 1082.468956 373.046582 
L 1083.461662 372.017932 
L 1084.454368 369.934407 
L 1085.447073 374.357725 
L 1086.439779 371.411367 
L 1087.432485 369.396073 
L 1088.425191 368.949634 
L 1089.417897 374.090813 
L 1090.410603 373.673214 
L 1091.403309 371.300431 
L 1092.396015 375.142123 
L 1093.388721 370.168233 
L 1094.381427 372.984051 
L 1095.374133 371.524258 
L 1096.366839 373.179881 
L 1097.359545 373.11018 
L 1098.35225 372.316164 
L 1099.344956 372.082923 
L 1100.337662 375.87791 
L 1101.330368 376.359924 
L 1103.31578 372.37812 
L 1104.308486 374.967462 
L 1105.301192 373.53597 
L 1106.293898 373.994479 
L 1107.286604 368.199767 
L 1108.27931 371.335225 
L 1109.272016 372.532295 
L 1110.264722 371.846839 
L 1111.257428 370.410821 
L 1112.250133 372.475558 
L 1113.242839 368.761927 
L 1114.235545 374.820806 
L 1115.228251 371.526739 
L 1116.220957 372.833915 
L 1117.213663 372.226599 
L 1119.199075 371.507816 
L 1120.191781 370.197137 
L 1121.184487 374.1314 
L 1122.177193 374.43858 
L 1123.169899 368.386745 
L 1124.162605 370.430631 
L 1125.15531 371.47281 
L 1126.148016 375.116967 
L 1127.140722 374.333011 
L 1128.133428 373.007627 
L 1129.126134 374.920069 
L 1130.11884 370.51709 
L 1131.111546 371.236496 
L 1132.104252 371.304171 
L 1133.096958 372.84754 
L 1134.089664 372.664917 
L 1135.08237 371.650211 
L 1136.075076 374.915657 
L 1137.067782 373.482564 
L 1138.060487 375.039246 
L 1139.053193 371.7355 
L 1140.045899 373.116628 
L 1141.038605 372.760459 
L 1142.031311 374.578801 
L 1143.024017 374.167295 
L 1144.016723 372.245144 
L 1145.009429 375.505728 
L 1146.002135 372.570446 
L 1146.994841 374.555013 
L 1147.987547 372.554606 
L 1148.980253 371.867763 
L 1149.972959 371.482346 
L 1150.965664 369.353721 
L 1151.95837 369.229834 
L 1152.951076 370.714075 
L 1153.943782 371.248201 
L 1154.936488 372.383647 
L 1155.929194 372.884589 
L 1156.9219 374.076169 
L 1157.914606 375.861203 
L 1158.907312 373.660751 
L 1159.900018 372.039839 
L 1160.892724 375.72291 
L 1161.88543 374.02735 
L 1162.878136 367.232173 
L 1163.870841 374.706055 
L 1164.863547 369.131709 
L 1165.856253 374.446486 
L 1166.848959 372.719337 
L 1168.834371 375.670362 
L 1169.827077 373.200496 
L 1170.819783 371.936932 
L 1171.812489 373.538544 
L 1172.805195 374.825362 
L 1173.797901 369.769023 
L 1174.790607 373.48251 
L 1175.783313 373.711372 
L 1176.776019 375.155319 
L 1177.768724 372.059055 
L 1178.76143 371.420779 
L 1179.754136 375.225066 
L 1180.746842 373.460735 
L 1181.739548 372.154854 
L 1182.732254 378.039466 
L 1184.717666 372.339318 
L 1186.703078 375.229954 
L 1187.695784 372.958996 
L 1188.68849 373.188233 
L 1189.681196 372.636952 
L 1190.673901 375.338867 
L 1191.666607 374.451269 
L 1192.659313 373.134159 
L 1193.652019 367.845138 
L 1194.644725 372.19965 
L 1195.637431 373.820967 
L 1196.630137 370.073964 
L 1197.622843 374.717345 
L 1198.615549 371.342415 
L 1199.608255 370.877061 
L 1200.600961 370.837558 
L 1201.593667 375.263582 
L 1202.586373 375.535384 
L 1203.579078 372.311761 
L 1204.571784 373.062284 
L 1205.56449 374.456209 
L 1206.557196 376.647843 
L 1207.549902 377.095364 
L 1208.542608 375.029522 
L 1209.535314 375.165295 
L 1210.52802 370.392331 
L 1211.520726 371.874992 
L 1212.513432 374.011374 
L 1213.506138 373.363525 
L 1214.498844 370.571347 
L 1215.49155 373.788869 
L 1216.484255 374.904925 
L 1217.476961 373.940465 
L 1218.469667 374.583201 
L 1219.462373 374.37152 
L 1220.455079 375.975387 
L 1221.447785 372.826981 
L 1222.440491 373.694429 
L 1223.433197 376.081696 
L 1224.425903 373.847043 
L 1225.418609 370.726698 
L 1226.411315 372.816046 
L 1227.404021 376.641242 
L 1228.396727 372.202818 
L 1229.389432 371.12896 
L 1230.382138 375.444593 
L 1231.374844 374.522112 
L 1232.36755 376.467889 
L 1233.360256 374.576075 
L 1234.352962 373.341545 
L 1235.345668 374.054865 
L 1236.338374 371.786924 
L 1237.33108 374.518276 
L 1238.323786 373.204804 
L 1239.316492 376.843146 
L 1240.309198 372.428483 
L 1241.301904 372.075433 
L 1242.29461 373.315155 
L 1243.287315 370.221903 
L 1244.280021 370.251119 
L 1245.272727 371.019416 
L 1245.272727 371.019416 
" clip-path="url(#pd6afee4284)" style="fill: none; stroke: #1f77b4; stroke-width: 1.5; stroke-linecap: square"/>
   </g>
   <g id="patch_3">
    <path d="M 180 512.64 
L 180 69.12 
" style="fill: none; stroke: #000000; stroke-width: 0.8; stroke-linejoin: miter; stroke-linecap: square"/>
   </g>
   <g id="patch_4">
    <path d="M 1296 512.64 
L 1296 69.12 
" style="fill: none; stroke: #000000; stroke-width: 0.8; stroke-linejoin: miter; stroke-linecap: square"/>
   </g>
   <g id="patch_5">
    <path d="M 180 512.64 
L 1296 512.64 
" style="fill: none; stroke: #000000; stroke-width: 0.8; stroke-linejoin: miter; stroke-linecap: square"/>
   </g>
   <g id="patch_6">
    <path d="M 180 69.12 
L 1296 69.12 
" style="fill: none; stroke: #000000; stroke-width: 0.8; stroke-linejoin: miter; stroke-linecap: square"/>
   </g>
   <g id="text_13">
    <!-- source24-receiver3 -->
    <g transform="translate(544.9 60.80125) scale(0.4 -0.4)">
     <defs>
      <path id="DejaVuSans-73" d="M 2834 3397 
L 2834 2853 
Q 2591 2978 2328 3040 
Q 2066 3103 1784 3103 
Q 1356 3103 1142 2972 
Q 928 2841 928 2578 
Q 928 2378 1081 2264 
Q 1234 2150 1697 2047 
L 1894 2003 
Q 2506 1872 2764 1633 
Q 3022 1394 3022 966 
Q 3022 478 2636 193 
Q 2250 -91 1575 -91 
Q 1294 -91 989 -36 
Q 684 19 347 128 
L 347 722 
Q 666 556 975 473 
Q 1284 391 1588 391 
Q 1994 391 2212 530 
Q 2431 669 2431 922 
Q 2431 1156 2273 1281 
Q 2116 1406 1581 1522 
L 1381 1569 
Q 847 1681 609 1914 
Q 372 2147 372 2553 
Q 372 3047 722 3315 
Q 1072 3584 1716 3584 
Q 2034 3584 2315 3537 
Q 2597 3491 2834 3397 
z
" transform="scale(0.015625)"/>
      <path id="DejaVuSans-6f" d="M 1959 3097 
Q 1497 3097 1228 2736 
Q 959 2375 959 1747 
Q 959 1119 1226 758 
Q 1494 397 1959 397 
Q 2419 397 2687 759 
Q 2956 1122 2956 1747 
Q 2956 2369 2687 2733 
Q 2419 3097 1959 3097 
z
M 1959 3584 
Q 2709 3584 3137 3096 
Q 3566 2609 3566 1747 
Q 3566 888 3137 398 
Q 2709 -91 1959 -91 
Q 1206 -91 779 398 
Q 353 888 353 1747 
Q 353 2609 779 3096 
Q 1206 3584 1959 3584 
z
" transform="scale(0.015625)"/>
      <path id="DejaVuSans-75" d="M 544 1381 
L 544 3500 
L 1119 3500 
L 1119 1403 
Q 1119 906 1312 657 
Q 1506 409 1894 409 
Q 2359 409 2629 706 
Q 2900 1003 2900 1516 
L 2900 3500 
L 3475 3500 
L 3475 0 
L 2900 0 
L 2900 538 
Q 2691 219 2414 64 
Q 2138 -91 1772 -91 
Q 1169 -91 856 284 
Q 544 659 544 1381 
z
M 1991 3584 
L 1991 3584 
z
" transform="scale(0.015625)"/>
      <path id="DejaVuSans-72" d="M 2631 2963 
Q 2534 3019 2420 3045 
Q 2306 3072 2169 3072 
Q 1681 3072 1420 2755 
Q 1159 2438 1159 1844 
L 1159 0 
L 581 0 
L 581 3500 
L 1159 3500 
L 1159 2956 
Q 1341 3275 1631 3429 
Q 1922 3584 2338 3584 
Q 2397 3584 2469 3576 
Q 2541 3569 2628 3553 
L 2631 2963 
z
" transform="scale(0.015625)"/>
      <path id="DejaVuSans-63" d="M 3122 3366 
L 3122 2828 
Q 2878 2963 2633 3030 
Q 2388 3097 2138 3097 
Q 1578 3097 1268 2742 
Q 959 2388 959 1747 
Q 959 1106 1268 751 
Q 1578 397 2138 397 
Q 2388 397 2633 464 
Q 2878 531 3122 666 
L 3122 134 
Q 2881 22 2623 -34 
Q 2366 -91 2075 -91 
Q 1284 -91 818 406 
Q 353 903 353 1747 
Q 353 2603 823 3093 
Q 1294 3584 2113 3584 
Q 2378 3584 2631 3529 
Q 2884 3475 3122 3366 
z
" transform="scale(0.015625)"/>
      <path id="DejaVuSans-65" d="M 3597 1894 
L 3597 1613 
L 953 1613 
Q 991 1019 1311 708 
Q 1631 397 2203 397 
Q 2534 397 2845 478 
Q 3156 559 3463 722 
L 3463 178 
Q 3153 47 2828 -22 
Q 2503 -91 2169 -91 
Q 1331 -91 842 396 
Q 353 884 353 1716 
Q 353 2575 817 3079 
Q 1281 3584 2069 3584 
Q 2775 3584 3186 3129 
Q 3597 2675 3597 1894 
z
M 3022 2063 
Q 3016 2534 2758 2815 
Q 2500 3097 2075 3097 
Q 1594 3097 1305 2825 
Q 1016 2553 972 2059 
L 3022 2063 
z
" transform="scale(0.015625)"/>
      <path id="DejaVuSans-2d" d="M 313 2009 
L 1997 2009 
L 1997 1497 
L 313 1497 
L 313 2009 
z
" transform="scale(0.015625)"/>
      <path id="DejaVuSans-69" d="M 603 3500 
L 1178 3500 
L 1178 0 
L 603 0 
L 603 3500 
z
M 603 4863 
L 1178 4863 
L 1178 4134 
L 603 4134 
L 603 4863 
z
" transform="scale(0.015625)"/>
      <path id="DejaVuSans-76" d="M 191 3500 
L 800 3500 
L 1894 563 
L 2988 3500 
L 3597 3500 
L 2284 0 
L 1503 0 
L 191 3500 
z
" transform="scale(0.015625)"/>
      <path id="DejaVuSans-33" d="M 2597 2516 
Q 3050 2419 3304 2112 
Q 3559 1806 3559 1356 
Q 3559 666 3084 287 
Q 2609 -91 1734 -91 
Q 1441 -91 1130 -33 
Q 819 25 488 141 
L 488 750 
Q 750 597 1062 519 
Q 1375 441 1716 441 
Q 2309 441 2620 675 
Q 2931 909 2931 1356 
Q 2931 1769 2642 2001 
Q 2353 2234 1838 2234 
L 1294 2234 
L 1294 2753 
L 1863 2753 
Q 2328 2753 2575 2939 
Q 2822 3125 2822 3475 
Q 2822 3834 2567 4026 
Q 2313 4219 1838 4219 
Q 1578 4219 1281 4162 
Q 984 4106 628 3988 
L 628 4550 
Q 988 4650 1302 4700 
Q 1616 4750 1894 4750 
Q 2613 4750 3031 4423 
Q 3450 4097 3450 3541 
Q 3450 3153 3228 2886 
Q 3006 2619 2597 2516 
z
" transform="scale(0.015625)"/>
     </defs>
     <use xlink:href="#DejaVuSans-73"/>
     <use xlink:href="#DejaVuSans-6f" x="52.099609"/>
     <use xlink:href="#DejaVuSans-75" x="113.28125"/>
     <use xlink:href="#DejaVuSans-72" x="176.660156"/>
     <use xlink:href="#DejaVuSans-63" x="215.523438"/>
     <use xlink:href="#DejaVuSans-65" x="270.503906"/>
     <use xlink:href="#DejaVuSans-32" x="332.027344"/>
     <use xlink:href="#DejaVuSans-34" x="395.650391"/>
     <use xlink:href="#DejaVuSans-2d" x="459.273438"/>
     <use xlink:href="#DejaVuSans-72" x="495.357422"/>
     <use xlink:href="#DejaVuSans-65" x="534.220703"/>
     <use xlink:href="#DejaVuSans-63" x="595.744141"/>
     <use xlink:href="#DejaVuSans-65" x="650.724609"/>
     <use xlink:href="#DejaVuSans-69" x="712.248047"/>
     <use xlink:href="#DejaVuSans-76" x="740.03125"/>
     <use xlink:href="#DejaVuSans-65" x="799.210938"/>
     <use xlink:href="#DejaVuSans-72" x="860.734375"/>
     <use xlink:href="#DejaVuSans-33" x="901.847656"/>
    </g>
   </g>
  </g>
 </g>
 <defs>
  <clipPath id="pd6afee4284">
   <rect x="180" y="69.12" width="1116" height="443.52"/>
  </clipPath>
 </defs>
</svg>
