<?xml version="1.0" encoding="utf-8" standalone="no"?>
<!DOCTYPE svg PUBLIC "-//W3C//DTD SVG 1.1//EN"
  "http://www.w3.org/Graphics/SVG/1.1/DTD/svg11.dtd">
<svg xmlns:xlink="http://www.w3.org/1999/xlink" width="1440pt" height="576pt" viewBox="0 0 1440 576" xmlns="http://www.w3.org/2000/svg" version="1.1">
 <metadata>
  <rdf:RDF xmlns:dc="http://purl.org/dc/elements/1.1/" xmlns:cc="http://creativecommons.org/ns#" xmlns:rdf="http://www.w3.org/1999/02/22-rdf-syntax-ns#">
   <cc:Work>
    <dc:type rdf:resource="http://purl.org/dc/dcmitype/StillImage"/>
    <dc:date>2024-05-22T04:50:25.767212</dc:date>
    <dc:format>image/svg+xml</dc:format>
    <dc:creator>
     <cc:Agent>
      <dc:title>Matplotlib v3.8.3, https://matplotlib.org/</dc:title>
     </cc:Agent>
    </dc:creator>
   </cc:Work>
  </rdf:RDF>
 </metadata>
 <defs>
  <style type="text/css">*{stroke-linejoin: round; stroke-linecap: butt}</style>
 </defs>
 <g id="figure_1">
  <g id="patch_1">
   <path d="M 0 576 
L 1440 576 
L 1440 0 
L 0 0 
z
" style="fill: #ffffff"/>
  </g>
  <g id="axes_1">
   <g id="patch_2">
    <path d="M 180 512.64 
L 1296 512.64 
L 1296 69.12 
L 180 69.12 
z
" style="fill: #ffffff"/>
   </g>
   <g id="matplotlib.axis_1">
    <g id="xtick_1">
     <g id="line2d_1">
      <defs>
       <path id="m686023c09e" d="M 0 0 
L 0 3.5 
" style="stroke: #000000; stroke-width: 0.8"/>
      </defs>
      <g>
       <use xlink:href="#m686023c09e" x="229.734567" y="512.64" style="stroke: #000000; stroke-width: 0.8"/>
      </g>
     </g>
     <g id="text_1">
      <!-- 0 -->
      <g transform="translate(226.553317 527.238438) scale(0.1 -0.1)">
       <defs>
        <path id="DejaVuSans-30" d="M 2034 4250 
Q 1547 4250 1301 3770 
Q 1056 3291 1056 2328 
Q 1056 1369 1301 889 
Q 1547 409 2034 409 
Q 2525 409 2770 889 
Q 3016 1369 3016 2328 
Q 3016 3291 2770 3770 
Q 2525 4250 2034 4250 
z
M 2034 4750 
Q 2819 4750 3233 4129 
Q 3647 3509 3647 2328 
Q 3647 1150 3233 529 
Q 2819 -91 2034 -91 
Q 1250 -91 836 529 
Q 422 1150 422 2328 
Q 422 3509 836 4129 
Q 1250 4750 2034 4750 
z
" transform="scale(0.015625)"/>
       </defs>
       <use xlink:href="#DejaVuSans-30"/>
      </g>
     </g>
    </g>
    <g id="xtick_2">
     <g id="line2d_2">
      <g>
       <use xlink:href="#m686023c09e" x="433.04074" y="512.64" style="stroke: #000000; stroke-width: 0.8"/>
      </g>
     </g>
     <g id="text_2">
      <!-- 500 -->
      <g transform="translate(423.49699 527.238438) scale(0.1 -0.1)">
       <defs>
        <path id="DejaVuSans-35" d="M 691 4666 
L 3169 4666 
L 3169 4134 
L 1269 4134 
L 1269 2991 
Q 1406 3038 1543 3061 
Q 1681 3084 1819 3084 
Q 2600 3084 3056 2656 
Q 3513 2228 3513 1497 
Q 3513 744 3044 326 
Q 2575 -91 1722 -91 
Q 1428 -91 1123 -41 
Q 819 9 494 109 
L 494 744 
Q 775 591 1075 516 
Q 1375 441 1709 441 
Q 2250 441 2565 725 
Q 2881 1009 2881 1497 
Q 2881 1984 2565 2268 
Q 2250 2553 1709 2553 
Q 1456 2553 1204 2497 
Q 953 2441 691 2322 
L 691 4666 
z
" transform="scale(0.015625)"/>
       </defs>
       <use xlink:href="#DejaVuSans-35"/>
       <use xlink:href="#DejaVuSans-30" x="63.623047"/>
       <use xlink:href="#DejaVuSans-30" x="127.246094"/>
      </g>
     </g>
    </g>
    <g id="xtick_3">
     <g id="line2d_3">
      <g>
       <use xlink:href="#m686023c09e" x="636.346913" y="512.64" style="stroke: #000000; stroke-width: 0.8"/>
      </g>
     </g>
     <g id="text_3">
      <!-- 1000 -->
      <g transform="translate(623.621913 527.238438) scale(0.1 -0.1)">
       <defs>
        <path id="DejaVuSans-31" d="M 794 531 
L 1825 531 
L 1825 4091 
L 703 3866 
L 703 4441 
L 1819 4666 
L 2450 4666 
L 2450 531 
L 3481 531 
L 3481 0 
L 794 0 
L 794 531 
z
" transform="scale(0.015625)"/>
       </defs>
       <use xlink:href="#DejaVuSans-31"/>
       <use xlink:href="#DejaVuSans-30" x="63.623047"/>
       <use xlink:href="#DejaVuSans-30" x="127.246094"/>
       <use xlink:href="#DejaVuSans-30" x="190.869141"/>
      </g>
     </g>
    </g>
    <g id="xtick_4">
     <g id="line2d_4">
      <g>
       <use xlink:href="#m686023c09e" x="839.653087" y="512.64" style="stroke: #000000; stroke-width: 0.8"/>
      </g>
     </g>
     <g id="text_4">
      <!-- 1500 -->
      <g transform="translate(826.928087 527.238438) scale(0.1 -0.1)">
       <use xlink:href="#DejaVuSans-31"/>
       <use xlink:href="#DejaVuSans-35" x="63.623047"/>
       <use xlink:href="#DejaVuSans-30" x="127.246094"/>
       <use xlink:href="#DejaVuSans-30" x="190.869141"/>
      </g>
     </g>
    </g>
    <g id="xtick_5">
     <g id="line2d_5">
      <g>
       <use xlink:href="#m686023c09e" x="1042.95926" y="512.64" style="stroke: #000000; stroke-width: 0.8"/>
      </g>
     </g>
     <g id="text_5">
      <!-- 2000 -->
      <g transform="translate(1030.23426 527.238438) scale(0.1 -0.1)">
       <defs>
        <path id="DejaVuSans-32" d="M 1228 531 
L 3431 531 
L 3431 0 
L 469 0 
L 469 531 
Q 828 903 1448 1529 
Q 2069 2156 2228 2338 
Q 2531 2678 2651 2914 
Q 2772 3150 2772 3378 
Q 2772 3750 2511 3984 
Q 2250 4219 1831 4219 
Q 1534 4219 1204 4116 
Q 875 4013 500 3803 
L 500 4441 
Q 881 4594 1212 4672 
Q 1544 4750 1819 4750 
Q 2544 4750 2975 4387 
Q 3406 4025 3406 3419 
Q 3406 3131 3298 2873 
Q 3191 2616 2906 2266 
Q 2828 2175 2409 1742 
Q 1991 1309 1228 531 
z
" transform="scale(0.015625)"/>
       </defs>
       <use xlink:href="#DejaVuSans-32"/>
       <use xlink:href="#DejaVuSans-30" x="63.623047"/>
       <use xlink:href="#DejaVuSans-30" x="127.246094"/>
       <use xlink:href="#DejaVuSans-30" x="190.869141"/>
      </g>
     </g>
    </g>
    <g id="xtick_6">
     <g id="line2d_6">
      <g>
       <use xlink:href="#m686023c09e" x="1246.265433" y="512.64" style="stroke: #000000; stroke-width: 0.8"/>
      </g>
     </g>
     <g id="text_6">
      <!-- 2500 -->
      <g transform="translate(1233.540433 527.238438) scale(0.1 -0.1)">
       <use xlink:href="#DejaVuSans-32"/>
       <use xlink:href="#DejaVuSans-35" x="63.623047"/>
       <use xlink:href="#DejaVuSans-30" x="127.246094"/>
       <use xlink:href="#DejaVuSans-30" x="190.869141"/>
      </g>
     </g>
    </g>
   </g>
   <g id="matplotlib.axis_2">
    <g id="ytick_1">
     <g id="line2d_7">
      <defs>
       <path id="mb62d1329ea" d="M 0 0 
L -3.5 0 
" style="stroke: #000000; stroke-width: 0.8"/>
      </defs>
      <g>
       <use xlink:href="#mb62d1329ea" x="180" y="445.339919" style="stroke: #000000; stroke-width: 0.8"/>
      </g>
     </g>
     <g id="text_7">
      <!-- −4 -->
      <g transform="translate(158.257812 449.139138) scale(0.1 -0.1)">
       <defs>
        <path id="DejaVuSans-2212" d="M 678 2272 
L 4684 2272 
L 4684 1741 
L 678 1741 
L 678 2272 
z
" transform="scale(0.015625)"/>
        <path id="DejaVuSans-34" d="M 2419 4116 
L 825 1625 
L 2419 1625 
L 2419 4116 
z
M 2253 4666 
L 3047 4666 
L 3047 1625 
L 3713 1625 
L 3713 1100 
L 3047 1100 
L 3047 0 
L 2419 0 
L 2419 1100 
L 313 1100 
L 313 1709 
L 2253 4666 
z
" transform="scale(0.015625)"/>
       </defs>
       <use xlink:href="#DejaVuSans-2212"/>
       <use xlink:href="#DejaVuSans-34" x="83.789062"/>
      </g>
     </g>
    </g>
    <g id="ytick_2">
     <g id="line2d_8">
      <g>
       <use xlink:href="#mb62d1329ea" x="180" y="370.507448" style="stroke: #000000; stroke-width: 0.8"/>
      </g>
     </g>
     <g id="text_8">
      <!-- −2 -->
      <g transform="translate(158.257812 374.306666) scale(0.1 -0.1)">
       <use xlink:href="#DejaVuSans-2212"/>
       <use xlink:href="#DejaVuSans-32" x="83.789062"/>
      </g>
     </g>
    </g>
    <g id="ytick_3">
     <g id="line2d_9">
      <g>
       <use xlink:href="#mb62d1329ea" x="180" y="295.674976" style="stroke: #000000; stroke-width: 0.8"/>
      </g>
     </g>
     <g id="text_9">
      <!-- 0 -->
      <g transform="translate(166.6375 299.474195) scale(0.1 -0.1)">
       <use xlink:href="#DejaVuSans-30"/>
      </g>
     </g>
    </g>
    <g id="ytick_4">
     <g id="line2d_10">
      <g>
       <use xlink:href="#mb62d1329ea" x="180" y="220.842505" style="stroke: #000000; stroke-width: 0.8"/>
      </g>
     </g>
     <g id="text_10">
      <!-- 2 -->
      <g transform="translate(166.6375 224.641723) scale(0.1 -0.1)">
       <use xlink:href="#DejaVuSans-32"/>
      </g>
     </g>
    </g>
    <g id="ytick_5">
     <g id="line2d_11">
      <g>
       <use xlink:href="#mb62d1329ea" x="180" y="146.010033" style="stroke: #000000; stroke-width: 0.8"/>
      </g>
     </g>
     <g id="text_11">
      <!-- 4 -->
      <g transform="translate(166.6375 149.809252) scale(0.1 -0.1)">
       <use xlink:href="#DejaVuSans-34"/>
      </g>
     </g>
    </g>
    <g id="ytick_6">
     <g id="line2d_12">
      <g>
       <use xlink:href="#mb62d1329ea" x="180" y="71.177562" style="stroke: #000000; stroke-width: 0.8"/>
      </g>
     </g>
     <g id="text_12">
      <!-- 6 -->
      <g transform="translate(166.6375 74.97678) scale(0.1 -0.1)">
       <defs>
        <path id="DejaVuSans-36" d="M 2113 2584 
Q 1688 2584 1439 2293 
Q 1191 2003 1191 1497 
Q 1191 994 1439 701 
Q 1688 409 2113 409 
Q 2538 409 2786 701 
Q 3034 994 3034 1497 
Q 3034 2003 2786 2293 
Q 2538 2584 2113 2584 
z
M 3366 4563 
L 3366 3988 
Q 3128 4100 2886 4159 
Q 2644 4219 2406 4219 
Q 1781 4219 1451 3797 
Q 1122 3375 1075 2522 
Q 1259 2794 1537 2939 
Q 1816 3084 2150 3084 
Q 2853 3084 3261 2657 
Q 3669 2231 3669 1497 
Q 3669 778 3244 343 
Q 2819 -91 2113 -91 
Q 1303 -91 875 529 
Q 447 1150 447 2328 
Q 447 3434 972 4092 
Q 1497 4750 2381 4750 
Q 2619 4750 2861 4703 
Q 3103 4656 3366 4563 
z
" transform="scale(0.015625)"/>
       </defs>
       <use xlink:href="#DejaVuSans-36"/>
      </g>
     </g>
    </g>
   </g>
   <g id="line2d_13">
    <path d="M 230.727273 263.221823 
L 231.719979 261.095178 
L 232.712685 237.209093 
L 233.70539 250.521748 
L 235.690802 268.379739 
L 236.683508 272.01841 
L 237.676214 277.273313 
L 238.66892 242.753338 
L 239.661626 248.903255 
L 240.654332 272.605904 
L 241.647038 262.707882 
L 242.639744 257.156523 
L 243.63245 267.855766 
L 244.625156 239.746202 
L 245.617862 236.957933 
L 246.610568 279.246876 
L 247.603273 301.566195 
L 248.595979 239.32281 
L 249.588685 206.017578 
L 250.581391 188.240286 
L 251.574097 186.887901 
L 252.566803 191.16857 
L 253.559509 186.698475 
L 254.552215 175.462638 
L 255.544921 174.416768 
L 256.537627 193.42943 
L 257.530333 193.203986 
L 258.523039 178.759 
L 259.515745 198.341129 
L 260.50845 171.074319 
L 262.493862 154.404235 
L 263.486568 130.161684 
L 264.479274 142.503828 
L 265.47198 182.799568 
L 266.464686 125.415009 
L 267.457392 101.342493 
L 268.450098 89.28 
L 269.442804 91.887605 
L 270.43551 105.77039 
L 271.428216 123.00943 
L 272.420922 133.646427 
L 273.413627 130.649199 
L 274.406333 122.043033 
L 275.399039 116.82445 
L 276.391745 129.502051 
L 277.384451 191.092588 
L 278.377157 130.721272 
L 279.369863 107.919612 
L 280.362569 110.104416 
L 281.355275 131.160267 
L 282.347981 107.16939 
L 283.340687 111.097198 
L 284.333393 143.586679 
L 285.326099 116.578965 
L 286.318804 113.706873 
L 287.31151 123.472451 
L 288.304216 169.342204 
L 289.296922 140.941727 
L 290.289628 169.878708 
L 291.282334 181.324563 
L 292.27504 154.349305 
L 293.267746 134.281717 
L 294.260452 148.836966 
L 295.253158 140.90155 
L 296.245864 130.238594 
L 297.23857 126.46031 
L 299.223981 153.839495 
L 300.216687 173.783967 
L 301.209393 171.741808 
L 302.202099 184.691661 
L 303.194805 180.68393 
L 304.187511 198.71101 
L 305.180217 197.43152 
L 306.172923 230.550923 
L 307.165629 226.110075 
L 308.158335 253.026662 
L 309.151041 261.11286 
L 310.143747 213.790447 
L 311.136453 218.040491 
L 312.129159 203.479232 
L 313.121864 211.946379 
L 314.11457 202.007415 
L 315.107276 212.659523 
L 316.099982 209.872726 
L 317.092688 228.630368 
L 318.085394 217.076248 
L 319.0781 224.906297 
L 320.070806 207.3986 
L 321.063512 215.044729 
L 322.056218 214.151926 
L 323.048924 232.162187 
L 324.04163 247.029176 
L 325.034336 265.636484 
L 326.027041 225.139662 
L 327.019747 232.857111 
L 328.012453 228.054359 
L 329.005159 247.838096 
L 329.997865 275.373443 
L 330.990571 293.163727 
L 331.983277 231.45389 
L 332.975983 240.111309 
L 333.968689 232.662466 
L 334.961395 243.504316 
L 335.954101 284.725308 
L 336.946807 267.441205 
L 337.939513 278.735388 
L 338.932218 310.773772 
L 339.924924 285.808112 
L 340.91763 295.645234 
L 341.910336 277.855442 
L 342.903042 262.159991 
L 343.895748 249.599482 
L 344.888454 216.468553 
L 345.88116 213.398582 
L 346.873866 206.763976 
L 347.866572 206.823797 
L 348.859278 218.290823 
L 349.851984 210.851005 
L 350.84469 199.540219 
L 351.837395 194.965789 
L 352.830101 187.678521 
L 353.822807 190.987189 
L 354.815513 200.114136 
L 355.808219 206.971942 
L 356.800925 215.591965 
L 357.793631 208.617454 
L 358.786337 195.607066 
L 359.779043 196.333091 
L 360.771749 194.586192 
L 361.764455 200.093449 
L 363.749867 212.654489 
L 364.742572 235.518261 
L 365.735278 240.571585 
L 366.727984 217.330834 
L 368.713396 188.623318 
L 369.706102 188.423681 
L 370.698808 192.208723 
L 371.691514 205.332157 
L 372.68422 247.288858 
L 373.676926 239.403788 
L 374.669632 206.326208 
L 375.662338 201.470914 
L 376.655044 198.606588 
L 378.640455 217.830414 
L 379.633161 223.619175 
L 380.625867 217.337954 
L 381.618573 219.536336 
L 382.611279 233.197767 
L 383.603985 275.828414 
L 384.596691 238.914787 
L 385.589397 220.251207 
L 386.582103 204.127395 
L 387.574809 205.199712 
L 388.567515 207.924751 
L 390.552927 229.790542 
L 391.545632 235.100975 
L 392.538338 228.146538 
L 393.531044 232.559686 
L 394.52375 230.299493 
L 395.516456 234.3106 
L 396.509162 225.354694 
L 397.501868 226.511561 
L 398.494574 225.923743 
L 400.479986 244.422163 
L 401.472692 255.68739 
L 402.465398 243.664158 
L 403.458104 245.956956 
L 404.450809 234.565358 
L 405.443515 237.035068 
L 406.436221 226.614427 
L 407.428927 228.070846 
L 408.421633 226.465157 
L 409.414339 234.510799 
L 410.407045 250.123436 
L 411.399751 274.175883 
L 412.392457 272.642188 
L 413.385163 266.828301 
L 414.377869 244.49706 
L 415.370575 249.434192 
L 416.363281 247.714812 
L 418.348692 276.836942 
L 419.341398 304.176486 
L 420.334104 258.674427 
L 421.32681 260.887381 
L 422.319516 247.093786 
L 423.312222 258.976154 
L 424.304928 276.910221 
L 425.297634 314.215475 
L 426.29034 270.473576 
L 427.283046 266.814127 
L 428.275752 247.359349 
L 429.268458 256.416321 
L 430.261163 266.679861 
L 431.253869 272.486005 
L 432.246575 291.72836 
L 433.239281 281.284581 
L 434.231987 266.605246 
L 435.224693 292.794081 
L 436.217399 270.391846 
L 437.210105 285.273416 
L 438.202811 261.407939 
L 439.195517 277.82602 
L 440.188223 279.49906 
L 441.180929 286.736361 
L 442.173635 287.99758 
L 443.166341 272.436838 
L 444.159046 254.705626 
L 445.151752 268.280255 
L 446.144458 267.020643 
L 447.137164 271.253559 
L 448.12987 294.368767 
L 449.122576 274.459129 
L 450.115282 271.21548 
L 451.107988 306.293364 
L 452.100694 300.384454 
L 453.0934 307.239266 
L 454.086106 276.756994 
L 455.078812 277.25298 
L 456.071518 261.416676 
L 457.064223 281.252966 
L 458.056929 283.067699 
L 459.049635 307.272873 
L 460.042341 309.385735 
L 461.035047 313.718778 
L 462.027753 282.565336 
L 463.020459 273.53523 
L 464.013165 287.630741 
L 465.005871 268.091529 
L 465.998577 268.829726 
L 466.991283 274.619642 
L 467.983989 263.062355 
L 468.976695 278.930827 
L 469.9694 278.398895 
L 470.962106 288.53639 
L 471.954812 369.716738 
L 472.947518 344.261871 
L 473.940224 287.989053 
L 474.93293 296.716188 
L 475.925636 272.030483 
L 476.918342 271.872901 
L 477.911048 275.795082 
L 478.903754 270.391128 
L 479.89646 306.545707 
L 480.889166 300.322908 
L 481.881872 300.960752 
L 482.874577 331.44676 
L 483.867283 303.002961 
L 484.859989 325.652776 
L 485.852695 299.154137 
L 486.845401 296.016925 
L 487.838107 263.405263 
L 488.830813 264.329137 
L 489.823519 261.399841 
L 490.816225 263.119052 
L 491.808931 288.93002 
L 492.801637 290.84372 
L 493.794343 322.102997 
L 494.787049 346.820259 
L 495.779754 285.210052 
L 496.77246 293.046815 
L 497.765166 276.731322 
L 498.757872 279.777269 
L 499.750578 292.57042 
L 500.743284 297.833711 
L 501.73599 305.219647 
L 502.728696 293.255316 
L 503.721402 261.423226 
L 504.714108 262.708746 
L 505.706814 262.380859 
L 506.69952 269.782037 
L 507.692226 322.004745 
L 508.684932 310.991741 
L 509.677637 269.29794 
L 510.670343 269.158711 
L 511.663049 261.882086 
L 512.655755 267.89115 
L 513.648461 301.107444 
L 514.641167 292.648349 
L 515.633873 275.762282 
L 516.626579 276.734193 
L 517.619285 261.701123 
L 518.611991 268.701635 
L 519.604697 271.455181 
L 520.597403 275.25502 
L 521.590109 300.9898 
L 522.582814 291.519334 
L 523.57552 290.081315 
L 524.568226 279.596444 
L 525.560932 258.101273 
L 526.553638 259.213204 
L 527.546344 252.591472 
L 528.53905 253.88978 
L 529.531756 265.568356 
L 530.524462 261.537683 
L 531.517168 268.143446 
L 532.509874 271.612821 
L 533.50258 261.626034 
L 534.495286 274.453441 
L 535.487991 277.411129 
L 536.480697 282.835668 
L 537.473403 322.005775 
L 538.466109 310.76015 
L 539.458815 306.829122 
L 540.451521 368.267297 
L 541.444227 317.862387 
L 542.436933 351.991997 
L 543.429639 297.414936 
L 544.422345 314.842353 
L 545.415051 297.169878 
L 546.407757 283.158065 
L 547.400463 292.393499 
L 548.393168 275.021073 
L 549.385874 277.786606 
L 550.37858 288.300498 
L 551.371286 288.155843 
L 552.363992 355.951361 
L 553.356698 367.554284 
L 554.349404 309.993645 
L 555.34211 308.2185 
L 556.334816 323.058498 
L 557.327522 318.934161 
L 558.320228 321.908723 
L 559.312934 327.740157 
L 560.30564 298.438309 
L 561.298345 304.164504 
L 562.291051 318.590859 
L 563.283757 321.686629 
L 564.276463 305.118469 
L 565.269169 305.193315 
L 566.261875 292.616574 
L 567.254581 292.384684 
L 568.247287 309.434422 
L 569.239993 305.423629 
L 570.232699 326.456416 
L 571.225405 313.157541 
L 572.218111 343.281551 
L 573.210817 328.809245 
L 574.203523 322.117046 
L 575.196228 345.93207 
L 576.188934 294.640737 
L 577.18164 300.756271 
L 578.174346 297.402928 
L 579.167052 295.8679 
L 580.159758 340.393525 
L 581.152464 319.789054 
L 582.14517 337.023471 
L 583.137876 384.565977 
L 584.130582 315.275062 
L 585.123288 332.403292 
L 586.115994 323.092051 
L 587.1087 319.109132 
L 588.101405 401.228566 
L 589.094111 322.38048 
L 590.086817 319.618861 
L 591.079523 329.774537 
L 592.072229 294.43756 
L 593.064935 321.927141 
L 594.057641 306.067639 
L 595.050347 311.995394 
L 596.043053 365.475817 
L 597.035759 309.065165 
L 598.028465 307.691025 
L 599.021171 313.736985 
L 600.013877 296.355061 
L 601.006582 334.178349 
L 601.999288 309.002794 
L 602.991994 492.48 
L 603.9847 318.649782 
L 604.977406 358.271577 
L 605.970112 313.032762 
L 606.962818 354.534265 
L 607.955524 309.917434 
L 608.94823 355.143903 
L 609.940936 311.733034 
L 610.933642 393.995456 
L 611.926348 327.450608 
L 612.919054 329.724243 
L 613.911759 307.78648 
L 614.904465 303.830708 
L 615.897171 285.630595 
L 616.889877 304.672682 
L 617.882583 294.895336 
L 618.875289 329.82539 
L 619.867995 377.346271 
L 620.860701 307.392083 
L 621.853407 290.378838 
L 622.846113 301.970779 
L 623.838819 289.130426 
L 625.824231 343.666658 
L 626.816936 301.707836 
L 627.809642 298.371734 
L 628.802348 299.498328 
L 629.795054 289.839233 
L 630.78776 327.046666 
L 631.780466 312.917924 
L 632.773172 383.71183 
L 633.765878 317.316377 
L 634.758584 358.033195 
L 635.75129 316.627733 
L 636.743996 371.121291 
L 637.736702 341.980417 
L 638.729408 333.74569 
L 639.722114 317.441758 
L 640.714819 343.725701 
L 641.707525 321.452073 
L 642.700231 356.532053 
L 643.692937 329.193475 
L 644.685643 340.380468 
L 645.678349 321.797687 
L 646.671055 349.23011 
L 647.663761 324.746562 
L 648.656467 344.100538 
L 649.649173 320.77021 
L 650.641879 343.772722 
L 651.634585 315.817135 
L 652.627291 386.800393 
L 653.619996 329.907806 
L 654.612702 346.773009 
L 655.605408 354.877359 
L 656.598114 319.115273 
L 657.59082 310.195484 
L 658.583526 322.003319 
L 659.576232 303.746563 
L 660.568938 349.56749 
L 661.561644 342.37359 
L 662.55435 317.939488 
L 663.547056 317.930356 
L 664.539762 309.550412 
L 665.532468 295.862612 
L 666.525173 325.160274 
L 667.517879 313.715485 
L 668.510585 327.603898 
L 669.503291 347.209995 
L 670.495997 320.454758 
L 671.488703 302.194412 
L 672.481409 329.830175 
L 673.474115 310.289303 
L 675.459527 363.050096 
L 676.452233 354.860274 
L 677.444939 328.707576 
L 678.437645 401.076472 
L 679.43035 340.26545 
L 680.423056 360.2988 
L 681.415762 321.251735 
L 682.408468 359.924027 
L 683.401174 313.5647 
L 684.39388 346.044289 
L 685.386586 339.489341 
L 686.379292 378.059507 
L 687.371998 321.696584 
L 688.364704 344.390365 
L 689.35741 319.533808 
L 690.350116 322.000284 
L 691.342822 391.187713 
L 692.335527 343.963905 
L 693.328233 330.144881 
L 694.320939 351.965176 
L 695.313645 334.385193 
L 696.306351 321.035551 
L 697.299057 364.412599 
L 698.291763 339.121137 
L 699.284469 317.238972 
L 700.277175 346.405104 
L 701.269881 322.193486 
L 702.262587 322.49321 
L 703.255293 388.896473 
L 704.247999 343.235238 
L 705.240705 345.226026 
L 706.23341 332.857793 
L 707.226116 349.555783 
L 708.218822 314.130617 
L 709.211528 352.932738 
L 710.204234 327.063619 
L 711.19694 346.243712 
L 712.189646 347.805881 
L 713.182352 376.894924 
L 714.175058 333.645531 
L 715.167764 346.402321 
L 716.16047 355.437375 
L 717.153176 345.650428 
L 718.145882 344.148983 
L 719.138587 431.107057 
L 720.131293 326.671316 
L 721.123999 356.024781 
L 722.116705 336.728634 
L 723.109411 359.832888 
L 724.102117 333.576787 
L 725.094823 360.717971 
L 726.087529 322.474764 
L 727.080235 332.427443 
L 728.072941 332.35682 
L 729.065647 335.325761 
L 730.058353 340.035897 
L 731.051059 337.300737 
L 732.043764 331.329565 
L 733.03647 320.56338 
L 734.029176 362.316994 
L 735.021882 329.22981 
L 736.014588 340.271584 
L 737.007294 382.679149 
L 738 314.079663 
L 738.992706 317.912081 
L 739.985412 324.061918 
L 740.978118 314.602106 
L 741.970824 386.285181 
L 742.96353 363.450606 
L 743.956236 324.277416 
L 744.948941 330.762772 
L 745.941647 323.047659 
L 746.934353 314.020253 
L 747.927059 360.467962 
L 748.919765 327.947002 
L 749.912471 375.297763 
L 750.905177 349.867594 
L 751.897883 365.513523 
L 752.890589 348.832453 
L 753.883295 357.84533 
L 754.876001 358.176808 
L 755.868707 355.381042 
L 756.861413 348.573306 
L 757.854118 360.858399 
L 758.846824 366.275893 
L 759.83953 342.429459 
L 760.832236 348.394343 
L 761.824942 362.247596 
L 762.817648 333.013947 
L 763.810354 366.618766 
L 764.80306 356.459432 
L 765.795766 338.52709 
L 766.788472 361.767237 
L 767.781178 374.832766 
L 768.773884 335.415128 
L 769.76659 338.052343 
L 770.759295 348.401678 
L 771.752001 318.88635 
L 772.744707 364.124971 
L 773.737413 334.962599 
L 774.730119 350.099967 
L 775.722825 357.782644 
L 776.715531 374.0646 
L 777.708237 333.057841 
L 778.700943 392.144569 
L 779.693649 344.190746 
L 780.686355 361.738111 
L 781.679061 350.364297 
L 782.671767 373.872395 
L 783.664473 336.560913 
L 784.657178 404.363242 
L 785.649884 335.562069 
L 786.64259 414.46065 
L 787.635296 329.564528 
L 788.628002 402.453735 
L 789.620708 328.610479 
L 790.613414 373.818718 
L 791.60612 338.709081 
L 792.598826 367.910403 
L 793.591532 347.867719 
L 794.584238 381.788416 
L 795.576944 339.424667 
L 796.56965 414.941215 
L 797.562355 337.968239 
L 798.555061 381.496406 
L 799.547767 346.641135 
L 800.540473 382.50232 
L 801.533179 336.296143 
L 802.525885 461.704641 
L 803.518591 332.311732 
L 804.511297 385.256263 
L 805.504003 342.214212 
L 806.496709 389.900962 
L 807.489415 337.966908 
L 808.482121 397.89376 
L 809.474827 341.017722 
L 810.467532 365.890882 
L 811.460238 354.538272 
L 812.452944 374.189982 
L 813.44565 334.103064 
L 814.438356 432.596309 
L 815.431062 336.849594 
L 816.423768 369.666032 
L 817.416474 352.790986 
L 818.40918 372.330633 
L 819.401886 330.183127 
L 820.394592 395.91819 
L 821.387298 332.60276 
L 822.380004 367.898986 
L 823.372709 355.115491 
L 824.365415 368.97645 
L 825.358121 328.430258 
L 826.350827 376.63458 
L 827.343533 326.608388 
L 828.336239 358.564165 
L 829.328945 360.064855 
L 830.321651 358.643842 
L 831.314357 334.714157 
L 832.307063 372.297185 
L 833.299769 323.093151 
L 834.292475 365.446689 
L 835.285181 342.053533 
L 836.277886 368.641543 
L 837.270592 342.339609 
L 838.263298 386.975315 
L 839.256004 324.726866 
L 840.24871 370.096326 
L 841.241416 329.914565 
L 842.234122 369.468766 
L 843.226828 339.208174 
L 844.219534 377.652654 
L 845.21224 342.110918 
L 846.204946 378.641443 
L 847.197652 344.269747 
L 848.190358 425.878754 
L 849.183064 333.605507 
L 850.175769 379.562209 
L 851.168475 338.117312 
L 852.161181 372.134246 
L 853.153887 343.952993 
L 854.146593 423.531644 
L 855.139299 330.402652 
L 856.132005 357.411223 
L 857.124711 339.094155 
L 858.117417 352.048569 
L 859.110123 355.786078 
L 860.102829 379.187979 
L 861.095535 341.703784 
L 862.088241 355.96285 
L 863.080946 361.559972 
L 864.073652 353.017376 
L 865.066358 353.529799 
L 866.059064 410.555046 
L 867.05177 337.953712 
L 868.044476 366.089997 
L 869.037182 352.240364 
L 870.029888 366.508102 
L 871.022594 347.080003 
L 872.0153 360.090922 
L 873.008006 353.636189 
L 874.000712 337.555049 
L 874.993418 396.740984 
L 875.986123 351.074163 
L 876.978829 340.780265 
L 877.971535 385.93234 
L 878.964241 355.516814 
L 879.956947 337.692442 
L 880.949653 365.498655 
L 881.942359 345.333733 
L 882.935065 328.601374 
L 883.927771 379.820293 
L 884.920477 339.527309 
L 885.913183 338.440254 
L 886.905889 412.024039 
L 887.898595 345.260204 
L 888.8913 344.907897 
L 889.884006 386.480207 
L 890.876712 369.690195 
L 891.869418 340.103041 
L 892.862124 351.798666 
L 893.85483 341.783788 
L 894.847536 327.80978 
L 895.840242 397.322131 
L 896.832948 341.934813 
L 898.81836 371.226161 
L 899.811066 352.805617 
L 900.803772 336.523903 
L 901.796477 418.072846 
L 902.789183 342.855324 
L 903.781889 359.073163 
L 904.774595 388.828765 
L 905.767301 343.972665 
L 906.760007 344.416365 
L 907.752713 354.703153 
L 908.745419 334.377548 
L 909.738125 387.551042 
L 910.730831 337.926264 
L 911.723537 413.379141 
L 912.716243 339.481868 
L 913.708949 410.835606 
L 914.701655 349.339458 
L 915.69436 368.648671 
L 916.687066 358.275154 
L 917.679772 369.218329 
L 918.672478 341.171138 
L 919.665184 427.601752 
L 920.65789 349.254641 
L 921.650596 363.563966 
L 922.643302 362.584923 
L 923.636008 356.76319 
L 924.628714 335.509793 
L 925.62142 389.725007 
L 926.614126 335.702053 
L 927.606832 397.883092 
L 928.599537 349.446825 
L 929.592243 386.037381 
L 930.584949 349.104558 
L 931.577655 377.148895 
L 932.570361 362.095415 
L 933.563067 361.278565 
L 934.555773 353.292001 
L 935.548479 380.096152 
L 936.541185 341.651384 
L 937.533891 393.781828 
L 938.526597 357.513425 
L 939.519303 362.549902 
L 940.512009 357.263883 
L 941.504714 374.824489 
L 942.49742 344.140799 
L 943.490126 407.184809 
L 944.482832 347.877421 
L 945.475538 383.407161 
L 946.468244 354.709366 
L 947.46095 364.933429 
L 948.453656 371.730559 
L 949.446362 357.737172 
L 950.439068 349.258062 
L 951.431774 394.758227 
L 952.42448 341.405613 
L 953.417186 367.902035 
L 954.409891 374.821472 
L 955.402597 347.318947 
L 956.395303 357.460512 
L 957.388009 371.122653 
L 958.380715 342.158491 
L 959.373421 378.838209 
L 960.366127 372.115228 
L 961.358833 351.598042 
L 962.351539 351.837095 
L 963.344245 380.083345 
L 964.336951 338.700283 
L 965.329657 371.36673 
L 966.322363 366.159137 
L 967.315068 346.580973 
L 968.307774 371.011149 
L 969.30048 362.818697 
L 970.293186 348.619345 
L 971.285892 381.529116 
L 972.278598 368.091561 
L 973.271304 348.216425 
L 974.26401 379.415373 
L 975.256716 347.542882 
L 976.249422 344.348991 
L 977.242128 379.210435 
L 978.234834 340.564764 
L 979.22754 383.429416 
L 980.220246 362.662487 
L 981.212951 351.866578 
L 982.205657 380.337054 
L 983.198363 359.144339 
L 984.191069 356.804069 
L 985.183775 369.810726 
L 986.176481 379.501059 
L 987.169187 345.698665 
L 988.161893 373.03527 
L 989.154599 346.867088 
L 990.147305 348.382131 
L 991.140011 369.133942 
L 992.132717 350.636881 
L 993.125423 375.798742 
L 994.118128 351.922611 
L 995.110834 385.252504 
L 996.10354 359.130343 
L 997.096246 359.516769 
L 998.088952 383.51692 
L 999.081658 353.236184 
L 1000.074364 358.205017 
L 1001.06707 371.311342 
L 1002.059776 373.502383 
L 1003.052482 345.477411 
L 1004.045188 365.855788 
L 1005.037894 338.574247 
L 1006.0306 334.455365 
L 1007.023305 368.76303 
L 1008.016011 338.553171 
L 1009.008717 377.370764 
L 1010.001423 376.719751 
L 1010.994129 353.952504 
L 1011.986835 352.937945 
L 1012.979541 380.206112 
L 1013.972247 351.749249 
L 1014.964953 365.891803 
L 1015.957659 383.73448 
L 1016.950365 350.430747 
L 1017.943071 357.335115 
L 1018.935777 361.817342 
L 1019.928482 354.216618 
L 1020.921188 363.722988 
L 1021.913894 352.923259 
L 1022.9066 363.890479 
L 1023.899306 340.1574 
L 1024.892012 432.560712 
L 1025.884718 347.355465 
L 1026.877424 366.322842 
L 1027.87013 381.401013 
L 1028.862836 354.374802 
L 1029.855542 355.537405 
L 1030.848248 376.585458 
L 1031.840954 351.091354 
L 1032.833659 376.476608 
L 1033.826365 369.810148 
L 1034.819071 357.828774 
L 1035.811777 363.343283 
L 1036.804483 362.067208 
L 1037.797189 351.866902 
L 1038.789895 377.100045 
L 1039.782601 347.677527 
L 1040.775307 404.348771 
L 1041.768013 352.297097 
L 1042.760719 368.93026 
L 1043.753425 378.622916 
L 1044.746131 355.263531 
L 1045.738837 358.966037 
L 1046.731542 377.235683 
L 1047.724248 351.257413 
L 1048.716954 372.459071 
L 1049.70966 379.110142 
L 1050.702366 352.985182 
L 1051.695072 360.338602 
L 1052.687778 372.505268 
L 1053.680484 352.943761 
L 1054.67319 371.267856 
L 1055.665896 376.603848 
L 1056.658602 355.936335 
L 1057.651308 348.066119 
L 1058.644014 400.748391 
L 1059.636719 344.364111 
L 1060.629425 362.188397 
L 1061.622131 392.683701 
L 1062.614837 345.846848 
L 1064.600249 370.557158 
L 1065.592955 346.59645 
L 1066.585661 379.684199 
L 1067.578367 373.947439 
L 1068.571073 353.481402 
L 1069.563779 371.093527 
L 1070.556485 361.337918 
L 1071.549191 356.041477 
L 1072.541896 374.512705 
L 1073.534602 351.640151 
L 1074.527308 399.816932 
L 1075.520014 348.068238 
L 1076.51272 372.672255 
L 1077.505426 369.727136 
L 1078.498132 347.814117 
L 1079.490838 380.388644 
L 1080.483544 358.025173 
L 1081.47625 347.529011 
L 1082.468956 409.442192 
L 1083.461662 356.941895 
L 1084.454368 352.119282 
L 1085.447073 410.680747 
L 1086.439779 349.791046 
L 1087.432485 352.386156 
L 1088.425191 390.219505 
L 1089.417897 346.891304 
L 1090.410603 374.249985 
L 1091.403309 367.157852 
L 1092.396015 355.114831 
L 1093.388721 383.862333 
L 1094.381427 360.297465 
L 1095.374133 374.418422 
L 1096.366839 360.357772 
L 1097.359545 381.851088 
L 1098.35225 357.445667 
L 1099.344956 373.719254 
L 1100.337662 364.464998 
L 1101.330368 370.720829 
L 1102.323074 361.993865 
L 1103.31578 377.305713 
L 1104.308486 361.408268 
L 1105.301192 370.951261 
L 1106.293898 365.453095 
L 1107.286604 374.802434 
L 1108.27931 357.387542 
L 1109.272016 386.490194 
L 1110.264722 356.054015 
L 1111.257428 384.879662 
L 1112.250133 353.159462 
L 1113.242839 394.614752 
L 1114.235545 349.019995 
L 1115.228251 365.132649 
L 1116.220957 365.719696 
L 1117.213663 360.656974 
L 1118.206369 364.914853 
L 1119.199075 392.263392 
L 1120.191781 349.275186 
L 1121.184487 368.70895 
L 1122.177193 363.773718 
L 1123.169899 360.348456 
L 1124.162605 365.569288 
L 1125.15531 390.635556 
L 1126.148016 350.360228 
L 1127.140722 366.078768 
L 1129.126134 361.480136 
L 1130.11884 364.070863 
L 1131.111546 377.073826 
L 1132.104252 355.746544 
L 1133.096958 355.299425 
L 1134.089664 380.606689 
L 1135.08237 357.343343 
L 1137.067782 377.298515 
L 1138.060487 359.965539 
L 1139.053193 356.289855 
L 1140.045899 385.440003 
L 1141.038605 358.529521 
L 1142.031311 367.611923 
L 1143.024017 375.25183 
L 1144.016723 363.488953 
L 1145.009429 358.982564 
L 1146.002135 382.822425 
L 1146.994841 359.848448 
L 1147.987547 370.303727 
L 1148.980253 369.607575 
L 1149.972959 369.131393 
L 1150.965664 359.625808 
L 1151.95837 383.708927 
L 1152.951076 356.673786 
L 1153.943782 378.183815 
L 1154.936488 363.617467 
L 1155.929194 365.975732 
L 1156.9219 371.570818 
L 1157.914606 366.324289 
L 1158.907312 369.028601 
L 1159.900018 365.636847 
L 1160.892724 375.372347 
L 1161.88543 358.310041 
L 1162.878136 378.573205 
L 1163.870841 366.83249 
L 1164.863547 363.147817 
L 1166.848959 374.758608 
L 1167.841665 354.284626 
L 1168.834371 379.42035 
L 1169.827077 374.308655 
L 1170.819783 353.650061 
L 1171.812489 361.013945 
L 1172.805195 363.763817 
L 1173.797901 336.633018 
L 1174.790607 399.825502 
L 1175.783313 345.590564 
L 1176.776019 360.561439 
L 1177.768724 379.153804 
L 1178.76143 371.363896 
L 1179.754136 347.082844 
L 1180.746842 413.36757 
L 1181.739548 349.975591 
L 1182.732254 360.676535 
L 1183.72496 381.987028 
L 1184.717666 363.752528 
L 1185.710372 356.370504 
L 1186.703078 398.338288 
L 1187.695784 350.284196 
L 1188.68849 398.688008 
L 1189.681196 351.757094 
L 1190.673901 399.674512 
L 1191.666607 349.265065 
L 1192.659313 380.614168 
L 1193.652019 353.597802 
L 1194.644725 367.778097 
L 1195.637431 361.329003 
L 1196.630137 361.162832 
L 1197.622843 375.007837 
L 1198.615549 358.99305 
L 1199.608255 373.10153 
L 1200.600961 375.328329 
L 1201.593667 356.191972 
L 1202.586373 382.282904 
L 1203.579078 362.029108 
L 1204.571784 365.710193 
L 1205.56449 368.2174 
L 1206.557196 382.217208 
L 1207.549902 351.32155 
L 1208.542608 380.315957 
L 1209.535314 354.502344 
L 1210.52802 351.713205 
L 1211.520726 389.257674 
L 1212.513432 349.225075 
L 1213.506138 386.874323 
L 1214.498844 360.81565 
L 1215.49155 364.699881 
L 1216.484255 374.41927 
L 1217.476961 361.617081 
L 1218.469667 374.998152 
L 1219.462373 366.368088 
L 1220.455079 367.328345 
L 1221.447785 369.8885 
L 1222.440491 370.705485 
L 1223.433197 356.629363 
L 1224.425903 395.207437 
L 1225.418609 355.839145 
L 1226.411315 361.771812 
L 1227.404021 392.526913 
L 1228.396727 350.277291 
L 1229.389432 364.876578 
L 1230.382138 369.499294 
L 1231.374844 349.24841 
L 1232.36755 391.071408 
L 1233.360256 367.564001 
L 1235.345668 357.608703 
L 1236.338374 386.285102 
L 1237.33108 344.18822 
L 1238.323786 384.827143 
L 1239.316492 367.739834 
L 1240.309198 358.548052 
L 1241.301904 358.603311 
L 1242.29461 388.805406 
L 1243.287315 341.081867 
L 1244.280021 374.663361 
L 1245.272727 365.513692 
L 1245.272727 365.513692 
" clip-path="url(#p5336830501)" style="fill: none; stroke: #1f77b4; stroke-width: 1.5; stroke-linecap: square"/>
   </g>
   <g id="patch_3">
    <path d="M 180 512.64 
L 180 69.12 
" style="fill: none; stroke: #000000; stroke-width: 0.8; stroke-linejoin: miter; stroke-linecap: square"/>
   </g>
   <g id="patch_4">
    <path d="M 1296 512.64 
L 1296 69.12 
" style="fill: none; stroke: #000000; stroke-width: 0.8; stroke-linejoin: miter; stroke-linecap: square"/>
   </g>
   <g id="patch_5">
    <path d="M 180 512.64 
L 1296 512.64 
" style="fill: none; stroke: #000000; stroke-width: 0.8; stroke-linejoin: miter; stroke-linecap: square"/>
   </g>
   <g id="patch_6">
    <path d="M 180 69.12 
L 1296 69.12 
" style="fill: none; stroke: #000000; stroke-width: 0.8; stroke-linejoin: miter; stroke-linecap: square"/>
   </g>
   <g id="text_13">
    <!-- source24-receiver7 -->
    <g transform="translate(544.9 60.80125) scale(0.4 -0.4)">
     <defs>
      <path id="DejaVuSans-73" d="M 2834 3397 
L 2834 2853 
Q 2591 2978 2328 3040 
Q 2066 3103 1784 3103 
Q 1356 3103 1142 2972 
Q 928 2841 928 2578 
Q 928 2378 1081 2264 
Q 1234 2150 1697 2047 
L 1894 2003 
Q 2506 1872 2764 1633 
Q 3022 1394 3022 966 
Q 3022 478 2636 193 
Q 2250 -91 1575 -91 
Q 1294 -91 989 -36 
Q 684 19 347 128 
L 347 722 
Q 666 556 975 473 
Q 1284 391 1588 391 
Q 1994 391 2212 530 
Q 2431 669 2431 922 
Q 2431 1156 2273 1281 
Q 2116 1406 1581 1522 
L 1381 1569 
Q 847 1681 609 1914 
Q 372 2147 372 2553 
Q 372 3047 722 3315 
Q 1072 3584 1716 3584 
Q 2034 3584 2315 3537 
Q 2597 3491 2834 3397 
z
" transform="scale(0.015625)"/>
      <path id="DejaVuSans-6f" d="M 1959 3097 
Q 1497 3097 1228 2736 
Q 959 2375 959 1747 
Q 959 1119 1226 758 
Q 1494 397 1959 397 
Q 2419 397 2687 759 
Q 2956 1122 2956 1747 
Q 2956 2369 2687 2733 
Q 2419 3097 1959 3097 
z
M 1959 3584 
Q 2709 3584 3137 3096 
Q 3566 2609 3566 1747 
Q 3566 888 3137 398 
Q 2709 -91 1959 -91 
Q 1206 -91 779 398 
Q 353 888 353 1747 
Q 353 2609 779 3096 
Q 1206 3584 1959 3584 
z
" transform="scale(0.015625)"/>
      <path id="DejaVuSans-75" d="M 544 1381 
L 544 3500 
L 1119 3500 
L 1119 1403 
Q 1119 906 1312 657 
Q 1506 409 1894 409 
Q 2359 409 2629 706 
Q 2900 1003 2900 1516 
L 2900 3500 
L 3475 3500 
L 3475 0 
L 2900 0 
L 2900 538 
Q 2691 219 2414 64 
Q 2138 -91 1772 -91 
Q 1169 -91 856 284 
Q 544 659 544 1381 
z
M 1991 3584 
L 1991 3584 
z
" transform="scale(0.015625)"/>
      <path id="DejaVuSans-72" d="M 2631 2963 
Q 2534 3019 2420 3045 
Q 2306 3072 2169 3072 
Q 1681 3072 1420 2755 
Q 1159 2438 1159 1844 
L 1159 0 
L 581 0 
L 581 3500 
L 1159 3500 
L 1159 2956 
Q 1341 3275 1631 3429 
Q 1922 3584 2338 3584 
Q 2397 3584 2469 3576 
Q 2541 3569 2628 3553 
L 2631 2963 
z
" transform="scale(0.015625)"/>
      <path id="DejaVuSans-63" d="M 3122 3366 
L 3122 2828 
Q 2878 2963 2633 3030 
Q 2388 3097 2138 3097 
Q 1578 3097 1268 2742 
Q 959 2388 959 1747 
Q 959 1106 1268 751 
Q 1578 397 2138 397 
Q 2388 397 2633 464 
Q 2878 531 3122 666 
L 3122 134 
Q 2881 22 2623 -34 
Q 2366 -91 2075 -91 
Q 1284 -91 818 406 
Q 353 903 353 1747 
Q 353 2603 823 3093 
Q 1294 3584 2113 3584 
Q 2378 3584 2631 3529 
Q 2884 3475 3122 3366 
z
" transform="scale(0.015625)"/>
      <path id="DejaVuSans-65" d="M 3597 1894 
L 3597 1613 
L 953 1613 
Q 991 1019 1311 708 
Q 1631 397 2203 397 
Q 2534 397 2845 478 
Q 3156 559 3463 722 
L 3463 178 
Q 3153 47 2828 -22 
Q 2503 -91 2169 -91 
Q 1331 -91 842 396 
Q 353 884 353 1716 
Q 353 2575 817 3079 
Q 1281 3584 2069 3584 
Q 2775 3584 3186 3129 
Q 3597 2675 3597 1894 
z
M 3022 2063 
Q 3016 2534 2758 2815 
Q 2500 3097 2075 3097 
Q 1594 3097 1305 2825 
Q 1016 2553 972 2059 
L 3022 2063 
z
" transform="scale(0.015625)"/>
      <path id="DejaVuSans-2d" d="M 313 2009 
L 1997 2009 
L 1997 1497 
L 313 1497 
L 313 2009 
z
" transform="scale(0.015625)"/>
      <path id="DejaVuSans-69" d="M 603 3500 
L 1178 3500 
L 1178 0 
L 603 0 
L 603 3500 
z
M 603 4863 
L 1178 4863 
L 1178 4134 
L 603 4134 
L 603 4863 
z
" transform="scale(0.015625)"/>
      <path id="DejaVuSans-76" d="M 191 3500 
L 800 3500 
L 1894 563 
L 2988 3500 
L 3597 3500 
L 2284 0 
L 1503 0 
L 191 3500 
z
" transform="scale(0.015625)"/>
      <path id="DejaVuSans-37" d="M 525 4666 
L 3525 4666 
L 3525 4397 
L 1831 0 
L 1172 0 
L 2766 4134 
L 525 4134 
L 525 4666 
z
" transform="scale(0.015625)"/>
     </defs>
     <use xlink:href="#DejaVuSans-73"/>
     <use xlink:href="#DejaVuSans-6f" x="52.099609"/>
     <use xlink:href="#DejaVuSans-75" x="113.28125"/>
     <use xlink:href="#DejaVuSans-72" x="176.660156"/>
     <use xlink:href="#DejaVuSans-63" x="215.523438"/>
     <use xlink:href="#DejaVuSans-65" x="270.503906"/>
     <use xlink:href="#DejaVuSans-32" x="332.027344"/>
     <use xlink:href="#DejaVuSans-34" x="395.650391"/>
     <use xlink:href="#DejaVuSans-2d" x="459.273438"/>
     <use xlink:href="#DejaVuSans-72" x="495.357422"/>
     <use xlink:href="#DejaVuSans-65" x="534.220703"/>
     <use xlink:href="#DejaVuSans-63" x="595.744141"/>
     <use xlink:href="#DejaVuSans-65" x="650.724609"/>
     <use xlink:href="#DejaVuSans-69" x="712.248047"/>
     <use xlink:href="#DejaVuSans-76" x="740.03125"/>
     <use xlink:href="#DejaVuSans-65" x="799.210938"/>
     <use xlink:href="#DejaVuSans-72" x="860.734375"/>
     <use xlink:href="#DejaVuSans-37" x="901.847656"/>
    </g>
   </g>
  </g>
 </g>
 <defs>
  <clipPath id="p5336830501">
   <rect x="180" y="69.12" width="1116" height="443.52"/>
  </clipPath>
 </defs>
</svg>
