<?xml version="1.0" encoding="utf-8" standalone="no"?>
<!DOCTYPE svg PUBLIC "-//W3C//DTD SVG 1.1//EN"
  "http://www.w3.org/Graphics/SVG/1.1/DTD/svg11.dtd">
<svg xmlns:xlink="http://www.w3.org/1999/xlink" width="1440pt" height="576pt" viewBox="0 0 1440 576" xmlns="http://www.w3.org/2000/svg" version="1.1">
 <metadata>
  <rdf:RDF xmlns:dc="http://purl.org/dc/elements/1.1/" xmlns:cc="http://creativecommons.org/ns#" xmlns:rdf="http://www.w3.org/1999/02/22-rdf-syntax-ns#">
   <cc:Work>
    <dc:type rdf:resource="http://purl.org/dc/dcmitype/StillImage"/>
    <dc:date>2024-05-22T04:50:03.017469</dc:date>
    <dc:format>image/svg+xml</dc:format>
    <dc:creator>
     <cc:Agent>
      <dc:title>Matplotlib v3.8.3, https://matplotlib.org/</dc:title>
     </cc:Agent>
    </dc:creator>
   </cc:Work>
  </rdf:RDF>
 </metadata>
 <defs>
  <style type="text/css">*{stroke-linejoin: round; stroke-linecap: butt}</style>
 </defs>
 <g id="figure_1">
  <g id="patch_1">
   <path d="M 0 576 
L 1440 576 
L 1440 0 
L 0 0 
z
" style="fill: #ffffff"/>
  </g>
  <g id="axes_1">
   <g id="patch_2">
    <path d="M 180 512.64 
L 1296 512.64 
L 1296 69.12 
L 180 69.12 
z
" style="fill: #ffffff"/>
   </g>
   <g id="matplotlib.axis_1">
    <g id="xtick_1">
     <g id="line2d_1">
      <defs>
       <path id="m0a50771b53" d="M 0 0 
L 0 3.5 
" style="stroke: #000000; stroke-width: 0.8"/>
      </defs>
      <g>
       <use xlink:href="#m0a50771b53" x="229.734567" y="512.64" style="stroke: #000000; stroke-width: 0.8"/>
      </g>
     </g>
     <g id="text_1">
      <!-- 0 -->
      <g transform="translate(226.553317 527.238438) scale(0.1 -0.1)">
       <defs>
        <path id="DejaVuSans-30" d="M 2034 4250 
Q 1547 4250 1301 3770 
Q 1056 3291 1056 2328 
Q 1056 1369 1301 889 
Q 1547 409 2034 409 
Q 2525 409 2770 889 
Q 3016 1369 3016 2328 
Q 3016 3291 2770 3770 
Q 2525 4250 2034 4250 
z
M 2034 4750 
Q 2819 4750 3233 4129 
Q 3647 3509 3647 2328 
Q 3647 1150 3233 529 
Q 2819 -91 2034 -91 
Q 1250 -91 836 529 
Q 422 1150 422 2328 
Q 422 3509 836 4129 
Q 1250 4750 2034 4750 
z
" transform="scale(0.015625)"/>
       </defs>
       <use xlink:href="#DejaVuSans-30"/>
      </g>
     </g>
    </g>
    <g id="xtick_2">
     <g id="line2d_2">
      <g>
       <use xlink:href="#m0a50771b53" x="433.04074" y="512.64" style="stroke: #000000; stroke-width: 0.8"/>
      </g>
     </g>
     <g id="text_2">
      <!-- 500 -->
      <g transform="translate(423.49699 527.238438) scale(0.1 -0.1)">
       <defs>
        <path id="DejaVuSans-35" d="M 691 4666 
L 3169 4666 
L 3169 4134 
L 1269 4134 
L 1269 2991 
Q 1406 3038 1543 3061 
Q 1681 3084 1819 3084 
Q 2600 3084 3056 2656 
Q 3513 2228 3513 1497 
Q 3513 744 3044 326 
Q 2575 -91 1722 -91 
Q 1428 -91 1123 -41 
Q 819 9 494 109 
L 494 744 
Q 775 591 1075 516 
Q 1375 441 1709 441 
Q 2250 441 2565 725 
Q 2881 1009 2881 1497 
Q 2881 1984 2565 2268 
Q 2250 2553 1709 2553 
Q 1456 2553 1204 2497 
Q 953 2441 691 2322 
L 691 4666 
z
" transform="scale(0.015625)"/>
       </defs>
       <use xlink:href="#DejaVuSans-35"/>
       <use xlink:href="#DejaVuSans-30" x="63.623047"/>
       <use xlink:href="#DejaVuSans-30" x="127.246094"/>
      </g>
     </g>
    </g>
    <g id="xtick_3">
     <g id="line2d_3">
      <g>
       <use xlink:href="#m0a50771b53" x="636.346913" y="512.64" style="stroke: #000000; stroke-width: 0.8"/>
      </g>
     </g>
     <g id="text_3">
      <!-- 1000 -->
      <g transform="translate(623.621913 527.238438) scale(0.1 -0.1)">
       <defs>
        <path id="DejaVuSans-31" d="M 794 531 
L 1825 531 
L 1825 4091 
L 703 3866 
L 703 4441 
L 1819 4666 
L 2450 4666 
L 2450 531 
L 3481 531 
L 3481 0 
L 794 0 
L 794 531 
z
" transform="scale(0.015625)"/>
       </defs>
       <use xlink:href="#DejaVuSans-31"/>
       <use xlink:href="#DejaVuSans-30" x="63.623047"/>
       <use xlink:href="#DejaVuSans-30" x="127.246094"/>
       <use xlink:href="#DejaVuSans-30" x="190.869141"/>
      </g>
     </g>
    </g>
    <g id="xtick_4">
     <g id="line2d_4">
      <g>
       <use xlink:href="#m0a50771b53" x="839.653087" y="512.64" style="stroke: #000000; stroke-width: 0.8"/>
      </g>
     </g>
     <g id="text_4">
      <!-- 1500 -->
      <g transform="translate(826.928087 527.238438) scale(0.1 -0.1)">
       <use xlink:href="#DejaVuSans-31"/>
       <use xlink:href="#DejaVuSans-35" x="63.623047"/>
       <use xlink:href="#DejaVuSans-30" x="127.246094"/>
       <use xlink:href="#DejaVuSans-30" x="190.869141"/>
      </g>
     </g>
    </g>
    <g id="xtick_5">
     <g id="line2d_5">
      <g>
       <use xlink:href="#m0a50771b53" x="1042.95926" y="512.64" style="stroke: #000000; stroke-width: 0.8"/>
      </g>
     </g>
     <g id="text_5">
      <!-- 2000 -->
      <g transform="translate(1030.23426 527.238438) scale(0.1 -0.1)">
       <defs>
        <path id="DejaVuSans-32" d="M 1228 531 
L 3431 531 
L 3431 0 
L 469 0 
L 469 531 
Q 828 903 1448 1529 
Q 2069 2156 2228 2338 
Q 2531 2678 2651 2914 
Q 2772 3150 2772 3378 
Q 2772 3750 2511 3984 
Q 2250 4219 1831 4219 
Q 1534 4219 1204 4116 
Q 875 4013 500 3803 
L 500 4441 
Q 881 4594 1212 4672 
Q 1544 4750 1819 4750 
Q 2544 4750 2975 4387 
Q 3406 4025 3406 3419 
Q 3406 3131 3298 2873 
Q 3191 2616 2906 2266 
Q 2828 2175 2409 1742 
Q 1991 1309 1228 531 
z
" transform="scale(0.015625)"/>
       </defs>
       <use xlink:href="#DejaVuSans-32"/>
       <use xlink:href="#DejaVuSans-30" x="63.623047"/>
       <use xlink:href="#DejaVuSans-30" x="127.246094"/>
       <use xlink:href="#DejaVuSans-30" x="190.869141"/>
      </g>
     </g>
    </g>
    <g id="xtick_6">
     <g id="line2d_6">
      <g>
       <use xlink:href="#m0a50771b53" x="1246.265433" y="512.64" style="stroke: #000000; stroke-width: 0.8"/>
      </g>
     </g>
     <g id="text_6">
      <!-- 2500 -->
      <g transform="translate(1233.540433 527.238438) scale(0.1 -0.1)">
       <use xlink:href="#DejaVuSans-32"/>
       <use xlink:href="#DejaVuSans-35" x="63.623047"/>
       <use xlink:href="#DejaVuSans-30" x="127.246094"/>
       <use xlink:href="#DejaVuSans-30" x="190.869141"/>
      </g>
     </g>
    </g>
   </g>
   <g id="matplotlib.axis_2">
    <g id="ytick_1">
     <g id="line2d_7">
      <defs>
       <path id="mba1072c131" d="M 0 0 
L -3.5 0 
" style="stroke: #000000; stroke-width: 0.8"/>
      </defs>
      <g>
       <use xlink:href="#mba1072c131" x="180" y="476.162183" style="stroke: #000000; stroke-width: 0.8"/>
      </g>
     </g>
     <g id="text_7">
      <!-- −6 -->
      <g transform="translate(158.257812 479.961402) scale(0.1 -0.1)">
       <defs>
        <path id="DejaVuSans-2212" d="M 678 2272 
L 4684 2272 
L 4684 1741 
L 678 1741 
L 678 2272 
z
" transform="scale(0.015625)"/>
        <path id="DejaVuSans-36" d="M 2113 2584 
Q 1688 2584 1439 2293 
Q 1191 2003 1191 1497 
Q 1191 994 1439 701 
Q 1688 409 2113 409 
Q 2538 409 2786 701 
Q 3034 994 3034 1497 
Q 3034 2003 2786 2293 
Q 2538 2584 2113 2584 
z
M 3366 4563 
L 3366 3988 
Q 3128 4100 2886 4159 
Q 2644 4219 2406 4219 
Q 1781 4219 1451 3797 
Q 1122 3375 1075 2522 
Q 1259 2794 1537 2939 
Q 1816 3084 2150 3084 
Q 2853 3084 3261 2657 
Q 3669 2231 3669 1497 
Q 3669 778 3244 343 
Q 2819 -91 2113 -91 
Q 1303 -91 875 529 
Q 447 1150 447 2328 
Q 447 3434 972 4092 
Q 1497 4750 2381 4750 
Q 2619 4750 2861 4703 
Q 3103 4656 3366 4563 
z
" transform="scale(0.015625)"/>
       </defs>
       <use xlink:href="#DejaVuSans-2212"/>
       <use xlink:href="#DejaVuSans-36" x="83.789062"/>
      </g>
     </g>
    </g>
    <g id="ytick_2">
     <g id="line2d_8">
      <g>
       <use xlink:href="#mba1072c131" x="180" y="404.843909" style="stroke: #000000; stroke-width: 0.8"/>
      </g>
     </g>
     <g id="text_8">
      <!-- −4 -->
      <g transform="translate(158.257812 408.643128) scale(0.1 -0.1)">
       <defs>
        <path id="DejaVuSans-34" d="M 2419 4116 
L 825 1625 
L 2419 1625 
L 2419 4116 
z
M 2253 4666 
L 3047 4666 
L 3047 1625 
L 3713 1625 
L 3713 1100 
L 3047 1100 
L 3047 0 
L 2419 0 
L 2419 1100 
L 313 1100 
L 313 1709 
L 2253 4666 
z
" transform="scale(0.015625)"/>
       </defs>
       <use xlink:href="#DejaVuSans-2212"/>
       <use xlink:href="#DejaVuSans-34" x="83.789062"/>
      </g>
     </g>
    </g>
    <g id="ytick_3">
     <g id="line2d_9">
      <g>
       <use xlink:href="#mba1072c131" x="180" y="333.525635" style="stroke: #000000; stroke-width: 0.8"/>
      </g>
     </g>
     <g id="text_9">
      <!-- −2 -->
      <g transform="translate(158.257812 337.324853) scale(0.1 -0.1)">
       <use xlink:href="#DejaVuSans-2212"/>
       <use xlink:href="#DejaVuSans-32" x="83.789062"/>
      </g>
     </g>
    </g>
    <g id="ytick_4">
     <g id="line2d_10">
      <g>
       <use xlink:href="#mba1072c131" x="180" y="262.20736" style="stroke: #000000; stroke-width: 0.8"/>
      </g>
     </g>
     <g id="text_10">
      <!-- 0 -->
      <g transform="translate(166.6375 266.006579) scale(0.1 -0.1)">
       <use xlink:href="#DejaVuSans-30"/>
      </g>
     </g>
    </g>
    <g id="ytick_5">
     <g id="line2d_11">
      <g>
       <use xlink:href="#mba1072c131" x="180" y="190.889086" style="stroke: #000000; stroke-width: 0.8"/>
      </g>
     </g>
     <g id="text_11">
      <!-- 2 -->
      <g transform="translate(166.6375 194.688305) scale(0.1 -0.1)">
       <use xlink:href="#DejaVuSans-32"/>
      </g>
     </g>
    </g>
    <g id="ytick_6">
     <g id="line2d_12">
      <g>
       <use xlink:href="#mba1072c131" x="180" y="119.570812" style="stroke: #000000; stroke-width: 0.8"/>
      </g>
     </g>
     <g id="text_12">
      <!-- 4 -->
      <g transform="translate(166.6375 123.37003) scale(0.1 -0.1)">
       <use xlink:href="#DejaVuSans-34"/>
      </g>
     </g>
    </g>
   </g>
   <g id="line2d_13">
    <path d="M 230.727273 267.650238 
L 231.719979 263.747882 
L 232.712685 293.946013 
L 233.70539 273.493048 
L 234.698096 260.941117 
L 235.690802 283.02836 
L 236.683508 282.330399 
L 237.676214 259.009454 
L 238.66892 272.242607 
L 239.661626 298.313083 
L 240.654332 257.688206 
L 241.647038 262.071305 
L 242.639744 353.625973 
L 243.63245 257.216491 
L 244.625156 252.461788 
L 245.617862 294.260778 
L 246.610568 258.144432 
L 247.603273 248.492284 
L 248.595979 278.256419 
L 249.588685 220.98547 
L 250.581391 192.871839 
L 251.574097 177.413483 
L 252.566803 171.355709 
L 253.559509 179.778517 
L 254.552215 197.264946 
L 255.544921 165.939703 
L 256.537627 151.447134 
L 257.530333 156.233552 
L 258.523039 186.299773 
L 259.515745 169.237473 
L 260.50845 154.644082 
L 261.501156 164.786915 
L 262.493862 221.314934 
L 263.486568 197.034542 
L 264.479274 194.614281 
L 265.47198 259.610164 
L 266.464686 213.982702 
L 267.457392 196.341836 
L 268.450098 187.605754 
L 270.43551 213.760522 
L 271.428216 190.361824 
L 272.420922 197.709445 
L 273.413627 176.450493 
L 274.406333 162.759484 
L 275.399039 163.028747 
L 276.391745 161.48811 
L 277.384451 152.077168 
L 278.377157 130.403551 
L 279.369863 113.427188 
L 280.362569 106.609653 
L 281.355275 107.381797 
L 282.347981 109.82347 
L 283.340687 111.799428 
L 284.333393 114.299883 
L 285.326099 104.400177 
L 286.318804 91.890469 
L 287.31151 89.28 
L 289.296922 103.235016 
L 290.289628 104.149792 
L 291.282334 111.392707 
L 292.27504 127.957783 
L 293.267746 137.002512 
L 294.260452 141.205059 
L 295.253158 149.505384 
L 296.245864 152.899228 
L 297.23857 160.263141 
L 299.223981 182.139868 
L 301.209393 243.945432 
L 302.202099 233.349314 
L 303.194805 266.483845 
L 304.187511 240.013612 
L 305.180217 238.899115 
L 306.172923 226.16453 
L 307.165629 225.026746 
L 308.158335 242.472558 
L 309.151041 245.146349 
L 310.143747 247.492703 
L 311.136453 276.8571 
L 312.129159 299.774833 
L 313.121864 260.439865 
L 314.11457 258.704561 
L 315.107276 281.496589 
L 316.099982 261.553883 
L 317.092688 258.129192 
L 318.085394 283.038571 
L 319.0781 262.763778 
L 320.070806 260.359137 
L 321.063512 289.74667 
L 322.056218 269.353675 
L 323.048924 265.009275 
L 324.04163 293.350158 
L 325.034336 279.556369 
L 326.027041 268.182483 
L 327.019747 292.074307 
L 328.012453 291.156025 
L 329.005159 275.986463 
L 329.997865 299.733632 
L 330.990571 314.872135 
L 331.983277 277.953621 
L 332.975983 298.135468 
L 333.968689 334.775599 
L 334.961395 284.514724 
L 335.954101 291.822588 
L 336.946807 353.597438 
L 337.939513 294.082854 
L 338.932218 296.568998 
L 339.924924 343.510066 
L 340.91763 300.316725 
L 341.910336 291.764568 
L 342.903042 310.124118 
L 343.895748 313.425121 
L 344.888454 282.016955 
L 345.88116 300.197804 
L 346.873866 320.728841 
L 347.866572 280.353577 
L 348.859278 286.316921 
L 349.851984 314.11189 
L 350.84469 281.396553 
L 351.837395 277.169893 
L 352.830101 300.170839 
L 353.822807 277.577011 
L 354.815513 273.75785 
L 355.808219 290.881524 
L 356.800925 278.239629 
L 357.793631 269.551994 
L 358.786337 287.971166 
L 359.779043 275.528119 
L 360.771749 265.37917 
L 361.764455 280.569802 
L 362.757161 272.929481 
L 363.749867 261.284797 
L 364.742572 272.451385 
L 365.735278 266.741899 
L 366.727984 259.703253 
L 367.72069 267.653216 
L 368.713396 267.311105 
L 369.706102 256.417199 
L 370.698808 263.048002 
L 371.691514 266.873144 
L 372.68422 256.118359 
L 373.676926 260.943687 
L 374.669632 263.260835 
L 375.662338 254.846848 
L 377.64775 263.304672 
L 378.640455 254.374672 
L 379.633161 257.374571 
L 380.625867 261.462304 
L 381.618573 254.842426 
L 382.611279 255.745865 
L 383.603985 261.807692 
L 384.596691 254.607601 
L 385.589397 254.699728 
L 386.582103 264.206405 
L 387.574809 254.491967 
L 388.567515 256.101694 
L 389.560221 263.577894 
L 390.552927 256.559806 
L 391.545632 256.832282 
L 392.538338 263.900648 
L 393.531044 255.861459 
L 394.52375 256.919547 
L 395.516456 264.366613 
L 396.509162 260.233894 
L 397.501868 257.870937 
L 398.494574 267.136325 
L 399.48728 262.198873 
L 400.479986 261.162238 
L 401.472692 268.026204 
L 402.465398 266.64676 
L 403.458104 260.558515 
L 404.450809 272.695946 
L 405.443515 272.371435 
L 406.436221 265.088665 
L 407.428927 276.330692 
L 408.421633 276.353819 
L 409.414339 269.486975 
L 410.407045 278.107221 
L 411.399751 283.722099 
L 412.392457 274.302868 
L 413.385163 286.309202 
L 414.377869 290.851776 
L 415.370575 281.325792 
L 417.355986 301.589054 
L 418.348692 288.314547 
L 419.341398 294.649652 
L 420.334104 318.04716 
L 421.32681 298.736499 
L 422.319516 301.791517 
L 423.312222 342.218941 
L 424.304928 318.143946 
L 425.297634 314.059903 
L 426.29034 365.486748 
L 427.283046 337.221871 
L 428.275752 326.278721 
L 429.268458 333.273915 
L 430.261163 373.085294 
L 431.253869 324.910256 
L 432.246575 312.642354 
L 433.239281 347.048714 
L 434.231987 316.989965 
L 435.224693 301.507379 
L 436.217399 323.214962 
L 437.210105 306.595057 
L 438.202811 298.855411 
L 439.195517 302.210742 
L 440.188223 303.656208 
L 441.180929 288.771661 
L 442.173635 298.281374 
L 443.166341 294.614047 
L 444.159046 282.27031 
L 445.151752 291.516659 
L 446.144458 289.610287 
L 447.137164 280.385974 
L 448.12987 285.957116 
L 449.122576 289.170334 
L 450.115282 276.490623 
L 451.107988 277.82561 
L 452.100694 285.294894 
L 453.0934 274.845543 
L 454.086106 275.963234 
L 455.078812 280.645219 
L 456.071518 271.103187 
L 457.064223 274.103998 
L 458.056929 282.198864 
L 459.049635 272.194925 
L 460.042341 272.28694 
L 461.035047 276.975711 
L 462.027753 269.625613 
L 463.020459 270.010389 
L 464.013165 279.39522 
L 465.005871 270.617325 
L 465.998577 268.374817 
L 466.991283 277.778454 
L 467.983989 270.470776 
L 468.976695 269.99998 
L 469.9694 277.802581 
L 470.962106 271.2153 
L 471.954812 269.993569 
L 472.947518 276.87264 
L 474.93293 268.785912 
L 475.925636 277.81888 
L 476.918342 275.079531 
L 477.911048 270.001813 
L 478.903754 275.977299 
L 479.89646 274.81793 
L 480.889166 270.709988 
L 481.881872 278.248413 
L 482.874577 275.303877 
L 483.867283 271.875779 
L 484.859989 281.272971 
L 485.852695 282.829993 
L 486.845401 276.492676 
L 487.838107 282.545296 
L 488.830813 282.964207 
L 489.823519 279.410532 
L 490.816225 284.74331 
L 491.808931 287.709167 
L 492.801637 282.468254 
L 493.794343 289.003255 
L 494.787049 297.956573 
L 495.779754 283.244725 
L 496.77246 290.307245 
L 497.765166 302.881467 
L 498.757872 291.412894 
L 499.750578 297.880815 
L 500.743284 312.435974 
L 501.73599 298.796278 
L 502.728696 305.846431 
L 503.721402 323.829614 
L 504.714108 304.269769 
L 505.706814 317.479268 
L 506.69952 337.838124 
L 507.692226 321.547975 
L 508.684932 330.451987 
L 509.677637 406.739643 
L 510.670343 321.292665 
L 512.655755 354.874991 
L 513.648461 351.445419 
L 514.641167 347.13686 
L 515.633873 337.827605 
L 516.626579 343.511647 
L 517.619285 357.835144 
L 518.611991 317.892282 
L 519.604697 324.265255 
L 520.597403 340.837373 
L 521.590109 312.567971 
L 522.582814 315.057312 
L 523.57552 336.83308 
L 524.568226 307.992843 
L 525.560932 306.63709 
L 526.553638 327.976294 
L 527.546344 293.953121 
L 528.53905 293.697802 
L 529.531756 313.045123 
L 530.524462 297.263466 
L 531.517168 297.344403 
L 532.509874 309.626827 
L 533.50258 293.47189 
L 534.495286 296.751232 
L 535.487991 306.083964 
L 536.480697 297.246208 
L 537.473403 290.61998 
L 538.466109 299.651209 
L 539.458815 286.040608 
L 540.451521 288.290414 
L 541.444227 297.797037 
L 542.436933 292.315185 
L 543.429639 287.72387 
L 544.422345 298.638078 
L 545.415051 290.029527 
L 546.407757 286.183301 
L 547.400463 297.949536 
L 548.393168 292.666837 
L 549.385874 285.378819 
L 550.37858 293.817307 
L 551.371286 295.373198 
L 552.363992 286.897907 
L 553.356698 293.324903 
L 554.349404 294.828067 
L 555.34211 288.632452 
L 556.334816 295.203637 
L 557.327522 298.861047 
L 558.320228 287.630486 
L 559.312934 295.546912 
L 560.30564 296.532944 
L 561.298345 290.644648 
L 562.291051 299.51929 
L 563.283757 298.343916 
L 564.276463 292.2861 
L 565.269169 296.783819 
L 566.261875 305.163238 
L 567.254581 294.116936 
L 569.239993 305.310696 
L 570.232699 292.608831 
L 571.225405 301.493147 
L 572.218111 307.184766 
L 573.210817 295.312353 
L 574.203523 302.247648 
L 575.196228 308.101278 
L 576.188934 300.266578 
L 577.18164 302.414099 
L 578.174346 319.067595 
L 579.167052 309.86226 
L 580.159758 306.254026 
L 581.152464 328.351692 
L 582.14517 308.345593 
L 583.137876 305.935443 
L 584.130582 334.79568 
L 585.123288 318.636362 
L 586.115994 316.356208 
L 587.1087 324.771378 
L 588.101405 317.444229 
L 589.094111 312.527901 
L 590.086817 354.300022 
L 591.079523 330.140923 
L 592.072229 320.821249 
L 593.064935 343.065306 
L 594.057641 329.624356 
L 595.050347 334.877957 
L 596.043053 354.917166 
L 597.035759 349.084448 
L 598.028465 337.114083 
L 599.021171 352.689776 
L 600.013877 375.611908 
L 601.006582 357.973729 
L 601.999288 357.231554 
L 602.991994 362.904335 
L 603.9847 374.219 
L 604.977406 344.60827 
L 605.970112 350.535664 
L 606.962818 379.044777 
L 607.955524 337.13881 
L 608.94823 337.563261 
L 609.940936 387.680159 
L 610.933642 334.532449 
L 611.926348 329.429881 
L 612.919054 366.764241 
L 613.911759 327.361138 
L 614.904465 326.108484 
L 615.897171 356.234774 
L 616.889877 330.390205 
L 617.882583 320.014353 
L 618.875289 352.88121 
L 619.867995 325.691494 
L 620.860701 316.044803 
L 621.853407 337.97463 
L 622.846113 329.668515 
L 623.838819 316.398354 
L 624.831525 335.099191 
L 625.824231 326.981216 
L 626.816936 312.268302 
L 627.809642 329.005291 
L 628.802348 325.608277 
L 629.795054 312.429336 
L 630.78776 323.760423 
L 631.780466 329.483596 
L 632.773172 310.905715 
L 633.765878 323.546704 
L 634.758584 327.673681 
L 635.75129 309.745773 
L 636.743996 320.403953 
L 637.736702 328.173065 
L 638.729408 312.20856 
L 639.722114 319.10612 
L 640.714819 333.4671 
L 641.707525 313.422779 
L 642.700231 320.208886 
L 643.692937 338.977742 
L 644.685643 315.691529 
L 645.678349 320.84013 
L 646.671055 338.722952 
L 647.663761 320.092333 
L 648.656467 317.735216 
L 649.649173 341.691745 
L 650.641879 324.110826 
L 651.634585 320.579005 
L 652.627291 344.001435 
L 653.619996 327.969259 
L 654.612702 321.420781 
L 655.605408 353.84349 
L 656.598114 332.966995 
L 657.59082 325.688106 
L 658.583526 352.13014 
L 660.568938 328.296105 
L 661.561644 356.7841 
L 662.55435 344.719036 
L 663.547056 330.968071 
L 664.539762 353.603817 
L 665.532468 355.271293 
L 666.525173 335.209885 
L 667.517879 355.588723 
L 668.510585 367.068377 
L 669.503291 338.838479 
L 670.495997 355.776902 
L 671.488703 379.236049 
L 672.481409 341.370156 
L 673.474115 352.133266 
L 674.466821 397.383608 
L 675.459527 346.563228 
L 676.452233 353.808829 
L 677.444939 403.838036 
L 678.437645 351.449247 
L 679.43035 353.116925 
L 680.423056 403.952726 
L 681.415762 352.254078 
L 682.408468 354.430911 
L 683.401174 394.585453 
L 684.39388 358.819878 
L 685.386586 354.539913 
L 686.379292 386.040829 
L 687.371998 361.899189 
L 688.364704 353.708289 
L 689.35741 377.610149 
L 690.350116 364.227799 
L 691.342822 353.8719 
L 692.335527 375.846942 
L 693.328233 370.576778 
L 694.320939 355.101787 
L 695.313645 371.158865 
L 696.306351 377.173412 
L 697.299057 354.61665 
L 699.284469 378.830477 
L 700.277175 354.846526 
L 701.269881 364.34063 
L 702.262587 387.25263 
L 703.255293 355.791864 
L 704.247999 360.496922 
L 705.240705 395.428469 
L 706.23341 356.482897 
L 707.226116 356.420843 
L 708.218822 400.119027 
L 709.211528 357.527674 
L 710.204234 354.369617 
L 711.19694 397.63604 
L 712.189646 359.708896 
L 713.182352 353.026043 
L 714.175058 389.993718 
L 715.167764 365.8404 
L 716.16047 351.142833 
L 717.153176 382.328626 
L 718.145882 368.772916 
L 719.138587 350.612585 
L 720.131293 376.087259 
L 721.123999 374.503904 
L 722.116705 351.617543 
L 723.109411 368.534333 
L 724.102117 382.299119 
L 725.094823 351.468271 
L 726.087529 365.148136 
L 727.080235 395.165754 
L 728.072941 354.370479 
L 729.065647 361.752289 
L 730.058353 396.93112 
L 731.051059 356.779939 
L 732.043764 361.231969 
L 733.03647 395.689651 
L 734.029176 360.406742 
L 735.021882 360.292409 
L 736.014588 388.566994 
L 737.007294 366.359695 
L 738 359.115478 
L 738.992706 380.839889 
L 739.985412 372.473297 
L 740.978118 360.567275 
L 741.970824 374.819134 
L 742.96353 378.581936 
L 743.956236 362.637932 
L 744.948941 370.343568 
L 745.941647 379.568185 
L 746.934353 365.572464 
L 747.927059 366.649743 
L 748.919765 378.626224 
L 750.905177 362.564042 
L 751.897883 373.17388 
L 752.890589 377.688884 
L 753.883295 362.262329 
L 754.876001 367.434369 
L 755.868707 385.210212 
L 756.861413 364.652191 
L 757.854118 363.031754 
L 758.846824 388.22003 
L 759.83953 366.479991 
L 760.832236 358.618801 
L 761.824942 386.997229 
L 763.810354 355.224346 
L 764.80306 380.331819 
L 765.795766 377.759381 
L 766.788472 354.355275 
L 768.773884 387.781992 
L 769.76659 353.876642 
L 770.759295 363.985706 
L 771.752001 404.940977 
L 772.744707 353.464004 
L 773.737413 356.951403 
L 774.730119 441.364514 
L 775.722825 354.692475 
L 776.715531 352.948688 
L 777.708237 424.683838 
L 778.700943 356.813947 
L 779.693649 348.923456 
L 780.686355 396.810103 
L 781.679061 361.229694 
L 782.671767 346.283137 
L 783.664473 378.444922 
L 784.657178 366.340199 
L 785.649884 345.856668 
L 786.64259 366.921871 
L 787.635296 373.983064 
L 788.628002 345.113842 
L 789.620708 360.587096 
L 790.613414 385.226916 
L 791.60612 345.364855 
L 792.598826 354.571342 
L 793.591532 396.347359 
L 794.584238 345.576075 
L 795.576944 350.713494 
L 796.56965 409.722396 
L 797.562355 347.613295 
L 798.555061 346.507687 
L 799.547767 401.455555 
L 800.540473 351.316783 
L 801.533179 345.078228 
L 802.525885 386.222731 
L 803.518591 354.64661 
L 804.511297 343.219337 
L 805.504003 375.629823 
L 807.489415 342.152167 
L 808.482121 368.074619 
L 809.474827 363.764481 
L 810.467532 342.72707 
L 811.460238 360.840459 
L 812.452944 373.430408 
L 813.44565 343.622756 
L 814.438356 356.951078 
L 815.431062 383.841123 
L 816.423768 344.864311 
L 817.416474 353.410841 
L 818.40918 397.964288 
L 819.401886 346.665675 
L 820.394592 351.375753 
L 821.387298 410.932579 
L 822.380004 350.477271 
L 823.372709 349.565316 
L 824.365415 416.880697 
L 825.358121 353.256823 
L 826.350827 348.929101 
L 827.343533 402.050924 
L 828.336239 357.092191 
L 829.328945 348.246449 
L 830.321651 394.314491 
L 831.314357 360.990294 
L 832.307063 348.517274 
L 833.299769 383.654467 
L 834.292475 367.733614 
L 835.285181 347.960302 
L 836.277886 374.796221 
L 837.270592 373.249163 
L 838.263298 348.35233 
L 839.256004 370.826258 
L 840.24871 379.702442 
L 841.241416 349.956942 
L 842.234122 366.998946 
L 843.226828 387.20351 
L 844.219534 350.282568 
L 845.21224 363.446709 
L 846.204946 395.576852 
L 847.197652 351.688144 
L 848.190358 359.121458 
L 849.183064 412.717965 
L 850.175769 352.389089 
L 851.168475 356.91089 
L 852.161181 435.897194 
L 853.153887 353.352832 
L 854.146593 354.028429 
L 855.139299 446.699739 
L 856.132005 354.771902 
L 857.124711 352.190276 
L 858.117417 413.033663 
L 859.110123 357.474532 
L 860.102829 349.292663 
L 861.095535 396.494562 
L 862.088241 359.087587 
L 863.080946 346.86278 
L 864.073652 384.619962 
L 865.066358 362.381849 
L 866.059064 346.553383 
L 867.05177 374.285345 
L 868.044476 365.6273 
L 869.037182 345.640859 
L 870.029888 365.699153 
L 871.022594 370.031064 
L 872.0153 344.384455 
L 874.000712 376.684812 
L 874.993418 343.916425 
L 875.986123 353.913625 
L 876.978829 385.465147 
L 877.971535 344.248558 
L 878.964241 349.959526 
L 879.956947 389.537272 
L 880.949653 345.594463 
L 881.942359 346.81301 
L 882.935065 386.445396 
L 883.927771 347.47886 
L 884.920477 343.932756 
L 885.913183 381.875465 
L 886.905889 348.766258 
L 887.898595 341.760961 
L 888.8913 373.521309 
L 889.884006 353.413783 
L 890.876712 340.20539 
L 891.869418 366.886709 
L 892.862124 356.507196 
L 893.85483 340.159115 
L 894.847536 361.057161 
L 895.840242 360.745357 
L 896.832948 340.014254 
L 897.825654 354.850992 
L 898.81836 368.017644 
L 899.811066 340.207116 
L 900.803772 350.648362 
L 901.796477 376.227376 
L 902.789183 341.392271 
L 903.781889 347.260862 
L 904.774595 382.615853 
L 905.767301 344.035663 
L 906.760007 344.685181 
L 907.752713 383.146812 
L 908.745419 347.365012 
L 909.738125 343.927629 
L 910.730831 382.150998 
L 911.723537 350.847882 
L 912.716243 342.63982 
L 913.708949 374.403771 
L 914.701655 356.324707 
L 915.69436 342.315463 
L 916.687066 366.78107 
L 917.679772 361.706046 
L 918.672478 342.781507 
L 919.665184 362.858875 
L 920.65789 368.956717 
L 921.650596 344.135578 
L 922.643302 357.497516 
L 923.636008 379.192137 
L 924.628714 345.227693 
L 925.62142 353.922396 
L 926.614126 389.23416 
L 927.606832 347.011702 
L 928.599537 351.759312 
L 929.592243 399.91877 
L 930.584949 351.029145 
L 931.577655 351.444749 
L 932.570361 405.102588 
L 933.563067 355.153309 
L 934.555773 349.211322 
L 935.548479 397.181371 
L 936.541185 359.162087 
L 937.533891 349.339804 
L 938.526597 388.781142 
L 939.519303 364.799782 
L 940.512009 350.221914 
L 941.504714 380.702062 
L 942.49742 372.384613 
L 943.490126 350.752335 
L 944.482832 375.969677 
L 945.475538 379.6612 
L 946.468244 353.002756 
L 947.46095 370.430659 
L 948.453656 392.409799 
L 949.446362 354.220047 
L 950.439068 366.660792 
L 951.431774 403.360988 
L 952.42448 356.101015 
L 953.417186 364.521009 
L 954.409891 423.053307 
L 955.402597 358.159185 
L 956.395303 363.166638 
L 957.388009 448.809677 
L 958.380715 360.842534 
L 959.373421 361.673521 
L 960.366127 462.196444 
L 961.358833 363.135286 
L 962.351539 360.571915 
L 963.344245 439.178582 
L 964.336951 366.043073 
L 965.329657 359.574084 
L 966.322363 416.552736 
L 967.315068 367.936192 
L 968.307774 358.833021 
L 969.30048 401.640974 
L 970.293186 370.307074 
L 971.285892 357.694589 
L 972.278598 393.191384 
L 974.26401 357.06909 
L 975.256716 385.772904 
L 976.249422 379.384374 
L 977.242128 356.733087 
L 978.234834 378.589428 
L 979.22754 386.158847 
L 980.220246 356.53408 
L 981.212951 374.333078 
L 982.205657 395.371154 
L 983.198363 357.03478 
L 984.191069 368.892256 
L 985.183775 407.497458 
L 986.176481 357.213562 
L 987.169187 364.871301 
L 988.161893 429.05783 
L 989.154599 359.245321 
L 990.147305 361.568139 
L 991.140011 474.622931 
L 992.132717 361.010637 
L 993.125423 358.24942 
L 994.118128 425.963765 
L 995.110834 363.609041 
L 996.10354 356.426538 
L 997.096246 403.304994 
L 998.088952 367.671741 
L 999.081658 354.98727 
L 1000.074364 388.764767 
L 1001.06707 374.239762 
L 1002.059776 353.862957 
L 1003.052482 379.79832 
L 1004.045188 380.99294 
L 1005.037894 354.341175 
L 1006.0306 372.114574 
L 1007.023305 393.175112 
L 1008.016011 355.882391 
L 1009.008717 367.013518 
L 1010.001423 411.024465 
L 1010.994129 357.117988 
L 1011.986835 363.142511 
L 1012.979541 446.935125 
L 1013.972247 359.851127 
L 1014.964953 360.919218 
L 1015.957659 446.926375 
L 1016.950365 363.18138 
L 1017.943071 358.018583 
L 1018.935777 414.159602 
L 1019.928482 368.747149 
L 1020.921188 357.886663 
L 1021.913894 393.741655 
L 1022.9066 374.214431 
L 1023.899306 357.28516 
L 1024.892012 383.149307 
L 1025.884718 384.257758 
L 1026.877424 357.711113 
L 1028.862836 396.362362 
L 1029.855542 359.850589 
L 1030.848248 370.662215 
L 1031.840954 413.716614 
L 1032.833659 362.603681 
L 1033.826365 366.1064 
L 1034.819071 438.014751 
L 1035.811777 365.329343 
L 1036.804483 364.963924 
L 1037.797189 420.929504 
L 1038.789895 371.385574 
L 1039.782601 363.303756 
L 1040.775307 403.448801 
L 1041.768013 378.630983 
L 1042.760719 364.731308 
L 1043.753425 391.014224 
L 1044.746131 385.114623 
L 1045.738837 365.650887 
L 1046.731542 381.749623 
L 1047.724248 393.299005 
L 1048.716954 366.43384 
L 1049.70966 376.660486 
L 1050.702366 399.71597 
L 1051.695072 369.785585 
L 1052.687778 374.291149 
L 1053.680484 402.267443 
L 1054.67319 374.915404 
L 1055.665896 372.791323 
L 1056.658602 398.07858 
L 1057.651308 379.082801 
L 1058.644014 371.945913 
L 1059.636719 388.840366 
L 1060.629425 385.518244 
L 1061.622131 371.255869 
L 1062.614837 385.455466 
L 1063.607543 390.820204 
L 1064.600249 373.321588 
L 1065.592955 378.694068 
L 1066.585661 394.684975 
L 1067.578367 376.917054 
L 1068.571073 375.925806 
L 1069.563779 394.281776 
L 1070.556485 379.366134 
L 1071.549191 374.741785 
L 1072.541896 390.818539 
L 1073.534602 384.020645 
L 1074.527308 372.071225 
L 1075.520014 385.609273 
L 1076.51272 389.043495 
L 1077.505426 372.994563 
L 1078.498132 381.065647 
L 1079.490838 391.971439 
L 1080.483544 373.351548 
L 1081.47625 376.612623 
L 1082.468956 397.534514 
L 1083.461662 376.752862 
L 1084.454368 374.829785 
L 1085.447073 395.002565 
L 1086.439779 380.560477 
L 1087.432485 372.759336 
L 1088.425191 389.129533 
L 1089.417897 384.875169 
L 1090.410603 370.765742 
L 1091.403309 387.144427 
L 1092.396015 387.525588 
L 1093.388721 371.444804 
L 1094.381427 384.40916 
L 1095.374133 392.23847 
L 1096.366839 372.574846 
L 1097.359545 378.497208 
L 1098.35225 394.876046 
L 1099.344956 373.392829 
L 1100.337662 377.527094 
L 1101.330368 397.755414 
L 1102.323074 374.848039 
L 1103.31578 377.53683 
L 1104.308486 395.30167 
L 1105.301192 378.824026 
L 1106.293898 374.329341 
L 1107.286604 393.791598 
L 1108.27931 379.224689 
L 1109.272016 374.369519 
L 1110.264722 390.420023 
L 1111.257428 383.422461 
L 1112.250133 374.603688 
L 1113.242839 389.319808 
L 1114.235545 382.784464 
L 1115.228251 374.732124 
L 1116.220957 386.56275 
L 1117.213663 385.399894 
L 1118.206369 376.290584 
L 1119.199075 386.149435 
L 1120.191781 384.608957 
L 1121.184487 376.120693 
L 1122.177193 385.43358 
L 1123.169899 385.43265 
L 1124.162605 375.40259 
L 1125.15531 387.035902 
L 1126.148016 385.670987 
L 1127.140722 375.490124 
L 1128.133428 385.420211 
L 1129.126134 387.641273 
L 1130.11884 375.378646 
L 1131.111546 386.525664 
L 1132.104252 388.706126 
L 1133.096958 373.37944 
L 1135.08237 391.571813 
L 1136.075076 373.433936 
L 1137.067782 381.481317 
L 1138.060487 396.192103 
L 1139.053193 371.202234 
L 1140.045899 379.142336 
L 1141.038605 400.900044 
L 1142.031311 371.682837 
L 1143.024017 374.982563 
L 1144.016723 410.411509 
L 1145.009429 371.467082 
L 1146.002135 370.579455 
L 1146.994841 414.99324 
L 1147.987547 373.001461 
L 1148.980253 367.74914 
L 1149.972959 406.269136 
L 1150.965664 376.002429 
L 1151.95837 366.031842 
L 1152.951076 400.555405 
L 1153.943782 380.095509 
L 1154.936488 362.44469 
L 1155.929194 389.986923 
L 1156.9219 385.005423 
L 1157.914606 362.052817 
L 1158.907312 382.27009 
L 1159.900018 391.953108 
L 1160.892724 360.797258 
L 1161.88543 373.473008 
L 1162.878136 406.783661 
L 1163.870841 360.065329 
L 1164.863547 369.334723 
L 1165.856253 429.583811 
L 1166.848959 361.578936 
L 1167.841665 364.329882 
L 1168.834371 492.48 
L 1169.827077 363.909027 
L 1170.819783 360.293665 
L 1171.812489 428.08657 
L 1172.805195 366.48017 
L 1173.797901 358.01307 
L 1174.790607 403.308872 
L 1175.783313 370.332411 
L 1176.776019 355.928599 
L 1177.768724 387.677174 
L 1178.76143 374.581559 
L 1179.754136 354.730601 
L 1180.746842 379.644165 
L 1181.739548 381.940512 
L 1182.732254 354.049971 
L 1183.72496 371.054986 
L 1184.717666 394.38935 
L 1185.710372 355.976665 
L 1186.703078 365.768313 
L 1187.695784 411.51377 
L 1188.68849 356.765615 
L 1189.681196 361.435138 
L 1190.673901 429.138226 
L 1191.666607 358.752643 
L 1192.659313 359.417259 
L 1193.652019 427.053051 
L 1194.644725 361.224919 
L 1195.637431 355.876542 
L 1196.630137 404.066941 
L 1197.622843 366.94811 
L 1198.615549 355.354441 
L 1199.608255 392.833196 
L 1200.600961 370.210744 
L 1201.593667 354.783881 
L 1202.586373 382.237662 
L 1203.579078 378.609645 
L 1204.571784 354.62321 
L 1205.56449 374.863139 
L 1206.557196 387.649295 
L 1207.549902 355.105496 
L 1208.542608 371.08271 
L 1209.535314 400.462793 
L 1210.52802 356.50958 
L 1211.520726 365.077048 
L 1212.513432 417.81199 
L 1213.506138 358.832733 
L 1214.498844 362.880232 
L 1215.49155 447.91029 
L 1216.484255 362.64119 
L 1217.476961 360.858519 
L 1218.469667 437.330689 
L 1219.462373 366.107904 
L 1220.455079 359.836796 
L 1221.447785 410.578538 
L 1222.440491 370.484964 
L 1223.433197 359.942182 
L 1224.425903 399.388223 
L 1225.418609 374.322542 
L 1226.411315 359.833035 
L 1227.404021 389.92939 
L 1228.396727 382.116013 
L 1229.389432 360.35025 
L 1230.382138 383.522827 
L 1231.374844 388.008604 
L 1232.36755 361.119841 
L 1234.352962 396.211096 
L 1235.345668 360.765222 
L 1236.338374 374.309722 
L 1237.33108 405.976119 
L 1238.323786 362.889455 
L 1239.316492 371.543996 
L 1240.309198 418.750909 
L 1241.301904 364.501407 
L 1242.29461 368.594153 
L 1243.287315 436.401606 
L 1244.280021 366.410544 
L 1245.272727 367.200423 
L 1245.272727 367.200423 
" clip-path="url(#pfbce51025a)" style="fill: none; stroke: #1f77b4; stroke-width: 1.5; stroke-linecap: square"/>
   </g>
   <g id="patch_3">
    <path d="M 180 512.64 
L 180 69.12 
" style="fill: none; stroke: #000000; stroke-width: 0.8; stroke-linejoin: miter; stroke-linecap: square"/>
   </g>
   <g id="patch_4">
    <path d="M 1296 512.64 
L 1296 69.12 
" style="fill: none; stroke: #000000; stroke-width: 0.8; stroke-linejoin: miter; stroke-linecap: square"/>
   </g>
   <g id="patch_5">
    <path d="M 180 512.64 
L 1296 512.64 
" style="fill: none; stroke: #000000; stroke-width: 0.8; stroke-linejoin: miter; stroke-linecap: square"/>
   </g>
   <g id="patch_6">
    <path d="M 180 69.12 
L 1296 69.12 
" style="fill: none; stroke: #000000; stroke-width: 0.8; stroke-linejoin: miter; stroke-linecap: square"/>
   </g>
   <g id="text_13">
    <!-- source13-receiver1 -->
    <g transform="translate(544.9 60.80125) scale(0.4 -0.4)">
     <defs>
      <path id="DejaVuSans-73" d="M 2834 3397 
L 2834 2853 
Q 2591 2978 2328 3040 
Q 2066 3103 1784 3103 
Q 1356 3103 1142 2972 
Q 928 2841 928 2578 
Q 928 2378 1081 2264 
Q 1234 2150 1697 2047 
L 1894 2003 
Q 2506 1872 2764 1633 
Q 3022 1394 3022 966 
Q 3022 478 2636 193 
Q 2250 -91 1575 -91 
Q 1294 -91 989 -36 
Q 684 19 347 128 
L 347 722 
Q 666 556 975 473 
Q 1284 391 1588 391 
Q 1994 391 2212 530 
Q 2431 669 2431 922 
Q 2431 1156 2273 1281 
Q 2116 1406 1581 1522 
L 1381 1569 
Q 847 1681 609 1914 
Q 372 2147 372 2553 
Q 372 3047 722 3315 
Q 1072 3584 1716 3584 
Q 2034 3584 2315 3537 
Q 2597 3491 2834 3397 
z
" transform="scale(0.015625)"/>
      <path id="DejaVuSans-6f" d="M 1959 3097 
Q 1497 3097 1228 2736 
Q 959 2375 959 1747 
Q 959 1119 1226 758 
Q 1494 397 1959 397 
Q 2419 397 2687 759 
Q 2956 1122 2956 1747 
Q 2956 2369 2687 2733 
Q 2419 3097 1959 3097 
z
M 1959 3584 
Q 2709 3584 3137 3096 
Q 3566 2609 3566 1747 
Q 3566 888 3137 398 
Q 2709 -91 1959 -91 
Q 1206 -91 779 398 
Q 353 888 353 1747 
Q 353 2609 779 3096 
Q 1206 3584 1959 3584 
z
" transform="scale(0.015625)"/>
      <path id="DejaVuSans-75" d="M 544 1381 
L 544 3500 
L 1119 3500 
L 1119 1403 
Q 1119 906 1312 657 
Q 1506 409 1894 409 
Q 2359 409 2629 706 
Q 2900 1003 2900 1516 
L 2900 3500 
L 3475 3500 
L 3475 0 
L 2900 0 
L 2900 538 
Q 2691 219 2414 64 
Q 2138 -91 1772 -91 
Q 1169 -91 856 284 
Q 544 659 544 1381 
z
M 1991 3584 
L 1991 3584 
z
" transform="scale(0.015625)"/>
      <path id="DejaVuSans-72" d="M 2631 2963 
Q 2534 3019 2420 3045 
Q 2306 3072 2169 3072 
Q 1681 3072 1420 2755 
Q 1159 2438 1159 1844 
L 1159 0 
L 581 0 
L 581 3500 
L 1159 3500 
L 1159 2956 
Q 1341 3275 1631 3429 
Q 1922 3584 2338 3584 
Q 2397 3584 2469 3576 
Q 2541 3569 2628 3553 
L 2631 2963 
z
" transform="scale(0.015625)"/>
      <path id="DejaVuSans-63" d="M 3122 3366 
L 3122 2828 
Q 2878 2963 2633 3030 
Q 2388 3097 2138 3097 
Q 1578 3097 1268 2742 
Q 959 2388 959 1747 
Q 959 1106 1268 751 
Q 1578 397 2138 397 
Q 2388 397 2633 464 
Q 2878 531 3122 666 
L 3122 134 
Q 2881 22 2623 -34 
Q 2366 -91 2075 -91 
Q 1284 -91 818 406 
Q 353 903 353 1747 
Q 353 2603 823 3093 
Q 1294 3584 2113 3584 
Q 2378 3584 2631 3529 
Q 2884 3475 3122 3366 
z
" transform="scale(0.015625)"/>
      <path id="DejaVuSans-65" d="M 3597 1894 
L 3597 1613 
L 953 1613 
Q 991 1019 1311 708 
Q 1631 397 2203 397 
Q 2534 397 2845 478 
Q 3156 559 3463 722 
L 3463 178 
Q 3153 47 2828 -22 
Q 2503 -91 2169 -91 
Q 1331 -91 842 396 
Q 353 884 353 1716 
Q 353 2575 817 3079 
Q 1281 3584 2069 3584 
Q 2775 3584 3186 3129 
Q 3597 2675 3597 1894 
z
M 3022 2063 
Q 3016 2534 2758 2815 
Q 2500 3097 2075 3097 
Q 1594 3097 1305 2825 
Q 1016 2553 972 2059 
L 3022 2063 
z
" transform="scale(0.015625)"/>
      <path id="DejaVuSans-33" d="M 2597 2516 
Q 3050 2419 3304 2112 
Q 3559 1806 3559 1356 
Q 3559 666 3084 287 
Q 2609 -91 1734 -91 
Q 1441 -91 1130 -33 
Q 819 25 488 141 
L 488 750 
Q 750 597 1062 519 
Q 1375 441 1716 441 
Q 2309 441 2620 675 
Q 2931 909 2931 1356 
Q 2931 1769 2642 2001 
Q 2353 2234 1838 2234 
L 1294 2234 
L 1294 2753 
L 1863 2753 
Q 2328 2753 2575 2939 
Q 2822 3125 2822 3475 
Q 2822 3834 2567 4026 
Q 2313 4219 1838 4219 
Q 1578 4219 1281 4162 
Q 984 4106 628 3988 
L 628 4550 
Q 988 4650 1302 4700 
Q 1616 4750 1894 4750 
Q 2613 4750 3031 4423 
Q 3450 4097 3450 3541 
Q 3450 3153 3228 2886 
Q 3006 2619 2597 2516 
z
" transform="scale(0.015625)"/>
      <path id="DejaVuSans-2d" d="M 313 2009 
L 1997 2009 
L 1997 1497 
L 313 1497 
L 313 2009 
z
" transform="scale(0.015625)"/>
      <path id="DejaVuSans-69" d="M 603 3500 
L 1178 3500 
L 1178 0 
L 603 0 
L 603 3500 
z
M 603 4863 
L 1178 4863 
L 1178 4134 
L 603 4134 
L 603 4863 
z
" transform="scale(0.015625)"/>
      <path id="DejaVuSans-76" d="M 191 3500 
L 800 3500 
L 1894 563 
L 2988 3500 
L 3597 3500 
L 2284 0 
L 1503 0 
L 191 3500 
z
" transform="scale(0.015625)"/>
     </defs>
     <use xlink:href="#DejaVuSans-73"/>
     <use xlink:href="#DejaVuSans-6f" x="52.099609"/>
     <use xlink:href="#DejaVuSans-75" x="113.28125"/>
     <use xlink:href="#DejaVuSans-72" x="176.660156"/>
     <use xlink:href="#DejaVuSans-63" x="215.523438"/>
     <use xlink:href="#DejaVuSans-65" x="270.503906"/>
     <use xlink:href="#DejaVuSans-31" x="332.027344"/>
     <use xlink:href="#DejaVuSans-33" x="395.650391"/>
     <use xlink:href="#DejaVuSans-2d" x="459.273438"/>
     <use xlink:href="#DejaVuSans-72" x="495.357422"/>
     <use xlink:href="#DejaVuSans-65" x="534.220703"/>
     <use xlink:href="#DejaVuSans-63" x="595.744141"/>
     <use xlink:href="#DejaVuSans-65" x="650.724609"/>
     <use xlink:href="#DejaVuSans-69" x="712.248047"/>
     <use xlink:href="#DejaVuSans-76" x="740.03125"/>
     <use xlink:href="#DejaVuSans-65" x="799.210938"/>
     <use xlink:href="#DejaVuSans-72" x="860.734375"/>
     <use xlink:href="#DejaVuSans-31" x="901.847656"/>
    </g>
   </g>
  </g>
 </g>
 <defs>
  <clipPath id="pfbce51025a">
   <rect x="180" y="69.12" width="1116" height="443.52"/>
  </clipPath>
 </defs>
</svg>
