<?xml version="1.0" encoding="utf-8" standalone="no"?>
<!DOCTYPE svg PUBLIC "-//W3C//DTD SVG 1.1//EN"
  "http://www.w3.org/Graphics/SVG/1.1/DTD/svg11.dtd">
<svg xmlns:xlink="http://www.w3.org/1999/xlink" width="1440pt" height="576pt" viewBox="0 0 1440 576" xmlns="http://www.w3.org/2000/svg" version="1.1">
 <metadata>
  <rdf:RDF xmlns:dc="http://purl.org/dc/elements/1.1/" xmlns:cc="http://creativecommons.org/ns#" xmlns:rdf="http://www.w3.org/1999/02/22-rdf-syntax-ns#">
   <cc:Work>
    <dc:type rdf:resource="http://purl.org/dc/dcmitype/StillImage"/>
    <dc:date>2024-05-22T04:50:04.438251</dc:date>
    <dc:format>image/svg+xml</dc:format>
    <dc:creator>
     <cc:Agent>
      <dc:title>Matplotlib v3.8.3, https://matplotlib.org/</dc:title>
     </cc:Agent>
    </dc:creator>
   </cc:Work>
  </rdf:RDF>
 </metadata>
 <defs>
  <style type="text/css">*{stroke-linejoin: round; stroke-linecap: butt}</style>
 </defs>
 <g id="figure_1">
  <g id="patch_1">
   <path d="M 0 576 
L 1440 576 
L 1440 0 
L 0 0 
z
" style="fill: #ffffff"/>
  </g>
  <g id="axes_1">
   <g id="patch_2">
    <path d="M 180 512.64 
L 1296 512.64 
L 1296 69.12 
L 180 69.12 
z
" style="fill: #ffffff"/>
   </g>
   <g id="matplotlib.axis_1">
    <g id="xtick_1">
     <g id="line2d_1">
      <defs>
       <path id="m96ff1523a2" d="M 0 0 
L 0 3.5 
" style="stroke: #000000; stroke-width: 0.8"/>
      </defs>
      <g>
       <use xlink:href="#m96ff1523a2" x="229.734567" y="512.64" style="stroke: #000000; stroke-width: 0.8"/>
      </g>
     </g>
     <g id="text_1">
      <!-- 0 -->
      <g transform="translate(226.553317 527.238438) scale(0.1 -0.1)">
       <defs>
        <path id="DejaVuSans-30" d="M 2034 4250 
Q 1547 4250 1301 3770 
Q 1056 3291 1056 2328 
Q 1056 1369 1301 889 
Q 1547 409 2034 409 
Q 2525 409 2770 889 
Q 3016 1369 3016 2328 
Q 3016 3291 2770 3770 
Q 2525 4250 2034 4250 
z
M 2034 4750 
Q 2819 4750 3233 4129 
Q 3647 3509 3647 2328 
Q 3647 1150 3233 529 
Q 2819 -91 2034 -91 
Q 1250 -91 836 529 
Q 422 1150 422 2328 
Q 422 3509 836 4129 
Q 1250 4750 2034 4750 
z
" transform="scale(0.015625)"/>
       </defs>
       <use xlink:href="#DejaVuSans-30"/>
      </g>
     </g>
    </g>
    <g id="xtick_2">
     <g id="line2d_2">
      <g>
       <use xlink:href="#m96ff1523a2" x="433.04074" y="512.64" style="stroke: #000000; stroke-width: 0.8"/>
      </g>
     </g>
     <g id="text_2">
      <!-- 500 -->
      <g transform="translate(423.49699 527.238438) scale(0.1 -0.1)">
       <defs>
        <path id="DejaVuSans-35" d="M 691 4666 
L 3169 4666 
L 3169 4134 
L 1269 4134 
L 1269 2991 
Q 1406 3038 1543 3061 
Q 1681 3084 1819 3084 
Q 2600 3084 3056 2656 
Q 3513 2228 3513 1497 
Q 3513 744 3044 326 
Q 2575 -91 1722 -91 
Q 1428 -91 1123 -41 
Q 819 9 494 109 
L 494 744 
Q 775 591 1075 516 
Q 1375 441 1709 441 
Q 2250 441 2565 725 
Q 2881 1009 2881 1497 
Q 2881 1984 2565 2268 
Q 2250 2553 1709 2553 
Q 1456 2553 1204 2497 
Q 953 2441 691 2322 
L 691 4666 
z
" transform="scale(0.015625)"/>
       </defs>
       <use xlink:href="#DejaVuSans-35"/>
       <use xlink:href="#DejaVuSans-30" x="63.623047"/>
       <use xlink:href="#DejaVuSans-30" x="127.246094"/>
      </g>
     </g>
    </g>
    <g id="xtick_3">
     <g id="line2d_3">
      <g>
       <use xlink:href="#m96ff1523a2" x="636.346913" y="512.64" style="stroke: #000000; stroke-width: 0.8"/>
      </g>
     </g>
     <g id="text_3">
      <!-- 1000 -->
      <g transform="translate(623.621913 527.238438) scale(0.1 -0.1)">
       <defs>
        <path id="DejaVuSans-31" d="M 794 531 
L 1825 531 
L 1825 4091 
L 703 3866 
L 703 4441 
L 1819 4666 
L 2450 4666 
L 2450 531 
L 3481 531 
L 3481 0 
L 794 0 
L 794 531 
z
" transform="scale(0.015625)"/>
       </defs>
       <use xlink:href="#DejaVuSans-31"/>
       <use xlink:href="#DejaVuSans-30" x="63.623047"/>
       <use xlink:href="#DejaVuSans-30" x="127.246094"/>
       <use xlink:href="#DejaVuSans-30" x="190.869141"/>
      </g>
     </g>
    </g>
    <g id="xtick_4">
     <g id="line2d_4">
      <g>
       <use xlink:href="#m96ff1523a2" x="839.653087" y="512.64" style="stroke: #000000; stroke-width: 0.8"/>
      </g>
     </g>
     <g id="text_4">
      <!-- 1500 -->
      <g transform="translate(826.928087 527.238438) scale(0.1 -0.1)">
       <use xlink:href="#DejaVuSans-31"/>
       <use xlink:href="#DejaVuSans-35" x="63.623047"/>
       <use xlink:href="#DejaVuSans-30" x="127.246094"/>
       <use xlink:href="#DejaVuSans-30" x="190.869141"/>
      </g>
     </g>
    </g>
    <g id="xtick_5">
     <g id="line2d_5">
      <g>
       <use xlink:href="#m96ff1523a2" x="1042.95926" y="512.64" style="stroke: #000000; stroke-width: 0.8"/>
      </g>
     </g>
     <g id="text_5">
      <!-- 2000 -->
      <g transform="translate(1030.23426 527.238438) scale(0.1 -0.1)">
       <defs>
        <path id="DejaVuSans-32" d="M 1228 531 
L 3431 531 
L 3431 0 
L 469 0 
L 469 531 
Q 828 903 1448 1529 
Q 2069 2156 2228 2338 
Q 2531 2678 2651 2914 
Q 2772 3150 2772 3378 
Q 2772 3750 2511 3984 
Q 2250 4219 1831 4219 
Q 1534 4219 1204 4116 
Q 875 4013 500 3803 
L 500 4441 
Q 881 4594 1212 4672 
Q 1544 4750 1819 4750 
Q 2544 4750 2975 4387 
Q 3406 4025 3406 3419 
Q 3406 3131 3298 2873 
Q 3191 2616 2906 2266 
Q 2828 2175 2409 1742 
Q 1991 1309 1228 531 
z
" transform="scale(0.015625)"/>
       </defs>
       <use xlink:href="#DejaVuSans-32"/>
       <use xlink:href="#DejaVuSans-30" x="63.623047"/>
       <use xlink:href="#DejaVuSans-30" x="127.246094"/>
       <use xlink:href="#DejaVuSans-30" x="190.869141"/>
      </g>
     </g>
    </g>
    <g id="xtick_6">
     <g id="line2d_6">
      <g>
       <use xlink:href="#m96ff1523a2" x="1246.265433" y="512.64" style="stroke: #000000; stroke-width: 0.8"/>
      </g>
     </g>
     <g id="text_6">
      <!-- 2500 -->
      <g transform="translate(1233.540433 527.238438) scale(0.1 -0.1)">
       <use xlink:href="#DejaVuSans-32"/>
       <use xlink:href="#DejaVuSans-35" x="63.623047"/>
       <use xlink:href="#DejaVuSans-30" x="127.246094"/>
       <use xlink:href="#DejaVuSans-30" x="190.869141"/>
      </g>
     </g>
    </g>
   </g>
   <g id="matplotlib.axis_2">
    <g id="ytick_1">
     <g id="line2d_7">
      <defs>
       <path id="m033f973cff" d="M 0 0 
L -3.5 0 
" style="stroke: #000000; stroke-width: 0.8"/>
      </defs>
      <g>
       <use xlink:href="#m033f973cff" x="180" y="452.20467" style="stroke: #000000; stroke-width: 0.8"/>
      </g>
     </g>
     <g id="text_7">
      <!-- −4 -->
      <g transform="translate(158.257812 456.003888) scale(0.1 -0.1)">
       <defs>
        <path id="DejaVuSans-2212" d="M 678 2272 
L 4684 2272 
L 4684 1741 
L 678 1741 
L 678 2272 
z
" transform="scale(0.015625)"/>
        <path id="DejaVuSans-34" d="M 2419 4116 
L 825 1625 
L 2419 1625 
L 2419 4116 
z
M 2253 4666 
L 3047 4666 
L 3047 1625 
L 3713 1625 
L 3713 1100 
L 3047 1100 
L 3047 0 
L 2419 0 
L 2419 1100 
L 313 1100 
L 313 1709 
L 2253 4666 
z
" transform="scale(0.015625)"/>
       </defs>
       <use xlink:href="#DejaVuSans-2212"/>
       <use xlink:href="#DejaVuSans-34" x="83.789062"/>
      </g>
     </g>
    </g>
    <g id="ytick_2">
     <g id="line2d_8">
      <g>
       <use xlink:href="#m033f973cff" x="180" y="365.905947" style="stroke: #000000; stroke-width: 0.8"/>
      </g>
     </g>
     <g id="text_8">
      <!-- −2 -->
      <g transform="translate(158.257812 369.705165) scale(0.1 -0.1)">
       <use xlink:href="#DejaVuSans-2212"/>
       <use xlink:href="#DejaVuSans-32" x="83.789062"/>
      </g>
     </g>
    </g>
    <g id="ytick_3">
     <g id="line2d_9">
      <g>
       <use xlink:href="#m033f973cff" x="180" y="279.607223" style="stroke: #000000; stroke-width: 0.8"/>
      </g>
     </g>
     <g id="text_9">
      <!-- 0 -->
      <g transform="translate(166.6375 283.406442) scale(0.1 -0.1)">
       <use xlink:href="#DejaVuSans-30"/>
      </g>
     </g>
    </g>
    <g id="ytick_4">
     <g id="line2d_10">
      <g>
       <use xlink:href="#m033f973cff" x="180" y="193.3085" style="stroke: #000000; stroke-width: 0.8"/>
      </g>
     </g>
     <g id="text_10">
      <!-- 2 -->
      <g transform="translate(166.6375 197.107719) scale(0.1 -0.1)">
       <use xlink:href="#DejaVuSans-32"/>
      </g>
     </g>
    </g>
    <g id="ytick_5">
     <g id="line2d_11">
      <g>
       <use xlink:href="#m033f973cff" x="180" y="107.009777" style="stroke: #000000; stroke-width: 0.8"/>
      </g>
     </g>
     <g id="text_11">
      <!-- 4 -->
      <g transform="translate(166.6375 110.808996) scale(0.1 -0.1)">
       <use xlink:href="#DejaVuSans-34"/>
      </g>
     </g>
    </g>
   </g>
   <g id="line2d_12">
    <path d="M 230.727273 317.245783 
L 231.719979 317.371356 
L 232.712685 317.056778 
L 233.70539 317.254334 
L 235.690802 316.825118 
L 236.683508 316.903979 
L 237.676214 316.618044 
L 238.66892 316.69319 
L 240.654332 316.473434 
L 241.647038 316.502789 
L 242.639744 316.652097 
L 243.63245 317.135828 
L 244.625156 317.201678 
L 245.617862 318.261781 
L 246.610568 331.667165 
L 247.603273 339.898125 
L 248.595979 323.123351 
L 249.588685 261.137471 
L 250.581391 217.166277 
L 251.574097 194.401063 
L 252.566803 186.777125 
L 253.559509 191.159326 
L 254.552215 200.996835 
L 255.544921 208.362703 
L 256.537627 208.573733 
L 257.530333 210.125412 
L 258.523039 209.991689 
L 259.515745 203.645573 
L 260.50845 211.120831 
L 261.501156 252.504812 
L 262.493862 264.942857 
L 263.486568 226.442266 
L 264.479274 226.42209 
L 265.47198 270.654319 
L 266.464686 237.752461 
L 267.457392 257.418051 
L 268.450098 226.463916 
L 269.442804 212.924075 
L 270.43551 227.988516 
L 271.428216 231.372159 
L 272.420922 231.907628 
L 273.413627 217.863898 
L 274.406333 248.062704 
L 275.399039 222.664113 
L 276.391745 253.143017 
L 277.384451 210.58412 
L 278.377157 178.405724 
L 279.369863 152.525858 
L 280.362569 141.457669 
L 281.355275 168.610658 
L 282.347981 121.085156 
L 283.340687 92.756993 
L 284.333393 89.28 
L 285.326099 104.419501 
L 286.318804 124.272075 
L 287.31151 133.006644 
L 288.304216 156.981499 
L 290.289628 178.878939 
L 291.282334 207.669924 
L 292.27504 213.753731 
L 293.267746 215.497534 
L 294.260452 200.132601 
L 295.253158 225.839179 
L 296.245864 231.748612 
L 297.23857 243.361502 
L 298.231276 239.730768 
L 299.223981 242.217863 
L 300.216687 299.967463 
L 301.209393 287.077529 
L 302.202099 323.563884 
L 303.194805 257.799789 
L 304.187511 261.154926 
L 305.180217 273.237643 
L 306.172923 297.727239 
L 307.165629 328.269532 
L 308.158335 289.746447 
L 309.151041 296.457486 
L 310.143747 287.241998 
L 312.129159 328.358852 
L 313.121864 298.377562 
L 314.11457 305.106377 
L 315.107276 316.548669 
L 316.099982 335.35304 
L 317.092688 321.435052 
L 318.085394 314.181904 
L 319.0781 321.131239 
L 320.070806 332.51546 
L 321.063512 329.014934 
L 322.056218 323.055524 
L 323.048924 325.814702 
L 324.04163 327.19814 
L 325.034336 332.763514 
L 326.027041 331.497398 
L 327.019747 328.49612 
L 328.012453 333.356802 
L 329.005159 343.74905 
L 329.997865 332.009351 
L 330.990571 340.372212 
L 331.983277 351.713544 
L 332.975983 336.830844 
L 333.968689 345.890791 
L 334.961395 342.525615 
L 335.954101 345.491241 
L 336.946807 343.901181 
L 337.939513 332.604481 
L 338.932218 351.444343 
L 339.924924 351.610775 
L 340.91763 343.240271 
L 341.910336 342.600085 
L 342.903042 350.282804 
L 343.895748 359.098873 
L 344.888454 349.454295 
L 345.88116 353.938029 
L 346.873866 344.607783 
L 347.866572 347.01123 
L 348.859278 352.884488 
L 349.851984 357.902965 
L 350.84469 353.176648 
L 351.837395 358.346188 
L 352.830101 345.869704 
L 353.822807 348.31605 
L 354.815513 355.9344 
L 355.808219 355.876081 
L 356.800925 366.088053 
L 357.793631 363.05534 
L 358.786337 373.755015 
L 359.779043 350.863755 
L 360.771749 356.864433 
L 361.764455 356.018631 
L 362.757161 360.199779 
L 363.749867 383.228965 
L 364.742572 363.805258 
L 365.735278 361.738221 
L 366.727984 360.341298 
L 367.72069 361.986857 
L 368.713396 353.544937 
L 369.706102 363.407213 
L 370.698808 370.631811 
L 371.691514 363.168103 
L 372.68422 386.175987 
L 373.676926 378.880431 
L 374.669632 380.210187 
L 375.662338 383.234648 
L 376.655044 369.440591 
L 377.64775 370.755667 
L 378.640455 370.480611 
L 379.633161 364.356402 
L 380.625867 367.687764 
L 381.618573 380.186688 
L 382.611279 368.325039 
L 383.603985 370.702788 
L 384.596691 377.085245 
L 385.589397 377.758733 
L 386.582103 374.093494 
L 387.574809 377.852756 
L 388.567515 372.56106 
L 389.560221 386.285057 
L 390.552927 372.333942 
L 391.545632 382.366374 
L 392.538338 384.242756 
L 393.531044 384.831034 
L 394.52375 370.678599 
L 395.516456 385.515116 
L 396.509162 377.167814 
L 397.501868 380.912697 
L 398.494574 380.610467 
L 399.48728 374.234102 
L 400.479986 380.877121 
L 401.472692 381.215612 
L 402.465398 366.0094 
L 403.458104 389.623839 
L 404.450809 369.099375 
L 405.443515 383.143575 
L 406.436221 368.161409 
L 407.428927 378.868002 
L 408.421633 397.725706 
L 409.414339 380.334852 
L 411.399751 384.264496 
L 412.392457 384.454991 
L 413.385163 391.617662 
L 414.377869 391.828589 
L 415.370575 387.741382 
L 416.363281 386.09312 
L 417.355986 396.555448 
L 418.348692 381.02964 
L 419.341398 402.478388 
L 420.334104 400.02783 
L 421.32681 380.366314 
L 422.319516 374.625298 
L 423.312222 383.505004 
L 424.304928 396.138785 
L 425.297634 389.235298 
L 426.29034 389.548277 
L 427.283046 401.901454 
L 428.275752 371.771846 
L 429.268458 404.197199 
L 430.261163 389.573576 
L 431.253869 395.865809 
L 432.246575 390.56412 
L 433.239281 381.660574 
L 434.231987 387.142689 
L 436.217399 416.105908 
L 437.210105 403.982016 
L 438.202811 400.296477 
L 439.195517 379.990786 
L 440.188223 386.501011 
L 441.180929 406.850243 
L 442.173635 416.245538 
L 443.166341 381.40725 
L 444.159046 393.677246 
L 445.151752 387.94917 
L 446.144458 376.125515 
L 447.137164 410.322243 
L 448.12987 378.846631 
L 449.122576 395.085335 
L 450.115282 381.64329 
L 451.107988 402.896657 
L 452.100694 418.436135 
L 453.0934 489.22612 
L 454.086106 397.578201 
L 455.078812 391.014448 
L 456.071518 404.110949 
L 457.064223 401.469072 
L 458.056929 414.356279 
L 459.049635 397.910088 
L 460.042341 377.536982 
L 461.035047 382.557682 
L 462.027753 371.530157 
L 463.020459 399.098191 
L 464.013165 382.2345 
L 465.005871 382.401246 
L 465.998577 412.712023 
L 466.991283 397.762495 
L 467.983989 388.408614 
L 468.976695 415.221383 
L 469.9694 415.916752 
L 470.962106 441.32062 
L 471.954812 387.969014 
L 472.947518 406.236995 
L 473.940224 410.462702 
L 474.93293 381.153851 
L 475.925636 388.710354 
L 476.918342 407.581126 
L 477.911048 392.695468 
L 478.903754 422.069418 
L 479.89646 400.86582 
L 480.889166 395.871482 
L 481.881872 428.157895 
L 482.874577 404.131515 
L 483.867283 386.06583 
L 484.859989 393.714363 
L 485.852695 400.021815 
L 486.845401 410.61474 
L 487.838107 395.021559 
L 488.830813 416.973593 
L 489.823519 377.787685 
L 490.816225 400.55869 
L 491.808931 419.156279 
L 492.801637 389.688608 
L 493.794343 399.710437 
L 494.787049 406.314483 
L 495.779754 396.815068 
L 496.77246 384.93586 
L 497.765166 397.821757 
L 498.757872 400.768784 
L 499.750578 413.17779 
L 500.743284 382.065535 
L 501.73599 396.143971 
L 502.728696 402.724972 
L 503.721402 390.678048 
L 504.714108 405.550353 
L 505.706814 400.358843 
L 506.69952 386.423171 
L 507.692226 398.919113 
L 508.684932 393.21498 
L 509.677637 429.113605 
L 510.670343 407.278811 
L 511.663049 417.265819 
L 512.655755 391.589325 
L 513.648461 447.547299 
L 514.641167 393.960949 
L 515.633873 387.170357 
L 516.626579 382.810175 
L 517.619285 404.027454 
L 518.611991 400.047769 
L 519.604697 387.039845 
L 520.597403 385.087814 
L 521.590109 392.184225 
L 522.582814 381.345978 
L 523.57552 387.180085 
L 524.568226 399.70516 
L 525.560932 403.933435 
L 526.553638 432.166562 
L 527.546344 429.001042 
L 528.53905 397.664041 
L 529.531756 406.861912 
L 530.524462 380.664433 
L 531.517168 401.229935 
L 532.509874 437.441334 
L 533.50258 406.84083 
L 534.495286 405.058432 
L 535.487991 393.905314 
L 536.480697 390.616051 
L 537.473403 388.063423 
L 538.466109 456.570046 
L 539.458815 456.817544 
L 540.451521 411.64288 
L 541.444227 391.092075 
L 542.436933 374.43715 
L 543.429639 417.973816 
L 544.422345 474.766645 
L 545.415051 381.867703 
L 546.407757 389.438562 
L 547.400463 407.60985 
L 548.393168 404.744447 
L 549.385874 426.063633 
L 550.37858 419.928534 
L 551.371286 385.102189 
L 552.363992 407.661706 
L 553.356698 394.953408 
L 554.349404 403.991 
L 555.34211 440.28294 
L 556.334816 404.94908 
L 557.327522 398.283993 
L 558.320228 425.417513 
L 559.312934 446.798982 
L 560.30564 492.48 
L 561.298345 444.755416 
L 562.291051 378.904612 
L 563.283757 415.874541 
L 564.276463 396.504979 
L 565.269169 434.683617 
L 566.261875 427.805358 
L 567.254581 386.937593 
L 568.247287 467.143622 
L 569.239993 411.013023 
L 570.232699 417.018262 
L 572.218111 393.489326 
L 573.210817 417.450233 
L 574.203523 419.536962 
L 575.196228 404.979749 
L 576.188934 419.161616 
L 577.18164 392.829881 
L 578.174346 416.588418 
L 579.167052 396.095304 
L 580.159758 391.261935 
L 581.152464 394.487121 
L 583.137876 442.931373 
L 584.130582 405.455646 
L 585.123288 465.593211 
L 586.115994 434.467403 
L 587.1087 432.600444 
L 588.101405 400.328756 
L 589.094111 424.899052 
L 590.086817 437.896603 
L 591.079523 448.119326 
L 592.072229 403.300471 
L 593.064935 404.6387 
L 594.057641 430.38576 
L 595.050347 463.59702 
L 596.043053 438.483135 
L 597.035759 402.803872 
L 598.028465 448.474002 
L 599.021171 437.979687 
L 600.013877 410.346215 
L 601.006582 437.897625 
L 601.999288 406.260463 
L 602.991994 422.227064 
L 603.9847 426.14745 
L 604.977406 439.781368 
L 605.970112 451.329795 
L 606.962818 401.04413 
L 607.955524 433.539302 
L 608.94823 433.427024 
L 609.940936 421.828534 
L 610.933642 414.16518 
L 611.926348 412.024111 
L 612.919054 415.69641 
L 613.911759 407.19843 
L 614.904465 412.355396 
L 615.897171 413.564787 
L 616.889877 415.7168 
L 617.882583 415.934227 
L 618.875289 408.42296 
L 619.867995 425.372277 
L 620.860701 409.227508 
L 621.853407 410.938 
L 622.846113 427.128988 
L 623.838819 438.21235 
L 624.831525 426.255064 
L 625.824231 435.864565 
L 626.816936 417.087122 
L 627.809642 407.009606 
L 628.802348 435.258586 
L 629.795054 418.565571 
L 630.78776 413.500875 
L 631.780466 438.199437 
L 632.773172 416.06849 
L 633.765878 432.924895 
L 634.758584 409.521417 
L 635.75129 439.214316 
L 636.743996 430.282953 
L 637.736702 422.42253 
L 638.729408 421.64626 
L 639.722114 429.254459 
L 640.714819 414.049702 
L 641.707525 434.967859 
L 642.700231 423.035671 
L 643.692937 423.546661 
L 644.685643 424.457449 
L 645.678349 425.777672 
L 646.671055 425.019032 
L 647.663761 436.374644 
L 648.656467 422.335374 
L 649.649173 424.007416 
L 650.641879 449.751001 
L 651.634585 423.776684 
L 652.627291 413.319324 
L 653.619996 420.745197 
L 654.612702 435.790251 
L 655.605408 419.286048 
L 656.598114 424.360271 
L 657.59082 420.919733 
L 658.583526 430.430068 
L 659.576232 429.037477 
L 660.568938 419.952594 
L 661.561644 422.64539 
L 662.55435 421.260803 
L 663.547056 427.822718 
L 664.539762 430.484263 
L 665.532468 426.448225 
L 666.525173 429.038552 
L 667.517879 421.459594 
L 668.510585 429.174965 
L 669.503291 427.158611 
L 670.495997 424.219269 
L 671.488703 427.799551 
L 672.481409 437.834808 
L 673.474115 424.709265 
L 674.466821 429.80218 
L 675.459527 427.426699 
L 676.452233 417.353726 
L 677.444939 428.666861 
L 678.437645 432.546515 
L 679.43035 424.385559 
L 680.423056 426.738903 
L 681.415762 428.350229 
L 682.408468 426.421537 
L 683.401174 429.913213 
L 684.39388 425.135163 
L 685.386586 432.319409 
L 686.379292 425.242625 
L 687.371998 430.876352 
L 688.364704 426.524502 
L 689.35741 428.310732 
L 690.350116 429.138838 
L 691.342822 429.479828 
L 692.335527 430.401788 
L 693.328233 427.066264 
L 694.320939 426.924577 
L 695.313645 431.844385 
L 696.306351 429.22343 
L 698.291763 434.733853 
L 699.284469 430.812385 
L 700.277175 433.290979 
L 701.269881 427.820209 
L 702.262587 429.906418 
L 703.255293 430.656353 
L 704.247999 427.91099 
L 705.240705 429.48026 
L 706.23341 430.383114 
L 707.226116 432.105347 
L 708.218822 434.715334 
L 709.211528 430.572369 
L 710.204234 431.634647 
L 711.19694 431.59659 
L 712.189646 428.675711 
L 713.182352 430.806381 
L 714.175058 431.712068 
L 715.167764 436.294209 
L 716.16047 431.173996 
L 717.153176 431.316066 
L 718.145882 430.876985 
L 719.138587 432.365637 
L 721.123999 428.56397 
L 722.116705 432.072252 
L 723.109411 431.428843 
L 724.102117 430.564672 
L 725.094823 433.523959 
L 727.080235 427.779834 
L 728.072941 430.884822 
L 729.065647 431.388611 
L 730.058353 432.276821 
L 731.051059 429.183021 
L 732.043764 433.105868 
L 733.03647 431.26092 
L 734.029176 435.170815 
L 735.021882 432.825316 
L 736.014588 428.548837 
L 737.007294 435.74503 
L 738 431.402173 
L 738.992706 431.426773 
L 740.978118 433.619539 
L 741.970824 436.097989 
L 742.96353 433.071563 
L 743.956236 435.304203 
L 744.948941 431.475488 
L 745.941647 432.703794 
L 746.934353 434.672833 
L 747.927059 433.067821 
L 748.919765 433.641015 
L 749.912471 431.038088 
L 750.905177 431.104089 
L 751.897883 435.199357 
L 752.890589 432.211359 
L 753.883295 432.952934 
L 754.876001 431.738032 
L 755.868707 433.632852 
L 756.861413 433.713092 
L 757.854118 432.893609 
L 758.846824 436.028321 
L 759.83953 436.059769 
L 760.832236 432.021102 
L 761.824942 436.699834 
L 762.817648 436.081006 
L 763.810354 432.318175 
L 765.795766 435.647517 
L 766.788472 435.717471 
L 767.781178 435.276787 
L 768.773884 433.93484 
L 769.76659 434.476172 
L 770.759295 434.072622 
L 771.752001 437.245485 
L 772.744707 435.411882 
L 773.737413 435.061615 
L 774.730119 436.479427 
L 775.722825 434.486174 
L 776.715531 435.691758 
L 777.708237 433.541705 
L 778.700943 436.259686 
L 779.693649 436.714765 
L 780.686355 434.565981 
L 781.679061 438.994767 
L 782.671767 437.302901 
L 783.664473 433.925418 
L 784.657178 433.207047 
L 785.649884 435.780957 
L 786.64259 439.777478 
L 787.635296 438.064237 
L 788.628002 435.955283 
L 789.620708 434.108662 
L 790.613414 434.469145 
L 791.60612 435.801114 
L 793.591532 435.675792 
L 794.584238 438.684113 
L 795.576944 437.241355 
L 796.56965 436.069078 
L 797.562355 439.333837 
L 798.555061 438.38852 
L 799.547767 436.439251 
L 800.540473 435.126277 
L 801.533179 436.672449 
L 802.525885 437.487216 
L 803.518591 439.157485 
L 804.511297 438.594926 
L 805.504003 435.387645 
L 806.496709 435.637099 
L 807.489415 436.566431 
L 808.482121 438.478987 
L 809.474827 437.912749 
L 810.467532 436.977294 
L 811.460238 438.863298 
L 812.452944 436.659041 
L 813.44565 438.256332 
L 814.438356 439.613677 
L 815.431062 435.667408 
L 816.423768 435.156655 
L 817.416474 436.509429 
L 818.40918 439.420671 
L 819.401886 437.495914 
L 820.394592 439.147938 
L 821.387298 438.485999 
L 822.380004 437.167373 
L 823.372709 438.647569 
L 825.358121 438.859221 
L 826.350827 438.33196 
L 827.343533 439.147023 
L 828.336239 441.544028 
L 829.328945 439.181291 
L 830.321651 435.529525 
L 831.314357 438.179832 
L 832.307063 438.433454 
L 833.299769 436.620654 
L 834.292475 437.402818 
L 835.285181 440.601951 
L 836.277886 437.395579 
L 837.270592 441.224544 
L 838.263298 439.16013 
L 839.256004 436.248005 
L 840.24871 436.957272 
L 841.241416 439.746756 
L 842.234122 437.894963 
L 843.226828 438.190761 
L 844.219534 435.690921 
L 845.21224 440.923998 
L 846.204946 439.411827 
L 847.197652 439.455682 
L 848.190358 438.763667 
L 849.183064 436.450388 
L 850.175769 437.404425 
L 851.168475 435.988122 
L 852.161181 439.619817 
L 853.153887 439.293991 
L 854.146593 437.757835 
L 855.139299 439.687784 
L 856.132005 436.817429 
L 857.124711 438.768208 
L 858.117417 440.156785 
L 859.110123 440.433715 
L 860.102829 436.726649 
L 861.095535 439.492492 
L 862.088241 438.941853 
L 863.080946 440.280107 
L 864.073652 439.941515 
L 865.066358 438.421572 
L 866.059064 441.707455 
L 867.05177 438.252448 
L 868.044476 438.680513 
L 869.037182 440.384771 
L 870.029888 439.580992 
L 871.022594 440.15781 
L 872.0153 438.879407 
L 873.008006 441.915266 
L 874.000712 441.270033 
L 874.993418 440.478397 
L 875.986123 440.549047 
L 876.978829 439.235297 
L 877.971535 439.738178 
L 878.964241 438.033342 
L 879.956947 440.233806 
L 880.949653 440.864454 
L 882.935065 441.107695 
L 883.927771 442.827021 
L 884.920477 440.207763 
L 885.913183 439.557089 
L 886.905889 440.057284 
L 887.898595 442.163489 
L 888.8913 442.960154 
L 889.884006 441.877798 
L 890.876712 441.660216 
L 891.869418 443.0258 
L 892.862124 440.179409 
L 893.85483 440.083679 
L 894.847536 441.055683 
L 895.840242 442.484008 
L 896.832948 441.160188 
L 897.825654 441.788845 
L 898.81836 439.798384 
L 899.811066 441.328352 
L 900.803772 442.019942 
L 901.796477 437.967364 
L 902.789183 440.166964 
L 903.781889 444.251146 
L 904.774595 443.574852 
L 905.767301 441.962732 
L 906.760007 442.111374 
L 907.752713 440.078257 
L 908.745419 438.788645 
L 909.738125 442.493119 
L 910.730831 439.601297 
L 911.723537 443.075558 
L 912.716243 441.792568 
L 913.708949 441.035717 
L 915.69436 446.977495 
L 916.687066 441.984841 
L 917.679772 443.386732 
L 918.672478 440.797827 
L 919.665184 440.717598 
L 920.65789 444.473206 
L 921.650596 441.658255 
L 922.643302 445.884005 
L 924.628714 439.841796 
L 925.62142 444.135233 
L 927.606832 443.586401 
L 928.599537 441.509121 
L 929.592243 446.106892 
L 930.584949 441.493901 
L 931.577655 441.881185 
L 932.570361 443.054913 
L 933.563067 444.664188 
L 934.555773 444.219086 
L 935.548479 441.559928 
L 937.533891 440.138064 
L 939.519303 444.690284 
L 940.512009 441.451871 
L 941.504714 443.648823 
L 942.49742 444.113527 
L 943.490126 443.926978 
L 944.482832 444.845635 
L 945.475538 442.436821 
L 946.468244 440.908973 
L 947.46095 441.442654 
L 948.453656 446.714293 
L 949.446362 444.875012 
L 950.439068 442.192427 
L 951.431774 444.855017 
L 952.42448 445.331607 
L 953.417186 443.364863 
L 954.409891 443.568913 
L 955.402597 443.508356 
L 956.395303 442.208085 
L 957.388009 444.759636 
L 958.380715 442.517877 
L 959.373421 444.394701 
L 960.366127 440.550992 
L 961.358833 443.738942 
L 962.351539 443.889033 
L 963.344245 441.940685 
L 964.336951 443.871966 
L 965.329657 444.550798 
L 966.322363 444.311005 
L 967.315068 446.109336 
L 968.307774 441.714377 
L 969.30048 443.081052 
L 970.293186 443.476795 
L 971.285892 444.466415 
L 972.278598 443.735572 
L 973.271304 443.426406 
L 974.26401 443.528665 
L 975.256716 445.929855 
L 976.249422 442.041684 
L 977.242128 443.352998 
L 978.234834 440.945194 
L 979.22754 444.172527 
L 980.220246 444.463093 
L 981.212951 445.571135 
L 982.205657 444.50216 
L 983.198363 444.736585 
L 984.191069 446.337372 
L 985.183775 443.755533 
L 986.176481 443.954255 
L 987.169187 445.895148 
L 988.161893 442.168721 
L 989.154599 443.053515 
L 990.147305 446.219751 
L 991.140011 444.998752 
L 992.132717 444.247602 
L 993.125423 444.59024 
L 994.118128 444.142702 
L 995.110834 446.615334 
L 996.10354 444.322561 
L 997.096246 446.340987 
L 998.088952 445.487623 
L 999.081658 445.636891 
L 1000.074364 444.308319 
L 1001.06707 446.528774 
L 1002.059776 442.048784 
L 1003.052482 445.435834 
L 1004.045188 443.619398 
L 1005.037894 444.249232 
L 1006.0306 444.216616 
L 1007.023305 446.425343 
L 1008.016011 443.149878 
L 1009.008717 443.813697 
L 1010.001423 446.96359 
L 1010.994129 445.744106 
L 1011.986835 445.467567 
L 1012.979541 444.535007 
L 1013.972247 444.006587 
L 1014.964953 445.73179 
L 1015.957659 442.836725 
L 1016.950365 445.894606 
L 1017.943071 445.795866 
L 1018.935777 445.111445 
L 1019.928482 444.952606 
L 1020.921188 442.209875 
L 1021.913894 445.005407 
L 1022.9066 449.067656 
L 1023.899306 448.561468 
L 1024.892012 447.927457 
L 1025.884718 446.917874 
L 1026.877424 446.3557 
L 1027.87013 444.334893 
L 1028.862836 445.616094 
L 1029.855542 446.59737 
L 1030.848248 445.367217 
L 1031.840954 445.023427 
L 1032.833659 445.520891 
L 1033.826365 447.271658 
L 1034.819071 443.321402 
L 1035.811777 448.387969 
L 1036.804483 443.82155 
L 1037.797189 445.350834 
L 1038.789895 448.873861 
L 1039.782601 446.361994 
L 1040.775307 446.49245 
L 1041.768013 445.322384 
L 1042.760719 446.467785 
L 1043.753425 445.432045 
L 1044.746131 446.27569 
L 1045.738837 445.962344 
L 1046.731542 447.911068 
L 1047.724248 447.232984 
L 1048.716954 442.961866 
L 1049.70966 445.263686 
L 1050.702366 446.77859 
L 1051.695072 445.915172 
L 1052.687778 446.96174 
L 1053.680484 446.499582 
L 1054.67319 448.890328 
L 1055.665896 449.046831 
L 1056.658602 446.331003 
L 1057.651308 446.610526 
L 1058.644014 444.067888 
L 1059.636719 447.222172 
L 1060.629425 445.792328 
L 1061.622131 445.621771 
L 1062.614837 447.288686 
L 1063.607543 445.97808 
L 1064.600249 446.314623 
L 1065.592955 445.853458 
L 1066.585661 444.366521 
L 1067.578367 445.101867 
L 1068.571073 442.53371 
L 1069.563779 447.923693 
L 1070.556485 450.396492 
L 1071.549191 446.683564 
L 1072.541896 447.39557 
L 1073.534602 444.665419 
L 1075.520014 447.630932 
L 1076.51272 446.221116 
L 1077.505426 446.141768 
L 1078.498132 451.975443 
L 1079.490838 446.541123 
L 1080.483544 445.937198 
L 1081.47625 446.101638 
L 1082.468956 448.866806 
L 1083.461662 449.145184 
L 1084.454368 446.31512 
L 1085.447073 446.114955 
L 1086.439779 445.790634 
L 1087.432485 447.310221 
L 1088.425191 447.287096 
L 1089.417897 443.824225 
L 1090.410603 444.42666 
L 1091.403309 449.213595 
L 1092.396015 445.818463 
L 1093.388721 449.892197 
L 1094.381427 446.871728 
L 1095.374133 447.109279 
L 1096.366839 446.474891 
L 1097.359545 446.94987 
L 1098.35225 445.923428 
L 1099.344956 446.792358 
L 1100.337662 449.699692 
L 1101.330368 449.331308 
L 1102.323074 445.362192 
L 1103.31578 448.324309 
L 1104.308486 446.785586 
L 1106.293898 445.855774 
L 1107.286604 445.74484 
L 1108.27931 446.937773 
L 1109.272016 447.669616 
L 1110.264722 447.447575 
L 1111.257428 445.066187 
L 1112.250133 449.248847 
L 1113.242839 446.006321 
L 1114.235545 445.756404 
L 1115.228251 446.072647 
L 1116.220957 447.231773 
L 1117.213663 447.289061 
L 1118.206369 445.774154 
L 1119.199075 447.021637 
L 1120.191781 449.893505 
L 1121.184487 445.968413 
L 1122.177193 446.58679 
L 1123.169899 444.689401 
L 1124.162605 447.192658 
L 1125.15531 447.568757 
L 1126.148016 447.315799 
L 1127.140722 450.010754 
L 1128.133428 448.658171 
L 1130.11884 447.848713 
L 1131.111546 445.028951 
L 1132.104252 446.443066 
L 1133.096958 446.299878 
L 1134.089664 447.333656 
L 1135.08237 446.123348 
L 1136.075076 447.437975 
L 1138.060487 444.695571 
L 1139.053193 448.805293 
L 1140.045899 446.37833 
L 1141.038605 452.934345 
L 1143.024017 446.600942 
L 1144.016723 448.677231 
L 1145.009429 445.729531 
L 1146.002135 447.626293 
L 1146.994841 449.064596 
L 1147.987547 448.499261 
L 1148.980253 445.686537 
L 1149.972959 448.208003 
L 1150.965664 446.727906 
L 1152.951076 447.778547 
L 1153.943782 449.889375 
L 1154.936488 448.16 
L 1155.929194 450.046277 
L 1156.9219 447.481046 
L 1157.914606 446.067119 
L 1158.907312 449.058241 
L 1159.900018 444.393968 
L 1160.892724 448.562187 
L 1161.88543 449.668438 
L 1162.878136 445.524447 
L 1163.870841 445.399989 
L 1164.863547 448.777938 
L 1165.856253 445.728235 
L 1166.848959 446.563396 
L 1167.841665 446.507933 
L 1168.834371 448.645428 
L 1169.827077 447.601902 
L 1170.819783 446.320006 
L 1171.812489 450.057373 
L 1173.797901 446.988699 
L 1174.790607 447.508505 
L 1175.783313 445.4111 
L 1176.776019 448.478203 
L 1177.768724 448.734788 
L 1178.76143 448.564719 
L 1179.754136 449.124583 
L 1180.746842 447.034852 
L 1181.739548 447.584649 
L 1182.732254 447.659541 
L 1183.72496 448.614198 
L 1184.717666 447.174585 
L 1185.710372 448.17192 
L 1186.703078 449.883736 
L 1187.695784 448.976537 
L 1188.68849 449.533981 
L 1189.681196 448.289537 
L 1190.673901 446.493189 
L 1191.666607 448.611571 
L 1192.659313 446.794736 
L 1193.652019 447.985061 
L 1194.644725 447.113066 
L 1195.637431 447.991359 
L 1196.630137 447.735097 
L 1197.622843 452.184372 
L 1198.615549 449.415628 
L 1199.608255 447.080018 
L 1200.600961 446.612682 
L 1201.593667 449.339068 
L 1202.586373 449.331129 
L 1203.579078 445.791849 
L 1204.571784 447.902767 
L 1205.56449 445.8225 
L 1206.557196 446.657001 
L 1207.549902 449.079352 
L 1208.542608 449.545376 
L 1209.535314 449.025787 
L 1210.52802 446.865239 
L 1211.520726 447.573191 
L 1212.513432 446.997753 
L 1213.506138 447.37925 
L 1214.498844 450.430138 
L 1215.49155 452.049428 
L 1216.484255 445.306128 
L 1217.476961 447.852822 
L 1218.469667 446.78161 
L 1219.462373 447.281582 
L 1220.455079 449.948958 
L 1221.447785 447.924291 
L 1223.433197 448.346798 
L 1224.425903 446.160797 
L 1225.418609 448.021036 
L 1226.411315 449.601605 
L 1227.404021 447.230978 
L 1228.396727 448.62214 
L 1229.389432 448.09941 
L 1230.382138 448.49765 
L 1231.374844 450.596309 
L 1232.36755 448.157846 
L 1233.360256 450.841918 
L 1234.352962 447.017555 
L 1235.345668 449.276009 
L 1236.338374 447.3561 
L 1237.33108 449.93012 
L 1238.323786 449.753789 
L 1239.316492 450.043802 
L 1240.309198 449.355018 
L 1241.301904 447.576169 
L 1242.29461 447.737776 
L 1243.287315 445.375162 
L 1244.280021 448.492893 
L 1245.272727 445.958548 
L 1245.272727 445.958548 
" clip-path="url(#p3de80147aa)" style="fill: none; stroke: #1f77b4; stroke-width: 1.5; stroke-linecap: square"/>
   </g>
   <g id="patch_3">
    <path d="M 180 512.64 
L 180 69.12 
" style="fill: none; stroke: #000000; stroke-width: 0.8; stroke-linejoin: miter; stroke-linecap: square"/>
   </g>
   <g id="patch_4">
    <path d="M 1296 512.64 
L 1296 69.12 
" style="fill: none; stroke: #000000; stroke-width: 0.8; stroke-linejoin: miter; stroke-linecap: square"/>
   </g>
   <g id="patch_5">
    <path d="M 180 512.64 
L 1296 512.64 
" style="fill: none; stroke: #000000; stroke-width: 0.8; stroke-linejoin: miter; stroke-linecap: square"/>
   </g>
   <g id="patch_6">
    <path d="M 180 69.12 
L 1296 69.12 
" style="fill: none; stroke: #000000; stroke-width: 0.8; stroke-linejoin: miter; stroke-linecap: square"/>
   </g>
   <g id="text_12">
    <!-- source13-receiver16 -->
    <g transform="translate(532.175 60.80125) scale(0.4 -0.4)">
     <defs>
      <path id="DejaVuSans-73" d="M 2834 3397 
L 2834 2853 
Q 2591 2978 2328 3040 
Q 2066 3103 1784 3103 
Q 1356 3103 1142 2972 
Q 928 2841 928 2578 
Q 928 2378 1081 2264 
Q 1234 2150 1697 2047 
L 1894 2003 
Q 2506 1872 2764 1633 
Q 3022 1394 3022 966 
Q 3022 478 2636 193 
Q 2250 -91 1575 -91 
Q 1294 -91 989 -36 
Q 684 19 347 128 
L 347 722 
Q 666 556 975 473 
Q 1284 391 1588 391 
Q 1994 391 2212 530 
Q 2431 669 2431 922 
Q 2431 1156 2273 1281 
Q 2116 1406 1581 1522 
L 1381 1569 
Q 847 1681 609 1914 
Q 372 2147 372 2553 
Q 372 3047 722 3315 
Q 1072 3584 1716 3584 
Q 2034 3584 2315 3537 
Q 2597 3491 2834 3397 
z
" transform="scale(0.015625)"/>
      <path id="DejaVuSans-6f" d="M 1959 3097 
Q 1497 3097 1228 2736 
Q 959 2375 959 1747 
Q 959 1119 1226 758 
Q 1494 397 1959 397 
Q 2419 397 2687 759 
Q 2956 1122 2956 1747 
Q 2956 2369 2687 2733 
Q 2419 3097 1959 3097 
z
M 1959 3584 
Q 2709 3584 3137 3096 
Q 3566 2609 3566 1747 
Q 3566 888 3137 398 
Q 2709 -91 1959 -91 
Q 1206 -91 779 398 
Q 353 888 353 1747 
Q 353 2609 779 3096 
Q 1206 3584 1959 3584 
z
" transform="scale(0.015625)"/>
      <path id="DejaVuSans-75" d="M 544 1381 
L 544 3500 
L 1119 3500 
L 1119 1403 
Q 1119 906 1312 657 
Q 1506 409 1894 409 
Q 2359 409 2629 706 
Q 2900 1003 2900 1516 
L 2900 3500 
L 3475 3500 
L 3475 0 
L 2900 0 
L 2900 538 
Q 2691 219 2414 64 
Q 2138 -91 1772 -91 
Q 1169 -91 856 284 
Q 544 659 544 1381 
z
M 1991 3584 
L 1991 3584 
z
" transform="scale(0.015625)"/>
      <path id="DejaVuSans-72" d="M 2631 2963 
Q 2534 3019 2420 3045 
Q 2306 3072 2169 3072 
Q 1681 3072 1420 2755 
Q 1159 2438 1159 1844 
L 1159 0 
L 581 0 
L 581 3500 
L 1159 3500 
L 1159 2956 
Q 1341 3275 1631 3429 
Q 1922 3584 2338 3584 
Q 2397 3584 2469 3576 
Q 2541 3569 2628 3553 
L 2631 2963 
z
" transform="scale(0.015625)"/>
      <path id="DejaVuSans-63" d="M 3122 3366 
L 3122 2828 
Q 2878 2963 2633 3030 
Q 2388 3097 2138 3097 
Q 1578 3097 1268 2742 
Q 959 2388 959 1747 
Q 959 1106 1268 751 
Q 1578 397 2138 397 
Q 2388 397 2633 464 
Q 2878 531 3122 666 
L 3122 134 
Q 2881 22 2623 -34 
Q 2366 -91 2075 -91 
Q 1284 -91 818 406 
Q 353 903 353 1747 
Q 353 2603 823 3093 
Q 1294 3584 2113 3584 
Q 2378 3584 2631 3529 
Q 2884 3475 3122 3366 
z
" transform="scale(0.015625)"/>
      <path id="DejaVuSans-65" d="M 3597 1894 
L 3597 1613 
L 953 1613 
Q 991 1019 1311 708 
Q 1631 397 2203 397 
Q 2534 397 2845 478 
Q 3156 559 3463 722 
L 3463 178 
Q 3153 47 2828 -22 
Q 2503 -91 2169 -91 
Q 1331 -91 842 396 
Q 353 884 353 1716 
Q 353 2575 817 3079 
Q 1281 3584 2069 3584 
Q 2775 3584 3186 3129 
Q 3597 2675 3597 1894 
z
M 3022 2063 
Q 3016 2534 2758 2815 
Q 2500 3097 2075 3097 
Q 1594 3097 1305 2825 
Q 1016 2553 972 2059 
L 3022 2063 
z
" transform="scale(0.015625)"/>
      <path id="DejaVuSans-33" d="M 2597 2516 
Q 3050 2419 3304 2112 
Q 3559 1806 3559 1356 
Q 3559 666 3084 287 
Q 2609 -91 1734 -91 
Q 1441 -91 1130 -33 
Q 819 25 488 141 
L 488 750 
Q 750 597 1062 519 
Q 1375 441 1716 441 
Q 2309 441 2620 675 
Q 2931 909 2931 1356 
Q 2931 1769 2642 2001 
Q 2353 2234 1838 2234 
L 1294 2234 
L 1294 2753 
L 1863 2753 
Q 2328 2753 2575 2939 
Q 2822 3125 2822 3475 
Q 2822 3834 2567 4026 
Q 2313 4219 1838 4219 
Q 1578 4219 1281 4162 
Q 984 4106 628 3988 
L 628 4550 
Q 988 4650 1302 4700 
Q 1616 4750 1894 4750 
Q 2613 4750 3031 4423 
Q 3450 4097 3450 3541 
Q 3450 3153 3228 2886 
Q 3006 2619 2597 2516 
z
" transform="scale(0.015625)"/>
      <path id="DejaVuSans-2d" d="M 313 2009 
L 1997 2009 
L 1997 1497 
L 313 1497 
L 313 2009 
z
" transform="scale(0.015625)"/>
      <path id="DejaVuSans-69" d="M 603 3500 
L 1178 3500 
L 1178 0 
L 603 0 
L 603 3500 
z
M 603 4863 
L 1178 4863 
L 1178 4134 
L 603 4134 
L 603 4863 
z
" transform="scale(0.015625)"/>
      <path id="DejaVuSans-76" d="M 191 3500 
L 800 3500 
L 1894 563 
L 2988 3500 
L 3597 3500 
L 2284 0 
L 1503 0 
L 191 3500 
z
" transform="scale(0.015625)"/>
      <path id="DejaVuSans-36" d="M 2113 2584 
Q 1688 2584 1439 2293 
Q 1191 2003 1191 1497 
Q 1191 994 1439 701 
Q 1688 409 2113 409 
Q 2538 409 2786 701 
Q 3034 994 3034 1497 
Q 3034 2003 2786 2293 
Q 2538 2584 2113 2584 
z
M 3366 4563 
L 3366 3988 
Q 3128 4100 2886 4159 
Q 2644 4219 2406 4219 
Q 1781 4219 1451 3797 
Q 1122 3375 1075 2522 
Q 1259 2794 1537 2939 
Q 1816 3084 2150 3084 
Q 2853 3084 3261 2657 
Q 3669 2231 3669 1497 
Q 3669 778 3244 343 
Q 2819 -91 2113 -91 
Q 1303 -91 875 529 
Q 447 1150 447 2328 
Q 447 3434 972 4092 
Q 1497 4750 2381 4750 
Q 2619 4750 2861 4703 
Q 3103 4656 3366 4563 
z
" transform="scale(0.015625)"/>
     </defs>
     <use xlink:href="#DejaVuSans-73"/>
     <use xlink:href="#DejaVuSans-6f" x="52.099609"/>
     <use xlink:href="#DejaVuSans-75" x="113.28125"/>
     <use xlink:href="#DejaVuSans-72" x="176.660156"/>
     <use xlink:href="#DejaVuSans-63" x="215.523438"/>
     <use xlink:href="#DejaVuSans-65" x="270.503906"/>
     <use xlink:href="#DejaVuSans-31" x="332.027344"/>
     <use xlink:href="#DejaVuSans-33" x="395.650391"/>
     <use xlink:href="#DejaVuSans-2d" x="459.273438"/>
     <use xlink:href="#DejaVuSans-72" x="495.357422"/>
     <use xlink:href="#DejaVuSans-65" x="534.220703"/>
     <use xlink:href="#DejaVuSans-63" x="595.744141"/>
     <use xlink:href="#DejaVuSans-65" x="650.724609"/>
     <use xlink:href="#DejaVuSans-69" x="712.248047"/>
     <use xlink:href="#DejaVuSans-76" x="740.03125"/>
     <use xlink:href="#DejaVuSans-65" x="799.210938"/>
     <use xlink:href="#DejaVuSans-72" x="860.734375"/>
     <use xlink:href="#DejaVuSans-31" x="901.847656"/>
     <use xlink:href="#DejaVuSans-36" x="965.470703"/>
    </g>
   </g>
  </g>
 </g>
 <defs>
  <clipPath id="p3de80147aa">
   <rect x="180" y="69.12" width="1116" height="443.52"/>
  </clipPath>
 </defs>
</svg>
