<?xml version="1.0" encoding="utf-8" standalone="no"?>
<!DOCTYPE svg PUBLIC "-//W3C//DTD SVG 1.1//EN"
  "http://www.w3.org/Graphics/SVG/1.1/DTD/svg11.dtd">
<svg xmlns:xlink="http://www.w3.org/1999/xlink" width="1440pt" height="576pt" viewBox="0 0 1440 576" xmlns="http://www.w3.org/2000/svg" version="1.1">
 <metadata>
  <rdf:RDF xmlns:dc="http://purl.org/dc/elements/1.1/" xmlns:cc="http://creativecommons.org/ns#" xmlns:rdf="http://www.w3.org/1999/02/22-rdf-syntax-ns#">
   <cc:Work>
    <dc:type rdf:resource="http://purl.org/dc/dcmitype/StillImage"/>
    <dc:date>2024-05-22T04:50:04.683507</dc:date>
    <dc:format>image/svg+xml</dc:format>
    <dc:creator>
     <cc:Agent>
      <dc:title>Matplotlib v3.8.3, https://matplotlib.org/</dc:title>
     </cc:Agent>
    </dc:creator>
   </cc:Work>
  </rdf:RDF>
 </metadata>
 <defs>
  <style type="text/css">*{stroke-linejoin: round; stroke-linecap: butt}</style>
 </defs>
 <g id="figure_1">
  <g id="patch_1">
   <path d="M 0 576 
L 1440 576 
L 1440 0 
L 0 0 
z
" style="fill: #ffffff"/>
  </g>
  <g id="axes_1">
   <g id="patch_2">
    <path d="M 180 512.64 
L 1296 512.64 
L 1296 69.12 
L 180 69.12 
z
" style="fill: #ffffff"/>
   </g>
   <g id="matplotlib.axis_1">
    <g id="xtick_1">
     <g id="line2d_1">
      <defs>
       <path id="m98ce035fb3" d="M 0 0 
L 0 3.5 
" style="stroke: #000000; stroke-width: 0.8"/>
      </defs>
      <g>
       <use xlink:href="#m98ce035fb3" x="229.734567" y="512.64" style="stroke: #000000; stroke-width: 0.8"/>
      </g>
     </g>
     <g id="text_1">
      <!-- 0 -->
      <g transform="translate(226.553317 527.238438) scale(0.1 -0.1)">
       <defs>
        <path id="DejaVuSans-30" d="M 2034 4250 
Q 1547 4250 1301 3770 
Q 1056 3291 1056 2328 
Q 1056 1369 1301 889 
Q 1547 409 2034 409 
Q 2525 409 2770 889 
Q 3016 1369 3016 2328 
Q 3016 3291 2770 3770 
Q 2525 4250 2034 4250 
z
M 2034 4750 
Q 2819 4750 3233 4129 
Q 3647 3509 3647 2328 
Q 3647 1150 3233 529 
Q 2819 -91 2034 -91 
Q 1250 -91 836 529 
Q 422 1150 422 2328 
Q 422 3509 836 4129 
Q 1250 4750 2034 4750 
z
" transform="scale(0.015625)"/>
       </defs>
       <use xlink:href="#DejaVuSans-30"/>
      </g>
     </g>
    </g>
    <g id="xtick_2">
     <g id="line2d_2">
      <g>
       <use xlink:href="#m98ce035fb3" x="433.04074" y="512.64" style="stroke: #000000; stroke-width: 0.8"/>
      </g>
     </g>
     <g id="text_2">
      <!-- 500 -->
      <g transform="translate(423.49699 527.238438) scale(0.1 -0.1)">
       <defs>
        <path id="DejaVuSans-35" d="M 691 4666 
L 3169 4666 
L 3169 4134 
L 1269 4134 
L 1269 2991 
Q 1406 3038 1543 3061 
Q 1681 3084 1819 3084 
Q 2600 3084 3056 2656 
Q 3513 2228 3513 1497 
Q 3513 744 3044 326 
Q 2575 -91 1722 -91 
Q 1428 -91 1123 -41 
Q 819 9 494 109 
L 494 744 
Q 775 591 1075 516 
Q 1375 441 1709 441 
Q 2250 441 2565 725 
Q 2881 1009 2881 1497 
Q 2881 1984 2565 2268 
Q 2250 2553 1709 2553 
Q 1456 2553 1204 2497 
Q 953 2441 691 2322 
L 691 4666 
z
" transform="scale(0.015625)"/>
       </defs>
       <use xlink:href="#DejaVuSans-35"/>
       <use xlink:href="#DejaVuSans-30" x="63.623047"/>
       <use xlink:href="#DejaVuSans-30" x="127.246094"/>
      </g>
     </g>
    </g>
    <g id="xtick_3">
     <g id="line2d_3">
      <g>
       <use xlink:href="#m98ce035fb3" x="636.346913" y="512.64" style="stroke: #000000; stroke-width: 0.8"/>
      </g>
     </g>
     <g id="text_3">
      <!-- 1000 -->
      <g transform="translate(623.621913 527.238438) scale(0.1 -0.1)">
       <defs>
        <path id="DejaVuSans-31" d="M 794 531 
L 1825 531 
L 1825 4091 
L 703 3866 
L 703 4441 
L 1819 4666 
L 2450 4666 
L 2450 531 
L 3481 531 
L 3481 0 
L 794 0 
L 794 531 
z
" transform="scale(0.015625)"/>
       </defs>
       <use xlink:href="#DejaVuSans-31"/>
       <use xlink:href="#DejaVuSans-30" x="63.623047"/>
       <use xlink:href="#DejaVuSans-30" x="127.246094"/>
       <use xlink:href="#DejaVuSans-30" x="190.869141"/>
      </g>
     </g>
    </g>
    <g id="xtick_4">
     <g id="line2d_4">
      <g>
       <use xlink:href="#m98ce035fb3" x="839.653087" y="512.64" style="stroke: #000000; stroke-width: 0.8"/>
      </g>
     </g>
     <g id="text_4">
      <!-- 1500 -->
      <g transform="translate(826.928087 527.238438) scale(0.1 -0.1)">
       <use xlink:href="#DejaVuSans-31"/>
       <use xlink:href="#DejaVuSans-35" x="63.623047"/>
       <use xlink:href="#DejaVuSans-30" x="127.246094"/>
       <use xlink:href="#DejaVuSans-30" x="190.869141"/>
      </g>
     </g>
    </g>
    <g id="xtick_5">
     <g id="line2d_5">
      <g>
       <use xlink:href="#m98ce035fb3" x="1042.95926" y="512.64" style="stroke: #000000; stroke-width: 0.8"/>
      </g>
     </g>
     <g id="text_5">
      <!-- 2000 -->
      <g transform="translate(1030.23426 527.238438) scale(0.1 -0.1)">
       <defs>
        <path id="DejaVuSans-32" d="M 1228 531 
L 3431 531 
L 3431 0 
L 469 0 
L 469 531 
Q 828 903 1448 1529 
Q 2069 2156 2228 2338 
Q 2531 2678 2651 2914 
Q 2772 3150 2772 3378 
Q 2772 3750 2511 3984 
Q 2250 4219 1831 4219 
Q 1534 4219 1204 4116 
Q 875 4013 500 3803 
L 500 4441 
Q 881 4594 1212 4672 
Q 1544 4750 1819 4750 
Q 2544 4750 2975 4387 
Q 3406 4025 3406 3419 
Q 3406 3131 3298 2873 
Q 3191 2616 2906 2266 
Q 2828 2175 2409 1742 
Q 1991 1309 1228 531 
z
" transform="scale(0.015625)"/>
       </defs>
       <use xlink:href="#DejaVuSans-32"/>
       <use xlink:href="#DejaVuSans-30" x="63.623047"/>
       <use xlink:href="#DejaVuSans-30" x="127.246094"/>
       <use xlink:href="#DejaVuSans-30" x="190.869141"/>
      </g>
     </g>
    </g>
    <g id="xtick_6">
     <g id="line2d_6">
      <g>
       <use xlink:href="#m98ce035fb3" x="1246.265433" y="512.64" style="stroke: #000000; stroke-width: 0.8"/>
      </g>
     </g>
     <g id="text_6">
      <!-- 2500 -->
      <g transform="translate(1233.540433 527.238438) scale(0.1 -0.1)">
       <use xlink:href="#DejaVuSans-32"/>
       <use xlink:href="#DejaVuSans-35" x="63.623047"/>
       <use xlink:href="#DejaVuSans-30" x="127.246094"/>
       <use xlink:href="#DejaVuSans-30" x="190.869141"/>
      </g>
     </g>
    </g>
   </g>
   <g id="matplotlib.axis_2">
    <g id="ytick_1">
     <g id="line2d_7">
      <defs>
       <path id="mf6d798bda8" d="M 0 0 
L -3.5 0 
" style="stroke: #000000; stroke-width: 0.8"/>
      </defs>
      <g>
       <use xlink:href="#mf6d798bda8" x="180" y="498.935772" style="stroke: #000000; stroke-width: 0.8"/>
      </g>
     </g>
     <g id="text_7">
      <!-- −3 -->
      <g transform="translate(158.257812 502.734991) scale(0.1 -0.1)">
       <defs>
        <path id="DejaVuSans-2212" d="M 678 2272 
L 4684 2272 
L 4684 1741 
L 678 1741 
L 678 2272 
z
" transform="scale(0.015625)"/>
        <path id="DejaVuSans-33" d="M 2597 2516 
Q 3050 2419 3304 2112 
Q 3559 1806 3559 1356 
Q 3559 666 3084 287 
Q 2609 -91 1734 -91 
Q 1441 -91 1130 -33 
Q 819 25 488 141 
L 488 750 
Q 750 597 1062 519 
Q 1375 441 1716 441 
Q 2309 441 2620 675 
Q 2931 909 2931 1356 
Q 2931 1769 2642 2001 
Q 2353 2234 1838 2234 
L 1294 2234 
L 1294 2753 
L 1863 2753 
Q 2328 2753 2575 2939 
Q 2822 3125 2822 3475 
Q 2822 3834 2567 4026 
Q 2313 4219 1838 4219 
Q 1578 4219 1281 4162 
Q 984 4106 628 3988 
L 628 4550 
Q 988 4650 1302 4700 
Q 1616 4750 1894 4750 
Q 2613 4750 3031 4423 
Q 3450 4097 3450 3541 
Q 3450 3153 3228 2886 
Q 3006 2619 2597 2516 
z
" transform="scale(0.015625)"/>
       </defs>
       <use xlink:href="#DejaVuSans-2212"/>
       <use xlink:href="#DejaVuSans-33" x="83.789062"/>
      </g>
     </g>
    </g>
    <g id="ytick_2">
     <g id="line2d_8">
      <g>
       <use xlink:href="#mf6d798bda8" x="180" y="435.812133" style="stroke: #000000; stroke-width: 0.8"/>
      </g>
     </g>
     <g id="text_8">
      <!-- −2 -->
      <g transform="translate(158.257812 439.611352) scale(0.1 -0.1)">
       <use xlink:href="#DejaVuSans-2212"/>
       <use xlink:href="#DejaVuSans-32" x="83.789062"/>
      </g>
     </g>
    </g>
    <g id="ytick_3">
     <g id="line2d_9">
      <g>
       <use xlink:href="#mf6d798bda8" x="180" y="372.688494" style="stroke: #000000; stroke-width: 0.8"/>
      </g>
     </g>
     <g id="text_9">
      <!-- −1 -->
      <g transform="translate(158.257812 376.487713) scale(0.1 -0.1)">
       <use xlink:href="#DejaVuSans-2212"/>
       <use xlink:href="#DejaVuSans-31" x="83.789062"/>
      </g>
     </g>
    </g>
    <g id="ytick_4">
     <g id="line2d_10">
      <g>
       <use xlink:href="#mf6d798bda8" x="180" y="309.564855" style="stroke: #000000; stroke-width: 0.8"/>
      </g>
     </g>
     <g id="text_10">
      <!-- 0 -->
      <g transform="translate(166.6375 313.364074) scale(0.1 -0.1)">
       <use xlink:href="#DejaVuSans-30"/>
      </g>
     </g>
    </g>
    <g id="ytick_5">
     <g id="line2d_11">
      <g>
       <use xlink:href="#mf6d798bda8" x="180" y="246.441216" style="stroke: #000000; stroke-width: 0.8"/>
      </g>
     </g>
     <g id="text_11">
      <!-- 1 -->
      <g transform="translate(166.6375 250.240435) scale(0.1 -0.1)">
       <use xlink:href="#DejaVuSans-31"/>
      </g>
     </g>
    </g>
    <g id="ytick_6">
     <g id="line2d_12">
      <g>
       <use xlink:href="#mf6d798bda8" x="180" y="183.317577" style="stroke: #000000; stroke-width: 0.8"/>
      </g>
     </g>
     <g id="text_12">
      <!-- 2 -->
      <g transform="translate(166.6375 187.116795) scale(0.1 -0.1)">
       <use xlink:href="#DejaVuSans-32"/>
      </g>
     </g>
    </g>
    <g id="ytick_7">
     <g id="line2d_13">
      <g>
       <use xlink:href="#mf6d798bda8" x="180" y="120.193938" style="stroke: #000000; stroke-width: 0.8"/>
      </g>
     </g>
     <g id="text_13">
      <!-- 3 -->
      <g transform="translate(166.6375 123.993156) scale(0.1 -0.1)">
       <use xlink:href="#DejaVuSans-33"/>
      </g>
     </g>
    </g>
   </g>
   <g id="line2d_14">
    <path d="M 230.727273 301.947983 
L 233.70539 301.490095 
L 235.690802 300.893601 
L 240.654332 298.176116 
L 242.639744 297.099793 
L 243.63245 296.733159 
L 244.625156 297.397679 
L 245.617862 296.835148 
L 246.610568 292.167382 
L 247.603273 292.311928 
L 248.595979 307.788296 
L 250.581391 206.875032 
L 251.574097 183.781 
L 252.566803 185.331958 
L 253.559509 219.157395 
L 254.552215 319.478329 
L 255.544921 210.475552 
L 256.537627 188.194439 
L 257.530333 180.346869 
L 258.523039 179.996041 
L 259.515745 204.217586 
L 260.50845 215.120132 
L 261.501156 167.751207 
L 262.493862 155.194908 
L 263.486568 164.103368 
L 264.479274 177.398293 
L 265.47198 209.846978 
L 266.464686 248.433747 
L 267.457392 171.604067 
L 268.450098 167.01761 
L 269.442804 198.108264 
L 270.43551 159.078941 
L 271.428216 147.098347 
L 272.420922 193.819258 
L 273.413627 179.183738 
L 274.406333 142.257703 
L 276.391745 186.082126 
L 277.384451 136.546698 
L 278.377157 130.501368 
L 279.369863 127.885339 
L 280.362569 101.550921 
L 281.355275 89.28 
L 282.347981 95.834995 
L 283.340687 104.567087 
L 284.333393 97.102157 
L 285.326099 102.578918 
L 286.318804 147.875791 
L 287.31151 157.352301 
L 288.304216 118.045736 
L 289.296922 133.443113 
L 290.289628 263.637562 
L 291.282334 159.719627 
L 292.27504 157.605954 
L 293.267746 310.19906 
L 294.260452 166.850273 
L 295.253158 154.529714 
L 296.245864 201.88567 
L 297.23857 193.862943 
L 298.231276 174.169685 
L 299.223981 201.79536 
L 300.216687 203.088698 
L 301.209393 195.936058 
L 302.202099 244.980787 
L 303.194805 258.470499 
L 304.187511 235.423145 
L 305.180217 296.419286 
L 307.165629 273.25404 
L 308.158335 322.660849 
L 309.151041 284.473934 
L 310.143747 286.43126 
L 311.136453 309.843968 
L 312.129159 294.54093 
L 313.121864 310.442988 
L 314.11457 316.810095 
L 315.107276 309.47186 
L 316.099982 324.203471 
L 317.092688 320.980946 
L 318.085394 316.094254 
L 319.0781 326.446387 
L 320.070806 320.373257 
L 321.063512 320.672471 
L 322.056218 331.69696 
L 323.048924 325.721891 
L 324.04163 331.152194 
L 325.034336 332.442256 
L 326.027041 333.097165 
L 327.019747 335.481092 
L 328.012453 333.912015 
L 329.005159 335.389862 
L 329.997865 339.899174 
L 330.990571 335.094732 
L 331.983277 338.14938 
L 332.975983 344.356078 
L 333.968689 343.077885 
L 334.961395 338.447827 
L 335.954101 344.27343 
L 337.939513 348.296019 
L 338.932218 349.049006 
L 339.924924 351.469267 
L 340.91763 347.41888 
L 341.910336 354.78369 
L 342.903042 355.781674 
L 343.895748 355.762347 
L 344.888454 360.483147 
L 345.88116 355.453231 
L 346.873866 355.37416 
L 347.866572 351.872633 
L 348.859278 359.161186 
L 349.851984 358.404057 
L 350.84469 365.06883 
L 351.837395 363.549039 
L 352.830101 357.417284 
L 353.822807 363.506973 
L 354.815513 370.514945 
L 355.808219 368.48545 
L 356.800925 361.730086 
L 357.793631 366.992729 
L 358.786337 365.077706 
L 359.779043 373.46138 
L 360.771749 373.474289 
L 361.764455 369.621637 
L 362.757161 370.57906 
L 363.749867 366.655392 
L 364.742572 375.909089 
L 365.735278 380.664204 
L 366.727984 362.079045 
L 367.72069 373.25413 
L 368.713396 381.734567 
L 369.706102 380.850468 
L 370.698808 365.134591 
L 371.691514 374.842327 
L 372.68422 375.828431 
L 373.676926 378.164747 
L 374.669632 380.841648 
L 375.662338 381.573518 
L 376.655044 378.010615 
L 377.64775 371.926478 
L 379.633161 387.721174 
L 380.625867 376.508726 
L 381.618573 386.154499 
L 382.611279 382.426658 
L 383.603985 405.966944 
L 385.589397 384.197594 
L 386.582103 386.564066 
L 387.574809 382.541858 
L 388.567515 385.421395 
L 389.560221 382.242214 
L 390.552927 391.262232 
L 391.545632 386.095749 
L 392.538338 388.585278 
L 393.531044 393.852034 
L 394.52375 388.328262 
L 395.516456 386.806711 
L 396.509162 399.44883 
L 397.501868 402.880617 
L 398.494574 391.442735 
L 399.48728 396.046981 
L 400.479986 386.046706 
L 401.472692 386.154349 
L 402.465398 400.924515 
L 403.458104 394.765285 
L 404.450809 392.089679 
L 405.443515 404.511278 
L 406.436221 397.556472 
L 407.428927 391.83681 
L 408.421633 397.9241 
L 409.414339 395.071761 
L 410.407045 398.305942 
L 411.399751 398.264477 
L 412.392457 406.035925 
L 413.385163 403.420927 
L 414.377869 410.052027 
L 416.363281 391.321908 
L 417.355986 408.212065 
L 418.348692 403.649604 
L 419.341398 401.053509 
L 420.334104 403.467767 
L 421.32681 403.757841 
L 422.319516 398.783301 
L 423.312222 418.314235 
L 424.304928 419.533075 
L 425.297634 413.352419 
L 426.29034 403.726005 
L 427.283046 409.189602 
L 428.275752 408.71353 
L 429.268458 414.885094 
L 430.261163 407.295724 
L 431.253869 425.176506 
L 432.246575 415.261594 
L 433.239281 417.706876 
L 434.231987 407.456595 
L 435.224693 408.063649 
L 436.217399 400.307622 
L 437.210105 413.591092 
L 438.202811 421.897483 
L 439.195517 412.038585 
L 440.188223 411.686278 
L 441.180929 411.026856 
L 442.173635 418.163431 
L 443.166341 418.978244 
L 444.159046 412.705489 
L 445.151752 412.537996 
L 446.144458 406.284441 
L 447.137164 439.23716 
L 448.12987 411.024188 
L 449.122576 424.056343 
L 450.115282 415.911178 
L 451.107988 411.878442 
L 452.100694 427.477957 
L 454.086106 412.524998 
L 455.078812 414.389653 
L 456.071518 412.173743 
L 457.064223 411.670826 
L 458.056929 413.03099 
L 459.049635 409.938043 
L 460.042341 422.821647 
L 461.035047 409.478969 
L 462.027753 427.112809 
L 463.020459 431.915373 
L 464.013165 426.227904 
L 465.005871 419.149682 
L 465.998577 422.463983 
L 466.991283 426.42571 
L 468.976695 424.818382 
L 469.9694 428.791475 
L 470.962106 421.992223 
L 471.954812 413.143324 
L 472.947518 422.331228 
L 473.940224 417.72644 
L 474.93293 418.423871 
L 475.925636 421.928184 
L 476.918342 421.245709 
L 477.911048 426.158446 
L 478.903754 429.281292 
L 479.89646 412.97872 
L 480.889166 413.715186 
L 481.881872 422.060335 
L 482.874577 424.462348 
L 483.867283 422.753838 
L 484.859989 411.233472 
L 485.852695 452.101073 
L 486.845401 440.019637 
L 487.838107 412.254958 
L 488.830813 430.593689 
L 489.823519 456.005681 
L 490.816225 426.903255 
L 491.808931 439.565836 
L 492.801637 435.474062 
L 493.794343 439.456311 
L 494.787049 430.340268 
L 495.779754 410.644872 
L 496.77246 421.372253 
L 497.765166 419.250176 
L 498.757872 416.314491 
L 499.750578 445.705063 
L 500.743284 412.886987 
L 501.73599 424.296596 
L 502.728696 421.771473 
L 503.721402 439.867943 
L 504.714108 435.824417 
L 505.706814 445.992317 
L 506.69952 426.01581 
L 507.692226 432.613607 
L 508.684932 435.68043 
L 509.677637 427.453729 
L 510.670343 415.868561 
L 511.663049 435.552104 
L 512.655755 432.347133 
L 513.648461 427.301248 
L 514.641167 438.31998 
L 515.633873 438.21385 
L 516.626579 428.877354 
L 517.619285 440.087081 
L 518.611991 431.115588 
L 519.604697 431.898128 
L 520.597403 433.153734 
L 521.590109 421.739406 
L 522.582814 428.08012 
L 523.57552 424.946177 
L 524.568226 433.94251 
L 525.560932 437.426168 
L 526.553638 437.925797 
L 527.546344 441.257542 
L 528.53905 432.343894 
L 529.531756 430.830382 
L 530.524462 446.996968 
L 531.517168 442.334022 
L 532.509874 424.411435 
L 533.50258 447.368583 
L 534.495286 441.217229 
L 535.487991 433.97891 
L 536.480697 420.233718 
L 537.473403 437.348649 
L 538.466109 435.409859 
L 539.458815 429.343605 
L 540.451521 435.132667 
L 541.444227 427.944634 
L 542.436933 448.947336 
L 543.429639 450.678572 
L 544.422345 447.625498 
L 545.415051 451.669699 
L 546.407757 428.115116 
L 547.400463 448.131888 
L 548.393168 436.577761 
L 549.385874 442.711104 
L 550.37858 469.654437 
L 551.371286 423.230569 
L 552.363992 438.212327 
L 553.356698 434.637546 
L 554.349404 422.859231 
L 555.34211 444.872895 
L 556.334816 446.376599 
L 557.327522 454.151225 
L 558.320228 456.965701 
L 559.312934 449.901696 
L 560.30564 451.995481 
L 561.298345 451.825837 
L 562.291051 428.217719 
L 563.283757 433.975272 
L 565.269169 451.820416 
L 566.261875 426.914942 
L 567.254581 444.380167 
L 568.247287 469.228223 
L 569.239993 443.745992 
L 570.232699 475.59419 
L 571.225405 446.317599 
L 572.218111 448.623493 
L 573.210817 452.875312 
L 574.203523 433.407766 
L 575.196228 438.101114 
L 576.188934 449.913136 
L 577.18164 435.698869 
L 578.174346 471.128604 
L 579.167052 441.226849 
L 580.159758 450.566829 
L 581.152464 425.116637 
L 582.14517 454.798208 
L 583.137876 450.017108 
L 584.130582 453.635782 
L 585.123288 448.135524 
L 586.115994 447.103933 
L 587.1087 452.202834 
L 588.101405 432.867987 
L 589.094111 441.944316 
L 590.086817 457.39621 
L 591.079523 453.314995 
L 592.072229 445.832797 
L 593.064935 446.965533 
L 594.057641 439.226354 
L 595.050347 452.181938 
L 596.043053 450.328794 
L 597.035759 445.623017 
L 598.028465 444.348107 
L 599.021171 447.849368 
L 600.013877 449.27975 
L 601.006582 451.021033 
L 601.999288 442.919278 
L 602.991994 450.271378 
L 603.9847 443.0503 
L 604.977406 459.495024 
L 605.970112 441.371175 
L 606.962818 444.498574 
L 607.955524 444.222681 
L 608.94823 455.368152 
L 609.940936 443.38207 
L 610.933642 454.318298 
L 611.926348 452.037926 
L 612.919054 440.472685 
L 613.911759 449.145175 
L 614.904465 447.01916 
L 615.897171 442.892243 
L 616.889877 452.802346 
L 617.882583 468.524793 
L 618.875289 464.944619 
L 619.867995 449.476681 
L 620.860701 452.279254 
L 621.853407 455.511961 
L 622.846113 468.408026 
L 623.838819 460.956756 
L 624.831525 450.999889 
L 625.824231 443.541574 
L 626.816936 450.707875 
L 627.809642 453.032616 
L 628.802348 453.984527 
L 629.795054 447.819901 
L 630.78776 454.161984 
L 631.780466 450.755223 
L 632.773172 443.511187 
L 633.765878 452.856128 
L 634.758584 456.708617 
L 635.75129 461.275487 
L 636.743996 449.785826 
L 637.736702 453.389545 
L 638.729408 448.437293 
L 639.722114 461.083653 
L 640.714819 447.012771 
L 641.707525 461.137102 
L 642.700231 452.777261 
L 643.692937 453.309666 
L 644.685643 448.549301 
L 645.678349 453.994138 
L 646.671055 454.556464 
L 647.663761 458.491077 
L 648.656467 463.264093 
L 650.641879 451.284955 
L 651.634585 459.575995 
L 652.627291 463.124617 
L 653.619996 456.472396 
L 654.612702 458.751482 
L 655.605408 459.013835 
L 656.598114 455.277678 
L 657.59082 452.611843 
L 658.583526 459.953754 
L 659.576232 456.80631 
L 660.568938 455.814571 
L 661.561644 460.01831 
L 662.55435 459.913384 
L 663.547056 458.826595 
L 664.539762 458.262142 
L 665.532468 463.764697 
L 666.525173 459.081862 
L 667.517879 459.670108 
L 668.510585 457.431495 
L 669.503291 460.78853 
L 670.495997 461.556989 
L 671.488703 458.941729 
L 672.481409 457.015643 
L 673.474115 462.445779 
L 674.466821 459.881441 
L 675.459527 460.282279 
L 676.452233 459.421001 
L 677.444939 460.21786 
L 678.437645 457.371543 
L 679.43035 457.638537 
L 680.423056 459.931896 
L 681.415762 461.199862 
L 682.408468 461.655968 
L 683.401174 459.373574 
L 684.39388 463.009241 
L 685.386586 462.124661 
L 686.379292 461.962758 
L 687.371998 461.284745 
L 688.364704 461.480605 
L 689.35741 461.118524 
L 690.350116 460.099254 
L 691.342822 461.477646 
L 692.335527 463.810556 
L 693.328233 461.932345 
L 694.320939 462.680131 
L 696.306351 459.692774 
L 697.299057 460.565788 
L 698.291763 463.135355 
L 699.284469 462.761034 
L 700.277175 462.678887 
L 701.269881 461.327559 
L 702.262587 464.079495 
L 703.255293 464.308468 
L 704.247999 462.120261 
L 705.240705 461.525337 
L 706.23341 464.221952 
L 707.226116 462.469019 
L 708.218822 464.053102 
L 709.211528 463.144957 
L 710.204234 463.913364 
L 711.19694 462.966803 
L 712.189646 465.65514 
L 713.182352 464.583624 
L 714.175058 464.81583 
L 715.167764 465.896196 
L 716.16047 463.969445 
L 717.153176 465.37311 
L 718.145882 463.889513 
L 719.138587 465.157442 
L 720.131293 465.536275 
L 721.123999 467.318605 
L 722.116705 467.486912 
L 723.109411 464.783412 
L 724.102117 465.111918 
L 725.094823 466.665828 
L 726.087529 465.851597 
L 727.080235 465.887617 
L 729.065647 465.570193 
L 730.058353 465.900799 
L 731.051059 466.956939 
L 732.043764 466.804631 
L 733.03647 467.529891 
L 734.029176 466.351642 
L 735.021882 466.26494 
L 736.014588 467.672263 
L 737.007294 467.140982 
L 738 465.807759 
L 738.992706 467.395276 
L 739.985412 466.43016 
L 740.978118 466.512774 
L 741.970824 466.774618 
L 742.96353 467.171969 
L 744.948941 469.478085 
L 745.941647 468.715041 
L 746.934353 468.775869 
L 748.919765 469.6647 
L 749.912471 468.83221 
L 750.905177 468.646589 
L 751.897883 469.418091 
L 752.890589 467.834864 
L 753.883295 469.567633 
L 754.876001 468.780191 
L 755.868707 468.635664 
L 756.861413 469.046721 
L 757.854118 469.686326 
L 758.846824 468.268141 
L 759.83953 469.528456 
L 760.832236 471.358172 
L 761.824942 470.210672 
L 763.810354 469.077867 
L 764.80306 469.495276 
L 765.795766 470.741578 
L 766.788472 469.718057 
L 767.781178 469.936398 
L 768.773884 470.748434 
L 769.76659 469.338443 
L 770.759295 470.914435 
L 771.752001 470.651964 
L 772.744707 469.282987 
L 773.737413 470.436807 
L 774.730119 471.226567 
L 775.722825 471.280611 
L 776.715531 470.669355 
L 777.708237 472.12413 
L 778.700943 471.031469 
L 779.693649 471.139994 
L 780.686355 470.707197 
L 781.679061 471.144332 
L 782.671767 470.934398 
L 783.664473 472.133457 
L 785.649884 471.232151 
L 786.64259 471.374734 
L 787.635296 473.299218 
L 788.628002 472.122699 
L 789.620708 471.322437 
L 790.613414 472.723228 
L 792.598826 473.026908 
L 793.591532 473.993105 
L 794.584238 472.899246 
L 795.576944 472.67712 
L 796.56965 471.704824 
L 797.562355 474.388728 
L 798.555061 473.165605 
L 799.547767 473.191247 
L 800.540473 472.212111 
L 801.533179 473.889594 
L 802.525885 472.95341 
L 803.518591 473.13595 
L 804.511297 474.029572 
L 805.504003 472.66627 
L 806.496709 473.828579 
L 807.489415 474.606127 
L 808.482121 474.357701 
L 809.474827 474.33423 
L 810.467532 474.778793 
L 811.460238 473.961988 
L 812.452944 473.806233 
L 813.44565 474.310216 
L 815.431062 474.605901 
L 816.423768 475.015906 
L 817.416474 474.030255 
L 818.40918 474.136529 
L 819.401886 474.436154 
L 820.394592 475.967687 
L 821.387298 474.498985 
L 822.380004 473.958828 
L 823.372709 476.456944 
L 824.365415 475.661806 
L 825.358121 474.376845 
L 826.350827 475.427113 
L 827.343533 474.703103 
L 828.336239 476.623108 
L 829.328945 474.956347 
L 830.321651 475.161896 
L 831.314357 476.555006 
L 832.307063 476.086869 
L 833.299769 476.5227 
L 834.292475 476.465497 
L 835.285181 475.213476 
L 836.277886 475.393295 
L 837.270592 474.855599 
L 839.256004 476.89269 
L 840.24871 476.583281 
L 841.241416 476.836145 
L 842.234122 475.911283 
L 843.226828 476.313786 
L 844.219534 475.716669 
L 845.21224 477.004399 
L 846.204946 476.665346 
L 847.197652 476.452914 
L 848.190358 477.206511 
L 849.183064 476.901917 
L 850.175769 476.301377 
L 851.168475 477.454425 
L 852.161181 475.595775 
L 853.153887 476.182564 
L 854.146593 476.633791 
L 855.139299 476.889187 
L 856.132005 477.812306 
L 857.124711 477.40526 
L 859.110123 477.506961 
L 860.102829 477.33037 
L 861.095535 476.8894 
L 862.088241 477.192081 
L 863.080946 478.781907 
L 865.066358 477.019071 
L 866.059064 477.447313 
L 867.05177 477.231708 
L 868.044476 477.896326 
L 870.029888 479.520036 
L 871.022594 477.519597 
L 872.0153 477.709453 
L 873.008006 478.779671 
L 874.000712 478.810873 
L 874.993418 477.398789 
L 875.986123 479.837832 
L 876.978829 478.664352 
L 878.964241 478.517923 
L 879.956947 479.605147 
L 880.949653 479.201889 
L 881.942359 479.784061 
L 882.935065 478.748546 
L 883.927771 478.969524 
L 884.920477 479.849402 
L 885.913183 479.656874 
L 886.905889 479.735628 
L 887.898595 480.357763 
L 888.8913 479.572047 
L 889.884006 480.660992 
L 890.876712 479.318112 
L 891.869418 479.540689 
L 892.862124 480.578486 
L 893.85483 480.292108 
L 894.847536 479.555958 
L 895.840242 480.588606 
L 896.832948 479.484829 
L 897.825654 480.924659 
L 898.81836 480.12817 
L 899.811066 481.56508 
L 900.803772 480.710767 
L 901.796477 479.391231 
L 902.789183 480.746483 
L 903.781889 480.327932 
L 904.774595 481.670271 
L 905.767301 481.425652 
L 906.760007 479.959795 
L 907.752713 481.176767 
L 908.745419 480.873501 
L 909.738125 480.912636 
L 910.730831 481.384357 
L 911.723537 481.004579 
L 912.716243 481.782965 
L 913.708949 480.947085 
L 914.701655 482.269308 
L 915.69436 480.939911 
L 916.687066 480.904859 
L 917.679772 482.620916 
L 918.672478 480.283297 
L 919.665184 480.77225 
L 920.65789 482.686502 
L 921.650596 482.506981 
L 922.643302 481.49277 
L 923.636008 482.517725 
L 924.628714 479.494885 
L 925.62142 481.765367 
L 926.614126 481.668449 
L 927.606832 482.307076 
L 928.599537 480.720524 
L 929.592243 481.389336 
L 930.584949 482.455157 
L 931.577655 482.016873 
L 932.570361 481.881774 
L 933.563067 483.019051 
L 935.548479 482.317288 
L 936.541185 481.327107 
L 937.533891 481.661249 
L 938.526597 482.537879 
L 939.519303 483.183667 
L 940.512009 482.878696 
L 941.504714 484.138599 
L 944.482832 481.627167 
L 945.475538 483.237846 
L 946.468244 482.880962 
L 947.46095 483.835142 
L 949.446362 483.571851 
L 950.439068 484.067956 
L 951.431774 484.045031 
L 953.417186 483.473938 
L 954.409891 482.761917 
L 955.402597 484.70201 
L 957.388009 481.908803 
L 959.373421 484.794775 
L 960.366127 484.632393 
L 961.358833 483.398063 
L 962.351539 484.065829 
L 963.344245 485.192922 
L 965.329657 484.379877 
L 966.322363 484.96665 
L 967.315068 485.035697 
L 968.307774 483.829483 
L 969.30048 483.465809 
L 970.293186 485.27268 
L 971.285892 484.198301 
L 972.278598 485.227973 
L 973.271304 483.92372 
L 974.26401 484.163587 
L 975.256716 483.394411 
L 976.249422 484.939338 
L 977.242128 485.954861 
L 978.234834 484.338933 
L 979.22754 483.656106 
L 982.205657 484.751272 
L 983.198363 483.675809 
L 984.191069 484.702716 
L 985.183775 483.771518 
L 986.176481 485.159141 
L 987.169187 484.441117 
L 988.161893 484.921698 
L 989.154599 485.145698 
L 990.147305 485.791095 
L 991.140011 485.527442 
L 992.132717 486.994729 
L 993.125423 484.692008 
L 995.110834 483.90451 
L 996.10354 485.975101 
L 997.096246 486.610851 
L 998.088952 486.045225 
L 999.081658 486.346977 
L 1000.074364 486.016666 
L 1001.06707 484.585053 
L 1002.059776 484.817731 
L 1003.052482 485.748538 
L 1004.045188 486.898428 
L 1006.0306 485.691608 
L 1007.023305 486.304829 
L 1008.016011 486.410314 
L 1009.008717 486.646833 
L 1010.001423 485.229147 
L 1010.994129 486.597859 
L 1011.986835 486.209983 
L 1012.979541 486.881462 
L 1013.972247 484.915561 
L 1014.964953 485.915549 
L 1015.957659 486.456449 
L 1016.950365 485.232261 
L 1017.943071 486.389397 
L 1018.935777 486.754085 
L 1019.928482 486.453279 
L 1020.921188 486.858303 
L 1021.913894 484.964203 
L 1022.9066 485.591522 
L 1023.899306 485.981878 
L 1024.892012 487.202921 
L 1025.884718 485.664209 
L 1026.877424 487.267339 
L 1027.87013 486.800049 
L 1028.862836 486.801618 
L 1029.855542 486.527107 
L 1030.848248 486.641722 
L 1031.840954 484.401301 
L 1032.833659 485.817896 
L 1033.826365 486.119562 
L 1034.819071 486.944427 
L 1035.811777 486.976053 
L 1036.804483 488.312298 
L 1037.797189 486.502235 
L 1038.789895 486.073352 
L 1040.775307 487.366215 
L 1041.768013 486.82219 
L 1042.760719 487.182531 
L 1043.753425 487.953806 
L 1044.746131 485.211328 
L 1045.738837 487.339224 
L 1046.731542 486.671305 
L 1047.724248 487.098977 
L 1048.716954 488.642029 
L 1049.70966 486.658805 
L 1050.702366 486.562712 
L 1051.695072 487.384668 
L 1052.687778 488.376793 
L 1053.680484 487.234723 
L 1054.67319 487.356605 
L 1055.665896 486.939169 
L 1056.658602 487.180086 
L 1057.651308 487.922284 
L 1058.644014 488.359081 
L 1059.636719 487.173193 
L 1060.629425 487.896238 
L 1061.622131 487.770352 
L 1062.614837 486.437404 
L 1063.607543 487.893746 
L 1064.600249 488.562738 
L 1065.592955 487.879545 
L 1066.585661 488.155568 
L 1068.571073 489.347703 
L 1069.563779 488.382719 
L 1070.556485 487.666785 
L 1072.541896 490.11216 
L 1073.534602 487.259043 
L 1074.527308 487.612115 
L 1075.520014 488.508429 
L 1076.51272 487.386269 
L 1077.505426 488.393902 
L 1078.498132 488.440729 
L 1079.490838 488.264949 
L 1080.483544 488.299811 
L 1081.47625 487.316187 
L 1082.468956 487.140077 
L 1083.461662 489.971986 
L 1084.454368 487.888949 
L 1085.447073 487.999973 
L 1086.439779 487.588227 
L 1087.432485 487.008153 
L 1088.425191 487.544838 
L 1089.417897 489.216601 
L 1090.410603 488.998315 
L 1091.403309 489.15908 
L 1092.396015 488.823546 
L 1093.388721 489.723954 
L 1094.381427 488.63859 
L 1095.374133 488.277819 
L 1096.366839 489.499388 
L 1097.359545 488.294347 
L 1098.35225 489.075251 
L 1099.344956 488.238191 
L 1100.337662 487.683049 
L 1101.330368 489.191928 
L 1102.323074 488.402214 
L 1103.31578 488.647126 
L 1104.308486 489.359356 
L 1105.301192 489.027409 
L 1106.293898 487.822347 
L 1107.286604 488.961125 
L 1108.27931 488.105237 
L 1109.272016 488.764677 
L 1110.264722 491.494963 
L 1111.257428 488.733837 
L 1112.250133 487.892411 
L 1113.242839 489.566814 
L 1115.228251 488.554113 
L 1116.220957 488.235168 
L 1117.213663 488.111681 
L 1118.206369 488.406031 
L 1119.199075 489.938687 
L 1120.191781 486.732733 
L 1121.184487 489.243387 
L 1122.177193 489.754844 
L 1123.169899 489.052528 
L 1124.162605 488.779957 
L 1125.15531 488.847863 
L 1126.148016 489.777293 
L 1127.140722 489.155824 
L 1129.126134 489.182019 
L 1130.11884 490.433402 
L 1132.104252 488.403649 
L 1133.096958 487.843775 
L 1134.089664 489.302513 
L 1135.08237 488.192353 
L 1136.075076 490.31042 
L 1137.067782 489.16727 
L 1138.060487 489.876469 
L 1139.053193 489.622888 
L 1140.045899 489.996882 
L 1141.038605 489.900311 
L 1142.031311 490.872245 
L 1143.024017 489.221901 
L 1144.016723 490.931628 
L 1145.009429 490.585296 
L 1146.002135 490.937856 
L 1146.994841 489.678967 
L 1147.987547 490.331655 
L 1148.980253 490.190552 
L 1149.972959 488.67607 
L 1150.965664 490.715918 
L 1151.95837 490.465247 
L 1152.951076 488.47288 
L 1153.943782 488.474499 
L 1154.936488 489.135189 
L 1155.929194 490.035031 
L 1156.9219 490.284334 
L 1158.907312 488.349613 
L 1159.900018 489.511471 
L 1160.892724 489.278877 
L 1161.88543 488.750864 
L 1163.870841 490.033811 
L 1164.863547 489.286471 
L 1165.856253 490.274936 
L 1166.848959 489.088592 
L 1167.841665 488.771633 
L 1168.834371 490.58301 
L 1170.819783 488.693976 
L 1171.812489 491.073065 
L 1172.805195 489.701013 
L 1173.797901 489.045155 
L 1174.790607 490.294615 
L 1175.783313 490.362714 
L 1176.776019 490.016435 
L 1177.768724 489.938777 
L 1178.76143 491.875178 
L 1179.754136 490.323876 
L 1180.746842 490.89601 
L 1181.739548 490.140445 
L 1182.732254 488.263019 
L 1183.72496 488.37866 
L 1184.717666 489.643908 
L 1185.710372 489.679641 
L 1186.703078 489.158364 
L 1187.695784 490.612312 
L 1188.68849 488.966365 
L 1189.681196 489.769233 
L 1190.673901 488.526063 
L 1191.666607 490.448255 
L 1192.659313 489.882862 
L 1193.652019 490.275264 
L 1194.644725 489.304301 
L 1195.637431 489.373911 
L 1196.630137 490.595254 
L 1197.622843 490.330851 
L 1198.615549 488.617073 
L 1199.608255 488.598639 
L 1200.600961 490.777144 
L 1201.593667 491.889696 
L 1202.586373 489.57641 
L 1203.579078 489.931952 
L 1204.571784 491.03401 
L 1205.56449 489.621615 
L 1206.557196 490.101507 
L 1207.549902 489.93794 
L 1208.542608 489.26846 
L 1210.52802 490.03315 
L 1211.520726 490.209995 
L 1212.513432 489.986744 
L 1213.506138 490.937142 
L 1214.498844 490.226384 
L 1215.49155 490.357036 
L 1216.484255 488.686324 
L 1217.476961 489.549051 
L 1218.469667 490.009218 
L 1219.462373 489.755831 
L 1220.455079 490.222168 
L 1221.447785 490.903364 
L 1222.440491 489.81571 
L 1223.433197 491.377101 
L 1224.425903 489.902441 
L 1225.418609 489.825158 
L 1226.411315 489.49452 
L 1227.404021 491.223535 
L 1228.396727 489.78763 
L 1229.389432 489.580248 
L 1230.382138 491.542847 
L 1231.374844 492.48 
L 1232.36755 490.957098 
L 1234.352962 490.168279 
L 1235.345668 488.677041 
L 1236.338374 489.696026 
L 1237.33108 490.225709 
L 1238.323786 491.024277 
L 1239.316492 488.497752 
L 1240.309198 489.823421 
L 1241.301904 490.339364 
L 1242.29461 491.758509 
L 1243.287315 491.724382 
L 1244.280021 489.817935 
L 1245.272727 491.505636 
L 1245.272727 491.505636 
" clip-path="url(#pafc43a44d5)" style="fill: none; stroke: #1f77b4; stroke-width: 1.5; stroke-linecap: square"/>
   </g>
   <g id="patch_3">
    <path d="M 180 512.64 
L 180 69.12 
" style="fill: none; stroke: #000000; stroke-width: 0.8; stroke-linejoin: miter; stroke-linecap: square"/>
   </g>
   <g id="patch_4">
    <path d="M 1296 512.64 
L 1296 69.12 
" style="fill: none; stroke: #000000; stroke-width: 0.8; stroke-linejoin: miter; stroke-linecap: square"/>
   </g>
   <g id="patch_5">
    <path d="M 180 512.64 
L 1296 512.64 
" style="fill: none; stroke: #000000; stroke-width: 0.8; stroke-linejoin: miter; stroke-linecap: square"/>
   </g>
   <g id="patch_6">
    <path d="M 180 69.12 
L 1296 69.12 
" style="fill: none; stroke: #000000; stroke-width: 0.8; stroke-linejoin: miter; stroke-linecap: square"/>
   </g>
   <g id="text_14">
    <!-- source13-receiver19 -->
    <g transform="translate(532.175 60.80125) scale(0.4 -0.4)">
     <defs>
      <path id="DejaVuSans-73" d="M 2834 3397 
L 2834 2853 
Q 2591 2978 2328 3040 
Q 2066 3103 1784 3103 
Q 1356 3103 1142 2972 
Q 928 2841 928 2578 
Q 928 2378 1081 2264 
Q 1234 2150 1697 2047 
L 1894 2003 
Q 2506 1872 2764 1633 
Q 3022 1394 3022 966 
Q 3022 478 2636 193 
Q 2250 -91 1575 -91 
Q 1294 -91 989 -36 
Q 684 19 347 128 
L 347 722 
Q 666 556 975 473 
Q 1284 391 1588 391 
Q 1994 391 2212 530 
Q 2431 669 2431 922 
Q 2431 1156 2273 1281 
Q 2116 1406 1581 1522 
L 1381 1569 
Q 847 1681 609 1914 
Q 372 2147 372 2553 
Q 372 3047 722 3315 
Q 1072 3584 1716 3584 
Q 2034 3584 2315 3537 
Q 2597 3491 2834 3397 
z
" transform="scale(0.015625)"/>
      <path id="DejaVuSans-6f" d="M 1959 3097 
Q 1497 3097 1228 2736 
Q 959 2375 959 1747 
Q 959 1119 1226 758 
Q 1494 397 1959 397 
Q 2419 397 2687 759 
Q 2956 1122 2956 1747 
Q 2956 2369 2687 2733 
Q 2419 3097 1959 3097 
z
M 1959 3584 
Q 2709 3584 3137 3096 
Q 3566 2609 3566 1747 
Q 3566 888 3137 398 
Q 2709 -91 1959 -91 
Q 1206 -91 779 398 
Q 353 888 353 1747 
Q 353 2609 779 3096 
Q 1206 3584 1959 3584 
z
" transform="scale(0.015625)"/>
      <path id="DejaVuSans-75" d="M 544 1381 
L 544 3500 
L 1119 3500 
L 1119 1403 
Q 1119 906 1312 657 
Q 1506 409 1894 409 
Q 2359 409 2629 706 
Q 2900 1003 2900 1516 
L 2900 3500 
L 3475 3500 
L 3475 0 
L 2900 0 
L 2900 538 
Q 2691 219 2414 64 
Q 2138 -91 1772 -91 
Q 1169 -91 856 284 
Q 544 659 544 1381 
z
M 1991 3584 
L 1991 3584 
z
" transform="scale(0.015625)"/>
      <path id="DejaVuSans-72" d="M 2631 2963 
Q 2534 3019 2420 3045 
Q 2306 3072 2169 3072 
Q 1681 3072 1420 2755 
Q 1159 2438 1159 1844 
L 1159 0 
L 581 0 
L 581 3500 
L 1159 3500 
L 1159 2956 
Q 1341 3275 1631 3429 
Q 1922 3584 2338 3584 
Q 2397 3584 2469 3576 
Q 2541 3569 2628 3553 
L 2631 2963 
z
" transform="scale(0.015625)"/>
      <path id="DejaVuSans-63" d="M 3122 3366 
L 3122 2828 
Q 2878 2963 2633 3030 
Q 2388 3097 2138 3097 
Q 1578 3097 1268 2742 
Q 959 2388 959 1747 
Q 959 1106 1268 751 
Q 1578 397 2138 397 
Q 2388 397 2633 464 
Q 2878 531 3122 666 
L 3122 134 
Q 2881 22 2623 -34 
Q 2366 -91 2075 -91 
Q 1284 -91 818 406 
Q 353 903 353 1747 
Q 353 2603 823 3093 
Q 1294 3584 2113 3584 
Q 2378 3584 2631 3529 
Q 2884 3475 3122 3366 
z
" transform="scale(0.015625)"/>
      <path id="DejaVuSans-65" d="M 3597 1894 
L 3597 1613 
L 953 1613 
Q 991 1019 1311 708 
Q 1631 397 2203 397 
Q 2534 397 2845 478 
Q 3156 559 3463 722 
L 3463 178 
Q 3153 47 2828 -22 
Q 2503 -91 2169 -91 
Q 1331 -91 842 396 
Q 353 884 353 1716 
Q 353 2575 817 3079 
Q 1281 3584 2069 3584 
Q 2775 3584 3186 3129 
Q 3597 2675 3597 1894 
z
M 3022 2063 
Q 3016 2534 2758 2815 
Q 2500 3097 2075 3097 
Q 1594 3097 1305 2825 
Q 1016 2553 972 2059 
L 3022 2063 
z
" transform="scale(0.015625)"/>
      <path id="DejaVuSans-2d" d="M 313 2009 
L 1997 2009 
L 1997 1497 
L 313 1497 
L 313 2009 
z
" transform="scale(0.015625)"/>
      <path id="DejaVuSans-69" d="M 603 3500 
L 1178 3500 
L 1178 0 
L 603 0 
L 603 3500 
z
M 603 4863 
L 1178 4863 
L 1178 4134 
L 603 4134 
L 603 4863 
z
" transform="scale(0.015625)"/>
      <path id="DejaVuSans-76" d="M 191 3500 
L 800 3500 
L 1894 563 
L 2988 3500 
L 3597 3500 
L 2284 0 
L 1503 0 
L 191 3500 
z
" transform="scale(0.015625)"/>
      <path id="DejaVuSans-39" d="M 703 97 
L 703 672 
Q 941 559 1184 500 
Q 1428 441 1663 441 
Q 2288 441 2617 861 
Q 2947 1281 2994 2138 
Q 2813 1869 2534 1725 
Q 2256 1581 1919 1581 
Q 1219 1581 811 2004 
Q 403 2428 403 3163 
Q 403 3881 828 4315 
Q 1253 4750 1959 4750 
Q 2769 4750 3195 4129 
Q 3622 3509 3622 2328 
Q 3622 1225 3098 567 
Q 2575 -91 1691 -91 
Q 1453 -91 1209 -44 
Q 966 3 703 97 
z
M 1959 2075 
Q 2384 2075 2632 2365 
Q 2881 2656 2881 3163 
Q 2881 3666 2632 3958 
Q 2384 4250 1959 4250 
Q 1534 4250 1286 3958 
Q 1038 3666 1038 3163 
Q 1038 2656 1286 2365 
Q 1534 2075 1959 2075 
z
" transform="scale(0.015625)"/>
     </defs>
     <use xlink:href="#DejaVuSans-73"/>
     <use xlink:href="#DejaVuSans-6f" x="52.099609"/>
     <use xlink:href="#DejaVuSans-75" x="113.28125"/>
     <use xlink:href="#DejaVuSans-72" x="176.660156"/>
     <use xlink:href="#DejaVuSans-63" x="215.523438"/>
     <use xlink:href="#DejaVuSans-65" x="270.503906"/>
     <use xlink:href="#DejaVuSans-31" x="332.027344"/>
     <use xlink:href="#DejaVuSans-33" x="395.650391"/>
     <use xlink:href="#DejaVuSans-2d" x="459.273438"/>
     <use xlink:href="#DejaVuSans-72" x="495.357422"/>
     <use xlink:href="#DejaVuSans-65" x="534.220703"/>
     <use xlink:href="#DejaVuSans-63" x="595.744141"/>
     <use xlink:href="#DejaVuSans-65" x="650.724609"/>
     <use xlink:href="#DejaVuSans-69" x="712.248047"/>
     <use xlink:href="#DejaVuSans-76" x="740.03125"/>
     <use xlink:href="#DejaVuSans-65" x="799.210938"/>
     <use xlink:href="#DejaVuSans-72" x="860.734375"/>
     <use xlink:href="#DejaVuSans-31" x="901.847656"/>
     <use xlink:href="#DejaVuSans-39" x="965.470703"/>
    </g>
   </g>
  </g>
 </g>
 <defs>
  <clipPath id="pafc43a44d5">
   <rect x="180" y="69.12" width="1116" height="443.52"/>
  </clipPath>
 </defs>
</svg>
