<?xml version="1.0" encoding="utf-8" standalone="no"?>
<!DOCTYPE svg PUBLIC "-//W3C//DTD SVG 1.1//EN"
  "http://www.w3.org/Graphics/SVG/1.1/DTD/svg11.dtd">
<svg xmlns:xlink="http://www.w3.org/1999/xlink" width="1440pt" height="576pt" viewBox="0 0 1440 576" xmlns="http://www.w3.org/2000/svg" version="1.1">
 <metadata>
  <rdf:RDF xmlns:dc="http://purl.org/dc/elements/1.1/" xmlns:cc="http://creativecommons.org/ns#" xmlns:rdf="http://www.w3.org/1999/02/22-rdf-syntax-ns#">
   <cc:Work>
    <dc:type rdf:resource="http://purl.org/dc/dcmitype/StillImage"/>
    <dc:date>2024-05-22T04:50:04.760721</dc:date>
    <dc:format>image/svg+xml</dc:format>
    <dc:creator>
     <cc:Agent>
      <dc:title>Matplotlib v3.8.3, https://matplotlib.org/</dc:title>
     </cc:Agent>
    </dc:creator>
   </cc:Work>
  </rdf:RDF>
 </metadata>
 <defs>
  <style type="text/css">*{stroke-linejoin: round; stroke-linecap: butt}</style>
 </defs>
 <g id="figure_1">
  <g id="patch_1">
   <path d="M 0 576 
L 1440 576 
L 1440 0 
L 0 0 
z
" style="fill: #ffffff"/>
  </g>
  <g id="axes_1">
   <g id="patch_2">
    <path d="M 180 512.64 
L 1296 512.64 
L 1296 69.12 
L 180 69.12 
z
" style="fill: #ffffff"/>
   </g>
   <g id="matplotlib.axis_1">
    <g id="xtick_1">
     <g id="line2d_1">
      <defs>
       <path id="m57355cdfc8" d="M 0 0 
L 0 3.5 
" style="stroke: #000000; stroke-width: 0.8"/>
      </defs>
      <g>
       <use xlink:href="#m57355cdfc8" x="229.734567" y="512.64" style="stroke: #000000; stroke-width: 0.8"/>
      </g>
     </g>
     <g id="text_1">
      <!-- 0 -->
      <g transform="translate(226.553317 527.238438) scale(0.1 -0.1)">
       <defs>
        <path id="DejaVuSans-30" d="M 2034 4250 
Q 1547 4250 1301 3770 
Q 1056 3291 1056 2328 
Q 1056 1369 1301 889 
Q 1547 409 2034 409 
Q 2525 409 2770 889 
Q 3016 1369 3016 2328 
Q 3016 3291 2770 3770 
Q 2525 4250 2034 4250 
z
M 2034 4750 
Q 2819 4750 3233 4129 
Q 3647 3509 3647 2328 
Q 3647 1150 3233 529 
Q 2819 -91 2034 -91 
Q 1250 -91 836 529 
Q 422 1150 422 2328 
Q 422 3509 836 4129 
Q 1250 4750 2034 4750 
z
" transform="scale(0.015625)"/>
       </defs>
       <use xlink:href="#DejaVuSans-30"/>
      </g>
     </g>
    </g>
    <g id="xtick_2">
     <g id="line2d_2">
      <g>
       <use xlink:href="#m57355cdfc8" x="433.04074" y="512.64" style="stroke: #000000; stroke-width: 0.8"/>
      </g>
     </g>
     <g id="text_2">
      <!-- 500 -->
      <g transform="translate(423.49699 527.238438) scale(0.1 -0.1)">
       <defs>
        <path id="DejaVuSans-35" d="M 691 4666 
L 3169 4666 
L 3169 4134 
L 1269 4134 
L 1269 2991 
Q 1406 3038 1543 3061 
Q 1681 3084 1819 3084 
Q 2600 3084 3056 2656 
Q 3513 2228 3513 1497 
Q 3513 744 3044 326 
Q 2575 -91 1722 -91 
Q 1428 -91 1123 -41 
Q 819 9 494 109 
L 494 744 
Q 775 591 1075 516 
Q 1375 441 1709 441 
Q 2250 441 2565 725 
Q 2881 1009 2881 1497 
Q 2881 1984 2565 2268 
Q 2250 2553 1709 2553 
Q 1456 2553 1204 2497 
Q 953 2441 691 2322 
L 691 4666 
z
" transform="scale(0.015625)"/>
       </defs>
       <use xlink:href="#DejaVuSans-35"/>
       <use xlink:href="#DejaVuSans-30" x="63.623047"/>
       <use xlink:href="#DejaVuSans-30" x="127.246094"/>
      </g>
     </g>
    </g>
    <g id="xtick_3">
     <g id="line2d_3">
      <g>
       <use xlink:href="#m57355cdfc8" x="636.346913" y="512.64" style="stroke: #000000; stroke-width: 0.8"/>
      </g>
     </g>
     <g id="text_3">
      <!-- 1000 -->
      <g transform="translate(623.621913 527.238438) scale(0.1 -0.1)">
       <defs>
        <path id="DejaVuSans-31" d="M 794 531 
L 1825 531 
L 1825 4091 
L 703 3866 
L 703 4441 
L 1819 4666 
L 2450 4666 
L 2450 531 
L 3481 531 
L 3481 0 
L 794 0 
L 794 531 
z
" transform="scale(0.015625)"/>
       </defs>
       <use xlink:href="#DejaVuSans-31"/>
       <use xlink:href="#DejaVuSans-30" x="63.623047"/>
       <use xlink:href="#DejaVuSans-30" x="127.246094"/>
       <use xlink:href="#DejaVuSans-30" x="190.869141"/>
      </g>
     </g>
    </g>
    <g id="xtick_4">
     <g id="line2d_4">
      <g>
       <use xlink:href="#m57355cdfc8" x="839.653087" y="512.64" style="stroke: #000000; stroke-width: 0.8"/>
      </g>
     </g>
     <g id="text_4">
      <!-- 1500 -->
      <g transform="translate(826.928087 527.238438) scale(0.1 -0.1)">
       <use xlink:href="#DejaVuSans-31"/>
       <use xlink:href="#DejaVuSans-35" x="63.623047"/>
       <use xlink:href="#DejaVuSans-30" x="127.246094"/>
       <use xlink:href="#DejaVuSans-30" x="190.869141"/>
      </g>
     </g>
    </g>
    <g id="xtick_5">
     <g id="line2d_5">
      <g>
       <use xlink:href="#m57355cdfc8" x="1042.95926" y="512.64" style="stroke: #000000; stroke-width: 0.8"/>
      </g>
     </g>
     <g id="text_5">
      <!-- 2000 -->
      <g transform="translate(1030.23426 527.238438) scale(0.1 -0.1)">
       <defs>
        <path id="DejaVuSans-32" d="M 1228 531 
L 3431 531 
L 3431 0 
L 469 0 
L 469 531 
Q 828 903 1448 1529 
Q 2069 2156 2228 2338 
Q 2531 2678 2651 2914 
Q 2772 3150 2772 3378 
Q 2772 3750 2511 3984 
Q 2250 4219 1831 4219 
Q 1534 4219 1204 4116 
Q 875 4013 500 3803 
L 500 4441 
Q 881 4594 1212 4672 
Q 1544 4750 1819 4750 
Q 2544 4750 2975 4387 
Q 3406 4025 3406 3419 
Q 3406 3131 3298 2873 
Q 3191 2616 2906 2266 
Q 2828 2175 2409 1742 
Q 1991 1309 1228 531 
z
" transform="scale(0.015625)"/>
       </defs>
       <use xlink:href="#DejaVuSans-32"/>
       <use xlink:href="#DejaVuSans-30" x="63.623047"/>
       <use xlink:href="#DejaVuSans-30" x="127.246094"/>
       <use xlink:href="#DejaVuSans-30" x="190.869141"/>
      </g>
     </g>
    </g>
    <g id="xtick_6">
     <g id="line2d_6">
      <g>
       <use xlink:href="#m57355cdfc8" x="1246.265433" y="512.64" style="stroke: #000000; stroke-width: 0.8"/>
      </g>
     </g>
     <g id="text_6">
      <!-- 2500 -->
      <g transform="translate(1233.540433 527.238438) scale(0.1 -0.1)">
       <use xlink:href="#DejaVuSans-32"/>
       <use xlink:href="#DejaVuSans-35" x="63.623047"/>
       <use xlink:href="#DejaVuSans-30" x="127.246094"/>
       <use xlink:href="#DejaVuSans-30" x="190.869141"/>
      </g>
     </g>
    </g>
   </g>
   <g id="matplotlib.axis_2">
    <g id="ytick_1">
     <g id="line2d_7">
      <defs>
       <path id="m679eb1c73e" d="M 0 0 
L -3.5 0 
" style="stroke: #000000; stroke-width: 0.8"/>
      </defs>
      <g>
       <use xlink:href="#m679eb1c73e" x="180" y="495.777984" style="stroke: #000000; stroke-width: 0.8"/>
      </g>
     </g>
     <g id="text_7">
      <!-- −6 -->
      <g transform="translate(158.257812 499.577203) scale(0.1 -0.1)">
       <defs>
        <path id="DejaVuSans-2212" d="M 678 2272 
L 4684 2272 
L 4684 1741 
L 678 1741 
L 678 2272 
z
" transform="scale(0.015625)"/>
        <path id="DejaVuSans-36" d="M 2113 2584 
Q 1688 2584 1439 2293 
Q 1191 2003 1191 1497 
Q 1191 994 1439 701 
Q 1688 409 2113 409 
Q 2538 409 2786 701 
Q 3034 994 3034 1497 
Q 3034 2003 2786 2293 
Q 2538 2584 2113 2584 
z
M 3366 4563 
L 3366 3988 
Q 3128 4100 2886 4159 
Q 2644 4219 2406 4219 
Q 1781 4219 1451 3797 
Q 1122 3375 1075 2522 
Q 1259 2794 1537 2939 
Q 1816 3084 2150 3084 
Q 2853 3084 3261 2657 
Q 3669 2231 3669 1497 
Q 3669 778 3244 343 
Q 2819 -91 2113 -91 
Q 1303 -91 875 529 
Q 447 1150 447 2328 
Q 447 3434 972 4092 
Q 1497 4750 2381 4750 
Q 2619 4750 2861 4703 
Q 3103 4656 3366 4563 
z
" transform="scale(0.015625)"/>
       </defs>
       <use xlink:href="#DejaVuSans-2212"/>
       <use xlink:href="#DejaVuSans-36" x="83.789062"/>
      </g>
     </g>
    </g>
    <g id="ytick_2">
     <g id="line2d_8">
      <g>
       <use xlink:href="#m679eb1c73e" x="180" y="410.797636" style="stroke: #000000; stroke-width: 0.8"/>
      </g>
     </g>
     <g id="text_8">
      <!-- −4 -->
      <g transform="translate(158.257812 414.596855) scale(0.1 -0.1)">
       <defs>
        <path id="DejaVuSans-34" d="M 2419 4116 
L 825 1625 
L 2419 1625 
L 2419 4116 
z
M 2253 4666 
L 3047 4666 
L 3047 1625 
L 3713 1625 
L 3713 1100 
L 3047 1100 
L 3047 0 
L 2419 0 
L 2419 1100 
L 313 1100 
L 313 1709 
L 2253 4666 
z
" transform="scale(0.015625)"/>
       </defs>
       <use xlink:href="#DejaVuSans-2212"/>
       <use xlink:href="#DejaVuSans-34" x="83.789062"/>
      </g>
     </g>
    </g>
    <g id="ytick_3">
     <g id="line2d_9">
      <g>
       <use xlink:href="#m679eb1c73e" x="180" y="325.817288" style="stroke: #000000; stroke-width: 0.8"/>
      </g>
     </g>
     <g id="text_9">
      <!-- −2 -->
      <g transform="translate(158.257812 329.616507) scale(0.1 -0.1)">
       <use xlink:href="#DejaVuSans-2212"/>
       <use xlink:href="#DejaVuSans-32" x="83.789062"/>
      </g>
     </g>
    </g>
    <g id="ytick_4">
     <g id="line2d_10">
      <g>
       <use xlink:href="#m679eb1c73e" x="180" y="240.83694" style="stroke: #000000; stroke-width: 0.8"/>
      </g>
     </g>
     <g id="text_10">
      <!-- 0 -->
      <g transform="translate(166.6375 244.636159) scale(0.1 -0.1)">
       <use xlink:href="#DejaVuSans-30"/>
      </g>
     </g>
    </g>
    <g id="ytick_5">
     <g id="line2d_11">
      <g>
       <use xlink:href="#m679eb1c73e" x="180" y="155.856592" style="stroke: #000000; stroke-width: 0.8"/>
      </g>
     </g>
     <g id="text_11">
      <!-- 2 -->
      <g transform="translate(166.6375 159.655811) scale(0.1 -0.1)">
       <use xlink:href="#DejaVuSans-32"/>
      </g>
     </g>
    </g>
    <g id="ytick_6">
     <g id="line2d_12">
      <g>
       <use xlink:href="#m679eb1c73e" x="180" y="70.876244" style="stroke: #000000; stroke-width: 0.8"/>
      </g>
     </g>
     <g id="text_12">
      <!-- 4 -->
      <g transform="translate(166.6375 74.675462) scale(0.1 -0.1)">
       <use xlink:href="#DejaVuSans-34"/>
      </g>
     </g>
    </g>
   </g>
   <g id="line2d_13">
    <path d="M 230.727273 299.067746 
L 231.719979 298.044303 
L 232.712685 297.961837 
L 233.70539 296.345963 
L 234.698096 295.330293 
L 235.690802 293.617265 
L 237.676214 289.281171 
L 238.66892 286.904402 
L 239.661626 284.167213 
L 241.647038 277.279591 
L 242.639744 273.014999 
L 243.63245 268.149135 
L 244.625156 262.033103 
L 245.617862 256.858968 
L 246.610568 255.051653 
L 247.603273 242.017078 
L 248.595979 207.418849 
L 249.588685 177.749086 
L 250.581391 157.349412 
L 251.574097 145.75986 
L 252.566803 141.431236 
L 253.559509 148.137569 
L 254.552215 170.459455 
L 255.544921 264.627955 
L 256.537627 183.393298 
L 257.530333 161.229164 
L 258.523039 157.907452 
L 259.515745 165.424134 
L 260.50845 178.525706 
L 261.501156 183.291079 
L 262.493862 174.244183 
L 263.486568 162.934221 
L 264.479274 153.858798 
L 265.47198 149.310737 
L 266.464686 152.472396 
L 267.457392 170.436895 
L 268.450098 167.606229 
L 269.442804 141.787514 
L 270.43551 133.651692 
L 271.428216 142.273742 
L 272.420922 175.278407 
L 273.413627 182.316222 
L 274.406333 150.092971 
L 275.399039 136.397838 
L 276.391745 129.781053 
L 277.384451 127.954432 
L 278.377157 131.908855 
L 279.369863 141.494863 
L 280.362569 155.620202 
L 281.355275 191.125129 
L 282.347981 174.703015 
L 283.340687 125.820385 
L 284.333393 102.901886 
L 285.326099 91.6214 
L 286.318804 89.28 
L 287.31151 94.58084 
L 288.304216 107.858295 
L 289.296922 129.681866 
L 290.289628 161.350554 
L 291.282334 164.320344 
L 292.27504 148.970288 
L 293.267746 145.170128 
L 294.260452 154.406985 
L 296.245864 192.238424 
L 297.23857 201.955651 
L 298.231276 225.395861 
L 299.223981 295.00741 
L 300.216687 307.589893 
L 301.209393 288.059457 
L 302.202099 254.725956 
L 303.194805 248.891656 
L 304.187511 290.780787 
L 305.180217 284.626028 
L 306.172923 258.11687 
L 307.165629 277.065586 
L 308.158335 396.557607 
L 309.151041 294.916461 
L 310.143747 301.21949 
L 311.136453 348.212547 
L 312.129159 306.831807 
L 313.121864 321.232816 
L 314.11457 309.451139 
L 315.107276 330.351102 
L 316.099982 329.538503 
L 317.092688 315.110648 
L 318.085394 323.676171 
L 319.0781 334.824183 
L 320.070806 315.79516 
L 321.063512 350.612682 
L 322.056218 346.924737 
L 323.048924 327.041147 
L 324.04163 323.491364 
L 325.034336 359.70479 
L 326.027041 333.023001 
L 327.019747 339.078728 
L 328.012453 391.150101 
L 329.005159 324.781005 
L 329.997865 336.276529 
L 330.990571 335.651556 
L 331.983277 332.495785 
L 332.975983 355.561719 
L 333.968689 331.278421 
L 334.961395 335.203142 
L 335.954101 357.53427 
L 336.946807 321.080653 
L 337.939513 355.141474 
L 338.932218 343.619064 
L 339.924924 337.726024 
L 340.91763 343.841205 
L 341.910336 347.65675 
L 342.903042 371.539519 
L 343.895748 332.787888 
L 344.888454 370.598429 
L 345.88116 355.383897 
L 346.873866 376.931277 
L 347.866572 363.115806 
L 348.859278 358.570792 
L 349.851984 343.542956 
L 350.84469 358.885543 
L 351.837395 340.489458 
L 352.830101 348.784742 
L 353.822807 383.305033 
L 354.815513 355.821976 
L 355.808219 363.911258 
L 356.800925 373.892174 
L 357.793631 334.456811 
L 358.786337 369.48048 
L 359.779043 386.717732 
L 360.771749 380.269255 
L 361.764455 379.072279 
L 362.757161 353.610692 
L 363.749867 370.663162 
L 365.735278 349.017283 
L 366.727984 376.300298 
L 367.72069 376.553864 
L 368.713396 372.558032 
L 369.706102 377.862491 
L 370.698808 355.684926 
L 371.691514 379.184303 
L 372.68422 357.17798 
L 373.676926 345.567092 
L 374.669632 348.036797 
L 375.662338 359.199978 
L 376.655044 339.692485 
L 377.64775 356.620711 
L 378.640455 364.085059 
L 379.633161 375.438566 
L 380.625867 364.322349 
L 381.618573 385.23421 
L 382.611279 375.8521 
L 383.603985 361.622182 
L 384.596691 367.491095 
L 385.589397 342.38642 
L 386.582103 377.799675 
L 387.574809 356.566303 
L 388.567515 372.550516 
L 389.560221 395.712793 
L 390.552927 375.901725 
L 391.545632 375.625858 
L 392.538338 397.034326 
L 393.531044 352.161706 
L 394.52375 345.321411 
L 395.516456 411.981202 
L 396.509162 381.331039 
L 397.501868 364.377983 
L 398.494574 366.353274 
L 399.48728 368.894966 
L 400.479986 365.923054 
L 401.472692 370.621741 
L 402.465398 401.545357 
L 403.458104 355.676915 
L 404.450809 366.645851 
L 405.443515 403.199294 
L 406.436221 377.35125 
L 407.428927 360.887154 
L 408.421633 397.544051 
L 409.414339 362.876602 
L 410.407045 362.067221 
L 411.399751 370.942178 
L 412.392457 432.666467 
L 413.385163 362.455182 
L 414.377869 381.981351 
L 415.370575 367.916333 
L 416.363281 363.583965 
L 417.355986 378.323539 
L 418.348692 371.403926 
L 419.341398 362.796648 
L 420.334104 414.828679 
L 421.32681 415.346937 
L 422.319516 348.527986 
L 423.312222 395.038965 
L 424.304928 370.145784 
L 425.297634 363.096232 
L 426.29034 380.517684 
L 427.283046 371.501732 
L 428.275752 419.614879 
L 429.268458 382.113241 
L 430.261163 395.890495 
L 431.253869 384.670448 
L 432.246575 361.03688 
L 433.239281 380.776762 
L 434.231987 365.743823 
L 435.224693 383.764477 
L 436.217399 387.298891 
L 437.210105 366.975442 
L 438.202811 367.44963 
L 439.195517 389.519427 
L 440.188223 370.456961 
L 441.180929 379.666957 
L 442.173635 365.908992 
L 443.166341 347.002102 
L 444.159046 346.520489 
L 445.151752 353.081142 
L 446.144458 350.798882 
L 447.137164 369.563012 
L 448.12987 372.671637 
L 449.122576 381.498883 
L 450.115282 347.814949 
L 451.107988 386.552132 
L 452.100694 360.18273 
L 453.0934 390.040967 
L 454.086106 376.72333 
L 455.078812 445.344244 
L 456.071518 361.17971 
L 457.064223 383.719688 
L 458.056929 432.219595 
L 459.049635 396.307641 
L 460.042341 406.487304 
L 461.035047 369.244324 
L 462.027753 419.767951 
L 463.020459 400.081309 
L 464.013165 414.767643 
L 465.005871 376.918136 
L 465.998577 360.137093 
L 466.991283 376.164768 
L 467.983989 380.536978 
L 468.976695 395.086058 
L 469.9694 374.028213 
L 470.962106 368.46887 
L 471.954812 378.723269 
L 472.947518 410.650523 
L 473.940224 412.899585 
L 474.93293 396.585165 
L 475.925636 374.063626 
L 476.918342 389.362613 
L 477.911048 369.875463 
L 478.903754 360.520937 
L 479.89646 349.97762 
L 480.889166 346.218423 
L 481.881872 384.790037 
L 482.874577 403.698479 
L 483.867283 402.974239 
L 484.859989 390.772351 
L 486.845401 346.392034 
L 487.838107 381.837581 
L 488.830813 357.407418 
L 490.816225 388.327467 
L 491.808931 344.640331 
L 492.801637 355.423091 
L 493.794343 402.461264 
L 494.787049 402.113054 
L 495.779754 379.759651 
L 496.77246 381.514977 
L 497.765166 390.179589 
L 498.757872 412.941498 
L 499.750578 406.257592 
L 500.743284 361.76113 
L 501.73599 376.858818 
L 502.728696 351.580445 
L 503.721402 399.854633 
L 504.714108 406.749877 
L 505.706814 371.747286 
L 506.69952 367.477475 
L 507.692226 377.166379 
L 508.684932 470.094 
L 509.677637 360.819438 
L 510.670343 416.284451 
L 511.663049 381.215066 
L 512.655755 390.909539 
L 513.648461 420.96145 
L 514.641167 370.153003 
L 515.633873 379.427954 
L 516.626579 405.945364 
L 517.619285 402.022669 
L 518.611991 376.072564 
L 519.604697 407.722691 
L 520.597403 434.476584 
L 521.590109 352.846692 
L 522.582814 363.589324 
L 523.57552 414.719713 
L 524.568226 369.323926 
L 525.560932 383.644348 
L 526.553638 362.484363 
L 527.546344 371.225535 
L 528.53905 401.573178 
L 529.531756 394.743273 
L 530.524462 406.491682 
L 531.517168 410.574084 
L 533.50258 389.574231 
L 534.495286 408.63759 
L 535.487991 359.279335 
L 536.480697 358.519345 
L 537.473403 415.778259 
L 538.466109 374.848043 
L 539.458815 385.757549 
L 540.451521 376.845926 
L 541.444227 408.096034 
L 542.436933 412.688302 
L 543.429639 363.372223 
L 544.422345 400.324172 
L 545.415051 366.453794 
L 546.407757 392.491997 
L 547.400463 378.070295 
L 548.393168 440.761265 
L 549.385874 375.638457 
L 550.37858 379.771771 
L 551.371286 390.901727 
L 552.363992 384.256307 
L 553.356698 411.445124 
L 554.349404 395.205828 
L 555.34211 360.318041 
L 556.334816 405.251402 
L 557.327522 416.392893 
L 558.320228 395.018876 
L 559.312934 377.683666 
L 560.30564 378.350667 
L 561.298345 386.671893 
L 562.291051 430.396957 
L 563.283757 492.48 
L 564.276463 388.298225 
L 565.269169 439.653541 
L 566.261875 385.292831 
L 567.254581 383.725702 
L 568.247287 376.486007 
L 569.239993 425.879226 
L 570.232699 356.582509 
L 571.225405 400.241553 
L 572.218111 402.43776 
L 573.210817 485.439435 
L 574.203523 440.051225 
L 575.196228 370.628138 
L 576.188934 400.885487 
L 577.18164 380.991869 
L 578.174346 436.09504 
L 579.167052 406.894807 
L 580.159758 396.524253 
L 581.152464 362.623561 
L 582.14517 379.104997 
L 583.137876 428.071234 
L 584.130582 358.270402 
L 585.123288 446.225418 
L 586.115994 429.07711 
L 587.1087 401.986422 
L 588.101405 378.774427 
L 589.094111 403.356448 
L 590.086817 403.531106 
L 591.079523 395.320078 
L 592.072229 410.231723 
L 593.064935 371.934244 
L 594.057641 372.681356 
L 595.050347 390.572884 
L 596.043053 416.606996 
L 597.035759 407.542152 
L 598.028465 396.003359 
L 599.021171 446.31945 
L 600.013877 366.201723 
L 601.006582 366.160851 
L 601.999288 393.864871 
L 602.991994 404.974127 
L 603.9847 402.973146 
L 604.977406 362.732548 
L 605.970112 389.092153 
L 606.962818 366.031244 
L 607.955524 434.143105 
L 608.94823 392.38306 
L 609.940936 440.590444 
L 610.933642 379.498482 
L 611.926348 390.325964 
L 612.919054 380.743945 
L 613.911759 402.690077 
L 614.904465 388.171918 
L 615.897171 423.019818 
L 616.889877 398.091203 
L 617.882583 440.817035 
L 618.875289 391.541516 
L 619.867995 444.840704 
L 620.860701 403.044631 
L 621.853407 402.559821 
L 622.846113 418.420545 
L 623.838819 417.97712 
L 624.831525 427.123947 
L 625.824231 389.075098 
L 626.816936 410.725056 
L 627.809642 463.520834 
L 628.802348 411.650112 
L 629.795054 393.141966 
L 630.78776 395.188234 
L 631.780466 404.045066 
L 632.773172 450.651808 
L 633.765878 421.843086 
L 634.758584 414.633821 
L 635.75129 383.993905 
L 636.743996 404.460282 
L 637.736702 404.885325 
L 638.729408 422.375286 
L 639.722114 436.971715 
L 640.714819 445.186233 
L 641.707525 418.6693 
L 642.700231 403.645551 
L 643.692937 434.429349 
L 644.685643 434.802838 
L 645.678349 401.609296 
L 646.671055 406.497648 
L 647.663761 429.118164 
L 648.656467 404.502751 
L 649.649173 426.415173 
L 651.634585 408.897277 
L 652.627291 418.903977 
L 653.619996 404.729024 
L 654.612702 420.038298 
L 655.605408 413.791683 
L 656.598114 409.902086 
L 657.59082 417.225699 
L 658.583526 418.821395 
L 659.576232 418.066169 
L 660.568938 408.213997 
L 661.561644 421.170031 
L 662.55435 407.923618 
L 663.547056 420.036599 
L 664.539762 407.932553 
L 665.532468 413.519707 
L 666.525173 410.238148 
L 667.517879 420.053778 
L 668.510585 418.497358 
L 669.503291 416.314839 
L 670.495997 415.5756 
L 671.488703 412.742266 
L 673.474115 405.975125 
L 674.466821 410.941023 
L 675.459527 413.782903 
L 676.452233 424.663449 
L 677.444939 427.313973 
L 679.43035 407.773154 
L 680.423056 412.849404 
L 681.415762 419.917653 
L 682.408468 421.30843 
L 683.401174 410.547157 
L 684.39388 420.515838 
L 685.386586 422.210554 
L 686.379292 422.095628 
L 687.371998 414.831443 
L 688.364704 417.144822 
L 689.35741 428.165086 
L 690.350116 427.588594 
L 691.342822 426.240618 
L 692.335527 418.096296 
L 693.328233 420.337583 
L 694.320939 412.698873 
L 695.313645 426.292902 
L 696.306351 419.544242 
L 698.291763 428.471855 
L 699.284469 419.166665 
L 700.277175 418.15218 
L 701.269881 423.092229 
L 702.262587 415.118763 
L 703.255293 420.243877 
L 704.247999 431.862172 
L 705.240705 424.95518 
L 706.23341 423.273324 
L 707.226116 416.385864 
L 708.218822 412.85735 
L 709.211528 422.317152 
L 710.204234 433.871475 
L 711.19694 424.351653 
L 712.189646 420.844058 
L 713.182352 420.515336 
L 714.175058 420.643395 
L 715.167764 417.200798 
L 716.16047 420.072342 
L 717.153176 420.709357 
L 718.145882 417.684916 
L 719.138587 423.571008 
L 720.131293 422.818797 
L 721.123999 421.408078 
L 722.116705 419.684984 
L 723.109411 422.455225 
L 724.102117 418.063035 
L 725.094823 426.117234 
L 726.087529 423.991049 
L 727.080235 426.403515 
L 728.072941 419.514662 
L 729.065647 421.683047 
L 730.058353 422.771227 
L 731.051059 422.958268 
L 732.043764 422.79528 
L 733.03647 425.321237 
L 734.029176 417.527988 
L 735.021882 422.537099 
L 736.014588 425.923451 
L 737.007294 418.347682 
L 738.992706 424.864989 
L 739.985412 418.93118 
L 740.978118 420.184343 
L 741.970824 421.996099 
L 742.96353 418.88802 
L 743.956236 420.285754 
L 744.948941 422.645418 
L 745.941647 427.504776 
L 746.934353 416.503025 
L 747.927059 428.12554 
L 748.919765 422.55494 
L 749.912471 422.224939 
L 750.905177 424.549756 
L 751.897883 420.9024 
L 752.890589 423.668484 
L 753.883295 427.25758 
L 754.876001 424.612672 
L 755.868707 419.826281 
L 756.861413 426.595463 
L 757.854118 423.462463 
L 758.846824 425.237686 
L 759.83953 423.408867 
L 760.832236 425.348423 
L 761.824942 424.354794 
L 762.817648 420.150649 
L 763.810354 425.514654 
L 764.80306 423.837074 
L 765.795766 423.606251 
L 766.788472 428.91087 
L 767.781178 422.16571 
L 768.773884 423.951711 
L 769.76659 432.647439 
L 770.759295 425.972474 
L 771.752001 423.83787 
L 772.744707 424.133886 
L 773.737413 425.610088 
L 774.730119 420.805033 
L 775.722825 429.765422 
L 776.715531 423.239134 
L 777.708237 421.784498 
L 778.700943 428.81216 
L 779.693649 418.208197 
L 780.686355 421.214604 
L 781.679061 419.498782 
L 782.671767 425.811051 
L 783.664473 426.740411 
L 784.657178 420.613688 
L 785.649884 425.376123 
L 786.64259 430.761917 
L 787.635296 427.185882 
L 788.628002 424.441625 
L 789.620708 418.690707 
L 790.613414 426.187081 
L 791.60612 428.624191 
L 792.598826 422.707617 
L 793.591532 425.271356 
L 794.584238 425.199305 
L 795.576944 421.290377 
L 796.56965 423.363377 
L 797.562355 422.77894 
L 798.555061 426.09158 
L 799.547767 427.345573 
L 800.540473 424.145051 
L 801.533179 421.777151 
L 802.525885 427.302069 
L 803.518591 426.754676 
L 804.511297 424.67203 
L 805.504003 427.646813 
L 806.496709 426.531233 
L 807.489415 422.074327 
L 808.482121 425.571607 
L 809.474827 425.785969 
L 810.467532 422.108467 
L 811.460238 428.350987 
L 812.452944 426.244057 
L 813.44565 428.665905 
L 814.438356 422.882963 
L 815.431062 427.953343 
L 816.423768 423.644987 
L 817.416474 431.630798 
L 818.40918 425.800365 
L 819.401886 422.483874 
L 820.394592 431.50387 
L 821.387298 424.907339 
L 822.380004 430.510294 
L 823.372709 427.317988 
L 825.358121 429.708106 
L 826.350827 426.93879 
L 827.343533 428.049256 
L 828.336239 422.659728 
L 829.328945 425.401056 
L 830.321651 427.040403 
L 831.314357 427.841487 
L 832.307063 431.533011 
L 833.299769 426.440143 
L 834.292475 425.558062 
L 835.285181 427.153671 
L 836.277886 431.691815 
L 837.270592 430.160215 
L 838.263298 426.30324 
L 839.256004 426.652999 
L 840.24871 425.171115 
L 841.241416 427.237828 
L 842.234122 429.744861 
L 843.226828 426.563008 
L 844.219534 424.470544 
L 845.21224 427.967105 
L 846.204946 430.996793 
L 847.197652 426.809063 
L 848.190358 427.194976 
L 849.183064 431.21275 
L 850.175769 431.918479 
L 851.168475 424.293586 
L 852.161181 427.865306 
L 853.153887 433.540339 
L 854.146593 427.211881 
L 855.139299 429.781437 
L 856.132005 427.915009 
L 857.124711 427.179623 
L 858.117417 431.835171 
L 859.110123 427.870534 
L 860.102829 428.248926 
L 861.095535 421.204358 
L 862.088241 432.639946 
L 863.080946 429.605622 
L 864.073652 429.207706 
L 865.066358 429.986228 
L 866.059064 432.764549 
L 867.05177 428.005684 
L 868.044476 430.125617 
L 869.037182 434.219714 
L 870.029888 429.487999 
L 871.022594 430.852324 
L 872.0153 430.677156 
L 873.008006 425.512855 
L 874.000712 426.482524 
L 874.993418 431.47975 
L 875.986123 427.68416 
L 876.978829 430.031253 
L 877.971535 430.478525 
L 878.964241 431.186138 
L 879.956947 422.383953 
L 880.949653 426.130835 
L 881.942359 426.766921 
L 882.935065 430.615146 
L 883.927771 427.751901 
L 884.920477 425.32606 
L 885.913183 433.112325 
L 886.905889 432.60926 
L 887.898595 425.259587 
L 888.8913 428.392655 
L 889.884006 433.231191 
L 890.876712 431.615965 
L 892.862124 432.810284 
L 893.85483 430.405377 
L 894.847536 429.667131 
L 895.840242 433.627913 
L 896.832948 434.243809 
L 897.825654 433.766169 
L 898.81836 436.267005 
L 899.811066 436.30389 
L 900.803772 428.318197 
L 901.796477 433.546557 
L 902.789183 428.712122 
L 903.781889 432.060337 
L 904.774595 425.664619 
L 905.767301 432.160639 
L 906.760007 429.68095 
L 907.752713 432.211597 
L 908.745419 437.215055 
L 909.738125 436.377738 
L 910.730831 425.037551 
L 911.723537 434.703329 
L 912.716243 432.410816 
L 913.708949 432.046567 
L 914.701655 429.130165 
L 915.69436 431.108215 
L 916.687066 429.491741 
L 917.679772 423.045604 
L 918.672478 437.713028 
L 919.665184 431.087862 
L 920.65789 429.046244 
L 921.650596 431.60388 
L 922.643302 433.528996 
L 923.636008 427.532671 
L 924.628714 433.581067 
L 925.62142 429.460366 
L 926.614126 430.024947 
L 927.606832 433.462851 
L 928.599537 428.293982 
L 929.592243 426.087263 
L 930.584949 425.01702 
L 931.577655 436.718031 
L 932.570361 433.833621 
L 933.563067 436.212521 
L 934.555773 434.15739 
L 935.548479 427.950842 
L 936.541185 434.740928 
L 937.533891 427.303628 
L 938.526597 433.408766 
L 939.519303 433.836378 
L 940.512009 434.563736 
L 941.504714 432.006487 
L 942.49742 433.352602 
L 943.490126 433.162075 
L 944.482832 432.05957 
L 945.475538 433.980283 
L 946.468244 432.717834 
L 947.46095 432.309232 
L 948.453656 432.575417 
L 950.439068 427.281339 
L 951.431774 430.441489 
L 952.42448 431.950757 
L 953.417186 429.847324 
L 954.409891 439.249598 
L 955.402597 434.151615 
L 956.395303 438.77131 
L 957.388009 429.19107 
L 958.380715 428.919542 
L 959.373421 429.607513 
L 960.366127 437.461031 
L 961.358833 436.406103 
L 962.351539 437.898416 
L 963.344245 438.779474 
L 964.336951 428.223128 
L 965.329657 428.639064 
L 966.322363 435.284822 
L 967.315068 429.216697 
L 969.30048 429.336565 
L 970.293186 432.531024 
L 971.285892 429.916333 
L 972.278598 434.137908 
L 973.271304 432.507904 
L 974.26401 427.530138 
L 975.256716 431.814331 
L 976.249422 434.547156 
L 977.242128 433.596737 
L 978.234834 426.443396 
L 979.22754 435.765815 
L 980.220246 433.937798 
L 981.212951 433.459781 
L 982.205657 432.012276 
L 983.198363 430.997259 
L 984.191069 435.670988 
L 985.183775 431.195363 
L 986.176481 433.071812 
L 987.169187 431.019458 
L 988.161893 430.604426 
L 989.154599 433.928986 
L 990.147305 438.924514 
L 991.140011 432.551393 
L 992.132717 435.893789 
L 993.125423 437.970719 
L 994.118128 439.154018 
L 995.110834 435.591697 
L 996.10354 431.017923 
L 997.096246 433.442369 
L 998.088952 436.248043 
L 999.081658 433.953952 
L 1000.074364 437.662534 
L 1001.06707 430.979342 
L 1002.059776 434.671615 
L 1003.052482 436.951566 
L 1004.045188 431.973403 
L 1005.037894 431.39218 
L 1006.0306 429.343153 
L 1007.023305 436.694696 
L 1008.016011 430.134552 
L 1009.008717 431.284481 
L 1010.001423 437.117858 
L 1010.994129 438.812516 
L 1011.986835 432.446212 
L 1012.979541 432.597912 
L 1013.972247 431.980994 
L 1014.964953 440.821972 
L 1015.957659 431.624689 
L 1016.950365 430.519648 
L 1018.935777 432.783003 
L 1019.928482 437.513672 
L 1020.921188 438.85093 
L 1021.913894 432.185423 
L 1022.9066 438.774468 
L 1023.899306 439.531859 
L 1024.892012 433.644188 
L 1025.884718 436.545989 
L 1026.877424 438.299008 
L 1027.87013 432.735344 
L 1028.862836 443.496661 
L 1029.855542 436.930585 
L 1030.848248 433.613946 
L 1031.840954 429.008828 
L 1032.833659 438.315477 
L 1033.826365 433.738562 
L 1034.819071 432.063778 
L 1035.811777 433.991031 
L 1036.804483 442.226611 
L 1037.797189 442.809243 
L 1039.782601 433.310394 
L 1040.775307 431.107501 
L 1041.768013 434.144445 
L 1042.760719 435.645255 
L 1043.753425 435.515086 
L 1044.746131 433.177032 
L 1045.738837 437.039196 
L 1046.731542 430.720715 
L 1050.702366 434.815942 
L 1051.695072 443.615178 
L 1052.687778 436.716445 
L 1053.680484 435.088876 
L 1054.67319 434.410191 
L 1055.665896 431.847299 
L 1056.658602 430.359059 
L 1057.651308 431.89389 
L 1058.644014 435.020331 
L 1059.636719 432.71275 
L 1060.629425 432.137825 
L 1061.622131 431.392316 
L 1063.607543 440.212806 
L 1064.600249 434.782353 
L 1065.592955 437.725829 
L 1066.585661 438.444448 
L 1067.578367 436.726894 
L 1068.571073 428.044977 
L 1069.563779 438.096311 
L 1070.556485 438.307112 
L 1071.549191 438.985725 
L 1072.541896 431.572377 
L 1073.534602 434.80624 
L 1074.527308 438.868818 
L 1075.520014 434.23834 
L 1076.51272 431.938907 
L 1077.505426 438.39716 
L 1078.498132 435.575324 
L 1079.490838 432.332753 
L 1080.483544 438.28926 
L 1081.47625 438.114211 
L 1082.468956 432.301158 
L 1083.461662 432.647906 
L 1084.454368 435.579154 
L 1085.447073 432.136463 
L 1086.439779 433.13655 
L 1087.432485 433.201568 
L 1088.425191 440.725722 
L 1089.417897 435.91289 
L 1090.410603 437.155128 
L 1091.403309 436.902037 
L 1092.396015 434.60833 
L 1093.388721 438.690217 
L 1094.381427 435.200391 
L 1095.374133 436.510225 
L 1096.366839 436.268747 
L 1097.359545 434.826844 
L 1099.344956 433.129949 
L 1100.337662 430.088643 
L 1101.330368 435.00662 
L 1102.323074 430.87926 
L 1103.31578 434.216294 
L 1104.308486 438.018693 
L 1105.301192 433.84395 
L 1106.293898 432.761738 
L 1107.286604 437.828806 
L 1108.27931 437.115148 
L 1109.272016 432.756839 
L 1110.264722 440.023836 
L 1111.257428 433.700478 
L 1112.250133 438.804299 
L 1113.242839 438.880756 
L 1114.235545 435.190552 
L 1115.228251 432.691935 
L 1116.220957 431.79789 
L 1117.213663 436.918659 
L 1118.206369 438.365338 
L 1119.199075 432.751363 
L 1120.191781 435.862378 
L 1121.184487 442.056892 
L 1122.177193 434.841892 
L 1123.169899 439.011513 
L 1124.162605 436.866128 
L 1125.15531 435.951913 
L 1126.148016 432.168547 
L 1127.140722 442.341255 
L 1128.133428 437.667416 
L 1129.126134 437.186679 
L 1130.11884 434.487928 
L 1131.111546 442.473399 
L 1132.104252 441.512996 
L 1133.096958 433.092557 
L 1134.089664 435.191442 
L 1135.08237 437.896417 
L 1136.075076 437.917928 
L 1137.067782 435.277653 
L 1138.060487 433.823047 
L 1139.053193 441.561559 
L 1140.045899 440.433698 
L 1141.038605 439.620113 
L 1142.031311 436.643436 
L 1143.024017 432.107532 
L 1145.009429 437.968892 
L 1146.002135 433.459027 
L 1146.994841 443.130435 
L 1147.987547 435.209637 
L 1148.980253 435.392484 
L 1149.972959 439.408532 
L 1150.965664 433.669206 
L 1151.95837 439.662185 
L 1152.951076 435.44291 
L 1153.943782 436.827153 
L 1154.936488 434.343906 
L 1155.929194 435.925638 
L 1156.9219 435.776423 
L 1157.914606 433.480591 
L 1158.907312 432.066783 
L 1159.900018 436.233633 
L 1160.892724 435.052911 
L 1161.88543 433.339895 
L 1162.878136 434.911191 
L 1163.870841 440.1226 
L 1164.863547 436.708399 
L 1165.856253 430.906632 
L 1166.848959 432.513261 
L 1167.841665 443.690186 
L 1168.834371 434.468315 
L 1169.827077 441.986661 
L 1170.819783 437.944879 
L 1171.812489 440.863728 
L 1172.805195 440.236058 
L 1173.797901 436.328542 
L 1174.790607 435.686089 
L 1175.783313 434.248175 
L 1176.776019 437.437014 
L 1177.768724 438.607427 
L 1178.76143 441.980835 
L 1179.754136 431.617038 
L 1180.746842 436.515618 
L 1181.739548 438.432991 
L 1182.732254 432.383873 
L 1183.72496 432.752322 
L 1184.717666 442.295155 
L 1185.710372 439.313816 
L 1186.703078 437.253828 
L 1187.695784 437.85011 
L 1188.68849 437.565752 
L 1189.681196 436.914472 
L 1190.673901 438.638605 
L 1191.666607 433.633812 
L 1192.659313 439.563172 
L 1193.652019 439.097397 
L 1194.644725 438.982903 
L 1195.637431 438.422326 
L 1196.630137 433.795933 
L 1197.622843 433.421853 
L 1198.615549 445.558848 
L 1199.608255 432.351907 
L 1200.600961 430.294665 
L 1201.593667 436.305111 
L 1202.586373 439.809485 
L 1203.579078 440.353349 
L 1204.571784 440.306098 
L 1205.56449 434.618197 
L 1206.557196 432.298071 
L 1207.549902 432.274469 
L 1208.542608 441.320845 
L 1209.535314 437.771749 
L 1210.52802 431.763707 
L 1211.520726 439.289699 
L 1212.513432 433.803493 
L 1213.506138 434.540343 
L 1214.498844 439.433371 
L 1215.49155 439.585429 
L 1216.484255 432.675842 
L 1217.476961 436.771735 
L 1218.469667 431.447972 
L 1219.462373 436.817904 
L 1220.455079 434.695157 
L 1221.447785 428.731796 
L 1222.440491 435.242105 
L 1223.433197 438.777079 
L 1224.425903 440.661426 
L 1225.418609 436.688699 
L 1226.411315 442.229061 
L 1227.404021 441.607697 
L 1228.396727 432.96582 
L 1229.389432 436.138512 
L 1230.382138 430.20648 
L 1232.36755 443.991046 
L 1233.360256 433.590068 
L 1234.352962 437.176225 
L 1235.345668 436.522398 
L 1236.338374 442.462808 
L 1237.33108 438.364866 
L 1238.323786 436.456226 
L 1239.316492 439.464314 
L 1240.309198 431.063725 
L 1241.301904 437.22987 
L 1242.29461 447.856095 
L 1243.287315 432.342552 
L 1244.280021 428.341939 
L 1245.272727 445.015345 
L 1245.272727 445.015345 
" clip-path="url(#pd7d575fd94)" style="fill: none; stroke: #1f77b4; stroke-width: 1.5; stroke-linecap: square"/>
   </g>
   <g id="patch_3">
    <path d="M 180 512.64 
L 180 69.12 
" style="fill: none; stroke: #000000; stroke-width: 0.8; stroke-linejoin: miter; stroke-linecap: square"/>
   </g>
   <g id="patch_4">
    <path d="M 1296 512.64 
L 1296 69.12 
" style="fill: none; stroke: #000000; stroke-width: 0.8; stroke-linejoin: miter; stroke-linecap: square"/>
   </g>
   <g id="patch_5">
    <path d="M 180 512.64 
L 1296 512.64 
" style="fill: none; stroke: #000000; stroke-width: 0.8; stroke-linejoin: miter; stroke-linecap: square"/>
   </g>
   <g id="patch_6">
    <path d="M 180 69.12 
L 1296 69.12 
" style="fill: none; stroke: #000000; stroke-width: 0.8; stroke-linejoin: miter; stroke-linecap: square"/>
   </g>
   <g id="text_13">
    <!-- source13-receiver20 -->
    <g transform="translate(532.175 60.80125) scale(0.4 -0.4)">
     <defs>
      <path id="DejaVuSans-73" d="M 2834 3397 
L 2834 2853 
Q 2591 2978 2328 3040 
Q 2066 3103 1784 3103 
Q 1356 3103 1142 2972 
Q 928 2841 928 2578 
Q 928 2378 1081 2264 
Q 1234 2150 1697 2047 
L 1894 2003 
Q 2506 1872 2764 1633 
Q 3022 1394 3022 966 
Q 3022 478 2636 193 
Q 2250 -91 1575 -91 
Q 1294 -91 989 -36 
Q 684 19 347 128 
L 347 722 
Q 666 556 975 473 
Q 1284 391 1588 391 
Q 1994 391 2212 530 
Q 2431 669 2431 922 
Q 2431 1156 2273 1281 
Q 2116 1406 1581 1522 
L 1381 1569 
Q 847 1681 609 1914 
Q 372 2147 372 2553 
Q 372 3047 722 3315 
Q 1072 3584 1716 3584 
Q 2034 3584 2315 3537 
Q 2597 3491 2834 3397 
z
" transform="scale(0.015625)"/>
      <path id="DejaVuSans-6f" d="M 1959 3097 
Q 1497 3097 1228 2736 
Q 959 2375 959 1747 
Q 959 1119 1226 758 
Q 1494 397 1959 397 
Q 2419 397 2687 759 
Q 2956 1122 2956 1747 
Q 2956 2369 2687 2733 
Q 2419 3097 1959 3097 
z
M 1959 3584 
Q 2709 3584 3137 3096 
Q 3566 2609 3566 1747 
Q 3566 888 3137 398 
Q 2709 -91 1959 -91 
Q 1206 -91 779 398 
Q 353 888 353 1747 
Q 353 2609 779 3096 
Q 1206 3584 1959 3584 
z
" transform="scale(0.015625)"/>
      <path id="DejaVuSans-75" d="M 544 1381 
L 544 3500 
L 1119 3500 
L 1119 1403 
Q 1119 906 1312 657 
Q 1506 409 1894 409 
Q 2359 409 2629 706 
Q 2900 1003 2900 1516 
L 2900 3500 
L 3475 3500 
L 3475 0 
L 2900 0 
L 2900 538 
Q 2691 219 2414 64 
Q 2138 -91 1772 -91 
Q 1169 -91 856 284 
Q 544 659 544 1381 
z
M 1991 3584 
L 1991 3584 
z
" transform="scale(0.015625)"/>
      <path id="DejaVuSans-72" d="M 2631 2963 
Q 2534 3019 2420 3045 
Q 2306 3072 2169 3072 
Q 1681 3072 1420 2755 
Q 1159 2438 1159 1844 
L 1159 0 
L 581 0 
L 581 3500 
L 1159 3500 
L 1159 2956 
Q 1341 3275 1631 3429 
Q 1922 3584 2338 3584 
Q 2397 3584 2469 3576 
Q 2541 3569 2628 3553 
L 2631 2963 
z
" transform="scale(0.015625)"/>
      <path id="DejaVuSans-63" d="M 3122 3366 
L 3122 2828 
Q 2878 2963 2633 3030 
Q 2388 3097 2138 3097 
Q 1578 3097 1268 2742 
Q 959 2388 959 1747 
Q 959 1106 1268 751 
Q 1578 397 2138 397 
Q 2388 397 2633 464 
Q 2878 531 3122 666 
L 3122 134 
Q 2881 22 2623 -34 
Q 2366 -91 2075 -91 
Q 1284 -91 818 406 
Q 353 903 353 1747 
Q 353 2603 823 3093 
Q 1294 3584 2113 3584 
Q 2378 3584 2631 3529 
Q 2884 3475 3122 3366 
z
" transform="scale(0.015625)"/>
      <path id="DejaVuSans-65" d="M 3597 1894 
L 3597 1613 
L 953 1613 
Q 991 1019 1311 708 
Q 1631 397 2203 397 
Q 2534 397 2845 478 
Q 3156 559 3463 722 
L 3463 178 
Q 3153 47 2828 -22 
Q 2503 -91 2169 -91 
Q 1331 -91 842 396 
Q 353 884 353 1716 
Q 353 2575 817 3079 
Q 1281 3584 2069 3584 
Q 2775 3584 3186 3129 
Q 3597 2675 3597 1894 
z
M 3022 2063 
Q 3016 2534 2758 2815 
Q 2500 3097 2075 3097 
Q 1594 3097 1305 2825 
Q 1016 2553 972 2059 
L 3022 2063 
z
" transform="scale(0.015625)"/>
      <path id="DejaVuSans-33" d="M 2597 2516 
Q 3050 2419 3304 2112 
Q 3559 1806 3559 1356 
Q 3559 666 3084 287 
Q 2609 -91 1734 -91 
Q 1441 -91 1130 -33 
Q 819 25 488 141 
L 488 750 
Q 750 597 1062 519 
Q 1375 441 1716 441 
Q 2309 441 2620 675 
Q 2931 909 2931 1356 
Q 2931 1769 2642 2001 
Q 2353 2234 1838 2234 
L 1294 2234 
L 1294 2753 
L 1863 2753 
Q 2328 2753 2575 2939 
Q 2822 3125 2822 3475 
Q 2822 3834 2567 4026 
Q 2313 4219 1838 4219 
Q 1578 4219 1281 4162 
Q 984 4106 628 3988 
L 628 4550 
Q 988 4650 1302 4700 
Q 1616 4750 1894 4750 
Q 2613 4750 3031 4423 
Q 3450 4097 3450 3541 
Q 3450 3153 3228 2886 
Q 3006 2619 2597 2516 
z
" transform="scale(0.015625)"/>
      <path id="DejaVuSans-2d" d="M 313 2009 
L 1997 2009 
L 1997 1497 
L 313 1497 
L 313 2009 
z
" transform="scale(0.015625)"/>
      <path id="DejaVuSans-69" d="M 603 3500 
L 1178 3500 
L 1178 0 
L 603 0 
L 603 3500 
z
M 603 4863 
L 1178 4863 
L 1178 4134 
L 603 4134 
L 603 4863 
z
" transform="scale(0.015625)"/>
      <path id="DejaVuSans-76" d="M 191 3500 
L 800 3500 
L 1894 563 
L 2988 3500 
L 3597 3500 
L 2284 0 
L 1503 0 
L 191 3500 
z
" transform="scale(0.015625)"/>
     </defs>
     <use xlink:href="#DejaVuSans-73"/>
     <use xlink:href="#DejaVuSans-6f" x="52.099609"/>
     <use xlink:href="#DejaVuSans-75" x="113.28125"/>
     <use xlink:href="#DejaVuSans-72" x="176.660156"/>
     <use xlink:href="#DejaVuSans-63" x="215.523438"/>
     <use xlink:href="#DejaVuSans-65" x="270.503906"/>
     <use xlink:href="#DejaVuSans-31" x="332.027344"/>
     <use xlink:href="#DejaVuSans-33" x="395.650391"/>
     <use xlink:href="#DejaVuSans-2d" x="459.273438"/>
     <use xlink:href="#DejaVuSans-72" x="495.357422"/>
     <use xlink:href="#DejaVuSans-65" x="534.220703"/>
     <use xlink:href="#DejaVuSans-63" x="595.744141"/>
     <use xlink:href="#DejaVuSans-65" x="650.724609"/>
     <use xlink:href="#DejaVuSans-69" x="712.248047"/>
     <use xlink:href="#DejaVuSans-76" x="740.03125"/>
     <use xlink:href="#DejaVuSans-65" x="799.210938"/>
     <use xlink:href="#DejaVuSans-72" x="860.734375"/>
     <use xlink:href="#DejaVuSans-32" x="901.847656"/>
     <use xlink:href="#DejaVuSans-30" x="965.470703"/>
    </g>
   </g>
  </g>
 </g>
 <defs>
  <clipPath id="pd7d575fd94">
   <rect x="180" y="69.12" width="1116" height="443.52"/>
  </clipPath>
 </defs>
</svg>
