<?xml version="1.0" encoding="utf-8" standalone="no"?>
<!DOCTYPE svg PUBLIC "-//W3C//DTD SVG 1.1//EN"
  "http://www.w3.org/Graphics/SVG/1.1/DTD/svg11.dtd">
<svg xmlns:xlink="http://www.w3.org/1999/xlink" width="1440pt" height="576pt" viewBox="0 0 1440 576" xmlns="http://www.w3.org/2000/svg" version="1.1">
 <metadata>
  <rdf:RDF xmlns:dc="http://purl.org/dc/elements/1.1/" xmlns:cc="http://creativecommons.org/ns#" xmlns:rdf="http://www.w3.org/1999/02/22-rdf-syntax-ns#">
   <cc:Work>
    <dc:type rdf:resource="http://purl.org/dc/dcmitype/StillImage"/>
    <dc:date>2024-05-22T04:50:05.088273</dc:date>
    <dc:format>image/svg+xml</dc:format>
    <dc:creator>
     <cc:Agent>
      <dc:title>Matplotlib v3.8.3, https://matplotlib.org/</dc:title>
     </cc:Agent>
    </dc:creator>
   </cc:Work>
  </rdf:RDF>
 </metadata>
 <defs>
  <style type="text/css">*{stroke-linejoin: round; stroke-linecap: butt}</style>
 </defs>
 <g id="figure_1">
  <g id="patch_1">
   <path d="M 0 576 
L 1440 576 
L 1440 0 
L 0 0 
z
" style="fill: #ffffff"/>
  </g>
  <g id="axes_1">
   <g id="patch_2">
    <path d="M 180 512.64 
L 1296 512.64 
L 1296 69.12 
L 180 69.12 
z
" style="fill: #ffffff"/>
   </g>
   <g id="matplotlib.axis_1">
    <g id="xtick_1">
     <g id="line2d_1">
      <defs>
       <path id="m6047799259" d="M 0 0 
L 0 3.5 
" style="stroke: #000000; stroke-width: 0.8"/>
      </defs>
      <g>
       <use xlink:href="#m6047799259" x="229.734567" y="512.64" style="stroke: #000000; stroke-width: 0.8"/>
      </g>
     </g>
     <g id="text_1">
      <!-- 0 -->
      <g transform="translate(226.553317 527.238438) scale(0.1 -0.1)">
       <defs>
        <path id="DejaVuSans-30" d="M 2034 4250 
Q 1547 4250 1301 3770 
Q 1056 3291 1056 2328 
Q 1056 1369 1301 889 
Q 1547 409 2034 409 
Q 2525 409 2770 889 
Q 3016 1369 3016 2328 
Q 3016 3291 2770 3770 
Q 2525 4250 2034 4250 
z
M 2034 4750 
Q 2819 4750 3233 4129 
Q 3647 3509 3647 2328 
Q 3647 1150 3233 529 
Q 2819 -91 2034 -91 
Q 1250 -91 836 529 
Q 422 1150 422 2328 
Q 422 3509 836 4129 
Q 1250 4750 2034 4750 
z
" transform="scale(0.015625)"/>
       </defs>
       <use xlink:href="#DejaVuSans-30"/>
      </g>
     </g>
    </g>
    <g id="xtick_2">
     <g id="line2d_2">
      <g>
       <use xlink:href="#m6047799259" x="433.04074" y="512.64" style="stroke: #000000; stroke-width: 0.8"/>
      </g>
     </g>
     <g id="text_2">
      <!-- 500 -->
      <g transform="translate(423.49699 527.238438) scale(0.1 -0.1)">
       <defs>
        <path id="DejaVuSans-35" d="M 691 4666 
L 3169 4666 
L 3169 4134 
L 1269 4134 
L 1269 2991 
Q 1406 3038 1543 3061 
Q 1681 3084 1819 3084 
Q 2600 3084 3056 2656 
Q 3513 2228 3513 1497 
Q 3513 744 3044 326 
Q 2575 -91 1722 -91 
Q 1428 -91 1123 -41 
Q 819 9 494 109 
L 494 744 
Q 775 591 1075 516 
Q 1375 441 1709 441 
Q 2250 441 2565 725 
Q 2881 1009 2881 1497 
Q 2881 1984 2565 2268 
Q 2250 2553 1709 2553 
Q 1456 2553 1204 2497 
Q 953 2441 691 2322 
L 691 4666 
z
" transform="scale(0.015625)"/>
       </defs>
       <use xlink:href="#DejaVuSans-35"/>
       <use xlink:href="#DejaVuSans-30" x="63.623047"/>
       <use xlink:href="#DejaVuSans-30" x="127.246094"/>
      </g>
     </g>
    </g>
    <g id="xtick_3">
     <g id="line2d_3">
      <g>
       <use xlink:href="#m6047799259" x="636.346913" y="512.64" style="stroke: #000000; stroke-width: 0.8"/>
      </g>
     </g>
     <g id="text_3">
      <!-- 1000 -->
      <g transform="translate(623.621913 527.238438) scale(0.1 -0.1)">
       <defs>
        <path id="DejaVuSans-31" d="M 794 531 
L 1825 531 
L 1825 4091 
L 703 3866 
L 703 4441 
L 1819 4666 
L 2450 4666 
L 2450 531 
L 3481 531 
L 3481 0 
L 794 0 
L 794 531 
z
" transform="scale(0.015625)"/>
       </defs>
       <use xlink:href="#DejaVuSans-31"/>
       <use xlink:href="#DejaVuSans-30" x="63.623047"/>
       <use xlink:href="#DejaVuSans-30" x="127.246094"/>
       <use xlink:href="#DejaVuSans-30" x="190.869141"/>
      </g>
     </g>
    </g>
    <g id="xtick_4">
     <g id="line2d_4">
      <g>
       <use xlink:href="#m6047799259" x="839.653087" y="512.64" style="stroke: #000000; stroke-width: 0.8"/>
      </g>
     </g>
     <g id="text_4">
      <!-- 1500 -->
      <g transform="translate(826.928087 527.238438) scale(0.1 -0.1)">
       <use xlink:href="#DejaVuSans-31"/>
       <use xlink:href="#DejaVuSans-35" x="63.623047"/>
       <use xlink:href="#DejaVuSans-30" x="127.246094"/>
       <use xlink:href="#DejaVuSans-30" x="190.869141"/>
      </g>
     </g>
    </g>
    <g id="xtick_5">
     <g id="line2d_5">
      <g>
       <use xlink:href="#m6047799259" x="1042.95926" y="512.64" style="stroke: #000000; stroke-width: 0.8"/>
      </g>
     </g>
     <g id="text_5">
      <!-- 2000 -->
      <g transform="translate(1030.23426 527.238438) scale(0.1 -0.1)">
       <defs>
        <path id="DejaVuSans-32" d="M 1228 531 
L 3431 531 
L 3431 0 
L 469 0 
L 469 531 
Q 828 903 1448 1529 
Q 2069 2156 2228 2338 
Q 2531 2678 2651 2914 
Q 2772 3150 2772 3378 
Q 2772 3750 2511 3984 
Q 2250 4219 1831 4219 
Q 1534 4219 1204 4116 
Q 875 4013 500 3803 
L 500 4441 
Q 881 4594 1212 4672 
Q 1544 4750 1819 4750 
Q 2544 4750 2975 4387 
Q 3406 4025 3406 3419 
Q 3406 3131 3298 2873 
Q 3191 2616 2906 2266 
Q 2828 2175 2409 1742 
Q 1991 1309 1228 531 
z
" transform="scale(0.015625)"/>
       </defs>
       <use xlink:href="#DejaVuSans-32"/>
       <use xlink:href="#DejaVuSans-30" x="63.623047"/>
       <use xlink:href="#DejaVuSans-30" x="127.246094"/>
       <use xlink:href="#DejaVuSans-30" x="190.869141"/>
      </g>
     </g>
    </g>
    <g id="xtick_6">
     <g id="line2d_6">
      <g>
       <use xlink:href="#m6047799259" x="1246.265433" y="512.64" style="stroke: #000000; stroke-width: 0.8"/>
      </g>
     </g>
     <g id="text_6">
      <!-- 2500 -->
      <g transform="translate(1233.540433 527.238438) scale(0.1 -0.1)">
       <use xlink:href="#DejaVuSans-32"/>
       <use xlink:href="#DejaVuSans-35" x="63.623047"/>
       <use xlink:href="#DejaVuSans-30" x="127.246094"/>
       <use xlink:href="#DejaVuSans-30" x="190.869141"/>
      </g>
     </g>
    </g>
   </g>
   <g id="matplotlib.axis_2">
    <g id="ytick_1">
     <g id="line2d_7">
      <defs>
       <path id="ma564abd7ac" d="M 0 0 
L -3.5 0 
" style="stroke: #000000; stroke-width: 0.8"/>
      </defs>
      <g>
       <use xlink:href="#ma564abd7ac" x="180" y="481.131197" style="stroke: #000000; stroke-width: 0.8"/>
      </g>
     </g>
     <g id="text_7">
      <!-- −4 -->
      <g transform="translate(158.257812 484.930415) scale(0.1 -0.1)">
       <defs>
        <path id="DejaVuSans-2212" d="M 678 2272 
L 4684 2272 
L 4684 1741 
L 678 1741 
L 678 2272 
z
" transform="scale(0.015625)"/>
        <path id="DejaVuSans-34" d="M 2419 4116 
L 825 1625 
L 2419 1625 
L 2419 4116 
z
M 2253 4666 
L 3047 4666 
L 3047 1625 
L 3713 1625 
L 3713 1100 
L 3047 1100 
L 3047 0 
L 2419 0 
L 2419 1100 
L 313 1100 
L 313 1709 
L 2253 4666 
z
" transform="scale(0.015625)"/>
       </defs>
       <use xlink:href="#DejaVuSans-2212"/>
       <use xlink:href="#DejaVuSans-34" x="83.789062"/>
      </g>
     </g>
    </g>
    <g id="ytick_2">
     <g id="line2d_8">
      <g>
       <use xlink:href="#ma564abd7ac" x="180" y="431.626321" style="stroke: #000000; stroke-width: 0.8"/>
      </g>
     </g>
     <g id="text_8">
      <!-- −3 -->
      <g transform="translate(158.257812 435.425539) scale(0.1 -0.1)">
       <defs>
        <path id="DejaVuSans-33" d="M 2597 2516 
Q 3050 2419 3304 2112 
Q 3559 1806 3559 1356 
Q 3559 666 3084 287 
Q 2609 -91 1734 -91 
Q 1441 -91 1130 -33 
Q 819 25 488 141 
L 488 750 
Q 750 597 1062 519 
Q 1375 441 1716 441 
Q 2309 441 2620 675 
Q 2931 909 2931 1356 
Q 2931 1769 2642 2001 
Q 2353 2234 1838 2234 
L 1294 2234 
L 1294 2753 
L 1863 2753 
Q 2328 2753 2575 2939 
Q 2822 3125 2822 3475 
Q 2822 3834 2567 4026 
Q 2313 4219 1838 4219 
Q 1578 4219 1281 4162 
Q 984 4106 628 3988 
L 628 4550 
Q 988 4650 1302 4700 
Q 1616 4750 1894 4750 
Q 2613 4750 3031 4423 
Q 3450 4097 3450 3541 
Q 3450 3153 3228 2886 
Q 3006 2619 2597 2516 
z
" transform="scale(0.015625)"/>
       </defs>
       <use xlink:href="#DejaVuSans-2212"/>
       <use xlink:href="#DejaVuSans-33" x="83.789062"/>
      </g>
     </g>
    </g>
    <g id="ytick_3">
     <g id="line2d_9">
      <g>
       <use xlink:href="#ma564abd7ac" x="180" y="382.121445" style="stroke: #000000; stroke-width: 0.8"/>
      </g>
     </g>
     <g id="text_9">
      <!-- −2 -->
      <g transform="translate(158.257812 385.920664) scale(0.1 -0.1)">
       <use xlink:href="#DejaVuSans-2212"/>
       <use xlink:href="#DejaVuSans-32" x="83.789062"/>
      </g>
     </g>
    </g>
    <g id="ytick_4">
     <g id="line2d_10">
      <g>
       <use xlink:href="#ma564abd7ac" x="180" y="332.616569" style="stroke: #000000; stroke-width: 0.8"/>
      </g>
     </g>
     <g id="text_10">
      <!-- −1 -->
      <g transform="translate(158.257812 336.415788) scale(0.1 -0.1)">
       <use xlink:href="#DejaVuSans-2212"/>
       <use xlink:href="#DejaVuSans-31" x="83.789062"/>
      </g>
     </g>
    </g>
    <g id="ytick_5">
     <g id="line2d_11">
      <g>
       <use xlink:href="#ma564abd7ac" x="180" y="283.111693" style="stroke: #000000; stroke-width: 0.8"/>
      </g>
     </g>
     <g id="text_11">
      <!-- 0 -->
      <g transform="translate(166.6375 286.910912) scale(0.1 -0.1)">
       <use xlink:href="#DejaVuSans-30"/>
      </g>
     </g>
    </g>
    <g id="ytick_6">
     <g id="line2d_12">
      <g>
       <use xlink:href="#ma564abd7ac" x="180" y="233.606817" style="stroke: #000000; stroke-width: 0.8"/>
      </g>
     </g>
     <g id="text_12">
      <!-- 1 -->
      <g transform="translate(166.6375 237.406036) scale(0.1 -0.1)">
       <use xlink:href="#DejaVuSans-31"/>
      </g>
     </g>
    </g>
    <g id="ytick_7">
     <g id="line2d_13">
      <g>
       <use xlink:href="#ma564abd7ac" x="180" y="184.101941" style="stroke: #000000; stroke-width: 0.8"/>
      </g>
     </g>
     <g id="text_13">
      <!-- 2 -->
      <g transform="translate(166.6375 187.90116) scale(0.1 -0.1)">
       <use xlink:href="#DejaVuSans-32"/>
      </g>
     </g>
    </g>
    <g id="ytick_8">
     <g id="line2d_14">
      <g>
       <use xlink:href="#ma564abd7ac" x="180" y="134.597066" style="stroke: #000000; stroke-width: 0.8"/>
      </g>
     </g>
     <g id="text_14">
      <!-- 3 -->
      <g transform="translate(166.6375 138.396284) scale(0.1 -0.1)">
       <use xlink:href="#DejaVuSans-33"/>
      </g>
     </g>
    </g>
    <g id="ytick_9">
     <g id="line2d_15">
      <g>
       <use xlink:href="#ma564abd7ac" x="180" y="85.09219" style="stroke: #000000; stroke-width: 0.8"/>
      </g>
     </g>
     <g id="text_15">
      <!-- 4 -->
      <g transform="translate(166.6375 88.891409) scale(0.1 -0.1)">
       <use xlink:href="#DejaVuSans-34"/>
      </g>
     </g>
    </g>
   </g>
   <g id="line2d_16">
    <path d="M 230.727273 339.657046 
L 231.719979 339.575106 
L 232.712685 339.734032 
L 233.70539 339.58153 
L 234.698096 339.039877 
L 235.690802 339.208428 
L 236.683508 339.068183 
L 238.66892 336.967604 
L 239.661626 336.902158 
L 240.654332 335.567985 
L 241.647038 334.010756 
L 243.63245 330.214572 
L 244.625156 326.445922 
L 245.617862 320.702572 
L 246.610568 320.200192 
L 247.603273 317.668068 
L 248.595979 285.717814 
L 251.574097 201.209585 
L 252.566803 182.32433 
L 253.559509 180.040189 
L 254.552215 200.619344 
L 255.544921 209.614674 
L 256.537627 184.924598 
L 257.530333 184.54664 
L 258.523039 195.798322 
L 259.515745 189.809724 
L 260.50845 199.543164 
L 261.501156 239.390374 
L 262.493862 206.51184 
L 263.486568 198.264538 
L 265.47198 236.937897 
L 266.464686 230.141598 
L 267.457392 230.623061 
L 268.450098 251.234416 
L 269.442804 232.984503 
L 270.43551 255.88849 
L 271.428216 195.318947 
L 272.420922 160.323941 
L 273.413627 152.770594 
L 274.406333 161.82937 
L 275.399039 163.905893 
L 276.391745 144.079693 
L 277.384451 140.065366 
L 278.377157 183.01442 
L 280.362569 98.312143 
L 281.355275 89.28 
L 282.347981 108.07824 
L 283.340687 162.847619 
L 284.333393 106.116262 
L 285.326099 94.873891 
L 286.318804 118.254675 
L 287.31151 174.718249 
L 288.304216 125.948094 
L 289.296922 131.069354 
L 290.289628 173.582417 
L 291.282334 155.063271 
L 292.27504 156.917203 
L 293.267746 191.815862 
L 294.260452 178.809084 
L 295.253158 184.287415 
L 296.245864 247.570571 
L 297.23857 253.018402 
L 298.231276 254.599905 
L 299.223981 365.172883 
L 300.216687 266.651305 
L 301.209393 241.740815 
L 302.202099 244.486615 
L 303.194805 273.208381 
L 304.187511 296.126472 
L 305.180217 282.509662 
L 306.172923 291.280641 
L 307.165629 278.731897 
L 308.158335 285.14472 
L 309.151041 302.747122 
L 310.143747 291.254061 
L 311.136453 292.325134 
L 312.129159 317.760479 
L 313.121864 308.325706 
L 314.11457 300.66621 
L 315.107276 307.559968 
L 316.099982 315.493612 
L 317.092688 317.810023 
L 318.085394 313.0655 
L 319.0781 319.890227 
L 320.070806 317.798159 
L 321.063512 312.331903 
L 322.056218 319.189582 
L 323.048924 319.775315 
L 324.04163 321.413497 
L 325.034336 318.908341 
L 326.027041 326.152285 
L 327.019747 326.14999 
L 328.012453 327.676185 
L 329.005159 331.227411 
L 329.997865 335.610447 
L 330.990571 332.880571 
L 331.983277 331.054041 
L 332.975983 331.672439 
L 333.968689 334.285441 
L 335.954101 330.924561 
L 336.946807 335.222397 
L 337.939513 344.679058 
L 338.932218 339.794896 
L 339.924924 336.116122 
L 340.91763 344.759281 
L 341.910336 338.710748 
L 342.903042 344.708526 
L 343.895748 345.250835 
L 344.888454 330.781746 
L 345.88116 345.046123 
L 346.873866 351.384516 
L 347.866572 340.553679 
L 348.859278 355.627814 
L 349.851984 345.877101 
L 350.84469 346.477274 
L 351.837395 355.913828 
L 352.830101 345.452949 
L 353.822807 350.281797 
L 354.815513 365.949128 
L 355.808219 339.900501 
L 357.793631 358.168696 
L 358.786337 347.40675 
L 359.779043 358.66125 
L 360.771749 350.549589 
L 361.764455 357.447119 
L 362.757161 350.046883 
L 364.742572 367.485625 
L 365.735278 352.424359 
L 366.727984 361.495224 
L 367.72069 366.550405 
L 368.713396 360.115863 
L 369.706102 361.722462 
L 370.698808 359.229107 
L 371.691514 358.086699 
L 372.68422 363.128824 
L 373.676926 357.459736 
L 374.669632 359.890307 
L 375.662338 370.646699 
L 376.655044 357.297697 
L 378.640455 379.091572 
L 379.633161 361.500658 
L 380.625867 370.968936 
L 381.618573 360.831453 
L 382.611279 369.71848 
L 383.603985 364.271744 
L 384.596691 377.998273 
L 385.589397 359.053556 
L 386.582103 365.443047 
L 387.574809 365.91516 
L 388.567515 356.729428 
L 389.560221 366.033851 
L 390.552927 367.529424 
L 391.545632 376.21291 
L 392.538338 379.059065 
L 393.531044 363.864457 
L 394.52375 361.283095 
L 395.516456 374.70738 
L 396.509162 370.236761 
L 397.501868 368.252709 
L 398.494574 370.071093 
L 399.48728 368.319849 
L 400.479986 361.778033 
L 401.472692 370.206782 
L 402.465398 376.913263 
L 403.458104 359.226955 
L 404.450809 373.907218 
L 405.443515 363.196778 
L 406.436221 377.992171 
L 407.428927 367.915878 
L 408.421633 381.746772 
L 409.414339 370.764971 
L 410.407045 393.093782 
L 411.399751 390.015703 
L 412.392457 385.03899 
L 413.385163 378.381738 
L 414.377869 374.062913 
L 415.370575 389.243607 
L 416.363281 376.363928 
L 417.355986 371.376363 
L 418.348692 377.0777 
L 419.341398 364.226475 
L 420.334104 385.625341 
L 421.32681 395.531785 
L 422.319516 375.088132 
L 423.312222 383.616694 
L 424.304928 361.359628 
L 425.297634 394.770946 
L 426.29034 381.682096 
L 427.283046 379.260256 
L 428.275752 366.62219 
L 429.268458 388.776233 
L 430.261163 372.269785 
L 431.253869 384.168515 
L 432.246575 382.423122 
L 433.239281 387.885098 
L 434.231987 394.225323 
L 435.224693 373.024754 
L 436.217399 373.744756 
L 437.210105 390.849741 
L 438.202811 391.15042 
L 439.195517 385.802918 
L 440.188223 386.211017 
L 441.180929 391.734566 
L 442.173635 381.407125 
L 443.166341 395.920554 
L 444.159046 397.569188 
L 445.151752 390.494709 
L 446.144458 379.65581 
L 447.137164 394.786425 
L 448.12987 369.610545 
L 449.122576 391.686043 
L 450.115282 401.121197 
L 451.107988 384.870509 
L 452.100694 382.490386 
L 453.0934 394.968796 
L 454.086106 382.755941 
L 455.078812 426.294117 
L 457.064223 383.874271 
L 458.056929 404.186487 
L 459.049635 399.133278 
L 460.042341 394.927948 
L 461.035047 392.095859 
L 462.027753 398.553819 
L 463.020459 395.540231 
L 464.013165 395.710308 
L 465.005871 404.706492 
L 465.998577 392.995802 
L 466.991283 398.909502 
L 467.983989 394.42864 
L 468.976695 384.836454 
L 469.9694 378.341376 
L 470.962106 424.496018 
L 471.954812 419.531467 
L 472.947518 376.7013 
L 473.940224 433.481296 
L 474.93293 396.380927 
L 475.925636 394.407333 
L 476.918342 389.801768 
L 477.911048 388.11773 
L 478.903754 392.647808 
L 479.89646 382.189489 
L 480.889166 389.438845 
L 481.881872 377.117043 
L 482.874577 403.417344 
L 483.867283 393.410237 
L 484.859989 407.404172 
L 485.852695 431.005846 
L 486.845401 377.690389 
L 487.838107 411.42517 
L 488.830813 384.469535 
L 489.823519 390.668067 
L 490.816225 414.405464 
L 491.808931 393.976731 
L 492.801637 398.560548 
L 493.794343 415.318944 
L 494.787049 416.26484 
L 495.779754 400.79359 
L 496.77246 396.351846 
L 497.765166 401.632984 
L 498.757872 434.733378 
L 499.750578 393.710202 
L 500.743284 398.376279 
L 501.73599 408.337731 
L 502.728696 378.658248 
L 503.721402 418.656437 
L 504.714108 389.414518 
L 505.706814 393.103498 
L 506.69952 394.279007 
L 507.692226 391.994316 
L 508.684932 396.532457 
L 509.677637 393.499773 
L 510.670343 410.37435 
L 511.663049 388.955152 
L 512.655755 384.982188 
L 513.648461 384.593169 
L 514.641167 421.122579 
L 515.633873 378.259689 
L 516.626579 439.383392 
L 517.619285 386.433692 
L 518.611991 388.346512 
L 519.604697 400.479561 
L 520.597403 382.689594 
L 521.590109 396.739841 
L 522.582814 396.011215 
L 523.57552 417.178305 
L 524.568226 396.901936 
L 525.560932 394.635086 
L 526.553638 418.383724 
L 527.546344 414.238733 
L 528.53905 423.283773 
L 529.531756 416.883715 
L 530.524462 400.123704 
L 531.517168 402.428157 
L 532.509874 392.925015 
L 533.50258 404.210238 
L 534.495286 395.310176 
L 535.487991 400.222193 
L 536.480697 403.558927 
L 537.473403 398.114995 
L 538.466109 410.561198 
L 539.458815 405.632852 
L 540.451521 378.418104 
L 541.444227 406.731392 
L 542.436933 408.643433 
L 543.429639 403.601515 
L 544.422345 400.346557 
L 545.415051 396.075703 
L 546.407757 435.884965 
L 547.400463 407.883884 
L 548.393168 468.62732 
L 550.37858 379.879399 
L 551.371286 413.949872 
L 552.363992 400.948759 
L 553.356698 392.943067 
L 554.349404 418.7267 
L 555.34211 411.769296 
L 556.334816 398.366318 
L 557.327522 391.533833 
L 558.320228 397.850214 
L 559.312934 413.527237 
L 560.30564 403.836873 
L 561.298345 415.482115 
L 562.291051 418.738556 
L 563.283757 402.361382 
L 564.276463 415.828 
L 565.269169 396.568835 
L 566.261875 388.612807 
L 567.254581 409.607118 
L 568.247287 392.52202 
L 569.239993 401.189073 
L 570.232699 407.035696 
L 571.225405 395.460963 
L 573.210817 417.137986 
L 574.203523 400.272672 
L 575.196228 400.411109 
L 576.188934 396.307317 
L 577.18164 414.583277 
L 578.174346 471.525979 
L 579.167052 394.21396 
L 580.159758 435.12419 
L 581.152464 492.48 
L 583.137876 390.943641 
L 584.130582 397.871718 
L 585.123288 402.157437 
L 586.115994 414.096385 
L 587.1087 405.245431 
L 588.101405 419.508805 
L 589.094111 400.590941 
L 590.086817 413.045175 
L 591.079523 411.461827 
L 592.072229 425.603975 
L 593.064935 462.400945 
L 594.057641 413.837813 
L 595.050347 388.577508 
L 596.043053 405.369383 
L 597.035759 398.348359 
L 598.028465 410.312733 
L 599.021171 405.850994 
L 600.013877 408.099398 
L 601.006582 406.819012 
L 601.999288 430.113937 
L 602.991994 430.952252 
L 603.9847 422.372799 
L 604.977406 407.479153 
L 605.970112 404.683012 
L 606.962818 417.476934 
L 607.955524 418.659161 
L 608.94823 403.235066 
L 609.940936 415.565365 
L 610.933642 419.684055 
L 611.926348 417.874408 
L 612.919054 418.039797 
L 613.911759 399.953701 
L 614.904465 420.236621 
L 615.897171 432.527777 
L 616.889877 420.558121 
L 617.882583 398.596968 
L 618.875289 422.441991 
L 619.867995 413.258738 
L 620.860701 414.67255 
L 621.853407 415.187148 
L 622.846113 403.041832 
L 623.838819 427.4747 
L 624.831525 423.200825 
L 625.824231 415.75262 
L 626.816936 418.845883 
L 627.809642 409.685046 
L 628.802348 415.071701 
L 629.795054 417.808393 
L 630.78776 423.616971 
L 631.780466 417.756288 
L 632.773172 426.063912 
L 633.765878 416.285281 
L 634.758584 415.481329 
L 635.75129 410.620032 
L 636.743996 427.44252 
L 637.736702 425.067756 
L 639.722114 410.291576 
L 640.714819 418.99277 
L 641.707525 417.121847 
L 642.700231 411.12681 
L 643.692937 431.044991 
L 644.685643 423.516469 
L 645.678349 423.236891 
L 646.671055 419.753943 
L 647.663761 414.034486 
L 648.656467 420.786257 
L 649.649173 414.158644 
L 650.641879 416.177468 
L 651.634585 416.759893 
L 652.627291 418.666065 
L 653.619996 418.114723 
L 654.612702 424.893197 
L 655.605408 425.590146 
L 656.598114 423.950482 
L 657.59082 424.818544 
L 658.583526 419.850974 
L 659.576232 420.973443 
L 660.568938 428.395322 
L 661.561644 420.950271 
L 662.55435 425.489299 
L 663.547056 417.292037 
L 664.539762 420.769091 
L 665.532468 424.91485 
L 666.525173 423.742689 
L 667.517879 422.878568 
L 668.510585 425.767346 
L 669.503291 423.578429 
L 670.495997 425.604239 
L 671.488703 426.363485 
L 672.481409 422.989596 
L 673.474115 423.395349 
L 674.466821 421.577397 
L 675.459527 427.119686 
L 676.452233 426.390259 
L 677.444939 422.184383 
L 678.437645 423.310149 
L 679.43035 426.997961 
L 680.423056 426.293003 
L 681.415762 427.56245 
L 682.408468 423.324438 
L 683.401174 426.189685 
L 684.39388 425.618051 
L 685.386586 425.200778 
L 686.379292 423.639132 
L 687.371998 424.338607 
L 688.364704 427.11672 
L 689.35741 423.732098 
L 690.350116 424.811269 
L 691.342822 426.17672 
L 692.335527 426.181934 
L 693.328233 426.419623 
L 694.320939 427.224289 
L 695.313645 424.703396 
L 696.306351 425.664793 
L 697.299057 428.706883 
L 698.291763 425.839589 
L 699.284469 427.299543 
L 700.277175 424.799036 
L 702.262587 425.198836 
L 703.255293 423.142868 
L 704.247999 427.400428 
L 705.240705 427.60679 
L 706.23341 430.112382 
L 707.226116 427.484272 
L 708.218822 427.045508 
L 709.211528 426.395249 
L 710.204234 427.831972 
L 711.19694 427.193549 
L 713.182352 428.755686 
L 714.175058 426.9505 
L 715.167764 426.460546 
L 716.16047 427.219081 
L 717.153176 426.973888 
L 718.145882 429.890993 
L 719.138587 430.064488 
L 720.131293 428.101775 
L 722.116705 426.778033 
L 723.109411 429.136921 
L 724.102117 428.03554 
L 725.094823 427.35791 
L 726.087529 427.192474 
L 727.080235 427.967732 
L 728.072941 427.966526 
L 729.065647 430.136342 
L 730.058353 428.203733 
L 731.051059 429.01727 
L 732.043764 429.152741 
L 733.03647 428.127065 
L 734.029176 428.244171 
L 735.021882 429.116242 
L 736.014588 429.833229 
L 737.007294 429.288797 
L 738 429.064128 
L 738.992706 430.067141 
L 739.985412 428.786569 
L 740.978118 430.398313 
L 741.970824 430.369938 
L 742.96353 429.367996 
L 743.956236 431.026867 
L 744.948941 431.951082 
L 745.941647 427.447658 
L 746.934353 431.049198 
L 747.927059 430.3055 
L 748.919765 428.783604 
L 749.912471 430.477807 
L 750.905177 428.109244 
L 751.897883 430.391828 
L 752.890589 431.42587 
L 753.883295 429.97731 
L 754.876001 430.538305 
L 755.868707 431.581693 
L 756.861413 428.819517 
L 757.854118 429.855194 
L 758.846824 431.395672 
L 759.83953 431.901307 
L 760.832236 430.410207 
L 761.824942 431.992172 
L 762.817648 429.956507 
L 763.810354 432.467871 
L 764.80306 432.024107 
L 765.795766 431.128492 
L 766.788472 433.533726 
L 767.781178 428.682874 
L 768.773884 429.916302 
L 769.76659 430.443256 
L 770.759295 429.762281 
L 771.752001 433.069036 
L 772.744707 432.094937 
L 773.737413 430.683812 
L 774.730119 430.948488 
L 775.722825 433.338517 
L 776.715531 430.900205 
L 777.708237 433.43512 
L 778.700943 431.944701 
L 779.693649 434.126251 
L 780.686355 432.151386 
L 781.679061 431.702871 
L 782.671767 433.376854 
L 783.664473 431.684739 
L 784.657178 433.697656 
L 785.649884 432.286725 
L 786.64259 433.752775 
L 787.635296 433.542823 
L 788.628002 433.591556 
L 789.620708 431.948323 
L 790.613414 434.660828 
L 791.60612 433.284843 
L 792.598826 433.231858 
L 793.591532 433.497927 
L 794.584238 434.06564 
L 795.576944 433.035709 
L 796.56965 432.375181 
L 797.562355 433.2311 
L 798.555061 434.851202 
L 799.547767 433.477303 
L 800.540473 434.538695 
L 801.533179 433.879063 
L 802.525885 433.953438 
L 803.518591 435.099088 
L 804.511297 433.488608 
L 805.504003 434.352429 
L 806.496709 434.219257 
L 807.489415 434.258127 
L 808.482121 434.150527 
L 809.474827 434.609023 
L 810.467532 435.915185 
L 811.460238 435.738985 
L 812.452944 435.26572 
L 813.44565 435.494781 
L 814.438356 436.150852 
L 815.431062 435.685699 
L 816.423768 433.366999 
L 817.416474 435.295286 
L 818.40918 435.394135 
L 819.401886 435.672012 
L 820.394592 434.14208 
L 821.387298 435.541718 
L 822.380004 434.898989 
L 823.372709 435.515342 
L 825.358121 435.096352 
L 826.350827 436.052608 
L 827.343533 434.862297 
L 828.336239 437.195401 
L 829.328945 435.277609 
L 830.321651 435.254092 
L 831.314357 435.834358 
L 833.299769 436.13634 
L 834.292475 435.331776 
L 835.285181 435.201793 
L 837.270592 437.519965 
L 838.263298 435.656989 
L 839.256004 434.910591 
L 840.24871 435.73889 
L 841.241416 435.74237 
L 842.234122 435.575397 
L 843.226828 436.694799 
L 844.219534 434.425999 
L 845.21224 435.503295 
L 846.204946 438.53667 
L 847.197652 434.939741 
L 848.190358 436.279661 
L 849.183064 437.908682 
L 850.175769 436.689224 
L 851.168475 436.214507 
L 852.161181 437.199525 
L 853.153887 436.276065 
L 854.146593 436.574803 
L 855.139299 438.499651 
L 856.132005 437.102204 
L 857.124711 436.575718 
L 858.117417 436.207712 
L 859.110123 437.873132 
L 860.102829 437.406448 
L 861.095535 437.468766 
L 862.088241 436.000899 
L 863.080946 439.143094 
L 864.073652 438.409698 
L 865.066358 438.333091 
L 866.059064 437.304867 
L 867.05177 438.828136 
L 868.044476 437.714322 
L 869.037182 439.507211 
L 870.029888 437.581821 
L 871.022594 438.407206 
L 872.0153 438.231471 
L 873.008006 438.67809 
L 874.000712 436.91012 
L 874.993418 437.967102 
L 875.986123 436.895043 
L 876.978829 438.097519 
L 877.971535 439.751668 
L 878.964241 437.734837 
L 879.956947 438.036174 
L 880.949653 438.541349 
L 881.942359 437.90692 
L 882.935065 437.73432 
L 883.927771 439.450981 
L 884.920477 439.716183 
L 885.913183 438.111284 
L 886.905889 440.227007 
L 887.898595 438.74646 
L 888.8913 438.998876 
L 889.884006 440.101317 
L 890.876712 439.652163 
L 891.869418 439.398315 
L 892.862124 440.001536 
L 893.85483 439.996065 
L 894.847536 439.41555 
L 895.840242 440.763498 
L 896.832948 438.678646 
L 897.825654 438.876561 
L 898.81836 438.389321 
L 899.811066 438.785649 
L 900.803772 440.536081 
L 901.796477 440.748589 
L 902.789183 438.999899 
L 903.781889 438.383355 
L 904.774595 439.885402 
L 905.767301 439.413279 
L 907.752713 439.197078 
L 908.745419 439.894316 
L 909.738125 440.414561 
L 910.730831 440.572607 
L 911.723537 440.533145 
L 912.716243 441.151061 
L 913.708949 442.267224 
L 914.701655 440.367351 
L 915.69436 442.637866 
L 916.687066 441.096172 
L 917.679772 439.255275 
L 918.672478 439.871887 
L 919.665184 440.982044 
L 920.65789 440.727433 
L 921.650596 439.095831 
L 922.643302 438.94165 
L 923.636008 441.56826 
L 924.628714 440.184379 
L 925.62142 441.547203 
L 926.614126 439.998403 
L 928.599537 441.421481 
L 930.584949 440.842179 
L 931.577655 441.560372 
L 932.570361 439.349789 
L 933.563067 440.102 
L 934.555773 441.793614 
L 935.548479 441.155331 
L 936.541185 442.504416 
L 937.533891 442.196317 
L 938.526597 442.85112 
L 939.519303 439.717483 
L 940.512009 441.788738 
L 941.504714 440.544845 
L 942.49742 441.828498 
L 943.490126 442.001876 
L 944.482832 440.561033 
L 945.475538 440.637737 
L 946.468244 442.966221 
L 947.46095 441.592207 
L 948.453656 441.783568 
L 949.446362 443.307035 
L 950.439068 442.846857 
L 951.431774 442.740855 
L 952.42448 442.885676 
L 953.417186 441.849391 
L 954.409891 442.395278 
L 955.402597 440.013155 
L 956.395303 443.061403 
L 957.388009 441.90242 
L 958.380715 441.542467 
L 959.373421 441.909127 
L 960.366127 440.457964 
L 961.358833 441.859001 
L 962.351539 441.607644 
L 963.344245 443.876817 
L 964.336951 442.314362 
L 965.329657 442.019725 
L 966.322363 442.477263 
L 967.315068 441.897251 
L 968.307774 439.925471 
L 969.30048 442.4809 
L 970.293186 442.591419 
L 971.285892 440.934189 
L 972.278598 443.183361 
L 973.271304 439.979003 
L 974.26401 440.443162 
L 975.256716 441.22371 
L 976.249422 441.074979 
L 977.242128 442.926797 
L 978.234834 443.583734 
L 979.22754 441.961638 
L 980.220246 442.884675 
L 981.212951 443.159485 
L 982.205657 442.566793 
L 983.198363 442.529304 
L 984.191069 442.127509 
L 985.183775 442.46854 
L 986.176481 443.641676 
L 987.169187 442.460909 
L 989.154599 443.060132 
L 990.147305 443.368092 
L 991.140011 443.970905 
L 992.132717 442.184038 
L 993.125423 442.325814 
L 994.118128 444.232585 
L 995.110834 442.852808 
L 996.10354 441.23085 
L 997.096246 442.267078 
L 998.088952 443.660902 
L 999.081658 444.132504 
L 1000.074364 442.7839 
L 1001.06707 444.26267 
L 1002.059776 443.170521 
L 1003.052482 442.30739 
L 1004.045188 443.779843 
L 1005.037894 444.522322 
L 1006.0306 443.308292 
L 1007.023305 444.047823 
L 1008.016011 442.68495 
L 1009.008717 444.525293 
L 1010.001423 443.043546 
L 1010.994129 443.005562 
L 1011.986835 444.430227 
L 1012.979541 445.331777 
L 1013.972247 444.384073 
L 1014.964953 442.243577 
L 1015.957659 443.43606 
L 1016.950365 445.377373 
L 1017.943071 442.998829 
L 1018.935777 444.248161 
L 1019.928482 445.139701 
L 1020.921188 443.715187 
L 1021.913894 445.723031 
L 1022.9066 443.765222 
L 1023.899306 442.941146 
L 1024.892012 444.79646 
L 1027.87013 444.014549 
L 1028.862836 445.717906 
L 1029.855542 444.441564 
L 1030.848248 443.815141 
L 1031.840954 445.207327 
L 1032.833659 442.762716 
L 1033.826365 445.650877 
L 1034.819071 443.757004 
L 1035.811777 445.41423 
L 1036.804483 444.026942 
L 1037.797189 444.417154 
L 1038.789895 443.917071 
L 1039.782601 443.171882 
L 1040.775307 443.502643 
L 1041.768013 445.58601 
L 1042.760719 445.466005 
L 1043.753425 444.128134 
L 1044.746131 443.438096 
L 1045.738837 445.659489 
L 1046.731542 444.203335 
L 1047.724248 444.112811 
L 1048.716954 444.189785 
L 1049.70966 443.495562 
L 1050.702366 444.640382 
L 1051.695072 443.759555 
L 1053.680484 446.003681 
L 1054.67319 442.237087 
L 1055.665896 445.88666 
L 1056.658602 445.96831 
L 1057.651308 445.858663 
L 1059.636719 444.327927 
L 1060.629425 444.992825 
L 1061.622131 446.099252 
L 1062.614837 444.189824 
L 1063.607543 444.047354 
L 1064.600249 443.203706 
L 1065.592955 444.046461 
L 1066.585661 446.336645 
L 1067.578367 446.537626 
L 1068.571073 445.066357 
L 1069.563779 443.214932 
L 1070.556485 444.176314 
L 1071.549191 443.385287 
L 1072.541896 447.318276 
L 1073.534602 444.283786 
L 1074.527308 445.724842 
L 1076.51272 443.160374 
L 1077.505426 445.715121 
L 1078.498132 444.032649 
L 1079.490838 446.706307 
L 1080.483544 445.275993 
L 1081.47625 444.333342 
L 1082.468956 445.008551 
L 1083.461662 443.556925 
L 1084.454368 444.050041 
L 1085.447073 445.650503 
L 1086.439779 444.72189 
L 1087.432485 446.239355 
L 1088.425191 445.957045 
L 1089.417897 445.264339 
L 1090.410603 444.075247 
L 1091.403309 446.110898 
L 1092.396015 445.190798 
L 1093.388721 445.13725 
L 1094.381427 444.545541 
L 1095.374133 445.563632 
L 1096.366839 445.466308 
L 1097.359545 446.904365 
L 1098.35225 446.742882 
L 1099.344956 445.281997 
L 1100.337662 445.060036 
L 1101.330368 448.13698 
L 1102.323074 445.200798 
L 1103.31578 445.716269 
L 1104.308486 445.152538 
L 1105.301192 443.930881 
L 1106.293898 445.894104 
L 1107.286604 445.178286 
L 1109.272016 447.708419 
L 1110.264722 446.4677 
L 1111.257428 447.034619 
L 1112.250133 446.758208 
L 1113.242839 446.029473 
L 1114.235545 445.769389 
L 1115.228251 445.674326 
L 1116.220957 446.355678 
L 1117.213663 445.757219 
L 1118.206369 446.920143 
L 1119.199075 445.422855 
L 1120.191781 446.237016 
L 1121.184487 446.892007 
L 1122.177193 446.842264 
L 1123.169899 444.357742 
L 1124.162605 446.165815 
L 1125.15531 447.59808 
L 1126.148016 446.209099 
L 1127.140722 445.400296 
L 1128.133428 447.243716 
L 1129.126134 446.909078 
L 1130.11884 446.446639 
L 1131.111546 445.639776 
L 1132.104252 446.067029 
L 1133.096958 447.789174 
L 1135.08237 445.537282 
L 1136.075076 447.29212 
L 1137.067782 446.654008 
L 1138.060487 446.65539 
L 1139.053193 447.770031 
L 1140.045899 444.006596 
L 1141.038605 444.178496 
L 1142.031311 447.238887 
L 1143.024017 445.534268 
L 1144.016723 447.047739 
L 1145.009429 446.088606 
L 1146.002135 445.504213 
L 1146.994841 447.108612 
L 1147.987547 445.880169 
L 1148.980253 447.388746 
L 1149.972959 444.461435 
L 1150.965664 445.492483 
L 1151.95837 445.595006 
L 1152.951076 445.526816 
L 1153.943782 447.429502 
L 1154.936488 447.498055 
L 1155.929194 446.848608 
L 1156.9219 447.768831 
L 1157.914606 447.645994 
L 1158.907312 448.394669 
L 1159.900018 450.115097 
L 1160.892724 446.5747 
L 1161.88543 447.449656 
L 1162.878136 447.971808 
L 1163.870841 446.533592 
L 1164.863547 448.783672 
L 1165.856253 446.458583 
L 1166.848959 446.41754 
L 1167.841665 445.745241 
L 1168.834371 447.572952 
L 1169.827077 446.367844 
L 1170.819783 447.34546 
L 1171.812489 446.09879 
L 1172.805195 448.63379 
L 1173.797901 447.258676 
L 1174.790607 447.380706 
L 1175.783313 446.056716 
L 1176.776019 445.890898 
L 1177.768724 447.398552 
L 1178.76143 446.76682 
L 1179.754136 447.26139 
L 1180.746842 446.577913 
L 1181.739548 447.372999 
L 1182.732254 447.859711 
L 1183.72496 447.118889 
L 1184.717666 446.148529 
L 1185.710372 446.280882 
L 1186.703078 445.795938 
L 1187.695784 446.441256 
L 1188.68849 448.314266 
L 1189.681196 446.76924 
L 1190.673901 447.143643 
L 1191.666607 446.617501 
L 1192.659313 447.658733 
L 1193.652019 448.517796 
L 1194.644725 447.064289 
L 1195.637431 446.226663 
L 1196.630137 448.74935 
L 1197.622843 446.21928 
L 1199.608255 446.748097 
L 1200.600961 445.338956 
L 1201.593667 444.979863 
L 1202.586373 445.520719 
L 1203.579078 445.019289 
L 1204.571784 448.175773 
L 1205.56449 447.615125 
L 1206.557196 447.250828 
L 1207.549902 447.570157 
L 1208.542608 448.393523 
L 1209.535314 450.064305 
L 1210.52802 448.87639 
L 1211.520726 446.698516 
L 1212.513432 447.990283 
L 1213.506138 445.493178 
L 1214.498844 445.725599 
L 1215.49155 446.875449 
L 1216.484255 447.201987 
L 1217.476961 447.900841 
L 1218.469667 448.105708 
L 1219.462373 447.798477 
L 1220.455079 445.623019 
L 1221.447785 445.674604 
L 1222.440491 446.490844 
L 1223.433197 448.525596 
L 1224.425903 446.336716 
L 1225.418609 447.680996 
L 1226.411315 447.678357 
L 1227.404021 447.817342 
L 1228.396727 446.351634 
L 1229.389432 446.046077 
L 1230.382138 447.839649 
L 1231.374844 448.171063 
L 1232.36755 447.204977 
L 1233.360256 449.075264 
L 1234.352962 447.43421 
L 1235.345668 444.768072 
L 1236.338374 447.317265 
L 1237.33108 445.676803 
L 1238.323786 446.97894 
L 1239.316492 447.201444 
L 1240.309198 448.52497 
L 1241.301904 446.685589 
L 1242.29461 446.833362 
L 1243.287315 447.792312 
L 1244.280021 445.192318 
L 1245.272727 447.258395 
L 1245.272727 447.258395 
" clip-path="url(#p49ff0b6619)" style="fill: none; stroke: #1f77b4; stroke-width: 1.5; stroke-linecap: square"/>
   </g>
   <g id="patch_3">
    <path d="M 180 512.64 
L 180 69.12 
" style="fill: none; stroke: #000000; stroke-width: 0.8; stroke-linejoin: miter; stroke-linecap: square"/>
   </g>
   <g id="patch_4">
    <path d="M 1296 512.64 
L 1296 69.12 
" style="fill: none; stroke: #000000; stroke-width: 0.8; stroke-linejoin: miter; stroke-linecap: square"/>
   </g>
   <g id="patch_5">
    <path d="M 180 512.64 
L 1296 512.64 
" style="fill: none; stroke: #000000; stroke-width: 0.8; stroke-linejoin: miter; stroke-linecap: square"/>
   </g>
   <g id="patch_6">
    <path d="M 180 69.12 
L 1296 69.12 
" style="fill: none; stroke: #000000; stroke-width: 0.8; stroke-linejoin: miter; stroke-linecap: square"/>
   </g>
   <g id="text_16">
    <!-- source13-receiver24 -->
    <g transform="translate(532.175 60.80125) scale(0.4 -0.4)">
     <defs>
      <path id="DejaVuSans-73" d="M 2834 3397 
L 2834 2853 
Q 2591 2978 2328 3040 
Q 2066 3103 1784 3103 
Q 1356 3103 1142 2972 
Q 928 2841 928 2578 
Q 928 2378 1081 2264 
Q 1234 2150 1697 2047 
L 1894 2003 
Q 2506 1872 2764 1633 
Q 3022 1394 3022 966 
Q 3022 478 2636 193 
Q 2250 -91 1575 -91 
Q 1294 -91 989 -36 
Q 684 19 347 128 
L 347 722 
Q 666 556 975 473 
Q 1284 391 1588 391 
Q 1994 391 2212 530 
Q 2431 669 2431 922 
Q 2431 1156 2273 1281 
Q 2116 1406 1581 1522 
L 1381 1569 
Q 847 1681 609 1914 
Q 372 2147 372 2553 
Q 372 3047 722 3315 
Q 1072 3584 1716 3584 
Q 2034 3584 2315 3537 
Q 2597 3491 2834 3397 
z
" transform="scale(0.015625)"/>
      <path id="DejaVuSans-6f" d="M 1959 3097 
Q 1497 3097 1228 2736 
Q 959 2375 959 1747 
Q 959 1119 1226 758 
Q 1494 397 1959 397 
Q 2419 397 2687 759 
Q 2956 1122 2956 1747 
Q 2956 2369 2687 2733 
Q 2419 3097 1959 3097 
z
M 1959 3584 
Q 2709 3584 3137 3096 
Q 3566 2609 3566 1747 
Q 3566 888 3137 398 
Q 2709 -91 1959 -91 
Q 1206 -91 779 398 
Q 353 888 353 1747 
Q 353 2609 779 3096 
Q 1206 3584 1959 3584 
z
" transform="scale(0.015625)"/>
      <path id="DejaVuSans-75" d="M 544 1381 
L 544 3500 
L 1119 3500 
L 1119 1403 
Q 1119 906 1312 657 
Q 1506 409 1894 409 
Q 2359 409 2629 706 
Q 2900 1003 2900 1516 
L 2900 3500 
L 3475 3500 
L 3475 0 
L 2900 0 
L 2900 538 
Q 2691 219 2414 64 
Q 2138 -91 1772 -91 
Q 1169 -91 856 284 
Q 544 659 544 1381 
z
M 1991 3584 
L 1991 3584 
z
" transform="scale(0.015625)"/>
      <path id="DejaVuSans-72" d="M 2631 2963 
Q 2534 3019 2420 3045 
Q 2306 3072 2169 3072 
Q 1681 3072 1420 2755 
Q 1159 2438 1159 1844 
L 1159 0 
L 581 0 
L 581 3500 
L 1159 3500 
L 1159 2956 
Q 1341 3275 1631 3429 
Q 1922 3584 2338 3584 
Q 2397 3584 2469 3576 
Q 2541 3569 2628 3553 
L 2631 2963 
z
" transform="scale(0.015625)"/>
      <path id="DejaVuSans-63" d="M 3122 3366 
L 3122 2828 
Q 2878 2963 2633 3030 
Q 2388 3097 2138 3097 
Q 1578 3097 1268 2742 
Q 959 2388 959 1747 
Q 959 1106 1268 751 
Q 1578 397 2138 397 
Q 2388 397 2633 464 
Q 2878 531 3122 666 
L 3122 134 
Q 2881 22 2623 -34 
Q 2366 -91 2075 -91 
Q 1284 -91 818 406 
Q 353 903 353 1747 
Q 353 2603 823 3093 
Q 1294 3584 2113 3584 
Q 2378 3584 2631 3529 
Q 2884 3475 3122 3366 
z
" transform="scale(0.015625)"/>
      <path id="DejaVuSans-65" d="M 3597 1894 
L 3597 1613 
L 953 1613 
Q 991 1019 1311 708 
Q 1631 397 2203 397 
Q 2534 397 2845 478 
Q 3156 559 3463 722 
L 3463 178 
Q 3153 47 2828 -22 
Q 2503 -91 2169 -91 
Q 1331 -91 842 396 
Q 353 884 353 1716 
Q 353 2575 817 3079 
Q 1281 3584 2069 3584 
Q 2775 3584 3186 3129 
Q 3597 2675 3597 1894 
z
M 3022 2063 
Q 3016 2534 2758 2815 
Q 2500 3097 2075 3097 
Q 1594 3097 1305 2825 
Q 1016 2553 972 2059 
L 3022 2063 
z
" transform="scale(0.015625)"/>
      <path id="DejaVuSans-2d" d="M 313 2009 
L 1997 2009 
L 1997 1497 
L 313 1497 
L 313 2009 
z
" transform="scale(0.015625)"/>
      <path id="DejaVuSans-69" d="M 603 3500 
L 1178 3500 
L 1178 0 
L 603 0 
L 603 3500 
z
M 603 4863 
L 1178 4863 
L 1178 4134 
L 603 4134 
L 603 4863 
z
" transform="scale(0.015625)"/>
      <path id="DejaVuSans-76" d="M 191 3500 
L 800 3500 
L 1894 563 
L 2988 3500 
L 3597 3500 
L 2284 0 
L 1503 0 
L 191 3500 
z
" transform="scale(0.015625)"/>
     </defs>
     <use xlink:href="#DejaVuSans-73"/>
     <use xlink:href="#DejaVuSans-6f" x="52.099609"/>
     <use xlink:href="#DejaVuSans-75" x="113.28125"/>
     <use xlink:href="#DejaVuSans-72" x="176.660156"/>
     <use xlink:href="#DejaVuSans-63" x="215.523438"/>
     <use xlink:href="#DejaVuSans-65" x="270.503906"/>
     <use xlink:href="#DejaVuSans-31" x="332.027344"/>
     <use xlink:href="#DejaVuSans-33" x="395.650391"/>
     <use xlink:href="#DejaVuSans-2d" x="459.273438"/>
     <use xlink:href="#DejaVuSans-72" x="495.357422"/>
     <use xlink:href="#DejaVuSans-65" x="534.220703"/>
     <use xlink:href="#DejaVuSans-63" x="595.744141"/>
     <use xlink:href="#DejaVuSans-65" x="650.724609"/>
     <use xlink:href="#DejaVuSans-69" x="712.248047"/>
     <use xlink:href="#DejaVuSans-76" x="740.03125"/>
     <use xlink:href="#DejaVuSans-65" x="799.210938"/>
     <use xlink:href="#DejaVuSans-72" x="860.734375"/>
     <use xlink:href="#DejaVuSans-32" x="901.847656"/>
     <use xlink:href="#DejaVuSans-34" x="965.470703"/>
    </g>
   </g>
  </g>
 </g>
 <defs>
  <clipPath id="p49ff0b6619">
   <rect x="180" y="69.12" width="1116" height="443.52"/>
  </clipPath>
 </defs>
</svg>
