<?xml version="1.0" encoding="utf-8" standalone="no"?>
<!DOCTYPE svg PUBLIC "-//W3C//DTD SVG 1.1//EN"
  "http://www.w3.org/Graphics/SVG/1.1/DTD/svg11.dtd">
<svg xmlns:xlink="http://www.w3.org/1999/xlink" width="1440pt" height="576pt" viewBox="0 0 1440 576" xmlns="http://www.w3.org/2000/svg" version="1.1">
 <metadata>
  <rdf:RDF xmlns:dc="http://purl.org/dc/elements/1.1/" xmlns:cc="http://creativecommons.org/ns#" xmlns:rdf="http://www.w3.org/1999/02/22-rdf-syntax-ns#">
   <cc:Work>
    <dc:type rdf:resource="http://purl.org/dc/dcmitype/StillImage"/>
    <dc:date>2024-05-22T04:50:03.857721</dc:date>
    <dc:format>image/svg+xml</dc:format>
    <dc:creator>
     <cc:Agent>
      <dc:title>Matplotlib v3.8.3, https://matplotlib.org/</dc:title>
     </cc:Agent>
    </dc:creator>
   </cc:Work>
  </rdf:RDF>
 </metadata>
 <defs>
  <style type="text/css">*{stroke-linejoin: round; stroke-linecap: butt}</style>
 </defs>
 <g id="figure_1">
  <g id="patch_1">
   <path d="M 0 576 
L 1440 576 
L 1440 0 
L 0 0 
z
" style="fill: #ffffff"/>
  </g>
  <g id="axes_1">
   <g id="patch_2">
    <path d="M 180 512.64 
L 1296 512.64 
L 1296 69.12 
L 180 69.12 
z
" style="fill: #ffffff"/>
   </g>
   <g id="matplotlib.axis_1">
    <g id="xtick_1">
     <g id="line2d_1">
      <defs>
       <path id="m7d6e4faef2" d="M 0 0 
L 0 3.5 
" style="stroke: #000000; stroke-width: 0.8"/>
      </defs>
      <g>
       <use xlink:href="#m7d6e4faef2" x="229.734567" y="512.64" style="stroke: #000000; stroke-width: 0.8"/>
      </g>
     </g>
     <g id="text_1">
      <!-- 0 -->
      <g transform="translate(226.553317 527.238438) scale(0.1 -0.1)">
       <defs>
        <path id="DejaVuSans-30" d="M 2034 4250 
Q 1547 4250 1301 3770 
Q 1056 3291 1056 2328 
Q 1056 1369 1301 889 
Q 1547 409 2034 409 
Q 2525 409 2770 889 
Q 3016 1369 3016 2328 
Q 3016 3291 2770 3770 
Q 2525 4250 2034 4250 
z
M 2034 4750 
Q 2819 4750 3233 4129 
Q 3647 3509 3647 2328 
Q 3647 1150 3233 529 
Q 2819 -91 2034 -91 
Q 1250 -91 836 529 
Q 422 1150 422 2328 
Q 422 3509 836 4129 
Q 1250 4750 2034 4750 
z
" transform="scale(0.015625)"/>
       </defs>
       <use xlink:href="#DejaVuSans-30"/>
      </g>
     </g>
    </g>
    <g id="xtick_2">
     <g id="line2d_2">
      <g>
       <use xlink:href="#m7d6e4faef2" x="433.04074" y="512.64" style="stroke: #000000; stroke-width: 0.8"/>
      </g>
     </g>
     <g id="text_2">
      <!-- 500 -->
      <g transform="translate(423.49699 527.238438) scale(0.1 -0.1)">
       <defs>
        <path id="DejaVuSans-35" d="M 691 4666 
L 3169 4666 
L 3169 4134 
L 1269 4134 
L 1269 2991 
Q 1406 3038 1543 3061 
Q 1681 3084 1819 3084 
Q 2600 3084 3056 2656 
Q 3513 2228 3513 1497 
Q 3513 744 3044 326 
Q 2575 -91 1722 -91 
Q 1428 -91 1123 -41 
Q 819 9 494 109 
L 494 744 
Q 775 591 1075 516 
Q 1375 441 1709 441 
Q 2250 441 2565 725 
Q 2881 1009 2881 1497 
Q 2881 1984 2565 2268 
Q 2250 2553 1709 2553 
Q 1456 2553 1204 2497 
Q 953 2441 691 2322 
L 691 4666 
z
" transform="scale(0.015625)"/>
       </defs>
       <use xlink:href="#DejaVuSans-35"/>
       <use xlink:href="#DejaVuSans-30" x="63.623047"/>
       <use xlink:href="#DejaVuSans-30" x="127.246094"/>
      </g>
     </g>
    </g>
    <g id="xtick_3">
     <g id="line2d_3">
      <g>
       <use xlink:href="#m7d6e4faef2" x="636.346913" y="512.64" style="stroke: #000000; stroke-width: 0.8"/>
      </g>
     </g>
     <g id="text_3">
      <!-- 1000 -->
      <g transform="translate(623.621913 527.238438) scale(0.1 -0.1)">
       <defs>
        <path id="DejaVuSans-31" d="M 794 531 
L 1825 531 
L 1825 4091 
L 703 3866 
L 703 4441 
L 1819 4666 
L 2450 4666 
L 2450 531 
L 3481 531 
L 3481 0 
L 794 0 
L 794 531 
z
" transform="scale(0.015625)"/>
       </defs>
       <use xlink:href="#DejaVuSans-31"/>
       <use xlink:href="#DejaVuSans-30" x="63.623047"/>
       <use xlink:href="#DejaVuSans-30" x="127.246094"/>
       <use xlink:href="#DejaVuSans-30" x="190.869141"/>
      </g>
     </g>
    </g>
    <g id="xtick_4">
     <g id="line2d_4">
      <g>
       <use xlink:href="#m7d6e4faef2" x="839.653087" y="512.64" style="stroke: #000000; stroke-width: 0.8"/>
      </g>
     </g>
     <g id="text_4">
      <!-- 1500 -->
      <g transform="translate(826.928087 527.238438) scale(0.1 -0.1)">
       <use xlink:href="#DejaVuSans-31"/>
       <use xlink:href="#DejaVuSans-35" x="63.623047"/>
       <use xlink:href="#DejaVuSans-30" x="127.246094"/>
       <use xlink:href="#DejaVuSans-30" x="190.869141"/>
      </g>
     </g>
    </g>
    <g id="xtick_5">
     <g id="line2d_5">
      <g>
       <use xlink:href="#m7d6e4faef2" x="1042.95926" y="512.64" style="stroke: #000000; stroke-width: 0.8"/>
      </g>
     </g>
     <g id="text_5">
      <!-- 2000 -->
      <g transform="translate(1030.23426 527.238438) scale(0.1 -0.1)">
       <defs>
        <path id="DejaVuSans-32" d="M 1228 531 
L 3431 531 
L 3431 0 
L 469 0 
L 469 531 
Q 828 903 1448 1529 
Q 2069 2156 2228 2338 
Q 2531 2678 2651 2914 
Q 2772 3150 2772 3378 
Q 2772 3750 2511 3984 
Q 2250 4219 1831 4219 
Q 1534 4219 1204 4116 
Q 875 4013 500 3803 
L 500 4441 
Q 881 4594 1212 4672 
Q 1544 4750 1819 4750 
Q 2544 4750 2975 4387 
Q 3406 4025 3406 3419 
Q 3406 3131 3298 2873 
Q 3191 2616 2906 2266 
Q 2828 2175 2409 1742 
Q 1991 1309 1228 531 
z
" transform="scale(0.015625)"/>
       </defs>
       <use xlink:href="#DejaVuSans-32"/>
       <use xlink:href="#DejaVuSans-30" x="63.623047"/>
       <use xlink:href="#DejaVuSans-30" x="127.246094"/>
       <use xlink:href="#DejaVuSans-30" x="190.869141"/>
      </g>
     </g>
    </g>
    <g id="xtick_6">
     <g id="line2d_6">
      <g>
       <use xlink:href="#m7d6e4faef2" x="1246.265433" y="512.64" style="stroke: #000000; stroke-width: 0.8"/>
      </g>
     </g>
     <g id="text_6">
      <!-- 2500 -->
      <g transform="translate(1233.540433 527.238438) scale(0.1 -0.1)">
       <use xlink:href="#DejaVuSans-32"/>
       <use xlink:href="#DejaVuSans-35" x="63.623047"/>
       <use xlink:href="#DejaVuSans-30" x="127.246094"/>
       <use xlink:href="#DejaVuSans-30" x="190.869141"/>
      </g>
     </g>
    </g>
   </g>
   <g id="matplotlib.axis_2">
    <g id="ytick_1">
     <g id="line2d_7">
      <defs>
       <path id="mc3010d17c9" d="M 0 0 
L -3.5 0 
" style="stroke: #000000; stroke-width: 0.8"/>
      </defs>
      <g>
       <use xlink:href="#mc3010d17c9" x="180" y="486.437624" style="stroke: #000000; stroke-width: 0.8"/>
      </g>
     </g>
     <g id="text_7">
      <!-- −4 -->
      <g transform="translate(158.257812 490.236842) scale(0.1 -0.1)">
       <defs>
        <path id="DejaVuSans-2212" d="M 678 2272 
L 4684 2272 
L 4684 1741 
L 678 1741 
L 678 2272 
z
" transform="scale(0.015625)"/>
        <path id="DejaVuSans-34" d="M 2419 4116 
L 825 1625 
L 2419 1625 
L 2419 4116 
z
M 2253 4666 
L 3047 4666 
L 3047 1625 
L 3713 1625 
L 3713 1100 
L 3047 1100 
L 3047 0 
L 2419 0 
L 2419 1100 
L 313 1100 
L 313 1709 
L 2253 4666 
z
" transform="scale(0.015625)"/>
       </defs>
       <use xlink:href="#DejaVuSans-2212"/>
       <use xlink:href="#DejaVuSans-34" x="83.789062"/>
      </g>
     </g>
    </g>
    <g id="ytick_2">
     <g id="line2d_8">
      <g>
       <use xlink:href="#mc3010d17c9" x="180" y="403.099108" style="stroke: #000000; stroke-width: 0.8"/>
      </g>
     </g>
     <g id="text_8">
      <!-- −2 -->
      <g transform="translate(158.257812 406.898327) scale(0.1 -0.1)">
       <use xlink:href="#DejaVuSans-2212"/>
       <use xlink:href="#DejaVuSans-32" x="83.789062"/>
      </g>
     </g>
    </g>
    <g id="ytick_3">
     <g id="line2d_9">
      <g>
       <use xlink:href="#mc3010d17c9" x="180" y="319.760593" style="stroke: #000000; stroke-width: 0.8"/>
      </g>
     </g>
     <g id="text_9">
      <!-- 0 -->
      <g transform="translate(166.6375 323.559811) scale(0.1 -0.1)">
       <use xlink:href="#DejaVuSans-30"/>
      </g>
     </g>
    </g>
    <g id="ytick_4">
     <g id="line2d_10">
      <g>
       <use xlink:href="#mc3010d17c9" x="180" y="236.422077" style="stroke: #000000; stroke-width: 0.8"/>
      </g>
     </g>
     <g id="text_10">
      <!-- 2 -->
      <g transform="translate(166.6375 240.221296) scale(0.1 -0.1)">
       <use xlink:href="#DejaVuSans-32"/>
      </g>
     </g>
    </g>
    <g id="ytick_5">
     <g id="line2d_11">
      <g>
       <use xlink:href="#mc3010d17c9" x="180" y="153.083562" style="stroke: #000000; stroke-width: 0.8"/>
      </g>
     </g>
     <g id="text_11">
      <!-- 4 -->
      <g transform="translate(166.6375 156.882781) scale(0.1 -0.1)">
       <use xlink:href="#DejaVuSans-34"/>
      </g>
     </g>
    </g>
    <g id="ytick_6">
     <g id="line2d_12">
      <g>
       <use xlink:href="#mc3010d17c9" x="180" y="69.745046" style="stroke: #000000; stroke-width: 0.8"/>
      </g>
     </g>
     <g id="text_12">
      <!-- 6 -->
      <g transform="translate(166.6375 73.544265) scale(0.1 -0.1)">
       <defs>
        <path id="DejaVuSans-36" d="M 2113 2584 
Q 1688 2584 1439 2293 
Q 1191 2003 1191 1497 
Q 1191 994 1439 701 
Q 1688 409 2113 409 
Q 2538 409 2786 701 
Q 3034 994 3034 1497 
Q 3034 2003 2786 2293 
Q 2538 2584 2113 2584 
z
M 3366 4563 
L 3366 3988 
Q 3128 4100 2886 4159 
Q 2644 4219 2406 4219 
Q 1781 4219 1451 3797 
Q 1122 3375 1075 2522 
Q 1259 2794 1537 2939 
Q 1816 3084 2150 3084 
Q 2853 3084 3261 2657 
Q 3669 2231 3669 1497 
Q 3669 778 3244 343 
Q 2819 -91 2113 -91 
Q 1303 -91 875 529 
Q 447 1150 447 2328 
Q 447 3434 972 4092 
Q 1497 4750 2381 4750 
Q 2619 4750 2861 4703 
Q 3103 4656 3366 4563 
z
" transform="scale(0.015625)"/>
       </defs>
       <use xlink:href="#DejaVuSans-36"/>
      </g>
     </g>
    </g>
   </g>
   <g id="line2d_13">
    <path d="M 230.727273 319.868756 
L 231.719979 319.248308 
L 232.712685 306.694744 
L 233.70539 324.351983 
L 235.690802 301.233344 
L 236.683508 333.939041 
L 237.676214 301.200817 
L 238.66892 300.857675 
L 239.661626 325.192258 
L 240.654332 294.404386 
L 241.647038 306.481319 
L 242.639744 299.950977 
L 243.63245 294.840482 
L 244.625156 297.356823 
L 245.617862 279.846059 
L 246.610568 285.529361 
L 247.603273 259.635836 
L 248.595979 249.903128 
L 249.588685 236.075211 
L 250.581391 217.59136 
L 251.574097 209.034595 
L 252.566803 194.415549 
L 253.559509 189.75507 
L 254.552215 209.85795 
L 255.544921 195.711063 
L 256.537627 175.828658 
L 257.530333 184.496459 
L 258.523039 227.265838 
L 259.515745 215.631834 
L 260.50845 198.078847 
L 261.501156 197.838496 
L 262.493862 234.142354 
L 264.479274 188.504367 
L 265.47198 199.155819 
L 266.464686 244.698784 
L 267.457392 204.650358 
L 268.450098 174.724492 
L 269.442804 176.635172 
L 270.43551 216.057745 
L 271.428216 196.6978 
L 272.420922 180.076733 
L 273.413627 175.488153 
L 274.406333 196.710082 
L 275.399039 198.107767 
L 276.391745 170.657585 
L 277.384451 212.248115 
L 278.377157 175.332787 
L 279.369863 156.553549 
L 280.362569 156.248359 
L 281.355275 119.000334 
L 282.347981 104.116966 
L 283.340687 113.598749 
L 284.333393 125.394866 
L 285.326099 96.160586 
L 286.318804 89.28 
L 287.31151 106.194083 
L 288.304216 141.807838 
L 289.296922 127.057842 
L 290.289628 127.670505 
L 291.282334 136.430302 
L 292.27504 152.870255 
L 293.267746 188.453502 
L 294.260452 160.909857 
L 295.253158 165.979363 
L 296.245864 178.089274 
L 297.23857 173.343825 
L 298.231276 178.670633 
L 299.223981 180.655366 
L 300.216687 194.763511 
L 301.209393 199.486719 
L 302.202099 200.795905 
L 303.194805 218.43358 
L 304.187511 214.134464 
L 305.180217 230.61877 
L 306.172923 224.896718 
L 307.165629 224.118277 
L 308.158335 259.660843 
L 309.151041 236.704221 
L 310.143747 245.989517 
L 311.136453 284.419452 
L 312.129159 251.370427 
L 313.121864 281.895569 
L 314.11457 278.021502 
L 315.107276 264.503537 
L 316.099982 371.011133 
L 317.092688 266.134972 
L 318.085394 285.78681 
L 319.0781 286.964166 
L 320.070806 265.292572 
L 321.063512 327.581527 
L 322.056218 274.818513 
L 323.048924 277.5639 
L 324.04163 351.078047 
L 325.034336 278.296084 
L 326.027041 304.225766 
L 327.019747 309.070027 
L 328.012453 292.492464 
L 329.005159 322.747478 
L 329.997865 298.705017 
L 330.990571 313.496343 
L 331.983277 306.298158 
L 332.975983 300.01933 
L 333.968689 329.606071 
L 334.961395 295.342399 
L 335.954101 323.894409 
L 336.946807 306.097765 
L 337.939513 297.371354 
L 338.932218 365.848899 
L 339.924924 289.266015 
L 340.91763 309.340169 
L 341.910336 310.039644 
L 342.903042 282.291933 
L 343.895748 328.79392 
L 344.888454 294.846195 
L 345.88116 288.746916 
L 346.873866 360.993214 
L 347.866572 285.342103 
L 349.851984 319.748002 
L 350.84469 289.081509 
L 351.837395 342.620815 
L 352.830101 304.253641 
L 353.822807 307.103092 
L 354.815513 333.819256 
L 355.808219 293.882787 
L 356.800925 349.089713 
L 357.793631 291.8168 
L 358.786337 285.045442 
L 359.779043 307.723693 
L 360.771749 270.555418 
L 361.764455 275.845686 
L 362.757161 281.846191 
L 363.749867 260.365611 
L 364.742572 271.326702 
L 365.735278 271.851206 
L 366.727984 259.956653 
L 367.72069 278.859748 
L 368.713396 276.275938 
L 369.706102 269.673999 
L 370.698808 301.365322 
L 371.691514 291.804965 
L 372.68422 290.887397 
L 373.676926 378.574088 
L 374.669632 318.98301 
L 375.662338 330.490826 
L 376.655044 329.492071 
L 377.64775 320.015571 
L 378.640455 365.081414 
L 379.633161 323.583592 
L 380.625867 297.229594 
L 381.618573 308.292385 
L 382.611279 289.944287 
L 383.603985 262.019191 
L 384.596691 261.750689 
L 385.589397 250.738295 
L 386.582103 235.425434 
L 387.574809 234.348193 
L 389.560221 217.642119 
L 390.552927 217.436541 
L 392.538338 207.332043 
L 393.531044 208.53884 
L 394.52375 204.741622 
L 395.516456 202.936889 
L 396.509162 205.51901 
L 397.501868 203.470995 
L 398.494574 204.470969 
L 399.48728 208.675315 
L 400.479986 207.838506 
L 401.472692 211.718326 
L 402.465398 217.638411 
L 403.458104 217.824126 
L 404.450809 225.637534 
L 405.443515 232.504268 
L 406.436221 234.044384 
L 407.428927 247.548727 
L 408.421633 252.750887 
L 409.414339 257.001648 
L 410.407045 277.044608 
L 411.399751 268.459053 
L 412.392457 280.96367 
L 413.385163 282.714449 
L 414.377869 272.347535 
L 415.370575 287.890043 
L 416.363281 271.463942 
L 417.355986 274.011211 
L 418.348692 281.706099 
L 419.341398 267.952808 
L 420.334104 279.481934 
L 421.32681 278.734629 
L 422.319516 269.98357 
L 423.312222 287.743435 
L 424.304928 278.052166 
L 425.297634 277.742681 
L 426.29034 300.079309 
L 427.283046 285.72596 
L 428.275752 294.742279 
L 429.268458 324.878989 
L 430.261163 301.929288 
L 431.253869 329.019233 
L 432.246575 348.532644 
L 433.239281 330.716714 
L 434.231987 356.827532 
L 435.224693 335.448713 
L 436.217399 398.585991 
L 437.210105 325.704783 
L 438.202811 326.611 
L 439.195517 377.1915 
L 440.188223 319.533898 
L 442.173635 351.340198 
L 443.166341 322.129844 
L 444.159046 364.793634 
L 445.151752 340.323674 
L 446.144458 333.068473 
L 447.137164 399.23261 
L 448.12987 329.886244 
L 449.122576 342.537479 
L 450.115282 374.593361 
L 451.107988 329.941948 
L 453.0934 375.167325 
L 454.086106 337.555562 
L 455.078812 343.060705 
L 456.071518 371.450759 
L 458.056929 333.577215 
L 459.049635 351.038416 
L 460.042341 361.130821 
L 461.035047 320.220365 
L 462.027753 334.630524 
L 463.020459 355.077064 
L 464.013165 313.978649 
L 465.005871 329.525166 
L 465.998577 358.943322 
L 466.991283 316.004393 
L 467.983989 329.372512 
L 468.976695 368.352949 
L 469.9694 324.126932 
L 470.962106 337.418212 
L 471.954812 425.674842 
L 472.947518 346.497946 
L 473.940224 336.512398 
L 474.93293 347.069986 
L 475.925636 397.981635 
L 476.918342 321.740847 
L 477.911048 317.696498 
L 478.903754 344.503329 
L 479.89646 310.01693 
L 480.889166 307.500904 
L 481.881872 327.964002 
L 482.874577 302.952509 
L 483.867283 300.285677 
L 484.859989 321.680589 
L 485.852695 301.269166 
L 486.845401 295.715312 
L 487.838107 316.547107 
L 488.830813 299.729181 
L 489.823519 292.144343 
L 490.816225 308.106731 
L 491.808931 294.715846 
L 492.801637 287.10249 
L 493.794343 299.558027 
L 494.787049 288.678281 
L 495.779754 282.368253 
L 496.77246 293.635732 
L 497.765166 282.215244 
L 498.757872 276.371799 
L 499.750578 285.67038 
L 500.743284 274.3932 
L 501.73599 271.527134 
L 502.728696 277.344775 
L 503.721402 265.747494 
L 504.714108 266.158041 
L 505.706814 269.563459 
L 506.69952 260.211082 
L 507.692226 262.995451 
L 508.684932 264.653599 
L 509.677637 257.92404 
L 510.670343 261.777867 
L 511.663049 263.83684 
L 512.655755 258.980517 
L 513.648461 265.892873 
L 514.641167 268.372004 
L 515.633873 264.980744 
L 516.626579 277.9737 
L 517.619285 279.854328 
L 518.611991 280.613113 
L 519.604697 302.818492 
L 520.597403 295.842626 
L 521.590109 307.801986 
L 522.582814 323.344431 
L 523.57552 306.380238 
L 524.568226 323.869473 
L 525.560932 298.929241 
L 526.553638 296.077059 
L 527.546344 305.447033 
L 528.53905 287.827326 
L 529.531756 293.272908 
L 530.524462 296.332738 
L 531.517168 287.810726 
L 532.509874 301.512504 
L 533.50258 296.438124 
L 534.495286 293.471997 
L 535.487991 311.459265 
L 536.480697 295.267778 
L 537.473403 301.929535 
L 538.466109 305.501216 
L 539.458815 290.931728 
L 540.451521 303.399012 
L 541.444227 295.417165 
L 542.436933 292.87333 
L 543.429639 307.389004 
L 544.422345 295.786033 
L 545.415051 300.997398 
L 546.407757 322.446432 
L 547.400463 307.151111 
L 548.393168 329.256304 
L 549.385874 341.993653 
L 550.37858 328.715775 
L 551.371286 388.460892 
L 552.363992 325.984362 
L 553.356698 343.855556 
L 554.349404 329.164674 
L 555.34211 311.403989 
L 556.334816 333.42131 
L 557.327522 314.869689 
L 558.320228 311.718421 
L 559.312934 342.523181 
L 560.30564 315.914917 
L 561.298345 324.376338 
L 562.291051 358.264785 
L 563.283757 329.786716 
L 564.276463 356.015258 
L 565.269169 371.229255 
L 566.261875 354.478873 
L 567.254581 386.255136 
L 568.247287 353.937792 
L 569.239993 384.454604 
L 570.232699 354.955203 
L 571.225405 346.748747 
L 572.218111 464.410459 
L 573.210817 345.630842 
L 574.203523 355.464 
L 575.196228 400.198252 
L 576.188934 350.998597 
L 577.18164 372.796761 
L 578.174346 373.72343 
L 579.167052 359.219749 
L 580.159758 390.387403 
L 581.152464 364.69022 
L 582.14517 367.520879 
L 583.137876 374.892437 
L 584.130582 371.721931 
L 585.123288 361.5969 
L 586.115994 370.491192 
L 587.1087 374.54199 
L 588.101405 355.66813 
L 589.094111 386.803542 
L 591.079523 345.586476 
L 592.072229 411.253492 
L 593.064935 346.41446 
L 594.057641 342.664189 
L 595.050347 385.787101 
L 596.043053 328.448307 
L 597.035759 340.08542 
L 598.028465 341.065816 
L 599.021171 315.690501 
L 600.013877 329.066087 
L 601.999288 303.748527 
L 602.991994 315.919797 
L 603.9847 303.848994 
L 604.977406 296.513717 
L 605.970112 307.454631 
L 606.962818 296.103296 
L 607.955524 292.947843 
L 608.94823 303.521556 
L 609.940936 292.835916 
L 610.933642 293.73191 
L 611.926348 304.432178 
L 612.919054 293.66078 
L 613.911759 299.273405 
L 614.904465 306.60154 
L 615.897171 296.066292 
L 616.889877 306.757776 
L 617.882583 304.38013 
L 618.875289 295.752568 
L 619.867995 308.154806 
L 620.860701 296.959183 
L 621.853407 293.332802 
L 622.846113 301.835075 
L 623.838819 289.388689 
L 624.831525 290.324398 
L 625.824231 296.060889 
L 626.816936 286.77523 
L 628.802348 297.182312 
L 629.795054 288.889324 
L 630.78776 299.28675 
L 631.780466 304.611124 
L 632.773172 298.410321 
L 633.765878 315.997307 
L 634.758584 321.23069 
L 635.75129 316.211139 
L 636.743996 350.051263 
L 637.736702 350.184199 
L 638.729408 348.909261 
L 639.722114 394.400427 
L 640.714819 368.24698 
L 641.707525 423.632122 
L 642.700231 346.370199 
L 643.692937 351.236665 
L 644.685643 374.736617 
L 645.678349 333.089538 
L 646.671055 345.983643 
L 647.663761 361.080875 
L 648.656467 332.328481 
L 649.649173 351.496464 
L 650.641879 365.161542 
L 651.634585 338.322468 
L 652.627291 368.404221 
L 653.619996 371.443451 
L 654.612702 350.690151 
L 655.605408 396.290271 
L 656.598114 371.09176 
L 657.59082 367.544942 
L 658.583526 389.977722 
L 659.576232 365.888518 
L 660.568938 390.948338 
L 661.561644 372.029441 
L 662.55435 363.274579 
L 663.547056 412.274013 
L 664.539762 364.719444 
L 665.532468 366.00061 
L 666.525173 408.912835 
L 667.517879 364.605743 
L 668.510585 377.768741 
L 669.503291 386.822106 
L 670.495997 368.243772 
L 671.488703 386.664625 
L 672.481409 377.187713 
L 673.474115 376.046972 
L 674.466821 384.583038 
L 675.459527 375.994221 
L 676.452233 381.951758 
L 677.444939 375.831002 
L 678.437645 384.004465 
L 679.43035 377.707709 
L 680.423056 370.651399 
L 681.415762 402.975329 
L 682.408468 368.937858 
L 683.401174 367.706242 
L 684.39388 417.224891 
L 685.386586 363.338844 
L 686.379292 370.499578 
L 687.371998 406.952707 
L 688.364704 364.56762 
L 689.35741 378.589712 
L 690.350116 389.41522 
L 691.342822 373.365306 
L 692.335527 384.271475 
L 693.328233 376.183394 
L 694.320939 392.361768 
L 695.313645 374.809696 
L 696.306351 364.962627 
L 697.299057 427.713835 
L 698.291763 363.637068 
L 699.284469 357.970334 
L 700.277175 474.775468 
L 701.269881 355.208479 
L 702.262587 352.812888 
L 703.255293 423.581712 
L 704.247999 349.054444 
L 705.240705 349.272958 
L 706.23341 397.551689 
L 707.226116 342.902661 
L 708.218822 345.986952 
L 709.211528 377.618656 
L 710.204234 336.135493 
L 711.19694 343.01717 
L 712.189646 360.583398 
L 713.182352 329.530711 
L 714.175058 341.100092 
L 715.167764 346.507447 
L 716.16047 324.393847 
L 717.153176 340.022739 
L 718.145882 336.321523 
L 719.138587 321.59015 
L 720.131293 340.864597 
L 721.123999 329.979389 
L 722.116705 321.721133 
L 723.109411 344.567004 
L 724.102117 327.518108 
L 725.094823 325.956098 
L 726.087529 351.019105 
L 727.080235 328.058438 
L 728.072941 334.364131 
L 729.065647 355.280511 
L 730.058353 330.008217 
L 731.051059 347.041659 
L 732.043764 350.235231 
L 733.03647 331.805957 
L 734.029176 359.416819 
L 735.021882 339.963438 
L 736.014588 332.441353 
L 737.007294 360.028035 
L 738 331.830282 
L 738.992706 333.185223 
L 739.985412 354.223193 
L 740.978118 327.698607 
L 741.970824 335.369426 
L 742.96353 349.703735 
L 743.956236 327.230589 
L 744.948941 341.725729 
L 745.941647 350.063991 
L 746.934353 331.091612 
L 747.927059 354.378158 
L 748.919765 354.116105 
L 749.912471 339.699191 
L 750.905177 381.706736 
L 751.897883 359.172671 
L 752.890589 355.16015 
L 753.883295 492.48 
L 754.876001 360.352229 
L 755.868707 383.545345 
L 756.861413 377.802697 
L 757.854118 357.27927 
L 758.846824 434.020975 
L 759.83953 353.752565 
L 760.832236 353.469047 
L 761.824942 389.737706 
L 762.817648 342.624685 
L 763.810354 352.975429 
L 764.80306 369.690033 
L 765.795766 338.587263 
L 766.788472 357.242562 
L 767.781178 362.00094 
L 768.773884 339.689616 
L 769.76659 367.950469 
L 770.759295 361.203167 
L 771.752001 345.536335 
L 772.744707 389.055228 
L 773.737413 365.378072 
L 774.730119 355.819176 
L 775.722825 425.515292 
L 776.715531 373.424921 
L 777.708237 370.870593 
L 778.700943 405.732085 
L 779.693649 383.805915 
L 780.686355 384.183972 
L 781.679061 381.832944 
L 782.671767 395.904458 
L 783.664473 385.332344 
L 784.657178 371.838883 
L 785.649884 408.777232 
L 786.64259 379.1595 
L 787.635296 368.13619 
L 788.628002 423.38337 
L 789.620708 374.92745 
L 790.613414 369.381859 
L 791.60612 428.824195 
L 792.598826 374.1501 
L 793.591532 372.463798 
L 794.584238 420.95489 
L 795.576944 375.625836 
L 796.56965 375.778239 
L 797.562355 414.317264 
L 798.555061 377.92522 
L 799.547767 377.489919 
L 800.540473 409.302931 
L 801.533179 379.537154 
L 802.525885 379.021914 
L 803.518591 405.787584 
L 804.511297 381.02785 
L 805.504003 381.080189 
L 806.496709 399.992473 
L 807.489415 383.323583 
L 808.482121 385.655147 
L 809.474827 390.91781 
L 810.467532 388.317249 
L 811.460238 390.131979 
L 812.452944 380.668729 
L 813.44565 396.434067 
L 814.438356 389.442838 
L 815.431062 372.705311 
L 816.423768 405.855248 
L 817.416474 384.174203 
L 818.40918 368.2361 
L 819.401886 412.076445 
L 820.394592 381.253233 
L 821.387298 368.130842 
L 822.380004 409.93259 
L 823.372709 385.653945 
L 824.365415 370.273252 
L 825.358121 396.448141 
L 826.350827 399.979375 
L 827.343533 369.862193 
L 828.336239 380.160174 
L 829.328945 427.413304 
L 830.321651 362.385395 
L 831.314357 368.1451 
L 832.307063 412.218737 
L 833.299769 353.338652 
L 834.292475 363.428146 
L 835.285181 385.613063 
L 836.277886 347.093715 
L 837.270592 365.471496 
L 838.263298 367.997414 
L 839.256004 343.695004 
L 840.24871 372.75658 
L 841.241416 354.503438 
L 842.234122 342.598386 
L 843.226828 376.085223 
L 844.219534 343.792856 
L 845.21224 342.762597 
L 846.204946 368.370915 
L 847.197652 337.144169 
L 848.190358 345.120162 
L 849.183064 359.806366 
L 850.175769 335.445017 
L 851.168475 351.939853 
L 852.161181 357.31953 
L 853.153887 339.597903 
L 854.146593 368.888001 
L 855.139299 361.384969 
L 856.132005 351.355754 
L 857.124711 416.686988 
L 858.117417 368.638595 
L 859.110123 376.051756 
L 860.102829 402.877194 
L 861.095535 371.25162 
L 862.088241 455.415183 
L 863.080946 364.743591 
L 864.073652 368.858087 
L 865.066358 396.968419 
L 866.059064 350.951304 
L 867.05177 369.619895 
L 868.044476 371.179914 
L 869.037182 346.940912 
L 870.029888 379.243312 
L 871.022594 360.302452 
L 872.0153 349.848412 
L 873.008006 398.068392 
L 874.000712 354.164414 
L 874.993418 357.239187 
L 875.986123 394.885559 
L 876.978829 350.141492 
L 877.971535 367.188571 
L 878.964241 375.416128 
L 879.956947 348.659365 
L 880.949653 379.070792 
L 881.942359 366.444512 
L 882.935065 351.272248 
L 883.927771 396.043264 
L 884.920477 366.80233 
L 885.913183 358.995772 
L 886.905889 426.225424 
L 887.898595 375.414854 
L 888.8913 369.839848 
L 889.884006 414.352673 
L 890.876712 393.040098 
L 891.869418 376.810937 
L 892.862124 388.478301 
L 893.85483 421.271491 
L 894.847536 373.413218 
L 895.840242 376.953116 
L 896.832948 449.926476 
L 897.825654 368.81908 
L 898.81836 374.616348 
L 899.811066 439.226893 
L 900.803772 367.64353 
L 901.796477 378.99654 
L 902.789183 422.008092 
L 903.781889 370.394105 
L 904.774595 386.380772 
L 905.767301 410.935521 
L 906.760007 375.415062 
L 908.745419 406.49613 
L 909.738125 380.528573 
L 910.730831 389.191693 
L 911.723537 409.214766 
L 912.716243 382.464474 
L 913.708949 385.300661 
L 914.701655 416.156921 
L 915.69436 381.182755 
L 916.687066 382.735961 
L 917.679772 420.9163 
L 918.672478 380.374964 
L 919.665184 382.058622 
L 920.65789 419.436677 
L 921.650596 383.971105 
L 922.643302 381.992346 
L 923.636008 409.569007 
L 925.62142 376.823536 
L 926.614126 399.055745 
L 927.606832 401.228551 
L 928.599537 368.754221 
L 929.592243 392.413072 
L 930.584949 395.05927 
L 931.577655 362.677904 
L 932.570361 394.455549 
L 933.563067 381.691389 
L 934.555773 360.560719 
L 935.548479 412.326322 
L 936.541185 370.087459 
L 937.533891 363.264003 
L 938.526597 435.332931 
L 939.519303 359.504478 
L 940.512009 369.064828 
L 941.504714 388.716595 
L 942.49742 351.213017 
L 943.490126 373.989781 
L 944.482832 364.276184 
L 945.475538 345.859251 
L 946.468244 375.723419 
L 947.46095 352.179554 
L 948.453656 345.40347 
L 949.446362 378.594581 
L 950.439068 347.558041 
L 951.431774 350.85628 
L 952.42448 381.652679 
L 953.417186 347.772377 
L 954.409891 363.949146 
L 955.402597 375.024924 
L 956.395303 350.465137 
L 957.388009 386.124351 
L 958.380715 361.327947 
L 959.373421 353.058015 
L 960.366127 393.725721 
L 961.358833 350.622381 
L 962.351539 355.441519 
L 963.344245 379.298613 
L 964.336951 346.158735 
L 966.322363 373.974802 
L 967.315068 348.537929 
L 968.307774 372.882281 
L 969.30048 378.563662 
L 970.293186 357.777465 
L 971.285892 396.610707 
L 972.278598 391.599339 
L 973.271304 376.344967 
L 974.26401 399.935736 
L 975.256716 399.555326 
L 976.249422 402.714238 
L 977.242128 376.921019 
L 979.22754 406.23644 
L 980.220246 364.814653 
L 981.212951 385.926571 
L 982.205657 394.034281 
L 983.198363 361.500749 
L 984.191069 389.36805 
L 985.183775 391.169817 
L 986.176481 364.82456 
L 987.169187 399.909553 
L 988.161893 393.403124 
L 989.154599 373.183015 
L 990.147305 407.933238 
L 992.132717 383.510318 
L 993.125423 403.322922 
L 994.118128 394.632225 
L 995.110834 392.719706 
L 996.10354 397.841166 
L 997.096246 393.399886 
L 998.088952 396.884627 
L 999.081658 398.211292 
L 1000.074364 390.179747 
L 1002.059776 403.328929 
L 1003.052482 385.597873 
L 1004.045188 394.330847 
L 1005.037894 409.392839 
L 1006.0306 381.818615 
L 1007.023305 394.123242 
L 1008.016011 409.947797 
L 1009.008717 379.425564 
L 1010.001423 396.154605 
L 1010.994129 406.349635 
L 1011.986835 380.829688 
L 1012.979541 401.158109 
L 1013.972247 400.798915 
L 1014.964953 384.120448 
L 1015.957659 403.274687 
L 1016.950365 396.768506 
L 1017.943071 389.500357 
L 1018.935777 402.545285 
L 1019.928482 394.231346 
L 1020.921188 393.963602 
L 1021.913894 398.781935 
L 1022.9066 395.761148 
L 1023.899306 395.523522 
L 1024.892012 396.526268 
L 1025.884718 398.90271 
L 1026.877424 393.116503 
L 1027.87013 395.583691 
L 1028.862836 401.365431 
L 1029.855542 390.673473 
L 1030.848248 395.022181 
L 1031.840954 403.531522 
L 1032.833659 390.422845 
L 1033.826365 393.015916 
L 1034.819071 406.577222 
L 1035.811777 393.166877 
L 1036.804483 386.519162 
L 1037.797189 411.159836 
L 1038.789895 393.560917 
L 1039.782601 378.196486 
L 1040.775307 416.567066 
L 1041.768013 388.09214 
L 1042.760719 370.241112 
L 1043.753425 420.722023 
L 1044.746131 377.531835 
L 1045.738837 364.359295 
L 1046.731542 420.282198 
L 1047.724248 367.782606 
L 1048.716954 361.250235 
L 1049.70966 413.222201 
L 1050.702366 359.999268 
L 1051.695072 361.179204 
L 1052.687778 400.56241 
L 1053.680484 354.601369 
L 1054.67319 363.774143 
L 1055.665896 386.076405 
L 1056.658602 351.446806 
L 1057.651308 369.591 
L 1058.644014 374.141807 
L 1059.636719 350.253467 
L 1060.629425 377.186617 
L 1061.622131 365.742403 
L 1062.614837 351.252385 
L 1063.607543 388.21816 
L 1064.600249 361.192003 
L 1065.592955 355.476823 
L 1066.585661 403.580379 
L 1067.578367 359.598166 
L 1068.571073 363.320651 
L 1069.563779 411.199299 
L 1070.556485 360.799057 
L 1071.549191 377.568001 
L 1072.541896 397.862887 
L 1073.534602 364.050617 
L 1074.527308 403.089488 
L 1075.520014 381.719658 
L 1076.51272 368.782099 
L 1077.505426 468.421027 
L 1078.498132 371.605772 
L 1079.490838 375.733399 
L 1080.483544 425.894171 
L 1081.47625 366.595855 
L 1082.468956 387.424899 
L 1083.461662 395.933752 
L 1084.454368 366.445796 
L 1085.447073 409.186702 
L 1086.439779 382.714829 
L 1087.432485 371.51595 
L 1088.425191 487.809154 
L 1089.417897 374.62963 
L 1090.410603 382.687865 
L 1091.403309 415.271091 
L 1092.396015 368.893285 
L 1093.388721 401.30375 
L 1095.374133 364.810659 
L 1096.366839 422.584334 
L 1097.359545 368.437749 
L 1098.35225 363.639041 
L 1099.344956 416.680271 
L 1100.337662 360.401875 
L 1101.330368 364.806381 
L 1102.323074 403.099899 
L 1103.31578 357.658311 
L 1104.308486 370.38458 
L 1105.301192 396.661083 
L 1106.293898 359.121608 
L 1107.286604 379.967575 
L 1108.27931 395.046714 
L 1109.272016 364.333531 
L 1110.264722 394.57003 
L 1111.257428 397.163755 
L 1112.250133 372.537646 
L 1113.242839 406.939183 
L 1114.235545 400.244627 
L 1115.228251 383.337529 
L 1116.220957 403.236392 
L 1117.213663 404.093098 
L 1118.206369 391.935895 
L 1119.199075 393.201548 
L 1120.191781 410.087992 
L 1121.184487 393.620136 
L 1122.177193 387.482701 
L 1123.169899 416.379675 
L 1124.162605 391.138358 
L 1125.15531 385.63892 
L 1126.148016 421.715779 
L 1127.140722 388.974519 
L 1128.133428 387.625544 
L 1129.126134 419.422439 
L 1130.11884 389.170486 
L 1131.111546 389.220992 
L 1132.104252 415.903387 
L 1133.096958 391.512224 
L 1134.089664 389.406376 
L 1135.08237 412.173238 
L 1136.075076 394.416025 
L 1137.067782 387.232382 
L 1138.060487 411.68756 
L 1139.053193 396.498324 
L 1140.045899 384.317342 
L 1141.038605 412.875528 
L 1142.031311 395.949757 
L 1143.024017 383.123677 
L 1144.016723 416.241988 
L 1145.009429 394.163229 
L 1146.002135 384.377386 
L 1146.994841 415.160967 
L 1147.987547 393.558681 
L 1148.980253 388.421506 
L 1149.972959 410.925758 
L 1150.965664 394.939954 
L 1151.95837 393.910246 
L 1152.951076 402.942169 
L 1153.943782 395.611502 
L 1154.936488 400.412806 
L 1155.929194 397.482504 
L 1156.9219 395.071139 
L 1157.914606 406.834009 
L 1158.907312 394.246525 
L 1159.900018 390.04527 
L 1160.892724 415.400615 
L 1161.88543 391.742824 
L 1162.878136 382.755187 
L 1163.870841 430.334881 
L 1164.863547 386.48045 
L 1165.856253 375.048557 
L 1166.848959 449.113276 
L 1167.841665 377.173508 
L 1168.834371 369.609349 
L 1169.827077 446.21733 
L 1170.819783 369.019519 
L 1171.812489 368.066978 
L 1172.805195 429.580979 
L 1173.797901 364.33931 
L 1174.790607 372.173576 
L 1175.783313 409.237151 
L 1176.776019 362.207466 
L 1177.768724 383.63161 
L 1178.76143 389.301014 
L 1179.754136 362.856195 
L 1180.746842 407.1109 
L 1181.739548 373.596484 
L 1182.732254 364.881807 
L 1183.72496 428.556839 
L 1184.717666 363.478826 
L 1185.710372 369.788626 
L 1186.703078 402.372065 
L 1187.695784 359.236727 
L 1188.68849 380.224322 
L 1189.681196 385.497725 
L 1190.673901 360.846974 
L 1191.666607 403.712865 
L 1192.659313 376.497494 
L 1193.652019 368.918815 
L 1194.644725 483.438112 
L 1195.637431 371.158563 
L 1197.622843 400.628591 
L 1198.615549 366.803967 
L 1199.608255 414.316998 
L 1200.600961 373.980044 
L 1201.593667 365.249032 
L 1202.586373 423.204302 
L 1203.579078 362.109355 
L 1204.571784 368.147336 
L 1205.56449 399.487335 
L 1206.557196 357.894289 
L 1207.549902 377.376786 
L 1208.542608 385.290541 
L 1209.535314 359.175525 
L 1210.52802 397.801491 
L 1211.520726 375.37073 
L 1212.513432 364.664523 
L 1213.506138 437.07698 
L 1214.498844 368.78077 
L 1215.49155 373.053315 
L 1216.484255 422.931288 
L 1217.476961 365.646055 
L 1219.462373 400.599111 
L 1220.455079 366.705245 
L 1221.447785 397.285513 
L 1222.440491 395.324031 
L 1223.433197 371.624287 
L 1224.425903 407.912162 
L 1225.418609 399.531896 
L 1226.411315 378.202055 
L 1227.404021 402.377075 
L 1228.396727 412.429577 
L 1229.389432 382.447648 
L 1230.382138 390.896939 
L 1231.374844 432.262195 
L 1232.36755 381.301909 
L 1233.360256 384.26163 
L 1234.352962 452.155557 
L 1235.345668 377.990703 
L 1236.338374 382.602709 
L 1237.33108 449.331904 
L 1238.323786 377.383265 
L 1239.316492 385.59098 
L 1240.309198 435.76975 
L 1241.301904 380.212233 
L 1242.29461 389.357115 
L 1243.287315 426.357052 
L 1244.280021 385.319988 
L 1245.272727 389.563201 
L 1245.272727 389.563201 
" clip-path="url(#p4413d2576a)" style="fill: none; stroke: #1f77b4; stroke-width: 1.5; stroke-linecap: square"/>
   </g>
   <g id="patch_3">
    <path d="M 180 512.64 
L 180 69.12 
" style="fill: none; stroke: #000000; stroke-width: 0.8; stroke-linejoin: miter; stroke-linecap: square"/>
   </g>
   <g id="patch_4">
    <path d="M 1296 512.64 
L 1296 69.12 
" style="fill: none; stroke: #000000; stroke-width: 0.8; stroke-linejoin: miter; stroke-linecap: square"/>
   </g>
   <g id="patch_5">
    <path d="M 180 512.64 
L 1296 512.64 
" style="fill: none; stroke: #000000; stroke-width: 0.8; stroke-linejoin: miter; stroke-linecap: square"/>
   </g>
   <g id="patch_6">
    <path d="M 180 69.12 
L 1296 69.12 
" style="fill: none; stroke: #000000; stroke-width: 0.8; stroke-linejoin: miter; stroke-linecap: square"/>
   </g>
   <g id="text_13">
    <!-- source13-receiver9 -->
    <g transform="translate(544.9 60.80125) scale(0.4 -0.4)">
     <defs>
      <path id="DejaVuSans-73" d="M 2834 3397 
L 2834 2853 
Q 2591 2978 2328 3040 
Q 2066 3103 1784 3103 
Q 1356 3103 1142 2972 
Q 928 2841 928 2578 
Q 928 2378 1081 2264 
Q 1234 2150 1697 2047 
L 1894 2003 
Q 2506 1872 2764 1633 
Q 3022 1394 3022 966 
Q 3022 478 2636 193 
Q 2250 -91 1575 -91 
Q 1294 -91 989 -36 
Q 684 19 347 128 
L 347 722 
Q 666 556 975 473 
Q 1284 391 1588 391 
Q 1994 391 2212 530 
Q 2431 669 2431 922 
Q 2431 1156 2273 1281 
Q 2116 1406 1581 1522 
L 1381 1569 
Q 847 1681 609 1914 
Q 372 2147 372 2553 
Q 372 3047 722 3315 
Q 1072 3584 1716 3584 
Q 2034 3584 2315 3537 
Q 2597 3491 2834 3397 
z
" transform="scale(0.015625)"/>
      <path id="DejaVuSans-6f" d="M 1959 3097 
Q 1497 3097 1228 2736 
Q 959 2375 959 1747 
Q 959 1119 1226 758 
Q 1494 397 1959 397 
Q 2419 397 2687 759 
Q 2956 1122 2956 1747 
Q 2956 2369 2687 2733 
Q 2419 3097 1959 3097 
z
M 1959 3584 
Q 2709 3584 3137 3096 
Q 3566 2609 3566 1747 
Q 3566 888 3137 398 
Q 2709 -91 1959 -91 
Q 1206 -91 779 398 
Q 353 888 353 1747 
Q 353 2609 779 3096 
Q 1206 3584 1959 3584 
z
" transform="scale(0.015625)"/>
      <path id="DejaVuSans-75" d="M 544 1381 
L 544 3500 
L 1119 3500 
L 1119 1403 
Q 1119 906 1312 657 
Q 1506 409 1894 409 
Q 2359 409 2629 706 
Q 2900 1003 2900 1516 
L 2900 3500 
L 3475 3500 
L 3475 0 
L 2900 0 
L 2900 538 
Q 2691 219 2414 64 
Q 2138 -91 1772 -91 
Q 1169 -91 856 284 
Q 544 659 544 1381 
z
M 1991 3584 
L 1991 3584 
z
" transform="scale(0.015625)"/>
      <path id="DejaVuSans-72" d="M 2631 2963 
Q 2534 3019 2420 3045 
Q 2306 3072 2169 3072 
Q 1681 3072 1420 2755 
Q 1159 2438 1159 1844 
L 1159 0 
L 581 0 
L 581 3500 
L 1159 3500 
L 1159 2956 
Q 1341 3275 1631 3429 
Q 1922 3584 2338 3584 
Q 2397 3584 2469 3576 
Q 2541 3569 2628 3553 
L 2631 2963 
z
" transform="scale(0.015625)"/>
      <path id="DejaVuSans-63" d="M 3122 3366 
L 3122 2828 
Q 2878 2963 2633 3030 
Q 2388 3097 2138 3097 
Q 1578 3097 1268 2742 
Q 959 2388 959 1747 
Q 959 1106 1268 751 
Q 1578 397 2138 397 
Q 2388 397 2633 464 
Q 2878 531 3122 666 
L 3122 134 
Q 2881 22 2623 -34 
Q 2366 -91 2075 -91 
Q 1284 -91 818 406 
Q 353 903 353 1747 
Q 353 2603 823 3093 
Q 1294 3584 2113 3584 
Q 2378 3584 2631 3529 
Q 2884 3475 3122 3366 
z
" transform="scale(0.015625)"/>
      <path id="DejaVuSans-65" d="M 3597 1894 
L 3597 1613 
L 953 1613 
Q 991 1019 1311 708 
Q 1631 397 2203 397 
Q 2534 397 2845 478 
Q 3156 559 3463 722 
L 3463 178 
Q 3153 47 2828 -22 
Q 2503 -91 2169 -91 
Q 1331 -91 842 396 
Q 353 884 353 1716 
Q 353 2575 817 3079 
Q 1281 3584 2069 3584 
Q 2775 3584 3186 3129 
Q 3597 2675 3597 1894 
z
M 3022 2063 
Q 3016 2534 2758 2815 
Q 2500 3097 2075 3097 
Q 1594 3097 1305 2825 
Q 1016 2553 972 2059 
L 3022 2063 
z
" transform="scale(0.015625)"/>
      <path id="DejaVuSans-33" d="M 2597 2516 
Q 3050 2419 3304 2112 
Q 3559 1806 3559 1356 
Q 3559 666 3084 287 
Q 2609 -91 1734 -91 
Q 1441 -91 1130 -33 
Q 819 25 488 141 
L 488 750 
Q 750 597 1062 519 
Q 1375 441 1716 441 
Q 2309 441 2620 675 
Q 2931 909 2931 1356 
Q 2931 1769 2642 2001 
Q 2353 2234 1838 2234 
L 1294 2234 
L 1294 2753 
L 1863 2753 
Q 2328 2753 2575 2939 
Q 2822 3125 2822 3475 
Q 2822 3834 2567 4026 
Q 2313 4219 1838 4219 
Q 1578 4219 1281 4162 
Q 984 4106 628 3988 
L 628 4550 
Q 988 4650 1302 4700 
Q 1616 4750 1894 4750 
Q 2613 4750 3031 4423 
Q 3450 4097 3450 3541 
Q 3450 3153 3228 2886 
Q 3006 2619 2597 2516 
z
" transform="scale(0.015625)"/>
      <path id="DejaVuSans-2d" d="M 313 2009 
L 1997 2009 
L 1997 1497 
L 313 1497 
L 313 2009 
z
" transform="scale(0.015625)"/>
      <path id="DejaVuSans-69" d="M 603 3500 
L 1178 3500 
L 1178 0 
L 603 0 
L 603 3500 
z
M 603 4863 
L 1178 4863 
L 1178 4134 
L 603 4134 
L 603 4863 
z
" transform="scale(0.015625)"/>
      <path id="DejaVuSans-76" d="M 191 3500 
L 800 3500 
L 1894 563 
L 2988 3500 
L 3597 3500 
L 2284 0 
L 1503 0 
L 191 3500 
z
" transform="scale(0.015625)"/>
      <path id="DejaVuSans-39" d="M 703 97 
L 703 672 
Q 941 559 1184 500 
Q 1428 441 1663 441 
Q 2288 441 2617 861 
Q 2947 1281 2994 2138 
Q 2813 1869 2534 1725 
Q 2256 1581 1919 1581 
Q 1219 1581 811 2004 
Q 403 2428 403 3163 
Q 403 3881 828 4315 
Q 1253 4750 1959 4750 
Q 2769 4750 3195 4129 
Q 3622 3509 3622 2328 
Q 3622 1225 3098 567 
Q 2575 -91 1691 -91 
Q 1453 -91 1209 -44 
Q 966 3 703 97 
z
M 1959 2075 
Q 2384 2075 2632 2365 
Q 2881 2656 2881 3163 
Q 2881 3666 2632 3958 
Q 2384 4250 1959 4250 
Q 1534 4250 1286 3958 
Q 1038 3666 1038 3163 
Q 1038 2656 1286 2365 
Q 1534 2075 1959 2075 
z
" transform="scale(0.015625)"/>
     </defs>
     <use xlink:href="#DejaVuSans-73"/>
     <use xlink:href="#DejaVuSans-6f" x="52.099609"/>
     <use xlink:href="#DejaVuSans-75" x="113.28125"/>
     <use xlink:href="#DejaVuSans-72" x="176.660156"/>
     <use xlink:href="#DejaVuSans-63" x="215.523438"/>
     <use xlink:href="#DejaVuSans-65" x="270.503906"/>
     <use xlink:href="#DejaVuSans-31" x="332.027344"/>
     <use xlink:href="#DejaVuSans-33" x="395.650391"/>
     <use xlink:href="#DejaVuSans-2d" x="459.273438"/>
     <use xlink:href="#DejaVuSans-72" x="495.357422"/>
     <use xlink:href="#DejaVuSans-65" x="534.220703"/>
     <use xlink:href="#DejaVuSans-63" x="595.744141"/>
     <use xlink:href="#DejaVuSans-65" x="650.724609"/>
     <use xlink:href="#DejaVuSans-69" x="712.248047"/>
     <use xlink:href="#DejaVuSans-76" x="740.03125"/>
     <use xlink:href="#DejaVuSans-65" x="799.210938"/>
     <use xlink:href="#DejaVuSans-72" x="860.734375"/>
     <use xlink:href="#DejaVuSans-39" x="901.847656"/>
    </g>
   </g>
  </g>
 </g>
 <defs>
  <clipPath id="p4413d2576a">
   <rect x="180" y="69.12" width="1116" height="443.52"/>
  </clipPath>
 </defs>
</svg>
