<?xml version="1.0" encoding="utf-8" standalone="no"?>
<!DOCTYPE svg PUBLIC "-//W3C//DTD SVG 1.1//EN"
  "http://www.w3.org/Graphics/SVG/1.1/DTD/svg11.dtd">
<svg xmlns:xlink="http://www.w3.org/1999/xlink" width="1440pt" height="576pt" viewBox="0 0 1440 576" xmlns="http://www.w3.org/2000/svg" version="1.1">
 <metadata>
  <rdf:RDF xmlns:dc="http://purl.org/dc/elements/1.1/" xmlns:cc="http://creativecommons.org/ns#" xmlns:rdf="http://www.w3.org/1999/02/22-rdf-syntax-ns#">
   <cc:Work>
    <dc:type rdf:resource="http://purl.org/dc/dcmitype/StillImage"/>
    <dc:date>2024-05-22T04:49:51.474916</dc:date>
    <dc:format>image/svg+xml</dc:format>
    <dc:creator>
     <cc:Agent>
      <dc:title>Matplotlib v3.8.3, https://matplotlib.org/</dc:title>
     </cc:Agent>
    </dc:creator>
   </cc:Work>
  </rdf:RDF>
 </metadata>
 <defs>
  <style type="text/css">*{stroke-linejoin: round; stroke-linecap: butt}</style>
 </defs>
 <g id="figure_1">
  <g id="patch_1">
   <path d="M 0 576 
L 1440 576 
L 1440 0 
L 0 0 
z
" style="fill: #ffffff"/>
  </g>
  <g id="axes_1">
   <g id="patch_2">
    <path d="M 180 512.64 
L 1296 512.64 
L 1296 69.12 
L 180 69.12 
z
" style="fill: #ffffff"/>
   </g>
   <g id="matplotlib.axis_1">
    <g id="xtick_1">
     <g id="line2d_1">
      <defs>
       <path id="mc0706c5896" d="M 0 0 
L 0 3.5 
" style="stroke: #000000; stroke-width: 0.8"/>
      </defs>
      <g>
       <use xlink:href="#mc0706c5896" x="229.734567" y="512.64" style="stroke: #000000; stroke-width: 0.8"/>
      </g>
     </g>
     <g id="text_1">
      <!-- 0 -->
      <g transform="translate(226.553317 527.238438) scale(0.1 -0.1)">
       <defs>
        <path id="DejaVuSans-30" d="M 2034 4250 
Q 1547 4250 1301 3770 
Q 1056 3291 1056 2328 
Q 1056 1369 1301 889 
Q 1547 409 2034 409 
Q 2525 409 2770 889 
Q 3016 1369 3016 2328 
Q 3016 3291 2770 3770 
Q 2525 4250 2034 4250 
z
M 2034 4750 
Q 2819 4750 3233 4129 
Q 3647 3509 3647 2328 
Q 3647 1150 3233 529 
Q 2819 -91 2034 -91 
Q 1250 -91 836 529 
Q 422 1150 422 2328 
Q 422 3509 836 4129 
Q 1250 4750 2034 4750 
z
" transform="scale(0.015625)"/>
       </defs>
       <use xlink:href="#DejaVuSans-30"/>
      </g>
     </g>
    </g>
    <g id="xtick_2">
     <g id="line2d_2">
      <g>
       <use xlink:href="#mc0706c5896" x="433.04074" y="512.64" style="stroke: #000000; stroke-width: 0.8"/>
      </g>
     </g>
     <g id="text_2">
      <!-- 500 -->
      <g transform="translate(423.49699 527.238438) scale(0.1 -0.1)">
       <defs>
        <path id="DejaVuSans-35" d="M 691 4666 
L 3169 4666 
L 3169 4134 
L 1269 4134 
L 1269 2991 
Q 1406 3038 1543 3061 
Q 1681 3084 1819 3084 
Q 2600 3084 3056 2656 
Q 3513 2228 3513 1497 
Q 3513 744 3044 326 
Q 2575 -91 1722 -91 
Q 1428 -91 1123 -41 
Q 819 9 494 109 
L 494 744 
Q 775 591 1075 516 
Q 1375 441 1709 441 
Q 2250 441 2565 725 
Q 2881 1009 2881 1497 
Q 2881 1984 2565 2268 
Q 2250 2553 1709 2553 
Q 1456 2553 1204 2497 
Q 953 2441 691 2322 
L 691 4666 
z
" transform="scale(0.015625)"/>
       </defs>
       <use xlink:href="#DejaVuSans-35"/>
       <use xlink:href="#DejaVuSans-30" x="63.623047"/>
       <use xlink:href="#DejaVuSans-30" x="127.246094"/>
      </g>
     </g>
    </g>
    <g id="xtick_3">
     <g id="line2d_3">
      <g>
       <use xlink:href="#mc0706c5896" x="636.346913" y="512.64" style="stroke: #000000; stroke-width: 0.8"/>
      </g>
     </g>
     <g id="text_3">
      <!-- 1000 -->
      <g transform="translate(623.621913 527.238438) scale(0.1 -0.1)">
       <defs>
        <path id="DejaVuSans-31" d="M 794 531 
L 1825 531 
L 1825 4091 
L 703 3866 
L 703 4441 
L 1819 4666 
L 2450 4666 
L 2450 531 
L 3481 531 
L 3481 0 
L 794 0 
L 794 531 
z
" transform="scale(0.015625)"/>
       </defs>
       <use xlink:href="#DejaVuSans-31"/>
       <use xlink:href="#DejaVuSans-30" x="63.623047"/>
       <use xlink:href="#DejaVuSans-30" x="127.246094"/>
       <use xlink:href="#DejaVuSans-30" x="190.869141"/>
      </g>
     </g>
    </g>
    <g id="xtick_4">
     <g id="line2d_4">
      <g>
       <use xlink:href="#mc0706c5896" x="839.653087" y="512.64" style="stroke: #000000; stroke-width: 0.8"/>
      </g>
     </g>
     <g id="text_4">
      <!-- 1500 -->
      <g transform="translate(826.928087 527.238438) scale(0.1 -0.1)">
       <use xlink:href="#DejaVuSans-31"/>
       <use xlink:href="#DejaVuSans-35" x="63.623047"/>
       <use xlink:href="#DejaVuSans-30" x="127.246094"/>
       <use xlink:href="#DejaVuSans-30" x="190.869141"/>
      </g>
     </g>
    </g>
    <g id="xtick_5">
     <g id="line2d_5">
      <g>
       <use xlink:href="#mc0706c5896" x="1042.95926" y="512.64" style="stroke: #000000; stroke-width: 0.8"/>
      </g>
     </g>
     <g id="text_5">
      <!-- 2000 -->
      <g transform="translate(1030.23426 527.238438) scale(0.1 -0.1)">
       <defs>
        <path id="DejaVuSans-32" d="M 1228 531 
L 3431 531 
L 3431 0 
L 469 0 
L 469 531 
Q 828 903 1448 1529 
Q 2069 2156 2228 2338 
Q 2531 2678 2651 2914 
Q 2772 3150 2772 3378 
Q 2772 3750 2511 3984 
Q 2250 4219 1831 4219 
Q 1534 4219 1204 4116 
Q 875 4013 500 3803 
L 500 4441 
Q 881 4594 1212 4672 
Q 1544 4750 1819 4750 
Q 2544 4750 2975 4387 
Q 3406 4025 3406 3419 
Q 3406 3131 3298 2873 
Q 3191 2616 2906 2266 
Q 2828 2175 2409 1742 
Q 1991 1309 1228 531 
z
" transform="scale(0.015625)"/>
       </defs>
       <use xlink:href="#DejaVuSans-32"/>
       <use xlink:href="#DejaVuSans-30" x="63.623047"/>
       <use xlink:href="#DejaVuSans-30" x="127.246094"/>
       <use xlink:href="#DejaVuSans-30" x="190.869141"/>
      </g>
     </g>
    </g>
    <g id="xtick_6">
     <g id="line2d_6">
      <g>
       <use xlink:href="#mc0706c5896" x="1246.265433" y="512.64" style="stroke: #000000; stroke-width: 0.8"/>
      </g>
     </g>
     <g id="text_6">
      <!-- 2500 -->
      <g transform="translate(1233.540433 527.238438) scale(0.1 -0.1)">
       <use xlink:href="#DejaVuSans-32"/>
       <use xlink:href="#DejaVuSans-35" x="63.623047"/>
       <use xlink:href="#DejaVuSans-30" x="127.246094"/>
       <use xlink:href="#DejaVuSans-30" x="190.869141"/>
      </g>
     </g>
    </g>
   </g>
   <g id="matplotlib.axis_2">
    <g id="ytick_1">
     <g id="line2d_7">
      <defs>
       <path id="m171ad2a651" d="M 0 0 
L -3.5 0 
" style="stroke: #000000; stroke-width: 0.8"/>
      </defs>
      <g>
       <use xlink:href="#m171ad2a651" x="180" y="487.142601" style="stroke: #000000; stroke-width: 0.8"/>
      </g>
     </g>
     <g id="text_7">
      <!-- −4 -->
      <g transform="translate(158.257812 490.94182) scale(0.1 -0.1)">
       <defs>
        <path id="DejaVuSans-2212" d="M 678 2272 
L 4684 2272 
L 4684 1741 
L 678 1741 
L 678 2272 
z
" transform="scale(0.015625)"/>
        <path id="DejaVuSans-34" d="M 2419 4116 
L 825 1625 
L 2419 1625 
L 2419 4116 
z
M 2253 4666 
L 3047 4666 
L 3047 1625 
L 3713 1625 
L 3713 1100 
L 3047 1100 
L 3047 0 
L 2419 0 
L 2419 1100 
L 313 1100 
L 313 1709 
L 2253 4666 
z
" transform="scale(0.015625)"/>
       </defs>
       <use xlink:href="#DejaVuSans-2212"/>
       <use xlink:href="#DejaVuSans-34" x="83.789062"/>
      </g>
     </g>
    </g>
    <g id="ytick_2">
     <g id="line2d_8">
      <g>
       <use xlink:href="#m171ad2a651" x="180" y="395.200899" style="stroke: #000000; stroke-width: 0.8"/>
      </g>
     </g>
     <g id="text_8">
      <!-- −2 -->
      <g transform="translate(158.257812 399.000118) scale(0.1 -0.1)">
       <use xlink:href="#DejaVuSans-2212"/>
       <use xlink:href="#DejaVuSans-32" x="83.789062"/>
      </g>
     </g>
    </g>
    <g id="ytick_3">
     <g id="line2d_9">
      <g>
       <use xlink:href="#m171ad2a651" x="180" y="303.259197" style="stroke: #000000; stroke-width: 0.8"/>
      </g>
     </g>
     <g id="text_9">
      <!-- 0 -->
      <g transform="translate(166.6375 307.058416) scale(0.1 -0.1)">
       <use xlink:href="#DejaVuSans-30"/>
      </g>
     </g>
    </g>
    <g id="ytick_4">
     <g id="line2d_10">
      <g>
       <use xlink:href="#m171ad2a651" x="180" y="211.317495" style="stroke: #000000; stroke-width: 0.8"/>
      </g>
     </g>
     <g id="text_10">
      <!-- 2 -->
      <g transform="translate(166.6375 215.116714) scale(0.1 -0.1)">
       <use xlink:href="#DejaVuSans-32"/>
      </g>
     </g>
    </g>
    <g id="ytick_5">
     <g id="line2d_11">
      <g>
       <use xlink:href="#m171ad2a651" x="180" y="119.375794" style="stroke: #000000; stroke-width: 0.8"/>
      </g>
     </g>
     <g id="text_11">
      <!-- 4 -->
      <g transform="translate(166.6375 123.175012) scale(0.1 -0.1)">
       <use xlink:href="#DejaVuSans-34"/>
      </g>
     </g>
    </g>
   </g>
   <g id="line2d_12">
    <path d="M 230.727273 440.449585 
L 231.719979 434.85235 
L 232.712685 427.198986 
L 233.70539 421.418832 
L 234.698096 412.981762 
L 235.690802 408.141033 
L 236.683508 401.020438 
L 238.66892 390.811356 
L 239.661626 386.559196 
L 240.654332 381.558308 
L 242.639744 374.406356 
L 243.63245 374.784102 
L 244.625156 369.712541 
L 245.617862 376.56411 
L 246.610568 367.2578 
L 247.603273 340.38644 
L 248.595979 332.427943 
L 249.588685 277.947593 
L 250.581391 253.413093 
L 251.574097 204.856756 
L 252.566803 175.369136 
L 253.559509 171.71882 
L 255.544921 234.156783 
L 256.537627 184.322153 
L 257.530333 178.572643 
L 258.523039 170.225575 
L 259.515745 149.051505 
L 260.50845 156.308044 
L 261.501156 236.258359 
L 262.493862 194.850689 
L 263.486568 228.959927 
L 264.479274 155.481645 
L 265.47198 163.854043 
L 266.464686 169.228738 
L 267.457392 176.156197 
L 268.450098 165.201778 
L 269.442804 125.288999 
L 270.43551 137.346043 
L 271.428216 181.698099 
L 272.420922 176.417799 
L 273.413627 146.822236 
L 274.406333 146.593011 
L 275.399039 138.116389 
L 276.391745 107.349688 
L 277.384451 99.899502 
L 278.377157 106.070921 
L 279.369863 123.732006 
L 280.362569 145.303612 
L 281.355275 133.750107 
L 282.347981 120.754183 
L 283.340687 121.189398 
L 284.333393 114.249959 
L 285.326099 91.134219 
L 286.318804 89.28 
L 287.31151 120.944889 
L 288.304216 126.176437 
L 289.296922 107.768168 
L 290.289628 123.234697 
L 291.282334 127.846487 
L 292.27504 136.126473 
L 293.267746 164.406962 
L 294.260452 145.977378 
L 295.253158 152.026758 
L 296.245864 169.679799 
L 297.23857 162.994974 
L 298.231276 160.348711 
L 299.223981 175.388702 
L 300.216687 195.054935 
L 301.209393 217.365783 
L 302.202099 194.233351 
L 303.194805 207.067992 
L 304.187511 274.758473 
L 305.180217 227.316535 
L 306.172923 245.584234 
L 307.165629 277.259254 
L 308.158335 254.650186 
L 309.151041 266.771452 
L 310.143747 314.457002 
L 311.136453 346.228839 
L 312.129159 311.979453 
L 313.121864 313.888871 
L 314.11457 397.719508 
L 315.107276 357.675661 
L 316.099982 343.032547 
L 317.092688 375.451127 
L 318.085394 360.620252 
L 319.0781 414.088779 
L 320.070806 343.484435 
L 321.063512 387.665984 
L 322.056218 355.331982 
L 323.048924 367.930129 
L 324.04163 359.945643 
L 325.034336 371.774626 
L 326.027041 370.188866 
L 327.019747 359.668318 
L 328.012453 397.714253 
L 329.005159 353.399625 
L 329.997865 373.997487 
L 330.990571 366.489855 
L 331.983277 385.060212 
L 332.975983 378.460872 
L 333.968689 405.688371 
L 334.961395 347.904977 
L 335.954101 379.978088 
L 336.946807 376.863977 
L 337.939513 435.174934 
L 338.932218 368.259309 
L 339.924924 383.351226 
L 340.91763 364.146689 
L 341.910336 432.542696 
L 342.903042 367.449458 
L 343.895748 388.829895 
L 344.888454 368.93615 
L 345.88116 383.252512 
L 346.873866 368.654285 
L 347.866572 386.099705 
L 348.859278 384.479816 
L 349.851984 394.579572 
L 350.84469 355.492215 
L 351.837395 409.070451 
L 352.830101 352.360092 
L 353.822807 356.244426 
L 354.815513 403.026542 
L 355.808219 364.277901 
L 356.800925 409.248252 
L 357.793631 365.966901 
L 358.786337 396.757078 
L 359.779043 396.528469 
L 360.771749 361.004794 
L 361.764455 391.865339 
L 362.757161 397.898343 
L 363.749867 378.220397 
L 364.742572 386.715083 
L 365.735278 383.857832 
L 366.727984 385.16072 
L 367.72069 393.610067 
L 368.713396 381.972566 
L 369.706102 399.896411 
L 370.698808 387.73464 
L 371.691514 404.714087 
L 372.68422 370.237842 
L 373.676926 402.916839 
L 374.669632 391.626825 
L 375.662338 407.453647 
L 376.655044 384.664085 
L 377.64775 414.96068 
L 378.640455 411.645273 
L 379.633161 392.171783 
L 380.625867 403.120235 
L 381.618573 391.173551 
L 382.611279 384.485258 
L 383.603985 389.199762 
L 384.596691 397.070949 
L 385.589397 395.953908 
L 386.582103 395.37803 
L 387.574809 389.803481 
L 388.567515 407.817432 
L 389.560221 383.241516 
L 390.552927 402.495465 
L 391.545632 407.327761 
L 393.531044 392.767388 
L 394.52375 411.77882 
L 395.516456 402.043185 
L 396.509162 421.930049 
L 397.501868 403.133732 
L 398.494574 400.54713 
L 399.48728 406.986934 
L 400.479986 398.700657 
L 401.472692 386.478878 
L 402.465398 399.078239 
L 403.458104 401.339197 
L 404.450809 382.265513 
L 405.443515 391.278315 
L 406.436221 385.911634 
L 407.428927 386.748168 
L 408.421633 403.929272 
L 409.414339 385.605916 
L 410.407045 394.862731 
L 411.399751 410.50919 
L 412.392457 395.646088 
L 413.385163 400.705932 
L 414.377869 406.806884 
L 416.363281 409.441613 
L 417.355986 397.979964 
L 418.348692 396.732999 
L 419.341398 418.588046 
L 420.334104 409.908552 
L 421.32681 390.928697 
L 422.319516 421.545268 
L 423.312222 419.968333 
L 424.304928 386.454495 
L 425.297634 413.30398 
L 426.29034 398.023277 
L 427.283046 396.459668 
L 428.275752 396.337137 
L 429.268458 397.677624 
L 430.261163 419.790281 
L 431.253869 397.988638 
L 432.246575 408.090766 
L 433.239281 419.854806 
L 434.231987 417.871755 
L 435.224693 400.737096 
L 436.217399 424.303132 
L 437.210105 390.614333 
L 438.202811 417.604884 
L 439.195517 392.544387 
L 441.180929 406.733035 
L 442.173635 419.260007 
L 443.166341 427.629159 
L 444.159046 400.627598 
L 445.151752 410.744588 
L 446.144458 427.917457 
L 447.137164 408.205535 
L 448.12987 397.544711 
L 450.115282 419.777312 
L 451.107988 414.6985 
L 452.100694 412.37468 
L 453.0934 443.22743 
L 454.086106 417.549536 
L 455.078812 401.246083 
L 456.071518 417.432477 
L 457.064223 446.757494 
L 458.056929 425.579918 
L 459.049635 426.973861 
L 460.042341 408.986637 
L 461.035047 430.621646 
L 462.027753 417.93349 
L 463.020459 402.841444 
L 464.013165 422.20895 
L 465.005871 415.989837 
L 465.998577 412.077195 
L 466.991283 424.305211 
L 467.983989 419.877213 
L 468.976695 422.231819 
L 469.9694 481.048616 
L 470.962106 408.633969 
L 471.954812 408.786832 
L 472.947518 445.173351 
L 473.940224 413.962298 
L 474.93293 408.240862 
L 475.925636 413.14186 
L 476.918342 416.384221 
L 477.911048 446.123599 
L 478.903754 410.42864 
L 479.89646 410.975026 
L 480.889166 423.196318 
L 481.881872 418.275184 
L 482.874577 418.613146 
L 483.867283 400.769992 
L 484.859989 430.961497 
L 485.852695 418.188527 
L 486.845401 418.614248 
L 487.838107 418.431428 
L 488.830813 411.58138 
L 489.823519 401.481578 
L 490.816225 414.76525 
L 491.808931 396.786908 
L 492.801637 408.14014 
L 493.794343 434.301927 
L 494.787049 422.617241 
L 495.779754 402.906376 
L 496.77246 431.495469 
L 497.765166 436.693152 
L 498.757872 413.056888 
L 499.750578 444.790189 
L 500.743284 406.02325 
L 501.73599 478.509634 
L 502.728696 455.589836 
L 503.721402 420.316734 
L 504.714108 444.658727 
L 505.706814 422.741895 
L 506.69952 425.827762 
L 507.692226 466.448372 
L 508.684932 444.004187 
L 509.677637 426.956638 
L 510.670343 407.779728 
L 511.663049 461.581118 
L 512.655755 414.749775 
L 513.648461 416.255337 
L 514.641167 476.767967 
L 515.633873 412.596848 
L 516.626579 421.173898 
L 517.619285 423.543577 
L 518.611991 436.78623 
L 519.604697 417.691674 
L 520.597403 410.650431 
L 521.590109 423.35395 
L 522.582814 420.173575 
L 523.57552 424.300532 
L 524.568226 423.590401 
L 525.560932 445.687526 
L 526.553638 451.736365 
L 527.546344 414.290559 
L 528.53905 423.667679 
L 529.531756 402.456208 
L 530.524462 409.85364 
L 531.517168 418.535489 
L 532.509874 446.386273 
L 533.50258 413.892278 
L 534.495286 418.44379 
L 535.487991 440.915957 
L 536.480697 416.759862 
L 537.473403 424.912942 
L 538.466109 413.353873 
L 539.458815 432.009357 
L 540.451521 428.006308 
L 541.444227 408.693587 
L 542.436933 437.486298 
L 543.429639 414.893953 
L 544.422345 486.834237 
L 545.415051 408.038308 
L 546.407757 425.569555 
L 547.400463 439.368058 
L 549.385874 407.652583 
L 550.37858 418.921696 
L 551.371286 426.990161 
L 552.363992 410.430939 
L 553.356698 422.100023 
L 554.349404 424.812017 
L 555.34211 430.333017 
L 556.334816 428.592512 
L 557.327522 448.555515 
L 558.320228 430.411553 
L 559.312934 425.274639 
L 560.30564 475.662078 
L 561.298345 434.713355 
L 562.291051 408.176658 
L 563.283757 436.6238 
L 564.276463 407.011481 
L 565.269169 419.869955 
L 566.261875 422.012191 
L 567.254581 440.764774 
L 568.247287 422.447051 
L 569.239993 426.139936 
L 570.232699 492.48 
L 571.225405 456.513571 
L 572.218111 452.596579 
L 573.210817 432.10282 
L 574.203523 432.372628 
L 575.196228 403.82883 
L 576.188934 463.800944 
L 577.18164 423.581185 
L 578.174346 443.267284 
L 579.167052 457.443041 
L 580.159758 433.370871 
L 581.152464 422.614744 
L 582.14517 434.774296 
L 583.137876 431.784614 
L 584.130582 429.476471 
L 585.123288 448.813077 
L 586.115994 426.90357 
L 587.1087 419.592686 
L 588.101405 431.896013 
L 589.094111 431.073258 
L 590.086817 422.233275 
L 591.079523 444.88437 
L 592.072229 412.431106 
L 593.064935 434.458142 
L 594.057641 424.827757 
L 595.050347 425.093638 
L 596.043053 417.968226 
L 598.028465 438.886324 
L 599.021171 433.234713 
L 600.013877 431.890791 
L 601.006582 422.874332 
L 601.999288 447.888838 
L 602.991994 462.478633 
L 603.9847 430.440631 
L 604.977406 437.856881 
L 605.970112 430.189772 
L 606.962818 466.276539 
L 607.955524 420.599746 
L 608.94823 442.971473 
L 609.940936 444.693652 
L 610.933642 426.193638 
L 611.926348 440.56526 
L 612.919054 416.458914 
L 614.904465 442.875533 
L 615.897171 436.891401 
L 616.889877 433.401154 
L 617.882583 435.324902 
L 618.875289 431.279825 
L 619.867995 433.478339 
L 620.860701 436.020449 
L 621.853407 444.731718 
L 622.846113 439.176743 
L 623.838819 439.396864 
L 624.831525 437.819103 
L 625.824231 427.721793 
L 626.816936 433.757366 
L 627.809642 437.788745 
L 628.802348 442.307699 
L 629.795054 437.207496 
L 630.78776 429.280661 
L 631.780466 437.907787 
L 632.773172 445.175074 
L 633.765878 440.674064 
L 634.758584 432.865179 
L 635.75129 428.253664 
L 636.743996 437.38454 
L 637.736702 438.934495 
L 638.729408 436.441542 
L 639.722114 437.967614 
L 640.714819 441.138934 
L 641.707525 433.437448 
L 642.700231 439.052018 
L 643.692937 448.501831 
L 644.685643 452.916597 
L 645.678349 433.996666 
L 646.671055 437.144726 
L 647.663761 448.334484 
L 648.656467 423.179698 
L 649.649173 436.439736 
L 650.641879 439.801125 
L 652.627291 443.001406 
L 653.619996 438.536897 
L 654.612702 438.797515 
L 655.605408 434.252385 
L 656.598114 434.263556 
L 657.59082 438.983743 
L 658.583526 432.712433 
L 659.576232 439.78119 
L 660.568938 435.051451 
L 661.561644 445.381534 
L 662.55435 437.434723 
L 663.547056 441.731632 
L 664.539762 440.191614 
L 665.532468 439.293367 
L 666.525173 438.928324 
L 667.517879 446.557857 
L 668.510585 437.225622 
L 669.503291 438.366451 
L 670.495997 441.753461 
L 671.488703 441.556385 
L 672.481409 446.059435 
L 673.474115 443.555103 
L 674.466821 444.17161 
L 675.459527 441.508044 
L 676.452233 444.001149 
L 677.444939 438.074504 
L 678.437645 443.30624 
L 679.43035 438.75354 
L 680.423056 445.740889 
L 681.415762 441.570273 
L 682.408468 444.354582 
L 683.401174 441.62085 
L 684.39388 441.911129 
L 685.386586 446.536526 
L 686.379292 444.147744 
L 687.371998 442.249621 
L 688.364704 443.990898 
L 689.35741 446.010763 
L 690.350116 443.447795 
L 691.342822 443.371622 
L 692.335527 442.352016 
L 693.328233 442.536463 
L 694.320939 441.823594 
L 695.313645 440.931422 
L 696.306351 444.325645 
L 697.299057 443.743558 
L 698.291763 445.45751 
L 699.284469 442.958887 
L 700.277175 443.349951 
L 701.269881 444.813957 
L 702.262587 449.674037 
L 703.255293 444.716642 
L 704.247999 444.173286 
L 705.240705 444.007417 
L 706.23341 445.678769 
L 707.226116 444.418855 
L 708.218822 443.648791 
L 709.211528 443.17556 
L 710.204234 445.189661 
L 711.19694 447.457324 
L 712.189646 444.99007 
L 714.175058 446.761624 
L 715.167764 446.34687 
L 717.153176 448.196031 
L 718.145882 444.933073 
L 719.138587 446.968029 
L 720.131293 446.395238 
L 721.123999 446.265511 
L 722.116705 446.391518 
L 723.109411 444.598021 
L 724.102117 446.593943 
L 725.094823 449.023976 
L 726.087529 445.327324 
L 728.072941 449.264972 
L 729.065647 447.414868 
L 730.058353 446.531053 
L 731.051059 446.511164 
L 732.043764 446.626817 
L 733.03647 446.626111 
L 734.029176 448.118574 
L 735.021882 449.269889 
L 736.014588 446.78451 
L 737.007294 449.429532 
L 738.992706 447.838678 
L 739.985412 446.776007 
L 740.978118 448.239245 
L 742.96353 447.893551 
L 743.956236 448.026236 
L 744.948941 449.436211 
L 745.941647 446.374578 
L 746.934353 447.30335 
L 747.927059 446.595606 
L 748.919765 449.990869 
L 749.912471 449.466759 
L 750.905177 450.607303 
L 752.890589 447.071068 
L 753.883295 448.056496 
L 754.876001 447.483692 
L 755.868707 448.081341 
L 756.861413 447.505737 
L 757.854118 447.91538 
L 758.846824 448.624507 
L 759.83953 449.788278 
L 760.832236 448.814114 
L 761.824942 449.101325 
L 762.817648 448.632057 
L 763.810354 449.28704 
L 764.80306 450.457775 
L 765.795766 447.799607 
L 766.788472 448.257412 
L 767.781178 448.411587 
L 768.773884 450.334756 
L 769.76659 449.679662 
L 770.759295 450.264301 
L 771.752001 448.741799 
L 772.744707 451.733018 
L 773.737413 451.211583 
L 774.730119 448.804805 
L 775.722825 448.615242 
L 776.715531 448.847037 
L 777.708237 449.747844 
L 778.700943 449.57552 
L 779.693649 449.667157 
L 780.686355 451.521303 
L 781.679061 449.487725 
L 782.671767 449.855785 
L 783.664473 449.906583 
L 784.657178 450.600187 
L 785.649884 449.979403 
L 786.64259 450.126662 
L 787.635296 449.694437 
L 788.628002 452.384863 
L 789.620708 452.752737 
L 790.613414 451.066161 
L 791.60612 451.752247 
L 792.598826 451.257652 
L 793.591532 450.221281 
L 794.584238 452.802583 
L 795.576944 453.212685 
L 796.56965 450.194698 
L 797.562355 451.379522 
L 798.555061 451.81276 
L 799.547767 454.182158 
L 800.540473 451.6879 
L 801.533179 450.353922 
L 802.525885 453.274719 
L 803.518591 449.59458 
L 804.511297 453.12424 
L 805.504003 451.537628 
L 806.496709 451.304687 
L 807.489415 450.401768 
L 808.482121 451.768362 
L 809.474827 450.33542 
L 810.467532 452.836544 
L 811.460238 453.055324 
L 812.452944 451.602633 
L 814.438356 453.349005 
L 815.431062 452.729181 
L 816.423768 452.897478 
L 817.416474 452.312743 
L 818.40918 453.158724 
L 819.401886 452.698221 
L 820.394592 451.729074 
L 821.387298 453.314822 
L 822.380004 450.42805 
L 823.372709 451.635275 
L 824.365415 453.958928 
L 825.358121 453.339266 
L 826.350827 452.542317 
L 827.343533 451.956736 
L 828.336239 454.428904 
L 829.328945 454.519279 
L 830.321651 451.13717 
L 831.314357 454.01465 
L 832.307063 452.25826 
L 833.299769 454.673944 
L 834.292475 451.750835 
L 835.285181 452.976889 
L 836.277886 453.08893 
L 837.270592 453.596453 
L 838.263298 453.605858 
L 839.256004 455.105613 
L 840.24871 454.428145 
L 841.241416 454.468699 
L 842.234122 452.692682 
L 843.226828 453.376227 
L 844.219534 453.234109 
L 845.21224 455.302913 
L 846.204946 453.73414 
L 847.197652 454.271877 
L 848.190358 453.830438 
L 849.183064 454.689266 
L 850.175769 453.563387 
L 851.168475 453.158683 
L 852.161181 454.948509 
L 853.153887 453.674631 
L 854.146593 455.164256 
L 855.139299 454.822143 
L 856.132005 454.338744 
L 858.117417 456.50044 
L 859.110123 454.058971 
L 860.102829 454.991845 
L 861.095535 456.482822 
L 862.088241 455.645466 
L 863.080946 456.491244 
L 864.073652 454.583408 
L 865.066358 455.384212 
L 866.059064 455.391143 
L 867.05177 457.264686 
L 868.044476 458.183441 
L 869.037182 454.791219 
L 871.022594 454.847727 
L 872.0153 458.742825 
L 873.008006 453.823691 
L 874.000712 455.088168 
L 874.993418 456.102092 
L 875.986123 456.692809 
L 876.978829 456.296254 
L 877.971535 456.244944 
L 879.956947 453.954257 
L 880.949653 455.174403 
L 881.942359 457.473837 
L 882.935065 457.524858 
L 884.920477 455.341058 
L 885.913183 453.586651 
L 886.905889 455.343222 
L 887.898595 454.711329 
L 888.8913 456.620442 
L 889.884006 457.577135 
L 890.876712 456.749489 
L 891.869418 456.999379 
L 892.862124 456.01433 
L 893.85483 457.295906 
L 894.847536 455.588736 
L 895.840242 457.208143 
L 896.832948 457.00376 
L 897.825654 458.057136 
L 899.811066 455.98276 
L 900.803772 456.198947 
L 901.796477 455.749418 
L 902.789183 457.135339 
L 903.781889 456.254259 
L 904.774595 459.367699 
L 905.767301 457.21145 
L 906.760007 456.49945 
L 907.752713 454.90247 
L 908.745419 459.582453 
L 909.738125 457.171653 
L 910.730831 458.214804 
L 911.723537 456.844944 
L 912.716243 456.536144 
L 913.708949 456.912493 
L 914.701655 459.083142 
L 915.69436 456.09613 
L 916.687066 458.958708 
L 917.679772 456.23798 
L 918.672478 458.580924 
L 919.665184 457.488734 
L 920.65789 457.506598 
L 921.650596 458.650437 
L 922.643302 455.020718 
L 923.636008 458.338654 
L 924.628714 458.647728 
L 925.62142 456.850604 
L 926.614126 457.198943 
L 927.606832 458.611241 
L 928.599537 458.676947 
L 929.592243 456.961292 
L 930.584949 457.345152 
L 931.577655 458.702972 
L 932.570361 457.914154 
L 933.563067 458.341653 
L 934.555773 458.25165 
L 935.548479 459.46624 
L 936.541185 459.723943 
L 937.533891 458.530789 
L 938.526597 458.957254 
L 939.519303 457.424487 
L 940.512009 457.789947 
L 942.49742 458.320175 
L 943.490126 457.617077 
L 945.475538 460.138313 
L 946.468244 458.85293 
L 947.46095 459.707347 
L 948.453656 458.702592 
L 949.446362 458.047584 
L 950.439068 458.765152 
L 951.431774 458.507391 
L 952.42448 457.039453 
L 953.417186 459.313097 
L 954.409891 457.930669 
L 955.402597 459.667061 
L 956.395303 458.949697 
L 957.388009 458.747048 
L 958.380715 461.174384 
L 959.373421 459.673687 
L 960.366127 459.242618 
L 961.358833 459.690984 
L 962.351539 458.713654 
L 963.344245 459.438504 
L 964.336951 459.149245 
L 965.329657 459.710817 
L 966.322363 458.425965 
L 967.315068 458.635616 
L 968.307774 459.785875 
L 969.30048 458.812471 
L 970.293186 460.438862 
L 971.285892 459.498718 
L 972.278598 460.054279 
L 973.271304 460.359495 
L 974.26401 458.413615 
L 975.256716 460.377663 
L 976.249422 459.314701 
L 977.242128 459.971901 
L 978.234834 460.24209 
L 979.22754 458.39635 
L 980.220246 460.88258 
L 981.212951 457.779386 
L 982.205657 459.656384 
L 983.198363 460.690674 
L 984.191069 460.569192 
L 985.183775 459.251443 
L 986.176481 461.000811 
L 987.169187 458.422074 
L 988.161893 458.729995 
L 989.154599 460.395104 
L 990.147305 458.753062 
L 992.132717 460.097018 
L 993.125423 459.900314 
L 994.118128 460.060155 
L 995.110834 459.415062 
L 996.10354 460.166643 
L 997.096246 461.766658 
L 998.088952 459.669221 
L 999.081658 459.600155 
L 1000.074364 460.537279 
L 1001.06707 459.439055 
L 1002.059776 461.395696 
L 1003.052482 460.501811 
L 1004.045188 461.909202 
L 1005.037894 460.816331 
L 1006.0306 458.880069 
L 1007.023305 460.373197 
L 1008.016011 460.099589 
L 1009.008717 460.897909 
L 1010.001423 461.955431 
L 1010.994129 458.651516 
L 1011.986835 461.133823 
L 1013.972247 461.35798 
L 1014.964953 462.398201 
L 1015.957659 460.301615 
L 1016.950365 459.251247 
L 1017.943071 461.114084 
L 1018.935777 459.015468 
L 1019.928482 461.522986 
L 1020.921188 461.307761 
L 1021.913894 459.486299 
L 1022.9066 461.434975 
L 1023.899306 462.025355 
L 1024.892012 464.384882 
L 1025.884718 461.711299 
L 1026.877424 460.33764 
L 1027.87013 462.025521 
L 1028.862836 462.094292 
L 1029.855542 460.577334 
L 1030.848248 460.539536 
L 1031.840954 462.501385 
L 1032.833659 461.683697 
L 1033.826365 460.043969 
L 1034.819071 459.674087 
L 1035.811777 461.497402 
L 1036.804483 462.183878 
L 1037.797189 461.022194 
L 1038.789895 464.635249 
L 1039.782601 459.845686 
L 1041.768013 462.147956 
L 1042.760719 461.004295 
L 1043.753425 461.537325 
L 1044.746131 461.184077 
L 1045.738837 461.137369 
L 1046.731542 464.269788 
L 1047.724248 459.849334 
L 1048.716954 462.617449 
L 1049.70966 462.38599 
L 1050.702366 459.882602 
L 1051.695072 462.103078 
L 1052.687778 461.320173 
L 1053.680484 461.273613 
L 1054.67319 460.781551 
L 1055.665896 461.504351 
L 1056.658602 463.637807 
L 1057.651308 459.927274 
L 1058.644014 461.610606 
L 1059.636719 461.525222 
L 1060.629425 461.182554 
L 1061.622131 462.280768 
L 1062.614837 461.58645 
L 1063.607543 463.484018 
L 1064.600249 463.53541 
L 1065.592955 461.352049 
L 1066.585661 461.687217 
L 1067.578367 460.217152 
L 1068.571073 461.152661 
L 1069.563779 463.023985 
L 1071.549191 460.129875 
L 1072.541896 461.602245 
L 1073.534602 462.661738 
L 1074.527308 460.358277 
L 1075.520014 462.211416 
L 1076.51272 463.154138 
L 1077.505426 462.323992 
L 1078.498132 461.753153 
L 1079.490838 462.18563 
L 1080.483544 462.296673 
L 1081.47625 461.417052 
L 1082.468956 463.863116 
L 1083.461662 461.07562 
L 1084.454368 460.264812 
L 1085.447073 463.076331 
L 1086.439779 463.569147 
L 1087.432485 461.28278 
L 1088.425191 463.497291 
L 1089.417897 464.307332 
L 1090.410603 462.826715 
L 1091.403309 463.190602 
L 1092.396015 461.485082 
L 1093.388721 463.596081 
L 1094.381427 462.167985 
L 1095.374133 459.237727 
L 1096.366839 462.243257 
L 1097.359545 463.809121 
L 1098.35225 463.46796 
L 1099.344956 463.909406 
L 1100.337662 462.072425 
L 1101.330368 461.473307 
L 1102.323074 463.765825 
L 1103.31578 461.796464 
L 1104.308486 461.28595 
L 1105.301192 463.97706 
L 1106.293898 463.220842 
L 1107.286604 461.400194 
L 1108.27931 461.884957 
L 1109.272016 461.762847 
L 1110.264722 464.002178 
L 1111.257428 462.109116 
L 1112.250133 462.771663 
L 1113.242839 464.310192 
L 1114.235545 463.255492 
L 1115.228251 462.988554 
L 1116.220957 462.13318 
L 1117.213663 463.487108 
L 1118.206369 462.578456 
L 1119.199075 462.805943 
L 1120.191781 463.322141 
L 1121.184487 461.110697 
L 1122.177193 462.550854 
L 1123.169899 462.683985 
L 1124.162605 464.012238 
L 1125.15531 462.088752 
L 1127.140722 463.751963 
L 1128.133428 461.540871 
L 1129.126134 462.35955 
L 1130.11884 461.550803 
L 1131.111546 463.219555 
L 1132.104252 464.300251 
L 1133.096958 463.545778 
L 1135.08237 462.985737 
L 1136.075076 461.511562 
L 1137.067782 465.573684 
L 1138.060487 461.401571 
L 1139.053193 464.192693 
L 1140.045899 463.409344 
L 1141.038605 462.098659 
L 1142.031311 463.071582 
L 1143.024017 463.265838 
L 1144.016723 462.215612 
L 1145.009429 464.591966 
L 1146.002135 462.357698 
L 1146.994841 463.295162 
L 1147.987547 462.196598 
L 1148.980253 463.499965 
L 1149.972959 463.990586 
L 1150.965664 462.451544 
L 1151.95837 461.737422 
L 1152.951076 464.253136 
L 1153.943782 463.548796 
L 1154.936488 467.016632 
L 1155.929194 463.474868 
L 1156.9219 463.053026 
L 1158.907312 462.511533 
L 1159.900018 462.843254 
L 1160.892724 464.208256 
L 1161.88543 464.425596 
L 1162.878136 463.69681 
L 1163.870841 461.446413 
L 1164.863547 466.083177 
L 1165.856253 461.252082 
L 1166.848959 461.633456 
L 1167.841665 464.042923 
L 1168.834371 463.098235 
L 1169.827077 461.977844 
L 1170.819783 461.410294 
L 1171.812489 462.483524 
L 1172.805195 463.885214 
L 1173.797901 463.151248 
L 1174.790607 464.864619 
L 1175.783313 464.74025 
L 1176.776019 464.073183 
L 1177.768724 465.163069 
L 1178.76143 463.656489 
L 1179.754136 464.177272 
L 1180.746842 464.102958 
L 1181.739548 465.77816 
L 1182.732254 463.041156 
L 1183.72496 464.938256 
L 1184.717666 463.087126 
L 1185.710372 463.960743 
L 1186.703078 463.156717 
L 1187.695784 462.145164 
L 1188.68849 463.410961 
L 1189.681196 464.176688 
L 1190.673901 462.788151 
L 1191.666607 463.795636 
L 1192.659313 462.105731 
L 1193.652019 463.049099 
L 1194.644725 462.716876 
L 1195.637431 462.617907 
L 1196.630137 464.815095 
L 1197.622843 465.138713 
L 1198.615549 463.046896 
L 1199.608255 463.133972 
L 1200.600961 466.252167 
L 1201.593667 465.375151 
L 1202.586373 464.977498 
L 1203.579078 464.263609 
L 1204.571784 464.315174 
L 1205.56449 463.787362 
L 1206.557196 466.65213 
L 1207.549902 462.472647 
L 1208.542608 464.781908 
L 1209.535314 463.81799 
L 1210.52802 463.557695 
L 1211.520726 463.680449 
L 1212.513432 464.45857 
L 1213.506138 462.484736 
L 1214.498844 463.476637 
L 1215.49155 464.038468 
L 1217.476961 464.420402 
L 1218.469667 464.215412 
L 1219.462373 462.48359 
L 1220.455079 464.556451 
L 1221.447785 466.052187 
L 1222.440491 464.246816 
L 1224.425903 463.432161 
L 1225.418609 461.973823 
L 1226.411315 464.201828 
L 1227.404021 463.566886 
L 1228.396727 465.417953 
L 1229.389432 461.997083 
L 1230.382138 463.984195 
L 1231.374844 462.361274 
L 1233.360256 463.701254 
L 1234.352962 465.374048 
L 1235.345668 463.55692 
L 1236.338374 463.015544 
L 1237.33108 464.163051 
L 1238.323786 464.372673 
L 1239.316492 461.312772 
L 1240.309198 464.429727 
L 1241.301904 464.559695 
L 1242.29461 466.802733 
L 1243.287315 464.01176 
L 1244.280021 463.466586 
L 1245.272727 463.33659 
L 1245.272727 463.33659 
" clip-path="url(#p15456d48f6)" style="fill: none; stroke: #1f77b4; stroke-width: 1.5; stroke-linecap: square"/>
   </g>
   <g id="patch_3">
    <path d="M 180 512.64 
L 180 69.12 
" style="fill: none; stroke: #000000; stroke-width: 0.8; stroke-linejoin: miter; stroke-linecap: square"/>
   </g>
   <g id="patch_4">
    <path d="M 1296 512.64 
L 1296 69.12 
" style="fill: none; stroke: #000000; stroke-width: 0.8; stroke-linejoin: miter; stroke-linecap: square"/>
   </g>
   <g id="patch_5">
    <path d="M 180 512.64 
L 1296 512.64 
" style="fill: none; stroke: #000000; stroke-width: 0.8; stroke-linejoin: miter; stroke-linecap: square"/>
   </g>
   <g id="patch_6">
    <path d="M 180 69.12 
L 1296 69.12 
" style="fill: none; stroke: #000000; stroke-width: 0.8; stroke-linejoin: miter; stroke-linecap: square"/>
   </g>
   <g id="text_12">
    <!-- source7-receiver10 -->
    <g transform="translate(544.9 60.80125) scale(0.4 -0.4)">
     <defs>
      <path id="DejaVuSans-73" d="M 2834 3397 
L 2834 2853 
Q 2591 2978 2328 3040 
Q 2066 3103 1784 3103 
Q 1356 3103 1142 2972 
Q 928 2841 928 2578 
Q 928 2378 1081 2264 
Q 1234 2150 1697 2047 
L 1894 2003 
Q 2506 1872 2764 1633 
Q 3022 1394 3022 966 
Q 3022 478 2636 193 
Q 2250 -91 1575 -91 
Q 1294 -91 989 -36 
Q 684 19 347 128 
L 347 722 
Q 666 556 975 473 
Q 1284 391 1588 391 
Q 1994 391 2212 530 
Q 2431 669 2431 922 
Q 2431 1156 2273 1281 
Q 2116 1406 1581 1522 
L 1381 1569 
Q 847 1681 609 1914 
Q 372 2147 372 2553 
Q 372 3047 722 3315 
Q 1072 3584 1716 3584 
Q 2034 3584 2315 3537 
Q 2597 3491 2834 3397 
z
" transform="scale(0.015625)"/>
      <path id="DejaVuSans-6f" d="M 1959 3097 
Q 1497 3097 1228 2736 
Q 959 2375 959 1747 
Q 959 1119 1226 758 
Q 1494 397 1959 397 
Q 2419 397 2687 759 
Q 2956 1122 2956 1747 
Q 2956 2369 2687 2733 
Q 2419 3097 1959 3097 
z
M 1959 3584 
Q 2709 3584 3137 3096 
Q 3566 2609 3566 1747 
Q 3566 888 3137 398 
Q 2709 -91 1959 -91 
Q 1206 -91 779 398 
Q 353 888 353 1747 
Q 353 2609 779 3096 
Q 1206 3584 1959 3584 
z
" transform="scale(0.015625)"/>
      <path id="DejaVuSans-75" d="M 544 1381 
L 544 3500 
L 1119 3500 
L 1119 1403 
Q 1119 906 1312 657 
Q 1506 409 1894 409 
Q 2359 409 2629 706 
Q 2900 1003 2900 1516 
L 2900 3500 
L 3475 3500 
L 3475 0 
L 2900 0 
L 2900 538 
Q 2691 219 2414 64 
Q 2138 -91 1772 -91 
Q 1169 -91 856 284 
Q 544 659 544 1381 
z
M 1991 3584 
L 1991 3584 
z
" transform="scale(0.015625)"/>
      <path id="DejaVuSans-72" d="M 2631 2963 
Q 2534 3019 2420 3045 
Q 2306 3072 2169 3072 
Q 1681 3072 1420 2755 
Q 1159 2438 1159 1844 
L 1159 0 
L 581 0 
L 581 3500 
L 1159 3500 
L 1159 2956 
Q 1341 3275 1631 3429 
Q 1922 3584 2338 3584 
Q 2397 3584 2469 3576 
Q 2541 3569 2628 3553 
L 2631 2963 
z
" transform="scale(0.015625)"/>
      <path id="DejaVuSans-63" d="M 3122 3366 
L 3122 2828 
Q 2878 2963 2633 3030 
Q 2388 3097 2138 3097 
Q 1578 3097 1268 2742 
Q 959 2388 959 1747 
Q 959 1106 1268 751 
Q 1578 397 2138 397 
Q 2388 397 2633 464 
Q 2878 531 3122 666 
L 3122 134 
Q 2881 22 2623 -34 
Q 2366 -91 2075 -91 
Q 1284 -91 818 406 
Q 353 903 353 1747 
Q 353 2603 823 3093 
Q 1294 3584 2113 3584 
Q 2378 3584 2631 3529 
Q 2884 3475 3122 3366 
z
" transform="scale(0.015625)"/>
      <path id="DejaVuSans-65" d="M 3597 1894 
L 3597 1613 
L 953 1613 
Q 991 1019 1311 708 
Q 1631 397 2203 397 
Q 2534 397 2845 478 
Q 3156 559 3463 722 
L 3463 178 
Q 3153 47 2828 -22 
Q 2503 -91 2169 -91 
Q 1331 -91 842 396 
Q 353 884 353 1716 
Q 353 2575 817 3079 
Q 1281 3584 2069 3584 
Q 2775 3584 3186 3129 
Q 3597 2675 3597 1894 
z
M 3022 2063 
Q 3016 2534 2758 2815 
Q 2500 3097 2075 3097 
Q 1594 3097 1305 2825 
Q 1016 2553 972 2059 
L 3022 2063 
z
" transform="scale(0.015625)"/>
      <path id="DejaVuSans-37" d="M 525 4666 
L 3525 4666 
L 3525 4397 
L 1831 0 
L 1172 0 
L 2766 4134 
L 525 4134 
L 525 4666 
z
" transform="scale(0.015625)"/>
      <path id="DejaVuSans-2d" d="M 313 2009 
L 1997 2009 
L 1997 1497 
L 313 1497 
L 313 2009 
z
" transform="scale(0.015625)"/>
      <path id="DejaVuSans-69" d="M 603 3500 
L 1178 3500 
L 1178 0 
L 603 0 
L 603 3500 
z
M 603 4863 
L 1178 4863 
L 1178 4134 
L 603 4134 
L 603 4863 
z
" transform="scale(0.015625)"/>
      <path id="DejaVuSans-76" d="M 191 3500 
L 800 3500 
L 1894 563 
L 2988 3500 
L 3597 3500 
L 2284 0 
L 1503 0 
L 191 3500 
z
" transform="scale(0.015625)"/>
     </defs>
     <use xlink:href="#DejaVuSans-73"/>
     <use xlink:href="#DejaVuSans-6f" x="52.099609"/>
     <use xlink:href="#DejaVuSans-75" x="113.28125"/>
     <use xlink:href="#DejaVuSans-72" x="176.660156"/>
     <use xlink:href="#DejaVuSans-63" x="215.523438"/>
     <use xlink:href="#DejaVuSans-65" x="270.503906"/>
     <use xlink:href="#DejaVuSans-37" x="332.027344"/>
     <use xlink:href="#DejaVuSans-2d" x="395.650391"/>
     <use xlink:href="#DejaVuSans-72" x="431.734375"/>
     <use xlink:href="#DejaVuSans-65" x="470.597656"/>
     <use xlink:href="#DejaVuSans-63" x="532.121094"/>
     <use xlink:href="#DejaVuSans-65" x="587.101562"/>
     <use xlink:href="#DejaVuSans-69" x="648.625"/>
     <use xlink:href="#DejaVuSans-76" x="676.408203"/>
     <use xlink:href="#DejaVuSans-65" x="735.587891"/>
     <use xlink:href="#DejaVuSans-72" x="797.111328"/>
     <use xlink:href="#DejaVuSans-31" x="838.224609"/>
     <use xlink:href="#DejaVuSans-30" x="901.847656"/>
    </g>
   </g>
  </g>
 </g>
 <defs>
  <clipPath id="p15456d48f6">
   <rect x="180" y="69.12" width="1116" height="443.52"/>
  </clipPath>
 </defs>
</svg>
