<?xml version="1.0" encoding="utf-8" standalone="no"?>
<!DOCTYPE svg PUBLIC "-//W3C//DTD SVG 1.1//EN"
  "http://www.w3.org/Graphics/SVG/1.1/DTD/svg11.dtd">
<svg xmlns:xlink="http://www.w3.org/1999/xlink" width="1440pt" height="576pt" viewBox="0 0 1440 576" xmlns="http://www.w3.org/2000/svg" version="1.1">
 <metadata>
  <rdf:RDF xmlns:dc="http://purl.org/dc/elements/1.1/" xmlns:cc="http://creativecommons.org/ns#" xmlns:rdf="http://www.w3.org/1999/02/22-rdf-syntax-ns#">
   <cc:Work>
    <dc:type rdf:resource="http://purl.org/dc/dcmitype/StillImage"/>
    <dc:date>2024-05-22T04:49:51.935039</dc:date>
    <dc:format>image/svg+xml</dc:format>
    <dc:creator>
     <cc:Agent>
      <dc:title>Matplotlib v3.8.3, https://matplotlib.org/</dc:title>
     </cc:Agent>
    </dc:creator>
   </cc:Work>
  </rdf:RDF>
 </metadata>
 <defs>
  <style type="text/css">*{stroke-linejoin: round; stroke-linecap: butt}</style>
 </defs>
 <g id="figure_1">
  <g id="patch_1">
   <path d="M 0 576 
L 1440 576 
L 1440 0 
L 0 0 
z
" style="fill: #ffffff"/>
  </g>
  <g id="axes_1">
   <g id="patch_2">
    <path d="M 180 512.64 
L 1296 512.64 
L 1296 69.12 
L 180 69.12 
z
" style="fill: #ffffff"/>
   </g>
   <g id="matplotlib.axis_1">
    <g id="xtick_1">
     <g id="line2d_1">
      <defs>
       <path id="mcb931e3b64" d="M 0 0 
L 0 3.5 
" style="stroke: #000000; stroke-width: 0.8"/>
      </defs>
      <g>
       <use xlink:href="#mcb931e3b64" x="229.734567" y="512.64" style="stroke: #000000; stroke-width: 0.8"/>
      </g>
     </g>
     <g id="text_1">
      <!-- 0 -->
      <g transform="translate(226.553317 527.238438) scale(0.1 -0.1)">
       <defs>
        <path id="DejaVuSans-30" d="M 2034 4250 
Q 1547 4250 1301 3770 
Q 1056 3291 1056 2328 
Q 1056 1369 1301 889 
Q 1547 409 2034 409 
Q 2525 409 2770 889 
Q 3016 1369 3016 2328 
Q 3016 3291 2770 3770 
Q 2525 4250 2034 4250 
z
M 2034 4750 
Q 2819 4750 3233 4129 
Q 3647 3509 3647 2328 
Q 3647 1150 3233 529 
Q 2819 -91 2034 -91 
Q 1250 -91 836 529 
Q 422 1150 422 2328 
Q 422 3509 836 4129 
Q 1250 4750 2034 4750 
z
" transform="scale(0.015625)"/>
       </defs>
       <use xlink:href="#DejaVuSans-30"/>
      </g>
     </g>
    </g>
    <g id="xtick_2">
     <g id="line2d_2">
      <g>
       <use xlink:href="#mcb931e3b64" x="433.04074" y="512.64" style="stroke: #000000; stroke-width: 0.8"/>
      </g>
     </g>
     <g id="text_2">
      <!-- 500 -->
      <g transform="translate(423.49699 527.238438) scale(0.1 -0.1)">
       <defs>
        <path id="DejaVuSans-35" d="M 691 4666 
L 3169 4666 
L 3169 4134 
L 1269 4134 
L 1269 2991 
Q 1406 3038 1543 3061 
Q 1681 3084 1819 3084 
Q 2600 3084 3056 2656 
Q 3513 2228 3513 1497 
Q 3513 744 3044 326 
Q 2575 -91 1722 -91 
Q 1428 -91 1123 -41 
Q 819 9 494 109 
L 494 744 
Q 775 591 1075 516 
Q 1375 441 1709 441 
Q 2250 441 2565 725 
Q 2881 1009 2881 1497 
Q 2881 1984 2565 2268 
Q 2250 2553 1709 2553 
Q 1456 2553 1204 2497 
Q 953 2441 691 2322 
L 691 4666 
z
" transform="scale(0.015625)"/>
       </defs>
       <use xlink:href="#DejaVuSans-35"/>
       <use xlink:href="#DejaVuSans-30" x="63.623047"/>
       <use xlink:href="#DejaVuSans-30" x="127.246094"/>
      </g>
     </g>
    </g>
    <g id="xtick_3">
     <g id="line2d_3">
      <g>
       <use xlink:href="#mcb931e3b64" x="636.346913" y="512.64" style="stroke: #000000; stroke-width: 0.8"/>
      </g>
     </g>
     <g id="text_3">
      <!-- 1000 -->
      <g transform="translate(623.621913 527.238438) scale(0.1 -0.1)">
       <defs>
        <path id="DejaVuSans-31" d="M 794 531 
L 1825 531 
L 1825 4091 
L 703 3866 
L 703 4441 
L 1819 4666 
L 2450 4666 
L 2450 531 
L 3481 531 
L 3481 0 
L 794 0 
L 794 531 
z
" transform="scale(0.015625)"/>
       </defs>
       <use xlink:href="#DejaVuSans-31"/>
       <use xlink:href="#DejaVuSans-30" x="63.623047"/>
       <use xlink:href="#DejaVuSans-30" x="127.246094"/>
       <use xlink:href="#DejaVuSans-30" x="190.869141"/>
      </g>
     </g>
    </g>
    <g id="xtick_4">
     <g id="line2d_4">
      <g>
       <use xlink:href="#mcb931e3b64" x="839.653087" y="512.64" style="stroke: #000000; stroke-width: 0.8"/>
      </g>
     </g>
     <g id="text_4">
      <!-- 1500 -->
      <g transform="translate(826.928087 527.238438) scale(0.1 -0.1)">
       <use xlink:href="#DejaVuSans-31"/>
       <use xlink:href="#DejaVuSans-35" x="63.623047"/>
       <use xlink:href="#DejaVuSans-30" x="127.246094"/>
       <use xlink:href="#DejaVuSans-30" x="190.869141"/>
      </g>
     </g>
    </g>
    <g id="xtick_5">
     <g id="line2d_5">
      <g>
       <use xlink:href="#mcb931e3b64" x="1042.95926" y="512.64" style="stroke: #000000; stroke-width: 0.8"/>
      </g>
     </g>
     <g id="text_5">
      <!-- 2000 -->
      <g transform="translate(1030.23426 527.238438) scale(0.1 -0.1)">
       <defs>
        <path id="DejaVuSans-32" d="M 1228 531 
L 3431 531 
L 3431 0 
L 469 0 
L 469 531 
Q 828 903 1448 1529 
Q 2069 2156 2228 2338 
Q 2531 2678 2651 2914 
Q 2772 3150 2772 3378 
Q 2772 3750 2511 3984 
Q 2250 4219 1831 4219 
Q 1534 4219 1204 4116 
Q 875 4013 500 3803 
L 500 4441 
Q 881 4594 1212 4672 
Q 1544 4750 1819 4750 
Q 2544 4750 2975 4387 
Q 3406 4025 3406 3419 
Q 3406 3131 3298 2873 
Q 3191 2616 2906 2266 
Q 2828 2175 2409 1742 
Q 1991 1309 1228 531 
z
" transform="scale(0.015625)"/>
       </defs>
       <use xlink:href="#DejaVuSans-32"/>
       <use xlink:href="#DejaVuSans-30" x="63.623047"/>
       <use xlink:href="#DejaVuSans-30" x="127.246094"/>
       <use xlink:href="#DejaVuSans-30" x="190.869141"/>
      </g>
     </g>
    </g>
    <g id="xtick_6">
     <g id="line2d_6">
      <g>
       <use xlink:href="#mcb931e3b64" x="1246.265433" y="512.64" style="stroke: #000000; stroke-width: 0.8"/>
      </g>
     </g>
     <g id="text_6">
      <!-- 2500 -->
      <g transform="translate(1233.540433 527.238438) scale(0.1 -0.1)">
       <use xlink:href="#DejaVuSans-32"/>
       <use xlink:href="#DejaVuSans-35" x="63.623047"/>
       <use xlink:href="#DejaVuSans-30" x="127.246094"/>
       <use xlink:href="#DejaVuSans-30" x="190.869141"/>
      </g>
     </g>
    </g>
   </g>
   <g id="matplotlib.axis_2">
    <g id="ytick_1">
     <g id="line2d_7">
      <defs>
       <path id="maeaeddfef0" d="M 0 0 
L -3.5 0 
" style="stroke: #000000; stroke-width: 0.8"/>
      </defs>
      <g>
       <use xlink:href="#maeaeddfef0" x="180" y="492.996922" style="stroke: #000000; stroke-width: 0.8"/>
      </g>
     </g>
     <g id="text_7">
      <!-- −4 -->
      <g transform="translate(158.257812 496.796141) scale(0.1 -0.1)">
       <defs>
        <path id="DejaVuSans-2212" d="M 678 2272 
L 4684 2272 
L 4684 1741 
L 678 1741 
L 678 2272 
z
" transform="scale(0.015625)"/>
        <path id="DejaVuSans-34" d="M 2419 4116 
L 825 1625 
L 2419 1625 
L 2419 4116 
z
M 2253 4666 
L 3047 4666 
L 3047 1625 
L 3713 1625 
L 3713 1100 
L 3047 1100 
L 3047 0 
L 2419 0 
L 2419 1100 
L 313 1100 
L 313 1709 
L 2253 4666 
z
" transform="scale(0.015625)"/>
       </defs>
       <use xlink:href="#DejaVuSans-2212"/>
       <use xlink:href="#DejaVuSans-34" x="83.789062"/>
      </g>
     </g>
    </g>
    <g id="ytick_2">
     <g id="line2d_8">
      <g>
       <use xlink:href="#maeaeddfef0" x="180" y="406.515055" style="stroke: #000000; stroke-width: 0.8"/>
      </g>
     </g>
     <g id="text_8">
      <!-- −2 -->
      <g transform="translate(158.257812 410.314274) scale(0.1 -0.1)">
       <use xlink:href="#DejaVuSans-2212"/>
       <use xlink:href="#DejaVuSans-32" x="83.789062"/>
      </g>
     </g>
    </g>
    <g id="ytick_3">
     <g id="line2d_9">
      <g>
       <use xlink:href="#maeaeddfef0" x="180" y="320.033187" style="stroke: #000000; stroke-width: 0.8"/>
      </g>
     </g>
     <g id="text_9">
      <!-- 0 -->
      <g transform="translate(166.6375 323.832406) scale(0.1 -0.1)">
       <use xlink:href="#DejaVuSans-30"/>
      </g>
     </g>
    </g>
    <g id="ytick_4">
     <g id="line2d_10">
      <g>
       <use xlink:href="#maeaeddfef0" x="180" y="233.55132" style="stroke: #000000; stroke-width: 0.8"/>
      </g>
     </g>
     <g id="text_10">
      <!-- 2 -->
      <g transform="translate(166.6375 237.350538) scale(0.1 -0.1)">
       <use xlink:href="#DejaVuSans-32"/>
      </g>
     </g>
    </g>
    <g id="ytick_5">
     <g id="line2d_11">
      <g>
       <use xlink:href="#maeaeddfef0" x="180" y="147.069452" style="stroke: #000000; stroke-width: 0.8"/>
      </g>
     </g>
     <g id="text_11">
      <!-- 4 -->
      <g transform="translate(166.6375 150.868671) scale(0.1 -0.1)">
       <use xlink:href="#DejaVuSans-34"/>
      </g>
     </g>
    </g>
   </g>
   <g id="line2d_12">
    <path d="M 230.727273 284.995553 
L 231.719979 336.54728 
L 232.712685 298.907907 
L 233.70539 279.716429 
L 234.698096 289.318796 
L 235.690802 360.009191 
L 236.683508 302.484693 
L 237.676214 280.192874 
L 238.66892 288.2934 
L 239.661626 352.131548 
L 240.654332 303.415996 
L 241.647038 281.291094 
L 242.639744 292.06467 
L 243.63245 398.02162 
L 244.625156 295.005361 
L 245.617862 280.957907 
L 246.610568 309.366262 
L 247.603273 311.243481 
L 248.595979 266.870893 
L 249.588685 263.567801 
L 250.581391 266.283862 
L 251.574097 231.400109 
L 252.566803 210.050465 
L 253.559509 205.173665 
L 254.552215 216.019942 
L 255.544921 233.074356 
L 256.537627 218.621311 
L 257.530333 212.217537 
L 258.523039 216.273393 
L 260.50845 178.473081 
L 261.501156 176.525326 
L 262.493862 197.823428 
L 263.486568 243.919161 
L 264.479274 187.048776 
L 265.47198 174.076999 
L 266.464686 179.544739 
L 267.457392 186.508045 
L 268.450098 182.909672 
L 269.442804 181.48633 
L 270.43551 169.508912 
L 271.428216 153.075527 
L 272.420922 149.435303 
L 273.413627 164.563073 
L 274.406333 192.34916 
L 275.399039 163.961 
L 276.391745 155.769437 
L 277.384451 176.390183 
L 278.377157 162.067705 
L 279.369863 124.947157 
L 280.362569 106.850528 
L 281.355275 98.424318 
L 282.347981 94.911844 
L 284.333393 90.020886 
L 285.326099 89.28 
L 286.318804 94.104538 
L 287.31151 108.346612 
L 289.296922 168.176058 
L 290.289628 151.44452 
L 291.282334 156.055338 
L 292.27504 182.3184 
L 293.267746 175.520532 
L 294.260452 164.313439 
L 295.253158 174.536961 
L 296.245864 196.128896 
L 297.23857 193.813134 
L 298.231276 194.503695 
L 299.223981 201.570524 
L 300.216687 192.592916 
L 301.209393 190.135907 
L 302.202099 205.807735 
L 303.194805 233.179938 
L 304.187511 225.528636 
L 305.180217 231.570896 
L 306.172923 283.023119 
L 307.165629 255.57851 
L 308.158335 235.618214 
L 309.151041 246.302907 
L 310.143747 292.158165 
L 311.136453 273.360378 
L 312.129159 250.285647 
L 313.121864 255.400721 
L 314.11457 296.994171 
L 315.107276 299.322362 
L 316.099982 267.026313 
L 317.092688 278.202104 
L 318.085394 336.868127 
L 319.0781 281.938496 
L 320.070806 274.830709 
L 321.063512 307.28256 
L 322.056218 303.013922 
L 323.048924 276.664266 
L 324.04163 284.090787 
L 325.034336 353.166959 
L 326.027041 293.579509 
L 327.019747 275.340722 
L 328.012453 282.820715 
L 329.005159 334.196703 
L 329.997865 304.612392 
L 330.990571 289.990596 
L 331.983277 314.333462 
L 332.975983 310.975677 
L 333.968689 278.406939 
L 334.961395 282.330851 
L 335.954101 336.716421 
L 336.946807 295.527157 
L 337.939513 271.206917 
L 338.932218 277.405332 
L 339.924924 326.524349 
L 340.91763 310.66939 
L 341.910336 282.484662 
L 342.903042 292.700353 
L 343.895748 400.229016 
L 344.888454 296.955092 
L 345.88116 280.804462 
L 346.873866 300.150611 
L 347.866572 335.252593 
L 348.859278 281.657263 
L 349.851984 275.004611 
L 350.84469 301.899745 
L 351.837395 297.552959 
L 352.830101 267.348222 
L 353.822807 266.381551 
L 354.815513 280.809167 
L 355.808219 268.137243 
L 356.800925 251.065116 
L 357.793631 251.926191 
L 358.786337 264.996048 
L 359.779043 265.054381 
L 360.771749 251.922264 
L 361.764455 253.678781 
L 362.757161 270.459821 
L 363.749867 270.587823 
L 364.742572 255.1777 
L 365.735278 255.958926 
L 366.727984 271.203311 
L 367.72069 275.50328 
L 368.713396 267.489254 
L 369.706102 274.483508 
L 370.698808 304.805032 
L 371.691514 300.578414 
L 373.676926 269.112907 
L 374.669632 245.243298 
L 375.662338 230.97898 
L 376.655044 227.498484 
L 377.64775 231.374467 
L 378.640455 232.881166 
L 379.633161 232.16377 
L 380.625867 240.603946 
L 381.618573 271.50565 
L 382.611279 283.161481 
L 383.603985 245.971147 
L 385.589397 212.8143 
L 386.582103 198.169274 
L 387.574809 188.500666 
L 388.567515 183.554772 
L 391.545632 175.671419 
L 392.538338 175.972524 
L 393.531044 179.222647 
L 394.52375 183.749342 
L 395.516456 187.434291 
L 396.509162 192.366601 
L 397.501868 201.326072 
L 400.479986 242.283152 
L 401.472692 262.481617 
L 402.465398 314.939422 
L 403.458104 315.442409 
L 404.450809 292.581375 
L 405.443515 301.96222 
L 406.436221 292.029842 
L 407.428927 277.698104 
L 408.421633 281.229959 
L 409.414339 309.036313 
L 410.407045 304.656367 
L 411.399751 285.998947 
L 412.392457 289.874087 
L 413.385163 311.54128 
L 414.377869 301.916104 
L 415.370575 287.143165 
L 416.363281 290.258053 
L 417.355986 312.720651 
L 418.348692 350.887129 
L 419.341398 321.228134 
L 420.334104 310.509332 
L 421.32681 306.472446 
L 422.319516 319.004956 
L 423.312222 365.25139 
L 424.304928 335.134807 
L 425.297634 308.603072 
L 426.29034 303.208943 
L 427.283046 318.738967 
L 428.275752 370.219115 
L 429.268458 335.990273 
L 430.261163 315.774967 
L 431.253869 316.517349 
L 432.246575 333.870474 
L 433.239281 388.179061 
L 434.231987 357.252754 
L 435.224693 332.933988 
L 436.217399 330.514719 
L 437.210105 350.145332 
L 438.202811 352.770271 
L 439.195517 327.415453 
L 440.188223 327.617612 
L 441.180929 372.201775 
L 442.173635 349.424047 
L 443.166341 317.886764 
L 444.159046 315.838464 
L 445.151752 335.705329 
L 446.144458 413.115245 
L 447.137164 353.574357 
L 448.12987 348.461222 
L 449.122576 355.825791 
L 450.115282 338.485465 
L 451.107988 332.422846 
L 452.100694 342.734078 
L 453.0934 362.803201 
L 454.086106 364.573574 
L 455.078812 381.129124 
L 456.071518 342.07675 
L 457.064223 312.157994 
L 458.056929 306.863615 
L 460.042341 340.022931 
L 461.035047 316.224599 
L 462.027753 306.087368 
L 463.020459 319.318391 
L 464.013165 377.594297 
L 465.005871 342.386359 
L 465.998577 331.701547 
L 466.991283 354.420453 
L 468.976695 296.834675 
L 469.9694 288.54244 
L 470.962106 295.287031 
L 471.954812 306.971086 
L 472.947518 303.305659 
L 473.940224 293.267637 
L 474.93293 291.466452 
L 475.925636 297.992124 
L 476.918342 314.888739 
L 477.911048 326.226712 
L 478.903754 306.729952 
L 479.89646 294.709072 
L 480.889166 294.03548 
L 481.881872 305.34658 
L 482.874577 325.305855 
L 483.867283 320.752491 
L 484.859989 309.994567 
L 485.852695 318.605785 
L 486.845401 348.33637 
L 487.838107 342.535579 
L 488.830813 328.780778 
L 489.823519 331.12651 
L 490.816225 303.513862 
L 491.808931 279.135696 
L 492.801637 268.109749 
L 493.794343 265.15548 
L 494.787049 261.080122 
L 495.779754 250.891878 
L 496.77246 242.453979 
L 497.765166 239.400458 
L 498.757872 239.526311 
L 499.750578 237.639586 
L 500.743284 233.395756 
L 501.73599 231.953695 
L 502.728696 234.855157 
L 503.721402 240.034607 
L 504.714108 243.039226 
L 505.706814 245.140558 
L 506.69952 252.466838 
L 507.692226 268.062677 
L 508.684932 287.128457 
L 509.677637 295.224859 
L 510.670343 312.783305 
L 511.663049 404.073458 
L 512.655755 319.717688 
L 513.648461 302.335431 
L 514.641167 311.371918 
L 515.633873 325.852311 
L 516.626579 309.832128 
L 517.619285 308.156251 
L 518.611991 333.476882 
L 519.604697 341.481267 
L 520.597403 307.655344 
L 521.590109 304.939305 
L 522.582814 314.010222 
L 523.57552 310.936108 
L 524.568226 298.085109 
L 525.560932 297.587843 
L 526.553638 314.017536 
L 527.546344 350.756497 
L 528.53905 354.542935 
L 529.531756 341.744437 
L 530.524462 342.808162 
L 531.517168 339.091104 
L 532.509874 348.195268 
L 533.50258 407.661843 
L 534.495286 367.593079 
L 535.487991 351.48977 
L 536.480697 386.342876 
L 537.473403 359.608205 
L 538.466109 320.433744 
L 539.458815 314.992835 
L 540.451521 326.107684 
L 541.444227 343.017651 
L 542.436933 324.51912 
L 543.429639 318.258193 
L 544.422345 330.300561 
L 545.415051 380.805547 
L 546.407757 369.023758 
L 547.400463 376.03979 
L 548.393168 422.444375 
L 549.385874 346.911745 
L 550.37858 329.991525 
L 551.371286 344.087463 
L 552.363992 416.739481 
L 553.356698 365.810103 
L 554.349404 351.967734 
L 555.34211 422.078542 
L 556.334816 347.430512 
L 557.327522 319.158216 
L 558.320228 315.292979 
L 559.312934 330.93729 
L 560.30564 338.856134 
L 561.298345 321.272153 
L 562.291051 318.675184 
L 563.283757 335.272098 
L 564.276463 425.693281 
L 565.269169 372.272664 
L 566.261875 367.977145 
L 567.254581 406.866656 
L 568.247287 349.305598 
L 569.239993 335.198366 
L 570.232699 345.003598 
L 571.225405 411.789815 
L 572.218111 373.532884 
L 573.210817 350.669048 
L 574.203523 357.015029 
L 575.196228 365.851672 
L 576.188934 357.773986 
L 577.18164 366.839858 
L 578.174346 434.813367 
L 579.167052 366.214386 
L 580.159758 342.213739 
L 581.152464 341.539489 
L 582.14517 356.090515 
L 583.137876 404.34347 
L 584.130582 362.209177 
L 585.123288 328.435954 
L 586.115994 318.073924 
L 587.1087 323.234494 
L 588.101405 333.295985 
L 589.094111 319.969464 
L 590.086817 302.807677 
L 591.079523 304.321475 
L 593.064935 333.167638 
L 594.057641 319.811335 
L 595.050347 324.352746 
L 596.043053 366.003228 
L 597.035759 341.311168 
L 598.028465 310.698488 
L 599.021171 305.151885 
L 600.013877 302.353986 
L 601.006582 287.160311 
L 601.999288 275.702643 
L 602.991994 272.29495 
L 603.9847 274.055536 
L 604.977406 271.598662 
L 605.970112 265.068059 
L 606.962818 262.127666 
L 608.94823 267.847161 
L 610.933642 260.981305 
L 611.926348 262.72958 
L 612.919054 268.121011 
L 613.911759 269.372586 
L 614.904465 267.085771 
L 615.897171 267.930157 
L 616.889877 275.512953 
L 617.882583 286.501345 
L 618.875289 290.894472 
L 619.867995 290.66855 
L 620.860701 296.413518 
L 621.853407 310.014473 
L 622.846113 329.588724 
L 623.838819 337.676576 
L 625.824231 315.578528 
L 626.816936 314.92923 
L 627.809642 327.73896 
L 628.802348 352.48064 
L 629.795054 343.648434 
L 630.78776 332.757353 
L 631.780466 344.473749 
L 632.773172 418.730939 
L 633.765878 360.703831 
L 634.758584 339.952587 
L 635.75129 348.721011 
L 636.743996 383.362881 
L 637.736702 356.031958 
L 638.729408 336.931074 
L 639.722114 334.945302 
L 640.714819 346.822548 
L 641.707525 379.330776 
L 642.700231 401.513732 
L 643.692937 356.172741 
L 644.685643 338.341135 
L 645.678349 337.589049 
L 646.671055 354.289651 
L 647.663761 409.751531 
L 648.656467 375.012507 
L 649.649173 354.02474 
L 650.641879 356.366505 
L 651.634585 366.308153 
L 652.627291 368.521286 
L 653.619996 383.917234 
L 654.612702 430.729652 
L 655.605408 362.994889 
L 656.598114 348.563171 
L 657.59082 358.811016 
L 658.583526 422.359703 
L 659.576232 374.826641 
L 660.568938 355.710093 
L 661.561644 371.287079 
L 662.55435 437.341861 
L 663.547056 361.394446 
L 664.539762 350.120905 
L 665.532468 368.304936 
L 666.525173 450.97262 
L 667.517879 358.881305 
L 668.510585 349.178976 
L 669.503291 370.114016 
L 670.495997 432.60447 
L 671.488703 358.12008 
L 672.481409 348.549116 
L 673.474115 368.490666 
L 674.466821 461.58759 
L 675.459527 365.741931 
L 676.452233 355.867103 
L 677.444939 376.315778 
L 678.437645 412.018737 
L 679.43035 369.722341 
L 680.423056 362.428323 
L 681.415762 378.089926 
L 682.408468 407.34235 
L 684.39388 370.808426 
L 685.386586 358.206802 
L 686.379292 355.354649 
L 688.364704 393.444748 
L 689.35741 345.26206 
L 690.350116 329.398204 
L 691.342822 332.515692 
L 692.335527 351.329057 
L 693.328233 342.385579 
L 694.320939 323.457712 
L 695.313645 321.807785 
L 696.306351 337.371146 
L 697.299057 344.476923 
L 698.291763 324.532338 
L 699.284469 318.673114 
L 700.277175 329.745671 
L 701.269881 342.23701 
L 702.262587 324.426628 
L 703.255293 315.458553 
L 704.247999 322.492724 
L 705.240705 337.428816 
L 707.226116 313.833909 
L 708.218822 317.435099 
L 709.211528 331.694571 
L 710.204234 325.90657 
L 711.19694 312.034591 
L 712.189646 311.558403 
L 713.182352 322.842929 
L 714.175058 324.572719 
L 715.167764 310.655959 
L 716.16047 306.289309 
L 718.145882 321.144102 
L 719.138587 310.739523 
L 720.131293 302.598883 
L 721.123999 305.27298 
L 722.116705 314.490958 
L 723.109411 312.805954 
L 724.102117 303.046599 
L 725.094823 301.115522 
L 726.087529 308.805808 
L 727.080235 318.504874 
L 728.072941 314.18525 
L 729.065647 308.053905 
L 730.058353 311.714324 
L 731.051059 326.796996 
L 732.043764 343.98339 
L 733.03647 337.557261 
L 734.029176 332.283322 
L 735.021882 339.506296 
L 736.014588 360.62035 
L 737.007294 405.423104 
L 738 411.288402 
L 738.992706 364.864317 
L 739.985412 346.7498 
L 740.978118 345.497928 
L 741.970824 364.381404 
L 742.96353 391.739485 
L 743.956236 352.253311 
L 744.948941 339.772462 
L 745.941647 349.223232 
L 746.934353 384.853275 
L 747.927059 357.45318 
L 748.919765 337.171439 
L 749.912471 339.092846 
L 750.905177 362.051827 
L 751.897883 365.005568 
L 752.890589 340.759688 
L 753.883295 336.451936 
L 754.876001 351.309582 
L 755.868707 395.981712 
L 756.861413 380.366308 
L 757.854118 360.160005 
L 758.846824 358.614643 
L 759.83953 363.201832 
L 760.832236 375.660097 
L 761.824942 428.580756 
L 762.817648 376.134726 
L 763.810354 346.316622 
L 764.80306 341.096416 
L 765.795766 356.489069 
L 766.788472 381.325814 
L 767.781178 349.541757 
L 768.773884 337.791145 
L 769.76659 347.905744 
L 770.759295 385.059974 
L 771.752001 360.467253 
L 772.744707 342.378949 
L 773.737413 349.355649 
L 774.730119 389.150472 
L 776.715531 345.375153 
L 777.708237 350.364728 
L 778.700943 390.31031 
L 779.693649 378.894364 
L 780.686355 351.923788 
L 781.679061 355.987954 
L 782.671767 401.051065 
L 783.664473 388.763458 
L 784.657178 357.756093 
L 785.649884 361.736203 
L 786.64259 411.213452 
L 787.635296 389.486883 
L 788.628002 359.377765 
L 789.620708 362.188729 
L 790.613414 400.230145 
L 791.60612 408.171487 
L 792.598826 370.480508 
L 793.591532 370.118337 
L 794.584238 391.597532 
L 795.576944 400.271444 
L 796.56965 386.258037 
L 797.562355 388.529314 
L 798.555061 386.272196 
L 799.547767 377.31945 
L 800.540473 386.983889 
L 801.533179 431.320332 
L 802.525885 377.828586 
L 803.518591 357.90036 
L 804.511297 363.951614 
L 805.504003 408.592394 
L 806.496709 372.79651 
L 807.489415 346.199724 
L 808.482121 344.832753 
L 809.474827 366.142333 
L 810.467532 376.382605 
L 811.460238 346.287941 
L 812.452944 339.033628 
L 813.44565 352.940494 
L 814.438356 381.172386 
L 815.431062 352.304011 
L 816.423768 338.701173 
L 817.416474 346.120297 
L 818.40918 373.831764 
L 819.401886 356.610172 
L 820.394592 337.193527 
L 821.387298 338.248544 
L 822.380004 358.083495 
L 823.372709 360.609126 
L 824.365415 337.827276 
L 825.358121 332.367185 
L 826.350827 343.865812 
L 827.343533 362.588322 
L 828.336239 344.890151 
L 829.328945 332.172482 
L 830.321651 335.558487 
L 831.314357 355.103053 
L 832.307063 364.885867 
L 833.299769 344.829115 
L 834.292475 338.739357 
L 835.285181 348.628509 
L 836.277886 380.702351 
L 837.270592 396.920157 
L 838.263298 366.168484 
L 839.256004 358.315249 
L 840.24871 362.533715 
L 841.241416 378.642674 
L 842.234122 429.606911 
L 843.226828 406.435967 
L 844.219534 368.237716 
L 845.21224 358.16931 
L 846.204946 367.010942 
L 847.197652 411.608964 
L 848.190358 403.463276 
L 849.183064 368.2332 
L 850.175769 366.619191 
L 851.168475 396.827257 
L 852.161181 415.682363 
L 853.153887 367.010872 
L 854.146593 358.664432 
L 855.139299 374.858683 
L 856.132005 422.653044 
L 857.124711 368.394551 
L 858.117417 350.050306 
L 859.110123 352.43755 
L 860.102829 376.684819 
L 861.095535 405.362908 
L 862.088241 364.984183 
L 863.080946 353.487374 
L 864.073652 362.29755 
L 865.066358 401.654738 
L 866.059064 411.913092 
L 867.05177 370.41608 
L 868.044476 364.946361 
L 869.037182 382.600005 
L 870.029888 472.218576 
L 871.022594 385.581012 
L 872.0153 364.151671 
L 873.008006 365.670349 
L 874.000712 391.275333 
L 874.993418 436.157904 
L 875.986123 372.328 
L 876.978829 357.547211 
L 877.971535 362.856983 
L 878.964241 395.143649 
L 879.956947 420.840538 
L 880.949653 371.570547 
L 881.942359 363.551401 
L 882.935065 378.349791 
L 883.927771 434.397811 
L 884.920477 391.872895 
L 885.913183 374.767205 
L 886.905889 387.55251 
L 887.898595 432.945056 
L 888.8913 384.326537 
L 889.884006 367.809259 
L 890.876712 376.606471 
L 891.869418 432.153237 
L 892.862124 397.77912 
L 893.85483 371.352073 
L 894.847536 375.142922 
L 895.840242 409.685162 
L 896.832948 401.522029 
L 897.825654 376.720098 
L 898.81836 381.965552 
L 899.811066 423.278223 
L 900.803772 394.311058 
L 901.796477 372.779563 
L 902.789183 378.398435 
L 903.781889 425.044586 
L 904.774595 394.792062 
L 905.767301 372.143766 
L 906.760007 379.210963 
L 907.752713 442.266066 
L 908.745419 388.782374 
L 909.738125 364.806811 
L 910.730831 369.535642 
L 911.723537 416.25819 
L 912.716243 398.493177 
L 913.708949 366.149015 
L 914.701655 367.651029 
L 915.69436 405.49494 
L 916.687066 408.024204 
L 917.679772 369.788786 
L 918.672478 370.217596 
L 919.665184 412.604487 
L 920.65789 401.03433 
L 921.650596 365.195103 
L 922.643302 364.438638 
L 923.636008 396.748105 
L 924.628714 413.732001 
L 925.62142 368.20654 
L 926.614126 365.67067 
L 927.606832 398.511804 
L 928.599537 407.439407 
L 929.592243 363.116173 
L 930.584949 358.093944 
L 931.577655 380.409368 
L 932.570361 395.506905 
L 933.563067 356.135271 
L 934.555773 345.867678 
L 935.548479 355.489856 
L 936.541185 382.03505 
L 938.526597 343.443936 
L 939.519303 343.235702 
L 940.512009 360.128349 
L 941.504714 374.988634 
L 942.49742 351.448302 
L 943.490126 339.942784 
L 944.482832 343.187924 
L 945.475538 360.76687 
L 946.468244 371.172113 
L 947.46095 350.131882 
L 948.453656 339.253967 
L 949.446362 341.360072 
L 951.431774 372.151563 
L 952.42448 354.554941 
L 953.417186 340.791518 
L 954.409891 339.846339 
L 955.402597 351.744613 
L 956.395303 373.037433 
L 957.388009 362.059682 
L 958.380715 345.906458 
L 959.373421 344.113101 
L 960.366127 359.161537 
L 961.358833 397.771464 
L 962.351539 375.66563 
L 963.344245 358.62926 
L 964.336951 365.870203 
L 965.329657 414.825721 
L 966.322363 392.367202 
L 967.315068 361.31672 
L 968.307774 361.002055 
L 969.30048 388.413753 
L 970.293186 403.442247 
L 971.285892 364.644493 
L 972.278598 356.937548 
L 973.271304 369.079172 
L 974.26401 413.778386 
L 975.256716 427.762965 
L 976.249422 394.698425 
L 977.242128 387.431665 
L 978.234834 376.848897 
L 979.22754 371.139134 
L 980.220246 384.291249 
L 981.212951 455.220704 
L 982.205657 386.09738 
L 983.198363 363.086865 
L 984.191069 364.88389 
L 985.183775 392.359355 
L 986.176481 449.223096 
L 987.169187 386.366102 
L 988.161893 380.962246 
L 989.154599 400.9396 
L 990.147305 403.840485 
L 991.140011 383.534637 
L 992.132717 385.644197 
L 993.125423 410.273037 
L 994.118128 406.130972 
L 995.110834 389.672598 
L 996.10354 395.648792 
L 997.096246 400.810211 
L 998.088952 383.285944 
L 999.081658 380.888647 
L 1000.074364 410.424746 
L 1001.06707 420.402259 
L 1002.059776 374.647448 
L 1003.052482 367.156656 
L 1004.045188 386.480068 
L 1005.037894 484.321286 
L 1006.0306 385.094998 
L 1007.023305 373.24093 
L 1008.016011 393.206814 
L 1009.008717 430.991584 
L 1010.001423 381.284769 
L 1010.994129 374.324586 
L 1011.986835 402.848751 
L 1012.979541 419.713492 
L 1013.972247 372.689162 
L 1014.964953 368.653561 
L 1015.957659 399.82827 
L 1016.950365 407.886959 
L 1017.943071 363.86846 
L 1018.935777 358.086608 
L 1020.921188 399.044583 
L 1021.913894 360.038478 
L 1022.9066 350.832596 
L 1023.899306 364.428679 
L 1024.892012 402.856243 
L 1025.884718 369.516197 
L 1026.877424 354.451977 
L 1027.87013 363.670861 
L 1028.862836 409.533447 
L 1030.848248 362.066279 
L 1031.840954 366.485159 
L 1032.833659 405.482343 
L 1033.826365 409.517436 
L 1034.819071 372.723555 
L 1035.811777 372.489521 
L 1036.804483 403.087602 
L 1037.797189 422.626147 
L 1038.789895 380.993263 
L 1039.782601 377.650837 
L 1041.768013 430.119546 
L 1042.760719 377.98431 
L 1043.753425 366.437114 
L 1044.746131 376.538898 
L 1045.738837 426.836968 
L 1046.731542 391.616864 
L 1047.724248 361.821385 
L 1048.716954 357.503977 
L 1049.70966 373.407973 
L 1050.702366 408.557189 
L 1051.695072 369.242548 
L 1052.687778 352.125988 
L 1053.680484 355.511927 
L 1054.67319 380.192718 
L 1055.665896 384.216507 
L 1056.658602 355.65814 
L 1057.651308 348.801109 
L 1058.644014 360.251359 
L 1059.636719 391.292792 
L 1060.629425 377.905951 
L 1061.622131 357.24958 
L 1062.614837 354.118613 
L 1063.607543 365.429673 
L 1064.600249 395.917274 
L 1065.592955 400.492674 
L 1066.585661 365.600095 
L 1067.578367 352.040935 
L 1068.571073 353.590298 
L 1069.563779 371.965943 
L 1070.556485 387.977515 
L 1071.549191 359.908215 
L 1072.541896 349.116119 
L 1073.534602 356.608322 
L 1074.527308 389.427864 
L 1075.520014 394.411585 
L 1076.51272 365.536065 
L 1077.505426 364.647894 
L 1078.498132 391.502487 
L 1079.490838 451.925864 
L 1080.483544 383.17892 
L 1081.47625 373.615762 
L 1082.468956 384.58618 
L 1083.461662 411.44221 
L 1084.454368 432.842227 
L 1086.439779 376.407273 
L 1087.432485 363.271249 
L 1088.425191 366.9732 
L 1089.417897 391.988579 
L 1090.410603 376.745834 
L 1091.403309 350.097898 
L 1092.396015 343.6532 
L 1093.388721 354.106794 
L 1094.381427 376.379816 
L 1096.366839 347.531877 
L 1097.359545 351.001137 
L 1098.35225 375.692605 
L 1099.344956 407.098079 
L 1100.337662 371.648894 
L 1101.330368 364.871044 
L 1102.323074 380.191021 
L 1103.31578 435.519763 
L 1104.308486 407.423167 
L 1105.301192 386.947204 
L 1106.293898 387.113687 
L 1107.286604 394.09458 
L 1109.272016 415.829005 
L 1111.257428 383.532165 
L 1112.250133 384.479487 
L 1113.242839 406.481845 
L 1114.235545 423.600929 
L 1115.228251 392.038006 
L 1116.220957 384.736644 
L 1117.213663 394.91833 
L 1118.206369 407.997313 
L 1119.199075 399.632592 
L 1120.191781 398.024819 
L 1121.184487 404.027888 
L 1123.169899 388.688842 
L 1124.162605 398.273229 
L 1125.15531 421.319254 
L 1126.148016 394.745229 
L 1127.140722 380.344511 
L 1128.133428 388.603867 
L 1129.126134 438.136203 
L 1130.11884 400.496547 
L 1131.111546 374.944835 
L 1132.104252 375.628325 
L 1134.089664 436.559603 
L 1135.08237 381.206416 
L 1136.075076 371.248323 
L 1137.067782 383.709736 
L 1138.060487 445.97656 
L 1139.053193 402.301231 
L 1140.045899 376.633485 
L 1141.038605 377.266633 
L 1142.031311 404.083483 
L 1143.024017 435.418287 
L 1144.016723 385.903539 
L 1145.009429 376.364937 
L 1146.002135 390.690139 
L 1146.994841 445.683633 
L 1147.987547 395.176771 
L 1148.980253 377.605936 
L 1149.972959 387.165544 
L 1150.965664 448.303344 
L 1151.95837 393.379088 
L 1152.951076 370.773936 
L 1153.943782 375.321513 
L 1154.936488 419.784658 
L 1155.929194 395.625024 
L 1156.9219 363.423752 
L 1157.914606 359.880592 
L 1158.907312 379.776631 
L 1159.900018 417.679572 
L 1160.892724 373.095561 
L 1161.88543 360.72412 
L 1162.878136 370.828621 
L 1163.870841 419.306304 
L 1164.863547 411.211105 
L 1165.856253 380.685679 
L 1166.848959 384.137337 
L 1167.841665 407.378676 
L 1168.834371 401.76517 
L 1169.827077 390.720877 
L 1171.812489 415.972892 
L 1172.805195 390.077801 
L 1173.797901 384.824573 
L 1174.790607 406.848544 
L 1175.783313 417.703214 
L 1176.776019 383.95451 
L 1177.768724 378.721006 
L 1178.76143 403.420802 
L 1179.754136 439.980693 
L 1180.746842 380.391463 
L 1181.739548 368.988906 
L 1182.732254 380.048175 
L 1183.72496 438.483095 
L 1185.710372 377.663436 
L 1186.703078 374.831273 
L 1187.695784 389.044902 
L 1188.68849 424.960518 
L 1189.681196 421.320762 
L 1190.673901 389.633316 
L 1191.666607 377.328079 
L 1192.659313 381.715667 
L 1193.652019 415.753181 
L 1194.644725 421.525417 
L 1195.637431 375.120343 
L 1196.630137 365.927657 
L 1197.622843 380.446827 
L 1198.615549 428.679491 
L 1199.608255 374.47399 
L 1200.600961 355.471846 
L 1201.593667 358.154087 
L 1202.586373 382.902526 
L 1203.579078 383.756933 
L 1204.571784 356.60872 
L 1205.56449 350.646866 
L 1206.557196 363.428951 
L 1207.549902 399.153871 
L 1209.535314 361.681327 
L 1210.52802 363.972381 
L 1211.520726 387.728918 
L 1212.513432 492.48 
L 1213.506138 402.712465 
L 1214.498844 387.068967 
L 1215.49155 386.478568 
L 1216.484255 388.389456 
L 1217.476961 396.738723 
L 1218.469667 425.818549 
L 1219.462373 412.490022 
L 1220.455079 382.536147 
L 1221.447785 376.102597 
L 1222.440491 390.207319 
L 1223.433197 450.507459 
L 1224.425903 402.10483 
L 1225.418609 379.345981 
L 1226.411315 380.866656 
L 1227.404021 405.76848 
L 1228.396727 427.271325 
L 1229.389432 393.097229 
L 1230.382138 384.947099 
L 1231.374844 395.423815 
L 1232.36755 415.411798 
L 1234.352962 390.907551 
L 1235.345668 394.026159 
L 1236.338374 406.900095 
L 1237.33108 406.405318 
L 1238.323786 395.027656 
L 1239.316492 392.451827 
L 1240.309198 400.024127 
L 1241.301904 408.699705 
L 1242.29461 402.217332 
L 1243.287315 393.807981 
L 1244.280021 393.812418 
L 1245.272727 401.567523 
L 1245.272727 401.567523 
" clip-path="url(#p330dc5a15e)" style="fill: none; stroke: #1f77b4; stroke-width: 1.5; stroke-linecap: square"/>
   </g>
   <g id="patch_3">
    <path d="M 180 512.64 
L 180 69.12 
" style="fill: none; stroke: #000000; stroke-width: 0.8; stroke-linejoin: miter; stroke-linecap: square"/>
   </g>
   <g id="patch_4">
    <path d="M 1296 512.64 
L 1296 69.12 
" style="fill: none; stroke: #000000; stroke-width: 0.8; stroke-linejoin: miter; stroke-linecap: square"/>
   </g>
   <g id="patch_5">
    <path d="M 180 512.64 
L 1296 512.64 
" style="fill: none; stroke: #000000; stroke-width: 0.8; stroke-linejoin: miter; stroke-linecap: square"/>
   </g>
   <g id="patch_6">
    <path d="M 180 69.12 
L 1296 69.12 
" style="fill: none; stroke: #000000; stroke-width: 0.8; stroke-linejoin: miter; stroke-linecap: square"/>
   </g>
   <g id="text_12">
    <!-- source7-receiver14 -->
    <g transform="translate(544.9 60.80125) scale(0.4 -0.4)">
     <defs>
      <path id="DejaVuSans-73" d="M 2834 3397 
L 2834 2853 
Q 2591 2978 2328 3040 
Q 2066 3103 1784 3103 
Q 1356 3103 1142 2972 
Q 928 2841 928 2578 
Q 928 2378 1081 2264 
Q 1234 2150 1697 2047 
L 1894 2003 
Q 2506 1872 2764 1633 
Q 3022 1394 3022 966 
Q 3022 478 2636 193 
Q 2250 -91 1575 -91 
Q 1294 -91 989 -36 
Q 684 19 347 128 
L 347 722 
Q 666 556 975 473 
Q 1284 391 1588 391 
Q 1994 391 2212 530 
Q 2431 669 2431 922 
Q 2431 1156 2273 1281 
Q 2116 1406 1581 1522 
L 1381 1569 
Q 847 1681 609 1914 
Q 372 2147 372 2553 
Q 372 3047 722 3315 
Q 1072 3584 1716 3584 
Q 2034 3584 2315 3537 
Q 2597 3491 2834 3397 
z
" transform="scale(0.015625)"/>
      <path id="DejaVuSans-6f" d="M 1959 3097 
Q 1497 3097 1228 2736 
Q 959 2375 959 1747 
Q 959 1119 1226 758 
Q 1494 397 1959 397 
Q 2419 397 2687 759 
Q 2956 1122 2956 1747 
Q 2956 2369 2687 2733 
Q 2419 3097 1959 3097 
z
M 1959 3584 
Q 2709 3584 3137 3096 
Q 3566 2609 3566 1747 
Q 3566 888 3137 398 
Q 2709 -91 1959 -91 
Q 1206 -91 779 398 
Q 353 888 353 1747 
Q 353 2609 779 3096 
Q 1206 3584 1959 3584 
z
" transform="scale(0.015625)"/>
      <path id="DejaVuSans-75" d="M 544 1381 
L 544 3500 
L 1119 3500 
L 1119 1403 
Q 1119 906 1312 657 
Q 1506 409 1894 409 
Q 2359 409 2629 706 
Q 2900 1003 2900 1516 
L 2900 3500 
L 3475 3500 
L 3475 0 
L 2900 0 
L 2900 538 
Q 2691 219 2414 64 
Q 2138 -91 1772 -91 
Q 1169 -91 856 284 
Q 544 659 544 1381 
z
M 1991 3584 
L 1991 3584 
z
" transform="scale(0.015625)"/>
      <path id="DejaVuSans-72" d="M 2631 2963 
Q 2534 3019 2420 3045 
Q 2306 3072 2169 3072 
Q 1681 3072 1420 2755 
Q 1159 2438 1159 1844 
L 1159 0 
L 581 0 
L 581 3500 
L 1159 3500 
L 1159 2956 
Q 1341 3275 1631 3429 
Q 1922 3584 2338 3584 
Q 2397 3584 2469 3576 
Q 2541 3569 2628 3553 
L 2631 2963 
z
" transform="scale(0.015625)"/>
      <path id="DejaVuSans-63" d="M 3122 3366 
L 3122 2828 
Q 2878 2963 2633 3030 
Q 2388 3097 2138 3097 
Q 1578 3097 1268 2742 
Q 959 2388 959 1747 
Q 959 1106 1268 751 
Q 1578 397 2138 397 
Q 2388 397 2633 464 
Q 2878 531 3122 666 
L 3122 134 
Q 2881 22 2623 -34 
Q 2366 -91 2075 -91 
Q 1284 -91 818 406 
Q 353 903 353 1747 
Q 353 2603 823 3093 
Q 1294 3584 2113 3584 
Q 2378 3584 2631 3529 
Q 2884 3475 3122 3366 
z
" transform="scale(0.015625)"/>
      <path id="DejaVuSans-65" d="M 3597 1894 
L 3597 1613 
L 953 1613 
Q 991 1019 1311 708 
Q 1631 397 2203 397 
Q 2534 397 2845 478 
Q 3156 559 3463 722 
L 3463 178 
Q 3153 47 2828 -22 
Q 2503 -91 2169 -91 
Q 1331 -91 842 396 
Q 353 884 353 1716 
Q 353 2575 817 3079 
Q 1281 3584 2069 3584 
Q 2775 3584 3186 3129 
Q 3597 2675 3597 1894 
z
M 3022 2063 
Q 3016 2534 2758 2815 
Q 2500 3097 2075 3097 
Q 1594 3097 1305 2825 
Q 1016 2553 972 2059 
L 3022 2063 
z
" transform="scale(0.015625)"/>
      <path id="DejaVuSans-37" d="M 525 4666 
L 3525 4666 
L 3525 4397 
L 1831 0 
L 1172 0 
L 2766 4134 
L 525 4134 
L 525 4666 
z
" transform="scale(0.015625)"/>
      <path id="DejaVuSans-2d" d="M 313 2009 
L 1997 2009 
L 1997 1497 
L 313 1497 
L 313 2009 
z
" transform="scale(0.015625)"/>
      <path id="DejaVuSans-69" d="M 603 3500 
L 1178 3500 
L 1178 0 
L 603 0 
L 603 3500 
z
M 603 4863 
L 1178 4863 
L 1178 4134 
L 603 4134 
L 603 4863 
z
" transform="scale(0.015625)"/>
      <path id="DejaVuSans-76" d="M 191 3500 
L 800 3500 
L 1894 563 
L 2988 3500 
L 3597 3500 
L 2284 0 
L 1503 0 
L 191 3500 
z
" transform="scale(0.015625)"/>
     </defs>
     <use xlink:href="#DejaVuSans-73"/>
     <use xlink:href="#DejaVuSans-6f" x="52.099609"/>
     <use xlink:href="#DejaVuSans-75" x="113.28125"/>
     <use xlink:href="#DejaVuSans-72" x="176.660156"/>
     <use xlink:href="#DejaVuSans-63" x="215.523438"/>
     <use xlink:href="#DejaVuSans-65" x="270.503906"/>
     <use xlink:href="#DejaVuSans-37" x="332.027344"/>
     <use xlink:href="#DejaVuSans-2d" x="395.650391"/>
     <use xlink:href="#DejaVuSans-72" x="431.734375"/>
     <use xlink:href="#DejaVuSans-65" x="470.597656"/>
     <use xlink:href="#DejaVuSans-63" x="532.121094"/>
     <use xlink:href="#DejaVuSans-65" x="587.101562"/>
     <use xlink:href="#DejaVuSans-69" x="648.625"/>
     <use xlink:href="#DejaVuSans-76" x="676.408203"/>
     <use xlink:href="#DejaVuSans-65" x="735.587891"/>
     <use xlink:href="#DejaVuSans-72" x="797.111328"/>
     <use xlink:href="#DejaVuSans-31" x="838.224609"/>
     <use xlink:href="#DejaVuSans-34" x="901.847656"/>
    </g>
   </g>
  </g>
 </g>
 <defs>
  <clipPath id="p330dc5a15e">
   <rect x="180" y="69.12" width="1116" height="443.52"/>
  </clipPath>
 </defs>
</svg>
