<?xml version="1.0" encoding="utf-8" standalone="no"?>
<!DOCTYPE svg PUBLIC "-//W3C//DTD SVG 1.1//EN"
  "http://www.w3.org/Graphics/SVG/1.1/DTD/svg11.dtd">
<svg xmlns:xlink="http://www.w3.org/1999/xlink" width="1440pt" height="576pt" viewBox="0 0 1440 576" xmlns="http://www.w3.org/2000/svg" version="1.1">
 <metadata>
  <rdf:RDF xmlns:dc="http://purl.org/dc/elements/1.1/" xmlns:cc="http://creativecommons.org/ns#" xmlns:rdf="http://www.w3.org/1999/02/22-rdf-syntax-ns#">
   <cc:Work>
    <dc:type rdf:resource="http://purl.org/dc/dcmitype/StillImage"/>
    <dc:date>2024-05-22T04:49:50.813298</dc:date>
    <dc:format>image/svg+xml</dc:format>
    <dc:creator>
     <cc:Agent>
      <dc:title>Matplotlib v3.8.3, https://matplotlib.org/</dc:title>
     </cc:Agent>
    </dc:creator>
   </cc:Work>
  </rdf:RDF>
 </metadata>
 <defs>
  <style type="text/css">*{stroke-linejoin: round; stroke-linecap: butt}</style>
 </defs>
 <g id="figure_1">
  <g id="patch_1">
   <path d="M 0 576 
L 1440 576 
L 1440 0 
L 0 0 
z
" style="fill: #ffffff"/>
  </g>
  <g id="axes_1">
   <g id="patch_2">
    <path d="M 180 512.64 
L 1296 512.64 
L 1296 69.12 
L 180 69.12 
z
" style="fill: #ffffff"/>
   </g>
   <g id="matplotlib.axis_1">
    <g id="xtick_1">
     <g id="line2d_1">
      <defs>
       <path id="m41e5d0a79a" d="M 0 0 
L 0 3.5 
" style="stroke: #000000; stroke-width: 0.8"/>
      </defs>
      <g>
       <use xlink:href="#m41e5d0a79a" x="229.734567" y="512.64" style="stroke: #000000; stroke-width: 0.8"/>
      </g>
     </g>
     <g id="text_1">
      <!-- 0 -->
      <g transform="translate(226.553317 527.238438) scale(0.1 -0.1)">
       <defs>
        <path id="DejaVuSans-30" d="M 2034 4250 
Q 1547 4250 1301 3770 
Q 1056 3291 1056 2328 
Q 1056 1369 1301 889 
Q 1547 409 2034 409 
Q 2525 409 2770 889 
Q 3016 1369 3016 2328 
Q 3016 3291 2770 3770 
Q 2525 4250 2034 4250 
z
M 2034 4750 
Q 2819 4750 3233 4129 
Q 3647 3509 3647 2328 
Q 3647 1150 3233 529 
Q 2819 -91 2034 -91 
Q 1250 -91 836 529 
Q 422 1150 422 2328 
Q 422 3509 836 4129 
Q 1250 4750 2034 4750 
z
" transform="scale(0.015625)"/>
       </defs>
       <use xlink:href="#DejaVuSans-30"/>
      </g>
     </g>
    </g>
    <g id="xtick_2">
     <g id="line2d_2">
      <g>
       <use xlink:href="#m41e5d0a79a" x="433.04074" y="512.64" style="stroke: #000000; stroke-width: 0.8"/>
      </g>
     </g>
     <g id="text_2">
      <!-- 500 -->
      <g transform="translate(423.49699 527.238438) scale(0.1 -0.1)">
       <defs>
        <path id="DejaVuSans-35" d="M 691 4666 
L 3169 4666 
L 3169 4134 
L 1269 4134 
L 1269 2991 
Q 1406 3038 1543 3061 
Q 1681 3084 1819 3084 
Q 2600 3084 3056 2656 
Q 3513 2228 3513 1497 
Q 3513 744 3044 326 
Q 2575 -91 1722 -91 
Q 1428 -91 1123 -41 
Q 819 9 494 109 
L 494 744 
Q 775 591 1075 516 
Q 1375 441 1709 441 
Q 2250 441 2565 725 
Q 2881 1009 2881 1497 
Q 2881 1984 2565 2268 
Q 2250 2553 1709 2553 
Q 1456 2553 1204 2497 
Q 953 2441 691 2322 
L 691 4666 
z
" transform="scale(0.015625)"/>
       </defs>
       <use xlink:href="#DejaVuSans-35"/>
       <use xlink:href="#DejaVuSans-30" x="63.623047"/>
       <use xlink:href="#DejaVuSans-30" x="127.246094"/>
      </g>
     </g>
    </g>
    <g id="xtick_3">
     <g id="line2d_3">
      <g>
       <use xlink:href="#m41e5d0a79a" x="636.346913" y="512.64" style="stroke: #000000; stroke-width: 0.8"/>
      </g>
     </g>
     <g id="text_3">
      <!-- 1000 -->
      <g transform="translate(623.621913 527.238438) scale(0.1 -0.1)">
       <defs>
        <path id="DejaVuSans-31" d="M 794 531 
L 1825 531 
L 1825 4091 
L 703 3866 
L 703 4441 
L 1819 4666 
L 2450 4666 
L 2450 531 
L 3481 531 
L 3481 0 
L 794 0 
L 794 531 
z
" transform="scale(0.015625)"/>
       </defs>
       <use xlink:href="#DejaVuSans-31"/>
       <use xlink:href="#DejaVuSans-30" x="63.623047"/>
       <use xlink:href="#DejaVuSans-30" x="127.246094"/>
       <use xlink:href="#DejaVuSans-30" x="190.869141"/>
      </g>
     </g>
    </g>
    <g id="xtick_4">
     <g id="line2d_4">
      <g>
       <use xlink:href="#m41e5d0a79a" x="839.653087" y="512.64" style="stroke: #000000; stroke-width: 0.8"/>
      </g>
     </g>
     <g id="text_4">
      <!-- 1500 -->
      <g transform="translate(826.928087 527.238438) scale(0.1 -0.1)">
       <use xlink:href="#DejaVuSans-31"/>
       <use xlink:href="#DejaVuSans-35" x="63.623047"/>
       <use xlink:href="#DejaVuSans-30" x="127.246094"/>
       <use xlink:href="#DejaVuSans-30" x="190.869141"/>
      </g>
     </g>
    </g>
    <g id="xtick_5">
     <g id="line2d_5">
      <g>
       <use xlink:href="#m41e5d0a79a" x="1042.95926" y="512.64" style="stroke: #000000; stroke-width: 0.8"/>
      </g>
     </g>
     <g id="text_5">
      <!-- 2000 -->
      <g transform="translate(1030.23426 527.238438) scale(0.1 -0.1)">
       <defs>
        <path id="DejaVuSans-32" d="M 1228 531 
L 3431 531 
L 3431 0 
L 469 0 
L 469 531 
Q 828 903 1448 1529 
Q 2069 2156 2228 2338 
Q 2531 2678 2651 2914 
Q 2772 3150 2772 3378 
Q 2772 3750 2511 3984 
Q 2250 4219 1831 4219 
Q 1534 4219 1204 4116 
Q 875 4013 500 3803 
L 500 4441 
Q 881 4594 1212 4672 
Q 1544 4750 1819 4750 
Q 2544 4750 2975 4387 
Q 3406 4025 3406 3419 
Q 3406 3131 3298 2873 
Q 3191 2616 2906 2266 
Q 2828 2175 2409 1742 
Q 1991 1309 1228 531 
z
" transform="scale(0.015625)"/>
       </defs>
       <use xlink:href="#DejaVuSans-32"/>
       <use xlink:href="#DejaVuSans-30" x="63.623047"/>
       <use xlink:href="#DejaVuSans-30" x="127.246094"/>
       <use xlink:href="#DejaVuSans-30" x="190.869141"/>
      </g>
     </g>
    </g>
    <g id="xtick_6">
     <g id="line2d_6">
      <g>
       <use xlink:href="#m41e5d0a79a" x="1246.265433" y="512.64" style="stroke: #000000; stroke-width: 0.8"/>
      </g>
     </g>
     <g id="text_6">
      <!-- 2500 -->
      <g transform="translate(1233.540433 527.238438) scale(0.1 -0.1)">
       <use xlink:href="#DejaVuSans-32"/>
       <use xlink:href="#DejaVuSans-35" x="63.623047"/>
       <use xlink:href="#DejaVuSans-30" x="127.246094"/>
       <use xlink:href="#DejaVuSans-30" x="190.869141"/>
      </g>
     </g>
    </g>
   </g>
   <g id="matplotlib.axis_2">
    <g id="ytick_1">
     <g id="line2d_7">
      <defs>
       <path id="mdf78dbb947" d="M 0 0 
L -3.5 0 
" style="stroke: #000000; stroke-width: 0.8"/>
      </defs>
      <g>
       <use xlink:href="#mdf78dbb947" x="180" y="494.193135" style="stroke: #000000; stroke-width: 0.8"/>
      </g>
     </g>
     <g id="text_7">
      <!-- −2 -->
      <g transform="translate(158.257812 497.992354) scale(0.1 -0.1)">
       <defs>
        <path id="DejaVuSans-2212" d="M 678 2272 
L 4684 2272 
L 4684 1741 
L 678 1741 
L 678 2272 
z
" transform="scale(0.015625)"/>
       </defs>
       <use xlink:href="#DejaVuSans-2212"/>
       <use xlink:href="#DejaVuSans-32" x="83.789062"/>
      </g>
     </g>
    </g>
    <g id="ytick_2">
     <g id="line2d_8">
      <g>
       <use xlink:href="#mdf78dbb947" x="180" y="428.930625" style="stroke: #000000; stroke-width: 0.8"/>
      </g>
     </g>
     <g id="text_8">
      <!-- −1 -->
      <g transform="translate(158.257812 432.729843) scale(0.1 -0.1)">
       <use xlink:href="#DejaVuSans-2212"/>
       <use xlink:href="#DejaVuSans-31" x="83.789062"/>
      </g>
     </g>
    </g>
    <g id="ytick_3">
     <g id="line2d_9">
      <g>
       <use xlink:href="#mdf78dbb947" x="180" y="363.668114" style="stroke: #000000; stroke-width: 0.8"/>
      </g>
     </g>
     <g id="text_9">
      <!-- 0 -->
      <g transform="translate(166.6375 367.467333) scale(0.1 -0.1)">
       <use xlink:href="#DejaVuSans-30"/>
      </g>
     </g>
    </g>
    <g id="ytick_4">
     <g id="line2d_10">
      <g>
       <use xlink:href="#mdf78dbb947" x="180" y="298.405604" style="stroke: #000000; stroke-width: 0.8"/>
      </g>
     </g>
     <g id="text_10">
      <!-- 1 -->
      <g transform="translate(166.6375 302.204822) scale(0.1 -0.1)">
       <use xlink:href="#DejaVuSans-31"/>
      </g>
     </g>
    </g>
    <g id="ytick_5">
     <g id="line2d_11">
      <g>
       <use xlink:href="#mdf78dbb947" x="180" y="233.143093" style="stroke: #000000; stroke-width: 0.8"/>
      </g>
     </g>
     <g id="text_11">
      <!-- 2 -->
      <g transform="translate(166.6375 236.942312) scale(0.1 -0.1)">
       <use xlink:href="#DejaVuSans-32"/>
      </g>
     </g>
    </g>
    <g id="ytick_6">
     <g id="line2d_12">
      <g>
       <use xlink:href="#mdf78dbb947" x="180" y="167.880583" style="stroke: #000000; stroke-width: 0.8"/>
      </g>
     </g>
     <g id="text_12">
      <!-- 3 -->
      <g transform="translate(166.6375 171.679802) scale(0.1 -0.1)">
       <defs>
        <path id="DejaVuSans-33" d="M 2597 2516 
Q 3050 2419 3304 2112 
Q 3559 1806 3559 1356 
Q 3559 666 3084 287 
Q 2609 -91 1734 -91 
Q 1441 -91 1130 -33 
Q 819 25 488 141 
L 488 750 
Q 750 597 1062 519 
Q 1375 441 1716 441 
Q 2309 441 2620 675 
Q 2931 909 2931 1356 
Q 2931 1769 2642 2001 
Q 2353 2234 1838 2234 
L 1294 2234 
L 1294 2753 
L 1863 2753 
Q 2328 2753 2575 2939 
Q 2822 3125 2822 3475 
Q 2822 3834 2567 4026 
Q 2313 4219 1838 4219 
Q 1578 4219 1281 4162 
Q 984 4106 628 3988 
L 628 4550 
Q 988 4650 1302 4700 
Q 1616 4750 1894 4750 
Q 2613 4750 3031 4423 
Q 3450 4097 3450 3541 
Q 3450 3153 3228 2886 
Q 3006 2619 2597 2516 
z
" transform="scale(0.015625)"/>
       </defs>
       <use xlink:href="#DejaVuSans-33"/>
      </g>
     </g>
    </g>
    <g id="ytick_7">
     <g id="line2d_13">
      <g>
       <use xlink:href="#mdf78dbb947" x="180" y="102.618072" style="stroke: #000000; stroke-width: 0.8"/>
      </g>
     </g>
     <g id="text_13">
      <!-- 4 -->
      <g transform="translate(166.6375 106.417291) scale(0.1 -0.1)">
       <defs>
        <path id="DejaVuSans-34" d="M 2419 4116 
L 825 1625 
L 2419 1625 
L 2419 4116 
z
M 2253 4666 
L 3047 4666 
L 3047 1625 
L 3713 1625 
L 3713 1100 
L 3047 1100 
L 3047 0 
L 2419 0 
L 2419 1100 
L 313 1100 
L 313 1709 
L 2253 4666 
z
" transform="scale(0.015625)"/>
       </defs>
       <use xlink:href="#DejaVuSans-34"/>
      </g>
     </g>
    </g>
   </g>
   <g id="line2d_14">
    <path d="M 230.727273 335.132218 
L 231.719979 334.904569 
L 233.70539 333.972547 
L 234.698096 333.16992 
L 236.683508 331.247951 
L 238.66892 328.54739 
L 239.661626 326.997451 
L 241.647038 323.321146 
L 242.639744 321.20774 
L 244.625156 316.404405 
L 245.617862 316.024948 
L 246.610568 316.617711 
L 247.603273 308.550506 
L 248.595979 292.412162 
L 249.588685 289.352626 
L 250.581391 321.874608 
L 251.574097 329.220903 
L 252.566803 260.111885 
L 253.559509 242.757793 
L 254.552215 266.664785 
L 255.544921 325.812029 
L 256.537627 252.665771 
L 257.530333 253.368559 
L 258.523039 286.895025 
L 259.515745 203.637789 
L 260.50845 178.899146 
L 261.501156 194.605192 
L 262.493862 215.893278 
L 263.486568 166.873858 
L 264.479274 155.024371 
L 265.47198 179.06486 
L 266.464686 171.888223 
L 267.457392 137.650606 
L 268.450098 137.170406 
L 269.442804 177.412123 
L 270.43551 232.137657 
L 271.428216 180.574262 
L 272.420922 196.358717 
L 273.413627 220.841434 
L 274.406333 176.801476 
L 275.399039 178.278174 
L 276.391745 232.463956 
L 277.384451 303.796234 
L 278.377157 304.165261 
L 279.369863 180.5546 
L 280.362569 124.7255 
L 281.355275 98.991953 
L 282.347981 91.117418 
L 283.340687 91.793625 
L 284.333393 91.343179 
L 285.326099 89.28 
L 286.318804 94.46996 
L 288.304216 127.948086 
L 289.296922 131.614961 
L 290.289628 133.44917 
L 291.282334 138.509158 
L 292.27504 148.800226 
L 294.260452 203.054257 
L 295.253158 181.847254 
L 296.245864 186.631541 
L 297.23857 247.113919 
L 298.231276 247.471407 
L 299.223981 213.887496 
L 300.216687 240.946105 
L 301.209393 309.101825 
L 302.202099 258.282972 
L 303.194805 273.570817 
L 304.187511 451.393164 
L 305.180217 294.673795 
L 306.172923 286.689971 
L 307.165629 319.937465 
L 308.158335 318.3607 
L 309.151041 315.732191 
L 310.143747 324.302877 
L 311.136453 324.297447 
L 312.129159 325.716101 
L 313.121864 327.382893 
L 314.11457 326.520429 
L 315.107276 328.438241 
L 316.099982 335.78505 
L 317.092688 333.409695 
L 318.085394 334.473239 
L 319.0781 337.833471 
L 320.070806 338.597009 
L 321.063512 343.440911 
L 322.056218 340.572409 
L 323.048924 341.709746 
L 324.04163 346.963155 
L 325.034336 344.688761 
L 326.027041 350.822231 
L 327.019747 347.561289 
L 328.012453 351.327646 
L 329.005159 348.953702 
L 329.997865 352.892662 
L 330.990571 354.914405 
L 331.983277 349.704321 
L 332.975983 354.9691 
L 333.968689 355.498975 
L 335.954101 360.336107 
L 336.946807 360.75203 
L 337.939513 358.787123 
L 338.932218 361.624957 
L 339.924924 362.083686 
L 340.91763 359.95278 
L 341.910336 360.566006 
L 342.903042 368.862653 
L 343.895748 365.50709 
L 344.888454 362.889934 
L 345.88116 363.677913 
L 346.873866 365.743242 
L 347.866572 369.165636 
L 348.859278 369.193269 
L 349.851984 370.03849 
L 350.84469 374.297016 
L 352.830101 366.71993 
L 353.822807 373.627124 
L 354.815513 374.906588 
L 355.808219 369.091041 
L 356.800925 373.372637 
L 357.793631 379.164861 
L 358.786337 377.159157 
L 359.779043 375.854103 
L 360.771749 382.243266 
L 361.764455 378.04899 
L 362.757161 380.248087 
L 363.749867 376.606919 
L 364.742572 376.241544 
L 365.735278 381.128503 
L 366.727984 377.919623 
L 367.72069 382.156073 
L 368.713396 383.18714 
L 369.706102 380.780806 
L 370.698808 381.110123 
L 371.691514 386.324638 
L 372.68422 386.179075 
L 373.676926 382.889887 
L 374.669632 387.083297 
L 375.662338 382.641017 
L 376.655044 382.824936 
L 377.64775 385.777799 
L 378.640455 387.953957 
L 379.633161 391.802821 
L 380.625867 388.856293 
L 381.618573 389.082044 
L 382.611279 392.549418 
L 383.603985 385.415006 
L 384.596691 389.256904 
L 385.589397 389.92225 
L 386.582103 391.668179 
L 387.574809 396.404697 
L 388.567515 394.460725 
L 389.560221 394.962597 
L 390.552927 392.583797 
L 391.545632 394.424507 
L 392.538338 397.527543 
L 393.531044 394.611022 
L 394.52375 395.08559 
L 395.516456 394.187757 
L 396.509162 397.803254 
L 397.501868 392.726357 
L 398.494574 396.586499 
L 399.48728 401.546972 
L 400.479986 399.83658 
L 401.472692 399.117583 
L 402.465398 399.352158 
L 403.458104 405.871154 
L 404.450809 401.017949 
L 405.443515 400.583381 
L 406.436221 403.452607 
L 407.428927 400.503837 
L 408.421633 407.760058 
L 409.414339 405.382016 
L 410.407045 404.057992 
L 411.399751 407.410436 
L 412.392457 407.297206 
L 413.385163 400.32364 
L 414.377869 411.941426 
L 415.370575 404.372064 
L 416.363281 401.538925 
L 417.355986 407.338595 
L 418.348692 407.676547 
L 419.341398 404.144696 
L 420.334104 407.482521 
L 421.32681 404.857601 
L 422.319516 405.005283 
L 423.312222 406.632353 
L 424.304928 410.143845 
L 425.297634 405.555259 
L 426.29034 405.850895 
L 427.283046 410.613065 
L 428.275752 404.454791 
L 430.261163 412.414302 
L 431.253869 408.353563 
L 432.246575 408.375813 
L 433.239281 410.773085 
L 434.231987 418.581003 
L 435.224693 416.958979 
L 436.217399 407.070085 
L 437.210105 404.785063 
L 438.202811 409.51058 
L 439.195517 419.826781 
L 440.188223 412.548624 
L 441.180929 416.657692 
L 442.173635 411.046552 
L 443.166341 419.417014 
L 444.159046 414.885205 
L 445.151752 415.234957 
L 446.144458 412.826934 
L 447.137164 423.45457 
L 448.12987 414.078974 
L 449.122576 417.282286 
L 450.115282 413.918909 
L 451.107988 415.681851 
L 452.100694 417.101792 
L 453.0934 419.894372 
L 454.086106 415.291373 
L 455.078812 417.379572 
L 456.071518 419.114516 
L 457.064223 418.011123 
L 458.056929 421.872404 
L 459.049635 422.217264 
L 460.042341 423.218607 
L 461.035047 418.394205 
L 462.027753 414.562802 
L 463.020459 416.564398 
L 464.013165 420.256212 
L 465.005871 420.479168 
L 465.998577 420.925239 
L 466.991283 430.743578 
L 468.976695 420.65611 
L 469.9694 422.886427 
L 470.962106 434.959528 
L 472.947518 424.56647 
L 473.940224 426.322725 
L 474.93293 417.159543 
L 475.925636 422.407958 
L 476.918342 428.929366 
L 477.911048 428.191329 
L 478.903754 424.247288 
L 479.89646 428.096576 
L 480.889166 432.460567 
L 481.881872 427.166416 
L 482.874577 425.527107 
L 483.867283 425.784411 
L 484.859989 430.445681 
L 485.852695 433.143109 
L 486.845401 421.131323 
L 487.838107 425.405168 
L 488.830813 427.741198 
L 489.823519 426.802623 
L 490.816225 430.171967 
L 491.808931 432.820137 
L 492.801637 424.574974 
L 493.794343 432.480979 
L 494.787049 431.262659 
L 495.779754 429.795766 
L 496.77246 429.705524 
L 497.765166 424.502661 
L 499.750578 436.107686 
L 500.743284 427.723224 
L 501.73599 429.659007 
L 502.728696 433.038091 
L 503.721402 429.78649 
L 504.714108 438.341248 
L 505.706814 428.977762 
L 506.69952 431.499674 
L 507.692226 428.160091 
L 508.684932 436.333387 
L 509.677637 428.316258 
L 510.670343 437.92784 
L 511.663049 421.34212 
L 512.655755 433.984716 
L 513.648461 426.973433 
L 514.641167 440.115624 
L 515.633873 429.562365 
L 516.626579 438.005502 
L 517.619285 431.66449 
L 518.611991 436.535791 
L 519.604697 439.053903 
L 520.597403 429.033212 
L 521.590109 438.130522 
L 522.582814 434.362475 
L 523.57552 437.131315 
L 524.568226 436.260842 
L 525.560932 442.794632 
L 526.553638 433.975671 
L 527.546344 438.987549 
L 528.53905 438.795005 
L 529.531756 434.542742 
L 530.524462 449.260677 
L 531.517168 452.870716 
L 532.509874 436.522465 
L 533.50258 434.299513 
L 534.495286 439.621715 
L 535.487991 433.32278 
L 536.480697 444.281199 
L 537.473403 434.045794 
L 538.466109 431.951322 
L 539.458815 438.427498 
L 540.451521 439.332894 
L 541.444227 439.787638 
L 542.436933 441.882359 
L 543.429639 442.281042 
L 544.422345 436.15417 
L 545.415051 434.051068 
L 546.407757 437.196504 
L 547.400463 439.089836 
L 548.393168 438.422673 
L 549.385874 441.219197 
L 550.37858 439.740188 
L 552.363992 453.207035 
L 553.356698 437.711103 
L 554.349404 446.510389 
L 555.34211 440.912076 
L 556.334816 443.084277 
L 557.327522 459.547359 
L 558.320228 443.767895 
L 559.312934 436.817207 
L 560.30564 448.271721 
L 561.298345 442.860152 
L 562.291051 442.168793 
L 563.283757 442.243819 
L 564.276463 443.094903 
L 565.269169 440.645811 
L 566.261875 444.646206 
L 567.254581 441.088423 
L 568.247287 447.388375 
L 569.239993 451.130546 
L 570.232699 438.284839 
L 571.225405 449.698363 
L 572.218111 444.215152 
L 573.210817 446.707564 
L 574.203523 448.544943 
L 575.196228 447.902778 
L 576.188934 452.394037 
L 577.18164 450.303478 
L 578.174346 453.626689 
L 579.167052 448.418713 
L 580.159758 446.773453 
L 581.152464 440.014536 
L 582.14517 450.165462 
L 583.137876 448.541867 
L 584.130582 452.881305 
L 585.123288 452.806345 
L 586.115994 446.38799 
L 587.1087 442.022834 
L 588.101405 445.447575 
L 589.094111 452.011269 
L 590.086817 451.906262 
L 591.079523 450.814717 
L 592.072229 453.750092 
L 593.064935 439.349071 
L 594.057641 446.508927 
L 595.050347 455.434175 
L 596.043053 447.230423 
L 597.035759 454.220565 
L 598.028465 450.900337 
L 599.021171 444.076923 
L 600.013877 447.084885 
L 601.006582 454.05744 
L 601.999288 445.39399 
L 602.991994 462.954287 
L 603.9847 448.47818 
L 604.977406 444.757867 
L 605.970112 447.534726 
L 606.962818 449.215512 
L 607.955524 449.875056 
L 608.94823 451.346003 
L 609.940936 449.001928 
L 610.933642 445.946798 
L 611.926348 448.441636 
L 612.919054 449.573787 
L 613.911759 454.435054 
L 614.904465 453.467031 
L 615.897171 456.952241 
L 616.889877 456.356026 
L 617.882583 456.270877 
L 618.875289 454.44112 
L 619.867995 458.429985 
L 620.860701 451.650826 
L 621.853407 454.036391 
L 622.846113 455.094214 
L 623.838819 457.91952 
L 624.831525 453.563963 
L 625.824231 455.290137 
L 626.816936 460.517345 
L 627.809642 450.849404 
L 628.802348 456.573467 
L 629.795054 454.233167 
L 630.78776 458.841033 
L 631.780466 454.043382 
L 632.773172 459.518348 
L 633.765878 453.698227 
L 634.758584 458.631361 
L 635.75129 456.274386 
L 636.743996 455.453237 
L 637.736702 455.749666 
L 638.729408 462.057776 
L 639.722114 459.525284 
L 640.714819 455.570766 
L 641.707525 460.036236 
L 642.700231 456.70457 
L 644.685643 455.063158 
L 645.678349 459.36149 
L 646.671055 457.933009 
L 647.663761 455.534125 
L 648.656467 459.207049 
L 649.649173 458.243588 
L 650.641879 457.843328 
L 651.634585 457.966098 
L 652.627291 459.405252 
L 653.619996 458.189137 
L 654.612702 458.602471 
L 655.605408 456.552727 
L 656.598114 459.178502 
L 657.59082 458.526142 
L 658.583526 460.034838 
L 659.576232 459.608727 
L 660.568938 458.746187 
L 661.561644 459.523205 
L 662.55435 457.74545 
L 663.547056 459.954712 
L 664.539762 459.771786 
L 665.532468 460.068423 
L 666.525173 460.482125 
L 667.517879 461.62938 
L 668.510585 461.534115 
L 669.503291 460.752069 
L 670.495997 461.250907 
L 671.488703 461.052127 
L 673.474115 462.229546 
L 674.466821 462.258478 
L 675.459527 460.735766 
L 676.452233 461.851972 
L 677.444939 461.607675 
L 678.437645 462.334159 
L 679.43035 461.720066 
L 680.423056 461.899939 
L 682.408468 463.297424 
L 683.401174 464.2334 
L 684.39388 463.585736 
L 685.386586 462.350107 
L 686.379292 463.378555 
L 687.371998 463.254709 
L 688.364704 461.840432 
L 689.35741 464.015118 
L 690.350116 462.904413 
L 691.342822 462.902618 
L 692.335527 464.198379 
L 693.328233 463.441984 
L 694.320939 463.884458 
L 695.313645 464.051834 
L 696.306351 463.228309 
L 697.299057 464.353737 
L 698.291763 463.111503 
L 699.284469 463.767484 
L 700.277175 464.611543 
L 701.269881 464.389477 
L 702.262587 464.868962 
L 703.255293 464.847595 
L 704.247999 465.819595 
L 705.240705 464.180324 
L 706.23341 465.182519 
L 707.226116 464.988564 
L 708.218822 465.061253 
L 709.211528 466.116483 
L 710.204234 465.771895 
L 711.19694 465.78809 
L 712.189646 465.491183 
L 713.182352 465.984247 
L 714.175058 465.773408 
L 716.16047 466.488314 
L 717.153176 466.361454 
L 718.145882 466.665205 
L 719.138587 466.73331 
L 720.131293 466.41911 
L 721.123999 467.000694 
L 722.116705 466.802508 
L 723.109411 467.114337 
L 724.102117 467.215823 
L 725.094823 466.901575 
L 726.087529 467.875976 
L 727.080235 467.311303 
L 728.072941 467.829609 
L 729.065647 467.601053 
L 730.058353 467.906467 
L 732.043764 467.688598 
L 733.03647 468.245184 
L 734.029176 468.285534 
L 735.021882 467.873878 
L 736.014588 468.911969 
L 737.007294 468.194951 
L 738.992706 468.712983 
L 740.978118 468.968766 
L 741.970824 469.536273 
L 742.96353 469.172478 
L 743.956236 469.700167 
L 744.948941 469.356011 
L 746.934353 469.846991 
L 747.927059 469.513557 
L 748.919765 469.667666 
L 749.912471 470.404627 
L 751.897883 469.721078 
L 752.890589 469.727326 
L 753.883295 469.882229 
L 754.876001 470.153979 
L 755.868707 470.7367 
L 756.861413 471.586957 
L 757.854118 470.749617 
L 758.846824 470.989279 
L 759.83953 470.543342 
L 760.832236 470.896765 
L 761.824942 471.019294 
L 762.817648 471.262662 
L 763.810354 471.090983 
L 764.80306 471.061977 
L 766.788472 471.473115 
L 767.781178 471.719661 
L 768.773884 471.600912 
L 769.76659 471.71315 
L 771.752001 472.249759 
L 772.744707 471.815001 
L 773.737413 472.455764 
L 774.730119 472.141717 
L 775.722825 472.167838 
L 776.715531 472.574554 
L 778.700943 472.167144 
L 779.693649 472.789883 
L 780.686355 472.979825 
L 781.679061 473.012104 
L 782.671767 473.428393 
L 783.664473 472.97108 
L 784.657178 473.261045 
L 785.649884 473.689359 
L 788.628002 473.503085 
L 789.620708 473.75774 
L 790.613414 473.433355 
L 791.60612 474.270052 
L 792.598826 474.171754 
L 794.584238 473.683729 
L 795.576944 474.060631 
L 796.56965 474.900303 
L 797.562355 474.206788 
L 800.540473 474.479382 
L 801.533179 474.314414 
L 802.525885 474.573154 
L 803.518591 474.393012 
L 804.511297 474.833507 
L 805.504003 474.501052 
L 806.496709 475.265643 
L 807.489415 475.290325 
L 808.482121 474.710525 
L 810.467532 475.396366 
L 811.460238 475.722308 
L 812.452944 475.250638 
L 813.44565 475.511395 
L 814.438356 475.320173 
L 815.431062 475.745342 
L 816.423768 475.642558 
L 817.416474 475.988018 
L 818.40918 475.976011 
L 819.401886 475.841679 
L 820.394592 475.848971 
L 821.387298 476.35874 
L 823.372709 476.618484 
L 825.358121 476.700141 
L 826.350827 476.976054 
L 827.343533 476.73721 
L 828.336239 476.64947 
L 830.321651 476.689439 
L 831.314357 477.394114 
L 833.299769 477.399751 
L 834.292475 477.124531 
L 835.285181 477.297601 
L 836.277886 477.209248 
L 837.270592 477.457699 
L 838.263298 477.570008 
L 840.24871 477.477401 
L 841.241416 478.072863 
L 842.234122 478.179358 
L 843.226828 477.541066 
L 844.219534 478.461261 
L 845.21224 478.713773 
L 846.204946 478.241724 
L 847.197652 478.124334 
L 848.190358 478.895379 
L 850.175769 478.216959 
L 851.168475 478.905726 
L 852.161181 478.832848 
L 853.153887 478.460728 
L 854.146593 478.629546 
L 855.139299 478.649797 
L 856.132005 478.932618 
L 857.124711 478.836456 
L 859.110123 479.407918 
L 860.102829 479.14404 
L 861.095535 479.241317 
L 862.088241 479.115489 
L 863.080946 479.678746 
L 864.073652 479.585742 
L 865.066358 479.173358 
L 866.059064 479.42528 
L 867.05177 479.437272 
L 868.044476 479.751495 
L 869.037182 479.439895 
L 870.029888 479.994562 
L 871.022594 479.522463 
L 872.0153 479.884374 
L 873.008006 479.449487 
L 874.000712 480.262557 
L 874.993418 479.861869 
L 875.986123 479.6372 
L 876.978829 480.610942 
L 879.956947 480.261553 
L 880.949653 480.66094 
L 881.942359 480.630528 
L 882.935065 480.288854 
L 883.927771 480.397491 
L 884.920477 481.255899 
L 885.913183 480.953624 
L 886.905889 481.10864 
L 887.898595 480.773624 
L 888.8913 480.953494 
L 889.884006 481.349023 
L 890.876712 481.438546 
L 891.869418 481.668823 
L 892.862124 481.108159 
L 895.840242 481.607185 
L 896.832948 481.388001 
L 897.825654 481.494469 
L 898.81836 481.768803 
L 899.811066 481.679383 
L 900.803772 481.830232 
L 901.796477 481.756325 
L 902.789183 482.134477 
L 903.781889 482.061232 
L 904.774595 481.739339 
L 905.767301 482.435622 
L 906.760007 482.310942 
L 907.752713 482.446532 
L 908.745419 482.695451 
L 910.730831 482.23427 
L 912.716243 482.896653 
L 914.701655 482.413164 
L 916.687066 482.690386 
L 917.679772 482.321484 
L 918.672478 482.850136 
L 919.665184 482.724979 
L 920.65789 483.29737 
L 921.650596 483.036865 
L 922.643302 483.774721 
L 923.636008 483.366752 
L 925.62142 483.656965 
L 926.614126 483.371051 
L 927.606832 483.21103 
L 928.599537 483.249655 
L 929.592243 482.995127 
L 930.584949 483.728888 
L 931.577655 483.587534 
L 932.570361 483.916878 
L 933.563067 484.025165 
L 934.555773 483.968486 
L 935.548479 484.321045 
L 936.541185 484.222814 
L 937.533891 484.472501 
L 938.526597 483.609896 
L 939.519303 483.857885 
L 940.512009 484.380053 
L 941.504714 484.005244 
L 942.49742 483.980898 
L 943.490126 484.679334 
L 944.482832 484.630168 
L 945.475538 483.874308 
L 946.468244 484.837232 
L 947.46095 484.384475 
L 948.453656 484.188243 
L 949.446362 484.601451 
L 950.439068 484.479227 
L 951.431774 484.520189 
L 952.42448 484.953012 
L 953.417186 484.780156 
L 954.409891 484.344367 
L 955.402597 484.653247 
L 956.395303 485.285658 
L 957.388009 484.848426 
L 958.380715 484.597919 
L 959.373421 484.711568 
L 960.366127 485.143795 
L 961.358833 485.248321 
L 962.351539 485.522002 
L 963.344245 485.371236 
L 964.336951 485.627661 
L 965.329657 485.372379 
L 966.322363 485.246767 
L 968.307774 485.687582 
L 969.30048 485.649405 
L 970.293186 485.90622 
L 971.285892 485.647264 
L 972.278598 485.81694 
L 975.256716 485.668677 
L 976.249422 485.717955 
L 977.242128 486.249147 
L 979.22754 485.74189 
L 980.220246 486.481912 
L 981.212951 485.492063 
L 982.205657 485.554319 
L 983.198363 486.189166 
L 984.191069 485.829206 
L 986.176481 486.027855 
L 987.169187 486.610171 
L 988.161893 486.496718 
L 989.154599 485.995717 
L 990.147305 485.819184 
L 991.140011 486.130638 
L 992.132717 486.615042 
L 993.125423 486.343784 
L 994.118128 486.446627 
L 995.110834 486.264529 
L 996.10354 486.424546 
L 997.096246 487.113783 
L 998.088952 487.039306 
L 999.081658 486.571021 
L 1000.074364 486.81199 
L 1001.06707 487.267966 
L 1003.052482 486.888684 
L 1004.045188 486.90764 
L 1005.037894 486.648071 
L 1006.0306 487.10526 
L 1007.023305 487.234299 
L 1008.016011 486.83643 
L 1009.008717 486.669031 
L 1010.001423 486.973495 
L 1010.994129 486.973896 
L 1011.986835 487.145484 
L 1012.979541 487.467116 
L 1013.972247 487.049168 
L 1014.964953 487.128778 
L 1015.957659 487.441113 
L 1016.950365 487.59359 
L 1017.943071 488.052802 
L 1018.935777 487.312595 
L 1019.928482 487.607303 
L 1020.921188 487.210918 
L 1022.9066 487.726945 
L 1023.899306 487.460952 
L 1024.892012 487.474272 
L 1025.884718 488.15351 
L 1026.877424 487.797204 
L 1027.87013 487.756311 
L 1028.862836 488.537913 
L 1029.855542 487.905001 
L 1030.848248 488.288504 
L 1031.840954 487.879752 
L 1032.833659 487.812435 
L 1033.826365 488.288725 
L 1034.819071 487.584752 
L 1035.811777 487.351404 
L 1036.804483 488.130765 
L 1037.797189 488.451761 
L 1038.789895 488.47008 
L 1039.782601 488.080925 
L 1040.775307 488.525925 
L 1041.768013 487.946083 
L 1042.760719 488.68353 
L 1043.753425 488.660608 
L 1044.746131 488.080617 
L 1045.738837 488.201277 
L 1046.731542 488.790328 
L 1047.724248 488.503373 
L 1048.716954 488.570655 
L 1049.70966 488.816594 
L 1050.702366 488.369896 
L 1051.695072 488.804043 
L 1052.687778 488.604253 
L 1053.680484 488.766294 
L 1054.67319 488.43454 
L 1055.665896 488.764976 
L 1057.651308 488.222838 
L 1058.644014 489.060279 
L 1059.636719 488.268724 
L 1061.622131 488.94801 
L 1062.614837 489.615515 
L 1063.607543 488.724183 
L 1064.600249 489.268903 
L 1065.592955 489.356058 
L 1066.585661 489.762507 
L 1067.578367 489.342893 
L 1068.571073 489.412325 
L 1070.556485 489.009277 
L 1071.549191 489.35709 
L 1072.541896 490.090419 
L 1073.534602 489.680182 
L 1074.527308 489.412427 
L 1075.520014 488.845513 
L 1076.51272 489.369037 
L 1077.505426 489.16195 
L 1078.498132 489.648737 
L 1079.490838 489.773322 
L 1080.483544 489.561869 
L 1081.47625 489.960405 
L 1082.468956 489.101873 
L 1083.461662 489.156519 
L 1084.454368 489.67715 
L 1085.447073 489.079438 
L 1086.439779 489.950005 
L 1087.432485 489.4879 
L 1088.425191 489.745234 
L 1089.417897 489.84397 
L 1090.410603 490.373437 
L 1091.403309 489.480841 
L 1092.396015 489.726621 
L 1093.388721 490.401745 
L 1094.381427 489.942126 
L 1095.374133 490.289027 
L 1096.366839 489.359939 
L 1097.359545 490.069445 
L 1098.35225 489.942802 
L 1099.344956 490.030307 
L 1100.337662 490.667076 
L 1101.330368 490.22218 
L 1103.31578 490.460128 
L 1104.308486 489.782566 
L 1105.301192 490.307391 
L 1106.293898 490.319983 
L 1108.27931 490.656876 
L 1109.272016 490.374034 
L 1110.264722 490.464664 
L 1111.257428 489.979809 
L 1113.242839 490.570728 
L 1116.220957 490.181198 
L 1117.213663 490.966324 
L 1118.206369 491.143772 
L 1119.199075 490.300399 
L 1120.191781 490.166149 
L 1121.184487 490.770185 
L 1122.177193 490.285895 
L 1123.169899 490.348409 
L 1124.162605 490.773256 
L 1127.140722 489.950889 
L 1128.133428 490.442777 
L 1129.126134 490.050174 
L 1130.11884 490.809863 
L 1131.111546 490.963828 
L 1132.104252 490.886793 
L 1133.096958 490.657677 
L 1134.089664 490.938698 
L 1136.075076 490.682584 
L 1137.067782 491.19136 
L 1138.060487 490.495006 
L 1139.053193 490.929221 
L 1140.045899 490.494976 
L 1141.038605 490.828332 
L 1142.031311 490.948704 
L 1143.024017 491.428528 
L 1144.016723 490.840089 
L 1146.002135 490.534666 
L 1146.994841 490.970326 
L 1147.987547 490.661267 
L 1148.980253 490.609045 
L 1149.972959 490.699255 
L 1150.965664 490.23392 
L 1151.95837 490.828766 
L 1152.951076 491.195164 
L 1153.943782 490.658988 
L 1154.936488 490.824924 
L 1155.929194 490.857195 
L 1156.9219 491.175592 
L 1157.914606 491.286223 
L 1158.907312 491.901168 
L 1159.900018 490.884014 
L 1160.892724 491.164622 
L 1161.88543 490.996956 
L 1163.870841 491.315479 
L 1164.863547 490.83011 
L 1165.856253 490.522905 
L 1166.848959 491.213507 
L 1167.841665 491.37398 
L 1168.834371 491.353201 
L 1169.827077 491.166573 
L 1170.819783 491.894842 
L 1171.812489 491.551671 
L 1173.797901 491.548295 
L 1175.783313 491.328076 
L 1176.776019 490.828211 
L 1178.76143 491.425232 
L 1179.754136 491.736928 
L 1181.739548 491.462732 
L 1182.732254 491.369726 
L 1183.72496 491.688966 
L 1184.717666 491.510339 
L 1185.710372 491.199879 
L 1186.703078 491.61652 
L 1187.695784 491.609862 
L 1188.68849 490.960028 
L 1189.681196 492.248236 
L 1190.673901 491.594158 
L 1192.659313 491.323413 
L 1193.652019 491.846735 
L 1194.644725 491.494638 
L 1195.637431 491.350197 
L 1196.630137 491.848313 
L 1197.622843 491.067514 
L 1198.615549 491.654838 
L 1199.608255 491.885945 
L 1200.600961 491.363248 
L 1201.593667 491.063876 
L 1202.586373 491.556132 
L 1204.571784 492.066636 
L 1205.56449 491.349229 
L 1206.557196 491.470613 
L 1207.549902 491.468241 
L 1208.542608 491.24158 
L 1209.535314 491.388357 
L 1210.52802 491.410655 
L 1211.520726 491.98558 
L 1213.506138 491.934878 
L 1214.498844 492.100865 
L 1215.49155 491.072387 
L 1216.484255 491.728617 
L 1217.476961 492.14992 
L 1218.469667 491.553238 
L 1219.462373 491.396381 
L 1220.455079 492.136296 
L 1221.447785 491.509887 
L 1222.440491 491.49133 
L 1223.433197 491.831611 
L 1224.425903 491.512149 
L 1225.418609 491.404693 
L 1226.411315 491.634403 
L 1227.404021 491.586047 
L 1229.389432 492.099274 
L 1230.382138 491.18782 
L 1231.374844 491.488993 
L 1233.360256 491.459559 
L 1234.352962 492.357238 
L 1235.345668 491.824123 
L 1236.338374 491.049383 
L 1237.33108 491.309509 
L 1238.323786 491.399593 
L 1239.316492 491.61747 
L 1240.309198 492.48 
L 1241.301904 492.158362 
L 1242.29461 491.681554 
L 1243.287315 492.043447 
L 1244.280021 491.845021 
L 1245.272727 491.822359 
L 1245.272727 491.822359 
" clip-path="url(#pd5b37cc957)" style="fill: none; stroke: #1f77b4; stroke-width: 1.5; stroke-linecap: square"/>
   </g>
   <g id="patch_3">
    <path d="M 180 512.64 
L 180 69.12 
" style="fill: none; stroke: #000000; stroke-width: 0.8; stroke-linejoin: miter; stroke-linecap: square"/>
   </g>
   <g id="patch_4">
    <path d="M 1296 512.64 
L 1296 69.12 
" style="fill: none; stroke: #000000; stroke-width: 0.8; stroke-linejoin: miter; stroke-linecap: square"/>
   </g>
   <g id="patch_5">
    <path d="M 180 512.64 
L 1296 512.64 
" style="fill: none; stroke: #000000; stroke-width: 0.8; stroke-linejoin: miter; stroke-linecap: square"/>
   </g>
   <g id="patch_6">
    <path d="M 180 69.12 
L 1296 69.12 
" style="fill: none; stroke: #000000; stroke-width: 0.8; stroke-linejoin: miter; stroke-linecap: square"/>
   </g>
   <g id="text_14">
    <!-- source7-receiver2 -->
    <g transform="translate(557.625 60.80125) scale(0.4 -0.4)">
     <defs>
      <path id="DejaVuSans-73" d="M 2834 3397 
L 2834 2853 
Q 2591 2978 2328 3040 
Q 2066 3103 1784 3103 
Q 1356 3103 1142 2972 
Q 928 2841 928 2578 
Q 928 2378 1081 2264 
Q 1234 2150 1697 2047 
L 1894 2003 
Q 2506 1872 2764 1633 
Q 3022 1394 3022 966 
Q 3022 478 2636 193 
Q 2250 -91 1575 -91 
Q 1294 -91 989 -36 
Q 684 19 347 128 
L 347 722 
Q 666 556 975 473 
Q 1284 391 1588 391 
Q 1994 391 2212 530 
Q 2431 669 2431 922 
Q 2431 1156 2273 1281 
Q 2116 1406 1581 1522 
L 1381 1569 
Q 847 1681 609 1914 
Q 372 2147 372 2553 
Q 372 3047 722 3315 
Q 1072 3584 1716 3584 
Q 2034 3584 2315 3537 
Q 2597 3491 2834 3397 
z
" transform="scale(0.015625)"/>
      <path id="DejaVuSans-6f" d="M 1959 3097 
Q 1497 3097 1228 2736 
Q 959 2375 959 1747 
Q 959 1119 1226 758 
Q 1494 397 1959 397 
Q 2419 397 2687 759 
Q 2956 1122 2956 1747 
Q 2956 2369 2687 2733 
Q 2419 3097 1959 3097 
z
M 1959 3584 
Q 2709 3584 3137 3096 
Q 3566 2609 3566 1747 
Q 3566 888 3137 398 
Q 2709 -91 1959 -91 
Q 1206 -91 779 398 
Q 353 888 353 1747 
Q 353 2609 779 3096 
Q 1206 3584 1959 3584 
z
" transform="scale(0.015625)"/>
      <path id="DejaVuSans-75" d="M 544 1381 
L 544 3500 
L 1119 3500 
L 1119 1403 
Q 1119 906 1312 657 
Q 1506 409 1894 409 
Q 2359 409 2629 706 
Q 2900 1003 2900 1516 
L 2900 3500 
L 3475 3500 
L 3475 0 
L 2900 0 
L 2900 538 
Q 2691 219 2414 64 
Q 2138 -91 1772 -91 
Q 1169 -91 856 284 
Q 544 659 544 1381 
z
M 1991 3584 
L 1991 3584 
z
" transform="scale(0.015625)"/>
      <path id="DejaVuSans-72" d="M 2631 2963 
Q 2534 3019 2420 3045 
Q 2306 3072 2169 3072 
Q 1681 3072 1420 2755 
Q 1159 2438 1159 1844 
L 1159 0 
L 581 0 
L 581 3500 
L 1159 3500 
L 1159 2956 
Q 1341 3275 1631 3429 
Q 1922 3584 2338 3584 
Q 2397 3584 2469 3576 
Q 2541 3569 2628 3553 
L 2631 2963 
z
" transform="scale(0.015625)"/>
      <path id="DejaVuSans-63" d="M 3122 3366 
L 3122 2828 
Q 2878 2963 2633 3030 
Q 2388 3097 2138 3097 
Q 1578 3097 1268 2742 
Q 959 2388 959 1747 
Q 959 1106 1268 751 
Q 1578 397 2138 397 
Q 2388 397 2633 464 
Q 2878 531 3122 666 
L 3122 134 
Q 2881 22 2623 -34 
Q 2366 -91 2075 -91 
Q 1284 -91 818 406 
Q 353 903 353 1747 
Q 353 2603 823 3093 
Q 1294 3584 2113 3584 
Q 2378 3584 2631 3529 
Q 2884 3475 3122 3366 
z
" transform="scale(0.015625)"/>
      <path id="DejaVuSans-65" d="M 3597 1894 
L 3597 1613 
L 953 1613 
Q 991 1019 1311 708 
Q 1631 397 2203 397 
Q 2534 397 2845 478 
Q 3156 559 3463 722 
L 3463 178 
Q 3153 47 2828 -22 
Q 2503 -91 2169 -91 
Q 1331 -91 842 396 
Q 353 884 353 1716 
Q 353 2575 817 3079 
Q 1281 3584 2069 3584 
Q 2775 3584 3186 3129 
Q 3597 2675 3597 1894 
z
M 3022 2063 
Q 3016 2534 2758 2815 
Q 2500 3097 2075 3097 
Q 1594 3097 1305 2825 
Q 1016 2553 972 2059 
L 3022 2063 
z
" transform="scale(0.015625)"/>
      <path id="DejaVuSans-37" d="M 525 4666 
L 3525 4666 
L 3525 4397 
L 1831 0 
L 1172 0 
L 2766 4134 
L 525 4134 
L 525 4666 
z
" transform="scale(0.015625)"/>
      <path id="DejaVuSans-2d" d="M 313 2009 
L 1997 2009 
L 1997 1497 
L 313 1497 
L 313 2009 
z
" transform="scale(0.015625)"/>
      <path id="DejaVuSans-69" d="M 603 3500 
L 1178 3500 
L 1178 0 
L 603 0 
L 603 3500 
z
M 603 4863 
L 1178 4863 
L 1178 4134 
L 603 4134 
L 603 4863 
z
" transform="scale(0.015625)"/>
      <path id="DejaVuSans-76" d="M 191 3500 
L 800 3500 
L 1894 563 
L 2988 3500 
L 3597 3500 
L 2284 0 
L 1503 0 
L 191 3500 
z
" transform="scale(0.015625)"/>
     </defs>
     <use xlink:href="#DejaVuSans-73"/>
     <use xlink:href="#DejaVuSans-6f" x="52.099609"/>
     <use xlink:href="#DejaVuSans-75" x="113.28125"/>
     <use xlink:href="#DejaVuSans-72" x="176.660156"/>
     <use xlink:href="#DejaVuSans-63" x="215.523438"/>
     <use xlink:href="#DejaVuSans-65" x="270.503906"/>
     <use xlink:href="#DejaVuSans-37" x="332.027344"/>
     <use xlink:href="#DejaVuSans-2d" x="395.650391"/>
     <use xlink:href="#DejaVuSans-72" x="431.734375"/>
     <use xlink:href="#DejaVuSans-65" x="470.597656"/>
     <use xlink:href="#DejaVuSans-63" x="532.121094"/>
     <use xlink:href="#DejaVuSans-65" x="587.101562"/>
     <use xlink:href="#DejaVuSans-69" x="648.625"/>
     <use xlink:href="#DejaVuSans-76" x="676.408203"/>
     <use xlink:href="#DejaVuSans-65" x="735.587891"/>
     <use xlink:href="#DejaVuSans-72" x="797.111328"/>
     <use xlink:href="#DejaVuSans-32" x="838.224609"/>
    </g>
   </g>
  </g>
 </g>
 <defs>
  <clipPath id="pd5b37cc957">
   <rect x="180" y="69.12" width="1116" height="443.52"/>
  </clipPath>
 </defs>
</svg>
