<?xml version="1.0" encoding="utf-8" standalone="no"?>
<!DOCTYPE svg PUBLIC "-//W3C//DTD SVG 1.1//EN"
  "http://www.w3.org/Graphics/SVG/1.1/DTD/svg11.dtd">
<svg xmlns:xlink="http://www.w3.org/1999/xlink" width="1440pt" height="576pt" viewBox="0 0 1440 576" xmlns="http://www.w3.org/2000/svg" version="1.1">
 <metadata>
  <rdf:RDF xmlns:dc="http://purl.org/dc/elements/1.1/" xmlns:cc="http://creativecommons.org/ns#" xmlns:rdf="http://www.w3.org/1999/02/22-rdf-syntax-ns#">
   <cc:Work>
    <dc:type rdf:resource="http://purl.org/dc/dcmitype/StillImage"/>
    <dc:date>2024-05-22T04:49:52.444352</dc:date>
    <dc:format>image/svg+xml</dc:format>
    <dc:creator>
     <cc:Agent>
      <dc:title>Matplotlib v3.8.3, https://matplotlib.org/</dc:title>
     </cc:Agent>
    </dc:creator>
   </cc:Work>
  </rdf:RDF>
 </metadata>
 <defs>
  <style type="text/css">*{stroke-linejoin: round; stroke-linecap: butt}</style>
 </defs>
 <g id="figure_1">
  <g id="patch_1">
   <path d="M 0 576 
L 1440 576 
L 1440 0 
L 0 0 
z
" style="fill: #ffffff"/>
  </g>
  <g id="axes_1">
   <g id="patch_2">
    <path d="M 180 512.64 
L 1296 512.64 
L 1296 69.12 
L 180 69.12 
z
" style="fill: #ffffff"/>
   </g>
   <g id="matplotlib.axis_1">
    <g id="xtick_1">
     <g id="line2d_1">
      <defs>
       <path id="me9d8ecc5a8" d="M 0 0 
L 0 3.5 
" style="stroke: #000000; stroke-width: 0.8"/>
      </defs>
      <g>
       <use xlink:href="#me9d8ecc5a8" x="229.734567" y="512.64" style="stroke: #000000; stroke-width: 0.8"/>
      </g>
     </g>
     <g id="text_1">
      <!-- 0 -->
      <g transform="translate(226.553317 527.238438) scale(0.1 -0.1)">
       <defs>
        <path id="DejaVuSans-30" d="M 2034 4250 
Q 1547 4250 1301 3770 
Q 1056 3291 1056 2328 
Q 1056 1369 1301 889 
Q 1547 409 2034 409 
Q 2525 409 2770 889 
Q 3016 1369 3016 2328 
Q 3016 3291 2770 3770 
Q 2525 4250 2034 4250 
z
M 2034 4750 
Q 2819 4750 3233 4129 
Q 3647 3509 3647 2328 
Q 3647 1150 3233 529 
Q 2819 -91 2034 -91 
Q 1250 -91 836 529 
Q 422 1150 422 2328 
Q 422 3509 836 4129 
Q 1250 4750 2034 4750 
z
" transform="scale(0.015625)"/>
       </defs>
       <use xlink:href="#DejaVuSans-30"/>
      </g>
     </g>
    </g>
    <g id="xtick_2">
     <g id="line2d_2">
      <g>
       <use xlink:href="#me9d8ecc5a8" x="433.04074" y="512.64" style="stroke: #000000; stroke-width: 0.8"/>
      </g>
     </g>
     <g id="text_2">
      <!-- 500 -->
      <g transform="translate(423.49699 527.238438) scale(0.1 -0.1)">
       <defs>
        <path id="DejaVuSans-35" d="M 691 4666 
L 3169 4666 
L 3169 4134 
L 1269 4134 
L 1269 2991 
Q 1406 3038 1543 3061 
Q 1681 3084 1819 3084 
Q 2600 3084 3056 2656 
Q 3513 2228 3513 1497 
Q 3513 744 3044 326 
Q 2575 -91 1722 -91 
Q 1428 -91 1123 -41 
Q 819 9 494 109 
L 494 744 
Q 775 591 1075 516 
Q 1375 441 1709 441 
Q 2250 441 2565 725 
Q 2881 1009 2881 1497 
Q 2881 1984 2565 2268 
Q 2250 2553 1709 2553 
Q 1456 2553 1204 2497 
Q 953 2441 691 2322 
L 691 4666 
z
" transform="scale(0.015625)"/>
       </defs>
       <use xlink:href="#DejaVuSans-35"/>
       <use xlink:href="#DejaVuSans-30" x="63.623047"/>
       <use xlink:href="#DejaVuSans-30" x="127.246094"/>
      </g>
     </g>
    </g>
    <g id="xtick_3">
     <g id="line2d_3">
      <g>
       <use xlink:href="#me9d8ecc5a8" x="636.346913" y="512.64" style="stroke: #000000; stroke-width: 0.8"/>
      </g>
     </g>
     <g id="text_3">
      <!-- 1000 -->
      <g transform="translate(623.621913 527.238438) scale(0.1 -0.1)">
       <defs>
        <path id="DejaVuSans-31" d="M 794 531 
L 1825 531 
L 1825 4091 
L 703 3866 
L 703 4441 
L 1819 4666 
L 2450 4666 
L 2450 531 
L 3481 531 
L 3481 0 
L 794 0 
L 794 531 
z
" transform="scale(0.015625)"/>
       </defs>
       <use xlink:href="#DejaVuSans-31"/>
       <use xlink:href="#DejaVuSans-30" x="63.623047"/>
       <use xlink:href="#DejaVuSans-30" x="127.246094"/>
       <use xlink:href="#DejaVuSans-30" x="190.869141"/>
      </g>
     </g>
    </g>
    <g id="xtick_4">
     <g id="line2d_4">
      <g>
       <use xlink:href="#me9d8ecc5a8" x="839.653087" y="512.64" style="stroke: #000000; stroke-width: 0.8"/>
      </g>
     </g>
     <g id="text_4">
      <!-- 1500 -->
      <g transform="translate(826.928087 527.238438) scale(0.1 -0.1)">
       <use xlink:href="#DejaVuSans-31"/>
       <use xlink:href="#DejaVuSans-35" x="63.623047"/>
       <use xlink:href="#DejaVuSans-30" x="127.246094"/>
       <use xlink:href="#DejaVuSans-30" x="190.869141"/>
      </g>
     </g>
    </g>
    <g id="xtick_5">
     <g id="line2d_5">
      <g>
       <use xlink:href="#me9d8ecc5a8" x="1042.95926" y="512.64" style="stroke: #000000; stroke-width: 0.8"/>
      </g>
     </g>
     <g id="text_5">
      <!-- 2000 -->
      <g transform="translate(1030.23426 527.238438) scale(0.1 -0.1)">
       <defs>
        <path id="DejaVuSans-32" d="M 1228 531 
L 3431 531 
L 3431 0 
L 469 0 
L 469 531 
Q 828 903 1448 1529 
Q 2069 2156 2228 2338 
Q 2531 2678 2651 2914 
Q 2772 3150 2772 3378 
Q 2772 3750 2511 3984 
Q 2250 4219 1831 4219 
Q 1534 4219 1204 4116 
Q 875 4013 500 3803 
L 500 4441 
Q 881 4594 1212 4672 
Q 1544 4750 1819 4750 
Q 2544 4750 2975 4387 
Q 3406 4025 3406 3419 
Q 3406 3131 3298 2873 
Q 3191 2616 2906 2266 
Q 2828 2175 2409 1742 
Q 1991 1309 1228 531 
z
" transform="scale(0.015625)"/>
       </defs>
       <use xlink:href="#DejaVuSans-32"/>
       <use xlink:href="#DejaVuSans-30" x="63.623047"/>
       <use xlink:href="#DejaVuSans-30" x="127.246094"/>
       <use xlink:href="#DejaVuSans-30" x="190.869141"/>
      </g>
     </g>
    </g>
    <g id="xtick_6">
     <g id="line2d_6">
      <g>
       <use xlink:href="#me9d8ecc5a8" x="1246.265433" y="512.64" style="stroke: #000000; stroke-width: 0.8"/>
      </g>
     </g>
     <g id="text_6">
      <!-- 2500 -->
      <g transform="translate(1233.540433 527.238438) scale(0.1 -0.1)">
       <use xlink:href="#DejaVuSans-32"/>
       <use xlink:href="#DejaVuSans-35" x="63.623047"/>
       <use xlink:href="#DejaVuSans-30" x="127.246094"/>
       <use xlink:href="#DejaVuSans-30" x="190.869141"/>
      </g>
     </g>
    </g>
   </g>
   <g id="matplotlib.axis_2">
    <g id="ytick_1">
     <g id="line2d_7">
      <defs>
       <path id="m2bb5c83b7f" d="M 0 0 
L -3.5 0 
" style="stroke: #000000; stroke-width: 0.8"/>
      </defs>
      <g>
       <use xlink:href="#m2bb5c83b7f" x="180" y="499.527031" style="stroke: #000000; stroke-width: 0.8"/>
      </g>
     </g>
     <g id="text_7">
      <!-- −2 -->
      <g transform="translate(158.257812 503.32625) scale(0.1 -0.1)">
       <defs>
        <path id="DejaVuSans-2212" d="M 678 2272 
L 4684 2272 
L 4684 1741 
L 678 1741 
L 678 2272 
z
" transform="scale(0.015625)"/>
       </defs>
       <use xlink:href="#DejaVuSans-2212"/>
       <use xlink:href="#DejaVuSans-32" x="83.789062"/>
      </g>
     </g>
    </g>
    <g id="ytick_2">
     <g id="line2d_8">
      <g>
       <use xlink:href="#m2bb5c83b7f" x="180" y="441.199023" style="stroke: #000000; stroke-width: 0.8"/>
      </g>
     </g>
     <g id="text_8">
      <!-- −1 -->
      <g transform="translate(158.257812 444.998242) scale(0.1 -0.1)">
       <use xlink:href="#DejaVuSans-2212"/>
       <use xlink:href="#DejaVuSans-31" x="83.789062"/>
      </g>
     </g>
    </g>
    <g id="ytick_3">
     <g id="line2d_9">
      <g>
       <use xlink:href="#m2bb5c83b7f" x="180" y="382.871015" style="stroke: #000000; stroke-width: 0.8"/>
      </g>
     </g>
     <g id="text_9">
      <!-- 0 -->
      <g transform="translate(166.6375 386.670234) scale(0.1 -0.1)">
       <use xlink:href="#DejaVuSans-30"/>
      </g>
     </g>
    </g>
    <g id="ytick_4">
     <g id="line2d_10">
      <g>
       <use xlink:href="#m2bb5c83b7f" x="180" y="324.543007" style="stroke: #000000; stroke-width: 0.8"/>
      </g>
     </g>
     <g id="text_10">
      <!-- 1 -->
      <g transform="translate(166.6375 328.342226) scale(0.1 -0.1)">
       <use xlink:href="#DejaVuSans-31"/>
      </g>
     </g>
    </g>
    <g id="ytick_5">
     <g id="line2d_11">
      <g>
       <use xlink:href="#m2bb5c83b7f" x="180" y="266.215" style="stroke: #000000; stroke-width: 0.8"/>
      </g>
     </g>
     <g id="text_11">
      <!-- 2 -->
      <g transform="translate(166.6375 270.014218) scale(0.1 -0.1)">
       <use xlink:href="#DejaVuSans-32"/>
      </g>
     </g>
    </g>
    <g id="ytick_6">
     <g id="line2d_12">
      <g>
       <use xlink:href="#m2bb5c83b7f" x="180" y="207.886992" style="stroke: #000000; stroke-width: 0.8"/>
      </g>
     </g>
     <g id="text_12">
      <!-- 3 -->
      <g transform="translate(166.6375 211.686211) scale(0.1 -0.1)">
       <defs>
        <path id="DejaVuSans-33" d="M 2597 2516 
Q 3050 2419 3304 2112 
Q 3559 1806 3559 1356 
Q 3559 666 3084 287 
Q 2609 -91 1734 -91 
Q 1441 -91 1130 -33 
Q 819 25 488 141 
L 488 750 
Q 750 597 1062 519 
Q 1375 441 1716 441 
Q 2309 441 2620 675 
Q 2931 909 2931 1356 
Q 2931 1769 2642 2001 
Q 2353 2234 1838 2234 
L 1294 2234 
L 1294 2753 
L 1863 2753 
Q 2328 2753 2575 2939 
Q 2822 3125 2822 3475 
Q 2822 3834 2567 4026 
Q 2313 4219 1838 4219 
Q 1578 4219 1281 4162 
Q 984 4106 628 3988 
L 628 4550 
Q 988 4650 1302 4700 
Q 1616 4750 1894 4750 
Q 2613 4750 3031 4423 
Q 3450 4097 3450 3541 
Q 3450 3153 3228 2886 
Q 3006 2619 2597 2516 
z
" transform="scale(0.015625)"/>
       </defs>
       <use xlink:href="#DejaVuSans-33"/>
      </g>
     </g>
    </g>
    <g id="ytick_7">
     <g id="line2d_13">
      <g>
       <use xlink:href="#m2bb5c83b7f" x="180" y="149.558984" style="stroke: #000000; stroke-width: 0.8"/>
      </g>
     </g>
     <g id="text_13">
      <!-- 4 -->
      <g transform="translate(166.6375 153.358203) scale(0.1 -0.1)">
       <defs>
        <path id="DejaVuSans-34" d="M 2419 4116 
L 825 1625 
L 2419 1625 
L 2419 4116 
z
M 2253 4666 
L 3047 4666 
L 3047 1625 
L 3713 1625 
L 3713 1100 
L 3047 1100 
L 3047 0 
L 2419 0 
L 2419 1100 
L 313 1100 
L 313 1709 
L 2253 4666 
z
" transform="scale(0.015625)"/>
       </defs>
       <use xlink:href="#DejaVuSans-34"/>
      </g>
     </g>
    </g>
    <g id="ytick_8">
     <g id="line2d_14">
      <g>
       <use xlink:href="#m2bb5c83b7f" x="180" y="91.230976" style="stroke: #000000; stroke-width: 0.8"/>
      </g>
     </g>
     <g id="text_14">
      <!-- 5 -->
      <g transform="translate(166.6375 95.030195) scale(0.1 -0.1)">
       <use xlink:href="#DejaVuSans-35"/>
      </g>
     </g>
    </g>
   </g>
   <g id="line2d_15">
    <path d="M 230.727273 417.51922 
L 231.719979 417.024467 
L 232.712685 416.10381 
L 234.698096 413.648701 
L 236.683508 409.811006 
L 239.661626 402.479299 
L 241.647038 396.521841 
L 244.625156 386.387617 
L 245.617862 380.241291 
L 246.610568 371.65177 
L 247.603273 369.674798 
L 248.595979 394.047614 
L 249.588685 381.893588 
L 250.581391 315.589998 
L 251.574097 280.446684 
L 252.566803 264.797476 
L 253.559509 262.660619 
L 254.552215 265.47356 
L 255.544921 260.688157 
L 256.537627 257.97447 
L 257.530333 276.50597 
L 258.523039 365.814813 
L 259.515745 288.602412 
L 260.50845 265.462218 
L 261.501156 253.433837 
L 262.493862 216.318936 
L 263.486568 191.029901 
L 264.479274 185.410389 
L 265.47198 201.378076 
L 266.464686 249.788594 
L 267.457392 250.421177 
L 268.450098 227.269133 
L 269.442804 243.804377 
L 270.43551 299.197583 
L 271.428216 248.920998 
L 272.420922 219.199557 
L 273.413627 206.003564 
L 274.406333 207.087837 
L 275.399039 235.75436 
L 276.391745 299.2785 
L 277.384451 211.639639 
L 278.377157 183.121121 
L 280.362569 152.390922 
L 281.355275 138.779359 
L 282.347981 131.294 
L 283.340687 126.054482 
L 284.333393 114.20426 
L 285.326099 98.612707 
L 286.318804 89.28 
L 287.31151 90.732423 
L 288.304216 105.636983 
L 289.296922 137.112456 
L 290.289628 174.028389 
L 291.282334 174.683903 
L 292.27504 184.675858 
L 293.267746 202.006361 
L 294.260452 187.977451 
L 295.253158 186.459947 
L 296.245864 212.963284 
L 297.23857 245.950396 
L 298.231276 232.210081 
L 299.223981 247.815958 
L 300.216687 294.075739 
L 301.209393 255.25083 
L 302.202099 253.991827 
L 303.194805 306.140669 
L 304.187511 326.469208 
L 305.180217 290.064265 
L 306.172923 321.765603 
L 307.165629 364.146943 
L 308.158335 311.122372 
L 309.151041 317.565556 
L 310.143747 349.364635 
L 311.136453 337.881119 
L 312.129159 329.22077 
L 313.121864 334.940036 
L 314.11457 342.797626 
L 315.107276 340.704907 
L 316.099982 342.812101 
L 317.092688 347.720559 
L 318.085394 344.842446 
L 319.0781 345.476607 
L 320.070806 350.24172 
L 321.063512 354.206254 
L 322.056218 350.823561 
L 323.048924 354.308588 
L 324.04163 356.577787 
L 325.034336 353.471682 
L 326.027041 359.892216 
L 327.019747 359.60095 
L 328.012453 357.012326 
L 329.005159 362.045613 
L 329.997865 360.304904 
L 330.990571 362.150709 
L 331.983277 364.880583 
L 333.968689 368.33417 
L 334.961395 366.17447 
L 335.954101 369.271281 
L 336.946807 367.371133 
L 337.939513 372.257794 
L 338.932218 373.020276 
L 339.924924 368.995249 
L 340.91763 370.027637 
L 341.910336 377.468264 
L 342.903042 379.14386 
L 343.895748 370.992475 
L 344.888454 371.878679 
L 345.88116 380.264993 
L 346.873866 377.404617 
L 347.866572 373.340934 
L 348.859278 381.320995 
L 349.851984 385.378796 
L 350.84469 375.817756 
L 351.837395 380.025398 
L 352.830101 390.92578 
L 353.822807 381.502047 
L 354.815513 377.952124 
L 355.808219 390.000665 
L 356.800925 387.461267 
L 357.793631 379.695144 
L 358.786337 387.802659 
L 359.779043 389.999348 
L 360.771749 384.337264 
L 361.764455 384.264194 
L 362.757161 390.315313 
L 363.749867 388.397303 
L 364.742572 391.744519 
L 365.735278 391.898588 
L 366.727984 390.204795 
L 367.72069 389.240177 
L 368.713396 394.011107 
L 369.706102 389.438993 
L 370.698808 394.438616 
L 371.691514 394.820164 
L 372.68422 394.292574 
L 373.676926 394.218668 
L 374.669632 397.51206 
L 375.662338 396.824454 
L 376.655044 394.566901 
L 377.64775 399.042027 
L 378.640455 397.388099 
L 379.633161 395.344159 
L 380.625867 399.555408 
L 381.618573 399.048673 
L 382.611279 403.538299 
L 383.603985 400.083218 
L 384.596691 397.975714 
L 385.589397 401.795351 
L 386.582103 400.401835 
L 387.574809 402.664788 
L 388.567515 404.462507 
L 389.560221 403.748178 
L 390.552927 400.694472 
L 391.545632 400.353889 
L 392.538338 404.23099 
L 393.531044 403.341679 
L 394.52375 404.835063 
L 395.516456 403.00007 
L 396.509162 404.020975 
L 397.501868 406.692382 
L 398.494574 407.913029 
L 399.48728 408.905709 
L 400.479986 407.407814 
L 402.465398 409.19471 
L 403.458104 404.075409 
L 404.450809 407.744884 
L 405.443515 409.749227 
L 406.436221 410.452989 
L 407.428927 411.536536 
L 408.421633 408.797966 
L 409.414339 414.174464 
L 410.407045 410.048343 
L 411.399751 413.014276 
L 412.392457 412.555404 
L 413.385163 410.519459 
L 414.377869 415.221814 
L 415.370575 414.711405 
L 416.363281 411.103923 
L 417.355986 412.562072 
L 418.348692 418.714207 
L 419.341398 410.068948 
L 420.334104 416.727283 
L 421.32681 414.998681 
L 422.319516 414.863844 
L 423.312222 415.851533 
L 424.304928 414.286023 
L 425.297634 419.563268 
L 426.29034 417.788822 
L 427.283046 422.404711 
L 428.275752 416.991874 
L 429.268458 422.328898 
L 430.261163 419.856351 
L 432.246575 422.264556 
L 434.231987 415.83034 
L 435.224693 418.997153 
L 436.217399 419.923865 
L 437.210105 417.313554 
L 438.202811 420.515575 
L 439.195517 421.487821 
L 440.188223 424.765343 
L 441.180929 423.081714 
L 443.166341 423.147328 
L 444.159046 420.077756 
L 445.151752 423.581009 
L 446.144458 423.920661 
L 447.137164 423.386889 
L 448.12987 428.758684 
L 449.122576 422.715287 
L 450.115282 423.983538 
L 451.107988 418.757804 
L 452.100694 420.751409 
L 453.0934 421.703795 
L 454.086106 424.514294 
L 455.078812 423.603421 
L 456.071518 429.274344 
L 457.064223 421.28798 
L 458.056929 430.43937 
L 459.049635 425.051297 
L 460.042341 424.718931 
L 462.027753 428.811452 
L 463.020459 432.310061 
L 464.013165 426.706611 
L 465.005871 432.375263 
L 465.998577 427.183203 
L 466.991283 431.047511 
L 467.983989 432.478614 
L 468.976695 428.676577 
L 469.9694 430.580014 
L 470.962106 428.402581 
L 471.954812 427.373846 
L 472.947518 428.47009 
L 473.940224 432.053592 
L 474.93293 431.186984 
L 475.925636 428.553466 
L 476.918342 439.597549 
L 477.911048 433.919497 
L 478.903754 435.228788 
L 479.89646 431.693621 
L 480.889166 434.052101 
L 481.881872 434.459894 
L 482.874577 432.137029 
L 483.867283 433.547103 
L 484.859989 427.994307 
L 485.852695 432.652292 
L 486.845401 432.775972 
L 487.838107 434.432469 
L 488.830813 427.911682 
L 489.823519 435.608484 
L 490.816225 438.2596 
L 491.808931 439.043936 
L 492.801637 437.658044 
L 493.794343 427.341866 
L 494.787049 437.454659 
L 495.779754 433.872014 
L 496.77246 434.419976 
L 497.765166 437.858363 
L 498.757872 438.9285 
L 499.750578 439.548969 
L 500.743284 437.066568 
L 501.73599 435.380497 
L 502.728696 435.501946 
L 503.721402 441.153025 
L 504.714108 432.038258 
L 505.706814 436.375253 
L 506.69952 434.222674 
L 507.692226 440.195592 
L 508.684932 444.611573 
L 509.677637 436.353821 
L 510.670343 442.10255 
L 511.663049 435.087773 
L 512.655755 445.464454 
L 513.648461 443.014966 
L 514.641167 433.020682 
L 515.633873 437.877655 
L 516.626579 439.07032 
L 517.619285 443.84203 
L 518.611991 439.436863 
L 519.604697 441.407704 
L 520.597403 437.81005 
L 521.590109 442.631608 
L 522.582814 442.25224 
L 523.57552 448.953869 
L 524.568226 442.00223 
L 525.560932 445.488345 
L 526.553638 444.511027 
L 527.546344 441.44451 
L 528.53905 440.655504 
L 529.531756 444.170347 
L 530.524462 448.333425 
L 531.517168 441.70072 
L 532.509874 447.141723 
L 533.50258 441.909467 
L 534.495286 439.259724 
L 535.487991 441.838451 
L 536.480697 440.094875 
L 537.473403 440.687212 
L 538.466109 446.685657 
L 539.458815 438.808507 
L 540.451521 449.132339 
L 542.436933 437.545968 
L 543.429639 453.3797 
L 544.422345 441.371447 
L 545.415051 444.669858 
L 546.407757 444.146375 
L 547.400463 445.089767 
L 548.393168 444.786443 
L 549.385874 443.576208 
L 550.37858 443.896227 
L 551.371286 450.313336 
L 552.363992 441.488413 
L 553.356698 440.689763 
L 554.349404 443.836801 
L 555.34211 452.518996 
L 556.334816 447.598853 
L 557.327522 446.046916 
L 558.320228 449.361971 
L 559.312934 444.440151 
L 560.30564 447.866927 
L 561.298345 450.213096 
L 562.291051 451.353907 
L 563.283757 448.287946 
L 564.276463 452.941455 
L 565.269169 448.852571 
L 566.261875 446.796142 
L 567.254581 455.684332 
L 568.247287 446.974453 
L 569.239993 451.210257 
L 570.232699 445.156147 
L 571.225405 448.867685 
L 572.218111 447.839377 
L 573.210817 451.511381 
L 574.203523 444.375517 
L 575.196228 452.971505 
L 576.188934 447.755344 
L 577.18164 456.62584 
L 578.174346 455.495967 
L 579.167052 453.272585 
L 580.159758 453.033698 
L 581.152464 455.910783 
L 582.14517 446.96371 
L 583.137876 454.54936 
L 584.130582 453.299569 
L 585.123288 453.675552 
L 586.115994 452.982473 
L 587.1087 453.761883 
L 588.101405 453.02722 
L 589.094111 458.549247 
L 590.086817 445.743863 
L 591.079523 455.328431 
L 592.072229 456.29154 
L 593.064935 449.218973 
L 594.057641 454.205026 
L 595.050347 462.427081 
L 596.043053 454.363663 
L 597.035759 455.593409 
L 598.028465 453.706329 
L 599.021171 458.581939 
L 600.013877 456.989458 
L 601.006582 453.82287 
L 601.999288 456.295563 
L 602.991994 454.51828 
L 603.9847 453.729425 
L 604.977406 459.684401 
L 605.970112 456.476193 
L 606.962818 458.1826 
L 607.955524 458.701646 
L 608.94823 461.523972 
L 609.940936 459.290076 
L 610.933642 457.340278 
L 611.926348 454.547199 
L 613.911759 461.02912 
L 614.904465 453.841688 
L 615.897171 456.238789 
L 616.889877 455.964943 
L 617.882583 457.937519 
L 618.875289 460.396842 
L 619.867995 455.577917 
L 620.860701 462.711866 
L 621.853407 457.891239 
L 622.846113 456.421163 
L 623.838819 457.924353 
L 624.831525 456.833031 
L 625.824231 458.418425 
L 626.816936 460.314696 
L 627.809642 458.970002 
L 628.802348 461.524301 
L 629.795054 452.623395 
L 630.78776 459.940933 
L 631.780466 458.77406 
L 632.773172 460.801663 
L 633.765878 458.680103 
L 634.758584 461.213893 
L 635.75129 461.776558 
L 636.743996 460.052132 
L 637.736702 459.249881 
L 638.729408 460.001949 
L 639.722114 459.761743 
L 640.714819 460.676659 
L 641.707525 462.610655 
L 642.700231 462.553346 
L 643.692937 463.217765 
L 644.685643 460.424333 
L 645.678349 465.148471 
L 646.671055 460.513981 
L 647.663761 462.543971 
L 648.656467 460.243603 
L 649.649173 461.327939 
L 650.641879 463.802677 
L 652.627291 463.033869 
L 653.619996 463.16676 
L 654.612702 461.813504 
L 655.605408 463.477653 
L 656.598114 462.109045 
L 657.59082 463.101152 
L 658.583526 462.783268 
L 659.576232 464.043944 
L 660.568938 463.589071 
L 661.561644 462.69815 
L 663.547056 464.060416 
L 664.539762 463.995001 
L 665.532468 463.047223 
L 666.525173 463.011311 
L 667.517879 464.535479 
L 668.510585 465.185119 
L 669.503291 464.395977 
L 670.495997 464.479722 
L 671.488703 464.968646 
L 672.481409 463.352402 
L 673.474115 464.180928 
L 674.466821 466.156867 
L 675.459527 465.079777 
L 676.452233 465.486828 
L 677.444939 465.514812 
L 678.437645 464.980927 
L 679.43035 466.810237 
L 680.423056 464.953049 
L 681.415762 465.140963 
L 682.408468 465.473118 
L 683.401174 465.940808 
L 684.39388 464.915348 
L 685.386586 466.20536 
L 686.379292 467.002896 
L 687.371998 465.16188 
L 689.35741 466.509089 
L 690.350116 467.267279 
L 691.342822 466.229064 
L 692.335527 467.369275 
L 693.328233 467.011483 
L 694.320939 466.992651 
L 695.313645 466.401135 
L 696.306351 466.29865 
L 697.299057 467.276107 
L 698.291763 465.998458 
L 699.284469 467.359388 
L 700.277175 466.437036 
L 701.269881 467.496668 
L 702.262587 467.366679 
L 703.255293 468.309777 
L 704.247999 467.869989 
L 705.240705 468.304033 
L 706.23341 468.900077 
L 707.226116 468.302576 
L 708.218822 468.489488 
L 709.211528 468.101173 
L 710.204234 468.885707 
L 711.19694 468.674569 
L 712.189646 468.895492 
L 713.182352 468.85962 
L 714.175058 469.166387 
L 715.167764 468.692177 
L 716.16047 469.013222 
L 717.153176 469.180701 
L 718.145882 468.623019 
L 719.138587 469.281958 
L 720.131293 468.911949 
L 721.123999 469.748856 
L 722.116705 469.739265 
L 723.109411 470.257977 
L 724.102117 469.936182 
L 725.094823 470.421825 
L 726.087529 469.875336 
L 728.072941 470.650115 
L 729.065647 470.04284 
L 730.058353 470.876131 
L 731.051059 470.974769 
L 733.03647 470.623802 
L 734.029176 470.660501 
L 735.021882 471.412852 
L 737.007294 470.347645 
L 738 471.443563 
L 738.992706 471.410017 
L 739.985412 471.751098 
L 740.978118 471.457755 
L 741.970824 471.53608 
L 742.96353 471.799929 
L 743.956236 471.879557 
L 744.948941 472.524295 
L 745.941647 471.941486 
L 746.934353 472.250228 
L 748.919765 472.227898 
L 749.912471 472.866097 
L 750.905177 472.427341 
L 751.897883 472.308395 
L 752.890589 472.877782 
L 753.883295 472.595124 
L 754.876001 472.870836 
L 755.868707 472.864413 
L 756.861413 473.063654 
L 757.854118 472.922624 
L 758.846824 473.088391 
L 759.83953 472.864326 
L 760.832236 473.492426 
L 762.817648 473.467525 
L 763.810354 473.22032 
L 764.80306 473.773675 
L 765.795766 473.586936 
L 767.781178 474.376177 
L 768.773884 473.580538 
L 769.76659 474.049717 
L 770.759295 474.042925 
L 771.752001 474.264405 
L 772.744707 474.13236 
L 773.737413 474.547234 
L 774.730119 473.699723 
L 775.722825 475.084464 
L 776.715531 474.869001 
L 777.708237 474.777146 
L 778.700943 475.318617 
L 780.686355 474.804894 
L 781.679061 474.92518 
L 782.671767 475.320244 
L 784.657178 475.289332 
L 785.649884 475.557847 
L 786.64259 475.698602 
L 787.635296 475.445145 
L 788.628002 475.676886 
L 789.620708 475.288005 
L 790.613414 475.173056 
L 791.60612 475.934518 
L 792.598826 475.691759 
L 793.591532 476.278855 
L 794.584238 476.166249 
L 795.576944 476.433405 
L 797.562355 476.218366 
L 798.555061 476.801272 
L 799.547767 476.578418 
L 800.540473 476.141392 
L 802.525885 476.632068 
L 803.518591 476.894757 
L 804.511297 476.84619 
L 805.504003 477.385212 
L 806.496709 477.443056 
L 807.489415 477.214066 
L 808.482121 477.23082 
L 809.474827 477.102438 
L 811.460238 477.259212 
L 812.452944 477.065246 
L 813.44565 477.680834 
L 815.431062 477.567561 
L 816.423768 477.743137 
L 817.416474 478.186241 
L 818.40918 477.27258 
L 819.401886 477.679464 
L 820.394592 478.220615 
L 821.387298 478.034102 
L 822.380004 478.134745 
L 823.372709 478.001335 
L 824.365415 478.272233 
L 825.358121 478.69627 
L 826.350827 478.303192 
L 827.343533 478.658009 
L 828.336239 478.849213 
L 829.328945 478.39151 
L 830.321651 478.876203 
L 831.314357 478.452222 
L 832.307063 479.00935 
L 833.299769 479.157906 
L 834.292475 478.995002 
L 837.270592 478.933596 
L 838.263298 479.720136 
L 839.256004 479.007634 
L 840.24871 479.802887 
L 841.241416 479.417642 
L 842.234122 479.584758 
L 843.226828 479.199164 
L 844.219534 479.5984 
L 845.21224 479.608378 
L 846.204946 480.042611 
L 847.197652 479.78584 
L 850.175769 480.167299 
L 851.168475 480.592566 
L 852.161181 479.959443 
L 853.153887 480.359242 
L 854.146593 480.232868 
L 855.139299 479.981327 
L 856.132005 480.041382 
L 859.110123 480.81798 
L 861.095535 480.409293 
L 862.088241 480.415002 
L 863.080946 480.870868 
L 864.073652 480.393695 
L 865.066358 480.980652 
L 866.059064 480.937641 
L 867.05177 481.074977 
L 868.044476 481.469137 
L 869.037182 481.012096 
L 871.022594 481.801307 
L 872.0153 480.793397 
L 873.008006 481.484645 
L 874.000712 481.459994 
L 874.993418 481.229894 
L 875.986123 481.63039 
L 876.978829 481.745889 
L 878.964241 482.197782 
L 879.956947 481.92777 
L 880.949653 482.423169 
L 881.942359 481.880436 
L 882.935065 482.115794 
L 883.927771 481.978331 
L 884.920477 482.425996 
L 885.913183 482.299015 
L 886.905889 482.749011 
L 887.898595 482.15634 
L 888.8913 482.133035 
L 889.884006 482.485359 
L 890.876712 482.59003 
L 891.869418 482.431272 
L 892.862124 482.490787 
L 893.85483 482.717707 
L 894.847536 483.319954 
L 895.840242 483.382662 
L 897.825654 483.033971 
L 898.81836 482.575076 
L 899.811066 483.061277 
L 900.803772 483.247703 
L 902.789183 483.288664 
L 903.781889 483.457677 
L 904.774595 483.32294 
L 906.760007 483.651907 
L 907.752713 483.097953 
L 908.745419 483.176438 
L 909.738125 482.993286 
L 910.730831 483.74327 
L 911.723537 483.848032 
L 912.716243 483.663313 
L 913.708949 484.077831 
L 914.701655 483.53069 
L 915.69436 483.774445 
L 916.687066 483.556288 
L 917.679772 484.231861 
L 919.665184 483.946887 
L 920.65789 484.026655 
L 921.650596 484.289266 
L 922.643302 484.359979 
L 923.636008 483.893157 
L 924.628714 484.563355 
L 925.62142 484.215748 
L 926.614126 484.615513 
L 927.606832 484.289083 
L 928.599537 484.559639 
L 929.592243 484.312307 
L 930.584949 484.621557 
L 931.577655 484.723527 
L 933.563067 484.66126 
L 934.555773 484.63251 
L 935.548479 485.058773 
L 936.541185 484.872877 
L 937.533891 485.049668 
L 938.526597 484.673913 
L 939.519303 485.348377 
L 940.512009 485.012846 
L 941.504714 485.142285 
L 942.49742 485.640663 
L 943.490126 485.258657 
L 944.482832 485.117539 
L 945.475538 485.696605 
L 946.468244 484.703935 
L 947.46095 485.516104 
L 948.453656 485.694839 
L 949.446362 485.40071 
L 950.439068 485.808412 
L 952.42448 485.67965 
L 953.417186 485.376172 
L 954.409891 486.038525 
L 955.402597 485.659641 
L 956.395303 485.971297 
L 957.388009 485.777763 
L 958.380715 486.184805 
L 959.373421 486.14091 
L 960.366127 485.496832 
L 961.358833 486.269025 
L 962.351539 485.924434 
L 963.344245 485.730051 
L 964.336951 486.080543 
L 965.329657 486.592886 
L 967.315068 486.307814 
L 968.307774 486.511183 
L 969.30048 486.079055 
L 970.293186 486.986138 
L 971.285892 486.902982 
L 972.278598 486.597944 
L 973.271304 486.902281 
L 974.26401 486.176541 
L 975.256716 485.916414 
L 976.249422 486.720079 
L 978.234834 485.673851 
L 979.22754 486.824175 
L 980.220246 486.198465 
L 981.212951 486.966914 
L 982.205657 486.876141 
L 983.198363 486.657345 
L 984.191069 486.682079 
L 985.183775 486.886689 
L 986.176481 487.319613 
L 988.161893 487.323218 
L 989.154599 486.470116 
L 990.147305 487.33355 
L 991.140011 487.589413 
L 992.132717 487.025576 
L 993.125423 487.245217 
L 994.118128 487.192469 
L 995.110834 486.781811 
L 996.10354 487.239544 
L 998.088952 487.212289 
L 999.081658 487.494122 
L 1000.074364 487.48103 
L 1001.06707 488.318885 
L 1002.059776 487.215622 
L 1003.052482 488.096417 
L 1004.045188 487.973188 
L 1005.037894 487.147291 
L 1006.0306 487.977473 
L 1007.023305 487.850933 
L 1008.016011 487.407609 
L 1009.008717 487.998348 
L 1010.001423 487.738993 
L 1010.994129 487.957729 
L 1011.986835 488.004675 
L 1012.979541 488.1981 
L 1013.972247 489.140118 
L 1014.964953 488.295455 
L 1015.957659 487.667011 
L 1016.950365 488.37336 
L 1017.943071 488.15559 
L 1018.935777 488.179795 
L 1019.928482 489.07059 
L 1020.921188 488.174512 
L 1021.913894 488.654115 
L 1022.9066 488.131998 
L 1023.899306 488.60487 
L 1025.884718 488.3518 
L 1026.877424 488.520956 
L 1028.862836 488.342019 
L 1029.855542 489.044313 
L 1031.840954 487.986239 
L 1033.826365 489.180213 
L 1034.819071 488.245155 
L 1035.811777 488.620863 
L 1036.804483 488.662095 
L 1037.797189 488.820984 
L 1038.789895 488.382303 
L 1039.782601 489.195405 
L 1040.775307 489.08294 
L 1041.768013 489.153104 
L 1042.760719 488.850912 
L 1043.753425 489.154531 
L 1044.746131 489.271397 
L 1045.738837 489.269989 
L 1046.731542 489.063299 
L 1047.724248 489.020244 
L 1048.716954 489.228816 
L 1049.70966 488.938292 
L 1050.702366 489.053384 
L 1051.695072 488.685977 
L 1052.687778 489.735495 
L 1053.680484 488.904495 
L 1054.67319 488.920501 
L 1055.665896 489.644692 
L 1056.658602 489.300749 
L 1057.651308 489.214892 
L 1058.644014 489.788858 
L 1059.636719 490.197052 
L 1060.629425 488.923627 
L 1061.622131 488.991035 
L 1062.614837 490.007189 
L 1063.607543 489.678983 
L 1064.600249 489.931054 
L 1065.592955 489.795909 
L 1066.585661 490.081212 
L 1067.578367 490.014812 
L 1068.571073 489.478777 
L 1069.563779 490.007303 
L 1070.556485 489.946 
L 1071.549191 489.53597 
L 1072.541896 489.290806 
L 1073.534602 490.409045 
L 1074.527308 489.570507 
L 1075.520014 489.594909 
L 1077.505426 490.233526 
L 1078.498132 489.842858 
L 1079.490838 489.210652 
L 1080.483544 489.738255 
L 1081.47625 489.895919 
L 1082.468956 490.250739 
L 1083.461662 490.357515 
L 1084.454368 490.130835 
L 1085.447073 489.722803 
L 1086.439779 489.87154 
L 1087.432485 490.419867 
L 1088.425191 489.767355 
L 1090.410603 490.054149 
L 1091.403309 489.963234 
L 1092.396015 490.405202 
L 1093.388721 490.409428 
L 1094.381427 490.15276 
L 1095.374133 489.583792 
L 1096.366839 490.90158 
L 1097.359545 490.257558 
L 1098.35225 490.989242 
L 1099.344956 490.292766 
L 1100.337662 490.567674 
L 1101.330368 490.401376 
L 1102.323074 490.572691 
L 1103.31578 490.286932 
L 1104.308486 490.698892 
L 1106.293898 490.675676 
L 1107.286604 490.862854 
L 1108.27931 490.812953 
L 1109.272016 490.562469 
L 1110.264722 489.989463 
L 1111.257428 490.598412 
L 1112.250133 490.981644 
L 1113.242839 490.734572 
L 1114.235545 491.049628 
L 1115.228251 490.566418 
L 1116.220957 490.764347 
L 1117.213663 490.713997 
L 1118.206369 490.782275 
L 1119.199075 490.723134 
L 1120.191781 490.463411 
L 1121.184487 490.914468 
L 1122.177193 490.607958 
L 1124.162605 491.40734 
L 1125.15531 490.570206 
L 1126.148016 490.922554 
L 1127.140722 490.983142 
L 1128.133428 490.55959 
L 1129.126134 490.614519 
L 1130.11884 491.239377 
L 1131.111546 491.03657 
L 1132.104252 491.345045 
L 1133.096958 490.948839 
L 1135.08237 490.831392 
L 1136.075076 490.749329 
L 1137.067782 491.052356 
L 1138.060487 491.231999 
L 1139.053193 490.824112 
L 1140.045899 490.996374 
L 1141.038605 491.319524 
L 1143.024017 491.023682 
L 1144.016723 491.596607 
L 1145.009429 491.535405 
L 1146.002135 491.019473 
L 1146.994841 491.091535 
L 1147.987547 491.373687 
L 1148.980253 490.548265 
L 1149.972959 491.40522 
L 1150.965664 491.530366 
L 1151.95837 492.029983 
L 1152.951076 491.162391 
L 1153.943782 491.675063 
L 1154.936488 491.014357 
L 1155.929194 490.845137 
L 1156.9219 491.571603 
L 1158.907312 490.914886 
L 1159.900018 491.613356 
L 1160.892724 491.367874 
L 1161.88543 491.62998 
L 1162.878136 491.027041 
L 1163.870841 491.642435 
L 1165.856253 492.095166 
L 1167.841665 491.350132 
L 1168.834371 491.306533 
L 1170.819783 492.046994 
L 1171.812489 491.337847 
L 1172.805195 491.262481 
L 1173.797901 491.753022 
L 1174.790607 491.726187 
L 1175.783313 491.122929 
L 1176.776019 491.666377 
L 1177.768724 491.478556 
L 1178.76143 491.754784 
L 1180.746842 491.596216 
L 1181.739548 491.808703 
L 1182.732254 491.612959 
L 1183.72496 491.925515 
L 1184.717666 492.030319 
L 1185.710372 491.530899 
L 1186.703078 491.311082 
L 1187.695784 491.990969 
L 1188.68849 491.967515 
L 1189.681196 492.153731 
L 1191.666607 491.518436 
L 1194.644725 492.411124 
L 1195.637431 491.191171 
L 1196.630137 491.990988 
L 1197.622843 492.064463 
L 1198.615549 491.173893 
L 1199.608255 491.546772 
L 1200.600961 491.595459 
L 1201.593667 491.955161 
L 1202.586373 491.520233 
L 1203.579078 491.244126 
L 1204.571784 491.754168 
L 1206.557196 492.034741 
L 1208.542608 491.730056 
L 1209.535314 492.294038 
L 1210.52802 491.73839 
L 1212.513432 492.019594 
L 1213.506138 491.631607 
L 1214.498844 492.082186 
L 1215.49155 491.703932 
L 1216.484255 491.49395 
L 1217.476961 491.959106 
L 1220.455079 491.571778 
L 1221.447785 491.991219 
L 1222.440491 491.810206 
L 1223.433197 492.121196 
L 1224.425903 491.956791 
L 1225.418609 491.259125 
L 1226.411315 492.061309 
L 1227.404021 492.167479 
L 1228.396727 491.634258 
L 1229.389432 492.006563 
L 1230.382138 491.749387 
L 1231.374844 492.37411 
L 1232.36755 492.007683 
L 1233.360256 492.061955 
L 1235.345668 492.48 
L 1236.338374 491.495743 
L 1237.33108 491.649889 
L 1239.316492 491.63153 
L 1240.309198 492.041504 
L 1241.301904 491.62484 
L 1242.29461 491.851348 
L 1243.287315 491.575169 
L 1245.272727 491.498809 
L 1245.272727 491.498809 
" clip-path="url(#pc5fdba0f68)" style="fill: none; stroke: #1f77b4; stroke-width: 1.5; stroke-linecap: square"/>
   </g>
   <g id="patch_3">
    <path d="M 180 512.64 
L 180 69.12 
" style="fill: none; stroke: #000000; stroke-width: 0.8; stroke-linejoin: miter; stroke-linecap: square"/>
   </g>
   <g id="patch_4">
    <path d="M 1296 512.64 
L 1296 69.12 
" style="fill: none; stroke: #000000; stroke-width: 0.8; stroke-linejoin: miter; stroke-linecap: square"/>
   </g>
   <g id="patch_5">
    <path d="M 180 512.64 
L 1296 512.64 
" style="fill: none; stroke: #000000; stroke-width: 0.8; stroke-linejoin: miter; stroke-linecap: square"/>
   </g>
   <g id="patch_6">
    <path d="M 180 69.12 
L 1296 69.12 
" style="fill: none; stroke: #000000; stroke-width: 0.8; stroke-linejoin: miter; stroke-linecap: square"/>
   </g>
   <g id="text_15">
    <!-- source7-receiver20 -->
    <g transform="translate(544.9 60.80125) scale(0.4 -0.4)">
     <defs>
      <path id="DejaVuSans-73" d="M 2834 3397 
L 2834 2853 
Q 2591 2978 2328 3040 
Q 2066 3103 1784 3103 
Q 1356 3103 1142 2972 
Q 928 2841 928 2578 
Q 928 2378 1081 2264 
Q 1234 2150 1697 2047 
L 1894 2003 
Q 2506 1872 2764 1633 
Q 3022 1394 3022 966 
Q 3022 478 2636 193 
Q 2250 -91 1575 -91 
Q 1294 -91 989 -36 
Q 684 19 347 128 
L 347 722 
Q 666 556 975 473 
Q 1284 391 1588 391 
Q 1994 391 2212 530 
Q 2431 669 2431 922 
Q 2431 1156 2273 1281 
Q 2116 1406 1581 1522 
L 1381 1569 
Q 847 1681 609 1914 
Q 372 2147 372 2553 
Q 372 3047 722 3315 
Q 1072 3584 1716 3584 
Q 2034 3584 2315 3537 
Q 2597 3491 2834 3397 
z
" transform="scale(0.015625)"/>
      <path id="DejaVuSans-6f" d="M 1959 3097 
Q 1497 3097 1228 2736 
Q 959 2375 959 1747 
Q 959 1119 1226 758 
Q 1494 397 1959 397 
Q 2419 397 2687 759 
Q 2956 1122 2956 1747 
Q 2956 2369 2687 2733 
Q 2419 3097 1959 3097 
z
M 1959 3584 
Q 2709 3584 3137 3096 
Q 3566 2609 3566 1747 
Q 3566 888 3137 398 
Q 2709 -91 1959 -91 
Q 1206 -91 779 398 
Q 353 888 353 1747 
Q 353 2609 779 3096 
Q 1206 3584 1959 3584 
z
" transform="scale(0.015625)"/>
      <path id="DejaVuSans-75" d="M 544 1381 
L 544 3500 
L 1119 3500 
L 1119 1403 
Q 1119 906 1312 657 
Q 1506 409 1894 409 
Q 2359 409 2629 706 
Q 2900 1003 2900 1516 
L 2900 3500 
L 3475 3500 
L 3475 0 
L 2900 0 
L 2900 538 
Q 2691 219 2414 64 
Q 2138 -91 1772 -91 
Q 1169 -91 856 284 
Q 544 659 544 1381 
z
M 1991 3584 
L 1991 3584 
z
" transform="scale(0.015625)"/>
      <path id="DejaVuSans-72" d="M 2631 2963 
Q 2534 3019 2420 3045 
Q 2306 3072 2169 3072 
Q 1681 3072 1420 2755 
Q 1159 2438 1159 1844 
L 1159 0 
L 581 0 
L 581 3500 
L 1159 3500 
L 1159 2956 
Q 1341 3275 1631 3429 
Q 1922 3584 2338 3584 
Q 2397 3584 2469 3576 
Q 2541 3569 2628 3553 
L 2631 2963 
z
" transform="scale(0.015625)"/>
      <path id="DejaVuSans-63" d="M 3122 3366 
L 3122 2828 
Q 2878 2963 2633 3030 
Q 2388 3097 2138 3097 
Q 1578 3097 1268 2742 
Q 959 2388 959 1747 
Q 959 1106 1268 751 
Q 1578 397 2138 397 
Q 2388 397 2633 464 
Q 2878 531 3122 666 
L 3122 134 
Q 2881 22 2623 -34 
Q 2366 -91 2075 -91 
Q 1284 -91 818 406 
Q 353 903 353 1747 
Q 353 2603 823 3093 
Q 1294 3584 2113 3584 
Q 2378 3584 2631 3529 
Q 2884 3475 3122 3366 
z
" transform="scale(0.015625)"/>
      <path id="DejaVuSans-65" d="M 3597 1894 
L 3597 1613 
L 953 1613 
Q 991 1019 1311 708 
Q 1631 397 2203 397 
Q 2534 397 2845 478 
Q 3156 559 3463 722 
L 3463 178 
Q 3153 47 2828 -22 
Q 2503 -91 2169 -91 
Q 1331 -91 842 396 
Q 353 884 353 1716 
Q 353 2575 817 3079 
Q 1281 3584 2069 3584 
Q 2775 3584 3186 3129 
Q 3597 2675 3597 1894 
z
M 3022 2063 
Q 3016 2534 2758 2815 
Q 2500 3097 2075 3097 
Q 1594 3097 1305 2825 
Q 1016 2553 972 2059 
L 3022 2063 
z
" transform="scale(0.015625)"/>
      <path id="DejaVuSans-37" d="M 525 4666 
L 3525 4666 
L 3525 4397 
L 1831 0 
L 1172 0 
L 2766 4134 
L 525 4134 
L 525 4666 
z
" transform="scale(0.015625)"/>
      <path id="DejaVuSans-2d" d="M 313 2009 
L 1997 2009 
L 1997 1497 
L 313 1497 
L 313 2009 
z
" transform="scale(0.015625)"/>
      <path id="DejaVuSans-69" d="M 603 3500 
L 1178 3500 
L 1178 0 
L 603 0 
L 603 3500 
z
M 603 4863 
L 1178 4863 
L 1178 4134 
L 603 4134 
L 603 4863 
z
" transform="scale(0.015625)"/>
      <path id="DejaVuSans-76" d="M 191 3500 
L 800 3500 
L 1894 563 
L 2988 3500 
L 3597 3500 
L 2284 0 
L 1503 0 
L 191 3500 
z
" transform="scale(0.015625)"/>
     </defs>
     <use xlink:href="#DejaVuSans-73"/>
     <use xlink:href="#DejaVuSans-6f" x="52.099609"/>
     <use xlink:href="#DejaVuSans-75" x="113.28125"/>
     <use xlink:href="#DejaVuSans-72" x="176.660156"/>
     <use xlink:href="#DejaVuSans-63" x="215.523438"/>
     <use xlink:href="#DejaVuSans-65" x="270.503906"/>
     <use xlink:href="#DejaVuSans-37" x="332.027344"/>
     <use xlink:href="#DejaVuSans-2d" x="395.650391"/>
     <use xlink:href="#DejaVuSans-72" x="431.734375"/>
     <use xlink:href="#DejaVuSans-65" x="470.597656"/>
     <use xlink:href="#DejaVuSans-63" x="532.121094"/>
     <use xlink:href="#DejaVuSans-65" x="587.101562"/>
     <use xlink:href="#DejaVuSans-69" x="648.625"/>
     <use xlink:href="#DejaVuSans-76" x="676.408203"/>
     <use xlink:href="#DejaVuSans-65" x="735.587891"/>
     <use xlink:href="#DejaVuSans-72" x="797.111328"/>
     <use xlink:href="#DejaVuSans-32" x="838.224609"/>
     <use xlink:href="#DejaVuSans-30" x="901.847656"/>
    </g>
   </g>
  </g>
 </g>
 <defs>
  <clipPath id="pc5fdba0f68">
   <rect x="180" y="69.12" width="1116" height="443.52"/>
  </clipPath>
 </defs>
</svg>
