<?xml version="1.0" encoding="utf-8" standalone="no"?>
<!DOCTYPE svg PUBLIC "-//W3C//DTD SVG 1.1//EN"
  "http://www.w3.org/Graphics/SVG/1.1/DTD/svg11.dtd">
<svg xmlns:xlink="http://www.w3.org/1999/xlink" width="1440pt" height="576pt" viewBox="0 0 1440 576" xmlns="http://www.w3.org/2000/svg" version="1.1">
 <metadata>
  <rdf:RDF xmlns:dc="http://purl.org/dc/elements/1.1/" xmlns:cc="http://creativecommons.org/ns#" xmlns:rdf="http://www.w3.org/1999/02/22-rdf-syntax-ns#">
   <cc:Work>
    <dc:type rdf:resource="http://purl.org/dc/dcmitype/StillImage"/>
    <dc:date>2024-05-22T04:49:52.609648</dc:date>
    <dc:format>image/svg+xml</dc:format>
    <dc:creator>
     <cc:Agent>
      <dc:title>Matplotlib v3.8.3, https://matplotlib.org/</dc:title>
     </cc:Agent>
    </dc:creator>
   </cc:Work>
  </rdf:RDF>
 </metadata>
 <defs>
  <style type="text/css">*{stroke-linejoin: round; stroke-linecap: butt}</style>
 </defs>
 <g id="figure_1">
  <g id="patch_1">
   <path d="M 0 576 
L 1440 576 
L 1440 0 
L 0 0 
z
" style="fill: #ffffff"/>
  </g>
  <g id="axes_1">
   <g id="patch_2">
    <path d="M 180 512.64 
L 1296 512.64 
L 1296 69.12 
L 180 69.12 
z
" style="fill: #ffffff"/>
   </g>
   <g id="matplotlib.axis_1">
    <g id="xtick_1">
     <g id="line2d_1">
      <defs>
       <path id="m7f483667ef" d="M 0 0 
L 0 3.5 
" style="stroke: #000000; stroke-width: 0.8"/>
      </defs>
      <g>
       <use xlink:href="#m7f483667ef" x="229.734567" y="512.64" style="stroke: #000000; stroke-width: 0.8"/>
      </g>
     </g>
     <g id="text_1">
      <!-- 0 -->
      <g transform="translate(226.553317 527.238438) scale(0.1 -0.1)">
       <defs>
        <path id="DejaVuSans-30" d="M 2034 4250 
Q 1547 4250 1301 3770 
Q 1056 3291 1056 2328 
Q 1056 1369 1301 889 
Q 1547 409 2034 409 
Q 2525 409 2770 889 
Q 3016 1369 3016 2328 
Q 3016 3291 2770 3770 
Q 2525 4250 2034 4250 
z
M 2034 4750 
Q 2819 4750 3233 4129 
Q 3647 3509 3647 2328 
Q 3647 1150 3233 529 
Q 2819 -91 2034 -91 
Q 1250 -91 836 529 
Q 422 1150 422 2328 
Q 422 3509 836 4129 
Q 1250 4750 2034 4750 
z
" transform="scale(0.015625)"/>
       </defs>
       <use xlink:href="#DejaVuSans-30"/>
      </g>
     </g>
    </g>
    <g id="xtick_2">
     <g id="line2d_2">
      <g>
       <use xlink:href="#m7f483667ef" x="433.04074" y="512.64" style="stroke: #000000; stroke-width: 0.8"/>
      </g>
     </g>
     <g id="text_2">
      <!-- 500 -->
      <g transform="translate(423.49699 527.238438) scale(0.1 -0.1)">
       <defs>
        <path id="DejaVuSans-35" d="M 691 4666 
L 3169 4666 
L 3169 4134 
L 1269 4134 
L 1269 2991 
Q 1406 3038 1543 3061 
Q 1681 3084 1819 3084 
Q 2600 3084 3056 2656 
Q 3513 2228 3513 1497 
Q 3513 744 3044 326 
Q 2575 -91 1722 -91 
Q 1428 -91 1123 -41 
Q 819 9 494 109 
L 494 744 
Q 775 591 1075 516 
Q 1375 441 1709 441 
Q 2250 441 2565 725 
Q 2881 1009 2881 1497 
Q 2881 1984 2565 2268 
Q 2250 2553 1709 2553 
Q 1456 2553 1204 2497 
Q 953 2441 691 2322 
L 691 4666 
z
" transform="scale(0.015625)"/>
       </defs>
       <use xlink:href="#DejaVuSans-35"/>
       <use xlink:href="#DejaVuSans-30" x="63.623047"/>
       <use xlink:href="#DejaVuSans-30" x="127.246094"/>
      </g>
     </g>
    </g>
    <g id="xtick_3">
     <g id="line2d_3">
      <g>
       <use xlink:href="#m7f483667ef" x="636.346913" y="512.64" style="stroke: #000000; stroke-width: 0.8"/>
      </g>
     </g>
     <g id="text_3">
      <!-- 1000 -->
      <g transform="translate(623.621913 527.238438) scale(0.1 -0.1)">
       <defs>
        <path id="DejaVuSans-31" d="M 794 531 
L 1825 531 
L 1825 4091 
L 703 3866 
L 703 4441 
L 1819 4666 
L 2450 4666 
L 2450 531 
L 3481 531 
L 3481 0 
L 794 0 
L 794 531 
z
" transform="scale(0.015625)"/>
       </defs>
       <use xlink:href="#DejaVuSans-31"/>
       <use xlink:href="#DejaVuSans-30" x="63.623047"/>
       <use xlink:href="#DejaVuSans-30" x="127.246094"/>
       <use xlink:href="#DejaVuSans-30" x="190.869141"/>
      </g>
     </g>
    </g>
    <g id="xtick_4">
     <g id="line2d_4">
      <g>
       <use xlink:href="#m7f483667ef" x="839.653087" y="512.64" style="stroke: #000000; stroke-width: 0.8"/>
      </g>
     </g>
     <g id="text_4">
      <!-- 1500 -->
      <g transform="translate(826.928087 527.238438) scale(0.1 -0.1)">
       <use xlink:href="#DejaVuSans-31"/>
       <use xlink:href="#DejaVuSans-35" x="63.623047"/>
       <use xlink:href="#DejaVuSans-30" x="127.246094"/>
       <use xlink:href="#DejaVuSans-30" x="190.869141"/>
      </g>
     </g>
    </g>
    <g id="xtick_5">
     <g id="line2d_5">
      <g>
       <use xlink:href="#m7f483667ef" x="1042.95926" y="512.64" style="stroke: #000000; stroke-width: 0.8"/>
      </g>
     </g>
     <g id="text_5">
      <!-- 2000 -->
      <g transform="translate(1030.23426 527.238438) scale(0.1 -0.1)">
       <defs>
        <path id="DejaVuSans-32" d="M 1228 531 
L 3431 531 
L 3431 0 
L 469 0 
L 469 531 
Q 828 903 1448 1529 
Q 2069 2156 2228 2338 
Q 2531 2678 2651 2914 
Q 2772 3150 2772 3378 
Q 2772 3750 2511 3984 
Q 2250 4219 1831 4219 
Q 1534 4219 1204 4116 
Q 875 4013 500 3803 
L 500 4441 
Q 881 4594 1212 4672 
Q 1544 4750 1819 4750 
Q 2544 4750 2975 4387 
Q 3406 4025 3406 3419 
Q 3406 3131 3298 2873 
Q 3191 2616 2906 2266 
Q 2828 2175 2409 1742 
Q 1991 1309 1228 531 
z
" transform="scale(0.015625)"/>
       </defs>
       <use xlink:href="#DejaVuSans-32"/>
       <use xlink:href="#DejaVuSans-30" x="63.623047"/>
       <use xlink:href="#DejaVuSans-30" x="127.246094"/>
       <use xlink:href="#DejaVuSans-30" x="190.869141"/>
      </g>
     </g>
    </g>
    <g id="xtick_6">
     <g id="line2d_6">
      <g>
       <use xlink:href="#m7f483667ef" x="1246.265433" y="512.64" style="stroke: #000000; stroke-width: 0.8"/>
      </g>
     </g>
     <g id="text_6">
      <!-- 2500 -->
      <g transform="translate(1233.540433 527.238438) scale(0.1 -0.1)">
       <use xlink:href="#DejaVuSans-32"/>
       <use xlink:href="#DejaVuSans-35" x="63.623047"/>
       <use xlink:href="#DejaVuSans-30" x="127.246094"/>
       <use xlink:href="#DejaVuSans-30" x="190.869141"/>
      </g>
     </g>
    </g>
   </g>
   <g id="matplotlib.axis_2">
    <g id="ytick_1">
     <g id="line2d_7">
      <defs>
       <path id="m31189b1638" d="M 0 0 
L -3.5 0 
" style="stroke: #000000; stroke-width: 0.8"/>
      </defs>
      <g>
       <use xlink:href="#m31189b1638" x="180" y="481.996557" style="stroke: #000000; stroke-width: 0.8"/>
      </g>
     </g>
     <g id="text_7">
      <!-- −6 -->
      <g transform="translate(158.257812 485.795775) scale(0.1 -0.1)">
       <defs>
        <path id="DejaVuSans-2212" d="M 678 2272 
L 4684 2272 
L 4684 1741 
L 678 1741 
L 678 2272 
z
" transform="scale(0.015625)"/>
        <path id="DejaVuSans-36" d="M 2113 2584 
Q 1688 2584 1439 2293 
Q 1191 2003 1191 1497 
Q 1191 994 1439 701 
Q 1688 409 2113 409 
Q 2538 409 2786 701 
Q 3034 994 3034 1497 
Q 3034 2003 2786 2293 
Q 2538 2584 2113 2584 
z
M 3366 4563 
L 3366 3988 
Q 3128 4100 2886 4159 
Q 2644 4219 2406 4219 
Q 1781 4219 1451 3797 
Q 1122 3375 1075 2522 
Q 1259 2794 1537 2939 
Q 1816 3084 2150 3084 
Q 2853 3084 3261 2657 
Q 3669 2231 3669 1497 
Q 3669 778 3244 343 
Q 2819 -91 2113 -91 
Q 1303 -91 875 529 
Q 447 1150 447 2328 
Q 447 3434 972 4092 
Q 1497 4750 2381 4750 
Q 2619 4750 2861 4703 
Q 3103 4656 3366 4563 
z
" transform="scale(0.015625)"/>
       </defs>
       <use xlink:href="#DejaVuSans-2212"/>
       <use xlink:href="#DejaVuSans-36" x="83.789062"/>
      </g>
     </g>
    </g>
    <g id="ytick_2">
     <g id="line2d_8">
      <g>
       <use xlink:href="#m31189b1638" x="180" y="404.730974" style="stroke: #000000; stroke-width: 0.8"/>
      </g>
     </g>
     <g id="text_8">
      <!-- −4 -->
      <g transform="translate(158.257812 408.530193) scale(0.1 -0.1)">
       <defs>
        <path id="DejaVuSans-34" d="M 2419 4116 
L 825 1625 
L 2419 1625 
L 2419 4116 
z
M 2253 4666 
L 3047 4666 
L 3047 1625 
L 3713 1625 
L 3713 1100 
L 3047 1100 
L 3047 0 
L 2419 0 
L 2419 1100 
L 313 1100 
L 313 1709 
L 2253 4666 
z
" transform="scale(0.015625)"/>
       </defs>
       <use xlink:href="#DejaVuSans-2212"/>
       <use xlink:href="#DejaVuSans-34" x="83.789062"/>
      </g>
     </g>
    </g>
    <g id="ytick_3">
     <g id="line2d_9">
      <g>
       <use xlink:href="#m31189b1638" x="180" y="327.465392" style="stroke: #000000; stroke-width: 0.8"/>
      </g>
     </g>
     <g id="text_9">
      <!-- −2 -->
      <g transform="translate(158.257812 331.264611) scale(0.1 -0.1)">
       <use xlink:href="#DejaVuSans-2212"/>
       <use xlink:href="#DejaVuSans-32" x="83.789062"/>
      </g>
     </g>
    </g>
    <g id="ytick_4">
     <g id="line2d_10">
      <g>
       <use xlink:href="#m31189b1638" x="180" y="250.19981" style="stroke: #000000; stroke-width: 0.8"/>
      </g>
     </g>
     <g id="text_10">
      <!-- 0 -->
      <g transform="translate(166.6375 253.999029) scale(0.1 -0.1)">
       <use xlink:href="#DejaVuSans-30"/>
      </g>
     </g>
    </g>
    <g id="ytick_5">
     <g id="line2d_11">
      <g>
       <use xlink:href="#m31189b1638" x="180" y="172.934228" style="stroke: #000000; stroke-width: 0.8"/>
      </g>
     </g>
     <g id="text_11">
      <!-- 2 -->
      <g transform="translate(166.6375 176.733446) scale(0.1 -0.1)">
       <use xlink:href="#DejaVuSans-32"/>
      </g>
     </g>
    </g>
    <g id="ytick_6">
     <g id="line2d_12">
      <g>
       <use xlink:href="#m31189b1638" x="180" y="95.668645" style="stroke: #000000; stroke-width: 0.8"/>
      </g>
     </g>
     <g id="text_12">
      <!-- 4 -->
      <g transform="translate(166.6375 99.467864) scale(0.1 -0.1)">
       <use xlink:href="#DejaVuSans-34"/>
      </g>
     </g>
    </g>
   </g>
   <g id="line2d_13">
    <path d="M 230.727273 322.005145 
L 231.719979 320.530486 
L 232.712685 318.208814 
L 233.70539 315.455541 
L 234.698096 312.292469 
L 235.690802 308.195234 
L 236.683508 304.719879 
L 237.676214 300.371969 
L 238.66892 296.749058 
L 243.63245 274.930707 
L 244.625156 269.523383 
L 245.617862 262.949088 
L 247.603273 242.4838 
L 248.595979 240.69381 
L 249.588685 256.947933 
L 250.581391 277.725633 
L 251.574097 240.255952 
L 252.566803 225.055223 
L 253.559509 213.446315 
L 254.552215 204.288546 
L 255.544921 199.189517 
L 256.537627 207.352675 
L 257.530333 278.478716 
L 258.523039 220.620674 
L 259.515745 240.230974 
L 260.50845 177.21045 
L 261.501156 150.92708 
L 262.493862 150.408258 
L 263.486568 148.417451 
L 264.479274 131.956625 
L 265.47198 134.13889 
L 266.464686 165.419041 
L 267.457392 169.533879 
L 268.450098 170.58383 
L 269.442804 200.147758 
L 270.43551 169.630271 
L 271.428216 185.378604 
L 272.420922 184.66433 
L 273.413627 200.474559 
L 274.406333 141.80536 
L 275.399039 128.728597 
L 276.391745 160.427 
L 277.384451 129.011072 
L 278.377157 106.440537 
L 279.369863 116.565732 
L 280.362569 197.081723 
L 281.355275 109.274553 
L 282.347981 95.69507 
L 283.340687 101.385796 
L 284.333393 121.720358 
L 285.326099 148.27266 
L 286.318804 132.969317 
L 287.31151 113.467731 
L 288.304216 100.557829 
L 289.296922 91.010393 
L 290.289628 89.28 
L 291.282334 98.89543 
L 292.27504 120.550328 
L 293.267746 149.713346 
L 294.260452 200.100772 
L 295.253158 189.396576 
L 296.245864 176.194455 
L 297.23857 209.811795 
L 298.231276 214.035161 
L 299.223981 214.302748 
L 300.216687 214.142427 
L 301.209393 204.678091 
L 302.202099 221.401324 
L 303.194805 278.347388 
L 304.187511 299.368836 
L 305.180217 266.0001 
L 306.172923 265.55978 
L 308.158335 315.333449 
L 309.151041 270.043124 
L 310.143747 272.211782 
L 311.136453 330.461288 
L 312.129159 309.603011 
L 313.121864 315.610815 
L 314.11457 319.051741 
L 315.107276 293.43327 
L 317.092688 337.275255 
L 318.085394 329.845409 
L 320.070806 320.181727 
L 321.063512 319.617215 
L 322.056218 322.389725 
L 323.048924 332.150453 
L 324.04163 323.236817 
L 325.034336 348.283002 
L 326.027041 334.408891 
L 328.012453 353.592374 
L 329.005159 329.012962 
L 329.997865 339.793073 
L 330.990571 376.430407 
L 331.983277 333.864576 
L 332.975983 374.881692 
L 333.968689 356.330695 
L 334.961395 365.050814 
L 335.954101 349.677648 
L 336.946807 365.918852 
L 337.939513 341.993074 
L 338.932218 374.658831 
L 339.924924 365.105136 
L 340.91763 389.312501 
L 341.910336 345.532385 
L 342.903042 372.660433 
L 343.895748 364.8527 
L 344.888454 371.607772 
L 345.88116 367.917197 
L 346.873866 345.269665 
L 347.866572 364.641712 
L 348.859278 343.863797 
L 349.851984 395.455314 
L 350.84469 413.58967 
L 351.837395 366.157958 
L 352.830101 384.016079 
L 353.822807 361.357612 
L 354.815513 384.176643 
L 355.808219 375.639398 
L 356.800925 357.371854 
L 357.793631 371.749812 
L 358.786337 364.963561 
L 359.779043 402.729941 
L 360.771749 388.695001 
L 361.764455 367.403367 
L 362.757161 384.246869 
L 363.749867 382.569968 
L 364.742572 366.266218 
L 365.735278 379.751496 
L 366.727984 351.082834 
L 367.72069 388.789156 
L 368.713396 388.167647 
L 370.698808 368.032296 
L 371.691514 367.961014 
L 372.68422 366.900186 
L 374.669632 411.658873 
L 375.662338 362.169541 
L 376.655044 360.647699 
L 377.64775 343.760941 
L 378.640455 411.803534 
L 379.633161 370.365093 
L 381.618573 402.520285 
L 382.611279 367.551095 
L 383.603985 352.480564 
L 384.596691 355.89834 
L 385.589397 388.012657 
L 386.582103 375.836023 
L 387.574809 382.595809 
L 388.567515 357.302372 
L 389.560221 351.372995 
L 390.552927 393.299471 
L 391.545632 394.418841 
L 392.538338 425.435369 
L 393.531044 346.873306 
L 394.52375 397.082372 
L 395.516456 352.238239 
L 396.509162 396.803524 
L 397.501868 360.051613 
L 398.494574 396.998991 
L 399.48728 373.530987 
L 400.479986 344.211862 
L 401.472692 458.510792 
L 402.465398 406.116209 
L 403.458104 409.310461 
L 404.450809 375.294259 
L 405.443515 432.928494 
L 406.436221 386.875237 
L 407.428927 353.869602 
L 408.421633 393.287151 
L 409.414339 369.436644 
L 410.407045 399.824913 
L 411.399751 363.159875 
L 412.392457 369.683403 
L 413.385163 437.558414 
L 414.377869 385.949891 
L 415.370575 377.252567 
L 416.363281 370.668269 
L 417.355986 383.715026 
L 419.341398 347.04917 
L 420.334104 384.080876 
L 421.32681 404.722431 
L 422.319516 368.794236 
L 423.312222 390.398332 
L 424.304928 372.870289 
L 425.297634 349.08865 
L 426.29034 363.651494 
L 427.283046 381.086291 
L 428.275752 412.903613 
L 429.268458 367.676386 
L 430.261163 374.287836 
L 431.253869 392.223903 
L 432.246575 391.705646 
L 433.239281 420.523675 
L 434.231987 358.00468 
L 435.224693 390.881877 
L 436.217399 365.955474 
L 437.210105 350.53067 
L 438.202811 492.48 
L 439.195517 399.558043 
L 440.188223 365.088464 
L 441.180929 361.65596 
L 442.173635 363.166792 
L 443.166341 367.577813 
L 444.159046 377.998979 
L 445.151752 375.41822 
L 446.144458 359.823826 
L 447.137164 385.279141 
L 448.12987 402.639549 
L 449.122576 377.911765 
L 450.115282 367.61309 
L 451.107988 371.428942 
L 452.100694 365.364126 
L 453.0934 414.737302 
L 454.086106 376.341828 
L 455.078812 385.638277 
L 456.071518 428.510215 
L 457.064223 382.950416 
L 458.056929 344.82163 
L 459.049635 383.382796 
L 460.042341 400.930084 
L 461.035047 421.898342 
L 462.027753 386.928337 
L 463.020459 377.552257 
L 464.013165 354.871479 
L 465.005871 386.995479 
L 465.998577 405.856594 
L 466.991283 372.106526 
L 467.983989 487.427442 
L 468.976695 376.46798 
L 469.9694 405.864753 
L 470.962106 398.326354 
L 471.954812 384.251707 
L 472.947518 373.505918 
L 473.940224 386.708496 
L 474.93293 403.440851 
L 475.925636 385.662664 
L 476.918342 395.801186 
L 477.911048 431.683752 
L 478.903754 372.082479 
L 479.89646 361.394263 
L 480.889166 371.267356 
L 481.881872 405.295176 
L 482.874577 362.283426 
L 483.867283 419.786591 
L 484.859989 366.432911 
L 485.852695 368.859386 
L 486.845401 409.17209 
L 487.838107 402.404131 
L 488.830813 374.218885 
L 489.823519 370.924453 
L 490.816225 381.11371 
L 491.808931 373.552491 
L 492.801637 380.190807 
L 493.794343 387.931379 
L 494.787049 386.889181 
L 495.779754 352.653131 
L 496.77246 407.442747 
L 497.765166 389.201132 
L 498.757872 394.263965 
L 499.750578 382.541443 
L 500.743284 383.108864 
L 501.73599 397.125035 
L 502.728696 409.106907 
L 503.721402 431.389664 
L 504.714108 401.380481 
L 505.706814 443.453854 
L 506.69952 403.576282 
L 507.692226 419.643435 
L 508.684932 371.353645 
L 509.677637 379.539702 
L 510.670343 414.547295 
L 511.663049 357.869584 
L 512.655755 399.609104 
L 513.648461 388.703463 
L 514.641167 395.148497 
L 515.633873 373.811544 
L 516.626579 387.498298 
L 517.619285 370.937626 
L 518.611991 483.134678 
L 519.604697 405.149206 
L 520.597403 359.243907 
L 521.590109 359.057871 
L 522.582814 429.614924 
L 523.57552 422.970457 
L 524.568226 406.767619 
L 525.560932 445.907483 
L 526.553638 408.941199 
L 527.546344 403.724483 
L 528.53905 392.318419 
L 529.531756 391.609179 
L 530.524462 381.221201 
L 531.517168 377.806075 
L 532.509874 379.884207 
L 533.50258 385.244907 
L 534.495286 354.070078 
L 535.487991 376.357319 
L 536.480697 369.785383 
L 537.473403 392.319717 
L 538.466109 374.194647 
L 539.458815 372.17331 
L 540.451521 378.610371 
L 542.436933 360.569389 
L 543.429639 378.923962 
L 544.422345 373.500277 
L 545.415051 367.072661 
L 546.407757 355.055658 
L 547.400463 373.837452 
L 548.393168 367.842604 
L 549.385874 397.237551 
L 550.37858 377.293968 
L 551.371286 379.273141 
L 552.363992 386.697414 
L 553.356698 415.596146 
L 554.349404 399.39048 
L 555.34211 402.798627 
L 556.334816 376.102168 
L 557.327522 394.851013 
L 558.320228 353.742978 
L 559.312934 407.383645 
L 560.30564 363.542218 
L 561.298345 400.212626 
L 562.291051 354.633185 
L 563.283757 375.596815 
L 564.276463 404.972592 
L 565.269169 393.821394 
L 566.261875 376.006835 
L 567.254581 374.511091 
L 568.247287 411.942718 
L 569.239993 387.333505 
L 570.232699 450.986913 
L 571.225405 410.431465 
L 572.218111 382.590009 
L 573.210817 388.772607 
L 574.203523 387.961054 
L 575.196228 444.35291 
L 576.188934 386.794136 
L 577.18164 407.529066 
L 578.174346 377.423186 
L 579.167052 398.169123 
L 580.159758 384.553148 
L 581.152464 412.705693 
L 582.14517 368.390369 
L 583.137876 373.539032 
L 584.130582 364.608761 
L 585.123288 396.582487 
L 586.115994 367.526164 
L 588.101405 420.841254 
L 589.094111 404.093747 
L 590.086817 443.000642 
L 591.079523 375.357516 
L 592.072229 387.500839 
L 593.064935 471.846133 
L 594.057641 378.930569 
L 595.050347 445.85658 
L 596.043053 406.538826 
L 597.035759 393.677363 
L 598.028465 368.916513 
L 599.021171 396.145271 
L 600.013877 419.422672 
L 601.006582 393.551009 
L 601.999288 388.295206 
L 602.991994 381.361745 
L 604.977406 396.678218 
L 605.970112 395.480655 
L 606.962818 388.176135 
L 607.955524 382.232519 
L 608.94823 411.295088 
L 609.940936 407.628618 
L 610.933642 396.543944 
L 611.926348 404.239448 
L 612.919054 422.935782 
L 613.911759 404.500714 
L 614.904465 417.641312 
L 615.897171 383.393946 
L 616.889877 428.751943 
L 617.882583 461.513207 
L 618.875289 387.879784 
L 619.867995 474.069861 
L 620.860701 391.285021 
L 621.853407 387.858477 
L 622.846113 405.309037 
L 623.838819 418.39347 
L 624.831525 414.076824 
L 626.816936 383.967426 
L 627.809642 431.997957 
L 628.802348 398.954287 
L 629.795054 401.375821 
L 630.78776 389.354225 
L 631.780466 410.596765 
L 632.773172 417.723747 
L 634.758584 442.103544 
L 635.75129 431.89511 
L 636.743996 438.000632 
L 637.736702 452.924385 
L 638.729408 478.192807 
L 639.722114 432.470714 
L 640.714819 398.99984 
L 641.707525 412.604069 
L 642.700231 401.305376 
L 643.692937 400.110614 
L 644.685643 441.63967 
L 645.678349 402.77812 
L 646.671055 413.762337 
L 647.663761 407.060436 
L 648.656467 437.420212 
L 649.649173 394.90916 
L 650.641879 393.752699 
L 651.634585 426.16991 
L 652.627291 440.054673 
L 653.619996 418.202916 
L 654.612702 428.767904 
L 655.605408 452.600742 
L 656.598114 417.455604 
L 657.59082 429.719942 
L 658.583526 446.667651 
L 659.576232 409.270804 
L 660.568938 397.774695 
L 661.561644 428.752693 
L 662.55435 417.347485 
L 663.547056 416.463785 
L 664.539762 428.479281 
L 665.532468 423.802834 
L 666.525173 424.248853 
L 667.517879 422.320066 
L 668.510585 414.706036 
L 669.503291 423.433953 
L 670.495997 429.522957 
L 671.488703 427.900999 
L 673.474115 430.850891 
L 674.466821 416.778685 
L 675.459527 454.869385 
L 676.452233 436.987852 
L 677.444939 430.727273 
L 678.437645 436.409565 
L 679.43035 431.802515 
L 680.423056 438.173317 
L 681.415762 419.587559 
L 682.408468 413.864493 
L 683.401174 452.297522 
L 684.39388 428.236515 
L 685.386586 431.040312 
L 686.379292 444.127441 
L 687.371998 433.871168 
L 688.364704 442.705749 
L 689.35741 412.046595 
L 690.350116 424.168944 
L 691.342822 432.858557 
L 692.335527 429.078275 
L 693.328233 434.47155 
L 694.320939 420.673737 
L 695.313645 429.60575 
L 696.306351 423.686279 
L 697.299057 428.665339 
L 698.291763 429.4026 
L 699.284469 429.009885 
L 701.269881 430.359207 
L 702.262587 427.79365 
L 703.255293 427.726583 
L 704.247999 441.839012 
L 705.240705 437.213431 
L 706.23341 418.796522 
L 707.226116 427.195708 
L 708.218822 437.441056 
L 709.211528 430.470142 
L 710.204234 431.656309 
L 711.19694 440.876946 
L 712.189646 434.785797 
L 713.182352 423.402553 
L 714.175058 433.743695 
L 715.167764 438.670151 
L 716.16047 422.451349 
L 717.153176 430.471512 
L 718.145882 420.060281 
L 719.138587 419.405959 
L 720.131293 427.719429 
L 721.123999 441.297943 
L 722.116705 432.37463 
L 723.109411 435.417067 
L 724.102117 440.924508 
L 725.094823 432.760619 
L 726.087529 447.61184 
L 727.080235 429.468682 
L 728.072941 423.848025 
L 729.065647 429.29388 
L 730.058353 432.738356 
L 731.051059 430.784166 
L 732.043764 436.834661 
L 733.03647 426.387488 
L 734.029176 432.932362 
L 735.021882 430.492381 
L 736.014588 436.836256 
L 737.007294 435.29635 
L 738 435.263045 
L 738.992706 438.928662 
L 739.985412 432.318627 
L 740.978118 430.865755 
L 741.970824 435.269107 
L 742.96353 430.926619 
L 743.956236 428.642299 
L 744.948941 429.596159 
L 745.941647 442.278072 
L 746.934353 448.72868 
L 747.927059 440.297203 
L 748.919765 436.105906 
L 749.912471 428.941873 
L 750.905177 438.922891 
L 751.897883 435.192233 
L 752.890589 427.340741 
L 753.883295 440.986973 
L 754.876001 440.113389 
L 755.868707 431.191241 
L 756.861413 440.594882 
L 757.854118 425.944227 
L 758.846824 431.418658 
L 759.83953 429.903568 
L 760.832236 432.195801 
L 761.824942 436.971123 
L 762.817648 429.564506 
L 764.80306 438.09076 
L 765.795766 422.032638 
L 767.781178 439.595566 
L 768.773884 424.145213 
L 769.76659 425.53151 
L 770.759295 433.750571 
L 771.752001 431.365788 
L 772.744707 437.259986 
L 773.737413 432.204996 
L 774.730119 427.943417 
L 775.722825 438.806868 
L 776.715531 430.312896 
L 777.708237 435.612443 
L 779.693649 437.482446 
L 780.686355 432.898221 
L 782.671767 430.561937 
L 783.664473 430.987064 
L 784.657178 437.173876 
L 785.649884 436.489027 
L 786.64259 439.384202 
L 787.635296 445.856368 
L 788.628002 441.989059 
L 789.620708 430.052691 
L 790.613414 435.219083 
L 791.60612 433.248724 
L 792.598826 429.803959 
L 793.591532 435.84067 
L 794.584238 435.609395 
L 795.576944 432.823339 
L 796.56965 427.820518 
L 797.562355 442.213534 
L 798.555061 440.522121 
L 799.547767 427.50881 
L 800.540473 433.240537 
L 801.533179 436.713389 
L 803.518591 431.478131 
L 804.511297 440.962909 
L 805.504003 431.034863 
L 806.496709 438.019169 
L 807.489415 435.680946 
L 808.482121 428.222067 
L 809.474827 430.567469 
L 810.467532 439.50306 
L 811.460238 443.83547 
L 812.452944 430.844167 
L 813.44565 430.025367 
L 814.438356 438.135531 
L 815.431062 436.102364 
L 816.423768 436.834913 
L 817.416474 437.839659 
L 818.40918 425.686019 
L 819.401886 438.622499 
L 821.387298 436.196025 
L 822.380004 439.153868 
L 823.372709 433.60068 
L 824.365415 434.071379 
L 825.358121 438.215186 
L 826.350827 435.036837 
L 827.343533 434.138328 
L 828.336239 437.56981 
L 829.328945 438.499934 
L 830.321651 437.223631 
L 831.314357 445.025967 
L 832.307063 436.215116 
L 833.299769 438.683934 
L 834.292475 434.516004 
L 835.285181 436.713159 
L 836.277886 433.763703 
L 837.270592 434.095004 
L 838.263298 441.16965 
L 839.256004 437.1322 
L 840.24871 436.426492 
L 841.241416 448.897629 
L 842.234122 450.744441 
L 843.226828 433.543055 
L 844.219534 442.778126 
L 845.21224 438.506279 
L 846.204946 442.395008 
L 847.197652 442.453567 
L 848.190358 432.827478 
L 849.183064 432.106302 
L 850.175769 432.69926 
L 851.168475 433.068018 
L 852.161181 437.232161 
L 853.153887 439.153945 
L 854.146593 435.445945 
L 855.139299 432.948702 
L 856.132005 449.360968 
L 857.124711 442.100922 
L 858.117417 441.394716 
L 859.110123 434.694993 
L 860.102829 438.467007 
L 861.095535 440.92272 
L 862.088241 438.337318 
L 863.080946 437.353586 
L 864.073652 433.26525 
L 865.066358 444.100088 
L 866.059064 434.395437 
L 867.05177 435.444649 
L 868.044476 450.709595 
L 869.037182 446.312525 
L 870.029888 437.782543 
L 871.022594 436.769745 
L 872.0153 443.528715 
L 873.008006 434.564327 
L 874.000712 441.214355 
L 874.993418 444.933902 
L 875.986123 437.334626 
L 876.978829 437.357832 
L 877.971535 445.64525 
L 878.964241 441.612074 
L 879.956947 440.923323 
L 880.949653 446.142023 
L 881.942359 434.964926 
L 882.935065 438.412044 
L 883.927771 440.179919 
L 884.920477 433.871052 
L 885.913183 437.321261 
L 886.905889 434.438796 
L 887.898595 434.779242 
L 888.8913 441.813856 
L 889.884006 430.734042 
L 890.876712 442.455226 
L 891.869418 438.929583 
L 893.85483 444.348397 
L 894.847536 436.536242 
L 895.840242 438.630075 
L 896.832948 434.976287 
L 897.825654 441.806957 
L 898.81836 439.893504 
L 899.811066 440.309629 
L 900.803772 444.169095 
L 901.796477 438.493774 
L 902.789183 442.622954 
L 903.781889 435.003182 
L 904.774595 440.930212 
L 905.767301 435.731826 
L 906.760007 431.398368 
L 907.752713 437.704908 
L 908.745419 436.955393 
L 909.738125 433.201568 
L 910.730831 444.664193 
L 911.723537 434.943236 
L 912.716243 433.993893 
L 913.708949 436.2645 
L 914.701655 440.595031 
L 915.69436 448.852755 
L 916.687066 439.481437 
L 917.679772 444.018307 
L 918.672478 437.343098 
L 919.665184 436.604065 
L 920.65789 437.898937 
L 921.650596 437.262542 
L 922.643302 438.689817 
L 923.636008 441.09249 
L 924.628714 438.682662 
L 925.62142 444.125718 
L 926.614126 447.993124 
L 927.606832 439.059164 
L 928.599537 445.330246 
L 929.592243 446.52696 
L 930.584949 442.24249 
L 931.577655 436.305275 
L 932.570361 447.698251 
L 933.563067 441.15581 
L 934.555773 447.410696 
L 935.548479 438.411263 
L 936.541185 440.994578 
L 937.533891 437.050811 
L 938.526597 434.131795 
L 939.519303 438.360504 
L 940.512009 449.644134 
L 942.49742 434.19089 
L 943.490126 438.381296 
L 944.482832 438.732941 
L 945.475538 444.694766 
L 946.468244 438.712475 
L 947.46095 445.653489 
L 948.453656 432.864151 
L 949.446362 448.841018 
L 950.439068 442.728154 
L 951.431774 441.723847 
L 952.42448 439.477944 
L 953.417186 438.961849 
L 954.409891 443.081449 
L 956.395303 440.675833 
L 957.388009 444.252483 
L 958.380715 447.140262 
L 959.373421 437.876208 
L 960.366127 445.97293 
L 961.358833 448.629785 
L 962.351539 441.394839 
L 963.344245 445.092224 
L 964.336951 441.355647 
L 965.329657 444.281533 
L 966.322363 437.628295 
L 967.315068 437.228656 
L 968.307774 449.668317 
L 969.30048 439.229689 
L 970.293186 440.622126 
L 971.285892 437.542823 
L 972.278598 448.128894 
L 974.26401 437.697693 
L 975.256716 449.162373 
L 976.249422 446.459171 
L 977.242128 438.101062 
L 978.234834 445.821685 
L 979.22754 440.476563 
L 980.220246 441.238092 
L 981.212951 437.059998 
L 982.205657 440.998136 
L 983.198363 447.648629 
L 985.183775 438.958807 
L 986.176481 452.665529 
L 987.169187 437.521649 
L 988.161893 438.6345 
L 989.154599 444.948737 
L 990.147305 433.999878 
L 991.140011 440.478648 
L 992.132717 443.631137 
L 993.125423 441.161695 
L 994.118128 437.328423 
L 995.110834 440.275487 
L 996.10354 442.265437 
L 997.096246 452.659525 
L 998.088952 438.886962 
L 1000.074364 447.804548 
L 1001.06707 432.838427 
L 1002.059776 446.482842 
L 1003.052482 448.730105 
L 1004.045188 443.125995 
L 1005.037894 441.859664 
L 1006.0306 456.182325 
L 1007.023305 451.839368 
L 1008.016011 443.019202 
L 1009.008717 440.448468 
L 1010.001423 451.338051 
L 1010.994129 445.504101 
L 1011.986835 444.333031 
L 1012.979541 450.675945 
L 1013.972247 443.557504 
L 1014.964953 440.031384 
L 1015.957659 440.51533 
L 1016.950365 451.849863 
L 1017.943071 434.783748 
L 1018.935777 442.498698 
L 1019.928482 444.083222 
L 1020.921188 445.923024 
L 1021.913894 444.793542 
L 1022.9066 448.249955 
L 1023.899306 437.073443 
L 1024.892012 450.70207 
L 1025.884718 440.064441 
L 1026.877424 443.305778 
L 1027.87013 445.01428 
L 1028.862836 448.530776 
L 1029.855542 439.607456 
L 1030.848248 436.952122 
L 1032.833659 446.259616 
L 1033.826365 442.373107 
L 1034.819071 446.308832 
L 1035.811777 446.866727 
L 1036.804483 438.86874 
L 1037.797189 433.247969 
L 1038.789895 442.177641 
L 1039.782601 461.433674 
L 1040.775307 439.013083 
L 1041.768013 445.850482 
L 1042.760719 439.968456 
L 1043.753425 444.173869 
L 1044.746131 447.649343 
L 1045.738837 435.631653 
L 1046.731542 450.645407 
L 1047.724248 447.707296 
L 1048.716954 439.116245 
L 1049.70966 438.402995 
L 1050.702366 438.48895 
L 1051.695072 441.007718 
L 1052.687778 445.212174 
L 1053.680484 441.272733 
L 1054.67319 446.722502 
L 1055.665896 447.759845 
L 1056.658602 455.314096 
L 1057.651308 437.669699 
L 1058.644014 442.797328 
L 1059.636719 444.053651 
L 1060.629425 444.774298 
L 1061.622131 439.70327 
L 1062.614837 440.808625 
L 1063.607543 442.447828 
L 1064.600249 440.028746 
L 1065.592955 437.052551 
L 1066.585661 451.732465 
L 1068.571073 442.659438 
L 1069.563779 458.543661 
L 1070.556485 443.703278 
L 1071.549191 436.965106 
L 1072.541896 445.789447 
L 1073.534602 449.786965 
L 1074.527308 435.475213 
L 1075.520014 444.450595 
L 1076.51272 447.103149 
L 1077.505426 440.703669 
L 1078.498132 452.001522 
L 1079.490838 445.71574 
L 1080.483544 449.686407 
L 1081.47625 443.715461 
L 1082.468956 452.286603 
L 1083.461662 448.624274 
L 1084.454368 445.926423 
L 1085.447073 448.047915 
L 1086.439779 456.164188 
L 1087.432485 454.327832 
L 1088.425191 446.615957 
L 1089.417897 444.70567 
L 1090.410603 445.040072 
L 1091.403309 442.937253 
L 1092.396015 450.491172 
L 1093.388721 446.581649 
L 1094.381427 447.722577 
L 1095.374133 443.694821 
L 1096.366839 437.336311 
L 1098.35225 450.276989 
L 1099.344956 448.717286 
L 1100.337662 434.509236 
L 1101.330368 445.684063 
L 1102.323074 443.045832 
L 1103.31578 443.714829 
L 1104.308486 442.093712 
L 1105.301192 446.593578 
L 1106.293898 442.920854 
L 1107.286604 446.761822 
L 1108.27931 448.408483 
L 1109.272016 443.815895 
L 1110.264722 447.196265 
L 1111.257428 444.452133 
L 1112.250133 445.556995 
L 1113.242839 440.835567 
L 1114.235545 440.385312 
L 1115.228251 451.80712 
L 1116.220957 439.158295 
L 1117.213663 442.660504 
L 1118.206369 450.629317 
L 1120.191781 445.139579 
L 1121.184487 445.015015 
L 1122.177193 439.852534 
L 1123.169899 444.384561 
L 1124.162605 446.870691 
L 1125.15531 442.17357 
L 1126.148016 443.361177 
L 1127.140722 441.430039 
L 1128.133428 442.527106 
L 1129.126134 442.992468 
L 1130.11884 447.036557 
L 1131.111546 441.484473 
L 1132.104252 444.534523 
L 1133.096958 441.702196 
L 1134.089664 443.87534 
L 1135.08237 453.580265 
L 1136.075076 446.416818 
L 1137.067782 443.997006 
L 1138.060487 448.452383 
L 1139.053193 444.684477 
L 1140.045899 447.68654 
L 1141.038605 448.968052 
L 1142.031311 438.170184 
L 1144.016723 446.628778 
L 1145.009429 444.007217 
L 1146.002135 442.829342 
L 1146.994841 450.950033 
L 1148.980253 439.873101 
L 1149.972959 449.232316 
L 1150.965664 448.371431 
L 1151.95837 439.992832 
L 1152.951076 440.67653 
L 1153.943782 442.460777 
L 1154.936488 446.423203 
L 1155.929194 439.597803 
L 1156.9219 442.473746 
L 1157.914606 453.199058 
L 1158.907312 437.846074 
L 1159.900018 443.368035 
L 1160.892724 454.427519 
L 1161.88543 453.20282 
L 1162.878136 445.122962 
L 1163.870841 442.996601 
L 1164.863547 439.428446 
L 1165.856253 448.723743 
L 1166.848959 443.351209 
L 1167.841665 445.581492 
L 1168.834371 449.402039 
L 1169.827077 444.412379 
L 1170.819783 445.60654 
L 1171.812489 441.062531 
L 1172.805195 440.868258 
L 1173.797901 446.754531 
L 1174.790607 442.624327 
L 1175.783313 453.413491 
L 1176.776019 442.816711 
L 1177.768724 451.443634 
L 1178.76143 452.018555 
L 1179.754136 442.116898 
L 1180.746842 448.778227 
L 1181.739548 444.364325 
L 1182.732254 445.90317 
L 1183.72496 445.794236 
L 1184.717666 451.518748 
L 1185.710372 450.437251 
L 1186.703078 444.728056 
L 1187.695784 443.684887 
L 1188.68849 443.045424 
L 1189.681196 453.179637 
L 1190.673901 439.481007 
L 1191.666607 439.672772 
L 1192.659313 452.104821 
L 1193.652019 445.569689 
L 1194.644725 447.209249 
L 1195.637431 441.680634 
L 1196.630137 443.320323 
L 1197.622843 453.110539 
L 1198.615549 443.331722 
L 1199.608255 449.529357 
L 1200.600961 444.882521 
L 1201.593667 439.107463 
L 1202.586373 446.002677 
L 1203.579078 447.656885 
L 1204.571784 442.568108 
L 1205.56449 448.232182 
L 1206.557196 447.10575 
L 1207.549902 440.583238 
L 1208.542608 446.388506 
L 1210.52802 456.831692 
L 1211.520726 445.602991 
L 1212.513432 435.645013 
L 1213.506138 446.964092 
L 1214.498844 449.347067 
L 1215.49155 445.867361 
L 1216.484255 435.072316 
L 1217.476961 443.907903 
L 1218.469667 441.921043 
L 1219.462373 444.953504 
L 1220.455079 455.163815 
L 1221.447785 445.615912 
L 1222.440491 447.294236 
L 1223.433197 448.5301 
L 1224.425903 443.354403 
L 1225.418609 444.548546 
L 1226.411315 446.589194 
L 1227.404021 441.540475 
L 1228.396727 446.364202 
L 1229.389432 445.154221 
L 1230.382138 448.946742 
L 1231.374844 449.038029 
L 1232.36755 454.034538 
L 1233.360256 438.416495 
L 1234.352962 443.812654 
L 1235.345668 448.588114 
L 1236.338374 444.191197 
L 1237.33108 443.408785 
L 1238.323786 443.625402 
L 1239.316492 436.458753 
L 1240.309198 446.820851 
L 1241.301904 443.580086 
L 1242.29461 458.099283 
L 1243.287315 447.081619 
L 1244.280021 444.90346 
L 1245.272727 441.768239 
L 1245.272727 441.768239 
" clip-path="url(#p78dafae1ea)" style="fill: none; stroke: #1f77b4; stroke-width: 1.5; stroke-linecap: square"/>
   </g>
   <g id="patch_3">
    <path d="M 180 512.64 
L 180 69.12 
" style="fill: none; stroke: #000000; stroke-width: 0.8; stroke-linejoin: miter; stroke-linecap: square"/>
   </g>
   <g id="patch_4">
    <path d="M 1296 512.64 
L 1296 69.12 
" style="fill: none; stroke: #000000; stroke-width: 0.8; stroke-linejoin: miter; stroke-linecap: square"/>
   </g>
   <g id="patch_5">
    <path d="M 180 512.64 
L 1296 512.64 
" style="fill: none; stroke: #000000; stroke-width: 0.8; stroke-linejoin: miter; stroke-linecap: square"/>
   </g>
   <g id="patch_6">
    <path d="M 180 69.12 
L 1296 69.12 
" style="fill: none; stroke: #000000; stroke-width: 0.8; stroke-linejoin: miter; stroke-linecap: square"/>
   </g>
   <g id="text_13">
    <!-- source7-receiver22 -->
    <g transform="translate(544.9 60.80125) scale(0.4 -0.4)">
     <defs>
      <path id="DejaVuSans-73" d="M 2834 3397 
L 2834 2853 
Q 2591 2978 2328 3040 
Q 2066 3103 1784 3103 
Q 1356 3103 1142 2972 
Q 928 2841 928 2578 
Q 928 2378 1081 2264 
Q 1234 2150 1697 2047 
L 1894 2003 
Q 2506 1872 2764 1633 
Q 3022 1394 3022 966 
Q 3022 478 2636 193 
Q 2250 -91 1575 -91 
Q 1294 -91 989 -36 
Q 684 19 347 128 
L 347 722 
Q 666 556 975 473 
Q 1284 391 1588 391 
Q 1994 391 2212 530 
Q 2431 669 2431 922 
Q 2431 1156 2273 1281 
Q 2116 1406 1581 1522 
L 1381 1569 
Q 847 1681 609 1914 
Q 372 2147 372 2553 
Q 372 3047 722 3315 
Q 1072 3584 1716 3584 
Q 2034 3584 2315 3537 
Q 2597 3491 2834 3397 
z
" transform="scale(0.015625)"/>
      <path id="DejaVuSans-6f" d="M 1959 3097 
Q 1497 3097 1228 2736 
Q 959 2375 959 1747 
Q 959 1119 1226 758 
Q 1494 397 1959 397 
Q 2419 397 2687 759 
Q 2956 1122 2956 1747 
Q 2956 2369 2687 2733 
Q 2419 3097 1959 3097 
z
M 1959 3584 
Q 2709 3584 3137 3096 
Q 3566 2609 3566 1747 
Q 3566 888 3137 398 
Q 2709 -91 1959 -91 
Q 1206 -91 779 398 
Q 353 888 353 1747 
Q 353 2609 779 3096 
Q 1206 3584 1959 3584 
z
" transform="scale(0.015625)"/>
      <path id="DejaVuSans-75" d="M 544 1381 
L 544 3500 
L 1119 3500 
L 1119 1403 
Q 1119 906 1312 657 
Q 1506 409 1894 409 
Q 2359 409 2629 706 
Q 2900 1003 2900 1516 
L 2900 3500 
L 3475 3500 
L 3475 0 
L 2900 0 
L 2900 538 
Q 2691 219 2414 64 
Q 2138 -91 1772 -91 
Q 1169 -91 856 284 
Q 544 659 544 1381 
z
M 1991 3584 
L 1991 3584 
z
" transform="scale(0.015625)"/>
      <path id="DejaVuSans-72" d="M 2631 2963 
Q 2534 3019 2420 3045 
Q 2306 3072 2169 3072 
Q 1681 3072 1420 2755 
Q 1159 2438 1159 1844 
L 1159 0 
L 581 0 
L 581 3500 
L 1159 3500 
L 1159 2956 
Q 1341 3275 1631 3429 
Q 1922 3584 2338 3584 
Q 2397 3584 2469 3576 
Q 2541 3569 2628 3553 
L 2631 2963 
z
" transform="scale(0.015625)"/>
      <path id="DejaVuSans-63" d="M 3122 3366 
L 3122 2828 
Q 2878 2963 2633 3030 
Q 2388 3097 2138 3097 
Q 1578 3097 1268 2742 
Q 959 2388 959 1747 
Q 959 1106 1268 751 
Q 1578 397 2138 397 
Q 2388 397 2633 464 
Q 2878 531 3122 666 
L 3122 134 
Q 2881 22 2623 -34 
Q 2366 -91 2075 -91 
Q 1284 -91 818 406 
Q 353 903 353 1747 
Q 353 2603 823 3093 
Q 1294 3584 2113 3584 
Q 2378 3584 2631 3529 
Q 2884 3475 3122 3366 
z
" transform="scale(0.015625)"/>
      <path id="DejaVuSans-65" d="M 3597 1894 
L 3597 1613 
L 953 1613 
Q 991 1019 1311 708 
Q 1631 397 2203 397 
Q 2534 397 2845 478 
Q 3156 559 3463 722 
L 3463 178 
Q 3153 47 2828 -22 
Q 2503 -91 2169 -91 
Q 1331 -91 842 396 
Q 353 884 353 1716 
Q 353 2575 817 3079 
Q 1281 3584 2069 3584 
Q 2775 3584 3186 3129 
Q 3597 2675 3597 1894 
z
M 3022 2063 
Q 3016 2534 2758 2815 
Q 2500 3097 2075 3097 
Q 1594 3097 1305 2825 
Q 1016 2553 972 2059 
L 3022 2063 
z
" transform="scale(0.015625)"/>
      <path id="DejaVuSans-37" d="M 525 4666 
L 3525 4666 
L 3525 4397 
L 1831 0 
L 1172 0 
L 2766 4134 
L 525 4134 
L 525 4666 
z
" transform="scale(0.015625)"/>
      <path id="DejaVuSans-2d" d="M 313 2009 
L 1997 2009 
L 1997 1497 
L 313 1497 
L 313 2009 
z
" transform="scale(0.015625)"/>
      <path id="DejaVuSans-69" d="M 603 3500 
L 1178 3500 
L 1178 0 
L 603 0 
L 603 3500 
z
M 603 4863 
L 1178 4863 
L 1178 4134 
L 603 4134 
L 603 4863 
z
" transform="scale(0.015625)"/>
      <path id="DejaVuSans-76" d="M 191 3500 
L 800 3500 
L 1894 563 
L 2988 3500 
L 3597 3500 
L 2284 0 
L 1503 0 
L 191 3500 
z
" transform="scale(0.015625)"/>
     </defs>
     <use xlink:href="#DejaVuSans-73"/>
     <use xlink:href="#DejaVuSans-6f" x="52.099609"/>
     <use xlink:href="#DejaVuSans-75" x="113.28125"/>
     <use xlink:href="#DejaVuSans-72" x="176.660156"/>
     <use xlink:href="#DejaVuSans-63" x="215.523438"/>
     <use xlink:href="#DejaVuSans-65" x="270.503906"/>
     <use xlink:href="#DejaVuSans-37" x="332.027344"/>
     <use xlink:href="#DejaVuSans-2d" x="395.650391"/>
     <use xlink:href="#DejaVuSans-72" x="431.734375"/>
     <use xlink:href="#DejaVuSans-65" x="470.597656"/>
     <use xlink:href="#DejaVuSans-63" x="532.121094"/>
     <use xlink:href="#DejaVuSans-65" x="587.101562"/>
     <use xlink:href="#DejaVuSans-69" x="648.625"/>
     <use xlink:href="#DejaVuSans-76" x="676.408203"/>
     <use xlink:href="#DejaVuSans-65" x="735.587891"/>
     <use xlink:href="#DejaVuSans-72" x="797.111328"/>
     <use xlink:href="#DejaVuSans-32" x="838.224609"/>
     <use xlink:href="#DejaVuSans-32" x="901.847656"/>
    </g>
   </g>
  </g>
 </g>
 <defs>
  <clipPath id="p78dafae1ea">
   <rect x="180" y="69.12" width="1116" height="443.52"/>
  </clipPath>
 </defs>
</svg>
