<?xml version="1.0" encoding="utf-8" standalone="no"?>
<!DOCTYPE svg PUBLIC "-//W3C//DTD SVG 1.1//EN"
  "http://www.w3.org/Graphics/SVG/1.1/DTD/svg11.dtd">
<svg xmlns:xlink="http://www.w3.org/1999/xlink" width="1440pt" height="576pt" viewBox="0 0 1440 576" xmlns="http://www.w3.org/2000/svg" version="1.1">
 <metadata>
  <rdf:RDF xmlns:dc="http://purl.org/dc/elements/1.1/" xmlns:cc="http://creativecommons.org/ns#" xmlns:rdf="http://www.w3.org/1999/02/22-rdf-syntax-ns#">
   <cc:Work>
    <dc:type rdf:resource="http://purl.org/dc/dcmitype/StillImage"/>
    <dc:date>2024-05-22T04:49:52.685127</dc:date>
    <dc:format>image/svg+xml</dc:format>
    <dc:creator>
     <cc:Agent>
      <dc:title>Matplotlib v3.8.3, https://matplotlib.org/</dc:title>
     </cc:Agent>
    </dc:creator>
   </cc:Work>
  </rdf:RDF>
 </metadata>
 <defs>
  <style type="text/css">*{stroke-linejoin: round; stroke-linecap: butt}</style>
 </defs>
 <g id="figure_1">
  <g id="patch_1">
   <path d="M 0 576 
L 1440 576 
L 1440 0 
L 0 0 
z
" style="fill: #ffffff"/>
  </g>
  <g id="axes_1">
   <g id="patch_2">
    <path d="M 180 512.64 
L 1296 512.64 
L 1296 69.12 
L 180 69.12 
z
" style="fill: #ffffff"/>
   </g>
   <g id="matplotlib.axis_1">
    <g id="xtick_1">
     <g id="line2d_1">
      <defs>
       <path id="ma8fd09c8f7" d="M 0 0 
L 0 3.5 
" style="stroke: #000000; stroke-width: 0.8"/>
      </defs>
      <g>
       <use xlink:href="#ma8fd09c8f7" x="229.734567" y="512.64" style="stroke: #000000; stroke-width: 0.8"/>
      </g>
     </g>
     <g id="text_1">
      <!-- 0 -->
      <g transform="translate(226.553317 527.238438) scale(0.1 -0.1)">
       <defs>
        <path id="DejaVuSans-30" d="M 2034 4250 
Q 1547 4250 1301 3770 
Q 1056 3291 1056 2328 
Q 1056 1369 1301 889 
Q 1547 409 2034 409 
Q 2525 409 2770 889 
Q 3016 1369 3016 2328 
Q 3016 3291 2770 3770 
Q 2525 4250 2034 4250 
z
M 2034 4750 
Q 2819 4750 3233 4129 
Q 3647 3509 3647 2328 
Q 3647 1150 3233 529 
Q 2819 -91 2034 -91 
Q 1250 -91 836 529 
Q 422 1150 422 2328 
Q 422 3509 836 4129 
Q 1250 4750 2034 4750 
z
" transform="scale(0.015625)"/>
       </defs>
       <use xlink:href="#DejaVuSans-30"/>
      </g>
     </g>
    </g>
    <g id="xtick_2">
     <g id="line2d_2">
      <g>
       <use xlink:href="#ma8fd09c8f7" x="433.04074" y="512.64" style="stroke: #000000; stroke-width: 0.8"/>
      </g>
     </g>
     <g id="text_2">
      <!-- 500 -->
      <g transform="translate(423.49699 527.238438) scale(0.1 -0.1)">
       <defs>
        <path id="DejaVuSans-35" d="M 691 4666 
L 3169 4666 
L 3169 4134 
L 1269 4134 
L 1269 2991 
Q 1406 3038 1543 3061 
Q 1681 3084 1819 3084 
Q 2600 3084 3056 2656 
Q 3513 2228 3513 1497 
Q 3513 744 3044 326 
Q 2575 -91 1722 -91 
Q 1428 -91 1123 -41 
Q 819 9 494 109 
L 494 744 
Q 775 591 1075 516 
Q 1375 441 1709 441 
Q 2250 441 2565 725 
Q 2881 1009 2881 1497 
Q 2881 1984 2565 2268 
Q 2250 2553 1709 2553 
Q 1456 2553 1204 2497 
Q 953 2441 691 2322 
L 691 4666 
z
" transform="scale(0.015625)"/>
       </defs>
       <use xlink:href="#DejaVuSans-35"/>
       <use xlink:href="#DejaVuSans-30" x="63.623047"/>
       <use xlink:href="#DejaVuSans-30" x="127.246094"/>
      </g>
     </g>
    </g>
    <g id="xtick_3">
     <g id="line2d_3">
      <g>
       <use xlink:href="#ma8fd09c8f7" x="636.346913" y="512.64" style="stroke: #000000; stroke-width: 0.8"/>
      </g>
     </g>
     <g id="text_3">
      <!-- 1000 -->
      <g transform="translate(623.621913 527.238438) scale(0.1 -0.1)">
       <defs>
        <path id="DejaVuSans-31" d="M 794 531 
L 1825 531 
L 1825 4091 
L 703 3866 
L 703 4441 
L 1819 4666 
L 2450 4666 
L 2450 531 
L 3481 531 
L 3481 0 
L 794 0 
L 794 531 
z
" transform="scale(0.015625)"/>
       </defs>
       <use xlink:href="#DejaVuSans-31"/>
       <use xlink:href="#DejaVuSans-30" x="63.623047"/>
       <use xlink:href="#DejaVuSans-30" x="127.246094"/>
       <use xlink:href="#DejaVuSans-30" x="190.869141"/>
      </g>
     </g>
    </g>
    <g id="xtick_4">
     <g id="line2d_4">
      <g>
       <use xlink:href="#ma8fd09c8f7" x="839.653087" y="512.64" style="stroke: #000000; stroke-width: 0.8"/>
      </g>
     </g>
     <g id="text_4">
      <!-- 1500 -->
      <g transform="translate(826.928087 527.238438) scale(0.1 -0.1)">
       <use xlink:href="#DejaVuSans-31"/>
       <use xlink:href="#DejaVuSans-35" x="63.623047"/>
       <use xlink:href="#DejaVuSans-30" x="127.246094"/>
       <use xlink:href="#DejaVuSans-30" x="190.869141"/>
      </g>
     </g>
    </g>
    <g id="xtick_5">
     <g id="line2d_5">
      <g>
       <use xlink:href="#ma8fd09c8f7" x="1042.95926" y="512.64" style="stroke: #000000; stroke-width: 0.8"/>
      </g>
     </g>
     <g id="text_5">
      <!-- 2000 -->
      <g transform="translate(1030.23426 527.238438) scale(0.1 -0.1)">
       <defs>
        <path id="DejaVuSans-32" d="M 1228 531 
L 3431 531 
L 3431 0 
L 469 0 
L 469 531 
Q 828 903 1448 1529 
Q 2069 2156 2228 2338 
Q 2531 2678 2651 2914 
Q 2772 3150 2772 3378 
Q 2772 3750 2511 3984 
Q 2250 4219 1831 4219 
Q 1534 4219 1204 4116 
Q 875 4013 500 3803 
L 500 4441 
Q 881 4594 1212 4672 
Q 1544 4750 1819 4750 
Q 2544 4750 2975 4387 
Q 3406 4025 3406 3419 
Q 3406 3131 3298 2873 
Q 3191 2616 2906 2266 
Q 2828 2175 2409 1742 
Q 1991 1309 1228 531 
z
" transform="scale(0.015625)"/>
       </defs>
       <use xlink:href="#DejaVuSans-32"/>
       <use xlink:href="#DejaVuSans-30" x="63.623047"/>
       <use xlink:href="#DejaVuSans-30" x="127.246094"/>
       <use xlink:href="#DejaVuSans-30" x="190.869141"/>
      </g>
     </g>
    </g>
    <g id="xtick_6">
     <g id="line2d_6">
      <g>
       <use xlink:href="#ma8fd09c8f7" x="1246.265433" y="512.64" style="stroke: #000000; stroke-width: 0.8"/>
      </g>
     </g>
     <g id="text_6">
      <!-- 2500 -->
      <g transform="translate(1233.540433 527.238438) scale(0.1 -0.1)">
       <use xlink:href="#DejaVuSans-32"/>
       <use xlink:href="#DejaVuSans-35" x="63.623047"/>
       <use xlink:href="#DejaVuSans-30" x="127.246094"/>
       <use xlink:href="#DejaVuSans-30" x="190.869141"/>
      </g>
     </g>
    </g>
   </g>
   <g id="matplotlib.axis_2">
    <g id="ytick_1">
     <g id="line2d_7">
      <defs>
       <path id="mc65e649b21" d="M 0 0 
L -3.5 0 
" style="stroke: #000000; stroke-width: 0.8"/>
      </defs>
      <g>
       <use xlink:href="#mc65e649b21" x="180" y="478.022796" style="stroke: #000000; stroke-width: 0.8"/>
      </g>
     </g>
     <g id="text_7">
      <!-- −2 -->
      <g transform="translate(158.257812 481.822015) scale(0.1 -0.1)">
       <defs>
        <path id="DejaVuSans-2212" d="M 678 2272 
L 4684 2272 
L 4684 1741 
L 678 1741 
L 678 2272 
z
" transform="scale(0.015625)"/>
       </defs>
       <use xlink:href="#DejaVuSans-2212"/>
       <use xlink:href="#DejaVuSans-32" x="83.789062"/>
      </g>
     </g>
    </g>
    <g id="ytick_2">
     <g id="line2d_8">
      <g>
       <use xlink:href="#mc65e649b21" x="180" y="419.310169" style="stroke: #000000; stroke-width: 0.8"/>
      </g>
     </g>
     <g id="text_8">
      <!-- −1 -->
      <g transform="translate(158.257812 423.109388) scale(0.1 -0.1)">
       <use xlink:href="#DejaVuSans-2212"/>
       <use xlink:href="#DejaVuSans-31" x="83.789062"/>
      </g>
     </g>
    </g>
    <g id="ytick_3">
     <g id="line2d_9">
      <g>
       <use xlink:href="#mc65e649b21" x="180" y="360.597542" style="stroke: #000000; stroke-width: 0.8"/>
      </g>
     </g>
     <g id="text_9">
      <!-- 0 -->
      <g transform="translate(166.6375 364.39676) scale(0.1 -0.1)">
       <use xlink:href="#DejaVuSans-30"/>
      </g>
     </g>
    </g>
    <g id="ytick_4">
     <g id="line2d_10">
      <g>
       <use xlink:href="#mc65e649b21" x="180" y="301.884914" style="stroke: #000000; stroke-width: 0.8"/>
      </g>
     </g>
     <g id="text_10">
      <!-- 1 -->
      <g transform="translate(166.6375 305.684133) scale(0.1 -0.1)">
       <use xlink:href="#DejaVuSans-31"/>
      </g>
     </g>
    </g>
    <g id="ytick_5">
     <g id="line2d_11">
      <g>
       <use xlink:href="#mc65e649b21" x="180" y="243.172287" style="stroke: #000000; stroke-width: 0.8"/>
      </g>
     </g>
     <g id="text_11">
      <!-- 2 -->
      <g transform="translate(166.6375 246.971506) scale(0.1 -0.1)">
       <use xlink:href="#DejaVuSans-32"/>
      </g>
     </g>
    </g>
    <g id="ytick_6">
     <g id="line2d_12">
      <g>
       <use xlink:href="#mc65e649b21" x="180" y="184.45966" style="stroke: #000000; stroke-width: 0.8"/>
      </g>
     </g>
     <g id="text_12">
      <!-- 3 -->
      <g transform="translate(166.6375 188.258879) scale(0.1 -0.1)">
       <defs>
        <path id="DejaVuSans-33" d="M 2597 2516 
Q 3050 2419 3304 2112 
Q 3559 1806 3559 1356 
Q 3559 666 3084 287 
Q 2609 -91 1734 -91 
Q 1441 -91 1130 -33 
Q 819 25 488 141 
L 488 750 
Q 750 597 1062 519 
Q 1375 441 1716 441 
Q 2309 441 2620 675 
Q 2931 909 2931 1356 
Q 2931 1769 2642 2001 
Q 2353 2234 1838 2234 
L 1294 2234 
L 1294 2753 
L 1863 2753 
Q 2328 2753 2575 2939 
Q 2822 3125 2822 3475 
Q 2822 3834 2567 4026 
Q 2313 4219 1838 4219 
Q 1578 4219 1281 4162 
Q 984 4106 628 3988 
L 628 4550 
Q 988 4650 1302 4700 
Q 1616 4750 1894 4750 
Q 2613 4750 3031 4423 
Q 3450 4097 3450 3541 
Q 3450 3153 3228 2886 
Q 3006 2619 2597 2516 
z
" transform="scale(0.015625)"/>
       </defs>
       <use xlink:href="#DejaVuSans-33"/>
      </g>
     </g>
    </g>
    <g id="ytick_7">
     <g id="line2d_13">
      <g>
       <use xlink:href="#mc65e649b21" x="180" y="125.747033" style="stroke: #000000; stroke-width: 0.8"/>
      </g>
     </g>
     <g id="text_13">
      <!-- 4 -->
      <g transform="translate(166.6375 129.546252) scale(0.1 -0.1)">
       <defs>
        <path id="DejaVuSans-34" d="M 2419 4116 
L 825 1625 
L 2419 1625 
L 2419 4116 
z
M 2253 4666 
L 3047 4666 
L 3047 1625 
L 3713 1625 
L 3713 1100 
L 3047 1100 
L 3047 0 
L 2419 0 
L 2419 1100 
L 313 1100 
L 313 1709 
L 2253 4666 
z
" transform="scale(0.015625)"/>
       </defs>
       <use xlink:href="#DejaVuSans-34"/>
      </g>
     </g>
    </g>
   </g>
   <g id="line2d_14">
    <path d="M 230.727273 380.0052 
L 232.712685 379.075123 
L 234.698096 377.334421 
L 235.690802 376.214859 
L 237.676214 373.337377 
L 240.654332 368.419988 
L 241.647038 366.615743 
L 242.639744 365.308549 
L 243.63245 364.269393 
L 244.625156 367.626962 
L 245.617862 369.681512 
L 246.610568 339.686801 
L 247.603273 315.207328 
L 248.595979 319.898618 
L 249.588685 334.735956 
L 250.581391 282.565796 
L 251.574097 271.089577 
L 252.566803 334.432796 
L 253.559509 267.729327 
L 254.552215 228.626332 
L 255.544921 216.710583 
L 256.537627 190.248128 
L 257.530333 170.523569 
L 258.523039 177.795709 
L 259.515745 236.887749 
L 260.50845 200.584397 
L 261.501156 168.859406 
L 262.493862 177.006837 
L 263.486568 200.025309 
L 264.479274 172.566723 
L 265.47198 161.635799 
L 266.464686 178.717823 
L 267.457392 199.445758 
L 268.450098 206.231722 
L 269.442804 286.430651 
L 270.43551 231.119037 
L 271.428216 245.806665 
L 272.420922 167.732003 
L 273.413627 137.141878 
L 274.406333 162.604459 
L 275.399039 180.408984 
L 276.391745 108.977045 
L 277.384451 100.91979 
L 278.377157 142.67793 
L 279.369863 163.591832 
L 280.362569 101.188845 
L 281.355275 91.865751 
L 282.347981 106.813672 
L 284.333393 193.460693 
L 285.326099 110.532615 
L 286.318804 89.28 
L 287.31151 96.858497 
L 288.304216 134.414315 
L 289.296922 145.203724 
L 290.289628 123.073359 
L 291.282334 123.371403 
L 292.27504 135.203477 
L 293.267746 154.161799 
L 294.260452 161.585215 
L 295.253158 165.825308 
L 296.245864 194.11954 
L 297.23857 191.775081 
L 298.231276 186.122579 
L 299.223981 219.985774 
L 300.216687 248.045336 
L 301.209393 259.048603 
L 302.202099 345.216178 
L 303.194805 281.027908 
L 304.187511 336.593393 
L 305.180217 297.307025 
L 306.172923 293.492933 
L 307.165629 429.815203 
L 308.158335 324.07313 
L 309.151041 358.604168 
L 310.143747 340.716241 
L 311.136453 339.223428 
L 312.129159 363.475795 
L 313.121864 337.424893 
L 314.11457 354.418555 
L 315.107276 354.180844 
L 316.099982 352.805115 
L 317.092688 352.360629 
L 318.085394 354.259825 
L 319.0781 357.787036 
L 320.070806 358.001351 
L 321.063512 358.79959 
L 322.056218 362.469217 
L 323.048924 360.567167 
L 324.04163 357.448127 
L 325.034336 363.034602 
L 326.027041 363.202523 
L 327.019747 362.875948 
L 328.012453 367.553273 
L 329.005159 365.557791 
L 329.997865 369.069844 
L 330.990571 368.029744 
L 331.983277 372.27753 
L 332.975983 366.398623 
L 333.968689 372.009078 
L 334.961395 370.10148 
L 335.954101 372.827785 
L 336.946807 378.43573 
L 337.939513 370.247881 
L 338.932218 373.107228 
L 339.924924 378.037397 
L 340.91763 374.987668 
L 341.910336 381.742048 
L 342.903042 386.366829 
L 343.895748 375.973686 
L 344.888454 381.983939 
L 345.88116 382.860766 
L 346.873866 377.185784 
L 347.866572 380.262053 
L 348.859278 385.153702 
L 349.851984 385.650006 
L 350.84469 390.011839 
L 351.837395 380.629831 
L 352.830101 380.662864 
L 353.822807 388.753899 
L 354.815513 383.142143 
L 355.808219 380.73609 
L 356.800925 390.192966 
L 357.793631 383.286482 
L 358.786337 382.859386 
L 359.779043 388.032633 
L 360.771749 392.090887 
L 361.764455 392.82225 
L 362.757161 390.952872 
L 363.749867 390.381102 
L 364.742572 398.144522 
L 365.735278 392.050929 
L 366.727984 392.319901 
L 367.72069 399.150918 
L 368.713396 400.246603 
L 369.706102 394.691634 
L 370.698808 391.077398 
L 371.691514 397.075251 
L 372.68422 398.093669 
L 373.676926 395.5411 
L 374.669632 391.281776 
L 375.662338 397.070005 
L 376.655044 398.572405 
L 377.64775 393.433951 
L 378.640455 401.157879 
L 379.633161 402.065306 
L 380.625867 398.150126 
L 381.618573 397.129469 
L 382.611279 397.33136 
L 383.603985 401.443709 
L 384.596691 404.190069 
L 385.589397 399.516036 
L 386.582103 401.748083 
L 387.574809 396.419829 
L 388.567515 403.166716 
L 389.560221 400.457221 
L 390.552927 401.216664 
L 391.545632 407.211094 
L 392.538338 405.708994 
L 393.531044 405.080669 
L 394.52375 406.491272 
L 395.516456 411.561923 
L 396.509162 405.368099 
L 397.501868 407.912987 
L 398.494574 404.734473 
L 399.48728 412.915936 
L 400.479986 412.034671 
L 401.472692 407.488661 
L 402.465398 403.944656 
L 403.458104 417.901634 
L 404.450809 409.100599 
L 405.443515 410.526569 
L 406.436221 405.258806 
L 407.428927 409.050963 
L 408.421633 407.332797 
L 409.414339 418.285607 
L 410.407045 406.728399 
L 411.399751 408.267077 
L 412.392457 412.555906 
L 413.385163 410.811569 
L 414.377869 417.541321 
L 415.370575 413.000462 
L 416.363281 414.185038 
L 417.355986 408.976268 
L 418.348692 411.984189 
L 419.341398 422.548215 
L 420.334104 407.763839 
L 421.32681 410.348552 
L 422.319516 416.255613 
L 423.312222 415.403092 
L 424.304928 410.771002 
L 425.297634 418.523556 
L 427.283046 416.732642 
L 428.275752 421.111563 
L 430.261163 416.999715 
L 431.253869 418.054112 
L 432.246575 419.642172 
L 433.239281 423.622174 
L 434.231987 421.758081 
L 435.224693 418.111652 
L 436.217399 432.78214 
L 437.210105 426.316755 
L 438.202811 421.485996 
L 439.195517 421.08702 
L 440.188223 419.280858 
L 441.180929 421.613972 
L 442.173635 429.614287 
L 443.166341 424.414861 
L 444.159046 414.646044 
L 445.151752 421.916911 
L 446.144458 417.71176 
L 447.137164 427.07171 
L 448.12987 422.020423 
L 449.122576 427.505592 
L 450.115282 421.661346 
L 451.107988 418.887079 
L 452.100694 417.612829 
L 453.0934 427.629017 
L 454.086106 422.694881 
L 455.078812 420.831651 
L 456.071518 427.039447 
L 457.064223 429.207031 
L 458.056929 426.224461 
L 459.049635 423.750608 
L 460.042341 428.308512 
L 461.035047 430.307348 
L 462.027753 420.649395 
L 463.020459 427.372215 
L 464.013165 437.872082 
L 465.005871 430.023706 
L 465.998577 429.57563 
L 466.991283 429.860804 
L 467.983989 422.52006 
L 468.976695 433.141012 
L 469.9694 441.917605 
L 470.962106 432.67146 
L 471.954812 428.851646 
L 472.947518 432.4385 
L 473.940224 433.481324 
L 474.93293 433.43784 
L 475.925636 439.274481 
L 476.918342 425.48733 
L 477.911048 426.097599 
L 478.903754 437.454065 
L 479.89646 437.173427 
L 480.889166 438.37828 
L 481.881872 426.498865 
L 482.874577 434.372117 
L 483.867283 434.621844 
L 484.859989 437.94716 
L 485.852695 429.977786 
L 486.845401 442.911028 
L 487.838107 434.937866 
L 488.830813 436.708166 
L 489.823519 436.778005 
L 490.816225 441.046138 
L 491.808931 431.60782 
L 492.801637 438.32345 
L 493.794343 437.826408 
L 494.787049 432.079759 
L 495.779754 442.295124 
L 496.77246 436.048263 
L 497.765166 437.891886 
L 498.757872 435.558321 
L 499.750578 429.478436 
L 501.73599 429.704254 
L 502.728696 432.242568 
L 504.714108 446.375369 
L 505.706814 436.020534 
L 506.69952 448.113989 
L 507.692226 443.132473 
L 508.684932 441.542944 
L 509.677637 443.692774 
L 510.670343 438.953087 
L 511.663049 437.335621 
L 512.655755 435.485869 
L 513.648461 434.778439 
L 514.641167 438.665641 
L 515.633873 435.527026 
L 516.626579 437.120369 
L 517.619285 449.730244 
L 518.611991 442.837587 
L 519.604697 434.471652 
L 520.597403 446.986699 
L 521.590109 442.007962 
L 522.582814 442.126951 
L 523.57552 435.340826 
L 524.568226 454.74094 
L 525.560932 447.496844 
L 526.553638 442.990223 
L 527.546344 451.216946 
L 528.53905 441.305944 
L 529.531756 446.253628 
L 530.524462 442.062209 
L 531.517168 441.527995 
L 532.509874 443.16147 
L 533.50258 443.052289 
L 534.495286 450.220164 
L 535.487991 438.515104 
L 536.480697 439.280591 
L 537.473403 455.62212 
L 538.466109 440.281978 
L 539.458815 447.026876 
L 540.451521 442.955455 
L 541.444227 449.787601 
L 542.436933 452.080737 
L 543.429639 437.185867 
L 544.422345 458.03563 
L 545.415051 447.846041 
L 546.407757 453.426646 
L 547.400463 446.266196 
L 548.393168 444.575891 
L 549.385874 441.062246 
L 550.37858 445.005421 
L 551.371286 458.730624 
L 552.363992 447.380165 
L 553.356698 452.741292 
L 554.349404 449.524808 
L 555.34211 448.257282 
L 556.334816 449.874506 
L 557.327522 447.481905 
L 558.320228 449.407321 
L 559.312934 444.438734 
L 560.30564 451.106844 
L 561.298345 458.548313 
L 562.291051 457.105867 
L 563.283757 456.996943 
L 564.276463 455.183259 
L 565.269169 448.739174 
L 566.261875 451.178941 
L 567.254581 445.081126 
L 568.247287 469.034588 
L 569.239993 456.780878 
L 570.232699 450.394779 
L 571.225405 450.571628 
L 572.218111 451.632518 
L 573.210817 446.089535 
L 574.203523 458.059666 
L 575.196228 453.259493 
L 576.188934 451.48798 
L 577.18164 454.518627 
L 578.174346 458.538382 
L 579.167052 451.896629 
L 580.159758 453.952562 
L 581.152464 458.894339 
L 582.14517 442.404144 
L 583.137876 441.799191 
L 584.130582 454.198055 
L 585.123288 451.460953 
L 586.115994 449.843162 
L 587.1087 446.476628 
L 588.101405 447.310389 
L 589.094111 448.452998 
L 590.086817 451.857005 
L 591.079523 463.381171 
L 592.072229 449.29939 
L 593.064935 450.705001 
L 594.057641 459.00142 
L 595.050347 447.825252 
L 596.043053 446.105267 
L 597.035759 451.748219 
L 598.028465 447.792334 
L 599.021171 454.311367 
L 600.013877 459.711954 
L 601.006582 457.961825 
L 601.999288 453.483598 
L 602.991994 462.020181 
L 603.9847 452.751005 
L 604.977406 457.976734 
L 605.970112 452.284241 
L 606.962818 452.689138 
L 607.955524 450.311922 
L 608.94823 457.452554 
L 609.940936 459.699918 
L 610.933642 466.408561 
L 611.926348 452.70895 
L 612.919054 451.722555 
L 613.911759 457.05724 
L 614.904465 458.214985 
L 615.897171 458.603449 
L 616.889877 457.302126 
L 617.882583 461.530887 
L 618.875289 455.523153 
L 619.867995 457.473787 
L 620.860701 457.068957 
L 621.853407 461.252753 
L 622.846113 459.074086 
L 623.838819 455.564326 
L 624.831525 458.853305 
L 625.824231 446.732507 
L 626.816936 457.526512 
L 627.809642 456.538414 
L 628.802348 456.223589 
L 629.795054 459.938384 
L 630.78776 460.279098 
L 631.780466 459.193734 
L 632.773172 454.35558 
L 633.765878 458.721334 
L 634.758584 461.334249 
L 635.75129 457.935827 
L 636.743996 462.614573 
L 637.736702 456.222535 
L 638.729408 457.685172 
L 639.722114 458.695231 
L 640.714819 458.170076 
L 641.707525 460.558324 
L 642.700231 457.456965 
L 643.692937 459.154923 
L 644.685643 456.842401 
L 645.678349 459.961634 
L 646.671055 462.316666 
L 647.663761 458.853109 
L 648.656467 460.058719 
L 649.649173 464.607701 
L 651.634585 461.471822 
L 652.627291 462.255185 
L 653.619996 460.522822 
L 654.612702 461.045537 
L 655.605408 463.991366 
L 656.598114 462.536925 
L 657.59082 465.287343 
L 658.583526 466.649373 
L 660.568938 459.877045 
L 661.561644 461.435502 
L 662.55435 463.895878 
L 664.539762 462.093158 
L 665.532468 464.966851 
L 666.525173 462.095226 
L 667.517879 462.211939 
L 668.510585 464.07592 
L 669.503291 462.942442 
L 670.495997 465.650934 
L 671.488703 464.754055 
L 672.481409 464.858027 
L 673.474115 464.493172 
L 674.466821 463.363311 
L 675.459527 465.229082 
L 676.452233 464.865398 
L 677.444939 464.89695 
L 678.437645 465.692248 
L 679.43035 464.57509 
L 681.415762 464.617364 
L 682.408468 466.012393 
L 683.401174 465.166759 
L 684.39388 463.917846 
L 685.386586 464.42157 
L 686.379292 466.088011 
L 687.371998 466.163199 
L 688.364704 465.857768 
L 689.35741 464.655623 
L 691.342822 466.461672 
L 692.335527 466.981854 
L 693.328233 466.427596 
L 694.320939 467.469656 
L 696.306351 467.29509 
L 697.299057 466.359759 
L 698.291763 466.537577 
L 699.284469 467.225776 
L 700.277175 467.463566 
L 701.269881 467.879035 
L 702.262587 468.164844 
L 703.255293 467.303456 
L 704.247999 467.88187 
L 705.240705 468.000872 
L 706.23341 467.697238 
L 707.226116 468.317765 
L 708.218822 468.611989 
L 709.211528 468.368815 
L 710.204234 468.431047 
L 711.19694 467.277658 
L 712.189646 466.757672 
L 713.182352 468.69987 
L 714.175058 467.518574 
L 715.167764 469.928308 
L 716.16047 469.265533 
L 718.145882 468.587201 
L 722.116705 469.744387 
L 723.109411 469.092622 
L 724.102117 469.05036 
L 725.094823 469.854168 
L 726.087529 469.803673 
L 727.080235 469.963615 
L 728.072941 469.8871 
L 729.065647 470.272709 
L 730.058353 470.333588 
L 731.051059 469.74958 
L 732.043764 470.457409 
L 733.03647 470.86305 
L 735.021882 470.590004 
L 736.014588 470.781721 
L 737.007294 470.160668 
L 738 471.337854 
L 738.992706 471.11189 
L 739.985412 470.481748 
L 740.978118 471.524863 
L 741.970824 471.463746 
L 742.96353 471.534452 
L 743.956236 470.742827 
L 744.948941 471.448003 
L 745.941647 471.84035 
L 747.927059 471.917534 
L 748.919765 472.705717 
L 749.912471 472.689267 
L 750.905177 471.874894 
L 751.897883 472.718288 
L 752.890589 473.278395 
L 753.883295 472.149157 
L 754.876001 472.315647 
L 755.868707 473.062947 
L 756.861413 472.545871 
L 757.854118 472.777878 
L 758.846824 473.187226 
L 760.832236 472.565977 
L 761.824942 473.104299 
L 762.817648 473.297056 
L 763.810354 472.393679 
L 764.80306 473.344787 
L 765.795766 473.384454 
L 766.788472 473.255022 
L 767.781178 473.737702 
L 768.773884 473.927081 
L 770.759295 473.852434 
L 771.752001 473.634223 
L 772.744707 473.751523 
L 773.737413 473.573362 
L 774.730119 473.76055 
L 775.722825 474.312281 
L 777.708237 474.333226 
L 778.700943 474.751219 
L 779.693649 473.912388 
L 780.686355 474.481386 
L 781.679061 475.30216 
L 782.671767 475.271649 
L 783.664473 475.06019 
L 784.657178 474.58977 
L 785.649884 474.635156 
L 786.64259 474.953536 
L 787.635296 475.481422 
L 788.628002 475.209134 
L 789.620708 475.590517 
L 791.60612 474.970704 
L 792.598826 475.960013 
L 793.591532 475.211429 
L 794.584238 475.452634 
L 795.576944 475.106851 
L 796.56965 476.264641 
L 797.562355 476.512335 
L 798.555061 475.838538 
L 799.547767 476.040643 
L 800.540473 475.807183 
L 801.533179 476.213856 
L 803.518591 476.693365 
L 804.511297 476.064819 
L 806.496709 476.222089 
L 807.489415 476.042082 
L 808.482121 476.946621 
L 809.474827 477.033425 
L 810.467532 476.528448 
L 813.44565 477.431148 
L 814.438356 477.187763 
L 815.431062 476.688337 
L 816.423768 477.212294 
L 817.416474 476.982077 
L 818.40918 477.98385 
L 819.401886 477.439925 
L 820.394592 477.933075 
L 821.387298 477.257101 
L 822.380004 477.850815 
L 823.372709 477.717605 
L 824.365415 478.379916 
L 826.350827 477.049566 
L 827.343533 478.107763 
L 828.336239 478.017704 
L 830.321651 478.400832 
L 831.314357 477.868724 
L 832.307063 478.178176 
L 833.299769 478.69645 
L 834.292475 478.410354 
L 836.277886 478.77999 
L 837.270592 478.8335 
L 838.263298 478.66259 
L 839.256004 479.040406 
L 840.24871 478.330894 
L 841.241416 478.564146 
L 842.234122 479.117912 
L 843.226828 480.470506 
L 845.21224 479.330019 
L 846.204946 479.358431 
L 847.197652 479.829927 
L 848.190358 479.346456 
L 849.183064 479.592396 
L 850.175769 479.64651 
L 851.168475 479.582962 
L 852.161181 479.811546 
L 853.153887 479.919044 
L 854.146593 479.703439 
L 855.139299 479.660694 
L 856.132005 480.332379 
L 857.124711 480.644983 
L 858.117417 480.148958 
L 859.110123 481.002873 
L 861.095535 480.269707 
L 862.088241 480.86079 
L 863.080946 481.04385 
L 864.073652 480.379469 
L 865.066358 480.290824 
L 867.05177 481.08412 
L 868.044476 480.460936 
L 869.037182 480.564692 
L 870.029888 480.881966 
L 871.022594 480.762529 
L 873.008006 481.072377 
L 874.000712 480.689178 
L 874.993418 481.786181 
L 875.986123 480.545701 
L 876.978829 481.823053 
L 877.971535 481.094456 
L 878.964241 481.465625 
L 879.956947 482.458407 
L 880.949653 481.49847 
L 881.942359 482.114385 
L 882.935065 482.093316 
L 883.927771 481.159122 
L 884.920477 481.777141 
L 885.913183 481.276831 
L 886.905889 481.40095 
L 887.898595 481.748764 
L 888.8913 481.735053 
L 889.884006 482.033874 
L 890.876712 481.962066 
L 891.869418 482.493129 
L 892.862124 482.847235 
L 893.85483 482.316631 
L 894.847536 482.632741 
L 895.840242 481.843941 
L 896.832948 482.077979 
L 897.825654 482.197736 
L 898.81836 481.889195 
L 899.811066 482.836453 
L 900.803772 482.130572 
L 902.789183 483.033308 
L 903.781889 482.933641 
L 904.774595 482.484419 
L 905.767301 483.960271 
L 906.760007 482.55903 
L 907.752713 482.49433 
L 908.745419 482.775976 
L 909.738125 483.65885 
L 910.730831 483.916085 
L 911.723537 483.670935 
L 912.716243 483.654176 
L 913.708949 484.378073 
L 914.701655 482.925022 
L 917.679772 483.291956 
L 918.672478 483.583779 
L 919.665184 484.222589 
L 920.65789 483.714564 
L 921.650596 483.703613 
L 922.643302 483.299663 
L 923.636008 483.017784 
L 924.628714 483.77515 
L 925.62142 483.845538 
L 926.614126 483.567902 
L 928.599537 484.435226 
L 929.592243 483.974148 
L 930.584949 484.373294 
L 931.577655 484.574369 
L 932.570361 484.037612 
L 933.563067 484.560996 
L 934.555773 484.346385 
L 935.548479 485.208081 
L 936.541185 484.449112 
L 937.533891 484.849028 
L 938.526597 484.211139 
L 939.519303 484.583751 
L 940.512009 483.573905 
L 941.504714 484.723025 
L 942.49742 484.992626 
L 943.490126 484.760226 
L 944.482832 483.942719 
L 945.475538 484.699045 
L 946.468244 485.144912 
L 947.46095 485.109816 
L 948.453656 486.010061 
L 949.446362 484.37961 
L 950.439068 485.419471 
L 951.431774 485.375595 
L 952.42448 484.855404 
L 953.417186 485.149361 
L 954.409891 485.675481 
L 955.402597 485.61055 
L 956.395303 486.651689 
L 957.388009 486.212147 
L 958.380715 485.285466 
L 960.366127 485.139365 
L 962.351539 485.299199 
L 963.344245 485.604449 
L 964.336951 485.500057 
L 965.329657 486.150254 
L 966.322363 485.437432 
L 967.315068 485.625916 
L 968.307774 486.587926 
L 969.30048 486.036275 
L 971.285892 486.195273 
L 972.278598 485.925937 
L 973.271304 486.695575 
L 974.26401 486.480084 
L 975.256716 485.837165 
L 976.249422 485.588545 
L 977.242128 485.635938 
L 978.234834 486.320242 
L 979.22754 485.897294 
L 980.220246 486.220222 
L 981.212951 487.008588 
L 982.205657 486.692492 
L 983.198363 486.956064 
L 984.191069 486.447498 
L 985.183775 486.461135 
L 986.176481 486.047067 
L 987.169187 486.4854 
L 988.161893 486.161378 
L 989.154599 486.296547 
L 990.147305 487.237424 
L 991.140011 487.38462 
L 992.132717 486.601547 
L 993.125423 486.830103 
L 994.118128 486.447615 
L 995.110834 488.179292 
L 996.10354 487.411773 
L 998.088952 486.849619 
L 1000.074364 487.606219 
L 1001.06707 486.939693 
L 1004.045188 487.771879 
L 1005.037894 486.919718 
L 1006.0306 487.576968 
L 1007.023305 487.550963 
L 1008.016011 487.290915 
L 1009.008717 486.775688 
L 1010.001423 487.241952 
L 1010.994129 488.107645 
L 1011.986835 488.164781 
L 1012.979541 487.187183 
L 1013.972247 487.412666 
L 1014.964953 487.798506 
L 1015.957659 488.816237 
L 1016.950365 487.949973 
L 1017.943071 488.086375 
L 1018.935777 487.495295 
L 1019.928482 487.184037 
L 1021.913894 488.249525 
L 1022.9066 488.130879 
L 1023.899306 487.548144 
L 1024.892012 488.620039 
L 1025.884718 487.742813 
L 1026.877424 487.990002 
L 1027.87013 488.888327 
L 1028.862836 487.559511 
L 1029.855542 488.682299 
L 1030.848248 488.084045 
L 1031.840954 488.101454 
L 1032.833659 488.404293 
L 1033.826365 487.531462 
L 1034.819071 488.366163 
L 1035.811777 488.669805 
L 1037.797189 488.647908 
L 1038.789895 488.456903 
L 1039.782601 488.755419 
L 1040.775307 488.876705 
L 1041.768013 487.706144 
L 1042.760719 489.128649 
L 1043.753425 488.571619 
L 1044.746131 488.633562 
L 1045.738837 487.846947 
L 1046.731542 488.110912 
L 1047.724248 488.587728 
L 1048.716954 488.921849 
L 1049.70966 488.934525 
L 1051.695072 487.767837 
L 1052.687778 488.777736 
L 1053.680484 488.400996 
L 1054.67319 489.772365 
L 1055.665896 488.617591 
L 1056.658602 488.435491 
L 1057.651308 490.000253 
L 1058.644014 488.401018 
L 1059.636719 489.420434 
L 1060.629425 489.17964 
L 1061.622131 488.80596 
L 1062.614837 489.521159 
L 1063.607543 488.580157 
L 1065.592955 488.835 
L 1066.585661 489.179911 
L 1067.578367 489.765252 
L 1068.571073 489.314317 
L 1069.563779 489.059792 
L 1070.556485 489.622002 
L 1071.549191 489.517514 
L 1072.541896 488.98267 
L 1073.534602 489.689957 
L 1074.527308 489.803402 
L 1075.520014 489.439846 
L 1076.51272 490.302479 
L 1077.505426 489.449765 
L 1078.498132 489.974312 
L 1079.490838 489.584762 
L 1081.47625 489.716372 
L 1082.468956 489.417466 
L 1083.461662 489.829036 
L 1084.454368 489.698249 
L 1085.447073 489.240882 
L 1086.439779 489.852814 
L 1088.425191 489.388259 
L 1089.417897 489.94128 
L 1090.410603 489.459693 
L 1091.403309 488.776151 
L 1092.396015 490.168064 
L 1093.388721 489.420907 
L 1094.381427 489.838884 
L 1095.374133 490.808951 
L 1096.366839 489.593934 
L 1097.359545 489.683905 
L 1098.35225 489.396638 
L 1099.344956 490.21999 
L 1100.337662 490.539128 
L 1101.330368 490.1791 
L 1102.323074 489.961289 
L 1103.31578 489.889695 
L 1104.308486 490.165448 
L 1105.301192 490.119304 
L 1106.293898 488.709677 
L 1107.286604 489.987257 
L 1108.27931 490.693127 
L 1110.264722 490.146549 
L 1111.257428 489.700301 
L 1114.235545 490.8087 
L 1115.228251 489.737961 
L 1116.220957 489.955163 
L 1117.213663 489.985423 
L 1118.206369 489.757528 
L 1119.199075 490.240583 
L 1120.191781 490.519129 
L 1121.184487 489.520356 
L 1122.177193 490.120027 
L 1123.169899 489.770284 
L 1124.162605 491.243264 
L 1125.15531 490.570966 
L 1126.148016 490.491767 
L 1127.140722 490.006684 
L 1128.133428 490.603776 
L 1130.11884 490.745968 
L 1131.111546 490.181276 
L 1132.104252 490.487978 
L 1133.096958 489.985498 
L 1134.089664 490.198508 
L 1135.08237 490.971916 
L 1136.075076 490.801244 
L 1137.067782 491.257506 
L 1138.060487 490.890201 
L 1139.053193 491.087784 
L 1140.045899 491.100564 
L 1141.038605 490.869411 
L 1142.031311 490.045222 
L 1143.024017 490.623498 
L 1144.016723 490.664847 
L 1145.009429 491.339787 
L 1146.002135 490.732756 
L 1146.994841 490.606922 
L 1147.987547 490.82007 
L 1149.972959 490.983257 
L 1150.965664 490.095756 
L 1152.951076 491.843261 
L 1153.943782 491.324293 
L 1154.936488 491.368354 
L 1155.929194 490.935425 
L 1157.914606 492.092028 
L 1158.907312 491.691823 
L 1159.900018 491.105822 
L 1160.892724 491.512067 
L 1161.88543 490.843976 
L 1162.878136 491.684783 
L 1163.870841 491.475347 
L 1164.863547 491.128015 
L 1165.856253 491.144367 
L 1166.848959 490.955854 
L 1167.841665 490.892433 
L 1169.827077 492.237729 
L 1170.819783 491.256156 
L 1171.812489 490.827228 
L 1172.805195 491.06335 
L 1173.797901 490.822721 
L 1174.790607 491.052505 
L 1175.783313 491.570195 
L 1176.776019 491.421445 
L 1177.768724 491.429912 
L 1178.76143 491.633742 
L 1179.754136 491.710263 
L 1180.746842 491.145252 
L 1182.732254 491.44845 
L 1183.72496 491.032256 
L 1184.717666 491.309498 
L 1185.710372 491.029826 
L 1186.703078 491.765891 
L 1187.695784 491.275952 
L 1188.68849 491.262257 
L 1189.681196 491.373302 
L 1190.673901 491.049935 
L 1192.659313 491.534051 
L 1193.652019 491.321816 
L 1194.644725 491.350834 
L 1196.630137 490.730766 
L 1197.622843 490.878057 
L 1198.615549 491.485592 
L 1199.608255 491.279157 
L 1200.600961 491.257642 
L 1201.593667 490.780524 
L 1202.586373 490.94922 
L 1203.579078 490.777072 
L 1204.571784 491.266825 
L 1205.56449 491.37368 
L 1206.557196 491.781475 
L 1207.549902 490.538734 
L 1208.542608 490.117603 
L 1209.535314 491.791868 
L 1210.52802 491.136742 
L 1211.520726 491.900827 
L 1212.513432 491.030579 
L 1213.506138 490.672704 
L 1215.49155 491.518808 
L 1216.484255 490.966012 
L 1217.476961 491.365624 
L 1218.469667 491.310667 
L 1219.462373 491.590677 
L 1220.455079 491.296772 
L 1221.447785 491.704263 
L 1222.440491 490.797309 
L 1223.433197 491.192066 
L 1224.425903 492.215886 
L 1225.418609 491.610943 
L 1227.404021 491.998076 
L 1228.396727 491.13238 
L 1229.389432 491.541045 
L 1230.382138 491.449952 
L 1231.374844 491.000472 
L 1232.36755 492.179487 
L 1233.360256 491.459942 
L 1234.352962 491.63633 
L 1235.345668 491.95575 
L 1236.338374 491.173221 
L 1237.33108 492.108351 
L 1239.316492 492.01681 
L 1240.309198 491.109528 
L 1241.301904 491.179139 
L 1242.29461 492.48 
L 1243.287315 490.768808 
L 1244.280021 491.34413 
L 1245.272727 491.258921 
L 1245.272727 491.258921 
" clip-path="url(#pa6a5fbad7a)" style="fill: none; stroke: #1f77b4; stroke-width: 1.5; stroke-linecap: square"/>
   </g>
   <g id="patch_3">
    <path d="M 180 512.64 
L 180 69.12 
" style="fill: none; stroke: #000000; stroke-width: 0.8; stroke-linejoin: miter; stroke-linecap: square"/>
   </g>
   <g id="patch_4">
    <path d="M 1296 512.64 
L 1296 69.12 
" style="fill: none; stroke: #000000; stroke-width: 0.8; stroke-linejoin: miter; stroke-linecap: square"/>
   </g>
   <g id="patch_5">
    <path d="M 180 512.64 
L 1296 512.64 
" style="fill: none; stroke: #000000; stroke-width: 0.8; stroke-linejoin: miter; stroke-linecap: square"/>
   </g>
   <g id="patch_6">
    <path d="M 180 69.12 
L 1296 69.12 
" style="fill: none; stroke: #000000; stroke-width: 0.8; stroke-linejoin: miter; stroke-linecap: square"/>
   </g>
   <g id="text_14">
    <!-- source7-receiver23 -->
    <g transform="translate(544.9 60.80125) scale(0.4 -0.4)">
     <defs>
      <path id="DejaVuSans-73" d="M 2834 3397 
L 2834 2853 
Q 2591 2978 2328 3040 
Q 2066 3103 1784 3103 
Q 1356 3103 1142 2972 
Q 928 2841 928 2578 
Q 928 2378 1081 2264 
Q 1234 2150 1697 2047 
L 1894 2003 
Q 2506 1872 2764 1633 
Q 3022 1394 3022 966 
Q 3022 478 2636 193 
Q 2250 -91 1575 -91 
Q 1294 -91 989 -36 
Q 684 19 347 128 
L 347 722 
Q 666 556 975 473 
Q 1284 391 1588 391 
Q 1994 391 2212 530 
Q 2431 669 2431 922 
Q 2431 1156 2273 1281 
Q 2116 1406 1581 1522 
L 1381 1569 
Q 847 1681 609 1914 
Q 372 2147 372 2553 
Q 372 3047 722 3315 
Q 1072 3584 1716 3584 
Q 2034 3584 2315 3537 
Q 2597 3491 2834 3397 
z
" transform="scale(0.015625)"/>
      <path id="DejaVuSans-6f" d="M 1959 3097 
Q 1497 3097 1228 2736 
Q 959 2375 959 1747 
Q 959 1119 1226 758 
Q 1494 397 1959 397 
Q 2419 397 2687 759 
Q 2956 1122 2956 1747 
Q 2956 2369 2687 2733 
Q 2419 3097 1959 3097 
z
M 1959 3584 
Q 2709 3584 3137 3096 
Q 3566 2609 3566 1747 
Q 3566 888 3137 398 
Q 2709 -91 1959 -91 
Q 1206 -91 779 398 
Q 353 888 353 1747 
Q 353 2609 779 3096 
Q 1206 3584 1959 3584 
z
" transform="scale(0.015625)"/>
      <path id="DejaVuSans-75" d="M 544 1381 
L 544 3500 
L 1119 3500 
L 1119 1403 
Q 1119 906 1312 657 
Q 1506 409 1894 409 
Q 2359 409 2629 706 
Q 2900 1003 2900 1516 
L 2900 3500 
L 3475 3500 
L 3475 0 
L 2900 0 
L 2900 538 
Q 2691 219 2414 64 
Q 2138 -91 1772 -91 
Q 1169 -91 856 284 
Q 544 659 544 1381 
z
M 1991 3584 
L 1991 3584 
z
" transform="scale(0.015625)"/>
      <path id="DejaVuSans-72" d="M 2631 2963 
Q 2534 3019 2420 3045 
Q 2306 3072 2169 3072 
Q 1681 3072 1420 2755 
Q 1159 2438 1159 1844 
L 1159 0 
L 581 0 
L 581 3500 
L 1159 3500 
L 1159 2956 
Q 1341 3275 1631 3429 
Q 1922 3584 2338 3584 
Q 2397 3584 2469 3576 
Q 2541 3569 2628 3553 
L 2631 2963 
z
" transform="scale(0.015625)"/>
      <path id="DejaVuSans-63" d="M 3122 3366 
L 3122 2828 
Q 2878 2963 2633 3030 
Q 2388 3097 2138 3097 
Q 1578 3097 1268 2742 
Q 959 2388 959 1747 
Q 959 1106 1268 751 
Q 1578 397 2138 397 
Q 2388 397 2633 464 
Q 2878 531 3122 666 
L 3122 134 
Q 2881 22 2623 -34 
Q 2366 -91 2075 -91 
Q 1284 -91 818 406 
Q 353 903 353 1747 
Q 353 2603 823 3093 
Q 1294 3584 2113 3584 
Q 2378 3584 2631 3529 
Q 2884 3475 3122 3366 
z
" transform="scale(0.015625)"/>
      <path id="DejaVuSans-65" d="M 3597 1894 
L 3597 1613 
L 953 1613 
Q 991 1019 1311 708 
Q 1631 397 2203 397 
Q 2534 397 2845 478 
Q 3156 559 3463 722 
L 3463 178 
Q 3153 47 2828 -22 
Q 2503 -91 2169 -91 
Q 1331 -91 842 396 
Q 353 884 353 1716 
Q 353 2575 817 3079 
Q 1281 3584 2069 3584 
Q 2775 3584 3186 3129 
Q 3597 2675 3597 1894 
z
M 3022 2063 
Q 3016 2534 2758 2815 
Q 2500 3097 2075 3097 
Q 1594 3097 1305 2825 
Q 1016 2553 972 2059 
L 3022 2063 
z
" transform="scale(0.015625)"/>
      <path id="DejaVuSans-37" d="M 525 4666 
L 3525 4666 
L 3525 4397 
L 1831 0 
L 1172 0 
L 2766 4134 
L 525 4134 
L 525 4666 
z
" transform="scale(0.015625)"/>
      <path id="DejaVuSans-2d" d="M 313 2009 
L 1997 2009 
L 1997 1497 
L 313 1497 
L 313 2009 
z
" transform="scale(0.015625)"/>
      <path id="DejaVuSans-69" d="M 603 3500 
L 1178 3500 
L 1178 0 
L 603 0 
L 603 3500 
z
M 603 4863 
L 1178 4863 
L 1178 4134 
L 603 4134 
L 603 4863 
z
" transform="scale(0.015625)"/>
      <path id="DejaVuSans-76" d="M 191 3500 
L 800 3500 
L 1894 563 
L 2988 3500 
L 3597 3500 
L 2284 0 
L 1503 0 
L 191 3500 
z
" transform="scale(0.015625)"/>
     </defs>
     <use xlink:href="#DejaVuSans-73"/>
     <use xlink:href="#DejaVuSans-6f" x="52.099609"/>
     <use xlink:href="#DejaVuSans-75" x="113.28125"/>
     <use xlink:href="#DejaVuSans-72" x="176.660156"/>
     <use xlink:href="#DejaVuSans-63" x="215.523438"/>
     <use xlink:href="#DejaVuSans-65" x="270.503906"/>
     <use xlink:href="#DejaVuSans-37" x="332.027344"/>
     <use xlink:href="#DejaVuSans-2d" x="395.650391"/>
     <use xlink:href="#DejaVuSans-72" x="431.734375"/>
     <use xlink:href="#DejaVuSans-65" x="470.597656"/>
     <use xlink:href="#DejaVuSans-63" x="532.121094"/>
     <use xlink:href="#DejaVuSans-65" x="587.101562"/>
     <use xlink:href="#DejaVuSans-69" x="648.625"/>
     <use xlink:href="#DejaVuSans-76" x="676.408203"/>
     <use xlink:href="#DejaVuSans-65" x="735.587891"/>
     <use xlink:href="#DejaVuSans-72" x="797.111328"/>
     <use xlink:href="#DejaVuSans-32" x="838.224609"/>
     <use xlink:href="#DejaVuSans-33" x="901.847656"/>
    </g>
   </g>
  </g>
 </g>
 <defs>
  <clipPath id="pa6a5fbad7a">
   <rect x="180" y="69.12" width="1116" height="443.52"/>
  </clipPath>
 </defs>
</svg>
