<?xml version="1.0" encoding="utf-8" standalone="no"?>
<!DOCTYPE svg PUBLIC "-//W3C//DTD SVG 1.1//EN"
  "http://www.w3.org/Graphics/SVG/1.1/DTD/svg11.dtd">
<svg xmlns:xlink="http://www.w3.org/1999/xlink" width="1440pt" height="576pt" viewBox="0 0 1440 576" xmlns="http://www.w3.org/2000/svg" version="1.1">
 <metadata>
  <rdf:RDF xmlns:dc="http://purl.org/dc/elements/1.1/" xmlns:cc="http://creativecommons.org/ns#" xmlns:rdf="http://www.w3.org/1999/02/22-rdf-syntax-ns#">
   <cc:Work>
    <dc:type rdf:resource="http://purl.org/dc/dcmitype/StillImage"/>
    <dc:date>2024-05-22T04:49:52.770475</dc:date>
    <dc:format>image/svg+xml</dc:format>
    <dc:creator>
     <cc:Agent>
      <dc:title>Matplotlib v3.8.3, https://matplotlib.org/</dc:title>
     </cc:Agent>
    </dc:creator>
   </cc:Work>
  </rdf:RDF>
 </metadata>
 <defs>
  <style type="text/css">*{stroke-linejoin: round; stroke-linecap: butt}</style>
 </defs>
 <g id="figure_1">
  <g id="patch_1">
   <path d="M 0 576 
L 1440 576 
L 1440 0 
L 0 0 
z
" style="fill: #ffffff"/>
  </g>
  <g id="axes_1">
   <g id="patch_2">
    <path d="M 180 512.64 
L 1296 512.64 
L 1296 69.12 
L 180 69.12 
z
" style="fill: #ffffff"/>
   </g>
   <g id="matplotlib.axis_1">
    <g id="xtick_1">
     <g id="line2d_1">
      <defs>
       <path id="md0cb5cbba6" d="M 0 0 
L 0 3.5 
" style="stroke: #000000; stroke-width: 0.8"/>
      </defs>
      <g>
       <use xlink:href="#md0cb5cbba6" x="229.734567" y="512.64" style="stroke: #000000; stroke-width: 0.8"/>
      </g>
     </g>
     <g id="text_1">
      <!-- 0 -->
      <g transform="translate(226.553317 527.238438) scale(0.1 -0.1)">
       <defs>
        <path id="DejaVuSans-30" d="M 2034 4250 
Q 1547 4250 1301 3770 
Q 1056 3291 1056 2328 
Q 1056 1369 1301 889 
Q 1547 409 2034 409 
Q 2525 409 2770 889 
Q 3016 1369 3016 2328 
Q 3016 3291 2770 3770 
Q 2525 4250 2034 4250 
z
M 2034 4750 
Q 2819 4750 3233 4129 
Q 3647 3509 3647 2328 
Q 3647 1150 3233 529 
Q 2819 -91 2034 -91 
Q 1250 -91 836 529 
Q 422 1150 422 2328 
Q 422 3509 836 4129 
Q 1250 4750 2034 4750 
z
" transform="scale(0.015625)"/>
       </defs>
       <use xlink:href="#DejaVuSans-30"/>
      </g>
     </g>
    </g>
    <g id="xtick_2">
     <g id="line2d_2">
      <g>
       <use xlink:href="#md0cb5cbba6" x="433.04074" y="512.64" style="stroke: #000000; stroke-width: 0.8"/>
      </g>
     </g>
     <g id="text_2">
      <!-- 500 -->
      <g transform="translate(423.49699 527.238438) scale(0.1 -0.1)">
       <defs>
        <path id="DejaVuSans-35" d="M 691 4666 
L 3169 4666 
L 3169 4134 
L 1269 4134 
L 1269 2991 
Q 1406 3038 1543 3061 
Q 1681 3084 1819 3084 
Q 2600 3084 3056 2656 
Q 3513 2228 3513 1497 
Q 3513 744 3044 326 
Q 2575 -91 1722 -91 
Q 1428 -91 1123 -41 
Q 819 9 494 109 
L 494 744 
Q 775 591 1075 516 
Q 1375 441 1709 441 
Q 2250 441 2565 725 
Q 2881 1009 2881 1497 
Q 2881 1984 2565 2268 
Q 2250 2553 1709 2553 
Q 1456 2553 1204 2497 
Q 953 2441 691 2322 
L 691 4666 
z
" transform="scale(0.015625)"/>
       </defs>
       <use xlink:href="#DejaVuSans-35"/>
       <use xlink:href="#DejaVuSans-30" x="63.623047"/>
       <use xlink:href="#DejaVuSans-30" x="127.246094"/>
      </g>
     </g>
    </g>
    <g id="xtick_3">
     <g id="line2d_3">
      <g>
       <use xlink:href="#md0cb5cbba6" x="636.346913" y="512.64" style="stroke: #000000; stroke-width: 0.8"/>
      </g>
     </g>
     <g id="text_3">
      <!-- 1000 -->
      <g transform="translate(623.621913 527.238438) scale(0.1 -0.1)">
       <defs>
        <path id="DejaVuSans-31" d="M 794 531 
L 1825 531 
L 1825 4091 
L 703 3866 
L 703 4441 
L 1819 4666 
L 2450 4666 
L 2450 531 
L 3481 531 
L 3481 0 
L 794 0 
L 794 531 
z
" transform="scale(0.015625)"/>
       </defs>
       <use xlink:href="#DejaVuSans-31"/>
       <use xlink:href="#DejaVuSans-30" x="63.623047"/>
       <use xlink:href="#DejaVuSans-30" x="127.246094"/>
       <use xlink:href="#DejaVuSans-30" x="190.869141"/>
      </g>
     </g>
    </g>
    <g id="xtick_4">
     <g id="line2d_4">
      <g>
       <use xlink:href="#md0cb5cbba6" x="839.653087" y="512.64" style="stroke: #000000; stroke-width: 0.8"/>
      </g>
     </g>
     <g id="text_4">
      <!-- 1500 -->
      <g transform="translate(826.928087 527.238438) scale(0.1 -0.1)">
       <use xlink:href="#DejaVuSans-31"/>
       <use xlink:href="#DejaVuSans-35" x="63.623047"/>
       <use xlink:href="#DejaVuSans-30" x="127.246094"/>
       <use xlink:href="#DejaVuSans-30" x="190.869141"/>
      </g>
     </g>
    </g>
    <g id="xtick_5">
     <g id="line2d_5">
      <g>
       <use xlink:href="#md0cb5cbba6" x="1042.95926" y="512.64" style="stroke: #000000; stroke-width: 0.8"/>
      </g>
     </g>
     <g id="text_5">
      <!-- 2000 -->
      <g transform="translate(1030.23426 527.238438) scale(0.1 -0.1)">
       <defs>
        <path id="DejaVuSans-32" d="M 1228 531 
L 3431 531 
L 3431 0 
L 469 0 
L 469 531 
Q 828 903 1448 1529 
Q 2069 2156 2228 2338 
Q 2531 2678 2651 2914 
Q 2772 3150 2772 3378 
Q 2772 3750 2511 3984 
Q 2250 4219 1831 4219 
Q 1534 4219 1204 4116 
Q 875 4013 500 3803 
L 500 4441 
Q 881 4594 1212 4672 
Q 1544 4750 1819 4750 
Q 2544 4750 2975 4387 
Q 3406 4025 3406 3419 
Q 3406 3131 3298 2873 
Q 3191 2616 2906 2266 
Q 2828 2175 2409 1742 
Q 1991 1309 1228 531 
z
" transform="scale(0.015625)"/>
       </defs>
       <use xlink:href="#DejaVuSans-32"/>
       <use xlink:href="#DejaVuSans-30" x="63.623047"/>
       <use xlink:href="#DejaVuSans-30" x="127.246094"/>
       <use xlink:href="#DejaVuSans-30" x="190.869141"/>
      </g>
     </g>
    </g>
    <g id="xtick_6">
     <g id="line2d_6">
      <g>
       <use xlink:href="#md0cb5cbba6" x="1246.265433" y="512.64" style="stroke: #000000; stroke-width: 0.8"/>
      </g>
     </g>
     <g id="text_6">
      <!-- 2500 -->
      <g transform="translate(1233.540433 527.238438) scale(0.1 -0.1)">
       <use xlink:href="#DejaVuSans-32"/>
       <use xlink:href="#DejaVuSans-35" x="63.623047"/>
       <use xlink:href="#DejaVuSans-30" x="127.246094"/>
       <use xlink:href="#DejaVuSans-30" x="190.869141"/>
      </g>
     </g>
    </g>
   </g>
   <g id="matplotlib.axis_2">
    <g id="ytick_1">
     <g id="line2d_7">
      <defs>
       <path id="m7165a65828" d="M 0 0 
L -3.5 0 
" style="stroke: #000000; stroke-width: 0.8"/>
      </defs>
      <g>
       <use xlink:href="#m7165a65828" x="180" y="494.476288" style="stroke: #000000; stroke-width: 0.8"/>
      </g>
     </g>
     <g id="text_7">
      <!-- −4 -->
      <g transform="translate(158.257812 498.275507) scale(0.1 -0.1)">
       <defs>
        <path id="DejaVuSans-2212" d="M 678 2272 
L 4684 2272 
L 4684 1741 
L 678 1741 
L 678 2272 
z
" transform="scale(0.015625)"/>
        <path id="DejaVuSans-34" d="M 2419 4116 
L 825 1625 
L 2419 1625 
L 2419 4116 
z
M 2253 4666 
L 3047 4666 
L 3047 1625 
L 3713 1625 
L 3713 1100 
L 3047 1100 
L 3047 0 
L 2419 0 
L 2419 1100 
L 313 1100 
L 313 1709 
L 2253 4666 
z
" transform="scale(0.015625)"/>
       </defs>
       <use xlink:href="#DejaVuSans-2212"/>
       <use xlink:href="#DejaVuSans-34" x="83.789062"/>
      </g>
     </g>
    </g>
    <g id="ytick_2">
     <g id="line2d_8">
      <g>
       <use xlink:href="#m7165a65828" x="180" y="408.226643" style="stroke: #000000; stroke-width: 0.8"/>
      </g>
     </g>
     <g id="text_8">
      <!-- −2 -->
      <g transform="translate(158.257812 412.025862) scale(0.1 -0.1)">
       <use xlink:href="#DejaVuSans-2212"/>
       <use xlink:href="#DejaVuSans-32" x="83.789062"/>
      </g>
     </g>
    </g>
    <g id="ytick_3">
     <g id="line2d_9">
      <g>
       <use xlink:href="#m7165a65828" x="180" y="321.976997" style="stroke: #000000; stroke-width: 0.8"/>
      </g>
     </g>
     <g id="text_9">
      <!-- 0 -->
      <g transform="translate(166.6375 325.776216) scale(0.1 -0.1)">
       <use xlink:href="#DejaVuSans-30"/>
      </g>
     </g>
    </g>
    <g id="ytick_4">
     <g id="line2d_10">
      <g>
       <use xlink:href="#m7165a65828" x="180" y="235.727352" style="stroke: #000000; stroke-width: 0.8"/>
      </g>
     </g>
     <g id="text_10">
      <!-- 2 -->
      <g transform="translate(166.6375 239.526571) scale(0.1 -0.1)">
       <use xlink:href="#DejaVuSans-32"/>
      </g>
     </g>
    </g>
    <g id="ytick_5">
     <g id="line2d_11">
      <g>
       <use xlink:href="#m7165a65828" x="180" y="149.477706" style="stroke: #000000; stroke-width: 0.8"/>
      </g>
     </g>
     <g id="text_11">
      <!-- 4 -->
      <g transform="translate(166.6375 153.276925) scale(0.1 -0.1)">
       <use xlink:href="#DejaVuSans-34"/>
      </g>
     </g>
    </g>
   </g>
   <g id="line2d_12">
    <path d="M 230.727273 290.556106 
L 231.719979 281.234615 
L 232.712685 269.604108 
L 233.70539 274.592076 
L 234.698096 296.008618 
L 235.690802 303.064444 
L 236.683508 306.790536 
L 237.676214 309.059151 
L 238.66892 289.26442 
L 239.661626 273.482754 
L 240.654332 297.032613 
L 242.639744 263.650964 
L 243.63245 289.644857 
L 244.625156 268.834863 
L 245.617862 282.815448 
L 246.610568 293.878298 
L 247.603273 290.743625 
L 248.595979 264.634225 
L 249.588685 227.735544 
L 250.581391 197.051821 
L 251.574097 190.491519 
L 252.566803 194.638809 
L 253.559509 195.548468 
L 254.552215 196.15966 
L 255.544921 198.494625 
L 256.537627 217.798592 
L 257.530333 233.246327 
L 258.523039 196.917364 
L 259.515745 226.147029 
L 260.50845 179.615103 
L 261.501156 167.643299 
L 262.493862 161.931661 
L 263.486568 134.14389 
L 264.479274 143.015061 
L 265.47198 180.819339 
L 266.464686 129.333473 
L 267.457392 103.018154 
L 268.450098 89.28 
L 269.442804 93.313478 
L 271.428216 125.060107 
L 272.420922 135.418721 
L 273.413627 129.135522 
L 274.406333 119.683097 
L 275.399039 124.322221 
L 277.384451 161.986152 
L 278.377157 164.1198 
L 279.369863 113.06114 
L 280.362569 102.456354 
L 281.355275 170.824318 
L 282.347981 101.499656 
L 283.340687 90.816546 
L 284.333393 135.176538 
L 285.326099 108.86222 
L 286.318804 98.097152 
L 287.31151 110.959419 
L 288.304216 154.510021 
L 289.296922 146.321037 
L 291.282334 192.448937 
L 292.27504 170.46298 
L 293.267746 137.786588 
L 294.260452 153.920666 
L 295.253158 151.221483 
L 296.245864 140.988727 
L 297.23857 132.780804 
L 298.231276 148.77814 
L 299.223981 171.321588 
L 300.216687 217.158559 
L 301.209393 192.164218 
L 302.202099 195.302121 
L 303.194805 177.430157 
L 304.187511 197.779276 
L 305.180217 198.292841 
L 306.172923 241.634316 
L 307.165629 220.958474 
L 308.158335 265.521144 
L 309.151041 248.901381 
L 310.143747 241.731287 
L 311.136453 246.307651 
L 312.129159 219.468429 
L 313.121864 229.452746 
L 314.11457 213.676029 
L 315.107276 225.035527 
L 316.099982 219.257409 
L 317.092688 235.225706 
L 318.085394 227.950117 
L 319.0781 237.820383 
L 320.070806 222.300501 
L 321.063512 227.545883 
L 323.048924 240.967909 
L 324.04163 315.253957 
L 325.034336 402.508639 
L 326.027041 241.660751 
L 327.019747 255.256354 
L 328.012453 243.942527 
L 329.005159 255.849973 
L 329.997865 295.457781 
L 330.990571 316.426414 
L 331.983277 260.170666 
L 332.975983 277.853553 
L 333.968689 262.902008 
L 334.961395 261.61435 
L 335.954101 333.398618 
L 336.946807 269.263382 
L 337.939513 297.287573 
L 338.932218 288.940533 
L 339.924924 286.318027 
L 340.91763 307.438435 
L 341.910336 313.121915 
L 342.903042 265.888449 
L 343.895748 278.011431 
L 344.888454 236.446749 
L 346.873866 235.177787 
L 347.866572 227.73653 
L 348.859278 246.51562 
L 350.84469 219.210901 
L 351.837395 221.880647 
L 352.830101 210.305453 
L 353.822807 220.302131 
L 354.815513 233.898595 
L 355.808219 251.0703 
L 356.800925 261.679883 
L 357.793631 236.880958 
L 358.786337 207.280284 
L 359.779043 204.015068 
L 360.771749 196.220246 
L 361.764455 197.29751 
L 362.757161 204.998052 
L 363.749867 208.057509 
L 364.742572 227.052101 
L 365.735278 224.112888 
L 366.727984 213.343789 
L 367.72069 212.814845 
L 368.713396 203.096226 
L 369.706102 212.195964 
L 370.698808 222.763434 
L 371.691514 258.409651 
L 372.68422 256.610879 
L 374.669632 201.143565 
L 375.662338 197.212521 
L 376.655044 192.479785 
L 377.64775 196.970732 
L 379.633161 218.509924 
L 380.625867 256.024507 
L 381.618573 277.03299 
L 382.611279 278.95816 
L 383.603985 270.015083 
L 384.596691 234.183343 
L 385.589397 234.985429 
L 386.582103 219.342488 
L 387.574809 224.766169 
L 388.567515 221.069916 
L 389.560221 230.01639 
L 390.552927 226.296511 
L 391.545632 229.461932 
L 392.538338 221.85994 
L 393.531044 224.337631 
L 394.52375 226.012317 
L 395.516456 233.545124 
L 396.509162 244.078005 
L 397.501868 251.235781 
L 398.494574 263.206482 
L 399.48728 273.513801 
L 400.479986 289.454714 
L 401.472692 302.28463 
L 402.465398 251.165785 
L 403.458104 250.674482 
L 404.450809 236.381777 
L 405.443515 244.609663 
L 406.436221 247.238059 
L 407.428927 261.440346 
L 408.421633 264.71991 
L 409.414339 273.398321 
L 410.407045 270.752564 
L 411.399751 291.845519 
L 412.392457 283.15928 
L 413.385163 291.367597 
L 414.377869 254.770762 
L 415.370575 259.397165 
L 416.363281 254.776612 
L 417.355986 264.360674 
L 418.348692 311.296933 
L 419.341398 315.866778 
L 420.334104 283.855895 
L 421.32681 300.540292 
L 422.319516 276.64305 
L 423.312222 296.26144 
L 424.304928 428.497856 
L 425.297634 293.622277 
L 426.29034 271.060507 
L 427.283046 279.4908 
L 428.275752 260.944017 
L 429.268458 288.57326 
L 430.261163 275.892983 
L 431.253869 321.588741 
L 432.246575 289.675627 
L 433.239281 356.054758 
L 434.231987 297.063478 
L 435.224693 366.023847 
L 436.217399 290.736889 
L 437.210105 336.095125 
L 438.202811 294.436865 
L 439.195517 379.752985 
L 440.188223 316.381057 
L 441.180929 299.146318 
L 442.173635 271.649288 
L 443.166341 283.386321 
L 444.159046 265.989026 
L 445.151752 296.765244 
L 446.144458 296.186085 
L 447.137164 336.73875 
L 448.12987 319.989007 
L 449.122576 335.309373 
L 450.115282 296.801698 
L 451.107988 374.505175 
L 452.100694 305.845526 
L 453.0934 319.946778 
L 454.086106 279.780084 
L 455.078812 299.657721 
L 456.071518 276.024108 
L 457.064223 305.216244 
L 458.056929 302.522037 
L 459.049635 341.222631 
L 460.042341 305.52659 
L 461.035047 321.692699 
L 462.027753 293.120396 
L 463.020459 288.172641 
L 464.013165 315.677817 
L 465.005871 288.413084 
L 465.998577 312.850976 
L 466.991283 320.181497 
L 467.983989 301.11565 
L 468.976695 352.591388 
L 469.9694 322.482141 
L 470.962106 327.235134 
L 471.954812 343.916261 
L 472.947518 354.911255 
L 473.940224 300.564704 
L 474.93293 330.295545 
L 475.925636 288.762323 
L 476.918342 294.784948 
L 477.911048 289.404033 
L 478.903754 282.65117 
L 479.89646 308.86298 
L 480.889166 289.757554 
L 481.881872 320.510716 
L 482.874577 340.48864 
L 483.867283 301.077233 
L 484.859989 312.487425 
L 485.852695 315.865593 
L 486.845401 296.056669 
L 487.838107 333.993556 
L 488.830813 314.757562 
L 489.823519 305.526665 
L 490.816225 362.976892 
L 491.808931 311.219002 
L 492.801637 423.967556 
L 493.794343 305.827615 
L 494.787049 326.003772 
L 495.779754 282.398324 
L 496.77246 293.182281 
L 497.765166 284.966441 
L 498.757872 290.851512 
L 499.750578 327.837085 
L 500.743284 317.330943 
L 501.73599 330.247684 
L 502.728696 375.072617 
L 503.721402 302.646805 
L 504.714108 322.351554 
L 505.706814 323.263287 
L 506.69952 328.84906 
L 507.692226 340.597146 
L 508.684932 329.995105 
L 509.677637 285.747374 
L 510.670343 297.035213 
L 511.663049 271.523226 
L 512.655755 283.669064 
L 513.648461 279.309283 
L 514.641167 292.918141 
L 515.633873 314.248516 
L 516.626579 332.140894 
L 517.619285 310.124535 
L 518.611991 312.532416 
L 519.604697 302.706904 
L 520.597403 301.361845 
L 521.590109 357.846808 
L 522.582814 316.616958 
L 523.57552 303.113678 
L 524.568226 312.336295 
L 525.560932 282.344952 
L 526.553638 296.275613 
L 527.546344 291.771838 
L 528.53905 297.248042 
L 529.531756 350.988064 
L 530.524462 326.668253 
L 531.517168 322.103082 
L 532.509874 345.128241 
L 533.50258 294.904387 
L 534.495286 299.407897 
L 535.487991 296.658067 
L 536.480697 283.911363 
L 537.473403 305.789122 
L 538.466109 284.969575 
L 540.451521 300.874865 
L 541.444227 290.61138 
L 542.436933 326.356306 
L 543.429639 306.230401 
L 544.422345 311.912339 
L 545.415051 349.007129 
L 546.407757 303.858481 
L 547.400463 318.69035 
L 548.393168 323.110896 
L 549.385874 313.591371 
L 550.37858 395.349741 
L 551.371286 336.732893 
L 552.363992 313.304101 
L 553.356698 340.60699 
L 554.349404 295.775024 
L 555.34211 307.646888 
L 556.334816 296.98357 
L 557.327522 301.49512 
L 558.320228 310.737845 
L 559.312934 305.429981 
L 560.30564 330.767303 
L 561.298345 313.333153 
L 562.291051 362.610369 
L 563.283757 328.013859 
L 564.276463 375.648203 
L 565.269169 352.447269 
L 566.261875 348.146475 
L 567.254581 355.962262 
L 568.247287 337.590555 
L 569.239993 358.484653 
L 570.232699 331.152646 
L 571.225405 351.90957 
L 572.218111 324.412945 
L 573.210817 334.639267 
L 574.203523 320.43473 
L 575.196228 319.82017 
L 576.188934 324.403964 
L 577.18164 313.159024 
L 578.174346 349.36188 
L 579.167052 317.328636 
L 580.159758 380.93534 
L 581.152464 341.305223 
L 582.14517 339.535765 
L 583.137876 402.461173 
L 584.130582 339.692056 
L 585.123288 370.906809 
L 586.115994 348.647076 
L 587.1087 375.597003 
L 588.101405 345.200425 
L 589.094111 381.518109 
L 590.086817 342.783038 
L 591.079523 398.281013 
L 592.072229 331.879636 
L 593.064935 429.860461 
L 594.057641 337.965319 
L 595.050347 370.69501 
L 596.043053 355.185865 
L 597.035759 357.489591 
L 598.028465 322.378092 
L 599.021171 369.092104 
L 600.013877 319.72758 
L 601.006582 366.426797 
L 601.999288 367.193597 
L 602.991994 339.811869 
L 603.9847 348.095113 
L 605.970112 319.515203 
L 606.962818 339.241712 
L 607.955524 313.608062 
L 608.94823 354.63194 
L 609.940936 316.740277 
L 610.933642 409.996973 
L 611.926348 340.265383 
L 612.919054 370.314184 
L 613.911759 330.067174 
L 614.904465 350.790451 
L 615.897171 312.711689 
L 616.889877 356.126237 
L 617.882583 328.956703 
L 618.875289 334.777913 
L 619.867995 388.280873 
L 620.860701 319.602333 
L 621.853407 318.119147 
L 622.846113 327.202284 
L 623.838819 310.932969 
L 624.831525 361.729694 
L 625.824231 326.720983 
L 626.816936 400.190638 
L 627.809642 361.08757 
L 629.795054 339.336269 
L 630.78776 346.623572 
L 631.780466 322.153298 
L 632.773172 391.318324 
L 633.765878 338.930617 
L 634.758584 353.095052 
L 635.75129 381.056451 
L 636.743996 328.766605 
L 637.736702 320.076361 
L 638.729408 342.79759 
L 639.722114 319.397982 
L 640.714819 374.803387 
L 641.707525 376.906745 
L 642.700231 330.342101 
L 643.692937 338.457178 
L 644.685643 332.90399 
L 645.678349 321.051807 
L 646.671055 397.129743 
L 647.663761 346.226478 
L 648.656467 356.875884 
L 649.649173 359.056494 
L 650.641879 343.347171 
L 651.634585 330.727549 
L 652.627291 365.934471 
L 653.619996 331.649793 
L 654.612702 423.566169 
L 655.605408 341.259419 
L 656.598114 396.418201 
L 657.59082 357.134709 
L 658.583526 364.937044 
L 659.576232 357.025043 
L 660.568938 365.278429 
L 661.561644 340.682447 
L 662.55435 404.899082 
L 663.547056 348.03379 
L 664.539762 383.822496 
L 665.532468 352.432545 
L 666.525173 392.46784 
L 667.517879 346.208486 
L 668.510585 380.476667 
L 669.503291 376.721795 
L 670.495997 349.273961 
L 671.488703 350.169338 
L 672.481409 359.966273 
L 673.474115 326.479029 
L 674.466821 388.389021 
L 675.459527 339.200291 
L 676.452233 357.601331 
L 677.444939 378.531885 
L 678.437645 377.407398 
L 679.43035 337.883898 
L 680.423056 383.604562 
L 681.415762 338.83609 
L 682.408468 339.634284 
L 683.401174 392.743841 
L 684.39388 338.793822 
L 685.386586 376.86841 
L 686.379292 359.311998 
L 687.371998 357.857062 
L 688.364704 373.819009 
L 689.35741 350.60319 
L 690.350116 402.945027 
L 691.342822 339.500163 
L 692.335527 401.80769 
L 693.328233 343.88987 
L 694.320939 364.43674 
L 695.313645 358.117959 
L 696.306351 355.768918 
L 697.299057 371.455429 
L 698.291763 345.7267 
L 699.284469 426.151507 
L 700.277175 345.136748 
L 701.269881 384.986833 
L 702.262587 358.083566 
L 703.255293 368.753486 
L 704.247999 365.420834 
L 705.240705 355.788191 
L 706.23341 389.287263 
L 707.226116 338.714434 
L 708.218822 386.529212 
L 709.211528 343.221025 
L 710.204234 342.536244 
L 711.19694 391.914909 
L 712.189646 341.049312 
L 713.182352 385.781068 
L 714.175058 366.765943 
L 715.167764 374.533906 
L 716.16047 353.465617 
L 717.153176 423.997962 
L 718.145882 345.303676 
L 719.138587 356.042746 
L 720.131293 375.800488 
L 721.123999 345.213143 
L 722.116705 397.575053 
L 723.109411 359.498206 
L 724.102117 359.066806 
L 725.094823 387.413216 
L 726.087529 351.216829 
L 727.080235 422.413855 
L 728.072941 345.575852 
L 729.065647 402.882505 
L 730.058353 348.786258 
L 731.051059 371.562247 
L 732.043764 363.129983 
L 733.03647 370.542692 
L 734.029176 365.519223 
L 735.021882 374.234707 
L 736.014588 366.656741 
L 737.007294 369.707133 
L 738 372.272565 
L 738.992706 373.178846 
L 739.985412 367.960681 
L 740.978118 383.778262 
L 741.970824 357.364326 
L 742.96353 421.544064 
L 743.956236 344.639726 
L 744.948941 382.006799 
L 745.941647 346.352459 
L 746.934353 352.225346 
L 747.927059 379.551851 
L 748.919765 353.813019 
L 749.912471 377.614069 
L 750.905177 394.094326 
L 751.897883 351.107377 
L 752.890589 375.131539 
L 753.883295 362.108952 
L 754.876001 354.502988 
L 755.868707 398.322429 
L 756.861413 366.175186 
L 757.854118 366.013134 
L 758.846824 391.908286 
L 759.83953 360.563558 
L 760.832236 367.629176 
L 761.824942 378.634362 
L 762.817648 359.529276 
L 763.810354 391.033005 
L 764.80306 366.353581 
L 765.795766 377.458192 
L 766.788472 372.644362 
L 767.781178 377.410479 
L 768.773884 368.042025 
L 769.76659 384.68281 
L 770.759295 366.61366 
L 771.752001 380.715801 
L 772.744707 369.191803 
L 773.737413 381.965327 
L 774.730119 364.499896 
L 775.722825 385.064216 
L 776.715531 362.461109 
L 778.700943 373.645789 
L 779.693649 361.001049 
L 780.686355 386.136618 
L 781.679061 369.045869 
L 782.671767 372.291511 
L 783.664473 378.015646 
L 784.657178 364.89776 
L 785.649884 364.63275 
L 786.64259 371.606881 
L 787.635296 356.833311 
L 788.628002 385.540003 
L 789.620708 361.732086 
L 790.613414 376.615745 
L 791.60612 362.474294 
L 792.598826 370.798076 
L 793.591532 349.430919 
L 794.584238 388.312129 
L 795.576944 347.639735 
L 796.56965 419.224152 
L 797.562355 358.144582 
L 798.555061 389.42808 
L 799.547767 359.325161 
L 800.540473 385.952031 
L 801.533179 351.978066 
L 802.525885 397.36974 
L 803.518591 349.995202 
L 804.511297 408.588425 
L 805.504003 348.997192 
L 806.496709 429.38132 
L 807.489415 351.496081 
L 808.482121 425.339884 
L 809.474827 353.696275 
L 810.467532 425.970334 
L 811.460238 352.677016 
L 812.452944 425.079992 
L 813.44565 358.212165 
L 814.438356 402.510085 
L 815.431062 358.305562 
L 816.423768 414.023683 
L 817.416474 350.888024 
L 818.40918 447.617963 
L 819.401886 355.216384 
L 820.394592 411.284784 
L 821.387298 357.473774 
L 822.380004 435.312432 
L 823.372709 351.794786 
L 824.365415 398.741956 
L 825.358121 362.795223 
L 826.350827 373.941251 
L 827.343533 382.05862 
L 828.336239 378.669991 
L 829.328945 367.98483 
L 830.321651 394.541615 
L 831.314357 365.054 
L 832.307063 396.288231 
L 833.299769 362.129688 
L 834.292475 409.455988 
L 835.285181 360.979188 
L 836.277886 387.653722 
L 837.270592 376.199853 
L 838.263298 377.544472 
L 839.256004 371.150245 
L 840.24871 398.25149 
L 841.241416 363.276176 
L 842.234122 381.129324 
L 843.226828 387.990574 
L 844.219534 362.610908 
L 845.21224 384.444402 
L 846.204946 371.314739 
L 847.197652 360.003447 
L 848.190358 405.067766 
L 849.183064 360.158523 
L 850.175769 398.269268 
L 851.168475 371.830858 
L 852.161181 378.699633 
L 853.153887 381.766521 
L 854.146593 374.530903 
L 855.139299 364.996128 
L 856.132005 397.710984 
L 857.124711 354.98236 
L 858.117417 407.474004 
L 859.110123 373.099051 
L 860.102829 367.426664 
L 861.095535 388.519923 
L 863.080946 355.845717 
L 864.073652 435.678689 
L 865.066358 360.730822 
L 866.059064 380.304885 
L 867.05177 388.9898 
L 868.044476 372.73035 
L 869.037182 360.869174 
L 870.029888 412.189516 
L 871.022594 356.123212 
L 872.0153 404.240221 
L 873.008006 369.937714 
L 874.000712 389.997525 
L 874.993418 368.047809 
L 875.986123 396.581738 
L 876.978829 371.592383 
L 877.971535 373.381954 
L 878.964241 396.918927 
L 879.956947 367.251091 
L 880.949653 383.260805 
L 881.942359 377.646711 
L 882.935065 368.193644 
L 883.927771 396.441918 
L 884.920477 363.740308 
L 885.913183 404.266234 
L 886.905889 369.413191 
L 887.898595 380.601346 
L 888.8913 384.468163 
L 889.884006 379.002839 
L 890.876712 375.887868 
L 891.869418 384.425911 
L 892.862124 381.824852 
L 893.85483 356.378121 
L 894.847536 492.48 
L 895.840242 348.601529 
L 896.832948 371.362919 
L 897.825654 367.572622 
L 898.81836 359.644146 
L 899.811066 403.43925 
L 900.803772 373.076332 
L 901.796477 381.514895 
L 902.789183 379.035276 
L 903.781889 385.534629 
L 904.774595 380.06812 
L 905.767301 370.862149 
L 906.760007 413.846215 
L 907.752713 359.285053 
L 908.745419 395.838233 
L 909.738125 364.758089 
L 910.730831 385.882496 
L 911.723537 364.793288 
L 912.716243 380.33759 
L 913.708949 362.941353 
L 914.701655 360.01294 
L 915.69436 385.575955 
L 916.687066 357.190692 
L 917.679772 414.610448 
L 918.672478 373.895587 
L 919.665184 376.476529 
L 920.65789 397.181211 
L 921.650596 367.122794 
L 922.643302 387.957324 
L 923.636008 368.808827 
L 925.62142 378.06411 
L 926.614126 370.12693 
L 927.606832 382.529301 
L 928.599537 371.912352 
L 929.592243 381.554426 
L 930.584949 361.983163 
L 931.577655 410.725632 
L 932.570361 360.532541 
L 933.563067 398.082014 
L 934.555773 383.319937 
L 935.548479 371.345295 
L 936.541185 387.26346 
L 938.526597 370.34798 
L 939.519303 392.201166 
L 940.512009 379.967118 
L 941.504714 378.432611 
L 942.49742 372.605449 
L 943.490126 394.060329 
L 944.482832 359.038979 
L 945.475538 420.971312 
L 946.468244 369.016163 
L 947.46095 374.602666 
L 948.453656 401.871074 
L 949.446362 370.426213 
L 950.439068 383.290364 
L 951.431774 386.438767 
L 952.42448 376.247099 
L 953.417186 385.42845 
L 954.409891 386.497076 
L 955.402597 376.929398 
L 956.395303 384.678672 
L 957.388009 384.583153 
L 958.380715 372.278409 
L 959.373421 402.274523 
L 960.366127 371.865941 
L 961.358833 379.093854 
L 962.351539 393.130152 
L 963.344245 363.965008 
L 964.336951 417.316218 
L 965.329657 367.663884 
L 966.322363 388.385499 
L 967.315068 379.743589 
L 968.307774 387.160817 
L 969.30048 375.902165 
L 970.293186 391.909059 
L 971.285892 377.663037 
L 972.278598 381.596901 
L 973.271304 386.310309 
L 974.26401 385.148995 
L 975.256716 374.202153 
L 976.249422 404.129975 
L 977.242128 368.798762 
L 978.234834 400.982568 
L 979.22754 372.514229 
L 980.220246 399.199135 
L 981.212951 369.290619 
L 982.205657 407.304821 
L 983.198363 367.090154 
L 984.191069 392.27844 
L 985.183775 374.760038 
L 986.176481 383.572938 
L 987.169187 381.334903 
L 988.161893 390.062089 
L 989.154599 374.183037 
L 990.147305 401.451539 
L 991.140011 370.098738 
L 992.132717 398.373346 
L 993.125423 372.017807 
L 994.118128 394.548804 
L 995.110834 373.445694 
L 996.10354 395.078497 
L 997.096246 372.828341 
L 998.088952 397.860224 
L 999.081658 371.154502 
L 1000.074364 399.575642 
L 1001.06707 368.971822 
L 1002.059776 394.199336 
L 1003.052482 371.242252 
L 1004.045188 384.607549 
L 1005.037894 379.056332 
L 1006.0306 385.151581 
L 1007.023305 377.996404 
L 1008.016011 394.862467 
L 1009.008717 371.817377 
L 1010.001423 391.535796 
L 1010.994129 375.273242 
L 1011.986835 383.46754 
L 1012.979541 382.272372 
L 1013.972247 387.702883 
L 1014.964953 375.523332 
L 1015.957659 404.245533 
L 1016.950365 366.382722 
L 1017.943071 393.293467 
L 1018.935777 368.622624 
L 1019.928482 374.013885 
L 1020.921188 387.1589 
L 1021.913894 371.958909 
L 1022.9066 392.98739 
L 1023.899306 386.530485 
L 1024.892012 376.583659 
L 1025.884718 390.323353 
L 1026.877424 379.648093 
L 1027.87013 378.888656 
L 1028.862836 390.67321 
L 1029.855542 383.916995 
L 1030.848248 379.509484 
L 1031.840954 397.518402 
L 1032.833659 372.920532 
L 1033.826365 389.764424 
L 1034.819071 377.367419 
L 1035.811777 377.533693 
L 1036.804483 390.180062 
L 1037.797189 372.898848 
L 1038.789895 399.354261 
L 1039.782601 378.722038 
L 1041.768013 391.367867 
L 1042.760719 380.137132 
L 1043.753425 386.029377 
L 1044.746131 386.571982 
L 1046.731542 382.630751 
L 1047.724248 392.86938 
L 1048.716954 378.763747 
L 1049.70966 390.188262 
L 1050.702366 381.800661 
L 1051.695072 390.047258 
L 1052.687778 378.928786 
L 1053.680484 390.658647 
L 1054.67319 383.166574 
L 1055.665896 380.393238 
L 1056.658602 392.861566 
L 1057.651308 384.018225 
L 1058.644014 377.18495 
L 1059.636719 403.645601 
L 1060.629425 373.401044 
L 1061.622131 390.920592 
L 1062.614837 385.734375 
L 1063.607543 384.561186 
L 1064.600249 380.675884 
L 1065.592955 400.696555 
L 1066.585661 370.068669 
L 1067.578367 410.144073 
L 1068.571073 371.035716 
L 1069.563779 393.306596 
L 1070.556485 379.038767 
L 1072.541896 388.437923 
L 1073.534602 383.810455 
L 1074.527308 383.943301 
L 1075.520014 394.007231 
L 1076.51272 377.676175 
L 1077.505426 392.634033 
L 1078.498132 382.84947 
L 1079.490838 389.177692 
L 1080.483544 378.636943 
L 1081.47625 403.571248 
L 1082.468956 371.206127 
L 1083.461662 398.676288 
L 1084.454368 377.045882 
L 1085.447073 386.057121 
L 1086.439779 383.363191 
L 1087.432485 384.632217 
L 1088.425191 387.465022 
L 1089.417897 376.291063 
L 1090.410603 403.373111 
L 1091.403309 375.674132 
L 1092.396015 384.194544 
L 1093.388721 397.345373 
L 1094.381427 371.626539 
L 1095.374133 400.034285 
L 1096.366839 381.185561 
L 1097.359545 383.438928 
L 1099.344956 391.509827 
L 1100.337662 378.043468 
L 1101.330368 390.924407 
L 1102.323074 387.254078 
L 1103.31578 374.465665 
L 1104.308486 407.202179 
L 1105.301192 375.070925 
L 1106.293898 384.044662 
L 1107.286604 391.582468 
L 1108.27931 373.65638 
L 1109.272016 404.794723 
L 1110.264722 376.240118 
L 1111.257428 393.487162 
L 1112.250133 383.189032 
L 1113.242839 390.628602 
L 1114.235545 380.181282 
L 1115.228251 396.72532 
L 1116.220957 380.80578 
L 1117.213663 384.768307 
L 1118.206369 397.025192 
L 1119.199075 376.607949 
L 1120.191781 380.672721 
L 1121.184487 393.773582 
L 1122.177193 363.766874 
L 1123.169899 437.781213 
L 1124.162605 369.019575 
L 1125.15531 393.545969 
L 1126.148016 384.054782 
L 1127.140722 392.9272 
L 1128.133428 374.700041 
L 1129.126134 407.354826 
L 1130.11884 376.038645 
L 1132.104252 394.687766 
L 1133.096958 380.842842 
L 1134.089664 380.409048 
L 1135.08237 400.580363 
L 1136.075076 367.232982 
L 1137.067782 427.487971 
L 1138.060487 367.615163 
L 1139.053193 408.736518 
L 1140.045899 371.802898 
L 1141.038605 394.65024 
L 1142.031311 378.404238 
L 1143.024017 383.506931 
L 1144.016723 390.203351 
L 1145.009429 379.085049 
L 1146.002135 394.623815 
L 1146.994841 384.172407 
L 1147.987547 383.824701 
L 1148.980253 394.529201 
L 1149.972959 377.441011 
L 1150.965664 400.615747 
L 1151.95837 376.886232 
L 1152.951076 399.667152 
L 1153.943782 375.826641 
L 1154.936488 399.54495 
L 1155.929194 375.571145 
L 1156.9219 383.677942 
L 1157.914606 388.668523 
L 1158.907312 369.523404 
L 1159.900018 421.031324 
L 1160.892724 371.184308 
L 1161.88543 391.15667 
L 1162.878136 387.654551 
L 1163.870841 379.028877 
L 1164.863547 394.818871 
L 1165.856253 383.457281 
L 1166.848959 389.979765 
L 1167.841665 382.065567 
L 1168.834371 396.423543 
L 1169.827077 379.814366 
L 1170.819783 388.089767 
L 1171.812489 391.776476 
L 1172.805195 377.576399 
L 1173.797901 399.218153 
L 1174.790607 380.087457 
L 1175.783313 390.482683 
L 1176.776019 383.56338 
L 1177.768724 391.054805 
L 1178.76143 381.546731 
L 1179.754136 383.053775 
L 1180.746842 392.625619 
L 1181.739548 371.566256 
L 1182.732254 412.421045 
L 1183.72496 375.977141 
L 1184.717666 387.639272 
L 1185.710372 395.946768 
L 1186.703078 378.391393 
L 1187.695784 386.243755 
L 1188.68849 391.443838 
L 1189.681196 373.247252 
L 1190.673901 406.977788 
L 1191.666607 379.395456 
L 1192.659313 386.864463 
L 1193.652019 392.239427 
L 1195.637431 376.770615 
L 1196.630137 406.11211 
L 1197.622843 368.929208 
L 1198.615549 408.632032 
L 1199.608255 380.226421 
L 1200.600961 383.668883 
L 1201.593667 393.022429 
L 1202.586373 385.834219 
L 1203.579078 374.677713 
L 1204.571784 412.407585 
L 1205.56449 369.339671 
L 1206.557196 405.184748 
L 1207.549902 380.274283 
L 1208.542608 389.013804 
L 1209.535314 385.035578 
L 1210.52802 394.543381 
L 1211.520726 377.961892 
L 1212.513432 400.172729 
L 1213.506138 380.193176 
L 1214.498844 391.858998 
L 1215.49155 384.999697 
L 1216.484255 391.812514 
L 1217.476961 380.304229 
L 1218.469667 398.651115 
L 1219.462373 377.37554 
L 1220.455079 400.313489 
L 1221.447785 377.576778 
L 1222.440491 398.6517 
L 1223.433197 379.210974 
L 1224.425903 392.896728 
L 1225.418609 383.985779 
L 1226.411315 389.438034 
L 1227.404021 385.187063 
L 1228.396727 390.118085 
L 1229.389432 385.103246 
L 1230.382138 389.189294 
L 1231.374844 385.102137 
L 1232.36755 392.153008 
L 1233.360256 380.631867 
L 1234.352962 397.837794 
L 1235.345668 379.492906 
L 1236.338374 394.203665 
L 1237.33108 384.067777 
L 1238.323786 390.543476 
L 1239.316492 383.888435 
L 1240.309198 393.588652 
L 1241.301904 382.120513 
L 1242.29461 391.757832 
L 1243.287315 384.626429 
L 1244.280021 389.457182 
L 1245.272727 385.64332 
L 1245.272727 385.64332 
" clip-path="url(#paff156d97a)" style="fill: none; stroke: #1f77b4; stroke-width: 1.5; stroke-linecap: square"/>
   </g>
   <g id="patch_3">
    <path d="M 180 512.64 
L 180 69.12 
" style="fill: none; stroke: #000000; stroke-width: 0.8; stroke-linejoin: miter; stroke-linecap: square"/>
   </g>
   <g id="patch_4">
    <path d="M 1296 512.64 
L 1296 69.12 
" style="fill: none; stroke: #000000; stroke-width: 0.8; stroke-linejoin: miter; stroke-linecap: square"/>
   </g>
   <g id="patch_5">
    <path d="M 180 512.64 
L 1296 512.64 
" style="fill: none; stroke: #000000; stroke-width: 0.8; stroke-linejoin: miter; stroke-linecap: square"/>
   </g>
   <g id="patch_6">
    <path d="M 180 69.12 
L 1296 69.12 
" style="fill: none; stroke: #000000; stroke-width: 0.8; stroke-linejoin: miter; stroke-linecap: square"/>
   </g>
   <g id="text_12">
    <!-- source7-receiver24 -->
    <g transform="translate(544.9 60.80125) scale(0.4 -0.4)">
     <defs>
      <path id="DejaVuSans-73" d="M 2834 3397 
L 2834 2853 
Q 2591 2978 2328 3040 
Q 2066 3103 1784 3103 
Q 1356 3103 1142 2972 
Q 928 2841 928 2578 
Q 928 2378 1081 2264 
Q 1234 2150 1697 2047 
L 1894 2003 
Q 2506 1872 2764 1633 
Q 3022 1394 3022 966 
Q 3022 478 2636 193 
Q 2250 -91 1575 -91 
Q 1294 -91 989 -36 
Q 684 19 347 128 
L 347 722 
Q 666 556 975 473 
Q 1284 391 1588 391 
Q 1994 391 2212 530 
Q 2431 669 2431 922 
Q 2431 1156 2273 1281 
Q 2116 1406 1581 1522 
L 1381 1569 
Q 847 1681 609 1914 
Q 372 2147 372 2553 
Q 372 3047 722 3315 
Q 1072 3584 1716 3584 
Q 2034 3584 2315 3537 
Q 2597 3491 2834 3397 
z
" transform="scale(0.015625)"/>
      <path id="DejaVuSans-6f" d="M 1959 3097 
Q 1497 3097 1228 2736 
Q 959 2375 959 1747 
Q 959 1119 1226 758 
Q 1494 397 1959 397 
Q 2419 397 2687 759 
Q 2956 1122 2956 1747 
Q 2956 2369 2687 2733 
Q 2419 3097 1959 3097 
z
M 1959 3584 
Q 2709 3584 3137 3096 
Q 3566 2609 3566 1747 
Q 3566 888 3137 398 
Q 2709 -91 1959 -91 
Q 1206 -91 779 398 
Q 353 888 353 1747 
Q 353 2609 779 3096 
Q 1206 3584 1959 3584 
z
" transform="scale(0.015625)"/>
      <path id="DejaVuSans-75" d="M 544 1381 
L 544 3500 
L 1119 3500 
L 1119 1403 
Q 1119 906 1312 657 
Q 1506 409 1894 409 
Q 2359 409 2629 706 
Q 2900 1003 2900 1516 
L 2900 3500 
L 3475 3500 
L 3475 0 
L 2900 0 
L 2900 538 
Q 2691 219 2414 64 
Q 2138 -91 1772 -91 
Q 1169 -91 856 284 
Q 544 659 544 1381 
z
M 1991 3584 
L 1991 3584 
z
" transform="scale(0.015625)"/>
      <path id="DejaVuSans-72" d="M 2631 2963 
Q 2534 3019 2420 3045 
Q 2306 3072 2169 3072 
Q 1681 3072 1420 2755 
Q 1159 2438 1159 1844 
L 1159 0 
L 581 0 
L 581 3500 
L 1159 3500 
L 1159 2956 
Q 1341 3275 1631 3429 
Q 1922 3584 2338 3584 
Q 2397 3584 2469 3576 
Q 2541 3569 2628 3553 
L 2631 2963 
z
" transform="scale(0.015625)"/>
      <path id="DejaVuSans-63" d="M 3122 3366 
L 3122 2828 
Q 2878 2963 2633 3030 
Q 2388 3097 2138 3097 
Q 1578 3097 1268 2742 
Q 959 2388 959 1747 
Q 959 1106 1268 751 
Q 1578 397 2138 397 
Q 2388 397 2633 464 
Q 2878 531 3122 666 
L 3122 134 
Q 2881 22 2623 -34 
Q 2366 -91 2075 -91 
Q 1284 -91 818 406 
Q 353 903 353 1747 
Q 353 2603 823 3093 
Q 1294 3584 2113 3584 
Q 2378 3584 2631 3529 
Q 2884 3475 3122 3366 
z
" transform="scale(0.015625)"/>
      <path id="DejaVuSans-65" d="M 3597 1894 
L 3597 1613 
L 953 1613 
Q 991 1019 1311 708 
Q 1631 397 2203 397 
Q 2534 397 2845 478 
Q 3156 559 3463 722 
L 3463 178 
Q 3153 47 2828 -22 
Q 2503 -91 2169 -91 
Q 1331 -91 842 396 
Q 353 884 353 1716 
Q 353 2575 817 3079 
Q 1281 3584 2069 3584 
Q 2775 3584 3186 3129 
Q 3597 2675 3597 1894 
z
M 3022 2063 
Q 3016 2534 2758 2815 
Q 2500 3097 2075 3097 
Q 1594 3097 1305 2825 
Q 1016 2553 972 2059 
L 3022 2063 
z
" transform="scale(0.015625)"/>
      <path id="DejaVuSans-37" d="M 525 4666 
L 3525 4666 
L 3525 4397 
L 1831 0 
L 1172 0 
L 2766 4134 
L 525 4134 
L 525 4666 
z
" transform="scale(0.015625)"/>
      <path id="DejaVuSans-2d" d="M 313 2009 
L 1997 2009 
L 1997 1497 
L 313 1497 
L 313 2009 
z
" transform="scale(0.015625)"/>
      <path id="DejaVuSans-69" d="M 603 3500 
L 1178 3500 
L 1178 0 
L 603 0 
L 603 3500 
z
M 603 4863 
L 1178 4863 
L 1178 4134 
L 603 4134 
L 603 4863 
z
" transform="scale(0.015625)"/>
      <path id="DejaVuSans-76" d="M 191 3500 
L 800 3500 
L 1894 563 
L 2988 3500 
L 3597 3500 
L 2284 0 
L 1503 0 
L 191 3500 
z
" transform="scale(0.015625)"/>
     </defs>
     <use xlink:href="#DejaVuSans-73"/>
     <use xlink:href="#DejaVuSans-6f" x="52.099609"/>
     <use xlink:href="#DejaVuSans-75" x="113.28125"/>
     <use xlink:href="#DejaVuSans-72" x="176.660156"/>
     <use xlink:href="#DejaVuSans-63" x="215.523438"/>
     <use xlink:href="#DejaVuSans-65" x="270.503906"/>
     <use xlink:href="#DejaVuSans-37" x="332.027344"/>
     <use xlink:href="#DejaVuSans-2d" x="395.650391"/>
     <use xlink:href="#DejaVuSans-72" x="431.734375"/>
     <use xlink:href="#DejaVuSans-65" x="470.597656"/>
     <use xlink:href="#DejaVuSans-63" x="532.121094"/>
     <use xlink:href="#DejaVuSans-65" x="587.101562"/>
     <use xlink:href="#DejaVuSans-69" x="648.625"/>
     <use xlink:href="#DejaVuSans-76" x="676.408203"/>
     <use xlink:href="#DejaVuSans-65" x="735.587891"/>
     <use xlink:href="#DejaVuSans-72" x="797.111328"/>
     <use xlink:href="#DejaVuSans-32" x="838.224609"/>
     <use xlink:href="#DejaVuSans-34" x="901.847656"/>
    </g>
   </g>
  </g>
 </g>
 <defs>
  <clipPath id="paff156d97a">
   <rect x="180" y="69.12" width="1116" height="443.52"/>
  </clipPath>
 </defs>
</svg>
