<?xml version="1.0" encoding="utf-8" standalone="no"?>
<!DOCTYPE svg PUBLIC "-//W3C//DTD SVG 1.1//EN"
  "http://www.w3.org/Graphics/SVG/1.1/DTD/svg11.dtd">
<svg xmlns:xlink="http://www.w3.org/1999/xlink" width="1440pt" height="576pt" viewBox="0 0 1440 576" xmlns="http://www.w3.org/2000/svg" version="1.1">
 <metadata>
  <rdf:RDF xmlns:dc="http://purl.org/dc/elements/1.1/" xmlns:cc="http://creativecommons.org/ns#" xmlns:rdf="http://www.w3.org/1999/02/22-rdf-syntax-ns#">
   <cc:Work>
    <dc:type rdf:resource="http://purl.org/dc/dcmitype/StillImage"/>
    <dc:date>2024-05-22T04:49:51.141288</dc:date>
    <dc:format>image/svg+xml</dc:format>
    <dc:creator>
     <cc:Agent>
      <dc:title>Matplotlib v3.8.3, https://matplotlib.org/</dc:title>
     </cc:Agent>
    </dc:creator>
   </cc:Work>
  </rdf:RDF>
 </metadata>
 <defs>
  <style type="text/css">*{stroke-linejoin: round; stroke-linecap: butt}</style>
 </defs>
 <g id="figure_1">
  <g id="patch_1">
   <path d="M 0 576 
L 1440 576 
L 1440 0 
L 0 0 
z
" style="fill: #ffffff"/>
  </g>
  <g id="axes_1">
   <g id="patch_2">
    <path d="M 180 512.64 
L 1296 512.64 
L 1296 69.12 
L 180 69.12 
z
" style="fill: #ffffff"/>
   </g>
   <g id="matplotlib.axis_1">
    <g id="xtick_1">
     <g id="line2d_1">
      <defs>
       <path id="mc1e0bef92a" d="M 0 0 
L 0 3.5 
" style="stroke: #000000; stroke-width: 0.8"/>
      </defs>
      <g>
       <use xlink:href="#mc1e0bef92a" x="229.734567" y="512.64" style="stroke: #000000; stroke-width: 0.8"/>
      </g>
     </g>
     <g id="text_1">
      <!-- 0 -->
      <g transform="translate(226.553317 527.238438) scale(0.1 -0.1)">
       <defs>
        <path id="DejaVuSans-30" d="M 2034 4250 
Q 1547 4250 1301 3770 
Q 1056 3291 1056 2328 
Q 1056 1369 1301 889 
Q 1547 409 2034 409 
Q 2525 409 2770 889 
Q 3016 1369 3016 2328 
Q 3016 3291 2770 3770 
Q 2525 4250 2034 4250 
z
M 2034 4750 
Q 2819 4750 3233 4129 
Q 3647 3509 3647 2328 
Q 3647 1150 3233 529 
Q 2819 -91 2034 -91 
Q 1250 -91 836 529 
Q 422 1150 422 2328 
Q 422 3509 836 4129 
Q 1250 4750 2034 4750 
z
" transform="scale(0.015625)"/>
       </defs>
       <use xlink:href="#DejaVuSans-30"/>
      </g>
     </g>
    </g>
    <g id="xtick_2">
     <g id="line2d_2">
      <g>
       <use xlink:href="#mc1e0bef92a" x="433.04074" y="512.64" style="stroke: #000000; stroke-width: 0.8"/>
      </g>
     </g>
     <g id="text_2">
      <!-- 500 -->
      <g transform="translate(423.49699 527.238438) scale(0.1 -0.1)">
       <defs>
        <path id="DejaVuSans-35" d="M 691 4666 
L 3169 4666 
L 3169 4134 
L 1269 4134 
L 1269 2991 
Q 1406 3038 1543 3061 
Q 1681 3084 1819 3084 
Q 2600 3084 3056 2656 
Q 3513 2228 3513 1497 
Q 3513 744 3044 326 
Q 2575 -91 1722 -91 
Q 1428 -91 1123 -41 
Q 819 9 494 109 
L 494 744 
Q 775 591 1075 516 
Q 1375 441 1709 441 
Q 2250 441 2565 725 
Q 2881 1009 2881 1497 
Q 2881 1984 2565 2268 
Q 2250 2553 1709 2553 
Q 1456 2553 1204 2497 
Q 953 2441 691 2322 
L 691 4666 
z
" transform="scale(0.015625)"/>
       </defs>
       <use xlink:href="#DejaVuSans-35"/>
       <use xlink:href="#DejaVuSans-30" x="63.623047"/>
       <use xlink:href="#DejaVuSans-30" x="127.246094"/>
      </g>
     </g>
    </g>
    <g id="xtick_3">
     <g id="line2d_3">
      <g>
       <use xlink:href="#mc1e0bef92a" x="636.346913" y="512.64" style="stroke: #000000; stroke-width: 0.8"/>
      </g>
     </g>
     <g id="text_3">
      <!-- 1000 -->
      <g transform="translate(623.621913 527.238438) scale(0.1 -0.1)">
       <defs>
        <path id="DejaVuSans-31" d="M 794 531 
L 1825 531 
L 1825 4091 
L 703 3866 
L 703 4441 
L 1819 4666 
L 2450 4666 
L 2450 531 
L 3481 531 
L 3481 0 
L 794 0 
L 794 531 
z
" transform="scale(0.015625)"/>
       </defs>
       <use xlink:href="#DejaVuSans-31"/>
       <use xlink:href="#DejaVuSans-30" x="63.623047"/>
       <use xlink:href="#DejaVuSans-30" x="127.246094"/>
       <use xlink:href="#DejaVuSans-30" x="190.869141"/>
      </g>
     </g>
    </g>
    <g id="xtick_4">
     <g id="line2d_4">
      <g>
       <use xlink:href="#mc1e0bef92a" x="839.653087" y="512.64" style="stroke: #000000; stroke-width: 0.8"/>
      </g>
     </g>
     <g id="text_4">
      <!-- 1500 -->
      <g transform="translate(826.928087 527.238438) scale(0.1 -0.1)">
       <use xlink:href="#DejaVuSans-31"/>
       <use xlink:href="#DejaVuSans-35" x="63.623047"/>
       <use xlink:href="#DejaVuSans-30" x="127.246094"/>
       <use xlink:href="#DejaVuSans-30" x="190.869141"/>
      </g>
     </g>
    </g>
    <g id="xtick_5">
     <g id="line2d_5">
      <g>
       <use xlink:href="#mc1e0bef92a" x="1042.95926" y="512.64" style="stroke: #000000; stroke-width: 0.8"/>
      </g>
     </g>
     <g id="text_5">
      <!-- 2000 -->
      <g transform="translate(1030.23426 527.238438) scale(0.1 -0.1)">
       <defs>
        <path id="DejaVuSans-32" d="M 1228 531 
L 3431 531 
L 3431 0 
L 469 0 
L 469 531 
Q 828 903 1448 1529 
Q 2069 2156 2228 2338 
Q 2531 2678 2651 2914 
Q 2772 3150 2772 3378 
Q 2772 3750 2511 3984 
Q 2250 4219 1831 4219 
Q 1534 4219 1204 4116 
Q 875 4013 500 3803 
L 500 4441 
Q 881 4594 1212 4672 
Q 1544 4750 1819 4750 
Q 2544 4750 2975 4387 
Q 3406 4025 3406 3419 
Q 3406 3131 3298 2873 
Q 3191 2616 2906 2266 
Q 2828 2175 2409 1742 
Q 1991 1309 1228 531 
z
" transform="scale(0.015625)"/>
       </defs>
       <use xlink:href="#DejaVuSans-32"/>
       <use xlink:href="#DejaVuSans-30" x="63.623047"/>
       <use xlink:href="#DejaVuSans-30" x="127.246094"/>
       <use xlink:href="#DejaVuSans-30" x="190.869141"/>
      </g>
     </g>
    </g>
    <g id="xtick_6">
     <g id="line2d_6">
      <g>
       <use xlink:href="#mc1e0bef92a" x="1246.265433" y="512.64" style="stroke: #000000; stroke-width: 0.8"/>
      </g>
     </g>
     <g id="text_6">
      <!-- 2500 -->
      <g transform="translate(1233.540433 527.238438) scale(0.1 -0.1)">
       <use xlink:href="#DejaVuSans-32"/>
       <use xlink:href="#DejaVuSans-35" x="63.623047"/>
       <use xlink:href="#DejaVuSans-30" x="127.246094"/>
       <use xlink:href="#DejaVuSans-30" x="190.869141"/>
      </g>
     </g>
    </g>
   </g>
   <g id="matplotlib.axis_2">
    <g id="ytick_1">
     <g id="line2d_7">
      <defs>
       <path id="meae23ed7fd" d="M 0 0 
L -3.5 0 
" style="stroke: #000000; stroke-width: 0.8"/>
      </defs>
      <g>
       <use xlink:href="#meae23ed7fd" x="180" y="457.233194" style="stroke: #000000; stroke-width: 0.8"/>
      </g>
     </g>
     <g id="text_7">
      <!-- −4 -->
      <g transform="translate(158.257812 461.032413) scale(0.1 -0.1)">
       <defs>
        <path id="DejaVuSans-2212" d="M 678 2272 
L 4684 2272 
L 4684 1741 
L 678 1741 
L 678 2272 
z
" transform="scale(0.015625)"/>
        <path id="DejaVuSans-34" d="M 2419 4116 
L 825 1625 
L 2419 1625 
L 2419 4116 
z
M 2253 4666 
L 3047 4666 
L 3047 1625 
L 3713 1625 
L 3713 1100 
L 3047 1100 
L 3047 0 
L 2419 0 
L 2419 1100 
L 313 1100 
L 313 1709 
L 2253 4666 
z
" transform="scale(0.015625)"/>
       </defs>
       <use xlink:href="#DejaVuSans-2212"/>
       <use xlink:href="#DejaVuSans-34" x="83.789062"/>
      </g>
     </g>
    </g>
    <g id="ytick_2">
     <g id="line2d_8">
      <g>
       <use xlink:href="#meae23ed7fd" x="180" y="380.909818" style="stroke: #000000; stroke-width: 0.8"/>
      </g>
     </g>
     <g id="text_8">
      <!-- −2 -->
      <g transform="translate(158.257812 384.709037) scale(0.1 -0.1)">
       <use xlink:href="#DejaVuSans-2212"/>
       <use xlink:href="#DejaVuSans-32" x="83.789062"/>
      </g>
     </g>
    </g>
    <g id="ytick_3">
     <g id="line2d_9">
      <g>
       <use xlink:href="#meae23ed7fd" x="180" y="304.586442" style="stroke: #000000; stroke-width: 0.8"/>
      </g>
     </g>
     <g id="text_9">
      <!-- 0 -->
      <g transform="translate(166.6375 308.38566) scale(0.1 -0.1)">
       <use xlink:href="#DejaVuSans-30"/>
      </g>
     </g>
    </g>
    <g id="ytick_4">
     <g id="line2d_10">
      <g>
       <use xlink:href="#meae23ed7fd" x="180" y="228.263065" style="stroke: #000000; stroke-width: 0.8"/>
      </g>
     </g>
     <g id="text_10">
      <!-- 2 -->
      <g transform="translate(166.6375 232.062284) scale(0.1 -0.1)">
       <use xlink:href="#DejaVuSans-32"/>
      </g>
     </g>
    </g>
    <g id="ytick_5">
     <g id="line2d_11">
      <g>
       <use xlink:href="#meae23ed7fd" x="180" y="151.939689" style="stroke: #000000; stroke-width: 0.8"/>
      </g>
     </g>
     <g id="text_11">
      <!-- 4 -->
      <g transform="translate(166.6375 155.738908) scale(0.1 -0.1)">
       <use xlink:href="#DejaVuSans-34"/>
      </g>
     </g>
    </g>
    <g id="ytick_6">
     <g id="line2d_12">
      <g>
       <use xlink:href="#meae23ed7fd" x="180" y="75.616313" style="stroke: #000000; stroke-width: 0.8"/>
      </g>
     </g>
     <g id="text_12">
      <!-- 6 -->
      <g transform="translate(166.6375 79.415531) scale(0.1 -0.1)">
       <defs>
        <path id="DejaVuSans-36" d="M 2113 2584 
Q 1688 2584 1439 2293 
Q 1191 2003 1191 1497 
Q 1191 994 1439 701 
Q 1688 409 2113 409 
Q 2538 409 2786 701 
Q 3034 994 3034 1497 
Q 3034 2003 2786 2293 
Q 2538 2584 2113 2584 
z
M 3366 4563 
L 3366 3988 
Q 3128 4100 2886 4159 
Q 2644 4219 2406 4219 
Q 1781 4219 1451 3797 
Q 1122 3375 1075 2522 
Q 1259 2794 1537 2939 
Q 1816 3084 2150 3084 
Q 2853 3084 3261 2657 
Q 3669 2231 3669 1497 
Q 3669 778 3244 343 
Q 2819 -91 2113 -91 
Q 1303 -91 875 529 
Q 447 1150 447 2328 
Q 447 3434 972 4092 
Q 1497 4750 2381 4750 
Q 2619 4750 2861 4703 
Q 3103 4656 3366 4563 
z
" transform="scale(0.015625)"/>
       </defs>
       <use xlink:href="#DejaVuSans-36"/>
      </g>
     </g>
    </g>
   </g>
   <g id="line2d_13">
    <path d="M 230.727273 272.685399 
L 231.719979 266.361586 
L 232.712685 272.107094 
L 233.70539 285.437806 
L 234.698096 282.988615 
L 235.690802 277.846468 
L 236.683508 284.447489 
L 237.676214 299.585561 
L 238.66892 287.52251 
L 239.661626 285.576552 
L 240.654332 308.002723 
L 241.647038 335.768632 
L 242.639744 296.610587 
L 243.63245 294.371322 
L 244.625156 344.874387 
L 245.617862 302.228804 
L 246.610568 293.719097 
L 247.603273 349.264992 
L 248.595979 274.202037 
L 249.588685 231.285673 
L 250.581391 212.518216 
L 251.574097 223.113521 
L 252.566803 252.004482 
L 253.559509 200.190385 
L 254.552215 205.112703 
L 255.544921 214.76423 
L 256.537627 190.660354 
L 257.530333 201.187614 
L 258.523039 263.156812 
L 259.515745 190.777932 
L 260.50845 173.264196 
L 261.501156 181.274954 
L 262.493862 192.866829 
L 263.486568 173.241529 
L 264.479274 168.477257 
L 266.464686 178.623871 
L 267.457392 174.690659 
L 268.450098 187.125465 
L 269.442804 204.394827 
L 270.43551 184.508869 
L 271.428216 159.489216 
L 272.420922 146.848944 
L 273.413627 129.584388 
L 274.406333 124.367835 
L 276.391745 147.056752 
L 277.384451 126.228615 
L 278.377157 98.179877 
L 279.369863 89.28 
L 280.362569 95.300391 
L 281.355275 106.986269 
L 283.340687 110.003785 
L 284.333393 134.642178 
L 285.326099 171.735993 
L 286.318804 128.850763 
L 287.31151 131.139339 
L 288.304216 139.061585 
L 289.296922 131.630766 
L 290.289628 119.924073 
L 291.282334 128.120382 
L 293.267746 203.081423 
L 294.260452 208.209778 
L 295.253158 182.208965 
L 296.245864 171.839996 
L 297.23857 171.314456 
L 298.231276 201.18692 
L 299.223981 211.416155 
L 300.216687 214.131338 
L 301.209393 201.516445 
L 302.202099 210.170883 
L 303.194805 208.230875 
L 304.187511 209.087812 
L 305.180217 241.458854 
L 306.172923 264.312022 
L 307.165629 242.227332 
L 308.158335 241.607387 
L 309.151041 276.924125 
L 310.143747 253.429362 
L 311.136453 269.317675 
L 312.129159 307.422223 
L 313.121864 266.42929 
L 314.11457 253.115477 
L 315.107276 270.543011 
L 316.099982 298.010527 
L 317.092688 269.01774 
L 318.085394 281.547063 
L 319.0781 353.030398 
L 320.070806 275.668799 
L 321.063512 262.292361 
L 322.056218 286.436771 
L 323.048924 291.6562 
L 324.04163 267.021078 
L 325.034336 269.029588 
L 326.027041 311.555155 
L 327.019747 281.847781 
L 328.012453 268.919726 
L 329.997865 310.411183 
L 330.990571 272.45574 
L 331.983277 267.753042 
L 332.975983 296.424106 
L 333.968689 287.327401 
L 334.961395 276.680322 
L 336.946807 323.589718 
L 337.939513 273.942955 
L 338.932218 276.278825 
L 339.924924 313.554448 
L 340.91763 283.882575 
L 341.910336 274.662867 
L 342.903042 291.315011 
L 343.895748 313.349927 
L 344.888454 275.756625 
L 345.88116 280.186519 
L 346.873866 299.952473 
L 347.866572 267.3347 
L 348.859278 258.248299 
L 349.851984 264.429995 
L 350.84469 256.112516 
L 351.837395 241.299776 
L 352.830101 240.470649 
L 353.822807 243.238998 
L 354.815513 234.472375 
L 355.808219 227.711062 
L 357.793631 230.295905 
L 358.786337 226.675965 
L 359.779043 227.654583 
L 360.771749 236.855515 
L 361.764455 243.380414 
L 362.757161 242.218534 
L 363.749867 248.695352 
L 364.742572 261.16848 
L 365.735278 254.913471 
L 366.727984 257.277387 
L 367.72069 281.504213 
L 368.713396 316.389191 
L 369.706102 300.986589 
L 370.698808 257.416555 
L 371.691514 225.109086 
L 372.68422 208.511773 
L 374.669632 190.006647 
L 375.662338 181.480832 
L 376.655044 175.732463 
L 377.64775 173.034674 
L 378.640455 171.505339 
L 379.633161 170.364496 
L 380.625867 170.878877 
L 381.618573 174.043928 
L 382.611279 178.990314 
L 383.603985 184.827028 
L 384.596691 193.150681 
L 385.589397 206.986746 
L 387.574809 249.228746 
L 388.567515 257.559799 
L 389.560221 239.100681 
L 390.552927 223.742782 
L 391.545632 218.058095 
L 392.538338 219.341008 
L 394.52375 223.125918 
L 395.516456 230.46365 
L 396.509162 248.584466 
L 397.501868 273.076231 
L 398.494574 292.946825 
L 399.48728 347.180368 
L 400.479986 292.706377 
L 401.472692 271.029098 
L 402.465398 276.616608 
L 403.458104 298.331538 
L 404.450809 300.9519 
L 405.443515 295.31338 
L 406.436221 305.776213 
L 407.428927 302.018332 
L 408.421633 296.108437 
L 409.414339 308.600252 
L 410.407045 300.7359 
L 411.399751 294.156231 
L 412.392457 294.791555 
L 413.385163 318.326237 
L 414.377869 361.283571 
L 415.370575 379.217148 
L 416.363281 307.112079 
L 417.355986 292.158002 
L 418.348692 303.687138 
L 419.341398 350.638291 
L 421.32681 317.727842 
L 422.319516 373.082431 
L 423.312222 301.913305 
L 424.304928 290.896356 
L 425.297634 303.478949 
L 426.29034 292.711304 
L 427.283046 277.249664 
L 428.275752 276.000303 
L 429.268458 286.799194 
L 430.261163 280.186485 
L 431.253869 275.679523 
L 433.239281 299.367431 
L 434.231987 281.889546 
L 435.224693 279.545245 
L 436.217399 295.337876 
L 437.210105 296.497988 
L 438.202811 288.481182 
L 439.195517 300.235765 
L 440.188223 330.163257 
L 441.180929 302.991773 
L 442.173635 309.573507 
L 443.166341 331.932251 
L 444.159046 297.686434 
L 445.151752 290.830854 
L 446.144458 304.034436 
L 447.137164 296.091154 
L 448.12987 280.503903 
L 449.122576 284.395856 
L 450.115282 295.840519 
L 451.107988 280.832346 
L 452.100694 273.967007 
L 453.0934 277.207855 
L 454.086106 273.442253 
L 455.078812 263.582462 
L 456.071518 264.748769 
L 457.064223 274.68299 
L 458.056929 278.492909 
L 459.049635 273.199017 
L 460.042341 277.813494 
L 461.035047 299.507427 
L 462.027753 312.073812 
L 463.020459 301.607758 
L 464.013165 302.371458 
L 465.005871 325.42539 
L 465.998577 320.477174 
L 466.991283 301.226364 
L 467.983989 287.201724 
L 468.976695 279.823437 
L 469.9694 277.171382 
L 470.962106 266.165535 
L 471.954812 253.505223 
L 472.947518 247.296942 
L 473.940224 245.419781 
L 474.93293 242.258966 
L 475.925636 237.258377 
L 476.918342 234.895868 
L 477.911048 235.665177 
L 478.903754 236.583163 
L 479.89646 235.582407 
L 480.889166 236.769911 
L 481.881872 242.136656 
L 482.874577 246.620298 
L 483.867283 246.954408 
L 484.859989 251.407968 
L 485.852695 264.952415 
L 486.845401 274.195085 
L 487.838107 271.41736 
L 488.830813 274.135457 
L 489.823519 271.785128 
L 490.816225 259.154551 
L 491.808931 253.005249 
L 492.801637 254.062699 
L 493.794343 252.408231 
L 494.787049 247.14151 
L 495.779754 247.051838 
L 497.765166 261.546419 
L 498.757872 264.571149 
L 499.750578 271.897486 
L 500.743284 289.26075 
L 501.73599 293.998245 
L 502.728696 288.610522 
L 503.721402 301.160665 
L 504.714108 306.872135 
L 505.706814 291.40987 
L 506.69952 285.525332 
L 507.692226 302.659943 
L 508.684932 330.965784 
L 509.677637 329.153562 
L 510.670343 304.864318 
L 511.663049 298.73982 
L 513.648461 320.470774 
L 514.641167 315.944341 
L 515.633873 306.471023 
L 516.626579 322.932778 
L 517.619285 350.913866 
L 518.611991 345.938686 
L 519.604697 349.270923 
L 520.597403 369.172078 
L 521.590109 322.839045 
L 522.582814 311.312341 
L 523.57552 337.582733 
L 524.568226 386.379783 
L 525.560932 348.585814 
L 526.553638 367.149985 
L 527.546344 351.804137 
L 528.53905 307.252018 
L 529.531756 301.993317 
L 530.524462 321.321634 
L 531.517168 335.745709 
L 532.509874 312.480132 
L 533.50258 311.970384 
L 534.495286 345.603968 
L 535.487991 321.865198 
L 536.480697 313.075953 
L 537.473403 329.204627 
L 538.466109 336.461249 
L 539.458815 304.806343 
L 540.451521 302.771144 
L 541.444227 328.088503 
L 542.436933 386.099745 
L 543.429639 352.363812 
L 544.422345 338.244205 
L 545.415051 356.872985 
L 546.407757 324.634756 
L 547.400463 321.374035 
L 548.393168 352.422412 
L 549.385874 338.214446 
L 550.37858 326.740611 
L 551.371286 334.864957 
L 552.363992 425.458034 
L 553.356698 331.089148 
L 554.349404 331.56099 
L 555.34211 370.710175 
L 556.334816 334.626259 
L 557.327522 313.180195 
L 558.320228 310.228331 
L 559.312934 333.485875 
L 560.30564 335.2896 
L 561.298345 332.159759 
L 562.291051 342.352764 
L 563.283757 384.648631 
L 564.276463 325.077024 
L 565.269169 317.513008 
L 566.261875 322.794774 
L 568.247287 291.693753 
L 569.239993 286.676806 
L 570.232699 288.350118 
L 571.225405 285.113709 
L 572.218111 278.474738 
L 573.210817 275.017789 
L 575.196228 277.36377 
L 576.188934 272.440583 
L 577.18164 272.027418 
L 578.174346 277.70212 
L 579.167052 280.871557 
L 580.159758 276.616334 
L 581.152464 276.966246 
L 582.14517 288.640701 
L 583.137876 294.687995 
L 584.130582 285.805503 
L 585.123288 284.823226 
L 586.115994 291.278816 
L 587.1087 286.150644 
L 588.101405 280.328156 
L 589.094111 283.545245 
L 590.086817 287.263933 
L 591.079523 280.632338 
L 592.072229 278.288472 
L 593.064935 286.917117 
L 594.057641 293.528774 
L 595.050347 286.516423 
L 596.043053 283.155365 
L 597.035759 288.131893 
L 598.028465 286.237215 
L 599.021171 281.594924 
L 600.013877 285.775982 
L 601.006582 295.619399 
L 601.999288 296.02666 
L 602.991994 295.567261 
L 603.9847 312.925148 
L 604.977406 373.398478 
L 605.970112 349.565139 
L 606.962818 335.82746 
L 607.955524 345.903588 
L 608.94823 318.335461 
L 609.940936 307.39413 
L 610.933642 313.929874 
L 611.926348 327.321665 
L 612.919054 326.259444 
L 613.911759 312.716516 
L 614.904465 317.804349 
L 615.897171 329.562884 
L 616.889877 344.903401 
L 617.882583 364.283506 
L 619.867995 350.238971 
L 620.860701 325.703524 
L 621.853407 332.824924 
L 622.846113 344.73523 
L 623.838819 344.243826 
L 624.831525 321.379563 
L 625.824231 320.862002 
L 626.816936 345.585222 
L 627.809642 376.449035 
L 628.802348 385.704181 
L 629.795054 375.559549 
L 630.78776 353.296323 
L 631.780466 316.641629 
L 632.773172 316.160759 
L 633.765878 333.297733 
L 634.758584 341.24419 
L 635.75129 319.888817 
L 636.743996 319.8017 
L 637.736702 357.846978 
L 638.729408 371.565373 
L 639.722114 369.349548 
L 640.714819 378.742111 
L 641.707525 383.840199 
L 642.700231 330.974442 
L 643.692937 331.233648 
L 644.685643 364.706709 
L 645.678349 375.800483 
L 646.671055 367.220066 
L 647.663761 335.235394 
L 648.656467 325.876504 
L 649.649173 319.892431 
L 650.641879 328.259187 
L 651.634585 318.747487 
L 652.627291 310.651129 
L 653.619996 316.899912 
L 654.612702 332.810492 
L 656.598114 306.934397 
L 657.59082 316.791274 
L 658.583526 330.801179 
L 659.576232 316.424101 
L 660.568938 307.382354 
L 661.561644 314.806676 
L 662.55435 328.937389 
L 663.547056 321.749271 
L 664.539762 322.040244 
L 665.532468 331.092473 
L 666.525173 357.266442 
L 667.517879 346.124832 
L 668.510585 337.653157 
L 669.503291 330.639861 
L 670.495997 336.123997 
L 671.488703 344.742702 
L 672.481409 325.029929 
L 673.474115 320.803972 
L 674.466821 331.14408 
L 675.459527 337.095057 
L 676.452233 314.670189 
L 677.444939 313.622899 
L 678.437645 325.519958 
L 680.423056 295.28555 
L 681.415762 291.48087 
L 682.408468 291.273981 
L 683.401174 284.076062 
L 684.39388 279.0248 
L 685.386586 280.613402 
L 686.379292 284.085072 
L 687.371998 281.674984 
L 688.364704 280.871375 
L 689.35741 289.543193 
L 690.350116 302.641791 
L 691.342822 301.895562 
L 692.335527 299.967069 
L 693.328233 312.375558 
L 694.320939 315.815408 
L 695.313645 303.762363 
L 696.306351 304.028472 
L 697.299057 309.432392 
L 698.291763 300.876496 
L 699.284469 293.436798 
L 700.277175 299.889321 
L 701.269881 312.78278 
L 702.262587 308.579759 
L 703.255293 302.872658 
L 704.247999 312.07222 
L 705.240705 330.911594 
L 706.23341 325.631168 
L 707.226116 330.83967 
L 708.218822 359.58019 
L 709.211528 356.291252 
L 710.204234 327.773247 
L 711.19694 338.156016 
L 712.189646 351.736872 
L 713.182352 331.850477 
L 714.175058 327.848865 
L 715.167764 338.346996 
L 716.16047 354.402422 
L 717.153176 337.862389 
L 719.138587 368.292152 
L 720.131293 373.550613 
L 721.123999 363.934683 
L 722.116705 391.28094 
L 723.109411 353.985255 
L 724.102117 337.910164 
L 726.087529 383.44607 
L 727.080235 397.184135 
L 728.072941 357.87005 
L 729.065647 406.640772 
L 730.058353 351.660772 
L 731.051059 343.236522 
L 732.043764 365.347499 
L 733.03647 392.431082 
L 735.021882 343.322596 
L 736.014588 356.621477 
L 737.007294 349.259437 
L 738.992706 376.935392 
L 739.985412 353.633814 
L 740.978118 336.428408 
L 741.970824 336.350742 
L 742.96353 376.154344 
L 743.956236 372.942521 
L 744.948941 365.621616 
L 745.941647 352.058061 
L 746.934353 368.52321 
L 747.927059 358.405386 
L 748.919765 366.943364 
L 749.912471 367.49209 
L 750.905177 342.005926 
L 751.897883 343.956854 
L 752.890589 356.808693 
L 753.883295 372.236198 
L 754.876001 336.602682 
L 755.868707 341.946507 
L 756.861413 388.108197 
L 758.846824 330.727841 
L 759.83953 329.627226 
L 760.832236 351.232951 
L 761.824942 342.553391 
L 762.817648 332.123015 
L 763.810354 333.320507 
L 764.80306 356.986904 
L 765.795766 352.081694 
L 766.788472 342.795583 
L 767.781178 354.579656 
L 768.773884 383.211429 
L 769.76659 378.633107 
L 770.759295 349.370666 
L 771.752001 360.294388 
L 772.744707 373.23129 
L 773.737413 427.42659 
L 774.730119 349.650326 
L 775.722825 336.366402 
L 776.715531 342.139612 
L 777.708237 355.626256 
L 778.700943 334.240073 
L 779.693649 317.020186 
L 780.686355 318.960537 
L 781.679061 330.35145 
L 782.671767 321.974418 
L 783.664473 307.810858 
L 784.657178 307.396615 
L 785.649884 317.862991 
L 786.64259 317.585305 
L 787.635296 308.498425 
L 788.628002 308.84771 
L 789.620708 321.624683 
L 790.613414 326.363316 
L 791.60612 320.541515 
L 792.598826 328.140461 
L 793.591532 354.017566 
L 794.584238 338.507332 
L 795.576944 324.828336 
L 796.56965 335.365791 
L 797.562355 341.033866 
L 798.555061 321.737629 
L 799.547767 314.055365 
L 801.533179 327.243143 
L 802.525885 319.097262 
L 803.518591 317.771349 
L 804.511297 327.770152 
L 805.504003 344.719736 
L 806.496709 334.865138 
L 807.489415 335.871687 
L 808.482121 359.007995 
L 809.474827 437.658768 
L 810.467532 355.381782 
L 811.460238 348.23282 
L 812.452944 393.000869 
L 813.44565 378.995095 
L 814.438356 357.623731 
L 815.431062 349.766503 
L 816.423768 373.030782 
L 817.416474 390.994836 
L 818.40918 365.894711 
L 819.401886 364.97484 
L 820.394592 367.091158 
L 821.387298 397.369238 
L 822.380004 366.223274 
L 823.372709 405.472029 
L 824.365415 375.370761 
L 825.358121 359.040204 
L 826.350827 349.057997 
L 827.343533 357.657718 
L 828.336239 371.329674 
L 829.328945 345.746385 
L 830.321651 342.153047 
L 831.314357 347.161201 
L 832.307063 375.717014 
L 833.299769 354.970568 
L 834.292475 352.937355 
L 835.285181 361.822705 
L 836.277886 379.51747 
L 837.270592 391.3547 
L 838.263298 379.566216 
L 839.256004 394.01167 
L 840.24871 352.615249 
L 841.241416 359.555115 
L 842.234122 376.028336 
L 843.226828 461.652528 
L 844.219534 359.908703 
L 845.21224 359.981573 
L 846.204946 381.120124 
L 847.197652 367.768824 
L 848.190358 395.060093 
L 849.183064 403.341646 
L 851.168475 343.774336 
L 852.161181 354.65237 
L 853.153887 405.680668 
L 854.146593 360.020277 
L 855.139299 344.140744 
L 856.132005 351.844573 
L 857.124711 365.567689 
L 858.117417 336.967358 
L 859.110123 335.826276 
L 860.102829 350.2766 
L 861.095535 349.898821 
L 862.088241 327.371989 
L 863.080946 326.89433 
L 864.073652 348.984538 
L 865.066358 358.740419 
L 866.059064 337.044203 
L 867.05177 335.82998 
L 868.044476 367.302565 
L 869.037182 363.52177 
L 870.029888 350.301683 
L 871.022594 360.994221 
L 872.0153 434.294907 
L 873.008006 362.95199 
L 874.000712 358.037091 
L 874.993418 419.267419 
L 875.986123 365.146658 
L 876.978829 360.528216 
L 877.971535 387.748272 
L 878.964241 365.902024 
L 879.956947 334.255172 
L 880.949653 333.512045 
L 881.942359 352.020843 
L 882.935065 342.15538 
L 883.927771 326.496443 
L 884.920477 328.356414 
L 885.913183 345.624324 
L 887.898595 328.5218 
L 888.8913 337.519274 
L 889.884006 359.807761 
L 890.876712 340.72364 
L 891.869418 333.850754 
L 892.862124 353.895156 
L 893.85483 368.270603 
L 894.847536 341.087837 
L 895.840242 339.77973 
L 896.832948 361.267735 
L 897.825654 347.501238 
L 898.81836 331.972746 
L 899.811066 337.961122 
L 900.803772 360.420235 
L 902.789183 334.290283 
L 903.781889 343.477508 
L 904.774595 385.036801 
L 906.760007 354.015298 
L 907.752713 366.612539 
L 908.745419 433.770323 
L 909.738125 363.829547 
L 910.730831 362.506924 
L 911.723537 394.768801 
L 912.716243 401.126234 
L 913.708949 355.692511 
L 914.701655 349.827639 
L 915.69436 372.33973 
L 916.687066 429.51018 
L 917.679772 363.94723 
L 918.672478 347.367528 
L 919.665184 358.17818 
L 920.65789 422.692488 
L 921.650596 384.977314 
L 922.643302 359.255975 
L 923.636008 364.003106 
L 924.628714 410.635794 
L 925.62142 372.935231 
L 926.614126 380.032374 
L 927.606832 417.088289 
L 928.599537 375.540139 
L 929.592243 347.661795 
L 930.584949 351.383958 
L 931.577655 387.513677 
L 932.570361 363.495451 
L 933.563067 344.921315 
L 934.555773 346.168542 
L 935.548479 383.712927 
L 936.541185 377.768409 
L 937.533891 366.772774 
L 938.526597 376.976026 
L 939.519303 396.96521 
L 940.512009 359.192866 
L 941.504714 355.491719 
L 942.49742 391.604144 
L 943.490126 364.965482 
L 944.482832 345.489288 
L 945.475538 342.42422 
L 946.468244 365.08587 
L 947.46095 381.185968 
L 948.453656 361.50738 
L 949.446362 356.08285 
L 950.439068 366.687228 
L 951.431774 405.823801 
L 952.42448 389.242755 
L 953.417186 401.567747 
L 954.409891 371.515322 
L 955.402597 378.480463 
L 956.395303 373.533451 
L 957.388009 380.31079 
L 958.380715 382.406652 
L 959.373421 406.571712 
L 961.358833 350.812512 
L 962.351539 350.188615 
L 963.344245 361.598735 
L 964.336951 376.092795 
L 965.329657 348.745978 
L 966.322363 344.772615 
L 967.315068 356.765803 
L 968.307774 396.531684 
L 969.30048 379.525772 
L 970.293186 365.243308 
L 971.285892 382.439142 
L 972.278598 377.785362 
L 973.271304 376.541392 
L 974.26401 381.071433 
L 975.256716 436.601783 
L 976.249422 372.081416 
L 977.242128 366.68007 
L 978.234834 385.188496 
L 979.22754 390.877083 
L 980.220246 374.167428 
L 981.212951 376.98998 
L 982.205657 454.964708 
L 983.198363 363.638748 
L 984.191069 352.150816 
L 985.183775 360.113404 
L 986.176481 399.430745 
L 987.169187 365.82813 
L 988.161893 352.188341 
L 989.154599 362.718585 
L 990.147305 411.246878 
L 991.140011 387.109911 
L 992.132717 374.396741 
L 993.125423 406.344571 
L 994.118128 373.659845 
L 995.110834 356.648055 
L 996.10354 364.534619 
L 997.096246 395.577158 
L 998.088952 353.192871 
L 999.081658 340.122329 
L 1000.074364 347.342375 
L 1001.06707 366.849339 
L 1002.059776 345.837881 
L 1003.052482 334.535931 
L 1004.045188 341.525518 
L 1005.037894 363.99058 
L 1007.023305 340.02016 
L 1008.016011 350.097696 
L 1009.008717 394.788353 
L 1010.994129 359.647514 
L 1011.986835 384.900605 
L 1012.979541 389.241056 
L 1013.972247 356.196435 
L 1014.964953 355.383289 
L 1015.957659 379.484811 
L 1016.950365 365.56199 
L 1017.943071 344.188277 
L 1018.935777 347.953022 
L 1019.928482 374.530479 
L 1020.921188 388.759626 
L 1021.913894 356.826034 
L 1022.9066 362.996084 
L 1023.899306 404.291941 
L 1024.892012 383.527843 
L 1025.884718 373.241689 
L 1026.877424 390.003 
L 1027.87013 397.593008 
L 1028.862836 358.893207 
L 1029.855542 365.199629 
L 1030.848248 406.433007 
L 1031.840954 392.87275 
L 1032.833659 360.808945 
L 1033.826365 369.509616 
L 1034.819071 444.817473 
L 1035.811777 368.124543 
L 1036.804483 361.348558 
L 1037.797189 377.171574 
L 1038.789895 404.31154 
L 1039.782601 355.831253 
L 1040.775307 356.748244 
L 1041.768013 394.048707 
L 1042.760719 391.713904 
L 1043.753425 354.195345 
L 1044.746131 354.194826 
L 1045.738837 397.845431 
L 1047.724248 358.09703 
L 1048.716954 359.872719 
L 1049.70966 411.064624 
L 1050.702366 377.525203 
L 1051.695072 367.749858 
L 1052.687778 390.558169 
L 1053.680484 404.990288 
L 1054.67319 366.425595 
L 1055.665896 360.17773 
L 1056.658602 398.294077 
L 1057.651308 395.271299 
L 1058.644014 368.22096 
L 1059.636719 362.065852 
L 1061.622131 402.142848 
L 1062.614837 392.493769 
L 1063.607543 396.452762 
L 1064.600249 376.065873 
L 1065.592955 367.383129 
L 1066.585661 366.626085 
L 1067.578367 402.059184 
L 1068.571073 405.354136 
L 1069.563779 373.580255 
L 1070.556485 358.989981 
L 1071.549191 360.46222 
L 1072.541896 383.284252 
L 1073.534602 427.934745 
L 1074.527308 365.189 
L 1075.520014 349.368667 
L 1076.51272 355.355521 
L 1077.505426 386.206669 
L 1078.498132 388.287684 
L 1079.490838 358.2694 
L 1080.483544 360.594942 
L 1081.47625 397.760506 
L 1082.468956 394.315501 
L 1083.461662 364.817817 
L 1084.454368 368.811623 
L 1085.447073 433.475499 
L 1086.439779 378.154404 
L 1087.432485 356.443682 
L 1088.425191 358.358496 
L 1089.417897 387.70956 
L 1090.410603 413.237422 
L 1091.403309 369.598809 
L 1092.396015 361.774983 
L 1093.388721 372.722633 
L 1094.381427 395.759388 
L 1095.374133 409.792123 
L 1096.366839 391.560201 
L 1097.359545 381.600348 
L 1098.35225 368.284843 
L 1099.344956 366.711488 
L 1100.337662 395.315445 
L 1101.330368 417.715702 
L 1102.323074 364.490554 
L 1103.31578 352.62826 
L 1104.308486 367.220148 
L 1105.301192 434.804478 
L 1106.293898 371.618874 
L 1107.286604 354.973218 
L 1108.27931 366.014761 
L 1109.272016 492.48 
L 1110.264722 375.853403 
L 1111.257428 366.933158 
L 1112.250133 380.524153 
L 1113.242839 412.285296 
L 1114.235545 366.731963 
L 1115.228251 376.220804 
L 1116.220957 451.526404 
L 1117.213663 373.394233 
L 1118.206369 353.643049 
L 1119.199075 360.282155 
L 1120.191781 396.12389 
L 1121.184487 362.376543 
L 1122.177193 351.810268 
L 1123.169899 357.680928 
L 1124.162605 400.838048 
L 1125.15531 371.692992 
L 1126.148016 363.597128 
L 1127.140722 378.013189 
L 1128.133428 414.830508 
L 1129.126134 377.303388 
L 1130.11884 366.082914 
L 1131.111546 403.832073 
L 1132.104252 399.421852 
L 1134.089664 365.126487 
L 1135.08237 378.344988 
L 1137.067782 416.08377 
L 1138.060487 381.551727 
L 1139.053193 364.204338 
L 1140.045899 369.171679 
L 1141.038605 378.904372 
L 1142.031311 433.865091 
L 1143.024017 368.476134 
L 1144.016723 365.853584 
L 1145.009429 372.021586 
L 1146.002135 400.33847 
L 1146.994841 391.735835 
L 1147.987547 379.814638 
L 1148.980253 397.719546 
L 1149.972959 376.403265 
L 1150.965664 373.551218 
L 1151.95837 372.741424 
L 1152.951076 430.085331 
L 1153.943782 368.08885 
L 1154.936488 355.246972 
L 1155.929194 361.139825 
L 1156.9219 389.585524 
L 1158.907312 349.036824 
L 1159.900018 357.565452 
L 1160.892724 394.668647 
L 1161.88543 376.537121 
L 1162.878136 350.260183 
L 1163.870841 358.961191 
L 1164.863547 425.259529 
L 1165.856253 374.554879 
L 1166.848959 356.839177 
L 1167.841665 366.834306 
L 1168.834371 405.523246 
L 1169.827077 357.706777 
L 1170.819783 353.298273 
L 1171.812489 371.722097 
L 1172.805195 395.254371 
L 1173.797901 355.682496 
L 1174.790607 352.293821 
L 1175.783313 378.203543 
L 1176.776019 448.518276 
L 1177.768724 378.701146 
L 1178.76143 374.51357 
L 1179.754136 395.832866 
L 1180.746842 373.588206 
L 1181.739548 374.109162 
L 1182.732254 416.826924 
L 1183.72496 392.240523 
L 1184.717666 364.177269 
L 1185.710372 366.433693 
L 1186.703078 407.210822 
L 1187.695784 391.389967 
L 1188.68849 378.39265 
L 1189.681196 395.147048 
L 1190.673901 392.157177 
L 1191.666607 368.080609 
L 1192.659313 370.905479 
L 1193.652019 423.07747 
L 1194.644725 385.911019 
L 1195.637431 368.622498 
L 1196.630137 381.221583 
L 1197.622843 402.444244 
L 1198.615549 374.514642 
L 1199.608255 372.996744 
L 1200.600961 442.582444 
L 1201.593667 371.603247 
L 1202.586373 353.901456 
L 1203.579078 359.269899 
L 1204.571784 392.849358 
L 1205.56449 370.619828 
L 1206.557196 353.652621 
L 1207.549902 364.469707 
L 1208.542608 415.443356 
L 1209.535314 387.227727 
L 1210.52802 364.841602 
L 1211.520726 387.642599 
L 1212.513432 398.467868 
L 1213.506138 365.905906 
L 1214.498844 364.126143 
L 1215.49155 387.810428 
L 1216.484255 385.887494 
L 1217.476961 355.262777 
L 1218.469667 358.807518 
L 1219.462373 384.161654 
L 1220.455079 400.967454 
L 1221.447785 357.340898 
L 1222.440491 356.716333 
L 1224.425903 424.748299 
L 1225.418609 366.695882 
L 1226.411315 357.663514 
L 1227.404021 390.780956 
L 1228.396727 401.286784 
L 1229.389432 370.761995 
L 1230.382138 360.726237 
L 1231.374844 382.893071 
L 1232.36755 392.115446 
L 1233.360256 363.190562 
L 1234.352962 361.020944 
L 1235.345668 371.625904 
L 1236.338374 412.141472 
L 1237.33108 365.78758 
L 1238.323786 363.515899 
L 1239.316492 366.700925 
L 1240.309198 395.782488 
L 1241.301904 398.072834 
L 1242.29461 378.586834 
L 1243.287315 371.738374 
L 1244.280021 367.142597 
L 1245.272727 401.485378 
L 1245.272727 401.485378 
" clip-path="url(#p429fb79895)" style="fill: none; stroke: #1f77b4; stroke-width: 1.5; stroke-linecap: square"/>
   </g>
   <g id="patch_3">
    <path d="M 180 512.64 
L 180 69.12 
" style="fill: none; stroke: #000000; stroke-width: 0.8; stroke-linejoin: miter; stroke-linecap: square"/>
   </g>
   <g id="patch_4">
    <path d="M 1296 512.64 
L 1296 69.12 
" style="fill: none; stroke: #000000; stroke-width: 0.8; stroke-linejoin: miter; stroke-linecap: square"/>
   </g>
   <g id="patch_5">
    <path d="M 180 512.64 
L 1296 512.64 
" style="fill: none; stroke: #000000; stroke-width: 0.8; stroke-linejoin: miter; stroke-linecap: square"/>
   </g>
   <g id="patch_6">
    <path d="M 180 69.12 
L 1296 69.12 
" style="fill: none; stroke: #000000; stroke-width: 0.8; stroke-linejoin: miter; stroke-linecap: square"/>
   </g>
   <g id="text_13">
    <!-- source7-receiver6 -->
    <g transform="translate(557.625 60.80125) scale(0.4 -0.4)">
     <defs>
      <path id="DejaVuSans-73" d="M 2834 3397 
L 2834 2853 
Q 2591 2978 2328 3040 
Q 2066 3103 1784 3103 
Q 1356 3103 1142 2972 
Q 928 2841 928 2578 
Q 928 2378 1081 2264 
Q 1234 2150 1697 2047 
L 1894 2003 
Q 2506 1872 2764 1633 
Q 3022 1394 3022 966 
Q 3022 478 2636 193 
Q 2250 -91 1575 -91 
Q 1294 -91 989 -36 
Q 684 19 347 128 
L 347 722 
Q 666 556 975 473 
Q 1284 391 1588 391 
Q 1994 391 2212 530 
Q 2431 669 2431 922 
Q 2431 1156 2273 1281 
Q 2116 1406 1581 1522 
L 1381 1569 
Q 847 1681 609 1914 
Q 372 2147 372 2553 
Q 372 3047 722 3315 
Q 1072 3584 1716 3584 
Q 2034 3584 2315 3537 
Q 2597 3491 2834 3397 
z
" transform="scale(0.015625)"/>
      <path id="DejaVuSans-6f" d="M 1959 3097 
Q 1497 3097 1228 2736 
Q 959 2375 959 1747 
Q 959 1119 1226 758 
Q 1494 397 1959 397 
Q 2419 397 2687 759 
Q 2956 1122 2956 1747 
Q 2956 2369 2687 2733 
Q 2419 3097 1959 3097 
z
M 1959 3584 
Q 2709 3584 3137 3096 
Q 3566 2609 3566 1747 
Q 3566 888 3137 398 
Q 2709 -91 1959 -91 
Q 1206 -91 779 398 
Q 353 888 353 1747 
Q 353 2609 779 3096 
Q 1206 3584 1959 3584 
z
" transform="scale(0.015625)"/>
      <path id="DejaVuSans-75" d="M 544 1381 
L 544 3500 
L 1119 3500 
L 1119 1403 
Q 1119 906 1312 657 
Q 1506 409 1894 409 
Q 2359 409 2629 706 
Q 2900 1003 2900 1516 
L 2900 3500 
L 3475 3500 
L 3475 0 
L 2900 0 
L 2900 538 
Q 2691 219 2414 64 
Q 2138 -91 1772 -91 
Q 1169 -91 856 284 
Q 544 659 544 1381 
z
M 1991 3584 
L 1991 3584 
z
" transform="scale(0.015625)"/>
      <path id="DejaVuSans-72" d="M 2631 2963 
Q 2534 3019 2420 3045 
Q 2306 3072 2169 3072 
Q 1681 3072 1420 2755 
Q 1159 2438 1159 1844 
L 1159 0 
L 581 0 
L 581 3500 
L 1159 3500 
L 1159 2956 
Q 1341 3275 1631 3429 
Q 1922 3584 2338 3584 
Q 2397 3584 2469 3576 
Q 2541 3569 2628 3553 
L 2631 2963 
z
" transform="scale(0.015625)"/>
      <path id="DejaVuSans-63" d="M 3122 3366 
L 3122 2828 
Q 2878 2963 2633 3030 
Q 2388 3097 2138 3097 
Q 1578 3097 1268 2742 
Q 959 2388 959 1747 
Q 959 1106 1268 751 
Q 1578 397 2138 397 
Q 2388 397 2633 464 
Q 2878 531 3122 666 
L 3122 134 
Q 2881 22 2623 -34 
Q 2366 -91 2075 -91 
Q 1284 -91 818 406 
Q 353 903 353 1747 
Q 353 2603 823 3093 
Q 1294 3584 2113 3584 
Q 2378 3584 2631 3529 
Q 2884 3475 3122 3366 
z
" transform="scale(0.015625)"/>
      <path id="DejaVuSans-65" d="M 3597 1894 
L 3597 1613 
L 953 1613 
Q 991 1019 1311 708 
Q 1631 397 2203 397 
Q 2534 397 2845 478 
Q 3156 559 3463 722 
L 3463 178 
Q 3153 47 2828 -22 
Q 2503 -91 2169 -91 
Q 1331 -91 842 396 
Q 353 884 353 1716 
Q 353 2575 817 3079 
Q 1281 3584 2069 3584 
Q 2775 3584 3186 3129 
Q 3597 2675 3597 1894 
z
M 3022 2063 
Q 3016 2534 2758 2815 
Q 2500 3097 2075 3097 
Q 1594 3097 1305 2825 
Q 1016 2553 972 2059 
L 3022 2063 
z
" transform="scale(0.015625)"/>
      <path id="DejaVuSans-37" d="M 525 4666 
L 3525 4666 
L 3525 4397 
L 1831 0 
L 1172 0 
L 2766 4134 
L 525 4134 
L 525 4666 
z
" transform="scale(0.015625)"/>
      <path id="DejaVuSans-2d" d="M 313 2009 
L 1997 2009 
L 1997 1497 
L 313 1497 
L 313 2009 
z
" transform="scale(0.015625)"/>
      <path id="DejaVuSans-69" d="M 603 3500 
L 1178 3500 
L 1178 0 
L 603 0 
L 603 3500 
z
M 603 4863 
L 1178 4863 
L 1178 4134 
L 603 4134 
L 603 4863 
z
" transform="scale(0.015625)"/>
      <path id="DejaVuSans-76" d="M 191 3500 
L 800 3500 
L 1894 563 
L 2988 3500 
L 3597 3500 
L 2284 0 
L 1503 0 
L 191 3500 
z
" transform="scale(0.015625)"/>
     </defs>
     <use xlink:href="#DejaVuSans-73"/>
     <use xlink:href="#DejaVuSans-6f" x="52.099609"/>
     <use xlink:href="#DejaVuSans-75" x="113.28125"/>
     <use xlink:href="#DejaVuSans-72" x="176.660156"/>
     <use xlink:href="#DejaVuSans-63" x="215.523438"/>
     <use xlink:href="#DejaVuSans-65" x="270.503906"/>
     <use xlink:href="#DejaVuSans-37" x="332.027344"/>
     <use xlink:href="#DejaVuSans-2d" x="395.650391"/>
     <use xlink:href="#DejaVuSans-72" x="431.734375"/>
     <use xlink:href="#DejaVuSans-65" x="470.597656"/>
     <use xlink:href="#DejaVuSans-63" x="532.121094"/>
     <use xlink:href="#DejaVuSans-65" x="587.101562"/>
     <use xlink:href="#DejaVuSans-69" x="648.625"/>
     <use xlink:href="#DejaVuSans-76" x="676.408203"/>
     <use xlink:href="#DejaVuSans-65" x="735.587891"/>
     <use xlink:href="#DejaVuSans-72" x="797.111328"/>
     <use xlink:href="#DejaVuSans-36" x="838.224609"/>
    </g>
   </g>
  </g>
 </g>
 <defs>
  <clipPath id="p429fb79895">
   <rect x="180" y="69.12" width="1116" height="443.52"/>
  </clipPath>
 </defs>
</svg>
