<?xml version="1.0" encoding="utf-8" standalone="no"?>
<!DOCTYPE svg PUBLIC "-//W3C//DTD SVG 1.1//EN"
  "http://www.w3.org/Graphics/SVG/1.1/DTD/svg11.dtd">
<svg xmlns:xlink="http://www.w3.org/1999/xlink" width="1440pt" height="576pt" viewBox="0 0 1440 576" xmlns="http://www.w3.org/2000/svg" version="1.1">
 <metadata>
  <rdf:RDF xmlns:dc="http://purl.org/dc/elements/1.1/" xmlns:cc="http://creativecommons.org/ns#" xmlns:rdf="http://www.w3.org/1999/02/22-rdf-syntax-ns#">
   <cc:Work>
    <dc:type rdf:resource="http://purl.org/dc/dcmitype/StillImage"/>
    <dc:date>2024-05-22T04:49:51.218664</dc:date>
    <dc:format>image/svg+xml</dc:format>
    <dc:creator>
     <cc:Agent>
      <dc:title>Matplotlib v3.8.3, https://matplotlib.org/</dc:title>
     </cc:Agent>
    </dc:creator>
   </cc:Work>
  </rdf:RDF>
 </metadata>
 <defs>
  <style type="text/css">*{stroke-linejoin: round; stroke-linecap: butt}</style>
 </defs>
 <g id="figure_1">
  <g id="patch_1">
   <path d="M 0 576 
L 1440 576 
L 1440 0 
L 0 0 
z
" style="fill: #ffffff"/>
  </g>
  <g id="axes_1">
   <g id="patch_2">
    <path d="M 180 512.64 
L 1296 512.64 
L 1296 69.12 
L 180 69.12 
z
" style="fill: #ffffff"/>
   </g>
   <g id="matplotlib.axis_1">
    <g id="xtick_1">
     <g id="line2d_1">
      <defs>
       <path id="m008c9ffc16" d="M 0 0 
L 0 3.5 
" style="stroke: #000000; stroke-width: 0.8"/>
      </defs>
      <g>
       <use xlink:href="#m008c9ffc16" x="229.734567" y="512.64" style="stroke: #000000; stroke-width: 0.8"/>
      </g>
     </g>
     <g id="text_1">
      <!-- 0 -->
      <g transform="translate(226.553317 527.238438) scale(0.1 -0.1)">
       <defs>
        <path id="DejaVuSans-30" d="M 2034 4250 
Q 1547 4250 1301 3770 
Q 1056 3291 1056 2328 
Q 1056 1369 1301 889 
Q 1547 409 2034 409 
Q 2525 409 2770 889 
Q 3016 1369 3016 2328 
Q 3016 3291 2770 3770 
Q 2525 4250 2034 4250 
z
M 2034 4750 
Q 2819 4750 3233 4129 
Q 3647 3509 3647 2328 
Q 3647 1150 3233 529 
Q 2819 -91 2034 -91 
Q 1250 -91 836 529 
Q 422 1150 422 2328 
Q 422 3509 836 4129 
Q 1250 4750 2034 4750 
z
" transform="scale(0.015625)"/>
       </defs>
       <use xlink:href="#DejaVuSans-30"/>
      </g>
     </g>
    </g>
    <g id="xtick_2">
     <g id="line2d_2">
      <g>
       <use xlink:href="#m008c9ffc16" x="433.04074" y="512.64" style="stroke: #000000; stroke-width: 0.8"/>
      </g>
     </g>
     <g id="text_2">
      <!-- 500 -->
      <g transform="translate(423.49699 527.238438) scale(0.1 -0.1)">
       <defs>
        <path id="DejaVuSans-35" d="M 691 4666 
L 3169 4666 
L 3169 4134 
L 1269 4134 
L 1269 2991 
Q 1406 3038 1543 3061 
Q 1681 3084 1819 3084 
Q 2600 3084 3056 2656 
Q 3513 2228 3513 1497 
Q 3513 744 3044 326 
Q 2575 -91 1722 -91 
Q 1428 -91 1123 -41 
Q 819 9 494 109 
L 494 744 
Q 775 591 1075 516 
Q 1375 441 1709 441 
Q 2250 441 2565 725 
Q 2881 1009 2881 1497 
Q 2881 1984 2565 2268 
Q 2250 2553 1709 2553 
Q 1456 2553 1204 2497 
Q 953 2441 691 2322 
L 691 4666 
z
" transform="scale(0.015625)"/>
       </defs>
       <use xlink:href="#DejaVuSans-35"/>
       <use xlink:href="#DejaVuSans-30" x="63.623047"/>
       <use xlink:href="#DejaVuSans-30" x="127.246094"/>
      </g>
     </g>
    </g>
    <g id="xtick_3">
     <g id="line2d_3">
      <g>
       <use xlink:href="#m008c9ffc16" x="636.346913" y="512.64" style="stroke: #000000; stroke-width: 0.8"/>
      </g>
     </g>
     <g id="text_3">
      <!-- 1000 -->
      <g transform="translate(623.621913 527.238438) scale(0.1 -0.1)">
       <defs>
        <path id="DejaVuSans-31" d="M 794 531 
L 1825 531 
L 1825 4091 
L 703 3866 
L 703 4441 
L 1819 4666 
L 2450 4666 
L 2450 531 
L 3481 531 
L 3481 0 
L 794 0 
L 794 531 
z
" transform="scale(0.015625)"/>
       </defs>
       <use xlink:href="#DejaVuSans-31"/>
       <use xlink:href="#DejaVuSans-30" x="63.623047"/>
       <use xlink:href="#DejaVuSans-30" x="127.246094"/>
       <use xlink:href="#DejaVuSans-30" x="190.869141"/>
      </g>
     </g>
    </g>
    <g id="xtick_4">
     <g id="line2d_4">
      <g>
       <use xlink:href="#m008c9ffc16" x="839.653087" y="512.64" style="stroke: #000000; stroke-width: 0.8"/>
      </g>
     </g>
     <g id="text_4">
      <!-- 1500 -->
      <g transform="translate(826.928087 527.238438) scale(0.1 -0.1)">
       <use xlink:href="#DejaVuSans-31"/>
       <use xlink:href="#DejaVuSans-35" x="63.623047"/>
       <use xlink:href="#DejaVuSans-30" x="127.246094"/>
       <use xlink:href="#DejaVuSans-30" x="190.869141"/>
      </g>
     </g>
    </g>
    <g id="xtick_5">
     <g id="line2d_5">
      <g>
       <use xlink:href="#m008c9ffc16" x="1042.95926" y="512.64" style="stroke: #000000; stroke-width: 0.8"/>
      </g>
     </g>
     <g id="text_5">
      <!-- 2000 -->
      <g transform="translate(1030.23426 527.238438) scale(0.1 -0.1)">
       <defs>
        <path id="DejaVuSans-32" d="M 1228 531 
L 3431 531 
L 3431 0 
L 469 0 
L 469 531 
Q 828 903 1448 1529 
Q 2069 2156 2228 2338 
Q 2531 2678 2651 2914 
Q 2772 3150 2772 3378 
Q 2772 3750 2511 3984 
Q 2250 4219 1831 4219 
Q 1534 4219 1204 4116 
Q 875 4013 500 3803 
L 500 4441 
Q 881 4594 1212 4672 
Q 1544 4750 1819 4750 
Q 2544 4750 2975 4387 
Q 3406 4025 3406 3419 
Q 3406 3131 3298 2873 
Q 3191 2616 2906 2266 
Q 2828 2175 2409 1742 
Q 1991 1309 1228 531 
z
" transform="scale(0.015625)"/>
       </defs>
       <use xlink:href="#DejaVuSans-32"/>
       <use xlink:href="#DejaVuSans-30" x="63.623047"/>
       <use xlink:href="#DejaVuSans-30" x="127.246094"/>
       <use xlink:href="#DejaVuSans-30" x="190.869141"/>
      </g>
     </g>
    </g>
    <g id="xtick_6">
     <g id="line2d_6">
      <g>
       <use xlink:href="#m008c9ffc16" x="1246.265433" y="512.64" style="stroke: #000000; stroke-width: 0.8"/>
      </g>
     </g>
     <g id="text_6">
      <!-- 2500 -->
      <g transform="translate(1233.540433 527.238438) scale(0.1 -0.1)">
       <use xlink:href="#DejaVuSans-32"/>
       <use xlink:href="#DejaVuSans-35" x="63.623047"/>
       <use xlink:href="#DejaVuSans-30" x="127.246094"/>
       <use xlink:href="#DejaVuSans-30" x="190.869141"/>
      </g>
     </g>
    </g>
   </g>
   <g id="matplotlib.axis_2">
    <g id="ytick_1">
     <g id="line2d_7">
      <defs>
       <path id="m9e5181c827" d="M 0 0 
L -3.5 0 
" style="stroke: #000000; stroke-width: 0.8"/>
      </defs>
      <g>
       <use xlink:href="#m9e5181c827" x="180" y="443.918757" style="stroke: #000000; stroke-width: 0.8"/>
      </g>
     </g>
     <g id="text_7">
      <!-- −4 -->
      <g transform="translate(158.257812 447.717976) scale(0.1 -0.1)">
       <defs>
        <path id="DejaVuSans-2212" d="M 678 2272 
L 4684 2272 
L 4684 1741 
L 678 1741 
L 678 2272 
z
" transform="scale(0.015625)"/>
        <path id="DejaVuSans-34" d="M 2419 4116 
L 825 1625 
L 2419 1625 
L 2419 4116 
z
M 2253 4666 
L 3047 4666 
L 3047 1625 
L 3713 1625 
L 3713 1100 
L 3047 1100 
L 3047 0 
L 2419 0 
L 2419 1100 
L 313 1100 
L 313 1709 
L 2253 4666 
z
" transform="scale(0.015625)"/>
       </defs>
       <use xlink:href="#DejaVuSans-2212"/>
       <use xlink:href="#DejaVuSans-34" x="83.789062"/>
      </g>
     </g>
    </g>
    <g id="ytick_2">
     <g id="line2d_8">
      <g>
       <use xlink:href="#m9e5181c827" x="180" y="357.073127" style="stroke: #000000; stroke-width: 0.8"/>
      </g>
     </g>
     <g id="text_8">
      <!-- −2 -->
      <g transform="translate(158.257812 360.872346) scale(0.1 -0.1)">
       <use xlink:href="#DejaVuSans-2212"/>
       <use xlink:href="#DejaVuSans-32" x="83.789062"/>
      </g>
     </g>
    </g>
    <g id="ytick_3">
     <g id="line2d_9">
      <g>
       <use xlink:href="#m9e5181c827" x="180" y="270.227497" style="stroke: #000000; stroke-width: 0.8"/>
      </g>
     </g>
     <g id="text_9">
      <!-- 0 -->
      <g transform="translate(166.6375 274.026716) scale(0.1 -0.1)">
       <use xlink:href="#DejaVuSans-30"/>
      </g>
     </g>
    </g>
    <g id="ytick_4">
     <g id="line2d_10">
      <g>
       <use xlink:href="#m9e5181c827" x="180" y="183.381867" style="stroke: #000000; stroke-width: 0.8"/>
      </g>
     </g>
     <g id="text_10">
      <!-- 2 -->
      <g transform="translate(166.6375 187.181086) scale(0.1 -0.1)">
       <use xlink:href="#DejaVuSans-32"/>
      </g>
     </g>
    </g>
    <g id="ytick_5">
     <g id="line2d_11">
      <g>
       <use xlink:href="#m9e5181c827" x="180" y="96.536237" style="stroke: #000000; stroke-width: 0.8"/>
      </g>
     </g>
     <g id="text_11">
      <!-- 4 -->
      <g transform="translate(166.6375 100.335456) scale(0.1 -0.1)">
       <use xlink:href="#DejaVuSans-34"/>
      </g>
     </g>
    </g>
   </g>
   <g id="line2d_12">
    <path d="M 230.727273 203.145782 
L 231.719979 202.787908 
L 232.712685 202.251611 
L 235.690802 199.619687 
L 238.66892 196.844509 
L 241.647038 194.383352 
L 242.639744 193.738701 
L 243.63245 193.416655 
L 244.625156 193.729334 
L 246.610568 196.138371 
L 247.603273 193.016488 
L 248.595979 180.938492 
L 249.588685 164.991633 
L 250.581391 151.915232 
L 251.574097 143.397637 
L 252.566803 138.485827 
L 253.559509 135.840211 
L 254.552215 134.431561 
L 255.544921 133.718558 
L 256.537627 133.351522 
L 260.50845 132.523918 
L 261.501156 132.091465 
L 262.493862 131.505853 
L 263.486568 130.74972 
L 265.47198 128.822362 
L 270.43551 123.400697 
L 271.428216 122.604385 
L 272.420922 122.026511 
L 273.413627 121.719173 
L 274.406333 121.724147 
L 275.399039 122.093126 
L 276.391745 122.852274 
L 278.377157 124.891395 
L 279.369863 125.277913 
L 280.362569 124.620303 
L 281.355275 122.677374 
L 282.347981 119.42234 
L 283.340687 115.076908 
L 286.318804 99.774942 
L 287.31151 95.54856 
L 288.304216 92.304635 
L 289.296922 90.211806 
L 290.289628 89.28 
L 291.282334 89.436533 
L 292.27504 90.49866 
L 293.267746 92.234712 
L 294.260452 94.453023 
L 296.245864 99.933462 
L 298.231276 106.470571 
L 300.216687 113.848624 
L 307.165629 140.992752 
L 308.158335 143.967339 
L 309.151041 146.46186 
L 310.143747 148.521692 
L 311.136453 150.244691 
L 313.121864 153.097565 
L 315.107276 155.995284 
L 316.099982 157.756313 
L 317.092688 159.809422 
L 318.085394 162.24809 
L 319.0781 165.136718 
L 320.070806 168.529924 
L 322.056218 176.753694 
L 324.04163 185.711357 
L 325.034336 189.244183 
L 326.027041 191.063031 
L 327.019747 190.578585 
L 328.012453 188.007178 
L 329.005159 184.111395 
L 330.990571 175.288471 
L 332.975983 167.755071 
L 333.968689 164.742674 
L 334.961395 162.235833 
L 335.954101 160.210618 
L 336.946807 158.654292 
L 337.939513 157.556147 
L 338.932218 156.838224 
L 339.924924 156.515248 
L 340.91763 156.550701 
L 341.910336 156.911553 
L 342.903042 157.57025 
L 343.895748 158.48208 
L 345.88116 160.84999 
L 348.859278 164.565413 
L 349.851984 165.459678 
L 350.84469 166.099324 
L 351.837395 166.310426 
L 352.830101 166.262042 
L 353.822807 165.81468 
L 354.815513 165.16125 
L 357.793631 162.661547 
L 358.786337 161.975137 
L 359.779043 161.446044 
L 360.771749 161.183754 
L 361.764455 161.174809 
L 362.757161 161.500337 
L 363.749867 162.166193 
L 364.742572 163.206105 
L 365.735278 164.628599 
L 366.727984 166.457527 
L 367.72069 168.754763 
L 368.713396 171.547987 
L 369.706102 174.866886 
L 370.698808 178.837744 
L 371.691514 183.484504 
L 372.68422 188.819464 
L 373.676926 195.084147 
L 375.662338 210.076844 
L 376.655044 218.030527 
L 377.64775 224.440145 
L 378.640455 226.7074 
L 379.633161 223.791216 
L 381.618573 211.068036 
L 382.611279 204.828913 
L 383.603985 199.402297 
L 384.596691 194.826351 
L 385.589397 191.064533 
L 386.582103 187.969877 
L 387.574809 185.485208 
L 388.567515 183.517362 
L 389.560221 182.056153 
L 390.552927 180.961095 
L 391.545632 180.198121 
L 392.538338 179.776956 
L 393.531044 179.630295 
L 394.52375 179.656877 
L 395.516456 179.82429 
L 397.501868 180.574482 
L 402.465398 182.725698 
L 408.421633 184.883559 
L 410.407045 186.157068 
L 411.399751 187.032576 
L 412.392457 188.061268 
L 414.377869 190.736922 
L 416.363281 194.363266 
L 418.348692 198.905946 
L 420.334104 204.473739 
L 422.319516 211.019693 
L 425.297634 221.940608 
L 427.283046 229.372125 
L 428.275752 232.745292 
L 429.268458 235.616172 
L 430.261163 237.926173 
L 431.253869 239.53757 
L 432.246575 240.075345 
L 433.239281 240.057766 
L 434.231987 239.036355 
L 435.224693 237.503915 
L 436.217399 235.424991 
L 438.202811 230.026528 
L 443.166341 215.537104 
L 445.151752 210.490077 
L 447.137164 206.205869 
L 449.122576 202.916433 
L 450.115282 201.615696 
L 451.107988 200.553605 
L 452.100694 199.746384 
L 453.0934 199.153929 
L 454.086106 198.79495 
L 455.078812 198.772675 
L 456.071518 198.901905 
L 457.064223 199.265568 
L 458.056929 199.888299 
L 459.049635 200.748615 
L 460.042341 201.859985 
L 461.035047 203.220209 
L 462.027753 204.776506 
L 463.020459 206.581284 
L 465.005871 210.916741 
L 466.991283 216.31188 
L 468.976695 222.961367 
L 469.9694 226.823982 
L 470.962106 231.1397 
L 471.954812 235.968082 
L 472.947518 241.439217 
L 473.940224 247.735873 
L 474.93293 255.397773 
L 475.925636 263.929894 
L 476.918342 274.406606 
L 478.903754 297.876443 
L 479.89646 300.108637 
L 480.889166 289.837312 
L 482.874577 266.412558 
L 483.867283 257.013226 
L 484.859989 249.421195 
L 485.852695 242.851544 
L 486.845401 237.425759 
L 487.838107 232.781656 
L 488.830813 228.837694 
L 489.823519 225.552306 
L 490.816225 222.701997 
L 491.808931 220.409373 
L 492.801637 218.554853 
L 493.794343 217.10265 
L 494.787049 216.099127 
L 495.779754 215.431756 
L 496.77246 215.137997 
L 497.765166 215.187051 
L 498.757872 215.668002 
L 499.750578 216.552464 
L 500.743284 217.670974 
L 501.73599 219.283256 
L 502.728696 221.290899 
L 503.721402 223.705254 
L 504.714108 226.528614 
L 505.706814 229.754737 
L 507.692226 237.604894 
L 509.677637 246.880884 
L 511.663049 256.869226 
L 512.655755 260.911625 
L 513.648461 263.626172 
L 514.641167 264.97644 
L 515.633873 264.301948 
L 516.626579 262.319629 
L 517.619285 259.715193 
L 519.604697 254.060149 
L 520.597403 251.53725 
L 521.590109 249.319152 
L 523.57552 246.012076 
L 524.568226 244.853644 
L 526.553638 243.087924 
L 528.53905 242.23175 
L 529.531756 241.844612 
L 532.509874 241.112166 
L 534.495286 240.936944 
L 536.480697 241.210408 
L 538.466109 242.29086 
L 539.458815 243.308039 
L 540.451521 244.643762 
L 541.444227 246.40681 
L 542.436933 248.657918 
L 543.429639 251.543289 
L 544.422345 255.221932 
L 545.415051 259.852639 
L 546.407757 265.567394 
L 547.400463 272.788088 
L 548.393168 281.882478 
L 550.37858 303.226427 
L 551.371286 306.789597 
L 552.363992 298.378159 
L 554.349404 274.050842 
L 555.34211 264.25371 
L 556.334816 255.990235 
L 557.327522 249.207338 
L 558.320228 243.524943 
L 559.312934 238.68663 
L 560.30564 234.524267 
L 561.298345 231.129026 
L 562.291051 228.332601 
L 563.283757 226.021939 
L 564.276463 224.114912 
L 565.269169 222.638661 
L 566.261875 221.584163 
L 567.254581 220.909171 
L 568.247287 220.5721 
L 569.239993 220.617157 
L 570.232699 221.052334 
L 571.225405 221.833611 
L 572.218111 222.912584 
L 573.210817 224.349976 
L 574.203523 226.092817 
L 575.196228 228.20545 
L 576.188934 230.708839 
L 577.18164 233.609949 
L 579.167052 240.550826 
L 581.152464 249.262505 
L 582.14517 254.302839 
L 584.130582 266.213705 
L 585.123288 273.14007 
L 587.1087 289.403558 
L 588.101405 299.016471 
L 591.079523 330.576099 
L 592.072229 337.860564 
L 593.064935 337.359343 
L 594.057641 330.95021 
L 595.050347 322.795964 
L 596.043053 315.699948 
L 597.035759 307.697364 
L 599.021171 294.860192 
L 601.006582 283.534562 
L 601.999288 278.575109 
L 603.9847 269.917434 
L 605.970112 263.117181 
L 607.955524 257.625325 
L 608.94823 255.459712 
L 609.940936 253.75526 
L 610.933642 252.283574 
L 611.926348 251.113223 
L 612.919054 250.398197 
L 613.911759 250.020071 
L 614.904465 249.89136 
L 615.897171 250.186261 
L 616.889877 250.810953 
L 617.882583 251.78789 
L 618.875289 252.98054 
L 619.867995 254.682752 
L 620.860701 256.613783 
L 621.853407 259.030767 
L 622.846113 261.76264 
L 623.838819 264.888697 
L 625.824231 272.499713 
L 627.809642 282.142032 
L 628.802348 287.428732 
L 630.78776 300.708179 
L 631.780466 308.712528 
L 633.765878 327.673896 
L 634.758584 338.635065 
L 636.743996 364.428353 
L 637.736702 373.799533 
L 638.729408 374.803623 
L 639.722114 368.637327 
L 640.714819 361.004126 
L 642.700231 347.574838 
L 645.678349 331.781587 
L 646.671055 327.574814 
L 647.663761 322.46444 
L 649.649173 314.694382 
L 650.641879 311.234995 
L 651.634585 308.310078 
L 652.627291 305.79315 
L 653.619996 302.947416 
L 654.612702 301.320964 
L 655.605408 299.92031 
L 656.598114 298.830531 
L 657.59082 298.054698 
L 658.583526 297.765861 
L 660.568938 298.560663 
L 661.561644 299.502524 
L 663.547056 302.475247 
L 665.532468 306.51953 
L 667.517879 311.725962 
L 669.503291 316.563508 
L 670.495997 318.409019 
L 671.488703 319.107123 
L 672.481409 319.27632 
L 673.474115 318.349562 
L 674.466821 317.076412 
L 675.459527 315.373242 
L 676.452233 313.277101 
L 678.437645 309.821129 
L 680.423056 307.076161 
L 681.415762 306.229576 
L 682.408468 305.766483 
L 683.401174 305.753427 
L 684.39388 305.918903 
L 685.386586 306.792085 
L 686.379292 308.093899 
L 687.371998 309.68871 
L 689.35741 314.338008 
L 690.350116 317.488907 
L 692.335527 325.215273 
L 693.328233 330.447642 
L 695.313645 342.797465 
L 698.291763 365.369223 
L 699.284469 371.086797 
L 700.277175 372.13404 
L 701.269881 367.71273 
L 702.262587 362.344261 
L 703.255293 355.824294 
L 704.247999 351.118512 
L 705.240705 345.585196 
L 707.226116 337.958533 
L 709.211528 333.273373 
L 710.204234 331.796175 
L 711.19694 330.879813 
L 712.189646 330.461624 
L 713.182352 330.273703 
L 714.175058 330.881111 
L 715.167764 332.081407 
L 716.16047 333.777657 
L 717.153176 335.828996 
L 718.145882 338.830943 
L 719.138587 341.442181 
L 720.131293 345.417513 
L 722.116705 354.002224 
L 723.109411 358.225652 
L 724.102117 360.478058 
L 725.094823 362.079386 
L 726.087529 359.071646 
L 728.072941 348.581896 
L 729.065647 342.562433 
L 731.051059 332.191016 
L 732.043764 327.736008 
L 733.03647 323.933699 
L 734.029176 320.715598 
L 736.014588 315.774613 
L 738 312.962301 
L 738.992706 312.252472 
L 739.985412 311.931201 
L 740.978118 312.117141 
L 741.970824 312.875741 
L 742.96353 314.109299 
L 743.956236 315.961195 
L 744.948941 318.480114 
L 745.941647 321.527578 
L 746.934353 325.25912 
L 747.927059 329.802105 
L 748.919765 335.422895 
L 749.912471 342.021615 
L 752.890589 366.560676 
L 753.883295 370.578584 
L 754.876001 367.397463 
L 757.854118 342.563884 
L 758.846824 336.051507 
L 759.83953 330.561983 
L 760.832236 326.04569 
L 761.824942 322.25461 
L 762.817648 319.413711 
L 763.810354 317.090598 
L 764.80306 315.585641 
L 765.795766 314.426916 
L 766.788472 313.701948 
L 767.781178 313.769381 
L 768.773884 314.337354 
L 769.76659 315.051886 
L 770.759295 316.405091 
L 771.752001 318.368756 
L 773.737413 323.167889 
L 778.700943 339.821883 
L 779.693649 342.05382 
L 780.686355 343.572033 
L 781.679061 343.752189 
L 783.664473 341.457176 
L 785.649884 337.726601 
L 786.64259 336.084762 
L 787.635296 334.69767 
L 788.628002 333.946754 
L 789.620708 333.615869 
L 790.613414 333.861563 
L 791.60612 334.398272 
L 792.598826 335.563855 
L 793.591532 337.66082 
L 794.584238 340.075442 
L 795.576944 342.894473 
L 798.555061 354.524655 
L 799.547767 357.848065 
L 800.540473 359.953741 
L 801.533179 359.410057 
L 802.525885 356.215166 
L 806.496709 336.695519 
L 808.482121 329.217199 
L 809.474827 326.011194 
L 810.467532 323.491462 
L 811.460238 321.741656 
L 812.452944 320.247252 
L 813.44565 319.292497 
L 814.438356 319.068692 
L 815.431062 319.120404 
L 816.423768 319.777206 
L 817.416474 320.708037 
L 818.40918 322.338772 
L 819.401886 324.461077 
L 820.394592 327.250891 
L 821.387298 330.599558 
L 822.380004 334.707344 
L 823.372709 339.42298 
L 824.365415 344.883544 
L 827.343533 364.517905 
L 828.336239 368.886173 
L 829.328945 369.748256 
L 830.321651 365.627256 
L 831.314357 360.262157 
L 832.307063 353.450467 
L 834.292475 342.404697 
L 836.277886 334.350799 
L 837.270592 331.253679 
L 838.263298 329.034654 
L 839.256004 327.095154 
L 840.24871 325.827589 
L 841.241416 324.939588 
L 842.234122 324.687397 
L 843.226828 324.659887 
L 844.219534 325.064961 
L 845.21224 326.219196 
L 846.204946 327.668276 
L 847.197652 329.448272 
L 849.183064 334.455693 
L 850.175769 337.547017 
L 852.161181 344.915231 
L 853.153887 348.914521 
L 855.139299 357.503309 
L 856.132005 361.611662 
L 857.124711 364.276508 
L 858.117417 366.555579 
L 859.110123 366.857265 
L 860.102829 366.585738 
L 861.095535 365.339884 
L 863.080946 361.579232 
L 865.066358 357.814291 
L 866.059064 356.350417 
L 867.05177 355.262357 
L 868.044476 354.505399 
L 869.037182 353.185611 
L 870.029888 352.504431 
L 872.0153 351.704951 
L 873.008006 350.762412 
L 874.000712 349.991207 
L 874.993418 349.388326 
L 875.986123 347.900326 
L 877.971535 345.606712 
L 878.964241 344.199564 
L 879.956947 343.023705 
L 880.949653 341.451674 
L 881.942359 340.418164 
L 882.935065 339.635193 
L 883.927771 338.995348 
L 885.913183 338.729007 
L 886.905889 339.085752 
L 887.898595 339.88052 
L 888.8913 341.316781 
L 889.884006 343.197367 
L 890.876712 345.864696 
L 891.869418 348.871864 
L 892.862124 352.960865 
L 893.85483 358.006941 
L 894.847536 364.320907 
L 895.840242 372.641129 
L 896.832948 383.937385 
L 897.825654 396.937317 
L 898.81836 417.153944 
L 899.811066 425.224237 
L 900.803772 410.215111 
L 901.796477 391.945881 
L 902.789183 377.979958 
L 903.781889 367.208822 
L 904.774595 358.458192 
L 905.767301 351.528247 
L 906.760007 346.271862 
L 907.752713 341.620595 
L 908.745419 337.609763 
L 909.738125 334.450148 
L 910.730831 332.178146 
L 911.723537 330.308687 
L 912.716243 328.868993 
L 913.708949 327.96057 
L 914.701655 327.694265 
L 915.69436 327.815524 
L 916.687066 328.341542 
L 917.679772 329.607613 
L 918.672478 331.256198 
L 920.65789 336.061588 
L 921.650596 339.803734 
L 922.643302 344.093702 
L 923.636008 349.342525 
L 924.628714 355.778802 
L 925.62142 364.185596 
L 926.614126 375.025416 
L 927.606832 390.330592 
L 928.599537 412.45029 
L 929.592243 456.470499 
L 930.584949 445.007935 
L 931.577655 406.47366 
L 932.570361 387.504558 
L 933.563067 374.278624 
L 934.555773 365.044506 
L 935.548479 357.454621 
L 936.541185 352.091875 
L 937.533891 347.704484 
L 938.526597 343.95106 
L 940.512009 339.246572 
L 941.504714 337.804873 
L 942.49742 336.844486 
L 943.490126 336.679272 
L 944.482832 336.866371 
L 945.475538 337.591173 
L 946.468244 338.957442 
L 947.46095 340.702097 
L 948.453656 343.121515 
L 949.446362 345.994147 
L 950.439068 349.667475 
L 951.431774 353.888211 
L 952.42448 358.995049 
L 953.417186 364.827638 
L 955.402597 381.534343 
L 956.395303 391.907561 
L 957.388009 407.533812 
L 958.380715 420.842877 
L 959.373421 425.86742 
L 960.366127 417.135227 
L 961.358833 404.528502 
L 962.351539 394.062705 
L 964.336951 378.775909 
L 965.329657 373.887226 
L 966.322363 369.938013 
L 967.315068 367.124243 
L 969.30048 363.062048 
L 970.293186 362.428958 
L 971.285892 361.103696 
L 972.278598 361.220419 
L 973.271304 361.70579 
L 974.26401 361.892722 
L 975.256716 363.139083 
L 977.242128 365.195586 
L 978.234834 366.083414 
L 979.22754 367.553878 
L 981.212951 368.787355 
L 982.205657 369.225944 
L 983.198363 369.436273 
L 985.183775 368.999251 
L 986.176481 368.776267 
L 989.154599 368.782603 
L 991.140011 370.183126 
L 992.132717 372.097259 
L 994.118128 376.942149 
L 995.110834 380.422318 
L 996.10354 384.510301 
L 998.088952 395.305103 
L 1000.074364 411.823364 
L 1001.06707 421.177869 
L 1002.059776 425.497519 
L 1003.052482 421.264007 
L 1005.037894 403.580372 
L 1006.0306 394.160769 
L 1007.023305 386.420147 
L 1009.008717 374.878308 
L 1010.994129 367.57341 
L 1011.986835 364.887575 
L 1012.979541 362.525368 
L 1013.972247 360.582702 
L 1014.964953 359.760927 
L 1015.957659 359.154944 
L 1016.950365 358.758993 
L 1017.943071 359.724853 
L 1018.935777 360.473832 
L 1019.928482 362.126536 
L 1020.921188 364.176773 
L 1021.913894 367.183895 
L 1022.9066 369.754503 
L 1023.899306 373.428843 
L 1025.884718 384.398269 
L 1027.87013 401.881563 
L 1028.862836 415.197522 
L 1029.855542 431.822884 
L 1031.840954 492.48 
L 1032.833659 450.855397 
L 1033.826365 430.23262 
L 1034.819071 412.878401 
L 1035.811777 403.576642 
L 1036.804483 395.819515 
L 1037.797189 389.615063 
L 1039.782601 381.437216 
L 1040.775307 378.726194 
L 1042.760719 375.20182 
L 1043.753425 375.417567 
L 1044.746131 374.338803 
L 1045.738837 375.415252 
L 1046.731542 376.062534 
L 1047.724248 377.211338 
L 1048.716954 379.362791 
L 1051.695072 387.503497 
L 1052.687778 391.572179 
L 1053.680484 394.597788 
L 1054.67319 398.1157 
L 1055.665896 400.19757 
L 1056.658602 404.519559 
L 1057.651308 406.58799 
L 1059.636719 406.988675 
L 1060.629425 406.261171 
L 1063.607543 402.675359 
L 1064.600249 403.479633 
L 1065.592955 403.459271 
L 1067.578367 406.926062 
L 1068.571073 409.184099 
L 1069.563779 411.728058 
L 1070.556485 416.191011 
L 1072.541896 428.869217 
L 1073.534602 436.155055 
L 1074.527308 446.565179 
L 1075.520014 448.285317 
L 1076.51272 441.862956 
L 1078.498132 420.44668 
L 1081.47625 398.305897 
L 1082.468956 392.526623 
L 1084.454368 384.275337 
L 1085.447073 381.029695 
L 1087.432485 376.597685 
L 1088.425191 375.413633 
L 1089.417897 374.522772 
L 1090.410603 373.813627 
L 1091.403309 373.932178 
L 1093.388721 375.113704 
L 1094.381427 376.900592 
L 1096.366839 381.848513 
L 1097.359545 384.935609 
L 1098.35225 388.867571 
L 1102.323074 408.473036 
L 1103.31578 413.575108 
L 1104.308486 414.728629 
L 1105.301192 413.533284 
L 1106.293898 408.736758 
L 1109.272016 392.595506 
L 1111.257428 383.829203 
L 1113.242839 377.929884 
L 1114.235545 375.797942 
L 1117.213663 371.489357 
L 1118.206369 371.577339 
L 1119.199075 371.776897 
L 1120.191781 372.199267 
L 1122.177193 374.800804 
L 1123.169899 376.393486 
L 1124.162605 378.707435 
L 1125.15531 381.526835 
L 1126.148016 383.803546 
L 1128.133428 392.553863 
L 1129.126134 396.851351 
L 1130.11884 402.12703 
L 1131.111546 408.719542 
L 1133.096958 418.221853 
L 1134.089664 421.074813 
L 1135.08237 421.467128 
L 1136.075076 420.168414 
L 1138.060487 414.245353 
L 1140.045899 406.124852 
L 1141.038605 403.539102 
L 1142.031311 401.928112 
L 1143.024017 399.330272 
L 1144.016723 398.584032 
L 1145.009429 397.520536 
L 1146.002135 397.298333 
L 1146.994841 396.492327 
L 1148.980253 398.572651 
L 1149.972959 399.420378 
L 1153.943782 408.615552 
L 1154.936488 412.84352 
L 1156.9219 420.151024 
L 1157.914606 423.205021 
L 1158.907312 427.236279 
L 1159.900018 431.878347 
L 1160.892724 435.956682 
L 1161.88543 438.102294 
L 1162.878136 443.191619 
L 1163.870841 445.59733 
L 1164.863547 448.633964 
L 1165.856253 449.44901 
L 1166.848959 451.625335 
L 1167.841665 456.987913 
L 1168.834371 460.636521 
L 1170.819783 474.91435 
L 1171.812489 486.85646 
L 1172.805195 487.157188 
L 1173.797901 485.492806 
L 1174.790607 473.690056 
L 1175.783313 465.088432 
L 1176.776019 452.654309 
L 1177.768724 445.455444 
L 1178.76143 435.184961 
L 1179.754136 429.433106 
L 1180.746842 422.752854 
L 1181.739548 419.77661 
L 1182.732254 414.296826 
L 1184.717666 408.399771 
L 1185.710372 405.892537 
L 1186.703078 403.860605 
L 1187.695784 402.574036 
L 1189.681196 400.578574 
L 1190.673901 400.166154 
L 1191.666607 398.972063 
L 1192.659313 400.039747 
L 1193.652019 399.761425 
L 1194.644725 399.320256 
L 1195.637431 401.887419 
L 1196.630137 402.868964 
L 1197.622843 404.076079 
L 1198.615549 406.397126 
L 1199.608255 407.796501 
L 1200.600961 409.749733 
L 1201.593667 410.896949 
L 1203.579078 413.778265 
L 1204.571784 414.086279 
L 1205.56449 415.005347 
L 1206.557196 413.992443 
L 1208.542608 413.017529 
L 1209.535314 411.938791 
L 1210.52802 410.498409 
L 1211.520726 409.337681 
L 1212.513432 407.437873 
L 1213.506138 407.222402 
L 1214.498844 405.465624 
L 1215.49155 404.822225 
L 1216.484255 405.697509 
L 1217.476961 404.951702 
L 1218.469667 405.781886 
L 1219.462373 405.500056 
L 1221.447785 407.091087 
L 1222.440491 409.222504 
L 1223.433197 410.185862 
L 1224.425903 412.291015 
L 1228.396727 424.884278 
L 1229.389432 429.348574 
L 1231.374844 440.467136 
L 1232.36755 444.863812 
L 1233.360256 450.573468 
L 1234.352962 458.749463 
L 1235.345668 463.630971 
L 1236.338374 465.937792 
L 1237.33108 470.461345 
L 1238.323786 472.061846 
L 1239.316492 464.670741 
L 1240.309198 464.478007 
L 1242.29461 458.104782 
L 1243.287315 455.62739 
L 1244.280021 453.635972 
L 1245.272727 453.339744 
L 1245.272727 453.339744 
" clip-path="url(#pc3380a9008)" style="fill: none; stroke: #1f77b4; stroke-width: 1.5; stroke-linecap: square"/>
   </g>
   <g id="patch_3">
    <path d="M 180 512.64 
L 180 69.12 
" style="fill: none; stroke: #000000; stroke-width: 0.8; stroke-linejoin: miter; stroke-linecap: square"/>
   </g>
   <g id="patch_4">
    <path d="M 1296 512.64 
L 1296 69.12 
" style="fill: none; stroke: #000000; stroke-width: 0.8; stroke-linejoin: miter; stroke-linecap: square"/>
   </g>
   <g id="patch_5">
    <path d="M 180 512.64 
L 1296 512.64 
" style="fill: none; stroke: #000000; stroke-width: 0.8; stroke-linejoin: miter; stroke-linecap: square"/>
   </g>
   <g id="patch_6">
    <path d="M 180 69.12 
L 1296 69.12 
" style="fill: none; stroke: #000000; stroke-width: 0.8; stroke-linejoin: miter; stroke-linecap: square"/>
   </g>
   <g id="text_12">
    <!-- source7-receiver7 -->
    <g transform="translate(557.625 60.80125) scale(0.4 -0.4)">
     <defs>
      <path id="DejaVuSans-73" d="M 2834 3397 
L 2834 2853 
Q 2591 2978 2328 3040 
Q 2066 3103 1784 3103 
Q 1356 3103 1142 2972 
Q 928 2841 928 2578 
Q 928 2378 1081 2264 
Q 1234 2150 1697 2047 
L 1894 2003 
Q 2506 1872 2764 1633 
Q 3022 1394 3022 966 
Q 3022 478 2636 193 
Q 2250 -91 1575 -91 
Q 1294 -91 989 -36 
Q 684 19 347 128 
L 347 722 
Q 666 556 975 473 
Q 1284 391 1588 391 
Q 1994 391 2212 530 
Q 2431 669 2431 922 
Q 2431 1156 2273 1281 
Q 2116 1406 1581 1522 
L 1381 1569 
Q 847 1681 609 1914 
Q 372 2147 372 2553 
Q 372 3047 722 3315 
Q 1072 3584 1716 3584 
Q 2034 3584 2315 3537 
Q 2597 3491 2834 3397 
z
" transform="scale(0.015625)"/>
      <path id="DejaVuSans-6f" d="M 1959 3097 
Q 1497 3097 1228 2736 
Q 959 2375 959 1747 
Q 959 1119 1226 758 
Q 1494 397 1959 397 
Q 2419 397 2687 759 
Q 2956 1122 2956 1747 
Q 2956 2369 2687 2733 
Q 2419 3097 1959 3097 
z
M 1959 3584 
Q 2709 3584 3137 3096 
Q 3566 2609 3566 1747 
Q 3566 888 3137 398 
Q 2709 -91 1959 -91 
Q 1206 -91 779 398 
Q 353 888 353 1747 
Q 353 2609 779 3096 
Q 1206 3584 1959 3584 
z
" transform="scale(0.015625)"/>
      <path id="DejaVuSans-75" d="M 544 1381 
L 544 3500 
L 1119 3500 
L 1119 1403 
Q 1119 906 1312 657 
Q 1506 409 1894 409 
Q 2359 409 2629 706 
Q 2900 1003 2900 1516 
L 2900 3500 
L 3475 3500 
L 3475 0 
L 2900 0 
L 2900 538 
Q 2691 219 2414 64 
Q 2138 -91 1772 -91 
Q 1169 -91 856 284 
Q 544 659 544 1381 
z
M 1991 3584 
L 1991 3584 
z
" transform="scale(0.015625)"/>
      <path id="DejaVuSans-72" d="M 2631 2963 
Q 2534 3019 2420 3045 
Q 2306 3072 2169 3072 
Q 1681 3072 1420 2755 
Q 1159 2438 1159 1844 
L 1159 0 
L 581 0 
L 581 3500 
L 1159 3500 
L 1159 2956 
Q 1341 3275 1631 3429 
Q 1922 3584 2338 3584 
Q 2397 3584 2469 3576 
Q 2541 3569 2628 3553 
L 2631 2963 
z
" transform="scale(0.015625)"/>
      <path id="DejaVuSans-63" d="M 3122 3366 
L 3122 2828 
Q 2878 2963 2633 3030 
Q 2388 3097 2138 3097 
Q 1578 3097 1268 2742 
Q 959 2388 959 1747 
Q 959 1106 1268 751 
Q 1578 397 2138 397 
Q 2388 397 2633 464 
Q 2878 531 3122 666 
L 3122 134 
Q 2881 22 2623 -34 
Q 2366 -91 2075 -91 
Q 1284 -91 818 406 
Q 353 903 353 1747 
Q 353 2603 823 3093 
Q 1294 3584 2113 3584 
Q 2378 3584 2631 3529 
Q 2884 3475 3122 3366 
z
" transform="scale(0.015625)"/>
      <path id="DejaVuSans-65" d="M 3597 1894 
L 3597 1613 
L 953 1613 
Q 991 1019 1311 708 
Q 1631 397 2203 397 
Q 2534 397 2845 478 
Q 3156 559 3463 722 
L 3463 178 
Q 3153 47 2828 -22 
Q 2503 -91 2169 -91 
Q 1331 -91 842 396 
Q 353 884 353 1716 
Q 353 2575 817 3079 
Q 1281 3584 2069 3584 
Q 2775 3584 3186 3129 
Q 3597 2675 3597 1894 
z
M 3022 2063 
Q 3016 2534 2758 2815 
Q 2500 3097 2075 3097 
Q 1594 3097 1305 2825 
Q 1016 2553 972 2059 
L 3022 2063 
z
" transform="scale(0.015625)"/>
      <path id="DejaVuSans-37" d="M 525 4666 
L 3525 4666 
L 3525 4397 
L 1831 0 
L 1172 0 
L 2766 4134 
L 525 4134 
L 525 4666 
z
" transform="scale(0.015625)"/>
      <path id="DejaVuSans-2d" d="M 313 2009 
L 1997 2009 
L 1997 1497 
L 313 1497 
L 313 2009 
z
" transform="scale(0.015625)"/>
      <path id="DejaVuSans-69" d="M 603 3500 
L 1178 3500 
L 1178 0 
L 603 0 
L 603 3500 
z
M 603 4863 
L 1178 4863 
L 1178 4134 
L 603 4134 
L 603 4863 
z
" transform="scale(0.015625)"/>
      <path id="DejaVuSans-76" d="M 191 3500 
L 800 3500 
L 1894 563 
L 2988 3500 
L 3597 3500 
L 2284 0 
L 1503 0 
L 191 3500 
z
" transform="scale(0.015625)"/>
     </defs>
     <use xlink:href="#DejaVuSans-73"/>
     <use xlink:href="#DejaVuSans-6f" x="52.099609"/>
     <use xlink:href="#DejaVuSans-75" x="113.28125"/>
     <use xlink:href="#DejaVuSans-72" x="176.660156"/>
     <use xlink:href="#DejaVuSans-63" x="215.523438"/>
     <use xlink:href="#DejaVuSans-65" x="270.503906"/>
     <use xlink:href="#DejaVuSans-37" x="332.027344"/>
     <use xlink:href="#DejaVuSans-2d" x="395.650391"/>
     <use xlink:href="#DejaVuSans-72" x="431.734375"/>
     <use xlink:href="#DejaVuSans-65" x="470.597656"/>
     <use xlink:href="#DejaVuSans-63" x="532.121094"/>
     <use xlink:href="#DejaVuSans-65" x="587.101562"/>
     <use xlink:href="#DejaVuSans-69" x="648.625"/>
     <use xlink:href="#DejaVuSans-76" x="676.408203"/>
     <use xlink:href="#DejaVuSans-65" x="735.587891"/>
     <use xlink:href="#DejaVuSans-72" x="797.111328"/>
     <use xlink:href="#DejaVuSans-37" x="838.224609"/>
    </g>
   </g>
  </g>
 </g>
 <defs>
  <clipPath id="pc3380a9008">
   <rect x="180" y="69.12" width="1116" height="443.52"/>
  </clipPath>
 </defs>
</svg>
