<?xml version="1.0" encoding="utf-8" standalone="no"?>
<!DOCTYPE svg PUBLIC "-//W3C//DTD SVG 1.1//EN"
  "http://www.w3.org/Graphics/SVG/1.1/DTD/svg11.dtd">
<svg xmlns:xlink="http://www.w3.org/1999/xlink" width="1440pt" height="576pt" viewBox="0 0 1440 576" xmlns="http://www.w3.org/2000/svg" version="1.1">
 <metadata>
  <rdf:RDF xmlns:dc="http://purl.org/dc/elements/1.1/" xmlns:cc="http://creativecommons.org/ns#" xmlns:rdf="http://www.w3.org/1999/02/22-rdf-syntax-ns#">
   <cc:Work>
    <dc:type rdf:resource="http://purl.org/dc/dcmitype/StillImage"/>
    <dc:date>2024-05-22T04:49:45.373060</dc:date>
    <dc:format>image/svg+xml</dc:format>
    <dc:creator>
     <cc:Agent>
      <dc:title>Matplotlib v3.8.3, https://matplotlib.org/</dc:title>
     </cc:Agent>
    </dc:creator>
   </cc:Work>
  </rdf:RDF>
 </metadata>
 <defs>
  <style type="text/css">*{stroke-linejoin: round; stroke-linecap: butt}</style>
 </defs>
 <g id="figure_1">
  <g id="patch_1">
   <path d="M 0 576 
L 1440 576 
L 1440 0 
L 0 0 
z
" style="fill: #ffffff"/>
  </g>
  <g id="axes_1">
   <g id="patch_2">
    <path d="M 180 512.64 
L 1296 512.64 
L 1296 69.12 
L 180 69.12 
z
" style="fill: #ffffff"/>
   </g>
   <g id="matplotlib.axis_1">
    <g id="xtick_1">
     <g id="line2d_1">
      <defs>
       <path id="mb5b1afb5fd" d="M 0 0 
L 0 3.5 
" style="stroke: #000000; stroke-width: 0.8"/>
      </defs>
      <g>
       <use xlink:href="#mb5b1afb5fd" x="229.734567" y="512.64" style="stroke: #000000; stroke-width: 0.8"/>
      </g>
     </g>
     <g id="text_1">
      <!-- 0 -->
      <g transform="translate(226.553317 527.238438) scale(0.1 -0.1)">
       <defs>
        <path id="DejaVuSans-30" d="M 2034 4250 
Q 1547 4250 1301 3770 
Q 1056 3291 1056 2328 
Q 1056 1369 1301 889 
Q 1547 409 2034 409 
Q 2525 409 2770 889 
Q 3016 1369 3016 2328 
Q 3016 3291 2770 3770 
Q 2525 4250 2034 4250 
z
M 2034 4750 
Q 2819 4750 3233 4129 
Q 3647 3509 3647 2328 
Q 3647 1150 3233 529 
Q 2819 -91 2034 -91 
Q 1250 -91 836 529 
Q 422 1150 422 2328 
Q 422 3509 836 4129 
Q 1250 4750 2034 4750 
z
" transform="scale(0.015625)"/>
       </defs>
       <use xlink:href="#DejaVuSans-30"/>
      </g>
     </g>
    </g>
    <g id="xtick_2">
     <g id="line2d_2">
      <g>
       <use xlink:href="#mb5b1afb5fd" x="433.04074" y="512.64" style="stroke: #000000; stroke-width: 0.8"/>
      </g>
     </g>
     <g id="text_2">
      <!-- 500 -->
      <g transform="translate(423.49699 527.238438) scale(0.1 -0.1)">
       <defs>
        <path id="DejaVuSans-35" d="M 691 4666 
L 3169 4666 
L 3169 4134 
L 1269 4134 
L 1269 2991 
Q 1406 3038 1543 3061 
Q 1681 3084 1819 3084 
Q 2600 3084 3056 2656 
Q 3513 2228 3513 1497 
Q 3513 744 3044 326 
Q 2575 -91 1722 -91 
Q 1428 -91 1123 -41 
Q 819 9 494 109 
L 494 744 
Q 775 591 1075 516 
Q 1375 441 1709 441 
Q 2250 441 2565 725 
Q 2881 1009 2881 1497 
Q 2881 1984 2565 2268 
Q 2250 2553 1709 2553 
Q 1456 2553 1204 2497 
Q 953 2441 691 2322 
L 691 4666 
z
" transform="scale(0.015625)"/>
       </defs>
       <use xlink:href="#DejaVuSans-35"/>
       <use xlink:href="#DejaVuSans-30" x="63.623047"/>
       <use xlink:href="#DejaVuSans-30" x="127.246094"/>
      </g>
     </g>
    </g>
    <g id="xtick_3">
     <g id="line2d_3">
      <g>
       <use xlink:href="#mb5b1afb5fd" x="636.346913" y="512.64" style="stroke: #000000; stroke-width: 0.8"/>
      </g>
     </g>
     <g id="text_3">
      <!-- 1000 -->
      <g transform="translate(623.621913 527.238438) scale(0.1 -0.1)">
       <defs>
        <path id="DejaVuSans-31" d="M 794 531 
L 1825 531 
L 1825 4091 
L 703 3866 
L 703 4441 
L 1819 4666 
L 2450 4666 
L 2450 531 
L 3481 531 
L 3481 0 
L 794 0 
L 794 531 
z
" transform="scale(0.015625)"/>
       </defs>
       <use xlink:href="#DejaVuSans-31"/>
       <use xlink:href="#DejaVuSans-30" x="63.623047"/>
       <use xlink:href="#DejaVuSans-30" x="127.246094"/>
       <use xlink:href="#DejaVuSans-30" x="190.869141"/>
      </g>
     </g>
    </g>
    <g id="xtick_4">
     <g id="line2d_4">
      <g>
       <use xlink:href="#mb5b1afb5fd" x="839.653087" y="512.64" style="stroke: #000000; stroke-width: 0.8"/>
      </g>
     </g>
     <g id="text_4">
      <!-- 1500 -->
      <g transform="translate(826.928087 527.238438) scale(0.1 -0.1)">
       <use xlink:href="#DejaVuSans-31"/>
       <use xlink:href="#DejaVuSans-35" x="63.623047"/>
       <use xlink:href="#DejaVuSans-30" x="127.246094"/>
       <use xlink:href="#DejaVuSans-30" x="190.869141"/>
      </g>
     </g>
    </g>
    <g id="xtick_5">
     <g id="line2d_5">
      <g>
       <use xlink:href="#mb5b1afb5fd" x="1042.95926" y="512.64" style="stroke: #000000; stroke-width: 0.8"/>
      </g>
     </g>
     <g id="text_5">
      <!-- 2000 -->
      <g transform="translate(1030.23426 527.238438) scale(0.1 -0.1)">
       <defs>
        <path id="DejaVuSans-32" d="M 1228 531 
L 3431 531 
L 3431 0 
L 469 0 
L 469 531 
Q 828 903 1448 1529 
Q 2069 2156 2228 2338 
Q 2531 2678 2651 2914 
Q 2772 3150 2772 3378 
Q 2772 3750 2511 3984 
Q 2250 4219 1831 4219 
Q 1534 4219 1204 4116 
Q 875 4013 500 3803 
L 500 4441 
Q 881 4594 1212 4672 
Q 1544 4750 1819 4750 
Q 2544 4750 2975 4387 
Q 3406 4025 3406 3419 
Q 3406 3131 3298 2873 
Q 3191 2616 2906 2266 
Q 2828 2175 2409 1742 
Q 1991 1309 1228 531 
z
" transform="scale(0.015625)"/>
       </defs>
       <use xlink:href="#DejaVuSans-32"/>
       <use xlink:href="#DejaVuSans-30" x="63.623047"/>
       <use xlink:href="#DejaVuSans-30" x="127.246094"/>
       <use xlink:href="#DejaVuSans-30" x="190.869141"/>
      </g>
     </g>
    </g>
    <g id="xtick_6">
     <g id="line2d_6">
      <g>
       <use xlink:href="#mb5b1afb5fd" x="1246.265433" y="512.64" style="stroke: #000000; stroke-width: 0.8"/>
      </g>
     </g>
     <g id="text_6">
      <!-- 2500 -->
      <g transform="translate(1233.540433 527.238438) scale(0.1 -0.1)">
       <use xlink:href="#DejaVuSans-32"/>
       <use xlink:href="#DejaVuSans-35" x="63.623047"/>
       <use xlink:href="#DejaVuSans-30" x="127.246094"/>
       <use xlink:href="#DejaVuSans-30" x="190.869141"/>
      </g>
     </g>
    </g>
   </g>
   <g id="matplotlib.axis_2">
    <g id="ytick_1">
     <g id="line2d_7">
      <defs>
       <path id="m013219668c" d="M 0 0 
L -3.5 0 
" style="stroke: #000000; stroke-width: 0.8"/>
      </defs>
      <g>
       <use xlink:href="#m013219668c" x="180" y="471.023031" style="stroke: #000000; stroke-width: 0.8"/>
      </g>
     </g>
     <g id="text_7">
      <!-- −6 -->
      <g transform="translate(158.257812 474.82225) scale(0.1 -0.1)">
       <defs>
        <path id="DejaVuSans-2212" d="M 678 2272 
L 4684 2272 
L 4684 1741 
L 678 1741 
L 678 2272 
z
" transform="scale(0.015625)"/>
        <path id="DejaVuSans-36" d="M 2113 2584 
Q 1688 2584 1439 2293 
Q 1191 2003 1191 1497 
Q 1191 994 1439 701 
Q 1688 409 2113 409 
Q 2538 409 2786 701 
Q 3034 994 3034 1497 
Q 3034 2003 2786 2293 
Q 2538 2584 2113 2584 
z
M 3366 4563 
L 3366 3988 
Q 3128 4100 2886 4159 
Q 2644 4219 2406 4219 
Q 1781 4219 1451 3797 
Q 1122 3375 1075 2522 
Q 1259 2794 1537 2939 
Q 1816 3084 2150 3084 
Q 2853 3084 3261 2657 
Q 3669 2231 3669 1497 
Q 3669 778 3244 343 
Q 2819 -91 2113 -91 
Q 1303 -91 875 529 
Q 447 1150 447 2328 
Q 447 3434 972 4092 
Q 1497 4750 2381 4750 
Q 2619 4750 2861 4703 
Q 3103 4656 3366 4563 
z
" transform="scale(0.015625)"/>
       </defs>
       <use xlink:href="#DejaVuSans-2212"/>
       <use xlink:href="#DejaVuSans-36" x="83.789062"/>
      </g>
     </g>
    </g>
    <g id="ytick_2">
     <g id="line2d_8">
      <g>
       <use xlink:href="#m013219668c" x="180" y="403.058907" style="stroke: #000000; stroke-width: 0.8"/>
      </g>
     </g>
     <g id="text_8">
      <!-- −4 -->
      <g transform="translate(158.257812 406.858126) scale(0.1 -0.1)">
       <defs>
        <path id="DejaVuSans-34" d="M 2419 4116 
L 825 1625 
L 2419 1625 
L 2419 4116 
z
M 2253 4666 
L 3047 4666 
L 3047 1625 
L 3713 1625 
L 3713 1100 
L 3047 1100 
L 3047 0 
L 2419 0 
L 2419 1100 
L 313 1100 
L 313 1709 
L 2253 4666 
z
" transform="scale(0.015625)"/>
       </defs>
       <use xlink:href="#DejaVuSans-2212"/>
       <use xlink:href="#DejaVuSans-34" x="83.789062"/>
      </g>
     </g>
    </g>
    <g id="ytick_3">
     <g id="line2d_9">
      <g>
       <use xlink:href="#m013219668c" x="180" y="335.094784" style="stroke: #000000; stroke-width: 0.8"/>
      </g>
     </g>
     <g id="text_9">
      <!-- −2 -->
      <g transform="translate(158.257812 338.894003) scale(0.1 -0.1)">
       <use xlink:href="#DejaVuSans-2212"/>
       <use xlink:href="#DejaVuSans-32" x="83.789062"/>
      </g>
     </g>
    </g>
    <g id="ytick_4">
     <g id="line2d_10">
      <g>
       <use xlink:href="#m013219668c" x="180" y="267.130661" style="stroke: #000000; stroke-width: 0.8"/>
      </g>
     </g>
     <g id="text_10">
      <!-- 0 -->
      <g transform="translate(166.6375 270.929879) scale(0.1 -0.1)">
       <use xlink:href="#DejaVuSans-30"/>
      </g>
     </g>
    </g>
    <g id="ytick_5">
     <g id="line2d_11">
      <g>
       <use xlink:href="#m013219668c" x="180" y="199.166537" style="stroke: #000000; stroke-width: 0.8"/>
      </g>
     </g>
     <g id="text_11">
      <!-- 2 -->
      <g transform="translate(166.6375 202.965756) scale(0.1 -0.1)">
       <use xlink:href="#DejaVuSans-32"/>
      </g>
     </g>
    </g>
    <g id="ytick_6">
     <g id="line2d_12">
      <g>
       <use xlink:href="#m013219668c" x="180" y="131.202414" style="stroke: #000000; stroke-width: 0.8"/>
      </g>
     </g>
     <g id="text_12">
      <!-- 4 -->
      <g transform="translate(166.6375 135.001632) scale(0.1 -0.1)">
       <use xlink:href="#DejaVuSans-34"/>
      </g>
     </g>
    </g>
   </g>
   <g id="line2d_13">
    <path d="M 230.727273 263.320804 
L 231.719979 251.463866 
L 232.712685 256.72144 
L 233.70539 279.19945 
L 234.698096 271.426215 
L 235.690802 256.250347 
L 236.683508 258.541903 
L 237.676214 273.506951 
L 238.66892 266.028453 
L 239.661626 254.742862 
L 240.654332 260.293953 
L 241.647038 287.129959 
L 242.639744 262.120817 
L 243.63245 245.972583 
L 244.625156 249.309781 
L 245.617862 284.618984 
L 246.610568 271.590506 
L 247.603273 246.105235 
L 248.595979 244.544339 
L 249.588685 235.145884 
L 250.581391 215.462665 
L 251.574097 206.470352 
L 252.566803 207.017233 
L 253.559509 207.19206 
L 254.552215 194.564407 
L 255.544921 185.958438 
L 256.537627 186.740913 
L 257.530333 195.362654 
L 258.523039 196.71049 
L 259.515745 194.535727 
L 260.50845 203.64595 
L 261.501156 206.372214 
L 262.493862 189.870744 
L 263.486568 186.939444 
L 264.479274 201.982546 
L 265.47198 252.591024 
L 266.464686 245.778806 
L 267.457392 250.351203 
L 268.450098 208.987402 
L 269.442804 196.80428 
L 270.43551 202.46535 
L 271.428216 191.921514 
L 272.420922 178.969438 
L 273.413627 186.562377 
L 274.406333 205.387005 
L 275.399039 172.60582 
L 276.391745 163.618712 
L 277.384451 158.727738 
L 278.377157 135.114505 
L 279.369863 116.628874 
L 280.362569 106.681403 
L 281.355275 102.889929 
L 282.347981 101.594048 
L 283.340687 98.173698 
L 284.333393 92.521624 
L 285.326099 89.28 
L 286.318804 91.754307 
L 287.31151 102.178465 
L 289.296922 145.693337 
L 290.289628 135.014527 
L 291.282334 136.999008 
L 292.27504 156.309478 
L 293.267746 185.055995 
L 294.260452 175.313656 
L 295.253158 181.428945 
L 296.245864 190.859148 
L 297.23857 183.925087 
L 298.231276 189.308757 
L 299.223981 219.804346 
L 300.216687 261.400406 
L 301.209393 238.017272 
L 302.202099 256.948999 
L 303.194805 238.746185 
L 304.187511 241.197902 
L 305.180217 245.164504 
L 306.172923 237.330659 
L 307.165629 256.231884 
L 308.158335 262.818714 
L 309.151041 231.346413 
L 310.143747 232.278268 
L 311.136453 266.374515 
L 312.129159 259.216321 
L 313.121864 234.877574 
L 314.11457 235.752462 
L 315.107276 251.813808 
L 316.099982 343.694987 
L 317.092688 251.742746 
L 318.085394 240.950489 
L 319.0781 251.144409 
L 320.070806 295.855416 
L 321.063512 270.931393 
L 322.056218 258.420955 
L 323.048924 264.361538 
L 324.04163 280.028123 
L 325.034336 270.97691 
L 326.027041 266.849833 
L 327.019747 279.675392 
L 328.012453 288.121905 
L 329.005159 266.763098 
L 329.997865 262.119588 
L 330.990571 274.781542 
L 331.983277 304.265889 
L 332.975983 277.116706 
L 333.968689 269.211021 
L 334.961395 268.11427 
L 335.954101 279.342732 
L 336.946807 313.148747 
L 337.939513 284.011554 
L 338.932218 269.54963 
L 339.924924 268.060733 
L 340.91763 277.917217 
L 341.910336 325.141376 
L 342.903042 287.685444 
L 343.895748 266.023625 
L 344.888454 266.826032 
L 345.88116 291.177448 
L 346.873866 312.585804 
L 347.866572 274.00413 
L 348.859278 268.150331 
L 349.851984 288.663163 
L 350.84469 317.027283 
L 351.837395 269.965851 
L 352.830101 265.814068 
L 353.822807 286.019836 
L 354.815513 284.518362 
L 355.808219 256.463784 
L 356.800925 249.987819 
L 357.793631 260.385077 
L 358.786337 262.848495 
L 359.779043 248.293123 
L 360.771749 239.432075 
L 361.764455 243.082578 
L 362.757161 252.326457 
L 363.749867 244.189085 
L 364.742572 237.078987 
L 365.735278 237.636217 
L 366.727984 247.826038 
L 367.72069 252.05025 
L 368.713396 244.34648 
L 369.706102 245.031671 
L 370.698808 258.525661 
L 371.691514 287.198477 
L 372.68422 278.266789 
L 373.676926 277.83068 
L 374.669632 301.534044 
L 375.662338 278.507169 
L 376.655044 262.541006 
L 377.64775 261.582841 
L 378.640455 255.026634 
L 379.633161 237.956004 
L 380.625867 229.335636 
L 381.618573 227.790832 
L 382.611279 227.049251 
L 384.596691 214.851796 
L 385.589397 212.854421 
L 386.582103 213.96869 
L 387.574809 212.458728 
L 388.567515 208.421765 
L 389.560221 207.066415 
L 390.552927 207.923128 
L 391.545632 209.941242 
L 393.531044 206.490883 
L 394.52375 207.716854 
L 395.516456 211.290606 
L 396.509162 212.446864 
L 397.501868 211.375502 
L 398.494574 212.740794 
L 399.48728 217.59961 
L 400.479986 221.703247 
L 401.472692 221.536646 
L 402.465398 222.773711 
L 403.458104 227.856661 
L 404.450809 236.85671 
L 405.443515 239.495971 
L 406.436221 238.284905 
L 407.428927 244.127552 
L 408.421633 257.391186 
L 409.414339 262.890159 
L 410.407045 258.510613 
L 411.399751 261.085223 
L 412.392457 280.887545 
L 413.385163 283.330793 
L 414.377869 267.291806 
L 415.370575 267.269915 
L 416.363281 282.79865 
L 417.355986 288.671151 
L 418.348692 270.641108 
L 419.341398 267.333798 
L 420.334104 276.983674 
L 421.32681 292.584137 
L 422.319516 281.103005 
L 423.312222 271.089788 
L 424.304928 270.0894 
L 425.297634 278.612422 
L 426.29034 290.180834 
L 427.283046 274.228562 
L 428.275752 266.887302 
L 429.268458 269.098032 
L 430.261163 280.873075 
L 431.253869 283.339392 
L 432.246575 271.072759 
L 433.239281 266.169563 
L 434.231987 278.203712 
L 435.224693 293.546032 
L 437.210105 271.521698 
L 438.202811 281.083148 
L 439.195517 303.935575 
L 440.188223 304.155716 
L 441.180929 292.348204 
L 442.173635 296.819848 
L 443.166341 346.740274 
L 444.159046 305.642199 
L 445.151752 292.959138 
L 446.144458 297.532716 
L 447.137164 341.738553 
L 448.12987 296.139481 
L 449.122576 285.52959 
L 450.115282 291.249767 
L 451.107988 323.601527 
L 452.100694 300.384641 
L 453.0934 286.534177 
L 454.086106 294.016974 
L 455.078812 335.948454 
L 456.071518 303.0732 
L 457.064223 288.956583 
L 458.056929 303.346057 
L 459.049635 310.578053 
L 460.042341 282.060713 
L 461.035047 274.203774 
L 462.027753 278.319474 
L 463.020459 280.19694 
L 464.013165 266.569517 
L 465.005871 259.564373 
L 465.998577 260.757831 
L 466.991283 263.522767 
L 467.983989 259.421551 
L 468.976695 251.654608 
L 469.9694 251.216296 
L 470.962106 255.674991 
L 471.954812 257.359744 
L 472.947518 251.484863 
L 473.940224 249.525261 
L 475.925636 260.691038 
L 476.918342 259.042746 
L 477.911048 255.996889 
L 478.903754 259.622237 
L 479.89646 269.460874 
L 480.889166 277.454959 
L 481.881872 271.714537 
L 482.874577 271.257853 
L 483.867283 281.95781 
L 484.859989 306.852372 
L 485.852695 310.600264 
L 486.845401 295.185431 
L 487.838107 296.935227 
L 488.830813 296.025775 
L 489.823519 309.060658 
L 490.816225 331.072979 
L 491.808931 300.46624 
L 492.801637 289.239212 
L 493.794343 291.25794 
L 494.787049 313.84408 
L 495.779754 322.858188 
L 496.77246 299.364348 
L 497.765166 295.700377 
L 498.757872 318.071564 
L 499.750578 348.278291 
L 500.743284 306.628799 
L 501.73599 308.959673 
L 502.728696 360.907805 
L 503.721402 302.116985 
L 504.714108 288.186781 
L 505.706814 289.253599 
L 506.69952 301.738662 
L 507.692226 287.405135 
L 508.684932 277.908527 
L 509.677637 275.617309 
L 510.670343 290.8208 
L 512.655755 274.750908 
L 513.648461 274.620113 
L 514.641167 282.886016 
L 515.633873 303.229463 
L 516.626579 287.07029 
L 517.619285 281.745646 
L 518.611991 288.743499 
L 519.604697 315.828496 
L 520.597403 333.63781 
L 521.590109 305.845208 
L 522.582814 307.415052 
L 523.57552 304.181111 
L 524.568226 312.29606 
L 525.560932 340.169328 
L 526.553638 317.432446 
L 528.53905 290.626401 
L 529.531756 292.707616 
L 530.524462 301.325605 
L 531.517168 298.013456 
L 532.509874 280.805958 
L 533.50258 284.024394 
L 534.495286 289.803389 
L 535.487991 300.294061 
L 536.480697 291.606867 
L 537.473403 289.503356 
L 539.458815 307.324255 
L 540.451521 310.817213 
L 541.444227 297.067652 
L 542.436933 307.812124 
L 543.429639 335.474582 
L 544.422345 348.330651 
L 545.415051 338.693374 
L 546.407757 320.262798 
L 547.400463 327.77149 
L 548.393168 320.146971 
L 549.385874 328.820952 
L 550.37858 363.498771 
L 551.371286 323.823217 
L 552.363992 307.393203 
L 553.356698 308.614039 
L 554.349404 343.739531 
L 555.34211 358.163386 
L 556.334816 310.703542 
L 557.327522 308.162292 
L 558.320228 348.544945 
L 559.312934 370.631662 
L 560.30564 313.56475 
L 561.298345 312.948967 
L 562.291051 354.127175 
L 563.283757 342.0086 
L 564.276463 308.861701 
L 565.269169 308.498175 
L 566.261875 329.073163 
L 567.254581 339.05939 
L 568.247287 318.349111 
L 569.239993 306.144593 
L 570.232699 303.222478 
L 571.225405 346.106364 
L 572.218111 330.824855 
L 573.210817 307.910417 
L 574.203523 310.084119 
L 575.196228 329.960077 
L 576.188934 383.937869 
L 577.18164 328.439458 
L 578.174346 312.691786 
L 579.167052 322.339987 
L 580.159758 335.501924 
L 581.152464 382.128745 
L 582.14517 334.90198 
L 583.137876 314.329388 
L 584.130582 313.557399 
L 585.123288 330.358871 
L 586.115994 426.982644 
L 587.1087 322.362047 
L 588.101405 312.785892 
L 589.094111 316.674887 
L 590.086817 355.190313 
L 591.079523 351.570561 
L 592.072229 329.994205 
L 593.064935 341.797333 
L 594.057641 348.655237 
L 595.050347 315.617114 
L 596.043053 308.818553 
L 597.035759 329.815885 
L 598.028465 320.283341 
L 599.021171 298.244251 
L 600.013877 285.229103 
L 601.006582 288.47764 
L 601.999288 290.603701 
L 603.9847 271.417769 
L 604.977406 272.083833 
L 605.970112 274.389287 
L 606.962818 272.562782 
L 607.955524 265.619444 
L 608.94823 262.197373 
L 610.933642 269.355991 
L 611.926348 264.333349 
L 612.919054 261.287178 
L 613.911759 263.872296 
L 614.904465 269.025791 
L 615.897171 269.410908 
L 616.889877 266.210651 
L 617.882583 267.324363 
L 619.867995 280.326085 
L 620.860701 277.548416 
L 621.853407 276.514866 
L 622.846113 283.94249 
L 623.838819 299.265528 
L 624.831525 299.845244 
L 625.824231 294.492365 
L 626.816936 300.419528 
L 627.809642 320.5921 
L 628.802348 385.458416 
L 629.795054 339.153188 
L 630.78776 334.076935 
L 631.780466 336.45657 
L 632.773172 321.954134 
L 633.765878 326.118436 
L 634.758584 373.039603 
L 636.743996 315.236731 
L 637.736702 315.431107 
L 638.729408 333.081317 
L 639.722114 422.245747 
L 640.714819 333.424022 
L 641.707525 321.605446 
L 642.700231 329.619827 
L 643.692937 344.174071 
L 644.685643 368.025232 
L 646.671055 332.385936 
L 647.663761 323.54898 
L 648.656467 327.974197 
L 649.649173 354.41332 
L 650.641879 344.454077 
L 651.634585 315.656684 
L 652.627291 310.953769 
L 653.619996 324.366288 
L 654.612702 344.980322 
L 655.605408 316.467542 
L 656.598114 307.037108 
L 657.59082 314.180703 
L 658.583526 339.843931 
L 659.576232 321.260504 
L 660.568938 307.033204 
L 661.561644 309.997649 
L 662.55435 332.884726 
L 663.547056 327.230078 
L 664.539762 307.331551 
L 665.532468 307.470955 
L 666.525173 324.089115 
L 667.517879 332.179841 
L 668.510585 309.368377 
L 669.503291 305.009716 
L 670.495997 316.802638 
L 671.488703 336.251073 
L 672.481409 312.938337 
L 673.474115 304.918468 
L 674.466821 312.553144 
L 675.459527 336.244106 
L 677.444939 308.114906 
L 678.437645 311.076815 
L 679.43035 334.722182 
L 680.423056 339.428712 
L 681.415762 316.628972 
L 682.408468 315.285283 
L 683.401174 333.909785 
L 684.39388 372.347167 
L 685.386586 328.802146 
L 686.379292 323.018366 
L 687.371998 337.835026 
L 688.364704 392.497382 
L 689.35741 339.998733 
L 690.350116 330.906131 
L 691.342822 343.721234 
L 692.335527 365.363592 
L 693.328233 342.135815 
L 694.320939 335.705532 
L 695.313645 347.122453 
L 696.306351 363.521357 
L 697.299057 344.19977 
L 698.291763 336.173035 
L 699.284469 342.003127 
L 700.277175 359.064087 
L 701.269881 355.573576 
L 702.262587 344.076966 
L 703.255293 338.465655 
L 704.247999 339.627715 
L 705.240705 352.077711 
L 706.23341 377.651386 
L 707.226116 340.385981 
L 708.218822 326.384827 
L 709.211528 328.510645 
L 710.204234 358.749735 
L 711.19694 351.418009 
L 712.189646 321.269261 
L 713.182352 315.440253 
L 714.175058 327.067591 
L 715.167764 351.965365 
L 716.16047 323.401105 
L 717.153176 310.883795 
L 718.145882 313.882448 
L 719.138587 335.141744 
L 720.131293 335.294375 
L 721.123999 315.301446 
L 722.116705 311.5521 
L 723.109411 323.603294 
L 724.102117 355.293179 
L 725.094823 331.245246 
L 726.087529 318.541774 
L 727.080235 321.74059 
L 728.072941 344.430294 
L 729.065647 393.232602 
L 730.058353 338.792774 
L 731.051059 326.670497 
L 732.043764 328.659511 
L 733.03647 344.712186 
L 734.029176 476.204817 
L 735.021882 341.017846 
L 736.014588 323.356749 
L 737.007294 322.568898 
L 738.992706 359.621501 
L 739.985412 323.55305 
L 740.978118 314.078634 
L 741.970824 321.359415 
L 742.96353 346.962139 
L 743.956236 328.164858 
L 744.948941 312.134895 
L 745.941647 312.874108 
L 746.934353 330.990341 
L 747.927059 334.395269 
L 748.919765 313.103425 
L 749.912471 308.979144 
L 750.905177 320.648025 
L 751.897883 338.098425 
L 752.890589 317.490447 
L 753.883295 308.631484 
L 754.876001 315.968747 
L 755.868707 338.660943 
L 756.861413 327.287251 
L 757.854118 312.914271 
L 758.846824 315.719736 
L 759.83953 338.910377 
L 760.832236 346.08536 
L 761.824942 322.572483 
L 762.817648 321.554149 
L 763.810354 344.057404 
L 764.80306 376.297887 
L 765.795766 333.253573 
L 766.788472 330.913283 
L 767.781178 358.125048 
L 768.773884 363.235341 
L 769.76659 332.243088 
L 770.759295 332.789008 
L 771.752001 367.617798 
L 772.744707 352.21514 
L 773.737413 325.712814 
L 774.730119 325.685549 
L 775.722825 353.429184 
L 776.715531 351.755229 
L 777.708237 323.790164 
L 778.700943 321.893938 
L 779.693649 343.176238 
L 780.686355 355.825337 
L 781.679061 323.981564 
L 782.671767 320.132798 
L 784.657178 353.283455 
L 785.649884 321.313458 
L 786.64259 314.959752 
L 787.635296 326.940311 
L 788.628002 342.072161 
L 789.620708 317.587872 
L 790.613414 308.61038 
L 791.60612 314.887136 
L 792.598826 330.272359 
L 794.584238 305.627718 
L 795.576944 307.243069 
L 796.56965 320.996234 
L 797.562355 322.855809 
L 798.555061 308.750637 
L 799.547767 305.706146 
L 800.540473 315.890632 
L 801.533179 333.520711 
L 802.525885 320.168465 
L 803.518591 310.932484 
L 804.511297 315.732786 
L 805.504003 337.553852 
L 806.496709 346.781977 
L 807.489415 325.621167 
L 808.482121 322.478011 
L 809.474827 336.004037 
L 810.467532 392.622705 
L 811.460238 356.267142 
L 812.452944 338.400021 
L 813.44565 338.921274 
L 814.438356 349.446966 
L 815.431062 363.131444 
L 816.423768 363.37395 
L 818.40918 345.257683 
L 819.401886 343.361379 
L 820.394592 350.935888 
L 821.387298 371.751248 
L 822.380004 361.832016 
L 823.372709 343.293416 
L 824.365415 338.166156 
L 825.358121 346.185381 
L 826.350827 379.567714 
L 827.343533 362.208865 
L 828.336239 337.234713 
L 829.328945 332.269275 
L 830.321651 343.786865 
L 831.314357 415.493853 
L 832.307063 347.283771 
L 833.299769 329.009368 
L 834.292475 329.451148 
L 836.277886 372.094298 
L 837.270592 332.943276 
L 838.263298 325.23219 
L 839.256004 335.702898 
L 840.24871 386.31955 
L 841.241416 346.387058 
L 842.234122 329.244934 
L 843.226828 332.753938 
L 844.219534 364.422135 
L 845.21224 367.265631 
L 846.204946 338.380618 
L 847.197652 339.289327 
L 848.190358 365.753015 
L 849.183064 361.421869 
L 850.175769 340.11802 
L 851.168475 343.74648 
L 852.161181 398.083346 
L 853.153887 348.689771 
L 854.146593 328.842929 
L 855.139299 331.499068 
L 856.132005 359.720318 
L 857.124711 345.464879 
L 858.117417 321.562674 
L 859.110123 318.687937 
L 861.095535 345.118698 
L 862.088241 321.484183 
L 863.080946 313.292459 
L 864.073652 319.499673 
L 865.066358 339.33445 
L 866.059064 330.743545 
L 867.05177 315.671121 
L 868.044476 315.899017 
L 869.037182 331.190101 
L 870.029888 349.816342 
L 871.022594 327.188717 
L 872.0153 319.674562 
L 873.008006 327.075115 
L 874.000712 358.299666 
L 874.993418 355.845052 
L 875.986123 331.943963 
L 876.978829 329.710448 
L 877.971535 342.770732 
L 878.964241 398.301205 
L 879.956947 360.052612 
L 880.949653 338.950534 
L 881.942359 336.750438 
L 882.935065 350.144603 
L 883.927771 403.023139 
L 884.920477 354.497582 
L 885.913183 336.631547 
L 886.905889 337.700741 
L 887.898595 363.458388 
L 888.8913 376.478797 
L 889.884006 336.756766 
L 890.876712 330.703888 
L 891.869418 344.060956 
L 892.862124 392.652912 
L 893.85483 337.932552 
L 894.847536 324.113348 
L 895.840242 328.442591 
L 896.832948 353.925406 
L 897.825654 341.837368 
L 898.81836 321.200822 
L 899.811066 318.736877 
L 900.803772 332.177396 
L 901.796477 347.334053 
L 902.789183 324.681311 
L 903.781889 315.57261 
L 904.774595 320.812337 
L 905.767301 341.577491 
L 906.760007 337.316508 
L 907.752713 320.204702 
L 908.745419 318.409033 
L 909.738125 331.538776 
L 910.730831 360.241802 
L 911.723537 337.00867 
L 912.716243 324.883348 
L 913.708949 328.715545 
L 914.701655 351.252113 
L 915.69436 391.038899 
L 916.687066 344.476566 
L 917.679772 335.407075 
L 918.672478 340.59276 
L 919.665184 359.294368 
L 920.65789 396.245818 
L 921.650596 358.89388 
L 922.643302 342.332123 
L 923.636008 339.934358 
L 924.628714 350.330954 
L 925.62142 387.84399 
L 927.606832 341.562211 
L 928.599537 336.45114 
L 929.592243 346.539162 
L 930.584949 391.322727 
L 931.577655 362.618059 
L 932.570361 338.550816 
L 933.563067 334.366497 
L 934.555773 345.745472 
L 935.548479 401.192655 
L 936.541185 357.443667 
L 937.533891 335.315821 
L 938.526597 332.834025 
L 939.519303 346.529204 
L 940.512009 409.943373 
L 941.504714 346.865241 
L 942.49742 330.16662 
L 943.490126 331.83357 
L 945.475538 375.704894 
L 946.468244 336.683162 
L 947.46095 327.99901 
L 948.453656 336.364205 
L 949.446362 374.618007 
L 951.431774 332.147026 
L 952.42448 331.616414 
L 953.417186 350.326132 
L 954.409891 411.057246 
L 955.402597 345.893451 
L 956.395303 335.05454 
L 957.388009 343.448445 
L 958.380715 378.846067 
L 959.373421 368.950301 
L 960.366127 347.658741 
L 961.358833 347.389662 
L 962.351539 359.951186 
L 963.344245 363.053914 
L 964.336951 357.666045 
L 965.329657 362.618803 
L 966.322363 363.292097 
L 967.315068 348.517484 
L 968.307774 344.324491 
L 969.30048 359.128035 
L 970.293186 402.464065 
L 971.285892 347.796062 
L 972.278598 333.989272 
L 973.271304 338.497393 
L 974.26401 369.612202 
L 975.256716 361.904875 
L 976.249422 333.103649 
L 977.242128 328.071696 
L 978.234834 339.85158 
L 979.22754 376.593309 
L 980.220246 341.736825 
L 981.212951 326.384566 
L 982.205657 328.288988 
L 983.198363 348.79006 
L 984.191069 362.340475 
L 985.183775 332.395673 
L 986.176481 325.454667 
L 987.169187 334.929322 
L 988.161893 370.179875 
L 989.154599 347.046371 
L 990.147305 328.966642 
L 991.140011 329.560282 
L 993.125423 371.945515 
L 994.118128 336.215248 
L 995.110834 329.211252 
L 996.10354 340.658458 
L 997.096246 391.701312 
L 998.088952 346.282297 
L 999.081658 330.347825 
L 1000.074364 334.080646 
L 1001.06707 364.240169 
L 1002.059776 359.752424 
L 1003.052482 332.845849 
L 1004.045188 330.078724 
L 1005.037894 345.903928 
L 1006.0306 384.389513 
L 1007.023305 340.310975 
L 1008.016011 329.176497 
L 1009.008717 335.898509 
L 1010.001423 370.614338 
L 1010.994129 358.78116 
L 1011.986835 335.041811 
L 1012.979541 334.067826 
L 1013.972247 351.159409 
L 1014.964953 477.01093 
L 1015.957659 352.26864 
L 1016.950365 340.358702 
L 1017.943071 345.364987 
L 1018.935777 366.735974 
L 1019.928482 377.410668 
L 1020.921188 358.146737 
L 1021.913894 351.832134 
L 1022.9066 352.230763 
L 1023.899306 355.87845 
L 1024.892012 366.345332 
L 1025.884718 375.605683 
L 1026.877424 355.938948 
L 1027.87013 345.358143 
L 1028.862836 348.288127 
L 1029.855542 371.640828 
L 1030.848248 378.295292 
L 1031.840954 348.79104 
L 1032.833659 341.857554 
L 1033.826365 352.802804 
L 1034.819071 390.61208 
L 1035.811777 363.0408 
L 1036.804483 345.921933 
L 1037.797189 347.163237 
L 1038.789895 364.171594 
L 1039.782601 373.658162 
L 1040.775307 355.767204 
L 1041.768013 352.496915 
L 1042.760719 359.911188 
L 1043.753425 363.909375 
L 1044.746131 359.07178 
L 1045.738837 358.858908 
L 1046.731542 366.235735 
L 1047.724248 360.823303 
L 1048.716954 351.263187 
L 1049.70966 354.147971 
L 1050.702366 370.162725 
L 1051.695072 369.415215 
L 1052.687778 351.733803 
L 1053.680484 348.344865 
L 1054.67319 359.972224 
L 1055.665896 381.249727 
L 1056.658602 357.182929 
L 1057.651308 346.601644 
L 1058.644014 352.952784 
L 1059.636719 376.647457 
L 1060.629425 364.946349 
L 1061.622131 348.985732 
L 1062.614837 349.553283 
L 1063.607543 367.631183 
L 1064.600249 375.315129 
L 1065.592955 351.667354 
L 1066.585661 346.714319 
L 1067.578367 358.666777 
L 1068.571073 385.209307 
L 1069.563779 357.480049 
L 1070.556485 346.045924 
L 1071.549191 351.264158 
L 1072.541896 374.430932 
L 1073.534602 372.041026 
L 1074.527308 351.209572 
L 1075.520014 347.75413 
L 1076.51272 359.530947 
L 1077.505426 377.443416 
L 1078.498132 362.375986 
L 1079.490838 352.968941 
L 1080.483544 355.023165 
L 1081.47625 361.729359 
L 1082.468956 363.794456 
L 1083.461662 362.563052 
L 1084.454368 363.293114 
L 1085.447073 357.410205 
L 1086.439779 353.132974 
L 1087.432485 358.097359 
L 1088.425191 376.561333 
L 1089.417897 365.646142 
L 1090.410603 347.475672 
L 1091.403309 345.576172 
L 1092.396015 362.526418 
L 1093.388721 397.531654 
L 1094.381427 352.827573 
L 1095.374133 340.972699 
L 1096.366839 347.332733 
L 1097.359545 383.425114 
L 1098.35225 369.707387 
L 1099.344956 344.701214 
L 1100.337662 343.023015 
L 1101.330368 360.703834 
L 1102.323074 391.938281 
L 1103.31578 354.131739 
L 1104.308486 345.554293 
L 1105.301192 356.034006 
L 1106.293898 382.944217 
L 1107.286604 358.756599 
L 1108.27931 348.559668 
L 1109.272016 357.13111 
L 1110.264722 383.161829 
L 1111.257428 357.917945 
L 1112.250133 346.209115 
L 1113.242839 353.024611 
L 1114.235545 388.374788 
L 1115.228251 362.838549 
L 1116.220957 344.055598 
L 1117.213663 345.161896 
L 1118.206369 369.078565 
L 1119.199075 382.191056 
L 1120.191781 347.808604 
L 1121.184487 341.951038 
L 1122.177193 355.394634 
L 1123.169899 408.086751 
L 1124.162605 357.41386 
L 1125.15531 343.761603 
L 1126.148016 349.249849 
L 1127.140722 378.815205 
L 1128.133428 370.402139 
L 1129.126134 349.064882 
L 1130.11884 348.545028 
L 1131.111546 366.449326 
L 1132.104252 378.376663 
L 1133.096958 354.548678 
L 1134.089664 349.754755 
L 1135.08237 359.807424 
L 1136.075076 375.640934 
L 1137.067782 360.893473 
L 1138.060487 352.7149 
L 1139.053193 356.354353 
L 1140.045899 367.898909 
L 1141.038605 364.985074 
L 1142.031311 358.764293 
L 1143.024017 360.449317 
L 1144.016723 360.90836 
L 1145.009429 358.478982 
L 1146.002135 361.00083 
L 1146.994841 370.683113 
L 1147.987547 364.676495 
L 1148.980253 351.006764 
L 1149.972959 349.267541 
L 1150.965664 364.802867 
L 1151.95837 392.953754 
L 1152.951076 352.702338 
L 1153.943782 340.227316 
L 1154.936488 345.315849 
L 1155.929194 380.266382 
L 1156.9219 369.135705 
L 1157.914606 340.108782 
L 1158.907312 335.088186 
L 1159.900018 347.921293 
L 1160.892724 403.591968 
L 1161.88543 350.304053 
L 1162.878136 333.839184 
L 1163.870841 335.68541 
L 1165.856253 379.135142 
L 1166.848959 341.227878 
L 1167.841665 333.754724 
L 1168.834371 343.914983 
L 1169.827077 393.081048 
L 1170.819783 359.698128 
L 1171.812489 339.032421 
L 1172.805195 340.299473 
L 1174.790607 390.860203 
L 1175.783313 348.458693 
L 1176.776019 343.748483 
L 1177.768724 357.437202 
L 1178.76143 394.983415 
L 1179.754136 355.739684 
L 1180.746842 345.491869 
L 1181.739548 354.630227 
L 1182.732254 393.235348 
L 1183.72496 359.664709 
L 1184.717666 344.169002 
L 1185.710372 348.382132 
L 1186.703078 379.582062 
L 1187.695784 371.928788 
L 1188.68849 345.465774 
L 1189.681196 343.754931 
L 1190.673901 360.870435 
L 1191.666607 400.307815 
L 1192.659313 354.212978 
L 1193.652019 343.988289 
L 1194.644725 351.934761 
L 1195.637431 385.520308 
L 1197.622843 348.515961 
L 1198.615549 350.757791 
L 1199.608255 371.787396 
L 1200.600961 371.216245 
L 1201.593667 352.067499 
L 1202.586373 351.451188 
L 1203.579078 369.444955 
L 1204.571784 376.494521 
L 1205.56449 351.528567 
L 1206.557196 346.76834 
L 1207.549902 359.55301 
L 1208.542608 399.803866 
L 1209.535314 356.821586 
L 1210.52802 342.668745 
L 1211.520726 345.98343 
L 1212.513432 374.383457 
L 1213.506138 380.398263 
L 1214.498844 346.286256 
L 1215.49155 339.175244 
L 1216.484255 348.555556 
L 1217.476961 399.751512 
L 1218.469667 364.282437 
L 1219.462373 341.198193 
L 1220.455079 339.020931 
L 1221.447785 353.4798 
L 1222.440491 492.48 
L 1223.433197 355.093311 
L 1224.425903 339.339572 
L 1225.418609 341.207859 
L 1226.411315 362.298921 
L 1227.404021 405.783123 
L 1228.396727 350.351129 
L 1229.389432 339.831846 
L 1230.382138 345.665586 
L 1231.374844 376.988852 
L 1232.36755 380.018038 
L 1233.360256 347.717581 
L 1234.352962 342.820697 
L 1235.345668 353.033439 
L 1236.338374 388.153097 
L 1238.323786 348.812565 
L 1239.316492 347.847485 
L 1240.309198 361.720444 
L 1241.301904 384.020548 
L 1242.29461 363.731134 
L 1243.287315 351.118108 
L 1244.280021 351.387527 
L 1245.272727 363.423698 
L 1245.272727 363.423698 
" clip-path="url(#p09a6d7894e)" style="fill: none; stroke: #1f77b4; stroke-width: 1.5; stroke-linecap: square"/>
   </g>
   <g id="patch_3">
    <path d="M 180 512.64 
L 180 69.12 
" style="fill: none; stroke: #000000; stroke-width: 0.8; stroke-linejoin: miter; stroke-linecap: square"/>
   </g>
   <g id="patch_4">
    <path d="M 1296 512.64 
L 1296 69.12 
" style="fill: none; stroke: #000000; stroke-width: 0.8; stroke-linejoin: miter; stroke-linecap: square"/>
   </g>
   <g id="patch_5">
    <path d="M 180 512.64 
L 1296 512.64 
" style="fill: none; stroke: #000000; stroke-width: 0.8; stroke-linejoin: miter; stroke-linecap: square"/>
   </g>
   <g id="patch_6">
    <path d="M 180 69.12 
L 1296 69.12 
" style="fill: none; stroke: #000000; stroke-width: 0.8; stroke-linejoin: miter; stroke-linecap: square"/>
   </g>
   <g id="text_13">
    <!-- source4-receiver12 -->
    <g transform="translate(544.9 60.80125) scale(0.4 -0.4)">
     <defs>
      <path id="DejaVuSans-73" d="M 2834 3397 
L 2834 2853 
Q 2591 2978 2328 3040 
Q 2066 3103 1784 3103 
Q 1356 3103 1142 2972 
Q 928 2841 928 2578 
Q 928 2378 1081 2264 
Q 1234 2150 1697 2047 
L 1894 2003 
Q 2506 1872 2764 1633 
Q 3022 1394 3022 966 
Q 3022 478 2636 193 
Q 2250 -91 1575 -91 
Q 1294 -91 989 -36 
Q 684 19 347 128 
L 347 722 
Q 666 556 975 473 
Q 1284 391 1588 391 
Q 1994 391 2212 530 
Q 2431 669 2431 922 
Q 2431 1156 2273 1281 
Q 2116 1406 1581 1522 
L 1381 1569 
Q 847 1681 609 1914 
Q 372 2147 372 2553 
Q 372 3047 722 3315 
Q 1072 3584 1716 3584 
Q 2034 3584 2315 3537 
Q 2597 3491 2834 3397 
z
" transform="scale(0.015625)"/>
      <path id="DejaVuSans-6f" d="M 1959 3097 
Q 1497 3097 1228 2736 
Q 959 2375 959 1747 
Q 959 1119 1226 758 
Q 1494 397 1959 397 
Q 2419 397 2687 759 
Q 2956 1122 2956 1747 
Q 2956 2369 2687 2733 
Q 2419 3097 1959 3097 
z
M 1959 3584 
Q 2709 3584 3137 3096 
Q 3566 2609 3566 1747 
Q 3566 888 3137 398 
Q 2709 -91 1959 -91 
Q 1206 -91 779 398 
Q 353 888 353 1747 
Q 353 2609 779 3096 
Q 1206 3584 1959 3584 
z
" transform="scale(0.015625)"/>
      <path id="DejaVuSans-75" d="M 544 1381 
L 544 3500 
L 1119 3500 
L 1119 1403 
Q 1119 906 1312 657 
Q 1506 409 1894 409 
Q 2359 409 2629 706 
Q 2900 1003 2900 1516 
L 2900 3500 
L 3475 3500 
L 3475 0 
L 2900 0 
L 2900 538 
Q 2691 219 2414 64 
Q 2138 -91 1772 -91 
Q 1169 -91 856 284 
Q 544 659 544 1381 
z
M 1991 3584 
L 1991 3584 
z
" transform="scale(0.015625)"/>
      <path id="DejaVuSans-72" d="M 2631 2963 
Q 2534 3019 2420 3045 
Q 2306 3072 2169 3072 
Q 1681 3072 1420 2755 
Q 1159 2438 1159 1844 
L 1159 0 
L 581 0 
L 581 3500 
L 1159 3500 
L 1159 2956 
Q 1341 3275 1631 3429 
Q 1922 3584 2338 3584 
Q 2397 3584 2469 3576 
Q 2541 3569 2628 3553 
L 2631 2963 
z
" transform="scale(0.015625)"/>
      <path id="DejaVuSans-63" d="M 3122 3366 
L 3122 2828 
Q 2878 2963 2633 3030 
Q 2388 3097 2138 3097 
Q 1578 3097 1268 2742 
Q 959 2388 959 1747 
Q 959 1106 1268 751 
Q 1578 397 2138 397 
Q 2388 397 2633 464 
Q 2878 531 3122 666 
L 3122 134 
Q 2881 22 2623 -34 
Q 2366 -91 2075 -91 
Q 1284 -91 818 406 
Q 353 903 353 1747 
Q 353 2603 823 3093 
Q 1294 3584 2113 3584 
Q 2378 3584 2631 3529 
Q 2884 3475 3122 3366 
z
" transform="scale(0.015625)"/>
      <path id="DejaVuSans-65" d="M 3597 1894 
L 3597 1613 
L 953 1613 
Q 991 1019 1311 708 
Q 1631 397 2203 397 
Q 2534 397 2845 478 
Q 3156 559 3463 722 
L 3463 178 
Q 3153 47 2828 -22 
Q 2503 -91 2169 -91 
Q 1331 -91 842 396 
Q 353 884 353 1716 
Q 353 2575 817 3079 
Q 1281 3584 2069 3584 
Q 2775 3584 3186 3129 
Q 3597 2675 3597 1894 
z
M 3022 2063 
Q 3016 2534 2758 2815 
Q 2500 3097 2075 3097 
Q 1594 3097 1305 2825 
Q 1016 2553 972 2059 
L 3022 2063 
z
" transform="scale(0.015625)"/>
      <path id="DejaVuSans-2d" d="M 313 2009 
L 1997 2009 
L 1997 1497 
L 313 1497 
L 313 2009 
z
" transform="scale(0.015625)"/>
      <path id="DejaVuSans-69" d="M 603 3500 
L 1178 3500 
L 1178 0 
L 603 0 
L 603 3500 
z
M 603 4863 
L 1178 4863 
L 1178 4134 
L 603 4134 
L 603 4863 
z
" transform="scale(0.015625)"/>
      <path id="DejaVuSans-76" d="M 191 3500 
L 800 3500 
L 1894 563 
L 2988 3500 
L 3597 3500 
L 2284 0 
L 1503 0 
L 191 3500 
z
" transform="scale(0.015625)"/>
     </defs>
     <use xlink:href="#DejaVuSans-73"/>
     <use xlink:href="#DejaVuSans-6f" x="52.099609"/>
     <use xlink:href="#DejaVuSans-75" x="113.28125"/>
     <use xlink:href="#DejaVuSans-72" x="176.660156"/>
     <use xlink:href="#DejaVuSans-63" x="215.523438"/>
     <use xlink:href="#DejaVuSans-65" x="270.503906"/>
     <use xlink:href="#DejaVuSans-34" x="332.027344"/>
     <use xlink:href="#DejaVuSans-2d" x="395.650391"/>
     <use xlink:href="#DejaVuSans-72" x="431.734375"/>
     <use xlink:href="#DejaVuSans-65" x="470.597656"/>
     <use xlink:href="#DejaVuSans-63" x="532.121094"/>
     <use xlink:href="#DejaVuSans-65" x="587.101562"/>
     <use xlink:href="#DejaVuSans-69" x="648.625"/>
     <use xlink:href="#DejaVuSans-76" x="676.408203"/>
     <use xlink:href="#DejaVuSans-65" x="735.587891"/>
     <use xlink:href="#DejaVuSans-72" x="797.111328"/>
     <use xlink:href="#DejaVuSans-31" x="838.224609"/>
     <use xlink:href="#DejaVuSans-32" x="901.847656"/>
    </g>
   </g>
  </g>
 </g>
 <defs>
  <clipPath id="p09a6d7894e">
   <rect x="180" y="69.12" width="1116" height="443.52"/>
  </clipPath>
 </defs>
</svg>
