<?xml version="1.0" encoding="utf-8" standalone="no"?>
<!DOCTYPE svg PUBLIC "-//W3C//DTD SVG 1.1//EN"
  "http://www.w3.org/Graphics/SVG/1.1/DTD/svg11.dtd">
<svg xmlns:xlink="http://www.w3.org/1999/xlink" width="1440pt" height="576pt" viewBox="0 0 1440 576" xmlns="http://www.w3.org/2000/svg" version="1.1">
 <metadata>
  <rdf:RDF xmlns:dc="http://purl.org/dc/elements/1.1/" xmlns:cc="http://creativecommons.org/ns#" xmlns:rdf="http://www.w3.org/1999/02/22-rdf-syntax-ns#">
   <cc:Work>
    <dc:type rdf:resource="http://purl.org/dc/dcmitype/StillImage"/>
    <dc:date>2024-05-22T04:49:45.531059</dc:date>
    <dc:format>image/svg+xml</dc:format>
    <dc:creator>
     <cc:Agent>
      <dc:title>Matplotlib v3.8.3, https://matplotlib.org/</dc:title>
     </cc:Agent>
    </dc:creator>
   </cc:Work>
  </rdf:RDF>
 </metadata>
 <defs>
  <style type="text/css">*{stroke-linejoin: round; stroke-linecap: butt}</style>
 </defs>
 <g id="figure_1">
  <g id="patch_1">
   <path d="M 0 576 
L 1440 576 
L 1440 0 
L 0 0 
z
" style="fill: #ffffff"/>
  </g>
  <g id="axes_1">
   <g id="patch_2">
    <path d="M 180 512.64 
L 1296 512.64 
L 1296 69.12 
L 180 69.12 
z
" style="fill: #ffffff"/>
   </g>
   <g id="matplotlib.axis_1">
    <g id="xtick_1">
     <g id="line2d_1">
      <defs>
       <path id="md9ed2f65eb" d="M 0 0 
L 0 3.5 
" style="stroke: #000000; stroke-width: 0.8"/>
      </defs>
      <g>
       <use xlink:href="#md9ed2f65eb" x="229.734567" y="512.64" style="stroke: #000000; stroke-width: 0.8"/>
      </g>
     </g>
     <g id="text_1">
      <!-- 0 -->
      <g transform="translate(226.553317 527.238438) scale(0.1 -0.1)">
       <defs>
        <path id="DejaVuSans-30" d="M 2034 4250 
Q 1547 4250 1301 3770 
Q 1056 3291 1056 2328 
Q 1056 1369 1301 889 
Q 1547 409 2034 409 
Q 2525 409 2770 889 
Q 3016 1369 3016 2328 
Q 3016 3291 2770 3770 
Q 2525 4250 2034 4250 
z
M 2034 4750 
Q 2819 4750 3233 4129 
Q 3647 3509 3647 2328 
Q 3647 1150 3233 529 
Q 2819 -91 2034 -91 
Q 1250 -91 836 529 
Q 422 1150 422 2328 
Q 422 3509 836 4129 
Q 1250 4750 2034 4750 
z
" transform="scale(0.015625)"/>
       </defs>
       <use xlink:href="#DejaVuSans-30"/>
      </g>
     </g>
    </g>
    <g id="xtick_2">
     <g id="line2d_2">
      <g>
       <use xlink:href="#md9ed2f65eb" x="433.04074" y="512.64" style="stroke: #000000; stroke-width: 0.8"/>
      </g>
     </g>
     <g id="text_2">
      <!-- 500 -->
      <g transform="translate(423.49699 527.238438) scale(0.1 -0.1)">
       <defs>
        <path id="DejaVuSans-35" d="M 691 4666 
L 3169 4666 
L 3169 4134 
L 1269 4134 
L 1269 2991 
Q 1406 3038 1543 3061 
Q 1681 3084 1819 3084 
Q 2600 3084 3056 2656 
Q 3513 2228 3513 1497 
Q 3513 744 3044 326 
Q 2575 -91 1722 -91 
Q 1428 -91 1123 -41 
Q 819 9 494 109 
L 494 744 
Q 775 591 1075 516 
Q 1375 441 1709 441 
Q 2250 441 2565 725 
Q 2881 1009 2881 1497 
Q 2881 1984 2565 2268 
Q 2250 2553 1709 2553 
Q 1456 2553 1204 2497 
Q 953 2441 691 2322 
L 691 4666 
z
" transform="scale(0.015625)"/>
       </defs>
       <use xlink:href="#DejaVuSans-35"/>
       <use xlink:href="#DejaVuSans-30" x="63.623047"/>
       <use xlink:href="#DejaVuSans-30" x="127.246094"/>
      </g>
     </g>
    </g>
    <g id="xtick_3">
     <g id="line2d_3">
      <g>
       <use xlink:href="#md9ed2f65eb" x="636.346913" y="512.64" style="stroke: #000000; stroke-width: 0.8"/>
      </g>
     </g>
     <g id="text_3">
      <!-- 1000 -->
      <g transform="translate(623.621913 527.238438) scale(0.1 -0.1)">
       <defs>
        <path id="DejaVuSans-31" d="M 794 531 
L 1825 531 
L 1825 4091 
L 703 3866 
L 703 4441 
L 1819 4666 
L 2450 4666 
L 2450 531 
L 3481 531 
L 3481 0 
L 794 0 
L 794 531 
z
" transform="scale(0.015625)"/>
       </defs>
       <use xlink:href="#DejaVuSans-31"/>
       <use xlink:href="#DejaVuSans-30" x="63.623047"/>
       <use xlink:href="#DejaVuSans-30" x="127.246094"/>
       <use xlink:href="#DejaVuSans-30" x="190.869141"/>
      </g>
     </g>
    </g>
    <g id="xtick_4">
     <g id="line2d_4">
      <g>
       <use xlink:href="#md9ed2f65eb" x="839.653087" y="512.64" style="stroke: #000000; stroke-width: 0.8"/>
      </g>
     </g>
     <g id="text_4">
      <!-- 1500 -->
      <g transform="translate(826.928087 527.238438) scale(0.1 -0.1)">
       <use xlink:href="#DejaVuSans-31"/>
       <use xlink:href="#DejaVuSans-35" x="63.623047"/>
       <use xlink:href="#DejaVuSans-30" x="127.246094"/>
       <use xlink:href="#DejaVuSans-30" x="190.869141"/>
      </g>
     </g>
    </g>
    <g id="xtick_5">
     <g id="line2d_5">
      <g>
       <use xlink:href="#md9ed2f65eb" x="1042.95926" y="512.64" style="stroke: #000000; stroke-width: 0.8"/>
      </g>
     </g>
     <g id="text_5">
      <!-- 2000 -->
      <g transform="translate(1030.23426 527.238438) scale(0.1 -0.1)">
       <defs>
        <path id="DejaVuSans-32" d="M 1228 531 
L 3431 531 
L 3431 0 
L 469 0 
L 469 531 
Q 828 903 1448 1529 
Q 2069 2156 2228 2338 
Q 2531 2678 2651 2914 
Q 2772 3150 2772 3378 
Q 2772 3750 2511 3984 
Q 2250 4219 1831 4219 
Q 1534 4219 1204 4116 
Q 875 4013 500 3803 
L 500 4441 
Q 881 4594 1212 4672 
Q 1544 4750 1819 4750 
Q 2544 4750 2975 4387 
Q 3406 4025 3406 3419 
Q 3406 3131 3298 2873 
Q 3191 2616 2906 2266 
Q 2828 2175 2409 1742 
Q 1991 1309 1228 531 
z
" transform="scale(0.015625)"/>
       </defs>
       <use xlink:href="#DejaVuSans-32"/>
       <use xlink:href="#DejaVuSans-30" x="63.623047"/>
       <use xlink:href="#DejaVuSans-30" x="127.246094"/>
       <use xlink:href="#DejaVuSans-30" x="190.869141"/>
      </g>
     </g>
    </g>
    <g id="xtick_6">
     <g id="line2d_6">
      <g>
       <use xlink:href="#md9ed2f65eb" x="1246.265433" y="512.64" style="stroke: #000000; stroke-width: 0.8"/>
      </g>
     </g>
     <g id="text_6">
      <!-- 2500 -->
      <g transform="translate(1233.540433 527.238438) scale(0.1 -0.1)">
       <use xlink:href="#DejaVuSans-32"/>
       <use xlink:href="#DejaVuSans-35" x="63.623047"/>
       <use xlink:href="#DejaVuSans-30" x="127.246094"/>
       <use xlink:href="#DejaVuSans-30" x="190.869141"/>
      </g>
     </g>
    </g>
   </g>
   <g id="matplotlib.axis_2">
    <g id="ytick_1">
     <g id="line2d_7">
      <defs>
       <path id="me2ebff5541" d="M 0 0 
L -3.5 0 
" style="stroke: #000000; stroke-width: 0.8"/>
      </defs>
      <g>
       <use xlink:href="#me2ebff5541" x="180" y="460.913654" style="stroke: #000000; stroke-width: 0.8"/>
      </g>
     </g>
     <g id="text_7">
      <!-- −4 -->
      <g transform="translate(158.257812 464.712873) scale(0.1 -0.1)">
       <defs>
        <path id="DejaVuSans-2212" d="M 678 2272 
L 4684 2272 
L 4684 1741 
L 678 1741 
L 678 2272 
z
" transform="scale(0.015625)"/>
        <path id="DejaVuSans-34" d="M 2419 4116 
L 825 1625 
L 2419 1625 
L 2419 4116 
z
M 2253 4666 
L 3047 4666 
L 3047 1625 
L 3713 1625 
L 3713 1100 
L 3047 1100 
L 3047 0 
L 2419 0 
L 2419 1100 
L 313 1100 
L 313 1709 
L 2253 4666 
z
" transform="scale(0.015625)"/>
       </defs>
       <use xlink:href="#DejaVuSans-2212"/>
       <use xlink:href="#DejaVuSans-34" x="83.789062"/>
      </g>
     </g>
    </g>
    <g id="ytick_2">
     <g id="line2d_8">
      <g>
       <use xlink:href="#me2ebff5541" x="180" y="374.74159" style="stroke: #000000; stroke-width: 0.8"/>
      </g>
     </g>
     <g id="text_8">
      <!-- −2 -->
      <g transform="translate(158.257812 378.540808) scale(0.1 -0.1)">
       <use xlink:href="#DejaVuSans-2212"/>
       <use xlink:href="#DejaVuSans-32" x="83.789062"/>
      </g>
     </g>
    </g>
    <g id="ytick_3">
     <g id="line2d_9">
      <g>
       <use xlink:href="#me2ebff5541" x="180" y="288.569525" style="stroke: #000000; stroke-width: 0.8"/>
      </g>
     </g>
     <g id="text_9">
      <!-- 0 -->
      <g transform="translate(166.6375 292.368744) scale(0.1 -0.1)">
       <use xlink:href="#DejaVuSans-30"/>
      </g>
     </g>
    </g>
    <g id="ytick_4">
     <g id="line2d_10">
      <g>
       <use xlink:href="#me2ebff5541" x="180" y="202.397461" style="stroke: #000000; stroke-width: 0.8"/>
      </g>
     </g>
     <g id="text_10">
      <!-- 2 -->
      <g transform="translate(166.6375 206.196679) scale(0.1 -0.1)">
       <use xlink:href="#DejaVuSans-32"/>
      </g>
     </g>
    </g>
    <g id="ytick_5">
     <g id="line2d_11">
      <g>
       <use xlink:href="#me2ebff5541" x="180" y="116.225396" style="stroke: #000000; stroke-width: 0.8"/>
      </g>
     </g>
     <g id="text_11">
      <!-- 4 -->
      <g transform="translate(166.6375 120.024615) scale(0.1 -0.1)">
       <use xlink:href="#DejaVuSans-34"/>
      </g>
     </g>
    </g>
   </g>
   <g id="line2d_12">
    <path d="M 230.727273 279.322469 
L 232.712685 279.138791 
L 236.683508 278.100811 
L 237.676214 277.809452 
L 241.647038 275.962592 
L 242.639744 275.431788 
L 244.625156 274.950375 
L 245.617862 272.768717 
L 246.610568 269.495276 
L 247.603273 272.869898 
L 248.595979 307.898752 
L 249.588685 273.945204 
L 250.581391 229.871918 
L 251.574097 210.177547 
L 252.566803 205.801019 
L 254.552215 221.676126 
L 255.544921 218.383088 
L 256.537627 227.648501 
L 257.530333 257.1256 
L 258.523039 211.602489 
L 259.515745 196.982004 
L 261.501156 218.942249 
L 262.493862 193.695374 
L 263.486568 192.439199 
L 264.479274 237.185132 
L 266.464686 177.047715 
L 267.457392 176.593964 
L 268.450098 200.071474 
L 269.442804 297.65844 
L 270.43551 233.575614 
L 271.428216 215.029245 
L 272.420922 192.131844 
L 273.413627 177.918153 
L 274.406333 175.889003 
L 275.399039 179.861861 
L 276.391745 164.572502 
L 277.384451 135.381479 
L 278.377157 113.158474 
L 279.369863 99.156308 
L 280.362569 91.68231 
L 281.355275 89.28 
L 282.347981 90.944028 
L 283.340687 95.594472 
L 284.333393 102.920698 
L 285.326099 112.78702 
L 287.31151 136.913382 
L 288.304216 152.121482 
L 289.296922 172.399068 
L 290.289628 179.952466 
L 291.282334 174.860632 
L 292.27504 183.959555 
L 293.267746 205.651086 
L 294.260452 204.853062 
L 295.253158 206.123953 
L 296.245864 232.124407 
L 297.23857 237.90282 
L 298.231276 227.821001 
L 299.223981 250.840387 
L 300.216687 285.460975 
L 301.209393 251.581067 
L 302.202099 268.768262 
L 303.194805 327.028524 
L 304.187511 276.463258 
L 305.180217 284.5378 
L 306.172923 297.709799 
L 307.165629 285.812232 
L 308.158335 298.001625 
L 309.151041 307.876421 
L 310.143747 295.817646 
L 311.136453 303.187692 
L 312.129159 308.685188 
L 313.121864 304.052989 
L 315.107276 310.712292 
L 316.099982 309.409807 
L 317.092688 309.530753 
L 318.085394 309.880665 
L 319.0781 316.794822 
L 320.070806 310.517759 
L 321.063512 315.037 
L 322.056218 320.880903 
L 323.048924 318.018832 
L 324.04163 317.53019 
L 325.034336 326.073642 
L 326.027041 321.867859 
L 327.019747 322.728407 
L 328.012453 332.711243 
L 329.005159 330.564268 
L 329.997865 329.065136 
L 330.990571 326.535149 
L 331.983277 337.361439 
L 332.975983 332.826138 
L 333.968689 321.779532 
L 334.961395 328.777275 
L 335.954101 340.135841 
L 337.939513 330.290741 
L 338.932218 333.309556 
L 339.924924 334.883238 
L 340.91763 337.838557 
L 341.910336 343.08966 
L 342.903042 341.326626 
L 343.895748 345.492104 
L 345.88116 340.697568 
L 346.873866 335.825027 
L 347.866572 340.638481 
L 348.859278 347.547523 
L 349.851984 346.320023 
L 350.84469 348.659947 
L 351.837395 345.533223 
L 352.830101 348.810468 
L 353.822807 343.691371 
L 354.815513 349.9437 
L 355.808219 347.427356 
L 356.800925 343.117082 
L 357.793631 355.246229 
L 358.786337 363.491998 
L 360.771749 348.672839 
L 361.764455 348.509919 
L 362.757161 350.584916 
L 363.749867 348.004839 
L 364.742572 355.890824 
L 365.735278 349.210738 
L 366.727984 353.632218 
L 367.72069 356.387174 
L 368.713396 357.478916 
L 369.706102 350.766575 
L 370.698808 340.657914 
L 371.691514 352.614614 
L 372.68422 358.42351 
L 373.676926 363.395868 
L 374.669632 354.056308 
L 375.662338 354.801223 
L 376.655044 364.832919 
L 377.64775 363.341449 
L 378.640455 353.717855 
L 379.633161 362.682804 
L 380.625867 358.118344 
L 381.618573 375.355941 
L 383.603985 368.96126 
L 384.596691 361.401201 
L 385.589397 362.892255 
L 386.582103 365.827171 
L 387.574809 361.386672 
L 388.567515 368.91882 
L 389.560221 360.223394 
L 390.552927 373.886774 
L 391.545632 358.589643 
L 392.538338 369.01065 
L 393.531044 369.482951 
L 394.52375 372.32903 
L 395.516456 370.26832 
L 396.509162 389.439473 
L 397.501868 366.809064 
L 398.494574 360.916975 
L 399.48728 370.879355 
L 400.479986 368.870672 
L 401.472692 372.818748 
L 402.465398 368.941649 
L 403.458104 363.66845 
L 404.450809 361.995416 
L 405.443515 375.550092 
L 406.436221 372.383892 
L 407.428927 370.096067 
L 408.421633 380.535315 
L 409.414339 362.946937 
L 410.407045 373.943749 
L 411.399751 365.763247 
L 412.392457 375.983248 
L 413.385163 375.264184 
L 414.377869 389.327016 
L 415.370575 374.31134 
L 416.363281 378.531769 
L 417.355986 385.225556 
L 418.348692 376.00812 
L 419.341398 377.758673 
L 420.334104 374.623373 
L 421.32681 377.528 
L 422.319516 384.667792 
L 423.312222 382.06046 
L 424.304928 370.134753 
L 425.297634 385.999896 
L 426.29034 397.153924 
L 427.283046 385.56802 
L 428.275752 407.789315 
L 429.268458 385.093845 
L 430.261163 384.764964 
L 431.253869 378.502942 
L 432.246575 375.31808 
L 433.239281 369.607724 
L 434.231987 373.815137 
L 435.224693 401.012477 
L 436.217399 375.115224 
L 437.210105 375.547393 
L 438.202811 384.456891 
L 439.195517 372.204913 
L 440.188223 379.197361 
L 441.180929 396.505895 
L 442.173635 378.720694 
L 443.166341 382.543709 
L 444.159046 372.734005 
L 445.151752 380.917662 
L 446.144458 394.655981 
L 447.137164 416.544319 
L 448.12987 390.091258 
L 449.122576 377.315934 
L 450.115282 382.612433 
L 451.107988 389.722701 
L 452.100694 383.505596 
L 453.0934 385.494156 
L 454.086106 372.386919 
L 455.078812 385.857846 
L 456.071518 393.357074 
L 457.064223 379.480231 
L 458.056929 380.514932 
L 459.049635 374.504716 
L 460.042341 412.538095 
L 461.035047 402.363202 
L 462.027753 367.774845 
L 463.020459 397.367781 
L 464.013165 378.294698 
L 465.005871 403.739546 
L 465.998577 395.094881 
L 466.991283 415.006672 
L 467.983989 388.631267 
L 468.976695 437.314029 
L 469.9694 408.890741 
L 470.962106 399.791058 
L 471.954812 387.825307 
L 472.947518 391.324602 
L 473.940224 396.774314 
L 474.93293 381.66157 
L 475.925636 402.355038 
L 476.918342 416.292278 
L 477.911048 405.232739 
L 478.903754 382.005641 
L 479.89646 396.700384 
L 480.889166 368.617167 
L 481.881872 370.930743 
L 482.874577 377.164692 
L 483.867283 405.430282 
L 484.859989 391.132913 
L 485.852695 409.254048 
L 486.845401 392.438987 
L 487.838107 382.473509 
L 488.830813 399.616169 
L 489.823519 394.609618 
L 490.816225 411.843579 
L 491.808931 380.515114 
L 492.801637 388.422391 
L 493.794343 393.071222 
L 494.787049 384.099255 
L 495.779754 378.296992 
L 496.77246 395.26794 
L 497.765166 380.266339 
L 498.757872 406.73128 
L 499.750578 423.039003 
L 500.743284 405.326903 
L 501.73599 406.392424 
L 503.721402 380.654086 
L 504.714108 411.164912 
L 505.706814 414.783712 
L 506.69952 400.786907 
L 507.692226 390.43496 
L 508.684932 402.2622 
L 509.677637 384.035236 
L 510.670343 419.063879 
L 511.663049 416.576192 
L 512.655755 436.447244 
L 513.648461 411.655367 
L 514.641167 397.169213 
L 515.633873 380.060222 
L 516.626579 401.686117 
L 517.619285 401.947913 
L 518.611991 492.48 
L 520.597403 399.038361 
L 521.590109 443.52597 
L 522.582814 406.611191 
L 523.57552 398.597314 
L 524.568226 424.088043 
L 525.560932 453.549101 
L 526.553638 392.669972 
L 527.546344 405.042004 
L 528.53905 395.466276 
L 529.531756 426.096356 
L 530.524462 417.087927 
L 531.517168 386.631227 
L 532.509874 378.121074 
L 533.50258 478.016439 
L 534.495286 398.463072 
L 535.487991 428.417577 
L 536.480697 397.679427 
L 537.473403 427.580392 
L 538.466109 407.723089 
L 539.458815 374.638352 
L 540.451521 376.874552 
L 541.444227 423.082849 
L 542.436933 388.736312 
L 543.429639 442.636122 
L 544.422345 372.54717 
L 545.415051 383.805407 
L 546.407757 398.788484 
L 547.400463 400.350576 
L 548.393168 398.948345 
L 549.385874 409.591281 
L 550.37858 482.312326 
L 551.371286 400.578815 
L 552.363992 378.729076 
L 553.356698 376.40691 
L 554.349404 389.017564 
L 555.34211 396.562256 
L 556.334816 396.462146 
L 557.327522 399.914359 
L 558.320228 420.010677 
L 559.312934 400.234906 
L 560.30564 427.027886 
L 561.298345 429.692755 
L 562.291051 424.186161 
L 563.283757 405.847668 
L 564.276463 372.647214 
L 566.261875 427.467987 
L 567.254581 436.423446 
L 568.247287 402.820767 
L 569.239993 396.477613 
L 570.232699 373.726443 
L 571.225405 393.668548 
L 572.218111 435.687541 
L 573.210817 436.80804 
L 574.203523 418.785861 
L 575.196228 414.304301 
L 576.188934 403.153554 
L 577.18164 423.894928 
L 578.174346 428.297628 
L 579.167052 394.361857 
L 580.159758 409.651786 
L 581.152464 390.491047 
L 582.14517 392.821714 
L 583.137876 411.31648 
L 584.130582 397.478267 
L 585.123288 472.074634 
L 586.115994 413.644935 
L 587.1087 416.922334 
L 588.101405 417.361599 
L 589.094111 409.058432 
L 590.086817 411.575514 
L 592.072229 429.41055 
L 593.064935 427.200384 
L 594.057641 394.704806 
L 595.050347 396.162348 
L 596.043053 411.992699 
L 597.035759 420.885475 
L 598.028465 422.973674 
L 599.021171 395.941229 
L 600.013877 401.172137 
L 601.006582 390.308269 
L 601.999288 400.34248 
L 602.991994 436.898342 
L 603.9847 404.079694 
L 604.977406 412.136687 
L 605.970112 406.208614 
L 606.962818 422.225178 
L 607.955524 411.557367 
L 608.94823 417.30568 
L 609.940936 406.114348 
L 610.933642 430.124962 
L 611.926348 415.336886 
L 612.919054 410.15134 
L 613.911759 410.381425 
L 614.904465 418.273386 
L 615.897171 424.386153 
L 616.889877 412.06303 
L 617.882583 420.647374 
L 618.875289 421.269455 
L 619.867995 420.717032 
L 620.860701 401.087316 
L 621.853407 419.958699 
L 622.846113 418.881785 
L 623.838819 415.974043 
L 624.831525 418.637244 
L 625.824231 412.648286 
L 626.816936 415.835482 
L 627.809642 413.269509 
L 628.802348 416.099316 
L 629.795054 418.38566 
L 630.78776 411.158374 
L 631.780466 430.260469 
L 632.773172 411.003311 
L 633.765878 415.084917 
L 634.758584 423.818553 
L 635.75129 412.926473 
L 636.743996 419.963001 
L 637.736702 419.00118 
L 638.729408 426.899899 
L 639.722114 414.771688 
L 640.714819 414.506481 
L 641.707525 408.997934 
L 642.700231 412.54513 
L 643.692937 414.54135 
L 644.685643 414.523009 
L 645.678349 413.865719 
L 646.671055 415.38359 
L 647.663761 419.241898 
L 648.656467 416.727702 
L 649.649173 420.364433 
L 650.641879 416.362846 
L 651.634585 416.372024 
L 652.627291 413.647002 
L 653.619996 417.653341 
L 654.612702 417.857017 
L 655.605408 430.062135 
L 656.598114 422.47976 
L 657.59082 426.504789 
L 658.583526 413.11238 
L 660.568938 421.65494 
L 661.561644 420.108141 
L 662.55435 423.749587 
L 663.547056 415.183186 
L 664.539762 422.220777 
L 665.532468 421.707463 
L 666.525173 419.56486 
L 667.517879 424.093417 
L 668.510585 420.248589 
L 669.503291 423.28515 
L 670.495997 419.201184 
L 671.488703 420.53521 
L 672.481409 418.94031 
L 673.474115 424.139994 
L 674.466821 423.926124 
L 675.459527 417.526246 
L 676.452233 418.76155 
L 677.444939 418.889886 
L 678.437645 425.017859 
L 679.43035 427.46906 
L 680.423056 422.569706 
L 681.415762 427.430076 
L 682.408468 418.564919 
L 683.401174 423.376756 
L 684.39388 421.853294 
L 685.386586 421.235769 
L 686.379292 423.206773 
L 687.371998 422.14551 
L 688.364704 423.606472 
L 689.35741 418.324385 
L 690.350116 422.396612 
L 691.342822 421.338069 
L 692.335527 422.152087 
L 693.328233 421.442165 
L 694.320939 422.818855 
L 696.306351 428.122624 
L 698.291763 422.118119 
L 699.284469 427.21342 
L 700.277175 424.615137 
L 701.269881 424.264718 
L 702.262587 421.886561 
L 703.255293 423.595943 
L 704.247999 423.475155 
L 705.240705 421.464324 
L 706.23341 426.17678 
L 707.226116 425.767975 
L 708.218822 424.713633 
L 709.211528 423.846263 
L 710.204234 426.647527 
L 711.19694 426.358622 
L 712.189646 426.362564 
L 713.182352 424.680436 
L 714.175058 424.283958 
L 715.167764 425.773675 
L 716.16047 424.391565 
L 717.153176 423.79702 
L 718.145882 425.773376 
L 719.138587 424.547241 
L 720.131293 426.798766 
L 721.123999 425.169345 
L 722.116705 425.271123 
L 723.109411 422.591458 
L 724.102117 424.475747 
L 725.094823 426.030533 
L 726.087529 428.378396 
L 727.080235 426.778765 
L 728.072941 425.979945 
L 729.065647 427.619736 
L 730.058353 426.17374 
L 731.051059 426.449091 
L 732.043764 426.192413 
L 733.03647 426.63711 
L 734.029176 424.327465 
L 735.021882 427.217399 
L 736.014588 425.466924 
L 737.007294 426.208173 
L 738 427.247265 
L 738.992706 428.520368 
L 739.985412 427.039409 
L 740.978118 426.274225 
L 741.970824 425.885013 
L 742.96353 425.630711 
L 743.956236 426.30568 
L 744.948941 427.539714 
L 745.941647 426.63193 
L 746.934353 426.870649 
L 747.927059 428.629224 
L 748.919765 429.460671 
L 749.912471 427.412387 
L 750.905177 428.488437 
L 751.897883 427.716602 
L 752.890589 428.760041 
L 753.883295 426.663617 
L 754.876001 426.652555 
L 755.868707 426.281492 
L 756.861413 429.430306 
L 757.854118 427.843981 
L 758.846824 430.822159 
L 759.83953 429.705115 
L 760.832236 429.606049 
L 761.824942 428.025173 
L 762.817648 428.372551 
L 763.810354 429.302894 
L 764.80306 429.149436 
L 766.788472 428.531911 
L 767.781178 431.392957 
L 768.773884 430.437934 
L 769.76659 428.89465 
L 770.759295 428.508339 
L 771.752001 429.418712 
L 772.744707 428.965611 
L 773.737413 428.211758 
L 774.730119 429.286888 
L 775.722825 429.657664 
L 776.715531 426.899572 
L 777.708237 431.515561 
L 778.700943 429.857014 
L 779.693649 429.527018 
L 780.686355 432.67726 
L 781.679061 429.874083 
L 782.671767 430.817801 
L 783.664473 430.735138 
L 784.657178 428.854102 
L 785.649884 432.513608 
L 786.64259 431.363936 
L 787.635296 431.736257 
L 788.628002 430.995982 
L 789.620708 430.011437 
L 790.613414 429.761296 
L 791.60612 429.772619 
L 792.598826 428.608125 
L 793.591532 429.34384 
L 794.584238 429.598365 
L 795.576944 432.099552 
L 796.56965 431.855301 
L 797.562355 431.021024 
L 798.555061 431.164317 
L 799.547767 432.345454 
L 800.540473 432.092381 
L 801.533179 429.679497 
L 802.525885 430.644044 
L 803.518591 430.473467 
L 804.511297 432.27417 
L 805.504003 431.180532 
L 806.496709 431.03258 
L 807.489415 433.234446 
L 808.482121 434.230796 
L 809.474827 430.854777 
L 810.467532 430.502238 
L 811.460238 430.876285 
L 812.452944 432.344359 
L 813.44565 431.50869 
L 814.438356 433.416522 
L 815.431062 431.788274 
L 816.423768 431.394396 
L 817.416474 432.126337 
L 818.40918 432.388877 
L 819.401886 432.935828 
L 821.387298 433.118683 
L 822.380004 433.617025 
L 823.372709 432.15424 
L 824.365415 432.596197 
L 825.358121 430.444943 
L 826.350827 434.438586 
L 827.343533 434.052603 
L 828.336239 434.828238 
L 829.328945 433.465829 
L 830.321651 433.822955 
L 831.314357 433.699567 
L 832.307063 432.974947 
L 833.299769 433.140423 
L 834.292475 433.802496 
L 835.285181 435.142082 
L 836.277886 434.667449 
L 837.270592 433.369979 
L 838.263298 432.885153 
L 839.256004 432.124999 
L 840.24871 432.991237 
L 841.241416 433.022441 
L 842.234122 431.733933 
L 843.226828 434.124904 
L 844.219534 434.693547 
L 845.21224 432.903676 
L 846.204946 432.118934 
L 847.197652 432.846614 
L 848.190358 432.057733 
L 849.183064 434.211708 
L 850.175769 434.893053 
L 851.168475 434.022682 
L 852.161181 434.013677 
L 853.153887 435.062213 
L 854.146593 434.586139 
L 855.139299 433.506173 
L 856.132005 435.185361 
L 857.124711 434.775013 
L 858.117417 432.83943 
L 859.110123 436.172161 
L 860.102829 436.075474 
L 861.095535 436.997835 
L 862.088241 433.841667 
L 863.080946 434.041351 
L 865.066358 434.274687 
L 866.059064 434.939873 
L 867.05177 432.737751 
L 868.044476 433.545977 
L 869.037182 436.598656 
L 870.029888 437.459202 
L 871.022594 432.892862 
L 873.008006 436.730198 
L 874.000712 434.684932 
L 874.993418 434.017993 
L 875.986123 434.233829 
L 876.978829 435.277906 
L 877.971535 434.032824 
L 878.964241 434.423164 
L 879.956947 435.534495 
L 880.949653 435.963492 
L 881.942359 435.763604 
L 882.935065 436.685283 
L 883.927771 436.712808 
L 884.920477 433.657177 
L 885.913183 436.86758 
L 886.905889 436.365667 
L 887.898595 435.32927 
L 888.8913 434.550383 
L 889.884006 436.96666 
L 890.876712 435.962527 
L 891.869418 435.789853 
L 892.862124 437.179282 
L 893.85483 434.466194 
L 894.847536 435.551976 
L 895.840242 434.649227 
L 896.832948 436.886117 
L 897.825654 435.905934 
L 898.81836 435.902921 
L 899.811066 437.082003 
L 900.803772 437.718953 
L 901.796477 435.974541 
L 902.789183 435.761833 
L 903.781889 434.861271 
L 904.774595 437.391754 
L 905.767301 436.407805 
L 906.760007 438.070967 
L 907.752713 436.791637 
L 908.745419 436.774607 
L 909.738125 435.529761 
L 910.730831 437.579769 
L 911.723537 438.054877 
L 912.716243 435.400978 
L 913.708949 437.292822 
L 914.701655 438.425527 
L 915.69436 438.441353 
L 916.687066 436.718317 
L 917.679772 435.398117 
L 918.672478 438.012295 
L 919.665184 436.421265 
L 921.650596 435.649034 
L 922.643302 434.990981 
L 923.636008 437.158446 
L 924.628714 437.892189 
L 925.62142 438.189771 
L 926.614126 436.505379 
L 927.606832 438.882581 
L 928.599537 436.896998 
L 929.592243 437.792012 
L 930.584949 436.910238 
L 931.577655 437.384711 
L 932.570361 437.061444 
L 933.563067 437.957938 
L 934.555773 436.958264 
L 935.548479 437.808735 
L 936.541185 436.534615 
L 937.533891 437.853346 
L 938.526597 438.715671 
L 939.519303 439.059392 
L 940.512009 437.336407 
L 941.504714 438.073253 
L 942.49742 436.805758 
L 943.490126 439.014566 
L 944.482832 436.117464 
L 945.475538 438.660099 
L 946.468244 436.620885 
L 947.46095 435.028529 
L 948.453656 438.289784 
L 949.446362 437.033915 
L 950.439068 440.06596 
L 951.431774 438.161695 
L 952.42448 438.683965 
L 953.417186 437.108827 
L 954.409891 438.792332 
L 955.402597 437.30904 
L 956.395303 438.112579 
L 957.388009 437.753523 
L 958.380715 440.715639 
L 959.373421 439.118199 
L 960.366127 438.382756 
L 961.358833 439.499944 
L 962.351539 439.5326 
L 963.344245 438.604843 
L 964.336951 438.625132 
L 965.329657 438.857611 
L 966.322363 437.559436 
L 967.315068 439.311444 
L 968.307774 438.252925 
L 970.293186 439.774795 
L 971.285892 440.961208 
L 972.278598 439.868496 
L 973.271304 439.612283 
L 974.26401 438.992518 
L 975.256716 437.854151 
L 976.249422 439.337893 
L 977.242128 439.148775 
L 978.234834 438.662003 
L 979.22754 439.560592 
L 981.212951 438.870663 
L 982.205657 438.874549 
L 983.198363 440.595496 
L 984.191069 437.439446 
L 985.183775 440.488044 
L 986.176481 439.154346 
L 987.169187 439.561366 
L 989.154599 439.725546 
L 990.147305 439.87011 
L 991.140011 438.287091 
L 992.132717 439.748915 
L 993.125423 439.347031 
L 994.118128 442.659088 
L 995.110834 437.840582 
L 996.10354 439.446666 
L 997.096246 441.696765 
L 998.088952 439.890083 
L 999.081658 439.665693 
L 1000.074364 440.394214 
L 1001.06707 439.745727 
L 1002.059776 441.515033 
L 1003.052482 438.775955 
L 1004.045188 440.320561 
L 1005.037894 441.318971 
L 1006.0306 441.62577 
L 1007.023305 441.039765 
L 1008.016011 441.518511 
L 1009.008717 439.765382 
L 1010.001423 440.31203 
L 1010.994129 439.078862 
L 1011.986835 438.101962 
L 1012.979541 438.900221 
L 1013.972247 440.396945 
L 1014.964953 444.446088 
L 1015.957659 440.173516 
L 1016.950365 438.780973 
L 1017.943071 438.527182 
L 1018.935777 437.913153 
L 1019.928482 442.103969 
L 1020.921188 440.83133 
L 1021.913894 436.847203 
L 1022.9066 439.32614 
L 1023.899306 441.093034 
L 1024.892012 444.100467 
L 1025.884718 438.684973 
L 1026.877424 440.806095 
L 1027.87013 440.747925 
L 1028.862836 442.069028 
L 1029.855542 440.938474 
L 1030.848248 437.991893 
L 1031.840954 438.464291 
L 1032.833659 442.825277 
L 1033.826365 440.660369 
L 1034.819071 439.485326 
L 1035.811777 440.218693 
L 1036.804483 440.697848 
L 1037.797189 443.464868 
L 1038.789895 440.540441 
L 1039.782601 442.034729 
L 1040.775307 441.748706 
L 1041.768013 442.156699 
L 1042.760719 439.886965 
L 1043.753425 439.779419 
L 1044.746131 443.127267 
L 1045.738837 440.322725 
L 1046.731542 439.086481 
L 1047.724248 440.540176 
L 1048.716954 440.839616 
L 1049.70966 438.541304 
L 1050.702366 441.358769 
L 1051.695072 443.207744 
L 1052.687778 440.358921 
L 1053.680484 440.420649 
L 1054.67319 441.774218 
L 1055.665896 443.383873 
L 1056.658602 440.326695 
L 1057.651308 441.887008 
L 1058.644014 441.075783 
L 1059.636719 440.584274 
L 1060.629425 442.612195 
L 1061.622131 440.093248 
L 1062.614837 440.810787 
L 1063.607543 441.772098 
L 1064.600249 438.949072 
L 1065.592955 440.39304 
L 1066.585661 444.03767 
L 1067.578367 442.148954 
L 1068.571073 443.848063 
L 1069.563779 442.079192 
L 1070.556485 442.351166 
L 1071.549191 439.861519 
L 1072.541896 440.398409 
L 1073.534602 439.979147 
L 1074.527308 442.922944 
L 1075.520014 444.67416 
L 1076.51272 443.661341 
L 1077.505426 440.895339 
L 1078.498132 442.75093 
L 1079.490838 439.810907 
L 1080.483544 444.011839 
L 1081.47625 441.433512 
L 1083.461662 442.533111 
L 1084.454368 445.346906 
L 1085.447073 444.579127 
L 1086.439779 439.785323 
L 1087.432485 441.953573 
L 1088.425191 442.017349 
L 1089.417897 442.824516 
L 1090.410603 442.063659 
L 1091.403309 441.639161 
L 1092.396015 442.14122 
L 1093.388721 441.169812 
L 1094.381427 442.365863 
L 1095.374133 442.778089 
L 1096.366839 443.894002 
L 1097.359545 441.807527 
L 1098.35225 444.071906 
L 1099.344956 442.899823 
L 1100.337662 442.373445 
L 1101.330368 440.856496 
L 1102.323074 441.865623 
L 1103.31578 441.584335 
L 1104.308486 442.549744 
L 1105.301192 440.623871 
L 1106.293898 440.978928 
L 1107.286604 442.868337 
L 1108.27931 441.178309 
L 1109.272016 442.546473 
L 1110.264722 438.484207 
L 1111.257428 442.957163 
L 1112.250133 444.02779 
L 1113.242839 441.58144 
L 1114.235545 440.46279 
L 1115.228251 442.875899 
L 1116.220957 443.512052 
L 1117.213663 441.26479 
L 1118.206369 441.119078 
L 1119.199075 441.284767 
L 1120.191781 444.59288 
L 1121.184487 441.653405 
L 1122.177193 441.020459 
L 1123.169899 442.185848 
L 1124.162605 440.004447 
L 1125.15531 441.08738 
L 1126.148016 443.288829 
L 1127.140722 442.464553 
L 1128.133428 441.838458 
L 1130.11884 442.214518 
L 1131.111546 442.118772 
L 1132.104252 445.084762 
L 1133.096958 443.540194 
L 1134.089664 444.286234 
L 1135.08237 442.847256 
L 1136.075076 444.73813 
L 1137.067782 444.926914 
L 1138.060487 440.56054 
L 1139.053193 442.713696 
L 1140.045899 441.480527 
L 1141.038605 441.754021 
L 1142.031311 443.424328 
L 1143.024017 442.126067 
L 1144.016723 442.504148 
L 1145.009429 444.591216 
L 1146.002135 442.94225 
L 1146.994841 443.304383 
L 1147.987547 441.891071 
L 1148.980253 442.694615 
L 1149.972959 442.043869 
L 1150.965664 440.422172 
L 1151.95837 443.760887 
L 1152.951076 442.221347 
L 1153.943782 441.237783 
L 1154.936488 442.550984 
L 1155.929194 442.524144 
L 1156.9219 442.807404 
L 1157.914606 442.068409 
L 1158.907312 444.673554 
L 1159.900018 442.446822 
L 1160.892724 443.159679 
L 1161.88543 442.481921 
L 1162.878136 442.141093 
L 1163.870841 441.616305 
L 1164.863547 441.824313 
L 1165.856253 445.214905 
L 1166.848959 441.830299 
L 1167.841665 441.231092 
L 1168.834371 444.322136 
L 1169.827077 442.741288 
L 1170.819783 441.876807 
L 1171.812489 440.693167 
L 1172.805195 443.349051 
L 1173.797901 443.902418 
L 1174.790607 445.656294 
L 1175.783313 442.530366 
L 1176.776019 442.629563 
L 1177.768724 440.766884 
L 1178.76143 443.895261 
L 1179.754136 443.245677 
L 1181.739548 445.070368 
L 1182.732254 442.811983 
L 1183.72496 443.872341 
L 1184.717666 445.567273 
L 1185.710372 444.868672 
L 1186.703078 443.880666 
L 1187.695784 440.705202 
L 1188.68849 442.085959 
L 1190.673901 442.653305 
L 1191.666607 441.886129 
L 1192.659313 444.863477 
L 1193.652019 442.139401 
L 1194.644725 444.387283 
L 1195.637431 447.335203 
L 1196.630137 443.363165 
L 1197.622843 442.406189 
L 1198.615549 443.035365 
L 1199.608255 442.867831 
L 1200.600961 442.180016 
L 1201.593667 443.839732 
L 1202.586373 439.966541 
L 1203.579078 442.735206 
L 1204.571784 443.88979 
L 1205.56449 443.753043 
L 1206.557196 443.283453 
L 1207.549902 441.853211 
L 1208.542608 444.345418 
L 1209.535314 443.311303 
L 1210.52802 446.176973 
L 1211.520726 442.00303 
L 1212.513432 443.507777 
L 1213.506138 442.275561 
L 1214.498844 445.534997 
L 1215.49155 445.532019 
L 1216.484255 444.279415 
L 1217.476961 442.47848 
L 1218.469667 442.393327 
L 1219.462373 443.025194 
L 1220.455079 442.295651 
L 1221.447785 445.733243 
L 1222.440491 442.122346 
L 1223.433197 442.792416 
L 1225.418609 444.566693 
L 1226.411315 444.057164 
L 1227.404021 444.534574 
L 1228.396727 445.406376 
L 1229.389432 443.420329 
L 1230.382138 443.738538 
L 1231.374844 443.697195 
L 1232.36755 442.706858 
L 1233.360256 442.580263 
L 1234.352962 443.971971 
L 1235.345668 444.488793 
L 1236.338374 443.35476 
L 1237.33108 440.867397 
L 1238.323786 440.72191 
L 1239.316492 442.305388 
L 1240.309198 445.09855 
L 1241.301904 444.096915 
L 1242.29461 442.501034 
L 1243.287315 446.600566 
L 1244.280021 439.975027 
L 1245.272727 444.81569 
L 1245.272727 444.81569 
" clip-path="url(#p6f63eae8df)" style="fill: none; stroke: #1f77b4; stroke-width: 1.5; stroke-linecap: square"/>
   </g>
   <g id="patch_3">
    <path d="M 180 512.64 
L 180 69.12 
" style="fill: none; stroke: #000000; stroke-width: 0.8; stroke-linejoin: miter; stroke-linecap: square"/>
   </g>
   <g id="patch_4">
    <path d="M 1296 512.64 
L 1296 69.12 
" style="fill: none; stroke: #000000; stroke-width: 0.8; stroke-linejoin: miter; stroke-linecap: square"/>
   </g>
   <g id="patch_5">
    <path d="M 180 512.64 
L 1296 512.64 
" style="fill: none; stroke: #000000; stroke-width: 0.8; stroke-linejoin: miter; stroke-linecap: square"/>
   </g>
   <g id="patch_6">
    <path d="M 180 69.12 
L 1296 69.12 
" style="fill: none; stroke: #000000; stroke-width: 0.8; stroke-linejoin: miter; stroke-linecap: square"/>
   </g>
   <g id="text_12">
    <!-- source4-receiver14 -->
    <g transform="translate(544.9 60.80125) scale(0.4 -0.4)">
     <defs>
      <path id="DejaVuSans-73" d="M 2834 3397 
L 2834 2853 
Q 2591 2978 2328 3040 
Q 2066 3103 1784 3103 
Q 1356 3103 1142 2972 
Q 928 2841 928 2578 
Q 928 2378 1081 2264 
Q 1234 2150 1697 2047 
L 1894 2003 
Q 2506 1872 2764 1633 
Q 3022 1394 3022 966 
Q 3022 478 2636 193 
Q 2250 -91 1575 -91 
Q 1294 -91 989 -36 
Q 684 19 347 128 
L 347 722 
Q 666 556 975 473 
Q 1284 391 1588 391 
Q 1994 391 2212 530 
Q 2431 669 2431 922 
Q 2431 1156 2273 1281 
Q 2116 1406 1581 1522 
L 1381 1569 
Q 847 1681 609 1914 
Q 372 2147 372 2553 
Q 372 3047 722 3315 
Q 1072 3584 1716 3584 
Q 2034 3584 2315 3537 
Q 2597 3491 2834 3397 
z
" transform="scale(0.015625)"/>
      <path id="DejaVuSans-6f" d="M 1959 3097 
Q 1497 3097 1228 2736 
Q 959 2375 959 1747 
Q 959 1119 1226 758 
Q 1494 397 1959 397 
Q 2419 397 2687 759 
Q 2956 1122 2956 1747 
Q 2956 2369 2687 2733 
Q 2419 3097 1959 3097 
z
M 1959 3584 
Q 2709 3584 3137 3096 
Q 3566 2609 3566 1747 
Q 3566 888 3137 398 
Q 2709 -91 1959 -91 
Q 1206 -91 779 398 
Q 353 888 353 1747 
Q 353 2609 779 3096 
Q 1206 3584 1959 3584 
z
" transform="scale(0.015625)"/>
      <path id="DejaVuSans-75" d="M 544 1381 
L 544 3500 
L 1119 3500 
L 1119 1403 
Q 1119 906 1312 657 
Q 1506 409 1894 409 
Q 2359 409 2629 706 
Q 2900 1003 2900 1516 
L 2900 3500 
L 3475 3500 
L 3475 0 
L 2900 0 
L 2900 538 
Q 2691 219 2414 64 
Q 2138 -91 1772 -91 
Q 1169 -91 856 284 
Q 544 659 544 1381 
z
M 1991 3584 
L 1991 3584 
z
" transform="scale(0.015625)"/>
      <path id="DejaVuSans-72" d="M 2631 2963 
Q 2534 3019 2420 3045 
Q 2306 3072 2169 3072 
Q 1681 3072 1420 2755 
Q 1159 2438 1159 1844 
L 1159 0 
L 581 0 
L 581 3500 
L 1159 3500 
L 1159 2956 
Q 1341 3275 1631 3429 
Q 1922 3584 2338 3584 
Q 2397 3584 2469 3576 
Q 2541 3569 2628 3553 
L 2631 2963 
z
" transform="scale(0.015625)"/>
      <path id="DejaVuSans-63" d="M 3122 3366 
L 3122 2828 
Q 2878 2963 2633 3030 
Q 2388 3097 2138 3097 
Q 1578 3097 1268 2742 
Q 959 2388 959 1747 
Q 959 1106 1268 751 
Q 1578 397 2138 397 
Q 2388 397 2633 464 
Q 2878 531 3122 666 
L 3122 134 
Q 2881 22 2623 -34 
Q 2366 -91 2075 -91 
Q 1284 -91 818 406 
Q 353 903 353 1747 
Q 353 2603 823 3093 
Q 1294 3584 2113 3584 
Q 2378 3584 2631 3529 
Q 2884 3475 3122 3366 
z
" transform="scale(0.015625)"/>
      <path id="DejaVuSans-65" d="M 3597 1894 
L 3597 1613 
L 953 1613 
Q 991 1019 1311 708 
Q 1631 397 2203 397 
Q 2534 397 2845 478 
Q 3156 559 3463 722 
L 3463 178 
Q 3153 47 2828 -22 
Q 2503 -91 2169 -91 
Q 1331 -91 842 396 
Q 353 884 353 1716 
Q 353 2575 817 3079 
Q 1281 3584 2069 3584 
Q 2775 3584 3186 3129 
Q 3597 2675 3597 1894 
z
M 3022 2063 
Q 3016 2534 2758 2815 
Q 2500 3097 2075 3097 
Q 1594 3097 1305 2825 
Q 1016 2553 972 2059 
L 3022 2063 
z
" transform="scale(0.015625)"/>
      <path id="DejaVuSans-2d" d="M 313 2009 
L 1997 2009 
L 1997 1497 
L 313 1497 
L 313 2009 
z
" transform="scale(0.015625)"/>
      <path id="DejaVuSans-69" d="M 603 3500 
L 1178 3500 
L 1178 0 
L 603 0 
L 603 3500 
z
M 603 4863 
L 1178 4863 
L 1178 4134 
L 603 4134 
L 603 4863 
z
" transform="scale(0.015625)"/>
      <path id="DejaVuSans-76" d="M 191 3500 
L 800 3500 
L 1894 563 
L 2988 3500 
L 3597 3500 
L 2284 0 
L 1503 0 
L 191 3500 
z
" transform="scale(0.015625)"/>
     </defs>
     <use xlink:href="#DejaVuSans-73"/>
     <use xlink:href="#DejaVuSans-6f" x="52.099609"/>
     <use xlink:href="#DejaVuSans-75" x="113.28125"/>
     <use xlink:href="#DejaVuSans-72" x="176.660156"/>
     <use xlink:href="#DejaVuSans-63" x="215.523438"/>
     <use xlink:href="#DejaVuSans-65" x="270.503906"/>
     <use xlink:href="#DejaVuSans-34" x="332.027344"/>
     <use xlink:href="#DejaVuSans-2d" x="395.650391"/>
     <use xlink:href="#DejaVuSans-72" x="431.734375"/>
     <use xlink:href="#DejaVuSans-65" x="470.597656"/>
     <use xlink:href="#DejaVuSans-63" x="532.121094"/>
     <use xlink:href="#DejaVuSans-65" x="587.101562"/>
     <use xlink:href="#DejaVuSans-69" x="648.625"/>
     <use xlink:href="#DejaVuSans-76" x="676.408203"/>
     <use xlink:href="#DejaVuSans-65" x="735.587891"/>
     <use xlink:href="#DejaVuSans-72" x="797.111328"/>
     <use xlink:href="#DejaVuSans-31" x="838.224609"/>
     <use xlink:href="#DejaVuSans-34" x="901.847656"/>
    </g>
   </g>
  </g>
 </g>
 <defs>
  <clipPath id="p6f63eae8df">
   <rect x="180" y="69.12" width="1116" height="443.52"/>
  </clipPath>
 </defs>
</svg>
