<?xml version="1.0" encoding="utf-8" standalone="no"?>
<!DOCTYPE svg PUBLIC "-//W3C//DTD SVG 1.1//EN"
  "http://www.w3.org/Graphics/SVG/1.1/DTD/svg11.dtd">
<svg xmlns:xlink="http://www.w3.org/1999/xlink" width="1440pt" height="576pt" viewBox="0 0 1440 576" xmlns="http://www.w3.org/2000/svg" version="1.1">
 <metadata>
  <rdf:RDF xmlns:dc="http://purl.org/dc/elements/1.1/" xmlns:cc="http://creativecommons.org/ns#" xmlns:rdf="http://www.w3.org/1999/02/22-rdf-syntax-ns#">
   <cc:Work>
    <dc:type rdf:resource="http://purl.org/dc/dcmitype/StillImage"/>
    <dc:date>2024-05-22T04:49:45.605336</dc:date>
    <dc:format>image/svg+xml</dc:format>
    <dc:creator>
     <cc:Agent>
      <dc:title>Matplotlib v3.8.3, https://matplotlib.org/</dc:title>
     </cc:Agent>
    </dc:creator>
   </cc:Work>
  </rdf:RDF>
 </metadata>
 <defs>
  <style type="text/css">*{stroke-linejoin: round; stroke-linecap: butt}</style>
 </defs>
 <g id="figure_1">
  <g id="patch_1">
   <path d="M 0 576 
L 1440 576 
L 1440 0 
L 0 0 
z
" style="fill: #ffffff"/>
  </g>
  <g id="axes_1">
   <g id="patch_2">
    <path d="M 180 512.64 
L 1296 512.64 
L 1296 69.12 
L 180 69.12 
z
" style="fill: #ffffff"/>
   </g>
   <g id="matplotlib.axis_1">
    <g id="xtick_1">
     <g id="line2d_1">
      <defs>
       <path id="md59e45f4aa" d="M 0 0 
L 0 3.5 
" style="stroke: #000000; stroke-width: 0.8"/>
      </defs>
      <g>
       <use xlink:href="#md59e45f4aa" x="229.734567" y="512.64" style="stroke: #000000; stroke-width: 0.8"/>
      </g>
     </g>
     <g id="text_1">
      <!-- 0 -->
      <g transform="translate(226.553317 527.238438) scale(0.1 -0.1)">
       <defs>
        <path id="DejaVuSans-30" d="M 2034 4250 
Q 1547 4250 1301 3770 
Q 1056 3291 1056 2328 
Q 1056 1369 1301 889 
Q 1547 409 2034 409 
Q 2525 409 2770 889 
Q 3016 1369 3016 2328 
Q 3016 3291 2770 3770 
Q 2525 4250 2034 4250 
z
M 2034 4750 
Q 2819 4750 3233 4129 
Q 3647 3509 3647 2328 
Q 3647 1150 3233 529 
Q 2819 -91 2034 -91 
Q 1250 -91 836 529 
Q 422 1150 422 2328 
Q 422 3509 836 4129 
Q 1250 4750 2034 4750 
z
" transform="scale(0.015625)"/>
       </defs>
       <use xlink:href="#DejaVuSans-30"/>
      </g>
     </g>
    </g>
    <g id="xtick_2">
     <g id="line2d_2">
      <g>
       <use xlink:href="#md59e45f4aa" x="433.04074" y="512.64" style="stroke: #000000; stroke-width: 0.8"/>
      </g>
     </g>
     <g id="text_2">
      <!-- 500 -->
      <g transform="translate(423.49699 527.238438) scale(0.1 -0.1)">
       <defs>
        <path id="DejaVuSans-35" d="M 691 4666 
L 3169 4666 
L 3169 4134 
L 1269 4134 
L 1269 2991 
Q 1406 3038 1543 3061 
Q 1681 3084 1819 3084 
Q 2600 3084 3056 2656 
Q 3513 2228 3513 1497 
Q 3513 744 3044 326 
Q 2575 -91 1722 -91 
Q 1428 -91 1123 -41 
Q 819 9 494 109 
L 494 744 
Q 775 591 1075 516 
Q 1375 441 1709 441 
Q 2250 441 2565 725 
Q 2881 1009 2881 1497 
Q 2881 1984 2565 2268 
Q 2250 2553 1709 2553 
Q 1456 2553 1204 2497 
Q 953 2441 691 2322 
L 691 4666 
z
" transform="scale(0.015625)"/>
       </defs>
       <use xlink:href="#DejaVuSans-35"/>
       <use xlink:href="#DejaVuSans-30" x="63.623047"/>
       <use xlink:href="#DejaVuSans-30" x="127.246094"/>
      </g>
     </g>
    </g>
    <g id="xtick_3">
     <g id="line2d_3">
      <g>
       <use xlink:href="#md59e45f4aa" x="636.346913" y="512.64" style="stroke: #000000; stroke-width: 0.8"/>
      </g>
     </g>
     <g id="text_3">
      <!-- 1000 -->
      <g transform="translate(623.621913 527.238438) scale(0.1 -0.1)">
       <defs>
        <path id="DejaVuSans-31" d="M 794 531 
L 1825 531 
L 1825 4091 
L 703 3866 
L 703 4441 
L 1819 4666 
L 2450 4666 
L 2450 531 
L 3481 531 
L 3481 0 
L 794 0 
L 794 531 
z
" transform="scale(0.015625)"/>
       </defs>
       <use xlink:href="#DejaVuSans-31"/>
       <use xlink:href="#DejaVuSans-30" x="63.623047"/>
       <use xlink:href="#DejaVuSans-30" x="127.246094"/>
       <use xlink:href="#DejaVuSans-30" x="190.869141"/>
      </g>
     </g>
    </g>
    <g id="xtick_4">
     <g id="line2d_4">
      <g>
       <use xlink:href="#md59e45f4aa" x="839.653087" y="512.64" style="stroke: #000000; stroke-width: 0.8"/>
      </g>
     </g>
     <g id="text_4">
      <!-- 1500 -->
      <g transform="translate(826.928087 527.238438) scale(0.1 -0.1)">
       <use xlink:href="#DejaVuSans-31"/>
       <use xlink:href="#DejaVuSans-35" x="63.623047"/>
       <use xlink:href="#DejaVuSans-30" x="127.246094"/>
       <use xlink:href="#DejaVuSans-30" x="190.869141"/>
      </g>
     </g>
    </g>
    <g id="xtick_5">
     <g id="line2d_5">
      <g>
       <use xlink:href="#md59e45f4aa" x="1042.95926" y="512.64" style="stroke: #000000; stroke-width: 0.8"/>
      </g>
     </g>
     <g id="text_5">
      <!-- 2000 -->
      <g transform="translate(1030.23426 527.238438) scale(0.1 -0.1)">
       <defs>
        <path id="DejaVuSans-32" d="M 1228 531 
L 3431 531 
L 3431 0 
L 469 0 
L 469 531 
Q 828 903 1448 1529 
Q 2069 2156 2228 2338 
Q 2531 2678 2651 2914 
Q 2772 3150 2772 3378 
Q 2772 3750 2511 3984 
Q 2250 4219 1831 4219 
Q 1534 4219 1204 4116 
Q 875 4013 500 3803 
L 500 4441 
Q 881 4594 1212 4672 
Q 1544 4750 1819 4750 
Q 2544 4750 2975 4387 
Q 3406 4025 3406 3419 
Q 3406 3131 3298 2873 
Q 3191 2616 2906 2266 
Q 2828 2175 2409 1742 
Q 1991 1309 1228 531 
z
" transform="scale(0.015625)"/>
       </defs>
       <use xlink:href="#DejaVuSans-32"/>
       <use xlink:href="#DejaVuSans-30" x="63.623047"/>
       <use xlink:href="#DejaVuSans-30" x="127.246094"/>
       <use xlink:href="#DejaVuSans-30" x="190.869141"/>
      </g>
     </g>
    </g>
    <g id="xtick_6">
     <g id="line2d_6">
      <g>
       <use xlink:href="#md59e45f4aa" x="1246.265433" y="512.64" style="stroke: #000000; stroke-width: 0.8"/>
      </g>
     </g>
     <g id="text_6">
      <!-- 2500 -->
      <g transform="translate(1233.540433 527.238438) scale(0.1 -0.1)">
       <use xlink:href="#DejaVuSans-32"/>
       <use xlink:href="#DejaVuSans-35" x="63.623047"/>
       <use xlink:href="#DejaVuSans-30" x="127.246094"/>
       <use xlink:href="#DejaVuSans-30" x="190.869141"/>
      </g>
     </g>
    </g>
   </g>
   <g id="matplotlib.axis_2">
    <g id="ytick_1">
     <g id="line2d_7">
      <defs>
       <path id="m117f8c5147" d="M 0 0 
L -3.5 0 
" style="stroke: #000000; stroke-width: 0.8"/>
      </defs>
      <g>
       <use xlink:href="#m117f8c5147" x="180" y="492.433739" style="stroke: #000000; stroke-width: 0.8"/>
      </g>
     </g>
     <g id="text_7">
      <!-- −6 -->
      <g transform="translate(158.257812 496.232958) scale(0.1 -0.1)">
       <defs>
        <path id="DejaVuSans-2212" d="M 678 2272 
L 4684 2272 
L 4684 1741 
L 678 1741 
L 678 2272 
z
" transform="scale(0.015625)"/>
        <path id="DejaVuSans-36" d="M 2113 2584 
Q 1688 2584 1439 2293 
Q 1191 2003 1191 1497 
Q 1191 994 1439 701 
Q 1688 409 2113 409 
Q 2538 409 2786 701 
Q 3034 994 3034 1497 
Q 3034 2003 2786 2293 
Q 2538 2584 2113 2584 
z
M 3366 4563 
L 3366 3988 
Q 3128 4100 2886 4159 
Q 2644 4219 2406 4219 
Q 1781 4219 1451 3797 
Q 1122 3375 1075 2522 
Q 1259 2794 1537 2939 
Q 1816 3084 2150 3084 
Q 2853 3084 3261 2657 
Q 3669 2231 3669 1497 
Q 3669 778 3244 343 
Q 2819 -91 2113 -91 
Q 1303 -91 875 529 
Q 447 1150 447 2328 
Q 447 3434 972 4092 
Q 1497 4750 2381 4750 
Q 2619 4750 2861 4703 
Q 3103 4656 3366 4563 
z
" transform="scale(0.015625)"/>
       </defs>
       <use xlink:href="#DejaVuSans-2212"/>
       <use xlink:href="#DejaVuSans-36" x="83.789062"/>
      </g>
     </g>
    </g>
    <g id="ytick_2">
     <g id="line2d_8">
      <g>
       <use xlink:href="#m117f8c5147" x="180" y="415.387496" style="stroke: #000000; stroke-width: 0.8"/>
      </g>
     </g>
     <g id="text_8">
      <!-- −4 -->
      <g transform="translate(158.257812 419.186715) scale(0.1 -0.1)">
       <defs>
        <path id="DejaVuSans-34" d="M 2419 4116 
L 825 1625 
L 2419 1625 
L 2419 4116 
z
M 2253 4666 
L 3047 4666 
L 3047 1625 
L 3713 1625 
L 3713 1100 
L 3047 1100 
L 3047 0 
L 2419 0 
L 2419 1100 
L 313 1100 
L 313 1709 
L 2253 4666 
z
" transform="scale(0.015625)"/>
       </defs>
       <use xlink:href="#DejaVuSans-2212"/>
       <use xlink:href="#DejaVuSans-34" x="83.789062"/>
      </g>
     </g>
    </g>
    <g id="ytick_3">
     <g id="line2d_9">
      <g>
       <use xlink:href="#m117f8c5147" x="180" y="338.341253" style="stroke: #000000; stroke-width: 0.8"/>
      </g>
     </g>
     <g id="text_9">
      <!-- −2 -->
      <g transform="translate(158.257812 342.140472) scale(0.1 -0.1)">
       <use xlink:href="#DejaVuSans-2212"/>
       <use xlink:href="#DejaVuSans-32" x="83.789062"/>
      </g>
     </g>
    </g>
    <g id="ytick_4">
     <g id="line2d_10">
      <g>
       <use xlink:href="#m117f8c5147" x="180" y="261.29501" style="stroke: #000000; stroke-width: 0.8"/>
      </g>
     </g>
     <g id="text_10">
      <!-- 0 -->
      <g transform="translate(166.6375 265.094229) scale(0.1 -0.1)">
       <use xlink:href="#DejaVuSans-30"/>
      </g>
     </g>
    </g>
    <g id="ytick_5">
     <g id="line2d_11">
      <g>
       <use xlink:href="#m117f8c5147" x="180" y="184.248767" style="stroke: #000000; stroke-width: 0.8"/>
      </g>
     </g>
     <g id="text_11">
      <!-- 2 -->
      <g transform="translate(166.6375 188.047986) scale(0.1 -0.1)">
       <use xlink:href="#DejaVuSans-32"/>
      </g>
     </g>
    </g>
    <g id="ytick_6">
     <g id="line2d_12">
      <g>
       <use xlink:href="#m117f8c5147" x="180" y="107.202524" style="stroke: #000000; stroke-width: 0.8"/>
      </g>
     </g>
     <g id="text_12">
      <!-- 4 -->
      <g transform="translate(166.6375 111.001743) scale(0.1 -0.1)">
       <use xlink:href="#DejaVuSans-34"/>
      </g>
     </g>
    </g>
   </g>
   <g id="line2d_13">
    <path d="M 230.727273 293.461966 
L 231.719979 293.328088 
L 232.712685 293.034213 
L 233.70539 292.450195 
L 234.698096 291.729898 
L 235.690802 290.863247 
L 236.683508 289.765228 
L 238.66892 286.794502 
L 239.661626 285.109068 
L 240.654332 283.150657 
L 241.647038 280.747414 
L 242.639744 277.945131 
L 243.63245 274.450665 
L 245.617862 261.84903 
L 246.610568 263.19952 
L 247.603273 276.168616 
L 248.595979 242.863723 
L 249.588685 217.744932 
L 250.581391 212.726633 
L 251.574097 221.746798 
L 252.566803 193.291149 
L 253.559509 171.66933 
L 254.552215 167.009102 
L 255.544921 173.945906 
L 256.537627 170.453569 
L 257.530333 162.379331 
L 258.523039 172.758388 
L 259.515745 203.906837 
L 260.50845 173.206301 
L 261.501156 172.897256 
L 262.493862 233.839815 
L 263.486568 170.232028 
L 264.479274 157.701759 
L 265.47198 171.029498 
L 266.464686 166.493054 
L 267.457392 155.80481 
L 268.450098 176.170731 
L 269.442804 204.884175 
L 270.43551 160.367209 
L 271.428216 165.834361 
L 272.420922 228.165879 
L 273.413627 176.866656 
L 274.406333 166.746802 
L 275.399039 150.938615 
L 276.391745 121.639989 
L 277.384451 102.668868 
L 278.377157 92.444456 
L 279.369863 89.28 
L 280.362569 92.019655 
L 282.347981 103.548696 
L 283.340687 108.936741 
L 284.333393 117.266711 
L 285.326099 121.214285 
L 286.318804 116.550939 
L 287.31151 115.900096 
L 288.304216 122.785439 
L 289.296922 131.252898 
L 290.289628 138.572002 
L 291.282334 147.50017 
L 293.267746 153.360034 
L 294.260452 165.072536 
L 295.253158 162.765347 
L 296.245864 154.626628 
L 297.23857 157.995454 
L 298.231276 168.081719 
L 299.223981 174.949305 
L 300.216687 178.423066 
L 301.209393 179.576931 
L 302.202099 183.602419 
L 303.194805 190.292134 
L 304.187511 195.649463 
L 305.180217 203.3877 
L 306.172923 209.649811 
L 307.165629 213.699758 
L 308.158335 226.532328 
L 309.151041 266.800346 
L 310.143747 265.666713 
L 311.136453 271.900444 
L 312.129159 309.587446 
L 313.121864 312.311047 
L 314.11457 317.415053 
L 315.107276 342.787865 
L 316.099982 328.860782 
L 317.092688 319.262628 
L 318.085394 314.328234 
L 319.0781 321.18685 
L 320.070806 329.638231 
L 321.063512 316.087732 
L 322.056218 322.722324 
L 323.048924 325.354156 
L 324.04163 325.430725 
L 325.034336 326.88353 
L 326.027041 327.908708 
L 328.012453 345.473163 
L 329.005159 343.944008 
L 329.997865 320.470355 
L 330.990571 328.394519 
L 331.983277 389.395746 
L 332.975983 310.478363 
L 333.968689 313.312859 
L 334.961395 358.307872 
L 335.954101 326.684276 
L 336.946807 325.772794 
L 337.939513 370.816125 
L 338.932218 337.136409 
L 339.924924 329.417535 
L 340.91763 347.548871 
L 341.910336 344.911367 
L 342.903042 331.59281 
L 343.895748 355.910357 
L 344.888454 330.525244 
L 345.88116 325.288899 
L 346.873866 358.338079 
L 347.866572 340.410318 
L 348.859278 357.736709 
L 349.851984 348.887957 
L 350.84469 352.995283 
L 351.837395 330.576374 
L 352.830101 376.325942 
L 353.822807 329.181157 
L 354.815513 324.32856 
L 355.808219 353.420456 
L 356.800925 375.30224 
L 357.793631 352.30362 
L 358.786337 320.43548 
L 359.779043 355.380449 
L 360.771749 381.760105 
L 361.764455 340.089944 
L 362.757161 346.550956 
L 363.749867 382.384004 
L 364.742572 329.28045 
L 365.735278 358.52574 
L 366.727984 356.635434 
L 367.72069 343.733152 
L 368.713396 361.894428 
L 369.706102 354.121912 
L 370.698808 365.742457 
L 371.691514 410.453084 
L 372.68422 346.548185 
L 373.676926 371.307553 
L 374.669632 355.303082 
L 375.662338 344.814344 
L 376.655044 359.811128 
L 377.64775 376.57184 
L 378.640455 388.627119 
L 379.633161 364.303105 
L 380.625867 362.963746 
L 381.618573 378.677371 
L 382.611279 346.239526 
L 383.603985 340.597446 
L 384.596691 375.993188 
L 385.589397 377.577873 
L 386.582103 418.320985 
L 387.574809 362.798067 
L 388.567515 351.959338 
L 389.560221 373.151723 
L 390.552927 344.286963 
L 391.545632 370.126492 
L 392.538338 411.711995 
L 393.531044 369.147058 
L 394.52375 367.171187 
L 395.516456 387.183286 
L 396.509162 365.271721 
L 397.501868 384.409049 
L 398.494574 374.250821 
L 399.48728 346.53238 
L 400.479986 366.67215 
L 401.472692 367.933096 
L 402.465398 351.462015 
L 403.458104 401.522287 
L 404.450809 365.850483 
L 405.443515 362.58072 
L 406.436221 358.598484 
L 407.428927 356.545506 
L 408.421633 367.250697 
L 409.414339 341.703036 
L 410.407045 355.797145 
L 411.399751 385.437748 
L 412.392457 378.219666 
L 413.385163 370.128139 
L 414.377869 370.207525 
L 415.370575 350.678985 
L 416.363281 357.60242 
L 417.355986 348.825049 
L 418.348692 379.049145 
L 419.341398 422.90456 
L 420.334104 367.334837 
L 421.32681 370.770101 
L 422.319516 361.186893 
L 423.312222 361.320033 
L 424.304928 384.357785 
L 425.297634 395.0444 
L 426.29034 366.22399 
L 427.283046 357.245904 
L 428.275752 366.840059 
L 429.268458 357.174196 
L 430.261163 358.815512 
L 431.253869 398.453613 
L 432.246575 362.805569 
L 433.239281 359.61969 
L 434.231987 353.13185 
L 435.224693 404.347389 
L 436.217399 406.010927 
L 437.210105 374.516761 
L 438.202811 355.501974 
L 439.195517 378.5398 
L 440.188223 355.201858 
L 441.180929 354.653605 
L 442.173635 384.732486 
L 443.166341 366.96689 
L 444.159046 377.365138 
L 445.151752 369.732025 
L 446.144458 364.902807 
L 447.137164 492.48 
L 448.12987 362.064782 
L 449.122576 388.421582 
L 450.115282 376.777947 
L 451.107988 372.791072 
L 452.100694 382.50927 
L 453.0934 368.562321 
L 454.086106 368.007785 
L 455.078812 374.052003 
L 456.071518 353.616914 
L 457.064223 353.982801 
L 458.056929 378.2735 
L 459.049635 372.887158 
L 460.042341 365.472204 
L 461.035047 366.240532 
L 462.027753 376.428642 
L 463.020459 402.605512 
L 464.013165 403.712828 
L 465.005871 361.093094 
L 465.998577 376.724356 
L 466.991283 378.007334 
L 467.983989 436.109387 
L 468.976695 371.651019 
L 469.9694 392.043141 
L 470.962106 392.714672 
L 471.954812 417.16621 
L 472.947518 384.964356 
L 473.940224 402.828121 
L 474.93293 364.521278 
L 475.925636 390.619322 
L 476.918342 390.892608 
L 477.911048 383.896406 
L 478.903754 411.219241 
L 479.89646 356.677505 
L 480.889166 403.775272 
L 481.881872 409.571623 
L 482.874577 424.838478 
L 483.867283 408.375738 
L 484.859989 396.225206 
L 485.852695 375.875947 
L 486.845401 383.542044 
L 487.838107 362.111703 
L 488.830813 410.156099 
L 489.823519 390.326897 
L 490.816225 414.141016 
L 491.808931 368.284019 
L 492.801637 361.423887 
L 493.794343 349.835159 
L 494.787049 382.930715 
L 495.779754 375.416563 
L 496.77246 361.202817 
L 497.765166 398.71592 
L 498.757872 361.966722 
L 499.750578 434.367561 
L 500.743284 381.595003 
L 501.73599 358.318751 
L 502.728696 389.118423 
L 503.721402 362.688457 
L 504.714108 398.780745 
L 505.706814 409.136449 
L 506.69952 427.474553 
L 508.684932 335.220905 
L 509.677637 356.708105 
L 511.663049 329.009968 
L 512.655755 341.44758 
L 513.648461 373.244399 
L 514.641167 370.57048 
L 515.633873 343.567615 
L 516.626579 345.792457 
L 517.619285 353.728067 
L 518.611991 339.764419 
L 519.604697 358.873153 
L 520.597403 371.561086 
L 521.590109 331.929818 
L 522.582814 346.686496 
L 523.57552 351.964407 
L 524.568226 373.945504 
L 525.560932 352.015982 
L 526.553638 346.941118 
L 527.546344 374.620637 
L 528.53905 336.147058 
L 529.531756 354.806975 
L 530.524462 357.505262 
L 531.517168 425.22091 
L 532.509874 342.318692 
L 533.50258 372.30888 
L 534.495286 380.249804 
L 535.487991 358.263503 
L 536.480697 365.314411 
L 537.473403 314.176571 
L 538.466109 331.111074 
L 539.458815 337.572693 
L 540.451521 365.101815 
L 541.444227 352.967217 
L 542.436933 332.527603 
L 543.429639 331.719682 
L 544.422345 342.613137 
L 545.415051 364.960941 
L 546.407757 360.296708 
L 547.400463 346.277649 
L 548.393168 361.256819 
L 549.385874 416.160686 
L 550.37858 350.74337 
L 551.371286 365.532867 
L 552.363992 367.349825 
L 553.356698 362.168655 
L 554.349404 394.035551 
L 555.34211 359.259807 
L 556.334816 356.69808 
L 557.327522 371.517782 
L 558.320228 384.172826 
L 559.312934 368.732769 
L 560.30564 391.812485 
L 561.298345 329.713595 
L 562.291051 328.519079 
L 563.283757 355.637071 
L 564.276463 357.058796 
L 565.269169 389.722901 
L 566.261875 356.553494 
L 567.254581 341.353166 
L 569.239993 364.207522 
L 570.232699 371.281967 
L 571.225405 373.603998 
L 572.218111 362.079881 
L 573.210817 365.994856 
L 574.203523 378.057655 
L 575.196228 371.751719 
L 576.188934 407.333173 
L 577.18164 397.430949 
L 578.174346 407.656826 
L 579.167052 419.244466 
L 580.159758 438.233941 
L 581.152464 385.074533 
L 582.14517 403.753928 
L 583.137876 400.22671 
L 584.130582 349.934194 
L 585.123288 397.386409 
L 586.115994 413.155166 
L 587.1087 421.331553 
L 588.101405 402.227696 
L 589.094111 445.485754 
L 590.086817 379.006607 
L 591.079523 391.855792 
L 592.072229 417.095726 
L 593.064935 407.280518 
L 594.057641 386.287357 
L 595.050347 391.060718 
L 596.043053 407.433886 
L 597.035759 395.943664 
L 598.028465 378.909899 
L 599.021171 370.728455 
L 600.013877 392.424132 
L 601.006582 406.518213 
L 601.999288 380.318688 
L 602.991994 399.108674 
L 603.9847 432.369101 
L 604.977406 409.82008 
L 605.970112 430.926386 
L 606.962818 388.628999 
L 607.955524 432.836495 
L 608.94823 387.781392 
L 609.940936 383.404261 
L 610.933642 406.541799 
L 611.926348 394.958255 
L 612.919054 381.667139 
L 613.911759 392.758569 
L 614.904465 399.549384 
L 615.897171 398.30957 
L 616.889877 411.160997 
L 617.882583 389.076987 
L 618.875289 388.637184 
L 619.867995 400.998251 
L 620.860701 420.356287 
L 621.853407 465.374624 
L 622.846113 395.284054 
L 623.838819 425.728195 
L 624.831525 438.196185 
L 625.824231 415.724379 
L 626.816936 401.216761 
L 627.809642 467.246737 
L 628.802348 408.504349 
L 629.795054 434.505105 
L 630.78776 387.892572 
L 631.780466 383.995833 
L 632.773172 402.391383 
L 633.765878 403.967188 
L 634.758584 399.288024 
L 635.75129 403.905745 
L 636.743996 404.427803 
L 637.736702 400.363542 
L 638.729408 408.459671 
L 639.722114 398.701605 
L 640.714819 393.982208 
L 641.707525 420.153401 
L 642.700231 391.316707 
L 643.692937 415.208864 
L 644.685643 402.581306 
L 645.678349 399.314746 
L 646.671055 434.936724 
L 647.663761 401.39674 
L 648.656467 410.658729 
L 649.649173 406.419825 
L 650.641879 412.405429 
L 651.634585 424.527527 
L 652.627291 407.400989 
L 653.619996 411.493231 
L 654.612702 423.435168 
L 655.605408 415.233631 
L 656.598114 418.543603 
L 657.59082 407.296261 
L 658.583526 409.331163 
L 659.576232 426.512103 
L 660.568938 402.129421 
L 661.561644 408.688974 
L 662.55435 429.364638 
L 663.547056 404.094275 
L 664.539762 421.079147 
L 665.532468 408.15702 
L 666.525173 415.655057 
L 667.517879 407.505222 
L 668.510585 405.640827 
L 669.503291 407.057585 
L 670.495997 411.039435 
L 671.488703 416.235958 
L 672.481409 415.891666 
L 673.474115 410.125987 
L 674.466821 411.682078 
L 675.459527 405.988946 
L 676.452233 426.391667 
L 677.444939 410.848874 
L 678.437645 421.415783 
L 679.43035 410.00806 
L 680.423056 415.529035 
L 681.415762 411.539332 
L 682.408468 420.908704 
L 683.401174 415.4704 
L 684.39388 406.960008 
L 685.386586 422.474503 
L 686.379292 415.632706 
L 687.371998 418.901183 
L 688.364704 408.860301 
L 689.35741 415.644443 
L 690.350116 417.589925 
L 691.342822 413.76714 
L 692.335527 415.350637 
L 693.328233 409.477267 
L 694.320939 407.89003 
L 695.313645 420.080848 
L 696.306351 415.524407 
L 697.299057 412.298771 
L 698.291763 413.912953 
L 699.284469 413.971817 
L 700.277175 410.380497 
L 701.269881 413.530621 
L 702.262587 413.449087 
L 703.255293 422.534011 
L 704.247999 415.035227 
L 705.240705 412.105641 
L 708.218822 415.45999 
L 709.211528 416.214176 
L 710.204234 417.891611 
L 711.19694 421.437516 
L 712.189646 413.336257 
L 713.182352 411.933274 
L 714.175058 418.096848 
L 715.167764 414.586164 
L 716.16047 416.766314 
L 717.153176 412.131505 
L 718.145882 414.691392 
L 719.138587 412.927476 
L 720.131293 413.534578 
L 721.123999 418.093072 
L 722.116705 412.596525 
L 723.109411 422.095886 
L 724.102117 418.46312 
L 725.094823 414.243975 
L 726.087529 410.590412 
L 727.080235 413.695277 
L 728.072941 418.362809 
L 729.065647 417.260906 
L 730.058353 420.004375 
L 731.051059 416.847622 
L 732.043764 414.534395 
L 733.03647 418.68946 
L 734.029176 414.501606 
L 735.021882 413.836248 
L 736.014588 422.039198 
L 737.007294 421.390057 
L 738 417.952076 
L 738.992706 418.934335 
L 739.985412 416.894678 
L 740.978118 415.617603 
L 741.970824 418.870932 
L 742.96353 414.137651 
L 743.956236 414.282674 
L 744.948941 415.361449 
L 745.941647 414.948979 
L 746.934353 414.857277 
L 747.927059 419.631084 
L 748.919765 419.065749 
L 749.912471 417.334829 
L 750.905177 416.192089 
L 751.897883 416.146754 
L 752.890589 415.326771 
L 753.883295 419.528716 
L 754.876001 415.55483 
L 755.868707 421.144309 
L 756.861413 418.978723 
L 757.854118 420.099624 
L 758.846824 416.541173 
L 759.83953 416.799753 
L 760.832236 417.359459 
L 761.824942 417.576457 
L 762.817648 418.967459 
L 763.810354 418.719731 
L 764.80306 419.71593 
L 765.795766 415.476728 
L 766.788472 419.402259 
L 767.781178 418.705825 
L 768.773884 417.611065 
L 769.76659 415.247708 
L 770.759295 417.906024 
L 771.752001 417.299797 
L 772.744707 416.89953 
L 773.737413 419.681578 
L 774.730119 419.107479 
L 775.722825 420.712001 
L 776.715531 416.83471 
L 777.708237 421.003973 
L 778.700943 416.550528 
L 779.693649 422.914046 
L 780.686355 420.94075 
L 781.679061 415.198697 
L 782.671767 419.084316 
L 783.664473 420.819915 
L 784.657178 422.254705 
L 785.649884 420.482645 
L 786.64259 418.102107 
L 787.635296 416.585426 
L 788.628002 416.190304 
L 789.620708 420.900434 
L 790.613414 422.960909 
L 791.60612 414.202687 
L 792.598826 414.381272 
L 793.591532 417.013995 
L 794.584238 420.327159 
L 795.576944 418.245413 
L 796.56965 419.435094 
L 797.562355 419.15239 
L 798.555061 419.904167 
L 799.547767 420.481598 
L 800.540473 416.984607 
L 801.533179 419.610292 
L 802.525885 419.30407 
L 803.518591 417.242439 
L 804.511297 423.924656 
L 805.504003 423.306472 
L 808.482121 418.89132 
L 809.474827 419.255586 
L 810.467532 418.048941 
L 811.460238 417.379921 
L 812.452944 424.860514 
L 813.44565 420.309345 
L 814.438356 417.888271 
L 815.431062 420.482141 
L 816.423768 418.649712 
L 817.416474 419.142546 
L 818.40918 420.123332 
L 819.401886 418.863084 
L 820.394592 418.798856 
L 821.387298 419.551979 
L 822.380004 420.570879 
L 823.372709 419.511285 
L 824.365415 424.136106 
L 825.358121 420.085821 
L 826.350827 423.073537 
L 828.336239 422.378254 
L 829.328945 421.023682 
L 830.321651 418.078566 
L 831.314357 423.307659 
L 832.307063 422.329594 
L 833.299769 419.198901 
L 834.292475 420.117082 
L 835.285181 417.53953 
L 836.277886 424.065875 
L 837.270592 423.27002 
L 838.263298 420.643881 
L 839.256004 421.539757 
L 840.24871 423.25646 
L 841.241416 421.561833 
L 842.234122 419.53535 
L 843.226828 420.166282 
L 844.219534 423.906148 
L 845.21224 424.107315 
L 846.204946 423.765861 
L 847.197652 421.285445 
L 848.190358 425.225111 
L 849.183064 422.688456 
L 850.175769 417.350053 
L 851.168475 425.718067 
L 852.161181 421.268655 
L 853.153887 418.638934 
L 855.139299 428.561234 
L 856.132005 422.724395 
L 857.124711 423.52091 
L 859.110123 424.128975 
L 860.102829 426.426829 
L 861.095535 422.823955 
L 862.088241 420.748578 
L 863.080946 421.231286 
L 864.073652 422.695991 
L 865.066358 424.360865 
L 866.059064 421.952768 
L 867.05177 423.39492 
L 868.044476 423.297514 
L 869.037182 420.030026 
L 870.029888 420.804773 
L 871.022594 425.222425 
L 872.0153 421.935951 
L 873.008006 420.866729 
L 874.000712 425.821353 
L 874.993418 419.940716 
L 875.986123 425.85431 
L 876.978829 423.772942 
L 877.971535 422.110533 
L 878.964241 425.046008 
L 879.956947 424.700687 
L 880.949653 421.481205 
L 881.942359 423.533836 
L 882.935065 422.666152 
L 883.927771 423.98453 
L 884.920477 425.966922 
L 885.913183 426.244035 
L 886.905889 423.66118 
L 887.898595 428.395117 
L 888.8913 420.948471 
L 890.876712 426.204377 
L 891.869418 423.8656 
L 892.862124 423.611735 
L 894.847536 422.767254 
L 895.840242 423.191001 
L 896.832948 425.41272 
L 897.825654 428.490111 
L 898.81836 423.362276 
L 899.811066 420.697146 
L 900.803772 421.616759 
L 901.796477 419.390617 
L 902.789183 423.998378 
L 903.781889 423.911557 
L 904.774595 425.840242 
L 905.767301 427.182691 
L 906.760007 420.492321 
L 907.752713 424.905861 
L 908.745419 427.3093 
L 909.738125 420.913481 
L 910.730831 422.131991 
L 911.723537 429.917945 
L 912.716243 429.948816 
L 913.708949 426.578246 
L 914.701655 425.747303 
L 915.69436 426.15036 
L 917.679772 428.531032 
L 918.672478 426.722796 
L 919.665184 427.15877 
L 920.65789 425.706667 
L 921.650596 423.419629 
L 922.643302 424.707309 
L 923.636008 423.361623 
L 924.628714 422.726221 
L 925.62142 425.359163 
L 926.614126 429.83489 
L 927.606832 423.460383 
L 928.599537 424.422264 
L 929.592243 423.908365 
L 930.584949 427.455015 
L 931.577655 428.556322 
L 932.570361 424.840621 
L 933.563067 423.110065 
L 934.555773 426.676402 
L 935.548479 425.0377 
L 936.541185 427.683219 
L 937.533891 424.681443 
L 938.526597 426.742095 
L 939.519303 422.619155 
L 940.512009 423.291413 
L 941.504714 429.431113 
L 942.49742 428.028713 
L 943.490126 425.607986 
L 944.482832 423.782892 
L 945.475538 422.815054 
L 946.468244 427.410336 
L 947.46095 424.406571 
L 948.453656 422.233802 
L 949.446362 424.685698 
L 950.439068 429.567782 
L 951.431774 424.939972 
L 952.42448 424.758622 
L 953.417186 426.220208 
L 954.409891 425.742601 
L 955.402597 428.261525 
L 956.395303 427.117641 
L 957.388009 425.085784 
L 958.380715 428.166286 
L 959.373421 425.387586 
L 960.366127 426.274269 
L 961.358833 424.605693 
L 962.351539 427.811773 
L 963.344245 429.768445 
L 964.336951 421.319127 
L 965.329657 426.628341 
L 966.322363 427.310022 
L 967.315068 427.742694 
L 968.307774 423.105351 
L 969.30048 424.789363 
L 970.293186 429.378171 
L 971.285892 428.448489 
L 972.278598 424.530949 
L 973.271304 425.927656 
L 974.26401 425.437829 
L 975.256716 428.610623 
L 976.249422 425.985299 
L 977.242128 427.021674 
L 978.234834 424.274943 
L 979.22754 427.658926 
L 980.220246 427.585295 
L 981.212951 427.071956 
L 982.205657 425.332401 
L 983.198363 425.613893 
L 984.191069 428.540692 
L 985.183775 426.817994 
L 986.176481 423.737373 
L 987.169187 427.593901 
L 988.161893 426.835354 
L 989.154599 426.376521 
L 990.147305 425.741736 
L 991.140011 425.533506 
L 992.132717 430.517443 
L 993.125423 424.032017 
L 994.118128 424.59024 
L 995.110834 426.347644 
L 996.10354 431.335412 
L 997.096246 430.012492 
L 998.088952 426.82517 
L 999.081658 422.790846 
L 1000.074364 427.541852 
L 1001.06707 425.45381 
L 1002.059776 427.704047 
L 1003.052482 426.496408 
L 1004.045188 429.099235 
L 1005.037894 429.068064 
L 1006.0306 427.207477 
L 1007.023305 430.483076 
L 1009.008717 427.066514 
L 1010.001423 428.845844 
L 1010.994129 425.026635 
L 1011.986835 427.745776 
L 1012.979541 428.073278 
L 1013.972247 426.795201 
L 1014.964953 427.211979 
L 1015.957659 425.413939 
L 1016.950365 426.362577 
L 1017.943071 426.410699 
L 1018.935777 427.825913 
L 1019.928482 426.300196 
L 1020.921188 427.198541 
L 1021.913894 430.75311 
L 1022.9066 430.192452 
L 1024.892012 421.903801 
L 1025.884718 430.524444 
L 1026.877424 427.293347 
L 1027.87013 427.975495 
L 1028.862836 424.932967 
L 1029.855542 425.857509 
L 1030.848248 428.646902 
L 1031.840954 428.439118 
L 1033.826365 432.088412 
L 1034.819071 427.340229 
L 1035.811777 430.035075 
L 1036.804483 424.242514 
L 1037.797189 424.587333 
L 1038.789895 427.046073 
L 1039.782601 428.577647 
L 1040.775307 424.212683 
L 1041.768013 426.400047 
L 1042.760719 425.779237 
L 1043.753425 425.467823 
L 1044.746131 429.336 
L 1045.738837 428.38407 
L 1046.731542 428.180116 
L 1047.724248 426.479097 
L 1048.716954 426.780617 
L 1049.70966 429.065988 
L 1050.702366 429.32521 
L 1052.687778 429.011902 
L 1054.67319 424.075569 
L 1055.665896 427.288296 
L 1056.658602 428.89619 
L 1057.651308 425.200094 
L 1059.636719 430.26987 
L 1060.629425 430.109318 
L 1061.622131 427.354803 
L 1062.614837 425.913854 
L 1063.607543 426.857992 
L 1064.600249 430.284433 
L 1065.592955 430.675405 
L 1066.585661 428.400137 
L 1067.578367 428.183916 
L 1068.571073 427.743971 
L 1069.563779 432.060694 
L 1070.556485 426.449186 
L 1071.549191 430.942244 
L 1072.541896 429.954814 
L 1073.534602 425.541947 
L 1074.527308 427.629496 
L 1075.520014 431.366088 
L 1076.51272 430.574232 
L 1077.505426 425.908251 
L 1078.498132 425.838791 
L 1079.490838 430.737715 
L 1080.483544 425.672887 
L 1082.468956 428.868465 
L 1083.461662 428.205643 
L 1084.454368 430.324694 
L 1085.447073 430.126584 
L 1086.439779 429.457466 
L 1087.432485 427.044865 
L 1088.425191 429.1386 
L 1089.417897 428.323083 
L 1090.410603 432.56216 
L 1091.403309 426.509643 
L 1092.396015 429.362318 
L 1093.388721 429.983353 
L 1094.381427 425.078266 
L 1095.374133 428.020089 
L 1096.366839 425.448173 
L 1097.359545 432.551852 
L 1098.35225 429.020941 
L 1099.344956 433.060096 
L 1100.337662 424.498499 
L 1101.330368 428.503284 
L 1102.323074 428.861904 
L 1103.31578 427.218751 
L 1104.308486 429.093894 
L 1105.301192 427.985876 
L 1106.293898 429.081265 
L 1107.286604 429.245369 
L 1108.27931 424.254166 
L 1109.272016 425.778573 
L 1110.264722 424.196309 
L 1111.257428 428.087744 
L 1112.250133 430.59866 
L 1113.242839 430.543423 
L 1114.235545 429.05462 
L 1115.228251 429.210496 
L 1116.220957 427.22368 
L 1117.213663 426.648663 
L 1119.199075 432.269471 
L 1120.191781 429.595183 
L 1121.184487 434.482962 
L 1122.177193 430.429389 
L 1123.169899 426.98458 
L 1124.162605 430.504677 
L 1125.15531 427.894719 
L 1126.148016 430.240341 
L 1127.140722 426.181069 
L 1128.133428 430.607388 
L 1129.126134 429.199268 
L 1130.11884 431.121847 
L 1131.111546 435.245784 
L 1132.104252 426.125499 
L 1133.096958 427.729258 
L 1134.089664 428.513646 
L 1135.08237 426.203488 
L 1136.075076 425.609677 
L 1137.067782 423.142191 
L 1138.060487 433.315033 
L 1139.053193 432.058387 
L 1140.045899 427.472457 
L 1142.031311 429.788403 
L 1143.024017 427.386483 
L 1144.016723 431.439373 
L 1145.009429 429.328888 
L 1146.002135 425.991342 
L 1146.994841 429.904244 
L 1147.987547 431.678684 
L 1148.980253 432.270366 
L 1149.972959 428.399875 
L 1150.965664 425.751984 
L 1151.95837 430.204494 
L 1153.943782 428.638072 
L 1154.936488 428.831676 
L 1155.929194 430.497899 
L 1156.9219 427.350192 
L 1157.914606 427.590974 
L 1158.907312 435.154154 
L 1160.892724 430.329867 
L 1161.88543 426.115534 
L 1162.878136 432.585571 
L 1163.870841 434.710532 
L 1164.863547 425.975594 
L 1165.856253 430.980455 
L 1166.848959 429.888267 
L 1167.841665 427.151018 
L 1168.834371 427.03968 
L 1169.827077 431.625331 
L 1170.819783 424.530747 
L 1171.812489 426.617805 
L 1172.805195 437.025424 
L 1173.797901 429.559655 
L 1175.783313 430.004823 
L 1176.776019 429.137765 
L 1177.768724 428.91524 
L 1178.76143 429.731819 
L 1179.754136 431.209429 
L 1180.746842 428.713786 
L 1181.739548 430.681038 
L 1182.732254 430.575729 
L 1183.72496 427.392046 
L 1184.717666 426.034286 
L 1185.710372 427.29511 
L 1186.703078 426.515699 
L 1187.695784 431.833736 
L 1189.681196 427.943946 
L 1190.673901 431.948691 
L 1191.666607 428.281508 
L 1192.659313 429.100599 
L 1193.652019 429.711591 
L 1194.644725 431.685164 
L 1195.637431 428.372673 
L 1196.630137 428.069962 
L 1197.622843 431.095342 
L 1198.615549 430.506478 
L 1199.608255 433.578607 
L 1200.600961 432.728174 
L 1201.593667 434.965563 
L 1202.586373 427.796456 
L 1203.579078 431.03275 
L 1204.571784 430.10127 
L 1205.56449 426.927637 
L 1206.557196 426.86554 
L 1207.549902 429.404442 
L 1208.542608 427.472673 
L 1209.535314 430.237077 
L 1210.52802 430.314599 
L 1212.513432 427.355054 
L 1213.506138 430.680404 
L 1214.498844 427.34164 
L 1215.49155 429.329951 
L 1216.484255 429.173285 
L 1217.476961 427.440792 
L 1218.469667 429.520093 
L 1219.462373 433.009066 
L 1220.455079 428.673938 
L 1221.447785 427.052084 
L 1222.440491 431.715556 
L 1224.425903 432.086588 
L 1225.418609 431.667858 
L 1226.411315 432.680721 
L 1227.404021 429.886517 
L 1228.396727 427.904862 
L 1229.389432 432.485533 
L 1230.382138 427.449398 
L 1231.374844 427.002144 
L 1232.36755 431.920409 
L 1233.360256 425.907866 
L 1234.352962 429.227497 
L 1235.345668 429.826497 
L 1236.338374 430.264655 
L 1237.33108 431.587972 
L 1238.323786 434.543032 
L 1239.316492 431.408025 
L 1240.309198 427.765055 
L 1241.301904 436.126665 
L 1242.29461 431.346892 
L 1243.287315 430.609205 
L 1244.280021 427.844646 
L 1245.272727 429.718932 
L 1245.272727 429.718932 
" clip-path="url(#pd54ac68e63)" style="fill: none; stroke: #1f77b4; stroke-width: 1.5; stroke-linecap: square"/>
   </g>
   <g id="patch_3">
    <path d="M 180 512.64 
L 180 69.12 
" style="fill: none; stroke: #000000; stroke-width: 0.8; stroke-linejoin: miter; stroke-linecap: square"/>
   </g>
   <g id="patch_4">
    <path d="M 1296 512.64 
L 1296 69.12 
" style="fill: none; stroke: #000000; stroke-width: 0.8; stroke-linejoin: miter; stroke-linecap: square"/>
   </g>
   <g id="patch_5">
    <path d="M 180 512.64 
L 1296 512.64 
" style="fill: none; stroke: #000000; stroke-width: 0.8; stroke-linejoin: miter; stroke-linecap: square"/>
   </g>
   <g id="patch_6">
    <path d="M 180 69.12 
L 1296 69.12 
" style="fill: none; stroke: #000000; stroke-width: 0.8; stroke-linejoin: miter; stroke-linecap: square"/>
   </g>
   <g id="text_13">
    <!-- source4-receiver15 -->
    <g transform="translate(544.9 60.80125) scale(0.4 -0.4)">
     <defs>
      <path id="DejaVuSans-73" d="M 2834 3397 
L 2834 2853 
Q 2591 2978 2328 3040 
Q 2066 3103 1784 3103 
Q 1356 3103 1142 2972 
Q 928 2841 928 2578 
Q 928 2378 1081 2264 
Q 1234 2150 1697 2047 
L 1894 2003 
Q 2506 1872 2764 1633 
Q 3022 1394 3022 966 
Q 3022 478 2636 193 
Q 2250 -91 1575 -91 
Q 1294 -91 989 -36 
Q 684 19 347 128 
L 347 722 
Q 666 556 975 473 
Q 1284 391 1588 391 
Q 1994 391 2212 530 
Q 2431 669 2431 922 
Q 2431 1156 2273 1281 
Q 2116 1406 1581 1522 
L 1381 1569 
Q 847 1681 609 1914 
Q 372 2147 372 2553 
Q 372 3047 722 3315 
Q 1072 3584 1716 3584 
Q 2034 3584 2315 3537 
Q 2597 3491 2834 3397 
z
" transform="scale(0.015625)"/>
      <path id="DejaVuSans-6f" d="M 1959 3097 
Q 1497 3097 1228 2736 
Q 959 2375 959 1747 
Q 959 1119 1226 758 
Q 1494 397 1959 397 
Q 2419 397 2687 759 
Q 2956 1122 2956 1747 
Q 2956 2369 2687 2733 
Q 2419 3097 1959 3097 
z
M 1959 3584 
Q 2709 3584 3137 3096 
Q 3566 2609 3566 1747 
Q 3566 888 3137 398 
Q 2709 -91 1959 -91 
Q 1206 -91 779 398 
Q 353 888 353 1747 
Q 353 2609 779 3096 
Q 1206 3584 1959 3584 
z
" transform="scale(0.015625)"/>
      <path id="DejaVuSans-75" d="M 544 1381 
L 544 3500 
L 1119 3500 
L 1119 1403 
Q 1119 906 1312 657 
Q 1506 409 1894 409 
Q 2359 409 2629 706 
Q 2900 1003 2900 1516 
L 2900 3500 
L 3475 3500 
L 3475 0 
L 2900 0 
L 2900 538 
Q 2691 219 2414 64 
Q 2138 -91 1772 -91 
Q 1169 -91 856 284 
Q 544 659 544 1381 
z
M 1991 3584 
L 1991 3584 
z
" transform="scale(0.015625)"/>
      <path id="DejaVuSans-72" d="M 2631 2963 
Q 2534 3019 2420 3045 
Q 2306 3072 2169 3072 
Q 1681 3072 1420 2755 
Q 1159 2438 1159 1844 
L 1159 0 
L 581 0 
L 581 3500 
L 1159 3500 
L 1159 2956 
Q 1341 3275 1631 3429 
Q 1922 3584 2338 3584 
Q 2397 3584 2469 3576 
Q 2541 3569 2628 3553 
L 2631 2963 
z
" transform="scale(0.015625)"/>
      <path id="DejaVuSans-63" d="M 3122 3366 
L 3122 2828 
Q 2878 2963 2633 3030 
Q 2388 3097 2138 3097 
Q 1578 3097 1268 2742 
Q 959 2388 959 1747 
Q 959 1106 1268 751 
Q 1578 397 2138 397 
Q 2388 397 2633 464 
Q 2878 531 3122 666 
L 3122 134 
Q 2881 22 2623 -34 
Q 2366 -91 2075 -91 
Q 1284 -91 818 406 
Q 353 903 353 1747 
Q 353 2603 823 3093 
Q 1294 3584 2113 3584 
Q 2378 3584 2631 3529 
Q 2884 3475 3122 3366 
z
" transform="scale(0.015625)"/>
      <path id="DejaVuSans-65" d="M 3597 1894 
L 3597 1613 
L 953 1613 
Q 991 1019 1311 708 
Q 1631 397 2203 397 
Q 2534 397 2845 478 
Q 3156 559 3463 722 
L 3463 178 
Q 3153 47 2828 -22 
Q 2503 -91 2169 -91 
Q 1331 -91 842 396 
Q 353 884 353 1716 
Q 353 2575 817 3079 
Q 1281 3584 2069 3584 
Q 2775 3584 3186 3129 
Q 3597 2675 3597 1894 
z
M 3022 2063 
Q 3016 2534 2758 2815 
Q 2500 3097 2075 3097 
Q 1594 3097 1305 2825 
Q 1016 2553 972 2059 
L 3022 2063 
z
" transform="scale(0.015625)"/>
      <path id="DejaVuSans-2d" d="M 313 2009 
L 1997 2009 
L 1997 1497 
L 313 1497 
L 313 2009 
z
" transform="scale(0.015625)"/>
      <path id="DejaVuSans-69" d="M 603 3500 
L 1178 3500 
L 1178 0 
L 603 0 
L 603 3500 
z
M 603 4863 
L 1178 4863 
L 1178 4134 
L 603 4134 
L 603 4863 
z
" transform="scale(0.015625)"/>
      <path id="DejaVuSans-76" d="M 191 3500 
L 800 3500 
L 1894 563 
L 2988 3500 
L 3597 3500 
L 2284 0 
L 1503 0 
L 191 3500 
z
" transform="scale(0.015625)"/>
     </defs>
     <use xlink:href="#DejaVuSans-73"/>
     <use xlink:href="#DejaVuSans-6f" x="52.099609"/>
     <use xlink:href="#DejaVuSans-75" x="113.28125"/>
     <use xlink:href="#DejaVuSans-72" x="176.660156"/>
     <use xlink:href="#DejaVuSans-63" x="215.523438"/>
     <use xlink:href="#DejaVuSans-65" x="270.503906"/>
     <use xlink:href="#DejaVuSans-34" x="332.027344"/>
     <use xlink:href="#DejaVuSans-2d" x="395.650391"/>
     <use xlink:href="#DejaVuSans-72" x="431.734375"/>
     <use xlink:href="#DejaVuSans-65" x="470.597656"/>
     <use xlink:href="#DejaVuSans-63" x="532.121094"/>
     <use xlink:href="#DejaVuSans-65" x="587.101562"/>
     <use xlink:href="#DejaVuSans-69" x="648.625"/>
     <use xlink:href="#DejaVuSans-76" x="676.408203"/>
     <use xlink:href="#DejaVuSans-65" x="735.587891"/>
     <use xlink:href="#DejaVuSans-72" x="797.111328"/>
     <use xlink:href="#DejaVuSans-31" x="838.224609"/>
     <use xlink:href="#DejaVuSans-35" x="901.847656"/>
    </g>
   </g>
  </g>
 </g>
 <defs>
  <clipPath id="pd54ac68e63">
   <rect x="180" y="69.12" width="1116" height="443.52"/>
  </clipPath>
 </defs>
</svg>
