<?xml version="1.0" encoding="utf-8" standalone="no"?>
<!DOCTYPE svg PUBLIC "-//W3C//DTD SVG 1.1//EN"
  "http://www.w3.org/Graphics/SVG/1.1/DTD/svg11.dtd">
<svg xmlns:xlink="http://www.w3.org/1999/xlink" width="1440pt" height="576pt" viewBox="0 0 1440 576" xmlns="http://www.w3.org/2000/svg" version="1.1">
 <metadata>
  <rdf:RDF xmlns:dc="http://purl.org/dc/elements/1.1/" xmlns:cc="http://creativecommons.org/ns#" xmlns:rdf="http://www.w3.org/1999/02/22-rdf-syntax-ns#">
   <cc:Work>
    <dc:type rdf:resource="http://purl.org/dc/dcmitype/StillImage"/>
    <dc:date>2024-05-22T04:49:45.964136</dc:date>
    <dc:format>image/svg+xml</dc:format>
    <dc:creator>
     <cc:Agent>
      <dc:title>Matplotlib v3.8.3, https://matplotlib.org/</dc:title>
     </cc:Agent>
    </dc:creator>
   </cc:Work>
  </rdf:RDF>
 </metadata>
 <defs>
  <style type="text/css">*{stroke-linejoin: round; stroke-linecap: butt}</style>
 </defs>
 <g id="figure_1">
  <g id="patch_1">
   <path d="M 0 576 
L 1440 576 
L 1440 0 
L 0 0 
z
" style="fill: #ffffff"/>
  </g>
  <g id="axes_1">
   <g id="patch_2">
    <path d="M 180 512.64 
L 1296 512.64 
L 1296 69.12 
L 180 69.12 
z
" style="fill: #ffffff"/>
   </g>
   <g id="matplotlib.axis_1">
    <g id="xtick_1">
     <g id="line2d_1">
      <defs>
       <path id="m62db3c81a5" d="M 0 0 
L 0 3.5 
" style="stroke: #000000; stroke-width: 0.8"/>
      </defs>
      <g>
       <use xlink:href="#m62db3c81a5" x="229.734567" y="512.64" style="stroke: #000000; stroke-width: 0.8"/>
      </g>
     </g>
     <g id="text_1">
      <!-- 0 -->
      <g transform="translate(226.553317 527.238438) scale(0.1 -0.1)">
       <defs>
        <path id="DejaVuSans-30" d="M 2034 4250 
Q 1547 4250 1301 3770 
Q 1056 3291 1056 2328 
Q 1056 1369 1301 889 
Q 1547 409 2034 409 
Q 2525 409 2770 889 
Q 3016 1369 3016 2328 
Q 3016 3291 2770 3770 
Q 2525 4250 2034 4250 
z
M 2034 4750 
Q 2819 4750 3233 4129 
Q 3647 3509 3647 2328 
Q 3647 1150 3233 529 
Q 2819 -91 2034 -91 
Q 1250 -91 836 529 
Q 422 1150 422 2328 
Q 422 3509 836 4129 
Q 1250 4750 2034 4750 
z
" transform="scale(0.015625)"/>
       </defs>
       <use xlink:href="#DejaVuSans-30"/>
      </g>
     </g>
    </g>
    <g id="xtick_2">
     <g id="line2d_2">
      <g>
       <use xlink:href="#m62db3c81a5" x="433.04074" y="512.64" style="stroke: #000000; stroke-width: 0.8"/>
      </g>
     </g>
     <g id="text_2">
      <!-- 500 -->
      <g transform="translate(423.49699 527.238438) scale(0.1 -0.1)">
       <defs>
        <path id="DejaVuSans-35" d="M 691 4666 
L 3169 4666 
L 3169 4134 
L 1269 4134 
L 1269 2991 
Q 1406 3038 1543 3061 
Q 1681 3084 1819 3084 
Q 2600 3084 3056 2656 
Q 3513 2228 3513 1497 
Q 3513 744 3044 326 
Q 2575 -91 1722 -91 
Q 1428 -91 1123 -41 
Q 819 9 494 109 
L 494 744 
Q 775 591 1075 516 
Q 1375 441 1709 441 
Q 2250 441 2565 725 
Q 2881 1009 2881 1497 
Q 2881 1984 2565 2268 
Q 2250 2553 1709 2553 
Q 1456 2553 1204 2497 
Q 953 2441 691 2322 
L 691 4666 
z
" transform="scale(0.015625)"/>
       </defs>
       <use xlink:href="#DejaVuSans-35"/>
       <use xlink:href="#DejaVuSans-30" x="63.623047"/>
       <use xlink:href="#DejaVuSans-30" x="127.246094"/>
      </g>
     </g>
    </g>
    <g id="xtick_3">
     <g id="line2d_3">
      <g>
       <use xlink:href="#m62db3c81a5" x="636.346913" y="512.64" style="stroke: #000000; stroke-width: 0.8"/>
      </g>
     </g>
     <g id="text_3">
      <!-- 1000 -->
      <g transform="translate(623.621913 527.238438) scale(0.1 -0.1)">
       <defs>
        <path id="DejaVuSans-31" d="M 794 531 
L 1825 531 
L 1825 4091 
L 703 3866 
L 703 4441 
L 1819 4666 
L 2450 4666 
L 2450 531 
L 3481 531 
L 3481 0 
L 794 0 
L 794 531 
z
" transform="scale(0.015625)"/>
       </defs>
       <use xlink:href="#DejaVuSans-31"/>
       <use xlink:href="#DejaVuSans-30" x="63.623047"/>
       <use xlink:href="#DejaVuSans-30" x="127.246094"/>
       <use xlink:href="#DejaVuSans-30" x="190.869141"/>
      </g>
     </g>
    </g>
    <g id="xtick_4">
     <g id="line2d_4">
      <g>
       <use xlink:href="#m62db3c81a5" x="839.653087" y="512.64" style="stroke: #000000; stroke-width: 0.8"/>
      </g>
     </g>
     <g id="text_4">
      <!-- 1500 -->
      <g transform="translate(826.928087 527.238438) scale(0.1 -0.1)">
       <use xlink:href="#DejaVuSans-31"/>
       <use xlink:href="#DejaVuSans-35" x="63.623047"/>
       <use xlink:href="#DejaVuSans-30" x="127.246094"/>
       <use xlink:href="#DejaVuSans-30" x="190.869141"/>
      </g>
     </g>
    </g>
    <g id="xtick_5">
     <g id="line2d_5">
      <g>
       <use xlink:href="#m62db3c81a5" x="1042.95926" y="512.64" style="stroke: #000000; stroke-width: 0.8"/>
      </g>
     </g>
     <g id="text_5">
      <!-- 2000 -->
      <g transform="translate(1030.23426 527.238438) scale(0.1 -0.1)">
       <defs>
        <path id="DejaVuSans-32" d="M 1228 531 
L 3431 531 
L 3431 0 
L 469 0 
L 469 531 
Q 828 903 1448 1529 
Q 2069 2156 2228 2338 
Q 2531 2678 2651 2914 
Q 2772 3150 2772 3378 
Q 2772 3750 2511 3984 
Q 2250 4219 1831 4219 
Q 1534 4219 1204 4116 
Q 875 4013 500 3803 
L 500 4441 
Q 881 4594 1212 4672 
Q 1544 4750 1819 4750 
Q 2544 4750 2975 4387 
Q 3406 4025 3406 3419 
Q 3406 3131 3298 2873 
Q 3191 2616 2906 2266 
Q 2828 2175 2409 1742 
Q 1991 1309 1228 531 
z
" transform="scale(0.015625)"/>
       </defs>
       <use xlink:href="#DejaVuSans-32"/>
       <use xlink:href="#DejaVuSans-30" x="63.623047"/>
       <use xlink:href="#DejaVuSans-30" x="127.246094"/>
       <use xlink:href="#DejaVuSans-30" x="190.869141"/>
      </g>
     </g>
    </g>
    <g id="xtick_6">
     <g id="line2d_6">
      <g>
       <use xlink:href="#m62db3c81a5" x="1246.265433" y="512.64" style="stroke: #000000; stroke-width: 0.8"/>
      </g>
     </g>
     <g id="text_6">
      <!-- 2500 -->
      <g transform="translate(1233.540433 527.238438) scale(0.1 -0.1)">
       <use xlink:href="#DejaVuSans-32"/>
       <use xlink:href="#DejaVuSans-35" x="63.623047"/>
       <use xlink:href="#DejaVuSans-30" x="127.246094"/>
       <use xlink:href="#DejaVuSans-30" x="190.869141"/>
      </g>
     </g>
    </g>
   </g>
   <g id="matplotlib.axis_2">
    <g id="ytick_1">
     <g id="line2d_7">
      <defs>
       <path id="m63ea22a90d" d="M 0 0 
L -3.5 0 
" style="stroke: #000000; stroke-width: 0.8"/>
      </defs>
      <g>
       <use xlink:href="#m63ea22a90d" x="180" y="501.584064" style="stroke: #000000; stroke-width: 0.8"/>
      </g>
     </g>
     <g id="text_7">
      <!-- −3 -->
      <g transform="translate(158.257812 505.383283) scale(0.1 -0.1)">
       <defs>
        <path id="DejaVuSans-2212" d="M 678 2272 
L 4684 2272 
L 4684 1741 
L 678 1741 
L 678 2272 
z
" transform="scale(0.015625)"/>
        <path id="DejaVuSans-33" d="M 2597 2516 
Q 3050 2419 3304 2112 
Q 3559 1806 3559 1356 
Q 3559 666 3084 287 
Q 2609 -91 1734 -91 
Q 1441 -91 1130 -33 
Q 819 25 488 141 
L 488 750 
Q 750 597 1062 519 
Q 1375 441 1716 441 
Q 2309 441 2620 675 
Q 2931 909 2931 1356 
Q 2931 1769 2642 2001 
Q 2353 2234 1838 2234 
L 1294 2234 
L 1294 2753 
L 1863 2753 
Q 2328 2753 2575 2939 
Q 2822 3125 2822 3475 
Q 2822 3834 2567 4026 
Q 2313 4219 1838 4219 
Q 1578 4219 1281 4162 
Q 984 4106 628 3988 
L 628 4550 
Q 988 4650 1302 4700 
Q 1616 4750 1894 4750 
Q 2613 4750 3031 4423 
Q 3450 4097 3450 3541 
Q 3450 3153 3228 2886 
Q 3006 2619 2597 2516 
z
" transform="scale(0.015625)"/>
       </defs>
       <use xlink:href="#DejaVuSans-2212"/>
       <use xlink:href="#DejaVuSans-33" x="83.789062"/>
      </g>
     </g>
    </g>
    <g id="ytick_2">
     <g id="line2d_8">
      <g>
       <use xlink:href="#m63ea22a90d" x="180" y="435.192941" style="stroke: #000000; stroke-width: 0.8"/>
      </g>
     </g>
     <g id="text_8">
      <!-- −2 -->
      <g transform="translate(158.257812 438.99216) scale(0.1 -0.1)">
       <use xlink:href="#DejaVuSans-2212"/>
       <use xlink:href="#DejaVuSans-32" x="83.789062"/>
      </g>
     </g>
    </g>
    <g id="ytick_3">
     <g id="line2d_9">
      <g>
       <use xlink:href="#m63ea22a90d" x="180" y="368.801818" style="stroke: #000000; stroke-width: 0.8"/>
      </g>
     </g>
     <g id="text_9">
      <!-- −1 -->
      <g transform="translate(158.257812 372.601037) scale(0.1 -0.1)">
       <use xlink:href="#DejaVuSans-2212"/>
       <use xlink:href="#DejaVuSans-31" x="83.789062"/>
      </g>
     </g>
    </g>
    <g id="ytick_4">
     <g id="line2d_10">
      <g>
       <use xlink:href="#m63ea22a90d" x="180" y="302.410696" style="stroke: #000000; stroke-width: 0.8"/>
      </g>
     </g>
     <g id="text_10">
      <!-- 0 -->
      <g transform="translate(166.6375 306.209914) scale(0.1 -0.1)">
       <use xlink:href="#DejaVuSans-30"/>
      </g>
     </g>
    </g>
    <g id="ytick_5">
     <g id="line2d_11">
      <g>
       <use xlink:href="#m63ea22a90d" x="180" y="236.019573" style="stroke: #000000; stroke-width: 0.8"/>
      </g>
     </g>
     <g id="text_11">
      <!-- 1 -->
      <g transform="translate(166.6375 239.818792) scale(0.1 -0.1)">
       <use xlink:href="#DejaVuSans-31"/>
      </g>
     </g>
    </g>
    <g id="ytick_6">
     <g id="line2d_12">
      <g>
       <use xlink:href="#m63ea22a90d" x="180" y="169.62845" style="stroke: #000000; stroke-width: 0.8"/>
      </g>
     </g>
     <g id="text_12">
      <!-- 2 -->
      <g transform="translate(166.6375 173.427669) scale(0.1 -0.1)">
       <use xlink:href="#DejaVuSans-32"/>
      </g>
     </g>
    </g>
    <g id="ytick_7">
     <g id="line2d_13">
      <g>
       <use xlink:href="#m63ea22a90d" x="180" y="103.237327" style="stroke: #000000; stroke-width: 0.8"/>
      </g>
     </g>
     <g id="text_13">
      <!-- 3 -->
      <g transform="translate(166.6375 107.036546) scale(0.1 -0.1)">
       <use xlink:href="#DejaVuSans-33"/>
      </g>
     </g>
    </g>
   </g>
   <g id="line2d_14">
    <path d="M 230.727273 411.659414 
L 231.719979 409.527111 
L 232.712685 405.50798 
L 234.698096 394.526025 
L 237.676214 375.507147 
L 240.654332 356.684574 
L 243.63245 339.377652 
L 244.625156 331.841069 
L 245.617862 323.340213 
L 246.610568 335.498571 
L 247.603273 380.219779 
L 248.595979 267.94065 
L 249.588685 224.832924 
L 250.581391 221.824257 
L 251.574097 279.806021 
L 252.566803 230.575481 
L 253.559509 187.193486 
L 254.552215 190.765179 
L 255.544921 227.323761 
L 256.537627 188.201114 
L 257.530333 174.198438 
L 258.523039 198.374872 
L 259.515745 198.117906 
L 260.50845 190.769077 
L 261.501156 222.582738 
L 262.493862 210.29754 
L 263.486568 191.382273 
L 264.479274 218.886989 
L 265.47198 273.672513 
L 267.457392 219.820873 
L 268.450098 180.960011 
L 269.442804 154.611637 
L 270.43551 152.642565 
L 271.428216 185.763965 
L 272.420922 176.924474 
L 273.413627 137.727679 
L 274.406333 141.103394 
L 275.399039 219.415089 
L 276.391745 157.211334 
L 277.384451 113.620397 
L 278.377157 108.498934 
L 279.369863 111.384866 
L 280.362569 94.906343 
L 281.355275 89.28 
L 282.347981 118.861933 
L 283.340687 197.742619 
L 284.333393 104.049714 
L 285.326099 90.164232 
L 286.318804 120.842572 
L 287.31151 271.067283 
L 288.304216 144.658422 
L 289.296922 141.511085 
L 290.289628 175.17989 
L 291.282334 223.786064 
L 292.27504 328.734863 
L 293.267746 206.738863 
L 294.260452 204.73441 
L 295.253158 260.167985 
L 296.245864 239.868843 
L 297.23857 251.328774 
L 298.231276 277.15254 
L 299.223981 251.631557 
L 300.216687 287.106001 
L 301.209393 310.757266 
L 302.202099 339.023356 
L 303.194805 341.439873 
L 304.187511 283.763594 
L 307.165629 316.910764 
L 308.158335 313.674364 
L 309.151041 336.339091 
L 310.143747 325.321698 
L 311.136453 307.938117 
L 312.129159 339.684607 
L 313.121864 337.28401 
L 314.11457 325.894276 
L 315.107276 338.736854 
L 316.099982 328.172032 
L 317.092688 337.135005 
L 318.085394 338.698629 
L 319.0781 337.564232 
L 320.070806 346.76978 
L 321.063512 338.797726 
L 322.056218 351.3323 
L 323.048924 338.752735 
L 324.04163 346.912272 
L 325.034336 340.857298 
L 326.027041 350.58935 
L 327.019747 352.057551 
L 328.012453 348.54157 
L 329.005159 355.75869 
L 329.997865 357.227506 
L 330.990571 349.639072 
L 331.983277 343.674119 
L 332.975983 352.708184 
L 333.968689 354.82012 
L 334.961395 354.830486 
L 335.954101 352.042742 
L 337.939513 362.571806 
L 338.932218 358.557785 
L 339.924924 359.895887 
L 340.91763 355.41802 
L 341.910336 362.64506 
L 342.903042 364.257642 
L 343.895748 356.728386 
L 344.888454 355.584723 
L 345.88116 366.942851 
L 346.873866 369.494034 
L 347.866572 363.736266 
L 348.859278 367.027783 
L 349.851984 373.028292 
L 350.84469 363.049186 
L 351.837395 373.234788 
L 352.830101 370.106055 
L 353.822807 366.082995 
L 354.815513 376.468954 
L 355.808219 371.340459 
L 356.800925 380.224451 
L 357.793631 367.589754 
L 358.786337 377.614073 
L 359.779043 372.208645 
L 360.771749 381.921783 
L 361.764455 379.115796 
L 363.749867 368.137957 
L 364.742572 375.258454 
L 365.735278 374.376426 
L 366.727984 371.13234 
L 367.72069 381.847512 
L 368.713396 384.042165 
L 369.706102 380.484621 
L 370.698808 367.500843 
L 371.691514 373.439438 
L 372.68422 378.032901 
L 373.676926 379.3111 
L 374.669632 376.140975 
L 375.662338 399.449186 
L 376.655044 383.251951 
L 377.64775 380.264747 
L 378.640455 379.889318 
L 379.633161 377.886324 
L 380.625867 385.296201 
L 381.618573 385.72979 
L 382.611279 389.567391 
L 383.603985 380.801432 
L 384.596691 394.95575 
L 385.589397 382.771898 
L 386.582103 384.400091 
L 387.574809 389.63364 
L 388.567515 386.713918 
L 389.560221 394.022368 
L 390.552927 395.629071 
L 391.545632 382.296517 
L 392.538338 381.043488 
L 393.531044 404.40938 
L 394.52375 388.618656 
L 395.516456 395.260348 
L 396.509162 394.696723 
L 397.501868 392.836404 
L 398.494574 383.640364 
L 399.48728 396.090987 
L 400.479986 386.247171 
L 401.472692 407.689941 
L 402.465398 396.268754 
L 403.458104 404.264129 
L 404.450809 404.050944 
L 405.443515 399.145342 
L 406.436221 408.605541 
L 407.428927 392.179094 
L 408.421633 402.538387 
L 409.414339 405.405699 
L 410.407045 412.914573 
L 411.399751 400.500826 
L 412.392457 402.935079 
L 413.385163 399.475625 
L 414.377869 404.373325 
L 415.370575 405.096018 
L 416.363281 408.174255 
L 417.355986 409.709558 
L 418.348692 413.165425 
L 419.341398 402.696467 
L 420.334104 424.528656 
L 421.32681 400.528811 
L 422.319516 396.349538 
L 423.312222 401.060444 
L 424.304928 406.767333 
L 425.297634 416.945313 
L 426.29034 422.347474 
L 427.283046 413.622605 
L 428.275752 409.554301 
L 429.268458 413.082903 
L 430.261163 403.987121 
L 431.253869 403.867493 
L 432.246575 421.250439 
L 433.239281 412.403232 
L 434.231987 407.990586 
L 435.224693 405.537216 
L 436.217399 401.818845 
L 437.210105 408.593786 
L 438.202811 419.131317 
L 439.195517 402.332908 
L 440.188223 405.269756 
L 441.180929 402.289583 
L 442.173635 405.893567 
L 443.166341 423.604433 
L 444.159046 402.765095 
L 445.151752 395.221852 
L 446.144458 432.482713 
L 447.137164 413.41991 
L 448.12987 424.293814 
L 449.122576 389.302924 
L 450.115282 407.97179 
L 451.107988 423.026062 
L 452.100694 400.256873 
L 453.0934 416.299339 
L 454.086106 404.112432 
L 455.078812 423.57642 
L 456.071518 435.107516 
L 457.064223 416.739977 
L 458.056929 410.511362 
L 459.049635 410.159713 
L 460.042341 424.947362 
L 461.035047 424.853289 
L 462.027753 410.929325 
L 463.020459 406.737668 
L 464.013165 415.413738 
L 465.005871 433.661617 
L 465.998577 399.507424 
L 466.991283 412.692874 
L 467.983989 429.068239 
L 468.976695 411.077908 
L 469.9694 427.437371 
L 470.962106 404.425721 
L 471.954812 416.580311 
L 472.947518 426.122052 
L 473.940224 426.583216 
L 474.93293 423.228323 
L 475.925636 415.60362 
L 476.918342 417.972335 
L 477.911048 455.908259 
L 478.903754 406.925605 
L 479.89646 440.879668 
L 480.889166 423.693532 
L 481.881872 423.4672 
L 482.874577 437.905038 
L 483.867283 412.876764 
L 484.859989 407.528179 
L 485.852695 423.744784 
L 486.845401 420.743482 
L 487.838107 420.59515 
L 488.830813 413.590636 
L 489.823519 440.708886 
L 490.816225 430.160985 
L 491.808931 430.132269 
L 492.801637 424.580364 
L 493.794343 431.25839 
L 494.787049 419.364028 
L 495.779754 410.069809 
L 496.77246 423.616837 
L 497.765166 413.251699 
L 498.757872 427.356704 
L 499.750578 414.263291 
L 500.743284 415.812866 
L 501.73599 440.183891 
L 502.728696 421.072547 
L 503.721402 425.440386 
L 504.714108 423.378359 
L 505.706814 444.186548 
L 506.69952 415.85608 
L 507.692226 424.938313 
L 508.684932 453.857256 
L 509.677637 415.791718 
L 510.670343 413.686497 
L 511.663049 452.126409 
L 512.655755 450.641157 
L 513.648461 444.725788 
L 514.641167 455.461723 
L 515.633873 405.443519 
L 516.626579 437.706548 
L 517.619285 421.471513 
L 518.611991 428.692966 
L 519.604697 460.525126 
L 520.597403 436.187538 
L 521.590109 446.624651 
L 522.582814 446.538776 
L 523.57552 447.546132 
L 524.568226 461.510937 
L 525.560932 445.174733 
L 526.553638 433.019254 
L 527.546344 438.791054 
L 528.53905 439.570629 
L 529.531756 433.066291 
L 530.524462 449.68346 
L 531.517168 432.067033 
L 532.509874 421.099495 
L 533.50258 450.23196 
L 534.495286 435.699694 
L 535.487991 434.958722 
L 536.480697 410.139382 
L 537.473403 492.48 
L 538.466109 442.541237 
L 539.458815 417.513898 
L 540.451521 415.2766 
L 541.444227 445.671796 
L 542.436933 457.300522 
L 543.429639 490.611633 
L 544.422345 424.315492 
L 545.415051 409.207346 
L 546.407757 429.439364 
L 547.400463 438.645352 
L 548.393168 443.938218 
L 549.385874 417.910956 
L 550.37858 471.217204 
L 551.371286 444.924695 
L 552.363992 423.887089 
L 553.356698 418.000575 
L 554.349404 420.54774 
L 555.34211 437.217173 
L 556.334816 426.000345 
L 557.327522 428.114856 
L 558.320228 427.800481 
L 559.312934 440.747774 
L 560.30564 451.283477 
L 561.298345 433.202535 
L 562.291051 485.35525 
L 564.276463 419.982868 
L 566.261875 452.57734 
L 567.254581 459.696735 
L 568.247287 433.61284 
L 569.239993 456.138499 
L 570.232699 418.736392 
L 571.225405 423.862588 
L 572.218111 461.08879 
L 573.210817 449.482157 
L 574.203523 457.508695 
L 575.196228 458.527164 
L 576.188934 437.242377 
L 577.18164 472.264907 
L 578.174346 465.315908 
L 579.167052 428.118072 
L 580.159758 446.322711 
L 581.152464 437.265862 
L 582.14517 447.32666 
L 583.137876 437.849519 
L 585.123288 441.847533 
L 586.115994 465.616398 
L 587.1087 437.881474 
L 588.101405 448.90129 
L 589.094111 433.937753 
L 590.086817 440.827446 
L 591.079523 444.639521 
L 592.072229 451.589609 
L 593.064935 456.518445 
L 594.057641 436.69139 
L 595.050347 437.361082 
L 596.043053 437.379896 
L 597.035759 434.24587 
L 598.028465 454.198708 
L 599.021171 436.068495 
L 600.013877 427.65588 
L 601.006582 447.460373 
L 601.999288 455.605407 
L 602.991994 468.937465 
L 603.9847 456.427642 
L 604.977406 445.903738 
L 605.970112 452.164547 
L 607.955524 460.220371 
L 608.94823 441.249854 
L 609.940936 448.954969 
L 610.933642 436.205039 
L 611.926348 441.93055 
L 612.919054 453.58735 
L 613.911759 443.18404 
L 614.904465 452.456815 
L 615.897171 458.855846 
L 616.889877 447.036017 
L 617.882583 431.745648 
L 618.875289 455.122456 
L 619.867995 442.504002 
L 620.860701 442.98346 
L 621.853407 445.080244 
L 622.846113 448.332645 
L 623.838819 449.518522 
L 624.831525 460.022433 
L 625.824231 465.497377 
L 626.816936 448.605879 
L 628.802348 451.800936 
L 629.795054 453.464467 
L 630.78776 460.599528 
L 631.780466 448.958245 
L 632.773172 461.953524 
L 633.765878 457.677705 
L 634.758584 445.811096 
L 635.75129 454.241138 
L 636.743996 451.290754 
L 637.736702 460.669356 
L 638.729408 460.398146 
L 639.722114 458.892666 
L 640.714819 455.06966 
L 641.707525 464.522643 
L 642.700231 459.042119 
L 643.692937 462.137917 
L 645.678349 450.859872 
L 646.671055 450.53746 
L 647.663761 456.397424 
L 648.656467 455.221371 
L 649.649173 458.993892 
L 650.641879 460.880665 
L 651.634585 454.320981 
L 652.627291 455.651429 
L 653.619996 456.501259 
L 654.612702 454.054254 
L 655.605408 458.737042 
L 656.598114 457.904528 
L 657.59082 456.631989 
L 658.583526 459.595123 
L 659.576232 455.099784 
L 660.568938 455.768433 
L 661.561644 457.012916 
L 662.55435 459.797917 
L 663.547056 457.701267 
L 664.539762 462.366071 
L 665.532468 461.013189 
L 666.525173 455.797887 
L 667.517879 458.220458 
L 668.510585 458.042321 
L 669.503291 456.959473 
L 670.495997 458.144653 
L 672.481409 459.552882 
L 673.474115 458.823379 
L 674.466821 456.065717 
L 675.459527 461.616552 
L 676.452233 458.608953 
L 677.444939 460.301888 
L 678.437645 459.874785 
L 679.43035 456.260107 
L 680.423056 459.659056 
L 681.415762 461.395407 
L 682.408468 459.254914 
L 683.401174 459.962221 
L 684.39388 459.779213 
L 685.386586 459.080961 
L 686.379292 462.715881 
L 687.371998 461.493323 
L 688.364704 463.434226 
L 689.35741 460.253602 
L 690.350116 462.421957 
L 691.342822 460.644822 
L 692.335527 462.373516 
L 693.328233 460.936102 
L 694.320939 461.606443 
L 695.313645 463.647621 
L 696.306351 462.861899 
L 697.299057 460.952706 
L 698.291763 462.533374 
L 699.284469 461.008294 
L 700.277175 462.009319 
L 701.269881 461.752741 
L 703.255293 460.084757 
L 704.247999 463.493481 
L 705.240705 462.300023 
L 706.23341 462.154067 
L 707.226116 463.92238 
L 708.218822 461.725249 
L 709.211528 463.790649 
L 710.204234 463.637405 
L 711.19694 464.726195 
L 712.189646 464.583911 
L 714.175058 462.687339 
L 715.167764 463.190288 
L 716.16047 464.074106 
L 717.153176 465.215135 
L 718.145882 465.546154 
L 719.138587 463.125648 
L 720.131293 463.449925 
L 721.123999 464.470565 
L 722.116705 464.350233 
L 723.109411 463.270443 
L 724.102117 464.210417 
L 725.094823 464.729741 
L 726.087529 464.185815 
L 727.080235 465.590424 
L 728.072941 464.976995 
L 729.065647 464.205178 
L 730.058353 466.571079 
L 731.051059 465.522047 
L 732.043764 466.456335 
L 733.03647 464.428938 
L 735.021882 466.341788 
L 736.014588 466.286082 
L 737.007294 465.850965 
L 738 467.392792 
L 738.992706 466.902061 
L 739.985412 465.530431 
L 740.978118 465.879188 
L 741.970824 466.364426 
L 742.96353 468.547962 
L 743.956236 467.814936 
L 744.948941 467.549673 
L 745.941647 467.905489 
L 746.934353 467.415245 
L 747.927059 467.250528 
L 748.919765 467.288741 
L 749.912471 468.309152 
L 751.897883 467.699865 
L 752.890589 468.626067 
L 753.883295 467.43777 
L 754.876001 468.848963 
L 755.868707 467.430073 
L 756.861413 468.641721 
L 757.854118 468.776368 
L 758.846824 467.239251 
L 759.83953 469.568989 
L 760.832236 469.699097 
L 761.824942 468.863583 
L 762.817648 468.5351 
L 763.810354 470.408051 
L 765.795766 468.857432 
L 766.788472 469.549812 
L 767.781178 469.027891 
L 768.773884 469.366736 
L 769.76659 470.185295 
L 770.759295 469.382141 
L 771.752001 468.14737 
L 772.744707 469.604905 
L 773.737413 469.182653 
L 774.730119 467.766235 
L 775.722825 468.727305 
L 776.715531 470.057658 
L 777.708237 469.613448 
L 778.700943 470.212402 
L 779.693649 469.739382 
L 780.686355 471.057603 
L 781.679061 471.330671 
L 782.671767 470.448115 
L 783.664473 469.992517 
L 784.657178 470.164977 
L 785.649884 470.916973 
L 786.64259 471.020322 
L 787.635296 470.458717 
L 788.628002 471.537647 
L 789.620708 471.772898 
L 790.613414 470.520103 
L 791.60612 470.193754 
L 792.598826 471.873032 
L 793.591532 471.520072 
L 794.584238 472.227748 
L 795.576944 471.905555 
L 796.56965 473.053001 
L 798.555061 471.713864 
L 800.540473 471.821359 
L 802.525885 473.295768 
L 803.518591 471.513063 
L 804.511297 472.166642 
L 805.504003 472.291424 
L 806.496709 471.466799 
L 807.489415 470.988512 
L 808.482121 472.797024 
L 809.474827 473.879418 
L 811.460238 473.684369 
L 812.452944 472.856357 
L 813.44565 473.305707 
L 815.431062 475.007509 
L 816.423768 473.304459 
L 817.416474 473.954022 
L 818.40918 474.361203 
L 819.401886 474.130676 
L 820.394592 474.795661 
L 821.387298 473.40064 
L 822.380004 472.898787 
L 823.372709 473.661834 
L 824.365415 473.939509 
L 825.358121 473.821593 
L 826.350827 473.427126 
L 827.343533 474.653546 
L 828.336239 473.837388 
L 829.328945 473.299472 
L 830.321651 474.415038 
L 831.314357 474.612975 
L 832.307063 475.193799 
L 833.299769 474.65104 
L 834.292475 475.710597 
L 835.285181 475.190685 
L 836.277886 474.480803 
L 837.270592 474.600193 
L 838.263298 474.160467 
L 839.256004 474.920811 
L 841.241416 475.859421 
L 842.234122 475.844684 
L 843.226828 476.341953 
L 844.219534 476.245614 
L 845.21224 477.12142 
L 846.204946 474.75359 
L 847.197652 475.307451 
L 849.183064 477.223643 
L 850.175769 475.353379 
L 851.168475 476.019616 
L 852.161181 476.275457 
L 853.153887 476.139159 
L 854.146593 476.936468 
L 855.139299 477.193531 
L 856.132005 474.996679 
L 857.124711 475.79832 
L 858.117417 477.276018 
L 859.110123 477.823963 
L 860.102829 476.299109 
L 861.095535 477.112834 
L 862.088241 477.607474 
L 863.080946 477.512576 
L 864.073652 476.657929 
L 865.066358 478.860633 
L 866.059064 477.867114 
L 867.05177 478.460564 
L 868.044476 477.776634 
L 869.037182 477.291727 
L 870.029888 478.101569 
L 871.022594 476.898796 
L 872.0153 476.342719 
L 873.008006 477.834949 
L 874.000712 476.116413 
L 874.993418 478.097422 
L 875.986123 478.171317 
L 876.978829 478.030947 
L 877.971535 478.550934 
L 878.964241 479.228806 
L 879.956947 478.446958 
L 880.949653 479.609756 
L 881.942359 479.306507 
L 882.935065 478.23231 
L 883.927771 478.456896 
L 884.920477 479.493299 
L 885.913183 477.282137 
L 886.905889 478.497324 
L 887.898595 479.007517 
L 888.8913 479.761747 
L 889.884006 478.42952 
L 890.876712 478.54043 
L 891.869418 477.810836 
L 892.862124 478.76452 
L 893.85483 480.410493 
L 894.847536 478.794289 
L 895.840242 477.801331 
L 896.832948 478.538878 
L 897.825654 478.929465 
L 898.81836 478.539761 
L 899.811066 479.234287 
L 900.803772 479.018549 
L 901.796477 480.222844 
L 902.789183 480.887209 
L 903.781889 478.563959 
L 904.774595 479.970216 
L 905.767301 478.503737 
L 906.760007 479.561878 
L 907.752713 479.077203 
L 908.745419 481.419181 
L 909.738125 481.62953 
L 911.723537 479.132822 
L 912.716243 480.161234 
L 913.708949 479.235998 
L 914.701655 480.066239 
L 915.69436 482.595291 
L 916.687066 480.463852 
L 917.679772 481.117092 
L 919.665184 480.125628 
L 920.65789 482.644008 
L 922.643302 479.140714 
L 923.636008 480.698275 
L 924.628714 480.013043 
L 925.62142 479.593919 
L 926.614126 480.763718 
L 927.606832 480.192097 
L 928.599537 480.327607 
L 929.592243 481.546505 
L 930.584949 479.828149 
L 933.563067 480.833128 
L 934.555773 483.454044 
L 935.548479 480.908403 
L 936.541185 481.324135 
L 937.533891 480.788202 
L 938.526597 480.891534 
L 939.519303 482.498792 
L 940.512009 481.615778 
L 941.504714 480.423386 
L 942.49742 482.601772 
L 943.490126 481.420441 
L 944.482832 482.719009 
L 945.475538 482.528093 
L 946.468244 481.891987 
L 947.46095 483.09671 
L 948.453656 480.166555 
L 949.446362 481.85557 
L 950.439068 482.37369 
L 951.431774 479.652522 
L 952.42448 483.362627 
L 953.417186 481.709952 
L 954.409891 482.479369 
L 955.402597 483.053712 
L 956.395303 482.4249 
L 957.388009 481.135692 
L 958.380715 483.066186 
L 959.373421 482.647912 
L 960.366127 481.83871 
L 961.358833 482.460374 
L 962.351539 483.326095 
L 963.344245 482.314269 
L 964.336951 482.87015 
L 965.329657 483.84288 
L 966.322363 482.862535 
L 967.315068 484.272523 
L 968.307774 481.923375 
L 969.30048 481.514772 
L 970.293186 483.834518 
L 971.285892 483.838484 
L 972.278598 483.989941 
L 973.271304 482.912946 
L 974.26401 483.807659 
L 975.256716 483.509379 
L 976.249422 482.296843 
L 977.242128 483.502512 
L 978.234834 483.491135 
L 979.22754 484.50913 
L 980.220246 483.762604 
L 981.212951 484.052238 
L 982.205657 484.159339 
L 983.198363 485.971156 
L 984.191069 483.995261 
L 985.183775 484.841538 
L 986.176481 484.647668 
L 987.169187 483.633592 
L 988.161893 483.880803 
L 989.154599 483.916453 
L 990.147305 483.432983 
L 991.140011 483.540199 
L 992.132717 485.479423 
L 993.125423 484.154582 
L 994.118128 483.951264 
L 995.110834 485.195802 
L 996.10354 483.475552 
L 997.096246 483.121724 
L 998.088952 484.617086 
L 999.081658 483.541451 
L 1000.074364 485.305156 
L 1001.06707 485.125946 
L 1002.059776 483.180014 
L 1003.052482 484.668236 
L 1004.045188 485.102295 
L 1005.037894 484.855594 
L 1006.0306 483.77201 
L 1007.023305 484.339514 
L 1008.016011 486.158564 
L 1009.008717 485.258887 
L 1010.001423 484.640186 
L 1010.994129 485.102199 
L 1011.986835 483.247074 
L 1012.979541 485.748989 
L 1013.972247 485.27096 
L 1014.964953 485.885765 
L 1015.957659 484.706982 
L 1016.950365 484.840234 
L 1017.943071 485.508929 
L 1018.935777 485.046915 
L 1019.928482 483.902452 
L 1020.921188 483.428633 
L 1021.913894 484.57889 
L 1022.9066 486.323749 
L 1023.899306 484.670753 
L 1024.892012 485.956971 
L 1025.884718 486.639828 
L 1026.877424 485.917704 
L 1027.87013 484.414768 
L 1028.862836 484.265305 
L 1029.855542 484.633892 
L 1030.848248 485.205067 
L 1031.840954 485.564783 
L 1032.833659 486.250786 
L 1033.826365 485.244138 
L 1034.819071 485.636126 
L 1035.811777 486.178874 
L 1036.804483 486.105553 
L 1037.797189 485.346177 
L 1038.789895 485.785334 
L 1039.782601 485.415738 
L 1040.775307 485.301539 
L 1041.768013 485.926913 
L 1042.760719 488.036925 
L 1043.753425 486.201404 
L 1044.746131 486.498156 
L 1045.738837 486.291094 
L 1046.731542 485.219818 
L 1047.724248 486.075291 
L 1048.716954 486.682262 
L 1049.70966 488.361124 
L 1050.702366 486.683964 
L 1051.695072 485.481451 
L 1052.687778 487.317883 
L 1053.680484 485.71569 
L 1054.67319 486.928044 
L 1055.665896 487.401823 
L 1056.658602 487.740911 
L 1057.651308 486.062498 
L 1058.644014 486.182993 
L 1059.636719 487.010601 
L 1060.629425 486.710398 
L 1061.622131 486.857304 
L 1062.614837 487.257739 
L 1063.607543 487.427886 
L 1064.600249 487.098283 
L 1065.592955 486.899576 
L 1066.585661 488.363477 
L 1067.578367 486.335858 
L 1068.571073 486.389075 
L 1069.563779 486.616075 
L 1070.556485 488.723824 
L 1071.549191 487.426136 
L 1072.541896 487.687869 
L 1073.534602 486.333499 
L 1074.527308 487.079299 
L 1076.51272 487.292316 
L 1077.505426 488.022367 
L 1078.498132 488.076604 
L 1079.490838 486.543384 
L 1080.483544 488.047337 
L 1081.47625 486.940496 
L 1082.468956 485.421459 
L 1083.461662 486.9268 
L 1084.454368 486.785357 
L 1085.447073 488.104893 
L 1086.439779 488.500555 
L 1087.432485 487.455215 
L 1088.425191 486.966179 
L 1089.417897 486.782679 
L 1090.410603 487.096542 
L 1091.403309 487.92533 
L 1092.396015 488.057674 
L 1093.388721 487.953615 
L 1094.381427 487.982125 
L 1095.374133 486.605896 
L 1096.366839 489.368123 
L 1097.359545 488.699325 
L 1098.35225 487.123981 
L 1099.344956 487.188842 
L 1100.337662 488.45148 
L 1101.330368 486.533677 
L 1102.323074 487.780012 
L 1103.31578 487.628757 
L 1104.308486 488.025701 
L 1105.301192 488.733275 
L 1106.293898 487.695409 
L 1107.286604 488.516308 
L 1108.27931 488.954831 
L 1109.272016 488.345213 
L 1110.264722 489.887126 
L 1111.257428 488.023958 
L 1112.250133 488.909202 
L 1113.242839 488.369764 
L 1114.235545 489.065602 
L 1116.220957 487.976273 
L 1117.213663 489.002587 
L 1118.206369 488.037711 
L 1119.199075 489.332747 
L 1120.191781 488.3186 
L 1121.184487 488.545005 
L 1122.177193 489.529362 
L 1123.169899 489.451758 
L 1124.162605 488.244738 
L 1126.148016 487.8008 
L 1127.140722 487.054034 
L 1128.133428 488.957619 
L 1129.126134 488.055921 
L 1130.11884 489.317558 
L 1131.111546 488.248659 
L 1132.104252 489.21438 
L 1133.096958 489.245615 
L 1134.089664 489.70722 
L 1135.08237 488.554669 
L 1137.067782 488.958226 
L 1138.060487 488.033251 
L 1139.053193 488.628914 
L 1140.045899 488.613443 
L 1141.038605 489.33301 
L 1142.031311 488.38828 
L 1143.024017 489.70784 
L 1145.009429 487.410002 
L 1146.002135 488.261674 
L 1146.994841 489.728247 
L 1147.987547 488.462223 
L 1148.980253 489.192921 
L 1149.972959 489.242669 
L 1150.965664 489.898239 
L 1151.95837 487.519166 
L 1152.951076 488.066474 
L 1153.943782 488.270951 
L 1154.936488 488.317478 
L 1155.929194 488.622649 
L 1156.9219 488.59839 
L 1157.914606 489.162566 
L 1158.907312 488.959525 
L 1159.900018 490.020965 
L 1160.892724 489.663687 
L 1161.88543 488.07471 
L 1162.878136 488.88581 
L 1163.870841 489.114757 
L 1164.863547 488.632273 
L 1165.856253 488.819765 
L 1166.848959 488.636988 
L 1167.841665 488.0086 
L 1168.834371 488.504778 
L 1169.827077 489.733599 
L 1171.812489 489.067548 
L 1172.805195 488.460989 
L 1173.797901 488.605816 
L 1174.790607 489.753011 
L 1175.783313 489.035528 
L 1176.776019 489.451022 
L 1177.768724 490.363625 
L 1178.76143 489.425509 
L 1179.754136 488.825145 
L 1181.739548 489.521826 
L 1182.732254 489.048732 
L 1183.72496 489.367501 
L 1184.717666 489.475216 
L 1185.710372 489.80933 
L 1186.703078 489.407818 
L 1187.695784 487.750306 
L 1188.68849 488.422148 
L 1189.681196 489.250679 
L 1190.673901 489.306097 
L 1191.666607 489.822507 
L 1192.659313 489.417006 
L 1193.652019 488.648209 
L 1194.644725 488.603462 
L 1195.637431 489.166037 
L 1196.630137 488.390288 
L 1197.622843 489.257817 
L 1198.615549 488.881673 
L 1199.608255 489.737359 
L 1200.600961 489.717938 
L 1201.593667 490.343858 
L 1202.586373 490.299877 
L 1203.579078 489.299397 
L 1204.571784 490.145903 
L 1205.56449 490.805972 
L 1206.557196 489.961077 
L 1207.549902 490.676301 
L 1208.542608 489.061164 
L 1209.535314 489.865565 
L 1210.52802 489.08648 
L 1211.520726 489.557806 
L 1212.513432 489.561673 
L 1213.506138 490.06408 
L 1215.49155 488.652987 
L 1216.484255 488.621037 
L 1217.476961 489.686401 
L 1218.469667 490.205862 
L 1219.462373 489.343403 
L 1221.447785 490.338671 
L 1223.433197 489.554303 
L 1224.425903 489.603446 
L 1225.418609 489.061708 
L 1226.411315 487.917034 
L 1227.404021 490.399425 
L 1228.396727 490.009613 
L 1229.389432 490.577186 
L 1230.382138 489.593235 
L 1231.374844 490.448212 
L 1232.36755 489.413599 
L 1233.360256 490.492669 
L 1234.352962 489.648101 
L 1235.345668 489.672103 
L 1236.338374 490.119319 
L 1237.33108 488.245457 
L 1238.323786 490.127528 
L 1239.316492 490.89373 
L 1240.309198 490.155761 
L 1241.301904 490.116541 
L 1242.29461 489.723855 
L 1243.287315 488.720248 
L 1244.280021 490.952921 
L 1245.272727 490.071914 
L 1245.272727 490.071914 
" clip-path="url(#p2805317e59)" style="fill: none; stroke: #1f77b4; stroke-width: 1.5; stroke-linecap: square"/>
   </g>
   <g id="patch_3">
    <path d="M 180 512.64 
L 180 69.12 
" style="fill: none; stroke: #000000; stroke-width: 0.8; stroke-linejoin: miter; stroke-linecap: square"/>
   </g>
   <g id="patch_4">
    <path d="M 1296 512.64 
L 1296 69.12 
" style="fill: none; stroke: #000000; stroke-width: 0.8; stroke-linejoin: miter; stroke-linecap: square"/>
   </g>
   <g id="patch_5">
    <path d="M 180 512.64 
L 1296 512.64 
" style="fill: none; stroke: #000000; stroke-width: 0.8; stroke-linejoin: miter; stroke-linecap: square"/>
   </g>
   <g id="patch_6">
    <path d="M 180 69.12 
L 1296 69.12 
" style="fill: none; stroke: #000000; stroke-width: 0.8; stroke-linejoin: miter; stroke-linecap: square"/>
   </g>
   <g id="text_14">
    <!-- source4-receiver19 -->
    <g transform="translate(544.9 60.80125) scale(0.4 -0.4)">
     <defs>
      <path id="DejaVuSans-73" d="M 2834 3397 
L 2834 2853 
Q 2591 2978 2328 3040 
Q 2066 3103 1784 3103 
Q 1356 3103 1142 2972 
Q 928 2841 928 2578 
Q 928 2378 1081 2264 
Q 1234 2150 1697 2047 
L 1894 2003 
Q 2506 1872 2764 1633 
Q 3022 1394 3022 966 
Q 3022 478 2636 193 
Q 2250 -91 1575 -91 
Q 1294 -91 989 -36 
Q 684 19 347 128 
L 347 722 
Q 666 556 975 473 
Q 1284 391 1588 391 
Q 1994 391 2212 530 
Q 2431 669 2431 922 
Q 2431 1156 2273 1281 
Q 2116 1406 1581 1522 
L 1381 1569 
Q 847 1681 609 1914 
Q 372 2147 372 2553 
Q 372 3047 722 3315 
Q 1072 3584 1716 3584 
Q 2034 3584 2315 3537 
Q 2597 3491 2834 3397 
z
" transform="scale(0.015625)"/>
      <path id="DejaVuSans-6f" d="M 1959 3097 
Q 1497 3097 1228 2736 
Q 959 2375 959 1747 
Q 959 1119 1226 758 
Q 1494 397 1959 397 
Q 2419 397 2687 759 
Q 2956 1122 2956 1747 
Q 2956 2369 2687 2733 
Q 2419 3097 1959 3097 
z
M 1959 3584 
Q 2709 3584 3137 3096 
Q 3566 2609 3566 1747 
Q 3566 888 3137 398 
Q 2709 -91 1959 -91 
Q 1206 -91 779 398 
Q 353 888 353 1747 
Q 353 2609 779 3096 
Q 1206 3584 1959 3584 
z
" transform="scale(0.015625)"/>
      <path id="DejaVuSans-75" d="M 544 1381 
L 544 3500 
L 1119 3500 
L 1119 1403 
Q 1119 906 1312 657 
Q 1506 409 1894 409 
Q 2359 409 2629 706 
Q 2900 1003 2900 1516 
L 2900 3500 
L 3475 3500 
L 3475 0 
L 2900 0 
L 2900 538 
Q 2691 219 2414 64 
Q 2138 -91 1772 -91 
Q 1169 -91 856 284 
Q 544 659 544 1381 
z
M 1991 3584 
L 1991 3584 
z
" transform="scale(0.015625)"/>
      <path id="DejaVuSans-72" d="M 2631 2963 
Q 2534 3019 2420 3045 
Q 2306 3072 2169 3072 
Q 1681 3072 1420 2755 
Q 1159 2438 1159 1844 
L 1159 0 
L 581 0 
L 581 3500 
L 1159 3500 
L 1159 2956 
Q 1341 3275 1631 3429 
Q 1922 3584 2338 3584 
Q 2397 3584 2469 3576 
Q 2541 3569 2628 3553 
L 2631 2963 
z
" transform="scale(0.015625)"/>
      <path id="DejaVuSans-63" d="M 3122 3366 
L 3122 2828 
Q 2878 2963 2633 3030 
Q 2388 3097 2138 3097 
Q 1578 3097 1268 2742 
Q 959 2388 959 1747 
Q 959 1106 1268 751 
Q 1578 397 2138 397 
Q 2388 397 2633 464 
Q 2878 531 3122 666 
L 3122 134 
Q 2881 22 2623 -34 
Q 2366 -91 2075 -91 
Q 1284 -91 818 406 
Q 353 903 353 1747 
Q 353 2603 823 3093 
Q 1294 3584 2113 3584 
Q 2378 3584 2631 3529 
Q 2884 3475 3122 3366 
z
" transform="scale(0.015625)"/>
      <path id="DejaVuSans-65" d="M 3597 1894 
L 3597 1613 
L 953 1613 
Q 991 1019 1311 708 
Q 1631 397 2203 397 
Q 2534 397 2845 478 
Q 3156 559 3463 722 
L 3463 178 
Q 3153 47 2828 -22 
Q 2503 -91 2169 -91 
Q 1331 -91 842 396 
Q 353 884 353 1716 
Q 353 2575 817 3079 
Q 1281 3584 2069 3584 
Q 2775 3584 3186 3129 
Q 3597 2675 3597 1894 
z
M 3022 2063 
Q 3016 2534 2758 2815 
Q 2500 3097 2075 3097 
Q 1594 3097 1305 2825 
Q 1016 2553 972 2059 
L 3022 2063 
z
" transform="scale(0.015625)"/>
      <path id="DejaVuSans-34" d="M 2419 4116 
L 825 1625 
L 2419 1625 
L 2419 4116 
z
M 2253 4666 
L 3047 4666 
L 3047 1625 
L 3713 1625 
L 3713 1100 
L 3047 1100 
L 3047 0 
L 2419 0 
L 2419 1100 
L 313 1100 
L 313 1709 
L 2253 4666 
z
" transform="scale(0.015625)"/>
      <path id="DejaVuSans-2d" d="M 313 2009 
L 1997 2009 
L 1997 1497 
L 313 1497 
L 313 2009 
z
" transform="scale(0.015625)"/>
      <path id="DejaVuSans-69" d="M 603 3500 
L 1178 3500 
L 1178 0 
L 603 0 
L 603 3500 
z
M 603 4863 
L 1178 4863 
L 1178 4134 
L 603 4134 
L 603 4863 
z
" transform="scale(0.015625)"/>
      <path id="DejaVuSans-76" d="M 191 3500 
L 800 3500 
L 1894 563 
L 2988 3500 
L 3597 3500 
L 2284 0 
L 1503 0 
L 191 3500 
z
" transform="scale(0.015625)"/>
      <path id="DejaVuSans-39" d="M 703 97 
L 703 672 
Q 941 559 1184 500 
Q 1428 441 1663 441 
Q 2288 441 2617 861 
Q 2947 1281 2994 2138 
Q 2813 1869 2534 1725 
Q 2256 1581 1919 1581 
Q 1219 1581 811 2004 
Q 403 2428 403 3163 
Q 403 3881 828 4315 
Q 1253 4750 1959 4750 
Q 2769 4750 3195 4129 
Q 3622 3509 3622 2328 
Q 3622 1225 3098 567 
Q 2575 -91 1691 -91 
Q 1453 -91 1209 -44 
Q 966 3 703 97 
z
M 1959 2075 
Q 2384 2075 2632 2365 
Q 2881 2656 2881 3163 
Q 2881 3666 2632 3958 
Q 2384 4250 1959 4250 
Q 1534 4250 1286 3958 
Q 1038 3666 1038 3163 
Q 1038 2656 1286 2365 
Q 1534 2075 1959 2075 
z
" transform="scale(0.015625)"/>
     </defs>
     <use xlink:href="#DejaVuSans-73"/>
     <use xlink:href="#DejaVuSans-6f" x="52.099609"/>
     <use xlink:href="#DejaVuSans-75" x="113.28125"/>
     <use xlink:href="#DejaVuSans-72" x="176.660156"/>
     <use xlink:href="#DejaVuSans-63" x="215.523438"/>
     <use xlink:href="#DejaVuSans-65" x="270.503906"/>
     <use xlink:href="#DejaVuSans-34" x="332.027344"/>
     <use xlink:href="#DejaVuSans-2d" x="395.650391"/>
     <use xlink:href="#DejaVuSans-72" x="431.734375"/>
     <use xlink:href="#DejaVuSans-65" x="470.597656"/>
     <use xlink:href="#DejaVuSans-63" x="532.121094"/>
     <use xlink:href="#DejaVuSans-65" x="587.101562"/>
     <use xlink:href="#DejaVuSans-69" x="648.625"/>
     <use xlink:href="#DejaVuSans-76" x="676.408203"/>
     <use xlink:href="#DejaVuSans-65" x="735.587891"/>
     <use xlink:href="#DejaVuSans-72" x="797.111328"/>
     <use xlink:href="#DejaVuSans-31" x="838.224609"/>
     <use xlink:href="#DejaVuSans-39" x="901.847656"/>
    </g>
   </g>
  </g>
 </g>
 <defs>
  <clipPath id="p2805317e59">
   <rect x="180" y="69.12" width="1116" height="443.52"/>
  </clipPath>
 </defs>
</svg>
