<?xml version="1.0" encoding="utf-8" standalone="no"?>
<!DOCTYPE svg PUBLIC "-//W3C//DTD SVG 1.1//EN"
  "http://www.w3.org/Graphics/SVG/1.1/DTD/svg11.dtd">
<svg xmlns:xlink="http://www.w3.org/1999/xlink" width="1440pt" height="576pt" viewBox="0 0 1440 576" xmlns="http://www.w3.org/2000/svg" version="1.1">
 <metadata>
  <rdf:RDF xmlns:dc="http://purl.org/dc/elements/1.1/" xmlns:cc="http://creativecommons.org/ns#" xmlns:rdf="http://www.w3.org/1999/02/22-rdf-syntax-ns#">
   <cc:Work>
    <dc:type rdf:resource="http://purl.org/dc/dcmitype/StillImage"/>
    <dc:date>2024-05-22T04:49:46.157827</dc:date>
    <dc:format>image/svg+xml</dc:format>
    <dc:creator>
     <cc:Agent>
      <dc:title>Matplotlib v3.8.3, https://matplotlib.org/</dc:title>
     </cc:Agent>
    </dc:creator>
   </cc:Work>
  </rdf:RDF>
 </metadata>
 <defs>
  <style type="text/css">*{stroke-linejoin: round; stroke-linecap: butt}</style>
 </defs>
 <g id="figure_1">
  <g id="patch_1">
   <path d="M 0 576 
L 1440 576 
L 1440 0 
L 0 0 
z
" style="fill: #ffffff"/>
  </g>
  <g id="axes_1">
   <g id="patch_2">
    <path d="M 180 512.64 
L 1296 512.64 
L 1296 69.12 
L 180 69.12 
z
" style="fill: #ffffff"/>
   </g>
   <g id="matplotlib.axis_1">
    <g id="xtick_1">
     <g id="line2d_1">
      <defs>
       <path id="ma5076833da" d="M 0 0 
L 0 3.5 
" style="stroke: #000000; stroke-width: 0.8"/>
      </defs>
      <g>
       <use xlink:href="#ma5076833da" x="229.734567" y="512.64" style="stroke: #000000; stroke-width: 0.8"/>
      </g>
     </g>
     <g id="text_1">
      <!-- 0 -->
      <g transform="translate(226.553317 527.238438) scale(0.1 -0.1)">
       <defs>
        <path id="DejaVuSans-30" d="M 2034 4250 
Q 1547 4250 1301 3770 
Q 1056 3291 1056 2328 
Q 1056 1369 1301 889 
Q 1547 409 2034 409 
Q 2525 409 2770 889 
Q 3016 1369 3016 2328 
Q 3016 3291 2770 3770 
Q 2525 4250 2034 4250 
z
M 2034 4750 
Q 2819 4750 3233 4129 
Q 3647 3509 3647 2328 
Q 3647 1150 3233 529 
Q 2819 -91 2034 -91 
Q 1250 -91 836 529 
Q 422 1150 422 2328 
Q 422 3509 836 4129 
Q 1250 4750 2034 4750 
z
" transform="scale(0.015625)"/>
       </defs>
       <use xlink:href="#DejaVuSans-30"/>
      </g>
     </g>
    </g>
    <g id="xtick_2">
     <g id="line2d_2">
      <g>
       <use xlink:href="#ma5076833da" x="433.04074" y="512.64" style="stroke: #000000; stroke-width: 0.8"/>
      </g>
     </g>
     <g id="text_2">
      <!-- 500 -->
      <g transform="translate(423.49699 527.238438) scale(0.1 -0.1)">
       <defs>
        <path id="DejaVuSans-35" d="M 691 4666 
L 3169 4666 
L 3169 4134 
L 1269 4134 
L 1269 2991 
Q 1406 3038 1543 3061 
Q 1681 3084 1819 3084 
Q 2600 3084 3056 2656 
Q 3513 2228 3513 1497 
Q 3513 744 3044 326 
Q 2575 -91 1722 -91 
Q 1428 -91 1123 -41 
Q 819 9 494 109 
L 494 744 
Q 775 591 1075 516 
Q 1375 441 1709 441 
Q 2250 441 2565 725 
Q 2881 1009 2881 1497 
Q 2881 1984 2565 2268 
Q 2250 2553 1709 2553 
Q 1456 2553 1204 2497 
Q 953 2441 691 2322 
L 691 4666 
z
" transform="scale(0.015625)"/>
       </defs>
       <use xlink:href="#DejaVuSans-35"/>
       <use xlink:href="#DejaVuSans-30" x="63.623047"/>
       <use xlink:href="#DejaVuSans-30" x="127.246094"/>
      </g>
     </g>
    </g>
    <g id="xtick_3">
     <g id="line2d_3">
      <g>
       <use xlink:href="#ma5076833da" x="636.346913" y="512.64" style="stroke: #000000; stroke-width: 0.8"/>
      </g>
     </g>
     <g id="text_3">
      <!-- 1000 -->
      <g transform="translate(623.621913 527.238438) scale(0.1 -0.1)">
       <defs>
        <path id="DejaVuSans-31" d="M 794 531 
L 1825 531 
L 1825 4091 
L 703 3866 
L 703 4441 
L 1819 4666 
L 2450 4666 
L 2450 531 
L 3481 531 
L 3481 0 
L 794 0 
L 794 531 
z
" transform="scale(0.015625)"/>
       </defs>
       <use xlink:href="#DejaVuSans-31"/>
       <use xlink:href="#DejaVuSans-30" x="63.623047"/>
       <use xlink:href="#DejaVuSans-30" x="127.246094"/>
       <use xlink:href="#DejaVuSans-30" x="190.869141"/>
      </g>
     </g>
    </g>
    <g id="xtick_4">
     <g id="line2d_4">
      <g>
       <use xlink:href="#ma5076833da" x="839.653087" y="512.64" style="stroke: #000000; stroke-width: 0.8"/>
      </g>
     </g>
     <g id="text_4">
      <!-- 1500 -->
      <g transform="translate(826.928087 527.238438) scale(0.1 -0.1)">
       <use xlink:href="#DejaVuSans-31"/>
       <use xlink:href="#DejaVuSans-35" x="63.623047"/>
       <use xlink:href="#DejaVuSans-30" x="127.246094"/>
       <use xlink:href="#DejaVuSans-30" x="190.869141"/>
      </g>
     </g>
    </g>
    <g id="xtick_5">
     <g id="line2d_5">
      <g>
       <use xlink:href="#ma5076833da" x="1042.95926" y="512.64" style="stroke: #000000; stroke-width: 0.8"/>
      </g>
     </g>
     <g id="text_5">
      <!-- 2000 -->
      <g transform="translate(1030.23426 527.238438) scale(0.1 -0.1)">
       <defs>
        <path id="DejaVuSans-32" d="M 1228 531 
L 3431 531 
L 3431 0 
L 469 0 
L 469 531 
Q 828 903 1448 1529 
Q 2069 2156 2228 2338 
Q 2531 2678 2651 2914 
Q 2772 3150 2772 3378 
Q 2772 3750 2511 3984 
Q 2250 4219 1831 4219 
Q 1534 4219 1204 4116 
Q 875 4013 500 3803 
L 500 4441 
Q 881 4594 1212 4672 
Q 1544 4750 1819 4750 
Q 2544 4750 2975 4387 
Q 3406 4025 3406 3419 
Q 3406 3131 3298 2873 
Q 3191 2616 2906 2266 
Q 2828 2175 2409 1742 
Q 1991 1309 1228 531 
z
" transform="scale(0.015625)"/>
       </defs>
       <use xlink:href="#DejaVuSans-32"/>
       <use xlink:href="#DejaVuSans-30" x="63.623047"/>
       <use xlink:href="#DejaVuSans-30" x="127.246094"/>
       <use xlink:href="#DejaVuSans-30" x="190.869141"/>
      </g>
     </g>
    </g>
    <g id="xtick_6">
     <g id="line2d_6">
      <g>
       <use xlink:href="#ma5076833da" x="1246.265433" y="512.64" style="stroke: #000000; stroke-width: 0.8"/>
      </g>
     </g>
     <g id="text_6">
      <!-- 2500 -->
      <g transform="translate(1233.540433 527.238438) scale(0.1 -0.1)">
       <use xlink:href="#DejaVuSans-32"/>
       <use xlink:href="#DejaVuSans-35" x="63.623047"/>
       <use xlink:href="#DejaVuSans-30" x="127.246094"/>
       <use xlink:href="#DejaVuSans-30" x="190.869141"/>
      </g>
     </g>
    </g>
   </g>
   <g id="matplotlib.axis_2">
    <g id="ytick_1">
     <g id="line2d_7">
      <defs>
       <path id="m6a04f2f757" d="M 0 0 
L -3.5 0 
" style="stroke: #000000; stroke-width: 0.8"/>
      </defs>
      <g>
       <use xlink:href="#m6a04f2f757" x="180" y="489.774541" style="stroke: #000000; stroke-width: 0.8"/>
      </g>
     </g>
     <g id="text_7">
      <!-- −6 -->
      <g transform="translate(158.257812 493.57376) scale(0.1 -0.1)">
       <defs>
        <path id="DejaVuSans-2212" d="M 678 2272 
L 4684 2272 
L 4684 1741 
L 678 1741 
L 678 2272 
z
" transform="scale(0.015625)"/>
        <path id="DejaVuSans-36" d="M 2113 2584 
Q 1688 2584 1439 2293 
Q 1191 2003 1191 1497 
Q 1191 994 1439 701 
Q 1688 409 2113 409 
Q 2538 409 2786 701 
Q 3034 994 3034 1497 
Q 3034 2003 2786 2293 
Q 2538 2584 2113 2584 
z
M 3366 4563 
L 3366 3988 
Q 3128 4100 2886 4159 
Q 2644 4219 2406 4219 
Q 1781 4219 1451 3797 
Q 1122 3375 1075 2522 
Q 1259 2794 1537 2939 
Q 1816 3084 2150 3084 
Q 2853 3084 3261 2657 
Q 3669 2231 3669 1497 
Q 3669 778 3244 343 
Q 2819 -91 2113 -91 
Q 1303 -91 875 529 
Q 447 1150 447 2328 
Q 447 3434 972 4092 
Q 1497 4750 2381 4750 
Q 2619 4750 2861 4703 
Q 3103 4656 3366 4563 
z
" transform="scale(0.015625)"/>
       </defs>
       <use xlink:href="#DejaVuSans-2212"/>
       <use xlink:href="#DejaVuSans-36" x="83.789062"/>
      </g>
     </g>
    </g>
    <g id="ytick_2">
     <g id="line2d_8">
      <g>
       <use xlink:href="#m6a04f2f757" x="180" y="415.937099" style="stroke: #000000; stroke-width: 0.8"/>
      </g>
     </g>
     <g id="text_8">
      <!-- −4 -->
      <g transform="translate(158.257812 419.736318) scale(0.1 -0.1)">
       <defs>
        <path id="DejaVuSans-34" d="M 2419 4116 
L 825 1625 
L 2419 1625 
L 2419 4116 
z
M 2253 4666 
L 3047 4666 
L 3047 1625 
L 3713 1625 
L 3713 1100 
L 3047 1100 
L 3047 0 
L 2419 0 
L 2419 1100 
L 313 1100 
L 313 1709 
L 2253 4666 
z
" transform="scale(0.015625)"/>
       </defs>
       <use xlink:href="#DejaVuSans-2212"/>
       <use xlink:href="#DejaVuSans-34" x="83.789062"/>
      </g>
     </g>
    </g>
    <g id="ytick_3">
     <g id="line2d_9">
      <g>
       <use xlink:href="#m6a04f2f757" x="180" y="342.099657" style="stroke: #000000; stroke-width: 0.8"/>
      </g>
     </g>
     <g id="text_9">
      <!-- −2 -->
      <g transform="translate(158.257812 345.898876) scale(0.1 -0.1)">
       <use xlink:href="#DejaVuSans-2212"/>
       <use xlink:href="#DejaVuSans-32" x="83.789062"/>
      </g>
     </g>
    </g>
    <g id="ytick_4">
     <g id="line2d_10">
      <g>
       <use xlink:href="#m6a04f2f757" x="180" y="268.262215" style="stroke: #000000; stroke-width: 0.8"/>
      </g>
     </g>
     <g id="text_10">
      <!-- 0 -->
      <g transform="translate(166.6375 272.061433) scale(0.1 -0.1)">
       <use xlink:href="#DejaVuSans-30"/>
      </g>
     </g>
    </g>
    <g id="ytick_5">
     <g id="line2d_11">
      <g>
       <use xlink:href="#m6a04f2f757" x="180" y="194.424772" style="stroke: #000000; stroke-width: 0.8"/>
      </g>
     </g>
     <g id="text_11">
      <!-- 2 -->
      <g transform="translate(166.6375 198.223991) scale(0.1 -0.1)">
       <use xlink:href="#DejaVuSans-32"/>
      </g>
     </g>
    </g>
    <g id="ytick_6">
     <g id="line2d_12">
      <g>
       <use xlink:href="#m6a04f2f757" x="180" y="120.58733" style="stroke: #000000; stroke-width: 0.8"/>
      </g>
     </g>
     <g id="text_12">
      <!-- 4 -->
      <g transform="translate(166.6375 124.386549) scale(0.1 -0.1)">
       <use xlink:href="#DejaVuSans-34"/>
      </g>
     </g>
    </g>
   </g>
   <g id="line2d_13">
    <path d="M 230.727273 262.16214 
L 231.719979 262.142679 
L 232.712685 261.513142 
L 233.70539 261.720346 
L 234.698096 261.724356 
L 235.690802 260.912274 
L 236.683508 260.988379 
L 237.676214 260.75883 
L 238.66892 259.900287 
L 239.661626 259.666847 
L 240.654332 259.289563 
L 241.647038 258.186354 
L 242.639744 257.585127 
L 243.63245 257.144807 
L 244.625156 255.228287 
L 245.617862 254.306945 
L 246.610568 261.358882 
L 247.603273 265.95141 
L 248.595979 233.416447 
L 249.588685 217.123928 
L 250.581391 220.137516 
L 251.574097 238.34613 
L 252.566803 223.048764 
L 254.552215 207.952139 
L 255.544921 196.063012 
L 256.537627 208.377195 
L 257.530333 235.60914 
L 258.523039 186.273936 
L 259.515745 182.939708 
L 260.50845 194.202002 
L 261.501156 176.10343 
L 262.493862 171.772663 
L 263.486568 192.214118 
L 264.479274 199.312828 
L 265.47198 182.057516 
L 266.464686 203.482334 
L 267.457392 200.225076 
L 268.450098 163.044048 
L 269.442804 162.772295 
L 270.43551 198.983596 
L 271.428216 198.874544 
L 272.420922 193.587363 
L 273.413627 193.984732 
L 274.406333 178.572281 
L 275.399039 185.841928 
L 276.391745 148.772469 
L 277.384451 127.658024 
L 278.377157 114.052921 
L 279.369863 105.400646 
L 280.362569 108.605515 
L 281.355275 137.164292 
L 282.347981 122.05302 
L 283.340687 95.198787 
L 284.333393 89.334713 
L 285.326099 92.308911 
L 286.318804 91.618081 
L 287.31151 89.28 
L 288.304216 93.049304 
L 289.296922 102.821565 
L 290.289628 119.263593 
L 291.282334 142.959432 
L 292.27504 139.97553 
L 293.267746 144.348863 
L 294.260452 180.522282 
L 295.253158 193.405231 
L 296.245864 210.49405 
L 297.23857 186.120408 
L 298.231276 189.300542 
L 299.223981 192.947658 
L 300.216687 164.743661 
L 301.209393 171.090741 
L 302.202099 180.66067 
L 303.194805 173.217802 
L 305.180217 197.935732 
L 306.172923 208.162122 
L 307.165629 208.126306 
L 308.158335 198.551041 
L 309.151041 221.987259 
L 311.136453 215.520455 
L 312.129159 249.270149 
L 313.121864 241.026026 
L 314.11457 264.798241 
L 315.107276 273.224607 
L 316.099982 263.903743 
L 317.092688 307.1376 
L 318.085394 274.894325 
L 319.0781 294.72787 
L 320.070806 285.780141 
L 321.063512 286.283299 
L 322.056218 289.844315 
L 323.048924 299.119193 
L 324.04163 281.712198 
L 325.034336 287.951567 
L 326.027041 302.104513 
L 327.019747 296.570521 
L 328.012453 295.09898 
L 329.005159 296.17554 
L 329.997865 304.313099 
L 330.990571 289.342527 
L 331.983277 312.44713 
L 332.975983 297.045753 
L 333.968689 285.310507 
L 334.961395 308.239548 
L 335.954101 288.542961 
L 336.946807 329.197762 
L 337.939513 291.330011 
L 338.932218 304.977525 
L 339.924924 308.690827 
L 340.91763 282.048795 
L 341.910336 328.825699 
L 342.903042 299.967097 
L 343.895748 292.686241 
L 344.888454 348.317216 
L 345.88116 304.776387 
L 346.873866 311.596347 
L 347.866572 307.066016 
L 348.859278 332.302658 
L 349.851984 308.838235 
L 350.84469 316.047421 
L 351.837395 321.627211 
L 352.830101 308.896569 
L 353.822807 339.856724 
L 354.815513 310.703003 
L 355.808219 311.659184 
L 356.800925 330.896911 
L 357.793631 309.950376 
L 358.786337 336.652662 
L 359.779043 305.376522 
L 360.771749 308.544626 
L 361.764455 358.9846 
L 362.757161 312.776149 
L 363.749867 329.368388 
L 364.742572 336.97854 
L 365.735278 314.033702 
L 366.727984 320.692961 
L 367.72069 329.628488 
L 368.713396 325.465289 
L 369.706102 322.283633 
L 370.698808 323.245748 
L 371.691514 327.225904 
L 372.68422 350.598876 
L 373.676926 324.532421 
L 374.669632 330.252998 
L 375.662338 328.054304 
L 376.655044 325.01224 
L 377.64775 341.676507 
L 378.640455 334.108564 
L 379.633161 329.882316 
L 380.625867 319.408916 
L 381.618573 344.811556 
L 382.611279 350.767474 
L 383.603985 321.668329 
L 384.596691 332.938959 
L 385.589397 340.241914 
L 386.582103 336.771643 
L 387.574809 345.265287 
L 388.567515 346.309969 
L 389.560221 335.926953 
L 390.552927 343.6423 
L 391.545632 373.65155 
L 392.538338 342.323042 
L 393.531044 348.742356 
L 394.52375 352.139108 
L 395.516456 338.593183 
L 396.509162 346.794711 
L 397.501868 359.258895 
L 398.494574 361.316659 
L 399.48728 355.146069 
L 400.479986 350.139539 
L 401.472692 348.241822 
L 402.465398 332.927469 
L 403.458104 350.080795 
L 404.450809 343.263665 
L 405.443515 353.696862 
L 406.436221 357.800111 
L 407.428927 344.012069 
L 408.421633 333.869915 
L 409.414339 339.860116 
L 410.407045 332.613693 
L 411.399751 348.893312 
L 412.392457 354.650728 
L 413.385163 371.992688 
L 414.377869 362.76728 
L 415.370575 345.484519 
L 416.363281 344.731843 
L 417.355986 367.280192 
L 418.348692 371.027098 
L 419.341398 383.481392 
L 420.334104 343.78606 
L 421.32681 367.120644 
L 422.319516 369.839278 
L 423.312222 349.431252 
L 424.304928 367.987728 
L 425.297634 353.430423 
L 426.29034 359.968308 
L 427.283046 378.302528 
L 428.275752 383.990913 
L 429.268458 353.321614 
L 430.261163 366.393796 
L 431.253869 351.814305 
L 432.246575 341.727462 
L 433.239281 346.7909 
L 434.231987 361.238042 
L 435.224693 349.944284 
L 436.217399 362.278865 
L 437.210105 398.402892 
L 438.202811 379.370291 
L 439.195517 343.152631 
L 440.188223 379.366647 
L 441.180929 360.704798 
L 442.173635 378.002324 
L 443.166341 358.14102 
L 444.159046 399.296653 
L 445.151752 360.256582 
L 446.144458 365.748763 
L 447.137164 359.237948 
L 448.12987 351.74579 
L 449.122576 383.655115 
L 450.115282 382.146188 
L 451.107988 353.188799 
L 452.100694 383.950313 
L 453.0934 358.865417 
L 454.086106 357.51859 
L 455.078812 355.38627 
L 456.071518 352.749275 
L 457.064223 359.150053 
L 458.056929 361.537631 
L 459.049635 373.514968 
L 460.042341 355.710625 
L 461.035047 366.869253 
L 462.027753 365.173015 
L 463.020459 384.49795 
L 464.013165 390.343449 
L 465.005871 382.363898 
L 465.998577 369.723546 
L 466.991283 371.271519 
L 467.983989 364.41276 
L 468.976695 356.408753 
L 469.9694 351.704573 
L 470.962106 363.890203 
L 471.954812 356.706288 
L 472.947518 362.372826 
L 473.940224 374.126348 
L 474.93293 359.687779 
L 475.925636 372.25297 
L 476.918342 369.567128 
L 477.911048 356.396023 
L 478.903754 391.588871 
L 479.89646 376.401316 
L 480.889166 373.346725 
L 481.881872 395.593538 
L 482.874577 350.201819 
L 483.867283 358.642697 
L 484.859989 353.018068 
L 485.852695 362.703592 
L 486.845401 374.2644 
L 487.838107 377.932578 
L 488.830813 362.892394 
L 489.823519 369.275781 
L 490.816225 379.696683 
L 491.808931 393.251189 
L 492.801637 354.181788 
L 493.794343 357.37569 
L 494.787049 381.300114 
L 495.779754 413.630223 
L 496.77246 364.01713 
L 497.765166 393.511578 
L 498.757872 361.350404 
L 499.750578 360.480201 
L 500.743284 380.118966 
L 501.73599 352.356023 
L 502.728696 361.733209 
L 503.721402 381.83624 
L 504.714108 369.720013 
L 505.706814 369.999329 
L 506.69952 368.602934 
L 507.692226 407.103501 
L 508.684932 346.072563 
L 509.677637 380.730426 
L 510.670343 367.974013 
L 511.663049 347.982636 
L 512.655755 351.298568 
L 513.648461 371.420571 
L 514.641167 366.57399 
L 515.633873 358.415497 
L 516.626579 420.815373 
L 517.619285 359.50643 
L 518.611991 378.916834 
L 519.604697 374.832871 
L 520.597403 362.151918 
L 521.590109 352.624118 
L 522.582814 379.357513 
L 523.57552 350.052672 
L 524.568226 383.7753 
L 525.560932 387.550895 
L 526.553638 348.368343 
L 527.546344 360.905796 
L 528.53905 349.349984 
L 529.531756 383.982445 
L 530.524462 372.045843 
L 531.517168 429.152863 
L 532.509874 367.198921 
L 533.50258 358.46582 
L 534.495286 395.416514 
L 535.487991 400.110924 
L 536.480697 373.436761 
L 537.473403 341.671621 
L 538.466109 344.225421 
L 539.458815 354.154637 
L 540.451521 347.829986 
L 541.444227 380.918528 
L 542.436933 341.551765 
L 543.429639 347.397259 
L 544.422345 346.539015 
L 545.415051 347.863908 
L 546.407757 411.130496 
L 547.400463 347.361329 
L 548.393168 352.7802 
L 549.385874 380.959672 
L 550.37858 360.494386 
L 551.371286 357.175203 
L 552.363992 372.941698 
L 553.356698 349.915867 
L 554.349404 406.003714 
L 555.34211 368.317095 
L 556.334816 405.453839 
L 557.327522 372.208499 
L 558.320228 399.36497 
L 559.312934 359.882257 
L 560.30564 371.286157 
L 561.298345 363.493314 
L 562.291051 364.885837 
L 563.283757 355.081363 
L 564.276463 347.635329 
L 565.269169 387.859957 
L 566.261875 351.264065 
L 567.254581 378.461981 
L 568.247287 349.726567 
L 569.239993 375.024272 
L 570.232699 377.271821 
L 571.225405 409.413446 
L 572.218111 369.307172 
L 573.210817 384.193176 
L 574.203523 414.537928 
L 575.196228 375.060624 
L 576.188934 386.578193 
L 577.18164 371.392829 
L 578.174346 400.039014 
L 579.167052 380.179495 
L 580.159758 418.425754 
L 581.152464 376.410984 
L 582.14517 391.517424 
L 583.137876 364.174463 
L 584.130582 360.163807 
L 585.123288 401.076986 
L 586.115994 392.351986 
L 587.1087 395.557979 
L 588.101405 370.427707 
L 589.094111 443.811982 
L 590.086817 373.351519 
L 591.079523 388.774073 
L 592.072229 382.209677 
L 593.064935 364.461307 
L 594.057641 402.454771 
L 595.050347 434.246853 
L 596.043053 413.730139 
L 597.035759 385.571863 
L 598.028465 378.236014 
L 599.021171 380.165259 
L 600.013877 367.917081 
L 601.006582 417.224763 
L 601.999288 419.496415 
L 602.991994 380.41994 
L 603.9847 426.689633 
L 604.977406 428.309243 
L 605.970112 393.82066 
L 606.962818 386.063051 
L 607.955524 411.831757 
L 608.94823 379.634963 
L 609.940936 391.492794 
L 610.933642 461.976817 
L 611.926348 417.766901 
L 612.919054 425.097086 
L 613.911759 391.234762 
L 614.904465 414.189644 
L 615.897171 400.284645 
L 616.889877 412.189566 
L 617.882583 391.87551 
L 618.875289 388.547378 
L 619.867995 406.782062 
L 620.860701 418.714404 
L 621.853407 389.967214 
L 622.846113 417.988751 
L 623.838819 391.251967 
L 624.831525 415.61116 
L 625.824231 429.352244 
L 626.816936 410.8473 
L 627.809642 395.464199 
L 628.802348 426.485163 
L 629.795054 424.970827 
L 630.78776 413.210751 
L 631.780466 423.283358 
L 632.773172 393.780721 
L 633.765878 416.584172 
L 634.758584 400.878783 
L 635.75129 404.45178 
L 636.743996 396.82703 
L 637.736702 416.643755 
L 638.729408 413.083031 
L 639.722114 415.926781 
L 640.714819 409.525409 
L 641.707525 409.788929 
L 642.700231 395.698834 
L 643.692937 409.046843 
L 644.685643 420.49765 
L 645.678349 416.488323 
L 646.671055 417.132833 
L 647.663761 429.529325 
L 648.656467 399.807673 
L 649.649173 429.391258 
L 650.641879 411.645152 
L 651.634585 400.00831 
L 652.627291 442.601452 
L 653.619996 424.206534 
L 654.612702 413.896855 
L 655.605408 420.458834 
L 656.598114 422.602911 
L 657.59082 390.077472 
L 658.583526 404.612009 
L 659.576232 441.474057 
L 660.568938 398.905422 
L 661.561644 411.188691 
L 662.55435 415.733202 
L 663.547056 399.049899 
L 664.539762 410.224314 
L 665.532468 440.855382 
L 666.525173 399.758158 
L 667.517879 400.100204 
L 668.510585 443.105579 
L 669.503291 403.589802 
L 670.495997 412.812039 
L 671.488703 451.997139 
L 672.481409 403.430535 
L 673.474115 417.832224 
L 674.466821 452.397616 
L 675.459527 408.268729 
L 676.452233 411.184162 
L 677.444939 427.283542 
L 678.437645 411.855124 
L 679.43035 413.07649 
L 680.423056 436.741545 
L 681.415762 411.356727 
L 682.408468 408.616529 
L 683.401174 430.685424 
L 684.39388 409.716149 
L 685.386586 407.809477 
L 686.379292 425.960331 
L 688.364704 406.702585 
L 689.35741 437.558172 
L 690.350116 414.926077 
L 691.342822 402.2921 
L 692.335527 422.731415 
L 693.328233 426.934026 
L 694.320939 403.128499 
L 695.313645 426.532946 
L 696.306351 423.17096 
L 697.299057 402.920014 
L 699.284469 430.82765 
L 700.277175 404.776009 
L 701.269881 416.453507 
L 702.262587 442.574949 
L 703.255293 407.100413 
L 704.247999 413.873233 
L 705.240705 441.418397 
L 706.23341 401.817655 
L 707.226116 413.134705 
L 708.218822 444.677798 
L 709.211528 411.764111 
L 710.204234 419.010639 
L 711.19694 457.654954 
L 712.189646 409.760907 
L 713.182352 417.504095 
L 714.175058 449.877754 
L 715.167764 414.483018 
L 716.16047 407.766811 
L 717.153176 437.615192 
L 718.145882 409.318396 
L 719.138587 408.163561 
L 720.131293 449.70629 
L 721.123999 412.637465 
L 722.116705 409.548348 
L 723.109411 446.315597 
L 724.102117 417.27975 
L 725.094823 411.299907 
L 726.087529 445.417587 
L 727.080235 415.324363 
L 728.072941 406.107842 
L 729.065647 441.700073 
L 730.058353 414.08478 
L 731.051059 406.542006 
L 732.043764 435.566644 
L 733.03647 418.933156 
L 734.029176 405.777657 
L 735.021882 436.020359 
L 737.007294 408.54006 
L 738 434.358057 
L 738.992706 426.899734 
L 739.985412 409.695193 
L 740.978118 428.290961 
L 741.970824 434.543908 
L 742.96353 405.641933 
L 743.956236 422.063399 
L 744.948941 446.333723 
L 745.941647 411.165295 
L 746.934353 419.662721 
L 747.927059 448.641694 
L 748.919765 410.977166 
L 749.912471 419.870553 
L 750.905177 456.820692 
L 751.897883 410.418172 
L 752.890589 414.425919 
L 753.883295 452.525045 
L 754.876001 410.390586 
L 755.868707 419.061809 
L 756.861413 454.680641 
L 757.854118 414.906593 
L 758.846824 418.326614 
L 759.83953 450.785252 
L 760.832236 411.764503 
L 761.824942 416.320721 
L 762.817648 453.012566 
L 763.810354 417.54137 
L 764.80306 414.271592 
L 765.795766 453.733042 
L 766.788472 417.356423 
L 767.781178 415.553815 
L 768.773884 452.831904 
L 769.76659 419.996807 
L 770.759295 415.689206 
L 771.752001 447.925611 
L 772.744707 422.143548 
L 773.737413 413.658141 
L 774.730119 442.880751 
L 776.715531 413.348383 
L 777.708237 435.535071 
L 778.700943 427.461635 
L 779.693649 410.93763 
L 780.686355 431.360443 
L 781.679061 433.860762 
L 782.671767 413.460837 
L 783.664473 432.938278 
L 784.657178 436.84672 
L 785.649884 412.11358 
L 786.64259 429.471423 
L 787.635296 449.049767 
L 788.628002 415.585093 
L 789.620708 421.650363 
L 790.613414 445.719945 
L 791.60612 412.531461 
L 792.598826 424.583471 
L 793.591532 442.460158 
L 794.584238 416.164656 
L 795.576944 426.421162 
L 796.56965 457.925194 
L 797.562355 414.153992 
L 798.555061 420.341148 
L 799.547767 464.113823 
L 800.540473 417.376007 
L 801.533179 425.233408 
L 802.525885 462.202523 
L 803.518591 420.069774 
L 804.511297 418.783199 
L 805.504003 453.659023 
L 806.496709 423.999686 
L 807.489415 418.725378 
L 808.482121 460.701421 
L 809.474827 421.193619 
L 810.467532 417.850666 
L 811.460238 448.317694 
L 812.452944 422.855278 
L 813.44565 414.204111 
L 814.438356 443.648693 
L 815.431062 427.428874 
L 816.423768 417.968921 
L 817.416474 454.461224 
L 818.40918 432.392869 
L 819.401886 416.040284 
L 820.394592 440.859277 
L 821.387298 438.527054 
L 822.380004 414.882585 
L 823.372709 442.408045 
L 824.365415 434.425425 
L 825.358121 419.901281 
L 826.350827 437.206604 
L 827.343533 444.854639 
L 828.336239 412.852762 
L 829.328945 433.096711 
L 830.321651 442.43749 
L 831.314357 417.596645 
L 832.307063 431.4739 
L 833.299769 460.903634 
L 834.292475 420.616379 
L 835.285181 433.360275 
L 836.277886 466.070736 
L 837.270592 420.329423 
L 838.263298 430.099692 
L 839.256004 459.180777 
L 840.24871 421.663747 
L 841.241416 425.400619 
L 842.234122 468.491707 
L 843.226828 420.908856 
L 844.219534 425.808265 
L 845.21224 472.457617 
L 846.204946 421.340549 
L 847.197652 423.042439 
L 848.190358 468.072291 
L 849.183064 423.391758 
L 850.175769 420.156966 
L 851.168475 467.030906 
L 852.161181 426.982275 
L 853.153887 419.289158 
L 854.146593 453.741254 
L 855.139299 431.810754 
L 856.132005 420.058112 
L 857.124711 465.970585 
L 858.117417 433.614651 
L 859.110123 417.742492 
L 860.102829 453.011761 
L 861.095535 430.785182 
L 862.088241 419.350402 
L 863.080946 455.136351 
L 864.073652 440.721545 
L 865.066358 419.368871 
L 866.059064 442.557693 
L 867.05177 437.546027 
L 868.044476 417.730067 
L 869.037182 436.967602 
L 870.029888 443.254599 
L 871.022594 417.768184 
L 872.0153 438.651869 
L 873.008006 446.132295 
L 874.000712 419.655592 
L 874.993418 436.707957 
L 875.986123 448.210679 
L 876.978829 422.023684 
L 877.971535 432.748095 
L 878.964241 463.367116 
L 879.956947 421.06199 
L 880.949653 428.40673 
L 881.942359 457.477665 
L 882.935065 425.797503 
L 883.927771 427.8464 
L 884.920477 458.552964 
L 885.913183 421.962284 
L 886.905889 429.862496 
L 887.898595 473.671803 
L 888.8913 425.423303 
L 889.884006 423.504689 
L 890.876712 471.31108 
L 891.869418 426.111944 
L 892.862124 423.981565 
L 893.85483 492.48 
L 894.847536 431.05512 
L 895.840242 424.313673 
L 896.832948 459.043493 
L 897.825654 429.070145 
L 898.81836 426.385501 
L 899.811066 455.448412 
L 900.803772 436.548163 
L 901.796477 421.186575 
L 902.789183 448.362793 
L 903.781889 433.959673 
L 904.774595 421.655773 
L 905.767301 452.080042 
L 906.760007 439.484447 
L 907.752713 420.987682 
L 908.745419 453.568133 
L 909.738125 442.203946 
L 910.730831 424.106482 
L 911.723537 446.441722 
L 912.716243 442.978347 
L 913.708949 425.218203 
L 914.701655 437.12515 
L 915.69436 455.345858 
L 916.687066 424.008375 
L 917.679772 435.85586 
L 918.672478 451.39365 
L 919.665184 426.252139 
L 920.65789 432.282485 
L 921.650596 454.347032 
L 922.643302 424.594943 
L 923.636008 433.030759 
L 924.628714 455.692059 
L 925.62142 428.095328 
L 926.614126 432.883662 
L 927.606832 464.052443 
L 928.599537 427.838028 
L 929.592243 427.616246 
L 930.584949 477.722989 
L 931.577655 425.477818 
L 932.570361 429.16559 
L 933.563067 483.022469 
L 934.555773 428.142245 
L 935.548479 424.034226 
L 936.541185 475.93554 
L 937.533891 430.748674 
L 938.526597 428.791122 
L 939.519303 467.936557 
L 940.512009 428.095957 
L 941.504714 429.285001 
L 942.49742 467.03748 
L 943.490126 432.511891 
L 944.482832 422.713944 
L 945.475538 465.95027 
L 946.468244 442.180797 
L 947.46095 426.933097 
L 948.453656 453.071317 
L 949.446362 437.850367 
L 950.439068 425.580724 
L 951.431774 449.891042 
L 952.42448 446.032178 
L 953.417186 427.113551 
L 954.409891 458.957199 
L 955.402597 453.217097 
L 956.395303 424.446613 
L 957.388009 440.247813 
L 958.380715 451.286373 
L 959.373421 430.778416 
L 960.366127 442.35914 
L 961.358833 459.055441 
L 962.351539 425.082682 
L 963.344245 441.295171 
L 964.336951 465.661344 
L 965.329657 433.04286 
L 966.322363 440.17442 
L 967.315068 468.616286 
L 968.307774 425.536908 
L 969.30048 437.468957 
L 970.293186 469.261828 
L 971.285892 426.425606 
L 972.278598 432.779338 
L 973.271304 465.329393 
L 974.26401 432.808775 
L 975.256716 434.395536 
L 976.249422 467.889745 
L 977.242128 431.389319 
L 978.234834 434.238027 
L 979.22754 492.306365 
L 980.220246 438.588197 
L 981.212951 428.964065 
L 982.205657 476.393672 
L 983.198363 433.665669 
L 984.191069 432.288353 
L 985.183775 465.230833 
L 986.176481 436.01717 
L 987.169187 427.746732 
L 988.161893 458.881281 
L 990.147305 431.170366 
L 991.140011 465.78212 
L 992.132717 439.44792 
L 993.125423 429.611207 
L 994.118128 459.906131 
L 995.110834 443.313215 
L 996.10354 430.056032 
L 997.096246 455.816717 
L 998.088952 446.981445 
L 999.081658 425.614106 
L 1000.074364 446.480696 
L 1001.06707 449.304149 
L 1002.059776 423.328599 
L 1003.052482 445.39693 
L 1004.045188 462.369606 
L 1005.037894 429.462652 
L 1006.0306 441.787481 
L 1007.023305 459.869044 
L 1008.016011 427.367123 
L 1009.008717 443.660817 
L 1010.001423 466.156709 
L 1010.994129 431.220475 
L 1011.986835 436.104061 
L 1012.979541 465.637515 
L 1013.972247 428.489882 
L 1014.964953 436.884755 
L 1015.957659 469.452508 
L 1016.950365 432.719877 
L 1017.943071 437.214273 
L 1018.935777 457.891605 
L 1019.928482 439.475588 
L 1020.921188 432.324254 
L 1021.913894 464.054135 
L 1022.9066 432.689633 
L 1023.899306 434.275527 
L 1024.892012 466.239229 
L 1025.884718 441.96823 
L 1026.877424 424.775351 
L 1027.87013 476.697461 
L 1028.862836 441.539226 
L 1029.855542 435.968144 
L 1030.848248 461.010404 
L 1031.840954 437.695249 
L 1032.833659 429.670905 
L 1033.826365 460.208772 
L 1034.819071 444.171391 
L 1035.811777 431.745279 
L 1036.804483 450.597139 
L 1037.797189 448.071617 
L 1038.789895 431.897489 
L 1039.782601 458.407844 
L 1040.775307 458.390952 
L 1041.768013 434.744012 
L 1042.760719 445.503118 
L 1043.753425 460.786582 
L 1044.746131 426.971224 
L 1045.738837 451.630286 
L 1046.731542 456.31293 
L 1047.724248 430.233298 
L 1048.716954 444.668799 
L 1049.70966 456.987254 
L 1050.702366 427.90265 
L 1051.695072 449.678406 
L 1052.687778 466.983058 
L 1053.680484 434.941276 
L 1054.67319 439.202157 
L 1055.665896 461.286773 
L 1056.658602 437.992453 
L 1057.651308 436.520055 
L 1058.644014 464.929299 
L 1059.636719 431.212959 
L 1060.629425 441.579155 
L 1061.622131 470.727739 
L 1062.614837 436.697926 
L 1063.607543 435.847378 
L 1064.600249 482.72344 
L 1065.592955 441.443878 
L 1066.585661 434.570222 
L 1067.578367 480.230875 
L 1068.571073 442.401772 
L 1069.563779 432.705202 
L 1070.556485 471.257617 
L 1071.549191 442.022862 
L 1072.541896 443.092672 
L 1073.534602 458.334399 
L 1074.527308 447.10064 
L 1075.520014 437.741738 
L 1076.51272 455.395842 
L 1077.505426 450.91976 
L 1078.498132 430.312658 
L 1079.490838 460.32693 
L 1080.483544 453.396564 
L 1081.47625 436.00517 
L 1082.468956 456.145268 
L 1083.461662 451.015978 
L 1084.454368 435.383103 
L 1085.447073 446.291653 
L 1086.439779 453.701769 
L 1087.432485 433.455876 
L 1088.425191 454.618962 
L 1089.417897 455.061946 
L 1090.410603 435.793861 
L 1091.403309 439.950985 
L 1092.396015 472.846982 
L 1093.388721 434.929518 
L 1094.381427 444.395879 
L 1095.374133 455.972177 
L 1096.366839 438.371233 
L 1097.359545 438.133047 
L 1098.35225 466.416975 
L 1099.344956 436.726175 
L 1100.337662 433.192574 
L 1101.330368 485.151562 
L 1102.323074 435.003551 
L 1103.31578 439.638263 
L 1104.308486 460.907057 
L 1105.301192 441.184265 
L 1106.293898 439.073326 
L 1107.286604 465.874082 
L 1108.27931 449.030376 
L 1109.272016 437.445344 
L 1110.264722 455.141781 
L 1112.250133 438.560719 
L 1113.242839 465.465923 
L 1114.235545 439.754731 
L 1115.228251 431.427026 
L 1116.220957 473.936451 
L 1117.213663 450.973985 
L 1118.206369 433.421338 
L 1119.199075 464.915579 
L 1120.191781 449.516179 
L 1121.184487 438.424063 
L 1122.177193 459.584144 
L 1123.169899 453.596343 
L 1124.162605 439.056324 
L 1125.15531 452.191083 
L 1126.148016 459.445979 
L 1127.140722 435.533411 
L 1129.126134 456.073593 
L 1130.11884 437.139082 
L 1132.104252 462.460798 
L 1133.096958 433.314768 
L 1134.089664 448.655289 
L 1135.08237 462.216056 
L 1136.075076 436.228864 
L 1137.067782 448.900596 
L 1138.060487 470.534014 
L 1139.053193 438.347149 
L 1140.045899 441.54136 
L 1141.038605 479.246618 
L 1142.031311 439.53511 
L 1143.024017 441.616917 
L 1144.016723 469.140913 
L 1145.009429 437.650682 
L 1146.002135 438.20982 
L 1146.994841 491.510078 
L 1147.987547 444.600999 
L 1148.980253 436.467345 
L 1149.972959 459.876325 
L 1151.95837 435.550213 
L 1152.951076 456.18339 
L 1154.936488 435.318193 
L 1155.929194 466.59985 
L 1156.9219 446.599441 
L 1157.914606 435.54305 
L 1158.907312 456.960035 
L 1160.892724 437.393267 
L 1161.88543 458.262562 
L 1163.870841 439.421504 
L 1164.863547 448.600559 
L 1165.856253 455.382803 
L 1166.848959 438.586759 
L 1167.841665 456.242306 
L 1168.834371 454.250871 
L 1169.827077 430.95313 
L 1170.819783 442.084898 
L 1171.812489 462.630883 
L 1172.805195 436.187316 
L 1173.797901 438.178451 
L 1174.790607 463.313345 
L 1175.783313 434.560918 
L 1176.776019 441.929056 
L 1177.768724 464.547108 
L 1178.76143 435.62577 
L 1179.754136 437.245783 
L 1180.746842 457.129276 
L 1181.739548 442.277042 
L 1182.732254 440.919275 
L 1183.72496 463.247177 
L 1184.717666 443.258761 
L 1185.710372 437.758689 
L 1186.703078 472.906248 
L 1187.695784 442.987037 
L 1188.68849 441.907182 
L 1189.681196 480.462983 
L 1190.673901 442.981534 
L 1191.666607 438.819302 
L 1192.659313 463.764749 
L 1193.652019 447.74385 
L 1194.644725 442.033919 
L 1195.637431 454.118502 
L 1196.630137 443.128432 
L 1197.622843 435.861632 
L 1198.615549 468.471088 
L 1199.608255 442.704864 
L 1200.600961 433.014871 
L 1201.593667 459.57224 
L 1202.586373 454.000701 
L 1203.579078 435.761859 
L 1204.571784 456.737844 
L 1205.56449 448.744541 
L 1206.557196 437.849268 
L 1207.549902 452.650479 
L 1208.542608 455.228201 
L 1209.535314 436.715877 
L 1210.52802 449.117305 
L 1211.520726 466.874828 
L 1212.513432 433.883563 
L 1213.506138 446.325757 
L 1214.498844 456.326448 
L 1215.49155 430.796139 
L 1217.476961 470.480096 
L 1218.469667 437.942472 
L 1219.462373 452.022842 
L 1220.455079 477.475038 
L 1221.447785 438.70852 
L 1222.440491 440.132248 
L 1223.433197 465.611252 
L 1224.425903 439.841256 
L 1225.418609 444.250418 
L 1226.411315 474.08559 
L 1227.404021 443.628657 
L 1228.396727 440.383947 
L 1229.389432 465.27873 
L 1230.382138 442.637291 
L 1231.374844 441.16701 
L 1232.36755 457.517975 
L 1233.360256 439.428492 
L 1234.352962 436.83461 
L 1235.345668 467.578129 
L 1236.338374 450.764164 
L 1237.33108 440.788865 
L 1238.323786 458.667717 
L 1239.316492 455.934019 
L 1240.309198 438.715963 
L 1241.301904 463.326593 
L 1242.29461 458.932442 
L 1243.287315 441.471974 
L 1244.280021 454.759952 
L 1245.272727 453.726695 
L 1245.272727 453.726695 
" clip-path="url(#p67643f2d59)" style="fill: none; stroke: #1f77b4; stroke-width: 1.5; stroke-linecap: square"/>
   </g>
   <g id="patch_3">
    <path d="M 180 512.64 
L 180 69.12 
" style="fill: none; stroke: #000000; stroke-width: 0.8; stroke-linejoin: miter; stroke-linecap: square"/>
   </g>
   <g id="patch_4">
    <path d="M 1296 512.64 
L 1296 69.12 
" style="fill: none; stroke: #000000; stroke-width: 0.8; stroke-linejoin: miter; stroke-linecap: square"/>
   </g>
   <g id="patch_5">
    <path d="M 180 512.64 
L 1296 512.64 
" style="fill: none; stroke: #000000; stroke-width: 0.8; stroke-linejoin: miter; stroke-linecap: square"/>
   </g>
   <g id="patch_6">
    <path d="M 180 69.12 
L 1296 69.12 
" style="fill: none; stroke: #000000; stroke-width: 0.8; stroke-linejoin: miter; stroke-linecap: square"/>
   </g>
   <g id="text_13">
    <!-- source4-receiver21 -->
    <g transform="translate(544.9 60.80125) scale(0.4 -0.4)">
     <defs>
      <path id="DejaVuSans-73" d="M 2834 3397 
L 2834 2853 
Q 2591 2978 2328 3040 
Q 2066 3103 1784 3103 
Q 1356 3103 1142 2972 
Q 928 2841 928 2578 
Q 928 2378 1081 2264 
Q 1234 2150 1697 2047 
L 1894 2003 
Q 2506 1872 2764 1633 
Q 3022 1394 3022 966 
Q 3022 478 2636 193 
Q 2250 -91 1575 -91 
Q 1294 -91 989 -36 
Q 684 19 347 128 
L 347 722 
Q 666 556 975 473 
Q 1284 391 1588 391 
Q 1994 391 2212 530 
Q 2431 669 2431 922 
Q 2431 1156 2273 1281 
Q 2116 1406 1581 1522 
L 1381 1569 
Q 847 1681 609 1914 
Q 372 2147 372 2553 
Q 372 3047 722 3315 
Q 1072 3584 1716 3584 
Q 2034 3584 2315 3537 
Q 2597 3491 2834 3397 
z
" transform="scale(0.015625)"/>
      <path id="DejaVuSans-6f" d="M 1959 3097 
Q 1497 3097 1228 2736 
Q 959 2375 959 1747 
Q 959 1119 1226 758 
Q 1494 397 1959 397 
Q 2419 397 2687 759 
Q 2956 1122 2956 1747 
Q 2956 2369 2687 2733 
Q 2419 3097 1959 3097 
z
M 1959 3584 
Q 2709 3584 3137 3096 
Q 3566 2609 3566 1747 
Q 3566 888 3137 398 
Q 2709 -91 1959 -91 
Q 1206 -91 779 398 
Q 353 888 353 1747 
Q 353 2609 779 3096 
Q 1206 3584 1959 3584 
z
" transform="scale(0.015625)"/>
      <path id="DejaVuSans-75" d="M 544 1381 
L 544 3500 
L 1119 3500 
L 1119 1403 
Q 1119 906 1312 657 
Q 1506 409 1894 409 
Q 2359 409 2629 706 
Q 2900 1003 2900 1516 
L 2900 3500 
L 3475 3500 
L 3475 0 
L 2900 0 
L 2900 538 
Q 2691 219 2414 64 
Q 2138 -91 1772 -91 
Q 1169 -91 856 284 
Q 544 659 544 1381 
z
M 1991 3584 
L 1991 3584 
z
" transform="scale(0.015625)"/>
      <path id="DejaVuSans-72" d="M 2631 2963 
Q 2534 3019 2420 3045 
Q 2306 3072 2169 3072 
Q 1681 3072 1420 2755 
Q 1159 2438 1159 1844 
L 1159 0 
L 581 0 
L 581 3500 
L 1159 3500 
L 1159 2956 
Q 1341 3275 1631 3429 
Q 1922 3584 2338 3584 
Q 2397 3584 2469 3576 
Q 2541 3569 2628 3553 
L 2631 2963 
z
" transform="scale(0.015625)"/>
      <path id="DejaVuSans-63" d="M 3122 3366 
L 3122 2828 
Q 2878 2963 2633 3030 
Q 2388 3097 2138 3097 
Q 1578 3097 1268 2742 
Q 959 2388 959 1747 
Q 959 1106 1268 751 
Q 1578 397 2138 397 
Q 2388 397 2633 464 
Q 2878 531 3122 666 
L 3122 134 
Q 2881 22 2623 -34 
Q 2366 -91 2075 -91 
Q 1284 -91 818 406 
Q 353 903 353 1747 
Q 353 2603 823 3093 
Q 1294 3584 2113 3584 
Q 2378 3584 2631 3529 
Q 2884 3475 3122 3366 
z
" transform="scale(0.015625)"/>
      <path id="DejaVuSans-65" d="M 3597 1894 
L 3597 1613 
L 953 1613 
Q 991 1019 1311 708 
Q 1631 397 2203 397 
Q 2534 397 2845 478 
Q 3156 559 3463 722 
L 3463 178 
Q 3153 47 2828 -22 
Q 2503 -91 2169 -91 
Q 1331 -91 842 396 
Q 353 884 353 1716 
Q 353 2575 817 3079 
Q 1281 3584 2069 3584 
Q 2775 3584 3186 3129 
Q 3597 2675 3597 1894 
z
M 3022 2063 
Q 3016 2534 2758 2815 
Q 2500 3097 2075 3097 
Q 1594 3097 1305 2825 
Q 1016 2553 972 2059 
L 3022 2063 
z
" transform="scale(0.015625)"/>
      <path id="DejaVuSans-2d" d="M 313 2009 
L 1997 2009 
L 1997 1497 
L 313 1497 
L 313 2009 
z
" transform="scale(0.015625)"/>
      <path id="DejaVuSans-69" d="M 603 3500 
L 1178 3500 
L 1178 0 
L 603 0 
L 603 3500 
z
M 603 4863 
L 1178 4863 
L 1178 4134 
L 603 4134 
L 603 4863 
z
" transform="scale(0.015625)"/>
      <path id="DejaVuSans-76" d="M 191 3500 
L 800 3500 
L 1894 563 
L 2988 3500 
L 3597 3500 
L 2284 0 
L 1503 0 
L 191 3500 
z
" transform="scale(0.015625)"/>
     </defs>
     <use xlink:href="#DejaVuSans-73"/>
     <use xlink:href="#DejaVuSans-6f" x="52.099609"/>
     <use xlink:href="#DejaVuSans-75" x="113.28125"/>
     <use xlink:href="#DejaVuSans-72" x="176.660156"/>
     <use xlink:href="#DejaVuSans-63" x="215.523438"/>
     <use xlink:href="#DejaVuSans-65" x="270.503906"/>
     <use xlink:href="#DejaVuSans-34" x="332.027344"/>
     <use xlink:href="#DejaVuSans-2d" x="395.650391"/>
     <use xlink:href="#DejaVuSans-72" x="431.734375"/>
     <use xlink:href="#DejaVuSans-65" x="470.597656"/>
     <use xlink:href="#DejaVuSans-63" x="532.121094"/>
     <use xlink:href="#DejaVuSans-65" x="587.101562"/>
     <use xlink:href="#DejaVuSans-69" x="648.625"/>
     <use xlink:href="#DejaVuSans-76" x="676.408203"/>
     <use xlink:href="#DejaVuSans-65" x="735.587891"/>
     <use xlink:href="#DejaVuSans-72" x="797.111328"/>
     <use xlink:href="#DejaVuSans-32" x="838.224609"/>
     <use xlink:href="#DejaVuSans-31" x="901.847656"/>
    </g>
   </g>
  </g>
 </g>
 <defs>
  <clipPath id="p67643f2d59">
   <rect x="180" y="69.12" width="1116" height="443.52"/>
  </clipPath>
 </defs>
</svg>
