<?xml version="1.0" encoding="utf-8" standalone="no"?>
<!DOCTYPE svg PUBLIC "-//W3C//DTD SVG 1.1//EN"
  "http://www.w3.org/Graphics/SVG/1.1/DTD/svg11.dtd">
<svg xmlns:xlink="http://www.w3.org/1999/xlink" width="1440pt" height="576pt" viewBox="0 0 1440 576" xmlns="http://www.w3.org/2000/svg" version="1.1">
 <metadata>
  <rdf:RDF xmlns:dc="http://purl.org/dc/elements/1.1/" xmlns:cc="http://creativecommons.org/ns#" xmlns:rdf="http://www.w3.org/1999/02/22-rdf-syntax-ns#">
   <cc:Work>
    <dc:type rdf:resource="http://purl.org/dc/dcmitype/StillImage"/>
    <dc:date>2024-05-22T04:49:46.243764</dc:date>
    <dc:format>image/svg+xml</dc:format>
    <dc:creator>
     <cc:Agent>
      <dc:title>Matplotlib v3.8.3, https://matplotlib.org/</dc:title>
     </cc:Agent>
    </dc:creator>
   </cc:Work>
  </rdf:RDF>
 </metadata>
 <defs>
  <style type="text/css">*{stroke-linejoin: round; stroke-linecap: butt}</style>
 </defs>
 <g id="figure_1">
  <g id="patch_1">
   <path d="M 0 576 
L 1440 576 
L 1440 0 
L 0 0 
z
" style="fill: #ffffff"/>
  </g>
  <g id="axes_1">
   <g id="patch_2">
    <path d="M 180 512.64 
L 1296 512.64 
L 1296 69.12 
L 180 69.12 
z
" style="fill: #ffffff"/>
   </g>
   <g id="matplotlib.axis_1">
    <g id="xtick_1">
     <g id="line2d_1">
      <defs>
       <path id="m233f63bf30" d="M 0 0 
L 0 3.5 
" style="stroke: #000000; stroke-width: 0.8"/>
      </defs>
      <g>
       <use xlink:href="#m233f63bf30" x="229.734567" y="512.64" style="stroke: #000000; stroke-width: 0.8"/>
      </g>
     </g>
     <g id="text_1">
      <!-- 0 -->
      <g transform="translate(226.553317 527.238438) scale(0.1 -0.1)">
       <defs>
        <path id="DejaVuSans-30" d="M 2034 4250 
Q 1547 4250 1301 3770 
Q 1056 3291 1056 2328 
Q 1056 1369 1301 889 
Q 1547 409 2034 409 
Q 2525 409 2770 889 
Q 3016 1369 3016 2328 
Q 3016 3291 2770 3770 
Q 2525 4250 2034 4250 
z
M 2034 4750 
Q 2819 4750 3233 4129 
Q 3647 3509 3647 2328 
Q 3647 1150 3233 529 
Q 2819 -91 2034 -91 
Q 1250 -91 836 529 
Q 422 1150 422 2328 
Q 422 3509 836 4129 
Q 1250 4750 2034 4750 
z
" transform="scale(0.015625)"/>
       </defs>
       <use xlink:href="#DejaVuSans-30"/>
      </g>
     </g>
    </g>
    <g id="xtick_2">
     <g id="line2d_2">
      <g>
       <use xlink:href="#m233f63bf30" x="433.04074" y="512.64" style="stroke: #000000; stroke-width: 0.8"/>
      </g>
     </g>
     <g id="text_2">
      <!-- 500 -->
      <g transform="translate(423.49699 527.238438) scale(0.1 -0.1)">
       <defs>
        <path id="DejaVuSans-35" d="M 691 4666 
L 3169 4666 
L 3169 4134 
L 1269 4134 
L 1269 2991 
Q 1406 3038 1543 3061 
Q 1681 3084 1819 3084 
Q 2600 3084 3056 2656 
Q 3513 2228 3513 1497 
Q 3513 744 3044 326 
Q 2575 -91 1722 -91 
Q 1428 -91 1123 -41 
Q 819 9 494 109 
L 494 744 
Q 775 591 1075 516 
Q 1375 441 1709 441 
Q 2250 441 2565 725 
Q 2881 1009 2881 1497 
Q 2881 1984 2565 2268 
Q 2250 2553 1709 2553 
Q 1456 2553 1204 2497 
Q 953 2441 691 2322 
L 691 4666 
z
" transform="scale(0.015625)"/>
       </defs>
       <use xlink:href="#DejaVuSans-35"/>
       <use xlink:href="#DejaVuSans-30" x="63.623047"/>
       <use xlink:href="#DejaVuSans-30" x="127.246094"/>
      </g>
     </g>
    </g>
    <g id="xtick_3">
     <g id="line2d_3">
      <g>
       <use xlink:href="#m233f63bf30" x="636.346913" y="512.64" style="stroke: #000000; stroke-width: 0.8"/>
      </g>
     </g>
     <g id="text_3">
      <!-- 1000 -->
      <g transform="translate(623.621913 527.238438) scale(0.1 -0.1)">
       <defs>
        <path id="DejaVuSans-31" d="M 794 531 
L 1825 531 
L 1825 4091 
L 703 3866 
L 703 4441 
L 1819 4666 
L 2450 4666 
L 2450 531 
L 3481 531 
L 3481 0 
L 794 0 
L 794 531 
z
" transform="scale(0.015625)"/>
       </defs>
       <use xlink:href="#DejaVuSans-31"/>
       <use xlink:href="#DejaVuSans-30" x="63.623047"/>
       <use xlink:href="#DejaVuSans-30" x="127.246094"/>
       <use xlink:href="#DejaVuSans-30" x="190.869141"/>
      </g>
     </g>
    </g>
    <g id="xtick_4">
     <g id="line2d_4">
      <g>
       <use xlink:href="#m233f63bf30" x="839.653087" y="512.64" style="stroke: #000000; stroke-width: 0.8"/>
      </g>
     </g>
     <g id="text_4">
      <!-- 1500 -->
      <g transform="translate(826.928087 527.238438) scale(0.1 -0.1)">
       <use xlink:href="#DejaVuSans-31"/>
       <use xlink:href="#DejaVuSans-35" x="63.623047"/>
       <use xlink:href="#DejaVuSans-30" x="127.246094"/>
       <use xlink:href="#DejaVuSans-30" x="190.869141"/>
      </g>
     </g>
    </g>
    <g id="xtick_5">
     <g id="line2d_5">
      <g>
       <use xlink:href="#m233f63bf30" x="1042.95926" y="512.64" style="stroke: #000000; stroke-width: 0.8"/>
      </g>
     </g>
     <g id="text_5">
      <!-- 2000 -->
      <g transform="translate(1030.23426 527.238438) scale(0.1 -0.1)">
       <defs>
        <path id="DejaVuSans-32" d="M 1228 531 
L 3431 531 
L 3431 0 
L 469 0 
L 469 531 
Q 828 903 1448 1529 
Q 2069 2156 2228 2338 
Q 2531 2678 2651 2914 
Q 2772 3150 2772 3378 
Q 2772 3750 2511 3984 
Q 2250 4219 1831 4219 
Q 1534 4219 1204 4116 
Q 875 4013 500 3803 
L 500 4441 
Q 881 4594 1212 4672 
Q 1544 4750 1819 4750 
Q 2544 4750 2975 4387 
Q 3406 4025 3406 3419 
Q 3406 3131 3298 2873 
Q 3191 2616 2906 2266 
Q 2828 2175 2409 1742 
Q 1991 1309 1228 531 
z
" transform="scale(0.015625)"/>
       </defs>
       <use xlink:href="#DejaVuSans-32"/>
       <use xlink:href="#DejaVuSans-30" x="63.623047"/>
       <use xlink:href="#DejaVuSans-30" x="127.246094"/>
       <use xlink:href="#DejaVuSans-30" x="190.869141"/>
      </g>
     </g>
    </g>
    <g id="xtick_6">
     <g id="line2d_6">
      <g>
       <use xlink:href="#m233f63bf30" x="1246.265433" y="512.64" style="stroke: #000000; stroke-width: 0.8"/>
      </g>
     </g>
     <g id="text_6">
      <!-- 2500 -->
      <g transform="translate(1233.540433 527.238438) scale(0.1 -0.1)">
       <use xlink:href="#DejaVuSans-32"/>
       <use xlink:href="#DejaVuSans-35" x="63.623047"/>
       <use xlink:href="#DejaVuSans-30" x="127.246094"/>
       <use xlink:href="#DejaVuSans-30" x="190.869141"/>
      </g>
     </g>
    </g>
   </g>
   <g id="matplotlib.axis_2">
    <g id="ytick_1">
     <g id="line2d_7">
      <defs>
       <path id="m65b69ae38b" d="M 0 0 
L -3.5 0 
" style="stroke: #000000; stroke-width: 0.8"/>
      </defs>
      <g>
       <use xlink:href="#m65b69ae38b" x="180" y="488.294097" style="stroke: #000000; stroke-width: 0.8"/>
      </g>
     </g>
     <g id="text_7">
      <!-- −8 -->
      <g transform="translate(158.257812 492.093316) scale(0.1 -0.1)">
       <defs>
        <path id="DejaVuSans-2212" d="M 678 2272 
L 4684 2272 
L 4684 1741 
L 678 1741 
L 678 2272 
z
" transform="scale(0.015625)"/>
        <path id="DejaVuSans-38" d="M 2034 2216 
Q 1584 2216 1326 1975 
Q 1069 1734 1069 1313 
Q 1069 891 1326 650 
Q 1584 409 2034 409 
Q 2484 409 2743 651 
Q 3003 894 3003 1313 
Q 3003 1734 2745 1975 
Q 2488 2216 2034 2216 
z
M 1403 2484 
Q 997 2584 770 2862 
Q 544 3141 544 3541 
Q 544 4100 942 4425 
Q 1341 4750 2034 4750 
Q 2731 4750 3128 4425 
Q 3525 4100 3525 3541 
Q 3525 3141 3298 2862 
Q 3072 2584 2669 2484 
Q 3125 2378 3379 2068 
Q 3634 1759 3634 1313 
Q 3634 634 3220 271 
Q 2806 -91 2034 -91 
Q 1263 -91 848 271 
Q 434 634 434 1313 
Q 434 1759 690 2068 
Q 947 2378 1403 2484 
z
M 1172 3481 
Q 1172 3119 1398 2916 
Q 1625 2713 2034 2713 
Q 2441 2713 2670 2916 
Q 2900 3119 2900 3481 
Q 2900 3844 2670 4047 
Q 2441 4250 2034 4250 
Q 1625 4250 1398 4047 
Q 1172 3844 1172 3481 
z
" transform="scale(0.015625)"/>
       </defs>
       <use xlink:href="#DejaVuSans-2212"/>
       <use xlink:href="#DejaVuSans-38" x="83.789062"/>
      </g>
     </g>
    </g>
    <g id="ytick_2">
     <g id="line2d_8">
      <g>
       <use xlink:href="#m65b69ae38b" x="180" y="392.666104" style="stroke: #000000; stroke-width: 0.8"/>
      </g>
     </g>
     <g id="text_8">
      <!-- −6 -->
      <g transform="translate(158.257812 396.465322) scale(0.1 -0.1)">
       <defs>
        <path id="DejaVuSans-36" d="M 2113 2584 
Q 1688 2584 1439 2293 
Q 1191 2003 1191 1497 
Q 1191 994 1439 701 
Q 1688 409 2113 409 
Q 2538 409 2786 701 
Q 3034 994 3034 1497 
Q 3034 2003 2786 2293 
Q 2538 2584 2113 2584 
z
M 3366 4563 
L 3366 3988 
Q 3128 4100 2886 4159 
Q 2644 4219 2406 4219 
Q 1781 4219 1451 3797 
Q 1122 3375 1075 2522 
Q 1259 2794 1537 2939 
Q 1816 3084 2150 3084 
Q 2853 3084 3261 2657 
Q 3669 2231 3669 1497 
Q 3669 778 3244 343 
Q 2819 -91 2113 -91 
Q 1303 -91 875 529 
Q 447 1150 447 2328 
Q 447 3434 972 4092 
Q 1497 4750 2381 4750 
Q 2619 4750 2861 4703 
Q 3103 4656 3366 4563 
z
" transform="scale(0.015625)"/>
       </defs>
       <use xlink:href="#DejaVuSans-2212"/>
       <use xlink:href="#DejaVuSans-36" x="83.789062"/>
      </g>
     </g>
    </g>
    <g id="ytick_3">
     <g id="line2d_9">
      <g>
       <use xlink:href="#m65b69ae38b" x="180" y="297.03811" style="stroke: #000000; stroke-width: 0.8"/>
      </g>
     </g>
     <g id="text_9">
      <!-- −4 -->
      <g transform="translate(158.257812 300.837328) scale(0.1 -0.1)">
       <defs>
        <path id="DejaVuSans-34" d="M 2419 4116 
L 825 1625 
L 2419 1625 
L 2419 4116 
z
M 2253 4666 
L 3047 4666 
L 3047 1625 
L 3713 1625 
L 3713 1100 
L 3047 1100 
L 3047 0 
L 2419 0 
L 2419 1100 
L 313 1100 
L 313 1709 
L 2253 4666 
z
" transform="scale(0.015625)"/>
       </defs>
       <use xlink:href="#DejaVuSans-2212"/>
       <use xlink:href="#DejaVuSans-34" x="83.789062"/>
      </g>
     </g>
    </g>
    <g id="ytick_4">
     <g id="line2d_10">
      <g>
       <use xlink:href="#m65b69ae38b" x="180" y="201.410116" style="stroke: #000000; stroke-width: 0.8"/>
      </g>
     </g>
     <g id="text_10">
      <!-- −2 -->
      <g transform="translate(158.257812 205.209335) scale(0.1 -0.1)">
       <use xlink:href="#DejaVuSans-2212"/>
       <use xlink:href="#DejaVuSans-32" x="83.789062"/>
      </g>
     </g>
    </g>
    <g id="ytick_5">
     <g id="line2d_11">
      <g>
       <use xlink:href="#m65b69ae38b" x="180" y="105.782122" style="stroke: #000000; stroke-width: 0.8"/>
      </g>
     </g>
     <g id="text_11">
      <!-- 0 -->
      <g transform="translate(166.6375 109.581341) scale(0.1 -0.1)">
       <use xlink:href="#DejaVuSans-30"/>
      </g>
     </g>
    </g>
   </g>
   <g id="line2d_12">
    <path d="M 230.727273 238.910609 
L 231.719979 238.763734 
L 232.712685 240.354643 
L 233.70539 239.223726 
L 234.698096 236.897965 
L 235.690802 239.95744 
L 236.683508 238.780435 
L 237.676214 238.851662 
L 238.66892 239.778688 
L 239.661626 239.750805 
L 240.654332 237.744151 
L 241.647038 238.93255 
L 242.639744 240.393629 
L 243.63245 240.669334 
L 244.625156 240.179782 
L 245.617862 241.683376 
L 246.610568 246.683579 
L 247.603273 249.258166 
L 248.595979 261.651418 
L 249.588685 266.840243 
L 250.581391 216.252543 
L 251.574097 215.488464 
L 252.566803 211.639088 
L 253.559509 193.023612 
L 254.552215 189.952537 
L 255.544921 173.463161 
L 256.537627 177.680122 
L 257.530333 170.133141 
L 258.523039 132.886243 
L 260.50845 107.222043 
L 261.501156 105.081817 
L 262.493862 102.427545 
L 263.486568 107.908629 
L 264.479274 109.7343 
L 265.47198 118.298893 
L 266.464686 136.843455 
L 267.457392 161.506439 
L 268.450098 172.032056 
L 269.442804 138.793642 
L 270.43551 130.037937 
L 271.428216 126.300287 
L 272.420922 119.838353 
L 273.413627 131.025139 
L 274.406333 138.841138 
L 275.399039 134.28881 
L 276.391745 120.334602 
L 277.384451 134.320763 
L 278.377157 139.771065 
L 279.369863 168.323097 
L 281.355275 111.1341 
L 282.347981 93.795642 
L 283.340687 89.28 
L 284.333393 90.360007 
L 285.326099 103.341193 
L 286.318804 119.718661 
L 287.31151 118.815023 
L 288.304216 118.203538 
L 289.296922 113.358986 
L 290.289628 121.928078 
L 291.282334 155.798083 
L 292.27504 184.050178 
L 293.267746 192.179321 
L 294.260452 202.608622 
L 295.253158 196.103525 
L 296.245864 169.058214 
L 297.23857 186.947371 
L 298.231276 191.159473 
L 299.223981 216.963376 
L 300.216687 235.921694 
L 301.209393 324.489179 
L 302.202099 273.693855 
L 303.194805 242.380657 
L 304.187511 228.975474 
L 305.180217 243.478213 
L 306.172923 247.303731 
L 307.165629 242.261118 
L 308.158335 217.433998 
L 309.151041 211.361542 
L 310.143747 208.112071 
L 311.136453 262.872249 
L 312.129159 254.705085 
L 313.121864 283.697334 
L 314.11457 223.012818 
L 315.107276 292.194743 
L 316.099982 251.022391 
L 317.092688 216.211948 
L 318.085394 224.937144 
L 319.0781 254.407381 
L 320.070806 222.908422 
L 321.063512 253.653332 
L 322.056218 232.44687 
L 323.048924 235.653002 
L 324.04163 233.409337 
L 325.034336 272.501876 
L 326.027041 298.751289 
L 327.019747 240.395626 
L 328.012453 267.858424 
L 329.005159 218.00415 
L 329.997865 223.397984 
L 330.990571 231.212308 
L 331.983277 224.174666 
L 332.975983 274.365029 
L 333.968689 231.95631 
L 334.961395 259.885034 
L 335.954101 321.07768 
L 336.946807 290.780919 
L 337.939513 232.68978 
L 338.932218 359.306014 
L 339.924924 252.152684 
L 340.91763 272.22212 
L 341.910336 250.161128 
L 342.903042 239.769986 
L 343.895748 258.629203 
L 344.888454 282.469163 
L 345.88116 241.100703 
L 346.873866 258.696651 
L 347.866572 261.750653 
L 348.859278 270.192458 
L 349.851984 237.797661 
L 350.84469 268.147103 
L 351.837395 288.288837 
L 352.830101 378.350313 
L 353.822807 292.257584 
L 354.815513 240.867128 
L 355.808219 266.07635 
L 356.800925 287.82398 
L 357.793631 296.914491 
L 358.786337 264.02168 
L 359.779043 245.034005 
L 360.771749 367.056748 
L 361.764455 241.247273 
L 362.757161 236.587327 
L 363.749867 269.668247 
L 364.742572 215.767098 
L 365.735278 284.41173 
L 366.727984 250.220322 
L 367.72069 272.1435 
L 368.713396 298.127801 
L 369.706102 273.766318 
L 370.698808 243.510522 
L 373.676926 289.600263 
L 374.669632 250.556621 
L 375.662338 225.784034 
L 376.655044 255.542458 
L 377.64775 297.289111 
L 378.640455 228.89481 
L 379.633161 250.078397 
L 380.625867 279.094406 
L 381.618573 239.494465 
L 382.611279 222.938781 
L 383.603985 324.383346 
L 384.596691 344.244061 
L 385.589397 252.978085 
L 386.582103 264.02045 
L 387.574809 295.180998 
L 388.567515 277.595797 
L 389.560221 265.906451 
L 391.545632 233.775338 
L 392.538338 242.540951 
L 393.531044 259.9011 
L 394.52375 261.263137 
L 395.516456 268.813509 
L 396.509162 246.168562 
L 397.501868 279.210531 
L 398.494574 274.705888 
L 399.48728 268.51805 
L 400.479986 253.716551 
L 401.472692 313.645326 
L 402.465398 243.389702 
L 403.458104 275.648551 
L 404.450809 330.653699 
L 405.443515 300.026881 
L 406.436221 295.421344 
L 407.428927 232.698011 
L 408.421633 333.015855 
L 409.414339 236.844615 
L 410.407045 270.545996 
L 411.399751 256.32383 
L 412.392457 305.267019 
L 413.385163 260.262231 
L 414.377869 266.841458 
L 415.370575 230.892072 
L 416.363281 255.601358 
L 417.355986 237.160322 
L 418.348692 236.341538 
L 419.341398 283.037744 
L 420.334104 253.867237 
L 421.32681 266.83511 
L 422.319516 305.771464 
L 423.312222 294.940454 
L 424.304928 288.9003 
L 425.297634 280.812997 
L 426.29034 259.081835 
L 427.283046 257.52591 
L 428.275752 267.561937 
L 429.268458 298.121456 
L 430.261163 248.954115 
L 431.253869 252.741236 
L 432.246575 273.848421 
L 433.239281 225.846139 
L 434.231987 251.760441 
L 435.224693 290.472558 
L 436.217399 243.638957 
L 437.210105 280.569743 
L 438.202811 240.164312 
L 439.195517 269.256107 
L 440.188223 236.246301 
L 441.180929 257.756897 
L 442.173635 258.310049 
L 443.166341 281.78694 
L 444.159046 292.229453 
L 445.151752 296.51312 
L 446.144458 275.220487 
L 447.137164 285.756938 
L 448.12987 250.448131 
L 449.122576 271.391424 
L 450.115282 296.204635 
L 451.107988 329.390422 
L 452.100694 314.285574 
L 454.086106 270.597528 
L 455.078812 254.768467 
L 456.071518 257.075396 
L 457.064223 337.663263 
L 458.056929 295.815315 
L 459.049635 318.305331 
L 460.042341 258.472909 
L 461.035047 261.554688 
L 463.020459 292.446338 
L 464.013165 343.471504 
L 465.005871 267.900498 
L 465.998577 340.616981 
L 466.991283 241.36147 
L 467.983989 274.407613 
L 468.976695 270.733295 
L 469.9694 250.610583 
L 470.962106 358.79495 
L 471.954812 305.025703 
L 472.947518 285.567558 
L 473.940224 255.646333 
L 474.93293 354.345853 
L 475.925636 270.742885 
L 476.918342 269.171286 
L 477.911048 246.847316 
L 478.903754 316.838081 
L 479.89646 273.040084 
L 480.889166 237.347127 
L 481.881872 269.942278 
L 482.874577 321.81751 
L 483.867283 256.294691 
L 484.859989 294.555527 
L 485.852695 302.516997 
L 486.845401 211.258902 
L 487.838107 254.574493 
L 488.830813 285.943049 
L 489.823519 292.250422 
L 490.816225 282.367943 
L 491.808931 267.074405 
L 492.801637 278.853618 
L 493.794343 232.257836 
L 494.787049 263.15472 
L 495.779754 236.663822 
L 496.77246 261.631897 
L 497.765166 249.973255 
L 498.757872 236.108999 
L 499.750578 249.463861 
L 500.743284 292.086969 
L 501.73599 264.328183 
L 502.728696 287.498543 
L 503.721402 285.74014 
L 504.714108 264.751629 
L 505.706814 313.059003 
L 506.69952 317.511453 
L 507.692226 247.470338 
L 508.684932 243.998836 
L 509.677637 244.766983 
L 510.670343 216.182123 
L 511.663049 230.189456 
L 512.655755 226.643686 
L 513.648461 263.537185 
L 514.641167 329.932009 
L 515.633873 226.066031 
L 516.626579 258.410922 
L 517.619285 225.048578 
L 518.611991 274.911327 
L 519.604697 260.575324 
L 520.597403 282.259633 
L 521.590109 234.04527 
L 522.582814 249.47557 
L 523.57552 232.586811 
L 524.568226 256.917705 
L 525.560932 245.318544 
L 526.553638 251.325728 
L 527.546344 222.538862 
L 528.53905 221.417537 
L 529.531756 259.216224 
L 530.524462 246.929006 
L 531.517168 255.72954 
L 532.509874 231.567882 
L 533.50258 244.31719 
L 534.495286 275.74085 
L 535.487991 247.204401 
L 536.480697 262.593313 
L 537.473403 195.665957 
L 538.466109 225.307066 
L 539.458815 219.295793 
L 540.451521 222.536836 
L 541.444227 231.901095 
L 542.436933 225.654318 
L 543.429639 210.061045 
L 544.422345 248.783624 
L 545.415051 257.244382 
L 546.407757 247.318856 
L 547.400463 334.946808 
L 548.393168 249.646887 
L 549.385874 294.038325 
L 550.37858 251.616097 
L 551.371286 250.763688 
L 552.363992 343.067739 
L 553.356698 244.018089 
L 554.349404 241.533869 
L 555.34211 226.196204 
L 556.334816 357.562608 
L 557.327522 269.662471 
L 558.320228 232.000566 
L 559.312934 238.92021 
L 560.30564 276.320966 
L 561.298345 247.432842 
L 562.291051 233.488923 
L 563.283757 310.673444 
L 564.276463 237.917581 
L 565.269169 304.434036 
L 566.261875 257.773559 
L 567.254581 242.204135 
L 568.247287 231.058281 
L 569.239993 281.682274 
L 570.232699 260.250774 
L 571.225405 232.868832 
L 572.218111 234.923786 
L 573.210817 352.42705 
L 574.203523 295.727361 
L 575.196228 396.853619 
L 576.188934 263.024086 
L 577.18164 288.79817 
L 578.174346 299.474631 
L 579.167052 292.809299 
L 580.159758 271.569303 
L 581.152464 259.373344 
L 582.14517 279.975205 
L 583.137876 238.351667 
L 584.130582 282.32139 
L 585.123288 261.305375 
L 586.115994 261.775718 
L 587.1087 268.576527 
L 588.101405 293.956979 
L 589.094111 253.428194 
L 590.086817 296.654343 
L 591.079523 265.266078 
L 592.072229 251.355142 
L 593.064935 282.596726 
L 594.057641 284.093841 
L 595.050347 353.429768 
L 596.043053 270.606152 
L 597.035759 252.382204 
L 598.028465 263.746443 
L 599.021171 278.290334 
L 600.013877 274.393897 
L 601.006582 347.685205 
L 601.999288 295.713632 
L 602.991994 289.346734 
L 603.9847 358.825926 
L 604.977406 295.758277 
L 605.970112 283.743528 
L 606.962818 274.037575 
L 607.955524 312.587239 
L 608.94823 335.72045 
L 609.940936 289.466239 
L 610.933642 343.067218 
L 611.926348 314.602073 
L 612.919054 304.367614 
L 613.911759 332.243639 
L 614.904465 299.233401 
L 616.889877 263.751627 
L 617.882583 300.006346 
L 618.875289 307.273263 
L 619.867995 291.491388 
L 620.860701 329.252413 
L 621.853407 337.183988 
L 622.846113 306.110962 
L 623.838819 310.393818 
L 624.831525 268.081917 
L 625.824231 299.813725 
L 626.816936 305.006059 
L 627.809642 308.706402 
L 628.802348 356.762928 
L 629.795054 291.936674 
L 630.78776 403.832988 
L 631.780466 313.389626 
L 632.773172 365.206017 
L 633.765878 301.618052 
L 634.758584 445.425251 
L 635.75129 338.271075 
L 636.743996 323.216475 
L 637.736702 331.329836 
L 638.729408 319.788702 
L 639.722114 348.927304 
L 640.714819 306.480917 
L 641.707525 334.51223 
L 642.700231 334.746907 
L 643.692937 337.199405 
L 644.685643 355.158941 
L 645.678349 308.876849 
L 646.671055 349.787193 
L 647.663761 373.837023 
L 648.656467 331.929132 
L 650.641879 366.129928 
L 651.634585 360.475379 
L 652.627291 357.319956 
L 653.619996 363.160076 
L 654.612702 329.50563 
L 655.605408 336.68084 
L 656.598114 333.839332 
L 657.59082 327.387893 
L 658.583526 398.654577 
L 659.576232 342.995108 
L 660.568938 354.892926 
L 661.561644 323.1536 
L 662.55435 386.329685 
L 663.547056 340.983728 
L 664.539762 346.486121 
L 665.532468 318.384087 
L 666.525173 397.630165 
L 667.517879 402.326788 
L 668.510585 363.239031 
L 669.503291 364.762177 
L 670.495997 339.426654 
L 671.488703 360.425084 
L 672.481409 400.313936 
L 673.474115 349.710685 
L 674.466821 356.111889 
L 675.459527 345.775324 
L 676.452233 380.157351 
L 677.444939 342.02474 
L 678.437645 347.463133 
L 679.43035 359.188444 
L 680.423056 376.562615 
L 681.415762 391.352838 
L 682.408468 351.043769 
L 683.401174 365.253171 
L 684.39388 348.08167 
L 685.386586 388.811911 
L 686.379292 344.199801 
L 687.371998 362.236886 
L 688.364704 420.713971 
L 689.35741 367.192174 
L 690.350116 364.722345 
L 691.342822 393.813227 
L 692.335527 343.24534 
L 693.328233 439.622291 
L 694.320939 358.210997 
L 695.313645 383.016848 
L 696.306351 362.632088 
L 697.299057 360.013448 
L 698.291763 400.892854 
L 699.284469 365.093897 
L 700.277175 360.313443 
L 701.269881 383.26092 
L 702.262587 371.599751 
L 703.255293 397.891168 
L 704.247999 393.094352 
L 705.240705 379.696333 
L 706.23341 389.56621 
L 707.226116 402.794444 
L 708.218822 395.973016 
L 709.211528 370.621898 
L 710.204234 378.208879 
L 711.19694 424.360082 
L 712.189646 393.12246 
L 714.175058 355.825729 
L 715.167764 361.048526 
L 716.16047 375.684458 
L 717.153176 373.988802 
L 718.145882 394.433133 
L 719.138587 375.95847 
L 720.131293 362.199515 
L 721.123999 393.31741 
L 722.116705 382.02442 
L 723.109411 360.070032 
L 724.102117 422.866062 
L 725.094823 383.207993 
L 726.087529 386.027214 
L 727.080235 382.778674 
L 728.072941 382.029529 
L 729.065647 400.893742 
L 730.058353 373.994262 
L 731.051059 394.080478 
L 732.043764 381.748403 
L 733.03647 390.316821 
L 734.029176 383.676934 
L 735.021882 407.535771 
L 736.014588 387.788018 
L 737.007294 386.213496 
L 738 391.891743 
L 738.992706 408.682291 
L 739.985412 369.138975 
L 740.978118 373.853442 
L 741.970824 377.3242 
L 742.96353 377.799067 
L 743.956236 378.068318 
L 744.948941 392.981925 
L 745.941647 373.829075 
L 746.934353 390.08515 
L 747.927059 382.612369 
L 748.919765 381.842884 
L 749.912471 420.991706 
L 750.905177 385.574789 
L 751.897883 374.361227 
L 752.890589 400.420089 
L 753.883295 359.883741 
L 754.876001 359.640986 
L 755.868707 393.51499 
L 756.861413 390.395431 
L 757.854118 395.619175 
L 758.846824 377.90836 
L 759.83953 370.473021 
L 760.832236 384.167766 
L 761.824942 396.001258 
L 762.817648 375.868184 
L 763.810354 381.129384 
L 764.80306 403.229046 
L 765.795766 381.212251 
L 766.788472 394.688244 
L 767.781178 389.3299 
L 768.773884 371.88586 
L 769.76659 395.950566 
L 770.759295 390.546755 
L 771.752001 427.556026 
L 772.744707 385.564858 
L 773.737413 414.658901 
L 774.730119 382.356355 
L 775.722825 436.425002 
L 776.715531 393.12394 
L 777.708237 388.512876 
L 778.700943 376.630956 
L 779.693649 410.969248 
L 780.686355 363.004227 
L 781.679061 376.957222 
L 782.671767 395.86852 
L 783.664473 378.649103 
L 784.657178 380.261201 
L 785.649884 378.365821 
L 786.64259 393.738809 
L 787.635296 357.936552 
L 788.628002 406.309168 
L 789.620708 380.255198 
L 790.613414 376.312636 
L 791.60612 386.673032 
L 792.598826 374.01893 
L 793.591532 374.938754 
L 794.584238 374.239368 
L 795.576944 372.772051 
L 796.56965 388.854771 
L 797.562355 407.054219 
L 798.555061 377.394163 
L 799.547767 384.557316 
L 800.540473 397.446238 
L 801.533179 382.66307 
L 802.525885 409.979196 
L 803.518591 381.12927 
L 804.511297 396.486802 
L 805.504003 378.30558 
L 806.496709 453.175444 
L 807.489415 379.651571 
L 808.482121 378.25274 
L 809.474827 426.526227 
L 810.467532 360.514143 
L 811.460238 406.905329 
L 812.452944 361.592939 
L 813.44565 375.302269 
L 814.438356 393.479384 
L 815.431062 380.012092 
L 816.423768 377.587561 
L 817.416474 376.908331 
L 818.40918 455.106205 
L 819.401886 384.431435 
L 820.394592 392.883396 
L 821.387298 370.400437 
L 823.372709 416.553327 
L 824.365415 387.892993 
L 825.358121 420.031054 
L 826.350827 390.33599 
L 827.343533 364.696002 
L 828.336239 370.905572 
L 829.328945 367.689187 
L 830.321651 390.526796 
L 831.314357 381.018936 
L 832.307063 378.74663 
L 833.299769 422.452613 
L 834.292475 410.3263 
L 835.285181 386.53649 
L 836.277886 374.632924 
L 837.270592 416.257729 
L 838.263298 382.979416 
L 839.256004 410.780177 
L 840.24871 387.171971 
L 841.241416 397.627486 
L 842.234122 422.697583 
L 843.226828 395.908641 
L 844.219534 395.506133 
L 845.21224 398.366111 
L 846.204946 389.486116 
L 847.197652 391.106389 
L 848.190358 402.065125 
L 849.183064 409.003642 
L 850.175769 391.761693 
L 851.168475 433.773919 
L 852.161181 396.404099 
L 853.153887 395.777482 
L 854.146593 448.685672 
L 855.139299 384.108194 
L 856.132005 402.888018 
L 857.124711 379.082274 
L 858.117417 384.658072 
L 859.110123 383.589501 
L 860.102829 397.511731 
L 861.095535 392.180764 
L 862.088241 441.518502 
L 863.080946 393.12476 
L 864.073652 390.811492 
L 865.066358 395.952301 
L 867.05177 373.960741 
L 868.044476 386.568895 
L 869.037182 373.766839 
L 870.029888 403.327455 
L 871.022594 402.585717 
L 872.0153 388.626498 
L 873.008006 383.239249 
L 874.000712 390.15205 
L 874.993418 373.307222 
L 875.986123 409.985522 
L 876.978829 386.644325 
L 877.971535 408.420082 
L 878.964241 425.408556 
L 879.956947 391.832089 
L 880.949653 375.533077 
L 881.942359 376.956463 
L 882.935065 360.318508 
L 883.927771 454.840536 
L 884.920477 390.83149 
L 885.913183 373.435456 
L 886.905889 407.509377 
L 887.898595 399.361625 
L 888.8913 361.3884 
L 889.884006 396.833675 
L 890.876712 396.136111 
L 891.869418 378.385595 
L 892.862124 365.338911 
L 893.85483 394.788932 
L 894.847536 372.527436 
L 895.840242 388.147772 
L 896.832948 430.105026 
L 897.825654 399.625327 
L 898.81836 405.263516 
L 899.811066 383.785771 
L 900.803772 392.454905 
L 901.796477 392.249088 
L 902.789183 415.31458 
L 903.781889 390.364007 
L 904.774595 388.764518 
L 905.767301 394.010406 
L 906.760007 377.033904 
L 907.752713 380.075271 
L 909.738125 393.532492 
L 910.730831 425.224105 
L 911.723537 418.850605 
L 912.716243 432.928228 
L 913.708949 399.808067 
L 914.701655 418.214305 
L 915.69436 484.584636 
L 916.687066 397.13781 
L 917.679772 396.029215 
L 918.672478 397.611927 
L 919.665184 406.240662 
L 920.65789 383.220706 
L 921.650596 451.43528 
L 922.643302 443.995227 
L 923.636008 445.914327 
L 924.628714 406.598927 
L 925.62142 428.960479 
L 926.614126 416.509769 
L 927.606832 376.072597 
L 928.599537 412.948261 
L 929.592243 385.241693 
L 931.577655 411.643498 
L 932.570361 381.515294 
L 933.563067 403.317143 
L 934.555773 429.984192 
L 935.548479 427.330151 
L 936.541185 394.948499 
L 937.533891 402.665297 
L 938.526597 438.169101 
L 939.519303 383.939015 
L 940.512009 395.143779 
L 941.504714 377.899331 
L 942.49742 415.986458 
L 943.490126 390.513451 
L 944.482832 405.696123 
L 945.475538 403.668997 
L 946.468244 397.169154 
L 947.46095 398.427802 
L 948.453656 397.456352 
L 949.446362 403.006291 
L 950.439068 386.146381 
L 951.431774 403.931864 
L 952.42448 402.942035 
L 954.409891 381.327912 
L 955.402597 417.310339 
L 956.395303 375.992749 
L 957.388009 422.86949 
L 958.380715 375.208072 
L 959.373421 393.796575 
L 960.366127 408.564528 
L 961.358833 441.824648 
L 962.351539 382.193118 
L 963.344245 388.750752 
L 964.336951 394.072425 
L 965.329657 392.219426 
L 966.322363 400.939539 
L 967.315068 399.386679 
L 968.307774 403.063353 
L 969.30048 405.432237 
L 970.293186 381.608647 
L 971.285892 396.39292 
L 972.278598 383.942738 
L 973.271304 413.647926 
L 975.256716 387.952811 
L 976.249422 400.073765 
L 977.242128 381.671678 
L 978.234834 398.233613 
L 979.22754 391.559937 
L 980.220246 408.214736 
L 982.205657 383.858698 
L 984.191069 438.398969 
L 985.183775 401.074128 
L 986.176481 407.447711 
L 987.169187 427.371029 
L 988.161893 388.090087 
L 989.154599 401.086637 
L 990.147305 374.586505 
L 991.140011 385.03351 
L 992.132717 412.181179 
L 993.125423 379.267621 
L 995.110834 399.952771 
L 996.10354 379.040718 
L 997.096246 401.689031 
L 998.088952 381.181793 
L 999.081658 390.248548 
L 1000.074364 488.502994 
L 1001.06707 390.863486 
L 1002.059776 397.268736 
L 1003.052482 378.68967 
L 1004.045188 390.084428 
L 1005.037894 411.371787 
L 1006.0306 372.625016 
L 1007.023305 416.338473 
L 1008.016011 365.239463 
L 1009.008717 419.016585 
L 1010.001423 405.340521 
L 1010.994129 399.728552 
L 1011.986835 409.47561 
L 1012.979541 425.337709 
L 1013.972247 411.351276 
L 1014.964953 413.029767 
L 1015.957659 407.512387 
L 1016.950365 429.169141 
L 1017.943071 438.016985 
L 1018.935777 412.021232 
L 1019.928482 393.547511 
L 1020.921188 423.022061 
L 1021.913894 391.798401 
L 1022.9066 418.446975 
L 1023.899306 382.560328 
L 1024.892012 416.23374 
L 1025.884718 389.251908 
L 1026.877424 417.651546 
L 1027.87013 412.028761 
L 1028.862836 410.168677 
L 1029.855542 391.548374 
L 1030.848248 388.306331 
L 1031.840954 405.522263 
L 1032.833659 382.593326 
L 1033.826365 406.215974 
L 1034.819071 409.53683 
L 1035.811777 380.690095 
L 1036.804483 384.638333 
L 1037.797189 394.656924 
L 1038.789895 412.638829 
L 1039.782601 401.963232 
L 1040.775307 433.729145 
L 1041.768013 403.532045 
L 1042.760719 402.615053 
L 1043.753425 425.059779 
L 1044.746131 384.058721 
L 1045.738837 379.150672 
L 1046.731542 438.443083 
L 1047.724248 395.314337 
L 1048.716954 388.773568 
L 1049.70966 433.57301 
L 1050.702366 416.602576 
L 1051.695072 383.083354 
L 1052.687778 403.344425 
L 1053.680484 383.499748 
L 1054.67319 415.977036 
L 1055.665896 395.235966 
L 1056.658602 404.76866 
L 1057.651308 396.322837 
L 1058.644014 390.783676 
L 1059.636719 407.346265 
L 1060.629425 393.461074 
L 1061.622131 382.990417 
L 1062.614837 405.442104 
L 1063.607543 401.132878 
L 1064.600249 405.7167 
L 1065.592955 380.53249 
L 1066.585661 387.752723 
L 1067.578367 397.72611 
L 1068.571073 405.357483 
L 1069.563779 388.662642 
L 1071.549191 412.53315 
L 1072.541896 405.147758 
L 1073.534602 394.123763 
L 1074.527308 454.179741 
L 1075.520014 388.911629 
L 1076.51272 416.105284 
L 1077.505426 386.942784 
L 1078.498132 387.468017 
L 1079.490838 423.800843 
L 1080.483544 398.654037 
L 1081.47625 385.042668 
L 1082.468956 429.828043 
L 1083.461662 390.324851 
L 1084.454368 379.123792 
L 1085.447073 403.968866 
L 1086.439779 401.54062 
L 1087.432485 373.927084 
L 1088.425191 481.486143 
L 1089.417897 375.821591 
L 1090.410603 406.151014 
L 1091.403309 391.605986 
L 1092.396015 393.922079 
L 1093.388721 382.840994 
L 1094.381427 407.099647 
L 1095.374133 406.901326 
L 1096.366839 431.610358 
L 1098.35225 407.773664 
L 1099.344956 399.482849 
L 1100.337662 388.258002 
L 1101.330368 417.773182 
L 1102.323074 373.625403 
L 1103.31578 379.451322 
L 1104.308486 387.442476 
L 1105.301192 424.219888 
L 1106.293898 388.682772 
L 1107.286604 416.747029 
L 1108.27931 396.082424 
L 1109.272016 405.899583 
L 1110.264722 392.342377 
L 1111.257428 392.051017 
L 1112.250133 375.224182 
L 1113.242839 460.119035 
L 1114.235545 388.549624 
L 1115.228251 440.030441 
L 1116.220957 376.187757 
L 1118.206369 416.297893 
L 1119.199075 393.662296 
L 1120.191781 402.443458 
L 1121.184487 429.539839 
L 1122.177193 396.425734 
L 1123.169899 390.068039 
L 1124.162605 410.594332 
L 1125.15531 382.072785 
L 1126.148016 433.835295 
L 1127.140722 406.75906 
L 1128.133428 420.921054 
L 1129.126134 393.832327 
L 1130.11884 397.640115 
L 1131.111546 418.556103 
L 1132.104252 379.29051 
L 1133.096958 370.931346 
L 1134.089664 410.36851 
L 1135.08237 395.052561 
L 1136.075076 386.636124 
L 1137.067782 420.02905 
L 1138.060487 414.47572 
L 1139.053193 400.126597 
L 1140.045899 403.811969 
L 1141.038605 388.614498 
L 1142.031311 395.258522 
L 1143.024017 439.041981 
L 1144.016723 395.476421 
L 1145.009429 396.238982 
L 1146.002135 400.694908 
L 1146.994841 425.643801 
L 1147.987547 407.807828 
L 1148.980253 369.921856 
L 1149.972959 404.172182 
L 1150.965664 372.565461 
L 1151.95837 405.385749 
L 1152.951076 394.898349 
L 1153.943782 428.488724 
L 1154.936488 378.025955 
L 1155.929194 404.588999 
L 1156.9219 411.146917 
L 1157.914606 394.841905 
L 1158.907312 421.131639 
L 1159.900018 411.028964 
L 1160.892724 396.178017 
L 1161.88543 393.218745 
L 1162.878136 410.528501 
L 1163.870841 413.388346 
L 1164.863547 401.978262 
L 1165.856253 381.590507 
L 1166.848959 484.953279 
L 1167.841665 428.439623 
L 1168.834371 407.721837 
L 1169.827077 377.088406 
L 1170.819783 481.776317 
L 1171.812489 387.891494 
L 1172.805195 394.919601 
L 1173.797901 432.534107 
L 1174.790607 397.55147 
L 1175.783313 446.40464 
L 1176.776019 392.129554 
L 1177.768724 405.864952 
L 1178.76143 405.692084 
L 1179.754136 395.925689 
L 1180.746842 384.390897 
L 1181.739548 378.580824 
L 1182.732254 389.577559 
L 1183.72496 397.062957 
L 1184.717666 390.224592 
L 1185.710372 409.648338 
L 1186.703078 384.520862 
L 1187.695784 492.48 
L 1188.68849 387.836355 
L 1189.681196 375.160276 
L 1190.673901 410.274833 
L 1191.666607 375.37886 
L 1192.659313 394.643977 
L 1193.652019 428.126725 
L 1194.644725 377.129516 
L 1195.637431 389.204477 
L 1196.630137 444.700759 
L 1197.622843 398.30091 
L 1198.615549 382.076197 
L 1199.608255 387.239052 
L 1200.600961 389.328499 
L 1201.593667 406.635938 
L 1202.586373 412.765164 
L 1203.579078 414.853847 
L 1204.571784 406.353756 
L 1205.56449 394.377119 
L 1206.557196 403.70521 
L 1207.549902 402.75993 
L 1208.542608 380.354271 
L 1209.535314 409.750838 
L 1210.52802 395.28291 
L 1211.520726 384.165221 
L 1212.513432 377.439116 
L 1213.506138 400.699694 
L 1214.498844 382.425868 
L 1215.49155 405.551653 
L 1216.484255 379.224941 
L 1217.476961 384.358558 
L 1218.469667 435.286104 
L 1219.462373 418.748402 
L 1220.455079 390.11089 
L 1221.447785 409.413273 
L 1222.440491 392.641621 
L 1223.433197 400.529771 
L 1224.425903 395.040378 
L 1225.418609 401.906018 
L 1226.411315 413.603418 
L 1227.404021 427.156465 
L 1228.396727 430.685882 
L 1229.389432 428.230665 
L 1230.382138 392.348077 
L 1231.374844 408.764049 
L 1232.36755 399.157998 
L 1233.360256 418.857594 
L 1234.352962 425.986629 
L 1235.345668 411.385246 
L 1236.338374 401.707191 
L 1237.33108 402.079014 
L 1238.323786 401.677287 
L 1239.316492 385.753307 
L 1240.309198 407.06254 
L 1241.301904 418.409525 
L 1242.29461 384.335425 
L 1243.287315 417.125375 
L 1244.280021 397.773198 
L 1245.272727 396.379147 
L 1245.272727 396.379147 
" clip-path="url(#p822ace17ba)" style="fill: none; stroke: #1f77b4; stroke-width: 1.5; stroke-linecap: square"/>
   </g>
   <g id="patch_3">
    <path d="M 180 512.64 
L 180 69.12 
" style="fill: none; stroke: #000000; stroke-width: 0.8; stroke-linejoin: miter; stroke-linecap: square"/>
   </g>
   <g id="patch_4">
    <path d="M 1296 512.64 
L 1296 69.12 
" style="fill: none; stroke: #000000; stroke-width: 0.8; stroke-linejoin: miter; stroke-linecap: square"/>
   </g>
   <g id="patch_5">
    <path d="M 180 512.64 
L 1296 512.64 
" style="fill: none; stroke: #000000; stroke-width: 0.8; stroke-linejoin: miter; stroke-linecap: square"/>
   </g>
   <g id="patch_6">
    <path d="M 180 69.12 
L 1296 69.12 
" style="fill: none; stroke: #000000; stroke-width: 0.8; stroke-linejoin: miter; stroke-linecap: square"/>
   </g>
   <g id="text_12">
    <!-- source4-receiver22 -->
    <g transform="translate(544.9 60.80125) scale(0.4 -0.4)">
     <defs>
      <path id="DejaVuSans-73" d="M 2834 3397 
L 2834 2853 
Q 2591 2978 2328 3040 
Q 2066 3103 1784 3103 
Q 1356 3103 1142 2972 
Q 928 2841 928 2578 
Q 928 2378 1081 2264 
Q 1234 2150 1697 2047 
L 1894 2003 
Q 2506 1872 2764 1633 
Q 3022 1394 3022 966 
Q 3022 478 2636 193 
Q 2250 -91 1575 -91 
Q 1294 -91 989 -36 
Q 684 19 347 128 
L 347 722 
Q 666 556 975 473 
Q 1284 391 1588 391 
Q 1994 391 2212 530 
Q 2431 669 2431 922 
Q 2431 1156 2273 1281 
Q 2116 1406 1581 1522 
L 1381 1569 
Q 847 1681 609 1914 
Q 372 2147 372 2553 
Q 372 3047 722 3315 
Q 1072 3584 1716 3584 
Q 2034 3584 2315 3537 
Q 2597 3491 2834 3397 
z
" transform="scale(0.015625)"/>
      <path id="DejaVuSans-6f" d="M 1959 3097 
Q 1497 3097 1228 2736 
Q 959 2375 959 1747 
Q 959 1119 1226 758 
Q 1494 397 1959 397 
Q 2419 397 2687 759 
Q 2956 1122 2956 1747 
Q 2956 2369 2687 2733 
Q 2419 3097 1959 3097 
z
M 1959 3584 
Q 2709 3584 3137 3096 
Q 3566 2609 3566 1747 
Q 3566 888 3137 398 
Q 2709 -91 1959 -91 
Q 1206 -91 779 398 
Q 353 888 353 1747 
Q 353 2609 779 3096 
Q 1206 3584 1959 3584 
z
" transform="scale(0.015625)"/>
      <path id="DejaVuSans-75" d="M 544 1381 
L 544 3500 
L 1119 3500 
L 1119 1403 
Q 1119 906 1312 657 
Q 1506 409 1894 409 
Q 2359 409 2629 706 
Q 2900 1003 2900 1516 
L 2900 3500 
L 3475 3500 
L 3475 0 
L 2900 0 
L 2900 538 
Q 2691 219 2414 64 
Q 2138 -91 1772 -91 
Q 1169 -91 856 284 
Q 544 659 544 1381 
z
M 1991 3584 
L 1991 3584 
z
" transform="scale(0.015625)"/>
      <path id="DejaVuSans-72" d="M 2631 2963 
Q 2534 3019 2420 3045 
Q 2306 3072 2169 3072 
Q 1681 3072 1420 2755 
Q 1159 2438 1159 1844 
L 1159 0 
L 581 0 
L 581 3500 
L 1159 3500 
L 1159 2956 
Q 1341 3275 1631 3429 
Q 1922 3584 2338 3584 
Q 2397 3584 2469 3576 
Q 2541 3569 2628 3553 
L 2631 2963 
z
" transform="scale(0.015625)"/>
      <path id="DejaVuSans-63" d="M 3122 3366 
L 3122 2828 
Q 2878 2963 2633 3030 
Q 2388 3097 2138 3097 
Q 1578 3097 1268 2742 
Q 959 2388 959 1747 
Q 959 1106 1268 751 
Q 1578 397 2138 397 
Q 2388 397 2633 464 
Q 2878 531 3122 666 
L 3122 134 
Q 2881 22 2623 -34 
Q 2366 -91 2075 -91 
Q 1284 -91 818 406 
Q 353 903 353 1747 
Q 353 2603 823 3093 
Q 1294 3584 2113 3584 
Q 2378 3584 2631 3529 
Q 2884 3475 3122 3366 
z
" transform="scale(0.015625)"/>
      <path id="DejaVuSans-65" d="M 3597 1894 
L 3597 1613 
L 953 1613 
Q 991 1019 1311 708 
Q 1631 397 2203 397 
Q 2534 397 2845 478 
Q 3156 559 3463 722 
L 3463 178 
Q 3153 47 2828 -22 
Q 2503 -91 2169 -91 
Q 1331 -91 842 396 
Q 353 884 353 1716 
Q 353 2575 817 3079 
Q 1281 3584 2069 3584 
Q 2775 3584 3186 3129 
Q 3597 2675 3597 1894 
z
M 3022 2063 
Q 3016 2534 2758 2815 
Q 2500 3097 2075 3097 
Q 1594 3097 1305 2825 
Q 1016 2553 972 2059 
L 3022 2063 
z
" transform="scale(0.015625)"/>
      <path id="DejaVuSans-2d" d="M 313 2009 
L 1997 2009 
L 1997 1497 
L 313 1497 
L 313 2009 
z
" transform="scale(0.015625)"/>
      <path id="DejaVuSans-69" d="M 603 3500 
L 1178 3500 
L 1178 0 
L 603 0 
L 603 3500 
z
M 603 4863 
L 1178 4863 
L 1178 4134 
L 603 4134 
L 603 4863 
z
" transform="scale(0.015625)"/>
      <path id="DejaVuSans-76" d="M 191 3500 
L 800 3500 
L 1894 563 
L 2988 3500 
L 3597 3500 
L 2284 0 
L 1503 0 
L 191 3500 
z
" transform="scale(0.015625)"/>
     </defs>
     <use xlink:href="#DejaVuSans-73"/>
     <use xlink:href="#DejaVuSans-6f" x="52.099609"/>
     <use xlink:href="#DejaVuSans-75" x="113.28125"/>
     <use xlink:href="#DejaVuSans-72" x="176.660156"/>
     <use xlink:href="#DejaVuSans-63" x="215.523438"/>
     <use xlink:href="#DejaVuSans-65" x="270.503906"/>
     <use xlink:href="#DejaVuSans-34" x="332.027344"/>
     <use xlink:href="#DejaVuSans-2d" x="395.650391"/>
     <use xlink:href="#DejaVuSans-72" x="431.734375"/>
     <use xlink:href="#DejaVuSans-65" x="470.597656"/>
     <use xlink:href="#DejaVuSans-63" x="532.121094"/>
     <use xlink:href="#DejaVuSans-65" x="587.101562"/>
     <use xlink:href="#DejaVuSans-69" x="648.625"/>
     <use xlink:href="#DejaVuSans-76" x="676.408203"/>
     <use xlink:href="#DejaVuSans-65" x="735.587891"/>
     <use xlink:href="#DejaVuSans-72" x="797.111328"/>
     <use xlink:href="#DejaVuSans-32" x="838.224609"/>
     <use xlink:href="#DejaVuSans-32" x="901.847656"/>
    </g>
   </g>
  </g>
 </g>
 <defs>
  <clipPath id="p822ace17ba">
   <rect x="180" y="69.12" width="1116" height="443.52"/>
  </clipPath>
 </defs>
</svg>
