<?xml version="1.0" encoding="utf-8" standalone="no"?>
<!DOCTYPE svg PUBLIC "-//W3C//DTD SVG 1.1//EN"
  "http://www.w3.org/Graphics/SVG/1.1/DTD/svg11.dtd">
<svg xmlns:xlink="http://www.w3.org/1999/xlink" width="1440pt" height="576pt" viewBox="0 0 1440 576" xmlns="http://www.w3.org/2000/svg" version="1.1">
 <metadata>
  <rdf:RDF xmlns:dc="http://purl.org/dc/elements/1.1/" xmlns:cc="http://creativecommons.org/ns#" xmlns:rdf="http://www.w3.org/1999/02/22-rdf-syntax-ns#">
   <cc:Work>
    <dc:type rdf:resource="http://purl.org/dc/dcmitype/StillImage"/>
    <dc:date>2024-05-22T04:49:46.336772</dc:date>
    <dc:format>image/svg+xml</dc:format>
    <dc:creator>
     <cc:Agent>
      <dc:title>Matplotlib v3.8.3, https://matplotlib.org/</dc:title>
     </cc:Agent>
    </dc:creator>
   </cc:Work>
  </rdf:RDF>
 </metadata>
 <defs>
  <style type="text/css">*{stroke-linejoin: round; stroke-linecap: butt}</style>
 </defs>
 <g id="figure_1">
  <g id="patch_1">
   <path d="M 0 576 
L 1440 576 
L 1440 0 
L 0 0 
z
" style="fill: #ffffff"/>
  </g>
  <g id="axes_1">
   <g id="patch_2">
    <path d="M 180 512.64 
L 1296 512.64 
L 1296 69.12 
L 180 69.12 
z
" style="fill: #ffffff"/>
   </g>
   <g id="matplotlib.axis_1">
    <g id="xtick_1">
     <g id="line2d_1">
      <defs>
       <path id="m0ad8bb65a8" d="M 0 0 
L 0 3.5 
" style="stroke: #000000; stroke-width: 0.8"/>
      </defs>
      <g>
       <use xlink:href="#m0ad8bb65a8" x="229.734567" y="512.64" style="stroke: #000000; stroke-width: 0.8"/>
      </g>
     </g>
     <g id="text_1">
      <!-- 0 -->
      <g transform="translate(226.553317 527.238438) scale(0.1 -0.1)">
       <defs>
        <path id="DejaVuSans-30" d="M 2034 4250 
Q 1547 4250 1301 3770 
Q 1056 3291 1056 2328 
Q 1056 1369 1301 889 
Q 1547 409 2034 409 
Q 2525 409 2770 889 
Q 3016 1369 3016 2328 
Q 3016 3291 2770 3770 
Q 2525 4250 2034 4250 
z
M 2034 4750 
Q 2819 4750 3233 4129 
Q 3647 3509 3647 2328 
Q 3647 1150 3233 529 
Q 2819 -91 2034 -91 
Q 1250 -91 836 529 
Q 422 1150 422 2328 
Q 422 3509 836 4129 
Q 1250 4750 2034 4750 
z
" transform="scale(0.015625)"/>
       </defs>
       <use xlink:href="#DejaVuSans-30"/>
      </g>
     </g>
    </g>
    <g id="xtick_2">
     <g id="line2d_2">
      <g>
       <use xlink:href="#m0ad8bb65a8" x="433.04074" y="512.64" style="stroke: #000000; stroke-width: 0.8"/>
      </g>
     </g>
     <g id="text_2">
      <!-- 500 -->
      <g transform="translate(423.49699 527.238438) scale(0.1 -0.1)">
       <defs>
        <path id="DejaVuSans-35" d="M 691 4666 
L 3169 4666 
L 3169 4134 
L 1269 4134 
L 1269 2991 
Q 1406 3038 1543 3061 
Q 1681 3084 1819 3084 
Q 2600 3084 3056 2656 
Q 3513 2228 3513 1497 
Q 3513 744 3044 326 
Q 2575 -91 1722 -91 
Q 1428 -91 1123 -41 
Q 819 9 494 109 
L 494 744 
Q 775 591 1075 516 
Q 1375 441 1709 441 
Q 2250 441 2565 725 
Q 2881 1009 2881 1497 
Q 2881 1984 2565 2268 
Q 2250 2553 1709 2553 
Q 1456 2553 1204 2497 
Q 953 2441 691 2322 
L 691 4666 
z
" transform="scale(0.015625)"/>
       </defs>
       <use xlink:href="#DejaVuSans-35"/>
       <use xlink:href="#DejaVuSans-30" x="63.623047"/>
       <use xlink:href="#DejaVuSans-30" x="127.246094"/>
      </g>
     </g>
    </g>
    <g id="xtick_3">
     <g id="line2d_3">
      <g>
       <use xlink:href="#m0ad8bb65a8" x="636.346913" y="512.64" style="stroke: #000000; stroke-width: 0.8"/>
      </g>
     </g>
     <g id="text_3">
      <!-- 1000 -->
      <g transform="translate(623.621913 527.238438) scale(0.1 -0.1)">
       <defs>
        <path id="DejaVuSans-31" d="M 794 531 
L 1825 531 
L 1825 4091 
L 703 3866 
L 703 4441 
L 1819 4666 
L 2450 4666 
L 2450 531 
L 3481 531 
L 3481 0 
L 794 0 
L 794 531 
z
" transform="scale(0.015625)"/>
       </defs>
       <use xlink:href="#DejaVuSans-31"/>
       <use xlink:href="#DejaVuSans-30" x="63.623047"/>
       <use xlink:href="#DejaVuSans-30" x="127.246094"/>
       <use xlink:href="#DejaVuSans-30" x="190.869141"/>
      </g>
     </g>
    </g>
    <g id="xtick_4">
     <g id="line2d_4">
      <g>
       <use xlink:href="#m0ad8bb65a8" x="839.653087" y="512.64" style="stroke: #000000; stroke-width: 0.8"/>
      </g>
     </g>
     <g id="text_4">
      <!-- 1500 -->
      <g transform="translate(826.928087 527.238438) scale(0.1 -0.1)">
       <use xlink:href="#DejaVuSans-31"/>
       <use xlink:href="#DejaVuSans-35" x="63.623047"/>
       <use xlink:href="#DejaVuSans-30" x="127.246094"/>
       <use xlink:href="#DejaVuSans-30" x="190.869141"/>
      </g>
     </g>
    </g>
    <g id="xtick_5">
     <g id="line2d_5">
      <g>
       <use xlink:href="#m0ad8bb65a8" x="1042.95926" y="512.64" style="stroke: #000000; stroke-width: 0.8"/>
      </g>
     </g>
     <g id="text_5">
      <!-- 2000 -->
      <g transform="translate(1030.23426 527.238438) scale(0.1 -0.1)">
       <defs>
        <path id="DejaVuSans-32" d="M 1228 531 
L 3431 531 
L 3431 0 
L 469 0 
L 469 531 
Q 828 903 1448 1529 
Q 2069 2156 2228 2338 
Q 2531 2678 2651 2914 
Q 2772 3150 2772 3378 
Q 2772 3750 2511 3984 
Q 2250 4219 1831 4219 
Q 1534 4219 1204 4116 
Q 875 4013 500 3803 
L 500 4441 
Q 881 4594 1212 4672 
Q 1544 4750 1819 4750 
Q 2544 4750 2975 4387 
Q 3406 4025 3406 3419 
Q 3406 3131 3298 2873 
Q 3191 2616 2906 2266 
Q 2828 2175 2409 1742 
Q 1991 1309 1228 531 
z
" transform="scale(0.015625)"/>
       </defs>
       <use xlink:href="#DejaVuSans-32"/>
       <use xlink:href="#DejaVuSans-30" x="63.623047"/>
       <use xlink:href="#DejaVuSans-30" x="127.246094"/>
       <use xlink:href="#DejaVuSans-30" x="190.869141"/>
      </g>
     </g>
    </g>
    <g id="xtick_6">
     <g id="line2d_6">
      <g>
       <use xlink:href="#m0ad8bb65a8" x="1246.265433" y="512.64" style="stroke: #000000; stroke-width: 0.8"/>
      </g>
     </g>
     <g id="text_6">
      <!-- 2500 -->
      <g transform="translate(1233.540433 527.238438) scale(0.1 -0.1)">
       <use xlink:href="#DejaVuSans-32"/>
       <use xlink:href="#DejaVuSans-35" x="63.623047"/>
       <use xlink:href="#DejaVuSans-30" x="127.246094"/>
       <use xlink:href="#DejaVuSans-30" x="190.869141"/>
      </g>
     </g>
    </g>
   </g>
   <g id="matplotlib.axis_2">
    <g id="ytick_1">
     <g id="line2d_7">
      <defs>
       <path id="mb82ea82b1c" d="M 0 0 
L -3.5 0 
" style="stroke: #000000; stroke-width: 0.8"/>
      </defs>
      <g>
       <use xlink:href="#mb82ea82b1c" x="180" y="455.650051" style="stroke: #000000; stroke-width: 0.8"/>
      </g>
     </g>
     <g id="text_7">
      <!-- −4 -->
      <g transform="translate(158.257812 459.44927) scale(0.1 -0.1)">
       <defs>
        <path id="DejaVuSans-2212" d="M 678 2272 
L 4684 2272 
L 4684 1741 
L 678 1741 
L 678 2272 
z
" transform="scale(0.015625)"/>
        <path id="DejaVuSans-34" d="M 2419 4116 
L 825 1625 
L 2419 1625 
L 2419 4116 
z
M 2253 4666 
L 3047 4666 
L 3047 1625 
L 3713 1625 
L 3713 1100 
L 3047 1100 
L 3047 0 
L 2419 0 
L 2419 1100 
L 313 1100 
L 313 1709 
L 2253 4666 
z
" transform="scale(0.015625)"/>
       </defs>
       <use xlink:href="#DejaVuSans-2212"/>
       <use xlink:href="#DejaVuSans-34" x="83.789062"/>
      </g>
     </g>
    </g>
    <g id="ytick_2">
     <g id="line2d_8">
      <g>
       <use xlink:href="#mb82ea82b1c" x="180" y="366.020986" style="stroke: #000000; stroke-width: 0.8"/>
      </g>
     </g>
     <g id="text_8">
      <!-- −2 -->
      <g transform="translate(158.257812 369.820205) scale(0.1 -0.1)">
       <use xlink:href="#DejaVuSans-2212"/>
       <use xlink:href="#DejaVuSans-32" x="83.789062"/>
      </g>
     </g>
    </g>
    <g id="ytick_3">
     <g id="line2d_9">
      <g>
       <use xlink:href="#mb82ea82b1c" x="180" y="276.391921" style="stroke: #000000; stroke-width: 0.8"/>
      </g>
     </g>
     <g id="text_9">
      <!-- 0 -->
      <g transform="translate(166.6375 280.19114) scale(0.1 -0.1)">
       <use xlink:href="#DejaVuSans-30"/>
      </g>
     </g>
    </g>
    <g id="ytick_4">
     <g id="line2d_10">
      <g>
       <use xlink:href="#mb82ea82b1c" x="180" y="186.762856" style="stroke: #000000; stroke-width: 0.8"/>
      </g>
     </g>
     <g id="text_10">
      <!-- 2 -->
      <g transform="translate(166.6375 190.562075) scale(0.1 -0.1)">
       <use xlink:href="#DejaVuSans-32"/>
      </g>
     </g>
    </g>
    <g id="ytick_5">
     <g id="line2d_11">
      <g>
       <use xlink:href="#mb82ea82b1c" x="180" y="97.133791" style="stroke: #000000; stroke-width: 0.8"/>
      </g>
     </g>
     <g id="text_11">
      <!-- 4 -->
      <g transform="translate(166.6375 100.93301) scale(0.1 -0.1)">
       <use xlink:href="#DejaVuSans-34"/>
      </g>
     </g>
    </g>
   </g>
   <g id="line2d_12">
    <path d="M 230.727273 302.991341 
L 231.719979 303.350851 
L 232.712685 303.140102 
L 234.698096 302.945418 
L 235.690802 302.684707 
L 236.683508 302.685723 
L 237.676214 302.47701 
L 238.66892 302.078748 
L 239.661626 301.989362 
L 243.63245 301.093078 
L 245.617862 305.676515 
L 246.610568 283.631628 
L 247.603273 254.472415 
L 248.595979 235.281073 
L 249.588685 225.363639 
L 252.566803 210.719331 
L 253.559509 208.435251 
L 254.552215 208.415377 
L 255.544921 220.552646 
L 256.537627 240.162409 
L 257.530333 215.274812 
L 258.523039 210.714619 
L 259.515745 263.33026 
L 260.50845 217.986574 
L 261.501156 191.564948 
L 262.493862 201.911358 
L 263.486568 268.193425 
L 264.479274 210.029202 
L 265.47198 204.887734 
L 266.464686 227.847506 
L 268.450098 207.755618 
L 269.442804 230.488892 
L 270.43551 237.066031 
L 271.428216 178.989301 
L 272.420922 167.743644 
L 273.413627 186.818825 
L 275.399039 137.443496 
L 276.391745 143.548885 
L 277.384451 197.0828 
L 278.377157 125.262161 
L 279.369863 98.591234 
L 280.362569 89.646543 
L 281.355275 89.28 
L 282.347981 92.842709 
L 283.340687 99.372112 
L 284.333393 110.129934 
L 285.326099 117.296166 
L 286.318804 116.568963 
L 287.31151 122.415395 
L 288.304216 138.230853 
L 289.296922 143.105616 
L 290.289628 145.073523 
L 291.282334 170.22899 
L 292.27504 227.699978 
L 293.267746 199.647999 
L 294.260452 235.067941 
L 295.253158 225.740986 
L 296.245864 209.083304 
L 297.23857 255.127193 
L 298.231276 234.831696 
L 299.223981 228.503639 
L 300.216687 250.103295 
L 301.209393 222.506529 
L 302.202099 226.774216 
L 303.194805 276.362036 
L 304.187511 264.784361 
L 305.180217 269.191537 
L 306.172923 357.30981 
L 307.165629 298.602572 
L 308.158335 309.373465 
L 309.151041 322.088639 
L 310.143747 314.301968 
L 311.136453 292.222758 
L 312.129159 290.467665 
L 313.121864 306.780189 
L 314.11457 318.329104 
L 315.107276 309.112119 
L 316.099982 307.429497 
L 317.092688 311.924037 
L 318.085394 315.748818 
L 319.0781 313.901365 
L 320.070806 316.239353 
L 321.063512 317.178967 
L 322.056218 316.616829 
L 323.048924 316.723199 
L 324.04163 320.284458 
L 325.034336 326.849805 
L 326.027041 323.050176 
L 327.019747 326.210122 
L 328.012453 333.89356 
L 329.005159 336.765166 
L 329.997865 328.503552 
L 330.990571 322.576571 
L 331.983277 356.205645 
L 333.968689 322.975965 
L 334.961395 332.806345 
L 335.954101 323.491084 
L 336.946807 333.022162 
L 337.939513 345.521265 
L 338.932218 339.39468 
L 340.91763 340.069397 
L 341.910336 334.403642 
L 343.895748 339.442118 
L 344.888454 337.676827 
L 345.88116 344.779885 
L 347.866572 335.54444 
L 348.859278 346.446332 
L 349.851984 333.711456 
L 350.84469 338.594165 
L 351.837395 349.47463 
L 352.830101 345.318962 
L 353.822807 369.651752 
L 354.815513 351.297152 
L 355.808219 344.275649 
L 356.800925 358.940709 
L 357.793631 356.941606 
L 358.786337 356.864449 
L 359.779043 357.199033 
L 360.771749 341.260074 
L 361.764455 352.044751 
L 362.757161 336.193354 
L 363.749867 353.32403 
L 364.742572 346.346289 
L 365.735278 347.291567 
L 366.727984 353.707025 
L 367.72069 358.441548 
L 368.713396 376.747247 
L 369.706102 353.554076 
L 370.698808 348.658004 
L 371.691514 348.933861 
L 372.68422 363.480686 
L 373.676926 354.13258 
L 374.669632 361.93361 
L 375.662338 355.728796 
L 376.655044 358.536598 
L 377.64775 372.668183 
L 378.640455 347.845441 
L 379.633161 358.684778 
L 380.625867 351.596689 
L 381.618573 372.83728 
L 382.611279 369.262664 
L 383.603985 374.528843 
L 384.596691 358.420458 
L 385.589397 362.242162 
L 386.582103 371.652191 
L 387.574809 364.77011 
L 389.560221 386.489824 
L 390.552927 373.666809 
L 391.545632 366.587301 
L 392.538338 354.10887 
L 393.531044 389.530352 
L 394.52375 369.823052 
L 395.516456 363.419684 
L 397.501868 378.075814 
L 398.494574 381.520463 
L 399.48728 373.569549 
L 400.479986 376.297052 
L 401.472692 373.14349 
L 402.465398 363.433806 
L 403.458104 371.543055 
L 404.450809 367.763997 
L 405.443515 392.181016 
L 406.436221 368.358087 
L 407.428927 367.058609 
L 408.421633 383.531514 
L 409.414339 381.364885 
L 410.407045 375.244056 
L 411.399751 361.614509 
L 412.392457 369.220546 
L 413.385163 365.744113 
L 414.377869 375.447209 
L 415.370575 375.134018 
L 416.363281 385.718875 
L 417.355986 389.667521 
L 418.348692 377.500251 
L 420.334104 366.078406 
L 421.32681 377.109821 
L 422.319516 360.603615 
L 423.312222 375.945943 
L 424.304928 379.12599 
L 426.29034 370.358718 
L 427.283046 395.258562 
L 428.275752 384.990956 
L 429.268458 386.808134 
L 430.261163 421.641994 
L 431.253869 387.142042 
L 432.246575 392.490114 
L 433.239281 371.81893 
L 434.231987 388.060288 
L 435.224693 385.291303 
L 436.217399 374.29184 
L 437.210105 401.704709 
L 438.202811 382.385232 
L 439.195517 376.221867 
L 440.188223 383.829054 
L 441.180929 406.5679 
L 442.173635 371.354974 
L 443.166341 387.512236 
L 444.159046 372.698475 
L 445.151752 383.769975 
L 446.144458 380.177044 
L 447.137164 390.357848 
L 448.12987 390.07854 
L 449.122576 398.189962 
L 450.115282 376.403046 
L 451.107988 381.155008 
L 452.100694 391.884554 
L 453.0934 407.472623 
L 454.086106 392.468661 
L 455.078812 385.459406 
L 456.071518 374.57079 
L 457.064223 378.529979 
L 458.056929 384.924758 
L 459.049635 392.627362 
L 460.042341 383.724036 
L 461.035047 417.288501 
L 462.027753 386.246916 
L 463.020459 363.101696 
L 464.013165 387.013358 
L 465.005871 400.706816 
L 465.998577 398.005594 
L 466.991283 398.18769 
L 467.983989 388.69717 
L 468.976695 396.156198 
L 469.9694 383.825438 
L 470.962106 388.538048 
L 471.954812 379.385739 
L 472.947518 389.613202 
L 473.940224 385.336787 
L 474.93293 384.931113 
L 475.925636 384.070814 
L 476.918342 382.808131 
L 477.911048 388.636444 
L 478.903754 383.892935 
L 479.89646 400.231042 
L 480.889166 369.656124 
L 481.881872 372.260095 
L 482.874577 385.782366 
L 483.867283 386.989366 
L 484.859989 379.179502 
L 485.852695 385.005356 
L 486.845401 392.619313 
L 487.838107 418.690472 
L 488.830813 382.791579 
L 489.823519 405.417694 
L 490.816225 388.990757 
L 491.808931 378.552088 
L 492.801637 394.585967 
L 493.794343 444.820218 
L 494.787049 385.566333 
L 495.779754 373.349396 
L 496.77246 413.390161 
L 497.765166 381.367939 
L 498.757872 434.319538 
L 499.750578 392.467433 
L 500.743284 383.097861 
L 501.73599 409.498088 
L 502.728696 421.19154 
L 503.721402 410.627016 
L 504.714108 364.098489 
L 505.706814 389.013575 
L 506.69952 384.267386 
L 507.692226 443.847251 
L 508.684932 390.53088 
L 509.677637 362.003217 
L 510.670343 397.169264 
L 511.663049 381.922313 
L 512.655755 403.347001 
L 513.648461 490.038575 
L 514.641167 398.112368 
L 515.633873 371.947813 
L 516.626579 376.237835 
L 517.619285 392.288695 
L 518.611991 429.062901 
L 519.604697 420.682995 
L 520.597403 381.448259 
L 521.590109 417.031746 
L 522.582814 385.343834 
L 523.57552 383.388543 
L 524.568226 400.990036 
L 525.560932 434.117467 
L 526.553638 436.350208 
L 527.546344 405.470976 
L 528.53905 389.772662 
L 529.531756 416.770447 
L 530.524462 417.227371 
L 531.517168 403.908576 
L 532.509874 402.585902 
L 533.50258 435.602177 
L 534.495286 423.025166 
L 535.487991 385.076551 
L 536.480697 400.210472 
L 537.473403 399.064089 
L 538.466109 413.584052 
L 539.458815 371.729828 
L 540.451521 373.101832 
L 541.444227 392.765523 
L 542.436933 396.910967 
L 543.429639 422.58748 
L 544.422345 381.083899 
L 545.415051 385.463451 
L 546.407757 393.865537 
L 547.400463 387.016103 
L 548.393168 396.695222 
L 549.385874 486.706811 
L 550.37858 435.343117 
L 551.371286 420.043416 
L 552.363992 379.471911 
L 553.356698 418.403417 
L 554.349404 385.86697 
L 555.34211 411.128163 
L 556.334816 386.574613 
L 557.327522 440.346559 
L 558.320228 422.223428 
L 559.312934 378.962843 
L 560.30564 426.831085 
L 561.298345 394.496713 
L 563.283757 439.534218 
L 564.276463 379.717952 
L 565.269169 380.386339 
L 566.261875 469.572458 
L 567.254581 414.583951 
L 568.247287 386.214849 
L 569.239993 372.639845 
L 570.232699 383.035644 
L 571.225405 375.506589 
L 572.218111 452.538663 
L 573.210817 397.709033 
L 574.203523 413.748125 
L 575.196228 424.234741 
L 576.188934 404.393181 
L 577.18164 408.240114 
L 578.174346 406.880409 
L 579.167052 422.528034 
L 580.159758 418.907915 
L 581.152464 422.352178 
L 582.14517 402.793577 
L 583.137876 477.812743 
L 584.130582 410.915489 
L 585.123288 389.811506 
L 586.115994 395.699104 
L 587.1087 387.034831 
L 588.101405 406.398075 
L 589.094111 410.399824 
L 590.086817 403.728862 
L 591.079523 402.569322 
L 592.072229 408.802314 
L 593.064935 443.036506 
L 594.057641 390.711883 
L 595.050347 412.327983 
L 596.043053 396.111573 
L 597.035759 464.470205 
L 598.028465 492.48 
L 599.021171 418.646239 
L 600.013877 388.102223 
L 601.006582 433.862913 
L 602.991994 415.376865 
L 603.9847 405.180755 
L 604.977406 403.703628 
L 605.970112 425.022714 
L 606.962818 427.054344 
L 607.955524 435.805416 
L 608.94823 393.019003 
L 609.940936 394.548343 
L 610.933642 411.064099 
L 611.926348 399.390798 
L 612.919054 402.518275 
L 613.911759 419.098734 
L 614.904465 407.732556 
L 615.897171 416.574743 
L 616.889877 401.213523 
L 617.882583 419.336482 
L 618.875289 419.132364 
L 619.867995 411.712109 
L 620.860701 397.140718 
L 621.853407 411.543565 
L 622.846113 416.031135 
L 623.838819 419.470176 
L 624.831525 402.355593 
L 625.824231 415.352584 
L 626.816936 413.238972 
L 627.809642 420.585456 
L 628.802348 420.545656 
L 629.795054 418.143267 
L 630.78776 407.379144 
L 631.780466 402.67857 
L 632.773172 414.279317 
L 633.765878 416.893966 
L 634.758584 416.936102 
L 635.75129 412.677892 
L 636.743996 423.935274 
L 637.736702 423.96829 
L 638.729408 412.304394 
L 639.722114 428.193137 
L 640.714819 430.102956 
L 641.707525 437.722698 
L 642.700231 419.949894 
L 643.692937 417.515247 
L 644.685643 413.175854 
L 645.678349 406.990229 
L 646.671055 413.104375 
L 647.663761 406.863668 
L 648.656467 424.71116 
L 649.649173 427.903957 
L 650.641879 419.505921 
L 651.634585 415.721993 
L 652.627291 407.428856 
L 653.619996 418.696365 
L 654.612702 422.847558 
L 655.605408 419.726108 
L 656.598114 421.162428 
L 657.59082 423.987965 
L 658.583526 418.528202 
L 659.576232 418.977749 
L 660.568938 419.149905 
L 661.561644 415.897945 
L 662.55435 425.15311 
L 663.547056 418.971909 
L 664.539762 415.287682 
L 665.532468 425.609265 
L 666.525173 418.022756 
L 667.517879 425.578368 
L 668.510585 424.073922 
L 669.503291 425.336056 
L 670.495997 422.416216 
L 671.488703 416.354438 
L 672.481409 415.612907 
L 673.474115 419.214668 
L 674.466821 427.540878 
L 675.459527 424.672114 
L 676.452233 423.991931 
L 677.444939 419.884736 
L 678.437645 422.227746 
L 679.43035 421.912662 
L 680.423056 424.869617 
L 681.415762 418.172435 
L 682.408468 421.652337 
L 683.401174 423.801744 
L 684.39388 422.384379 
L 685.386586 422.426647 
L 686.379292 427.030917 
L 687.371998 422.864304 
L 688.364704 419.624819 
L 689.35741 425.161209 
L 690.350116 424.324341 
L 691.342822 422.186847 
L 692.335527 421.497953 
L 693.328233 419.556209 
L 694.320939 419.086842 
L 695.313645 422.642587 
L 696.306351 422.787489 
L 697.299057 421.615614 
L 698.291763 423.764456 
L 699.284469 424.530823 
L 700.277175 424.194401 
L 701.269881 425.750599 
L 702.262587 422.955486 
L 703.255293 420.757294 
L 704.247999 425.888091 
L 705.240705 423.800266 
L 706.23341 427.976701 
L 707.226116 423.159016 
L 708.218822 425.888622 
L 709.211528 423.283408 
L 710.204234 424.954353 
L 711.19694 423.920348 
L 712.189646 420.645161 
L 713.182352 422.579328 
L 714.175058 421.308228 
L 715.167764 424.398272 
L 716.16047 420.774462 
L 717.153176 424.95855 
L 718.145882 425.184942 
L 719.138587 428.900892 
L 720.131293 422.631035 
L 721.123999 423.590318 
L 722.116705 426.235376 
L 723.109411 423.18306 
L 724.102117 421.68662 
L 725.094823 425.569941 
L 726.087529 426.60125 
L 727.080235 428.266303 
L 728.072941 426.782405 
L 729.065647 423.237056 
L 730.058353 425.864944 
L 731.051059 426.308817 
L 733.03647 424.429823 
L 734.029176 426.429643 
L 735.021882 429.123632 
L 736.014588 425.497823 
L 737.007294 424.071472 
L 738 425.115463 
L 738.992706 424.430469 
L 739.985412 425.357793 
L 740.978118 426.685574 
L 741.970824 429.083559 
L 742.96353 428.690412 
L 743.956236 427.571294 
L 744.948941 427.126192 
L 745.941647 428.849987 
L 746.934353 428.012098 
L 747.927059 429.360513 
L 748.919765 424.46019 
L 749.912471 426.604018 
L 750.905177 426.899677 
L 751.897883 425.920511 
L 752.890589 429.011926 
L 753.883295 427.595699 
L 754.876001 427.022492 
L 755.868707 427.533558 
L 756.861413 427.854343 
L 758.846824 425.62147 
L 759.83953 428.686676 
L 760.832236 428.582611 
L 761.824942 427.164472 
L 762.817648 426.37442 
L 763.810354 426.455511 
L 764.80306 428.681085 
L 766.788472 428.271655 
L 767.781178 428.872284 
L 768.773884 426.342407 
L 769.76659 428.513183 
L 770.759295 428.453183 
L 771.752001 431.730354 
L 772.744707 430.435468 
L 773.737413 430.98549 
L 774.730119 430.604442 
L 775.722825 427.054937 
L 776.715531 427.87304 
L 777.708237 429.914339 
L 778.700943 428.766979 
L 779.693649 432.196022 
L 780.686355 428.948193 
L 781.679061 428.80233 
L 782.671767 428.948807 
L 783.664473 428.518526 
L 784.657178 429.127858 
L 785.649884 430.112415 
L 786.64259 429.531132 
L 787.635296 431.995169 
L 788.628002 428.695726 
L 789.620708 432.982198 
L 790.613414 429.293859 
L 791.60612 430.176449 
L 792.598826 428.85557 
L 793.591532 428.886384 
L 794.584238 430.436747 
L 795.576944 430.24458 
L 796.56965 430.591362 
L 797.562355 429.034795 
L 798.555061 430.32591 
L 799.547767 430.975023 
L 800.540473 429.758006 
L 801.533179 429.626026 
L 802.525885 428.145048 
L 803.518591 429.501408 
L 804.511297 429.991567 
L 805.504003 432.086117 
L 806.496709 430.057852 
L 807.489415 431.63209 
L 808.482121 432.251043 
L 809.474827 429.520495 
L 810.467532 429.07793 
L 811.460238 431.240712 
L 812.452944 431.354846 
L 813.44565 430.595914 
L 814.438356 430.261108 
L 815.431062 433.650966 
L 816.423768 430.744171 
L 817.416474 433.574972 
L 818.40918 433.501802 
L 819.401886 432.209061 
L 820.394592 431.885282 
L 821.387298 432.881099 
L 822.380004 430.399151 
L 823.372709 433.631796 
L 824.365415 432.946913 
L 825.358121 430.957733 
L 826.350827 431.906599 
L 827.343533 434.122794 
L 828.336239 431.2166 
L 829.328945 433.003866 
L 830.321651 433.837139 
L 831.314357 431.56276 
L 832.307063 433.658465 
L 833.299769 433.787754 
L 834.292475 432.280504 
L 835.285181 431.412453 
L 836.277886 432.724359 
L 837.270592 434.346562 
L 838.263298 433.318713 
L 839.256004 431.97267 
L 840.24871 431.594324 
L 841.241416 433.23268 
L 842.234122 435.85783 
L 843.226828 432.621214 
L 844.219534 431.700644 
L 845.21224 431.711055 
L 846.204946 433.409704 
L 847.197652 431.15637 
L 848.190358 431.009898 
L 849.183064 433.829315 
L 850.175769 435.633448 
L 851.168475 434.732152 
L 852.161181 432.64224 
L 853.153887 434.565636 
L 854.146593 431.491349 
L 855.139299 434.727041 
L 856.132005 434.349126 
L 857.124711 436.509152 
L 858.117417 434.990924 
L 859.110123 433.075032 
L 860.102829 431.626842 
L 861.095535 432.496759 
L 862.088241 435.167699 
L 863.080946 433.663819 
L 864.073652 433.748768 
L 866.059064 432.319969 
L 867.05177 432.757661 
L 868.044476 433.763526 
L 869.037182 433.65949 
L 870.029888 435.776872 
L 871.022594 435.040028 
L 872.0153 433.380656 
L 873.008006 435.898889 
L 874.000712 434.501069 
L 874.993418 435.386461 
L 875.986123 434.830339 
L 876.978829 435.101983 
L 877.971535 436.010802 
L 878.964241 435.487289 
L 879.956947 435.542175 
L 880.949653 434.185485 
L 881.942359 435.196992 
L 882.935065 434.704001 
L 883.927771 435.690972 
L 884.920477 434.638081 
L 885.913183 434.830203 
L 886.905889 433.621485 
L 887.898595 436.323963 
L 888.8913 437.25801 
L 889.884006 435.157193 
L 891.869418 435.516556 
L 892.862124 438.876413 
L 893.85483 437.082983 
L 894.847536 433.648053 
L 895.840242 434.974743 
L 896.832948 434.84247 
L 897.825654 436.08998 
L 898.81836 434.219926 
L 899.811066 436.015123 
L 900.803772 436.172346 
L 901.796477 436.150224 
L 902.789183 438.093259 
L 903.781889 435.84569 
L 904.774595 435.332445 
L 905.767301 436.232955 
L 906.760007 436.682219 
L 907.752713 435.695468 
L 908.745419 438.272572 
L 909.738125 437.022219 
L 910.730831 434.031104 
L 911.723537 436.259406 
L 912.716243 434.423111 
L 913.708949 433.559917 
L 914.701655 436.33354 
L 915.69436 436.090257 
L 916.687066 437.48959 
L 917.679772 436.925547 
L 918.672478 439.209438 
L 919.665184 435.707045 
L 920.65789 434.366825 
L 921.650596 437.388607 
L 922.643302 438.052573 
L 923.636008 438.540127 
L 924.628714 438.707106 
L 925.62142 437.952455 
L 926.614126 435.49069 
L 928.599537 438.845045 
L 929.592243 437.202217 
L 930.584949 433.505814 
L 931.577655 438.660438 
L 932.570361 437.329827 
L 933.563067 438.840315 
L 934.555773 436.73798 
L 935.548479 435.646055 
L 936.541185 436.338603 
L 937.533891 436.417123 
L 938.526597 435.501237 
L 939.519303 438.538992 
L 940.512009 438.607015 
L 941.504714 438.921025 
L 942.49742 436.842122 
L 943.490126 438.442657 
L 944.482832 437.266126 
L 945.475538 437.205786 
L 946.468244 438.506131 
L 947.46095 440.571162 
L 948.453656 439.004223 
L 949.446362 439.460555 
L 950.439068 438.219501 
L 951.431774 438.546423 
L 952.42448 436.113497 
L 953.417186 438.246823 
L 954.409891 439.342179 
L 955.402597 436.761796 
L 956.395303 437.385313 
L 957.388009 438.950752 
L 958.380715 440.095439 
L 959.373421 438.218186 
L 960.366127 438.084163 
L 961.358833 438.453336 
L 962.351539 439.371744 
L 963.344245 440.080317 
L 964.336951 438.363828 
L 965.329657 441.295892 
L 966.322363 439.093365 
L 967.315068 439.436211 
L 968.307774 438.749322 
L 969.30048 439.495761 
L 971.285892 439.935582 
L 972.278598 439.312399 
L 973.271304 440.620621 
L 974.26401 438.801033 
L 975.256716 437.685336 
L 976.249422 437.479098 
L 977.242128 438.68277 
L 978.234834 439.186587 
L 979.22754 437.778237 
L 980.220246 439.048563 
L 981.212951 440.617305 
L 982.205657 438.650502 
L 983.198363 441.349197 
L 984.191069 437.190342 
L 985.183775 439.338741 
L 986.176481 438.643046 
L 987.169187 439.703783 
L 988.161893 438.475336 
L 989.154599 439.708824 
L 990.147305 440.668922 
L 991.140011 438.019469 
L 992.132717 439.569882 
L 993.125423 438.536485 
L 994.118128 439.157132 
L 995.110834 438.090529 
L 996.10354 438.667516 
L 997.096246 438.243085 
L 998.088952 439.539757 
L 999.081658 439.242054 
L 1000.074364 440.074238 
L 1001.06707 439.248291 
L 1002.059776 438.580065 
L 1003.052482 437.697189 
L 1005.037894 439.611112 
L 1006.0306 442.945684 
L 1007.023305 443.055088 
L 1008.016011 439.323776 
L 1009.008717 439.3901 
L 1010.001423 441.608398 
L 1010.994129 436.657511 
L 1011.986835 437.791056 
L 1012.979541 441.411467 
L 1013.972247 437.981739 
L 1014.964953 440.722074 
L 1015.957659 440.809935 
L 1016.950365 441.741191 
L 1017.943071 441.898144 
L 1018.935777 441.908215 
L 1019.928482 439.638604 
L 1020.921188 438.172655 
L 1022.9066 442.119309 
L 1023.899306 440.923417 
L 1025.884718 441.369069 
L 1026.877424 441.420849 
L 1027.87013 440.748586 
L 1028.862836 438.615949 
L 1029.855542 439.507477 
L 1030.848248 438.842268 
L 1031.840954 440.967864 
L 1032.833659 440.186862 
L 1033.826365 440.383133 
L 1034.819071 439.971281 
L 1035.811777 441.676313 
L 1036.804483 441.118278 
L 1037.797189 440.216198 
L 1038.789895 440.28187 
L 1039.782601 442.343089 
L 1040.775307 440.69697 
L 1041.768013 436.840672 
L 1042.760719 442.628377 
L 1043.753425 438.469287 
L 1044.746131 441.243211 
L 1045.738837 439.609199 
L 1046.731542 440.411523 
L 1047.724248 439.713695 
L 1048.716954 442.684745 
L 1049.70966 440.558523 
L 1050.702366 440.397495 
L 1051.695072 442.720666 
L 1052.687778 442.662039 
L 1053.680484 441.455145 
L 1054.67319 442.174491 
L 1055.665896 440.033813 
L 1057.651308 442.204739 
L 1058.644014 441.727875 
L 1059.636719 444.539806 
L 1060.629425 443.062939 
L 1061.622131 439.613463 
L 1062.614837 441.445233 
L 1063.607543 442.141944 
L 1064.600249 441.960916 
L 1065.592955 443.881913 
L 1066.585661 437.837428 
L 1067.578367 440.819016 
L 1068.571073 440.661761 
L 1069.563779 440.984699 
L 1070.556485 441.69752 
L 1071.549191 441.964982 
L 1072.541896 439.710417 
L 1073.534602 440.261075 
L 1074.527308 439.673429 
L 1075.520014 442.780487 
L 1076.51272 442.742916 
L 1077.505426 439.94406 
L 1078.498132 439.249469 
L 1079.490838 444.573287 
L 1080.483544 441.004485 
L 1081.47625 438.001268 
L 1082.468956 441.599781 
L 1083.461662 440.070829 
L 1084.454368 440.08576 
L 1085.447073 440.987774 
L 1086.439779 441.534778 
L 1087.432485 441.478097 
L 1088.425191 441.179253 
L 1089.417897 440.477681 
L 1090.410603 443.106404 
L 1091.403309 440.386823 
L 1092.396015 442.934742 
L 1093.388721 441.644146 
L 1094.381427 443.697031 
L 1095.374133 441.619437 
L 1096.366839 442.720533 
L 1097.359545 441.483524 
L 1098.35225 441.506144 
L 1099.344956 440.769811 
L 1100.337662 442.72272 
L 1101.330368 441.028357 
L 1102.323074 443.248645 
L 1103.31578 442.261148 
L 1104.308486 441.064444 
L 1105.301192 440.430431 
L 1106.293898 444.105729 
L 1107.286604 442.637173 
L 1108.27931 441.701588 
L 1109.272016 442.23063 
L 1110.264722 443.016045 
L 1111.257428 442.459815 
L 1112.250133 442.700623 
L 1113.242839 444.968388 
L 1114.235545 441.785206 
L 1115.228251 445.318485 
L 1116.220957 442.740789 
L 1117.213663 441.019822 
L 1118.206369 441.600502 
L 1119.199075 444.678353 
L 1120.191781 443.900371 
L 1121.184487 441.983054 
L 1122.177193 441.488183 
L 1123.169899 443.952521 
L 1124.162605 439.207055 
L 1125.15531 440.887308 
L 1126.148016 444.939489 
L 1127.140722 445.046375 
L 1128.133428 444.772793 
L 1130.11884 441.309797 
L 1131.111546 445.595615 
L 1132.104252 443.112374 
L 1134.089664 440.759765 
L 1135.08237 441.43771 
L 1136.075076 442.577192 
L 1137.067782 444.486733 
L 1138.060487 442.108716 
L 1139.053193 442.981152 
L 1140.045899 441.147575 
L 1141.038605 441.488758 
L 1142.031311 444.244484 
L 1143.024017 444.627521 
L 1144.016723 444.600658 
L 1145.009429 442.876177 
L 1146.002135 442.639372 
L 1146.994841 443.522988 
L 1147.987547 443.508326 
L 1148.980253 442.321104 
L 1149.972959 442.840407 
L 1150.965664 440.960072 
L 1151.95837 441.268478 
L 1152.951076 440.860638 
L 1153.943782 442.803797 
L 1154.936488 442.304289 
L 1155.929194 442.255636 
L 1156.9219 444.806092 
L 1157.914606 443.136552 
L 1158.907312 441.746308 
L 1159.900018 441.769655 
L 1160.892724 441.31212 
L 1161.88543 443.666888 
L 1162.878136 441.408389 
L 1163.870841 443.490421 
L 1164.863547 441.89363 
L 1165.856253 442.38547 
L 1166.848959 444.002382 
L 1167.841665 441.723284 
L 1168.834371 442.814536 
L 1169.827077 441.453136 
L 1170.819783 442.162183 
L 1171.812489 442.120573 
L 1172.805195 442.523803 
L 1173.797901 442.66947 
L 1174.790607 442.599165 
L 1175.783313 445.093342 
L 1176.776019 443.43125 
L 1177.768724 439.820908 
L 1178.76143 441.17788 
L 1179.754136 440.472668 
L 1180.746842 441.88894 
L 1181.739548 441.353971 
L 1182.732254 441.984166 
L 1183.72496 440.346008 
L 1184.717666 442.306298 
L 1185.710372 443.604267 
L 1186.703078 442.364598 
L 1187.695784 443.19298 
L 1188.68849 440.282153 
L 1189.681196 440.749453 
L 1191.666607 445.08432 
L 1192.659313 443.788718 
L 1193.652019 443.393321 
L 1194.644725 440.956481 
L 1195.637431 443.567492 
L 1196.630137 443.22156 
L 1197.622843 444.60003 
L 1198.615549 441.564722 
L 1199.608255 443.883362 
L 1200.600961 442.914075 
L 1201.593667 442.498071 
L 1202.586373 446.673177 
L 1203.579078 442.770495 
L 1204.571784 443.147052 
L 1205.56449 445.630969 
L 1206.557196 443.289015 
L 1207.549902 445.240202 
L 1208.542608 440.745093 
L 1209.535314 441.152556 
L 1210.52802 444.017893 
L 1211.520726 443.285006 
L 1212.513432 444.29494 
L 1213.506138 441.172499 
L 1214.498844 442.112315 
L 1215.49155 444.546175 
L 1216.484255 441.62417 
L 1217.476961 443.249437 
L 1218.469667 441.323326 
L 1219.462373 443.44856 
L 1221.447785 440.969636 
L 1222.440491 444.734192 
L 1223.433197 441.531032 
L 1224.425903 442.865935 
L 1225.418609 442.537098 
L 1226.411315 442.060474 
L 1228.396727 443.706761 
L 1229.389432 443.10468 
L 1230.382138 444.063258 
L 1231.374844 443.387167 
L 1232.36755 443.697586 
L 1233.360256 445.660849 
L 1234.352962 442.269214 
L 1235.345668 441.507654 
L 1236.338374 440.919251 
L 1237.33108 442.933244 
L 1238.323786 443.913922 
L 1239.316492 444.73797 
L 1240.309198 446.281267 
L 1241.301904 445.80853 
L 1243.287315 440.453025 
L 1244.280021 443.741656 
L 1245.272727 442.897272 
L 1245.272727 442.897272 
" clip-path="url(#p5ee1eb1382)" style="fill: none; stroke: #1f77b4; stroke-width: 1.5; stroke-linecap: square"/>
   </g>
   <g id="patch_3">
    <path d="M 180 512.64 
L 180 69.12 
" style="fill: none; stroke: #000000; stroke-width: 0.8; stroke-linejoin: miter; stroke-linecap: square"/>
   </g>
   <g id="patch_4">
    <path d="M 1296 512.64 
L 1296 69.12 
" style="fill: none; stroke: #000000; stroke-width: 0.8; stroke-linejoin: miter; stroke-linecap: square"/>
   </g>
   <g id="patch_5">
    <path d="M 180 512.64 
L 1296 512.64 
" style="fill: none; stroke: #000000; stroke-width: 0.8; stroke-linejoin: miter; stroke-linecap: square"/>
   </g>
   <g id="patch_6">
    <path d="M 180 69.12 
L 1296 69.12 
" style="fill: none; stroke: #000000; stroke-width: 0.8; stroke-linejoin: miter; stroke-linecap: square"/>
   </g>
   <g id="text_12">
    <!-- source4-receiver23 -->
    <g transform="translate(544.9 60.80125) scale(0.4 -0.4)">
     <defs>
      <path id="DejaVuSans-73" d="M 2834 3397 
L 2834 2853 
Q 2591 2978 2328 3040 
Q 2066 3103 1784 3103 
Q 1356 3103 1142 2972 
Q 928 2841 928 2578 
Q 928 2378 1081 2264 
Q 1234 2150 1697 2047 
L 1894 2003 
Q 2506 1872 2764 1633 
Q 3022 1394 3022 966 
Q 3022 478 2636 193 
Q 2250 -91 1575 -91 
Q 1294 -91 989 -36 
Q 684 19 347 128 
L 347 722 
Q 666 556 975 473 
Q 1284 391 1588 391 
Q 1994 391 2212 530 
Q 2431 669 2431 922 
Q 2431 1156 2273 1281 
Q 2116 1406 1581 1522 
L 1381 1569 
Q 847 1681 609 1914 
Q 372 2147 372 2553 
Q 372 3047 722 3315 
Q 1072 3584 1716 3584 
Q 2034 3584 2315 3537 
Q 2597 3491 2834 3397 
z
" transform="scale(0.015625)"/>
      <path id="DejaVuSans-6f" d="M 1959 3097 
Q 1497 3097 1228 2736 
Q 959 2375 959 1747 
Q 959 1119 1226 758 
Q 1494 397 1959 397 
Q 2419 397 2687 759 
Q 2956 1122 2956 1747 
Q 2956 2369 2687 2733 
Q 2419 3097 1959 3097 
z
M 1959 3584 
Q 2709 3584 3137 3096 
Q 3566 2609 3566 1747 
Q 3566 888 3137 398 
Q 2709 -91 1959 -91 
Q 1206 -91 779 398 
Q 353 888 353 1747 
Q 353 2609 779 3096 
Q 1206 3584 1959 3584 
z
" transform="scale(0.015625)"/>
      <path id="DejaVuSans-75" d="M 544 1381 
L 544 3500 
L 1119 3500 
L 1119 1403 
Q 1119 906 1312 657 
Q 1506 409 1894 409 
Q 2359 409 2629 706 
Q 2900 1003 2900 1516 
L 2900 3500 
L 3475 3500 
L 3475 0 
L 2900 0 
L 2900 538 
Q 2691 219 2414 64 
Q 2138 -91 1772 -91 
Q 1169 -91 856 284 
Q 544 659 544 1381 
z
M 1991 3584 
L 1991 3584 
z
" transform="scale(0.015625)"/>
      <path id="DejaVuSans-72" d="M 2631 2963 
Q 2534 3019 2420 3045 
Q 2306 3072 2169 3072 
Q 1681 3072 1420 2755 
Q 1159 2438 1159 1844 
L 1159 0 
L 581 0 
L 581 3500 
L 1159 3500 
L 1159 2956 
Q 1341 3275 1631 3429 
Q 1922 3584 2338 3584 
Q 2397 3584 2469 3576 
Q 2541 3569 2628 3553 
L 2631 2963 
z
" transform="scale(0.015625)"/>
      <path id="DejaVuSans-63" d="M 3122 3366 
L 3122 2828 
Q 2878 2963 2633 3030 
Q 2388 3097 2138 3097 
Q 1578 3097 1268 2742 
Q 959 2388 959 1747 
Q 959 1106 1268 751 
Q 1578 397 2138 397 
Q 2388 397 2633 464 
Q 2878 531 3122 666 
L 3122 134 
Q 2881 22 2623 -34 
Q 2366 -91 2075 -91 
Q 1284 -91 818 406 
Q 353 903 353 1747 
Q 353 2603 823 3093 
Q 1294 3584 2113 3584 
Q 2378 3584 2631 3529 
Q 2884 3475 3122 3366 
z
" transform="scale(0.015625)"/>
      <path id="DejaVuSans-65" d="M 3597 1894 
L 3597 1613 
L 953 1613 
Q 991 1019 1311 708 
Q 1631 397 2203 397 
Q 2534 397 2845 478 
Q 3156 559 3463 722 
L 3463 178 
Q 3153 47 2828 -22 
Q 2503 -91 2169 -91 
Q 1331 -91 842 396 
Q 353 884 353 1716 
Q 353 2575 817 3079 
Q 1281 3584 2069 3584 
Q 2775 3584 3186 3129 
Q 3597 2675 3597 1894 
z
M 3022 2063 
Q 3016 2534 2758 2815 
Q 2500 3097 2075 3097 
Q 1594 3097 1305 2825 
Q 1016 2553 972 2059 
L 3022 2063 
z
" transform="scale(0.015625)"/>
      <path id="DejaVuSans-2d" d="M 313 2009 
L 1997 2009 
L 1997 1497 
L 313 1497 
L 313 2009 
z
" transform="scale(0.015625)"/>
      <path id="DejaVuSans-69" d="M 603 3500 
L 1178 3500 
L 1178 0 
L 603 0 
L 603 3500 
z
M 603 4863 
L 1178 4863 
L 1178 4134 
L 603 4134 
L 603 4863 
z
" transform="scale(0.015625)"/>
      <path id="DejaVuSans-76" d="M 191 3500 
L 800 3500 
L 1894 563 
L 2988 3500 
L 3597 3500 
L 2284 0 
L 1503 0 
L 191 3500 
z
" transform="scale(0.015625)"/>
      <path id="DejaVuSans-33" d="M 2597 2516 
Q 3050 2419 3304 2112 
Q 3559 1806 3559 1356 
Q 3559 666 3084 287 
Q 2609 -91 1734 -91 
Q 1441 -91 1130 -33 
Q 819 25 488 141 
L 488 750 
Q 750 597 1062 519 
Q 1375 441 1716 441 
Q 2309 441 2620 675 
Q 2931 909 2931 1356 
Q 2931 1769 2642 2001 
Q 2353 2234 1838 2234 
L 1294 2234 
L 1294 2753 
L 1863 2753 
Q 2328 2753 2575 2939 
Q 2822 3125 2822 3475 
Q 2822 3834 2567 4026 
Q 2313 4219 1838 4219 
Q 1578 4219 1281 4162 
Q 984 4106 628 3988 
L 628 4550 
Q 988 4650 1302 4700 
Q 1616 4750 1894 4750 
Q 2613 4750 3031 4423 
Q 3450 4097 3450 3541 
Q 3450 3153 3228 2886 
Q 3006 2619 2597 2516 
z
" transform="scale(0.015625)"/>
     </defs>
     <use xlink:href="#DejaVuSans-73"/>
     <use xlink:href="#DejaVuSans-6f" x="52.099609"/>
     <use xlink:href="#DejaVuSans-75" x="113.28125"/>
     <use xlink:href="#DejaVuSans-72" x="176.660156"/>
     <use xlink:href="#DejaVuSans-63" x="215.523438"/>
     <use xlink:href="#DejaVuSans-65" x="270.503906"/>
     <use xlink:href="#DejaVuSans-34" x="332.027344"/>
     <use xlink:href="#DejaVuSans-2d" x="395.650391"/>
     <use xlink:href="#DejaVuSans-72" x="431.734375"/>
     <use xlink:href="#DejaVuSans-65" x="470.597656"/>
     <use xlink:href="#DejaVuSans-63" x="532.121094"/>
     <use xlink:href="#DejaVuSans-65" x="587.101562"/>
     <use xlink:href="#DejaVuSans-69" x="648.625"/>
     <use xlink:href="#DejaVuSans-76" x="676.408203"/>
     <use xlink:href="#DejaVuSans-65" x="735.587891"/>
     <use xlink:href="#DejaVuSans-72" x="797.111328"/>
     <use xlink:href="#DejaVuSans-32" x="838.224609"/>
     <use xlink:href="#DejaVuSans-33" x="901.847656"/>
    </g>
   </g>
  </g>
 </g>
 <defs>
  <clipPath id="p5ee1eb1382">
   <rect x="180" y="69.12" width="1116" height="443.52"/>
  </clipPath>
 </defs>
</svg>
