<?xml version="1.0" encoding="utf-8" standalone="no"?>
<!DOCTYPE svg PUBLIC "-//W3C//DTD SVG 1.1//EN"
  "http://www.w3.org/Graphics/SVG/1.1/DTD/svg11.dtd">
<svg xmlns:xlink="http://www.w3.org/1999/xlink" width="1440pt" height="576pt" viewBox="0 0 1440 576" xmlns="http://www.w3.org/2000/svg" version="1.1">
 <metadata>
  <rdf:RDF xmlns:dc="http://purl.org/dc/elements/1.1/" xmlns:cc="http://creativecommons.org/ns#" xmlns:rdf="http://www.w3.org/1999/02/22-rdf-syntax-ns#">
   <cc:Work>
    <dc:type rdf:resource="http://purl.org/dc/dcmitype/StillImage"/>
    <dc:date>2024-05-22T04:49:44.719058</dc:date>
    <dc:format>image/svg+xml</dc:format>
    <dc:creator>
     <cc:Agent>
      <dc:title>Matplotlib v3.8.3, https://matplotlib.org/</dc:title>
     </cc:Agent>
    </dc:creator>
   </cc:Work>
  </rdf:RDF>
 </metadata>
 <defs>
  <style type="text/css">*{stroke-linejoin: round; stroke-linecap: butt}</style>
 </defs>
 <g id="figure_1">
  <g id="patch_1">
   <path d="M 0 576 
L 1440 576 
L 1440 0 
L 0 0 
z
" style="fill: #ffffff"/>
  </g>
  <g id="axes_1">
   <g id="patch_2">
    <path d="M 180 512.64 
L 1296 512.64 
L 1296 69.12 
L 180 69.12 
z
" style="fill: #ffffff"/>
   </g>
   <g id="matplotlib.axis_1">
    <g id="xtick_1">
     <g id="line2d_1">
      <defs>
       <path id="mce9b2b7cee" d="M 0 0 
L 0 3.5 
" style="stroke: #000000; stroke-width: 0.8"/>
      </defs>
      <g>
       <use xlink:href="#mce9b2b7cee" x="229.734567" y="512.64" style="stroke: #000000; stroke-width: 0.8"/>
      </g>
     </g>
     <g id="text_1">
      <!-- 0 -->
      <g transform="translate(226.553317 527.238438) scale(0.1 -0.1)">
       <defs>
        <path id="DejaVuSans-30" d="M 2034 4250 
Q 1547 4250 1301 3770 
Q 1056 3291 1056 2328 
Q 1056 1369 1301 889 
Q 1547 409 2034 409 
Q 2525 409 2770 889 
Q 3016 1369 3016 2328 
Q 3016 3291 2770 3770 
Q 2525 4250 2034 4250 
z
M 2034 4750 
Q 2819 4750 3233 4129 
Q 3647 3509 3647 2328 
Q 3647 1150 3233 529 
Q 2819 -91 2034 -91 
Q 1250 -91 836 529 
Q 422 1150 422 2328 
Q 422 3509 836 4129 
Q 1250 4750 2034 4750 
z
" transform="scale(0.015625)"/>
       </defs>
       <use xlink:href="#DejaVuSans-30"/>
      </g>
     </g>
    </g>
    <g id="xtick_2">
     <g id="line2d_2">
      <g>
       <use xlink:href="#mce9b2b7cee" x="433.04074" y="512.64" style="stroke: #000000; stroke-width: 0.8"/>
      </g>
     </g>
     <g id="text_2">
      <!-- 500 -->
      <g transform="translate(423.49699 527.238438) scale(0.1 -0.1)">
       <defs>
        <path id="DejaVuSans-35" d="M 691 4666 
L 3169 4666 
L 3169 4134 
L 1269 4134 
L 1269 2991 
Q 1406 3038 1543 3061 
Q 1681 3084 1819 3084 
Q 2600 3084 3056 2656 
Q 3513 2228 3513 1497 
Q 3513 744 3044 326 
Q 2575 -91 1722 -91 
Q 1428 -91 1123 -41 
Q 819 9 494 109 
L 494 744 
Q 775 591 1075 516 
Q 1375 441 1709 441 
Q 2250 441 2565 725 
Q 2881 1009 2881 1497 
Q 2881 1984 2565 2268 
Q 2250 2553 1709 2553 
Q 1456 2553 1204 2497 
Q 953 2441 691 2322 
L 691 4666 
z
" transform="scale(0.015625)"/>
       </defs>
       <use xlink:href="#DejaVuSans-35"/>
       <use xlink:href="#DejaVuSans-30" x="63.623047"/>
       <use xlink:href="#DejaVuSans-30" x="127.246094"/>
      </g>
     </g>
    </g>
    <g id="xtick_3">
     <g id="line2d_3">
      <g>
       <use xlink:href="#mce9b2b7cee" x="636.346913" y="512.64" style="stroke: #000000; stroke-width: 0.8"/>
      </g>
     </g>
     <g id="text_3">
      <!-- 1000 -->
      <g transform="translate(623.621913 527.238438) scale(0.1 -0.1)">
       <defs>
        <path id="DejaVuSans-31" d="M 794 531 
L 1825 531 
L 1825 4091 
L 703 3866 
L 703 4441 
L 1819 4666 
L 2450 4666 
L 2450 531 
L 3481 531 
L 3481 0 
L 794 0 
L 794 531 
z
" transform="scale(0.015625)"/>
       </defs>
       <use xlink:href="#DejaVuSans-31"/>
       <use xlink:href="#DejaVuSans-30" x="63.623047"/>
       <use xlink:href="#DejaVuSans-30" x="127.246094"/>
       <use xlink:href="#DejaVuSans-30" x="190.869141"/>
      </g>
     </g>
    </g>
    <g id="xtick_4">
     <g id="line2d_4">
      <g>
       <use xlink:href="#mce9b2b7cee" x="839.653087" y="512.64" style="stroke: #000000; stroke-width: 0.8"/>
      </g>
     </g>
     <g id="text_4">
      <!-- 1500 -->
      <g transform="translate(826.928087 527.238438) scale(0.1 -0.1)">
       <use xlink:href="#DejaVuSans-31"/>
       <use xlink:href="#DejaVuSans-35" x="63.623047"/>
       <use xlink:href="#DejaVuSans-30" x="127.246094"/>
       <use xlink:href="#DejaVuSans-30" x="190.869141"/>
      </g>
     </g>
    </g>
    <g id="xtick_5">
     <g id="line2d_5">
      <g>
       <use xlink:href="#mce9b2b7cee" x="1042.95926" y="512.64" style="stroke: #000000; stroke-width: 0.8"/>
      </g>
     </g>
     <g id="text_5">
      <!-- 2000 -->
      <g transform="translate(1030.23426 527.238438) scale(0.1 -0.1)">
       <defs>
        <path id="DejaVuSans-32" d="M 1228 531 
L 3431 531 
L 3431 0 
L 469 0 
L 469 531 
Q 828 903 1448 1529 
Q 2069 2156 2228 2338 
Q 2531 2678 2651 2914 
Q 2772 3150 2772 3378 
Q 2772 3750 2511 3984 
Q 2250 4219 1831 4219 
Q 1534 4219 1204 4116 
Q 875 4013 500 3803 
L 500 4441 
Q 881 4594 1212 4672 
Q 1544 4750 1819 4750 
Q 2544 4750 2975 4387 
Q 3406 4025 3406 3419 
Q 3406 3131 3298 2873 
Q 3191 2616 2906 2266 
Q 2828 2175 2409 1742 
Q 1991 1309 1228 531 
z
" transform="scale(0.015625)"/>
       </defs>
       <use xlink:href="#DejaVuSans-32"/>
       <use xlink:href="#DejaVuSans-30" x="63.623047"/>
       <use xlink:href="#DejaVuSans-30" x="127.246094"/>
       <use xlink:href="#DejaVuSans-30" x="190.869141"/>
      </g>
     </g>
    </g>
    <g id="xtick_6">
     <g id="line2d_6">
      <g>
       <use xlink:href="#mce9b2b7cee" x="1246.265433" y="512.64" style="stroke: #000000; stroke-width: 0.8"/>
      </g>
     </g>
     <g id="text_6">
      <!-- 2500 -->
      <g transform="translate(1233.540433 527.238438) scale(0.1 -0.1)">
       <use xlink:href="#DejaVuSans-32"/>
       <use xlink:href="#DejaVuSans-35" x="63.623047"/>
       <use xlink:href="#DejaVuSans-30" x="127.246094"/>
       <use xlink:href="#DejaVuSans-30" x="190.869141"/>
      </g>
     </g>
    </g>
   </g>
   <g id="matplotlib.axis_2">
    <g id="ytick_1">
     <g id="line2d_7">
      <defs>
       <path id="m6b7c6f1162" d="M 0 0 
L -3.5 0 
" style="stroke: #000000; stroke-width: 0.8"/>
      </defs>
      <g>
       <use xlink:href="#m6b7c6f1162" x="180" y="435.784849" style="stroke: #000000; stroke-width: 0.8"/>
      </g>
     </g>
     <g id="text_7">
      <!-- −4 -->
      <g transform="translate(158.257812 439.584067) scale(0.1 -0.1)">
       <defs>
        <path id="DejaVuSans-2212" d="M 678 2272 
L 4684 2272 
L 4684 1741 
L 678 1741 
L 678 2272 
z
" transform="scale(0.015625)"/>
        <path id="DejaVuSans-34" d="M 2419 4116 
L 825 1625 
L 2419 1625 
L 2419 4116 
z
M 2253 4666 
L 3047 4666 
L 3047 1625 
L 3713 1625 
L 3713 1100 
L 3047 1100 
L 3047 0 
L 2419 0 
L 2419 1100 
L 313 1100 
L 313 1709 
L 2253 4666 
z
" transform="scale(0.015625)"/>
       </defs>
       <use xlink:href="#DejaVuSans-2212"/>
       <use xlink:href="#DejaVuSans-34" x="83.789062"/>
      </g>
     </g>
    </g>
    <g id="ytick_2">
     <g id="line2d_8">
      <g>
       <use xlink:href="#m6b7c6f1162" x="180" y="351.02529" style="stroke: #000000; stroke-width: 0.8"/>
      </g>
     </g>
     <g id="text_8">
      <!-- −2 -->
      <g transform="translate(158.257812 354.824509) scale(0.1 -0.1)">
       <use xlink:href="#DejaVuSans-2212"/>
       <use xlink:href="#DejaVuSans-32" x="83.789062"/>
      </g>
     </g>
    </g>
    <g id="ytick_3">
     <g id="line2d_9">
      <g>
       <use xlink:href="#m6b7c6f1162" x="180" y="266.265732" style="stroke: #000000; stroke-width: 0.8"/>
      </g>
     </g>
     <g id="text_9">
      <!-- 0 -->
      <g transform="translate(166.6375 270.06495) scale(0.1 -0.1)">
       <use xlink:href="#DejaVuSans-30"/>
      </g>
     </g>
    </g>
    <g id="ytick_4">
     <g id="line2d_10">
      <g>
       <use xlink:href="#m6b7c6f1162" x="180" y="181.506173" style="stroke: #000000; stroke-width: 0.8"/>
      </g>
     </g>
     <g id="text_10">
      <!-- 2 -->
      <g transform="translate(166.6375 185.305392) scale(0.1 -0.1)">
       <use xlink:href="#DejaVuSans-32"/>
      </g>
     </g>
    </g>
    <g id="ytick_5">
     <g id="line2d_11">
      <g>
       <use xlink:href="#m6b7c6f1162" x="180" y="96.746614" style="stroke: #000000; stroke-width: 0.8"/>
      </g>
     </g>
     <g id="text_11">
      <!-- 4 -->
      <g transform="translate(166.6375 100.545833) scale(0.1 -0.1)">
       <use xlink:href="#DejaVuSans-34"/>
      </g>
     </g>
    </g>
   </g>
   <g id="line2d_12">
    <path d="M 230.727273 201.286757 
L 232.712685 200.40835 
L 235.690802 197.831396 
L 238.66892 195.065461 
L 241.647038 192.664383 
L 242.639744 192.038473 
L 243.63245 191.757374 
L 244.625156 192.100504 
L 246.610568 194.463648 
L 247.603273 191.268513 
L 248.595979 179.271226 
L 249.588685 163.617118 
L 250.581391 150.843416 
L 251.574097 142.534423 
L 252.566803 137.754258 
L 253.559509 135.174524 
L 254.552215 133.805699 
L 255.544921 133.086795 
L 256.537627 132.730982 
L 260.50845 131.897757 
L 261.501156 131.472169 
L 262.493862 130.880229 
L 263.486568 130.137534 
L 265.47198 128.243935 
L 270.43551 122.953807 
L 271.428216 122.181411 
L 272.420922 121.616424 
L 273.413627 121.307423 
L 274.406333 121.311109 
L 275.399039 121.711439 
L 276.391745 122.600727 
L 277.384451 124.10504 
L 278.377157 126.167051 
L 279.369863 127.75046 
L 280.362569 127.218086 
L 281.355275 124.422704 
L 282.347981 120.290154 
L 284.333393 109.978245 
L 286.318804 99.480588 
L 287.31151 95.210977 
L 288.304216 92.03123 
L 289.296922 90.066213 
L 290.289628 89.28 
L 291.282334 89.530034 
L 292.27504 90.615668 
L 293.267746 92.351714 
L 294.260452 94.59103 
L 296.245864 100.099293 
L 298.231276 106.597378 
L 300.216687 113.839566 
L 307.165629 140.171786 
L 308.158335 143.093165 
L 309.151041 145.577235 
L 310.143747 147.630763 
L 311.136453 149.331121 
L 316.099982 156.782698 
L 317.092688 158.825687 
L 318.085394 161.267226 
L 319.0781 164.16603 
L 320.070806 167.497439 
L 322.056218 175.491951 
L 324.04163 183.969145 
L 325.034336 187.180711 
L 326.027041 188.666756 
L 327.019747 188.034477 
L 328.012453 185.420422 
L 329.005159 181.633788 
L 331.983277 169.317857 
L 332.975983 165.875145 
L 333.968689 162.971049 
L 334.961395 160.560633 
L 335.954101 158.640989 
L 336.946807 157.151826 
L 337.939513 156.097117 
L 338.932218 155.441508 
L 339.924924 155.153181 
L 340.91763 155.204343 
L 341.910336 155.569711 
L 342.903042 156.210289 
L 343.895748 157.115972 
L 345.88116 159.40457 
L 347.866572 161.912106 
L 348.859278 162.99775 
L 349.851984 163.863454 
L 350.84469 164.480762 
L 351.837395 164.686565 
L 352.830101 164.744136 
L 353.822807 164.421648 
L 355.808219 163.005518 
L 357.793631 161.495164 
L 358.786337 160.866948 
L 359.779043 160.410445 
L 360.771749 160.183496 
L 361.764455 160.209143 
L 362.757161 160.538262 
L 363.749867 161.201044 
L 364.742572 162.225845 
L 365.735278 163.60823 
L 366.727984 165.396194 
L 367.72069 167.641696 
L 368.713396 170.350028 
L 369.706102 173.599669 
L 370.698808 177.421614 
L 371.691514 181.915994 
L 372.68422 187.158266 
L 373.676926 193.270052 
L 375.662338 207.919568 
L 376.655044 215.7874 
L 377.64775 222.042212 
L 378.640455 224.218809 
L 379.633161 221.315402 
L 381.618573 208.763883 
L 382.611279 202.641587 
L 383.603985 197.302672 
L 384.596691 192.858988 
L 385.589397 189.136717 
L 386.582103 186.087513 
L 387.574809 183.678426 
L 388.567515 181.733376 
L 389.560221 180.255984 
L 390.552927 179.187498 
L 391.545632 178.467168 
L 392.538338 178.020483 
L 393.531044 177.834404 
L 394.52375 177.836866 
L 395.516456 178.007581 
L 397.501868 178.650761 
L 402.465398 180.584784 
L 406.436221 181.84183 
L 408.421633 182.741556 
L 409.414339 183.312516 
L 410.407045 184.013253 
L 412.392457 185.951247 
L 413.385163 187.199067 
L 414.377869 188.646502 
L 415.370575 190.300034 
L 417.355986 194.337373 
L 419.341398 199.357113 
L 421.32681 205.312346 
L 423.312222 212.087919 
L 428.275752 229.88837 
L 429.268458 232.729792 
L 430.261163 234.950587 
L 431.253869 236.42008 
L 432.246575 237.04588 
L 433.239281 236.863904 
L 434.231987 235.93522 
L 435.224693 234.267719 
L 436.217399 232.134356 
L 438.202811 226.875713 
L 444.159046 210.058433 
L 446.144458 205.491145 
L 448.12987 201.839048 
L 449.122576 200.352992 
L 450.115282 199.094523 
L 451.107988 198.037125 
L 452.100694 197.279263 
L 453.0934 196.733295 
L 454.086106 196.419681 
L 455.078812 196.373609 
L 456.071518 196.507803 
L 457.064223 196.919516 
L 458.056929 197.572605 
L 459.049635 198.443619 
L 460.042341 199.56134 
L 461.035047 200.879982 
L 462.027753 202.414931 
L 464.013165 206.271728 
L 465.998577 211.161161 
L 466.991283 213.900261 
L 468.976695 220.495863 
L 470.962106 228.799998 
L 471.954812 233.606603 
L 472.947518 239.017313 
L 474.93293 252.87349 
L 475.925636 261.698395 
L 476.918342 272.12363 
L 477.911048 285.687302 
L 478.903754 297.136022 
L 479.89646 298.040839 
L 480.889166 286.689575 
L 481.881872 273.668106 
L 482.874577 262.680239 
L 483.867283 253.450029 
L 484.859989 245.875002 
L 485.852695 239.574704 
L 486.845401 234.286328 
L 487.838107 229.824771 
L 488.830813 225.986621 
L 489.823519 222.765449 
L 490.816225 220.087066 
L 491.808931 217.743461 
L 492.801637 215.966175 
L 493.794343 214.527755 
L 494.787049 213.581657 
L 495.779754 212.89481 
L 496.77246 212.637163 
L 497.765166 212.684896 
L 498.757872 213.20797 
L 499.750578 213.991101 
L 500.743284 215.136634 
L 501.73599 216.71373 
L 502.728696 218.727669 
L 503.721402 221.014305 
L 504.714108 223.797828 
L 505.706814 226.984125 
L 506.69952 230.585632 
L 508.684932 239.054621 
L 511.663049 253.530056 
L 512.655755 257.647418 
L 513.648461 260.175541 
L 514.641167 261.249824 
L 515.633873 260.461648 
L 516.626579 258.34363 
L 520.597403 247.476986 
L 521.590109 245.223223 
L 522.582814 243.483777 
L 523.57552 241.997861 
L 524.568226 240.842379 
L 526.553638 239.108082 
L 527.546344 238.599943 
L 530.524462 237.619315 
L 533.50258 237.298963 
L 534.495286 237.280243 
L 536.480697 237.601625 
L 537.473403 238.161374 
L 538.466109 238.869456 
L 539.458815 239.793326 
L 540.451521 241.149762 
L 541.444227 242.93911 
L 542.436933 245.257282 
L 543.429639 248.158298 
L 544.422345 251.726092 
L 545.415051 256.210559 
L 546.407757 261.823582 
L 547.400463 268.801024 
L 548.393168 277.498527 
L 550.37858 298.329311 
L 551.371286 301.667077 
L 552.363992 293.719146 
L 554.349404 269.758208 
L 555.34211 260.164851 
L 556.334816 252.363972 
L 557.327522 245.742947 
L 558.320228 240.172555 
L 559.312934 235.446102 
L 560.30564 231.486923 
L 561.298345 228.15305 
L 562.291051 225.361176 
L 563.283757 223.038861 
L 564.276463 221.181862 
L 565.269169 219.759737 
L 566.261875 218.708702 
L 567.254581 218.085467 
L 568.247287 217.765525 
L 569.239993 217.810192 
L 570.232699 218.226148 
L 571.225405 218.980378 
L 572.218111 219.978067 
L 573.210817 221.340896 
L 574.203523 223.050251 
L 575.196228 225.09529 
L 576.188934 227.561641 
L 577.18164 230.363227 
L 578.174346 233.507899 
L 579.167052 237.043266 
L 580.159758 241.019824 
L 582.14517 250.358866 
L 584.130582 261.705392 
L 586.115994 275.85944 
L 588.101405 293.082091 
L 591.079523 322.486362 
L 592.072229 329.431614 
L 593.064935 328.654052 
L 594.057641 323.331102 
L 597.035759 301.730891 
L 598.028465 295.082652 
L 600.013877 283.651065 
L 601.999288 274.040108 
L 603.9847 265.704784 
L 604.977406 262.213765 
L 606.962818 256.363925 
L 608.94823 251.855738 
L 609.940936 250.135427 
L 610.933642 248.858509 
L 611.926348 247.839736 
L 612.919054 247.142235 
L 613.911759 246.810931 
L 614.904465 246.737833 
L 615.897171 246.996623 
L 616.889877 247.56859 
L 617.882583 248.535401 
L 618.875289 249.80925 
L 620.860701 253.46648 
L 621.853407 255.872657 
L 622.846113 258.625542 
L 623.838819 261.762787 
L 625.824231 269.445251 
L 627.809642 278.846147 
L 628.802348 284.556089 
L 630.78776 298.053617 
L 632.773172 315.68208 
L 633.765878 325.8215 
L 636.743996 361.388682 
L 637.736702 366.139193 
L 638.729408 364.349537 
L 640.714819 350.289811 
L 642.700231 339.436644 
L 646.671055 322.215228 
L 650.641879 307.54599 
L 651.634585 304.56693 
L 653.619996 299.611446 
L 654.612702 297.70126 
L 655.605408 296.233583 
L 656.598114 295.081088 
L 657.59082 294.214039 
L 658.583526 294.141149 
L 659.576232 293.835656 
L 660.568938 294.388404 
L 661.561644 295.526269 
L 662.55435 296.484461 
L 663.547056 297.985887 
L 665.532468 302.09102 
L 667.517879 307.079245 
L 669.503291 312.191824 
L 670.495997 313.993641 
L 671.488703 314.772819 
L 672.481409 314.97819 
L 673.474115 314.540842 
L 674.466821 313.38471 
L 677.444939 307.964118 
L 679.43035 304.975747 
L 680.423056 303.694704 
L 681.415762 302.863117 
L 682.408468 302.450511 
L 684.39388 302.4895 
L 686.379292 304.268991 
L 687.371998 305.976709 
L 688.364704 308.104342 
L 690.350116 313.229401 
L 692.335527 320.745123 
L 694.320939 330.988367 
L 695.313645 336.885635 
L 698.291763 357.246197 
L 699.284469 362.41102 
L 700.277175 363.507395 
L 701.269881 360.846399 
L 704.247999 344.379649 
L 705.240705 339.762968 
L 707.226116 332.74982 
L 708.218822 329.937291 
L 709.211528 327.892707 
L 710.204234 326.522137 
L 711.19694 325.427654 
L 712.189646 324.993531 
L 713.182352 324.850564 
L 714.175058 325.189777 
L 715.167764 326.126955 
L 716.16047 327.586337 
L 717.153176 329.389544 
L 718.145882 331.909878 
L 720.131293 338.051939 
L 721.123999 342.001063 
L 723.109411 350.465008 
L 724.102117 353.761259 
L 725.094823 354.818203 
L 726.087529 353.129625 
L 727.080235 349.165176 
L 731.051059 328.069525 
L 732.043764 323.716143 
L 734.029176 316.419709 
L 736.014588 311.599397 
L 737.007294 309.878693 
L 738 308.518047 
L 738.992706 307.852928 
L 739.985412 307.373638 
L 740.978118 307.575671 
L 741.970824 308.013767 
L 742.96353 309.254454 
L 743.956236 310.749458 
L 744.948941 313.12805 
L 745.941647 315.829642 
L 746.934353 319.539819 
L 747.927059 323.99555 
L 748.919765 329.001961 
L 749.912471 335.259202 
L 751.897883 350.725997 
L 752.890589 358.508077 
L 753.883295 362.685777 
L 754.876001 360.849168 
L 755.868707 353.972509 
L 757.854118 338.071259 
L 759.83953 326.141539 
L 760.832236 321.76619 
L 761.824942 317.920841 
L 762.817648 315.135412 
L 763.810354 312.741532 
L 764.80306 311.104006 
L 765.795766 309.879811 
L 766.788472 309.250214 
L 767.781178 309.063073 
L 768.773884 309.480182 
L 769.76659 310.209879 
L 770.759295 311.485931 
L 771.752001 313.04641 
L 772.744707 315.137783 
L 774.730119 320.425861 
L 777.708237 329.919347 
L 779.693649 335.33809 
L 780.686355 336.627717 
L 781.679061 336.874289 
L 782.671767 336.57278 
L 783.664473 335.326553 
L 784.657178 333.830347 
L 785.649884 332.090919 
L 787.635296 329.291242 
L 789.620708 328.311218 
L 790.613414 328.59453 
L 791.60612 329.165943 
L 792.598826 330.435564 
L 793.591532 332.153021 
L 794.584238 334.679909 
L 795.576944 337.701971 
L 797.562355 345.389494 
L 798.555061 349.652329 
L 799.547767 352.909579 
L 800.540473 354.794952 
L 801.533179 353.445263 
L 802.525885 350.316245 
L 803.518591 345.900559 
L 806.496709 331.380844 
L 807.489415 327.266807 
L 808.482121 323.647919 
L 809.474827 320.651371 
L 810.467532 318.127492 
L 811.460238 316.171811 
L 812.452944 314.832523 
L 813.44565 313.778689 
L 814.438356 313.391729 
L 815.431062 313.42989 
L 816.423768 313.841713 
L 817.416474 314.897084 
L 818.40918 316.457028 
L 819.401886 318.345427 
L 820.394592 320.890719 
L 821.387298 324.249254 
L 822.380004 328.38015 
L 823.372709 333.064026 
L 824.365415 338.572666 
L 826.350827 351.788665 
L 827.343533 359.357555 
L 828.336239 364.603399 
L 829.328945 366.290678 
L 830.321651 363.214079 
L 831.314357 357.022328 
L 832.307063 349.743951 
L 833.299769 343.34815 
L 834.292475 337.795656 
L 836.277886 329.529933 
L 837.270592 326.216043 
L 838.263298 323.73146 
L 839.256004 321.582164 
L 840.24871 320.254169 
L 841.241416 319.352641 
L 843.226828 318.587185 
L 844.219534 319.180349 
L 845.21224 319.925262 
L 846.204946 321.175175 
L 847.197652 322.692536 
L 848.190358 324.804204 
L 849.183064 327.386192 
L 851.168475 333.679242 
L 852.161181 337.188634 
L 857.124711 358.459785 
L 858.117417 361.737065 
L 859.110123 363.588287 
L 861.095535 362.216984 
L 862.088241 360.304086 
L 864.073652 355.676112 
L 865.066358 353.59699 
L 869.037182 347.319049 
L 870.029888 346.368495 
L 871.022594 345.24781 
L 875.986123 340.928259 
L 876.978829 339.653887 
L 877.971535 338.802743 
L 878.964241 337.231218 
L 880.949653 335.382187 
L 881.942359 334.367159 
L 883.927771 333.439562 
L 884.920477 333.324946 
L 885.913183 333.494148 
L 887.898595 334.873508 
L 888.8913 336.197193 
L 889.884006 337.724031 
L 890.876712 340.417233 
L 891.869418 343.702212 
L 892.862124 347.758934 
L 893.85483 352.725924 
L 894.847536 359.175338 
L 895.840242 366.865115 
L 896.832948 377.791924 
L 897.825654 391.266389 
L 898.81836 408.528358 
L 899.811066 417.774729 
L 900.803772 403.560008 
L 901.796477 384.546308 
L 902.789183 371.541801 
L 903.781889 361.364523 
L 904.774595 352.822367 
L 905.767301 346.035859 
L 906.760007 340.550602 
L 907.752713 335.882871 
L 908.745419 332.230499 
L 909.738125 329.400292 
L 911.723537 325.206859 
L 912.716243 323.55463 
L 913.708949 322.891407 
L 914.701655 322.52705 
L 915.69436 322.518434 
L 916.687066 323.061177 
L 917.679772 323.973013 
L 918.672478 325.547998 
L 919.665184 327.587852 
L 920.65789 330.308847 
L 921.650596 333.709683 
L 922.643302 337.591842 
L 923.636008 342.646613 
L 924.628714 348.898528 
L 925.62142 356.525246 
L 926.614126 366.335447 
L 927.606832 380.466506 
L 928.599537 399.906974 
L 929.592243 436.510625 
L 930.584949 443.907169 
L 931.577655 404.339203 
L 932.570361 383.659718 
L 933.563067 369.795322 
L 934.555773 360.256864 
L 935.548479 353.04349 
L 936.541185 346.891752 
L 937.533891 342.515328 
L 938.526597 338.754938 
L 939.519303 336.085903 
L 941.504714 332.53097 
L 942.49742 331.675545 
L 943.490126 331.1698 
L 944.482832 331.463772 
L 946.468244 332.802263 
L 947.46095 334.369014 
L 948.453656 336.576438 
L 949.446362 339.277614 
L 950.439068 342.390311 
L 951.431774 346.242895 
L 952.42448 351.048513 
L 953.417186 357.092662 
L 954.409891 363.840733 
L 955.402597 371.540001 
L 956.395303 381.743393 
L 958.380715 406.663284 
L 959.373421 417.507609 
L 960.366127 413.587902 
L 962.351539 390.847607 
L 963.344245 382.052197 
L 964.336951 374.909255 
L 965.329657 369.439949 
L 966.322363 364.821576 
L 968.307774 359.695453 
L 970.293186 356.565597 
L 971.285892 355.928467 
L 972.278598 355.548746 
L 973.271304 355.688334 
L 974.26401 355.95632 
L 975.256716 356.909372 
L 976.249422 357.482835 
L 978.234834 359.435146 
L 980.220246 360.49632 
L 981.212951 361.514566 
L 985.183775 361.813525 
L 986.176481 361.471225 
L 987.169187 361.254068 
L 988.161893 361.675757 
L 989.154599 361.720073 
L 990.147305 362.884175 
L 991.140011 363.692837 
L 992.132717 364.912202 
L 993.125423 366.632901 
L 995.110834 372.297107 
L 997.096246 381.846523 
L 999.081658 395.636662 
L 1000.074364 403.923557 
L 1001.06707 413.790824 
L 1002.059776 419.199389 
L 1003.052482 416.506374 
L 1004.045188 408.303944 
L 1006.0306 389.002703 
L 1007.023305 381.367052 
L 1008.016011 374.94664 
L 1009.008717 369.725453 
L 1010.994129 361.878736 
L 1011.986835 358.704331 
L 1012.979541 356.482835 
L 1013.972247 354.855722 
L 1014.964953 353.603895 
L 1015.957659 352.695849 
L 1016.950365 352.523499 
L 1017.943071 352.559214 
L 1018.935777 353.450767 
L 1019.928482 354.551979 
L 1020.921188 356.205295 
L 1021.913894 358.331469 
L 1022.9066 360.805149 
L 1024.892012 369.125619 
L 1025.884718 374.270618 
L 1026.877424 380.560317 
L 1027.87013 389.188229 
L 1028.862836 400.208102 
L 1029.855542 414.406729 
L 1030.848248 434.539486 
L 1031.840954 472.14661 
L 1032.833659 475.377875 
L 1033.826365 435.98586 
L 1034.819071 415.755641 
L 1035.811777 403.685383 
L 1036.804483 393.552156 
L 1037.797189 386.041329 
L 1039.782601 376.950017 
L 1041.768013 371.061228 
L 1042.760719 369.014696 
L 1044.746131 367.879973 
L 1045.738837 367.343958 
L 1046.731542 367.676964 
L 1047.724248 368.730018 
L 1050.702366 373.332287 
L 1053.680484 381.710473 
L 1054.67319 384.942265 
L 1055.665896 387.616937 
L 1056.658602 391.112087 
L 1057.651308 393.813474 
L 1058.644014 395.568951 
L 1059.636719 396.282477 
L 1060.629425 397.811698 
L 1061.622131 398.106496 
L 1062.614837 399.543951 
L 1063.607543 399.884903 
L 1064.600249 400.787102 
L 1065.592955 400.993858 
L 1066.585661 401.944917 
L 1067.578367 403.602651 
L 1068.571073 406.179858 
L 1070.556485 414.78072 
L 1072.541896 426.697642 
L 1074.527308 434.093453 
L 1075.520014 430.503559 
L 1076.51272 424.652658 
L 1077.505426 415.103452 
L 1079.490838 401.241208 
L 1080.483544 393.536591 
L 1082.468956 383.057519 
L 1083.461662 380.305227 
L 1085.447073 373.35973 
L 1086.439779 371.372515 
L 1088.425191 368.288524 
L 1089.417897 367.61029 
L 1091.403309 367.312912 
L 1092.396015 368.097845 
L 1093.388721 368.707934 
L 1094.381427 370.029609 
L 1095.374133 372.120744 
L 1096.366839 374.477327 
L 1098.35225 381.005176 
L 1102.323074 401.697025 
L 1103.31578 405.761075 
L 1104.308486 407.839047 
L 1105.301192 406.547066 
L 1106.293898 402.835055 
L 1107.286604 398.042899 
L 1109.272016 386.489566 
L 1111.257428 378.771101 
L 1112.250133 374.442782 
L 1113.242839 372.093654 
L 1114.235545 370.078628 
L 1115.228251 367.771934 
L 1117.213663 365.612472 
L 1118.206369 365.104017 
L 1120.191781 364.991496 
L 1121.184487 365.715594 
L 1122.177193 367.440531 
L 1123.169899 368.794304 
L 1124.162605 370.583653 
L 1125.15531 372.803689 
L 1127.140722 379.634563 
L 1128.133428 383.217829 
L 1129.126134 387.297689 
L 1130.11884 393.20012 
L 1131.111546 398.166462 
L 1132.104252 403.877372 
L 1133.096958 408.567931 
L 1134.089664 412.57633 
L 1135.08237 414.411473 
L 1136.075076 415.02784 
L 1137.067782 412.577853 
L 1138.060487 409.724065 
L 1139.053193 405.425936 
L 1140.045899 401.641018 
L 1142.031311 395.263053 
L 1143.024017 393.556666 
L 1144.016723 391.385292 
L 1146.002135 388.833398 
L 1146.994841 388.984873 
L 1148.980253 390.201319 
L 1149.972959 390.442185 
L 1151.95837 393.488103 
L 1152.951076 395.736294 
L 1153.943782 397.535091 
L 1154.936488 400.033634 
L 1155.929194 403.635563 
L 1156.9219 406.488065 
L 1157.914606 408.596198 
L 1158.907312 412.262927 
L 1159.900018 415.432891 
L 1160.892724 417.548396 
L 1161.88543 420.724078 
L 1162.878136 426.041047 
L 1163.870841 428.02256 
L 1164.863547 432.503901 
L 1165.856253 435.534048 
L 1166.848959 439.271143 
L 1167.841665 443.754458 
L 1168.834371 451.554449 
L 1169.827077 456.041419 
L 1170.819783 463.005532 
L 1171.812489 467.790371 
L 1172.805195 467.933406 
L 1173.797901 470.71312 
L 1174.790607 464.471617 
L 1175.783313 451.609838 
L 1177.768724 437.547048 
L 1178.76143 429.117376 
L 1179.754136 421.937497 
L 1181.739548 411.65646 
L 1182.732254 406.808765 
L 1183.72496 402.676873 
L 1184.717666 400.247971 
L 1185.710372 396.87311 
L 1186.703078 395.666108 
L 1187.695784 393.276145 
L 1188.68849 391.823481 
L 1189.681196 392.693567 
L 1190.673901 391.175053 
L 1192.659313 390.751318 
L 1193.652019 390.273175 
L 1194.644725 392.641816 
L 1195.637431 392.336331 
L 1196.630137 393.873777 
L 1197.622843 394.301557 
L 1198.615549 396.656841 
L 1199.608255 398.431473 
L 1200.600961 401.072544 
L 1201.593667 401.597493 
L 1202.586373 403.84765 
L 1203.579078 406.975087 
L 1204.571784 408.294967 
L 1205.56449 408.500887 
L 1206.557196 409.195005 
L 1207.549902 408.907973 
L 1208.542608 407.421268 
L 1209.535314 407.388041 
L 1210.52802 406.399893 
L 1211.520726 405.086844 
L 1212.513432 404.435841 
L 1213.506138 403.46855 
L 1214.498844 401.028081 
L 1215.49155 398.182346 
L 1216.484255 398.336749 
L 1217.476961 398.356147 
L 1218.469667 397.905821 
L 1219.462373 398.453194 
L 1220.455079 400.088135 
L 1221.447785 399.933528 
L 1222.440491 400.731923 
L 1223.433197 402.723296 
L 1224.425903 404.017976 
L 1225.418609 405.644094 
L 1226.411315 407.613283 
L 1228.396727 414.507098 
L 1229.389432 420.676657 
L 1230.382138 421.936235 
L 1231.374844 427.07963 
L 1232.36755 435.244346 
L 1234.352962 448.514463 
L 1235.345668 460.01322 
L 1236.338374 467.770679 
L 1237.33108 480.914799 
L 1239.316492 489.766207 
L 1240.309198 492.48 
L 1241.301904 485.900362 
L 1242.29461 482.910784 
L 1243.287315 474.073779 
L 1244.280021 469.252452 
L 1245.272727 470.453738 
L 1245.272727 470.453738 
" clip-path="url(#pc38860cd3a)" style="fill: none; stroke: #1f77b4; stroke-width: 1.5; stroke-linecap: square"/>
   </g>
   <g id="patch_3">
    <path d="M 180 512.64 
L 180 69.12 
" style="fill: none; stroke: #000000; stroke-width: 0.8; stroke-linejoin: miter; stroke-linecap: square"/>
   </g>
   <g id="patch_4">
    <path d="M 1296 512.64 
L 1296 69.12 
" style="fill: none; stroke: #000000; stroke-width: 0.8; stroke-linejoin: miter; stroke-linecap: square"/>
   </g>
   <g id="patch_5">
    <path d="M 180 512.64 
L 1296 512.64 
" style="fill: none; stroke: #000000; stroke-width: 0.8; stroke-linejoin: miter; stroke-linecap: square"/>
   </g>
   <g id="patch_6">
    <path d="M 180 69.12 
L 1296 69.12 
" style="fill: none; stroke: #000000; stroke-width: 0.8; stroke-linejoin: miter; stroke-linecap: square"/>
   </g>
   <g id="text_12">
    <!-- source4-receiver4 -->
    <g transform="translate(557.625 60.80125) scale(0.4 -0.4)">
     <defs>
      <path id="DejaVuSans-73" d="M 2834 3397 
L 2834 2853 
Q 2591 2978 2328 3040 
Q 2066 3103 1784 3103 
Q 1356 3103 1142 2972 
Q 928 2841 928 2578 
Q 928 2378 1081 2264 
Q 1234 2150 1697 2047 
L 1894 2003 
Q 2506 1872 2764 1633 
Q 3022 1394 3022 966 
Q 3022 478 2636 193 
Q 2250 -91 1575 -91 
Q 1294 -91 989 -36 
Q 684 19 347 128 
L 347 722 
Q 666 556 975 473 
Q 1284 391 1588 391 
Q 1994 391 2212 530 
Q 2431 669 2431 922 
Q 2431 1156 2273 1281 
Q 2116 1406 1581 1522 
L 1381 1569 
Q 847 1681 609 1914 
Q 372 2147 372 2553 
Q 372 3047 722 3315 
Q 1072 3584 1716 3584 
Q 2034 3584 2315 3537 
Q 2597 3491 2834 3397 
z
" transform="scale(0.015625)"/>
      <path id="DejaVuSans-6f" d="M 1959 3097 
Q 1497 3097 1228 2736 
Q 959 2375 959 1747 
Q 959 1119 1226 758 
Q 1494 397 1959 397 
Q 2419 397 2687 759 
Q 2956 1122 2956 1747 
Q 2956 2369 2687 2733 
Q 2419 3097 1959 3097 
z
M 1959 3584 
Q 2709 3584 3137 3096 
Q 3566 2609 3566 1747 
Q 3566 888 3137 398 
Q 2709 -91 1959 -91 
Q 1206 -91 779 398 
Q 353 888 353 1747 
Q 353 2609 779 3096 
Q 1206 3584 1959 3584 
z
" transform="scale(0.015625)"/>
      <path id="DejaVuSans-75" d="M 544 1381 
L 544 3500 
L 1119 3500 
L 1119 1403 
Q 1119 906 1312 657 
Q 1506 409 1894 409 
Q 2359 409 2629 706 
Q 2900 1003 2900 1516 
L 2900 3500 
L 3475 3500 
L 3475 0 
L 2900 0 
L 2900 538 
Q 2691 219 2414 64 
Q 2138 -91 1772 -91 
Q 1169 -91 856 284 
Q 544 659 544 1381 
z
M 1991 3584 
L 1991 3584 
z
" transform="scale(0.015625)"/>
      <path id="DejaVuSans-72" d="M 2631 2963 
Q 2534 3019 2420 3045 
Q 2306 3072 2169 3072 
Q 1681 3072 1420 2755 
Q 1159 2438 1159 1844 
L 1159 0 
L 581 0 
L 581 3500 
L 1159 3500 
L 1159 2956 
Q 1341 3275 1631 3429 
Q 1922 3584 2338 3584 
Q 2397 3584 2469 3576 
Q 2541 3569 2628 3553 
L 2631 2963 
z
" transform="scale(0.015625)"/>
      <path id="DejaVuSans-63" d="M 3122 3366 
L 3122 2828 
Q 2878 2963 2633 3030 
Q 2388 3097 2138 3097 
Q 1578 3097 1268 2742 
Q 959 2388 959 1747 
Q 959 1106 1268 751 
Q 1578 397 2138 397 
Q 2388 397 2633 464 
Q 2878 531 3122 666 
L 3122 134 
Q 2881 22 2623 -34 
Q 2366 -91 2075 -91 
Q 1284 -91 818 406 
Q 353 903 353 1747 
Q 353 2603 823 3093 
Q 1294 3584 2113 3584 
Q 2378 3584 2631 3529 
Q 2884 3475 3122 3366 
z
" transform="scale(0.015625)"/>
      <path id="DejaVuSans-65" d="M 3597 1894 
L 3597 1613 
L 953 1613 
Q 991 1019 1311 708 
Q 1631 397 2203 397 
Q 2534 397 2845 478 
Q 3156 559 3463 722 
L 3463 178 
Q 3153 47 2828 -22 
Q 2503 -91 2169 -91 
Q 1331 -91 842 396 
Q 353 884 353 1716 
Q 353 2575 817 3079 
Q 1281 3584 2069 3584 
Q 2775 3584 3186 3129 
Q 3597 2675 3597 1894 
z
M 3022 2063 
Q 3016 2534 2758 2815 
Q 2500 3097 2075 3097 
Q 1594 3097 1305 2825 
Q 1016 2553 972 2059 
L 3022 2063 
z
" transform="scale(0.015625)"/>
      <path id="DejaVuSans-2d" d="M 313 2009 
L 1997 2009 
L 1997 1497 
L 313 1497 
L 313 2009 
z
" transform="scale(0.015625)"/>
      <path id="DejaVuSans-69" d="M 603 3500 
L 1178 3500 
L 1178 0 
L 603 0 
L 603 3500 
z
M 603 4863 
L 1178 4863 
L 1178 4134 
L 603 4134 
L 603 4863 
z
" transform="scale(0.015625)"/>
      <path id="DejaVuSans-76" d="M 191 3500 
L 800 3500 
L 1894 563 
L 2988 3500 
L 3597 3500 
L 2284 0 
L 1503 0 
L 191 3500 
z
" transform="scale(0.015625)"/>
     </defs>
     <use xlink:href="#DejaVuSans-73"/>
     <use xlink:href="#DejaVuSans-6f" x="52.099609"/>
     <use xlink:href="#DejaVuSans-75" x="113.28125"/>
     <use xlink:href="#DejaVuSans-72" x="176.660156"/>
     <use xlink:href="#DejaVuSans-63" x="215.523438"/>
     <use xlink:href="#DejaVuSans-65" x="270.503906"/>
     <use xlink:href="#DejaVuSans-34" x="332.027344"/>
     <use xlink:href="#DejaVuSans-2d" x="395.650391"/>
     <use xlink:href="#DejaVuSans-72" x="431.734375"/>
     <use xlink:href="#DejaVuSans-65" x="470.597656"/>
     <use xlink:href="#DejaVuSans-63" x="532.121094"/>
     <use xlink:href="#DejaVuSans-65" x="587.101562"/>
     <use xlink:href="#DejaVuSans-69" x="648.625"/>
     <use xlink:href="#DejaVuSans-76" x="676.408203"/>
     <use xlink:href="#DejaVuSans-65" x="735.587891"/>
     <use xlink:href="#DejaVuSans-72" x="797.111328"/>
     <use xlink:href="#DejaVuSans-34" x="838.224609"/>
    </g>
   </g>
  </g>
 </g>
 <defs>
  <clipPath id="pc38860cd3a">
   <rect x="180" y="69.12" width="1116" height="443.52"/>
  </clipPath>
 </defs>
</svg>
