<?xml version="1.0" encoding="utf-8" standalone="no"?>
<!DOCTYPE svg PUBLIC "-//W3C//DTD SVG 1.1//EN"
  "http://www.w3.org/Graphics/SVG/1.1/DTD/svg11.dtd">
<svg xmlns:xlink="http://www.w3.org/1999/xlink" width="1440pt" height="576pt" viewBox="0 0 1440 576" xmlns="http://www.w3.org/2000/svg" version="1.1">
 <metadata>
  <rdf:RDF xmlns:dc="http://purl.org/dc/elements/1.1/" xmlns:cc="http://creativecommons.org/ns#" xmlns:rdf="http://www.w3.org/1999/02/22-rdf-syntax-ns#">
   <cc:Work>
    <dc:type rdf:resource="http://purl.org/dc/dcmitype/StillImage"/>
    <dc:date>2024-05-22T04:50:06.627326</dc:date>
    <dc:format>image/svg+xml</dc:format>
    <dc:creator>
     <cc:Agent>
      <dc:title>Matplotlib v3.8.3, https://matplotlib.org/</dc:title>
     </cc:Agent>
    </dc:creator>
   </cc:Work>
  </rdf:RDF>
 </metadata>
 <defs>
  <style type="text/css">*{stroke-linejoin: round; stroke-linecap: butt}</style>
 </defs>
 <g id="figure_1">
  <g id="patch_1">
   <path d="M 0 576 
L 1440 576 
L 1440 0 
L 0 0 
z
" style="fill: #ffffff"/>
  </g>
  <g id="axes_1">
   <g id="patch_2">
    <path d="M 180 512.64 
L 1296 512.64 
L 1296 69.12 
L 180 69.12 
z
" style="fill: #ffffff"/>
   </g>
   <g id="matplotlib.axis_1">
    <g id="xtick_1">
     <g id="line2d_1">
      <defs>
       <path id="m3780968de0" d="M 0 0 
L 0 3.5 
" style="stroke: #000000; stroke-width: 0.8"/>
      </defs>
      <g>
       <use xlink:href="#m3780968de0" x="229.734567" y="512.64" style="stroke: #000000; stroke-width: 0.8"/>
      </g>
     </g>
     <g id="text_1">
      <!-- 0 -->
      <g transform="translate(226.553317 527.238438) scale(0.1 -0.1)">
       <defs>
        <path id="DejaVuSans-30" d="M 2034 4250 
Q 1547 4250 1301 3770 
Q 1056 3291 1056 2328 
Q 1056 1369 1301 889 
Q 1547 409 2034 409 
Q 2525 409 2770 889 
Q 3016 1369 3016 2328 
Q 3016 3291 2770 3770 
Q 2525 4250 2034 4250 
z
M 2034 4750 
Q 2819 4750 3233 4129 
Q 3647 3509 3647 2328 
Q 3647 1150 3233 529 
Q 2819 -91 2034 -91 
Q 1250 -91 836 529 
Q 422 1150 422 2328 
Q 422 3509 836 4129 
Q 1250 4750 2034 4750 
z
" transform="scale(0.015625)"/>
       </defs>
       <use xlink:href="#DejaVuSans-30"/>
      </g>
     </g>
    </g>
    <g id="xtick_2">
     <g id="line2d_2">
      <g>
       <use xlink:href="#m3780968de0" x="433.04074" y="512.64" style="stroke: #000000; stroke-width: 0.8"/>
      </g>
     </g>
     <g id="text_2">
      <!-- 500 -->
      <g transform="translate(423.49699 527.238438) scale(0.1 -0.1)">
       <defs>
        <path id="DejaVuSans-35" d="M 691 4666 
L 3169 4666 
L 3169 4134 
L 1269 4134 
L 1269 2991 
Q 1406 3038 1543 3061 
Q 1681 3084 1819 3084 
Q 2600 3084 3056 2656 
Q 3513 2228 3513 1497 
Q 3513 744 3044 326 
Q 2575 -91 1722 -91 
Q 1428 -91 1123 -41 
Q 819 9 494 109 
L 494 744 
Q 775 591 1075 516 
Q 1375 441 1709 441 
Q 2250 441 2565 725 
Q 2881 1009 2881 1497 
Q 2881 1984 2565 2268 
Q 2250 2553 1709 2553 
Q 1456 2553 1204 2497 
Q 953 2441 691 2322 
L 691 4666 
z
" transform="scale(0.015625)"/>
       </defs>
       <use xlink:href="#DejaVuSans-35"/>
       <use xlink:href="#DejaVuSans-30" x="63.623047"/>
       <use xlink:href="#DejaVuSans-30" x="127.246094"/>
      </g>
     </g>
    </g>
    <g id="xtick_3">
     <g id="line2d_3">
      <g>
       <use xlink:href="#m3780968de0" x="636.346913" y="512.64" style="stroke: #000000; stroke-width: 0.8"/>
      </g>
     </g>
     <g id="text_3">
      <!-- 1000 -->
      <g transform="translate(623.621913 527.238438) scale(0.1 -0.1)">
       <defs>
        <path id="DejaVuSans-31" d="M 794 531 
L 1825 531 
L 1825 4091 
L 703 3866 
L 703 4441 
L 1819 4666 
L 2450 4666 
L 2450 531 
L 3481 531 
L 3481 0 
L 794 0 
L 794 531 
z
" transform="scale(0.015625)"/>
       </defs>
       <use xlink:href="#DejaVuSans-31"/>
       <use xlink:href="#DejaVuSans-30" x="63.623047"/>
       <use xlink:href="#DejaVuSans-30" x="127.246094"/>
       <use xlink:href="#DejaVuSans-30" x="190.869141"/>
      </g>
     </g>
    </g>
    <g id="xtick_4">
     <g id="line2d_4">
      <g>
       <use xlink:href="#m3780968de0" x="839.653087" y="512.64" style="stroke: #000000; stroke-width: 0.8"/>
      </g>
     </g>
     <g id="text_4">
      <!-- 1500 -->
      <g transform="translate(826.928087 527.238438) scale(0.1 -0.1)">
       <use xlink:href="#DejaVuSans-31"/>
       <use xlink:href="#DejaVuSans-35" x="63.623047"/>
       <use xlink:href="#DejaVuSans-30" x="127.246094"/>
       <use xlink:href="#DejaVuSans-30" x="190.869141"/>
      </g>
     </g>
    </g>
    <g id="xtick_5">
     <g id="line2d_5">
      <g>
       <use xlink:href="#m3780968de0" x="1042.95926" y="512.64" style="stroke: #000000; stroke-width: 0.8"/>
      </g>
     </g>
     <g id="text_5">
      <!-- 2000 -->
      <g transform="translate(1030.23426 527.238438) scale(0.1 -0.1)">
       <defs>
        <path id="DejaVuSans-32" d="M 1228 531 
L 3431 531 
L 3431 0 
L 469 0 
L 469 531 
Q 828 903 1448 1529 
Q 2069 2156 2228 2338 
Q 2531 2678 2651 2914 
Q 2772 3150 2772 3378 
Q 2772 3750 2511 3984 
Q 2250 4219 1831 4219 
Q 1534 4219 1204 4116 
Q 875 4013 500 3803 
L 500 4441 
Q 881 4594 1212 4672 
Q 1544 4750 1819 4750 
Q 2544 4750 2975 4387 
Q 3406 4025 3406 3419 
Q 3406 3131 3298 2873 
Q 3191 2616 2906 2266 
Q 2828 2175 2409 1742 
Q 1991 1309 1228 531 
z
" transform="scale(0.015625)"/>
       </defs>
       <use xlink:href="#DejaVuSans-32"/>
       <use xlink:href="#DejaVuSans-30" x="63.623047"/>
       <use xlink:href="#DejaVuSans-30" x="127.246094"/>
       <use xlink:href="#DejaVuSans-30" x="190.869141"/>
      </g>
     </g>
    </g>
    <g id="xtick_6">
     <g id="line2d_6">
      <g>
       <use xlink:href="#m3780968de0" x="1246.265433" y="512.64" style="stroke: #000000; stroke-width: 0.8"/>
      </g>
     </g>
     <g id="text_6">
      <!-- 2500 -->
      <g transform="translate(1233.540433 527.238438) scale(0.1 -0.1)">
       <use xlink:href="#DejaVuSans-32"/>
       <use xlink:href="#DejaVuSans-35" x="63.623047"/>
       <use xlink:href="#DejaVuSans-30" x="127.246094"/>
       <use xlink:href="#DejaVuSans-30" x="190.869141"/>
      </g>
     </g>
    </g>
   </g>
   <g id="matplotlib.axis_2">
    <g id="ytick_1">
     <g id="line2d_7">
      <defs>
       <path id="m95f742660a" d="M 0 0 
L -3.5 0 
" style="stroke: #000000; stroke-width: 0.8"/>
      </defs>
      <g>
       <use xlink:href="#m95f742660a" x="180" y="435.757712" style="stroke: #000000; stroke-width: 0.8"/>
      </g>
     </g>
     <g id="text_7">
      <!-- −2 -->
      <g transform="translate(158.257812 439.556931) scale(0.1 -0.1)">
       <defs>
        <path id="DejaVuSans-2212" d="M 678 2272 
L 4684 2272 
L 4684 1741 
L 678 1741 
L 678 2272 
z
" transform="scale(0.015625)"/>
       </defs>
       <use xlink:href="#DejaVuSans-2212"/>
       <use xlink:href="#DejaVuSans-32" x="83.789062"/>
      </g>
     </g>
    </g>
    <g id="ytick_2">
     <g id="line2d_8">
      <g>
       <use xlink:href="#m95f742660a" x="180" y="346.456214" style="stroke: #000000; stroke-width: 0.8"/>
      </g>
     </g>
     <g id="text_8">
      <!-- 0 -->
      <g transform="translate(166.6375 350.255433) scale(0.1 -0.1)">
       <use xlink:href="#DejaVuSans-30"/>
      </g>
     </g>
    </g>
    <g id="ytick_3">
     <g id="line2d_9">
      <g>
       <use xlink:href="#m95f742660a" x="180" y="257.154717" style="stroke: #000000; stroke-width: 0.8"/>
      </g>
     </g>
     <g id="text_9">
      <!-- 2 -->
      <g transform="translate(166.6375 260.953936) scale(0.1 -0.1)">
       <use xlink:href="#DejaVuSans-32"/>
      </g>
     </g>
    </g>
    <g id="ytick_4">
     <g id="line2d_10">
      <g>
       <use xlink:href="#m95f742660a" x="180" y="167.85322" style="stroke: #000000; stroke-width: 0.8"/>
      </g>
     </g>
     <g id="text_10">
      <!-- 4 -->
      <g transform="translate(166.6375 171.652438) scale(0.1 -0.1)">
       <defs>
        <path id="DejaVuSans-34" d="M 2419 4116 
L 825 1625 
L 2419 1625 
L 2419 4116 
z
M 2253 4666 
L 3047 4666 
L 3047 1625 
L 3713 1625 
L 3713 1100 
L 3047 1100 
L 3047 0 
L 2419 0 
L 2419 1100 
L 313 1100 
L 313 1709 
L 2253 4666 
z
" transform="scale(0.015625)"/>
       </defs>
       <use xlink:href="#DejaVuSans-34"/>
      </g>
     </g>
    </g>
    <g id="ytick_5">
     <g id="line2d_11">
      <g>
       <use xlink:href="#m95f742660a" x="180" y="78.551722" style="stroke: #000000; stroke-width: 0.8"/>
      </g>
     </g>
     <g id="text_11">
      <!-- 6 -->
      <g transform="translate(166.6375 82.350941) scale(0.1 -0.1)">
       <defs>
        <path id="DejaVuSans-36" d="M 2113 2584 
Q 1688 2584 1439 2293 
Q 1191 2003 1191 1497 
Q 1191 994 1439 701 
Q 1688 409 2113 409 
Q 2538 409 2786 701 
Q 3034 994 3034 1497 
Q 3034 2003 2786 2293 
Q 2538 2584 2113 2584 
z
M 3366 4563 
L 3366 3988 
Q 3128 4100 2886 4159 
Q 2644 4219 2406 4219 
Q 1781 4219 1451 3797 
Q 1122 3375 1075 2522 
Q 1259 2794 1537 2939 
Q 1816 3084 2150 3084 
Q 2853 3084 3261 2657 
Q 3669 2231 3669 1497 
Q 3669 778 3244 343 
Q 2819 -91 2113 -91 
Q 1303 -91 875 529 
Q 447 1150 447 2328 
Q 447 3434 972 4092 
Q 1497 4750 2381 4750 
Q 2619 4750 2861 4703 
Q 3103 4656 3366 4563 
z
" transform="scale(0.015625)"/>
       </defs>
       <use xlink:href="#DejaVuSans-36"/>
      </g>
     </g>
    </g>
   </g>
   <g id="line2d_12">
    <path d="M 230.727273 261.905561 
L 231.719979 346.845742 
L 232.712685 262.617328 
L 233.70539 315.880506 
L 234.698096 262.981563 
L 235.690802 300.123869 
L 236.683508 268.079902 
L 237.676214 285.168948 
L 238.66892 270.314606 
L 239.661626 286.948661 
L 240.654332 270.856076 
L 241.647038 263.363275 
L 242.639744 286.643319 
L 243.63245 282.477171 
L 244.625156 270.929702 
L 245.617862 255.378342 
L 246.610568 357.581261 
L 247.603273 240.194819 
L 248.595979 207.197197 
L 249.588685 200.919308 
L 250.581391 197.954467 
L 251.574097 186.810586 
L 252.566803 191.700503 
L 253.559509 203.385152 
L 254.552215 199.624773 
L 255.544921 173.643029 
L 256.537627 184.465973 
L 257.530333 238.274106 
L 258.523039 205.393824 
L 259.515745 212.769141 
L 260.50845 224.599725 
L 261.501156 207.684431 
L 262.493862 167.910214 
L 263.486568 158.718548 
L 264.479274 163.335886 
L 265.47198 234.722597 
L 266.464686 218.561435 
L 267.457392 187.08798 
L 268.450098 147.350663 
L 269.442804 160.959635 
L 270.43551 164.428545 
L 271.428216 175.12385 
L 272.420922 201.785008 
L 273.413627 173.679852 
L 274.406333 149.963185 
L 275.399039 133.767481 
L 276.391745 144.558237 
L 277.384451 139.503927 
L 278.377157 113.376905 
L 279.369863 113.472944 
L 280.362569 114.26292 
L 281.355275 96.626451 
L 282.347981 89.28 
L 283.340687 94.20667 
L 284.333393 124.212836 
L 285.326099 147.370848 
L 286.318804 100.879701 
L 287.31151 110.302503 
L 288.304216 164.334669 
L 289.296922 185.244713 
L 290.289628 163.661317 
L 291.282334 133.392214 
L 292.27504 135.989243 
L 293.267746 155.91178 
L 294.260452 192.816877 
L 295.253158 181.691155 
L 296.245864 177.836099 
L 297.23857 169.194701 
L 298.231276 173.055192 
L 299.223981 173.175647 
L 300.216687 184.004899 
L 301.209393 197.544974 
L 302.202099 207.744545 
L 303.194805 193.743975 
L 304.187511 192.225551 
L 305.180217 193.556919 
L 306.172923 203.074802 
L 307.165629 208.767717 
L 308.158335 223.232563 
L 309.151041 225.61282 
L 310.143747 228.946641 
L 311.136453 221.074585 
L 312.129159 229.843955 
L 313.121864 233.866015 
L 314.11457 269.317961 
L 315.107276 274.306758 
L 316.099982 288.879104 
L 317.092688 259.094018 
L 318.085394 269.215111 
L 319.0781 255.202171 
L 320.070806 263.510253 
L 321.063512 255.408501 
L 322.056218 267.259533 
L 323.048924 264.541139 
L 324.04163 263.01513 
L 325.034336 244.371166 
L 326.027041 245.847982 
L 327.019747 249.830476 
L 328.012453 261.035136 
L 329.005159 253.920931 
L 329.997865 249.225854 
L 330.990571 246.842764 
L 331.983277 255.133535 
L 332.975983 274.790564 
L 333.968689 281.475381 
L 334.961395 273.944018 
L 335.954101 270.641618 
L 337.939513 288.144857 
L 338.932218 334.677539 
L 339.924924 324.968471 
L 340.91763 292.655172 
L 341.910336 282.857148 
L 342.903042 278.280117 
L 343.895748 274.400985 
L 344.888454 306.105446 
L 345.88116 333.550343 
L 346.873866 299.172496 
L 347.866572 271.346837 
L 349.851984 248.27959 
L 350.84469 254.690037 
L 351.837395 266.99827 
L 352.830101 263.419409 
L 353.822807 247.19324 
L 354.815513 236.385715 
L 355.808219 228.996813 
L 356.800925 236.697961 
L 357.793631 269.38562 
L 358.786337 308.688762 
L 359.779043 239.13813 
L 360.771749 220.843466 
L 361.764455 215.142926 
L 362.757161 219.73962 
L 363.749867 246.296119 
L 364.742572 348.943867 
L 365.735278 246.398091 
L 366.727984 220.000033 
L 367.72069 211.831195 
L 368.713396 211.97537 
L 369.706102 227.580233 
L 370.698808 258.947706 
L 371.691514 270.429702 
L 372.68422 240.729878 
L 373.676926 233.31959 
L 374.669632 235.287188 
L 375.662338 257.927673 
L 376.655044 283.451962 
L 378.640455 240.919702 
L 379.633161 231.731929 
L 380.625867 231.185474 
L 381.618573 227.354458 
L 382.611279 220.780993 
L 383.603985 215.336879 
L 384.596691 209.240401 
L 385.589397 205.81609 
L 386.582103 199.297034 
L 387.574809 187.794336 
L 388.567515 178.973106 
L 389.560221 173.595978 
L 390.552927 175.854184 
L 391.545632 184.739209 
L 392.538338 203.492383 
L 393.531044 232.471498 
L 394.52375 236.900064 
L 395.516456 225.972318 
L 396.509162 226.257212 
L 397.501868 236.145721 
L 398.494574 240.294757 
L 399.48728 242.063939 
L 400.479986 245.878923 
L 401.472692 275.36104 
L 402.465398 314.017751 
L 403.458104 263.820384 
L 404.450809 250.751096 
L 405.443515 256.266968 
L 406.436221 270.198514 
L 407.428927 302.471908 
L 408.421633 301.50468 
L 409.414339 286.462945 
L 411.399751 304.266642 
L 412.392457 298.220733 
L 413.385163 298.303188 
L 414.377869 300.629328 
L 415.370575 340.3975 
L 416.363281 358.10896 
L 417.355986 314.939498 
L 418.348692 298.716997 
L 419.341398 293.940478 
L 420.334104 279.957691 
L 421.32681 276.137712 
L 422.319516 285.095307 
L 423.312222 295.984412 
L 424.304928 356.635764 
L 425.297634 317.997621 
L 426.29034 303.885661 
L 427.283046 294.170433 
L 428.275752 318.184233 
L 430.261163 335.837884 
L 431.253869 310.150665 
L 432.246575 326.821396 
L 433.239281 347.855809 
L 434.231987 397.363454 
L 435.224693 348.278716 
L 436.217399 375.159697 
L 437.210105 365.42248 
L 438.202811 389.941979 
L 439.195517 381.672096 
L 440.188223 339.841475 
L 441.180929 330.422107 
L 442.173635 328.859135 
L 443.166341 342.102119 
L 444.159046 335.611066 
L 445.151752 308.346754 
L 446.144458 291.457914 
L 447.137164 289.896084 
L 448.12987 320.594798 
L 449.122576 374.491113 
L 450.115282 300.531248 
L 451.107988 278.666728 
L 452.100694 278.390106 
L 453.0934 285.721797 
L 454.086106 330.78192 
L 455.078812 327.964552 
L 456.071518 303.212507 
L 457.064223 289.939101 
L 458.056929 307.200707 
L 459.049635 336.400402 
L 460.042341 345.99397 
L 461.035047 306.219861 
L 462.027753 311.364014 
L 463.020459 313.518413 
L 464.013165 302.307604 
L 465.005871 275.361893 
L 465.998577 267.415612 
L 466.991283 270.531018 
L 468.976695 300.714678 
L 469.9694 274.097854 
L 470.962106 258.875625 
L 471.954812 253.072708 
L 472.947518 257.739906 
L 473.940224 258.670315 
L 474.93293 261.925072 
L 475.925636 261.015028 
L 476.918342 276.939673 
L 477.911048 300.24858 
L 478.903754 296.646337 
L 479.89646 266.783535 
L 480.889166 259.573543 
L 481.881872 256.739242 
L 482.874577 263.798985 
L 483.867283 265.927347 
L 484.859989 268.860093 
L 486.845401 282.209248 
L 487.838107 281.597539 
L 489.823519 250.257757 
L 490.816225 244.1081 
L 491.808931 238.801109 
L 492.801637 237.207468 
L 493.794343 236.969984 
L 494.787049 237.001631 
L 495.779754 240.906705 
L 496.77246 243.444289 
L 498.757872 258.757614 
L 500.743284 282.902399 
L 501.73599 284.239635 
L 502.728696 274.335175 
L 503.721402 266.539749 
L 504.714108 268.428605 
L 505.706814 273.764652 
L 506.69952 296.252658 
L 507.692226 328.905985 
L 508.684932 372.474254 
L 509.677637 324.855735 
L 510.670343 315.529616 
L 511.663049 302.054094 
L 512.655755 305.27489 
L 513.648461 303.930937 
L 514.641167 305.786126 
L 517.619285 368.213556 
L 518.611991 323.448901 
L 519.604697 309.114844 
L 520.597403 299.056191 
L 521.590109 309.332992 
L 522.582814 343.297561 
L 523.57552 430.657538 
L 524.568226 321.969307 
L 525.560932 302.415553 
L 527.546344 288.542884 
L 528.53905 293.722985 
L 530.524462 311.364202 
L 531.517168 337.807706 
L 532.509874 338.264717 
L 533.50258 311.873815 
L 534.495286 301.018214 
L 536.480697 305.938989 
L 537.473403 326.93213 
L 538.466109 364.237893 
L 539.458815 350.794848 
L 540.451521 335.06434 
L 541.444227 351.787213 
L 542.436933 362.018754 
L 543.429639 397.43041 
L 544.422345 368.636712 
L 545.415051 370.531212 
L 546.407757 362.165983 
L 547.400463 361.166328 
L 549.385874 390.007725 
L 550.37858 361.928092 
L 551.371286 342.889288 
L 552.363992 346.407953 
L 553.356698 335.934759 
L 554.349404 356.706867 
L 555.34211 354.358927 
L 556.334816 350.402603 
L 557.327522 331.277654 
L 558.320228 327.694192 
L 559.312934 325.017316 
L 560.30564 321.986673 
L 561.298345 335.887542 
L 562.291051 340.985108 
L 563.283757 391.038413 
L 564.276463 352.931127 
L 565.269169 343.44769 
L 566.261875 335.186212 
L 567.254581 371.248308 
L 568.247287 358.265105 
L 569.239993 347.354115 
L 570.232699 327.700124 
L 572.218111 363.062671 
L 573.210817 353.210962 
L 574.203523 312.220617 
L 576.188934 294.693447 
L 577.18164 297.591208 
L 578.174346 301.620298 
L 579.167052 303.335458 
L 580.159758 309.578642 
L 581.152464 312.155434 
L 582.14517 341.601022 
L 583.137876 405.963929 
L 584.130582 331.092234 
L 585.123288 305.51345 
L 587.1087 285.675401 
L 588.101405 286.021042 
L 589.094111 281.302973 
L 590.086817 280.258005 
L 591.079523 280.562593 
L 592.072229 278.965199 
L 593.064935 282.074607 
L 594.057641 280.508926 
L 596.043053 274.285774 
L 597.035759 267.460735 
L 599.021171 262.460348 
L 600.013877 262.229005 
L 601.006582 265.022464 
L 601.999288 265.613865 
L 602.991994 269.924873 
L 603.9847 269.491084 
L 604.977406 274.142945 
L 605.970112 276.090545 
L 606.962818 280.513302 
L 607.955524 281.990635 
L 608.94823 282.763554 
L 609.940936 288.44475 
L 610.933642 294.828518 
L 611.926348 316.799757 
L 613.911759 344.099073 
L 614.904465 326.5045 
L 615.897171 329.630073 
L 616.889877 336.310643 
L 617.882583 353.142332 
L 618.875289 380.878288 
L 619.867995 346.952075 
L 620.860701 334.401681 
L 621.853407 323.632067 
L 622.846113 339.045264 
L 623.838819 342.885866 
L 624.831525 352.522635 
L 625.824231 327.684108 
L 627.809642 327.425753 
L 628.802348 343.605013 
L 629.795054 351.740941 
L 630.78776 339.596292 
L 631.780466 325.423942 
L 632.773172 317.766452 
L 633.765878 324.482526 
L 634.758584 322.590613 
L 635.75129 336.017224 
L 636.743996 334.438852 
L 638.729408 355.4132 
L 639.722114 366.037321 
L 640.714819 413.857651 
L 641.707525 378.822966 
L 643.692937 343.338745 
L 644.685643 354.727554 
L 645.678349 352.900204 
L 646.671055 388.855621 
L 647.663761 430.126769 
L 648.656467 396.575827 
L 649.649173 353.984331 
L 650.641879 359.876145 
L 651.634585 348.214857 
L 652.627291 352.81295 
L 653.619996 343.823422 
L 654.612702 340.861689 
L 655.605408 349.827694 
L 656.598114 355.640251 
L 657.59082 400.29868 
L 658.583526 357.931058 
L 660.568938 322.020245 
L 661.561644 325.877759 
L 662.55435 325.880852 
L 663.547056 338.21093 
L 664.539762 360.084086 
L 665.532468 368.863098 
L 666.525173 415.522123 
L 667.517879 400.376801 
L 668.510585 433.188734 
L 669.503291 398.322687 
L 670.495997 373.685629 
L 671.488703 352.383985 
L 672.481409 359.948662 
L 673.474115 349.035541 
L 674.466821 364.770572 
L 675.459527 360.90099 
L 676.452233 377.734019 
L 677.444939 379.236998 
L 678.437645 391.816547 
L 679.43035 356.702828 
L 680.423056 349.478746 
L 681.415762 336.832529 
L 683.401174 329.828613 
L 684.39388 321.577603 
L 685.386586 321.71471 
L 686.379292 317.019272 
L 688.364704 341.201084 
L 689.35741 345.495748 
L 690.350116 338.334461 
L 691.342822 322.383716 
L 692.335527 309.137383 
L 693.328233 307.847033 
L 694.320939 301.317393 
L 695.313645 299.920312 
L 696.306351 297.489093 
L 697.299057 292.06203 
L 698.291763 291.886426 
L 699.284469 287.297822 
L 701.269881 288.185692 
L 702.262587 286.683762 
L 703.255293 288.919263 
L 704.247999 285.151269 
L 705.240705 283.561398 
L 706.23341 280.605562 
L 707.226116 276.746809 
L 708.218822 277.362487 
L 709.211528 275.80223 
L 710.204234 279.878238 
L 711.19694 282.092644 
L 713.182352 292.326044 
L 714.175058 296.282348 
L 715.167764 301.870836 
L 716.16047 300.520771 
L 717.153176 303.63596 
L 718.145882 301.112742 
L 719.138587 309.140267 
L 720.131293 314.524773 
L 721.123999 329.458551 
L 722.116705 338.942738 
L 723.109411 342.371561 
L 724.102117 342.736076 
L 725.094823 343.794723 
L 726.087529 356.642916 
L 728.072941 337.702781 
L 729.065647 323.324777 
L 730.058353 328.008942 
L 731.051059 330.176781 
L 732.043764 355.863945 
L 733.03647 366.684117 
L 734.029176 365.343264 
L 735.021882 342.72339 
L 736.014588 345.814757 
L 737.007294 352.152235 
L 738 361.597805 
L 738.992706 387.419529 
L 739.985412 374.783581 
L 740.978118 390.491058 
L 741.970824 366.137612 
L 742.96353 365.864836 
L 743.956236 366.492839 
L 744.948941 360.690761 
L 745.941647 387.092347 
L 746.934353 375.183734 
L 747.927059 384.697292 
L 748.919765 356.989574 
L 749.912471 365.053032 
L 750.905177 361.283048 
L 751.897883 382.65973 
L 752.890589 419.94779 
L 753.883295 449.710867 
L 754.876001 396.280364 
L 756.861413 418.563558 
L 757.854118 420.285399 
L 758.846824 401.051678 
L 759.83953 377.580061 
L 760.832236 389.337665 
L 761.824942 374.278405 
L 762.817648 395.47531 
L 763.810354 457.308755 
L 764.80306 423.665665 
L 765.795766 364.220357 
L 766.788472 361.559721 
L 767.781178 351.661678 
L 768.773884 349.284612 
L 769.76659 344.671298 
L 770.759295 336.329422 
L 771.752001 340.709164 
L 772.744707 339.263387 
L 773.737413 361.771669 
L 774.730119 364.225251 
L 775.722825 383.470262 
L 776.715531 360.931543 
L 777.708237 372.630758 
L 778.700943 362.145646 
L 779.693649 382.346529 
L 780.686355 368.862112 
L 781.679061 380.072155 
L 782.671767 365.575788 
L 783.664473 380.784107 
L 784.657178 382.722753 
L 785.649884 395.314026 
L 786.64259 356.842264 
L 788.628002 335.515979 
L 789.620708 332.10786 
L 790.613414 339.003365 
L 791.60612 337.041015 
L 792.598826 346.407068 
L 793.591532 337.980724 
L 794.584238 347.551726 
L 795.576944 355.945441 
L 796.56965 387.039343 
L 797.562355 395.873012 
L 798.555061 360.068953 
L 799.547767 331.836884 
L 800.540473 326.330074 
L 801.533179 316.355675 
L 802.525885 311.247665 
L 803.518591 307.617841 
L 804.511297 302.96393 
L 805.504003 306.787223 
L 806.496709 307.148935 
L 807.489415 314.631205 
L 808.482121 320.753332 
L 809.474827 321.637268 
L 810.467532 327.150262 
L 811.460238 320.806366 
L 812.452944 320.670422 
L 813.44565 319.533271 
L 814.438356 316.633124 
L 815.431062 320.141468 
L 816.423768 314.377806 
L 817.416474 316.219712 
L 818.40918 311.800223 
L 819.401886 314.026495 
L 820.394592 315.414359 
L 821.387298 316.313371 
L 822.380004 319.944128 
L 823.372709 318.371221 
L 824.365415 326.76242 
L 825.358121 326.821821 
L 826.350827 337.185939 
L 827.343533 332.892358 
L 828.336239 340.661076 
L 829.328945 344.200325 
L 830.321651 362.061392 
L 831.314357 369.098332 
L 832.307063 366.244278 
L 833.299769 355.838984 
L 834.292475 357.09514 
L 835.285181 369.555925 
L 836.277886 364.910791 
L 837.270592 362.012108 
L 838.263298 346.286414 
L 839.256004 353.569416 
L 840.24871 350.739441 
L 841.241416 367.503352 
L 843.226828 352.037722 
L 844.219534 342.282337 
L 845.21224 337.580136 
L 846.204946 349.383097 
L 847.197652 352.086153 
L 848.190358 374.732509 
L 849.183064 362.691087 
L 850.175769 368.7612 
L 851.168475 365.398422 
L 852.161181 368.966752 
L 853.153887 394.707203 
L 854.146593 386.599082 
L 855.139299 419.68057 
L 856.132005 386.773429 
L 857.124711 394.37994 
L 858.117417 377.090913 
L 859.110123 377.592093 
L 860.102829 371.044706 
L 861.095535 368.209969 
L 862.088241 381.818437 
L 863.080946 382.794037 
L 864.073652 378.281905 
L 865.066358 357.709508 
L 866.059064 355.271574 
L 867.05177 349.215517 
L 868.044476 368.978157 
L 869.037182 368.181058 
L 870.029888 386.792265 
L 871.022594 367.467689 
L 872.0153 381.866498 
L 873.008006 365.298487 
L 874.000712 369.397349 
L 874.993418 350.411817 
L 875.986123 352.559887 
L 876.978829 350.070433 
L 877.971535 355.064532 
L 878.964241 373.621612 
L 879.956947 379.307872 
L 880.949653 456.571225 
L 881.942359 409.018954 
L 882.935065 389.725674 
L 883.927771 359.404536 
L 884.920477 360.027391 
L 885.913183 350.437855 
L 886.905889 358.594833 
L 887.898595 372.601749 
L 888.8913 383.184903 
L 889.884006 426.984985 
L 890.876712 429.732142 
L 892.862124 400.301427 
L 893.85483 364.853317 
L 894.847536 359.367676 
L 895.840242 357.135418 
L 896.832948 355.906965 
L 897.825654 365.462279 
L 898.81836 360.866427 
L 899.811066 380.792443 
L 900.803772 381.075606 
L 901.796477 408.337164 
L 902.789183 374.607655 
L 903.781889 368.450976 
L 904.774595 350.565259 
L 905.767301 351.184764 
L 906.760007 336.752805 
L 907.752713 336.301658 
L 908.745419 330.07262 
L 909.738125 331.114612 
L 910.730831 337.801924 
L 911.723537 338.277588 
L 912.716243 351.127213 
L 913.708949 347.930142 
L 914.701655 352.193625 
L 915.69436 354.857188 
L 916.687066 350.791395 
L 917.679772 364.423424 
L 918.672478 363.944109 
L 920.65789 382.997275 
L 921.650596 368.283758 
L 922.643302 365.38981 
L 923.636008 348.576313 
L 924.628714 353.508393 
L 925.62142 346.701301 
L 926.614126 351.779102 
L 927.606832 347.375031 
L 928.599537 345.766491 
L 929.592243 348.514832 
L 930.584949 346.919837 
L 931.577655 362.164549 
L 932.570361 362.038711 
L 933.563067 389.746321 
L 934.555773 388.384576 
L 935.548479 417.44608 
L 936.541185 391.348195 
L 937.533891 402.056125 
L 938.526597 408.267113 
L 939.519303 408.560913 
L 941.504714 492.48 
L 942.49742 415.128486 
L 943.490126 434.160956 
L 944.482832 432.06432 
L 945.475538 417.743778 
L 946.468244 388.451523 
L 947.46095 366.429208 
L 948.453656 369.862941 
L 949.446362 358.942817 
L 951.431774 371.146621 
L 952.42448 363.256961 
L 953.417186 365.424161 
L 954.409891 349.715939 
L 955.402597 354.915918 
L 956.395303 356.471536 
L 957.388009 370.070151 
L 958.380715 386.7849 
L 959.373421 370.954933 
L 960.366127 359.106554 
L 961.358833 349.391364 
L 962.351539 364.518975 
L 963.344245 371.789569 
L 964.336951 417.585788 
L 965.329657 378.034601 
L 966.322363 377.786875 
L 967.315068 362.933192 
L 968.307774 377.183998 
L 969.30048 369.872906 
L 970.293186 371.355588 
L 971.285892 360.351083 
L 972.278598 359.76889 
L 973.271304 369.208856 
L 974.26401 372.349877 
L 975.256716 392.008673 
L 976.249422 372.854461 
L 977.242128 370.041368 
L 978.234834 353.039367 
L 979.22754 358.358348 
L 980.220246 350.782625 
L 981.212951 361.017067 
L 982.205657 360.139993 
L 983.198363 367.844419 
L 984.191069 367.90012 
L 985.183775 370.700041 
L 986.176481 377.258429 
L 987.169187 377.762315 
L 988.161893 381.753076 
L 989.154599 371.289036 
L 990.147305 371.720036 
L 991.140011 360.509227 
L 992.132717 369.377196 
L 993.125423 361.615712 
L 994.118128 381.170644 
L 995.110834 387.293541 
L 996.10354 425.099359 
L 997.096246 441.415586 
L 998.088952 417.791406 
L 999.081658 380.958065 
L 1000.074364 390.730783 
L 1001.06707 375.463526 
L 1002.059776 381.460931 
L 1003.052482 384.121304 
L 1004.045188 380.788661 
L 1005.037894 409.418722 
L 1006.0306 401.324866 
L 1007.023305 403.69184 
L 1008.016011 412.045558 
L 1009.008717 377.254507 
L 1010.994129 359.219554 
L 1011.986835 345.825818 
L 1012.979541 346.7361 
L 1013.972247 337.632849 
L 1014.964953 341.818474 
L 1015.957659 341.27993 
L 1016.950365 343.908643 
L 1017.943071 353.839803 
L 1018.935777 352.84621 
L 1019.928482 365.969661 
L 1020.921188 365.356905 
L 1021.913894 358.017961 
L 1022.9066 364.122655 
L 1023.899306 353.863773 
L 1024.892012 358.834734 
L 1025.884718 355.857388 
L 1026.877424 356.492407 
L 1027.87013 363.456023 
L 1028.862836 361.432029 
L 1029.855542 373.62795 
L 1030.848248 361.778679 
L 1031.840954 368.470831 
L 1032.833659 356.351741 
L 1033.826365 362.37096 
L 1034.819071 361.455677 
L 1035.811777 363.350755 
L 1036.804483 377.503914 
L 1037.797189 374.508564 
L 1038.789895 405.353012 
L 1039.782601 396.540202 
L 1040.775307 426.9991 
L 1041.768013 397.657992 
L 1042.760719 410.927872 
L 1043.753425 413.675991 
L 1044.746131 413.901126 
L 1045.738837 484.802895 
L 1046.731542 417.103029 
L 1047.724248 425.857567 
L 1048.716954 395.201964 
L 1049.70966 377.417441 
L 1050.702366 383.876383 
L 1051.695072 373.059884 
L 1052.687778 396.087071 
L 1053.680484 406.791735 
L 1054.67319 427.868337 
L 1055.665896 419.512318 
L 1056.658602 405.430605 
L 1057.651308 413.859971 
L 1058.644014 382.191435 
L 1059.636719 364.381075 
L 1060.629425 365.767054 
L 1061.622131 354.338065 
L 1062.614837 362.334522 
L 1063.607543 358.056286 
L 1064.600249 362.627924 
L 1065.592955 368.655949 
L 1066.585661 373.593168 
L 1067.578367 396.962877 
L 1068.571073 387.842684 
L 1069.563779 390.51324 
L 1070.556485 372.531538 
L 1071.549191 384.563819 
L 1072.541896 373.622393 
L 1073.534602 390.928897 
L 1074.527308 375.155158 
L 1075.520014 382.108064 
L 1076.51272 372.870456 
L 1077.505426 378.334888 
L 1078.498132 380.637725 
L 1079.490838 378.4733 
L 1080.483544 380.326647 
L 1081.47625 373.350919 
L 1082.468956 388.068389 
L 1083.461662 379.818253 
L 1084.454368 381.516179 
L 1085.447073 357.753163 
L 1086.439779 355.240964 
L 1087.432485 344.352048 
L 1088.425191 353.110798 
L 1089.417897 358.665009 
L 1090.410603 377.446445 
L 1091.403309 393.009047 
L 1092.396015 396.588737 
L 1093.388721 388.135762 
L 1094.381427 388.310988 
L 1095.374133 385.57759 
L 1096.366839 374.455604 
L 1097.359545 372.517461 
L 1098.35225 362.38848 
L 1099.344956 378.691663 
L 1100.337662 380.295016 
L 1101.330368 419.923894 
L 1102.323074 426.940635 
L 1103.31578 451.384537 
L 1104.308486 398.201961 
L 1105.301192 413.156569 
L 1106.293898 387.989141 
L 1107.286604 387.918338 
L 1108.27931 377.635253 
L 1109.272016 371.622163 
L 1110.264722 382.503238 
L 1111.257428 373.803978 
L 1112.250133 392.867092 
L 1113.242839 387.480915 
L 1114.235545 388.358395 
L 1115.228251 398.960723 
L 1116.220957 376.031399 
L 1117.213663 376.518122 
L 1119.199075 355.660442 
L 1120.191781 356.96041 
L 1121.184487 346.192163 
L 1122.177193 350.188519 
L 1123.169899 348.831363 
L 1124.162605 349.947419 
L 1125.15531 358.834542 
L 1126.148016 353.463013 
L 1127.140722 362.502894 
L 1128.133428 358.478887 
L 1129.126134 359.43615 
L 1130.11884 370.342136 
L 1131.111546 366.410992 
L 1132.104252 386.647476 
L 1133.096958 381.989471 
L 1134.089664 382.31164 
L 1135.08237 369.480548 
L 1136.075076 361.68321 
L 1137.067782 369.305687 
L 1138.060487 364.303447 
L 1139.053193 380.145646 
L 1140.045899 366.218066 
L 1141.038605 369.502856 
L 1142.031311 362.961366 
L 1143.024017 364.072929 
L 1144.016723 380.436384 
L 1145.009429 379.437134 
L 1146.002135 411.234355 
L 1146.994841 398.501481 
L 1147.987547 411.421584 
L 1148.980253 402.922094 
L 1149.972959 403.265832 
L 1150.965664 418.633451 
L 1151.95837 399.857581 
L 1152.951076 413.430734 
L 1153.943782 388.738604 
L 1154.936488 410.083685 
L 1155.929194 401.083727 
L 1156.9219 409.757757 
L 1157.914606 441.22722 
L 1158.907312 408.071111 
L 1159.900018 413.836739 
L 1160.892724 412.607156 
L 1161.88543 389.879521 
L 1162.878136 407.932624 
L 1163.870841 403.014151 
L 1164.863547 410.245323 
L 1165.856253 423.926972 
L 1166.848959 394.976049 
L 1167.841665 395.08259 
L 1168.834371 370.974823 
L 1169.827077 378.235643 
L 1170.819783 374.767943 
L 1171.812489 381.49243 
L 1172.805195 389.160177 
L 1173.797901 383.167988 
L 1174.790607 399.899507 
L 1175.783313 395.985344 
L 1176.776019 446.71227 
L 1177.768724 401.836035 
L 1178.76143 388.129954 
L 1179.754136 366.616343 
L 1180.746842 373.066279 
L 1181.739548 364.150932 
L 1182.732254 378.409191 
L 1183.72496 383.518812 
L 1184.717666 399.489189 
L 1185.710372 419.825278 
L 1186.703078 423.424219 
L 1187.695784 417.498917 
L 1188.68849 409.473024 
L 1189.681196 408.582587 
L 1190.673901 391.1666 
L 1191.666607 396.904923 
L 1192.659313 376.57452 
L 1193.652019 388.614525 
L 1194.644725 375.864376 
L 1195.637431 387.555644 
L 1196.630137 381.4863 
L 1197.622843 385.891603 
L 1198.615549 392.424946 
L 1199.608255 395.870256 
L 1200.600961 401.082251 
L 1201.593667 383.11306 
L 1202.586373 378.418439 
L 1203.579078 366.254686 
L 1204.571784 381.982146 
L 1205.56449 378.373074 
L 1206.557196 405.119983 
L 1207.549902 392.628119 
L 1208.542608 407.560714 
L 1209.535314 414.73154 
L 1210.52802 433.871466 
L 1212.513432 428.733754 
L 1213.506138 388.894641 
L 1214.498844 387.131379 
L 1215.49155 389.560382 
L 1216.484255 378.371769 
L 1217.476961 391.790077 
L 1218.469667 374.986354 
L 1219.462373 383.994272 
L 1220.455079 378.749921 
L 1221.447785 378.737859 
L 1222.440491 389.701978 
L 1223.433197 378.875637 
L 1224.425903 397.968529 
L 1225.418609 392.464863 
L 1226.411315 391.982107 
L 1227.404021 412.263486 
L 1228.396727 390.685289 
L 1229.389432 397.964929 
L 1230.382138 386.79822 
L 1231.374844 373.622044 
L 1232.36755 374.743489 
L 1233.360256 361.704189 
L 1234.352962 373.103492 
L 1235.345668 373.433718 
L 1236.338374 382.349988 
L 1237.33108 388.359823 
L 1238.323786 376.806763 
L 1239.316492 385.210819 
L 1240.309198 372.088985 
L 1241.301904 386.094337 
L 1242.29461 381.826155 
L 1243.287315 381.206982 
L 1244.280021 375.389848 
L 1245.272727 361.993504 
L 1245.272727 361.993504 
" clip-path="url(#p038baa6d2c)" style="fill: none; stroke: #1f77b4; stroke-width: 1.5; stroke-linecap: square"/>
   </g>
   <g id="patch_3">
    <path d="M 180 512.64 
L 180 69.12 
" style="fill: none; stroke: #000000; stroke-width: 0.8; stroke-linejoin: miter; stroke-linecap: square"/>
   </g>
   <g id="patch_4">
    <path d="M 1296 512.64 
L 1296 69.12 
" style="fill: none; stroke: #000000; stroke-width: 0.8; stroke-linejoin: miter; stroke-linecap: square"/>
   </g>
   <g id="patch_5">
    <path d="M 180 512.64 
L 1296 512.64 
" style="fill: none; stroke: #000000; stroke-width: 0.8; stroke-linejoin: miter; stroke-linecap: square"/>
   </g>
   <g id="patch_6">
    <path d="M 180 69.12 
L 1296 69.12 
" style="fill: none; stroke: #000000; stroke-width: 0.8; stroke-linejoin: miter; stroke-linecap: square"/>
   </g>
   <g id="text_12">
    <!-- source14-receiver19 -->
    <g transform="translate(532.175 60.80125) scale(0.4 -0.4)">
     <defs>
      <path id="DejaVuSans-73" d="M 2834 3397 
L 2834 2853 
Q 2591 2978 2328 3040 
Q 2066 3103 1784 3103 
Q 1356 3103 1142 2972 
Q 928 2841 928 2578 
Q 928 2378 1081 2264 
Q 1234 2150 1697 2047 
L 1894 2003 
Q 2506 1872 2764 1633 
Q 3022 1394 3022 966 
Q 3022 478 2636 193 
Q 2250 -91 1575 -91 
Q 1294 -91 989 -36 
Q 684 19 347 128 
L 347 722 
Q 666 556 975 473 
Q 1284 391 1588 391 
Q 1994 391 2212 530 
Q 2431 669 2431 922 
Q 2431 1156 2273 1281 
Q 2116 1406 1581 1522 
L 1381 1569 
Q 847 1681 609 1914 
Q 372 2147 372 2553 
Q 372 3047 722 3315 
Q 1072 3584 1716 3584 
Q 2034 3584 2315 3537 
Q 2597 3491 2834 3397 
z
" transform="scale(0.015625)"/>
      <path id="DejaVuSans-6f" d="M 1959 3097 
Q 1497 3097 1228 2736 
Q 959 2375 959 1747 
Q 959 1119 1226 758 
Q 1494 397 1959 397 
Q 2419 397 2687 759 
Q 2956 1122 2956 1747 
Q 2956 2369 2687 2733 
Q 2419 3097 1959 3097 
z
M 1959 3584 
Q 2709 3584 3137 3096 
Q 3566 2609 3566 1747 
Q 3566 888 3137 398 
Q 2709 -91 1959 -91 
Q 1206 -91 779 398 
Q 353 888 353 1747 
Q 353 2609 779 3096 
Q 1206 3584 1959 3584 
z
" transform="scale(0.015625)"/>
      <path id="DejaVuSans-75" d="M 544 1381 
L 544 3500 
L 1119 3500 
L 1119 1403 
Q 1119 906 1312 657 
Q 1506 409 1894 409 
Q 2359 409 2629 706 
Q 2900 1003 2900 1516 
L 2900 3500 
L 3475 3500 
L 3475 0 
L 2900 0 
L 2900 538 
Q 2691 219 2414 64 
Q 2138 -91 1772 -91 
Q 1169 -91 856 284 
Q 544 659 544 1381 
z
M 1991 3584 
L 1991 3584 
z
" transform="scale(0.015625)"/>
      <path id="DejaVuSans-72" d="M 2631 2963 
Q 2534 3019 2420 3045 
Q 2306 3072 2169 3072 
Q 1681 3072 1420 2755 
Q 1159 2438 1159 1844 
L 1159 0 
L 581 0 
L 581 3500 
L 1159 3500 
L 1159 2956 
Q 1341 3275 1631 3429 
Q 1922 3584 2338 3584 
Q 2397 3584 2469 3576 
Q 2541 3569 2628 3553 
L 2631 2963 
z
" transform="scale(0.015625)"/>
      <path id="DejaVuSans-63" d="M 3122 3366 
L 3122 2828 
Q 2878 2963 2633 3030 
Q 2388 3097 2138 3097 
Q 1578 3097 1268 2742 
Q 959 2388 959 1747 
Q 959 1106 1268 751 
Q 1578 397 2138 397 
Q 2388 397 2633 464 
Q 2878 531 3122 666 
L 3122 134 
Q 2881 22 2623 -34 
Q 2366 -91 2075 -91 
Q 1284 -91 818 406 
Q 353 903 353 1747 
Q 353 2603 823 3093 
Q 1294 3584 2113 3584 
Q 2378 3584 2631 3529 
Q 2884 3475 3122 3366 
z
" transform="scale(0.015625)"/>
      <path id="DejaVuSans-65" d="M 3597 1894 
L 3597 1613 
L 953 1613 
Q 991 1019 1311 708 
Q 1631 397 2203 397 
Q 2534 397 2845 478 
Q 3156 559 3463 722 
L 3463 178 
Q 3153 47 2828 -22 
Q 2503 -91 2169 -91 
Q 1331 -91 842 396 
Q 353 884 353 1716 
Q 353 2575 817 3079 
Q 1281 3584 2069 3584 
Q 2775 3584 3186 3129 
Q 3597 2675 3597 1894 
z
M 3022 2063 
Q 3016 2534 2758 2815 
Q 2500 3097 2075 3097 
Q 1594 3097 1305 2825 
Q 1016 2553 972 2059 
L 3022 2063 
z
" transform="scale(0.015625)"/>
      <path id="DejaVuSans-2d" d="M 313 2009 
L 1997 2009 
L 1997 1497 
L 313 1497 
L 313 2009 
z
" transform="scale(0.015625)"/>
      <path id="DejaVuSans-69" d="M 603 3500 
L 1178 3500 
L 1178 0 
L 603 0 
L 603 3500 
z
M 603 4863 
L 1178 4863 
L 1178 4134 
L 603 4134 
L 603 4863 
z
" transform="scale(0.015625)"/>
      <path id="DejaVuSans-76" d="M 191 3500 
L 800 3500 
L 1894 563 
L 2988 3500 
L 3597 3500 
L 2284 0 
L 1503 0 
L 191 3500 
z
" transform="scale(0.015625)"/>
      <path id="DejaVuSans-39" d="M 703 97 
L 703 672 
Q 941 559 1184 500 
Q 1428 441 1663 441 
Q 2288 441 2617 861 
Q 2947 1281 2994 2138 
Q 2813 1869 2534 1725 
Q 2256 1581 1919 1581 
Q 1219 1581 811 2004 
Q 403 2428 403 3163 
Q 403 3881 828 4315 
Q 1253 4750 1959 4750 
Q 2769 4750 3195 4129 
Q 3622 3509 3622 2328 
Q 3622 1225 3098 567 
Q 2575 -91 1691 -91 
Q 1453 -91 1209 -44 
Q 966 3 703 97 
z
M 1959 2075 
Q 2384 2075 2632 2365 
Q 2881 2656 2881 3163 
Q 2881 3666 2632 3958 
Q 2384 4250 1959 4250 
Q 1534 4250 1286 3958 
Q 1038 3666 1038 3163 
Q 1038 2656 1286 2365 
Q 1534 2075 1959 2075 
z
" transform="scale(0.015625)"/>
     </defs>
     <use xlink:href="#DejaVuSans-73"/>
     <use xlink:href="#DejaVuSans-6f" x="52.099609"/>
     <use xlink:href="#DejaVuSans-75" x="113.28125"/>
     <use xlink:href="#DejaVuSans-72" x="176.660156"/>
     <use xlink:href="#DejaVuSans-63" x="215.523438"/>
     <use xlink:href="#DejaVuSans-65" x="270.503906"/>
     <use xlink:href="#DejaVuSans-31" x="332.027344"/>
     <use xlink:href="#DejaVuSans-34" x="395.650391"/>
     <use xlink:href="#DejaVuSans-2d" x="459.273438"/>
     <use xlink:href="#DejaVuSans-72" x="495.357422"/>
     <use xlink:href="#DejaVuSans-65" x="534.220703"/>
     <use xlink:href="#DejaVuSans-63" x="595.744141"/>
     <use xlink:href="#DejaVuSans-65" x="650.724609"/>
     <use xlink:href="#DejaVuSans-69" x="712.248047"/>
     <use xlink:href="#DejaVuSans-76" x="740.03125"/>
     <use xlink:href="#DejaVuSans-65" x="799.210938"/>
     <use xlink:href="#DejaVuSans-72" x="860.734375"/>
     <use xlink:href="#DejaVuSans-31" x="901.847656"/>
     <use xlink:href="#DejaVuSans-39" x="965.470703"/>
    </g>
   </g>
  </g>
 </g>
 <defs>
  <clipPath id="p038baa6d2c">
   <rect x="180" y="69.12" width="1116" height="443.52"/>
  </clipPath>
 </defs>
</svg>
