<?xml version="1.0" encoding="utf-8" standalone="no"?>
<!DOCTYPE svg PUBLIC "-//W3C//DTD SVG 1.1//EN"
  "http://www.w3.org/Graphics/SVG/1.1/DTD/svg11.dtd">
<svg xmlns:xlink="http://www.w3.org/1999/xlink" width="1440pt" height="576pt" viewBox="0 0 1440 576" xmlns="http://www.w3.org/2000/svg" version="1.1">
 <metadata>
  <rdf:RDF xmlns:dc="http://purl.org/dc/elements/1.1/" xmlns:cc="http://creativecommons.org/ns#" xmlns:rdf="http://www.w3.org/1999/02/22-rdf-syntax-ns#">
   <cc:Work>
    <dc:type rdf:resource="http://purl.org/dc/dcmitype/StillImage"/>
    <dc:date>2024-05-22T04:50:05.166437</dc:date>
    <dc:format>image/svg+xml</dc:format>
    <dc:creator>
     <cc:Agent>
      <dc:title>Matplotlib v3.8.3, https://matplotlib.org/</dc:title>
     </cc:Agent>
    </dc:creator>
   </cc:Work>
  </rdf:RDF>
 </metadata>
 <defs>
  <style type="text/css">*{stroke-linejoin: round; stroke-linecap: butt}</style>
 </defs>
 <g id="figure_1">
  <g id="patch_1">
   <path d="M 0 576 
L 1440 576 
L 1440 0 
L 0 0 
z
" style="fill: #ffffff"/>
  </g>
  <g id="axes_1">
   <g id="patch_2">
    <path d="M 180 512.64 
L 1296 512.64 
L 1296 69.12 
L 180 69.12 
z
" style="fill: #ffffff"/>
   </g>
   <g id="matplotlib.axis_1">
    <g id="xtick_1">
     <g id="line2d_1">
      <defs>
       <path id="mae013ddeca" d="M 0 0 
L 0 3.5 
" style="stroke: #000000; stroke-width: 0.8"/>
      </defs>
      <g>
       <use xlink:href="#mae013ddeca" x="229.734567" y="512.64" style="stroke: #000000; stroke-width: 0.8"/>
      </g>
     </g>
     <g id="text_1">
      <!-- 0 -->
      <g transform="translate(226.553317 527.238438) scale(0.1 -0.1)">
       <defs>
        <path id="DejaVuSans-30" d="M 2034 4250 
Q 1547 4250 1301 3770 
Q 1056 3291 1056 2328 
Q 1056 1369 1301 889 
Q 1547 409 2034 409 
Q 2525 409 2770 889 
Q 3016 1369 3016 2328 
Q 3016 3291 2770 3770 
Q 2525 4250 2034 4250 
z
M 2034 4750 
Q 2819 4750 3233 4129 
Q 3647 3509 3647 2328 
Q 3647 1150 3233 529 
Q 2819 -91 2034 -91 
Q 1250 -91 836 529 
Q 422 1150 422 2328 
Q 422 3509 836 4129 
Q 1250 4750 2034 4750 
z
" transform="scale(0.015625)"/>
       </defs>
       <use xlink:href="#DejaVuSans-30"/>
      </g>
     </g>
    </g>
    <g id="xtick_2">
     <g id="line2d_2">
      <g>
       <use xlink:href="#mae013ddeca" x="433.04074" y="512.64" style="stroke: #000000; stroke-width: 0.8"/>
      </g>
     </g>
     <g id="text_2">
      <!-- 500 -->
      <g transform="translate(423.49699 527.238438) scale(0.1 -0.1)">
       <defs>
        <path id="DejaVuSans-35" d="M 691 4666 
L 3169 4666 
L 3169 4134 
L 1269 4134 
L 1269 2991 
Q 1406 3038 1543 3061 
Q 1681 3084 1819 3084 
Q 2600 3084 3056 2656 
Q 3513 2228 3513 1497 
Q 3513 744 3044 326 
Q 2575 -91 1722 -91 
Q 1428 -91 1123 -41 
Q 819 9 494 109 
L 494 744 
Q 775 591 1075 516 
Q 1375 441 1709 441 
Q 2250 441 2565 725 
Q 2881 1009 2881 1497 
Q 2881 1984 2565 2268 
Q 2250 2553 1709 2553 
Q 1456 2553 1204 2497 
Q 953 2441 691 2322 
L 691 4666 
z
" transform="scale(0.015625)"/>
       </defs>
       <use xlink:href="#DejaVuSans-35"/>
       <use xlink:href="#DejaVuSans-30" x="63.623047"/>
       <use xlink:href="#DejaVuSans-30" x="127.246094"/>
      </g>
     </g>
    </g>
    <g id="xtick_3">
     <g id="line2d_3">
      <g>
       <use xlink:href="#mae013ddeca" x="636.346913" y="512.64" style="stroke: #000000; stroke-width: 0.8"/>
      </g>
     </g>
     <g id="text_3">
      <!-- 1000 -->
      <g transform="translate(623.621913 527.238438) scale(0.1 -0.1)">
       <defs>
        <path id="DejaVuSans-31" d="M 794 531 
L 1825 531 
L 1825 4091 
L 703 3866 
L 703 4441 
L 1819 4666 
L 2450 4666 
L 2450 531 
L 3481 531 
L 3481 0 
L 794 0 
L 794 531 
z
" transform="scale(0.015625)"/>
       </defs>
       <use xlink:href="#DejaVuSans-31"/>
       <use xlink:href="#DejaVuSans-30" x="63.623047"/>
       <use xlink:href="#DejaVuSans-30" x="127.246094"/>
       <use xlink:href="#DejaVuSans-30" x="190.869141"/>
      </g>
     </g>
    </g>
    <g id="xtick_4">
     <g id="line2d_4">
      <g>
       <use xlink:href="#mae013ddeca" x="839.653087" y="512.64" style="stroke: #000000; stroke-width: 0.8"/>
      </g>
     </g>
     <g id="text_4">
      <!-- 1500 -->
      <g transform="translate(826.928087 527.238438) scale(0.1 -0.1)">
       <use xlink:href="#DejaVuSans-31"/>
       <use xlink:href="#DejaVuSans-35" x="63.623047"/>
       <use xlink:href="#DejaVuSans-30" x="127.246094"/>
       <use xlink:href="#DejaVuSans-30" x="190.869141"/>
      </g>
     </g>
    </g>
    <g id="xtick_5">
     <g id="line2d_5">
      <g>
       <use xlink:href="#mae013ddeca" x="1042.95926" y="512.64" style="stroke: #000000; stroke-width: 0.8"/>
      </g>
     </g>
     <g id="text_5">
      <!-- 2000 -->
      <g transform="translate(1030.23426 527.238438) scale(0.1 -0.1)">
       <defs>
        <path id="DejaVuSans-32" d="M 1228 531 
L 3431 531 
L 3431 0 
L 469 0 
L 469 531 
Q 828 903 1448 1529 
Q 2069 2156 2228 2338 
Q 2531 2678 2651 2914 
Q 2772 3150 2772 3378 
Q 2772 3750 2511 3984 
Q 2250 4219 1831 4219 
Q 1534 4219 1204 4116 
Q 875 4013 500 3803 
L 500 4441 
Q 881 4594 1212 4672 
Q 1544 4750 1819 4750 
Q 2544 4750 2975 4387 
Q 3406 4025 3406 3419 
Q 3406 3131 3298 2873 
Q 3191 2616 2906 2266 
Q 2828 2175 2409 1742 
Q 1991 1309 1228 531 
z
" transform="scale(0.015625)"/>
       </defs>
       <use xlink:href="#DejaVuSans-32"/>
       <use xlink:href="#DejaVuSans-30" x="63.623047"/>
       <use xlink:href="#DejaVuSans-30" x="127.246094"/>
       <use xlink:href="#DejaVuSans-30" x="190.869141"/>
      </g>
     </g>
    </g>
    <g id="xtick_6">
     <g id="line2d_6">
      <g>
       <use xlink:href="#mae013ddeca" x="1246.265433" y="512.64" style="stroke: #000000; stroke-width: 0.8"/>
      </g>
     </g>
     <g id="text_6">
      <!-- 2500 -->
      <g transform="translate(1233.540433 527.238438) scale(0.1 -0.1)">
       <use xlink:href="#DejaVuSans-32"/>
       <use xlink:href="#DejaVuSans-35" x="63.623047"/>
       <use xlink:href="#DejaVuSans-30" x="127.246094"/>
       <use xlink:href="#DejaVuSans-30" x="190.869141"/>
      </g>
     </g>
    </g>
   </g>
   <g id="matplotlib.axis_2">
    <g id="ytick_1">
     <g id="line2d_7">
      <defs>
       <path id="mde72ed1254" d="M 0 0 
L -3.5 0 
" style="stroke: #000000; stroke-width: 0.8"/>
      </defs>
      <g>
       <use xlink:href="#mde72ed1254" x="180" y="482.494521" style="stroke: #000000; stroke-width: 0.8"/>
      </g>
     </g>
     <g id="text_7">
      <!-- −2 -->
      <g transform="translate(158.257812 486.29374) scale(0.1 -0.1)">
       <defs>
        <path id="DejaVuSans-2212" d="M 678 2272 
L 4684 2272 
L 4684 1741 
L 678 1741 
L 678 2272 
z
" transform="scale(0.015625)"/>
       </defs>
       <use xlink:href="#DejaVuSans-2212"/>
       <use xlink:href="#DejaVuSans-32" x="83.789062"/>
      </g>
     </g>
    </g>
    <g id="ytick_2">
     <g id="line2d_8">
      <g>
       <use xlink:href="#mde72ed1254" x="180" y="412.957305" style="stroke: #000000; stroke-width: 0.8"/>
      </g>
     </g>
     <g id="text_8">
      <!-- −1 -->
      <g transform="translate(158.257812 416.756524) scale(0.1 -0.1)">
       <use xlink:href="#DejaVuSans-2212"/>
       <use xlink:href="#DejaVuSans-31" x="83.789062"/>
      </g>
     </g>
    </g>
    <g id="ytick_3">
     <g id="line2d_9">
      <g>
       <use xlink:href="#mde72ed1254" x="180" y="343.42009" style="stroke: #000000; stroke-width: 0.8"/>
      </g>
     </g>
     <g id="text_9">
      <!-- 0 -->
      <g transform="translate(166.6375 347.219308) scale(0.1 -0.1)">
       <use xlink:href="#DejaVuSans-30"/>
      </g>
     </g>
    </g>
    <g id="ytick_4">
     <g id="line2d_10">
      <g>
       <use xlink:href="#mde72ed1254" x="180" y="273.882874" style="stroke: #000000; stroke-width: 0.8"/>
      </g>
     </g>
     <g id="text_10">
      <!-- 1 -->
      <g transform="translate(166.6375 277.682093) scale(0.1 -0.1)">
       <use xlink:href="#DejaVuSans-31"/>
      </g>
     </g>
    </g>
    <g id="ytick_5">
     <g id="line2d_11">
      <g>
       <use xlink:href="#mde72ed1254" x="180" y="204.345658" style="stroke: #000000; stroke-width: 0.8"/>
      </g>
     </g>
     <g id="text_11">
      <!-- 2 -->
      <g transform="translate(166.6375 208.144877) scale(0.1 -0.1)">
       <use xlink:href="#DejaVuSans-32"/>
      </g>
     </g>
    </g>
    <g id="ytick_6">
     <g id="line2d_12">
      <g>
       <use xlink:href="#mde72ed1254" x="180" y="134.808443" style="stroke: #000000; stroke-width: 0.8"/>
      </g>
     </g>
     <g id="text_12">
      <!-- 3 -->
      <g transform="translate(166.6375 138.607662) scale(0.1 -0.1)">
       <defs>
        <path id="DejaVuSans-33" d="M 2597 2516 
Q 3050 2419 3304 2112 
Q 3559 1806 3559 1356 
Q 3559 666 3084 287 
Q 2609 -91 1734 -91 
Q 1441 -91 1130 -33 
Q 819 25 488 141 
L 488 750 
Q 750 597 1062 519 
Q 1375 441 1716 441 
Q 2309 441 2620 675 
Q 2931 909 2931 1356 
Q 2931 1769 2642 2001 
Q 2353 2234 1838 2234 
L 1294 2234 
L 1294 2753 
L 1863 2753 
Q 2328 2753 2575 2939 
Q 2822 3125 2822 3475 
Q 2822 3834 2567 4026 
Q 2313 4219 1838 4219 
Q 1578 4219 1281 4162 
Q 984 4106 628 3988 
L 628 4550 
Q 988 4650 1302 4700 
Q 1616 4750 1894 4750 
Q 2613 4750 3031 4423 
Q 3450 4097 3450 3541 
Q 3450 3153 3228 2886 
Q 3006 2619 2597 2516 
z
" transform="scale(0.015625)"/>
       </defs>
       <use xlink:href="#DejaVuSans-33"/>
      </g>
     </g>
    </g>
   </g>
   <g id="line2d_13">
    <path d="M 230.727273 365.562207 
L 231.719979 365.104127 
L 232.712685 364.134604 
L 234.698096 360.970684 
L 237.676214 354.264181 
L 240.654332 344.094088 
L 242.639744 335.313867 
L 243.63245 329.856848 
L 244.625156 325.04256 
L 245.617862 320.968654 
L 246.610568 310.062874 
L 247.603273 286.646954 
L 248.595979 271.047109 
L 249.588685 290.391324 
L 250.581391 352.342975 
L 251.574097 219.196298 
L 252.566803 175.364307 
L 253.559509 162.328625 
L 254.552215 176.243609 
L 255.544921 227.298837 
L 256.537627 208.582411 
L 257.530333 181.206251 
L 258.523039 185.796557 
L 259.515745 187.122792 
L 260.50845 174.317349 
L 261.501156 181.132062 
L 262.493862 227.911875 
L 263.486568 304.473275 
L 264.479274 273.838375 
L 265.47198 294.574069 
L 266.464686 290.268042 
L 267.457392 251.947436 
L 268.450098 205.978678 
L 269.442804 193.107614 
L 270.43551 223.404851 
L 271.428216 262.324374 
L 272.420922 216.658828 
L 273.413627 228.005781 
L 274.406333 327.308289 
L 276.391745 200.124238 
L 277.384451 160.820737 
L 278.377157 153.378299 
L 279.369863 200.615762 
L 280.362569 185.170976 
L 281.355275 112.303036 
L 282.347981 89.28 
L 283.340687 93.279742 
L 284.333393 126.660052 
L 285.326099 226.659989 
L 286.318804 164.036636 
L 287.31151 134.688655 
L 288.304216 133.180043 
L 289.296922 147.742334 
L 290.289628 194.56024 
L 291.282334 270.338553 
L 292.27504 183.04026 
L 293.267746 176.594414 
L 294.260452 221.6025 
L 295.253158 313.775078 
L 296.245864 231.217829 
L 297.23857 231.33209 
L 298.231276 268.56877 
L 299.223981 288.255989 
L 300.216687 266.416726 
L 301.209393 267.044506 
L 302.202099 289.904178 
L 303.194805 316.339281 
L 304.187511 301.761636 
L 305.180217 282.456157 
L 306.172923 282.574143 
L 307.165629 311.22426 
L 308.158335 305.104923 
L 309.151041 288.18413 
L 310.143747 305.716815 
L 311.136453 320.363563 
L 312.129159 306.643042 
L 313.121864 312.906968 
L 314.11457 320.541323 
L 315.107276 316.461612 
L 316.099982 318.091414 
L 317.092688 320.460698 
L 318.085394 322.000043 
L 320.070806 327.807421 
L 321.063512 327.18612 
L 322.056218 330.547269 
L 323.048924 330.63644 
L 324.04163 335.312163 
L 325.034336 330.559469 
L 326.027041 337.029333 
L 327.019747 335.7212 
L 328.012453 335.191599 
L 329.005159 340.06372 
L 329.997865 339.163638 
L 330.990571 341.434506 
L 331.983277 344.348661 
L 332.975983 345.918668 
L 333.968689 345.23402 
L 334.961395 348.59275 
L 335.954101 346.73685 
L 336.946807 348.103435 
L 337.939513 347.730801 
L 338.932218 347.648594 
L 339.924924 351.327926 
L 340.91763 350.877003 
L 341.910336 354.420175 
L 342.903042 355.994187 
L 343.895748 356.331018 
L 344.888454 352.418238 
L 345.88116 356.900644 
L 346.873866 358.776197 
L 347.866572 358.536692 
L 348.859278 358.003791 
L 349.851984 361.436999 
L 350.84469 361.698344 
L 351.837395 360.351855 
L 352.830101 361.915208 
L 353.822807 362.18156 
L 354.815513 363.735319 
L 355.808219 364.465477 
L 356.800925 370.573257 
L 358.786337 365.380805 
L 359.779043 366.967877 
L 360.771749 368.309943 
L 361.764455 373.058186 
L 362.757161 372.3776 
L 363.749867 372.836089 
L 364.742572 366.16404 
L 365.735278 368.599767 
L 366.727984 373.465491 
L 367.72069 369.194968 
L 368.713396 374.223921 
L 369.706102 372.575572 
L 370.698808 374.7508 
L 371.691514 381.419742 
L 372.68422 375.043567 
L 373.676926 376.184009 
L 374.669632 381.795904 
L 375.662338 380.114497 
L 376.655044 379.905999 
L 378.640455 381.068521 
L 379.633161 380.859732 
L 380.625867 381.467009 
L 381.618573 380.62351 
L 382.611279 380.449153 
L 383.603985 381.383886 
L 384.596691 383.172311 
L 385.589397 386.20697 
L 386.582103 386.711738 
L 387.574809 382.815541 
L 388.567515 384.539489 
L 389.560221 385.612354 
L 390.552927 385.864355 
L 391.545632 387.080075 
L 392.538338 390.706487 
L 393.531044 382.761459 
L 394.52375 391.937733 
L 395.516456 390.680109 
L 396.509162 395.046897 
L 397.501868 384.877298 
L 398.494574 390.679831 
L 399.48728 390.114745 
L 400.479986 387.292705 
L 401.472692 391.064197 
L 402.465398 397.204604 
L 403.458104 393.797384 
L 404.450809 397.733588 
L 405.443515 390.732176 
L 406.436221 400.506622 
L 407.428927 392.16788 
L 408.421633 399.166767 
L 409.414339 392.869007 
L 410.407045 396.595824 
L 411.399751 389.483467 
L 412.392457 394.410596 
L 413.385163 394.790617 
L 414.377869 397.089773 
L 415.370575 394.568716 
L 416.363281 402.247743 
L 417.355986 394.565913 
L 418.348692 404.262577 
L 419.341398 404.152567 
L 420.334104 403.256047 
L 421.32681 397.356155 
L 422.319516 402.706096 
L 423.312222 406.71472 
L 424.304928 408.704854 
L 425.297634 399.500185 
L 426.29034 406.382317 
L 427.283046 403.29468 
L 428.275752 410.387814 
L 429.268458 402.982536 
L 430.261163 397.919583 
L 431.253869 399.101834 
L 432.246575 403.932003 
L 433.239281 408.123775 
L 434.231987 404.67006 
L 435.224693 399.468716 
L 436.217399 402.943958 
L 437.210105 412.942545 
L 438.202811 410.366366 
L 439.195517 402.280419 
L 440.188223 405.66355 
L 441.180929 410.598929 
L 442.173635 411.719965 
L 443.166341 410.223576 
L 444.159046 405.305672 
L 445.151752 407.140109 
L 446.144458 412.295801 
L 447.137164 414.064412 
L 448.12987 415.399352 
L 449.122576 409.085528 
L 450.115282 410.895192 
L 451.107988 405.139956 
L 452.100694 408.47331 
L 453.0934 416.386839 
L 454.086106 418.555839 
L 455.078812 411.093629 
L 456.071518 412.887296 
L 457.064223 417.511714 
L 458.056929 409.824706 
L 459.049635 412.350497 
L 460.042341 418.252935 
L 461.035047 412.484013 
L 463.020459 420.498512 
L 464.013165 418.667234 
L 465.005871 414.002848 
L 465.998577 413.451771 
L 466.991283 425.253107 
L 467.983989 420.032767 
L 468.976695 422.184111 
L 469.9694 427.663506 
L 470.962106 416.838413 
L 471.954812 425.190345 
L 472.947518 412.197451 
L 473.940224 418.260784 
L 474.93293 420.117669 
L 475.925636 420.188387 
L 476.918342 428.793919 
L 477.911048 430.450021 
L 478.903754 413.652952 
L 479.89646 419.194246 
L 480.889166 429.185004 
L 481.881872 422.755628 
L 482.874577 431.620128 
L 484.859989 411.598494 
L 485.852695 422.598772 
L 486.845401 423.172614 
L 487.838107 423.04712 
L 488.830813 429.119127 
L 489.823519 434.152976 
L 490.816225 420.100144 
L 491.808931 416.259538 
L 492.801637 418.706461 
L 493.794343 415.404736 
L 494.787049 417.081425 
L 495.779754 429.583709 
L 496.77246 433.777218 
L 497.765166 429.388957 
L 498.757872 421.165463 
L 499.750578 419.951608 
L 500.743284 422.705491 
L 501.73599 426.0251 
L 502.728696 428.142738 
L 503.721402 426.359845 
L 504.714108 431.970976 
L 505.706814 425.431931 
L 506.69952 426.755995 
L 507.692226 421.607034 
L 508.684932 415.512462 
L 509.677637 429.653519 
L 510.670343 433.369506 
L 511.663049 426.69451 
L 512.655755 426.844369 
L 513.648461 426.716669 
L 514.641167 429.604976 
L 515.633873 436.457405 
L 516.626579 440.198489 
L 517.619285 439.114373 
L 518.611991 422.4508 
L 520.597403 440.6329 
L 521.590109 442.028013 
L 522.582814 425.448623 
L 523.57552 429.934015 
L 524.568226 430.265021 
L 525.560932 435.913106 
L 526.553638 438.825363 
L 528.53905 423.080711 
L 529.531756 433.192566 
L 530.524462 446.83027 
L 531.517168 444.225319 
L 532.509874 438.260627 
L 533.50258 434.454028 
L 534.495286 432.637746 
L 535.487991 441.755834 
L 536.480697 435.375859 
L 537.473403 432.144764 
L 538.466109 445.524567 
L 539.458815 452.352418 
L 540.451521 433.322437 
L 541.444227 433.498358 
L 542.436933 432.194262 
L 543.429639 428.382897 
L 544.422345 431.336651 
L 545.415051 428.580934 
L 546.407757 447.494271 
L 547.400463 437.105966 
L 548.393168 428.150449 
L 549.385874 436.520359 
L 550.37858 439.264746 
L 551.371286 437.536937 
L 552.363992 439.883487 
L 553.356698 441.275736 
L 554.349404 442.191748 
L 555.34211 447.079484 
L 556.334816 437.777072 
L 557.327522 445.640942 
L 558.320228 438.110301 
L 559.312934 435.654178 
L 560.30564 445.587004 
L 561.298345 436.90061 
L 562.291051 439.705557 
L 563.283757 437.425791 
L 564.276463 433.443958 
L 565.269169 444.118622 
L 566.261875 446.285511 
L 567.254581 453.046837 
L 568.247287 432.888164 
L 569.239993 437.196755 
L 570.232699 446.68504 
L 571.225405 448.981717 
L 572.218111 442.605594 
L 573.210817 437.953737 
L 574.203523 438.806164 
L 575.196228 442.061636 
L 576.188934 440.48401 
L 577.18164 434.425793 
L 578.174346 445.84695 
L 579.167052 453.973818 
L 580.159758 447.259998 
L 581.152464 443.618405 
L 582.14517 454.486062 
L 583.137876 443.374855 
L 584.130582 446.320344 
L 585.123288 440.15956 
L 586.115994 448.574808 
L 587.1087 449.865705 
L 588.101405 442.942134 
L 589.094111 441.938888 
L 590.086817 449.244431 
L 591.079523 449.926985 
L 592.072229 450.213281 
L 593.064935 448.745138 
L 594.057641 440.384738 
L 596.043053 448.109734 
L 597.035759 449.024977 
L 598.028465 441.413908 
L 599.021171 450.107191 
L 600.013877 447.518976 
L 601.006582 449.134604 
L 601.999288 453.775666 
L 602.991994 442.591176 
L 603.9847 438.351876 
L 604.977406 453.910197 
L 605.970112 454.529997 
L 607.955524 442.816415 
L 608.94823 441.970786 
L 609.940936 449.910996 
L 610.933642 451.19799 
L 611.926348 452.942597 
L 612.919054 452.603348 
L 613.911759 451.149082 
L 614.904465 442.929081 
L 615.897171 447.237629 
L 616.889877 449.687353 
L 617.882583 444.548534 
L 618.875289 452.089727 
L 619.867995 448.703059 
L 620.860701 450.039332 
L 621.853407 456.541202 
L 622.846113 448.985768 
L 623.838819 457.662088 
L 624.831525 455.760363 
L 625.824231 448.47735 
L 626.816936 451.208692 
L 627.809642 449.776108 
L 628.802348 452.80445 
L 629.795054 461.020835 
L 630.78776 451.997177 
L 631.780466 448.536693 
L 632.773172 447.549869 
L 633.765878 453.20805 
L 634.758584 452.832735 
L 635.75129 454.140265 
L 636.743996 451.899912 
L 637.736702 455.719334 
L 638.729408 453.302223 
L 639.722114 447.799934 
L 640.714819 450.214787 
L 641.707525 454.627132 
L 642.700231 446.409778 
L 643.692937 453.964777 
L 644.685643 457.422481 
L 645.678349 453.43415 
L 646.671055 450.858217 
L 647.663761 455.770796 
L 648.656467 456.969695 
L 649.649173 456.611844 
L 650.641879 453.206388 
L 651.634585 456.513257 
L 652.627291 458.86163 
L 653.619996 454.186268 
L 654.612702 456.807065 
L 655.605408 456.904557 
L 656.598114 455.542821 
L 657.59082 457.361096 
L 658.583526 456.189458 
L 659.576232 455.945117 
L 660.568938 459.07074 
L 661.561644 457.625703 
L 662.55435 459.06682 
L 663.547056 456.318319 
L 664.539762 458.429565 
L 665.532468 458.358694 
L 666.525173 455.187481 
L 667.517879 458.610799 
L 668.510585 455.918191 
L 669.503291 458.419588 
L 670.495997 458.772763 
L 671.488703 460.423769 
L 672.481409 458.061576 
L 673.474115 458.174839 
L 674.466821 459.349789 
L 675.459527 457.82903 
L 676.452233 459.357713 
L 677.444939 459.713718 
L 678.437645 459.666822 
L 679.43035 460.148191 
L 680.423056 459.098778 
L 681.415762 460.5997 
L 682.408468 459.699873 
L 683.401174 461.355328 
L 684.39388 459.730816 
L 685.386586 460.612593 
L 686.379292 460.699983 
L 687.371998 460.027921 
L 688.364704 460.020434 
L 689.35741 460.528123 
L 690.350116 461.34166 
L 691.342822 460.275911 
L 692.335527 460.252763 
L 693.328233 461.24066 
L 694.320939 460.93112 
L 695.313645 462.483669 
L 696.306351 462.406719 
L 697.299057 461.932505 
L 698.291763 462.689265 
L 699.284469 462.775718 
L 700.277175 461.350163 
L 701.269881 462.470701 
L 702.262587 462.180684 
L 703.255293 461.761008 
L 704.247999 462.948741 
L 705.240705 463.342371 
L 707.226116 463.92426 
L 708.218822 463.758048 
L 709.211528 463.921754 
L 710.204234 463.224309 
L 711.19694 464.117384 
L 712.189646 464.415147 
L 713.182352 463.007326 
L 714.175058 463.791969 
L 715.167764 464.022231 
L 716.16047 465.109006 
L 717.153176 463.854239 
L 718.145882 465.46342 
L 719.138587 464.653463 
L 720.131293 464.387918 
L 721.123999 465.44718 
L 722.116705 465.942914 
L 723.109411 464.901036 
L 724.102117 465.013741 
L 725.094823 465.627492 
L 726.087529 465.942497 
L 727.080235 465.710645 
L 728.072941 465.844379 
L 729.065647 464.654079 
L 730.058353 466.247629 
L 731.051059 465.870083 
L 732.043764 466.377433 
L 733.03647 466.244382 
L 734.029176 465.997189 
L 735.021882 466.787264 
L 736.014588 466.566856 
L 737.007294 467.496561 
L 738 467.602366 
L 738.992706 466.914122 
L 739.985412 466.909604 
L 740.978118 467.864851 
L 741.970824 466.944479 
L 742.96353 466.455494 
L 744.948941 467.985521 
L 745.941647 467.610947 
L 746.934353 468.567932 
L 747.927059 467.751038 
L 748.919765 468.445843 
L 749.912471 467.803865 
L 750.905177 468.658686 
L 751.897883 468.225084 
L 752.890589 467.949576 
L 753.883295 467.902159 
L 755.868707 468.502267 
L 756.861413 467.928365 
L 757.854118 468.940509 
L 758.846824 468.639501 
L 759.83953 469.435271 
L 761.824942 469.306443 
L 762.817648 469.987909 
L 763.810354 468.81275 
L 764.80306 469.027759 
L 765.795766 469.696355 
L 766.788472 469.201665 
L 767.781178 470.398864 
L 768.773884 470.155234 
L 769.76659 470.795977 
L 770.759295 470.110814 
L 771.752001 470.838784 
L 772.744707 469.990422 
L 773.737413 470.111817 
L 774.730119 470.680171 
L 775.722825 470.234297 
L 776.715531 471.157696 
L 777.708237 470.581939 
L 778.700943 470.829572 
L 779.693649 471.972914 
L 780.686355 471.255518 
L 781.679061 470.728877 
L 782.671767 470.796196 
L 783.664473 472.294875 
L 784.657178 472.088523 
L 785.649884 470.853845 
L 786.64259 472.412876 
L 787.635296 471.000255 
L 788.628002 471.847038 
L 789.620708 471.858467 
L 790.613414 472.105109 
L 791.60612 472.177962 
L 792.598826 473.45166 
L 793.591532 472.197648 
L 794.584238 472.070309 
L 795.576944 472.777882 
L 796.56965 472.814711 
L 797.562355 472.368182 
L 798.555061 472.180319 
L 799.547767 472.711585 
L 800.540473 472.803738 
L 801.533179 473.326364 
L 802.525885 474.025112 
L 803.518591 473.625977 
L 804.511297 473.063842 
L 805.504003 472.78784 
L 806.496709 473.22245 
L 807.489415 473.459452 
L 808.482121 472.940451 
L 809.474827 473.491665 
L 810.467532 474.576238 
L 811.460238 473.767871 
L 812.452944 473.526193 
L 813.44565 474.856694 
L 814.438356 474.083443 
L 815.431062 474.547726 
L 816.423768 473.895482 
L 817.416474 474.740986 
L 818.40918 474.638495 
L 819.401886 475.25362 
L 820.394592 474.03059 
L 821.387298 474.397216 
L 822.380004 475.217347 
L 823.372709 474.947776 
L 824.365415 475.108163 
L 825.358121 475.102588 
L 826.350827 474.810962 
L 827.343533 474.799512 
L 829.328945 475.782323 
L 830.321651 475.177137 
L 831.314357 475.227933 
L 832.307063 475.152953 
L 833.299769 476.162542 
L 834.292475 476.2329 
L 835.285181 476.044886 
L 836.277886 476.110115 
L 837.270592 476.623327 
L 838.263298 476.861647 
L 839.256004 476.484864 
L 840.24871 475.485521 
L 841.241416 476.71587 
L 842.234122 476.384954 
L 843.226828 476.509242 
L 844.219534 476.935471 
L 845.21224 476.367364 
L 846.204946 476.987477 
L 847.197652 476.969099 
L 849.183064 477.633927 
L 850.175769 476.931949 
L 851.168475 476.916614 
L 852.161181 477.987687 
L 853.153887 478.225175 
L 854.146593 478.325071 
L 855.139299 478.065125 
L 856.132005 478.489793 
L 857.124711 476.731876 
L 858.117417 477.579781 
L 859.110123 478.80788 
L 860.102829 478.24669 
L 861.095535 478.294591 
L 862.088241 477.979606 
L 863.080946 477.881033 
L 864.073652 477.574911 
L 865.066358 477.780689 
L 867.05177 478.826251 
L 868.044476 478.32027 
L 869.037182 479.004464 
L 870.029888 478.843156 
L 872.0153 477.909734 
L 873.008006 477.987654 
L 874.993418 479.195188 
L 875.986123 479.480393 
L 876.978829 479.434701 
L 877.971535 479.510476 
L 878.964241 479.345439 
L 879.956947 479.671898 
L 880.949653 480.337643 
L 881.942359 479.544635 
L 882.935065 478.967184 
L 883.927771 478.83662 
L 884.920477 479.815553 
L 885.913183 479.061212 
L 886.905889 480.060105 
L 887.898595 479.4158 
L 888.8913 479.486399 
L 890.876712 480.040703 
L 892.862124 479.600481 
L 893.85483 479.559501 
L 895.840242 480.580149 
L 896.832948 479.649187 
L 897.825654 480.441668 
L 898.81836 480.774712 
L 899.811066 480.593157 
L 900.803772 480.551027 
L 901.796477 481.045711 
L 902.789183 480.412966 
L 903.781889 481.641756 
L 904.774595 481.257839 
L 905.767301 482.099262 
L 906.760007 480.638661 
L 907.752713 480.508942 
L 908.745419 481.053837 
L 909.738125 481.289349 
L 911.723537 482.078821 
L 912.716243 481.528001 
L 915.69436 481.015597 
L 916.687066 481.61639 
L 917.679772 481.327304 
L 918.672478 482.507058 
L 919.665184 481.696337 
L 920.65789 481.685912 
L 921.650596 482.507993 
L 922.643302 481.983946 
L 923.636008 482.149101 
L 924.628714 481.982604 
L 926.614126 482.6589 
L 927.606832 481.566501 
L 928.599537 482.965068 
L 929.592243 481.725582 
L 930.584949 483.285404 
L 931.577655 483.316542 
L 932.570361 482.76103 
L 933.563067 482.581138 
L 934.555773 482.728272 
L 935.548479 481.653509 
L 936.541185 482.973826 
L 937.533891 482.991573 
L 938.526597 483.914966 
L 939.519303 482.364891 
L 940.512009 483.529721 
L 941.504714 483.064865 
L 942.49742 482.776422 
L 943.490126 484.251556 
L 944.482832 483.930498 
L 945.475538 483.261557 
L 946.468244 483.534896 
L 948.453656 483.774073 
L 949.446362 485.055566 
L 950.439068 483.687192 
L 951.431774 484.081391 
L 952.42448 483.652567 
L 953.417186 483.843585 
L 954.409891 482.915298 
L 955.402597 483.130719 
L 956.395303 484.457698 
L 957.388009 484.808676 
L 958.380715 484.100954 
L 960.366127 484.292823 
L 961.358833 485.35116 
L 962.351539 484.280144 
L 963.344245 484.030559 
L 964.336951 484.664811 
L 965.329657 483.963979 
L 966.322363 483.943421 
L 967.315068 484.428398 
L 968.307774 483.948959 
L 969.30048 484.309997 
L 970.293186 484.922815 
L 971.285892 484.508913 
L 972.278598 485.01183 
L 974.26401 484.764882 
L 975.256716 484.97631 
L 976.249422 484.812085 
L 977.242128 485.755796 
L 978.234834 485.66697 
L 979.22754 484.835224 
L 980.220246 485.57251 
L 981.212951 485.008441 
L 982.205657 484.743704 
L 983.198363 486.081669 
L 984.191069 485.984801 
L 985.183775 486.075672 
L 986.176481 485.686984 
L 987.169187 484.971528 
L 988.161893 486.04834 
L 989.154599 485.454565 
L 990.147305 486.120247 
L 991.140011 486.18979 
L 992.132717 484.785487 
L 993.125423 485.074573 
L 994.118128 486.405748 
L 995.110834 486.144281 
L 996.10354 485.481803 
L 997.096246 485.506168 
L 998.088952 486.013809 
L 999.081658 485.890013 
L 1000.074364 485.559784 
L 1001.06707 485.770873 
L 1002.059776 485.75678 
L 1003.052482 486.847165 
L 1004.045188 486.569254 
L 1005.037894 486.419464 
L 1006.0306 485.895433 
L 1007.023305 486.146731 
L 1008.016011 486.075712 
L 1010.001423 487.064438 
L 1010.994129 487.28767 
L 1011.986835 486.338737 
L 1012.979541 486.451789 
L 1013.972247 486.378573 
L 1014.964953 486.609692 
L 1015.957659 486.313754 
L 1016.950365 486.57677 
L 1017.943071 486.529655 
L 1018.935777 487.119519 
L 1019.928482 487.182855 
L 1020.921188 486.816034 
L 1021.913894 488.483554 
L 1022.9066 487.767027 
L 1023.899306 486.705584 
L 1024.892012 485.901434 
L 1026.877424 487.772896 
L 1027.87013 487.180393 
L 1030.848248 487.203719 
L 1032.833659 487.543455 
L 1033.826365 487.072427 
L 1034.819071 488.464864 
L 1035.811777 488.122891 
L 1036.804483 487.90687 
L 1037.797189 486.894715 
L 1038.789895 488.080651 
L 1039.782601 487.613822 
L 1040.775307 488.221077 
L 1041.768013 487.678653 
L 1042.760719 487.904567 
L 1043.753425 488.67377 
L 1044.746131 487.664906 
L 1045.738837 487.308618 
L 1046.731542 488.191997 
L 1047.724248 488.380824 
L 1048.716954 488.318054 
L 1049.70966 486.935021 
L 1050.702366 488.281168 
L 1051.695072 487.916682 
L 1052.687778 487.745608 
L 1053.680484 488.853829 
L 1054.67319 487.492197 
L 1055.665896 488.828874 
L 1056.658602 487.977541 
L 1057.651308 487.928149 
L 1058.644014 488.569841 
L 1059.636719 488.197488 
L 1060.629425 487.95218 
L 1061.622131 489.236829 
L 1062.614837 489.466368 
L 1063.607543 488.490012 
L 1064.600249 488.523098 
L 1065.592955 487.778697 
L 1066.585661 488.644119 
L 1068.571073 489.122265 
L 1069.563779 488.557708 
L 1070.556485 488.301168 
L 1071.549191 488.558957 
L 1072.541896 489.21363 
L 1073.534602 488.870178 
L 1074.527308 487.699724 
L 1075.520014 489.296861 
L 1076.51272 488.26928 
L 1077.505426 488.825984 
L 1078.498132 488.084482 
L 1079.490838 489.433633 
L 1080.483544 489.418377 
L 1081.47625 490.006592 
L 1082.468956 488.523483 
L 1083.461662 488.999477 
L 1084.454368 489.981996 
L 1085.447073 488.981431 
L 1087.432485 489.452994 
L 1088.425191 489.171562 
L 1089.417897 488.598416 
L 1090.410603 489.193565 
L 1091.403309 489.943622 
L 1092.396015 490.047345 
L 1093.388721 489.995027 
L 1094.381427 489.091896 
L 1095.374133 489.522994 
L 1096.366839 489.2024 
L 1097.359545 489.126482 
L 1098.35225 489.53878 
L 1099.344956 489.000631 
L 1100.337662 489.671664 
L 1101.330368 489.831074 
L 1102.323074 489.846547 
L 1103.31578 489.674553 
L 1105.301192 490.170867 
L 1106.293898 490.66034 
L 1107.286604 490.619545 
L 1108.27931 489.972516 
L 1109.272016 489.801104 
L 1110.264722 490.257132 
L 1111.257428 489.121631 
L 1112.250133 490.113179 
L 1113.242839 489.781867 
L 1114.235545 489.14835 
L 1115.228251 489.408431 
L 1117.213663 490.503097 
L 1118.206369 490.010734 
L 1120.191781 489.546931 
L 1121.184487 490.267794 
L 1122.177193 489.888362 
L 1123.169899 490.022788 
L 1124.162605 489.463793 
L 1125.15531 490.138807 
L 1126.148016 490.076115 
L 1127.140722 490.455497 
L 1128.133428 489.304545 
L 1129.126134 489.721607 
L 1130.11884 489.993543 
L 1131.111546 490.008344 
L 1132.104252 490.859068 
L 1133.096958 490.499908 
L 1134.089664 491.098158 
L 1135.08237 490.942071 
L 1136.075076 490.340655 
L 1137.067782 490.980913 
L 1138.060487 490.186137 
L 1139.053193 490.30766 
L 1140.045899 490.041702 
L 1141.038605 490.092835 
L 1142.031311 490.322635 
L 1143.024017 490.092833 
L 1144.016723 490.590489 
L 1145.009429 490.384396 
L 1146.002135 490.68081 
L 1146.994841 491.101804 
L 1147.987547 491.033503 
L 1148.980253 491.236519 
L 1149.972959 490.2465 
L 1150.965664 490.360737 
L 1151.95837 490.980821 
L 1152.951076 490.897215 
L 1153.943782 490.204485 
L 1154.936488 490.742786 
L 1155.929194 490.651364 
L 1156.9219 491.048413 
L 1157.914606 490.37403 
L 1158.907312 491.479986 
L 1159.900018 491.124198 
L 1160.892724 489.930887 
L 1161.88543 491.270178 
L 1162.878136 491.016396 
L 1163.870841 490.127604 
L 1164.863547 490.015239 
L 1165.856253 490.552797 
L 1166.848959 490.730445 
L 1167.841665 490.385959 
L 1168.834371 490.487614 
L 1170.819783 491.003728 
L 1171.812489 491.104534 
L 1172.805195 491.47809 
L 1173.797901 491.074468 
L 1174.790607 491.035419 
L 1175.783313 490.367439 
L 1176.776019 491.687304 
L 1177.768724 491.802021 
L 1178.76143 491.433564 
L 1179.754136 490.881666 
L 1180.746842 492.48 
L 1181.739548 491.510473 
L 1182.732254 491.653273 
L 1183.72496 491.150153 
L 1184.717666 491.209665 
L 1185.710372 491.441666 
L 1186.703078 491.539885 
L 1187.695784 489.949797 
L 1189.681196 490.778392 
L 1190.673901 491.464903 
L 1191.666607 491.226157 
L 1192.659313 490.561319 
L 1193.652019 491.319454 
L 1194.644725 490.654337 
L 1195.637431 490.94866 
L 1196.630137 491.684327 
L 1198.615549 490.891093 
L 1199.608255 491.592433 
L 1200.600961 490.614646 
L 1201.593667 491.349649 
L 1202.586373 490.738383 
L 1203.579078 491.132554 
L 1204.571784 491.839386 
L 1205.56449 491.89566 
L 1206.557196 491.692473 
L 1207.549902 490.856743 
L 1208.542608 492.247612 
L 1209.535314 491.130928 
L 1210.52802 490.450019 
L 1211.520726 490.750184 
L 1212.513432 491.251534 
L 1213.506138 491.222438 
L 1214.498844 491.507687 
L 1215.49155 490.622636 
L 1216.484255 491.7175 
L 1217.476961 491.02329 
L 1218.469667 491.063152 
L 1220.455079 491.924298 
L 1221.447785 492.375412 
L 1222.440491 491.294572 
L 1223.433197 491.770424 
L 1224.425903 490.768596 
L 1225.418609 490.73376 
L 1227.404021 491.649212 
L 1228.396727 491.645918 
L 1229.389432 490.843488 
L 1230.382138 491.595541 
L 1231.374844 490.942869 
L 1232.36755 491.699749 
L 1233.360256 490.415359 
L 1234.352962 491.709503 
L 1235.345668 491.622504 
L 1236.338374 491.249104 
L 1237.33108 491.120663 
L 1238.323786 491.699047 
L 1239.316492 490.041612 
L 1240.309198 491.796042 
L 1242.29461 491.843036 
L 1243.287315 490.320953 
L 1244.280021 491.317158 
L 1245.272727 491.306805 
L 1245.272727 491.306805 
" clip-path="url(#p1256146cbb)" style="fill: none; stroke: #1f77b4; stroke-width: 1.5; stroke-linecap: square"/>
   </g>
   <g id="patch_3">
    <path d="M 180 512.64 
L 180 69.12 
" style="fill: none; stroke: #000000; stroke-width: 0.8; stroke-linejoin: miter; stroke-linecap: square"/>
   </g>
   <g id="patch_4">
    <path d="M 1296 512.64 
L 1296 69.12 
" style="fill: none; stroke: #000000; stroke-width: 0.8; stroke-linejoin: miter; stroke-linecap: square"/>
   </g>
   <g id="patch_5">
    <path d="M 180 512.64 
L 1296 512.64 
" style="fill: none; stroke: #000000; stroke-width: 0.8; stroke-linejoin: miter; stroke-linecap: square"/>
   </g>
   <g id="patch_6">
    <path d="M 180 69.12 
L 1296 69.12 
" style="fill: none; stroke: #000000; stroke-width: 0.8; stroke-linejoin: miter; stroke-linecap: square"/>
   </g>
   <g id="text_13">
    <!-- source14-receiver1 -->
    <g transform="translate(544.9 60.80125) scale(0.4 -0.4)">
     <defs>
      <path id="DejaVuSans-73" d="M 2834 3397 
L 2834 2853 
Q 2591 2978 2328 3040 
Q 2066 3103 1784 3103 
Q 1356 3103 1142 2972 
Q 928 2841 928 2578 
Q 928 2378 1081 2264 
Q 1234 2150 1697 2047 
L 1894 2003 
Q 2506 1872 2764 1633 
Q 3022 1394 3022 966 
Q 3022 478 2636 193 
Q 2250 -91 1575 -91 
Q 1294 -91 989 -36 
Q 684 19 347 128 
L 347 722 
Q 666 556 975 473 
Q 1284 391 1588 391 
Q 1994 391 2212 530 
Q 2431 669 2431 922 
Q 2431 1156 2273 1281 
Q 2116 1406 1581 1522 
L 1381 1569 
Q 847 1681 609 1914 
Q 372 2147 372 2553 
Q 372 3047 722 3315 
Q 1072 3584 1716 3584 
Q 2034 3584 2315 3537 
Q 2597 3491 2834 3397 
z
" transform="scale(0.015625)"/>
      <path id="DejaVuSans-6f" d="M 1959 3097 
Q 1497 3097 1228 2736 
Q 959 2375 959 1747 
Q 959 1119 1226 758 
Q 1494 397 1959 397 
Q 2419 397 2687 759 
Q 2956 1122 2956 1747 
Q 2956 2369 2687 2733 
Q 2419 3097 1959 3097 
z
M 1959 3584 
Q 2709 3584 3137 3096 
Q 3566 2609 3566 1747 
Q 3566 888 3137 398 
Q 2709 -91 1959 -91 
Q 1206 -91 779 398 
Q 353 888 353 1747 
Q 353 2609 779 3096 
Q 1206 3584 1959 3584 
z
" transform="scale(0.015625)"/>
      <path id="DejaVuSans-75" d="M 544 1381 
L 544 3500 
L 1119 3500 
L 1119 1403 
Q 1119 906 1312 657 
Q 1506 409 1894 409 
Q 2359 409 2629 706 
Q 2900 1003 2900 1516 
L 2900 3500 
L 3475 3500 
L 3475 0 
L 2900 0 
L 2900 538 
Q 2691 219 2414 64 
Q 2138 -91 1772 -91 
Q 1169 -91 856 284 
Q 544 659 544 1381 
z
M 1991 3584 
L 1991 3584 
z
" transform="scale(0.015625)"/>
      <path id="DejaVuSans-72" d="M 2631 2963 
Q 2534 3019 2420 3045 
Q 2306 3072 2169 3072 
Q 1681 3072 1420 2755 
Q 1159 2438 1159 1844 
L 1159 0 
L 581 0 
L 581 3500 
L 1159 3500 
L 1159 2956 
Q 1341 3275 1631 3429 
Q 1922 3584 2338 3584 
Q 2397 3584 2469 3576 
Q 2541 3569 2628 3553 
L 2631 2963 
z
" transform="scale(0.015625)"/>
      <path id="DejaVuSans-63" d="M 3122 3366 
L 3122 2828 
Q 2878 2963 2633 3030 
Q 2388 3097 2138 3097 
Q 1578 3097 1268 2742 
Q 959 2388 959 1747 
Q 959 1106 1268 751 
Q 1578 397 2138 397 
Q 2388 397 2633 464 
Q 2878 531 3122 666 
L 3122 134 
Q 2881 22 2623 -34 
Q 2366 -91 2075 -91 
Q 1284 -91 818 406 
Q 353 903 353 1747 
Q 353 2603 823 3093 
Q 1294 3584 2113 3584 
Q 2378 3584 2631 3529 
Q 2884 3475 3122 3366 
z
" transform="scale(0.015625)"/>
      <path id="DejaVuSans-65" d="M 3597 1894 
L 3597 1613 
L 953 1613 
Q 991 1019 1311 708 
Q 1631 397 2203 397 
Q 2534 397 2845 478 
Q 3156 559 3463 722 
L 3463 178 
Q 3153 47 2828 -22 
Q 2503 -91 2169 -91 
Q 1331 -91 842 396 
Q 353 884 353 1716 
Q 353 2575 817 3079 
Q 1281 3584 2069 3584 
Q 2775 3584 3186 3129 
Q 3597 2675 3597 1894 
z
M 3022 2063 
Q 3016 2534 2758 2815 
Q 2500 3097 2075 3097 
Q 1594 3097 1305 2825 
Q 1016 2553 972 2059 
L 3022 2063 
z
" transform="scale(0.015625)"/>
      <path id="DejaVuSans-34" d="M 2419 4116 
L 825 1625 
L 2419 1625 
L 2419 4116 
z
M 2253 4666 
L 3047 4666 
L 3047 1625 
L 3713 1625 
L 3713 1100 
L 3047 1100 
L 3047 0 
L 2419 0 
L 2419 1100 
L 313 1100 
L 313 1709 
L 2253 4666 
z
" transform="scale(0.015625)"/>
      <path id="DejaVuSans-2d" d="M 313 2009 
L 1997 2009 
L 1997 1497 
L 313 1497 
L 313 2009 
z
" transform="scale(0.015625)"/>
      <path id="DejaVuSans-69" d="M 603 3500 
L 1178 3500 
L 1178 0 
L 603 0 
L 603 3500 
z
M 603 4863 
L 1178 4863 
L 1178 4134 
L 603 4134 
L 603 4863 
z
" transform="scale(0.015625)"/>
      <path id="DejaVuSans-76" d="M 191 3500 
L 800 3500 
L 1894 563 
L 2988 3500 
L 3597 3500 
L 2284 0 
L 1503 0 
L 191 3500 
z
" transform="scale(0.015625)"/>
     </defs>
     <use xlink:href="#DejaVuSans-73"/>
     <use xlink:href="#DejaVuSans-6f" x="52.099609"/>
     <use xlink:href="#DejaVuSans-75" x="113.28125"/>
     <use xlink:href="#DejaVuSans-72" x="176.660156"/>
     <use xlink:href="#DejaVuSans-63" x="215.523438"/>
     <use xlink:href="#DejaVuSans-65" x="270.503906"/>
     <use xlink:href="#DejaVuSans-31" x="332.027344"/>
     <use xlink:href="#DejaVuSans-34" x="395.650391"/>
     <use xlink:href="#DejaVuSans-2d" x="459.273438"/>
     <use xlink:href="#DejaVuSans-72" x="495.357422"/>
     <use xlink:href="#DejaVuSans-65" x="534.220703"/>
     <use xlink:href="#DejaVuSans-63" x="595.744141"/>
     <use xlink:href="#DejaVuSans-65" x="650.724609"/>
     <use xlink:href="#DejaVuSans-69" x="712.248047"/>
     <use xlink:href="#DejaVuSans-76" x="740.03125"/>
     <use xlink:href="#DejaVuSans-65" x="799.210938"/>
     <use xlink:href="#DejaVuSans-72" x="860.734375"/>
     <use xlink:href="#DejaVuSans-31" x="901.847656"/>
    </g>
   </g>
  </g>
 </g>
 <defs>
  <clipPath id="p1256146cbb">
   <rect x="180" y="69.12" width="1116" height="443.52"/>
  </clipPath>
 </defs>
</svg>
