<?xml version="1.0" encoding="utf-8" standalone="no"?>
<!DOCTYPE svg PUBLIC "-//W3C//DTD SVG 1.1//EN"
  "http://www.w3.org/Graphics/SVG/1.1/DTD/svg11.dtd">
<svg xmlns:xlink="http://www.w3.org/1999/xlink" width="1440pt" height="576pt" viewBox="0 0 1440 576" xmlns="http://www.w3.org/2000/svg" version="1.1">
 <metadata>
  <rdf:RDF xmlns:dc="http://purl.org/dc/elements/1.1/" xmlns:cc="http://creativecommons.org/ns#" xmlns:rdf="http://www.w3.org/1999/02/22-rdf-syntax-ns#">
   <cc:Work>
    <dc:type rdf:resource="http://purl.org/dc/dcmitype/StillImage"/>
    <dc:date>2024-05-22T04:50:05.976940</dc:date>
    <dc:format>image/svg+xml</dc:format>
    <dc:creator>
     <cc:Agent>
      <dc:title>Matplotlib v3.8.3, https://matplotlib.org/</dc:title>
     </cc:Agent>
    </dc:creator>
   </cc:Work>
  </rdf:RDF>
 </metadata>
 <defs>
  <style type="text/css">*{stroke-linejoin: round; stroke-linecap: butt}</style>
 </defs>
 <g id="figure_1">
  <g id="patch_1">
   <path d="M 0 576 
L 1440 576 
L 1440 0 
L 0 0 
z
" style="fill: #ffffff"/>
  </g>
  <g id="axes_1">
   <g id="patch_2">
    <path d="M 180 512.64 
L 1296 512.64 
L 1296 69.12 
L 180 69.12 
z
" style="fill: #ffffff"/>
   </g>
   <g id="matplotlib.axis_1">
    <g id="xtick_1">
     <g id="line2d_1">
      <defs>
       <path id="me169f3c078" d="M 0 0 
L 0 3.5 
" style="stroke: #000000; stroke-width: 0.8"/>
      </defs>
      <g>
       <use xlink:href="#me169f3c078" x="229.734567" y="512.64" style="stroke: #000000; stroke-width: 0.8"/>
      </g>
     </g>
     <g id="text_1">
      <!-- 0 -->
      <g transform="translate(226.553317 527.238438) scale(0.1 -0.1)">
       <defs>
        <path id="DejaVuSans-30" d="M 2034 4250 
Q 1547 4250 1301 3770 
Q 1056 3291 1056 2328 
Q 1056 1369 1301 889 
Q 1547 409 2034 409 
Q 2525 409 2770 889 
Q 3016 1369 3016 2328 
Q 3016 3291 2770 3770 
Q 2525 4250 2034 4250 
z
M 2034 4750 
Q 2819 4750 3233 4129 
Q 3647 3509 3647 2328 
Q 3647 1150 3233 529 
Q 2819 -91 2034 -91 
Q 1250 -91 836 529 
Q 422 1150 422 2328 
Q 422 3509 836 4129 
Q 1250 4750 2034 4750 
z
" transform="scale(0.015625)"/>
       </defs>
       <use xlink:href="#DejaVuSans-30"/>
      </g>
     </g>
    </g>
    <g id="xtick_2">
     <g id="line2d_2">
      <g>
       <use xlink:href="#me169f3c078" x="433.04074" y="512.64" style="stroke: #000000; stroke-width: 0.8"/>
      </g>
     </g>
     <g id="text_2">
      <!-- 500 -->
      <g transform="translate(423.49699 527.238438) scale(0.1 -0.1)">
       <defs>
        <path id="DejaVuSans-35" d="M 691 4666 
L 3169 4666 
L 3169 4134 
L 1269 4134 
L 1269 2991 
Q 1406 3038 1543 3061 
Q 1681 3084 1819 3084 
Q 2600 3084 3056 2656 
Q 3513 2228 3513 1497 
Q 3513 744 3044 326 
Q 2575 -91 1722 -91 
Q 1428 -91 1123 -41 
Q 819 9 494 109 
L 494 744 
Q 775 591 1075 516 
Q 1375 441 1709 441 
Q 2250 441 2565 725 
Q 2881 1009 2881 1497 
Q 2881 1984 2565 2268 
Q 2250 2553 1709 2553 
Q 1456 2553 1204 2497 
Q 953 2441 691 2322 
L 691 4666 
z
" transform="scale(0.015625)"/>
       </defs>
       <use xlink:href="#DejaVuSans-35"/>
       <use xlink:href="#DejaVuSans-30" x="63.623047"/>
       <use xlink:href="#DejaVuSans-30" x="127.246094"/>
      </g>
     </g>
    </g>
    <g id="xtick_3">
     <g id="line2d_3">
      <g>
       <use xlink:href="#me169f3c078" x="636.346913" y="512.64" style="stroke: #000000; stroke-width: 0.8"/>
      </g>
     </g>
     <g id="text_3">
      <!-- 1000 -->
      <g transform="translate(623.621913 527.238438) scale(0.1 -0.1)">
       <defs>
        <path id="DejaVuSans-31" d="M 794 531 
L 1825 531 
L 1825 4091 
L 703 3866 
L 703 4441 
L 1819 4666 
L 2450 4666 
L 2450 531 
L 3481 531 
L 3481 0 
L 794 0 
L 794 531 
z
" transform="scale(0.015625)"/>
       </defs>
       <use xlink:href="#DejaVuSans-31"/>
       <use xlink:href="#DejaVuSans-30" x="63.623047"/>
       <use xlink:href="#DejaVuSans-30" x="127.246094"/>
       <use xlink:href="#DejaVuSans-30" x="190.869141"/>
      </g>
     </g>
    </g>
    <g id="xtick_4">
     <g id="line2d_4">
      <g>
       <use xlink:href="#me169f3c078" x="839.653087" y="512.64" style="stroke: #000000; stroke-width: 0.8"/>
      </g>
     </g>
     <g id="text_4">
      <!-- 1500 -->
      <g transform="translate(826.928087 527.238438) scale(0.1 -0.1)">
       <use xlink:href="#DejaVuSans-31"/>
       <use xlink:href="#DejaVuSans-35" x="63.623047"/>
       <use xlink:href="#DejaVuSans-30" x="127.246094"/>
       <use xlink:href="#DejaVuSans-30" x="190.869141"/>
      </g>
     </g>
    </g>
    <g id="xtick_5">
     <g id="line2d_5">
      <g>
       <use xlink:href="#me169f3c078" x="1042.95926" y="512.64" style="stroke: #000000; stroke-width: 0.8"/>
      </g>
     </g>
     <g id="text_5">
      <!-- 2000 -->
      <g transform="translate(1030.23426 527.238438) scale(0.1 -0.1)">
       <defs>
        <path id="DejaVuSans-32" d="M 1228 531 
L 3431 531 
L 3431 0 
L 469 0 
L 469 531 
Q 828 903 1448 1529 
Q 2069 2156 2228 2338 
Q 2531 2678 2651 2914 
Q 2772 3150 2772 3378 
Q 2772 3750 2511 3984 
Q 2250 4219 1831 4219 
Q 1534 4219 1204 4116 
Q 875 4013 500 3803 
L 500 4441 
Q 881 4594 1212 4672 
Q 1544 4750 1819 4750 
Q 2544 4750 2975 4387 
Q 3406 4025 3406 3419 
Q 3406 3131 3298 2873 
Q 3191 2616 2906 2266 
Q 2828 2175 2409 1742 
Q 1991 1309 1228 531 
z
" transform="scale(0.015625)"/>
       </defs>
       <use xlink:href="#DejaVuSans-32"/>
       <use xlink:href="#DejaVuSans-30" x="63.623047"/>
       <use xlink:href="#DejaVuSans-30" x="127.246094"/>
       <use xlink:href="#DejaVuSans-30" x="190.869141"/>
      </g>
     </g>
    </g>
    <g id="xtick_6">
     <g id="line2d_6">
      <g>
       <use xlink:href="#me169f3c078" x="1246.265433" y="512.64" style="stroke: #000000; stroke-width: 0.8"/>
      </g>
     </g>
     <g id="text_6">
      <!-- 2500 -->
      <g transform="translate(1233.540433 527.238438) scale(0.1 -0.1)">
       <use xlink:href="#DejaVuSans-32"/>
       <use xlink:href="#DejaVuSans-35" x="63.623047"/>
       <use xlink:href="#DejaVuSans-30" x="127.246094"/>
       <use xlink:href="#DejaVuSans-30" x="190.869141"/>
      </g>
     </g>
    </g>
   </g>
   <g id="matplotlib.axis_2">
    <g id="ytick_1">
     <g id="line2d_7">
      <defs>
       <path id="m24e574aa36" d="M 0 0 
L -3.5 0 
" style="stroke: #000000; stroke-width: 0.8"/>
      </defs>
      <g>
       <use xlink:href="#m24e574aa36" x="180" y="446.925633" style="stroke: #000000; stroke-width: 0.8"/>
      </g>
     </g>
     <g id="text_7">
      <!-- −4 -->
      <g transform="translate(158.257812 450.724851) scale(0.1 -0.1)">
       <defs>
        <path id="DejaVuSans-2212" d="M 678 2272 
L 4684 2272 
L 4684 1741 
L 678 1741 
L 678 2272 
z
" transform="scale(0.015625)"/>
        <path id="DejaVuSans-34" d="M 2419 4116 
L 825 1625 
L 2419 1625 
L 2419 4116 
z
M 2253 4666 
L 3047 4666 
L 3047 1625 
L 3713 1625 
L 3713 1100 
L 3047 1100 
L 3047 0 
L 2419 0 
L 2419 1100 
L 313 1100 
L 313 1709 
L 2253 4666 
z
" transform="scale(0.015625)"/>
       </defs>
       <use xlink:href="#DejaVuSans-2212"/>
       <use xlink:href="#DejaVuSans-34" x="83.789062"/>
      </g>
     </g>
    </g>
    <g id="ytick_2">
     <g id="line2d_8">
      <g>
       <use xlink:href="#m24e574aa36" x="180" y="373.428709" style="stroke: #000000; stroke-width: 0.8"/>
      </g>
     </g>
     <g id="text_8">
      <!-- −2 -->
      <g transform="translate(158.257812 377.227928) scale(0.1 -0.1)">
       <use xlink:href="#DejaVuSans-2212"/>
       <use xlink:href="#DejaVuSans-32" x="83.789062"/>
      </g>
     </g>
    </g>
    <g id="ytick_3">
     <g id="line2d_9">
      <g>
       <use xlink:href="#m24e574aa36" x="180" y="299.931786" style="stroke: #000000; stroke-width: 0.8"/>
      </g>
     </g>
     <g id="text_9">
      <!-- 0 -->
      <g transform="translate(166.6375 303.731005) scale(0.1 -0.1)">
       <use xlink:href="#DejaVuSans-30"/>
      </g>
     </g>
    </g>
    <g id="ytick_4">
     <g id="line2d_10">
      <g>
       <use xlink:href="#m24e574aa36" x="180" y="226.434863" style="stroke: #000000; stroke-width: 0.8"/>
      </g>
     </g>
     <g id="text_10">
      <!-- 2 -->
      <g transform="translate(166.6375 230.234082) scale(0.1 -0.1)">
       <use xlink:href="#DejaVuSans-32"/>
      </g>
     </g>
    </g>
    <g id="ytick_5">
     <g id="line2d_11">
      <g>
       <use xlink:href="#m24e574aa36" x="180" y="152.93794" style="stroke: #000000; stroke-width: 0.8"/>
      </g>
     </g>
     <g id="text_11">
      <!-- 4 -->
      <g transform="translate(166.6375 156.737159) scale(0.1 -0.1)">
       <use xlink:href="#DejaVuSans-34"/>
      </g>
     </g>
    </g>
    <g id="ytick_6">
     <g id="line2d_12">
      <g>
       <use xlink:href="#m24e574aa36" x="180" y="79.441017" style="stroke: #000000; stroke-width: 0.8"/>
      </g>
     </g>
     <g id="text_12">
      <!-- 6 -->
      <g transform="translate(166.6375 83.240236) scale(0.1 -0.1)">
       <defs>
        <path id="DejaVuSans-36" d="M 2113 2584 
Q 1688 2584 1439 2293 
Q 1191 2003 1191 1497 
Q 1191 994 1439 701 
Q 1688 409 2113 409 
Q 2538 409 2786 701 
Q 3034 994 3034 1497 
Q 3034 2003 2786 2293 
Q 2538 2584 2113 2584 
z
M 3366 4563 
L 3366 3988 
Q 3128 4100 2886 4159 
Q 2644 4219 2406 4219 
Q 1781 4219 1451 3797 
Q 1122 3375 1075 2522 
Q 1259 2794 1537 2939 
Q 1816 3084 2150 3084 
Q 2853 3084 3261 2657 
Q 3669 2231 3669 1497 
Q 3669 778 3244 343 
Q 2819 -91 2113 -91 
Q 1303 -91 875 529 
Q 447 1150 447 2328 
Q 447 3434 972 4092 
Q 1497 4750 2381 4750 
Q 2619 4750 2861 4703 
Q 3103 4656 3366 4563 
z
" transform="scale(0.015625)"/>
       </defs>
       <use xlink:href="#DejaVuSans-36"/>
      </g>
     </g>
    </g>
   </g>
   <g id="line2d_13">
    <path d="M 230.727273 269.627578 
L 231.719979 277.654263 
L 232.712685 286.907582 
L 233.70539 277.413497 
L 234.698096 273.619217 
L 235.690802 285.99158 
L 236.683508 283.409443 
L 237.676214 288.688526 
L 238.66892 263.80013 
L 239.661626 266.886245 
L 240.654332 275.275584 
L 241.647038 271.378092 
L 242.639744 303.284777 
L 243.63245 259.772804 
L 244.625156 286.070805 
L 245.617862 263.58569 
L 246.610568 258.388916 
L 247.603273 256.853935 
L 248.595979 227.455194 
L 249.588685 229.887801 
L 250.581391 210.722721 
L 251.574097 208.827277 
L 252.566803 238.58394 
L 253.559509 206.151695 
L 254.552215 200.300382 
L 255.544921 197.141272 
L 256.537627 204.173642 
L 257.530333 248.555654 
L 258.523039 199.615316 
L 259.515745 183.195266 
L 260.50845 171.380133 
L 261.501156 187.550569 
L 262.493862 206.854803 
L 263.486568 162.493304 
L 264.479274 153.621086 
L 265.47198 160.960123 
L 266.464686 260.421191 
L 267.457392 156.773969 
L 268.450098 143.366322 
L 269.442804 155.727434 
L 270.43551 188.317311 
L 271.428216 158.162011 
L 272.420922 147.222908 
L 274.406333 165.908634 
L 275.399039 200.062139 
L 276.391745 146.329751 
L 277.384451 133.020089 
L 278.377157 140.255681 
L 279.369863 148.492353 
L 280.362569 139.241134 
L 281.355275 105.938489 
L 282.347981 89.947049 
L 283.340687 89.28 
L 284.333393 100.906404 
L 285.326099 118.07724 
L 286.318804 130.59117 
L 287.31151 129.063018 
L 288.304216 132.376427 
L 289.296922 176.177812 
L 291.282334 150.99654 
L 292.27504 157.46768 
L 293.267746 168.137051 
L 294.260452 204.395843 
L 295.253158 207.216586 
L 296.245864 207.444472 
L 297.23857 201.487402 
L 298.231276 208.837551 
L 299.223981 189.763177 
L 300.216687 195.414806 
L 301.209393 196.210537 
L 303.194805 204.44559 
L 304.187511 206.438272 
L 305.180217 215.121762 
L 306.172923 210.756716 
L 307.165629 220.183853 
L 308.158335 221.982374 
L 309.151041 244.297458 
L 310.143747 253.758301 
L 311.136453 259.609859 
L 312.129159 298.230739 
L 313.121864 290.465951 
L 314.11457 330.574457 
L 315.107276 295.112384 
L 316.099982 294.318495 
L 317.092688 342.233743 
L 318.085394 306.866442 
L 319.0781 286.276641 
L 320.070806 290.9903 
L 321.063512 303.944807 
L 322.056218 280.963836 
L 323.048924 298.961466 
L 324.04163 273.798882 
L 325.034336 283.356086 
L 326.027041 335.268067 
L 327.019747 337.788149 
L 328.012453 309.843462 
L 329.005159 294.500701 
L 329.997865 343.743825 
L 330.990571 298.86372 
L 331.983277 305.961318 
L 332.975983 289.397299 
L 333.968689 278.78742 
L 334.961395 313.707679 
L 335.954101 287.935955 
L 336.946807 296.285689 
L 337.939513 273.2855 
L 338.932218 277.602435 
L 339.924924 292.265461 
L 340.91763 281.735321 
L 341.910336 291.640836 
L 342.903042 276.335545 
L 343.895748 296.860166 
L 344.888454 305.123293 
L 345.88116 294.1309 
L 346.873866 277.559985 
L 347.866572 269.696413 
L 348.859278 283.117844 
L 349.851984 272.677094 
L 350.84469 273.180982 
L 351.837395 263.596044 
L 352.830101 266.362753 
L 353.822807 265.928926 
L 354.815513 251.994227 
L 355.808219 246.399794 
L 356.800925 237.999309 
L 357.793631 239.963188 
L 358.786337 239.069698 
L 359.779043 236.363063 
L 360.771749 236.82403 
L 361.764455 235.147518 
L 362.757161 242.00079 
L 364.742572 233.768188 
L 365.735278 229.205873 
L 366.727984 228.00281 
L 367.72069 232.938492 
L 368.713396 231.56467 
L 369.706102 234.0437 
L 370.698808 233.704978 
L 371.691514 235.346277 
L 372.68422 228.316699 
L 373.676926 217.239751 
L 374.669632 210.236407 
L 375.662338 204.783926 
L 376.655044 204.506966 
L 377.64775 204.672613 
L 378.640455 206.260883 
L 379.633161 212.553894 
L 380.625867 222.243818 
L 381.618573 243.191933 
L 382.611279 250.60391 
L 383.603985 225.13596 
L 384.596691 206.800684 
L 385.589397 196.370701 
L 386.582103 187.686664 
L 387.574809 181.474549 
L 388.567515 178.262896 
L 389.560221 176.481256 
L 390.552927 177.207994 
L 391.545632 179.267903 
L 392.538338 181.626684 
L 393.531044 185.824956 
L 394.52375 190.996051 
L 395.516456 198.384951 
L 396.509162 209.109121 
L 398.494574 228.871607 
L 401.472692 246.239444 
L 402.465398 243.959333 
L 403.458104 244.293093 
L 404.450809 241.867077 
L 405.443515 242.506213 
L 406.436221 248.334908 
L 407.428927 250.868047 
L 408.421633 256.590888 
L 409.414339 259.355568 
L 410.407045 259.207951 
L 412.392457 283.191102 
L 413.385163 297.599574 
L 414.377869 285.207877 
L 415.370575 277.558008 
L 416.363281 284.740228 
L 417.355986 286.369706 
L 418.348692 294.576529 
L 419.341398 284.473704 
L 420.334104 288.262273 
L 421.32681 312.688114 
L 422.319516 329.076006 
L 423.312222 334.559745 
L 424.304928 309.113481 
L 425.297634 325.140885 
L 426.29034 363.788321 
L 427.283046 342.07613 
L 428.275752 326.880731 
L 429.268458 355.732955 
L 430.261163 302.828513 
L 431.253869 293.902507 
L 432.246575 289.258992 
L 433.239281 291.356205 
L 434.231987 316.459856 
L 435.224693 301.687423 
L 436.217399 299.445801 
L 437.210105 290.758468 
L 438.202811 301.357353 
L 439.195517 297.947492 
L 440.188223 281.160513 
L 441.180929 280.874043 
L 442.173635 280.418136 
L 443.166341 295.902223 
L 444.159046 303.216184 
L 445.151752 297.227853 
L 446.144458 297.943667 
L 447.137164 304.247008 
L 448.12987 327.784121 
L 449.122576 293.658619 
L 450.115282 289.543073 
L 451.107988 290.162789 
L 452.100694 304.258929 
L 453.0934 348.206176 
L 454.086106 315.553832 
L 455.078812 327.067713 
L 456.071518 327.013637 
L 457.064223 355.993765 
L 458.056929 303.72711 
L 459.049635 296.16653 
L 460.042341 302.940962 
L 461.035047 317.08661 
L 462.027753 398.058872 
L 463.020459 314.569136 
L 464.013165 317.032186 
L 465.005871 309.952565 
L 465.998577 308.193812 
L 466.991283 288.36135 
L 467.983989 275.267758 
L 468.976695 275.957463 
L 469.9694 274.781455 
L 470.962106 281.157855 
L 471.954812 290.544842 
L 472.947518 286.540766 
L 473.940224 292.407827 
L 474.93293 303.472173 
L 475.925636 321.84798 
L 478.903754 277.846754 
L 479.89646 268.885379 
L 480.889166 264.99847 
L 481.881872 254.749192 
L 482.874577 249.094537 
L 483.867283 247.723184 
L 484.859989 246.923442 
L 485.852695 252.033263 
L 486.845401 255.504913 
L 487.838107 257.835195 
L 490.816225 279.419819 
L 491.808931 279.710855 
L 493.794343 255.96419 
L 494.787049 248.391362 
L 495.779754 239.36749 
L 496.77246 233.378641 
L 497.765166 231.435129 
L 498.757872 230.155458 
L 499.750578 231.683964 
L 501.73599 233.145956 
L 503.721402 241.50041 
L 504.714108 249.02046 
L 505.706814 254.752537 
L 506.69952 256.305742 
L 507.692226 259.511093 
L 508.684932 260.894416 
L 509.677637 266.922394 
L 510.670343 267.929818 
L 511.663049 265.03074 
L 512.655755 266.225042 
L 513.648461 266.805896 
L 514.641167 271.638168 
L 515.633873 280.670632 
L 516.626579 280.50068 
L 517.619285 283.385757 
L 518.611991 280.973742 
L 519.604697 283.548859 
L 520.597403 298.548888 
L 521.590109 297.633841 
L 522.582814 294.492559 
L 523.57552 285.469536 
L 524.568226 285.714623 
L 525.560932 295.169491 
L 526.553638 298.007814 
L 527.546344 297.825191 
L 528.53905 293.870766 
L 529.531756 300.439949 
L 530.524462 327.885743 
L 531.517168 330.374609 
L 533.50258 300.408576 
L 534.495286 316.831034 
L 535.487991 321.678245 
L 536.480697 313.694726 
L 537.473403 303.255668 
L 538.466109 300.891184 
L 539.458815 325.832078 
L 540.451521 326.467515 
L 541.444227 319.542342 
L 542.436933 305.85866 
L 543.429639 306.447261 
L 544.422345 336.394996 
L 545.415051 335.431567 
L 546.407757 338.932645 
L 547.400463 319.744814 
L 548.393168 336.855846 
L 549.385874 370.469923 
L 550.37858 342.601587 
L 551.371286 326.953918 
L 552.363992 320.286997 
L 553.356698 356.705556 
L 554.349404 343.227068 
L 555.34211 336.878173 
L 556.334816 329.464089 
L 557.327522 325.897165 
L 558.320228 377.949411 
L 559.312934 343.423463 
L 560.30564 330.444088 
L 561.298345 321.891617 
L 562.291051 323.870796 
L 563.283757 362.902408 
L 564.276463 375.163266 
L 565.269169 409.894939 
L 566.261875 368.661489 
L 567.254581 348.57291 
L 568.247287 349.604054 
L 569.239993 359.527283 
L 571.225405 330.796566 
L 572.218111 342.484884 
L 573.210817 363.77907 
L 574.203523 340.337064 
L 575.196228 348.690998 
L 576.188934 327.100439 
L 577.18164 317.707355 
L 579.167052 336.228245 
L 580.159758 336.860038 
L 581.152464 340.565057 
L 582.14517 338.099006 
L 583.137876 316.022583 
L 584.130582 301.150598 
L 586.115994 280.764281 
L 587.1087 278.904661 
L 588.101405 277.411078 
L 589.094111 274.335119 
L 590.086817 275.584133 
L 591.079523 272.061471 
L 592.072229 273.207627 
L 594.057641 285.249022 
L 595.050347 296.899788 
L 596.043053 303.212389 
L 597.035759 304.809732 
L 598.028465 314.504741 
L 599.021171 313.690866 
L 600.013877 302.286576 
L 601.006582 299.859368 
L 601.999288 291.700535 
L 602.991994 280.130846 
L 603.9847 273.494603 
L 604.977406 264.697408 
L 605.970112 261.713191 
L 606.962818 260.535789 
L 607.955524 257.145702 
L 608.94823 256.52225 
L 609.940936 254.109637 
L 610.933642 254.063785 
L 611.926348 257.755182 
L 612.919054 260.963081 
L 613.911759 266.866055 
L 614.904465 270.251621 
L 615.897171 271.448453 
L 616.889877 278.532132 
L 618.875289 287.864564 
L 619.867995 284.327813 
L 620.860701 277.559597 
L 621.853407 277.378663 
L 622.846113 275.780741 
L 623.838819 278.626165 
L 624.831525 280.020972 
L 625.824231 277.637064 
L 626.816936 281.22909 
L 627.809642 283.930389 
L 628.802348 293.051319 
L 629.795054 307.483004 
L 630.78776 307.290387 
L 631.780466 310.852141 
L 632.773172 306.210609 
L 633.765878 311.596106 
L 634.758584 313.847426 
L 635.75129 304.529024 
L 636.743996 304.783945 
L 637.736702 301.711661 
L 638.729408 308.453511 
L 639.722114 324.019367 
L 640.714819 325.184658 
L 641.707525 338.521237 
L 642.700231 333.284127 
L 643.692937 337.014034 
L 644.685643 376.445257 
L 645.678349 378.946689 
L 646.671055 388.394618 
L 647.663761 346.651356 
L 648.656467 342.620004 
L 649.649173 366.357546 
L 650.641879 356.451569 
L 651.634585 377.581678 
L 652.627291 351.368637 
L 653.619996 349.717374 
L 654.612702 395.409057 
L 655.605408 370.067913 
L 656.598114 363.804521 
L 657.59082 335.566963 
L 658.583526 344.127453 
L 659.576232 347.960935 
L 660.568938 344.630063 
L 661.561644 352.169208 
L 662.55435 337.626046 
L 664.539762 378.649251 
L 665.532468 389.616694 
L 666.525173 359.048041 
L 667.517879 353.281909 
L 668.510585 375.740422 
L 669.503291 350.776527 
L 670.495997 360.775291 
L 671.488703 345.181735 
L 672.481409 360.585917 
L 673.474115 386.029927 
L 674.466821 366.358663 
L 675.459527 354.238742 
L 676.452233 340.419644 
L 677.444939 348.999251 
L 678.437645 326.362346 
L 679.43035 323.702256 
L 680.423056 318.980545 
L 681.415762 316.79634 
L 682.408468 328.699451 
L 683.401174 324.985549 
L 684.39388 331.772269 
L 685.386586 336.365148 
L 686.379292 342.132101 
L 687.371998 383.740627 
L 688.364704 347.858281 
L 689.35741 345.649277 
L 690.350116 328.687464 
L 691.342822 334.507354 
L 692.335527 330.688256 
L 693.328233 323.176064 
L 694.320939 327.134339 
L 695.313645 321.246073 
L 696.306351 333.207004 
L 697.299057 329.169781 
L 698.291763 323.126498 
L 699.284469 320.586032 
L 700.277175 312.498431 
L 701.269881 317.850715 
L 702.262587 313.173638 
L 703.255293 310.522725 
L 704.247999 312.674292 
L 705.240705 308.902528 
L 707.226116 324.197513 
L 708.218822 324.103111 
L 709.211528 334.699289 
L 710.204234 330.694924 
L 711.19694 320.105697 
L 712.189646 319.386276 
L 714.175058 305.360348 
L 715.167764 305.877312 
L 716.16047 298.806792 
L 717.153176 295.72228 
L 718.145882 295.894439 
L 719.138587 292.772334 
L 720.131293 296.807278 
L 721.123999 298.869373 
L 722.116705 299.303122 
L 723.109411 306.286882 
L 724.102117 306.560152 
L 725.094823 313.684488 
L 726.087529 322.655996 
L 727.080235 321.165508 
L 728.072941 329.195754 
L 729.065647 321.198072 
L 731.051059 322.216147 
L 732.043764 314.538079 
L 733.03647 317.390192 
L 734.029176 312.250556 
L 735.021882 311.189665 
L 736.014588 317.252866 
L 737.007294 314.303319 
L 738 321.822061 
L 738.992706 325.631542 
L 739.985412 326.876653 
L 740.978118 342.695963 
L 741.970824 335.304223 
L 742.96353 342.414628 
L 743.956236 329.799681 
L 744.948941 327.917426 
L 745.941647 328.757568 
L 746.934353 320.762167 
L 747.927059 326.29711 
L 748.919765 320.580305 
L 749.912471 324.097753 
L 750.905177 330.428647 
L 751.897883 326.646177 
L 752.890589 337.206255 
L 753.883295 332.015282 
L 754.876001 340.111995 
L 755.868707 350.772838 
L 756.861413 347.333235 
L 757.854118 367.885195 
L 758.846824 352.587472 
L 759.83953 374.775966 
L 760.832236 364.537448 
L 761.824942 365.226275 
L 762.817648 372.793314 
L 763.810354 360.540102 
L 764.80306 406.976063 
L 765.795766 397.770035 
L 766.788472 439.886565 
L 767.781178 375.693222 
L 768.773884 391.706884 
L 769.76659 357.262968 
L 770.759295 349.808457 
L 771.752001 355.585449 
L 772.744707 343.71031 
L 773.737413 359.934049 
L 774.730119 362.843178 
L 775.722825 363.138967 
L 776.715531 396.381199 
L 777.708237 376.162411 
L 778.700943 417.862821 
L 779.693649 360.635923 
L 780.686355 369.362857 
L 781.679061 358.132584 
L 782.671767 359.328893 
L 783.664473 374.21256 
L 784.657178 353.192716 
L 785.649884 367.476531 
L 786.64259 348.536259 
L 787.635296 351.41875 
L 789.620708 330.841853 
L 790.613414 335.270184 
L 791.60612 327.919748 
L 792.598826 333.035325 
L 793.591532 337.175951 
L 794.584238 331.958881 
L 795.576944 344.408256 
L 796.56965 341.770626 
L 797.562355 353.691545 
L 798.555061 357.221356 
L 799.547767 346.152287 
L 800.540473 354.564574 
L 801.533179 343.361688 
L 802.525885 354.39668 
L 803.518591 352.564931 
L 804.511297 345.512331 
L 805.504003 357.432219 
L 806.496709 347.834034 
L 807.489415 362.649012 
L 808.482121 360.027574 
L 809.474827 347.480383 
L 810.467532 352.769593 
L 811.460238 339.120372 
L 812.452944 341.556005 
L 813.44565 347.050021 
L 814.438356 335.159782 
L 815.431062 338.700173 
L 816.423768 333.66778 
L 817.416474 327.673278 
L 818.40918 336.7352 
L 819.401886 337.022809 
L 820.394592 337.471274 
L 821.387298 350.609741 
L 822.380004 342.060014 
L 823.372709 341.969009 
L 824.365415 353.119855 
L 825.358121 345.905713 
L 826.350827 346.946923 
L 827.343533 363.427642 
L 828.336239 349.355701 
L 829.328945 351.115911 
L 830.321651 351.890311 
L 831.314357 342.919595 
L 832.307063 362.487035 
L 833.299769 354.029519 
L 834.292475 351.081008 
L 836.277886 329.725583 
L 837.270592 334.823543 
L 838.263298 325.063572 
L 839.256004 323.034159 
L 840.24871 318.970105 
L 841.241416 313.179444 
L 842.234122 319.216102 
L 843.226828 318.538222 
L 844.219534 321.352769 
L 845.21224 324.695114 
L 846.204946 320.61598 
L 847.197652 331.152183 
L 848.190358 333.662326 
L 849.183064 338.990932 
L 850.175769 339.756441 
L 851.168475 331.250703 
L 852.161181 342.396738 
L 853.153887 340.907074 
L 854.146593 349.612339 
L 855.139299 353.79127 
L 856.132005 347.267918 
L 857.124711 375.111679 
L 858.117417 383.519844 
L 859.110123 455.912943 
L 860.102829 363.938907 
L 861.095535 368.003819 
L 862.088241 373.011973 
L 863.080946 362.126894 
L 864.073652 375.208449 
L 865.066358 353.051595 
L 866.059064 363.847242 
L 867.05177 391.109929 
L 868.044476 392.803184 
L 869.037182 398.357749 
L 870.029888 366.761778 
L 871.022594 393.074955 
L 872.0153 389.589965 
L 873.008006 399.850737 
L 874.000712 407.556258 
L 874.993418 382.273092 
L 875.986123 387.535382 
L 876.978829 390.874621 
L 877.971535 367.462249 
L 878.964241 351.581872 
L 879.956947 366.25131 
L 880.949653 360.112587 
L 881.942359 354.707843 
L 882.935065 361.288414 
L 883.927771 348.154148 
L 884.920477 363.002627 
L 885.913183 395.483215 
L 886.905889 398.339696 
L 887.898595 389.386748 
L 888.8913 366.011749 
L 889.884006 396.231796 
L 890.876712 381.795081 
L 891.869418 389.029499 
L 892.862124 386.683654 
L 893.85483 371.178603 
L 894.847536 389.388871 
L 895.840242 404.707268 
L 896.832948 376.898612 
L 897.825654 355.848444 
L 898.81836 368.013942 
L 899.811066 360.257177 
L 900.803772 350.318197 
L 901.796477 354.396448 
L 902.789183 342.083279 
L 903.781889 349.425867 
L 904.774595 371.590408 
L 905.767301 368.558497 
L 906.760007 393.188943 
L 907.752713 360.009624 
L 908.745419 369.757318 
L 909.738125 369.560587 
L 910.730831 355.670672 
L 911.723537 352.625918 
L 912.716243 334.750565 
L 913.708949 336.067115 
L 914.701655 338.97117 
L 915.69436 333.665136 
L 916.687066 338.848709 
L 917.679772 328.383874 
L 918.672478 325.487126 
L 919.665184 329.940905 
L 920.65789 325.931484 
L 921.650596 332.067325 
L 922.643302 329.568783 
L 923.636008 323.378469 
L 924.628714 328.272747 
L 925.62142 326.313834 
L 926.614126 329.801891 
L 927.606832 342.269792 
L 928.599537 337.140196 
L 929.592243 338.064285 
L 930.584949 340.385037 
L 931.577655 330.304774 
L 932.570361 330.314844 
L 933.563067 335.52575 
L 934.555773 330.175651 
L 935.548479 334.796094 
L 936.541185 334.070669 
L 937.533891 327.888284 
L 938.526597 337.050491 
L 939.519303 340.340363 
L 940.512009 350.880069 
L 941.504714 363.293939 
L 942.49742 346.555243 
L 943.490126 352.07628 
L 944.482832 340.976277 
L 945.475538 343.250489 
L 946.468244 335.915876 
L 947.46095 325.010277 
L 948.453656 327.100505 
L 949.446362 323.233475 
L 950.439068 326.747809 
L 951.431774 333.75651 
L 952.42448 327.845678 
L 953.417186 333.891482 
L 954.409891 334.346269 
L 955.402597 339.183979 
L 956.395303 357.899387 
L 957.388009 345.802106 
L 958.380715 349.414705 
L 959.373421 339.580351 
L 960.366127 339.161249 
L 961.358833 346.136702 
L 962.351539 334.789989 
L 963.344245 336.55609 
L 964.336951 331.604646 
L 965.329657 329.700039 
L 966.322363 342.481208 
L 967.315068 342.226811 
L 969.30048 355.866015 
L 970.293186 349.505311 
L 971.285892 373.69273 
L 972.278598 391.756044 
L 973.271304 415.634377 
L 974.26401 381.577236 
L 975.256716 370.004417 
L 976.249422 403.154378 
L 977.242128 380.809142 
L 978.234834 400.017132 
L 979.22754 381.809629 
L 980.220246 370.429474 
L 981.212951 405.617222 
L 982.205657 417.478953 
L 983.198363 417.902125 
L 984.191069 391.690355 
L 985.183775 394.98205 
L 986.176481 492.48 
L 987.169187 407.583345 
L 988.161893 445.804738 
L 989.154599 396.538703 
L 990.147305 380.375888 
L 991.140011 400.235846 
L 992.132717 396.161053 
L 993.125423 383.65606 
L 994.118128 429.263474 
L 995.110834 397.274114 
L 996.10354 409.169885 
L 997.096246 401.443339 
L 998.088952 389.951355 
L 999.081658 440.007893 
L 1000.074364 375.054257 
L 1001.06707 380.448277 
L 1003.052482 364.237938 
L 1004.045188 400.113394 
L 1005.037894 382.934797 
L 1006.0306 388.813704 
L 1007.023305 403.870199 
L 1008.016011 385.386774 
L 1009.008717 406.253657 
L 1010.001423 402.627418 
L 1010.994129 429.427391 
L 1011.986835 383.779205 
L 1012.979541 389.607688 
L 1013.972247 450.285448 
L 1014.964953 400.088135 
L 1015.957659 451.266169 
L 1016.950365 421.049623 
L 1017.943071 405.50347 
L 1018.935777 373.291321 
L 1019.928482 376.589945 
L 1020.921188 363.897138 
L 1021.913894 353.855094 
L 1022.9066 364.799377 
L 1023.899306 348.274193 
L 1024.892012 343.584198 
L 1025.884718 343.811684 
L 1026.877424 334.586957 
L 1027.87013 340.345578 
L 1028.862836 340.781021 
L 1029.855542 334.541029 
L 1030.848248 338.86129 
L 1031.840954 331.265756 
L 1032.833659 331.710839 
L 1033.826365 339.466295 
L 1034.819071 335.058917 
L 1035.811777 341.907886 
L 1036.804483 342.868432 
L 1037.797189 338.083897 
L 1038.789895 349.914874 
L 1039.782601 352.90168 
L 1040.775307 355.265711 
L 1041.768013 379.611827 
L 1042.760719 369.295299 
L 1043.753425 364.577856 
L 1044.746131 378.988021 
L 1045.738837 364.075064 
L 1046.731542 364.641318 
L 1047.724248 392.226311 
L 1048.716954 371.474945 
L 1049.70966 385.486216 
L 1050.702366 370.726536 
L 1051.695072 366.321088 
L 1052.687778 382.628813 
L 1053.680484 359.018846 
L 1054.67319 363.557595 
L 1055.665896 349.385963 
L 1056.658602 345.821771 
L 1057.651308 355.659849 
L 1058.644014 346.149032 
L 1059.636719 353.394002 
L 1060.629425 349.572156 
L 1061.622131 346.519138 
L 1062.614837 364.006362 
L 1063.607543 357.835536 
L 1064.600249 372.227939 
L 1065.592955 364.617153 
L 1066.585661 360.248992 
L 1067.578367 375.881784 
L 1068.571073 359.471791 
L 1069.563779 369.141263 
L 1070.556485 353.186506 
L 1071.549191 349.78316 
L 1072.541896 359.206002 
L 1073.534602 350.030549 
L 1074.527308 358.899896 
L 1075.520014 357.074824 
L 1076.51272 350.155576 
L 1077.505426 365.354208 
L 1078.498132 361.908108 
L 1079.490838 368.253275 
L 1080.483544 395.167503 
L 1081.47625 372.23371 
L 1082.468956 394.990557 
L 1083.461662 389.528205 
L 1084.454368 390.504063 
L 1085.447073 409.635544 
L 1086.439779 372.399687 
L 1087.432485 383.432547 
L 1088.425191 369.660032 
L 1089.417897 364.662309 
L 1090.410603 382.812849 
L 1091.403309 361.564664 
L 1092.396015 364.438001 
L 1093.388721 368.287629 
L 1094.381427 357.558857 
L 1095.374133 375.455556 
L 1096.366839 376.099194 
L 1097.359545 371.548899 
L 1098.35225 396.455758 
L 1099.344956 373.578452 
L 1100.337662 387.61216 
L 1101.330368 421.64051 
L 1102.323074 398.908239 
L 1103.31578 442.364659 
L 1104.308486 386.084295 
L 1105.301192 411.53845 
L 1106.293898 409.341541 
L 1107.286604 403.412057 
L 1108.27931 421.792144 
L 1109.272016 386.608903 
L 1110.264722 423.456432 
L 1111.257428 409.640852 
L 1112.250133 434.720618 
L 1113.242839 392.554131 
L 1114.235545 384.213949 
L 1115.228251 414.139463 
L 1116.220957 373.969745 
L 1117.213663 384.258087 
L 1118.206369 367.749147 
L 1119.199075 362.059913 
L 1120.191781 384.08947 
L 1121.184487 367.870023 
L 1122.177193 380.983247 
L 1123.169899 378.902196 
L 1124.162605 373.95638 
L 1125.15531 440.629021 
L 1126.148016 392.901883 
L 1127.140722 411.309897 
L 1128.133428 367.918603 
L 1129.126134 373.098568 
L 1130.11884 365.915926 
L 1131.111546 352.887827 
L 1132.104252 355.865361 
L 1133.096958 341.733358 
L 1134.089664 343.540386 
L 1135.08237 347.352276 
L 1136.075076 339.931549 
L 1137.067782 346.488106 
L 1138.060487 339.898521 
L 1139.053193 338.32985 
L 1140.045899 348.363872 
L 1141.038605 343.628097 
L 1142.031311 350.538336 
L 1143.024017 355.14228 
L 1144.016723 346.83006 
L 1145.009429 357.979856 
L 1146.002135 360.235214 
L 1146.994841 359.836679 
L 1147.987547 387.638817 
L 1148.980253 377.299919 
L 1149.972959 380.404032 
L 1150.965664 413.928494 
L 1151.95837 390.72647 
L 1152.951076 405.98155 
L 1153.943782 406.829271 
L 1154.936488 440.002631 
L 1155.929194 401.291455 
L 1156.9219 390.818159 
L 1157.914606 445.096972 
L 1158.907312 404.104605 
L 1159.900018 393.931547 
L 1160.892724 417.400174 
L 1161.88543 377.52312 
L 1162.878136 364.073626 
L 1163.870841 375.723976 
L 1164.863547 363.301717 
L 1165.856253 360.945476 
L 1166.848959 368.353662 
L 1167.841665 350.881114 
L 1168.834371 357.264806 
L 1169.827077 359.596553 
L 1170.819783 358.139126 
L 1171.812489 377.49498 
L 1172.805195 357.119543 
L 1173.797901 362.831954 
L 1174.790607 361.946704 
L 1175.783313 358.684445 
L 1176.776019 375.030136 
L 1177.768724 355.978968 
L 1178.76143 362.848062 
L 1179.754136 365.039352 
L 1180.746842 364.319512 
L 1181.739548 401.057397 
L 1182.732254 373.48407 
L 1183.72496 388.119123 
L 1184.717666 381.557013 
L 1185.710372 383.899657 
L 1186.703078 410.160663 
L 1187.695784 374.74563 
L 1188.68849 392.726633 
L 1189.681196 380.95417 
L 1190.673901 385.133267 
L 1191.666607 445.584516 
L 1192.659313 390.994907 
L 1193.652019 426.907965 
L 1194.644725 390.70517 
L 1195.637431 393.900486 
L 1196.630137 428.439403 
L 1197.622843 380.7537 
L 1198.615549 387.521439 
L 1199.608255 371.094432 
L 1200.600961 358.073073 
L 1201.593667 370.438431 
L 1202.586373 361.738873 
L 1203.579078 356.48015 
L 1204.571784 361.347562 
L 1205.56449 346.764738 
L 1206.557196 352.29622 
L 1207.549902 360.435557 
L 1208.542608 357.428933 
L 1209.535314 376.520022 
L 1210.52802 359.549232 
L 1211.520726 364.439183 
L 1212.513432 372.684013 
L 1213.506138 364.301271 
L 1214.498844 378.369081 
L 1215.49155 355.531995 
L 1216.484255 358.151585 
L 1217.476961 365.966283 
L 1218.469667 361.027426 
L 1219.462373 387.33394 
L 1220.455079 381.990632 
L 1221.447785 380.531068 
L 1222.440491 419.033521 
L 1223.433197 406.585586 
L 1224.425903 375.628632 
L 1225.418609 376.221589 
L 1226.411315 389.625109 
L 1227.404021 371.014015 
L 1228.396727 388.028572 
L 1229.389432 377.27048 
L 1230.382138 369.00658 
L 1231.374844 403.192743 
L 1232.36755 404.601425 
L 1233.360256 425.104243 
L 1234.352962 377.179663 
L 1235.345668 382.585751 
L 1236.338374 371.412392 
L 1237.33108 358.886118 
L 1238.323786 361.020239 
L 1239.316492 342.227126 
L 1240.309198 340.39842 
L 1241.301904 342.01205 
L 1242.29461 335.467831 
L 1243.287315 342.054995 
L 1244.280021 336.440423 
L 1245.272727 331.552548 
L 1245.272727 331.552548 
" clip-path="url(#p113d50c766)" style="fill: none; stroke: #1f77b4; stroke-width: 1.5; stroke-linecap: square"/>
   </g>
   <g id="patch_3">
    <path d="M 180 512.64 
L 180 69.12 
" style="fill: none; stroke: #000000; stroke-width: 0.8; stroke-linejoin: miter; stroke-linecap: square"/>
   </g>
   <g id="patch_4">
    <path d="M 1296 512.64 
L 1296 69.12 
" style="fill: none; stroke: #000000; stroke-width: 0.8; stroke-linejoin: miter; stroke-linecap: square"/>
   </g>
   <g id="patch_5">
    <path d="M 180 512.64 
L 1296 512.64 
" style="fill: none; stroke: #000000; stroke-width: 0.8; stroke-linejoin: miter; stroke-linecap: square"/>
   </g>
   <g id="patch_6">
    <path d="M 180 69.12 
L 1296 69.12 
" style="fill: none; stroke: #000000; stroke-width: 0.8; stroke-linejoin: miter; stroke-linecap: square"/>
   </g>
   <g id="text_13">
    <!-- source14-receiver11 -->
    <g transform="translate(532.175 60.80125) scale(0.4 -0.4)">
     <defs>
      <path id="DejaVuSans-73" d="M 2834 3397 
L 2834 2853 
Q 2591 2978 2328 3040 
Q 2066 3103 1784 3103 
Q 1356 3103 1142 2972 
Q 928 2841 928 2578 
Q 928 2378 1081 2264 
Q 1234 2150 1697 2047 
L 1894 2003 
Q 2506 1872 2764 1633 
Q 3022 1394 3022 966 
Q 3022 478 2636 193 
Q 2250 -91 1575 -91 
Q 1294 -91 989 -36 
Q 684 19 347 128 
L 347 722 
Q 666 556 975 473 
Q 1284 391 1588 391 
Q 1994 391 2212 530 
Q 2431 669 2431 922 
Q 2431 1156 2273 1281 
Q 2116 1406 1581 1522 
L 1381 1569 
Q 847 1681 609 1914 
Q 372 2147 372 2553 
Q 372 3047 722 3315 
Q 1072 3584 1716 3584 
Q 2034 3584 2315 3537 
Q 2597 3491 2834 3397 
z
" transform="scale(0.015625)"/>
      <path id="DejaVuSans-6f" d="M 1959 3097 
Q 1497 3097 1228 2736 
Q 959 2375 959 1747 
Q 959 1119 1226 758 
Q 1494 397 1959 397 
Q 2419 397 2687 759 
Q 2956 1122 2956 1747 
Q 2956 2369 2687 2733 
Q 2419 3097 1959 3097 
z
M 1959 3584 
Q 2709 3584 3137 3096 
Q 3566 2609 3566 1747 
Q 3566 888 3137 398 
Q 2709 -91 1959 -91 
Q 1206 -91 779 398 
Q 353 888 353 1747 
Q 353 2609 779 3096 
Q 1206 3584 1959 3584 
z
" transform="scale(0.015625)"/>
      <path id="DejaVuSans-75" d="M 544 1381 
L 544 3500 
L 1119 3500 
L 1119 1403 
Q 1119 906 1312 657 
Q 1506 409 1894 409 
Q 2359 409 2629 706 
Q 2900 1003 2900 1516 
L 2900 3500 
L 3475 3500 
L 3475 0 
L 2900 0 
L 2900 538 
Q 2691 219 2414 64 
Q 2138 -91 1772 -91 
Q 1169 -91 856 284 
Q 544 659 544 1381 
z
M 1991 3584 
L 1991 3584 
z
" transform="scale(0.015625)"/>
      <path id="DejaVuSans-72" d="M 2631 2963 
Q 2534 3019 2420 3045 
Q 2306 3072 2169 3072 
Q 1681 3072 1420 2755 
Q 1159 2438 1159 1844 
L 1159 0 
L 581 0 
L 581 3500 
L 1159 3500 
L 1159 2956 
Q 1341 3275 1631 3429 
Q 1922 3584 2338 3584 
Q 2397 3584 2469 3576 
Q 2541 3569 2628 3553 
L 2631 2963 
z
" transform="scale(0.015625)"/>
      <path id="DejaVuSans-63" d="M 3122 3366 
L 3122 2828 
Q 2878 2963 2633 3030 
Q 2388 3097 2138 3097 
Q 1578 3097 1268 2742 
Q 959 2388 959 1747 
Q 959 1106 1268 751 
Q 1578 397 2138 397 
Q 2388 397 2633 464 
Q 2878 531 3122 666 
L 3122 134 
Q 2881 22 2623 -34 
Q 2366 -91 2075 -91 
Q 1284 -91 818 406 
Q 353 903 353 1747 
Q 353 2603 823 3093 
Q 1294 3584 2113 3584 
Q 2378 3584 2631 3529 
Q 2884 3475 3122 3366 
z
" transform="scale(0.015625)"/>
      <path id="DejaVuSans-65" d="M 3597 1894 
L 3597 1613 
L 953 1613 
Q 991 1019 1311 708 
Q 1631 397 2203 397 
Q 2534 397 2845 478 
Q 3156 559 3463 722 
L 3463 178 
Q 3153 47 2828 -22 
Q 2503 -91 2169 -91 
Q 1331 -91 842 396 
Q 353 884 353 1716 
Q 353 2575 817 3079 
Q 1281 3584 2069 3584 
Q 2775 3584 3186 3129 
Q 3597 2675 3597 1894 
z
M 3022 2063 
Q 3016 2534 2758 2815 
Q 2500 3097 2075 3097 
Q 1594 3097 1305 2825 
Q 1016 2553 972 2059 
L 3022 2063 
z
" transform="scale(0.015625)"/>
      <path id="DejaVuSans-2d" d="M 313 2009 
L 1997 2009 
L 1997 1497 
L 313 1497 
L 313 2009 
z
" transform="scale(0.015625)"/>
      <path id="DejaVuSans-69" d="M 603 3500 
L 1178 3500 
L 1178 0 
L 603 0 
L 603 3500 
z
M 603 4863 
L 1178 4863 
L 1178 4134 
L 603 4134 
L 603 4863 
z
" transform="scale(0.015625)"/>
      <path id="DejaVuSans-76" d="M 191 3500 
L 800 3500 
L 1894 563 
L 2988 3500 
L 3597 3500 
L 2284 0 
L 1503 0 
L 191 3500 
z
" transform="scale(0.015625)"/>
     </defs>
     <use xlink:href="#DejaVuSans-73"/>
     <use xlink:href="#DejaVuSans-6f" x="52.099609"/>
     <use xlink:href="#DejaVuSans-75" x="113.28125"/>
     <use xlink:href="#DejaVuSans-72" x="176.660156"/>
     <use xlink:href="#DejaVuSans-63" x="215.523438"/>
     <use xlink:href="#DejaVuSans-65" x="270.503906"/>
     <use xlink:href="#DejaVuSans-31" x="332.027344"/>
     <use xlink:href="#DejaVuSans-34" x="395.650391"/>
     <use xlink:href="#DejaVuSans-2d" x="459.273438"/>
     <use xlink:href="#DejaVuSans-72" x="495.357422"/>
     <use xlink:href="#DejaVuSans-65" x="534.220703"/>
     <use xlink:href="#DejaVuSans-63" x="595.744141"/>
     <use xlink:href="#DejaVuSans-65" x="650.724609"/>
     <use xlink:href="#DejaVuSans-69" x="712.248047"/>
     <use xlink:href="#DejaVuSans-76" x="740.03125"/>
     <use xlink:href="#DejaVuSans-65" x="799.210938"/>
     <use xlink:href="#DejaVuSans-72" x="860.734375"/>
     <use xlink:href="#DejaVuSans-31" x="901.847656"/>
     <use xlink:href="#DejaVuSans-31" x="965.470703"/>
    </g>
   </g>
  </g>
 </g>
 <defs>
  <clipPath id="p113d50c766">
   <rect x="180" y="69.12" width="1116" height="443.52"/>
  </clipPath>
 </defs>
</svg>
