<?xml version="1.0" encoding="utf-8" standalone="no"?>
<!DOCTYPE svg PUBLIC "-//W3C//DTD SVG 1.1//EN"
  "http://www.w3.org/Graphics/SVG/1.1/DTD/svg11.dtd">
<svg xmlns:xlink="http://www.w3.org/1999/xlink" width="1440pt" height="576pt" viewBox="0 0 1440 576" xmlns="http://www.w3.org/2000/svg" version="1.1">
 <metadata>
  <rdf:RDF xmlns:dc="http://purl.org/dc/elements/1.1/" xmlns:cc="http://creativecommons.org/ns#" xmlns:rdf="http://www.w3.org/1999/02/22-rdf-syntax-ns#">
   <cc:Work>
    <dc:type rdf:resource="http://purl.org/dc/dcmitype/StillImage"/>
    <dc:date>2024-05-22T04:50:06.375551</dc:date>
    <dc:format>image/svg+xml</dc:format>
    <dc:creator>
     <cc:Agent>
      <dc:title>Matplotlib v3.8.3, https://matplotlib.org/</dc:title>
     </cc:Agent>
    </dc:creator>
   </cc:Work>
  </rdf:RDF>
 </metadata>
 <defs>
  <style type="text/css">*{stroke-linejoin: round; stroke-linecap: butt}</style>
 </defs>
 <g id="figure_1">
  <g id="patch_1">
   <path d="M 0 576 
L 1440 576 
L 1440 0 
L 0 0 
z
" style="fill: #ffffff"/>
  </g>
  <g id="axes_1">
   <g id="patch_2">
    <path d="M 180 512.64 
L 1296 512.64 
L 1296 69.12 
L 180 69.12 
z
" style="fill: #ffffff"/>
   </g>
   <g id="matplotlib.axis_1">
    <g id="xtick_1">
     <g id="line2d_1">
      <defs>
       <path id="m3baefcaa73" d="M 0 0 
L 0 3.5 
" style="stroke: #000000; stroke-width: 0.8"/>
      </defs>
      <g>
       <use xlink:href="#m3baefcaa73" x="229.734567" y="512.64" style="stroke: #000000; stroke-width: 0.8"/>
      </g>
     </g>
     <g id="text_1">
      <!-- 0 -->
      <g transform="translate(226.553317 527.238438) scale(0.1 -0.1)">
       <defs>
        <path id="DejaVuSans-30" d="M 2034 4250 
Q 1547 4250 1301 3770 
Q 1056 3291 1056 2328 
Q 1056 1369 1301 889 
Q 1547 409 2034 409 
Q 2525 409 2770 889 
Q 3016 1369 3016 2328 
Q 3016 3291 2770 3770 
Q 2525 4250 2034 4250 
z
M 2034 4750 
Q 2819 4750 3233 4129 
Q 3647 3509 3647 2328 
Q 3647 1150 3233 529 
Q 2819 -91 2034 -91 
Q 1250 -91 836 529 
Q 422 1150 422 2328 
Q 422 3509 836 4129 
Q 1250 4750 2034 4750 
z
" transform="scale(0.015625)"/>
       </defs>
       <use xlink:href="#DejaVuSans-30"/>
      </g>
     </g>
    </g>
    <g id="xtick_2">
     <g id="line2d_2">
      <g>
       <use xlink:href="#m3baefcaa73" x="433.04074" y="512.64" style="stroke: #000000; stroke-width: 0.8"/>
      </g>
     </g>
     <g id="text_2">
      <!-- 500 -->
      <g transform="translate(423.49699 527.238438) scale(0.1 -0.1)">
       <defs>
        <path id="DejaVuSans-35" d="M 691 4666 
L 3169 4666 
L 3169 4134 
L 1269 4134 
L 1269 2991 
Q 1406 3038 1543 3061 
Q 1681 3084 1819 3084 
Q 2600 3084 3056 2656 
Q 3513 2228 3513 1497 
Q 3513 744 3044 326 
Q 2575 -91 1722 -91 
Q 1428 -91 1123 -41 
Q 819 9 494 109 
L 494 744 
Q 775 591 1075 516 
Q 1375 441 1709 441 
Q 2250 441 2565 725 
Q 2881 1009 2881 1497 
Q 2881 1984 2565 2268 
Q 2250 2553 1709 2553 
Q 1456 2553 1204 2497 
Q 953 2441 691 2322 
L 691 4666 
z
" transform="scale(0.015625)"/>
       </defs>
       <use xlink:href="#DejaVuSans-35"/>
       <use xlink:href="#DejaVuSans-30" x="63.623047"/>
       <use xlink:href="#DejaVuSans-30" x="127.246094"/>
      </g>
     </g>
    </g>
    <g id="xtick_3">
     <g id="line2d_3">
      <g>
       <use xlink:href="#m3baefcaa73" x="636.346913" y="512.64" style="stroke: #000000; stroke-width: 0.8"/>
      </g>
     </g>
     <g id="text_3">
      <!-- 1000 -->
      <g transform="translate(623.621913 527.238438) scale(0.1 -0.1)">
       <defs>
        <path id="DejaVuSans-31" d="M 794 531 
L 1825 531 
L 1825 4091 
L 703 3866 
L 703 4441 
L 1819 4666 
L 2450 4666 
L 2450 531 
L 3481 531 
L 3481 0 
L 794 0 
L 794 531 
z
" transform="scale(0.015625)"/>
       </defs>
       <use xlink:href="#DejaVuSans-31"/>
       <use xlink:href="#DejaVuSans-30" x="63.623047"/>
       <use xlink:href="#DejaVuSans-30" x="127.246094"/>
       <use xlink:href="#DejaVuSans-30" x="190.869141"/>
      </g>
     </g>
    </g>
    <g id="xtick_4">
     <g id="line2d_4">
      <g>
       <use xlink:href="#m3baefcaa73" x="839.653087" y="512.64" style="stroke: #000000; stroke-width: 0.8"/>
      </g>
     </g>
     <g id="text_4">
      <!-- 1500 -->
      <g transform="translate(826.928087 527.238438) scale(0.1 -0.1)">
       <use xlink:href="#DejaVuSans-31"/>
       <use xlink:href="#DejaVuSans-35" x="63.623047"/>
       <use xlink:href="#DejaVuSans-30" x="127.246094"/>
       <use xlink:href="#DejaVuSans-30" x="190.869141"/>
      </g>
     </g>
    </g>
    <g id="xtick_5">
     <g id="line2d_5">
      <g>
       <use xlink:href="#m3baefcaa73" x="1042.95926" y="512.64" style="stroke: #000000; stroke-width: 0.8"/>
      </g>
     </g>
     <g id="text_5">
      <!-- 2000 -->
      <g transform="translate(1030.23426 527.238438) scale(0.1 -0.1)">
       <defs>
        <path id="DejaVuSans-32" d="M 1228 531 
L 3431 531 
L 3431 0 
L 469 0 
L 469 531 
Q 828 903 1448 1529 
Q 2069 2156 2228 2338 
Q 2531 2678 2651 2914 
Q 2772 3150 2772 3378 
Q 2772 3750 2511 3984 
Q 2250 4219 1831 4219 
Q 1534 4219 1204 4116 
Q 875 4013 500 3803 
L 500 4441 
Q 881 4594 1212 4672 
Q 1544 4750 1819 4750 
Q 2544 4750 2975 4387 
Q 3406 4025 3406 3419 
Q 3406 3131 3298 2873 
Q 3191 2616 2906 2266 
Q 2828 2175 2409 1742 
Q 1991 1309 1228 531 
z
" transform="scale(0.015625)"/>
       </defs>
       <use xlink:href="#DejaVuSans-32"/>
       <use xlink:href="#DejaVuSans-30" x="63.623047"/>
       <use xlink:href="#DejaVuSans-30" x="127.246094"/>
       <use xlink:href="#DejaVuSans-30" x="190.869141"/>
      </g>
     </g>
    </g>
    <g id="xtick_6">
     <g id="line2d_6">
      <g>
       <use xlink:href="#m3baefcaa73" x="1246.265433" y="512.64" style="stroke: #000000; stroke-width: 0.8"/>
      </g>
     </g>
     <g id="text_6">
      <!-- 2500 -->
      <g transform="translate(1233.540433 527.238438) scale(0.1 -0.1)">
       <use xlink:href="#DejaVuSans-32"/>
       <use xlink:href="#DejaVuSans-35" x="63.623047"/>
       <use xlink:href="#DejaVuSans-30" x="127.246094"/>
       <use xlink:href="#DejaVuSans-30" x="190.869141"/>
      </g>
     </g>
    </g>
   </g>
   <g id="matplotlib.axis_2">
    <g id="ytick_1">
     <g id="line2d_7">
      <defs>
       <path id="m3a2d545e27" d="M 0 0 
L -3.5 0 
" style="stroke: #000000; stroke-width: 0.8"/>
      </defs>
      <g>
       <use xlink:href="#m3a2d545e27" x="180" y="440.803853" style="stroke: #000000; stroke-width: 0.8"/>
      </g>
     </g>
     <g id="text_7">
      <!-- −6 -->
      <g transform="translate(158.257812 444.603072) scale(0.1 -0.1)">
       <defs>
        <path id="DejaVuSans-2212" d="M 678 2272 
L 4684 2272 
L 4684 1741 
L 678 1741 
L 678 2272 
z
" transform="scale(0.015625)"/>
        <path id="DejaVuSans-36" d="M 2113 2584 
Q 1688 2584 1439 2293 
Q 1191 2003 1191 1497 
Q 1191 994 1439 701 
Q 1688 409 2113 409 
Q 2538 409 2786 701 
Q 3034 994 3034 1497 
Q 3034 2003 2786 2293 
Q 2538 2584 2113 2584 
z
M 3366 4563 
L 3366 3988 
Q 3128 4100 2886 4159 
Q 2644 4219 2406 4219 
Q 1781 4219 1451 3797 
Q 1122 3375 1075 2522 
Q 1259 2794 1537 2939 
Q 1816 3084 2150 3084 
Q 2853 3084 3261 2657 
Q 3669 2231 3669 1497 
Q 3669 778 3244 343 
Q 2819 -91 2113 -91 
Q 1303 -91 875 529 
Q 447 1150 447 2328 
Q 447 3434 972 4092 
Q 1497 4750 2381 4750 
Q 2619 4750 2861 4703 
Q 3103 4656 3366 4563 
z
" transform="scale(0.015625)"/>
       </defs>
       <use xlink:href="#DejaVuSans-2212"/>
       <use xlink:href="#DejaVuSans-36" x="83.789062"/>
      </g>
     </g>
    </g>
    <g id="ytick_2">
     <g id="line2d_8">
      <g>
       <use xlink:href="#m3a2d545e27" x="180" y="368.296406" style="stroke: #000000; stroke-width: 0.8"/>
      </g>
     </g>
     <g id="text_8">
      <!-- −4 -->
      <g transform="translate(158.257812 372.095625) scale(0.1 -0.1)">
       <defs>
        <path id="DejaVuSans-34" d="M 2419 4116 
L 825 1625 
L 2419 1625 
L 2419 4116 
z
M 2253 4666 
L 3047 4666 
L 3047 1625 
L 3713 1625 
L 3713 1100 
L 3047 1100 
L 3047 0 
L 2419 0 
L 2419 1100 
L 313 1100 
L 313 1709 
L 2253 4666 
z
" transform="scale(0.015625)"/>
       </defs>
       <use xlink:href="#DejaVuSans-2212"/>
       <use xlink:href="#DejaVuSans-34" x="83.789062"/>
      </g>
     </g>
    </g>
    <g id="ytick_3">
     <g id="line2d_9">
      <g>
       <use xlink:href="#m3a2d545e27" x="180" y="295.788959" style="stroke: #000000; stroke-width: 0.8"/>
      </g>
     </g>
     <g id="text_9">
      <!-- −2 -->
      <g transform="translate(158.257812 299.588178) scale(0.1 -0.1)">
       <use xlink:href="#DejaVuSans-2212"/>
       <use xlink:href="#DejaVuSans-32" x="83.789062"/>
      </g>
     </g>
    </g>
    <g id="ytick_4">
     <g id="line2d_10">
      <g>
       <use xlink:href="#m3a2d545e27" x="180" y="223.281513" style="stroke: #000000; stroke-width: 0.8"/>
      </g>
     </g>
     <g id="text_10">
      <!-- 0 -->
      <g transform="translate(166.6375 227.080731) scale(0.1 -0.1)">
       <use xlink:href="#DejaVuSans-30"/>
      </g>
     </g>
    </g>
    <g id="ytick_5">
     <g id="line2d_11">
      <g>
       <use xlink:href="#m3a2d545e27" x="180" y="150.774066" style="stroke: #000000; stroke-width: 0.8"/>
      </g>
     </g>
     <g id="text_11">
      <!-- 2 -->
      <g transform="translate(166.6375 154.573284) scale(0.1 -0.1)">
       <use xlink:href="#DejaVuSans-32"/>
      </g>
     </g>
    </g>
    <g id="ytick_6">
     <g id="line2d_12">
      <g>
       <use xlink:href="#m3a2d545e27" x="180" y="78.266619" style="stroke: #000000; stroke-width: 0.8"/>
      </g>
     </g>
     <g id="text_12">
      <!-- 4 -->
      <g transform="translate(166.6375 82.065838) scale(0.1 -0.1)">
       <use xlink:href="#DejaVuSans-34"/>
      </g>
     </g>
    </g>
   </g>
   <g id="line2d_13">
    <path d="M 230.727273 293.747243 
L 231.719979 292.337205 
L 232.712685 292.835044 
L 233.70539 291.958709 
L 234.698096 290.758153 
L 235.690802 290.004191 
L 236.683508 289.032317 
L 238.66892 285.838267 
L 239.661626 284.181477 
L 240.654332 281.94241 
L 241.647038 279.037193 
L 242.639744 276.51562 
L 243.63245 272.973496 
L 244.625156 264.923564 
L 245.617862 262.442578 
L 246.610568 285.169075 
L 247.603273 250.868159 
L 248.595979 231.614578 
L 249.588685 183.939395 
L 250.581391 167.777034 
L 251.574097 171.840512 
L 252.566803 172.146529 
L 253.559509 188.109988 
L 254.552215 166.25132 
L 255.544921 153.547101 
L 256.537627 165.810793 
L 257.530333 160.668657 
L 258.523039 149.028622 
L 259.515745 147.679331 
L 260.50845 142.652267 
L 261.501156 125.786875 
L 262.493862 117.831463 
L 263.486568 124.206152 
L 264.479274 140.494673 
L 265.47198 134.596532 
L 266.464686 134.676585 
L 267.457392 141.902592 
L 268.450098 152.927134 
L 269.442804 152.743356 
L 270.43551 171.641078 
L 271.428216 140.157791 
L 272.420922 163.858971 
L 273.413627 141.980945 
L 274.406333 137.809864 
L 275.399039 122.116067 
L 276.391745 117.751884 
L 277.384451 122.075318 
L 278.377157 136.361655 
L 279.369863 110.274882 
L 280.362569 93.993185 
L 281.355275 89.28 
L 282.347981 92.324073 
L 283.340687 104.339238 
L 284.333393 131.51672 
L 285.326099 223.300436 
L 286.318804 158.279991 
L 287.31151 151.956385 
L 288.304216 171.469997 
L 289.296922 198.354733 
L 290.289628 181.659453 
L 291.282334 190.191647 
L 292.27504 164.377397 
L 293.267746 167.763951 
L 294.260452 178.770037 
L 295.253158 192.867404 
L 296.245864 215.105332 
L 297.23857 213.768262 
L 298.231276 213.812541 
L 299.223981 237.372246 
L 300.216687 227.007238 
L 301.209393 211.796745 
L 302.202099 219.847352 
L 303.194805 237.968423 
L 304.187511 267.708449 
L 305.180217 212.519846 
L 306.172923 212.600127 
L 307.165629 216.166938 
L 308.158335 208.456739 
L 309.151041 207.433613 
L 310.143747 217.902344 
L 311.136453 230.201361 
L 312.129159 281.736822 
L 313.121864 273.169732 
L 314.11457 287.523878 
L 315.107276 254.624482 
L 316.099982 253.434324 
L 317.092688 287.600356 
L 318.085394 269.405931 
L 319.0781 332.195664 
L 320.070806 275.109398 
L 321.063512 287.748457 
L 322.056218 313.743287 
L 323.048924 364.348187 
L 324.04163 298.850748 
L 325.034336 336.396014 
L 326.027041 286.928427 
L 327.019747 354.234242 
L 328.012453 289.312166 
L 329.005159 294.591546 
L 329.997865 297.265091 
L 330.990571 285.68712 
L 331.983277 289.900566 
L 332.975983 302.126635 
L 333.968689 303.349547 
L 334.961395 305.297867 
L 335.954101 307.62499 
L 336.946807 354.217551 
L 337.939513 362.46079 
L 338.932218 316.746477 
L 339.924924 296.657672 
L 340.91763 344.624229 
L 341.910336 337.511603 
L 342.903042 327.642024 
L 344.888454 401.492722 
L 345.88116 352.009864 
L 346.873866 322.543797 
L 347.866572 353.852291 
L 348.859278 408.356545 
L 349.851984 329.189942 
L 350.84469 323.265363 
L 351.837395 308.484357 
L 352.830101 351.171578 
L 353.822807 335.173621 
L 354.815513 334.585787 
L 355.808219 292.129728 
L 356.800925 301.090375 
L 357.793631 291.131319 
L 358.786337 328.626445 
L 359.779043 322.096524 
L 360.771749 361.047898 
L 361.764455 293.943424 
L 362.757161 323.686971 
L 363.749867 313.209973 
L 364.742572 325.75175 
L 365.735278 314.631548 
L 366.727984 307.391825 
L 367.72069 327.660562 
L 368.713396 300.09223 
L 369.706102 350.507134 
L 370.698808 337.336741 
L 371.691514 344.179856 
L 372.68422 322.481931 
L 373.676926 325.245428 
L 374.669632 330.566892 
L 375.662338 370.116951 
L 376.655044 327.314804 
L 377.64775 355.364821 
L 378.640455 340.767985 
L 379.633161 334.157916 
L 380.625867 318.613464 
L 381.618573 336.170204 
L 382.611279 314.76017 
L 383.603985 330.021758 
L 384.596691 331.194875 
L 385.589397 368.606275 
L 386.582103 381.818173 
L 387.574809 340.214101 
L 388.567515 397.161731 
L 389.560221 356.369674 
L 391.545632 342.726429 
L 392.538338 346.733973 
L 393.531044 345.93458 
L 394.52375 425.914022 
L 395.516456 367.591303 
L 396.509162 342.036948 
L 397.501868 339.047736 
L 398.494574 336.975502 
L 399.48728 317.653164 
L 400.479986 382.842112 
L 401.472692 339.273656 
L 402.465398 339.685455 
L 403.458104 343.574318 
L 404.450809 346.709205 
L 405.443515 356.238638 
L 406.436221 335.697446 
L 407.428927 348.860507 
L 408.421633 342.003198 
L 409.414339 338.746144 
L 410.407045 324.403115 
L 411.399751 359.396208 
L 412.392457 348.520066 
L 414.377869 324.900104 
L 415.370575 382.324283 
L 416.363281 361.431951 
L 417.355986 372.678557 
L 418.348692 354.480718 
L 419.341398 329.725235 
L 420.334104 386.382821 
L 421.32681 326.035506 
L 422.319516 349.169575 
L 423.312222 351.486796 
L 424.304928 366.898383 
L 425.297634 307.674898 
L 426.29034 331.230116 
L 427.283046 386.875464 
L 428.275752 367.880242 
L 429.268458 360.028186 
L 430.261163 365.442722 
L 431.253869 337.891917 
L 432.246575 324.302094 
L 433.239281 375.488214 
L 434.231987 320.705756 
L 435.224693 400.338121 
L 436.217399 346.289371 
L 437.210105 334.937242 
L 438.202811 361.194649 
L 439.195517 334.277865 
L 440.188223 365.253544 
L 441.180929 334.733797 
L 442.173635 333.949689 
L 443.166341 363.346407 
L 444.159046 366.415978 
L 445.151752 345.116895 
L 446.144458 343.750475 
L 447.137164 382.649576 
L 448.12987 317.712601 
L 449.122576 351.109698 
L 450.115282 339.783403 
L 451.107988 331.883233 
L 452.100694 346.843897 
L 453.0934 380.88574 
L 454.086106 353.802267 
L 455.078812 355.206794 
L 456.071518 395.008277 
L 457.064223 350.733768 
L 458.056929 402.633365 
L 459.049635 369.501698 
L 460.042341 326.652505 
L 461.035047 386.88156 
L 462.027753 324.561719 
L 463.020459 408.725118 
L 464.013165 365.099068 
L 465.005871 394.306858 
L 465.998577 362.084163 
L 466.991283 385.261295 
L 467.983989 379.76903 
L 468.976695 323.877476 
L 469.9694 325.592642 
L 470.962106 326.34601 
L 471.954812 351.500034 
L 472.947518 384.712414 
L 473.940224 353.487012 
L 474.93293 380.342899 
L 475.925636 377.686659 
L 476.918342 395.101072 
L 477.911048 331.509634 
L 478.903754 339.024291 
L 479.89646 345.503326 
L 480.889166 336.121277 
L 481.881872 363.898965 
L 482.874577 341.489691 
L 483.867283 338.056616 
L 484.859989 356.834339 
L 485.852695 393.881161 
L 486.845401 322.606813 
L 487.838107 339.451669 
L 488.830813 346.791053 
L 489.823519 360.987762 
L 490.816225 339.476925 
L 491.808931 331.391334 
L 492.801637 359.981339 
L 493.794343 365.567203 
L 494.787049 342.38576 
L 495.779754 346.359268 
L 496.77246 330.048578 
L 497.765166 372.198108 
L 498.757872 313.566409 
L 499.750578 339.196218 
L 500.743284 338.15535 
L 501.73599 352.216282 
L 502.728696 325.541081 
L 503.721402 327.497866 
L 504.714108 344.65674 
L 505.706814 375.254637 
L 506.69952 323.56222 
L 507.692226 367.621004 
L 508.684932 373.293533 
L 509.677637 339.104138 
L 510.670343 341.77263 
L 511.663049 423.749342 
L 512.655755 339.791703 
L 513.648461 339.17539 
L 514.641167 348.816141 
L 515.633873 333.571636 
L 516.626579 354.025234 
L 517.619285 336.672621 
L 519.604697 369.979621 
L 520.597403 363.98148 
L 521.590109 345.890625 
L 522.582814 341.531173 
L 523.57552 357.886327 
L 524.568226 338.294344 
L 525.560932 342.359414 
L 526.553638 358.947555 
L 527.546344 329.165694 
L 528.53905 363.017173 
L 530.524462 337.368659 
L 531.517168 335.489086 
L 532.509874 328.136368 
L 533.50258 385.499628 
L 534.495286 360.183835 
L 535.487991 354.614161 
L 536.480697 350.900961 
L 537.473403 343.103833 
L 538.466109 360.927785 
L 539.458815 407.232318 
L 540.451521 365.352528 
L 541.444227 336.587395 
L 542.436933 374.223118 
L 543.429639 327.138521 
L 544.422345 396.359735 
L 545.415051 358.694538 
L 546.407757 348.707023 
L 547.400463 342.453451 
L 548.393168 370.46875 
L 549.385874 416.097021 
L 550.37858 326.171909 
L 551.371286 382.736133 
L 552.363992 346.593366 
L 553.356698 339.129254 
L 554.349404 317.885577 
L 555.34211 341.067226 
L 556.334816 337.66021 
L 557.327522 364.320104 
L 558.320228 348.107932 
L 559.312934 362.509084 
L 561.298345 317.513619 
L 563.283757 328.945378 
L 564.276463 372.514717 
L 565.269169 357.597795 
L 566.261875 376.882028 
L 567.254581 390.907451 
L 568.247287 335.620996 
L 569.239993 363.985392 
L 570.232699 340.012234 
L 571.225405 342.817888 
L 572.218111 357.7075 
L 573.210817 340.143496 
L 574.203523 350.139679 
L 575.196228 336.792029 
L 576.188934 330.654432 
L 577.18164 367.201253 
L 578.174346 340.949751 
L 579.167052 350.467557 
L 580.159758 349.003336 
L 581.152464 338.548822 
L 582.14517 344.443653 
L 583.137876 343.741874 
L 584.130582 335.5701 
L 585.123288 364.820947 
L 586.115994 350.417145 
L 587.1087 418.069476 
L 588.101405 316.648929 
L 589.094111 369.727253 
L 591.079523 342.269145 
L 592.072229 337.515699 
L 593.064935 358.497317 
L 594.057641 325.998357 
L 595.050347 382.39836 
L 596.043053 402.271855 
L 597.035759 339.17589 
L 598.028465 367.625089 
L 599.021171 348.294855 
L 600.013877 348.766318 
L 601.006582 380.972606 
L 601.999288 387.039978 
L 602.991994 375.341036 
L 603.9847 366.918268 
L 604.977406 376.64743 
L 605.970112 408.091601 
L 606.962818 411.723899 
L 607.955524 378.160499 
L 608.94823 370.289706 
L 609.940936 347.062755 
L 610.933642 373.129299 
L 611.926348 386.380369 
L 612.919054 401.783739 
L 613.911759 370.78906 
L 614.904465 365.594846 
L 615.897171 369.274221 
L 616.889877 354.369887 
L 617.882583 360.410705 
L 618.875289 348.197774 
L 619.867995 374.48793 
L 620.860701 379.778026 
L 621.853407 405.868886 
L 622.846113 361.459747 
L 623.838819 378.646636 
L 624.831525 351.754444 
L 625.824231 402.284222 
L 626.816936 368.516248 
L 627.809642 377.43234 
L 628.802348 358.234325 
L 629.795054 392.247722 
L 630.78776 394.255457 
L 631.780466 386.134723 
L 632.773172 348.549688 
L 633.765878 389.577105 
L 634.758584 367.943127 
L 635.75129 382.197058 
L 636.743996 378.108222 
L 637.736702 392.450145 
L 638.729408 396.047443 
L 639.722114 390.787819 
L 640.714819 411.055941 
L 641.707525 387.679382 
L 643.692937 375.104615 
L 644.685643 387.84898 
L 645.678349 384.815619 
L 646.671055 365.87856 
L 647.663761 372.654487 
L 648.656467 400.640111 
L 649.649173 492.48 
L 650.641879 379.948634 
L 651.634585 373.790308 
L 652.627291 377.268678 
L 653.619996 397.246794 
L 654.612702 397.085815 
L 655.605408 410.894555 
L 656.598114 373.436923 
L 657.59082 378.80945 
L 658.583526 375.119634 
L 659.576232 381.87552 
L 660.568938 377.629435 
L 661.561644 391.849398 
L 662.55435 404.097601 
L 663.547056 379.564469 
L 664.539762 389.356532 
L 665.532468 401.745992 
L 666.525173 409.576075 
L 667.517879 377.037996 
L 668.510585 382.661224 
L 669.503291 384.362136 
L 670.495997 383.509221 
L 671.488703 397.848619 
L 672.481409 393.240643 
L 673.474115 395.898427 
L 674.466821 381.876897 
L 676.452233 404.249022 
L 677.444939 397.107542 
L 678.437645 375.065644 
L 679.43035 429.249001 
L 680.423056 387.825303 
L 681.415762 391.331672 
L 682.408468 388.341364 
L 683.401174 392.66351 
L 684.39388 383.620268 
L 685.386586 437.447688 
L 686.379292 398.777371 
L 687.371998 385.958115 
L 688.364704 392.773995 
L 689.35741 403.429525 
L 690.350116 390.063116 
L 691.342822 401.851984 
L 692.335527 422.06752 
L 693.328233 407.146722 
L 694.320939 396.865538 
L 695.313645 406.44455 
L 696.306351 412.983122 
L 697.299057 391.853078 
L 698.291763 397.675788 
L 699.284469 394.997071 
L 700.277175 395.807616 
L 701.269881 386.369404 
L 702.262587 392.857319 
L 703.255293 392.865937 
L 704.247999 395.488373 
L 705.240705 403.440965 
L 706.23341 388.452716 
L 707.226116 399.206231 
L 708.218822 398.863387 
L 709.211528 389.972585 
L 710.204234 392.685532 
L 711.19694 394.831179 
L 712.189646 388.301699 
L 713.182352 391.865546 
L 714.175058 392.675657 
L 715.167764 391.255662 
L 716.16047 390.095697 
L 717.153176 386.710735 
L 718.145882 395.876574 
L 720.131293 391.791119 
L 721.123999 387.098205 
L 722.116705 392.285459 
L 723.109411 394.131749 
L 724.102117 395.157743 
L 725.094823 395.892928 
L 726.087529 389.598932 
L 727.080235 393.794515 
L 728.072941 396.378287 
L 730.058353 392.686811 
L 732.043764 398.648616 
L 733.03647 397.768716 
L 734.029176 391.559753 
L 735.021882 394.454878 
L 736.014588 396.531142 
L 737.007294 396.457684 
L 738 400.351328 
L 738.992706 399.049031 
L 739.985412 394.980926 
L 740.978118 391.383838 
L 741.970824 396.466908 
L 742.96353 391.78152 
L 743.956236 395.228977 
L 744.948941 393.73595 
L 745.941647 403.357931 
L 746.934353 397.686603 
L 747.927059 399.338543 
L 748.919765 395.59628 
L 749.912471 399.689186 
L 750.905177 398.776512 
L 751.897883 395.791966 
L 752.890589 397.133545 
L 753.883295 395.933778 
L 754.876001 393.970626 
L 755.868707 399.380429 
L 756.861413 397.485252 
L 757.854118 399.687456 
L 758.846824 399.495169 
L 759.83953 395.959422 
L 760.832236 393.402114 
L 761.824942 400.697692 
L 762.817648 392.576379 
L 763.810354 397.943183 
L 764.80306 390.921919 
L 765.795766 397.696867 
L 766.788472 399.774781 
L 767.781178 401.450865 
L 768.773884 391.420726 
L 769.76659 397.414927 
L 770.759295 400.929978 
L 771.752001 398.651117 
L 772.744707 399.301916 
L 773.737413 401.154218 
L 774.730119 395.909203 
L 775.722825 396.388881 
L 776.715531 392.424148 
L 777.708237 403.228691 
L 778.700943 401.782926 
L 779.693649 394.185325 
L 780.686355 400.497691 
L 781.679061 396.439804 
L 783.664473 396.740952 
L 784.657178 398.147396 
L 785.649884 400.029122 
L 786.64259 407.493591 
L 787.635296 396.796188 
L 788.628002 402.031616 
L 789.620708 392.900442 
L 790.613414 402.095013 
L 791.60612 395.468966 
L 792.598826 393.192681 
L 793.591532 403.007205 
L 794.584238 408.192084 
L 795.576944 394.128058 
L 796.56965 401.381903 
L 797.562355 399.494834 
L 798.555061 393.517655 
L 799.547767 401.543364 
L 800.540473 400.009811 
L 801.533179 399.542428 
L 802.525885 395.233332 
L 803.518591 401.399392 
L 804.511297 402.748242 
L 805.504003 402.844088 
L 806.496709 399.748614 
L 807.489415 397.850174 
L 808.482121 399.054393 
L 809.474827 398.267363 
L 810.467532 400.374944 
L 811.460238 399.474663 
L 813.44565 401.842127 
L 814.438356 398.76356 
L 815.431062 404.498435 
L 816.423768 395.520613 
L 817.416474 404.643559 
L 818.40918 396.272184 
L 819.401886 403.491957 
L 820.394592 403.192065 
L 821.387298 397.240319 
L 822.380004 397.612011 
L 823.372709 400.332662 
L 824.365415 396.597155 
L 825.358121 400.482349 
L 826.350827 396.92728 
L 827.343533 402.384333 
L 828.336239 399.110722 
L 829.328945 400.475652 
L 831.314357 402.383374 
L 832.307063 397.140178 
L 833.299769 401.960465 
L 834.292475 398.934334 
L 835.285181 403.537195 
L 836.277886 397.038788 
L 837.270592 403.019224 
L 838.263298 396.976214 
L 839.256004 406.58073 
L 840.24871 403.798095 
L 841.241416 409.481252 
L 842.234122 398.580394 
L 843.226828 396.949156 
L 844.219534 408.308659 
L 845.21224 403.601868 
L 846.204946 403.996051 
L 847.197652 396.205294 
L 848.190358 402.686343 
L 849.183064 397.262974 
L 850.175769 403.351114 
L 851.168475 399.328124 
L 852.161181 406.495446 
L 853.153887 407.488201 
L 854.146593 394.934508 
L 856.132005 401.232574 
L 857.124711 402.763136 
L 858.117417 404.752401 
L 859.110123 395.930813 
L 860.102829 401.262884 
L 861.095535 403.139434 
L 862.088241 395.891272 
L 863.080946 398.945734 
L 864.073652 399.169844 
L 865.066358 402.235392 
L 866.059064 404.660021 
L 867.05177 400.962976 
L 868.044476 406.795409 
L 869.037182 402.928639 
L 870.029888 396.463563 
L 871.022594 400.058645 
L 872.0153 399.103474 
L 873.008006 395.505203 
L 874.000712 408.927552 
L 874.993418 397.382191 
L 875.986123 403.914874 
L 876.978829 395.25602 
L 877.971535 400.991316 
L 878.964241 401.73984 
L 879.956947 399.342508 
L 880.949653 401.284509 
L 881.942359 405.62189 
L 882.935065 398.582803 
L 883.927771 399.13571 
L 884.920477 402.520264 
L 885.913183 398.726975 
L 886.905889 399.886644 
L 887.898595 403.989607 
L 888.8913 396.922763 
L 889.884006 407.541948 
L 890.876712 398.793962 
L 891.869418 402.894388 
L 892.862124 400.823737 
L 893.85483 402.575479 
L 894.847536 407.800755 
L 895.840242 402.144835 
L 896.832948 398.415508 
L 897.825654 399.623255 
L 898.81836 399.241384 
L 899.811066 405.660983 
L 900.803772 403.823336 
L 901.796477 406.36444 
L 902.789183 398.095206 
L 903.781889 396.480435 
L 904.774595 401.211857 
L 905.767301 411.946587 
L 906.760007 401.651914 
L 907.752713 403.420715 
L 908.745419 398.151381 
L 910.730831 405.22342 
L 911.723537 396.961852 
L 912.716243 405.037483 
L 913.708949 407.255942 
L 914.701655 399.693102 
L 915.69436 402.907035 
L 916.687066 401.500702 
L 917.679772 407.769809 
L 918.672478 398.156238 
L 919.665184 408.516217 
L 920.65789 413.322018 
L 921.650596 405.318111 
L 922.643302 405.046194 
L 923.636008 407.595251 
L 924.628714 405.98269 
L 925.62142 402.776349 
L 926.614126 403.819802 
L 927.606832 405.836081 
L 928.599537 405.244625 
L 929.592243 404.30027 
L 930.584949 400.602379 
L 931.577655 406.973534 
L 932.570361 404.836735 
L 933.563067 400.114284 
L 934.555773 405.270344 
L 935.548479 397.182079 
L 936.541185 406.567793 
L 937.533891 399.766028 
L 938.526597 400.519333 
L 939.519303 405.750955 
L 940.512009 406.644352 
L 941.504714 401.157272 
L 942.49742 399.060583 
L 943.490126 406.313097 
L 944.482832 403.808461 
L 945.475538 408.296176 
L 946.468244 401.384189 
L 947.46095 405.375236 
L 948.453656 398.006804 
L 949.446362 401.89866 
L 950.439068 403.096438 
L 951.431774 402.808953 
L 952.42448 408.285157 
L 953.417186 399.486688 
L 954.409891 398.874849 
L 955.402597 400.554693 
L 956.395303 404.93206 
L 957.388009 406.631929 
L 958.380715 407.208021 
L 959.373421 402.778206 
L 960.366127 406.827947 
L 961.358833 402.891949 
L 962.351539 403.23596 
L 963.344245 400.034768 
L 964.336951 406.000569 
L 965.329657 399.911758 
L 966.322363 406.259265 
L 967.315068 405.863687 
L 968.307774 403.956923 
L 969.30048 403.79176 
L 970.293186 406.452801 
L 971.285892 416.384468 
L 972.278598 404.008247 
L 973.271304 405.167813 
L 974.26401 409.709145 
L 975.256716 404.139631 
L 976.249422 408.930279 
L 978.234834 395.998177 
L 979.22754 403.953207 
L 981.212951 409.93812 
L 982.205657 403.970001 
L 983.198363 408.183849 
L 984.191069 404.126927 
L 985.183775 403.271239 
L 986.176481 399.350493 
L 987.169187 408.409196 
L 988.161893 399.087098 
L 989.154599 402.100506 
L 990.147305 404.014472 
L 991.140011 409.816042 
L 992.132717 406.89538 
L 993.125423 400.091265 
L 994.118128 401.850521 
L 995.110834 397.780494 
L 996.10354 415.588791 
L 997.096246 414.742226 
L 998.088952 409.165418 
L 999.081658 410.857402 
L 1000.074364 412.289118 
L 1001.06707 405.014904 
L 1002.059776 404.804448 
L 1003.052482 409.802732 
L 1004.045188 409.250037 
L 1005.037894 400.138826 
L 1006.0306 399.739255 
L 1007.023305 406.382418 
L 1008.016011 408.2381 
L 1009.008717 398.598325 
L 1010.001423 399.460972 
L 1010.994129 412.627332 
L 1011.986835 407.507911 
L 1012.979541 404.764846 
L 1013.972247 408.908547 
L 1014.964953 410.019819 
L 1015.957659 406.897435 
L 1016.950365 398.203879 
L 1017.943071 405.382481 
L 1018.935777 401.585371 
L 1019.928482 407.792198 
L 1020.921188 400.852201 
L 1021.913894 402.575923 
L 1022.9066 403.586522 
L 1023.899306 396.722773 
L 1024.892012 406.20623 
L 1025.884718 406.354514 
L 1026.877424 402.104352 
L 1027.87013 408.099328 
L 1028.862836 404.183064 
L 1029.855542 404.111869 
L 1030.848248 408.353941 
L 1031.840954 410.499247 
L 1032.833659 405.462604 
L 1033.826365 419.051082 
L 1034.819071 403.4868 
L 1035.811777 411.734548 
L 1036.804483 405.583854 
L 1037.797189 402.406897 
L 1038.789895 405.21112 
L 1039.782601 418.761184 
L 1040.775307 408.37308 
L 1041.768013 409.023732 
L 1042.760719 404.738507 
L 1043.753425 407.005551 
L 1044.746131 405.471729 
L 1045.738837 406.632886 
L 1046.731542 408.234823 
L 1047.724248 397.775751 
L 1048.716954 410.908553 
L 1049.70966 407.186022 
L 1050.702366 411.168853 
L 1051.695072 397.552637 
L 1052.687778 411.970386 
L 1054.67319 406.357861 
L 1055.665896 405.631486 
L 1056.658602 402.977685 
L 1057.651308 407.615384 
L 1058.644014 404.66566 
L 1059.636719 398.388 
L 1060.629425 409.602175 
L 1061.622131 405.379744 
L 1062.614837 408.230358 
L 1063.607543 408.246655 
L 1064.600249 401.820909 
L 1065.592955 411.553224 
L 1066.585661 407.492701 
L 1067.578367 406.894262 
L 1068.571073 403.50062 
L 1069.563779 409.92266 
L 1070.556485 402.492382 
L 1071.549191 416.422532 
L 1072.541896 402.341181 
L 1073.534602 405.345167 
L 1074.527308 410.727379 
L 1075.520014 403.780548 
L 1076.51272 406.929545 
L 1077.505426 398.439305 
L 1078.498132 405.084069 
L 1079.490838 403.987237 
L 1080.483544 403.256224 
L 1081.47625 407.907004 
L 1082.468956 408.054182 
L 1083.461662 399.727246 
L 1084.454368 405.8179 
L 1085.447073 411.001374 
L 1086.439779 403.318081 
L 1087.432485 411.830838 
L 1088.425191 404.857643 
L 1089.417897 411.162611 
L 1090.410603 410.716681 
L 1091.403309 411.370301 
L 1092.396015 403.495527 
L 1093.388721 410.008279 
L 1094.381427 410.033362 
L 1095.374133 403.893512 
L 1096.366839 402.609366 
L 1097.359545 407.583988 
L 1098.35225 400.978598 
L 1099.344956 408.710457 
L 1100.337662 407.218412 
L 1101.330368 405.975306 
L 1102.323074 412.325469 
L 1103.31578 411.693867 
L 1104.308486 415.998713 
L 1105.301192 409.663988 
L 1106.293898 404.89258 
L 1107.286604 412.964775 
L 1108.27931 404.951592 
L 1109.272016 415.676048 
L 1110.264722 402.115786 
L 1111.257428 410.138434 
L 1112.250133 403.623603 
L 1113.242839 404.313178 
L 1114.235545 409.830667 
L 1115.228251 403.830905 
L 1116.220957 415.710087 
L 1117.213663 406.241311 
L 1118.206369 407.201722 
L 1119.199075 406.620921 
L 1120.191781 406.671508 
L 1121.184487 406.078916 
L 1122.177193 406.873097 
L 1123.169899 411.836015 
L 1124.162605 404.042922 
L 1125.15531 406.516775 
L 1126.148016 404.29973 
L 1127.140722 416.343106 
L 1128.133428 400.660236 
L 1129.126134 412.293812 
L 1130.11884 409.78042 
L 1131.111546 406.805173 
L 1132.104252 409.18223 
L 1133.096958 405.502319 
L 1134.089664 408.247808 
L 1135.08237 422.475633 
L 1136.075076 408.997411 
L 1137.067782 412.728307 
L 1138.060487 404.197356 
L 1139.053193 405.249157 
L 1140.045899 408.34286 
L 1141.038605 409.699695 
L 1142.031311 407.518398 
L 1143.024017 415.069583 
L 1144.016723 400.404757 
L 1145.009429 408.129493 
L 1146.002135 402.071413 
L 1147.987547 411.829305 
L 1148.980253 410.837603 
L 1149.972959 405.234083 
L 1150.965664 407.392085 
L 1151.95837 401.145982 
L 1152.951076 412.862652 
L 1153.943782 404.27303 
L 1154.936488 414.424684 
L 1155.929194 402.460624 
L 1156.9219 408.341352 
L 1157.914606 407.589041 
L 1158.907312 408.415419 
L 1159.900018 410.73358 
L 1160.892724 411.541279 
L 1161.88543 409.675556 
L 1162.878136 418.134446 
L 1163.870841 405.565506 
L 1164.863547 407.224628 
L 1165.856253 405.582624 
L 1166.848959 409.738523 
L 1167.841665 403.256069 
L 1168.834371 413.157589 
L 1169.827077 409.10118 
L 1170.819783 406.485897 
L 1171.812489 404.575617 
L 1172.805195 412.755327 
L 1173.797901 415.40898 
L 1174.790607 407.526915 
L 1175.783313 407.180494 
L 1176.776019 401.680439 
L 1177.768724 403.465131 
L 1178.76143 417.363544 
L 1179.754136 415.547883 
L 1180.746842 407.943188 
L 1181.739548 413.294918 
L 1182.732254 404.711799 
L 1183.72496 414.909397 
L 1184.717666 401.742548 
L 1185.710372 417.031522 
L 1186.703078 414.124252 
L 1187.695784 405.198492 
L 1188.68849 407.698968 
L 1189.681196 408.70648 
L 1190.673901 404.752036 
L 1191.666607 399.393075 
L 1192.659313 412.357824 
L 1193.652019 412.592337 
L 1194.644725 407.582027 
L 1195.637431 409.13556 
L 1196.630137 406.56285 
L 1197.622843 399.690862 
L 1198.615549 410.446362 
L 1199.608255 403.014843 
L 1200.600961 400.691979 
L 1201.593667 406.866668 
L 1202.586373 410.235627 
L 1203.579078 407.824038 
L 1204.571784 411.452763 
L 1205.56449 405.525285 
L 1206.557196 406.330882 
L 1207.549902 403.074228 
L 1208.542608 405.725281 
L 1209.535314 408.732622 
L 1210.52802 406.99775 
L 1211.520726 399.582921 
L 1212.513432 408.142577 
L 1213.506138 407.338912 
L 1214.498844 403.421915 
L 1215.49155 414.362247 
L 1216.484255 411.288455 
L 1217.476961 412.639964 
L 1218.469667 403.816228 
L 1219.462373 409.247744 
L 1220.455079 411.523575 
L 1221.447785 409.569698 
L 1222.440491 419.315915 
L 1223.433197 410.457961 
L 1224.425903 405.28253 
L 1225.418609 407.743906 
L 1226.411315 414.069843 
L 1227.404021 416.008772 
L 1228.396727 416.666552 
L 1229.389432 402.511971 
L 1230.382138 414.023436 
L 1231.374844 418.759677 
L 1232.36755 413.972017 
L 1233.360256 403.114469 
L 1234.352962 408.489094 
L 1235.345668 418.64374 
L 1236.338374 417.650204 
L 1237.33108 405.62692 
L 1238.323786 409.651395 
L 1239.316492 410.666516 
L 1240.309198 408.39509 
L 1241.301904 411.489028 
L 1242.29461 403.777329 
L 1243.287315 401.739015 
L 1244.280021 410.068368 
L 1245.272727 405.5615 
L 1245.272727 405.5615 
" clip-path="url(#p8684e1a9ee)" style="fill: none; stroke: #1f77b4; stroke-width: 1.5; stroke-linecap: square"/>
   </g>
   <g id="patch_3">
    <path d="M 180 512.64 
L 180 69.12 
" style="fill: none; stroke: #000000; stroke-width: 0.8; stroke-linejoin: miter; stroke-linecap: square"/>
   </g>
   <g id="patch_4">
    <path d="M 1296 512.64 
L 1296 69.12 
" style="fill: none; stroke: #000000; stroke-width: 0.8; stroke-linejoin: miter; stroke-linecap: square"/>
   </g>
   <g id="patch_5">
    <path d="M 180 512.64 
L 1296 512.64 
" style="fill: none; stroke: #000000; stroke-width: 0.8; stroke-linejoin: miter; stroke-linecap: square"/>
   </g>
   <g id="patch_6">
    <path d="M 180 69.12 
L 1296 69.12 
" style="fill: none; stroke: #000000; stroke-width: 0.8; stroke-linejoin: miter; stroke-linecap: square"/>
   </g>
   <g id="text_13">
    <!-- source14-receiver16 -->
    <g transform="translate(532.175 60.80125) scale(0.4 -0.4)">
     <defs>
      <path id="DejaVuSans-73" d="M 2834 3397 
L 2834 2853 
Q 2591 2978 2328 3040 
Q 2066 3103 1784 3103 
Q 1356 3103 1142 2972 
Q 928 2841 928 2578 
Q 928 2378 1081 2264 
Q 1234 2150 1697 2047 
L 1894 2003 
Q 2506 1872 2764 1633 
Q 3022 1394 3022 966 
Q 3022 478 2636 193 
Q 2250 -91 1575 -91 
Q 1294 -91 989 -36 
Q 684 19 347 128 
L 347 722 
Q 666 556 975 473 
Q 1284 391 1588 391 
Q 1994 391 2212 530 
Q 2431 669 2431 922 
Q 2431 1156 2273 1281 
Q 2116 1406 1581 1522 
L 1381 1569 
Q 847 1681 609 1914 
Q 372 2147 372 2553 
Q 372 3047 722 3315 
Q 1072 3584 1716 3584 
Q 2034 3584 2315 3537 
Q 2597 3491 2834 3397 
z
" transform="scale(0.015625)"/>
      <path id="DejaVuSans-6f" d="M 1959 3097 
Q 1497 3097 1228 2736 
Q 959 2375 959 1747 
Q 959 1119 1226 758 
Q 1494 397 1959 397 
Q 2419 397 2687 759 
Q 2956 1122 2956 1747 
Q 2956 2369 2687 2733 
Q 2419 3097 1959 3097 
z
M 1959 3584 
Q 2709 3584 3137 3096 
Q 3566 2609 3566 1747 
Q 3566 888 3137 398 
Q 2709 -91 1959 -91 
Q 1206 -91 779 398 
Q 353 888 353 1747 
Q 353 2609 779 3096 
Q 1206 3584 1959 3584 
z
" transform="scale(0.015625)"/>
      <path id="DejaVuSans-75" d="M 544 1381 
L 544 3500 
L 1119 3500 
L 1119 1403 
Q 1119 906 1312 657 
Q 1506 409 1894 409 
Q 2359 409 2629 706 
Q 2900 1003 2900 1516 
L 2900 3500 
L 3475 3500 
L 3475 0 
L 2900 0 
L 2900 538 
Q 2691 219 2414 64 
Q 2138 -91 1772 -91 
Q 1169 -91 856 284 
Q 544 659 544 1381 
z
M 1991 3584 
L 1991 3584 
z
" transform="scale(0.015625)"/>
      <path id="DejaVuSans-72" d="M 2631 2963 
Q 2534 3019 2420 3045 
Q 2306 3072 2169 3072 
Q 1681 3072 1420 2755 
Q 1159 2438 1159 1844 
L 1159 0 
L 581 0 
L 581 3500 
L 1159 3500 
L 1159 2956 
Q 1341 3275 1631 3429 
Q 1922 3584 2338 3584 
Q 2397 3584 2469 3576 
Q 2541 3569 2628 3553 
L 2631 2963 
z
" transform="scale(0.015625)"/>
      <path id="DejaVuSans-63" d="M 3122 3366 
L 3122 2828 
Q 2878 2963 2633 3030 
Q 2388 3097 2138 3097 
Q 1578 3097 1268 2742 
Q 959 2388 959 1747 
Q 959 1106 1268 751 
Q 1578 397 2138 397 
Q 2388 397 2633 464 
Q 2878 531 3122 666 
L 3122 134 
Q 2881 22 2623 -34 
Q 2366 -91 2075 -91 
Q 1284 -91 818 406 
Q 353 903 353 1747 
Q 353 2603 823 3093 
Q 1294 3584 2113 3584 
Q 2378 3584 2631 3529 
Q 2884 3475 3122 3366 
z
" transform="scale(0.015625)"/>
      <path id="DejaVuSans-65" d="M 3597 1894 
L 3597 1613 
L 953 1613 
Q 991 1019 1311 708 
Q 1631 397 2203 397 
Q 2534 397 2845 478 
Q 3156 559 3463 722 
L 3463 178 
Q 3153 47 2828 -22 
Q 2503 -91 2169 -91 
Q 1331 -91 842 396 
Q 353 884 353 1716 
Q 353 2575 817 3079 
Q 1281 3584 2069 3584 
Q 2775 3584 3186 3129 
Q 3597 2675 3597 1894 
z
M 3022 2063 
Q 3016 2534 2758 2815 
Q 2500 3097 2075 3097 
Q 1594 3097 1305 2825 
Q 1016 2553 972 2059 
L 3022 2063 
z
" transform="scale(0.015625)"/>
      <path id="DejaVuSans-2d" d="M 313 2009 
L 1997 2009 
L 1997 1497 
L 313 1497 
L 313 2009 
z
" transform="scale(0.015625)"/>
      <path id="DejaVuSans-69" d="M 603 3500 
L 1178 3500 
L 1178 0 
L 603 0 
L 603 3500 
z
M 603 4863 
L 1178 4863 
L 1178 4134 
L 603 4134 
L 603 4863 
z
" transform="scale(0.015625)"/>
      <path id="DejaVuSans-76" d="M 191 3500 
L 800 3500 
L 1894 563 
L 2988 3500 
L 3597 3500 
L 2284 0 
L 1503 0 
L 191 3500 
z
" transform="scale(0.015625)"/>
     </defs>
     <use xlink:href="#DejaVuSans-73"/>
     <use xlink:href="#DejaVuSans-6f" x="52.099609"/>
     <use xlink:href="#DejaVuSans-75" x="113.28125"/>
     <use xlink:href="#DejaVuSans-72" x="176.660156"/>
     <use xlink:href="#DejaVuSans-63" x="215.523438"/>
     <use xlink:href="#DejaVuSans-65" x="270.503906"/>
     <use xlink:href="#DejaVuSans-31" x="332.027344"/>
     <use xlink:href="#DejaVuSans-34" x="395.650391"/>
     <use xlink:href="#DejaVuSans-2d" x="459.273438"/>
     <use xlink:href="#DejaVuSans-72" x="495.357422"/>
     <use xlink:href="#DejaVuSans-65" x="534.220703"/>
     <use xlink:href="#DejaVuSans-63" x="595.744141"/>
     <use xlink:href="#DejaVuSans-65" x="650.724609"/>
     <use xlink:href="#DejaVuSans-69" x="712.248047"/>
     <use xlink:href="#DejaVuSans-76" x="740.03125"/>
     <use xlink:href="#DejaVuSans-65" x="799.210938"/>
     <use xlink:href="#DejaVuSans-72" x="860.734375"/>
     <use xlink:href="#DejaVuSans-31" x="901.847656"/>
     <use xlink:href="#DejaVuSans-36" x="965.470703"/>
    </g>
   </g>
  </g>
 </g>
 <defs>
  <clipPath id="p8684e1a9ee">
   <rect x="180" y="69.12" width="1116" height="443.52"/>
  </clipPath>
 </defs>
</svg>
