<?xml version="1.0" encoding="utf-8" standalone="no"?>
<!DOCTYPE svg PUBLIC "-//W3C//DTD SVG 1.1//EN"
  "http://www.w3.org/Graphics/SVG/1.1/DTD/svg11.dtd">
<svg xmlns:xlink="http://www.w3.org/1999/xlink" width="1440pt" height="576pt" viewBox="0 0 1440 576" xmlns="http://www.w3.org/2000/svg" version="1.1">
 <metadata>
  <rdf:RDF xmlns:dc="http://purl.org/dc/elements/1.1/" xmlns:cc="http://creativecommons.org/ns#" xmlns:rdf="http://www.w3.org/1999/02/22-rdf-syntax-ns#">
   <cc:Work>
    <dc:type rdf:resource="http://purl.org/dc/dcmitype/StillImage"/>
    <dc:date>2024-05-22T04:50:06.225665</dc:date>
    <dc:format>image/svg+xml</dc:format>
    <dc:creator>
     <cc:Agent>
      <dc:title>Matplotlib v3.8.3, https://matplotlib.org/</dc:title>
     </cc:Agent>
    </dc:creator>
   </cc:Work>
  </rdf:RDF>
 </metadata>
 <defs>
  <style type="text/css">*{stroke-linejoin: round; stroke-linecap: butt}</style>
 </defs>
 <g id="figure_1">
  <g id="patch_1">
   <path d="M 0 576 
L 1440 576 
L 1440 0 
L 0 0 
z
" style="fill: #ffffff"/>
  </g>
  <g id="axes_1">
   <g id="patch_2">
    <path d="M 180 512.64 
L 1296 512.64 
L 1296 69.12 
L 180 69.12 
z
" style="fill: #ffffff"/>
   </g>
   <g id="matplotlib.axis_1">
    <g id="xtick_1">
     <g id="line2d_1">
      <defs>
       <path id="m80de35395b" d="M 0 0 
L 0 3.5 
" style="stroke: #000000; stroke-width: 0.8"/>
      </defs>
      <g>
       <use xlink:href="#m80de35395b" x="229.734567" y="512.64" style="stroke: #000000; stroke-width: 0.8"/>
      </g>
     </g>
     <g id="text_1">
      <!-- 0 -->
      <g transform="translate(226.553317 527.238438) scale(0.1 -0.1)">
       <defs>
        <path id="DejaVuSans-30" d="M 2034 4250 
Q 1547 4250 1301 3770 
Q 1056 3291 1056 2328 
Q 1056 1369 1301 889 
Q 1547 409 2034 409 
Q 2525 409 2770 889 
Q 3016 1369 3016 2328 
Q 3016 3291 2770 3770 
Q 2525 4250 2034 4250 
z
M 2034 4750 
Q 2819 4750 3233 4129 
Q 3647 3509 3647 2328 
Q 3647 1150 3233 529 
Q 2819 -91 2034 -91 
Q 1250 -91 836 529 
Q 422 1150 422 2328 
Q 422 3509 836 4129 
Q 1250 4750 2034 4750 
z
" transform="scale(0.015625)"/>
       </defs>
       <use xlink:href="#DejaVuSans-30"/>
      </g>
     </g>
    </g>
    <g id="xtick_2">
     <g id="line2d_2">
      <g>
       <use xlink:href="#m80de35395b" x="433.04074" y="512.64" style="stroke: #000000; stroke-width: 0.8"/>
      </g>
     </g>
     <g id="text_2">
      <!-- 500 -->
      <g transform="translate(423.49699 527.238438) scale(0.1 -0.1)">
       <defs>
        <path id="DejaVuSans-35" d="M 691 4666 
L 3169 4666 
L 3169 4134 
L 1269 4134 
L 1269 2991 
Q 1406 3038 1543 3061 
Q 1681 3084 1819 3084 
Q 2600 3084 3056 2656 
Q 3513 2228 3513 1497 
Q 3513 744 3044 326 
Q 2575 -91 1722 -91 
Q 1428 -91 1123 -41 
Q 819 9 494 109 
L 494 744 
Q 775 591 1075 516 
Q 1375 441 1709 441 
Q 2250 441 2565 725 
Q 2881 1009 2881 1497 
Q 2881 1984 2565 2268 
Q 2250 2553 1709 2553 
Q 1456 2553 1204 2497 
Q 953 2441 691 2322 
L 691 4666 
z
" transform="scale(0.015625)"/>
       </defs>
       <use xlink:href="#DejaVuSans-35"/>
       <use xlink:href="#DejaVuSans-30" x="63.623047"/>
       <use xlink:href="#DejaVuSans-30" x="127.246094"/>
      </g>
     </g>
    </g>
    <g id="xtick_3">
     <g id="line2d_3">
      <g>
       <use xlink:href="#m80de35395b" x="636.346913" y="512.64" style="stroke: #000000; stroke-width: 0.8"/>
      </g>
     </g>
     <g id="text_3">
      <!-- 1000 -->
      <g transform="translate(623.621913 527.238438) scale(0.1 -0.1)">
       <defs>
        <path id="DejaVuSans-31" d="M 794 531 
L 1825 531 
L 1825 4091 
L 703 3866 
L 703 4441 
L 1819 4666 
L 2450 4666 
L 2450 531 
L 3481 531 
L 3481 0 
L 794 0 
L 794 531 
z
" transform="scale(0.015625)"/>
       </defs>
       <use xlink:href="#DejaVuSans-31"/>
       <use xlink:href="#DejaVuSans-30" x="63.623047"/>
       <use xlink:href="#DejaVuSans-30" x="127.246094"/>
       <use xlink:href="#DejaVuSans-30" x="190.869141"/>
      </g>
     </g>
    </g>
    <g id="xtick_4">
     <g id="line2d_4">
      <g>
       <use xlink:href="#m80de35395b" x="839.653087" y="512.64" style="stroke: #000000; stroke-width: 0.8"/>
      </g>
     </g>
     <g id="text_4">
      <!-- 1500 -->
      <g transform="translate(826.928087 527.238438) scale(0.1 -0.1)">
       <use xlink:href="#DejaVuSans-31"/>
       <use xlink:href="#DejaVuSans-35" x="63.623047"/>
       <use xlink:href="#DejaVuSans-30" x="127.246094"/>
       <use xlink:href="#DejaVuSans-30" x="190.869141"/>
      </g>
     </g>
    </g>
    <g id="xtick_5">
     <g id="line2d_5">
      <g>
       <use xlink:href="#m80de35395b" x="1042.95926" y="512.64" style="stroke: #000000; stroke-width: 0.8"/>
      </g>
     </g>
     <g id="text_5">
      <!-- 2000 -->
      <g transform="translate(1030.23426 527.238438) scale(0.1 -0.1)">
       <defs>
        <path id="DejaVuSans-32" d="M 1228 531 
L 3431 531 
L 3431 0 
L 469 0 
L 469 531 
Q 828 903 1448 1529 
Q 2069 2156 2228 2338 
Q 2531 2678 2651 2914 
Q 2772 3150 2772 3378 
Q 2772 3750 2511 3984 
Q 2250 4219 1831 4219 
Q 1534 4219 1204 4116 
Q 875 4013 500 3803 
L 500 4441 
Q 881 4594 1212 4672 
Q 1544 4750 1819 4750 
Q 2544 4750 2975 4387 
Q 3406 4025 3406 3419 
Q 3406 3131 3298 2873 
Q 3191 2616 2906 2266 
Q 2828 2175 2409 1742 
Q 1991 1309 1228 531 
z
" transform="scale(0.015625)"/>
       </defs>
       <use xlink:href="#DejaVuSans-32"/>
       <use xlink:href="#DejaVuSans-30" x="63.623047"/>
       <use xlink:href="#DejaVuSans-30" x="127.246094"/>
       <use xlink:href="#DejaVuSans-30" x="190.869141"/>
      </g>
     </g>
    </g>
    <g id="xtick_6">
     <g id="line2d_6">
      <g>
       <use xlink:href="#m80de35395b" x="1246.265433" y="512.64" style="stroke: #000000; stroke-width: 0.8"/>
      </g>
     </g>
     <g id="text_6">
      <!-- 2500 -->
      <g transform="translate(1233.540433 527.238438) scale(0.1 -0.1)">
       <use xlink:href="#DejaVuSans-32"/>
       <use xlink:href="#DejaVuSans-35" x="63.623047"/>
       <use xlink:href="#DejaVuSans-30" x="127.246094"/>
       <use xlink:href="#DejaVuSans-30" x="190.869141"/>
      </g>
     </g>
    </g>
   </g>
   <g id="matplotlib.axis_2">
    <g id="ytick_1">
     <g id="line2d_7">
      <defs>
       <path id="mc6530f39c8" d="M 0 0 
L -3.5 0 
" style="stroke: #000000; stroke-width: 0.8"/>
      </defs>
      <g>
       <use xlink:href="#mc6530f39c8" x="180" y="429.453607" style="stroke: #000000; stroke-width: 0.8"/>
      </g>
     </g>
     <g id="text_7">
      <!-- −4 -->
      <g transform="translate(158.257812 433.252825) scale(0.1 -0.1)">
       <defs>
        <path id="DejaVuSans-2212" d="M 678 2272 
L 4684 2272 
L 4684 1741 
L 678 1741 
L 678 2272 
z
" transform="scale(0.015625)"/>
        <path id="DejaVuSans-34" d="M 2419 4116 
L 825 1625 
L 2419 1625 
L 2419 4116 
z
M 2253 4666 
L 3047 4666 
L 3047 1625 
L 3713 1625 
L 3713 1100 
L 3047 1100 
L 3047 0 
L 2419 0 
L 2419 1100 
L 313 1100 
L 313 1709 
L 2253 4666 
z
" transform="scale(0.015625)"/>
       </defs>
       <use xlink:href="#DejaVuSans-2212"/>
       <use xlink:href="#DejaVuSans-34" x="83.789062"/>
      </g>
     </g>
    </g>
    <g id="ytick_2">
     <g id="line2d_8">
      <g>
       <use xlink:href="#mc6530f39c8" x="180" y="346.128656" style="stroke: #000000; stroke-width: 0.8"/>
      </g>
     </g>
     <g id="text_8">
      <!-- −2 -->
      <g transform="translate(158.257812 349.927875) scale(0.1 -0.1)">
       <use xlink:href="#DejaVuSans-2212"/>
       <use xlink:href="#DejaVuSans-32" x="83.789062"/>
      </g>
     </g>
    </g>
    <g id="ytick_3">
     <g id="line2d_9">
      <g>
       <use xlink:href="#mc6530f39c8" x="180" y="262.803705" style="stroke: #000000; stroke-width: 0.8"/>
      </g>
     </g>
     <g id="text_9">
      <!-- 0 -->
      <g transform="translate(166.6375 266.602924) scale(0.1 -0.1)">
       <use xlink:href="#DejaVuSans-30"/>
      </g>
     </g>
    </g>
    <g id="ytick_4">
     <g id="line2d_10">
      <g>
       <use xlink:href="#mc6530f39c8" x="180" y="179.478755" style="stroke: #000000; stroke-width: 0.8"/>
      </g>
     </g>
     <g id="text_10">
      <!-- 2 -->
      <g transform="translate(166.6375 183.277973) scale(0.1 -0.1)">
       <use xlink:href="#DejaVuSans-32"/>
      </g>
     </g>
    </g>
    <g id="ytick_5">
     <g id="line2d_11">
      <g>
       <use xlink:href="#mc6530f39c8" x="180" y="96.153804" style="stroke: #000000; stroke-width: 0.8"/>
      </g>
     </g>
     <g id="text_11">
      <!-- 4 -->
      <g transform="translate(166.6375 99.953023) scale(0.1 -0.1)">
       <use xlink:href="#DejaVuSans-34"/>
      </g>
     </g>
    </g>
   </g>
   <g id="line2d_12">
    <path d="M 230.727273 199.056932 
L 231.719979 198.76149 
L 232.712685 198.276119 
L 234.698096 196.847449 
L 242.639744 190.839563 
L 243.63245 190.503497 
L 244.625156 190.750736 
L 245.617862 191.736872 
L 246.610568 192.459834 
L 247.603273 188.705138 
L 248.595979 176.741836 
L 249.588685 161.564802 
L 250.581391 149.194809 
L 251.574097 141.125382 
L 252.566803 136.492655 
L 253.559509 133.975201 
L 254.552215 132.633863 
L 255.544921 131.918038 
L 256.537627 131.544082 
L 260.50845 130.650653 
L 261.501156 130.216358 
L 262.493862 129.641637 
L 263.486568 128.915165 
L 265.47198 127.069675 
L 270.43551 121.967248 
L 271.428216 121.229251 
L 272.420922 120.700351 
L 273.413627 120.391495 
L 274.406333 120.386961 
L 275.399039 120.707394 
L 276.391745 121.39172 
L 278.377157 123.428748 
L 279.369863 124.168656 
L 280.362569 124.092893 
L 281.355275 122.65248 
L 282.347981 119.685119 
L 283.340687 115.460311 
L 287.31151 95.734516 
L 288.304216 92.401913 
L 289.296922 90.247997 
L 290.289628 89.28 
L 291.282334 89.376707 
L 292.27504 90.349731 
L 293.267746 92.008355 
L 294.260452 94.1625 
L 296.245864 99.444213 
L 298.231276 105.637207 
L 300.216687 112.555852 
L 303.194805 124.006037 
L 306.172923 135.436411 
L 307.165629 138.803424 
L 308.158335 141.776699 
L 309.151041 144.3006 
L 310.143747 146.377638 
L 311.136453 148.08447 
L 313.121864 150.825831 
L 315.107276 153.587645 
L 316.099982 155.231288 
L 317.092688 157.207407 
L 318.085394 159.55172 
L 319.0781 162.29932 
L 320.070806 165.521806 
L 322.056218 173.202067 
L 324.04163 181.4384 
L 325.034336 184.558408 
L 326.027041 186.122264 
L 327.019747 185.56735 
L 328.012453 183.138351 
L 329.005159 179.499054 
L 331.983277 167.500963 
L 332.975983 164.158483 
L 333.968689 161.296872 
L 334.961395 158.912298 
L 335.954101 156.994618 
L 336.946807 155.521029 
L 337.939513 154.473367 
L 338.932218 153.816551 
L 339.924924 153.515118 
L 340.91763 153.54923 
L 341.910336 153.88598 
L 342.903042 154.518175 
L 343.895748 155.372329 
L 345.88116 157.602244 
L 348.859278 161.187686 
L 349.851984 162.116957 
L 350.84469 162.762466 
L 351.837395 163.046969 
L 353.822807 162.63717 
L 354.815513 162.073135 
L 358.786337 159.136588 
L 359.779043 158.639761 
L 360.771749 158.37654 
L 361.764455 158.390989 
L 362.757161 158.682183 
L 363.749867 159.298442 
L 364.742572 160.27598 
L 365.735278 161.622555 
L 366.727984 163.366763 
L 367.72069 165.547516 
L 368.713396 168.212892 
L 369.706102 171.417471 
L 370.698808 175.192124 
L 371.691514 179.608552 
L 372.68422 184.752865 
L 373.676926 190.682669 
L 375.662338 205.139908 
L 376.655044 212.927801 
L 377.64775 219.265315 
L 378.640455 221.700153 
L 379.633161 218.97998 
L 380.625867 213.122988 
L 382.611279 200.401289 
L 383.603985 195.083598 
L 384.596691 190.603165 
L 385.589397 186.879523 
L 386.582103 183.862646 
L 387.574809 181.443046 
L 388.567515 179.502963 
L 389.560221 178.028312 
L 390.552927 176.960449 
L 391.545632 176.226288 
L 392.538338 175.782045 
L 393.531044 175.614792 
L 394.52375 175.660599 
L 395.516456 175.843262 
L 397.501868 176.590015 
L 403.458104 179.255813 
L 407.428927 180.640922 
L 409.414339 181.626198 
L 410.407045 182.305047 
L 411.399751 183.121984 
L 412.392457 184.096504 
L 413.385163 185.26248 
L 414.377869 186.628678 
L 415.370575 188.211566 
L 417.355986 192.031804 
L 418.348692 194.295878 
L 420.334104 199.546593 
L 422.319516 205.638114 
L 425.297634 215.938558 
L 427.283046 222.878809 
L 428.275752 225.988841 
L 429.268458 228.692949 
L 430.261163 230.873733 
L 431.253869 232.388816 
L 432.246575 233.104051 
L 433.239281 233.044135 
L 434.231987 232.30109 
L 435.224693 230.894978 
L 436.217399 229.027779 
L 438.202811 224.129268 
L 441.180929 215.811804 
L 444.159046 207.940213 
L 446.144458 203.46 
L 448.12987 199.831777 
L 449.122576 198.345422 
L 450.115282 197.111075 
L 451.107988 196.060517 
L 452.100694 195.296123 
L 453.0934 194.722668 
L 454.086106 194.416736 
L 455.078812 194.372954 
L 456.071518 194.559108 
L 457.064223 194.949001 
L 458.056929 195.576459 
L 459.049635 196.464673 
L 460.042341 197.553929 
L 461.035047 198.885994 
L 463.020459 202.259732 
L 465.005871 206.635472 
L 466.991283 212.077362 
L 468.976695 218.774867 
L 469.9694 222.652881 
L 470.962106 227.004742 
L 472.947518 237.357503 
L 473.940224 243.728722 
L 475.925636 259.771364 
L 476.918342 270.718868 
L 477.911048 283.606241 
L 478.903754 294.075329 
L 479.89646 293.686162 
L 482.874577 258.828648 
L 483.867283 250.013997 
L 484.859989 242.744068 
L 485.852695 236.566337 
L 486.845401 231.391389 
L 487.838107 226.925163 
L 489.823519 219.90981 
L 490.816225 217.224625 
L 491.808931 214.993686 
L 492.801637 213.164809 
L 493.794343 211.729301 
L 494.787049 210.648612 
L 495.779754 209.996169 
L 496.77246 209.653662 
L 497.765166 209.682463 
L 498.757872 210.051151 
L 499.750578 210.8158 
L 500.743284 211.91676 
L 501.73599 213.336386 
L 502.728696 215.229158 
L 503.721402 217.45842 
L 504.714108 220.047221 
L 505.706814 223.193509 
L 506.69952 226.709603 
L 508.684932 235.092202 
L 512.655755 254.050877 
L 513.648461 256.968771 
L 514.641167 258.444264 
L 515.633873 257.928641 
L 516.626579 255.813233 
L 520.597403 244.421408 
L 521.590109 242.175674 
L 522.582814 240.289339 
L 523.57552 238.716789 
L 524.568226 237.402544 
L 525.560932 236.401512 
L 526.553638 235.665463 
L 528.53905 234.673956 
L 529.531756 234.381701 
L 530.524462 234.304019 
L 531.517168 234.098294 
L 533.50258 234.046796 
L 535.487991 234.267734 
L 537.473403 234.985894 
L 538.466109 235.701491 
L 539.458815 236.667571 
L 540.451521 237.951162 
L 541.444227 239.602218 
L 542.436933 241.805124 
L 543.429639 244.533403 
L 544.422345 248.015701 
L 545.415051 252.321892 
L 546.407757 257.827964 
L 547.400463 264.601838 
L 548.393168 273.334342 
L 550.37858 295.530584 
L 551.371286 301.271464 
L 552.363992 293.121205 
L 554.349404 268.079538 
L 555.34211 258.058766 
L 556.334816 249.985683 
L 557.327522 243.209405 
L 558.320228 237.510437 
L 559.312934 232.757872 
L 560.30564 228.757094 
L 561.298345 225.31551 
L 562.291051 222.546361 
L 563.283757 220.141341 
L 564.276463 218.274284 
L 565.269169 216.807068 
L 566.261875 215.766754 
L 567.254581 215.044654 
L 568.247287 214.725593 
L 569.239993 214.693295 
L 570.232699 215.058075 
L 571.225405 215.762048 
L 572.218111 216.801447 
L 573.210817 218.147781 
L 574.203523 219.868265 
L 575.196228 221.928125 
L 576.188934 224.337012 
L 577.18164 227.09439 
L 578.174346 230.33725 
L 580.159758 237.992162 
L 581.152464 242.497532 
L 582.14517 247.524076 
L 584.130582 259.459537 
L 586.115994 274.344597 
L 587.1087 283.294637 
L 588.101405 293.288997 
L 590.086817 317.362219 
L 591.079523 329.76802 
L 592.072229 337.035773 
L 593.064935 335.137737 
L 594.057641 328.047489 
L 596.043053 310.550916 
L 598.028465 296.308495 
L 600.013877 283.771848 
L 601.999288 272.676666 
L 603.9847 263.722673 
L 605.970112 256.320755 
L 606.962818 253.118754 
L 607.955524 250.410679 
L 609.940936 246.206404 
L 610.933642 244.611392 
L 611.926348 243.352493 
L 612.919054 242.501176 
L 613.911759 241.931198 
L 614.904465 241.75284 
L 615.897171 241.837562 
L 616.889877 242.300955 
L 617.882583 243.053838 
L 618.875289 244.228293 
L 619.867995 245.79396 
L 620.860701 247.616084 
L 621.853407 249.858724 
L 622.846113 252.474376 
L 623.838819 255.476972 
L 624.831525 258.934806 
L 626.816936 267.451092 
L 628.802348 278.395552 
L 629.795054 284.817091 
L 630.78776 292.312077 
L 632.773172 310.79866 
L 633.765878 322.016973 
L 635.75129 346.948616 
L 636.743996 354.618234 
L 637.736702 352.059084 
L 640.714819 332.867089 
L 642.700231 326.039462 
L 643.692937 323.884821 
L 644.685643 321.456365 
L 645.678349 319.596403 
L 648.656467 311.858211 
L 651.634585 302.614946 
L 652.627291 299.57636 
L 653.619996 297.010026 
L 655.605408 292.816441 
L 656.598114 291.286668 
L 657.59082 290.106388 
L 658.583526 289.233635 
L 659.576232 288.766776 
L 660.568938 288.746548 
L 661.561644 289.202699 
L 662.55435 289.904582 
L 663.547056 291.007803 
L 664.539762 292.430099 
L 666.525173 296.290477 
L 669.503291 304.136401 
L 670.495997 306.441783 
L 671.488703 308.459535 
L 672.481409 309.67872 
L 673.474115 310.264515 
L 674.466821 309.662754 
L 675.459527 308.329997 
L 677.444939 304.725718 
L 679.43035 300.85689 
L 681.415762 297.497678 
L 683.401174 295.526239 
L 685.386586 295.173171 
L 686.379292 295.562946 
L 687.371998 296.44129 
L 688.364704 297.484925 
L 689.35741 298.859168 
L 691.342822 303.347664 
L 693.328233 309.971919 
L 695.313645 318.547613 
L 697.299057 329.833219 
L 699.284469 342.837644 
L 700.277175 348.002134 
L 701.269881 350.264766 
L 702.262587 349.15582 
L 703.255293 345.212037 
L 704.247999 339.32497 
L 706.23341 329.462363 
L 707.226116 325.05244 
L 708.218822 321.503077 
L 709.211528 318.613645 
L 710.204234 316.44841 
L 711.19694 314.604323 
L 712.189646 313.420808 
L 713.182352 312.758172 
L 714.175058 312.706176 
L 715.167764 312.986145 
L 717.153176 316.021754 
L 718.145882 317.902271 
L 719.138587 321.199719 
L 720.131293 325.021028 
L 721.123999 330.03723 
L 722.116705 336.398917 
L 723.109411 344.307342 
L 725.094823 365.017864 
L 726.087529 372.216164 
L 727.080235 367.136847 
L 730.058353 335.196085 
L 731.051059 327.371578 
L 732.043764 320.520035 
L 733.03647 315.0356 
L 734.029176 310.408702 
L 735.021882 306.629718 
L 736.014588 303.627412 
L 737.007294 301.097061 
L 738 299.195032 
L 738.992706 297.933386 
L 739.985412 297.200238 
L 740.978118 296.812505 
L 741.970824 297.002956 
L 742.96353 297.763594 
L 743.956236 298.917882 
L 744.948941 300.690353 
L 745.941647 303.089192 
L 746.934353 306.021263 
L 747.927059 309.805489 
L 748.919765 314.302306 
L 749.912471 319.609231 
L 752.890589 338.476633 
L 753.883295 342.2576 
L 754.876001 341.270697 
L 755.868707 336.401006 
L 756.861413 330.433119 
L 758.846824 317.645224 
L 760.832236 308.148927 
L 761.824942 304.65645 
L 762.817648 301.670972 
L 763.810354 299.392102 
L 764.80306 297.714707 
L 765.795766 296.511837 
L 766.788472 295.983634 
L 767.781178 295.908462 
L 768.773884 296.240017 
L 769.76659 297.0498 
L 770.759295 298.328476 
L 771.752001 300.220425 
L 772.744707 302.487875 
L 773.737413 305.053635 
L 775.722825 312.160678 
L 777.708237 320.329713 
L 778.700943 324.10534 
L 779.693649 326.96162 
L 780.686355 328.137498 
L 781.679061 327.534723 
L 782.671767 325.439772 
L 783.664473 322.640078 
L 785.649884 315.984413 
L 786.64259 313.138055 
L 787.635296 310.676364 
L 788.628002 308.95472 
L 789.620708 307.471205 
L 790.613414 306.686184 
L 791.60612 306.520151 
L 792.598826 306.710386 
L 793.591532 307.616241 
L 794.584238 309.217076 
L 795.576944 311.343651 
L 796.56965 314.226212 
L 797.562355 317.62319 
L 798.555061 321.926956 
L 799.547767 326.730125 
L 801.533179 337.206254 
L 802.525885 341.389708 
L 803.518591 342.060414 
L 804.511297 339.698628 
L 805.504003 335.02468 
L 807.489415 323.106857 
L 808.482121 317.594619 
L 810.467532 309.128897 
L 811.460238 305.745375 
L 813.44565 300.941908 
L 815.431062 298.259922 
L 816.423768 297.690353 
L 817.416474 297.523254 
L 818.40918 297.883558 
L 819.401886 298.708482 
L 820.394592 300.06377 
L 821.387298 301.87555 
L 822.380004 304.391729 
L 823.372709 307.410832 
L 824.365415 311.12208 
L 825.358121 315.511739 
L 826.350827 320.737084 
L 827.343533 326.759106 
L 829.328945 340.219086 
L 830.321651 345.688991 
L 831.314357 347.853276 
L 832.307063 345.174503 
L 833.299769 339.612609 
L 835.285181 327.090127 
L 837.270592 317.119497 
L 838.263298 313.356897 
L 839.256004 310.213518 
L 840.24871 307.476021 
L 841.241416 305.615336 
L 842.234122 304.212031 
L 843.226828 303.205029 
L 844.219534 302.649034 
L 845.21224 302.581781 
L 846.204946 302.907429 
L 847.197652 303.666531 
L 848.190358 304.892002 
L 850.175769 308.519979 
L 852.161181 313.817843 
L 854.146593 320.415964 
L 858.117417 335.885339 
L 859.110123 338.36479 
L 860.102829 339.668214 
L 861.095535 339.748627 
L 862.088241 338.776776 
L 863.080946 336.940154 
L 865.066358 332.169316 
L 866.059064 329.899604 
L 868.044476 326.311736 
L 870.029888 323.833483 
L 872.0153 322.399472 
L 874.000712 321.894454 
L 877.971535 320.997559 
L 881.942359 318.502961 
L 882.935065 317.800049 
L 885.913183 316.324182 
L 886.905889 316.012965 
L 887.898595 316.103736 
L 888.8913 316.346955 
L 889.884006 317.143267 
L 890.876712 318.235376 
L 891.869418 319.616177 
L 892.862124 321.490657 
L 893.85483 323.963538 
L 894.847536 326.913314 
L 895.840242 330.745911 
L 896.832948 335.196972 
L 898.81836 346.186851 
L 899.811066 352.416197 
L 900.803772 357.194712 
L 901.796477 359.468461 
L 902.789183 356.486568 
L 903.781889 350.945799 
L 906.760007 331.049921 
L 907.752713 325.50837 
L 909.738125 316.835933 
L 910.730831 313.59294 
L 911.723537 310.763895 
L 912.716243 308.646413 
L 913.708949 306.981703 
L 914.701655 305.730962 
L 915.69436 304.989927 
L 916.687066 304.73011 
L 917.679772 304.894649 
L 918.672478 305.484675 
L 919.665184 306.695946 
L 920.65789 308.571269 
L 921.650596 310.742337 
L 922.643302 313.549265 
L 923.636008 317.209244 
L 924.628714 321.685445 
L 925.62142 327.147218 
L 926.614126 334.33771 
L 927.606832 342.981475 
L 928.599537 354.732621 
L 929.592243 370.051618 
L 930.584949 388.166279 
L 931.577655 394.98173 
L 933.563067 360.332563 
L 934.555773 347.438201 
L 935.548479 338.12678 
L 936.541185 330.651122 
L 937.533891 324.788239 
L 938.526597 320.156209 
L 939.519303 316.467494 
L 940.512009 313.533631 
L 941.504714 311.37473 
L 942.49742 309.88546 
L 943.490126 308.754146 
L 944.482832 308.300223 
L 945.475538 308.248266 
L 946.468244 308.770311 
L 947.46095 309.669394 
L 948.453656 311.266444 
L 949.446362 313.335447 
L 950.439068 316.187956 
L 951.431774 319.46073 
L 952.42448 323.638219 
L 953.417186 328.479943 
L 954.409891 334.621998 
L 955.402597 341.762055 
L 956.395303 350.508406 
L 958.380715 370.738552 
L 959.373421 377.368319 
L 960.366127 373.437182 
L 963.344245 346.752499 
L 964.336951 340.182621 
L 965.329657 334.51622 
L 966.322363 330.281629 
L 967.315068 326.902711 
L 968.307774 324.475971 
L 969.30048 322.601106 
L 970.293186 321.417792 
L 971.285892 320.747722 
L 972.278598 320.591963 
L 973.271304 321.048946 
L 974.26401 321.768699 
L 975.256716 323.110699 
L 976.249422 324.854525 
L 977.242128 327.219647 
L 978.234834 330.112068 
L 982.205657 343.755934 
L 983.198363 346.333615 
L 984.191069 348.199482 
L 985.183775 348.517771 
L 986.176481 347.525444 
L 987.169187 345.465034 
L 990.147305 337.321191 
L 991.140011 334.707897 
L 992.132717 332.677173 
L 993.125423 331.25876 
L 994.118128 330.106164 
L 995.110834 329.365334 
L 996.10354 329.494686 
L 997.096246 329.792014 
L 998.088952 330.93607 
L 999.081658 332.429658 
L 1000.074364 334.374026 
L 1001.06707 337.188647 
L 1002.059776 340.421863 
L 1003.052482 344.185925 
L 1007.023305 362.462365 
L 1008.016011 363.467234 
L 1009.008717 362.203444 
L 1010.001423 358.564114 
L 1010.994129 354.000982 
L 1012.979541 343.73632 
L 1013.972247 339.13419 
L 1015.957659 332.368406 
L 1016.950365 329.888738 
L 1017.943071 327.831847 
L 1018.935777 326.289298 
L 1019.928482 325.359788 
L 1020.921188 324.781549 
L 1021.913894 324.857091 
L 1022.9066 325.305433 
L 1023.899306 326.44665 
L 1025.884718 330.02669 
L 1026.877424 332.69577 
L 1027.87013 335.912417 
L 1028.862836 340.135066 
L 1029.855542 345.276287 
L 1030.848248 351.580094 
L 1031.840954 358.904007 
L 1034.819071 385.71989 
L 1035.811777 387.099932 
L 1036.804483 380.39544 
L 1038.789895 362.893907 
L 1039.782601 355.471169 
L 1040.775307 349.691015 
L 1041.768013 344.625248 
L 1042.760719 340.637134 
L 1044.746131 334.601963 
L 1045.738837 332.932694 
L 1046.731542 331.54468 
L 1047.724248 330.56116 
L 1048.716954 330.294104 
L 1049.70966 330.496636 
L 1050.702366 330.990445 
L 1051.695072 332.143503 
L 1052.687778 333.775373 
L 1053.680484 335.802003 
L 1054.67319 338.084175 
L 1056.658602 344.633099 
L 1058.644014 352.28896 
L 1059.636719 356.71794 
L 1061.622131 364.263799 
L 1062.614837 367.079074 
L 1063.607543 368.246809 
L 1064.600249 368.048474 
L 1065.592955 366.452097 
L 1066.585661 364.466489 
L 1067.578367 362.1951 
L 1068.571073 359.47084 
L 1069.563779 357.573089 
L 1070.556485 355.988493 
L 1071.549191 354.770135 
L 1072.541896 353.864213 
L 1074.527308 353.40202 
L 1075.520014 353.974099 
L 1076.51272 354.220306 
L 1078.498132 355.351339 
L 1080.483544 356.025522 
L 1081.47625 355.973635 
L 1082.468956 355.331766 
L 1083.461662 354.492466 
L 1084.454368 352.798128 
L 1085.447073 351.324807 
L 1087.432485 347.62603 
L 1089.417897 344.837129 
L 1090.410603 343.440107 
L 1091.403309 342.390347 
L 1092.396015 341.880323 
L 1093.388721 341.5861 
L 1094.381427 342.079053 
L 1095.374133 343.032998 
L 1096.366839 344.209786 
L 1097.359545 346.301603 
L 1098.35225 349.094812 
L 1099.344956 352.684415 
L 1100.337662 357.59204 
L 1101.330368 363.448556 
L 1102.323074 370.618518 
L 1103.31578 381.699823 
L 1104.308486 397.180912 
L 1105.301192 419.1526 
L 1106.293898 470.44656 
L 1107.286604 431.079491 
L 1108.27931 398.804298 
L 1109.272016 382.047721 
L 1110.264722 369.979306 
L 1111.257428 360.520507 
L 1112.250133 353.657748 
L 1113.242839 347.811145 
L 1114.235545 343.182312 
L 1115.228251 339.332072 
L 1116.220957 336.290096 
L 1117.213663 333.754905 
L 1118.206369 332.000241 
L 1119.199075 330.727278 
L 1120.191781 330.171609 
L 1121.184487 329.88666 
L 1122.177193 330.052445 
L 1123.169899 330.940266 
L 1124.162605 332.071667 
L 1125.15531 333.994856 
L 1127.140722 339.682999 
L 1128.133428 343.431441 
L 1129.126134 347.975211 
L 1130.11884 353.43274 
L 1131.111546 359.894053 
L 1134.089664 383.551843 
L 1135.08237 385.974026 
L 1136.075076 382.114164 
L 1139.053193 359.244206 
L 1140.045899 352.970112 
L 1141.038605 347.713942 
L 1142.031311 343.138554 
L 1143.024017 339.661808 
L 1144.016723 336.698828 
L 1146.002135 332.819908 
L 1147.987547 331.382041 
L 1148.980253 331.538574 
L 1149.972959 331.97174 
L 1150.965664 332.723884 
L 1151.95837 334.024553 
L 1152.951076 335.968446 
L 1153.943782 338.609999 
L 1154.936488 341.582272 
L 1155.929194 345.220114 
L 1156.9219 349.396468 
L 1158.907312 360.668243 
L 1159.900018 367.657409 
L 1161.88543 383.400198 
L 1162.878136 388.822405 
L 1163.870841 390.242484 
L 1164.863547 385.299966 
L 1165.856253 379.338872 
L 1167.841665 366.695297 
L 1168.834371 361.2045 
L 1169.827077 357.051487 
L 1170.819783 353.96689 
L 1172.805195 349.684038 
L 1173.797901 348.35864 
L 1175.783313 347.300963 
L 1176.776019 347.675535 
L 1177.768724 348.993363 
L 1178.76143 350.762436 
L 1179.754136 353.060421 
L 1180.746842 355.841904 
L 1181.739548 359.506098 
L 1182.732254 363.748447 
L 1184.717666 375.619426 
L 1185.710372 383.640273 
L 1186.703078 394.433874 
L 1187.695784 408.380985 
L 1188.68849 429.150383 
L 1189.681196 472.050929 
L 1190.673901 492.48 
L 1191.666607 439.07114 
L 1192.659313 418.001504 
L 1193.652019 404.559375 
L 1194.644725 395.224096 
L 1196.630137 384.952868 
L 1197.622843 381.653113 
L 1198.615549 380.539569 
L 1199.608255 379.000322 
L 1200.600961 379.674734 
L 1201.593667 380.001195 
L 1202.586373 382.376725 
L 1203.579078 385.350059 
L 1204.571784 389.252781 
L 1205.56449 394.114388 
L 1206.557196 401.446007 
L 1207.549902 410.193504 
L 1208.542608 421.367293 
L 1209.535314 435.978024 
L 1210.52802 442.230035 
L 1211.520726 436.362079 
L 1212.513432 420.404085 
L 1213.506138 409.706616 
L 1214.498844 400.215518 
L 1215.49155 392.960648 
L 1216.484255 387.274422 
L 1217.476961 383.22025 
L 1218.469667 379.752542 
L 1219.462373 377.150179 
L 1220.455079 375.03604 
L 1221.447785 375.191555 
L 1222.440491 374.205834 
L 1223.433197 374.364247 
L 1225.418609 377.480389 
L 1227.404021 383.690473 
L 1228.396727 388.051045 
L 1230.382138 400.876423 
L 1231.374844 408.188009 
L 1232.36755 412.38431 
L 1233.360256 415.78731 
L 1234.352962 412.707231 
L 1235.345668 407.542701 
L 1236.338374 398.906433 
L 1239.316492 380.924486 
L 1240.309198 376.665253 
L 1241.301904 373.292884 
L 1242.29461 370.338759 
L 1244.280021 366.636379 
L 1245.272727 366.210986 
L 1245.272727 366.210986 
" clip-path="url(#p701ff51eab)" style="fill: none; stroke: #1f77b4; stroke-width: 1.5; stroke-linecap: square"/>
   </g>
   <g id="patch_3">
    <path d="M 180 512.64 
L 180 69.12 
" style="fill: none; stroke: #000000; stroke-width: 0.8; stroke-linejoin: miter; stroke-linecap: square"/>
   </g>
   <g id="patch_4">
    <path d="M 1296 512.64 
L 1296 69.12 
" style="fill: none; stroke: #000000; stroke-width: 0.8; stroke-linejoin: miter; stroke-linecap: square"/>
   </g>
   <g id="patch_5">
    <path d="M 180 512.64 
L 1296 512.64 
" style="fill: none; stroke: #000000; stroke-width: 0.8; stroke-linejoin: miter; stroke-linecap: square"/>
   </g>
   <g id="patch_6">
    <path d="M 180 69.12 
L 1296 69.12 
" style="fill: none; stroke: #000000; stroke-width: 0.8; stroke-linejoin: miter; stroke-linecap: square"/>
   </g>
   <g id="text_12">
    <!-- source14-receiver14 -->
    <g transform="translate(532.175 60.80125) scale(0.4 -0.4)">
     <defs>
      <path id="DejaVuSans-73" d="M 2834 3397 
L 2834 2853 
Q 2591 2978 2328 3040 
Q 2066 3103 1784 3103 
Q 1356 3103 1142 2972 
Q 928 2841 928 2578 
Q 928 2378 1081 2264 
Q 1234 2150 1697 2047 
L 1894 2003 
Q 2506 1872 2764 1633 
Q 3022 1394 3022 966 
Q 3022 478 2636 193 
Q 2250 -91 1575 -91 
Q 1294 -91 989 -36 
Q 684 19 347 128 
L 347 722 
Q 666 556 975 473 
Q 1284 391 1588 391 
Q 1994 391 2212 530 
Q 2431 669 2431 922 
Q 2431 1156 2273 1281 
Q 2116 1406 1581 1522 
L 1381 1569 
Q 847 1681 609 1914 
Q 372 2147 372 2553 
Q 372 3047 722 3315 
Q 1072 3584 1716 3584 
Q 2034 3584 2315 3537 
Q 2597 3491 2834 3397 
z
" transform="scale(0.015625)"/>
      <path id="DejaVuSans-6f" d="M 1959 3097 
Q 1497 3097 1228 2736 
Q 959 2375 959 1747 
Q 959 1119 1226 758 
Q 1494 397 1959 397 
Q 2419 397 2687 759 
Q 2956 1122 2956 1747 
Q 2956 2369 2687 2733 
Q 2419 3097 1959 3097 
z
M 1959 3584 
Q 2709 3584 3137 3096 
Q 3566 2609 3566 1747 
Q 3566 888 3137 398 
Q 2709 -91 1959 -91 
Q 1206 -91 779 398 
Q 353 888 353 1747 
Q 353 2609 779 3096 
Q 1206 3584 1959 3584 
z
" transform="scale(0.015625)"/>
      <path id="DejaVuSans-75" d="M 544 1381 
L 544 3500 
L 1119 3500 
L 1119 1403 
Q 1119 906 1312 657 
Q 1506 409 1894 409 
Q 2359 409 2629 706 
Q 2900 1003 2900 1516 
L 2900 3500 
L 3475 3500 
L 3475 0 
L 2900 0 
L 2900 538 
Q 2691 219 2414 64 
Q 2138 -91 1772 -91 
Q 1169 -91 856 284 
Q 544 659 544 1381 
z
M 1991 3584 
L 1991 3584 
z
" transform="scale(0.015625)"/>
      <path id="DejaVuSans-72" d="M 2631 2963 
Q 2534 3019 2420 3045 
Q 2306 3072 2169 3072 
Q 1681 3072 1420 2755 
Q 1159 2438 1159 1844 
L 1159 0 
L 581 0 
L 581 3500 
L 1159 3500 
L 1159 2956 
Q 1341 3275 1631 3429 
Q 1922 3584 2338 3584 
Q 2397 3584 2469 3576 
Q 2541 3569 2628 3553 
L 2631 2963 
z
" transform="scale(0.015625)"/>
      <path id="DejaVuSans-63" d="M 3122 3366 
L 3122 2828 
Q 2878 2963 2633 3030 
Q 2388 3097 2138 3097 
Q 1578 3097 1268 2742 
Q 959 2388 959 1747 
Q 959 1106 1268 751 
Q 1578 397 2138 397 
Q 2388 397 2633 464 
Q 2878 531 3122 666 
L 3122 134 
Q 2881 22 2623 -34 
Q 2366 -91 2075 -91 
Q 1284 -91 818 406 
Q 353 903 353 1747 
Q 353 2603 823 3093 
Q 1294 3584 2113 3584 
Q 2378 3584 2631 3529 
Q 2884 3475 3122 3366 
z
" transform="scale(0.015625)"/>
      <path id="DejaVuSans-65" d="M 3597 1894 
L 3597 1613 
L 953 1613 
Q 991 1019 1311 708 
Q 1631 397 2203 397 
Q 2534 397 2845 478 
Q 3156 559 3463 722 
L 3463 178 
Q 3153 47 2828 -22 
Q 2503 -91 2169 -91 
Q 1331 -91 842 396 
Q 353 884 353 1716 
Q 353 2575 817 3079 
Q 1281 3584 2069 3584 
Q 2775 3584 3186 3129 
Q 3597 2675 3597 1894 
z
M 3022 2063 
Q 3016 2534 2758 2815 
Q 2500 3097 2075 3097 
Q 1594 3097 1305 2825 
Q 1016 2553 972 2059 
L 3022 2063 
z
" transform="scale(0.015625)"/>
      <path id="DejaVuSans-2d" d="M 313 2009 
L 1997 2009 
L 1997 1497 
L 313 1497 
L 313 2009 
z
" transform="scale(0.015625)"/>
      <path id="DejaVuSans-69" d="M 603 3500 
L 1178 3500 
L 1178 0 
L 603 0 
L 603 3500 
z
M 603 4863 
L 1178 4863 
L 1178 4134 
L 603 4134 
L 603 4863 
z
" transform="scale(0.015625)"/>
      <path id="DejaVuSans-76" d="M 191 3500 
L 800 3500 
L 1894 563 
L 2988 3500 
L 3597 3500 
L 2284 0 
L 1503 0 
L 191 3500 
z
" transform="scale(0.015625)"/>
     </defs>
     <use xlink:href="#DejaVuSans-73"/>
     <use xlink:href="#DejaVuSans-6f" x="52.099609"/>
     <use xlink:href="#DejaVuSans-75" x="113.28125"/>
     <use xlink:href="#DejaVuSans-72" x="176.660156"/>
     <use xlink:href="#DejaVuSans-63" x="215.523438"/>
     <use xlink:href="#DejaVuSans-65" x="270.503906"/>
     <use xlink:href="#DejaVuSans-31" x="332.027344"/>
     <use xlink:href="#DejaVuSans-34" x="395.650391"/>
     <use xlink:href="#DejaVuSans-2d" x="459.273438"/>
     <use xlink:href="#DejaVuSans-72" x="495.357422"/>
     <use xlink:href="#DejaVuSans-65" x="534.220703"/>
     <use xlink:href="#DejaVuSans-63" x="595.744141"/>
     <use xlink:href="#DejaVuSans-65" x="650.724609"/>
     <use xlink:href="#DejaVuSans-69" x="712.248047"/>
     <use xlink:href="#DejaVuSans-76" x="740.03125"/>
     <use xlink:href="#DejaVuSans-65" x="799.210938"/>
     <use xlink:href="#DejaVuSans-72" x="860.734375"/>
     <use xlink:href="#DejaVuSans-31" x="901.847656"/>
     <use xlink:href="#DejaVuSans-34" x="965.470703"/>
    </g>
   </g>
  </g>
 </g>
 <defs>
  <clipPath id="p701ff51eab">
   <rect x="180" y="69.12" width="1116" height="443.52"/>
  </clipPath>
 </defs>
</svg>
