<?xml version="1.0" encoding="utf-8" standalone="no"?>
<!DOCTYPE svg PUBLIC "-//W3C//DTD SVG 1.1//EN"
  "http://www.w3.org/Graphics/SVG/1.1/DTD/svg11.dtd">
<svg xmlns:xlink="http://www.w3.org/1999/xlink" width="1440pt" height="576pt" viewBox="0 0 1440 576" xmlns="http://www.w3.org/2000/svg" version="1.1">
 <metadata>
  <rdf:RDF xmlns:dc="http://purl.org/dc/elements/1.1/" xmlns:cc="http://creativecommons.org/ns#" xmlns:rdf="http://www.w3.org/1999/02/22-rdf-syntax-ns#">
   <cc:Work>
    <dc:type rdf:resource="http://purl.org/dc/dcmitype/StillImage"/>
    <dc:date>2024-05-22T04:50:06.058422</dc:date>
    <dc:format>image/svg+xml</dc:format>
    <dc:creator>
     <cc:Agent>
      <dc:title>Matplotlib v3.8.3, https://matplotlib.org/</dc:title>
     </cc:Agent>
    </dc:creator>
   </cc:Work>
  </rdf:RDF>
 </metadata>
 <defs>
  <style type="text/css">*{stroke-linejoin: round; stroke-linecap: butt}</style>
 </defs>
 <g id="figure_1">
  <g id="patch_1">
   <path d="M 0 576 
L 1440 576 
L 1440 0 
L 0 0 
z
" style="fill: #ffffff"/>
  </g>
  <g id="axes_1">
   <g id="patch_2">
    <path d="M 180 512.64 
L 1296 512.64 
L 1296 69.12 
L 180 69.12 
z
" style="fill: #ffffff"/>
   </g>
   <g id="matplotlib.axis_1">
    <g id="xtick_1">
     <g id="line2d_1">
      <defs>
       <path id="m1ee33f32ea" d="M 0 0 
L 0 3.5 
" style="stroke: #000000; stroke-width: 0.8"/>
      </defs>
      <g>
       <use xlink:href="#m1ee33f32ea" x="229.734567" y="512.64" style="stroke: #000000; stroke-width: 0.8"/>
      </g>
     </g>
     <g id="text_1">
      <!-- 0 -->
      <g transform="translate(226.553317 527.238438) scale(0.1 -0.1)">
       <defs>
        <path id="DejaVuSans-30" d="M 2034 4250 
Q 1547 4250 1301 3770 
Q 1056 3291 1056 2328 
Q 1056 1369 1301 889 
Q 1547 409 2034 409 
Q 2525 409 2770 889 
Q 3016 1369 3016 2328 
Q 3016 3291 2770 3770 
Q 2525 4250 2034 4250 
z
M 2034 4750 
Q 2819 4750 3233 4129 
Q 3647 3509 3647 2328 
Q 3647 1150 3233 529 
Q 2819 -91 2034 -91 
Q 1250 -91 836 529 
Q 422 1150 422 2328 
Q 422 3509 836 4129 
Q 1250 4750 2034 4750 
z
" transform="scale(0.015625)"/>
       </defs>
       <use xlink:href="#DejaVuSans-30"/>
      </g>
     </g>
    </g>
    <g id="xtick_2">
     <g id="line2d_2">
      <g>
       <use xlink:href="#m1ee33f32ea" x="433.04074" y="512.64" style="stroke: #000000; stroke-width: 0.8"/>
      </g>
     </g>
     <g id="text_2">
      <!-- 500 -->
      <g transform="translate(423.49699 527.238438) scale(0.1 -0.1)">
       <defs>
        <path id="DejaVuSans-35" d="M 691 4666 
L 3169 4666 
L 3169 4134 
L 1269 4134 
L 1269 2991 
Q 1406 3038 1543 3061 
Q 1681 3084 1819 3084 
Q 2600 3084 3056 2656 
Q 3513 2228 3513 1497 
Q 3513 744 3044 326 
Q 2575 -91 1722 -91 
Q 1428 -91 1123 -41 
Q 819 9 494 109 
L 494 744 
Q 775 591 1075 516 
Q 1375 441 1709 441 
Q 2250 441 2565 725 
Q 2881 1009 2881 1497 
Q 2881 1984 2565 2268 
Q 2250 2553 1709 2553 
Q 1456 2553 1204 2497 
Q 953 2441 691 2322 
L 691 4666 
z
" transform="scale(0.015625)"/>
       </defs>
       <use xlink:href="#DejaVuSans-35"/>
       <use xlink:href="#DejaVuSans-30" x="63.623047"/>
       <use xlink:href="#DejaVuSans-30" x="127.246094"/>
      </g>
     </g>
    </g>
    <g id="xtick_3">
     <g id="line2d_3">
      <g>
       <use xlink:href="#m1ee33f32ea" x="636.346913" y="512.64" style="stroke: #000000; stroke-width: 0.8"/>
      </g>
     </g>
     <g id="text_3">
      <!-- 1000 -->
      <g transform="translate(623.621913 527.238438) scale(0.1 -0.1)">
       <defs>
        <path id="DejaVuSans-31" d="M 794 531 
L 1825 531 
L 1825 4091 
L 703 3866 
L 703 4441 
L 1819 4666 
L 2450 4666 
L 2450 531 
L 3481 531 
L 3481 0 
L 794 0 
L 794 531 
z
" transform="scale(0.015625)"/>
       </defs>
       <use xlink:href="#DejaVuSans-31"/>
       <use xlink:href="#DejaVuSans-30" x="63.623047"/>
       <use xlink:href="#DejaVuSans-30" x="127.246094"/>
       <use xlink:href="#DejaVuSans-30" x="190.869141"/>
      </g>
     </g>
    </g>
    <g id="xtick_4">
     <g id="line2d_4">
      <g>
       <use xlink:href="#m1ee33f32ea" x="839.653087" y="512.64" style="stroke: #000000; stroke-width: 0.8"/>
      </g>
     </g>
     <g id="text_4">
      <!-- 1500 -->
      <g transform="translate(826.928087 527.238438) scale(0.1 -0.1)">
       <use xlink:href="#DejaVuSans-31"/>
       <use xlink:href="#DejaVuSans-35" x="63.623047"/>
       <use xlink:href="#DejaVuSans-30" x="127.246094"/>
       <use xlink:href="#DejaVuSans-30" x="190.869141"/>
      </g>
     </g>
    </g>
    <g id="xtick_5">
     <g id="line2d_5">
      <g>
       <use xlink:href="#m1ee33f32ea" x="1042.95926" y="512.64" style="stroke: #000000; stroke-width: 0.8"/>
      </g>
     </g>
     <g id="text_5">
      <!-- 2000 -->
      <g transform="translate(1030.23426 527.238438) scale(0.1 -0.1)">
       <defs>
        <path id="DejaVuSans-32" d="M 1228 531 
L 3431 531 
L 3431 0 
L 469 0 
L 469 531 
Q 828 903 1448 1529 
Q 2069 2156 2228 2338 
Q 2531 2678 2651 2914 
Q 2772 3150 2772 3378 
Q 2772 3750 2511 3984 
Q 2250 4219 1831 4219 
Q 1534 4219 1204 4116 
Q 875 4013 500 3803 
L 500 4441 
Q 881 4594 1212 4672 
Q 1544 4750 1819 4750 
Q 2544 4750 2975 4387 
Q 3406 4025 3406 3419 
Q 3406 3131 3298 2873 
Q 3191 2616 2906 2266 
Q 2828 2175 2409 1742 
Q 1991 1309 1228 531 
z
" transform="scale(0.015625)"/>
       </defs>
       <use xlink:href="#DejaVuSans-32"/>
       <use xlink:href="#DejaVuSans-30" x="63.623047"/>
       <use xlink:href="#DejaVuSans-30" x="127.246094"/>
       <use xlink:href="#DejaVuSans-30" x="190.869141"/>
      </g>
     </g>
    </g>
    <g id="xtick_6">
     <g id="line2d_6">
      <g>
       <use xlink:href="#m1ee33f32ea" x="1246.265433" y="512.64" style="stroke: #000000; stroke-width: 0.8"/>
      </g>
     </g>
     <g id="text_6">
      <!-- 2500 -->
      <g transform="translate(1233.540433 527.238438) scale(0.1 -0.1)">
       <use xlink:href="#DejaVuSans-32"/>
       <use xlink:href="#DejaVuSans-35" x="63.623047"/>
       <use xlink:href="#DejaVuSans-30" x="127.246094"/>
       <use xlink:href="#DejaVuSans-30" x="190.869141"/>
      </g>
     </g>
    </g>
   </g>
   <g id="matplotlib.axis_2">
    <g id="ytick_1">
     <g id="line2d_7">
      <defs>
       <path id="me938275c65" d="M 0 0 
L -3.5 0 
" style="stroke: #000000; stroke-width: 0.8"/>
      </defs>
      <g>
       <use xlink:href="#me938275c65" x="180" y="498.15819" style="stroke: #000000; stroke-width: 0.8"/>
      </g>
     </g>
     <g id="text_7">
      <!-- −4 -->
      <g transform="translate(158.257812 501.957409) scale(0.1 -0.1)">
       <defs>
        <path id="DejaVuSans-2212" d="M 678 2272 
L 4684 2272 
L 4684 1741 
L 678 1741 
L 678 2272 
z
" transform="scale(0.015625)"/>
        <path id="DejaVuSans-34" d="M 2419 4116 
L 825 1625 
L 2419 1625 
L 2419 4116 
z
M 2253 4666 
L 3047 4666 
L 3047 1625 
L 3713 1625 
L 3713 1100 
L 3047 1100 
L 3047 0 
L 2419 0 
L 2419 1100 
L 313 1100 
L 313 1709 
L 2253 4666 
z
" transform="scale(0.015625)"/>
       </defs>
       <use xlink:href="#DejaVuSans-2212"/>
       <use xlink:href="#DejaVuSans-34" x="83.789062"/>
      </g>
     </g>
    </g>
    <g id="ytick_2">
     <g id="line2d_8">
      <g>
       <use xlink:href="#me938275c65" x="180" y="418.15058" style="stroke: #000000; stroke-width: 0.8"/>
      </g>
     </g>
     <g id="text_8">
      <!-- −2 -->
      <g transform="translate(158.257812 421.949798) scale(0.1 -0.1)">
       <use xlink:href="#DejaVuSans-2212"/>
       <use xlink:href="#DejaVuSans-32" x="83.789062"/>
      </g>
     </g>
    </g>
    <g id="ytick_3">
     <g id="line2d_9">
      <g>
       <use xlink:href="#me938275c65" x="180" y="338.142969" style="stroke: #000000; stroke-width: 0.8"/>
      </g>
     </g>
     <g id="text_9">
      <!-- 0 -->
      <g transform="translate(166.6375 341.942188) scale(0.1 -0.1)">
       <use xlink:href="#DejaVuSans-30"/>
      </g>
     </g>
    </g>
    <g id="ytick_4">
     <g id="line2d_10">
      <g>
       <use xlink:href="#me938275c65" x="180" y="258.135359" style="stroke: #000000; stroke-width: 0.8"/>
      </g>
     </g>
     <g id="text_10">
      <!-- 2 -->
      <g transform="translate(166.6375 261.934577) scale(0.1 -0.1)">
       <use xlink:href="#DejaVuSans-32"/>
      </g>
     </g>
    </g>
    <g id="ytick_5">
     <g id="line2d_11">
      <g>
       <use xlink:href="#me938275c65" x="180" y="178.127748" style="stroke: #000000; stroke-width: 0.8"/>
      </g>
     </g>
     <g id="text_11">
      <!-- 4 -->
      <g transform="translate(166.6375 181.926967) scale(0.1 -0.1)">
       <use xlink:href="#DejaVuSans-34"/>
      </g>
     </g>
    </g>
    <g id="ytick_6">
     <g id="line2d_12">
      <g>
       <use xlink:href="#me938275c65" x="180" y="98.120138" style="stroke: #000000; stroke-width: 0.8"/>
      </g>
     </g>
     <g id="text_12">
      <!-- 6 -->
      <g transform="translate(166.6375 101.919357) scale(0.1 -0.1)">
       <defs>
        <path id="DejaVuSans-36" d="M 2113 2584 
Q 1688 2584 1439 2293 
Q 1191 2003 1191 1497 
Q 1191 994 1439 701 
Q 1688 409 2113 409 
Q 2538 409 2786 701 
Q 3034 994 3034 1497 
Q 3034 2003 2786 2293 
Q 2538 2584 2113 2584 
z
M 3366 4563 
L 3366 3988 
Q 3128 4100 2886 4159 
Q 2644 4219 2406 4219 
Q 1781 4219 1451 3797 
Q 1122 3375 1075 2522 
Q 1259 2794 1537 2939 
Q 1816 3084 2150 3084 
Q 2853 3084 3261 2657 
Q 3669 2231 3669 1497 
Q 3669 778 3244 343 
Q 2819 -91 2113 -91 
Q 1303 -91 875 529 
Q 447 1150 447 2328 
Q 447 3434 972 4092 
Q 1497 4750 2381 4750 
Q 2619 4750 2861 4703 
Q 3103 4656 3366 4563 
z
" transform="scale(0.015625)"/>
       </defs>
       <use xlink:href="#DejaVuSans-36"/>
      </g>
     </g>
    </g>
   </g>
   <g id="line2d_13">
    <path d="M 230.727273 305.761935 
L 231.719979 298.857551 
L 232.712685 307.292589 
L 233.70539 367.393914 
L 234.698096 363.17465 
L 235.690802 317.749223 
L 236.683508 304.199619 
L 237.676214 340.36596 
L 238.66892 340.772733 
L 239.661626 353.232713 
L 240.654332 324.250271 
L 241.647038 365.64618 
L 242.639744 330.003333 
L 244.625156 301.526866 
L 245.617862 306.474974 
L 246.610568 294.493626 
L 247.603273 306.560909 
L 248.595979 331.710251 
L 249.588685 282.462196 
L 250.581391 285.571852 
L 251.574097 295.827188 
L 252.566803 241.500726 
L 253.559509 226.784453 
L 254.552215 239.436118 
L 255.544921 238.133405 
L 256.537627 220.678079 
L 257.530333 271.575709 
L 258.523039 217.523364 
L 259.515745 201.680238 
L 260.50845 236.891134 
L 261.501156 219.193194 
L 262.493862 210.766458 
L 263.486568 241.428443 
L 264.479274 186.081175 
L 265.47198 196.776945 
L 266.464686 222.242607 
L 267.457392 203.520889 
L 268.450098 262.363554 
L 269.442804 211.674399 
L 270.43551 197.251518 
L 271.428216 177.923198 
L 272.420922 186.541175 
L 273.413627 213.322559 
L 274.406333 198.751899 
L 275.399039 190.627229 
L 276.391745 184.582092 
L 277.384451 176.38397 
L 278.377157 170.193416 
L 279.369863 173.817411 
L 280.362569 203.443117 
L 282.347981 142.10724 
L 283.340687 121.447931 
L 284.333393 98.242967 
L 285.326099 89.28 
L 286.318804 103.823812 
L 287.31151 181.822839 
L 288.304216 143.801382 
L 289.296922 145.666731 
L 290.289628 172.210557 
L 291.282334 173.237333 
L 292.27504 149.602655 
L 293.267746 164.876522 
L 294.260452 171.96199 
L 295.253158 168.796587 
L 296.245864 178.955479 
L 297.23857 183.776178 
L 298.231276 172.886806 
L 299.223981 173.167484 
L 301.209393 198.293137 
L 302.202099 200.935182 
L 303.194805 203.172698 
L 304.187511 204.603509 
L 305.180217 200.107453 
L 306.172923 204.965188 
L 307.165629 220.955448 
L 308.158335 241.162931 
L 309.151041 243.926577 
L 310.143747 257.648291 
L 311.136453 256.050369 
L 312.129159 245.343174 
L 313.121864 239.410476 
L 314.11457 247.423033 
L 315.107276 272.515797 
L 316.099982 315.452116 
L 317.092688 262.25429 
L 318.085394 250.893683 
L 319.0781 248.041504 
L 320.070806 249.330709 
L 321.063512 245.265802 
L 322.056218 244.861304 
L 323.048924 248.93431 
L 324.04163 255.020289 
L 325.034336 244.875175 
L 326.027041 239.103061 
L 327.019747 241.139992 
L 328.012453 253.545594 
L 329.005159 254.403983 
L 329.997865 249.921848 
L 330.990571 247.039056 
L 332.975983 251.19924 
L 334.961395 266.346135 
L 335.954101 272.467041 
L 336.946807 275.951596 
L 337.939513 296.443992 
L 338.932218 308.894695 
L 339.924924 282.769395 
L 340.91763 274.061119 
L 341.910336 275.323796 
L 342.903042 289.259565 
L 343.895748 300.986956 
L 344.888454 295.467287 
L 345.88116 290.609508 
L 346.873866 294.283059 
L 347.866572 303.082954 
L 349.851984 314.330338 
L 350.84469 324.520465 
L 351.837395 326.370375 
L 352.830101 306.452935 
L 353.822807 296.050428 
L 354.815513 297.502909 
L 355.808219 297.435938 
L 356.800925 281.202747 
L 357.793631 275.477263 
L 358.786337 289.321035 
L 359.779043 284.333331 
L 360.771749 252.924239 
L 361.764455 240.677121 
L 362.757161 245.72506 
L 363.749867 282.740386 
L 364.742572 282.51436 
L 365.735278 245.97309 
L 366.727984 242.395286 
L 367.72069 261.216169 
L 368.713396 332.494675 
L 369.706102 293.615738 
L 370.698808 288.878075 
L 371.691514 273.360352 
L 372.68422 254.462593 
L 373.676926 252.457185 
L 374.669632 265.864957 
L 375.662338 265.073531 
L 376.655044 250.081515 
L 377.64775 241.808373 
L 378.640455 236.578151 
L 379.633161 236.214599 
L 380.625867 243.824722 
L 381.618573 244.135259 
L 382.611279 236.678241 
L 383.603985 241.018883 
L 384.596691 263.043906 
L 385.589397 282.590156 
L 386.582103 262.637038 
L 387.574809 229.546223 
L 388.567515 209.742923 
L 389.560221 208.686522 
L 390.552927 235.338454 
L 391.545632 206.966779 
L 392.538338 175.164982 
L 393.531044 163.124006 
L 394.52375 164.052569 
L 395.516456 178.350245 
L 396.509162 212.991755 
L 397.501868 241.021772 
L 398.494574 223.916338 
L 399.48728 248.675668 
L 400.479986 268.091539 
L 401.472692 224.732858 
L 402.465398 222.257921 
L 403.458104 244.402571 
L 404.450809 291.584202 
L 405.443515 260.929991 
L 406.436221 260.931193 
L 407.428927 275.699776 
L 408.421633 275.035743 
L 409.414339 275.114125 
L 410.407045 271.811325 
L 411.399751 264.0674 
L 412.392457 268.281526 
L 413.385163 287.251536 
L 414.377869 322.563414 
L 415.370575 326.574355 
L 416.363281 292.46372 
L 417.355986 273.99628 
L 418.348692 271.762689 
L 419.341398 287.332562 
L 420.334104 338.525363 
L 421.32681 324.477737 
L 422.319516 285.372075 
L 423.312222 268.863925 
L 424.304928 266.179849 
L 425.297634 280.999353 
L 426.29034 318.47986 
L 427.283046 298.897446 
L 428.275752 290.502463 
L 429.268458 295.650868 
L 430.261163 279.880404 
L 431.253869 270.863463 
L 432.246575 279.083338 
L 433.239281 317.697595 
L 434.231987 326.3546 
L 435.224693 295.617326 
L 436.217399 289.371527 
L 437.210105 289.08014 
L 438.202811 294.669057 
L 439.195517 327.27302 
L 440.188223 337.544915 
L 441.180929 293.314329 
L 442.173635 284.462301 
L 443.166341 290.527165 
L 444.159046 301.837434 
L 445.151752 304.31175 
L 448.12987 287.220242 
L 449.122576 287.461297 
L 450.115282 296.248081 
L 451.107988 322.132885 
L 452.100694 384.446047 
L 453.0934 347.6293 
L 454.086106 338.621707 
L 455.078812 335.979291 
L 456.071518 323.532155 
L 457.064223 326.212836 
L 458.056929 353.411785 
L 459.049635 338.63474 
L 460.042341 311.904783 
L 461.035047 307.242781 
L 462.027753 316.78718 
L 464.013165 369.481005 
L 465.005871 418.007916 
L 465.998577 336.704668 
L 466.991283 312.14607 
L 467.983989 311.051453 
L 468.976695 324.647458 
L 470.962106 276.951449 
L 471.954812 270.093936 
L 472.947518 275.884644 
L 473.940224 301.674551 
L 474.93293 353.866946 
L 475.925636 301.478436 
L 476.918342 288.316935 
L 477.911048 289.875978 
L 478.903754 295.881344 
L 479.89646 307.629474 
L 480.889166 330.099196 
L 481.881872 325.682605 
L 482.874577 296.31922 
L 483.867283 281.038558 
L 484.859989 271.420361 
L 485.852695 267.871152 
L 486.845401 270.574633 
L 487.838107 277.94593 
L 488.830813 270.984473 
L 489.823519 257.409034 
L 490.816225 253.444142 
L 491.808931 262.523669 
L 492.801637 291.253728 
L 493.794343 342.409787 
L 494.787049 280.258677 
L 495.779754 252.641648 
L 496.77246 235.357307 
L 497.765166 228.188302 
L 498.757872 233.055853 
L 499.750578 251.587571 
L 500.743284 241.43721 
L 501.73599 219.07108 
L 502.728696 210.467827 
L 503.721402 213.391724 
L 504.714108 227.386767 
L 505.706814 250.899733 
L 506.69952 265.931042 
L 507.692226 272.410931 
L 508.684932 305.350227 
L 509.677637 312.187459 
L 510.670343 279.142328 
L 511.663049 276.705519 
L 512.655755 287.560892 
L 514.641167 314.523011 
L 515.633873 331.3537 
L 516.626579 334.968773 
L 517.619285 325.316081 
L 518.611991 299.743598 
L 519.604697 284.473096 
L 520.597403 282.869259 
L 521.590109 296.42166 
L 522.582814 323.225003 
L 523.57552 330.396687 
L 524.568226 321.532901 
L 525.560932 304.93874 
L 526.553638 291.791819 
L 527.546344 291.76581 
L 528.53905 307.090712 
L 529.531756 325.959112 
L 531.517168 300.994211 
L 532.509874 297.254778 
L 533.50258 301.952598 
L 534.495286 318.298144 
L 535.487991 321.286128 
L 536.480697 306.807472 
L 537.473403 311.231938 
L 538.466109 339.853723 
L 539.458815 325.96131 
L 540.451521 308.692296 
L 541.444227 310.752523 
L 542.436933 310.141136 
L 543.429639 301.041532 
L 544.422345 300.383858 
L 545.415051 315.224897 
L 547.400463 373.531871 
L 548.393168 344.060156 
L 549.385874 318.191247 
L 550.37858 303.766606 
L 551.371286 299.208756 
L 552.363992 302.875117 
L 553.356698 311.088525 
L 554.349404 320.768767 
L 555.34211 320.930399 
L 556.334816 314.833774 
L 557.327522 310.011986 
L 558.320228 309.315707 
L 559.312934 311.900858 
L 560.30564 322.020761 
L 561.298345 327.663913 
L 562.291051 318.990159 
L 563.283757 317.903759 
L 564.276463 343.35173 
L 565.269169 363.588838 
L 566.261875 317.254989 
L 567.254581 308.36804 
L 568.247287 320.150459 
L 569.239993 333.506543 
L 570.232699 316.571078 
L 571.225405 312.970985 
L 572.218111 320.303841 
L 573.210817 318.938161 
L 574.203523 310.088303 
L 575.196228 316.848401 
L 576.188934 376.010404 
L 577.18164 325.999391 
L 578.174346 298.989438 
L 579.167052 293.988473 
L 580.159758 302.321965 
L 581.152464 321.854497 
L 582.14517 338.184022 
L 583.137876 346.615984 
L 584.130582 365.242884 
L 585.123288 343.05562 
L 586.115994 327.68145 
L 587.1087 340.151336 
L 588.101405 362.093286 
L 589.094111 321.889111 
L 590.086817 310.029427 
L 591.079523 320.156953 
L 592.072229 376.568568 
L 593.064935 334.956981 
L 594.057641 303.762572 
L 595.050347 290.917894 
L 596.043053 283.065469 
L 598.028465 272.828157 
L 599.021171 269.233993 
L 600.013877 270.855248 
L 601.006582 280.31088 
L 601.999288 292.57205 
L 602.991994 281.699528 
L 603.9847 266.106299 
L 604.977406 253.573819 
L 605.970112 243.638636 
L 606.962818 238.867285 
L 607.955524 242.496085 
L 608.94823 259.052806 
L 609.940936 271.833607 
L 610.933642 245.278088 
L 611.926348 230.413612 
L 612.919054 227.306044 
L 613.911759 234.169997 
L 614.904465 252.151509 
L 615.897171 279.004091 
L 616.889877 282.460324 
L 617.882583 283.503542 
L 618.875289 320.808316 
L 619.867995 308.28759 
L 620.860701 271.886911 
L 621.853407 264.18695 
L 622.846113 274.701291 
L 623.838819 315.556483 
L 624.831525 320.037753 
L 625.824231 286.922449 
L 626.816936 286.348644 
L 627.809642 300.901656 
L 628.802348 312.079532 
L 629.795054 311.439847 
L 630.78776 332.773037 
L 631.780466 332.689641 
L 632.773172 300.621487 
L 633.765878 292.071936 
L 634.758584 297.62417 
L 635.75129 306.3929 
L 636.743996 306.05531 
L 638.729408 290.980135 
L 639.722114 289.126068 
L 640.714819 295.829442 
L 641.707525 308.689801 
L 642.700231 307.655366 
L 643.692937 302.035243 
L 644.685643 307.823366 
L 645.678349 322.150497 
L 646.671055 328.494556 
L 647.663761 336.532313 
L 648.656467 380.935633 
L 649.649173 354.308815 
L 650.641879 317.30849 
L 651.634585 299.627715 
L 652.627291 291.157709 
L 653.619996 292.306099 
L 654.612702 303.086367 
L 655.605408 316.392496 
L 656.598114 313.869969 
L 657.59082 311.905482 
L 658.583526 314.273482 
L 659.576232 311.498134 
L 660.568938 306.475321 
L 661.561644 302.169029 
L 662.55435 294.836228 
L 663.547056 288.445616 
L 664.539762 287.845059 
L 665.532468 290.831788 
L 666.525173 293.127838 
L 667.517879 295.961995 
L 668.510585 306.609521 
L 669.503291 334.183989 
L 670.495997 422.678613 
L 671.488703 357.857175 
L 672.481409 354.137102 
L 673.474115 358.265937 
L 674.466821 341.709625 
L 675.459527 329.727902 
L 676.452233 329.777435 
L 677.444939 340.412419 
L 678.437645 362.892871 
L 679.43035 349.491131 
L 680.423056 328.549113 
L 681.415762 319.657378 
L 682.408468 320.268349 
L 683.401174 328.419305 
L 685.386586 355.444869 
L 686.379292 344.4175 
L 687.371998 320.520826 
L 688.364704 305.166266 
L 689.35741 299.013066 
L 690.350116 301.082366 
L 691.342822 310.890944 
L 692.335527 326.952648 
L 693.328233 349.069225 
L 694.320939 390.318246 
L 695.313645 416.743345 
L 696.306351 369.521686 
L 697.299057 343.211899 
L 698.291763 321.414009 
L 699.284469 308.072159 
L 700.277175 303.618232 
L 701.269881 309.882329 
L 702.262587 336.163521 
L 703.255293 348.499414 
L 704.247999 302.83417 
L 705.240705 283.087102 
L 706.23341 273.895298 
L 707.226116 270.9167 
L 708.218822 272.780226 
L 709.211528 279.401912 
L 710.204234 291.808677 
L 711.19694 307.37356 
L 712.189646 300.362525 
L 713.182352 279.205728 
L 714.175058 263.077638 
L 715.167764 253.061432 
L 716.16047 249.085295 
L 717.153176 251.727279 
L 718.145882 261.251298 
L 719.138587 273.163194 
L 720.131293 269.326255 
L 721.123999 258.182893 
L 722.116705 253.507887 
L 723.109411 257.180665 
L 724.102117 269.375233 
L 725.094823 284.200152 
L 726.087529 284.486444 
L 727.080235 284.159933 
L 728.072941 302.300157 
L 729.065647 393.153684 
L 730.058353 293.158161 
L 731.051059 274.569424 
L 732.043764 274.008826 
L 733.03647 289.757461 
L 734.029176 342.935806 
L 735.021882 326.946163 
L 736.014588 305.245377 
L 737.007294 315.395827 
L 738 379.194164 
L 738.992706 328.423983 
L 739.985412 312.322235 
L 740.978118 326.358002 
L 741.970824 398.119106 
L 742.96353 318.881215 
L 743.956236 301.1801 
L 744.948941 298.568455 
L 745.941647 299.880614 
L 746.934353 300.956448 
L 747.927059 309.02877 
L 748.919765 337.098102 
L 749.912471 344.322099 
L 750.905177 313.199691 
L 751.897883 307.302627 
L 752.890589 319.163256 
L 753.883295 351.855434 
L 754.876001 363.23853 
L 755.868707 360.587494 
L 756.861413 422.086556 
L 757.854118 344.493813 
L 758.846824 321.185505 
L 759.83953 316.083657 
L 760.832236 320.673486 
L 761.824942 321.925504 
L 762.817648 312.125449 
L 763.810354 305.075723 
L 764.80306 307.151258 
L 765.795766 322.577593 
L 766.788472 383.688724 
L 767.781178 339.527739 
L 768.773884 309.383961 
L 769.76659 298.258472 
L 770.759295 295.738103 
L 771.752001 298.342983 
L 772.744707 304.631022 
L 774.730119 321.000421 
L 776.715531 334.528738 
L 777.708237 346.530679 
L 778.700943 367.285781 
L 779.693649 403.383064 
L 780.686355 460.140527 
L 781.679061 396.322934 
L 782.671767 358.087422 
L 783.664473 336.782257 
L 784.657178 326.985988 
L 785.649884 325.886397 
L 786.64259 333.56835 
L 787.635296 351.789319 
L 788.628002 380.231228 
L 789.620708 376.590809 
L 790.613414 356.261078 
L 791.60612 345.334507 
L 792.598826 341.495675 
L 793.591532 345.651487 
L 794.584238 359.937611 
L 795.576944 387.10314 
L 797.562355 332.51128 
L 798.555061 317.239998 
L 799.547767 310.181888 
L 800.540473 310.065151 
L 801.533179 317.908874 
L 802.525885 335.832852 
L 803.518591 362.583665 
L 804.511297 359.824799 
L 805.504003 342.569209 
L 806.496709 327.495911 
L 807.489415 315.736084 
L 808.482121 309.771982 
L 809.474827 310.933571 
L 810.467532 319.532471 
L 812.452944 349.825128 
L 813.44565 352.307877 
L 815.431062 310.993159 
L 816.423768 297.034515 
L 817.416474 291.269582 
L 818.40918 294.374865 
L 819.401886 310.559848 
L 820.394592 364.427988 
L 821.387298 327.125617 
L 822.380004 296.973424 
L 823.372709 283.775386 
L 824.365415 276.868717 
L 825.358121 273.613255 
L 826.350827 274.107028 
L 827.343533 279.93835 
L 828.336239 291.457862 
L 829.328945 300.153632 
L 831.314357 288.399507 
L 832.307063 291.334555 
L 833.299769 302.417981 
L 834.292475 309.461098 
L 835.285181 302.791536 
L 836.277886 301.188984 
L 837.270592 314.591241 
L 838.263298 358.968413 
L 839.256004 326.828418 
L 840.24871 303.921042 
L 841.241416 300.594772 
L 842.234122 312.082066 
L 844.219534 378.823692 
L 845.21224 346.368229 
L 846.204946 356.189684 
L 847.197652 411.652093 
L 848.190358 347.701922 
L 849.183064 333.001618 
L 850.175769 340.732609 
L 851.168475 371.696434 
L 853.153887 330.778486 
L 854.146593 328.578539 
L 855.139299 337.204282 
L 857.124711 361.941975 
L 858.117417 390.532288 
L 859.110123 389.112227 
L 860.102829 357.626997 
L 861.095535 353.893386 
L 862.088241 376.201706 
L 863.080946 441.238525 
L 864.073652 372.318324 
L 865.066358 370.072737 
L 866.059064 383.550415 
L 867.05177 350.673766 
L 868.044476 330.71974 
L 869.037182 325.113369 
L 870.029888 328.868918 
L 871.022594 333.984954 
L 872.0153 331.085749 
L 873.008006 325.848898 
L 874.000712 325.11375 
L 874.993418 331.442313 
L 875.986123 348.120649 
L 876.978829 382.836793 
L 877.971535 363.430236 
L 878.964241 338.346037 
L 879.956947 324.362078 
L 880.949653 314.610012 
L 881.942359 308.83964 
L 882.935065 309.457855 
L 883.927771 319.081664 
L 884.920477 341.613867 
L 885.913183 392.816135 
L 886.905889 414.342881 
L 887.898595 369.976321 
L 888.8913 343.932061 
L 889.884006 332.300333 
L 890.876712 337.361143 
L 891.869418 375.167761 
L 892.862124 367.13919 
L 893.85483 330.740155 
L 894.847536 322.850576 
L 895.840242 330.010348 
L 896.832948 350.757977 
L 897.825654 379.910508 
L 898.81836 397.358025 
L 899.811066 450.742222 
L 900.803772 371.670328 
L 901.796477 349.183769 
L 902.789183 343.939043 
L 903.781889 350.370187 
L 904.774595 367.55479 
L 905.767301 396.036537 
L 906.760007 379.240002 
L 907.752713 352.681619 
L 908.745419 336.860605 
L 909.738125 329.502655 
L 910.730831 329.761685 
L 911.723537 338.115735 
L 912.716243 355.913216 
L 913.708949 362.184989 
L 914.701655 341.597295 
L 915.69436 326.63061 
L 916.687066 318.865819 
L 917.679772 317.540521 
L 918.672478 323.234505 
L 919.665184 335.998305 
L 920.65789 351.939894 
L 922.643302 367.89066 
L 923.636008 382.186783 
L 924.628714 355.430611 
L 925.62142 332.581129 
L 926.614126 322.490197 
L 927.606832 323.669165 
L 928.599537 339.979525 
L 929.592243 392.798164 
L 930.584949 336.396017 
L 931.577655 310.38094 
L 932.570361 298.5704 
L 933.563067 294.062088 
L 934.555773 294.318158 
L 935.548479 298.521417 
L 936.541185 307.133854 
L 938.526597 335.15854 
L 939.519303 340.308967 
L 940.512009 343.23778 
L 941.504714 354.620319 
L 942.49742 348.827038 
L 943.490126 325.343765 
L 944.482832 312.820516 
L 945.475538 311.897875 
L 946.468244 324.65057 
L 947.46095 363.258421 
L 948.453656 350.366872 
L 949.446362 323.964802 
L 950.439068 319.585141 
L 951.431774 329.949925 
L 952.42448 358.681019 
L 953.417186 393.134518 
L 954.409891 371.18293 
L 955.402597 364.337077 
L 957.388009 342.276636 
L 958.380715 341.898966 
L 959.373421 354.619557 
L 960.366127 389.731297 
L 961.358833 385.121561 
L 962.351539 357.880977 
L 963.344245 351.170704 
L 964.336951 361.00089 
L 965.329657 393.473272 
L 966.322363 377.410014 
L 967.315068 358.669324 
L 968.307774 364.841799 
L 969.30048 417.763957 
L 970.293186 378.541843 
L 971.285892 355.020589 
L 972.278598 358.865218 
L 973.271304 402.281979 
L 974.26401 381.919254 
L 975.256716 348.457562 
L 976.249422 338.795758 
L 977.242128 338.782321 
L 978.234834 342.88967 
L 979.22754 348.042702 
L 980.220246 349.938534 
L 981.212951 344.9276 
L 982.205657 338.779748 
L 983.198363 338.4928 
L 984.191069 345.03914 
L 985.183775 353.476315 
L 986.176481 351.624125 
L 987.169187 344.054687 
L 988.161893 341.427226 
L 989.154599 344.279004 
L 990.147305 345.534091 
L 991.140011 337.868159 
L 992.132717 331.371712 
L 993.125423 333.103552 
L 994.118128 346.221264 
L 995.110834 366.493463 
L 996.10354 360.527752 
L 997.096246 349.085348 
L 999.081658 335.205402 
L 1000.074364 331.774436 
L 1001.06707 337.177434 
L 1002.059776 357.504422 
L 1003.052482 410.201483 
L 1004.045188 382.906664 
L 1005.037894 368.693565 
L 1006.0306 377.43166 
L 1007.023305 407.825103 
L 1008.016011 492.48 
L 1009.008717 435.140364 
L 1010.001423 413.163127 
L 1010.994129 380.094365 
L 1011.986835 356.642908 
L 1012.979541 343.764622 
L 1013.972247 340.038171 
L 1014.964953 343.203608 
L 1015.957659 348.313144 
L 1016.950365 346.806265 
L 1017.943071 341.829765 
L 1018.935777 340.750194 
L 1019.928482 345.062108 
L 1020.921188 353.581077 
L 1021.913894 357.421026 
L 1022.9066 349.302034 
L 1023.899306 339.457046 
L 1024.892012 332.350632 
L 1025.884718 326.944341 
L 1026.877424 322.351825 
L 1027.87013 318.606929 
L 1028.862836 317.347123 
L 1029.855542 320.674801 
L 1030.848248 330.921654 
L 1031.840954 351.168127 
L 1032.833659 363.986336 
L 1033.826365 345.642684 
L 1034.819071 334.606995 
L 1035.811777 333.739837 
L 1036.804483 343.412012 
L 1037.797189 370.942515 
L 1038.789895 391.779228 
L 1039.782601 345.996255 
L 1040.775307 325.240381 
L 1041.768013 313.483827 
L 1042.760719 307.126615 
L 1043.753425 305.379082 
L 1044.746131 308.341303 
L 1045.738837 315.837568 
L 1046.731542 327.741666 
L 1048.716954 354.897008 
L 1049.70966 365.935939 
L 1050.702366 372.86412 
L 1052.687778 325.052951 
L 1053.680484 313.103928 
L 1054.67319 311.138412 
L 1055.665896 319.693156 
L 1056.658602 345.023445 
L 1057.651308 398.664094 
L 1058.644014 347.83217 
L 1059.636719 334.68132 
L 1060.629425 339.07823 
L 1061.622131 361.43706 
L 1062.614837 442.889193 
L 1063.607543 390.936497 
L 1064.600249 384.867002 
L 1065.592955 377.534692 
L 1066.585661 344.595238 
L 1067.578367 327.09748 
L 1068.571073 323.482966 
L 1069.563779 334.419642 
L 1070.556485 374.279806 
L 1071.549191 371.531262 
L 1072.541896 341.519932 
L 1073.534602 341.0602 
L 1074.527308 365.765016 
L 1075.520014 411.972195 
L 1076.51272 358.65285 
L 1077.505426 352.372219 
L 1078.498132 368.464829 
L 1079.490838 395.94474 
L 1080.483544 372.010317 
L 1081.47625 364.518086 
L 1082.468956 376.613039 
L 1083.461662 399.795379 
L 1084.454368 362.326008 
L 1085.447073 340.599366 
L 1086.439779 334.161576 
L 1087.432485 343.018143 
L 1088.425191 374.795342 
L 1089.417897 354.344954 
L 1090.410603 330.11272 
L 1091.403309 324.870304 
L 1092.396015 333.747539 
L 1093.388721 355.91028 
L 1094.381427 363.178477 
L 1095.374133 349.711767 
L 1096.366839 347.897227 
L 1097.359545 353.126064 
L 1098.35225 355.559578 
L 1099.344956 352.590225 
L 1100.337662 351.24404 
L 1101.330368 353.141981 
L 1102.323074 355.916508 
L 1103.31578 356.345563 
L 1104.308486 354.838752 
L 1105.301192 353.824774 
L 1106.293898 352.042353 
L 1107.286604 349.017493 
L 1108.27931 346.673434 
L 1109.272016 344.917612 
L 1110.264722 343.72195 
L 1111.257428 343.823194 
L 1112.250133 346.075684 
L 1113.242839 347.280744 
L 1114.235545 346.963953 
L 1115.228251 351.525538 
L 1116.220957 368.994423 
L 1117.213663 420.263638 
L 1119.199075 376.041431 
L 1120.191781 362.634421 
L 1121.184487 346.9006 
L 1122.177193 337.025825 
L 1123.169899 336.307091 
L 1124.162605 344.571107 
L 1125.15531 357.100469 
L 1126.148016 357.522317 
L 1127.140722 350.411281 
L 1128.133428 348.329087 
L 1129.126134 352.771279 
L 1130.11884 362.937274 
L 1131.111546 376.86631 
L 1132.104252 377.807831 
L 1134.089664 340.750879 
L 1135.08237 328.930604 
L 1136.075076 321.947547 
L 1137.067782 318.672682 
L 1138.060487 318.140652 
L 1139.053193 319.650382 
L 1140.045899 323.755327 
L 1141.038605 332.635498 
L 1142.031311 351.548302 
L 1143.024017 379.53471 
L 1144.016723 352.060121 
L 1145.009429 335.249232 
L 1146.002135 335.013579 
L 1146.994841 355.095911 
L 1147.987547 431.902633 
L 1148.980253 344.50181 
L 1149.972959 324.218099 
L 1150.965664 318.34819 
L 1151.95837 319.257514 
L 1153.943782 325.271972 
L 1154.936488 330.491677 
L 1155.929194 342.473109 
L 1157.914606 386.475971 
L 1158.907312 375.757889 
L 1159.900018 374.625817 
L 1160.892724 367.449471 
L 1161.88543 343.934318 
L 1162.878136 326.787922 
L 1163.870841 318.38905 
L 1164.863547 317.958298 
L 1165.856253 326.022048 
L 1166.848959 345.205804 
L 1167.841665 376.081843 
L 1168.834371 374.002539 
L 1169.827077 373.313241 
L 1170.819783 400.950352 
L 1171.812489 374.532153 
L 1172.805195 354.618026 
L 1173.797901 361.036603 
L 1174.790607 427.005216 
L 1175.783313 351.225092 
L 1176.776019 325.783823 
L 1177.768724 319.208061 
L 1178.76143 325.963888 
L 1179.754136 345.335076 
L 1180.746842 357.04672 
L 1181.739548 348.897623 
L 1182.732254 355.516583 
L 1183.72496 399.675753 
L 1184.717666 381.162412 
L 1185.710372 352.142164 
L 1186.703078 349.033414 
L 1187.695784 359.726977 
L 1188.68849 368.535514 
L 1189.681196 359.933576 
L 1190.673901 353.944479 
L 1191.666607 353.750024 
L 1192.659313 355.187909 
L 1193.652019 355.895781 
L 1194.644725 354.621611 
L 1195.637431 352.374239 
L 1196.630137 353.510971 
L 1197.622843 363.277612 
L 1198.615549 374.616202 
L 1199.608255 357.210035 
L 1200.600961 341.957712 
L 1201.593667 338.212563 
L 1203.579078 348.88879 
L 1204.571784 343.573157 
L 1205.56449 339.870928 
L 1206.557196 347.241675 
L 1207.549902 368.559841 
L 1208.542608 366.365078 
L 1209.535314 346.726755 
L 1210.52802 341.754148 
L 1211.520726 349.116239 
L 1212.513432 366.573944 
L 1213.506138 378.944239 
L 1214.498844 369.069412 
L 1216.484255 336.5361 
L 1217.476961 327.397552 
L 1218.469667 326.208436 
L 1219.462373 334.094197 
L 1220.455079 354.92302 
L 1221.447785 398.474837 
L 1222.440491 379.516141 
L 1223.433197 365.011941 
L 1224.425903 370.763302 
L 1225.418609 401.136162 
L 1226.411315 417.943614 
L 1227.404021 377.175004 
L 1228.396727 360.440022 
L 1230.382138 336.363851 
L 1231.374844 328.492389 
L 1232.36755 326.959561 
L 1233.360256 334.26309 
L 1234.352962 354.243994 
L 1235.345668 370.992034 
L 1236.338374 347.735349 
L 1237.33108 337.579544 
L 1238.323786 342.133203 
L 1239.316492 366.818739 
L 1240.309198 436.072646 
L 1241.301904 356.747513 
L 1242.29461 337.301219 
L 1243.287315 330.192104 
L 1244.280021 328.912848 
L 1245.272727 330.175312 
L 1245.272727 330.175312 
" clip-path="url(#pb1fb8ab68b)" style="fill: none; stroke: #1f77b4; stroke-width: 1.5; stroke-linecap: square"/>
   </g>
   <g id="patch_3">
    <path d="M 180 512.64 
L 180 69.12 
" style="fill: none; stroke: #000000; stroke-width: 0.8; stroke-linejoin: miter; stroke-linecap: square"/>
   </g>
   <g id="patch_4">
    <path d="M 1296 512.64 
L 1296 69.12 
" style="fill: none; stroke: #000000; stroke-width: 0.8; stroke-linejoin: miter; stroke-linecap: square"/>
   </g>
   <g id="patch_5">
    <path d="M 180 512.64 
L 1296 512.64 
" style="fill: none; stroke: #000000; stroke-width: 0.8; stroke-linejoin: miter; stroke-linecap: square"/>
   </g>
   <g id="patch_6">
    <path d="M 180 69.12 
L 1296 69.12 
" style="fill: none; stroke: #000000; stroke-width: 0.8; stroke-linejoin: miter; stroke-linecap: square"/>
   </g>
   <g id="text_13">
    <!-- source14-receiver12 -->
    <g transform="translate(532.175 60.80125) scale(0.4 -0.4)">
     <defs>
      <path id="DejaVuSans-73" d="M 2834 3397 
L 2834 2853 
Q 2591 2978 2328 3040 
Q 2066 3103 1784 3103 
Q 1356 3103 1142 2972 
Q 928 2841 928 2578 
Q 928 2378 1081 2264 
Q 1234 2150 1697 2047 
L 1894 2003 
Q 2506 1872 2764 1633 
Q 3022 1394 3022 966 
Q 3022 478 2636 193 
Q 2250 -91 1575 -91 
Q 1294 -91 989 -36 
Q 684 19 347 128 
L 347 722 
Q 666 556 975 473 
Q 1284 391 1588 391 
Q 1994 391 2212 530 
Q 2431 669 2431 922 
Q 2431 1156 2273 1281 
Q 2116 1406 1581 1522 
L 1381 1569 
Q 847 1681 609 1914 
Q 372 2147 372 2553 
Q 372 3047 722 3315 
Q 1072 3584 1716 3584 
Q 2034 3584 2315 3537 
Q 2597 3491 2834 3397 
z
" transform="scale(0.015625)"/>
      <path id="DejaVuSans-6f" d="M 1959 3097 
Q 1497 3097 1228 2736 
Q 959 2375 959 1747 
Q 959 1119 1226 758 
Q 1494 397 1959 397 
Q 2419 397 2687 759 
Q 2956 1122 2956 1747 
Q 2956 2369 2687 2733 
Q 2419 3097 1959 3097 
z
M 1959 3584 
Q 2709 3584 3137 3096 
Q 3566 2609 3566 1747 
Q 3566 888 3137 398 
Q 2709 -91 1959 -91 
Q 1206 -91 779 398 
Q 353 888 353 1747 
Q 353 2609 779 3096 
Q 1206 3584 1959 3584 
z
" transform="scale(0.015625)"/>
      <path id="DejaVuSans-75" d="M 544 1381 
L 544 3500 
L 1119 3500 
L 1119 1403 
Q 1119 906 1312 657 
Q 1506 409 1894 409 
Q 2359 409 2629 706 
Q 2900 1003 2900 1516 
L 2900 3500 
L 3475 3500 
L 3475 0 
L 2900 0 
L 2900 538 
Q 2691 219 2414 64 
Q 2138 -91 1772 -91 
Q 1169 -91 856 284 
Q 544 659 544 1381 
z
M 1991 3584 
L 1991 3584 
z
" transform="scale(0.015625)"/>
      <path id="DejaVuSans-72" d="M 2631 2963 
Q 2534 3019 2420 3045 
Q 2306 3072 2169 3072 
Q 1681 3072 1420 2755 
Q 1159 2438 1159 1844 
L 1159 0 
L 581 0 
L 581 3500 
L 1159 3500 
L 1159 2956 
Q 1341 3275 1631 3429 
Q 1922 3584 2338 3584 
Q 2397 3584 2469 3576 
Q 2541 3569 2628 3553 
L 2631 2963 
z
" transform="scale(0.015625)"/>
      <path id="DejaVuSans-63" d="M 3122 3366 
L 3122 2828 
Q 2878 2963 2633 3030 
Q 2388 3097 2138 3097 
Q 1578 3097 1268 2742 
Q 959 2388 959 1747 
Q 959 1106 1268 751 
Q 1578 397 2138 397 
Q 2388 397 2633 464 
Q 2878 531 3122 666 
L 3122 134 
Q 2881 22 2623 -34 
Q 2366 -91 2075 -91 
Q 1284 -91 818 406 
Q 353 903 353 1747 
Q 353 2603 823 3093 
Q 1294 3584 2113 3584 
Q 2378 3584 2631 3529 
Q 2884 3475 3122 3366 
z
" transform="scale(0.015625)"/>
      <path id="DejaVuSans-65" d="M 3597 1894 
L 3597 1613 
L 953 1613 
Q 991 1019 1311 708 
Q 1631 397 2203 397 
Q 2534 397 2845 478 
Q 3156 559 3463 722 
L 3463 178 
Q 3153 47 2828 -22 
Q 2503 -91 2169 -91 
Q 1331 -91 842 396 
Q 353 884 353 1716 
Q 353 2575 817 3079 
Q 1281 3584 2069 3584 
Q 2775 3584 3186 3129 
Q 3597 2675 3597 1894 
z
M 3022 2063 
Q 3016 2534 2758 2815 
Q 2500 3097 2075 3097 
Q 1594 3097 1305 2825 
Q 1016 2553 972 2059 
L 3022 2063 
z
" transform="scale(0.015625)"/>
      <path id="DejaVuSans-2d" d="M 313 2009 
L 1997 2009 
L 1997 1497 
L 313 1497 
L 313 2009 
z
" transform="scale(0.015625)"/>
      <path id="DejaVuSans-69" d="M 603 3500 
L 1178 3500 
L 1178 0 
L 603 0 
L 603 3500 
z
M 603 4863 
L 1178 4863 
L 1178 4134 
L 603 4134 
L 603 4863 
z
" transform="scale(0.015625)"/>
      <path id="DejaVuSans-76" d="M 191 3500 
L 800 3500 
L 1894 563 
L 2988 3500 
L 3597 3500 
L 2284 0 
L 1503 0 
L 191 3500 
z
" transform="scale(0.015625)"/>
     </defs>
     <use xlink:href="#DejaVuSans-73"/>
     <use xlink:href="#DejaVuSans-6f" x="52.099609"/>
     <use xlink:href="#DejaVuSans-75" x="113.28125"/>
     <use xlink:href="#DejaVuSans-72" x="176.660156"/>
     <use xlink:href="#DejaVuSans-63" x="215.523438"/>
     <use xlink:href="#DejaVuSans-65" x="270.503906"/>
     <use xlink:href="#DejaVuSans-31" x="332.027344"/>
     <use xlink:href="#DejaVuSans-34" x="395.650391"/>
     <use xlink:href="#DejaVuSans-2d" x="459.273438"/>
     <use xlink:href="#DejaVuSans-72" x="495.357422"/>
     <use xlink:href="#DejaVuSans-65" x="534.220703"/>
     <use xlink:href="#DejaVuSans-63" x="595.744141"/>
     <use xlink:href="#DejaVuSans-65" x="650.724609"/>
     <use xlink:href="#DejaVuSans-69" x="712.248047"/>
     <use xlink:href="#DejaVuSans-76" x="740.03125"/>
     <use xlink:href="#DejaVuSans-65" x="799.210938"/>
     <use xlink:href="#DejaVuSans-72" x="860.734375"/>
     <use xlink:href="#DejaVuSans-31" x="901.847656"/>
     <use xlink:href="#DejaVuSans-32" x="965.470703"/>
    </g>
   </g>
  </g>
 </g>
 <defs>
  <clipPath id="pb1fb8ab68b">
   <rect x="180" y="69.12" width="1116" height="443.52"/>
  </clipPath>
 </defs>
</svg>
