<?xml version="1.0" encoding="utf-8" standalone="no"?>
<!DOCTYPE svg PUBLIC "-//W3C//DTD SVG 1.1//EN"
  "http://www.w3.org/Graphics/SVG/1.1/DTD/svg11.dtd">
<svg xmlns:xlink="http://www.w3.org/1999/xlink" width="1440pt" height="576pt" viewBox="0 0 1440 576" xmlns="http://www.w3.org/2000/svg" version="1.1">
 <metadata>
  <rdf:RDF xmlns:dc="http://purl.org/dc/elements/1.1/" xmlns:cc="http://creativecommons.org/ns#" xmlns:rdf="http://www.w3.org/1999/02/22-rdf-syntax-ns#">
   <cc:Work>
    <dc:type rdf:resource="http://purl.org/dc/dcmitype/StillImage"/>
    <dc:date>2024-05-22T04:50:06.957498</dc:date>
    <dc:format>image/svg+xml</dc:format>
    <dc:creator>
     <cc:Agent>
      <dc:title>Matplotlib v3.8.3, https://matplotlib.org/</dc:title>
     </cc:Agent>
    </dc:creator>
   </cc:Work>
  </rdf:RDF>
 </metadata>
 <defs>
  <style type="text/css">*{stroke-linejoin: round; stroke-linecap: butt}</style>
 </defs>
 <g id="figure_1">
  <g id="patch_1">
   <path d="M 0 576 
L 1440 576 
L 1440 0 
L 0 0 
z
" style="fill: #ffffff"/>
  </g>
  <g id="axes_1">
   <g id="patch_2">
    <path d="M 180 512.64 
L 1296 512.64 
L 1296 69.12 
L 180 69.12 
z
" style="fill: #ffffff"/>
   </g>
   <g id="matplotlib.axis_1">
    <g id="xtick_1">
     <g id="line2d_1">
      <defs>
       <path id="m6653f17dfb" d="M 0 0 
L 0 3.5 
" style="stroke: #000000; stroke-width: 0.8"/>
      </defs>
      <g>
       <use xlink:href="#m6653f17dfb" x="229.734567" y="512.64" style="stroke: #000000; stroke-width: 0.8"/>
      </g>
     </g>
     <g id="text_1">
      <!-- 0 -->
      <g transform="translate(226.553317 527.238438) scale(0.1 -0.1)">
       <defs>
        <path id="DejaVuSans-30" d="M 2034 4250 
Q 1547 4250 1301 3770 
Q 1056 3291 1056 2328 
Q 1056 1369 1301 889 
Q 1547 409 2034 409 
Q 2525 409 2770 889 
Q 3016 1369 3016 2328 
Q 3016 3291 2770 3770 
Q 2525 4250 2034 4250 
z
M 2034 4750 
Q 2819 4750 3233 4129 
Q 3647 3509 3647 2328 
Q 3647 1150 3233 529 
Q 2819 -91 2034 -91 
Q 1250 -91 836 529 
Q 422 1150 422 2328 
Q 422 3509 836 4129 
Q 1250 4750 2034 4750 
z
" transform="scale(0.015625)"/>
       </defs>
       <use xlink:href="#DejaVuSans-30"/>
      </g>
     </g>
    </g>
    <g id="xtick_2">
     <g id="line2d_2">
      <g>
       <use xlink:href="#m6653f17dfb" x="433.04074" y="512.64" style="stroke: #000000; stroke-width: 0.8"/>
      </g>
     </g>
     <g id="text_2">
      <!-- 500 -->
      <g transform="translate(423.49699 527.238438) scale(0.1 -0.1)">
       <defs>
        <path id="DejaVuSans-35" d="M 691 4666 
L 3169 4666 
L 3169 4134 
L 1269 4134 
L 1269 2991 
Q 1406 3038 1543 3061 
Q 1681 3084 1819 3084 
Q 2600 3084 3056 2656 
Q 3513 2228 3513 1497 
Q 3513 744 3044 326 
Q 2575 -91 1722 -91 
Q 1428 -91 1123 -41 
Q 819 9 494 109 
L 494 744 
Q 775 591 1075 516 
Q 1375 441 1709 441 
Q 2250 441 2565 725 
Q 2881 1009 2881 1497 
Q 2881 1984 2565 2268 
Q 2250 2553 1709 2553 
Q 1456 2553 1204 2497 
Q 953 2441 691 2322 
L 691 4666 
z
" transform="scale(0.015625)"/>
       </defs>
       <use xlink:href="#DejaVuSans-35"/>
       <use xlink:href="#DejaVuSans-30" x="63.623047"/>
       <use xlink:href="#DejaVuSans-30" x="127.246094"/>
      </g>
     </g>
    </g>
    <g id="xtick_3">
     <g id="line2d_3">
      <g>
       <use xlink:href="#m6653f17dfb" x="636.346913" y="512.64" style="stroke: #000000; stroke-width: 0.8"/>
      </g>
     </g>
     <g id="text_3">
      <!-- 1000 -->
      <g transform="translate(623.621913 527.238438) scale(0.1 -0.1)">
       <defs>
        <path id="DejaVuSans-31" d="M 794 531 
L 1825 531 
L 1825 4091 
L 703 3866 
L 703 4441 
L 1819 4666 
L 2450 4666 
L 2450 531 
L 3481 531 
L 3481 0 
L 794 0 
L 794 531 
z
" transform="scale(0.015625)"/>
       </defs>
       <use xlink:href="#DejaVuSans-31"/>
       <use xlink:href="#DejaVuSans-30" x="63.623047"/>
       <use xlink:href="#DejaVuSans-30" x="127.246094"/>
       <use xlink:href="#DejaVuSans-30" x="190.869141"/>
      </g>
     </g>
    </g>
    <g id="xtick_4">
     <g id="line2d_4">
      <g>
       <use xlink:href="#m6653f17dfb" x="839.653087" y="512.64" style="stroke: #000000; stroke-width: 0.8"/>
      </g>
     </g>
     <g id="text_4">
      <!-- 1500 -->
      <g transform="translate(826.928087 527.238438) scale(0.1 -0.1)">
       <use xlink:href="#DejaVuSans-31"/>
       <use xlink:href="#DejaVuSans-35" x="63.623047"/>
       <use xlink:href="#DejaVuSans-30" x="127.246094"/>
       <use xlink:href="#DejaVuSans-30" x="190.869141"/>
      </g>
     </g>
    </g>
    <g id="xtick_5">
     <g id="line2d_5">
      <g>
       <use xlink:href="#m6653f17dfb" x="1042.95926" y="512.64" style="stroke: #000000; stroke-width: 0.8"/>
      </g>
     </g>
     <g id="text_5">
      <!-- 2000 -->
      <g transform="translate(1030.23426 527.238438) scale(0.1 -0.1)">
       <defs>
        <path id="DejaVuSans-32" d="M 1228 531 
L 3431 531 
L 3431 0 
L 469 0 
L 469 531 
Q 828 903 1448 1529 
Q 2069 2156 2228 2338 
Q 2531 2678 2651 2914 
Q 2772 3150 2772 3378 
Q 2772 3750 2511 3984 
Q 2250 4219 1831 4219 
Q 1534 4219 1204 4116 
Q 875 4013 500 3803 
L 500 4441 
Q 881 4594 1212 4672 
Q 1544 4750 1819 4750 
Q 2544 4750 2975 4387 
Q 3406 4025 3406 3419 
Q 3406 3131 3298 2873 
Q 3191 2616 2906 2266 
Q 2828 2175 2409 1742 
Q 1991 1309 1228 531 
z
" transform="scale(0.015625)"/>
       </defs>
       <use xlink:href="#DejaVuSans-32"/>
       <use xlink:href="#DejaVuSans-30" x="63.623047"/>
       <use xlink:href="#DejaVuSans-30" x="127.246094"/>
       <use xlink:href="#DejaVuSans-30" x="190.869141"/>
      </g>
     </g>
    </g>
    <g id="xtick_6">
     <g id="line2d_6">
      <g>
       <use xlink:href="#m6653f17dfb" x="1246.265433" y="512.64" style="stroke: #000000; stroke-width: 0.8"/>
      </g>
     </g>
     <g id="text_6">
      <!-- 2500 -->
      <g transform="translate(1233.540433 527.238438) scale(0.1 -0.1)">
       <use xlink:href="#DejaVuSans-32"/>
       <use xlink:href="#DejaVuSans-35" x="63.623047"/>
       <use xlink:href="#DejaVuSans-30" x="127.246094"/>
       <use xlink:href="#DejaVuSans-30" x="190.869141"/>
      </g>
     </g>
    </g>
   </g>
   <g id="matplotlib.axis_2">
    <g id="ytick_1">
     <g id="line2d_7">
      <defs>
       <path id="mb34b23cc12" d="M 0 0 
L -3.5 0 
" style="stroke: #000000; stroke-width: 0.8"/>
      </defs>
      <g>
       <use xlink:href="#mb34b23cc12" x="180" y="482.978646" style="stroke: #000000; stroke-width: 0.8"/>
      </g>
     </g>
     <g id="text_7">
      <!-- −10 -->
      <g transform="translate(151.895312 486.777864) scale(0.1 -0.1)">
       <defs>
        <path id="DejaVuSans-2212" d="M 678 2272 
L 4684 2272 
L 4684 1741 
L 678 1741 
L 678 2272 
z
" transform="scale(0.015625)"/>
       </defs>
       <use xlink:href="#DejaVuSans-2212"/>
       <use xlink:href="#DejaVuSans-31" x="83.789062"/>
       <use xlink:href="#DejaVuSans-30" x="147.412109"/>
      </g>
     </g>
    </g>
    <g id="ytick_2">
     <g id="line2d_8">
      <g>
       <use xlink:href="#mb34b23cc12" x="180" y="420.677003" style="stroke: #000000; stroke-width: 0.8"/>
      </g>
     </g>
     <g id="text_8">
      <!-- −8 -->
      <g transform="translate(158.257812 424.476222) scale(0.1 -0.1)">
       <defs>
        <path id="DejaVuSans-38" d="M 2034 2216 
Q 1584 2216 1326 1975 
Q 1069 1734 1069 1313 
Q 1069 891 1326 650 
Q 1584 409 2034 409 
Q 2484 409 2743 651 
Q 3003 894 3003 1313 
Q 3003 1734 2745 1975 
Q 2488 2216 2034 2216 
z
M 1403 2484 
Q 997 2584 770 2862 
Q 544 3141 544 3541 
Q 544 4100 942 4425 
Q 1341 4750 2034 4750 
Q 2731 4750 3128 4425 
Q 3525 4100 3525 3541 
Q 3525 3141 3298 2862 
Q 3072 2584 2669 2484 
Q 3125 2378 3379 2068 
Q 3634 1759 3634 1313 
Q 3634 634 3220 271 
Q 2806 -91 2034 -91 
Q 1263 -91 848 271 
Q 434 634 434 1313 
Q 434 1759 690 2068 
Q 947 2378 1403 2484 
z
M 1172 3481 
Q 1172 3119 1398 2916 
Q 1625 2713 2034 2713 
Q 2441 2713 2670 2916 
Q 2900 3119 2900 3481 
Q 2900 3844 2670 4047 
Q 2441 4250 2034 4250 
Q 1625 4250 1398 4047 
Q 1172 3844 1172 3481 
z
" transform="scale(0.015625)"/>
       </defs>
       <use xlink:href="#DejaVuSans-2212"/>
       <use xlink:href="#DejaVuSans-38" x="83.789062"/>
      </g>
     </g>
    </g>
    <g id="ytick_3">
     <g id="line2d_9">
      <g>
       <use xlink:href="#mb34b23cc12" x="180" y="358.37536" style="stroke: #000000; stroke-width: 0.8"/>
      </g>
     </g>
     <g id="text_9">
      <!-- −6 -->
      <g transform="translate(158.257812 362.174579) scale(0.1 -0.1)">
       <defs>
        <path id="DejaVuSans-36" d="M 2113 2584 
Q 1688 2584 1439 2293 
Q 1191 2003 1191 1497 
Q 1191 994 1439 701 
Q 1688 409 2113 409 
Q 2538 409 2786 701 
Q 3034 994 3034 1497 
Q 3034 2003 2786 2293 
Q 2538 2584 2113 2584 
z
M 3366 4563 
L 3366 3988 
Q 3128 4100 2886 4159 
Q 2644 4219 2406 4219 
Q 1781 4219 1451 3797 
Q 1122 3375 1075 2522 
Q 1259 2794 1537 2939 
Q 1816 3084 2150 3084 
Q 2853 3084 3261 2657 
Q 3669 2231 3669 1497 
Q 3669 778 3244 343 
Q 2819 -91 2113 -91 
Q 1303 -91 875 529 
Q 447 1150 447 2328 
Q 447 3434 972 4092 
Q 1497 4750 2381 4750 
Q 2619 4750 2861 4703 
Q 3103 4656 3366 4563 
z
" transform="scale(0.015625)"/>
       </defs>
       <use xlink:href="#DejaVuSans-2212"/>
       <use xlink:href="#DejaVuSans-36" x="83.789062"/>
      </g>
     </g>
    </g>
    <g id="ytick_4">
     <g id="line2d_10">
      <g>
       <use xlink:href="#mb34b23cc12" x="180" y="296.073718" style="stroke: #000000; stroke-width: 0.8"/>
      </g>
     </g>
     <g id="text_10">
      <!-- −4 -->
      <g transform="translate(158.257812 299.872936) scale(0.1 -0.1)">
       <defs>
        <path id="DejaVuSans-34" d="M 2419 4116 
L 825 1625 
L 2419 1625 
L 2419 4116 
z
M 2253 4666 
L 3047 4666 
L 3047 1625 
L 3713 1625 
L 3713 1100 
L 3047 1100 
L 3047 0 
L 2419 0 
L 2419 1100 
L 313 1100 
L 313 1709 
L 2253 4666 
z
" transform="scale(0.015625)"/>
       </defs>
       <use xlink:href="#DejaVuSans-2212"/>
       <use xlink:href="#DejaVuSans-34" x="83.789062"/>
      </g>
     </g>
    </g>
    <g id="ytick_5">
     <g id="line2d_11">
      <g>
       <use xlink:href="#mb34b23cc12" x="180" y="233.772075" style="stroke: #000000; stroke-width: 0.8"/>
      </g>
     </g>
     <g id="text_11">
      <!-- −2 -->
      <g transform="translate(158.257812 237.571294) scale(0.1 -0.1)">
       <use xlink:href="#DejaVuSans-2212"/>
       <use xlink:href="#DejaVuSans-32" x="83.789062"/>
      </g>
     </g>
    </g>
    <g id="ytick_6">
     <g id="line2d_12">
      <g>
       <use xlink:href="#mb34b23cc12" x="180" y="171.470432" style="stroke: #000000; stroke-width: 0.8"/>
      </g>
     </g>
     <g id="text_12">
      <!-- 0 -->
      <g transform="translate(166.6375 175.269651) scale(0.1 -0.1)">
       <use xlink:href="#DejaVuSans-30"/>
      </g>
     </g>
    </g>
    <g id="ytick_7">
     <g id="line2d_13">
      <g>
       <use xlink:href="#mb34b23cc12" x="180" y="109.16879" style="stroke: #000000; stroke-width: 0.8"/>
      </g>
     </g>
     <g id="text_13">
      <!-- 2 -->
      <g transform="translate(166.6375 112.968008) scale(0.1 -0.1)">
       <use xlink:href="#DejaVuSans-32"/>
      </g>
     </g>
    </g>
   </g>
   <g id="line2d_14">
    <path d="M 230.727273 244.561057 
L 231.719979 243.883086 
L 233.70539 243.094991 
L 234.698096 243.569681 
L 236.683508 240.761332 
L 237.676214 241.202022 
L 238.66892 239.412413 
L 239.661626 238.214434 
L 241.647038 236.763388 
L 243.63245 233.299821 
L 244.625156 231.932093 
L 245.617862 238.443267 
L 246.610568 268.967794 
L 247.603273 200.886987 
L 248.595979 168.805376 
L 249.588685 148.011291 
L 250.581391 133.030207 
L 251.574097 124.344161 
L 252.566803 121.581542 
L 253.559509 124.935854 
L 254.552215 135.754363 
L 255.544921 148.394404 
L 256.537627 143.06218 
L 257.530333 139.026031 
L 258.523039 141.213156 
L 259.515745 141.511577 
L 260.50845 133.817482 
L 261.501156 131.608081 
L 262.493862 140.061507 
L 263.486568 161.724506 
L 264.479274 156.04943 
L 265.47198 143.070646 
L 266.464686 143.482126 
L 267.457392 155.202548 
L 268.450098 161.283938 
L 269.442804 146.119688 
L 270.43551 137.865592 
L 271.428216 137.892007 
L 272.420922 142.387625 
L 273.413627 153.647694 
L 274.406333 166.629514 
L 275.399039 163.569933 
L 276.391745 137.260097 
L 277.384451 126.179616 
L 278.377157 124.767151 
L 279.369863 134.427033 
L 280.362569 126.095491 
L 281.355275 105.725364 
L 282.347981 94.656494 
L 283.340687 89.28 
L 284.333393 90.530389 
L 285.326099 96.931418 
L 286.318804 110.919403 
L 287.31151 128.20516 
L 288.304216 132.880611 
L 289.296922 132.70163 
L 290.289628 141.967591 
L 291.282334 169.13212 
L 292.27504 184.802263 
L 293.267746 165.769945 
L 294.260452 170.97568 
L 295.253158 189.54047 
L 296.245864 222.274665 
L 297.23857 198.822187 
L 298.231276 220.322628 
L 299.223981 229.434401 
L 300.216687 202.354608 
L 301.209393 207.671154 
L 302.202099 235.782587 
L 303.194805 219.164909 
L 304.187511 208.51515 
L 305.180217 212.182763 
L 306.172923 256.694477 
L 307.165629 250.620264 
L 308.158335 234.110547 
L 309.151041 270.874834 
L 310.143747 247.265722 
L 311.136453 249.049177 
L 312.129159 234.527706 
L 313.121864 245.968473 
L 314.11457 252.864164 
L 315.107276 254.330219 
L 316.099982 275.895793 
L 317.092688 252.088254 
L 318.085394 318.326083 
L 319.0781 246.984289 
L 320.070806 287.251978 
L 321.063512 259.894684 
L 322.056218 268.51798 
L 323.048924 263.944801 
L 324.04163 301.047685 
L 325.034336 252.756247 
L 326.027041 274.790428 
L 327.019747 256.488591 
L 328.012453 295.175671 
L 329.005159 265.898631 
L 329.997865 256.887341 
L 330.990571 241.999555 
L 331.983277 255.690557 
L 332.975983 262.603567 
L 333.968689 248.137793 
L 334.961395 299.457181 
L 335.954101 338.80692 
L 336.946807 321.130072 
L 337.939513 280.875818 
L 338.932218 273.39639 
L 339.924924 261.990418 
L 340.91763 301.278715 
L 341.910336 297.901356 
L 342.903042 264.875997 
L 343.895748 287.650374 
L 344.888454 268.130688 
L 345.88116 304.223928 
L 346.873866 286.977066 
L 347.866572 311.58993 
L 348.859278 294.230934 
L 349.851984 263.435886 
L 350.84469 301.106293 
L 351.837395 258.697512 
L 352.830101 251.664838 
L 353.822807 255.118374 
L 354.815513 313.295546 
L 355.808219 300.512268 
L 356.800925 265.910303 
L 357.793631 306.019887 
L 358.786337 268.176998 
L 359.779043 273.087733 
L 360.771749 254.719618 
L 361.764455 262.092983 
L 363.749867 290.041959 
L 364.742572 255.830522 
L 365.735278 239.738342 
L 366.727984 290.314807 
L 367.72069 246.746799 
L 368.713396 292.579802 
L 369.706102 269.71049 
L 370.698808 297.558531 
L 371.691514 285.333432 
L 372.68422 301.81404 
L 373.676926 282.204913 
L 374.669632 284.704641 
L 375.662338 268.911871 
L 376.655044 308.91067 
L 377.64775 259.431618 
L 378.640455 294.618307 
L 379.633161 312.678168 
L 380.625867 261.152115 
L 381.618573 287.713382 
L 382.611279 279.336343 
L 383.603985 277.138269 
L 384.596691 290.292502 
L 385.589397 282.059841 
L 386.582103 312.770985 
L 387.574809 278.388169 
L 388.567515 305.368291 
L 389.560221 270.322273 
L 390.552927 314.955923 
L 391.545632 284.345501 
L 392.538338 283.683006 
L 393.531044 279.286865 
L 394.52375 285.777822 
L 395.516456 281.173885 
L 396.509162 324.420569 
L 397.501868 267.676986 
L 398.494574 287.878172 
L 399.48728 296.177697 
L 400.479986 278.925604 
L 401.472692 254.754588 
L 402.465398 266.958616 
L 403.458104 251.769031 
L 404.450809 268.721654 
L 405.443515 270.784414 
L 406.436221 262.801744 
L 407.428927 282.589567 
L 408.421633 257.42283 
L 409.414339 323.377315 
L 410.407045 277.619972 
L 411.399751 263.878057 
L 412.392457 264.972583 
L 413.385163 316.420085 
L 414.377869 297.365251 
L 415.370575 293.386799 
L 416.363281 263.009739 
L 417.355986 287.585715 
L 418.348692 293.360338 
L 419.341398 260.567082 
L 420.334104 279.248789 
L 421.32681 276.666169 
L 422.319516 312.849338 
L 423.312222 292.50885 
L 424.304928 295.054797 
L 425.297634 284.888264 
L 426.29034 293.475897 
L 427.283046 292.547152 
L 428.275752 279.880076 
L 429.268458 308.565527 
L 430.261163 273.039599 
L 431.253869 277.950192 
L 432.246575 326.696689 
L 433.239281 261.717657 
L 434.231987 285.768774 
L 435.224693 334.261794 
L 436.217399 273.070584 
L 437.210105 279.39816 
L 438.202811 265.73448 
L 439.195517 269.288194 
L 440.188223 265.089465 
L 441.180929 282.067362 
L 442.173635 280.83288 
L 443.166341 272.932274 
L 444.159046 287.468135 
L 445.151752 262.827657 
L 446.144458 273.369455 
L 447.137164 298.513452 
L 448.12987 295.338672 
L 449.122576 273.144875 
L 450.115282 281.895899 
L 451.107988 278.867026 
L 452.100694 288.654858 
L 453.0934 279.640868 
L 454.086106 290.057497 
L 455.078812 296.832595 
L 456.071518 289.444833 
L 457.064223 290.646329 
L 458.056929 325.105969 
L 459.049635 274.941798 
L 460.042341 288.028882 
L 461.035047 284.720279 
L 462.027753 261.464857 
L 463.020459 301.940069 
L 464.013165 314.151349 
L 465.005871 300.180133 
L 465.998577 264.455937 
L 466.991283 263.870605 
L 467.983989 290.548343 
L 468.976695 370.962423 
L 469.9694 274.260045 
L 470.962106 268.664721 
L 471.954812 276.071737 
L 472.947518 273.361806 
L 473.940224 293.694839 
L 474.93293 271.185397 
L 475.925636 264.73321 
L 476.918342 299.19812 
L 477.911048 289.123158 
L 478.903754 290.442236 
L 479.89646 269.61222 
L 480.889166 293.018574 
L 481.881872 277.197114 
L 482.874577 283.793687 
L 483.867283 291.551051 
L 484.859989 280.875589 
L 485.852695 271.557286 
L 486.845401 296.142181 
L 488.830813 264.847987 
L 489.823519 283.997113 
L 490.816225 290.818151 
L 491.808931 273.6418 
L 492.801637 299.898172 
L 493.794343 298.436033 
L 494.787049 296.627703 
L 495.779754 274.873689 
L 496.77246 268.191737 
L 497.765166 291.72504 
L 498.757872 274.08697 
L 499.750578 295.429813 
L 500.743284 271.082543 
L 501.73599 292.159956 
L 502.728696 283.980433 
L 503.721402 261.744875 
L 504.714108 301.166246 
L 505.706814 279.069333 
L 506.69952 311.67473 
L 507.692226 272.155622 
L 508.684932 248.093228 
L 509.677637 265.641032 
L 510.670343 278.33028 
L 511.663049 328.711131 
L 512.655755 298.220777 
L 513.648461 275.357378 
L 514.641167 288.706051 
L 515.633873 283.142902 
L 516.626579 320.690785 
L 517.619285 317.258527 
L 518.611991 277.474487 
L 519.604697 258.457388 
L 520.597403 302.762872 
L 521.590109 267.758868 
L 522.582814 275.29541 
L 523.57552 266.50212 
L 524.568226 264.315729 
L 525.560932 277.523242 
L 526.553638 268.312593 
L 527.546344 305.850624 
L 528.53905 268.772866 
L 529.531756 289.522405 
L 530.524462 277.716963 
L 531.517168 298.695021 
L 532.509874 294.566872 
L 533.50258 296.300736 
L 534.495286 271.544645 
L 535.487991 293.737378 
L 536.480697 311.343396 
L 537.473403 311.202833 
L 538.466109 262.122412 
L 539.458815 294.852732 
L 540.451521 298.75229 
L 541.444227 292.537448 
L 542.436933 325.788987 
L 543.429639 303.097036 
L 544.422345 322.189651 
L 545.415051 300.985734 
L 546.407757 258.02991 
L 547.400463 295.113344 
L 548.393168 285.207303 
L 549.385874 292.023833 
L 550.37858 289.502864 
L 551.371286 329.959984 
L 552.363992 285.296281 
L 553.356698 275.801805 
L 554.349404 305.678184 
L 555.34211 304.521735 
L 556.334816 274.972963 
L 557.327522 260.60748 
L 558.320228 323.779409 
L 559.312934 279.539756 
L 560.30564 259.291471 
L 561.298345 254.722981 
L 562.291051 291.825983 
L 563.283757 274.572035 
L 564.276463 288.174122 
L 565.269169 294.176923 
L 566.261875 297.872376 
L 567.254581 280.337211 
L 568.247287 283.547281 
L 569.239993 278.524738 
L 570.232699 277.626327 
L 571.225405 318.024821 
L 572.218111 308.591672 
L 573.210817 275.090015 
L 574.203523 331.703857 
L 576.188934 271.42032 
L 577.18164 292.98506 
L 578.174346 271.53795 
L 579.167052 303.339353 
L 580.159758 266.910985 
L 581.152464 268.235581 
L 582.14517 268.53045 
L 583.137876 330.744801 
L 584.130582 330.156004 
L 585.123288 321.613158 
L 586.115994 303.098978 
L 587.1087 265.885501 
L 588.101405 274.649289 
L 589.094111 304.178246 
L 590.086817 275.221004 
L 591.079523 320.700905 
L 592.072229 297.017689 
L 593.064935 292.67902 
L 594.057641 306.911167 
L 595.050347 299.299838 
L 596.043053 303.640374 
L 597.035759 282.02973 
L 598.028465 286.050804 
L 599.021171 324.421574 
L 600.013877 301.593788 
L 601.006582 291.647125 
L 601.999288 318.134926 
L 602.991994 279.148073 
L 603.9847 267.729608 
L 604.977406 292.857037 
L 605.970112 284.316271 
L 606.962818 302.682459 
L 607.955524 300.221344 
L 608.94823 292.377934 
L 609.940936 291.567393 
L 611.926348 321.250687 
L 612.919054 281.235875 
L 613.911759 303.758852 
L 614.904465 301.148393 
L 615.897171 305.723344 
L 616.889877 303.154442 
L 617.882583 293.690767 
L 619.867995 306.242286 
L 620.860701 331.717671 
L 621.853407 341.35617 
L 622.846113 306.613438 
L 623.838819 292.823595 
L 624.831525 314.22328 
L 625.824231 303.591605 
L 626.816936 311.033955 
L 627.809642 343.839986 
L 628.802348 313.943235 
L 629.795054 330.138859 
L 630.78776 318.951394 
L 631.780466 305.191666 
L 632.773172 328.41887 
L 633.765878 305.603324 
L 634.758584 296.042153 
L 635.75129 320.397718 
L 636.743996 341.333421 
L 637.736702 337.531814 
L 638.729408 297.869773 
L 639.722114 362.825232 
L 640.714819 311.150375 
L 641.707525 348.786155 
L 642.700231 330.42172 
L 643.692937 296.968533 
L 644.685643 321.005501 
L 645.678349 318.11882 
L 646.671055 329.103761 
L 647.663761 321.380535 
L 648.656467 358.319526 
L 649.649173 350.022159 
L 650.641879 347.882199 
L 651.634585 326.36724 
L 652.627291 344.701771 
L 653.619996 339.346486 
L 654.612702 322.146352 
L 655.605408 318.223526 
L 656.598114 363.541633 
L 657.59082 352.916293 
L 658.583526 367.063898 
L 659.576232 352.445018 
L 660.568938 317.377888 
L 661.561644 347.894275 
L 662.55435 353.172273 
L 663.547056 317.372584 
L 664.539762 340.301807 
L 665.532468 375.142552 
L 666.525173 359.874462 
L 667.517879 348.934321 
L 668.510585 332.740303 
L 669.503291 342.578464 
L 670.495997 379.459561 
L 671.488703 360.436643 
L 672.481409 336.446267 
L 673.474115 356.623519 
L 674.466821 398.690783 
L 675.459527 346.101355 
L 676.452233 336.820015 
L 677.444939 338.549119 
L 678.437645 368.111767 
L 679.43035 349.599397 
L 680.423056 404.672235 
L 681.415762 385.213612 
L 682.408468 414.372607 
L 683.401174 358.21412 
L 684.39388 345.48967 
L 685.386586 356.703678 
L 687.371998 352.346762 
L 688.364704 339.68671 
L 689.35741 353.06146 
L 690.350116 347.699596 
L 691.342822 364.683052 
L 692.335527 361.498036 
L 693.328233 338.474699 
L 694.320939 325.76569 
L 695.313645 377.069637 
L 696.306351 408.082353 
L 697.299057 344.401304 
L 698.291763 380.524641 
L 699.284469 340.341279 
L 700.277175 353.263764 
L 701.269881 415.827905 
L 702.262587 416.532869 
L 703.255293 342.891149 
L 704.247999 369.519944 
L 705.240705 374.476102 
L 706.23341 369.368759 
L 707.226116 380.959681 
L 708.218822 376.360956 
L 709.211528 359.717242 
L 710.204234 352.847126 
L 711.19694 392.523034 
L 712.189646 372.159516 
L 713.182352 362.989791 
L 714.175058 435.27072 
L 715.167764 365.124693 
L 716.16047 360.386959 
L 717.153176 359.977513 
L 718.145882 351.008751 
L 719.138587 370.790485 
L 720.131293 372.993206 
L 721.123999 373.576002 
L 722.116705 417.878056 
L 723.109411 375.299699 
L 724.102117 377.074226 
L 725.094823 373.339781 
L 726.087529 380.179416 
L 727.080235 422.167702 
L 728.072941 430.825664 
L 729.065647 383.631186 
L 730.058353 485.021752 
L 731.051059 378.107727 
L 732.043764 365.379657 
L 733.03647 360.26409 
L 734.029176 407.170453 
L 735.021882 373.580002 
L 736.014588 415.795023 
L 737.007294 392.031956 
L 738 359.639015 
L 738.992706 450.479511 
L 739.985412 391.577545 
L 740.978118 379.366331 
L 741.970824 373.765693 
L 742.96353 355.081826 
L 743.956236 397.298872 
L 744.948941 382.472972 
L 745.941647 395.263577 
L 746.934353 379.812903 
L 747.927059 366.527243 
L 748.919765 420.001642 
L 749.912471 346.243735 
L 750.905177 357.263649 
L 751.897883 404.428042 
L 752.890589 387.411486 
L 753.883295 349.135801 
L 754.876001 368.798321 
L 755.868707 380.835957 
L 756.861413 381.862634 
L 757.854118 400.477729 
L 758.846824 371.294446 
L 759.83953 407.453702 
L 760.832236 376.863257 
L 761.824942 381.529132 
L 762.817648 354.415678 
L 763.810354 371.101263 
L 764.80306 372.995713 
L 765.795766 394.901644 
L 766.788472 365.160485 
L 767.781178 372.687388 
L 768.773884 352.484759 
L 769.76659 408.898921 
L 770.759295 436.918152 
L 771.752001 395.685371 
L 772.744707 364.586226 
L 773.737413 360.734618 
L 774.730119 406.085422 
L 775.722825 411.794841 
L 776.715531 361.032053 
L 777.708237 355.497162 
L 778.700943 423.133234 
L 779.693649 410.624555 
L 780.686355 396.620798 
L 781.679061 417.555329 
L 782.671767 385.328218 
L 783.664473 372.024856 
L 784.657178 365.02704 
L 785.649884 380.128396 
L 786.64259 368.133697 
L 787.635296 353.816023 
L 788.628002 398.799688 
L 789.620708 382.845855 
L 790.613414 407.4046 
L 791.60612 384.393483 
L 792.598826 372.704289 
L 793.591532 366.261954 
L 794.584238 361.147458 
L 795.576944 389.702536 
L 796.56965 387.209625 
L 797.562355 407.958833 
L 798.555061 359.993467 
L 799.547767 418.646017 
L 800.540473 380.152816 
L 801.533179 396.056171 
L 802.525885 380.476494 
L 803.518591 372.317016 
L 804.511297 382.570951 
L 805.504003 369.416913 
L 806.496709 372.279434 
L 807.489415 368.476621 
L 808.482121 398.350182 
L 809.474827 371.424713 
L 810.467532 347.597769 
L 811.460238 382.759811 
L 812.452944 397.757579 
L 813.44565 430.316694 
L 814.438356 360.764405 
L 815.431062 360.327804 
L 816.423768 396.312685 
L 817.416474 413.873027 
L 818.40918 383.759552 
L 819.401886 371.106104 
L 820.394592 402.965214 
L 821.387298 375.086095 
L 822.380004 384.689932 
L 823.372709 370.012133 
L 824.365415 360.520413 
L 825.358121 393.191384 
L 826.350827 365.832974 
L 827.343533 408.434598 
L 828.336239 383.496513 
L 829.328945 368.512698 
L 830.321651 384.722968 
L 831.314357 386.910701 
L 832.307063 367.7481 
L 833.299769 456.539308 
L 834.292475 396.014554 
L 835.285181 370.374825 
L 836.277886 376.811343 
L 837.270592 370.946204 
L 838.263298 373.287366 
L 839.256004 389.317746 
L 840.24871 397.68298 
L 841.241416 434.224352 
L 842.234122 406.665078 
L 843.226828 384.744613 
L 844.219534 391.701627 
L 845.21224 376.713728 
L 846.204946 393.840082 
L 847.197652 388.540511 
L 848.190358 372.708489 
L 849.183064 380.430302 
L 850.175769 390.630336 
L 851.168475 386.707399 
L 852.161181 393.252856 
L 853.153887 404.883027 
L 854.146593 359.813166 
L 855.139299 358.272459 
L 856.132005 357.037562 
L 857.124711 373.772623 
L 858.117417 376.135215 
L 859.110123 371.710381 
L 860.102829 400.638078 
L 861.095535 383.75053 
L 862.088241 385.811125 
L 863.080946 363.9201 
L 864.073652 388.654472 
L 865.066358 371.329499 
L 866.059064 363.365125 
L 867.05177 380.863339 
L 868.044476 421.443786 
L 869.037182 379.716751 
L 870.029888 380.66176 
L 871.022594 374.169118 
L 872.0153 407.874927 
L 873.008006 408.234537 
L 874.000712 377.236776 
L 874.993418 374.441 
L 875.986123 385.957783 
L 876.978829 403.439429 
L 877.971535 382.851934 
L 878.964241 423.719871 
L 879.956947 377.374787 
L 880.949653 395.571174 
L 881.942359 394.183061 
L 882.935065 362.818186 
L 883.927771 383.072719 
L 884.920477 372.513984 
L 885.913183 369.448051 
L 886.905889 382.138582 
L 887.898595 350.364389 
L 888.8913 361.643247 
L 889.884006 381.895597 
L 890.876712 371.381616 
L 891.869418 398.569636 
L 892.862124 415.509454 
L 893.85483 368.254116 
L 894.847536 442.37261 
L 895.840242 387.267146 
L 896.832948 420.073097 
L 897.825654 369.01263 
L 898.81836 393.407842 
L 899.811066 379.352736 
L 900.803772 397.759608 
L 901.796477 372.934247 
L 902.789183 380.636992 
L 903.781889 386.828172 
L 904.774595 379.996335 
L 905.767301 370.219649 
L 906.760007 384.395891 
L 907.752713 403.148205 
L 908.745419 392.970683 
L 909.738125 381.609115 
L 910.730831 355.617848 
L 911.723537 373.031102 
L 912.716243 363.85822 
L 913.708949 392.367841 
L 914.701655 375.685741 
L 915.69436 366.226955 
L 916.687066 392.709145 
L 917.679772 370.919912 
L 918.672478 377.509397 
L 919.665184 381.34499 
L 920.65789 421.249955 
L 921.650596 385.892434 
L 922.643302 379.006735 
L 923.636008 386.290073 
L 924.628714 396.270768 
L 925.62142 381.065916 
L 926.614126 387.915053 
L 927.606832 400.838073 
L 928.599537 401.030202 
L 929.592243 369.183289 
L 930.584949 360.946031 
L 931.577655 391.786899 
L 932.570361 379.372451 
L 933.563067 385.06091 
L 934.555773 382.697356 
L 935.548479 368.112488 
L 936.541185 391.601082 
L 937.533891 377.661675 
L 938.526597 388.209792 
L 939.519303 370.474979 
L 940.512009 440.572138 
L 941.504714 379.911043 
L 942.49742 393.30236 
L 943.490126 374.128988 
L 944.482832 449.900165 
L 945.475538 382.186525 
L 946.468244 383.05902 
L 947.46095 412.048781 
L 948.453656 407.035738 
L 949.446362 389.408449 
L 950.439068 382.970542 
L 951.431774 387.534779 
L 952.42448 407.549827 
L 953.417186 393.527314 
L 954.409891 411.576512 
L 955.402597 411.482842 
L 956.395303 378.181557 
L 957.388009 391.195268 
L 958.380715 369.325935 
L 959.373421 387.725323 
L 960.366127 388.355025 
L 961.358833 364.041018 
L 962.351539 362.712022 
L 963.344245 355.062864 
L 964.336951 421.249313 
L 965.329657 375.396588 
L 966.322363 389.312541 
L 967.315068 383.897301 
L 968.307774 379.480764 
L 969.30048 377.579752 
L 970.293186 383.996968 
L 971.285892 385.030982 
L 972.278598 431.624291 
L 973.271304 358.382632 
L 974.26401 379.821144 
L 975.256716 380.747411 
L 976.249422 388.316612 
L 978.234834 365.326804 
L 979.22754 383.293881 
L 980.220246 415.007486 
L 981.212951 412.141856 
L 982.205657 379.641234 
L 983.198363 373.723177 
L 984.191069 399.916869 
L 985.183775 370.160051 
L 986.176481 390.681189 
L 987.169187 365.738947 
L 988.161893 386.226991 
L 989.154599 396.681709 
L 990.147305 369.367389 
L 991.140011 385.328244 
L 992.132717 404.290861 
L 993.125423 364.153079 
L 994.118128 376.886853 
L 995.110834 371.949777 
L 997.096246 383.768617 
L 998.088952 370.673325 
L 999.081658 372.609574 
L 1000.074364 407.256873 
L 1002.059776 368.420942 
L 1003.052482 381.760536 
L 1004.045188 369.494892 
L 1005.037894 393.861107 
L 1006.0306 395.923086 
L 1007.023305 370.839808 
L 1008.016011 441.129268 
L 1009.008717 390.76602 
L 1010.001423 364.902542 
L 1010.994129 377.85842 
L 1011.986835 395.34665 
L 1012.979541 374.912432 
L 1013.972247 418.152974 
L 1014.964953 370.403376 
L 1015.957659 492.48 
L 1016.950365 412.202383 
L 1017.943071 363.456868 
L 1018.935777 395.874829 
L 1019.928482 399.202543 
L 1020.921188 366.755677 
L 1021.913894 378.864659 
L 1022.9066 358.454931 
L 1023.899306 384.394487 
L 1024.892012 368.322446 
L 1025.884718 388.118812 
L 1026.877424 394.236893 
L 1027.87013 398.83777 
L 1028.862836 391.369613 
L 1029.855542 407.200758 
L 1030.848248 362.69739 
L 1031.840954 381.427646 
L 1032.833659 390.357705 
L 1033.826365 412.584841 
L 1034.819071 384.733026 
L 1035.811777 464.97721 
L 1036.804483 391.056097 
L 1037.797189 408.318411 
L 1039.782601 377.605199 
L 1040.775307 389.938718 
L 1041.768013 410.614706 
L 1042.760719 366.971881 
L 1043.753425 365.783484 
L 1044.746131 384.01576 
L 1045.738837 424.966053 
L 1046.731542 368.490011 
L 1047.724248 372.184359 
L 1048.716954 373.530226 
L 1049.70966 400.057056 
L 1050.702366 385.15993 
L 1051.695072 380.554733 
L 1052.687778 382.002562 
L 1053.680484 390.479937 
L 1054.67319 370.485666 
L 1055.665896 382.870533 
L 1056.658602 392.627171 
L 1057.651308 377.691922 
L 1058.644014 389.347246 
L 1059.636719 390.178321 
L 1060.629425 444.483463 
L 1061.622131 388.487184 
L 1062.614837 434.387785 
L 1063.607543 372.349668 
L 1064.600249 376.973045 
L 1065.592955 359.008244 
L 1066.585661 380.071098 
L 1067.578367 374.041014 
L 1068.571073 388.75247 
L 1069.563779 420.794919 
L 1070.556485 403.163477 
L 1071.549191 418.642577 
L 1072.541896 378.742792 
L 1073.534602 381.376931 
L 1074.527308 399.229688 
L 1075.520014 397.381687 
L 1076.51272 373.564458 
L 1077.505426 407.963221 
L 1078.498132 396.358885 
L 1079.490838 388.41531 
L 1080.483544 391.207456 
L 1081.47625 376.091191 
L 1082.468956 380.652606 
L 1083.461662 368.770611 
L 1084.454368 364.11381 
L 1085.447073 392.688096 
L 1086.439779 413.07288 
L 1087.432485 365.392796 
L 1088.425191 382.367173 
L 1089.417897 381.260246 
L 1091.403309 371.099126 
L 1092.396015 377.449526 
L 1093.388721 376.507391 
L 1094.381427 383.460631 
L 1095.374133 443.914052 
L 1096.366839 391.269681 
L 1097.359545 431.375417 
L 1098.35225 377.256394 
L 1099.344956 400.101763 
L 1100.337662 377.771486 
L 1101.330368 395.917538 
L 1102.323074 380.310388 
L 1103.31578 384.69161 
L 1104.308486 381.628371 
L 1105.301192 397.016491 
L 1106.293898 390.558087 
L 1107.286604 408.299116 
L 1108.27931 373.872293 
L 1109.272016 366.441689 
L 1110.264722 382.332781 
L 1111.257428 381.780698 
L 1112.250133 397.447598 
L 1113.242839 372.81471 
L 1114.235545 393.494035 
L 1115.228251 379.174982 
L 1116.220957 419.170054 
L 1117.213663 374.33961 
L 1118.206369 358.131802 
L 1120.191781 418.00382 
L 1121.184487 377.177979 
L 1122.177193 373.923211 
L 1123.169899 388.735358 
L 1124.162605 409.220508 
L 1125.15531 374.566116 
L 1126.148016 400.728594 
L 1127.140722 412.566666 
L 1128.133428 369.677541 
L 1129.126134 358.545252 
L 1130.11884 370.945816 
L 1131.111546 402.66242 
L 1132.104252 377.024331 
L 1134.089664 369.484122 
L 1135.08237 372.053334 
L 1136.075076 380.563728 
L 1137.067782 391.624413 
L 1138.060487 364.147379 
L 1139.053193 393.441147 
L 1140.045899 446.341352 
L 1141.038605 394.997711 
L 1142.031311 389.759459 
L 1143.024017 373.112377 
L 1144.016723 378.640106 
L 1145.009429 385.248651 
L 1146.002135 397.864581 
L 1146.994841 389.383968 
L 1147.987547 360.258669 
L 1148.980253 394.090967 
L 1149.972959 363.183417 
L 1150.965664 384.83615 
L 1151.95837 359.074345 
L 1152.951076 389.377777 
L 1153.943782 386.322148 
L 1154.936488 410.270198 
L 1155.929194 368.95758 
L 1156.9219 374.490281 
L 1157.914606 444.441361 
L 1158.907312 385.458153 
L 1159.900018 360.259659 
L 1160.892724 365.561231 
L 1161.88543 361.638149 
L 1162.878136 389.307538 
L 1163.870841 386.393771 
L 1164.863547 390.398634 
L 1165.856253 416.988357 
L 1166.848959 378.73704 
L 1167.841665 412.000322 
L 1168.834371 369.515007 
L 1169.827077 373.534318 
L 1170.819783 385.500334 
L 1171.812489 356.8173 
L 1172.805195 377.21987 
L 1173.797901 386.14555 
L 1174.790607 392.231505 
L 1175.783313 387.528818 
L 1176.776019 373.149774 
L 1177.768724 391.078557 
L 1178.76143 375.162484 
L 1179.754136 384.616339 
L 1180.746842 371.674768 
L 1181.739548 383.597066 
L 1182.732254 409.383081 
L 1183.72496 377.565762 
L 1184.717666 374.427352 
L 1185.710372 374.083294 
L 1186.703078 397.117087 
L 1187.695784 377.560968 
L 1188.68849 374.632666 
L 1189.681196 396.960363 
L 1190.673901 437.060821 
L 1191.666607 382.897066 
L 1192.659313 374.144487 
L 1193.652019 399.322987 
L 1194.644725 373.185167 
L 1195.637431 379.764551 
L 1196.630137 400.897516 
L 1197.622843 472.208873 
L 1198.615549 374.054554 
L 1199.608255 416.985542 
L 1200.600961 409.097112 
L 1201.593667 393.161718 
L 1202.586373 368.91701 
L 1203.579078 374.298327 
L 1204.571784 392.658805 
L 1205.56449 378.528183 
L 1206.557196 416.837723 
L 1207.549902 429.996864 
L 1209.535314 378.182073 
L 1210.52802 404.490794 
L 1211.520726 386.016658 
L 1212.513432 382.840064 
L 1213.506138 432.650092 
L 1214.498844 374.15527 
L 1215.49155 378.078546 
L 1216.484255 384.020606 
L 1217.476961 365.9637 
L 1218.469667 433.575679 
L 1219.462373 386.319516 
L 1220.455079 375.848543 
L 1221.447785 355.933003 
L 1222.440491 389.012124 
L 1223.433197 392.139946 
L 1224.425903 381.919545 
L 1225.418609 416.685057 
L 1226.411315 371.333366 
L 1227.404021 393.035857 
L 1228.396727 386.407528 
L 1229.389432 385.497156 
L 1230.382138 369.228395 
L 1231.374844 394.730497 
L 1232.36755 370.910689 
L 1233.360256 386.552948 
L 1234.352962 371.721572 
L 1235.345668 390.290849 
L 1236.338374 383.705376 
L 1237.33108 392.224748 
L 1238.323786 373.207608 
L 1239.316492 398.277044 
L 1240.309198 385.32692 
L 1241.301904 377.275752 
L 1242.29461 378.512176 
L 1243.287315 354.432599 
L 1245.272727 404.537439 
L 1245.272727 404.537439 
" clip-path="url(#pb6a0aec20b)" style="fill: none; stroke: #1f77b4; stroke-width: 1.5; stroke-linecap: square"/>
   </g>
   <g id="patch_3">
    <path d="M 180 512.64 
L 180 69.12 
" style="fill: none; stroke: #000000; stroke-width: 0.8; stroke-linejoin: miter; stroke-linecap: square"/>
   </g>
   <g id="patch_4">
    <path d="M 1296 512.64 
L 1296 69.12 
" style="fill: none; stroke: #000000; stroke-width: 0.8; stroke-linejoin: miter; stroke-linecap: square"/>
   </g>
   <g id="patch_5">
    <path d="M 180 512.64 
L 1296 512.64 
" style="fill: none; stroke: #000000; stroke-width: 0.8; stroke-linejoin: miter; stroke-linecap: square"/>
   </g>
   <g id="patch_6">
    <path d="M 180 69.12 
L 1296 69.12 
" style="fill: none; stroke: #000000; stroke-width: 0.8; stroke-linejoin: miter; stroke-linecap: square"/>
   </g>
   <g id="text_14">
    <!-- source14-receiver23 -->
    <g transform="translate(532.175 60.80125) scale(0.4 -0.4)">
     <defs>
      <path id="DejaVuSans-73" d="M 2834 3397 
L 2834 2853 
Q 2591 2978 2328 3040 
Q 2066 3103 1784 3103 
Q 1356 3103 1142 2972 
Q 928 2841 928 2578 
Q 928 2378 1081 2264 
Q 1234 2150 1697 2047 
L 1894 2003 
Q 2506 1872 2764 1633 
Q 3022 1394 3022 966 
Q 3022 478 2636 193 
Q 2250 -91 1575 -91 
Q 1294 -91 989 -36 
Q 684 19 347 128 
L 347 722 
Q 666 556 975 473 
Q 1284 391 1588 391 
Q 1994 391 2212 530 
Q 2431 669 2431 922 
Q 2431 1156 2273 1281 
Q 2116 1406 1581 1522 
L 1381 1569 
Q 847 1681 609 1914 
Q 372 2147 372 2553 
Q 372 3047 722 3315 
Q 1072 3584 1716 3584 
Q 2034 3584 2315 3537 
Q 2597 3491 2834 3397 
z
" transform="scale(0.015625)"/>
      <path id="DejaVuSans-6f" d="M 1959 3097 
Q 1497 3097 1228 2736 
Q 959 2375 959 1747 
Q 959 1119 1226 758 
Q 1494 397 1959 397 
Q 2419 397 2687 759 
Q 2956 1122 2956 1747 
Q 2956 2369 2687 2733 
Q 2419 3097 1959 3097 
z
M 1959 3584 
Q 2709 3584 3137 3096 
Q 3566 2609 3566 1747 
Q 3566 888 3137 398 
Q 2709 -91 1959 -91 
Q 1206 -91 779 398 
Q 353 888 353 1747 
Q 353 2609 779 3096 
Q 1206 3584 1959 3584 
z
" transform="scale(0.015625)"/>
      <path id="DejaVuSans-75" d="M 544 1381 
L 544 3500 
L 1119 3500 
L 1119 1403 
Q 1119 906 1312 657 
Q 1506 409 1894 409 
Q 2359 409 2629 706 
Q 2900 1003 2900 1516 
L 2900 3500 
L 3475 3500 
L 3475 0 
L 2900 0 
L 2900 538 
Q 2691 219 2414 64 
Q 2138 -91 1772 -91 
Q 1169 -91 856 284 
Q 544 659 544 1381 
z
M 1991 3584 
L 1991 3584 
z
" transform="scale(0.015625)"/>
      <path id="DejaVuSans-72" d="M 2631 2963 
Q 2534 3019 2420 3045 
Q 2306 3072 2169 3072 
Q 1681 3072 1420 2755 
Q 1159 2438 1159 1844 
L 1159 0 
L 581 0 
L 581 3500 
L 1159 3500 
L 1159 2956 
Q 1341 3275 1631 3429 
Q 1922 3584 2338 3584 
Q 2397 3584 2469 3576 
Q 2541 3569 2628 3553 
L 2631 2963 
z
" transform="scale(0.015625)"/>
      <path id="DejaVuSans-63" d="M 3122 3366 
L 3122 2828 
Q 2878 2963 2633 3030 
Q 2388 3097 2138 3097 
Q 1578 3097 1268 2742 
Q 959 2388 959 1747 
Q 959 1106 1268 751 
Q 1578 397 2138 397 
Q 2388 397 2633 464 
Q 2878 531 3122 666 
L 3122 134 
Q 2881 22 2623 -34 
Q 2366 -91 2075 -91 
Q 1284 -91 818 406 
Q 353 903 353 1747 
Q 353 2603 823 3093 
Q 1294 3584 2113 3584 
Q 2378 3584 2631 3529 
Q 2884 3475 3122 3366 
z
" transform="scale(0.015625)"/>
      <path id="DejaVuSans-65" d="M 3597 1894 
L 3597 1613 
L 953 1613 
Q 991 1019 1311 708 
Q 1631 397 2203 397 
Q 2534 397 2845 478 
Q 3156 559 3463 722 
L 3463 178 
Q 3153 47 2828 -22 
Q 2503 -91 2169 -91 
Q 1331 -91 842 396 
Q 353 884 353 1716 
Q 353 2575 817 3079 
Q 1281 3584 2069 3584 
Q 2775 3584 3186 3129 
Q 3597 2675 3597 1894 
z
M 3022 2063 
Q 3016 2534 2758 2815 
Q 2500 3097 2075 3097 
Q 1594 3097 1305 2825 
Q 1016 2553 972 2059 
L 3022 2063 
z
" transform="scale(0.015625)"/>
      <path id="DejaVuSans-2d" d="M 313 2009 
L 1997 2009 
L 1997 1497 
L 313 1497 
L 313 2009 
z
" transform="scale(0.015625)"/>
      <path id="DejaVuSans-69" d="M 603 3500 
L 1178 3500 
L 1178 0 
L 603 0 
L 603 3500 
z
M 603 4863 
L 1178 4863 
L 1178 4134 
L 603 4134 
L 603 4863 
z
" transform="scale(0.015625)"/>
      <path id="DejaVuSans-76" d="M 191 3500 
L 800 3500 
L 1894 563 
L 2988 3500 
L 3597 3500 
L 2284 0 
L 1503 0 
L 191 3500 
z
" transform="scale(0.015625)"/>
      <path id="DejaVuSans-33" d="M 2597 2516 
Q 3050 2419 3304 2112 
Q 3559 1806 3559 1356 
Q 3559 666 3084 287 
Q 2609 -91 1734 -91 
Q 1441 -91 1130 -33 
Q 819 25 488 141 
L 488 750 
Q 750 597 1062 519 
Q 1375 441 1716 441 
Q 2309 441 2620 675 
Q 2931 909 2931 1356 
Q 2931 1769 2642 2001 
Q 2353 2234 1838 2234 
L 1294 2234 
L 1294 2753 
L 1863 2753 
Q 2328 2753 2575 2939 
Q 2822 3125 2822 3475 
Q 2822 3834 2567 4026 
Q 2313 4219 1838 4219 
Q 1578 4219 1281 4162 
Q 984 4106 628 3988 
L 628 4550 
Q 988 4650 1302 4700 
Q 1616 4750 1894 4750 
Q 2613 4750 3031 4423 
Q 3450 4097 3450 3541 
Q 3450 3153 3228 2886 
Q 3006 2619 2597 2516 
z
" transform="scale(0.015625)"/>
     </defs>
     <use xlink:href="#DejaVuSans-73"/>
     <use xlink:href="#DejaVuSans-6f" x="52.099609"/>
     <use xlink:href="#DejaVuSans-75" x="113.28125"/>
     <use xlink:href="#DejaVuSans-72" x="176.660156"/>
     <use xlink:href="#DejaVuSans-63" x="215.523438"/>
     <use xlink:href="#DejaVuSans-65" x="270.503906"/>
     <use xlink:href="#DejaVuSans-31" x="332.027344"/>
     <use xlink:href="#DejaVuSans-34" x="395.650391"/>
     <use xlink:href="#DejaVuSans-2d" x="459.273438"/>
     <use xlink:href="#DejaVuSans-72" x="495.357422"/>
     <use xlink:href="#DejaVuSans-65" x="534.220703"/>
     <use xlink:href="#DejaVuSans-63" x="595.744141"/>
     <use xlink:href="#DejaVuSans-65" x="650.724609"/>
     <use xlink:href="#DejaVuSans-69" x="712.248047"/>
     <use xlink:href="#DejaVuSans-76" x="740.03125"/>
     <use xlink:href="#DejaVuSans-65" x="799.210938"/>
     <use xlink:href="#DejaVuSans-72" x="860.734375"/>
     <use xlink:href="#DejaVuSans-32" x="901.847656"/>
     <use xlink:href="#DejaVuSans-33" x="965.470703"/>
    </g>
   </g>
  </g>
 </g>
 <defs>
  <clipPath id="pb6a0aec20b">
   <rect x="180" y="69.12" width="1116" height="443.52"/>
  </clipPath>
 </defs>
</svg>
