<?xml version="1.0" encoding="utf-8" standalone="no"?>
<!DOCTYPE svg PUBLIC "-//W3C//DTD SVG 1.1//EN"
  "http://www.w3.org/Graphics/SVG/1.1/DTD/svg11.dtd">
<svg xmlns:xlink="http://www.w3.org/1999/xlink" width="1440pt" height="576pt" viewBox="0 0 1440 576" xmlns="http://www.w3.org/2000/svg" version="1.1">
 <metadata>
  <rdf:RDF xmlns:dc="http://purl.org/dc/elements/1.1/" xmlns:cc="http://creativecommons.org/ns#" xmlns:rdf="http://www.w3.org/1999/02/22-rdf-syntax-ns#">
   <cc:Work>
    <dc:type rdf:resource="http://purl.org/dc/dcmitype/StillImage"/>
    <dc:date>2024-05-22T04:50:06.713999</dc:date>
    <dc:format>image/svg+xml</dc:format>
    <dc:creator>
     <cc:Agent>
      <dc:title>Matplotlib v3.8.3, https://matplotlib.org/</dc:title>
     </cc:Agent>
    </dc:creator>
   </cc:Work>
  </rdf:RDF>
 </metadata>
 <defs>
  <style type="text/css">*{stroke-linejoin: round; stroke-linecap: butt}</style>
 </defs>
 <g id="figure_1">
  <g id="patch_1">
   <path d="M 0 576 
L 1440 576 
L 1440 0 
L 0 0 
z
" style="fill: #ffffff"/>
  </g>
  <g id="axes_1">
   <g id="patch_2">
    <path d="M 180 512.64 
L 1296 512.64 
L 1296 69.12 
L 180 69.12 
z
" style="fill: #ffffff"/>
   </g>
   <g id="matplotlib.axis_1">
    <g id="xtick_1">
     <g id="line2d_1">
      <defs>
       <path id="md29df94873" d="M 0 0 
L 0 3.5 
" style="stroke: #000000; stroke-width: 0.8"/>
      </defs>
      <g>
       <use xlink:href="#md29df94873" x="229.734567" y="512.64" style="stroke: #000000; stroke-width: 0.8"/>
      </g>
     </g>
     <g id="text_1">
      <!-- 0 -->
      <g transform="translate(226.553317 527.238438) scale(0.1 -0.1)">
       <defs>
        <path id="DejaVuSans-30" d="M 2034 4250 
Q 1547 4250 1301 3770 
Q 1056 3291 1056 2328 
Q 1056 1369 1301 889 
Q 1547 409 2034 409 
Q 2525 409 2770 889 
Q 3016 1369 3016 2328 
Q 3016 3291 2770 3770 
Q 2525 4250 2034 4250 
z
M 2034 4750 
Q 2819 4750 3233 4129 
Q 3647 3509 3647 2328 
Q 3647 1150 3233 529 
Q 2819 -91 2034 -91 
Q 1250 -91 836 529 
Q 422 1150 422 2328 
Q 422 3509 836 4129 
Q 1250 4750 2034 4750 
z
" transform="scale(0.015625)"/>
       </defs>
       <use xlink:href="#DejaVuSans-30"/>
      </g>
     </g>
    </g>
    <g id="xtick_2">
     <g id="line2d_2">
      <g>
       <use xlink:href="#md29df94873" x="433.04074" y="512.64" style="stroke: #000000; stroke-width: 0.8"/>
      </g>
     </g>
     <g id="text_2">
      <!-- 500 -->
      <g transform="translate(423.49699 527.238438) scale(0.1 -0.1)">
       <defs>
        <path id="DejaVuSans-35" d="M 691 4666 
L 3169 4666 
L 3169 4134 
L 1269 4134 
L 1269 2991 
Q 1406 3038 1543 3061 
Q 1681 3084 1819 3084 
Q 2600 3084 3056 2656 
Q 3513 2228 3513 1497 
Q 3513 744 3044 326 
Q 2575 -91 1722 -91 
Q 1428 -91 1123 -41 
Q 819 9 494 109 
L 494 744 
Q 775 591 1075 516 
Q 1375 441 1709 441 
Q 2250 441 2565 725 
Q 2881 1009 2881 1497 
Q 2881 1984 2565 2268 
Q 2250 2553 1709 2553 
Q 1456 2553 1204 2497 
Q 953 2441 691 2322 
L 691 4666 
z
" transform="scale(0.015625)"/>
       </defs>
       <use xlink:href="#DejaVuSans-35"/>
       <use xlink:href="#DejaVuSans-30" x="63.623047"/>
       <use xlink:href="#DejaVuSans-30" x="127.246094"/>
      </g>
     </g>
    </g>
    <g id="xtick_3">
     <g id="line2d_3">
      <g>
       <use xlink:href="#md29df94873" x="636.346913" y="512.64" style="stroke: #000000; stroke-width: 0.8"/>
      </g>
     </g>
     <g id="text_3">
      <!-- 1000 -->
      <g transform="translate(623.621913 527.238438) scale(0.1 -0.1)">
       <defs>
        <path id="DejaVuSans-31" d="M 794 531 
L 1825 531 
L 1825 4091 
L 703 3866 
L 703 4441 
L 1819 4666 
L 2450 4666 
L 2450 531 
L 3481 531 
L 3481 0 
L 794 0 
L 794 531 
z
" transform="scale(0.015625)"/>
       </defs>
       <use xlink:href="#DejaVuSans-31"/>
       <use xlink:href="#DejaVuSans-30" x="63.623047"/>
       <use xlink:href="#DejaVuSans-30" x="127.246094"/>
       <use xlink:href="#DejaVuSans-30" x="190.869141"/>
      </g>
     </g>
    </g>
    <g id="xtick_4">
     <g id="line2d_4">
      <g>
       <use xlink:href="#md29df94873" x="839.653087" y="512.64" style="stroke: #000000; stroke-width: 0.8"/>
      </g>
     </g>
     <g id="text_4">
      <!-- 1500 -->
      <g transform="translate(826.928087 527.238438) scale(0.1 -0.1)">
       <use xlink:href="#DejaVuSans-31"/>
       <use xlink:href="#DejaVuSans-35" x="63.623047"/>
       <use xlink:href="#DejaVuSans-30" x="127.246094"/>
       <use xlink:href="#DejaVuSans-30" x="190.869141"/>
      </g>
     </g>
    </g>
    <g id="xtick_5">
     <g id="line2d_5">
      <g>
       <use xlink:href="#md29df94873" x="1042.95926" y="512.64" style="stroke: #000000; stroke-width: 0.8"/>
      </g>
     </g>
     <g id="text_5">
      <!-- 2000 -->
      <g transform="translate(1030.23426 527.238438) scale(0.1 -0.1)">
       <defs>
        <path id="DejaVuSans-32" d="M 1228 531 
L 3431 531 
L 3431 0 
L 469 0 
L 469 531 
Q 828 903 1448 1529 
Q 2069 2156 2228 2338 
Q 2531 2678 2651 2914 
Q 2772 3150 2772 3378 
Q 2772 3750 2511 3984 
Q 2250 4219 1831 4219 
Q 1534 4219 1204 4116 
Q 875 4013 500 3803 
L 500 4441 
Q 881 4594 1212 4672 
Q 1544 4750 1819 4750 
Q 2544 4750 2975 4387 
Q 3406 4025 3406 3419 
Q 3406 3131 3298 2873 
Q 3191 2616 2906 2266 
Q 2828 2175 2409 1742 
Q 1991 1309 1228 531 
z
" transform="scale(0.015625)"/>
       </defs>
       <use xlink:href="#DejaVuSans-32"/>
       <use xlink:href="#DejaVuSans-30" x="63.623047"/>
       <use xlink:href="#DejaVuSans-30" x="127.246094"/>
       <use xlink:href="#DejaVuSans-30" x="190.869141"/>
      </g>
     </g>
    </g>
    <g id="xtick_6">
     <g id="line2d_6">
      <g>
       <use xlink:href="#md29df94873" x="1246.265433" y="512.64" style="stroke: #000000; stroke-width: 0.8"/>
      </g>
     </g>
     <g id="text_6">
      <!-- 2500 -->
      <g transform="translate(1233.540433 527.238438) scale(0.1 -0.1)">
       <use xlink:href="#DejaVuSans-32"/>
       <use xlink:href="#DejaVuSans-35" x="63.623047"/>
       <use xlink:href="#DejaVuSans-30" x="127.246094"/>
       <use xlink:href="#DejaVuSans-30" x="190.869141"/>
      </g>
     </g>
    </g>
   </g>
   <g id="matplotlib.axis_2">
    <g id="ytick_1">
     <g id="line2d_7">
      <defs>
       <path id="m470079c726" d="M 0 0 
L -3.5 0 
" style="stroke: #000000; stroke-width: 0.8"/>
      </defs>
      <g>
       <use xlink:href="#m470079c726" x="180" y="504.84663" style="stroke: #000000; stroke-width: 0.8"/>
      </g>
     </g>
     <g id="text_7">
      <!-- −8 -->
      <g transform="translate(158.257812 508.645849) scale(0.1 -0.1)">
       <defs>
        <path id="DejaVuSans-2212" d="M 678 2272 
L 4684 2272 
L 4684 1741 
L 678 1741 
L 678 2272 
z
" transform="scale(0.015625)"/>
        <path id="DejaVuSans-38" d="M 2034 2216 
Q 1584 2216 1326 1975 
Q 1069 1734 1069 1313 
Q 1069 891 1326 650 
Q 1584 409 2034 409 
Q 2484 409 2743 651 
Q 3003 894 3003 1313 
Q 3003 1734 2745 1975 
Q 2488 2216 2034 2216 
z
M 1403 2484 
Q 997 2584 770 2862 
Q 544 3141 544 3541 
Q 544 4100 942 4425 
Q 1341 4750 2034 4750 
Q 2731 4750 3128 4425 
Q 3525 4100 3525 3541 
Q 3525 3141 3298 2862 
Q 3072 2584 2669 2484 
Q 3125 2378 3379 2068 
Q 3634 1759 3634 1313 
Q 3634 634 3220 271 
Q 2806 -91 2034 -91 
Q 1263 -91 848 271 
Q 434 634 434 1313 
Q 434 1759 690 2068 
Q 947 2378 1403 2484 
z
M 1172 3481 
Q 1172 3119 1398 2916 
Q 1625 2713 2034 2713 
Q 2441 2713 2670 2916 
Q 2900 3119 2900 3481 
Q 2900 3844 2670 4047 
Q 2441 4250 2034 4250 
Q 1625 4250 1398 4047 
Q 1172 3844 1172 3481 
z
" transform="scale(0.015625)"/>
       </defs>
       <use xlink:href="#DejaVuSans-2212"/>
       <use xlink:href="#DejaVuSans-38" x="83.789062"/>
      </g>
     </g>
    </g>
    <g id="ytick_2">
     <g id="line2d_8">
      <g>
       <use xlink:href="#m470079c726" x="180" y="437.239236" style="stroke: #000000; stroke-width: 0.8"/>
      </g>
     </g>
     <g id="text_8">
      <!-- −6 -->
      <g transform="translate(158.257812 441.038455) scale(0.1 -0.1)">
       <defs>
        <path id="DejaVuSans-36" d="M 2113 2584 
Q 1688 2584 1439 2293 
Q 1191 2003 1191 1497 
Q 1191 994 1439 701 
Q 1688 409 2113 409 
Q 2538 409 2786 701 
Q 3034 994 3034 1497 
Q 3034 2003 2786 2293 
Q 2538 2584 2113 2584 
z
M 3366 4563 
L 3366 3988 
Q 3128 4100 2886 4159 
Q 2644 4219 2406 4219 
Q 1781 4219 1451 3797 
Q 1122 3375 1075 2522 
Q 1259 2794 1537 2939 
Q 1816 3084 2150 3084 
Q 2853 3084 3261 2657 
Q 3669 2231 3669 1497 
Q 3669 778 3244 343 
Q 2819 -91 2113 -91 
Q 1303 -91 875 529 
Q 447 1150 447 2328 
Q 447 3434 972 4092 
Q 1497 4750 2381 4750 
Q 2619 4750 2861 4703 
Q 3103 4656 3366 4563 
z
" transform="scale(0.015625)"/>
       </defs>
       <use xlink:href="#DejaVuSans-2212"/>
       <use xlink:href="#DejaVuSans-36" x="83.789062"/>
      </g>
     </g>
    </g>
    <g id="ytick_3">
     <g id="line2d_9">
      <g>
       <use xlink:href="#m470079c726" x="180" y="369.631843" style="stroke: #000000; stroke-width: 0.8"/>
      </g>
     </g>
     <g id="text_9">
      <!-- −4 -->
      <g transform="translate(158.257812 373.431061) scale(0.1 -0.1)">
       <defs>
        <path id="DejaVuSans-34" d="M 2419 4116 
L 825 1625 
L 2419 1625 
L 2419 4116 
z
M 2253 4666 
L 3047 4666 
L 3047 1625 
L 3713 1625 
L 3713 1100 
L 3047 1100 
L 3047 0 
L 2419 0 
L 2419 1100 
L 313 1100 
L 313 1709 
L 2253 4666 
z
" transform="scale(0.015625)"/>
       </defs>
       <use xlink:href="#DejaVuSans-2212"/>
       <use xlink:href="#DejaVuSans-34" x="83.789062"/>
      </g>
     </g>
    </g>
    <g id="ytick_4">
     <g id="line2d_10">
      <g>
       <use xlink:href="#m470079c726" x="180" y="302.024449" style="stroke: #000000; stroke-width: 0.8"/>
      </g>
     </g>
     <g id="text_10">
      <!-- −2 -->
      <g transform="translate(158.257812 305.823668) scale(0.1 -0.1)">
       <use xlink:href="#DejaVuSans-2212"/>
       <use xlink:href="#DejaVuSans-32" x="83.789062"/>
      </g>
     </g>
    </g>
    <g id="ytick_5">
     <g id="line2d_11">
      <g>
       <use xlink:href="#m470079c726" x="180" y="234.417055" style="stroke: #000000; stroke-width: 0.8"/>
      </g>
     </g>
     <g id="text_11">
      <!-- 0 -->
      <g transform="translate(166.6375 238.216274) scale(0.1 -0.1)">
       <use xlink:href="#DejaVuSans-30"/>
      </g>
     </g>
    </g>
    <g id="ytick_6">
     <g id="line2d_12">
      <g>
       <use xlink:href="#m470079c726" x="180" y="166.809662" style="stroke: #000000; stroke-width: 0.8"/>
      </g>
     </g>
     <g id="text_12">
      <!-- 2 -->
      <g transform="translate(166.6375 170.608881) scale(0.1 -0.1)">
       <use xlink:href="#DejaVuSans-32"/>
      </g>
     </g>
    </g>
    <g id="ytick_7">
     <g id="line2d_13">
      <g>
       <use xlink:href="#m470079c726" x="180" y="99.202268" style="stroke: #000000; stroke-width: 0.8"/>
      </g>
     </g>
     <g id="text_13">
      <!-- 4 -->
      <g transform="translate(166.6375 103.001487) scale(0.1 -0.1)">
       <use xlink:href="#DejaVuSans-34"/>
      </g>
     </g>
    </g>
   </g>
   <g id="line2d_14">
    <path d="M 230.727273 268.459326 
L 231.719979 267.781643 
L 232.712685 266.885593 
L 233.70539 265.793606 
L 236.683508 260.334547 
L 238.66892 255.425569 
L 240.654332 249.493277 
L 243.63245 240.035966 
L 244.625156 234.919931 
L 245.617862 233.411175 
L 246.610568 227.935917 
L 247.603273 198.737244 
L 248.595979 185.37739 
L 249.588685 194.767117 
L 250.581391 179.351068 
L 251.574097 155.784633 
L 252.566803 152.493871 
L 253.559509 152.409657 
L 254.552215 147.852133 
L 255.544921 167.707611 
L 257.530333 132.635381 
L 258.523039 141.337577 
L 259.515745 175.084628 
L 260.50845 171.540626 
L 261.501156 141.172398 
L 262.493862 134.799838 
L 263.486568 161.599211 
L 264.479274 173.701324 
L 266.464686 128.142411 
L 267.457392 124.857206 
L 269.442804 184.610207 
L 271.428216 111.689214 
L 272.420922 105.294872 
L 273.413627 120.454039 
L 274.406333 142.682811 
L 275.399039 131.967743 
L 276.391745 109.913638 
L 277.384451 100.718808 
L 278.377157 104.591625 
L 279.369863 119.059545 
L 280.362569 124.050397 
L 281.355275 112.335266 
L 282.347981 113.031569 
L 283.340687 100.392085 
L 284.333393 89.28 
L 285.326099 99.961653 
L 286.318804 127.27193 
L 287.31151 97.485865 
L 288.304216 97.805148 
L 289.296922 113.771596 
L 290.289628 118.043028 
L 291.282334 134.967967 
L 292.27504 155.191082 
L 293.267746 158.173586 
L 294.260452 199.072586 
L 295.253158 166.11834 
L 296.245864 169.094695 
L 297.23857 165.182026 
L 298.231276 188.670669 
L 299.223981 185.675544 
L 300.216687 181.400646 
L 301.209393 172.387344 
L 302.202099 178.111352 
L 303.194805 198.151406 
L 304.187511 199.711391 
L 305.180217 233.431144 
L 306.172923 222.424862 
L 307.165629 229.421656 
L 308.158335 216.055218 
L 309.151041 245.806791 
L 310.143747 239.39473 
L 311.136453 250.84534 
L 312.129159 256.662894 
L 313.121864 255.79823 
L 314.11457 268.754937 
L 315.107276 270.470137 
L 316.099982 280.90302 
L 317.092688 277.451908 
L 318.085394 271.192359 
L 319.0781 270.448533 
L 320.070806 279.931554 
L 321.063512 275.719027 
L 322.056218 278.355201 
L 323.048924 278.181204 
L 324.04163 283.498479 
L 325.034336 279.476175 
L 326.027041 285.486667 
L 327.019747 282.044437 
L 328.012453 295.58173 
L 329.005159 286.401652 
L 329.997865 298.540317 
L 330.990571 280.238065 
L 331.983277 294.439444 
L 332.975983 283.837527 
L 333.968689 292.846599 
L 334.961395 282.282101 
L 335.954101 288.864713 
L 336.946807 286.070489 
L 337.939513 293.06443 
L 338.932218 291.383748 
L 339.924924 296.627627 
L 340.91763 291.957474 
L 341.910336 297.893162 
L 342.903042 345.441095 
L 343.895748 292.453981 
L 344.888454 306.034935 
L 345.88116 304.309373 
L 346.873866 301.033654 
L 347.866572 302.526323 
L 348.859278 302.086947 
L 349.851984 293.501219 
L 350.84469 319.903781 
L 351.837395 320.26996 
L 352.830101 299.740163 
L 353.822807 302.298152 
L 354.815513 304.06507 
L 355.808219 304.565862 
L 356.800925 313.42757 
L 357.793631 300.923432 
L 359.779043 320.021553 
L 360.771749 316.866266 
L 361.764455 320.927313 
L 362.757161 319.499899 
L 363.749867 343.39888 
L 364.742572 320.272055 
L 365.735278 361.82044 
L 366.727984 321.895167 
L 367.72069 308.882356 
L 368.713396 319.300967 
L 369.706102 303.657064 
L 370.698808 324.732323 
L 371.691514 313.449449 
L 372.68422 336.617411 
L 373.676926 307.893591 
L 374.669632 315.116196 
L 375.662338 328.723867 
L 376.655044 332.747644 
L 377.64775 328.143028 
L 378.640455 310.94757 
L 379.633161 377.942725 
L 380.625867 324.71814 
L 381.618573 322.186986 
L 382.611279 349.413403 
L 383.603985 325.9452 
L 384.596691 331.971077 
L 385.589397 325.437922 
L 386.582103 324.279279 
L 387.574809 315.302284 
L 388.567515 348.568396 
L 389.560221 360.327577 
L 390.552927 340.831234 
L 391.545632 335.090091 
L 392.538338 323.229825 
L 393.531044 327.791891 
L 394.52375 314.450584 
L 395.516456 324.62286 
L 396.509162 352.474217 
L 397.501868 339.009563 
L 398.494574 336.092277 
L 399.48728 331.866741 
L 400.479986 310.633249 
L 401.472692 331.841768 
L 402.465398 328.81117 
L 403.458104 321.562921 
L 404.450809 306.618346 
L 405.443515 333.127926 
L 406.436221 315.985907 
L 407.428927 326.785477 
L 408.421633 327.804017 
L 409.414339 317.314565 
L 410.407045 339.276568 
L 411.399751 372.13174 
L 413.385163 331.755883 
L 414.377869 338.888582 
L 415.370575 325.22139 
L 416.363281 314.664047 
L 417.355986 335.713526 
L 418.348692 349.679023 
L 419.341398 314.355019 
L 420.334104 327.05535 
L 421.32681 328.83292 
L 422.319516 324.725313 
L 423.312222 358.179594 
L 424.304928 345.038671 
L 425.297634 337.525119 
L 426.29034 345.830586 
L 427.283046 323.233813 
L 428.275752 349.042382 
L 429.268458 350.558517 
L 430.261163 348.493083 
L 431.253869 329.184719 
L 432.246575 373.638096 
L 433.239281 351.846244 
L 434.231987 340.560523 
L 435.224693 333.574327 
L 436.217399 353.868002 
L 437.210105 347.910103 
L 438.202811 338.302048 
L 439.195517 336.893376 
L 440.188223 354.214065 
L 441.180929 318.810467 
L 442.173635 329.296005 
L 443.166341 414.971191 
L 444.159046 324.34764 
L 445.151752 384.38981 
L 446.144458 331.253344 
L 447.137164 360.378807 
L 448.12987 396.92134 
L 449.122576 361.771293 
L 450.115282 333.068939 
L 451.107988 339.616933 
L 452.100694 341.022893 
L 453.0934 376.049901 
L 454.086106 372.648457 
L 455.078812 343.656592 
L 456.071518 394.575953 
L 457.064223 344.208024 
L 458.056929 344.501422 
L 459.049635 348.219509 
L 461.035047 374.429023 
L 462.027753 347.698612 
L 463.020459 355.926427 
L 464.013165 369.048233 
L 465.998577 327.799078 
L 466.991283 350.264628 
L 467.983989 346.877378 
L 468.976695 345.884063 
L 469.9694 339.693538 
L 470.962106 330.378298 
L 471.954812 352.673153 
L 472.947518 349.368164 
L 473.940224 352.229933 
L 474.93293 362.878504 
L 475.925636 349.651601 
L 476.918342 361.184147 
L 477.911048 418.134998 
L 478.903754 355.682885 
L 479.89646 336.661354 
L 480.889166 333.908739 
L 481.881872 332.199664 
L 482.874577 364.304365 
L 483.867283 362.353012 
L 484.859989 357.52915 
L 485.852695 345.559624 
L 486.845401 356.812805 
L 487.838107 340.171072 
L 488.830813 339.303429 
L 489.823519 353.566867 
L 490.816225 332.990508 
L 491.808931 352.139003 
L 492.801637 346.14921 
L 493.794343 367.905675 
L 494.787049 337.878344 
L 495.779754 367.53177 
L 496.77246 345.659206 
L 497.765166 363.494153 
L 498.757872 349.620268 
L 499.750578 357.629446 
L 500.743284 371.914824 
L 501.73599 330.106714 
L 502.728696 341.705289 
L 503.721402 344.311629 
L 504.714108 340.663262 
L 505.706814 422.225816 
L 506.69952 336.104855 
L 507.692226 364.303152 
L 508.684932 370.269438 
L 509.677637 336.333575 
L 510.670343 425.803663 
L 511.663049 344.186577 
L 512.655755 350.493577 
L 513.648461 352.944354 
L 514.641167 349.066511 
L 515.633873 385.698235 
L 516.626579 343.936633 
L 517.619285 374.097376 
L 519.604697 340.499444 
L 520.597403 333.525008 
L 521.590109 363.460459 
L 522.582814 415.678234 
L 523.57552 363.805998 
L 524.568226 425.134313 
L 525.560932 333.183143 
L 527.546344 390.562623 
L 528.53905 330.276555 
L 529.531756 339.523918 
L 530.524462 334.520065 
L 531.517168 347.479099 
L 532.509874 414.474566 
L 533.50258 352.789062 
L 534.495286 337.996474 
L 535.487991 396.999049 
L 536.480697 358.109751 
L 537.473403 367.565436 
L 538.466109 331.189729 
L 539.458815 342.280816 
L 540.451521 374.771726 
L 541.444227 324.039934 
L 542.436933 378.375319 
L 543.429639 378.095458 
L 544.422345 362.785761 
L 545.415051 330.156776 
L 546.407757 355.247241 
L 547.400463 364.916538 
L 548.393168 338.097873 
L 549.385874 350.640442 
L 550.37858 350.15721 
L 551.371286 348.670702 
L 552.363992 404.160858 
L 553.356698 325.972572 
L 554.349404 389.117851 
L 555.34211 369.322817 
L 556.334816 346.685199 
L 557.327522 393.870709 
L 558.320228 384.463855 
L 559.312934 389.865243 
L 560.30564 373.952718 
L 561.298345 392.324464 
L 562.291051 417.508903 
L 563.283757 337.546823 
L 564.276463 386.516206 
L 565.269169 328.646164 
L 566.261875 384.376501 
L 567.254581 378.924395 
L 568.247287 364.676645 
L 569.239993 390.168948 
L 570.232699 357.505169 
L 571.225405 369.298053 
L 572.218111 411.169746 
L 573.210817 353.584275 
L 574.203523 359.357511 
L 575.196228 342.051574 
L 576.188934 374.15662 
L 577.18164 323.914598 
L 578.174346 409.470855 
L 579.167052 395.257335 
L 580.159758 362.082104 
L 581.152464 364.371946 
L 582.14517 343.312404 
L 583.137876 358.234213 
L 584.130582 472.382208 
L 585.123288 370.7481 
L 586.115994 369.245885 
L 587.1087 345.912713 
L 588.101405 382.250736 
L 589.094111 383.665536 
L 590.086817 356.292149 
L 591.079523 346.794018 
L 592.072229 360.491886 
L 593.064935 342.306324 
L 594.057641 371.777307 
L 595.050347 370.043663 
L 596.043053 352.456982 
L 597.035759 361.979981 
L 598.028465 485.326407 
L 599.021171 339.403103 
L 600.013877 351.921781 
L 601.006582 391.654591 
L 601.999288 390.371855 
L 602.991994 358.642286 
L 603.9847 356.531089 
L 604.977406 356.053713 
L 605.970112 331.238037 
L 606.962818 349.501635 
L 607.955524 363.479715 
L 608.94823 391.56804 
L 609.940936 415.755722 
L 610.933642 368.338478 
L 611.926348 418.941128 
L 612.919054 343.430058 
L 613.911759 384.157701 
L 615.897171 352.085058 
L 616.889877 375.683507 
L 617.882583 371.349418 
L 618.875289 380.928314 
L 619.867995 456.767429 
L 620.860701 405.742239 
L 621.853407 412.181534 
L 622.846113 378.966909 
L 623.838819 365.218597 
L 624.831525 371.163887 
L 625.824231 356.961018 
L 626.816936 373.014856 
L 627.809642 405.712367 
L 628.802348 492.48 
L 629.795054 372.578599 
L 630.78776 397.887957 
L 631.780466 384.573403 
L 632.773172 368.941448 
L 633.765878 386.417541 
L 634.758584 373.271679 
L 635.75129 379.199547 
L 636.743996 366.139434 
L 637.736702 372.40113 
L 638.729408 475.379357 
L 639.722114 400.068704 
L 640.714819 387.800406 
L 641.707525 372.841753 
L 643.692937 379.664468 
L 644.685643 434.15008 
L 645.678349 402.426013 
L 646.671055 391.882147 
L 647.663761 391.952309 
L 648.656467 369.424889 
L 649.649173 408.518389 
L 650.641879 380.493586 
L 651.634585 382.842084 
L 652.627291 435.692217 
L 653.619996 378.883764 
L 654.612702 419.776064 
L 655.605408 410.42136 
L 656.598114 461.080427 
L 657.59082 405.038677 
L 658.583526 474.308458 
L 659.576232 392.108918 
L 660.568938 396.9161 
L 661.561644 427.981577 
L 662.55435 403.514424 
L 663.547056 440.126573 
L 664.539762 388.081106 
L 665.532468 399.262318 
L 666.525173 370.164648 
L 667.517879 391.355455 
L 668.510585 395.675104 
L 669.503291 397.194963 
L 670.495997 418.545377 
L 671.488703 398.558215 
L 672.481409 407.098314 
L 673.474115 384.917309 
L 674.466821 428.81327 
L 675.459527 419.17225 
L 676.452233 391.030204 
L 677.444939 390.957694 
L 678.437645 400.493145 
L 679.43035 396.231052 
L 680.423056 422.045808 
L 681.415762 404.91479 
L 682.408468 417.394027 
L 683.401174 404.872149 
L 684.39388 423.242001 
L 685.386586 383.353674 
L 686.379292 396.11907 
L 687.371998 395.802896 
L 688.364704 401.089428 
L 689.35741 401.531862 
L 690.350116 403.775598 
L 691.342822 392.118102 
L 692.335527 403.806532 
L 693.328233 424.202565 
L 694.320939 391.617851 
L 695.313645 431.652299 
L 696.306351 410.87757 
L 697.299057 395.375873 
L 698.291763 400.352505 
L 699.284469 414.210089 
L 700.277175 406.404862 
L 701.269881 405.997998 
L 702.262587 398.939827 
L 703.255293 397.332154 
L 704.247999 393.350756 
L 705.240705 410.10783 
L 706.23341 398.335511 
L 707.226116 398.04138 
L 708.218822 407.636657 
L 709.211528 406.126288 
L 710.204234 399.848976 
L 711.19694 401.300182 
L 712.189646 404.387428 
L 713.182352 413.279062 
L 714.175058 402.947854 
L 715.167764 395.349526 
L 716.16047 414.857146 
L 717.153176 395.910178 
L 718.145882 408.515709 
L 719.138587 409.570617 
L 720.131293 403.701613 
L 721.123999 411.742771 
L 722.116705 428.02326 
L 723.109411 404.946528 
L 724.102117 411.776498 
L 725.094823 405.327967 
L 726.087529 394.93556 
L 727.080235 401.787589 
L 728.072941 417.220925 
L 729.065647 393.106435 
L 730.058353 402.732341 
L 731.051059 407.509679 
L 732.043764 400.920412 
L 733.03647 424.456558 
L 734.029176 401.087134 
L 735.021882 412.497457 
L 736.014588 419.653751 
L 737.007294 409.976543 
L 738 403.50039 
L 738.992706 414.625218 
L 739.985412 413.618829 
L 740.978118 407.195336 
L 741.970824 398.028861 
L 742.96353 399.258101 
L 743.956236 406.145108 
L 744.948941 392.237544 
L 745.941647 409.707364 
L 746.934353 405.455166 
L 747.927059 403.690287 
L 748.919765 411.443041 
L 749.912471 425.750992 
L 750.905177 397.435817 
L 751.897883 409.930778 
L 752.890589 413.853844 
L 753.883295 414.179985 
L 754.876001 406.371774 
L 755.868707 412.358147 
L 756.861413 407.43524 
L 757.854118 404.114618 
L 758.846824 409.305236 
L 759.83953 418.808737 
L 760.832236 407.161112 
L 761.824942 416.60601 
L 762.817648 413.233049 
L 763.810354 410.743671 
L 764.80306 416.565036 
L 765.795766 412.24578 
L 766.788472 413.952427 
L 767.781178 419.234951 
L 768.773884 403.205292 
L 769.76659 414.096539 
L 770.759295 403.145519 
L 771.752001 413.64064 
L 772.744707 413.28511 
L 773.737413 399.21939 
L 774.730119 411.890019 
L 775.722825 410.550069 
L 776.715531 405.559211 
L 777.708237 409.633694 
L 778.700943 420.295037 
L 779.693649 409.039872 
L 780.686355 415.212219 
L 781.679061 407.888242 
L 782.671767 407.37854 
L 783.664473 413.851671 
L 784.657178 417.656044 
L 785.649884 404.011187 
L 786.64259 411.42713 
L 787.635296 408.423511 
L 788.628002 403.531759 
L 789.620708 419.132209 
L 790.613414 406.671466 
L 791.60612 411.014612 
L 792.598826 428.17335 
L 793.591532 409.333281 
L 794.584238 414.574362 
L 795.576944 401.386094 
L 796.56965 414.806707 
L 797.562355 406.162687 
L 798.555061 406.165197 
L 799.547767 406.025359 
L 800.540473 407.410589 
L 801.533179 405.034611 
L 802.525885 403.705644 
L 803.518591 412.332351 
L 804.511297 413.471962 
L 805.504003 419.740596 
L 806.496709 411.424424 
L 807.489415 410.56054 
L 808.482121 425.211195 
L 809.474827 412.524358 
L 810.467532 419.066226 
L 811.460238 415.008467 
L 812.452944 407.094855 
L 813.44565 412.532623 
L 814.438356 405.109006 
L 815.431062 417.498174 
L 816.423768 409.394127 
L 817.416474 419.049055 
L 818.40918 409.185792 
L 819.401886 407.645171 
L 820.394592 417.101014 
L 821.387298 412.662407 
L 822.380004 411.592562 
L 823.372709 422.317183 
L 824.365415 407.056991 
L 825.358121 414.459402 
L 826.350827 409.966559 
L 827.343533 416.522448 
L 828.336239 413.114955 
L 829.328945 413.166911 
L 830.321651 420.29704 
L 831.314357 419.970931 
L 832.307063 420.323772 
L 833.299769 408.149115 
L 834.292475 422.20349 
L 835.285181 420.656116 
L 836.277886 410.220624 
L 837.270592 408.080369 
L 838.263298 422.91779 
L 839.256004 422.939488 
L 840.24871 419.289175 
L 841.241416 406.947923 
L 842.234122 419.385203 
L 843.226828 414.370931 
L 845.21224 419.083843 
L 846.204946 420.514987 
L 847.197652 411.75928 
L 848.190358 410.926172 
L 849.183064 418.15642 
L 850.175769 411.697728 
L 851.168475 428.219228 
L 853.153887 409.305171 
L 854.146593 421.08148 
L 855.139299 407.291708 
L 856.132005 414.90484 
L 857.124711 420.437395 
L 858.117417 404.324329 
L 859.110123 407.668521 
L 860.102829 416.341676 
L 861.095535 415.290693 
L 862.088241 413.314523 
L 863.080946 416.699264 
L 864.073652 413.124626 
L 865.066358 420.446843 
L 866.059064 417.72168 
L 867.05177 422.878903 
L 868.044476 414.214376 
L 869.037182 409.220952 
L 870.029888 410.98246 
L 871.022594 437.601807 
L 872.0153 409.636301 
L 873.008006 419.74285 
L 874.000712 416.242624 
L 874.993418 418.836947 
L 876.978829 410.503034 
L 877.971535 419.674009 
L 878.964241 425.49323 
L 879.956947 429.24198 
L 880.949653 411.849573 
L 881.942359 415.959464 
L 882.935065 410.132439 
L 883.927771 420.876969 
L 884.920477 420.149064 
L 885.913183 426.452106 
L 886.905889 424.521733 
L 887.898595 413.00442 
L 888.8913 420.485756 
L 889.884006 416.886681 
L 890.876712 419.938928 
L 891.869418 424.101565 
L 892.862124 414.200145 
L 893.85483 419.720483 
L 894.847536 415.719566 
L 895.840242 436.392364 
L 896.832948 420.374529 
L 897.825654 420.997694 
L 898.81836 418.143676 
L 899.811066 409.139321 
L 900.803772 412.212578 
L 901.796477 417.59694 
L 902.789183 414.607422 
L 903.781889 425.746291 
L 904.774595 407.936727 
L 905.767301 426.774944 
L 906.760007 420.572072 
L 907.752713 413.605236 
L 908.745419 425.746831 
L 909.738125 410.396683 
L 911.723537 430.890102 
L 912.716243 428.713608 
L 913.708949 427.907503 
L 914.701655 418.210579 
L 915.69436 420.193486 
L 916.687066 424.455376 
L 917.679772 417.473498 
L 918.672478 419.509647 
L 919.665184 418.612508 
L 920.65789 417.402677 
L 921.650596 413.577202 
L 922.643302 407.428751 
L 923.636008 411.104203 
L 924.628714 424.452544 
L 925.62142 423.946407 
L 926.614126 422.348387 
L 927.606832 419.082592 
L 928.599537 426.701172 
L 929.592243 436.731892 
L 930.584949 413.45144 
L 931.577655 417.510407 
L 932.570361 426.556772 
L 933.563067 415.121759 
L 934.555773 445.296348 
L 935.548479 425.132782 
L 936.541185 415.037199 
L 937.533891 413.118264 
L 938.526597 422.902834 
L 939.519303 414.075554 
L 940.512009 418.869109 
L 941.504714 414.82949 
L 942.49742 425.449634 
L 943.490126 422.682612 
L 944.482832 415.905048 
L 945.475538 439.254763 
L 946.468244 429.814198 
L 947.46095 426.591923 
L 948.453656 418.772004 
L 949.446362 418.598073 
L 950.439068 416.063493 
L 951.431774 416.556225 
L 952.42448 427.037229 
L 953.417186 428.633959 
L 954.409891 434.755283 
L 955.402597 422.165519 
L 956.395303 430.415328 
L 957.388009 437.207775 
L 958.380715 415.805524 
L 959.373421 418.092881 
L 960.366127 429.631097 
L 961.358833 419.308703 
L 962.351539 429.402679 
L 963.344245 415.851082 
L 964.336951 426.833941 
L 965.329657 416.466936 
L 966.322363 414.574025 
L 967.315068 410.325064 
L 968.307774 425.671172 
L 969.30048 419.220624 
L 970.293186 427.703245 
L 971.285892 426.976006 
L 972.278598 428.599472 
L 973.271304 439.679227 
L 974.26401 421.96396 
L 975.256716 426.849332 
L 976.249422 427.083106 
L 977.242128 431.749635 
L 978.234834 414.529659 
L 979.22754 417.698664 
L 980.220246 431.025135 
L 981.212951 426.393741 
L 982.205657 428.103934 
L 983.198363 410.877972 
L 984.191069 420.534129 
L 985.183775 422.700325 
L 986.176481 413.299657 
L 987.169187 429.060524 
L 988.161893 424.731059 
L 989.154599 424.547311 
L 990.147305 420.944391 
L 991.140011 422.197539 
L 992.132717 417.314496 
L 993.125423 422.879419 
L 994.118128 427.15174 
L 995.110834 413.355583 
L 996.10354 422.686856 
L 997.096246 418.913079 
L 998.088952 425.320216 
L 999.081658 418.965057 
L 1000.074364 434.76959 
L 1001.06707 427.483532 
L 1002.059776 417.106305 
L 1003.052482 416.724925 
L 1004.045188 418.939637 
L 1005.037894 419.528267 
L 1006.0306 423.462749 
L 1007.023305 428.181848 
L 1008.016011 415.943386 
L 1009.008717 413.392298 
L 1010.001423 408.060427 
L 1010.994129 432.375869 
L 1011.986835 436.746356 
L 1012.979541 428.717267 
L 1013.972247 422.821532 
L 1014.964953 427.644446 
L 1015.957659 412.699042 
L 1016.950365 441.787863 
L 1017.943071 422.266094 
L 1018.935777 436.576781 
L 1019.928482 441.880703 
L 1020.921188 416.075323 
L 1021.913894 433.053983 
L 1022.9066 408.698045 
L 1023.899306 427.260817 
L 1024.892012 420.672706 
L 1025.884718 410.625687 
L 1026.877424 408.126002 
L 1027.87013 425.89963 
L 1028.862836 428.468644 
L 1029.855542 422.845993 
L 1030.848248 414.652185 
L 1031.840954 427.477043 
L 1032.833659 421.561939 
L 1033.826365 426.248445 
L 1034.819071 417.185659 
L 1035.811777 430.706934 
L 1036.804483 431.454876 
L 1037.797189 422.615591 
L 1038.789895 424.743635 
L 1039.782601 430.50486 
L 1040.775307 422.578393 
L 1041.768013 410.573015 
L 1042.760719 414.395265 
L 1043.753425 422.119038 
L 1044.746131 431.721576 
L 1045.738837 418.222664 
L 1046.731542 417.795312 
L 1047.724248 411.03427 
L 1048.716954 424.474941 
L 1049.70966 422.294701 
L 1050.702366 417.614814 
L 1051.695072 431.99343 
L 1052.687778 416.847652 
L 1053.680484 440.394742 
L 1054.67319 423.850459 
L 1055.665896 416.074507 
L 1056.658602 413.526506 
L 1057.651308 408.945498 
L 1058.644014 422.489311 
L 1059.636719 434.440299 
L 1060.629425 429.078943 
L 1061.622131 437.793938 
L 1062.614837 428.437909 
L 1063.607543 433.50071 
L 1064.600249 427.354812 
L 1065.592955 417.259285 
L 1066.585661 426.585975 
L 1067.578367 432.306443 
L 1068.571073 426.383297 
L 1069.563779 428.200709 
L 1070.556485 416.747749 
L 1071.549191 420.622502 
L 1072.541896 429.594589 
L 1073.534602 425.001089 
L 1074.527308 433.267536 
L 1075.520014 431.467563 
L 1076.51272 425.44523 
L 1077.505426 417.072772 
L 1078.498132 426.236398 
L 1079.490838 428.33128 
L 1080.483544 431.99439 
L 1081.47625 414.00867 
L 1082.468956 437.26356 
L 1083.461662 426.409039 
L 1084.454368 434.476446 
L 1085.447073 425.612206 
L 1086.439779 423.334129 
L 1087.432485 418.863999 
L 1088.425191 419.496249 
L 1089.417897 416.287641 
L 1090.410603 418.015748 
L 1091.403309 442.037381 
L 1092.396015 429.170614 
L 1093.388721 430.471042 
L 1094.381427 429.523178 
L 1095.374133 419.157013 
L 1096.366839 415.168996 
L 1097.359545 417.9338 
L 1099.344956 427.134987 
L 1100.337662 422.661537 
L 1101.330368 423.146713 
L 1102.323074 412.610764 
L 1103.31578 426.764603 
L 1104.308486 421.674947 
L 1105.301192 428.138519 
L 1106.293898 421.044032 
L 1107.286604 420.773015 
L 1108.27931 426.169567 
L 1109.272016 433.736937 
L 1110.264722 422.981155 
L 1111.257428 415.35568 
L 1112.250133 420.257086 
L 1113.242839 430.925794 
L 1114.235545 437.419523 
L 1115.228251 421.909379 
L 1116.220957 415.587303 
L 1117.213663 422.235057 
L 1119.199075 431.802006 
L 1120.191781 410.616856 
L 1121.184487 431.945937 
L 1122.177193 420.69718 
L 1123.169899 423.431863 
L 1124.162605 414.865563 
L 1125.15531 423.930823 
L 1126.148016 425.265644 
L 1127.140722 420.517042 
L 1128.133428 441.014185 
L 1130.11884 419.810451 
L 1131.111546 417.36532 
L 1132.104252 427.314522 
L 1133.096958 425.870728 
L 1134.089664 418.091317 
L 1135.08237 412.855708 
L 1136.075076 424.839106 
L 1137.067782 409.579012 
L 1138.060487 422.796607 
L 1139.053193 430.899097 
L 1140.045899 421.983159 
L 1141.038605 431.342818 
L 1142.031311 420.648018 
L 1143.024017 442.945966 
L 1144.016723 427.888049 
L 1145.009429 417.288131 
L 1146.002135 421.431838 
L 1146.994841 434.233805 
L 1147.987547 413.98552 
L 1148.980253 427.386938 
L 1149.972959 421.511194 
L 1150.965664 419.307752 
L 1152.951076 438.77161 
L 1153.943782 429.898721 
L 1154.936488 426.844899 
L 1155.929194 422.538546 
L 1156.9219 427.21519 
L 1157.914606 428.812842 
L 1158.907312 422.281913 
L 1159.900018 436.634752 
L 1161.88543 428.368198 
L 1162.878136 448.604825 
L 1163.870841 441.425229 
L 1164.863547 409.692026 
L 1165.856253 421.123768 
L 1166.848959 427.347657 
L 1167.841665 454.361176 
L 1168.834371 434.21521 
L 1169.827077 428.234292 
L 1170.819783 439.873266 
L 1171.812489 431.958358 
L 1172.805195 431.572601 
L 1173.797901 431.702884 
L 1174.790607 429.119392 
L 1175.783313 415.556871 
L 1176.776019 421.663635 
L 1177.768724 426.609951 
L 1178.76143 426.105885 
L 1179.754136 419.466148 
L 1180.746842 435.849459 
L 1181.739548 425.728983 
L 1182.732254 431.672438 
L 1183.72496 449.422223 
L 1184.717666 414.963739 
L 1185.710372 410.984692 
L 1186.703078 419.935827 
L 1187.695784 418.612782 
L 1188.68849 433.798961 
L 1189.681196 429.69357 
L 1190.673901 429.518385 
L 1191.666607 425.619469 
L 1192.659313 432.963974 
L 1193.652019 434.590308 
L 1194.644725 418.711866 
L 1195.637431 432.743822 
L 1196.630137 424.887023 
L 1197.622843 423.068471 
L 1198.615549 423.29087 
L 1199.608255 430.750239 
L 1200.600961 435.247676 
L 1201.593667 416.014857 
L 1202.586373 441.027949 
L 1203.579078 416.880432 
L 1204.571784 432.374648 
L 1206.557196 426.597343 
L 1207.549902 438.076545 
L 1208.542608 428.607927 
L 1209.535314 429.752175 
L 1210.52802 432.472626 
L 1211.520726 430.220286 
L 1212.513432 426.668543 
L 1213.506138 417.993832 
L 1215.49155 434.105535 
L 1216.484255 415.355256 
L 1217.476961 430.348919 
L 1218.469667 436.410006 
L 1219.462373 436.22467 
L 1220.455079 421.532432 
L 1221.447785 423.759639 
L 1222.440491 454.913346 
L 1223.433197 433.632313 
L 1224.425903 417.300565 
L 1225.418609 427.727297 
L 1226.411315 415.257695 
L 1227.404021 426.733256 
L 1228.396727 419.509427 
L 1229.389432 424.636202 
L 1230.382138 420.604703 
L 1231.374844 421.627587 
L 1232.36755 414.011028 
L 1233.360256 417.235601 
L 1234.352962 436.369687 
L 1235.345668 437.419474 
L 1236.338374 434.050796 
L 1237.33108 418.071959 
L 1238.323786 428.05764 
L 1239.316492 430.972533 
L 1240.309198 426.939873 
L 1241.301904 431.360637 
L 1242.29461 430.802472 
L 1243.287315 419.364812 
L 1244.280021 428.847087 
L 1245.272727 428.647935 
L 1245.272727 428.647935 
" clip-path="url(#ped64f7d66e)" style="fill: none; stroke: #1f77b4; stroke-width: 1.5; stroke-linecap: square"/>
   </g>
   <g id="patch_3">
    <path d="M 180 512.64 
L 180 69.12 
" style="fill: none; stroke: #000000; stroke-width: 0.8; stroke-linejoin: miter; stroke-linecap: square"/>
   </g>
   <g id="patch_4">
    <path d="M 1296 512.64 
L 1296 69.12 
" style="fill: none; stroke: #000000; stroke-width: 0.8; stroke-linejoin: miter; stroke-linecap: square"/>
   </g>
   <g id="patch_5">
    <path d="M 180 512.64 
L 1296 512.64 
" style="fill: none; stroke: #000000; stroke-width: 0.8; stroke-linejoin: miter; stroke-linecap: square"/>
   </g>
   <g id="patch_6">
    <path d="M 180 69.12 
L 1296 69.12 
" style="fill: none; stroke: #000000; stroke-width: 0.8; stroke-linejoin: miter; stroke-linecap: square"/>
   </g>
   <g id="text_14">
    <!-- source14-receiver20 -->
    <g transform="translate(532.175 60.80125) scale(0.4 -0.4)">
     <defs>
      <path id="DejaVuSans-73" d="M 2834 3397 
L 2834 2853 
Q 2591 2978 2328 3040 
Q 2066 3103 1784 3103 
Q 1356 3103 1142 2972 
Q 928 2841 928 2578 
Q 928 2378 1081 2264 
Q 1234 2150 1697 2047 
L 1894 2003 
Q 2506 1872 2764 1633 
Q 3022 1394 3022 966 
Q 3022 478 2636 193 
Q 2250 -91 1575 -91 
Q 1294 -91 989 -36 
Q 684 19 347 128 
L 347 722 
Q 666 556 975 473 
Q 1284 391 1588 391 
Q 1994 391 2212 530 
Q 2431 669 2431 922 
Q 2431 1156 2273 1281 
Q 2116 1406 1581 1522 
L 1381 1569 
Q 847 1681 609 1914 
Q 372 2147 372 2553 
Q 372 3047 722 3315 
Q 1072 3584 1716 3584 
Q 2034 3584 2315 3537 
Q 2597 3491 2834 3397 
z
" transform="scale(0.015625)"/>
      <path id="DejaVuSans-6f" d="M 1959 3097 
Q 1497 3097 1228 2736 
Q 959 2375 959 1747 
Q 959 1119 1226 758 
Q 1494 397 1959 397 
Q 2419 397 2687 759 
Q 2956 1122 2956 1747 
Q 2956 2369 2687 2733 
Q 2419 3097 1959 3097 
z
M 1959 3584 
Q 2709 3584 3137 3096 
Q 3566 2609 3566 1747 
Q 3566 888 3137 398 
Q 2709 -91 1959 -91 
Q 1206 -91 779 398 
Q 353 888 353 1747 
Q 353 2609 779 3096 
Q 1206 3584 1959 3584 
z
" transform="scale(0.015625)"/>
      <path id="DejaVuSans-75" d="M 544 1381 
L 544 3500 
L 1119 3500 
L 1119 1403 
Q 1119 906 1312 657 
Q 1506 409 1894 409 
Q 2359 409 2629 706 
Q 2900 1003 2900 1516 
L 2900 3500 
L 3475 3500 
L 3475 0 
L 2900 0 
L 2900 538 
Q 2691 219 2414 64 
Q 2138 -91 1772 -91 
Q 1169 -91 856 284 
Q 544 659 544 1381 
z
M 1991 3584 
L 1991 3584 
z
" transform="scale(0.015625)"/>
      <path id="DejaVuSans-72" d="M 2631 2963 
Q 2534 3019 2420 3045 
Q 2306 3072 2169 3072 
Q 1681 3072 1420 2755 
Q 1159 2438 1159 1844 
L 1159 0 
L 581 0 
L 581 3500 
L 1159 3500 
L 1159 2956 
Q 1341 3275 1631 3429 
Q 1922 3584 2338 3584 
Q 2397 3584 2469 3576 
Q 2541 3569 2628 3553 
L 2631 2963 
z
" transform="scale(0.015625)"/>
      <path id="DejaVuSans-63" d="M 3122 3366 
L 3122 2828 
Q 2878 2963 2633 3030 
Q 2388 3097 2138 3097 
Q 1578 3097 1268 2742 
Q 959 2388 959 1747 
Q 959 1106 1268 751 
Q 1578 397 2138 397 
Q 2388 397 2633 464 
Q 2878 531 3122 666 
L 3122 134 
Q 2881 22 2623 -34 
Q 2366 -91 2075 -91 
Q 1284 -91 818 406 
Q 353 903 353 1747 
Q 353 2603 823 3093 
Q 1294 3584 2113 3584 
Q 2378 3584 2631 3529 
Q 2884 3475 3122 3366 
z
" transform="scale(0.015625)"/>
      <path id="DejaVuSans-65" d="M 3597 1894 
L 3597 1613 
L 953 1613 
Q 991 1019 1311 708 
Q 1631 397 2203 397 
Q 2534 397 2845 478 
Q 3156 559 3463 722 
L 3463 178 
Q 3153 47 2828 -22 
Q 2503 -91 2169 -91 
Q 1331 -91 842 396 
Q 353 884 353 1716 
Q 353 2575 817 3079 
Q 1281 3584 2069 3584 
Q 2775 3584 3186 3129 
Q 3597 2675 3597 1894 
z
M 3022 2063 
Q 3016 2534 2758 2815 
Q 2500 3097 2075 3097 
Q 1594 3097 1305 2825 
Q 1016 2553 972 2059 
L 3022 2063 
z
" transform="scale(0.015625)"/>
      <path id="DejaVuSans-2d" d="M 313 2009 
L 1997 2009 
L 1997 1497 
L 313 1497 
L 313 2009 
z
" transform="scale(0.015625)"/>
      <path id="DejaVuSans-69" d="M 603 3500 
L 1178 3500 
L 1178 0 
L 603 0 
L 603 3500 
z
M 603 4863 
L 1178 4863 
L 1178 4134 
L 603 4134 
L 603 4863 
z
" transform="scale(0.015625)"/>
      <path id="DejaVuSans-76" d="M 191 3500 
L 800 3500 
L 1894 563 
L 2988 3500 
L 3597 3500 
L 2284 0 
L 1503 0 
L 191 3500 
z
" transform="scale(0.015625)"/>
     </defs>
     <use xlink:href="#DejaVuSans-73"/>
     <use xlink:href="#DejaVuSans-6f" x="52.099609"/>
     <use xlink:href="#DejaVuSans-75" x="113.28125"/>
     <use xlink:href="#DejaVuSans-72" x="176.660156"/>
     <use xlink:href="#DejaVuSans-63" x="215.523438"/>
     <use xlink:href="#DejaVuSans-65" x="270.503906"/>
     <use xlink:href="#DejaVuSans-31" x="332.027344"/>
     <use xlink:href="#DejaVuSans-34" x="395.650391"/>
     <use xlink:href="#DejaVuSans-2d" x="459.273438"/>
     <use xlink:href="#DejaVuSans-72" x="495.357422"/>
     <use xlink:href="#DejaVuSans-65" x="534.220703"/>
     <use xlink:href="#DejaVuSans-63" x="595.744141"/>
     <use xlink:href="#DejaVuSans-65" x="650.724609"/>
     <use xlink:href="#DejaVuSans-69" x="712.248047"/>
     <use xlink:href="#DejaVuSans-76" x="740.03125"/>
     <use xlink:href="#DejaVuSans-65" x="799.210938"/>
     <use xlink:href="#DejaVuSans-72" x="860.734375"/>
     <use xlink:href="#DejaVuSans-32" x="901.847656"/>
     <use xlink:href="#DejaVuSans-30" x="965.470703"/>
    </g>
   </g>
  </g>
 </g>
 <defs>
  <clipPath id="ped64f7d66e">
   <rect x="180" y="69.12" width="1116" height="443.52"/>
  </clipPath>
 </defs>
</svg>
