<?xml version="1.0" encoding="utf-8" standalone="no"?>
<!DOCTYPE svg PUBLIC "-//W3C//DTD SVG 1.1//EN"
  "http://www.w3.org/Graphics/SVG/1.1/DTD/svg11.dtd">
<svg xmlns:xlink="http://www.w3.org/1999/xlink" width="1440pt" height="576pt" viewBox="0 0 1440 576" xmlns="http://www.w3.org/2000/svg" version="1.1">
 <metadata>
  <rdf:RDF xmlns:dc="http://purl.org/dc/elements/1.1/" xmlns:cc="http://creativecommons.org/ns#" xmlns:rdf="http://www.w3.org/1999/02/22-rdf-syntax-ns#">
   <cc:Work>
    <dc:type rdf:resource="http://purl.org/dc/dcmitype/StillImage"/>
    <dc:date>2024-05-22T04:50:05.251509</dc:date>
    <dc:format>image/svg+xml</dc:format>
    <dc:creator>
     <cc:Agent>
      <dc:title>Matplotlib v3.8.3, https://matplotlib.org/</dc:title>
     </cc:Agent>
    </dc:creator>
   </cc:Work>
  </rdf:RDF>
 </metadata>
 <defs>
  <style type="text/css">*{stroke-linejoin: round; stroke-linecap: butt}</style>
 </defs>
 <g id="figure_1">
  <g id="patch_1">
   <path d="M 0 576 
L 1440 576 
L 1440 0 
L 0 0 
z
" style="fill: #ffffff"/>
  </g>
  <g id="axes_1">
   <g id="patch_2">
    <path d="M 180 512.64 
L 1296 512.64 
L 1296 69.12 
L 180 69.12 
z
" style="fill: #ffffff"/>
   </g>
   <g id="matplotlib.axis_1">
    <g id="xtick_1">
     <g id="line2d_1">
      <defs>
       <path id="m4a37933af3" d="M 0 0 
L 0 3.5 
" style="stroke: #000000; stroke-width: 0.8"/>
      </defs>
      <g>
       <use xlink:href="#m4a37933af3" x="229.734567" y="512.64" style="stroke: #000000; stroke-width: 0.8"/>
      </g>
     </g>
     <g id="text_1">
      <!-- 0 -->
      <g transform="translate(226.553317 527.238438) scale(0.1 -0.1)">
       <defs>
        <path id="DejaVuSans-30" d="M 2034 4250 
Q 1547 4250 1301 3770 
Q 1056 3291 1056 2328 
Q 1056 1369 1301 889 
Q 1547 409 2034 409 
Q 2525 409 2770 889 
Q 3016 1369 3016 2328 
Q 3016 3291 2770 3770 
Q 2525 4250 2034 4250 
z
M 2034 4750 
Q 2819 4750 3233 4129 
Q 3647 3509 3647 2328 
Q 3647 1150 3233 529 
Q 2819 -91 2034 -91 
Q 1250 -91 836 529 
Q 422 1150 422 2328 
Q 422 3509 836 4129 
Q 1250 4750 2034 4750 
z
" transform="scale(0.015625)"/>
       </defs>
       <use xlink:href="#DejaVuSans-30"/>
      </g>
     </g>
    </g>
    <g id="xtick_2">
     <g id="line2d_2">
      <g>
       <use xlink:href="#m4a37933af3" x="433.04074" y="512.64" style="stroke: #000000; stroke-width: 0.8"/>
      </g>
     </g>
     <g id="text_2">
      <!-- 500 -->
      <g transform="translate(423.49699 527.238438) scale(0.1 -0.1)">
       <defs>
        <path id="DejaVuSans-35" d="M 691 4666 
L 3169 4666 
L 3169 4134 
L 1269 4134 
L 1269 2991 
Q 1406 3038 1543 3061 
Q 1681 3084 1819 3084 
Q 2600 3084 3056 2656 
Q 3513 2228 3513 1497 
Q 3513 744 3044 326 
Q 2575 -91 1722 -91 
Q 1428 -91 1123 -41 
Q 819 9 494 109 
L 494 744 
Q 775 591 1075 516 
Q 1375 441 1709 441 
Q 2250 441 2565 725 
Q 2881 1009 2881 1497 
Q 2881 1984 2565 2268 
Q 2250 2553 1709 2553 
Q 1456 2553 1204 2497 
Q 953 2441 691 2322 
L 691 4666 
z
" transform="scale(0.015625)"/>
       </defs>
       <use xlink:href="#DejaVuSans-35"/>
       <use xlink:href="#DejaVuSans-30" x="63.623047"/>
       <use xlink:href="#DejaVuSans-30" x="127.246094"/>
      </g>
     </g>
    </g>
    <g id="xtick_3">
     <g id="line2d_3">
      <g>
       <use xlink:href="#m4a37933af3" x="636.346913" y="512.64" style="stroke: #000000; stroke-width: 0.8"/>
      </g>
     </g>
     <g id="text_3">
      <!-- 1000 -->
      <g transform="translate(623.621913 527.238438) scale(0.1 -0.1)">
       <defs>
        <path id="DejaVuSans-31" d="M 794 531 
L 1825 531 
L 1825 4091 
L 703 3866 
L 703 4441 
L 1819 4666 
L 2450 4666 
L 2450 531 
L 3481 531 
L 3481 0 
L 794 0 
L 794 531 
z
" transform="scale(0.015625)"/>
       </defs>
       <use xlink:href="#DejaVuSans-31"/>
       <use xlink:href="#DejaVuSans-30" x="63.623047"/>
       <use xlink:href="#DejaVuSans-30" x="127.246094"/>
       <use xlink:href="#DejaVuSans-30" x="190.869141"/>
      </g>
     </g>
    </g>
    <g id="xtick_4">
     <g id="line2d_4">
      <g>
       <use xlink:href="#m4a37933af3" x="839.653087" y="512.64" style="stroke: #000000; stroke-width: 0.8"/>
      </g>
     </g>
     <g id="text_4">
      <!-- 1500 -->
      <g transform="translate(826.928087 527.238438) scale(0.1 -0.1)">
       <use xlink:href="#DejaVuSans-31"/>
       <use xlink:href="#DejaVuSans-35" x="63.623047"/>
       <use xlink:href="#DejaVuSans-30" x="127.246094"/>
       <use xlink:href="#DejaVuSans-30" x="190.869141"/>
      </g>
     </g>
    </g>
    <g id="xtick_5">
     <g id="line2d_5">
      <g>
       <use xlink:href="#m4a37933af3" x="1042.95926" y="512.64" style="stroke: #000000; stroke-width: 0.8"/>
      </g>
     </g>
     <g id="text_5">
      <!-- 2000 -->
      <g transform="translate(1030.23426 527.238438) scale(0.1 -0.1)">
       <defs>
        <path id="DejaVuSans-32" d="M 1228 531 
L 3431 531 
L 3431 0 
L 469 0 
L 469 531 
Q 828 903 1448 1529 
Q 2069 2156 2228 2338 
Q 2531 2678 2651 2914 
Q 2772 3150 2772 3378 
Q 2772 3750 2511 3984 
Q 2250 4219 1831 4219 
Q 1534 4219 1204 4116 
Q 875 4013 500 3803 
L 500 4441 
Q 881 4594 1212 4672 
Q 1544 4750 1819 4750 
Q 2544 4750 2975 4387 
Q 3406 4025 3406 3419 
Q 3406 3131 3298 2873 
Q 3191 2616 2906 2266 
Q 2828 2175 2409 1742 
Q 1991 1309 1228 531 
z
" transform="scale(0.015625)"/>
       </defs>
       <use xlink:href="#DejaVuSans-32"/>
       <use xlink:href="#DejaVuSans-30" x="63.623047"/>
       <use xlink:href="#DejaVuSans-30" x="127.246094"/>
       <use xlink:href="#DejaVuSans-30" x="190.869141"/>
      </g>
     </g>
    </g>
    <g id="xtick_6">
     <g id="line2d_6">
      <g>
       <use xlink:href="#m4a37933af3" x="1246.265433" y="512.64" style="stroke: #000000; stroke-width: 0.8"/>
      </g>
     </g>
     <g id="text_6">
      <!-- 2500 -->
      <g transform="translate(1233.540433 527.238438) scale(0.1 -0.1)">
       <use xlink:href="#DejaVuSans-32"/>
       <use xlink:href="#DejaVuSans-35" x="63.623047"/>
       <use xlink:href="#DejaVuSans-30" x="127.246094"/>
       <use xlink:href="#DejaVuSans-30" x="190.869141"/>
      </g>
     </g>
    </g>
   </g>
   <g id="matplotlib.axis_2">
    <g id="ytick_1">
     <g id="line2d_7">
      <defs>
       <path id="mc2ff15b224" d="M 0 0 
L -3.5 0 
" style="stroke: #000000; stroke-width: 0.8"/>
      </defs>
      <g>
       <use xlink:href="#mc2ff15b224" x="180" y="479.636377" style="stroke: #000000; stroke-width: 0.8"/>
      </g>
     </g>
     <g id="text_7">
      <!-- −3 -->
      <g transform="translate(158.257812 483.435596) scale(0.1 -0.1)">
       <defs>
        <path id="DejaVuSans-2212" d="M 678 2272 
L 4684 2272 
L 4684 1741 
L 678 1741 
L 678 2272 
z
" transform="scale(0.015625)"/>
        <path id="DejaVuSans-33" d="M 2597 2516 
Q 3050 2419 3304 2112 
Q 3559 1806 3559 1356 
Q 3559 666 3084 287 
Q 2609 -91 1734 -91 
Q 1441 -91 1130 -33 
Q 819 25 488 141 
L 488 750 
Q 750 597 1062 519 
Q 1375 441 1716 441 
Q 2309 441 2620 675 
Q 2931 909 2931 1356 
Q 2931 1769 2642 2001 
Q 2353 2234 1838 2234 
L 1294 2234 
L 1294 2753 
L 1863 2753 
Q 2328 2753 2575 2939 
Q 2822 3125 2822 3475 
Q 2822 3834 2567 4026 
Q 2313 4219 1838 4219 
Q 1578 4219 1281 4162 
Q 984 4106 628 3988 
L 628 4550 
Q 988 4650 1302 4700 
Q 1616 4750 1894 4750 
Q 2613 4750 3031 4423 
Q 3450 4097 3450 3541 
Q 3450 3153 3228 2886 
Q 3006 2619 2597 2516 
z
" transform="scale(0.015625)"/>
       </defs>
       <use xlink:href="#DejaVuSans-2212"/>
       <use xlink:href="#DejaVuSans-33" x="83.789062"/>
      </g>
     </g>
    </g>
    <g id="ytick_2">
     <g id="line2d_8">
      <g>
       <use xlink:href="#mc2ff15b224" x="180" y="420.430151" style="stroke: #000000; stroke-width: 0.8"/>
      </g>
     </g>
     <g id="text_8">
      <!-- −2 -->
      <g transform="translate(158.257812 424.22937) scale(0.1 -0.1)">
       <use xlink:href="#DejaVuSans-2212"/>
       <use xlink:href="#DejaVuSans-32" x="83.789062"/>
      </g>
     </g>
    </g>
    <g id="ytick_3">
     <g id="line2d_9">
      <g>
       <use xlink:href="#mc2ff15b224" x="180" y="361.223924" style="stroke: #000000; stroke-width: 0.8"/>
      </g>
     </g>
     <g id="text_9">
      <!-- −1 -->
      <g transform="translate(158.257812 365.023143) scale(0.1 -0.1)">
       <use xlink:href="#DejaVuSans-2212"/>
       <use xlink:href="#DejaVuSans-31" x="83.789062"/>
      </g>
     </g>
    </g>
    <g id="ytick_4">
     <g id="line2d_10">
      <g>
       <use xlink:href="#mc2ff15b224" x="180" y="302.017698" style="stroke: #000000; stroke-width: 0.8"/>
      </g>
     </g>
     <g id="text_10">
      <!-- 0 -->
      <g transform="translate(166.6375 305.816916) scale(0.1 -0.1)">
       <use xlink:href="#DejaVuSans-30"/>
      </g>
     </g>
    </g>
    <g id="ytick_5">
     <g id="line2d_11">
      <g>
       <use xlink:href="#mc2ff15b224" x="180" y="242.811471" style="stroke: #000000; stroke-width: 0.8"/>
      </g>
     </g>
     <g id="text_11">
      <!-- 1 -->
      <g transform="translate(166.6375 246.61069) scale(0.1 -0.1)">
       <use xlink:href="#DejaVuSans-31"/>
      </g>
     </g>
    </g>
    <g id="ytick_6">
     <g id="line2d_12">
      <g>
       <use xlink:href="#mc2ff15b224" x="180" y="183.605244" style="stroke: #000000; stroke-width: 0.8"/>
      </g>
     </g>
     <g id="text_12">
      <!-- 2 -->
      <g transform="translate(166.6375 187.404463) scale(0.1 -0.1)">
       <use xlink:href="#DejaVuSans-32"/>
      </g>
     </g>
    </g>
    <g id="ytick_7">
     <g id="line2d_13">
      <g>
       <use xlink:href="#mc2ff15b224" x="180" y="124.399018" style="stroke: #000000; stroke-width: 0.8"/>
      </g>
     </g>
     <g id="text_13">
      <!-- 3 -->
      <g transform="translate(166.6375 128.198236) scale(0.1 -0.1)">
       <use xlink:href="#DejaVuSans-33"/>
      </g>
     </g>
    </g>
   </g>
   <g id="line2d_14">
    <path d="M 230.727273 449.800029 
L 233.70539 436.681058 
L 234.698096 430.528948 
L 235.690802 425.074855 
L 237.676214 410.11487 
L 238.66892 405.070252 
L 239.661626 398.742748 
L 241.647038 387.552185 
L 242.639744 381.261618 
L 243.63245 377.871053 
L 244.625156 369.06258 
L 245.617862 357.102429 
L 246.610568 375.937371 
L 247.603273 356.508042 
L 248.595979 271.884416 
L 249.588685 235.508467 
L 251.574097 209.85332 
L 252.566803 182.754234 
L 253.559509 166.683086 
L 254.552215 173.130453 
L 255.544921 223.477655 
L 256.537627 200.974451 
L 257.530333 147.635968 
L 258.523039 124.882881 
L 259.515745 119.226235 
L 260.50845 132.443836 
L 261.501156 165.991479 
L 263.486568 143.27144 
L 264.479274 166.193788 
L 265.47198 224.900811 
L 266.464686 223.476634 
L 267.457392 270.043091 
L 268.450098 193.06865 
L 269.442804 186.277899 
L 270.43551 241.056126 
L 271.428216 181.144923 
L 272.420922 175.831672 
L 273.413627 225.548881 
L 274.406333 174.232428 
L 275.399039 159.881583 
L 276.391745 155.787245 
L 277.384451 138.055793 
L 278.377157 143.834291 
L 279.369863 148.51758 
L 280.362569 111.644669 
L 281.355275 100.704921 
L 282.347981 116.188641 
L 283.340687 115.016148 
L 284.333393 91.55423 
L 285.326099 90.656559 
L 286.318804 102.093631 
L 287.31151 93.34116 
L 288.304216 89.28 
L 289.296922 110.412683 
L 290.289628 146.511544 
L 291.282334 147.532659 
L 293.267746 191.421377 
L 294.260452 177.953704 
L 296.245864 238.183942 
L 297.23857 240.729981 
L 298.231276 366.267877 
L 299.223981 257.900407 
L 300.216687 286.736843 
L 301.209393 299.029705 
L 302.202099 284.61098 
L 303.194805 382.644534 
L 304.187511 283.154095 
L 305.180217 310.604063 
L 306.172923 320.042119 
L 307.165629 292.423798 
L 308.158335 345.087265 
L 309.151041 330.720453 
L 310.143747 327.102175 
L 311.136453 338.32894 
L 312.129159 335.919397 
L 313.121864 350.708264 
L 314.11457 334.693894 
L 315.107276 338.678447 
L 316.099982 345.683344 
L 317.092688 350.938168 
L 318.085394 349.459737 
L 319.0781 341.819203 
L 320.070806 354.341466 
L 321.063512 340.464851 
L 322.056218 349.840174 
L 323.048924 348.464272 
L 324.04163 357.150916 
L 325.034336 361.68503 
L 326.027041 354.526495 
L 327.019747 358.074437 
L 328.012453 356.844657 
L 329.005159 366.018797 
L 329.997865 355.395684 
L 330.990571 362.950102 
L 331.983277 361.850081 
L 332.975983 365.678597 
L 333.968689 368.468994 
L 334.961395 361.426491 
L 335.954101 356.310129 
L 336.946807 369.413092 
L 337.939513 365.203468 
L 338.932218 364.220801 
L 339.924924 373.018964 
L 340.91763 373.528273 
L 341.910336 368.366665 
L 342.903042 370.695673 
L 343.895748 367.083035 
L 344.888454 370.038998 
L 345.88116 377.453645 
L 346.873866 367.690488 
L 347.866572 378.026265 
L 348.859278 373.139887 
L 349.851984 367.21057 
L 350.84469 387.790531 
L 351.837395 372.786383 
L 352.830101 382.218901 
L 353.822807 378.442511 
L 354.815513 383.966418 
L 355.808219 385.345814 
L 356.800925 375.083785 
L 357.793631 386.337356 
L 358.786337 379.164558 
L 359.779043 392.063901 
L 360.771749 384.891384 
L 361.764455 376.363288 
L 362.757161 380.503784 
L 363.749867 383.087743 
L 364.742572 381.433339 
L 365.735278 380.647398 
L 366.727984 383.605583 
L 367.72069 376.090216 
L 368.713396 377.965351 
L 369.706102 400.548562 
L 371.691514 382.826746 
L 372.68422 393.379388 
L 373.676926 389.608344 
L 374.669632 398.354191 
L 375.662338 387.754026 
L 376.655044 390.288637 
L 377.64775 398.316804 
L 378.640455 387.104521 
L 379.633161 389.773826 
L 380.625867 400.484021 
L 381.618573 388.420722 
L 382.611279 382.94722 
L 383.603985 397.277676 
L 384.596691 398.35149 
L 386.582103 392.556583 
L 387.574809 395.911109 
L 388.567515 404.550512 
L 389.560221 408.855704 
L 390.552927 397.434576 
L 391.545632 407.958181 
L 392.538338 393.973942 
L 393.531044 395.179336 
L 394.52375 408.028585 
L 395.516456 409.277154 
L 396.509162 403.587484 
L 397.501868 396.523721 
L 398.494574 411.960962 
L 399.48728 401.04597 
L 400.479986 404.524325 
L 401.472692 392.335019 
L 402.465398 400.064595 
L 403.458104 395.384036 
L 404.450809 405.83013 
L 405.443515 399.457883 
L 406.436221 419.907616 
L 407.428927 413.829904 
L 408.421633 405.661839 
L 409.414339 418.771946 
L 410.407045 405.345946 
L 411.399751 407.65467 
L 412.392457 392.94355 
L 413.385163 407.217901 
L 414.377869 418.065347 
L 415.370575 420.092359 
L 416.363281 432.927343 
L 417.355986 408.188106 
L 418.348692 408.992808 
L 419.341398 425.370234 
L 420.334104 406.855279 
L 421.32681 438.569239 
L 422.319516 438.226313 
L 423.312222 405.947999 
L 424.304928 414.840005 
L 425.297634 405.430771 
L 426.29034 408.504094 
L 427.283046 405.159802 
L 428.275752 412.533482 
L 429.268458 411.111324 
L 430.261163 393.440431 
L 432.246575 446.889495 
L 433.239281 410.151168 
L 434.231987 415.402329 
L 435.224693 424.701896 
L 436.217399 409.532191 
L 437.210105 410.265196 
L 438.202811 409.888171 
L 439.195517 436.088141 
L 440.188223 407.961935 
L 441.180929 423.788209 
L 442.173635 415.843765 
L 443.166341 411.230834 
L 444.159046 409.24299 
L 445.151752 417.167974 
L 446.144458 411.241713 
L 447.137164 436.82387 
L 448.12987 431.881721 
L 449.122576 417.415932 
L 450.115282 410.035438 
L 451.107988 432.453611 
L 452.100694 423.864394 
L 453.0934 417.37275 
L 454.086106 408.977064 
L 455.078812 425.097735 
L 456.071518 449.732303 
L 457.064223 420.022901 
L 458.056929 421.80223 
L 459.049635 414.622407 
L 460.042341 421.647556 
L 461.035047 426.920963 
L 462.027753 455.489355 
L 463.020459 428.535975 
L 464.013165 416.527814 
L 465.005871 421.824131 
L 465.998577 418.80421 
L 466.991283 411.666982 
L 467.983989 430.553221 
L 468.976695 423.842855 
L 469.9694 440.016057 
L 470.962106 432.883894 
L 471.954812 436.525921 
L 472.947518 429.04343 
L 473.940224 431.122746 
L 474.93293 415.213223 
L 475.925636 418.294104 
L 476.918342 432.91041 
L 477.911048 435.071597 
L 478.903754 428.380908 
L 479.89646 433.811315 
L 480.889166 428.856518 
L 481.881872 423.158483 
L 482.874577 437.285623 
L 483.867283 413.481811 
L 484.859989 425.911372 
L 485.852695 424.73102 
L 486.845401 448.687876 
L 487.838107 420.804879 
L 488.830813 429.639629 
L 489.823519 427.70849 
L 490.816225 409.588383 
L 491.808931 416.513834 
L 492.801637 441.334732 
L 493.794343 424.656972 
L 494.787049 433.903723 
L 495.779754 426.748861 
L 496.77246 473.227091 
L 497.765166 439.639127 
L 498.757872 424.237063 
L 499.750578 442.277532 
L 500.743284 449.848682 
L 501.73599 428.789228 
L 502.728696 440.961565 
L 503.721402 428.831457 
L 504.714108 428.057337 
L 505.706814 426.951007 
L 506.69952 419.109552 
L 507.692226 443.838537 
L 508.684932 416.816379 
L 509.677637 437.994904 
L 510.670343 432.840681 
L 511.663049 435.936712 
L 512.655755 443.867145 
L 513.648461 420.643826 
L 514.641167 428.382611 
L 515.633873 448.368024 
L 516.626579 428.364291 
L 517.619285 455.095698 
L 518.611991 464.2837 
L 519.604697 444.718614 
L 520.597403 427.856808 
L 521.590109 429.624374 
L 522.582814 419.043944 
L 523.57552 444.155865 
L 524.568226 415.865426 
L 525.560932 417.664768 
L 526.553638 428.518252 
L 527.546344 427.438173 
L 528.53905 434.775273 
L 529.531756 439.943862 
L 530.524462 444.254139 
L 531.517168 455.374477 
L 532.509874 450.253848 
L 533.50258 438.491012 
L 534.495286 461.39033 
L 535.487991 445.410298 
L 536.480697 421.943801 
L 537.473403 442.751004 
L 538.466109 439.788563 
L 539.458815 437.946855 
L 540.451521 458.520744 
L 541.444227 435.604851 
L 542.436933 447.05214 
L 543.429639 424.987883 
L 544.422345 439.900662 
L 545.415051 448.149057 
L 546.407757 445.295813 
L 548.393168 433.217874 
L 549.385874 438.604112 
L 550.37858 482.196518 
L 551.371286 439.227872 
L 552.363992 431.505925 
L 553.356698 448.47169 
L 554.349404 451.342185 
L 555.34211 434.112212 
L 556.334816 435.801587 
L 557.327522 423.22402 
L 558.320228 452.833675 
L 559.312934 434.88782 
L 560.30564 454.627186 
L 561.298345 429.931679 
L 562.291051 448.464746 
L 563.283757 459.402376 
L 564.276463 451.072526 
L 565.269169 423.955167 
L 566.261875 439.485565 
L 567.254581 442.871841 
L 569.239993 465.486046 
L 570.232699 460.051368 
L 571.225405 453.131526 
L 572.218111 470.233349 
L 573.210817 436.736659 
L 574.203523 458.894366 
L 575.196228 435.973235 
L 576.188934 449.591142 
L 577.18164 439.937629 
L 578.174346 428.133293 
L 579.167052 465.619652 
L 580.159758 475.064187 
L 581.152464 434.898364 
L 582.14517 451.374529 
L 583.137876 436.785227 
L 584.130582 473.914988 
L 585.123288 432.347417 
L 586.115994 443.342755 
L 587.1087 463.571808 
L 588.101405 444.802643 
L 589.094111 456.088211 
L 590.086817 433.350928 
L 591.079523 431.964963 
L 592.072229 450.352476 
L 593.064935 463.764828 
L 594.057641 436.441729 
L 595.050347 451.619971 
L 596.043053 445.025029 
L 597.035759 459.579816 
L 598.028465 436.022479 
L 599.021171 448.234659 
L 600.013877 444.999391 
L 601.006582 448.434549 
L 601.999288 450.260079 
L 602.991994 451.347551 
L 603.9847 442.661945 
L 604.977406 462.165604 
L 605.970112 451.762143 
L 606.962818 467.804279 
L 607.955524 449.150591 
L 608.94823 461.615214 
L 609.940936 441.111847 
L 610.933642 453.39677 
L 611.926348 446.991298 
L 612.919054 475.015249 
L 613.911759 454.293611 
L 615.897171 442.814595 
L 616.889877 452.255345 
L 617.882583 443.981634 
L 618.875289 455.545481 
L 619.867995 453.264764 
L 620.860701 457.446823 
L 621.853407 457.048592 
L 622.846113 465.613552 
L 623.838819 454.071937 
L 624.831525 453.478706 
L 625.824231 444.543652 
L 626.816936 453.683855 
L 627.809642 456.959803 
L 628.802348 443.595547 
L 629.795054 463.050581 
L 630.78776 460.597092 
L 631.780466 458.505313 
L 632.773172 453.327051 
L 633.765878 462.086881 
L 634.758584 459.792136 
L 635.75129 466.790184 
L 636.743996 453.796118 
L 637.736702 458.178171 
L 638.729408 465.63085 
L 639.722114 465.099189 
L 640.714819 459.148662 
L 641.707525 449.449279 
L 642.700231 456.251459 
L 643.692937 469.835062 
L 644.685643 446.967996 
L 645.678349 461.887868 
L 646.671055 450.681077 
L 647.663761 460.704166 
L 648.656467 466.065242 
L 649.649173 459.369601 
L 650.641879 456.211966 
L 651.634585 461.815717 
L 652.627291 461.19022 
L 653.619996 455.949073 
L 654.612702 461.42299 
L 655.605408 451.787425 
L 656.598114 455.974056 
L 657.59082 457.828795 
L 658.583526 460.555576 
L 659.576232 460.23378 
L 660.568938 462.012508 
L 661.561644 454.784588 
L 662.55435 463.876059 
L 663.547056 451.226297 
L 664.539762 456.461816 
L 665.532468 459.895673 
L 666.525173 462.14139 
L 667.517879 463.63508 
L 668.510585 455.016073 
L 669.503291 458.949943 
L 670.495997 463.657694 
L 671.488703 457.779687 
L 672.481409 464.399771 
L 673.474115 453.966301 
L 674.466821 460.312069 
L 675.459527 458.625428 
L 676.452233 462.515119 
L 677.444939 462.215766 
L 678.437645 464.785617 
L 679.43035 463.349028 
L 680.423056 465.939491 
L 681.415762 464.734925 
L 682.408468 465.249535 
L 683.401174 463.174698 
L 684.39388 464.151532 
L 685.386586 460.055219 
L 686.379292 463.827545 
L 687.371998 465.33402 
L 688.364704 465.043174 
L 689.35741 466.754915 
L 690.350116 463.345528 
L 691.342822 464.066452 
L 692.335527 463.414705 
L 693.328233 464.214503 
L 694.320939 463.906471 
L 696.306351 466.314372 
L 697.299057 464.542263 
L 698.291763 462.124531 
L 699.284469 462.921583 
L 700.277175 462.94074 
L 701.269881 466.782384 
L 702.262587 464.568703 
L 703.255293 465.164472 
L 704.247999 466.496219 
L 705.240705 465.417324 
L 706.23341 465.043802 
L 707.226116 468.082536 
L 708.218822 467.337096 
L 709.211528 465.871722 
L 710.204234 465.492237 
L 711.19694 465.545567 
L 712.189646 469.112018 
L 713.182352 465.605501 
L 714.175058 466.786598 
L 715.167764 464.702869 
L 716.16047 466.611946 
L 717.153176 470.735359 
L 718.145882 465.823742 
L 719.138587 468.041705 
L 720.131293 468.275265 
L 721.123999 466.938383 
L 722.116705 466.02938 
L 723.109411 469.271636 
L 724.102117 469.716181 
L 725.094823 465.501821 
L 726.087529 466.248461 
L 727.080235 468.557529 
L 728.072941 468.449551 
L 729.065647 470.086643 
L 730.058353 468.588443 
L 731.051059 467.550637 
L 732.043764 469.939532 
L 733.03647 470.294952 
L 735.021882 467.641943 
L 736.014588 470.532419 
L 737.007294 468.502468 
L 738 468.341324 
L 738.992706 470.621836 
L 739.985412 468.844959 
L 740.978118 468.325869 
L 741.970824 470.14343 
L 742.96353 469.240578 
L 743.956236 469.040205 
L 744.948941 469.728263 
L 745.941647 467.643593 
L 746.934353 470.371975 
L 747.927059 470.739141 
L 748.919765 469.7351 
L 749.912471 469.753077 
L 750.905177 470.644854 
L 751.897883 469.849377 
L 752.890589 468.20243 
L 753.883295 472.345928 
L 754.876001 471.139571 
L 755.868707 469.390954 
L 756.861413 471.138753 
L 757.854118 469.333337 
L 758.846824 470.816187 
L 759.83953 471.008077 
L 760.832236 470.281627 
L 761.824942 470.174537 
L 762.817648 470.461192 
L 763.810354 471.037138 
L 764.80306 472.872537 
L 765.795766 470.878392 
L 766.788472 472.862256 
L 767.781178 472.429493 
L 768.773884 472.532113 
L 769.76659 471.297282 
L 770.759295 471.737941 
L 772.744707 472.106009 
L 773.737413 470.778131 
L 774.730119 472.608852 
L 775.722825 471.09581 
L 776.715531 472.396363 
L 777.708237 471.705952 
L 778.700943 473.320175 
L 779.693649 474.447254 
L 780.686355 471.836325 
L 781.679061 473.389011 
L 782.671767 472.334628 
L 783.664473 473.092381 
L 785.649884 472.143413 
L 786.64259 473.903233 
L 787.635296 471.772133 
L 788.628002 473.664393 
L 789.620708 472.582465 
L 791.60612 475.945424 
L 792.598826 473.39556 
L 793.591532 473.526969 
L 794.584238 475.187538 
L 795.576944 474.122015 
L 796.56965 474.631861 
L 797.562355 473.509129 
L 798.555061 474.672415 
L 799.547767 476.498153 
L 801.533179 473.392593 
L 802.525885 475.662866 
L 803.518591 474.501428 
L 804.511297 475.364881 
L 805.504003 474.316106 
L 806.496709 473.626123 
L 807.489415 474.91747 
L 808.482121 473.305928 
L 809.474827 475.213414 
L 810.467532 474.932335 
L 811.460238 475.740893 
L 812.452944 475.994351 
L 813.44565 474.507198 
L 814.438356 476.078495 
L 815.431062 475.13415 
L 816.423768 476.661396 
L 817.416474 475.938712 
L 818.40918 475.958863 
L 819.401886 474.605257 
L 820.394592 476.183216 
L 821.387298 476.687013 
L 822.380004 474.741069 
L 823.372709 476.469221 
L 824.365415 476.861701 
L 825.358121 475.94009 
L 826.350827 476.952024 
L 827.343533 475.342559 
L 829.328945 476.614166 
L 830.321651 476.393296 
L 832.307063 477.52352 
L 833.299769 476.902669 
L 834.292475 477.361119 
L 835.285181 479.327252 
L 836.277886 477.05634 
L 837.270592 478.198177 
L 838.263298 476.936977 
L 839.256004 477.940835 
L 840.24871 477.012022 
L 841.241416 477.178572 
L 842.234122 476.778571 
L 843.226828 479.300694 
L 844.219534 478.026177 
L 845.21224 477.729243 
L 846.204946 476.374342 
L 847.197652 477.920943 
L 848.190358 479.070596 
L 849.183064 477.848182 
L 850.175769 477.959349 
L 851.168475 476.538198 
L 852.161181 478.794781 
L 853.153887 477.78953 
L 854.146593 477.886893 
L 856.132005 479.41415 
L 857.124711 478.711817 
L 858.117417 476.557486 
L 859.110123 478.013408 
L 860.102829 477.623045 
L 861.095535 477.108624 
L 862.088241 478.159743 
L 863.080946 477.957561 
L 864.073652 478.225057 
L 865.066358 479.86206 
L 866.059064 478.607038 
L 867.05177 478.805013 
L 868.044476 478.433464 
L 869.037182 479.472568 
L 870.029888 480.230621 
L 871.022594 480.233356 
L 873.008006 479.482897 
L 874.000712 477.698808 
L 874.993418 480.384762 
L 875.986123 479.631471 
L 876.978829 479.097668 
L 877.971535 480.933223 
L 878.964241 479.787617 
L 879.956947 479.951285 
L 881.942359 479.628354 
L 882.935065 480.936248 
L 883.927771 480.674523 
L 884.920477 479.04325 
L 885.913183 480.709827 
L 886.905889 480.709238 
L 887.898595 479.920093 
L 888.8913 481.864488 
L 889.884006 481.67296 
L 890.876712 479.89733 
L 891.869418 479.943218 
L 892.862124 480.501894 
L 893.85483 479.548017 
L 894.847536 481.541992 
L 895.840242 479.769964 
L 896.832948 479.499755 
L 897.825654 481.380477 
L 898.81836 480.863044 
L 899.811066 482.017148 
L 900.803772 482.081851 
L 901.796477 481.120257 
L 902.789183 481.198972 
L 903.781889 480.954987 
L 904.774595 481.328223 
L 905.767301 480.574742 
L 906.760007 480.112614 
L 907.752713 480.913873 
L 908.745419 483.134092 
L 909.738125 482.132309 
L 910.730831 483.49945 
L 911.723537 481.976086 
L 912.716243 482.387939 
L 913.708949 479.574711 
L 914.701655 480.673251 
L 915.69436 481.542522 
L 916.687066 482.742767 
L 917.679772 481.221307 
L 918.672478 480.887444 
L 919.665184 482.607471 
L 920.65789 481.219273 
L 921.650596 481.541771 
L 922.643302 482.819232 
L 923.636008 482.079115 
L 924.628714 480.544264 
L 925.62142 481.158915 
L 926.614126 483.256786 
L 927.606832 480.141734 
L 928.599537 483.107922 
L 929.592243 482.082492 
L 930.584949 482.503874 
L 932.570361 484.085275 
L 933.563067 483.710621 
L 934.555773 482.819335 
L 935.548479 482.389132 
L 936.541185 484.062483 
L 937.533891 483.553311 
L 938.526597 481.705602 
L 939.519303 483.731352 
L 940.512009 484.475401 
L 941.504714 483.328327 
L 942.49742 485.06025 
L 943.490126 482.184884 
L 944.482832 483.37683 
L 945.475538 485.325753 
L 946.468244 482.998073 
L 947.46095 483.627461 
L 948.453656 482.441659 
L 949.446362 483.284798 
L 950.439068 482.955215 
L 951.431774 483.3077 
L 952.42448 481.011053 
L 953.417186 484.169473 
L 954.409891 484.731269 
L 955.402597 481.691851 
L 956.395303 482.493605 
L 957.388009 483.907429 
L 958.380715 483.311089 
L 959.373421 482.500751 
L 960.366127 483.756564 
L 961.358833 484.199483 
L 962.351539 483.102863 
L 963.344245 482.772702 
L 964.336951 483.161281 
L 965.329657 483.770896 
L 966.322363 482.053326 
L 967.315068 485.685388 
L 968.307774 484.038409 
L 969.30048 483.862284 
L 970.293186 484.163638 
L 971.285892 482.565941 
L 972.278598 483.600415 
L 973.271304 484.855908 
L 974.26401 484.731046 
L 975.256716 483.123851 
L 976.249422 484.303132 
L 977.242128 484.63436 
L 978.234834 484.529157 
L 979.22754 484.821546 
L 980.220246 484.605613 
L 981.212951 484.178722 
L 982.205657 484.155361 
L 983.198363 486.264812 
L 984.191069 485.188163 
L 985.183775 485.542558 
L 986.176481 484.55533 
L 987.169187 485.838195 
L 988.161893 483.934119 
L 989.154599 484.972195 
L 990.147305 484.841667 
L 991.140011 486.507643 
L 993.125423 483.354295 
L 994.118128 486.090906 
L 995.110834 485.959012 
L 996.10354 484.828649 
L 997.096246 484.518381 
L 998.088952 485.348894 
L 999.081658 485.631823 
L 1000.074364 484.926533 
L 1001.06707 485.305245 
L 1002.059776 485.55795 
L 1003.052482 484.741405 
L 1004.045188 485.231764 
L 1005.037894 486.326714 
L 1006.0306 484.834126 
L 1007.023305 486.722742 
L 1008.016011 485.611021 
L 1009.008717 487.078393 
L 1010.001423 486.924926 
L 1010.994129 485.907549 
L 1011.986835 486.476567 
L 1012.979541 486.542448 
L 1013.972247 484.475713 
L 1014.964953 487.212652 
L 1015.957659 486.614858 
L 1016.950365 486.375869 
L 1017.943071 485.272697 
L 1018.935777 484.661276 
L 1019.928482 486.923428 
L 1020.921188 485.210959 
L 1021.913894 486.346517 
L 1022.9066 484.412607 
L 1023.899306 487.968307 
L 1024.892012 486.103039 
L 1025.884718 486.227406 
L 1026.877424 486.512446 
L 1027.87013 485.425162 
L 1028.862836 486.37477 
L 1029.855542 485.67529 
L 1030.848248 486.116545 
L 1031.840954 487.115826 
L 1032.833659 486.693902 
L 1033.826365 487.624296 
L 1035.811777 485.522038 
L 1036.804483 486.776956 
L 1037.797189 486.396436 
L 1038.789895 486.892599 
L 1040.775307 486.81001 
L 1041.768013 485.156438 
L 1042.760719 485.654198 
L 1043.753425 487.15018 
L 1044.746131 488.045031 
L 1046.731542 486.464952 
L 1047.724248 486.423248 
L 1048.716954 485.257666 
L 1049.70966 485.980737 
L 1050.702366 487.936305 
L 1051.695072 487.18967 
L 1052.687778 487.545245 
L 1053.680484 487.752085 
L 1054.67319 486.530934 
L 1055.665896 487.423614 
L 1056.658602 486.560449 
L 1057.651308 488.42399 
L 1058.644014 488.096875 
L 1059.636719 486.710483 
L 1060.629425 488.485872 
L 1061.622131 486.333624 
L 1062.614837 486.924833 
L 1063.607543 487.853316 
L 1064.600249 488.06701 
L 1065.592955 489.01099 
L 1066.585661 487.399433 
L 1067.578367 488.246309 
L 1068.571073 486.331491 
L 1069.563779 486.060409 
L 1070.556485 486.932336 
L 1071.549191 488.124415 
L 1072.541896 487.63986 
L 1073.534602 488.379867 
L 1074.527308 488.005988 
L 1075.520014 487.847796 
L 1076.51272 488.194476 
L 1077.505426 487.305272 
L 1078.498132 488.880926 
L 1079.490838 487.582426 
L 1080.483544 487.715075 
L 1081.47625 489.854086 
L 1082.468956 489.112291 
L 1083.461662 488.106186 
L 1084.454368 488.384882 
L 1085.447073 488.923154 
L 1087.432485 488.16453 
L 1088.425191 486.945041 
L 1089.417897 487.917769 
L 1090.410603 487.216293 
L 1091.403309 486.900359 
L 1092.396015 487.971826 
L 1093.388721 490.027142 
L 1094.381427 487.772306 
L 1095.374133 489.845088 
L 1096.366839 488.828518 
L 1097.359545 489.222371 
L 1098.35225 488.247022 
L 1099.344956 488.791185 
L 1100.337662 488.295628 
L 1101.330368 488.955118 
L 1102.323074 487.384233 
L 1103.31578 487.945251 
L 1104.308486 488.240276 
L 1105.301192 490.118334 
L 1106.293898 488.65478 
L 1107.286604 488.362632 
L 1108.27931 489.761182 
L 1109.272016 487.177652 
L 1110.264722 488.455221 
L 1111.257428 489.460714 
L 1112.250133 489.729487 
L 1113.242839 488.352201 
L 1114.235545 488.466085 
L 1115.228251 489.721272 
L 1116.220957 489.497021 
L 1117.213663 488.293735 
L 1118.206369 488.477436 
L 1119.199075 489.025529 
L 1120.191781 488.910876 
L 1121.184487 488.625704 
L 1122.177193 487.878496 
L 1123.169899 487.305342 
L 1125.15531 490.083436 
L 1126.148016 491.581856 
L 1127.140722 488.211686 
L 1128.133428 488.877076 
L 1129.126134 488.441332 
L 1130.11884 489.408371 
L 1131.111546 489.30631 
L 1132.104252 487.56786 
L 1133.096958 489.152061 
L 1134.089664 489.032138 
L 1135.08237 488.09104 
L 1136.075076 489.296473 
L 1137.067782 489.368077 
L 1138.060487 488.852595 
L 1139.053193 488.880985 
L 1140.045899 488.635906 
L 1141.038605 489.657546 
L 1142.031311 489.593588 
L 1143.024017 486.930651 
L 1144.016723 489.110359 
L 1145.009429 489.668586 
L 1146.002135 490.491792 
L 1146.994841 489.451627 
L 1147.987547 490.712981 
L 1148.980253 488.702564 
L 1149.972959 490.483812 
L 1150.965664 488.228002 
L 1151.95837 488.717209 
L 1152.951076 489.777253 
L 1153.943782 488.672291 
L 1155.929194 488.652676 
L 1156.9219 489.506673 
L 1157.914606 489.855719 
L 1158.907312 489.591887 
L 1159.900018 488.63217 
L 1161.88543 488.318533 
L 1162.878136 490.124571 
L 1163.870841 489.894082 
L 1164.863547 487.607882 
L 1165.856253 489.484485 
L 1166.848959 489.934729 
L 1167.841665 489.161491 
L 1168.834371 487.273298 
L 1169.827077 488.866668 
L 1170.819783 489.517149 
L 1171.812489 489.460985 
L 1172.805195 488.473466 
L 1173.797901 488.376208 
L 1174.790607 487.497937 
L 1175.783313 489.685819 
L 1176.776019 490.972979 
L 1177.768724 489.073416 
L 1178.76143 490.797666 
L 1179.754136 489.727697 
L 1180.746842 489.905322 
L 1181.739548 490.927441 
L 1182.732254 491.331768 
L 1183.72496 489.901353 
L 1184.717666 492.064358 
L 1185.710372 492.36838 
L 1186.703078 492.48 
L 1187.695784 489.577619 
L 1188.68849 487.967455 
L 1189.681196 489.505395 
L 1190.673901 490.449124 
L 1191.666607 490.691959 
L 1192.659313 490.480682 
L 1193.652019 490.473457 
L 1194.644725 490.117583 
L 1195.637431 489.219956 
L 1196.630137 489.36056 
L 1197.622843 489.091948 
L 1198.615549 490.579144 
L 1199.608255 489.8957 
L 1200.600961 486.231884 
L 1201.593667 488.842982 
L 1202.586373 490.925359 
L 1203.579078 489.43375 
L 1204.571784 489.959438 
L 1205.56449 489.599763 
L 1206.557196 490.491864 
L 1207.549902 489.942963 
L 1208.542608 489.25589 
L 1209.535314 491.257858 
L 1210.52802 489.986978 
L 1211.520726 489.883915 
L 1212.513432 489.924391 
L 1213.506138 490.617074 
L 1214.498844 491.53185 
L 1215.49155 491.087111 
L 1217.476961 487.961034 
L 1218.469667 487.697804 
L 1219.462373 488.641952 
L 1220.455079 489.772907 
L 1221.447785 490.017672 
L 1222.440491 489.096128 
L 1223.433197 489.669051 
L 1224.425903 489.424422 
L 1225.418609 491.5422 
L 1226.411315 489.275027 
L 1227.404021 491.072491 
L 1228.396727 490.221669 
L 1229.389432 488.887609 
L 1230.382138 489.467949 
L 1231.374844 489.91265 
L 1232.36755 490.620042 
L 1233.360256 487.082571 
L 1234.352962 491.191144 
L 1235.345668 490.779226 
L 1236.338374 489.713377 
L 1237.33108 490.472321 
L 1238.323786 489.879497 
L 1239.316492 492.120935 
L 1240.309198 488.02091 
L 1241.301904 490.380784 
L 1242.29461 488.440529 
L 1243.287315 489.150966 
L 1244.280021 490.971396 
L 1245.272727 490.719198 
L 1245.272727 490.719198 
" clip-path="url(#p7c40a69bf6)" style="fill: none; stroke: #1f77b4; stroke-width: 1.5; stroke-linecap: square"/>
   </g>
   <g id="patch_3">
    <path d="M 180 512.64 
L 180 69.12 
" style="fill: none; stroke: #000000; stroke-width: 0.8; stroke-linejoin: miter; stroke-linecap: square"/>
   </g>
   <g id="patch_4">
    <path d="M 1296 512.64 
L 1296 69.12 
" style="fill: none; stroke: #000000; stroke-width: 0.8; stroke-linejoin: miter; stroke-linecap: square"/>
   </g>
   <g id="patch_5">
    <path d="M 180 512.64 
L 1296 512.64 
" style="fill: none; stroke: #000000; stroke-width: 0.8; stroke-linejoin: miter; stroke-linecap: square"/>
   </g>
   <g id="patch_6">
    <path d="M 180 69.12 
L 1296 69.12 
" style="fill: none; stroke: #000000; stroke-width: 0.8; stroke-linejoin: miter; stroke-linecap: square"/>
   </g>
   <g id="text_14">
    <!-- source14-receiver2 -->
    <g transform="translate(544.9 60.80125) scale(0.4 -0.4)">
     <defs>
      <path id="DejaVuSans-73" d="M 2834 3397 
L 2834 2853 
Q 2591 2978 2328 3040 
Q 2066 3103 1784 3103 
Q 1356 3103 1142 2972 
Q 928 2841 928 2578 
Q 928 2378 1081 2264 
Q 1234 2150 1697 2047 
L 1894 2003 
Q 2506 1872 2764 1633 
Q 3022 1394 3022 966 
Q 3022 478 2636 193 
Q 2250 -91 1575 -91 
Q 1294 -91 989 -36 
Q 684 19 347 128 
L 347 722 
Q 666 556 975 473 
Q 1284 391 1588 391 
Q 1994 391 2212 530 
Q 2431 669 2431 922 
Q 2431 1156 2273 1281 
Q 2116 1406 1581 1522 
L 1381 1569 
Q 847 1681 609 1914 
Q 372 2147 372 2553 
Q 372 3047 722 3315 
Q 1072 3584 1716 3584 
Q 2034 3584 2315 3537 
Q 2597 3491 2834 3397 
z
" transform="scale(0.015625)"/>
      <path id="DejaVuSans-6f" d="M 1959 3097 
Q 1497 3097 1228 2736 
Q 959 2375 959 1747 
Q 959 1119 1226 758 
Q 1494 397 1959 397 
Q 2419 397 2687 759 
Q 2956 1122 2956 1747 
Q 2956 2369 2687 2733 
Q 2419 3097 1959 3097 
z
M 1959 3584 
Q 2709 3584 3137 3096 
Q 3566 2609 3566 1747 
Q 3566 888 3137 398 
Q 2709 -91 1959 -91 
Q 1206 -91 779 398 
Q 353 888 353 1747 
Q 353 2609 779 3096 
Q 1206 3584 1959 3584 
z
" transform="scale(0.015625)"/>
      <path id="DejaVuSans-75" d="M 544 1381 
L 544 3500 
L 1119 3500 
L 1119 1403 
Q 1119 906 1312 657 
Q 1506 409 1894 409 
Q 2359 409 2629 706 
Q 2900 1003 2900 1516 
L 2900 3500 
L 3475 3500 
L 3475 0 
L 2900 0 
L 2900 538 
Q 2691 219 2414 64 
Q 2138 -91 1772 -91 
Q 1169 -91 856 284 
Q 544 659 544 1381 
z
M 1991 3584 
L 1991 3584 
z
" transform="scale(0.015625)"/>
      <path id="DejaVuSans-72" d="M 2631 2963 
Q 2534 3019 2420 3045 
Q 2306 3072 2169 3072 
Q 1681 3072 1420 2755 
Q 1159 2438 1159 1844 
L 1159 0 
L 581 0 
L 581 3500 
L 1159 3500 
L 1159 2956 
Q 1341 3275 1631 3429 
Q 1922 3584 2338 3584 
Q 2397 3584 2469 3576 
Q 2541 3569 2628 3553 
L 2631 2963 
z
" transform="scale(0.015625)"/>
      <path id="DejaVuSans-63" d="M 3122 3366 
L 3122 2828 
Q 2878 2963 2633 3030 
Q 2388 3097 2138 3097 
Q 1578 3097 1268 2742 
Q 959 2388 959 1747 
Q 959 1106 1268 751 
Q 1578 397 2138 397 
Q 2388 397 2633 464 
Q 2878 531 3122 666 
L 3122 134 
Q 2881 22 2623 -34 
Q 2366 -91 2075 -91 
Q 1284 -91 818 406 
Q 353 903 353 1747 
Q 353 2603 823 3093 
Q 1294 3584 2113 3584 
Q 2378 3584 2631 3529 
Q 2884 3475 3122 3366 
z
" transform="scale(0.015625)"/>
      <path id="DejaVuSans-65" d="M 3597 1894 
L 3597 1613 
L 953 1613 
Q 991 1019 1311 708 
Q 1631 397 2203 397 
Q 2534 397 2845 478 
Q 3156 559 3463 722 
L 3463 178 
Q 3153 47 2828 -22 
Q 2503 -91 2169 -91 
Q 1331 -91 842 396 
Q 353 884 353 1716 
Q 353 2575 817 3079 
Q 1281 3584 2069 3584 
Q 2775 3584 3186 3129 
Q 3597 2675 3597 1894 
z
M 3022 2063 
Q 3016 2534 2758 2815 
Q 2500 3097 2075 3097 
Q 1594 3097 1305 2825 
Q 1016 2553 972 2059 
L 3022 2063 
z
" transform="scale(0.015625)"/>
      <path id="DejaVuSans-34" d="M 2419 4116 
L 825 1625 
L 2419 1625 
L 2419 4116 
z
M 2253 4666 
L 3047 4666 
L 3047 1625 
L 3713 1625 
L 3713 1100 
L 3047 1100 
L 3047 0 
L 2419 0 
L 2419 1100 
L 313 1100 
L 313 1709 
L 2253 4666 
z
" transform="scale(0.015625)"/>
      <path id="DejaVuSans-2d" d="M 313 2009 
L 1997 2009 
L 1997 1497 
L 313 1497 
L 313 2009 
z
" transform="scale(0.015625)"/>
      <path id="DejaVuSans-69" d="M 603 3500 
L 1178 3500 
L 1178 0 
L 603 0 
L 603 3500 
z
M 603 4863 
L 1178 4863 
L 1178 4134 
L 603 4134 
L 603 4863 
z
" transform="scale(0.015625)"/>
      <path id="DejaVuSans-76" d="M 191 3500 
L 800 3500 
L 1894 563 
L 2988 3500 
L 3597 3500 
L 2284 0 
L 1503 0 
L 191 3500 
z
" transform="scale(0.015625)"/>
     </defs>
     <use xlink:href="#DejaVuSans-73"/>
     <use xlink:href="#DejaVuSans-6f" x="52.099609"/>
     <use xlink:href="#DejaVuSans-75" x="113.28125"/>
     <use xlink:href="#DejaVuSans-72" x="176.660156"/>
     <use xlink:href="#DejaVuSans-63" x="215.523438"/>
     <use xlink:href="#DejaVuSans-65" x="270.503906"/>
     <use xlink:href="#DejaVuSans-31" x="332.027344"/>
     <use xlink:href="#DejaVuSans-34" x="395.650391"/>
     <use xlink:href="#DejaVuSans-2d" x="459.273438"/>
     <use xlink:href="#DejaVuSans-72" x="495.357422"/>
     <use xlink:href="#DejaVuSans-65" x="534.220703"/>
     <use xlink:href="#DejaVuSans-63" x="595.744141"/>
     <use xlink:href="#DejaVuSans-65" x="650.724609"/>
     <use xlink:href="#DejaVuSans-69" x="712.248047"/>
     <use xlink:href="#DejaVuSans-76" x="740.03125"/>
     <use xlink:href="#DejaVuSans-65" x="799.210938"/>
     <use xlink:href="#DejaVuSans-72" x="860.734375"/>
     <use xlink:href="#DejaVuSans-32" x="901.847656"/>
    </g>
   </g>
  </g>
 </g>
 <defs>
  <clipPath id="p7c40a69bf6">
   <rect x="180" y="69.12" width="1116" height="443.52"/>
  </clipPath>
 </defs>
</svg>
