<?xml version="1.0" encoding="utf-8" standalone="no"?>
<!DOCTYPE svg PUBLIC "-//W3C//DTD SVG 1.1//EN"
  "http://www.w3.org/Graphics/SVG/1.1/DTD/svg11.dtd">
<svg xmlns:xlink="http://www.w3.org/1999/xlink" width="1440pt" height="576pt" viewBox="0 0 1440 576" xmlns="http://www.w3.org/2000/svg" version="1.1">
 <metadata>
  <rdf:RDF xmlns:dc="http://purl.org/dc/elements/1.1/" xmlns:cc="http://creativecommons.org/ns#" xmlns:rdf="http://www.w3.org/1999/02/22-rdf-syntax-ns#">
   <cc:Work>
    <dc:type rdf:resource="http://purl.org/dc/dcmitype/StillImage"/>
    <dc:date>2024-05-22T04:50:05.479910</dc:date>
    <dc:format>image/svg+xml</dc:format>
    <dc:creator>
     <cc:Agent>
      <dc:title>Matplotlib v3.8.3, https://matplotlib.org/</dc:title>
     </cc:Agent>
    </dc:creator>
   </cc:Work>
  </rdf:RDF>
 </metadata>
 <defs>
  <style type="text/css">*{stroke-linejoin: round; stroke-linecap: butt}</style>
 </defs>
 <g id="figure_1">
  <g id="patch_1">
   <path d="M 0 576 
L 1440 576 
L 1440 0 
L 0 0 
z
" style="fill: #ffffff"/>
  </g>
  <g id="axes_1">
   <g id="patch_2">
    <path d="M 180 512.64 
L 1296 512.64 
L 1296 69.12 
L 180 69.12 
z
" style="fill: #ffffff"/>
   </g>
   <g id="matplotlib.axis_1">
    <g id="xtick_1">
     <g id="line2d_1">
      <defs>
       <path id="m772c9acde6" d="M 0 0 
L 0 3.5 
" style="stroke: #000000; stroke-width: 0.8"/>
      </defs>
      <g>
       <use xlink:href="#m772c9acde6" x="229.734567" y="512.64" style="stroke: #000000; stroke-width: 0.8"/>
      </g>
     </g>
     <g id="text_1">
      <!-- 0 -->
      <g transform="translate(226.553317 527.238438) scale(0.1 -0.1)">
       <defs>
        <path id="DejaVuSans-30" d="M 2034 4250 
Q 1547 4250 1301 3770 
Q 1056 3291 1056 2328 
Q 1056 1369 1301 889 
Q 1547 409 2034 409 
Q 2525 409 2770 889 
Q 3016 1369 3016 2328 
Q 3016 3291 2770 3770 
Q 2525 4250 2034 4250 
z
M 2034 4750 
Q 2819 4750 3233 4129 
Q 3647 3509 3647 2328 
Q 3647 1150 3233 529 
Q 2819 -91 2034 -91 
Q 1250 -91 836 529 
Q 422 1150 422 2328 
Q 422 3509 836 4129 
Q 1250 4750 2034 4750 
z
" transform="scale(0.015625)"/>
       </defs>
       <use xlink:href="#DejaVuSans-30"/>
      </g>
     </g>
    </g>
    <g id="xtick_2">
     <g id="line2d_2">
      <g>
       <use xlink:href="#m772c9acde6" x="433.04074" y="512.64" style="stroke: #000000; stroke-width: 0.8"/>
      </g>
     </g>
     <g id="text_2">
      <!-- 500 -->
      <g transform="translate(423.49699 527.238438) scale(0.1 -0.1)">
       <defs>
        <path id="DejaVuSans-35" d="M 691 4666 
L 3169 4666 
L 3169 4134 
L 1269 4134 
L 1269 2991 
Q 1406 3038 1543 3061 
Q 1681 3084 1819 3084 
Q 2600 3084 3056 2656 
Q 3513 2228 3513 1497 
Q 3513 744 3044 326 
Q 2575 -91 1722 -91 
Q 1428 -91 1123 -41 
Q 819 9 494 109 
L 494 744 
Q 775 591 1075 516 
Q 1375 441 1709 441 
Q 2250 441 2565 725 
Q 2881 1009 2881 1497 
Q 2881 1984 2565 2268 
Q 2250 2553 1709 2553 
Q 1456 2553 1204 2497 
Q 953 2441 691 2322 
L 691 4666 
z
" transform="scale(0.015625)"/>
       </defs>
       <use xlink:href="#DejaVuSans-35"/>
       <use xlink:href="#DejaVuSans-30" x="63.623047"/>
       <use xlink:href="#DejaVuSans-30" x="127.246094"/>
      </g>
     </g>
    </g>
    <g id="xtick_3">
     <g id="line2d_3">
      <g>
       <use xlink:href="#m772c9acde6" x="636.346913" y="512.64" style="stroke: #000000; stroke-width: 0.8"/>
      </g>
     </g>
     <g id="text_3">
      <!-- 1000 -->
      <g transform="translate(623.621913 527.238438) scale(0.1 -0.1)">
       <defs>
        <path id="DejaVuSans-31" d="M 794 531 
L 1825 531 
L 1825 4091 
L 703 3866 
L 703 4441 
L 1819 4666 
L 2450 4666 
L 2450 531 
L 3481 531 
L 3481 0 
L 794 0 
L 794 531 
z
" transform="scale(0.015625)"/>
       </defs>
       <use xlink:href="#DejaVuSans-31"/>
       <use xlink:href="#DejaVuSans-30" x="63.623047"/>
       <use xlink:href="#DejaVuSans-30" x="127.246094"/>
       <use xlink:href="#DejaVuSans-30" x="190.869141"/>
      </g>
     </g>
    </g>
    <g id="xtick_4">
     <g id="line2d_4">
      <g>
       <use xlink:href="#m772c9acde6" x="839.653087" y="512.64" style="stroke: #000000; stroke-width: 0.8"/>
      </g>
     </g>
     <g id="text_4">
      <!-- 1500 -->
      <g transform="translate(826.928087 527.238438) scale(0.1 -0.1)">
       <use xlink:href="#DejaVuSans-31"/>
       <use xlink:href="#DejaVuSans-35" x="63.623047"/>
       <use xlink:href="#DejaVuSans-30" x="127.246094"/>
       <use xlink:href="#DejaVuSans-30" x="190.869141"/>
      </g>
     </g>
    </g>
    <g id="xtick_5">
     <g id="line2d_5">
      <g>
       <use xlink:href="#m772c9acde6" x="1042.95926" y="512.64" style="stroke: #000000; stroke-width: 0.8"/>
      </g>
     </g>
     <g id="text_5">
      <!-- 2000 -->
      <g transform="translate(1030.23426 527.238438) scale(0.1 -0.1)">
       <defs>
        <path id="DejaVuSans-32" d="M 1228 531 
L 3431 531 
L 3431 0 
L 469 0 
L 469 531 
Q 828 903 1448 1529 
Q 2069 2156 2228 2338 
Q 2531 2678 2651 2914 
Q 2772 3150 2772 3378 
Q 2772 3750 2511 3984 
Q 2250 4219 1831 4219 
Q 1534 4219 1204 4116 
Q 875 4013 500 3803 
L 500 4441 
Q 881 4594 1212 4672 
Q 1544 4750 1819 4750 
Q 2544 4750 2975 4387 
Q 3406 4025 3406 3419 
Q 3406 3131 3298 2873 
Q 3191 2616 2906 2266 
Q 2828 2175 2409 1742 
Q 1991 1309 1228 531 
z
" transform="scale(0.015625)"/>
       </defs>
       <use xlink:href="#DejaVuSans-32"/>
       <use xlink:href="#DejaVuSans-30" x="63.623047"/>
       <use xlink:href="#DejaVuSans-30" x="127.246094"/>
       <use xlink:href="#DejaVuSans-30" x="190.869141"/>
      </g>
     </g>
    </g>
    <g id="xtick_6">
     <g id="line2d_6">
      <g>
       <use xlink:href="#m772c9acde6" x="1246.265433" y="512.64" style="stroke: #000000; stroke-width: 0.8"/>
      </g>
     </g>
     <g id="text_6">
      <!-- 2500 -->
      <g transform="translate(1233.540433 527.238438) scale(0.1 -0.1)">
       <use xlink:href="#DejaVuSans-32"/>
       <use xlink:href="#DejaVuSans-35" x="63.623047"/>
       <use xlink:href="#DejaVuSans-30" x="127.246094"/>
       <use xlink:href="#DejaVuSans-30" x="190.869141"/>
      </g>
     </g>
    </g>
   </g>
   <g id="matplotlib.axis_2">
    <g id="ytick_1">
     <g id="line2d_7">
      <defs>
       <path id="mb9a88f1891" d="M 0 0 
L -3.5 0 
" style="stroke: #000000; stroke-width: 0.8"/>
      </defs>
      <g>
       <use xlink:href="#mb9a88f1891" x="180" y="500.644525" style="stroke: #000000; stroke-width: 0.8"/>
      </g>
     </g>
     <g id="text_7">
      <!-- −3 -->
      <g transform="translate(158.257812 504.443744) scale(0.1 -0.1)">
       <defs>
        <path id="DejaVuSans-2212" d="M 678 2272 
L 4684 2272 
L 4684 1741 
L 678 1741 
L 678 2272 
z
" transform="scale(0.015625)"/>
        <path id="DejaVuSans-33" d="M 2597 2516 
Q 3050 2419 3304 2112 
Q 3559 1806 3559 1356 
Q 3559 666 3084 287 
Q 2609 -91 1734 -91 
Q 1441 -91 1130 -33 
Q 819 25 488 141 
L 488 750 
Q 750 597 1062 519 
Q 1375 441 1716 441 
Q 2309 441 2620 675 
Q 2931 909 2931 1356 
Q 2931 1769 2642 2001 
Q 2353 2234 1838 2234 
L 1294 2234 
L 1294 2753 
L 1863 2753 
Q 2328 2753 2575 2939 
Q 2822 3125 2822 3475 
Q 2822 3834 2567 4026 
Q 2313 4219 1838 4219 
Q 1578 4219 1281 4162 
Q 984 4106 628 3988 
L 628 4550 
Q 988 4650 1302 4700 
Q 1616 4750 1894 4750 
Q 2613 4750 3031 4423 
Q 3450 4097 3450 3541 
Q 3450 3153 3228 2886 
Q 3006 2619 2597 2516 
z
" transform="scale(0.015625)"/>
       </defs>
       <use xlink:href="#DejaVuSans-2212"/>
       <use xlink:href="#DejaVuSans-33" x="83.789062"/>
      </g>
     </g>
    </g>
    <g id="ytick_2">
     <g id="line2d_8">
      <g>
       <use xlink:href="#mb9a88f1891" x="180" y="447.788985" style="stroke: #000000; stroke-width: 0.8"/>
      </g>
     </g>
     <g id="text_8">
      <!-- −2 -->
      <g transform="translate(158.257812 451.588204) scale(0.1 -0.1)">
       <use xlink:href="#DejaVuSans-2212"/>
       <use xlink:href="#DejaVuSans-32" x="83.789062"/>
      </g>
     </g>
    </g>
    <g id="ytick_3">
     <g id="line2d_9">
      <g>
       <use xlink:href="#mb9a88f1891" x="180" y="394.933445" style="stroke: #000000; stroke-width: 0.8"/>
      </g>
     </g>
     <g id="text_9">
      <!-- −1 -->
      <g transform="translate(158.257812 398.732664) scale(0.1 -0.1)">
       <use xlink:href="#DejaVuSans-2212"/>
       <use xlink:href="#DejaVuSans-31" x="83.789062"/>
      </g>
     </g>
    </g>
    <g id="ytick_4">
     <g id="line2d_10">
      <g>
       <use xlink:href="#mb9a88f1891" x="180" y="342.077905" style="stroke: #000000; stroke-width: 0.8"/>
      </g>
     </g>
     <g id="text_10">
      <!-- 0 -->
      <g transform="translate(166.6375 345.877124) scale(0.1 -0.1)">
       <use xlink:href="#DejaVuSans-30"/>
      </g>
     </g>
    </g>
    <g id="ytick_5">
     <g id="line2d_11">
      <g>
       <use xlink:href="#mb9a88f1891" x="180" y="289.222365" style="stroke: #000000; stroke-width: 0.8"/>
      </g>
     </g>
     <g id="text_11">
      <!-- 1 -->
      <g transform="translate(166.6375 293.021584) scale(0.1 -0.1)">
       <use xlink:href="#DejaVuSans-31"/>
      </g>
     </g>
    </g>
    <g id="ytick_6">
     <g id="line2d_12">
      <g>
       <use xlink:href="#mb9a88f1891" x="180" y="236.366825" style="stroke: #000000; stroke-width: 0.8"/>
      </g>
     </g>
     <g id="text_12">
      <!-- 2 -->
      <g transform="translate(166.6375 240.166043) scale(0.1 -0.1)">
       <use xlink:href="#DejaVuSans-32"/>
      </g>
     </g>
    </g>
    <g id="ytick_7">
     <g id="line2d_13">
      <g>
       <use xlink:href="#mb9a88f1891" x="180" y="183.511285" style="stroke: #000000; stroke-width: 0.8"/>
      </g>
     </g>
     <g id="text_13">
      <!-- 3 -->
      <g transform="translate(166.6375 187.310503) scale(0.1 -0.1)">
       <use xlink:href="#DejaVuSans-33"/>
      </g>
     </g>
    </g>
    <g id="ytick_8">
     <g id="line2d_14">
      <g>
       <use xlink:href="#mb9a88f1891" x="180" y="130.655744" style="stroke: #000000; stroke-width: 0.8"/>
      </g>
     </g>
     <g id="text_14">
      <!-- 4 -->
      <g transform="translate(166.6375 134.454963) scale(0.1 -0.1)">
       <defs>
        <path id="DejaVuSans-34" d="M 2419 4116 
L 825 1625 
L 2419 1625 
L 2419 4116 
z
M 2253 4666 
L 3047 4666 
L 3047 1625 
L 3713 1625 
L 3713 1100 
L 3047 1100 
L 3047 0 
L 2419 0 
L 2419 1100 
L 313 1100 
L 313 1709 
L 2253 4666 
z
" transform="scale(0.015625)"/>
       </defs>
       <use xlink:href="#DejaVuSans-34"/>
      </g>
     </g>
    </g>
    <g id="ytick_9">
     <g id="line2d_15">
      <g>
       <use xlink:href="#mb9a88f1891" x="180" y="77.800204" style="stroke: #000000; stroke-width: 0.8"/>
      </g>
     </g>
     <g id="text_15">
      <!-- 5 -->
      <g transform="translate(166.6375 81.599423) scale(0.1 -0.1)">
       <use xlink:href="#DejaVuSans-35"/>
      </g>
     </g>
    </g>
   </g>
   <g id="line2d_16">
    <path d="M 230.727273 330.059736 
L 232.712685 329.857773 
L 236.683508 328.73758 
L 239.661626 327.146012 
L 243.63245 323.938217 
L 244.625156 322.306627 
L 245.617862 319.600588 
L 246.610568 317.558898 
L 247.603273 322.299047 
L 248.595979 354.305888 
L 249.588685 340.034514 
L 250.581391 275.489023 
L 251.574097 242.237667 
L 252.566803 223.058808 
L 253.559509 213.98672 
L 254.552215 212.764122 
L 255.544921 215.339433 
L 256.537627 214.213616 
L 257.530333 210.375167 
L 258.523039 210.489772 
L 259.515745 213.455172 
L 260.50845 207.417802 
L 261.501156 197.249868 
L 262.493862 196.689014 
L 263.486568 217.208142 
L 264.479274 300.400052 
L 265.47198 229.462221 
L 266.464686 203.811289 
L 267.457392 210.14006 
L 268.450098 260.940638 
L 269.442804 250.097813 
L 270.43551 213.125934 
L 271.428216 214.63128 
L 272.420922 214.983967 
L 273.413627 184.714244 
L 274.406333 166.104742 
L 275.399039 158.362991 
L 276.391745 148.907042 
L 277.384451 132.404315 
L 278.377157 118.555108 
L 279.369863 112.383979 
L 280.362569 114.279606 
L 281.355275 120.927423 
L 282.347981 120.027679 
L 284.333393 94.253287 
L 285.326099 89.28 
L 286.318804 93.270543 
L 287.31151 107.600775 
L 288.304216 135.011574 
L 289.296922 167.164047 
L 290.289628 162.442955 
L 291.282334 159.942489 
L 292.27504 178.472225 
L 293.267746 231.864398 
L 294.260452 259.522653 
L 295.253158 229.06921 
L 296.245864 251.222397 
L 297.23857 292.68569 
L 298.231276 249.27411 
L 299.223981 246.520291 
L 300.216687 282.175938 
L 301.209393 305.736046 
L 302.202099 274.820098 
L 303.194805 286.958708 
L 304.187511 339.546724 
L 305.180217 310.319773 
L 306.172923 300.351101 
L 307.165629 326.235743 
L 308.158335 323.880008 
L 309.151041 308.716158 
L 310.143747 318.376786 
L 311.136453 343.650289 
L 312.129159 324.860809 
L 313.121864 322.475471 
L 314.11457 334.465019 
L 315.107276 338.053428 
L 316.099982 332.97165 
L 317.092688 337.622426 
L 318.085394 340.821725 
L 319.0781 335.072707 
L 320.070806 343.793562 
L 321.063512 347.983859 
L 322.056218 341.365076 
L 323.048924 345.136143 
L 324.04163 347.793197 
L 325.034336 349.671172 
L 326.027041 345.695496 
L 327.019747 352.373356 
L 328.012453 354.030545 
L 329.005159 355.347788 
L 330.990571 354.055966 
L 331.983277 355.37057 
L 332.975983 366.636258 
L 333.968689 364.921456 
L 334.961395 355.238877 
L 335.954101 357.460413 
L 336.946807 364.281582 
L 337.939513 369.41125 
L 338.932218 366.377423 
L 339.924924 368.318468 
L 340.91763 364.291717 
L 341.910336 366.615252 
L 342.903042 371.991074 
L 343.895748 375.5486 
L 344.888454 366.977004 
L 345.88116 369.178811 
L 346.873866 379.953647 
L 347.866572 381.288753 
L 348.859278 374.557652 
L 349.851984 377.597385 
L 350.84469 375.638864 
L 351.837395 375.265571 
L 352.830101 379.597267 
L 353.822807 389.611704 
L 354.815513 380.5898 
L 355.808219 375.956975 
L 356.800925 377.721289 
L 357.793631 388.354767 
L 358.786337 383.56526 
L 359.779043 379.903377 
L 360.771749 385.566932 
L 361.764455 392.213195 
L 362.757161 385.373762 
L 363.749867 381.574795 
L 364.742572 393.182484 
L 365.735278 390.931753 
L 366.727984 390.012846 
L 367.72069 390.810165 
L 368.713396 388.794221 
L 369.706102 397.70902 
L 370.698808 388.344732 
L 371.691514 394.588881 
L 372.68422 389.221443 
L 373.676926 387.715881 
L 374.669632 396.584121 
L 375.662338 389.55707 
L 376.655044 398.47135 
L 377.64775 393.049344 
L 378.640455 397.001681 
L 379.633161 399.992646 
L 380.625867 402.461053 
L 381.618573 402.729041 
L 382.611279 399.440503 
L 383.603985 399.370314 
L 384.596691 400.028728 
L 385.589397 403.330881 
L 386.582103 401.557663 
L 387.574809 396.486891 
L 388.567515 404.57131 
L 389.560221 399.526088 
L 390.552927 404.273091 
L 391.545632 407.947993 
L 392.538338 397.873332 
L 393.531044 398.75503 
L 394.52375 402.162741 
L 395.516456 410.961743 
L 396.509162 403.302982 
L 397.501868 401.947529 
L 398.494574 409.868554 
L 399.48728 406.319393 
L 400.479986 407.794068 
L 401.472692 408.286255 
L 402.465398 404.040315 
L 403.458104 403.46105 
L 404.450809 407.85362 
L 405.443515 410.036333 
L 406.436221 402.84503 
L 407.428927 412.771987 
L 408.421633 414.595295 
L 409.414339 406.532683 
L 410.407045 407.820264 
L 411.399751 410.334735 
L 412.392457 412.535146 
L 413.385163 417.448336 
L 414.377869 412.033227 
L 415.370575 417.718675 
L 416.363281 409.095207 
L 417.355986 418.222736 
L 418.348692 412.866794 
L 419.341398 420.682924 
L 420.334104 408.339844 
L 421.32681 414.902089 
L 422.319516 412.72269 
L 423.312222 416.321946 
L 424.304928 417.915356 
L 425.297634 413.569463 
L 426.29034 411.72835 
L 427.283046 411.892677 
L 428.275752 414.546102 
L 429.268458 415.88448 
L 430.261163 422.505081 
L 431.253869 416.776226 
L 432.246575 422.572259 
L 433.239281 423.424992 
L 434.231987 417.576187 
L 435.224693 420.822 
L 436.217399 420.126639 
L 437.210105 415.038894 
L 438.202811 415.394673 
L 439.195517 418.129503 
L 440.188223 433.438911 
L 441.180929 431.720589 
L 442.173635 420.189795 
L 443.166341 429.548967 
L 445.151752 428.84306 
L 446.144458 422.684554 
L 447.137164 441.061494 
L 448.12987 426.835105 
L 449.122576 426.786187 
L 450.115282 423.875238 
L 451.107988 430.870622 
L 452.100694 428.976716 
L 453.0934 424.235887 
L 454.086106 430.493619 
L 455.078812 426.634543 
L 456.071518 432.976453 
L 457.064223 417.150583 
L 458.056929 426.792879 
L 459.049635 430.473779 
L 460.042341 420.609504 
L 461.035047 426.635196 
L 462.027753 426.095451 
L 463.020459 422.380098 
L 464.013165 426.834957 
L 465.005871 419.96812 
L 465.998577 429.588327 
L 466.991283 420.536356 
L 467.983989 431.574712 
L 468.976695 428.081762 
L 469.9694 430.774478 
L 470.962106 434.081748 
L 471.954812 435.86521 
L 472.947518 432.39105 
L 473.940224 441.10663 
L 474.93293 436.962236 
L 475.925636 427.079816 
L 476.918342 432.020707 
L 477.911048 425.775269 
L 478.903754 434.009274 
L 479.89646 426.374945 
L 480.889166 441.188736 
L 481.881872 435.725661 
L 482.874577 437.247623 
L 483.867283 436.63725 
L 484.859989 445.658327 
L 485.852695 432.793208 
L 486.845401 440.494634 
L 487.838107 438.339468 
L 488.830813 444.4858 
L 489.823519 431.77777 
L 490.816225 449.274205 
L 491.808931 434.22198 
L 492.801637 444.145252 
L 493.794343 430.482482 
L 494.787049 432.314474 
L 495.779754 440.144943 
L 496.77246 429.290339 
L 497.765166 445.924588 
L 498.757872 448.432961 
L 499.750578 433.010042 
L 500.743284 428.141453 
L 501.73599 437.709217 
L 502.728696 428.33645 
L 503.721402 454.020241 
L 504.714108 430.282582 
L 505.706814 440.127238 
L 506.69952 440.450438 
L 507.692226 433.38233 
L 508.684932 456.865191 
L 509.677637 446.709584 
L 510.670343 444.881736 
L 511.663049 436.990095 
L 512.655755 443.36622 
L 513.648461 440.443117 
L 514.641167 454.344243 
L 515.633873 440.65914 
L 516.626579 431.652391 
L 517.619285 445.011426 
L 518.611991 433.742672 
L 519.604697 432.357597 
L 520.597403 436.665323 
L 521.590109 446.293095 
L 522.582814 447.677392 
L 523.57552 440.283372 
L 524.568226 449.809186 
L 525.560932 432.620281 
L 526.553638 445.918995 
L 527.546344 442.631022 
L 528.53905 442.075298 
L 529.531756 436.394757 
L 530.524462 429.726606 
L 531.517168 440.714826 
L 532.509874 434.240303 
L 533.50258 437.478659 
L 534.495286 446.534747 
L 535.487991 450.214358 
L 536.480697 449.26526 
L 537.473403 429.350589 
L 538.466109 438.713094 
L 539.458815 451.530822 
L 540.451521 450.004175 
L 541.444227 442.420294 
L 542.436933 442.607555 
L 543.429639 457.326958 
L 544.422345 448.868795 
L 545.415051 438.657425 
L 546.407757 465.723016 
L 547.400463 451.294925 
L 548.393168 450.605726 
L 549.385874 453.944815 
L 550.37858 456.046557 
L 551.371286 456.549231 
L 552.363992 456.838189 
L 553.356698 467.196436 
L 554.349404 440.821668 
L 555.34211 449.621505 
L 556.334816 445.745617 
L 557.327522 452.041689 
L 558.320228 449.215294 
L 559.312934 455.53244 
L 560.30564 440.528688 
L 561.298345 444.948062 
L 562.291051 440.544633 
L 563.283757 450.782333 
L 564.276463 472.001686 
L 565.269169 446.922405 
L 566.261875 445.873576 
L 567.254581 437.61429 
L 568.247287 458.099092 
L 569.239993 448.160602 
L 570.232699 460.255616 
L 571.225405 447.974579 
L 572.218111 441.077952 
L 573.210817 456.548557 
L 574.203523 458.174598 
L 575.196228 451.185286 
L 576.188934 448.168471 
L 577.18164 453.47114 
L 578.174346 461.575844 
L 579.167052 442.55666 
L 580.159758 442.022123 
L 581.152464 448.48718 
L 582.14517 445.611759 
L 583.137876 451.233144 
L 584.130582 445.428193 
L 585.123288 448.113492 
L 586.115994 451.230193 
L 587.1087 446.289954 
L 588.101405 455.708544 
L 589.094111 446.40503 
L 590.086817 450.510953 
L 591.079523 465.893455 
L 592.072229 454.859775 
L 593.064935 460.417273 
L 594.057641 451.932493 
L 595.050347 465.047521 
L 596.043053 456.679114 
L 597.035759 457.120054 
L 598.028465 463.345462 
L 599.021171 454.206093 
L 600.013877 454.118126 
L 601.006582 457.620738 
L 601.999288 469.554712 
L 602.991994 465.12383 
L 603.9847 461.557921 
L 604.977406 451.866027 
L 605.970112 458.207121 
L 606.962818 452.717615 
L 607.955524 448.219096 
L 608.94823 447.694912 
L 609.940936 455.82476 
L 610.933642 459.562907 
L 611.926348 457.626109 
L 612.919054 455.365996 
L 613.911759 460.991506 
L 614.904465 463.496324 
L 615.897171 459.205944 
L 616.889877 457.809368 
L 617.882583 453.252894 
L 618.875289 460.963378 
L 619.867995 455.652298 
L 620.860701 463.939755 
L 621.853407 452.005098 
L 622.846113 463.352905 
L 623.838819 451.771614 
L 624.831525 471.045415 
L 625.824231 464.135788 
L 626.816936 463.817231 
L 627.809642 458.439371 
L 628.802348 454.494567 
L 629.795054 467.054799 
L 630.78776 467.681118 
L 631.780466 458.918543 
L 632.773172 463.910585 
L 633.765878 455.880871 
L 634.758584 457.539982 
L 635.75129 456.117053 
L 636.743996 461.176772 
L 637.736702 468.440608 
L 638.729408 456.80092 
L 639.722114 462.985507 
L 640.714819 464.863507 
L 641.707525 464.368444 
L 642.700231 462.491093 
L 643.692937 462.660987 
L 644.685643 457.885784 
L 645.678349 455.970464 
L 646.671055 456.47552 
L 647.663761 458.68184 
L 648.656467 458.810549 
L 649.649173 461.458089 
L 650.641879 460.129814 
L 651.634585 464.266416 
L 652.627291 464.970131 
L 653.619996 460.815694 
L 654.612702 466.527674 
L 655.605408 465.430381 
L 656.598114 465.733722 
L 657.59082 463.206404 
L 658.583526 464.221359 
L 659.576232 464.44162 
L 660.568938 466.802093 
L 661.561644 462.779564 
L 663.547056 462.600483 
L 664.539762 464.665324 
L 665.532468 462.079922 
L 666.525173 465.349826 
L 667.517879 463.726841 
L 668.510585 463.181852 
L 669.503291 462.807458 
L 670.495997 466.610683 
L 671.488703 467.477312 
L 672.481409 465.495409 
L 673.474115 465.57003 
L 674.466821 468.568684 
L 675.459527 465.498267 
L 676.452233 463.02998 
L 677.444939 465.621679 
L 678.437645 465.771334 
L 679.43035 468.498394 
L 680.423056 466.690206 
L 681.415762 466.027811 
L 682.408468 466.735209 
L 684.39388 466.273391 
L 685.386586 466.83101 
L 686.379292 466.573923 
L 687.371998 467.673699 
L 688.364704 468.319706 
L 689.35741 468.601859 
L 690.350116 467.613439 
L 691.342822 467.236036 
L 692.335527 468.875913 
L 693.328233 467.104389 
L 694.320939 468.546742 
L 695.313645 468.110213 
L 696.306351 468.196033 
L 697.299057 468.666221 
L 698.291763 468.577191 
L 699.284469 468.151708 
L 700.277175 466.953118 
L 701.269881 469.188797 
L 702.262587 468.844684 
L 703.255293 469.178663 
L 704.247999 467.977885 
L 705.240705 469.041106 
L 706.23341 468.466717 
L 707.226116 469.463608 
L 708.218822 469.217075 
L 709.211528 469.434109 
L 710.204234 468.721075 
L 712.189646 469.400072 
L 713.182352 470.541685 
L 714.175058 470.186621 
L 715.167764 469.291456 
L 717.153176 469.03902 
L 718.145882 470.259446 
L 719.138587 469.76241 
L 720.131293 471.088468 
L 721.123999 469.806883 
L 722.116705 469.247897 
L 723.109411 469.148789 
L 724.102117 469.372818 
L 725.094823 469.97521 
L 726.087529 471.026469 
L 727.080235 471.016055 
L 728.072941 470.585961 
L 731.051059 471.45887 
L 732.043764 472.42027 
L 733.03647 470.917916 
L 734.029176 470.640438 
L 735.021882 471.048433 
L 736.014588 470.653037 
L 737.007294 471.256691 
L 738 471.435919 
L 738.992706 472.334383 
L 739.985412 472.317423 
L 740.978118 473.164136 
L 741.970824 473.038789 
L 742.96353 471.544139 
L 743.956236 472.151376 
L 744.948941 471.718521 
L 745.941647 472.582696 
L 746.934353 472.935955 
L 747.927059 471.894615 
L 748.919765 472.801533 
L 749.912471 472.397663 
L 750.905177 472.156875 
L 751.897883 473.068678 
L 752.890589 473.116113 
L 753.883295 473.567227 
L 754.876001 472.545969 
L 755.868707 473.344387 
L 756.861413 473.357122 
L 757.854118 473.046186 
L 758.846824 473.157038 
L 759.83953 472.668662 
L 760.832236 473.609754 
L 761.824942 473.149057 
L 762.817648 473.63808 
L 763.810354 473.382957 
L 764.80306 474.851815 
L 765.795766 473.480013 
L 766.788472 474.605946 
L 767.781178 473.215206 
L 768.773884 473.916381 
L 769.76659 473.221901 
L 770.759295 474.686982 
L 771.752001 473.961533 
L 772.744707 474.542612 
L 773.737413 474.05064 
L 774.730119 474.745512 
L 775.722825 475.299671 
L 776.715531 474.315104 
L 777.708237 475.370447 
L 778.700943 474.610799 
L 780.686355 474.677797 
L 781.679061 475.882058 
L 782.671767 475.820189 
L 783.664473 475.148027 
L 784.657178 475.711052 
L 785.649884 475.280741 
L 786.64259 474.662846 
L 787.635296 475.750408 
L 788.628002 475.437147 
L 789.620708 474.84179 
L 790.613414 475.402113 
L 791.60612 476.715597 
L 792.598826 476.580019 
L 793.591532 476.77558 
L 794.584238 475.425216 
L 795.576944 476.106721 
L 796.56965 477.339972 
L 797.562355 475.993116 
L 798.555061 476.157203 
L 799.547767 475.185651 
L 800.540473 476.09099 
L 801.533179 475.310092 
L 802.525885 474.854481 
L 803.518591 477.501237 
L 804.511297 476.065803 
L 805.504003 477.006208 
L 806.496709 476.195993 
L 807.489415 476.522559 
L 808.482121 477.911905 
L 809.474827 476.615815 
L 810.467532 476.604551 
L 811.460238 478.128944 
L 812.452944 477.615294 
L 813.44565 477.898788 
L 814.438356 476.044517 
L 815.431062 477.80581 
L 816.423768 477.683829 
L 818.40918 476.021129 
L 819.401886 478.652686 
L 820.394592 476.801341 
L 821.387298 476.701816 
L 822.380004 477.995332 
L 823.372709 477.75295 
L 824.365415 478.106756 
L 825.358121 477.181494 
L 826.350827 478.959203 
L 827.343533 477.641506 
L 829.328945 478.286645 
L 830.321651 478.332809 
L 831.314357 477.637873 
L 832.307063 478.721718 
L 833.299769 478.076434 
L 834.292475 479.499552 
L 835.285181 477.724731 
L 836.277886 478.823275 
L 837.270592 480.227125 
L 838.263298 478.199191 
L 839.256004 478.526338 
L 841.241416 478.868335 
L 842.234122 478.724931 
L 843.226828 478.816811 
L 844.219534 478.264729 
L 845.21224 480.12635 
L 846.204946 478.994214 
L 847.197652 480.366556 
L 848.190358 478.543787 
L 849.183064 478.818899 
L 850.175769 479.846661 
L 851.168475 481.332953 
L 852.161181 480.501759 
L 853.153887 480.709722 
L 854.146593 479.814529 
L 855.139299 479.263201 
L 856.132005 479.520344 
L 857.124711 479.460959 
L 858.117417 479.596411 
L 859.110123 478.758512 
L 860.102829 481.281839 
L 861.095535 479.077724 
L 862.088241 480.788962 
L 863.080946 480.204648 
L 864.073652 481.024949 
L 865.066358 479.993394 
L 866.059064 480.820205 
L 867.05177 481.444797 
L 868.044476 481.023054 
L 869.037182 479.491569 
L 870.029888 480.455763 
L 871.022594 482.117306 
L 872.0153 481.35714 
L 873.008006 481.074655 
L 874.000712 481.335464 
L 874.993418 481.260113 
L 875.986123 480.70921 
L 876.978829 480.676115 
L 877.971535 481.633734 
L 878.964241 482.361925 
L 879.956947 481.324017 
L 880.949653 482.063809 
L 881.942359 480.652991 
L 882.935065 480.678116 
L 883.927771 481.542828 
L 884.920477 481.568092 
L 885.913183 481.108096 
L 887.898595 481.621459 
L 889.884006 482.097295 
L 890.876712 481.48613 
L 891.869418 482.370329 
L 892.862124 481.525191 
L 893.85483 482.000069 
L 894.847536 482.021554 
L 895.840242 481.732356 
L 896.832948 481.792754 
L 897.825654 483.400782 
L 898.81836 483.160546 
L 899.811066 481.650008 
L 900.803772 482.860133 
L 901.796477 481.930595 
L 902.789183 483.176768 
L 903.781889 483.012719 
L 904.774595 482.62839 
L 905.767301 481.850781 
L 906.760007 483.467857 
L 907.752713 483.261464 
L 908.745419 482.6156 
L 909.738125 483.199379 
L 910.730831 482.669086 
L 911.723537 483.853173 
L 912.716243 484.076276 
L 913.708949 482.707494 
L 914.701655 482.788669 
L 915.69436 483.435997 
L 916.687066 482.614343 
L 917.679772 482.962591 
L 918.672478 482.960875 
L 921.650596 483.315194 
L 922.643302 482.879042 
L 923.636008 483.056203 
L 924.628714 484.485252 
L 925.62142 484.67036 
L 927.606832 483.186522 
L 928.599537 484.071435 
L 929.592243 483.862173 
L 930.584949 484.413172 
L 931.577655 482.507324 
L 932.570361 483.404457 
L 933.563067 484.118914 
L 934.555773 483.516444 
L 935.548479 483.455647 
L 936.541185 483.102267 
L 937.533891 484.815657 
L 939.519303 484.305604 
L 940.512009 482.848884 
L 941.504714 484.420101 
L 942.49742 484.48172 
L 943.490126 485.226133 
L 944.482832 485.619933 
L 945.475538 485.473972 
L 946.468244 483.394857 
L 947.46095 484.153383 
L 948.453656 485.185837 
L 949.446362 484.977007 
L 950.439068 484.544297 
L 951.431774 484.871949 
L 952.42448 485.080711 
L 953.417186 486.031905 
L 954.409891 484.986126 
L 955.402597 485.050798 
L 957.388009 486.473873 
L 958.380715 485.06122 
L 959.373421 483.887496 
L 960.366127 486.56267 
L 961.358833 484.439768 
L 962.351539 485.616176 
L 963.344245 484.776342 
L 964.336951 484.867953 
L 965.329657 484.411197 
L 966.322363 485.450985 
L 967.315068 485.249669 
L 968.307774 485.589366 
L 969.30048 484.974188 
L 970.293186 486.753209 
L 971.285892 484.961252 
L 972.278598 485.541084 
L 973.271304 484.413533 
L 974.26401 485.768859 
L 975.256716 486.092195 
L 976.249422 484.851221 
L 977.242128 485.702493 
L 978.234834 485.251301 
L 979.22754 485.972955 
L 980.220246 486.159661 
L 981.212951 486.03676 
L 982.205657 487.031043 
L 983.198363 486.42555 
L 984.191069 486.278274 
L 985.183775 486.714929 
L 986.176481 484.690873 
L 987.169187 486.866177 
L 988.161893 485.987807 
L 989.154599 485.891655 
L 990.147305 487.276682 
L 991.140011 486.074528 
L 992.132717 485.751441 
L 993.125423 486.895164 
L 994.118128 486.7723 
L 995.110834 486.88858 
L 996.10354 485.548235 
L 997.096246 486.433712 
L 998.088952 487.071266 
L 999.081658 487.561268 
L 1000.074364 486.73156 
L 1001.06707 487.020987 
L 1002.059776 487.16474 
L 1003.052482 486.585482 
L 1004.045188 486.171972 
L 1005.037894 487.40991 
L 1006.0306 486.225674 
L 1007.023305 487.417335 
L 1008.016011 485.962217 
L 1009.008717 485.999127 
L 1010.001423 487.058504 
L 1010.994129 486.459661 
L 1011.986835 486.839379 
L 1012.979541 486.584789 
L 1013.972247 487.264798 
L 1014.964953 487.003542 
L 1015.957659 485.535163 
L 1016.950365 487.963139 
L 1017.943071 486.928661 
L 1018.935777 486.695062 
L 1019.928482 487.706608 
L 1020.921188 488.132387 
L 1021.913894 487.159384 
L 1022.9066 486.351641 
L 1023.899306 486.639987 
L 1024.892012 488.066808 
L 1025.884718 486.811806 
L 1026.877424 487.467476 
L 1027.87013 487.039733 
L 1028.862836 488.634877 
L 1029.855542 489.179663 
L 1031.840954 487.572971 
L 1032.833659 487.48438 
L 1033.826365 487.074482 
L 1034.819071 487.546204 
L 1035.811777 487.315533 
L 1037.797189 487.714062 
L 1038.789895 486.323695 
L 1039.782601 488.274103 
L 1040.775307 489.323159 
L 1041.768013 488.783616 
L 1042.760719 488.587257 
L 1043.753425 489.339527 
L 1044.746131 487.876258 
L 1045.738837 487.845177 
L 1046.731542 487.015794 
L 1047.724248 487.617651 
L 1048.716954 487.770633 
L 1049.70966 488.576225 
L 1050.702366 488.527086 
L 1051.695072 489.158467 
L 1052.687778 488.441814 
L 1053.680484 488.249736 
L 1054.67319 488.233076 
L 1056.658602 487.478803 
L 1057.651308 488.036467 
L 1058.644014 488.979065 
L 1059.636719 488.161275 
L 1060.629425 488.830063 
L 1061.622131 488.098871 
L 1062.614837 489.055587 
L 1063.607543 487.940687 
L 1064.600249 488.350025 
L 1065.592955 489.455098 
L 1067.578367 489.037584 
L 1068.571073 488.138367 
L 1069.563779 489.444419 
L 1070.556485 488.348486 
L 1071.549191 488.679358 
L 1072.541896 487.854386 
L 1073.534602 488.302582 
L 1074.527308 487.886649 
L 1075.520014 489.358035 
L 1076.51272 489.146952 
L 1079.490838 488.021576 
L 1082.468956 488.227766 
L 1083.461662 489.85451 
L 1084.454368 487.748103 
L 1085.447073 489.073465 
L 1086.439779 489.112946 
L 1087.432485 488.981396 
L 1088.425191 488.360662 
L 1089.417897 489.874056 
L 1090.410603 489.344756 
L 1091.403309 488.265023 
L 1092.396015 488.913528 
L 1094.381427 489.938008 
L 1095.374133 487.996839 
L 1096.366839 488.613099 
L 1097.359545 488.73676 
L 1098.35225 489.148192 
L 1099.344956 489.227833 
L 1100.337662 488.480047 
L 1101.330368 489.113507 
L 1102.323074 488.934426 
L 1103.31578 487.595806 
L 1104.308486 490.375127 
L 1106.293898 488.96055 
L 1107.286604 488.700649 
L 1108.27931 489.893444 
L 1109.272016 488.149228 
L 1110.264722 488.9144 
L 1111.257428 489.454504 
L 1112.250133 489.646983 
L 1113.242839 488.1474 
L 1114.235545 490.341752 
L 1115.228251 490.161287 
L 1116.220957 490.413596 
L 1117.213663 489.974983 
L 1118.206369 489.991095 
L 1119.199075 490.57802 
L 1120.191781 488.676607 
L 1121.184487 488.764484 
L 1122.177193 489.66328 
L 1123.169899 489.124324 
L 1124.162605 489.359751 
L 1125.15531 490.779589 
L 1126.148016 489.644579 
L 1127.140722 489.306605 
L 1128.133428 489.390607 
L 1129.126134 490.613954 
L 1130.11884 490.354883 
L 1132.104252 489.150137 
L 1133.096958 490.178978 
L 1134.089664 490.670779 
L 1135.08237 489.309109 
L 1136.075076 488.215439 
L 1137.067782 489.709913 
L 1138.060487 489.459683 
L 1139.053193 489.915543 
L 1140.045899 489.425154 
L 1141.038605 490.00332 
L 1142.031311 489.35652 
L 1143.024017 489.87258 
L 1144.016723 491.778257 
L 1145.009429 490.119419 
L 1146.002135 489.526729 
L 1146.994841 490.302315 
L 1147.987547 490.337565 
L 1148.980253 488.821735 
L 1149.972959 489.881874 
L 1150.965664 490.639668 
L 1151.95837 489.803659 
L 1152.951076 490.536997 
L 1153.943782 490.105854 
L 1154.936488 489.799859 
L 1156.9219 490.737282 
L 1157.914606 488.851719 
L 1158.907312 490.249847 
L 1159.900018 490.634622 
L 1160.892724 490.282726 
L 1161.88543 488.752714 
L 1162.878136 490.798754 
L 1164.863547 489.485482 
L 1165.856253 490.737481 
L 1166.848959 489.171372 
L 1167.841665 490.314956 
L 1168.834371 489.302306 
L 1169.827077 488.677251 
L 1170.819783 489.785291 
L 1171.812489 490.010044 
L 1172.805195 489.413384 
L 1173.797901 490.812482 
L 1174.790607 491.179457 
L 1175.783313 490.541339 
L 1176.776019 490.04559 
L 1177.768724 491.278663 
L 1178.76143 490.806671 
L 1179.754136 490.972416 
L 1180.746842 489.972067 
L 1181.739548 490.109152 
L 1182.732254 491.109921 
L 1183.72496 490.343915 
L 1184.717666 490.582067 
L 1185.710372 491.359805 
L 1188.68849 489.454024 
L 1189.681196 490.503455 
L 1190.673901 490.931306 
L 1191.666607 489.372942 
L 1192.659313 489.877712 
L 1193.652019 490.530617 
L 1194.644725 490.0269 
L 1195.637431 490.475982 
L 1196.630137 489.817151 
L 1197.622843 490.206195 
L 1198.615549 489.783452 
L 1199.608255 490.57343 
L 1200.600961 491.876666 
L 1201.593667 491.146532 
L 1202.586373 490.996453 
L 1203.579078 490.126381 
L 1204.571784 489.836777 
L 1205.56449 490.616976 
L 1206.557196 490.377181 
L 1207.549902 490.867882 
L 1208.542608 490.789944 
L 1209.535314 490.197373 
L 1210.52802 491.318543 
L 1211.520726 491.711819 
L 1212.513432 492.376745 
L 1213.506138 491.55086 
L 1214.498844 489.945495 
L 1215.49155 490.720829 
L 1216.484255 490.694627 
L 1217.476961 491.931493 
L 1218.469667 490.550175 
L 1219.462373 492.48 
L 1220.455079 489.518095 
L 1221.447785 490.428068 
L 1222.440491 490.70194 
L 1223.433197 490.585879 
L 1224.425903 489.712016 
L 1225.418609 491.52395 
L 1226.411315 490.315003 
L 1227.404021 490.790188 
L 1228.396727 490.596161 
L 1229.389432 490.588176 
L 1230.382138 491.410969 
L 1231.374844 491.55352 
L 1232.36755 492.455856 
L 1233.360256 490.293764 
L 1234.352962 490.790612 
L 1235.345668 490.041249 
L 1236.338374 491.692788 
L 1237.33108 491.378326 
L 1238.323786 490.670012 
L 1239.316492 491.268211 
L 1240.309198 492.061474 
L 1241.301904 490.484758 
L 1242.29461 490.952344 
L 1243.287315 489.679405 
L 1244.280021 489.626587 
L 1245.272727 490.500622 
L 1245.272727 490.500622 
" clip-path="url(#pef1722e038)" style="fill: none; stroke: #1f77b4; stroke-width: 1.5; stroke-linecap: square"/>
   </g>
   <g id="patch_3">
    <path d="M 180 512.64 
L 180 69.12 
" style="fill: none; stroke: #000000; stroke-width: 0.8; stroke-linejoin: miter; stroke-linecap: square"/>
   </g>
   <g id="patch_4">
    <path d="M 1296 512.64 
L 1296 69.12 
" style="fill: none; stroke: #000000; stroke-width: 0.8; stroke-linejoin: miter; stroke-linecap: square"/>
   </g>
   <g id="patch_5">
    <path d="M 180 512.64 
L 1296 512.64 
" style="fill: none; stroke: #000000; stroke-width: 0.8; stroke-linejoin: miter; stroke-linecap: square"/>
   </g>
   <g id="patch_6">
    <path d="M 180 69.12 
L 1296 69.12 
" style="fill: none; stroke: #000000; stroke-width: 0.8; stroke-linejoin: miter; stroke-linecap: square"/>
   </g>
   <g id="text_16">
    <!-- source14-receiver5 -->
    <g transform="translate(544.9 60.80125) scale(0.4 -0.4)">
     <defs>
      <path id="DejaVuSans-73" d="M 2834 3397 
L 2834 2853 
Q 2591 2978 2328 3040 
Q 2066 3103 1784 3103 
Q 1356 3103 1142 2972 
Q 928 2841 928 2578 
Q 928 2378 1081 2264 
Q 1234 2150 1697 2047 
L 1894 2003 
Q 2506 1872 2764 1633 
Q 3022 1394 3022 966 
Q 3022 478 2636 193 
Q 2250 -91 1575 -91 
Q 1294 -91 989 -36 
Q 684 19 347 128 
L 347 722 
Q 666 556 975 473 
Q 1284 391 1588 391 
Q 1994 391 2212 530 
Q 2431 669 2431 922 
Q 2431 1156 2273 1281 
Q 2116 1406 1581 1522 
L 1381 1569 
Q 847 1681 609 1914 
Q 372 2147 372 2553 
Q 372 3047 722 3315 
Q 1072 3584 1716 3584 
Q 2034 3584 2315 3537 
Q 2597 3491 2834 3397 
z
" transform="scale(0.015625)"/>
      <path id="DejaVuSans-6f" d="M 1959 3097 
Q 1497 3097 1228 2736 
Q 959 2375 959 1747 
Q 959 1119 1226 758 
Q 1494 397 1959 397 
Q 2419 397 2687 759 
Q 2956 1122 2956 1747 
Q 2956 2369 2687 2733 
Q 2419 3097 1959 3097 
z
M 1959 3584 
Q 2709 3584 3137 3096 
Q 3566 2609 3566 1747 
Q 3566 888 3137 398 
Q 2709 -91 1959 -91 
Q 1206 -91 779 398 
Q 353 888 353 1747 
Q 353 2609 779 3096 
Q 1206 3584 1959 3584 
z
" transform="scale(0.015625)"/>
      <path id="DejaVuSans-75" d="M 544 1381 
L 544 3500 
L 1119 3500 
L 1119 1403 
Q 1119 906 1312 657 
Q 1506 409 1894 409 
Q 2359 409 2629 706 
Q 2900 1003 2900 1516 
L 2900 3500 
L 3475 3500 
L 3475 0 
L 2900 0 
L 2900 538 
Q 2691 219 2414 64 
Q 2138 -91 1772 -91 
Q 1169 -91 856 284 
Q 544 659 544 1381 
z
M 1991 3584 
L 1991 3584 
z
" transform="scale(0.015625)"/>
      <path id="DejaVuSans-72" d="M 2631 2963 
Q 2534 3019 2420 3045 
Q 2306 3072 2169 3072 
Q 1681 3072 1420 2755 
Q 1159 2438 1159 1844 
L 1159 0 
L 581 0 
L 581 3500 
L 1159 3500 
L 1159 2956 
Q 1341 3275 1631 3429 
Q 1922 3584 2338 3584 
Q 2397 3584 2469 3576 
Q 2541 3569 2628 3553 
L 2631 2963 
z
" transform="scale(0.015625)"/>
      <path id="DejaVuSans-63" d="M 3122 3366 
L 3122 2828 
Q 2878 2963 2633 3030 
Q 2388 3097 2138 3097 
Q 1578 3097 1268 2742 
Q 959 2388 959 1747 
Q 959 1106 1268 751 
Q 1578 397 2138 397 
Q 2388 397 2633 464 
Q 2878 531 3122 666 
L 3122 134 
Q 2881 22 2623 -34 
Q 2366 -91 2075 -91 
Q 1284 -91 818 406 
Q 353 903 353 1747 
Q 353 2603 823 3093 
Q 1294 3584 2113 3584 
Q 2378 3584 2631 3529 
Q 2884 3475 3122 3366 
z
" transform="scale(0.015625)"/>
      <path id="DejaVuSans-65" d="M 3597 1894 
L 3597 1613 
L 953 1613 
Q 991 1019 1311 708 
Q 1631 397 2203 397 
Q 2534 397 2845 478 
Q 3156 559 3463 722 
L 3463 178 
Q 3153 47 2828 -22 
Q 2503 -91 2169 -91 
Q 1331 -91 842 396 
Q 353 884 353 1716 
Q 353 2575 817 3079 
Q 1281 3584 2069 3584 
Q 2775 3584 3186 3129 
Q 3597 2675 3597 1894 
z
M 3022 2063 
Q 3016 2534 2758 2815 
Q 2500 3097 2075 3097 
Q 1594 3097 1305 2825 
Q 1016 2553 972 2059 
L 3022 2063 
z
" transform="scale(0.015625)"/>
      <path id="DejaVuSans-2d" d="M 313 2009 
L 1997 2009 
L 1997 1497 
L 313 1497 
L 313 2009 
z
" transform="scale(0.015625)"/>
      <path id="DejaVuSans-69" d="M 603 3500 
L 1178 3500 
L 1178 0 
L 603 0 
L 603 3500 
z
M 603 4863 
L 1178 4863 
L 1178 4134 
L 603 4134 
L 603 4863 
z
" transform="scale(0.015625)"/>
      <path id="DejaVuSans-76" d="M 191 3500 
L 800 3500 
L 1894 563 
L 2988 3500 
L 3597 3500 
L 2284 0 
L 1503 0 
L 191 3500 
z
" transform="scale(0.015625)"/>
     </defs>
     <use xlink:href="#DejaVuSans-73"/>
     <use xlink:href="#DejaVuSans-6f" x="52.099609"/>
     <use xlink:href="#DejaVuSans-75" x="113.28125"/>
     <use xlink:href="#DejaVuSans-72" x="176.660156"/>
     <use xlink:href="#DejaVuSans-63" x="215.523438"/>
     <use xlink:href="#DejaVuSans-65" x="270.503906"/>
     <use xlink:href="#DejaVuSans-31" x="332.027344"/>
     <use xlink:href="#DejaVuSans-34" x="395.650391"/>
     <use xlink:href="#DejaVuSans-2d" x="459.273438"/>
     <use xlink:href="#DejaVuSans-72" x="495.357422"/>
     <use xlink:href="#DejaVuSans-65" x="534.220703"/>
     <use xlink:href="#DejaVuSans-63" x="595.744141"/>
     <use xlink:href="#DejaVuSans-65" x="650.724609"/>
     <use xlink:href="#DejaVuSans-69" x="712.248047"/>
     <use xlink:href="#DejaVuSans-76" x="740.03125"/>
     <use xlink:href="#DejaVuSans-65" x="799.210938"/>
     <use xlink:href="#DejaVuSans-72" x="860.734375"/>
     <use xlink:href="#DejaVuSans-35" x="901.847656"/>
    </g>
   </g>
  </g>
 </g>
 <defs>
  <clipPath id="pef1722e038">
   <rect x="180" y="69.12" width="1116" height="443.52"/>
  </clipPath>
 </defs>
</svg>
